<?xml version="1.0" standalone="no"?>
<!DOCTYPE svg PUBLIC "-//W3C//DTD SVG 1.1//EN" "http://www.w3.org/Graphics/SVG/1.1/DTD/svg11.dtd" >
<svg xmlns="http://www.w3.org/2000/svg" xmlns:xlink="http://www.w3.org/1999/xlink" version="1.1">
<metadata>
Created by FontForge 20170924 at Fri Feb 10 08:30:47 2012
 By Glenn,,,
Creative Commons CC BY-SA 2012
</metadata>
<defs>
<font id="Entypo" horiz-adv-x="600" >
  <font-face 
    font-family="Entypo"
    font-weight="400"
    font-stretch="normal"
    units-per-em="1000"
    panose-1="0 0 0 0 0 0 0 0 0 0"
    ascent="750"
    descent="-250"
    x-height="412"
    cap-height="460"
    bbox="-0.692902 -0.129946 551.248 500"
    underline-thickness="0"
    underline-position="-100"
    stemh="50"
    stemv="50"
    unicode-range="U+0020-2122"
  />
<missing-glyph horiz-adv-x="500" 
 />
    <glyph glyph-name=".notdef" horiz-adv-x="500" 
 />
    <glyph glyph-name="exclam" unicode="!" horiz-adv-x="475" 
d="M266 221c37 37 73 80 56 97c-24 24 -46 39 -3 93c44 54 72 13 96 -11c27 -27 1 -129 -99 -229s-201 -126 -229 -98c-23 23 -64 52 -11 95c54 43 69 22 93 -3c17 -17 60 19 97 56z" />
    <glyph glyph-name="space" unicode=" " horiz-adv-x="500" 
 />
    <glyph glyph-name="quotedbl" unicode="&#x22;" horiz-adv-x="390" 
d="M290 495c28 0 50 -23 50 -50v-390c0 -28 -22 -50 -50 -50h-190c-27 0 -50 22 -50 50v390c0 27 23 50 50 50h190zM195 25c20 0 35 11 35 25s-15 25 -35 25c-19 0 -35 -11 -35 -25s16 -25 35 -25zM300 100v330h-210v-330h210z" />
    <glyph glyph-name="numbersign" unicode="#" horiz-adv-x="381" 
d="M326 140c18 -53 -17 -113 -78 -134c-62 -19 -124 8 -139 62l-54 193c-13 45 7 94 46 119l-48 94c-5 8 -2 19 7 24c8 4 19 1 23 -8l50 -96c53 14 109 -14 127 -66zM163 277c18 6 28 26 22 44c-5 19 -25 29 -43 23s-28 -26 -23 -44c6 -19 26 -29 44 -23z" />
    <glyph glyph-name="dollar" unicode="$" 
d="M262 475c6 0 10 -5 10 -10v-430c0 -6 -4 -10 -10 -10h-22c-6 0 -10 4 -10 10v220h-89c-4 0 -9 1 -14 2c-5 2 -10 4 -13 6l-59 41c-4 2 -5 5 -5 8s1 6 5 9l59 40c3 3 8 5 13 6c5 2 10 3 14 3h89v95c0 5 4 10 10 10h22zM544 371c4 -3 6 -6 6 -9s-2 -6 -6 -8l-59 -41
c-3 -2 -8 -4 -13 -6c-5 -1 -10 -2 -14 -2h-151l-20 115h171c4 0 9 -1 14 -3c5 -1 10 -3 13 -6z" />
    <glyph glyph-name="percent" unicode="%" horiz-adv-x="551" 
d="M65 368c-12 6 -23 27 -1 27h423c22 0 11 -21 -1 -27c-13 -7 -182 -98 -188 -101s-14 -5 -22 -5c-9 0 -17 2 -23 5s-175 94 -188 101zM491 318c10 5 10 -1 10 -6v-183c0 -11 -14 -24 -25 -24h-401c-11 0 -24 13 -24 24v183c0 5 -1 11 9 6c14 -8 184 -97 193 -101
c8 -4 14 -5 23 -5c8 0 14 1 22 5c9 4 179 93 193 101z" />
    <glyph glyph-name="ampersand" unicode="&#x26;" horiz-adv-x="491" 
d="M409 414c36 -36 31 -63 31 -63l-126 -126l-145 -145l-119 -25l25 119l145 144l126 127s27 5 63 -31zM162 95l12 11s-1 22 -25 47c-25 25 -48 26 -48 26l-11 -12l-9 -41c7 -4 15 -8 23 -17c9 -9 14 -16 18 -23z" />
    <glyph glyph-name="quotesingle" unicode="'" horiz-adv-x="569" 
d="M173 4c-33 0 -64 14 -86 36c-43 43 -55 118 5 179c36 35 177 177 248 247c25 25 57 35 88 27c30 -8 54 -33 62 -63s-1 -62 -26 -87l-237 -237c-14 -14 -29 -22 -44 -23c-16 -2 -30 3 -40 13c-19 18 -21 53 9 84l167 166c7 7 18 7 24 0c7 -7 7 -18 0 -25l-166 -166
c-14 -14 -16 -28 -10 -34c3 -3 7 -4 12 -4c7 1 15 6 23 13l237 237c16 17 22 36 17 54c-4 18 -19 33 -38 38c-18 5 -37 -1 -53 -17l-248 -248c-46 -46 -35 -99 -5 -129c29 -30 83 -41 129 5l247 248c7 7 18 7 25 0s7 -18 0 -25l-248 -248c-29 -29 -61 -41 -92 -41z" />
    <glyph glyph-name="parenleft" unicode="(" horiz-adv-x="550" 
d="M500 80c-63 110 -151 120 -270 120v-109l-180 167l180 162v-97c220 0 270 -243 270 -243z" />
    <glyph glyph-name="parenright" unicode=")" 
d="M231 353l-106 -94l106 -98v-70l-181 168l181 161v-67zM356 323c185 0 194 -243 194 -243c-62 110 -112 120 -194 120v-109l-181 168l181 161v-97z" />
    <glyph glyph-name="asterisk" unicode="*" horiz-adv-x="550" 
d="M320 200c-119 0 -207 -10 -270 -120c0 0 50 243 270 243v97l180 -161l-180 -168v109z" />
    <glyph glyph-name="plus" unicode="+" horiz-adv-x="570" 
d="M418 139c62 -23 102 -46 102 -61v-53h-235h-235v53c0 15 41 38 102 61c62 22 82 41 82 82c0 24 -19 16 -27 61c-4 18 -20 0 -24 42c0 17 10 21 10 21s-5 25 -7 44c-2 24 14 86 99 86c86 0 102 -62 100 -86c-2 -19 -7 -44 -7 -44s9 -4 9 -21c-3 -42 -19 -24 -23 -42
c-8 -45 -27 -37 -27 -61c0 -41 20 -60 81 -82z" />
    <glyph glyph-name="comma" unicode="," 
d="M550 37h-112v72c0 35 -11 43 -92 82c15 11 21 22 21 41c0 16 -12 11 -17 41c-2 12 -12 0 -14 28c0 11 6 14 6 14s-3 16 -4 29c-1 16 8 57 60 57c51 0 61 -41 60 -57c-1 -13 -4 -29 -4 -29s5 -3 5 -14c-2 -28 -12 -16 -14 -28c-5 -30 -16 -25 -16 -41c0 -27 12 -40 49 -55
s57 -25 66 -39c5 -9 6 -101 6 -101zM306 164c50 -20 92 -40 92 -61v-66h-348v88c0 23 28 33 43 39c49 20 65 36 65 72c0 22 -15 15 -22 55c-3 16 -16 0 -19 37c0 15 8 19 8 19s-4 22 -5 39c-2 22 11 76 79 76c69 0 82 -54 80 -76c-1 -17 -5 -39 -5 -39s7 -4 7 -19
c-2 -37 -16 -21 -18 -37c-7 -40 -22 -33 -22 -55c0 -36 16 -52 65 -72z" />
    <glyph glyph-name="hyphen" unicode="-" 
d="M359 139c62 -23 91 -46 91 -61v-53h-400v100c15 7 33 11 40 14c62 22 82 41 82 82c0 24 -19 16 -27 61c-4 18 -20 0 -24 42c0 17 10 21 10 21s-5 25 -7 44c-2 24 14 86 101 86c86 0 102 -62 100 -86c-2 -19 -7 -44 -7 -44s10 -4 10 -21c-4 -42 -20 -24 -24 -42
c-8 -45 -27 -37 -27 -61c0 -41 20 -60 82 -82zM475 275h75v-50h-75v-75h-50v75h-75v50h75v75h50v-75z" />
    <glyph glyph-name="period" unicode="." 
d="M500 450c27 0 50 -23 50 -50v-300c0 -28 -23 -50 -50 -50h-400c-28 0 -50 22 -50 50v300c0 27 22 50 50 50h400zM500 100v300h-400v-300h400zM275 197v-45h-125v45h125zM275 272v-45h-125v45h125zM275 347v-45h-125v45h125zM447 187c3 0 3 -35 3 -35h-125s0 35 2 35
c0 0 43 12 43 33s-28 30 -28 72c0 35 11 55 45 55c35 0 45 -20 45 -55c0 -42 -27 -51 -27 -72s42 -33 42 -33z" />
    <glyph glyph-name="slash" unicode="/" 
d="M425 105v27l50 42v-94c0 -14 -12 -25 -25 -25h-375c-14 0 -25 11 -25 25v275c0 14 11 25 25 25h144c-37 -28 -55 -50 -55 -50h-64v-225h325zM384 279c-110 0 -145 -18 -202 -112c0 0 0 200 202 200v78l166 -125l-166 -130v89z" />
    <glyph glyph-name="zero" unicode="0" horiz-adv-x="350" 
d="M175 450c69 0 125 -56 125 -125c0 -119 -125 -275 -125 -275s-125 156 -125 275c0 69 56 125 125 125zM175 256c37 0 67 30 67 67c0 38 -30 68 -67 68c-38 0 -68 -30 -68 -68c0 -37 30 -67 68 -67z" />
    <glyph glyph-name="one" unicode="1" 
d="M543 374c4 -3 7 -8 7 -14v-293c0 -6 -3 -12 -8 -15c-2 -1 -5 -2 -8 -2s-6 1 -8 2l-109 68l-108 -68c-5 -3 -12 -3 -17 0l-108 68l-109 -68c-5 -3 -11 -3 -16 0s-9 9 -9 15v293c0 6 3 11 8 14l117 74c5 3 12 3 17 0l108 -68l109 68c5 3 12 3 17 0zM167 150v253l-84 -53
v-253zM284 97v253l-84 53v-253zM401 150v253l-84 -53v-253zM518 97v253l-84 53v-253z" />
    <glyph glyph-name="two" unicode="2" horiz-adv-x="582" 
d="M287 490c133 2 242 -104 244 -237c1 -132 -105 -241 -237 -243c-133 -2 -242 104 -243 237c-2 132 104 241 236 243zM293 60c105 2 188 88 187 192c-1 105 -87 189 -192 187c-105 -1 -188 -87 -187 -192c2 -104 87 -188 192 -187zM177 137c0 0 16 115 64 163
c49 49 163 65 163 65s-15 -115 -64 -163c-49 -49 -163 -65 -163 -65zM266 276c-14 -14 -14 -36 0 -50c14 -13 36 -13 49 0c21 21 35 60 44 94c-33 -9 -73 -24 -93 -44z" />
    <glyph glyph-name="three" unicode="3" horiz-adv-x="530" 
d="M473 459c15 -15 1 -29 -22 -76c-60 -127 -184 -348 -184 -348l-28 190l-189 27s221 124 347 185c48 23 62 37 76 22zM428 410l-152 -140l14 -116z" />
    <glyph glyph-name="four" unicode="4" horiz-adv-x="530" 
d="M265 465c118 0 215 -96 215 -215s-97 -215 -215 -215c-119 0 -215 96 -215 215s96 215 215 215zM282 76c83 8 148 74 157 156h-97v35h97c-9 83 -74 149 -157 157v-97h-35v97c-83 -8 -148 -74 -157 -157h97v-35h-97c9 -82 74 -148 157 -156v96h35v-96z" />
    <glyph glyph-name="five" unicode="5" horiz-adv-x="500" 
d="M375 175c41 0 75 -34 75 -75s-34 -75 -75 -75c-42 0 -75 34 -75 75c0 4 0 8 1 12l-131 78c-12 -9 -28 -15 -45 -15c-42 0 -75 34 -75 75s33 75 75 75c17 0 33 -6 45 -16l131 79c-1 4 -1 8 -1 12c0 41 33 75 75 75c41 0 75 -34 75 -75s-34 -75 -75 -75c-18 0 -33 6 -46 15
l-131 -78c1 -4 2 -8 2 -12s-1 -8 -2 -12l131 -79c13 10 28 16 46 16z" />
    <glyph glyph-name="six" unicode="6" horiz-adv-x="532" 
d="M446 396c47 -43 47 -113 0 -156l-180 -165l-180 165c-47 43 -47 113 0 156c42 38 110 38 151 0l29 -26l28 26c42 38 110 38 152 0z" />
    <glyph glyph-name="seven" unicode="7" horiz-adv-x="540" 
d="M270 470l59 -168h161l-131 -99l46 -173l-135 104l-136 -104l46 173l-130 99h160z" />
    <glyph glyph-name="eight" unicode="8" horiz-adv-x="550" 
d="M50 265c0 10 5 22 21 22h79v-200h-78c-15 0 -22 10 -22 24v154zM442 317c39 0 58 -27 58 -73v-120c0 -40 -58 -87 -110 -87h-105c-52 0 -53 50 -110 50v200h8c40 0 97 69 107 102c10 34 -3 73 29 73c26 0 36 -21 36 -69l-5 -78s63 2 92 2z" />
    <glyph glyph-name="nine" unicode="9" 
d="M195 195h175h5v-45c0 -28 -22 -50 -50 -50h-125l-75 -75v75h-25c-27 0 -50 22 -50 50v150c0 27 23 50 50 50h95v-155zM500 475c28 0 50 -23 50 -50v-150c0 -28 -22 -50 -50 -50h-25v-75l-75 75h-175v200c0 27 23 50 50 50h225z" />
    <glyph glyph-name="colon" unicode=":" horiz-adv-x="500" 
d="M400 425c27 0 50 -23 50 -50v-175c0 -28 -23 -50 -50 -50h-100v-75l-100 75h-100c-28 0 -50 22 -50 50v175c0 27 22 50 50 50h300z" />
    <glyph glyph-name="semicolon" unicode=";" horiz-adv-x="480" 
d="M122 415c169 0 101 -330 -72 -330v35c97 0 145 145 72 145c-40 0 -72 34 -72 75s32 75 72 75zM332 415c169 0 101 -330 -72 -330v35c97 0 145 145 72 145c-40 0 -72 34 -72 75s32 75 72 75z" />
    <glyph glyph-name="less" unicode="&#x3c;" horiz-adv-x="590" 
d="M82 337c-14 0 -12 16 -5 18c7 3 86 32 100 32h23v75h190v-75h22c14 0 93 -29 100 -32c7 -2 9 -18 -5 -18h-425zM512 310c14 0 28 -16 28 -30v-88c0 -13 -14 -30 -28 -30h-49l22 -125h-380l22 125h-50c-14 0 -27 17 -27 30v88c0 14 13 30 27 30h435zM155 87h280l-35 163
h-210z" />
    <glyph glyph-name="equal" unicode="=" horiz-adv-x="501" 
d="M367 287c24 -52 63 -22 82 -76c14 -39 -55 -119 -164 -159c-108 -40 -211 -24 -225 15c-19 54 29 56 15 112c-34 131 -40 186 32 246c26 21 4 35 30 44c25 9 17 -15 50 -15c93 2 123 -44 180 -167zM274 85c97 36 145 103 141 114c-6 18 -68 33 -179 -8
s-148 -95 -142 -111c3 -10 83 -31 180 5zM243 172c6 3 13 5 19 7v-1c9 -26 -14 -58 -52 -72c-30 -12 -60 -8 -76 7c22 19 58 41 109 59z" />
    <glyph glyph-name="greater" unicode="&#x3e;" horiz-adv-x="500" 
d="M197 133c10 9 25 9 35 -1c10 -9 10 -25 0 -35l-20 -20c-19 -18 -43 -27 -67 -27s-48 9 -67 27c-18 18 -28 42 -28 67s10 48 28 66l75 74c46 46 99 53 135 17c10 -10 10 -25 0 -35c-9 -10 -25 -10 -35 0c-21 21 -50 -2 -65 -17l-75 -74c-8 -8 -13 -19 -13 -31
s5 -23 13 -32c18 -17 46 -17 64 0zM423 420c18 -18 27 -42 27 -67s-9 -48 -27 -66l-80 -79c-24 -24 -50 -37 -75 -37c-20 0 -39 8 -55 25c-10 10 -10 25 0 35c9 10 25 10 35 0c7 -7 24 -24 60 12l80 79c8 8 13 19 13 31s-5 23 -13 32c-16 15 -40 23 -59 4l-25 -25
c-10 -9 -25 -9 -35 1c-10 9 -10 25 0 35l25 25c36 35 90 33 129 -5z" />
    <glyph glyph-name="question" unicode="?" horiz-adv-x="550" 
d="M487 383c9 4 16 -2 11 -10c-234 -339 -154 6 -351 -159l45 -177h-51l-91 361l46 16c221 162 105 -145 391 -31z" />
    <glyph glyph-name="at" unicode="@" horiz-adv-x="520" 
d="M429 250c0 -26 16 -47 41 -61c-5 -15 -11 -29 -18 -42c-27 7 -49 -3 -68 -22c-18 -19 -24 -41 -17 -68c-13 -7 -27 -13 -41 -17c-15 24 -40 40 -66 40c-27 0 -52 -16 -67 -40c-14 4 -28 10 -41 17c7 27 1 49 -17 68c-19 19 -41 24 -68 17c-7 13 -13 27 -17 42
c24 14 40 40 40 66s-16 47 -40 61c4 15 10 29 17 42c27 -7 49 3 68 22c18 18 24 40 17 68c13 7 27 13 41 17c15 -24 40 -40 67 -40c26 0 51 16 66 40c14 -4 28 -10 41 -17c-7 -28 -1 -50 17 -68c19 -19 41 -29 68 -22c7 -13 13 -27 18 -42c-25 -14 -41 -35 -41 -61zM260 159
c50 0 91 40 91 91c0 50 -41 91 -91 91c-51 0 -92 -41 -92 -91c0 -51 41 -91 92 -91z" />
    <glyph glyph-name="A" unicode="A" horiz-adv-x="551" 
d="M453 428c42 -42 58 -95 41 -111l-68 -68c-10 -10 -44 -19 -79 -15l-204 -204c-12 -12 -41 -2 -65 22c-25 24 -34 54 -22 66l204 204c-4 34 5 69 15 79l67 67c17 17 70 2 111 -40zM229 224c9 -9 27 -6 41 7c13 13 16 31 6 40c-9 9 -27 6 -40 -7s-16 -31 -7 -40zM398 372
c32 -32 75 -40 78 -37c3 2 -7 44 -39 76c-33 32 -74 42 -77 39s5 -45 38 -78z" />
    <glyph glyph-name="B" unicode="B" horiz-adv-x="550" 
d="M305 141v-33c47 -5 82 -22 82 -43c0 -25 -50 -45 -112 -45c-61 0 -111 20 -111 45c0 21 35 38 82 43v33c0 36 -28 56 -73 86c-54 36 -123 82 -123 189c0 10 8 18 18 18h86c12 22 48 46 121 46c74 0 110 -24 122 -46h86c9 0 17 -8 17 -18c0 -107 -68 -153 -123 -189
c-45 -30 -72 -50 -72 -86zM374 267c44 30 84 64 90 132h-63c-1 -61 -13 -102 -27 -132zM275 449c-68 0 -95 -28 -95 -38s27 -38 95 -38c69 0 95 28 95 38s-26 38 -95 38zM86 399c6 -68 47 -102 90 -132c-14 30 -25 71 -27 132h-63z" />
    <glyph glyph-name="C" unicode="C" horiz-adv-x="581" 
d="M523 490c27 -78 -22 -142 -69 -178l9 -13c5 -7 6 -19 4 -27l-25 -78c-3 -8 -10 -18 -17 -23l-233 -165c-11 -8 -23 -9 -31 2l-106 153c-8 11 -5 27 6 35l233 165c6 4 18 8 27 8l79 1c8 -1 18 -6 23 -13l14 -20c35 26 81 76 58 143c-3 8 1 16 9 19s16 -1 19 -9zM415 256
c13 9 18 25 16 40c-5 -4 -10 -6 -15 -9c-2 -1 -4 -1 -7 -1c-5 0 -11 3 -13 8c-4 8 0 17 7 21c1 0 5 2 12 6c-13 10 -32 11 -46 1c-18 -13 -22 -38 -10 -56c13 -18 38 -23 56 -10z" />
    <glyph glyph-name="D" unicode="D" 
d="M300 300c42 0 75 -34 75 -75s-33 -75 -75 -75c-41 0 -75 34 -75 75s34 75 75 75zM500 375c28 0 50 -23 50 -50v-225c0 -28 -22 -50 -50 -50h-400c-27 0 -50 22 -50 50v225c0 27 23 50 50 50h60c9 0 18 6 20 14l16 47c2 8 11 14 19 14h170c9 0 18 -6 20 -14l16 -47
c2 -8 11 -14 19 -14h60zM300 100c69 0 125 56 125 125s-56 125 -125 125s-125 -56 -125 -125s56 -125 125 -125zM483 290c10 0 17 8 17 17c0 10 -7 18 -17 18s-18 -8 -18 -18c0 -9 8 -17 18 -17z" />
    <glyph glyph-name="E" unicode="E" horiz-adv-x="511" 
d="M312 193c71 71 83 179 36 262c18 -10 34 -22 48 -36c86 -86 86 -224 0 -310c-85 -85 -224 -85 -309 0c-15 15 -27 31 -37 48c84 -47 191 -35 262 36z" />
    <glyph glyph-name="F" unicode="F" horiz-adv-x="591" 
d="M479 386c79 -53 67 -126 44 -132c-24 -6 -63 35 -108 -13c-35 -38 20 -75 19 -95s-53 -86 -190 -86c-127 0 -200 79 -193 172c6 79 80 170 160 194c104 29 191 11 268 -40zM320 153c21 0 38 17 38 37c0 21 -17 38 -38 38s-38 -17 -38 -38c0 -20 17 -37 38 -37z" />
    <glyph glyph-name="G" unicode="G" horiz-adv-x="571" 
d="M168 397c130 76 377 17 351 3c-113 -60 -105 -183 -184 -238c-59 -42 -143 -21 -191 -3c0 0 -33 -37 -56 -87c-8 -17 -43 1 -37 16c77 180 339 269 339 269s-185 7 -308 -139c-4 34 -9 124 86 179z" />
    <glyph glyph-name="H" unicode="H" horiz-adv-x="391" 
d="M241 485c0 -67 155 -119 79 -236c-10 -16 -16 -9 -13 0c9 25 4 113 -66 124v-267c1 -33 -28 -67 -71 -83c-50 -19 -102 -4 -116 33c-13 37 17 82 68 101c28 10 57 10 79 1v327h40z" />
    <glyph glyph-name="I" unicode="I" horiz-adv-x="531" 
d="M469 408c7 -6 13 -16 11 -30c-2 -13 -48 -324 -48 -324c-3 -8 -12 -14 -20 -14h-293c-8 0 -17 6 -20 14c0 0 -46 311 -48 324c-2 14 4 24 12 30c7 7 47 37 55 44c7 6 19 8 27 8h241c8 0 20 -2 28 -8c7 -7 47 -37 55 -44zM266 191c81 0 98 115 102 138h-46
c-7 -34 -23 -93 -56 -93c-34 0 -50 59 -57 93h-46c4 -23 21 -138 103 -138zM90 375h352l-56 57h-241z" />
    <glyph glyph-name="J" unicode="J" 
d="M183 15l62 200h-89l-56 -50h-50l40 85l-40 85h50l56 -50h89l-62 200h50l112 -200h130s75 0 75 -35s-75 -35 -75 -35h-130l-112 -200h-50z" />
    <glyph glyph-name="K" unicode="K" horiz-adv-x="562" 
d="M277 480c127 2 232 -100 234 -227c1 -127 -100 -231 -227 -233s-232 100 -233 227c-2 127 99 231 226 233zM278 450c-32 -1 -63 -9 -90 -23l31 -51c19 9 40 14 62 14s42 -5 61 -14l31 51c-29 15 -61 23 -95 23zM155 189c-9 18 -14 39 -14 61s5 43 14 61l-52 31
c-15 -28 -23 -60 -22 -95c0 -32 8 -63 22 -89zM283 50c33 0 63 9 90 23l-31 51c-19 -9 -39 -14 -61 -14s-43 5 -62 14l-31 -52c29 -14 61 -23 95 -22zM281 140c60 0 110 49 110 110s-50 110 -110 110c-61 0 -110 -49 -110 -110s49 -110 110 -110zM406 189l52 -31
c15 28 23 60 23 95c-1 32 -9 62 -23 89l-52 -31c9 -18 15 -39 15 -61s-6 -43 -15 -61z" />
    <glyph glyph-name="L" unicode="L" horiz-adv-x="560" 
d="M328 480c100 0 182 -82 182 -182c0 -95 -74 -173 -167 -181c-22 -57 -77 -97 -142 -97c-83 0 -151 68 -151 152c0 64 40 119 96 141c8 93 86 167 182 167zM201 71c38 0 70 20 88 50c-69 15 -124 69 -139 138c-30 -18 -50 -50 -50 -87c0 -56 46 -101 101 -101zM203 273
c10 -50 50 -89 100 -99c-1 54 -46 98 -100 99zM353 174c58 11 102 63 102 124c0 70 -57 127 -127 127c-62 0 -113 -44 -125 -102c82 0 149 -67 150 -149zM102 372c-29 0 -52 23 -52 52c0 28 23 52 52 52c28 0 51 -24 51 -52c0 -29 -23 -52 -51 -52zM102 452
c-16 0 -29 -12 -29 -28s13 -29 29 -29c15 0 28 13 28 29s-13 28 -28 28z" />
    <glyph glyph-name="M" unicode="M" 
d="M300 390c164 0 250 -121 250 -140s-86 -140 -250 -140s-250 121 -250 140s86 140 250 140zM300 142c61 0 111 48 111 108c0 59 -50 108 -111 108c-62 0 -112 -49 -112 -108c0 -60 50 -108 112 -108zM300 250c8 -10 55 14 55 0c0 -30 -25 -54 -55 -54c-31 0 -56 24 -56 54
s25 54 56 54c16 0 -11 -43 0 -54z" />
    <glyph glyph-name="N" unicode="N" horiz-adv-x="560" 
d="M280 480c127 0 230 -103 230 -230s-103 -230 -230 -230s-230 103 -230 230s103 230 230 230zM280 70c99 0 180 81 180 180s-81 180 -180 180c-100 0 -180 -81 -180 -180s80 -180 180 -180zM297 380v-123l75 -75l-25 -24l-85 85v137h35z" />
    <glyph glyph-name="O" unicode="O" horiz-adv-x="420" 
d="M360 319c5 0 10 -4 10 -10v-69c0 -56 -41 -115 -135 -124v-66h65c5 0 10 -4 10 -10v-30c0 -5 -5 -10 -10 -10h-180c-6 0 -10 5 -10 10v30c0 6 4 10 10 10h65v66c-94 9 -135 68 -135 124v69c0 6 4 10 10 10h15c5 0 10 -4 10 -10v-69c0 -33 26 -90 125 -90
c98 0 125 57 125 90v69c0 6 4 10 10 10h15zM210 200c-59 0 -75 24 -75 40v79h150v-79c0 -16 -17 -40 -75 -40zM285 460v-106h-150v106c0 16 16 40 75 40c58 0 75 -24 75 -40z" />
    <glyph glyph-name="P" unicode="P" horiz-adv-x="550" 
d="M450 425c27 0 50 -23 50 -50v-300c0 -28 -23 -50 -50 -50h-350c-28 0 -50 22 -50 50v300c0 27 22 50 50 50h22v-50h80v50h145v-50h80v50h23zM450 75v200h-350v-200h350zM180 475v-85h-35v85h35zM405 475v-85h-35v85h35z" />
    <glyph glyph-name="Q" unicode="Q" horiz-adv-x="302" 
d="M71 25c-5 3 78 179 76 187c-3 7 -92 36 -96 49c-5 14 175 218 180 214c4 -4 -79 -181 -76 -187c2 -6 93 -35 96 -49c2 -15 -176 -217 -180 -214z" />
    <glyph glyph-name="R" unicode="R" horiz-adv-x="380" 
d="M330 385c0 -53 -97 -97 -97 -135s97 -82 97 -136v-58c0 -20 -62 -56 -140 -56c-77 0 -140 36 -140 56v58c0 54 97 98 97 136s-97 82 -97 135v59c0 20 63 56 140 56c78 0 140 -36 140 -56v-59zM89 442c0 0 -16 -9 -7 -14c21 -13 61 -27 108 -27c48 0 89 13 110 25
c9 6 -5 14 -8 16c0 0 -47 27 -100 27s-86 -16 -103 -27zM203 250c0 30 25 49 51 75c19 18 46 44 46 60l1 25c-26 -13 -66 -26 -111 -26c-44 0 -85 13 -110 26l1 -25c0 -16 26 -42 45 -60c27 -26 52 -45 52 -75s-25 -49 -52 -75c-19 -18 -45 -44 -45 -61v-33
c24 12 97 24 97 63c0 19 25 19 25 0c0 -39 73 -51 97 -63v33c0 17 -27 43 -46 61c-26 26 -51 45 -51 75z" />
    <glyph glyph-name="S" unicode="S" horiz-adv-x="480" 
d="M50 440c209 0 380 -170 380 -380h-60c0 177 -143 321 -320 321v59zM50 321c144 0 261 -117 261 -261h-59c0 112 -91 202 -202 202v59zM106 173c32 0 57 -25 57 -56c0 -32 -25 -57 -57 -57c-31 0 -56 25 -56 57c0 31 25 56 56 56z" />
    <glyph glyph-name="T" unicode="T" horiz-adv-x="590" 
d="M295 150c28 0 50 -22 50 -50s-22 -50 -50 -50c-27 0 -49 22 -49 50s22 50 49 50zM190 206c58 59 152 59 210 0l-35 -35c-38 39 -101 39 -140 0zM120 277c97 97 254 97 350 0l-35 -36c-77 78 -202 78 -280 0zM50 347c136 137 355 137 490 0l-35 -35
c-116 117 -304 117 -420 0z" />
    <glyph glyph-name="U" unicode="U" horiz-adv-x="450" 
d="M370 312c13 0 30 -16 30 -30v-195c0 -13 -11 -28 -24 -32l-30 -10c-13 -4 -35 -8 -49 -8h-145c-14 0 -36 4 -49 8l-30 10c-13 4 -23 19 -23 32v195c0 14 11 30 25 30h50v35c0 73 33 115 100 115c66 0 100 -42 100 -115v-35h45zM175 357v-45h100v45c0 37 -20 55 -50 55
s-50 -18 -50 -55z" />
    <glyph glyph-name="V" unicode="V" horiz-adv-x="450" 
d="M370 300c13 0 30 -16 30 -30v-195c0 -14 -11 -29 -24 -33l-30 -9c-13 -5 -35 -8 -49 -8h-145c-14 0 -36 3 -49 8l-30 9c-13 4 -23 19 -23 33v195c0 14 11 30 25 30h200v70c0 36 -20 55 -50 55c-31 0 -50 -19 -50 -55v-20h-50v10c0 72 33 115 100 115
c66 0 100 -43 100 -115v-60h45z" />
    <glyph glyph-name="W" unicode="W" horiz-adv-x="435" 
d="M175 75c-11 0 -21 5 -28 14l-89 118c-12 15 -9 37 7 49c15 11 37 8 48 -7l59 -78l148 238c10 16 32 21 48 11s21 -32 11 -48l-174 -281c-6 -9 -17 -16 -28 -16h-2z" />
    <glyph glyph-name="X" unicode="X" horiz-adv-x="335" 
d="M276 171c12 -12 12 -31 0 -42c-11 -12 -30 -12 -42 0l-66 75l-67 -75c-11 -12 -30 -12 -42 0c-12 11 -12 30 0 42l69 79l-69 79c-12 11 -12 30 0 42s31 12 42 0l67 -76l66 76c12 12 31 12 42 0c12 -12 12 -31 0 -42l-69 -79z" />
    <glyph glyph-name="Y" unicode="Y" horiz-adv-x="520" 
d="M260 460c116 0 210 -94 210 -210s-94 -210 -210 -210s-210 94 -210 210s94 210 210 210zM386 276h-253v-51h253v51z" />
    <glyph glyph-name="bracketleft" unicode="[" horiz-adv-x="520" 
d="M260 460c116 0 210 -94 210 -210s-94 -210 -210 -210s-210 94 -210 210s94 210 210 210zM303 250l76 76l-43 44l-76 -77l-77 77l-43 -44l76 -76l-76 -77l43 -43l77 77l76 -77l43 43z" />
    <glyph glyph-name="backslash" unicode="\" horiz-adv-x="390" 
d="M325 275c13 0 15 -11 15 -25s-2 -25 -15 -25h-260c-14 0 -15 11 -15 25s1 25 15 25h260z" />
    <glyph glyph-name="bracketright" unicode="]" horiz-adv-x="390" 
d="M325 275c13 0 15 -11 15 -25s-2 -25 -15 -25h-105v-105c0 -14 -12 -15 -25 -15c-14 0 -25 1 -25 15v105h-105c-14 0 -15 11 -15 25s1 25 15 25h105v105c0 14 11 15 25 15c13 0 25 -1 25 -15v-105h105z" />
    <glyph glyph-name="asciicircum" unicode="^" horiz-adv-x="560" 
d="M280 480c127 0 230 -103 230 -230s-103 -230 -230 -230s-230 103 -230 230s103 230 230 230zM403 374v0v0zM105 250c0 -42 14 -81 39 -111l246 246c-30 25 -68 40 -110 40c-97 0 -175 -78 -175 -175zM156 126v0v0zM280 75c96 0 175 78 175 175c0 42 -15 81 -40 111
l-246 -247c30 -24 69 -39 111 -39z" />
    <glyph glyph-name="underscore" unicode="_" horiz-adv-x="330" 
d="M225 500c34 0 51 -23 51 -49c0 -33 -29 -63 -67 -63c-32 0 -51 19 -50 50c0 26 22 62 66 62zM122 0c-26 0 -46 16 -27 88l30 127c6 21 6 29 0 29c-8 0 -42 -14 -62 -28l-13 22c64 55 138 87 170 87c26 0 30 -32 17 -81l-35 -134c-6 -24 -3 -32 3 -32c8 0 34 10 60 30
l15 -20c-63 -64 -131 -88 -158 -88z" />
    <glyph glyph-name="grave" unicode="`" horiz-adv-x="562" 
d="M278 480c127 2 232 -100 233 -227c2 -127 -100 -231 -227 -233s-231 100 -233 227c-1 127 100 231 227 233zM304 403c-31 0 -44 -21 -44 -37c-1 -18 10 -29 32 -29c27 0 42 18 42 37c0 16 -7 29 -30 29zM244 106c16 0 57 15 95 53l-9 12c-16 -12 -31 -18 -36 -18
c-4 0 -5 5 -2 19l21 79c8 29 6 48 -10 48c-19 0 -64 -19 -103 -51l8 -14c12 9 33 17 38 17c3 0 3 -5 0 -17l-19 -75c-11 -43 1 -53 17 -53z" />
    <glyph glyph-name="a" unicode="a" horiz-adv-x="390" 
d="M297 444c28 -20 43 -51 43 -91c0 -25 -9 -46 -21 -63c-8 -10 -24 -23 -45 -39l-22 -16c-11 -8 -21 -18 -25 -30c-2 -6 -3 -11 -3 -22c0 -2 -2 -7 -8 -7h-64c-8 0 -8 5 -8 7c1 28 2 49 13 62c20 23 65 52 65 52c6 5 12 10 16 17c8 10 14 22 14 34c0 15 -4 28 -13 40
c-8 12 -24 18 -46 18s-38 -8 -47 -22c-9 -15 -14 -30 -14 -46h-82c2 54 21 93 56 115c23 15 51 22 83 22c43 0 79 -10 108 -31zM188 127c30 -1 52 -22 51 -53s-24 -50 -54 -49c-28 1 -51 21 -50 52s25 51 53 50z" />
    <glyph glyph-name="b" unicode="b" horiz-adv-x="562" 
d="M277 480c127 2 232 -100 234 -227c1 -127 -100 -231 -227 -233s-232 100 -233 227c-2 127 99 231 226 233zM277 110c19 0 33 13 34 32c0 20 -13 34 -34 35h-1c-19 0 -33 -14 -33 -33c-1 -19 13 -33 33 -34h1v0zM359 273c9 12 13 26 13 40c0 25 -9 45 -27 58
c-17 12 -40 19 -67 19c-20 0 -38 -5 -52 -14c-22 -14 -34 -38 -36 -72v-3h55v3c0 9 3 18 9 27c5 8 14 12 26 12c13 0 22 -3 27 -10s7 -15 7 -23c0 -6 -2 -12 -8 -20c-2 -3 -5 -7 -9 -9c-1 -1 -28 -18 -40 -33c-8 -9 -8 -20 -9 -38v-5h53v2c0 9 1 10 2 15c2 5 7 11 15 17
l14 10c12 10 22 18 27 24z" />
    <glyph glyph-name="c" unicode="c" horiz-adv-x="581" 
d="M528 63c3 -5 3 -11 0 -17c-3 -5 -9 -8 -15 -8h-445c-6 0 -12 3 -15 8c-3 6 -3 12 0 17l222 391c4 6 9 9 16 9c6 0 12 -3 15 -9zM321 88v50h-61v-50h61zM321 176v150h-61v-150h61z" />
    <glyph glyph-name="d" unicode="d" horiz-adv-x="570" 
d="M254 455c111 0 201 -89 204 -200h62l-92 -102l-92 102h71c-3 83 -70 149 -153 149c-85 0 -153 -69 -153 -154s68 -154 153 -154c34 0 65 11 91 30l35 -38c-35 -27 -79 -43 -126 -43c-113 0 -204 92 -204 205s91 205 204 205z" />
    <glyph glyph-name="e" unicode="e" horiz-adv-x="570" 
d="M315 455c113 0 205 -92 205 -205s-92 -205 -205 -205c-47 0 -91 16 -126 43l35 38c26 -19 57 -30 91 -30c85 0 153 69 153 154s-68 154 -153 154c-83 0 -150 -66 -153 -149h71l-92 -102l-91 102h61c3 111 93 200 204 200z" />
    <glyph glyph-name="f" unicode="f" 
d="M428 330c-58 0 -94 -47 -135 -101c-46 -60 -98 -129 -190 -129h-53v70h53c57 0 93 47 134 101c46 61 98 129 191 129h17v60l105 -90l-105 -90v50h-17zM186 286c-24 24 -50 39 -83 39h-53v70h53c53 0 93 -23 126 -53c-11 -14 -22 -27 -31 -40c-4 -6 -8 -11 -12 -16z
M445 165v50l105 -90l-105 -90v60h-17c-56 0 -97 25 -131 58c13 16 25 31 36 46c2 3 5 6 7 10c26 -26 53 -44 88 -44h17z" />
    <glyph glyph-name="g" unicode="g" horiz-adv-x="525" 
d="M425 345c28 0 50 -22 50 -50v-145c0 -28 -22 -50 -50 -50h-345v70h325v105h-250v-55l-105 90l105 90v-55h270z" />
    <glyph glyph-name="h" unicode="h" 
d="M180 170h111l64 -70h-195c-28 0 -50 22 -50 50v150h-60l95 100l95 -100h-60v-130zM490 200h60l-95 -100l-95 100h60v130h-111l-64 70h195c27 0 50 -22 50 -50v-150z" />
    <glyph glyph-name="i" unicode="i" horiz-adv-x="450" 
d="M375 275c13 0 25 -11 25 -25s-12 -25 -25 -25h-300c-14 0 -25 11 -25 25s11 25 25 25h300zM75 325c-14 0 -25 11 -25 25s11 25 25 25h300c13 0 25 -11 25 -25s-12 -25 -25 -25h-300zM375 175c13 0 25 -11 25 -25s-12 -25 -25 -25h-300c-14 0 -25 11 -25 25s11 25 25 25
h300z" />
    <glyph glyph-name="Z" unicode="Z" horiz-adv-x="520" 
d="M260 460c116 0 210 -94 210 -210s-94 -210 -210 -210s-210 94 -210 210s94 210 210 210zM286 224h101v51h-101v101h-51v-101h-101v-51h101v-100h51v100z" />
    <glyph glyph-name="j" unicode="j" 
d="M225 275c14 0 25 -11 25 -25s-11 -25 -25 -25h-150c-13 0 -25 11 -25 25s12 25 25 25h150zM225 175c14 0 25 -11 25 -25s-11 -25 -25 -25h-150c-13 0 -25 11 -25 25s12 25 25 25h150zM535 275c14 0 15 -11 15 -25s-1 -25 -15 -25h-85v-85c0 -14 -11 -15 -25 -15
c-13 0 -25 1 -25 15v85h-82c-14 0 -15 11 -15 25s1 25 15 25h82v85c0 14 12 15 25 15c14 0 25 -1 25 -15v-85h85zM225 375c14 0 25 -11 25 -25s-11 -25 -25 -25h-150c-13 0 -25 11 -25 25s12 25 25 25h150z" />
    <glyph glyph-name="k" unicode="k" horiz-adv-x="400" 
d="M135 400c28 0 40 -13 40 -40v-45c0 -28 -12 -40 -40 -40h-45c-27 0 -40 12 -40 40v45c0 27 13 40 40 40h45zM310 400c28 0 40 -13 40 -40v-45c0 -28 -12 -40 -40 -40h-45c-27 0 -40 12 -40 40v45c0 27 13 40 40 40h45zM135 225c28 0 40 -13 40 -40v-45
c0 -28 -12 -40 -40 -40h-45c-27 0 -40 12 -40 40v45c0 27 13 40 40 40h45zM310 225c28 0 40 -13 40 -40v-45c0 -28 -12 -40 -40 -40h-45c-27 0 -40 12 -40 40v45c0 27 13 40 40 40h45z" />
    <glyph glyph-name="l" unicode="l" horiz-adv-x="450" 
d="M156 228v45h140v-45h-140zM350 475c27 0 50 -23 50 -50v-350c0 -28 -23 -50 -50 -50h-250c-28 0 -50 22 -50 50v350c0 27 22 50 50 50h250zM350 75v350h-250v-350h250zM295 371v-44h-140v44h140zM295 174v-43h-140v43h140z" />
    <glyph glyph-name="m" unicode="m" horiz-adv-x="450" 
d="M350 475c28 0 50 -23 50 -50v-350c0 -28 -22 -50 -50 -50h-250c-27 0 -50 22 -50 50v350c0 27 23 50 50 50h250zM350 75v350h-250v-350h250z" />
    <glyph glyph-name="n" unicode="n" horiz-adv-x="450" 
d="M375 375c14 0 25 -11 25 -25v-300c0 -14 -11 -25 -25 -25h-200c-13 0 -25 11 -25 25v75h-75c-13 0 -25 11 -25 25v300c0 14 12 25 25 25h200c14 0 25 -11 25 -25v-75h75zM100 175h50v175c0 14 11 25 25 25h75v50h-150v-250zM350 75v250h-150v-250h150z" />
    <glyph glyph-name="o" unicode="o" horiz-adv-x="500" 
d="M0 375c0 27 23 50 50 50h400c28 0 50 -23 50 -50v-250c0 -28 -22 -50 -50 -50h-400c-27 0 -50 22 -50 50v250zM450 375h-400v-250h400v250z" />
    <glyph glyph-name="p" unicode="p" 
d="M479 333h-50l-62 75l-108 -75h-89c-36 0 -64 -29 -64 -65v-80l-54 149c-4 10 1 22 11 25l340 124c10 4 21 -2 24 -12zM531 288c11 0 19 -9 19 -20v-236c0 -11 -8 -20 -19 -20h-361c-11 0 -19 9 -19 20v236c0 11 8 20 19 20h361zM504 63v80l-36 81l-84 -30l-65 -67l-69 86
l-46 -107v-43h300z" />
    <glyph glyph-name="q" unicode="q" horiz-adv-x="590" 
d="M540 375h-50v-50h50v-50h-50v-50h50v-50h-50v-50h50v-30c0 -11 -8 -20 -20 -20h-450c-11 0 -20 9 -20 20v30h50v50h-50v50h50v50h-50v50h50v50h-50v30c0 11 9 20 20 20h450c12 0 20 -9 20 -20v-30zM240 175l125 75l-125 75v-150z" />
    <glyph glyph-name="r" unicode="r" horiz-adv-x="450" 
d="M350 475c28 0 50 -23 50 -50v-350c0 -28 -22 -50 -50 -50h-250c-27 0 -50 22 -50 50v350c0 27 23 50 50 50h250zM295 237c43 66 -42 114 -42 145h-30v-184c-12 5 -28 5 -44 -1c-29 -10 -46 -35 -38 -56c7 -21 40 -30 69 -21s43 25 43 49v130c40 -6 40 -48 35 -62
c-2 -5 1 -9 7 0z" />
    <glyph glyph-name="s" unicode="s" horiz-adv-x="602" 
d="M528 325c23 0 24 -11 23 -25l-21 -225c-1 -14 -4 -25 -27 -25h-404c-23 0 -26 11 -27 25l-21 225c-1 14 0 25 23 25h454zM511 380l5 -20h-423l7 65c2 14 14 25 28 25h82c13 0 33 -8 43 -18l14 -14c10 -10 30 -18 43 -18h171c14 0 27 -9 30 -20z" />
    <glyph glyph-name="t" unicode="t" horiz-adv-x="591" 
d="M470 375v-25h-349v25c0 25 25 25 25 25h299s25 0 25 -25zM395 450c0 0 25 0 25 -25h-249c0 25 25 25 25 25h199zM519 350c15 -15 26 -19 20 -50s-35 -202 -39 -225c-5 -25 -30 -25 -30 -25h-349s-26 0 -30 25c-5 23 -33 194 -39 225s5 35 19 50l15 15v-40h419v40z
M395 215v50h-35v-40h-129v40h-35v-50s0 -25 25 -25h149c25 0 25 25 25 25z" />
    <glyph glyph-name="u" unicode="u" horiz-adv-x="441" 
d="M221 455c107 0 173 -35 169 -64l-36 -297c-1 -11 -55 -49 -133 -49c-79 0 -133 38 -134 49l-36 297c-4 29 63 64 170 64zM221 348c78 0 133 28 133 38s-55 38 -133 38c-79 0 -134 -28 -134 -38s55 -38 134 -38z" />
    <glyph glyph-name="v" unicode="v" horiz-adv-x="601" 
d="M301 463l135 -127h-75v-123h-120v123h-75zM534 174c12 -7 19 -23 16 -36l-14 -77c-3 -13 -17 -23 -31 -23h-408c-14 0 -28 10 -32 23l-14 77c-3 13 4 29 16 36l80 54h49l-85 -66h88c3 0 5 -1 6 -3l21 -56h149l21 56c1 2 3 3 6 3h88l-85 66h50z" />
    <glyph glyph-name="w" unicode="w" horiz-adv-x="500" 
d="M385 339l-135 -127l-135 127h75v123h120v-123h75zM483 174c12 -7 19 -23 16 -36l-14 -77c-3 -13 -17 -24 -31 -24h-408c-14 0 -28 11 -32 24l-14 77c-3 13 4 29 16 36l80 53h49l-85 -65h88c3 0 5 -1 6 -3l21 -56h149l21 56c1 2 3 3 6 3h88l-85 65h49z" />
    <glyph glyph-name="x" unicode="x" horiz-adv-x="551" 
d="M493 227c6 -12 9 -34 7 -47l-17 -93c-2 -13 -16 -25 -30 -25h-355c-14 0 -27 12 -30 25l-17 93c-2 13 1 35 8 47l78 188c6 12 23 22 37 22h52l-10 -101h-68l128 -106l127 106h-67l-10 101h51c14 0 31 -10 37 -22zM459 159c2 14 -8 25 -22 25h-323c-14 0 -23 -11 -21 -25
l6 -36c2 -14 15 -25 29 -25h295c14 0 27 11 29 25z" />
    <glyph glyph-name="y" unicode="y" 
d="M430 322c66 0 120 -52 120 -117s-54 -117 -120 -117h-290c-50 0 -90 40 -90 88c0 49 40 89 90 89c4 0 7 -1 11 -1c-1 6 -2 13 -2 19c0 72 60 130 133 130c60 0 111 -39 128 -93c6 1 13 2 20 2z" />
    <glyph glyph-name="z" unicode="z" 
d="M431 321c66 0 119 -52 119 -117c0 -64 -53 -117 -119 -117h-96v95h53l-88 115l-87 -115h52v-95h-124c-50 0 -91 40 -91 89s41 88 91 88h11c-1 6 -2 12 -2 18c0 72 60 130 133 130c60 0 111 -39 128 -92c6 1 13 1 20 1z" />
    <glyph glyph-name="braceleft" unicode="{" horiz-adv-x="350" 
d="M292 263c0 0 8 -6 8 -13c0 -8 -8 -13 -8 -13l-214 -132c-16 -11 -28 -3 -28 16v258c0 19 12 27 28 16z" />
    <glyph glyph-name="bar" unicode="|" horiz-adv-x="365" 
d="M270 425c25 0 45 -8 45 -33v-285c0 -24 -20 -32 -45 -32s-45 8 -45 32v285c0 25 20 33 45 33zM95 425c25 0 45 -8 45 -33v-285c0 -24 -20 -32 -45 -32s-45 8 -45 32v285c0 25 20 33 45 33z" />
    <glyph glyph-name="braceright" unicode="}" horiz-adv-x="450" 
d="M225 425c96 0 175 -78 175 -175s-79 -175 -175 -175c-97 0 -175 78 -175 175s78 175 175 175z" />
    <glyph glyph-name="asciitilde" unicode="~" horiz-adv-x="400" 
d="M313 400c24 0 37 -8 37 -33v-235c0 -24 -13 -32 -37 -32h-225c-25 0 -38 8 -38 32v235c0 25 13 33 38 33h225z" />
    <glyph glyph-name="caron" unicode="&#x2c7;" horiz-adv-x="500" 
 />
    <glyph glyph-name="copyright" unicode="&#xa9;" horiz-adv-x="582" 
d="M287 490c133 2 242 -104 244 -237c1 -132 -105 -241 -237 -243c-133 -2 -242 104 -243 237c-2 132 104 241 236 243zM293 60c105 2 188 88 187 192c-1 105 -87 189 -192 187c-105 -1 -188 -87 -187 -192c2 -104 87 -188 192 -187zM232 209c13 0 23 7 28 20l29 -14
c-6 -12 -15 -20 -26 -27c-10 -6 -22 -10 -35 -10c-20 0 -37 7 -50 19c-12 13 -18 30 -18 53c0 22 6 39 19 52c12 13 28 19 48 19c28 0 49 -11 61 -33l-31 -16c-3 7 -7 12 -12 14c-5 3 -9 5 -13 5c-21 0 -31 -14 -31 -41c0 -12 3 -22 8 -30c5 -7 13 -11 23 -11zM365 209
c13 0 22 7 28 20l29 -14c-7 -12 -15 -20 -26 -27c-11 -6 -22 -10 -35 -10c-21 0 -37 7 -50 19c-12 13 -18 30 -18 53c0 22 6 39 19 52c12 13 29 19 48 19c28 0 49 -11 61 -33l-31 -16c-3 7 -7 12 -12 14c-5 3 -9 5 -13 5c-21 0 -31 -14 -31 -41c0 -12 2 -22 8 -30
c5 -7 12 -11 23 -11z" />
    <glyph glyph-name="trademark" unicode="&#x2122;" horiz-adv-x="463" 
d="M323 195c15 -27 15 -60 -2 -89c-26 -46 -82 -61 -133 -32l-32 19l-53 -93l-29 16l104 179c-22 -3 -45 2 -67 14l-61 35l94 162l60 -34c23 -13 38 -31 46 -51l104 179l28 -17l-53 -92l31 -19c51 -29 66 -84 40 -130c-17 -29 -45 -46 -77 -47zM346 346l-32 19l-63 -108
c0 -1 0 -2 -1 -3l32 -18c34 -19 69 -9 88 23c18 32 10 68 -24 87zM126 235c34 -19 69 -9 88 23c18 32 9 68 -25 88l-32 18l-63 -110zM203 100c34 -20 70 -10 88 22c19 32 10 69 -24 88l-32 19c0 -1 -1 -2 -1 -3l-63 -107z" />
    <glyph glyph-name="Adieresis" unicode="&#xc4;" horiz-adv-x="540" 
d="M483 262c0 0 7 -5 7 -12s-7 -12 -7 -12l-187 -124c-14 -9 -26 -2 -26 16v240c0 18 12 25 26 16zM256 262c0 0 7 -5 7 -12s-7 -12 -7 -12l-180 -124c-15 -9 -26 -2 -26 16v240c0 18 11 25 26 16z" />
    <glyph glyph-name="Aring" unicode="&#xc5;" horiz-adv-x="540" 
d="M50 250c0 7 7 12 7 12l187 124c14 9 26 2 26 -16v-240c0 -18 -12 -25 -26 -16l-187 124s-7 5 -7 12zM277 250c0 7 7 12 7 12l180 124c15 9 26 2 26 -16v-240c0 -18 -11 -25 -26 -16l-180 124s-7 5 -7 12z" />
    <glyph glyph-name="Ccedilla" unicode="&#xc7;" horiz-adv-x="400" 
d="M137 250c0 7 6 11 6 11l182 115c14 9 25 2 25 -15v-221c0 -17 -11 -24 -25 -15l-182 114s-6 5 -6 11zM50 367c0 22 15 29 37 29s38 -7 38 -29v-233c0 -22 -16 -29 -38 -29s-37 7 -37 29v233z" />
    <glyph glyph-name="Eacute" unicode="&#xc9;" horiz-adv-x="400" 
d="M256 261c0 0 6 -5 6 -11c0 -7 -6 -11 -6 -11l-182 -114c-13 -9 -24 -3 -24 14v222c0 17 11 23 24 14zM312 395c22 0 38 -7 38 -29v-232c0 -22 -16 -29 -38 -29s-37 7 -37 29v232c0 22 15 29 37 29z" />
    <glyph glyph-name="Ntilde" unicode="&#xd1;" horiz-adv-x="500" 
d="M312 439l138 11l-10 -140l-39 40l-71 -72l-50 50l71 72zM170 222l50 -50l-71 -72l39 -39l-138 -11l11 140l39 -40z" />
    <glyph glyph-name="Odieresis" unicode="&#xd6;" horiz-adv-x="510" 
d="M460 403l-72 -73l40 -40l-142 -11l11 143l40 -41l73 74zM123 170l-40 40l142 11l-11 -143l-40 40l-73 -73l-51 51z" />
    <glyph glyph-name="Udieresis" unicode="&#xdc;" horiz-adv-x="549" 
d="M499 164c0 -22 -18 -40 -40 -40h-390c-22 0 -25 9 -6 21l401 226c19 11 35 2 35 -20v-187z" />
    <glyph glyph-name="aacute" unicode="&#xe1;" horiz-adv-x="555" 
d="M138 368c28 29 109 -8 182 -81s110 -155 82 -183s-203 -150 -309 -44s17 280 45 308zM369 129c8 8 -11 72 -73 134s-126 81 -134 73s11 -72 73 -134s126 -82 134 -73zM373 326c-7 0 -13 2 -18 7c-10 10 -10 26 0 35l48 48c10 10 25 10 35 0s10 -26 0 -35l-47 -48
c-5 -5 -12 -7 -18 -7zM283 388c-12 6 -16 22 -10 34l27 48c7 12 22 16 34 9c12 -6 17 -22 10 -34l-27 -48c-5 -8 -13 -13 -22 -13c-4 0 -8 1 -12 4zM502 312c6 -12 2 -27 -10 -34l-48 -27c-4 -2 -8 -3 -12 -3c-9 0 -18 5 -22 13c-7 12 -3 27 9 34l49 27c12 7 27 2 34 -10z
" />
    <glyph glyph-name="agrave" unicode="&#xe0;" horiz-adv-x="542" 
d="M484 463c10 -10 10 -26 0 -35l-391 -391c-5 -5 -11 -7 -17 -7c-7 0 -13 2 -18 7c-10 10 -10 25 0 35l391 391c10 10 25 10 35 0zM376 270l25 25c49 -61 70 -121 47 -144c-25 -24 -161 -120 -266 -75l139 139c47 -35 88 -46 94 -39c7 6 -4 47 -39 94zM238 301l-135 -135
c-31 102 57 226 80 249c22 22 75 5 132 -36l-26 -26c-41 28 -75 36 -81 30s2 -40 30 -82z" />
    <glyph glyph-name="acircumflex" unicode="&#xe2;" horiz-adv-x="465" 
d="M240 60l-190 190l190 190v-96h175v-188h-175v-96z" />
    <glyph glyph-name="adieresis" unicode="&#xe4;" horiz-adv-x="480" 
d="M430 257l-190 -190l-190 190h96v175h188v-175h96z" />
    <glyph glyph-name="atilde" unicode="&#xe3;" horiz-adv-x="480" 
d="M430 243h-96v-176h-188v176h-96l190 189z" />
    <glyph glyph-name="aring" unicode="&#xe5;" horiz-adv-x="465" 
d="M225 440l190 -190l-190 -190v95h-175v189h175v96z" />
    <glyph glyph-name="ccedilla" unicode="&#xe7;" horiz-adv-x="465" 
d="M240 85l-190 165l190 165v-96h175v-138h-175v-96z" />
    <glyph glyph-name="eacute" unicode="&#xe9;" horiz-adv-x="430" 
d="M380 257l-165 -190l-165 190h95v175h139v-175h96z" />
    <glyph glyph-name="egrave" unicode="&#xe8;" horiz-adv-x="430" 
d="M380 243h-96v-176h-139v176h-95l165 189z" />
    <glyph glyph-name="ecircumflex" unicode="&#xea;" horiz-adv-x="465" 
d="M226 415l189 -165l-190 -165l1 95h-176v139h175z" />
    <glyph glyph-name="edieresis" unicode="&#xeb;" horiz-adv-x="560" 
d="M510 250c0 -127 -103 -230 -230 -230s-230 103 -230 230s103 230 230 230s230 -103 230 -230zM100 250c0 -99 80 -180 180 -180c99 0 180 81 180 180s-81 180 -180 180c-100 0 -180 -81 -180 -180zM376 205h-102v-56l-96 101l96 101v-56h102v-90z" />
    <glyph glyph-name="iacute" unicode="&#xed;" horiz-adv-x="560" 
d="M280 480c127 0 230 -103 230 -230s-103 -230 -230 -230s-230 103 -230 230s103 230 230 230zM280 70c99 0 180 81 180 180c0 100 -81 180 -180 180s-180 -80 -180 -180c0 -99 81 -180 180 -180zM325 347v-103h56l-101 -95l-101 95h56v103h90z" />
    <glyph glyph-name="igrave" unicode="&#xec;" horiz-adv-x="560" 
d="M280 20c-127 0 -230 103 -230 230s103 230 230 230s230 -103 230 -230s-103 -230 -230 -230zM280 430c-100 0 -180 -81 -180 -180s80 -180 180 -180c99 0 180 81 180 180s-81 180 -180 180zM235 154v102h-57l102 95l101 -95h-56v-102h-90z" />
    <glyph glyph-name="icircumflex" unicode="&#xee;" horiz-adv-x="560" 
d="M50 250c0 127 103 230 230 230s230 -103 230 -230s-103 -230 -230 -230s-230 103 -230 230zM460 250c0 99 -81 180 -180 180c-100 0 -180 -81 -180 -180s80 -180 180 -180c99 0 180 81 180 180zM183 295h103v56l95 -101l-95 -101v56h-103v90z" />
    <glyph glyph-name="idieresis" unicode="&#xef;" horiz-adv-x="551" 
d="M495 242c10 -10 6 -19 -9 -19h-42v-154c0 -11 0 -20 -15 -20h-102v154h-102v-154h-98c-20 0 -20 9 -20 20v154h-42c-15 0 -19 9 -9 19l201 201c10 11 27 11 37 0z" />
    <glyph glyph-name="ntilde" unicode="&#xf1;" horiz-adv-x="280" 
d="M205 475c14 0 25 -11 25 -25v-425l-90 90l-90 -90v425c0 14 6 25 20 25h135z" />
    <glyph glyph-name="oacute" unicode="&#xf3;" horiz-adv-x="550" 
d="M221 193v-34l-101 40v34zM221 297v-34l-101 40v34zM490 471c6 -5 10 -13 10 -21v-320c0 -10 -6 -19 -15 -23l-200 -80s-4 -1 -5 -2h-5h-4c-1 1 -5 2 -5 2l-200 80c-9 4 -16 13 -16 23v320c0 8 5 16 11 21c7 4 16 5 24 2l190 -76l191 76c8 3 17 2 24 -2zM250 76v280
l-160 64v-280zM460 140v280l-160 -64v-280zM431 233v-34l-101 -40v34zM431 337v-34l-101 -40v34z" />
    <glyph glyph-name="ograve" unicode="&#xf2;" horiz-adv-x="500" 
d="M400 450c27 0 50 -23 50 -50v-200c0 -28 -23 -50 -50 -50h-200c-28 0 -50 22 -50 50v200c0 28 22 50 49 50h201zM400 200v200h-200v-200h200zM100 250v-150h150v-50h-150c-28 0 -50 22 -50 50v150h50z" />
    <glyph glyph-name="ocircumflex" unicode="&#xf4;" horiz-adv-x="495" 
d="M436 113c9 -9 13 -21 3 -30l-23 -24c-9 -9 -24 -9 -34 0l-95 95c-23 -13 -49 -21 -78 -21c-85 0 -159 74 -159 160c0 85 69 154 155 154c85 0 159 -74 159 -159c0 -29 -8 -57 -22 -80zM98 293c0 -59 52 -112 111 -112c60 0 108 48 108 107s-53 112 -112 112
s-107 -48 -107 -107z" />
    <glyph glyph-name="odieresis" unicode="&#xf6;" horiz-adv-x="560" 
d="M105 305c30 0 55 -25 55 -55s-25 -55 -55 -55c-31 0 -55 25 -55 55s24 55 55 55zM280 305c30 0 55 -25 55 -55s-25 -55 -55 -55c-31 0 -55 25 -55 55s24 55 55 55zM455 305c30 0 55 -25 55 -55s-25 -55 -55 -55c-31 0 -55 25 -55 55s24 55 55 55z" />
    <glyph glyph-name="registered" unicode="&#xae;" horiz-adv-x="550" 
d="M475 400c13 0 25 -11 25 -25v-100h-250v125h225zM50 125v100h150v-125h-130c-14 0 -20 11 -20 25zM250 100v125h250v-100c0 -14 -12 -25 -25 -25h-225zM50 375c0 14 6 25 20 25h130v-125h-150v100z" />
    <glyph glyph-name="ogonek" unicode="&#x2db;" horiz-adv-x="500" 
 />
  </font>
</defs>
</svg>
