<?xml version="1.0" standalone="no"?>
<!DOCTYPE svg PUBLIC "-//W3C//DTD SVG 1.1//EN" "http://www.w3.org/Graphics/SVG/1.1/DTD/svg11.dtd" >
<svg xmlns="http://www.w3.org/2000/svg" xmlns:xlink="http://www.w3.org/1999/xlink" version="1.1">
<metadata>
Created by FontForge 20170924 at Thu Jun 15 14:35:11 2006
 By Glenn,,,
Copyright (c) 2005 by Jess Latham. All rights reserved.
</metadata>
<defs>
<font id="PrintDashed" horiz-adv-x="394" >
  <font-face 
    font-family="Print Dashed"
    font-weight="400"
    font-stretch="normal"
    units-per-em="1000"
    panose-1="2 0 0 0 0 0 0 0 0 0"
    ascent="755"
    descent="-245"
    x-height="311"
    cap-height="597"
    bbox="-11 -200 962 775"
    underline-thickness="50"
    underline-position="-100"
    unicode-range="U+000D-FB02"
  />
<missing-glyph horiz-adv-x="367" 
 />
    <glyph glyph-name="fl" unicode="fl" horiz-adv-x="569" 
d="M335 541c-10 13 -23 23 -37 32l7 12c16 -10 30 -21 42 -36zM266 585c-7 2 -15 3 -22 3c-9 0 -18 -1 -27 -3l-2 14c9 2 19 3 29 3c8 0 17 -1 25 -3zM155 539l-13 4c6 18 19 35 36 43l7 -12c-14 -7 -24 -21 -30 -35zM137 422v48l14 1v-49h-14zM137 339v49h14v-49h-14z
M151 305v-49h-14v49h14zM151 222v-49h-14v49h14zM151 139v-49h-14v49h14zM137 7v49h14v-49h-14zM110 335v-14h-44v14h44zM184 335v-14h-44v14h44zM259 335v-14h-44v14h44zM498 593v-46h-14v46h14zM484 470v45h14v-45h-14zM484 393v45h14v-45h-14zM484 316v45h14v-45h-14z
M484 239v45h14v-45h-14zM484 162v45h14v-45h-14zM484 84v46h14v-46h-14zM484 7v46h14v-46h-14z" />
    <glyph glyph-name=".notdef" horiz-adv-x="367" 
 />
    <glyph glyph-name=".null" horiz-adv-x="0" 
 />
    <glyph glyph-name=".null" horiz-adv-x="0" 
 />
    <glyph glyph-name="CR" unicode="&#xd;" horiz-adv-x="367" 
 />
    <glyph glyph-name="space" unicode=" " horiz-adv-x="297" 
 />
    <glyph glyph-name="onehalf" unicode="&#xbd;" horiz-adv-x="554" 
d="M94 6l22 46l12 -6l-21 -46zM131 84l22 46l12 -6l-22 -46zM168 162l21 45l13 -6l-22 -45zM205 239l21 46l13 -6l-22 -46zM242 317l21 46l13 -6l-22 -46zM313 434l-22 -45l-12 6l21 45zM350 512l-22 -46l-13 6l22 46zM387 590l-22 -46l-13 6l22 46zM102 567v-18h-7v18h7z
M102 537v-19h-7v19h7zM102 506v-18h-7v18h7zM102 475v-18h-7v18h7zM102 444v-18h-7v18h7zM102 413v-18h-7v18h7zM102 382v-18h-7v18h7zM102 352v-18h-7v18h7zM102 321v-18h-7v18h7zM85 575l4 -6l-16 -11l-4 6zM87 289v7h23v-7h-23zM354 21v-7h-16v7h16zM382 21v-7h-16v7h16z
M411 21v-7h-17v7h17zM439 21v-7h-17v7h17zM467 21v-7h-17v7h17zM334 257c-2 -5 -4 -10 -4 -16l-7 1c0 6 3 12 4 18zM349 282c-3 -5 -8 -9 -10 -14l-6 3c2 6 7 10 11 15zM372 298c-5 -3 -10 -4 -14 -8l-4 5c4 4 10 7 15 10zM400 305c-6 -1 -11 0 -17 -3l-2 7c6 3 13 2 19 3
v-7zM431 307l-3 -6c-5 2 -11 4 -16 4l1 7c6 -1 12 -3 18 -5zM457 291l-4 -5c-5 4 -9 8 -14 10l3 6c6 -3 11 -7 15 -11zM476 266l-6 -3c-3 5 -5 10 -9 15l5 4c4 -5 7 -10 10 -16zM477 236c0 5 -1 11 -3 16l7 2c2 -5 3 -12 3 -18h-7zM476 207c1 5 1 11 2 17l7 -1
c-1 -6 -1 -12 -3 -18zM465 180c2 5 6 10 7 15l7 -2c-2 -6 -5 -11 -8 -17zM446 158c4 4 9 7 12 12l5 -4c-3 -5 -8 -9 -12 -14zM427 133l-4 6l14 11l4 -6zM401 117l-3 6l15 9l3 -5zM391 110l-15 -9l-4 5l15 10zM354 81l-5 5c4 4 8 9 13 12l5 -5zM338 57l-6 3c2 6 5 11 9 16
l6 -4c-4 -4 -6 -10 -9 -15zM334 46c-2 -5 -3 -11 -4 -16h-7c1 6 2 12 4 18z" />
    <glyph glyph-name="onequarter" unicode="&#xbc;" horiz-adv-x="569" 
d="M376 278l-3 -19l-7 1l3 19zM370 246l-3 -18l-7 1l3 19zM355 198l3 18l7 -1l-3 -18zM349 167l4 18l7 -1l-4 -18zM366 146v7h17v-7h-17zM395 146v7h18v-7h-18zM425 146v7h17v-7h-17zM454 146v7h17v-7h-17zM483 146v7h17v-7h-17zM472 260v18h7v-18h-7zM472 228v19h7v-19h-7z
M472 197v19h7v-19h-7zM472 166v18h7v-18h-7zM472 134v19h7v-19h-7zM472 103v18h7v-18h-7zM472 72v18h7v-18h-7zM472 40v19h7v-19h-7zM472 9v18h7v-18h-7zM94 6l22 46l12 -6l-21 -46zM131 84l22 46l12 -6l-22 -46zM168 162l21 45l13 -6l-22 -45zM205 239l21 46l13 -6l-22 -46
zM242 317l21 46l13 -6l-22 -46zM313 434l-22 -45l-12 6l21 45zM350 512l-22 -46l-13 6l22 46zM387 590l-22 -46l-13 6l22 46zM102 567v-18h-7v18h7zM102 537v-19h-7v19h7zM102 506v-18h-7v18h7zM102 475v-18h-7v18h7zM102 444v-18h-7v18h7zM102 413v-18h-7v18h7zM102 382
v-18h-7v18h7zM102 352v-18h-7v18h7zM102 321v-18h-7v18h7zM85 575l4 -6l-16 -11l-4 6zM87 289v7h23v-7h-23z" />
    <glyph glyph-name="onesuperior" unicode="&#xb9;" horiz-adv-x="179" 
d="M102 573v-18h-7v18h7zM102 542v-18h-7v18h7zM102 511v-18h-7v18h7zM102 481v-18h-7v18h7zM102 450v-18h-7v18h7zM102 419v-18h-7v18h7zM102 388v-18h-7v18h7zM102 357v-18h-7v18h7zM102 327v-19h-7v19h7zM85 581l4 -6l-16 -11l-4 6zM87 295v7h23v-7h-23z" />
    <glyph glyph-name="threequarters" unicode="&#xbe;" horiz-adv-x="660" 
d="M466 278l-3 -19l-7 1l3 19zM461 246l-3 -18l-7 1l3 19zM445 198l4 18l7 -1l-4 -18zM440 167l3 18l7 -1l-3 -18zM457 146v7h17v-7h-17zM486 146v7h17v-7h-17zM515 146v7h17v-7h-17zM544 146v7h18v-7h-18zM574 146v7h17v-7h-17zM563 260v18h7v-18h-7zM563 228v19h7v-19h-7z
M563 197v19h7v-19h-7zM563 166v18h7v-18h-7zM563 134v19h7v-19h-7zM563 103v18h7v-18h-7zM563 72v18h7v-18h-7zM563 40v19h7v-19h-7zM563 9v18h7v-18h-7zM185 6l21 46l13 -6l-22 -46zM221 84l22 46l13 -6l-22 -46zM258 162l22 45l13 -6l-22 -45zM295 239l22 46l13 -6
l-22 -46zM332 317l22 46l13 -6l-22 -46zM404 434l-22 -45l-13 6l22 45zM440 512l-21 -46l-13 6l22 46zM477 590l-21 -46l-13 6l22 46zM89 561c-2 -5 -4 -10 -5 -16l-7 2c1 6 3 12 6 17zM107 583c-5 -3 -8 -8 -12 -12l-5 4c4 5 7 10 13 14zM131 603l2 -7c-6 -1 -11 -4 -16 -6
l-4 6c6 3 11 6 18 7zM162 606l-1 -7c-6 1 -11 0 -17 0l-1 7c4 0 7 1 11 1h4c1 0 2 0 4 -1zM192 599l-3 -7c-5 3 -11 4 -16 6l1 7c6 -2 13 -3 18 -6zM212 575c-4 5 -8 8 -13 11l4 6c5 -3 10 -7 14 -12zM233 553l-7 -2c-2 5 -4 10 -7 15l6 4c4 -5 6 -11 8 -17zM227 522
c1 6 2 12 1 17l7 1c0 -1 1 -3 1 -4v-3c0 -4 -1 -8 -2 -12zM231 509c-2 -6 -6 -11 -9 -17l-6 4c3 5 7 10 8 15zM213 483c-5 -4 -10 -8 -15 -11l-3 6c4 2 9 6 13 10zM183 455c-5 1 -11 4 -16 4c0 2 1 7 0 9c6 1 11 3 17 4l2 -6l-7 -2l6 -2zM211 447l-4 -5c-4 3 -9 6 -14 9l3 6
c6 -3 11 -6 15 -10zM225 421c-2 5 -6 9 -10 13l5 5c4 -5 9 -9 11 -15zM235 395c-1 6 -3 11 -5 16l7 2c1 -5 4 -11 5 -17zM235 367c0 6 1 11 1 17h7v-2c0 -6 -1 -11 -1 -16zM224 342c3 5 6 9 7 15l7 -3c-1 -6 -5 -11 -8 -16zM206 321c4 4 8 7 11 12l6 -5c-4 -5 -8 -9 -13 -12
zM181 309c6 1 10 4 15 6l4 -6c-6 -3 -11 -6 -17 -7zM154 304c5 0 11 1 16 2l1 -7c-5 -1 -10 -2 -15 -2h-2v7zM124 303l3 6c5 -1 10 -3 15 -4l-1 -7c-6 1 -11 3 -17 5zM98 318l5 6c4 -4 8 -7 13 -10l-3 -6c-6 3 -10 6 -15 10zM79 341l6 4c2 -5 6 -10 10 -14l-6 -4
c-4 4 -8 9 -10 14zM76 371c0 -6 3 -11 4 -16l-6 -3c-2 6 -5 12 -5 18z" />
    <glyph glyph-name="threesuperior" unicode="&#xb3;" horiz-adv-x="312" 
d="M89 551c-2 -5 -4 -11 -5 -16l-7 1c1 6 3 12 6 18zM107 573c-5 -3 -8 -8 -12 -12l-5 4c4 4 7 10 13 13zM131 593l2 -7c-6 -1 -11 -4 -16 -7l-4 6c6 3 11 6 18 8zM162 596l-1 -7c-6 1 -11 0 -17 -1l-1 7c4 1 7 1 11 1h4h4zM192 588l-3 -6c-5 3 -11 4 -16 5l1 7
c6 -2 13 -3 18 -6zM212 565c-4 4 -8 8 -13 11l4 6c5 -4 10 -8 14 -12zM233 542l-7 -2c-2 6 -4 11 -7 15l6 4c4 -5 6 -11 8 -17zM227 512c1 6 2 11 1 17h7c0 -1 1 -2 1 -3v-4c0 -4 -1 -8 -2 -11zM231 498c-2 -6 -6 -11 -9 -16l-6 4c3 5 7 9 8 15zM213 472
c-5 -4 -10 -8 -15 -11l-3 6c4 3 9 7 13 10zM183 445c-5 1 -11 3 -16 3c0 3 1 8 0 10c6 0 11 3 17 4l2 -7l-7 -2l6 -2zM211 437l-4 -6c-4 4 -9 7 -14 9l3 6c6 -2 11 -5 15 -9zM225 410c-2 5 -6 9 -10 13l5 5c4 -4 9 -9 11 -14zM235 385c-1 5 -3 10 -5 15l7 3
c1 -6 4 -11 5 -17zM235 357c0 5 1 11 1 16h7v-2c0 -5 -1 -10 -1 -15zM224 331c3 5 6 10 7 15l7 -2c-1 -6 -5 -11 -8 -16zM206 311c4 3 8 7 11 11l6 -4c-4 -5 -8 -9 -13 -13zM181 298c6 1 10 4 15 7l4 -6c-6 -3 -11 -6 -17 -8zM154 294c5 0 11 1 16 1l1 -7
c-5 0 -10 -1 -15 -1h-2v7zM124 292l3 7c5 -1 10 -4 15 -4l-1 -7c-6 0 -11 3 -17 4zM98 308l5 5c4 -3 8 -7 13 -9l-3 -6c-6 2 -10 6 -15 10zM79 331l6 3c2 -5 6 -9 10 -13l-6 -5c-4 5 -8 9 -10 15zM76 360c0 -5 3 -10 4 -15l-6 -3c-2 6 -5 11 -5 17z" />
    <glyph glyph-name="twosuperior" unicode="&#xb2;" horiz-adv-x="300" 
d="M101 304v-7h-17v7h17zM129 304v-7h-17v7h17zM157 304v-7h-17v7h17zM185 304v-7h-16v7h16zM213 304v-7h-16v7h16zM80 540c-1 -6 -4 -11 -4 -16l-7 1c0 6 3 12 5 17zM95 564c-3 -4 -7 -8 -10 -13l-6 3c3 6 8 10 11 15zM119 581c-5 -3 -11 -5 -15 -9l-4 6c4 4 10 6 16 9z
M146 588c-5 -1 -11 -1 -16 -3l-2 7c6 2 12 2 18 3v-7zM177 590l-2 -6c-6 1 -11 3 -17 3l1 7c6 0 12 -2 18 -4zM204 574l-5 -5c-4 4 -9 7 -14 10l4 6c5 -3 10 -7 15 -11zM223 549l-7 -3c-2 5 -5 10 -9 14l6 5c4 -5 7 -10 10 -16zM224 518c0 6 -1 12 -3 17l6 2
c2 -6 4 -12 4 -18zM222 489c1 6 1 12 2 17h7c-1 -6 -1 -12 -2 -18zM211 463c3 5 6 9 8 15l6 -3c-1 -5 -5 -11 -8 -16zM193 440c4 4 8 8 11 13l6 -5c-4 -5 -8 -9 -13 -13zM173 416l-4 6l14 10l5 -5zM148 400l-4 6l15 9l4 -6zM137 393l-14 -10l-4 6l15 10zM101 364l-6 5
c5 4 9 9 14 12l4 -5zM84 340l-6 3c3 5 5 11 9 16l6 -4c-4 -5 -6 -10 -9 -15zM80 329c-2 -6 -3 -11 -3 -17l-7 1c0 6 2 12 3 18z" />
    <glyph glyph-name="brokenbar" unicode="&#xa6;" horiz-adv-x="152" 
d="M83 58h-14v48h14v-48zM83 -25h-14v49h14v-49zM83 -107h-14v49h14v-49zM83 -189h-14v48h14v-48zM83 550h-14v48h14v-48zM83 467h-14v49h14v-49zM83 385h-14v49h14v-49zM83 303h-14v48h14v-48z" />
    <glyph glyph-name="minus" unicode="&#x2212;" horiz-adv-x="337" 
d="M69 321v14h45v-14h-45zM146 321v14h45v-14h-45zM223 321v14h45v-14h-45z" />
    <glyph glyph-name="multiply" unicode="&#xd7;" horiz-adv-x="418" 
d="M138 387l-33 32l10 10l32 -33zM193 331l-33 33l10 10l33 -33zM248 276l-32 33l9 9l33 -32zM303 221l-32 32l10 10l32 -32zM115 221l-10 10l33 32l9 -10zM170 276l-10 10l33 32l10 -9zM225 331l-9 10l32 33l10 -10zM281 387l-10 9l32 33l10 -10z" />
    <glyph glyph-name="thorn" unicode="&#xfe;" horiz-adv-x="439" 
d="M83 99l4 2c7 -15 14 -29 25 -42l-11 -9c-7 9 -13 18 -18 27v-18h-14v48h14v-8zM127 24l9 12c13 -10 27 -18 42 -22l-4 -14c-17 5 -33 14 -47 24zM211 8c16 0 32 1 47 7l5 -13c-17 -7 -35 -8 -52 -8v14zM288 30c14 9 26 19 35 33l11 -9c-9 -15 -23 -26 -38 -36zM341 91
c7 15 11 31 14 47l13 -2c-2 -18 -6 -35 -14 -50zM346 219l13 5c5 -17 10 -34 11 -52h-14c-1 16 -5 31 -10 47zM330 249c-9 13 -19 25 -32 35l9 11c13 -10 25 -24 35 -38zM223 313v14c18 -1 36 -6 52 -12l-6 -13c-15 6 -30 10 -46 11zM138 304c15 9 31 17 49 20l2 -14
c-15 -2 -30 -10 -44 -18zM83 244c7 13 16 25 26 36l10 -10c-11 -11 -19 -25 -27 -39l-9 4v-15h-14v48h14v-24zM83 590v-47h-14v47h14zM83 509v-47h-14v47h14zM83 429v-48h-14v48h14zM83 348v-47h-14v47h14zM83 187v-47h-14v47h14zM69 -21v47h14v-47h-14zM69 -102v47h14v-47
h-14zM69 -183v48h14v-48h-14z" />
    <glyph glyph-name="exclam" unicode="!" horiz-adv-x="194" 
d="M90 132v49h14v-49h-14zM104 264v-49h-14v49h14zM104 347v-49h-14v49h14zM104 431v-49h-14v49h14zM104 514v-49h-14v49h14zM104 598v-49h-14v49h14zM119 31l-6 -3c-2 4 -6 7 -10 9l2 6c6 -2 11 -6 14 -12zM92 44l1 -7c-5 0 -9 -3 -11 -7l-6 4c3 5 9 9 16 10zM78 21
c0 -5 1 -10 4 -13l-6 -5c-3 4 -5 9 -5 14v3v2zM89 1c2 -1 5 -1 7 -1h2c2 0 3 0 5 1l2 -7c-2 -1 -5 -1 -7 -1h-2c-3 0 -7 1 -10 2zM111 6c3 3 5 8 5 13h7c0 -7 -2 -13 -7 -18z" />
    <glyph glyph-name="quotedbl" unicode="&#x22;" horiz-adv-x="236" 
d="M151 434v37h14v-37h-14zM151 497v37h14v-37h-14zM151 559v37h14v-37h-14zM71 434v37h14v-37h-14zM71 497v37h14v-37h-14zM71 559v37h14v-37h-14z" />
    <glyph glyph-name="numbersign" unicode="#" horiz-adv-x="432" 
d="M98 306l11 48l14 -3l-11 -48zM117 388l12 49l13 -3l-11 -49zM148 519c10 -4 40 -3 51 -3v-14h-41l-8 -34l-13 3zM181 598l-11 -48l-14 3l11 49zM251 306l12 48l13 -3l-11 -48zM274 402l8 35l14 -3l-12 -49c-10 4 -40 4 -51 3v14h41zM290 471l11 48l14 -3l-12 -48z
M334 598l-11 -48l-14 3l11 49zM117 516v-14h-48v14h48zM281 516v-14h-48v14h48zM315 502v14h48v-14h-48zM117 402v-14h-48v14h48zM151 388v14h48v-14h-48zM315 388v14h48v-14h-48z" />
    <glyph glyph-name="dollar" unicode="$" horiz-adv-x="475" 
d="M380 456h-14c0 16 -3 31 -7 46l13 4c5 -16 8 -33 8 -50zM346 532c-7 13 -17 25 -29 35l9 11c13 -11 24 -24 32 -39zM296 597l-6 -13c-14 6 -30 11 -45 12l2 14c17 -2 33 -6 49 -13zM212 597c-15 0 -30 -3 -45 -10l-5 13c16 7 33 10 49 11zM139 572
c-13 -9 -25 -19 -33 -32l-11 8c9 14 22 26 36 35zM84 467l-14 -1v8c0 15 3 29 7 43l14 -5c-4 -13 -7 -25 -7 -38v-7zM75 431l14 4c2 -15 12 -28 21 -40l-11 -9c-10 13 -21 28 -24 45zM125 362l9 11c12 -9 26 -17 40 -23l-5 -13c-15 7 -30 15 -44 25zM278 295l6 13
c14 -9 29 -15 43 -25l-8 -12c-13 10 -28 16 -41 24zM345 251l10 10c10 -13 24 -24 31 -39l-12 -7c-6 14 -19 24 -29 36zM386 185l14 4c6 -16 5 -33 6 -50h-14c-1 16 0 32 -6 46zM368 65c8 13 13 28 19 42l13 -3c-6 -16 -11 -32 -21 -47zM307 18c15 4 26 16 40 23l9 -11
c-15 -8 -27 -21 -44 -25zM239 7h4c11 -1 22 1 32 2l3 -13c-11 -2 -21 -3 -32 -3h-5h-2v-32h-14v47h14v-1zM146 18l7 12c14 -7 28 -15 43 -17l-3 -14c-17 3 -32 12 -47 19zM88 81l13 7c6 -14 16 -27 27 -38l-10 -10c-12 12 -23 26 -30 41zM83 164c0 -15 1 -31 6 -46l-14 -4
c-4 17 -6 34 -6 50h14zM239 645v-46h-14v46h14zM239 566v-47h-14v47h14zM239 486v-47h-14v47h14zM239 407v-47h-14v47h14zM225 280v35l-24 9l5 13c9 -3 19 -7 28 -10h5v-2l12 -5l-5 -13l-7 3v-30h-14zM239 247v-47h-14v47h14zM239 168v-47h-14v47h14zM225 41v47h14v-47h-14z
M225 -118v47h14v-47h-14z" />
    <glyph glyph-name="percent" unicode="%" horiz-adv-x="721" 
d="M315 415c-4 -16 -6 -32 -13 -47l-13 6c6 13 9 28 12 43zM286 338c-9 -13 -20 -26 -34 -35l-8 11c13 8 22 20 30 32zM217 300l5 -14c-10 -2 -20 -4 -29 -4c-7 0 -14 1 -21 3l3 13c6 -1 12 -2 18 -2c8 0 16 2 24 4zM115 340c10 -11 20 -22 32 -30l-7 -12
c-14 9 -26 21 -36 34zM73 408l13 2c3 -14 8 -29 14 -43l-13 -5c-7 14 -12 30 -14 46zM86 487c-2 -11 -3 -23 -3 -34v-8v-3l-14 -1v2v10c0 12 1 24 4 36zM115 557c-8 -13 -15 -26 -20 -40l-13 5c5 15 13 30 22 43zM175 599c-14 -4 -27 -10 -38 -20l-9 11c12 11 28 19 44 23z
M252 595l-8 -12c-11 9 -25 15 -39 17l2 14c16 -2 32 -9 45 -19zM302 529l-13 -6c-5 15 -13 27 -22 39l10 9c10 -13 19 -27 25 -42zM304 449c-2 15 -1 30 -6 44l14 3c5 -15 4 -31 6 -47h-14zM623 71c6 14 9 29 12 44l14 -3c-4 -15 -6 -31 -13 -46zM578 12c13 8 22 19 30 32
l12 -8c-9 -14 -20 -27 -34 -36zM509 -4c6 -1 12 -2 18 -2c8 0 16 1 24 3l5 -13c-10 -3 -20 -4 -30 -4c-6 0 -13 1 -20 2zM449 38c9 -12 20 -23 32 -30l-7 -12c-14 9 -26 21 -36 34zM407 105l13 3c3 -15 7 -29 14 -43l-13 -6c-7 15 -12 30 -14 46zM420 184
c-2 -11 -3 -22 -3 -34v-7v-4h-14v2v9c0 12 1 25 4 37zM429 215l-13 5c5 15 13 29 22 43l11 -8c-8 -13 -16 -26 -20 -40zM471 277l-9 11c12 10 28 18 44 22l3 -13c-14 -4 -27 -11 -38 -20zM586 292l-8 -11c-11 9 -25 15 -39 16l2 14c16 -1 32 -9 45 -19zM636 226l-13 -5
c-5 14 -14 27 -23 39l11 8c10 -12 19 -26 25 -42zM632 191l14 3c4 -15 4 -32 6 -48h-14c-2 15 -2 30 -6 45zM217 6l21 46l13 -6l-22 -46zM253 84l22 46l13 -6l-22 -46zM290 162l22 45l13 -6l-22 -45zM327 239l22 46l13 -6l-22 -46zM364 317l22 46l13 -6l-22 -46zM436 434
l-22 -45l-13 6l22 45zM473 512l-22 -46l-13 6l22 46zM509 590l-21 -46l-13 6l22 46z" />
    <glyph glyph-name="ampersand" unicode="&#x26;" horiz-adv-x="763" 
d="M645 17l8 12l41 -26l-8 -12zM581 71l2 3l41 -27l-8 -12l-39 26c-8 -10 -17 -20 -25 -30l-10 10c10 12 21 23 30 37zM555 93l-8 -12l-40 28l8 11zM487 140l-8 -11l-39 29l8 11zM422 190l-9 -11l-38 30l9 11zM358 242l-9 -10l-36 33l9 10zM220 401c6 -14 17 -27 25 -40
l-11 -8c-9 14 -20 26 -27 41zM205 431l-13 -5c-7 15 -10 32 -14 48l14 2c3 -15 7 -31 13 -45zM208 550c-8 -12 -14 -27 -16 -42l-14 2c3 17 9 34 18 48zM269 597c-14 -5 -28 -13 -39 -23l-9 11c12 11 28 19 44 25zM347 604c-8 1 -17 2 -25 2c-7 0 -14 0 -21 -1l-2 14
c6 0 13 1 19 1h7c8 0 16 -1 25 -2zM410 563c-8 13 -20 23 -33 30l7 13c15 -8 29 -20 37 -35zM421 489c1 7 2 15 2 23s-1 15 -2 22l13 3c2 -8 3 -16 3 -25c0 -8 -1 -17 -3 -26zM380 423c11 11 22 22 29 36l12 -7c-7 -15 -20 -27 -31 -39zM326 359l-9 12l39 29l9 -11zM297 340
l-22 -15l23 -26l-10 -10l-25 28l-6 -4l-8 11l41 27zM181 276l40 29l8 -12l-39 -28zM155 254l9 -10c-13 -10 -23 -22 -35 -33l-10 9c12 11 23 24 36 34zM109 185c-9 -13 -16 -27 -21 -42l-13 4c5 16 13 31 22 45zM69 112l14 -1c1 -15 1 -31 7 -45l-13 -4c-7 16 -7 33 -8 50z
M103 36c7 -13 19 -24 30 -34l-8 -11c-13 11 -26 23 -34 38zM155 -28l6 13c14 -8 29 -12 44 -17l-4 -14c-16 5 -32 10 -46 18zM235 -53l3 14c15 -2 31 -4 47 -4v-14c-17 0 -33 2 -50 4zM319 -43c16 1 31 3 47 5l3 -13c-17 -3 -33 -5 -50 -6v14zM399 -31c16 4 31 8 46 14
l5 -13c-16 -6 -32 -11 -48 -15zM476 -4c14 7 28 15 41 24l8 -11c-14 -10 -28 -19 -43 -26zM623 144c-5 -16 -12 -31 -21 -45l-12 7c8 13 15 28 20 43zM619 181c3 15 5 31 6 47l14 -1c-1 -16 -3 -33 -6 -49zM638 262l-14 -1c-1 16 -4 31 -8 46l13 5c5 -16 8 -33 9 -50z" />
    <glyph glyph-name="quotesingle" unicode="'" horiz-adv-x="156" 
d="M71 434v37h14v-37h-14zM71 497v37h14v-37h-14zM71 559v37h14v-37h-14z" />
    <glyph glyph-name="parenleft" unicode="(" horiz-adv-x="287" 
d="M170 -180l9 11c11 -9 25 -17 39 -17v-14c-18 0 -34 9 -48 20zM122 -109l13 6c6 -15 14 -29 23 -42l-12 -8c-9 14 -17 29 -24 44zM108 -26c4 -15 9 -31 14 -46l-13 -5c-5 16 -10 32 -14 48zM92 55c2 -16 6 -32 9 -48l-14 -3c-3 16 -6 32 -8 49zM84 137c1 -16 3 -32 4 -49
l-14 -1c-1 16 -3 33 -4 49zM83 219v-48l-14 -1v50zM88 301c-1 -16 -3 -32 -4 -48l-14 1c1 16 3 33 4 49zM101 383c-3 -16 -7 -32 -9 -48l-13 2c2 16 5 33 8 49zM122 462c-5 -15 -10 -31 -14 -46l-13 3c4 16 9 32 14 48zM122 499c7 15 15 30 24 44l12 -8
c-9 -13 -17 -27 -23 -42zM179 559l-9 11c14 11 30 20 48 20v-14c-14 0 -28 -8 -39 -17z" />
    <glyph glyph-name="parenright" unicode=")" horiz-adv-x="287" 
d="M108 -169l10 -11c-14 -11 -31 -20 -49 -20v14c15 0 28 8 39 17zM153 -103l13 -6c-7 -15 -15 -30 -25 -44l-11 8c9 13 16 27 23 42zM179 -26l14 -3c-4 -16 -9 -32 -15 -48l-13 5c6 15 10 31 14 46zM195 55l14 -2c-2 -17 -5 -33 -8 -49l-14 3c3 16 6 32 8 48zM203 137
l14 -1c-1 -16 -2 -33 -4 -49l-14 1c2 17 3 33 4 49zM204 171v48l14 1v-50zM199 301l14 2c2 -16 3 -33 4 -49l-14 -1c-1 16 -2 32 -4 48zM187 383l14 3c3 -16 6 -33 8 -49l-14 -2c-2 16 -5 32 -8 48zM165 462l13 5c6 -16 11 -32 15 -48l-14 -3c-4 15 -8 31 -14 46zM166 499
l-13 -6c-7 15 -14 29 -23 42l11 8c10 -14 18 -29 25 -44zM118 570l-10 -11c-11 9 -24 17 -39 17v14c18 0 35 -9 49 -20z" />
    <glyph glyph-name="asterisk" unicode="*" 
d="M69 364l41 27l8 -11l-41 -28zM138 411l41 27l8 -12l-41 -27zM207 457l41 28l8 -12l-41 -27zM277 504l40 28l8 -12l-41 -27zM277 386l7 11l41 -27l-8 -12zM207 433l8 11l41 -27l-8 -12zM138 479l8 12l41 -28l-8 -11zM69 526l8 12l41 -28l-8 -11zM191 542v48h14v-48h-14z
M191 462v47h14v-47h-14zM191 381v47h14v-47h-14zM191 300v48h14v-48h-14z" />
    <glyph glyph-name="plus" unicode="+" horiz-adv-x="418" 
d="M202 419v46h14v-46h-14zM202 341v46h14v-46h-14zM202 263v46h14v-46h-14zM202 185v46h14v-46h-14zM69 318v14h46v-14h-46zM147 318v14h46v-14h-46zM225 318v14h46v-14h-46zM303 318v14h46v-14h-46z" />
    <glyph glyph-name="comma" unicode="," horiz-adv-x="194" 
d="M113 29c-2 4 -6 7 -10 9l2 6c6 -2 11 -6 14 -11zM93 38c-5 0 -9 -3 -11 -7l-6 4c3 5 9 9 16 10zM82 9l-6 -4c-3 3 -5 8 -5 13v3v2l7 -1c0 -5 1 -10 4 -13zM105 -5h-2l8 -2l-4 -16l-14 4l3 13c-3 0 -7 1 -10 2l3 6c3 -1 5 -1 8 -1c2 0 4 0 6 1zM111 7c3 3 5 8 5 13h7
c0 -7 -2 -13 -7 -18zM84 -42l6 13l13 -4l-6 -15zM72 -65l7 13l13 -6l-8 -14z" />
    <glyph glyph-name="hyphen" unicode="-" horiz-adv-x="337" 
d="M69 321v14h45v-14h-45zM146 321v14h45v-14h-45zM223 321v14h45v-14h-45z" />
    <glyph glyph-name="period" unicode="." horiz-adv-x="194" 
d="M119 31l-6 -3c-2 4 -6 7 -10 9l2 6c6 -2 11 -6 14 -12zM92 44l1 -7c-5 0 -9 -3 -11 -7l-6 4c3 5 9 9 16 10zM78 21c0 -5 1 -10 4 -13l-6 -5c-3 4 -5 9 -5 14v3v2zM89 1c2 -1 5 -1 7 -1h2c2 0 3 0 5 1l2 -7c-2 -1 -5 -1 -7 -1h-2c-3 0 -7 1 -10 2zM111 6c3 3 5 8 5 13h7
c0 -7 -2 -13 -7 -18z" />
    <glyph glyph-name="slash" unicode="/" horiz-adv-x="329" 
d="M69 5l14 46l13 -4l-14 -46zM92 83l14 46l14 -4l-14 -46zM116 161l13 46l14 -4l-14 -46zM139 239l14 46l13 -4l-13 -46zM162 317l14 46l14 -4l-14 -46zM186 396l14 45l13 -4l-14 -45zM209 474l14 46l13 -4l-13 -46zM233 552l13 46l14 -4l-14 -46z" />
    <glyph glyph-name="zero" unicode="0" horiz-adv-x="531" 
d="M443 223c4 16 6 32 6 48l14 -1c-1 -16 -2 -33 -6 -49zM421 145l16 45l13 -3l-16 -47zM381 75c11 12 19 25 26 40l12 -7c-7 -15 -16 -29 -26 -42zM322 23c15 6 26 17 38 27l9 -10c-13 -11 -25 -23 -41 -29zM246 10c7 -1 14 -2 21 -2c8 0 17 1 25 3l3 -13
c-9 -3 -19 -4 -28 -4c-8 0 -16 1 -23 2zM168 35l9 11c11 -11 24 -20 39 -26l-6 -12c-16 6 -30 15 -42 27zM115 102l12 7c7 -15 17 -27 27 -40l-11 -9c-10 14 -21 26 -28 42zM83 180l13 4l16 -46l-13 -5zM82 264c1 -16 4 -32 7 -48l-14 -2c-3 16 -6 32 -7 49zM82 345
c0 -13 -2 -27 -2 -41v-7h-14v4v7c0 13 2 26 2 39zM96 426c-4 -16 -6 -32 -10 -47l-14 2c4 16 6 33 11 49zM127 501c-7 -15 -16 -28 -20 -43l-13 5c5 16 14 30 21 45zM177 564c-13 -10 -22 -23 -32 -35l-11 8c10 13 20 27 34 37zM246 600c-15 -3 -29 -10 -43 -17l-7 12
c15 8 31 16 48 18zM328 598l-6 -12c-14 7 -28 13 -44 14l2 14c17 -1 33 -7 48 -16zM381 534c-8 14 -20 25 -32 34l9 11c13 -10 25 -22 35 -36zM412 514c8 -15 17 -29 22 -44l-13 -6c-5 15 -14 29 -21 43zM443 386c-3 15 -4 32 -11 47l14 4c6 -16 7 -33 11 -49zM448 353l14 1
l3 -49h-14z" />
    <glyph glyph-name="one" unicode="1" horiz-adv-x="427" 
d="M234 502v-52h-14v52h14zM234 414v-52h-14v52h14zM234 326v-52h-14v52h14zM234 238v-52h-14v52h14zM220 98v52h14v-52h-14zM234 62v-40h6v-14h-25v14h5v40h14zM145 543l18 12l7 -12l-17 -12zM175 563l18 12l8 -11l-18 -12zM220 539v38l-7 -5l-7 12l28 21v-66h-14zM173 8
v14h24v-14h-24zM257 8v14h25v-14h-25z" />
    <glyph glyph-name="two" unicode="2" horiz-adv-x="459" 
d="M160 6v14h50v-14h-50zM245 6v14h50v-14h-50zM330 6v14h50v-14h-50zM88 488c-6 -14 -6 -30 -8 -46h-14c2 17 2 35 8 51zM89 526c7 15 19 28 31 40l10 -11c-11 -10 -22 -22 -29 -36zM156 575l-7 12c15 9 32 14 48 19l3 -14c-15 -5 -30 -8 -44 -17zM283 599l-4 -13
c-15 6 -31 8 -46 9v14c17 -1 34 -3 50 -10zM343 541c-9 13 -22 22 -35 31l8 12c14 -10 28 -20 38 -34zM391 472l-14 -3c-4 15 -7 31 -16 45l13 6c9 -15 13 -32 17 -48zM372 389c6 15 5 32 7 47h14c-2 -17 -1 -34 -7 -50zM374 352c-7 -15 -17 -30 -28 -43l-11 9
c10 13 19 26 26 40zM274 264c13 9 26 19 38 30l10 -10c-13 -11 -26 -22 -40 -31zM246 245l8 -12l-42 -27l-8 12zM176 198l8 -11c-13 -9 -26 -19 -38 -30l-9 10c12 11 25 22 39 31zM123 132c-10 -12 -18 -26 -25 -40l-12 6c6 15 15 30 26 43zM88 61c-4 -13 -5 -27 -6 -41h43
v-14h-58c2 19 2 40 7 58z" />
    <glyph glyph-name="three" unicode="3" horiz-adv-x="483" 
d="M81 465c1 17 3 33 10 49l13 -5c-6 -14 -8 -29 -9 -44h-14zM142 579l8 -11c-13 -8 -22 -20 -32 -32l-11 8c10 13 21 26 35 35zM171 597c15 6 31 11 48 13l1 -14c-15 -2 -29 -6 -43 -12zM252 597l1 14c16 -1 32 -5 48 -10l-5 -13c-14 4 -29 8 -44 9zM332 586
c14 -9 27 -20 37 -33l-11 -9c-9 12 -21 21 -33 30zM401 477l-14 -2c-1 15 -6 30 -12 43l13 6c6 -15 12 -31 13 -47zM399 442c-3 -16 -7 -33 -17 -46l-12 7c9 12 13 27 16 41zM315 351c14 7 26 16 36 27l10 -10c-11 -12 -24 -22 -39 -29zM290 326l-2 -1l2 -1l-3 -13
c-15 6 -30 5 -46 7v14c15 2 31 2 45 7zM316 299l7 13c15 -7 28 -18 41 -28l-10 -11c-12 10 -23 20 -38 26zM408 213l-13 -5c-4 15 -13 28 -20 41l12 8c8 -14 17 -28 21 -44zM401 177l14 2c1 -5 2 -10 2 -15c0 -12 -2 -23 -3 -35l-14 3c1 10 3 21 3 32c0 4 -1 9 -2 13z
M365 63c11 11 17 25 25 38l13 -6c-8 -14 -15 -29 -27 -41zM303 18c13 7 28 12 39 23l9 -11c-13 -12 -28 -18 -43 -25zM226 7c15 -2 31 1 46 2l2 -14c-11 -1 -23 -3 -34 -3c-5 0 -10 1 -15 2zM145 20l8 12c13 -7 27 -15 42 -19l-4 -13c-16 4 -31 12 -46 20zM88 81l12 7
c7 -14 18 -25 28 -37l-10 -10c-11 13 -23 25 -30 40zM66 162h14c2 -15 2 -31 8 -45l-14 -4c-6 15 -6 33 -8 49z" />
    <glyph glyph-name="four" unicode="4" horiz-adv-x="464" 
d="M108 556l8 46l14 -2l-8 -47zM117 521l-9 -47l-13 3l8 46zM81 397l8 47l14 -2l-8 -47zM89 362l-6 -38h44v-14h-61l9 55zM165 310v14h53v-14h-53zM255 310v14h53v-14h-53zM345 310v14h53v-14h-53zM319 555v46h14v-46h-14zM319 478v45h14v-45h-14zM319 400v46h14v-46h-14z
M319 322v46h14v-46h-14zM319 244v46h14v-46h-14zM319 167v45h14v-45h-14zM319 89v45h14v-45h-14zM319 11v46h14v-46h-14z" />
    <glyph glyph-name="five" unicode="5" horiz-adv-x="464" 
d="M376 592v-14h-43v14h43zM303 592v-14h-43v14h43zM230 578h-43v14h43v-14zM157 592v-14h-37l-5 -49l-14 2l6 61h50zM110 491l-6 -55l-14 1l6 55zM80 203c0 -15 -1 -30 1 -46l-14 -1c-1 4 -1 8 -1 12v15v21zM73 122l14 4c5 -14 10 -28 18 -41l-12 -8c-9 14 -14 30 -20 45z
M113 50l10 9c11 -10 22 -21 35 -28l-7 -12c-15 7 -26 20 -38 31zM182 5l5 13c14 -6 29 -6 44 -8v-14c-16 2 -33 2 -49 9zM262 13c14 6 29 10 40 19l8 -11c-13 -11 -29 -15 -45 -21zM326 53c12 10 20 23 28 35l12 -7c-9 -13 -17 -27 -30 -38zM368 117c7 14 8 30 12 44l14 -2
c-4 -16 -6 -32 -13 -47zM381 239l14 2c1 -13 3 -25 3 -38c0 -3 0 -7 -1 -11l-14 1c3 15 -1 31 -2 46zM388 274l-13 -4c-3 15 -12 28 -17 43l12 6c6 -15 15 -29 18 -45zM352 348l-11 -9c-11 11 -20 24 -33 32l9 11c14 -9 24 -22 35 -34zM287 399l-6 -13c-13 7 -28 10 -43 11
l1 14c16 -1 33 -4 48 -12zM205 409l2 -14c-15 -3 -30 -7 -44 -13l-5 13c15 6 31 11 47 14zM135 367c-21 -12 -41 -34 -60 -50l10 82l14 -2l-5 -45c10 9 22 20 34 27z" />
    <glyph glyph-name="six" unicode="6" horiz-adv-x="485" 
d="M141 337l9 -11c-13 -11 -25 -21 -33 -35l-12 9c10 14 23 26 36 37zM223 356c-16 0 -30 -8 -45 -13l-6 13c16 5 32 13 49 14zM257 371c18 -1 34 -6 51 -12l-6 -13c-15 5 -30 10 -46 11zM339 341c13 -11 28 -21 37 -35l-10 -9c-9 14 -23 23 -35 33zM414 228l-14 -3
c-4 15 -8 31 -16 44l12 7c9 -15 14 -32 18 -48zM405 192h14v-4v-7c0 -13 -2 -27 -5 -40l-14 3c3 13 5 27 5 41v7zM366 72c10 12 17 26 24 40l13 -5c-7 -16 -15 -31 -26 -44zM302 23c14 7 29 13 40 25l9 -11c-12 -12 -28 -19 -43 -27zM223 13c6 -1 13 -2 19 -2c9 0 19 1 28 3
l3 -14c-10 -2 -21 -3 -31 -3c-7 0 -14 1 -21 2zM141 32l9 11c13 -8 26 -18 41 -22l-5 -14c-16 5 -30 16 -45 25zM87 100l13 6c6 -15 15 -28 25 -40l-10 -9c-11 13 -21 27 -28 43zM81 184c3 -15 1 -32 7 -47l-13 -3c-7 16 -5 33 -8 50h14zM309 597c-14 -5 -28 -11 -41 -19
l-7 13c14 8 29 14 45 19zM232 572l9 -12c-13 -9 -24 -19 -35 -30l-10 10c12 11 23 22 36 32zM145 476c9 13 18 26 28 39l11 -9c-10 -12 -19 -25 -28 -38zM140 440c-8 -13 -15 -27 -21 -41l-13 5c7 15 13 29 21 43zM94 323l-14 4c4 15 9 30 14 46l13 -5
c-4 -15 -10 -29 -13 -45zM86 279c-2 -15 -5 -31 -6 -46l-14 1c1 16 4 32 6 47z" />
    <glyph glyph-name="seven" unicode="7" horiz-adv-x="456" 
d="M66 578v14h51v-14h-51zM205 592v-14h-52v14h52zM241 578v14h51v-14h-51zM328 592h62l-21 -54l-13 5l13 35h-41v14zM327 467l17 45l13 -5l-17 -45zM298 391l17 45l13 -5l-16 -45zM270 315l17 44l13 -4l-17 -45zM241 239l17 44l13 -5l-17 -44zM212 162l17 45l13 -5l-17 -45
zM183 86l17 45l13 -5l-17 -45zM154 10l17 45l13 -5l-17 -45z" />
    <glyph glyph-name="eight" unicode="8" horiz-adv-x="482" 
d="M396 432c-4 -16 -13 -32 -22 -46l-11 8c8 13 16 27 20 42zM349 360c-13 -11 -29 -19 -44 -26l-5 13c14 6 28 14 40 24zM268 338l2 -14c-9 -1 -18 -2 -28 -2h-6c-5 0 -11 0 -17 1l2 14c6 -1 12 -1 18 -1c10 0 19 1 29 2zM148 367c12 -11 26 -17 41 -23l-5 -13
c-16 6 -32 13 -45 24zM102 429c4 -15 12 -28 22 -40l-11 -9c-10 13 -20 28 -25 45zM95 461l-14 -1v4v7c0 14 2 28 7 40l13 -4c-4 -11 -6 -24 -6 -36v-6v-4zM148 570c-13 -9 -24 -21 -32 -34l-12 8c10 14 21 27 35 37zM219 613l2 -14c-16 -1 -31 -6 -45 -13l-6 13
c16 7 32 12 49 14zM305 603l-5 -13c-15 4 -30 9 -46 10l1 14c17 -1 34 -6 50 -11zM374 550l-11 -8c-11 12 -21 23 -35 32l8 12c15 -10 27 -22 38 -36zM391 519c7 -16 9 -34 10 -51h-14c-1 16 -3 31 -9 45zM383 93c8 12 11 28 16 42l14 -3c-5 -15 -9 -32 -18 -46zM332 36
c11 10 24 19 33 31l11 -9c-10 -13 -24 -23 -36 -33zM260 11c15 0 29 7 44 11l5 -13c-15 -5 -31 -12 -47 -12zM180 6l4 14c15 -5 29 -9 45 -10l-2 -14c-16 1 -32 5 -47 10zM121 62c10 -12 22 -21 35 -29l-7 -12c-14 9 -27 19 -38 31zM71 125l14 3c4 -14 9 -28 17 -41l-12 -7
c-9 13 -15 29 -19 45zM85 204c-3 -12 -5 -25 -5 -38v-7h-14v3v7c0 13 2 26 5 39zM83 240c7 15 16 28 28 40l10 -9c-10 -11 -19 -24 -25 -37zM136 303c13 10 28 17 44 23l4 -13c-14 -5 -27 -12 -39 -21zM295 328c16 -3 30 -13 45 -20l-8 -12c-14 7 -26 16 -41 19zM366 286
c11 -13 22 -25 29 -40l-12 -6c-6 13 -17 24 -27 36zM395 211l13 4c7 -16 6 -33 8 -49h-14c-2 15 -1 31 -7 45z" />
    <glyph glyph-name="nine" unicode="9" horiz-adv-x="483" 
d="M332 311c11 9 24 17 33 30l11 -9c-10 -14 -24 -23 -37 -33zM262 272l-2 13c15 1 29 7 44 11l5 -13c-16 -4 -31 -11 -47 -11zM229 285l-1 -14c-17 0 -33 4 -48 10l5 13c14 -5 28 -9 44 -9zM121 336c10 -12 22 -21 35 -29l-7 -12c-14 9 -27 19 -38 31zM71 398l14 4
c4 -15 9 -29 17 -41l-12 -8c-9 14 -15 29 -19 45zM85 477c-3 -12 -5 -25 -5 -38v-6l-14 -1v4v6c0 13 2 26 5 39zM121 543c-10 -10 -19 -23 -25 -36l-13 6c7 15 17 28 28 40zM145 564l-8 12c13 9 27 17 43 22l4 -13c-14 -5 -27 -12 -39 -21zM262 608l-2 -14c-6 1 -12 1 -18 1
c-9 0 -18 -1 -27 -2l-2 14c9 1 18 2 26 2h6c6 0 11 -1 17 -1zM339 580l-7 -11c-14 6 -26 15 -41 18l4 13c16 -3 30 -12 44 -20zM395 519l-12 -6c-7 13 -17 24 -27 36l10 10c10 -13 22 -25 29 -40zM416 440h-14c-2 14 -1 30 -7 44l13 4c7 -15 6 -32 8 -48zM185 10
c13 10 26 22 38 34l10 -11c-13 -12 -26 -24 -40 -35zM248 69c12 13 23 26 33 40l11 -9c-10 -14 -22 -27 -33 -40zM303 138c10 14 18 29 27 43l12 -7c-9 -15 -17 -30 -28 -44zM347 213c7 16 15 31 21 47l13 -5c-6 -16 -14 -32 -21 -48zM380 294c4 16 9 33 12 50l14 -3
c-3 -18 -9 -34 -13 -51zM401 408l2 22h14l-5 -53l-8 1c-2 -6 -5 -13 -9 -18l-12 7c8 12 11 27 16 41h2z" />
    <glyph glyph-name="colon" unicode=":" horiz-adv-x="194" 
d="M119 31l-6 -3c-2 4 -6 7 -10 9l2 6c6 -2 11 -6 14 -12zM92 44l1 -7c-5 0 -9 -3 -11 -7l-6 4c3 5 9 9 16 10zM78 21c0 -5 1 -10 4 -13l-6 -5c-3 4 -5 9 -5 14v3v2zM89 1c2 -1 5 -1 7 -1h2c2 0 3 0 5 1l2 -7c-2 -1 -5 -1 -7 -1h-2c-3 0 -7 1 -10 2zM111 6c3 3 5 8 5 13h7
c0 -7 -2 -13 -7 -18zM119 316l-6 -3c-2 4 -6 7 -10 9l2 6c6 -2 11 -6 14 -12zM76 319c3 5 9 9 16 10l1 -7c-5 0 -9 -3 -11 -7zM71 306h7c0 -5 1 -10 4 -13l-6 -5c-3 4 -5 9 -5 14v3v1zM89 286c2 -1 5 -1 7 -1h2c2 0 3 0 5 1l2 -7c-2 -1 -4 -1 -6 -1h-3c-3 0 -7 1 -10 2z
M111 291c3 3 5 8 5 13h7c0 -7 -2 -13 -7 -18z" />
    <glyph glyph-name="semicolon" unicode=";" horiz-adv-x="194" 
d="M113 29c-2 4 -6 7 -10 9l2 6c6 -2 11 -6 14 -11zM93 38c-5 0 -9 -3 -11 -7l-6 4c3 5 9 9 16 10zM82 9l-6 -4c-3 3 -5 8 -5 13v3v2l7 -1c0 -5 1 -10 4 -13zM105 -5h-2l8 -2l-4 -16l-14 4l3 13c-3 0 -7 1 -10 2l3 6c3 -1 5 -1 8 -1c2 0 4 0 6 1zM111 7c3 3 5 8 5 13h7
c0 -7 -2 -13 -7 -18zM119 316l-6 -3c-2 4 -6 7 -10 9l2 6c6 -2 11 -6 14 -12zM76 319c3 5 9 9 16 10l1 -7c-5 0 -9 -3 -11 -7zM71 306h7c0 -5 1 -10 4 -13l-6 -5c-3 4 -5 9 -5 14v3v1zM89 286c2 -1 5 -1 7 -1h2c2 0 3 0 5 1l2 -7c-2 -1 -4 -1 -6 -1h-3c-3 0 -7 1 -10 2z
M111 291c3 3 5 8 5 13h7c0 -7 -2 -13 -7 -18zM84 -42l6 13l13 -4l-6 -15zM72 -65l7 13l13 -6l-8 -14z" />
    <glyph glyph-name="less" unicode="&#x3c;" horiz-adv-x="367" 
d="M254 196l7 11l37 -24l-8 -12zM192 237l8 11l36 -24l-8 -12zM131 278l7 11l36 -24l-7 -11zM254 459l36 24l8 -11l-37 -25zM192 418l36 24l8 -12l-36 -24zM131 377l36 24l7 -12l-36 -24zM105 360l8 -12l-31 -21l31 -21l-8 -11l-36 24l6 8l-6 9z" />
    <glyph glyph-name="equal" unicode="=" horiz-adv-x="418" 
d="M69 377v14h46v-14h-46zM147 377v14h46v-14h-46zM225 377v14h46v-14h-46zM303 377v14h46v-14h-46zM69 272v14h46v-14h-46zM147 272v14h46v-14h-46zM225 272v14h46v-14h-46zM303 272v14h46v-14h-46z" />
    <glyph glyph-name="greater" unicode="&#x3e;" horiz-adv-x="367" 
d="M105 207l8 -11l-36 -25l-8 12zM167 248l7 -11l-36 -25l-7 12zM228 289l8 -11l-36 -24l-8 11zM77 483l36 -24l-8 -12l-36 25zM138 442l36 -24l-7 -12l-36 24zM200 401l36 -24l-8 -12l-36 24zM254 348l7 12l37 -24l-6 -9l6 -8l-37 -24l-7 11l31 21z" />
    <glyph glyph-name="question" unicode="?" horiz-adv-x="471" 
d="M85 450h-14c0 17 3 34 7 50l14 -4c-5 -14 -7 -30 -7 -46zM92 533c9 15 20 29 33 40l9 -11c-12 -10 -22 -22 -30 -35zM155 592c16 7 32 12 49 15l2 -14c-15 -3 -30 -7 -45 -13zM239 596v14h4c16 0 31 -4 47 -8l-4 -13c-14 3 -29 7 -43 7h-4zM364 558l-11 -10
c-11 11 -23 21 -37 28l7 12c15 -7 28 -18 41 -30zM385 478c-2 15 -5 31 -13 44l12 6c10 -14 13 -32 15 -49zM375 400c6 14 10 29 11 45l14 -1c-2 -17 -5 -34 -13 -50zM323 339c12 10 24 21 34 33l11 -8c-10 -13 -23 -25 -36 -36zM258 287c12 11 25 21 38 31l9 -11
c-13 -9 -26 -20 -38 -31zM209 216c6 16 15 31 25 45l11 -9c-9 -12 -17 -26 -22 -41zM215 131h-15l1 18c0 11 0 21 1 32l14 -2c-2 -16 -1 -32 -1 -48zM212 0c4 2 8 5 11 9l6 -4c-3 -5 -9 -10 -15 -12zM191 7c2 -4 7 -7 11 -7l-1 -7c-6 1 -12 5 -16 10zM185 33l6 -4
c-3 -3 -4 -6 -4 -10v-3l-7 -1v3c0 6 2 11 5 15zM214 43l-2 -7c-5 2 -9 1 -14 0l-3 6c3 1 7 2 10 2h2c3 0 5 0 7 -1zM220 31l5 5c5 -5 7 -11 7 -18h-7c0 5 -2 9 -5 13z" />
    <glyph glyph-name="at" unicode="@" horiz-adv-x="850" 
d="M526 92l12 -7c-10 -14 -20 -28 -33 -39l-9 10c11 11 21 23 30 36zM427 15c15 5 30 11 43 20l8 -12c-15 -9 -31 -16 -47 -22zM349 16c14 -6 30 -6 46 -6l1 -14c-18 0 -36 0 -52 7zM289 65c8 -13 19 -25 31 -34l-8 -11c-14 10 -26 23 -35 38zM270 141c-2 -15 2 -31 6 -46
l-14 -4c-3 14 -7 28 -6 43v8zM274 174l-14 3c3 17 10 33 17 48l12 -6c-6 -15 -13 -29 -15 -45zM296 256c11 12 22 26 36 35l9 -11c-13 -9 -23 -21 -34 -33zM362 311c16 8 32 13 49 16l2 -14c-15 -3 -30 -7 -44 -15zM447 327c18 -1 35 -6 50 -15l-7 -12c-13 8 -29 12 -44 13z
M542 242c-9 13 -13 29 -26 38l9 10c15 -10 20 -28 30 -42zM585 315l-7 -45l-13 2l6 45zM574 238l-6 -45l-14 3l6 44zM563 162l-6 -45l-14 3l7 44zM533 43l6 45l14 -2l-7 -45zM544 -19c3 -7 10 -9 17 -9c6 0 12 1 18 3l3 -13c-7 -3 -13 -4 -20 -4c-13 0 -25 5 -31 17z
M609 -14c14 6 28 13 40 23l8 -11c-12 -11 -27 -18 -42 -25zM674 30c10 11 22 22 31 35l11 -8c-9 -14 -21 -25 -32 -37zM722 92c10 13 13 29 20 43l13 -5c-7 -15 -10 -31 -20 -44zM752 166l10 46l14 -2l-10 -48zM765 245l2 47l14 1l-2 -49zM764 325c-1 16 -6 31 -9 46l14 4
c3 -16 8 -32 9 -48zM757 407l-13 -5c-7 14 -13 28 -22 41l12 8c9 -14 16 -29 23 -44zM703 470c-10 12 -20 24 -32 33l9 11c13 -10 24 -23 34 -35zM653 535l-8 -11c-12 9 -26 16 -40 24l7 13c14 -8 29 -16 41 -26zM580 574l-5 -13c-15 5 -30 9 -45 13l3 13
c16 -3 32 -7 47 -13zM498 579c-12 0 -23 1 -34 1h-13l-1 14h11h6c11 0 21 -1 32 -1zM368 580c16 5 32 8 48 10l2 -13c-15 -3 -31 -6 -46 -11zM292 549c14 8 29 13 44 20l5 -13c-14 -7 -29 -12 -43 -20zM270 520c-14 -7 -26 -18 -39 -28l-8 11c13 10 25 21 39 29zM207 471
c-11 -12 -23 -22 -33 -35l-10 9c9 13 22 24 33 36zM155 410c-10 -13 -16 -27 -25 -40l-12 6c8 14 15 29 25 42zM116 340c-6 -14 -12 -29 -15 -44l-14 3c4 16 10 32 17 46zM92 264c-2 -16 -6 -31 -7 -47l-14 1c1 17 5 32 7 49zM83 184c-1 -16 2 -31 2 -47l-14 -1
c0 14 -2 27 -2 41v7h14zM90 104c2 -15 7 -30 11 -45l-13 -4c-5 15 -10 31 -12 47zM100 22l13 6c6 -14 12 -29 21 -42l-12 -7c-9 13 -16 29 -22 43zM140 -50l12 9c10 -12 19 -25 30 -36l-9 -10c-12 11 -22 25 -33 37zM198 -110l9 11l37 -28l-7 -12zM267 -156l6 13
c14 -8 29 -13 43 -20l-5 -13c-15 7 -30 12 -44 20zM344 -186l4 14c15 -4 30 -7 46 -9l-2 -14c-16 3 -32 5 -48 9zM427 -184c15 1 31 0 47 2l1 -14c-16 -2 -33 -1 -49 -2zM506 -178c16 3 31 6 46 11l4 -13c-15 -5 -31 -9 -47 -12zM583 -155c14 5 27 14 41 22l7 -12
c-14 -8 -27 -17 -43 -23zM650 -113c11 9 21 21 30 34l12 -8c-10 -13 -20 -26 -33 -37z" />
    <glyph glyph-name="A" unicode="A" horiz-adv-x="539" 
d="M95 51l-16 -46l-13 4l15 47zM120 130l-15 -46l-13 4l15 47zM146 209l-15 -46l-13 4l15 46zM159 248l-2 -6l-13 4l15 46l13 -4l-11 -34h49v-14h-51v8zM198 367l-15 -47l-14 5l16 46zM224 446l-15 -47l-14 5l16 46zM250 525l-15 -47l-14 4l15 47zM460 5l-16 46l14 5l15 -47
zM434 84l-15 46l13 5l15 -47zM408 163l-15 46l13 4l15 -46zM378 254l-11 34l13 4l15 -46l-13 -4l-1 3v-5h-50v14h47zM356 320l-15 47l13 4l16 -46zM330 399l-15 47l13 4l16 -46zM305 478l-16 47l14 4l15 -46zM270 585l-10 -28l-13 4l15 47h15l15 -47l-13 -4zM295 254v-14
h-50v14h50z" />
    <glyph glyph-name="B" unicode="B" horiz-adv-x="452" 
d="M85 520v-45h-14v45h14zM85 443v-46h-14v46h14zM85 288v-45h-14v45h14zM85 211v-46h-14v46h14zM85 133v-45h-14v45h14zM258 326l-5 12c13 6 25 13 36 23l9 -10c-11 -11 -25 -19 -39 -26c11 -2 22 -6 33 -11l-6 -13c-14 7 -28 11 -43 13l2 14c4 -1 9 -1 13 -2zM340 418
c-5 -15 -11 -29 -20 -43l-12 8c8 12 14 25 18 39zM331 452c2 14 0 28 -3 42l13 4c3 -12 5 -25 5 -37c0 -3 0 -7 -1 -10zM330 529l-13 -7c-5 14 -14 25 -24 35l10 10c11 -11 21 -24 27 -38zM277 587l-7 -12c-12 8 -26 13 -40 15l2 14c16 -3 31 -8 45 -17zM200 606v-14h-45v14
h45zM85 592v-40h-14v54h52v-14h-38zM81 317v3h-10v45h14v-34h44v-14h-48zM163 317v14h47v-14h-47zM322 296c13 -10 24 -23 35 -36l-12 -8c-9 12 -19 24 -32 32zM386 182l-14 -1c0 15 -6 29 -11 44l13 5c5 -15 12 -31 12 -48zM386 147c-1 -16 -7 -32 -13 -48l-13 6
c5 14 12 29 12 44zM312 46c12 9 23 20 32 32l11 -9c-10 -13 -22 -25 -35 -34zM284 30l6 -13c-15 -6 -31 -12 -48 -14l-2 14c16 1 30 7 44 13zM208 15v-14h-48v14h48zM127 15v-14h-56v55h14v-41h42z" />
    <glyph glyph-name="C" unicode="C" horiz-adv-x="498" 
d="M432 133l-24 -45l-12 7l23 43zM387 60c-9 -15 -25 -24 -37 -36l-8 12c11 11 26 19 34 33zM318 7c-15 -9 -33 -11 -50 -12v14c15 1 31 2 45 11zM235 13l-3 -14c-17 5 -32 14 -47 22l8 12c14 -7 27 -16 42 -20zM167 55l-10 -10c-12 11 -21 26 -32 39l12 8
c10 -12 19 -26 30 -37zM121 122l-13 -7c-8 15 -13 31 -19 47l13 4c6 -15 10 -31 19 -44zM70 245l13 2l10 -48l-14 -3zM81 281l-14 -1c0 8 -1 15 -1 22v6c0 8 1 15 1 22h14c0 -7 -1 -14 -1 -21v-7c0 -7 1 -14 1 -21zM93 412l-10 -48l-13 2l9 49zM121 489
c-9 -14 -13 -29 -19 -45l-13 5c6 16 11 32 19 46zM167 556c-11 -11 -20 -25 -30 -37l-12 8c11 13 20 27 32 39zM235 598c-15 -5 -28 -13 -42 -20l-8 11c15 9 30 17 47 22zM318 604l-5 -13c-14 8 -30 9 -45 11v14c17 -2 35 -3 50 -12zM376 542c-8 14 -23 22 -34 33l8 11
c12 -11 28 -20 37 -35zM432 478l-13 -6l-23 43l12 8z" />
    <glyph glyph-name="D" unicode="D" horiz-adv-x="476" 
d="M85 518v-45h-14v45h14zM85 441v-46h-14v46h14zM85 363v-45h-14v45h14zM85 286v-45h-14v45h14zM85 209v-46h-14v46h14zM85 131v-45h-14v45h14zM85 590v-40h-14v54h56v-14h-42zM210 604v-14h-49v14h49zM292 582l-7 -12c-14 6 -27 16 -43 16l3 14c17 -1 32 -11 47 -18z
M339 513c-10 12 -16 27 -29 36l9 11c14 -10 21 -26 32 -39zM387 445l-13 -4c-5 15 -11 30 -18 44l12 6c8 -14 14 -30 19 -46zM392 362l-9 47l14 3l9 -48zM395 281c1 16 1 32 -1 48h14c1 -7 2 -15 2 -23v-7c0 -6 -1 -12 -1 -19zM407 246l-9 -48l-14 3c3 15 6 31 9 47z
M357 125c8 13 13 29 18 44l13 -5c-5 -15 -10 -31 -18 -45zM312 59c12 10 20 25 29 37l12 -8c-10 -13 -18 -28 -31 -39zM245 20c16 1 28 13 43 18l7 -12c-15 -6 -29 -19 -47 -19zM165 3v14h48v-14h-48zM131 17v-14h-60v51h14v-37h46z" />
    <glyph glyph-name="E" unicode="E" horiz-adv-x="414" 
d="M348 18v-14h-44v14h44zM273 18v-14h-45v14h45zM197 18v-14h-44v14h44zM122 18v-14h-51v53h14v-39h37zM85 134v-46h-14v46h14zM85 211v-45h-14v45h14zM85 288v-45h-14v45h14zM85 365v-45h-14v45h14zM85 442v-45h-14v45h14zM85 520v-46h-14v46h14zM85 590v-39h-14v53h51
v-14h-37zM197 604v-14h-44v14h44zM273 604v-14h-45v14h45zM348 604v-14h-44v14h44zM86 320v14h39v-14h-39zM192 334v-14h-39v14h39zM259 334v-14h-39v14h39z" />
    <glyph glyph-name="F" unicode="F" horiz-adv-x="414" 
d="M85 56v-51h-14v51h14zM85 133v-45h-14v45h14zM85 210v-45h-14v45h14zM85 287v-45h-14v45h14zM85 364v-45h-14v45h14zM85 442v-46h-14v46h14zM85 519v-46h-14v46h14zM85 589v-39h-14v53h51v-14h-37zM197 603v-14h-44v14h44zM273 603v-14h-45v14h45zM348 603v-14h-44v14h44
zM86 319v14h39v-14h-39zM192 333v-14h-39v14h39zM259 333v-14h-39v14h39z" />
    <glyph glyph-name="G" unicode="G" horiz-adv-x="531" 
d="M432 479l-13 -5l-22 40l12 8zM378 540c-8 13 -20 22 -31 32l8 11c12 -11 25 -21 34 -34zM326 601l-6 -13c-13 8 -27 13 -42 14l2 14c16 -1 32 -7 46 -15zM247 602c-14 -2 -28 -9 -41 -16l-7 13c15 7 30 14 46 17zM180 569c-12 -10 -23 -20 -31 -33l-11 9
c9 13 20 25 33 34zM131 510c-7 -14 -15 -27 -21 -41l-13 5c6 15 15 29 22 43zM100 438c-6 -14 -8 -29 -11 -44l-14 2c3 16 5 32 11 47zM83 362l-3 -46h-14l3 47zM67 283h14c1 -15 1 -31 4 -46l-14 -2c-3 16 -3 32 -4 48zM104 162l-13 -5c-5 15 -11 30 -13 46l13 3
c2 -16 8 -30 13 -44zM138 91l-12 -7c-9 13 -15 28 -23 42l13 6c7 -14 13 -28 22 -41zM158 66c9 -12 22 -20 33 -30l-8 -12c-12 11 -26 20 -36 33zM213 8l5 13c13 -8 28 -10 43 -11l-1 -14c-16 1 -33 3 -47 12zM295 0l-3 13c15 2 27 12 40 18l8 -12c-15 -6 -29 -17 -45 -19z
M357 50c13 9 20 23 30 34l11 -8c-10 -12 -18 -27 -32 -36zM404 111c7 14 15 27 19 42l13 -5c-4 -16 -13 -29 -20 -43zM444 228l13 -2c-3 -15 -5 -31 -10 -46l-13 3c5 15 6 30 10 45zM425 300v14h40c-1 -19 -2 -37 -3 -55l-14 1l2 40h-25zM370 300v14h33v-14h-33zM347 314
v-14h-33v14h33z" />
    <glyph glyph-name="H" unicode="H" horiz-adv-x="447" 
d="M85 599v-45h-14v45h14zM85 522v-46h-14v46h14zM85 444v-46h-14v46h14zM85 366v-46h-14v46h14zM85 288v-45h-14v45h14zM85 211v-46h-14v46h14zM85 133v-46h-14v46h14zM85 55v-46h-14v46h14zM376 599v-45h-14v45h14zM376 522v-46h-14v46h14zM376 444v-46h-14v46h14z
M376 288v-45h-14v45h14zM362 165v46h14v-46h-14zM362 87v46h14v-46h-14zM362 9v46h14v-46h-14zM132 330v-14h-46v14h46zM210 330v-14h-46v14h46zM289 330v-14h-46v14h46zM367 320v-4h-46v14h41v36h14v-46h-9z" />
    <glyph glyph-name="I" unicode="I" horiz-adv-x="242" 
d="M114 541v42h-6v14h25v-14h-5v-42h-14zM128 505v-52h-14v52h14zM114 365v51h14v-51h-14zM114 277v51h14v-51h-14zM114 189v51h14v-51h-14zM114 100v52h14v-52h-14zM114 24v40h14v-40h5v-14h-25v14h6zM91 597v-14h-25v14h25zM176 597v-14h-25v14h25zM91 24v-14h-25v14h25z
M176 24v-14h-25v14h25z" />
    <glyph glyph-name="J" unicode="J" horiz-adv-x="526" 
d="M80 151c1 -16 3 -32 9 -46l-13 -5c-7 16 -9 33 -10 51h14zM129 30c-15 10 -26 23 -37 37l12 8c10 -12 20 -25 33 -34zM211 13l-1 -14c-17 1 -34 7 -50 13l6 13c14 -6 29 -12 45 -12zM296 9c-16 -6 -33 -10 -50 -10l-1 14c16 0 31 4 46 9zM320 38c13 9 22 23 30 35l12 -6
c-9 -15 -19 -30 -34 -40zM363 104c3 16 9 31 9 48l14 -2c0 -17 -6 -33 -10 -50zM375 186v49h14v-50zM375 270v50h14v-50h-14zM375 355v50h14v-50h-14zM375 439v50h14v-50h-14zM389 574v-50h-14v50h14zM338 600v-14h-36v14h36zM399 600v-14h-36v14h36zM460 600v-14h-36v14h36
z" />
    <glyph glyph-name="K" unicode="K" horiz-adv-x="479" 
d="M85 600v-46h-14v46h14zM85 522v-46h-14v46h14zM85 444v-46h-14v46h14zM85 366v-45h-14v45h14zM85 275v-32h-14v46h7l28 28l10 -10zM85 211v-46h-14v46h14zM85 133v-46h-14v46h14zM85 55v-45h-14v45h14zM161 375l10 -10l-32 -34l-10 10zM227 422l-33 -34l-10 10l33 34z
M282 480l-32 -34l-11 10l33 33zM338 537l-33 -34l-10 10l32 34zM393 595l-33 -34l-10 10l33 33zM212 336l-12 -7l-24 38l12 7zM240 264l-24 38l12 8l24 -39zM257 237l12 8l23 -38l-12 -8zM332 142l-12 -8l-23 39l12 7zM360 70l-23 38l12 7l23 -38zM389 50l24 -38l-12 -7
l-24 38z" />
    <glyph glyph-name="L" unicode="L" horiz-adv-x="414" 
d="M85 599v-45h-14v45h14zM85 522v-45h-14v45h14zM85 445v-46h-14v46h14zM85 368v-46h-14v46h14zM85 290v-45h-14v45h14zM85 213v-45h-14v45h14zM85 136v-45h-14v45h14zM122 21v-14h-51v52h14v-38h37zM197 21v-14h-44v14h44zM273 21v-14h-45v14h45zM348 21v-14h-44v14h44z
" />
    <glyph glyph-name="M" unicode="M" horiz-adv-x="584" 
d="M85 518v-46h-14v46h14zM85 440v-45h-14v45h14zM85 363v-46h-14v46h14zM85 285v-45h-14v45h14zM85 208v-45h-14v45h14zM85 131v-46h-14v46h14zM85 53v-45h-14v45h14zM513 518v-46h-14v46h14zM499 395v45h14v-45h-14zM499 317v46h14v-46h-14zM499 240v45h14v-45h-14z
M499 163v45h14v-45h-14zM499 85v46h14v-46h-14zM499 8v45h14v-45h-14zM85 559v-10h-14v47h14l19 -47l-14 -5zM118 468l-16 45l13 5l17 -45zM146 392l-16 45l13 5l17 -45zM174 316l-16 45l13 4l16 -44zM202 240l-16 44l13 5l16 -45zM230 163l-16 45l13 5l16 -45zM258 87
l-16 45l13 5l16 -45zM286 11l-16 45l13 5l9 -25l11 28l13 -5l-18 -48h-12zM344 136l-17 -45l-13 5l16 44zM372 212l-17 -45l-13 5l16 45zM400 288l-17 -45l-13 5l16 45zM427 364l-16 -45l-13 5l16 45zM455 440l-16 -45l-13 5l16 45zM483 516l-16 -44l-13 4l16 45zM499 558
l-4 -10l-13 5l16 43h15v-47h-14v9z" />
    <glyph glyph-name="N" unicode="N" horiz-adv-x="448" 
d="M71 8v45h14v-45h-14zM71 85v46h14v-46h-14zM71 163v46h14v-46h-14zM71 241v46h14v-46h-14zM71 319v45h14v-45h-14zM71 396v46h14v-46h-14zM71 474v46h14v-46h-14zM85 600v-1l22 -44l-13 -6l-9 21v-18h-14v48h14zM123 523l22 -45l-12 -6l-23 45zM184 400l-13 -6l-22 46
l12 6zM222 323l-12 -6l-23 45l13 7zM261 246l-13 -7l-22 46l12 6zM299 168l-12 -6l-23 46l13 6zM338 91l-13 -6l-22 45l12 6zM363 8v1l-22 44l13 6l9 -21v18h14v-48h-14zM377 134v-46h-14v46h14zM377 212v-46h-14v46h14zM377 289v-45h-14v45h14zM377 367v-46h-14v46h14z
M377 445v-46h-14v46h14zM377 523v-46h-14v46h14zM377 600v-45h-14v45h14z" />
    <glyph glyph-name="O" unicode="O" horiz-adv-x="531" 
d="M443 223c4 16 6 32 6 48l14 -1c-1 -16 -2 -33 -6 -49zM421 145l16 45l13 -3l-16 -47zM381 75c11 12 19 25 26 40l12 -7c-7 -15 -16 -29 -26 -42zM322 23c15 6 26 17 38 27l9 -10c-13 -11 -25 -23 -41 -29zM246 10c7 -1 14 -2 21 -2c8 0 17 1 25 3l3 -13
c-9 -3 -19 -4 -28 -4c-8 0 -16 1 -23 2zM168 35l9 11c11 -11 24 -20 39 -26l-6 -12c-16 6 -30 15 -42 27zM115 102l12 7c7 -15 17 -27 27 -40l-11 -9c-10 14 -21 26 -28 42zM83 180l13 4l16 -46l-13 -5zM82 264c1 -16 4 -32 7 -48l-14 -2c-3 16 -6 32 -7 49zM82 345
c0 -13 -2 -27 -2 -41v-7h-14v4v7c0 13 2 26 2 39zM96 426c-4 -16 -6 -32 -10 -47l-14 2c4 16 6 33 11 49zM127 501c-7 -15 -16 -28 -20 -43l-13 5c5 16 14 30 21 45zM177 564c-13 -10 -22 -23 -32 -35l-11 8c10 13 20 27 34 37zM246 600c-15 -3 -29 -10 -43 -17l-7 12
c15 8 31 16 48 18zM328 598l-6 -12c-14 7 -28 13 -44 14l2 14c17 -1 33 -7 48 -16zM381 534c-8 14 -20 25 -32 34l9 11c13 -10 25 -22 35 -36zM412 514c8 -15 17 -29 22 -44l-13 -6c-5 15 -14 29 -21 43zM443 386c-3 15 -4 32 -11 47l14 4c6 -16 7 -33 11 -49zM448 353l14 1
l3 -49h-14z" />
    <glyph glyph-name="P" unicode="P" horiz-adv-x="438" 
d="M85 516v-45h-14v45h14zM85 439v-45h-14v45h14zM85 362v-45h-14v45h14zM71 163v45h14v-45h-14zM71 86v45h14v-45h-14zM71 8v46h14v-46h-14zM85 590v-42h-14v56h53v-14h-39zM202 604v-14h-46v14h46zM281 586l-6 -12c-13 7 -27 10 -42 14l3 13c15 -3 31 -7 45 -15zM331 526
c-9 11 -18 23 -30 31l8 11c14 -9 24 -22 34 -34zM371 458l-14 -1c0 14 -6 28 -10 42l12 6c5 -16 12 -31 12 -47zM358 426l14 -1c-1 -16 -6 -32 -11 -47l-13 5c5 14 9 28 10 43zM304 324c12 8 21 21 30 32l12 -8c-10 -12 -20 -26 -33 -35zM238 291c14 5 28 7 41 15l6 -12
c-13 -9 -29 -12 -44 -17zM161 274v14h46v-14h-46zM83 285v3h46v-14h-44v-34h-14v45h12z" />
    <glyph glyph-name="Q" unicode="Q" horiz-adv-x="531" 
d="M463 269c-1 -16 -2 -33 -6 -49l-14 3c4 15 6 31 6 47zM450 186l-16 -47l-13 5l16 46zM407 114l12 -6c-5 -12 -11 -22 -19 -32l8 -11l-11 -8c-3 5 -10 14 -16 17l2 2l-12 15l11 9l10 -12c5 8 11 17 15 26zM369 39c-13 -11 -25 -23 -41 -29l-6 13c15 5 26 17 38 27zM295 -3
c-9 -3 -19 -4 -29 -4c-7 0 -15 1 -22 2l2 14c7 -1 14 -1 21 -1c8 0 17 0 25 3zM210 7c-16 6 -30 15 -42 27l9 11c11 -11 24 -20 39 -25zM154 69l-11 -9c-10 13 -21 25 -28 41l12 7c7 -15 17 -27 27 -39zM96 183l16 -46l-13 -5l-16 47zM82 263c1 -16 4 -32 7 -47l-14 -3
c-3 16 -6 32 -7 49zM82 345c0 -14 -2 -28 -2 -41v-7l-14 -1v4v7c0 13 2 26 2 39zM96 425c-4 -15 -6 -31 -10 -47l-14 2c4 16 6 33 11 49zM127 500c-7 -14 -16 -28 -20 -43l-13 5c5 16 14 30 21 45zM177 563c-13 -10 -22 -23 -32 -35l-11 8c10 14 20 27 34 37zM246 599
c-15 -3 -29 -10 -43 -17l-7 12c15 8 31 16 48 19zM328 598l-6 -13c-14 8 -28 13 -44 14l2 14c17 -1 33 -7 48 -15zM381 533c-8 14 -20 25 -32 34l9 11c13 -10 25 -22 35 -36zM434 469l-13 -6c-5 16 -14 29 -21 43l12 7c8 -15 17 -29 22 -44zM432 432l14 4
c6 -16 7 -32 11 -48l-14 -3c-3 16 -4 32 -11 47zM465 304h-14l-3 48l14 1zM328 150l11 8l26 -34l-12 -9zM451 7l-11 -8l-25 34l11 8z" />
    <glyph glyph-name="R" unicode="R" horiz-adv-x="447" 
d="M85 501v-52h-14v52h14zM71 361v52h14v-52h-14zM85 325v-39h44v-14h-46v1h-12v52h14zM85 237v-52h-14v52h14zM71 97v52h14v-52h-14zM71 9v52h14v-52h-14zM71 537v63h53v-14h-39v-49h-14zM202 600v-14h-46v14h46zM233 584l2 13c16 -3 32 -7 46 -14l-7 -13
c-12 7 -27 10 -41 14zM331 522c-9 12 -18 23 -31 32l9 11c13 -9 24 -22 33 -34zM357 454c0 14 -6 28 -11 42l13 6c5 -16 12 -31 12 -47zM372 422c-1 -16 -6 -32 -11 -47l-13 5c4 14 9 28 10 43zM345 345c-10 -12 -19 -25 -32 -34l-9 10c12 9 20 21 30 32zM237 289
c14 5 29 7 41 15l7 -12c-13 -8 -28 -12 -43 -16l21 -38l-13 -7l-23 44l12 7zM161 272v14h46v-14h-46zM279 207l23 -44l-12 -7l-24 44zM342 88l-13 -7l-23 44l12 7zM381 13l-12 -6l-23 44l12 6z" />
    <glyph glyph-name="S" unicode="S" horiz-adv-x="469" 
d="M369 506c5 -16 8 -33 8 -50h-14c0 16 -3 31 -7 46zM343 532c-7 13 -17 26 -29 35l9 11c13 -11 24 -24 32 -39zM293 597l-6 -13c-14 7 -30 11 -45 13l2 13c17 -1 33 -6 49 -13zM209 598c-15 -1 -30 -4 -45 -11l-5 13c16 7 33 11 50 12v-14zM136 572
c-13 -9 -25 -19 -33 -32l-11 8c9 14 22 26 36 36zM67 466v8c0 15 3 29 7 43l14 -5c-4 -12 -7 -25 -7 -38v-7zM96 386c-10 14 -21 28 -24 45l14 4c2 -15 12 -28 21 -40zM171 350l-5 -13c-15 7 -30 15 -44 25l9 11c12 -9 26 -16 40 -23zM248 321l-5 -14c-15 6 -30 12 -45 17
l5 13c15 -5 30 -10 45 -16zM324 283l-8 -12c-13 10 -28 16 -41 24l6 13c14 -9 29 -15 43 -25zM342 251l10 10c10 -13 24 -23 31 -39l-12 -7c-6 14 -19 24 -29 36zM403 139l-14 1c-1 15 0 31 -5 45l13 4c6 -16 5 -33 6 -50zM398 104c-7 -16 -12 -32 -22 -47l-11 8
c9 13 13 28 19 42zM344 41l9 -11c-15 -8 -27 -21 -44 -25l-5 13c15 4 26 16 40 23zM272 9l3 -13c-12 -2 -23 -4 -35 -4c-5 0 -10 1 -16 1l2 14c15 -2 31 0 46 2zM193 13l-3 -14c-17 3 -32 12 -47 19l7 12c14 -7 28 -15 43 -17zM125 50l-10 -10c-12 12 -23 26 -30 41l13 7
c6 -14 16 -27 27 -38zM72 114c-4 17 -6 34 -6 50h14c0 -15 2 -31 6 -46z" />
    <glyph glyph-name="T" unicode="T" horiz-adv-x="440" 
d="M116 597v-14h-50v14h50zM202 597v-14h-50v14h50zM288 597v-14h-50v14h50zM374 597v-14h-51v14h51zM227 63v-51h-14v51h14zM227 151v-52h-14v52h14zM227 239v-52h-14v52h14zM227 327v-52h-14v52h14zM227 414v-51h-14v51h14zM227 502v-51h-14v51h14zM227 590v-52h-14v52h14
z" />
    <glyph glyph-name="U" unicode="U" horiz-adv-x="495" 
d="M71 554v47h14v-47h-14zM71 474v47h14v-47h-14zM71 394v47h14v-47h-14zM71 314v47h14v-47h-14zM71 234v47h14v-47h-14zM71 154v13v34h14v-46zM75 120l14 3c5 -14 7 -29 16 -41l-12 -7c-10 13 -13 30 -18 45zM113 47l10 10c9 -12 23 -19 35 -27l-6 -13c-14 9 -29 17 -39 30
zM232 11l-1 -14c-16 0 -32 4 -47 8l4 13c14 -3 29 -7 44 -7zM265 -3l-1 14c15 0 30 4 45 7l4 -14c-16 -3 -32 -7 -48 -7zM338 29c13 8 26 16 35 27l11 -9c-11 -13 -26 -21 -39 -30zM421 120c-6 -15 -7 -32 -17 -45l-12 6c9 13 10 28 15 42zM424 154l-14 1c1 15 0 31 0 46h14
v-35v-12zM410 234v47h14v-47h-14zM424 361v-47h-14v47h14zM424 441v-47h-14v47h14zM424 521v-47h-14v47h14zM424 601v-47h-14v47h14z" />
    <glyph glyph-name="V" unicode="V" horiz-adv-x="539" 
d="M95 553l-14 -5l-15 47l13 5zM107 469l-15 47l13 4l15 -47zM133 389l-15 47l13 4l15 -46zM159 310l-15 47l13 4l15 -47zM198 234l-13 -4l-16 47l14 4zM195 197l14 5l15 -47l-13 -4zM236 71l-15 47l14 4l15 -47zM473 595l-15 -47l-14 5l16 47zM447 516l-15 -47l-13 4l15 47
zM393 394l15 46l13 -4l-15 -47zM395 357l-15 -47l-13 4l15 47zM370 277l-16 -47l-13 4l15 47zM330 202l14 -5l-15 -46l-14 4zM318 118l-15 -47l-14 4l16 47zM270 14l9 28l13 -4l-15 -47l-7 3l-8 -3l-15 47l13 4z" />
    <glyph glyph-name="W" unicode="W" horiz-adv-x="830" 
d="M93 553l-14 -4l-13 47l13 4zM102 469l-14 47l14 4l13 -47zM138 394l-14 -4l-13 47l13 3zM147 310l-14 47l14 4l13 -47zM182 234l-13 -3l-13 46l13 4zM178 198l14 4l13 -47l-14 -4zM201 118l13 4l13 -47l-13 -4zM408 598h14l13 -45l-13 -4l-7 25l-7 -25l-14 4zM372 473
l13 47l14 -4l-13 -47zM376 437l-13 -47l-13 4l13 46zM354 357l-13 -47l-14 4l13 47zM331 277l-13 -46l-13 3l13 47zM309 198l-13 -47l-14 4l13 47zM273 71l-13 4l13 47l14 -4zM251 -6h-15l-13 45l14 3l7 -25l7 25l13 -3zM444 520l14 -47l-14 -4l-13 47zM453 437l14 3l13 -46
l-13 -4zM489 310l-13 47l13 4l13 -47zM511 231l-13 46l14 4l13 -47zM534 151l-13 47l13 4l13 -47zM556 71l-13 47l14 4l13 -47zM566 39l13 3l7 -25l7 25l14 -3l-14 -45h-14zM750 600l14 -4l-14 -47l-13 4zM741 516l-13 -47l-14 4l14 47zM706 390l-14 4l13 46l14 -3zM696 357
l-13 -47l-13 4l13 47zM647 234l13 47l14 -4l-13 -46zM651 198l-13 -47l-13 4l13 47zM629 118l-13 -47l-14 4l13 47z" />
    <glyph glyph-name="X" unicode="X" horiz-adv-x="472" 
d="M66 592l12 7l23 -40l-13 -7zM139 491l-12 -7l-23 40l12 7zM177 423l-12 -7l-23 40l13 7zM215 355l-12 -7l-23 40l13 7zM291 219l-12 -7l-22 40l12 7zM295 184l12 7l23 -40l-13 -7zM333 116l12 7l23 -40l-12 -7zM371 48l12 7l23 -40l-12 -7zM66 15l22 40l13 -7l-23 -40z
M139 116l-23 -40l-12 7l23 40zM177 184l-22 -40l-13 7l23 40zM215 252l-22 -40l-13 7l23 40zM231 280l-12 7l9 17l-9 16l12 7l5 -9l5 9l12 -7l-9 -16l9 -17l-12 -7l-5 9zM291 388l-22 -40l-12 7l22 40zM295 423l22 40l13 -7l-23 -40zM333 491l23 40l12 -7l-23 -40zM371 559
l23 40l12 -7l-23 -40z" />
    <glyph glyph-name="Y" unicode="Y" horiz-adv-x="466" 
d="M66 593l12 7l21 -39l-12 -6zM134 495l-12 -6l-21 38l12 7zM136 461l12 7l21 -39l-12 -6zM204 363l-12 -6l-21 38l12 7zM388 600l12 -7l-20 -38l-13 6zM345 489l-13 6l21 39l12 -7zM310 423l-13 6l21 39l12 -7zM262 363l21 39l12 -7l-20 -38zM260 329l-20 -38v-35h-14v35
l-20 38l12 7l15 -28l15 28zM226 174v48h14v-48h-14zM226 92v48h14v-48h-14zM226 10v48h14v-48h-14z" />
    <glyph glyph-name="Z" unicode="Z" horiz-adv-x="486" 
d="M90 582v14h52v-14h-52zM179 582v14h52v-14h-52zM268 582v14h52v-14h-52zM389 542l-12 7l19 33h-40v14h64zM371 511l-25 -44l-12 7l25 44zM290 398l26 45l12 -7l-26 -45zM285 360l-26 -44l-12 7l25 44zM203 248l26 44l12 -7l-25 -44zM198 210l-26 -44l-12 7l26 44zM117 97
l25 45l12 -7l-25 -45zM132 26v-14h-66l33 55l12 -7l-20 -34h41zM220 26v-14h-52v14h52zM309 26v-14h-52v14h52zM346 12v14h52v-14h-52z" />
    <glyph glyph-name="bracketleft" unicode="[" horiz-adv-x="285" 
d="M184 586v14h32v-14h-32zM130 586v14h32v-14h-32zM83 586v-41h-14v48h1v7h38v-14h-25zM83 512v-48h-14v48h14zM83 430v-47h-14v47h14zM83 349v-48h-14v48h14zM83 268v-48h-14v48h14zM83 187v-48h-14v48h14zM83 105v-47h-14v47h14zM83 24v-48h-14v48h14zM83 -57v-48h-14v48
h14zM108 -179v-14h-38v7h-1v48h14v-41h25zM162 -179v-14h-32v14h32zM184 -193v14h32v-14h-32z" />
    <glyph glyph-name="backslash" unicode="\" horiz-adv-x="329" 
d="M69 5l14 46l13 -4l-14 -46zM92 83l14 46l14 -4l-14 -46zM116 161l13 46l14 -4l-14 -46zM139 239l14 46l13 -4l-13 -46zM162 317l14 46l14 -4l-14 -46zM186 396l14 45l13 -4l-14 -45zM209 474l14 46l13 -4l-13 -46zM233 552l13 46l14 -4l-14 -46z" />
    <glyph glyph-name="bracketright" unicode="]" horiz-adv-x="285" 
d="M101 600v-14h-32v14h32zM155 600v-14h-32v14h32zM202 545v41h-25v14h38v-7h1v-48h-14zM202 464v48h14v-48h-14zM202 383v47h14v-47h-14zM202 301v48h14v-48h-14zM202 220v48h14v-48h-14zM202 139v48h14v-48h-14zM202 58v47h14v-47h-14zM202 -24v48h14v-48h-14zM202 -105
v48h14v-48h-14zM177 -193v14h25v41h14v-48h-2v-7h-37zM123 -193v14h32v-14h-32zM101 -179v-14h-32v14h32z" />
    <glyph glyph-name="asciicircum" unicode="^" horiz-adv-x="364" 
d="M69 363l24 50l13 -6l-24 -50zM110 448l23 50l13 -6l-24 -50zM259 407l12 6l24 -50l-12 -6zM255 448l-13 -6l-24 50l13 6zM214 534l-13 -7l-19 41l-19 -41l-13 7l24 50l8 -4l8 4z" />
    <glyph glyph-name="underscore" unicode="_" horiz-adv-x="519" 
d="M69 -40h381v-14h-381v14z" />
    <glyph glyph-name="grave" unicode="`" horiz-adv-x="241" 
d="M151 515l21 -21l-10 -10l-21 21zM105 541l10 10l21 -21l-10 -10zM69 577l10 10l21 -22l-10 -9z" />
    <glyph glyph-name="a" unicode="a" horiz-adv-x="446" 
d="M292 30c12 9 24 18 33 30l11 -8c-10 -14 -23 -24 -36 -33zM220 8c15 2 30 2 44 8l5 -13c-16 -6 -32 -7 -49 -9v14zM148 30c13 -8 27 -14 41 -18l-3 -13c-16 4 -32 10 -45 20zM124 50l-10 -10c-11 13 -22 25 -28 41l12 6c6 -14 16 -25 26 -37zM80 161c2 -15 1 -30 7 -45
l-14 -3c-5 15 -5 32 -7 48h14zM69 195c5 16 8 32 17 46l12 -6c-8 -13 -11 -28 -15 -42zM115 261l-11 9c10 14 23 24 37 33l7 -11c-12 -9 -24 -18 -33 -31zM220 328v-14c-14 -2 -30 -2 -44 -8l-4 13c15 6 32 7 48 9zM300 303l-8 -11c-12 8 -26 14 -41 18l4 13
c16 -4 31 -10 45 -20zM355 241l-13 -6c-6 14 -16 25 -26 37l10 10c11 -13 22 -25 29 -41zM375 315v-50h-14v50h14zM375 230v-50h-14v50h14zM375 145v-50h-14c-2 -5 -4 -10 -6 -14l-13 6c8 13 11 28 15 42h4v16h14zM375 10h-14v50h14v-50z" />
    <glyph glyph-name="b" unicode="b" horiz-adv-x="444" 
d="M118 58c9 -12 21 -22 33 -30l-7 -12c-14 9 -27 20 -37 33zM223 6v-14c-16 1 -33 2 -48 9l4 13c14 -6 30 -7 44 -8zM254 10c15 4 29 9 41 18l8 -12c-14 -9 -29 -15 -45 -20zM358 78c-7 -15 -18 -27 -28 -40l-11 10c10 11 20 23 26 37zM378 159c-2 -17 -2 -33 -8 -49l-13 4
c5 14 5 30 7 45h14zM358 239c8 -14 12 -30 16 -46l-14 -3c-4 15 -7 30 -15 43zM295 289l8 12c13 -9 26 -20 36 -33l-11 -9c-9 12 -20 22 -33 30zM272 316l-5 -13c-14 6 -29 7 -44 9v14c17 -2 34 -3 49 -10zM151 289l-7 12c13 10 29 16 45 20l3 -14c-14 -4 -28 -9 -41 -18z
M89 239c6 15 17 28 28 40l10 -10c-10 -11 -20 -22 -26 -36zM85 593v-46h-14v46h14zM71 470v45h14v-45h-14zM71 393v45h14v-45h-14zM71 316v45h14v-45h-14zM71 239v45h14v-45h-14zM71 162v45h14v-45h-14zM71 84v46h14v-3h1c4 -14 7 -29 15 -42l-12 -7c-2 3 -3 5 -4 8v-2h-14z
M71 7v46h14v-46h-14z" />
    <glyph glyph-name="c" unicode="c" horiz-adv-x="413" 
d="M335 247c-9 12 -18 24 -30 34l9 10c13 -10 23 -24 33 -37zM238 326c17 -1 32 -8 47 -15l-6 -12c-14 6 -28 12 -43 13zM161 300l-6 13c16 6 31 13 48 13l2 -14c-15 0 -30 -6 -44 -12zM126 294l9 -11c-12 -9 -22 -21 -30 -34l-12 8c9 14 20 27 33 37zM90 221
c-4 -14 -10 -29 -10 -44l-14 1c0 17 6 33 11 48zM80 145c0 -15 6 -30 10 -44l-13 -5c-5 15 -11 31 -11 48zM105 72c8 -12 18 -24 30 -33l-9 -11c-13 10 -24 23 -33 37zM205 10l-2 -14c-17 0 -32 7 -48 13l6 13c14 -6 29 -12 44 -12zM279 23l6 -12c-15 -7 -30 -14 -47 -15
l-2 14c15 1 29 7 43 13zM347 68c-10 -13 -20 -27 -33 -37l-9 10c12 10 21 22 30 34z" />
    <glyph glyph-name="d" unicode="d" horiz-adv-x="444" 
d="M292 29c12 8 24 18 33 30l11 -9c-10 -13 -23 -23 -36 -33zM220 7c15 2 30 2 44 8l5 -13c-16 -7 -32 -7 -49 -9v14zM189 11l-3 -14c-16 5 -32 11 -45 20l7 12c13 -8 27 -14 41 -18zM86 79l12 7c6 -14 16 -26 26 -37l-10 -10c-11 13 -22 25 -28 40zM80 160
c2 -15 1 -31 7 -45l-14 -4c-5 16 -5 33 -7 49h14zM86 240l12 -6c-8 -13 -11 -28 -15 -43l-14 3c5 16 8 32 17 46zM148 290c-12 -8 -24 -18 -33 -30l-11 9c10 13 23 24 37 33zM220 313c-15 -2 -30 -3 -44 -9l-4 14c15 6 32 7 48 9v-14zM251 309l4 13c16 -4 31 -10 45 -20
l-8 -12c-12 9 -26 14 -41 19zM355 240l-13 -6c-6 14 -16 25 -26 37l10 9c11 -12 22 -25 29 -40zM373 594v-46h-14v46h14zM373 517v-46h-14v46h14zM373 440v-46h-14v46h14zM373 362v-45h-14v45h14zM373 285v-45h-14v45h14zM373 208v-45h-14v45h14zM373 131v-45h-14v1
c-2 -3 -3 -5 -4 -8l-13 7c8 13 11 28 15 42h2v3h14zM359 9v45h14v-45h-14z" />
    <glyph glyph-name="e" unicode="e" horiz-adv-x="439" 
d="M317 26l-8 11c14 8 20 23 31 33l12 -7c-12 -12 -20 -28 -35 -37zM238 -4l-2 14c16 0 31 6 45 11l6 -13c-16 -5 -32 -12 -49 -12zM203 -4c-17 0 -33 7 -49 14l7 12c13 -6 28 -12 43 -12zM103 75c9 -12 19 -25 31 -35l-9 -10c-14 10 -24 24 -34 37zM66 148l14 1
c0 -15 5 -30 9 -45l-13 -5c-5 16 -10 33 -10 49zM93 226c-6 -14 -11 -29 -12 -44l-14 2c1 16 7 32 13 48zM109 254l-12 9c10 14 23 25 35 36l9 -11c-12 -10 -24 -21 -32 -34zM213 327v-14c-15 0 -30 -4 -44 -10l-6 13c16 7 33 11 50 11zM248 325c16 -5 33 -10 47 -19l-7 -12
c-13 8 -28 13 -43 17zM353 243l-13 -6c-6 14 -16 26 -27 37l10 10c11 -12 23 -25 30 -41zM366 211c6 -16 6 -40 7 -57h-54v14h39c-1 12 -1 27 -6 39zM286 154h-48v14h48v-14zM158 154v14h47v-14h-47zM124 168v-14h-47v14h47z" />
    <glyph glyph-name="f" unicode="f" horiz-adv-x="413" 
d="M335 541c-10 13 -23 23 -37 32l7 12c16 -10 30 -21 42 -36zM266 585c-7 2 -15 3 -22 3c-9 0 -18 -1 -27 -3l-2 14c9 2 19 3 29 3c8 0 17 -1 25 -3zM155 539l-13 4c6 18 19 35 36 43l7 -12c-14 -7 -24 -21 -30 -35zM137 422v48l14 1v-49h-14zM137 339v49h14v-49h-14z
M151 305v-49h-14v49h14zM151 222v-49h-14v49h14zM151 139v-49h-14v49h14zM137 7v49h14v-49h-14zM110 335v-14h-44v14h44zM184 335v-14h-44v14h44zM259 335v-14h-44v14h44z" />
    <glyph glyph-name="g" unicode="g" horiz-adv-x="444" 
d="M99 -143l9 10c12 -11 26 -18 40 -25l-6 -13c-15 8 -31 16 -43 28zM226 -175v-14c-17 1 -34 2 -50 7l3 13c15 -4 31 -4 47 -6zM304 -157l6 -12c-15 -9 -32 -11 -48 -16l-3 13c15 5 31 7 45 15zM369 -106c-6 -16 -16 -31 -29 -43l-10 10c11 11 21 23 25 38zM359 -70v50h14
v-50h-14zM373 63v-49h-14v49h14zM359 130v17h14v-49h-11c-2 -6 -4 -11 -7 -16l-13 6c8 13 11 28 15 43zM359 181v49h14v-49h-14zM373 314v-49h-14v49h14zM292 32c12 8 24 18 33 30l11 -9c-10 -13 -23 -24 -36 -33zM264 18l5 -13c-16 -7 -32 -8 -49 -10v14c15 2 30 3 44 9z
M189 13l-3 -13c-16 4 -32 10 -45 20l7 12c13 -9 27 -14 41 -19zM86 82l12 6c6 -14 16 -25 26 -37l-10 -9c-11 12 -22 25 -28 40zM87 118l-14 -4c-5 15 -5 32 -7 48h14c2 -15 1 -30 7 -44zM98 236c-8 -13 -11 -28 -15 -42l-14 2c5 16 8 32 17 47zM141 305l7 -12
c-12 -8 -24 -18 -33 -30l-11 9c10 13 23 24 37 33zM176 307l-4 13c15 7 32 7 48 9v-14c-15 -2 -30 -2 -44 -8zM251 311l4 14c16 -5 31 -11 45 -20l-8 -12c-12 9 -26 14 -41 18zM316 273l10 10c11 -13 22 -25 29 -40l-13 -7c-6 14 -16 26 -26 37z" />
    <glyph glyph-name="h" unicode="h" horiz-adv-x="397" 
d="M120 264c-10 -12 -16 -26 -21 -40l-13 5c6 15 12 31 22 44zM180 308c-14 -4 -27 -11 -39 -20l-9 11c13 10 28 18 45 23zM261 315l-6 -13c-14 6 -29 10 -44 10l1 14c17 0 33 -4 49 -11zM280 284l9 10c13 -12 22 -26 28 -42l-13 -5c-5 14 -13 27 -24 37zM327 219
c3 -13 4 -26 4 -39v-10h-14c0 16 -1 31 -3 46zM331 137v-48h-14v48h14zM317 8v48h14v-48h-14zM71 547v46h14v-46h-14zM85 516v-46h-14v46h14zM71 393v45h14v-45h-14zM71 316v45h14v-45h-14zM71 239v45h14v-45h-14zM71 162v45h14v-45h-14zM71 85v45h14v-45h-14zM71 8v45h14
v-45h-14z" />
    <glyph glyph-name="i" unicode="i" horiz-adv-x="194" 
d="M104 312v-50h-14v50h14zM104 227v-50h-14v50h14zM90 93v49h14v-49h-14zM104 58v-50h-14v50h14zM103 406c4 2 8 5 10 9l6 -3c-3 -6 -8 -10 -14 -12zM92 399c-7 1 -12 5 -16 10l6 4c2 -4 6 -7 11 -7zM76 440l6 -4c-3 -3 -4 -7 -4 -11v-3h-7v2c0 6 1 11 5 16zM86 448
c3 1 7 2 10 2h2c3 0 5 0 7 -1l-2 -7c-5 2 -10 1 -14 0zM123 424h-7c0 5 -2 10 -5 13l5 5c5 -5 7 -11 7 -18z" />
    <glyph glyph-name="j" unicode="j" horiz-adv-x="199" 
d="M109 312v-49h-14v49h14zM109 229v-49h-14v49h14zM109 146v-48h-14v48h14zM95 15v49h14v-49h-14zM109 -68h-14v49h14v-49zM91 -100l13 -3c-4 -17 -10 -33 -21 -47l-11 9c9 12 15 26 19 41zM6 -187v14c14 3 31 2 43 12l7 -12c-14 -11 -33 -10 -50 -14zM124 412
c-3 -6 -8 -10 -14 -12l-2 6c4 2 8 5 10 9zM96 399c-6 1 -12 5 -15 10l5 4c3 -4 7 -7 12 -7zM81 440l5 -4c-2 -3 -3 -7 -3 -11v-3h-7v2c-1 6 1 11 5 16zM108 442c-5 2 -10 1 -14 0l-3 6c3 1 6 2 10 2h2c2 0 5 0 7 -1zM116 437l5 5c4 -5 6 -11 7 -18h-7c-1 5 -2 10 -5 13z" />
    <glyph glyph-name="k" unicode="k" horiz-adv-x="366" 
d="M85 593v-46h-14v46h14zM71 470v45h14v-45h-14zM71 393v45h14v-45h-14zM71 316v45h14v-45h-14zM71 239v45h14v-45h-14zM71 162v45h14v-45h-14zM85 130v-46h-14v46h14zM71 7v46h14v-46h-14zM120 170l-34 -28l-9 10l34 28zM152 196l-8 -7l-9 11l34 28l9 -11l-16 -13l30 -41
l-12 -8zM235 265l-34 -28l-8 10l34 28zM293 312l-34 -28l-9 11l34 28zM234 79l-32 45l12 8l32 -45zM300 11l-12 -8l-31 45l11 8z" />
    <glyph glyph-name="l" unicode="l" horiz-adv-x="156" 
d="M85 593v-46h-14v46h14zM71 470v45h14v-45h-14zM71 393v45h14v-45h-14zM71 316v45h14v-45h-14zM71 239v45h14v-45h-14zM71 162v45h14v-45h-14zM71 84v46h14v-46h-14zM71 7v46h14v-46h-14z" />
    <glyph glyph-name="m" unicode="m" horiz-adv-x="642" 
d="M85 228c2 7 5 14 9 21l12 -6c-7 -14 -11 -30 -15 -46l-6 1v-19h-14v50h14v-1zM113 280c12 14 25 26 41 34l7 -13c-15 -6 -27 -18 -37 -29zM239 309c-10 3 -20 4 -31 4c-5 0 -11 0 -16 -1l-2 14c6 1 12 1 18 1c12 0 23 -2 35 -5zM276 306c15 -10 26 -25 35 -40l-12 -7
c-8 14 -18 26 -31 36zM317 94v50h14v-50h-14zM317 8v51h14v-51h-14zM85 264h-14v50h14v-50zM71 93v51h14v-51h-14zM71 8v50h14v-50h-14zM327 219c1 3 2 7 3 10l14 -5c-7 -14 -7 -31 -11 -46h-16c-1 17 -1 34 -6 50l14 4c1 -4 2 -9 2 -13zM344 258c7 15 17 27 29 37l9 -10
c-10 -10 -20 -21 -26 -33zM400 314c14 8 30 12 46 13l1 -14c-14 -1 -28 -5 -40 -11zM476 311l3 14c16 -4 31 -10 44 -20l-9 -11c-11 8 -24 14 -38 17zM546 281c10 -12 16 -27 22 -42l-14 -4c-4 14 -10 27 -19 38zM560 206l14 1c1 -8 2 -17 2 -26v-20h-14c0 15 0 30 -2 45z
M562 85v45h14v-45h-14zM562 8v45h14v-45h-14z" />
    <glyph glyph-name="n" unicode="n" horiz-adv-x="396" 
d="M96 256c6 14 17 27 28 38l9 -10c-10 -10 -19 -22 -25 -35zM151 314c14 8 30 13 46 14l1 -14c-14 -1 -28 -5 -40 -13zM228 313l2 13c16 -3 31 -9 44 -18l-8 -12c-11 9 -25 14 -38 17zM321 243l-13 -5c-5 14 -12 27 -20 38l11 9c9 -13 17 -27 22 -42zM316 164
c0 15 0 30 -2 45l14 1c1 -9 2 -19 2 -28v-16v-2h-14zM330 132v-45h-14v45h14zM316 10v45h14v-45h-14zM85 265h-14v50h14v-50zM85 230v-5l11 -4c-5 -13 -6 -28 -9 -43c-5 1 -11 2 -16 2v50h14zM71 94v51h14v-51h-14zM71 9v50h14v-50h-14z" />
    <glyph glyph-name="o" unicode="o" horiz-adv-x="440" 
d="M342 88c8 13 11 28 15 42l14 -3c-4 -15 -8 -32 -16 -46zM292 31c12 8 24 18 33 30l11 -9c-10 -13 -23 -24 -36 -33zM220 9c15 1 30 2 44 8l5 -13c-16 -7 -32 -8 -49 -9v14zM141 19l7 12c13 -9 27 -14 41 -18l-3 -14c-16 5 -32 11 -45 20zM98 88c6 -14 16 -26 26 -37
l-10 -10c-11 12 -22 25 -28 40zM87 117l-14 -4c-5 16 -5 32 -7 49h14c2 -15 1 -31 7 -45zM98 236c-8 -13 -11 -28 -15 -43l-14 3c5 15 8 32 17 46zM141 304l7 -12c-12 -8 -24 -18 -33 -30l-11 9c10 13 23 24 37 33zM220 314c-15 -1 -30 -2 -44 -8l-4 13c15 7 32 8 48 10v-15
zM292 292c-12 9 -26 14 -41 18l4 14c16 -5 31 -11 45 -20zM342 236c-6 14 -16 25 -26 36l10 10c11 -12 22 -25 29 -40zM354 206l13 4c6 -15 6 -32 7 -48h-14c-1 14 -1 30 -6 44z" />
    <glyph glyph-name="p" unicode="p" horiz-adv-x="446" 
d="M92 80c-3 5 -5 10 -7 14v-10h-14v52h14v-7h4c4 -14 7 -29 15 -42zM121 60c9 -12 21 -21 33 -30l-7 -12c-14 10 -27 20 -37 34zM178 3l4 13c14 -6 29 -6 44 -8v-14c-16 2 -33 2 -48 9zM257 12c14 4 29 10 41 18l8 -12c-14 -9 -30 -15 -46 -20zM322 50c10 12 20 23 26 37
l12 -7c-6 -15 -17 -27 -28 -40zM359 116c6 14 5 30 7 45h14c-2 -16 -1 -33 -7 -49zM377 195l-14 -3c-4 15 -7 30 -15 43l12 6c9 -14 12 -30 17 -46zM298 292l8 11c13 -9 26 -20 36 -33l-11 -9c-9 13 -21 22 -33 31zM275 319l-5 -14c-14 7 -29 7 -44 9v14c16 -2 33 -3 49 -9z
M154 292l-7 11c13 10 29 16 45 20l3 -13c-14 -4 -28 -10 -41 -18zM104 235l-12 6c6 16 17 28 28 40l10 -9c-10 -12 -20 -23 -26 -37zM85 315v-53h-14v53h14zM71 173v53h14v-53h-14zM71 -5v52h14v-52h-14zM71 -94v52h14v-52h-14zM71 -183v52h14v-52h-14z" />
    <glyph glyph-name="q" unicode="q" horiz-adv-x="446" 
d="M292 30c12 9 24 18 33 31l11 -9c-10 -13 -23 -24 -36 -33zM220 8c15 2 30 2 44 9l5 -14c-16 -6 -32 -7 -49 -9v14zM141 19l7 11c13 -8 27 -14 41 -18l-3 -13c-16 4 -32 10 -45 20zM86 81l12 6c6 -14 16 -25 26 -37l-10 -9c-11 12 -22 24 -28 40zM80 161
c2 -15 1 -30 7 -45l-14 -3c-5 15 -5 32 -7 48h14zM69 195c5 16 8 32 17 47l12 -7c-8 -13 -11 -28 -15 -42zM115 262l-11 8c10 14 23 24 37 33l7 -11c-12 -9 -24 -18 -33 -30zM176 306l-4 13c15 6 32 7 48 9v-14c-15 -2 -30 -2 -44 -8zM251 310l4 14c16 -5 31 -11 45 -21
l-8 -11c-12 8 -26 14 -41 18zM355 242l-13 -7c-6 14 -16 25 -26 37l10 10c11 -13 22 -25 29 -40zM361 262v53h14v-53h-14zM361 173v53h14v-53h-14zM361 129v8h14v-53h-14v11c-2 -5 -4 -10 -6 -14l-13 6c8 13 11 28 15 42h4zM361 -5v53h14v-53h-14zM361 -94v52h14v-52h-14z
M361 -183v52h14v-52h-14z" />
    <glyph glyph-name="r" unicode="r" horiz-adv-x="273" 
d="M101 257c9 13 19 25 32 34l8 -11c-11 -8 -20 -19 -28 -31zM161 309c14 7 30 11 46 12v-14c-14 -1 -28 -5 -41 -10zM85 314v-50h-14v50h14zM85 181v-2h-14v50h14v-2l1 1l12 -6c-6 -13 -9 -27 -12 -41h-1zM85 144v-50h-14v50h14zM71 9v50h14v-50h-14z" />
    <glyph glyph-name="s" unicode="s" horiz-adv-x="391" 
d="M317 234l-14 2c0 14 -6 29 -15 40l11 9c11 -14 18 -31 18 -48v-3zM219 309l2 14c17 -1 34 -8 50 -14l-7 -13c-14 6 -29 12 -45 13zM138 305l-3 13c16 5 33 7 50 7l1 -14c-16 0 -32 -2 -48 -6zM71 260c2 18 15 34 30 44l8 -12c-12 -8 -23 -20 -24 -35zM117 188
c-16 7 -32 17 -41 34l13 6c7 -13 20 -21 34 -27zM203 180l-3 -13c-16 3 -33 6 -49 10l4 14c16 -4 32 -7 48 -11zM285 155l-8 -12c-13 8 -28 12 -44 16l4 14c16 -4 33 -9 48 -18zM312 129c8 -11 13 -25 13 -39c0 -4 -1 -9 -2 -13l-13 3c2 14 -1 30 -9 42zM269 9l-6 13
c14 6 25 17 34 29l12 -8c-11 -14 -24 -26 -40 -34zM232 11l3 -14c-17 -4 -34 -4 -51 -4l1 14c15 0 31 0 47 4zM152 12l-4 -14c-16 4 -33 10 -47 21l8 11c12 -10 28 -15 43 -18zM89 53l-13 -6c-6 13 -10 27 -10 42c0 3 0 7 1 10l13 -2c-1 -15 2 -30 9 -44z" />
    <glyph glyph-name="t" unicode="t" horiz-adv-x="279" 
d="M131 391v45h14v-45h-14zM145 282v-45h-14v45h14zM145 205v-45h-14v45h14zM145 129v-46h-14v46h14zM131 6v46h14v-46h-14zM92 321v-14h-40v14h40zM160 321v-14h-40v14h11v38h14v-38h15zM227 321v-14h-40v14h40z" />
    <glyph glyph-name="u" unicode="u" horiz-adv-x="396" 
d="M284 72l13 -6c-7 -15 -17 -27 -27 -39l-10 10c9 11 18 22 24 35zM236 19l7 -12c-14 -8 -30 -13 -46 -14l-1 14c14 1 28 5 40 12zM120 14l8 12c12 -9 25 -14 39 -17l-3 -14c-16 4 -31 10 -44 19zM74 80l14 4c4 -13 11 -26 19 -38l-11 -8c-10 12 -16 27 -22 42zM80 158
c0 -15 0 -30 2 -44l-14 -2c-2 12 -2 24 -2 36v10h14zM66 190v45h14v-45h-14zM80 312v-46h-14v46h14zM311 6v50h14v-50h-14zM325 141v-50h-14v11l-2 -6l-14 4c6 14 7 29 11 43c6 -1 13 -2 19 -2zM325 226v-50h-14v50h14zM325 312v-50h-14v50h14z" />
    <glyph glyph-name="v" unicode="v" horiz-adv-x="391" 
d="M95 276l-13 -5l-16 40l13 6zM108 203l-16 40l13 5l16 -40zM132 180l15 -41l-13 -5l-15 41zM158 111l16 -40l-13 -5l-16 40zM297 276l15 41l13 -6l-15 -40zM286 248l13 -5l-16 -40l-13 5zM260 180l13 -5l-16 -41l-13 5zM218 71l15 40l13 -5l-15 -40zM196 12l11 31l13 -5
l-16 -38h-17l-16 38l13 5z" />
    <glyph glyph-name="w" unicode="w" horiz-adv-x="603" 
d="M84 263l-18 51l13 5l19 -52zM110 231l19 -51l-13 -5l-19 52zM160 92l-13 -4l-19 51l14 5zM244 180l19 51l13 -4l-18 -52zM213 92l18 52l14 -5l-19 -51zM200 56l14 -5l-19 -49h-17l-18 49l13 5l14 -40zM328 267l-13 -4l-13 38l-13 -38l-13 4l18 49h16zM359 180l-13 -5
l-19 52l14 4zM390 92l-13 -5l-18 52l13 5zM408 2l-18 49l13 5l14 -40l14 40l13 -5l-19 -49h-17zM537 314l-18 -51l-13 4l18 52zM506 227l-18 -52l-13 5l18 51zM462 144l13 -5l-18 -52l-14 5z" />
    <glyph glyph-name="x" unicode="x" horiz-adv-x="354" 
d="M66 311l12 8l27 -39l-12 -8zM150 213l-11 -8l-27 39l11 8zM215 118l27 -39l-12 -8l-27 39zM249 44l12 7l27 -39l-12 -8zM276 319l12 -8l-27 -39l-12 8zM242 244l-27 -39l-12 8l27 39zM185 185l11 -8l-11 -15l11 -16l-11 -8l-8 11l-8 -11l-11 8l10 16l-10 15l11 8l8 -11z
M139 118l11 -8l-27 -39l-11 8zM66 12l27 39l12 -7l-27 -40z" />
    <glyph glyph-name="y" unicode="y" horiz-adv-x="397" 
d="M314 268l-13 5l17 45l13 -5zM284 192l-13 5l18 45l13 -5zM242 121l17 45l13 -5l-17 -45zM212 45l17 45l14 -5l-18 -45zM153 -107l17 45l13 -6l-17 -44zM123 -183l18 44l13 -5l-18 -44zM99 268l-13 -5l-20 50l13 5zM114 233l20 -49l-13 -6l-20 50zM156 94l-20 49l13 6
l20 -50zM204 14l-3 -1l12 -5l-18 -44l-13 5l17 43l-8 -3l-20 50l12 5z" />
    <glyph glyph-name="z" unicode="z" horiz-adv-x="403" 
d="M260 10v14h52v-14h-52zM170 10v14h53v-14h-53zM133 24v-14h-67l41 49l10 -9l-21 -26h37zM170 112l-31 -37l-11 9l31 37zM212 183l11 -9l-31 -36l-11 9zM264 246l11 -9l-31 -37l-10 9zM270 297v14h67l-40 -49l-11 9l21 26h-37zM233 311v-14h-52v14h52zM144 311v-14h-53v14
h53z" />
    <glyph glyph-name="braceleft" unicode="{" horiz-adv-x="343" 
d="M69 199l2 14l11 -1v-14zM90 212l11 1l2 -14l-13 -1v14zM127 298v52h14v-52h-14zM141 439v-52h-14v52h14zM127 475c1 12 0 25 0 37c0 5 1 10 1 16l14 -1c-2 -17 0 -35 -1 -52h-14zM188 585c-15 -4 -29 -14 -36 -28l-12 8c9 17 26 29 44 34zM222 589v14h52v-14h-52z
M122 205c14 -10 18 -26 19 -42l-14 -1c-1 11 -3 26 -14 33l4 8l-5 -2l-4 14c20 2 19 33 19 47h14c-1 -18 1 -47 -19 -57zM141 131v-45h-14v45h14zM141 55v-45h-14v45h14zM127 -66v45h14v-45h-14zM127 -97h14c-1 -14 3 -27 6 -41l-13 -6c-3 14 -7 28 -7 42v5zM154 -171l9 10
c10 -9 23 -15 36 -16l-1 -14c-17 2 -32 9 -44 20zM230 -192v14h44v-14h-44z" />
    <glyph glyph-name="bar" unicode="|" horiz-adv-x="152" 
d="M69 550v48h14v-48h-14zM69 468v48h14v-48h-14zM69 386v48h14v-48h-14zM69 304v48h14v-48h-14zM69 222v49h14v-49h-14zM69 141v48h14v-48h-14zM69 59v48h14v-48h-14zM69 -23v48h14v-48h-14zM69 -105v48h14v-48h-14zM69 -186v48h14v-48h-14z" />
    <glyph glyph-name="braceright" unicode="}" horiz-adv-x="343" 
d="M272 213l2 -14l-13 -1v14zM242 213l11 -1v-14l-13 1zM216 350v-52h-14v52h14zM202 387v52h14v-52h-14zM216 475h-14c-1 17 1 35 -1 52l14 1c1 -6 1 -11 1 -16v-37zM155 585l4 14c18 -5 35 -17 44 -34l-12 -8c-7 14 -21 24 -36 28zM121 603v-14h-52v14h52zM221 205
c-19 10 -17 39 -19 57h14c1 -14 -1 -45 19 -47l-4 -14l-5 2l4 -8c-10 -7 -13 -22 -14 -33l-13 1c0 16 5 32 18 42zM202 86v45h14v-45h-14zM202 10v45h14v-45h-14zM216 -21v-45h-14v45h14zM202 -97h14v-5c1 -14 -3 -28 -7 -42l-12 6c2 14 6 27 5 41zM180 -161l10 -10
c-13 -11 -28 -18 -45 -20l-1 14c14 1 26 7 36 16zM114 -178v-14h-45v14h45z" />
    <glyph glyph-name="asciitilde" unicode="~" horiz-adv-x="466" 
d="M69 258c0 18 4 35 10 51l13 -5c-6 -14 -9 -30 -9 -46h-14zM100 340c12 10 28 16 43 16h8v-14c-15 2 -30 -3 -41 -12zM182 335l5 13c16 -7 30 -19 42 -31l-10 -10c-11 11 -23 22 -37 28zM243 282l10 10c11 -11 23 -21 38 -27l-6 -13c-16 7 -30 18 -42 30zM322 257
c14 1 29 4 40 15l10 -10c-13 -14 -33 -19 -51 -19zM377 299c4 12 6 26 6 39v5v2l14 1v-5c1 -16 -2 -32 -6 -47z" />
    <glyph glyph-name="dagger" unicode="&#x2020;" horiz-adv-x="398" 
d="M192 549v48h14v-48h-14zM192 468v48h14v-48h-14zM192 386v48h14v-48h-14zM192 304v48h14v-48h-14zM192 222v48h14v-48h-14zM192 140v49h14v-49h-14zM192 59v48h14v-48h-14zM192 -23v48h14v-48h-14zM192 -105v48h14v-48h-14zM192 -187v48h14v-48h-14zM69 411v14h43v-14
h-43zM142 411v14h42v-14h-42zM214 411v14h43v-14h-43zM287 411v14h42v-14h-42z" />
    <glyph glyph-name="degree" unicode="&#xb0;" horiz-adv-x="316" 
d="M195 401c13 8 25 19 31 33l12 -5c-7 -17 -20 -31 -36 -40zM120 401c11 -7 24 -10 37 -10h8l1 -14h-9c-15 0 -31 4 -44 12zM69 466h14c0 -16 5 -31 14 -44l-12 -8c-10 16 -15 34 -16 52zM113 543l7 -12c-13 -8 -24 -20 -30 -34l-13 6c7 17 21 30 36 40zM195 531
c-11 7 -24 10 -36 10c-3 0 -5 0 -8 -1l-1 14c3 1 6 1 9 1c15 0 30 -4 43 -12zM247 466h-14c-1 15 -5 30 -14 43l11 8c11 -15 16 -33 17 -51z" />
    <glyph glyph-name="cent" unicode="&#xa2;" horiz-adv-x="419" 
d="M308 427l9 11c13 -10 23 -24 33 -37l-12 -8c-9 12 -18 25 -30 34zM239 459l2 13c17 -1 32 -7 47 -14l-6 -13c-14 7 -28 13 -43 14zM206 473l2 -14c-15 -1 -30 -7 -44 -12l-6 13c16 6 31 12 48 13zM129 440l9 -10c-12 -10 -22 -22 -30 -34l-12 8c9 13 20 26 33 36zM83 323
l-14 2c0 16 6 32 11 48l13 -5c-4 -15 -10 -29 -10 -45zM69 290l14 2c0 -16 6 -30 10 -45l-13 -5c-5 16 -11 32 -11 48zM138 186l-9 -11c-13 10 -24 23 -33 36l12 8c8 -12 18 -24 30 -33zM158 156l6 12c14 -5 29 -11 44 -12l-2 -14c-17 1 -32 7 -48 14zM241 143l-2 14
c15 0 29 7 43 13l6 -12c-15 -8 -30 -14 -47 -15zM317 177l-9 11c12 9 21 22 30 34l12 -8c-10 -13 -20 -27 -33 -37zM290 547l-13 4l13 45l13 -4zM268 520l14 -4l-13 -45l-13 4zM247 443l13 -3l-12 -45l-14 3zM226 318l-13 4l12 45l14 -4zM205 242l-14 4l13 45l13 -4z
M182 214l14 -4l-13 -44l-13 3zM162 89l-14 4l13 45l13 -4zM140 13l-13 4l12 44l14 -3z" />
    <glyph glyph-name="sterling" unicode="&#xa3;" horiz-adv-x="527" 
d="M440 498l-13 -5c-7 13 -14 27 -24 39l11 9c10 -13 19 -28 26 -43zM342 580l6 12c15 -7 29 -16 42 -27l-9 -10c-12 10 -25 18 -39 25zM266 595v14h2h7c13 0 27 -2 40 -5l-3 -14c-13 4 -27 5 -40 5h-6zM234 591c-14 -5 -29 -8 -42 -16l-7 12c14 9 31 13 46 18zM165 557
c-13 -9 -21 -22 -31 -33l-12 7c11 13 20 27 34 37zM118 495c-4 -14 -11 -28 -12 -44l-14 2c1 17 8 32 13 48zM110 373l-14 -3c-4 16 -5 32 -6 49h14c1 -15 2 -31 6 -46zM136 261l13 5c5 -15 12 -30 15 -46l-14 -4c-3 16 -9 30 -14 45zM176 138h-14c1 16 -2 31 -4 46l13 3
c2 -14 5 -28 5 -41v-8zM160 106l14 -2c-3 -17 -7 -33 -15 -48l-13 7c8 13 11 28 14 43zM139 27l-1 -1l3 -11c-15 -5 -30 -10 -44 -16h-1c-1 4 -3 9 -5 13c15 6 26 14 37 25zM170 36c16 3 32 6 48 6l1 -14c-16 0 -31 -3 -47 -6zM251 28l1 14c16 -1 32 -3 48 -7l-3 -14
c-15 4 -30 6 -46 7zM328 13l5 13c15 -4 29 -10 45 -14l-4 -14c-15 5 -30 10 -46 15zM409 6c14 -1 28 4 41 10l8 -12c-15 -7 -31 -13 -47 -12h-3zM113 318v-11h-44v14h43c-2 5 -4 11 -6 16l13 5c5 -15 12 -30 17 -45l-13 -5zM188 321v-14h-44v14h44zM263 321v-14h-44v14h44z
" />
    <glyph glyph-name="section" unicode="&#xa7;" horiz-adv-x="475" 
d="M380 456h-14c0 15 -3 31 -7 46l13 4c5 -16 8 -33 8 -50zM358 539l-12 -7c-7 13 -17 26 -29 35l8 11c14 -11 25 -24 33 -39zM295 597l-6 -13c-14 6 -29 11 -45 12l2 14c17 -2 33 -6 49 -13zM210 611l1 -14c-15 -1 -31 -4 -45 -11l-5 13c15 7 32 11 49 12zM129 582l9 -11
c-13 -9 -25 -20 -33 -33l-12 8c10 15 23 26 36 36zM84 464h-14v9c0 14 3 28 7 41l13 -4c-3 -12 -6 -25 -6 -37v-9zM76 428l13 4c3 -15 13 -27 22 -39l-10 -9c-11 13 -22 27 -25 44zM177 348l-6 -13c-15 8 -30 15 -43 25l8 11c12 -9 27 -16 41 -23zM255 319l-5 -13l-46 16
l4 14c16 -5 31 -11 47 -17zM330 280l-8 -11c-12 10 -28 16 -41 24l6 12c14 -8 30 -14 43 -25zM348 248l9 10c12 -13 24 -25 31 -40l-12 -7c-7 14 -18 25 -28 37zM406 134l-14 1c-1 15 1 31 -4 46l13 3c4 -8 5 -18 5 -27v-10v-13zM93 336l-13 6c7 15 17 29 28 41l10 -10
c-10 -11 -19 -23 -25 -37zM86 261l-14 -3c-1 9 -2 18 -2 26v7c0 5 0 11 1 17l14 -2c-2 -15 -2 -30 1 -45zM125 197l-9 -10c-13 11 -24 23 -32 38l13 7c6 -14 17 -25 28 -35zM144 167l7 12c14 -7 27 -14 42 -20l-5 -13c-15 6 -30 13 -44 21zM269 131l-6 -13l-44 17l5 13
c15 -5 30 -11 45 -17zM340 90l-9 -11c-11 10 -24 18 -38 25l6 12c15 -7 29 -15 41 -26zM393 26l-13 -6c-7 14 -14 27 -25 37l10 10l3 -3c7 12 14 25 18 39l13 -4c-5 -17 -12 -32 -22 -46c6 -9 11 -18 16 -27zM390 -10l14 3c1 -11 2 -21 2 -32c0 -6 0 -12 -2 -18l-14 2
c2 6 2 11 2 16c0 10 -1 20 -2 29zM372 -133l-10 8c11 11 15 26 21 40l13 -5c-7 -15 -11 -32 -24 -43zM304 -180l-5 13c15 4 28 12 40 20l9 -11c-14 -9 -28 -18 -44 -22zM221 -189l2 14c6 0 13 -1 20 -1h6c6 0 13 1 19 2l2 -14c-7 -1 -14 -2 -21 -2h-6c-8 0 -15 1 -22 1z
M142 -162l8 11c14 -6 26 -15 41 -18l-4 -13c-16 3 -30 13 -45 20zM87 -100l13 7c6 -14 15 -27 26 -37l-10 -10c-12 11 -22 26 -29 40zM69 -18h14c0 -16 1 -31 6 -46l-14 -3c-5 16 -6 32 -6 49z" />
    <glyph glyph-name="bullet" unicode="&#x2022;" horiz-adv-x="371" 
d="M95 405l11 -8c-9 -12 -15 -26 -19 -40l-13 4c4 16 11 31 21 44zM164 451l3 -14c-14 -3 -28 -9 -40 -18l-8 11c13 10 29 18 45 21zM246 435l-8 -12c-12 8 -26 14 -41 15l2 14c17 -2 33 -8 47 -17zM295 368l-13 -4c-4 14 -12 27 -21 38l11 9c10 -13 18 -27 23 -43zM288 326
l-1 7l14 1l1 -5v-6c0 -13 -3 -26 -7 -38l-13 4c4 12 6 24 6 37zM246 218l-8 12c12 8 23 19 31 31l12 -8c-10 -13 -21 -26 -35 -35zM164 201l3 14c6 -1 12 -1 19 -1c8 0 16 1 24 3l4 -14c-9 -2 -19 -3 -28 -3c-8 0 -15 0 -22 1zM95 247l11 9c9 -12 20 -23 33 -30l-7 -12
c-15 8 -28 20 -37 33zM69 326h14c1 -15 3 -29 8 -43l-13 -5c-6 15 -8 32 -9 48zM95 369l61 62c4 1 7 2 11 3l-76 -77c1 4 2 8 4 12zM209 432l-121 -121l-1 7l115 116zM234 421l5 -3l-142 -141l-2 6zM261 397l-147 -147l-3 5l146 146zM276 369l-138 -138l-5 3l141 141z
M283 341l1 -8l-115 -114l-6 1zM205 219l75 75c-2 -5 -3 -9 -5 -13l-58 -58c-4 -1 -8 -3 -12 -4z" />
    <glyph glyph-name="paragraph" unicode="&#xb6;" horiz-adv-x="577" 
d="M283 543h-14v49h14v-49zM283 462h-14v48h14v-48zM283 380h-14v48h14v-48zM283 298h-14v48h14v-48zM283 216h-14v48h14v-48zM283 135h-14v48h14v-48zM283 53h-14v48h14v-48zM283 -29h-14v48h14v-48zM283 -111h-14v48h14v-48zM283 -193h-14v49h14v-49zM465 -193h-14v49h14
v-49zM465 -111h-14v48h14v-48zM465 -29h-14v48h14v-48zM465 53h-14v48h14v-48zM465 135h-14v48h14v-48zM465 216h-14v48h14v-48zM465 298h-14v48h14v-48zM465 380h-14v48h14v-48zM465 462h-14v48h14v-48zM459 598h49v-15h-43v-40h-14v49h8v6zM426 583h-49v15h49v-15z
M343 583h-48v15h48v-15zM261 598v-15c-16 0 -32 2 -48 -1l-1 14c6 1 12 2 18 2h7c8 0 16 -1 24 0zM177 590l5 -13c-15 -4 -29 -12 -41 -21l-9 12c14 9 29 18 45 22zM106 544l11 -10c-11 -11 -18 -25 -24 -38l-13 5c7 15 15 30 26 43zM71 467l14 -3c-1 -6 -2 -13 -2 -20
c0 -8 1 -17 2 -25l-14 -3c-1 9 -2 19 -2 28c0 8 1 15 2 23zM81 382l13 6c7 -14 15 -27 25 -39l-10 -9c-12 12 -20 27 -28 42zM135 316l8 12c13 -8 27 -16 42 -19l-4 -14c-16 4 -31 13 -46 21zM216 290l1 14c16 -2 32 -1 48 -1v-14h-20h-11c-6 0 -12 0 -18 1zM94 484l84 85
l12 3l-99 -99c1 4 2 7 3 11zM89 436l143 143l9 1l-151 -151c0 2 -1 5 -1 7zM96 400l168 168v-9l-166 -166c-1 2 -1 5 -2 7zM264 524v-8l-151 -151l-3 5zM130 346l134 134v-8l-130 -130zM263 437v-9l-103 -103l-5 3zM186 315l77 78v-9l-71 -70zM262 349v-9l-32 -32h-8z" />
    <glyph glyph-name="germandbls" unicode="&#xdf;" horiz-adv-x="451" 
d="M69 3v49h14v-49h-14zM69 86v49l14 1v-50h-14zM69 170v49h14v-49h-14zM83 303v-49h-14v49h14zM83 387v-49l-14 -1v49zM83 471v-49l-14 -1v49zM72 539c5 17 15 31 29 42l8 -11c-11 -9 -20 -21 -23 -34zM133 595c10 3 22 5 33 5h6c3 0 6 -1 9 -1l-1 -14c-15 1 -30 0 -44 -4z
M210 578l5 13c15 -7 29 -16 40 -28l-10 -10c-9 11 -22 18 -35 25zM292 489l-14 -2c-2 15 -7 29 -14 41l12 7c8 -14 14 -30 16 -46zM291 454c-2 -16 -10 -31 -18 -45l-12 7c7 13 14 26 16 41zM211 355c10 13 22 23 32 35l10 -9c-9 -12 -21 -22 -31 -34zM208 318l13 6
c6 -13 17 -23 28 -34l-10 -10c-12 12 -23 23 -31 38zM306 236l-9 -10l-34 32l9 10zM361 177l-11 -8c-9 12 -20 23 -30 34l10 10c11 -12 22 -23 31 -36zM363 142l13 4c4 -12 6 -25 6 -37c0 -4 0 -8 -1 -12l-14 1c2 15 0 30 -4 44zM336 32c10 11 19 23 24 37l13 -6
c-6 -15 -15 -29 -27 -41zM270 4c15 0 29 4 42 10l6 -12c-14 -8 -31 -12 -48 -12v14zM191 12l8 12c13 -6 26 -14 41 -16l-4 -14c-16 3 -30 12 -45 18zM129 64l10 9c11 -10 22 -21 34 -30l-9 -11c-12 10 -24 21 -35 32z" />
    <glyph glyph-name="registered" unicode="&#xae;" horiz-adv-x="764" 
d="M340 448h-38v-45h-14v59h52v-14zM288 368h14v-50h-14v50zM288 197h14v-50h-14v50zM430 456l-4 -14c-16 5 -33 6 -49 6v14h5c16 0 33 -2 48 -6zM502 398l-13 -5c-6 15 -18 27 -31 35l7 12c16 -10 30 -24 37 -42zM474 311l-8 11c12 9 21 23 25 39l14 -3
c-4 -19 -15 -36 -31 -47zM288 283h10v14h52v-14h-48v-51h-14v51zM416 286l18 -25l-11 -8l-22 31c-5 -1 -9 -1 -14 -1v14c16 0 33 2 49 9l5 -14c-8 -3 -16 -5 -25 -6zM450 239l23 -33l-11 -8l-23 32zM501 144l-23 32l11 8l23 -32zM683 218l-13 4c4 15 7 31 9 47l14 -2
c-2 -16 -5 -33 -10 -49zM649 140l-12 7c9 14 15 28 22 43l13 -5c-7 -16 -14 -31 -23 -45zM595 74l-9 10c12 11 22 23 32 35l11 -8c-10 -13 -21 -26 -34 -37zM526 24l-7 13c14 8 28 15 41 25l8 -11c-13 -10 -27 -18 -42 -27zM446 -4l-3 13c15 4 31 8 46 14l5 -13
c-16 -6 -32 -10 -48 -14zM360 -10l1 14c16 -1 32 0 48 1l2 -14c-9 -1 -17 -1 -26 -1h-8c-6 -1 -11 0 -17 0zM277 8l5 13c15 -6 30 -9 46 -13l-2 -13c-17 3 -33 6 -49 13zM201 47l8 11c14 -9 27 -18 42 -24l-6 -13c-16 7 -30 16 -44 26zM139 105l11 9c10 -12 21 -24 33 -35
l-9 -10c-13 11 -24 23 -35 36zM95 178l12 5c7 -14 14 -29 23 -42l-12 -8c-9 14 -16 29 -23 45zM72 260l14 2c2 -16 6 -32 10 -47l-14 -4c-4 16 -8 32 -10 49zM72 345l14 -2c-3 -16 -3 -32 -3 -48h-14v15c0 11 1 23 3 35zM95 427l12 -5c-5 -15 -11 -30 -15 -46l-13 4
c3 16 9 32 16 47zM139 500l11 -9c-10 -13 -19 -25 -27 -39l-12 7c8 14 18 28 28 41zM201 558l8 -11c-13 -10 -25 -20 -37 -31l-9 10c12 12 25 23 38 32zM277 597l5 -13c-16 -5 -30 -12 -44 -19l-7 12c15 7 30 15 46 20zM360 615l1 -14c-16 -1 -31 -4 -47 -7l-3 13
c16 4 33 7 49 8zM446 609l-3 -14c-16 3 -32 6 -48 6l1 14c16 0 33 -3 50 -6zM526 580l-7 -12c-14 7 -29 13 -44 19l5 13c15 -5 31 -12 46 -20zM595 531l-9 -10c-12 11 -25 20 -38 30l8 12c14 -10 27 -20 39 -32zM649 465l-12 -7c-8 14 -18 26 -28 39l11 9
c10 -13 21 -26 29 -41zM683 387l-13 -4c-5 15 -10 31 -17 45l13 6c7 -15 13 -31 17 -47zM677 350l14 2c3 -16 3 -33 4 -50h-14c-1 16 -1 32 -4 48z" />
    <glyph glyph-name="copyright" unicode="&#xa9;" horiz-adv-x="764" 
d="M683 216l-13 4c4 15 7 31 9 47l14 -1c-2 -17 -5 -34 -10 -50zM649 138l-12 7c9 14 15 29 22 43l13 -5c-7 -15 -14 -31 -23 -45zM595 72l-9 10c12 11 22 23 32 36l11 -9c-10 -13 -21 -26 -34 -37zM526 23l-7 12c14 8 28 16 41 26l8 -11c-13 -11 -27 -19 -42 -27zM446 -6
l-3 14c15 4 31 7 46 14l5 -13c-16 -7 -32 -11 -48 -15zM360 -11l1 14c16 -2 32 -1 48 0l2 -14c-9 -1 -17 -1 -26 -1h-8c-6 0 -11 0 -17 1zM277 6l5 13c15 -6 30 -9 46 -12l-2 -14c-17 3 -33 7 -49 13zM201 45l8 12c14 -9 27 -18 42 -25l-6 -12c-16 6 -30 16 -44 25zM139 103
l11 9c10 -12 21 -24 33 -34l-9 -11c-13 11 -24 24 -35 36zM95 176l12 6c7 -15 14 -29 23 -43l-12 -7c-9 14 -16 29 -23 44zM72 258l14 2c2 -16 6 -31 10 -47l-14 -4c-4 16 -8 32 -10 49zM72 343l14 -2c-3 -15 -3 -31 -3 -47l-14 -1v15c0 12 1 24 3 35zM95 426l12 -6
c-5 -15 -11 -30 -15 -46l-13 4c3 16 9 32 16 48zM139 498l11 -8c-10 -13 -19 -26 -27 -40l-12 7c8 15 18 28 28 41zM201 556l8 -11c-13 -9 -25 -20 -37 -31l-9 10c12 12 25 23 38 32zM277 596l5 -14c-16 -5 -30 -12 -44 -19l-7 12c15 8 30 15 46 21zM360 613l1 -14
c-16 -1 -31 -4 -47 -7l-3 14c16 3 33 6 49 7zM446 607l-3 -13c-16 2 -32 5 -48 5l1 14c16 0 33 -3 50 -6zM526 579l-7 -13c-14 8 -29 14 -44 19l5 13c15 -5 31 -12 46 -19zM595 529l-9 -10c-12 11 -25 21 -38 30l8 12c14 -10 27 -20 39 -32zM649 463l-12 -7
c-8 14 -18 27 -28 39l11 9c10 -13 21 -26 29 -41zM683 385l-13 -4c-5 16 -10 31 -17 45l13 6c7 -15 13 -31 17 -47zM677 349l14 2c3 -17 3 -34 4 -50h-14c-1 16 -1 32 -4 48zM475 415l10 11c13 -10 22 -24 32 -37l-12 -8c-9 12 -17 25 -30 34zM407 447l2 13
c16 -1 32 -7 47 -14l-7 -13c-13 6 -27 13 -42 14zM332 435l-6 12c15 7 31 13 48 14l1 -14c-15 -1 -29 -7 -43 -12zM275 384l-12 8c10 13 21 26 34 36l9 -10c-12 -10 -22 -22 -31 -34zM250 311l-13 2c0 16 6 32 10 48l13 -5c-4 -15 -9 -29 -10 -45zM237 278l13 2
c1 -16 6 -30 10 -45l-13 -5c-4 16 -10 32 -10 48zM306 174l-9 -11c-13 10 -24 23 -34 36l12 8c9 -12 19 -24 31 -33zM326 144l6 12c14 -5 28 -11 43 -12l-1 -14c-17 1 -33 7 -48 14zM409 131l-2 14c15 0 29 7 42 13l7 -12c-15 -8 -31 -14 -47 -15zM485 165l-10 11
c13 9 21 22 30 34l12 -8c-10 -13 -19 -27 -32 -37z" />
    <glyph glyph-name="trademark" unicode="&#x2122;" horiz-adv-x="557" 
d="M104 581h-35v14h35v-14zM139 581h-11v14h35v-14h-10v-40h-14v40zM223 581h-35v14h35v-14zM153 299h-14v47h14v-47zM153 379h-14v48h14v-48zM153 460h-14v47h14v-47zM274 462h-14v48h14v-48zM274 380h-14v48h14v-48zM274 298h-14v48h14v-48zM456 547l18 49h14v-52h-14v9
l-5 -11zM488 462h-14v48h14v-48zM488 380h-14v48h14v-48zM488 298h-14v48h14v-48zM260 596h15l17 -51l-13 -5l-5 14v-10h-14v52zM291 507l13 5l18 -47l-13 -5zM321 427l13 4l17 -47l-13 -5zM363 351l11 -29l11 31l13 -5l-17 -53h-13l-18 51zM410 381l-13 5l18 47l13 -5z
M440 461l-13 5l17 48l13 -5z" />
    <glyph glyph-name="acute" unicode="&#xb4;" horiz-adv-x="245" 
d="M71 656l21 21l10 -10l-21 -21zM107 692l21 21l10 -10l-21 -21zM143 728l21 21l10 -10l-21 -21z" />
    <glyph glyph-name="dieresis" unicode="&#xa8;" horiz-adv-x="284" 
d="M117 541l-6 -3c-2 4 -6 7 -10 8l2 7c6 -2 11 -6 14 -12zM90 554l1 -7c-5 -1 -9 -4 -11 -8l-6 5c3 5 9 9 16 10zM76 530c0 -4 1 -9 4 -13l-6 -4c-3 4 -5 9 -5 14v2v2zM87 511c2 -1 5 -2 7 -2h2c2 0 3 1 5 1l2 -6c-2 -1 -4 -2 -7 -2h-2c-3 0 -7 1 -10 2zM109 515
c3 4 5 9 5 13h7c0 -6 -2 -12 -7 -17zM211 541l-6 -3c-2 4 -6 7 -11 8l2 7c6 -2 12 -6 15 -12zM183 554l2 -7c-5 -1 -9 -4 -12 -8l-6 5c4 5 10 9 16 10zM170 530c-1 -4 0 -9 3 -13l-6 -4c-3 4 -4 9 -5 14v2l1 2zM180 511c3 -1 5 -2 8 -2h2c1 0 3 1 4 1l2 -6
c-2 -1 -4 -2 -6 -2h-2c-4 0 -7 1 -10 2zM202 515c4 4 5 9 6 13h7c-1 -6 -3 -12 -7 -17z" />
    <glyph glyph-name="AE" unicode="&#xc6;" horiz-adv-x="815" 
d="M81 3l-12 8l27 40l11 -7zM126 72l-12 8l27 40l12 -7zM172 141l-12 8l27 40l11 -8zM278 327l11 -8l-26 -40l-12 7zM296 355l27 41l12 -8l-27 -40zM354 416l-12 8l27 41l11 -8zM387 493l27 41l12 -8l-27 -41zM469 589h-1l-23 -35l-12 8l27 40l2 -1v2h47v-14h-26v-38h-14v38
zM232 258l7 -5v1h51v-14h-51v3l-22 -33l-12 8zM375 240h-50v14h50v-14zM461 240h-50v14h50v-14zM746 4h-45v14h45v-14zM669 4h-45v14h45v-14zM592 4h-46v14h46v-14zM469 56h14v-38h32v-14h-46v7v45zM483 88h-14v45h14v-45zM469 211h14v-46h-14v46zM469 288h14v-46h-14v46z
M469 365h14v-46h-14v46zM469 442h14v-45h-14v45zM469 519h14v-45h-14v45zM541 603h47v-14h-47v14zM620 603h47v-14h-47v14zM746 589h-46v14h46v-14zM484 333h40v-14h-40v14zM591 319h-40v14h40v-14zM618 333h40v-14h-40v14z" />
    <glyph glyph-name="Oslash" unicode="&#xd8;" horiz-adv-x="537" 
d="M446 223c4 15 6 31 6 47l14 -1c-1 -16 -2 -33 -6 -49zM424 144l16 46l13 -4l-16 -47zM384 74c11 12 19 26 26 40l12 -6c-7 -16 -16 -30 -26 -42zM325 23c15 5 26 17 38 27l9 -11c-13 -10 -25 -23 -41 -29zM249 9c7 -1 14 -1 20 -1c9 0 18 0 26 3l3 -14
c-9 -2 -19 -3 -29 -3c-7 0 -15 0 -22 1zM171 34l9 11c11 -11 24 -20 39 -25l-6 -13c-16 6 -30 15 -42 27zM118 101l12 7c7 -15 17 -27 27 -39l-11 -9c-10 13 -21 26 -28 41zM99 183l16 -46l-13 -5l-16 47zM85 263c1 -16 4 -32 7 -47l-14 -3c-3 16 -6 32 -7 49zM85 345
c0 -14 -2 -28 -2 -41v-7h-14v3v7c0 13 2 26 2 39zM99 425c-4 -15 -6 -31 -10 -47l-14 2c4 17 6 33 11 49zM130 500c-7 -14 -16 -28 -20 -43l-13 5c5 16 14 30 21 45zM180 563c-13 -9 -22 -23 -32 -35l-11 8c10 14 20 27 34 37zM249 599c-15 -2 -29 -10 -43 -17l-7 12
c15 8 31 16 48 19zM331 598l-6 -13c-14 8 -28 14 -44 15l2 13c17 -1 33 -7 48 -15zM384 534c-8 13 -20 24 -32 33l9 11c13 -10 25 -22 34 -36zM415 513c8 -14 17 -28 22 -44l-13 -5c-5 15 -14 28 -21 42zM446 385c-3 16 -4 32 -11 47l14 4c6 -15 7 -32 11 -48zM451 352l14 1
l3 -49h-14zM112 16l23 45l13 -6l-23 -46zM175 138l12 -6l-23 -45l-12 6zM191 170l24 46l12 -7l-23 -45zM254 293l13 -6l-24 -46l-12 7zM270 325l24 45l12 -6l-23 -45zM333 448l13 -7l-24 -45l-12 6zM385 519l-23 -46l-12 7l23 45zM425 596l-23 -45l-13 6l23 45z" />
    <glyph glyph-name="yen" unicode="&#xa5;" horiz-adv-x="472" 
d="M69 592l12 7l21 -39l-12 -6zM116 533l21 -39l-12 -6l-21 38zM160 422l-21 38l12 7l21 -39zM186 401l21 -39l-12 -6l-21 38zM383 554l-13 6l21 39l12 -7zM356 533l12 -7l-20 -38l-13 6zM300 428l21 39l12 -7l-20 -38zM278 356l-13 6l21 39l12 -7zM251 335l12 -6l-20 -39
v-35h-14v35l-20 39l12 6l15 -28zM243 173h-14v48h14v-48zM243 91h-14v48h14v-48zM243 9h-14v48h14v-48zM142 271h-46v14h46v-14zM220 271h-46v14h46v-14zM298 271h-46v14h46v-14zM376 271h-46v14h46v-14zM142 166h-46v14h46v-14zM220 166h-46v14h46v-14zM298 166h-46v14h46
v-14zM376 166h-46v14h46v-14z" />
    <glyph glyph-name="ordfeminine" unicode="&#xaa;" horiz-adv-x="360" 
d="M237 388l-8 12c13 9 23 21 32 34l12 -6c-10 -15 -21 -29 -36 -40zM150 374l4 14c7 -3 15 -4 22 -4c8 0 16 1 24 3l3 -14c-9 -2 -18 -3 -27 -3s-18 1 -26 4zM83 432l12 6c6 -14 18 -26 30 -36l-9 -11c-13 11 -26 24 -33 41zM73 520l13 -4c-2 -9 -3 -18 -3 -27
c0 -6 1 -13 1 -20l-13 -2c-1 7 -2 15 -2 22c0 10 1 21 4 31zM99 547l-12 7c10 15 22 29 37 38l8 -12c-14 -8 -25 -20 -33 -33zM162 592l-3 14c5 1 11 1 16 1c13 0 25 -2 37 -5l-4 -14c-11 3 -22 5 -33 5c-4 0 -9 0 -13 -1zM277 541l-12 -6c-8 14 -17 28 -29 37l9 11
c14 -11 23 -26 32 -42zM291 547h-14v48h14v-48zM291 464h-14v49h14v-49zM291 382h-14v48h14v-48z" />
    <glyph glyph-name="ordmasculine" unicode="&#xba;" horiz-adv-x="358" 
d="M259 406l-11 9c10 12 18 26 22 41l13 -4c-4 -17 -13 -33 -24 -46zM179 369v14c15 1 31 4 44 12l7 -12c-15 -10 -33 -13 -51 -14zM100 406l10 9c11 -11 23 -21 38 -26l-5 -13c-17 6 -31 17 -43 30zM69 488h14c1 -16 3 -31 10 -45l-13 -6c-7 16 -10 33 -11 51zM100 570
l10 -9c-10 -12 -18 -26 -22 -41l-13 4c4 17 14 32 25 46zM179 607v-14c-15 -1 -31 -4 -44 -12l-7 12c16 9 33 13 51 14zM259 570l-11 -9c-10 11 -23 20 -38 26l5 13c17 -6 32 -17 44 -30zM265 533l13 6c8 -16 10 -34 11 -51h-14c-1 15 -3 31 -10 45z" />
    <glyph glyph-name="ae" unicode="&#xe6;" horiz-adv-x="744" 
d="M293 13l-6 12c13 8 26 18 36 30l11 -9c-12 -13 -25 -24 -41 -33zM207 -4l2 14c15 -3 31 -1 47 3l3 -14c-11 -3 -23 -5 -35 -5c-6 0 -11 1 -17 2zM127 31l9 11c11 -11 26 -19 40 -25l-5 -13c-16 7 -32 15 -44 27zM78 105l13 4c6 -15 12 -30 22 -42l-11 -9
c-11 14 -18 30 -24 47zM71 192l14 -2c-1 -10 -2 -21 -2 -31c0 -6 0 -11 1 -17l-14 -2c-1 7 -1 13 -1 19c0 11 1 22 2 33zM95 222l-13 6c7 15 15 31 27 44l10 -9c-10 -12 -18 -26 -24 -41zM143 287l-8 11c14 10 30 19 47 23l4 -13c-16 -4 -30 -13 -43 -21zM218 313v14
c18 1 35 -1 52 -8l-5 -13c-15 6 -31 8 -47 7zM295 292l8 12c14 -10 27 -22 38 -36l-11 -9c-10 13 -22 24 -35 33zM366 313h14v-50h-14v50zM366 228h14v-49h-14v49zM380 94h-14v50h14v-50zM380 9h-14v50h14v-50zM622 28l-9 11c12 8 19 21 28 31l13 -7
c-11 -11 -19 -26 -32 -35zM549 -3l-2 14c14 1 27 8 41 12l6 -13c-15 -4 -29 -12 -45 -13zM470 3l5 13c14 -4 28 -7 42 -8v-14c-16 1 -32 4 -47 9zM406 49l11 9c9 -10 20 -20 32 -28l-8 -12c-13 9 -25 20 -35 31zM440 303l8 -12c-13 -8 -24 -19 -34 -30l-11 9
c11 12 23 24 37 33zM476 306l-5 13c16 6 32 8 49 9v-14c-15 -1 -30 -3 -44 -8zM551 310l3 14c16 -5 32 -11 46 -20l-8 -12c-12 9 -27 14 -41 18zM655 242l-12 -7c-6 14 -17 26 -26 37l10 10c10 -12 21 -25 28 -40zM674 168h1v-14h-49v14h34c-1 13 -1 26 -6 38l14 4
c5 -14 5 -28 6 -42zM544 168h48v-14h-48v14zM461 168h49v-14h-49v14zM427 154h-49v14h49v-14z" />
    <glyph glyph-name="oslash" unicode="&#xf8;" horiz-adv-x="446" 
d="M345 88c8 13 11 28 15 43l14 -3c-4 -16 -8 -32 -16 -46zM295 31c12 9 24 19 33 31l11 -9c-10 -13 -23 -24 -36 -33zM223 9c15 2 30 3 44 9l5 -14c-16 -6 -32 -7 -49 -9v14zM144 20l7 11c13 -8 27 -14 41 -18l-3 -13c-16 4 -32 10 -45 20zM127 51l-5 -4l7 -6l-35 -40
l-10 9l30 35c-10 11 -19 23 -25 37l12 6c6 -14 16 -25 26 -37zM83 162c2 -15 1 -30 7 -44l-14 -4c-5 15 -5 32 -7 48h14zM101 236c-8 -13 -11 -28 -15 -42l-14 2c5 16 8 32 17 47zM151 293c-12 -8 -24 -18 -33 -30l-11 8c10 14 23 24 37 34zM223 315c-15 -2 -30 -2 -44 -8
l-4 13c15 7 32 7 48 9v-14zM303 305l-8 -12c-12 8 -26 14 -41 18l4 14c16 -5 31 -11 45 -20zM319 273l4 4l-5 4l34 40l11 -9l-29 -34c9 -11 18 -22 24 -35l-13 -7c-6 14 -16 26 -26 37zM357 207l13 4c6 -16 6 -33 7 -49h-14c-1 15 -1 31 -6 45zM187 109l-34 -40l-11 9l35 40
zM235 185l11 -9l-35 -40l-10 10zM259 213l35 40l10 -9l-34 -40z" />
    <glyph glyph-name="questiondown" unicode="&#xbf;" horiz-adv-x="471" 
d="M386 -18l14 1c0 -17 -3 -34 -7 -51l-14 4c5 15 7 31 7 46zM379 -101c-9 -15 -20 -29 -33 -39l-9 10c12 10 22 22 29 36zM316 -160c-16 -7 -32 -12 -49 -14l-2 13c15 3 30 7 45 14zM232 -163l-1 -14h-3c-16 0 -32 3 -47 7l4 14c14 -4 29 -7 43 -7h4zM107 -125l11 9
c11 -11 23 -21 37 -28l-7 -12c-15 8 -29 19 -41 31zM86 -46c2 -15 5 -30 13 -43l-13 -7c-9 15 -12 32 -14 49zM96 32c-6 -14 -10 -29 -11 -44l-14 1c1 17 5 34 13 49zM148 93c-13 -10 -24 -21 -34 -33l-11 9c10 13 23 24 36 35zM213 146c-12 -11 -25 -22 -39 -32l-8 11
c13 10 26 20 37 31zM261 217c-5 -16 -14 -32 -24 -45l-11 8c9 13 17 26 22 41zM256 302h14v-19c0 -10 0 -21 -1 -31l-14 1c2 16 1 32 1 49zM259 432c-4 -1 -8 -4 -11 -8l-6 3c3 6 9 10 15 12zM280 425c-2 4 -7 7 -11 8l1 7c6 -1 12 -5 16 -10zM286 399l-6 4c2 3 4 7 4 10v3
l7 1v-3c0 -5 -2 -11 -5 -15zM257 390l2 6c4 -1 9 -1 14 1l3 -7c-4 -1 -7 -2 -10 -2h-3c-2 0 -4 1 -6 2zM251 401l-5 -4c-5 5 -7 11 -7 17h7c0 -4 2 -9 5 -13z" />
    <glyph glyph-name="exclamdown" unicode="&#xa1;" horiz-adv-x="194" 
d="M104 309v-49h-14v49h14zM90 176v49h14v-49h-14zM90 93v49h14v-49h-14zM90 10v49h14v-49h-14zM90 -74v49h14v-49h-14zM90 -157v49h14v-49h-14zM75 409l6 3c2 -4 6 -7 10 -8l-2 -7c-6 2 -11 6 -14 12zM103 396l-2 7c5 1 9 4 12 8l5 -4c-3 -6 -9 -10 -15 -11zM116 420
c1 4 0 9 -3 13l5 4c3 -4 5 -9 5 -14v-2v-2zM105 439c-2 1 -5 2 -7 2h-2c-2 0 -3 -1 -5 -1l-2 6c2 1 5 2 7 2h2c3 0 7 -1 10 -2zM83 435c-3 -4 -4 -9 -5 -13h-7c1 6 3 12 7 17z" />
    <glyph glyph-name="Euro" unicode="&#x20ac;" horiz-adv-x="484" 
d="M369 24c13 8 24 20 36 30l10 -10c-13 -10 -24 -23 -38 -31zM295 5c16 -2 31 1 45 5l5 -13c-14 -4 -28 -7 -42 -7c-3 0 -6 0 -9 1zM216 22l8 11c11 -11 27 -15 40 -22l-4 -14c-15 9 -32 13 -44 25zM159 84l12 8c9 -13 19 -25 28 -38l-10 -9zM125 161l13 4
c6 -15 9 -30 18 -44l-13 -6c-9 14 -12 30 -18 46zM120 244c3 -16 6 -32 9 -47l-13 -3c-3 16 -7 32 -10 48zM118 277l-14 -1v9h-35v14h34c0 9 0 17 1 26l14 -1c-1 -8 -1 -17 -1 -25h7v-14h-6v-8zM125 441c6 15 9 31 18 45l13 -6c-9 -13 -12 -29 -18 -44zM199 547
c-9 -13 -19 -25 -28 -38l-12 8c10 14 20 26 30 39zM264 590c-13 -7 -29 -11 -40 -22l-8 11c12 12 29 17 44 25zM294 611h9c14 0 28 -3 42 -7l-5 -13c-12 3 -24 7 -37 6h-8zM369 577l8 12c14 -9 25 -21 38 -32l-10 -9c-12 9 -23 21 -36 29zM124 367v-14h-55v14h39
c2 14 5 27 8 41l13 -4c-2 -12 -5 -24 -7 -37h2zM217 367v-14h-55v14h55zM311 367v-14h-55v14h55zM162 285v14h55v-14h-55zM256 285v14h55v-14h-55z" />
    <glyph glyph-name="dotlessi" unicode="&#x131;" horiz-adv-x="194" 
d="M104 312v-50h-14v50h14zM104 227v-50h-14v50h14zM90 93v49h14v-49h-14zM104 58v-50h-14v50h14z" />
    <glyph glyph-name="circumflex" unicode="&#x2c6;" horiz-adv-x="269" 
d="M81 574l13 -20l-12 -8l-13 21zM103 540l14 -20l-12 -8l-13 20zM200 567l-14 -21l-12 8l14 20zM152 520l13 20l12 -8l-14 -20zM134 493l8 13l12 -8l-13 -20l-7 4l-6 -4l-14 20l12 8z" />
    <glyph glyph-name="tilde" unicode="&#x2dc;" horiz-adv-x="314" 
d="M69 485c1 18 3 35 10 51l13 -6c-6 -14 -8 -30 -9 -45h-14zM108 562h6c17 0 32 -12 41 -26l-12 -8c-6 10 -16 21 -29 20h-4zM174 508c6 -9 16 -18 28 -18c2 0 4 0 5 1l3 -14c-2 0 -5 -1 -8 -1c-16 0 -31 11 -39 24zM224 510c6 14 7 30 7 45h14c0 -17 -2 -34 -8 -50z" />
    <glyph glyph-name="ring" unicode="&#x2da;" horiz-adv-x="316" 
d="M195 401c13 8 25 19 31 33l12 -5c-7 -17 -20 -31 -36 -40zM120 401c11 -7 24 -10 37 -10h8l1 -14h-9c-15 0 -31 4 -44 12zM69 466h14c0 -16 5 -31 14 -44l-12 -8c-10 16 -15 34 -16 52zM113 543l7 -12c-13 -8 -24 -20 -30 -34l-13 6c7 17 21 30 36 40zM195 531
c-11 7 -24 10 -36 10c-3 0 -5 0 -8 -1l-1 14c3 1 6 1 9 1c15 0 30 -4 43 -12zM247 466h-14c-1 15 -5 30 -14 43l11 8c11 -15 16 -33 17 -51z" />
    <glyph glyph-name="cedilla" unicode="&#xb8;" horiz-adv-x="231" 
d="M95 -5l-3 -16l-14 2l3 17zM74 -46l2 16l14 -2l-3 -16zM121 -60c-15 -4 -29 -12 -41 -20l-4 5l-7 1l3 17l13 -3v0c10 5 21 10 32 14zM144 -64l11 9c5 -7 7 -15 7 -23c0 -11 -4 -21 -9 -30l-12 7c4 7 7 15 7 23c0 5 -1 10 -4 14zM82 -145c15 2 28 11 39 20l9 -11
c-14 -11 -29 -20 -46 -23z" />
    <glyph glyph-name="caron" unicode="&#x2c7;" horiz-adv-x="285" 
d="M84 719l-13 20l12 8l13 -20zM107 685l-13 20l11 8l14 -20zM176 727l14 20l12 -8l-14 -20zM179 705l-14 -20l-11 8l13 20zM144 678l12 -7l-13 -21h-13l-14 21l12 7l8 -12z" />
    <glyph glyph-name="daggerdbl" unicode="&#x2021;" horiz-adv-x="360" 
d="M173 549v48h14v-48h-14zM173 468v48h14v-48h-14zM173 386v48h14v-48h-14zM173 304v48h14v-48h-14zM173 222v48h14v-48h-14zM173 140v49h14v-49h-14zM173 59v48h14v-48h-14zM173 -23v48h14v-48h-14zM173 -105v48h14v-48h-14zM173 -187v48h14v-48h-14zM50 411v14h42v-14
h-42zM122 411v14h43v-14h-43zM195 411v14h42v-14h-42zM267 425h43v-14h-43v14zM50 -28v14h42v-14h-42zM122 -28v14h43v-14h-43zM195 -28v14h42v-14h-42zM267 -28v14h43v-14h-43z" />
    <glyph glyph-name="guilsinglleft" unicode="&#x2039;" horiz-adv-x="222" 
d="M141 2l-17 35l13 6l16 -35zM97 96l12 6l17 -35l-13 -6zM98 194l-16 -34l16 -34l-13 -6l-16 35l12 5l-12 6l16 34zM137 278l-13 5l17 35l12 -6zM113 259l13 -6l-17 -34l-12 6z" />
    <glyph glyph-name="guilsinglright" unicode="&#x203a;" horiz-adv-x="222" 
d="M98 37l-16 -35l-13 6l16 35zM113 102l13 -6l-17 -35l-12 6zM140 160l-16 34l13 6l16 -34l-12 -6l12 -5l-16 -35l-13 6zM98 283l-13 -5l-16 34l13 6zM97 253l12 6l17 -34l-13 -6z" />
    <glyph glyph-name="quotesinglbase" unicode="&#x201a;" horiz-adv-x="194" 
d="M113 29c-2 4 -6 7 -10 9l2 6c6 -2 11 -6 14 -11zM93 38c-5 0 -9 -3 -11 -7l-6 4c3 5 9 9 16 10zM82 9l-6 -4c-3 3 -5 8 -5 13v3v2l7 -1c0 -5 1 -10 4 -13zM105 -5h-2l8 -2l-4 -16l-14 4l3 13c-3 0 -7 1 -10 2l3 6c3 -1 5 -1 8 -1c2 0 4 0 6 1zM111 7c3 3 5 8 5 13h7
c0 -7 -2 -13 -7 -18zM84 -42l6 13l13 -4l-6 -15zM72 -65l7 13l13 -6l-8 -14z" />
    <glyph glyph-name="quotedblbase" unicode="&#x201e;" horiz-adv-x="261" 
d="M113 29c-2 4 -6 7 -10 9l2 6c6 -2 11 -6 14 -11zM93 38c-5 0 -9 -3 -11 -7l-6 4c3 5 9 9 16 10zM82 9l-6 -4c-3 3 -5 8 -5 13v3v2l7 -1c0 -5 1 -10 4 -13zM105 -5h-2l8 -2l-4 -16l-14 4l3 13c-3 0 -7 1 -10 2l3 6c3 -1 5 -1 8 -1c2 0 4 0 6 1zM111 7c3 3 5 8 5 13h7
c0 -7 -2 -13 -7 -18zM84 -42l6 13l13 -4l-6 -15zM72 -65l7 13l13 -6l-8 -14zM193 29c-2 4 -6 7 -10 9l2 6c6 -2 11 -6 14 -11zM173 38c-5 0 -9 -3 -11 -7l-6 4c3 5 9 9 16 10zM162 9l-6 -4c-3 3 -5 8 -5 13v3v2l7 -1c0 -5 1 -10 4 -13zM185 -5h-2l8 -2l-4 -16l-14 4l3 13
c-3 0 -7 1 -10 2l3 6c3 -1 5 -1 8 -1c2 0 4 0 6 1zM191 7c3 3 5 8 5 13h7c0 -7 -2 -13 -7 -18zM164 -42l6 13l13 -4l-6 -15zM152 -65l7 13l13 -6l-8 -14z" />
    <glyph glyph-name="perthousand" unicode="&#x2030;" horiz-adv-x="1031" 
d="M315 415c-4 -16 -6 -32 -13 -47l-13 6c6 13 9 28 12 43zM286 338c-9 -13 -20 -26 -34 -35l-8 11c13 8 22 20 30 32zM217 300l5 -14c-10 -2 -20 -4 -29 -4c-7 0 -14 1 -21 3l3 13c6 -1 12 -2 18 -2c8 0 16 2 24 4zM115 340c10 -11 20 -22 32 -30l-7 -12
c-14 9 -26 21 -36 34zM73 408l13 2c3 -14 8 -29 14 -43l-13 -5c-7 14 -12 30 -14 46zM86 487c-2 -11 -3 -23 -3 -34v-8v-3l-14 -1v2v10c0 12 1 24 4 36zM115 557c-8 -13 -15 -26 -20 -40l-13 5c5 15 13 30 22 43zM175 599c-14 -4 -27 -10 -38 -20l-9 11c12 11 28 19 44 23z
M252 595l-8 -12c-11 9 -25 15 -39 17l2 14c16 -2 32 -9 45 -19zM302 529l-13 -6c-5 15 -13 27 -22 39l10 9c10 -13 19 -27 25 -42zM304 449c-2 15 -1 30 -6 44l14 3c5 -15 4 -31 6 -47h-14zM623 71c6 14 9 29 12 44l14 -3c-4 -15 -6 -31 -13 -46zM578 12c13 8 22 19 30 32
l12 -8c-9 -14 -20 -27 -34 -36zM509 -4c6 -1 12 -2 18 -2c8 0 16 1 24 3l5 -13c-10 -3 -20 -4 -30 -4c-6 0 -13 1 -20 2zM449 38c9 -12 20 -23 32 -30l-7 -12c-14 9 -26 21 -36 34zM407 105l13 3c3 -15 7 -29 14 -43l-13 -6c-7 15 -12 30 -14 46zM420 184
c-2 -11 -3 -22 -3 -34v-7v-4h-14v2v9c0 12 1 25 4 37zM429 215l-13 5c5 15 13 29 22 43l11 -8c-8 -13 -16 -26 -20 -40zM471 277l-9 11c12 10 28 18 44 22l3 -13c-14 -4 -27 -11 -38 -20zM586 292l-8 -11c-11 9 -25 15 -39 16l2 14c16 -1 32 -9 45 -19zM636 226l-13 -5
c-5 14 -14 27 -23 39l11 8c10 -12 19 -26 25 -42zM632 191l14 3c4 -15 4 -32 6 -48h-14c-2 15 -2 30 -6 45zM217 6l21 46l13 -6l-22 -46zM253 84l22 46l13 -6l-22 -46zM290 162l22 45l13 -6l-22 -45zM327 239l22 46l13 -6l-22 -46zM364 317l22 46l13 -6l-22 -46zM436 434
l-22 -45l-13 6l22 45zM473 512l-22 -46l-13 6l22 46zM509 590l-21 -46l-13 6l22 46zM933 71c6 14 9 29 12 44l14 -3c-4 -15 -6 -31 -13 -46zM888 12c13 8 22 19 30 32l12 -8c-9 -14 -20 -27 -34 -36zM819 -4c6 -1 12 -2 18 -2c8 0 16 1 24 3l5 -13c-10 -3 -20 -4 -30 -4
c-6 0 -13 1 -20 2zM759 38c9 -12 20 -23 32 -30l-7 -12c-14 9 -26 21 -36 34zM717 105l13 3c3 -15 7 -29 14 -43l-13 -6c-7 15 -12 30 -14 46zM730 184c-2 -11 -3 -22 -3 -34v-7v-4h-14v2v9c0 12 1 25 4 37zM739 215l-13 5c5 15 13 29 22 43l11 -8c-8 -13 -16 -26 -20 -40z
M781 277l-9 11c12 10 28 18 44 22l3 -13c-14 -4 -27 -11 -38 -20zM896 292l-8 -11c-11 9 -25 15 -39 16l2 14c16 -1 32 -9 45 -19zM946 226l-13 -5c-5 14 -14 27 -23 39l11 8c10 -12 19 -26 25 -42zM942 191l14 3c4 -15 4 -32 6 -48h-14c-2 15 -2 30 -6 45z" />
    <glyph glyph-name="Acircumflex" unicode="&#xc2;" horiz-adv-x="550" 
d="M95 51l-16 -46l-13 4l15 47zM120 130l-15 -46l-13 4l15 47zM146 209l-15 -46l-13 4l15 46zM159 248l-2 -6l-13 4l15 46l13 -4l-11 -34h49v-14h-51v8zM198 367l-15 -47l-14 5l16 46zM224 446l-15 -47l-14 5l16 46zM250 525l-15 -47l-14 4l15 47zM460 5l-16 46l14 5l15 -47
zM434 84l-15 46l13 5l15 -47zM408 163l-15 46l13 4l15 -46zM378 254l-11 34l13 4l15 -46l-13 -4l-1 3v-5h-50v14h47zM356 320l-15 47l13 4l16 -46zM330 399l-15 47l13 4l16 -46zM305 478l-16 47l14 4l15 -46zM270 585l-10 -28l-13 4l15 47h15l15 -47l-13 -4zM295 254v-14
h-50v14h50zM221 754l13 -20l-12 -8l-13 21zM243 720l14 -20l-12 -8l-13 20zM340 747l-14 -21l-12 8l14 20zM292 700l13 20l12 -8l-14 -20zM274 673l8 13l12 -8l-13 -20l-7 4l-6 -4l-14 20l12 8z" />
    <glyph glyph-name="Ecircumflex" unicode="&#xca;" horiz-adv-x="431" 
d="M348 18v-14h-44v14h44zM273 18v-14h-45v14h45zM197 18v-14h-44v14h44zM122 18v-14h-51v53h14v-39h37zM85 134v-46h-14v46h14zM85 211v-45h-14v45h14zM85 288v-45h-14v45h14zM85 365v-45h-14v45h14zM85 442v-45h-14v45h14zM85 520v-46h-14v46h14zM85 590v-39h-14v53h51
v-14h-37zM197 604v-14h-44v14h44zM273 604v-14h-45v14h45zM348 604v-14h-44v14h44zM86 320v14h39v-14h-39zM192 334v-14h-39v14h39zM259 334v-14h-39v14h39zM151 754l13 -20l-12 -8l-13 21zM173 720l14 -20l-12 -8l-13 20zM270 747l-14 -21l-12 8l14 20zM222 700l13 20
l12 -8l-14 -20zM204 673l8 13l12 -8l-13 -20l-7 4l-6 -4l-14 20l12 8z" />
    <glyph glyph-name="Aacute" unicode="&#xc1;" horiz-adv-x="539" 
d="M95 51l-16 -46l-13 4l15 47zM120 130l-15 -46l-13 4l15 47zM146 209l-15 -46l-13 4l15 46zM159 248l-2 -6l-13 4l15 46l13 -4l-11 -34h49v-14h-51v8zM198 367l-15 -47l-14 5l16 46zM224 446l-15 -47l-14 5l16 46zM250 525l-15 -47l-14 4l15 47zM460 5l-16 46l14 5l15 -47
zM434 84l-15 46l13 5l15 -47zM408 163l-15 46l13 4l15 -46zM378 254l-11 34l13 4l15 -46l-13 -4l-1 3v-5h-50v14h47zM356 320l-15 47l13 4l16 -46zM330 399l-15 47l13 4l16 -46zM305 478l-16 47l14 4l15 -46zM270 585l-10 -28l-13 4l15 47h15l15 -47l-13 -4zM295 254v-14
h-50v14h50zM271 656l21 21l10 -10l-21 -21zM307 692l21 21l10 -10l-21 -21zM343 728l21 21l10 -10l-21 -21z" />
    <glyph glyph-name="Edieresis" unicode="&#xcb;" horiz-adv-x="431" 
d="M348 18v-14h-44v14h44zM273 18v-14h-45v14h45zM197 18v-14h-44v14h44zM122 18v-14h-51v53h14v-39h37zM85 134v-46h-14v46h14zM85 211v-45h-14v45h14zM85 288v-45h-14v45h14zM85 365v-45h-14v45h14zM85 442v-45h-14v45h14zM85 520v-46h-14v46h14zM85 590v-39h-14v53h51
v-14h-37zM197 604v-14h-44v14h44zM273 604v-14h-45v14h45zM348 604v-14h-44v14h44zM86 320v14h39v-14h-39zM192 334v-14h-39v14h39zM259 334v-14h-39v14h39zM197 701l-6 -3c-2 4 -6 7 -10 8l2 7c6 -2 11 -6 14 -12zM170 714l1 -7c-5 -1 -9 -4 -11 -8l-6 5c3 5 9 9 16 10z
M156 690c0 -4 1 -9 4 -13l-6 -4c-3 4 -5 9 -5 14v2v2zM167 671c2 -1 5 -2 7 -2h2c2 0 3 1 5 1l2 -6c-2 -1 -4 -2 -7 -2h-2c-3 0 -7 1 -10 2zM189 675c3 4 5 9 5 13h7c0 -6 -2 -12 -7 -17zM291 701l-6 -3c-2 4 -6 7 -11 8l2 7c6 -2 12 -6 15 -12zM263 714l2 -7
c-5 -1 -9 -4 -12 -8l-6 5c4 5 10 9 16 10zM250 690c-1 -4 0 -9 3 -13l-6 -4c-3 4 -4 9 -5 14v2l1 2zM260 671c3 -1 5 -2 8 -2h2c1 0 3 1 4 1l2 -6c-2 -1 -4 -2 -6 -2h-2c-4 0 -7 1 -10 2zM282 675c4 4 5 9 6 13h7c-1 -6 -3 -12 -7 -17z" />
    <glyph glyph-name="Egrave" unicode="&#xc8;" horiz-adv-x="431" 
d="M348 18v-14h-44v14h44zM273 18v-14h-45v14h45zM197 18v-14h-44v14h44zM122 18v-14h-51v53h14v-39h37zM85 134v-46h-14v46h14zM85 211v-45h-14v45h14zM85 288v-45h-14v45h14zM85 365v-45h-14v45h14zM85 442v-45h-14v45h14zM85 520v-46h-14v46h14zM85 590v-39h-14v53h51
v-14h-37zM197 604v-14h-44v14h44zM273 604v-14h-45v14h45zM348 604v-14h-44v14h44zM86 320v14h39v-14h-39zM192 334v-14h-39v14h39zM259 334v-14h-39v14h39zM231 685l21 -21l-10 -10l-21 21zM185 711l10 10l21 -21l-10 -10zM149 747l10 10l21 -22l-10 -9z" />
    <glyph glyph-name="Iacute" unicode="&#xcd;" horiz-adv-x="266" 
d="M114 541v42h-6v14h25v-14h-5v-42h-14zM128 505v-52h-14v52h14zM114 365v51h14v-51h-14zM114 277v51h14v-51h-14zM114 189v51h14v-51h-14zM114 100v52h14v-52h-14zM114 24v40h14v-40h5v-14h-25v14h6zM91 597v-14h-25v14h25zM176 597v-14h-25v14h25zM91 24v-14h-25v14h25z
M176 24v-14h-25v14h25zM71 656l21 21l10 -10l-21 -21zM107 692l21 21l10 -10l-21 -21zM143 728l21 21l10 -10l-21 -21z" />
    <glyph glyph-name="Icircumflex" unicode="&#xce;" horiz-adv-x="266" 
d="M114 541v42h-6v14h25v-14h-5v-42h-14zM128 505v-52h-14v52h14zM114 365v51h14v-51h-14zM114 277v51h14v-51h-14zM114 189v51h14v-51h-14zM114 100v52h14v-52h-14zM114 24v40h14v-40h5v-14h-25v14h6zM91 597v-14h-25v14h25zM176 597v-14h-25v14h25zM91 24v-14h-25v14h25z
M176 24v-14h-25v14h25zM71 744l13 -20l-12 -8l-13 21zM93 710l14 -20l-12 -8l-13 20zM190 737l-14 -21l-12 8l14 20zM142 690l13 20l12 -8l-14 -20zM124 663l8 13l12 -8l-13 -20l-7 4l-6 -4l-14 20l12 8z" />
    <glyph glyph-name="Idieresis" unicode="&#xcf;" horiz-adv-x="266" 
d="M114 541v42h-6v14h25v-14h-5v-42h-14zM128 505v-52h-14v52h14zM114 365v51h14v-51h-14zM114 277v51h14v-51h-14zM114 189v51h14v-51h-14zM114 100v52h14v-52h-14zM114 24v40h14v-40h5v-14h-25v14h6zM91 597v-14h-25v14h25zM176 597v-14h-25v14h25zM91 24v-14h-25v14h25z
M176 24v-14h-25v14h25zM107 691l-6 -3c-2 4 -6 7 -10 8l2 7c6 -2 11 -6 14 -12zM80 704l1 -7c-5 -1 -9 -4 -11 -8l-6 5c3 5 9 9 16 10zM66 680c0 -4 1 -9 4 -13l-6 -4c-3 4 -5 9 -5 14v2v2zM77 661c2 -1 5 -2 7 -2h2c2 0 3 1 5 1l2 -6c-2 -1 -4 -2 -7 -2h-2c-3 0 -7 1 -10 2
zM99 665c3 4 5 9 5 13h7c0 -6 -2 -12 -7 -17zM201 691l-6 -3c-2 4 -6 7 -11 8l2 7c6 -2 12 -6 15 -12zM173 704l2 -7c-5 -1 -9 -4 -12 -8l-6 5c4 5 10 9 16 10zM160 680c-1 -4 0 -9 3 -13l-6 -4c-3 4 -4 9 -5 14v2l1 2zM170 661c3 -1 5 -2 8 -2h2c1 0 3 1 4 1l2 -6
c-2 -1 -4 -2 -6 -2h-2c-4 0 -7 1 -10 2zM192 665c4 4 5 9 6 13h7c-1 -6 -3 -12 -7 -17z" />
    <glyph glyph-name="Igrave" unicode="&#xcc;" horiz-adv-x="266" 
d="M114 541v42h-6v14h25v-14h-5v-42h-14zM128 505v-52h-14v52h14zM114 365v51h14v-51h-14zM114 277v51h14v-51h-14zM114 189v51h14v-51h-14zM114 100v52h14v-52h-14zM114 24v40h14v-40h5v-14h-25v14h6zM91 597v-14h-25v14h25zM176 597v-14h-25v14h25zM91 24v-14h-25v14h25z
M176 24v-14h-25v14h25zM151 685l21 -21l-10 -10l-21 21zM105 711l10 10l21 -21l-10 -10zM69 747l10 10l21 -22l-10 -9z" />
    <glyph glyph-name="Oacute" unicode="&#xd3;" horiz-adv-x="531" 
d="M443 223c4 16 6 32 6 48l14 -1c-1 -16 -2 -33 -6 -49zM421 145l16 45l13 -3l-16 -47zM381 75c11 12 19 25 26 40l12 -7c-7 -15 -16 -29 -26 -42zM322 23c15 6 26 17 38 27l9 -10c-13 -11 -25 -23 -41 -29zM246 10c7 -1 14 -2 21 -2c8 0 17 1 25 3l3 -13
c-9 -3 -19 -4 -28 -4c-8 0 -16 1 -23 2zM168 35l9 11c11 -11 24 -20 39 -26l-6 -12c-16 6 -30 15 -42 27zM115 102l12 7c7 -15 17 -27 27 -40l-11 -9c-10 14 -21 26 -28 42zM83 180l13 4l16 -46l-13 -5zM82 264c1 -16 4 -32 7 -48l-14 -2c-3 16 -6 32 -7 49zM82 345
c0 -13 -2 -27 -2 -41v-7h-14v4v7c0 13 2 26 2 39zM96 426c-4 -16 -6 -32 -10 -47l-14 2c4 16 6 33 11 49zM127 501c-7 -15 -16 -28 -20 -43l-13 5c5 16 14 30 21 45zM177 564c-13 -10 -22 -23 -32 -35l-11 8c10 13 20 27 34 37zM246 600c-15 -3 -29 -10 -43 -17l-7 12
c15 8 31 16 48 18zM328 598l-6 -12c-14 7 -28 13 -44 14l2 14c17 -1 33 -7 48 -16zM381 534c-8 14 -20 25 -32 34l9 11c13 -10 25 -22 35 -36zM412 514c8 -15 17 -29 22 -44l-13 -6c-5 15 -14 29 -21 43zM443 386c-3 15 -4 32 -11 47l14 4c6 -16 7 -33 11 -49zM448 353l14 1
l3 -49h-14zM261 656l21 21l10 -10l-21 -21zM297 692l21 21l10 -10l-21 -21zM333 728l21 21l10 -10l-21 -21z" />
    <glyph glyph-name="Ocircumflex" unicode="&#xd4;" horiz-adv-x="542" 
d="M443 223c4 16 6 32 6 48l14 -1c-1 -16 -2 -33 -6 -49zM421 145l16 45l13 -3l-16 -47zM381 75c11 12 19 25 26 40l12 -7c-7 -15 -16 -29 -26 -42zM322 23c15 6 26 17 38 27l9 -10c-13 -11 -25 -23 -41 -29zM246 10c7 -1 14 -2 21 -2c8 0 17 1 25 3l3 -13
c-9 -3 -19 -4 -28 -4c-8 0 -16 1 -23 2zM168 35l9 11c11 -11 24 -20 39 -26l-6 -12c-16 6 -30 15 -42 27zM115 102l12 7c7 -15 17 -27 27 -40l-11 -9c-10 14 -21 26 -28 42zM83 180l13 4l16 -46l-13 -5zM82 264c1 -16 4 -32 7 -48l-14 -2c-3 16 -6 32 -7 49zM82 345
c0 -13 -2 -27 -2 -41v-7h-14v4v7c0 13 2 26 2 39zM96 426c-4 -16 -6 -32 -10 -47l-14 2c4 16 6 33 11 49zM127 501c-7 -15 -16 -28 -20 -43l-13 5c5 16 14 30 21 45zM177 564c-13 -10 -22 -23 -32 -35l-11 8c10 13 20 27 34 37zM246 600c-15 -3 -29 -10 -43 -17l-7 12
c15 8 31 16 48 18zM328 598l-6 -12c-14 7 -28 13 -44 14l2 14c17 -1 33 -7 48 -16zM381 534c-8 14 -20 25 -32 34l9 11c13 -10 25 -22 35 -36zM412 514c8 -15 17 -29 22 -44l-13 -6c-5 15 -14 29 -21 43zM443 386c-3 15 -4 32 -11 47l14 4c6 -16 7 -33 11 -49zM448 353l14 1
l3 -49h-14zM211 744l13 -20l-12 -8l-13 21zM233 710l14 -20l-12 -8l-13 20zM330 737l-14 -21l-12 8l14 20zM282 690l13 20l12 -8l-14 -20zM264 663l8 13l12 -8l-13 -20l-7 4l-6 -4l-14 20l12 8z" />
    <glyph glyph-name="Ograve" unicode="&#xd2;" horiz-adv-x="542" 
d="M443 223c4 16 6 32 6 48l14 -1c-1 -16 -2 -33 -6 -49zM421 145l16 45l13 -3l-16 -47zM381 75c11 12 19 25 26 40l12 -7c-7 -15 -16 -29 -26 -42zM322 23c15 6 26 17 38 27l9 -10c-13 -11 -25 -23 -41 -29zM246 10c7 -1 14 -2 21 -2c8 0 17 1 25 3l3 -13
c-9 -3 -19 -4 -28 -4c-8 0 -16 1 -23 2zM168 35l9 11c11 -11 24 -20 39 -26l-6 -12c-16 6 -30 15 -42 27zM115 102l12 7c7 -15 17 -27 27 -40l-11 -9c-10 14 -21 26 -28 42zM83 180l13 4l16 -46l-13 -5zM82 264c1 -16 4 -32 7 -48l-14 -2c-3 16 -6 32 -7 49zM82 345
c0 -13 -2 -27 -2 -41v-7h-14v4v7c0 13 2 26 2 39zM96 426c-4 -16 -6 -32 -10 -47l-14 2c4 16 6 33 11 49zM127 501c-7 -15 -16 -28 -20 -43l-13 5c5 16 14 30 21 45zM177 564c-13 -10 -22 -23 -32 -35l-11 8c10 13 20 27 34 37zM246 600c-15 -3 -29 -10 -43 -17l-7 12
c15 8 31 16 48 18zM328 598l-6 -12c-14 7 -28 13 -44 14l2 14c17 -1 33 -7 48 -16zM381 534c-8 14 -20 25 -32 34l9 11c13 -10 25 -22 35 -36zM412 514c8 -15 17 -29 22 -44l-13 -6c-5 15 -14 29 -21 43zM443 386c-3 15 -4 32 -11 47l14 4c6 -16 7 -33 11 -49zM448 353l14 1
l3 -49h-14zM261 695l21 -21l-10 -10l-21 21zM215 721l10 10l21 -21l-10 -10zM179 757l10 10l21 -22l-10 -9z" />
    <glyph glyph-name="Uacute" unicode="&#xda;" horiz-adv-x="495" 
d="M71 554v47h14v-47h-14zM71 474v47h14v-47h-14zM71 394v47h14v-47h-14zM71 314v47h14v-47h-14zM71 234v47h14v-47h-14zM71 154v13v34h14v-46zM75 120l14 3c5 -14 7 -29 16 -41l-12 -7c-10 13 -13 30 -18 45zM113 47l10 10c9 -12 23 -19 35 -27l-6 -13c-14 9 -29 17 -39 30
zM232 11l-1 -14c-16 0 -32 4 -47 8l4 13c14 -3 29 -7 44 -7zM265 -3l-1 14c15 0 30 4 45 7l4 -14c-16 -3 -32 -7 -48 -7zM338 29c13 8 26 16 35 27l11 -9c-11 -13 -26 -21 -39 -30zM421 120c-6 -15 -7 -32 -17 -45l-12 6c9 13 10 28 15 42zM424 154l-14 1c1 15 0 31 0 46h14
v-35v-12zM410 234v47h14v-47h-14zM424 361v-47h-14v47h14zM424 441v-47h-14v47h14zM424 521v-47h-14v47h14zM424 601v-47h-14v47h14zM211 656l21 21l10 -10l-21 -21zM247 692l21 21l10 -10l-21 -21zM283 728l21 21l10 -10l-21 -21z" />
    <glyph glyph-name="Ucircumflex" unicode="&#xdb;" horiz-adv-x="505" 
d="M71 554v47h14v-47h-14zM71 474v47h14v-47h-14zM71 394v47h14v-47h-14zM71 314v47h14v-47h-14zM71 234v47h14v-47h-14zM71 154v13v34h14v-46zM75 120l14 3c5 -14 7 -29 16 -41l-12 -7c-10 13 -13 30 -18 45zM113 47l10 10c9 -12 23 -19 35 -27l-6 -13c-14 9 -29 17 -39 30
zM232 11l-1 -14c-16 0 -32 4 -47 8l4 13c14 -3 29 -7 44 -7zM265 -3l-1 14c15 0 30 4 45 7l4 -14c-16 -3 -32 -7 -48 -7zM338 29c13 8 26 16 35 27l11 -9c-11 -13 -26 -21 -39 -30zM421 120c-6 -15 -7 -32 -17 -45l-12 6c9 13 10 28 15 42zM424 154l-14 1c1 15 0 31 0 46h14
v-35v-12zM410 234v47h14v-47h-14zM424 361v-47h-14v47h14zM424 441v-47h-14v47h14zM424 521v-47h-14v47h14zM424 601v-47h-14v47h14zM191 754l13 -20l-12 -8l-13 21zM213 720l14 -20l-12 -8l-13 20zM310 747l-14 -21l-12 8l14 20zM262 700l13 20l12 -8l-14 -20zM244 673
l8 13l12 -8l-13 -20l-7 4l-6 -4l-14 20l12 8z" />
    <glyph glyph-name="Ugrave" unicode="&#xd9;" horiz-adv-x="505" 
d="M71 554v47h14v-47h-14zM71 474v47h14v-47h-14zM71 394v47h14v-47h-14zM71 314v47h14v-47h-14zM71 234v47h14v-47h-14zM71 154v13v34h14v-46zM75 120l14 3c5 -14 7 -29 16 -41l-12 -7c-10 13 -13 30 -18 45zM113 47l10 10c9 -12 23 -19 35 -27l-6 -13c-14 9 -29 17 -39 30
zM232 11l-1 -14c-16 0 -32 4 -47 8l4 13c14 -3 29 -7 44 -7zM265 -3l-1 14c15 0 30 4 45 7l4 -14c-16 -3 -32 -7 -48 -7zM338 29c13 8 26 16 35 27l11 -9c-11 -13 -26 -21 -39 -30zM421 120c-6 -15 -7 -32 -17 -45l-12 6c9 13 10 28 15 42zM424 154l-14 1c1 15 0 31 0 46h14
v-35v-12zM410 234v47h14v-47h-14zM424 361v-47h-14v47h14zM424 441v-47h-14v47h14zM424 521v-47h-14v47h14zM424 601v-47h-14v47h14zM261 675l21 -21l-10 -10l-21 21zM215 701l10 10l21 -21l-10 -10zM179 737l10 10l21 -22l-10 -9z" />
    <glyph glyph-name="Agrave" unicode="&#xc0;" horiz-adv-x="550" 
d="M95 51l-16 -46l-13 4l15 47zM120 130l-15 -46l-13 4l15 47zM146 209l-15 -46l-13 4l15 46zM159 248l-2 -6l-13 4l15 46l13 -4l-11 -34h49v-14h-51v8zM198 367l-15 -47l-14 5l16 46zM224 446l-15 -47l-14 5l16 46zM250 525l-15 -47l-14 4l15 47zM460 5l-16 46l14 5l15 -47
zM434 84l-15 46l13 5l15 -47zM408 163l-15 46l13 4l15 -46zM378 254l-11 34l13 4l15 -46l-13 -4l-1 3v-5h-50v14h47zM356 320l-15 47l13 4l16 -46zM330 399l-15 47l13 4l16 -46zM305 478l-16 47l14 4l15 -46zM270 585l-10 -28l-13 4l15 47h15l15 -47l-13 -4zM295 254v-14
h-50v14h50zM251 695l21 -21l-10 -10l-21 21zM205 721l10 10l21 -21l-10 -10zM169 757l10 10l21 -22l-10 -9z" />
    <glyph glyph-name="Atilde" unicode="&#xc3;" horiz-adv-x="550" 
d="M95 51l-16 -46l-13 4l15 47zM120 130l-15 -46l-13 4l15 47zM146 209l-15 -46l-13 4l15 46zM159 248l-2 -6l-13 4l15 46l13 -4l-11 -34h49v-14h-51v8zM198 367l-15 -47l-14 5l16 46zM224 446l-15 -47l-14 5l16 46zM250 525l-15 -47l-14 4l15 47zM460 5l-16 46l14 5l15 -47
zM434 84l-15 46l13 5l15 -47zM408 163l-15 46l13 4l15 -46zM378 254l-11 34l13 4l15 -46l-13 -4l-1 3v-5h-50v14h47zM356 320l-15 47l13 4l16 -46zM330 399l-15 47l13 4l16 -46zM305 478l-16 47l14 4l15 -46zM270 585l-10 -28l-13 4l15 47h15l15 -47l-13 -4zM295 254v-14
h-50v14h50zM179 665c1 18 3 35 10 51l13 -6c-6 -14 -8 -30 -9 -45h-14zM218 742h6c17 0 32 -12 41 -26l-12 -8c-6 10 -16 21 -29 20h-4zM284 688c6 -9 16 -18 28 -18c2 0 4 0 5 1l3 -14c-2 0 -5 -1 -8 -1c-16 0 -31 11 -39 24zM334 690c6 14 7 30 7 45h14
c0 -17 -2 -34 -8 -50z" />
    <glyph glyph-name="Otilde" unicode="&#xd5;" horiz-adv-x="542" 
d="M443 223c4 16 6 32 6 48l14 -1c-1 -16 -2 -33 -6 -49zM421 145l16 45l13 -3l-16 -47zM381 75c11 12 19 25 26 40l12 -7c-7 -15 -16 -29 -26 -42zM322 23c15 6 26 17 38 27l9 -10c-13 -11 -25 -23 -41 -29zM246 10c7 -1 14 -2 21 -2c8 0 17 1 25 3l3 -13
c-9 -3 -19 -4 -28 -4c-8 0 -16 1 -23 2zM168 35l9 11c11 -11 24 -20 39 -26l-6 -12c-16 6 -30 15 -42 27zM115 102l12 7c7 -15 17 -27 27 -40l-11 -9c-10 14 -21 26 -28 42zM83 180l13 4l16 -46l-13 -5zM82 264c1 -16 4 -32 7 -48l-14 -2c-3 16 -6 32 -7 49zM82 345
c0 -13 -2 -27 -2 -41v-7h-14v4v7c0 13 2 26 2 39zM96 426c-4 -16 -6 -32 -10 -47l-14 2c4 16 6 33 11 49zM127 501c-7 -15 -16 -28 -20 -43l-13 5c5 16 14 30 21 45zM177 564c-13 -10 -22 -23 -32 -35l-11 8c10 13 20 27 34 37zM246 600c-15 -3 -29 -10 -43 -17l-7 12
c15 8 31 16 48 18zM328 598l-6 -12c-14 7 -28 13 -44 14l2 14c17 -1 33 -7 48 -16zM381 534c-8 14 -20 25 -32 34l9 11c13 -10 25 -22 35 -36zM412 514c8 -15 17 -29 22 -44l-13 -6c-5 15 -14 29 -21 43zM443 386c-3 15 -4 32 -11 47l14 4c6 -16 7 -33 11 -49zM448 353l14 1
l3 -49h-14zM169 665c1 18 3 35 10 51l13 -6c-6 -14 -8 -30 -9 -45h-14zM208 742h6c17 0 32 -12 41 -26l-12 -8c-6 10 -16 21 -29 20h-4zM274 688c6 -9 16 -18 28 -18c2 0 4 0 5 1l3 -14c-2 0 -5 -1 -8 -1c-16 0 -31 11 -39 24zM324 690c6 14 7 30 7 45h14
c0 -17 -2 -34 -8 -50z" />
    <glyph glyph-name="OE" unicode="&#x152;" horiz-adv-x="797" 
d="M423 119l-13 7c8 14 15 29 19 44l14 -5c-5 -16 -12 -31 -20 -46zM372 51l-9 10c13 9 20 24 30 36l12 -8c-11 -12 -19 -28 -33 -38zM298 8l-4 14c16 2 29 12 43 18l8 -12c-16 -6 -30 -17 -47 -20zM212 19l6 12c13 -7 29 -11 44 -12v-14c-18 1 -35 5 -50 14zM145 72l11 9
c9 -14 22 -23 34 -33l-9 -11c-12 11 -26 21 -36 35zM124 100l-23 45l13 5l22 -42zM78 226l14 3c3 -16 5 -32 11 -47l-13 -4c-6 15 -9 32 -12 48zM69 310h14l3 -48l-14 -1zM76 394l14 -2c-4 -16 -4 -32 -5 -48l-14 1c1 17 1 33 5 49zM98 476l13 -5c-5 -15 -11 -30 -15 -46
l-13 4c3 16 10 31 15 47zM139 551l11 -9c-10 -12 -18 -26 -25 -40l-12 6c7 15 15 30 26 43zM172 567l-10 10c13 11 24 25 41 30l6 -12c-15 -5 -25 -18 -37 -28zM239 608l-3 13c9 3 18 5 28 5h6c6 0 12 -1 17 -2l-2 -13c-15 1 -31 1 -46 -3zM316 601l5 13
c16 -7 31 -15 43 -27l-9 -11c-11 11 -25 19 -39 25zM379 553l10 9c10 -14 22 -26 29 -42l-12 -7c-7 15 -18 27 -27 40zM451 398v44l-13 -4l-17 46l13 5l17 -46h14v-45h-14zM728 5h-46v14h46v-14zM650 5h-45v14h45v-14zM573 5h-45v14h45v-14zM451 57h14v-38h31v-14h-45v7v45z
M465 89h-14v45h14v-45zM465 289v-46h-2l-7 -31h9v-46h-14v33l-11 3l10 47h1v40h14zM451 366h14v-46h-14v46zM451 520h14v-45h-14v45zM497 590h-32v-38h-14v45v0v7h46v-14zM574 590h-46v14h46v-14zM651 590h-46v14h46v-14zM728 590h-46v14h46v-14zM505 320h-39v14h39v-14z
M533 320v14h39v-14h-39zM600 334h39v-14h-39v14z" />
    <glyph glyph-name="oe" unicode="&#x153;" horiz-adv-x="739" 
d="M300 16l-7 11c12 9 24 19 34 31l11 -9c-11 -13 -24 -24 -38 -33zM217 -6l1 14c15 -1 31 1 45 6l4 -13c-14 -5 -29 -7 -44 -7h-6zM136 22l9 11c13 -8 26 -16 41 -20l-4 -13c-17 4 -31 13 -46 22zM84 90l13 5c6 -14 14 -27 24 -39l-11 -9c-11 13 -20 27 -26 43zM70 174
l14 -1c-3 -16 1 -31 3 -47l-14 -3c-2 13 -4 25 -4 38c0 4 0 8 1 13zM96 255l12 -8c-7 -13 -15 -27 -18 -42l-14 4c4 16 12 31 20 46zM160 312l6 -12c-14 -8 -27 -16 -37 -27l-10 9c12 13 26 22 41 30zM245 325l-3 -14c-15 3 -30 1 -46 -1l-2 14c10 1 21 3 32 3
c6 0 12 -1 19 -2zM322 288l-10 -10c-11 10 -24 19 -39 25l6 12c15 -6 30 -15 43 -27zM368 217l-13 -5c-5 15 -12 29 -21 42l11 8c10 -14 18 -30 23 -45zM614 27l-8 11c14 7 20 22 31 33l12 -7c-12 -13 -19 -29 -35 -37zM535 -4l-1 14c15 1 30 7 44 12l6 -13
c-16 -6 -32 -12 -49 -13zM451 10l7 13c14 -6 28 -12 43 -13l-1 -14c-17 1 -33 8 -49 14zM389 68l11 7c10 -12 19 -25 31 -34l-9 -11c-13 10 -24 24 -33 38zM363 149l14 1c0 -16 5 -31 9 -46l-13 -4l-3 11c-3 -11 -7 -22 -13 -32l-12 6c7 14 12 29 15 44l6 -1
c-2 7 -3 14 -3 21zM378 182l-14 2c1 17 7 33 13 48l13 -5c-6 -15 -11 -29 -12 -45zM406 255l-11 8c9 14 22 25 34 36l9 -11c-12 -10 -24 -20 -32 -33zM466 304l-6 13c16 6 33 10 50 11l1 -14c-16 -1 -31 -4 -45 -10zM542 311l3 14c17 -5 33 -9 47 -19l-7 -12
c-13 9 -28 13 -43 17zM650 244l-13 -7c-6 14 -16 26 -27 37l10 10c12 -12 23 -25 30 -40zM670 168v-14h-48v14h34c-1 13 -2 27 -7 39l14 4c5 -14 6 -28 7 -43zM588 154h-49v14h49v-14zM505 154h-48v14h48v-14zM423 154h-49v14h49v-14z" />
    <glyph glyph-name="endash" unicode="&#x2013;" horiz-adv-x="454" 
d="M121 319h-52v14h52v-14zM209 319h-52v14h52v-14zM297 319h-52v14h52v-14zM385 319h-52v14h52v-14z" />
    <glyph glyph-name="emdash" unicode="&#x2014;" horiz-adv-x="570" 
d="M114 319h-45v14h45v-14zM192 319h-46v14h46v-14zM269 319h-45v14h45v-14zM346 319h-45v14h45v-14zM423 319h-45v14h45v-14zM501 319h-46v14h46v-14z" />
    <glyph glyph-name="quotedblleft" unicode="&#x201c;" horiz-adv-x="261" 
d="M161 534c2 -4 6 -7 10 -9l-2 -7c-6 2 -11 7 -14 12zM181 525c5 0 9 3 12 7l5 -4c-3 -5 -9 -9 -15 -10zM193 554l5 4c3 -3 5 -9 5 -13v-3v-2l-7 1c1 5 0 10 -3 13zM169 568h3l-9 2l5 16l13 -4l-3 -13c3 0 7 -1 10 -2l-3 -6c-2 0 -5 1 -8 1c-2 0 -4 0 -6 -1zM163 556
c-3 -4 -4 -8 -5 -13h-7c1 7 3 13 7 18zM190 605l-6 -14l-13 5l6 15zM202 628l-7 -13l-13 6l8 14zM81 534c2 -4 6 -7 10 -9l-2 -7c-6 2 -11 7 -14 12zM101 525c5 0 9 3 12 7l5 -4c-3 -5 -9 -9 -15 -10zM113 554l5 4c3 -3 5 -9 5 -13v-3v-2l-7 1c1 5 0 10 -3 13zM89 568h3
l-9 2l5 16l13 -4l-3 -13c3 0 7 -1 10 -2l-3 -6c-2 0 -5 1 -8 1c-2 0 -4 0 -6 -1zM83 556c-3 -4 -4 -8 -5 -13h-7c1 7 3 13 7 18zM110 605l-6 -14l-13 5l6 15zM122 628l-7 -13l-13 6l8 14z" />
    <glyph glyph-name="quotedblright" unicode="&#x201d;" horiz-adv-x="261" 
d="M113 619c-2 4 -6 7 -10 9l2 6c6 -2 11 -6 14 -11zM93 628c-5 0 -9 -3 -11 -7l-6 4c3 5 9 9 16 10zM82 599l-6 -4c-3 3 -5 8 -5 13v3v2l7 -1c0 -5 1 -10 4 -13zM105 585h-2l8 -2l-4 -16l-14 4l3 13c-3 0 -7 1 -10 2l3 6c3 -1 5 -1 8 -1c2 0 4 0 6 1zM111 597c3 3 5 8 5 13
h7c0 -7 -2 -13 -7 -18zM84 548l6 13l13 -4l-6 -15zM72 525l7 13l13 -6l-8 -14zM193 619c-2 4 -6 7 -10 9l2 6c6 -2 11 -6 14 -11zM173 628c-5 0 -9 -3 -11 -7l-6 4c3 5 9 9 16 10zM162 599l-6 -4c-3 3 -5 8 -5 13v3v2l7 -1c0 -5 1 -10 4 -13zM185 585h-2l8 -2l-4 -16l-14 4
l3 13c-3 0 -7 1 -10 2l3 6c3 -1 5 -1 8 -1c2 0 4 0 6 1zM191 597c3 3 5 8 5 13h7c0 -7 -2 -13 -7 -18zM164 548l6 13l13 -4l-6 -15zM152 525l7 13l13 -6l-8 -14z" />
    <glyph glyph-name="quoteleft" unicode="&#x2018;" horiz-adv-x="197" 
d="M81 534c2 -4 6 -7 10 -9l-2 -7c-6 2 -11 7 -14 12zM101 525c5 0 9 3 12 7l5 -4c-3 -5 -9 -9 -15 -10zM113 554l5 4c3 -3 5 -9 5 -13v-3v-2l-7 1c1 5 0 10 -3 13zM89 568h3l-9 2l5 16l13 -4l-3 -13c3 0 7 -1 10 -2l-3 -6c-2 0 -5 1 -8 1c-2 0 -4 0 -6 -1zM83 556
c-3 -4 -4 -8 -5 -13h-7c1 7 3 13 7 18zM110 605l-6 -14l-13 5l6 15zM122 628l-7 -13l-13 6l8 14z" />
    <glyph glyph-name="quoteright" unicode="&#x2019;" horiz-adv-x="177" 
d="M113 619c-2 4 -6 7 -10 9l2 6c6 -2 11 -6 14 -11zM93 628c-5 0 -9 -3 -11 -7l-6 4c3 5 9 9 16 10zM82 599l-6 -4c-3 3 -5 8 -5 13v3v2l7 -1c0 -5 1 -10 4 -13zM105 585h-2l8 -2l-4 -16l-14 4l3 13c-3 0 -7 1 -10 2l3 6c3 -1 5 -1 8 -1c2 0 4 0 6 1zM111 597c3 3 5 8 5 13
h7c0 -7 -2 -13 -7 -18zM84 548l6 13l13 -4l-6 -15zM72 525l7 13l13 -6l-8 -14z" />
    <glyph glyph-name="divide" unicode="&#xf7;" horiz-adv-x="337" 
d="M69 321v14h45v-14h-45zM146 321v14h45v-14h-45zM223 321v14h45v-14h-45zM191 279l-6 -3c-2 4 -6 7 -11 9l2 6c6 -2 12 -6 15 -12zM163 292l2 -7c-5 0 -9 -3 -12 -7l-6 4c4 5 10 9 16 10zM150 269c-1 -5 0 -10 3 -13l-6 -5c-3 4 -5 9 -5 14v3l1 1h7zM160 249
c3 -1 5 -1 8 -1h2c1 0 3 0 4 1l2 -7c-2 -1 -4 -1 -6 -1h-2c-4 0 -7 1 -10 2zM182 254c4 3 5 8 6 13h7c-1 -7 -3 -13 -7 -18zM191 402l-6 -4c-2 4 -6 7 -11 9l2 7c6 -2 12 -7 15 -12zM147 404c4 5 10 10 16 10l2 -7c-5 0 -9 -3 -12 -7zM143 392l7 -1c-1 -5 0 -10 3 -13l-6 -4
c-3 3 -5 9 -5 14v2zM160 371c3 0 5 -1 8 -1h2c1 0 3 0 4 1l2 -7c-2 0 -4 -1 -6 -1h-2c-4 0 -7 1 -10 2zM182 376c4 4 5 8 6 13h7c-1 -6 -3 -13 -7 -18z" />
    <glyph glyph-name="Adieresis" unicode="&#xc4;" horiz-adv-x="550" 
d="M95 51l-16 -46l-13 4l15 47zM120 130l-15 -46l-13 4l15 47zM146 209l-15 -46l-13 4l15 46zM159 248l-2 -6l-13 4l15 46l13 -4l-11 -34h49v-14h-51v8zM198 367l-15 -47l-14 5l16 46zM224 446l-15 -47l-14 5l16 46zM250 525l-15 -47l-14 4l15 47zM460 5l-16 46l14 5l15 -47
zM434 84l-15 46l13 5l15 -47zM408 163l-15 46l13 4l15 -46zM378 254l-11 34l13 4l15 -46l-13 -4l-1 3v-5h-50v14h47zM356 320l-15 47l13 4l16 -46zM330 399l-15 47l13 4l16 -46zM305 478l-16 47l14 4l15 -46zM270 585l-10 -28l-13 4l15 47h15l15 -47l-13 -4zM295 254v-14
h-50v14h50zM237 691l-6 -3c-2 4 -6 7 -10 8l2 7c6 -2 11 -6 14 -12zM210 704l1 -7c-5 -1 -9 -4 -11 -8l-6 5c3 5 9 9 16 10zM196 680c0 -4 1 -9 4 -13l-6 -4c-3 4 -5 9 -5 14v2v2zM207 661c2 -1 5 -2 7 -2h2c2 0 3 1 5 1l2 -6c-2 -1 -4 -2 -7 -2h-2c-3 0 -7 1 -10 2z
M229 665c3 4 5 9 5 13h7c0 -6 -2 -12 -7 -17zM331 691l-6 -3c-2 4 -6 7 -11 8l2 7c6 -2 12 -6 15 -12zM303 704l2 -7c-5 -1 -9 -4 -12 -8l-6 5c4 5 10 9 16 10zM290 680c-1 -4 0 -9 3 -13l-6 -4c-3 4 -4 9 -5 14v2l1 2zM300 661c3 -1 5 -2 8 -2h2c1 0 3 1 4 1l2 -6
c-2 -1 -4 -2 -6 -2h-2c-4 0 -7 1 -10 2zM322 665c4 4 5 9 6 13h7c-1 -6 -3 -12 -7 -17z" />
    <glyph glyph-name="Aring" unicode="&#xc5;" horiz-adv-x="550" 
d="M230 621c11 -7 24 -10 37 -10h8v-3h2l15 -47l-13 -4l-9 28l-10 -28l-13 4l11 36c-12 1 -25 5 -35 12zM159 248l-2 -6l-13 4l15 46l13 -4l-11 -34h49v-14h-51v8zM378 254l-11 34l13 4l15 -46l-13 -4l-1 3v-5h-50v14h47zM250 525l-15 -47l-14 4l15 47zM223 763l7 -12
c-13 -8 -24 -20 -30 -34l-13 6c7 17 21 30 36 40zM295 254v-14h-50v14h50zM305 751c-11 7 -24 10 -36 10c-3 0 -5 0 -8 -1l-1 14c3 1 6 1 9 1c15 0 30 -4 43 -12zM179 686h14c0 -16 5 -31 14 -44l-12 -8c-10 16 -15 34 -16 52zM224 446l-15 -47l-14 5l16 46zM460 5l-16 46
l14 5l15 -47zM95 51l-16 -46l-13 4l15 47zM198 367l-15 -47l-14 5l16 46zM356 320l-15 47l13 4l16 -46zM330 399l-15 47l13 4l16 -46zM305 478l-16 47l14 4l15 -46zM357 686h-14c-1 15 -5 30 -14 43l11 8c11 -15 16 -33 17 -51zM305 621c13 8 25 19 31 33l12 -5
c-7 -17 -20 -31 -36 -40zM120 130l-15 -46l-13 4l15 47zM434 84l-15 46l13 5l15 -47zM146 209l-15 -46l-13 4l15 46zM408 163l-15 46l13 4l15 -46z" />
    <glyph glyph-name="Ccedilla" unicode="&#xc7;" horiz-adv-x="509" 
d="M275 -5l-3 -16l-14 2l3 17l7 -1v12c15 1 31 2 45 11l5 -13c-14 -8 -29 -11 -44 -12h1zM301 -60c-15 -4 -29 -12 -41 -20l-4 5l-7 1l3 17l13 -3c10 5 21 10 32 14zM432 478l-13 -6l-23 43l12 8zM387 60c-9 -15 -25 -24 -37 -36l-8 12c11 11 26 19 34 33zM167 55l-10 -10
c-12 11 -21 26 -32 39l12 8c10 -12 19 -26 30 -37zM235 13l-3 -14c-17 5 -32 14 -47 22l8 12c14 -7 27 -16 42 -20zM167 556c-11 -11 -20 -25 -30 -37l-12 8c11 13 20 27 32 39zM318 604l-5 -13c-14 8 -30 9 -45 11v14c17 -2 35 -3 50 -12zM81 281l-14 -1c0 8 -1 15 -1 22v6
c0 8 1 15 1 22h14c0 -7 -1 -14 -1 -21v-7c0 -7 1 -14 1 -21zM376 542c-8 14 -23 22 -34 33l8 11c12 -11 28 -20 37 -35zM432 133l-24 -45l-12 7l23 43zM121 489c-9 -14 -13 -29 -19 -45l-13 5c6 16 11 32 19 46zM235 598c-15 -5 -28 -13 -42 -20l-8 11c15 9 30 17 47 22z
M70 245l13 2l10 -48l-14 -3zM93 412l-10 -48l-13 2l9 49zM121 122l-13 -7c-8 15 -13 31 -19 47l13 4c6 -15 10 -31 19 -44zM262 -145c15 2 28 11 39 20l9 -11c-14 -11 -29 -20 -46 -23zM324 -64l11 9c5 -7 7 -15 7 -23c0 -11 -4 -21 -9 -30l-12 7c4 7 7 15 7 23
c0 5 -1 10 -4 14zM254 -46l2 16l14 -2l-3 -16z" />
    <glyph glyph-name="Eacute" unicode="&#xc9;" horiz-adv-x="414" 
d="M348 18v-14h-44v14h44zM273 18v-14h-45v14h45zM197 18v-14h-44v14h44zM122 18v-14h-51v53h14v-39h37zM85 134v-46h-14v46h14zM85 211v-45h-14v45h14zM85 288v-45h-14v45h14zM85 365v-45h-14v45h14zM85 442v-45h-14v45h14zM85 520v-46h-14v46h14zM85 590v-39h-14v53h51
v-14h-37zM197 604v-14h-44v14h44zM273 604v-14h-45v14h45zM348 604v-14h-44v14h44zM86 320v14h39v-14h-39zM192 334v-14h-39v14h39zM259 334v-14h-39v14h39zM171 656l21 21l10 -10l-21 -21zM207 692l21 21l10 -10l-21 -21zM243 728l21 21l10 -10l-21 -21z" />
    <glyph glyph-name="Ntilde" unicode="&#xd1;" horiz-adv-x="458" 
d="M71 8v45h14v-45h-14zM71 85v46h14v-46h-14zM71 163v46h14v-46h-14zM71 241v46h14v-46h-14zM71 319v45h14v-45h-14zM71 396v46h14v-46h-14zM71 474v46h14v-46h-14zM85 600v-1l22 -44l-13 -6l-9 21v-18h-14v48h14zM123 523l22 -45l-12 -6l-23 45zM184 400l-13 -6l-22 46
l12 6zM222 323l-12 -6l-23 45l13 7zM261 246l-13 -7l-22 46l12 6zM299 168l-12 -6l-23 46l13 6zM338 91l-13 -6l-22 45l12 6zM363 8v1l-22 44l13 6l9 -21v18h14v-48h-14zM377 134v-46h-14v46h14zM377 212v-46h-14v46h14zM377 289v-45h-14v45h14zM377 367v-46h-14v46h14z
M377 445v-46h-14v46h14zM377 523v-46h-14v46h14zM377 600v-45h-14v45h14zM139 655c1 18 3 35 10 51l13 -6c-6 -14 -8 -30 -9 -45h-14zM178 732h6c17 0 32 -12 41 -26l-12 -8c-6 10 -16 21 -29 20h-4zM244 678c6 -9 16 -18 28 -18c2 0 4 0 5 1l3 -14c-2 0 -5 -1 -8 -1
c-16 0 -31 11 -39 24zM294 680c6 14 7 30 7 45h14c0 -17 -2 -34 -8 -50z" />
    <glyph glyph-name="Odieresis" unicode="&#xd6;" horiz-adv-x="542" 
d="M443 223c4 16 6 32 6 48l14 -1c-1 -16 -2 -33 -6 -49zM421 145l16 45l13 -3l-16 -47zM381 75c11 12 19 25 26 40l12 -7c-7 -15 -16 -29 -26 -42zM322 23c15 6 26 17 38 27l9 -10c-13 -11 -25 -23 -41 -29zM246 10c7 -1 14 -2 21 -2c8 0 17 1 25 3l3 -13
c-9 -3 -19 -4 -28 -4c-8 0 -16 1 -23 2zM168 35l9 11c11 -11 24 -20 39 -26l-6 -12c-16 6 -30 15 -42 27zM115 102l12 7c7 -15 17 -27 27 -40l-11 -9c-10 14 -21 26 -28 42zM83 180l13 4l16 -46l-13 -5zM82 264c1 -16 4 -32 7 -48l-14 -2c-3 16 -6 32 -7 49zM82 345
c0 -13 -2 -27 -2 -41v-7h-14v4v7c0 13 2 26 2 39zM96 426c-4 -16 -6 -32 -10 -47l-14 2c4 16 6 33 11 49zM127 501c-7 -15 -16 -28 -20 -43l-13 5c5 16 14 30 21 45zM177 564c-13 -10 -22 -23 -32 -35l-11 8c10 13 20 27 34 37zM246 600c-15 -3 -29 -10 -43 -17l-7 12
c15 8 31 16 48 18zM328 598l-6 -12c-14 7 -28 13 -44 14l2 14c17 -1 33 -7 48 -16zM381 534c-8 14 -20 25 -32 34l9 11c13 -10 25 -22 35 -36zM412 514c8 -15 17 -29 22 -44l-13 -6c-5 15 -14 29 -21 43zM443 386c-3 15 -4 32 -11 47l14 4c6 -16 7 -33 11 -49zM448 353l14 1
l3 -49h-14zM237 691l-6 -3c-2 4 -6 7 -10 8l2 7c6 -2 11 -6 14 -12zM210 704l1 -7c-5 -1 -9 -4 -11 -8l-6 5c3 5 9 9 16 10zM196 680c0 -4 1 -9 4 -13l-6 -4c-3 4 -5 9 -5 14v2v2zM207 661c2 -1 5 -2 7 -2h2c2 0 3 1 5 1l2 -6c-2 -1 -4 -2 -7 -2h-2c-3 0 -7 1 -10 2z
M229 665c3 4 5 9 5 13h7c0 -6 -2 -12 -7 -17zM331 691l-6 -3c-2 4 -6 7 -11 8l2 7c6 -2 12 -6 15 -12zM303 704l2 -7c-5 -1 -9 -4 -12 -8l-6 5c4 5 10 9 16 10zM290 680c-1 -4 0 -9 3 -13l-6 -4c-3 4 -4 9 -5 14v2l1 2zM300 661c3 -1 5 -2 8 -2h2c1 0 3 1 4 1l2 -6
c-2 -1 -4 -2 -6 -2h-2c-4 0 -7 1 -10 2zM322 665c4 4 5 9 6 13h7c-1 -6 -3 -12 -7 -17z" />
    <glyph glyph-name="Udieresis" unicode="&#xdc;" horiz-adv-x="505" 
d="M71 554v47h14v-47h-14zM71 474v47h14v-47h-14zM71 394v47h14v-47h-14zM71 314v47h14v-47h-14zM71 234v47h14v-47h-14zM71 154v13v34h14v-46zM75 120l14 3c5 -14 7 -29 16 -41l-12 -7c-10 13 -13 30 -18 45zM113 47l10 10c9 -12 23 -19 35 -27l-6 -13c-14 9 -29 17 -39 30
zM232 11l-1 -14c-16 0 -32 4 -47 8l4 13c14 -3 29 -7 44 -7zM265 -3l-1 14c15 0 30 4 45 7l4 -14c-16 -3 -32 -7 -48 -7zM338 29c13 8 26 16 35 27l11 -9c-11 -13 -26 -21 -39 -30zM421 120c-6 -15 -7 -32 -17 -45l-12 6c9 13 10 28 15 42zM424 154l-14 1c1 15 0 31 0 46h14
v-35v-12zM410 234v47h14v-47h-14zM424 361v-47h-14v47h14zM424 441v-47h-14v47h14zM424 521v-47h-14v47h14zM424 601v-47h-14v47h14zM227 691l-6 -3c-2 4 -6 7 -10 8l2 7c6 -2 11 -6 14 -12zM200 704l1 -7c-5 -1 -9 -4 -11 -8l-6 5c3 5 9 9 16 10zM186 680c0 -4 1 -9 4 -13
l-6 -4c-3 4 -5 9 -5 14v2v2zM197 661c2 -1 5 -2 7 -2h2c2 0 3 1 5 1l2 -6c-2 -1 -4 -2 -7 -2h-2c-3 0 -7 1 -10 2zM219 665c3 4 5 9 5 13h7c0 -6 -2 -12 -7 -17zM321 691l-6 -3c-2 4 -6 7 -11 8l2 7c6 -2 12 -6 15 -12zM293 704l2 -7c-5 -1 -9 -4 -12 -8l-6 5
c4 5 10 9 16 10zM280 680c-1 -4 0 -9 3 -13l-6 -4c-3 4 -4 9 -5 14v2l1 2zM290 661c3 -1 5 -2 8 -2h2c1 0 3 1 4 1l2 -6c-2 -1 -4 -2 -6 -2h-2c-4 0 -7 1 -10 2zM312 665c4 4 5 9 6 13h7c-1 -6 -3 -12 -7 -17z" />
    <glyph glyph-name="aacute" unicode="&#xe1;" horiz-adv-x="446" 
d="M292 30c12 9 24 18 33 30l11 -8c-10 -14 -23 -24 -36 -33zM220 8c15 2 30 2 44 8l5 -13c-16 -6 -32 -7 -49 -9v14zM148 30c13 -8 27 -14 41 -18l-3 -13c-16 4 -32 10 -45 20zM124 50l-10 -10c-11 13 -22 25 -28 41l12 6c6 -14 16 -25 26 -37zM80 161c2 -15 1 -30 7 -45
l-14 -3c-5 15 -5 32 -7 48h14zM69 195c5 16 8 32 17 46l12 -6c-8 -13 -11 -28 -15 -42zM115 261l-11 9c10 14 23 24 37 33l7 -11c-12 -9 -24 -18 -33 -31zM220 328v-14c-14 -2 -30 -2 -44 -8l-4 13c15 6 32 7 48 9zM300 303l-8 -11c-12 8 -26 14 -41 18l4 13
c16 -4 31 -10 45 -20zM355 241l-13 -6c-6 14 -16 25 -26 37l10 10c11 -13 22 -25 29 -41zM375 315v-50h-14v50h14zM375 230v-50h-14v50h14zM375 145v-50h-14c-2 -5 -4 -10 -6 -14l-13 6c8 13 11 28 15 42h4v16h14zM375 10h-14v50h14v-50zM181 366l21 21l10 -10l-21 -21z
M217 402l21 21l10 -10l-21 -21zM253 438l21 21l10 -10l-21 -21z" />
    <glyph glyph-name="agrave" unicode="&#xe0;" horiz-adv-x="462" 
d="M292 30c12 9 24 18 33 30l11 -8c-10 -14 -23 -24 -36 -33zM220 8c15 2 30 2 44 8l5 -13c-16 -6 -32 -7 -49 -9v14zM148 30c13 -8 27 -14 41 -18l-3 -13c-16 4 -32 10 -45 20zM124 50l-10 -10c-11 13 -22 25 -28 41l12 6c6 -14 16 -25 26 -37zM80 161c2 -15 1 -30 7 -45
l-14 -3c-5 15 -5 32 -7 48h14zM69 195c5 16 8 32 17 46l12 -6c-8 -13 -11 -28 -15 -42zM115 261l-11 9c10 14 23 24 37 33l7 -11c-12 -9 -24 -18 -33 -31zM220 328v-14c-14 -2 -30 -2 -44 -8l-4 13c15 6 32 7 48 9zM300 303l-8 -11c-12 8 -26 14 -41 18l4 13
c16 -4 31 -10 45 -20zM355 241l-13 -6c-6 14 -16 25 -26 37l10 10c11 -13 22 -25 29 -41zM375 315v-50h-14v50h14zM375 230v-50h-14v50h14zM375 145v-50h-14c-2 -5 -4 -10 -6 -14l-13 6c8 13 11 28 15 42h4v16h14zM375 10h-14v50h14v-50zM251 405l21 -21l-10 -10l-21 21z
M205 431l10 10l21 -21l-10 -10zM169 467l10 10l21 -22l-10 -9z" />
    <glyph glyph-name="acircumflex" unicode="&#xe2;" horiz-adv-x="462" 
d="M292 30c12 9 24 18 33 30l11 -8c-10 -14 -23 -24 -36 -33zM220 8c15 2 30 2 44 8l5 -13c-16 -6 -32 -7 -49 -9v14zM148 30c13 -8 27 -14 41 -18l-3 -13c-16 4 -32 10 -45 20zM124 50l-10 -10c-11 13 -22 25 -28 41l12 6c6 -14 16 -25 26 -37zM80 161c2 -15 1 -30 7 -45
l-14 -3c-5 15 -5 32 -7 48h14zM69 195c5 16 8 32 17 46l12 -6c-8 -13 -11 -28 -15 -42zM115 261l-11 9c10 14 23 24 37 33l7 -11c-12 -9 -24 -18 -33 -31zM220 328v-14c-14 -2 -30 -2 -44 -8l-4 13c15 6 32 7 48 9zM300 303l-8 -11c-12 8 -26 14 -41 18l4 13
c16 -4 31 -10 45 -20zM355 241l-13 -6c-6 14 -16 25 -26 37l10 10c11 -13 22 -25 29 -41zM375 315v-50h-14v50h14zM375 230v-50h-14v50h14zM375 145v-50h-14c-2 -5 -4 -10 -6 -14l-13 6c8 13 11 28 15 42h4v16h14zM375 10h-14v50h14v-50zM171 464l13 -20l-12 -8l-13 21z
M193 430l14 -20l-12 -8l-13 20zM290 457l-14 -21l-12 8l14 20zM242 410l13 20l12 -8l-14 -20zM224 383l8 13l12 -8l-13 -20l-7 4l-6 -4l-14 20l12 8z" />
    <glyph glyph-name="adieresis" unicode="&#xe4;" horiz-adv-x="462" 
d="M292 30c12 9 24 18 33 30l11 -8c-10 -14 -23 -24 -36 -33zM220 8c15 2 30 2 44 8l5 -13c-16 -6 -32 -7 -49 -9v14zM148 30c13 -8 27 -14 41 -18l-3 -13c-16 4 -32 10 -45 20zM124 50l-10 -10c-11 13 -22 25 -28 41l12 6c6 -14 16 -25 26 -37zM80 161c2 -15 1 -30 7 -45
l-14 -3c-5 15 -5 32 -7 48h14zM69 195c5 16 8 32 17 46l12 -6c-8 -13 -11 -28 -15 -42zM115 261l-11 9c10 14 23 24 37 33l7 -11c-12 -9 -24 -18 -33 -31zM220 328v-14c-14 -2 -30 -2 -44 -8l-4 13c15 6 32 7 48 9zM300 303l-8 -11c-12 8 -26 14 -41 18l4 13
c16 -4 31 -10 45 -20zM355 241l-13 -6c-6 14 -16 25 -26 37l10 10c11 -13 22 -25 29 -41zM375 315v-50h-14v50h14zM375 230v-50h-14v50h14zM375 145v-50h-14c-2 -5 -4 -10 -6 -14l-13 6c8 13 11 28 15 42h4v16h14zM375 10h-14v50h14v-50zM197 411l-6 -3c-2 4 -6 7 -10 8l2 7
c6 -2 11 -6 14 -12zM170 424l1 -7c-5 -1 -9 -4 -11 -8l-6 5c3 5 9 9 16 10zM156 400c0 -4 1 -9 4 -13l-6 -4c-3 4 -5 9 -5 14v2v2zM167 381c2 -1 5 -2 7 -2h2c2 0 3 1 5 1l2 -6c-2 -1 -4 -2 -7 -2h-2c-3 0 -7 1 -10 2zM189 385c3 4 5 9 5 13h7c0 -6 -2 -12 -7 -17zM291 411
l-6 -3c-2 4 -6 7 -11 8l2 7c6 -2 12 -6 15 -12zM263 424l2 -7c-5 -1 -9 -4 -12 -8l-6 5c4 5 10 9 16 10zM250 400c-1 -4 0 -9 3 -13l-6 -4c-3 4 -4 9 -5 14v2l1 2zM260 381c3 -1 5 -2 8 -2h2c1 0 3 1 4 1l2 -6c-2 -1 -4 -2 -6 -2h-2c-4 0 -7 1 -10 2zM282 385c4 4 5 9 6 13
h7c-1 -6 -3 -12 -7 -17z" />
    <glyph glyph-name="atilde" unicode="&#xe3;" horiz-adv-x="462" 
d="M292 30c12 9 24 18 33 30l11 -8c-10 -14 -23 -24 -36 -33zM220 8c15 2 30 2 44 8l5 -13c-16 -6 -32 -7 -49 -9v14zM148 30c13 -8 27 -14 41 -18l-3 -13c-16 4 -32 10 -45 20zM124 50l-10 -10c-11 13 -22 25 -28 41l12 6c6 -14 16 -25 26 -37zM80 161c2 -15 1 -30 7 -45
l-14 -3c-5 15 -5 32 -7 48h14zM69 195c5 16 8 32 17 46l12 -6c-8 -13 -11 -28 -15 -42zM115 261l-11 9c10 14 23 24 37 33l7 -11c-12 -9 -24 -18 -33 -31zM220 328v-14c-14 -2 -30 -2 -44 -8l-4 13c15 6 32 7 48 9zM300 303l-8 -11c-12 8 -26 14 -41 18l4 13
c16 -4 31 -10 45 -20zM355 241l-13 -6c-6 14 -16 25 -26 37l10 10c11 -13 22 -25 29 -41zM375 315v-50h-14v50h14zM375 230v-50h-14v50h14zM375 145v-50h-14c-2 -5 -4 -10 -6 -14l-13 6c8 13 11 28 15 42h4v16h14zM375 10h-14v50h14v-50zM129 385c1 18 3 35 10 51l13 -6
c-6 -14 -8 -30 -9 -45h-14zM168 462h6c17 0 32 -12 41 -26l-12 -8c-6 10 -16 21 -29 20h-4zM234 408c6 -9 16 -18 28 -18c2 0 4 0 5 1l3 -14c-2 0 -5 -1 -8 -1c-16 0 -31 11 -39 24zM284 410c6 14 7 30 7 45h14c0 -17 -2 -34 -8 -50z" />
    <glyph glyph-name="aring" unicode="&#xe5;" horiz-adv-x="462" 
d="M375 145v-50h-14c-2 -5 -4 -10 -6 -14l-13 6c8 13 11 28 15 42h4v16h14zM180 341c11 -7 24 -10 37 -10h8l1 -14h-6v-3c-14 -2 -30 -2 -44 -8l-4 13c4 1 8 3 12 4c-4 1 -8 3 -11 6zM173 483l7 -12c-13 -8 -24 -20 -30 -34l-13 6c7 17 21 30 36 40zM375 230v-50h-14v50h14z
M375 315v-50h-14v50h14zM375 10h-14v50h14v-50zM255 471c-11 7 -24 10 -36 10c-3 0 -5 0 -8 -1l-1 14c3 1 6 1 9 1c15 0 30 -4 43 -12zM129 406h14c0 -16 5 -31 14 -44l-12 -8c-10 16 -15 34 -16 52zM307 406h-14c-1 15 -5 30 -14 43l11 8c11 -15 16 -33 17 -51zM255 341
c13 8 25 19 31 33l12 -5c-7 -17 -20 -31 -36 -40zM355 241l-13 -6c-6 14 -16 25 -26 37l10 10c11 -13 22 -25 29 -41zM124 50l-10 -10c-11 13 -22 25 -28 41l12 6c6 -14 16 -25 26 -37zM115 261l-11 9c10 14 23 24 37 33l7 -11c-12 -9 -24 -18 -33 -31zM300 303l-8 -11
c-12 8 -26 14 -41 18l4 13c16 -4 31 -10 45 -20zM220 8c15 2 30 2 44 8l5 -13c-16 -6 -32 -7 -49 -9v14zM80 161c2 -15 1 -30 7 -45l-14 -3c-5 15 -5 32 -7 48h14zM292 30c12 9 24 18 33 30l11 -8c-10 -14 -23 -24 -36 -33zM148 30c13 -8 27 -14 41 -18l-3 -13
c-16 4 -32 10 -45 20zM69 195c5 16 8 32 17 46l12 -6c-8 -13 -11 -28 -15 -42z" />
    <glyph glyph-name="ccedilla" unicode="&#xe7;" horiz-adv-x="426" 
d="M251 -60c-15 -4 -29 -12 -41 -20l-4 5l-7 1l3 17l13 -3c10 5 21 10 32 14zM126 294l9 -11c-12 -9 -22 -21 -30 -34l-12 8c9 14 20 27 33 37zM161 300l-6 13c16 6 31 13 48 13l2 -14c-15 0 -30 -6 -44 -12zM205 10l-2 -14c-17 0 -32 7 -48 13l6 13c14 -6 29 -12 44 -12z
M90 221c-4 -14 -10 -29 -10 -44l-14 1c0 17 6 33 11 48zM80 145c0 -15 6 -30 10 -44l-13 -5c-5 15 -11 31 -11 48zM212 -145c15 2 28 11 39 20l9 -11c-14 -11 -29 -20 -46 -23zM274 -64l11 9c5 -7 7 -15 7 -23c0 -11 -4 -21 -9 -30l-12 7c4 7 7 15 7 23c0 5 -1 10 -4 14z
M105 72c8 -12 18 -24 30 -33l-9 -11c-13 10 -24 23 -33 37zM238 326c17 -1 32 -8 47 -15l-6 -12c-14 6 -28 12 -43 13zM279 23l6 -12c-15 -7 -30 -14 -47 -15l-2 14c15 1 29 7 43 13zM347 68c-10 -13 -20 -27 -33 -37l-9 10c12 10 21 22 30 34zM335 247c-9 12 -18 24 -30 34
l9 10c13 -10 23 -24 33 -37zM225 -5l-3 -16l-14 2l3 17zM204 -46l2 16l14 -2l-3 -16z" />
    <glyph glyph-name="eacute" unicode="&#xe9;" horiz-adv-x="439" 
d="M317 26l-8 11c14 8 20 23 31 33l12 -7c-12 -12 -20 -28 -35 -37zM238 -4l-2 14c16 0 31 6 45 11l6 -13c-16 -5 -32 -12 -49 -12zM203 -4c-17 0 -33 7 -49 14l7 12c13 -6 28 -12 43 -12zM103 75c9 -12 19 -25 31 -35l-9 -10c-14 10 -24 24 -34 37zM66 148l14 1
c0 -15 5 -30 9 -45l-13 -5c-5 16 -10 33 -10 49zM93 226c-6 -14 -11 -29 -12 -44l-14 2c1 16 7 32 13 48zM109 254l-12 9c10 14 23 25 35 36l9 -11c-12 -10 -24 -21 -32 -34zM213 327v-14c-15 0 -30 -4 -44 -10l-6 13c16 7 33 11 50 11zM248 325c16 -5 33 -10 47 -19l-7 -12
c-13 8 -28 13 -43 17zM353 243l-13 -6c-6 14 -16 26 -27 37l10 10c11 -12 23 -25 30 -41zM366 211c6 -16 6 -40 7 -57h-54v14h39c-1 12 -1 27 -6 39zM286 154h-48v14h48v-14zM158 154v14h47v-14h-47zM124 168v-14h-47v14h47zM201 366l21 21l10 -10l-21 -21zM237 402l21 21
l10 -10l-21 -21zM273 438l21 21l10 -10l-21 -21z" />
    <glyph glyph-name="egrave" unicode="&#xe8;" horiz-adv-x="451" 
d="M317 26l-8 11c14 8 20 23 31 33l12 -7c-12 -12 -20 -28 -35 -37zM238 -4l-2 14c16 0 31 6 45 11l6 -13c-16 -5 -32 -12 -49 -12zM203 -4c-17 0 -33 7 -49 14l7 12c13 -6 28 -12 43 -12zM103 75c9 -12 19 -25 31 -35l-9 -10c-14 10 -24 24 -34 37zM66 148l14 1
c0 -15 5 -30 9 -45l-13 -5c-5 16 -10 33 -10 49zM93 226c-6 -14 -11 -29 -12 -44l-14 2c1 16 7 32 13 48zM109 254l-12 9c10 14 23 25 35 36l9 -11c-12 -10 -24 -21 -32 -34zM213 327v-14c-15 0 -30 -4 -44 -10l-6 13c16 7 33 11 50 11zM248 325c16 -5 33 -10 47 -19l-7 -12
c-13 8 -28 13 -43 17zM353 243l-13 -6c-6 14 -16 26 -27 37l10 10c11 -12 23 -25 30 -41zM366 211c6 -16 6 -40 7 -57h-54v14h39c-1 12 -1 27 -6 39zM286 154h-48v14h48v-14zM158 154v14h47v-14h-47zM124 168v-14h-47v14h47zM211 405l21 -21l-10 -10l-21 21zM165 431l10 10
l21 -21l-10 -10zM129 467l10 10l21 -22l-10 -9z" />
    <glyph glyph-name="ecircumflex" unicode="&#xea;" horiz-adv-x="451" 
d="M317 26l-8 11c14 8 20 23 31 33l12 -7c-12 -12 -20 -28 -35 -37zM238 -4l-2 14c16 0 31 6 45 11l6 -13c-16 -5 -32 -12 -49 -12zM203 -4c-17 0 -33 7 -49 14l7 12c13 -6 28 -12 43 -12zM103 75c9 -12 19 -25 31 -35l-9 -10c-14 10 -24 24 -34 37zM66 148l14 1
c0 -15 5 -30 9 -45l-13 -5c-5 16 -10 33 -10 49zM93 226c-6 -14 -11 -29 -12 -44l-14 2c1 16 7 32 13 48zM109 254l-12 9c10 14 23 25 35 36l9 -11c-12 -10 -24 -21 -32 -34zM213 327v-14c-15 0 -30 -4 -44 -10l-6 13c16 7 33 11 50 11zM248 325c16 -5 33 -10 47 -19l-7 -12
c-13 8 -28 13 -43 17zM353 243l-13 -6c-6 14 -16 26 -27 37l10 10c11 -12 23 -25 30 -41zM366 211c6 -16 6 -40 7 -57h-54v14h39c-1 12 -1 27 -6 39zM286 154h-48v14h48v-14zM158 154v14h47v-14h-47zM124 168v-14h-47v14h47zM161 464l13 -20l-12 -8l-13 21zM183 430l14 -20
l-12 -8l-13 20zM280 457l-14 -21l-12 8l14 20zM232 410l13 20l12 -8l-14 -20zM214 383l8 13l12 -8l-13 -20l-7 4l-6 -4l-14 20l12 8z" />
    <glyph glyph-name="edieresis" unicode="&#xeb;" horiz-adv-x="451" 
d="M317 26l-8 11c14 8 20 23 31 33l12 -7c-12 -12 -20 -28 -35 -37zM238 -4l-2 14c16 0 31 6 45 11l6 -13c-16 -5 -32 -12 -49 -12zM203 -4c-17 0 -33 7 -49 14l7 12c13 -6 28 -12 43 -12zM103 75c9 -12 19 -25 31 -35l-9 -10c-14 10 -24 24 -34 37zM66 148l14 1
c0 -15 5 -30 9 -45l-13 -5c-5 16 -10 33 -10 49zM93 226c-6 -14 -11 -29 -12 -44l-14 2c1 16 7 32 13 48zM109 254l-12 9c10 14 23 25 35 36l9 -11c-12 -10 -24 -21 -32 -34zM213 327v-14c-15 0 -30 -4 -44 -10l-6 13c16 7 33 11 50 11zM248 325c16 -5 33 -10 47 -19l-7 -12
c-13 8 -28 13 -43 17zM353 243l-13 -6c-6 14 -16 26 -27 37l10 10c11 -12 23 -25 30 -41zM366 211c6 -16 6 -40 7 -57h-54v14h39c-1 12 -1 27 -6 39zM286 154h-48v14h48v-14zM158 154v14h47v-14h-47zM124 168v-14h-47v14h47zM197 411l-6 -3c-2 4 -6 7 -10 8l2 7
c6 -2 11 -6 14 -12zM170 424l1 -7c-5 -1 -9 -4 -11 -8l-6 5c3 5 9 9 16 10zM156 400c0 -4 1 -9 4 -13l-6 -4c-3 4 -5 9 -5 14v2v2zM167 381c2 -1 5 -2 7 -2h2c2 0 3 1 5 1l2 -6c-2 -1 -4 -2 -7 -2h-2c-3 0 -7 1 -10 2zM189 385c3 4 5 9 5 13h7c0 -6 -2 -12 -7 -17zM291 411
l-6 -3c-2 4 -6 7 -11 8l2 7c6 -2 12 -6 15 -12zM263 424l2 -7c-5 -1 -9 -4 -12 -8l-6 5c4 5 10 9 16 10zM250 400c-1 -4 0 -9 3 -13l-6 -4c-3 4 -4 9 -5 14v2l1 2zM260 381c3 -1 5 -2 8 -2h2c1 0 3 1 4 1l2 -6c-2 -1 -4 -2 -6 -2h-2c-4 0 -7 1 -10 2zM282 385c4 4 5 9 6 13
h7c-1 -6 -3 -12 -7 -17z" />
    <glyph glyph-name="iacute" unicode="&#xed;" horiz-adv-x="184" 
d="M104 312v-50h-14v50h14zM104 227v-50h-14v50h14zM90 93v49h14v-49h-14zM104 58v-50h-14v50h14zM81 376l21 21l10 -10l-21 -21zM117 412l21 21l10 -10l-21 -21zM153 448l21 21l10 -10l-21 -21z" />
    <glyph glyph-name="igrave" unicode="&#xec;" horiz-adv-x="184" 
d="M104 312v-50h-14v50h14zM104 227v-50h-14v50h14zM90 93v49h14v-49h-14zM104 58v-50h-14v50h14zM71 405l21 -21l-10 -10l-21 21zM25 431l10 10l21 -21l-10 -10zM-11 467l10 10l21 -22l-10 -9z" />
    <glyph glyph-name="icircumflex" unicode="&#xee;" horiz-adv-x="184" 
d="M104 312v-50h-14v50h14zM104 227v-50h-14v50h14zM90 93v49h14v-49h-14zM104 58v-50h-14v50h14zM31 474l13 -20l-12 -8l-13 21zM53 440l14 -20l-12 -8l-13 20zM150 467l-14 -21l-12 8l14 20zM102 420l13 20l12 -8l-14 -20zM84 393l8 13l12 -8l-13 -20l-7 4l-6 -4l-14 20
l12 8z" />
    <glyph glyph-name="idieresis" unicode="&#xef;" horiz-adv-x="184" 
d="M104 312v-50h-14v50h14zM104 227v-50h-14v50h14zM90 93v49h14v-49h-14zM104 58v-50h-14v50h14zM67 411l-6 -3c-2 4 -6 7 -10 8l2 7c6 -2 11 -6 14 -12zM40 424l1 -7c-5 -1 -9 -4 -11 -8l-6 5c3 5 9 9 16 10zM26 400c0 -4 1 -9 4 -13l-6 -4c-3 4 -5 9 -5 14v2v2zM37 381
c2 -1 5 -2 7 -2h2c2 0 3 1 5 1l2 -6c-2 -1 -4 -2 -7 -2h-2c-3 0 -7 1 -10 2zM59 385c3 4 5 9 5 13h7c0 -6 -2 -12 -7 -17zM161 411l-6 -3c-2 4 -6 7 -11 8l2 7c6 -2 12 -6 15 -12zM133 424l2 -7c-5 -1 -9 -4 -12 -8l-6 5c4 5 10 9 16 10zM120 400c-1 -4 0 -9 3 -13l-6 -4
c-3 4 -4 9 -5 14v2l1 2zM130 381c3 -1 5 -2 8 -2h2c1 0 3 1 4 1l2 -6c-2 -1 -4 -2 -6 -2h-2c-4 0 -7 1 -10 2zM152 385c4 4 5 9 6 13h7c-1 -6 -3 -12 -7 -17z" />
    <glyph glyph-name="ntilde" unicode="&#xf1;" horiz-adv-x="406" 
d="M96 256c6 14 17 27 28 38l9 -10c-10 -10 -19 -22 -25 -35zM151 314c14 8 30 13 46 14l1 -14c-14 -1 -28 -5 -40 -13zM228 313l2 13c16 -3 31 -9 44 -18l-8 -12c-11 9 -25 14 -38 17zM321 243l-13 -5c-5 14 -12 27 -20 38l11 9c9 -13 17 -27 22 -42zM316 164
c0 15 0 30 -2 45l14 1c1 -9 2 -19 2 -28v-16v-2h-14zM330 132v-45h-14v45h14zM316 10v45h14v-45h-14zM85 265h-14v50h14v-50zM85 230v-5l11 -4c-5 -13 -6 -28 -9 -43c-5 1 -11 2 -16 2v50h14zM71 94v51h14v-51h-14zM71 9v50h14v-50h-14zM109 385c1 18 3 35 10 51l13 -6
c-6 -14 -8 -30 -9 -45h-14zM148 462h6c17 0 32 -12 41 -26l-12 -8c-6 10 -16 21 -29 20h-4zM214 408c6 -9 16 -18 28 -18c2 0 4 0 5 1l3 -14c-2 0 -5 -1 -8 -1c-16 0 -31 11 -39 24zM264 410c6 14 7 30 7 45h14c0 -17 -2 -34 -8 -50z" />
    <glyph glyph-name="oacute" unicode="&#xf3;" horiz-adv-x="451" 
d="M342 88c8 13 11 28 15 42l14 -3c-4 -15 -8 -32 -16 -46zM292 31c12 8 24 18 33 30l11 -9c-10 -13 -23 -24 -36 -33zM220 9c15 1 30 2 44 8l5 -13c-16 -7 -32 -8 -49 -9v14zM141 19l7 12c13 -9 27 -14 41 -18l-3 -14c-16 5 -32 11 -45 20zM98 88c6 -14 16 -26 26 -37
l-10 -10c-11 12 -22 25 -28 40zM87 117l-14 -4c-5 16 -5 32 -7 49h14c2 -15 1 -31 7 -45zM98 236c-8 -13 -11 -28 -15 -43l-14 3c5 15 8 32 17 46zM141 304l7 -12c-12 -8 -24 -18 -33 -30l-11 9c10 13 23 24 37 33zM220 314c-15 -1 -30 -2 -44 -8l-4 13c15 7 32 8 48 10v-15
zM292 292c-12 9 -26 14 -41 18l4 14c16 -5 31 -11 45 -20zM342 236c-6 14 -16 25 -26 36l10 10c11 -12 22 -25 29 -40zM354 206l13 4c6 -15 6 -32 7 -48h-14c-1 14 -1 30 -6 44zM211 376l21 21l10 -10l-21 -21zM247 412l21 21l10 -10l-21 -21zM283 448l21 21l10 -10l-21 -21
z" />
    <glyph glyph-name="ograve" unicode="&#xf2;" horiz-adv-x="451" 
d="M342 88c8 13 11 28 15 42l14 -3c-4 -15 -8 -32 -16 -46zM292 31c12 8 24 18 33 30l11 -9c-10 -13 -23 -24 -36 -33zM220 9c15 1 30 2 44 8l5 -13c-16 -7 -32 -8 -49 -9v14zM141 19l7 12c13 -9 27 -14 41 -18l-3 -14c-16 5 -32 11 -45 20zM98 88c6 -14 16 -26 26 -37
l-10 -10c-11 12 -22 25 -28 40zM87 117l-14 -4c-5 16 -5 32 -7 49h14c2 -15 1 -31 7 -45zM98 236c-8 -13 -11 -28 -15 -43l-14 3c5 15 8 32 17 46zM141 304l7 -12c-12 -8 -24 -18 -33 -30l-11 9c10 13 23 24 37 33zM220 314c-15 -1 -30 -2 -44 -8l-4 13c15 7 32 8 48 10v-15
zM292 292c-12 9 -26 14 -41 18l4 14c16 -5 31 -11 45 -20zM342 236c-6 14 -16 25 -26 36l10 10c11 -12 22 -25 29 -40zM354 206l13 4c6 -15 6 -32 7 -48h-14c-1 14 -1 30 -6 44zM201 405l21 -21l-10 -10l-21 21zM155 431l10 10l21 -21l-10 -10zM119 467l10 10l21 -22l-10 -9
z" />
    <glyph glyph-name="ocircumflex" unicode="&#xf4;" horiz-adv-x="451" 
d="M342 88c8 13 11 28 15 42l14 -3c-4 -15 -8 -32 -16 -46zM292 31c12 8 24 18 33 30l11 -9c-10 -13 -23 -24 -36 -33zM220 9c15 1 30 2 44 8l5 -13c-16 -7 -32 -8 -49 -9v14zM141 19l7 12c13 -9 27 -14 41 -18l-3 -14c-16 5 -32 11 -45 20zM98 88c6 -14 16 -26 26 -37
l-10 -10c-11 12 -22 25 -28 40zM87 117l-14 -4c-5 16 -5 32 -7 49h14c2 -15 1 -31 7 -45zM98 236c-8 -13 -11 -28 -15 -43l-14 3c5 15 8 32 17 46zM141 304l7 -12c-12 -8 -24 -18 -33 -30l-11 9c10 13 23 24 37 33zM220 314c-15 -1 -30 -2 -44 -8l-4 13c15 7 32 8 48 10v-15
zM292 292c-12 9 -26 14 -41 18l4 14c16 -5 31 -11 45 -20zM342 236c-6 14 -16 25 -26 36l10 10c11 -12 22 -25 29 -40zM354 206l13 4c6 -15 6 -32 7 -48h-14c-1 14 -1 30 -6 44zM161 454l13 -20l-12 -8l-13 21zM183 420l14 -20l-12 -8l-13 20zM280 447l-14 -21l-12 8l14 20z
M232 400l13 20l12 -8l-14 -20zM214 373l8 13l12 -8l-13 -20l-7 4l-6 -4l-14 20l12 8z" />
    <glyph glyph-name="odieresis" unicode="&#xf6;" horiz-adv-x="451" 
d="M342 88c8 13 11 28 15 42l14 -3c-4 -15 -8 -32 -16 -46zM292 31c12 8 24 18 33 30l11 -9c-10 -13 -23 -24 -36 -33zM220 9c15 1 30 2 44 8l5 -13c-16 -7 -32 -8 -49 -9v14zM141 19l7 12c13 -9 27 -14 41 -18l-3 -14c-16 5 -32 11 -45 20zM98 88c6 -14 16 -26 26 -37
l-10 -10c-11 12 -22 25 -28 40zM87 117l-14 -4c-5 16 -5 32 -7 49h14c2 -15 1 -31 7 -45zM98 236c-8 -13 -11 -28 -15 -43l-14 3c5 15 8 32 17 46zM141 304l7 -12c-12 -8 -24 -18 -33 -30l-11 9c10 13 23 24 37 33zM220 314c-15 -1 -30 -2 -44 -8l-4 13c15 7 32 8 48 10v-15
zM292 292c-12 9 -26 14 -41 18l4 14c16 -5 31 -11 45 -20zM342 236c-6 14 -16 25 -26 36l10 10c11 -12 22 -25 29 -40zM354 206l13 4c6 -15 6 -32 7 -48h-14c-1 14 -1 30 -6 44zM197 411l-6 -3c-2 4 -6 7 -10 8l2 7c6 -2 11 -6 14 -12zM170 424l1 -7c-5 -1 -9 -4 -11 -8
l-6 5c3 5 9 9 16 10zM156 400c0 -4 1 -9 4 -13l-6 -4c-3 4 -5 9 -5 14v2v2zM167 381c2 -1 5 -2 7 -2h2c2 0 3 1 5 1l2 -6c-2 -1 -4 -2 -7 -2h-2c-3 0 -7 1 -10 2zM189 385c3 4 5 9 5 13h7c0 -6 -2 -12 -7 -17zM291 411l-6 -3c-2 4 -6 7 -11 8l2 7c6 -2 12 -6 15 -12z
M263 424l2 -7c-5 -1 -9 -4 -12 -8l-6 5c4 5 10 9 16 10zM250 400c-1 -4 0 -9 3 -13l-6 -4c-3 4 -4 9 -5 14v2l1 2zM260 381c3 -1 5 -2 8 -2h2c1 0 3 1 4 1l2 -6c-2 -1 -4 -2 -6 -2h-2c-4 0 -7 1 -10 2zM282 385c4 4 5 9 6 13h7c-1 -6 -3 -12 -7 -17z" />
    <glyph glyph-name="otilde" unicode="&#xf5;" horiz-adv-x="451" 
d="M342 88c8 13 11 28 15 42l14 -3c-4 -15 -8 -32 -16 -46zM292 31c12 8 24 18 33 30l11 -9c-10 -13 -23 -24 -36 -33zM220 9c15 1 30 2 44 8l5 -13c-16 -7 -32 -8 -49 -9v14zM141 19l7 12c13 -9 27 -14 41 -18l-3 -14c-16 5 -32 11 -45 20zM98 88c6 -14 16 -26 26 -37
l-10 -10c-11 12 -22 25 -28 40zM87 117l-14 -4c-5 16 -5 32 -7 49h14c2 -15 1 -31 7 -45zM98 236c-8 -13 -11 -28 -15 -43l-14 3c5 15 8 32 17 46zM141 304l7 -12c-12 -8 -24 -18 -33 -30l-11 9c10 13 23 24 37 33zM220 314c-15 -1 -30 -2 -44 -8l-4 13c15 7 32 8 48 10v-15
zM292 292c-12 9 -26 14 -41 18l4 14c16 -5 31 -11 45 -20zM342 236c-6 14 -16 25 -26 36l10 10c11 -12 22 -25 29 -40zM354 206l13 4c6 -15 6 -32 7 -48h-14c-1 14 -1 30 -6 44zM119 375c1 18 3 35 10 51l13 -6c-6 -14 -8 -30 -9 -45h-14zM158 452h6c17 0 32 -12 41 -26
l-12 -8c-6 10 -16 21 -29 20h-4zM224 398c6 -9 16 -18 28 -18c2 0 4 0 5 1l3 -14c-2 0 -5 -1 -8 -1c-16 0 -31 11 -39 24zM274 400c6 14 7 30 7 45h14c0 -17 -2 -34 -8 -50z" />
    <glyph glyph-name="uacute" unicode="&#xfa;" horiz-adv-x="406" 
d="M284 72l13 -6c-7 -15 -17 -27 -27 -39l-10 10c9 11 18 22 24 35zM236 19l7 -12c-14 -8 -30 -13 -46 -14l-1 14c14 1 28 5 40 12zM120 14l8 12c12 -9 25 -14 39 -17l-3 -14c-16 4 -31 10 -44 19zM74 80l14 4c4 -13 11 -26 19 -38l-11 -8c-10 12 -16 27 -22 42zM80 158
c0 -15 0 -30 2 -44l-14 -2c-2 12 -2 24 -2 36v10h14zM66 190v45h14v-45h-14zM80 312v-46h-14v46h14zM311 6v50h14v-50h-14zM325 141v-50h-14v11l-2 -6l-14 4c6 14 7 29 11 43c6 -1 13 -2 19 -2zM325 226v-50h-14v50h14zM325 312v-50h-14v50h14zM161 366l21 21l10 -10
l-21 -21zM197 402l21 21l10 -10l-21 -21zM233 438l21 21l10 -10l-21 -21z" />
    <glyph glyph-name="ugrave" unicode="&#xf9;" horiz-adv-x="406" 
d="M284 72l13 -6c-7 -15 -17 -27 -27 -39l-10 10c9 11 18 22 24 35zM236 19l7 -12c-14 -8 -30 -13 -46 -14l-1 14c14 1 28 5 40 12zM120 14l8 12c12 -9 25 -14 39 -17l-3 -14c-16 4 -31 10 -44 19zM74 80l14 4c4 -13 11 -26 19 -38l-11 -8c-10 12 -16 27 -22 42zM80 158
c0 -15 0 -30 2 -44l-14 -2c-2 12 -2 24 -2 36v10h14zM66 190v45h14v-45h-14zM80 312v-46h-14v46h14zM311 6v50h14v-50h-14zM325 141v-50h-14v11l-2 -6l-14 4c6 14 7 29 11 43c6 -1 13 -2 19 -2zM325 226v-50h-14v50h14zM325 312v-50h-14v50h14zM211 375l21 -21l-10 -10
l-21 21zM165 401l10 10l21 -21l-10 -10zM129 437l10 10l21 -22l-10 -9z" />
    <glyph glyph-name="ucircumflex" unicode="&#xfb;" horiz-adv-x="406" 
d="M284 72l13 -6c-7 -15 -17 -27 -27 -39l-10 10c9 11 18 22 24 35zM236 19l7 -12c-14 -8 -30 -13 -46 -14l-1 14c14 1 28 5 40 12zM120 14l8 12c12 -9 25 -14 39 -17l-3 -14c-16 4 -31 10 -44 19zM74 80l14 4c4 -13 11 -26 19 -38l-11 -8c-10 12 -16 27 -22 42zM80 158
c0 -15 0 -30 2 -44l-14 -2c-2 12 -2 24 -2 36v10h14zM66 190v45h14v-45h-14zM80 312v-46h-14v46h14zM311 6v50h14v-50h-14zM325 141v-50h-14v11l-2 -6l-14 4c6 14 7 29 11 43c6 -1 13 -2 19 -2zM325 226v-50h-14v50h14zM325 312v-50h-14v50h14zM141 454l13 -20l-12 -8
l-13 21zM163 420l14 -20l-12 -8l-13 20zM260 447l-14 -21l-12 8l14 20zM212 400l13 20l12 -8l-14 -20zM194 373l8 13l12 -8l-13 -20l-7 4l-6 -4l-14 20l12 8z" />
    <glyph glyph-name="udieresis" unicode="&#xfc;" horiz-adv-x="406" 
d="M284 72l13 -6c-7 -15 -17 -27 -27 -39l-10 10c9 11 18 22 24 35zM236 19l7 -12c-14 -8 -30 -13 -46 -14l-1 14c14 1 28 5 40 12zM120 14l8 12c12 -9 25 -14 39 -17l-3 -14c-16 4 -31 10 -44 19zM74 80l14 4c4 -13 11 -26 19 -38l-11 -8c-10 12 -16 27 -22 42zM80 158
c0 -15 0 -30 2 -44l-14 -2c-2 12 -2 24 -2 36v10h14zM66 190v45h14v-45h-14zM80 312v-46h-14v46h14zM311 6v50h14v-50h-14zM325 141v-50h-14v11l-2 -6l-14 4c6 14 7 29 11 43c6 -1 13 -2 19 -2zM325 226v-50h-14v50h14zM325 312v-50h-14v50h14zM177 411l-6 -3
c-2 4 -6 7 -10 8l2 7c6 -2 11 -6 14 -12zM150 424l1 -7c-5 -1 -9 -4 -11 -8l-6 5c3 5 9 9 16 10zM136 400c0 -4 1 -9 4 -13l-6 -4c-3 4 -5 9 -5 14v2v2zM147 381c2 -1 5 -2 7 -2h2c2 0 3 1 5 1l2 -6c-2 -1 -4 -2 -7 -2h-2c-3 0 -7 1 -10 2zM169 385c3 4 5 9 5 13h7
c0 -6 -2 -12 -7 -17zM271 411l-6 -3c-2 4 -6 7 -11 8l2 7c6 -2 12 -6 15 -12zM243 424l2 -7c-5 -1 -9 -4 -12 -8l-6 5c4 5 10 9 16 10zM230 400c-1 -4 0 -9 3 -13l-6 -4c-3 4 -4 9 -5 14v2l1 2zM240 381c3 -1 5 -2 8 -2h2c1 0 3 1 4 1l2 -6c-2 -1 -4 -2 -6 -2h-2
c-4 0 -7 1 -10 2zM262 385c4 4 5 9 6 13h7c-1 -6 -3 -12 -7 -17z" />
    <glyph glyph-name="guillemotleft" unicode="&#xab;" horiz-adv-x="310" 
d="M141 2l-17 35l13 6l16 -35zM97 96l12 6l17 -35l-13 -6zM98 194l-16 -34l16 -34l-13 -6l-16 35l12 5l-12 6l16 34zM137 278l-13 5l17 35l12 -6zM113 259l13 -6l-17 -34l-12 6zM228 3l-16 35l13 6l16 -35zM184 97l13 6l16 -35l-12 -6zM186 195l-16 -34l16 -34l-13 -6
l-16 34l12 6l-12 5l16 35zM225 278l-13 6l16 35l13 -6zM201 260l12 -6l-16 -35l-13 6z" />
    <glyph glyph-name="guillemotright" unicode="&#xbb;" horiz-adv-x="310" 
d="M186 37l-16 -35l-13 6l16 35zM201 102l12 -6l-16 -35l-13 6zM228 160l-16 34l13 6l16 -34l-12 -6l12 -5l-16 -35l-13 6zM186 283l-13 -5l-16 34l13 6zM184 253l13 6l16 -34l-12 -6zM98 38l-16 -35l-13 6l16 35zM113 103l13 -6l-17 -35l-12 6zM140 161l-16 34l13 6l16 -35
l-12 -5l12 -6l-16 -34l-13 6zM98 284l-13 -6l-16 35l13 6zM97 254l12 6l17 -35l-13 -6z" />
    <glyph glyph-name="ellipsis" unicode="&#x2026;" horiz-adv-x="526" 
d="M119 31l-6 -3c-2 4 -6 7 -10 9l2 6c6 -2 11 -6 14 -12zM92 44l1 -7c-5 0 -9 -3 -11 -7l-6 4c3 5 9 9 16 10zM78 21c0 -5 1 -10 4 -13l-6 -5c-3 4 -5 9 -5 14v3v2zM89 1c2 -1 5 -1 7 -1h2c2 0 3 0 5 1l2 -7c-2 -1 -5 -1 -7 -1h-2c-3 0 -7 1 -10 2zM111 6c3 3 5 8 5 13h7
c0 -7 -2 -13 -7 -18zM466 30l-6 -3c-2 4 -6 7 -10 9l2 6c6 -2 11 -6 14 -12zM439 43l1 -7c-5 0 -9 -3 -12 -7l-5 4c3 5 9 9 16 10zM425 20c-1 -5 0 -10 3 -13l-5 -5c-3 4 -5 9 -5 14v3v1h7zM436 0c2 -1 5 -1 7 -1h2c2 0 3 0 5 1l2 -7c-2 -1 -5 -1 -7 -1h-2c-3 0 -7 1 -10 2z
M458 5c3 3 4 8 5 13h7c-1 -7 -3 -13 -7 -18zM285 31l-6 -3c-2 4 -6 7 -10 9l2 6c6 -2 11 -6 14 -12zM258 44l1 -7c-5 0 -9 -3 -11 -7l-6 4c3 5 9 9 16 10zM244 21c0 -5 0 -10 4 -13l-6 -5c-3 4 -5 9 -5 14v3v2zM255 1c2 -1 5 -1 7 -1h2c2 0 3 0 5 1l2 -7c-2 -1 -5 -1 -7 -1
h-2c-3 0 -7 1 -10 2zM277 6c3 3 4 8 5 13h7c-1 -7 -3 -13 -7 -18z" />
    <glyph glyph-name="ydieresis" unicode="&#xff;" horiz-adv-x="408" 
d="M314 268l-13 5l17 45l13 -5zM284 192l-13 5l18 45l13 -5zM242 121l17 45l13 -5l-17 -45zM212 45l17 45l14 -5l-18 -45zM153 -107l17 45l13 -6l-17 -44zM123 -183l18 44l13 -5l-18 -44zM99 268l-13 -5l-20 50l13 5zM114 233l20 -49l-13 -6l-20 50zM156 94l-20 49l13 6
l20 -50zM204 14l-3 -1l12 -5l-18 -44l-13 5l17 43l-8 -3l-20 50l12 5zM177 411l-6 -3c-2 4 -6 7 -10 8l2 7c6 -2 11 -6 14 -12zM150 424l1 -7c-5 -1 -9 -4 -11 -8l-6 5c3 5 9 9 16 10zM136 400c0 -4 1 -9 4 -13l-6 -4c-3 4 -5 9 -5 14v2v2zM147 381c2 -1 5 -2 7 -2h2
c2 0 3 1 5 1l2 -6c-2 -1 -4 -2 -7 -2h-2c-3 0 -7 1 -10 2zM169 385c3 4 5 9 5 13h7c0 -6 -2 -12 -7 -17zM271 411l-6 -3c-2 4 -6 7 -11 8l2 7c6 -2 12 -6 15 -12zM243 424l2 -7c-5 -1 -9 -4 -12 -8l-6 5c4 5 10 9 16 10zM230 400c-1 -4 0 -9 3 -13l-6 -4c-3 4 -4 9 -5 14v2
l1 2zM240 381c3 -1 5 -2 8 -2h2c1 0 3 1 4 1l2 -6c-2 -1 -4 -2 -6 -2h-2c-4 0 -7 1 -10 2zM262 385c4 4 5 9 6 13h7c-1 -6 -3 -12 -7 -17z" />
    <glyph glyph-name="Ydieresis" unicode="&#x178;" horiz-adv-x="478" 
d="M66 593l12 7l21 -39l-12 -6zM134 495l-12 -6l-21 38l12 7zM136 461l12 7l21 -39l-12 -6zM204 363l-12 -6l-21 38l12 7zM388 600l12 -7l-20 -38l-13 6zM345 489l-13 6l21 39l12 -7zM310 423l-13 6l21 39l12 -7zM262 363l21 39l12 -7l-20 -38zM260 329l-20 -38v-35h-14v35
l-20 38l12 7l15 -28l15 28zM226 174v48h14v-48h-14zM226 92v48h14v-48h-14zM226 10v48h14v-48h-14zM217 661l-6 -3c-2 4 -6 7 -10 8l2 7c6 -2 11 -6 14 -12zM190 674l1 -7c-5 -1 -9 -4 -11 -8l-6 5c3 5 9 9 16 10zM176 650c0 -4 1 -9 4 -13l-6 -4c-3 4 -5 9 -5 14v2v2z
M187 631c2 -1 5 -2 7 -2h2c2 0 3 1 5 1l2 -6c-2 -1 -4 -2 -7 -2h-2c-3 0 -7 1 -10 2zM209 635c3 4 5 9 5 13h7c0 -6 -2 -12 -7 -17zM311 661l-6 -3c-2 4 -6 7 -11 8l2 7c6 -2 12 -6 15 -12zM283 674l2 -7c-5 -1 -9 -4 -12 -8l-6 5c4 5 10 9 16 10zM270 650c-1 -4 0 -9 3 -13
l-6 -4c-3 4 -4 9 -5 14v2l1 2zM280 631c3 -1 5 -2 8 -2h2c1 0 3 1 4 1l2 -6c-2 -1 -4 -2 -6 -2h-2c-4 0 -7 1 -10 2zM302 635c4 4 5 9 6 13h7c-1 -6 -3 -12 -7 -17z" />
    <glyph glyph-name="Zcaron" unicode="&#x17d;" horiz-adv-x="486" 
d="M90 582v14h52v-14h-52zM179 582v14h52v-14h-52zM268 582v14h52v-14h-52zM389 542l-12 7l19 33h-40v14h64zM371 511l-25 -44l-12 7l25 44zM290 398l26 45l12 -7l-26 -45zM285 360l-26 -44l-12 7l25 44zM203 248l26 44l12 -7l-25 -44zM198 210l-26 -44l-12 7l26 44zM117 97
l25 45l12 -7l-25 -45zM132 26v-14h-66l33 55l12 -7l-20 -34h41zM220 26v-14h-52v14h52zM309 26v-14h-52v14h52zM346 12v14h52v-14h-52zM194 719l-13 20l12 8l13 -20zM217 685l-13 20l11 8l14 -20zM286 727l14 20l12 -8l-14 -20zM289 705l-14 -20l-11 8l13 20zM254 678l12 -7
l-13 -21h-13l-14 21l12 7l8 -12z" />
    <glyph glyph-name="zcaron" unicode="&#x17e;" horiz-adv-x="403" 
d="M260 10v14h52v-14h-52zM170 10v14h53v-14h-53zM133 24v-14h-67l41 49l10 -9l-21 -26h37zM170 112l-31 -37l-11 9l31 37zM212 183l11 -9l-31 -36l-11 9zM264 246l11 -9l-31 -37l-10 9zM270 297v14h67l-40 -49l-11 9l21 26h-37zM233 311v-14h-52v14h52zM144 311v-14h-53v14
h53zM154 449l-13 20l12 8l13 -20zM177 415l-13 20l11 8l14 -20zM246 457l14 20l12 -8l-14 -20zM249 435l-14 -20l-11 8l13 20zM214 408l12 -7l-13 -21h-13l-14 21l12 7l8 -12z" />
    <glyph glyph-name="Scaron" unicode="&#x160;" horiz-adv-x="469" 
d="M369 506c5 -16 8 -33 8 -50h-14c0 16 -3 31 -7 46zM343 532c-7 13 -17 26 -29 35l9 11c13 -11 24 -24 32 -39zM293 597l-6 -13c-14 7 -30 11 -45 13l2 13c17 -1 33 -6 49 -13zM209 598c-15 -1 -30 -4 -45 -11l-5 13c16 7 33 11 50 12v-14zM136 572
c-13 -9 -25 -19 -33 -32l-11 8c9 14 22 26 36 36zM67 466v8c0 15 3 29 7 43l14 -5c-4 -12 -7 -25 -7 -38v-7zM96 386c-10 14 -21 28 -24 45l14 4c2 -15 12 -28 21 -40zM171 350l-5 -13c-15 7 -30 15 -44 25l9 11c12 -9 26 -16 40 -23zM248 321l-5 -14c-15 6 -30 12 -45 17
l5 13c15 -5 30 -10 45 -16zM324 283l-8 -12c-13 10 -28 16 -41 24l6 13c14 -9 29 -15 43 -25zM342 251l10 10c10 -13 24 -23 31 -39l-12 -7c-6 14 -19 24 -29 36zM403 139l-14 1c-1 15 0 31 -5 45l13 4c6 -16 5 -33 6 -50zM398 104c-7 -16 -12 -32 -22 -47l-11 8
c9 13 13 28 19 42zM344 41l9 -11c-15 -8 -27 -21 -44 -25l-5 13c15 4 26 16 40 23zM272 9l3 -13c-12 -2 -23 -4 -35 -4c-5 0 -10 1 -16 1l2 14c15 -2 31 0 46 2zM193 13l-3 -14c-17 3 -32 12 -47 19l7 12c14 -7 28 -15 43 -17zM125 50l-10 -10c-12 12 -23 26 -30 41l13 7
c6 -14 16 -27 27 -38zM72 114c-4 17 -6 34 -6 50h14c0 -15 2 -31 6 -46zM174 719l-13 20l12 8l13 -20zM197 685l-13 20l11 8l14 -20zM266 727l14 20l12 -8l-14 -20zM269 705l-14 -20l-11 8l13 20zM234 678l12 -7l-13 -21h-13l-14 21l12 7l8 -12z" />
    <glyph glyph-name="scaron" unicode="&#x161;" horiz-adv-x="391" 
d="M317 234l-14 2c0 14 -6 29 -15 40l11 9c11 -14 18 -31 18 -48v-3zM219 309l2 14c17 -1 34 -8 50 -14l-7 -13c-14 6 -29 12 -45 13zM138 305l-3 13c16 5 33 7 50 7l1 -14c-16 0 -32 -2 -48 -6zM71 260c2 18 15 34 30 44l8 -12c-12 -8 -23 -20 -24 -35zM117 188
c-16 7 -32 17 -41 34l13 6c7 -13 20 -21 34 -27zM203 180l-3 -13c-16 3 -33 6 -49 10l4 14c16 -4 32 -7 48 -11zM285 155l-8 -12c-13 8 -28 12 -44 16l4 14c16 -4 33 -9 48 -18zM312 129c8 -11 13 -25 13 -39c0 -4 -1 -9 -2 -13l-13 3c2 14 -1 30 -9 42zM269 9l-6 13
c14 6 25 17 34 29l12 -8c-11 -14 -24 -26 -40 -34zM232 11l3 -14c-17 -4 -34 -4 -51 -4l1 14c15 0 31 0 47 4zM152 12l-4 -14c-16 4 -33 10 -47 21l8 11c12 -10 28 -15 43 -18zM89 53l-13 -6c-6 13 -10 27 -10 42c0 3 0 7 1 10l13 -2c-1 -15 2 -30 9 -44zM144 449l-13 20
l12 8l13 -20zM167 415l-13 20l11 8l14 -20zM236 457l14 20l12 -8l-14 -20zM239 435l-14 -20l-11 8l13 20zM204 408l12 -7l-13 -21h-13l-14 21l12 7l8 -12z" />
    <glyph glyph-name="Yacute" unicode="&#xdd;" horiz-adv-x="478" 
d="M66 593l12 7l21 -39l-12 -6zM134 495l-12 -6l-21 38l12 7zM136 461l12 7l21 -39l-12 -6zM204 363l-12 -6l-21 38l12 7zM388 600l12 -7l-20 -38l-13 6zM345 489l-13 6l21 39l12 -7zM310 423l-13 6l21 39l12 -7zM262 363l21 39l12 -7l-20 -38zM260 329l-20 -38v-35h-14v35
l-20 38l12 7l15 -28l15 28zM226 174v48h14v-48h-14zM226 92v48h14v-48h-14zM226 10v48h14v-48h-14zM201 656l21 21l10 -10l-21 -21zM237 692l21 21l10 -10l-21 -21zM273 728l21 21l10 -10l-21 -21z" />
    <glyph glyph-name="yacute" unicode="&#xfd;" horiz-adv-x="408" 
d="M314 268l-13 5l17 45l13 -5zM284 192l-13 5l18 45l13 -5zM242 121l17 45l13 -5l-17 -45zM212 45l17 45l14 -5l-18 -45zM153 -107l17 45l13 -6l-17 -44zM123 -183l18 44l13 -5l-18 -44zM99 268l-13 -5l-20 50l13 5zM114 233l20 -49l-13 -6l-20 50zM156 94l-20 49l13 6
l20 -50zM204 14l-3 -1l12 -5l-18 -44l-13 5l17 43l-8 -3l-20 50l12 5zM171 366l21 21l10 -10l-21 -21zM207 402l21 21l10 -10l-21 -21zM243 438l21 21l10 -10l-21 -21z" />
    <glyph glyph-name="Eth" unicode="&#xd0;" horiz-adv-x="517" 
d="M123 589v-40h-14v46h1v8h50v-14h-37zM123 517v-45h-14v45h14zM123 440v-46h-14v46h14zM109 317v45h14v-45h-14zM123 285v-45h-14v45h14zM123 208v-46h-14v46h14zM123 130v-45h-14v45h14zM123 53v-37h37v-14h-50v5h-1v46h14zM243 603v-14h-49v14h49zM327 582l-7 -12
c-14 8 -28 15 -43 16l2 14c17 -1 33 -9 48 -18zM377 514c-10 12 -18 27 -31 36l10 11c13 -11 22 -26 32 -39zM425 445l-13 -5c-4 16 -11 31 -19 45l13 6c8 -14 15 -30 19 -46zM431 360l-9 48l13 3l10 -49zM433 326l14 1c1 -7 1 -13 1 -20v-8c0 -7 0 -15 -1 -22l-14 1
c2 16 2 32 0 48zM422 196l9 48l14 -2l-10 -49zM393 120c8 13 15 28 19 44l13 -5c-4 -16 -11 -31 -19 -46zM346 54c13 10 21 24 31 36l11 -7c-10 -14 -19 -29 -32 -39zM277 18c15 1 29 9 43 16l7 -12c-15 -8 -31 -17 -48 -17zM194 2v14h49v-14h-49zM108 333v-14h-39v14h39z
M175 333v-14h-40v14h40zM241 333v-14h-39v14h39z" />
    <glyph glyph-name="eth" unicode="&#xf0;" horiz-adv-x="447" 
d="M345 86c8 13 11 28 15 42l14 -2c-4 -16 -8 -32 -16 -47zM295 29c12 8 24 18 33 30l11 -9c-10 -13 -23 -23 -36 -33zM223 7c15 2 30 2 44 8l5 -13c-16 -7 -32 -7 -49 -9v14zM144 17l7 12c13 -8 27 -14 41 -18l-3 -14c-16 5 -32 11 -45 20zM89 79l12 7c6 -14 16 -26 26 -37
l-10 -10c-11 13 -22 25 -28 40zM83 160c2 -15 1 -31 7 -45l-14 -4c-5 16 -5 33 -7 49h14zM101 234c-8 -13 -11 -28 -15 -43l-14 3c5 16 8 32 17 46zM151 290c-12 -8 -24 -18 -33 -30l-11 9c10 13 23 24 37 33zM179 304l-4 14c15 6 32 7 48 9v-14c-15 -2 -30 -3 -44 -9z
M254 309l4 13c16 -4 31 -10 45 -20l-8 -12c-12 9 -26 14 -41 19zM319 271l10 9c11 -12 22 -25 29 -40l-13 -6c-6 14 -16 25 -26 37zM357 204l13 4c6 -15 6 -32 7 -48h-14c-1 15 -1 30 -6 44zM167 583c-16 4 -33 5 -50 6v14c18 -1 36 -2 53 -7zM253 557l-9 -11
c-13 10 -28 19 -43 26l5 13c17 -8 33 -17 47 -28zM281 532c12 -13 24 -27 33 -42l-12 -8c-9 15 -19 28 -31 41zM339 403c-6 16 -11 33 -20 48l13 6c9 -16 14 -33 20 -49zM358 318c-2 17 -7 34 -10 51l14 3c3 -18 7 -35 9 -52zM362 282l14 1l2 -53h-14zM170 472l32 29l9 -10
l-32 -29zM233 511l-9 10l32 29l10 -11zM288 559l-9 11l32 28l9 -10z" />
    <glyph glyph-name="Thorn" unicode="&#xde;" horiz-adv-x="443" 
d="M83 597v-45h-14v45h14zM83 520v-46h-14v46h14zM69 396v46h14v-46h-14zM69 319v45h14v-45h-14zM69 241v46h14v-46h-14zM69 163v46h14v-46h-14zM69 86v45h14v-45h-14zM69 8v46h14v-46h-14zM81 454v14h46v-14h-46zM205 468v-14h-46v14h46zM284 450l-6 -13
c-13 8 -28 11 -42 14l3 14c15 -4 31 -7 45 -15zM334 389c-9 12 -18 23 -30 32l8 11c13 -9 24 -22 34 -34zM374 322l-14 -2c0 15 -7 29 -11 43l13 5c5 -15 12 -30 12 -46zM351 247c4 14 9 28 9 43l14 -2c0 -16 -5 -31 -10 -46zM307 187c12 9 20 21 30 33l11 -8
c-10 -13 -19 -26 -32 -35zM241 155c13 4 28 7 41 15l6 -12c-13 -9 -29 -12 -45 -17zM164 137v14h46v-14h-46zM85 137v14h47v-14h-47z" />
    <glyph glyph-name="fi" unicode="&#xfb01;" horiz-adv-x="543" 
d="M335 541c-10 13 -23 23 -37 32l7 12c16 -10 30 -21 42 -36zM266 585c-7 2 -15 3 -22 3c-9 0 -18 -1 -27 -3l-2 14c9 2 19 3 29 3c8 0 17 -1 25 -3zM155 539l-13 4c6 18 19 35 36 43l7 -12c-14 -7 -24 -21 -30 -35zM137 422v48l14 1v-49h-14zM137 339v49h14v-49h-14z
M151 305v-49h-14v49h14zM151 222v-49h-14v49h14zM151 139v-49h-14v49h14zM137 7v49h14v-49h-14zM110 335v-14h-44v14h44zM184 335v-14h-44v14h44zM259 335v-14h-44v14h44zM453 312v-50h-14v50h14zM453 227v-50h-14v50h14zM439 93v49h14v-49h-14zM453 58v-50h-14v50h14z
M452 406c4 2 8 5 10 9l6 -3c-3 -6 -8 -10 -14 -12zM441 399c-7 1 -12 5 -16 10l6 4c2 -4 6 -7 11 -7zM425 440l6 -4c-3 -3 -4 -7 -4 -11v-3h-7v2c0 6 1 11 5 16zM435 448c3 1 7 2 10 2h2c3 0 5 0 7 -1l-2 -7c-5 2 -10 1 -14 0zM472 424h-7c0 5 -2 10 -5 13l5 5
c5 -5 7 -11 7 -18z" />
    <glyph glyph-name="periodcentered" unicode="&#xb7;" horiz-adv-x="194" 
d="M119 278l-6 -3c-2 4 -6 7 -10 9l2 6c6 -2 11 -6 14 -12zM92 291l1 -7c-5 0 -9 -3 -11 -7l-6 4c3 5 9 9 16 10zM78 268c0 -5 1 -10 4 -13l-6 -5c-3 4 -5 9 -5 14v3v2zM89 248c2 -1 5 -1 7 -1h2c2 0 3 0 5 1l2 -7c-2 -1 -5 -1 -7 -1h-2c-3 0 -7 1 -10 2zM111 253
c3 3 5 8 5 13h7c0 -7 -2 -13 -7 -18z" />
    <glyph glyph-name="fraction" unicode="&#x2044;" horiz-adv-x="531" 
d="M118 6l21 46l13 -6l-22 -46zM154 84l22 46l13 -6l-22 -46zM191 162l22 45l13 -6l-22 -45zM228 239l22 46l13 -6l-22 -46zM265 317l22 46l13 -6l-22 -46zM337 434l-22 -45l-13 6l22 45zM373 512l-21 -46l-13 6l22 46zM410 590l-21 -46l-13 6l22 46z" />
    <glyph glyph-name="Lslash" unicode="&#x141;" 
d="M69 364l41 27l8 -11l-41 -28zM138 411l41 27l8 -12l-41 -27zM207 457l41 28l8 -12l-41 -27zM277 504l40 28l8 -12l-41 -27zM277 386l7 11l41 -27l-8 -12zM207 433l8 11l41 -27l-8 -12zM138 479l8 12l41 -28l-8 -11zM69 526l8 12l41 -28l-8 -11zM191 542v48h14v-48h-14z
M191 462v47h14v-47h-14zM191 381v47h14v-47h-14zM191 300v48h14v-48h-14z" />
    <glyph glyph-name="lslash" unicode="&#x142;" 
d="M69 364l41 27l8 -11l-41 -28zM138 411l41 27l8 -12l-41 -27zM207 457l41 28l8 -12l-41 -27zM277 504l40 28l8 -12l-41 -27zM277 386l7 11l41 -27l-8 -12zM207 433l8 11l41 -27l-8 -12zM138 479l8 12l41 -28l-8 -11zM69 526l8 12l41 -28l-8 -11zM191 542v48h14v-48h-14z
M191 462v47h14v-47h-14zM191 381v47h14v-47h-14zM191 300v48h14v-48h-14z" />
    <glyph glyph-name="notequal" unicode="&#x2260;" 
d="M69 364l41 27l8 -11l-41 -28zM138 411l41 27l8 -12l-41 -27zM207 457l41 28l8 -12l-41 -27zM277 504l40 28l8 -12l-41 -27zM277 386l7 11l41 -27l-8 -12zM207 433l8 11l41 -27l-8 -12zM138 479l8 12l41 -28l-8 -11zM69 526l8 12l41 -28l-8 -11zM191 542v48h14v-48h-14z
M191 462v47h14v-47h-14zM191 381v47h14v-47h-14zM191 300v48h14v-48h-14z" />
    <glyph glyph-name="infinity" unicode="&#x221e;" 
d="M69 364l41 27l8 -11l-41 -28zM138 411l41 27l8 -12l-41 -27zM207 457l41 28l8 -12l-41 -27zM277 504l40 28l8 -12l-41 -27zM277 386l7 11l41 -27l-8 -12zM207 433l8 11l41 -27l-8 -12zM138 479l8 12l41 -28l-8 -11zM69 526l8 12l41 -28l-8 -11zM191 542v48h14v-48h-14z
M191 462v47h14v-47h-14zM191 381v47h14v-47h-14zM191 300v48h14v-48h-14z" />
    <glyph glyph-name="plusminus" unicode="&#xb1;" 
d="M69 364l41 27l8 -11l-41 -28zM138 411l41 27l8 -12l-41 -27zM207 457l41 28l8 -12l-41 -27zM277 504l40 28l8 -12l-41 -27zM277 386l7 11l41 -27l-8 -12zM207 433l8 11l41 -27l-8 -12zM138 479l8 12l41 -28l-8 -11zM69 526l8 12l41 -28l-8 -11zM191 542v48h14v-48h-14z
M191 462v47h14v-47h-14zM191 381v47h14v-47h-14zM191 300v48h14v-48h-14z" />
    <glyph glyph-name="lessequal" unicode="&#x2264;" 
d="M69 364l41 27l8 -11l-41 -28zM138 411l41 27l8 -12l-41 -27zM207 457l41 28l8 -12l-41 -27zM277 504l40 28l8 -12l-41 -27zM277 386l7 11l41 -27l-8 -12zM207 433l8 11l41 -27l-8 -12zM138 479l8 12l41 -28l-8 -11zM69 526l8 12l41 -28l-8 -11zM191 542v48h14v-48h-14z
M191 462v47h14v-47h-14zM191 381v47h14v-47h-14zM191 300v48h14v-48h-14z" />
    <glyph glyph-name="greaterequal" unicode="&#x2265;" 
d="M69 364l41 27l8 -11l-41 -28zM138 411l41 27l8 -12l-41 -27zM207 457l41 28l8 -12l-41 -27zM277 504l40 28l8 -12l-41 -27zM277 386l7 11l41 -27l-8 -12zM207 433l8 11l41 -27l-8 -12zM138 479l8 12l41 -28l-8 -11zM69 526l8 12l41 -28l-8 -11zM191 542v48h14v-48h-14z
M191 462v47h14v-47h-14zM191 381v47h14v-47h-14zM191 300v48h14v-48h-14z" />
    <glyph glyph-name="mu" unicode="&#xb5;" 
d="M69 364l41 27l8 -11l-41 -28zM138 411l41 27l8 -12l-41 -27zM207 457l41 28l8 -12l-41 -27zM277 504l40 28l8 -12l-41 -27zM277 386l7 11l41 -27l-8 -12zM207 433l8 11l41 -27l-8 -12zM138 479l8 12l41 -28l-8 -11zM69 526l8 12l41 -28l-8 -11zM191 542v48h14v-48h-14z
M191 462v47h14v-47h-14zM191 381v47h14v-47h-14zM191 300v48h14v-48h-14z" />
    <glyph glyph-name="mu" unicode="&#x3bc;" 
d="M69 364l41 27l8 -11l-41 -28zM138 411l41 27l8 -12l-41 -27zM207 457l41 28l8 -12l-41 -27zM277 504l40 28l8 -12l-41 -27zM277 386l7 11l41 -27l-8 -12zM207 433l8 11l41 -27l-8 -12zM138 479l8 12l41 -28l-8 -11zM69 526l8 12l41 -28l-8 -11zM191 542v48h14v-48h-14z
M191 462v47h14v-47h-14zM191 381v47h14v-47h-14zM191 300v48h14v-48h-14z" />
    <glyph glyph-name="partialdiff" unicode="&#x2202;" 
d="M69 364l41 27l8 -11l-41 -28zM138 411l41 27l8 -12l-41 -27zM207 457l41 28l8 -12l-41 -27zM277 504l40 28l8 -12l-41 -27zM277 386l7 11l41 -27l-8 -12zM207 433l8 11l41 -27l-8 -12zM138 479l8 12l41 -28l-8 -11zM69 526l8 12l41 -28l-8 -11zM191 542v48h14v-48h-14z
M191 462v47h14v-47h-14zM191 381v47h14v-47h-14zM191 300v48h14v-48h-14z" />
    <glyph glyph-name="summation" unicode="&#x2211;" 
d="M69 364l41 27l8 -11l-41 -28zM138 411l41 27l8 -12l-41 -27zM207 457l41 28l8 -12l-41 -27zM277 504l40 28l8 -12l-41 -27zM277 386l7 11l41 -27l-8 -12zM207 433l8 11l41 -27l-8 -12zM138 479l8 12l41 -28l-8 -11zM69 526l8 12l41 -28l-8 -11zM191 542v48h14v-48h-14z
M191 462v47h14v-47h-14zM191 381v47h14v-47h-14zM191 300v48h14v-48h-14z" />
    <glyph glyph-name="product" unicode="&#x220f;" 
d="M69 364l41 27l8 -11l-41 -28zM138 411l41 27l8 -12l-41 -27zM207 457l41 28l8 -12l-41 -27zM277 504l40 28l8 -12l-41 -27zM277 386l7 11l41 -27l-8 -12zM207 433l8 11l41 -27l-8 -12zM138 479l8 12l41 -28l-8 -11zM69 526l8 12l41 -28l-8 -11zM191 542v48h14v-48h-14z
M191 462v47h14v-47h-14zM191 381v47h14v-47h-14zM191 300v48h14v-48h-14z" />
    <glyph glyph-name="pi" unicode="&#x3c0;" 
d="M69 364l41 27l8 -11l-41 -28zM138 411l41 27l8 -12l-41 -27zM207 457l41 28l8 -12l-41 -27zM277 504l40 28l8 -12l-41 -27zM277 386l7 11l41 -27l-8 -12zM207 433l8 11l41 -27l-8 -12zM138 479l8 12l41 -28l-8 -11zM69 526l8 12l41 -28l-8 -11zM191 542v48h14v-48h-14z
M191 462v47h14v-47h-14zM191 381v47h14v-47h-14zM191 300v48h14v-48h-14z" />
    <glyph glyph-name="integral" unicode="&#x222b;" 
d="M69 364l41 27l8 -11l-41 -28zM138 411l41 27l8 -12l-41 -27zM207 457l41 28l8 -12l-41 -27zM277 504l40 28l8 -12l-41 -27zM277 386l7 11l41 -27l-8 -12zM207 433l8 11l41 -27l-8 -12zM138 479l8 12l41 -28l-8 -11zM69 526l8 12l41 -28l-8 -11zM191 542v48h14v-48h-14z
M191 462v47h14v-47h-14zM191 381v47h14v-47h-14zM191 300v48h14v-48h-14z" />
    <glyph glyph-name="Omega" unicode="&#x3a9;" 
d="M69 364l41 27l8 -11l-41 -28zM138 411l41 27l8 -12l-41 -27zM207 457l41 28l8 -12l-41 -27zM277 504l40 28l8 -12l-41 -27zM277 386l7 11l41 -27l-8 -12zM207 433l8 11l41 -27l-8 -12zM138 479l8 12l41 -28l-8 -11zM69 526l8 12l41 -28l-8 -11zM191 542v48h14v-48h-14z
M191 462v47h14v-47h-14zM191 381v47h14v-47h-14zM191 300v48h14v-48h-14z" />
    <glyph glyph-name="Omega" unicode="&#x2126;" 
d="M69 364l41 27l8 -11l-41 -28zM138 411l41 27l8 -12l-41 -27zM207 457l41 28l8 -12l-41 -27zM277 504l40 28l8 -12l-41 -27zM277 386l7 11l41 -27l-8 -12zM207 433l8 11l41 -27l-8 -12zM138 479l8 12l41 -28l-8 -11zM69 526l8 12l41 -28l-8 -11zM191 542v48h14v-48h-14z
M191 462v47h14v-47h-14zM191 381v47h14v-47h-14zM191 300v48h14v-48h-14z" />
    <glyph glyph-name="logicalnot" unicode="&#xac;" 
d="M69 364l41 27l8 -11l-41 -28zM138 411l41 27l8 -12l-41 -27zM207 457l41 28l8 -12l-41 -27zM277 504l40 28l8 -12l-41 -27zM277 386l7 11l41 -27l-8 -12zM207 433l8 11l41 -27l-8 -12zM138 479l8 12l41 -28l-8 -11zM69 526l8 12l41 -28l-8 -11zM191 542v48h14v-48h-14z
M191 462v47h14v-47h-14zM191 381v47h14v-47h-14zM191 300v48h14v-48h-14z" />
    <glyph glyph-name="radical" unicode="&#x221a;" 
d="M69 364l41 27l8 -11l-41 -28zM138 411l41 27l8 -12l-41 -27zM207 457l41 28l8 -12l-41 -27zM277 504l40 28l8 -12l-41 -27zM277 386l7 11l41 -27l-8 -12zM207 433l8 11l41 -27l-8 -12zM138 479l8 12l41 -28l-8 -11zM69 526l8 12l41 -28l-8 -11zM191 542v48h14v-48h-14z
M191 462v47h14v-47h-14zM191 381v47h14v-47h-14zM191 300v48h14v-48h-14z" />
    <glyph glyph-name="florin" unicode="&#x192;" 
d="M69 364l41 27l8 -11l-41 -28zM138 411l41 27l8 -12l-41 -27zM207 457l41 28l8 -12l-41 -27zM277 504l40 28l8 -12l-41 -27zM277 386l7 11l41 -27l-8 -12zM207 433l8 11l41 -27l-8 -12zM138 479l8 12l41 -28l-8 -11zM69 526l8 12l41 -28l-8 -11zM191 542v48h14v-48h-14z
M191 462v47h14v-47h-14zM191 381v47h14v-47h-14zM191 300v48h14v-48h-14z" />
    <glyph glyph-name="approxequal" unicode="&#x2248;" 
d="M69 364l41 27l8 -11l-41 -28zM138 411l41 27l8 -12l-41 -27zM207 457l41 28l8 -12l-41 -27zM277 504l40 28l8 -12l-41 -27zM277 386l7 11l41 -27l-8 -12zM207 433l8 11l41 -27l-8 -12zM138 479l8 12l41 -28l-8 -11zM69 526l8 12l41 -28l-8 -11zM191 542v48h14v-48h-14z
M191 462v47h14v-47h-14zM191 381v47h14v-47h-14zM191 300v48h14v-48h-14z" />
    <glyph glyph-name="Delta" unicode="&#x394;" 
d="M69 364l41 27l8 -11l-41 -28zM138 411l41 27l8 -12l-41 -27zM207 457l41 28l8 -12l-41 -27zM277 504l40 28l8 -12l-41 -27zM277 386l7 11l41 -27l-8 -12zM207 433l8 11l41 -27l-8 -12zM138 479l8 12l41 -28l-8 -11zM69 526l8 12l41 -28l-8 -11zM191 542v48h14v-48h-14z
M191 462v47h14v-47h-14zM191 381v47h14v-47h-14zM191 300v48h14v-48h-14z" />
    <glyph glyph-name="Delta" unicode="&#x2206;" 
d="M69 364l41 27l8 -11l-41 -28zM138 411l41 27l8 -12l-41 -27zM207 457l41 28l8 -12l-41 -27zM277 504l40 28l8 -12l-41 -27zM277 386l7 11l41 -27l-8 -12zM207 433l8 11l41 -27l-8 -12zM138 479l8 12l41 -28l-8 -11zM69 526l8 12l41 -28l-8 -11zM191 542v48h14v-48h-14z
M191 462v47h14v-47h-14zM191 381v47h14v-47h-14zM191 300v48h14v-48h-14z" />
    <glyph glyph-name="uni00A0" unicode="&#xa0;" horiz-adv-x="0" 
 />
    <glyph glyph-name="lozenge" unicode="&#x25ca;" 
d="M69 364l41 27l8 -11l-41 -28zM138 411l41 27l8 -12l-41 -27zM207 457l41 28l8 -12l-41 -27zM277 504l40 28l8 -12l-41 -27zM277 386l7 11l41 -27l-8 -12zM207 433l8 11l41 -27l-8 -12zM138 479l8 12l41 -28l-8 -11zM69 526l8 12l41 -28l-8 -11zM191 542v48h14v-48h-14z
M191 462v47h14v-47h-14zM191 381v47h14v-47h-14zM191 300v48h14v-48h-14z" />
    <glyph glyph-name="apple" 
d="M69 364l41 27l8 -11l-41 -28zM138 411l41 27l8 -12l-41 -27zM207 457l41 28l8 -12l-41 -27zM277 504l40 28l8 -12l-41 -27zM277 386l7 11l41 -27l-8 -12zM207 433l8 11l41 -27l-8 -12zM138 479l8 12l41 -28l-8 -11zM69 526l8 12l41 -28l-8 -11zM191 542v48h14v-48h-14z
M191 462v47h14v-47h-14zM191 381v47h14v-47h-14zM191 300v48h14v-48h-14z" />
    <glyph glyph-name="macron" unicode="&#xaf;" 
d="M69 364l41 27l8 -11l-41 -28zM138 411l41 27l8 -12l-41 -27zM207 457l41 28l8 -12l-41 -27zM277 504l40 28l8 -12l-41 -27zM277 386l7 11l41 -27l-8 -12zM207 433l8 11l41 -27l-8 -12zM138 479l8 12l41 -28l-8 -11zM69 526l8 12l41 -28l-8 -11zM191 542v48h14v-48h-14z
M191 462v47h14v-47h-14zM191 381v47h14v-47h-14zM191 300v48h14v-48h-14z" />
    <glyph glyph-name="breve" unicode="&#x2d8;" 
d="M69 364l41 27l8 -11l-41 -28zM138 411l41 27l8 -12l-41 -27zM207 457l41 28l8 -12l-41 -27zM277 504l40 28l8 -12l-41 -27zM277 386l7 11l41 -27l-8 -12zM207 433l8 11l41 -27l-8 -12zM138 479l8 12l41 -28l-8 -11zM69 526l8 12l41 -28l-8 -11zM191 542v48h14v-48h-14z
M191 462v47h14v-47h-14zM191 381v47h14v-47h-14zM191 300v48h14v-48h-14z" />
    <glyph glyph-name="dotaccent" unicode="&#x2d9;" 
d="M69 364l41 27l8 -11l-41 -28zM138 411l41 27l8 -12l-41 -27zM207 457l41 28l8 -12l-41 -27zM277 504l40 28l8 -12l-41 -27zM277 386l7 11l41 -27l-8 -12zM207 433l8 11l41 -27l-8 -12zM138 479l8 12l41 -28l-8 -11zM69 526l8 12l41 -28l-8 -11zM191 542v48h14v-48h-14z
M191 462v47h14v-47h-14zM191 381v47h14v-47h-14zM191 300v48h14v-48h-14z" />
    <glyph glyph-name="hungarumlaut" unicode="&#x2dd;" 
d="M69 364l41 27l8 -11l-41 -28zM138 411l41 27l8 -12l-41 -27zM207 457l41 28l8 -12l-41 -27zM277 504l40 28l8 -12l-41 -27zM277 386l7 11l41 -27l-8 -12zM207 433l8 11l41 -27l-8 -12zM138 479l8 12l41 -28l-8 -11zM69 526l8 12l41 -28l-8 -11zM191 542v48h14v-48h-14z
M191 462v47h14v-47h-14zM191 381v47h14v-47h-14zM191 300v48h14v-48h-14z" />
    <glyph glyph-name="ogonek" unicode="&#x2db;" 
d="M69 364l41 27l8 -11l-41 -28zM138 411l41 27l8 -12l-41 -27zM207 457l41 28l8 -12l-41 -27zM277 504l40 28l8 -12l-41 -27zM277 386l7 11l41 -27l-8 -12zM207 433l8 11l41 -27l-8 -12zM138 479l8 12l41 -28l-8 -11zM69 526l8 12l41 -28l-8 -11zM191 542v48h14v-48h-14z
M191 462v47h14v-47h-14zM191 381v47h14v-47h-14zM191 300v48h14v-48h-14z" />
    </font>
</defs>
</svg>
