<?xml version="1.0" standalone="no"?>
<!DOCTYPE svg PUBLIC "-//W3C//DTD SVG 1.1//EN" "http://www.w3.org/Graphics/SVG/1.1/DTD/svg11.dtd" >
<svg xmlns="http://www.w3.org/2000/svg" xmlns:xlink="http://www.w3.org/1999/xlink" version="1.1">
<metadata>
Created by FontForge 20230101 at Thu Oct 12 04:59:38 2023
 By Glenn Lewis
Copyright 2018 The Roboto Slab Project Authors (https://github.com/googlefonts/robotoslab)
</metadata>
<defs>
<font id="RobotoSlab-ExtraBold" horiz-adv-x="0" >
  <font-face 
    font-family="Roboto Slab ExtraBold"
    font-weight="800"
    font-stretch="normal"
    units-per-em="2048"
    panose-1="0 0 0 0 0 0 0 0 0 0"
    ascent="1638"
    descent="-410"
    x-height="1082"
    cap-height="1456"
    bbox="-379 -555 2770 2146"
    underline-thickness="100"
    underline-position="-200"
    unicode-range="U+000D-FFFD"
  />
<missing-glyph horiz-adv-x="1038" 
d="M100 0v1456h838v-1456h-838zM120 20h60l738 1416h-60zM858 20h60l-738 1416h-60zM154 54h730v1348h-730v-1348z" />
    <glyph glyph-name="fi" unicode="fi" horiz-adv-x="1366" 
d="M36 0v189l153 31v639h-158v223h158v61q0 211 130 324.5t367 113.5q82 0 160.5 -15t182.5 -44l-44 -251q-74 21 -137.5 32.5t-127.5 11.5q-106 0 -158.5 -44.5t-52.5 -127.5v-61h668v-862l152 -31v-189h-607v189l135 31v639h-348v-639l135 -31v-189h-608z" />
    <glyph glyph-name="fl" unicode="fl" horiz-adv-x="1442" 
d="M36 0v189l153 31v639h-133v223h133v38q0 222 135 341.5t383 119.5q86 0 170 -15t195 -45h196v-1301l134 -31v-189h-589v189l135 31v1087q-59 12 -109.5 18.5t-100.5 6.5q-115 0 -172 -54t-57 -158v-38h237v-223h-237v-639l135 -31v-189h-608z" />
    <glyph glyph-name=".notdef" horiz-adv-x="1038" 
d="M100 0v1456h838v-1456h-838zM120 20h60l738 1416h-60zM858 20h60l-738 1416h-60zM154 54h730v1348h-730v-1348z" />
    <glyph glyph-name="A" unicode="A" horiz-adv-x="1506" 
d="M32 0v189l104 15l449 1252h337l448 -1252l103 -15v-189h-518v189l98 18l-55 180h-491l-53 -180l98 -18v-189h-520zM579 617h347l-156 472l-15 47h-6l-16 -51z" />
    <glyph glyph-name="Aacute" unicode="&#xc1;" horiz-adv-x="1506" 
d="M32 0v189l104 15l449 1252h337l448 -1252l103 -15v-189h-518v189l98 18l-55 180h-491l-53 -180l98 -18v-189h-520zM579 617h347l-156 472l-15 47h-6l-16 -51zM564 1565l203 273h332l2 -6l-277 -267h-253h-7z" />
    <glyph glyph-name="Abreve" unicode="&#x102;" horiz-adv-x="1506" 
d="M32 0v189l104 15l449 1252h337l448 -1252l103 -15v-189h-518v189l98 18l-55 180h-491l-53 -180l98 -18v-189h-520zM579 617h347l-156 472l-15 47h-6l-16 -51zM755 1539q-166 0 -265 82t-93 211l2 6h212q0 -54 34.5 -90t109.5 -36q73 0 107 35t34 91h214l2 -6
q3 -129 -94 -211t-263 -82z" />
    <glyph glyph-name="uni1EAE" unicode="&#x1eae;" horiz-adv-x="1506" 
d="M32 0v189l104 15l449 1252h337l448 -1252l103 -15v-189h-518v189l98 18l-55 180h-491l-53 -180l98 -18v-189h-520zM579 617h347l-156 472l-15 47h-6l-16 -51zM747 1506q-166 0 -265 75.5t-93 194.5l2 6h207q0 -49 36 -81t113 -32q76 0 111.5 31.5t35.5 81.5h208l2 -6
q4 -119 -93.5 -194.5t-263.5 -75.5zM643 1788l110 225h264l2 -6l-200 -219h-168h-8z" />
    <glyph glyph-name="uni1EB6" unicode="&#x1eb6;" horiz-adv-x="1506" 
d="M32 0v189l104 15l449 1252h337l448 -1252l103 -15v-189h-518v189l98 18l-55 180h-491l-53 -180l98 -18v-189h-520zM579 617h347l-156 472l-15 47h-6l-16 -51zM755 1539q-166 0 -265 82t-93 211l2 6h212q0 -54 34.5 -90t109.5 -36q73 0 107 35t34 91h214l2 -6
q3 -129 -94 -211t-263 -82zM588 -412v260h330v-260h-330z" />
    <glyph glyph-name="uni1EB0" unicode="&#x1eb0;" horiz-adv-x="1506" 
d="M32 0v189l104 15l449 1252h337l448 -1252l103 -15v-189h-518v189l98 18l-55 180h-491l-53 -180l98 -18v-189h-520zM579 617h347l-156 472l-15 47h-6l-16 -51zM762 1506q-166 0 -263.5 75.5t-93.5 194.5l2 6h208q0 -50 36 -81.5t111 -31.5q77 0 113 32t36 81h207l2 -6
q5 -119 -93 -194.5t-265 -75.5zM866 1788h-8h-168l-201 219l2 6h265z" />
    <glyph glyph-name="uni1EB2" unicode="&#x1eb2;" horiz-adv-x="1506" 
d="M32 0v189l104 15l449 1252h337l448 -1252l103 -15v-189h-518v189l98 18l-55 180h-491l-53 -180l98 -18v-189h-520zM579 617h347l-156 472l-15 47h-6l-16 -51zM754 1506q-166 0 -265 75.5t-93 194.5l2 6h208q0 -49 35.5 -81t112.5 -32q75 0 110.5 31.5t35.5 81.5h209l2 -6
q4 -119 -93.5 -194.5t-263.5 -75.5zM651 1777l-20 116q72 2 103.5 14t31.5 38q0 30 -35 42t-99 12l7 120q173 0 264.5 -41.5t91.5 -115.5q0 -55 -41.5 -86t-104.5 -39l-1 -60h-197z" />
    <glyph glyph-name="uni1EB4" unicode="&#x1eb4;" horiz-adv-x="1506" 
d="M32 0v189l104 15l449 1252h337l448 -1252l103 -15v-189h-518v189l98 18l-55 180h-491l-53 -180l98 -18v-189h-520zM579 617h347l-156 472l-15 47h-6l-16 -51zM753 1506q-166 0 -265 75.5t-93 194.5l2 6h208q0 -49 35.5 -81t112.5 -32q75 0 110.5 31.5t35.5 81.5h209l2 -6
q4 -119 -93.5 -194.5t-263.5 -75.5zM551 1826l-151 42q0 63 30 116t80 85.5t108 32.5q45 0 93.5 -22t92.5 -43.5t77 -21.5q39 0 61.5 29t22.5 70l150 -43q0 -64 -30.5 -117.5t-79.5 -85t-109 -31.5q-49 0 -97 22t-90.5 44t-75.5 22q-39 0 -60.5 -29.5t-21.5 -69.5z" />
    <glyph glyph-name="Acircumflex" unicode="&#xc2;" horiz-adv-x="1506" 
d="M32 0v189l104 15l449 1252h337l448 -1252l103 -15v-189h-518v189l98 18l-55 180h-491l-53 -180l98 -18v-189h-520zM579 617h347l-156 472l-15 47h-6l-16 -51zM376 1567v26l257 245h245l254 -248v-23h-248l-130 143l-134 -143h-244z" />
    <glyph glyph-name="uni1EA4" unicode="&#x1ea4;" horiz-adv-x="1506" 
d="M32 0v189l104 15l449 1252h337l448 -1252l103 -15v-189h-518v189l98 18l-55 180h-491l-53 -180l98 -18v-189h-520zM579 617h347l-156 472l-15 47h-6l-16 -51zM375 1527v26l257 226h247l254 -229v-23h-251l-128 128l-133 -128h-246zM956 1788l110 225h265l2 -6l-201 -219
h-168h-8z" />
    <glyph glyph-name="uni1EAC" unicode="&#x1eac;" horiz-adv-x="1506" 
d="M32 0v189l104 15l449 1252h337l448 -1252l103 -15v-189h-518v189l98 18l-55 180h-491l-53 -180l98 -18v-189h-520zM579 617h347l-156 472l-15 47h-6l-16 -51zM376 1567v26l257 245h245l254 -248v-23h-248l-130 143l-134 -143h-244zM588 -412v260h330v-260h-330z" />
    <glyph glyph-name="uni1EA6" unicode="&#x1ea6;" horiz-adv-x="1506" 
d="M32 0v189l104 15l449 1252h337l448 -1252l103 -15v-189h-518v189l98 18l-55 180h-491l-53 -180l98 -18v-189h-520zM579 617h347l-156 472l-15 47h-6l-16 -51zM1134 1527h-247l-133 128l-128 -128h-250v23l254 229h246l258 -226v-26zM552 1788h-7h-168l-201 219l2 6h265z
" />
    <glyph glyph-name="uni1EA8" unicode="&#x1ea8;" horiz-adv-x="1506" 
d="M32 0v189l104 15l449 1252h337l448 -1252l103 -15v-189h-518v189l98 18l-55 180h-491l-53 -180l98 -18v-189h-520zM579 617h347l-156 472l-15 47h-6l-16 -51zM375 1527v26l257 226h247l254 -229v-23h-251l-128 128l-133 -128h-246zM989 1734l-19 115q66 3 95.5 14.5
t29.5 37.5q0 30 -32.5 42t-91.5 12l7 120q168 0 257 -41.5t89 -115.5q0 -55 -39.5 -85.5t-99.5 -38.5l-1 -60h-195z" />
    <glyph glyph-name="uni1EAA" unicode="&#x1eaa;" horiz-adv-x="1506" 
d="M32 0v189l104 15l449 1252h337l448 -1252l103 -15v-189h-518v189l98 18l-55 180h-491l-53 -180l98 -18v-189h-520zM579 617h347l-156 472l-15 47h-6l-16 -51zM542 1826l-151 42q0 63 30 116t80 85.5t107 32.5q46 0 93.5 -22t91 -43.5t76.5 -21.5q39 0 61 29t22 70
l151 -43q-1 -64 -31 -117.5t-79.5 -85t-108.5 -31.5q-49 0 -96.5 22t-89 44t-74.5 22q-39 0 -60.5 -29.5t-21.5 -69.5zM375 1527v26l257 226h247l254 -229v-23h-251l-128 128l-133 -128h-246z" />
    <glyph glyph-name="Adieresis" unicode="&#xc4;" horiz-adv-x="1506" 
d="M32 0v189l104 15l449 1252h337l448 -1252l103 -15v-189h-518v189l98 18l-55 180h-491l-53 -180l98 -18v-189h-520zM579 617h347l-156 472l-15 47h-6l-16 -51zM833 1577v261h303v-261h-303zM373 1577v261h303v-261h-303z" />
    <glyph glyph-name="uni1EA0" unicode="&#x1ea0;" horiz-adv-x="1506" 
d="M32 0v189l104 15l449 1252h337l448 -1252l103 -15v-189h-518v189l98 18l-55 180h-491l-53 -180l98 -18v-189h-520zM579 617h347l-156 472l-15 47h-6l-16 -51zM588 -412v260h330v-260h-330z" />
    <glyph glyph-name="Agrave" unicode="&#xc0;" horiz-adv-x="1506" 
d="M32 0v189l104 15l449 1252h337l448 -1252l103 -15v-189h-518v189l98 18l-55 180h-491l-53 -180l98 -18v-189h-520zM579 617h347l-156 472l-15 47h-6l-16 -51zM944 1565h-7h-252l-278 267l2 6h332z" />
    <glyph glyph-name="uni1EA2" unicode="&#x1ea2;" horiz-adv-x="1506" 
d="M32 0v189l104 15l449 1252h337l448 -1252l103 -15v-189h-518v189l98 18l-55 180h-491l-53 -180l98 -18v-189h-520zM579 617h347l-156 472l-15 47h-6l-16 -51zM608 1533l-19 131q72 2 103.5 17t31.5 47q0 35 -36 50t-101 15l7 140q197 0 301 -51.5t104 -143.5
q0 -63 -43.5 -98.5t-105.5 -44.5l-1 -62h-241z" />
    <glyph glyph-name="Amacron" unicode="&#x100;" horiz-adv-x="1506" 
d="M32 0v189l104 15l449 1252h337l448 -1252l103 -15v-189h-518v189l98 18l-55 180h-491l-53 -180l98 -18v-189h-520zM579 617h347l-156 472l-15 47h-6l-16 -51zM387 1578v186h734v-186h-734z" />
    <glyph glyph-name="Aogonek" unicode="&#x104;" horiz-adv-x="1506" 
d="M32 0v189l104 15l449 1252h337l448 -1252l103 -15v-189h-518v189l98 18l-55 180h-491l-53 -180l98 -18v-189h-520zM579 617h347l-156 472l-15 47h-6l-16 -51zM1364 -422q-115 0 -188 58.5t-73 162.5q0 73 52 144.5t176 117.5l142 -61q-74 -43 -105 -81t-31 -80
q0 -36 20 -54t64 -18q23 0 42.5 4t36.5 10l35 -163q-33 -17 -74 -28.5t-97 -11.5z" />
    <glyph glyph-name="Aring" unicode="&#xc5;" horiz-adv-x="1506" 
d="M32 0v189l104 15l449 1252h337l448 -1252l103 -15v-189h-518v189l98 18l-55 180h-491l-53 -180l98 -18v-189h-520zM579 617h347l-156 472l-15 47h-6l-16 -51zM755 1507q-103 0 -172.5 62t-69.5 158t70 160.5t172 64.5q101 0 170 -65t69 -160q0 -96 -69 -158t-170 -62z
M755 1632q42 0 66 26t24 69q0 44 -24 70.5t-66 26.5q-40 0 -67 -26.5t-27 -70.5q0 -43 26.5 -69t67.5 -26z" />
    <glyph glyph-name="Aringacute" unicode="&#x1fa;" horiz-adv-x="1506" 
d="M32 0v189l104 15l449 1252h337l448 -1252l103 -15v-189h-518v189l98 18l-55 180h-491l-53 -180l98 -18v-189h-520zM579 617h347l-156 472l-15 47h-6l-16 -51zM756 1333q-104 0 -172.5 60.5t-68.5 154.5q0 93 69.5 156.5t171.5 63.5q100 0 168 -63.5t68 -156.5
q0 -94 -68 -154.5t-168 -60.5zM756 1458q40 0 64 25t24 65q0 42 -23.5 67t-64.5 25t-67 -25t-26 -67q0 -40 26 -65t67 -25zM648 1822l127 206h269l2 -6l-206 -200h-185h-7z" />
    <glyph glyph-name="uni1E00" unicode="&#x1e00;" horiz-adv-x="1506" 
d="M32 0v189l104 15l449 1252h337l448 -1252l103 -15v-189h-518v189l98 18l-55 180h-491l-53 -180l98 -18v-189h-520zM579 617h347l-156 472l-15 47h-6l-16 -51zM755 -526q-103 0 -172.5 62t-69.5 158t70 160.5t172 64.5q101 0 170 -65t69 -160q0 -96 -69 -158t-170 -62z
M755 -401q42 0 66 26t24 69q0 44 -24 70.5t-66 26.5q-40 0 -67 -26.5t-27 -70.5q0 -43 26.5 -69t67.5 -26z" />
    <glyph glyph-name="Atilde" unicode="&#xc3;" horiz-adv-x="1506" 
d="M32 0v189l104 15l449 1252h337l448 -1252l103 -15v-189h-518v189l98 18l-55 180h-491l-53 -180l98 -18v-189h-520zM579 617h347l-156 472l-15 47h-6l-16 -51zM536 1555l-165 44q0 69 33 127.5t86 93.5t115 35q49 0 101.5 -23.5t99.5 -47.5t80 -25q41 2 64 32t23 76
l164 -46q0 -70 -32.5 -128t-86 -92.5t-116.5 -34.5q-53 0 -105 24t-97 48t-79 24q-42 0 -63.5 -31.5t-21.5 -75.5z" />
    <glyph glyph-name="AE" unicode="&#xc6;" horiz-adv-x="2091" 
d="M70 0v189l139 20l673 1247h1056v-383h-241l-11 134h-341l15 -337h494v-248h-484l16 -374h363l11 134h240v-382h-1080v189l148 29l-6 137h-416l-77 -152l87 -14v-189h-586zM766 598h285l-22 508h-5l-10 -23z" />
    <glyph glyph-name="AEacute" unicode="&#x1fc;" horiz-adv-x="2091" 
d="M70 0v189l139 20l673 1247h1056v-383h-241l-11 134h-341l15 -337h494v-248h-484l16 -374h363l11 134h240v-382h-1080v189l148 29l-6 137h-416l-77 -152l87 -14v-189h-586zM766 598h285l-22 508h-5l-10 -23zM960 1565l203 273h332l2 -6l-277 -267h-253h-7z" />
    <glyph glyph-name="B" unicode="B" horiz-adv-x="1351" 
d="M48 0v189l154 31v1015l-154 31v190h154h499q266 0 414.5 -100.5t148.5 -299.5q0 -102 -51.5 -182.5t-153.5 -121.5q88 -19 144.5 -66t84 -113.5t27.5 -144.5q0 -211 -140 -319.5t-402 -108.5h-725zM522 244h251q110 0 167 46.5t57 137.5q0 101 -49 153t-156 52h-270v-389
zM522 849h177q121 0 183 44t62 131q0 97 -60.5 142t-182.5 45h-179v-362z" />
    <glyph glyph-name="C" unicode="C" horiz-adv-x="1330" 
d="M752 -21q-210 0 -370 86.5t-249 247.5t-89 386v57q0 211 84 373.5t239.5 255t369.5 92.5q150 0 283.5 -41t242.5 -133v-363h-235l-32 218q-34 23 -72 40t-82 26t-95 9q-118 0 -204 -57t-133 -163t-47 -255v-59q0 -144 48.5 -251.5t137.5 -166.5t207 -59q62 0 124 13.5
t116 35.5l33 205h235v-356q-86 -58 -216.5 -99.5t-295.5 -41.5z" />
    <glyph glyph-name="Cacute" unicode="&#x106;" horiz-adv-x="1330" 
d="M752 -21q-210 0 -370 86.5t-249 247.5t-89 386v57q0 211 84 373.5t239.5 255t369.5 92.5q150 0 283.5 -41t242.5 -133v-363h-235l-32 218q-34 23 -72 40t-82 26t-95 9q-118 0 -204 -57t-133 -163t-47 -255v-59q0 -144 48.5 -251.5t137.5 -166.5t207 -59q62 0 124 13.5
t116 35.5l33 205h235v-356q-86 -58 -216.5 -99.5t-295.5 -41.5zM531 1565l203 273h332l2 -6l-277 -267h-253h-7z" />
    <glyph glyph-name="Ccaron" unicode="&#x10c;" horiz-adv-x="1330" 
d="M752 -21q-210 0 -370 86.5t-249 247.5t-89 386v57q0 211 84 373.5t239.5 255t369.5 92.5q150 0 283.5 -41t242.5 -133v-363h-235l-32 218q-34 23 -72 40t-82 26t-95 9q-118 0 -204 -57t-133 -163t-47 -255v-59q0 -144 48.5 -251.5t137.5 -166.5t207 -59q62 0 124 13.5
t116 35.5l33 205h235v-356q-86 -58 -216.5 -99.5t-295.5 -41.5zM1099 1838v-26l-257 -245h-245l-254 248v23h248l129 -143l135 143h244z" />
    <glyph glyph-name="Ccedilla" unicode="&#xc7;" horiz-adv-x="1330" 
d="M752 -21q-210 0 -370 86.5t-249 247.5t-89 386v57q0 211 84 373.5t239.5 255t369.5 92.5q150 0 283.5 -41t242.5 -133v-363h-235l-32 218q-34 23 -72 40t-82 26t-95 9q-118 0 -204 -57t-133 -163t-47 -255v-59q0 -144 48.5 -251.5t137.5 -166.5t207 -59q62 0 124 13.5
t116 35.5l33 205h235v-356q-86 -58 -216.5 -99.5t-295.5 -41.5zM595 -466l-7 174q57 0 90 18.5t33 56.5q0 42 -35 58.5t-107 19.5l32 153h238l-12 -69q67 -11 112.5 -50.5t45.5 -116.5q0 -111 -101.5 -177.5t-288.5 -66.5z" />
    <glyph glyph-name="Ccircumflex" unicode="&#x108;" horiz-adv-x="1330" 
d="M752 -21q-210 0 -370 86.5t-249 247.5t-89 386v57q0 211 84 373.5t239.5 255t369.5 92.5q150 0 283.5 -41t242.5 -133v-363h-235l-32 218q-34 23 -72 40t-82 26t-95 9q-118 0 -204 -57t-133 -163t-47 -255v-59q0 -144 48.5 -251.5t137.5 -166.5t207 -59q62 0 124 13.5
t116 35.5l33 205h235v-356q-86 -58 -216.5 -99.5t-295.5 -41.5zM343 1567v26l257 245h245l254 -248v-23h-248l-130 143l-134 -143h-244z" />
    <glyph glyph-name="Cdotaccent" unicode="&#x10a;" horiz-adv-x="1330" 
d="M752 -21q-210 0 -370 86.5t-249 247.5t-89 386v57q0 211 84 373.5t239.5 255t369.5 92.5q150 0 283.5 -41t242.5 -133v-363h-235l-32 218q-34 23 -72 40t-82 26t-95 9q-118 0 -204 -57t-133 -163t-47 -255v-59q0 -144 48.5 -251.5t137.5 -166.5t207 -59q62 0 124 13.5
t116 35.5l33 205h235v-356q-86 -58 -216.5 -99.5t-295.5 -41.5zM556 1577v261h330v-261h-330z" />
    <glyph glyph-name="D" unicode="D" horiz-adv-x="1447" 
d="M48 0v189l155 35v1006l-155 36v190h155h505q196 0 346 -91.5t235 -253t85 -371.5v-25q0 -209 -84 -370.5t-234 -253t-346 -91.5h-662zM523 243h170q117 0 196.5 60t121 166.5t41.5 245.5v26q0 140 -41.5 246t-121 165.5t-196.5 59.5h-170v-969z" />
    <glyph glyph-name="Dcaron" unicode="&#x10e;" horiz-adv-x="1447" 
d="M48 0v189l155 35v1006l-155 36v190h155h505q196 0 346 -91.5t235 -253t85 -371.5v-25q0 -209 -84 -370.5t-234 -253t-346 -91.5h-662zM523 243h170q117 0 196.5 60t121 166.5t41.5 245.5v26q0 140 -41.5 246t-121 165.5t-196.5 59.5h-170v-969zM1067 1838v-26l-257 -245
h-245l-254 248v23h248l129 -143l135 143h244z" />
    <glyph glyph-name="Dcroat" unicode="&#x110;" horiz-adv-x="1447" 
d="M48 0v189l155 35v1006l-155 36v190h155h505q196 0 346 -91.5t235 -253t85 -371.5v-25q0 -209 -84 -370.5t-234 -253t-346 -91.5h-662zM523 243h170q117 0 196.5 60t121 166.5t41.5 245.5v26q0 140 -41.5 246t-121 165.5t-196.5 59.5h-170v-969zM35 662v155h676v-155h-676
z" />
    <glyph glyph-name="Eth" unicode="&#xd0;" horiz-adv-x="1447" 
d="M48 0v189l155 35v1006l-155 36v190h155h505q196 0 346 -91.5t235 -253t85 -371.5v-25q0 -209 -84 -370.5t-234 -253t-346 -91.5h-662zM523 243h170q117 0 196.5 60t121 166.5t41.5 245.5v26q0 140 -41.5 246t-121 165.5t-196.5 59.5h-170v-969zM35 662v155h676v-155h-676
z" />
    <glyph glyph-name="E" unicode="E" horiz-adv-x="1308" 
d="M48 0v189l154 31v1015l-154 31v190h1146v-406h-243l-11 160h-418v-334h479v-247h-479v-383h439l11 166h241v-412h-1165z" />
    <glyph glyph-name="Eacute" unicode="&#xc9;" horiz-adv-x="1308" 
d="M48 0v189l154 31v1015l-154 31v190h1146v-406h-243l-11 160h-418v-334h479v-247h-479v-383h439l11 166h241v-412h-1165zM464 1565l203 273h332l2 -6l-277 -267h-253h-7z" />
    <glyph glyph-name="Ebreve" unicode="&#x114;" horiz-adv-x="1308" 
d="M48 0v189l154 31v1015l-154 31v190h1146v-406h-243l-11 160h-418v-334h479v-247h-479v-383h439l11 166h241v-412h-1165zM655 1539q-166 0 -265 82t-93 211l2 6h212q0 -54 34.5 -90t109.5 -36q73 0 107 35t34 91h214l2 -6q3 -129 -94 -211t-263 -82z" />
    <glyph glyph-name="Ecaron" unicode="&#x11a;" horiz-adv-x="1308" 
d="M48 0v189l154 31v1015l-154 31v190h1146v-406h-243l-11 160h-418v-334h479v-247h-479v-383h439l11 166h241v-412h-1165zM1033 1838v-26l-257 -245h-245l-254 248v23h248l129 -143l135 143h244z" />
    <glyph glyph-name="Ecircumflex" unicode="&#xca;" horiz-adv-x="1308" 
d="M48 0v189l154 31v1015l-154 31v190h1146v-406h-243l-11 160h-418v-334h479v-247h-479v-383h439l11 166h241v-412h-1165zM277 1567v26l257 245h245l254 -248v-23h-248l-130 143l-134 -143h-244z" />
    <glyph glyph-name="uni1EBE" unicode="&#x1ebe;" horiz-adv-x="1308" 
d="M48 0v189l154 31v1015l-154 31v190h1146v-406h-243l-11 160h-418v-334h479v-247h-479v-383h439l11 166h241v-412h-1165zM275 1527v26l257 226h247l254 -229v-23h-251l-128 128l-133 -128h-246zM856 1788l110 225h265l2 -6l-201 -219h-168h-8z" />
    <glyph glyph-name="uni1EC6" unicode="&#x1ec6;" horiz-adv-x="1308" 
d="M48 0v189l154 31v1015l-154 31v190h1146v-406h-243l-11 160h-418v-334h479v-247h-479v-383h439l11 166h241v-412h-1165zM277 1567v26l257 245h245l254 -248v-23h-248l-130 143l-134 -143h-244zM489 -412v260h330v-260h-330z" />
    <glyph glyph-name="uni1EC0" unicode="&#x1ec0;" horiz-adv-x="1308" 
d="M48 0v189l154 31v1015l-154 31v190h1146v-406h-243l-11 160h-418v-334h479v-247h-479v-383h439l11 166h241v-412h-1165zM1035 1527h-247l-133 128l-128 -128h-250v23l254 229h246l258 -226v-26zM453 1788h-7h-168l-201 219l2 6h265z" />
    <glyph glyph-name="uni1EC2" unicode="&#x1ec2;" horiz-adv-x="1308" 
d="M48 0v189l154 31v1015l-154 31v190h1146v-406h-243l-11 160h-418v-334h479v-247h-479v-383h439l11 166h241v-412h-1165zM275 1527v26l257 226h247l254 -229v-23h-251l-128 128l-133 -128h-246zM889 1734l-19 115q66 3 95.5 14.5t29.5 37.5q0 30 -32.5 42t-91.5 12l7 120
q168 0 257 -41.5t89 -115.5q0 -55 -39.5 -85.5t-99.5 -38.5l-1 -60h-195z" />
    <glyph glyph-name="uni1EC4" unicode="&#x1ec4;" horiz-adv-x="1308" 
d="M48 0v189l154 31v1015l-154 31v190h1146v-406h-243l-11 160h-418v-334h479v-247h-479v-383h439l11 166h241v-412h-1165zM443 1826l-151 42q0 63 30 116t80 85.5t107 32.5q46 0 93.5 -22t91 -43.5t76.5 -21.5q39 0 61 29t22 70l151 -43q-1 -64 -31 -117.5t-79.5 -85
t-108.5 -31.5q-49 0 -96.5 22t-89 44t-74.5 22q-39 0 -60.5 -29.5t-21.5 -69.5zM276 1527v26l257 226h247l254 -229v-23h-251l-128 128l-133 -128h-246z" />
    <glyph glyph-name="Edieresis" unicode="&#xcb;" horiz-adv-x="1308" 
d="M48 0v189l154 31v1015l-154 31v190h1146v-406h-243l-11 160h-418v-334h479v-247h-479v-383h439l11 166h241v-412h-1165zM733 1577v261h303v-261h-303zM273 1577v261h303v-261h-303z" />
    <glyph glyph-name="Edotaccent" unicode="&#x116;" horiz-adv-x="1308" 
d="M48 0v189l154 31v1015l-154 31v190h1146v-406h-243l-11 160h-418v-334h479v-247h-479v-383h439l11 166h241v-412h-1165zM489 1577v261h330v-261h-330z" />
    <glyph glyph-name="uni1EB8" unicode="&#x1eb8;" horiz-adv-x="1308" 
d="M48 0v189l154 31v1015l-154 31v190h1146v-406h-243l-11 160h-418v-334h479v-247h-479v-383h439l11 166h241v-412h-1165zM489 -412v260h330v-260h-330z" />
    <glyph glyph-name="Egrave" unicode="&#xc8;" horiz-adv-x="1308" 
d="M48 0v189l154 31v1015l-154 31v190h1146v-406h-243l-11 160h-418v-334h479v-247h-479v-383h439l11 166h241v-412h-1165zM845 1565h-7h-252l-278 267l2 6h332z" />
    <glyph glyph-name="uni1EBA" unicode="&#x1eba;" horiz-adv-x="1308" 
d="M48 0v189l154 31v1015l-154 31v190h1146v-406h-243l-11 160h-418v-334h479v-247h-479v-383h439l11 166h241v-412h-1165zM509 1533l-19 131q72 2 103.5 17t31.5 47q0 35 -36 50t-101 15l7 140q197 0 301 -51.5t104 -143.5q0 -63 -43.5 -98.5t-105.5 -44.5l-1 -62h-241z
" />
    <glyph glyph-name="Emacron" unicode="&#x112;" horiz-adv-x="1308" 
d="M48 0v189l154 31v1015l-154 31v190h1146v-406h-243l-11 160h-418v-334h479v-247h-479v-383h439l11 166h241v-412h-1165zM287 1578v186h734v-186h-734z" />
    <glyph glyph-name="Eogonek" unicode="&#x118;" horiz-adv-x="1308" 
d="M48 0v189l154 31v1015l-154 31v190h1146v-406h-243l-11 160h-418v-334h479v-247h-479v-383h439l11 166h241v-412h-1165zM1104 -422q-115 0 -188 58.5t-73 162.5q0 73 52 144.5t176 117.5l142 -61q-74 -43 -105 -81t-31 -80q0 -36 20 -54t64 -18q23 0 42.5 4t36.5 10
l35 -163q-33 -17 -74 -28.5t-97 -11.5z" />
    <glyph glyph-name="uni1EBC" unicode="&#x1ebc;" horiz-adv-x="1308" 
d="M48 0v189l154 31v1015l-154 31v190h1146v-406h-243l-11 160h-418v-334h479v-247h-479v-383h439l11 166h241v-412h-1165zM437 1555l-165 44q0 69 33 127.5t86 93.5t115 35q49 0 101.5 -23.5t99.5 -47.5t80 -25q41 2 64 32t23 76l164 -46q0 -70 -32.5 -128t-86 -92.5
t-116.5 -34.5q-53 0 -105 24t-97 48t-79 24q-42 0 -63.5 -31.5t-21.5 -75.5z" />
    <glyph glyph-name="uni018F" unicode="&#x18f;" horiz-adv-x="1400" 
d="M699 -21q-203 0 -344.5 82.5t-215 236.5t-73.5 367v162h931l4 15q3 104 -37 187.5t-127 131.5t-225 48q-121 0 -218.5 -18t-174.5 -42l-49 250q56 26 170.5 52t271.5 26q231 0 390.5 -83t242 -233.5t82.5 -354.5v-161q0 -195 -83 -345.5t-225 -235.5t-320 -85zM699 246
q90 0 154.5 42t101.5 116t43 172l-3 5h-609v-30q0 -92 33 -161t102.5 -106.5t177.5 -37.5z" />
    <glyph glyph-name="F" unicode="F" horiz-adv-x="1268" 
d="M48 0v189l154 31v1015l-154 31v190h1178v-413h-243l-10 167h-451v-371h502v-245h-502v-374l153 -31v-189h-627z" />
    <glyph glyph-name="G" unicode="G" horiz-adv-x="1381" 
d="M732 -21q-222 0 -376.5 89t-236 247.5t-81.5 366.5v58q0 218 80.5 383.5t232 259.5t361.5 94q153 0 296.5 -44t251.5 -136v-331h-232l-47 190q-37 34 -101 56t-146 22q-121 0 -205.5 -62.5t-129 -173t-44.5 -256.5v-60q0 -140 45 -243.5t131 -160.5t212 -57
q70 0 133.5 14t102.5 33v219l-187 18v222h507v-596q-106 -72 -248.5 -112t-318.5 -40z" />
    <glyph glyph-name="Gbreve" unicode="&#x11e;" horiz-adv-x="1381" 
d="M732 -21q-222 0 -376.5 89t-236 247.5t-81.5 366.5v58q0 218 80.5 383.5t232 259.5t361.5 94q153 0 296.5 -44t251.5 -136v-331h-232l-47 190q-37 34 -101 56t-146 22q-121 0 -205.5 -62.5t-129 -173t-44.5 -256.5v-60q0 -140 45 -243.5t131 -160.5t212 -57
q70 0 133.5 14t102.5 33v219l-187 18v222h507v-596q-106 -72 -248.5 -112t-318.5 -40zM691 1539q-166 0 -265 82t-93 211l2 6h212q0 -54 34.5 -90t109.5 -36q73 0 107 35t34 91h214l2 -6q3 -129 -94 -211t-263 -82z" />
    <glyph glyph-name="Gcircumflex" unicode="&#x11c;" horiz-adv-x="1381" 
d="M732 -21q-222 0 -376.5 89t-236 247.5t-81.5 366.5v58q0 218 80.5 383.5t232 259.5t361.5 94q153 0 296.5 -44t251.5 -136v-331h-232l-47 190q-37 34 -101 56t-146 22q-121 0 -205.5 -62.5t-129 -173t-44.5 -256.5v-60q0 -140 45 -243.5t131 -160.5t212 -57
q70 0 133.5 14t102.5 33v219l-187 18v222h507v-596q-106 -72 -248.5 -112t-318.5 -40zM312 1567v26l257 245h245l254 -248v-23h-248l-130 143l-134 -143h-244z" />
    <glyph glyph-name="uni0122" unicode="&#x122;" horiz-adv-x="1381" 
d="M732 -21q-222 0 -376.5 89t-236 247.5t-81.5 366.5v58q0 218 80.5 383.5t232 259.5t361.5 94q153 0 296.5 -44t251.5 -136v-331h-232l-47 190q-37 34 -101 56t-146 22q-121 0 -205.5 -62.5t-129 -173t-44.5 -256.5v-60q0 -140 45 -243.5t131 -160.5t212 -57
q70 0 133.5 14t102.5 33v219l-187 18v222h507v-596q-106 -72 -248.5 -112t-318.5 -40zM652 -531l-149 94q31 49 47.5 98t16.5 124v96h265v-79q0 -96 -52 -185t-128 -148z" />
    <glyph glyph-name="Gdotaccent" unicode="&#x120;" horiz-adv-x="1381" 
d="M732 -21q-222 0 -376.5 89t-236 247.5t-81.5 366.5v58q0 218 80.5 383.5t232 259.5t361.5 94q153 0 296.5 -44t251.5 -136v-331h-232l-47 190q-37 34 -101 56t-146 22q-121 0 -205.5 -62.5t-129 -173t-44.5 -256.5v-60q0 -140 45 -243.5t131 -160.5t212 -57
q70 0 133.5 14t102.5 33v219l-187 18v222h507v-596q-106 -72 -248.5 -112t-318.5 -40zM525 1577v261h330v-261h-330z" />
    <glyph glyph-name="H" unicode="H" horiz-adv-x="1606" 
d="M48 0v189l154 31v1015l-154 31v190h627v-190l-153 -31v-395h563v395l-153 31v190h153h319h154v-190l-154 -31v-1015l154 -31v-189h-626v189l153 31v373h-563v-373l153 -31v-189h-627z" />
    <glyph glyph-name="Hbar" unicode="&#x126;" horiz-adv-x="1606" 
d="M48 0v189l154 31v1015l-154 31v190h627v-190l-153 -31v-395h563v395l-153 31v190h153h319h154v-190l-154 -31v-1015l154 -31v-189h-626v189l153 31v373h-563v-373l153 -31v-189h-627zM51 960v153h1505v-153h-1505z" />
    <glyph glyph-name="Hcircumflex" unicode="&#x124;" horiz-adv-x="1606" 
d="M48 0v189l154 31v1015l-154 31v190h627v-190l-153 -31v-395h563v395l-153 31v190h153h319h154v-190l-154 -31v-1015l154 -31v-189h-626v189l153 31v373h-563v-373l153 -31v-189h-627zM425 1567v26l257 245h245l254 -248v-23h-248l-130 143l-134 -143h-244z" />
    <glyph glyph-name="I" unicode="I" horiz-adv-x="723" 
d="M48 0v189l154 31v1015l-154 31v190h626v-190l-153 -31v-1015l153 -31v-189h-626z" />
    <glyph glyph-name="IJ" unicode="&#x132;" horiz-adv-x="1922" 
d="M48 0v189l154 31v1015l-154 31v190h626v-190l-153 -31v-1015l153 -31v-189h-626zM1296 -21q-161 0 -280.5 53t-187 161.5t-73.5 275.5l2 6h299q9 -142 63 -194.5t140 -52.5q53 0 96.5 23t70.5 71t27 122v791l-197 31v190h669v-190l-154 -31v-791q0 -143 -55.5 -247.5
t-161.5 -161t-258 -56.5z" />
    <glyph glyph-name="Iacute" unicode="&#xcd;" horiz-adv-x="723" 
d="M48 0v189l154 31v1015l-154 31v190h626v-190l-153 -31v-1015l153 -31v-189h-626zM171 1565l203 273h332l2 -6l-277 -267h-253h-7z" />
    <glyph glyph-name="Ibreve" unicode="&#x12c;" horiz-adv-x="723" 
d="M48 0v189l154 31v1015l-154 31v190h626v-190l-153 -31v-1015l153 -31v-189h-626zM363 1539q-166 0 -265 82t-93 211l2 6h212q0 -54 34.5 -90t109.5 -36q73 0 107 35t34 91h214l2 -6q3 -129 -94 -211t-263 -82z" />
    <glyph glyph-name="Icircumflex" unicode="&#xce;" horiz-adv-x="723" 
d="M48 0v189l154 31v1015l-154 31v190h626v-190l-153 -31v-1015l153 -31v-189h-626zM-16 1567v26l257 245h245l254 -248v-23h-248l-130 143l-134 -143h-244z" />
    <glyph glyph-name="Idieresis" unicode="&#xcf;" horiz-adv-x="723" 
d="M48 0v189l154 31v1015l-154 31v190h626v-190l-153 -31v-1015l153 -31v-189h-626zM441 1577v261h303v-261h-303zM-19 1577v261h303v-261h-303z" />
    <glyph glyph-name="Idotaccent" unicode="&#x130;" horiz-adv-x="723" 
d="M48 0v189l154 31v1015l-154 31v190h626v-190l-153 -31v-1015l153 -31v-189h-626zM196 1577v261h330v-261h-330z" />
    <glyph glyph-name="uni1ECA" unicode="&#x1eca;" horiz-adv-x="723" 
d="M48 0v189l154 31v1015l-154 31v190h626v-190l-153 -31v-1015l153 -31v-189h-626zM196 -412v260h330v-260h-330z" />
    <glyph glyph-name="Igrave" unicode="&#xcc;" horiz-adv-x="723" 
d="M48 0v189l154 31v1015l-154 31v190h626v-190l-153 -31v-1015l153 -31v-189h-626zM552 1565h-7h-252l-278 267l2 6h332z" />
    <glyph glyph-name="uni1EC8" unicode="&#x1ec8;" horiz-adv-x="723" 
d="M48 0v189l154 31v1015l-154 31v190h626v-190l-153 -31v-1015l153 -31v-189h-626zM216 1533l-19 131q72 2 103.5 17t31.5 47q0 35 -36 50t-101 15l7 140q197 0 301 -51.5t104 -143.5q0 -63 -43.5 -98.5t-105.5 -44.5l-1 -62h-241z" />
    <glyph glyph-name="Imacron" unicode="&#x12a;" horiz-adv-x="723" 
d="M48 0v189l154 31v1015l-154 31v190h626v-190l-153 -31v-1015l153 -31v-189h-626zM-5 1578v186h734v-186h-734z" />
    <glyph glyph-name="Iogonek" unicode="&#x12e;" horiz-adv-x="723" 
d="M48 0v189l154 31v1015l-154 31v190h626v-190l-153 -31v-1015l153 -31v-189h-626zM565 -422q-115 0 -188 58.5t-73 162.5q0 73 52 144.5t176 117.5l142 -61q-74 -43 -105 -81t-31 -80q0 -36 20 -54t64 -18q23 0 42.5 4t36.5 10l35 -163q-33 -17 -74 -28.5t-97 -11.5z" />
    <glyph glyph-name="Itilde" unicode="&#x128;" horiz-adv-x="723" 
d="M48 0v189l154 31v1015l-154 31v190h626v-190l-153 -31v-1015l153 -31v-189h-626zM144 1555l-165 44q0 69 33 127.5t86 93.5t115 35q49 0 101.5 -23.5t99.5 -47.5t80 -25q41 2 64 32t23 76l164 -46q0 -70 -32.5 -128t-86 -92.5t-116.5 -34.5q-53 0 -105 24t-97 48t-79 24
q-42 0 -63.5 -31.5t-21.5 -75.5z" />
    <glyph glyph-name="J" unicode="J" horiz-adv-x="1211" 
d="M568 -21q-161 0 -280.5 53t-187 161.5t-73.5 275.5l2 6h299q9 -142 63 -194.5t140 -52.5q53 0 96.5 23t70.5 71t27 122v791l-197 31v190h669v-190l-154 -31v-791q0 -143 -55.5 -247.5t-161.5 -161t-258 -56.5z" />
    <glyph glyph-name="Jcircumflex" unicode="&#x134;" horiz-adv-x="1211" 
d="M568 -21q-161 0 -280.5 53t-187 161.5t-73.5 275.5l2 6h299q9 -142 63 -194.5t140 -52.5q53 0 96.5 23t70.5 71t27 122v791l-197 31v190h669v-190l-154 -31v-791q0 -143 -55.5 -247.5t-161.5 -161t-258 -56.5zM500 1567v26l257 245h245l254 -248v-23h-248l-130 143
l-134 -143h-244z" />
    <glyph glyph-name="K" unicode="K" horiz-adv-x="1559" 
d="M446 338l-164 188l719 726l2 2l-154 12v190h637v-190l-137 -28zM48 0v189l154 31v1015l-154 31v190h617v-190l-143 -31v-1015l143 -31v-189h-617zM880 0v189l141 12h1l-360 495l218 205l513 -687l146 -25v-189h-659z" />
    <glyph glyph-name="uni0136" unicode="&#x136;" horiz-adv-x="1559" 
d="M446 338l-164 188l719 726l2 2l-154 12v190h637v-190l-137 -28zM48 0v189l154 31v1015l-154 31v190h617v-190l-143 -31v-1015l143 -31v-189h-617zM880 0v189l141 12h1l-360 495l218 205l513 -687l146 -25v-189h-659zM739 -531l-149 94q31 49 47.5 98t16.5 124v96h265v-79
q0 -96 -52 -185t-128 -148z" />
    <glyph glyph-name="L" unicode="L" horiz-adv-x="1197" 
d="M48 0v189l154 31v1015l-154 31v190h154h320h179v-190l-179 -31v-990h380l11 209h244v-454h-1109z" />
    <glyph glyph-name="Lacute" unicode="&#x139;" horiz-adv-x="1197" 
d="M48 0v189l154 31v1015l-154 31v190h154h320h179v-190l-179 -31v-990h380l11 209h244v-454h-1109zM186 1565l203 273h332l2 -6l-277 -267h-253h-7z" />
    <glyph glyph-name="Lcaron" unicode="&#x13d;" horiz-adv-x="1197" 
d="M48 0v189l154 31v1015l-154 31v190h154h320h179v-190l-179 -31v-990h380l11 209h244v-454h-1109zM1006 1045l-149 94q31 48 47.5 97.5t16.5 123.5v96h265v-79q0 -96 -52 -185t-128 -147z" />
    <glyph glyph-name="uni013B" unicode="&#x13b;" horiz-adv-x="1197" 
d="M48 0v189l154 31v1015l-154 31v190h154h320h179v-190l-179 -31v-990h380l11 209h244v-454h-1109zM560 -531l-149 94q31 49 47.5 98t16.5 124v96h265v-79q0 -96 -52 -185t-128 -148z" />
    <glyph glyph-name="Ldot" unicode="&#x13f;" horiz-adv-x="1197" 
d="M48 0v189l154 31v1015l-154 31v190h154h320h179v-190l-179 -31v-990h380l11 209h244v-454h-1109zM817 609v272h319v-272h-319z" />
    <glyph glyph-name="Lslash" unicode="&#x141;" horiz-adv-x="1197" 
d="M48 0v189l154 31v1015l-154 31v190h154h320h179v-190l-179 -31v-990h380l11 209h244v-454h-1109zM74 570v204l668 187v-204z" />
    <glyph glyph-name="M" unicode="M" horiz-adv-x="2091" 
d="M44 0v189l153 31v1015l-153 31v190h153h482l375 -988h6l365 988h631v-190l-154 -31v-1015l154 -31v-189h-626v189l160 31v237l6 670l-6 1l-424 -1118h-247l-432 1107l-7 -1l21 -621v-275l170 -31v-189h-627z" />
    <glyph glyph-name="uni1E3E" unicode="&#x1e3e;" horiz-adv-x="2091" 
d="M44 0v189l153 31v1015l-153 31v190h153h482l375 -988h6l365 988h631v-190l-154 -31v-1015l154 -31v-189h-626v189l160 31v237l6 670l-6 1l-424 -1118h-247l-432 1107l-7 -1l21 -621v-275l170 -31v-189h-627zM855 1565l203 273h332l2 -6l-277 -267h-253h-7z" />
    <glyph glyph-name="N" unicode="N" horiz-adv-x="1607" 
d="M48 0v189l152 31v1015l-152 31v190h152h326l610 -973l6 1v751l-189 31v190h474h153v-190l-153 -31v-1235h-313l-623 958h-6v-738l190 -31v-189h-627z" />
    <glyph glyph-name="Nacute" unicode="&#x143;" horiz-adv-x="1607" 
d="M48 0v189l152 31v1015l-152 31v190h152h326l610 -973l6 1v751l-189 31v190h474h153v-190l-153 -31v-1235h-313l-623 958h-6v-738l190 -31v-189h-627zM613 1565l203 273h332l2 -6l-277 -267h-253h-7z" />
    <glyph glyph-name="Ncaron" unicode="&#x147;" horiz-adv-x="1607" 
d="M48 0v189l152 31v1015l-152 31v190h152h326l610 -973l6 1v751l-189 31v190h474h153v-190l-153 -31v-1235h-313l-623 958h-6v-738l190 -31v-189h-627zM1182 1838v-26l-257 -245h-245l-254 248v23h248l129 -143l135 143h244z" />
    <glyph glyph-name="uni0145" unicode="&#x145;" horiz-adv-x="1607" 
d="M48 0v189l152 31v1015l-152 31v190h152h326l610 -973l6 1v751l-189 31v190h474h153v-190l-153 -31v-1235h-313l-623 958h-6v-738l190 -31v-189h-627zM766 -531l-149 94q31 49 47.5 98t16.5 124v96h265v-79q0 -96 -52 -185t-128 -148z" />
    <glyph glyph-name="Ntilde" unicode="&#xd1;" horiz-adv-x="1607" 
d="M48 0v189l152 31v1015l-152 31v190h152h326l610 -973l6 1v751l-189 31v190h474h153v-190l-153 -31v-1235h-313l-623 958h-6v-738l190 -31v-189h-627zM586 1555l-165 44q0 69 33 127.5t86 93.5t115 35q49 0 101.5 -23.5t99.5 -47.5t80 -25q41 2 64 32t23 76l164 -46
q0 -70 -32.5 -128t-86 -92.5t-116.5 -34.5q-53 0 -105 24t-97 48t-79 24q-42 0 -63.5 -31.5t-21.5 -75.5z" />
    <glyph glyph-name="Eng" unicode="&#x14a;" horiz-adv-x="1592" 
d="M1022 -437q-43 0 -78 3.5t-75 12.5l14 242q26 -6 47 -9.5t47 -3.5q60 0 92 43.5t32 122.5v26l-554 943h-6v-723l153 -31v-189h-626v189l153 31v1015l-153 31v190h473l554 -943l6 2v720l-153 31v190h625v-190l-152 -31v-1261q0 -196 -105 -303.5t-294 -107.5z" />
    <glyph glyph-name="O" unicode="O" horiz-adv-x="1474" 
d="M737 -21q-149 0 -272.5 55t-213.5 155t-138.5 234.5t-48.5 293.5v23q0 158 48.5 292t138 234t213 155.5t272.5 55.5q148 0 272 -55.5t216 -155.5t142 -234t50 -292v-23q0 -159 -50 -293.5t-141.5 -234.5t-215.5 -155t-272 -55zM737 224q117 0 197.5 62t121.5 172.5
t41 258.5v25q0 145 -41.5 255t-122 172t-197.5 62q-120 0 -198 -61.5t-116 -171t-38 -256.5v-25q0 -148 38.5 -259t117 -172.5t197.5 -61.5z" />
    <glyph glyph-name="Oacute" unicode="&#xd3;" horiz-adv-x="1474" 
d="M737 -21q-149 0 -272.5 55t-213.5 155t-138.5 234.5t-48.5 293.5v23q0 158 48.5 292t138 234t213 155.5t272.5 55.5q148 0 272 -55.5t216 -155.5t142 -234t50 -292v-23q0 -159 -50 -293.5t-141.5 -234.5t-215.5 -155t-272 -55zM737 224q117 0 197.5 62t121.5 172.5
t41 258.5v25q0 145 -41.5 255t-122 172t-197.5 62q-120 0 -198 -61.5t-116 -171t-38 -256.5v-25q0 -148 38.5 -259t117 -172.5t197.5 -61.5zM547 1565l203 273h332l2 -6l-277 -267h-253h-7z" />
    <glyph glyph-name="Obreve" unicode="&#x14e;" horiz-adv-x="1474" 
d="M737 -21q-149 0 -272.5 55t-213.5 155t-138.5 234.5t-48.5 293.5v23q0 158 48.5 292t138 234t213 155.5t272.5 55.5q148 0 272 -55.5t216 -155.5t142 -234t50 -292v-23q0 -159 -50 -293.5t-141.5 -234.5t-215.5 -155t-272 -55zM737 224q117 0 197.5 62t121.5 172.5
t41 258.5v25q0 145 -41.5 255t-122 172t-197.5 62q-120 0 -198 -61.5t-116 -171t-38 -256.5v-25q0 -148 38.5 -259t117 -172.5t197.5 -61.5zM738 1539q-166 0 -265 82t-93 211l2 6h212q0 -54 34.5 -90t109.5 -36q73 0 107 35t34 91h214l2 -6q3 -129 -94 -211t-263 -82z" />
    <glyph glyph-name="Ocircumflex" unicode="&#xd4;" horiz-adv-x="1474" 
d="M737 -21q-149 0 -272.5 55t-213.5 155t-138.5 234.5t-48.5 293.5v23q0 158 48.5 292t138 234t213 155.5t272.5 55.5q148 0 272 -55.5t216 -155.5t142 -234t50 -292v-23q0 -159 -50 -293.5t-141.5 -234.5t-215.5 -155t-272 -55zM737 224q117 0 197.5 62t121.5 172.5
t41 258.5v25q0 145 -41.5 255t-122 172t-197.5 62q-120 0 -198 -61.5t-116 -171t-38 -256.5v-25q0 -148 38.5 -259t117 -172.5t197.5 -61.5zM359 1567v26l257 245h245l254 -248v-23h-248l-130 143l-134 -143h-244z" />
    <glyph glyph-name="uni1ED0" unicode="&#x1ed0;" horiz-adv-x="1474" 
d="M737 -21q-149 0 -272.5 55t-213.5 155t-138.5 234.5t-48.5 293.5v23q0 158 48.5 292t138 234t213 155.5t272.5 55.5q148 0 272 -55.5t216 -155.5t142 -234t50 -292v-23q0 -159 -50 -293.5t-141.5 -234.5t-215.5 -155t-272 -55zM737 224q117 0 197.5 62t121.5 172.5
t41 258.5v25q0 145 -41.5 255t-122 172t-197.5 62q-120 0 -198 -61.5t-116 -171t-38 -256.5v-25q0 -148 38.5 -259t117 -172.5t197.5 -61.5zM358 1527v26l257 226h247l254 -229v-23h-251l-128 128l-133 -128h-246zM939 1788l110 225h265l2 -6l-201 -219h-168h-8z" />
    <glyph glyph-name="uni1ED8" unicode="&#x1ed8;" horiz-adv-x="1474" 
d="M737 -21q-149 0 -272.5 55t-213.5 155t-138.5 234.5t-48.5 293.5v23q0 158 48.5 292t138 234t213 155.5t272.5 55.5q148 0 272 -55.5t216 -155.5t142 -234t50 -292v-23q0 -159 -50 -293.5t-141.5 -234.5t-215.5 -155t-272 -55zM737 224q117 0 197.5 62t121.5 172.5
t41 258.5v25q0 145 -41.5 255t-122 172t-197.5 62q-120 0 -198 -61.5t-116 -171t-38 -256.5v-25q0 -148 38.5 -259t117 -172.5t197.5 -61.5zM359 1567v26l257 245h245l254 -248v-23h-248l-130 143l-134 -143h-244zM572 -412v260h330v-260h-330z" />
    <glyph glyph-name="uni1ED2" unicode="&#x1ed2;" horiz-adv-x="1474" 
d="M737 -21q-149 0 -272.5 55t-213.5 155t-138.5 234.5t-48.5 293.5v23q0 158 48.5 292t138 234t213 155.5t272.5 55.5q148 0 272 -55.5t216 -155.5t142 -234t50 -292v-23q0 -159 -50 -293.5t-141.5 -234.5t-215.5 -155t-272 -55zM737 224q117 0 197.5 62t121.5 172.5
t41 258.5v25q0 145 -41.5 255t-122 172t-197.5 62q-120 0 -198 -61.5t-116 -171t-38 -256.5v-25q0 -148 38.5 -259t117 -172.5t197.5 -61.5zM1117 1527h-247l-133 128l-128 -128h-250v23l254 229h246l258 -226v-26zM535 1788h-7h-168l-201 219l2 6h265z" />
    <glyph glyph-name="uni1ED4" unicode="&#x1ed4;" horiz-adv-x="1474" 
d="M737 -21q-149 0 -272.5 55t-213.5 155t-138.5 234.5t-48.5 293.5v23q0 158 48.5 292t138 234t213 155.5t272.5 55.5q148 0 272 -55.5t216 -155.5t142 -234t50 -292v-23q0 -159 -50 -293.5t-141.5 -234.5t-215.5 -155t-272 -55zM737 224q117 0 197.5 62t121.5 172.5
t41 258.5v25q0 145 -41.5 255t-122 172t-197.5 62q-120 0 -198 -61.5t-116 -171t-38 -256.5v-25q0 -148 38.5 -259t117 -172.5t197.5 -61.5zM358 1527v26l257 226h247l254 -229v-23h-251l-128 128l-133 -128h-246zM972 1734l-19 115q66 3 95.5 14.5t29.5 37.5q0 30 -32.5 42
t-91.5 12l7 120q168 0 257 -41.5t89 -115.5q0 -55 -39.5 -85.5t-99.5 -38.5l-1 -60h-195z" />
    <glyph glyph-name="uni1ED6" unicode="&#x1ed6;" horiz-adv-x="1474" 
d="M737 -21q-149 0 -272.5 55t-213.5 155t-138.5 234.5t-48.5 293.5v23q0 158 48.5 292t138 234t213 155.5t272.5 55.5q148 0 272 -55.5t216 -155.5t142 -234t50 -292v-23q0 -159 -50 -293.5t-141.5 -234.5t-215.5 -155t-272 -55zM737 224q117 0 197.5 62t121.5 172.5
t41 258.5v25q0 145 -41.5 255t-122 172t-197.5 62q-120 0 -198 -61.5t-116 -171t-38 -256.5v-25q0 -148 38.5 -259t117 -172.5t197.5 -61.5zM526 1826l-151 42q0 63 30 116t80 85.5t107 32.5q46 0 93.5 -22t91 -43.5t76.5 -21.5q39 0 61 29t22 70l151 -43q-1 -64 -31 -117.5
t-79.5 -85t-108.5 -31.5q-49 0 -96.5 22t-89 44t-74.5 22q-39 0 -60.5 -29.5t-21.5 -69.5zM359 1527v26l257 226h247l254 -229v-23h-251l-128 128l-133 -128h-246z" />
    <glyph glyph-name="Odieresis" unicode="&#xd6;" horiz-adv-x="1474" 
d="M737 -21q-149 0 -272.5 55t-213.5 155t-138.5 234.5t-48.5 293.5v23q0 158 48.5 292t138 234t213 155.5t272.5 55.5q148 0 272 -55.5t216 -155.5t142 -234t50 -292v-23q0 -159 -50 -293.5t-141.5 -234.5t-215.5 -155t-272 -55zM737 224q117 0 197.5 62t121.5 172.5
t41 258.5v25q0 145 -41.5 255t-122 172t-197.5 62q-120 0 -198 -61.5t-116 -171t-38 -256.5v-25q0 -148 38.5 -259t117 -172.5t197.5 -61.5zM816 1577v261h303v-261h-303zM356 1577v261h303v-261h-303z" />
    <glyph glyph-name="uni1ECC" unicode="&#x1ecc;" horiz-adv-x="1474" 
d="M737 -21q-149 0 -272.5 55t-213.5 155t-138.5 234.5t-48.5 293.5v23q0 158 48.5 292t138 234t213 155.5t272.5 55.5q148 0 272 -55.5t216 -155.5t142 -234t50 -292v-23q0 -159 -50 -293.5t-141.5 -234.5t-215.5 -155t-272 -55zM737 224q117 0 197.5 62t121.5 172.5
t41 258.5v25q0 145 -41.5 255t-122 172t-197.5 62q-120 0 -198 -61.5t-116 -171t-38 -256.5v-25q0 -148 38.5 -259t117 -172.5t197.5 -61.5zM572 -412v260h330v-260h-330z" />
    <glyph glyph-name="Ograve" unicode="&#xd2;" horiz-adv-x="1474" 
d="M737 -21q-149 0 -272.5 55t-213.5 155t-138.5 234.5t-48.5 293.5v23q0 158 48.5 292t138 234t213 155.5t272.5 55.5q148 0 272 -55.5t216 -155.5t142 -234t50 -292v-23q0 -159 -50 -293.5t-141.5 -234.5t-215.5 -155t-272 -55zM737 224q117 0 197.5 62t121.5 172.5
t41 258.5v25q0 145 -41.5 255t-122 172t-197.5 62q-120 0 -198 -61.5t-116 -171t-38 -256.5v-25q0 -148 38.5 -259t117 -172.5t197.5 -61.5zM928 1565h-7h-252l-278 267l2 6h332z" />
    <glyph glyph-name="uni1ECE" unicode="&#x1ece;" horiz-adv-x="1474" 
d="M737 -21q-149 0 -272.5 55t-213.5 155t-138.5 234.5t-48.5 293.5v23q0 158 48.5 292t138 234t213 155.5t272.5 55.5q148 0 272 -55.5t216 -155.5t142 -234t50 -292v-23q0 -159 -50 -293.5t-141.5 -234.5t-215.5 -155t-272 -55zM737 224q117 0 197.5 62t121.5 172.5
t41 258.5v25q0 145 -41.5 255t-122 172t-197.5 62q-120 0 -198 -61.5t-116 -171t-38 -256.5v-25q0 -148 38.5 -259t117 -172.5t197.5 -61.5zM592 1533l-19 131q72 2 103.5 17t31.5 47q0 35 -36 50t-101 15l7 140q197 0 301 -51.5t104 -143.5q0 -63 -43.5 -98.5t-105.5 -44.5
l-1 -62h-241z" />
    <glyph glyph-name="Ohorn" unicode="&#x1a0;" horiz-adv-x="1474" 
d="M737 -21q-149 0 -272.5 55t-213.5 155t-138.5 234.5t-48.5 293.5v23q0 158 48.5 292t138 234t213 155.5t272.5 55.5q148 0 272 -55.5t216 -155.5t142 -234t50 -292v-23q0 -159 -50 -293.5t-141.5 -234.5t-215.5 -155t-272 -55zM737 224q117 0 197.5 62t121.5 172.5
t41 258.5v25q0 145 -41.5 255t-122 172t-197.5 62q-120 0 -198 -61.5t-116 -171t-38 -256.5v-25q0 -148 38.5 -259t117 -172.5t197.5 -61.5zM1090 1139v166q88 0 118 62t29 196h249q0 -138 -44.5 -232.5t-132.5 -143t-219 -48.5z" />
    <glyph glyph-name="uni1EDA" unicode="&#x1eda;" horiz-adv-x="1474" 
d="M737 -21q-149 0 -272.5 55t-213.5 155t-138.5 234.5t-48.5 293.5v23q0 158 48.5 292t138 234t213 155.5t272.5 55.5q148 0 272 -55.5t216 -155.5t142 -234t50 -292v-23q0 -159 -50 -293.5t-141.5 -234.5t-215.5 -155t-272 -55zM737 224q117 0 197.5 62t121.5 172.5
t41 258.5v25q0 145 -41.5 255t-122 172t-197.5 62q-120 0 -198 -61.5t-116 -171t-38 -256.5v-25q0 -148 38.5 -259t117 -172.5t197.5 -61.5zM1090 1139v166q88 0 118 62t29 196h249q0 -138 -44.5 -232.5t-132.5 -143t-219 -48.5zM547 1565l203 273h332l2 -6l-277 -267h-253
h-7z" />
    <glyph glyph-name="uni1EE2" unicode="&#x1ee2;" horiz-adv-x="1474" 
d="M737 -21q-149 0 -272.5 55t-213.5 155t-138.5 234.5t-48.5 293.5v23q0 158 48.5 292t138 234t213 155.5t272.5 55.5q148 0 272 -55.5t216 -155.5t142 -234t50 -292v-23q0 -159 -50 -293.5t-141.5 -234.5t-215.5 -155t-272 -55zM737 224q117 0 197.5 62t121.5 172.5
t41 258.5v25q0 145 -41.5 255t-122 172t-197.5 62q-120 0 -198 -61.5t-116 -171t-38 -256.5v-25q0 -148 38.5 -259t117 -172.5t197.5 -61.5zM1090 1139v166q88 0 118 62t29 196h249q0 -138 -44.5 -232.5t-132.5 -143t-219 -48.5zM572 -412v260h330v-260h-330z" />
    <glyph glyph-name="uni1EDC" unicode="&#x1edc;" horiz-adv-x="1474" 
d="M737 -21q-149 0 -272.5 55t-213.5 155t-138.5 234.5t-48.5 293.5v23q0 158 48.5 292t138 234t213 155.5t272.5 55.5q148 0 272 -55.5t216 -155.5t142 -234t50 -292v-23q0 -159 -50 -293.5t-141.5 -234.5t-215.5 -155t-272 -55zM737 224q117 0 197.5 62t121.5 172.5
t41 258.5v25q0 145 -41.5 255t-122 172t-197.5 62q-120 0 -198 -61.5t-116 -171t-38 -256.5v-25q0 -148 38.5 -259t117 -172.5t197.5 -61.5zM1090 1139v166q88 0 118 62t29 196h249q0 -138 -44.5 -232.5t-132.5 -143t-219 -48.5zM928 1565h-7h-252l-278 267l2 6h332z" />
    <glyph glyph-name="uni1EDE" unicode="&#x1ede;" horiz-adv-x="1474" 
d="M737 -21q-149 0 -272.5 55t-213.5 155t-138.5 234.5t-48.5 293.5v23q0 158 48.5 292t138 234t213 155.5t272.5 55.5q148 0 272 -55.5t216 -155.5t142 -234t50 -292v-23q0 -159 -50 -293.5t-141.5 -234.5t-215.5 -155t-272 -55zM737 224q117 0 197.5 62t121.5 172.5
t41 258.5v25q0 145 -41.5 255t-122 172t-197.5 62q-120 0 -198 -61.5t-116 -171t-38 -256.5v-25q0 -148 38.5 -259t117 -172.5t197.5 -61.5zM1090 1139v166q88 0 118 62t29 196h249q0 -138 -44.5 -232.5t-132.5 -143t-219 -48.5zM592 1533l-19 131q72 2 103.5 17t31.5 47
q0 35 -36 50t-101 15l7 140q197 0 301 -51.5t104 -143.5q0 -63 -43.5 -98.5t-105.5 -44.5l-1 -62h-241z" />
    <glyph glyph-name="uni1EE0" unicode="&#x1ee0;" horiz-adv-x="1474" 
d="M737 -21q-149 0 -272.5 55t-213.5 155t-138.5 234.5t-48.5 293.5v23q0 158 48.5 292t138 234t213 155.5t272.5 55.5q148 0 272 -55.5t216 -155.5t142 -234t50 -292v-23q0 -159 -50 -293.5t-141.5 -234.5t-215.5 -155t-272 -55zM737 224q117 0 197.5 62t121.5 172.5
t41 258.5v25q0 145 -41.5 255t-122 172t-197.5 62q-120 0 -198 -61.5t-116 -171t-38 -256.5v-25q0 -148 38.5 -259t117 -172.5t197.5 -61.5zM1090 1139v166q88 0 118 62t29 196h249q0 -138 -44.5 -232.5t-132.5 -143t-219 -48.5zM520 1555l-165 44q0 69 33 127.5t86 93.5
t115 35q49 0 101.5 -23.5t99.5 -47.5t80 -25q41 2 64 32t23 76l164 -46q0 -70 -32.5 -128t-86 -92.5t-116.5 -34.5q-53 0 -105 24t-97 48t-79 24q-42 0 -63.5 -31.5t-21.5 -75.5z" />
    <glyph glyph-name="Ohungarumlaut" unicode="&#x150;" horiz-adv-x="1474" 
d="M737 -21q-149 0 -272.5 55t-213.5 155t-138.5 234.5t-48.5 293.5v23q0 158 48.5 292t138 234t213 155.5t272.5 55.5q148 0 272 -55.5t216 -155.5t142 -234t50 -292v-23q0 -159 -50 -293.5t-141.5 -234.5t-215.5 -155t-272 -55zM737 224q117 0 197.5 62t121.5 172.5
t41 258.5v25q0 145 -41.5 255t-122 172t-197.5 62q-120 0 -198 -61.5t-116 -171t-38 -256.5v-25q0 -148 38.5 -259t117 -172.5t197.5 -61.5zM726 1565l-2 5l240 268h291l1 -6l-291 -267h-239zM365 1565h-7l204 273h274l2 -5l-240 -268h-233z" />
    <glyph glyph-name="Omacron" unicode="&#x14c;" horiz-adv-x="1474" 
d="M737 -21q-149 0 -272.5 55t-213.5 155t-138.5 234.5t-48.5 293.5v23q0 158 48.5 292t138 234t213 155.5t272.5 55.5q148 0 272 -55.5t216 -155.5t142 -234t50 -292v-23q0 -159 -50 -293.5t-141.5 -234.5t-215.5 -155t-272 -55zM737 224q117 0 197.5 62t121.5 172.5
t41 258.5v25q0 145 -41.5 255t-122 172t-197.5 62q-120 0 -198 -61.5t-116 -171t-38 -256.5v-25q0 -148 38.5 -259t117 -172.5t197.5 -61.5zM370 1578v186h734v-186h-734z" />
    <glyph glyph-name="Oslash" unicode="&#xd8;" horiz-adv-x="1474" 
d="M737 -21q-149 0 -272.5 55t-213.5 155t-138.5 234.5t-48.5 293.5v23q0 158 48.5 292t138 234t213 155.5t272.5 55.5q148 0 272 -55.5t216 -155.5t142 -234t50 -292v-23q0 -159 -50 -293.5t-141.5 -234.5t-215.5 -155t-272 -55zM737 224q117 0 197.5 62t121.5 172.5
t41 258.5v25q0 145 -41.5 255t-122 172t-197.5 62q-120 0 -198 -61.5t-116 -171t-38 -256.5v-25q0 -148 38.5 -259t117 -172.5t197.5 -61.5zM176 -83l935 1615h188l-936 -1615h-187z" />
    <glyph glyph-name="Oslashacute" unicode="&#x1fe;" horiz-adv-x="1474" 
d="M737 -21q-149 0 -272.5 55t-213.5 155t-138.5 234.5t-48.5 293.5v23q0 158 48.5 292t138 234t213 155.5t272.5 55.5q148 0 272 -55.5t216 -155.5t142 -234t50 -292v-23q0 -159 -50 -293.5t-141.5 -234.5t-215.5 -155t-272 -55zM737 224q117 0 197.5 62t121.5 172.5
t41 258.5v25q0 145 -41.5 255t-122 172t-197.5 62q-120 0 -198 -61.5t-116 -171t-38 -256.5v-25q0 -148 38.5 -259t117 -172.5t197.5 -61.5zM176 -83l935 1615h188l-936 -1615h-187zM547 1565l203 273h332l2 -6l-277 -267h-253h-7z" />
    <glyph glyph-name="Otilde" unicode="&#xd5;" horiz-adv-x="1474" 
d="M737 -21q-149 0 -272.5 55t-213.5 155t-138.5 234.5t-48.5 293.5v23q0 158 48.5 292t138 234t213 155.5t272.5 55.5q148 0 272 -55.5t216 -155.5t142 -234t50 -292v-23q0 -159 -50 -293.5t-141.5 -234.5t-215.5 -155t-272 -55zM737 224q117 0 197.5 62t121.5 172.5
t41 258.5v25q0 145 -41.5 255t-122 172t-197.5 62q-120 0 -198 -61.5t-116 -171t-38 -256.5v-25q0 -148 38.5 -259t117 -172.5t197.5 -61.5zM520 1555l-165 44q0 69 33 127.5t86 93.5t115 35q49 0 101.5 -23.5t99.5 -47.5t80 -25q41 2 64 32t23 76l164 -46q0 -70 -32.5 -128
t-86 -92.5t-116.5 -34.5q-53 0 -105 24t-97 48t-79 24q-42 0 -63.5 -31.5t-21.5 -75.5z" />
    <glyph glyph-name="OE" unicode="&#x152;" horiz-adv-x="2041" 
d="M761 -21q-156 0 -284.5 55t-221 155t-142 234.5t-49.5 293.5v23q0 158 49.5 292t141.5 234t220 155.5t285 55.5q84 0 167.5 -13t162.5 -37v-305q-70 52 -155 80.5t-175 28.5q-130 0 -213.5 -61.5t-123 -171t-39.5 -256.5v-25q0 -148 40 -259t124 -172.5t213 -61.5
q88 0 172.5 26t156.5 72v-293q-79 -24 -162 -37t-167 -13zM868 0l69 202v1051l-69 203h1076v-413h-240l-12 168h-435v-335h474v-247h-474v-385h436l12 168h238v-412h-1075z" />
    <glyph glyph-name="P" unicode="P" horiz-adv-x="1333" 
d="M48 0v189l154 31v1015l-154 31v190h154h546q171 0 295.5 -59.5t191.5 -166t67 -248.5q0 -141 -67 -247t-191.5 -165t-295.5 -59h-226v-291l153 -31v-189h-627zM522 757h226q116 0 175 63t59 160q0 101 -59 166t-175 65h-226v-454z" />
    <glyph glyph-name="Thorn" unicode="&#xde;" horiz-adv-x="1295" 
d="M66 0v189l154 31v1015l-154 31v190h474h154v-190l-154 -31v-75h190q256 0 398 -117t142 -306q0 -190 -142 -307t-398 -117h-190v-93l154 -31v-189h-628zM540 551h190q74 0 122.5 24t73 66t24.5 94q0 53 -24.5 95.5t-73 67t-122.5 24.5h-190v-371z" />
    <glyph glyph-name="Q" unicode="Q" horiz-adv-x="1470" 
d="M1310 -291l-429 283q-36 -5 -71 -9t-70 -4q-149 0 -273 55t-214 154.5t-138.5 234t-48.5 294.5v23q0 158 48.5 292.5t138.5 234.5t213.5 155t272.5 55q148 0 272 -55t215.5 -155t142 -234.5t50.5 -292.5v-23q0 -187 -75 -344t-196 -256l315 -190zM740 224q119 0 199 62
t120.5 172.5t40.5 258.5v25q0 145 -41.5 255t-122 172t-197.5 62q-121 0 -199 -61.5t-116 -171t-38 -256.5v-25q0 -148 39 -259t118 -172.5t197 -61.5z" />
    <glyph glyph-name="R" unicode="R" horiz-adv-x="1415" 
d="M48 0v189l154 31v1015l-154 31v191h703q170 0 293.5 -53.5t190 -153t66.5 -236.5q0 -128 -66.5 -233.5t-184 -167.5t-269.5 -62l-259 2v-333l153 -31v-189h-627zM978 0l-222 600l284 83l195 -463l131 -31v-189h-388zM522 799h228q115 0 174 50.5t59 146.5
q0 98 -59.5 156.5t-172.5 58.5h-229v-412z" />
    <glyph glyph-name="Racute" unicode="&#x154;" horiz-adv-x="1415" 
d="M48 0v189l154 31v1015l-154 31v191h703q170 0 293.5 -53.5t190 -153t66.5 -236.5q0 -128 -66.5 -233.5t-184 -167.5t-269.5 -62l-259 2v-333l153 -31v-189h-627zM978 0l-222 600l284 83l195 -463l131 -31v-189h-388zM522 799h228q115 0 174 50.5t59 146.5
q0 98 -59.5 156.5t-172.5 58.5h-229v-412zM511 1565l203 273h332l2 -6l-277 -267h-253h-7z" />
    <glyph glyph-name="Rcaron" unicode="&#x158;" horiz-adv-x="1415" 
d="M48 0v189l154 31v1015l-154 31v191h703q170 0 293.5 -53.5t190 -153t66.5 -236.5q0 -128 -66.5 -233.5t-184 -167.5t-269.5 -62l-259 2v-333l153 -31v-189h-627zM978 0l-222 600l284 83l195 -463l131 -31v-189h-388zM522 799h228q115 0 174 50.5t59 146.5
q0 98 -59.5 156.5t-172.5 58.5h-229v-412zM1080 1838v-26l-257 -245h-245l-254 248v23h248l129 -143l135 143h244z" />
    <glyph glyph-name="uni0156" unicode="&#x156;" horiz-adv-x="1415" 
d="M48 0v189l154 31v1015l-154 31v191h703q170 0 293.5 -53.5t190 -153t66.5 -236.5q0 -128 -66.5 -233.5t-184 -167.5t-269.5 -62l-259 2v-333l153 -31v-189h-627zM978 0l-222 600l284 83l195 -463l131 -31v-189h-388zM522 799h228q115 0 174 50.5t59 146.5
q0 98 -59.5 156.5t-172.5 58.5h-229v-412zM669 -531l-149 94q31 49 47.5 98t16.5 124v96h265v-79q0 -96 -52 -185t-128 -148z" />
    <glyph glyph-name="S" unicode="S" horiz-adv-x="1259" 
d="M663 -21q-169 0 -304 35t-267 126v365h247l31 -201q38 -37 118 -61t175 -24q73 0 123 19.5t76 56t26 86.5q0 48 -23.5 85.5t-77.5 69.5t-146 63q-180 55 -296.5 116.5t-174 146t-57.5 207.5q0 119 67.5 209.5t185.5 142.5t272 54q173 4 306 -37t232 -118v-339h-238
l-40 197q-36 21 -99.5 37t-140.5 16q-66 0 -116.5 -18.5t-80 -55t-29.5 -89.5q0 -43 25 -77t86 -65.5t169 -69.5q244 -70 370.5 -180t126.5 -293q0 -127 -68.5 -217.5t-191.5 -138.5t-286 -48z" />
    <glyph glyph-name="Sacute" unicode="&#x15a;" horiz-adv-x="1259" 
d="M663 -21q-169 0 -304 35t-267 126v365h247l31 -201q38 -37 118 -61t175 -24q73 0 123 19.5t76 56t26 86.5q0 48 -23.5 85.5t-77.5 69.5t-146 63q-180 55 -296.5 116.5t-174 146t-57.5 207.5q0 119 67.5 209.5t185.5 142.5t272 54q173 4 306 -37t232 -118v-339h-238
l-40 197q-36 21 -99.5 37t-140.5 16q-66 0 -116.5 -18.5t-80 -55t-29.5 -89.5q0 -43 25 -77t86 -65.5t169 -69.5q244 -70 370.5 -180t126.5 -293q0 -127 -68.5 -217.5t-191.5 -138.5t-286 -48zM439 1565l203 273h332l2 -6l-277 -267h-253h-7z" />
    <glyph glyph-name="Scaron" unicode="&#x160;" horiz-adv-x="1259" 
d="M663 -21q-169 0 -304 35t-267 126v365h247l31 -201q38 -37 118 -61t175 -24q73 0 123 19.5t76 56t26 86.5q0 48 -23.5 85.5t-77.5 69.5t-146 63q-180 55 -296.5 116.5t-174 146t-57.5 207.5q0 119 67.5 209.5t185.5 142.5t272 54q173 4 306 -37t232 -118v-339h-238
l-40 197q-36 21 -99.5 37t-140.5 16q-66 0 -116.5 -18.5t-80 -55t-29.5 -89.5q0 -43 25 -77t86 -65.5t169 -69.5q244 -70 370.5 -180t126.5 -293q0 -127 -68.5 -217.5t-191.5 -138.5t-286 -48zM1007 1838v-26l-257 -245h-245l-254 248v23h248l129 -143l135 143h244z" />
    <glyph glyph-name="Scedilla" unicode="&#x15e;" horiz-adv-x="1259" 
d="M663 -21q-169 0 -304 35t-267 126v365h247l31 -201q38 -37 118 -61t175 -24q73 0 123 19.5t76 56t26 86.5q0 48 -23.5 85.5t-77.5 69.5t-146 63q-180 55 -296.5 116.5t-174 146t-57.5 207.5q0 119 67.5 209.5t185.5 142.5t272 54q173 4 306 -37t232 -118v-339h-238
l-40 197q-36 21 -99.5 37t-140.5 16q-66 0 -116.5 -18.5t-80 -55t-29.5 -89.5q0 -43 25 -77t86 -65.5t169 -69.5q244 -70 370.5 -180t126.5 -293q0 -127 -68.5 -217.5t-191.5 -138.5t-286 -48zM504 -466l-7 174q57 0 90 18.5t33 56.5q0 42 -35 58.5t-107 19.5l32 153h238
l-12 -69q67 -11 112.5 -50.5t45.5 -116.5q0 -111 -101.5 -177.5t-288.5 -66.5z" />
    <glyph glyph-name="Scircumflex" unicode="&#x15c;" horiz-adv-x="1259" 
d="M663 -21q-169 0 -304 35t-267 126v365h247l31 -201q38 -37 118 -61t175 -24q73 0 123 19.5t76 56t26 86.5q0 48 -23.5 85.5t-77.5 69.5t-146 63q-180 55 -296.5 116.5t-174 146t-57.5 207.5q0 119 67.5 209.5t185.5 142.5t272 54q173 4 306 -37t232 -118v-339h-238
l-40 197q-36 21 -99.5 37t-140.5 16q-66 0 -116.5 -18.5t-80 -55t-29.5 -89.5q0 -43 25 -77t86 -65.5t169 -69.5q244 -70 370.5 -180t126.5 -293q0 -127 -68.5 -217.5t-191.5 -138.5t-286 -48zM251 1567v26l257 245h245l254 -248v-23h-248l-130 143l-134 -143h-244z" />
    <glyph glyph-name="uni0218" unicode="&#x218;" horiz-adv-x="1259" 
d="M663 -21q-169 0 -304 35t-267 126v365h247l31 -201q38 -37 118 -61t175 -24q73 0 123 19.5t76 56t26 86.5q0 48 -23.5 85.5t-77.5 69.5t-146 63q-180 55 -296.5 116.5t-174 146t-57.5 207.5q0 119 67.5 209.5t185.5 142.5t272 54q173 4 306 -37t232 -118v-339h-238
l-40 197q-36 21 -99.5 37t-140.5 16q-66 0 -116.5 -18.5t-80 -55t-29.5 -89.5q0 -43 25 -77t86 -65.5t169 -69.5q244 -70 370.5 -180t126.5 -293q0 -127 -68.5 -217.5t-191.5 -138.5t-286 -48zM591 -531l-149 94q31 49 47.5 98t16.5 124v96h265v-79q0 -96 -52 -185
t-128 -148z" />
    <glyph glyph-name="uni1E9E" unicode="&#x1e9e;" horiz-adv-x="1491" 
d="M48 0v189l153 31v1015l-153 31v190h1351v-245h-878v-991l153 -31v-189h-626zM954 -21q-49 0 -94.5 5.5t-84.5 15.5l73 244q23 -9 49 -14.5t54 -5.5q94 0 150.5 57.5t56.5 170.5q0 116 -60 177.5t-174 61.5h-152v190l378 439l249 -109l-318 -360l-79 40q152 1 258 -60
t161.5 -166.5t55.5 -235.5q0 -141 -65.5 -242t-183.5 -154.5t-274 -53.5z" />
    <glyph glyph-name="T" unicode="T" horiz-adv-x="1384" 
d="M377 0v189l154 31v989h-246l-13 -166h-241v413h1324v-413h-244l-12 166h-248v-989l154 -31v-189h-628z" />
    <glyph glyph-name="Tbar" unicode="&#x166;" horiz-adv-x="1384" 
d="M377 0v189l154 31v989h-246l-13 -166h-241v413h1324v-413h-244l-12 166h-248v-989l154 -31v-189h-628zM355 653v155h676v-155h-676z" />
    <glyph glyph-name="Tcaron" unicode="&#x164;" horiz-adv-x="1384" 
d="M377 0v189l154 31v989h-246l-13 -166h-241v413h1324v-413h-244l-12 166h-248v-989l154 -31v-189h-628zM1071 1838v-26l-257 -245h-245l-254 248v23h248l129 -143l135 143h244z" />
    <glyph glyph-name="uni0162" unicode="&#x162;" horiz-adv-x="1384" 
d="M377 0v189l154 31v989h-246l-13 -166h-241v413h1324v-413h-244l-12 166h-248v-989l154 -31v-189h-628zM567 -466l-7 174q57 0 90 18.5t33 56.5q0 42 -35 58.5t-107 19.5l32 153h238l-12 -69q67 -11 112.5 -50.5t45.5 -116.5q0 -111 -101.5 -177.5t-288.5 -66.5z" />
    <glyph glyph-name="uni021A" unicode="&#x21a;" horiz-adv-x="1384" 
d="M377 0v189l154 31v989h-246l-13 -166h-241v413h1324v-413h-244l-12 166h-248v-989l154 -31v-189h-628zM654 -531l-149 94q31 49 47.5 98t16.5 124v96h265v-79q0 -96 -52 -185t-128 -148z" />
    <glyph glyph-name="U" unicode="U" horiz-adv-x="1564" 
d="M782 -21q-180 0 -315.5 60t-209.5 175.5t-74 281.5v739l-153 31v190h626v-190l-153 -31v-739q0 -92 33 -153t95.5 -91t149.5 -30q90 0 153 30t95.5 91t32.5 153v739l-152 31v190h626v-190l-154 -31v-739q0 -164 -75.5 -280t-210 -176.5t-314.5 -60.5z" />
    <glyph glyph-name="Uacute" unicode="&#xda;" horiz-adv-x="1564" 
d="M782 -21q-180 0 -315.5 60t-209.5 175.5t-74 281.5v739l-153 31v190h626v-190l-153 -31v-739q0 -92 33 -153t95.5 -91t149.5 -30q90 0 153 30t95.5 91t32.5 153v739l-152 31v190h626v-190l-154 -31v-739q0 -164 -75.5 -280t-210 -176.5t-314.5 -60.5zM592 1565l203 273
h332l2 -6l-277 -267h-253h-7z" />
    <glyph glyph-name="Ubreve" unicode="&#x16c;" horiz-adv-x="1564" 
d="M782 -21q-180 0 -315.5 60t-209.5 175.5t-74 281.5v739l-153 31v190h626v-190l-153 -31v-739q0 -92 33 -153t95.5 -91t149.5 -30q90 0 153 30t95.5 91t32.5 153v739l-152 31v190h626v-190l-154 -31v-739q0 -164 -75.5 -280t-210 -176.5t-314.5 -60.5zM783 1539
q-166 0 -265 82t-93 211l2 6h212q0 -54 34.5 -90t109.5 -36q73 0 107 35t34 91h214l2 -6q3 -129 -94 -211t-263 -82z" />
    <glyph glyph-name="Ucircumflex" unicode="&#xdb;" horiz-adv-x="1564" 
d="M782 -21q-180 0 -315.5 60t-209.5 175.5t-74 281.5v739l-153 31v190h626v-190l-153 -31v-739q0 -92 33 -153t95.5 -91t149.5 -30q90 0 153 30t95.5 91t32.5 153v739l-152 31v190h626v-190l-154 -31v-739q0 -164 -75.5 -280t-210 -176.5t-314.5 -60.5zM404 1567v26
l257 245h245l254 -248v-23h-248l-130 143l-134 -143h-244z" />
    <glyph glyph-name="Udieresis" unicode="&#xdc;" horiz-adv-x="1564" 
d="M782 -21q-180 0 -315.5 60t-209.5 175.5t-74 281.5v739l-153 31v190h626v-190l-153 -31v-739q0 -92 33 -153t95.5 -91t149.5 -30q90 0 153 30t95.5 91t32.5 153v739l-152 31v190h626v-190l-154 -31v-739q0 -164 -75.5 -280t-210 -176.5t-314.5 -60.5zM861 1577v261h303
v-261h-303zM401 1577v261h303v-261h-303z" />
    <glyph glyph-name="uni1EE4" unicode="&#x1ee4;" horiz-adv-x="1564" 
d="M782 -21q-180 0 -315.5 60t-209.5 175.5t-74 281.5v739l-153 31v190h626v-190l-153 -31v-739q0 -92 33 -153t95.5 -91t149.5 -30q90 0 153 30t95.5 91t32.5 153v739l-152 31v190h626v-190l-154 -31v-739q0 -164 -75.5 -280t-210 -176.5t-314.5 -60.5zM617 -412v260h330
v-260h-330z" />
    <glyph glyph-name="Ugrave" unicode="&#xd9;" horiz-adv-x="1564" 
d="M782 -21q-180 0 -315.5 60t-209.5 175.5t-74 281.5v739l-153 31v190h626v-190l-153 -31v-739q0 -92 33 -153t95.5 -91t149.5 -30q90 0 153 30t95.5 91t32.5 153v739l-152 31v190h626v-190l-154 -31v-739q0 -164 -75.5 -280t-210 -176.5t-314.5 -60.5zM973 1565h-7h-252
l-278 267l2 6h332z" />
    <glyph glyph-name="uni1EE6" unicode="&#x1ee6;" horiz-adv-x="1564" 
d="M782 -21q-180 0 -315.5 60t-209.5 175.5t-74 281.5v739l-153 31v190h626v-190l-153 -31v-739q0 -92 33 -153t95.5 -91t149.5 -30q90 0 153 30t95.5 91t32.5 153v739l-152 31v190h626v-190l-154 -31v-739q0 -164 -75.5 -280t-210 -176.5t-314.5 -60.5zM637 1533l-19 131
q72 2 103.5 17t31.5 47q0 35 -36 50t-101 15l7 140q197 0 301 -51.5t104 -143.5q0 -63 -43.5 -98.5t-105.5 -44.5l-1 -62h-241z" />
    <glyph glyph-name="Uhorn" unicode="&#x1af;" horiz-adv-x="1789" 
d="M778 -21q-178 0 -312.5 60.5t-208.5 176.5t-74 280v739l-153 31v190h626v-190l-152 -31v-739q0 -91 32.5 -152t94 -91t147.5 -30t147 29.5t93.5 90.5t32.5 153v739l-153 31v190h474v-960q0 -164 -74.5 -280t-208.5 -176.5t-311 -60.5zM1346 997l6 195q105 -2 135.5 64
t30.5 220h252v-5q3 -234 -91.5 -352t-332.5 -122z" />
    <glyph glyph-name="uni1EE8" unicode="&#x1ee8;" horiz-adv-x="1789" 
d="M778 -21q-178 0 -312.5 60.5t-208.5 176.5t-74 280v739l-153 31v190h626v-190l-152 -31v-739q0 -91 32.5 -152t94 -91t147.5 -30t147 29.5t93.5 90.5t32.5 153v739l-153 31v190h474v-960q0 -164 -74.5 -280t-208.5 -176.5t-311 -60.5zM1346 997l6 195q105 -2 135.5 64
t30.5 220h252v-5q3 -234 -91.5 -352t-332.5 -122zM583 1565l203 273h332l2 -6l-277 -267h-253h-7z" />
    <glyph glyph-name="uni1EF0" unicode="&#x1ef0;" horiz-adv-x="1789" 
d="M778 -21q-178 0 -312.5 60.5t-208.5 176.5t-74 280v739l-153 31v190h626v-190l-152 -31v-739q0 -91 32.5 -152t94 -91t147.5 -30t147 29.5t93.5 90.5t32.5 153v739l-153 31v190h474v-960q0 -164 -74.5 -280t-208.5 -176.5t-311 -60.5zM1346 997l6 195q105 -2 135.5 64
t30.5 220h252v-5q3 -234 -91.5 -352t-332.5 -122zM613 -412v260h330v-260h-330z" />
    <glyph glyph-name="uni1EEA" unicode="&#x1eea;" horiz-adv-x="1789" 
d="M778 -21q-178 0 -312.5 60.5t-208.5 176.5t-74 280v739l-153 31v190h626v-190l-152 -31v-739q0 -91 32.5 -152t94 -91t147.5 -30t147 29.5t93.5 90.5t32.5 153v739l-153 31v190h474v-960q0 -164 -74.5 -280t-208.5 -176.5t-311 -60.5zM1346 997l6 195q105 -2 135.5 64
t30.5 220h252v-5q3 -234 -91.5 -352t-332.5 -122zM964 1565h-7h-252l-278 267l2 6h332z" />
    <glyph glyph-name="uni1EEC" unicode="&#x1eec;" horiz-adv-x="1789" 
d="M778 -21q-178 0 -312.5 60.5t-208.5 176.5t-74 280v739l-153 31v190h626v-190l-152 -31v-739q0 -91 32.5 -152t94 -91t147.5 -30t147 29.5t93.5 90.5t32.5 153v739l-153 31v190h474v-960q0 -164 -74.5 -280t-208.5 -176.5t-311 -60.5zM1346 997l6 195q105 -2 135.5 64
t30.5 220h252v-5q3 -234 -91.5 -352t-332.5 -122zM628 1533l-19 131q72 2 103.5 17t31.5 47q0 35 -36 50t-101 15l7 140q197 0 301 -51.5t104 -143.5q0 -63 -43.5 -98.5t-105.5 -44.5l-1 -62h-241z" />
    <glyph glyph-name="uni1EEE" unicode="&#x1eee;" horiz-adv-x="1789" 
d="M778 -21q-178 0 -312.5 60.5t-208.5 176.5t-74 280v739l-153 31v190h626v-190l-152 -31v-739q0 -91 32.5 -152t94 -91t147.5 -30t147 29.5t93.5 90.5t32.5 153v739l-153 31v190h474v-960q0 -164 -74.5 -280t-208.5 -176.5t-311 -60.5zM1346 997l6 195q105 -2 135.5 64
t30.5 220h252v-5q3 -234 -91.5 -352t-332.5 -122zM556 1555l-165 44q0 69 33 127.5t86 93.5t115 35q49 0 101.5 -23.5t99.5 -47.5t80 -25q41 2 64 32t23 76l164 -46q0 -70 -32.5 -128t-86 -92.5t-116.5 -34.5q-53 0 -105 24t-97 48t-79 24q-42 0 -63.5 -31.5t-21.5 -75.5z
" />
    <glyph glyph-name="Uhungarumlaut" unicode="&#x170;" horiz-adv-x="1564" 
d="M782 -21q-180 0 -315.5 60t-209.5 175.5t-74 281.5v739l-153 31v190h626v-190l-153 -31v-739q0 -92 33 -153t95.5 -91t149.5 -30q90 0 153 30t95.5 91t32.5 153v739l-152 31v190h626v-190l-154 -31v-739q0 -164 -75.5 -280t-210 -176.5t-314.5 -60.5zM771 1565l-2 5
l240 268h291l1 -6l-291 -267h-239zM410 1565h-7l204 273h274l2 -5l-240 -268h-233z" />
    <glyph glyph-name="Umacron" unicode="&#x16a;" horiz-adv-x="1564" 
d="M782 -21q-180 0 -315.5 60t-209.5 175.5t-74 281.5v739l-153 31v190h626v-190l-153 -31v-739q0 -92 33 -153t95.5 -91t149.5 -30q90 0 153 30t95.5 91t32.5 153v739l-152 31v190h626v-190l-154 -31v-739q0 -164 -75.5 -280t-210 -176.5t-314.5 -60.5zM415 1578v186h734
v-186h-734z" />
    <glyph glyph-name="Uogonek" unicode="&#x172;" horiz-adv-x="1564" 
d="M782 -21q-180 0 -315.5 60t-209.5 175.5t-74 281.5v739l-153 31v190h626v-190l-153 -31v-739q0 -92 33 -153t95.5 -91t149.5 -30q90 0 153 30t95.5 91t32.5 153v739l-152 31v190h626v-190l-154 -31v-739q0 -164 -75.5 -280t-210 -176.5t-314.5 -60.5zM848 -422
q-115 0 -188 58.5t-73 162.5q0 73 52 144.5t176 117.5l142 -61q-74 -43 -105 -81t-31 -80q0 -36 20 -54t64 -18q23 0 42.5 4t36.5 10l35 -163q-33 -17 -74 -28.5t-97 -11.5z" />
    <glyph glyph-name="Uring" unicode="&#x16e;" horiz-adv-x="1564" 
d="M782 -21q-180 0 -315.5 60t-209.5 175.5t-74 281.5v739l-153 31v190h626v-190l-153 -31v-739q0 -92 33 -153t95.5 -91t149.5 -30q90 0 153 30t95.5 91t32.5 153v739l-152 31v190h626v-190l-154 -31v-739q0 -164 -75.5 -280t-210 -176.5t-314.5 -60.5zM784 1507
q-103 0 -172.5 62t-69.5 158t70 160.5t172 64.5q101 0 170 -65t69 -160q0 -96 -69 -158t-170 -62zM784 1632q42 0 66 26t24 69q0 44 -24 70.5t-66 26.5q-40 0 -67 -26.5t-27 -70.5q0 -43 26.5 -69t67.5 -26z" />
    <glyph glyph-name="Utilde" unicode="&#x168;" horiz-adv-x="1564" 
d="M782 -21q-180 0 -315.5 60t-209.5 175.5t-74 281.5v739l-153 31v190h626v-190l-153 -31v-739q0 -92 33 -153t95.5 -91t149.5 -30q90 0 153 30t95.5 91t32.5 153v739l-152 31v190h626v-190l-154 -31v-739q0 -164 -75.5 -280t-210 -176.5t-314.5 -60.5zM565 1555l-165 44
q0 69 33 127.5t86 93.5t115 35q49 0 101.5 -23.5t99.5 -47.5t80 -25q41 2 64 32t23 76l164 -46q0 -70 -32.5 -128t-86 -92.5t-116.5 -34.5q-53 0 -105 24t-97 48t-79 24q-42 0 -63.5 -31.5t-21.5 -75.5z" />
    <glyph glyph-name="V" unicode="V" horiz-adv-x="1543" 
d="M621 0l-462 1250l-134 16v190h614v-190l-130 -20l274 -840l18 -69h6l17 67l270 842l-154 20v190h580v-190l-137 -16l-424 -1250h-338z" />
    <glyph glyph-name="W" unicode="W" horiz-adv-x="2223" 
d="M517 0l-337 1251l-157 15v190h620v-190l-160 -23l165 -681l28 -113h6l31 113l286 894h228l299 -926l29 -91h6l24 91l173 713l-166 23v190h608v-190l-147 -15l-346 -1251h-288l-264 804l-32 113h-6l-39 -117l-268 -800h-293z" />
    <glyph glyph-name="Wacute" unicode="&#x1e82;" horiz-adv-x="2223" 
d="M517 0l-337 1251l-157 15v190h620v-190l-160 -23l165 -681l28 -113h6l31 113l286 894h228l299 -926l29 -91h6l24 91l173 713l-166 23v190h608v-190l-147 -15l-346 -1251h-288l-264 804l-32 113h-6l-39 -117l-268 -800h-293zM922 1565l203 273h332l2 -6l-277 -267h-253h-7
z" />
    <glyph glyph-name="Wcircumflex" unicode="&#x174;" horiz-adv-x="2223" 
d="M517 0l-337 1251l-157 15v190h620v-190l-160 -23l165 -681l28 -113h6l31 113l286 894h228l299 -926l29 -91h6l24 91l173 713l-166 23v190h608v-190l-147 -15l-346 -1251h-288l-264 804l-32 113h-6l-39 -117l-268 -800h-293zM734 1567v26l257 245h245l254 -248v-23h-248
l-130 143l-134 -143h-244z" />
    <glyph glyph-name="Wdieresis" unicode="&#x1e84;" horiz-adv-x="2223" 
d="M517 0l-337 1251l-157 15v190h620v-190l-160 -23l165 -681l28 -113h6l31 113l286 894h228l299 -926l29 -91h6l24 91l173 713l-166 23v190h608v-190l-147 -15l-346 -1251h-288l-264 804l-32 113h-6l-39 -117l-268 -800h-293zM1191 1577v261h303v-261h-303zM731 1577v261
h303v-261h-303z" />
    <glyph glyph-name="Wgrave" unicode="&#x1e80;" horiz-adv-x="2223" 
d="M517 0l-337 1251l-157 15v190h620v-190l-160 -23l165 -681l28 -113h6l31 113l286 894h228l299 -926l29 -91h6l24 91l173 713l-166 23v190h608v-190l-147 -15l-346 -1251h-288l-264 804l-32 113h-6l-39 -117l-268 -800h-293zM1302 1565h-7h-252l-278 267l2 6h332z" />
    <glyph glyph-name="X" unicode="X" horiz-adv-x="1510" 
d="M22 0v189l129 25l400 502l-380 524l-115 26v190h597v-190l-139 -13l229 -321l233 321l-134 13v190h586v-190l-128 -26l-366 -491l412 -534l141 -26v-189h-613v189l121 12l-249 340l-255 -340l119 -12v-189h-588z" />
    <glyph glyph-name="Y" unicode="Y" horiz-adv-x="1522" 
d="M447 0v189l153 31v270l-427 755l-146 21v190h605v-190l-106 -17l222 -434l23 -48h7l24 46l252 436l-156 17v190h592v-190l-148 -21l-423 -730v-295l154 -31v-189h-626z" />
    <glyph glyph-name="Yacute" unicode="&#xdd;" horiz-adv-x="1522" 
d="M447 0v189l153 31v270l-427 755l-146 21v190h605v-190l-106 -17l222 -434l23 -48h7l24 46l252 436l-156 17v190h592v-190l-148 -21l-423 -730v-295l154 -31v-189h-626zM571 1565l203 273h332l2 -6l-277 -267h-253h-7z" />
    <glyph glyph-name="Ycircumflex" unicode="&#x176;" horiz-adv-x="1522" 
d="M447 0v189l153 31v270l-427 755l-146 21v190h605v-190l-106 -17l222 -434l23 -48h7l24 46l252 436l-156 17v190h592v-190l-148 -21l-423 -730v-295l154 -31v-189h-626zM383 1567v26l257 245h245l254 -248v-23h-248l-130 143l-134 -143h-244z" />
    <glyph glyph-name="Ydieresis" unicode="&#x178;" horiz-adv-x="1522" 
d="M447 0v189l153 31v270l-427 755l-146 21v190h605v-190l-106 -17l222 -434l23 -48h7l24 46l252 436l-156 17v190h592v-190l-148 -21l-423 -730v-295l154 -31v-189h-626zM840 1577v261h303v-261h-303zM380 1577v261h303v-261h-303z" />
    <glyph glyph-name="uni1EF4" unicode="&#x1ef4;" horiz-adv-x="1522" 
d="M447 0v189l153 31v270l-427 755l-146 21v190h605v-190l-106 -17l222 -434l23 -48h7l24 46l252 436l-156 17v190h592v-190l-148 -21l-423 -730v-295l154 -31v-189h-626zM596 -412v260h330v-260h-330z" />
    <glyph glyph-name="Ygrave" unicode="&#x1ef2;" horiz-adv-x="1522" 
d="M447 0v189l153 31v270l-427 755l-146 21v190h605v-190l-106 -17l222 -434l23 -48h7l24 46l252 436l-156 17v190h592v-190l-148 -21l-423 -730v-295l154 -31v-189h-626zM951 1565h-7h-252l-278 267l2 6h332z" />
    <glyph glyph-name="uni1EF6" unicode="&#x1ef6;" horiz-adv-x="1522" 
d="M447 0v189l153 31v270l-427 755l-146 21v190h605v-190l-106 -17l222 -434l23 -48h7l24 46l252 436l-156 17v190h592v-190l-148 -21l-423 -730v-295l154 -31v-189h-626zM615 1533l-19 131q72 2 103.5 17t31.5 47q0 35 -36 50t-101 15l7 140q197 0 301 -51.5t104 -143.5
q0 -63 -43.5 -98.5t-105.5 -44.5l-1 -62h-241z" />
    <glyph glyph-name="uni1EF8" unicode="&#x1ef8;" horiz-adv-x="1522" 
d="M447 0v189l153 31v270l-427 755l-146 21v190h605v-190l-106 -17l222 -434l23 -48h7l24 46l252 436l-156 17v190h592v-190l-148 -21l-423 -730v-295l154 -31v-189h-626zM543 1555l-165 44q0 69 33 127.5t86 93.5t115 35q49 0 101.5 -23.5t99.5 -47.5t80 -25q41 2 64 32
t23 76l164 -46q0 -70 -32.5 -128t-86 -92.5t-116.5 -34.5q-53 0 -105 24t-97 48t-79 24q-42 0 -63.5 -31.5t-21.5 -75.5z" />
    <glyph glyph-name="Z" unicode="Z" horiz-adv-x="1235" 
d="M69 0v205l697 1005h-408l-24 -185h-242l15 431h1056v-198l-698 -1013h473l26 180h241l-23 -425h-1113z" />
    <glyph glyph-name="Zacute" unicode="&#x179;" horiz-adv-x="1235" 
d="M69 0v205l697 1005h-408l-24 -185h-242l15 431h1056v-198l-698 -1013h473l26 180h241l-23 -425h-1113zM424 1565l203 273h332l2 -6l-277 -267h-253h-7z" />
    <glyph glyph-name="Zcaron" unicode="&#x17d;" horiz-adv-x="1235" 
d="M69 0v205l697 1005h-408l-24 -185h-242l15 431h1056v-198l-698 -1013h473l26 180h241l-23 -425h-1113zM992 1838v-26l-257 -245h-245l-254 248v23h248l129 -143l135 143h244z" />
    <glyph glyph-name="Zdotaccent" unicode="&#x17b;" horiz-adv-x="1235" 
d="M69 0v205l697 1005h-408l-24 -185h-242l15 431h1056v-198l-698 -1013h473l26 180h241l-23 -425h-1113zM449 1577v261h330v-261h-330z" />
    <glyph glyph-name="C.ss03" horiz-adv-x="1279" 
d="M682 -21q-178 0 -313.5 76.5t-211.5 211.5t-76 312v297q0 176 76.5 311.5t211.5 212.5t314 77q171 0 310 -60.5t235 -167.5v-351h-238l-70 275q-36 27 -90.5 43t-126.5 16q-93 0 -161 -45t-105 -125t-37 -184v-299q0 -106 35.5 -186t103 -125t163.5 -45q68 0 126.5 15
t90.5 41l69 252h239v-325q-95 -108 -235 -167.5t-310 -59.5z" />
    <glyph glyph-name="G.ss03" horiz-adv-x="1320" 
d="M688 -21q-180 0 -316 75.5t-213.5 210t-77.5 311.5v304q0 177 76 311t210.5 210t309.5 76q170 0 311 -55t235 -155l29 -313h-278l-88 225q-29 24 -77.5 38.5t-111.5 14.5q-88 0 -155 -44.5t-104.5 -123t-37.5 -182.5v-306q0 -105 35 -184t100 -124t153 -45q96 0 152 13
t89 34v212l-199 18v223h520v-556q-47 -49 -125 -92.5t-187 -69.5t-250 -26z" />
    <glyph glyph-name="S.ss03" horiz-adv-x="1240" 
d="M649 -21q-162 0 -299.5 55.5t-219.5 162t-79 258.5l2 6h311q0 -85 33 -138t96.5 -78t155.5 -25q74 0 123.5 20t74 57t24.5 87q0 53 -23.5 90.5t-77.5 67t-146 58.5q-178 55 -297 116t-178.5 145.5t-59.5 207.5q0 121 71.5 213t196.5 143.5t285 51.5q161 0 284.5 -57.5
t192.5 -158t65 -228.5l-2 -6h-309q0 62 -28 109t-81 73t-127 26q-72 0 -123.5 -21.5t-78.5 -59.5t-27 -87q0 -46 27.5 -79t90.5 -63t170 -67q245 -69 370.5 -179t125.5 -293q0 -127 -68 -218t-189.5 -140t-285.5 -49z" />
    <glyph glyph-name="C.ss04" horiz-adv-x="1279" 
d="M692 -21q-183 0 -320.5 76.5t-214 211.5t-76.5 312v297q0 176 74.5 311.5t207 212.5t310.5 77q265 0 408.5 -137.5t162.5 -388.5l-2 -6h-312q-8 144 -67 215.5t-190 71.5q-85 0 -146.5 -45t-94 -125t-32.5 -184v-299q0 -105 34.5 -185.5t100 -125.5t157.5 -45
q120 0 174 68.5t62 212.5h311l2 -6q-7 -165 -72.5 -281.5t-185 -177t-291.5 -60.5z" />
    <glyph glyph-name="G.ss04" horiz-adv-x="1320" 
d="M688 -21q-180 0 -316 75.5t-213.5 210t-77.5 311.5v304q0 177 75.5 311t208 210t303.5 76q276 0 415 -129t159 -350l-2 -6h-301q-18 117 -78 178.5t-184 61.5q-83 0 -145.5 -44.5t-97 -123t-34.5 -182.5v-306q0 -105 35 -184t100 -124t153 -45q96 0 152 13t89 34v245
l-171 19v197h492v-564q-47 -49 -125 -92.5t-187 -69.5t-250 -26z" />
    <glyph glyph-name="O.ss04" horiz-adv-x="1378" 
d="M697 -21q-183 0 -321.5 79.5t-216.5 219.5t-78 318v263q0 179 77.5 318.5t215.5 219.5t320 80q183 0 321.5 -80t216.5 -220t78 -318v-263q0 -179 -77.5 -318.5t-215.5 -219t-320 -79.5zM697 225q94 0 160 47.5t100.5 131t34.5 192.5v265q0 108 -35 191t-102 130.5
t-161 47.5q-93 0 -159 -47.5t-100.5 -130.5t-34.5 -191v-265q0 -109 35 -192.5t101.5 -131t160.5 -47.5z" />
    <glyph glyph-name="D.ss05" horiz-adv-x="1426" 
d="M48 0v189l154 31v1015l-154 31v190h154h526q175 0 312 -76.5t215 -211.5t78 -311v-259q0 -178 -79 -312.5t-216 -210t-312 -75.5h-678zM522 244h187q96 0 163.5 43.5t103.5 123t36 187.5v261q0 106 -36 185t-103.5 123t-163.5 44h-187v-967z" />
    <glyph glyph-name="Dcroat.ss05" horiz-adv-x="1439" 
d="M82 0v189l152 31v445h-194v155h194v415l-152 31v190h668q175 0 312 -77t216 -212.5t79 -312.5v-253q0 -177 -79 -312.5t-216 -212t-312 -76.5h-668zM554 244h176q96 0 164.5 45t105 125.5t36.5 186.5v255q0 106 -36.5 186t-105 124.5t-164.5 44.5h-176v-391h205v-155
h-205v-421z" />
    <glyph glyph-name="K.ss05" horiz-adv-x="1585" 
d="M58 0v189l155 35v1006l-155 36v190h623v-190l-148 -36v-361h144l319 379l3 3l-131 15v190h597v-190l-142 -32l-380 -459l461 -556l146 -30v-189h-659v189l127 15v-1l-326 402h-159v-381l148 -35v-189h-623z" />
    <glyph glyph-name="OE.ss05" horiz-adv-x="2004" 
d="M720 -21q-183 0 -323 75.5t-218.5 210.5t-78.5 311v304q0 177 78 311.5t217.5 210t322.5 75.5q69 0 140.5 -6t150.5 -15h943v-413h-240l-12 168h-435v-335h474v-247h-474v-385h437l12 168h237v-412h-942q-93 -10 -157 -15.5t-132 -5.5zM720 224q61 0 117 5t108 13v971
q-50 7 -108 13t-119 6q-94 0 -161 -40t-102.5 -117.5t-35.5 -192.5v-306q0 -115 36 -193t103.5 -118.5t161.5 -40.5z" />
    <glyph glyph-name="R.ss05" horiz-adv-x="1414" 
d="M58 0v189l155 36v1006l-155 35v190h666q250 0 391.5 -114.5t141.5 -315.5q0 -106 -55 -183.5t-164 -131.5q121 -39 174.5 -128t53.5 -218v-68q0 -45 17 -69.5t56 -30.5l36 -6v-191h-162q-146 0 -206.5 80t-60.5 205v78q0 100 -50 158.5t-139 61.5h-224v-358l156 -36v-189
h-631zM533 827h185q110 0 165 46t55 141q0 88 -54 143t-160 55h-191v-385z" />
    <glyph glyph-name="a" unicode="a" horiz-adv-x="1160" 
d="M426 -21q-160 0 -256.5 87.5t-96.5 236.5q0 152 123 248.5t366 96.5h129v72q0 72 -41.5 119t-126.5 47q-41 0 -74.5 -10t-61.5 -29l-23 -140h-228l-4 290q88 45 188 75t222 30q217 0 343 -100t126 -285v-424q0 -23 0.5 -44.5t4.5 -41.5l114 -18v-189h-384q-12 23 -25 54
t-18 62q-51 -63 -117 -100t-160 -37zM518 210q50 0 97 22t76 60v164h-127q-84 0 -128.5 -38t-44.5 -94q0 -54 34.5 -84t92.5 -30z" />
    <glyph glyph-name="aacute" unicode="&#xe1;" horiz-adv-x="1160" 
d="M426 -21q-160 0 -256.5 87.5t-96.5 236.5q0 152 123 248.5t366 96.5h129v72q0 72 -41.5 119t-126.5 47q-41 0 -74.5 -10t-61.5 -29l-23 -140h-228l-4 290q88 45 188 75t222 30q217 0 343 -100t126 -285v-424q0 -23 0.5 -44.5t4.5 -41.5l114 -18v-189h-384q-12 23 -25 54
t-18 62q-51 -63 -117 -100t-160 -37zM518 210q50 0 97 22t76 60v164h-127q-84 0 -128.5 -38t-44.5 -94q0 -54 34.5 -84t92.5 -30zM360 1287l203 273h332l2 -6l-277 -267h-253h-7z" />
    <glyph glyph-name="abreve" unicode="&#x103;" horiz-adv-x="1160" 
d="M426 -21q-160 0 -256.5 87.5t-96.5 236.5q0 152 123 248.5t366 96.5h129v72q0 72 -41.5 119t-126.5 47q-41 0 -74.5 -10t-61.5 -29l-23 -140h-228l-4 290q88 45 188 75t222 30q217 0 343 -100t126 -285v-424q0 -23 0.5 -44.5t4.5 -41.5l114 -18v-189h-384q-12 23 -25 54
t-18 62q-51 -63 -117 -100t-160 -37zM518 210q50 0 97 22t76 60v164h-127q-84 0 -128.5 -38t-44.5 -94q0 -54 34.5 -84t92.5 -30zM551 1261q-166 0 -265 82t-93 211l2 6h212q0 -54 34.5 -90t109.5 -36q73 0 107 35t34 91h214l2 -6q3 -129 -94 -211t-263 -82z" />
    <glyph glyph-name="uni1EAF" unicode="&#x1eaf;" horiz-adv-x="1160" 
d="M426 -21q-160 0 -256.5 87.5t-96.5 236.5q0 152 123 248.5t366 96.5h129v72q0 72 -41.5 119t-126.5 47q-41 0 -74.5 -10t-61.5 -29l-23 -140h-228l-4 290q88 45 188 75t222 30q217 0 343 -100t126 -285v-424q0 -23 0.5 -44.5t4.5 -41.5l114 -18v-189h-384q-12 23 -25 54
t-18 62q-51 -63 -117 -100t-160 -37zM518 210q50 0 97 22t76 60v164h-127q-84 0 -128.5 -38t-44.5 -94q0 -54 34.5 -84t92.5 -30zM543 1228q-166 0 -265 75.5t-93 194.5l2 6h207q0 -49 36 -81t113 -32q76 0 111.5 31.5t35.5 81.5h208l2 -6q4 -119 -93.5 -194.5t-263.5 -75.5
zM439 1510l110 225h264l2 -6l-200 -219h-168h-8z" />
    <glyph glyph-name="uni1EB7" unicode="&#x1eb7;" horiz-adv-x="1160" 
d="M426 -21q-160 0 -256.5 87.5t-96.5 236.5q0 152 123 248.5t366 96.5h129v72q0 72 -41.5 119t-126.5 47q-41 0 -74.5 -10t-61.5 -29l-23 -140h-228l-4 290q88 45 188 75t222 30q217 0 343 -100t126 -285v-424q0 -23 0.5 -44.5t4.5 -41.5l114 -18v-189h-384q-12 23 -25 54
t-18 62q-51 -63 -117 -100t-160 -37zM518 210q50 0 97 22t76 60v164h-127q-84 0 -128.5 -38t-44.5 -94q0 -54 34.5 -84t92.5 -30zM551 1261q-166 0 -265 82t-93 211l2 6h212q0 -54 34.5 -90t109.5 -36q73 0 107 35t34 91h214l2 -6q3 -129 -94 -211t-263 -82zM412 -412v260
h330v-260h-330z" />
    <glyph glyph-name="uni1EB1" unicode="&#x1eb1;" horiz-adv-x="1160" 
d="M426 -21q-160 0 -256.5 87.5t-96.5 236.5q0 152 123 248.5t366 96.5h129v72q0 72 -41.5 119t-126.5 47q-41 0 -74.5 -10t-61.5 -29l-23 -140h-228l-4 290q88 45 188 75t222 30q217 0 343 -100t126 -285v-424q0 -23 0.5 -44.5t4.5 -41.5l114 -18v-189h-384q-12 23 -25 54
t-18 62q-51 -63 -117 -100t-160 -37zM518 210q50 0 97 22t76 60v164h-127q-84 0 -128.5 -38t-44.5 -94q0 -54 34.5 -84t92.5 -30zM558 1228q-166 0 -263.5 75.5t-93.5 194.5l2 6h208q0 -50 36 -81.5t111 -31.5q77 0 113 32t36 81h207l2 -6q5 -119 -93 -194.5t-265 -75.5z
M662 1510h-8h-168l-201 219l2 6h265z" />
    <glyph glyph-name="uni1EB3" unicode="&#x1eb3;" horiz-adv-x="1160" 
d="M426 -21q-160 0 -256.5 87.5t-96.5 236.5q0 152 123 248.5t366 96.5h129v72q0 72 -41.5 119t-126.5 47q-41 0 -74.5 -10t-61.5 -29l-23 -140h-228l-4 290q88 45 188 75t222 30q217 0 343 -100t126 -285v-424q0 -23 0.5 -44.5t4.5 -41.5l114 -18v-189h-384q-12 23 -25 54
t-18 62q-51 -63 -117 -100t-160 -37zM518 210q50 0 97 22t76 60v164h-127q-84 0 -128.5 -38t-44.5 -94q0 -54 34.5 -84t92.5 -30zM550 1228q-166 0 -265 75.5t-93 194.5l2 6h208q0 -49 35.5 -81t112.5 -32q75 0 110.5 31.5t35.5 81.5h209l2 -6q4 -119 -93.5 -194.5
t-263.5 -75.5zM447 1499l-20 116q72 2 103.5 14t31.5 38q0 30 -35 42t-99 12l7 120q173 0 264.5 -41.5t91.5 -115.5q0 -55 -41.5 -86t-104.5 -39l-1 -60h-197z" />
    <glyph glyph-name="uni1EB5" unicode="&#x1eb5;" horiz-adv-x="1160" 
d="M426 -21q-160 0 -256.5 87.5t-96.5 236.5q0 152 123 248.5t366 96.5h129v72q0 72 -41.5 119t-126.5 47q-41 0 -74.5 -10t-61.5 -29l-23 -140h-228l-4 290q88 45 188 75t222 30q217 0 343 -100t126 -285v-424q0 -23 0.5 -44.5t4.5 -41.5l114 -18v-189h-384q-12 23 -25 54
t-18 62q-51 -63 -117 -100t-160 -37zM518 210q50 0 97 22t76 60v164h-127q-84 0 -128.5 -38t-44.5 -94q0 -54 34.5 -84t92.5 -30zM550 1228q-166 0 -265 75.5t-93 194.5l2 6h208q0 -49 35.5 -81t112.5 -32q75 0 110.5 31.5t35.5 81.5h209l2 -6q4 -119 -93.5 -194.5
t-263.5 -75.5zM348 1548l-151 42q0 63 30 116t80 85.5t108 32.5q45 0 93.5 -22t92.5 -43.5t77 -21.5q39 0 61.5 29t22.5 70l150 -43q0 -64 -30.5 -117.5t-79.5 -85t-109 -31.5q-49 0 -97 22t-90.5 44t-75.5 22q-39 0 -60.5 -29.5t-21.5 -69.5z" />
    <glyph glyph-name="acircumflex" unicode="&#xe2;" horiz-adv-x="1160" 
d="M426 -21q-160 0 -256.5 87.5t-96.5 236.5q0 152 123 248.5t366 96.5h129v72q0 72 -41.5 119t-126.5 47q-41 0 -74.5 -10t-61.5 -29l-23 -140h-228l-4 290q88 45 188 75t222 30q217 0 343 -100t126 -285v-424q0 -23 0.5 -44.5t4.5 -41.5l114 -18v-189h-384q-12 23 -25 54
t-18 62q-51 -63 -117 -100t-160 -37zM518 210q50 0 97 22t76 60v164h-127q-84 0 -128.5 -38t-44.5 -94q0 -54 34.5 -84t92.5 -30zM173 1289v26l257 245h245l254 -248v-23h-248l-130 143l-134 -143h-244z" />
    <glyph glyph-name="uni1EA5" unicode="&#x1ea5;" horiz-adv-x="1160" 
d="M426 -21q-160 0 -256.5 87.5t-96.5 236.5q0 152 123 248.5t366 96.5h129v72q0 72 -41.5 119t-126.5 47q-41 0 -74.5 -10t-61.5 -29l-23 -140h-228l-4 290q88 45 188 75t222 30q217 0 343 -100t126 -285v-424q0 -23 0.5 -44.5t4.5 -41.5l114 -18v-189h-384q-12 23 -25 54
t-18 62q-51 -63 -117 -100t-160 -37zM518 210q50 0 97 22t76 60v164h-127q-84 0 -128.5 -38t-44.5 -94q0 -54 34.5 -84t92.5 -30zM171 1249v26l257 226h247l254 -229v-23h-251l-128 128l-133 -128h-246zM752 1510l110 225h265l2 -6l-201 -219h-168h-8z" />
    <glyph glyph-name="uni1EAD" unicode="&#x1ead;" horiz-adv-x="1160" 
d="M426 -21q-160 0 -256.5 87.5t-96.5 236.5q0 152 123 248.5t366 96.5h129v72q0 72 -41.5 119t-126.5 47q-41 0 -74.5 -10t-61.5 -29l-23 -140h-228l-4 290q88 45 188 75t222 30q217 0 343 -100t126 -285v-424q0 -23 0.5 -44.5t4.5 -41.5l114 -18v-189h-384q-12 23 -25 54
t-18 62q-51 -63 -117 -100t-160 -37zM518 210q50 0 97 22t76 60v164h-127q-84 0 -128.5 -38t-44.5 -94q0 -54 34.5 -84t92.5 -30zM173 1289v26l257 245h245l254 -248v-23h-248l-130 143l-134 -143h-244zM412 -412v260h330v-260h-330z" />
    <glyph glyph-name="uni1EA7" unicode="&#x1ea7;" horiz-adv-x="1160" 
d="M426 -21q-160 0 -256.5 87.5t-96.5 236.5q0 152 123 248.5t366 96.5h129v72q0 72 -41.5 119t-126.5 47q-41 0 -74.5 -10t-61.5 -29l-23 -140h-228l-4 290q88 45 188 75t222 30q217 0 343 -100t126 -285v-424q0 -23 0.5 -44.5t4.5 -41.5l114 -18v-189h-384q-12 23 -25 54
t-18 62q-51 -63 -117 -100t-160 -37zM518 210q50 0 97 22t76 60v164h-127q-84 0 -128.5 -38t-44.5 -94q0 -54 34.5 -84t92.5 -30zM931 1249h-247l-133 128l-128 -128h-250v23l254 229h246l258 -226v-26zM349 1510h-7h-168l-201 219l2 6h265z" />
    <glyph glyph-name="uni1EA9" unicode="&#x1ea9;" horiz-adv-x="1160" 
d="M426 -21q-160 0 -256.5 87.5t-96.5 236.5q0 152 123 248.5t366 96.5h129v72q0 72 -41.5 119t-126.5 47q-41 0 -74.5 -10t-61.5 -29l-23 -140h-228l-4 290q88 45 188 75t222 30q217 0 343 -100t126 -285v-424q0 -23 0.5 -44.5t4.5 -41.5l114 -18v-189h-384q-12 23 -25 54
t-18 62q-51 -63 -117 -100t-160 -37zM518 210q50 0 97 22t76 60v164h-127q-84 0 -128.5 -38t-44.5 -94q0 -54 34.5 -84t92.5 -30zM171 1249v26l257 226h247l254 -229v-23h-251l-128 128l-133 -128h-246zM785 1456l-19 115q66 3 95.5 14.5t29.5 37.5q0 30 -32.5 42t-91.5 12
l7 120q168 0 257 -41.5t89 -115.5q0 -55 -39.5 -85.5t-99.5 -38.5l-1 -60h-195z" />
    <glyph glyph-name="uni1EAB" unicode="&#x1eab;" horiz-adv-x="1160" 
d="M426 -21q-160 0 -256.5 87.5t-96.5 236.5q0 152 123 248.5t366 96.5h129v72q0 72 -41.5 119t-126.5 47q-41 0 -74.5 -10t-61.5 -29l-23 -140h-228l-4 290q88 45 188 75t222 30q217 0 343 -100t126 -285v-424q0 -23 0.5 -44.5t4.5 -41.5l114 -18v-189h-384q-12 23 -25 54
t-18 62q-51 -63 -117 -100t-160 -37zM518 210q50 0 97 22t76 60v164h-127q-84 0 -128.5 -38t-44.5 -94q0 -54 34.5 -84t92.5 -30zM339 1548l-151 42q0 63 30 116t80 85.5t107 32.5q46 0 93.5 -22t91 -43.5t76.5 -21.5q39 0 61 29t22 70l151 -43q-1 -64 -31 -117.5t-79.5 -85
t-108.5 -31.5q-49 0 -96.5 22t-89 44t-74.5 22q-39 0 -60.5 -29.5t-21.5 -69.5zM172 1249v26l257 226h247l254 -229v-23h-251l-128 128l-133 -128h-246z" />
    <glyph glyph-name="adieresis" unicode="&#xe4;" horiz-adv-x="1160" 
d="M426 -21q-160 0 -256.5 87.5t-96.5 236.5q0 152 123 248.5t366 96.5h129v72q0 72 -41.5 119t-126.5 47q-41 0 -74.5 -10t-61.5 -29l-23 -140h-228l-4 290q88 45 188 75t222 30q217 0 343 -100t126 -285v-424q0 -23 0.5 -44.5t4.5 -41.5l114 -18v-189h-384q-12 23 -25 54
t-18 62q-51 -63 -117 -100t-160 -37zM518 210q50 0 97 22t76 60v164h-127q-84 0 -128.5 -38t-44.5 -94q0 -54 34.5 -84t92.5 -30zM629 1299v261h303v-261h-303zM169 1299v261h303v-261h-303z" />
    <glyph glyph-name="uni1EA1" unicode="&#x1ea1;" horiz-adv-x="1160" 
d="M426 -21q-160 0 -256.5 87.5t-96.5 236.5q0 152 123 248.5t366 96.5h129v72q0 72 -41.5 119t-126.5 47q-41 0 -74.5 -10t-61.5 -29l-23 -140h-228l-4 290q88 45 188 75t222 30q217 0 343 -100t126 -285v-424q0 -23 0.5 -44.5t4.5 -41.5l114 -18v-189h-384q-12 23 -25 54
t-18 62q-51 -63 -117 -100t-160 -37zM518 210q50 0 97 22t76 60v164h-127q-84 0 -128.5 -38t-44.5 -94q0 -54 34.5 -84t92.5 -30zM412 -412v260h330v-260h-330z" />
    <glyph glyph-name="agrave" unicode="&#xe0;" horiz-adv-x="1160" 
d="M426 -21q-160 0 -256.5 87.5t-96.5 236.5q0 152 123 248.5t366 96.5h129v72q0 72 -41.5 119t-126.5 47q-41 0 -74.5 -10t-61.5 -29l-23 -140h-228l-4 290q88 45 188 75t222 30q217 0 343 -100t126 -285v-424q0 -23 0.5 -44.5t4.5 -41.5l114 -18v-189h-384q-12 23 -25 54
t-18 62q-51 -63 -117 -100t-160 -37zM518 210q50 0 97 22t76 60v164h-127q-84 0 -128.5 -38t-44.5 -94q0 -54 34.5 -84t92.5 -30zM741 1287h-7h-252l-278 267l2 6h332z" />
    <glyph glyph-name="uni1EA3" unicode="&#x1ea3;" horiz-adv-x="1160" 
d="M426 -21q-160 0 -256.5 87.5t-96.5 236.5q0 152 123 248.5t366 96.5h129v72q0 72 -41.5 119t-126.5 47q-41 0 -74.5 -10t-61.5 -29l-23 -140h-228l-4 290q88 45 188 75t222 30q217 0 343 -100t126 -285v-424q0 -23 0.5 -44.5t4.5 -41.5l114 -18v-189h-384q-12 23 -25 54
t-18 62q-51 -63 -117 -100t-160 -37zM518 210q50 0 97 22t76 60v164h-127q-84 0 -128.5 -38t-44.5 -94q0 -54 34.5 -84t92.5 -30zM405 1255l-19 131q72 2 103.5 17t31.5 47q0 35 -36 50t-101 15l7 140q197 0 301 -51.5t104 -143.5q0 -63 -43.5 -98.5t-105.5 -44.5l-1 -62
h-241z" />
    <glyph glyph-name="amacron" unicode="&#x101;" horiz-adv-x="1160" 
d="M426 -21q-160 0 -256.5 87.5t-96.5 236.5q0 152 123 248.5t366 96.5h129v72q0 72 -41.5 119t-126.5 47q-41 0 -74.5 -10t-61.5 -29l-23 -140h-228l-4 290q88 45 188 75t222 30q217 0 343 -100t126 -285v-424q0 -23 0.5 -44.5t4.5 -41.5l114 -18v-189h-384q-12 23 -25 54
t-18 62q-51 -63 -117 -100t-160 -37zM518 210q50 0 97 22t76 60v164h-127q-84 0 -128.5 -38t-44.5 -94q0 -54 34.5 -84t92.5 -30zM183 1300v186h734v-186h-734z" />
    <glyph glyph-name="aogonek" unicode="&#x105;" horiz-adv-x="1160" 
d="M426 -21q-160 0 -256.5 87.5t-96.5 236.5q0 152 123 248.5t366 96.5h129v72q0 72 -41.5 119t-126.5 47q-41 0 -74.5 -10t-61.5 -29l-23 -140h-228l-4 290q88 45 188 75t222 30q217 0 343 -100t126 -285v-424q0 -23 0.5 -44.5t4.5 -41.5l114 -18v-189h-384q-12 23 -25 54
t-18 62q-51 -63 -117 -100t-160 -37zM518 210q50 0 97 22t76 60v164h-127q-84 0 -128.5 -38t-44.5 -94q0 -54 34.5 -84t92.5 -30zM1022 -422q-115 0 -188 58.5t-73 162.5q0 73 52 144.5t176 117.5l142 -61q-74 -43 -105 -81t-31 -80q0 -36 20 -54t64 -18q23 0 42.5 4
t36.5 10l35 -163q-33 -17 -74 -28.5t-97 -11.5z" />
    <glyph glyph-name="aring" unicode="&#xe5;" horiz-adv-x="1160" 
d="M426 -21q-160 0 -256.5 87.5t-96.5 236.5q0 152 123 248.5t366 96.5h129v72q0 72 -41.5 119t-126.5 47q-41 0 -74.5 -10t-61.5 -29l-23 -140h-228l-4 290q88 45 188 75t222 30q217 0 343 -100t126 -285v-424q0 -23 0.5 -44.5t4.5 -41.5l114 -18v-189h-384q-12 23 -25 54
t-18 62q-51 -63 -117 -100t-160 -37zM518 210q50 0 97 22t76 60v164h-127q-84 0 -128.5 -38t-44.5 -94q0 -54 34.5 -84t92.5 -30zM552 1229q-103 0 -172.5 62t-69.5 158t70 160.5t172 64.5q101 0 170 -65t69 -160q0 -96 -69 -158t-170 -62zM552 1354q42 0 66 26t24 69
q0 44 -24 70.5t-66 26.5q-40 0 -67 -26.5t-27 -70.5q0 -43 26.5 -69t67.5 -26z" />
    <glyph glyph-name="aringacute" unicode="&#x1fb;" horiz-adv-x="1160" 
d="M426 -21q-160 0 -256.5 87.5t-96.5 236.5q0 152 123 248.5t366 96.5h129v72q0 72 -41.5 119t-126.5 47q-41 0 -74.5 -10t-61.5 -29l-23 -140h-228l-4 290q88 45 188 75t222 30q217 0 343 -100t126 -285v-424q0 -23 0.5 -44.5t4.5 -41.5l114 -18v-189h-384q-12 23 -25 54
t-18 62q-51 -63 -117 -100t-160 -37zM518 210q50 0 97 22t76 60v164h-127q-84 0 -128.5 -38t-44.5 -94q0 -54 34.5 -84t92.5 -30zM553 1040q-104 0 -172.5 60.5t-68.5 154.5q0 92 69.5 155.5t171.5 63.5q100 0 168 -63t68 -156q0 -94 -68 -154.5t-168 -60.5zM553 1165
q40 0 64 24.5t24 65.5t-23.5 66.5t-64.5 25.5t-67 -25.5t-26 -66.5q0 -40 26 -65t67 -25zM445 1529l127 206h269l2 -6l-206 -200h-185h-7z" />
    <glyph glyph-name="uni1E01" unicode="&#x1e01;" horiz-adv-x="1160" 
d="M426 -21q-160 0 -256.5 87.5t-96.5 236.5q0 152 123 248.5t366 96.5h129v72q0 72 -41.5 119t-126.5 47q-41 0 -74.5 -10t-61.5 -29l-23 -140h-228l-4 290q88 45 188 75t222 30q217 0 343 -100t126 -285v-424q0 -23 0.5 -44.5t4.5 -41.5l114 -18v-189h-384q-12 23 -25 54
t-18 62q-51 -63 -117 -100t-160 -37zM518 210q50 0 97 22t76 60v164h-127q-84 0 -128.5 -38t-44.5 -94q0 -54 34.5 -84t92.5 -30zM579 -526q-103 0 -172.5 62t-69.5 158t70 160.5t172 64.5q101 0 170 -65t69 -160q0 -96 -69 -158t-170 -62zM579 -401q42 0 66 26t24 69
q0 44 -24 70.5t-66 26.5q-40 0 -67 -26.5t-27 -70.5q0 -43 26.5 -69t67.5 -26z" />
    <glyph glyph-name="atilde" unicode="&#xe3;" horiz-adv-x="1160" 
d="M426 -21q-160 0 -256.5 87.5t-96.5 236.5q0 152 123 248.5t366 96.5h129v72q0 72 -41.5 119t-126.5 47q-41 0 -74.5 -10t-61.5 -29l-23 -140h-228l-4 290q88 45 188 75t222 30q217 0 343 -100t126 -285v-424q0 -23 0.5 -44.5t4.5 -41.5l114 -18v-189h-384q-12 23 -25 54
t-18 62q-51 -63 -117 -100t-160 -37zM518 210q50 0 97 22t76 60v164h-127q-84 0 -128.5 -38t-44.5 -94q0 -54 34.5 -84t92.5 -30zM333 1277l-165 44q0 69 33 127.5t86 93.5t115 35q49 0 101.5 -23.5t99.5 -47.5t80 -25q41 2 64 32t23 76l164 -46q0 -70 -32.5 -128t-86 -92.5
t-116.5 -34.5q-53 0 -105 24t-97 48t-79 24q-42 0 -63.5 -31.5t-21.5 -75.5z" />
    <glyph glyph-name="ae" unicode="&#xe6;" horiz-adv-x="1715" 
d="M452 -21q-178 0 -278.5 88t-100.5 237q0 102 55 179.5t163.5 121.5t270.5 44h129v71q0 72 -41.5 119t-126.5 47q-41 0 -74.5 -10t-61.5 -29l-23 -140h-228l-4 290q88 45 188 75t223 30q106 0 190 -32t139 -98q42 44 91 73t105.5 43t120.5 14q141 0 243.5 -60t157.5 -170
t55 -260v-170h-632l-2 -6q5 -98 63 -155.5t176 -57.5q85 0 145 18.5t138 55.5l80 -198q-65 -48 -175.5 -84t-232.5 -36q-245 0 -379 151q-72 -72 -163 -111.5t-211 -39.5zM519 210q36 0 72 12t67.5 34t53.5 52q-12 35 -16.5 71.5t-4.5 68.5v9h-127q-84 0 -128.5 -37.5
t-44.5 -94.5q0 -52 34.5 -83.5t93.5 -31.5zM1013 645h320v28q0 86 -40.5 135t-113.5 49q-49 0 -85.5 -25t-57.5 -71t-25 -111z" />
    <glyph glyph-name="aeacute" unicode="&#x1fd;" horiz-adv-x="1715" 
d="M452 -21q-178 0 -278.5 88t-100.5 237q0 102 55 179.5t163.5 121.5t270.5 44h129v71q0 72 -41.5 119t-126.5 47q-41 0 -74.5 -10t-61.5 -29l-23 -140h-228l-4 290q88 45 188 75t223 30q106 0 190 -32t139 -98q42 44 91 73t105.5 43t120.5 14q141 0 243.5 -60t157.5 -170
t55 -260v-170h-632l-2 -6q5 -98 63 -155.5t176 -57.5q85 0 145 18.5t138 55.5l80 -198q-65 -48 -175.5 -84t-232.5 -36q-245 0 -379 151q-72 -72 -163 -111.5t-211 -39.5zM519 210q36 0 72 12t67.5 34t53.5 52q-12 35 -16.5 71.5t-4.5 68.5v9h-127q-84 0 -128.5 -37.5
t-44.5 -94.5q0 -52 34.5 -83.5t93.5 -31.5zM1013 645h320v28q0 86 -40.5 135t-113.5 49q-49 0 -85.5 -25t-57.5 -71t-25 -111zM678 1287l203 273h332l2 -6l-277 -267h-253h-7z" />
    <glyph glyph-name="b" unicode="b" horiz-adv-x="1191" 
d="M711 -21q-99 0 -168 39t-116 113l-22 -131h-276v1339l-153 31v190h472v-589q45 63 112 97t155 34q130 0 220.5 -69.5t138 -197t47.5 -300.5v-21q0 -162 -47.5 -282.5t-139 -186.5t-223.5 -66zM611 226q104 0 147.5 73.5t43.5 214.5v21q0 101 -19.5 172t-60.5 109.5
t-107 38.5q-58 0 -100.5 -27.5t-66.5 -73.5v-444q28 -42 69 -63t94 -21z" />
    <glyph glyph-name="c" unicode="c" horiz-adv-x="1087" 
d="M574 -21q-158 0 -272.5 70.5t-176 194t-61.5 282.5v27q0 161 63 285t177 194t268 70q150 0 258 -46t173 -102l-4 -325h-240l-40 195q-20 20 -53 33t-62 13q-78 0 -126.5 -36.5t-71 -106.5t-22.5 -174v-27q0 -109 27 -175.5t71.5 -97t94.5 -30.5q71 0 111.5 36.5
t58.5 104.5h271l4 -6q-21 -122 -71.5 -206.5t-141.5 -128.5t-235 -44z" />
    <glyph glyph-name="cacute" unicode="&#x107;" horiz-adv-x="1087" 
d="M574 -21q-158 0 -272.5 70.5t-176 194t-61.5 282.5v27q0 161 63 285t177 194t268 70q150 0 258 -46t173 -102l-4 -325h-240l-40 195q-20 20 -53 33t-62 13q-78 0 -126.5 -36.5t-71 -106.5t-22.5 -174v-27q0 -109 27 -175.5t71.5 -97t94.5 -30.5q71 0 111.5 36.5
t58.5 104.5h271l4 -6q-21 -122 -71.5 -206.5t-141.5 -128.5t-235 -44zM363 1287l203 273h332l2 -6l-277 -267h-253h-7z" />
    <glyph glyph-name="ccaron" unicode="&#x10d;" horiz-adv-x="1087" 
d="M574 -21q-158 0 -272.5 70.5t-176 194t-61.5 282.5v27q0 161 63 285t177 194t268 70q150 0 258 -46t173 -102l-4 -325h-240l-40 195q-20 20 -53 33t-62 13q-78 0 -126.5 -36.5t-71 -106.5t-22.5 -174v-27q0 -109 27 -175.5t71.5 -97t94.5 -30.5q71 0 111.5 36.5
t58.5 104.5h271l4 -6q-21 -122 -71.5 -206.5t-141.5 -128.5t-235 -44zM932 1560v-26l-257 -245h-245l-254 248v23h248l129 -143l135 143h244z" />
    <glyph glyph-name="ccedilla" unicode="&#xe7;" horiz-adv-x="1087" 
d="M574 -21q-158 0 -272.5 70.5t-176 194t-61.5 282.5v27q0 161 63 285t177 194t268 70q150 0 258 -46t173 -102l-4 -325h-240l-40 195q-20 20 -53 33t-62 13q-78 0 -126.5 -36.5t-71 -106.5t-22.5 -174v-27q0 -109 27 -175.5t71.5 -97t94.5 -30.5q71 0 111.5 36.5
t58.5 104.5h271l4 -6q-21 -122 -71.5 -206.5t-141.5 -128.5t-235 -44zM428 -466l-7 174q57 0 90 18.5t33 56.5q0 42 -35 58.5t-107 19.5l32 153h238l-12 -69q67 -11 112.5 -50.5t45.5 -116.5q0 -111 -101.5 -177.5t-288.5 -66.5z" />
    <glyph glyph-name="ccircumflex" unicode="&#x109;" horiz-adv-x="1087" 
d="M574 -21q-158 0 -272.5 70.5t-176 194t-61.5 282.5v27q0 161 63 285t177 194t268 70q150 0 258 -46t173 -102l-4 -325h-240l-40 195q-20 20 -53 33t-62 13q-78 0 -126.5 -36.5t-71 -106.5t-22.5 -174v-27q0 -109 27 -175.5t71.5 -97t94.5 -30.5q71 0 111.5 36.5
t58.5 104.5h271l4 -6q-21 -122 -71.5 -206.5t-141.5 -128.5t-235 -44zM176 1289v26l257 245h245l254 -248v-23h-248l-130 143l-134 -143h-244z" />
    <glyph glyph-name="cdotaccent" unicode="&#x10b;" horiz-adv-x="1087" 
d="M574 -21q-158 0 -272.5 70.5t-176 194t-61.5 282.5v27q0 161 63 285t177 194t268 70q150 0 258 -46t173 -102l-4 -325h-240l-40 195q-20 20 -53 33t-62 13q-78 0 -126.5 -36.5t-71 -106.5t-22.5 -174v-27q0 -109 27 -175.5t71.5 -97t94.5 -30.5q71 0 111.5 36.5
t58.5 104.5h271l4 -6q-21 -122 -71.5 -206.5t-141.5 -128.5t-235 -44zM388 1299v261h330v-261h-330z" />
    <glyph glyph-name="d" unicode="d" horiz-adv-x="1210" 
d="M473 -21q-128 0 -220 66.5t-140.5 187.5t-48.5 281v21q0 170 49 297.5t140.5 198.5t217.5 71q88 0 152.5 -35.5t112.5 -100.5v373l-154 31v190h154h320v-1340l134 -31v-189h-411l-24 133q-50 -76 -119 -115t-163 -39zM571 226q52 0 94.5 21.5t70.5 63.5v447
q-28 46 -69 71.5t-94 25.5q-67 0 -109 -40.5t-61 -112t-19 -167.5v-21q0 -135 42 -211.5t145 -76.5z" />
    <glyph glyph-name="dcaron" unicode="&#x10f;" horiz-adv-x="1212" 
d="M473 -21q-128 0 -220 66.5t-140.5 187.5t-48.5 281v21q0 170 49 297.5t140.5 198.5t217.5 71q88 0 152.5 -35.5t112.5 -100.5v373l-154 31v190h154h320v-1340l134 -31v-189h-411l-24 133q-50 -76 -119 -115t-163 -39zM571 226q52 0 94.5 21.5t70.5 63.5v447
q-28 46 -69 71.5t-94 25.5q-67 0 -109 -40.5t-61 -112t-19 -167.5v-21q0 -135 42 -211.5t145 -76.5zM1264 1149l-149 94q31 48 47.5 97.5t16.5 123.5v96h265v-79q0 -96 -52 -185t-128 -147z" />
    <glyph glyph-name="dcroat" unicode="&#x111;" horiz-adv-x="1210" 
d="M473 -21q-128 0 -220 66.5t-140.5 187.5t-48.5 281v21q0 170 49 297.5t140.5 198.5t217.5 71q88 0 152.5 -35.5t112.5 -100.5v373l-154 31v190h154h320v-1340l134 -31v-189h-411l-24 133q-50 -76 -119 -115t-163 -39zM571 226q52 0 94.5 21.5t70.5 63.5v447
q-28 46 -69 71.5t-94 25.5q-67 0 -109 -40.5t-61 -112t-19 -167.5v-21q0 -135 42 -211.5t145 -76.5zM535 1127v155h676v-155h-676z" />
    <glyph glyph-name="eth" unicode="&#xf0;" horiz-adv-x="1225" 
d="M605 -21q-163 0 -287 65t-193.5 178.5t-69.5 257.5q0 145 59.5 254t170.5 169.5t265 60.5q78 0 144.5 -19t116.5 -54l4 3q-20 69 -58 128.5t-90 110.5l-218 -120l-79 116l174 95q-34 18 -70.5 33t-71.5 26l101 234q89 -20 170 -55.5t151 -85.5l200 112l77 -117l-165 -90
q111 -116 171.5 -271t60.5 -341v-69q0 -182 -74 -322t-201.5 -219.5t-287.5 -79.5zM601 223q79 0 134 48.5t84 133t29 195.5v31v25q-33 35 -92.5 57t-134.5 22q-81 0 -136.5 -32t-83.5 -89.5t-28 -136.5q0 -73 29 -131t80.5 -90.5t118.5 -32.5z" />
    <glyph glyph-name="e" unicode="e" horiz-adv-x="1084" 
d="M585 -21q-157 0 -274 68.5t-181.5 188t-64.5 271.5v39q0 162 59 287.5t170 197t266 71.5q147 0 248 -57t153.5 -166.5t52.5 -266.5v-170h-617l-1 -6q6 -62 34.5 -109.5t79 -75.5t123.5 -28q75 0 142.5 18t136.5 56l80 -195q-70 -53 -173.5 -88t-233.5 -35zM398 647h320
v26q0 62 -14.5 105.5t-48 66.5t-88.5 23q-56 0 -92 -28t-54.5 -77t-25.5 -111z" />
    <glyph glyph-name="eacute" unicode="&#xe9;" horiz-adv-x="1084" 
d="M585 -21q-157 0 -274 68.5t-181.5 188t-64.5 271.5v39q0 162 59 287.5t170 197t266 71.5q147 0 248 -57t153.5 -166.5t52.5 -266.5v-170h-617l-1 -6q6 -62 34.5 -109.5t79 -75.5t123.5 -28q75 0 142.5 18t136.5 56l80 -195q-70 -53 -173.5 -88t-233.5 -35zM398 647h320
v26q0 62 -14.5 105.5t-48 66.5t-88.5 23q-56 0 -92 -28t-54.5 -77t-25.5 -111zM363 1287l203 273h332l2 -6l-277 -267h-253h-7z" />
    <glyph glyph-name="ebreve" unicode="&#x115;" horiz-adv-x="1084" 
d="M585 -21q-157 0 -274 68.5t-181.5 188t-64.5 271.5v39q0 162 59 287.5t170 197t266 71.5q147 0 248 -57t153.5 -166.5t52.5 -266.5v-170h-617l-1 -6q6 -62 34.5 -109.5t79 -75.5t123.5 -28q75 0 142.5 18t136.5 56l80 -195q-70 -53 -173.5 -88t-233.5 -35zM398 647h320
v26q0 62 -14.5 105.5t-48 66.5t-88.5 23q-56 0 -92 -28t-54.5 -77t-25.5 -111zM554 1261q-166 0 -265 82t-93 211l2 6h212q0 -54 34.5 -90t109.5 -36q73 0 107 35t34 91h214l2 -6q3 -129 -94 -211t-263 -82z" />
    <glyph glyph-name="ecaron" unicode="&#x11b;" horiz-adv-x="1084" 
d="M585 -21q-157 0 -274 68.5t-181.5 188t-64.5 271.5v39q0 162 59 287.5t170 197t266 71.5q147 0 248 -57t153.5 -166.5t52.5 -266.5v-170h-617l-1 -6q6 -62 34.5 -109.5t79 -75.5t123.5 -28q75 0 142.5 18t136.5 56l80 -195q-70 -53 -173.5 -88t-233.5 -35zM398 647h320
v26q0 62 -14.5 105.5t-48 66.5t-88.5 23q-56 0 -92 -28t-54.5 -77t-25.5 -111zM931 1560v-26l-257 -245h-245l-254 248v23h248l129 -143l135 143h244z" />
    <glyph glyph-name="ecircumflex" unicode="&#xea;" horiz-adv-x="1084" 
d="M585 -21q-157 0 -274 68.5t-181.5 188t-64.5 271.5v39q0 162 59 287.5t170 197t266 71.5q147 0 248 -57t153.5 -166.5t52.5 -266.5v-170h-617l-1 -6q6 -62 34.5 -109.5t79 -75.5t123.5 -28q75 0 142.5 18t136.5 56l80 -195q-70 -53 -173.5 -88t-233.5 -35zM398 647h320
v26q0 62 -14.5 105.5t-48 66.5t-88.5 23q-56 0 -92 -28t-54.5 -77t-25.5 -111zM175 1289v26l257 245h245l254 -248v-23h-248l-130 143l-134 -143h-244z" />
    <glyph glyph-name="uni1EBF" unicode="&#x1ebf;" horiz-adv-x="1084" 
d="M585 -21q-157 0 -274 68.5t-181.5 188t-64.5 271.5v39q0 162 59 287.5t170 197t266 71.5q147 0 248 -57t153.5 -166.5t52.5 -266.5v-170h-617l-1 -6q6 -62 34.5 -109.5t79 -75.5t123.5 -28q75 0 142.5 18t136.5 56l80 -195q-70 -53 -173.5 -88t-233.5 -35zM398 647h320
v26q0 62 -14.5 105.5t-48 66.5t-88.5 23q-56 0 -92 -28t-54.5 -77t-25.5 -111zM174 1249v26l257 226h247l254 -229v-23h-251l-128 128l-133 -128h-246zM755 1510l110 225h265l2 -6l-201 -219h-168h-8z" />
    <glyph glyph-name="uni1EC7" unicode="&#x1ec7;" horiz-adv-x="1084" 
d="M585 -21q-157 0 -274 68.5t-181.5 188t-64.5 271.5v39q0 162 59 287.5t170 197t266 71.5q147 0 248 -57t153.5 -166.5t52.5 -266.5v-170h-617l-1 -6q6 -62 34.5 -109.5t79 -75.5t123.5 -28q75 0 142.5 18t136.5 56l80 -195q-70 -53 -173.5 -88t-233.5 -35zM398 647h320
v26q0 62 -14.5 105.5t-48 66.5t-88.5 23q-56 0 -92 -28t-54.5 -77t-25.5 -111zM175 1289v26l257 245h245l254 -248v-23h-248l-130 143l-134 -143h-244zM396 -412v260h330v-260h-330z" />
    <glyph glyph-name="uni1EC1" unicode="&#x1ec1;" horiz-adv-x="1084" 
d="M585 -21q-157 0 -274 68.5t-181.5 188t-64.5 271.5v39q0 162 59 287.5t170 197t266 71.5q147 0 248 -57t153.5 -166.5t52.5 -266.5v-170h-617l-1 -6q6 -62 34.5 -109.5t79 -75.5t123.5 -28q75 0 142.5 18t136.5 56l80 -195q-70 -53 -173.5 -88t-233.5 -35zM398 647h320
v26q0 62 -14.5 105.5t-48 66.5t-88.5 23q-56 0 -92 -28t-54.5 -77t-25.5 -111zM934 1249h-247l-133 128l-128 -128h-250v23l254 229h246l258 -226v-26zM352 1510h-7h-168l-201 219l2 6h265z" />
    <glyph glyph-name="uni1EC3" unicode="&#x1ec3;" horiz-adv-x="1084" 
d="M585 -21q-157 0 -274 68.5t-181.5 188t-64.5 271.5v39q0 162 59 287.5t170 197t266 71.5q147 0 248 -57t153.5 -166.5t52.5 -266.5v-170h-617l-1 -6q6 -62 34.5 -109.5t79 -75.5t123.5 -28q75 0 142.5 18t136.5 56l80 -195q-70 -53 -173.5 -88t-233.5 -35zM398 647h320
v26q0 62 -14.5 105.5t-48 66.5t-88.5 23q-56 0 -92 -28t-54.5 -77t-25.5 -111zM174 1249v26l257 226h247l254 -229v-23h-251l-128 128l-133 -128h-246zM788 1456l-19 115q66 3 95.5 14.5t29.5 37.5q0 30 -32.5 42t-91.5 12l7 120q168 0 257 -41.5t89 -115.5
q0 -55 -39.5 -85.5t-99.5 -38.5l-1 -60h-195z" />
    <glyph glyph-name="uni1EC5" unicode="&#x1ec5;" horiz-adv-x="1084" 
d="M585 -21q-157 0 -274 68.5t-181.5 188t-64.5 271.5v39q0 162 59 287.5t170 197t266 71.5q147 0 248 -57t153.5 -166.5t52.5 -266.5v-170h-617l-1 -6q6 -62 34.5 -109.5t79 -75.5t123.5 -28q75 0 142.5 18t136.5 56l80 -195q-70 -53 -173.5 -88t-233.5 -35zM398 647h320
v26q0 62 -14.5 105.5t-48 66.5t-88.5 23q-56 0 -92 -28t-54.5 -77t-25.5 -111zM342 1548l-151 42q0 63 30 116t80 85.5t107 32.5q46 0 93.5 -22t91 -43.5t76.5 -21.5q39 0 61 29t22 70l151 -43q-1 -64 -31 -117.5t-79.5 -85t-108.5 -31.5q-49 0 -96.5 22t-89 44t-74.5 22
q-39 0 -60.5 -29.5t-21.5 -69.5zM175 1249v26l257 226h247l254 -229v-23h-251l-128 128l-133 -128h-246z" />
    <glyph glyph-name="edieresis" unicode="&#xeb;" horiz-adv-x="1084" 
d="M585 -21q-157 0 -274 68.5t-181.5 188t-64.5 271.5v39q0 162 59 287.5t170 197t266 71.5q147 0 248 -57t153.5 -166.5t52.5 -266.5v-170h-617l-1 -6q6 -62 34.5 -109.5t79 -75.5t123.5 -28q75 0 142.5 18t136.5 56l80 -195q-70 -53 -173.5 -88t-233.5 -35zM398 647h320
v26q0 62 -14.5 105.5t-48 66.5t-88.5 23q-56 0 -92 -28t-54.5 -77t-25.5 -111zM632 1299v261h303v-261h-303zM172 1299v261h303v-261h-303z" />
    <glyph glyph-name="edotaccent" unicode="&#x117;" horiz-adv-x="1084" 
d="M585 -21q-157 0 -274 68.5t-181.5 188t-64.5 271.5v39q0 162 59 287.5t170 197t266 71.5q147 0 248 -57t153.5 -166.5t52.5 -266.5v-170h-617l-1 -6q6 -62 34.5 -109.5t79 -75.5t123.5 -28q75 0 142.5 18t136.5 56l80 -195q-70 -53 -173.5 -88t-233.5 -35zM398 647h320
v26q0 62 -14.5 105.5t-48 66.5t-88.5 23q-56 0 -92 -28t-54.5 -77t-25.5 -111zM388 1299v261h330v-261h-330z" />
    <glyph glyph-name="uni1EB9" unicode="&#x1eb9;" horiz-adv-x="1084" 
d="M585 -21q-157 0 -274 68.5t-181.5 188t-64.5 271.5v39q0 162 59 287.5t170 197t266 71.5q147 0 248 -57t153.5 -166.5t52.5 -266.5v-170h-617l-1 -6q6 -62 34.5 -109.5t79 -75.5t123.5 -28q75 0 142.5 18t136.5 56l80 -195q-70 -53 -173.5 -88t-233.5 -35zM398 647h320
v26q0 62 -14.5 105.5t-48 66.5t-88.5 23q-56 0 -92 -28t-54.5 -77t-25.5 -111zM396 -412v260h330v-260h-330z" />
    <glyph glyph-name="egrave" unicode="&#xe8;" horiz-adv-x="1084" 
d="M585 -21q-157 0 -274 68.5t-181.5 188t-64.5 271.5v39q0 162 59 287.5t170 197t266 71.5q147 0 248 -57t153.5 -166.5t52.5 -266.5v-170h-617l-1 -6q6 -62 34.5 -109.5t79 -75.5t123.5 -28q75 0 142.5 18t136.5 56l80 -195q-70 -53 -173.5 -88t-233.5 -35zM398 647h320
v26q0 62 -14.5 105.5t-48 66.5t-88.5 23q-56 0 -92 -28t-54.5 -77t-25.5 -111zM744 1287h-7h-252l-278 267l2 6h332z" />
    <glyph glyph-name="uni1EBB" unicode="&#x1ebb;" horiz-adv-x="1084" 
d="M585 -21q-157 0 -274 68.5t-181.5 188t-64.5 271.5v39q0 162 59 287.5t170 197t266 71.5q147 0 248 -57t153.5 -166.5t52.5 -266.5v-170h-617l-1 -6q6 -62 34.5 -109.5t79 -75.5t123.5 -28q75 0 142.5 18t136.5 56l80 -195q-70 -53 -173.5 -88t-233.5 -35zM398 647h320
v26q0 62 -14.5 105.5t-48 66.5t-88.5 23q-56 0 -92 -28t-54.5 -77t-25.5 -111zM408 1255l-19 131q72 2 103.5 17t31.5 47q0 35 -36 50t-101 15l7 140q197 0 301 -51.5t104 -143.5q0 -63 -43.5 -98.5t-105.5 -44.5l-1 -62h-241z" />
    <glyph glyph-name="emacron" unicode="&#x113;" horiz-adv-x="1084" 
d="M585 -21q-157 0 -274 68.5t-181.5 188t-64.5 271.5v39q0 162 59 287.5t170 197t266 71.5q147 0 248 -57t153.5 -166.5t52.5 -266.5v-170h-617l-1 -6q6 -62 34.5 -109.5t79 -75.5t123.5 -28q75 0 142.5 18t136.5 56l80 -195q-70 -53 -173.5 -88t-233.5 -35zM398 647h320
v26q0 62 -14.5 105.5t-48 66.5t-88.5 23q-56 0 -92 -28t-54.5 -77t-25.5 -111zM186 1300v186h734v-186h-734z" />
    <glyph glyph-name="eogonek" unicode="&#x119;" horiz-adv-x="1084" 
d="M585 -21q-157 0 -274 68.5t-181.5 188t-64.5 271.5v39q0 162 59 287.5t170 197t266 71.5q147 0 248 -57t153.5 -166.5t52.5 -266.5v-170h-617l-1 -6q6 -62 34.5 -109.5t79 -75.5t123.5 -28q75 0 142.5 18t136.5 56l80 -195q-70 -53 -173.5 -88t-233.5 -35zM398 647h320
v26q0 62 -14.5 105.5t-48 66.5t-88.5 23q-56 0 -92 -28t-54.5 -77t-25.5 -111zM788 -422q-115 0 -189 60.5t-74 167.5q0 88 72 171t248 135l56 -64q-76 -45 -109 -92t-33 -102q0 -46 21.5 -66.5t66.5 -20.5q24 0 43.5 4t36.5 10l35 -163q-33 -17 -74.5 -28.5t-99.5 -11.5z
" />
    <glyph glyph-name="uni1EBD" unicode="&#x1ebd;" horiz-adv-x="1084" 
d="M585 -21q-157 0 -274 68.5t-181.5 188t-64.5 271.5v39q0 162 59 287.5t170 197t266 71.5q147 0 248 -57t153.5 -166.5t52.5 -266.5v-170h-617l-1 -6q6 -62 34.5 -109.5t79 -75.5t123.5 -28q75 0 142.5 18t136.5 56l80 -195q-70 -53 -173.5 -88t-233.5 -35zM398 647h320
v26q0 62 -14.5 105.5t-48 66.5t-88.5 23q-56 0 -92 -28t-54.5 -77t-25.5 -111zM336 1277l-165 44q0 69 33 127.5t86 93.5t115 35q49 0 101.5 -23.5t99.5 -47.5t80 -25q41 2 64 32t23 76l164 -46q0 -70 -32.5 -128t-86 -92.5t-116.5 -34.5q-53 0 -105 24t-97 48t-79 24
q-42 0 -63.5 -31.5t-21.5 -75.5z" />
    <glyph glyph-name="uni0259" unicode="&#x259;" horiz-adv-x="1120" 
d="M556 -19q-147 0 -251.5 59.5t-160 169.5t-55.5 260v170h631v3.5v2.5q-6 62 -35.5 109.5t-80.5 75.5t-123 28q-77 0 -143.5 -17.5t-145.5 -56.5l-81 195q68 52 178.5 88.5t240.5 36.5q158 0 275 -69t181.5 -188.5t64.5 -272.5v-39q0 -163 -59.5 -288.5t-170 -196
t-265.5 -70.5zM553 225q52 0 86.5 25.5t54.5 72t27 108.5l-4 5h-315v-27q0 -58 16.5 -99t50.5 -63t84 -22z" />
    <glyph glyph-name="f" unicode="f" horiz-adv-x="821" 
d="M82 0v189l134 31v639h-158v223h158v115q0 185 109 284.5t305 99.5q49 0 105 -8t92 -18l-26 -237q-26 7 -57 11t-64 4q-73 0 -108.5 -35t-35.5 -101v-115h248v-223h-248v-639l193 -31v-189h-647z" />
    <glyph glyph-name="g" unicode="g" horiz-adv-x="1211" 
d="M538 -437q-84 0 -189.5 21t-185.5 61l55 224q74 -31 153.5 -48t146.5 -17q113 0 166 62.5t53 172.5v61q-47 -58 -109.5 -89.5t-143.5 -31.5q-132 0 -226.5 66.5t-144 187.5t-49.5 281v21q0 170 49.5 297.5t141.5 198.5t221 71q95 0 163.5 -41t116.5 -115l21 136h280
v-1045q0 -143 -62.5 -249.5t-179 -165.5t-277.5 -59zM576 226q53 0 94 20t67 58v462q-26 43 -67 66t-93 23q-69 0 -112 -40t-62 -112t-19 -168v-21q0 -135 43.5 -211.5t148.5 -76.5zM1019 856l-142 226h306v-191z" />
    <glyph glyph-name="gbreve" unicode="&#x11f;" horiz-adv-x="1211" 
d="M538 -437q-84 0 -189.5 21t-185.5 61l55 224q74 -31 153.5 -48t146.5 -17q113 0 166 62.5t53 172.5v61q-47 -58 -109.5 -89.5t-143.5 -31.5q-132 0 -226.5 66.5t-144 187.5t-49.5 281v21q0 170 49.5 297.5t141.5 198.5t221 71q95 0 163.5 -41t116.5 -115l21 136h280
v-1045q0 -143 -62.5 -249.5t-179 -165.5t-277.5 -59zM576 226q53 0 94 20t67 58v462q-26 43 -67 66t-93 23q-69 0 -112 -40t-62 -112t-19 -168v-21q0 -135 43.5 -211.5t148.5 -76.5zM1019 856l-142 226h306v-191zM594 1261q-166 0 -265 82t-93 211l2 6h212q0 -54 34.5 -90
t109.5 -36q73 0 107 35t34 91h214l2 -6q3 -129 -94 -211t-263 -82z" />
    <glyph glyph-name="gcircumflex" unicode="&#x11d;" horiz-adv-x="1211" 
d="M538 -437q-84 0 -189.5 21t-185.5 61l55 224q74 -31 153.5 -48t146.5 -17q113 0 166 62.5t53 172.5v61q-47 -58 -109.5 -89.5t-143.5 -31.5q-132 0 -226.5 66.5t-144 187.5t-49.5 281v21q0 170 49.5 297.5t141.5 198.5t221 71q95 0 163.5 -41t116.5 -115l21 136h280
v-1045q0 -143 -62.5 -249.5t-179 -165.5t-277.5 -59zM576 226q53 0 94 20t67 58v462q-26 43 -67 66t-93 23q-69 0 -112 -40t-62 -112t-19 -168v-21q0 -135 43.5 -211.5t148.5 -76.5zM1019 856l-142 226h306v-191zM216 1289v26l257 245h245l254 -248v-23h-248l-130 143
l-134 -143h-244z" />
    <glyph glyph-name="uni0123" unicode="&#x123;" horiz-adv-x="1211" 
d="M538 -437q-84 0 -189.5 21t-185.5 61l55 224q74 -31 153.5 -48t146.5 -17q113 0 166 62.5t53 172.5v61q-47 -58 -109.5 -89.5t-143.5 -31.5q-132 0 -226.5 66.5t-144 187.5t-49.5 281v21q0 170 49.5 297.5t141.5 198.5t221 71q95 0 163.5 -41t116.5 -115l21 136h280
v-1045q0 -143 -62.5 -249.5t-179 -165.5t-277.5 -59zM576 226q53 0 94 20t67 58v462q-26 43 -67 66t-93 23q-69 0 -112 -40t-62 -112t-19 -168v-21q0 -135 43.5 -211.5t148.5 -76.5zM1019 856l-142 226h306v-191zM609 1684l149 -94q-31 -49 -47.5 -98t-16.5 -124v-95h-265
v79q0 96 52.5 184.5t127.5 147.5z" />
    <glyph glyph-name="gdotaccent" unicode="&#x121;" horiz-adv-x="1211" 
d="M538 -437q-84 0 -189.5 21t-185.5 61l55 224q74 -31 153.5 -48t146.5 -17q113 0 166 62.5t53 172.5v61q-47 -58 -109.5 -89.5t-143.5 -31.5q-132 0 -226.5 66.5t-144 187.5t-49.5 281v21q0 170 49.5 297.5t141.5 198.5t221 71q95 0 163.5 -41t116.5 -115l21 136h280
v-1045q0 -143 -62.5 -249.5t-179 -165.5t-277.5 -59zM576 226q53 0 94 20t67 58v462q-26 43 -67 66t-93 23q-69 0 -112 -40t-62 -112t-19 -168v-21q0 -135 43.5 -211.5t148.5 -76.5zM1019 856l-142 226h306v-191zM428 1299v261h330v-261h-330z" />
    <glyph glyph-name="h" unicode="h" horiz-adv-x="1298" 
d="M47 0v189l134 31v1119l-154 31v190h472v-614q50 74 123.5 115t169.5 41q160 0 255 -110t95 -340v-432l134 -31v-189h-569v189l115 31v434q0 112 -40 156.5t-116 44.5q-53 0 -96 -20.5t-71 -61.5v-553l115 -31v-189h-567z" />
    <glyph glyph-name="hbar" unicode="&#x127;" horiz-adv-x="1298" 
d="M47 0v189l134 31v1119l-154 31v190h472v-614q50 74 123.5 115t169.5 41q160 0 255 -110t95 -340v-432l134 -31v-189h-569v189l115 31v434q0 112 -40 156.5t-116 44.5q-53 0 -96 -20.5t-71 -61.5v-553l115 -31v-189h-567zM27 1127v155h676v-155h-676z" />
    <glyph glyph-name="hcircumflex" unicode="&#x125;" horiz-adv-x="1298" 
d="M47 0v189l134 31v1119l-154 31v190h472v-614q50 74 123.5 115t169.5 41q160 0 255 -110t95 -340v-432l134 -31v-189h-569v189l115 31v434q0 112 -40 156.5t-116 44.5q-53 0 -96 -20.5t-71 -61.5v-553l115 -31v-189h-567zM-33 1663v26l257 245h245l254 -248v-23h-248
l-130 143l-134 -143h-244z" />
    <glyph glyph-name="i" unicode="i" horiz-adv-x="664" 
d="M50 0v189l134 31v641l-153 31v190h473v-862l134 -31v-189h-588zM174 1299v261h330v-261h-330z" />
    <glyph glyph-name="dotlessi" unicode="&#x131;" horiz-adv-x="664" 
d="M50 0v189l134 31v641l-153 31v190h473v-862l134 -31v-189h-588z" />
    <glyph glyph-name="iacute" unicode="&#xed;" horiz-adv-x="664" 
d="M50 0v189l134 31v641l-153 31v190h473v-862l134 -31v-189h-588zM149 1287l203 273h332l2 -6l-277 -267h-253h-7z" />
    <glyph glyph-name="ibreve" unicode="&#x12d;" horiz-adv-x="664" 
d="M50 0v189l134 31v641l-153 31v190h473v-862l134 -31v-189h-588zM341 1261q-166 0 -265 82t-93 211l2 6h212q0 -54 34.5 -90t109.5 -36q73 0 107 35t34 91h214l2 -6q3 -129 -94 -211t-263 -82z" />
    <glyph glyph-name="icircumflex" unicode="&#xee;" horiz-adv-x="664" 
d="M50 0v189l134 31v641l-153 31v190h473v-862l134 -31v-189h-588zM-38 1289v26l257 245h245l254 -248v-23h-248l-130 143l-134 -143h-244z" />
    <glyph glyph-name="idieresis" unicode="&#xef;" horiz-adv-x="664" 
d="M50 0v189l134 31v641l-153 31v190h473v-862l134 -31v-189h-588zM419 1299v261h303v-261h-303zM-41 1299v261h303v-261h-303z" />
    <glyph glyph-name="uni1ECB" unicode="&#x1ecb;" horiz-adv-x="664" 
d="M50 0v189l134 31v641l-153 31v190h473v-862l134 -31v-189h-588zM174 1299v261h330v-261h-330zM175 -412v260h330v-260h-330z" />
    <glyph glyph-name="igrave" unicode="&#xec;" horiz-adv-x="664" 
d="M50 0v189l134 31v641l-153 31v190h473v-862l134 -31v-189h-588zM530 1287h-7h-252l-278 267l2 6h332z" />
    <glyph glyph-name="uni1EC9" unicode="&#x1ec9;" horiz-adv-x="664" 
d="M50 0v189l134 31v641l-153 31v190h473v-862l134 -31v-189h-588zM194 1255l-19 131q72 2 103.5 17t31.5 47q0 35 -36 50t-101 15l7 140q197 0 301 -51.5t104 -143.5q0 -63 -43.5 -98.5t-105.5 -44.5l-1 -62h-241z" />
    <glyph glyph-name="imacron" unicode="&#x12b;" horiz-adv-x="664" 
d="M50 0v189l134 31v641l-153 31v190h473v-862l134 -31v-189h-588zM-27 1300v186h734v-186h-734z" />
    <glyph glyph-name="iogonek" unicode="&#x12f;" horiz-adv-x="664" 
d="M50 0v189l134 31v641l-153 31v190h473v-862l134 -31v-189h-588zM174 1299v261h330v-261h-330zM529 -422q-115 0 -188 58.5t-73 162.5q0 73 52 144.5t176 117.5l142 -61q-74 -43 -105 -81t-31 -80q0 -36 20 -54t64 -18q23 0 42.5 4t36.5 10l35 -163q-33 -17 -74 -28.5
t-97 -11.5z" />
    <glyph glyph-name="itilde" unicode="&#x129;" horiz-adv-x="664" 
d="M50 0v189l134 31v641l-153 31v190h473v-862l134 -31v-189h-588zM122 1277l-165 44q0 69 33 127.5t86 93.5t115 35q49 0 101.5 -23.5t99.5 -47.5t80 -25q41 2 64 32t23 76l164 -46q0 -70 -32.5 -128t-86 -92.5t-116.5 -34.5q-53 0 -105 24t-97 48t-79 24
q-42 0 -63.5 -31.5t-21.5 -75.5z" />
    <glyph glyph-name="ij" unicode="&#x133;" horiz-adv-x="1263" 
d="M50 0v189l134 31v641l-153 31v190h473v-862l134 -31v-189h-588zM174 1299v261h330v-261h-330zM776 -437q-44 0 -79.5 3.5t-74.5 12.5l16 242q23 -6 45.5 -9.5t51.5 -3.5q57 0 88 43.5t31 122.5v887l-154 31v190h473v-1108q0 -197 -104.5 -304t-292.5 -107zM840 1299v261
h330v-261h-330z" />
    <glyph glyph-name="j" unicode="j" horiz-adv-x="622" 
d="M120 -437q-44 0 -79.5 3.5t-74.5 12.5l16 242q23 -6 45.5 -9.5t51.5 -3.5q57 0 88 43.5t31 122.5v887l-154 31v190h473v-1108q0 -197 -104.5 -304t-292.5 -107zM184 1299v261h330v-261h-330z" />
    <glyph glyph-name="uni0237" unicode="&#x237;" horiz-adv-x="622" 
d="M120 -437q-44 0 -79.5 3.5t-74.5 12.5l16 242q23 -6 45.5 -9.5t51.5 -3.5q57 0 88 43.5t31 122.5v887l-154 31v190h473v-1108q0 -197 -104.5 -304t-292.5 -107z" />
    <glyph glyph-name="uni01F0" unicode="&#x1f0;" horiz-adv-x="622" 
d="M120 -437q-44 0 -79.5 3.5t-74.5 12.5l16 242q23 -6 45.5 -9.5t51.5 -3.5q57 0 88 43.5t31 122.5v887l-154 31v190h473v-1108q0 -197 -104.5 -304t-292.5 -107zM727 1560v-26l-257 -245h-245l-254 248v23h248l129 -143l135 143h244z" />
    <glyph glyph-name="jcircumflex" unicode="&#x135;" horiz-adv-x="622" 
d="M120 -437q-44 0 -79.5 3.5t-74.5 12.5l16 242q23 -6 45.5 -9.5t51.5 -3.5q57 0 88 43.5t31 122.5v887l-154 31v190h473v-1108q0 -197 -104.5 -304t-292.5 -107zM-29 1289v26l257 245h245l254 -248v-23h-248l-130 143l-134 -143h-244z" />
    <glyph glyph-name="k" unicode="k" horiz-adv-x="1325" 
d="M42 0v189l135 31v1119l-155 31v190h473v-1340l115 -31v-189h-568zM729 0v178l75 21l-3 4l-185 258l211 201l330 -439l129 -34v-189h-557zM460 291l-161 165l470 419l1 2l-109 17v188h591v-190l-140 -38z" />
    <glyph glyph-name="uni0137" unicode="&#x137;" horiz-adv-x="1325" 
d="M42 0v189l135 31v1119l-155 31v190h473v-1340l115 -31v-189h-568zM729 0v178l75 21l-3 4l-185 258l211 201l330 -439l129 -34v-189h-557zM460 291l-161 165l470 419l1 2l-109 17v188h591v-190l-140 -38zM624 -531l-149 94q31 49 47.5 98t16.5 124v96h265v-79
q0 -96 -52 -185t-128 -148z" />
    <glyph glyph-name="kgreenlandic" unicode="&#x138;" horiz-adv-x="1317" 
d="M475 287l-150 183l428 402l4 3l-99 18v189h576v-190l-139 -35zM47 0v189l142 35v632l-156 36v190h475v-858l131 -35v-189h-592zM902 0l-310 455l218 227l323 -459l127 -34v-189h-358z" />
    <glyph glyph-name="l" unicode="l" horiz-adv-x="653" 
d="M42 0v189l135 31v1119l-155 31v190h475v-1340l134 -31v-189h-589z" />
    <glyph glyph-name="lacute" unicode="&#x13a;" horiz-adv-x="653" 
d="M42 0v189l135 31v1119l-155 31v190h475v-1340l134 -31v-189h-589zM148 1661l203 273h332l2 -6l-277 -267h-253h-7z" />
    <glyph glyph-name="lcaron" unicode="&#x13e;" horiz-adv-x="653" 
d="M42 0v189l135 31v1119l-155 31v190h475v-1340l134 -31v-189h-589zM705 1149l-149 94q31 48 47.5 97.5t16.5 123.5v96h265v-79q0 -96 -52 -185t-128 -147z" />
    <glyph glyph-name="uni013C" unicode="&#x13c;" horiz-adv-x="653" 
d="M42 0v189l135 31v1119l-155 31v190h475v-1340l134 -31v-189h-589zM301 -531l-149 94q31 49 47.5 98t16.5 124v96h265v-79q0 -96 -52 -185t-128 -148z" />
    <glyph glyph-name="ldot" unicode="&#x140;" horiz-adv-x="653" 
d="M42 0v189l135 31v1119l-155 31v190h475v-1340l134 -31v-189h-589zM616 609v272h319v-272h-319z" />
    <glyph glyph-name="lslash" unicode="&#x142;" horiz-adv-x="653" 
d="M42 0v189l135 31v1119l-155 31v190h475v-1340l134 -31v-189h-589zM45 570v204l587 187v-204z" />
    <glyph glyph-name="m" unicode="m" horiz-adv-x="1900" 
d="M45 0v189l135 31v641l-154 31v190h453l11 -143q53 77 130 120t179 43t175.5 -45t111.5 -136q49 86 128 133.5t185 47.5q159 0 250 -107.5t91 -329.5v-445l135 -31v-189h-569v189l115 31v446q0 108 -34.5 148.5t-101.5 40.5q-57 0 -99 -28.5t-67 -77.5v-529l105 -31v-189
h-528v189l105 31v446q0 106 -34.5 147.5t-102.5 41.5q-54 0 -95.5 -21.5t-69.5 -62.5v-551l115 -31v-189h-569z" />
    <glyph glyph-name="uni1E3F" unicode="&#x1e3f;" horiz-adv-x="1900" 
d="M45 0v189l135 31v641l-154 31v190h453l11 -143q53 77 130 120t179 43t175.5 -45t111.5 -136q49 86 128 133.5t185 47.5q159 0 250 -107.5t91 -329.5v-445l135 -31v-189h-569v189l115 31v446q0 108 -34.5 148.5t-101.5 40.5q-57 0 -99 -28.5t-67 -77.5v-529l105 -31v-189
h-528v189l105 31v446q0 106 -34.5 147.5t-102.5 41.5q-54 0 -95.5 -21.5t-69.5 -62.5v-551l115 -31v-189h-569zM762 1287l203 273h332l2 -6l-277 -267h-253h-7z" />
    <glyph glyph-name="n" unicode="n" horiz-adv-x="1297" 
d="M45 0v189l134 31v641l-153 31v190h453l13 -153q54 82 133 127.5t180 45.5q156 0 246 -103t90 -325v-454l133 -31v-189h-569v189l115 31v454q0 98 -39.5 139.5t-114.5 41.5q-56 0 -97.5 -22.5t-69.5 -64.5v-548l104 -31v-189h-558z" />
    <glyph glyph-name="nacute" unicode="&#x144;" horiz-adv-x="1297" 
d="M45 0v189l134 31v641l-153 31v190h453l13 -153q54 82 133 127.5t180 45.5q156 0 246 -103t90 -325v-454l133 -31v-189h-569v189l115 31v454q0 98 -39.5 139.5t-114.5 41.5q-56 0 -97.5 -22.5t-69.5 -64.5v-548l104 -31v-189h-558zM459 1287l203 273h332l2 -6l-277 -267
h-253h-7z" />
    <glyph glyph-name="napostrophe" unicode="&#x149;" horiz-adv-x="1297" 
d="M45 0v189l134 31v641l-153 31v190h453l13 -153q54 82 133 127.5t180 45.5q156 0 246 -103t90 -325v-454l133 -31v-189h-569v189l115 31v454q0 98 -39.5 139.5t-114.5 41.5q-56 0 -97.5 -22.5t-69.5 -64.5v-548l104 -31v-189h-558zM171 1148l-149 94q31 49 47.5 98
t16.5 124v96h265v-79q0 -96 -52 -185t-128 -148z" />
    <glyph glyph-name="ncaron" unicode="&#x148;" horiz-adv-x="1297" 
d="M45 0v189l134 31v641l-153 31v190h453l13 -153q54 82 133 127.5t180 45.5q156 0 246 -103t90 -325v-454l133 -31v-189h-569v189l115 31v454q0 98 -39.5 139.5t-114.5 41.5q-56 0 -97.5 -22.5t-69.5 -64.5v-548l104 -31v-189h-558zM1027 1560v-26l-257 -245h-245l-254 248
v23h248l129 -143l135 143h244z" />
    <glyph glyph-name="uni0146" unicode="&#x146;" horiz-adv-x="1297" 
d="M45 0v189l134 31v641l-153 31v190h453l13 -153q54 82 133 127.5t180 45.5q156 0 246 -103t90 -325v-454l133 -31v-189h-569v189l115 31v454q0 98 -39.5 139.5t-114.5 41.5q-56 0 -97.5 -22.5t-69.5 -64.5v-548l104 -31v-189h-558zM611 -531l-149 94q31 49 47.5 98
t16.5 124v96h265v-79q0 -96 -52 -185t-128 -148z" />
    <glyph glyph-name="ntilde" unicode="&#xf1;" horiz-adv-x="1297" 
d="M45 0v189l134 31v641l-153 31v190h453l13 -153q54 82 133 127.5t180 45.5q156 0 246 -103t90 -325v-454l133 -31v-189h-569v189l115 31v454q0 98 -39.5 139.5t-114.5 41.5q-56 0 -97.5 -22.5t-69.5 -64.5v-548l104 -31v-189h-558zM431 1277l-165 44q0 69 33 127.5
t86 93.5t115 35q49 0 101.5 -23.5t99.5 -47.5t80 -25q41 2 64 32t23 76l164 -46q0 -70 -32.5 -128t-86 -92.5t-116.5 -34.5q-53 0 -105 24t-97 48t-79 24q-42 0 -63.5 -31.5t-21.5 -75.5z" />
    <glyph glyph-name="eng" unicode="&#x14b;" horiz-adv-x="1288" 
d="M791 -437q-44 0 -80.5 3.5t-74.5 12.5l14 243q25 -5 46.5 -8.5t49.5 -3.5q60 0 91 42t31 122v683q0 108 -36 153t-108 45q-56 0 -101.5 -25t-75.5 -70v-540l133 -31v-189h-586v189l133 31v641l-152 31v190h451l14 -153q53 82 133 127.5t180 45.5q155 0 245 -107t90 -338
v-683q0 -196 -105.5 -303.5t-291.5 -107.5z" />
    <glyph glyph-name="o" unicode="o" horiz-adv-x="1164" 
d="M584 -21q-164 0 -280.5 69.5t-178 194t-61.5 288.5v20q0 162 61.5 286t177.5 194.5t279 70.5t279 -70t177.5 -194t61.5 -287v-20q0 -163 -61.5 -287.5t-177 -194.5t-277.5 -70zM584 223q70 0 113.5 38t64 107t20.5 163v20q0 91 -20.5 159.5t-64.5 107.5t-115 39
q-70 0 -114 -39t-64 -107.5t-20 -159.5v-20q0 -94 20 -163.5t64 -107t116 -37.5z" />
    <glyph glyph-name="oacute" unicode="&#xf3;" horiz-adv-x="1164" 
d="M584 -21q-164 0 -280.5 69.5t-178 194t-61.5 288.5v20q0 162 61.5 286t177.5 194.5t279 70.5t279 -70t177.5 -194t61.5 -287v-20q0 -163 -61.5 -287.5t-177 -194.5t-277.5 -70zM584 223q70 0 113.5 38t64 107t20.5 163v20q0 91 -20.5 159.5t-64.5 107.5t-115 39
q-70 0 -114 -39t-64 -107.5t-20 -159.5v-20q0 -94 20 -163.5t64 -107t116 -37.5zM392 1287l203 273h332l2 -6l-277 -267h-253h-7z" />
    <glyph glyph-name="obreve" unicode="&#x14f;" horiz-adv-x="1164" 
d="M584 -21q-164 0 -280.5 69.5t-178 194t-61.5 288.5v20q0 162 61.5 286t177.5 194.5t279 70.5t279 -70t177.5 -194t61.5 -287v-20q0 -163 -61.5 -287.5t-177 -194.5t-277.5 -70zM584 223q70 0 113.5 38t64 107t20.5 163v20q0 91 -20.5 159.5t-64.5 107.5t-115 39
q-70 0 -114 -39t-64 -107.5t-20 -159.5v-20q0 -94 20 -163.5t64 -107t116 -37.5zM583 1261q-166 0 -265 82t-93 211l2 6h212q0 -54 34.5 -90t109.5 -36q73 0 107 35t34 91h214l2 -6q3 -129 -94 -211t-263 -82z" />
    <glyph glyph-name="ocircumflex" unicode="&#xf4;" horiz-adv-x="1164" 
d="M584 -21q-164 0 -280.5 69.5t-178 194t-61.5 288.5v20q0 162 61.5 286t177.5 194.5t279 70.5t279 -70t177.5 -194t61.5 -287v-20q0 -163 -61.5 -287.5t-177 -194.5t-277.5 -70zM584 223q70 0 113.5 38t64 107t20.5 163v20q0 91 -20.5 159.5t-64.5 107.5t-115 39
q-70 0 -114 -39t-64 -107.5t-20 -159.5v-20q0 -94 20 -163.5t64 -107t116 -37.5zM205 1289v26l257 245h245l254 -248v-23h-248l-130 143l-134 -143h-244z" />
    <glyph glyph-name="uni1ED1" unicode="&#x1ed1;" horiz-adv-x="1164" 
d="M584 -21q-164 0 -280.5 69.5t-178 194t-61.5 288.5v20q0 162 61.5 286t177.5 194.5t279 70.5t279 -70t177.5 -194t61.5 -287v-20q0 -163 -61.5 -287.5t-177 -194.5t-277.5 -70zM584 223q70 0 113.5 38t64 107t20.5 163v20q0 91 -20.5 159.5t-64.5 107.5t-115 39
q-70 0 -114 -39t-64 -107.5t-20 -159.5v-20q0 -94 20 -163.5t64 -107t116 -37.5zM203 1249v26l257 226h247l254 -229v-23h-251l-128 128l-133 -128h-246zM784 1510l110 225h265l2 -6l-201 -219h-168h-8z" />
    <glyph glyph-name="uni1ED9" unicode="&#x1ed9;" horiz-adv-x="1164" 
d="M584 -21q-164 0 -280.5 69.5t-178 194t-61.5 288.5v20q0 162 61.5 286t177.5 194.5t279 70.5t279 -70t177.5 -194t61.5 -287v-20q0 -163 -61.5 -287.5t-177 -194.5t-277.5 -70zM584 223q70 0 113.5 38t64 107t20.5 163v20q0 91 -20.5 159.5t-64.5 107.5t-115 39
q-70 0 -114 -39t-64 -107.5t-20 -159.5v-20q0 -94 20 -163.5t64 -107t116 -37.5zM205 1289v26l257 245h245l254 -248v-23h-248l-130 143l-134 -143h-244zM417 -412v260h330v-260h-330z" />
    <glyph glyph-name="uni1ED3" unicode="&#x1ed3;" horiz-adv-x="1164" 
d="M584 -21q-164 0 -280.5 69.5t-178 194t-61.5 288.5v20q0 162 61.5 286t177.5 194.5t279 70.5t279 -70t177.5 -194t61.5 -287v-20q0 -163 -61.5 -287.5t-177 -194.5t-277.5 -70zM584 223q70 0 113.5 38t64 107t20.5 163v20q0 91 -20.5 159.5t-64.5 107.5t-115 39
q-70 0 -114 -39t-64 -107.5t-20 -159.5v-20q0 -94 20 -163.5t64 -107t116 -37.5zM963 1249h-247l-133 128l-128 -128h-250v23l254 229h246l258 -226v-26zM381 1510h-7h-168l-201 219l2 6h265z" />
    <glyph glyph-name="uni1ED5" unicode="&#x1ed5;" horiz-adv-x="1164" 
d="M584 -21q-164 0 -280.5 69.5t-178 194t-61.5 288.5v20q0 162 61.5 286t177.5 194.5t279 70.5t279 -70t177.5 -194t61.5 -287v-20q0 -163 -61.5 -287.5t-177 -194.5t-277.5 -70zM584 223q70 0 113.5 38t64 107t20.5 163v20q0 91 -20.5 159.5t-64.5 107.5t-115 39
q-70 0 -114 -39t-64 -107.5t-20 -159.5v-20q0 -94 20 -163.5t64 -107t116 -37.5zM203 1249v26l257 226h247l254 -229v-23h-251l-128 128l-133 -128h-246zM817 1456l-19 115q66 3 95.5 14.5t29.5 37.5q0 30 -32.5 42t-91.5 12l7 120q168 0 257 -41.5t89 -115.5
q0 -55 -39.5 -85.5t-99.5 -38.5l-1 -60h-195z" />
    <glyph glyph-name="uni1ED7" unicode="&#x1ed7;" horiz-adv-x="1164" 
d="M584 -21q-164 0 -280.5 69.5t-178 194t-61.5 288.5v20q0 162 61.5 286t177.5 194.5t279 70.5t279 -70t177.5 -194t61.5 -287v-20q0 -163 -61.5 -287.5t-177 -194.5t-277.5 -70zM584 223q70 0 113.5 38t64 107t20.5 163v20q0 91 -20.5 159.5t-64.5 107.5t-115 39
q-70 0 -114 -39t-64 -107.5t-20 -159.5v-20q0 -94 20 -163.5t64 -107t116 -37.5zM371 1548l-151 42q0 63 30 116t80 85.5t107 32.5q46 0 93.5 -22t91 -43.5t76.5 -21.5q39 0 61 29t22 70l151 -43q-1 -64 -31 -117.5t-79.5 -85t-108.5 -31.5q-49 0 -96.5 22t-89 44t-74.5 22
q-39 0 -60.5 -29.5t-21.5 -69.5zM204 1249v26l257 226h247l254 -229v-23h-251l-128 128l-133 -128h-246z" />
    <glyph glyph-name="odieresis" unicode="&#xf6;" horiz-adv-x="1164" 
d="M584 -21q-164 0 -280.5 69.5t-178 194t-61.5 288.5v20q0 162 61.5 286t177.5 194.5t279 70.5t279 -70t177.5 -194t61.5 -287v-20q0 -163 -61.5 -287.5t-177 -194.5t-277.5 -70zM584 223q70 0 113.5 38t64 107t20.5 163v20q0 91 -20.5 159.5t-64.5 107.5t-115 39
q-70 0 -114 -39t-64 -107.5t-20 -159.5v-20q0 -94 20 -163.5t64 -107t116 -37.5zM661 1299v261h303v-261h-303zM201 1299v261h303v-261h-303z" />
    <glyph glyph-name="uni1ECD" unicode="&#x1ecd;" horiz-adv-x="1164" 
d="M584 -21q-164 0 -280.5 69.5t-178 194t-61.5 288.5v20q0 162 61.5 286t177.5 194.5t279 70.5t279 -70t177.5 -194t61.5 -287v-20q0 -163 -61.5 -287.5t-177 -194.5t-277.5 -70zM584 223q70 0 113.5 38t64 107t20.5 163v20q0 91 -20.5 159.5t-64.5 107.5t-115 39
q-70 0 -114 -39t-64 -107.5t-20 -159.5v-20q0 -94 20 -163.5t64 -107t116 -37.5zM417 -412v260h330v-260h-330z" />
    <glyph glyph-name="ograve" unicode="&#xf2;" horiz-adv-x="1164" 
d="M584 -21q-164 0 -280.5 69.5t-178 194t-61.5 288.5v20q0 162 61.5 286t177.5 194.5t279 70.5t279 -70t177.5 -194t61.5 -287v-20q0 -163 -61.5 -287.5t-177 -194.5t-277.5 -70zM584 223q70 0 113.5 38t64 107t20.5 163v20q0 91 -20.5 159.5t-64.5 107.5t-115 39
q-70 0 -114 -39t-64 -107.5t-20 -159.5v-20q0 -94 20 -163.5t64 -107t116 -37.5zM773 1287h-7h-252l-278 267l2 6h332z" />
    <glyph glyph-name="uni1ECF" unicode="&#x1ecf;" horiz-adv-x="1164" 
d="M584 -21q-164 0 -280.5 69.5t-178 194t-61.5 288.5v20q0 162 61.5 286t177.5 194.5t279 70.5t279 -70t177.5 -194t61.5 -287v-20q0 -163 -61.5 -287.5t-177 -194.5t-277.5 -70zM584 223q70 0 113.5 38t64 107t20.5 163v20q0 91 -20.5 159.5t-64.5 107.5t-115 39
q-70 0 -114 -39t-64 -107.5t-20 -159.5v-20q0 -94 20 -163.5t64 -107t116 -37.5zM437 1255l-19 131q72 2 103.5 17t31.5 47q0 35 -36 50t-101 15l7 140q197 0 301 -51.5t104 -143.5q0 -63 -43.5 -98.5t-105.5 -44.5l-1 -62h-241z" />
    <glyph glyph-name="ohorn" unicode="&#x1a1;" horiz-adv-x="1213" 
d="M584 -21q-164 0 -280.5 69.5t-178 194t-61.5 288.5v20q0 162 61.5 286t177.5 194.5t279 70.5t279 -70t177.5 -194t61.5 -287v-20q0 -163 -61.5 -287.5t-177 -194.5t-277.5 -70zM584 223q70 0 113.5 38t64 107t20.5 163v20q0 91 -20.5 159.5t-64.5 107.5t-115 39
q-70 0 -114 -39t-64 -107.5t-20 -159.5v-20q0 -94 20 -163.5t64 -107t116 -37.5zM858 800v146q56 0 86.5 30.5t42.5 83t12 120.5h210q0 -111 -35.5 -197t-112.5 -134.5t-203 -48.5z" />
    <glyph glyph-name="uni1EDB" unicode="&#x1edb;" horiz-adv-x="1213" 
d="M584 -21q-164 0 -280.5 69.5t-178 194t-61.5 288.5v20q0 162 61.5 286t177.5 194.5t279 70.5t279 -70t177.5 -194t61.5 -287v-20q0 -163 -61.5 -287.5t-177 -194.5t-277.5 -70zM584 223q70 0 113.5 38t64 107t20.5 163v20q0 91 -20.5 159.5t-64.5 107.5t-115 39
q-70 0 -114 -39t-64 -107.5t-20 -159.5v-20q0 -94 20 -163.5t64 -107t116 -37.5zM858 800v146q56 0 86.5 30.5t42.5 83t12 120.5h210q0 -111 -35.5 -197t-112.5 -134.5t-203 -48.5zM392 1287l203 273h332l2 -6l-277 -267h-253h-7z" />
    <glyph glyph-name="uni1EE3" unicode="&#x1ee3;" horiz-adv-x="1213" 
d="M584 -21q-164 0 -280.5 69.5t-178 194t-61.5 288.5v20q0 162 61.5 286t177.5 194.5t279 70.5t279 -70t177.5 -194t61.5 -287v-20q0 -163 -61.5 -287.5t-177 -194.5t-277.5 -70zM584 223q70 0 113.5 38t64 107t20.5 163v20q0 91 -20.5 159.5t-64.5 107.5t-115 39
q-70 0 -114 -39t-64 -107.5t-20 -159.5v-20q0 -94 20 -163.5t64 -107t116 -37.5zM858 800v146q56 0 86.5 30.5t42.5 83t12 120.5h210q0 -111 -35.5 -197t-112.5 -134.5t-203 -48.5zM417 -412v260h330v-260h-330z" />
    <glyph glyph-name="uni1EDD" unicode="&#x1edd;" horiz-adv-x="1213" 
d="M584 -21q-164 0 -280.5 69.5t-178 194t-61.5 288.5v20q0 162 61.5 286t177.5 194.5t279 70.5t279 -70t177.5 -194t61.5 -287v-20q0 -163 -61.5 -287.5t-177 -194.5t-277.5 -70zM584 223q70 0 113.5 38t64 107t20.5 163v20q0 91 -20.5 159.5t-64.5 107.5t-115 39
q-70 0 -114 -39t-64 -107.5t-20 -159.5v-20q0 -94 20 -163.5t64 -107t116 -37.5zM858 800v146q56 0 86.5 30.5t42.5 83t12 120.5h210q0 -111 -35.5 -197t-112.5 -134.5t-203 -48.5zM773 1287h-7h-252l-278 267l2 6h332z" />
    <glyph glyph-name="uni1EDF" unicode="&#x1edf;" horiz-adv-x="1213" 
d="M584 -21q-164 0 -280.5 69.5t-178 194t-61.5 288.5v20q0 162 61.5 286t177.5 194.5t279 70.5t279 -70t177.5 -194t61.5 -287v-20q0 -163 -61.5 -287.5t-177 -194.5t-277.5 -70zM584 223q70 0 113.5 38t64 107t20.5 163v20q0 91 -20.5 159.5t-64.5 107.5t-115 39
q-70 0 -114 -39t-64 -107.5t-20 -159.5v-20q0 -94 20 -163.5t64 -107t116 -37.5zM858 800v146q56 0 86.5 30.5t42.5 83t12 120.5h210q0 -111 -35.5 -197t-112.5 -134.5t-203 -48.5zM437 1255l-19 131q72 2 103.5 17t31.5 47q0 35 -36 50t-101 15l7 140q197 0 301 -51.5
t104 -143.5q0 -63 -43.5 -98.5t-105.5 -44.5l-1 -62h-241z" />
    <glyph glyph-name="uni1EE1" unicode="&#x1ee1;" horiz-adv-x="1213" 
d="M584 -21q-164 0 -280.5 69.5t-178 194t-61.5 288.5v20q0 162 61.5 286t177.5 194.5t279 70.5t279 -70t177.5 -194t61.5 -287v-20q0 -163 -61.5 -287.5t-177 -194.5t-277.5 -70zM584 223q70 0 113.5 38t64 107t20.5 163v20q0 91 -20.5 159.5t-64.5 107.5t-115 39
q-70 0 -114 -39t-64 -107.5t-20 -159.5v-20q0 -94 20 -163.5t64 -107t116 -37.5zM858 800v146q56 0 86.5 30.5t42.5 83t12 120.5h210q0 -111 -35.5 -197t-112.5 -134.5t-203 -48.5zM365 1277l-165 44q0 69 33 127.5t86 93.5t115 35q49 0 101.5 -23.5t99.5 -47.5t80 -25
q41 2 64 32t23 76l164 -46q0 -70 -32.5 -128t-86 -92.5t-116.5 -34.5q-53 0 -105 24t-97 48t-79 24q-42 0 -63.5 -31.5t-21.5 -75.5z" />
    <glyph glyph-name="ohungarumlaut" unicode="&#x151;" horiz-adv-x="1164" 
d="M584 -21q-164 0 -280.5 69.5t-178 194t-61.5 288.5v20q0 162 61.5 286t177.5 194.5t279 70.5t279 -70t177.5 -194t61.5 -287v-20q0 -163 -61.5 -287.5t-177 -194.5t-277.5 -70zM584 223q70 0 113.5 38t64 107t20.5 163v20q0 91 -20.5 159.5t-64.5 107.5t-115 39
q-70 0 -114 -39t-64 -107.5t-20 -159.5v-20q0 -94 20 -163.5t64 -107t116 -37.5zM571 1287l-2 5l240 268h291l1 -6l-291 -267h-239zM210 1287h-7l204 273h274l2 -5l-240 -268h-233z" />
    <glyph glyph-name="omacron" unicode="&#x14d;" horiz-adv-x="1164" 
d="M584 -21q-164 0 -280.5 69.5t-178 194t-61.5 288.5v20q0 162 61.5 286t177.5 194.5t279 70.5t279 -70t177.5 -194t61.5 -287v-20q0 -163 -61.5 -287.5t-177 -194.5t-277.5 -70zM584 223q70 0 113.5 38t64 107t20.5 163v20q0 91 -20.5 159.5t-64.5 107.5t-115 39
q-70 0 -114 -39t-64 -107.5t-20 -159.5v-20q0 -94 20 -163.5t64 -107t116 -37.5zM215 1300v186h734v-186h-734z" />
    <glyph glyph-name="oslash" unicode="&#xf8;" horiz-adv-x="1164" 
d="M584 -21q-164 0 -280.5 69.5t-178 194t-61.5 288.5v20q0 162 61.5 286t177.5 194.5t279 70.5t279 -70t177.5 -194t61.5 -287v-20q0 -163 -61.5 -287.5t-177 -194.5t-277.5 -70zM584 223q70 0 113.5 38t64 107t20.5 163v20q0 91 -20.5 159.5t-64.5 107.5t-115 39
q-70 0 -114 -39t-64 -107.5t-20 -159.5v-20q0 -94 20 -163.5t64 -107t116 -37.5zM165 -139l663 1360h172l-663 -1360h-172z" />
    <glyph glyph-name="oslashacute" unicode="&#x1ff;" horiz-adv-x="1164" 
d="M584 -21q-164 0 -280.5 69.5t-178 194t-61.5 288.5v20q0 162 61.5 286t177.5 194.5t279 70.5t279 -70t177.5 -194t61.5 -287v-20q0 -163 -61.5 -287.5t-177 -194.5t-277.5 -70zM584 223q70 0 113.5 38t64 107t20.5 163v20q0 91 -20.5 159.5t-64.5 107.5t-115 39
q-70 0 -114 -39t-64 -107.5t-20 -159.5v-20q0 -94 20 -163.5t64 -107t116 -37.5zM165 -139l663 1360h172l-663 -1360h-172zM392 1287l203 273h332l2 -6l-277 -267h-253h-7z" />
    <glyph glyph-name="otilde" unicode="&#xf5;" horiz-adv-x="1164" 
d="M584 -21q-164 0 -280.5 69.5t-178 194t-61.5 288.5v20q0 162 61.5 286t177.5 194.5t279 70.5t279 -70t177.5 -194t61.5 -287v-20q0 -163 -61.5 -287.5t-177 -194.5t-277.5 -70zM584 223q70 0 113.5 38t64 107t20.5 163v20q0 91 -20.5 159.5t-64.5 107.5t-115 39
q-70 0 -114 -39t-64 -107.5t-20 -159.5v-20q0 -94 20 -163.5t64 -107t116 -37.5zM365 1277l-165 44q0 69 33 127.5t86 93.5t115 35q49 0 101.5 -23.5t99.5 -47.5t80 -25q41 2 64 32t23 76l164 -46q0 -70 -32.5 -128t-86 -92.5t-116.5 -34.5q-53 0 -105 24t-97 48t-79 24
q-42 0 -63.5 -31.5t-21.5 -75.5z" />
    <glyph glyph-name="oe" unicode="&#x153;" horiz-adv-x="1823" 
d="M584 -21q-164 0 -280.5 69.5t-178 194t-61.5 288.5v20q0 162 61.5 286t177.5 194.5t279 70.5q110 0 201.5 -38.5t159.5 -110.5q64 74 150 111.5t193 37.5q147 0 251 -59.5t159.5 -169.5t55.5 -261v-170h-630l-2 -6q7 -62 36 -109.5t78 -75.5t117 -28q65 0 111.5 7.5
t90 24t96.5 42.5l81 -195q-67 -52 -178 -87.5t-241 -35.5q-75 0 -141 17t-122.5 50t-101.5 82q-67 -74 -158.5 -111.5t-203.5 -37.5zM584 223q70 0 113 38t63.5 107t20.5 163v20q0 91 -20.5 159.5t-64 107.5t-114.5 39t-114.5 -39t-63.5 -107.5t-20 -159.5v-20
q0 -94 20 -163.5t64 -107t116 -37.5zM1123 647h317v26q0 58 -16.5 99t-50.5 63t-87 22q-50 0 -84.5 -25.5t-54.5 -71.5t-26 -108z" />
    <glyph glyph-name="p" unicode="p" horiz-adv-x="1253" 
d="M59 -416v190l138 31v1056l-154 31v190h451l13 -124q46 69 111 106.5t158 37.5q129 0 221.5 -71t142 -198.5t49.5 -297.5v-21q0 -160 -49.5 -281t-143 -187.5t-224.5 -66.5q-84 0 -147.5 30.5t-109.5 90.5v-295l132 -31v-190h-588zM677 223q104 0 148 78t44 213v21
q0 96 -20 168t-62.5 112t-111.5 40q-53 0 -94 -23.5t-66 -69.5v-458q25 -40 66.5 -60.5t95.5 -20.5z" />
    <glyph glyph-name="thorn" unicode="&#xfe;" horiz-adv-x="1246" 
d="M56 -416v190l134 31v1534l-153 31v190h473v-589q45 63 108 97t151 34q130 0 222.5 -71t142 -198.5t49.5 -297.5v-21q0 -160 -50 -281t-143 -187.5t-224 -66.5q-84 0 -147.5 30.5t-108.5 90.5v-295l134 -31v-190h-588zM669 223q105 0 149.5 78t44.5 213v21q0 96 -20.5 168
t-63.5 112t-112 40q-52 0 -93 -23.5t-64 -68.5v-459q23 -40 64 -60.5t95 -20.5z" />
    <glyph glyph-name="q" unicode="q" horiz-adv-x="1161" 
d="M562 -416v185l173 36v295q-47 -61 -109.5 -91t-147.5 -30q-130 0 -223 66.5t-142 187.5t-49 281v21q0 170 49 297.5t141.5 198.5t221.5 71q96 0 162.5 -40.5t114.5 -112.5l25 133h277v-1277l125 -29v-192h-618zM574 223q52 0 93.5 20t67.5 61v462q-26 44 -66.5 67.5
t-92.5 23.5q-69 0 -111.5 -40.5t-61.5 -112.5t-19 -169v-21q0 -136 42.5 -213.5t147.5 -77.5z" />
    <glyph glyph-name="r" unicode="r" horiz-adv-x="896" 
d="M89 0v189l133 31v641l-152 31v190h452l10 -133l2 -26q38 91 94 135t138 44q24 0 54.5 -4t57.5 -12l-33 -294l-147 7q-58 3 -92 -16t-64 -58v-505l134 -31v-189h-587z" />
    <glyph glyph-name="racute" unicode="&#x155;" horiz-adv-x="896" 
d="M89 0v189l133 31v641l-152 31v190h452l10 -133l2 -26q38 91 94 135t138 44q24 0 54.5 -4t57.5 -12l-33 -294l-147 7q-58 3 -92 -16t-64 -58v-505l134 -31v-189h-587zM262 1287l203 273h332l2 -6l-277 -267h-253h-7z" />
    <glyph glyph-name="rcaron" unicode="&#x159;" horiz-adv-x="896" 
d="M89 0v189l133 31v641l-152 31v190h452l10 -133l2 -26q38 91 94 135t138 44q24 0 54.5 -4t57.5 -12l-33 -294l-147 7q-58 3 -92 -16t-64 -58v-505l134 -31v-189h-587zM831 1560v-26l-257 -245h-245l-254 248v23h248l129 -143l135 143h244z" />
    <glyph glyph-name="uni0157" unicode="&#x157;" horiz-adv-x="896" 
d="M89 0v189l133 31v641l-152 31v190h452l10 -133l2 -26q38 91 94 135t138 44q24 0 54.5 -4t57.5 -12l-33 -294l-147 7q-58 3 -92 -16t-64 -58v-505l134 -31v-189h-587zM392 -531l-149 94q31 49 47.5 98t16.5 124v96h265v-79q0 -96 -52 -185t-128 -148z" />
    <glyph glyph-name="s" unicode="s" horiz-adv-x="1037" 
d="M531 -21q-124 0 -231.5 23t-199.5 65l-4 321h219l40 -156q28 -15 65 -25t86 -10q92 0 128 28t36 69q0 40 -40 72t-163 55q-191 39 -281.5 125.5t-90.5 219.5q0 90 44 165.5t138.5 122t246.5 46.5q122 0 228 -22.5t176 -57.5l1 -310h-218l-31 140q-25 18 -58 27.5t-74 9.5
q-72 0 -108.5 -28t-36.5 -71q0 -25 14.5 -48.5t55.5 -44t121 -38.5q194 -43 286.5 -118t92.5 -218q0 -155 -112 -248.5t-330 -93.5z" />
    <glyph glyph-name="sacute" unicode="&#x15b;" horiz-adv-x="1037" 
d="M531 -21q-124 0 -231.5 23t-199.5 65l-4 321h219l40 -156q28 -15 65 -25t86 -10q92 0 128 28t36 69q0 40 -40 72t-163 55q-191 39 -281.5 125.5t-90.5 219.5q0 90 44 165.5t138.5 122t246.5 46.5q122 0 228 -22.5t176 -57.5l1 -310h-218l-31 140q-25 18 -58 27.5t-74 9.5
q-72 0 -108.5 -28t-36.5 -71q0 -25 14.5 -48.5t55.5 -44t121 -38.5q194 -43 286.5 -118t92.5 -218q0 -155 -112 -248.5t-330 -93.5zM328 1287l203 273h332l2 -6l-277 -267h-253h-7z" />
    <glyph glyph-name="scaron" unicode="&#x161;" horiz-adv-x="1037" 
d="M531 -21q-124 0 -231.5 23t-199.5 65l-4 321h219l40 -156q28 -15 65 -25t86 -10q92 0 128 28t36 69q0 40 -40 72t-163 55q-191 39 -281.5 125.5t-90.5 219.5q0 90 44 165.5t138.5 122t246.5 46.5q122 0 228 -22.5t176 -57.5l1 -310h-218l-31 140q-25 18 -58 27.5t-74 9.5
q-72 0 -108.5 -28t-36.5 -71q0 -25 14.5 -48.5t55.5 -44t121 -38.5q194 -43 286.5 -118t92.5 -218q0 -155 -112 -248.5t-330 -93.5zM897 1560v-26l-257 -245h-245l-254 248v23h248l129 -143l135 143h244z" />
    <glyph glyph-name="scedilla" unicode="&#x15f;" horiz-adv-x="1037" 
d="M531 -21q-124 0 -231.5 23t-199.5 65l-4 321h219l40 -156q28 -15 65 -25t86 -10q92 0 128 28t36 69q0 40 -40 72t-163 55q-191 39 -281.5 125.5t-90.5 219.5q0 90 44 165.5t138.5 122t246.5 46.5q122 0 228 -22.5t176 -57.5l1 -310h-218l-31 140q-25 18 -58 27.5t-74 9.5
q-72 0 -108.5 -28t-36.5 -71q0 -25 14.5 -48.5t55.5 -44t121 -38.5q194 -43 286.5 -118t92.5 -218q0 -155 -112 -248.5t-330 -93.5zM393 -466l-7 174q57 0 90 18.5t33 56.5q0 42 -35 58.5t-107 19.5l32 153h238l-12 -69q67 -11 112.5 -50.5t45.5 -116.5
q0 -111 -101.5 -177.5t-288.5 -66.5z" />
    <glyph glyph-name="scircumflex" unicode="&#x15d;" horiz-adv-x="1037" 
d="M531 -21q-124 0 -231.5 23t-199.5 65l-4 321h219l40 -156q28 -15 65 -25t86 -10q92 0 128 28t36 69q0 40 -40 72t-163 55q-191 39 -281.5 125.5t-90.5 219.5q0 90 44 165.5t138.5 122t246.5 46.5q122 0 228 -22.5t176 -57.5l1 -310h-218l-31 140q-25 18 -58 27.5t-74 9.5
q-72 0 -108.5 -28t-36.5 -71q0 -25 14.5 -48.5t55.5 -44t121 -38.5q194 -43 286.5 -118t92.5 -218q0 -155 -112 -248.5t-330 -93.5zM141 1289v26l257 245h245l254 -248v-23h-248l-130 143l-134 -143h-244z" />
    <glyph glyph-name="uni0219" unicode="&#x219;" horiz-adv-x="1037" 
d="M531 -21q-124 0 -231.5 23t-199.5 65l-4 321h219l40 -156q28 -15 65 -25t86 -10q92 0 128 28t36 69q0 40 -40 72t-163 55q-191 39 -281.5 125.5t-90.5 219.5q0 90 44 165.5t138.5 122t246.5 46.5q122 0 228 -22.5t176 -57.5l1 -310h-218l-31 140q-25 18 -58 27.5t-74 9.5
q-72 0 -108.5 -28t-36.5 -71q0 -25 14.5 -48.5t55.5 -44t121 -38.5q194 -43 286.5 -118t92.5 -218q0 -155 -112 -248.5t-330 -93.5zM481 -531l-149 94q31 49 47.5 98t16.5 124v96h265v-79q0 -96 -52 -185t-128 -148z" />
    <glyph glyph-name="germandbls" unicode="&#xdf;" horiz-adv-x="1330" 
d="M842 -21q-50 0 -99 6t-89 17.5t-65 28.5l57 241q34 -20 84 -34.5t110 -14.5q67 0 107.5 36t40.5 97q0 45 -29 88.5t-71.5 87.5t-85 91t-71.5 100t-29 115q0 45 15 91t35.5 92t35.5 91t15 87q0 59 -34.5 98.5t-97.5 39.5q-76 0 -120 -59.5t-44 -160.5v-1117h-473v189
l153 31v895q0 150 59 254t168 158t258 54q132 0 233 -45.5t158.5 -129t57.5 -198.5q0 -55 -15 -103.5t-34.5 -91t-35 -81.5t-15.5 -74q0 -47 28.5 -86.5t71 -78.5t85.5 -85.5t71.5 -107.5t28.5 -144q0 -125 -52.5 -208.5t-155.5 -126t-256 -42.5z" />
    <glyph glyph-name="longs" unicode="&#x17f;" horiz-adv-x="759" 
d="M40 0v189l134 31v977q0 185 109.5 284.5t301.5 99.5q44 0 86.5 -5.5t82.5 -15.5l-23 -236q-27 7 -50 9.5t-46 2.5q-69 0 -105 -36.5t-36 -102.5v-977l152 -31v-189h-606z" />
    <glyph glyph-name="t" unicode="t" horiz-adv-x="736" 
d="M498 -22q-160 0 -245 86.5t-85 274.5v520h-142v223h142v266h318v-266h189v-223h-189v-519q0 -58 25.5 -82.5t69.5 -24.5q22 0 45 3t42 6l24 -235q-45 -13 -94.5 -21t-99.5 -8z" />
    <glyph glyph-name="tbar" unicode="&#x167;" horiz-adv-x="736" 
d="M498 -22q-160 0 -245 86.5t-85 274.5v520h-142v223h142v266h318v-266h189v-223h-189v-519q0 -58 25.5 -82.5t69.5 -24.5q22 0 45 3t42 6l24 -235q-45 -13 -94.5 -21t-99.5 -8zM12 599v155h676v-155h-676z" />
    <glyph glyph-name="tcaron" unicode="&#x165;" horiz-adv-x="736" 
d="M498 -22q-160 0 -245 86.5t-85 274.5v520h-142v223h142v266h318v-266h189v-223h-189v-519q0 -58 25.5 -82.5t69.5 -24.5q22 0 45 3t42 6l24 -235q-45 -13 -94.5 -21t-99.5 -8zM701 1149l-149 94q31 48 47.5 97.5t16.5 123.5v96h265v-79q0 -96 -52 -185t-128 -147z" />
    <glyph glyph-name="uni0163" unicode="&#x163;" horiz-adv-x="736" 
d="M498 -22q-160 0 -245 86.5t-85 274.5v520h-142v223h142v266h318v-266h189v-223h-189v-519q0 -58 25.5 -82.5t69.5 -24.5q22 0 45 3t42 6l24 -235q-45 -13 -94.5 -21t-99.5 -8zM236 -466l-7 174q57 0 90 18.5t33 56.5q0 42 -35 58.5t-107 19.5l32 153h238l-12 -69
q67 -11 112.5 -50.5t45.5 -116.5q0 -111 -101.5 -177.5t-288.5 -66.5z" />
    <glyph glyph-name="uni021B" unicode="&#x21b;" horiz-adv-x="736" 
d="M498 -22q-160 0 -245 86.5t-85 274.5v520h-142v223h142v266h318v-266h189v-223h-189v-519q0 -58 25.5 -82.5t69.5 -24.5q22 0 45 3t42 6l24 -235q-45 -13 -94.5 -21t-99.5 -8zM323 -531l-149 94q31 49 47.5 98t16.5 124v96h265v-79q0 -96 -52 -185t-128 -148z" />
    <glyph glyph-name="u" unicode="u" horiz-adv-x="1283" 
d="M513 -21q-169 0 -266 107.5t-97 332.5v442l-117 31v190h117h320v-665q0 -98 37 -144.5t113 -46.5q52 0 96.5 20t75.5 59v556l-123 31v190h123h320v-862l133 -31v-189h-412l-21 130q-52 -73 -127.5 -112t-171.5 -39z" />
    <glyph glyph-name="uacute" unicode="&#xfa;" horiz-adv-x="1283" 
d="M513 -21q-169 0 -266 107.5t-97 332.5v442l-117 31v190h117h320v-665q0 -98 37 -144.5t113 -46.5q52 0 96.5 20t75.5 59v556l-123 31v190h123h320v-862l133 -31v-189h-412l-21 130q-52 -73 -127.5 -112t-171.5 -39zM446 1287l203 273h332l2 -6l-277 -267h-253h-7z" />
    <glyph glyph-name="ubreve" unicode="&#x16d;" horiz-adv-x="1283" 
d="M513 -21q-169 0 -266 107.5t-97 332.5v442l-117 31v190h117h320v-665q0 -98 37 -144.5t113 -46.5q52 0 96.5 20t75.5 59v556l-123 31v190h123h320v-862l133 -31v-189h-412l-21 130q-52 -73 -127.5 -112t-171.5 -39zM637 1261q-166 0 -265 82t-93 211l2 6h212
q0 -54 34.5 -90t109.5 -36q73 0 107 35t34 91h214l2 -6q3 -129 -94 -211t-263 -82z" />
    <glyph glyph-name="ucircumflex" unicode="&#xfb;" horiz-adv-x="1283" 
d="M513 -21q-169 0 -266 107.5t-97 332.5v442l-117 31v190h117h320v-665q0 -98 37 -144.5t113 -46.5q52 0 96.5 20t75.5 59v556l-123 31v190h123h320v-862l133 -31v-189h-412l-21 130q-52 -73 -127.5 -112t-171.5 -39zM258 1289v26l257 245h245l254 -248v-23h-248l-130 143
l-134 -143h-244z" />
    <glyph glyph-name="udieresis" unicode="&#xfc;" horiz-adv-x="1283" 
d="M513 -21q-169 0 -266 107.5t-97 332.5v442l-117 31v190h117h320v-665q0 -98 37 -144.5t113 -46.5q52 0 96.5 20t75.5 59v556l-123 31v190h123h320v-862l133 -31v-189h-412l-21 130q-52 -73 -127.5 -112t-171.5 -39zM715 1299v261h303v-261h-303zM255 1299v261h303v-261
h-303z" />
    <glyph glyph-name="uni1EE5" unicode="&#x1ee5;" horiz-adv-x="1283" 
d="M513 -21q-169 0 -266 107.5t-97 332.5v442l-117 31v190h117h320v-665q0 -98 37 -144.5t113 -46.5q52 0 96.5 20t75.5 59v556l-123 31v190h123h320v-862l133 -31v-189h-412l-21 130q-52 -73 -127.5 -112t-171.5 -39zM474 -412v260h330v-260h-330z" />
    <glyph glyph-name="ugrave" unicode="&#xf9;" horiz-adv-x="1283" 
d="M513 -21q-169 0 -266 107.5t-97 332.5v442l-117 31v190h117h320v-665q0 -98 37 -144.5t113 -46.5q52 0 96.5 20t75.5 59v556l-123 31v190h123h320v-862l133 -31v-189h-412l-21 130q-52 -73 -127.5 -112t-171.5 -39zM826 1287h-7h-252l-278 267l2 6h332z" />
    <glyph glyph-name="uni1EE7" unicode="&#x1ee7;" horiz-adv-x="1283" 
d="M513 -21q-169 0 -266 107.5t-97 332.5v442l-117 31v190h117h320v-665q0 -98 37 -144.5t113 -46.5q52 0 96.5 20t75.5 59v556l-123 31v190h123h320v-862l133 -31v-189h-412l-21 130q-52 -73 -127.5 -112t-171.5 -39zM490 1255l-19 131q72 2 103.5 17t31.5 47q0 35 -36 50
t-101 15l7 140q197 0 301 -51.5t104 -143.5q0 -63 -43.5 -98.5t-105.5 -44.5l-1 -62h-241z" />
    <glyph glyph-name="uhorn" unicode="&#x1b0;" horiz-adv-x="1405" 
d="M513 -21q-169 0 -266 107.5t-97 332.5v442l-117 31v190h117h320v-665q0 -98 37 -144.5t113 -46.5q52 0 96.5 20t75.5 59v556l-123 31v190h123h320v-862l133 -31v-189h-412l-21 130q-52 -73 -127.5 -112t-171.5 -39zM1063 800v146q56 0 86.5 30.5t42.5 83t12 120.5h210
q0 -111 -35.5 -197t-112.5 -134.5t-203 -48.5z" />
    <glyph glyph-name="uni1EE9" unicode="&#x1ee9;" horiz-adv-x="1405" 
d="M513 -21q-169 0 -266 107.5t-97 332.5v442l-117 31v190h117h320v-665q0 -98 37 -144.5t113 -46.5q52 0 96.5 20t75.5 59v556l-123 31v190h123h320v-862l133 -31v-189h-412l-21 130q-52 -73 -127.5 -112t-171.5 -39zM1063 800v146q56 0 86.5 30.5t42.5 83t12 120.5h210
q0 -111 -35.5 -197t-112.5 -134.5t-203 -48.5zM446 1287l203 273h332l2 -6l-277 -267h-253h-7z" />
    <glyph glyph-name="uni1EF1" unicode="&#x1ef1;" horiz-adv-x="1405" 
d="M513 -21q-169 0 -266 107.5t-97 332.5v442l-117 31v190h117h320v-665q0 -98 37 -144.5t113 -46.5q52 0 96.5 20t75.5 59v556l-123 31v190h123h320v-862l133 -31v-189h-412l-21 130q-52 -73 -127.5 -112t-171.5 -39zM1063 800v146q56 0 86.5 30.5t42.5 83t12 120.5h210
q0 -111 -35.5 -197t-112.5 -134.5t-203 -48.5zM474 -412v260h330v-260h-330z" />
    <glyph glyph-name="uni1EEB" unicode="&#x1eeb;" horiz-adv-x="1405" 
d="M513 -21q-169 0 -266 107.5t-97 332.5v442l-117 31v190h117h320v-665q0 -98 37 -144.5t113 -46.5q52 0 96.5 20t75.5 59v556l-123 31v190h123h320v-862l133 -31v-189h-412l-21 130q-52 -73 -127.5 -112t-171.5 -39zM1063 800v146q56 0 86.5 30.5t42.5 83t12 120.5h210
q0 -111 -35.5 -197t-112.5 -134.5t-203 -48.5zM826 1287h-7h-252l-278 267l2 6h332z" />
    <glyph glyph-name="uni1EED" unicode="&#x1eed;" horiz-adv-x="1405" 
d="M513 -21q-169 0 -266 107.5t-97 332.5v442l-117 31v190h117h320v-665q0 -98 37 -144.5t113 -46.5q52 0 96.5 20t75.5 59v556l-123 31v190h123h320v-862l133 -31v-189h-412l-21 130q-52 -73 -127.5 -112t-171.5 -39zM1063 800v146q56 0 86.5 30.5t42.5 83t12 120.5h210
q0 -111 -35.5 -197t-112.5 -134.5t-203 -48.5zM490 1255l-19 131q72 2 103.5 17t31.5 47q0 35 -36 50t-101 15l7 140q197 0 301 -51.5t104 -143.5q0 -63 -43.5 -98.5t-105.5 -44.5l-1 -62h-241z" />
    <glyph glyph-name="uni1EEF" unicode="&#x1eef;" horiz-adv-x="1405" 
d="M513 -21q-169 0 -266 107.5t-97 332.5v442l-117 31v190h117h320v-665q0 -98 37 -144.5t113 -46.5q52 0 96.5 20t75.5 59v556l-123 31v190h123h320v-862l133 -31v-189h-412l-21 130q-52 -73 -127.5 -112t-171.5 -39zM1063 800v146q56 0 86.5 30.5t42.5 83t12 120.5h210
q0 -111 -35.5 -197t-112.5 -134.5t-203 -48.5zM418 1277l-165 44q0 69 33 127.5t86 93.5t115 35q49 0 101.5 -23.5t99.5 -47.5t80 -25q41 2 64 32t23 76l164 -46q0 -70 -32.5 -128t-86 -92.5t-116.5 -34.5q-53 0 -105 24t-97 48t-79 24q-42 0 -63.5 -31.5t-21.5 -75.5z" />
    <glyph glyph-name="uhungarumlaut" unicode="&#x171;" horiz-adv-x="1283" 
d="M513 -21q-169 0 -266 107.5t-97 332.5v442l-117 31v190h117h320v-665q0 -98 37 -144.5t113 -46.5q52 0 96.5 20t75.5 59v556l-123 31v190h123h320v-862l133 -31v-189h-412l-21 130q-52 -73 -127.5 -112t-171.5 -39zM625 1287l-2 5l240 268h291l1 -6l-291 -267h-239z
M264 1287h-7l204 273h274l2 -5l-240 -268h-233z" />
    <glyph glyph-name="umacron" unicode="&#x16b;" horiz-adv-x="1283" 
d="M513 -21q-169 0 -266 107.5t-97 332.5v442l-117 31v190h117h320v-665q0 -98 37 -144.5t113 -46.5q52 0 96.5 20t75.5 59v556l-123 31v190h123h320v-862l133 -31v-189h-412l-21 130q-52 -73 -127.5 -112t-171.5 -39zM269 1300v186h734v-186h-734z" />
    <glyph glyph-name="uogonek" unicode="&#x173;" horiz-adv-x="1283" 
d="M513 -21q-169 0 -266 107.5t-97 332.5v442l-117 31v190h117h320v-665q0 -98 37 -144.5t113 -46.5q52 0 96.5 20t75.5 59v556l-123 31v190h123h320v-862l133 -31v-189h-412l-21 130q-52 -73 -127.5 -112t-171.5 -39zM1136 -422q-115 0 -188 58.5t-73 162.5q0 73 52 144.5
t176 117.5l142 -61q-74 -43 -105 -81t-31 -80q0 -36 20 -54t64 -18q23 0 42.5 4t36.5 10l35 -163q-33 -17 -74 -28.5t-97 -11.5z" />
    <glyph glyph-name="uring" unicode="&#x16f;" horiz-adv-x="1283" 
d="M513 -21q-169 0 -266 107.5t-97 332.5v442l-117 31v190h117h320v-665q0 -98 37 -144.5t113 -46.5q52 0 96.5 20t75.5 59v556l-123 31v190h123h320v-862l133 -31v-189h-412l-21 130q-52 -73 -127.5 -112t-171.5 -39zM638 1229q-103 0 -172.5 62t-69.5 158t70 160.5
t172 64.5q101 0 170 -65t69 -160q0 -96 -69 -158t-170 -62zM638 1354q42 0 66 26t24 69q0 44 -24 70.5t-66 26.5q-40 0 -67 -26.5t-27 -70.5q0 -43 26.5 -69t67.5 -26z" />
    <glyph glyph-name="utilde" unicode="&#x169;" horiz-adv-x="1283" 
d="M513 -21q-169 0 -266 107.5t-97 332.5v442l-117 31v190h117h320v-665q0 -98 37 -144.5t113 -46.5q52 0 96.5 20t75.5 59v556l-123 31v190h123h320v-862l133 -31v-189h-412l-21 130q-52 -73 -127.5 -112t-171.5 -39zM418 1277l-165 44q0 69 33 127.5t86 93.5t115 35
q49 0 101.5 -23.5t99.5 -47.5t80 -25q41 2 64 32t23 76l164 -46q0 -70 -32.5 -128t-86 -92.5t-116.5 -34.5q-53 0 -105 24t-97 48t-79 24q-42 0 -63.5 -31.5t-21.5 -75.5z" />
    <glyph glyph-name="v" unicode="v" horiz-adv-x="1259" 
d="M450 0l-310 873l-119 19v190h546v-189l-106 -20l140 -454l24 -83h6l28 83l165 453l-129 21v189h545v-190l-122 -22l-336 -870h-332z" />
    <glyph glyph-name="w" unicode="w" horiz-adv-x="1821" 
d="M404 0l-241 864l-136 28v190h545v-189l-108 -22l86 -386l16 -70h6l22 70l218 597h205l213 -609l21 -68h6l20 68l108 396l-123 24v189h534v-190l-128 -27l-273 -865h-263l-192 502l-31 103h-6l-29 -104l-184 -501h-286z" />
    <glyph glyph-name="wacute" unicode="&#x1e83;" horiz-adv-x="1821" 
d="M404 0l-241 864l-136 28v190h545v-189l-108 -22l86 -386l16 -70h6l22 70l218 597h205l213 -609l21 -68h6l20 68l108 396l-123 24v189h534v-190l-128 -27l-273 -865h-263l-192 502l-31 103h-6l-29 -104l-184 -501h-286zM721 1287l203 273h332l2 -6l-277 -267h-253h-7z" />
    <glyph glyph-name="wcircumflex" unicode="&#x175;" horiz-adv-x="1821" 
d="M404 0l-241 864l-136 28v190h545v-189l-108 -22l86 -386l16 -70h6l22 70l218 597h205l213 -609l21 -68h6l20 68l108 396l-123 24v189h534v-190l-128 -27l-273 -865h-263l-192 502l-31 103h-6l-29 -104l-184 -501h-286zM533 1289v26l257 245h245l254 -248v-23h-248
l-130 143l-134 -143h-244z" />
    <glyph glyph-name="wdieresis" unicode="&#x1e85;" horiz-adv-x="1821" 
d="M404 0l-241 864l-136 28v190h545v-189l-108 -22l86 -386l16 -70h6l22 70l218 597h205l213 -609l21 -68h6l20 68l108 396l-123 24v189h534v-190l-128 -27l-273 -865h-263l-192 502l-31 103h-6l-29 -104l-184 -501h-286zM990 1299v261h303v-261h-303zM530 1299v261h303
v-261h-303z" />
    <glyph glyph-name="wgrave" unicode="&#x1e81;" horiz-adv-x="1821" 
d="M404 0l-241 864l-136 28v190h545v-189l-108 -22l86 -386l16 -70h6l22 70l218 597h205l213 -609l21 -68h6l20 68l108 396l-123 24v189h534v-190l-128 -27l-273 -865h-263l-192 502l-31 103h-6l-29 -104l-184 -501h-286zM1101 1287h-7h-252l-278 267l2 6h332z" />
    <glyph glyph-name="x" unicode="x" horiz-adv-x="1353" 
d="M27 0v189l144 17l306 335l-286 335l-138 16v190h569v-180l-77 -13l138 -185l139 184l-86 14v180h546v-190l-123 -16l-272 -320l300 -350l139 -17v-189h-583v179l83 14l-146 182l-144 -184l85 -12v-179h-594z" />
    <glyph glyph-name="y" unicode="y" horiz-adv-x="1313" 
d="M378 -437q-41 0 -85.5 7t-87.5 19l37 232q20 -4 40.5 -6.5t39.5 -2.5q63 0 110.5 28.5t65.5 84.5l17 53l-355 894l-139 20v190h610v-190l-133 -20l158 -459l12 -35h6l187 496l-127 18v190h562v-190l-125 -18l-409 -1034q-29 -74 -77 -137t-122.5 -101.5t-184.5 -38.5z
" />
    <glyph glyph-name="yacute" unicode="&#xfd;" horiz-adv-x="1313" 
d="M378 -437q-41 0 -85.5 7t-87.5 19l37 232q20 -4 40.5 -6.5t39.5 -2.5q63 0 110.5 28.5t65.5 84.5l17 53l-355 894l-139 20v190h610v-190l-133 -20l158 -459l12 -35h6l187 496l-127 18v190h562v-190l-125 -18l-409 -1034q-29 -74 -77 -137t-122.5 -101.5t-184.5 -38.5z
M471 1287l203 273h332l2 -6l-277 -267h-253h-7z" />
    <glyph glyph-name="ycircumflex" unicode="&#x177;" horiz-adv-x="1313" 
d="M378 -437q-41 0 -85.5 7t-87.5 19l37 232q20 -4 40.5 -6.5t39.5 -2.5q63 0 110.5 28.5t65.5 84.5l17 53l-355 894l-139 20v190h610v-190l-133 -20l158 -459l12 -35h6l187 496l-127 18v190h562v-190l-125 -18l-409 -1034q-29 -74 -77 -137t-122.5 -101.5t-184.5 -38.5z
M283 1289v26l257 245h245l254 -248v-23h-248l-130 143l-134 -143h-244z" />
    <glyph glyph-name="ydieresis" unicode="&#xff;" horiz-adv-x="1313" 
d="M378 -437q-41 0 -85.5 7t-87.5 19l37 232q20 -4 40.5 -6.5t39.5 -2.5q63 0 110.5 28.5t65.5 84.5l17 53l-355 894l-139 20v190h610v-190l-133 -20l158 -459l12 -35h6l187 496l-127 18v190h562v-190l-125 -18l-409 -1034q-29 -74 -77 -137t-122.5 -101.5t-184.5 -38.5z
M740 1299v261h303v-261h-303zM280 1299v261h303v-261h-303z" />
    <glyph glyph-name="uni1EF5" unicode="&#x1ef5;" horiz-adv-x="1313" 
d="M378 -437q-41 0 -85.5 7t-87.5 19l37 232q20 -4 40.5 -6.5t39.5 -2.5q63 0 110.5 28.5t65.5 84.5l17 53l-355 894l-139 20v190h610v-190l-133 -20l158 -459l12 -35h6l187 496l-127 18v190h562v-190l-125 -18l-409 -1034q-29 -74 -77 -137t-122.5 -101.5t-184.5 -38.5z
M861 -412v260h330v-260h-330z" />
    <glyph glyph-name="ygrave" unicode="&#x1ef3;" horiz-adv-x="1313" 
d="M378 -437q-41 0 -85.5 7t-87.5 19l37 232q20 -4 40.5 -6.5t39.5 -2.5q63 0 110.5 28.5t65.5 84.5l17 53l-355 894l-139 20v190h610v-190l-133 -20l158 -459l12 -35h6l187 496l-127 18v190h562v-190l-125 -18l-409 -1034q-29 -74 -77 -137t-122.5 -101.5t-184.5 -38.5z
M852 1287h-7h-252l-278 267l2 6h332z" />
    <glyph glyph-name="uni1EF7" unicode="&#x1ef7;" horiz-adv-x="1313" 
d="M378 -437q-41 0 -85.5 7t-87.5 19l37 232q20 -4 40.5 -6.5t39.5 -2.5q63 0 110.5 28.5t65.5 84.5l17 53l-355 894l-139 20v190h610v-190l-133 -20l158 -459l12 -35h6l187 496l-127 18v190h562v-190l-125 -18l-409 -1034q-29 -74 -77 -137t-122.5 -101.5t-184.5 -38.5z
M516 1255l-19 131q72 2 103.5 17t31.5 47q0 35 -36 50t-101 15l7 140q197 0 301 -51.5t104 -143.5q0 -63 -43.5 -98.5t-105.5 -44.5l-1 -62h-241z" />
    <glyph glyph-name="uni1EF9" unicode="&#x1ef9;" horiz-adv-x="1313" 
d="M378 -437q-41 0 -85.5 7t-87.5 19l37 232q20 -4 40.5 -6.5t39.5 -2.5q63 0 110.5 28.5t65.5 84.5l17 53l-355 894l-139 20v190h610v-190l-133 -20l158 -459l12 -35h6l187 496l-127 18v190h562v-190l-125 -18l-409 -1034q-29 -74 -77 -137t-122.5 -101.5t-184.5 -38.5z
M444 1277l-165 44q0 69 33 127.5t86 93.5t115 35q49 0 101.5 -23.5t99.5 -47.5t80 -25q41 2 64 32t23 76l164 -46q0 -70 -32.5 -128t-86 -92.5t-116.5 -34.5q-53 0 -105 24t-97 48t-79 24q-42 0 -63.5 -31.5t-21.5 -75.5z" />
    <glyph glyph-name="z" unicode="z" horiz-adv-x="1129" 
d="M88 0v182l555 681h-259l-35 -186h-234v405h910v-203l-513 -652h261l48 203h222v-430h-955z" />
    <glyph glyph-name="zacute" unicode="&#x17a;" horiz-adv-x="1129" 
d="M88 0v182l555 681h-259l-35 -186h-234v405h910v-203l-513 -652h261l48 203h222v-430h-955zM374 1287l203 273h332l2 -6l-277 -267h-253h-7z" />
    <glyph glyph-name="zcaron" unicode="&#x17e;" horiz-adv-x="1129" 
d="M88 0v182l555 681h-259l-35 -186h-234v405h910v-203l-513 -652h261l48 203h222v-430h-955zM943 1560v-26l-257 -245h-245l-254 248v23h248l129 -143l135 143h244z" />
    <glyph glyph-name="zdotaccent" unicode="&#x17c;" horiz-adv-x="1129" 
d="M88 0v182l555 681h-259l-35 -186h-234v405h910v-203l-513 -652h261l48 203h222v-430h-955zM399 1299v261h330v-261h-330z" />
    <glyph glyph-name="g.ss01" horiz-adv-x="1170" 
d="M540 -438q-230 0 -360 81t-130 201q0 79 50.5 139.5t132.5 98.5q-26 23 -39.5 54.5t-13.5 70.5q0 63 30.5 110t82.5 82q-100 50 -155 133t-55 184v11q0 112 60.5 196t168.5 131.5t254 47.5q46 0 89.5 -5.5t83.5 -14.5h372v-155h-139q36 -43 55.5 -93t19.5 -107v-11
q0 -107 -60.5 -191.5t-169 -134t-253.5 -49.5q-22 0 -49 2t-56 5q-9 -9 -14.5 -21t-5.5 -27q0 -31 32.5 -44.5t93.5 -13.5h163q180 0 279.5 -81.5t99.5 -223.5q0 -108 -71.5 -192.5t-199 -133.5t-296.5 -49zM547 -215q79 0 133.5 18t82 45.5t27.5 59.5q0 37 -28.5 62.5
t-90.5 25.5h-197q-24 0 -46 1.5t-42 5.5q-12 -12 -20.5 -26.5t-13.5 -30.5t-5 -33q0 -55 51 -91.5t149 -36.5zM566 569q51 0 87.5 19.5t56.5 53t20 74.5v11q0 43 -20 76t-57 52t-87 19q-52 0 -89 -19.5t-57 -52.5t-20 -75v-11q0 -41 20 -74.5t57.5 -53t88.5 -19.5z" />
    <glyph glyph-name="a.ss03" horiz-adv-x="1136" 
d="M416 -21q-160 0 -255.5 89t-95.5 238q0 107 54 181.5t162 113.5t268 39h134v80q0 74 -35.5 113t-103.5 39q-39 0 -69.5 -13.5t-48.5 -39.5t-18 -66h-308l-2 6q-5 96 52 173.5t161.5 123.5t243.5 46q201 0 325 -99.5t124 -284.5v-425q0 -27 0.5 -48.5t3.5 -41.5l111 -14
v-189h-380q-12 22 -22 49t-16 54q-51 -57 -122 -90.5t-163 -33.5zM510 210q52 0 97.5 23t75.5 59v174h-132q-86 0 -126.5 -40.5t-40.5 -96.5q0 -55 33 -87t93 -32z" />
    <glyph glyph-name="ae.ss03" horiz-adv-x="1781" 
d="M481 -21q-199 0 -307 91.5t-108 247.5q0 162 131 248t380 86h167v51q0 71 -40 112.5t-113 41.5q-67 0 -107.5 -33t-40.5 -82l-311 18l-2 6q-4 98 54.5 173.5t166.5 119t254 43.5q97 0 179.5 -32t143.5 -92q61 61 141.5 92.5t179.5 31.5q142 0 244 -60t157 -170t55 -260
v-170h-632l-2 -6q5 -98 63 -155.5t176 -57.5q85 0 145 18.5t138 55.5l80 -198q-64 -48 -175 -84t-233 -36q-126 0 -225 40t-166 116q-62 -68 -161 -112t-232 -44zM529 200q42 0 82.5 12.5t75 33.5t57.5 45v164h-165q-92 0 -142.5 -39t-50.5 -98q0 -53 37.5 -85.5
t105.5 -32.5zM1074 645h319v28q0 86 -40.5 135t-113.5 49q-48 0 -84 -25t-57.5 -71t-25.5 -111z" />
    <glyph glyph-name="c.ss03" horiz-adv-x="1084" 
d="M583 -21q-164 0 -277.5 69.5t-173 193t-59.5 284.5v27q0 161 59 285t173 194t275 70q136 0 237 -52t156 -146.5t52 -223.5l-2 -6h-292q0 53 -18 94.5t-53.5 65t-85.5 23.5q-66 0 -106.5 -38.5t-58.5 -106.5t-18 -159v-27q0 -92 18 -160t59.5 -105.5t110.5 -37.5
q47 0 81 19t52.5 53.5t18.5 82.5h291l3 -6q3 -114 -54.5 -202.5t-158.5 -139.5t-229 -51z" />
    <glyph glyph-name="s.ss03" horiz-adv-x="1057" 
d="M530 -21q-156 0 -261.5 51.5t-157.5 134.5t-48 176l2 6h291q3 -55 24.5 -88.5t60 -49.5t90.5 -16q80 0 119 30t39 74q0 46 -46.5 79.5t-169.5 59.5q-189 38 -285.5 115t-96.5 208q0 97 54 174.5t153.5 123t236.5 45.5q140 0 243 -44.5t159 -122t53 -178.5l-2 -6h-311
q0 64 -41 100t-103 36t-101 -31t-39 -79q0 -29 18 -53t64 -43t130 -35q200 -38 296 -115.5t96 -212.5q0 -100 -58 -176.5t-163 -119.5t-246 -43z" />
    <glyph glyph-name="k.ss05" horiz-adv-x="1343" 
d="M47 0v189l142 35v1110l-156 36v190h475v-894h77l185 206l3 3l-101 18v189h575v-190l-154 -40l-205 -254l279 -373l145 -36v-189h-579v180l79 21l-3 4l-170 237h-131v-218l125 -35v-189h-586z" />
    <glyph glyph-name="kgreenlandic.ss05" horiz-adv-x="1274" 
d="M43 0v189l134 31v641l-144 31v191h462v-419h87l132 208l3 6l-97 14v190h554v-190l-126 -30l-185 -254l246 -396l108 -23v-189h-349l-248 439h-125v-219l116 -31v-189h-568z" />
    <glyph glyph-name="uniFB03" unicode="&#xfb03;" horiz-adv-x="2138" 
d="M82 0v189l134 31v639h-158v223h158v115q0 185 109 284.5t305 99.5q49 0 105 -8t92 -18l-26 -237q-26 7 -57 11t-64 4q-73 0 -108.5 -35t-35.5 -101v-115h248v-223h-248v-639l193 -31v-189h-647zM808 0v189l153 31v639h-158v223h158v61q0 211 130 324.5t367 113.5
q82 0 160.5 -15t182.5 -44l-44 -251q-74 21 -137.5 32.5t-127.5 11.5q-106 0 -158.5 -44.5t-52.5 -127.5v-61h668v-862l152 -31v-189h-607v189l135 31v639h-348v-639l135 -31v-189h-608z" />
    <glyph glyph-name="uniFB04" unicode="&#xfb04;" horiz-adv-x="2263" 
d="M82 0v189l134 31v639h-158v223h158v115q0 185 109 284.5t305 99.5q49 0 105 -8t92 -18l-26 -237q-26 7 -57 11t-64 4q-73 0 -108.5 -35t-35.5 -101v-115h248v-223h-248v-639l193 -31v-189h-647zM857 0v189l153 31v639h-133v223h133v38q0 222 135 341.5t383 119.5
q86 0 170 -15t195 -45h196v-1301l134 -31v-189h-589v189l135 31v1087q-59 12 -109.5 18.5t-100.5 6.5q-115 0 -172 -54t-57 -158v-38h237v-223h-237v-639l135 -31v-189h-608z" />
    <glyph glyph-name="a.sc" horiz-adv-x="1359" 
d="M54 0v189l81 13l367 963h355l367 -962l83 -14v-189h-468v172l60 16l-41 119h-358l-41 -119l60 -16v-172h-465zM572 518h213l-92 271l-12 35h-6l-10 -34z" />
    <glyph glyph-name="aacute.sc" horiz-adv-x="1359" 
d="M54 0v189l81 13l367 963h355l367 -962l83 -14v-189h-468v172l60 16l-41 119h-358l-41 -119l60 -16v-172h-465zM572 518h213l-92 271l-12 35h-6l-10 -34zM488 1287l203 273h332l2 -6l-277 -267h-253h-7z" />
    <glyph glyph-name="abreve.sc" horiz-adv-x="1359" 
d="M54 0v189l81 13l367 963h355l367 -962l83 -14v-189h-468v172l60 16l-41 119h-358l-41 -119l60 -16v-172h-465zM572 518h213l-92 271l-12 35h-6l-10 -34zM680 1261q-166 0 -265 82t-93 211l2 6h212q0 -54 34.5 -90t109.5 -36q73 0 107 35t34 91h214l2 -6q3 -129 -94 -211
t-263 -82z" />
    <glyph glyph-name="uni1EAF.sc" horiz-adv-x="1359" 
d="M54 0v189l81 13l367 963h355l367 -962l83 -14v-189h-468v172l60 16l-41 119h-358l-41 -119l60 -16v-172h-465zM572 518h213l-92 271l-12 35h-6l-10 -34zM672 1228q-166 0 -265 75.5t-93 194.5l2 6h207q0 -49 36 -81t113 -32q76 0 111.5 31.5t35.5 81.5h208l2 -6
q4 -119 -93.5 -194.5t-263.5 -75.5zM568 1510l110 225h264l2 -6l-200 -219h-168h-8z" />
    <glyph glyph-name="uni1EB7.sc" horiz-adv-x="1359" 
d="M54 0v189l81 13l367 963h355l367 -962l83 -14v-189h-468v172l60 16l-41 119h-358l-41 -119l60 -16v-172h-465zM572 518h213l-92 271l-12 35h-6l-10 -34zM680 1261q-166 0 -265 82t-93 211l2 6h212q0 -54 34.5 -90t109.5 -36q73 0 107 35t34 91h214l2 -6q3 -129 -94 -211
t-263 -82zM514 -412v260h330v-260h-330z" />
    <glyph glyph-name="uni1EB1.sc" horiz-adv-x="1359" 
d="M54 0v189l81 13l367 963h355l367 -962l83 -14v-189h-468v172l60 16l-41 119h-358l-41 -119l60 -16v-172h-465zM572 518h213l-92 271l-12 35h-6l-10 -34zM687 1228q-166 0 -263.5 75.5t-93.5 194.5l2 6h208q0 -50 36 -81.5t111 -31.5q77 0 113 32t36 81h207l2 -6
q5 -119 -93 -194.5t-265 -75.5zM791 1510h-8h-168l-201 219l2 6h265z" />
    <glyph glyph-name="uni1EB3.sc" horiz-adv-x="1359" 
d="M54 0v189l81 13l367 963h355l367 -962l83 -14v-189h-468v172l60 16l-41 119h-358l-41 -119l60 -16v-172h-465zM572 518h213l-92 271l-12 35h-6l-10 -34zM679 1228q-166 0 -265 75.5t-93 194.5l2 6h208q0 -49 35.5 -81t112.5 -32q75 0 110.5 31.5t35.5 81.5h209l2 -6
q4 -119 -93.5 -194.5t-263.5 -75.5zM576 1499l-20 116q72 2 103.5 14t31.5 38q0 30 -35 42t-99 12l7 120q173 0 264.5 -41.5t91.5 -115.5q0 -55 -41.5 -86t-104.5 -39l-1 -60h-197z" />
    <glyph glyph-name="uni1EB5.sc" horiz-adv-x="1359" 
d="M54 0v189l81 13l367 963h355l367 -962l83 -14v-189h-468v172l60 16l-41 119h-358l-41 -119l60 -16v-172h-465zM572 518h213l-92 271l-12 35h-6l-10 -34zM678 1228q-166 0 -265 75.5t-93 194.5l2 6h208q0 -49 35.5 -81t112.5 -32q75 0 110.5 31.5t35.5 81.5h209l2 -6
q4 -119 -93.5 -194.5t-263.5 -75.5zM476 1548l-151 42q0 63 30 116t80 85.5t108 32.5q45 0 93.5 -22t92.5 -43.5t77 -21.5q39 0 61.5 29t22.5 70l150 -43q0 -64 -30.5 -117.5t-79.5 -85t-109 -31.5q-49 0 -97 22t-90.5 44t-75.5 22q-39 0 -60.5 -29.5t-21.5 -69.5z" />
    <glyph glyph-name="acircumflex.sc" horiz-adv-x="1359" 
d="M54 0v189l81 13l367 963h355l367 -962l83 -14v-189h-468v172l60 16l-41 119h-358l-41 -119l60 -16v-172h-465zM572 518h213l-92 271l-12 35h-6l-10 -34zM301 1289v26l257 245h245l254 -248v-23h-248l-130 143l-134 -143h-244z" />
    <glyph glyph-name="uni1EA5.sc" horiz-adv-x="1359" 
d="M54 0v189l81 13l367 963h355l367 -962l83 -14v-189h-468v172l60 16l-41 119h-358l-41 -119l60 -16v-172h-465zM572 518h213l-92 271l-12 35h-6l-10 -34zM299 1249v26l257 226h247l254 -229v-23h-251l-128 128l-133 -128h-246zM880 1510l110 225h265l2 -6l-201 -219h-168
h-8z" />
    <glyph glyph-name="uni1EAD.sc" horiz-adv-x="1359" 
d="M54 0v189l81 13l367 963h355l367 -962l83 -14v-189h-468v172l60 16l-41 119h-358l-41 -119l60 -16v-172h-465zM572 518h213l-92 271l-12 35h-6l-10 -34zM301 1289v26l257 245h245l254 -248v-23h-248l-130 143l-134 -143h-244zM514 -412v260h330v-260h-330z" />
    <glyph glyph-name="uni1EA7.sc" horiz-adv-x="1359" 
d="M54 0v189l81 13l367 963h355l367 -962l83 -14v-189h-468v172l60 16l-41 119h-358l-41 -119l60 -16v-172h-465zM572 518h213l-92 271l-12 35h-6l-10 -34zM1059 1249h-247l-133 128l-128 -128h-250v23l254 229h246l258 -226v-26zM477 1510h-7h-168l-201 219l2 6h265z" />
    <glyph glyph-name="uni1EA9.sc" horiz-adv-x="1359" 
d="M54 0v189l81 13l367 963h355l367 -962l83 -14v-189h-468v172l60 16l-41 119h-358l-41 -119l60 -16v-172h-465zM572 518h213l-92 271l-12 35h-6l-10 -34zM300 1249v26l257 226h247l254 -229v-23h-251l-128 128l-133 -128h-246zM914 1456l-19 115q66 3 95.5 14.5t29.5 37.5
q0 30 -32.5 42t-91.5 12l7 120q168 0 257 -41.5t89 -115.5q0 -55 -39.5 -85.5t-99.5 -38.5l-1 -60h-195z" />
    <glyph glyph-name="uni1EAB.sc" horiz-adv-x="1359" 
d="M54 0v189l81 13l367 963h355l367 -962l83 -14v-189h-468v172l60 16l-41 119h-358l-41 -119l60 -16v-172h-465zM572 518h213l-92 271l-12 35h-6l-10 -34zM467 1548l-151 42q0 63 30 116t80 85.5t107 32.5q46 0 93.5 -22t91 -43.5t76.5 -21.5q39 0 61 29t22 70l151 -43
q-1 -64 -31 -117.5t-79.5 -85t-108.5 -31.5q-49 0 -96.5 22t-89 44t-74.5 22q-39 0 -60.5 -29.5t-21.5 -69.5zM300 1249v26l257 226h247l254 -229v-23h-251l-128 128l-133 -128h-246z" />
    <glyph glyph-name="adieresis.sc" horiz-adv-x="1359" 
d="M54 0v189l81 13l367 963h355l367 -962l83 -14v-189h-468v172l60 16l-41 119h-358l-41 -119l60 -16v-172h-465zM572 518h213l-92 271l-12 35h-6l-10 -34zM758 1299v261h303v-261h-303zM298 1299v261h303v-261h-303z" />
    <glyph glyph-name="uni1EA1.sc" horiz-adv-x="1359" 
d="M54 0v189l81 13l367 963h355l367 -962l83 -14v-189h-468v172l60 16l-41 119h-358l-41 -119l60 -16v-172h-465zM572 518h213l-92 271l-12 35h-6l-10 -34zM514 -412v260h330v-260h-330z" />
    <glyph glyph-name="agrave.sc" horiz-adv-x="1359" 
d="M54 0v189l81 13l367 963h355l367 -962l83 -14v-189h-468v172l60 16l-41 119h-358l-41 -119l60 -16v-172h-465zM572 518h213l-92 271l-12 35h-6l-10 -34zM869 1287h-7h-252l-278 267l2 6h332z" />
    <glyph glyph-name="uni1EA3.sc" horiz-adv-x="1359" 
d="M54 0v189l81 13l367 963h355l367 -962l83 -14v-189h-468v172l60 16l-41 119h-358l-41 -119l60 -16v-172h-465zM572 518h213l-92 271l-12 35h-6l-10 -34zM533 1255l-19 131q72 2 103.5 17t31.5 47q0 35 -36 50t-101 15l7 140q197 0 301 -51.5t104 -143.5
q0 -63 -43.5 -98.5t-105.5 -44.5l-1 -62h-241z" />
    <glyph glyph-name="amacron.sc" horiz-adv-x="1359" 
d="M54 0v189l81 13l367 963h355l367 -962l83 -14v-189h-468v172l60 16l-41 119h-358l-41 -119l60 -16v-172h-465zM572 518h213l-92 271l-12 35h-6l-10 -34zM311 1300v186h734v-186h-734z" />
    <glyph glyph-name="aogonek.sc" horiz-adv-x="1359" 
d="M54 0v189l81 13l367 963h355l367 -962l83 -14v-189h-468v172l60 16l-41 119h-358l-41 -119l60 -16v-172h-465zM572 518h213l-92 271l-12 35h-6l-10 -34zM1198 -422q-115 0 -188 58.5t-73 162.5q0 73 52 144.5t176 117.5l142 -61q-74 -43 -105 -81t-31 -80q0 -36 20 -54
t64 -18q23 0 42.5 4t36.5 10l35 -163q-33 -17 -74 -28.5t-97 -11.5z" />
    <glyph glyph-name="aring.sc" horiz-adv-x="1359" 
d="M54 0v189l81 13l367 963h355l367 -962l83 -14v-189h-468v172l60 16l-41 119h-358l-41 -119l60 -16v-172h-465zM572 518h213l-92 271l-12 35h-6l-10 -34zM680 1229q-103 0 -172.5 62t-69.5 158t70 160.5t172 64.5q101 0 170 -65t69 -160q0 -96 -69 -158t-170 -62z
M680 1354q42 0 66 26t24 69q0 44 -24 70.5t-66 26.5q-40 0 -67 -26.5t-27 -70.5q0 -43 26.5 -69t67.5 -26z" />
    <glyph glyph-name="aringacute.sc" horiz-adv-x="1359" 
d="M54 0v189l81 13l367 963h355l367 -962l83 -14v-189h-468v172l60 16l-41 119h-358l-41 -119l60 -16v-172h-465zM572 518h213l-92 271l-12 35h-6l-10 -34zM680 1042q-102 0 -170.5 60.5t-68.5 153.5q0 92 69 155t170 63q100 0 168 -63t68 -155q0 -93 -68 -153.5t-168 -60.5
zM680 1167q40 0 63.5 24.5t23.5 64.5q0 41 -23 66t-64 25q-39 0 -65 -25t-26 -66q0 -40 25.5 -64.5t65.5 -24.5zM573 1529l127 206h269l2 -6l-206 -200h-185h-7z" />
    <glyph glyph-name="uni1E01.sc" horiz-adv-x="1359" 
d="M54 0v189l81 13l367 963h355l367 -962l83 -14v-189h-468v172l60 16l-41 119h-358l-41 -119l60 -16v-172h-465zM572 518h213l-92 271l-12 35h-6l-10 -34zM681 -526q-103 0 -172.5 62t-69.5 158t70 160.5t172 64.5q101 0 170 -65t69 -160q0 -96 -69 -158t-170 -62z
M681 -401q42 0 66 26t24 69q0 44 -24 70.5t-66 26.5q-40 0 -67 -26.5t-27 -70.5q0 -43 26.5 -69t67.5 -26z" />
    <glyph glyph-name="atilde.sc" horiz-adv-x="1359" 
d="M54 0v189l81 13l367 963h355l367 -962l83 -14v-189h-468v172l60 16l-41 119h-358l-41 -119l60 -16v-172h-465zM572 518h213l-92 271l-12 35h-6l-10 -34zM461 1277l-165 44q0 69 33 127.5t86 93.5t115 35q49 0 101.5 -23.5t99.5 -47.5t80 -25q41 2 64 32t23 76l164 -46
q0 -70 -32.5 -128t-86 -92.5t-116.5 -34.5q-53 0 -105 24t-97 48t-79 24q-42 0 -63.5 -31.5t-21.5 -75.5z" />
    <glyph glyph-name="ae.sc" horiz-adv-x="1836" 
d="M54 0v184l121 18l536 963h956v-334h-235l-10 87h-242l12 -203h403v-247h-393l12 -222h263l9 87h235v-333h-951v184l126 26l-3 69h-315l-48 -82l73 -13v-184h-549zM691 511h191l-17 311l-4 -1l-7 -13z" />
    <glyph glyph-name="aeacute.sc" horiz-adv-x="1836" 
d="M54 0v184l121 18l536 963h956v-334h-235l-10 87h-242l12 -203h403v-247h-393l12 -222h263l9 87h235v-333h-951v184l126 26l-3 69h-315l-48 -82l73 -13v-184h-549zM691 511h191l-17 311l-4 -1l-7 -13zM804 1353l203 273h332l2 -6l-277 -267h-253h-7z" />
    <glyph glyph-name="b.sc" horiz-adv-x="1249" 
d="M46 0v189l154 31v724l-154 31v190h154h484q217 0 338 -81t121 -235q0 -87 -48 -151.5t-157 -102.5q132 -24 198.5 -93.5t66.5 -182.5q0 -155 -115.5 -237t-334.5 -82h-707zM519 242h234q64 0 98 29t34 93t-34 93.5t-98 29.5h-234v-245zM519 687h161q145 -2 145 119
q0 58 -35 84.5t-106 26.5h-165v-230z" />
    <glyph glyph-name="c.sc" horiz-adv-x="1181" 
d="M642 -17q-112 0 -214 37.5t-182 111t-126.5 181t-46.5 247.5v44q0 169 72.5 299t199 204.5t289.5 74.5q132 0 247 -33t204 -113v-316h-230l-33 170q-35 24 -72 39t-87 15q-73 0 -135 -39.5t-99 -114.5t-37 -184v-46q0 -100 37 -176t99 -119t135 -43q37 0 79 9t79 24
l32 157h232v-307q-53 -48 -164.5 -85t-278.5 -37z" />
    <glyph glyph-name="cacute.sc" horiz-adv-x="1181" 
d="M642 -17q-112 0 -214 37.5t-182 111t-126.5 181t-46.5 247.5v44q0 169 72.5 299t199 204.5t289.5 74.5q132 0 247 -33t204 -113v-316h-230l-33 170q-35 24 -72 39t-87 15q-73 0 -135 -39.5t-99 -114.5t-37 -184v-46q0 -100 37 -176t99 -119t135 -43q37 0 79 9t79 24
l32 157h232v-307q-53 -48 -164.5 -85t-278.5 -37zM410 1287l203 273h332l2 -6l-277 -267h-253h-7z" />
    <glyph glyph-name="ccaron.sc" horiz-adv-x="1181" 
d="M642 -17q-112 0 -214 37.5t-182 111t-126.5 181t-46.5 247.5v44q0 169 72.5 299t199 204.5t289.5 74.5q132 0 247 -33t204 -113v-316h-230l-33 170q-35 24 -72 39t-87 15q-73 0 -135 -39.5t-99 -114.5t-37 -184v-46q0 -100 37 -176t99 -119t135 -43q37 0 79 9t79 24
l32 157h232v-307q-53 -48 -164.5 -85t-278.5 -37zM979 1560v-26l-257 -245h-245l-254 248v23h248l129 -143l135 143h244z" />
    <glyph glyph-name="ccedilla.sc" horiz-adv-x="1181" 
d="M642 -17q-112 0 -214 37.5t-182 111t-126.5 181t-46.5 247.5v44q0 169 72.5 299t199 204.5t289.5 74.5q132 0 247 -33t204 -113v-316h-230l-33 170q-35 24 -72 39t-87 15q-73 0 -135 -39.5t-99 -114.5t-37 -184v-46q0 -100 37 -176t99 -119t135 -43q37 0 79 9t79 24
l32 157h232v-307q-53 -48 -164.5 -85t-278.5 -37zM473 -466l-7 174q57 0 90 18.5t33 56.5q0 42 -35 58.5t-107 19.5l32 153h238l-12 -69q67 -11 112.5 -50.5t45.5 -116.5q0 -111 -101.5 -177.5t-288.5 -66.5z" />
    <glyph glyph-name="ccircumflex.sc" horiz-adv-x="1181" 
d="M642 -17q-112 0 -214 37.5t-182 111t-126.5 181t-46.5 247.5v44q0 169 72.5 299t199 204.5t289.5 74.5q132 0 247 -33t204 -113v-316h-230l-33 170q-35 24 -72 39t-87 15q-73 0 -135 -39.5t-99 -114.5t-37 -184v-46q0 -100 37 -176t99 -119t135 -43q37 0 79 9t79 24
l32 157h232v-307q-53 -48 -164.5 -85t-278.5 -37zM223 1289v26l257 245h245l254 -248v-23h-248l-130 143l-134 -143h-244z" />
    <glyph glyph-name="cdotaccent.sc" horiz-adv-x="1181" 
d="M642 -17q-112 0 -214 37.5t-182 111t-126.5 181t-46.5 247.5v44q0 169 72.5 299t199 204.5t289.5 74.5q132 0 247 -33t204 -113v-316h-230l-33 170q-35 24 -72 39t-87 15q-73 0 -135 -39.5t-99 -114.5t-37 -184v-46q0 -100 37 -176t99 -119t135 -43q37 0 79 9t79 24
l32 157h232v-307q-53 -48 -164.5 -85t-278.5 -37zM435 1299v261h330v-261h-330z" />
    <glyph glyph-name="d.sc" horiz-adv-x="1300" 
d="M79 0v189l156 35v715l-156 36v190h156h456q158 0 281.5 -72.5t194 -200t70.5 -293.5v-44q0 -163 -70.5 -289t-194 -196t-281.5 -70h-612zM554 241h137q67 0 118 40.5t79.5 111.5t28.5 162v45q0 94 -28.5 167t-79.5 114.5t-118 41.5h-137v-682z" />
    <glyph glyph-name="dcaron.sc" horiz-adv-x="1300" 
d="M79 0v189l156 35v715l-156 36v190h156h456q158 0 281.5 -72.5t194 -200t70.5 -293.5v-44q0 -163 -70.5 -289t-194 -196t-281.5 -70h-612zM554 241h137q67 0 118 40.5t79.5 111.5t28.5 162v45q0 94 -28.5 167t-79.5 114.5t-118 41.5h-137v-682zM1025 1560v-26l-257 -245
h-245l-254 248v23h248l129 -143l135 143h244z" />
    <glyph glyph-name="dcroat.sc" horiz-adv-x="1300" 
d="M79 0v189l156 35v715l-156 36v190h156h456q158 0 281.5 -72.5t194 -200t70.5 -293.5v-44q0 -163 -70.5 -289t-194 -196t-281.5 -70h-612zM554 241h137q67 0 118 40.5t79.5 111.5t28.5 162v45q0 94 -28.5 167t-79.5 114.5t-118 41.5h-137v-682zM81 513v155h676v-155h-676z
" />
    <glyph glyph-name="eth.sc" horiz-adv-x="1300" 
d="M79 0v189l156 35v715l-156 36v190h156h456q158 0 281.5 -72.5t194 -200t70.5 -293.5v-44q0 -163 -70.5 -289t-194 -196t-281.5 -70h-612zM554 241h137q67 0 118 40.5t79.5 111.5t28.5 162v45q0 94 -28.5 167t-79.5 114.5t-118 41.5h-137v-682zM81 513v155h676v-155h-676z
" />
    <glyph glyph-name="e.sc" horiz-adv-x="1210" 
d="M77 0v189l155 31v724l-155 31v190h1017v-366h-240l-10 123h-294v-236h455v-194h-455v-250h296l9 123h239v-365h-1017z" />
    <glyph glyph-name="eacute.sc" horiz-adv-x="1210" 
d="M77 0v189l155 31v724l-155 31v190h1017v-366h-240l-10 123h-294v-236h455v-194h-455v-250h296l9 123h239v-365h-1017zM414 1287l203 273h332l2 -6l-277 -267h-253h-7z" />
    <glyph glyph-name="ebreve.sc" horiz-adv-x="1210" 
d="M77 0v189l155 31v724l-155 31v190h1017v-366h-240l-10 123h-294v-236h455v-194h-455v-250h296l9 123h239v-365h-1017zM606 1261q-166 0 -265 82t-93 211l2 6h212q0 -54 34.5 -90t109.5 -36q73 0 107 35t34 91h214l2 -6q3 -129 -94 -211t-263 -82z" />
    <glyph glyph-name="ecaron.sc" horiz-adv-x="1210" 
d="M77 0v189l155 31v724l-155 31v190h1017v-366h-240l-10 123h-294v-236h455v-194h-455v-250h296l9 123h239v-365h-1017zM983 1560v-26l-257 -245h-245l-254 248v23h248l129 -143l135 143h244z" />
    <glyph glyph-name="ecircumflex.sc" horiz-adv-x="1210" 
d="M77 0v189l155 31v724l-155 31v190h1017v-366h-240l-10 123h-294v-236h455v-194h-455v-250h296l9 123h239v-365h-1017zM227 1289v26l257 245h245l254 -248v-23h-248l-130 143l-134 -143h-244z" />
    <glyph glyph-name="uni1EBF.sc" horiz-adv-x="1210" 
d="M77 0v189l155 31v724l-155 31v190h1017v-366h-240l-10 123h-294v-236h455v-194h-455v-250h296l9 123h239v-365h-1017zM225 1249v26l257 226h247l254 -229v-23h-251l-128 128l-133 -128h-246zM806 1510l110 225h265l2 -6l-201 -219h-168h-8z" />
    <glyph glyph-name="uni1EC7.sc" horiz-adv-x="1210" 
d="M77 0v189l155 31v724l-155 31v190h1017v-366h-240l-10 123h-294v-236h455v-194h-455v-250h296l9 123h239v-365h-1017zM227 1289v26l257 245h245l254 -248v-23h-248l-130 143l-134 -143h-244zM439 -412v260h330v-260h-330z" />
    <glyph glyph-name="uni1EC1.sc" horiz-adv-x="1210" 
d="M77 0v189l155 31v724l-155 31v190h1017v-366h-240l-10 123h-294v-236h455v-194h-455v-250h296l9 123h239v-365h-1017zM985 1249h-247l-133 128l-128 -128h-250v23l254 229h246l258 -226v-26zM403 1510h-7h-168l-201 219l2 6h265z" />
    <glyph glyph-name="uni1EC3.sc" horiz-adv-x="1210" 
d="M77 0v189l155 31v724l-155 31v190h1017v-366h-240l-10 123h-294v-236h455v-194h-455v-250h296l9 123h239v-365h-1017zM226 1249v26l257 226h247l254 -229v-23h-251l-128 128l-133 -128h-246zM840 1456l-19 115q66 3 95.5 14.5t29.5 37.5q0 30 -32.5 42t-91.5 12l7 120
q168 0 257 -41.5t89 -115.5q0 -55 -39.5 -85.5t-99.5 -38.5l-1 -60h-195z" />
    <glyph glyph-name="uni1EC5.sc" horiz-adv-x="1210" 
d="M77 0v189l155 31v724l-155 31v190h1017v-366h-240l-10 123h-294v-236h455v-194h-455v-250h296l9 123h239v-365h-1017zM393 1548l-151 42q0 63 30 116t80 85.5t107 32.5q46 0 93.5 -22t91 -43.5t76.5 -21.5q39 0 61 29t22 70l151 -43q-1 -64 -31 -117.5t-79.5 -85
t-108.5 -31.5q-49 0 -96.5 22t-89 44t-74.5 22q-39 0 -60.5 -29.5t-21.5 -69.5zM226 1249v26l257 226h247l254 -229v-23h-251l-128 128l-133 -128h-246z" />
    <glyph glyph-name="edieresis.sc" horiz-adv-x="1210" 
d="M77 0v189l155 31v724l-155 31v190h1017v-366h-240l-10 123h-294v-236h455v-194h-455v-250h296l9 123h239v-365h-1017zM684 1299v261h303v-261h-303zM224 1299v261h303v-261h-303z" />
    <glyph glyph-name="edotaccent.sc" horiz-adv-x="1210" 
d="M77 0v189l155 31v724l-155 31v190h1017v-366h-240l-10 123h-294v-236h455v-194h-455v-250h296l9 123h239v-365h-1017zM439 1299v261h330v-261h-330z" />
    <glyph glyph-name="uni1EB9.sc" horiz-adv-x="1210" 
d="M77 0v189l155 31v724l-155 31v190h1017v-366h-240l-10 123h-294v-236h455v-194h-455v-250h296l9 123h239v-365h-1017zM439 -412v260h330v-260h-330z" />
    <glyph glyph-name="egrave.sc" horiz-adv-x="1210" 
d="M77 0v189l155 31v724l-155 31v190h1017v-366h-240l-10 123h-294v-236h455v-194h-455v-250h296l9 123h239v-365h-1017zM795 1287h-7h-252l-278 267l2 6h332z" />
    <glyph glyph-name="uni1EBB.sc" horiz-adv-x="1210" 
d="M77 0v189l155 31v724l-155 31v190h1017v-366h-240l-10 123h-294v-236h455v-194h-455v-250h296l9 123h239v-365h-1017zM459 1255l-19 131q72 2 103.5 17t31.5 47q0 35 -36 50t-101 15l7 140q197 0 301 -51.5t104 -143.5q0 -63 -43.5 -98.5t-105.5 -44.5l-1 -62h-241z" />
    <glyph glyph-name="emacron.sc" horiz-adv-x="1210" 
d="M77 0v189l155 31v724l-155 31v190h1017v-366h-240l-10 123h-294v-236h455v-194h-455v-250h296l9 123h239v-365h-1017zM238 1300v186h734v-186h-734z" />
    <glyph glyph-name="eogonek.sc" horiz-adv-x="1210" 
d="M77 0v189l155 31v724l-155 31v190h1017v-366h-240l-10 123h-294v-236h455v-194h-455v-250h296l9 123h239v-365h-1017zM985 -422q-115 0 -188 58.5t-73 162.5q0 73 52 144.5t176 117.5l142 -61q-74 -43 -105 -81t-31 -80q0 -36 20 -54t64 -18q23 0 42.5 4t36.5 10l35 -163
q-33 -17 -74 -28.5t-97 -11.5z" />
    <glyph glyph-name="uni1EBD.sc" horiz-adv-x="1210" 
d="M77 0v189l155 31v724l-155 31v190h1017v-366h-240l-10 123h-294v-236h455v-194h-455v-250h296l9 123h239v-365h-1017zM387 1277l-165 44q0 69 33 127.5t86 93.5t115 35q49 0 101.5 -23.5t99.5 -47.5t80 -25q41 2 64 32t23 76l164 -46q0 -70 -32.5 -128t-86 -92.5
t-116.5 -34.5q-53 0 -105 24t-97 48t-79 24q-42 0 -63.5 -31.5t-21.5 -75.5z" />
    <glyph glyph-name="f.sc" horiz-adv-x="1177" 
d="M77 0v189l155 31v724l-155 31v190h1044v-383h-239l-11 140h-321v-253h482v-228h-482v-221l154 -31v-189h-627z" />
    <glyph glyph-name="g.sc" horiz-adv-x="1221" 
d="M650 -17q-174 0 -303.5 70.5t-202 196.5t-72.5 290v42q0 177 70 312t197 211.5t298 76.5q130 0 253 -37.5t212 -118.5v-284h-230l-39 143q-28 27 -73.5 42.5t-103.5 15.5q-89 0 -148 -45.5t-88 -126t-29 -187.5v-44q0 -98 31 -169.5t92.5 -111t150.5 -39.5q42 0 83 7
t72 18v146l-174 22v216h490v-523q-104 -64 -228 -93.5t-258 -29.5z" />
    <glyph glyph-name="gbreve.sc" horiz-adv-x="1221" 
d="M650 -17q-174 0 -303.5 70.5t-202 196.5t-72.5 290v42q0 177 70 312t197 211.5t298 76.5q130 0 253 -37.5t212 -118.5v-284h-230l-39 143q-28 27 -73.5 42.5t-103.5 15.5q-89 0 -148 -45.5t-88 -126t-29 -187.5v-44q0 -98 31 -169.5t92.5 -111t150.5 -39.5q42 0 83 7
t72 18v146l-174 22v216h490v-523q-104 -64 -228 -93.5t-258 -29.5zM614 1261q-166 0 -265 82t-93 211l2 6h212q0 -54 34.5 -90t109.5 -36q73 0 107 35t34 91h214l2 -6q3 -129 -94 -211t-263 -82z" />
    <glyph glyph-name="gcircumflex.sc" horiz-adv-x="1221" 
d="M650 -17q-174 0 -303.5 70.5t-202 196.5t-72.5 290v42q0 177 70 312t197 211.5t298 76.5q130 0 253 -37.5t212 -118.5v-284h-230l-39 143q-28 27 -73.5 42.5t-103.5 15.5q-89 0 -148 -45.5t-88 -126t-29 -187.5v-44q0 -98 31 -169.5t92.5 -111t150.5 -39.5q42 0 83 7
t72 18v146l-174 22v216h490v-523q-104 -64 -228 -93.5t-258 -29.5zM236 1289v26l257 245h245l254 -248v-23h-248l-130 143l-134 -143h-244z" />
    <glyph glyph-name="uni0123.sc" horiz-adv-x="1221" 
d="M650 -17q-174 0 -303.5 70.5t-202 196.5t-72.5 290v42q0 177 70 312t197 211.5t298 76.5q130 0 253 -37.5t212 -118.5v-284h-230l-39 143q-28 27 -73.5 42.5t-103.5 15.5q-89 0 -148 -45.5t-88 -126t-29 -187.5v-44q0 -98 31 -169.5t92.5 -111t150.5 -39.5q42 0 83 7
t72 18v146l-174 22v216h490v-523q-104 -64 -228 -93.5t-258 -29.5zM573 -531l-149 94q31 49 47.5 98t16.5 124v96h265v-79q0 -96 -52 -185t-128 -148z" />
    <glyph glyph-name="gdotaccent.sc" horiz-adv-x="1221" 
d="M650 -17q-174 0 -303.5 70.5t-202 196.5t-72.5 290v42q0 177 70 312t197 211.5t298 76.5q130 0 253 -37.5t212 -118.5v-284h-230l-39 143q-28 27 -73.5 42.5t-103.5 15.5q-89 0 -148 -45.5t-88 -126t-29 -187.5v-44q0 -98 31 -169.5t92.5 -111t150.5 -39.5q42 0 83 7
t72 18v146l-174 22v216h490v-523q-104 -64 -228 -93.5t-258 -29.5zM448 1299v261h330v-261h-330z" />
    <glyph glyph-name="h.sc" horiz-adv-x="1543" 
d="M79 0v189l155 31v724l-155 31v190h627v-190l-154 -31v-250h438v250l-154 31v190h154h320h154v-190l-154 -31v-724l154 -31v-189h-628v189l154 31v229h-438v-229l154 -31v-189h-627z" />
    <glyph glyph-name="hbar.sc" horiz-adv-x="1543" 
d="M79 0v189l155 31v724l-155 31v190h627v-190l-154 -31v-250h438v250l-154 31v190h154h320h154v-190l-154 -31v-724l154 -31v-189h-628v189l154 31v229h-438v-229l154 -31v-189h-627zM79 757v135h1384v-135h-1384z" />
    <glyph glyph-name="hcircumflex.sc" horiz-adv-x="1543" 
d="M79 0v189l155 31v724l-155 31v190h627v-190l-154 -31v-250h438v250l-154 31v190h154h320h154v-190l-154 -31v-724l154 -31v-189h-628v189l154 31v229h-438v-229l154 -31v-189h-627zM393 1289v26l257 245h245l254 -248v-23h-248l-130 143l-134 -143h-244z" />
    <glyph glyph-name="i.sc" horiz-adv-x="758" 
d="M77 0v189l155 31v724l-155 31v190h628v-190l-153 -31v-724l153 -31v-189h-628z" />
    <glyph glyph-name="iacute.sc" horiz-adv-x="758" 
d="M77 0v189l155 31v724l-155 31v190h628v-190l-153 -31v-724l153 -31v-189h-628zM189 1287l203 273h332l2 -6l-277 -267h-253h-7z" />
    <glyph glyph-name="ibreve.sc" horiz-adv-x="758" 
d="M77 0v189l155 31v724l-155 31v190h628v-190l-153 -31v-724l153 -31v-189h-628zM380 1261q-166 0 -265 82t-93 211l2 6h212q0 -54 34.5 -90t109.5 -36q73 0 107 35t34 91h214l2 -6q3 -129 -94 -211t-263 -82z" />
    <glyph glyph-name="icircumflex.sc" horiz-adv-x="758" 
d="M77 0v189l155 31v724l-155 31v190h628v-190l-153 -31v-724l153 -31v-189h-628zM1 1289v26l257 245h245l254 -248v-23h-248l-130 143l-134 -143h-244z" />
    <glyph glyph-name="idieresis.sc" horiz-adv-x="758" 
d="M77 0v189l155 31v724l-155 31v190h628v-190l-153 -31v-724l153 -31v-189h-628zM458 1299v261h303v-261h-303zM-2 1299v261h303v-261h-303z" />
    <glyph glyph-name="i.loclTRK.sc" horiz-adv-x="758" 
d="M77 0v189l155 31v724l-155 31v190h628v-190l-153 -31v-724l153 -31v-189h-628zM214 1299v261h330v-261h-330z" />
    <glyph glyph-name="uni1ECB.sc" horiz-adv-x="758" 
d="M77 0v189l155 31v724l-155 31v190h628v-190l-153 -31v-724l153 -31v-189h-628zM214 -412v260h330v-260h-330z" />
    <glyph glyph-name="igrave.sc" horiz-adv-x="758" 
d="M77 0v189l155 31v724l-155 31v190h628v-190l-153 -31v-724l153 -31v-189h-628zM569 1287h-7h-252l-278 267l2 6h332z" />
    <glyph glyph-name="uni1EC9.sc" horiz-adv-x="758" 
d="M77 0v189l155 31v724l-155 31v190h628v-190l-153 -31v-724l153 -31v-189h-628zM233 1255l-19 131q72 2 103.5 17t31.5 47q0 35 -36 50t-101 15l7 140q197 0 301 -51.5t104 -143.5q0 -63 -43.5 -98.5t-105.5 -44.5l-1 -62h-241z" />
    <glyph glyph-name="imacron.sc" horiz-adv-x="758" 
d="M77 0v189l155 31v724l-155 31v190h628v-190l-153 -31v-724l153 -31v-189h-628zM12 1300v186h734v-186h-734z" />
    <glyph glyph-name="iogonek.sc" horiz-adv-x="758" 
d="M77 0v189l155 31v724l-155 31v190h628v-190l-153 -31v-724l153 -31v-189h-628zM596 -422q-115 0 -188 58.5t-73 162.5q0 73 52 144.5t176 117.5l142 -61q-74 -43 -105 -81t-31 -80q0 -36 20 -54t64 -18q23 0 42.5 4t36.5 10l35 -163q-33 -17 -74 -28.5t-97 -11.5z" />
    <glyph glyph-name="itilde.sc" horiz-adv-x="758" 
d="M77 0v189l155 31v724l-155 31v190h628v-190l-153 -31v-724l153 -31v-189h-628zM161 1277l-165 44q0 69 33 127.5t86 93.5t115 35q49 0 101.5 -23.5t99.5 -47.5t80 -25q41 2 64 32t23 76l164 -46q0 -70 -32.5 -128t-86 -92.5t-116.5 -34.5q-53 0 -105 24t-97 48t-79 24
q-42 0 -63.5 -31.5t-21.5 -75.5z" />
    <glyph glyph-name="j.sc" horiz-adv-x="1129" 
d="M503 -19q-215 0 -342.5 100.5t-121.5 288.5l2 6h312q0 -76 43 -114t103 -38q63 0 102 45t39 123v552l-155 31v190h627v-190l-153 -31v-552q0 -125 -58 -217.5t-161 -143t-237 -50.5z" />
    <glyph glyph-name="jcircumflex.sc" horiz-adv-x="1129" 
d="M503 -19q-215 0 -342.5 100.5t-121.5 288.5l2 6h312q0 -76 43 -114t103 -38q63 0 102 45t39 123v552l-155 31v190h627v-190l-153 -31v-552q0 -125 -58 -217.5t-161 -143t-237 -50.5zM421 1289v26l257 245h245l254 -248v-23h-248l-130 143l-134 -143h-244z" />
    <glyph glyph-name="k.sc" horiz-adv-x="1302" 
d="M480 311l-113 202l431 434l12 14l-70 14v190h524v-190l-114 -32zM40 0v189l156 35v715l-156 36v190h589v-190l-114 -36v-715l114 -35v-189h-589zM776 0v189l57 12l-9 11l-193 329l217 207l338 -531l104 -28v-189h-514z" />
    <glyph glyph-name="uni0137.sc" horiz-adv-x="1302" 
d="M480 311l-113 202l431 434l12 14l-70 14v190h524v-190l-114 -32zM40 0v189l156 35v715l-156 36v190h589v-190l-114 -36v-715l114 -35v-189h-589zM776 0v189l57 12l-9 11l-193 329l217 207l338 -531l104 -28v-189h-514zM615 -531l-149 94q31 49 47.5 98t16.5 124v96h265
v-79q0 -96 -52 -185t-128 -148z" />
    <glyph glyph-name="l.sc" horiz-adv-x="1120" 
d="M77 0v189l155 31v724l-155 31v190h155h318h154v-190l-154 -31v-702h273l10 140h238v-382h-994z" />
    <glyph glyph-name="lacute.sc" horiz-adv-x="1120" 
d="M77 0v189l155 31v724l-155 31v190h155h318h154v-190l-154 -31v-702h273l10 140h238v-382h-994zM329 1287l203 273h332l2 -6l-277 -267h-253h-7z" />
    <glyph glyph-name="lcaron.sc" horiz-adv-x="1120" 
d="M77 0v189l155 31v724l-155 31v190h155h318h154v-190l-154 -31v-702h273l10 140h238v-382h-994zM963 754l-149 94q31 48 47.5 97.5t16.5 123.5v96h265v-79q0 -96 -52 -185t-128 -147z" />
    <glyph glyph-name="uni013C.sc" horiz-adv-x="1120" 
d="M77 0v189l155 31v724l-155 31v190h155h318h154v-190l-154 -31v-702h273l10 140h238v-382h-994zM522 -531l-149 94q31 49 47.5 98t16.5 124v96h265v-79q0 -96 -52 -185t-128 -148z" />
    <glyph glyph-name="ldot.sc" horiz-adv-x="1120" 
d="M77 0v189l155 31v724l-155 31v190h155h318h154v-190l-154 -31v-702h273l10 140h238v-382h-994zM726 533v272h319v-272h-319z" />
    <glyph glyph-name="lslash.sc" horiz-adv-x="1120" 
d="M77 0v189l155 31v724l-155 31v190h155h318h154v-190l-154 -31v-702h273l10 140h238v-382h-994zM77 386v204l696 220v-204z" />
    <glyph glyph-name="m.sc" horiz-adv-x="1759" 
d="M77 0v189l155 31v724l-155 31v190h155h432l217 -785h6l219 785h433h155v-190l-155 -31v-724l155 -31v-189h-578v189l105 31v475l-6 1l-227 -696h-214l-218 671l-6 -1v-450l105 -31v-189h-578z" />
    <glyph glyph-name="uni1E3F.sc" horiz-adv-x="1759" 
d="M77 0v189l155 31v724l-155 31v190h155h432l217 -785h6l219 785h433h155v-190l-155 -31v-724l155 -31v-189h-578v189l105 31v475l-6 1l-227 -696h-214l-218 671l-6 -1v-450l105 -31v-189h-578zM690 1287l203 273h332l2 -6l-277 -267h-253h-7z" />
    <glyph glyph-name="n.sc" horiz-adv-x="1484" 
d="M77 0v189l155 31v724l-155 31v190h155h318l414 -674l6 2v451l-152 31v190h473h153v-190l-153 -31v-944h-321l-414 678l-6 -2v-456l154 -31v-189h-627z" />
    <glyph glyph-name="nacute.sc" horiz-adv-x="1484" 
d="M77 0v189l155 31v724l-155 31v190h155h318l414 -674l6 2v451l-152 31v190h473h153v-190l-153 -31v-944h-321l-414 678l-6 -2v-456l154 -31v-189h-627zM552 1287l203 273h332l2 -6l-277 -267h-253h-7z" />
    <glyph glyph-name="ncaron.sc" horiz-adv-x="1484" 
d="M77 0v189l155 31v724l-155 31v190h155h318l414 -674l6 2v451l-152 31v190h473h153v-190l-153 -31v-944h-321l-414 678l-6 -2v-456l154 -31v-189h-627zM1120 1560v-26l-257 -245h-245l-254 248v23h248l129 -143l135 143h244z" />
    <glyph glyph-name="uni0146.sc" horiz-adv-x="1484" 
d="M77 0v189l155 31v724l-155 31v190h155h318l414 -674l6 2v451l-152 31v190h473h153v-190l-153 -31v-944h-321l-414 678l-6 -2v-456l154 -31v-189h-627zM704 -531l-149 94q31 49 47.5 98t16.5 124v96h265v-79q0 -96 -52 -185t-128 -148z" />
    <glyph glyph-name="ntilde.sc" horiz-adv-x="1484" 
d="M77 0v189l155 31v724l-155 31v190h155h318l414 -674l6 2v451l-152 31v190h473h153v-190l-153 -31v-944h-321l-414 678l-6 -2v-456l154 -31v-189h-627zM525 1277l-165 44q0 69 33 127.5t86 93.5t115 35q49 0 101.5 -23.5t99.5 -47.5t80 -25q41 2 64 32t23 76l164 -46
q0 -70 -32.5 -128t-86 -92.5t-116.5 -34.5q-53 0 -105 24t-97 48t-79 24q-42 0 -63.5 -31.5t-21.5 -75.5z" />
    <glyph glyph-name="eng.sc" horiz-adv-x="1482" 
d="M909 -437q-43 0 -78.5 3.5t-74.5 12.5l14 244q26 -6 46.5 -9.5t46.5 -3.5q61 0 93 43t32 121v26l-450 697l-5 1v-485l135 -29v-184h-591v184l136 29v738l-136 29v185h456l449 -696h6v482l-135 29v185h589v-185l-134 -29v-991q-4 -190 -109.5 -293.5t-289.5 -103.5z" />
    <glyph glyph-name="o.sc" horiz-adv-x="1247" 
d="M628 -19q-166 0 -291.5 73t-195.5 203t-70 300v50q0 170 70 299t195.5 202t291.5 73q165 0 290.5 -73t196 -202t70.5 -299v-50q0 -170 -70 -300.5t-195 -203t-292 -72.5zM628 224q76 0 129 45t80.5 120.5t27.5 167.5v51q0 92 -28 167t-81 119t-128 44q-78 0 -131 -43.5
t-80 -118t-27 -168.5v-51q0 -92 27.5 -167.5t81 -120.5t129.5 -45z" />
    <glyph glyph-name="oacute.sc" horiz-adv-x="1247" 
d="M628 -19q-166 0 -291.5 73t-195.5 203t-70 300v50q0 170 70 299t195.5 202t291.5 73q165 0 290.5 -73t196 -202t70.5 -299v-50q0 -170 -70 -300.5t-195 -203t-292 -72.5zM628 224q76 0 129 45t80.5 120.5t27.5 167.5v51q0 92 -28 167t-81 119t-128 44q-78 0 -131 -43.5
t-80 -118t-27 -168.5v-51q0 -92 27.5 -167.5t81 -120.5t129.5 -45zM438 1287l203 273h332l2 -6l-277 -267h-253h-7z" />
    <glyph glyph-name="obreve.sc" horiz-adv-x="1247" 
d="M628 -19q-166 0 -291.5 73t-195.5 203t-70 300v50q0 170 70 299t195.5 202t291.5 73q165 0 290.5 -73t196 -202t70.5 -299v-50q0 -170 -70 -300.5t-195 -203t-292 -72.5zM628 224q76 0 129 45t80.5 120.5t27.5 167.5v51q0 92 -28 167t-81 119t-128 44q-78 0 -131 -43.5
t-80 -118t-27 -168.5v-51q0 -92 27.5 -167.5t81 -120.5t129.5 -45zM629 1261q-166 0 -265 82t-93 211l2 6h212q0 -54 34.5 -90t109.5 -36q73 0 107 35t34 91h214l2 -6q3 -129 -94 -211t-263 -82z" />
    <glyph glyph-name="ocircumflex.sc" horiz-adv-x="1247" 
d="M628 -19q-166 0 -291.5 73t-195.5 203t-70 300v50q0 170 70 299t195.5 202t291.5 73q165 0 290.5 -73t196 -202t70.5 -299v-50q0 -170 -70 -300.5t-195 -203t-292 -72.5zM628 224q76 0 129 45t80.5 120.5t27.5 167.5v51q0 92 -28 167t-81 119t-128 44q-78 0 -131 -43.5
t-80 -118t-27 -168.5v-51q0 -92 27.5 -167.5t81 -120.5t129.5 -45zM250 1289v26l257 245h245l254 -248v-23h-248l-130 143l-134 -143h-244z" />
    <glyph glyph-name="uni1ED1.sc" horiz-adv-x="1247" 
d="M628 -19q-166 0 -291.5 73t-195.5 203t-70 300v50q0 170 70 299t195.5 202t291.5 73q165 0 290.5 -73t196 -202t70.5 -299v-50q0 -170 -70 -300.5t-195 -203t-292 -72.5zM628 224q76 0 129 45t80.5 120.5t27.5 167.5v51q0 92 -28 167t-81 119t-128 44q-78 0 -131 -43.5
t-80 -118t-27 -168.5v-51q0 -92 27.5 -167.5t81 -120.5t129.5 -45zM249 1249v26l257 226h247l254 -229v-23h-251l-128 128l-133 -128h-246zM830 1510l110 225h265l2 -6l-201 -219h-168h-8z" />
    <glyph glyph-name="uni1ED9.sc" horiz-adv-x="1247" 
d="M628 -19q-166 0 -291.5 73t-195.5 203t-70 300v50q0 170 70 299t195.5 202t291.5 73q165 0 290.5 -73t196 -202t70.5 -299v-50q0 -170 -70 -300.5t-195 -203t-292 -72.5zM628 224q76 0 129 45t80.5 120.5t27.5 167.5v51q0 92 -28 167t-81 119t-128 44q-78 0 -131 -43.5
t-80 -118t-27 -168.5v-51q0 -92 27.5 -167.5t81 -120.5t129.5 -45zM250 1289v26l257 245h245l254 -248v-23h-248l-130 143l-134 -143h-244zM463 -412v260h330v-260h-330z" />
    <glyph glyph-name="uni1ED3.sc" horiz-adv-x="1247" 
d="M628 -19q-166 0 -291.5 73t-195.5 203t-70 300v50q0 170 70 299t195.5 202t291.5 73q165 0 290.5 -73t196 -202t70.5 -299v-50q0 -170 -70 -300.5t-195 -203t-292 -72.5zM628 224q76 0 129 45t80.5 120.5t27.5 167.5v51q0 92 -28 167t-81 119t-128 44q-78 0 -131 -43.5
t-80 -118t-27 -168.5v-51q0 -92 27.5 -167.5t81 -120.5t129.5 -45zM1008 1249h-247l-133 128l-128 -128h-250v23l254 229h246l258 -226v-26zM426 1510h-7h-168l-201 219l2 6h265z" />
    <glyph glyph-name="uni1ED5.sc" horiz-adv-x="1247" 
d="M628 -19q-166 0 -291.5 73t-195.5 203t-70 300v50q0 170 70 299t195.5 202t291.5 73q165 0 290.5 -73t196 -202t70.5 -299v-50q0 -170 -70 -300.5t-195 -203t-292 -72.5zM628 224q76 0 129 45t80.5 120.5t27.5 167.5v51q0 92 -28 167t-81 119t-128 44q-78 0 -131 -43.5
t-80 -118t-27 -168.5v-51q0 -92 27.5 -167.5t81 -120.5t129.5 -45zM249 1249v26l257 226h247l254 -229v-23h-251l-128 128l-133 -128h-246zM863 1456l-19 115q66 3 95.5 14.5t29.5 37.5q0 30 -32.5 42t-91.5 12l7 120q168 0 257 -41.5t89 -115.5q0 -55 -39.5 -85.5
t-99.5 -38.5l-1 -60h-195z" />
    <glyph glyph-name="uni1ED7.sc" horiz-adv-x="1247" 
d="M628 -19q-166 0 -291.5 73t-195.5 203t-70 300v50q0 170 70 299t195.5 202t291.5 73q165 0 290.5 -73t196 -202t70.5 -299v-50q0 -170 -70 -300.5t-195 -203t-292 -72.5zM628 224q76 0 129 45t80.5 120.5t27.5 167.5v51q0 92 -28 167t-81 119t-128 44q-78 0 -131 -43.5
t-80 -118t-27 -168.5v-51q0 -92 27.5 -167.5t81 -120.5t129.5 -45zM416 1548l-151 42q0 63 30 116t80 85.5t107 32.5q46 0 93.5 -22t91 -43.5t76.5 -21.5q39 0 61 29t22 70l151 -43q-1 -64 -31 -117.5t-79.5 -85t-108.5 -31.5q-49 0 -96.5 22t-89 44t-74.5 22
q-39 0 -60.5 -29.5t-21.5 -69.5zM249 1249v26l257 226h247l254 -229v-23h-251l-128 128l-133 -128h-246z" />
    <glyph glyph-name="odieresis.sc" horiz-adv-x="1247" 
d="M628 -19q-166 0 -291.5 73t-195.5 203t-70 300v50q0 170 70 299t195.5 202t291.5 73q165 0 290.5 -73t196 -202t70.5 -299v-50q0 -170 -70 -300.5t-195 -203t-292 -72.5zM628 224q76 0 129 45t80.5 120.5t27.5 167.5v51q0 92 -28 167t-81 119t-128 44q-78 0 -131 -43.5
t-80 -118t-27 -168.5v-51q0 -92 27.5 -167.5t81 -120.5t129.5 -45zM707 1299v261h303v-261h-303zM247 1299v261h303v-261h-303z" />
    <glyph glyph-name="uni1ECD.sc" horiz-adv-x="1247" 
d="M628 -19q-166 0 -291.5 73t-195.5 203t-70 300v50q0 170 70 299t195.5 202t291.5 73q165 0 290.5 -73t196 -202t70.5 -299v-50q0 -170 -70 -300.5t-195 -203t-292 -72.5zM628 224q76 0 129 45t80.5 120.5t27.5 167.5v51q0 92 -28 167t-81 119t-128 44q-78 0 -131 -43.5
t-80 -118t-27 -168.5v-51q0 -92 27.5 -167.5t81 -120.5t129.5 -45zM463 -412v260h330v-260h-330z" />
    <glyph glyph-name="ograve.sc" horiz-adv-x="1247" 
d="M628 -19q-166 0 -291.5 73t-195.5 203t-70 300v50q0 170 70 299t195.5 202t291.5 73q165 0 290.5 -73t196 -202t70.5 -299v-50q0 -170 -70 -300.5t-195 -203t-292 -72.5zM628 224q76 0 129 45t80.5 120.5t27.5 167.5v51q0 92 -28 167t-81 119t-128 44q-78 0 -131 -43.5
t-80 -118t-27 -168.5v-51q0 -92 27.5 -167.5t81 -120.5t129.5 -45zM818 1287h-7h-252l-278 267l2 6h332z" />
    <glyph glyph-name="uni1ECF.sc" horiz-adv-x="1247" 
d="M628 -19q-166 0 -291.5 73t-195.5 203t-70 300v50q0 170 70 299t195.5 202t291.5 73q165 0 290.5 -73t196 -202t70.5 -299v-50q0 -170 -70 -300.5t-195 -203t-292 -72.5zM628 224q76 0 129 45t80.5 120.5t27.5 167.5v51q0 92 -28 167t-81 119t-128 44q-78 0 -131 -43.5
t-80 -118t-27 -168.5v-51q0 -92 27.5 -167.5t81 -120.5t129.5 -45zM482 1255l-19 131q72 2 103.5 17t31.5 47q0 35 -36 50t-101 15l7 140q197 0 301 -51.5t104 -143.5q0 -63 -43.5 -98.5t-105.5 -44.5l-1 -62h-241z" />
    <glyph glyph-name="ohorn.sc" horiz-adv-x="1341" 
d="M628 -19q-166 0 -291.5 73t-195.5 203t-70 300v50q0 170 70 299t195.5 202t291.5 73q165 0 290.5 -73t196 -202t70.5 -299v-50q0 -170 -70 -300.5t-195 -203t-292 -72.5zM628 224q76 0 129 45t80.5 120.5t27.5 167.5v51q0 92 -28 167t-81 119t-128 44q-78 0 -131 -43.5
t-80 -118t-27 -168.5v-51q0 -92 27.5 -167.5t81 -120.5t129.5 -45zM985 800v146q56 0 86.5 30.5t42.5 83t12 120.5h210q0 -111 -35.5 -197t-112.5 -134.5t-203 -48.5z" />
    <glyph glyph-name="uni1EDB.sc" horiz-adv-x="1213" 
d="M584 -21q-164 0 -280.5 69.5t-178 194t-61.5 288.5v20q0 162 61.5 286t177.5 194.5t279 70.5t279 -70t177.5 -194t61.5 -287v-20q0 -163 -61.5 -287.5t-177 -194.5t-277.5 -70zM584 223q70 0 113.5 38t64 107t20.5 163v20q0 91 -20.5 159.5t-64.5 107.5t-115 39
q-70 0 -114 -39t-64 -107.5t-20 -159.5v-20q0 -94 20 -163.5t64 -107t116 -37.5zM858 800v146q56 0 86.5 30.5t42.5 83t12 120.5h210q0 -111 -35.5 -197t-112.5 -134.5t-203 -48.5zM392 1287l203 273h332l2 -6l-277 -267h-253h-7z" />
    <glyph glyph-name="uni1EE3.sc" horiz-adv-x="1213" 
d="M584 -21q-164 0 -280.5 69.5t-178 194t-61.5 288.5v20q0 162 61.5 286t177.5 194.5t279 70.5t279 -70t177.5 -194t61.5 -287v-20q0 -163 -61.5 -287.5t-177 -194.5t-277.5 -70zM584 223q70 0 113.5 38t64 107t20.5 163v20q0 91 -20.5 159.5t-64.5 107.5t-115 39
q-70 0 -114 -39t-64 -107.5t-20 -159.5v-20q0 -94 20 -163.5t64 -107t116 -37.5zM858 800v146q56 0 86.5 30.5t42.5 83t12 120.5h210q0 -111 -35.5 -197t-112.5 -134.5t-203 -48.5zM417 -412v260h330v-260h-330z" />
    <glyph glyph-name="uni1EDD.sc" horiz-adv-x="1213" 
d="M584 -21q-164 0 -280.5 69.5t-178 194t-61.5 288.5v20q0 162 61.5 286t177.5 194.5t279 70.5t279 -70t177.5 -194t61.5 -287v-20q0 -163 -61.5 -287.5t-177 -194.5t-277.5 -70zM584 223q70 0 113.5 38t64 107t20.5 163v20q0 91 -20.5 159.5t-64.5 107.5t-115 39
q-70 0 -114 -39t-64 -107.5t-20 -159.5v-20q0 -94 20 -163.5t64 -107t116 -37.5zM858 800v146q56 0 86.5 30.5t42.5 83t12 120.5h210q0 -111 -35.5 -197t-112.5 -134.5t-203 -48.5zM773 1287h-7h-252l-278 267l2 6h332z" />
    <glyph glyph-name="uni1EDF.sc" horiz-adv-x="1213" 
d="M584 -21q-164 0 -280.5 69.5t-178 194t-61.5 288.5v20q0 162 61.5 286t177.5 194.5t279 70.5t279 -70t177.5 -194t61.5 -287v-20q0 -163 -61.5 -287.5t-177 -194.5t-277.5 -70zM584 223q70 0 113.5 38t64 107t20.5 163v20q0 91 -20.5 159.5t-64.5 107.5t-115 39
q-70 0 -114 -39t-64 -107.5t-20 -159.5v-20q0 -94 20 -163.5t64 -107t116 -37.5zM858 800v146q56 0 86.5 30.5t42.5 83t12 120.5h210q0 -111 -35.5 -197t-112.5 -134.5t-203 -48.5zM437 1255l-19 131q72 2 103.5 17t31.5 47q0 35 -36 50t-101 15l7 140q197 0 301 -51.5
t104 -143.5q0 -63 -43.5 -98.5t-105.5 -44.5l-1 -62h-241z" />
    <glyph glyph-name="uni1EE1.sc" horiz-adv-x="1213" 
d="M584 -21q-164 0 -280.5 69.5t-178 194t-61.5 288.5v20q0 162 61.5 286t177.5 194.5t279 70.5t279 -70t177.5 -194t61.5 -287v-20q0 -163 -61.5 -287.5t-177 -194.5t-277.5 -70zM584 223q70 0 113.5 38t64 107t20.5 163v20q0 91 -20.5 159.5t-64.5 107.5t-115 39
q-70 0 -114 -39t-64 -107.5t-20 -159.5v-20q0 -94 20 -163.5t64 -107t116 -37.5zM858 800v146q56 0 86.5 30.5t42.5 83t12 120.5h210q0 -111 -35.5 -197t-112.5 -134.5t-203 -48.5zM365 1277l-165 44q0 69 33 127.5t86 93.5t115 35q49 0 101.5 -23.5t99.5 -47.5t80 -25
q41 2 64 32t23 76l164 -46q0 -70 -32.5 -128t-86 -92.5t-116.5 -34.5q-53 0 -105 24t-97 48t-79 24q-42 0 -63.5 -31.5t-21.5 -75.5z" />
    <glyph glyph-name="ohungarumlaut.sc" horiz-adv-x="1247" 
d="M628 -19q-166 0 -291.5 73t-195.5 203t-70 300v50q0 170 70 299t195.5 202t291.5 73q165 0 290.5 -73t196 -202t70.5 -299v-50q0 -170 -70 -300.5t-195 -203t-292 -72.5zM628 224q76 0 129 45t80.5 120.5t27.5 167.5v51q0 92 -28 167t-81 119t-128 44q-78 0 -131 -43.5
t-80 -118t-27 -168.5v-51q0 -92 27.5 -167.5t81 -120.5t129.5 -45zM617 1287l-2 5l240 268h291l1 -6l-291 -267h-239zM256 1287h-7l204 273h274l2 -5l-240 -268h-233z" />
    <glyph glyph-name="omacron.sc" horiz-adv-x="1247" 
d="M628 -19q-166 0 -291.5 73t-195.5 203t-70 300v50q0 170 70 299t195.5 202t291.5 73q165 0 290.5 -73t196 -202t70.5 -299v-50q0 -170 -70 -300.5t-195 -203t-292 -72.5zM628 224q76 0 129 45t80.5 120.5t27.5 167.5v51q0 92 -28 167t-81 119t-128 44q-78 0 -131 -43.5
t-80 -118t-27 -168.5v-51q0 -92 27.5 -167.5t81 -120.5t129.5 -45zM261 1300v186h734v-186h-734z" />
    <glyph glyph-name="oslash.sc" horiz-adv-x="1247" 
d="M628 -19q-166 0 -291.5 73t-195.5 203t-70 300v50q0 170 70 299t195.5 202t291.5 73q165 0 290.5 -73t196 -202t70.5 -299v-50q0 -170 -70 -300.5t-195 -203t-292 -72.5zM628 224q76 0 129 45t80.5 120.5t27.5 167.5v51q0 92 -28 167t-81 119t-128 44q-78 0 -131 -43.5
t-80 -118t-27 -168.5v-51q0 -92 27.5 -167.5t81 -120.5t129.5 -45zM200 -120l685 1405h171l-684 -1405h-172z" />
    <glyph glyph-name="oslashacute.sc" horiz-adv-x="1247" 
d="M628 -19q-166 0 -291.5 73t-195.5 203t-70 300v50q0 170 70 299t195.5 202t291.5 73q165 0 290.5 -73t196 -202t70.5 -299v-50q0 -170 -70 -300.5t-195 -203t-292 -72.5zM628 224q76 0 129 45t80.5 120.5t27.5 167.5v51q0 92 -28 167t-81 119t-128 44q-78 0 -131 -43.5
t-80 -118t-27 -168.5v-51q0 -92 27.5 -167.5t81 -120.5t129.5 -45zM200 -120l685 1405h171l-684 -1405h-172zM438 1287l203 273h332l2 -6l-277 -267h-253h-7z" />
    <glyph glyph-name="otilde.sc" horiz-adv-x="1247" 
d="M628 -19q-166 0 -291.5 73t-195.5 203t-70 300v50q0 170 70 299t195.5 202t291.5 73q165 0 290.5 -73t196 -202t70.5 -299v-50q0 -170 -70 -300.5t-195 -203t-292 -72.5zM628 224q76 0 129 45t80.5 120.5t27.5 167.5v51q0 92 -28 167t-81 119t-128 44q-78 0 -131 -43.5
t-80 -118t-27 -168.5v-51q0 -92 27.5 -167.5t81 -120.5t129.5 -45zM410 1277l-165 44q0 69 33 127.5t86 93.5t115 35q49 0 101.5 -23.5t99.5 -47.5t80 -25q41 2 64 32t23 76l164 -46q0 -70 -32.5 -128t-86 -92.5t-116.5 -34.5q-53 0 -105 24t-97 48t-79 24
q-42 0 -63.5 -31.5t-21.5 -75.5z" />
    <glyph glyph-name="oe.sc" horiz-adv-x="1789" 
d="M670 -17q-192 0 -325.5 78t-203.5 212t-70 301v19q0 165 69.5 298.5t203 212t325.5 78.5q144 0 271 -38l2 -300q-57 46 -127 71t-146 25q-99 0 -160 -43t-89.5 -120.5t-28.5 -181.5v-21q0 -105 28.5 -183.5t90.5 -122t160 -43.5q73 0 142.5 22t129.5 61l-2 -286
q-63 -19 -131 -29t-139 -10zM749 0l61 192v781l-61 192h923v-346h-233l-10 104h-299v-209h361v-244h-361v-229h298l10 104h230v-345h-919z" />
    <glyph glyph-name="p.sc" horiz-adv-x="1279" 
d="M79 0v189l155 31v724l-155 31v190h155h513q153 0 267 -52.5t177.5 -144.5t63.5 -211q0 -120 -63.5 -212t-177.5 -144t-267 -52h-195v-129l154 -31v-189h-627zM552 593h195q86 0 138 47.5t52 114.5q0 68 -52 117.5t-138 49.5h-195v-329z" />
    <glyph glyph-name="thorn.sc" horiz-adv-x="1161" 
d="M79 0v189l155 31v724l-155 31v190h627v-190l-154 -31v-724l154 -31v-189h-627zM469 898h267q201 0 310.5 -85.5t109.5 -227.5q0 -143 -109.5 -228t-310.5 -85h-267v216h267q50 0 80.5 28t30.5 67q0 41 -30.5 70.5t-80.5 29.5h-267v215z" />
    <glyph glyph-name="q.sc" horiz-adv-x="1237" 
d="M980 -227l-284 213q-19 -2 -38 -3.5t-38 -1.5q-162 0 -286 73.5t-193.5 204t-69.5 302.5v42q0 172 69 302t193 203t287 73t286.5 -73t193 -203t69.5 -302v-42q0 -152 -59.5 -272.5t-165.5 -194.5l246 -158zM620 223q109 0 169 93t60 245v43q0 151 -60.5 243t-168.5 92
q-113 0 -171.5 -91t-58.5 -244v-43q0 -153 59.5 -245.5t170.5 -92.5z" />
    <glyph glyph-name="r.sc" horiz-adv-x="1213" 
d="M41 0v189l148 35v715l-148 36v190h148h472q146 0 253.5 -46.5t166.5 -130t59 -197.5q0 -113 -62 -198.5t-170 -133.5t-249 -48h-150v-187l142 -35v-189h-610zM838 0l-215 537l314 1l151 -325l90 -24v-189h-340zM506 647h152q73 0 115 38t42 98q0 63 -42.5 101.5
t-114.5 38.5h-152v-276z" />
    <glyph glyph-name="racute.sc" horiz-adv-x="1213" 
d="M41 0v189l148 35v715l-148 36v190h148h472q146 0 253.5 -46.5t166.5 -130t59 -197.5q0 -113 -62 -198.5t-170 -133.5t-249 -48h-150v-187l142 -35v-189h-610zM838 0l-215 537l314 1l151 -325l90 -24v-189h-340zM506 647h152q73 0 115 38t42 98q0 63 -42.5 101.5
t-114.5 38.5h-152v-276zM417 1287l203 273h332l2 -6l-277 -267h-253h-7z" />
    <glyph glyph-name="rcaron.sc" horiz-adv-x="1213" 
d="M41 0v189l148 35v715l-148 36v190h148h472q146 0 253.5 -46.5t166.5 -130t59 -197.5q0 -113 -62 -198.5t-170 -133.5t-249 -48h-150v-187l142 -35v-189h-610zM838 0l-215 537l314 1l151 -325l90 -24v-189h-340zM506 647h152q73 0 115 38t42 98q0 63 -42.5 101.5
t-114.5 38.5h-152v-276zM985 1560v-26l-257 -245h-245l-254 248v23h248l129 -143l135 143h244z" />
    <glyph glyph-name="uni0157.sc" horiz-adv-x="1213" 
d="M41 0v189l148 35v715l-148 36v190h148h472q146 0 253.5 -46.5t166.5 -130t59 -197.5q0 -113 -62 -198.5t-170 -133.5t-249 -48h-150v-187l142 -35v-189h-610zM838 0l-215 537l314 1l151 -325l90 -24v-189h-340zM506 647h152q73 0 115 38t42 98q0 63 -42.5 101.5
t-114.5 38.5h-152v-276zM569 -531l-149 94q31 49 47.5 98t16.5 124v96h265v-79q0 -96 -52 -185t-128 -148z" />
    <glyph glyph-name="s.sc" horiz-adv-x="1121" 
d="M576 -17q-153 0 -269 27t-231 103v320h245l31 -152q38 -30 97.5 -46t124.5 -16q82 0 117 28t35 74q0 51 -39 78.5t-132 50.5q-165 40 -269 90.5t-153 120.5t-49 170q0 110 60 187.5t164.5 119.5t238.5 44q154 3 268.5 -26t208.5 -98v-297h-236l-41 155q-29 10 -74.5 18
t-97.5 8q-79 0 -125 -25.5t-46 -70.5q0 -32 24 -55.5t73 -43.5t125 -41q209 -57 315.5 -143t106.5 -238q0 -111 -58.5 -187.5t-164.5 -115.5t-249 -39z" />
    <glyph glyph-name="sacute.sc" horiz-adv-x="1121" 
d="M576 -17q-153 0 -269 27t-231 103v320h245l31 -152q38 -30 97.5 -46t124.5 -16q82 0 117 28t35 74q0 51 -39 78.5t-132 50.5q-165 40 -269 90.5t-153 120.5t-49 170q0 110 60 187.5t164.5 119.5t238.5 44q154 3 268.5 -26t208.5 -98v-297h-236l-41 155q-29 10 -74.5 18
t-97.5 8q-79 0 -125 -25.5t-46 -70.5q0 -32 24 -55.5t73 -43.5t125 -41q209 -57 315.5 -143t106.5 -238q0 -111 -58.5 -187.5t-164.5 -115.5t-249 -39zM370 1287l203 273h332l2 -6l-277 -267h-253h-7z" />
    <glyph glyph-name="scaron.sc" horiz-adv-x="1121" 
d="M576 -17q-153 0 -269 27t-231 103v320h245l31 -152q38 -30 97.5 -46t124.5 -16q82 0 117 28t35 74q0 51 -39 78.5t-132 50.5q-165 40 -269 90.5t-153 120.5t-49 170q0 110 60 187.5t164.5 119.5t238.5 44q154 3 268.5 -26t208.5 -98v-297h-236l-41 155q-29 10 -74.5 18
t-97.5 8q-79 0 -125 -25.5t-46 -70.5q0 -32 24 -55.5t73 -43.5t125 -41q209 -57 315.5 -143t106.5 -238q0 -111 -58.5 -187.5t-164.5 -115.5t-249 -39zM938 1560v-26l-257 -245h-245l-254 248v23h248l129 -143l135 143h244z" />
    <glyph glyph-name="scedilla.sc" horiz-adv-x="1121" 
d="M576 -17q-153 0 -269 27t-231 103v320h245l31 -152q38 -30 97.5 -46t124.5 -16q82 0 117 28t35 74q0 51 -39 78.5t-132 50.5q-165 40 -269 90.5t-153 120.5t-49 170q0 110 60 187.5t164.5 119.5t238.5 44q154 3 268.5 -26t208.5 -98v-297h-236l-41 155q-29 10 -74.5 18
t-97.5 8q-79 0 -125 -25.5t-46 -70.5q0 -32 24 -55.5t73 -43.5t125 -41q209 -57 315.5 -143t106.5 -238q0 -111 -58.5 -187.5t-164.5 -115.5t-249 -39zM435 -466l-7 174q57 0 90 18.5t33 56.5q0 42 -35 58.5t-107 19.5l32 153h238l-12 -69q67 -11 112.5 -50.5t45.5 -116.5
q0 -111 -101.5 -177.5t-288.5 -66.5z" />
    <glyph glyph-name="scircumflex.sc" horiz-adv-x="1121" 
d="M576 -17q-153 0 -269 27t-231 103v320h245l31 -152q38 -30 97.5 -46t124.5 -16q82 0 117 28t35 74q0 51 -39 78.5t-132 50.5q-165 40 -269 90.5t-153 120.5t-49 170q0 110 60 187.5t164.5 119.5t238.5 44q154 3 268.5 -26t208.5 -98v-297h-236l-41 155q-29 10 -74.5 18
t-97.5 8q-79 0 -125 -25.5t-46 -70.5q0 -32 24 -55.5t73 -43.5t125 -41q209 -57 315.5 -143t106.5 -238q0 -111 -58.5 -187.5t-164.5 -115.5t-249 -39zM182 1289v26l257 245h245l254 -248v-23h-248l-130 143l-134 -143h-244z" />
    <glyph glyph-name="uni0219.sc" horiz-adv-x="1121" 
d="M576 -17q-153 0 -269 27t-231 103v320h245l31 -152q38 -30 97.5 -46t124.5 -16q82 0 117 28t35 74q0 51 -39 78.5t-132 50.5q-165 40 -269 90.5t-153 120.5t-49 170q0 110 60 187.5t164.5 119.5t238.5 44q154 3 268.5 -26t208.5 -98v-297h-236l-41 155q-29 10 -74.5 18
t-97.5 8q-79 0 -125 -25.5t-46 -70.5q0 -32 24 -55.5t73 -43.5t125 -41q209 -57 315.5 -143t106.5 -238q0 -111 -58.5 -187.5t-164.5 -115.5t-249 -39zM522 -531l-149 94q31 49 47.5 98t16.5 124v96h265v-79q0 -96 -52 -185t-128 -148z" />
    <glyph glyph-name="germandbls.sc" horiz-adv-x="2242" 
d="M576 -17q-153 0 -269 27t-231 103v320h245l31 -152q38 -30 97.5 -46t124.5 -16q82 0 117 28t35 74q0 51 -39 78.5t-132 50.5q-165 40 -269 90.5t-153 120.5t-49 170q0 110 60 187.5t164.5 119.5t238.5 44q154 3 268.5 -26t208.5 -98v-297h-236l-41 155q-29 10 -74.5 18
t-97.5 8q-79 0 -125 -25.5t-46 -70.5q0 -32 24 -55.5t73 -43.5t125 -41q209 -57 315.5 -143t106.5 -238q0 -111 -58.5 -187.5t-164.5 -115.5t-249 -39zM1697 -17q-153 0 -269 27t-231 103v320h245l31 -152q38 -30 97.5 -46t124.5 -16q82 0 117 28t35 74q0 51 -39 78.5
t-132 50.5q-165 40 -269 90.5t-153 120.5t-49 170q0 110 60 187.5t164.5 119.5t238.5 44q154 3 268.5 -26t208.5 -98v-297h-236l-41 155q-29 10 -74.5 18t-97.5 8q-79 0 -125 -25.5t-46 -70.5q0 -32 24 -55.5t73 -43.5t125 -41q209 -57 315.5 -143t106.5 -238
q0 -111 -58.5 -187.5t-164.5 -115.5t-249 -39z" />
    </font>
</defs>
</svg>
