<?xml version="1.0" standalone="no"?>
<!DOCTYPE svg PUBLIC "-//W3C//DTD SVG 1.1//EN" "http://www.w3.org/Graphics/SVG/1.1/DTD/svg11.dtd" >
<svg xmlns="http://www.w3.org/2000/svg" xmlns:xlink="http://www.w3.org/1999/xlink" version="1.1">
<metadata>
Created by FontForge 20170924 at Mon Apr 30 14:03:25 2012
 By Glenn,,,
Copyright 2002, 2003, 2005, 2008, 2009, 2010, 2012 GNU Freefont contributors.
</metadata>
<defs>
<font id="FreeSerifBoldItalic" horiz-adv-x="0" >
  <font-face 
    font-family="FreeSerif"
    font-weight="700"
    font-style="italic"
    font-stretch="normal"
    units-per-em="1000"
    panose-1="2 2 8 3 6 5 5 9 3 4"
    ascent="800"
    descent="-200"
    x-height="449"
    cap-height="669"
    bbox="-787 -300 1732 900"
    underline-thickness="50"
    underline-position="-150"
    slope="-15.3"
    unicode-range="U+0020-10147"
  />
<missing-glyph horiz-adv-x="600" 
d="M335 615q0 -5 14.5 -27.5t14.5 -40.5q0 -24 -18 -41.5t-43 -17.5q-26 0 -43.5 19.5t-17.5 47.5q0 56 49.5 92.5t125.5 36.5q79 0 127.5 -40t48.5 -105q0 -47 -29.5 -87t-96.5 -83l-66 -43q-29 -19 -45 -42.5t-37 -75.5l-29 7q6 76 71 159l41 51q64 80 64 148
q0 37 -18.5 58.5t-50.5 21.5q-24 0 -43 -12t-19 -26zM277 135q30 0 51.5 -22t21.5 -52q0 -31 -21.5 -52.5t-53.5 -21.5q-31 0 -52 21.5t-21 52.5t21.5 52.5t53.5 21.5zM742 774l-182 -855h-554l182 855h554zM666 728h-422l-165 -773h422z" />
    <glyph glyph-name="IJ" unicode="IJ" horiz-adv-x="834" 
d="M213 607q0 19 -13 24.5t-60 12.5v25h298v-25q-39 -5 -55.5 -19t-26.5 -53l-114 -420q-18 -68 -18 -87q0 -21 15 -29.5t57 -10.5v-25h-296v25q37 5 53.5 19t26.5 53l123 449q10 36 10 61zM680 607q0 16 -14.5 23.5t-58.5 13.5v25h297v-25q-38 -5 -54.5 -19t-26.5 -53
l-128 -479q-26 -98 -77 -145t-132 -47q-66 0 -109 28.5t-43 72.5q0 29 18.5 49.5t45.5 20.5q26 0 44.5 -18.5t18.5 -44.5q0 -17 -11.5 -31t-11.5 -23q0 -18 27 -18t44 33t46 144l114 432q11 41 11 61z" />
    <glyph glyph-name="ij" unicode="ij" horiz-adv-x="516" 
d="M492 685q28 0 48.5 -20t20.5 -48t-20 -47.5t-49 -19.5q-28 0 -47 20t-19 49q0 26 20 46t46 20zM222 685q28 0 48.5 -20t20.5 -48t-20 -47.5t-49 -19.5q-28 0 -47 20t-19 49q0 26 20 46t46 20zM180 63q22 0 70 51.5t89.5 128t41.5 133.5q0 19 -8 25.5t-24 6.5
q-14 0 -21 -1v27q131 11 208 28l-114 -438q-60 -231 -208 -231q-41 0 -73.5 19.5t-32.5 57.5q0 21 14.5 37t34.5 16t34.5 -14.5t14.5 -34.5q0 -12 -7.5 -24t-7.5 -14q0 -5 8.5 -8.5t13.5 -3.5q9 0 17.5 5t15.5 15.5t12 20.5t10 25t7.5 24.5t6 23t4.5 17.5l58 223q1 4 3.5 13
t3.5 13q-28 -44 -45 -68.5t-50.5 -64.5t-68.5 -60t-72 -20q-78 0 -78 78q0 39 36.5 157.5t36.5 148.5q0 32 -47 32h-12v27q117 9 202 28q-87 -318 -90 -332q-6 0 -6 -43q0 -24 23 -24z" />
    <glyph glyph-name="Ldot" unicode="L&#xb7;" horiz-adv-x="609" 
d="M213 607q0 19 -13 24.5t-60 12.5v25h317v-25q-50 -3 -70 -17t-31 -55l-129 -478q-5 -18 -5 -32q0 -30 64 -30q125 0 207 58q29 21 49.5 44t45.5 65l24 -5l-59 -194h-553v25q37 5 53.5 19.5t26.5 52.5l123 449q10 36 10 61zM471 343q30 0 51.5 -22t21.5 -52
q0 -31 -21.5 -52.5t-53.5 -21.5q-31 0 -52 21t-21 52q0 32 21.5 53.5t53.5 21.5z" />
    <glyph glyph-name="ldot" unicode="l&#xb7;" horiz-adv-x="434" 
d="M256 141l22 -14q-52 -79 -87.5 -107.5t-81.5 -28.5q-30 0 -48.5 16.5t-18.5 43.5q0 35 34 158l74 264q34 114 34 142q0 29 -34 29q-11 0 -29 -2v27q108 10 209 30l-145 -523q-22 -82 -22 -100q0 -6 4.5 -10.5t10.5 -4.5q24 0 78 80zM376 305q30 0 51.5 -22t21.5 -52
q0 -31 -21.5 -52.5t-53.5 -21.5q-31 0 -52 21t-21 52q0 32 21.5 53.5t53.5 21.5z" />
    <glyph glyph-name="ff" unicode="ff" horiz-adv-x="753" 
d="M571 407q-60 -286 -86 -369q-54 -178 -136 -223q-35 -20 -79 -20q-43 0 -70 21t-27 63q0 18 16.5 33.5t34.5 15.5q20 0 35 -15t15 -34q0 -11 -8 -25.5t-8 -15.5q0 -12 16 -12q17 0 28.5 8t22 30.5t18 50t19 79t22.5 104t30 138.5t40 171h-150l-94 -385
q-22 -88 -75.5 -157.5t-131.5 -69.5q-37 0 -67.5 20t-30.5 55q0 24 12 40.5t35 16.5q22 0 37.5 -13.5t15.5 -35.5q0 -14 -9.5 -24.5t-9.5 -15.5q0 -9 18 -9q13 0 24.5 6.5t20 19t14.5 25.5t11 31.5t8 31t6.5 30.5t4.5 23l92 411h-75l10 42h76q21 62 39 100t48.5 77.5
t75.5 58t106 18.5q75 0 114 -42q47 37 111 37q42 0 70 -20t28 -60q0 -23 -14.5 -38t-37.5 -15q-21 0 -34.5 14.5t-13.5 35.5q0 11 8 25t8 15q0 14 -17 14q-13 0 -25.5 -9.5t-22.5 -26.5t-18 -35.5t-15.5 -43t-12 -41.5t-9.5 -38t-6 -26h92l-9 -42h-90zM507 656q0 17 -25 17
q-31 0 -57 -15t-40.5 -30.5t-30 -52t-20 -51.5t-15.5 -57q-3 -12 -5 -18h149q22 78 41 116q-19 16 -19 40q0 17 11 32.5t11 18.5z" />
    <glyph glyph-name="fi" unicode="fi" horiz-adv-x="623" 
d="M5 -122q0 -13 -9.5 -24t-9.5 -16q0 -9 17 -9q33 0 49.5 30.5t40.5 136.5l92 411h-75l10 42h76q16 46 28 75.5t34.5 67t47.5 59t64.5 37t87.5 15.5q63 0 102.5 -26.5t39.5 -68.5q0 -25 -16 -41t-41 -16t-41.5 16t-16.5 39q0 15 11 31t11 20q0 16 -26 16q-30 0 -53 -11
t-38 -26.5t-30 -49t-23.5 -60t-22.5 -77.5h118q30 0 108 7q2 0 9.5 0.5t18 1.5t19.5 1l-74 -287q-21 -79 -21 -95q0 -6 5 -11t11 -5q22 0 77 79l22 -13q-51 -78 -86.5 -107t-80.5 -29q-33 0 -52 17.5t-19 48.5q0 19 16 81l69 269h-150l-94 -385q-27 -107 -84.5 -167
t-123.5 -60q-42 0 -69.5 22t-27.5 56q0 24 13.5 39t35.5 15t36.5 -14t14.5 -35z" />
    <glyph glyph-name="fl" unicode="fl" horiz-adv-x="619" 
d="M4 -117q0 -11 -8 -24.5t-8 -16.5q0 -12 22 -12q26 0 42 34t41 141l92 402h-74l10 42h74q1 2 7 23.5t9 30t11.5 31.5t15.5 35t19.5 32.5t24.5 32.5t29.5 27t36.5 23t44 14t52 6q24 0 88 -12l13 -3l99 12l-151 -602q-4 -17 -4 -20q0 -7 5 -12t12 -5q26 0 76 75l20 -11
q-50 -78 -84.5 -106.5t-78.5 -28.5q-32 0 -52 16.5t-20 41.5q0 15 5 37l79 321h-147l-79 -326q-69 -286 -223 -286q-43 0 -70 22.5t-27 58.5q0 25 14 39t38 14q21 0 34 -12.5t13 -33.5zM472 607q0 15 10.5 31t10.5 18q0 7 -11 13t-25 6q-31 0 -55.5 -19t-41.5 -56t-27 -70
t-21 -81h151l30 119q-21 16 -21 39z" />
    <glyph glyph-name="ffi" unicode="ffi" horiz-adv-x="891" 
d="M571 407q-60 -286 -86 -369q-54 -178 -136 -223q-35 -20 -79 -20q-43 0 -70 21t-27 63q0 18 16.5 33.5t34.5 15.5q20 0 35 -15t15 -34q0 -11 -8 -25.5t-8 -15.5q0 -12 16 -12q17 0 28.5 8t22 30.5t18 50t19 79t22.5 104t30 138.5t40 171h-150l-94 -385
q-22 -88 -75.5 -157.5t-131.5 -69.5q-37 0 -67.5 20t-30.5 55q0 24 12 40.5t35 16.5q22 0 37.5 -13.5t15.5 -35.5q0 -14 -9.5 -24.5t-9.5 -15.5q0 -9 18 -9q13 0 24.5 6.5t20 19t14.5 25.5t11 31.5t8 31t6.5 30.5t4.5 23l92 411h-75l10 42h76q21 62 39 100t48.5 77.5
t75.5 58t106 18.5q80 0 117 -46q60 46 150 46q50 0 92.5 -24.5t42.5 -70.5q0 -25 -16 -41t-41 -16q-24 0 -41 15.5t-17 38.5q0 17 11 32.5t11 18.5q0 17 -25 17q-17 0 -32.5 -4.5t-27.5 -10t-23.5 -17.5t-19.5 -20.5t-17 -26.5l-13.5 -27t-11.5 -30.5t-9.5 -29t-9 -30.5
t-7.5 -28h122q31 0 87.5 4.5t67.5 5.5l-73 -283q-2 -7 -8.5 -29t-10 -38.5t-3.5 -29.5q0 -6 5 -12t11 -6q24 0 77 79l22 -13q-27 -42 -44 -65t-51.5 -47t-72.5 -24q-33 0 -51.5 17.5t-18.5 49.5q0 13 16 80l69 269h-151zM507 562q-22 16 -22 43q0 17 11 32.5t11 18.5
q0 17 -25 17q-31 0 -57 -15t-40.5 -30.5t-30 -52t-20 -51.5t-15.5 -57q-3 -12 -5 -18h149q27 79 44 113z" />
    <glyph glyph-name="ffl" unicode="ffl" horiz-adv-x="888" 
d="M913 701q-1 -4 -44.5 -172.5t-77 -302.5t-33.5 -148q0 -7 5.5 -11.5t12.5 -4.5q26 0 75 75l20 -11q-19 -29 -24.5 -38t-25 -33.5t-33 -34t-35.5 -19.5t-45 -10q-29 0 -50.5 15.5t-21.5 43.5q0 25 15.5 92.5t41.5 163.5t27 101h-147l-79 -326q-68 -286 -226 -286
q-39 0 -66.5 21.5t-27.5 60.5q0 24 14.5 38t38.5 14q20 0 33 -13t13 -33q0 -12 -8 -24.5t-8 -16.5q0 -12 23 -12q11 0 20.5 7.5t17.5 21.5t14 28t11.5 34.5t8 32.5t6 30.5t4.5 20.5l92 402h-150l-94 -385q-22 -88 -75.5 -157.5t-131.5 -69.5q-37 0 -67.5 20t-30.5 55
q0 24 12 40.5t35 16.5q22 0 37.5 -13.5t15.5 -35.5q0 -13 -9.5 -24t-9.5 -16q0 -9 18 -9q13 0 24.5 6.5t20 19t14.5 25.5t11 31.5t8 31t6.5 30.5t4.5 23l92 411h-75l10 42h76q21 62 39 100t48.5 77.5t75.5 58t106 18.5q75 0 114 -42q55 43 141 43q30 0 94 -15zM762 568
q-21 15 -21 41q0 13 10.5 29t10.5 18q0 9 -12.5 14t-21.5 5q-20 0 -38 -9.5t-30.5 -21.5t-25 -35.5t-19 -38.5t-15 -45t-11 -39.5t-8.5 -36.5h151zM507 656q0 17 -25 17q-31 0 -57 -15t-40.5 -30.5t-30 -52t-20 -51.5t-15.5 -57q-3 -12 -5 -18h150q24 78 42 114
q-21 16 -21 42q0 17 11 32.5t11 18.5z" />
    <glyph glyph-name="thai_yo_u" unicode="&#xe0d;&#xe38;" horiz-adv-x="804" 
d="M336 99q0 -15 -7 -33.5t-21.5 -37.5t-42 -31.5t-63.5 -12.5q-43 0 -79 25t-36 62q0 8 1 15l41 191q8 38 35.5 61t78.5 35q-20 17 -41.5 22.5t-69.5 7.5q34 52 113 91.5t144 39.5q82 0 142.5 -43t60.5 -110q0 -14 -3 -29l-66 -310h48q17 0 31.5 18.5t17.5 35.5l92 431h140
l-96 -451q-7 -31 -29 -53.5t-46 -22.5h-307l72 339q7 32 7 56q0 46 -22.5 62t-63.5 16q-50 -1 -81 -11.5t-66 -40.5q39 -2 70 -17t39 -39q-25 -9 -36 -18.5t-16 -33.5l-35 -161q19 17 40.5 17t37.5 -21t16 -49zM247 36q15 0 24.5 15t12 28t2.5 22q0 25 -20 25
q-21 0 -30.5 -22.5t-9.5 -42.5q0 -25 21 -25zM555 -186q15 0 24 14.5t11.5 27.5t2.5 22q0 26 -20 26q-21 0 -30 -21.5t-9 -41.5q0 -27 21 -27zM492 -165q0 16 5 34t16.5 36.5t33.5 30.5t51 12q47 0 75 -20t28 -55q0 -10 -2 -20l-33 -153h-99l19 86q-19 -13 -40 -13
q-26 0 -40 17t-14 45z" />
    <glyph glyph-name="thai_yo_uu" unicode="&#xe0d;&#xe39;" horiz-adv-x="804" 
d="M336 99q0 -15 -7 -33.5t-21.5 -37.5t-42 -31.5t-63.5 -12.5q-43 0 -79 25t-36 62q0 8 1 15l41 191q8 38 35.5 61t78.5 35q-20 17 -41.5 22.5t-69.5 7.5q34 52 113 91.5t144 39.5q82 0 142.5 -43t60.5 -110q0 -14 -3 -29l-66 -310h48q17 0 31.5 18.5t17.5 35.5l92 431h140
l-96 -451q-7 -31 -29 -53.5t-46 -22.5h-307l72 339q7 32 7 56q0 46 -22.5 62t-63.5 16q-50 -1 -81 -11.5t-66 -40.5q39 -2 70 -17t39 -39q-25 -9 -36 -18.5t-16 -33.5l-35 -161q19 17 40.5 17t37.5 -21t16 -49zM247 36q15 0 24.5 15t12 28t2.5 22q0 25 -20 25
q-21 0 -30.5 -22.5t-9.5 -42.5q0 -25 21 -25zM329 -165q0 16 5 34t16.5 36.5t33.5 30.5t51 12q47 0 75 -20t28 -55q0 -10 -2 -20l-22 -100v-7q0 -10 6.5 -16.5t17.5 -6.5q13 0 23.5 8.5t12.5 21.5l42 194h99l-37 -171q-6 -30 -26 -53t-43 -23h-152q-18 0 -28.5 15.5
t-10.5 38.5q0 11 2 22l3 10q-19 -13 -40 -13q-26 0 -40 17t-14 45zM392 -186q15 0 24 14.5t11.5 27.5t2.5 22q0 26 -20 26q-21 0 -30 -21.5t-9 -41.5q0 -27 21 -27z" />
    <glyph glyph-name="thai_yo_phinthu" unicode="&#xe0d;&#xe3a;" horiz-adv-x="804" 
d="M336 99q0 -15 -7 -33.5t-21.5 -37.5t-42 -31.5t-63.5 -12.5q-43 0 -79 25t-36 62q0 8 1 15l41 191q8 38 35.5 61t78.5 35q-20 17 -41.5 22.5t-69.5 7.5q34 52 113 91.5t144 39.5q82 0 142.5 -43t60.5 -110q0 -14 -3 -29l-66 -310h48q17 0 31.5 18.5t17.5 35.5l92 431h140
l-96 -451q-7 -31 -29 -53.5t-46 -22.5h-307l72 339q7 32 7 56q0 46 -22.5 62t-63.5 16q-50 -1 -81 -11.5t-66 -40.5q39 -2 70 -17t39 -39q-25 -9 -36 -18.5t-16 -33.5l-35 -161q19 17 40.5 17t37.5 -21t16 -49zM247 36q15 0 24.5 15t12 28t2.5 22q0 25 -20 25
q-21 0 -30.5 -22.5t-9.5 -42.5q0 -25 21 -25zM689 -104q0 -31 -24.5 -52t-52.5 -21q-18 0 -33.5 12t-15.5 34q0 30 23.5 53.5t52.5 23.5q21 0 35.5 -14t14.5 -36z" />
    <glyph glyph-name="thai_tho_u" unicode="&#xe10;&#xe38;" horiz-adv-x="484" 
d="M106 191q0 40 29.5 75t72.5 35q29 0 59 -16t51 -50l6 29q3 12 3 21q0 20 -9.5 32.5t-28.5 17.5t-35.5 6.5t-42.5 1.5q-58 0 -109 -14q18 73 81.5 135t124.5 62q29 0 75 -19t60 -20q21 0 30 6.5t28 37.5h50q-9 -18 -19.5 -35t-28.5 -39.5t-43.5 -36.5t-53.5 -14
q-23 0 -65.5 15t-66.5 15q-62 0 -101 -58q49 10 98 10q94 0 143.5 -29t49.5 -82q0 -12 -2 -25l-54 -252h-140q17 81 17 132q0 30 -6.5 53t-12 32.5t-19.5 28.5q2 -15 2 -23q0 -31 -28 -64t-61 -33q-22 0 -38 18t-16 47zM170 166q15 0 25 15t12 28t2 22q0 25 -20 25
t-30 -22.5t-10 -42.5q0 -25 21 -25zM226 -186q15 0 24 14.5t11.5 27.5t2.5 22q0 26 -20 26q-21 0 -30 -21.5t-9 -41.5q0 -27 21 -27zM163 -165q0 16 5 34t16.5 36.5t33.5 30.5t51 12q47 0 75 -20t28 -55q0 -10 -2 -20l-33 -153h-99l19 86q-19 -13 -40 -13q-26 0 -40 17
t-14 45z" />
    <glyph glyph-name="thai_tho_uu" unicode="&#xe10;&#xe39;" horiz-adv-x="484" 
d="M106 191q0 40 29.5 75t72.5 35q29 0 59 -16t51 -50l6 29q3 12 3 21q0 20 -9.5 32.5t-28.5 17.5t-35.5 6.5t-42.5 1.5q-58 0 -109 -14q18 73 81.5 135t124.5 62q29 0 75 -19t60 -20q21 0 30 6.5t28 37.5h50q-9 -18 -19.5 -35t-28.5 -39.5t-43.5 -36.5t-53.5 -14
q-23 0 -65.5 15t-66.5 15q-62 0 -101 -58q49 10 98 10q94 0 143.5 -29t49.5 -82q0 -12 -2 -25l-54 -252h-140q17 81 17 132q0 30 -6.5 53t-12 32.5t-19.5 28.5q2 -15 2 -23q0 -31 -28 -64t-61 -33q-22 0 -38 18t-16 47zM170 166q15 0 25 15t12 28t2 22q0 25 -20 25
t-30 -22.5t-10 -42.5q0 -25 21 -25zM3 -165q0 16 5 34t16.5 36.5t33.5 30.5t51 12q47 0 75 -20t28 -55q0 -10 -2 -20l-22 -100v-7q0 -10 6.5 -16.5t17.5 -6.5q13 0 23.5 8.5t12.5 21.5l42 194h99l-37 -171q-6 -30 -26 -53t-43 -23h-152q-18 0 -28.5 15.5t-10.5 38.5
q0 11 2 22l3 10q-19 -13 -40 -13q-26 0 -40 17t-14 45zM66 -186q15 0 24 14.5t11.5 27.5t2.5 22q0 26 -20 26q-21 0 -30 -21.5t-9 -41.5q0 -27 21 -27z" />
    <glyph glyph-name="thai_tho_phinthu" unicode="&#xe10;&#xe3a;" horiz-adv-x="484" 
d="M106 191q0 40 29.5 75t72.5 35q29 0 59 -16t51 -50l6 29q3 12 3 21q0 20 -9.5 32.5t-28.5 17.5t-35.5 6.5t-42.5 1.5q-58 0 -109 -14q18 73 81.5 135t124.5 62q29 0 75 -19t60 -20q21 0 30 6.5t28 37.5h50q-9 -18 -19.5 -35t-28.5 -39.5t-43.5 -36.5t-53.5 -14
q-23 0 -65.5 15t-66.5 15q-62 0 -101 -58q49 10 98 10q94 0 143.5 -29t49.5 -82q0 -12 -2 -25l-54 -252h-140q17 81 17 132q0 30 -6.5 53t-12 32.5t-19.5 28.5q2 -15 2 -23q0 -31 -28 -64t-61 -33q-22 0 -38 18t-16 47zM170 166q15 0 25 15t12 28t2 22q0 25 -20 25
t-30 -22.5t-10 -42.5q0 -25 21 -25zM370 -104q0 -31 -24.5 -52t-52.5 -21q-18 0 -33.5 12t-15.5 34q0 30 23.5 53.5t52.5 23.5q21 0 35.5 -14t14.5 -36z" />
    <glyph glyph-name="thai_ru_saraaa" unicode="&#xe24;&#xe32;" horiz-adv-x="919" 
d="M807 -224h-141l126 593q8 37 8 56q0 39 -34 39q-52 0 -133 -82l-27 21q42 49 103 90t115 41q16 0 34.5 -7t37 -20.5t30.5 -38.5t12 -57q0 -19 -4 -40zM259 36q15 0 24.5 15t12 28t2.5 22q0 25 -20 25q-21 0 -30.5 -22.5t-9.5 -42.5q0 -25 21 -25zM348 99q0 -15 -7 -33.5
t-21.5 -37.5t-42 -31.5t-63.5 -12.5q-42 0 -77.5 25t-35.5 62q0 7 1 15l41 191q8 39 34.5 61.5t77.5 34.5q-20 17 -41.5 22.5t-69.5 7.5q34 52 113 91.5t144 39.5q82 0 142.5 -43t60.5 -110q0 -14 -3 -29l-123 -576h-140l120 563q7 32 7 56q0 46 -22.5 62t-63.5 16
q-50 -1 -81 -11.5t-66 -40.5q39 -2 70 -17t39 -39q-25 -9 -36 -18.5t-16 -33.5l-35 -161q19 17 40.5 17t37.5 -21t16 -49z" />
    <glyph glyph-name="thai_lu_saraaa" unicode="&#xe26;&#xe32;" horiz-adv-x="965" 
d="M853 -224h-141l126 593q8 37 8 56q0 39 -34 39q-52 0 -133 -82l-27 21q42 49 103 90t115 41q16 0 34.5 -7t37 -20.5t30.5 -38.5t12 -57q0 -19 -4 -40zM132 31q15 0 24.5 15t12 28t2.5 22q0 25 -20 25q-21 0 -30.5 -22.5t-9.5 -42.5q0 -25 21 -25zM59 51q0 42 27.5 80
t65.5 38q18 0 31 -9l25 117q8 38 35.5 61t78.5 35q-19 16 -48.5 21.5t-82.5 8.5q34 52 113 91.5t144 39.5q82 0 142.5 -43t60.5 -110q0 -14 -3 -29l-123 -578h-140l120 565q7 32 7 56q0 46 -22.5 62t-63.5 16q-50 -1 -81 -11.5t-66 -40.5q42 -2 81.5 -17t47.5 -39
q-25 -9 -36 -18.5t-16 -33.5l-46 -214q-10 -49 -51.5 -82.5t-102.5 -33.5q-97 0 -97 68z" />
    <glyph glyph-name="cyrillic_ukrainian_yi_yi_lig" unicode="&#x457;&#x457;" horiz-adv-x="518" 
d="M495 141l22 -14q-53 -79 -87.5 -107.5t-79.5 -28.5q-31 0 -50 17.5t-19 45.5q0 24 13 69l58 215q7 30 7 40q0 16 -13.5 22.5t-45.5 6.5v27q116 9 202 28l-91 -334q-9 -36 -9 -52q0 -6 4.5 -10.5t10.5 -4.5q24 0 64 60zM539 655q27 0 46.5 -19.5t19.5 -46.5
q0 -25 -20 -44.5t-46 -19.5q-25 0 -44.5 19.5t-19.5 44.5q0 27 19 46.5t45 19.5zM235 655q27 0 46.5 -19.5t19.5 -46.5q0 -25 -20 -44.5t-46 -19.5q-25 0 -44.5 19.5t-19.5 44.5q0 27 19 46.5t45 19.5zM387 655q27 0 46.5 -19.5t19.5 -46.5q0 -25 -20 -44.5t-46 -19.5
q-25 0 -44.5 19.5t-19.5 44.5q0 27 19 46.5t45 19.5zM84 655q27 0 46.5 -19.5t19.5 -46.5q0 -25 -20 -44.5t-46 -19.5q-25 0 -44.5 19.5t-19.5 44.5q0 27 19 46.5t45 19.5zM255 141l22 -14q-53 -79 -87.5 -107.5t-79.5 -28.5q-31 0 -50 17.5t-19 45.5q0 24 13 69l58 215
q7 30 7 40q0 16 -13.5 22.5t-45.5 6.5v27q116 9 202 28l-91 -334q-9 -36 -9 -52q0 -6 4.5 -10.5t10.5 -4.5q24 0 64 60z" />
    <glyph glyph-name="dapostrophe" unicode="d&#x315;" horiz-adv-x="653" 
d="M634 567q-28 0 -43 12.5t-15 33.5q0 33 25 57.5t60 24.5q32 0 51.5 -21t19.5 -55q0 -52 -45.5 -100t-119.5 -78l-9 23q107 66 107 104q0 3 -4 3q-1 0 -9.5 -2t-17.5 -2zM468 131l22 -16q-41 -66 -76.5 -96t-72.5 -30q-28 0 -44 16.5t-16 45.5q0 16 11 67
q-43 -71 -81 -101t-85 -30q-46 0 -76 35.5t-30 89.5q0 76 42 158.5t106.5 137t123.5 54.5q39 0 72 -33l19 68q28 100 28 118q0 28 -41 28h-21v27q129 10 209 29l-111 -405q-57 -207 -57 -223q0 -4 3.5 -8t7.5 -4q24 0 67 72zM349 370q0 22 -11 36t-29 14q-39 0 -79.5 -62
t-63 -132.5t-22.5 -108.5q0 -25 11.5 -41.5t29.5 -16.5q40 0 80 68.5t62 140.5t22 102z" />
    <glyph glyph-name="lapostrophe" unicode="l&#x315;" horiz-adv-x="425" 
d="M406 567q-28 0 -43 12.5t-15 33.5q0 33 25 57.5t60 24.5q32 0 51.5 -21t19.5 -55q0 -52 -45.5 -100t-119.5 -78l-9 23q107 66 107 104q0 3 -4 3q-1 0 -9.5 -2t-17.5 -2zM256 141l22 -14q-52 -79 -87.5 -107.5t-81.5 -28.5q-30 0 -48.5 16.5t-18.5 43.5q0 35 34 158
l74 264q34 114 34 142q0 29 -34 29q-11 0 -29 -2v27q108 10 209 30l-145 -523q-22 -82 -22 -100q0 -6 4.5 -10.5t10.5 -4.5q24 0 78 80z" />
    <glyph glyph-name="tapostrophe" unicode="t&#x315;" horiz-adv-x="430" 
d="M411 567q-28 0 -43 12.5t-15 33.5q0 33 25 57.5t60 24.5q32 0 51.5 -21t19.5 -55q0 -52 -45.5 -100t-119.5 -78l-9 23q107 66 107 104q0 3 -4 3q-1 0 -9.5 -2t-17.5 -2zM324 449v-42h-83l-33 -118q-54 -193 -54 -213q0 -5 5 -10t11 -5q25 0 76 80l22 -14
q-50 -77 -85.5 -106.5t-80.5 -29.5q-32 0 -51 18t-19 47q0 31 24 113l68 238h-51v35q59 23 101 57t82 95h35l-39 -145h72z" />
    <glyph glyph-name="ccaronapostrophe" unicode="c&#x2c7;&#x313;" horiz-adv-x="588" 
d="M569 567q-28 0 -43 12.5t-15 33.5q0 33 25 57.5t60 24.5q32 0 51.5 -21t19.5 -55q0 -52 -45.5 -100t-119.5 -78l-9 23q107 66 107 104q0 3 -4 3q-1 0 -9.5 -2t-17.5 -2zM300 429q-35 0 -64.5 -36t-47 -86t-27 -95.5t-9.5 -70.5q0 -40 20.5 -65t52.5 -25t59 20t63 70
l28 -18q-44 -63 -74 -88q-56 -48 -124 -48t-110.5 42t-42.5 109q0 120 89.5 222t195.5 102q49 0 80.5 -25t31.5 -65q0 -31 -17.5 -50.5t-44.5 -19.5q-25 0 -41.5 15t-16.5 37q0 15 10.5 34.5t10.5 23.5q0 17 -22 17zM518 690l-162 -174h-82l-88 174h50l91 -97l135 97h56z
" />
    <glyph glyph-name=".notdef" horiz-adv-x="600" 
d="M335 615q0 -5 14.5 -27.5t14.5 -40.5q0 -24 -18 -41.5t-43 -17.5q-26 0 -43.5 19.5t-17.5 47.5q0 56 49.5 92.5t125.5 36.5q79 0 127.5 -40t48.5 -105q0 -47 -29.5 -87t-96.5 -83l-66 -43q-29 -19 -45 -42.5t-37 -75.5l-29 7q6 76 71 159l41 51q64 80 64 148
q0 37 -18.5 58.5t-50.5 21.5q-24 0 -43 -12t-19 -26zM277 135q30 0 51.5 -22t21.5 -52q0 -31 -21.5 -52.5t-53.5 -21.5q-31 0 -52 21.5t-21 52.5t21.5 52.5t53.5 21.5zM742 774l-182 -855h-554l182 855h554zM666 728h-422l-165 -773h422z" />
    <glyph glyph-name=".null" 
 />
    <glyph glyph-name="nonmarkingreturn" horiz-adv-x="600" 
 />
    <glyph glyph-name="space" unicode=" " horiz-adv-x="250" 
 />
    <glyph glyph-name="exclam" unicode="!" horiz-adv-x="389" 
d="M167 212q15 76 26 150t16 117.5t10.5 84t10 60t13.5 35.5t22.5 20.5t35.5 4.5q31 0 50 -20t19 -53q0 -30 -16 -62t-62 -124.5t-96 -220.5zM140 133q28 0 50.5 -23t22.5 -52t-21.5 -50t-52.5 -21t-51.5 20t-20.5 51q0 32 21 53.5t52 21.5z" />
    <glyph glyph-name="quotedbl" unicode="&#x22;" horiz-adv-x="555" 
d="M177 398h-41l16 214q2 29 26 51t52 22q19 0 32.5 -14.5t13.5 -34.5q0 -14 -17 -52zM437 398h-41l16 214q2 29 26 51t52 22q19 0 32.5 -14.5t13.5 -34.5q0 -14 -17 -52z" />
    <glyph glyph-name="numbersign" unicode="#" horiz-adv-x="500" 
d="M449 283l-20 -73h-97l-85 -210h-78l85 210h-113l-85 -210h-78l85 210h-96l20 73h106l54 134h-96l20 73h105l87 210h77l-86 -210h113l87 210h77l-86 -210h88l-20 -73h-97l-54 -134h87zM338 417h-113l-54 -134h113z" />
    <glyph glyph-name="dollar" unicode="$" horiz-adv-x="500" 
d="M292 410q33 -28 46 -40t36 -36.5t32.5 -41t17.5 -41t8 -50.5q0 -85 -66.5 -143t-164.5 -58h-23l-28 -100h-52l29 107q-47 11 -77 27.5t-70 51.5l42 142l22 -6q2 -81 21.5 -118.5t71.5 -61.5l74 261q-80 61 -106 97.5t-26 87.5q0 77 56.5 129.5t139.5 52.5q16 0 38 -2
l18 65h50l-20 -72q57 -10 118 -49l18 -14l-42 -133l-21 5q1 11 1 30q0 52 -19.5 81t-64.5 44zM248 436l55 199q-5 2 -15 2q-50 0 -80 -26t-30 -69q0 -30 15 -53t55 -53zM186 32q41 0 70 12t42.5 32t19 39.5t5.5 41.5q0 35 -14.5 59.5t-55.5 57.5z" />
    <glyph glyph-name="percent" unicode="%" horiz-adv-x="833" 
d="M450 128q0 53 29.5 110t83 97.5t113.5 40.5q52 0 84.5 -32t32.5 -84q0 -27 -10.5 -67.5t-32 -88t-66 -81t-101.5 -33.5q-60 0 -96.5 38t-36.5 100zM759 257q0 30 -15.5 49t-37.5 19q-36 0 -70 -51t-51.5 -105t-17.5 -80q0 -23 14 -38t36 -15q36 0 70 38t53 89.5t19 93.5z
M263 679q36 0 77 -28t96 -28q90 0 169 69h39l-394 -700h-56l349 620q-65 -27 -119 -27q-10 0 -43 5q-1 -131 -63 -213.5t-150 -82.5q-56 0 -92.5 38.5t-36.5 98.5q0 93 70 170.5t154 77.5zM285 631q-28 0 -60.5 -50t-51.5 -106.5t-19 -84.5q0 -22 13.5 -36t34.5 -14
q52 0 98.5 75.5t46.5 161.5q0 18 -5 23.5t-17.5 9t-22.5 13.5q-10 8 -17 8z" />
    <glyph glyph-name="ampersand" unicode="&#x26;" horiz-adv-x="778" 
d="M5 148q0 24 6 46.5t18 41t24.5 34.5t33 30.5t34 24t36.5 21t33 16t31.5 13t23.5 9.5q-11 62 -11 92q0 92 51.5 149t133.5 57q60 0 99 -32t39 -82q0 -99 -182 -172q19 -120 86 -227q43 54 58.5 81t15.5 48q0 16 -12 24.5t-44 13.5v25h212v-25q-34 -7 -53.5 -20t-47.5 -47
t-104 -136q55 -72 110 -72q37 0 77 40l26 -21q-46 -55 -83.5 -76.5t-86.5 -21.5q-76 0 -139 62q-92 -63 -192 -63q-86 0 -139.5 46.5t-53.5 120.5zM253 343q-63 -31 -89 -65.5t-26 -87.5q0 -59 36.5 -98.5t90.5 -39.5q41 0 97 28q-42 65 -66 122.5t-43 140.5zM366 434
q56 34 79 62q32 39 32 86q0 32 -13.5 49.5t-38.5 17.5q-70 0 -70 -119q0 -30 11 -96z" />
    <glyph glyph-name="quotesingle" unicode="'" horiz-adv-x="278" 
d="M169 398h-41l16 214q2 29 26 51t52 22q19 0 32.5 -14.5t13.5 -34.5q0 -14 -17 -52z" />
    <glyph glyph-name="parenleft" unicode="(" horiz-adv-x="333" 
d="M344 665q-34 -31 -58 -57.5t-57.5 -77t-54.5 -105t-36.5 -137.5t-15.5 -178q0 -87 15 -144.5t56 -129.5l-23 -15q-76 104 -109 193.5t-33 192.5q0 42 7 82t16.5 72.5t27.5 65.5t32.5 56.5t38.5 50.5t38.5 42t41 36.5t37 29.5t34 24.5t25.5 18.5z" />
    <glyph glyph-name="parenright" unicode=")" horiz-adv-x="333" 
d="M128 685q70 -96 106.5 -186t36.5 -200q0 -55 -12.5 -108t-29 -92t-47 -80.5t-50.5 -64.5t-56.5 -54.5t-49 -40.5t-42.5 -30q-8 -6 -11 -8l-17 20q57 53 86 89t53 84q37 75 59.5 180t22.5 205q0 85 -15.5 144t-56.5 127z" />
    <glyph glyph-name="asterisk" unicode="*" horiz-adv-x="500" 
d="M144 497q-45 0 -62 16t-17 36q0 21 15 37.5t34 16.5q18 0 33.5 -13t25.5 -30t28.5 -38t40.5 -34l11 -6v12q0 45 -21.5 82t-21.5 57q0 23 14 37.5t37 14.5q22 0 36 -14.5t14 -37.5q0 -19 -21.5 -57t-21.5 -82v-12l11 6q28 16 49.5 46t38 49.5t40.5 19.5q19 0 34 -16.5
t15 -38.5q0 -20 -18 -35.5t-61 -15.5q-33 -1 -49 -5t-41 -18l-11 -6l11 -6q24 -14 39.5 -17.5t50.5 -5.5q79 0 79 -51q0 -22 -15 -38t-35 -16q-22 0 -38.5 19t-38.5 48.5t-50 46.5l-11 6v-12q0 -43 21.5 -81t21.5 -58q0 -23 -14 -37t-37 -14q-22 0 -36 14.5t-14 37.5
q0 20 21.5 56.5t21.5 81.5v12l-11 -6q-29 -17 -51 -47t-37.5 -48.5t-38.5 -18.5q-20 0 -35 16t-15 38q0 51 79 51q35 2 50.5 5.5t39.5 17.5l11 6l-11 6q-25 14 -41 18t-49 5z" />
    <glyph glyph-name="plus" unicode="+" horiz-adv-x="570" 
d="M241 297v209h88v-209h208v-88h-208v-209h-88v209h-208v88h208z" />
    <glyph glyph-name="comma" unicode="," horiz-adv-x="250" 
d="M58 -41q0 14 -11 24.5t-24 17.5t-24 22.5t-11 37.5q0 32 20 52.5t51 20.5q38 0 61.5 -27t23.5 -71q0 -61 -52.5 -120.5t-138.5 -97.5l-13 24q118 64 118 117z" />
    <glyph glyph-name="hyphen" unicode="-" horiz-adv-x="333" 
d="M271 282l-23 -116h-246l24 116h245z" />
    <glyph glyph-name="period" unicode="." horiz-adv-x="250" 
d="M66 135q30 0 51.5 -22t21.5 -52q0 -31 -21.5 -52.5t-53.5 -21.5q-31 0 -52 21t-21 52q0 32 21.5 53.5t53.5 21.5z" />
    <glyph glyph-name="slash" unicode="/" horiz-adv-x="335" 
d="M315 685h87l-319 -703h-87z" />
    <glyph glyph-name="zero" unicode="0" horiz-adv-x="500" 
d="M17 206q0 102 37.5 210.5t111 187.5t161.5 79q68 0 109 -65.5t41 -175.5q0 -72 -22 -151t-60 -147.5t-96 -113t-122 -44.5q-72 0 -116 60t-44 160zM325 654q-28 0 -51 -33t-51 -111q-35 -97 -69 -239t-34 -190q0 -30 13.5 -48t36.5 -18q31 0 54.5 31t48.5 103
q24 68 62.5 226t38.5 207q0 34 -13 53t-36 19z" />
    <glyph glyph-name="one" unicode="1" horiz-adv-x="500" 
d="M5 0v23q54 0 81 16.5t38 57.5l128 459q4 18 4 24q0 33 -46 33q-29 0 -63 -5l2 23q139 20 270 52l-154 -560q-12 -44 -12 -54q0 -28 19 -36.5t78 -9.5v-23h-345z" />
    <glyph glyph-name="two" unicode="2" horiz-adv-x="500" 
d="M104 519q85 164 217 164q70 0 117.5 -48.5t47.5 -119.5q0 -114 -144 -237l-196 -167h149q58 0 84 15t55 65h25l-79 -191h-367v24l90 90q141 140 195 220.5t54 148.5q0 52 -24.5 81t-68.5 29q-75 0 -133 -86z" />
    <glyph glyph-name="three" unicode="3" horiz-adv-x="500" 
d="M305 189q0 151 -157 158l4 22q97 20 143 57.5t46 95.5q0 41 -23.5 65.5t-63.5 24.5q-35 0 -60 -16t-56 -59l-21 13q47 70 95 101.5t109 31.5q64 0 106.5 -39t42.5 -97q0 -91 -107 -144l-12 -6q43 -32 60 -65t17 -82q0 -110 -84.5 -186.5t-205.5 -76.5q-61 0 -97 21.5
t-36 58.5q0 25 16.5 40.5t43.5 15.5q25 0 41.5 -15t24 -33t24 -33t40.5 -15q46 0 78 47.5t32 114.5z" />
    <glyph glyph-name="four" unicode="4" horiz-adv-x="500" 
d="M473 248l-27 -98h-68l-42 -150h-128l41 150h-244l28 105l427 428h63l-119 -435h69zM73 248h203l79 280z" />
    <glyph glyph-name="five" unicode="5" horiz-adv-x="500" 
d="M327 189q0 30 -10 58t-34 56.5t-72.5 47t-117.5 21.5l131 297h283l-36 -109h-254l-34 -76q69 -14 98 -24t55 -27q96 -62 96 -183q0 -111 -84.5 -187t-207.5 -76q-59 0 -95 22t-36 57q0 25 16.5 41t42.5 16q24 0 41.5 -15t26.5 -33t23.5 -33t33.5 -15q53 0 93.5 49
t40.5 113z" />
    <glyph glyph-name="six" unicode="6" horiz-adv-x="500" 
d="M508 679l6 -24q-101 -38 -166.5 -96.5t-111.5 -149.5q39 13 62 13q70 0 110 -45.5t40 -125.5q0 -111 -71.5 -188.5t-174.5 -77.5q-82 0 -128 56t-46 154q0 106 53 204.5t148 169.5q61 44 119.5 67t159.5 43zM256 382q-24 0 -35 -11t-27 -51q-54 -134 -54 -225
q0 -78 55 -78q40 0 61 39q25 47 46.5 129.5t21.5 129.5q0 67 -68 67z" />
    <glyph glyph-name="seven" unicode="7" horiz-adv-x="500" 
d="M103 479h-26l87 190h381l-381 -669h-92l332 556h-133q-78 0 -109 -14t-59 -63z" />
    <glyph glyph-name="eight" unicode="8" horiz-adv-x="500" 
d="M310 683q72 0 124 -39.5t52 -103.5q0 -53 -33 -89.5t-110 -69.5v-5q86 -94 86 -183t-63 -147.5t-159 -58.5q-86 0 -140 46t-54 120q0 64 43.5 109t136.5 78v5q-42 44 -58 77.5t-16 76.5q0 79 54 131.5t137 52.5zM219 321q-16 -11 -24.5 -17t-27 -24.5t-29 -35.5
t-19.5 -44.5t-9 -58.5q0 -58 26.5 -91t72.5 -33t76.5 37t30.5 93q0 39 -16.5 68.5t-80.5 105.5zM320 403q43 45 58 74t15 67q0 48 -22 77t-59 29q-36 0 -59 -27.5t-23 -69.5q0 -37 19.5 -69.5t70.5 -80.5z" />
    <glyph glyph-name="nine" unicode="9" horiz-adv-x="500" 
d="M311 683q40 0 72 -14t51 -35t31.5 -49.5t17 -55t4.5 -53.5q0 -106 -54 -207t-148 -170q-60 -44 -119 -67t-160 -42l-6 25q184 56 277 244q-31 -14 -61 -14q-68 0 -109.5 46t-41.5 121q0 114 71.5 192.5t174.5 78.5zM326 651q-40 0 -73 -54.5t-48.5 -121.5t-15.5 -123
q0 -64 66 -64q31 0 44 14.5t33 74.5q43 129 43 205q0 69 -49 69z" />
    <glyph glyph-name="colon" unicode=":" horiz-adv-x="250" 
d="M98 135q30 0 51.5 -22t21.5 -52q0 -31 -21.5 -52.5t-53.5 -21.5q-31 0 -52 21.5t-21 52.5t21.5 52.5t53.5 21.5zM191 459q30 0 51.5 -22t21.5 -52q0 -31 -21.5 -52.5t-53.5 -21.5q-31 0 -52 21.5t-21 52.5t21.5 52.5t53.5 21.5z" />
    <glyph glyph-name="semicolon" unicode=";" horiz-adv-x="250" 
d="M93 -42q0 14 -11 24.5t-24 17.5t-24 22.5t-11 37.5q0 32 20 52.5t51 20.5q38 0 61.5 -27t23.5 -71q0 -61 -52 -120.5t-139 -97.5l-13 24q118 64 118 117zM191 459q30 0 51.5 -22t21.5 -52q0 -31 -21.5 -52.5t-53.5 -21.5q-31 0 -52 21.5t-21 52.5t21.5 52.5t53.5 21.5z
" />
    <glyph glyph-name="less" unicode="&#x3c;" horiz-adv-x="570" 
d="M539 -12l-508 223v84l508 223v-96l-385 -169l385 -169v-96z" />
    <glyph glyph-name="equal" unicode="=" horiz-adv-x="576" 
d="M567 399v-88h-504v88h504zM567 195v-88h-504v88h504z" />
    <glyph glyph-name="greater" unicode="&#x3e;" horiz-adv-x="570" 
d="M61 -12v96l385 169l-385 169v96l508 -223v-84z" />
    <glyph glyph-name="question" unicode="?" horiz-adv-x="500" 
d="M212 615q0 -5 14.5 -27.5t14.5 -40.5q0 -24 -18 -41.5t-43 -17.5q-26 0 -43.5 19.5t-17.5 47.5q0 56 49.5 92.5t125.5 36.5q79 0 127.5 -40t48.5 -105q0 -47 -29.5 -87t-96.5 -83l-66 -43q-29 -19 -45 -42.5t-37 -75.5l-29 7q6 76 71 159l41 51q64 80 64 148
q0 37 -18.5 58.5t-50.5 21.5q-24 0 -43 -12t-19 -26zM154 135q30 0 51.5 -22t21.5 -52q0 -31 -21.5 -52.5t-53.5 -21.5q-31 0 -52 21.5t-21 52.5t21.5 52.5t53.5 21.5z" />
    <glyph glyph-name="at" unicode="@" horiz-adv-x="832" 
d="M528 458q0 17 -9 27t-22 10q-23 0 -53.5 -43.5t-51.5 -101t-21 -96.5q0 -18 10 -30t25 -12q32 0 61.5 51.5t45 108t15.5 86.5zM564 223q0 -22 8.5 -30t28.5 -8q49 0 86 60t37 140q0 108 -83 182.5t-201 74.5q-124 0 -200 -87t-76 -230q0 -131 79 -209.5t210 -78.5
q55 0 97.5 8.5t100.5 34.5l14 -39q-73 -34 -120.5 -47t-103.5 -13q-160 0 -269.5 101t-109.5 248q0 151 110 256t267 105q143 0 240 -87t97 -214q0 -100 -56.5 -173.5t-132.5 -73.5q-111 0 -111 65q0 15 11 52q-33 -56 -62.5 -79.5t-65.5 -23.5q-38 0 -61 27.5t-23 71.5
q0 92 70.5 181.5t142.5 89.5q25 0 38.5 -13t18.5 -43l14 46l87 6l-55 -184q-27 -90 -27 -116z" />
    <glyph glyph-name="A" unicode="A" horiz-adv-x="696" 
d="M435 84q0 2 -15 124h-215l-59 -102q-15 -26 -15 -46q0 -35 65 -35v-25h-196v25q27 6 43.5 19.5t39.5 50.5l372 588h25l96 -572q10 -57 22 -69.5t62 -16.5v-25h-304v25q48 5 63.5 16.5t15.5 42.5zM228 248h185l-37 243z" />
    <glyph glyph-name="B" unicode="B" horiz-adv-x="640" 
d="M213 603q0 23 -17 30.5t-56 10.5v25h272q236 0 236 -146q0 -36 -16 -65t-34.5 -45t-51.5 -30t-47 -18t-40 -10q76 -25 106.5 -58t30.5 -91q0 -96 -79 -151t-216 -55h-301v25q37 5 53.5 19.5t26.5 52.5l122 449q11 39 11 57zM279 32q73 0 118.5 56.5t45.5 140.5
q0 35 -10 57t-33 33t-45.5 14.5t-61.5 4.5l-66 -244q-5 -22 -5 -29q0 -33 57 -33zM301 368q50 2 83 9t61.5 24.5t42 50.5t13.5 84q0 101 -87 101q-24 0 -34.5 -8.5t-17.5 -35.5z" />
    <glyph glyph-name="C" unicode="C" horiz-adv-x="620" 
d="M449 685q53 0 106.5 -14.5t62.5 -14.5q20 0 38 29h30l-51 -234l-32 6q3 19 3 35q0 73 -35 115.5t-96 42.5q-79 0 -145.5 -75t-100.5 -175t-34 -191q0 -82 40 -128t110 -46q32 0 61.5 8.5t49.5 19t41 29t30 28.5t23 27q3 4 5 6l30 -22q-42 -57 -78 -84q-86 -65 -194 -65
q-122 0 -197 71.5t-75 187.5q0 182 120.5 313t287.5 131z" />
    <glyph glyph-name="D" unicode="D" horiz-adv-x="723" 
d="M213 602q0 23 -14 29.5t-59 12.5v25h290q142 0 221.5 -72.5t79.5 -200.5q0 -170 -127 -283t-318 -113h-286v25q37 5 53.5 19.5t26.5 52.5l121 446q12 48 12 59zM364 600l-129 -478q-12 -46 -12 -54q0 -34 54 -34q140 0 219 113q41 58 64.5 141.5t23.5 168.5
q0 181 -165 181q-45 0 -55 -38z" />
    <glyph glyph-name="E" unicode="E" horiz-adv-x="630" 
d="M283 32q82 0 143 24t95.5 57.5t66.5 85.5l25 -5l-59 -194h-554v25q39 6 54 19t26 53l123 449q10 37 10 60q0 13 -8.5 20.5t-19.5 10t-38 6.5q-4 1 -7 1v25h540l-43 -190l-27 5q0 38 -5.5 62t-23.5 47t-56 33.5t-99 10.5q-31 0 -43 -9t-20 -35l-61 -223h13q63 0 95 8
t52.5 29t44.5 69l28 -4l-74 -273l-28 5q4 25 4 44q0 52 -29.5 70.5t-114.5 19.5l-56 -209q0 -2 -7.5 -27.5t-7.5 -35.5q0 -34 61 -34z" />
    <glyph glyph-name="F" unicode="F" horiz-adv-x="609" 
d="M603 484q0 38 -6.5 63.5t-24.5 47.5t-54 32t-92 10q-30 0 -43 -9t-20 -35l-61 -223q98 1 130.5 18t67.5 88l28 -4l-74 -273l-28 5q4 25 4 44q0 51 -28.5 70t-108.5 20l-54 -201q-15 -45 -15 -68t14.5 -32t56.5 -12v-25h-295v25q39 6 54 19t26 53l123 449q10 37 10 60
q0 19 -13.5 25.5t-49.5 11.5q-7 1 -10 1v25h533l-43 -190z" />
    <glyph glyph-name="G" unicode="G" horiz-adv-x="706" 
d="M516 268q0 11 -4.5 17.5t-18 10.5t-21.5 5t-30 3v26h287v-26q-40 -3 -52.5 -16t-26.5 -66l-48 -181l-28 -13q-43 -20 -110 -33t-124 -13q-131 0 -213.5 75t-82.5 194q0 115 60 219t159 162q92 53 208 53q56 0 104.5 -15t55.5 -15q27 0 42 30h31l-51 -221l-29 4
q-2 89 -33.5 135t-105.5 46q-65 0 -121 -44t-90.5 -111.5t-54 -143t-19.5 -142.5q0 -91 42 -139.5t122 -48.5q29 0 56.5 8.5t37.5 21.5q6 9 32 98.5t26 119.5z" />
    <glyph glyph-name="H" unicode="H" horiz-adv-x="753" 
d="M598 607q0 19 -13 24.5t-60 12.5v25h298v-25q-38 -5 -53.5 -18.5t-27.5 -53.5l-115 -419q-19 -68 -19 -87q0 -22 16 -30.5t57 -10.5v-25h-317v25q50 3 70 17t31 55l64 232h-239l-50 -181q-1 -4 -9 -34.5t-8 -45.5q0 -24 13 -31.5t60 -11.5v-25h-296v25q38 5 54 19t26 53
l122 449q11 41 11 58q0 21 -14.5 27.5t-58.5 12.5v25h317v-25q-49 -1 -69.5 -16t-31.5 -56l-54 -199h239l47 173q10 36 10 61z" />
    <glyph glyph-name="I" unicode="I" horiz-adv-x="374" 
d="M213 607q0 19 -13 24.5t-60 12.5v25h298v-25q-39 -5 -55.5 -19t-26.5 -53l-114 -420q-18 -68 -18 -87q0 -21 15 -29.5t57 -10.5v-25h-296v25q37 5 53.5 19t26.5 53l123 449q10 36 10 61z" />
    <glyph glyph-name="J" unicode="J" horiz-adv-x="500" 
d="M346 607q0 16 -14.5 23.5t-58.5 13.5v25h297v-25q-38 -5 -54.5 -19t-26.5 -53l-128 -479q-26 -98 -77 -145t-132 -47q-66 0 -109 28.5t-43 72.5q0 29 18.5 49.5t45.5 20.5q26 0 44.5 -18.5t18.5 -44.5q0 -17 -11.5 -31t-11.5 -23q0 -18 27 -18t44 33t46 144l114 432
q11 41 11 61z" />
    <glyph glyph-name="K" unicode="K" horiz-adv-x="663" 
d="M213 604q0 21 -14.5 27.5t-58.5 12.5v25h310v-25q-45 -4 -64.5 -18.5t-29.5 -53.5l-62 -228q154 132 214 191.5t60 81.5q0 21 -35 25q-3 0 -21 2v25h211v-25q-33 -5 -47.5 -12t-46.5 -36l-216 -198l157 -338q8 -18 21 -25t42 -10v-25h-280v25q19 1 27 2.5t19 4t15 7.5
t4 13q0 14 -13 43l-113 242l-67 -249q-2 -10 -2 -17q0 -25 13.5 -34t52.5 -12v-25h-289v25q37 5 53 19t27 53l122 449q11 41 11 58z" />
    <glyph glyph-name="L" unicode="L" horiz-adv-x="609" 
d="M213 607q0 19 -13 24.5t-60 12.5v25h317v-25q-50 -3 -70 -17t-31 -55l-129 -478q-5 -18 -5 -32q0 -30 64 -30q125 0 207 58q29 21 49.5 44t45.5 65l24 -5l-59 -194h-553v25q37 5 53.5 19.5t26.5 52.5l123 449q10 36 10 61z" />
    <glyph glyph-name="M" unicode="M" horiz-adv-x="876" 
d="M946 669v-25q-38 -5 -54.5 -19t-26.5 -53l-125 -459q-8 -29 -8 -45q0 -24 14 -32.5t58 -10.5v-25h-312v25q49 3 69 17.5t31 54.5l125 464l-375 -573h-28l-67 559l-101 -369q-19 -70 -19 -92q0 -31 16 -43t64 -18v-25h-207v25q41 9 57 32.5t44 120.5l109 373q11 39 11 58
q0 21 -12.5 27t-59.5 8v25h221l54 -480l310 480h212z" />
    <glyph glyph-name="N" unicode="N" horiz-adv-x="705" 
d="M333 669l215 -465l80 287q18 65 18 94t-18 42t-62 17v25h209v-25q-44 -10 -59.5 -32.5t-42.5 -120.5l-143 -506h-28l-257 549l-99 -356q-18 -67 -18 -94q0 -29 18 -42t62 -17v-25h-208v25q41 8 57 31.5t44 121.5l120 411q-14 33 -28 42t-55 13v25h195z" />
    <glyph glyph-name="O" unicode="O" horiz-adv-x="676" 
d="M36 221q0 72 32 153t86.5 150.5t135 115t168.5 45.5q104 0 173 -65.5t69 -165.5q0 -77 -31.5 -160t-85.5 -152.5t-136.5 -114.5t-174.5 -45q-106 0 -171 66t-65 173zM454 651q-94 0 -168 -131q-41 -72 -73.5 -189t-32.5 -194q0 -56 27.5 -88.5t74.5 -32.5q78 0 145 97
q50 74 89.5 201t39.5 217q0 54 -28 87t-74 33z" />
    <glyph glyph-name="P" unicode="P" horiz-adv-x="600" 
d="M213 606q0 19 -13.5 25.5t-49.5 11.5q-7 1 -10 1v25h287q104 0 158.5 -39.5t54.5 -115.5q0 -90 -74 -143.5t-199 -53.5q-36 0 -81 5l-54 -199q-10 -37 -10 -59q0 -20 15 -28.5t57 -10.5v-25h-294v25q40 6 54.5 19t25.5 53l123 449q10 37 10 60zM410 637q-9 0 -15.5 -1
t-11.5 -4.5t-8 -5t-6 -8t-3.5 -8l-3 -9t-2.5 -8.5l-64 -239q34 -2 42 -2q52 0 82.5 19t50.5 63q23 51 23 112q0 43 -22 67t-62 24z" />
    <glyph glyph-name="Q" unicode="Q" horiz-adv-x="677" 
d="M402 -208q-53 0 -128.5 23.5t-111.5 23.5q-41 0 -114 -28l-14 24l156 130q16 14 19 19q-4 5 -40.5 18.5t-65.5 41.5q-70 65 -70 167q0 119 60 229.5t158 177.5t204 67q105 0 173.5 -66t68.5 -167q0 -100 -47 -199t-130 -173q-58 -52 -111 -71.5t-151 -25.5
q-46 -44 -46 -47q0 -4 23.5 -6.5t61.5 -7t63 -12.5l42 -13q49 -15 83 -15q45 0 78 17t77 61l21 -19q-61 -82 -119 -115.5t-140 -33.5zM451 651q-94 0 -168 -131q-41 -73 -73.5 -190t-32.5 -194q0 -55 27.5 -87t74.5 -32q78 0 145 97q50 74 89.5 200.5t39.5 216.5
q0 54 -28 87t-74 33z" />
    <glyph glyph-name="R" unicode="R" horiz-adv-x="667" 
d="M213 607q0 19 -13 24.5t-60 12.5v25h276q236 0 236 -143q0 -21 -6 -42t-23.5 -50.5t-59 -54t-103.5 -36.5l83 -246q15 -44 30 -56t58 -16v-25h-202l-107 331h-29l-55 -193q-14 -48 -14 -71q0 -22 14 -30.5t58 -11.5v-25h-296v25q37 5 53.5 19t26.5 53l123 449
q10 34 10 61zM362 593l-60 -230q91 1 127 25q32 20 52 62.5t20 91.5q0 45 -23.5 70t-66.5 25q-23 0 -32.5 -8.5t-16.5 -35.5z" />
    <glyph glyph-name="S" unicode="S" horiz-adv-x="506" 
d="M237 -18q-49 0 -103.5 17.5t-65.5 17.5q-14 0 -21.5 -6.5t-16.5 -28.5h-30l36 224l29 -2q12 -188 154 -188q56 0 91 36.5t35 89.5q0 35 -25 68.5t-61 63t-72.5 60t-61.5 71.5t-25 86q0 83 58 138.5t143 55.5q34 0 86 -15t63 -15q31 0 44 26h30l-40 -201l-27 4
q-10 88 -41 127t-91 39q-48 0 -76 -28.5t-28 -76.5q0 -34 15 -56.5t62 -57.5q92 -70 130 -126t38 -120q0 -93 -62 -148t-167 -55z" />
    <glyph glyph-name="T" unicode="T" horiz-adv-x="593" 
d="M689 669l-36 -192l-27 2q-4 83 -35.5 118.5t-102.5 36.5l-140 -506q-11 -41 -11 -62q0 -24 15 -31.5t68 -9.5v-25h-331v25h14q38 0 59 17t32 55l148 537q-77 -2 -127.5 -35t-89.5 -108l-25 7l38 171h551z" />
    <glyph glyph-name="U" unicode="U" horiz-adv-x="714" 
d="M784 669v-25q-42 -8 -58 -31.5t-44 -121.5l-66 -228q-1 -3 -8 -30t-11 -38.5t-14 -39.5t-20.5 -43t-26.5 -38.5t-35.5 -37t-44.5 -27.5t-57 -20.5t-69 -6.5q-98 0 -160.5 46.5t-62.5 119.5q0 55 33 175l56 206q15 55 15 76q0 16 -9 23.5t-33 11.5q-3 0 -31 4v25h311v-25
q-47 -2 -64.5 -15.5t-29.5 -56.5l-82 -300q-28 -102 -28 -133q0 -47 32.5 -74t89.5 -27q82 0 133 60q42 52 79 184l58 209q19 71 19 97t-18.5 39t-61.5 17v25h208z" />
    <glyph glyph-name="V" unicode="V" horiz-adv-x="703" 
d="M778 669v-25q-42 -14 -59 -40l-393 -622h-32l-76 509q-16 107 -29.5 130t-60.5 23v25h298v-25q-50 -5 -63 -12.5t-13 -32.5q0 -10 1 -16l51 -401l190 302q59 92 59 127q0 27 -40 31q-3 0 -25 2v25h192z" />
    <glyph glyph-name="W" unicode="W" horiz-adv-x="928" 
d="M1003 669v-24q-32 -5 -48 -18.5t-36 -54.5l-286 -590h-29l-59 489l-233 -489h-29l-78 579q-7 53 -17.5 64.5t-59.5 19.5v24h277v-25q-36 -5 -48.5 -15.5t-12.5 -37.5q0 -11 1 -16l39 -349l150 311q-1 64 -13.5 83t-57.5 25v24h269v-25q-40 -4 -51.5 -14.5t-11.5 -43.5
q0 -14 6 -65l33 -295l156 327q15 33 15 46q0 27 -10.5 34.5t-52.5 10.5v25h187z" />
    <glyph glyph-name="X" unicode="X" horiz-adv-x="699" 
d="M610 25v-25h-308v25q40 4 54 11.5t14 26.5q0 18 -11 56t-26.5 85t-19.5 60l-134 -148q-30 -33 -30 -51q0 -34 65 -40v-25h-214v25q32 6 72.5 43t158.5 167l68 74l-84 272q-11 35 -28.5 46.5t-62.5 16.5v25h305v-25q-21 -3 -30 -3q-25 -3 -34.5 -11t-9.5 -25
q0 -12 10 -48.5t19.5 -66.5t10.5 -32l11 -37l94 99q70 74 70 98q0 21 -33 24q-2 0 -22 2v25h203v-25q-28 -4 -47.5 -16t-51.5 -45l-199 -205l74 -237q22 -70 42 -90t74 -26z" />
    <glyph glyph-name="Y" unicode="Y" horiz-adv-x="639" 
d="M289 313l-88 268q-13 40 -23.5 49t-49.5 14v25h283v-25q-41 -1 -55.5 -8.5t-14.5 -28.5q0 -9 2 -18.5t8 -30.5t13 -41.5t23 -69t31 -95.5l129 186q26 38 26 60q0 26 -13.5 35t-53.5 11v25h208v-25q-29 -6 -48 -20t-43 -49l-190 -267l-52 -191q-8 -31 -8 -45
q0 -28 14 -36.5t63 -10.5v-25h-322v25q52 4 70.5 16.5t30.5 55.5z" />
    <glyph glyph-name="Z" unicode="Z" horiz-adv-x="562" 
d="M237 35q116 0 181 38t120 126l27 -5l-59 -194h-506v29l434 605h-78q-82 0 -137.5 -32t-114.5 -115l-28 4l57 178h468v-29l-434 -605h70z" />
    <glyph glyph-name="bracketleft" unicode="[" horiz-adv-x="333" 
d="M355 639h-69q-27 0 -34 -9t-18 -54l-158 -676q-1 -2 -1 -4q0 -8 9.5 -14t26.5 -6h78l-7 -35h-219l199 833h200z" />
    <glyph glyph-name="backslash" unicode="\" horiz-adv-x="400" 
d="M117 685h85l195 -703h-84z" />
    <glyph glyph-name="bracketright" unicode="]" horiz-adv-x="333" 
d="M-49 -122h68q27 0 34 8.5t18 52.5l158 677v3q0 8 -10 14t-25 6h-78l7 35h220l-200 -831h-199z" />
    <glyph glyph-name="asciicircum" unicode="^" horiz-adv-x="570" 
d="M156 304h-89l178 365h80l178 -365h-89l-129 272z" />
    <glyph glyph-name="underscore" unicode="_" horiz-adv-x="500" 
d="M500 -155h-500v80h500v-80z" />
    <glyph glyph-name="grave" unicode="`" horiz-adv-x="333" 
d="M297 516h-45l-133 89q-34 23 -34 47q0 18 13.5 31.5t31.5 13.5q30 0 56 -34z" />
    <glyph glyph-name="a" unicode="a" horiz-adv-x="509" 
d="M338 373q0 21 -11.5 34t-27.5 13q-30 0 -69 -55.5t-66 -129t-27 -123.5q0 -23 13 -38.5t32 -15.5q40 0 78.5 66t58 138t19.5 111zM469 127l21 -15q-83 -126 -151 -126q-28 0 -47.5 19t-19.5 47q0 17 14 67q-43 -71 -80.5 -101.5t-83.5 -30.5q-49 0 -78.5 35t-29.5 92
q0 76 42 158t106.5 136t124.5 54q32 0 49.5 -17t24.5 -55l18 59l111 7l-71 -236q-34 -115 -34 -148q0 -15 12 -15t26.5 14t45.5 56z" />
    <glyph glyph-name="b" unicode="b" horiz-adv-x="481" 
d="M115 642v27q118 13 208 30l-90 -328q38 50 69 70.5t69 20.5q49 0 80.5 -34.5t31.5 -89.5q0 -134 -99 -242.5t-221 -108.5q-49 0 -93.5 19.5t-44.5 40.5q0 10 20 81l94 327q39 137 39 157q0 17 -13 23.5t-50 6.5zM179 20q46 0 88.5 53.5t66.5 124t24 127.5q0 69 -44 69
q-34 0 -67 -48t-53.5 -111t-33 -116.5t-12.5 -71.5q0 -11 9 -19t22 -8z" />
    <glyph glyph-name="c" unicode="c" horiz-adv-x="428" 
d="M300 429q-35 0 -64.5 -36t-47 -86t-27 -95.5t-9.5 -70.5q0 -40 20.5 -65t52.5 -25t59 20t63 70l28 -18q-44 -63 -74 -88q-56 -48 -124 -48t-110.5 42t-42.5 109q0 120 89.5 222t195.5 102q49 0 80.5 -25t31.5 -65q0 -31 -17.5 -50.5t-44.5 -19.5q-25 0 -41.5 15t-16.5 37
q0 15 10.5 34.5t10.5 23.5q0 17 -22 17z" />
    <glyph glyph-name="d" unicode="d" horiz-adv-x="510" 
d="M468 131l22 -16q-41 -66 -76.5 -96t-72.5 -30q-28 0 -44 16.5t-16 45.5q0 16 11 67q-43 -71 -81 -101t-85 -30q-46 0 -76 35.5t-30 89.5q0 76 42 158.5t106.5 137t123.5 54.5q39 0 72 -33l19 68q28 100 28 118q0 28 -41 28h-21v27q129 10 209 29l-111 -405
q-57 -207 -57 -223q0 -4 3.5 -8t7.5 -4q24 0 67 72zM349 370q0 22 -11 36t-29 14q-39 0 -79.5 -62t-63 -132.5t-22.5 -108.5q0 -25 11.5 -41.5t29.5 -16.5q40 0 80 68.5t62 140.5t22 102z" />
    <glyph glyph-name="e" unicode="e" horiz-adv-x="417" 
d="M336 142l29 -17q-45 -74 -89 -106t-101 -32q-65 0 -108 42t-43 105q0 124 90 226t198 102q46 0 75.5 -24.5t29.5 -62.5q0 -21 -9 -43.5t-33.5 -52t-79.5 -56t-135 -41.5q-6 -30 -6 -49q0 -82 65 -82q31 0 56.5 19.5t60.5 71.5zM167 214q72 26 115 66.5t43 114.5
q0 34 -28 34q-74 0 -130 -215z" />
    <glyph glyph-name="f" unicode="f" horiz-adv-x="485" 
d="M420 614q0 13 8 26.5t8 15.5q0 13 -17 13q-53 0 -91 -149l-18 -71h92l-9 -42h-90q-62 -287 -86 -367q-53 -177 -132 -224q-36 -21 -81 -21t-72 21.5t-27 57.5q0 22 15.5 38t36.5 16q19 0 34 -15t15 -33q0 -14 -8 -27t-8 -16q0 -11 18 -11q36 0 54.5 53.5t67.5 276.5
q33 151 56 251h-73l9 42h73q15 54 32 93t43 77.5t64 58.5t87 20q45 0 72 -21.5t27 -58.5q0 -23 -14.5 -38t-36.5 -15q-20 0 -34.5 14.5t-14.5 34.5z" />
    <glyph glyph-name="g" unicode="g" horiz-adv-x="490" 
d="M-22 -97q0 12 3 22.5t7.5 18.5t12.5 15.5t14.5 13t17.5 10.5t17.5 7.5t18.5 6t16 4.5t15 3l11 3q-62 21 -62 66q0 27 17.5 44.5t78.5 52.5q-80 34 -80 110t65 129t157 53q65 0 110 -33h111v-56h-67q6 -19 6 -42q0 -52 -26 -90t-65 -55.5t-70.5 -25t-54.5 -7.5
q-17 0 -30.5 4t-20.5 4q-10 0 -19 -12t-9 -24q0 -24 51 -38l53 -15q82 -23 115.5 -51.5t33.5 -73.5q0 -66 -67 -108t-172 -42q-86 0 -137 28.5t-51 77.5zM144 -6q-15 0 -47 -26.5t-32 -58.5q0 -34 31 -56t80 -22q57 0 88.5 18.5t31.5 50.5q0 38 -41 57q-16 7 -60 22t-51 15z
M224 184q45 0 75.5 65.5t30.5 122.5q0 26 -13 42.5t-32 16.5q-44 0 -74 -65.5t-30 -122.5q0 -59 43 -59z" />
    <glyph glyph-name="h" unicode="h" horiz-adv-x="546" 
d="M220 283q32 45 51 70t47 54t55.5 42t58.5 13q35 0 55.5 -20t20.5 -55q0 -31 -30 -122l-58 -178q-3 -9 -3 -12q0 -5 6 -10.5t11 -5.5q17 0 75 83l22 -15q-50 -77 -85.5 -106.5t-81.5 -29.5q-29 0 -47.5 16t-18.5 42q0 34 13 81.5t46 144.5q9 25 13 38q16 44 16 56
q0 8 -6.5 14.5t-15.5 6.5q-39 0 -101 -89q-38 -55 -61 -112t-61 -189h-121l154 567q8 30 8 43q0 18 -7 26t-26 8q-14 0 -30 -2v27q97 8 208 30z" />
    <glyph glyph-name="i" unicode="i" horiz-adv-x="292" 
d="M254 141l22 -14q-53 -79 -87.5 -107.5t-79.5 -28.5q-31 0 -50 17.5t-19 45.5q0 24 13 69l58 215q7 30 7 40q0 16 -13.5 22.5t-45.5 6.5v27q116 9 202 28l-91 -334q-9 -36 -9 -52q0 -6 4.5 -10.5t10.5 -4.5q24 0 64 60zM232 685q28 0 48.5 -20t20.5 -48t-20 -47.5
t-49 -19.5q-28 0 -47 20t-19 49q0 26 20 46t46 20z" />
    <glyph glyph-name="j" unicode="j" horiz-adv-x="333" 
d="M23 -126q0 -13 -7.5 -24t-7.5 -14q0 -4 8 -8t16 -4q21 0 36.5 28t34.5 103l92 355q12 50 12 66q0 19 -12 25t-50 6v27q136 12 208 28l-114 -438q-60 -231 -209 -231q-47 0 -76 21.5t-29 55.5q0 22 14.5 37.5t34.5 15.5t34.5 -14.5t14.5 -34.5zM324 685q28 0 48.5 -20
t20.5 -48t-20 -47.5t-49 -19.5q-28 0 -47 20t-19 49q0 26 20 46t46 20z" />
    <glyph glyph-name="k" unicode="k" horiz-adv-x="509" 
d="M192 188l-50 -188h-122l156 567q8 30 8 42q0 34 -42 34q-13 0 -21 -1v27q97 10 208 30l-123 -460q95 75 129.5 109t34.5 53q0 12 -11 16.5t-40 6.5v25h207v-25q-34 -4 -59 -18t-76 -58l-63 -55q28 -146 42.5 -188t35.5 -42q14 0 28 14.5t34 49.5l22 -11
q-38 -68 -68.5 -96t-67.5 -28q-47 0 -73.5 48t-49.5 175z" />
    <glyph glyph-name="l" unicode="l" horiz-adv-x="294" 
d="M256 141l22 -14q-52 -79 -87.5 -107.5t-81.5 -28.5q-30 0 -48.5 16.5t-18.5 43.5q0 35 34 158l74 264q34 114 34 142q0 29 -34 29q-11 0 -29 -2v27q108 10 209 30l-145 -523q-22 -82 -22 -100q0 -6 4.5 -10.5t10.5 -4.5q24 0 78 80z" />
    <glyph glyph-name="m" unicode="m" horiz-adv-x="763" 
d="M655 59q21 0 69 76l22 -13q-44 -74 -79 -102.5t-81 -28.5q-67 0 -67 63q0 50 36 153l45 131q7 23 7 30q0 8 -7 14.5t-16 6.5q-46 0 -112 -116q-27 -46 -41.5 -86t-59.5 -187h-120l65 207q45 139 45 159q0 10 -5.5 16.5t-13.5 6.5q-10 0 -28.5 -13.5t-35.5 -32.5
q-42 -51 -75 -126.5t-72 -216.5h-121l67 238q35 123 35 143q0 26 -46 26h-8v27q127 10 200 27l-64 -199q31 48 50 74.5t48.5 60.5t59 49.5t60.5 15.5t49 -18t18 -50q0 -36 -26 -104q63 99 105 135.5t93 36.5q33 0 55 -20.5t22 -50.5q0 -41 -23 -107l-45 -133
q-21 -62 -21 -74v-2v-2q0 -5 4.5 -9.5t11.5 -4.5z" />
    <glyph glyph-name="n" unicode="n" horiz-adv-x="526" 
d="M194 263q78 115 121 157t102 42q35 0 54 -19.5t19 -55.5q0 -35 -26 -115l-36 -109q-25 -75 -25 -87q0 -17 14 -17q13 0 26.5 15t43.5 61l22 -13q-43 -73 -79 -102t-80 -29q-31 0 -49.5 16t-18.5 44q0 47 28 131l55 166q5 17 5 21q0 8 -8 14.5t-17 6.5q-14 0 -34 -14.5
t-35 -34.5q-46 -60 -77.5 -135t-67.5 -206h-121l56 204q46 162 46 178q0 14 -11 19t-43 6v27q92 3 200 27z" />
    <glyph glyph-name="o" unicode="o" horiz-adv-x="474" 
d="M312 462q68 0 112.5 -42.5t44.5 -108.5q0 -127 -86.5 -225.5t-198.5 -98.5q-69 0 -114 42t-45 106q0 126 88.5 226.5t198.5 100.5zM193 16q37 0 69 46t50 109.5t28 119t10 84.5q0 27 -12.5 42.5t-34.5 15.5q-44 0 -82 -64.5t-57.5 -145t-19.5 -145.5q0 -28 13 -45t36 -17
z" />
    <glyph glyph-name="p" unicode="p" horiz-adv-x="482" 
d="M62 407v27q55 6 193 28l-38 -115q44 62 80.5 88.5t79.5 26.5q50 0 79 -33t29 -88q0 -130 -88 -242t-189 -112q-25 0 -68 22l-12 -41q-25 -94 -25 -113q0 -18 14 -25t51 -8v-27h-249v27h6q31 0 44 14t25 60l100 388q22 83 22 98q0 14 -10 18.5t-44 6.5zM360 340
q0 23 -11.5 37t-30.5 14q-13 0 -25.5 -5t-22.5 -15.5t-19 -21t-17 -27.5t-14 -28.5t-12 -30t-9 -27t-7.5 -24.5t-4.5 -17q-35 -118 -35 -137q0 -15 11.5 -25.5t27.5 -10.5q36 0 69 40.5t54 95t33.5 105.5t12.5 77z" />
    <glyph glyph-name="q" unicode="q" horiz-adv-x="496" 
d="M295 462q21 0 34.5 -5.5t20.5 -18t10 -22t6 -26.5l15 59h109q-63 -233 -85 -304q-80 -267 -80 -295t51 -28h14v-27h-267v27q47 2 63 13t27 50l63 213q-39 -61 -73 -86t-79 -25q-48 0 -76 35t-28 95q0 73 40 153.5t105.5 136t129.5 55.5zM344 371q0 25 -11.5 36.5
t-26.5 11.5q-33 0 -71.5 -54t-64 -126t-25.5 -123q0 -57 39 -57q43 0 82.5 67t58.5 138t19 107z" />
    <glyph glyph-name="r" unicode="r" horiz-adv-x="400" 
d="M361 323q-20 0 -38.5 19t-21.5 19q-22 0 -60 -67.5t-77 -189.5q-4 -15 -33 -104h-121q102 344 102 382q0 14 -10 18.5t-44 6.5v27q131 11 200 28l-66 -209q59 119 96 164t75 45q26 0 41.5 -18t15.5 -48q0 -32 -17 -52.5t-42 -20.5z" />
    <glyph glyph-name="s" unicode="s" horiz-adv-x="356" 
d="M200 462q22 0 53.5 -11t40.5 -11q11 0 16 3.5t13 17.5h29l-23 -153l-27 2q-12 62 -33 90.5t-55 28.5q-24 0 -38.5 -14.5t-14.5 -38.5q0 -21 21.5 -52.5t47 -60.5t47 -69t21.5 -75q0 -56 -42.5 -94t-105.5 -38q-26 0 -56.5 10t-37.5 10q-22 0 -29 -20h-27l22 166l27 -3
q21 -133 96 -133q24 0 40.5 15.5t16.5 38.5q0 24 -21 56t-47 60.5t-47 69t-21 79.5q0 57 36.5 91.5t97.5 34.5z" />
    <glyph glyph-name="t" unicode="t" horiz-adv-x="286" 
d="M324 449v-42h-83l-33 -118q-54 -193 -54 -213q0 -5 5 -10t11 -5q25 0 76 80l22 -14q-50 -77 -85.5 -106.5t-80.5 -29.5q-32 0 -51 18t-19 47q0 31 24 113l68 238h-51v35q59 23 101 57t82 95h35l-39 -145h72z" />
    <glyph glyph-name="u" unicode="u" horiz-adv-x="530" 
d="M491 133l21 -13q-75 -129 -161 -129q-65 0 -65 60q0 37 24 110q-77 -108 -113.5 -139t-86.5 -31q-75 0 -75 74q0 36 21 108l40 133q14 45 14 73q0 15 -11 20.5t-45 7.5v27q60 2 209 28l-94 -308q-15 -50 -15 -66q0 -25 21 -25q28 0 73 55q43 54 71.5 120.5t70.5 210.5
h118l-78 -268q-25 -86 -25 -101v-1.5v-2.5q0 -17 14 -17q23 0 72 74z" />
    <glyph glyph-name="v" unicode="v" horiz-adv-x="439" 
d="M128 164q0 71 -4 118.5t-9 72t-16.5 36.5t-19.5 14t-25 2v27q99 14 155 28q16 -61 22 -125t9 -209q74 84 100 123t26 65q0 11 -22 39.5t-22 48.5q0 23 17 40.5t39 17.5q23 0 42 -20.5t19 -46.5q0 -67 -67 -163.5t-223 -244.5h-26l4 136q1 21 1 41z" />
    <glyph glyph-name="w" unicode="w" horiz-adv-x="652" 
d="M576 311q0 13 -20.5 43t-20.5 48q0 24 17 42t39 18q24 0 42.5 -18.5t18.5 -43.5q0 -125 -272 -413h-27l-23 285l-19 -35q-84 -150 -94 -164l-57 -86h-27q0 21 0.5 38.5t1 25.5t0.5 15q0 9 -2 84q-5 220 -37 249q-9 8 -42 8v27q119 20 155 28q29 -108 33 -275l156 275h27
l32 -332q119 140 119 181z" />
    <glyph glyph-name="x" unicode="x" horiz-adv-x="476" 
d="M429 348q-11 0 -31 10t-26 10q-14 0 -29 -12.5t-25 -25.5t-22.5 -33t-15.5 -24l32 -156q11 -53 37 -53q13 0 25.5 10.5t41.5 48.5l21 -14q-46 -66 -80.5 -94t-70.5 -28q-40 0 -60.5 37.5t-36.5 117.5l-24 -39q-43 -72 -68 -94t-63 -22q-28 0 -46 16.5t-18 42.5
q0 23 16 39.5t39 16.5q15 0 35 -10.5t26 -10.5q13 0 23 8.5t25 32.5l44 70l-30 154q-8 37 -20 52t-36 15q-14 0 -35 -2v27l167 24q23 -34 45 -138q60 83 91.5 110.5t66.5 27.5q23 0 40.5 -18.5t17.5 -43.5q0 -21 -16.5 -36.5t-39.5 -15.5z" />
    <glyph glyph-name="y" unicode="y" horiz-adv-x="433" 
d="M91 -125q27 0 59.5 42t32.5 79q0 55 -36 225t-62 185q-9 5 -30 5v27q84 8 149 24q37 -97 66 -277l12 -75q52 100 69.5 141.5t17.5 63.5q0 12 -8.5 22t-19 15.5t-19 19t-8.5 32.5q0 23 17 40.5t40 17.5q25 0 43.5 -19t18.5 -45q0 -46 -40.5 -145t-100 -201.5
t-138.5 -179.5t-145 -77q-26 0 -44 17.5t-18 42.5q0 22 15 38.5t35 16.5q22 0 54 -17.5t40 -17.5z" />
    <glyph glyph-name="z" unicode="z" horiz-adv-x="410" 
d="M77 5q-14 0 -52 -28l-25 22l292 354h-145q-23 0 -36.5 -13.5t-26.5 -47.5l-28 3l43 154h312v-10l-281 -335q41 -18 67.5 -46t35 -50.5t21 -39.5t30.5 -17q9 0 15.5 4.5t6.5 11.5q0 4 -10 19t-10 27q0 21 15 36.5t35 15.5q21 0 37 -15.5t16 -36.5q0 -38 -31 -64.5
t-77 -26.5q-38 0 -79 21t-74 41.5t-51 20.5z" />
    <glyph glyph-name="braceleft" unicode="{" horiz-adv-x="348" 
d="M28 -96q0 40 30.5 144t30.5 131q0 26 -19 42t-65 28q67 14 95 38t42 78l46 179q21 82 74.5 112t173.5 30l-3 -12q-61 -11 -92 -39t-46 -85l-45 -171q-17 -64 -47.5 -90t-103.5 -40q56 -15 74 -30t18 -46q0 -28 -29.5 -132.5t-29.5 -137.5q0 -34 18.5 -52t62.5 -26l-3 -12
q-96 2 -139 19.5t-43 71.5z" />
    <glyph glyph-name="bar" unicode="|" horiz-adv-x="270" 
d="M116 -18v703h88v-703h-88z" />
    <glyph glyph-name="braceright" unicode="}" horiz-adv-x="348" 
d="M279 598q0 -42 -30.5 -146t-30.5 -132q0 -26 19 -42t65 -28q-67 -15 -95 -38.5t-42 -77.5l-46 -179q-23 -82 -76 -112t-172 -30l3 12q61 11 92 39t46 85l45 171q17 64 47.5 90t103.5 40q-56 15 -74 30t-18 46q0 29 29.5 135t29.5 136q0 33 -19 51t-62 26l3 12
q92 -2 137 -19t45 -69z" />
    <glyph glyph-name="asciitilde" unicode="~" horiz-adv-x="570" 
d="M175 331q43 0 120.5 -34t97.5 -34q33 0 68 45l55 -48q-35 -47 -62 -66t-61 -19q-43 0 -107 34t-110 34q-22 0 -36.5 -9t-32.5 -33l-53 46q48 84 121 84z" />
    <glyph glyph-name="nonbreakingspace" unicode="&#xa0;" horiz-adv-x="250" 
 />
    <glyph glyph-name="exclamdown" unicode="&#xa1;" horiz-adv-x="389" 
d="M221 267q-15 -76 -26 -150t-16 -117.5t-10.5 -84t-10 -60t-13.5 -35.5t-22.5 -20.5t-35.5 -4.5q-31 0 -50 20t-19 53q0 30 16 62t62 124.5t96 220.5zM248 346q-28 0 -50.5 23t-22.5 52t21.5 50t52.5 21t51.5 -20t20.5 -51q0 -32 -21 -53.5t-52 -21.5z" />
    <glyph glyph-name="cent" unicode="&#xa2;" horiz-adv-x="410" 
d="M402 576l-45 -127q53 -29 53 -79q0 -29 -18.5 -48.5t-46.5 -19.5q-19 0 -35 11l-92 -261q59 3 118 89l27 -18q-47 -68 -82 -95.5t-85 -37.5l-47 -133h-34l46 130q-71 5 -109.5 44.5t-38.5 106.5q0 121 89.5 222.5t195.5 101.5q10 0 28 -3l41 117h35zM288 429
q-33 0 -62 -35t-47 -83t-28.5 -93t-10.5 -71q0 -65 45 -90l125 356v3q0 13 -22 13z" />
    <glyph glyph-name="sterling" unicode="&#xa3;" horiz-adv-x="522" 
d="M436 575q0 12 3.5 30.5t3.5 22.5q0 9 -7 15t-17 6q-45 0 -60 -77l-39 -202h114l-10 -60h-115q-22 -100 -64 -169l-11 -17q83 -32 125 -32q36 0 54.5 13t35.5 50h25q-35 -167 -151 -167q-57 0 -127 61q-38 -60 -98 -60q-40 0 -65 24t-25 62q0 39 26.5 63t69.5 24
q29 0 61 -14q2 20 19 162h-109l10 60h105q64 313 251 313q47 0 78 -26t31 -65q0 -28 -17.5 -48t-43.5 -20q-23 0 -38 14.5t-15 36.5zM153 90q-31 30 -64 30q-23 0 -37 -13.5t-14 -36.5t15.5 -37t40.5 -14q43 0 59 71z" />
    <glyph glyph-name="currency" unicode="&#xa4;" horiz-adv-x="560" 
d="M74 92l98 98q-37 54 -37 120t37 122l-98 98l58 56l96 -96q56 35 122 35t122 -35l96 96l58 -56l-98 -98q37 -59 37 -122q0 -69 -37 -120l98 -98l-58 -58l-96 98q-58 -37 -122 -37t-122 37l-96 -98zM350 443q-53 0 -90 -38.5t-37 -94.5t37 -94.5t90 -38.5q52 0 89.5 39
t37.5 92q0 56 -37 95.5t-90 39.5z" />
    <glyph glyph-name="yen" unicode="&#xa5;" horiz-adv-x="645" 
d="M596 342l-13 -50h-150l-21 -78h152l-14 -50h-152l-3 -11q-16 -57 -16 -85q0 -24 15.5 -32.5t65.5 -10.5v-25h-322v25q58 4 77.5 16.5t31.5 55.5l19 67h-141l14 50h141l22 78h-142l14 50h125l-79 239q-15 38 -28 48.5t-54 14.5v25h280v-25q-43 -2 -59 -8.5t-16 -23.5
q0 -14 6 -32l80 -236l135 194q26 38 26 60q0 26 -14 35t-56 11v25h200v-25q-30 -6 -49.5 -20t-43.5 -49l-166 -233h135z" />
    <glyph glyph-name="brokenbar" unicode="&#xa6;" horiz-adv-x="220" 
d="M66 -18v259h88v-259h-88zM66 426v259h88v-259h-88z" />
    <glyph glyph-name="section" unicode="&#xa7;" horiz-adv-x="500" 
d="M346 580q0 18 18 34.5t18 20.5q0 11 -18 19.5t-41 8.5q-37 0 -61 -20.5t-24 -52.5q0 -43 68 -123l69 -81q60 -71 60 -143q0 -50 -34.5 -86t-82.5 -36q-14 0 -30 4l-2 -4q59 -74 59 -130t-47.5 -95t-116.5 -39q-61 0 -103 30.5t-42 74.5q0 26 16.5 43t41.5 17q24 0 40 -14
t16 -36q0 -18 -9 -30.5t-17.5 -19.5t-8.5 -13q0 -11 20.5 -20t46.5 -9q37 0 61.5 21.5t24.5 54.5q0 25 -15 49.5t-68 89.5l-66 80q-51 61 -51 124q0 52 30.5 89t73.5 37q25 0 49 -6l2 3q-55 61 -55 129q0 59 43.5 96.5t111.5 37.5q59 0 97.5 -27.5t38.5 -70.5
q0 -26 -16.5 -43.5t-41.5 -17.5q-22 0 -38.5 16t-16.5 38zM139 342q0 -40 59 -117t107 -77q23 0 41 17.5t18 40.5q0 50 -62.5 122t-106.5 72q-23 0 -39.5 -17t-16.5 -41z" />
    <glyph glyph-name="dieresis" unicode="&#xa8;" horiz-adv-x="333" 
d="M119 655q27 0 46.5 -19.5t19.5 -46.5q0 -25 -20 -44.5t-46 -19.5q-25 0 -44.5 19.5t-19.5 44.5q0 27 19 46.5t45 19.5zM331 655q27 0 46.5 -19.5t19.5 -46.5q0 -25 -20 -44.5t-46 -19.5q-25 0 -44.5 19.5t-19.5 44.5q0 27 19 46.5t45 19.5z" />
    <glyph glyph-name="copyright" unicode="&#xa9;" horiz-adv-x="747" 
d="M405 538q40 0 81 -11.5t41 -27.5v-71h-17q-20 90 -110 90q-64 0 -99.5 -46t-35.5 -130q0 -86 36 -132.5t102 -46.5q43 0 72 20.5t51 66.5h18l-17 -72q-2 -11 -12 -14q-56 -24 -119 -24q-101 0 -158.5 52t-57.5 143q0 92 61.5 147.5t163.5 55.5zM374 685q144 0 244 -102
t100 -249q0 -150 -100 -251t-249 -101q-140 0 -239.5 102.5t-99.5 247.5q0 148 100 250.5t244 102.5zM374 639q-116 0 -199.5 -90t-83.5 -216q0 -124 83 -214.5t196 -90.5q120 0 203.5 89t83.5 217q0 124 -83.5 214.5t-199.5 90.5z" />
    <glyph glyph-name="ordfeminine" unicode="&#xaa;" horiz-adv-x="266" 
d="M321 342l-14 -86h-246l15 86h245zM327 442q3 0 9 4t12 10t11.5 12t9.5 11l4 5l13 -9q-54 -76 -97 -76q-17 0 -30.5 11.5t-13.5 26.5q0 14 11 51q-28 -49 -52.5 -68.5t-57.5 -19.5q-31 0 -50.5 21t-19.5 55q0 72 59 140.5t121 68.5q37 0 47 -45l11 36l76 4l-46 -140
q-22 -65 -22 -89q0 -9 5 -9zM278 630q0 16 -7.5 22t-14.5 6q-26 0 -64 -68.5t-38 -116.5q0 -11 7 -19.5t17 -8.5q37 0 68.5 72t31.5 113z" />
    <glyph glyph-name="guillemotleft" unicode="&#xab;" horiz-adv-x="500" 
d="M195 32q-2 0 -4.5 2t-8.5 7.5t-13.5 13.5t-22.5 23.5t-31.5 33t-44 46t-58.5 59.5v9l170 124q24 17 44 35t28.5 24t15.5 6q5 0 9 -3.5t4 -8.5q0 -30 -101 -134l-45 -49l40 -83q33 -67 33 -90q0 -6 -4.5 -10.5t-10.5 -4.5zM380 32q-2 0 -4.5 2t-8.5 7.5t-13.5 13.5
t-22.5 23.5t-31.5 33t-44 46t-58.5 59.5v9l170 124q24 17 44 35t28.5 24t15.5 6q5 0 9 -3.5t4 -8.5q0 -30 -101 -134l-45 -49l40 -83q33 -67 33 -90q0 -6 -4.5 -10.5t-10.5 -4.5z" />
    <glyph glyph-name="logicalnot" unicode="&#xac;" horiz-adv-x="606" 
d="M467 108v203h-416v88h504v-291h-88z" />
    <glyph glyph-name="softhyphen" unicode="&#xad;" horiz-adv-x="333" 
d="M271 282l-23 -116h-246l24 116h245z" />
    <glyph glyph-name="registered" unicode="&#xae;" horiz-adv-x="747" 
d="M492 151q-9 0 -18 7t-19.5 22.5t-20.5 33t-27.5 47.5t-34.5 56h-44v-102q0 -32 6 -38t42 -10v-16h-166v16q35 4 41 10t6 38v249q0 32 -6 37.5t-41 9.5v16h183q54 0 85.5 -25.5t31.5 -69.5q0 -74 -81 -104l59 -82q45 -61 74 -84v-11h-70zM328 506v-169h41q32 0 50 24
t18 67q0 78 -69 78h-40zM374 685q144 0 244 -102t100 -249q0 -150 -100 -251t-249 -101q-140 0 -239.5 102.5t-99.5 247.5q0 148 100 250.5t244 102.5zM374 639q-116 0 -199.5 -90t-83.5 -216q0 -124 83 -214.5t196 -90.5q120 0 203.5 89t83.5 217q0 124 -83.5 214.5
t-199.5 90.5z" />
    <glyph glyph-name="macron" unicode="&#xaf;" horiz-adv-x="333" 
d="M393 623l-16 -70h-326l17 70h325z" />
    <glyph glyph-name="degree" unicode="&#xb0;" horiz-adv-x="400" 
d="M315 683q60 0 101.5 -41.5t41.5 -101.5q0 -61 -41.5 -102t-103.5 -41q-58 0 -99.5 42t-41.5 101q0 60 41.5 101.5t101.5 41.5zM315 647q-42 0 -72 -31.5t-30 -75.5t30 -75.5t71 -31.5q43 0 73 31.5t30 75.5q0 43 -30.5 75t-71.5 32z" />
    <glyph glyph-name="plusminus" unicode="&#xb1;" horiz-adv-x="570" 
d="M241 359v209h88v-209h208v-88h-208v-143h-88v143h-208v88h208zM33 0v88h504v-88h-504z" />
    <glyph glyph-name="twosuperior" unicode="&#xb2;" horiz-adv-x="300" 
d="M138 406q143 136 178 179q40 51 40 87q0 31 -16 48.5t-43 17.5q-39 0 -82 -48l-18 11q53 98 144 98q45 0 76.5 -29t31.5 -70q0 -36 -21 -68t-71 -72l-125 -101h89q37 0 54 8.5t36 36.5h16l-51 -114h-238v16z" />
    <glyph glyph-name="threesuperior" unicode="&#xb3;" horiz-adv-x="300" 
d="M170 476q24 0 43.5 -29t42.5 -29q29 0 49.5 26.5t20.5 65.5q0 87 -100 91l2 14q121 22 121 85q0 24 -15 38t-40 14q-38 0 -75 -42l-14 13q57 80 133 80q42 0 70.5 -23.5t28.5 -57.5q0 -29 -15 -46t-64 -45q29 -20 40.5 -39.5t11.5 -48.5q0 -65 -56.5 -111.5t-135.5 -46.5
q-40 0 -62.5 13.5t-22.5 36.5q0 18 10.5 29.5t26.5 11.5z" />
    <glyph glyph-name="acute" unicode="&#xb4;" horiz-adv-x="333" 
d="M188 516h-49l122 131q46 50 70 50q19 0 33.5 -14t14.5 -33q0 -14 -8.5 -24t-30.5 -23z" />
    <glyph glyph-name="micro" unicode="&#xb5;" horiz-adv-x="576" 
d="M89 -108q0 -53 -24 -76t-55 -23q-50 0 -50 61q0 19 4.5 37.5t11.5 35.5t24 59t34 88l111 375h135l-93 -312q-7 -25 -7 -42q0 -25 19 -25q31 0 78 67t73 148l51 164h135l-104 -336q-5 -17 -5 -27q0 -14 12 -14q21 0 63 62l21 -16q-25 -34 -38.5 -50.5t-36 -39t-45 -32
t-47.5 -9.5q-27 0 -45 18t-18 45q0 22 11 68q-40 -67 -67.5 -92.5t-62.5 -25.5q-29 0 -62 24q-21 -66 -23 -132z" />
    <glyph glyph-name="paragraph" unicode="&#xb6;" horiz-adv-x="500" 
d="M201 258q-69 2 -107 31.5t-38 98.5q0 57 22 118.5t54 96.5q62 66 195 66h295l-6 -25q-61 -5 -74 -13.5t-24 -49.5l-169 -649q-16 -72 -16 -74q0 -18 50 -24q3 0 23 -2l-7 -25h-171l217 837h-55l-217 -837h-170l7 25q61 5 74.5 16.5t27.5 67.5q3 10 4 16zM207 283l94 361
q-48 -12 -72 -28.5t-46 -51.5q-21 -35 -34.5 -82.5t-13.5 -87.5q0 -81 72 -111z" />
    <glyph glyph-name="middot" unicode="&#xb7;" horiz-adv-x="250" 
d="M193 305q30 0 51.5 -22t21.5 -52q0 -31 -21.5 -52.5t-53.5 -21.5q-31 0 -52 21t-21 52q0 32 21.5 53.5t53.5 21.5z" />
    <glyph glyph-name="cedilla" unicode="&#xb8;" horiz-adv-x="333" 
d="M-25 -92l66 97h44l-45 -67q15 3 26 3q39 0 64.5 -20.5t25.5 -51.5q0 -37 -35.5 -62t-88.5 -25q-51 0 -112 25l22 33q37 -17 67 -17q26 0 41 11t15 30q0 17 -12.5 26.5t-34.5 9.5q-14 0 -30 -4z" />
    <glyph glyph-name="onesuperior" unicode="&#xb9;" horiz-adv-x="272" 
d="M278 728q0 6 -6 14t-20 8q-2 0 -32 -2l-11 -1l2 21q103 16 177 31l-100 -330q-6 -18 -6 -34t11 -21t48 -5v-19h-224v19q19 0 32.5 3.5t21.5 7.5t15 17.5t10 22t10 32t12 38.5q60 178 60 198z" />
    <glyph glyph-name="ordmasculine" unicode="&#xba;" horiz-adv-x="300" 
d="M317 342l-14 -86h-246l15 86h245zM377 592q0 -66 -54 -129t-131 -63q-46 0 -76 25.5t-30 63.5q0 75 58 135.5t129 60.5q46 0 75 -26t29 -67zM296 630q0 35 -27 35q-30 0 -54.5 -43t-36 -90.5t-11.5 -76.5q0 -35 28 -35q29 0 54 44.5t36 92t11 73.5z" />
    <glyph glyph-name="guillemotright" unicode="&#xbb;" horiz-adv-x="500" 
d="M285 415q4 0 13.5 -10t58 -60.5t111.5 -114.5v-9l-170 -124q-22 -16 -42 -33.5t-29 -24.5t-17 -7q-5 0 -9 3.5t-4 8.5q0 30 101 134l45 49l-40 83q-33 69 -33 90q0 6 4.5 10.5t10.5 4.5zM100 415q4 0 13.5 -10t58 -60.5t111.5 -114.5v-9l-170 -124q-22 -16 -42 -33.5
t-29 -24.5t-17 -7q-5 0 -9 3.5t-4 8.5q0 30 101 134l45 49l-40 83q-33 69 -33 90q0 6 4.5 10.5t10.5 4.5z" />
    <glyph glyph-name="onequarter" unicode="&#xbc;" horiz-adv-x="750" 
d="M718 149l-17 -61h-44l-28 -88h-86l27 88h-159l16 67l278 255h46l-78 -261h45zM455 149h132l52 170zM659 683l-435 -697h-58l435 697h58zM37 274v19q19 0 32.5 3.5t21.5 7.5t15 17.5t10 22t10 32t12 38.5q60 174 60 199q0 8 -8 14.5t-18 6.5q-4 0 -32 -2l-11 -1l2 21
q103 16 177 31l-100 -330q-6 -18 -6 -34t11 -21t48 -5v-19h-224z" />
    <glyph glyph-name="onehalf" unicode="&#xbd;" horiz-adv-x="750" 
d="M664 683l-435 -697h-58l435 697h58zM462 16q143 136 178 179q40 51 40 87q0 31 -16 48.5t-43 17.5q-39 0 -82 -48l-18 11q53 98 144 98q45 0 76.5 -29t31.5 -70q0 -36 -21 -68t-71 -72l-125 -101h89q37 0 54 8.5t36 36.5h16l-51 -114h-238v16zM41 274v19q19 0 32.5 3.5
t21.5 7.5t15 17.5t10 22t10 32t12 38.5q60 174 60 199q0 8 -8 14.5t-18 6.5q-4 0 -32 -2l-11 -1l2 21q103 16 177 31l-100 -330q-6 -18 -6 -34t11 -21t48 -5v-19h-224z" />
    <glyph glyph-name="threequarters" unicode="&#xbe;" horiz-adv-x="750" 
d="M734 149l-17 -61h-44l-28 -88h-86l27 88h-159l16 67l278 255h46l-78 -261h45zM471 149h132l52 170zM675 683l-435 -697h-58l435 697h58zM85 356q20 0 31.5 -14.5l23 -29t30.5 -14.5q30 0 50.5 26.5t20.5 64.5q0 88 -100 92l2 14q121 22 121 85q0 24 -15 38t-40 14
q-38 0 -75 -42l-14 13q57 80 133 80q42 0 70.5 -23.5t28.5 -57.5q0 -29 -15 -45.5t-64 -45.5q29 -20 40.5 -39.5t11.5 -48.5q0 -65 -56 -111.5t-135 -46.5q-40 0 -63 13.5t-23 36.5q0 18 10.5 29.5t26.5 11.5z" />
    <glyph glyph-name="questiondown" unicode="&#xbf;" horiz-adv-x="500" 
d="M288 -136q0 5 -14.5 27.5t-14.5 40.5q0 24 18 41.5t43 17.5q26 0 43.5 -19.5t17.5 -47.5q0 -56 -49.5 -92.5t-125.5 -36.5q-79 0 -127.5 40t-48.5 105q0 47 29.5 87t96.5 83l66 43q29 19 45 42.5t37 75.5l29 -7q-6 -76 -71 -159l-41 -51q-64 -80 -64 -148
q0 -37 18.5 -58.5t50.5 -21.5q24 0 43 12t19 26zM346 344q-30 0 -51.5 22t-21.5 52q0 31 21.5 52.5t53.5 21.5q31 0 52 -21.5t21 -52.5t-21.5 -52.5t-53.5 -21.5z" />
    <glyph glyph-name="Agrave" unicode="&#xc0;" horiz-adv-x="696" 
d="M435 84q0 2 -15 124h-215l-59 -102q-15 -26 -15 -46q0 -35 65 -35v-25h-196v25q27 6 43.5 19.5t39.5 50.5l372 588h25l96 -572q10 -57 22 -69.5t62 -16.5v-25h-304v25q48 5 63.5 16.5t15.5 42.5zM228 248h185l-37 243zM518 719h-45l-133 89q-34 23 -34 47q0 18 13.5 31.5
t31.5 13.5q30 0 56 -34z" />
    <glyph glyph-name="Aacute" unicode="&#xc1;" horiz-adv-x="696" 
d="M435 84q0 2 -15 124h-215l-59 -102q-15 -26 -15 -46q0 -35 65 -35v-25h-196v25q27 6 43.5 19.5t39.5 50.5l372 588h25l96 -572q10 -57 22 -69.5t62 -16.5v-25h-304v25q48 5 63.5 16.5t15.5 42.5zM228 248h185l-37 243zM434 719h-49l122 131q46 50 70 50q19 0 33.5 -14
t14.5 -33q0 -14 -8.5 -24t-30.5 -23z" />
    <glyph glyph-name="Acircumflex" unicode="&#xc2;" horiz-adv-x="696" 
d="M435 84q0 2 -15 124h-215l-59 -102q-15 -26 -15 -46q0 -35 65 -35v-25h-196v25q27 6 43.5 19.5t39.5 50.5l372 588h25l96 -572q10 -57 22 -69.5t62 -16.5v-25h-304v25q48 5 63.5 16.5t15.5 42.5zM228 248h185l-37 243zM564 723l-88 95l-131 -95h-57l160 174h81l86 -174
h-51z" />
    <glyph glyph-name="Atilde" unicode="&#xc3;" horiz-adv-x="696" 
d="M435 84q0 2 -15 124h-215l-59 -102q-15 -26 -15 -46q0 -35 65 -35v-25h-196v25q27 6 43.5 19.5t39.5 50.5l372 588h25l96 -572q10 -57 22 -69.5t62 -16.5v-25h-304v25q48 5 63.5 16.5t15.5 42.5zM228 248h185l-37 243zM428 844q32 0 80.5 -21t61.5 -21q17 0 30.5 9.5
t29.5 32.5h41q-30 -62 -63.5 -90.5t-78.5 -28.5q-23 0 -54 13l-54 23q-20 8 -37 8q-16 0 -29 -9.5t-28 -33.5h-40q21 54 59.5 86t81.5 32z" />
    <glyph glyph-name="Adieresis" unicode="&#xc4;" horiz-adv-x="696" 
d="M435 84q0 2 -15 124h-215l-59 -102q-15 -26 -15 -46q0 -35 65 -35v-25h-196v25q27 6 43.5 19.5t39.5 50.5l372 588h25l96 -572q10 -57 22 -69.5t62 -16.5v-25h-304v25q48 5 63.5 16.5t15.5 42.5zM228 248h185l-37 243zM369 843q27 0 46.5 -19.5t19.5 -46.5
q0 -25 -20 -44.5t-46 -19.5q-25 0 -44.5 19.5t-19.5 44.5q0 27 19 46.5t45 19.5zM581 843q27 0 46.5 -19.5t19.5 -46.5q0 -25 -20 -44.5t-46 -19.5q-25 0 -44.5 19.5t-19.5 44.5q0 27 19 46.5t45 19.5z" />
    <glyph glyph-name="Aring" unicode="&#xc5;" horiz-adv-x="696" 
d="M435 84q0 2 -15 124h-215l-59 -102q-15 -26 -15 -46q0 -35 65 -35v-25h-196v25q27 6 43.5 19.5t39.5 50.5l372 588h25l96 -572q10 -57 22 -69.5t62 -16.5v-25h-304v25q48 5 63.5 16.5t15.5 42.5zM228 248h185l-37 243zM514 900q35 0 57.5 -23t22.5 -57q0 -45 -37.5 -82
t-85.5 -37q-36 0 -58 22.5t-22 56.5q0 48 38.5 84t84.5 36zM501 844q-18 0 -35.5 -16t-17.5 -37q0 -15 9.5 -24.5t24.5 -9.5q20 0 37.5 15t17.5 36q0 16 -10 26t-26 10z" />
    <glyph glyph-name="AE" unicode="&#xc6;" horiz-adv-x="911" 
d="M607 32q49 0 89 9.5t66.5 23t51.5 38t39.5 44.5t34.5 52l26 -3l-59 -196h-527v25q39 6 53 18.5t25 52.5l46 159h-192l-114 -157q-15 -22 -15 -39q0 -16 14 -23.5t50 -10.5v-25h-195v25q8 2 11 2t8.5 2t7 3t6.5 4.5t6.5 6t8 9.5t10.5 12t13 16.5t17 21.5l366 472
q20 27 20 44q0 14 -16.5 19.5t-64.5 8.5v23h589l-45 -190l-24 5l-2 40q-6 113 -162 113q-32 0 -43 -6t-16 -26l-65 -235h19q76 0 110.5 20.5t64.5 85.5l26 -4l-73 -273l-25 5l1 11q2 14 2 36q0 49 -25 65.5t-108 21.5l-63 -241q-5 -18 -5 -28q0 -37 58 -37zM289 294h173
l92 333h-12z" />
    <glyph glyph-name="Ccedilla" unicode="&#xc7;" horiz-adv-x="620" 
d="M585 131q-109 -149 -272 -149q-30 0 -63 6l-34 -50q15 3 26 3q39 0 64.5 -20.5t25.5 -51.5q0 -37 -35.5 -62t-88.5 -25q-52 0 -112 25l22 33q37 -17 67 -17q26 0 41 11t15 30q0 17 -12.5 26.5t-34.5 9.5q-14 0 -30 -4l-13 12l61 90q-82 27 -126.5 90.5t-44.5 152.5
q0 182 120.5 313t287.5 131q53 0 106.5 -14.5t62.5 -14.5q20 0 38 29h30l-51 -234l-32 6q3 19 3 35q0 73 -35 115.5t-96 42.5q-79 0 -145.5 -75t-100.5 -175t-34 -191q0 -82 40 -128t110 -46q32 0 61.5 8.5t49.5 19t41 29t30 28.5t23 27q3 4 5 6z" />
    <glyph glyph-name="Egrave" unicode="&#xc8;" horiz-adv-x="630" 
d="M283 32q82 0 143 24t95.5 57.5t66.5 85.5l25 -5l-59 -194h-554v25q39 6 54 19t26 53l123 449q10 37 10 60q0 13 -8.5 20.5t-19.5 10t-38 6.5q-4 1 -7 1v25h540l-43 -190l-27 5q0 38 -5.5 62t-23.5 47t-56 33.5t-99 10.5q-31 0 -43 -9t-20 -35l-61 -223h13q63 0 95 8
t52.5 29t44.5 69l28 -4l-74 -273l-28 5q4 25 4 44q0 52 -29.5 70.5t-114.5 19.5l-56 -209q0 -2 -7.5 -27.5t-7.5 -35.5q0 -34 61 -34zM478 719h-45l-133 89q-34 23 -34 47q0 18 13.5 31.5t31.5 13.5q30 0 56 -34z" />
    <glyph glyph-name="Eacute" unicode="&#xc9;" horiz-adv-x="630" 
d="M283 32q82 0 143 24t95.5 57.5t66.5 85.5l25 -5l-59 -194h-554v25q39 6 54 19t26 53l123 449q10 37 10 60q0 13 -8.5 20.5t-19.5 10t-38 6.5q-4 1 -7 1v25h540l-43 -190l-27 5q0 38 -5.5 62t-23.5 47t-56 33.5t-99 10.5q-31 0 -43 -9t-20 -35l-61 -223h13q63 0 95 8
t52.5 29t44.5 69l28 -4l-74 -273l-28 5q4 25 4 44q0 52 -29.5 70.5t-114.5 19.5l-56 -209q0 -2 -7.5 -27.5t-7.5 -35.5q0 -34 61 -34zM377 719h-49l122 131q46 50 70 50q19 0 33.5 -14t14.5 -33q0 -14 -8.5 -24t-30.5 -23z" />
    <glyph glyph-name="Ecircumflex" unicode="&#xca;" horiz-adv-x="630" 
d="M283 32q82 0 143 24t95.5 57.5t66.5 85.5l25 -5l-59 -194h-554v25q39 6 54 19t26 53l123 449q10 37 10 60q0 13 -8.5 20.5t-19.5 10t-38 6.5q-4 1 -7 1v25h540l-43 -190l-27 5q0 38 -5.5 62t-23.5 47t-56 33.5t-99 10.5q-31 0 -43 -9t-20 -35l-61 -223h13q63 0 95 8
t52.5 29t44.5 69l28 -4l-74 -273l-28 5q4 25 4 44q0 52 -29.5 70.5t-114.5 19.5l-56 -209q0 -2 -7.5 -27.5t-7.5 -35.5q0 -34 61 -34zM536 723l-88 95l-131 -95h-57l160 174h81l86 -174h-51z" />
    <glyph glyph-name="Edieresis" unicode="&#xcb;" horiz-adv-x="630" 
d="M283 32q82 0 143 24t95.5 57.5t66.5 85.5l25 -5l-59 -194h-554v25q39 6 54 19t26 53l123 449q10 37 10 60q0 13 -8.5 20.5t-19.5 10t-38 6.5q-4 1 -7 1v25h540l-43 -190l-27 5q0 38 -5.5 62t-23.5 47t-56 33.5t-99 10.5q-31 0 -43 -9t-20 -35l-61 -223h13q63 0 95 8
t52.5 29t44.5 69l28 -4l-74 -273l-28 5q4 25 4 44q0 52 -29.5 70.5t-114.5 19.5l-56 -209q0 -2 -7.5 -27.5t-7.5 -35.5q0 -34 61 -34zM322 843q27 0 46.5 -19.5t19.5 -46.5q0 -25 -20 -44.5t-46 -19.5q-25 0 -44.5 19.5t-19.5 44.5q0 27 19 46.5t45 19.5zM534 843
q27 0 46.5 -19.5t19.5 -46.5q0 -25 -20 -44.5t-46 -19.5q-25 0 -44.5 19.5t-19.5 44.5q0 27 19 46.5t45 19.5z" />
    <glyph glyph-name="Igrave" unicode="&#xcc;" horiz-adv-x="374" 
d="M213 607q0 19 -13 24.5t-60 12.5v25h298v-25q-39 -5 -55.5 -19t-26.5 -53l-114 -420q-18 -68 -18 -87q0 -21 15 -29.5t57 -10.5v-25h-296v25q37 5 53.5 19t26.5 53l123 449q10 36 10 61zM356 719h-45l-133 89q-34 23 -34 47q0 18 13.5 31.5t31.5 13.5q30 0 56 -34z" />
    <glyph glyph-name="Iacute" unicode="&#xcd;" horiz-adv-x="374" 
d="M213 607q0 19 -13 24.5t-60 12.5v25h298v-25q-39 -5 -55.5 -19t-26.5 -53l-114 -420q-18 -68 -18 -87q0 -21 15 -29.5t57 -10.5v-25h-296v25q37 5 53.5 19t26.5 53l123 449q10 36 10 61zM284 719h-49l122 131q46 50 70 50q19 0 33.5 -14t14.5 -33q0 -14 -8.5 -24
t-30.5 -23z" />
    <glyph glyph-name="Icircumflex" unicode="&#xce;" horiz-adv-x="374" 
d="M213 607q0 19 -13 24.5t-60 12.5v25h298v-25q-39 -5 -55.5 -19t-26.5 -53l-114 -420q-18 -68 -18 -87q0 -21 15 -29.5t57 -10.5v-25h-296v25q37 5 53.5 19t26.5 53l123 449q10 36 10 61zM407 723l-88 95l-131 -95h-57l160 174h81l86 -174h-51z" />
    <glyph glyph-name="Idieresis" unicode="&#xcf;" horiz-adv-x="374" 
d="M213 607q0 19 -13 24.5t-60 12.5v25h298v-25q-39 -5 -55.5 -19t-26.5 -53l-114 -420q-18 -68 -18 -87q0 -21 15 -29.5t57 -10.5v-25h-296v25q37 5 53.5 19t26.5 53l123 449q10 36 10 61zM198 845q27 0 46.5 -19.5t19.5 -46.5q0 -25 -20 -44.5t-46 -19.5q-25 0 -44.5 19.5
t-19.5 44.5q0 27 19 46.5t45 19.5zM410 845q27 0 46.5 -19.5t19.5 -46.5q0 -25 -20 -44.5t-46 -19.5q-25 0 -44.5 19.5t-19.5 44.5q0 27 19 46.5t45 19.5z" />
    <glyph glyph-name="Eth" unicode="&#xd0;" horiz-adv-x="723" 
d="M213 602q0 23 -14 29.5t-59 12.5v25h290q142 0 221.5 -72.5t79.5 -200.5q0 -170 -127 -283t-318 -113h-286v25q37 5 53.5 19.5t26.5 52.5l63 232h-102l12 44h102l46 170q12 47 12 59zM303 373h122l-12 -44h-122l-55 -203q-1 -2 -1 -4q-12 -35 -12 -54q0 -34 54 -34
q140 0 219 113q41 58 64.5 141.5t23.5 168.5q0 181 -165 181q-45 0 -55 -38z" />
    <glyph glyph-name="Ntilde" unicode="&#xd1;" horiz-adv-x="705" 
d="M333 669l215 -465l80 287q18 65 18 94t-18 42t-62 17v25h209v-25q-44 -10 -59.5 -32.5t-42.5 -120.5l-143 -506h-28l-257 549l-99 -356q-18 -67 -18 -94q0 -29 18 -42t62 -17v-25h-208v25q41 8 57 31.5t44 121.5l120 411q-14 33 -28 42t-55 13v25h195zM421 843
q32 0 80.5 -21t61.5 -21q17 0 30.5 9.5t29.5 32.5h41q-30 -62 -63.5 -90.5t-78.5 -28.5q-23 0 -54 13l-54 23q-20 8 -37 8q-16 0 -29 -9.5t-28 -33.5h-40q21 54 59.5 86t81.5 32z" />
    <glyph glyph-name="Ograve" unicode="&#xd2;" horiz-adv-x="676" 
d="M36 221q0 72 32 153t86.5 150.5t135 115t168.5 45.5q104 0 173 -65.5t69 -165.5q0 -77 -31.5 -160t-85.5 -152.5t-136.5 -114.5t-174.5 -45q-106 0 -171 66t-65 173zM454 651q-94 0 -168 -131q-41 -72 -73.5 -189t-32.5 -194q0 -56 27.5 -88.5t74.5 -32.5q78 0 145 97
q50 74 89.5 201t39.5 217q0 54 -28 87t-74 33zM542 719h-45l-133 89q-34 23 -34 47q0 18 13.5 31.5t31.5 13.5q30 0 56 -34z" />
    <glyph glyph-name="Oacute" unicode="&#xd3;" horiz-adv-x="676" 
d="M36 221q0 72 32 153t86.5 150.5t135 115t168.5 45.5q104 0 173 -65.5t69 -165.5q0 -77 -31.5 -160t-85.5 -152.5t-136.5 -114.5t-174.5 -45q-106 0 -171 66t-65 173zM454 651q-94 0 -168 -131q-41 -72 -73.5 -189t-32.5 -194q0 -56 27.5 -88.5t74.5 -32.5q78 0 145 97
q50 74 89.5 201t39.5 217q0 54 -28 87t-74 33zM433 719h-49l122 131q46 50 70 50q19 0 33.5 -14t14.5 -33q0 -14 -8.5 -24t-30.5 -23z" />
    <glyph glyph-name="Ocircumflex" unicode="&#xd4;" horiz-adv-x="676" 
d="M36 221q0 72 32 153t86.5 150.5t135 115t168.5 45.5q104 0 173 -65.5t69 -165.5q0 -77 -31.5 -160t-85.5 -152.5t-136.5 -114.5t-174.5 -45q-106 0 -171 66t-65 173zM454 651q-94 0 -168 -131q-41 -72 -73.5 -189t-32.5 -194q0 -56 27.5 -88.5t74.5 -32.5q78 0 145 97
q50 74 89.5 201t39.5 217q0 54 -28 87t-74 33zM569 723l-88 95l-131 -95h-57l160 174h81l86 -174h-51z" />
    <glyph glyph-name="Otilde" unicode="&#xd5;" horiz-adv-x="676" 
d="M36 221q0 72 32 153t86.5 150.5t135 115t168.5 45.5q104 0 173 -65.5t69 -165.5q0 -77 -31.5 -160t-85.5 -152.5t-136.5 -114.5t-174.5 -45q-106 0 -171 66t-65 173zM454 651q-94 0 -168 -131q-41 -72 -73.5 -189t-32.5 -194q0 -56 27.5 -88.5t74.5 -32.5q78 0 145 97
q50 74 89.5 201t39.5 217q0 54 -28 87t-74 33zM443 843q32 0 80.5 -21t61.5 -21q17 0 30.5 9.5t29.5 32.5h41q-30 -62 -63.5 -90.5t-78.5 -28.5q-23 0 -54 13l-54 23q-20 8 -37 8q-16 0 -29 -9.5t-28 -33.5h-40q21 54 59.5 86t81.5 32z" />
    <glyph glyph-name="Odieresis" unicode="&#xd6;" horiz-adv-x="676" 
d="M36 221q0 72 32 153t86.5 150.5t135 115t168.5 45.5q104 0 173 -65.5t69 -165.5q0 -77 -31.5 -160t-85.5 -152.5t-136.5 -114.5t-174.5 -45q-106 0 -171 66t-65 173zM454 651q-94 0 -168 -131q-41 -72 -73.5 -189t-32.5 -194q0 -56 27.5 -88.5t74.5 -32.5q78 0 145 97
q50 74 89.5 201t39.5 217q0 54 -28 87t-74 33zM350 842q27 0 46.5 -19.5t19.5 -46.5q0 -25 -20 -44.5t-46 -19.5q-25 0 -44.5 19.5t-19.5 44.5q0 27 19 46.5t45 19.5zM562 842q27 0 46.5 -19.5t19.5 -46.5q0 -25 -20 -44.5t-46 -19.5q-25 0 -44.5 19.5t-19.5 44.5
q0 27 19 46.5t45 19.5z" />
    <glyph glyph-name="multiply" unicode="&#xd7;" horiz-adv-x="570" 
d="M223 253l-175 175l62 62l175 -176l175 176l62 -62l-176 -175l176 -175l-62 -62l-175 176l-175 -176l-62 62z" />
    <glyph glyph-name="Oslash" unicode="&#xd8;" horiz-adv-x="676" 
d="M153 11q-117 69 -117 201q0 118 60 228t158.5 177.5t203.5 67.5q40 0 82 -13l53 92h49l-63 -108q121 -72 121 -203q0 -77 -32 -159.5t-86.5 -152t-136 -114.5t-170.5 -45q-43 0 -83 13l-70 -120h-48zM191 77l324 553q-27 21 -63 21q-92 0 -165 -130q-43 -77 -75 -190
t-32 -190q0 -33 11 -64zM282 16q52 0 98.5 43t77.5 106.5t54 136t33.5 131.5t10.5 93q0 33 -14 67l-325 -555q27 -22 65 -22z" />
    <glyph glyph-name="Ugrave" unicode="&#xd9;" horiz-adv-x="714" 
d="M784 669v-25q-42 -8 -58 -31.5t-44 -121.5l-66 -228q-1 -3 -8 -30t-11 -38.5t-14 -39.5t-20.5 -43t-26.5 -38.5t-35.5 -37t-44.5 -27.5t-57 -20.5t-69 -6.5q-98 0 -160.5 46.5t-62.5 119.5q0 55 33 175l56 206q15 55 15 76q0 16 -9 23.5t-33 11.5q-3 0 -31 4v25h311v-25
q-47 -2 -64.5 -15.5t-29.5 -56.5l-82 -300q-28 -102 -28 -133q0 -47 32.5 -74t89.5 -27q82 0 133 60q42 52 79 184l58 209q19 71 19 97t-18.5 39t-61.5 17v25h208zM541 719h-45l-133 89q-34 23 -34 47q0 18 13.5 31.5t31.5 13.5q30 0 56 -34z" />
    <glyph glyph-name="Uacute" unicode="&#xda;" horiz-adv-x="714" 
d="M784 669v-25q-42 -8 -58 -31.5t-44 -121.5l-66 -228q-1 -3 -8 -30t-11 -38.5t-14 -39.5t-20.5 -43t-26.5 -38.5t-35.5 -37t-44.5 -27.5t-57 -20.5t-69 -6.5q-98 0 -160.5 46.5t-62.5 119.5q0 55 33 175l56 206q15 55 15 76q0 16 -9 23.5t-33 11.5q-3 0 -31 4v25h311v-25
q-47 -2 -64.5 -15.5t-29.5 -56.5l-82 -300q-28 -102 -28 -133q0 -47 32.5 -74t89.5 -27q82 0 133 60q42 52 79 184l58 209q19 71 19 97t-18.5 39t-61.5 17v25h208zM479 719h-49l122 131q46 50 70 50q19 0 33.5 -14t14.5 -33q0 -14 -8.5 -24t-30.5 -23z" />
    <glyph glyph-name="Ucircumflex" unicode="&#xdb;" horiz-adv-x="714" 
d="M784 669v-25q-42 -8 -58 -31.5t-44 -121.5l-66 -228q-1 -3 -8 -30t-11 -38.5t-14 -39.5t-20.5 -43t-26.5 -38.5t-35.5 -37t-44.5 -27.5t-57 -20.5t-69 -6.5q-98 0 -160.5 46.5t-62.5 119.5q0 55 33 175l56 206q15 55 15 76q0 16 -9 23.5t-33 11.5q-3 0 -31 4v25h311v-25
q-47 -2 -64.5 -15.5t-29.5 -56.5l-82 -300q-28 -102 -28 -133q0 -47 32.5 -74t89.5 -27q82 0 133 60q42 52 79 184l58 209q19 71 19 97t-18.5 39t-61.5 17v25h208zM601 723l-88 95l-131 -95h-57l160 174h81l86 -174h-51z" />
    <glyph glyph-name="Udieresis" unicode="&#xdc;" horiz-adv-x="714" 
d="M784 669v-25q-42 -8 -58 -31.5t-44 -121.5l-66 -228q-1 -3 -8 -30t-11 -38.5t-14 -39.5t-20.5 -43t-26.5 -38.5t-35.5 -37t-44.5 -27.5t-57 -20.5t-69 -6.5q-98 0 -160.5 46.5t-62.5 119.5q0 55 33 175l56 206q15 55 15 76q0 16 -9 23.5t-33 11.5q-3 0 -31 4v25h311v-25
q-47 -2 -64.5 -15.5t-29.5 -56.5l-82 -300q-28 -102 -28 -133q0 -47 32.5 -74t89.5 -27q82 0 133 60q42 52 79 184l58 209q19 71 19 97t-18.5 39t-61.5 17v25h208zM404 839q27 0 46.5 -19.5t19.5 -46.5q0 -25 -20 -44.5t-46 -19.5q-25 0 -44.5 19.5t-19.5 44.5q0 27 19 46.5
t45 19.5zM616 839q27 0 46.5 -19.5t19.5 -46.5q0 -25 -20 -44.5t-46 -19.5q-25 0 -44.5 19.5t-19.5 44.5q0 27 19 46.5t45 19.5z" />
    <glyph glyph-name="Yacute" unicode="&#xdd;" horiz-adv-x="639" 
d="M289 313l-88 268q-13 40 -23.5 49t-49.5 14v25h283v-25q-41 -1 -55.5 -8.5t-14.5 -28.5q0 -9 2 -18.5t8 -30.5t13 -41.5t23 -69t31 -95.5l129 186q26 38 26 60q0 26 -13.5 35t-53.5 11v25h208v-25q-29 -6 -48 -20t-43 -49l-190 -267l-52 -191q-8 -31 -8 -45
q0 -28 14 -36.5t63 -10.5v-25h-322v25q52 4 70.5 16.5t30.5 55.5zM430 719h-49l122 131q46 50 70 50q19 0 33.5 -14t14.5 -33q0 -14 -8.5 -24t-30.5 -23z" />
    <glyph glyph-name="Thorn" unicode="&#xde;" horiz-adv-x="597" 
d="M140 644v25h294v-25q-40 -5 -53.5 -17t-28.5 -55l-13 -38h48q104 0 159 -39.5t55 -115.5q0 -90 -74.5 -143.5t-199.5 -53.5q-36 0 -81 5l-14 -64q-10 -44 -10 -59q0 -20 15 -28.5t57 -10.5v-25h-294v25q39 6 54 19t26 53l123 449q10 37 10 61q0 28 -42 33q-3 0 -31 4z
M371 502q-26 0 -35 -10t-15 -29q0 -3 -1 -5l-64 -239q38 -2 42 -2q53 0 83.5 19t50.5 63q23 51 23 112q0 43 -22 67t-62 24z" />
    <glyph glyph-name="ssharp" unicode="&#xdf;" horiz-adv-x="580" 
d="M440 304q0 44 -18 59.5t-56 20.5l7 37h16q2 0 4.5 -1t5.5 -1q31 0 59.5 56.5t28.5 139.5q0 60 -47 60q-34 0 -58 -39t-43 -127l-91 -407q-68 -302 -226 -302q-43 0 -70 21.5t-27 55.5q0 24 14 38.5t37 14.5q22 0 35 -12t13 -33q0 -19 -8.5 -28t-8.5 -15q0 -11 16 -11
q28 0 47 29t39 120l92 423q66 302 251 302q64 0 105 -37t41 -94q0 -35 -15 -63.5t-44 -49t-56.5 -34t-66.5 -28.5q144 -31 144 -143q0 -105 -66.5 -187t-153.5 -82q-43 0 -73 22l20 35q19 -23 47 -23q23 0 43.5 30t34 74.5t21 92t7.5 86.5z" />
    <glyph glyph-name="agrave" unicode="&#xe0;" horiz-adv-x="509" 
d="M338 373q0 21 -11.5 34t-27.5 13q-30 0 -69 -55.5t-66 -129t-27 -123.5q0 -23 13 -38.5t32 -15.5q40 0 78.5 66t58 138t19.5 111zM469 127l21 -15q-83 -126 -151 -126q-28 0 -47.5 19t-19.5 47q0 17 14 67q-43 -71 -80.5 -101.5t-83.5 -30.5q-49 0 -78.5 35t-29.5 92
q0 76 42 158t106.5 136t124.5 54q32 0 49.5 -17t24.5 -55l18 59l111 7l-71 -236q-34 -115 -34 -148q0 -15 12 -15t26.5 14t45.5 56zM370 516h-45l-133 89q-34 23 -34 47q0 18 13.5 31.5t31.5 13.5q30 0 56 -34z" />
    <glyph glyph-name="aacute" unicode="&#xe1;" horiz-adv-x="509" 
d="M338 373q0 21 -11.5 34t-27.5 13q-30 0 -69 -55.5t-66 -129t-27 -123.5q0 -23 13 -38.5t32 -15.5q40 0 78.5 66t58 138t19.5 111zM469 127l21 -15q-83 -126 -151 -126q-28 0 -47.5 19t-19.5 47q0 17 14 67q-43 -71 -80.5 -101.5t-83.5 -30.5q-49 0 -78.5 35t-29.5 92
q0 76 42 158t106.5 136t124.5 54q32 0 49.5 -17t24.5 -55l18 59l111 7l-71 -236q-34 -115 -34 -148q0 -15 12 -15t26.5 14t45.5 56zM282 516h-49l122 131q46 50 70 50q19 0 33.5 -14t14.5 -33q0 -14 -8.5 -24t-30.5 -23z" />
    <glyph glyph-name="acircumflex" unicode="&#xe2;" horiz-adv-x="509" 
d="M338 373q0 21 -11.5 34t-27.5 13q-30 0 -69 -55.5t-66 -129t-27 -123.5q0 -23 13 -38.5t32 -15.5q40 0 78.5 66t58 138t19.5 111zM469 127l21 -15q-83 -126 -151 -126q-28 0 -47.5 19t-19.5 47q0 17 14 67q-43 -71 -80.5 -101.5t-83.5 -30.5q-49 0 -78.5 35t-29.5 92
q0 76 42 158t106.5 136t124.5 54q32 0 49.5 -17t24.5 -55l18 59l111 7l-71 -236q-34 -115 -34 -148q0 -15 12 -15t26.5 14t45.5 56zM410 516l-88 95l-131 -95h-57l160 174h81l86 -174h-51z" />
    <glyph glyph-name="atilde" unicode="&#xe3;" horiz-adv-x="509" 
d="M338 373q0 21 -11.5 34t-27.5 13q-30 0 -69 -55.5t-66 -129t-27 -123.5q0 -23 13 -38.5t32 -15.5q40 0 78.5 66t58 138t19.5 111zM469 127l21 -15q-83 -126 -151 -126q-28 0 -47.5 19t-19.5 47q0 17 14 67q-43 -71 -80.5 -101.5t-83.5 -30.5q-49 0 -78.5 35t-29.5 92
q0 76 42 158t106.5 136t124.5 54q32 0 49.5 -17t24.5 -55l18 59l111 7l-71 -236q-34 -115 -34 -148q0 -15 12 -15t26.5 14t45.5 56zM262 628q32 0 80.5 -21t61.5 -21q17 0 30.5 9.5t29.5 32.5h41q-30 -62 -63.5 -90.5t-78.5 -28.5q-23 0 -54 13l-54 23q-20 8 -37 8
q-16 0 -29 -9.5t-28 -33.5h-40q21 54 59.5 86t81.5 32z" />
    <glyph glyph-name="adieresis" unicode="&#xe4;" horiz-adv-x="509" 
d="M338 373q0 21 -11.5 34t-27.5 13q-30 0 -69 -55.5t-66 -129t-27 -123.5q0 -23 13 -38.5t32 -15.5q40 0 78.5 66t58 138t19.5 111zM469 127l21 -15q-83 -126 -151 -126q-28 0 -47.5 19t-19.5 47q0 17 14 67q-43 -71 -80.5 -101.5t-83.5 -30.5q-49 0 -78.5 35t-29.5 92
q0 76 42 158t106.5 136t124.5 54q32 0 49.5 -17t24.5 -55l18 59l111 7l-71 -236q-34 -115 -34 -148q0 -15 12 -15t26.5 14t45.5 56zM203 634q27 0 46.5 -19.5t19.5 -46.5q0 -25 -20 -44.5t-46 -19.5q-25 0 -44.5 19.5t-19.5 44.5q0 27 19 46.5t45 19.5zM415 634
q27 0 46.5 -19.5t19.5 -46.5q0 -25 -20 -44.5t-46 -19.5q-25 0 -44.5 19.5t-19.5 44.5q0 27 19 46.5t45 19.5z" />
    <glyph glyph-name="aring" unicode="&#xe5;" horiz-adv-x="509" 
d="M338 373q0 21 -11.5 34t-27.5 13q-30 0 -69 -55.5t-66 -129t-27 -123.5q0 -23 13 -38.5t32 -15.5q40 0 78.5 66t58 138t19.5 111zM469 127l21 -15q-83 -126 -151 -126q-28 0 -47.5 19t-19.5 47q0 17 14 67q-43 -71 -80.5 -101.5t-83.5 -30.5q-49 0 -78.5 35t-29.5 92
q0 76 42 158t106.5 136t124.5 54q32 0 49.5 -17t24.5 -55l18 59l111 7l-71 -236q-34 -115 -34 -148q0 -15 12 -15t26.5 14t45.5 56zM348 710q35 0 57.5 -23t22.5 -57q0 -45 -37.5 -82t-85.5 -37q-36 0 -58 22.5t-22 56.5q0 48 38.5 84t84.5 36zM335 654q-18 0 -35.5 -16
t-17.5 -37q0 -15 9.5 -24.5t24.5 -9.5q20 0 37.5 15t17.5 36q0 16 -10 26t-26 10z" />
    <glyph glyph-name="ae" unicode="&#xe6;" horiz-adv-x="697" 
d="M450 -13q-64 0 -97.5 31t-45.5 100q-42 -69 -82.5 -99.5t-90.5 -30.5q-49 0 -81.5 33.5t-32.5 84.5q0 79 42.5 163t107.5 138.5t126 54.5q32 0 50 -14.5t31 -51.5l18 58l103 5l-20 -65q32 37 57.5 51t62.5 14q47 0 73.5 -23t26.5 -64q0 -62 -59.5 -109.5t-168.5 -72.5
l-39 -9q-5 -25 -5 -47q0 -38 18 -61t49 -23q72 0 123 89l28 -17q-66 -135 -194 -135zM194 58q44 0 84.5 64.5t60 134t19.5 106.5q0 24 -13.5 40t-34.5 16q-43 0 -83 -63t-60.5 -131.5t-20.5 -105.5q0 -27 13 -44t35 -17zM438 214q60 9 115 57.5t55 116.5q0 41 -33 41
q-73 0 -132 -198z" />
    <glyph glyph-name="ccedilla" unicode="&#xe7;" horiz-adv-x="417" 
d="M364 123q-44 -62 -70 -85q-58 -51 -128 -51q-11 0 -18 1l-34 -50q15 3 26 3q39 0 64.5 -20.5t25.5 -51.5q0 -37 -35.5 -62t-88.5 -25q-51 0 -112 25l22 33q37 -17 67 -17q26 0 41 11t15 30q0 17 -12.5 26.5t-34.5 9.5q-14 0 -30 -4l-13 12l60 88q-46 16 -71 53.5
t-25 88.5q0 120 89.5 222t195.5 102q50 0 81 -25t31 -65q0 -31 -17.5 -50.5t-44.5 -19.5q-25 0 -41.5 15t-16.5 37q0 15 10.5 34.5t10.5 23.5q0 17 -22 17q-35 0 -64.5 -36t-47 -86t-27 -95.5t-9.5 -70.5q0 -40 20.5 -65t52.5 -25t59 20t63 70z" />
    <glyph glyph-name="egrave" unicode="&#xe8;" horiz-adv-x="417" 
d="M374 516h-45l-133 89q-34 23 -34 47q0 18 13.5 31.5t31.5 13.5q30 0 56 -34zM336 142l29 -17q-45 -74 -89 -106t-101 -32q-65 0 -108 42t-43 105q0 124 90 226t198 102q46 0 75.5 -24.5t29.5 -62.5q0 -21 -9 -43.5t-33.5 -52t-79.5 -56t-135 -41.5q-6 -30 -6 -49
q0 -82 65 -82q31 0 56.5 19.5t60.5 71.5zM167 214q72 26 115 66.5t43 114.5q0 34 -28 34q-74 0 -130 -215z" />
    <glyph glyph-name="eacute" unicode="&#xe9;" horiz-adv-x="417" 
d="M336 142l29 -17q-45 -74 -89 -106t-101 -32q-65 0 -108 42t-43 105q0 124 90 226t198 102q46 0 75.5 -24.5t29.5 -62.5q0 -21 -9 -43.5t-33.5 -52t-79.5 -56t-135 -41.5q-6 -30 -6 -49q0 -82 65 -82q31 0 56.5 19.5t60.5 71.5zM167 214q72 26 115 66.5t43 114.5
q0 34 -28 34q-74 0 -130 -215zM284 516h-49l122 131q46 50 70 50q19 0 33.5 -14t14.5 -33q0 -14 -8.5 -24t-30.5 -23z" />
    <glyph glyph-name="ecircumflex" unicode="&#xea;" horiz-adv-x="417" 
d="M336 142l29 -17q-45 -74 -89 -106t-101 -32q-65 0 -108 42t-43 105q0 124 90 226t198 102q46 0 75.5 -24.5t29.5 -62.5q0 -21 -9 -43.5t-33.5 -52t-79.5 -56t-135 -41.5q-6 -30 -6 -49q0 -82 65 -82q31 0 56.5 19.5t60.5 71.5zM167 214q72 26 115 66.5t43 114.5
q0 34 -28 34q-74 0 -130 -215zM412 516l-88 95l-131 -95h-57l160 174h81l86 -174h-51z" />
    <glyph glyph-name="edieresis" unicode="&#xeb;" horiz-adv-x="417" 
d="M336 142l29 -17q-45 -74 -89 -106t-101 -32q-65 0 -108 42t-43 105q0 124 90 226t198 102q46 0 75.5 -24.5t29.5 -62.5q0 -21 -9 -43.5t-33.5 -52t-79.5 -56t-135 -41.5q-6 -30 -6 -49q0 -82 65 -82q31 0 56.5 19.5t60.5 71.5zM167 214q72 26 115 66.5t43 114.5
q0 34 -28 34q-74 0 -130 -215zM205 630q27 0 46.5 -19.5t19.5 -46.5q0 -25 -20 -44.5t-46 -19.5q-25 0 -44.5 19.5t-19.5 44.5q0 27 19 46.5t45 19.5zM417 630q27 0 46.5 -19.5t19.5 -46.5q0 -25 -20 -44.5t-46 -19.5q-25 0 -44.5 19.5t-19.5 44.5q0 27 19 46.5t45 19.5z
" />
    <glyph glyph-name="igrave" unicode="&#xec;" horiz-adv-x="292" 
d="M254 141l22 -14q-53 -79 -87.5 -107.5t-79.5 -28.5q-31 0 -50 17.5t-19 45.5q0 24 13 69l58 215q7 30 7 40q0 16 -13.5 22.5t-45.5 6.5v27q116 9 202 28l-91 -334q-9 -36 -9 -52q0 -6 4.5 -10.5t10.5 -4.5q24 0 64 60zM280 516h-45l-133 89q-34 23 -34 47q0 18 13.5 31.5
t31.5 13.5q30 0 56 -34z" />
    <glyph glyph-name="iacute" unicode="&#xed;" horiz-adv-x="292" 
d="M254 141l22 -14q-53 -79 -87.5 -107.5t-79.5 -28.5q-31 0 -50 17.5t-19 45.5q0 24 13 69l58 215q7 30 7 40q0 16 -13.5 22.5t-45.5 6.5v27q116 9 202 28l-91 -334q-9 -36 -9 -52q0 -6 4.5 -10.5t10.5 -4.5q24 0 64 60zM141 516h-49l122 131q46 50 70 50q19 0 33.5 -14
t14.5 -33q0 -14 -8.5 -24t-30.5 -23z" />
    <glyph glyph-name="icircumflex" unicode="&#xee;" horiz-adv-x="292" 
d="M254 141l22 -14q-53 -79 -87.5 -107.5t-79.5 -28.5q-31 0 -50 17.5t-19 45.5q0 24 13 69l58 215q7 30 7 40q0 16 -13.5 22.5t-45.5 6.5v27q116 9 202 28l-91 -334q-9 -36 -9 -52q0 -6 4.5 -10.5t10.5 -4.5q24 0 64 60zM319 516l-88 95l-131 -95h-57l160 174h81l86 -174
h-51z" />
    <glyph glyph-name="idieresis" unicode="&#xef;" horiz-adv-x="292" 
d="M254 141l22 -14q-53 -79 -87.5 -107.5t-79.5 -28.5q-31 0 -50 17.5t-19 45.5q0 24 13 69l58 215q7 30 7 40q0 16 -13.5 22.5t-45.5 6.5v27q116 9 202 28l-91 -334q-9 -36 -9 -52q0 -6 4.5 -10.5t10.5 -4.5q24 0 64 60zM111 636q27 0 46.5 -19.5t19.5 -46.5
q0 -25 -20 -44.5t-46 -19.5q-25 0 -44.5 19.5t-19.5 44.5q0 27 19 46.5t45 19.5zM323 636q27 0 46.5 -19.5t19.5 -46.5q0 -25 -20 -44.5t-46 -19.5q-25 0 -44.5 19.5t-19.5 44.5q0 27 19 46.5t45 19.5z" />
    <glyph glyph-name="eth" unicode="&#xf0;" horiz-adv-x="450" 
d="M303 574l-119 -62l-33 31l122 64q-58 55 -116 65l44 27q71 -10 132 -60l107 57l34 -32l-107 -56q50 -59 72 -114t22 -122q0 -157 -85 -271t-201 -114q-68 0 -113 42t-45 105q0 81 39.5 157.5t103.5 123.5t132 47q43 0 71 -42l2 4q-6 78 -62 150zM185 16q37 0 69 46
t50 109.5t28 119t10 84.5q0 27 -12.5 42.5t-33.5 15.5q-43 0 -81.5 -63t-58.5 -142.5t-20 -141.5q0 -70 49 -70z" />
    <glyph glyph-name="ntilde" unicode="&#xf1;" horiz-adv-x="526" 
d="M194 263q78 115 121 157t102 42q35 0 54 -19.5t19 -55.5q0 -35 -26 -115l-36 -109q-25 -75 -25 -87q0 -17 14 -17q13 0 26.5 15t43.5 61l22 -13q-43 -73 -79 -102t-80 -29q-31 0 -49.5 16t-18.5 44q0 47 28 131l55 166q5 17 5 21q0 8 -8 14.5t-17 6.5q-14 0 -34 -14.5
t-35 -34.5q-46 -60 -77.5 -135t-67.5 -206h-121l56 204q46 162 46 178q0 14 -11 19t-43 6v27q92 3 200 27zM287 631q32 0 80.5 -21t61.5 -21q17 0 30.5 9.5t29.5 32.5h41q-30 -62 -63.5 -90.5t-78.5 -28.5q-23 0 -54 13l-54 23q-20 8 -37 8q-16 0 -29 -9.5t-28 -33.5h-40
q21 54 59.5 86t81.5 32z" />
    <glyph glyph-name="ograve" unicode="&#xf2;" horiz-adv-x="474" 
d="M312 462q68 0 112.5 -42.5t44.5 -108.5q0 -127 -86.5 -225.5t-198.5 -98.5q-69 0 -114 42t-45 106q0 126 88.5 226.5t198.5 100.5zM193 16q37 0 69 46t50 109.5t28 119t10 84.5q0 27 -12.5 42.5t-34.5 15.5q-44 0 -82 -64.5t-57.5 -145t-19.5 -145.5q0 -28 13 -45t36 -17
zM390 516h-45l-133 89q-34 23 -34 47q0 18 13.5 31.5t31.5 13.5q30 0 56 -34z" />
    <glyph glyph-name="oacute" unicode="&#xf3;" horiz-adv-x="474" 
d="M312 462q68 0 112.5 -42.5t44.5 -108.5q0 -127 -86.5 -225.5t-198.5 -98.5q-69 0 -114 42t-45 106q0 126 88.5 226.5t198.5 100.5zM193 16q37 0 69 46t50 109.5t28 119t10 84.5q0 27 -12.5 42.5t-34.5 15.5q-44 0 -82 -64.5t-57.5 -145t-19.5 -145.5q0 -28 13 -45t36 -17
zM272 516h-49l122 131q46 50 70 50q19 0 33.5 -14t14.5 -33q0 -14 -8.5 -24t-30.5 -23z" />
    <glyph glyph-name="ocircumflex" unicode="&#xf4;" horiz-adv-x="474" 
d="M312 462q68 0 112.5 -42.5t44.5 -108.5q0 -127 -86.5 -225.5t-198.5 -98.5q-69 0 -114 42t-45 106q0 126 88.5 226.5t198.5 100.5zM193 16q37 0 69 46t50 109.5t28 119t10 84.5q0 27 -12.5 42.5t-34.5 15.5q-44 0 -82 -64.5t-57.5 -145t-19.5 -145.5q0 -28 13 -45t36 -17
zM420 516l-88 95l-131 -95h-57l160 174h81l86 -174h-51z" />
    <glyph glyph-name="otilde" unicode="&#xf5;" horiz-adv-x="474" 
d="M312 462q68 0 112.5 -42.5t44.5 -108.5q0 -127 -86.5 -225.5t-198.5 -98.5q-69 0 -114 42t-45 106q0 126 88.5 226.5t198.5 100.5zM193 16q37 0 69 46t50 109.5t28 119t10 84.5q0 27 -12.5 42.5t-34.5 15.5q-44 0 -82 -64.5t-57.5 -145t-19.5 -145.5q0 -28 13 -45t36 -17
zM272 629q32 0 80.5 -21t61.5 -21q17 0 30.5 9.5t29.5 32.5h41q-30 -62 -63.5 -90.5t-78.5 -28.5q-23 0 -54 13l-54 23q-20 8 -37 8q-16 0 -29 -9.5t-28 -33.5h-40q21 54 59.5 86t81.5 32z" />
    <glyph glyph-name="odieresis" unicode="&#xf6;" horiz-adv-x="474" 
d="M312 462q68 0 112.5 -42.5t44.5 -108.5q0 -127 -86.5 -225.5t-198.5 -98.5q-69 0 -114 42t-45 106q0 126 88.5 226.5t198.5 100.5zM193 16q37 0 69 46t50 109.5t28 119t10 84.5q0 27 -12.5 42.5t-34.5 15.5q-44 0 -82 -64.5t-57.5 -145t-19.5 -145.5q0 -28 13 -45t36 -17
zM218 636q27 0 46.5 -19.5t19.5 -46.5q0 -25 -20 -44.5t-46 -19.5q-25 0 -44.5 19.5t-19.5 44.5q0 27 19 46.5t45 19.5zM430 636q27 0 46.5 -19.5t19.5 -46.5q0 -25 -20 -44.5t-46 -19.5q-25 0 -44.5 19.5t-19.5 44.5q0 27 19 46.5t45 19.5z" />
    <glyph glyph-name="divide" unicode="&#xf7;" horiz-adv-x="570" 
d="M537 209h-504v88h504v-88zM286 119q30 0 51.5 -22t21.5 -52q0 -31 -22 -52.5t-53 -21.5t-52 21.5t-21 52.5t21.5 52.5t53.5 21.5zM286 535q30 0 51.5 -22t21.5 -52q0 -31 -21.5 -52.5t-53.5 -21.5q-31 0 -52 21.5t-21 52.5t21.5 52.5t53.5 21.5z" />
    <glyph glyph-name="oslash" unicode="&#xf8;" horiz-adv-x="474" 
d="M452 560l-65 -116q82 -40 82 -133q0 -126 -86.5 -225t-197.5 -99q-24 0 -51 8l-64 -114h-40l72 126q-77 44 -77 127q0 128 88.5 228t200.5 100q20 0 42 -6l59 104h37zM303 433q-37 0 -69.5 -44t-50.5 -104.5t-28.5 -114.5t-10.5 -84v-8l191 341q-14 14 -32 14zM193 16
q35 0 66.5 44t50 104.5t29.5 117.5t11 90q0 3 -1 5l-193 -343q15 -18 37 -18z" />
    <glyph glyph-name="ugrave" unicode="&#xf9;" horiz-adv-x="530" 
d="M491 133l21 -13q-75 -129 -161 -129q-65 0 -65 60q0 37 24 110q-77 -108 -113.5 -139t-86.5 -31q-75 0 -75 74q0 36 21 108l40 133q14 45 14 73q0 15 -11 20.5t-45 7.5v27q60 2 209 28l-94 -308q-15 -50 -15 -66q0 -25 21 -25q28 0 73 55q43 54 71.5 120.5t70.5 210.5
h118l-78 -268q-25 -86 -25 -101v-1.5v-2.5q0 -17 14 -17q23 0 72 74zM388 516h-45l-133 89q-34 23 -34 47q0 18 13.5 31.5t31.5 13.5q30 0 56 -34z" />
    <glyph glyph-name="uacute" unicode="&#xfa;" horiz-adv-x="530" 
d="M491 133l21 -13q-75 -129 -161 -129q-65 0 -65 60q0 37 24 110q-77 -108 -113.5 -139t-86.5 -31q-75 0 -75 74q0 36 21 108l40 133q14 45 14 73q0 15 -11 20.5t-45 7.5v27q60 2 209 28l-94 -308q-15 -50 -15 -66q0 -25 21 -25q28 0 73 55q43 54 71.5 120.5t70.5 210.5
h118l-78 -268q-25 -86 -25 -101v-1.5v-2.5q0 -17 14 -17q23 0 72 74zM330 516h-49l122 131q46 50 70 50q19 0 33.5 -14t14.5 -33q0 -14 -8.5 -24t-30.5 -23z" />
    <glyph glyph-name="ucircumflex" unicode="&#xfb;" horiz-adv-x="530" 
d="M491 133l21 -13q-75 -129 -161 -129q-65 0 -65 60q0 37 24 110q-77 -108 -113.5 -139t-86.5 -31q-75 0 -75 74q0 36 21 108l40 133q14 45 14 73q0 15 -11 20.5t-45 7.5v27q60 2 209 28l-94 -308q-15 -50 -15 -66q0 -25 21 -25q28 0 73 55q43 54 71.5 120.5t70.5 210.5
h118l-78 -268q-25 -86 -25 -101v-1.5v-2.5q0 -17 14 -17q23 0 72 74zM444 516l-88 95l-131 -95h-57l160 174h81l86 -174h-51z" />
    <glyph glyph-name="udieresis" unicode="&#xfc;" horiz-adv-x="530" 
d="M491 133l21 -13q-75 -129 -161 -129q-65 0 -65 60q0 37 24 110q-77 -108 -113.5 -139t-86.5 -31q-75 0 -75 74q0 36 21 108l40 133q14 45 14 73q0 15 -11 20.5t-45 7.5v27q60 2 209 28l-94 -308q-15 -50 -15 -66q0 -25 21 -25q28 0 73 55q43 54 71.5 120.5t70.5 210.5
h118l-78 -268q-25 -86 -25 -101v-1.5v-2.5q0 -17 14 -17q23 0 72 74zM230 633q27 0 46.5 -19.5t19.5 -46.5q0 -25 -20 -44.5t-46 -19.5q-25 0 -44.5 19.5t-19.5 44.5q0 27 19 46.5t45 19.5zM442 633q27 0 46.5 -19.5t19.5 -46.5q0 -25 -20 -44.5t-46 -19.5q-25 0 -44.5 19.5
t-19.5 44.5q0 27 19 46.5t45 19.5z" />
    <glyph glyph-name="yacute" unicode="&#xfd;" horiz-adv-x="433" 
d="M91 -125q27 0 59.5 42t32.5 79q0 55 -36 225t-62 185q-9 5 -30 5v27q84 8 149 24q37 -97 66 -277l12 -75q52 100 69.5 141.5t17.5 63.5q0 12 -8.5 22t-19 15.5t-19 19t-8.5 32.5q0 23 17 40.5t40 17.5q25 0 43.5 -19t18.5 -45q0 -46 -40.5 -145t-100 -201.5
t-138.5 -179.5t-145 -77q-26 0 -44 17.5t-18 42.5q0 22 15 38.5t35 16.5q22 0 54 -17.5t40 -17.5zM284 516h-49l122 131q46 50 70 50q19 0 33.5 -14t14.5 -33q0 -14 -8.5 -24t-30.5 -23z" />
    <glyph glyph-name="thorn" unicode="&#xfe;" horiz-adv-x="492" 
d="M169 -178v-27h-249v27h5q33 0 46 15.5t27 69.5l162 630q17 65 17 75q0 17 -13 23.5t-50 6.5v27q119 13 206 30l-95 -340l3 -3q38 56 73 81t78 25q49 0 78 -33t29 -88q0 -130 -88 -242t-189 -112q-25 0 -68 22l-3 -13l-8 -28q-26 -93 -26 -114q0 -18 13.5 -24.5t51.5 -7.5
zM361 340q0 23 -11.5 37t-30.5 14q-13 0 -25.5 -5t-22.5 -15.5t-19 -21t-17 -27.5t-14 -28.5t-12 -30t-9 -27t-7.5 -24.5t-4.5 -17q-35 -118 -35 -137q0 -15 11.5 -25.5t27.5 -10.5q36 0 69 40.5t54 95t33.5 105.5t12.5 77z" />
    <glyph glyph-name="ydieresis" unicode="&#xff;" horiz-adv-x="433" 
d="M91 -125q27 0 59.5 42t32.5 79q0 55 -36 225t-62 185q-9 5 -30 5v27q84 8 149 24q37 -97 66 -277l12 -75q52 100 69.5 141.5t17.5 63.5q0 12 -8.5 22t-19 15.5t-19 19t-8.5 32.5q0 23 17 40.5t40 17.5q25 0 43.5 -19t18.5 -45q0 -46 -40.5 -145t-100 -201.5
t-138.5 -179.5t-145 -77q-26 0 -44 17.5t-18 42.5q0 22 15 38.5t35 16.5q22 0 54 -17.5t40 -17.5zM170 633q27 0 46.5 -19.5t19.5 -46.5q0 -25 -20 -44.5t-46 -19.5q-25 0 -44.5 19.5t-19.5 44.5q0 27 19 46.5t45 19.5zM382 633q27 0 46.5 -19.5t19.5 -46.5q0 -25 -20 -44.5
t-46 -19.5q-25 0 -44.5 19.5t-19.5 44.5q0 27 19 46.5t45 19.5z" />
    <glyph glyph-name="Amacron" unicode="&#x100;" horiz-adv-x="696" 
d="M435 84q0 2 -15 124h-215l-59 -102q-15 -26 -15 -46q0 -35 65 -35v-25h-196v25q27 6 43.5 19.5t39.5 50.5l372 588h25l96 -572q10 -57 22 -69.5t62 -16.5v-25h-304v25q48 5 63.5 16.5t15.5 42.5zM228 248h185l-37 243zM660 800l-16 -70h-326l17 70h325z" />
    <glyph glyph-name="amacron" unicode="&#x101;" horiz-adv-x="509" 
d="M338 373q0 21 -11.5 34t-27.5 13q-30 0 -69 -55.5t-66 -129t-27 -123.5q0 -23 13 -38.5t32 -15.5q40 0 78.5 66t58 138t19.5 111zM469 127l21 -15q-83 -126 -151 -126q-28 0 -47.5 19t-19.5 47q0 17 14 67q-43 -71 -80.5 -101.5t-83.5 -30.5q-49 0 -78.5 35t-29.5 92
q0 76 42 158t106.5 136t124.5 54q32 0 49.5 -17t24.5 -55l18 59l111 7l-71 -236q-34 -115 -34 -148q0 -15 12 -15t26.5 14t45.5 56zM477 603l-16 -70h-326l17 70h325z" />
    <glyph glyph-name="Abreve" unicode="&#x102;" horiz-adv-x="696" 
d="M435 84q0 2 -15 124h-215l-59 -102q-15 -26 -15 -46q0 -35 65 -35v-25h-196v25q27 6 43.5 19.5t39.5 50.5l372 588h25l96 -572q10 -57 22 -69.5t62 -16.5v-25h-304v25q48 5 63.5 16.5t15.5 42.5zM228 248h185l-37 243zM609 888h39q-14 -78 -60 -120t-119 -42
q-137 0 -137 149v13h43q9 -90 102 -90q49 0 79 20.5t53 69.5z" />
    <glyph glyph-name="abreve" unicode="&#x103;" horiz-adv-x="509" 
d="M338 373q0 21 -11.5 34t-27.5 13q-30 0 -69 -55.5t-66 -129t-27 -123.5q0 -23 13 -38.5t32 -15.5q40 0 78.5 66t58 138t19.5 111zM469 127l21 -15q-83 -126 -151 -126q-28 0 -47.5 19t-19.5 47q0 17 14 67q-43 -71 -80.5 -101.5t-83.5 -30.5q-49 0 -78.5 35t-29.5 92
q0 76 42 158t106.5 136t124.5 54q32 0 49.5 -17t24.5 -55l18 59l111 7l-71 -236q-34 -115 -34 -148q0 -15 12 -15t26.5 14t45.5 56zM451 678h39q-14 -78 -60 -120t-119 -42q-137 0 -137 149v13h43q9 -90 102 -90q49 0 79 20.5t53 69.5z" />
    <glyph glyph-name="Aogonek" unicode="&#x104;" horiz-adv-x="734" 
d="M435 84q0 2 -15 124h-215l-59 -102q-15 -26 -15 -46q0 -35 65 -35v-25h-196v25q27 6 43.5 19.5t39.5 50.5l372 588h25l96 -572q10 -57 22 -69.5t62 -16.5v-25q-9 -21 -9 -39q0 -65 63 -65q13 0 24 3.5t23 10t13 6.5l22 -14q-19 -34 -52 -54.5t-71 -20.5q-46 0 -76 23
t-30 58t43 92h-254v25q48 5 63.5 16.5t15.5 42.5zM228 248h185l-37 243z" />
    <glyph glyph-name="aogonek" unicode="&#x105;" horiz-adv-x="509" 
d="M453 -104q13 0 24 3.5t23 10t13 6.5l22 -14q-19 -34 -52 -54.5t-71 -20.5q-46 0 -76 23t-30 58q0 32 32 78q-31 3 -48.5 20.5t-17.5 45.5q0 16 14 67q-43 -71 -80.5 -101.5t-83.5 -30.5q-49 0 -78.5 35t-29.5 92q0 76 42 158t106.5 136t124.5 54q32 0 49.5 -17t24.5 -55
l18 59l111 7l-71 -236q-34 -115 -34 -148q0 -15 12 -15t26.5 14t45.5 56l21 -15q-26 -39 -49 -66.5t-32 -35.5t-14 -19.5t-5 -31.5q0 -63 63 -63zM338 373q0 21 -11.5 34t-27.5 13q-30 0 -69 -55.5t-66 -129t-27 -123.5q0 -23 13 -38.5t32 -15.5q40 0 78.5 66t58 138
t19.5 111z" />
    <glyph glyph-name="Cacute" unicode="&#x106;" horiz-adv-x="620" 
d="M449 685q53 0 106.5 -14.5t62.5 -14.5q20 0 38 29h30l-51 -234l-32 6q3 19 3 35q0 73 -35 115.5t-96 42.5q-79 0 -145.5 -75t-100.5 -175t-34 -191q0 -82 40 -128t110 -46q32 0 61.5 8.5t49.5 19t41 29t30 28.5t23 27q3 4 5 6l30 -22q-42 -57 -78 -84q-86 -65 -194 -65
q-122 0 -197 71.5t-75 187.5q0 182 120.5 313t287.5 131zM414 719h-49l122 131q46 50 70 50q19 0 33.5 -14t14.5 -33q0 -14 -8.5 -24t-30.5 -23z" />
    <glyph glyph-name="cacute" unicode="&#x107;" horiz-adv-x="428" 
d="M300 429q-35 0 -64.5 -36t-47 -86t-27 -95.5t-9.5 -70.5q0 -40 20.5 -65t52.5 -25t59 20t63 70l28 -18q-44 -63 -74 -88q-56 -48 -124 -48t-110.5 42t-42.5 109q0 120 89.5 222t195.5 102q49 0 80.5 -25t31.5 -65q0 -31 -17.5 -50.5t-44.5 -19.5q-25 0 -41.5 15t-16.5 37
q0 15 10.5 34.5t10.5 23.5q0 17 -22 17zM283 516h-49l122 131q46 50 70 50q19 0 33.5 -14t14.5 -33q0 -14 -8.5 -24t-30.5 -23z" />
    <glyph glyph-name="Ccircumflex" unicode="&#x108;" horiz-adv-x="620" 
d="M449 685q53 0 106.5 -14.5t62.5 -14.5q20 0 38 29h30l-51 -234l-32 6q3 19 3 35q0 73 -35 115.5t-96 42.5q-79 0 -145.5 -75t-100.5 -175t-34 -191q0 -82 40 -128t110 -46q32 0 61.5 8.5t49.5 19t41 29t30 28.5t23 27q3 4 5 6l30 -22q-42 -57 -78 -84q-86 -65 -194 -65
q-122 0 -197 71.5t-75 187.5q0 182 120.5 313t287.5 131zM563 719l-88 95l-131 -95h-57l160 174h81l86 -174h-51z" />
    <glyph glyph-name="ccircumflex" unicode="&#x109;" horiz-adv-x="428" 
d="M300 429q-35 0 -64.5 -36t-47 -86t-27 -95.5t-9.5 -70.5q0 -40 20.5 -65t52.5 -25t59 20t63 70l28 -18q-44 -63 -74 -88q-56 -48 -124 -48t-110.5 42t-42.5 109q0 120 89.5 222t195.5 102q49 0 80.5 -25t31.5 -65q0 -31 -17.5 -50.5t-44.5 -19.5q-25 0 -41.5 15t-16.5 37
q0 15 10.5 34.5t10.5 23.5q0 17 -22 17zM408 512l-88 95l-131 -95h-57l160 174h81l86 -174h-51z" />
    <glyph glyph-name="Cdotaccent" unicode="&#x10a;" horiz-adv-x="620" 
d="M449 685q53 0 106.5 -14.5t62.5 -14.5q20 0 38 29h30l-51 -234l-32 6q3 19 3 35q0 73 -35 115.5t-96 42.5q-79 0 -145.5 -75t-100.5 -175t-34 -191q0 -82 40 -128t110 -46q32 0 61.5 8.5t49.5 19t41 29t30 28.5t23 27q3 4 5 6l30 -22q-42 -57 -78 -84q-86 -65 -194 -65
q-122 0 -197 71.5t-75 187.5q0 182 120.5 313t287.5 131zM460 849q27 0 46.5 -19.5t19.5 -46.5q0 -25 -20 -44.5t-46 -19.5q-25 0 -44.5 19.5t-19.5 44.5q0 27 19 46.5t45 19.5z" />
    <glyph glyph-name="cdotaccent" unicode="&#x10b;" horiz-adv-x="428" 
d="M300 429q-35 0 -64.5 -36t-47 -86t-27 -95.5t-9.5 -70.5q0 -40 20.5 -65t52.5 -25t59 20t63 70l28 -18q-44 -63 -74 -88q-56 -48 -124 -48t-110.5 42t-42.5 109q0 120 89.5 222t195.5 102q49 0 80.5 -25t31.5 -65q0 -31 -17.5 -50.5t-44.5 -19.5q-25 0 -41.5 15t-16.5 37
q0 15 10.5 34.5t10.5 23.5q0 17 -22 17zM317 637q27 0 46.5 -19.5t19.5 -46.5q0 -25 -20 -44.5t-46 -19.5q-25 0 -44.5 19.5t-19.5 44.5q0 27 19 46.5t45 19.5z" />
    <glyph glyph-name="Ccaron" unicode="&#x10c;" horiz-adv-x="620" 
d="M449 685q53 0 106.5 -14.5t62.5 -14.5q20 0 38 29h30l-51 -234l-32 6q3 19 3 35q0 73 -35 115.5t-96 42.5q-79 0 -145.5 -75t-100.5 -175t-34 -191q0 -82 40 -128t110 -46q32 0 61.5 8.5t49.5 19t41 29t30 28.5t23 27q3 4 5 6l30 -22q-42 -57 -78 -84q-86 -65 -194 -65
q-122 0 -197 71.5t-75 187.5q0 182 120.5 313t287.5 131zM659 900l-162 -174h-82l-88 174h50l91 -97l135 97h56z" />
    <glyph glyph-name="ccaron" unicode="&#x10d;" horiz-adv-x="428" 
d="M300 429q-35 0 -64.5 -36t-47 -86t-27 -95.5t-9.5 -70.5q0 -40 20.5 -65t52.5 -25t59 20t63 70l28 -18q-44 -63 -74 -88q-56 -48 -124 -48t-110.5 42t-42.5 109q0 120 89.5 222t195.5 102q49 0 80.5 -25t31.5 -65q0 -31 -17.5 -50.5t-44.5 -19.5q-25 0 -41.5 15t-16.5 37
q0 15 10.5 34.5t10.5 23.5q0 17 -22 17zM518 690l-162 -174h-82l-88 174h50l91 -97l135 97h56z" />
    <glyph glyph-name="Dcaron" unicode="&#x10e;" horiz-adv-x="723" 
d="M213 602q0 23 -14 29.5t-59 12.5v25h290q142 0 221.5 -72.5t79.5 -200.5q0 -170 -127 -283t-318 -113h-286v25q37 5 53.5 19.5t26.5 52.5l121 446q12 48 12 59zM364 600l-129 -478q-12 -46 -12 -54q0 -34 54 -34q140 0 219 113q41 58 64.5 141.5t23.5 168.5
q0 181 -165 181q-45 0 -55 -38zM648 900l-162 -174h-82l-88 174h50l91 -97l135 97h56z" />
    <glyph glyph-name="dcaron" unicode="&#x10f;" horiz-adv-x="609" 
d="M542 481l101 174q17 30 51 30q19 0 30 -11t11 -29q0 -28 -31 -59l-106 -105h-56zM468 131l22 -16q-41 -66 -76.5 -96t-72.5 -30q-28 0 -44 16.5t-16 45.5q0 16 11 67q-43 -71 -81 -101t-85 -30q-46 0 -76 35.5t-30 89.5q0 76 42 158.5t106.5 137t123.5 54.5q39 0 72 -33
l19 68q28 100 28 118q0 28 -41 28h-21v27q129 10 209 29l-111 -405q-57 -207 -57 -223q0 -4 3.5 -8t7.5 -4q24 0 67 72zM349 370q0 22 -11 36t-29 14q-39 0 -79.5 -62t-63 -132.5t-22.5 -108.5q0 -25 11.5 -41.5t29.5 -16.5q40 0 80 68.5t62 140.5t22 102z" />
    <glyph glyph-name="Dcroat" unicode="&#x110;" horiz-adv-x="723" 
d="M213 602q0 23 -14 29.5t-59 12.5v25h290q142 0 221.5 -72.5t79.5 -200.5q0 -170 -127 -283t-318 -113h-286v25q37 5 53.5 19.5t26.5 52.5l63 232h-102l12 44h102l46 170q12 47 12 59zM303 373h122l-12 -44h-122l-55 -203q-1 -2 -1 -4q-12 -35 -12 -54q0 -34 54 -34
q140 0 219 113q41 58 64.5 141.5t23.5 168.5q0 181 -165 181q-45 0 -55 -38z" />
    <glyph glyph-name="dcroat" unicode="&#x111;" horiz-adv-x="505" 
d="M390 544q17 62 17 71q0 28 -41 28h-21v27q129 10 209 29l-43 -155h66l-8 -31h-66l-60 -219q-57 -207 -57 -223q0 -4 3.5 -8t7.5 -4q24 0 67 72l22 -16q-41 -66 -76.5 -96t-72.5 -30q-28 0 -44 16.5t-16 45.5q0 16 11 67q-43 -71 -81 -101t-85 -30q-46 0 -76 35.5
t-30 89.5q0 76 42 158.5t106.5 137t123.5 54.5q39 0 72 -33l22 84h-139l9 31h138zM345 370q0 22 -11 36t-29 14q-39 0 -79.5 -62t-63 -132.5t-22.5 -108.5q0 -25 11.5 -41.5t29.5 -16.5q40 0 80 68.5t62 140.5t22 102z" />
    <glyph glyph-name="Emacron" unicode="&#x112;" horiz-adv-x="630" 
d="M640 800l-16 -70h-326l17 70h325zM283 32q82 0 143 24t95.5 57.5t66.5 85.5l25 -5l-59 -194h-554v25q39 6 54 19t26 53l123 449q10 37 10 60q0 13 -8.5 20.5t-19.5 10t-38 6.5q-4 1 -7 1v25h540l-43 -190l-27 5q0 38 -5.5 62t-23.5 47t-56 33.5t-99 10.5q-31 0 -43 -9
t-20 -35l-61 -223h13q63 0 95 8t52.5 29t44.5 69l28 -4l-74 -273l-28 5q4 25 4 44q0 52 -29.5 70.5t-114.5 19.5l-56 -209q0 -2 -7.5 -27.5t-7.5 -35.5q0 -34 61 -34z" />
    <glyph glyph-name="emacron" unicode="&#x113;" horiz-adv-x="417" 
d="M336 142l29 -17q-45 -74 -89 -106t-101 -32q-65 0 -108 42t-43 105q0 124 90 226t198 102q46 0 75.5 -24.5t29.5 -62.5q0 -21 -9 -43.5t-33.5 -52t-79.5 -56t-135 -41.5q-6 -30 -6 -49q0 -82 65 -82q31 0 56.5 19.5t60.5 71.5zM167 214q72 26 115 66.5t43 114.5
q0 34 -28 34q-74 0 -130 -215zM459 604l-16 -70h-326l17 70h325z" />
    <glyph glyph-name="Ebreve" unicode="&#x114;" horiz-adv-x="630" 
d="M283 32q82 0 143 24t95.5 57.5t66.5 85.5l25 -5l-59 -194h-554v25q39 6 54 19t26 53l123 449q10 37 10 60q0 13 -8.5 20.5t-19.5 10t-38 6.5q-4 1 -7 1v25h540l-43 -190l-27 5q0 38 -5.5 62t-23.5 47t-56 33.5t-99 10.5q-31 0 -43 -9t-20 -35l-61 -223h13q63 0 95 8
t52.5 29t44.5 69l28 -4l-74 -273l-28 5q4 25 4 44q0 52 -29.5 70.5t-114.5 19.5l-56 -209q0 -2 -7.5 -27.5t-7.5 -35.5q0 -34 61 -34zM595 881h39q-14 -78 -60 -120t-119 -42q-137 0 -137 149v13h43q9 -90 102 -90q49 0 79 20.5t53 69.5z" />
    <glyph glyph-name="ebreve" unicode="&#x115;" horiz-adv-x="417" 
d="M336 142l29 -17q-45 -74 -89 -106t-101 -32q-65 0 -108 42t-43 105q0 124 90 226t198 102q46 0 75.5 -24.5t29.5 -62.5q0 -21 -9 -43.5t-33.5 -52t-79.5 -56t-135 -41.5q-6 -30 -6 -49q0 -82 65 -82q31 0 56.5 19.5t60.5 71.5zM167 214q72 26 115 66.5t43 114.5
q0 34 -28 34q-74 0 -130 -215zM444 674h39q-14 -78 -60 -120t-119 -42q-137 0 -137 149v13h43q9 -90 102 -90q49 0 79 20.5t53 69.5z" />
    <glyph glyph-name="Edotaccent" unicode="&#x116;" horiz-adv-x="630" 
d="M283 32q82 0 143 24t95.5 57.5t66.5 85.5l25 -5l-59 -194h-554v25q39 6 54 19t26 53l123 449q10 37 10 60q0 13 -8.5 20.5t-19.5 10t-38 6.5q-4 1 -7 1v25h540l-43 -190l-27 5q0 38 -5.5 62t-23.5 47t-56 33.5t-99 10.5q-31 0 -43 -9t-20 -35l-61 -223h13q63 0 95 8
t52.5 29t44.5 69l28 -4l-74 -273l-28 5q4 25 4 44q0 52 -29.5 70.5t-114.5 19.5l-56 -209q0 -2 -7.5 -27.5t-7.5 -35.5q0 -34 61 -34zM467 865q27 0 46.5 -19.5t19.5 -46.5q0 -25 -20 -44.5t-46 -19.5q-25 0 -44.5 19.5t-19.5 44.5q0 27 19 46.5t45 19.5z" />
    <glyph glyph-name="edotaccent" unicode="&#x117;" horiz-adv-x="417" 
d="M336 142l29 -17q-45 -74 -89 -106t-101 -32q-65 0 -108 42t-43 105q0 124 90 226t198 102q46 0 75.5 -24.5t29.5 -62.5q0 -21 -9 -43.5t-33.5 -52t-79.5 -56t-135 -41.5q-6 -30 -6 -49q0 -82 65 -82q31 0 56.5 19.5t60.5 71.5zM167 214q72 26 115 66.5t43 114.5
q0 34 -28 34q-74 0 -130 -215zM318 635q27 0 46.5 -19.5t19.5 -46.5q0 -25 -20 -44.5t-46 -19.5q-25 0 -44.5 19.5t-19.5 44.5q0 27 19 46.5t45 19.5z" />
    <glyph glyph-name="Eogonek" unicode="&#x118;" horiz-adv-x="610" 
d="M283 32q82 0 143 24t95.5 57.5t66.5 85.5l25 -5l-47 -153q-17 -55 -17 -82q0 -63 63 -63q13 0 24 3.5t23 10t13 6.5l22 -14q-19 -34 -52 -54.5t-71 -20.5q-46 0 -76 23t-30 58t43 92h-508v25q39 6 54 19t26 53l123 449q10 37 10 60q0 13 -8.5 20.5t-19.5 10t-38 6.5
q-4 1 -7 1v25h540l-43 -190l-27 5q0 38 -5.5 62t-23.5 47t-56 33.5t-99 10.5q-31 0 -43 -9t-20 -35l-61 -223h13q63 0 95 8t52.5 29t44.5 69l28 -4l-74 -273l-28 5q4 25 4 44q0 52 -29.5 70.5t-114.5 19.5l-56 -209q-15 -60 -15 -63q0 -34 61 -34z" />
    <glyph glyph-name="eogonek" unicode="&#x119;" horiz-adv-x="417" 
d="M329 -104q13 0 24 3.5t23 10t13 6.5l22 -14q-19 -34 -52 -54.5t-71 -20.5q-46 0 -76 23t-30 58q0 34 41 89q-33 -10 -60 -10q-65 0 -108 42t-43 105q0 124 90 226t198 102q46 0 75.5 -24.5t29.5 -62.5q0 -21 -9 -43.5t-33.5 -52t-79.5 -56t-135 -41.5q-6 -30 -6 -49
q0 -82 65 -82q31 0 56.5 19.5t60.5 71.5l29 -17q-19 -31 -39 -58t-28.5 -38t-14 -27t-5.5 -39q0 -67 63 -67zM155 214q72 26 115 66.5t43 114.5q0 34 -28 34q-74 0 -130 -215z" />
    <glyph glyph-name="Ecaron" unicode="&#x11a;" horiz-adv-x="667" 
d="M283 32q82 0 143 24t95.5 57.5t66.5 85.5l25 -5l-59 -194h-554v25q39 6 54 19t26 53l123 449q10 37 10 60q0 13 -8.5 20.5t-19.5 10t-38 6.5q-4 1 -7 1v25h540l-43 -190l-27 5q0 38 -5.5 62t-23.5 47t-56 33.5t-99 10.5q-31 0 -43 -9t-20 -35l-61 -223h13q63 0 95 8
t52.5 29t44.5 69l28 -4l-74 -273l-28 5q4 25 4 44q0 52 -29.5 70.5t-114.5 19.5l-56 -209q0 -2 -7.5 -27.5t-7.5 -35.5q0 -34 61 -34zM621 900l-162 -174h-82l-88 174h50l91 -97l135 97h56z" />
    <glyph glyph-name="ecaron" unicode="&#x11b;" horiz-adv-x="417" 
d="M336 142l29 -17q-45 -74 -89 -106t-101 -32q-65 0 -108 42t-43 105q0 124 90 226t198 102q46 0 75.5 -24.5t29.5 -62.5q0 -21 -9 -43.5t-33.5 -52t-79.5 -56t-135 -41.5q-6 -30 -6 -49q0 -82 65 -82q31 0 56.5 19.5t60.5 71.5zM167 214q72 26 115 66.5t43 114.5
q0 34 -28 34q-74 0 -130 -215zM517 690l-162 -174h-82l-88 174h50l91 -97l135 97h56z" />
    <glyph glyph-name="Gcircumflex" unicode="&#x11c;" horiz-adv-x="706" 
d="M516 268q0 11 -4.5 17.5t-18 10.5t-21.5 5t-30 3v26h287v-26q-40 -3 -52.5 -16t-26.5 -66l-48 -181l-28 -13q-43 -20 -110 -33t-124 -13q-131 0 -213.5 75t-82.5 194q0 115 60 219t159 162q92 53 208 53q56 0 104.5 -15t55.5 -15q27 0 42 30h31l-51 -221l-29 4
q-2 89 -33.5 135t-105.5 46q-65 0 -121 -44t-90.5 -111.5t-54 -143t-19.5 -142.5q0 -91 42 -139.5t122 -48.5q29 0 56.5 8.5t37.5 21.5q6 9 32 98.5t26 119.5zM577 719l-88 95l-131 -95h-57l160 174h81l86 -174h-51z" />
    <glyph glyph-name="gcircumflex" unicode="&#x11d;" horiz-adv-x="490" 
d="M-22 -97q0 12 3 22.5t7.5 18.5t12.5 15.5t14.5 13t17.5 10.5t17.5 7.5t18.5 6t16 4.5t15 3l11 3q-62 21 -62 66q0 27 17.5 44.5t78.5 52.5q-80 34 -80 110t65 129t157 53q65 0 110 -33h111v-56h-67q6 -19 6 -42q0 -52 -26 -90t-65 -55.5t-70.5 -25t-54.5 -7.5
q-17 0 -30.5 4t-20.5 4q-10 0 -19 -12t-9 -24q0 -24 51 -38l53 -15q82 -23 115.5 -51.5t33.5 -73.5q0 -66 -67 -108t-172 -42q-86 0 -137 28.5t-51 77.5zM144 -6q-15 0 -47 -26.5t-32 -58.5q0 -34 31 -56t80 -22q57 0 88.5 18.5t31.5 50.5q0 38 -41 57q-16 7 -60 22t-51 15z
M224 184q45 0 75.5 65.5t30.5 122.5q0 26 -13 42.5t-32 16.5q-44 0 -74 -65.5t-30 -122.5q0 -59 43 -59zM407 512l-88 95l-131 -95h-57l160 174h81l86 -174h-51z" />
    <glyph glyph-name="Gbreve" unicode="&#x11e;" horiz-adv-x="706" 
d="M516 268q0 11 -4.5 17.5t-18 10.5t-21.5 5t-30 3v26h287v-26q-40 -3 -52.5 -16t-26.5 -66l-48 -181l-28 -13q-43 -20 -110 -33t-124 -13q-131 0 -213.5 75t-82.5 194q0 115 60 219t159 162q92 53 208 53q56 0 104.5 -15t55.5 -15q27 0 42 30h31l-51 -221l-29 4
q-2 89 -33.5 135t-105.5 46q-65 0 -121 -44t-90.5 -111.5t-54 -143t-19.5 -142.5q0 -91 42 -139.5t122 -48.5q29 0 56.5 8.5t37.5 21.5q6 9 32 98.5t26 119.5zM612 888h39q-14 -78 -60 -120t-119 -42q-137 0 -137 149v13h43q9 -90 102 -90q49 0 79 20.5t53 69.5z" />
    <glyph glyph-name="gbreve" unicode="&#x11f;" horiz-adv-x="490" 
d="M-22 -97q0 12 3 22.5t7.5 18.5t12.5 15.5t14.5 13t17.5 10.5t17.5 7.5t18.5 6t16 4.5t15 3l11 3q-62 21 -62 66q0 27 17.5 44.5t78.5 52.5q-80 34 -80 110t65 129t157 53q65 0 110 -33h111v-56h-67q6 -19 6 -42q0 -52 -26 -90t-65 -55.5t-70.5 -25t-54.5 -7.5
q-17 0 -30.5 4t-20.5 4q-10 0 -19 -12t-9 -24q0 -24 51 -38l53 -15q82 -23 115.5 -51.5t33.5 -73.5q0 -66 -67 -108t-172 -42q-86 0 -137 28.5t-51 77.5zM144 -6q-15 0 -47 -26.5t-32 -58.5q0 -34 31 -56t80 -22q57 0 88.5 18.5t31.5 50.5q0 38 -41 57q-16 7 -60 22t-51 15z
M224 184q45 0 75.5 65.5t30.5 122.5q0 26 -13 42.5t-32 16.5q-44 0 -74 -65.5t-30 -122.5q0 -59 43 -59zM432 678h39q-14 -78 -60 -120t-119 -42q-137 0 -137 149v13h43q9 -90 102 -90q49 0 79 20.5t53 69.5z" />
    <glyph glyph-name="Gdotaccent" unicode="&#x120;" horiz-adv-x="706" 
d="M516 268q0 11 -4.5 17.5t-18 10.5t-21.5 5t-30 3v26h287v-26q-40 -3 -52.5 -16t-26.5 -66l-48 -181l-28 -13q-43 -20 -110 -33t-124 -13q-131 0 -213.5 75t-82.5 194q0 115 60 219t159 162q92 53 208 53q56 0 104.5 -15t55.5 -15q27 0 42 30h31l-51 -221l-29 4
q-2 89 -33.5 135t-105.5 46q-65 0 -121 -44t-90.5 -111.5t-54 -143t-19.5 -142.5q0 -91 42 -139.5t122 -48.5q29 0 56.5 8.5t37.5 21.5q6 9 32 98.5t26 119.5zM479 849q27 0 46.5 -19.5t19.5 -46.5q0 -25 -20 -44.5t-46 -19.5q-25 0 -44.5 19.5t-19.5 44.5q0 27 19 46.5
t45 19.5z" />
    <glyph glyph-name="gdotaccent" unicode="&#x121;" horiz-adv-x="490" 
d="M-22 -97q0 12 3 22.5t7.5 18.5t12.5 15.5t14.5 13t17.5 10.5t17.5 7.5t18.5 6t16 4.5t15 3l11 3q-62 21 -62 66q0 27 17.5 44.5t78.5 52.5q-80 34 -80 110t65 129t157 53q65 0 110 -33h111v-56h-67q6 -19 6 -42q0 -52 -26 -90t-65 -55.5t-70.5 -25t-54.5 -7.5
q-17 0 -30.5 4t-20.5 4q-10 0 -19 -12t-9 -24q0 -24 51 -38l53 -15q82 -23 115.5 -51.5t33.5 -73.5q0 -66 -67 -108t-172 -42q-86 0 -137 28.5t-51 77.5zM144 -6q-15 0 -47 -26.5t-32 -58.5q0 -34 31 -56t80 -22q57 0 88.5 18.5t31.5 50.5q0 38 -41 57q-16 7 -60 22t-51 15z
M224 184q45 0 75.5 65.5t30.5 122.5q0 26 -13 42.5t-32 16.5q-44 0 -74 -65.5t-30 -122.5q0 -59 43 -59zM296 632q27 0 46.5 -19.5t19.5 -46.5q0 -25 -20 -44.5t-46 -19.5q-25 0 -44.5 19.5t-19.5 44.5q0 27 19 46.5t45 19.5z" />
    <glyph glyph-name="Gcommaaccent" unicode="&#x122;" horiz-adv-x="706" 
d="M241 -184q-23 0 -38 12.5t-15 33.5q0 33 24.5 57.5t55.5 24.5q32 0 51.5 -21t19.5 -55q0 -53 -45 -98.5t-120 -69.5l-9 23q46 17 76.5 47t30.5 47q0 3 -4 3q-1 0 -9.5 -2t-17.5 -2zM516 268q0 11 -4.5 17.5t-18 10.5t-21.5 5t-30 3v26h287v-26q-40 -3 -52.5 -16
t-26.5 -66l-48 -181l-28 -13q-43 -20 -110 -33t-124 -13q-131 0 -213.5 75t-82.5 194q0 115 60 219t159 162q92 53 208 53q56 0 104.5 -15t55.5 -15q27 0 42 30h31l-51 -221l-29 4q-2 89 -33.5 135t-105.5 46q-65 0 -121 -44t-90.5 -111.5t-54 -143t-19.5 -142.5
q0 -91 42 -139.5t122 -48.5q29 0 56.5 8.5t37.5 21.5q6 9 32 98.5t26 119.5z" />
    <glyph glyph-name="gcommaaccent" unicode="&#x123;" horiz-adv-x="490" 
d="M-22 -97q0 12 3 22.5t7.5 18.5t12.5 15.5t14.5 13t17.5 10.5t17.5 7.5t18.5 6t16 4.5t15 3l11 3q-62 21 -62 66q0 27 17.5 44.5t78.5 52.5q-80 34 -80 110t65 129t157 53q65 0 110 -33h111v-56h-67q6 -19 6 -42q0 -52 -26 -90t-65 -55.5t-70.5 -25t-54.5 -7.5
q-17 0 -30.5 4t-20.5 4q-10 0 -19 -12t-9 -24q0 -24 51 -38l53 -15q82 -23 115.5 -51.5t33.5 -73.5q0 -66 -67 -108t-172 -42q-86 0 -137 28.5t-51 77.5zM144 -6q-15 0 -47 -26.5t-32 -58.5q0 -34 31 -56t80 -22q57 0 88.5 18.5t31.5 50.5q0 38 -41 57q-16 7 -60 22t-51 15z
M224 184q45 0 75.5 65.5t30.5 122.5q0 26 -13 42.5t-32 16.5q-44 0 -74 -65.5t-30 -122.5q0 -59 43 -59zM314 620q28 0 43 -12.5t15 -33.5q0 -33 -25 -57.5t-60 -24.5q-32 0 -51.5 21t-19.5 55q0 52 45.5 100t119.5 78l9 -23q-107 -66 -107 -104q0 -3 4 -3q1 0 9.5 2t17.5 2
z" />
    <glyph glyph-name="Hcircumflex" unicode="&#x124;" horiz-adv-x="753" 
d="M598 607q0 19 -13 24.5t-60 12.5v25h298v-25q-38 -5 -53.5 -18.5t-27.5 -53.5l-115 -419q-19 -68 -19 -87q0 -22 16 -30.5t57 -10.5v-25h-317v25q50 3 70 17t31 55l64 232h-239l-50 -181q-1 -4 -9 -34.5t-8 -45.5q0 -24 13 -31.5t60 -11.5v-25h-296v25q38 5 54 19t26 53
l122 449q11 41 11 58q0 21 -14.5 27.5t-58.5 12.5v25h317v-25q-49 -1 -69.5 -16t-31.5 -56l-54 -199h239l47 173q10 36 10 61zM604 719l-88 95l-131 -95h-57l160 174h81l86 -174h-51z" />
    <glyph glyph-name="hcircumflex" unicode="&#x125;" horiz-adv-x="546" 
d="M220 283q32 45 51 70t47 54t55.5 42t58.5 13q35 0 55.5 -20t20.5 -55q0 -31 -30 -122l-58 -178q-3 -9 -3 -12q0 -5 6 -10.5t11 -5.5q17 0 75 83l22 -15q-50 -77 -85.5 -106.5t-81.5 -29.5q-29 0 -47.5 16t-18.5 42q0 34 13 81.5t46 144.5q9 25 13 38q16 44 16 56
q0 8 -6.5 14.5t-15.5 6.5q-39 0 -101 -89q-38 -55 -61 -112t-61 -189h-121l154 567q8 30 8 43q0 18 -7 26t-26 8q-14 0 -30 -2v27q97 8 208 30zM502 725l-88 95l-131 -95h-57l160 174h81l86 -174h-51z" />
    <glyph glyph-name="Hbar" unicode="&#x126;" horiz-adv-x="758" 
d="M598 607q0 19 -13 24.5t-60 12.5v25h298v-25q-35 -5 -50.5 -16t-25.5 -41h56l-14 -62h-60l-102 -372q-19 -69 -19 -87q0 -22 16 -30.5t57 -10.5v-25h-317v25q50 3 70 17t31 55l64 232h-239l-50 -181q-1 -4 -9 -34.5t-8 -45.5q0 -24 13 -31.5t60 -11.5v-25h-296v25
q38 5 54 19t26 53l118 428h-94l14 62h94q1 9 1 17q0 21 -14.5 27.5t-58.5 12.5v25h317v-25q-44 -1 -64.5 -13t-31.5 -44h235q2 13 2 20zM582 525h-239l-41 -152h239z" />
    <glyph glyph-name="hbar" unicode="&#x127;" horiz-adv-x="547" 
d="M220 283q32 45 51 70t47 54t55.5 42t58.5 13q35 0 55.5 -20t20.5 -55q0 -30 -30 -122l-58 -178q-3 -9 -3 -12q0 -5 6 -10.5t11 -5.5q17 0 75 83l22 -15q-50 -77 -85.5 -106.5t-81.5 -29.5q-29 0 -47.5 16t-18.5 42q0 34 13 81.5t46 144.5q9 25 13 38q11 31 11 33
q5 15 5 23t-6.5 14.5t-15.5 6.5q-39 0 -101 -89q-38 -55 -61 -112t-61 -189h-121l142 525h-89l14 62h92q3 16 3 23q0 33 -41 33q-14 0 -22 -1v27q97 8 208 30l-29 -112h194l-14 -62h-196z" />
    <glyph glyph-name="Itilde" unicode="&#x128;" horiz-adv-x="389" 
d="M213 607q0 19 -13 24.5t-60 12.5v25h298v-25q-39 -5 -55.5 -19t-26.5 -53l-114 -420q-18 -68 -18 -87q0 -21 15 -29.5t57 -10.5v-25h-296v25q37 5 53.5 19t26.5 53l123 449q10 36 10 61zM268 838q32 0 80.5 -21t61.5 -21q17 0 30.5 9.5t29.5 32.5h41q-30 -62 -63.5 -90.5
t-78.5 -28.5q-23 0 -54 13l-54 23q-20 8 -37 8q-16 0 -29 -9.5t-28 -33.5h-40q21 54 59.5 86t81.5 32z" />
    <glyph glyph-name="itilde" unicode="&#x129;" horiz-adv-x="292" 
d="M254 141l22 -14q-53 -79 -87.5 -107.5t-79.5 -28.5q-31 0 -50 17.5t-19 45.5q0 24 13 69l58 215q7 30 7 40q0 16 -13.5 22.5t-45.5 6.5v27q116 9 202 28l-91 -334q-9 -36 -9 -52q0 -6 4.5 -10.5t10.5 -4.5q24 0 64 60zM160 631q32 0 80.5 -21t61.5 -21q17 0 30.5 9.5
t29.5 32.5h41q-30 -62 -63.5 -90.5t-78.5 -28.5q-23 0 -54 13l-54 23q-20 8 -37 8q-16 0 -29 -9.5t-28 -33.5h-40q21 54 59.5 86t81.5 32z" />
    <glyph glyph-name="Imacron" unicode="&#x12a;" horiz-adv-x="389" 
d="M480 800l-16 -70h-326l17 70h325zM213 607q0 19 -13 24.5t-60 12.5v25h298v-25q-39 -5 -55.5 -19t-26.5 -53l-114 -420q-18 -68 -18 -87q0 -21 15 -29.5t57 -10.5v-25h-296v25q37 5 53.5 19t26.5 53l123 449q10 36 10 61z" />
    <glyph glyph-name="imacron" unicode="&#x12b;" horiz-adv-x="292" 
d="M254 141l22 -14q-53 -79 -87.5 -107.5t-79.5 -28.5q-31 0 -50 17.5t-19 45.5q0 24 13 69l58 215q7 30 7 40q0 16 -13.5 22.5t-45.5 6.5v27q116 9 202 28l-91 -334q-9 -36 -9 -52q0 -6 4.5 -10.5t10.5 -4.5q24 0 64 60zM373 599l-16 -70h-326l17 70h325z" />
    <glyph glyph-name="Ibreve" unicode="&#x12c;" horiz-adv-x="389" 
d="M213 607q0 19 -13 24.5t-60 12.5v25h298v-25q-39 -5 -55.5 -19t-26.5 -53l-114 -420q-18 -68 -18 -87q0 -21 15 -29.5t57 -10.5v-25h-296v25q37 5 53.5 19t26.5 53l123 449q10 36 10 61zM463 881h39q-14 -78 -60 -120t-119 -42q-137 0 -137 149v13h43q9 -90 102 -90
q49 0 79 20.5t53 69.5z" />
    <glyph glyph-name="ibreve" unicode="&#x12d;" horiz-adv-x="292" 
d="M254 141l22 -14q-53 -79 -87.5 -107.5t-79.5 -28.5q-31 0 -50 17.5t-19 45.5q0 24 13 69l58 215q7 30 7 40q0 16 -13.5 22.5t-45.5 6.5v27q116 9 202 28l-91 -334q-9 -36 -9 -52q0 -6 4.5 -10.5t10.5 -4.5q24 0 64 60zM346 674h39q-14 -78 -60 -120t-119 -42
q-137 0 -137 149v13h43q9 -90 102 -90q49 0 79 20.5t53 69.5z" />
    <glyph glyph-name="Iogonek" unicode="&#x12e;" horiz-adv-x="421" 
d="M213 607q0 19 -13 24.5t-60 12.5v25h298v-25q-39 -5 -55.5 -19t-26.5 -53l-114 -420q-18 -68 -18 -87q0 -21 15 -29.5t57 -10.5v-25q-20 -17 -20 -45q0 -27 17 -43t46 -16q13 0 24 3.5t21.5 9.5t14.5 7l22 -14q-19 -34 -52 -54.5t-71 -20.5q-46 0 -76 23t-30 58t43 92
h-235v25q37 5 53.5 19t26.5 53l123 449q10 36 10 61z" />
    <glyph glyph-name="iogonek" unicode="&#x12f;" horiz-adv-x="292" 
d="M234 -104q13 0 24 3.5t23 10t13 6.5l22 -14q-19 -34 -52 -54.5t-71 -20.5q-46 0 -76 23t-30 58q0 33 37 84q-7 -1 -17 -1q-29 0 -48 17.5t-19 45.5q0 24 13 69l58 215q7 30 7 40q0 16 -13.5 22.5t-45.5 6.5v27q116 9 202 28l-91 -334q-9 -36 -9 -52q0 -6 4.5 -10.5
t10.5 -4.5q24 0 64 60l14 20l22 -14q-28 -43 -57.5 -75.5t-38.5 -47.5t-9 -44q0 -64 63 -64zM232 685q28 0 48.5 -20t20.5 -48t-20 -47.5t-49 -19.5q-28 0 -47 20t-19 49q0 26 20 46t46 20z" />
    <glyph glyph-name="Idotaccent" unicode="&#x130;" horiz-adv-x="389" 
d="M213 607q0 19 -13 24.5t-60 12.5v25h298v-25q-39 -5 -55.5 -19t-26.5 -53l-114 -420q-18 -68 -18 -87q0 -21 15 -29.5t57 -10.5v-25h-296v25q37 5 53.5 19t26.5 53l123 449q10 36 10 61zM314 865q27 0 46.5 -19.5t19.5 -46.5q0 -25 -20 -44.5t-46 -19.5q-25 0 -44.5 19.5
t-19.5 44.5q0 27 19 46.5t45 19.5z" />
    <glyph glyph-name="dotlessi" unicode="&#x131;" horiz-adv-x="292" 
d="M254 141l22 -14q-53 -79 -87.5 -107.5t-79.5 -28.5q-31 0 -50 17.5t-19 45.5q0 24 13 69l58 215q7 30 7 40q0 16 -13.5 22.5t-45.5 6.5v27q116 9 202 28l-91 -334q-9 -36 -9 -52q0 -6 4.5 -10.5t10.5 -4.5q24 0 64 60z" />
    <glyph glyph-name="Jcircumflex" unicode="&#x134;" horiz-adv-x="500" 
d="M346 607q0 16 -14.5 23.5t-58.5 13.5v25h297v-25q-38 -5 -54.5 -19t-26.5 -53l-128 -479q-26 -98 -77 -145t-132 -47q-66 0 -109 28.5t-43 72.5q0 29 18.5 49.5t45.5 20.5q26 0 44.5 -18.5t18.5 -44.5q0 -17 -11.5 -31t-11.5 -23q0 -18 27 -18t44 33t46 144l114 432
q11 41 11 61zM530 719l-88 95l-131 -95h-57l160 174h81l86 -174h-51z" />
    <glyph glyph-name="jcircumflex" unicode="&#x135;" horiz-adv-x="333" 
d="M368 512l-88 95l-131 -95h-57l160 174h81l86 -174h-51zM23 -126q0 -13 -7.5 -24t-7.5 -14q0 -4 8 -8t16 -4q21 0 36.5 28t34.5 103l92 355q12 50 12 66q0 19 -12 25t-50 6v27q136 12 208 28l-114 -438q-60 -231 -209 -231q-47 0 -76 21.5t-29 55.5q0 22 14.5 37.5
t34.5 15.5t34.5 -14.5t14.5 -34.5z" />
    <glyph glyph-name="Kcommaaccent" unicode="&#x136;" horiz-adv-x="667" 
d="M211 -184q-23 0 -38 12.5t-15 33.5q0 33 24.5 57.5t55.5 24.5q32 0 51.5 -21t19.5 -55q0 -53 -45 -98.5t-120 -69.5l-9 23q46 17 76.5 47t30.5 47q0 3 -4 3q-1 0 -9.5 -2t-17.5 -2zM213 604q0 21 -14.5 27.5t-58.5 12.5v25h310v-25q-45 -4 -64.5 -18.5t-29.5 -53.5
l-62 -228q154 132 214 191.5t60 81.5q0 21 -35 25q-3 0 -21 2v25h211v-25q-33 -5 -47.5 -12t-46.5 -36l-216 -198l157 -338q8 -18 21 -25t42 -10v-25h-280v25q19 1 27 2.5t19 4t15 7.5t4 13q0 14 -13 43l-113 242l-67 -249q-2 -10 -2 -17q0 -25 13.5 -34t52.5 -12v-25h-289
v25q37 5 53 19t27 53l122 449q11 41 11 58z" />
    <glyph glyph-name="kcommaaccent" unicode="&#x137;" horiz-adv-x="509" 
d="M171 -171q-28 0 -43 12.5t-15 33.5q0 33 25 57.5t60 24.5q32 0 51.5 -21t19.5 -55q0 -52 -45.5 -100t-119.5 -78l-9 23q107 66 107 104q0 3 -4 3q-1 0 -9.5 -2t-17.5 -2zM192 188l-50 -188h-122l156 567q8 30 8 42q0 34 -42 34q-13 0 -21 -1v27q97 10 208 30l-123 -460
q95 75 129.5 109t34.5 53q0 12 -11 16.5t-40 6.5v25h207v-25q-34 -4 -59 -18t-76 -58l-63 -55q28 -146 42.5 -188t35.5 -42q14 0 28 14.5t34 49.5l22 -11q-38 -68 -68.5 -96t-67.5 -28q-47 0 -73.5 48t-49.5 175z" />
    <glyph glyph-name="kgreenlandic" unicode="&#x138;" horiz-adv-x="514" 
d="M117 376q0 18 -12 24t-43 7v27q89 3 198 27l-56 -200h21q22 0 53.5 35t54.5 72q65 102 140 102q39 0 50 -14t11 -46q0 -22 -17.5 -35.5t-41.5 -13.5q-14 0 -22.5 5.5t-10.5 12t-7 12t-14 5.5q-12 0 -28 -20t-29.5 -45.5t-34.5 -52t-42 -35.5q24 -1 45.5 -12t28.5 -31
l58 -161q6 -15 25 -15l-6 -24h-148l-56 168q-12 46 -33 46h-10l-58 -214h-119l92 328q11 41 11 48z" />
    <glyph glyph-name="Lacute" unicode="&#x139;" horiz-adv-x="609" 
d="M213 607q0 19 -13 24.5t-60 12.5v25h317v-25q-50 -3 -70 -17t-31 -55l-129 -478q-5 -18 -5 -32q0 -30 64 -30q125 0 207 58q29 21 49.5 44t45.5 65l24 -5l-59 -194h-553v25q37 5 53.5 19.5t26.5 52.5l123 449q10 36 10 61zM325 719h-49l122 131q46 50 70 50
q19 0 33.5 -14t14.5 -33q0 -14 -8.5 -24t-30.5 -23z" />
    <glyph glyph-name="lacute" unicode="&#x13a;" horiz-adv-x="294" 
d="M256 141l22 -14q-52 -79 -87.5 -107.5t-81.5 -28.5q-30 0 -48.5 16.5t-18.5 43.5q0 35 34 158l74 264q34 114 34 142q0 29 -34 29q-11 0 -29 -2v27q108 10 209 30l-145 -523q-22 -82 -22 -100q0 -6 4.5 -10.5t10.5 -4.5q24 0 78 80zM201 719h-49l122 131q46 50 70 50
q19 0 33.5 -14t14.5 -33q0 -14 -8.5 -24t-30.5 -23z" />
    <glyph glyph-name="Lcommaaccent" unicode="&#x13b;" horiz-adv-x="609" 
d="M241 -184q-23 0 -38 12.5t-15 33.5q0 33 24.5 57.5t55.5 24.5q32 0 51.5 -21t19.5 -55q0 -53 -45 -98.5t-120 -69.5l-9 23q46 17 76.5 47t30.5 47q0 3 -4 3q-1 0 -9.5 -2t-17.5 -2zM213 607q0 19 -13 24.5t-60 12.5v25h317v-25q-50 -3 -70 -17t-31 -55l-129 -478
q-5 -18 -5 -32q0 -30 64 -30q125 0 207 58q29 21 49.5 44t45.5 65l24 -5l-59 -194h-553v25q37 5 53.5 19.5t26.5 52.5l123 449q10 36 10 61z" />
    <glyph glyph-name="lcommaaccent" unicode="&#x13c;" horiz-adv-x="294" 
d="M41 -184q-23 0 -38 12.5t-15 33.5q0 33 24.5 57.5t55.5 24.5q32 0 51.5 -21t19.5 -55q0 -53 -45 -98.5t-120 -69.5l-9 23q46 17 76.5 47t30.5 47q0 3 -4 3q-1 0 -9.5 -2t-17.5 -2zM256 141l22 -14q-52 -79 -87.5 -107.5t-81.5 -28.5q-30 0 -48.5 16.5t-18.5 43.5
q0 35 34 158l74 264q34 114 34 142q0 29 -34 29q-11 0 -29 -2v27q108 10 209 30l-145 -523q-22 -82 -22 -100q0 -6 4.5 -10.5t10.5 -4.5q24 0 78 80z" />
    <glyph glyph-name="Lcaron" unicode="&#x13d;" horiz-adv-x="638" 
d="M462 481l101 174q17 30 51 30q19 0 30 -11t11 -29q0 -28 -31 -59l-106 -105h-56zM213 607q0 19 -13 24.5t-60 12.5v25h317v-25q-50 -3 -70 -17t-31 -55l-129 -478q-5 -18 -5 -32q0 -30 64 -30q125 0 207 58q29 21 49.5 44t45.5 65l24 -5l-59 -194h-553v25q37 5 53.5 19.5
t26.5 52.5l123 449q10 36 10 61z" />
    <glyph glyph-name="lcaron" unicode="&#x13e;" horiz-adv-x="382" 
d="M322 481l101 174q17 30 51 30q19 0 30 -11t11 -29q0 -28 -31 -59l-106 -105h-56zM256 141l22 -14q-52 -79 -87.5 -107.5t-81.5 -28.5q-30 0 -48.5 16.5t-18.5 43.5q0 35 34 158l74 264q34 114 34 142q0 29 -34 29q-11 0 -29 -2v27q108 10 209 30l-145 -523
q-22 -82 -22 -100q0 -6 4.5 -10.5t10.5 -4.5q24 0 78 80z" />
    <glyph glyph-name="Lslash" unicode="&#x141;" horiz-adv-x="609" 
d="M213 607q0 19 -13 24.5t-60 12.5v25h317v-25q-50 -3 -70 -17t-31 -55l-44 -162l150 81l-21 -70l-148 -83l-66 -244q-5 -18 -5 -32q0 -30 64 -30q125 0 207 58q29 21 49.5 44t45.5 65l24 -5l-59 -194h-553v25q38 5 54 19t26 53l50 181l-104 -56l22 70l100 53l55 201
q10 36 10 61z" />
    <glyph glyph-name="lslash" unicode="&#x142;" horiz-adv-x="304" 
d="M266 141l22 -14q-52 -79 -87 -107.5t-81 -28.5q-31 0 -49.5 16.5t-18.5 45.5q0 34 62 256l-77 -43l19 70l78 43q60 212 60 236q0 28 -42 28q-10 0 -21 -1v27q96 9 209 30l-75 -272l86 47l-19 -68l-86 -47l-51 -183q-22 -80 -22 -100q0 -6 4.5 -10.5t10.5 -4.5
q13 0 30.5 17.5t47.5 62.5z" />
    <glyph glyph-name="Nacute" unicode="&#x143;" horiz-adv-x="705" 
d="M333 669l215 -465l80 287q18 65 18 94t-18 42t-62 17v25h209v-25q-44 -10 -59.5 -32.5t-42.5 -120.5l-143 -506h-28l-257 549l-99 -356q-18 -67 -18 -94q0 -29 18 -42t62 -17v-25h-208v25q41 8 57 31.5t44 121.5l120 411q-14 33 -28 42t-55 13v25h195zM461 719h-49
l122 131q46 50 70 50q19 0 33.5 -14t14.5 -33q0 -14 -8.5 -24t-30.5 -23z" />
    <glyph glyph-name="nacute" unicode="&#x144;" horiz-adv-x="526" 
d="M194 263q78 115 121 157t102 42q35 0 54 -19.5t19 -55.5q0 -35 -26 -115l-36 -109q-25 -75 -25 -87q0 -17 14 -17q13 0 26.5 15t43.5 61l22 -13q-43 -73 -79 -102t-80 -29q-31 0 -49.5 16t-18.5 44q0 47 28 131l55 166q5 17 5 21q0 8 -8 14.5t-17 6.5q-14 0 -34 -14.5
t-35 -34.5q-46 -60 -77.5 -135t-67.5 -206h-121l56 204q46 162 46 178q0 14 -11 19t-43 6v27q92 3 200 27zM320 516h-49l122 131q46 50 70 50q19 0 33.5 -14t14.5 -33q0 -14 -8.5 -24t-30.5 -23z" />
    <glyph glyph-name="Ncommaaccent" unicode="&#x145;" horiz-adv-x="705" 
d="M251 -184q-23 0 -38 12.5t-15 33.5q0 33 24.5 57.5t55.5 24.5q32 0 51.5 -21t19.5 -55q0 -53 -45 -98.5t-120 -69.5l-9 23q46 17 76.5 47t30.5 47q0 3 -4 3q-1 0 -9.5 -2t-17.5 -2zM333 669l215 -465l80 287q18 65 18 94t-18 42t-62 17v25h209v-25q-44 -10 -59.5 -32.5
t-42.5 -120.5l-143 -506h-28l-257 549l-99 -356q-18 -67 -18 -94q0 -29 18 -42t62 -17v-25h-208v25q41 8 57 31.5t44 121.5l120 411q-14 33 -28 42t-55 13v25h195z" />
    <glyph glyph-name="ncommaaccent" unicode="&#x146;" horiz-adv-x="526" 
d="M161 -184q-23 0 -38 12.5t-15 33.5q0 33 24.5 57.5t55.5 24.5q32 0 51.5 -21t19.5 -55q0 -53 -45 -98.5t-120 -69.5l-9 23q46 17 76.5 47t30.5 47q0 3 -4 3q-1 0 -9.5 -2t-17.5 -2zM194 263q78 115 121 157t102 42q35 0 54 -19.5t19 -55.5q0 -35 -26 -115l-36 -109
q-25 -75 -25 -87q0 -17 14 -17q13 0 26.5 15t43.5 61l22 -13q-43 -73 -79 -102t-80 -29q-31 0 -49.5 16t-18.5 44q0 47 28 131l55 166q5 17 5 21q0 8 -8 14.5t-17 6.5q-14 0 -34 -14.5t-35 -34.5q-46 -60 -77.5 -135t-67.5 -206h-121l56 204q46 162 46 178q0 14 -11 19
t-43 6v27q92 3 200 27z" />
    <glyph glyph-name="Ncaron" unicode="&#x147;" horiz-adv-x="705" 
d="M333 669l215 -465l80 287q18 65 18 94t-18 42t-62 17v25h209v-25q-44 -10 -59.5 -32.5t-42.5 -120.5l-143 -506h-28l-257 549l-99 -356q-18 -67 -18 -94q0 -29 18 -42t62 -17v-25h-208v25q41 8 57 31.5t44 121.5l120 411q-14 33 -28 42t-55 13v25h195zM644 900l-162 -174
h-82l-88 174h50l91 -97l135 97h56z" />
    <glyph glyph-name="ncaron" unicode="&#x148;" horiz-adv-x="526" 
d="M194 263q78 115 121 157t102 42q35 0 54 -19.5t19 -55.5q0 -35 -26 -115l-36 -109q-25 -75 -25 -87q0 -17 14 -17q13 0 26.5 15t43.5 61l22 -13q-43 -73 -79 -102t-80 -29q-31 0 -49.5 16t-18.5 44q0 47 28 131l55 166q5 17 5 21q0 8 -8 14.5t-17 6.5q-14 0 -34 -14.5
t-35 -34.5q-46 -60 -77.5 -135t-67.5 -206h-121l56 204q46 162 46 178q0 14 -11 19t-43 6v27q92 3 200 27zM523 690l-162 -174h-82l-88 174h50l91 -97l135 97h56z" />
    <glyph glyph-name="napostrophe" unicode="&#x149;" horiz-adv-x="526" 
d="M194 263q78 115 121 157t102 42q35 0 54 -19.5t19 -55.5q0 -35 -26 -115l-36 -109q-25 -75 -25 -87q0 -17 14 -17q13 0 26.5 15t43.5 61l22 -13q-43 -73 -79 -102t-80 -29q-31 0 -49.5 16t-18.5 44q0 47 28 131l55 166q5 17 5 21q0 8 -8 14.5t-17 6.5q-14 0 -34 -14.5
t-35 -34.5q-46 -60 -77.5 -135t-67.5 -206h-121l56 204q46 162 46 178q0 14 -11 19t-43 6v27q92 3 200 27zM160 633q-28 0 -43 12.5t-15 33.5q0 33 25 57.5t60 24.5q32 0 51.5 -21t19.5 -55q0 -52 -45.5 -100t-119.5 -78l-9 23q107 66 107 104q0 3 -4 3q-1 0 -9.5 -2
t-17.5 -2z" />
    <glyph glyph-name="Eng" unicode="&#x14a;" horiz-adv-x="793" 
d="M482 135q0 -29 -24 -53t-24 -37q0 -25 37 -25q41 0 90 79t82 190.5t33 198.5t-26.5 114t-76.5 27q-58 0 -114.5 -32t-124.5 -109l-99 -363q-11 -40 -11 -60q0 -21 13 -28.5t59 -11.5v-25h-296v25q43 4 56 21.5t31 81.5l122 446q5 18 5 31q0 18 -15.5 26t-58.5 14v25h244
l-31 -115q107 131 243 131q113 0 172 -42.5t59 -152.5q0 -101 -32.5 -196t-83.5 -161.5t-114 -106.5t-123 -40q-64 0 -102.5 27t-38.5 73t31 75t63 29q24 0 39.5 -16t15.5 -40z" />
    <glyph glyph-name="eng" unicode="&#x14b;" horiz-adv-x="495" 
d="M490 383q0 -14 -3 -29t-9.5 -37.5t-7.5 -27.5l-69 -265q-60 -231 -208 -231q-41 0 -73.5 19.5t-32.5 57.5q0 21 14.5 37t34.5 16t34.5 -14.5t14.5 -34.5q0 -12 -7.5 -24t-7.5 -14q0 -5 8.5 -8.5t13.5 -3.5q9 0 17.5 5t15.5 15.5t12 20.5t10 25t7.5 24.5t6 23t4.5 17.5
l92 355q13 55 13 58q0 9 -8 15.5t-17 6.5q-35 0 -72.5 -49.5t-67 -123.5t-47 -126.5t-27.5 -90.5h-121q2 8 30.5 107t50 178.5t21.5 95.5q0 26 -46 26h-8v27q78 0 200 27l-60 -186l3 -2q3 5 18.5 28t21.5 32t22.5 30.5t26 31.5t26.5 25.5t31 22.5t31.5 13t35.5 6
q76 0 76 -79z" />
    <glyph glyph-name="Omacron" unicode="&#x14c;" horiz-adv-x="676" 
d="M36 221q0 72 32 153t86.5 150.5t135 115t168.5 45.5q104 0 173 -65.5t69 -165.5q0 -77 -31.5 -160t-85.5 -152.5t-136.5 -114.5t-174.5 -45q-106 0 -171 66t-65 173zM454 651q-94 0 -168 -131q-41 -72 -73.5 -189t-32.5 -194q0 -56 27.5 -88.5t74.5 -32.5q78 0 145 97
q50 74 89.5 201t39.5 217q0 54 -28 87t-74 33zM628 801l-16 -70h-326l17 70h325z" />
    <glyph glyph-name="omacron" unicode="&#x14d;" horiz-adv-x="474" 
d="M312 462q68 0 112.5 -42.5t44.5 -108.5q0 -127 -86.5 -225.5t-198.5 -98.5q-69 0 -114 42t-45 106q0 126 88.5 226.5t198.5 100.5zM193 16q37 0 69 46t50 109.5t28 119t10 84.5q0 27 -12.5 42.5t-34.5 15.5q-44 0 -82 -64.5t-57.5 -145t-19.5 -145.5q0 -28 13 -45t36 -17
zM487 603l-16 -70h-326l17 70h325z" />
    <glyph glyph-name="Obreve" unicode="&#x14e;" horiz-adv-x="676" 
d="M36 221q0 72 32 153t86.5 150.5t135 115t168.5 45.5q104 0 173 -65.5t69 -165.5q0 -77 -31.5 -160t-85.5 -152.5t-136.5 -114.5t-174.5 -45q-106 0 -171 66t-65 173zM454 651q-94 0 -168 -131q-41 -72 -73.5 -189t-32.5 -194q0 -56 27.5 -88.5t74.5 -32.5q78 0 145 97
q50 74 89.5 201t39.5 217q0 54 -28 87t-74 33zM600 881h39q-14 -78 -60 -120t-119 -42q-137 0 -137 149v13h43q9 -90 102 -90q49 0 79 20.5t53 69.5z" />
    <glyph glyph-name="obreve" unicode="&#x14f;" horiz-adv-x="474" 
d="M312 462q68 0 112.5 -42.5t44.5 -108.5q0 -127 -86.5 -225.5t-198.5 -98.5q-69 0 -114 42t-45 106q0 126 88.5 226.5t198.5 100.5zM193 16q37 0 69 46t50 109.5t28 119t10 84.5q0 27 -12.5 42.5t-34.5 15.5q-44 0 -82 -64.5t-57.5 -145t-19.5 -145.5q0 -28 13 -45t36 -17
zM462 674h39q-14 -78 -60 -120t-119 -42q-137 0 -137 149v13h43q9 -90 102 -90q49 0 79 20.5t53 69.5z" />
    <glyph glyph-name="Ohungarumlaut" unicode="&#x150;" horiz-adv-x="676" 
d="M36 221q0 72 32 153t86.5 150.5t135 115t168.5 45.5q104 0 173 -65.5t69 -165.5q0 -77 -31.5 -160t-85.5 -152.5t-136.5 -114.5t-174.5 -45q-106 0 -171 66t-65 173zM454 651q-94 0 -168 -131q-41 -72 -73.5 -189t-32.5 -194q0 -56 27.5 -88.5t74.5 -32.5q78 0 145 97
q50 74 89.5 201t39.5 217q0 54 -28 87t-74 33zM400 719h-49l64 131q24 50 55 50q20 0 35 -12.5t15 -28.5q0 -30 -26 -53zM563 719h-49l87 131q33 50 57 50q20 0 36.5 -11t16.5 -27q0 -35 -29 -56z" />
    <glyph glyph-name="ohungarumlaut" unicode="&#x151;" horiz-adv-x="474" 
d="M312 462q68 0 112.5 -42.5t44.5 -108.5q0 -127 -86.5 -225.5t-198.5 -98.5q-69 0 -114 42t-45 106q0 126 88.5 226.5t198.5 100.5zM193 16q37 0 69 46t50 109.5t28 119t10 84.5q0 27 -12.5 42.5t-34.5 15.5q-44 0 -82 -64.5t-57.5 -145t-19.5 -145.5q0 -28 13 -45t36 -17
zM253 516h-49l64 131q24 50 55 50q20 0 35 -12.5t15 -28.5q0 -30 -26 -53zM416 516h-49l87 131q33 50 57 50q20 0 36.5 -11t16.5 -27q0 -35 -29 -56z" />
    <glyph glyph-name="OE" unicode="&#x152;" horiz-adv-x="875" 
d="M464 677q12 0 70 -4t77 -4h335l-46 -191l-25 6q2 28 2 37q0 116 -165 116q-26 0 -35.5 -8t-17.5 -39l-61 -220h30q65 0 100.5 23t58.5 80l27 -3l-72 -272l-27 5q1 9 1 19q3 26 3 41q0 18 -7 30.5t-15.5 19.5t-29.5 12t-34 6.5t-44 4.5l-64 -245q-4 -18 -4 -25
q0 -34 73 -34q88 0 146.5 38t110.5 129l27 -5l-60 -194h-324q-10 -1 -24 -1h-22l-154 -7l-20 -1q-61 0 -108 16t-73.5 39.5t-42.5 56.5t-21.5 61t-5.5 59q0 106 53 209t141 170q56 41 111 58t136 17zM392 123l108 391q12 45 12 68q0 63 -73 63q-87 0 -158 -100
q-47 -68 -82 -183.5t-35 -203.5q0 -61 33 -97.5t88 -36.5q43 0 67.5 22.5t39.5 76.5z" />
    <glyph glyph-name="oe" unicode="&#x153;" horiz-adv-x="680" 
d="M15 144q0 69 36 141.5t106 124.5t152 52q40 0 66.5 -14t49.5 -48q44 35 75.5 48.5t70.5 13.5q52 0 82 -24.5t30 -66.5q0 -70 -87 -126q-34 -22 -65 -33t-108 -28q-8 -37 -8 -56q0 -78 67 -78q35 0 60 19t58 70l28 -15q-12 -23 -21.5 -38t-33 -42t-57.5 -42t-76 -15
q-63 0 -117 57q-63 -57 -148 -57q-71 0 -115.5 43.5t-44.5 113.5zM430 218q84 25 124.5 71.5t40.5 102.5q0 18 -10 29t-27 11q-18 0 -34 -14t-33.5 -50.5t-28 -62.5t-32.5 -87zM186 16q34 0 65.5 43t51 101.5t31.5 113.5t12 85q0 74 -55 74q-35 0 -67 -43t-50.5 -102
t-29.5 -111.5t-11 -79.5q0 -81 53 -81z" />
    <glyph glyph-name="Racute" unicode="&#x154;" horiz-adv-x="667" 
d="M213 607q0 19 -13 24.5t-60 12.5v25h276q236 0 236 -143q0 -21 -6 -42t-23.5 -50.5t-59 -54t-103.5 -36.5l83 -246q15 -44 30 -56t58 -16v-25h-202l-107 331h-29l-55 -193q-14 -48 -14 -71q0 -22 14 -30.5t58 -11.5v-25h-296v25q37 5 53.5 19t26.5 53l123 449
q10 34 10 61zM362 593l-60 -230q91 1 127 25q32 20 52 62.5t20 91.5q0 45 -23.5 70t-66.5 25q-23 0 -32.5 -8.5t-16.5 -35.5zM360 719h-49l122 131q46 50 70 50q19 0 33.5 -14t14.5 -33q0 -14 -8.5 -24t-30.5 -23z" />
    <glyph glyph-name="racute" unicode="&#x155;" horiz-adv-x="400" 
d="M361 323q-20 0 -38.5 19t-21.5 19q-22 0 -60 -67.5t-77 -189.5q-4 -15 -33 -104h-121q102 344 102 382q0 14 -10 18.5t-44 6.5v27q131 11 200 28l-66 -209q59 119 96 164t75 45q26 0 41.5 -18t15.5 -48q0 -32 -17 -52.5t-42 -20.5zM216 516h-49l122 131q46 50 70 50
q19 0 33.5 -14t14.5 -33q0 -14 -8.5 -24t-30.5 -23z" />
    <glyph glyph-name="Rcommaaccent" unicode="&#x156;" horiz-adv-x="667" 
d="M261 -184q-23 0 -38 12.5t-15 33.5q0 33 24.5 57.5t55.5 24.5q32 0 51.5 -21t19.5 -55q0 -53 -45 -98.5t-120 -69.5l-9 23q46 17 76.5 47t30.5 47q0 3 -4 3q-1 0 -9.5 -2t-17.5 -2zM213 607q0 19 -13 24.5t-60 12.5v25h276q236 0 236 -143q0 -21 -6 -42t-23.5 -50.5
t-59 -54t-103.5 -36.5l83 -246q15 -44 30 -56t58 -16v-25h-202l-107 331h-29l-55 -193q-14 -48 -14 -71q0 -22 14 -30.5t58 -11.5v-25h-296v25q37 5 53.5 19t26.5 53l123 449q10 34 10 61zM362 593l-60 -230q91 1 127 25q32 20 52 62.5t20 91.5q0 45 -23.5 70t-66.5 25
q-23 0 -32.5 -8.5t-16.5 -35.5z" />
    <glyph glyph-name="rcommaaccent" unicode="&#x157;" horiz-adv-x="400" 
d="M21 -184q-23 0 -38 12.5t-15 33.5q0 33 24.5 57.5t55.5 24.5q32 0 51.5 -21t19.5 -55q0 -53 -45 -98.5t-120 -69.5l-9 23q46 17 76.5 47t30.5 47q0 3 -4 3q-1 0 -9.5 -2t-17.5 -2zM361 323q-20 0 -38.5 19t-21.5 19q-22 0 -60 -67.5t-77 -189.5q-4 -15 -33 -104h-121
q102 344 102 382q0 14 -10 18.5t-44 6.5v27q131 11 200 28l-66 -209q59 119 96 164t75 45q26 0 41.5 -18t15.5 -48q0 -32 -17 -52.5t-42 -20.5z" />
    <glyph glyph-name="Rcaron" unicode="&#x158;" horiz-adv-x="667" 
d="M213 607q0 19 -13 24.5t-60 12.5v25h276q236 0 236 -143q0 -21 -6 -42t-23.5 -50.5t-59 -54t-103.5 -36.5l83 -246q15 -44 30 -56t58 -16v-25h-202l-107 331h-29l-55 -193q-14 -48 -14 -71q0 -22 14 -30.5t58 -11.5v-25h-296v25q37 5 53.5 19t26.5 53l123 449
q10 34 10 61zM362 593l-60 -230q91 1 127 25q32 20 52 62.5t20 91.5q0 45 -23.5 70t-66.5 25q-23 0 -32.5 -8.5t-16.5 -35.5zM614 900l-162 -174h-82l-88 174h50l91 -97l135 97h56z" />
    <glyph glyph-name="rcaron" unicode="&#x159;" horiz-adv-x="400" 
d="M361 323q-20 0 -38.5 19t-21.5 19q-22 0 -60 -67.5t-77 -189.5q-4 -15 -33 -104h-121q102 344 102 382q0 14 -10 18.5t-44 6.5v27q131 11 200 28l-66 -209q59 119 96 164t75 45q26 0 41.5 -18t15.5 -48q0 -32 -17 -52.5t-42 -20.5zM449 690l-162 -174h-82l-88 174h50
l91 -97l135 97h56z" />
    <glyph glyph-name="Sacute" unicode="&#x15a;" horiz-adv-x="506" 
d="M237 -25q-49 0 -103.5 17.5t-65.5 17.5q-14 0 -21.5 -6.5t-16.5 -28.5h-30l36 224l29 -2q12 -188 154 -188q56 0 91 36.5t35 89.5q0 35 -25 68.5t-61 63t-72.5 60t-61.5 71.5t-25 86q0 83 58 138.5t143 55.5q34 0 86 -15t63 -15q31 0 44 26h30l-40 -201l-27 4
q-10 88 -41 127t-91 39q-48 0 -76 -28.5t-28 -76.5q0 -34 15 -56.5t62 -57.5q92 -70 130 -126t38 -120q0 -93 -62 -148t-167 -55zM300 719h-49l122 131q46 50 70 50q19 0 33.5 -14t14.5 -33q0 -14 -8.5 -24t-30.5 -23z" />
    <glyph glyph-name="sacute" unicode="&#x15b;" horiz-adv-x="356" 
d="M200 462q22 0 53.5 -11t40.5 -11q11 0 16 3.5t13 17.5h29l-23 -153l-27 2q-12 62 -33 90.5t-55 28.5q-24 0 -38.5 -14.5t-14.5 -38.5q0 -21 21.5 -52.5t47 -60.5t47 -69t21.5 -75q0 -56 -42.5 -94t-105.5 -38q-26 0 -56.5 10t-37.5 10q-22 0 -29 -20h-27l22 166l27 -3
q21 -133 96 -133q24 0 40.5 15.5t16.5 38.5q0 24 -21 56t-47 60.5t-47 69t-21 79.5q0 57 36.5 91.5t97.5 34.5zM206 516h-49l122 131q46 50 70 50q19 0 33.5 -14t14.5 -33q0 -14 -8.5 -24t-30.5 -23z" />
    <glyph glyph-name="Scircumflex" unicode="&#x15c;" horiz-adv-x="506" 
d="M237 -18q-49 0 -103.5 17.5t-65.5 17.5q-14 0 -21.5 -6.5t-16.5 -28.5h-30l36 224l29 -2q12 -188 154 -188q56 0 91 36.5t35 89.5q0 35 -25 68.5t-61 63t-72.5 60t-61.5 71.5t-25 86q0 83 58 138.5t143 55.5q34 0 86 -15t63 -15q31 0 44 26h30l-40 -201l-27 4
q-10 88 -41 127t-91 39q-48 0 -76 -28.5t-28 -76.5q0 -34 15 -56.5t62 -57.5q92 -70 130 -126t38 -120q0 -93 -62 -148t-167 -55zM412 719l-88 95l-131 -95h-57l160 174h81l86 -174h-51z" />
    <glyph glyph-name="scircumflex" unicode="&#x15d;" horiz-adv-x="356" 
d="M200 462q22 0 53.5 -11t40.5 -11q11 0 16 3.5t13 17.5h29l-23 -153l-27 2q-12 62 -33 90.5t-55 28.5q-24 0 -38.5 -14.5t-14.5 -38.5q0 -21 21.5 -52.5t47 -60.5t47 -69t21.5 -75q0 -56 -42.5 -94t-105.5 -38q-26 0 -56.5 10t-37.5 10q-22 0 -29 -20h-27l22 166l27 -3
q21 -133 96 -133q24 0 40.5 15.5t16.5 38.5q0 24 -21 56t-47 60.5t-47 69t-21 79.5q0 57 36.5 91.5t97.5 34.5zM324 512l-88 95l-131 -95h-57l160 174h81l86 -174h-51z" />
    <glyph glyph-name="Scedilla" unicode="&#x15e;" horiz-adv-x="508" 
d="M303 685q34 0 86 -15t63 -15q31 0 44 26h30l-40 -201l-27 4q-10 88 -41 127t-91 39q-48 0 -76 -28.5t-28 -76.5q0 -34 15 -56.5t62 -57.5q92 -70 130 -126t38 -120q0 -94 -62.5 -148.5t-169.5 -54.5q-19 0 -34 2l-30 -46q15 3 25 3q40 0 65.5 -20.5t25.5 -51.5
q0 -37 -35.5 -62t-88.5 -25q-52 0 -112 25l22 33q37 -17 67 -17q26 0 41 11t15 30q0 17 -12.5 26.5t-34.5 9.5q-15 0 -30 -4l-13 12l56 83q-86 26 -93 26q-14 0 -21.5 -6.5t-16.5 -28.5h-30l36 224l29 -2q12 -188 154 -188q56 0 91 36.5t35 89.5q0 35 -25 68.5t-61 63
t-72.5 60t-61.5 71.5t-25 86q0 83 58 138.5t143 55.5z" />
    <glyph glyph-name="scedilla" unicode="&#x15f;" horiz-adv-x="337" 
d="M142 376q0 -21 21.5 -52.5t47 -60.5t47 -69t21.5 -75q0 -56 -42.5 -94t-103.5 -38q-11 0 -19 1l-34 -50q15 3 26 3q39 0 64.5 -20.5t25.5 -51.5q0 -37 -35.5 -62t-88.5 -25q-51 0 -112 25l22 33q37 -17 67 -17q26 0 41 11t15 30q0 17 -12.5 26.5t-34.5 9.5q-14 0 -30 -4
l-13 12l60 89q-6 2 -7 2q-21 8 -31 8q-22 0 -29 -20h-27l22 166l27 -3q21 -133 96 -133q24 0 40.5 15.5t16.5 38.5q0 24 -21.5 56t-46.5 60.5t-46.5 69t-21.5 79.5q0 57 36.5 91.5t97.5 34.5q22 0 53.5 -11t40.5 -11q11 0 16 3.5t13 17.5h29l-23 -153l-27 2q-12 62 -33 90.5
t-55 28.5q-24 0 -38.5 -14.5t-14.5 -38.5z" />
    <glyph glyph-name="Scaron" unicode="&#x160;" horiz-adv-x="506" 
d="M237 -18q-49 0 -103.5 17.5t-65.5 17.5q-14 0 -21.5 -6.5t-16.5 -28.5h-30l36 224l29 -2q12 -188 154 -188q56 0 91 36.5t35 89.5q0 35 -25 68.5t-61 63t-72.5 60t-61.5 71.5t-25 86q0 83 58 138.5t143 55.5q34 0 86 -15t63 -15q31 0 44 26h30l-40 -201l-27 4
q-10 88 -41 127t-91 39q-48 0 -76 -28.5t-28 -76.5q0 -34 15 -56.5t62 -57.5q92 -70 130 -126t38 -120q0 -93 -62 -148t-167 -55zM513 897l-162 -174h-82l-88 174h50l91 -97l135 97h56z" />
    <glyph glyph-name="scaron" unicode="&#x161;" horiz-adv-x="356" 
d="M200 462q22 0 53.5 -11t40.5 -11q11 0 16 3.5t13 17.5h29l-23 -153l-27 2q-12 62 -33 90.5t-55 28.5q-24 0 -38.5 -14.5t-14.5 -38.5q0 -21 21.5 -52.5t47 -60.5t47 -69t21.5 -75q0 -56 -42.5 -94t-105.5 -38q-26 0 -56.5 10t-37.5 10q-22 0 -29 -20h-27l22 166l27 -3
q21 -133 96 -133q24 0 40.5 15.5t16.5 38.5q0 24 -21 56t-47 60.5t-47 69t-21 79.5q0 57 36.5 91.5t97.5 34.5zM419 690l-162 -174h-82l-88 174h50l91 -97l135 97h56z" />
    <glyph glyph-name="Tcedilla" unicode="&#x162;" horiz-adv-x="593" 
d="M689 669l-36 -192l-27 2q-4 83 -35.5 118.5t-102.5 36.5l-140 -506q-11 -41 -11 -62q0 -24 15 -31.5t68 -9.5v-25h-181l-44 -66q15 3 26 3q39 0 64.5 -20.5t25.5 -51.5q0 -37 -35.5 -62t-88.5 -25q-51 0 -112 25l22 33q37 -17 67 -17q26 0 41 11t15 30q0 17 -12.5 26.5
t-34.5 9.5q-14 0 -30 -4l-13 12l65 96h-106v25h14q38 0 59 17t32 55l148 537q-77 -2 -127.5 -35t-89.5 -108l-25 7l38 171h551z" />
    <glyph glyph-name="tcedilla" unicode="&#x163;" horiz-adv-x="286" 
d="M324 449v-42h-83l-33 -118q-54 -193 -54 -213q0 -5 5 -10t11 -5q25 0 76 80l22 -14q-49 -76 -84 -105.5t-78 -30.5l-36 -53q15 3 26 3q39 0 64.5 -20.5t25.5 -51.5q0 -37 -35.5 -62t-88.5 -25q-51 0 -112 25l22 33q37 -17 67 -17q26 0 41 11t15 30q0 17 -12.5 26.5
t-34.5 9.5q-14 0 -30 -4l-13 12l62 90q-35 17 -35 58q0 31 24 113l68 238h-51v35q59 23 101 57t82 95h35l-39 -145h72z" />
    <glyph glyph-name="Tcaron" unicode="&#x164;" horiz-adv-x="593" 
d="M689 669l-36 -192l-27 2q-4 83 -35.5 118.5t-102.5 36.5l-140 -506q-11 -41 -11 -62q0 -24 15 -31.5t68 -9.5v-25h-331v25h14q38 0 59 17t32 55l148 537q-77 -2 -127.5 -35t-89.5 -108l-25 7l38 171h551zM630 900l-162 -174h-82l-88 174h50l91 -97l135 97h56z" />
    <glyph glyph-name="tcaron" unicode="&#x165;" horiz-adv-x="426" 
d="M313 481l101 174q17 30 51 30q19 0 30 -11t11 -29q0 -28 -31 -59l-106 -105h-56zM324 449v-42h-83l-33 -118q-54 -193 -54 -213q0 -5 5 -10t11 -5q25 0 76 80l22 -14q-50 -77 -85.5 -106.5t-80.5 -29.5q-32 0 -51 18t-19 47q0 31 24 113l68 238h-51v35q59 23 101 57
t82 95h35l-39 -145h72z" />
    <glyph glyph-name="Tbar" unicode="&#x166;" horiz-adv-x="593" 
d="M282 416l60 218q-77 -2 -127.5 -35t-89.5 -108l-25 7l38 171h551l-36 -192l-27 2q-4 83 -35.5 118.5t-102.5 36.5l-60 -218h87l-16 -70h-91l-60 -218q-11 -41 -11 -62q0 -24 15 -31.5t68 -9.5v-25h-331v25h14q38 0 59 17t32 55l69 249h-90l17 70h92z" />
    <glyph glyph-name="tbar" unicode="&#x167;" horiz-adv-x="317" 
d="M117 322l24 85h-51v35q59 23 101 57t82 95h35l-39 -145h72v-42h-83l-24 -85h92l-13 -70h-99q-43 -148 -43 -176q0 -5 5 -10t11 -5q25 0 76 80l22 -14q-50 -77 -85.5 -106.5t-80.5 -29.5q-31 0 -50.5 18t-19.5 47q0 31 24 113l24 83h-52l14 70h58z" />
    <glyph glyph-name="Utilde" unicode="&#x168;" horiz-adv-x="714" 
d="M784 669v-25q-42 -8 -58 -31.5t-44 -121.5l-66 -228q-1 -3 -8 -30t-11 -38.5t-14 -39.5t-20.5 -43t-26.5 -38.5t-35.5 -37t-44.5 -27.5t-57 -20.5t-69 -6.5q-98 0 -160.5 46.5t-62.5 119.5q0 55 33 175l56 206q15 55 15 76q0 16 -9 23.5t-33 11.5q-3 0 -31 4v25h311v-25
q-47 -2 -64.5 -15.5t-29.5 -56.5l-82 -300q-28 -102 -28 -133q0 -47 32.5 -74t89.5 -27q82 0 133 60q42 52 79 184l58 209q19 71 19 97t-18.5 39t-61.5 17v25h208zM450 838q32 0 80.5 -21t61.5 -21q17 0 30.5 9.5t29.5 32.5h41q-30 -62 -63.5 -90.5t-78.5 -28.5
q-23 0 -54 13l-54 23q-20 8 -37 8q-16 0 -29 -9.5t-28 -33.5h-40q21 54 59.5 86t81.5 32z" />
    <glyph glyph-name="utilde" unicode="&#x169;" horiz-adv-x="530" 
d="M491 133l21 -13q-75 -129 -161 -129q-65 0 -65 60q0 37 24 110q-77 -108 -113.5 -139t-86.5 -31q-75 0 -75 74q0 36 21 108l40 133q14 45 14 73q0 15 -11 20.5t-45 7.5v27q60 2 209 28l-94 -308q-15 -50 -15 -66q0 -25 21 -25q28 0 73 55q43 54 71.5 120.5t70.5 210.5
h118l-78 -268q-25 -86 -25 -101v-1.5v-2.5q0 -17 14 -17q23 0 72 74zM284 631q32 0 80.5 -21t61.5 -21q17 0 30.5 9.5t29.5 32.5h41q-30 -62 -63.5 -90.5t-78.5 -28.5q-23 0 -54 13l-54 23q-20 8 -37 8q-16 0 -29 -9.5t-28 -33.5h-40q21 54 59.5 86t81.5 32z" />
    <glyph glyph-name="Umacron" unicode="&#x16a;" horiz-adv-x="714" 
d="M680 800l-16 -70h-326l17 70h325zM784 669v-25q-42 -8 -58 -31.5t-44 -121.5l-66 -228q-1 -3 -8 -30t-11 -38.5t-14 -39.5t-20.5 -43t-26.5 -38.5t-35.5 -37t-44.5 -27.5t-57 -20.5t-69 -6.5q-98 0 -160.5 46.5t-62.5 119.5q0 55 33 175l56 206q15 55 15 76q0 16 -9 23.5
t-33 11.5q-3 0 -31 4v25h311v-25q-47 -2 -64.5 -15.5t-29.5 -56.5l-82 -300q-28 -102 -28 -133q0 -47 32.5 -74t89.5 -27q82 0 133 60q42 52 79 184l58 209q19 71 19 97t-18.5 39t-61.5 17v25h208z" />
    <glyph glyph-name="umacron" unicode="&#x16b;" horiz-adv-x="530" 
d="M491 133l21 -13q-75 -129 -161 -129q-65 0 -65 60q0 37 24 110q-77 -108 -113.5 -139t-86.5 -31q-75 0 -75 74q0 36 21 108l40 133q14 45 14 73q0 15 -11 20.5t-45 7.5v27q60 2 209 28l-94 -308q-15 -50 -15 -66q0 -25 21 -25q28 0 73 55q43 54 71.5 120.5t70.5 210.5
h118l-78 -268q-25 -86 -25 -101v-1.5v-2.5q0 -17 14 -17q23 0 72 74zM515 604l-16 -70h-326l17 70h325z" />
    <glyph glyph-name="Ubreve" unicode="&#x16c;" horiz-adv-x="714" 
d="M784 669v-25q-42 -8 -58 -31.5t-44 -121.5l-66 -228q-1 -3 -8 -30t-11 -38.5t-14 -39.5t-20.5 -43t-26.5 -38.5t-35.5 -37t-44.5 -27.5t-57 -20.5t-69 -6.5q-98 0 -160.5 46.5t-62.5 119.5q0 55 33 175l56 206q15 55 15 76q0 16 -9 23.5t-33 11.5q-3 0 -31 4v25h311v-25
q-47 -2 -64.5 -15.5t-29.5 -56.5l-82 -300q-28 -102 -28 -133q0 -47 32.5 -74t89.5 -27q82 0 133 60q42 52 79 184l58 209q19 71 19 97t-18.5 39t-61.5 17v25h208zM642 881h39q-14 -78 -60 -120t-119 -42q-137 0 -137 149v13h43q9 -90 102 -90q49 0 79 20.5t53 69.5z" />
    <glyph glyph-name="ubreve" unicode="&#x16d;" horiz-adv-x="530" 
d="M491 133l21 -13q-75 -129 -161 -129q-65 0 -65 60q0 37 24 110q-77 -108 -113.5 -139t-86.5 -31q-75 0 -75 74q0 36 21 108l40 133q14 45 14 73q0 15 -11 20.5t-45 7.5v27q60 2 209 28l-94 -308q-15 -50 -15 -66q0 -25 21 -25q28 0 73 55q43 54 71.5 120.5t70.5 210.5
h118l-78 -268q-25 -86 -25 -101v-1.5v-2.5q0 -17 14 -17q23 0 72 74zM471 674h39q-14 -78 -60 -120t-119 -42q-137 0 -137 149v13h43q9 -90 102 -90q49 0 79 20.5t53 69.5z" />
    <glyph glyph-name="Uring" unicode="&#x16e;" horiz-adv-x="714" 
d="M784 669v-25q-42 -8 -58 -31.5t-44 -121.5l-66 -228q-1 -3 -8 -30t-11 -38.5t-14 -39.5t-20.5 -43t-26.5 -38.5t-35.5 -37t-44.5 -27.5t-57 -20.5t-69 -6.5q-98 0 -160.5 46.5t-62.5 119.5q0 55 33 175l56 206q15 55 15 76q0 16 -9 23.5t-33 11.5q-3 0 -31 4v25h311v-25
q-47 -2 -64.5 -15.5t-29.5 -56.5l-82 -300q-28 -102 -28 -133q0 -47 32.5 -74t89.5 -27q82 0 133 60q42 52 79 184l58 209q19 71 19 97t-18.5 39t-61.5 17v25h208zM546 900q35 0 57.5 -23t22.5 -57q0 -45 -37.5 -82t-85.5 -37q-36 0 -58 22.5t-22 56.5q0 48 38.5 84t84.5 36
zM533 844q-18 0 -35.5 -16t-17.5 -37q0 -15 9.5 -24.5t24.5 -9.5q20 0 37.5 15t17.5 36q0 16 -10 26t-26 10z" />
    <glyph glyph-name="uring" unicode="&#x16f;" horiz-adv-x="530" 
d="M491 133l21 -13q-75 -129 -161 -129q-65 0 -65 60q0 37 24 110q-77 -108 -113.5 -139t-86.5 -31q-75 0 -75 74q0 36 21 108l40 133q14 45 14 73q0 15 -11 20.5t-45 7.5v27q60 2 209 28l-94 -308q-15 -50 -15 -66q0 -25 21 -25q28 0 73 55q43 54 71.5 120.5t70.5 210.5
h118l-78 -268q-25 -86 -25 -101v-1.5v-2.5q0 -17 14 -17q23 0 72 74zM383 725q35 0 57.5 -23t22.5 -57q0 -45 -37.5 -82t-85.5 -37q-36 0 -58 22.5t-22 56.5q0 48 38.5 84t84.5 36zM370 669q-18 0 -35.5 -16t-17.5 -37q0 -15 9.5 -24.5t24.5 -9.5q20 0 37.5 15t17.5 36
q0 16 -10 26t-26 10z" />
    <glyph glyph-name="Uhungarumlaut" unicode="&#x170;" horiz-adv-x="714" 
d="M784 669v-25q-42 -8 -58 -31.5t-44 -121.5l-66 -228q-1 -3 -8 -30t-11 -38.5t-14 -39.5t-20.5 -43t-26.5 -38.5t-35.5 -37t-44.5 -27.5t-57 -20.5t-69 -6.5q-98 0 -160.5 46.5t-62.5 119.5q0 55 33 175l56 206q15 55 15 76q0 16 -9 23.5t-33 11.5q-3 0 -31 4v25h311v-25
q-47 -2 -64.5 -15.5t-29.5 -56.5l-82 -300q-28 -102 -28 -133q0 -47 32.5 -74t89.5 -27q82 0 133 60q42 52 79 184l58 209q19 71 19 97t-18.5 39t-61.5 17v25h208zM417 719h-49l64 131q24 50 55 50q20 0 35 -12.5t15 -28.5q0 -30 -26 -53zM580 719h-49l87 131q33 50 57 50
q20 0 36.5 -11t16.5 -27q0 -35 -29 -56z" />
    <glyph glyph-name="uhungarumlaut" unicode="&#x171;" horiz-adv-x="530" 
d="M491 133l21 -13q-75 -129 -161 -129q-65 0 -65 60q0 37 24 110q-77 -108 -113.5 -139t-86.5 -31q-75 0 -75 74q0 36 21 108l40 133q14 45 14 73q0 15 -11 20.5t-45 7.5v27q60 2 209 28l-94 -308q-15 -50 -15 -66q0 -25 21 -25q28 0 73 55q43 54 71.5 120.5t70.5 210.5
h118l-78 -268q-25 -86 -25 -101v-1.5v-2.5q0 -17 14 -17q23 0 72 74zM260 516h-49l64 131q24 50 55 50q20 0 35 -12.5t15 -28.5q0 -30 -26 -53zM423 516h-49l87 131q33 50 57 50q20 0 36.5 -11t16.5 -27q0 -35 -29 -56z" />
    <glyph glyph-name="Uogonek" unicode="&#x172;" horiz-adv-x="722" 
d="M521 -104q13 0 22.5 2.5t22 9.5t16.5 8l22 -14q-19 -34 -52 -54.5t-71 -20.5q-47 0 -77 23t-30 58q0 22 11 44t43 61q-62 -31 -139 -31q-98 0 -160 46.5t-62 119.5q0 55 33 175l56 206q15 55 15 76q0 16 -9 23.5t-33 11.5q-3 0 -31 4v25h311v-25q-47 -2 -64.5 -15.5
t-29.5 -56.5l-82 -300q-28 -102 -28 -133q0 -47 32.5 -74t89.5 -27q82 0 133 60q42 52 79 184l58 209q19 71 19 97t-18.5 39t-61.5 17v25h208v-25q-42 -8 -58 -31.5t-44 -121.5l-66 -228q-7 -22 -12.5 -40t-10.5 -33t-8 -25t-7.5 -19.5t-6.5 -14t-6 -11.5t-5.5 -9t-6.5 -9.5
t-6 -9.5l-20 -30q-29 -44 -29 -104q0 -62 63 -62z" />
    <glyph glyph-name="uogonek" unicode="&#x173;" horiz-adv-x="556" 
d="M494 -104q13 0 24 3.5t23 10t13 6.5l22 -14q-19 -34 -52 -54.5t-71 -20.5q-46 0 -76 23t-30 58q0 34 40 88q-20 -5 -36 -5q-65 0 -65 60q0 37 24 110q-77 -108 -113.5 -139t-86.5 -31q-75 0 -75 74q0 36 21 108l40 133q14 45 14 73q0 15 -11 20.5t-45 7.5v27q60 2 209 28
l-94 -308q-15 -50 -15 -66q0 -25 21 -25q28 0 73 55q43 54 71.5 120.5t70.5 210.5h118l-78 -268q-25 -95 -25 -105q0 -17 14 -17q23 0 72 74l21 -13q-16 -28 -40 -59t-32.5 -50.5t-8.5 -51.5q0 -63 63 -63z" />
    <glyph glyph-name="Wcircumflex" unicode="&#x174;" horiz-adv-x="928" 
d="M1003 669v-24q-32 -5 -48 -18.5t-36 -54.5l-286 -590h-29l-59 489l-233 -489h-29l-78 579q-7 53 -17.5 64.5t-59.5 19.5v24h277v-25q-36 -5 -48.5 -15.5t-12.5 -37.5q0 -11 1 -16l39 -349l150 311q-1 64 -13.5 83t-57.5 25v24h269v-25q-40 -4 -51.5 -14.5t-11.5 -43.5
q0 -14 6 -65l33 -295l156 327q15 33 15 46q0 27 -10.5 34.5t-52.5 10.5v25h187zM702 719l-88 95l-131 -95h-57l160 174h81l86 -174h-51z" />
    <glyph glyph-name="wcircumflex" unicode="&#x175;" horiz-adv-x="652" 
d="M576 311q0 13 -20.5 43t-20.5 48q0 24 17 42t39 18q24 0 42.5 -18.5t18.5 -43.5q0 -125 -272 -413h-27l-23 285l-19 -35q-84 -150 -94 -164l-57 -86h-27q0 21 0.5 38.5t1 25.5t0.5 15q0 9 -2 84q-5 220 -37 249q-9 8 -42 8v27q119 20 155 28q29 -108 33 -275l156 275h27
l32 -332q119 140 119 181zM514 512l-88 95l-131 -95h-57l160 174h81l86 -174h-51z" />
    <glyph glyph-name="Ycircumflex" unicode="&#x176;" horiz-adv-x="639" 
d="M289 313l-88 268q-13 40 -23.5 49t-49.5 14v25h283v-25q-41 -1 -55.5 -8.5t-14.5 -28.5q0 -9 2 -18.5t8 -30.5t13 -41.5t23 -69t31 -95.5l129 186q26 38 26 60q0 26 -13.5 35t-53.5 11v25h208v-25q-29 -6 -48 -20t-43 -49l-190 -267l-52 -191q-8 -31 -8 -45
q0 -28 14 -36.5t63 -10.5v-25h-322v25q52 4 70.5 16.5t30.5 55.5zM546 719l-88 95l-131 -95h-57l160 174h81l86 -174h-51z" />
    <glyph glyph-name="ycircumflex" unicode="&#x177;" horiz-adv-x="433" 
d="M91 -125q27 0 59.5 42t32.5 79q0 55 -36 225t-62 185q-9 5 -30 5v27q84 8 149 24q37 -97 66 -277l12 -75q52 100 69.5 141.5t17.5 63.5q0 12 -8.5 22t-19 15.5t-19 19t-8.5 32.5q0 23 17 40.5t40 17.5q25 0 43.5 -19t18.5 -45q0 -46 -40.5 -145t-100 -201.5
t-138.5 -179.5t-145 -77q-26 0 -44 17.5t-18 42.5q0 22 15 38.5t35 16.5q22 0 54 -17.5t40 -17.5zM381 512l-88 95l-131 -95h-57l160 174h81l86 -174h-51z" />
    <glyph glyph-name="Ydieresis" unicode="&#x178;" horiz-adv-x="639" 
d="M289 313l-88 268q-13 40 -23.5 49t-49.5 14v25h283v-25q-41 -1 -55.5 -8.5t-14.5 -28.5q0 -9 2 -18.5t8 -30.5t13 -41.5t23 -69t31 -95.5l129 186q26 38 26 60q0 26 -13.5 35t-53.5 11v25h208v-25q-29 -6 -48 -20t-43 -49l-190 -267l-52 -191q-8 -31 -8 -45
q0 -28 14 -36.5t63 -10.5v-25h-322v25q52 4 70.5 16.5t30.5 55.5zM356 862q27 0 46.5 -19.5t19.5 -46.5q0 -25 -20 -44.5t-46 -19.5q-25 0 -44.5 19.5t-19.5 44.5q0 27 19 46.5t45 19.5zM568 862q27 0 46.5 -19.5t19.5 -46.5q0 -25 -20 -44.5t-46 -19.5q-25 0 -44.5 19.5
t-19.5 44.5q0 27 19 46.5t45 19.5z" />
    <glyph glyph-name="Zacute" unicode="&#x179;" horiz-adv-x="562" 
d="M237 35q116 0 181 38t120 126l27 -5l-59 -194h-506v29l434 605h-78q-82 0 -137.5 -32t-114.5 -115l-28 4l57 178h468v-29l-434 -605h70zM367 719h-49l122 131q46 50 70 50q19 0 33.5 -14t14.5 -33q0 -14 -8.5 -24t-30.5 -23z" />
    <glyph glyph-name="zacute" unicode="&#x17a;" horiz-adv-x="410" 
d="M77 5q-14 0 -52 -28l-25 22l292 354h-145q-23 0 -36.5 -13.5t-26.5 -47.5l-28 3l43 154h312v-10l-281 -335q41 -18 67.5 -46t35 -50.5t21 -39.5t30.5 -17q9 0 15.5 4.5t6.5 11.5q0 4 -10 19t-10 27q0 21 15 36.5t35 15.5q21 0 37 -15.5t16 -36.5q0 -38 -31 -64.5
t-77 -26.5q-38 0 -79 21t-74 41.5t-51 20.5zM256 516h-49l122 131q46 50 70 50q19 0 33.5 -14t14.5 -33q0 -14 -8.5 -24t-30.5 -23z" />
    <glyph glyph-name="Zdotaccent" unicode="&#x17b;" horiz-adv-x="562" 
d="M237 35q116 0 181 38t120 126l27 -5l-59 -194h-506v29l434 605h-78q-82 0 -137.5 -32t-114.5 -115l-28 4l57 178h468v-29l-434 -605h70zM378 865q27 0 46.5 -19.5t19.5 -46.5q0 -25 -20 -44.5t-46 -19.5q-25 0 -44.5 19.5t-19.5 44.5q0 27 19 46.5t45 19.5z" />
    <glyph glyph-name="zdotaccent" unicode="&#x17c;" horiz-adv-x="410" 
d="M77 5q-14 0 -52 -28l-25 22l292 354h-145q-23 0 -36.5 -13.5t-26.5 -47.5l-28 3l43 154h312v-10l-281 -335q41 -18 67.5 -46t35 -50.5t21 -39.5t30.5 -17q9 0 15.5 4.5t6.5 11.5q0 4 -10 19t-10 27q0 21 15 36.5t35 15.5q21 0 37 -15.5t16 -36.5q0 -38 -31 -64.5
t-77 -26.5q-38 0 -79 21t-74 41.5t-51 20.5zM257 633q27 0 46.5 -19.5t19.5 -46.5q0 -25 -20 -44.5t-46 -19.5q-25 0 -44.5 19.5t-19.5 44.5q0 27 19 46.5t45 19.5z" />
    <glyph glyph-name="Zcaron" unicode="&#x17d;" horiz-adv-x="562" 
d="M237 35q116 0 181 38t120 126l27 -5l-59 -194h-506v29l434 605h-78q-82 0 -137.5 -32t-114.5 -115l-28 4l57 178h468v-29l-434 -605h70zM571 897l-162 -174h-82l-88 174h50l91 -97l135 97h56z" />
    <glyph glyph-name="zcaron" unicode="&#x17e;" horiz-adv-x="410" 
d="M77 5q-14 0 -52 -28l-25 22l292 354h-145q-23 0 -36.5 -13.5t-26.5 -47.5l-28 3l43 154h312v-10l-281 -335q41 -18 67.5 -46t35 -50.5t21 -39.5t30.5 -17q9 0 15.5 4.5t6.5 11.5q0 4 -10 19t-10 27q0 21 15 36.5t35 15.5q21 0 37 -15.5t16 -36.5q0 -38 -31 -64.5
t-77 -26.5q-38 0 -79 21t-74 41.5t-51 20.5zM454 690l-162 -174h-82l-88 174h50l91 -97l135 97h56z" />
    <glyph glyph-name="longs" unicode="&#x17f;" horiz-adv-x="485" 
d="M420 614q0 13 8 26.5t8 15.5q0 13 -17 13q-56 0 -91 -149l-114 -490q-16 -52 -31 -86t-39.5 -72t-59.5 -57.5t-80 -19.5t-72 21.5t-27 57.5q0 22 15.5 38t36.5 16q19 0 34 -15t15 -33q0 -14 -8 -27t-8 -16q0 -11 18 -11q36 0 54.5 53.5t67.5 276.5q33 151 56 251h-73
l9 42h73q15 54 32 93t43 77.5t64 58.5t87 20q45 0 72 -21.5t27 -58.5q0 -23 -14.5 -38t-36.5 -15q-20 0 -34.5 14.5t-14.5 34.5z" />
    <glyph glyph-name="uni0180" unicode="&#x180;" horiz-adv-x="492" 
d="M494 336q0 -127 -97 -238t-222 -111q-34 0 -86.5 16.5t-52.5 43.5q0 12 29 116t66 230t39 134h-85l12 44h84q8 27 8 38q0 34 -46 34q-3 0 -9 -0.5t-8 -0.5v27q124 14 208 30l-35 -128h86l-12 -44h-86l-41 -149l2 -2q62 86 136 86q52 0 81 -36.5t29 -89.5zM369 326
q0 68 -46 68q-38 0 -78.5 -74t-63 -154t-22.5 -115q0 -31 32 -31q51 0 94 59t63.5 128t20.5 119z" />
    <glyph glyph-name="uni0181" unicode="&#x181;" horiz-adv-x="778" 
d="M787 525q0 -39 -15.5 -69t-44.5 -49t-58 -30t-68 -21v-2q64 -20 99 -52.5t35 -93.5q0 -58 -26.5 -100.5t-71 -65t-93.5 -32.5t-104 -10h-301v25q37 5 53.5 20t26.5 52l147 540q-42 0 -74.5 -4t-69.5 -15t-63.5 -35.5t-38.5 -61.5q-1 -3 -1 -8q0 -10 7 -17q4 0 13 3t13 3
q22 0 36 -14t14 -36q0 -20 -15 -33.5t-35 -13.5q-30 0 -50 24t-20 55q0 52 28 90t73.5 57.5t92 28.5t93.5 9h182q42 0 78.5 -5.5t74.5 -19.5t60.5 -44.5t22.5 -74.5zM640 539q0 98 -90 98q-23 0 -32.5 -10t-16.5 -34l-61 -225q49 2 82.5 9t62 25t42 52t13.5 85zM582 225
q0 37 -10.5 60.5t-34 34t-45.5 14t-60 4.5q-3 -11 -23.5 -79.5t-34 -121.5t-13.5 -74q0 -31 61 -31q74 0 117 58.5t43 134.5z" />
    <glyph glyph-name="uni0182" unicode="&#x182;" horiz-adv-x="648" 
d="M237 607q0 19 -13 24.5t-52 11.5q-5 1 -8 1v25h547l-43 -190h-27q0 94 -40.5 126t-140.5 32q-62 0 -75 -49l-49 -184q175 0 239 -34t64 -124q0 -80 -51 -137.5t-126.5 -83t-163.5 -25.5h-274v25q37 5 53 19t27 53l123 449q10 36 10 61zM328 374l-78 -281q-5 -16 -5 -28
q0 -33 49 -33q78 0 126 66.5t48 161.5q0 114 -110 114h-30z" />
    <glyph glyph-name="uni0183" unicode="&#x183;" horiz-adv-x="486" 
d="M185 20q46 0 88.5 53.5t66.5 124t24 127.5q0 69 -44 69q-34 0 -67 -48t-53.5 -111t-33 -116.5t-12.5 -71.5q0 -11 9 -19t22 -8zM121 642v27h393l-49 -154l-30 -4q8 38 8 56q0 67 -77 67h-54l-73 -263q38 50 69 70.5t69 20.5q49 0 80.5 -34.5t31.5 -89.5
q0 -134 -99 -242.5t-221 -108.5q-49 0 -93.5 19.5t-44.5 40.5q0 10 20 81l94 327q39 137 39 157q0 17 -13 23.5t-50 6.5z" />
    <glyph glyph-name="uni0184" unicode="&#x184;" horiz-adv-x="640" 
d="M596 208q0 -58 -26.5 -100.5t-71 -65t-93.5 -32.5t-104 -10h-301v25q37 5 53.5 20t26.5 52l81 301q-1 3 -13.5 30.5t-22 51t-9.5 28.5q0 9 12 17q5 3 34.5 22.5t63 41t69 44t60 37.5t27.5 16q2 -2 2 -7q0 -10 -83 -311q30 0 52.5 -1t55 -4.5t56.5 -9.5t50 -18t42.5 -28.5
t27.5 -41.5t11 -57zM443 225q0 37 -10.5 60.5t-34 34t-45.5 14t-60 4.5q-3 -11 -23.5 -79.5t-34 -121.5t-13.5 -74q0 -31 61 -31q74 0 117 58.5t43 134.5z" />
    <glyph glyph-name="uni0185" unicode="&#x185;" horiz-adv-x="502" 
d="M504 336q0 -127 -97 -238t-222 -111q-34 0 -86.5 16.5t-52.5 43.5q0 12 21 87.5t49.5 173t29.5 99.5q-1 3 -13 30t-21.5 50t-9.5 28q0 11 110.5 98.5t125.5 89.5q3 -1 3 -8q0 -5 -19 -75t-42 -154t-24 -88l2 -2q62 86 136 86q52 0 81 -36.5t29 -89.5zM379 326
q0 68 -46 68q-38 0 -78.5 -74t-63 -154t-22.5 -115q0 -31 32 -31q51 0 94 59t63.5 128t20.5 119z" />
    <glyph glyph-name="uni0186" unicode="&#x186;" horiz-adv-x="702" 
d="M407 643q-67 0 -128 -31.5t-133 -91.5l-24 25q89 77 159.5 111.5t161.5 34.5q129 0 203.5 -70t74.5 -186q0 -77 -33.5 -157t-91 -146.5t-143.5 -108.5t-182 -42q-44 0 -84.5 12.5t-66.5 24.5t-37 12q-26 0 -56 -46h-27l59 234h25q43 -204 183 -204q64 0 116 41t82 99
t51 127t28.5 120.5t7.5 82.5q0 48 -14 81.5t-37 49t-45.5 22t-48.5 6.5z" />
    <glyph glyph-name="uni0187" unicode="&#x187;" horiz-adv-x="870" 
d="M874 527q-20 0 -33 11t-13 31q0 19 20 43.5t20 27.5q0 19 -34 19t-60 -12.5t-42 -30.5t-29 -48t-18.5 -53t-12.5 -57q-4 -19 -22 -19q-16 0 -16 21q0 6 1.5 16.5t1.5 13.5q0 71 -51 115t-123 44q-63 0 -116.5 -47.5t-85 -117t-49 -141.5t-17.5 -129q0 -77 36 -128
t108 -51q69 0 118.5 29t97.5 89l30 -22q-47 -70 -118 -109.5t-154 -39.5q-119 0 -195.5 70t-76.5 188q0 85 31 165.5t84 142.5t130 99.5t164 37.5q72 0 131 -33.5t80 -97.5q56 134 185 134q42 0 75.5 -19.5t33.5 -58.5q0 -34 -23.5 -58.5t-57.5 -24.5z" />
    <glyph glyph-name="uni0188" unicode="&#x188;" horiz-adv-x="600" 
d="M604 386q-20 0 -33 11t-13 31q0 19 20 43.5t20 27.5q0 19 -34 19q-57 0 -101 -43t-52 -101q-4 -35 -17 -53.5t-46 -18.5q-23 0 -40 14.5t-17 37.5q0 15 10.5 34t10.5 24q0 17 -23 17q-31 0 -60 -34t-47 -81t-29 -92.5t-11 -73.5q0 -40 17.5 -68.5t55.5 -28.5q61 0 122 90
l28 -18q-47 -68 -90.5 -102t-111.5 -34q-67 0 -108 43.5t-41 110.5q0 70 38.5 144.5t105.5 125.5t138 51q68 0 99 -40q54 125 181 125q42 0 75.5 -19.5t33.5 -58.5q0 -34 -23.5 -58.5t-57.5 -24.5z" />
    <glyph glyph-name="uni0189" unicode="&#x189;" horiz-adv-x="723" 
d="M213 602q0 23 -14 29.5t-59 12.5v25h290q142 0 221.5 -72.5t79.5 -200.5q0 -170 -127 -283t-318 -113h-286v25q37 5 53.5 19.5t26.5 52.5l63 232h-102l12 44h102l46 170q12 47 12 59zM303 373h122l-12 -44h-122l-55 -203q-1 -2 -1 -4q-12 -35 -12 -54q0 -34 54 -34
q140 0 219 113q41 58 64.5 141.5t23.5 168.5q0 181 -165 181q-45 0 -55 -38z" />
    <glyph glyph-name="uni018A" unicode="&#x18a;" horiz-adv-x="860" 
d="M867 391q0 -119 -63.5 -210t-163.5 -136t-218 -45h-286v25q37 5 53.5 20t26.5 52l147 540q-43 0 -75.5 -3.5t-69.5 -14.5t-63 -36t-38 -62q-1 -3 -1 -8q0 -10 7 -17q5 0 13 3t13 3q22 0 36 -14t14 -36q0 -20 -15 -33.5t-35 -13.5q-30 0 -50 24t-20 55q0 52 28 90
t73.5 57.5t92 28.5t93.5 9h200q139 0 220 -71t81 -207zM720 453q0 185 -162 185q-25 0 -38.5 -7.5t-19.5 -30.5l-128 -474q-13 -49 -13 -57q0 -16 10.5 -24t21 -9.5t27.5 -1.5q63 0 114.5 26t85.5 68.5t57.5 98t34 112.5t10.5 114z" />
    <glyph glyph-name="uni018B" unicode="&#x18b;" horiz-adv-x="717" 
d="M409 374q-65 0 -119.5 -46.5t-82 -107t-27.5 -112.5q0 -76 87 -76q33 0 52 14t29 47l91 281h-30zM461 635q-46 0 -83.5 -5.5t-65 -19t-46.5 -24t-36 -32t-23 -30t-18 -32t-13 -24.5h-24l66 201h574l-15 -25q-52 -3 -75 -18t-36 -53l-156 -477q-6 -18 -6 -29
q0 -20 17.5 -28.5t59.5 -13.5l-15 -25h-322q-106 0 -167 37.5t-61 100.5q0 53 38.5 114.5t70.5 83.5q30 20 57 32t97 24t170 12l61 184q5 15 5 22q0 25 -54 25z" />
    <glyph glyph-name="uni018C" unicode="&#x18c;" horiz-adv-x="505" 
d="M415 634h-70q-25 0 -45.5 -9.5t-32 -20t-23.5 -31.5t-16 -30.5t-12 -31.5l-28 4l43 154h312v-10l-100 -365q-57 -207 -57 -223q0 -4 3.5 -8t7.5 -4q24 0 67 72l22 -16q-41 -66 -76.5 -96t-72.5 -30q-28 0 -44 16.5t-16 45.5q0 16 11 67q-43 -71 -81 -101t-85 -30
q-46 0 -76 35.5t-30 89.5q0 76 42 158.5t106.5 137t123.5 54.5q39 0 72 -33q50 186 55 205zM345 370q0 22 -11 36t-29 14q-39 0 -79.5 -62t-63 -132.5t-22.5 -108.5q0 -25 11.5 -41.5t29.5 -16.5q40 0 80 68.5t62 140.5t22 102z" />
    <glyph glyph-name="uni018D" unicode="&#x18d;" horiz-adv-x="546" 
d="M345 461q79 0 131 -44.5t52 -118.5q0 -97 -78.5 -180t-179.5 -83q-32 0 -72 14l-2 -2q7 -4 38 -21.5t44.5 -27t34.5 -27t30 -37t9 -42.5q0 -58 -52 -95.5t-116 -37.5q-104 0 -141 101l38 14q4 -36 32 -59t66 -23q29 0 52 14t23 40q0 23 -21.5 44.5t-51.5 42.5t-60.5 47
t-52 69t-21.5 97q0 122 87 218.5t211 96.5zM173 127q0 -23 19 -43.5t46 -20.5q46 0 85.5 54.5t59.5 123t20 124.5q0 25 -19.5 46.5t-48.5 21.5q-43 0 -81.5 -55t-59.5 -125.5t-21 -125.5z" />
    <glyph glyph-name="uni018E" unicode="&#x18e;" horiz-adv-x="670" 
d="M290 32q22 0 39 5.5t26.5 12t17 19t10.5 20.5t6.5 22t5.5 18l69 209q-96 -2 -140 -27.5t-80 -106.5l-31 -5l90 273l30 4q-2 -22 -2 -36q0 -43 26 -56.5t104 -13.5h13l73 223q5 15 5 23q0 12 -9.5 16.5t-31.5 4.5q-61 0 -105.5 -10.5t-76 -33.5t-51.5 -47t-43 -62l-30 -5
l71 190h540l-15 -25q-6 -1 -19.5 -2.5l-18 -2t-15 -3t-14.5 -5t-11.5 -7.5t-12 -11.5t-10.5 -16t-11 -22t-10 -28.5l-147 -449q-8 -27 -8 -40q0 -14 10 -21t35 -11l-15 -25h-554l58 194l28 5q0 -38 8 -65.5t29 -52t63 -37t104 -12.5z" />
    <glyph glyph-name="uni018F" unicode="&#x18f;" horiz-adv-x="629" 
d="M646 428q0 -193 -127.5 -320t-319.5 -127q-67 0 -113.5 34.5t-46.5 100.5q0 60 31.5 108.5t79.5 79t110.5 52t118.5 31t110 12.5q3 27 3 55q0 77 -36 128t-108 51q-69 0 -119 -29.5t-97 -88.5l-30 22q46 70 117.5 109.5t154.5 39.5q119 0 195.5 -70t76.5 -188zM483 364
q-124 -13 -216.5 -89t-92.5 -194q0 -63 40 -63q54 0 103 36t81.5 91t54 111.5t30.5 107.5z" />
    <glyph glyph-name="Epsilonlatin" unicode="&#x190;" horiz-adv-x="608" 
d="M185 358q-62 23 -62 88q0 24 7 52q23 89 110 141t192 52q35 0 82.5 -16.5t59.5 -16.5q24 0 43 30h33l-53 -213h-37v11q0 74 -25.5 110t-89.5 36q-72 0 -115.5 -51t-43.5 -127q0 -36 23 -53.5t80 -17.5h61l-15 -58h-58q-85 0 -137.5 -52.5t-52.5 -125.5q0 -46 35.5 -69
t97.5 -23q101 0 204 113l30 -33q-21 -27 -35 -42.5t-41 -39.5t-53 -37.5t-65.5 -24t-83.5 -10.5q-71 0 -128 14.5t-96 51t-39 90.5q0 65 43.5 131.5t128.5 89.5z" />
    <glyph glyph-name="uni0191" unicode="&#x191;" horiz-adv-x="639" 
d="M714 669l-43 -190l-27 5q0 90 -41.5 121.5t-139.5 31.5q-27 0 -39.5 -9t-19.5 -35l-61 -223q92 0 125.5 16.5t72.5 89.5l28 -4l-74 -273l-28 5q4 26 4 40q0 26 -7.5 44t-18 28t-31 15t-36.5 6t-44 1l-85 -314q-27 -97 -87 -164t-151 -67q-41 0 -73.5 19.5t-32.5 57.5
q0 21 14.5 37t34.5 16t34.5 -14.5t14.5 -34.5q0 -12 -7.5 -24t-7.5 -14q0 -5 8.5 -8.5t13.5 -3.5q9 0 17.5 5t15.5 15.5t12 20.5t10 25t7.5 24.5t6 23t4.5 17.5l161 591q10 34 10 56q0 10 -3.5 17.5t-8 11.5t-13.5 6.5t-14.5 3t-17 1.5t-16.5 2v25h533z" />
    <glyph glyph-name="florin" unicode="&#x192;" horiz-adv-x="435" 
d="M303 407q-60 -286 -86 -369q-54 -178 -136 -223q-35 -20 -79 -20q-43 0 -70 21t-27 63q0 18 16.5 33.5t34.5 15.5q20 0 35 -15t15 -34q0 -11 -8 -25.5t-8 -15.5q0 -12 16 -12t28 8t22 30.5t18 50t19.5 79t22.5 104t30 139t40 170.5h-73l9 42h73q63 249 227 249
q42 0 70 -20t28 -60q0 -23 -14.5 -38t-37.5 -15q-21 0 -34.5 14.5t-13.5 35.5q0 11 8 25t8 15q0 14 -17 14q-13 0 -25.5 -9.5t-22.5 -26.5t-18 -35.5t-15.5 -43t-12 -41.5t-9.5 -38t-6 -26h92l-9 -42h-90z" />
    <glyph glyph-name="uni0193" unicode="&#x193;" horiz-adv-x="885" 
d="M889 527q-20 0 -33 11t-13 31q0 19 20 43.5t20 27.5q0 19 -34 19t-60 -12.5t-42 -30.5t-29 -48t-18.5 -53t-12.5 -57q-4 -19 -22 -19q-16 0 -16 21q0 6 1.5 17t1.5 14q0 70 -49 114t-120 44q-68 0 -124 -48t-89 -119.5t-51 -145.5t-18 -135q0 -81 41.5 -131t119.5 -50
q76 0 101 36q7 11 30.5 100t23.5 106q0 10 -4 17.5t-7.5 11.5t-14 6.5t-14.5 3.5t-18 2t-16 1v26h287v-26q-40 -3 -53 -17.5t-24 -56.5q-1 -5 -2 -8l-48 -181q-124 -59 -257 -59q-130 0 -215.5 72t-85.5 199q0 174 124 303t297 129q72 0 130.5 -33.5t79.5 -97.5
q56 134 185 134q42 0 75.5 -19.5t33.5 -58.5q0 -34 -23.5 -58.5t-57.5 -24.5z" />
    <glyph glyph-name="Gammalatin" unicode="&#x194;" horiz-adv-x="629" 
d="M704 644q-30 -5 -51.5 -19.5t-47.5 -41.5l-198 -204q3 -11 17.5 -55.5t22 -70t15 -62t7.5 -60.5q0 -153 -216 -153q-51 0 -83.5 25.5t-32.5 74.5q0 91 148 231l-84 272q-11 36 -30.5 47.5t-60.5 15.5v25h305v-25q-3 0 -16 -1t-18 -1.5t-15 -3.5t-14 -7t-7.5 -11.5
t-3.5 -17.5t10.5 -46.5t24.5 -81.5t16 -53l21 21t42 43.5t46 50t39.5 48.5t15.5 31t-3 14.5t-11 8t-11.5 3.5t-16 2t-13.5 1v25h203v-25zM341 105q0 15 -5.5 39t-10 39t-15.5 46.5t-12 34.5q-5 -6 -33 -35.5t-40.5 -45t-26.5 -42t-14 -49.5q0 -32 23 -47.5t57 -15.5
q36 0 56.5 19.5t20.5 56.5z" />
    <glyph glyph-name="uni0195" unicode="&#x195;" horiz-adv-x="738" 
d="M757 397q0 -23 -7.5 -59.5t-23 -83.5t-44 -93t-64.5 -85.5t-90.5 -63.5t-117.5 -24q-37 0 -69 22.5t-32 58.5q0 49 37 151t37 147q0 23 -23 23q-42 0 -121 -122q-43 -66 -101 -268h-121l154 567q8 28 8 42q0 34 -44 34q-3 0 -9.5 -0.5t-9.5 -0.5v27q104 9 208 30
l-106 -410l2 -1q22 33 39.5 55.5t46 54t59.5 48t62 16.5q78 0 78 -81q0 -41 -38.5 -144.5t-38.5 -149.5q0 -13 15.5 -19.5t30.5 -6.5q47 0 87.5 23t66.5 55.5t44.5 69t26.5 63t8 37.5q0 19 -32 48t-32 48q0 22 16 39.5t38 17.5q60 0 60 -65z" />
    <glyph glyph-name="uni0196" unicode="&#x196;" horiz-adv-x="284" 
d="M32 58q0 44 71 287t71 268q0 30 -44 30q-4 0 -10.5 -0.5t-8.5 -0.5v27q91 8 209 30l-145 -523q-22 -75 -22 -100q0 -6 5 -10.5t10 -4.5q26 0 78 80l22 -14q-19 -29 -26 -39t-26 -34t-33.5 -34t-36.5 -19.5t-46 -9.5q-68 0 -68 67z" />
    <glyph glyph-name="uni0197" unicode="&#x197;" horiz-adv-x="389" 
d="M443 644q-39 -5 -55.5 -19.5t-26.5 -52.5l-54 -199h77l-15 -44h-74q0 -1 -20 -65.5t-33 -117.5t-13 -78q0 -15 6 -24t19 -13t21 -4.5t26 -1.5v-25h-296v25q37 5 53 19.5t27 52.5l64 232h-79l16 44h75q3 12 19.5 64t27 95.5t10.5 69.5q0 12 -4 20t-13 11.5t-15.5 5.5
t-21 3t-19.5 2v25h298v-25z" />
    <glyph glyph-name="uni0198" unicode="&#x198;" horiz-adv-x="748" 
d="M833 592q0 -20 -14.5 -36t-34.5 -16t-34 14.5t-14 34.5q0 13 7 24.5t7 13.5q0 5 -8 9t-14 4q-17 0 -37 -7.5t-44 -26t-36 -28t-39 -34.5l-27 -25l-132 -121l157 -338q9 -19 23.5 -25.5t39.5 -9.5v-25h-280v25q4 1 15 1.5t18 1.5t15.5 4t12.5 9t4 15q0 18 -121 269l-8 2
q-3 -10 -22 -75t-31.5 -115t-12.5 -70q0 -18 12 -27.5t22.5 -11.5t31.5 -3v-25h-289v25q38 5 54 19.5t26 52.5l122 449q11 37 11 54q0 12 -3.5 20t-13.5 12.5t-15.5 6t-21.5 3t-19 2.5v25h310v-25q-42 -3 -62.5 -18t-31.5 -54l-60 -221l5 -1l213 193q83 76 126 100
q47 26 87 26q45 0 75.5 -18t30.5 -59z" />
    <glyph glyph-name="uni0199" unicode="&#x199;" horiz-adv-x="489" 
d="M506 424q-23 -3 -44.5 -12t-44 -25.5t-37 -28t-39 -34.5t-33.5 -31q1 -3 4 -22t6.5 -37.5t8.5 -44t11.5 -46.5t14 -39.5t16.5 -29.5t18 -11q26 0 61 64l22 -11q-15 -27 -24.5 -42t-27.5 -37.5t-38.5 -33.5t-44.5 -11q-20 0 -37 9t-30 30.5t-21 36t-16 47.5t-9.5 42.5
t-7.5 41.5q-2 11 -3 16l-39 -27l-50 -188h-122l129 467q63 231 208 231q41 0 73.5 -19.5t32.5 -57.5q0 -21 -14.5 -37t-34.5 -16t-34.5 14.5t-14.5 34.5q0 12 7.5 24t7.5 14q0 5 -8.5 8.5t-13.5 3.5q-9 0 -17.5 -5t-15.5 -15.5t-12 -20.5t-10 -25t-7.5 -24.5t-6 -23
t-4.5 -17.5l-78 -292l2 -2q161 125 161 157q0 25 -51 25v25h207v-25z" />
    <glyph glyph-name="uni019A" unicode="&#x19a;" horiz-adv-x="324" 
d="M360 699l-89 -321h86l-12 -44h-86q-1 -2 -10 -32.5t-17 -59.5t-17.5 -64t-15.5 -62.5t-6 -39.5q0 -6 5 -10.5t10 -4.5q26 0 78 80l22 -14q-19 -29 -26 -39t-26 -34t-33.5 -34t-36.5 -19.5t-46 -9.5q-68 0 -68 67q0 35 69 276h-84l12 44h85q60 213 60 235q0 30 -44 30
q-4 0 -10.5 -0.5t-8.5 -0.5v27q91 8 209 30z" />
    <glyph glyph-name="lambdastroke" unicode="&#x19b;" horiz-adv-x="508" 
d="M192 412v54l138 61q-7 69 -43 69q-54 0 -79 -68l-24 12q7 32 19 63.5t40.5 63t64.5 31.5q17 0 28 -11t17 -33.5t9 -48t4 -62.5l105 47v-54l-105 -47l3 -331q1 -67 39 -67q25 0 44 23.5t23 51.5l24 -14q-10 -66 -40 -115.5t-82 -49.5q-45 0 -45 89v210h-2l-183 -286h-147
l311 465z" />
    <glyph glyph-name="uni019C" unicode="&#x19c;" horiz-adv-x="853" 
d="M928 637q-41 -1 -60.5 -13.5t-30.5 -50.5l-132 -470q-7 -23 -7 -40t12.5 -26t24.5 -10.5t31 -1.5v-25h-25q-143 0 -220 -17l45 149q-82 -145 -180 -145q-36 0 -62.5 16.5t-26.5 50.5q0 33 14 82q-84 -149 -189 -149q-38 0 -59.5 21t-21.5 58q0 24 11 61l122 432
q6 19 6 39q0 18 -11.5 27t-23 10.5t-30.5 1.5v25h266v-25q-15 -1 -24 -3.5t-14.5 -10.5t-8 -15t-7.5 -24q0 -1 -38 -129.5t-71.5 -245.5t-33.5 -125q0 -24 19 -24q40 0 99 126t99 258t40 167q0 22 -30 26v25h225v-25q-15 -1 -23.5 -3.5t-14.5 -11.5t-8 -14.5t-7 -23.5
q0 -1 -38 -129.5t-71.5 -245.5t-33.5 -125q0 -24 19 -24q42 0 100.5 125.5t97.5 257t39 168.5q0 22 -30 26v25h262v-25z" />
    <glyph glyph-name="uni019D" unicode="&#x19d;" horiz-adv-x="824" 
d="M899 644q-19 -5 -33.5 -14t-23 -17.5t-16.5 -26.5t-11 -27.5t-9 -34t-9 -33.5l-143 -506h-28l-257 549l-170 -581q-21 -70 -70 -115t-118 -45q-42 0 -74 19t-32 58q0 21 14.5 37t34.5 16t34.5 -14.5t14.5 -34.5q0 -12 -7.5 -24t-7.5 -14q0 -5 8.5 -8.5t13.5 -3.5
q53 0 94 41.5t57 95.5l184 628q-14 33 -29.5 42.5t-53.5 12.5v25h195l215 -465l80 287q18 65 18 92q0 24 -12.5 37.5t-27.5 17.5t-40 6v25h209v-25z" />
    <glyph glyph-name="uni019E" unicode="&#x19e;" horiz-adv-x="506" 
d="M490 383q0 -40 -35 -141.5t-70 -215t-35 -182.5q0 -21 9.5 -40t28.5 -19q11 0 11 11q0 3 -1 9t-1 8q0 22 13 35.5t35 13.5t36.5 -15t14.5 -38q0 -27 -23.5 -45.5t-50.5 -18.5q-73 0 -112 60.5t-39 137.5q0 33 4.5 70t10 65.5t18 72.5t19 65.5t22.5 70t21 63.5q4 10 4 18
q0 9 -8 15.5t-17 6.5q-35 0 -72.5 -49.5t-67 -123.5t-47 -126.5t-27.5 -90.5h-121q2 8 30.5 107t50 178.5t21.5 95.5q0 26 -46 26h-8v27q78 0 200 27l-60 -186l3 -2q3 5 18.5 28t21.5 32t22.5 30.5t26 31.5t26.5 25.5t31 22.5t31.5 13t35.5 6q76 0 76 -79z" />
    <glyph glyph-name="uni019F" unicode="&#x19f;" horiz-adv-x="670" 
d="M691 444q0 -81 -35 -164.5t-92 -149t-136.5 -107t-162.5 -41.5q-100 0 -169 63t-69 162q0 83 33 168.5t88 154t135 112t166 43.5q108 0 175 -66.5t67 -174.5zM547 526q0 55 -25.5 90t-79.5 35q-43 0 -82 -28.5t-67 -75.5t-45.5 -88.5t-31.5 -85.5h308q23 94 23 153z
M512 329h-310q-31 -116 -31 -179q0 -134 104 -134q46 0 87 33t70.5 87t47.5 99.5t32 93.5z" />
    <glyph glyph-name="Ohorn" unicode="&#x1a0;" horiz-adv-x="804" 
d="M723 482q-16 0 -36 5q4 -19 4 -43q0 -81 -35 -164.5t-92 -149t-136.5 -107t-162.5 -41.5q-100 0 -169 63t-69 162q0 83 33 168.5t88 154t135 112t166 43.5q143 0 215 -127q21 -38 67 -38q32 0 65.5 21.5t33.5 51.5q0 20 -25 20q-5 0 -15 -2.5t-16 -2.5q-18 0 -31.5 10.5
t-13.5 28.5q0 32 25.5 55t57.5 23q34 0 55 -26.5t21 -60.5q0 -60 -52 -108t-113 -48zM547 526q0 55 -25.5 90t-79.5 35q-59 0 -112.5 -59t-86.5 -142t-52.5 -164.5t-19.5 -135.5q0 -134 104 -134q60 0 113.5 60t86.5 145t52.5 168t19.5 137z" />
    <glyph glyph-name="ohorn" unicode="&#x1a1;" horiz-adv-x="579" 
d="M453 348q4 -17 4 -40q0 -75 -37 -149t-103.5 -123t-143.5 -49q-67 0 -113.5 41t-46.5 108q0 76 37.5 151t105 125t144.5 50q32 0 59.5 -12t44 -26.5t36.5 -26.5t39 -12q32 0 65.5 21.5t33.5 51.5q0 20 -25 20q-5 0 -15 -2.5t-16 -2.5q-18 0 -31.5 10.5t-13.5 28.5
q0 32 25.5 55t57.5 23q34 0 55 -26.5t21 -60.5q0 -59 -52 -108t-112 -49q-7 0 -19 2zM338 369q0 64 -48 64q-36 0 -67.5 -42.5t-50.5 -101.5t-29.5 -114.5t-10.5 -88.5q0 -70 52 -70q34 0 64.5 44t49 104.5t29.5 117t11 87.5z" />
    <glyph glyph-name="uni01A2" unicode="&#x1a2;" horiz-adv-x="1014" 
d="M996 596q0 -24 -11 -61l-122 -432q-6 -19 -6 -39q0 -18 11.5 -27t23 -10.5t30.5 -1.5v-25h-266v25q19 0 30 7.5t14.5 15.5t9.5 30q138 460 138 485q0 41 -54 41q-28 0 -60.5 -26.5t-53.5 -55.5q11 -34 11 -78q0 -81 -35 -164.5t-92 -149t-136.5 -107t-162.5 -41.5
q-100 0 -169 63t-69 162q0 83 33 168.5t88 154t135 112t166 43.5q69 0 127.5 -33t90.5 -93q39 46 100 81t116 35q38 0 75.5 -21.5t37.5 -57.5zM547 526q0 55 -25.5 90t-79.5 35q-59 0 -112.5 -59t-86.5 -142t-52.5 -164.5t-19.5 -135.5q0 -134 104 -134q60 0 113.5 60
t86.5 145t52.5 168t19.5 137z" />
    <glyph glyph-name="uni01A3" unicode="&#x1a3;" horiz-adv-x="755" 
d="M738 122q-22 -38 -39.5 -62t-49.5 -46.5t-68 -22.5q-70 0 -70 65q0 49 44 169t44 141q0 23 -24 23q-29 0 -69 -51t-55 -87q-5 -12 -12.5 -39.5t-13.5 -41.5q-37 -79 -104 -131t-148 -52q-67 0 -113.5 41t-46.5 108q0 76 37.5 151t105 125t144.5 50q68 0 112.5 -42.5
t44.5 -110.5q20 31 35 51.5t39.5 47t52 40.5t57.5 14q37 0 58 -21t21 -58q0 -46 -44.5 -161.5t-44.5 -147.5q0 -15 17 -15q5 0 11.5 5t12.5 11t13.5 16t12 16.5t11 16.5t7.5 11zM338 369q0 64 -48 64q-36 0 -67.5 -42.5t-50.5 -101.5t-29.5 -114.5t-10.5 -88.5q0 -70 52 -70
q34 0 64.5 44t49 104.5t29.5 117t11 87.5z" />
    <glyph glyph-name="uni01A4" unicode="&#x1a4;" horiz-adv-x="718" 
d="M98 513q0 -5 3 -11t6 -6q4 0 14 3t15 3q20 0 32.5 -15t12.5 -35t-15 -33.5t-35 -13.5q-30 0 -50 24t-20 55q0 52 28 90t73.5 57.5t92 28.5t93.5 9h197q213 0 213 -157q0 -95 -80 -145t-181 -50q-41 0 -93 5q-1 -5 -21 -69.5t-31.5 -112t-11.5 -72.5q0 -15 6 -24t19 -13
t21 -4.5t26 -1.5v-25h-294v25q39 7 54.5 20t25.5 52l123 449q10 34 10 56q0 11 -1 17t-6.5 11.5t-15.5 5.5q-58 0 -102.5 -15.5t-66 -37.5t-31.5 -40t-10 -30zM612 541q0 96 -85 96q-24 0 -33 -10t-16 -34l-64 -239q26 -2 38 -2q82 0 121 51.5t39 137.5z" />
    <glyph glyph-name="uni01A5" unicode="&#x1a5;" horiz-adv-x="484" 
d="M486 336q0 -71 -36 -151t-101.5 -139t-138.5 -59q-27 0 -69 22q-3 -14 -13.5 -46.5t-17 -59.5t-6.5 -47q0 -34 61 -34h4v-27h-249v27h4q32 0 45.5 13t22.5 49l150 583q60 231 208 231q41 0 73.5 -19.5t32.5 -57.5q0 -21 -14.5 -37t-34.5 -16t-34.5 14.5t-14.5 34.5
q0 12 7.5 24t7.5 14q0 5 -8.5 8.5t-13.5 3.5q-9 0 -17.5 -5t-15.5 -15.5t-12 -20.5t-10 -25t-7.5 -24.5t-6 -23t-4.5 -17.5l-42 -158l2 -2q64 86 137 86q56 0 83.5 -34t27.5 -92zM361 340q0 20 -10.5 35.5t-29.5 15.5q-28 0 -53.5 -25.5t-41.5 -57.5q-14 -29 -43.5 -126.5
t-29.5 -120.5q0 -18 11 -28.5t29 -10.5q44 0 85 64.5t62 137.5t21 116z" />
    <glyph glyph-name="uni01A6" unicode="&#x1a6;" horiz-adv-x="661" 
d="M505 -196q-68 0 -108 31.5t-40 97.5q0 27 11.5 80t11.5 81q0 55 -34.5 74t-99.5 19q-2 -7 -9 -35t-11 -48t-4 -36q0 -15 6 -24t19 -13t21 -4.5t26 -1.5v-25h-294v25q39 7 54.5 20t25.5 52l123 449q10 34 10 56q0 21 -18.5 29t-54.5 13v25h294l-1 -25q-29 -5 -47.5 -21
t-26 -33t-20.5 -56q48 0 82 -2.5t70 -12t58 -26t36.5 -46t14.5 -70.5q0 -65 -40.5 -110.5t-106.5 -67.5q45 -15 60.5 -43t15.5 -82q0 -29 -12 -85.5t-12 -85.5q0 -19 12 -34t33 -15q18 0 48.5 39.5t40.5 39.5q13 0 13 -11q0 -40 -53 -79t-94 -39zM454 406q0 96 -85 96
q-24 0 -33 -10t-16 -34l-64 -239q26 -2 38 -2q82 0 121 51.5t39 137.5z" />
    <glyph glyph-name="uni01A7" unicode="&#x1a7;" horiz-adv-x="526" 
d="M129 90q0 -74 84 -74q78 0 136.5 53.5t93.5 134.5l30 2l-52 -224h-30q0 18 -4.5 26.5t-21.5 8.5q-21 0 -80.5 -17.5t-94.5 -17.5q-73 0 -122.5 27.5t-49.5 93.5q0 55 23 103t59 82t80 64.5t88.5 57t80.5 53t59 59.5t23 70q0 58 -70 58q-68 0 -115 -46t-84 -120l-28 -4
l39 201h30q3 -26 34 -26q26 0 78 15t79 15q63 0 102.5 -30t39.5 -90q0 -50 -22.5 -93t-58.5 -74.5t-79 -60t-86.5 -55t-79.5 -54t-58.5 -63t-22.5 -75.5z" />
    <glyph glyph-name="uni01A8" unicode="&#x1a8;" horiz-adv-x="400" 
d="M93 57q0 -19 12 -29.5t31 -10.5q44 0 79.5 40.5t56.5 92.5l28 3l-29 -166h-27q0 8 -7 14t-16 6q-16 0 -48 -10t-50 -10q-47 0 -81 24t-34 69q0 39 23 77.5t56 69t66 58.5t56 56.5t23 52.5q0 35 -39 35q-40 0 -71.5 -36t-52.5 -83l-29 -2l25 153h29q4 -21 22 -21
q17 0 49.5 11t51.5 11q44 0 73.5 -21t29.5 -63q0 -41 -23.5 -81t-57 -71.5t-66.5 -60t-56.5 -57t-23.5 -51.5z" />
    <glyph glyph-name="uni01A9" unicode="&#x1a9;" horiz-adv-x="701" 
d="M777 669l-37 -194h-30q2 22 2 32q0 128 -146 128h-216l121 -271l-257 -223h276q46 0 75.5 5t58.5 27t41 63h28l-85 -236h-580l9 33l314 270l-161 321l11 45h576z" />
    <glyph glyph-name="uni01AA" unicode="&#x1aa;" horiz-adv-x="455" 
d="M418 624q0 -17 -1.5 -29.5t-5 -30.5t-14 -61.5t-23.5 -98t-39 -165.5t-56 -241q-2 -8 -8.5 -36t-9.5 -42t-6 -36t-3 -40q0 -21 9.5 -40t28.5 -19q11 0 11 11q0 3 -1 9t-1 8q0 22 13 35.5t35 13.5t36.5 -15t14.5 -38q0 -27 -23.5 -45.5t-50.5 -18.5q-55 0 -93.5 37
t-53.5 85.5t-15 101.5q0 71 21.5 175.5t39.5 166t52 170.5q-60 0 -101.5 41.5t-41.5 101.5t41.5 101.5t101.5 41.5t101.5 -41.5t41.5 -101.5zM377 624q0 43 -29.5 75t-72.5 32t-72.5 -32t-29.5 -75t29.5 -75t72.5 -32t72.5 32t29.5 75z" />
    <glyph glyph-name="uni01AB" unicode="&#x1ab;" horiz-adv-x="333" 
d="M368 407h-83q-1 -4 -27.5 -93.5t-43 -153.5t-16.5 -84q0 -5 5 -10t10 -5q25 0 77 80l22 -14l-45 -177q-19 -75 -86.5 -127.5t-144.5 -52.5q-111 0 -111 97q0 26 19 45t45 19t45 -19t19 -45q0 -41 -38 -58q8 -9 31 -9q64 0 118.5 44.5t70.5 106.5l28 106q-55 -66 -115 -66
q-33 0 -52.5 17.5t-19.5 49.5q0 23 18 92t45 158.5t29 98.5h-51v35q113 43 183 152h35l-39 -145h72v-42z" />
    <glyph glyph-name="uni01AC" unicode="&#x1ac;" horiz-adv-x="611" 
d="M304 636q-63 -3 -107.5 -19.5t-64 -38t-27 -37.5t-7.5 -28q0 -10 7 -17q8 0 17.5 3t14.5 3q19 0 31.5 -15.5t12.5 -34.5q0 -20 -15 -33.5t-35 -13.5q-30 0 -50 24t-20 55q0 52 28 90t73.5 57.5t92 28.5t93.5 9h302l-36 -192l-27 2q-2 79 -33 115.5t-105 39.5l-140 -506
q-11 -42 -11 -60q0 -42 83 -43v-25h-331v25h20q66 0 85 72q9 35 78.5 286t70.5 253z" />
    <glyph glyph-name="uni01AD" unicode="&#x1ad;" horiz-adv-x="385" 
d="M470 621q0 -21 -14.5 -37t-34.5 -16t-34.5 14.5t-14.5 34.5q0 12 7.5 24t7.5 14q0 5 -8.5 8.5t-13.5 3.5q-16 0 -30.5 -18.5t-25.5 -49.5t-18 -57.5t-14 -58t-8 -34.5h72v-42h-83q-1 -4 -27.5 -93.5t-43 -153.5t-16.5 -84q0 -5 5 -10t10 -5q25 0 77 80l22 -14
q-20 -31 -31.5 -47.5t-33.5 -41t-46.5 -36t-52.5 -11.5q-33 0 -52.5 17.5t-19.5 49.5q0 23 18 92t44.5 157t29.5 100h-51v35q48 20 70 35q61 221 204 221q41 0 73.5 -19.5t32.5 -57.5z" />
    <glyph glyph-name="uni01AE" unicode="&#x1ae;" horiz-adv-x="611" 
d="M689 669l-36 -192l-27 2q-2 79 -33 115.5t-105 39.5l-140 -506q-59 -211 -59 -284q0 -21 9.5 -40t29.5 -19q11 0 11 14q0 3 -1 9.5t-1 8.5q0 20 14 32.5t34 12.5q22 0 36.5 -15t14.5 -38q0 -27 -23.5 -45.5t-50.5 -18.5q-43 0 -75.5 21.5t-50.5 57t-27 73.5t-9 77
q0 67 18 168.5t31.5 156t52.5 193.5t40 142q-146 0 -217 -143l-25 7l38 171h551z" />
    <glyph glyph-name="Uhorn" unicode="&#x1af;" horiz-adv-x="879" 
d="M67 154q0 54 52 240t52 208q0 10 -3.5 17.5t-8 11.5t-13.5 6.5t-14.5 3t-17 1.5t-16.5 2v25h311v-25q-44 -2 -63 -16t-31 -56l-82 -300q-1 -3 -9 -31t-10 -38t-5.5 -30.5t-3.5 -36.5q0 -49 35.5 -73.5t87.5 -24.5q40 0 73 16t53 37t38 58.5t26.5 63.5t20.5 69
q1 3 24 78.5t38 135.5t15 91q0 53 -80 57v25h167v-25q-15 -3 -22.5 -21t-7.5 -36q0 -30 19.5 -48.5t49.5 -18.5q32 0 65.5 21.5t33.5 51.5q0 20 -25 20q-5 0 -15 -2.5t-16 -2.5q-18 0 -31.5 10.5t-13.5 28.5q0 32 25.5 55t57.5 23q34 0 55 -26.5t21 -60.5q0 -60 -52 -108
t-113 -48q-57 0 -83 41l-75 -260q-17 -57 -30 -92.5t-36 -75.5t-51 -62t-72 -36.5t-101 -14.5q-88 0 -153.5 44t-65.5 128z" />
    <glyph glyph-name="uhorn" unicode="&#x1b0;" horiz-adv-x="665" 
d="M569 347q-52 0 -80 37q-84 -274 -84 -306q0 -19 15 -19q24 0 71 74l21 -13q-71 -129 -159 -129q-67 0 -67 56q0 43 22 107l-2 1q-4 -5 -20 -28.5t-23.5 -32.5t-23.5 -29.5t-28 -30t-29 -21.5t-34.5 -17t-35.5 -5q-41 0 -59 19t-18 59q0 50 37.5 156t37.5 153
q0 5 -1.5 9.5t-4 7.5t-7 5t-7.5 3t-9.5 2t-9 1t-9.5 0.5t-8 0.5v27q39 2 109 13.5t100 14.5l-94 -308q-15 -47 -15 -67q0 -24 23 -24q25 0 60 42t54 77q47 87 99 267h118q1 -29 20.5 -46.5t48.5 -17.5q32 0 65.5 21.5t33.5 51.5q0 20 -25 20q-5 0 -15 -2.5t-16 -2.5
q-18 0 -31.5 10.5t-13.5 28.5q0 32 25.5 55t57.5 23q34 0 55 -26.5t21 -60.5q0 -60 -52 -108t-113 -48z" />
    <glyph glyph-name="uni01B1" unicode="&#x1b1;" horiz-adv-x="724" 
d="M798 669l-45 -174h-23q3 9 3 20q0 33 -55 33h-151l-13 -54q80 -12 136 -63.5t56 -128.5q0 -98 -66 -173t-157.5 -110t-185.5 -35q-50 0 -96.5 10.5t-88 32.5t-66.5 62t-25 93q0 121 97.5 207.5t222.5 104.5l13 54h-138q-28 0 -42.5 -2.5t-29 -14.5t-20.5 -36h-23l45 174
h272l-54 -208q-74 -26 -121.5 -124.5t-47.5 -186.5q0 -59 26.5 -96.5t82.5 -37.5q53 0 98 34t72 85.5t41.5 107t14.5 104.5q0 90 -57 114l53 208h272z" />
    <glyph glyph-name="uni01B2" unicode="&#x1b2;" horiz-adv-x="626" 
d="M604 640q-6 0 -7.5 -3.5t-1.5 -19.5q0 -18 -14.5 -31t-32.5 -13q-22 0 -36 13.5t-14 35.5q0 28 23 46.5t52 18.5q44 0 73.5 -27.5t29.5 -70.5q0 -56 -49 -219q-6 -20 -15.5 -56t-15.5 -57t-16.5 -53.5t-19 -52t-23 -45.5t-29.5 -42t-36 -33.5t-44.5 -27t-54.5 -15.5
t-67 -6q-88 0 -153.5 44t-65.5 128q0 54 52 240t52 208q0 10 -3.5 17t-8 11t-13.5 7t-14.5 3.5t-17.5 1.5t-16 2v25h311v-25q-44 -2 -63 -16t-31 -56l-82 -300q-1 -3 -9 -31t-10 -38t-5.5 -30.5t-3.5 -36.5q0 -49 35.5 -73.5t87.5 -24.5q34 0 62 9.5t48.5 29.5t35.5 40
t28 52.5t20 54.5t17 58q1 4 24.5 82t39 140.5t15.5 92.5q0 43 -34 43z" />
    <glyph glyph-name="uni01B3" unicode="&#x1b3;" horiz-adv-x="694" 
d="M769 644q-49 -9 -91 -69l-190 -267q-3 -10 -21 -68t-28.5 -102t-10.5 -69q0 -20 12 -30t24.5 -11.5t34.5 -2.5h6v-25h-322v25q49 4 69 16.5t32 55.5l60 216l-67 206q-1 3 -6 20.5t-9 29t-11.5 29.5t-14.5 29t-17 19.5t-20 8.5q-7 0 -15.5 -3.5t-8.5 -9.5q0 -5 8.5 -16
t8.5 -21q0 -20 -12.5 -36.5t-32.5 -16.5q-22 0 -37.5 15.5t-15.5 38.5q0 41 35.5 60t79.5 19q29 0 54 -6.5t45.5 -21t37 -28.5t32 -40t25.5 -43t22 -49.5t17.5 -48.5t16.5 -50.5t14 -45.5l129 186q1 2 4 6q22 33 22 59q0 41 -67 41v25h208v-25z" />
    <glyph glyph-name="yhook" unicode="&#x1b4;" horiz-adv-x="591" 
d="M626 620q0 -23 -14 -39t-38 -16q-22 0 -35 15.5t-13 33.5q0 14 8 26t8 17q0 12 -22 12q-10 0 -28.5 -27t-34.5 -70q-18 -47 -63.5 -203.5t-79.5 -252.5q-48 -133 -139 -227t-170 -94q-24 0 -41.5 18t-17.5 42q0 23 15.5 39t37.5 16q19 0 49.5 -17.5t42.5 -17.5
q29 0 60 44.5t31 74.5q0 23 -2.5 49t-8.5 58t-10 51t-13 58t-11 49q-1 6 -6 33.5t-9.5 42.5t-13 35.5t-22 30.5t-32.5 10v27q84 7 149 24q12 -31 22 -64t19 -75.5t13.5 -66t13 -77t10.5 -66.5q13 29 66.5 205t84.5 260q26 71 53 95.5t60 24.5q31 0 56 -24t25 -54z" />
    <glyph glyph-name="uni01B5" unicode="&#x1b5;" horiz-adv-x="562" 
d="M601 640l-192 -267h96l-18 -44h-109l-211 -294h80q199 0 291 164l27 -5l-59 -194h-506v29l215 300h-102l20 44h114l187 261h-78q-86 0 -142 -35.5t-110 -111.5l-28 4l57 178h468v-29z" />
    <glyph glyph-name="uni01B6" unicode="&#x1b6;" horiz-adv-x="417" 
d="M411 439l-160 -191h82l-12 -44h-107l-84 -100q37 -14 63 -41.5t36.5 -51.5t24.5 -42t31 -18q7 0 14 4t7 11q0 5 -10 19t-10 30q0 20 15 35t34 15q23 0 38.5 -15.5t15.5 -38.5q0 -40 -33 -64.5t-74 -24.5t-80.5 21t-71 41.5t-52.5 20.5q-6 0 -11.5 -1.5t-11.5 -5t-10 -6
t-11 -8t-9 -7.5l-25 22l169 205h-86l12 44h110l87 105h-145q-41 0 -63 -61l-28 3l43 154h312v-10z" />
    <glyph glyph-name="Yogh" unicode="&#x1b7;" horiz-adv-x="609" 
d="M684 640l-244 -261q125 -36 125 -155q0 -77 -49.5 -134t-118.5 -82.5t-143 -25.5q-50 0 -103 17.5t-94.5 57.5t-41.5 92q0 33 21.5 56.5t54.5 23.5q26 0 45 -18.5t19 -44.5t-20 -50.5t-20 -33.5q0 -30 32 -44t66 -14q62 0 106.5 36.5t63.5 89t19 113.5q0 56 -27.5 79
t-84.5 23v33l227 236h-78q-86 0 -142 -35.5t-110 -111.5l-28 4l57 178h468v-29z" />
    <glyph glyph-name="uni01B8" unicode="&#x1b8;" horiz-adv-x="614" 
d="M423 365q-51 0 -92.5 -23t-65 -55.5t-40 -70.5t-22 -65.5t-5.5 -43.5q0 -83 97 -83q28 0 91 20t63 41q0 4 -15 29t-15 45q0 29 20.5 49.5t49.5 20.5t49.5 -20.5t20.5 -49.5q0 -51 -65.5 -94t-140 -63t-124.5 -20q-36 0 -68.5 6.5t-63 21t-49 42.5t-18.5 66q0 93 78 165.5
t175 95.5l-87 261l18 29h468l-51 -178l-30 -4q-8 80 -44.5 113.5t-119.5 33.5h-78l85 -236z" />
    <glyph glyph-name="uni01B9" unicode="&#x1b9;" horiz-adv-x="481" 
d="M517 449l-25 -154l-26 -2q1 5 1 15q0 45 -40 45h-189l143 -173l-13 -22q-6 1 -20.5 5.5t-26 6.5t-21.5 2q-92 0 -143.5 -66.5t-51.5 -161.5q0 -63 34 -96.5t97 -33.5q32 0 101 39q-25 15 -25 44q0 21 14.5 35.5t35.5 14.5t35.5 -14.5t14.5 -35.5q0 -43 -75 -78.5
t-125 -35.5q-97 0 -154.5 54t-57.5 150q0 101 64.5 187.5t162.5 86.5q20 0 45 -5l-146 176l7 17h384z" />
    <glyph glyph-name="uni01BA" unicode="&#x1ba;" horiz-adv-x="428" 
d="M466 432l-230 -183l1 -2q30 15 51 15q39 0 63.5 -26t24.5 -65q0 -44 -33 -81t-79.5 -62.5t-93 -48.5t-79.5 -50.5t-33 -57.5q0 -23 37 -40t63 -17q7 0 13 4.5t6 10.5q0 5 -10 19t-10 30q0 20 15 35t34 15q22 0 38 -16t16 -38q0 -40 -33 -64.5t-74 -24.5q-27 0 -55.5 4.5
t-59.5 14.5t-50.5 31.5t-19.5 50.5q0 36 18.5 67.5t54 56t65.5 41t75 37t62 29.5q31 15 31 48q0 16 -11 25.5t-27 9.5q-43 0 -128 -44l-13 24l220 173h-148q-41 0 -55.5 -10.5t-31.5 -50.5h-29l46 157h369v-17z" />
    <glyph glyph-name="uni01BB" unicode="&#x1bb;" horiz-adv-x="500" 
d="M507 373l-15 -44h-109q-27 -27 -61.5 -58t-59.5 -52t-67 -56t-62 -52h149q57 0 84.5 15.5t54.5 64.5h25l-79 -191h-367v24q14 14 56.5 56t63 63t53.5 56t59 66.5t49 63.5h-88l16 44h100q30 58 30 106q0 50 -22.5 82t-70.5 32q-76 0 -133 -86l-22 12q35 73 90 118.5
t129 45.5q69 0 116 -49.5t47 -118.5q0 -71 -54 -142h88z" />
    <glyph glyph-name="uni01BC" unicode="&#x1bc;" horiz-adv-x="604" 
d="M637 669l-43 -190l-27 5q5 22 5 39q0 114 -178 114q-27 0 -38.5 -9t-19.5 -35l-55 -194q42 0 76.5 -3t75 -14t68 -29t46 -51t18.5 -78q0 -77 -49.5 -134t-118.5 -82.5t-143 -25.5q-50 0 -103 17.5t-94.5 57.5t-41.5 92q0 33 21.5 56.5t54.5 23.5q26 0 45 -18.5t19 -44.5
t-20 -50.5t-20 -33.5q0 -30 32 -44t66 -14q91 0 140 71.5t49 167.5q0 56 -27.5 79t-84.5 23h-164q2 9 20.5 67.5t29 101t10.5 68.5q0 10 -3.5 17t-8 11t-13.5 7t-14.5 3.5t-17.5 1.5t-16 2v25h524z" />
    <glyph glyph-name="uni01BD" unicode="&#x1bd;" horiz-adv-x="448" 
d="M442 449l-36 -109h-254l-34 -76q56 -12 95.5 -26t77 -39.5t57 -67t19.5 -98.5q0 -118 -87 -192t-207 -74q-44 0 -86.5 18.5t-42.5 57.5q0 27 16 43.5t43 16.5q25 0 42.5 -15t25.5 -33t22.5 -33t33.5 -15q57 0 96 50.5t39 109.5q0 90 -69.5 137.5t-164.5 47.5l131 297h283
z" />
    <glyph glyph-name="uni01BE" unicode="&#x1be;" horiz-adv-x="406" 
d="M359 121q0 -61 -43.5 -97.5t-106.5 -36.5q-17 0 -47 10t-45 10q-8 0 -17 -6t-12 -14h-27l22 166l27 -3q6 -51 29 -92t67 -41q24 0 40.5 15.5t16.5 39.5q0 26 -21.5 58t-46.5 59t-46.5 67.5t-21.5 80.5q0 30 14 70h-51v35q113 43 183 152h35l-39 -145h72v-42h-83
q-8 -36 -8 -54q0 -26 17 -56t37.5 -52.5t37.5 -56t17 -67.5z" />
    <glyph glyph-name="wynn" unicode="&#x1bf;" horiz-adv-x="483" 
d="M137 -23q-29 -104 -29 -121q0 -34 61 -34h4v-27h-249v27h4q33 0 45 12.5t23 49.5q22 76 73.5 273.5t51.5 222.5q0 27 -46 27h-8v27q140 17 193 28l-34 -103l3 -3q71 106 157 106q47 0 76.5 -25.5t29.5 -72.5q0 -56 -23 -108t-57 -90.5t-85.5 -76.5t-93.5 -62t-96 -50z
M369 341q0 50 -44 50q-22 0 -42.5 -15.5t-37 -45t-29.5 -60t-24.5 -72.5t-18.5 -69t-15 -64.5t-10 -44.5q93 60 157 143t64 178z" />
    <glyph glyph-name="uni01C0" unicode="&#x1c0;" horiz-adv-x="260" 
d="M42.1748 -18l149.404 703h88l-149.404 -703h-88z" />
    <glyph glyph-name="uni01c1" unicode="&#x1c1;" horiz-adv-x="418" 
d="M42.1748 -18l149.404 703h88l-149.404 -703h-88zM240.175 -18l149.404 703h88l-149.404 -703h-88z" />
    <glyph glyph-name="uni01c2" unicode="&#x1c2;" horiz-adv-x="570" 
d="M560 107h-209l-45 -209h-88l45 209h-207l18 88h207l25 116h-207l19 88h207l44 209h88l-44 -209h209l-19 -88h-209l-25 -116h209z" />
    <glyph glyph-name="uni01c3" unicode="&#x1c3;" horiz-adv-x="333" 
d="M167 212q15 76 26 150t16 117.5t10.5 84t10 60t13.5 35.5t22.5 20.5t35.5 4.5q31 0 50 -20t19 -53q0 -30 -16 -62t-62 -124.5t-96 -220.5zM140 133q28 0 50.5 -23t22.5 -52t-21.5 -50t-52.5 -21t-51.5 20t-20.5 51q0 32 21 53.5t52 21.5z" />
    <glyph glyph-name="uni01C4" unicode="&#x1c4;" horiz-adv-x="1296" 
d="M971 35q116 0 181 38t120 126l27 -5l-59 -194h-506v29l434 605h-78q-82 0 -137.5 -32t-114.5 -115l-28 4l57 178h468v-29l-434 -605h70zM1305 897l-162 -174h-82l-88 174h50l91 -97l135 97h56zM213 602q0 23 -14 29.5t-59 12.5v25h290q142 0 221.5 -72.5t79.5 -200.5
q0 -170 -127 -283t-318 -113h-286v25q37 5 53.5 19.5t26.5 52.5l121 446q12 48 12 59zM364 600l-129 -478q-12 -46 -12 -54q0 -34 54 -34q140 0 219 113q41 58 64.5 141.5t23.5 168.5q0 181 -165 181q-45 0 -55 -38z" />
    <glyph glyph-name="uni01C5" unicode="&#x1c5;" horiz-adv-x="1123" 
d="M811 5q-14 0 -52 -28l-25 22l292 354h-145q-23 0 -36.5 -13.5t-26.5 -47.5l-28 3l43 154h312v-10l-281 -335q41 -18 67.5 -46t35 -50.5t21 -39.5t30.5 -17q9 0 15.5 4.5t6.5 11.5q0 4 -10 19t-10 27q0 21 15 36.5t35 15.5q21 0 37 -15.5t16 -36.5q0 -38 -31 -64.5
t-77 -26.5q-38 0 -79 21t-74 41.5t-51 20.5zM1188 690l-162 -174h-82l-88 174h50l91 -97l135 97h56zM213 602q0 23 -14 29.5t-59 12.5v25h290q142 0 221.5 -72.5t79.5 -200.5q0 -170 -127 -283t-318 -113h-286v25q37 5 53.5 19.5t26.5 52.5l121 446q12 48 12 59zM364 600
l-129 -478q-12 -46 -12 -54q0 -34 54 -34q140 0 219 113q41 58 64.5 141.5t23.5 168.5q0 181 -165 181q-45 0 -55 -38z" />
    <glyph glyph-name="uni01C6" unicode="&#x1c6;" horiz-adv-x="889" 
d="M577 5q-14 0 -52 -28l-25 22l292 354h-145q-23 0 -36.5 -13.5t-26.5 -47.5l-28 3l43 154h312v-10l-281 -335q41 -18 67.5 -46t35 -50.5t21 -39.5t30.5 -17q9 0 15.5 4.5t6.5 11.5q0 4 -10 19t-10 27q0 21 15 36.5t35 15.5q21 0 37 -15.5t16 -36.5q0 -38 -31 -64.5
t-77 -26.5q-38 0 -79 21t-74 41.5t-51 20.5zM954 690l-162 -174h-82l-88 174h50l91 -97l135 97h56zM468 131l22 -16q-41 -66 -76.5 -96t-72.5 -30q-28 0 -44 16.5t-16 45.5q0 16 11 67q-43 -71 -81 -101t-85 -30q-46 0 -76 35.5t-30 89.5q0 76 42 158.5t106.5 137
t123.5 54.5q39 0 72 -33l19 68q28 100 28 118q0 28 -41 28h-21v27q129 10 209 29l-111 -405q-57 -207 -57 -223q0 -4 3.5 -8t7.5 -4q24 0 67 72zM349 370q0 22 -11 36t-29 14q-39 0 -79.5 -62t-63 -132.5t-22.5 -108.5q0 -25 11.5 -41.5t29.5 -16.5q40 0 80 68.5t62 140.5
t22 102z" />
    <glyph glyph-name="uni01C7" unicode="&#x1c7;" horiz-adv-x="1109" 
d="M955 607q0 16 -14.5 23.5t-58.5 13.5v25h297v-25q-38 -5 -54.5 -19t-26.5 -53l-128 -479q-26 -98 -77 -145t-132 -47q-66 0 -109 28.5t-43 72.5q0 29 18.5 49.5t45.5 20.5q26 0 44.5 -18.5t18.5 -44.5q0 -17 -11.5 -31t-11.5 -23q0 -18 27 -18t44 33t46 144l114 432
q11 41 11 61zM213 607q0 19 -13 24.5t-60 12.5v25h317v-25q-50 -3 -70 -17t-31 -55l-129 -478q-5 -18 -5 -32q0 -30 64 -30q125 0 207 58q29 21 49.5 44t45.5 65l24 -5l-59 -194h-553v25q37 5 53.5 19.5t26.5 52.5l123 449q10 36 10 61z" />
    <glyph glyph-name="uni01C8" unicode="&#x1c8;" horiz-adv-x="887" 
d="M577 -126q0 -13 -7.5 -24t-7.5 -14q0 -4 8 -8t16 -4q21 0 36.5 28t34.5 103l92 355q12 50 12 66q0 19 -12 25t-50 6v27q136 12 208 28l-114 -438q-60 -231 -209 -231q-47 0 -76 21.5t-29 55.5q0 22 14.5 37.5t34.5 15.5t34.5 -14.5t14.5 -34.5zM878 685q28 0 48.5 -20
t20.5 -48t-20 -47.5t-49 -19.5q-28 0 -47 20t-19 49q0 26 20 46t46 20zM213 607q0 19 -13 24.5t-60 12.5v25h317v-25q-50 -3 -70 -17t-31 -55l-129 -478q-5 -18 -5 -32q0 -30 64 -30q125 0 207 58q29 21 49.5 44t45.5 65l24 -5l-59 -194h-553v25q37 5 53.5 19.5t26.5 52.5
l123 449q10 36 10 61z" />
    <glyph glyph-name="uni01C9" unicode="&#x1c9;" horiz-adv-x="556" 
d="M246 -126q0 -13 -7.5 -24t-7.5 -14q0 -4 8 -8t16 -4q21 0 36.5 28t34.5 103l92 355q12 50 12 66q0 19 -12 25t-50 6v27q136 12 208 28l-114 -438q-60 -231 -209 -231q-47 0 -76 21.5t-29 55.5q0 22 14.5 37.5t34.5 15.5t34.5 -14.5t14.5 -34.5zM547 685q28 0 48.5 -20
t20.5 -48t-20 -47.5t-49 -19.5q-28 0 -47 20t-19 49q0 26 20 46t46 20zM256 141l22 -14q-52 -79 -87.5 -107.5t-81.5 -28.5q-30 0 -48.5 16.5t-18.5 43.5q0 35 34 158l74 264q34 114 34 142q0 29 -34 29q-11 0 -29 -2v27q108 10 209 30l-145 -523q-22 -82 -22 -100
q0 -6 4.5 -10.5t10.5 -4.5q24 0 78 80z" />
    <glyph glyph-name="uni01CA" unicode="&#x1ca;" horiz-adv-x="1132" 
d="M978 607q0 16 -14.5 23.5t-58.5 13.5v25h297v-25q-38 -5 -54.5 -19t-26.5 -53l-128 -479q-26 -98 -77 -145t-132 -47q-66 0 -109 28.5t-43 72.5q0 29 18.5 49.5t45.5 20.5q26 0 44.5 -18.5t18.5 -44.5q0 -17 -11.5 -31t-11.5 -23q0 -18 27 -18t44 33t46 144l114 432
q11 41 11 61zM333 669l215 -465l80 287q18 65 18 94t-18 42t-62 17v25h209v-25q-44 -10 -59.5 -32.5t-42.5 -120.5l-143 -506h-28l-257 549l-99 -356q-18 -67 -18 -94q0 -29 18 -42t62 -17v-25h-208v25q41 8 57 31.5t44 121.5l120 411q-14 33 -28 42t-55 13v25h195z" />
    <glyph glyph-name="uni01CB" unicode="&#x1cb;" horiz-adv-x="945" 
d="M635 -126q0 -13 -7.5 -24t-7.5 -14q0 -4 8 -8t16 -4q21 0 36.5 28t34.5 103l92 355q12 50 12 66q0 19 -12 25t-50 6v27q136 12 208 28l-114 -438q-60 -231 -209 -231q-47 0 -76 21.5t-29 55.5q0 22 14.5 37.5t34.5 15.5t34.5 -14.5t14.5 -34.5zM936 685q28 0 48.5 -20
t20.5 -48t-20 -47.5t-49 -19.5q-28 0 -47 20t-19 49q0 26 20 46t46 20zM333 669l215 -465l80 287q18 65 18 94t-18 42t-62 17v25h209v-25q-44 -10 -59.5 -32.5t-42.5 -120.5l-143 -506h-28l-257 549l-99 -356q-18 -67 -18 -94q0 -29 18 -42t62 -17v-25h-208v25q41 8 57 31.5
t44 121.5l120 411q-14 33 -28 42t-55 13v25h195z" />
    <glyph glyph-name="uni01CC" unicode="&#x1cc;" horiz-adv-x="789" 
d="M479 -126q0 -13 -7.5 -24t-7.5 -14q0 -4 8 -8t16 -4q21 0 36.5 28t34.5 103l92 355q12 50 12 66q0 19 -12 25t-50 6v27q136 12 208 28l-114 -438q-60 -231 -209 -231q-47 0 -76 21.5t-29 55.5q0 22 14.5 37.5t34.5 15.5t34.5 -14.5t14.5 -34.5zM780 685q28 0 48.5 -20
t20.5 -48t-20 -47.5t-49 -19.5q-28 0 -47 20t-19 49q0 26 20 46t46 20zM194 263q78 115 121 157t102 42q35 0 54 -19.5t19 -55.5q0 -35 -26 -115l-36 -109q-25 -75 -25 -87q0 -17 14 -17q13 0 26.5 15t43.5 61l22 -13q-43 -73 -79 -102t-80 -29q-31 0 -49.5 16t-18.5 44
q0 47 28 131l55 166q5 17 5 21q0 8 -8 14.5t-17 6.5q-14 0 -34 -14.5t-35 -34.5q-46 -60 -77.5 -135t-67.5 -206h-121l56 204q46 162 46 178q0 14 -11 19t-43 6v27q92 3 200 27z" />
    <glyph glyph-name="uni01CD" unicode="&#x1cd;" horiz-adv-x="696" 
d="M672 900l-162 -174h-82l-88 174h50l91 -97l135 97h56zM435 84q0 2 -15 124h-215l-59 -102q-15 -26 -15 -46q0 -35 65 -35v-25h-196v25q27 6 43.5 19.5t39.5 50.5l372 588h25l96 -572q10 -57 22 -69.5t62 -16.5v-25h-304v25q48 5 63.5 16.5t15.5 42.5zM228 248h185
l-37 243z" />
    <glyph glyph-name="uni01CE" unicode="&#x1ce;" horiz-adv-x="509" 
d="M507 676l-162 -174h-82l-88 174h50l91 -97l135 97h56zM338 373q0 21 -11.5 34t-27.5 13q-30 0 -69 -55.5t-66 -129t-27 -123.5q0 -23 13 -38.5t32 -15.5q40 0 78.5 66t58 138t19.5 111zM469 127l21 -15q-83 -126 -151 -126q-28 0 -47.5 19t-19.5 47q0 17 14 67
q-43 -71 -80.5 -101.5t-83.5 -30.5q-49 0 -78.5 35t-29.5 92q0 76 42 158t106.5 136t124.5 54q32 0 49.5 -17t24.5 -55l18 59l111 7l-71 -236q-34 -115 -34 -148q0 -15 12 -15t26.5 14t45.5 56z" />
    <glyph glyph-name="uni01CF" unicode="&#x1cf;" horiz-adv-x="374" 
d="M510 883l-162 -174h-82l-88 174h50l91 -97l135 97h56zM213 607q0 19 -13 24.5t-60 12.5v25h298v-25q-39 -5 -55.5 -19t-26.5 -53l-114 -420q-18 -68 -18 -87q0 -21 15 -29.5t57 -10.5v-25h-296v25q37 5 53.5 19t26.5 53l123 449q10 36 10 61z" />
    <glyph glyph-name="icaron" unicode="&#x1d0;" horiz-adv-x="292" 
d="M404 676l-162 -174h-82l-88 174h50l91 -97l135 97h56zM254 141l22 -14q-53 -79 -87.5 -107.5t-79.5 -28.5q-31 0 -50 17.5t-19 45.5q0 24 13 69l58 215q7 30 7 40q0 16 -13.5 22.5t-45.5 6.5v27q116 9 202 28l-91 -334q-9 -36 -9 -52q0 -6 4.5 -10.5t10.5 -4.5
q24 0 64 60z" />
    <glyph glyph-name="uni01D1" unicode="&#x1d1;" horiz-adv-x="676" 
d="M665 883l-162 -174h-82l-88 174h50l91 -97l135 97h56zM36 221q0 72 32 153t86.5 150.5t135 115t168.5 45.5q104 0 173 -65.5t69 -165.5q0 -77 -31.5 -160t-85.5 -152.5t-136.5 -114.5t-174.5 -45q-106 0 -171 66t-65 173zM454 651q-94 0 -168 -131q-41 -72 -73.5 -189
t-32.5 -194q0 -56 27.5 -88.5t74.5 -32.5q78 0 145 97q50 74 89.5 201t39.5 217q0 54 -28 87t-74 33z" />
    <glyph glyph-name="uni01D2" unicode="&#x1d2;" horiz-adv-x="474" 
d="M509 676l-162 -174h-82l-88 174h50l91 -97l135 97h56zM312 462q68 0 112.5 -42.5t44.5 -108.5q0 -127 -86.5 -225.5t-198.5 -98.5q-69 0 -114 42t-45 106q0 126 88.5 226.5t198.5 100.5zM193 16q37 0 69 46t50 109.5t28 119t10 84.5q0 27 -12.5 42.5t-34.5 15.5
q-44 0 -82 -64.5t-57.5 -145t-19.5 -145.5q0 -28 13 -45t36 -17z" />
    <glyph glyph-name="uni01D3" unicode="&#x1d3;" horiz-adv-x="714" 
d="M679 883l-162 -174h-82l-88 174h50l91 -97l135 97h56zM784 669v-25q-42 -8 -58 -31.5t-44 -121.5l-66 -228q-1 -3 -8 -30t-11 -38.5t-14 -39.5t-20.5 -43t-26.5 -38.5t-35.5 -37t-44.5 -27.5t-57 -20.5t-69 -6.5q-98 0 -160.5 46.5t-62.5 119.5q0 55 33 175l56 206
q15 55 15 76q0 16 -9 23.5t-33 11.5q-3 0 -31 4v25h311v-25q-47 -2 -64.5 -15.5t-29.5 -56.5l-82 -300q-28 -102 -28 -133q0 -47 32.5 -74t89.5 -27q82 0 133 60q42 52 79 184l58 209q19 71 19 97t-18.5 39t-61.5 17v25h208z" />
    <glyph glyph-name="uni01D4" unicode="&#x1d4;" horiz-adv-x="530" 
d="M538 676l-162 -174h-82l-88 174h50l91 -97l135 97h56zM491 133l21 -13q-75 -129 -161 -129q-65 0 -65 60q0 37 24 110q-77 -108 -113.5 -139t-86.5 -31q-75 0 -75 74q0 36 21 108l40 133q14 45 14 73q0 15 -11 20.5t-45 7.5v27q60 2 209 28l-94 -308q-15 -50 -15 -66
q0 -25 21 -25q28 0 73 55q43 54 71.5 120.5t70.5 210.5h118l-78 -268q-25 -86 -25 -101v-1.5v-2.5q0 -17 14 -17q23 0 72 74z" />
    <glyph glyph-name="uni01D5" unicode="&#x1d5;" horiz-adv-x="722" 
d="M354 745q27 0 46.5 -19.5t19.5 -46.5q0 -25 -20 -44.5t-46 -19.5t-45 19.5t-19 44.5q0 27 19 46.5t45 19.5zM566 745q27 0 46.5 -19.5t19.5 -46.5q0 -25 -20 -44.5t-46 -19.5t-45 19.5t-19 44.5q0 27 19 46.5t45 19.5zM744 569v-22q-42 -7 -58 -27t-44 -103l-66 -193
q-1 -3 -8 -25.5t-11 -32.5t-14 -33.5t-20.5 -36.5t-26.5 -33t-35.5 -31.5t-44.5 -23.5t-57 -17.5t-69 -5.5q-99 0 -161 39t-62 102q0 47 33 149l56 175q15 47 15 64q0 14 -9 20.5t-33 9.5q-2 0 -6.5 0.5t-11.5 1.5t-13 1v22h311v-22q-47 -2 -64.5 -13t-29.5 -48l-82 -255
q-28 -86 -28 -113q0 -40 32.5 -63t89.5 -23q82 0 133 51q43 46 79 157l58 177q19 60 19 83q0 22 -18.5 33t-61.5 14v22h208zM667 871l-16 -70h-326l17 70h325z" />
    <glyph glyph-name="uni01D6" unicode="&#x1d6;" horiz-adv-x="530" 
d="M540 763l-16 -70h-326l17 70h325zM491 133l21 -13q-75 -129 -161 -129q-65 0 -65 60q0 37 24 110q-77 -108 -113.5 -139t-86.5 -31q-75 0 -75 74q0 36 21 108l40 133q14 45 14 73q0 15 -11 20.5t-45 7.5v27q60 2 209 28l-94 -308q-15 -50 -15 -66q0 -25 21 -25
q28 0 73 55q43 54 71.5 120.5t70.5 210.5h118l-78 -268q-25 -86 -25 -101v-1.5v-2.5q0 -17 14 -17q23 0 72 74zM230 633q27 0 46.5 -19.5t19.5 -46.5q0 -25 -20 -44.5t-46 -19.5q-25 0 -44.5 19.5t-19.5 44.5q0 27 19 46.5t45 19.5zM442 633q27 0 46.5 -19.5t19.5 -46.5
q0 -25 -20 -44.5t-46 -19.5q-25 0 -44.5 19.5t-19.5 44.5q0 27 19 46.5t45 19.5z" />
    <glyph glyph-name="uni01D7" unicode="&#x1d7;" horiz-adv-x="722" 
d="M354 719q27 0 46.5 -19.5t19.5 -46.5q0 -25 -20 -44.5t-46 -19.5t-45 19.5t-19 44.5q0 27 19 46.5t45 19.5zM566 719q27 0 46.5 -19.5t19.5 -46.5q0 -25 -20 -44.5t-46 -19.5t-45 19.5t-19 44.5q0 27 19 46.5t45 19.5zM744 569v-22q-42 -7 -58 -27t-44 -103l-66 -193
q-1 -3 -8 -25.5t-11 -32.5t-14 -33.5t-20.5 -36.5t-26.5 -33t-35.5 -31.5t-44.5 -23.5t-57 -17.5t-69 -5.5q-99 0 -161 39t-62 102q0 47 33 149l56 175q15 47 15 64q0 14 -9 20.5t-33 9.5q-2 0 -6.5 0.5t-11.5 1.5t-13 1v22h311v-22q-47 -2 -64.5 -13t-29.5 -48l-82 -255
q-28 -86 -28 -113q0 -40 32.5 -63t89.5 -23q82 0 133 51q43 46 79 157l58 177q19 60 19 83q0 22 -18.5 33t-61.5 14v22h208zM473 719h-49l122 131q46 50 70 50q19 0 33.5 -14t14.5 -33q0 -14 -8.5 -24t-30.5 -23z" />
    <glyph glyph-name="uni01D8" unicode="&#x1d8;" horiz-adv-x="530" 
d="M329 668h-49l122 131q46 50 70 50q19 0 33.5 -14t14.5 -33q0 -14 -8.5 -24t-30.5 -23zM491 133l21 -13q-75 -129 -161 -129q-65 0 -65 60q0 37 24 110q-77 -108 -113.5 -139t-86.5 -31q-75 0 -75 74q0 36 21 108l40 133q14 45 14 73q0 15 -11 20.5t-45 7.5v27
q60 2 209 28l-94 -308q-15 -50 -15 -66q0 -25 21 -25q28 0 73 55q43 54 71.5 120.5t70.5 210.5h118l-78 -268q-25 -86 -25 -101v-1.5v-2.5q0 -17 14 -17q23 0 72 74zM230 633q27 0 46.5 -19.5t19.5 -46.5q0 -25 -20 -44.5t-46 -19.5q-25 0 -44.5 19.5t-19.5 44.5
q0 27 19 46.5t45 19.5zM442 633q27 0 46.5 -19.5t19.5 -46.5q0 -25 -20 -44.5t-46 -19.5q-25 0 -44.5 19.5t-19.5 44.5q0 27 19 46.5t45 19.5z" />
    <glyph glyph-name="uni01D9" unicode="&#x1d9;" horiz-adv-x="722" 
d="M354 730q27 0 46.5 -19.5t19.5 -46.5q0 -25 -20 -44.5t-46 -19.5t-45 19t-19 45q0 27 19 46.5t45 19.5zM566 730q27 0 46.5 -19.5t19.5 -46.5q0 -25 -20 -44.5t-46 -19.5t-45 19t-19 45q0 27 19 46.5t45 19.5zM744 569v-22q-42 -7 -58 -27t-44 -103l-66 -193
q-1 -3 -8 -25.5t-11 -32.5t-14 -33.5t-20.5 -36.5t-26.5 -33t-35.5 -31.5t-44.5 -23.5t-57 -17.5t-69 -5.5q-99 0 -161 39t-62 102q0 47 33 149l56 175q15 47 15 64q0 14 -9 20.5t-33 9.5q-2 0 -6.5 0.5t-11.5 1.5t-13 1v22h311v-22q-47 -2 -64.5 -13t-29.5 -48l-82 -255
q-28 -86 -28 -113q0 -40 32.5 -63t89.5 -23q82 0 133 51q43 46 79 157l58 177q19 60 19 83q0 22 -18.5 33t-61.5 14v22h208zM666 900l-162 -174h-82l-88 174h50l91 -97l135 97h56z" />
    <glyph glyph-name="uni01DA" unicode="&#x1da;" horiz-adv-x="530" 
d="M557 843l-162 -174h-82l-88 174h50l91 -97l135 97h56zM491 133l21 -13q-75 -129 -161 -129q-65 0 -65 60q0 37 24 110q-77 -108 -113.5 -139t-86.5 -31q-75 0 -75 74q0 36 21 108l40 133q14 45 14 73q0 15 -11 20.5t-45 7.5v27q60 2 209 28l-94 -308q-15 -50 -15 -66
q0 -25 21 -25q28 0 73 55q43 54 71.5 120.5t70.5 210.5h118l-78 -268q-25 -86 -25 -101v-1.5v-2.5q0 -17 14 -17q23 0 72 74zM230 633q27 0 46.5 -19.5t19.5 -46.5q0 -25 -20 -44.5t-46 -19.5q-25 0 -44.5 19.5t-19.5 44.5q0 27 19 46.5t45 19.5zM442 633q27 0 46.5 -19.5
t19.5 -46.5q0 -25 -20 -44.5t-46 -19.5q-25 0 -44.5 19.5t-19.5 44.5q0 27 19 46.5t45 19.5z" />
    <glyph glyph-name="uni01DB" unicode="&#x1db;" horiz-adv-x="722" 
d="M354 726q27 0 46.5 -19.5t19.5 -46.5q0 -25 -20 -44.5t-46 -19.5t-45 19t-19 45q0 27 19 46.5t45 19.5zM566 726q27 0 46.5 -19.5t19.5 -46.5q0 -25 -20 -44.5t-46 -19.5t-45 19t-19 45q0 27 19 46.5t45 19.5zM744 569v-22q-42 -7 -58 -27t-44 -103l-66 -193
q-1 -3 -8 -25.5t-11 -32.5t-14 -33.5t-20.5 -36.5t-26.5 -33t-35.5 -31.5t-44.5 -23.5t-57 -17.5t-69 -5.5q-99 0 -161 39t-62 102q0 47 33 149l56 175q15 47 15 64q0 14 -9 20.5t-33 9.5q-2 0 -6.5 0.5t-11.5 1.5t-13 1v22h311v-22q-47 -2 -64.5 -13t-29.5 -48l-82 -255
q-28 -86 -28 -113q0 -40 32.5 -63t89.5 -23q82 0 133 51q43 46 79 157l58 177q19 60 19 83q0 22 -18.5 33t-61.5 14v22h208zM497 719h-45l-133 89q-34 23 -34 47q0 18 13.5 31.5t31.5 13.5q30 0 56 -34z" />
    <glyph glyph-name="uni01DC" unicode="&#x1dc;" horiz-adv-x="530" 
d="M413 671h-45l-133 89q-34 23 -34 47q0 18 13.5 31.5t31.5 13.5q30 0 56 -34zM491 133l21 -13q-75 -129 -161 -129q-65 0 -65 60q0 37 24 110q-77 -108 -113.5 -139t-86.5 -31q-75 0 -75 74q0 36 21 108l40 133q14 45 14 73q0 15 -11 20.5t-45 7.5v27q60 2 209 28
l-94 -308q-15 -50 -15 -66q0 -25 21 -25q28 0 73 55q43 54 71.5 120.5t70.5 210.5h118l-78 -268q-25 -86 -25 -101v-1.5v-2.5q0 -17 14 -17q23 0 72 74zM230 633q27 0 46.5 -19.5t19.5 -46.5q0 -25 -20 -44.5t-46 -19.5q-25 0 -44.5 19.5t-19.5 44.5q0 27 19 46.5t45 19.5z
M442 633q27 0 46.5 -19.5t19.5 -46.5q0 -25 -20 -44.5t-46 -19.5q-25 0 -44.5 19.5t-19.5 44.5q0 27 19 46.5t45 19.5z" />
    <glyph glyph-name="uni01DD" unicode="&#x1dd;" horiz-adv-x="417" 
d="M97 307l-29 17q45 74 89 106t101 32q65 0 108 -42t43 -105q0 -124 -90 -226t-198 -102q-46 0 -75.5 24.5t-29.5 62.5q0 21 9 43.5t33.5 52t79.5 56t135 41.5q6 30 6 49q0 82 -65 82q-31 0 -56.5 -19.5t-60.5 -71.5zM266 235q-72 -26 -115 -66.5t-43 -114.5q0 -34 28 -34
q74 0 130 215z" />
    <glyph glyph-name="uni01DE" unicode="&#x1de;" horiz-adv-x="696" 
d="M435 84q0 2 -15 124h-215l-59 -102q-15 -26 -15 -46q0 -35 65 -35v-25h-196v25q27 6 43.5 19.5t39.5 50.5l372 588h25l96 -572q10 -57 22 -69.5t62 -16.5v-25h-304v25q48 5 63.5 16.5t15.5 42.5zM228 248h185l-37 243zM365 815q27 0 46.5 -19.5t19.5 -46.5
q0 -25 -20 -44.5t-46 -19.5q-25 0 -44.5 19.5t-19.5 44.5q0 27 19 46.5t45 19.5zM577 815q27 0 46.5 -19.5t19.5 -46.5q0 -25 -20 -44.5t-46 -19.5q-25 0 -44.5 19.5t-19.5 44.5q0 27 19 46.5t45 19.5zM672 900l-16 -70h-326l17 70h325z" />
    <glyph glyph-name="uni01DF" unicode="&#x1df;" horiz-adv-x="509" 
d="M519 763l-16 -70h-326l17 70h325zM338 373q0 21 -11.5 34t-27.5 13q-30 0 -69 -55.5t-66 -129t-27 -123.5q0 -23 13 -38.5t32 -15.5q40 0 78.5 66t58 138t19.5 111zM469 127l21 -15q-83 -126 -151 -126q-28 0 -47.5 19t-19.5 47q0 17 14 67q-43 -71 -80.5 -101.5
t-83.5 -30.5q-49 0 -78.5 35t-29.5 92q0 76 42 158t106.5 136t124.5 54q32 0 49.5 -17t24.5 -55l18 59l111 7l-71 -236q-34 -115 -34 -148q0 -15 12 -15t26.5 14t45.5 56zM203 634q27 0 46.5 -19.5t19.5 -46.5q0 -25 -20 -44.5t-46 -19.5q-25 0 -44.5 19.5t-19.5 44.5
q0 27 19 46.5t45 19.5zM415 634q27 0 46.5 -19.5t19.5 -46.5q0 -25 -20 -44.5t-46 -19.5q-25 0 -44.5 19.5t-19.5 44.5q0 27 19 46.5t45 19.5z" />
    <glyph glyph-name="uni01E0" unicode="&#x1e0;" horiz-adv-x="667" 
d="M368 71q0 1 -15 106h-215l-59 -87q-15 -21 -15 -39q0 -30 65 -30v-21h-196v21q27 5 43.5 17t39.5 43l372 500h25l96 -487q10 -48 22 -58.5t62 -14.5v-21h-304v21q48 4 63.5 14t15.5 36zM161 211h185l-37 206zM435 773q24 0 39 -15t15 -38q0 -32 -26.5 -54.5t-54.5 -22.5
q-22 0 -37 15t-15 37q0 29 24 53.5t55 24.5zM626 900l-16 -70h-326l17 70h325z" />
    <glyph glyph-name="uni01E1" unicode="&#x1e1;" horiz-adv-x="509" 
d="M531 742l-16 -70h-326l17 70h325zM321 632q27 0 46.5 -19.5t19.5 -46.5q0 -25 -20 -44.5t-46 -19.5q-25 0 -44.5 19.5t-19.5 44.5q0 27 19 46.5t45 19.5zM338 373q0 21 -11.5 34t-27.5 13q-30 0 -69 -55.5t-66 -129t-27 -123.5q0 -23 13 -38.5t32 -15.5q40 0 78.5 66
t58 138t19.5 111zM469 127l21 -15q-83 -126 -151 -126q-28 0 -47.5 19t-19.5 47q0 17 14 67q-43 -71 -80.5 -101.5t-83.5 -30.5q-49 0 -78.5 35t-29.5 92q0 76 42 158t106.5 136t124.5 54q32 0 49.5 -17t24.5 -55l18 59l111 7l-71 -236q-34 -115 -34 -148q0 -15 12 -15
t26.5 14t45.5 56z" />
    </font>
</defs>
</svg>
