<?xml version="1.0" standalone="no"?>
<!DOCTYPE svg PUBLIC "-//W3C//DTD SVG 1.1//EN" "http://www.w3.org/Graphics/SVG/1.1/DTD/svg11.dtd" >
<svg xmlns="http://www.w3.org/2000/svg" xmlns:xlink="http://www.w3.org/1999/xlink" version="1.1">
<metadata>
Created by FontForge 20170924 at Sat Mar  3 06:04:06 2018
 By Glenn,,,
Copyright \(c\) 2018 by Janko Jovanovic.
</metadata>
<defs>
<font id="Simpel-Medium" horiz-adv-x="600" >
  <font-face 
    font-family="Simpel Medium"
    font-weight="500"
    font-stretch="normal"
    units-per-em="1000"
    panose-1="0 0 6 0 0 0 0 0 0 0"
    ascent="800"
    descent="-200"
    x-height="500"
    cap-height="700"
    bbox="-50 -240 1066 985"
    underline-thickness="50"
    underline-position="-100"
    unicode-range="U+0020-2212"
  />
<missing-glyph horiz-adv-x="104" 
 />
    <glyph glyph-name="f_f" unicode="ff" horiz-adv-x="732" 
d="M569 500h116v-92h-116v-408h-99v408h-242v-408h-99v408h-89v92h89v111c0 101 81 183 181 183c27 0 54 -6 80 -17l-42 -86c-11 8 -24 11 -38 11c-45 0 -82 -38 -82 -90v-112h242v111c0 101 81 183 181 183c27 0 54 -6 80 -17l-42 -86c-11 8 -24 11 -38 11
c-45 0 -82 -38 -82 -90v-112z" />
    <glyph glyph-name="f_f_i" unicode="ffi" horiz-adv-x="1011" 
d="M920 500v-500h-99v408h-242v-408h-99v408h-242v-408h-99v408h-89v92h89v98c0 101 81 183 181 183c27 0 54 -6 80 -17l-42 -86c-11 8 -24 11 -38 11c-45 0 -82 -38 -82 -90v-99h242v111c0 101 81 183 181 183c27 0 54 -6 80 -17l-42 -86c-11 8 -24 11 -38 11
c-45 0 -82 -38 -82 -90v-112h341zM869 635c-38 0 -68 29 -68 65c0 35 30 64 68 64c37 0 68 -29 68 -64c0 -36 -31 -65 -68 -65z" />
    <glyph glyph-name="f_i" unicode="fi" horiz-adv-x="649" 
d="M582 500v-500h-99v408h-242v-408h-99v408h-89v92h89v111c0 101 81 183 181 183c27 0 54 -6 80 -17l-42 -86c-11 8 -24 11 -38 11c-45 0 -82 -38 -82 -90v-112h341zM531 635c-38 0 -68 29 -68 65c0 35 30 64 68 64c37 0 68 -29 68 -64c0 -36 -31 -65 -68 -65z" />
    <glyph glyph-name="f_j.liga" unicode="fj" horiz-adv-x="659" 
d="M588 500v-570c-1 -93 -73 -170 -173 -170c-26 0 -47 7 -70 18l34 84c10 -6 22 -10 36 -10c42 0 75 32 75 78v478h-242v-408h-99v408h-89v92h89v111c0 101 81 183 181 183c27 0 54 -6 80 -17l-42 -86c-11 8 -24 11 -38 11c-45 0 -82 -38 -82 -90v-112h340zM541 764
c37 0 68 -29 68 -64c0 -36 -31 -65 -68 -65c-38 0 -68 29 -68 65c0 35 30 64 68 64z" />
    <glyph glyph-name="f_t.liga" unicode="ft" horiz-adv-x="744" 
d="M588 408v-246c0 -46 26 -70 68 -70v-100c-109 0 -166 57 -166 170v246h-242v-408h-99v408h-89v92h89v111c0 101 81 183 181 183c27 0 54 -6 80 -17l-42 -86c-11 8 -24 11 -38 11c-45 0 -82 -38 -82 -90v-112h242v188l98 30v-218h116v-92h-116z" />
    <glyph glyph-name="t_i.liga" unicode="ti" horiz-adv-x="661" 
d="M518 635c-38 0 -68 29 -68 65c0 35 30 64 68 64c37 0 68 -29 68 -64c0 -36 -31 -65 -68 -65zM568 500v-500h-99v408h-242v-246c0 -46 26 -70 68 -70v-100c-109 0 -166 57 -166 170v246h-89v92h89v188l98 30v-218h341z" />
    <glyph glyph-name="t_j.liga" unicode="tj" horiz-adv-x="644" 
d="M536 635c-38 0 -68 29 -68 65c0 35 30 64 68 64c37 0 68 -29 68 -64c0 -36 -31 -65 -68 -65zM587 500v-570c-1 -93 -73 -170 -173 -170c-26 0 -47 7 -70 18l34 84c10 -6 22 -10 36 -10c42 0 75 32 75 78v478h-242v-246c0 -46 26 -70 68 -70v-100c-109 0 -166 57 -166 170
v246h-89v92h89v188l98 30v-218h340z" />
    <glyph glyph-name="t_t.liga" unicode="tt" horiz-adv-x="743" 
d="M587 408v-246c0 -46 26 -70 68 -70v-100c-109 0 -166 57 -166 170v246h-242v-246c0 -46 26 -70 68 -70v-100c-109 0 -166 57 -166 170v246h-89v92h89v188l98 30v-218h242v188l98 30v-218h116v-92h-116z" />
    <glyph glyph-name=".notdef" horiz-adv-x="104" 
 />
    <glyph glyph-name="A" unicode="A" horiz-adv-x="618" 
d="M197 193h245l71 -193h105l-282 718h-34l-282 -718h105zM319 508l87 -226h-175z" />
    <glyph glyph-name="Aacute" unicode="&#xc1;" horiz-adv-x="618" 
d="M368 800h-80l96 144h105zM197 193h245l71 -193h105l-282 718h-34l-282 -718h105zM319 508l87 -226h-175z" />
    <glyph glyph-name="Abreve" unicode="&#x102;" horiz-adv-x="618" 
d="M474 946c0 -87 -70 -146 -156 -146c-85 0 -154 59 -154 146v2h69v-2c0 -51 36 -87 87 -87c50 0 86 36 86 87v2h68v-2zM197 193h245l71 -193h105l-282 718h-34l-282 -718h105zM319 508l87 -226h-175z" />
    <glyph glyph-name="Acircumflex" unicode="&#xc2;" horiz-adv-x="618" 
d="M251 800h-80l96 144h105l96 -144h-80l-68 82zM618 0h-105l-71 193h-245l-72 -193h-105l282 718h34zM406 282l-87 226l-88 -226h175z" />
    <glyph glyph-name="Adieresis" unicode="&#xc4;" horiz-adv-x="618" 
d="M223 800c31 0 58 25 58 56c0 30 -27 56 -58 56c-35 0 -61 -26 -61 -56c0 -31 26 -56 61 -56zM417 800c31 0 58 25 58 56c0 30 -27 56 -58 56c-35 0 -60 -26 -60 -56c0 -31 25 -56 60 -56zM197 193h245l71 -193h105l-282 718h-34l-282 -718h105zM319 508l87 -226h-175z
" />
    <glyph glyph-name="Agrave" unicode="&#xc0;" horiz-adv-x="618" 
d="M254 944l96 -144h-80l-121 144h105zM197 193h245l71 -193h105l-282 718h-34l-282 -718h105zM319 508l87 -226h-175z" />
    <glyph glyph-name="Amacron" unicode="&#x100;" horiz-adv-x="618" 
d="M460 867v-67h-282v67h282zM197 193h245l71 -193h105l-282 718h-34l-282 -718h105zM319 508l87 -226h-175z" />
    <glyph glyph-name="Aogonek" unicode="&#x104;" horiz-adv-x="618" 
d="M680 -107c0 -58 -47 -99 -106 -99c-58 0 -107 41 -107 99c0 60 45 90 69 107h-23l-71 193h-245l-72 -193h-105l282 718h34l282 -718h-20c-23 -16 -73 -59 -73 -106c0 -26 23 -48 48 -48c27 0 49 22 49 48zM406 282l-87 226l-88 -226h175z" />
    <glyph glyph-name="Aring" unicode="&#xc5;" horiz-adv-x="618" 
d="M319 800c-51 0 -92 41 -92 93c0 50 41 92 92 92s93 -42 93 -92c0 -52 -42 -93 -93 -93zM320 847c24 0 45 21 45 46c0 24 -21 45 -45 45c-25 0 -46 -21 -46 -45c0 -25 21 -46 46 -46zM197 193h245l71 -193h105l-282 718h-34l-282 -718h105zM319 508l87 -226h-175z" />
    <glyph glyph-name="Atilde" unicode="&#xc3;" horiz-adv-x="618" 
d="M205 800c0 43 15 55 38 55c30 0 109 -60 156 -60c59 0 94 50 94 127h-60c0 -42 -10 -54 -34 -54c-31 0 -116 58 -160 58c-61 0 -94 -50 -94 -126h60zM197 193h245l71 -193h105l-282 718h-34l-282 -718h105zM319 508l87 -226h-175z" />
    <glyph glyph-name="AE" unicode="&#xc6;" horiz-adv-x="950" 
d="M577 605v-176h283v-88h-283v-246h303v-95h-403v193h-204l-92 -192h-111l335 699h475v-95h-303zM477 604h-10l-152 -322h162v322z" />
    <glyph glyph-name="B" unicode="B" horiz-adv-x="529" 
d="M342 384c86 -13 147 -92 147 -175c0 -138 -125 -209 -283 -209h-146v700h151c139 0 231 -66 231 -180s-100 -136 -100 -136zM154 412h57c111 0 130 42 130 103c0 60 -48 90 -130 90h-57v-193zM224 98c121 0 164 54 164 116c0 71 -43 123 -174 123h-57v-239h67z" />
    <glyph glyph-name="C" unicode="C" horiz-adv-x="719" 
d="M576 197c-27 -72 -112 -114 -188 -114c-119 0 -247 104 -247 266c0 160 128 266 247 266c76 0 160 -43 188 -115h123c-37 125 -163 211 -309 211c-199 0 -360 -160 -360 -360c0 -199 161 -361 360 -361c144 0 269 85 306 207h-120z" />
    <glyph glyph-name="Cacute" unicode="&#x106;" horiz-adv-x="719" 
d="M429 800h-80l96 144h105zM576 197c-27 -72 -112 -114 -188 -114c-119 0 -247 104 -247 266c0 160 128 266 247 266c76 0 160 -43 188 -115h123c-37 125 -163 211 -309 211c-199 0 -360 -160 -360 -360c0 -199 161 -361 360 -361c144 0 269 85 306 207h-120z" />
    <glyph glyph-name="Ccaron" unicode="&#x10c;" horiz-adv-x="719" 
d="M334 800l-96 144h80l69 -82l68 82h80l-96 -144h-105zM388 83c76 0 161 42 188 114h120c-37 -122 -162 -207 -306 -207c-199 0 -360 162 -360 361c0 200 161 360 360 360c146 0 272 -86 309 -211h-123c-28 72 -112 115 -188 115c-119 0 -247 -106 -247 -266
c0 -162 128 -266 247 -266z" />
    <glyph glyph-name="Ccedilla" unicode="&#xc7;" horiz-adv-x="719" 
d="M388 83c76 0 161 42 188 114h120c-36 -117 -153 -200 -290 -207l-9 -32h17c35 0 88 -25 87 -98c0 -56 -48 -93 -100 -93c-63 0 -92 49 -92 68l56 9c0 -8 14 -23 36 -23s41 15 41 40c1 23 -17 43 -39 43c-19 0 -32 -5 -43 -21l-35 18l26 91c-181 20 -321 173 -321 359
c0 200 161 360 360 360c146 0 272 -86 309 -211h-123c-28 72 -112 115 -188 115c-119 0 -247 -106 -247 -266c0 -162 128 -266 247 -266z" />
    <glyph glyph-name="Cdotaccent" unicode="&#x10a;" horiz-adv-x="719" 
d="M390 800c35 0 67 29 67 64s-32 64 -67 64c-40 0 -69 -29 -69 -64s29 -64 69 -64zM576 197c-27 -72 -112 -114 -188 -114c-119 0 -247 104 -247 266c0 160 128 266 247 266c76 0 160 -43 188 -115h123c-37 125 -163 211 -309 211c-199 0 -360 -160 -360 -360
c0 -199 161 -361 360 -361c144 0 269 85 306 207h-120z" />
    <glyph glyph-name="D" unicode="D" horiz-adv-x="633" 
d="M52 0h194c193 1 347 158 347 350c0 194 -154 349 -347 350h-194v-700zM246 607c116 -1 238 -105 238 -258c0 -157 -122 -255 -238 -256h-85v514h85z" />
    <glyph glyph-name="Eth" unicode="&#xd0;" horiz-adv-x="653" 
d="M266 700c193 -1 347 -156 347 -350c0 -192 -154 -349 -347 -350h-194v309h-52v80h52v311h194zM266 93c116 1 238 99 238 256c0 153 -122 257 -238 258h-85v-218h129v-80h-129v-216h85z" />
    <glyph glyph-name="Dcaron" unicode="&#x10e;" horiz-adv-x="633" 
d="M195 800l-96 144h80l69 -82l68 82h80l-96 -144h-105zM246 700c193 -1 347 -156 347 -350c0 -192 -154 -349 -347 -350h-194v700h194zM246 93c116 1 238 99 238 256c0 153 -122 257 -238 258h-85v-514h85z" />
    <glyph glyph-name="Dcroat" unicode="&#x110;" horiz-adv-x="653" 
d="M266 700c193 -1 347 -156 347 -350c0 -192 -154 -349 -347 -350h-194v309h-52v80h52v311h194zM266 93c116 1 238 99 238 256c0 153 -122 257 -238 258h-85v-218h129v-80h-129v-216h85z" />
    <glyph glyph-name="E" unicode="E" horiz-adv-x="572" 
d="M473 341v88h-283v176h303v95h-403v-700h403v95h-303v246h283z" />
    <glyph glyph-name="Eacute" unicode="&#xc9;" horiz-adv-x="572" 
d="M334 800h-80l96 144h105zM473 341v88h-283v176h303v95h-403v-700h403v95h-303v246h283z" />
    <glyph glyph-name="Ecaron" unicode="&#x11a;" horiz-adv-x="572" 
d="M239 800l-96 144h80l69 -82l68 82h80l-96 -144h-105zM190 605v-176h283v-88h-283v-246h303v-95h-403v700h403v-95h-303z" />
    <glyph glyph-name="Ecircumflex" unicode="&#xca;" horiz-adv-x="572" 
d="M220 800h-80l96 144h105l96 -144h-80l-68 82zM190 605v-176h283v-88h-283v-246h303v-95h-403v700h403v-95h-303z" />
    <glyph glyph-name="Edieresis" unicode="&#xcb;" horiz-adv-x="572" 
d="M194 800c31 0 58 25 58 56c0 30 -27 56 -58 56c-35 0 -61 -26 -61 -56c0 -31 26 -56 61 -56zM388 800c31 0 58 25 58 56c0 30 -27 56 -58 56c-35 0 -60 -26 -60 -56c0 -31 25 -56 60 -56zM473 341v88h-283v176h303v95h-403v-700h403v95h-303v246h283z" />
    <glyph glyph-name="Edotaccent" unicode="&#x116;" horiz-adv-x="572" 
d="M292 800c35 0 67 29 67 64s-32 64 -67 64c-40 0 -69 -29 -69 -64s29 -64 69 -64zM473 341v88h-283v176h303v95h-403v-700h403v95h-303v246h283z" />
    <glyph glyph-name="Egrave" unicode="&#xc8;" horiz-adv-x="572" 
d="M244 944l96 -144h-80l-121 144h105zM473 341v88h-283v176h303v95h-403v-700h403v95h-303v246h283z" />
    <glyph glyph-name="Emacron" unicode="&#x112;" horiz-adv-x="572" 
d="M432 867v-67h-282v67h282zM473 341v88h-283v176h303v95h-403v-700h403v95h-303v246h283z" />
    <glyph glyph-name="Eogonek" unicode="&#x118;" horiz-adv-x="572" 
d="M190 605v-176h283v-88h-283v-246h303v-95h-159c-23 -16 -73 -59 -73 -106c0 -26 23 -48 48 -48c27 0 49 22 49 48l58 -1c0 -58 -47 -99 -106 -99c-58 0 -107 41 -107 99c0 60 45 90 69 107h-182v700h403v-95h-303z" />
    <glyph glyph-name="F" unicode="F" horiz-adv-x="517" 
d="M447 341v88h-257v176h277v95h-377v-700h100v341h257z" />
    <glyph glyph-name="G" unicode="G" horiz-adv-x="707" 
d="M687 351c0 -217 -114 -356 -331 -356c-197 0 -356 159 -356 356s159 356 356 356c99 0 189 -40 253 -105l-74 -78c-49 55 -117 85 -182 85c-116 0 -244 -101 -244 -261c0 -159 128 -262 244 -262s199 58 223 180h-225v91h336v-6z" />
    <glyph glyph-name="Gbreve" unicode="&#x11e;" horiz-adv-x="707" 
d="M355 800c-85 0 -154 59 -154 146v2h69v-2c0 -51 36 -87 87 -87c50 0 86 36 86 87v2h68v-2c0 -87 -70 -146 -156 -146zM687 351c0 -217 -114 -356 -331 -356c-197 0 -356 159 -356 356s159 356 356 356c99 0 189 -40 253 -105l-74 -78c-49 55 -117 85 -182 85
c-116 0 -244 -101 -244 -261c0 -159 128 -262 244 -262s199 58 223 180h-225v91h336v-6z" />
    <glyph glyph-name="uni0122" unicode="&#x122;" horiz-adv-x="707" 
d="M687 351c0 -217 -114 -356 -331 -356c-197 0 -356 159 -356 356s159 356 356 356c99 0 189 -40 253 -105l-74 -78c-49 55 -117 85 -182 85c-116 0 -244 -101 -244 -261c0 -159 128 -262 244 -262s199 58 223 180h-225v91h336v-6zM299 -61h84l-55 -155h-58z" />
    <glyph glyph-name="Gdotaccent" unicode="&#x120;" horiz-adv-x="707" 
d="M356 800c-40 0 -69 29 -69 64s29 64 69 64c35 0 67 -29 67 -64s-32 -64 -67 -64zM687 351c0 -217 -114 -356 -331 -356c-197 0 -356 159 -356 356s159 356 356 356c99 0 189 -40 253 -105l-74 -78c-49 55 -117 85 -182 85c-116 0 -244 -101 -244 -261
c0 -159 128 -262 244 -262s199 58 223 180h-225v91h336v-6z" />
    <glyph glyph-name="H" unicode="H" horiz-adv-x="620" 
d="M550 700v-699l-104 -1v299h-298v-298l-104 -1v700h104v-303h298v303h104z" />
    <glyph glyph-name="Hbar" unicode="&#x126;" horiz-adv-x="620" 
d="M602 510h-52v-509l-104 -1v299h-298v-298l-104 -1v510h-46v80h46v110h104v-110h298v110h104v-110h52v-80zM446 510h-298v-113h298v113z" />
    <glyph glyph-name="I" unicode="I" horiz-adv-x="301" 
d="M217 0h-105v700h105v-700z" />
    <glyph glyph-name="Iacute" unicode="&#xcd;" horiz-adv-x="301" 
d="M208 800h-80l96 144h105zM217 0h-105v700h105v-700z" />
    <glyph glyph-name="Icircumflex" unicode="&#xce;" horiz-adv-x="301" 
d="M299 800h-80l-68 82l-69 -82h-80l96 144h105zM112 700h105v-700h-105v700z" />
    <glyph glyph-name="Idieresis" unicode="&#xcf;" horiz-adv-x="301" 
d="M68 800c31 0 58 25 58 56c0 30 -27 56 -58 56c-35 0 -61 -26 -61 -56c0 -31 26 -56 61 -56zM262 800c31 0 58 25 58 56c0 30 -27 56 -58 56c-35 0 -60 -26 -60 -56c0 -31 25 -56 60 -56zM217 0h-105v700h105v-700z" />
    <glyph glyph-name="Idotaccent" unicode="&#x130;" horiz-adv-x="301" 
d="M168 799c35 0 67 29 67 64s-32 64 -67 64c-40 0 -69 -29 -69 -64s29 -64 69 -64zM217 0h-105v700h105v-700z" />
    <glyph glyph-name="Igrave" unicode="&#xcc;" horiz-adv-x="301" 
d="M103 944l96 -144h-80l-121 144h105zM217 0h-105v700h105v-700z" />
    <glyph glyph-name="Imacron" unicode="&#x12a;" horiz-adv-x="301" 
d="M306 867v-67h-282v67h282zM217 0h-105v700h105v-700z" />
    <glyph glyph-name="Iogonek" unicode="&#x12e;" horiz-adv-x="301" 
d="M282 -106c0 -58 -47 -99 -106 -99c-58 0 -107 41 -107 99c0 59 43 89 68 106h-25v700h105v-700h-18c-24 -17 -72 -59 -72 -105c0 -26 23 -48 48 -48c27 0 49 22 49 48z" />
    <glyph glyph-name="J" unicode="J" horiz-adv-x="468" 
d="M388 188c0 -107 -93 -196 -200 -196c-62 0 -112 24 -148 63l67 63c20 -21 47 -34 76 -34c57 0 104 48 104 104v512h100v-512h1z" />
    <glyph glyph-name="K" unicode="K" horiz-adv-x="605" 
d="M605 0l-308 363l256 337h-132l-222 -295h-43v295h-105v-700h105v311h43l267 -311h139z" />
    <glyph glyph-name="uni0136" unicode="&#x136;" horiz-adv-x="605" 
d="M605 0l-308 363l256 337h-132l-222 -295h-43v295h-105v-700h105v311h43l267 -311h139zM268 -216h-58l29 155h84z" />
    <glyph glyph-name="L" unicode="L" horiz-adv-x="540" 
d="M218 96h289v-96h-394v700h105v-604z" />
    <glyph glyph-name="Lacute" unicode="&#x139;" horiz-adv-x="540" 
d="M299 800h-80l96 144h105zM218 96h289v-96h-394v700h105v-604z" />
    <glyph glyph-name="Lcaron" unicode="&#x13d;" horiz-adv-x="540" 
d="M218 96h289v-96h-394v700h105v-604zM340 556h-80l96 144h105z" />
    <glyph glyph-name="uni013B" unicode="&#x13b;" horiz-adv-x="540" 
d="M218 96h289v-96h-394v700h105v-604zM278 -216h-58l29 155h84z" />
    <glyph glyph-name="Lslash" unicode="&#x141;" horiz-adv-x="540" 
d="M507 96v-96h-394v297l-52 -19v67l52 19v336h105v-298l59 21v-67l-59 -21v-239h289z" />
    <glyph glyph-name="M" unicode="M" horiz-adv-x="807" 
d="M770 0h-95l-59 392l-192 -407h-32l-192 409l-59 -394h-95l87 716h32l242 -541l244 541h32z" />
    <glyph glyph-name="N" unicode="N" horiz-adv-x="725" 
d="M174 0v480l448 -496h33v716h-103v-483l-449 497h-33v-714h104z" />
    <glyph glyph-name="Nacute" unicode="&#x143;" horiz-adv-x="725" 
d="M401 800h-80l96 144h105zM174 0v480l448 -496h33v716h-103v-483l-449 497h-33v-714h104z" />
    <glyph glyph-name="Ncaron" unicode="&#x147;" horiz-adv-x="725" 
d="M301 800l-96 144h80l69 -82l68 82h80l-96 -144h-105zM655 700v-716h-33l-448 496v-480h-104v714h33l449 -497v483h103z" />
    <glyph glyph-name="uni0145" unicode="&#x145;" horiz-adv-x="725" 
d="M174 0v480l448 -496h33v716h-103v-483l-449 497h-33v-714h104zM353 -216h-58l29 155h84z" />
    <glyph glyph-name="Eng" unicode="&#x14a;" horiz-adv-x="725" 
d="M655 700v-716c-2 -93 -72 -169 -174 -169v92c42 0 75 32 75 78v72l-382 423v-480h-104v714h33l449 -497v483h103z" />
    <glyph glyph-name="Ntilde" unicode="&#xd1;" horiz-adv-x="725" 
d="M251 800c0 43 15 55 38 55c30 0 109 -60 156 -60c59 0 94 50 94 127h-60c0 -42 -10 -54 -34 -54c-31 0 -116 58 -160 58c-61 0 -94 -50 -94 -126h60zM174 0v480l448 -496h33v716h-103v-483l-449 497h-33v-714h104z" />
    <glyph glyph-name="O" unicode="O" horiz-adv-x="771" 
d="M390 -10c199 0 361 162 361 361c0 200 -162 360 -361 360s-360 -160 -360 -360c0 -199 161 -361 360 -361zM388 83c-119 0 -247 104 -247 266c0 160 128 266 247 266c120 0 248 -106 248 -266c0 -162 -128 -266 -248 -266z" />
    <glyph glyph-name="Oacute" unicode="&#xd3;" horiz-adv-x="771" 
d="M434 800h-80l96 144h105zM390 -10c199 0 361 162 361 361c0 200 -162 360 -361 360s-360 -160 -360 -360c0 -199 161 -361 360 -361zM388 83c-119 0 -247 104 -247 266c0 160 128 266 247 266c120 0 248 -106 248 -266c0 -162 -128 -266 -248 -266z" />
    <glyph glyph-name="Ocircumflex" unicode="&#xd4;" horiz-adv-x="771" 
d="M315 800h-80l96 144h105l96 -144h-80l-68 82zM390 711c199 0 361 -160 361 -360c0 -199 -162 -361 -361 -361s-360 162 -360 361c0 200 161 360 360 360zM388 83c120 0 248 104 248 266c0 160 -128 266 -248 266c-119 0 -247 -106 -247 -266c0 -162 128 -266 247 -266z
" />
    <glyph glyph-name="Odieresis" unicode="&#xd6;" horiz-adv-x="771" 
d="M295 800c31 0 58 25 58 56c0 30 -27 56 -58 56c-35 0 -61 -26 -61 -56c0 -31 26 -56 61 -56zM489 800c31 0 58 25 58 56c0 30 -27 56 -58 56c-35 0 -60 -26 -60 -56c0 -31 25 -56 60 -56zM390 -10c199 0 361 162 361 361c0 200 -162 360 -361 360s-360 -160 -360 -360
c0 -199 161 -361 360 -361zM388 83c-119 0 -247 104 -247 266c0 160 128 266 247 266c120 0 248 -106 248 -266c0 -162 -128 -266 -248 -266z" />
    <glyph glyph-name="Ograve" unicode="&#xd2;" horiz-adv-x="771" 
d="M337 944l96 -144h-80l-121 144h105zM390 -10c199 0 361 162 361 361c0 200 -162 360 -361 360s-360 -160 -360 -360c0 -199 161 -361 360 -361zM388 83c-119 0 -247 104 -247 266c0 160 128 266 247 266c120 0 248 -106 248 -266c0 -162 -128 -266 -248 -266z" />
    <glyph glyph-name="Ohungarumlaut" unicode="&#x150;" horiz-adv-x="771" 
d="M365 800h-80l96 144h105zM520 800h-80l96 144h105zM390 -10c199 0 361 162 361 361c0 200 -162 360 -361 360s-360 -160 -360 -360c0 -199 161 -361 360 -361zM388 83c-119 0 -247 104 -247 266c0 160 128 266 247 266c120 0 248 -106 248 -266
c0 -162 -128 -266 -248 -266z" />
    <glyph glyph-name="Omacron" unicode="&#x14c;" horiz-adv-x="771" 
d="M530 867v-67h-282v67h282zM390 -10c199 0 361 162 361 361c0 200 -162 360 -361 360s-360 -160 -360 -360c0 -199 161 -361 360 -361zM388 83c-119 0 -247 104 -247 266c0 160 128 266 247 266c120 0 248 -106 248 -266c0 -162 -128 -266 -248 -266z" />
    <glyph glyph-name="Oslash" unicode="&#xd8;" horiz-adv-x="771" 
d="M640 611c68 -65 111 -157 111 -260c0 -199 -162 -361 -361 -361c-71 0 -136 20 -192 55l-47 -60h-93l83 106c-69 65 -111 158 -111 260c0 200 161 360 360 360c71 0 136 -20 192 -55l47 60h93zM141 349c0 -72 25 -132 63 -177l314 402c-40 26 -85 41 -130 41
c-119 0 -247 -106 -247 -266zM388 83c120 0 248 104 248 266c0 71 -25 131 -63 176l-314 -402c40 -26 85 -40 129 -40z" />
    <glyph glyph-name="Otilde" unicode="&#xd5;" horiz-adv-x="771" 
d="M276 800c0 43 15 55 38 55c30 0 109 -60 156 -60c59 0 94 50 94 127h-60c0 -42 -10 -54 -34 -54c-31 0 -116 58 -160 58c-61 0 -94 -50 -94 -126h60zM390 -10c199 0 361 162 361 361c0 200 -162 360 -361 360s-360 -160 -360 -360c0 -199 161 -361 360 -361zM388 83
c-119 0 -247 104 -247 266c0 160 128 266 247 266c120 0 248 -106 248 -266c0 -162 -128 -266 -248 -266z" />
    <glyph glyph-name="OE" unicode="&#x152;" horiz-adv-x="1145" 
d="M763 605v-176h283v-88h-283v-246h303v-95h-403v115c-66 -76 -164 -125 -273 -125c-199 0 -360 162 -360 361c0 200 161 360 360 360c109 0 207 -48 273 -124v113h403v-95h-303zM388 83c120 0 248 104 248 266c0 160 -128 266 -248 266c-119 0 -247 -106 -247 -266
c0 -162 128 -266 247 -266z" />
    <glyph glyph-name="P" unicode="P" horiz-adv-x="485" 
d="M206 700c169 0 259 -89 259 -207s-90 -208 -259 -208h-42v-285h-97v700h139zM206 377c137 0 159 61 159 114s-22 116 -159 116h-42v-230h42z" />
    <glyph glyph-name="Thorn" unicode="&#xde;" horiz-adv-x="485" 
d="M206 587c169 0 259 -89 259 -207s-90 -208 -259 -208h-42v-172h-97v716h97v-129h42zM206 264c137 0 159 61 159 114s-22 116 -159 116h-42v-230h42z" />
    <glyph glyph-name="Q" unicode="Q" horiz-adv-x="775" 
d="M630 -8l-56 58c-57 -37 -124 -58 -196 -58c-197 0 -358 161 -358 358c0 198 161 358 358 358c198 0 358 -160 358 -358c0 -92 -35 -177 -93 -241l112 -117h-125zM375 83c44 0 89 14 128 40l-128 133h128l66 -69c32 43 52 97 52 160c0 161 -127 264 -246 264
c-118 0 -246 -103 -246 -264c0 -158 128 -264 246 -264z" />
    <glyph glyph-name="R" unicode="R" horiz-adv-x="551" 
d="M561 0h-121l-241 284h-35v-284h-97v700h129c169 0 259 -89 259 -207c0 -108 -51 -161 -148 -193zM196 377c137 0 159 61 159 114s-22 116 -159 116h-32v-230h32z" />
    <glyph glyph-name="Racute" unicode="&#x154;" horiz-adv-x="551" 
d="M306 800h-80l96 144h105zM561 0h-121l-241 284h-35v-284h-97v700h129c169 0 259 -89 259 -207c0 -108 -51 -161 -148 -193zM196 377c137 0 159 61 159 114s-22 116 -159 116h-32v-230h32z" />
    <glyph glyph-name="Rcaron" unicode="&#x158;" horiz-adv-x="551" 
d="M154 800l-96 144h80l69 -82l68 82h80l-96 -144h-105zM561 0h-121l-241 284h-35v-284h-97v700h129c169 0 259 -89 259 -207c0 -108 -51 -161 -148 -193zM196 377c137 0 159 61 159 114s-22 116 -159 116h-32v-230h32z" />
    <glyph glyph-name="uni0156" unicode="&#x156;" horiz-adv-x="551" 
d="M561 0h-121l-241 284h-35v-284h-97v700h129c169 0 259 -89 259 -207c0 -108 -51 -161 -148 -193zM196 377c137 0 159 61 159 114s-22 116 -159 116h-32v-230h32zM229 -61h84l-55 -155h-58z" />
    <glyph glyph-name="S" unicode="S" horiz-adv-x="611" 
d="M367 417c127 -27 214 -88 214 -210c0 -127 -105 -221 -244 -221c-145 0 -267 97 -267 224h116c0 -47 60 -125 141 -125c97 0 145 68 145 115c0 63 -47 99 -105 113c-19 5 -31 7 -90 22c-88 19 -170 90 -170 186c0 110 89 195 211 195c112 0 212 -78 212 -170h-110
c0 44 -43 77 -102 77c-62 0 -105 -56 -105 -100c0 -32 26 -73 67 -83z" />
    <glyph glyph-name="Sacute" unicode="&#x15a;" horiz-adv-x="611" 
d="M365 800h-80l96 144h105zM367 417c127 -27 214 -88 214 -210c0 -127 -105 -221 -244 -221c-145 0 -267 97 -267 224h116c0 -47 60 -125 141 -125c97 0 145 68 145 115c0 63 -47 99 -105 113c-19 5 -31 7 -90 22c-88 19 -170 90 -170 186c0 110 89 195 211 195
c112 0 212 -78 212 -170h-110c0 44 -43 77 -102 77c-62 0 -105 -56 -105 -100c0 -32 26 -73 67 -83z" />
    <glyph glyph-name="Scaron" unicode="&#x160;" horiz-adv-x="611" 
d="M265 800l-96 144h80l69 -82l68 82h80l-96 -144h-105zM367 417c127 -27 214 -88 214 -210c0 -127 -105 -221 -244 -221c-145 0 -267 97 -267 224h116c0 -47 60 -125 141 -125c97 0 145 68 145 115c0 63 -47 99 -105 113c-19 5 -31 7 -90 22c-88 19 -170 90 -170 186
c0 110 89 195 211 195c112 0 212 -78 212 -170h-110c0 44 -43 77 -102 77c-62 0 -105 -56 -105 -100c0 -32 26 -73 67 -83z" />
    <glyph glyph-name="Scedilla" unicode="&#x15e;" horiz-adv-x="611" 
d="M581 207c0 -120 -94 -210 -221 -220l-10 -35h15c32 0 80 -23 79 -89c0 -51 -43 -85 -91 -85c-57 0 -83 45 -83 62l51 8c0 -7 12 -21 32 -21s38 14 38 37c1 21 -16 39 -36 39c-17 0 -29 -5 -39 -19l-32 16l25 87c-132 12 -239 104 -239 223h116c0 -47 60 -125 141 -125
c97 0 145 68 145 115c0 63 -47 99 -105 113c-19 5 -31 7 -90 22c-88 19 -170 90 -170 186c0 110 89 195 211 195c112 0 212 -78 212 -170h-110c0 44 -43 77 -102 77c-62 0 -105 -56 -105 -100c0 -32 26 -73 67 -83l87 -23c127 -27 214 -88 214 -210z" />
    <glyph glyph-name="uni0218" unicode="&#x218;" horiz-adv-x="611" 
d="M367 417c127 -27 214 -88 214 -210c0 -127 -105 -221 -244 -221c-145 0 -267 97 -267 224h116c0 -47 60 -125 141 -125c97 0 145 68 145 115c0 63 -47 99 -105 113c-19 5 -31 7 -90 22c-88 19 -170 90 -170 186c0 110 89 195 211 195c112 0 212 -78 212 -170h-110
c0 44 -43 77 -102 77c-62 0 -105 -56 -105 -100c0 -32 26 -73 67 -83zM289 -61h84l-55 -155h-58z" />
    <glyph glyph-name="T" unicode="T" horiz-adv-x="503" 
d="M503 609h-174v-609h-104v609h-175v91h453v-91z" />
    <glyph glyph-name="Tbar" unicode="&#x166;" horiz-adv-x="503" 
d="M329 609v-176h116v-80h-116v-353h-104v353h-116v80h116v176h-175v91h453v-91h-174z" />
    <glyph glyph-name="Tcaron" unicode="&#x164;" horiz-adv-x="503" 
d="M224 800l-96 144h80l69 -82l68 82h80l-96 -144h-105zM503 609h-174v-609h-104v609h-175v91h453v-91z" />
    <glyph glyph-name="uni0162" unicode="&#x162;" horiz-adv-x="503" 
d="M303 0l-14 -48h15c32 0 80 -23 79 -89c0 -51 -43 -85 -91 -85c-57 0 -83 45 -83 62l51 8c0 -7 12 -21 32 -21s38 14 38 37c1 21 -16 39 -36 39c-17 0 -29 -5 -39 -19l-32 16l29 100h-27v609h-175v91h453v-91h-174v-609h-26z" />
    <glyph glyph-name="uni021A" unicode="&#x21a;" horiz-adv-x="503" 
d="M503 609h-174v-609h-104v609h-175v91h453v-91zM231 -61h84l-55 -155h-58z" />
    <glyph glyph-name="U" unicode="U" 
d="M556 701v-433c0 -169 -119 -276 -255 -276c-137 0 -257 107 -257 276v433h105v-433c0 -132 69 -176 150 -176c83 0 153 44 153 176v433h104z" />
    <glyph glyph-name="Uacute" unicode="&#xda;" 
d="M335 800h-80l96 144h105zM556 701v-433c0 -169 -119 -276 -255 -276c-137 0 -257 107 -257 276v433h105v-433c0 -132 69 -176 150 -176c83 0 153 44 153 176v433h104z" />
    <glyph glyph-name="Ucircumflex" unicode="&#xdb;" 
d="M235 800h-80l96 144h105l96 -144h-80l-68 82zM556 701v-433c0 -169 -119 -276 -255 -276c-137 0 -257 107 -257 276v433h105v-433c0 -132 69 -176 150 -176c83 0 153 44 153 176v433h104z" />
    <glyph glyph-name="Udieresis" unicode="&#xdc;" 
d="M205 800c-35 0 -61 25 -61 56c0 30 26 56 61 56c31 0 58 -26 58 -56c0 -31 -27 -56 -58 -56zM399 800c-35 0 -60 25 -60 56c0 30 25 56 60 56c31 0 58 -26 58 -56c0 -31 -27 -56 -58 -56zM556 701v-433c0 -169 -119 -276 -255 -276c-137 0 -257 107 -257 276v433h105
v-433c0 -132 69 -176 150 -176c83 0 153 44 153 176v433h104z" />
    <glyph glyph-name="Ugrave" unicode="&#xd9;" 
d="M264 800l-121 144h105l96 -144h-80zM556 701v-433c0 -169 -119 -276 -255 -276c-137 0 -257 107 -257 276v433h105v-433c0 -132 69 -176 150 -176c83 0 153 44 153 176v433h104z" />
    <glyph glyph-name="Uhungarumlaut" unicode="&#x170;" 
d="M255 800h-80l96 144h105zM330 800l96 144h105l-121 -144h-80zM556 701v-433c0 -169 -119 -276 -255 -276c-137 0 -257 107 -257 276v433h105v-433c0 -132 69 -176 150 -176c83 0 153 44 153 176v433h104z" />
    <glyph glyph-name="Umacron" unicode="&#x16a;" 
d="M441 800h-282v67h282v-67zM556 701v-433c0 -169 -119 -276 -255 -276c-137 0 -257 107 -257 276v433h105v-433c0 -132 69 -176 150 -176c83 0 153 44 153 176v433h104z" />
    <glyph glyph-name="Uogonek" unicode="&#x172;" 
d="M556 701v-433c0 -154 -99 -257 -220 -274c-23 -16 -72 -59 -72 -105c0 -26 23 -48 48 -48c27 0 49 22 49 48l58 -1c0 -58 -47 -99 -106 -99c-58 0 -107 41 -107 99s42 88 67 106c-125 13 -229 117 -229 274v433h105v-433c0 -132 69 -176 150 -176c83 0 153 44 153 176
v433h104z" />
    <glyph glyph-name="Uring" unicode="&#x16e;" 
d="M298 800c-51 0 -92 41 -92 93c0 50 41 92 92 92s93 -42 93 -92c0 -52 -42 -93 -93 -93zM299 938c-25 0 -46 -21 -46 -45c0 -25 21 -46 46 -46c24 0 45 21 45 46c0 24 -21 45 -45 45zM556 701v-433c0 -169 -119 -276 -255 -276c-137 0 -257 107 -257 276v433h105v-433
c0 -132 69 -176 150 -176c83 0 153 44 153 176v433h104z" />
    <glyph glyph-name="V" unicode="V" horiz-adv-x="626" 
d="M122 700l191 -491l190 491h113l-291 -715h-28l-287 715h112z" />
    <glyph glyph-name="W" unicode="W" horiz-adv-x="851" 
d="M792 700h107l-270 -715h-29l-148 436l-161 -436h-28l-261 715h107l168 -469l161 480h28l152 -480z" />
    <glyph glyph-name="Wacute" unicode="&#x1e82;" horiz-adv-x="851" 
d="M502 800h-80l96 144h105zM792 700h107l-270 -715h-29l-148 436l-161 -436h-28l-261 715h107l168 -469l161 480h28l152 -480z" />
    <glyph glyph-name="Wcircumflex" unicode="&#x174;" horiz-adv-x="851" 
d="M384 800h-80l96 144h105l96 -144h-80l-68 82zM899 700l-270 -715h-29l-148 436l-161 -436h-28l-261 715h107l168 -469l161 480h28l152 -480l174 469h107z" />
    <glyph glyph-name="Wdieresis" unicode="&#x1e84;" horiz-adv-x="851" 
d="M358 800c31 0 58 25 58 56c0 30 -27 56 -58 56c-35 0 -61 -26 -61 -56c0 -31 26 -56 61 -56zM552 800c31 0 58 25 58 56c0 30 -27 56 -58 56c-35 0 -60 -26 -60 -56c0 -31 25 -56 60 -56zM792 700h107l-270 -715h-29l-148 436l-161 -436h-28l-261 715h107l168 -469
l161 480h28l152 -480z" />
    <glyph glyph-name="Wgrave" unicode="&#x1e80;" horiz-adv-x="851" 
d="M391 944l96 -144h-80l-121 144h105zM792 700h107l-270 -715h-29l-148 436l-161 -436h-28l-261 715h107l168 -469l161 480h28l152 -480z" />
    <glyph glyph-name="X" unicode="X" horiz-adv-x="680" 
d="M558 0l-218 281l-218 -281h-122l279 360l-264 340h122l203 -262l203 262h122l-264 -340l279 -360h-122z" />
    <glyph glyph-name="Y" unicode="Y" horiz-adv-x="589" 
d="M599 700l-231 -390v-310h-102v310l-226 390h110l168 -296l171 296h110z" />
    <glyph glyph-name="Yacute" unicode="&#xdd;" horiz-adv-x="589" 
d="M360 800h-80l96 144h105zM599 700l-231 -390v-310h-102v310l-226 390h110l168 -296l171 296h110z" />
    <glyph glyph-name="Ycircumflex" unicode="&#x176;" horiz-adv-x="589" 
d="M250 800h-80l96 144h105l96 -144h-80l-68 82zM599 700l-231 -390v-310h-102v310l-226 390h110l168 -296l171 296h110z" />
    <glyph glyph-name="Ydieresis" unicode="&#x178;" horiz-adv-x="589" 
d="M223 800c-35 0 -61 25 -61 56c0 30 26 56 61 56c31 0 58 -26 58 -56c0 -31 -27 -56 -58 -56zM417 800c-35 0 -60 25 -60 56c0 30 25 56 60 56c31 0 58 -26 58 -56c0 -31 -27 -56 -58 -56zM599 700l-231 -390v-310h-102v310l-226 390h110l168 -296l171 296h110z" />
    <glyph glyph-name="Ygrave" unicode="&#x1ef2;" horiz-adv-x="589" 
d="M278 800l-121 144h105l96 -144h-80zM599 700l-231 -390v-310h-102v310l-226 390h110l168 -296l171 296h110z" />
    <glyph glyph-name="Z" unicode="Z" 
d="M550 670l-341 -575h344v-95h-502v28l343 577h-315v95h471v-30z" />
    <glyph glyph-name="Zacute" unicode="&#x179;" 
d="M359 800h-80l96 144h105zM550 670l-341 -575h344v-95h-502v28l343 577h-315v95h471v-30z" />
    <glyph glyph-name="Zcaron" unicode="&#x17d;" 
d="M269 800l-96 144h80l69 -82l68 82h80l-96 -144h-105zM553 95v-95h-502v28l343 577h-315v95h471v-30l-341 -575h344z" />
    <glyph glyph-name="Zdotaccent" unicode="&#x17b;" 
d="M310 800c35 0 67 29 67 64s-32 64 -67 64c-40 0 -69 -29 -69 -64s29 -64 69 -64zM550 670l-341 -575h344v-95h-502v28l343 577h-315v95h471v-30z" />
    <glyph glyph-name="a" unicode="a" horiz-adv-x="622" 
d="M466 0h97v500h-97v-63s-50 69 -160 69c-143 0 -259 -114 -259 -258c0 -141 116 -257 259 -257c110 0 160 69 160 69v-60zM308 78c-87 0 -156 76 -156 168c0 93 69 170 156 170s156 -77 156 -170c0 -92 -69 -168 -156 -168z" />
    <glyph glyph-name="aacute" unicode="&#xe1;" horiz-adv-x="622" 
d="M361 602h-80l96 144h105zM466 0h97v500h-97v-63s-50 69 -160 69c-143 0 -259 -114 -259 -258c0 -141 116 -257 259 -257c110 0 160 69 160 69v-60zM308 78c-87 0 -156 76 -156 168c0 93 69 170 156 170s156 -77 156 -170c0 -92 -69 -168 -156 -168z" />
    <glyph glyph-name="abreve" unicode="&#x103;" horiz-adv-x="622" 
d="M476 746c0 -87 -70 -146 -156 -146c-85 0 -154 59 -154 146v2h69v-2c0 -51 36 -87 87 -87c50 0 86 36 86 87v2h68v-2zM466 0h97v500h-97v-63s-50 69 -160 69c-143 0 -259 -114 -259 -258c0 -141 116 -257 259 -257c110 0 160 69 160 69v-60zM308 78
c-87 0 -156 76 -156 168c0 93 69 170 156 170s156 -77 156 -170c0 -92 -69 -168 -156 -168z" />
    <glyph glyph-name="acircumflex" unicode="&#xe2;" horiz-adv-x="622" 
d="M244 602h-80l96 144h105l96 -144h-80l-68 82zM563 500v-500h-97v60s-50 -69 -160 -69c-143 0 -259 116 -259 257c0 144 116 258 259 258c110 0 160 -69 160 -69v63h97zM308 78c87 0 156 76 156 168c0 93 -69 170 -156 170s-156 -77 -156 -170c0 -92 69 -168 156 -168z
" />
    <glyph glyph-name="adieresis" unicode="&#xe4;" horiz-adv-x="622" 
d="M215 604c31 0 58 25 58 56c0 30 -27 56 -58 56c-35 0 -61 -26 -61 -56c0 -31 26 -56 61 -56zM409 604c31 0 58 25 58 56c0 30 -27 56 -58 56c-35 0 -60 -26 -60 -56c0 -31 25 -56 60 -56zM466 0h97v500h-97v-63s-50 69 -160 69c-143 0 -259 -114 -259 -258
c0 -141 116 -257 259 -257c110 0 160 69 160 69v-60zM308 78c-87 0 -156 76 -156 168c0 93 69 170 156 170s156 -77 156 -170c0 -92 -69 -168 -156 -168z" />
    <glyph glyph-name="agrave" unicode="&#xe0;" horiz-adv-x="622" 
d="M251 746l96 -144h-80l-121 144h105zM466 0h97v500h-97v-63s-50 69 -160 69c-143 0 -259 -114 -259 -258c0 -141 116 -257 259 -257c110 0 160 69 160 69v-60zM308 78c-87 0 -156 76 -156 168c0 93 69 170 156 170s156 -77 156 -170c0 -92 -69 -168 -156 -168z" />
    <glyph glyph-name="amacron" unicode="&#x101;" horiz-adv-x="622" 
d="M457 693v-67h-282v67h282zM466 0h97v500h-97v-63s-50 69 -160 69c-143 0 -259 -114 -259 -258c0 -141 116 -257 259 -257c110 0 160 69 160 69v-60zM308 78c-87 0 -156 76 -156 168c0 93 69 170 156 170s156 -77 156 -170c0 -92 -69 -168 -156 -168z" />
    <glyph glyph-name="aogonek" unicode="&#x105;" horiz-adv-x="622" 
d="M563 500v-500h-97v60s-38 -53 -121 -66c-23 -16 -73 -59 -73 -106c0 -26 23 -48 48 -48c27 0 49 22 49 48l58 -1c0 -58 -47 -99 -106 -99c-58 0 -107 41 -107 99s42 88 67 105c-132 13 -234 123 -234 256c0 144 116 258 259 258c110 0 160 -69 160 -69v63h97zM308 78
c87 0 156 76 156 168c0 93 -69 170 -156 170s-156 -77 -156 -170c0 -92 69 -168 156 -168z" />
    <glyph glyph-name="aring" unicode="&#xe5;" horiz-adv-x="622" 
d="M313 574c-51 0 -92 41 -92 93c0 50 41 92 92 92s93 -42 93 -92c0 -52 -42 -93 -93 -93zM314 621c24 0 45 21 45 46c0 24 -21 45 -45 45c-25 0 -46 -21 -46 -45c0 -25 21 -46 46 -46zM466 0h97v500h-97v-63s-50 69 -160 69c-143 0 -259 -114 -259 -258
c0 -141 116 -257 259 -257c110 0 160 69 160 69v-60zM308 78c-87 0 -156 76 -156 168c0 93 69 170 156 170s156 -77 156 -170c0 -92 -69 -168 -156 -168z" />
    <glyph glyph-name="atilde" unicode="&#xe3;" horiz-adv-x="622" 
d="M193 606c0 43 15 55 38 55c30 0 109 -60 156 -60c59 0 94 50 94 127h-60c0 -42 -10 -54 -34 -54c-31 0 -116 58 -160 58c-61 0 -94 -50 -94 -126h60zM466 0h97v500h-97v-63s-50 69 -160 69c-143 0 -259 -114 -259 -258c0 -141 116 -257 259 -257c110 0 160 69 160 69v-60
zM308 78c-87 0 -156 76 -156 168c0 93 69 170 156 170s156 -77 156 -170c0 -92 -69 -168 -156 -168z" />
    <glyph glyph-name="ae" unicode="&#xe6;" horiz-adv-x="1036" 
d="M587 211c15 -76 75 -132 149 -132c43 0 80 18 107 50h118c-41 -83 -124 -139 -223 -139c-68 0 -130 26 -175 69v-59h-97v60s-50 -69 -160 -69c-143 0 -259 116 -259 257c0 144 116 258 259 258c110 0 160 -69 160 -69v63h97v-60c45 43 107 69 175 69
c143 0 252 -117 252 -260c0 -13 -1 -26 -3 -38h-400zM880 292c-16 72 -72 125 -144 125s-130 -53 -147 -125h291zM308 78c87 0 156 76 156 168c0 93 -69 170 -156 170s-156 -77 -156 -170c0 -92 69 -168 156 -168z" />
    <glyph glyph-name="b" unicode="b" horiz-adv-x="650" 
d="M189 770l-96 -30v-740h96v58s60 -67 160 -67c143 0 258 116 258 257c0 143 -115 258 -258 258c-100 0 -160 -64 -160 -64v328zM347 78c-84 0 -154 77 -154 168c0 94 70 169 154 169c86 0 156 -75 156 -169c0 -91 -70 -168 -156 -168z" />
    <glyph glyph-name="c" unicode="c" horiz-adv-x="580" 
d="M430 352c-25 41 -66 66 -115 66c-87 0 -156 -76 -156 -168c0 -94 69 -169 156 -169c52 0 94 29 119 72h109c-35 -94 -119 -160 -227 -160c-142 0 -259 116 -259 258c0 143 117 258 259 258c106 0 190 -65 226 -157h-112z" />
    <glyph glyph-name="cacute" unicode="&#x107;" horiz-adv-x="580" 
d="M359 602h-80l96 144h105zM430 352c-25 41 -66 66 -115 66c-87 0 -156 -76 -156 -168c0 -94 69 -169 156 -169c52 0 94 29 119 72h109c-35 -94 -119 -160 -227 -160c-142 0 -259 116 -259 258c0 143 117 258 259 258c106 0 190 -65 226 -157h-112z" />
    <glyph glyph-name="ccaron" unicode="&#x10d;" horiz-adv-x="580" 
d="M249 602l-96 144h80l69 -82l68 82h80l-96 -144h-105zM543 153c-35 -94 -119 -160 -227 -160c-142 0 -259 116 -259 258c0 143 117 258 259 258c106 0 190 -65 226 -157h-112c-25 41 -66 66 -115 66c-87 0 -156 -76 -156 -168c0 -94 69 -169 156 -169c52 0 94 29 119 72
h109z" />
    <glyph glyph-name="ccedilla" unicode="&#xe7;" horiz-adv-x="580" 
d="M543 153c-33 -89 -110 -153 -209 -159l-11 -40h15c34 0 84 -24 83 -93c0 -54 -45 -90 -95 -90c-60 0 -87 48 -87 65l53 9c0 -8 13 -22 34 -22s40 14 40 39c1 22 -17 41 -38 41c-18 0 -31 -6 -41 -20l-34 16l28 96c-126 18 -224 126 -224 256c0 143 117 258 259 258
c106 0 190 -65 226 -157h-112c-25 41 -66 66 -115 66c-87 0 -156 -76 -156 -168c0 -94 69 -169 156 -169c52 0 94 29 119 72h109z" />
    <glyph glyph-name="cdotaccent" unicode="&#x10b;" horiz-adv-x="580" 
d="M315 604c35 0 67 29 67 64s-32 64 -67 64c-40 0 -69 -29 -69 -64s29 -64 69 -64zM430 352c-25 41 -66 66 -115 66c-87 0 -156 -76 -156 -168c0 -94 69 -169 156 -169c52 0 94 29 119 72h109c-35 -94 -119 -160 -227 -160c-142 0 -259 116 -259 258c0 143 117 258 259 258
c106 0 190 -65 226 -157h-112z" />
    <glyph glyph-name="d" unicode="d" horiz-adv-x="660" 
d="M485 0h97v770l-97 -30v-295s-40 61 -160 61c-143 0 -259 -114 -259 -258c0 -141 116 -257 259 -257c120 0 160 67 160 67v-58zM327 78c-87 0 -156 76 -156 168c0 93 69 170 156 170c86 0 154 -77 154 -170c0 -92 -68 -168 -154 -168z" />
    <glyph glyph-name="eth" unicode="&#xf0;" horiz-adv-x="654" 
d="M549 475c40 -104 35 -197 35 -197c0 -210 -133 -287 -259 -287c-143 0 -259 116 -259 257c0 144 116 258 259 258c99 0 129 -31 129 -31c-13 33 -34 77 -63 126l-93 -17v80l46 8c-19 28 -41 57 -65 84h108c19 -22 36 -44 51 -67l82 15v-80l-37 -7c28 -49 49 -98 66 -142z
M327 78c86 0 154 76 154 168c0 93 -68 170 -154 170c-87 0 -156 -77 -156 -170c0 -92 69 -168 156 -168z" />
    <glyph glyph-name="dcaron" unicode="&#x10f;" horiz-adv-x="660" 
d="M485 0h97v770l-97 -30v-295s-40 61 -160 61c-143 0 -259 -114 -259 -258c0 -141 116 -257 259 -257c120 0 160 67 160 67v-58zM678 602h-80l96 144h105zM327 78c-87 0 -156 76 -156 168c0 93 69 170 156 170c86 0 154 -77 154 -170c0 -92 -68 -168 -154 -168z" />
    <glyph glyph-name="dcroat" unicode="&#x111;" horiz-adv-x="660" 
d="M632 571h-50v-571h-97v58s-40 -67 -160 -67c-143 0 -259 116 -259 257c0 144 116 258 259 258c120 0 160 -61 160 -61v126h-105v80h105v89l97 30v-119h50v-80zM327 78c86 0 154 76 154 168c0 93 -68 170 -154 170c-87 0 -156 -77 -156 -170c0 -92 69 -168 156 -168z" />
    <glyph glyph-name="e" unicode="e" horiz-adv-x="610" 
d="M417 129c-27 -32 -64 -50 -107 -50c-74 0 -134 56 -149 132h400c2 12 3 25 3 38c0 143 -109 260 -252 260c-144 0 -256 -117 -256 -260c0 -142 112 -259 256 -259c99 0 182 56 223 139h-118zM163 292c17 72 75 125 147 125s128 -53 144 -125h-291z" />
    <glyph glyph-name="eacute" unicode="&#xe9;" horiz-adv-x="610" 
d="M364 602h-80l96 144h105zM417 129c-27 -32 -64 -50 -107 -50c-74 0 -134 56 -149 132h400c2 12 3 25 3 38c0 143 -109 260 -252 260c-144 0 -256 -117 -256 -260c0 -142 112 -259 256 -259c99 0 182 56 223 139h-118zM163 292c17 72 75 125 147 125s128 -53 144 -125
h-291z" />
    <glyph glyph-name="ecaron" unicode="&#x11b;" horiz-adv-x="610" 
d="M259 602l-96 144h80l69 -82l68 82h80l-96 -144h-105zM161 211c15 -76 75 -132 149 -132c43 0 80 18 107 50h118c-41 -83 -124 -139 -223 -139c-144 0 -256 117 -256 259c0 143 112 260 256 260c143 0 252 -117 252 -260c0 -13 -1 -26 -3 -38h-400zM454 292
c-16 72 -72 125 -144 125s-130 -53 -147 -125h291z" />
    <glyph glyph-name="ecircumflex" unicode="&#xea;" horiz-adv-x="610" 
d="M244 602h-80l96 144h105l96 -144h-80l-68 82zM161 211c15 -76 75 -132 149 -132c43 0 80 18 107 50h118c-41 -83 -124 -139 -223 -139c-144 0 -256 117 -256 259c0 143 112 260 256 260c143 0 252 -117 252 -260c0 -13 -1 -26 -3 -38h-400zM454 292
c-16 72 -72 125 -144 125s-130 -53 -147 -125h291z" />
    <glyph glyph-name="edieresis" unicode="&#xeb;" horiz-adv-x="610" 
d="M217 604c31 0 58 25 58 56c0 30 -27 56 -58 56c-35 0 -61 -26 -61 -56c0 -31 26 -56 61 -56zM411 604c31 0 58 25 58 56c0 30 -27 56 -58 56c-35 0 -60 -26 -60 -56c0 -31 25 -56 60 -56zM417 129c-27 -32 -64 -50 -107 -50c-74 0 -134 56 -149 132h400c2 12 3 25 3 38
c0 143 -109 260 -252 260c-144 0 -256 -117 -256 -260c0 -142 112 -259 256 -259c99 0 182 56 223 139h-118zM163 292c17 72 75 125 147 125s128 -53 144 -125h-291z" />
    <glyph glyph-name="edotaccent" unicode="&#x117;" horiz-adv-x="610" 
d="M313 604c35 0 67 29 67 64s-32 64 -67 64c-40 0 -69 -29 -69 -64s29 -64 69 -64zM417 129c-27 -32 -64 -50 -107 -50c-74 0 -134 56 -149 132h400c2 12 3 25 3 38c0 143 -109 260 -252 260c-144 0 -256 -117 -256 -260c0 -142 112 -259 256 -259c99 0 182 56 223 139
h-118zM163 292c17 72 75 125 147 125s128 -53 144 -125h-291z" />
    <glyph glyph-name="egrave" unicode="&#xe8;" horiz-adv-x="610" 
d="M261 746l96 -144h-80l-121 144h105zM417 129c-27 -32 -64 -50 -107 -50c-74 0 -134 56 -149 132h400c2 12 3 25 3 38c0 143 -109 260 -252 260c-144 0 -256 -117 -256 -260c0 -142 112 -259 256 -259c99 0 182 56 223 139h-118zM163 292c17 72 75 125 147 125
s128 -53 144 -125h-291z" />
    <glyph glyph-name="emacron" unicode="&#x113;" horiz-adv-x="610" 
d="M453 693v-67h-282v67h282zM417 129c-27 -32 -64 -50 -107 -50c-74 0 -134 56 -149 132h400c2 12 3 25 3 38c0 143 -109 260 -252 260c-144 0 -256 -117 -256 -260c0 -142 112 -259 256 -259c99 0 182 56 223 139h-118zM163 292c17 72 75 125 147 125s128 -53 144 -125
h-291z" />
    <glyph glyph-name="eogonek" unicode="&#x119;" horiz-adv-x="610" 
d="M161 211c15 -76 75 -132 149 -132c43 0 80 18 107 50h118c-36 -72 -103 -124 -185 -136c-23 -16 -73 -59 -73 -106c0 -26 23 -48 48 -48c27 0 49 22 49 48l58 -1c0 -58 -43 -100 -102 -100c-58 0 -111 42 -111 100s42 88 67 105c-131 14 -230 125 -230 258
c0 143 112 260 256 260c143 0 252 -117 252 -260c0 -13 -1 -26 -3 -38h-400zM454 292c-16 72 -72 125 -144 125s-130 -53 -147 -125h291z" />
    <glyph glyph-name="f" unicode="f" horiz-adv-x="410" 
d="M248 500h116v-92h-116v-408h-99v408h-89v92h89v111c0 101 81 183 181 183c27 0 54 -6 80 -17l-42 -86c-11 8 -24 11 -38 11c-45 0 -82 -38 -82 -90v-112z" />
    <glyph glyph-name="g" unicode="g" horiz-adv-x="620" 
d="M564 500v-492c0 -135 -115 -248 -257 -248c-82 0 -154 36 -202 93l87 55c30 -29 62 -57 113 -57c104 0 151 75 160 157v58s-57 -71 -158 -71c-143 0 -258 115 -258 257c0 143 115 259 258 259c101 0 158 -69 158 -69v58h99zM308 86c85 0 154 75 154 168
c0 92 -69 167 -154 167s-153 -75 -153 -167c0 -93 68 -168 153 -168z" />
    <glyph glyph-name="gbreve" unicode="&#x11f;" horiz-adv-x="620" 
d="M310 600c-85 0 -154 59 -154 146v2h69v-2c0 -51 36 -87 87 -87c50 0 86 36 86 87v2h68v-2c0 -87 -70 -146 -156 -146zM564 500v-492c0 -135 -115 -248 -257 -248c-82 0 -154 36 -202 93l87 55c30 -29 62 -57 113 -57c104 0 151 75 160 157v58s-57 -71 -158 -71
c-143 0 -258 115 -258 257c0 143 115 259 258 259c101 0 158 -69 158 -69v58h99zM308 86c85 0 154 75 154 168c0 92 -69 167 -154 167s-153 -75 -153 -167c0 -93 68 -168 153 -168z" />
    <glyph glyph-name="uni0123" unicode="&#x123;" horiz-adv-x="620" 
d="M369 602h-105l121 144h80zM564 500v-492c0 -135 -115 -248 -257 -248c-82 0 -154 36 -202 93l87 55c30 -29 62 -57 113 -57c104 0 151 75 160 157v58s-57 -71 -158 -71c-143 0 -258 115 -258 257c0 143 115 259 258 259c101 0 158 -69 158 -69v58h99zM308 86
c85 0 154 75 154 168c0 92 -69 167 -154 167s-153 -75 -153 -167c0 -93 68 -168 153 -168z" />
    <glyph glyph-name="gdotaccent" unicode="&#x121;" horiz-adv-x="620" 
d="M311 604c-40 0 -69 29 -69 64s29 64 69 64c35 0 67 -29 67 -64s-32 -64 -67 -64zM564 500v-492c0 -135 -115 -248 -257 -248c-82 0 -154 36 -202 93l87 55c30 -29 62 -57 113 -57c104 0 151 75 160 157v58s-57 -71 -158 -71c-143 0 -258 115 -258 257
c0 143 115 259 258 259c101 0 158 -69 158 -69v58h99zM308 86c85 0 154 75 154 168c0 92 -69 167 -154 167s-153 -75 -153 -167c0 -93 68 -168 153 -168z" />
    <glyph glyph-name="h" unicode="h" horiz-adv-x="570" 
d="M306 510c92 0 208 -48 208 -225v-285h-99v285c0 93 -69 123 -109 123c-72 0 -139 -34 -139 -133v-275h-101v740l101 30v-316c25 34 70 56 139 56z" />
    <glyph glyph-name="hbar" unicode="&#x127;" horiz-adv-x="570" 
d="M306 510c92 0 208 -48 208 -225v-285h-99v285c0 93 -69 123 -109 123c-72 0 -139 -34 -139 -133v-275h-101v571h-64v80h64v89l101 30v-119h87v-80h-87v-117c25 34 70 56 139 56z" />
    <glyph glyph-name="i" unicode="i" horiz-adv-x="285" 
d="M142 635c37 0 68 29 68 65c0 35 -31 64 -68 64c-38 0 -68 -29 -68 -64c0 -36 30 -65 68 -65zM193 499h-99v-499h99v499z" />
    <glyph glyph-name="dotlessi" unicode="&#x131;" horiz-adv-x="285" 
d="M193 499h-99v-499h99v499z" />
    <glyph glyph-name="iacute" unicode="&#xed;" horiz-adv-x="285" 
d="M182 602h-70l96 144h95zM193 499h-99v-499h99v499z" />
    <glyph glyph-name="icircumflex" unicode="&#xee;" horiz-adv-x="285" 
d="M291 602h-80l-68 82l-69 -82h-80l96 144h105zM94 499h99v-499h-99v499z" />
    <glyph glyph-name="idieresis" unicode="&#xef;" horiz-adv-x="285" 
d="M47 604c31 0 58 25 58 56c0 30 -27 56 -58 56c-35 0 -61 -26 -61 -56c0 -31 26 -56 61 -56zM241 604c31 0 58 25 58 56c0 30 -27 56 -58 56c-35 0 -60 -26 -60 -56c0 -31 25 -56 60 -56zM193 499h-99v-499h99v499z" />
    <glyph glyph-name="i.loclTRK" horiz-adv-x="285" 
d="M143 604c35 0 67 29 67 64s-32 64 -67 64c-40 0 -69 -29 -69 -64s29 -64 69 -64zM193 499h-99v-499h99v499z" />
    <glyph glyph-name="igrave" unicode="&#xec;" horiz-adv-x="285" 
d="M81 746l96 -144h-80l-121 144h105zM193 499h-99v-499h99v499z" />
    <glyph glyph-name="imacron" unicode="&#x12b;" horiz-adv-x="278" 
d="M280 683v-67h-282v67h282zM193 499h-99v-499h99v499z" />
    <glyph glyph-name="iogonek" unicode="&#x12f;" horiz-adv-x="285" 
d="M145 604c-40 0 -69 29 -69 64s29 64 69 64c35 0 67 -29 67 -64s-32 -64 -67 -64zM259 -107c0 -58 -47 -99 -106 -99c-58 0 -107 41 -107 99c0 60 45 90 69 107h-21v499h99v-499h-16c-23 -16 -73 -59 -73 -106c0 -26 23 -48 48 -48c27 0 49 22 49 48z" />
    <glyph glyph-name="j" unicode="j" horiz-adv-x="250" 
d="M142 635c-38 0 -68 29 -68 65c0 35 30 64 68 64c37 0 68 -29 68 -64c0 -36 -31 -65 -68 -65zM95 500h98v-570c-1 -93 -73 -170 -173 -170c-26 0 -47 7 -70 18l34 84c10 -6 22 -10 36 -10c42 0 75 32 75 78v570z" />
    <glyph glyph-name="k" unicode="k" horiz-adv-x="542" 
d="M532 0l-217 291l210 216h-127l-173 -175h-44v438l-99 -30v-740h99v244h44l182 -244h125z" />
    <glyph glyph-name="uni0137" unicode="&#x137;" horiz-adv-x="542" 
d="M532 0l-217 291l210 216h-127l-173 -175h-44v438l-99 -30v-740h99v244h44l182 -244h125zM268 -216h-58l29 155h84z" />
    <glyph glyph-name="l" unicode="l" horiz-adv-x="292" 
d="M180 144c0 -46 26 -60 68 -60v-100c-109 0 -168 47 -168 160v596l100 30v-626z" />
    <glyph glyph-name="lacute" unicode="&#x13a;" horiz-adv-x="292" 
d="M182 800h-80l96 144h105zM180 144c0 -46 26 -60 68 -60v-100c-109 0 -168 47 -168 160v596l100 30v-626z" />
    <glyph glyph-name="lcaron" unicode="&#x13e;" horiz-adv-x="292" 
d="M180 144c0 -46 26 -60 68 -60v-100c-109 0 -168 47 -168 160v596l100 30v-626zM411 746l-121 -144h-80l96 144h105z" />
    <glyph glyph-name="uni013C" unicode="&#x13c;" horiz-adv-x="292" 
d="M180 144c0 -46 26 -60 68 -60v-100c-109 0 -168 47 -168 160v596l100 30v-626zM119 -61h84l-55 -155h-58z" />
    <glyph glyph-name="lslash" unicode="&#x142;" horiz-adv-x="292" 
d="M180 144c0 -46 26 -60 68 -60v-100c-109 0 -168 47 -168 160v154l-54 -20v67l54 20v375l100 30v-369l62 22v-67l-62 -22v-190z" />
    <glyph glyph-name="m" unicode="m" horiz-adv-x="910" 
d="M663 510c92 0 208 -48 208 -225v-285h-99v285c0 93 -69 123 -109 123c-72 0 -139 -34 -139 -133v-275h-99v285c0 93 -69 123 -109 123c-72 0 -139 -34 -139 -133v-275h-99v500h99v-46c25 34 70 56 139 56c60 0 130 -20 172 -83c20 49 82 83 175 83z" />
    <glyph glyph-name="n" unicode="n" horiz-adv-x="570" 
d="M316 510c92 0 208 -48 208 -225v-285h-99v285c0 93 -69 123 -109 123c-72 0 -139 -34 -139 -133v-275h-99v500h99v-46c25 34 70 56 139 56z" />
    <glyph glyph-name="nacute" unicode="&#x144;" horiz-adv-x="570" 
d="M354 602h-80l96 144h105zM316 510c92 0 208 -48 208 -225v-285h-99v285c0 93 -69 123 -109 123c-72 0 -139 -34 -139 -133v-275h-99v500h99v-46c25 34 70 56 139 56z" />
    <glyph glyph-name="ncaron" unicode="&#x148;" horiz-adv-x="570" 
d="M264 602l-96 144h80l69 -82l68 82h80l-96 -144h-105zM316 510c92 0 208 -48 208 -225v-285h-99v285c0 93 -69 123 -109 123c-72 0 -139 -34 -139 -133v-275h-99v500h99v-46c25 34 70 56 139 56z" />
    <glyph glyph-name="uni0146" unicode="&#x146;" horiz-adv-x="570" 
d="M316 510c92 0 208 -48 208 -225v-285h-99v285c0 93 -69 123 -109 123c-72 0 -139 -34 -139 -133v-275h-99v500h99v-46c25 34 70 56 139 56zM259 -61h84l-55 -155h-58z" />
    <glyph glyph-name="eng" unicode="&#x14b;" horiz-adv-x="570" 
d="M316 510c92 0 208 -48 208 -225v-285c-1 -93 -72 -170 -174 -170v92c42 0 75 32 75 78v285c0 93 -69 123 -109 123c-72 0 -139 -34 -139 -133v-275h-99v500h99v-46c25 34 70 56 139 56z" />
    <glyph glyph-name="ntilde" unicode="&#xf1;" horiz-adv-x="570" 
d="M239 661c-23 0 -38 -12 -38 -55h-60c0 76 33 126 94 126c44 0 129 -58 160 -58c24 0 34 12 34 54h60c0 -77 -35 -127 -94 -127c-47 0 -126 60 -156 60zM316 510c92 0 208 -48 208 -225v-285h-99v285c0 93 -69 123 -109 123c-72 0 -139 -34 -139 -133v-275h-99v500h99v-46
c25 34 70 56 139 56z" />
    <glyph glyph-name="o" unicode="o" horiz-adv-x="610" 
d="M310 -6c142 0 256 115 256 257s-114 256 -256 256s-257 -114 -257 -256s115 -257 257 -257zM308 81c-86 0 -154 75 -154 168c0 92 68 168 154 168c85 0 154 -76 154 -168c0 -93 -69 -168 -154 -168z" />
    <glyph glyph-name="oacute" unicode="&#xf3;" horiz-adv-x="610" 
d="M354 600h-80l96 144h105zM310 -6c142 0 256 115 256 257s-114 256 -256 256s-257 -114 -257 -256s115 -257 257 -257zM308 81c-86 0 -154 75 -154 168c0 92 68 168 154 168c85 0 154 -76 154 -168c0 -93 -69 -168 -154 -168z" />
    <glyph glyph-name="ocircumflex" unicode="&#xf4;" horiz-adv-x="610" 
d="M242 602h-80l96 144h105l96 -144h-80l-68 82zM310 507c142 0 256 -114 256 -256s-114 -257 -256 -257s-257 115 -257 257s115 256 257 256zM308 81c85 0 154 75 154 168c0 92 -69 168 -154 168c-86 0 -154 -76 -154 -168c0 -93 68 -168 154 -168z" />
    <glyph glyph-name="odieresis" unicode="&#xf6;" horiz-adv-x="610" 
d="M214 604c31 0 58 25 58 56c0 30 -27 56 -58 56c-35 0 -61 -26 -61 -56c0 -31 26 -56 61 -56zM408 604c31 0 58 25 58 56c0 30 -27 56 -58 56c-35 0 -60 -26 -60 -56c0 -31 25 -56 60 -56zM310 -6c142 0 256 115 256 257s-114 256 -256 256s-257 -114 -257 -256
s115 -257 257 -257zM308 81c-86 0 -154 75 -154 168c0 92 68 168 154 168c85 0 154 -76 154 -168c0 -93 -69 -168 -154 -168z" />
    <glyph glyph-name="ograve" unicode="&#xf2;" horiz-adv-x="610" 
d="M258 746l96 -144h-80l-121 144h105zM310 -6c142 0 256 115 256 257s-114 256 -256 256s-257 -114 -257 -256s115 -257 257 -257zM308 81c-86 0 -154 75 -154 168c0 92 68 168 154 168c85 0 154 -76 154 -168c0 -93 -69 -168 -154 -168z" />
    <glyph glyph-name="ohungarumlaut" unicode="&#x151;" horiz-adv-x="610" 
d="M285 602h-80l96 144h105zM440 602h-80l96 144h105zM310 -6c142 0 256 115 256 257s-114 256 -256 256s-257 -114 -257 -256s115 -257 257 -257zM308 81c-86 0 -154 75 -154 168c0 92 68 168 154 168c85 0 154 -76 154 -168c0 -93 -69 -168 -154 -168z" />
    <glyph glyph-name="omacron" unicode="&#x14d;" horiz-adv-x="610" 
d="M451 693v-67h-282v67h282zM310 -6c142 0 256 115 256 257s-114 256 -256 256s-257 -114 -257 -256s115 -257 257 -257zM308 81c-86 0 -154 75 -154 168c0 92 68 168 154 168c85 0 154 -76 154 -168c0 -93 -69 -168 -154 -168z" />
    <glyph glyph-name="oslash" unicode="&#xf8;" horiz-adv-x="610" 
d="M506 416c38 -45 60 -102 60 -165c0 -142 -114 -257 -256 -257c-53 0 -103 16 -144 44l-42 -47h-93l84 93c-39 45 -62 103 -62 167c0 142 115 256 257 256c54 0 104 -16 145 -45l41 46h93zM154 249c0 -34 9 -66 25 -93l211 235c-23 16 -52 26 -82 26
c-86 0 -154 -76 -154 -168zM462 249c0 33 -9 64 -24 91l-211 -234c24 -16 51 -25 81 -25c85 0 154 75 154 168z" />
    <glyph glyph-name="otilde" unicode="&#xf5;" horiz-adv-x="610" 
d="M196 606c0 43 15 55 38 55c30 0 109 -60 156 -60c59 0 94 50 94 127h-60c0 -42 -10 -54 -34 -54c-31 0 -116 58 -160 58c-61 0 -94 -50 -94 -126h60zM310 -6c142 0 256 115 256 257s-114 256 -256 256s-257 -114 -257 -256s115 -257 257 -257zM308 81
c-86 0 -154 75 -154 168c0 92 68 168 154 168c85 0 154 -76 154 -168c0 -93 -69 -168 -154 -168z" />
    <glyph glyph-name="oe" unicode="&#x153;" horiz-adv-x="1049" 
d="M600 211c15 -76 75 -132 149 -132c43 0 80 18 107 50h118c-41 -83 -124 -139 -223 -139c-96 0 -178 52 -221 128c-45 -74 -126 -124 -220 -124c-142 0 -257 115 -257 257s115 256 257 256c94 0 176 -50 220 -125c45 76 126 127 221 127c143 0 252 -117 252 -260
c0 -13 -1 -26 -3 -38h-400zM308 81c85 0 154 75 154 168c0 92 -69 168 -154 168c-86 0 -154 -76 -154 -168c0 -93 68 -168 154 -168zM893 292c-16 72 -72 125 -144 125s-130 -53 -147 -125h291z" />
    <glyph glyph-name="p" unicode="p" horiz-adv-x="619" 
d="M167 -240l-94 30v710h94v-58s59 65 160 65c142 0 257 -115 257 -257s-115 -257 -257 -257c-101 0 -160 66 -160 66v-299zM325 418c-85 0 -154 -81 -154 -166s69 -166 154 -166c86 0 155 81 155 166s-69 166 -155 166z" />
    <glyph glyph-name="thorn" unicode="&#xfe;" 
d="M167 -240l-94 30v910l94 30v-288s59 65 160 65c142 0 257 -115 257 -257s-115 -257 -257 -257c-101 0 -160 66 -160 66v-299zM325 418c-85 0 -154 -81 -154 -166s69 -166 154 -166c86 0 155 81 155 166s-69 166 -155 166z" />
    <glyph glyph-name="q" unicode="q" horiz-adv-x="620" 
d="M455 -240l96 30v710h-96v-58s-58 65 -159 65c-141 0 -256 -115 -256 -256c0 -142 115 -257 256 -257c101 0 159 66 159 66v-300zM298 420c85 0 155 -75 155 -168c0 -91 -70 -166 -155 -166c-86 0 -153 75 -153 166c0 93 67 168 153 168z" />
    <glyph glyph-name="r" unicode="r" horiz-adv-x="437" 
d="M316 510c14 0 28 -1 42 -3v-104c-15 4 -30 5 -42 5c-72 0 -139 -34 -139 -133v-275h-99v500h99v-46c25 34 70 56 139 56z" />
    <glyph glyph-name="racute" unicode="&#x155;" horiz-adv-x="437" 
d="M257 602h-80l96 144h105zM177 454c25 34 70 56 139 56c14 0 28 -1 42 -3v-104c-15 4 -30 5 -42 5c-72 0 -139 -34 -139 -133v-275h-99v500h99v-46z" />
    <glyph glyph-name="rcaron" unicode="&#x159;" horiz-adv-x="437" 
d="M179 602l-96 144h80l69 -82l68 82h80l-96 -144h-105zM177 454c25 34 70 56 139 56c14 0 28 -1 42 -3v-104c-15 4 -30 5 -42 5c-72 0 -139 -34 -139 -133v-275h-99v500h99v-46z" />
    <glyph glyph-name="uni0157" unicode="&#x157;" horiz-adv-x="437" 
d="M316 510c14 0 28 -1 42 -3v-104c-15 4 -30 5 -42 5c-72 0 -139 -34 -139 -133v-275h-99v500h99v-46c25 34 70 56 139 56zM75 -61h84l-55 -155h-58z" />
    <glyph glyph-name="s" unicode="s" horiz-adv-x="471" 
d="M267 303c90 -18 160 -71 160 -155c0 -92 -82 -157 -185 -157s-198 67 -198 159h104c0 -35 38 -72 94 -72c57 0 87 34 87 69c0 29 -20 62 -62 71l-67 16c-75 20 -127 68 -127 137c0 79 59 140 156 140c102 0 159 -53 169 -122h-100c0 24 -34 39 -69 39
c-43 0 -62 -25 -62 -56c0 -23 5 -43 33 -52c19 -6 39 -11 67 -17z" />
    <glyph glyph-name="sacute" unicode="&#x15b;" horiz-adv-x="471" 
d="M280 602h-80l96 144h105zM267 303c90 -18 160 -71 160 -155c0 -92 -82 -157 -185 -157s-198 67 -198 159h104c0 -35 38 -72 94 -72c57 0 87 34 87 69c0 29 -20 62 -62 71l-67 16c-75 20 -127 68 -127 137c0 79 59 140 156 140c102 0 159 -53 169 -122h-100
c0 24 -34 39 -69 39c-43 0 -62 -25 -62 -56c0 -23 5 -43 33 -52c19 -6 39 -11 67 -17z" />
    <glyph glyph-name="scaron" unicode="&#x161;" horiz-adv-x="471" 
d="M177 602l-96 144h80l69 -82l68 82h80l-96 -144h-105zM267 303c90 -18 160 -71 160 -155c0 -92 -82 -157 -185 -157s-198 67 -198 159h104c0 -35 38 -72 94 -72c57 0 87 34 87 69c0 29 -20 62 -62 71l-67 16c-75 20 -127 68 -127 137c0 79 59 140 156 140
c102 0 159 -53 169 -122h-100c0 24 -34 39 -69 39c-43 0 -62 -25 -62 -56c0 -23 5 -43 33 -52c19 -6 39 -11 67 -17z" />
    <glyph glyph-name="scedilla" unicode="&#x15f;" horiz-adv-x="471" 
d="M427 148c0 -84 -68 -145 -158 -155l-11 -41h15c32 0 80 -23 79 -89c0 -51 -43 -85 -91 -85c-57 0 -83 45 -83 62l51 8c0 -7 12 -21 32 -21s38 14 38 37c1 21 -16 39 -36 39c-17 0 -29 -5 -39 -19l-32 16l26 92c-93 9 -174 73 -174 158h104c0 -35 38 -72 94 -72
c57 0 87 34 87 69c0 29 -20 62 -62 71l-67 16c-75 20 -127 68 -127 137c0 79 59 140 156 140c102 0 159 -53 169 -122h-100c0 24 -34 39 -69 39c-43 0 -62 -25 -62 -56c0 -23 5 -43 33 -52c19 -6 39 -11 67 -17c90 -18 160 -71 160 -155z" />
    <glyph glyph-name="uni0219" unicode="&#x219;" horiz-adv-x="471" 
d="M267 303c90 -18 160 -71 160 -155c0 -92 -82 -157 -185 -157s-198 67 -198 159h104c0 -35 38 -72 94 -72c57 0 87 34 87 69c0 29 -20 62 -62 71l-67 16c-75 20 -127 68 -127 137c0 79 59 140 156 140c102 0 159 -53 169 -122h-100c0 24 -34 39 -69 39
c-43 0 -62 -25 -62 -56c0 -23 5 -43 33 -52c19 -6 39 -11 67 -17zM201 -61h84l-55 -155h-58z" />
    <glyph glyph-name="germandbls" unicode="&#xdf;" horiz-adv-x="520" 
d="M60 0h95v511c0 59 43 107 105 107c61 0 107 -43 107 -100c0 -56 -46 -89 -107 -89h-26v-85h26c75 0 135 -63 135 -135c0 -70 -60 -125 -135 -125c-5 0 -51 0 -55 1v-89c4 -1 50 -1 55 -1c126 0 230 95 230 214c0 130 -92 182 -92 182s63 38 63 127
c0 106 -90 189 -201 189c-102 0 -200 -71 -200 -166v-541z" />
    <glyph glyph-name="t" unicode="t" horiz-adv-x="403" 
d="M247 408v-264c0 -46 27 -59 68 -59v-100c-109 0 -166 46 -166 159v264h-89v92h89v188l98 30v-218h116v-92h-116z" />
    <glyph glyph-name="tbar" unicode="&#x167;" horiz-adv-x="403" 
d="M247 408v-89h106v-80h-106v-95c0 -46 27 -59 68 -59v-100c-109 0 -166 46 -166 159v95h-79v80h79v89h-89v92h89v188l98 30v-218h116v-92h-116z" />
    <glyph glyph-name="tcaron" unicode="&#x165;" horiz-adv-x="403" 
d="M485 746l-121 -144h-80l96 144h105zM247 500h116v-92h-116v-264c0 -46 27 -59 68 -59v-100c-109 0 -166 46 -166 159v264h-89v92h89v188l98 30v-218z" />
    <glyph glyph-name="uni0163" unicode="&#x163;" horiz-adv-x="403" 
d="M247 408v-264c0 -46 27 -59 68 -59v-100c-16 0 -32 1 -46 3l-10 -36h15c32 0 80 -23 79 -89c0 -51 -43 -85 -91 -85c-57 0 -83 45 -83 62l51 8c0 -7 12 -21 32 -21s38 14 38 37c1 21 -16 39 -36 39c-17 0 -29 -5 -39 -19l-32 16l29 102c-48 22 -73 67 -73 142v264h-89v92
h89v188l98 30v-218h116v-92h-116z" />
    <glyph glyph-name="uni021B" unicode="&#x21b;" horiz-adv-x="403" 
d="M247 408v-264c0 -46 27 -59 68 -59v-100c-109 0 -166 46 -166 159v264h-89v92h89v188l98 30v-218h116v-92h-116zM189 -61h84l-55 -155h-58z" />
    <glyph glyph-name="u" unicode="u" horiz-adv-x="546" 
d="M496 510v-500h-99v46c-25 -34 -70 -56 -139 -56c-92 0 -208 48 -208 225v285h99v-285c0 -93 69 -123 109 -123c72 0 139 34 139 133v275h99z" />
    <glyph glyph-name="uacute" unicode="&#xfa;" horiz-adv-x="546" 
d="M313 602h-80l96 144h105zM496 510v-500h-99v46c-25 -34 -70 -56 -139 -56c-92 0 -208 48 -208 225v285h99v-285c0 -93 69 -123 109 -123c72 0 139 34 139 133v275h99z" />
    <glyph glyph-name="ucircumflex" unicode="&#xfb;" horiz-adv-x="546" 
d="M202 602h-80l96 144h105l96 -144h-80l-68 82zM496 510v-500h-99v46c-25 -34 -70 -56 -139 -56c-92 0 -208 48 -208 225v285h99v-285c0 -93 69 -123 109 -123c72 0 139 34 139 133v275h99z" />
    <glyph glyph-name="udieresis" unicode="&#xfc;" horiz-adv-x="546" 
d="M175 604c-35 0 -61 25 -61 56c0 30 26 56 61 56c31 0 58 -26 58 -56c0 -31 -27 -56 -58 -56zM369 604c-35 0 -60 25 -60 56c0 30 25 56 60 56c31 0 58 -26 58 -56c0 -31 -27 -56 -58 -56zM496 510v-500h-99v46c-25 -34 -70 -56 -139 -56c-92 0 -208 48 -208 225v285h99
v-285c0 -93 69 -123 109 -123c72 0 139 34 139 133v275h99z" />
    <glyph glyph-name="ugrave" unicode="&#xf9;" horiz-adv-x="546" 
d="M229 602l-121 144h105l96 -144h-80zM496 510v-500h-99v46c-25 -34 -70 -56 -139 -56c-92 0 -208 48 -208 225v285h99v-285c0 -93 69 -123 109 -123c72 0 139 34 139 133v275h99z" />
    <glyph glyph-name="uhungarumlaut" unicode="&#x171;" horiz-adv-x="546" 
d="M231 602h-80l96 144h105zM306 602l96 144h105l-121 -144h-80zM397 510h99v-500h-99v46c-25 -34 -70 -56 -139 -56c-92 0 -208 48 -208 225v285h99v-285c0 -93 69 -123 109 -123c72 0 139 34 139 133v275z" />
    <glyph glyph-name="umacron" unicode="&#x16b;" horiz-adv-x="546" 
d="M411 626h-282v67h282v-67zM496 510v-500h-99v46c-25 -34 -70 -56 -139 -56c-92 0 -208 48 -208 225v285h99v-285c0 -93 69 -123 109 -123c72 0 139 34 139 133v275h99z" />
    <glyph glyph-name="uogonek" unicode="&#x173;" horiz-adv-x="546" 
d="M496 510v-500h-99v46c-20 -28 -55 -48 -105 -54h2c-23 -16 -73 -59 -73 -106c0 -26 23 -48 48 -48c27 0 49 22 49 48l58 -1c0 -58 -47 -99 -106 -99c-58 0 -107 41 -107 99c0 59 44 89 68 106c-86 9 -181 64 -181 224v285h99v-285c0 -93 69 -123 109 -123
c72 0 139 34 139 133v275h99z" />
    <glyph glyph-name="uring" unicode="&#x16f;" horiz-adv-x="546" 
d="M267 574c-51 0 -92 41 -92 93c0 50 41 92 92 92s93 -42 93 -92c0 -52 -42 -93 -93 -93zM268 712c-25 0 -46 -21 -46 -45c0 -25 21 -46 46 -46c24 0 45 21 45 46c0 24 -21 45 -45 45zM496 510v-500h-99v46c-25 -34 -70 -56 -139 -56c-92 0 -208 48 -208 225v285h99v-285
c0 -93 69 -123 109 -123c72 0 139 34 139 133v275h99z" />
    <glyph glyph-name="v" unicode="v" horiz-adv-x="540" 
d="M123 500l144 -310l146 310h103l-236 -509h-25l-235 509h103z" />
    <glyph glyph-name="w" unicode="w" horiz-adv-x="810" 
d="M697 500h103l-235 -510h-24l-135 298l-136 -298h-24l-236 510h103l145 -311l138 311h20l136 -310z" />
    <glyph glyph-name="wacute" unicode="&#x1e83;" horiz-adv-x="810" 
d="M447 602h-80l96 144h105zM697 500h103l-235 -510h-24l-135 298l-136 -298h-24l-236 510h103l145 -311l138 311h20l136 -310z" />
    <glyph glyph-name="wcircumflex" unicode="&#x175;" horiz-adv-x="810" 
d="M337 602h-80l96 144h105l96 -144h-80l-68 82zM800 500l-235 -510h-24l-135 298l-136 -298h-24l-236 510h103l145 -311l138 311h20l136 -310l145 310h103z" />
    <glyph glyph-name="wdieresis" unicode="&#x1e85;" horiz-adv-x="810" 
d="M311 604c31 0 58 25 58 56c0 30 -27 56 -58 56c-35 0 -61 -26 -61 -56c0 -31 26 -56 61 -56zM505 604c31 0 58 25 58 56c0 30 -27 56 -58 56c-35 0 -60 -26 -60 -56c0 -31 25 -56 60 -56zM697 500h103l-235 -510h-24l-135 298l-136 -298h-24l-236 510h103l145 -311
l138 311h20l136 -310z" />
    <glyph glyph-name="wgrave" unicode="&#x1e81;" horiz-adv-x="810" 
d="M344 746l96 -144h-80l-121 144h105zM697 500h103l-235 -510h-24l-135 298l-136 -298h-24l-236 510h103l145 -311l138 311h20l136 -310z" />
    <glyph glyph-name="x" unicode="x" horiz-adv-x="546" 
d="M397 500h119l-184 -237l204 -263h-118l-145 185l-145 -185h-118l202 263l-182 237h119l125 -161z" />
    <glyph glyph-name="y" unicode="y" horiz-adv-x="513" 
d="M415 502h108l-344 -742h-108l161 347l-222 395h111l161 -287z" />
    <glyph glyph-name="yacute" unicode="&#xfd;" horiz-adv-x="513" 
d="M318 602h-80l96 144h105zM415 502h108l-344 -742h-108l161 347l-222 395h111l161 -287z" />
    <glyph glyph-name="ycircumflex" unicode="&#x177;" horiz-adv-x="513" 
d="M198 602h-80l96 144h105l96 -144h-80l-68 82zM523 502l-344 -742h-108l161 347l-222 395h111l161 -287l133 287h108z" />
    <glyph glyph-name="ydieresis" unicode="&#xff;" horiz-adv-x="513" 
d="M175 604c31 0 58 25 58 56c0 30 -27 56 -58 56c-35 0 -61 -26 -61 -56c0 -31 26 -56 61 -56zM369 604c31 0 58 25 58 56c0 30 -27 56 -58 56c-35 0 -60 -26 -60 -56c0 -31 25 -56 60 -56zM415 502h108l-344 -742h-108l161 347l-222 395h111l161 -287z" />
    <glyph glyph-name="ygrave" unicode="&#x1ef3;" horiz-adv-x="513" 
d="M206 746l96 -144h-80l-121 144h105zM415 502h108l-344 -742h-108l161 347l-222 395h111l161 -287z" />
    <glyph glyph-name="z" unicode="z" horiz-adv-x="560" 
d="M516 479l-12 -15l-279 -372h293v-91h-362v-1h-112v20l54 71l239 317h-263v92h442v-21z" />
    <glyph glyph-name="zacute" unicode="&#x17a;" horiz-adv-x="560" 
d="M334 602h-80l96 144h105zM516 479l-12 -15l-279 -372h293v-91h-362v-1h-112v20l54 71l239 317h-263v92h442v-21z" />
    <glyph glyph-name="zcaron" unicode="&#x17e;" horiz-adv-x="560" 
d="M232 602l-96 144h80l69 -82l68 82h80l-96 -144h-105zM518 92v-91h-362v-1h-112v20l54 71l239 317h-263v92h442v-21l-12 -15l-279 -372h293z" />
    <glyph glyph-name="zdotaccent" unicode="&#x17c;" horiz-adv-x="560" 
d="M300 604c35 0 67 29 67 64s-32 64 -67 64c-40 0 -69 -29 -69 -64s29 -64 69 -64zM516 479l-12 -15l-279 -372h293v-91h-362v-1h-112v20l54 71l239 317h-263v92h442v-21z" />
    <glyph glyph-name="zero" unicode="0" horiz-adv-x="601" 
d="M301 -10c150 0 265 165 265 365s-115 361 -265 361s-266 -161 -266 -361s116 -365 266 -365zM301 83c-100 0 -163 111 -163 272c0 159 63 269 163 269s163 -110 163 -269c0 -161 -63 -272 -163 -272z" />
    <glyph glyph-name="one" unicode="1" horiz-adv-x="375" 
d="M207 592l-137 -32v96l235 59v-715h-98v592z" />
    <glyph glyph-name="two" unicode="2" horiz-adv-x="602" 
d="M76 31l326 391s42 46 42 92c0 64 -26 110 -109 110c-44 0 -126 -12 -126 -150h-98c0 183 136 242 219 242c133 0 212 -83 212 -202c0 -71 -58 -144 -58 -144l-228 -278h302v-92h-482v31z" />
    <glyph glyph-name="three" unicode="3" horiz-adv-x="570" 
d="M163 211c0 -47 31 -123 117 -123c90 0 127 79 127 133c0 88 -52 117 -131 117v84c79 0 112 52 111 114c-1 47 -36 90 -87 90c-97 0 -107 -71 -109 -111h-90c0 90 34 199 199 199c107 0 180 -79 180 -175c0 -116 -75 -153 -75 -153s95 -37 95 -165
c0 -139 -81 -221 -220 -221c-130 0 -207 81 -207 211h90z" />
    <glyph glyph-name="four" unicode="4" horiz-adv-x="592" 
d="M550 138h-98v-138h-96v139l-334 1v29l407 547h23v-487h98v-91zM356 229v238l-176 -238h176z" />
    <glyph glyph-name="five" unicode="5" horiz-adv-x="580" 
d="M168 700h339v-84h-261l-40 -166s24 29 108 29c89 0 225 -62 221 -246c0 -145 -119 -240 -253 -240c-158 0 -232 127 -232 172h98c0 -27 53 -84 134 -84s155 60 155 152c4 87 -53 158 -136 158c-68 0 -133 -20 -173 -77l-40 21z" />
    <glyph glyph-name="six" unicode="6" horiz-adv-x="564" 
d="M84 323c-23 -34 -34 -76 -34 -119c0 -121 100 -218 222 -218s222 97 222 218s-118 231 -239 203l210 293h-104zM272 334c71 0 129 -56 129 -130s-58 -130 -129 -130s-129 56 -129 130c0 72 57 130 129 130z" />
    <glyph glyph-name="seven" unicode="7" horiz-adv-x="572" 
d="M420 608h-350v92h502l-336 -700h-110z" />
    <glyph glyph-name="eight" unicode="8" horiz-adv-x="563" 
d="M142 380c0 0 -92 -42 -92 -173c0 -121 105 -217 231 -217c127 0 232 96 232 217c0 131 -93 173 -93 173s64 49 64 139c0 107 -91 191 -203 191c-111 0 -203 -84 -203 -191c0 -95 64 -139 64 -139zM281 419c-60 0 -107 43 -107 100s47 101 107 101c61 0 108 -44 108 -101
s-47 -100 -108 -100zM281 80c-76 0 -136 56 -136 127c0 72 60 126 136 126s136 -54 136 -126c0 -71 -60 -127 -136 -127z" />
    <glyph glyph-name="nine" unicode="9" horiz-adv-x="570" 
d="M480 377c23 34 34 76 34 119c0 121 -100 218 -222 218s-222 -97 -222 -218s118 -231 239 -203l-210 -293h104zM292 366c-71 0 -129 56 -129 130s58 130 129 130s129 -56 129 -130c0 -72 -57 -130 -129 -130z" />
    <glyph glyph-name="period" unicode="." horiz-adv-x="236" 
d="M118 -5c37 0 68 29 68 65c0 35 -31 64 -68 64c-38 0 -68 -29 -68 -64c0 -36 30 -65 68 -65z" />
    <glyph glyph-name="comma" unicode="," horiz-adv-x="226" 
d="M115 -134h-75l46 243h100z" />
    <glyph glyph-name="colon" unicode=":" horiz-adv-x="238" 
d="M139 354c33 0 59 26 59 56s-26 56 -59 56s-59 -26 -59 -56s26 -56 59 -56zM139 45c33 0 59 26 59 56s-26 56 -59 56s-59 -26 -59 -56s26 -56 59 -56z" />
    <glyph glyph-name="semicolon" unicode=";" horiz-adv-x="261" 
d="M174 354c33 0 59 26 59 56s-26 56 -59 56s-59 -26 -59 -56s26 -56 59 -56zM152 -134h-75l46 243h100z" />
    <glyph glyph-name="ellipsis" unicode="&#x2026;" 
d="M118 124c37 0 68 -29 68 -64c0 -36 -31 -65 -68 -65c-38 0 -68 29 -68 65c0 35 30 64 68 64z" />
    <glyph glyph-name="exclam" unicode="!" horiz-adv-x="236" 
d="M166 698l-5 -500h-86l-5 500h96zM118 -5c37 0 68 29 68 65c0 35 -31 64 -68 64c-38 0 -68 -29 -68 -64c0 -36 30 -65 68 -65z" />
    <glyph glyph-name="exclamdown" unicode="&#xa1;" horiz-adv-x="236" 
d="M119 549c-37 0 -68 -29 -68 -65c0 -35 31 -64 68 -64c38 0 68 29 68 64c0 36 -30 65 -68 65zM70 -154l6 500h86l4 -500h-96z" />
    <glyph glyph-name="question" unicode="?" horiz-adv-x="477" 
d="M46 517c0 118 87 197 194 195c112 -4 191 -72 191 -183c0 -141 -198 -183 -198 -277v-54h-99v76c0 132 197 147 197 249c0 61 -27 104 -91 106c-62 0 -95 -38 -95 -112h-99zM189 -5c37 0 68 29 68 65c0 35 -31 64 -68 64c-38 0 -68 -29 -68 -64c0 -36 30 -65 68 -65z" />
    <glyph glyph-name="questiondown" unicode="&#xbf;" horiz-adv-x="477" 
d="M288 550c-37 0 -68 -29 -68 -65c0 -35 31 -64 68 -64c38 0 68 29 68 64c0 36 -30 65 -68 65zM431 28c0 -118 -87 -197 -194 -195c-112 4 -191 72 -191 183c0 141 198 183 198 277v54h99v-76c0 -132 -197 -147 -197 -249c0 -61 27 -104 91 -106c62 0 95 38 95 112h99z" />
    <glyph glyph-name="periodcentered" unicode="&#xb7;" 
d="M300 231c37 0 68 29 68 65c0 35 -31 64 -68 64c-38 0 -68 -29 -68 -64c0 -36 30 -65 68 -65z" />
    <glyph glyph-name="bullet" unicode="&#x2022;" horiz-adv-x="468" 
d="M234 128c84 0 154 66 154 147c0 80 -70 146 -154 146c-86 0 -154 -66 -154 -146c0 -81 68 -147 154 -147z" />
    <glyph glyph-name="asterisk" unicode="*" horiz-adv-x="422" 
d="M64 624l-24 -72l108 -36l-69 -95l63 -41l67 92l70 -92l60 41l-69 95l112 36l-28 72l-106 -36v117h-75l-3 -117z" />
    <glyph glyph-name="numbersign" unicode="#" horiz-adv-x="680" 
d="M501 439l-34 -166h173v-82h-190l-40 -191h-78l38 191h-144l-40 -191h-78l38 191h-106v82h122l33 166h-155v82h171l36 179h84l-37 -179h141l36 179h84l-37 -179h122v-82h-139zM419 439h-142l-34 -166h143z" />
    <glyph glyph-name="slash" unicode="/" horiz-adv-x="401" 
d="M361 706l-228 -851h-93l228 851h93z" />
    <glyph glyph-name="backslash" unicode="\" horiz-adv-x="401" 
d="M361 -145h-93l-228 851h93z" />
    <glyph glyph-name="parenleft" unicode="(" horiz-adv-x="324" 
d="M70 322c0 184 50 292 107 425l77 -31c-59 -123 -91 -281 -92 -394c1 -114 33 -259 92 -394l-77 -31c-57 134 -107 247 -107 425z" />
    <glyph glyph-name="parenright" unicode=")" horiz-adv-x="324" 
d="M254 322c0 -178 -50 -291 -107 -425l-77 31c59 135 91 280 92 394c-1 113 -33 271 -92 394l77 31c57 -133 107 -241 107 -425z" />
    <glyph glyph-name="braceleft" unicode="{" horiz-adv-x="367" 
d="M178 293c0 0 51 -24 51 -93v-203c0 -23 17 -36 31 -36h67v-75h-72c-78 0 -116 46 -116 111c0 13 4 211 -5 232c-7 21 -15 26 -26 26h-38v74h38c11 0 19 6 26 26c9 21 5 219 5 232c0 66 38 111 116 111h72v-74h-67c-14 0 -31 -14 -31 -37v-203c0 -65 -51 -91 -51 -91z" />
    <glyph glyph-name="braceright" unicode="}" horiz-adv-x="367" 
d="M189 293c0 0 -51 26 -51 91v203c0 23 -17 37 -31 37h-67v74h72c78 0 116 -45 116 -111c0 -13 -4 -211 5 -232c7 -20 15 -26 26 -26h38v-74h-38c-11 0 -19 -5 -26 -26c-9 -21 -5 -219 -5 -232c0 -65 -38 -111 -116 -111h-72v75h67c14 0 31 13 31 36v203c0 69 51 93 51 93z
" />
    <glyph glyph-name="bracketleft" unicode="[" horiz-adv-x="299" 
d="M163 -37h96v-83h-189v862h189v-80h-96v-699z" />
    <glyph glyph-name="bracketright" unicode="]" horiz-adv-x="299" 
d="M40 662v80h189v-862h-189v83h96v699h-96z" />
    <glyph glyph-name="hyphen" unicode="-" horiz-adv-x="460" 
d="M390 323v-80h-320v80h320z" />
    <glyph glyph-name="endash" unicode="&#x2013;" 
d="M549 327v-80h-498v80h498z" />
    <glyph glyph-name="emdash" unicode="&#x2014;" horiz-adv-x="1076" 
d="M1036 327v-80h-996v80h996z" />
    <glyph glyph-name="underscore" unicode="_" horiz-adv-x="568" 
d="M466 -51v-62h-396v62h396z" />
    <glyph glyph-name="quotedblleft" unicode="&#x201c;" horiz-adv-x="363" 
d="M111 702h65l-46 -243h-90zM258 702h65l-46 -243h-90z" />
    <glyph glyph-name="quotedblright" unicode="&#x201d;" horiz-adv-x="363" 
d="M105 459h-65l46 243h90zM252 459h-65l46 243h90z" />
    <glyph glyph-name="quoteleft" unicode="&#x2018;" horiz-adv-x="221" 
d="M111 702h70l-46 -243h-95z" />
    <glyph glyph-name="quoteright" unicode="&#x2019;" horiz-adv-x="181" 
d="M110 459h-70l46 243h95z" />
    <glyph glyph-name="quotedbl" unicode="&#x22;" horiz-adv-x="317" 
d="M40 702h90l-12 -243h-66zM277 702l-12 -243h-66l-12 243h90z" />
    <glyph glyph-name="quotesingle" unicode="'" horiz-adv-x="175" 
d="M122 459h-69l-13 243h95z" />
    <glyph glyph-name="space" unicode=" " horiz-adv-x="290" 
 />
    <glyph glyph-name="cent" unicode="&#xa2;" 
d="M548 256c-31 -83 -103 -149 -194 -164v-92h-76v92c-125 19 -226 131 -226 260c0 130 101 242 226 260v93h76v-93c89 -14 160 -77 193 -161h-120c-24 40 -64 65 -112 65c-86 0 -153 -75 -153 -165c0 -92 67 -166 153 -166c51 0 92 29 116 71h117z" />
    <glyph glyph-name="dollar" unicode="$" horiz-adv-x="611" 
d="M581 207c0 -118 -91 -208 -216 -220v-50h-76v53c-123 18 -219 107 -219 220h116c0 -39 42 -100 103 -119v241l-12 3c-88 19 -170 90 -170 186c0 101 75 181 182 193v68h76v-71c92 -18 165 -86 165 -165h-110c0 31 -22 57 -55 69v-197c1 -1 2 -1 2 -1
c127 -27 214 -88 214 -210zM280 440c0 0 3 -1 9 -2v181c-46 -14 -76 -59 -76 -96c0 -32 26 -73 67 -83zM365 89c72 15 107 71 107 111c0 63 -47 99 -105 113c-1 0 -1 0 -2 1v-225z" />
    <glyph glyph-name="Euro" unicode="&#x20ac;" horiz-adv-x="779" 
d="M448 83c76 0 161 42 188 114h120c-37 -122 -162 -207 -306 -207c-159 0 -294 104 -342 247h-88v75h72c-1 13 -2 26 -2 39c0 14 1 28 2 41h-72v75h89c48 142 182 244 341 244c146 0 272 -86 309 -211h-123c-28 72 -112 115 -188 115c-86 0 -178 -56 -221 -148h235v-75
h-258c-2 -14 -3 -28 -3 -43c0 -13 1 -25 2 -37h259v-75h-238c42 -96 135 -154 224 -154z" />
    <glyph glyph-name="sterling" unicode="&#xa3;" 
d="M565 90v-90h-519v90h70v195h-68v80h68v123c0 126 93 229 219 229c125 0 216 -101 218 -225h-95c-2 72 -50 132 -123 132c-69 0 -121 -62 -121 -136v-123h156v-80h-156v-195h351z" />
    <glyph glyph-name="yen" unicode="&#xa5;" horiz-adv-x="589" 
d="M390 347h84v-65h-106v-85h106v-65h-106v-132h-102v132h-108v65h108v85h-108v65h87l-205 353h110l168 -296l171 296h110z" />
    <glyph glyph-name="plus" unicode="+" 
d="M524 238h-182v-182h-84v182h-182v84h182v182h84v-182h182v-84z" />
    <glyph glyph-name="minus" unicode="&#x2212;" 
d="M524 329v-84h-448v84h448z" />
    <glyph glyph-name="equal" unicode="=" 
d="M524 425v-85h-448v85h448zM524 213v-85h-448v85h448z" />
    <glyph glyph-name="greater" unicode="&#x3e;" horiz-adv-x="579" 
d="M70 150l325 145l-325 146v103l439 -211v-75l-439 -213v105z" />
    <glyph glyph-name="less" unicode="&#x3c;" horiz-adv-x="579" 
d="M70 258v75l439 211v-103l-325 -146l325 -145v-105z" />
    <glyph glyph-name="asciitilde" unicode="~" 
d="M121 208c0 53 22 71 59 71c47 0 186 -94 244 -94c78 0 118 63 118 169h-65c0 -52 -14 -71 -52 -71c-49 0 -198 92 -252 92c-80 0 -117 -61 -117 -167h65z" />
    <glyph glyph-name="percent" unicode="%" horiz-adv-x="761" 
d="M110 13h95l445 693h-94zM192 387c-84 0 -152 68 -152 153c0 84 68 152 152 152c85 0 153 -68 153 -152c0 -85 -68 -153 -153 -153zM190 457c44 0 80 35 80 80c0 44 -36 80 -80 80c-45 0 -80 -36 -80 -80c0 -45 35 -80 80 -80zM568 27c-84 0 -152 68 -152 153
c0 84 68 152 152 152c85 0 153 -68 153 -152c0 -85 -68 -153 -153 -153zM566 97c44 0 80 35 80 80c0 44 -36 80 -80 80c-45 0 -80 -36 -80 -80c0 -45 35 -80 80 -80z" />
    <glyph glyph-name="at" unicode="@" horiz-adv-x="838" 
d="M426 -25c-172 0 -300 125 -300 301c0 177 130 311 301 311c177 0 290 -109 290 -280c0 -138 -116 -171 -116 -143v303h-83v-43c-28 28 -81 52 -114 52c-110 0 -203 -93 -203 -203c0 -109 93 -201 203 -201c48 0 99 25 119 65c0 -28 28 -65 95 -65c68 0 185 100 185 234
c0 209 -159 363 -374 363c-211 0 -394 -183 -394 -394c0 -212 182 -387 398 -385v85h-7zM293 271c0 67 50 123 111 123s111 -55 111 -123c0 -67 -49 -120 -111 -120c-61 0 -111 54 -111 120z" />
    <glyph glyph-name="ampersand" unicode="&#x26;" horiz-adv-x="611" 
d="M571 208h-58v-1c0 -121 -105 -217 -232 -217c-126 0 -231 96 -231 217c0 131 92 173 92 173s-64 44 -64 139c0 107 92 191 203 191c110 0 199 -80 203 -184h-95c-4 54 -50 94 -108 94c-60 0 -107 -44 -107 -101s47 -100 107 -100v-86c-76 0 -136 -54 -136 -126
c0 -71 60 -127 136 -127s136 56 136 127v1h-77v89h231v-89z" />
    <glyph glyph-name="paragraph" unicode="&#xb6;" 
d="M374 706v-813h-80v444c-148 0 -227 80 -227 184s79 185 227 185h80zM519 706v-813h-80v813h80z" />
    <glyph glyph-name="section" unicode="&#xa7;" horiz-adv-x="494" 
d="M325 236c60 -24 99 -68 99 -128c0 -79 -59 -140 -156 -140c-102 0 -159 53 -169 122h100c0 -24 34 -39 69 -39c43 0 62 25 62 56c0 23 -5 43 -33 52c-19 6 -39 11 -67 17c-90 18 -160 71 -160 155c0 60 38 100 99 117c-60 24 -99 68 -99 128c0 79 59 140 156 140
c102 0 159 -53 169 -122h-100c0 24 -34 39 -69 39c-43 0 -62 -25 -62 -56c0 -23 5 -43 33 -52c19 -6 39 -11 67 -17c90 -18 160 -71 160 -155c0 -60 -38 -100 -99 -117zM168 342c0 -29 20 -72 62 -81c67 -10 96 33 96 81c0 29 -20 72 -62 81c-77 10 -96 -33 -96 -81z" />
    <glyph glyph-name="copyright" unicode="&#xa9;" horiz-adv-x="757" 
d="M378 -67c-209 0 -378 169 -378 379c0 209 169 378 378 378c210 0 379 -169 379 -378c0 -210 -169 -379 -379 -379zM376 7c177 0 306 129 306 306s-129 306 -306 306s-306 -129 -306 -306s129 -306 306 -306zM384 104c-111 0 -203 91 -203 202c0 113 92 203 203 203
c84 0 150 -51 178 -123h-88c-20 32 -52 52 -90 52c-69 0 -123 -60 -123 -132c0 -74 54 -133 123 -133c40 0 73 23 93 56h86c-28 -73 -94 -125 -179 -125z" />
    <glyph glyph-name="registered" unicode="&#xae;" horiz-adv-x="837" 
d="M418 690c210 0 379 -169 379 -378c0 -210 -169 -379 -379 -379c-209 0 -378 169 -378 379c0 209 169 378 378 378zM416 7c177 0 306 129 306 306s-129 306 -306 306s-306 -129 -306 -306s129 -306 306 -306zM533 407c0 -66 -31 -98 -90 -117l154 -183h-73l-147 173h-21
v-173h-59v426h78c103 0 158 -54 158 -126zM375 337c84 0 97 37 97 69s-13 70 -97 70h-19v-139h19z" />
    <glyph glyph-name="trademark" unicode="&#x2122;" horiz-adv-x="819" 
d="M779 377h-57l-35 236l-117 -246h-19l-116 247l-36 -237h-57l52 432h20l146 -327l147 327h20zM314 744h-105v-367h-63v367h-106v56h274v-56z" />
    <glyph glyph-name="degree" unicode="&#xb0;" horiz-adv-x="445" 
d="M222 387c-84 0 -152 68 -152 153c0 84 68 152 152 152c85 0 153 -68 153 -152c0 -85 -68 -153 -153 -153zM220 457c44 0 80 35 80 80c0 44 -36 80 -80 80c-45 0 -80 -36 -80 -80c0 -45 35 -80 80 -80z" />
    <glyph glyph-name="bar" unicode="|" horiz-adv-x="273" 
d="M90 -150v920h93v-920h-93z" />
    <glyph glyph-name="brokenbar" unicode="&#xa6;" horiz-adv-x="273" 
d="M90 770h93v-372h-93v372zM183 -150h-93v374h93v-374z" />
    <glyph glyph-name="dagger" unicode="&#x2020;" 
d="M464 545h-122v-267h-84v267h-122v84h122v127h84v-127h122v-84z" />
    <glyph glyph-name="daggerdbl" unicode="&#x2021;" 
d="M342 545v-80h122v-84h-122v-103h-84v103h-122v84h122v80h-122v84h122v127h84v-127h122v-84h-122z" />
    <glyph glyph-name="asciicircum" unicode="^" horiz-adv-x="450" 
d="M315 402l-90 202l-91 -202h-64l131 273h47l132 -273h-65z" />
    </font>
</defs>
</svg>
