<?xml version="1.0" standalone="no"?>
<!DOCTYPE svg PUBLIC "-//W3C//DTD SVG 1.1//EN" "http://www.w3.org/Graphics/SVG/1.1/DTD/svg11.dtd" >
<svg xmlns="http://www.w3.org/2000/svg" xmlns:xlink="http://www.w3.org/1999/xlink" version="1.1">
<metadata>
Created by FontForge 20230101 at Thu Jun 30 05:28:24 2011
 By Glenn Lewis
Copyright (c) 2011, Denis Masharov &#60;denis.masharov@gmail.com&#62;. This Font Software is licensed under the SIL Open Font License, Version 1.1. This license is available with a FAQ at: http://scripts.sil.org/OFL
</metadata>
<defs>
<font id="Forum" horiz-adv-x="485" >
  <font-face 
    font-family="Forum"
    font-weight="400"
    font-stretch="normal"
    units-per-em="1000"
    panose-1="2 0 0 0 0 0 0 0 0 0"
    ascent="800"
    descent="-200"
    x-height="420"
    cap-height="660"
    bbox="-23 -248 1294 856"
    underline-thickness="50"
    underline-position="-100"
    unicode-range="U+0020-F6E1"
  />
<missing-glyph horiz-adv-x="260" 
 />
    <glyph glyph-name=".notdef" horiz-adv-x="260" 
 />
    <glyph glyph-name="NULL" horiz-adv-x="0" 
 />
    <glyph glyph-name="nonmarkingreturn" horiz-adv-x="260" 
 />
    <glyph glyph-name="space" unicode=" " horiz-adv-x="260" 
 />
    <glyph glyph-name="space" unicode="&#xa0;" horiz-adv-x="260" 
 />
    <glyph glyph-name="space" unicode="&#xa0;" horiz-adv-x="260" 
 />
    <glyph glyph-name="Aacute" unicode="&#xc1;" horiz-adv-x="590" 
d="M427 10h5q24 0 24 22q0 8 -3 17l-90 243h-175l-87 -239q-3 -8 -3 -15q0 -13 7 -20.5t15 -7.5h5v-10h-111v10h5q13 0 25.5 15.5t20.5 36.5l229 610l224 -604q7 -20 19.5 -39t32.5 -19h5v-10h-148v10zM198 326h154l-77 209zM212 688l142 107l26 -45l-165 -68z" />
    <glyph glyph-name="Acircumflex" unicode="&#xc2;" horiz-adv-x="590" 
d="M427 10h5q24 0 24 22q0 8 -3 17l-90 243h-175l-87 -239q-3 -8 -3 -15q0 -13 7 -20.5t15 -7.5h5v-10h-111v10h5q13 0 25.5 15.5t20.5 36.5l229 610l224 -604q7 -20 19.5 -39t32.5 -19h5v-10h-148v10zM198 326h154l-77 209zM417 685l-121 59l-120 -59l-2 5l122 103
l122 -103z" />
    <glyph glyph-name="Adieresis" unicode="&#xc4;" horiz-adv-x="590" 
d="M427 10h5q24 0 24 22q0 8 -3 17l-90 243h-175l-87 -239q-3 -8 -3 -15q0 -13 7 -20.5t15 -7.5h5v-10h-111v10h5q13 0 25.5 15.5t20.5 36.5l229 610l224 -604q7 -20 19.5 -39t32.5 -19h5v-10h-148v10zM198 326h154l-77 209zM386 718q0 -14 -9 -23t-21 -9q-14 0 -23.5 9
t-9.5 23t9.5 23t23.5 9q12 0 21 -9t9 -23zM271 718q0 -14 -9 -23t-23 -9t-23 9t-9 23t9 23t23 9t23 -9t9 -23z" />
    <glyph glyph-name="Agrave" unicode="&#xc0;" horiz-adv-x="590" 
d="M427 10h5q24 0 24 22q0 8 -3 17l-90 243h-175l-87 -239q-3 -8 -3 -15q0 -13 7 -20.5t15 -7.5h5v-10h-111v10h5q13 0 25.5 15.5t20.5 36.5l229 610l224 -604q7 -20 19.5 -39t32.5 -19h5v-10h-148v10zM198 326h154l-77 209zM378 682l-166 68l26 45l142 -107z" />
    <glyph glyph-name="Aring" unicode="&#xc5;" horiz-adv-x="590" 
d="M427 10h5q24 0 24 22q0 8 -3 17l-90 243h-175l-87 -239q-3 -8 -3 -15q0 -13 7 -20.5t15 -7.5h5v-10h-111v10h5q13 0 25.5 15.5t20.5 36.5l229 610l224 -604q7 -20 19.5 -39t32.5 -19h5v-10h-148v10zM198 326h154l-77 209zM224 749q0 26 20.5 43t51.5 17t52 -17t21 -43
t-21 -42.5t-52 -16.5t-51.5 16.5t-20.5 42.5zM252 755q0 -21 15 -35.5t36 -14.5q17 0 28 11.5t11 29.5t-16 33t-36 15q-16 0 -27 -11.5t-11 -27.5z" />
    <glyph glyph-name="Atilde" unicode="&#xc3;" horiz-adv-x="590" 
d="M427 10h5q24 0 24 22q0 8 -3 17l-90 243h-175l-87 -239q-3 -8 -3 -15q0 -13 7 -20.5t15 -7.5h5v-10h-111v10h5q13 0 25.5 15.5t20.5 36.5l229 610l224 -604q7 -20 19.5 -39t32.5 -19h5v-10h-148v10zM198 326h154l-77 209zM410 767q-12 -45 -23.5 -59t-32.5 -14
q-12 0 -27 6t-31 13.5t-31.5 14t-28.5 6.5q-15 0 -25.5 -11t-23.5 -29l-5 1q14 42 32.5 59.5t38.5 17.5q12 0 26 -6t27.5 -13.5t27.5 -13.5t26 -6q16 0 27 10.5t19 24.5z" />
    <glyph glyph-name="B" unicode="B" horiz-adv-x="489" 
d="M45 10h5q7 0 13 6t10.5 14t6.5 17.5t2 17.5v532q0 7 -2 16t-6.5 17.5t-11 14t-14.5 5.5h-5v10h164q93 0 145.5 -41t52.5 -109q0 -29 -10 -52t-25.5 -41t-33.5 -30.5t-34 -20.5q42 -8 70 -27t45.5 -43.5t24.5 -52.5t7 -55q0 -52 -19 -87.5t-50.5 -58t-72 -32.5t-83.5 -10
h-179v10zM381 182q-8 77 -52 119t-124 42h-56v-310h58q81 0 127.5 36.5t46.5 101.5v11zM340 501q-3 58 -40.5 92t-100.5 34h-50v-252h52q42 0 68.5 11t42.5 28.5t22 38.5t6 41v7z" />
    <glyph glyph-name="C" unicode="C" horiz-adv-x="623" 
d="M397 634q-74 0 -128.5 -26.5t-90.5 -69t-53.5 -95.5t-17.5 -105q0 -59 23 -115.5t63.5 -100t94.5 -70t117 -26.5q18 0 42.5 4t48.5 15.5t44.5 32.5t31.5 55h10v-111q-15 0 -31.5 -4t-36.5 -9q-26 -7 -57.5 -13t-66.5 -6q-87 0 -153 30t-110 78t-66 108.5t-22 122.5
t22 123t67 109.5t113 78.5t160 30q33 0 59.5 -6t47.5 -12q15 -5 27.5 -7.5t24.5 -2.5v-111h-10q-6 31 -22 51.5t-37.5 31.5t-46 15.5t-47.5 4.5z" />
    <glyph glyph-name="AE" unicode="&#xc6;" horiz-adv-x="800" 
d="M681 294q0 18 -15 31t-39 13h-145v-303h198q19 0 33 9t23 22.5t13.5 29t4.5 28.5v5h10v-129h-388v10h5q8 0 14 5.5t10.5 13.5t7 17t2.5 17v276h-128l-172 -282q-4 -6 -8 -14t-4 -15q0 -18 18 -18h5v-10h-111v10h5q15 0 31 17t29 37l334 549q0 14 -11 25.5t-22 11.5h-5v10
h363v-98h-10v5q0 23 -15.5 40.5t-47.5 17.5h-184v-253h145q23 0 38.5 14t15.5 33v5h10v-135h-10v5zM415 372v178l-107 -178h107z" />
    <glyph glyph-name="Ccedilla" unicode="&#xc7;" horiz-adv-x="620" 
d="M395 -10q-13 -19 -24 -40q45 -5 65.5 -21.5t20.5 -37.5q0 -26 -29.5 -48t-83.5 -22q-7 0 -13 0.5t-12 1.5q-3 0 -7 0.5t-7 0.5v8h11q38 0 65 16.5t27 37.5q0 17 -20 32.5t-57 20.5l32 52q-82 4 -143 34.5t-102 78t-61.5 106.5t-20.5 119q0 62 22 123t67 109.5t113 78.5
t160 30q33 0 59.5 -6t47.5 -12q15 -5 27.5 -7.5t24.5 -2.5v-111h-10q-6 31 -22 51.5t-37.5 31.5t-46 15.5t-47.5 4.5q-74 0 -128.5 -26.5t-90.5 -69t-53.5 -95.5t-17.5 -105q0 -59 23 -115.5t63.5 -100t94.5 -68.5t117 -25q18 0 42 4t47.5 15.5t44.5 31t33 53.5h10v-111
q-15 0 -32 -4t-37 -9q-24 -6 -54 -11.5t-61 -7.5z" />
    <glyph glyph-name="D" unicode="D" horiz-adv-x="616" 
d="M44 10h5q7 0 13 6t10.5 14t6.5 17.5t2 17.5v533q0 7 -2 16t-6 17t-10 13.5t-14 5.5h-5v10h193q79 0 142 -27.5t106.5 -74t66.5 -106.5t23 -125q0 -61 -22 -119.5t-66 -104.5t-110 -74.5t-153 -28.5h-180v10zM507 312q0 64 -23 121t-64.5 99.5t-98 67.5t-122.5 25h-51
v-590h53q54 0 108.5 16.5t98.5 51t71.5 86.5t27.5 123z" />
    <glyph glyph-name="E" unicode="E" 
d="M45 10h5q8 0 14 5.5t10.5 13.5t7 17t2.5 17v535q0 7 -2.5 16t-7 17t-10.5 13.5t-14 5.5h-5v10h385v-93h-10q-2 23 -18 40.5t-50 17.5h-201v-253h166q23 0 38.5 14t15.5 33h10v-125h-10q0 18 -15 31t-39 13h-166v-303h219q19 0 33 9t23.5 21.5t14 27t4.5 24.5h10v-117
h-410v10z" />
    <glyph glyph-name="Eacute" unicode="&#xc9;" 
d="M45 10h5q8 0 14 5.5t10.5 13.5t7 17t2.5 17v535q0 7 -2.5 16t-7 17t-10.5 13.5t-14 5.5h-5v10h385v-93h-10q-2 23 -18 40.5t-50 17.5h-201v-253h166q23 0 38.5 14t15.5 33h10v-125h-10q0 18 -15 31t-39 13h-166v-303h219q19 0 33 9t23.5 21.5t14 27t4.5 24.5h10v-117
h-410v10zM158 688l142 107l26 -45l-165 -68z" />
    <glyph glyph-name="Ecircumflex" unicode="&#xca;" 
d="M45 10h5q8 0 14 5.5t10.5 13.5t7 17t2.5 17v535q0 7 -2.5 16t-7 17t-10.5 13.5t-14 5.5h-5v10h385v-93h-10q-2 23 -18 40.5t-50 17.5h-201v-253h166q23 0 38.5 14t15.5 33h10v-125h-10q0 18 -15 31t-39 13h-166v-303h219q19 0 33 9t23.5 21.5t14 27t4.5 24.5h10v-117
h-410v10zM363 685l-121 59l-120 -59l-2 5l122 103l122 -103z" />
    <glyph glyph-name="Edieresis" unicode="&#xcb;" 
d="M45 10h5q8 0 14 5.5t10.5 13.5t7 17t2.5 17v535q0 7 -2.5 16t-7 17t-10.5 13.5t-14 5.5h-5v10h385v-93h-10q-2 23 -18 40.5t-50 17.5h-201v-253h166q23 0 38.5 14t15.5 33h10v-125h-10q0 18 -15 31t-39 13h-166v-303h219q19 0 33 9t23.5 21.5t14 27t4.5 24.5h10v-117
h-410v10zM331 718q0 -14 -9 -23t-21 -9q-14 0 -23.5 9t-9.5 23t9.5 23t23.5 9q12 0 21 -9t9 -23zM216 718q0 -14 -9 -23t-23 -9t-23 9t-9 23t9 23t23 9t23 -9t9 -23z" />
    <glyph glyph-name="Egrave" unicode="&#xc8;" 
d="M45 10h5q8 0 14 5.5t10.5 13.5t7 17t2.5 17v535q0 7 -2.5 16t-7 17t-10.5 13.5t-14 5.5h-5v10h385v-93h-10q-2 23 -18 40.5t-50 17.5h-201v-253h166q23 0 38.5 14t15.5 33h10v-125h-10q0 18 -15 31t-39 13h-166v-303h219q19 0 33 9t23.5 21.5t14 27t4.5 24.5h10v-117
h-410v10zM324 687l-166 63l26 45l142 -102z" />
    <glyph glyph-name="Eth" unicode="&#xd0;" horiz-adv-x="616" 
d="M45 660h192q79 0 142 -27.5t106.5 -74t66.5 -106.5t23 -125q0 -61 -22 -119.5t-66 -104.5t-110 -74.5t-153 -28.5h-179v10h5q7 0 13 6t10.5 14t6.5 17.5t2 17.5v246h-51v40h51v247q0 7 -2 16t-6.5 17t-10.5 13.5t-13 5.5h-5v10zM507 312q0 64 -23 121t-64.5 99.5
t-98 67.5t-122.5 25h-51v-274h175v-40h-175v-276h53q54 0 108.5 16.5t98.5 51t71.5 86.5t27.5 123z" />
    <glyph glyph-name="Euro" unicode="&#x20ac;" horiz-adv-x="533" 
d="M432 24q-8 0 -16 -2.5t-18 -7.5l-6 -3q-14 -7 -34.5 -14t-47.5 -7q-40 0 -78 18t-69.5 52t-54.5 83t-32 111h-64v38h61q-1 8 -1.5 17.5t-0.5 20.5v27.5t2 27.5h-61v39h66q11 58 33.5 103.5t52 77t65 48t73.5 16.5q16 0 33.5 -5t34.5 -10q14 -5 25.5 -8t21.5 -3v-108h-10
q-7 29 -19.5 48t-28 30t-33 15t-34.5 4q-30 0 -56 -18t-46.5 -47t-34.5 -66.5t-20 -76.5h282v-39h-285v-13q0 -20 1.5 -40.5t5.5 -39.5h277v-38h-270q11 -43 27 -83.5t38 -72.5t50 -51.5t64 -19.5q14 0 29.5 6.5t29.5 20t24.5 33.5t14.5 47h9v-110z" />
    <glyph glyph-name="F" unicode="F" horiz-adv-x="460" 
d="M184 10h5v-10h-143v10h5q8 0 14 5.5t10.5 13.5t6.5 17t2 17v535q0 7 -2 16t-6 17t-10.5 13.5t-14.5 5.5h-5v10h384v-93h-10q0 23 -15.5 40.5t-48.5 17.5h-205v-253h166q23 0 38.5 14t15.5 33h10v-125h-10q0 18 -15 31t-39 13h-166v-275q0 -8 2 -17t6.5 -17t10.5 -13.5
t14 -5.5z" />
    <glyph glyph-name="G" unicode="G" horiz-adv-x="657" 
d="M475 348h143v-10h-5q-8 0 -14 -5.5t-10 -13.5t-6.5 -17t-2.5 -16v-268q-18 -7 -41 -12t-48 -8.5t-51 -5.5t-48 -2q-90 0 -157 30t-111 78.5t-65.5 109.5t-21.5 123t21.5 123t66 109t112 77.5t160.5 29.5q35 0 65 -6t53 -11q13 -3 22.5 -5.5t16.5 -2.5h9v-106h-10
q-6 31 -23.5 50t-40.5 29t-48.5 13.5t-47.5 3.5q-75 0 -130 -26.5t-90 -68.5t-52 -94.5t-17 -104.5q0 -58 22 -114.5t62 -101t96.5 -72t125.5 -27.5q19 0 47 4.5t56 20.5v235q0 7 -2 16t-6.5 17t-10.5 13.5t-14 5.5h-5v10z" />
    <glyph glyph-name="H" unicode="H" horiz-adv-x="622" 
d="M444 10h5q7 0 13 5.5t10.5 14t6.5 18t2 17.5v272h-320v-272q0 -8 2 -17.5t6 -17.5t9.5 -14t13.5 -6h5v-10h-140v10h5q7 0 13 5.5t10.5 14t6.5 18t2 17.5v533q0 7 -2 16t-6 17t-10 13.5t-14 5.5h-5v10h140v-10h-5q-8 0 -14 -5.5t-9.5 -13.5t-5.5 -17t-2 -16v-226h320v226
q0 7 -2 16t-6 17t-10 13.5t-14 5.5h-5v10h140v-10h-5q-8 0 -14 -5.5t-9.5 -13.5t-5.5 -17t-2 -16v-533q0 -8 2.5 -17.5t6.5 -17.5t9.5 -14t12.5 -6h5v-10h-140v10z" />
    <glyph glyph-name="I" unicode="I" horiz-adv-x="243" 
d="M49 660h143v-10h-5q-7 0 -13 -5.5t-10 -13t-6.5 -17t-2.5 -16.5v-533q0 -8 2 -17.5t6.5 -17.5t10 -14t13.5 -6h5v-10h-143v10h5q8 0 14 5.5t10.5 14t6.5 18t2 17.5v533q0 7 -2 16t-6.5 17t-10.5 13.5t-14 5.5h-5v10z" />
    <glyph glyph-name="Iacute" unicode="&#xcd;" horiz-adv-x="243" 
d="M49 660h143v-10h-5q-7 0 -13 -5.5t-10 -13t-6.5 -17t-2.5 -16.5v-533q0 -8 2 -17.5t6.5 -17.5t10 -14t13.5 -6h5v-10h-143v10h5q8 0 14 5.5t10.5 14t6.5 18t2 17.5v533q0 7 -2 16t-6.5 17t-10.5 13.5t-14 5.5h-5v10zM37 688l142 107l26 -45l-165 -68z" />
    <glyph glyph-name="Icircumflex" unicode="&#xce;" horiz-adv-x="243" 
d="M49 660h143v-10h-5q-7 0 -13 -5.5t-10 -13t-6.5 -17t-2.5 -16.5v-533q0 -8 2 -17.5t6.5 -17.5t10 -14t13.5 -6h5v-10h-143v10h5q8 0 14 5.5t10.5 14t6.5 18t2 17.5v533q0 7 -2 16t-6.5 17t-10.5 13.5t-14 5.5h-5v10zM242 685l-121 59l-120 -59l-2 5l122 103l122 -103z
" />
    <glyph glyph-name="Idieresis" unicode="&#xcf;" horiz-adv-x="243" 
d="M49 660h143v-10h-5q-7 0 -13 -5.5t-10 -13t-6.5 -17t-2.5 -16.5v-533q0 -8 2 -17.5t6.5 -17.5t10 -14t13.5 -6h5v-10h-143v10h5q8 0 14 5.5t10.5 14t6.5 18t2 17.5v533q0 7 -2 16t-6.5 17t-10.5 13.5t-14 5.5h-5v10zM210 718q0 -14 -9 -23t-21 -9q-14 0 -23.5 9t-9.5 23
t9.5 23t23.5 9q12 0 21 -9t9 -23zM95 718q0 -14 -9 -23t-23 -9t-23 9t-9 23t9 23t23 9t23 -9t9 -23z" />
    <glyph glyph-name="Igrave" unicode="&#xcc;" horiz-adv-x="243" 
d="M49 660h143v-10h-5q-7 0 -13 -5.5t-10 -13t-6.5 -17t-2.5 -16.5v-533q0 -8 2 -17.5t6.5 -17.5t10 -14t13.5 -6h5v-10h-143v10h5q8 0 14 5.5t10.5 14t6.5 18t2 17.5v533q0 7 -2 16t-6.5 17t-10.5 13.5t-14 5.5h-5v10zM203 682l-166 68l26 45l142 -107z" />
    <glyph glyph-name="J" unicode="J" horiz-adv-x="270" 
d="M75 660h144v-10h-5q-8 0 -14 -5.5t-10.5 -14t-7 -17.5t-2.5 -16v-557q0 -32 -8 -59t-21.5 -50.5t-30 -43t-34.5 -35.5q-41 -37 -94 -62l-5 8q35 25 62 59q23 29 43 71t20 97v572q0 7 -2 16t-6.5 17.5t-10.5 14t-13 5.5h-5v10z" />
    <glyph glyph-name="K" unicode="K" horiz-adv-x="566" 
d="M183 10h5v-10h-143v10h5q8 0 14 6t10.5 14t6.5 17.5t2 17.5v533q0 7 -2 16t-6.5 17t-10.5 13.5t-13 5.5h-5v10h143v-10h-5q-8 0 -14 -5.5t-10.5 -13.5t-7 -17t-2.5 -16v-232l254 252q6 7 6 16q0 16 -12 16h-5v10h122v-10h-5q-14 0 -29 -10t-30 -25l-210 -209l221 -335
q1 -2 9 -12t19.5 -21t26 -19.5t29.5 -8.5v-10h-24q-30 0 -50.5 3.5t-35.5 11.5t-26.5 20t-23.5 30l-194 293l-42 -43v-250q0 -8 2.5 -17t6.5 -17.5t10 -14.5t14 -6z" />
    <glyph glyph-name="L" unicode="L" horiz-adv-x="465" 
d="M45 10h5q8 0 14 5.5t10.5 13.5t7 17t2.5 17v535q0 7 -2.5 16t-7 17t-10.5 13.5t-14 5.5h-5v10h144v-10h-5q-8 0 -14 -5.5t-10 -13.5t-6.5 -17t-2.5 -16v-561h219q19 0 33 9t23.5 22.5t14 29t4.5 28.5h10v-126h-410v10z" />
    <glyph glyph-name="M" unicode="M" horiz-adv-x="777" 
d="M583 10h5q7 0 13 6t10.5 14t6.5 17.5t2 17.5v526l-258 -602l-245 571v-495q0 -8 2 -17.5t6.5 -17.5t10.5 -14t14 -6h5v-10h-109v10h5q7 0 13 6t10 14t6 17.5t2 17.5v533q0 7 -2 16t-6 17t-10 13.5t-13 5.5h-5v10h102l232 -547l232 547h113v-10h-5q-8 0 -14 -5.5
t-10.5 -13.5t-6.5 -17t-2 -16v-533q0 -8 2 -17.5t6.5 -17.5t10.5 -14t14 -6h5v-10h-142v10z" />
    <glyph glyph-name="N" unicode="N" horiz-adv-x="628" 
d="M150 10h5v-10h-111v10h5q7 0 13.5 6t10.5 14t6.5 17.5t2.5 17.5v533q0 7 -1.5 16t-5.5 17t-11 13.5t-17 5.5h-5v10h101l363 -572v510q0 7 -2.5 16t-7 17t-10.5 13.5t-14 5.5h-5v10h112v-10h-5q-8 0 -14 -5.5t-10.5 -13.5t-6.5 -17t-2 -16v-598h-62l-362 574v-509
q0 -8 2 -17.5t6.5 -17.5t10.5 -14t14 -6z" />
    <glyph glyph-name="A" unicode="A" horiz-adv-x="590" 
d="M427 10h5q24 0 24 22q0 8 -3 17l-90 243h-175l-87 -239q-3 -8 -3 -15q0 -13 7 -20.5t15 -7.5h5v-10h-111v10h5q13 0 25.5 15.5t20.5 36.5l229 610l224 -604q7 -20 19.5 -39t32.5 -19h5v-10h-148v10zM198 326h154l-77 209z" />
    <glyph glyph-name="Ntilde" unicode="&#xd1;" horiz-adv-x="628" 
d="M150 10h5v-10h-111v10h5q7 0 13.5 6t10.5 14t6.5 17.5t2.5 17.5v533q0 7 -1.5 16t-5.5 17t-11 13.5t-17 5.5h-5v10h101l363 -572v510q0 7 -2.5 16t-7 17t-10.5 13.5t-14 5.5h-5v10h112v-10h-5q-8 0 -14 -5.5t-10.5 -13.5t-6.5 -17t-2 -16v-598h-62l-362 574v-509
q0 -8 2 -17.5t6.5 -17.5t10.5 -14t14 -6zM427 767q-12 -45 -23.5 -59t-32.5 -14q-12 0 -27 6t-31 13.5t-31.5 14t-28.5 6.5q-15 0 -25.5 -11t-23.5 -29l-5 1q14 42 32.5 59.5t38.5 17.5q12 0 26 -6t27.5 -13.5t27.5 -13.5t26 -6q16 0 27 10.5t19 24.5z" />
    <glyph glyph-name="O" unicode="O" horiz-adv-x="761" 
d="M382 670q78 0 140 -27.5t105.5 -74t67 -108t23.5 -128.5q0 -75 -27.5 -138t-75.5 -108t-111.5 -70.5t-135.5 -25.5q-77 0 -138.5 28t-104 74t-65.5 106t-23 125q0 64 23 126.5t67.5 111.5t108.5 79t146 30zM381 25q67 3 117.5 30.5t84.5 70t50.5 93.5t16.5 101
q0 55 -20 111t-57 101.5t-88.5 74t-115.5 28.5q-62 0 -111 -27.5t-83.5 -70.5t-52.5 -96t-18 -104q0 -55 21 -110.5t58 -100.5t87.5 -73t110.5 -28z" />
    <glyph glyph-name="OE" unicode="&#x152;" horiz-adv-x="893" 
d="M852 123v-122h-394q-45 -12 -92 -12q-77 0 -137 28t-101 74t-62 106t-21 125t21.5 127.5t64 111t105 78.5t144.5 30q22 0 43.5 -2.5t41.5 -7.5h362v-93h-10q0 23 -15.5 40.5t-48.5 17.5h-195v-253h157q23 0 38 14t15 33h10v-125h-10q0 18 -15 31t-38 13h-157v-303h209
q19 0 33 9t23.5 22.5t14 29t4.5 28.5h10zM111 336q0 -55 19.5 -110.5t54.5 -100.5t84.5 -73t109.5 -28q30 0 59 8t53 19v549q-27 19 -59.5 26.5t-64.5 7.5q-62 0 -110 -27.5t-80.5 -70.5t-49 -96t-16.5 -104z" />
    <glyph glyph-name="Oacute" unicode="&#xd3;" horiz-adv-x="761" 
d="M382 670q78 0 140 -27.5t105.5 -74t67 -108t23.5 -128.5q0 -75 -27.5 -138t-75.5 -108t-111.5 -70.5t-135.5 -25.5q-77 0 -138.5 28t-104 74t-65.5 106t-23 125q0 64 23 126.5t67.5 111.5t108.5 79t146 30zM381 25q67 3 117.5 30.5t84.5 70t50.5 93.5t16.5 101
q0 55 -20 111t-57 101.5t-88.5 74t-115.5 28.5q-62 0 -111 -27.5t-83.5 -70.5t-52.5 -96t-18 -104q0 -55 21 -110.5t58 -100.5t87.5 -73t110.5 -28zM296 688l142 107l26 -45l-165 -68z" />
    <glyph glyph-name="Ocircumflex" unicode="&#xd4;" horiz-adv-x="761" 
d="M382 670q78 0 140 -27.5t105.5 -74t67 -108t23.5 -128.5q0 -75 -27.5 -138t-75.5 -108t-111.5 -70.5t-135.5 -25.5q-77 0 -138.5 28t-104 74t-65.5 106t-23 125q0 64 23 126.5t67.5 111.5t108.5 79t146 30zM381 25q67 3 117.5 30.5t84.5 70t50.5 93.5t16.5 101
q0 55 -20 111t-57 101.5t-88.5 74t-115.5 28.5q-62 0 -111 -27.5t-83.5 -70.5t-52.5 -96t-18 -104q0 -55 21 -110.5t58 -100.5t87.5 -73t110.5 -28zM501 685l-121 59l-120 -59l-2 5l122 103l122 -103z" />
    <glyph glyph-name="Odieresis" unicode="&#xd6;" horiz-adv-x="761" 
d="M382 670q78 0 140 -27.5t105.5 -74t67 -108t23.5 -128.5q0 -75 -27.5 -138t-75.5 -108t-111.5 -70.5t-135.5 -25.5q-77 0 -138.5 28t-104 74t-65.5 106t-23 125q0 64 23 126.5t67.5 111.5t108.5 79t146 30zM381 25q67 3 117.5 30.5t84.5 70t50.5 93.5t16.5 101
q0 55 -20 111t-57 101.5t-88.5 74t-115.5 28.5q-62 0 -111 -27.5t-83.5 -70.5t-52.5 -96t-18 -104q0 -55 21 -110.5t58 -100.5t87.5 -73t110.5 -28zM469 718q0 -14 -9 -23t-21 -9q-14 0 -23.5 9t-9.5 23t9.5 23t23.5 9q12 0 21 -9t9 -23zM354 718q0 -14 -9 -23t-23 -9t-23 9
t-9 23t9 23t23 9t23 -9t9 -23z" />
    <glyph glyph-name="Ograve" unicode="&#xd2;" horiz-adv-x="761" 
d="M382 670q78 0 140 -27.5t105.5 -74t67 -108t23.5 -128.5q0 -75 -27.5 -138t-75.5 -108t-111.5 -70.5t-135.5 -25.5q-77 0 -138.5 28t-104 74t-65.5 106t-23 125q0 64 23 126.5t67.5 111.5t108.5 79t146 30zM381 25q67 3 117.5 30.5t84.5 70t50.5 93.5t16.5 101
q0 55 -20 111t-57 101.5t-88.5 74t-115.5 28.5q-62 0 -111 -27.5t-83.5 -70.5t-52.5 -96t-18 -104q0 -55 21 -110.5t58 -100.5t87.5 -73t110.5 -28zM462 682l-166 68l26 45l142 -107z" />
    <glyph glyph-name="Oslash" unicode="&#xd8;" horiz-adv-x="761" 
d="M382 670q51 0 98 -14l22 58h40l-26 -69q47 -20 84.5 -52.5t63.5 -73.5t40 -88.5t14 -98.5q0 -75 -27.5 -138t-75.5 -108t-111.5 -70.5t-135.5 -25.5q-44 0 -88 11l-23 -62h-41l27 73q-48 19 -86 51.5t-65 74t-41 88.5t-14 97q0 64 23 126.5t67.5 111.5t108.5 79t146 30z
M104 337q0 -39 11.5 -79t32 -77t49 -68.5t63.5 -52.5l206 555q-46 20 -97 20q-62 0 -111 -27.5t-83.5 -70.5t-52.5 -96t-18 -104zM381 25q67 3 117.5 30.5t84.5 70t50.5 93.5t16.5 101q0 39 -10.5 78.5t-30 76.5t-47.5 68.5t-63 53.5l-205 -556q43 -16 87 -16z" />
    <glyph glyph-name="Otilde" unicode="&#xd5;" horiz-adv-x="761" 
d="M382 670q78 0 140 -27.5t105.5 -74t67 -108t23.5 -128.5q0 -75 -27.5 -138t-75.5 -108t-111.5 -70.5t-135.5 -25.5q-77 0 -138.5 28t-104 74t-65.5 106t-23 125q0 64 23 126.5t67.5 111.5t108.5 79t146 30zM381 25q67 3 117.5 30.5t84.5 70t50.5 93.5t16.5 101
q0 55 -20 111t-57 101.5t-88.5 74t-115.5 28.5q-62 0 -111 -27.5t-83.5 -70.5t-52.5 -96t-18 -104q0 -55 21 -110.5t58 -100.5t87.5 -73t110.5 -28zM494 767q-12 -45 -23.5 -59t-32.5 -14q-12 0 -27 6t-31 13.5t-31.5 14t-28.5 6.5q-15 0 -25.5 -11t-23.5 -29l-5 1
q14 42 32.5 59.5t38.5 17.5q12 0 26 -6t27.5 -13.5t27.5 -13.5t26 -6q16 0 27 10.5t19 24.5z" />
    <glyph glyph-name="P" unicode="P" horiz-adv-x="452" 
d="M44 660h142q111 0 168.5 -42.5t57.5 -120.5q0 -42 -20 -75t-52.5 -55.5t-73 -34.5t-80.5 -12h-38v-255q0 -8 2 -17.5t6.5 -17.5t10 -14t13.5 -6h5v-10h-141v10h5q7 0 13 6t10 14t6 17.5t2 17.5v533q0 14 -8 32t-23 20h-5v10zM148 625v-270h30q40 0 71.5 11t52.5 29t32 41
t11 47q0 29 -9.5 54.5t-31 45t-56.5 31t-86 11.5h-14z" />
    <glyph glyph-name="Q" unicode="Q" horiz-adv-x="771" 
d="M384 670q78 0 140 -29.5t105.5 -77t67 -107.5t23.5 -122q0 -45 -9 -83t-25 -70t-36.5 -58.5t-44.5 -48.5l33 -37q39 -36 85 -64.5t93 -48t93 -29.5t84 -10q33 0 70.5 6t76 18t76.5 31.5t72 46.5l6 -9q-33 -36 -74 -63.5t-86 -45.5t-92.5 -27.5t-93.5 -9.5t-92 8t-92 27
t-92 51.5t-92 81.5l-34 36q-17 -11 -38.5 -19.5t-45.5 -14.5t-49 -9t-47 -3q-70 0 -129.5 28.5t-103 75t-68.5 106.5t-25 123q0 64 23 126.5t67.5 111.5t108.5 79t145 30zM383 25q67 3 118 30.5t84.5 70t50.5 93.5t17 100q0 55 -20.5 111.5t-57 102t-88.5 74t-115 28.5
q-62 0 -111.5 -27.5t-83.5 -70.5t-52 -95.5t-18 -103.5q0 -55 20.5 -111t57.5 -101t87.5 -73t110.5 -28z" />
    <glyph glyph-name="R" unicode="R" horiz-adv-x="540" 
d="M181 10h5v-10h-141v10h5q7 0 13 6t10.5 14t6.5 17.5t2 17.5v533q0 7 -2 16t-6.5 17t-10.5 13.5t-13 5.5h-5v10h174q100 0 154.5 -39t54.5 -115q0 -38 -12.5 -66.5t-33.5 -49t-49.5 -33t-60.5 -18.5l72 -110q26 -40 53 -78.5t53 -79.5q7 -10 15.5 -21t18 -20t20 -14.5
t21.5 -5.5v-10h-43q-40 0 -65.5 19.5t-42.5 45.5q-45 66 -89.5 134t-88.5 134q-11 1 -23.5 2.5t-23.5 3.5v-274q0 -8 2 -17.5t6.5 -17.5t10 -14t13.5 -6zM149 626v-254h5q8 -1 25.5 -1.5t43.5 -0.5q21 0 44.5 6.5t44 22t34 40.5t13.5 63t-14.5 62t-40 38t-61.5 19t-79 5h-15
z" />
    <glyph glyph-name="S" unicode="S" horiz-adv-x="490" 
d="M450 177q0 -50 -20 -85.5t-51.5 -57.5t-71 -32t-78.5 -10q-40 0 -69 8t-53 15q-16 5 -29 8.5t-26 3.5v114h10q0 -38 19.5 -60.5t45.5 -34.5t52 -15.5t38 -3.5q43 0 74 12.5t51 33t29.5 45.5t9.5 51q0 33 -14 55.5t-36.5 39.5t-51.5 29t-59 24q-34 13 -67 27t-59 34.5
t-42 49t-16 70.5q0 44 17 76.5t45.5 53.5t65 31.5t74.5 10.5q26 0 49 -3.5t44 -8.5q17 -4 33 -6.5t31 -2.5v-103h-10q-2 52 -41 70.5t-108 18.5q-40 0 -65.5 -13.5t-40.5 -33t-20.5 -42t-5.5 -39.5q0 -28 12.5 -48t33.5 -35t48.5 -27t57.5 -23q34 -13 69 -28t62.5 -37
t45 -54t17.5 -78z" />
    <glyph glyph-name="Scaron" unicode="&#x160;" horiz-adv-x="490" 
d="M450 177q0 -50 -20 -85.5t-51.5 -57.5t-71 -32t-78.5 -10q-40 0 -69 8t-53 15q-16 5 -29 8.5t-26 3.5v114h10q0 -38 19.5 -60.5t45.5 -34.5t52 -15.5t38 -3.5q43 0 74 12.5t51 33t29.5 45.5t9.5 51q0 33 -14 55.5t-36.5 39.5t-51.5 29t-59 24q-34 13 -67 27t-59 34.5
t-42 49t-16 70.5q0 44 17 76.5t45.5 53.5t65 31.5t74.5 10.5q26 0 49 -3.5t44 -8.5q17 -4 33 -6.5t31 -2.5v-103h-10q-2 52 -41 70.5t-108 18.5q-40 0 -65.5 -13.5t-40.5 -33t-20.5 -42t-5.5 -39.5q0 -28 12.5 -48t33.5 -35t48.5 -27t57.5 -23q34 -13 69 -28t62.5 -37
t45 -54t17.5 -78zM124 790l121 -57l119 57l2 -4l-121 -104l-124 104z" />
    <glyph glyph-name="T" unicode="T" horiz-adv-x="468" 
d="M298 10h5v-10h-142v10h5q8 0 14 6t10.5 14t6.5 17.5t2 17.5v558h-116q-16 0 -28 -7t-20 -17.5t-12 -23t-4 -24.5h-10v109h449v-109h-10q0 12 -4 24.5t-12 23t-20 17.5t-28 7h-118v-558q0 -8 2 -17.5t6.5 -17.5t10 -14t13.5 -6z" />
    <glyph glyph-name="Thorn" unicode="&#xde;" horiz-adv-x="458" 
d="M182 10h5v-10h-143v10h5q8 0 14 5.5t10.5 14t6.5 18t2 17.5v533q0 7 -2 16t-6.5 17t-10.5 13.5t-14 5.5h-5v10h143v-10h-5q-7 0 -13 -5.5t-10 -13t-6.5 -17t-2.5 -16.5v-18h37q111 0 168.5 -42t57.5 -120q0 -43 -20 -76t-52.5 -55.5t-73 -34.5t-80.5 -12h-37v-175
q0 -8 2 -17.5t6.5 -17.5t10 -14t13.5 -6zM179 275q40 0 71.5 11t52.5 29t32 41t11 47q0 29 -9.5 55t-31 45.5t-56.5 30.5t-86 11h-13v-270h29z" />
    <glyph glyph-name="U" unicode="U" horiz-adv-x="584" 
d="M45 660h142v-10h-5q-8 0 -14 -5.5t-10.5 -13.5t-6.5 -17t-2 -16v-395q0 -39 8 -72t27 -57t50 -37.5t76 -13.5q50 0 80 16t46 41.5t21 57.5t5 63v397q0 7 -2 16t-6.5 17t-10.5 13.5t-13 5.5h-5v10h109v-10h-5q-8 0 -13.5 -5.5t-10 -13.5t-6.5 -17t-2 -16v-394
q0 -65 -16 -106.5t-44 -65.5t-65.5 -33t-79.5 -9q-45 0 -83.5 9.5t-66.5 33.5t-44 65.5t-16 104.5v395q0 7 -2 16t-6.5 17t-10.5 13.5t-13 5.5h-5v10z" />
    <glyph glyph-name="Uacute" unicode="&#xda;" horiz-adv-x="584" 
d="M45 660h142v-10h-5q-8 0 -14 -5.5t-10.5 -13.5t-6.5 -17t-2 -16v-395q0 -39 8 -72t27 -57t50 -37.5t76 -13.5q50 0 80 16t46 41.5t21 57.5t5 63v397q0 7 -2 16t-6.5 17t-10.5 13.5t-13 5.5h-5v10h109v-10h-5q-8 0 -13.5 -5.5t-10 -13.5t-6.5 -17t-2 -16v-394
q0 -65 -16 -106.5t-44 -65.5t-65.5 -33t-79.5 -9q-45 0 -83.5 9.5t-66.5 33.5t-44 65.5t-16 104.5v395q0 7 -2 16t-6.5 17t-10.5 13.5t-13 5.5h-5v10zM207 688l142 107l26 -45l-165 -68z" />
    <glyph glyph-name="Ucircumflex" unicode="&#xdb;" horiz-adv-x="584" 
d="M45 660h142v-10h-5q-8 0 -14 -5.5t-10.5 -13.5t-6.5 -17t-2 -16v-395q0 -39 8 -72t27 -57t50 -37.5t76 -13.5q50 0 80 16t46 41.5t21 57.5t5 63v397q0 7 -2 16t-6.5 17t-10.5 13.5t-13 5.5h-5v10h109v-10h-5q-8 0 -13.5 -5.5t-10 -13.5t-6.5 -17t-2 -16v-394
q0 -65 -16 -106.5t-44 -65.5t-65.5 -33t-79.5 -9q-45 0 -83.5 9.5t-66.5 33.5t-44 65.5t-16 104.5v395q0 7 -2 16t-6.5 17t-10.5 13.5t-13 5.5h-5v10zM412 685l-121 59l-120 -59l-2 5l122 103l122 -103z" />
    <glyph glyph-name="Udieresis" unicode="&#xdc;" horiz-adv-x="584" 
d="M45 660h142v-10h-5q-8 0 -14 -5.5t-10.5 -13.5t-6.5 -17t-2 -16v-395q0 -39 8 -72t27 -57t50 -37.5t76 -13.5q50 0 80 16t46 41.5t21 57.5t5 63v397q0 7 -2 16t-6.5 17t-10.5 13.5t-13 5.5h-5v10h109v-10h-5q-8 0 -13.5 -5.5t-10 -13.5t-6.5 -17t-2 -16v-394
q0 -65 -16 -106.5t-44 -65.5t-65.5 -33t-79.5 -9q-45 0 -83.5 9.5t-66.5 33.5t-44 65.5t-16 104.5v395q0 7 -2 16t-6.5 17t-10.5 13.5t-13 5.5h-5v10zM381 718q0 -14 -9 -23t-21 -9q-14 0 -23.5 9t-9.5 23t9.5 23t23.5 9q12 0 21 -9t9 -23zM266 718q0 -14 -9 -23t-23 -9
t-23 9t-9 23t9 23t23 9t23 -9t9 -23z" />
    <glyph glyph-name="Ugrave" unicode="&#xd9;" horiz-adv-x="584" 
d="M45 660h142v-10h-5q-8 0 -14 -5.5t-10.5 -13.5t-6.5 -17t-2 -16v-395q0 -39 8 -72t27 -57t50 -37.5t76 -13.5q50 0 80 16t46 41.5t21 57.5t5 63v397q0 7 -2 16t-6.5 17t-10.5 13.5t-13 5.5h-5v10h109v-10h-5q-8 0 -13.5 -5.5t-10 -13.5t-6.5 -17t-2 -16v-394
q0 -65 -16 -106.5t-44 -65.5t-65.5 -33t-79.5 -9q-45 0 -83.5 9.5t-66.5 33.5t-44 65.5t-16 104.5v395q0 7 -2 16t-6.5 17t-10.5 13.5t-13 5.5h-5v10zM373 682l-166 68l26 45l142 -107z" />
    <glyph glyph-name="V" unicode="V" horiz-adv-x="589" 
d="M127 625q0 -6 3 -15l176 -474l176 479q1 2 2 6t1 6q0 12 -9.5 17.5t-17.5 5.5v10h109v-10q-15 0 -27.5 -8t-19.5 -27l-229 -627l-234 624q-6 15 -17.5 26t-28.5 12v10h142v-10q-9 0 -17.5 -6.5t-8.5 -18.5z" />
    <glyph glyph-name="W" unicode="W" horiz-adv-x="806" 
d="M791 650q-20 0 -34 -17t-19 -37l-182 -600l-156 492l-156 -493l-183 600q-5 19 -17.5 37t-28.5 18v10h142v-10q-13 0 -21.5 -10.5t-8.5 -26.5q0 -5 2 -13l130 -424l159 490l153 -489l132 423q0 2 1.5 8.5t1.5 10.5q0 14 -8 22.5t-16 8.5v10h109v-10z" />
    <glyph glyph-name="X" unicode="X" horiz-adv-x="514" 
d="M217 331l-139 260q-5 8 -11.5 18.5t-13.5 19.5t-15.5 15t-17.5 6v10h142v-10q-6 0 -13.5 -8t-7.5 -20q0 -7 4 -14l113 -210l103 200q0 3 3 6q2 5 4.5 10.5t2.5 10.5q0 16 -11 20.5t-14 4.5v10h111v-10q-17 0 -32.5 -18.5t-24.5 -36.5l-122 -233l156 -294q5 -9 12 -19
t15 -19t16.5 -14.5t17.5 -5.5v-10h-142v10q6 0 12 8t6 19q0 7 -6 18l-127 238l-125 -238q-3 -6 -5.5 -14t-2.5 -15q0 -16 15 -16v-10h-109v10q7 0 16 4.5t18 11.5t17 16t13 17z" />
    <glyph glyph-name="Y" unicode="Y" horiz-adv-x="529" 
d="M3 660h138v-10q-7 -1 -13 -6t-6 -15q0 -5 3 -11l150 -263l144 249q4 8 5.5 12t1.5 10q-2 16 -11.5 20t-11.5 4v10h107v-10q-15 0 -30.5 -18.5t-26.5 -37.5l-156 -270v-259q0 -8 2.5 -17t6.5 -17.5t10 -14.5t14 -6h5v-10h-143v10h5q8 0 14 5.5t10.5 14t6.5 18t2 17.5v250
l-161 276q-5 8 -12 18t-15 19t-17 15.5t-17 6.5h-5v10z" />
    <glyph glyph-name="Yacute" unicode="&#xdd;" horiz-adv-x="529" 
d="M3 660h138v-10q-7 -1 -13 -6t-6 -15q0 -5 3 -11l150 -263l144 249q4 8 5.5 12t1.5 10q-2 16 -11.5 20t-11.5 4v10h107v-10q-15 0 -30.5 -18.5t-26.5 -37.5l-156 -270v-259q0 -8 2.5 -17t6.5 -17.5t10 -14.5t14 -6h5v-10h-143v10h5q8 0 14 5.5t10.5 14t6.5 18t2 17.5v250
l-161 276q-5 8 -12 18t-15 19t-17 15.5t-17 6.5h-5v10zM180 688l142 107l26 -45l-165 -68z" />
    <glyph glyph-name="Ydieresis" unicode="&#x178;" horiz-adv-x="529" 
d="M3 660h138v-10q-7 -1 -13 -6t-6 -15q0 -5 3 -11l150 -263l144 249q4 8 5.5 12t1.5 10q-2 16 -11.5 20t-11.5 4v10h107v-10q-15 0 -30.5 -18.5t-26.5 -37.5l-156 -270v-259q0 -8 2.5 -17t6.5 -17.5t10 -14.5t14 -6h5v-10h-143v10h5q8 0 14 5.5t10.5 14t6.5 18t2 17.5v250
l-161 276q-5 8 -12 18t-15 19t-17 15.5t-17 6.5h-5v10zM353 718q0 -14 -9 -23t-21 -9q-14 0 -23.5 9t-9.5 23t9.5 23t23.5 9q12 0 21 -9t9 -23zM238 718q0 -14 -9 -23t-23 -9t-23 9t-9 23t9 23t23 9t23 -9t9 -23z" />
    <glyph glyph-name="Z" unicode="Z" horiz-adv-x="470" 
d="M17 0l332 625h-232q-16 0 -28 -7.5t-20 -19t-12 -25t-4 -25.5h-10v112h403l-332 -625h257q16 0 28 7.5t20 19.5t12 25.5t4 25.5h10v-113h-428z" />
    <glyph glyph-name="Zcaron" unicode="&#x17d;" horiz-adv-x="470" 
d="M17 0l332 625h-232q-16 0 -28 -7.5t-20 -19t-12 -25t-4 -25.5h-10v112h403l-332 -625h257q16 0 28 7.5t20 19.5t12 25.5t4 25.5h10v-113h-428zM114 790l121 -57l119 57l2 -4l-121 -104l-124 104z" />
    <glyph glyph-name="a" unicode="a" horiz-adv-x="457" 
d="M309 0v51l-5 -5q-25 -25 -57.5 -39t-78.5 -14q-35 0 -60 8t-41 22.5t-23.5 33.5t-7.5 40q0 34 18.5 60t53.5 46t85.5 36.5t115.5 32.5q-2 39 -16 63t-33 37.5t-40 18t-36 4.5q-26 0 -45.5 -8t-34 -20.5t-24.5 -27t-16 -27.5h-9v73q8 1 15 5t17 8q15 6 41 17.5t73 11.5
q55 0 89 -14t52.5 -37t24.5 -52.5t6 -60.5v-198q0 -20 9 -37.5t24 -17.5v-10h-97zM309 95v143l-10 -2q-24 -6 -58.5 -16t-65.5 -26t-53 -38t-22 -51q0 -32 26 -53t68 -21q33 0 58 14.5t46 37.5z" />
    <glyph glyph-name="aacute" unicode="&#xe1;" horiz-adv-x="457" 
d="M309 0v51l-5 -5q-25 -25 -57.5 -39t-78.5 -14q-35 0 -60 8t-41 22.5t-23.5 33.5t-7.5 40q0 34 18.5 60t53.5 46t85.5 36.5t115.5 32.5q-2 39 -16 63t-33 37.5t-40 18t-36 4.5q-26 0 -45.5 -8t-34 -20.5t-24.5 -27t-16 -27.5h-9v73q8 1 15 5t17 8q15 6 41 17.5t73 11.5
q55 0 89 -14t52.5 -37t24.5 -52.5t6 -60.5v-198q0 -20 9 -37.5t24 -17.5v-10h-97zM309 95v143l-10 -2q-24 -6 -58.5 -16t-65.5 -26t-53 -38t-22 -51q0 -32 26 -53t68 -21q33 0 58 14.5t46 37.5zM144 448l142 107l26 -45l-165 -68z" />
    <glyph glyph-name="acircumflex" unicode="&#xe2;" horiz-adv-x="457" 
d="M309 0v51l-5 -5q-25 -25 -57.5 -39t-78.5 -14q-35 0 -60 8t-41 22.5t-23.5 33.5t-7.5 40q0 34 18.5 60t53.5 46t85.5 36.5t115.5 32.5q-2 39 -16 63t-33 37.5t-40 18t-36 4.5q-26 0 -45.5 -8t-34 -20.5t-24.5 -27t-16 -27.5h-9v73q8 1 15 5t17 8q15 6 41 17.5t73 11.5
q55 0 89 -14t52.5 -37t24.5 -52.5t6 -60.5v-198q0 -20 9 -37.5t24 -17.5v-10h-97zM309 95v143l-10 -2q-24 -6 -58.5 -16t-65.5 -26t-53 -38t-22 -51q0 -32 26 -53t68 -21q33 0 58 14.5t46 37.5zM319 445l-121 59l-120 -59l-2 5l122 103l122 -103z" />
    <glyph glyph-name="acute" unicode="&#xb4;" horiz-adv-x="222" 
d="M24 448l142 107l26 -45l-165 -68z" />
    <glyph glyph-name="adieresis" unicode="&#xe4;" horiz-adv-x="457" 
d="M309 0v51l-5 -5q-25 -25 -57.5 -39t-78.5 -14q-35 0 -60 8t-41 22.5t-23.5 33.5t-7.5 40q0 34 18.5 60t53.5 46t85.5 36.5t115.5 32.5q-2 39 -16 63t-33 37.5t-40 18t-36 4.5q-26 0 -45.5 -8t-34 -20.5t-24.5 -27t-16 -27.5h-9v73q8 1 15 5t17 8q15 6 41 17.5t73 11.5
q55 0 89 -14t52.5 -37t24.5 -52.5t6 -60.5v-198q0 -20 9 -37.5t24 -17.5v-10h-97zM309 95v143l-10 -2q-24 -6 -58.5 -16t-65.5 -26t-53 -38t-22 -51q0 -32 26 -53t68 -21q33 0 58 14.5t46 37.5zM289 492q0 -14 -9 -23t-21 -9q-14 0 -23.5 9t-9.5 23t9.5 23t23.5 9
q12 0 21 -9t9 -23zM174 492q0 -14 -9 -23t-23 -9t-23 9t-9 23t9 23t23 9t23 -9t9 -23z" />
    <glyph glyph-name="ae" unicode="&#xe6;" horiz-adv-x="759" 
d="M546 28q22 0 46.5 6.5t45.5 18.5t37.5 29.5t22.5 39.5h10v-75q-7 0 -14.5 -4t-17.5 -10q-20 -12 -54 -25.5t-90 -13.5q-58 0 -106 22.5t-77 68.5q-8 -8 -18.5 -19t-18.5 -19q-24 -25 -56.5 -39t-79.5 -14q-35 0 -60 8t-40.5 22.5t-23 33.5t-7.5 40q0 34 18 60t53 46
t85.5 36.5t115.5 32.5q-2 39 -16 63t-33 37.5t-39.5 18t-36.5 4.5q-26 0 -45.5 -8t-33.5 -20.5t-24 -27t-16 -27.5h-9v73q8 1 15.5 4.5t15.5 8.5q11 8 38.5 18.5t75.5 10.5q67 0 102.5 -20.5t52.5 -52.5q26 31 67 52t98 21q50 0 86 -17t58.5 -47t33 -71t10.5 -90h-336v-9
q4 -33 16 -63t32.5 -53t49 -36.5t67.5 -13.5zM525 395q-33 0 -58.5 -13t-43 -33.5t-28 -47t-14.5 -53.5v-9h274q-1 29 -8.5 57t-23.5 50t-40 35.5t-58 13.5zM336 111q-19 47 -19 105v12.5t1 12.5l-11 -4q-24 -6 -58 -16t-65.5 -26t-53.5 -38t-22 -52q0 -32 26 -52.5
t68 -20.5q34 0 58 15t46 35z" />
    <glyph glyph-name="agrave" unicode="&#xe0;" horiz-adv-x="457" 
d="M309 0v51l-5 -5q-25 -25 -57.5 -39t-78.5 -14q-35 0 -60 8t-41 22.5t-23.5 33.5t-7.5 40q0 34 18.5 60t53.5 46t85.5 36.5t115.5 32.5q-2 39 -16 63t-33 37.5t-40 18t-36 4.5q-26 0 -45.5 -8t-34 -20.5t-24.5 -27t-16 -27.5h-9v73q8 1 15 5t17 8q15 6 41 17.5t73 11.5
q55 0 89 -14t52.5 -37t24.5 -52.5t6 -60.5v-198q0 -20 9 -37.5t24 -17.5v-10h-97zM309 95v143l-10 -2q-24 -6 -58.5 -16t-65.5 -26t-53 -38t-22 -51q0 -32 26 -53t68 -21q33 0 58 14.5t46 37.5zM310 442l-166 68l26 45l142 -107z" />
    <glyph glyph-name="ampersand" unicode="&#x26;" horiz-adv-x="768" 
d="M639 74q21 -18 40 -32q17 -12 35 -22t32 -10v-10h-56q-38 0 -67 14.5t-55 34.5l-99 78q-54 -73 -111.5 -104.5t-127.5 -31.5q-45 0 -80.5 13.5t-60 36t-37.5 52.5t-13 62q0 69 35 117.5t117 87.5q-48 40 -74 79t-26 81q0 29 11 55t31 45.5t46.5 31t58.5 11.5q38 0 67 -13
t49 -34t30 -48.5t10 -55.5q0 -37 -23 -77t-80 -73q46 -38 95 -79t97 -79q20 40 32.5 80t20 73.5t10 58.5t2.5 36q0 13 -10 23.5t-22 10.5v10h103v-10q-10 0 -20.5 -9.5t-12.5 -23.5q-6 -52 -17 -101q-9 -42 -24 -88t-37 -80q20 -19 43 -38t45 -37zM153 523q7 -35 39 -69
t69 -65q39 16 60 48.5t21 63.5q0 24 -7.5 47t-22 41.5t-37 30t-52.5 11.5q-33 0 -52.5 -26t-19.5 -62v-10t2 -10zM259 26q49 0 97.5 34t88.5 88q-55 46 -112 93.5t-112 92.5q-61 -29 -90 -72t-29 -87q0 -27 12 -53t33 -47t50 -34.5t62 -14.5z" />
    <glyph glyph-name="aring" unicode="&#xe5;" horiz-adv-x="457" 
d="M309 0v51l-5 -5q-25 -25 -57.5 -39t-78.5 -14q-35 0 -60 8t-41 22.5t-23.5 33.5t-7.5 40q0 34 18.5 60t53.5 46t85.5 36.5t115.5 32.5q-2 39 -16 63t-33 37.5t-40 18t-36 4.5q-26 0 -45.5 -8t-34 -20.5t-24.5 -27t-16 -27.5h-9v73q8 1 15 5t17 8q15 6 41 17.5t73 11.5
q55 0 89 -14t52.5 -37t24.5 -52.5t6 -60.5v-198q0 -20 9 -37.5t24 -17.5v-10h-97zM309 95v143l-10 -2q-24 -6 -58.5 -16t-65.5 -26t-53 -38t-22 -51q0 -32 26 -53t68 -21q33 0 58 14.5t46 37.5zM127 533q0 26 20.5 43t51.5 17t52 -17t21 -43t-21 -42.5t-52 -16.5t-51.5 16.5
t-20.5 42.5zM155 539q0 -21 15 -35.5t36 -14.5q17 0 28 11.5t11 29.5t-16 33t-36 15q-16 0 -27 -11.5t-11 -27.5z" />
    <glyph glyph-name="asciicircum" unicode="^" horiz-adv-x="403" 
d="M376 481l-40 -38l-137 139l-139 -139l-38 38l177 176z" />
    <glyph glyph-name="asciitilde" unicode="~" horiz-adv-x="556" 
d="M512 381q-16 -54 -48.5 -83.5t-80.5 -29.5q-36 0 -66.5 13t-58.5 29q-24 13 -47.5 24t-49.5 11q-15 0 -32 -2.5t-32.5 -9.5t-29 -20t-20.5 -33l-10 2q15 37 32 59.5t35 34.5t35.5 15.5t31.5 3.5q37 0 66 -13t57 -29q25 -14 49.5 -25.5t52.5 -11.5q15 0 30.5 3t30 10.5
t26 20.5t19.5 33z" />
    <glyph glyph-name="asterisk" unicode="*" horiz-adv-x="323" 
d="M157 664h2l22 -93l90 28l1 -2l-69 -65l69 -63l-1 -2l-90 27l-22 -92h-2l-22 92l-91 -27l-1 2l69 63l-69 65l1 2l91 -28z" />
    <glyph glyph-name="at" unicode="@" horiz-adv-x="883" 
d="M823 295q0 -52 -19 -104.5t-53.5 -95t-82.5 -69.5t-106 -27q-24 0 -40 10t-25 26t-13 36t-4 40v19q-15 -25 -36.5 -48t-45 -41t-47.5 -28.5t-44 -10.5q-13 0 -25.5 5.5t-22.5 17.5t-16 31.5t-6 46.5q0 67 20 122t53 93.5t76 59.5t89 21q17 0 33 -3.5t33 -10.5q2 3 2.5 7
t2.5 6q0 1 0.5 1.5t0.5 1.5q3 7 6.5 14t9.5 16l46 -6q-11 -23 -20.5 -55.5t-17.5 -70t-12.5 -77t-4.5 -74.5q0 -46 10 -77t34 -31q39 0 69.5 18.5t52 50t32.5 72t11 85.5q0 50 -15.5 100t-48 90t-83 65t-119.5 25q-71 0 -139.5 -32t-122 -88.5t-86.5 -132t-33 -162.5
q0 -77 26 -132t69 -91t99 -53t116 -17q66 0 131.5 21t119.5 59l6 -9q-21 -20 -51.5 -40t-69.5 -36t-85 -26t-97 -10q-68 0 -128 19.5t-105 59.5t-71.5 101.5t-26.5 145.5q0 91 36 174t98 146t143.5 100t173.5 37q82 0 143 -21.5t101 -59.5t59.5 -90t19.5 -114zM487 204
q8 41 15.5 72.5t19.5 66.5q-14 9 -30 13.5t-29 4.5q-35 0 -62.5 -25t-46.5 -61.5t-29 -77.5t-10 -74q0 -30 9 -42t20 -12q14 0 33.5 15t40 36t39 44t30.5 40z" />
    <glyph glyph-name="atilde" unicode="&#xe3;" horiz-adv-x="457" 
d="M309 0v51l-5 -5q-25 -25 -57.5 -39t-78.5 -14q-35 0 -60 8t-41 22.5t-23.5 33.5t-7.5 40q0 34 18.5 60t53.5 46t85.5 36.5t115.5 32.5q-2 39 -16 63t-33 37.5t-40 18t-36 4.5q-26 0 -45.5 -8t-34 -20.5t-24.5 -27t-16 -27.5h-9v73q8 1 15 5t17 8q15 6 41 17.5t73 11.5
q55 0 89 -14t52.5 -37t24.5 -52.5t6 -60.5v-198q0 -20 9 -37.5t24 -17.5v-10h-97zM309 95v143l-10 -2q-24 -6 -58.5 -16t-65.5 -26t-53 -38t-22 -51q0 -32 26 -53t68 -21q33 0 58 14.5t46 37.5zM323 545q-12 -45 -23.5 -59t-32.5 -14q-12 0 -27 6t-31 13.5t-31.5 14
t-28.5 6.5q-15 0 -25.5 -11t-23.5 -29l-5 1q14 42 32.5 59.5t38.5 17.5q12 0 26 -6t27.5 -13.5t27.5 -13.5t26 -6q16 0 27 10.5t19 24.5z" />
    <glyph glyph-name="b" unicode="b" horiz-adv-x="514" 
d="M259 427q54 0 93.5 -18t65.5 -48t39 -68.5t13 -78.5q0 -41 -13 -80.5t-39.5 -71t-65.5 -50.5t-90 -19q-38 0 -69 15.5t-49 37.5v-46h-98v10q7 0 13 6t10.5 14t6.5 17.5t2 17.5v510q0 17 -5 32t-29 16v10l100 31v-286q23 23 54.5 36t60.5 13zM269 27q36 2 62 17.5
t43.5 39.5t26 54.5t8.5 62.5q0 36 -10 70t-29.5 61t-48.5 43.5t-66 16.5q-21 0 -41 -9.5t-35.5 -25t-25 -37t-9.5 -45.5v-124q0 -29 11 -52t29 -39t40.5 -24.5t44.5 -8.5z" />
    <glyph glyph-name="backslash" unicode="\" horiz-adv-x="333" 
d="M5 704l37 10l282 -763l-37 -12z" />
    <glyph glyph-name="bar" unicode="|" horiz-adv-x="156" 
d="M45 -88v831h65v-831h-65z" />
    <glyph glyph-name="braceleft" unicode="{" horiz-adv-x="257" 
d="M239 -88q-47 0 -72 7.5t-37 27t-14 51.5t-2 82v108q0 34 -2.5 58t-13 40t-31.5 25t-58 12v10q37 3 58 12t31.5 25t13 40.5t2.5 57.5v121q0 45 2 74.5t14 47t37 24.5t70 7h12v-9q-28 0 -43.5 -7.5t-23.5 -20t-10 -30.5t-2 -40v-118q0 -41 -3 -72t-12.5 -54.5t-28 -39
t-49.5 -25.5q34 -9 53 -23t28 -36t10.5 -52.5t1.5 -70.5v-116q0 -24 2 -43.5t10 -33t23.5 -21t43.5 -8.5v-10h-10z" />
    <glyph glyph-name="braceright" unicode="}" horiz-adv-x="257" 
d="M5 -88v10q28 1 43.5 8.5t23.5 21t10 33t2 43.5v116q0 40 1.5 70.5t10.5 52.5t27.5 36t53.5 23q-32 9 -50.5 25t-28 39t-12 54.5t-2.5 72.5v118q0 22 -2 40t-10 30.5t-23.5 20t-43.5 7.5v9h12q46 0 71 -7t37 -24.5t14 -47t2 -74.5v-121q0 -33 2.5 -57.5t13 -40.5t31 -25
t57.5 -12v-10q-37 -3 -57.5 -12t-31 -25t-13 -40t-2.5 -58v-108q0 -50 -2 -82t-14 -51.5t-37.5 -27t-72.5 -7.5h-10z" />
    <glyph glyph-name="bracketleft" unicode="[" horiz-adv-x="168" 
d="M33 -88v830h123v-32h-68v-766h68v-32h-123z" />
    <glyph glyph-name="bracketright" unicode="]" horiz-adv-x="174" 
d="M14 -88v32h70v766h-70v32h125v-830h-125z" />
    <glyph glyph-name="brokenbar" unicode="&#xa6;" horiz-adv-x="159" 
d="M45 368v374h65v-374h-65zM110 286v-374h-65v374h65z" />
    <glyph glyph-name="bullet" unicode="&#x2022;" horiz-adv-x="207" 
d="M56 148v90h102v-90h-102z" />
    <glyph glyph-name="c" unicode="c" horiz-adv-x="436" 
d="M414 36q-8 0 -15 -3.5t-16 -8.5q-17 -10 -43 -20.5t-68 -10.5q-51 0 -94.5 16.5t-75 46t-49 69t-17.5 85.5q0 43 15.5 82t44.5 69t71.5 48t96.5 18q37 0 60 -8.5t39 -16.5q9 -5 17.5 -8t17.5 -3v-76h-10q-5 19 -18 33.5t-30 24.5t-37 15t-39 5q-41 0 -72 -14.5t-51 -38
t-30 -53.5t-10 -62q0 -37 12 -72.5t34.5 -63.5t54.5 -45t72 -17q28 0 51.5 8t40 21t26.5 28.5t12 29.5h10v-78z" />
    <glyph glyph-name="ccedilla" unicode="&#xe7;" horiz-adv-x="436" 
d="M262 -50q45 -5 65 -21.5t20 -36.5q0 -26 -29.5 -48.5t-83.5 -22.5q-7 0 -13 0.5t-12 1.5q-3 0 -7 0.5t-7 0.5v8h11q19 0 35.5 4.5t29 12.5t20 17.5t7.5 20.5q0 16 -20 31.5t-57 20.5l34 55q-48 3 -88 20t-69 46t-45.5 67t-16.5 83q0 43 15.5 82t44.5 69t71.5 48t96.5 18
q37 0 60 -8.5t39 -16.5q9 -5 17.5 -8t17.5 -3v-76h-10q-5 19 -18 33.5t-30 24.5t-37 15t-39 5q-41 0 -72 -14.5t-51 -38t-30 -53.5t-10 -62q0 -37 12 -72.5t34.5 -63.5t54.5 -45t72 -17h8q25 0 47 8t38 21t25.5 28.5t11.5 29.5h10v-78q-8 0 -15.5 -3.5t-16.5 -8.5
q-16 -8 -38 -18t-56 -12z" />
    <glyph glyph-name="cedilla" unicode="&#xb8;" horiz-adv-x="232" 
d="M107 -50q44 -5 64 -21.5t20 -36.5q0 -15 -9.5 -28t-26 -22.5t-37.5 -15.5t-44 -6q-19 0 -35 4v8h11q19 0 36 4.5t29.5 12.5t20 17.5t7.5 20.5q0 16 -20 31.5t-57 20.5l39 63h33z" />
    <glyph glyph-name="cent" unicode="&#xa2;" horiz-adv-x="436" 
d="M231 -88v84q-42 7 -78 25.5t-62 47t-40.5 64.5t-14.5 77q0 39 13.5 75.5t38.5 65.5t61 48.5t82 25.5v79h39v-77q32 -2 55 -9t37 -15q10 -5 18.5 -8.5t17.5 -3.5v-76h-10q-5 18 -17.5 32t-28.5 23.5t-35 15.5t-37 7v-366h12q25 0 47 8t38 21t25.5 28.5t11.5 29.5h10v-78
q-7 0 -14 -3.5t-16 -8.5h-1q-17 -10 -44.5 -20t-68.5 -11v-81h-39zM101 225q0 -30 9.5 -60.5t27 -56.5t41 -46t52.5 -30v358q-32 -6 -56.5 -22t-41 -38.5t-24.5 -49.5t-8 -55z" />
    <glyph glyph-name="circumflex" unicode="&#x2c6;" horiz-adv-x="268" 
d="M257 445l-121 59l-120 -59l-2 5l122 103l122 -103z" />
    <glyph glyph-name="colon" unicode=":" horiz-adv-x="201" 
d="M52 339q0 20 13.5 34t33.5 14t34 -14t14 -34t-14 -33.5t-34 -13.5t-33.5 13.5t-13.5 33.5zM52 43q0 20 13.5 34t33.5 14t34 -14t14 -34t-14 -33.5t-34 -13.5t-33.5 13.5t-13.5 33.5z" />
    <glyph glyph-name="comma" unicode="," horiz-adv-x="121" 
d="M54 93q29 0 42.5 -20t13.5 -46q0 -15 -4 -33.5t-15.5 -37t-33 -37t-56.5 -34.5l-5 9q20 18 31.5 32.5t17 26t7 21.5t1.5 21q0 8 -5 12.5t-11 8.5q-8 5 -16 11.5t-8 22.5q0 19 12 31t29 12z" />
    <glyph glyph-name="copyright" unicode="&#xa9;" horiz-adv-x="746" 
d="M41 326q0 69 25.5 129t70 104.5t104.5 70t128 25.5t128 -25.5t104.5 -70t70 -104.5t25.5 -129q0 -68 -25.5 -127.5t-70 -104t-104.5 -70t-128 -25.5t-128 25.5t-104.5 70t-70 104t-25.5 127.5zM82 326q0 -59 23 -111.5t62 -92t91 -62.5t111 -23t111 23t91 62.5t62 92
t23 111.5q0 60 -23 113t-62 93t-91 63t-111 23t-111 -23t-91 -63t-62 -93t-23 -113zM514 168q-7 0 -13.5 -3.5t-14.5 -8.5q-15 -9 -38 -18.5t-65 -9.5q-47 0 -86.5 15.5t-68.5 42.5t-45.5 63.5t-16.5 78.5q0 40 14 76t41 63.5t66 44t89 16.5q33 0 54 -6.5t36 -14.5
q9 -5 17 -8t16 -3v-71h-10q-5 17 -16.5 30.5t-27.5 22.5t-34 14t-35 5q-38 0 -65 -13.5t-44.5 -35t-25.5 -49.5t-8 -58q0 -33 10 -65.5t29.5 -58t48 -41.5t64.5 -16q26 0 47.5 7.5t36.5 19t24 25.5t11 28l10 -1v-71z" />
    <glyph glyph-name="currency" unicode="&#xa4;" horiz-adv-x="734" 
d="M159 161q-20 21 -38.5 60t-18.5 99q0 61 18.5 100.5t38.5 60.5l-62 60l44 44l62 -61q37 30 79 43.5t80 13.5t80.5 -13.5t78.5 -43.5l62 61l44 -44l-62 -60q20 -21 38.5 -60.5t18.5 -100.5q0 -60 -18.5 -99t-38.5 -60l62 -61l-44 -43l-62 61q-36 -30 -78.5 -43.5
t-80.5 -13.5t-80 13.5t-79 43.5l-62 -61l-44 43zM151 320q0 -44 16.5 -82t45.5 -66.5t67 -45t82 -16.5t82.5 16.5t67 45t45 66.5t16.5 82t-16.5 82.5t-45 67t-67 45t-82.5 16.5t-82 -16.5t-67 -45t-45.5 -67t-16.5 -82.5z" />
    <glyph glyph-name="d" unicode="d" horiz-adv-x="513" 
d="M363 0v44q-17 -19 -45.5 -35t-71.5 -16q-53 0 -92.5 18.5t-65.5 48.5t-38.5 68.5t-12.5 79.5q0 40 13 79.5t39 70.5t65 50t90 19q34 0 67 -12.5t52 -32.5v195q0 17 -5 32t-29 16v10l100 31v-601q0 -8 2 -17.5t6 -17.5t10 -14t14 -6v-10h-98zM253 26q21 0 41 8.5t35 23
t24.5 34t9.5 42.5v137q0 28 -12 50.5t-30 38.5t-39.5 24.5t-41.5 8.5q-33 0 -59 -15.5t-44 -40t-27 -55t-9 -60.5q0 -35 10 -69.5t29.5 -62t47.5 -45.5t65 -19z" />
    <glyph glyph-name="dagger" unicode="&#x2020;" horiz-adv-x="467" 
d="M255 495h170v-50h-170v-533h-49v533h-169v50h169v169h49v-169z" />
    <glyph glyph-name="daggerdbl" unicode="&#x2021;" horiz-adv-x="467" 
d="M255 495h170v-50h-170v-315h170v-49h-170v-169h-49v169h-169v49h169v315h-169v50h169v169h49v-169z" />
    <glyph glyph-name="degree" unicode="&#xb0;" horiz-adv-x="244" 
d="M25 571q0 41 27.5 69t68.5 28q20 0 37.5 -7.5t31 -20.5t21 -31t7.5 -38q0 -41 -28.5 -68.5t-68.5 -27.5q-41 0 -68.5 27.5t-27.5 68.5zM59 571q0 -26 18 -44t44 -18q25 0 43.5 18t18.5 44t-18.5 45t-43.5 19q-26 0 -44 -19t-18 -45z" />
    <glyph glyph-name="dieresis" unicode="&#xa8;" horiz-adv-x="179" 
d="M179 478q0 -14 -9 -23t-21 -9q-14 0 -23.5 9t-9.5 23t9.5 23t23.5 9q12 0 21 -9t9 -23zM64 478q0 -14 -9 -23t-23 -9t-23 9t-9 23t9 23t23 9t23 -9t9 -23z" />
    <glyph glyph-name="divide" unicode="&#xf7;" horiz-adv-x="495" 
d="M22 302v49h423v-49h-423zM179 480q0 20 13.5 33.5t32.5 13.5q20 0 34 -13.5t14 -33.5t-14 -34t-34 -14q-19 0 -32.5 14t-13.5 34zM179 183q0 20 13.5 34t32.5 14q20 0 34 -14t14 -34t-14 -33.5t-34 -13.5q-19 0 -32.5 13.5t-13.5 33.5z" />
    <glyph glyph-name="dollar" unicode="$" horiz-adv-x="490" 
d="M223 -88v80q-35 2 -64.5 8.5t-51.5 14.5q-15 5 -29 8.5t-26 3.5v113h10q0 -38 19.5 -60t45.5 -34t52 -15.5t38 -3.5h6v288q-33 12 -66.5 26.5t-60.5 35t-43.5 50t-16.5 71.5q0 41 15.5 72t42 52t60 32.5t69.5 13.5v75h34v-75q39 -3 74 -11q17 -4 33 -6.5t31 -2.5v-103
h-10q-2 47 -36 66.5t-92 21.5v-261q34 -13 68.5 -28t62 -37.5t44.5 -53.5t17 -76t-16.5 -77.5t-43.5 -55t-61.5 -34.5t-70.5 -16v-82h-34zM381 169q0 26 -10.5 46.5t-28 36.5t-40 28.5t-45.5 22.5v-273q31 6 54.5 20t39 33t23 41.5t7.5 44.5zM104 507q0 -24 9.5 -42.5
t26 -33t38 -25.5t45.5 -21v248q-34 -3 -56.5 -17.5t-36.5 -33t-20 -39t-6 -36.5z" />
    <glyph glyph-name="e" unicode="e" 
d="M100 202q4 -35 17 -66.5t34.5 -55.5t52.5 -38.5t72 -14.5q22 0 46.5 6.5t45.5 18.5t37.5 29.5t22.5 39.5h9v-75q-6 0 -13.5 -4t-17.5 -10q-20 -12 -54 -25.5t-90 -13.5q-45 0 -85.5 13t-71.5 40t-49.5 69t-18.5 100q0 37 12.5 75t38 68.5t65.5 49.5t96 19q50 0 87.5 -17
t62 -47t36.5 -71t12 -90h-347zM245 394q-35 0 -60.5 -14t-43.5 -36t-28 -50t-13 -56h285q-1 29 -10.5 57t-26.5 50t-43 35.5t-60 13.5z" />
    <glyph glyph-name="eacute" unicode="&#xe9;" 
d="M100 202q4 -35 17 -66.5t34.5 -55.5t52.5 -38.5t72 -14.5q22 0 46.5 6.5t45.5 18.5t37.5 29.5t22.5 39.5h9v-75q-6 0 -13.5 -4t-17.5 -10q-20 -12 -54 -25.5t-90 -13.5q-45 0 -85.5 13t-71.5 40t-49.5 69t-18.5 100q0 37 12.5 75t38 68.5t65.5 49.5t96 19q50 0 87.5 -17
t62 -47t36.5 -71t12 -90h-347zM245 394q-35 0 -60.5 -14t-43.5 -36t-28 -50t-13 -56h285q-1 29 -10.5 57t-26.5 50t-43 35.5t-60 13.5zM168 481l142 107l26 -45l-165 -68z" />
    <glyph glyph-name="ecircumflex" unicode="&#xea;" 
d="M100 202q4 -35 17 -66.5t34.5 -55.5t52.5 -38.5t72 -14.5q22 0 46.5 6.5t45.5 18.5t37.5 29.5t22.5 39.5h9v-75q-6 0 -13.5 -4t-17.5 -10q-20 -12 -54 -25.5t-90 -13.5q-45 0 -85.5 13t-71.5 40t-49.5 69t-18.5 100q0 37 12.5 75t38 68.5t65.5 49.5t96 19q50 0 87.5 -17
t62 -47t36.5 -71t12 -90h-347zM245 394q-35 0 -60.5 -14t-43.5 -36t-28 -50t-13 -56h285q-1 29 -10.5 57t-26.5 50t-43 35.5t-60 13.5zM374 480l-121 59l-120 -59l-2 5l122 103l122 -103z" />
    <glyph glyph-name="edieresis" unicode="&#xeb;" 
d="M100 202q4 -35 17 -66.5t34.5 -55.5t52.5 -38.5t72 -14.5q22 0 46.5 6.5t45.5 18.5t37.5 29.5t22.5 39.5h9v-75q-6 0 -13.5 -4t-17.5 -10q-20 -12 -54 -25.5t-90 -13.5q-45 0 -85.5 13t-71.5 40t-49.5 69t-18.5 100q0 37 12.5 75t38 68.5t65.5 49.5t96 19q50 0 87.5 -17
t62 -47t36.5 -71t12 -90h-347zM245 394q-35 0 -60.5 -14t-43.5 -36t-28 -50t-13 -56h285q-1 29 -10.5 57t-26.5 50t-43 35.5t-60 13.5zM339 511q0 -14 -9 -23t-21 -9q-14 0 -23.5 9t-9.5 23t9.5 23t23.5 9q12 0 21 -9t9 -23zM224 511q0 -14 -9 -23t-23 -9t-23 9t-9 23t9 23
t23 9t23 -9t9 -23z" />
    <glyph glyph-name="egrave" unicode="&#xe8;" 
d="M100 202q4 -35 17 -66.5t34.5 -55.5t52.5 -38.5t72 -14.5q22 0 46.5 6.5t45.5 18.5t37.5 29.5t22.5 39.5h9v-75q-6 0 -13.5 -4t-17.5 -10q-20 -12 -54 -25.5t-90 -13.5q-45 0 -85.5 13t-71.5 40t-49.5 69t-18.5 100q0 37 12.5 75t38 68.5t65.5 49.5t96 19q50 0 87.5 -17
t62 -47t36.5 -71t12 -90h-347zM245 394q-35 0 -60.5 -14t-43.5 -36t-28 -50t-13 -56h285q-1 29 -10.5 57t-26.5 50t-43 35.5t-60 13.5zM329 464l-166 68l26 45l142 -107z" />
    <glyph glyph-name="eight" unicode="8" horiz-adv-x="503" 
d="M456 163q0 -44 -17.5 -76.5t-47 -54t-68.5 -32t-83 -10.5q-41 0 -80 10.5t-70 32t-49.5 53.5t-18.5 75q0 57 34 102.5t108 67.5q-57 26 -83.5 60.5t-26.5 84.5q0 37 15.5 64.5t41 46.5t58.5 28.5t67 9.5t67.5 -9.5t59.5 -28.5t42.5 -47.5t16.5 -66.5q0 -45 -30 -84
t-78 -59q62 -18 102 -59.5t40 -107.5zM364 458q0 30 -12.5 55t-32.5 42.5t-45.5 27t-51.5 9.5q-20 0 -39 -6t-34 -18t-24.5 -30t-9.5 -42q0 -27 13 -50t34.5 -41t49 -31.5t55.5 -22.5q45 18 71 45t26 62zM406 142q0 28 -15 53t-42 45.5t-62.5 37t-74.5 28.5q-26 -9 -49 -22
t-40 -30t-27 -37t-10 -43q0 -30 14 -57t37 -47.5t53 -31.5t62 -11q27 0 54.5 8.5t49 23t36 35.5t14.5 48z" />
    <glyph glyph-name="ellipsis" unicode="&#x2026;" horiz-adv-x="612" 
d="M52 43q0 20 13.5 34t33.5 14t34 -14t14 -34t-14 -33.5t-34 -13.5t-33.5 13.5t-13.5 33.5zM253 43q0 20 13 34t33 14t34 -14t14 -34t-14 -33.5t-34 -13.5t-33 13.5t-13 33.5zM458 43q0 20 13 34t33 14t34 -14t14 -34t-14 -33.5t-34 -13.5t-33 13.5t-13 33.5z" />
    <glyph glyph-name="emdash" unicode="&#x2014;" horiz-adv-x="891" 
d="M30 206v50h838v-50h-838z" />
    <glyph glyph-name="endash" unicode="&#x2013;" horiz-adv-x="534" 
d="M50 206v50h423v-50h-423z" />
    <glyph glyph-name="equal" unicode="=" horiz-adv-x="467" 
d="M35 380v50h390v-50h-390zM35 230v48h390v-48h-390z" />
    <glyph glyph-name="eth" unicode="&#xf0;" horiz-adv-x="521" 
d="M287 575q43 -30 78.5 -68t61 -83.5t39.5 -97t14 -108.5q0 -43 -12 -84t-38.5 -73.5t-69 -52t-103.5 -19.5q-50 0 -90 16.5t-68.5 45t-44 67.5t-15.5 85q0 49 17 89.5t47 69.5t71 45t89 16q62 0 109 -25q-23 47 -48.5 80.5t-62.5 62.5q-17 -20 -33.5 -43t-32.5 -44h-52
l86 112q-40 26 -88 46.5t-101 26.5v9h19q49 0 99 -14.5t93 -37.5l48 63h53zM267 22q37 0 65.5 16t47.5 41.5t28.5 57.5t9.5 64q0 33 -10 66.5t-31 61t-52.5 44.5t-73.5 17q-36 0 -63.5 -15.5t-46 -40.5t-28 -56.5t-9.5 -63.5q0 -37 11.5 -71.5t33 -61.5t51.5 -43t67 -16z
" />
    <glyph glyph-name="exclam" unicode="!" horiz-adv-x="251" 
d="M58 659h129v-10q-13 0 -20 -18.5t-8 -33.5l-26 -483h-12l-30 483q0 7 -2.5 16t-6.5 17t-10 13.5t-14 5.5v10zM80 38q0 20 13.5 34t33.5 14t33.5 -14t13.5 -34t-13.5 -33.5t-33.5 -13.5t-33.5 13.5t-13.5 33.5z" />
    <glyph glyph-name="exclamdown" unicode="&#xa1;" horiz-adv-x="251" 
d="M132 528l27 -466q0 -8 2 -17t6 -16.5t10 -13t13 -5.5v-10h-132v10q8 0 14 5.5t10 13.5t6.5 17t2.5 16l31 466h10zM80 621q0 20 13.5 33.5t33.5 13.5t33.5 -13.5t13.5 -33.5t-13.5 -34t-33.5 -14t-33.5 14t-13.5 34z" />
    <glyph glyph-name="f" unicode="f" horiz-adv-x="280" 
d="M138 386v-321q0 -8 2 -17.5t6.5 -17.5t10 -14t13.5 -6v-10h-130v10q7 0 13 6t10.5 14t6.5 17.5t2 17.5v321h-50v34h50v81q0 31 2 60t12 52t30.5 37t56.5 14q20 0 34.5 -4.5t25 -10t17.5 -10t12 -4.5v-73h-9q-5 29 -26 48.5t-42 19.5q-29 0 -38 -30.5t-9 -84.5v-95h113
v-34h-113z" />
    <glyph glyph-name="five" unicode="5" horiz-adv-x="439" 
d="M394 187q0 -35 -13.5 -70.5t-40.5 -63.5t-68.5 -45.5t-96.5 -17.5q-27 0 -53 6t-49 12q-17 5 -31 8.5t-25 3.5v79q26 -35 68.5 -55t85.5 -20q39 0 68 12t48.5 32.5t29 49t9.5 61.5q0 40 -13.5 70t-35.5 50.5t-50.5 30.5t-57.5 10q-32 0 -70 -14.5t-78 -45.5l128 335h250
l-20 -56h-209q-17 -45 -36.5 -93t-36.5 -94q24 11 45 15t45 4q40 0 77 -14t66 -40t46.5 -64t17.5 -86z" />
    <glyph glyph-name="florin" unicode="&#x192;" horiz-adv-x="516" 
d="M430 664q25 0 39 -6.5t23 -13.5l1 -1q5 -3 9 -5.5t9 -2.5l-18 -73h-9v5q0 26 -15 44.5t-35 18.5q-29 0 -44 -30.5t-29 -84.5l-24 -95h113l-7 -34h-114l-92 -370q-8 -30 -17 -59t-24 -52.5t-38 -37.5t-59 -14q-26 0 -40 6.5t-23 13.5q-5 3 -9 6t-9 3l16 72h9v-5
q0 -26 16 -44t36 -18q29 0 44 30.5t29 84.5l95 384h-98l8 34h98q5 20 10.5 40.5t10.5 40.5q7 30 16 59.5t24 52.5t38.5 37t59.5 14z" />
    <glyph glyph-name="four" unicode="4" horiz-adv-x="420" 
d="M239 0v10q14 0 21.5 4.5t11 12t4 17t0.5 19.5v98h-273l338 479v-429h61v-50h-61v-98q0 -20 7.5 -36.5t31.5 -16.5v-10h-141zM276 491q-50 -71 -99.5 -140t-99.5 -140h199v280z" />
    <glyph glyph-name="g" unicode="g" horiz-adv-x="495" 
d="M253 -186q30 0 57 5.5t47.5 15.5t32.5 24t12 30q0 17 -16.5 29t-44.5 21t-65 15.5t-77 13.5l-51 9q-23 -18 -32 -38t-9 -35q0 -21 11.5 -37.5t31 -28.5t46 -18t57.5 -6zM308 14q40 -6 66.5 -16t42.5 -23.5t22 -30t6 -35.5q0 -34 -18.5 -59t-48 -41.5t-67 -24.5t-76.5 -8
q-38 0 -73 7.5t-62 22.5t-43 37.5t-16 51.5q0 26 16 49.5t52 46.5q-35 18 -53.5 48.5t-18.5 62.5q0 19 9 37.5t29 34.5q-17 20 -24 40t-7 43q0 36 15 67t41 54t61 36t75 13q42 0 80 -14.5t64 -37.5h72v-36h-46q7 -15 14 -35.5t7 -42.5q0 -32 -15 -60.5t-41.5 -50t-62 -34
t-75.5 -12.5q-37 0 -72 11t-62 32q-11 -7 -15 -17.5t-4 -21.5q0 -32 29 -49.5t74 -24.5zM224 392q-24 0 -45 -8.5t-37 -23.5t-25.5 -36.5t-9.5 -48.5q0 -33 13.5 -59t34.5 -43t46.5 -26t48.5 -9q25 0 45.5 9.5t35.5 26t23 38.5t8 46q0 30 -12 55t-31.5 42.5t-44.5 27
t-50 9.5z" />
    <glyph glyph-name="germandbls" unicode="&#xdf;" horiz-adv-x="523" 
d="M452 504q0 -48 -26 -83.5t-73 -61.5q67 -29 98 -75t31 -100q0 -39 -16 -72.5t-47 -58.5t-75.5 -39t-102.5 -14v10q39 0 71 14.5t54.5 37.5t34.5 52t12 58q0 34 -15 64.5t-40 53.5t-58.5 36.5t-70.5 13.5h-21v35h26q30 0 57 8.5t48 24.5t33.5 39t12.5 53q0 62 -33 95
t-84 33q-54 0 -89.5 -39.5t-35.5 -112.5v-411q0 -8 2.5 -17.5t6.5 -17.5t10 -14t14 -6v-10h-132v10q7 0 13 5.5t10.5 14t6.5 18t2 17.5v419q0 44 16 78t43 56.5t61.5 34t71.5 11.5q34 0 67 -9.5t59 -29.5t42 -50t16 -71z" />
    <glyph glyph-name="grave" unicode="`" horiz-adv-x="222" 
d="M190 442l-166 68l26 45l142 -107z" />
    <glyph glyph-name="greater" unicode="&#x3e;" horiz-adv-x="467" 
d="M35 139v61l320 126q-81 32 -160.5 64t-159.5 64v60l392 -161v-53z" />
    <glyph glyph-name="guillemotleft" unicode="&#xab;" horiz-adv-x="390" 
d="M333 43l-8 -5l-136 178l139 179l6 -5l-78 -173zM195 43l-8 -5l-138 178l140 178l8 -5l-78 -172z" />
    <glyph glyph-name="guillemotright" unicode="&#xbb;" horiz-adv-x="390" 
d="M129 219l-78 172l8 4l140 -177l-138 -178l-8 5zM267 219l-76 172l8 4l137 -177l-136 -178l-8 5z" />
    <glyph glyph-name="guilsinglleft" unicode="&#x2039;" horiz-adv-x="249" 
d="M193 46l-6 -5l-139 179l141 178l6 -4l-77 -173z" />
    <glyph glyph-name="guilsinglright" unicode="&#x203a;" horiz-adv-x="249" 
d="M129 221l-79 172l8 4l139 -177l-137 -178l-8 5z" />
    <glyph glyph-name="h" unicode="h" horiz-adv-x="532" 
d="M447 65q0 -8 2 -17.5t6.5 -17.5t10 -14t13.5 -6v-10h-129v10q7 0 13 6t10.5 14t6.5 17.5t2 17.5v186q0 36 -10 63t-27 45t-38.5 26.5t-43.5 8.5t-43.5 -8.5t-38 -23.5t-27 -36.5t-10.5 -47.5v-213q0 -8 2 -17.5t6.5 -17.5t10 -14t13.5 -6v-10h-130v10q7 0 13 6t10.5 14
t6.5 17.5t2 17.5v511q0 17 -5 32t-29 16v10l100 31v-289q7 8 18 17.5t26.5 18t36 14t48.5 5.5q47 0 80 -16t54 -41.5t30.5 -56t9.5 -59.5v-193z" />
    <glyph glyph-name="hyphen" unicode="-" horiz-adv-x="298" 
d="M29 206v50h227v-50h-227z" />
    <glyph glyph-name="i" unicode="i" horiz-adv-x="251" 
d="M59 0v10q8 0 14 6t10 14t6 17.5t2 17.5v277q0 17 -5 32.5t-29 16.5v9l100 32v-367q0 -8 2 -17.5t6 -17.5t10 -14t14 -6v-10h-130zM64 528q0 20 13.5 34t33.5 14t34 -14t14 -34t-14 -33t-34 -13t-33.5 13t-13.5 33z" />
    <glyph glyph-name="iacute" unicode="&#xed;" horiz-adv-x="251" 
d="M61 2v6q8 1 14 7t10 15t6 18.5t2 16.5v277q0 17 -5.5 33t-28.5 18v5l96 32v-365q0 -7 2 -16.5t6 -18.5t10 -15t14 -7v-6h-126zM25 448l142 107l26 -45l-165 -68z" />
    <glyph glyph-name="icircumflex" unicode="&#xee;" horiz-adv-x="251" 
d="M59 0v10q8 0 14 6t10 14t6 17.5t2 17.5v277q0 17 -5 32.5t-29 16.5v9l100 32v-367q0 -8 2 -17.5t6 -17.5t10 -14t14 -6v-10h-130zM246 445l-121 59l-120 -59l-2 5l122 103l122 -103z" />
    <glyph glyph-name="idieresis" unicode="&#xef;" horiz-adv-x="251" 
d="M61 2v6q8 1 14 7t10 15t6 18.5t2 16.5v277q0 17 -5.5 33t-28.5 18v5l96 32v-365q0 -7 2 -16.5t6.5 -18.5t10 -15t13.5 -7v-6h-126zM214 478q0 -14 -9 -23t-22 -9q-14 0 -23 9t-9 23t9 23t23 9q13 0 22 -9t9 -23zM99 478q0 -14 -9 -23t-23 -9t-23 9t-9 23t9 23t23 9t23 -9
t9 -23z" />
    <glyph glyph-name="igrave" unicode="&#xec;" horiz-adv-x="251" 
d="M59 0v10q8 0 14 6t10 14t6 17.5t2 17.5v277q0 17 -5 32.5t-29 16.5v9l100 32v-367q0 -8 2 -17.5t6 -17.5t10 -14t14 -6v-10h-130zM199 442l-166 68l26 45l142 -107z" />
    <glyph glyph-name="j" unicode="j" horiz-adv-x="209" 
d="M151 431v-410q0 -31 -7.5 -57t-19.5 -48t-27 -39.5t-31 -31.5q-38 -33 -85 -53l-4 9q30 19 54 49q20 25 37.5 63.5t17.5 92.5v335q0 17 -5 32.5t-29 16.5v9zM63 528q0 20 14 34t34 14t33.5 -14t13.5 -34t-13.5 -33t-33.5 -13t-34 13t-14 33z" />
    <glyph glyph-name="k" unicode="k" horiz-adv-x="460" 
d="M378 0q-17 0 -31.5 7.5t-25.5 16.5q-13 11 -24 24l-129 166l-21 -21v-130q0 -7 2 -16t6.5 -17.5t10.5 -14t14 -5.5v-10h-130v10q7 0 13 5.5t10 13.5t6 17t2 17v509q0 14 -9 28t-24 15v10l99 31v-417l162 152q5 5 5 12t-7 7v10h90v-10q-6 0 -12.5 -3t-12.5 -7
q-7 -4 -14 -10l-142 -132l148 -187q13 -18 26 -31q11 -11 23.5 -20.5t21.5 -9.5v-10h-57z" />
    <glyph glyph-name="l" unicode="l" horiz-adv-x="231" 
d="M49 0v10q8 0 14 6t10.5 14t6.5 17.5t2 17.5v512q0 17 -5 32t-30 16v10l101 31v-601q0 -8 2 -17.5t6.5 -17.5t10 -14t13.5 -6v-10h-131z" />
    <glyph glyph-name="less" unicode="&#x3c;" horiz-adv-x="467" 
d="M35 300v53l392 161v-60l-321 -128q81 -31 160.5 -62.5t160.5 -63.5v-61z" />
    <glyph glyph-name="logicalnot" unicode="&#xac;" horiz-adv-x="467" 
d="M380 114v116h-343v48h387v-164h-44z" />
    <glyph glyph-name="m" unicode="m" horiz-adv-x="773" 
d="M685 65q0 -8 2 -17.5t6 -17.5t9.5 -14t13.5 -6v-10h-130v10q8 0 14 6t10.5 14t6.5 17.5t2 17.5v216q0 23 -6.5 44t-19.5 36.5t-32 25t-43 9.5q-27 0 -46.5 -12.5t-32 -30.5t-18.5 -36.5t-6 -30.5v-221q0 -8 2 -17.5t6.5 -17.5t10 -14t13.5 -6v-10h-129v10q7 0 13 6
t10.5 14t6.5 17.5t2 17.5v222q0 24 -8.5 44.5t-23 34.5t-33 22t-37.5 8q-26 0 -45.5 -10t-32 -25t-19 -32.5t-6.5 -33.5v-230q0 -8 2 -17.5t6.5 -17.5t10 -14t13.5 -6v-10h-129v10q7 0 13 6t10.5 14t6.5 17.5t2 17.5v267q0 8 -1 18t-4 19t-10 15t-19 6v9l99 33v-51
q15 17 41.5 33t69.5 16q28 0 50 -8t38.5 -20.5t28.5 -28.5t20 -31q8 15 19 30.5t26.5 28.5t37 21t50.5 8q56 0 88 -20t47.5 -48t19.5 -58.5t4 -51.5v-187z" />
    <glyph glyph-name="macron" unicode="&#xaf;" horiz-adv-x="266" 
d="M29 513h200v-40h-200v40z" />
    <glyph glyph-name="multiply" unicode="&#xd7;" horiz-adv-x="467" 
d="M267 327l120 -119l-35 -35l-120 120l-120 -120l-35 36l120 119q-8 7 -25 24.5t-36 36t-36 35.5t-24 25l35 35l120 -121l121 121l36 -36z" />
    <glyph glyph-name="n" unicode="n" horiz-adv-x="532" 
d="M447 65q0 -8 2 -17.5t6.5 -17.5t10 -14t13.5 -6v-10h-129v10q7 0 13 6t10.5 14t6.5 17.5t2 17.5v186q0 36 -10 63t-27 45t-38.5 26.5t-43.5 8.5t-43.5 -9t-38 -23.5t-27 -34t-10.5 -40.5v-222q0 -8 2 -17.5t6.5 -17.5t10 -14t13.5 -6v-10h-130v10q7 0 13 6t10.5 14
t6.5 17.5t2 17.5v276q0 17 -5 32.5t-29 16.5v9l100 32v-55q7 8 18 17.5t26.5 18t36 14t48.5 5.5q47 0 80 -16t54 -41.5t30.5 -56t9.5 -59.5v-193z" />
    <glyph glyph-name="nine" unicode="9" horiz-adv-x="491" 
d="M248 236q36 0 63 12.5t44.5 33.5t26 48t8.5 56q0 35 -10.5 70t-31 62.5t-50 45t-67.5 17.5q-34 0 -59.5 -13.5t-43 -36t-26 -51.5t-8.5 -59q0 -34 10.5 -67t30 -59.5t48 -42.5t65.5 -16zM107 71q16 -20 38.5 -32t42.5 -8q43 0 76 20t56.5 53t37 71.5t18.5 71.5
q-29 -26 -64.5 -36t-75.5 -10q-51 0 -89.5 17.5t-64 46t-38 65.5t-12.5 76t13 77t39 67.5t64.5 47.5t89.5 18q57 0 97.5 -21t66.5 -56.5t38.5 -82.5t12.5 -98q0 -66 -14 -132.5t-45.5 -119t-83 -85.5t-125.5 -33q-14 0 -35 3t-33 5q-7 1 -14.5 2t-5.5 1v72h10z" />
    <glyph glyph-name="ntilde" unicode="&#xf1;" horiz-adv-x="532" 
d="M447 65q0 -8 2 -17.5t6.5 -17.5t10 -14t13.5 -6v-10h-129v10q7 0 13 6t10.5 14t6.5 17.5t2 17.5v186q0 36 -10 63t-27 45t-38.5 26.5t-43.5 8.5t-43.5 -9t-38 -23.5t-27 -34t-10.5 -40.5v-222q0 -8 2 -17.5t6.5 -17.5t10 -14t13.5 -6v-10h-130v10q7 0 13 6t10.5 14
t6.5 17.5t2 17.5v276q0 17 -5 32.5t-29 16.5v9l100 32v-55q7 8 18 17.5t26.5 18t36 14t48.5 5.5q47 0 80 -16t54 -41.5t30.5 -56t9.5 -59.5v-193zM379 552q-12 -45 -23.5 -59t-32.5 -14q-12 0 -27 6t-31 13.5t-31.5 14t-28.5 6.5q-15 0 -25.5 -11t-23.5 -29l-5 1
q14 42 32.5 59.5t38.5 17.5q12 0 26 -6t27.5 -13.5t27.5 -13.5t26 -6q16 0 27 10.5t19 24.5z" />
    <glyph glyph-name="numbersign" unicode="#" horiz-adv-x="503" 
d="M215 452h107l31 203h50l-31 -203h97v-59h-106l-19 -130h98v-58h-105l-28 -205h-51l29 205h-109l-30 -205h-49l29 205h-101v58h110l18 130h-101v59h110l32 203h49zM186 263h111l18 130h-109z" />
    <glyph glyph-name="o" unicode="o" horiz-adv-x="523" 
d="M255 -7q-50 0 -90 16.5t-68.5 45t-44 67.5t-15.5 85q0 49 17 89.5t47 69.5t71 45t89 16t88 -15.5t69 -43.5t45 -66.5t16 -84.5q0 -43 -14.5 -83.5t-43 -71.5t-70 -50t-96.5 -19zM249 394q-36 -2 -63.5 -17.5t-46 -40t-28 -55.5t-9.5 -63q0 -37 11.5 -71.5t33 -61.5
t51.5 -43t67 -16t65.5 16t47.5 41.5t28.5 57.5t9.5 64q0 33 -10 66.5t-31 61t-52.5 44.5t-73.5 17z" />
    <glyph glyph-name="oacute" unicode="&#xf3;" horiz-adv-x="523" 
d="M255 -7q-50 0 -90 16.5t-68.5 45t-44 67.5t-15.5 85q0 49 17 89.5t47 69.5t71 45t89 16t88 -15.5t69 -43.5t45 -66.5t16 -84.5q0 -43 -14.5 -83.5t-43 -71.5t-70 -50t-96.5 -19zM249 394q-36 -2 -63.5 -17.5t-46 -40t-28 -55.5t-9.5 -63q0 -37 11.5 -71.5t33 -61.5
t51.5 -43t67 -16t65.5 16t47.5 41.5t28.5 57.5t9.5 64q0 33 -10 66.5t-31 61t-52.5 44.5t-73.5 17zM177 493l142 107l26 -45l-165 -68z" />
    <glyph glyph-name="ocircumflex" unicode="&#xf4;" horiz-adv-x="523" 
d="M255 -7q-50 0 -90 16.5t-68.5 45t-44 67.5t-15.5 85q0 49 17 89.5t47 69.5t71 45t89 16t88 -15.5t69 -43.5t45 -66.5t16 -84.5q0 -43 -14.5 -83.5t-43 -71.5t-70 -50t-96.5 -19zM249 394q-36 -2 -63.5 -17.5t-46 -40t-28 -55.5t-9.5 -63q0 -37 11.5 -71.5t33 -61.5
t51.5 -43t67 -16t65.5 16t47.5 41.5t28.5 57.5t9.5 64q0 33 -10 66.5t-31 61t-52.5 44.5t-73.5 17zM382 480l-121 59l-120 -59l-2 5l122 103l122 -103z" />
    <glyph glyph-name="odieresis" unicode="&#xf6;" horiz-adv-x="523" 
d="M255 -7q-50 0 -90 16.5t-68.5 45t-44 67.5t-15.5 85q0 49 17 89.5t47 69.5t71 45t89 16t88 -15.5t69 -43.5t45 -66.5t16 -84.5q0 -43 -14.5 -83.5t-43 -71.5t-70 -50t-96.5 -19zM249 394q-36 -2 -63.5 -17.5t-46 -40t-28 -55.5t-9.5 -63q0 -37 11.5 -71.5t33 -61.5
t51.5 -43t67 -16t65.5 16t47.5 41.5t28.5 57.5t9.5 64q0 33 -10 66.5t-31 61t-52.5 44.5t-73.5 17zM350 513q0 -14 -9 -23t-21 -9q-14 0 -23.5 9t-9.5 23t9.5 23t23.5 9q12 0 21 -9t9 -23zM235 513q0 -14 -9 -23t-23 -9t-23 9t-9 23t9 23t23 9t23 -9t9 -23z" />
    <glyph glyph-name="oe" unicode="&#x153;" horiz-adv-x="840" 
d="M632 27q22 0 44.5 6.5t42 18.5t34 29.5t20.5 39.5h10v-75q-7 0 -14 -4t-16 -10q-17 -12 -48 -25.5t-87 -13.5q-60 0 -107.5 24t-77.5 76q-27 -42 -70.5 -71.5t-109.5 -29.5q-50 0 -89 16.5t-65.5 45t-40 67.5t-13.5 85q0 49 15.5 89.5t43.5 69.5t67.5 45t87.5 16
q61 0 104 -25t71 -69q25 42 64.5 68.5t106.5 26.5q50 0 85.5 -17t58.5 -47t33.5 -71t10.5 -90h-327q3 -36 15.5 -67.5t33.5 -55.5t50.5 -38t66.5 -14zM601 394q-31 0 -55.5 -13t-41.5 -34.5t-27 -49.5t-11 -59h265q-1 29 -8.5 57t-23.5 50t-40 35.5t-58 13.5zM263 25
q37 0 63.5 16t43.5 41.5t25 57.5t8 64q0 33 -8.5 66.5t-27.5 61t-48.5 44.5t-71.5 17q-36 0 -62.5 -15.5t-43 -40.5t-24.5 -56.5t-8 -63.5q0 -37 10 -71.5t29.5 -61.5t48.5 -43t66 -16z" />
    <glyph glyph-name="ograve" unicode="&#xf2;" horiz-adv-x="523" 
d="M255 -7q-50 0 -90 16.5t-68.5 45t-44 67.5t-15.5 85q0 49 17 89.5t47 69.5t71 45t89 16t88 -15.5t69 -43.5t45 -66.5t16 -84.5q0 -43 -14.5 -83.5t-43 -71.5t-70 -50t-96.5 -19zM249 394q-36 -2 -63.5 -17.5t-46 -40t-28 -55.5t-9.5 -63q0 -37 11.5 -71.5t33 -61.5
t51.5 -43t67 -16t65.5 16t47.5 41.5t28.5 57.5t9.5 64q0 33 -10 66.5t-31 61t-52.5 44.5t-73.5 17zM343 484l-166 68l26 45l142 -107z" />
    <glyph glyph-name="one" unicode="1" horiz-adv-x="325" 
d="M104 0v10q24 0 30.5 14.5t6.5 34.5v479q0 10 -10 10q-4 0 -11 -3l-114 -36v36l233 81v-27q-16 -7 -25.5 -22t-7.5 -35v-479q0 -21 7 -37t32 -16v-10h-141z" />
    <glyph glyph-name="oslash" unicode="&#xf8;" horiz-adv-x="523" 
d="M255 -7q-27 0 -52 5.5t-47 15.5q-4 -5 -7.5 -12t-7.5 -12h-51l28 45q-38 29 -59.5 73.5t-21.5 98.5q0 49 17 89.5t47 69.5t71 45t89 16q25 0 49.5 -5.5t44.5 -13.5l14 22h51l-26 -42q37 -28 61 -72.5t24 -98.5q0 -43 -14.5 -83.5t-43 -71.5t-70 -50t-96.5 -19zM416 205
q0 35 -12.5 72.5t-38.5 65.5q-45 -72 -92 -145t-92 -145q38 -27 84 -27q37 0 65.5 16t47.5 41.5t28.5 57.5t9.5 64zM249 394q-36 -2 -63.5 -17.5t-46 -40t-28 -55.5t-9.5 -63q0 -37 12.5 -73t34.5 -62q45 71 91 144.5t91 144.5q-17 10 -38 16t-44 6z" />
    <glyph glyph-name="otilde" unicode="&#xf5;" horiz-adv-x="523" 
d="M255 -7q-50 0 -90 16.5t-68.5 45t-44 67.5t-15.5 85q0 49 17 89.5t47 69.5t71 45t89 16t88 -15.5t69 -43.5t45 -66.5t16 -84.5q0 -43 -14.5 -83.5t-43 -71.5t-70 -50t-96.5 -19zM249 394q-36 -2 -63.5 -17.5t-46 -40t-28 -55.5t-9.5 -63q0 -37 11.5 -71.5t33 -61.5
t51.5 -43t67 -16t65.5 16t47.5 41.5t28.5 57.5t9.5 64q0 33 -10 66.5t-31 61t-52.5 44.5t-73.5 17zM375 555q-12 -45 -23.5 -59t-32.5 -14q-12 0 -27 6t-31 13.5t-31.5 14t-28.5 6.5q-15 0 -25.5 -11t-23.5 -29l-5 1q14 42 32.5 59.5t38.5 17.5q12 0 26 -6t27.5 -13.5
t27.5 -13.5t26 -6q16 0 27 10.5t19 24.5z" />
    <glyph glyph-name="p" unicode="p" horiz-adv-x="515" 
d="M258 427q54 0 93.5 -18.5t66 -48.5t39.5 -69t13 -80q0 -40 -12.5 -79t-38 -70t-63.5 -50t-90 -19q-31 0 -63.5 16.5t-58.5 41.5v-196q0 -8 2 -17.5t6.5 -17.5t10 -14t13.5 -6v-10h-130v10q7 0 13 6t10.5 14t6.5 17.5t2 17.5v506q0 9 -0.5 17.5t-3.5 15t-9.5 11t-18.5 5.5
v10h98v-44q20 24 48.5 37.5t65.5 13.5zM267 27q35 1 61 16t43 39t25 53.5t8 61.5q0 36 -10 71t-29 62.5t-46.5 45t-62.5 17.5q-21 0 -41.5 -8t-36 -23t-25 -35.5t-9.5 -45.5v-131q0 -27 11 -49.5t28.5 -39t39.5 -25.5t44 -9z" />
    <glyph glyph-name="paragraph" unicode="&#xb6;" horiz-adv-x="477" 
d="M407 649q-7 0 -12.5 -5.5t-10 -13t-7 -17t-2.5 -16.5v-682q0 -8 2 -17t6.5 -17.5t10 -14t13.5 -5.5v-10h-254v10q7 1 13 6.5t10 13.5t6 17t2 17v404q-41 1 -71.5 15.5t-51.5 38.5t-31.5 54t-10.5 62q0 31 10.5 62t31 55t51.5 39t73 15h222v-11zM314 597q0 7 -2.5 16
t-7 17t-11 13.5t-14.5 5.5t-14 -5.5t-10.5 -13.5t-7 -17t-2.5 -16v-682q0 -8 3 -17t7.5 -17.5t11 -14t12.5 -5.5q8 0 14.5 5.5t11 14t7 17.5t2.5 17v682z" />
    <glyph glyph-name="parenleft" unicode="(" horiz-adv-x="220" 
d="M172 -91q-80 93 -121.5 194t-41.5 224q0 63 10.5 119t30.5 107t50.5 98t69.5 93l9 -5q-32 -45 -52 -94t-31.5 -101t-15.5 -107t-4 -111q0 -54 4 -108t15.5 -106.5t32 -102.5t53.5 -95z" />
    <glyph glyph-name="parenright" unicode=")" horiz-adv-x="220" 
d="M17 744q81 -92 122 -193t41 -225q0 -126 -41 -225.5t-120 -191.5l-9 5q32 45 52.5 94.5t32 101.5t15.5 106.5t4 110.5q0 54 -4 108.5t-16 107t-32.5 102t-53.5 94.5z" />
    <glyph glyph-name="percent" unicode="%" horiz-adv-x="768" 
d="M229 -25h-49l344 680h51zM489 143q0 -25 7.5 -47t20 -38t29 -25.5t35.5 -9.5q35 0 55 33.5t20 84.5q0 56 -26.5 90t-66.5 34q-34 0 -54 -32.5t-20 -89.5zM269 476q0 26 -7.5 48t-20.5 38.5t-30 26t-35 9.5q-35 0 -55 -33.5t-20 -84.5q0 -56 27.5 -91.5t65.5 -35.5
q34 0 54.5 33.5t20.5 89.5zM34 478q0 31 12 58.5t32 48.5t47.5 33t59.5 12t59.5 -12t48 -33t32.5 -48.5t12 -58.5q0 -32 -12 -59.5t-32.5 -48t-48 -32.5t-59.5 -12t-59.5 12t-47.5 32.5t-32 48t-12 59.5zM422 140q0 32 12 60t32 48.5t47.5 32.5t59.5 12q31 0 59 -12
t48.5 -32.5t32.5 -48.5t12 -60q0 -31 -12 -58.5t-32.5 -48t-48.5 -32.5t-59 -12q-32 0 -59.5 12t-47.5 32.5t-32 48t-12 58.5z" />
    <glyph glyph-name="period" unicode="." horiz-adv-x="201" 
d="M52 43q0 20 13.5 34t33.5 14t34 -14t14 -34t-14 -33.5t-34 -13.5t-33.5 13.5t-13.5 33.5z" />
    <glyph glyph-name="periodcentered" unicode="&#xb7;" horiz-adv-x="164" 
d="M41 192q0 20 13.5 34t33.5 14t34 -14t14 -34t-14 -33.5t-34 -13.5t-33.5 13.5t-13.5 33.5z" />
    <glyph glyph-name="perthousand" unicode="&#x2030;" horiz-adv-x="1153" 
d="M231 -25h-49l344 680h52zM491 143q0 -25 7.5 -47t20 -38t29 -25.5t35.5 -9.5q35 0 55 33.5t20 84.5q0 56 -26.5 90t-65.5 34q-34 0 -54.5 -32.5t-20.5 -89.5zM270 476q0 26 -7.5 48t-20 38.5t-29 26t-34.5 9.5q-35 0 -55 -33.5t-20 -84.5q0 -28 7.5 -51t20 -40
t29.5 -26.5t35 -9.5q34 0 54 33.5t20 89.5zM36 478q0 31 12 58.5t32.5 48.5t48 33t58.5 12t59 -12t49 -33t33 -48.5t12 -58.5q0 -32 -12 -59.5t-33 -48t-49 -32.5t-59 -12t-58.5 12t-48 32.5t-32.5 48t-12 59.5zM423 140q0 32 12 60t32.5 48.5t48.5 32.5t60 12
q31 0 58.5 -12t48.5 -32.5t33 -48.5t12 -60q0 -31 -12 -58.5t-33 -48t-48.5 -32.5t-58.5 -12q-32 0 -60 12t-48.5 32.5t-32.5 48t-12 58.5zM867 143q0 -25 7.5 -47t20 -38t29 -25.5t35.5 -9.5q35 0 55 33.5t20 84.5q0 56 -26.5 90t-66.5 34q-34 0 -54 -32.5t-20 -89.5z
M800 140q0 32 12 60t32 48.5t47.5 32.5t59.5 12q31 0 59 -12t48.5 -32.5t32.5 -48.5t12 -60q0 -31 -12 -58.5t-32.5 -48t-48.5 -32.5t-59 -12q-32 0 -59.5 12t-47.5 32.5t-32 48t-12 58.5z" />
    <glyph glyph-name="plus" unicode="+" horiz-adv-x="467" 
d="M255 352h170v-48h-170v-170h-49v170h-171v48h171v171h49v-171z" />
    <glyph glyph-name="plusminus" unicode="&#xb1;" horiz-adv-x="467" 
d="M35 92v48h392v-48h-392zM255 415h172v-49h-172v-169h-49v169h-171v49h171v170h49v-170z" />
    <glyph glyph-name="q" unicode="q" horiz-adv-x="514" 
d="M332 -200q8 0 14 6t10 14t6 17.5t2 17.5v189q-18 -23 -44 -37t-71 -14q-53 0 -92.5 18.5t-65.5 49.5t-38.5 70t-12.5 80q0 40 14.5 79t41 69.5t65 49t86.5 18.5q35 0 69.5 -16.5t54.5 -38.5l59 63v-580q0 -8 2 -17.5t6 -17.5t10 -14t14 -6v-10h-130v10zM255 27
q21 0 40.5 8.5t35 23t24.5 34t9 42.5v136q0 29 -11 51.5t-28 38t-39 23.5t-44 8q-33 0 -58.5 -14.5t-43 -38.5t-26.5 -54t-9 -61q0 -35 10 -70t29.5 -62.5t47 -45.5t63.5 -19z" />
    <glyph glyph-name="question" unicode="?" horiz-adv-x="409" 
d="M383 498q0 -30 -7.5 -50t-20.5 -35t-30 -26t-36 -21q-24 -14 -48.5 -30t-44 -44t-32 -71t-12.5 -90h-9l-15 112q-2 6 -2 14v14q0 26 9 45.5t24 35t33.5 28t36.5 24.5q33 20 59.5 42.5t26.5 57.5q0 55 -35 90.5t-96 35.5q-71 0 -109 -19t-40 -69h-10v105h24q5 0 9 1
q26 7 61.5 11.5t62.5 4.5q52 0 90 -14t62.5 -37t36.5 -53t12 -62zM197 30q0 -20 -13.5 -34.5t-33.5 -14.5q-21 0 -35 14.5t-14 34.5t14 34t35 14q20 0 33.5 -14t13.5 -34z" />
    <glyph glyph-name="questiondown" unicode="&#xbf;" horiz-adv-x="409" 
d="M25 156q0 30 7.5 50t20.5 35t30 25.5t36 21.5q24 13 48.5 29.5t44 44t32 70.5t12.5 95h9l15 -116q2 -6 2 -14v-14q0 -26 -9 -45.5t-24 -35t-33.5 -28t-36.5 -24.5q-33 -20 -59.5 -42.5t-26.5 -57.5q0 -55 35 -90.5t96 -35.5q72 0 109.5 18.5t39.5 68.5h10v-104h-24
q-5 0 -9 -1q-26 -7 -61.5 -11.5t-62.5 -4.5q-52 0 -90 14t-62.5 37t-36.5 53t-12 62zM211 615q0 20 13.5 34.5t33.5 14.5q21 0 35 -14.5t14 -34.5t-14 -34t-35 -14q-20 0 -33.5 14t-13.5 34z" />
    <glyph glyph-name="quotedbl" unicode="&#x22;" horiz-adv-x="259" 
d="M50 664h50v-244h-50v244zM156 664h50v-244h-50v244z" />
    <glyph glyph-name="quotedblbase" unicode="&#x201e;" horiz-adv-x="270" 
d="M55 93q29 0 42.5 -20t13.5 -46q0 -15 -4 -33t-16 -37t-33.5 -37.5t-55.5 -34.5l-6 9q20 18 31.5 32.5t17.5 26t7.5 21.5t1.5 21q0 8 -5.5 12.5t-10.5 7.5q-8 5 -16 12t-8 23q0 19 12 31t29 12zM203 93q29 0 42.5 -20t13.5 -46q0 -15 -4 -33t-16 -37t-33.5 -37.5
t-55.5 -34.5l-6 9q20 18 31.5 32.5t17.5 26t7.5 21.5t1.5 21q0 8 -5.5 12.5t-10.5 7.5q-8 5 -16 12t-8 23q0 19 12 31t29 12z" />
    <glyph glyph-name="quotedblleft" unicode="&#x201c;" horiz-adv-x="262" 
d="M184 457q-29 0 -42 20t-13 46q0 15 4 33t15.5 36.5t32.5 37t56 35.5l6 -9q-20 -19 -31.5 -33t-17.5 -26t-7.5 -22t-1.5 -21q0 -8 5 -11.5t11 -8.5q9 -6 16.5 -11.5t7.5 -22.5q0 -18 -12 -30.5t-29 -12.5zM52 457q-29 0 -42.5 20t-13.5 46q0 15 4 32.5t16 36.5t33 37.5
t56 35.5l6 -9q-20 -19 -31.5 -33t-17.5 -26t-7.5 -22t-1.5 -21q0 -8 4.5 -12t10.5 -7q8 -5 16.5 -11.5t8.5 -23.5q0 -18 -11.5 -30.5t-29.5 -12.5z" />
    <glyph glyph-name="quotedblright" unicode="&#x201d;" horiz-adv-x="262" 
d="M55 664q29 0 42.5 -19.5t13.5 -45.5q0 -16 -4 -34t-16 -36.5t-33.5 -37t-55.5 -35.5l-6 9q20 19 31.5 33t17.5 25.5t7.5 21.5t1.5 21q0 8 -4.5 12t-11.5 8q-8 5 -16 11.5t-8 23.5q0 19 12 31t29 12zM187 664q29 0 42.5 -19.5t13.5 -45.5q0 -16 -4 -34t-16 -36.5t-33 -37
t-55 -35.5l-6 9q19 19 30.5 33t17.5 25.5t7.5 21.5t1.5 21q0 8 -4.5 12t-11.5 8q-8 5 -16 12t-8 23q0 19 12 31t29 12z" />
    <glyph glyph-name="quoteleft" unicode="&#x2018;" horiz-adv-x="127" 
d="M61 456q-29 0 -42.5 20t-13.5 46q0 15 4 32.5t16 36.5t33 37.5t56 35.5l6 -9q-20 -19 -31.5 -33t-17.5 -26t-7.5 -22t-1.5 -21q0 -8 4.5 -11.5t11.5 -7.5q8 -5 16.5 -11.5t8.5 -23.5q0 -18 -12 -30.5t-30 -12.5z" />
    <glyph glyph-name="quoteright" unicode="&#x2019;" horiz-adv-x="127" 
d="M64 663q29 0 42.5 -19.5t13.5 -45.5q0 -16 -4 -34t-15.5 -37t-33 -37.5t-56.5 -34.5l-6 9q20 19 31.5 33t17.5 25.5t7.5 21.5t1.5 21q0 8 -4.5 12t-11.5 8q-8 5 -16 11.5t-8 23.5q0 19 12 31t29 12z" />
    <glyph glyph-name="quotesinglbase" unicode="&#x201a;" horiz-adv-x="121" 
d="M54 93q29 0 42.5 -20t13.5 -46q0 -15 -4 -33.5t-15.5 -37t-33 -37t-56.5 -34.5l-5 9q20 18 31.5 32.5t17 26t7 21.5t1.5 21q0 10 -6.5 14.5t-14 8.5t-13.5 10.5t-6 21.5q0 19 12 31t29 12z" />
    <glyph glyph-name="quotesingle" unicode="'" horiz-adv-x="151" 
d="M50 664h50v-244h-50v244z" />
    <glyph glyph-name="r" unicode="r" horiz-adv-x="337" 
d="M289 347q-12 20 -25 25t-30 5q-11 0 -23.5 -5t-24.5 -13t-23.5 -17.5t-19.5 -17.5v-260q0 -8 2 -17t6.5 -17.5t10 -14t13.5 -5.5v-10h-130v10q7 0 13 5.5t10.5 14t6.5 17.5t2 17v279q0 14 -9 28t-26 18v8l101 30v-60q9 11 19 21.5t22.5 19t27.5 14t35 5.5q14 0 36 -6
t36 -13z" />
    <glyph glyph-name="registered" unicode="&#xae;" horiz-adv-x="746" 
d="M41 326q0 69 25.5 129t70 104.5t104.5 70t128 25.5t128 -25.5t104.5 -70t70 -104.5t25.5 -129q0 -68 -25.5 -127.5t-70 -104t-104.5 -70t-128 -25.5t-128 25.5t-104.5 70t-70 104t-25.5 127.5zM82 326q0 -59 23 -111.5t62 -92t91 -62.5t111 -23t111 23t91 62.5t62 92
t23 111.5q0 60 -23 113t-62 93t-91 63t-111 23t-111 -23t-91 -63t-62 -93t-23 -113zM457 195q12 -19 30 -38.5t38 -19.5v-9h-21q-36 0 -60 15t-47 46l-42 66q-16 25 -28.5 45.5t-12.5 21.5h-23v-133q0 -7 2 -16t6 -17t9.5 -13.5t12.5 -5.5v-9h-116v9q7 0 12.5 5.5t9.5 13.5
t6 17t2 16v280q0 7 -2 15.5t-6 16t-9.5 12.5t-12.5 5v9h138q43 0 74.5 -8t51 -21.5t29 -30.5t9.5 -35q0 -20 -10 -38t-27.5 -33t-42 -25t-53.5 -13zM291 352h49q35 0 57.5 6.5t35 17.5t17.5 24t5 27q0 26 -28.5 48t-81.5 22h-54v-145z" />
    <glyph glyph-name="s" unicode="s" horiz-adv-x="411" 
d="M370 114q0 -26 -13 -48t-35.5 -38.5t-52.5 -26t-65 -9.5q-43 0 -70 11.5t-46 23.5q-13 8 -24 13.5t-24 5.5v76h10q3 -14 17.5 -30.5t35 -30.5t45 -23.5t49.5 -9.5q18 0 37 4t34.5 13t26 22.5t10.5 32.5t-11 33t-28 24.5t-39 18.5t-44 15q-26 8 -52.5 18t-47.5 23.5
t-34 33t-13 46.5q0 23 8.5 44t28 36.5t50.5 25t75 9.5q39 0 60.5 -6.5t35.5 -13.5q9 -5 18 -7.5t20 -2.5v-70h-8q-18 33 -55 50t-76 17q-25 0 -43 -6.5t-29.5 -16t-17 -21.5t-5.5 -24q0 -17 9.5 -29t26 -21t37 -17t43.5 -15q28 -9 56 -19.5t50 -25.5t36 -35.5t14 -49.5z" />
    <glyph glyph-name="scaron" unicode="&#x161;" horiz-adv-x="411" 
d="M370 114q0 -26 -13 -48t-35.5 -38.5t-52.5 -26t-65 -9.5q-43 0 -70 11.5t-46 23.5q-13 8 -24 13.5t-24 5.5v76h10q3 -14 17.5 -30.5t35 -30.5t45 -23.5t49.5 -9.5q18 0 37 4t34.5 13t26 22.5t10.5 32.5t-11 33t-28 24.5t-39 18.5t-44 15q-26 8 -52.5 18t-47.5 23.5
t-34 33t-13 46.5q0 23 8.5 44t28 36.5t50.5 25t75 9.5q39 0 60.5 -6.5t35.5 -13.5q9 -5 18 -7.5t20 -2.5v-70h-8q-18 33 -55 50t-76 17q-25 0 -43 -6.5t-29.5 -16t-17 -21.5t-5.5 -24q0 -17 9.5 -29t26 -21t37 -17t43.5 -15q28 -9 56 -19.5t50 -25.5t36 -35.5t14 -49.5z
M85 605l121 -57l119 57l2 -4l-121 -104l-124 104z" />
    <glyph glyph-name="section" unicode="&#xa7;" horiz-adv-x="377" 
d="M326 85q0 -27 -10 -51.5t-28 -43t-43 -29.5t-56 -11q-17 0 -33 4.5t-30 10.5q-11 7 -28 11t-33 4v81h9q2 -15 13.5 -29.5t28.5 -25.5t37 -17.5t39 -6.5q36 0 58 23t22 52q0 18 -10 34.5t-25.5 32.5t-34.5 30.5t-37 28.5q-22 16 -44 32.5t-39.5 35t-28.5 40t-11 46.5
q0 46 26 74.5t59 44.5q-12 10 -23.5 23t-21 27t-15.5 29.5t-6 31.5q0 28 10 52.5t28 43t43 29t56 10.5q23 0 43 -6t36 -14q22 -12 41 -12v-80h-10q-2 16 -13 30.5t-27 25t-35.5 17t-37.5 6.5q-35 0 -57.5 -22.5t-22.5 -51.5q0 -15 8.5 -30t22.5 -29t32 -28t36 -27
q23 -17 46 -35t41.5 -38.5t30 -44t11.5 -50.5q0 -47 -24 -75t-57 -43q23 -20 43.5 -47.5t20.5 -62.5zM105 363q0 -23 9.5 -42t26.5 -36t39.5 -33.5t48.5 -34.5q18 10 35 28.5t17 43.5t-11 45.5t-28.5 38.5t-39.5 33.5t-45 30.5q-18 -10 -35 -29t-17 -45z" />
    <glyph glyph-name="semicolon" unicode=";" horiz-adv-x="203" 
d="M93 97q29 0 42.5 -20t13.5 -46q0 -15 -4.5 -33t-16.5 -37t-33.5 -37.5t-56.5 -36.5l-10 10q21 19 33.5 33.5t19.5 26.5t9 21.5t2 20.5q0 9 -5.5 13.5t-12.5 9.5h1q-9 5 -16 11.5t-7 20.5q0 19 12 31t29 12zM52 340q0 20 13.5 34t33.5 14t34 -14t14 -34t-14 -33.5
t-34 -13.5t-33.5 13.5t-13.5 33.5z" />
    <glyph glyph-name="seven" unicode="7" horiz-adv-x="441" 
d="M181 0h-47l215 559h-261q-12 0 -24.5 -1.5t-23 -7t-17 -17t-6.5 -30.5h-10v112h410z" />
    <glyph glyph-name="six" unicode="6" horiz-adv-x="491" 
d="M237 370q-36 0 -62.5 -12.5t-44 -33.5t-26 -48t-8.5 -56q0 -35 10.5 -70t31 -62.5t49.5 -45t67 -17.5q34 0 60 13.5t43.5 36t26 51.5t8.5 59q0 34 -10.5 67t-30 59.5t-48.5 42.5t-66 16zM379 535q-16 20 -38.5 32t-42.5 12q-46 0 -80 -22.5t-56.5 -55.5t-35.5 -71.5
t-17 -71.5q29 26 65 36.5t75 10.5q51 0 89.5 -17.5t64 -46t38 -65.5t12.5 -76t-13 -77t-39 -67.5t-64.5 -47.5t-89.5 -18q-56 0 -97 21t-67 56.5t-38.5 82.5t-12.5 98q0 66 18.5 131.5t54.5 118t88 85.5t119 33q14 0 29.5 -2t27.5 -4q6 -1 12.5 -2t7.5 -1v-72h-10z" />
    <glyph glyph-name="slash" unicode="/" horiz-adv-x="333" 
d="M42 -61l-37 12l282 763l37 -10z" />
    <glyph glyph-name="sterling" unicode="&#xa3;" horiz-adv-x="465" 
d="M409 73q-19 -38 -45 -57t-58 -19q-18 0 -35.5 6.5t-31.5 13.5q-3 0 -6 3q-13 6 -30 12.5t-36 6.5q-17 0 -40.5 -8.5t-52.5 -22.5l-17 -10l-5 10q33 18 59 58q22 34 40.5 97t18.5 164v59h-77v34h77v81q0 78 33 121t82 43q23 0 39 -7t27 -14q14 -9 20 -9v-73h-10
q-11 34 -30.5 50.5t-36.5 16.5q-23 0 -41 -28.5t-18 -85.5v-95h113v-34h-113v-51q0 -91 -21 -157t-48 -101q11 4 23.5 7.5t23.5 3.5q17 0 33.5 -7.5t33.5 -16.5q14 -9 29 -15.5t32 -6.5q27 0 60 38z" />
    <glyph glyph-name="t" unicode="t" horiz-adv-x="285" 
d="M143 386v-241q0 -26 1 -47t5 -35t12 -21.5t22 -7.5q21 0 39.5 20t23.5 48h9v-73q-9 0 -15 -6q-8 -7 -22.5 -15t-43.5 -8q-36 0 -56 14t-29 37t-10.5 51t-1.5 57v227h-56v34h56v89q0 17 -4.5 31.5t-29.5 15.5v10l100 32v-178h112v-34h-112z" />
    <glyph glyph-name="thorn" unicode="&#xfe;" horiz-adv-x="543" 
d="M258 428q54 0 93.5 -18.5t66 -48.5t39.5 -69t13 -80q0 -40 -12.5 -79t-38 -70t-63.5 -50t-90 -19q-31 0 -63.5 16.5t-58.5 41.5v-196q0 -8 2 -17.5t6.5 -17.5t10 -14t13.5 -6v-10h-130v10q7 0 13 6t10.5 14t6.5 17.5t2 17.5v720q0 9 -0.5 17.5t-3.5 15t-9.5 11t-18.5 5.5
v10l98 30v-288q20 24 48.5 37.5t65.5 13.5zM267 28q35 1 61 16t43 39t25 53.5t8 61.5q0 36 -10 71t-29 62.5t-46.5 45t-62.5 17.5q-21 0 -41.5 -8t-36 -23t-25 -35.5t-9.5 -45.5v-131q0 -27 11 -49.5t28.5 -39t39.5 -25.5t44 -9z" />
    <glyph glyph-name="three" unicode="3" horiz-adv-x="425" 
d="M28 596h9q8 0 17 3t20 7q17 6 41 12.5t59 6.5q40 0 71.5 -11.5t53 -31t33 -45.5t11.5 -54q0 -39 -23.5 -75t-72.5 -58q69 -20 103 -64t34 -100q0 -42 -15.5 -77.5t-45 -62t-70.5 -41.5t-92 -15q-38 0 -63 7t-42 13q-11 4 -20 6.5t-18 2.5h-9v77h10q26 -36 64.5 -54.5
t79.5 -18.5q36 0 65 12.5t49.5 33.5t31 48t10.5 56q0 30 -12 58.5t-34 50.5t-53.5 35t-71.5 13h-46v33h51q31 0 54.5 10t39.5 27t24 38t8 44q0 21 -7.5 41t-22.5 35.5t-36.5 25.5t-49.5 10q-34 0 -68 -19t-57 -57h-10v78z" />
    <glyph glyph-name="tilde" unicode="&#x2dc;" horiz-adv-x="284" 
d="M256 527q-12 -45 -23.5 -59t-32.5 -14q-12 0 -27 6t-31 13.5t-31.5 14t-28.5 6.5q-15 0 -25.5 -11t-23.5 -29l-5 1q14 42 32.5 59.5t38.5 17.5q12 0 26 -6t27.5 -13.5t27.5 -13.5t26 -6q16 0 27 10.5t19 24.5z" />
    <glyph glyph-name="trademark" unicode="&#x2122;" horiz-adv-x="736" 
d="M670 401q0 -4 1.5 -11t3.5 -14t5.5 -12t7.5 -5v-10h-94v10q4 0 8 5t6.5 11.5t4 13.5t1.5 12v170l-115 -229l-110 215v-156q0 -4 1.5 -11t4 -14t6 -12t8.5 -5v-10h-71v10q4 0 8 5t6 12t3.5 14t1.5 11v209q0 12 -2.5 25.5t-16.5 14.5v10h65l108 -212l105 212h72v-10
q-8 0 -13 -14.5t-5 -25.5v-209zM288 579q-1 16 -13.5 31.5t-32.5 15.5h-59v-225q0 -5 1.5 -12t4 -13.5t6 -12t8.5 -5.5v-10h-95v10q4 0 8 5t6 12t3.5 14t1.5 12v225h-56q-20 0 -32 -15.5t-14 -31.5h-10v81h283v-81h-10z" />
    <glyph glyph-name="two" unicode="2" horiz-adv-x="429" 
d="M23 559h9q5 0 12.5 5l16.5 11q10 7 23.5 16t31 16.5t39.5 12.5t49 5q34 0 66 -9.5t57 -29t40 -49.5t15 -72q0 -35 -12 -64t-32.5 -54t-46 -47.5t-52.5 -44.5q-26 -21 -50.5 -43t-44 -46t-32.5 -51.5t-15 -58.5h208q38 0 60 13.5t23 44.5h9v-114h-370q0 45 15 83.5t39 71
t53.5 60.5t58.5 54q24 21 46.5 42t40 42.5t28 45t10.5 49.5q0 33 -11.5 59t-30 44t-42.5 27.5t-48 9.5q-51 0 -90 -30.5t-63 -78.5h-10v80z" />
    <glyph glyph-name="u" unicode="u" horiz-adv-x="524" 
d="M441 65q0 -7 2 -16.5t5.5 -18t9.5 -14.5t14 -6v-10h-97v55q-15 -22 -44 -43t-75 -21q-58 0 -92 20t-52 51t-23 67.5t-5 68.5v143q0 9 -0.5 17.5t-4 15.5t-10.5 11.5t-20 4.5v9l101 32v-255q0 -76 33 -112t81 -36q26 0 46.5 11.5t35 27.5t22 33t7.5 28v213q0 9 -0.5 17.5
t-4 15.5t-10.5 11.5t-20 4.5v9l101 32v-366z" />
    <glyph glyph-name="uacute" unicode="&#xfa;" horiz-adv-x="524" 
d="M441 65q0 -7 2 -16.5t5.5 -18t9.5 -14.5t14 -6v-10h-97v55q-15 -22 -44 -43t-75 -21q-58 0 -92 20t-52 51t-23 67.5t-5 68.5v143q0 9 -0.5 17.5t-4 15.5t-10.5 11.5t-20 4.5v9l101 32v-255q0 -76 33 -112t81 -36q26 0 46.5 11.5t35 27.5t22 33t7.5 28v213q0 9 -0.5 17.5
t-4 15.5t-10.5 11.5t-20 4.5v9l101 32v-366zM177 506l142 107l26 -45l-165 -68z" />
    <glyph glyph-name="ucircumflex" unicode="&#xfb;" horiz-adv-x="524" 
d="M441 65q0 -7 2 -16.5t5.5 -18t9.5 -14.5t14 -6v-10h-97v55q-15 -22 -44 -43t-75 -21q-58 0 -92 20t-52 51t-23 67.5t-5 68.5v143q0 9 -0.5 17.5t-4 15.5t-10.5 11.5t-20 4.5v9l101 32v-255q0 -76 33 -112t81 -36q26 0 46.5 11.5t35 27.5t22 33t7.5 28v213q0 9 -0.5 17.5
t-4 15.5t-10.5 11.5t-20 4.5v9l101 32v-366zM382 483l-121 59l-120 -59l-2 5l122 103l122 -103z" />
    <glyph glyph-name="udieresis" unicode="&#xfc;" horiz-adv-x="524" 
d="M441 65q0 -7 2 -16.5t5.5 -18t9.5 -14.5t14 -6v-10h-97v55q-15 -22 -44 -43t-75 -21q-58 0 -92 20t-52 51t-23 67.5t-5 68.5v143q0 9 -0.5 17.5t-4 15.5t-10.5 11.5t-20 4.5v9l101 32v-255q0 -76 33 -112t81 -36q26 0 46.5 11.5t35 27.5t22 33t7.5 28v213q0 9 -0.5 17.5
t-4 15.5t-10.5 11.5t-20 4.5v9l101 32v-366zM351 529q0 -14 -9 -23t-21 -9q-14 0 -23.5 9t-9.5 23t9.5 23t23.5 9q12 0 21 -9t9 -23zM236 529q0 -14 -9 -23t-23 -9t-23 9t-9 23t9 23t23 9t23 -9t9 -23z" />
    <glyph glyph-name="ugrave" unicode="&#xf9;" horiz-adv-x="524" 
d="M441 65q0 -7 2 -16.5t5.5 -18t9.5 -14.5t14 -6v-10h-97v55q-15 -22 -44 -43t-75 -21q-58 0 -92 20t-52 51t-23 67.5t-5 68.5v143q0 9 -0.5 17.5t-4 15.5t-10.5 11.5t-20 4.5v9l101 32v-255q0 -76 33 -112t81 -36q26 0 46.5 11.5t35 27.5t22 33t7.5 28v213q0 9 -0.5 17.5
t-4 15.5t-10.5 11.5t-20 4.5v9l101 32v-366zM343 480l-166 68l26 45l142 -107z" />
    <glyph glyph-name="underscore" unicode="_" horiz-adv-x="424" 
d="M-2 -184v32h423v-32h-423z" />
    <glyph glyph-name="uni00AD" unicode="&#xad;" horiz-adv-x="292" 
d="M36 198v48h226v-48h-226z" />
    <glyph glyph-name="v" unicode="v" horiz-adv-x="466" 
d="M449 420v-10q-7 0 -14 -5t-13.5 -13t-12 -17.5t-9.5 -17.5l-172 -374l-171 378q-7 16 -18 32.5t-28 16.5v10h137v-10q-6 0 -15.5 -6t-9.5 -17q0 -5 8 -23l115 -259l124 270q4 10 4 15q0 9 -8.5 14.5t-14.5 5.5v10h98z" />
    <glyph glyph-name="w" unicode="w" horiz-adv-x="674" 
d="M658 410q-18 0 -27.5 -10t-17.5 -30l-151 -378l-129 316l-128 -315l-148 366q-7 17 -17.5 34t-27.5 17v10h137v-10q-7 0 -17.5 -6.5t-10.5 -21.5q0 -2 1.5 -8.5t3.5 -11.5l98 -242l126 311l127 -311l99 246q5 15 5 21q0 8 -5 15t-17 8v10h99v-10z" />
    <glyph glyph-name="x" unicode="x" horiz-adv-x="466" 
d="M302 10q19 0 19 14q0 5 -12 22l-100 138l-104 -141q-3 -4 -7 -11t-4 -12q0 -10 11 -10v-10h-94v10q14 0 30 11.5t27 27.5l121 164l-112 152q-5 6 -11.5 14t-15 15t-17 11.5t-15.5 4.5v10h146v-10q-6 0 -12.5 -4t-6.5 -15q0 -7 6 -14l81 -112l77 102q8 10 10 16t2 11
q0 6 -3.5 11t-10.5 5v10h96v-10q-16 0 -30 -15.5t-25 -29.5l-97 -129l134 -181q13 -18 31 -31.5t33 -13.5v-10h-147v10z" />
    <glyph glyph-name="y" unicode="y" horiz-adv-x="474" 
d="M205 -143q-14 -42 -35.5 -57t-44.5 -15q-15 0 -26.5 4t-20 9.5t-13.5 10.5t-6 8l33 81q5 -18 10 -27q5 -10 14 -18t22 -8q24 0 38 35l49 123l-161 364q-5 12 -16.5 27.5t-31.5 15.5v10h132v-10q-4 0 -10 -7t-6 -18q0 -9 4 -16l123 -283l118 289q3 7 3 13q0 10 -6.5 16
t-13.5 6v10h97v-10q-16 0 -27.5 -13.5t-18.5 -30.5z" />
    <glyph glyph-name="yacute" unicode="&#xfd;" horiz-adv-x="474" 
d="M205 -143q-14 -42 -35.5 -57t-44.5 -15q-15 0 -26.5 4t-20 9.5t-13.5 10.5t-6 8l33 81q5 -18 10 -27q5 -10 14 -18t22 -8q24 0 38 35l49 123l-161 364q-5 12 -16.5 27.5t-31.5 15.5v10h132v-10q-4 0 -10 -7t-6 -18q0 -9 4 -16l123 -283l118 289q3 7 3 13q0 10 -6.5 16
t-13.5 6v10h97v-10q-16 0 -27.5 -13.5t-18.5 -30.5zM171 511l142 107l26 -45l-165 -68z" />
    <glyph glyph-name="ydieresis" unicode="&#xff;" horiz-adv-x="474" 
d="M205 -143q-14 -42 -35.5 -57t-44.5 -15q-15 0 -26.5 4t-20 9.5t-13.5 10.5t-6 8l33 81q5 -18 10 -27q5 -10 14 -18t22 -8q24 0 38 35l49 123l-161 364q-5 12 -16.5 27.5t-31.5 15.5v10h132v-10q-4 0 -10 -7t-6 -18q0 -9 4 -16l123 -283l118 289q3 7 3 13q0 10 -6.5 16
t-13.5 6v10h97v-10q-16 0 -27.5 -13.5t-18.5 -30.5zM347 550q0 -14 -9 -23t-21 -9q-14 0 -23.5 9t-9.5 23t9.5 23t23.5 9q12 0 21 -9t9 -23zM232 550q0 -14 -9 -23t-23 -9t-23 9t-9 23t9 23t23 9t23 -9t9 -23z" />
    <glyph glyph-name="yen" unicode="&#xa5;" horiz-adv-x="529" 
d="M61 350h148l-139 240q-5 8 -11.5 18t-14.5 19t-16.5 15.5t-16.5 6.5v10h131v-10q-5 0 -14 -5.5t-9 -16.5q0 -7 3 -10l152 -264l145 250q4 8 5.5 12t1.5 10q-2 16 -11.5 20t-11.5 4v10h106v-10q-15 0 -30.5 -18t-26.5 -37l-140 -244h153v-38h-168v-84h168v-39h-168v-124
q0 -8 2.5 -17t6.5 -17.5t10 -14.5t14 -6v-10h-133v10q8 0 14 5.5t10.5 14t6.5 18t2 17.5v124h-169v39h169v84h-169v38z" />
    <glyph glyph-name="z" unicode="z" horiz-adv-x="429" 
d="M13 0l274 385h-164q-17 0 -31 -7t-23.5 -18t-14.5 -23.5t-5 -23.5h-10v107h353l-274 -384h186q22 0 37 7t24.5 17.5t13.5 23.5t4 24h9v-108h-379z" />
    <glyph glyph-name="zcaron" unicode="&#x17e;" horiz-adv-x="429" 
d="M13 0l274 385h-164q-17 0 -31 -7t-23.5 -18t-14.5 -23.5t-5 -23.5h-10v107h353l-274 -384h186q22 0 37 7t24.5 17.5t13.5 23.5t4 24h9v-108h-379zM94 607l121 -57l119 57l2 -4l-121 -104l-124 104z" />
    <glyph glyph-name="zero" unicode="0" horiz-adv-x="533" 
d="M37 310q0 77 19.5 136t51.5 98.5t72.5 60t82.5 20.5t83 -20.5t72.5 -60t51 -98.5t19.5 -136q0 -78 -19.5 -137.5t-51 -100t-72.5 -61.5t-83 -21t-82.5 21t-72.5 61.5t-51.5 100t-19.5 137.5zM426 284q0 72 -16 127.5t-41.5 93t-58 57t-66.5 19.5t-61.5 -19.5t-46.5 -51.5
t-29.5 -74t-10.5 -88q0 -55 13 -111.5t37 -102t57.5 -74.5t73.5 -29q29 0 56 16.5t47.5 48.5t33 79t12.5 109z" />
    <glyph glyph-name="Abreve" unicode="&#x102;" horiz-adv-x="590" 
d="M427 10h5q24 0 24 22q0 8 -3 17l-90 243h-175l-87 -239q-3 -8 -3 -15q0 -13 7 -20.5t15 -7.5h5v-10h-111v10h5q13 0 25.5 15.5t20.5 36.5l229 610l224 -604q7 -20 19.5 -39t32.5 -19h5v-10h-148v10zM198 326h154l-77 209zM408 795q0 -16 -8 -34.5t-22.5 -34t-35 -25.5
t-45.5 -10q-24 0 -44.5 9.5t-35.5 24.5t-24 33.5t-9 36.5h6q1 -6 6.5 -16.5t17.5 -21.5t32 -19t50 -8q31 0 50.5 8t31.5 19t17 21.5t7 16.5h6z" />
    <glyph glyph-name="Amacron" unicode="&#x100;" horiz-adv-x="590" 
d="M427 10h5q24 0 24 22q0 8 -3 17l-90 243h-175l-87 -239q-3 -8 -3 -15q0 -13 7 -20.5t15 -7.5h5v-10h-111v10h5q13 0 25.5 15.5t20.5 36.5l229 610l224 -604q7 -20 19.5 -39t32.5 -19h5v-10h-148v10zM198 326h154l-77 209zM196 753h200v-40h-200v40z" />
    <glyph glyph-name="Aogonek" unicode="&#x104;" horiz-adv-x="590" 
d="M503 0q-17 -15 -30 -35.5t-13 -40.5q0 -19 14.5 -34t52.5 -15q24 0 41 7l2 -5q-13 -8 -32 -12t-40 -4q-45 0 -65.5 16.5t-20.5 39.5q0 24 17.5 46t40.5 37h-43v10h5q24 0 24 22q0 8 -3 17l-90 243h-175l-87 -239q-3 -8 -3 -15q0 -13 7 -20.5t15 -7.5h5v-10h-111v10h5
q13 0 25.5 16t20.5 36l229 610l224 -604q8 -19 22 -38.5t30 -19.5h5v-10h-72zM198 326h154l-77 209z" />
    <glyph glyph-name="Cacute" unicode="&#x106;" horiz-adv-x="623" 
d="M397 634q-74 0 -128.5 -26.5t-90.5 -69t-53.5 -95.5t-17.5 -105q0 -59 23 -115.5t63.5 -100t94.5 -70t117 -26.5q18 0 42.5 4t48.5 15.5t44.5 32.5t31.5 55h10v-111q-15 0 -31.5 -4t-36.5 -9q-26 -7 -57.5 -13t-66.5 -6q-87 0 -153 30t-110 78t-66 108.5t-22 122.5
t22 123t67 109.5t113 78.5t160 30q33 0 59.5 -6t47.5 -12q15 -5 27.5 -7.5t24.5 -2.5v-111h-10q-6 31 -22 51.5t-37.5 31.5t-46 15.5t-47.5 4.5zM227 688l142 107l26 -45l-165 -68z" />
    <glyph glyph-name="Ccaron" unicode="&#x10c;" horiz-adv-x="620" 
d="M394 634q-74 0 -128.5 -26.5t-90.5 -69t-53.5 -95.5t-17.5 -105q0 -59 23 -115.5t63.5 -100t94.5 -70t117 -26.5q18 0 42.5 4t48.5 15.5t44.5 32.5t31.5 55h10v-111q-15 0 -31.5 -4t-36.5 -9q-26 -7 -57.5 -13t-66.5 -6q-87 0 -153 30t-110 78t-66 108.5t-22 122.5
t22 123t67 109.5t113 78.5t160 30q33 0 59.5 -6t47.5 -12q15 -5 27.5 -7.5t24.5 -2.5v-111h-10q-6 31 -22 51.5t-37.5 31.5t-46 15.5t-47.5 4.5zM257 790l121 -57l119 57l2 -4l-121 -104l-124 104z" />
    <glyph glyph-name="Ccircumflex" unicode="&#x108;" horiz-adv-x="623" 
d="M397 634q-74 0 -128.5 -26.5t-90.5 -69t-53.5 -95.5t-17.5 -105q0 -59 23 -115.5t63.5 -100t94.5 -70t117 -26.5q18 0 42.5 4t48.5 15.5t44.5 32.5t31.5 55h10v-111q-15 0 -31.5 -4t-36.5 -9q-26 -7 -57.5 -13t-66.5 -6q-87 0 -153 30t-110 78t-66 108.5t-22 122.5
t22 123t67 109.5t113 78.5t160 30q33 0 59.5 -6t47.5 -12q15 -5 27.5 -7.5t24.5 -2.5v-111h-10q-6 31 -22 51.5t-37.5 31.5t-46 15.5t-47.5 4.5zM500 685l-121 59l-120 -59l-2 5l122 103l122 -103z" />
    <glyph glyph-name="Cdotaccent" unicode="&#x10a;" horiz-adv-x="623" 
d="M397 634q-74 0 -128.5 -26.5t-90.5 -69t-53.5 -95.5t-17.5 -105q0 -59 23 -115.5t63.5 -100t94.5 -70t117 -26.5q18 0 42.5 4t48.5 15.5t44.5 32.5t31.5 55h10v-111q-15 0 -31.5 -4t-36.5 -9q-26 -7 -57.5 -13t-66.5 -6q-87 0 -153 30t-110 78t-66 108.5t-22 122.5
t22 123t67 109.5t113 78.5t160 30q33 0 59.5 -6t47.5 -12q15 -5 27.5 -7.5t24.5 -2.5v-111h-10q-6 31 -22 51.5t-37.5 31.5t-46 15.5t-47.5 4.5zM343 741q0 17 10.5 27.5t27.5 10.5t28 -10.5t11 -27.5t-11 -27.5t-28 -10.5t-27.5 10.5t-10.5 27.5z" />
    <glyph glyph-name="Dcaron" unicode="&#x10e;" horiz-adv-x="616" 
d="M44 10h5q7 0 13 6t10.5 14t6.5 17.5t2 17.5v533q0 7 -2 16t-6 17t-10 13.5t-14 5.5h-5v10h193q79 0 142 -27.5t106.5 -74t66.5 -106.5t23 -125q0 -61 -22 -119.5t-66 -104.5t-110 -74.5t-153 -28.5h-180v10zM507 312q0 64 -23 121t-64.5 99.5t-98 67.5t-122.5 25h-51
v-590h53q54 0 108.5 16.5t98.5 51t71.5 86.5t27.5 123zM72 790l121 -57l119 57l2 -4l-121 -104l-124 104z" />
    <glyph glyph-name="Dcroat" unicode="&#x110;" horiz-adv-x="616" 
d="M45 660h192q79 0 142 -27.5t106.5 -74t66.5 -106.5t23 -125q0 -61 -22 -119.5t-66 -104.5t-110 -74.5t-153 -28.5h-179v10h5q7 0 13 6t10.5 14t6.5 17.5t2 17.5v246h-51v40h51v247q0 7 -2 16t-6.5 17t-10.5 13.5t-13 5.5h-5v10zM507 312q0 64 -23 121t-64.5 99.5
t-98 67.5t-122.5 25h-51v-274h175v-40h-175v-276h53q54 0 108.5 16.5t98.5 51t71.5 86.5t27.5 123z" />
    <glyph glyph-name="Delta" unicode="&#x2206;" horiz-adv-x="685" 
d="M341 686l328 -686h-656zM329 567l-246 -525h488z" />
    <glyph glyph-name="Ebreve" unicode="&#x114;" 
d="M45 10h5q8 0 14 5.5t10.5 13.5t7 17t2.5 17v535q0 7 -2.5 16t-7 17t-10.5 13.5t-14 5.5h-5v10h385v-93h-10q-2 23 -18 40.5t-50 17.5h-201v-253h166q23 0 38.5 14t15.5 33h10v-125h-10q0 18 -15 31t-39 13h-166v-303h219q19 0 33 9t23.5 21.5t14 27t4.5 24.5h10v-117
h-410v10zM354 795q0 -16 -8 -34.5t-22.5 -34t-35 -25.5t-45.5 -10q-24 0 -44.5 9.5t-35.5 24.5t-24 33.5t-9 36.5h6q1 -6 6.5 -16.5t17.5 -21.5t32 -19t50 -8q31 0 50.5 8t31.5 19t17 21.5t7 16.5h6z" />
    <glyph glyph-name="Ecaron" unicode="&#x11a;" 
d="M45 10h5q8 0 14 5.5t10.5 13.5t7 17t2.5 17v535q0 7 -2.5 16t-7 17t-10.5 13.5t-14 5.5h-5v10h385v-93h-10q-2 23 -18 40.5t-50 17.5h-201v-253h166q23 0 38.5 14t15.5 33h10v-125h-10q0 18 -15 31t-39 13h-166v-303h219q19 0 33 9t23.5 21.5t14 27t4.5 24.5h10v-117
h-410v10zM122 790l121 -57l119 57l2 -4l-121 -104l-124 104z" />
    <glyph glyph-name="Edotaccent" unicode="&#x116;" 
d="M45 10h5q8 0 14 5.5t10.5 13.5t7 17t2.5 17v535q0 7 -2.5 16t-7 17t-10.5 13.5t-14 5.5h-5v10h385v-93h-10q-2 23 -18 40.5t-50 17.5h-201v-253h166q23 0 38.5 14t15.5 33h10v-125h-10q0 18 -15 31t-39 13h-166v-303h219q19 0 33 9t23.5 21.5t14 27t4.5 24.5h10v-117
h-410v10zM204 741q0 17 10.5 27.5t27.5 10.5t28 -10.5t11 -27.5t-11 -27.5t-28 -10.5t-27.5 10.5t-10.5 27.5z" />
    <glyph glyph-name="Emacron" unicode="&#x112;" 
d="M45 10h5q8 0 14 5.5t10.5 13.5t7 17t2.5 17v535q0 7 -2.5 16t-7 17t-10.5 13.5t-14 5.5h-5v10h385v-93h-10q-2 23 -18 40.5t-50 17.5h-201v-253h166q23 0 38.5 14t15.5 33h10v-125h-10q0 18 -15 31t-39 13h-166v-303h219q19 0 33 9t23.5 21.5t14 27t4.5 24.5h10v-117
h-410v10zM142 753h200v-40h-200v40z" />
    <glyph glyph-name="Eng" unicode="&#x14a;" horiz-adv-x="628" 
d="M150 10h5v-10h-110v10h5q7 0 13.5 6t10.5 14t6.5 17.5t2.5 17.5v533q0 7 -1 16t-4.5 17t-10 13.5t-17.5 5.5h-5v10h98l363 -572v510q0 7 -2.5 16t-7 17t-10.5 13.5t-14 5.5h-5v10h111v-10h-5q-8 0 -14 -5.5t-10.5 -13.5t-6.5 -17t-2 -16v-597q0 -33 -8 -61t-20.5 -51.5
t-29 -42.5t-33.5 -34q-40 -35 -91 -59l-5 7q35 28 63 65q23 32 43 75.5t20 99.5l-362 574v-509q0 -8 2 -17.5t6.5 -17.5t10.5 -14t14 -6z" />
    <glyph glyph-name="Eogonek" unicode="&#x118;" 
d="M45 10h5q7 0 13.5 5.5t11 13.5t7 17t2.5 17v535q0 7 -2.5 16t-7 17t-11 13.5t-13.5 5.5h-5v10h385v-93h-10q0 23 -15.5 40.5t-48.5 17.5h-205v-253h166q23 0 38.5 14t15.5 33h10v-125h-10q0 18 -15 31t-39 13h-166v-303h219q19 0 33 9t23.5 22.5t14 29t4.5 28.5h10v-124
h-67q-17 -15 -30 -35.5t-13 -40.5q0 -19 14.5 -34t52.5 -15q24 0 41 7l2 -5q-13 -8 -32 -12t-40 -4q-45 0 -65.5 16.5t-20.5 39.5q0 24 17.5 46t40.5 37h-310v10z" />
    <glyph glyph-name="Gbreve" unicode="&#x11e;" horiz-adv-x="657" 
d="M475 348h143v-10h-5q-8 0 -14 -5.5t-10 -13.5t-6.5 -17t-2.5 -16v-268q-18 -7 -41 -12t-48 -8.5t-51 -5.5t-48 -2q-90 0 -157 30t-111 78.5t-65.5 109.5t-21.5 123t21.5 123t66 109t112 77.5t160.5 29.5q35 0 65 -6t53 -11q13 -3 22.5 -5.5t16.5 -2.5h9v-106h-10
q-6 31 -23.5 50t-40.5 29t-48.5 13.5t-47.5 3.5q-75 0 -130 -26.5t-90 -68.5t-52 -94.5t-17 -104.5q0 -58 22 -114.5t62 -101t96.5 -72t125.5 -27.5q19 0 47 4.5t56 20.5v235q0 7 -2 16t-6.5 17t-10.5 13.5t-14 5.5h-5v10zM488 795q0 -16 -8 -34.5t-22.5 -34t-35 -25.5
t-45.5 -10q-24 0 -44.5 9.5t-35.5 24.5t-24 33.5t-9 36.5h6q1 -6 6.5 -16.5t17.5 -21.5t32 -19t50 -8q31 0 50.5 8t31.5 19t17 21.5t7 16.5h6z" />
    <glyph glyph-name="Gcircumflex" unicode="&#x11c;" horiz-adv-x="657" 
d="M475 348h143v-10h-5q-8 0 -14 -5.5t-10 -13.5t-6.5 -17t-2.5 -16v-268q-18 -7 -41 -12t-48 -8.5t-51 -5.5t-48 -2q-90 0 -157 30t-111 78.5t-65.5 109.5t-21.5 123t21.5 123t66 109t112 77.5t160.5 29.5q35 0 65 -6t53 -11q13 -3 22.5 -5.5t16.5 -2.5h9v-106h-10
q-6 31 -23.5 50t-40.5 29t-48.5 13.5t-47.5 3.5q-75 0 -130 -26.5t-90 -68.5t-52 -94.5t-17 -104.5q0 -58 22 -114.5t62 -101t96.5 -72t125.5 -27.5q19 0 47 4.5t56 20.5v235q0 7 -2 16t-6.5 17t-10.5 13.5t-14 5.5h-5v10zM513 685l-121 59l-120 -59l-2 5l122 103l122 -103z
" />
    <glyph glyph-name="Gdotaccent" unicode="&#x120;" horiz-adv-x="657" 
d="M475 348h143v-10h-5q-8 0 -14 -5.5t-10 -13.5t-6.5 -17t-2.5 -16v-268q-18 -7 -41 -12t-48 -8.5t-51 -5.5t-48 -2q-90 0 -157 30t-111 78.5t-65.5 109.5t-21.5 123t21.5 123t66 109t112 77.5t160.5 29.5q35 0 65 -6t53 -11q13 -3 22.5 -5.5t16.5 -2.5h9v-106h-10
q-6 31 -23.5 50t-40.5 29t-48.5 13.5t-47.5 3.5q-75 0 -130 -26.5t-90 -68.5t-52 -94.5t-17 -104.5q0 -58 22 -114.5t62 -101t96.5 -72t125.5 -27.5q19 0 47 4.5t56 20.5v235q0 7 -2 16t-6.5 17t-10.5 13.5t-14 5.5h-5v10zM351 741q0 17 10.5 27.5t27.5 10.5t28 -10.5
t11 -27.5t-11 -27.5t-28 -10.5t-27.5 10.5t-10.5 27.5z" />
    <glyph glyph-name="Hbar" unicode="&#x126;" horiz-adv-x="622" 
d="M45 660h140v-10h-5q-8 0 -14 -5.5t-9.5 -13.5t-5.5 -17t-2 -16v-90h320v90q0 7 -2 16t-6 17t-10 13.5t-13 5.5h-5v10h140v-10h-5q-8 0 -14 -5.5t-10 -13.5t-6 -17t-2 -16v-90h49v-32h-49v-411q0 -8 2.5 -17.5t7 -17.5t10 -14t12.5 -6h5v-10h-140v10h5q7 0 13 5.5t10 14
t6 18t2 17.5v273h-320v-273q0 -8 2 -17.5t6 -17.5t10 -14t13 -6h5v-10h-140v10h5q7 0 13 5.5t10.5 14t6.5 18t2 17.5v411h-54v32h54v90q0 7 -2 16t-6 17t-10 13.5t-14 5.5h-5v10zM469 372v104h-320v-104h320z" />
    <glyph glyph-name="Hcircumflex" unicode="&#x124;" horiz-adv-x="622" 
d="M439 10h5q7 0 13 5.5t10.5 14t6.5 18t2 17.5v272h-320v-272q0 -8 2 -17.5t6 -17.5t9.5 -14t13.5 -6h5v-10h-140v10h5q7 0 13 5.5t10.5 14t6.5 18t2 17.5v533q0 7 -2 16t-6 17t-10 13.5t-14 5.5h-5v10h140v-10h-5q-8 0 -14 -5.5t-9.5 -13.5t-5.5 -17t-2 -16v-226h320v226
q0 7 -2 16t-6 17t-10 13.5t-14 5.5h-5v10h140v-10h-5q-8 0 -14 -5.5t-9.5 -13.5t-5.5 -17t-2 -16v-533q0 -8 2.5 -17.5t6.5 -17.5t9.5 -14t12.5 -6h5v-10h-140v10zM431 685l-121 59l-120 -59l-2 5l122 103l122 -103z" />
    <glyph glyph-name="Ibreve" unicode="&#x12c;" horiz-adv-x="243" 
d="M49 660h143v-10h-5q-7 0 -13 -5.5t-10 -13t-6.5 -17t-2.5 -16.5v-533q0 -8 2 -17.5t6.5 -17.5t10 -14t13.5 -6h5v-10h-143v10h5q8 0 14 5.5t10.5 14t6.5 18t2 17.5v533q0 7 -2 16t-6.5 17t-10.5 13.5t-14 5.5h-5v10zM233 795q0 -16 -8 -34.5t-22.5 -34t-35 -25.5
t-45.5 -10q-24 0 -44.5 9.5t-35.5 24.5t-24 33.5t-9 36.5h6q1 -6 6.5 -16.5t17.5 -21.5t32 -19t50 -8q31 0 50.5 8t31.5 19t17 21.5t7 16.5h6z" />
    <glyph glyph-name="Idotaccent" unicode="&#x130;" horiz-adv-x="243" 
d="M49 660h143v-10h-5q-7 0 -13 -5.5t-10 -13t-6.5 -17t-2.5 -16.5v-533q0 -8 2 -17.5t6.5 -17.5t10 -14t13.5 -6h5v-10h-143v10h5q8 0 14 5.5t10.5 14t6.5 18t2 17.5v533q0 7 -2 16t-6.5 17t-10.5 13.5t-14 5.5h-5v10zM83 741q0 17 10.5 27.5t27.5 10.5t28 -10.5t11 -27.5
t-11 -27.5t-28 -10.5t-27.5 10.5t-10.5 27.5z" />
    <glyph glyph-name="Imacron" unicode="&#x12a;" horiz-adv-x="243" 
d="M49 660h143v-10h-5q-7 0 -13 -5.5t-10 -13t-6.5 -17t-2.5 -16.5v-533q0 -8 2 -17.5t6.5 -17.5t10 -14t13.5 -6h5v-10h-143v10h5q8 0 14 5.5t10.5 14t6.5 18t2 17.5v533q0 7 -2 16t-6.5 17t-10.5 13.5t-14 5.5h-5v10zM21 753h200v-40h-200v40z" />
    <glyph glyph-name="Iogonek" unicode="&#x12e;" horiz-adv-x="243" 
d="M49 10h5q8 0 14 5.5t10.5 14t6.5 18t2 17.5v533q0 7 -2 16t-6.5 17t-10.5 13.5t-14 5.5h-5v10h143v-10h-5q-7 0 -13 -5.5t-10 -13t-6.5 -17t-2.5 -16.5v-533q0 -8 2 -17.5t6.5 -17.5t10 -14t13.5 -6h5v-10h-58q-17 -15 -30 -35.5t-13 -40.5q0 -19 14.5 -34t52.5 -15
q23 0 41 7l2 -5q-13 -8 -32 -12t-40 -4q-45 0 -65.5 16.5t-20.5 39.5q0 24 17.5 46t40.5 37h-52v10z" />
    <glyph glyph-name="Itilde" unicode="&#x128;" horiz-adv-x="243" 
d="M49 660h143v-10h-5q-7 0 -13 -5.5t-10 -13t-6.5 -17t-2.5 -16.5v-533q0 -8 2 -17.5t6.5 -17.5t10 -14t13.5 -6h5v-10h-143v10h5q8 0 14 5.5t10.5 14t6.5 18t2 17.5v533q0 7 -2 16t-6.5 17t-10.5 13.5t-14 5.5h-5v10zM235 767q-12 -45 -23.5 -59t-32.5 -14q-12 0 -27 6
t-31 13.5t-31.5 14t-28.5 6.5q-15 0 -25.5 -11t-23.5 -29l-5 1q14 42 32.5 59.5t38.5 17.5q12 0 26 -6t27.5 -13.5t27.5 -13.5t26 -6q16 0 27 10.5t19 24.5z" />
    <glyph glyph-name="Jcircumflex" unicode="&#x134;" horiz-adv-x="270" 
d="M75 660h144v-10h-5q-8 0 -14 -5.5t-10.5 -14t-7 -17.5t-2.5 -16v-557q0 -32 -8 -59t-21.5 -50.5t-30 -43t-34.5 -35.5q-41 -37 -94 -62l-5 8q35 25 62 59q23 29 43 71t20 97v572q0 7 -2 16t-6.5 17.5t-10.5 14t-13 5.5h-5v10zM265 685l-121 59l-120 -59l-2 5l122 103
l122 -103z" />
    <glyph glyph-name="Lacute" unicode="&#x139;" horiz-adv-x="465" 
d="M45 10h5q8 0 14 5.5t10.5 13.5t7 17t2.5 17v535q0 7 -2.5 16t-7 17t-10.5 13.5t-14 5.5h-5v10h144v-10h-5q-8 0 -14 -5.5t-10 -13.5t-6.5 -17t-2.5 -16v-561h219q19 0 33 9t23.5 22.5t14 29t4.5 28.5h10v-126h-410v10zM34 688l142 107l26 -45l-165 -68z" />
    <glyph glyph-name="Lcaron" unicode="&#x13d;" horiz-adv-x="465" 
d="M45 10h5q8 0 14 5.5t10.5 13.5t7 17t2.5 17v535q0 7 -2.5 16t-7 17t-10.5 13.5t-14 5.5h-5v10h144v-10h-5q-8 0 -14 -5.5t-10 -13.5t-6.5 -17t-2.5 -16v-561h219q19 0 33 9t23.5 22.5t14 29t4.5 28.5h10v-126h-410v10zM234 659q29 0 42.5 -19.5t13.5 -45.5q0 -16 -4 -34
t-15.5 -37t-33 -37.5t-56.5 -34.5l-6 9q20 19 31.5 33t17.5 25.5t7.5 21.5t1.5 21q0 8 -4.5 12t-11.5 8q-8 5 -16 11.5t-8 23.5q0 19 12 31t29 12z" />
    <glyph glyph-name="Ldot" unicode="&#x13f;" horiz-adv-x="465" 
d="M45 10h5q8 0 14 5.5t10.5 13.5t7 17t2.5 17v535q0 7 -2.5 16t-7 17t-10.5 13.5t-14 5.5h-5v10h144v-10h-5q-8 0 -14 -5.5t-10 -13.5t-6.5 -17t-2.5 -16v-561h219q19 0 33 9t23.5 22.5t14 29t4.5 28.5h10v-126h-410v10zM185 192q0 20 13.5 34t33.5 14t34 -14t14 -34
t-14 -33.5t-34 -13.5t-33.5 13.5t-13.5 33.5z" />
    <glyph glyph-name="Lslash" unicode="&#x141;" horiz-adv-x="465" 
d="M45 660h144v-10h-5q-8 0 -14 -5.5t-10 -13.5t-6.5 -17t-2.5 -16v-344q21 16 45 32.5t45 32.5l22 -30l-112 -81v-171h219q19 0 33 9t23.5 22.5t14 29t4.5 28.5h10v-126h-410v10h5q8 0 14 5.5t10.5 13.5t7 17t2.5 17v98q-9 -6 -17.5 -13t-17.5 -13l-23 30l58 41v392
q0 7 -2.5 16t-7 17t-10.5 13.5t-14 5.5h-5v10z" />
    <glyph glyph-name="Nacute" unicode="&#x143;" horiz-adv-x="628" 
d="M150 10h5v-10h-111v10h5q7 0 13.5 6t10.5 14t6.5 17.5t2.5 17.5v533q0 7 -1.5 16t-5.5 17t-11 13.5t-17 5.5h-5v10h101l363 -572v510q0 7 -2.5 16t-7 17t-10.5 13.5t-14 5.5h-5v10h112v-10h-5q-8 0 -14 -5.5t-10.5 -13.5t-6.5 -17t-2 -16v-598h-62l-362 574v-509
q0 -8 2 -17.5t6.5 -17.5t10.5 -14t14 -6zM229 688l142 107l26 -45l-165 -68z" />
    <glyph glyph-name="Ncaron" unicode="&#x147;" horiz-adv-x="628" 
d="M150 10h5v-10h-111v10h5q7 0 13.5 6t10.5 14t6.5 17.5t2.5 17.5v533q0 7 -1.5 16t-5.5 17t-11 13.5t-17 5.5h-5v10h101l363 -572v510q0 7 -2.5 16t-7 17t-10.5 13.5t-14 5.5h-5v10h112v-10h-5q-8 0 -14 -5.5t-10.5 -13.5t-6.5 -17t-2 -16v-598h-62l-362 574v-509
q0 -8 2 -17.5t6.5 -17.5t10.5 -14t14 -6zM193 790l121 -57l119 57l2 -4l-121 -104l-124 104z" />
    <glyph glyph-name="Obreve" unicode="&#x14e;" horiz-adv-x="761" 
d="M382 670q78 0 140 -27.5t105.5 -74t67 -108t23.5 -128.5q0 -75 -27.5 -138t-75.5 -108t-111.5 -70.5t-135.5 -25.5q-77 0 -138.5 28t-104 74t-65.5 106t-23 125q0 64 23 126.5t67.5 111.5t108.5 79t146 30zM381 25q67 3 117.5 30.5t84.5 70t50.5 93.5t16.5 101
q0 55 -20 111t-57 101.5t-88.5 74t-115.5 28.5q-62 0 -111 -27.5t-83.5 -70.5t-52.5 -96t-18 -104q0 -55 21 -110.5t58 -100.5t87.5 -73t110.5 -28zM492 795q0 -16 -8 -34.5t-22.5 -34t-35 -25.5t-45.5 -10q-24 0 -44.5 9.5t-35.5 24.5t-24 33.5t-9 36.5h6q1 -6 6.5 -16.5
t17.5 -21.5t32 -19t50 -8q31 0 50.5 8t31.5 19t17 21.5t7 16.5h6z" />
    <glyph glyph-name="Ohungarumlaut" unicode="&#x150;" horiz-adv-x="761" 
d="M382 670q78 0 140 -27.5t105.5 -74t67 -108t23.5 -128.5q0 -75 -27.5 -138t-75.5 -108t-111.5 -70.5t-135.5 -25.5q-77 0 -138.5 28t-104 74t-65.5 106t-23 125q0 64 23 126.5t67.5 111.5t108.5 79t146 30zM381 25q67 3 117.5 30.5t84.5 70t50.5 93.5t16.5 101
q0 55 -20 111t-57 101.5t-88.5 74t-115.5 28.5q-62 0 -111 -27.5t-83.5 -70.5t-52.5 -96t-18 -104q0 -55 21 -110.5t58 -100.5t87.5 -73t110.5 -28zM258 694l83 162l51 -32l-123 -138zM350 695l107 147l45 -39l-141 -118z" />
    <glyph glyph-name="Omacron" unicode="&#x14c;" horiz-adv-x="761" 
d="M382 670q78 0 140 -27.5t105.5 -74t67 -108t23.5 -128.5q0 -75 -27.5 -138t-75.5 -108t-111.5 -70.5t-135.5 -25.5q-77 0 -138.5 28t-104 74t-65.5 106t-23 125q0 64 23 126.5t67.5 111.5t108.5 79t146 30zM381 25q67 3 117.5 30.5t84.5 70t50.5 93.5t16.5 101
q0 55 -20 111t-57 101.5t-88.5 74t-115.5 28.5q-62 0 -111 -27.5t-83.5 -70.5t-52.5 -96t-18 -104q0 -55 21 -110.5t58 -100.5t87.5 -73t110.5 -28zM280 753h200v-40h-200v40z" />
    <glyph glyph-name="Oslashacute" unicode="&#x1fe;" horiz-adv-x="761" 
d="M382 670q78 0 140 -27.5t105.5 -74t67 -108t23.5 -128.5q0 -75 -27.5 -138t-75.5 -108t-111.5 -70.5t-135.5 -25.5q-77 0 -138.5 28t-104 74t-65.5 106t-23 125q0 64 23 126.5t67.5 111.5t108.5 79t146 30zM381 25q67 3 117.5 30.5t84.5 70t50.5 93.5t16.5 101
q0 55 -20 111t-57 101.5t-88.5 74t-115.5 28.5q-62 0 -111 -27.5t-83.5 -70.5t-52.5 -96t-18 -104q0 -55 21 -110.5t58 -100.5t87.5 -73t110.5 -28zM257 -61l-37 12l282 763l37 -10zM296 688l142 107l26 -45l-165 -68z" />
    <glyph glyph-name="Racute" unicode="&#x154;" horiz-adv-x="540" 
d="M181 10h5v-10h-141v10h5q7 0 13 6t10.5 14t6.5 17.5t2 17.5v533q0 7 -2 16t-6.5 17t-10.5 13.5t-13 5.5h-5v10h174q100 0 154.5 -39t54.5 -115q0 -38 -12.5 -66.5t-33.5 -49t-49.5 -33t-60.5 -18.5l72 -110q26 -40 53 -78.5t53 -79.5q7 -10 15.5 -21t18 -20t20 -14.5
t21.5 -5.5v-10h-43q-40 0 -65.5 19.5t-42.5 45.5q-45 66 -89.5 134t-88.5 134q-11 1 -23.5 2.5t-23.5 3.5v-274q0 -8 2 -17.5t6.5 -17.5t10 -14t13.5 -6zM149 626v-254h5q8 -1 25.5 -1.5t43.5 -0.5q21 0 44.5 6.5t44 22t34 40.5t13.5 63t-14.5 62t-40 38t-61.5 19t-79 5h-15
zM185 688l142 107l26 -45l-165 -68z" />
    <glyph glyph-name="Rcaron" unicode="&#x158;" horiz-adv-x="540" 
d="M181 10h5v-10h-141v10h5q7 0 13 6t10.5 14t6.5 17.5t2 17.5v533q0 7 -2 16t-6.5 17t-10.5 13.5t-13 5.5h-5v10h174q100 0 154.5 -39t54.5 -115q0 -38 -12.5 -66.5t-33.5 -49t-49.5 -33t-60.5 -18.5l72 -110q26 -40 53 -78.5t53 -79.5q7 -10 15.5 -21t18 -20t20 -14.5
t21.5 -5.5v-10h-43q-40 0 -65.5 19.5t-42.5 45.5q-45 66 -89.5 134t-88.5 134q-11 1 -23.5 2.5t-23.5 3.5v-274q0 -8 2 -17.5t6.5 -17.5t10 -14t13.5 -6zM149 626v-254h5q8 -1 25.5 -1.5t43.5 -0.5q21 0 44.5 6.5t44 22t34 40.5t13.5 63t-14.5 62t-40 38t-61.5 19t-79 5h-15
zM149 790l121 -57l119 57l2 -4l-121 -104l-124 104z" />
    <glyph glyph-name="Sacute" unicode="&#x15a;" horiz-adv-x="490" 
d="M450 177q0 -50 -20 -85.5t-51.5 -57.5t-71 -32t-78.5 -10q-40 0 -69 8t-53 15q-16 5 -29 8.5t-26 3.5v114h10q0 -38 19.5 -60.5t45.5 -34.5t52 -15.5t38 -3.5q43 0 74 12.5t51 33t29.5 45.5t9.5 51q0 33 -14 55.5t-36.5 39.5t-51.5 29t-59 24q-34 13 -67 27t-59 34.5
t-42 49t-16 70.5q0 44 17 76.5t45.5 53.5t65 31.5t74.5 10.5q26 0 49 -3.5t44 -8.5q17 -4 33 -6.5t31 -2.5v-103h-10q-2 52 -41 70.5t-108 18.5q-40 0 -65.5 -13.5t-40.5 -33t-20.5 -42t-5.5 -39.5q0 -28 12.5 -48t33.5 -35t48.5 -27t57.5 -23q34 -13 69 -28t62.5 -37
t45 -54t17.5 -78zM160 688l142 107l26 -45l-165 -68z" />
    <glyph glyph-name="Scedilla" unicode="&#x15e;" horiz-adv-x="490" 
d="M236 -50q44 -5 64 -21.5t20 -37.5q0 -26 -29 -48t-83 -22q-6 0 -12 0.5t-12 1.5q-5 0 -9 0.5t-7 0.5v8h11q19 0 36 4.5t29.5 12t20 17t7.5 20.5q0 17 -20 32.5t-57 20.5l32 53q-37 0 -64.5 6.5t-50.5 14.5q-20 7 -33.5 10.5t-26.5 3.5v114h10q0 -38 19.5 -60.5
t45.5 -34.5t52 -15.5t38 -3.5q43 0 74 12.5t51 33t29.5 45.5t9.5 51q0 33 -14 55.5t-36.5 39.5t-51.5 29t-59 24q-34 13 -67 27t-59 34.5t-42 49t-16 70.5q0 44 17 76.5t45.5 53.5t65 31.5t74.5 10.5q26 0 49 -3.5t44 -8.5q17 -4 33 -6.5t31 -2.5v-103h-10q-2 52 -41 70.5
t-108 18.5q-40 0 -65.5 -13.5t-40.5 -33t-20.5 -42t-5.5 -39.5q0 -28 12.5 -48t33.5 -35t48.5 -27t57.5 -23q34 -13 69 -28t62.5 -37t45 -54t17.5 -78q0 -45 -16.5 -78t-43 -55.5t-60.5 -34.5t-69 -15z" />
    <glyph glyph-name="Scircumflex" unicode="&#x15c;" horiz-adv-x="490" 
d="M450 177q0 -50 -20 -85.5t-51.5 -57.5t-71 -32t-78.5 -10q-40 0 -69 8t-53 15q-16 5 -29 8.5t-26 3.5v114h10q0 -38 19.5 -60.5t45.5 -34.5t52 -15.5t38 -3.5q43 0 74 12.5t51 33t29.5 45.5t9.5 51q0 33 -14 55.5t-36.5 39.5t-51.5 29t-59 24q-34 13 -67 27t-59 34.5
t-42 49t-16 70.5q0 44 17 76.5t45.5 53.5t65 31.5t74.5 10.5q26 0 49 -3.5t44 -8.5q17 -4 33 -6.5t31 -2.5v-103h-10q-2 52 -41 70.5t-108 18.5q-40 0 -65.5 -13.5t-40.5 -33t-20.5 -42t-5.5 -39.5q0 -28 12.5 -48t33.5 -35t48.5 -27t57.5 -23q34 -13 69 -28t62.5 -37
t45 -54t17.5 -78zM365 685l-121 59l-120 -59l-2 5l122 103l122 -103z" />
    <glyph glyph-name="Tbar" unicode="&#x166;" horiz-adv-x="468" 
d="M298 10h5v-10h-142v10h5q8 0 14 6t10.5 14t6.5 17.5t2 17.5v364h-114v37h114v157h-116q-16 0 -28 -7t-20 -17.5t-12 -23t-4 -24.5h-10v109h449v-109h-10q0 12 -4 24.5t-12 23t-20 17.5t-28 7h-118v-157h122v-37h-122v-364q0 -8 2 -17.5t6.5 -17.5t10 -14t13.5 -6z" />
    <glyph glyph-name="Tcaron" unicode="&#x164;" horiz-adv-x="468" 
d="M298 10h5v-10h-142v10h5q8 0 14 6t10.5 14t6.5 17.5t2 17.5v558h-116q-16 0 -28 -7t-20 -17.5t-12 -23t-4 -24.5h-10v109h449v-109h-10q0 12 -4 24.5t-12 23t-20 17.5t-28 7h-118v-558q0 -8 2 -17.5t6.5 -17.5t10 -14t13.5 -6zM115 790l121 -57l119 57l2 -4l-121 -104
l-124 104z" />
    <glyph glyph-name="Ubreve" unicode="&#x16c;" horiz-adv-x="584" 
d="M45 660h142v-10h-5q-8 0 -14 -5.5t-10.5 -13.5t-6.5 -17t-2 -16v-395q0 -39 8 -72t27 -57t50 -37.5t76 -13.5q50 0 80 16t46 41.5t21 57.5t5 63v397q0 7 -2 16t-6.5 17t-10.5 13.5t-13 5.5h-5v10h109v-10h-5q-8 0 -13.5 -5.5t-10 -13.5t-6.5 -17t-2 -16v-394
q0 -65 -16 -106.5t-44 -65.5t-65.5 -33t-79.5 -9q-45 0 -83.5 9.5t-66.5 33.5t-44 65.5t-16 104.5v395q0 7 -2 16t-6.5 17t-10.5 13.5t-13 5.5h-5v10zM403 795q0 -16 -8 -34.5t-22.5 -34t-35 -25.5t-45.5 -10q-24 0 -44.5 9.5t-35.5 24.5t-24 33.5t-9 36.5h6q1 -6 6.5 -16.5
t17.5 -21.5t32 -19t50 -8q31 0 50.5 8t31.5 19t17 21.5t7 16.5h6z" />
    <glyph glyph-name="Uhungarumlaut" unicode="&#x170;" horiz-adv-x="584" 
d="M45 660h142v-10h-5q-8 0 -14 -5.5t-10.5 -13.5t-6.5 -17t-2 -16v-395q0 -39 8 -72t27 -57t50 -37.5t76 -13.5q50 0 80 16t46 41.5t21 57.5t5 63v397q0 7 -2 16t-6.5 17t-10.5 13.5t-13 5.5h-5v10h109v-10h-5q-8 0 -13.5 -5.5t-10 -13.5t-6.5 -17t-2 -16v-394
q0 -65 -16 -106.5t-44 -65.5t-65.5 -33t-79.5 -9q-45 0 -83.5 9.5t-66.5 33.5t-44 65.5t-16 104.5v395q0 7 -2 16t-6.5 17t-10.5 13.5t-13 5.5h-5v10zM170 694l83 162l51 -32l-123 -138zM262 695l107 147l45 -39l-141 -118z" />
    <glyph glyph-name="Umacron" unicode="&#x16a;" horiz-adv-x="584" 
d="M45 660h142v-10h-5q-8 0 -14 -5.5t-10.5 -13.5t-6.5 -17t-2 -16v-395q0 -39 8 -72t27 -57t50 -37.5t76 -13.5q50 0 80 16t46 41.5t21 57.5t5 63v397q0 7 -2 16t-6.5 17t-10.5 13.5t-13 5.5h-5v10h109v-10h-5q-8 0 -13.5 -5.5t-10 -13.5t-6.5 -17t-2 -16v-394
q0 -65 -16 -106.5t-44 -65.5t-65.5 -33t-79.5 -9q-45 0 -83.5 9.5t-66.5 33.5t-44 65.5t-16 104.5v395q0 7 -2 16t-6.5 17t-10.5 13.5t-13 5.5h-5v10zM191 753h200v-40h-200v40z" />
    <glyph glyph-name="Uogonek" unicode="&#x172;" horiz-adv-x="584" 
d="M45 660h142v-10h-5q-8 0 -14 -5.5t-10.5 -13.5t-6.5 -17t-2 -16v-395q0 -39 8 -72t27 -57t50 -37.5t76 -13.5q50 0 80 16t46 41.5t21 57t5 63.5v397q0 7 -2 16t-6.5 17t-10.5 13.5t-13 5.5h-5v10h109v-10h-5q-8 0 -13.5 -5.5t-10 -13.5t-6.5 -17t-2 -16v-394
q0 -62 -15 -103t-41.5 -65t-61.5 -34.5t-74 -11.5q-14 -14 -23 -31.5t-9 -34.5q0 -19 14 -34t52 -15q24 0 41 7l2 -5q-13 -8 -32 -12t-40 -4q-45 0 -65 16.5t-20 39.5q0 20 12.5 39.5t32.5 34.5q-41 2 -75.5 13t-59.5 35t-39 64t-14 100v395q0 7 -2 16t-6.5 17t-10.5 13.5
t-13 5.5h-5v10z" />
    <glyph glyph-name="Uring" unicode="&#x16e;" horiz-adv-x="584" 
d="M45 660h142v-10h-5q-8 0 -14 -5.5t-10.5 -13.5t-6.5 -17t-2 -16v-395q0 -39 8 -72t27 -57t50 -37.5t76 -13.5q50 0 80 16t46 41.5t21 57.5t5 63v397q0 7 -2 16t-6.5 17t-10.5 13.5t-13 5.5h-5v10h109v-10h-5q-8 0 -13.5 -5.5t-10 -13.5t-6.5 -17t-2 -16v-394
q0 -65 -16 -106.5t-44 -65.5t-65.5 -33t-79.5 -9q-45 0 -83.5 9.5t-66.5 33.5t-44 65.5t-16 104.5v395q0 7 -2 16t-6.5 17t-10.5 13.5t-13 5.5h-5v10zM219 749q0 26 20.5 43t51.5 17t52 -17t21 -43t-21 -42.5t-52 -16.5t-51.5 16.5t-20.5 42.5zM247 755q0 -21 15 -35.5
t36 -14.5q17 0 28 11.5t11 29.5t-16 33t-36 15q-16 0 -27 -11.5t-11 -27.5z" />
    <glyph glyph-name="Utilde" unicode="&#x168;" horiz-adv-x="584" 
d="M45 660h142v-10h-5q-8 0 -14 -5.5t-10.5 -13.5t-6.5 -17t-2 -16v-395q0 -39 8 -72t27 -57t50 -37.5t76 -13.5q50 0 80 16t46 41.5t21 57.5t5 63v397q0 7 -2 16t-6.5 17t-10.5 13.5t-13 5.5h-5v10h109v-10h-5q-8 0 -13.5 -5.5t-10 -13.5t-6.5 -17t-2 -16v-394
q0 -65 -16 -106.5t-44 -65.5t-65.5 -33t-79.5 -9q-45 0 -83.5 9.5t-66.5 33.5t-44 65.5t-16 104.5v395q0 7 -2 16t-6.5 17t-10.5 13.5t-13 5.5h-5v10zM405 767q-12 -45 -23.5 -59t-32.5 -14q-12 0 -27 6t-31 13.5t-31.5 14t-28.5 6.5q-15 0 -25.5 -11t-23.5 -29l-5 1
q14 42 32.5 59.5t38.5 17.5q12 0 26 -6t27.5 -13.5t27.5 -13.5t26 -6q16 0 27 10.5t19 24.5z" />
    <glyph glyph-name="Wacute" unicode="&#x1e82;" horiz-adv-x="806" 
d="M791 650q-20 0 -34 -17t-19 -37l-182 -600l-156 492l-156 -493l-183 600q-5 19 -17.5 37t-28.5 18v10h142v-10q-13 0 -21.5 -10.5t-8.5 -26.5q0 -5 2 -13l130 -424l159 490l153 -489l132 423q0 2 1.5 8.5t1.5 10.5q0 14 -8 22.5t-16 8.5v10h109v-10zM318 688l142 107
l26 -45l-165 -68z" />
    <glyph glyph-name="Wcircumflex" unicode="&#x174;" horiz-adv-x="806" 
d="M791 650q-20 0 -34 -17t-19 -37l-182 -600l-156 492l-156 -493l-183 600q-5 19 -17.5 37t-28.5 18v10h142v-10q-13 0 -21.5 -10.5t-8.5 -26.5q0 -5 2 -13l130 -424l159 490l153 -489l132 423q0 2 1.5 8.5t1.5 10.5q0 14 -8 22.5t-16 8.5v10h109v-10zM523 685l-121 59
l-120 -59l-2 5l122 103l122 -103z" />
    <glyph glyph-name="Wdieresis" unicode="&#x1e84;" horiz-adv-x="806" 
d="M791 650q-20 0 -34 -17t-19 -37l-182 -600l-156 492l-156 -493l-183 600q-5 19 -17.5 37t-28.5 18v10h142v-10q-13 0 -21.5 -10.5t-8.5 -26.5q0 -5 2 -13l130 -424l159 490l153 -489l132 423q0 2 1.5 8.5t1.5 10.5q0 14 -8 22.5t-16 8.5v10h109v-10zM492 718
q0 -14 -9 -23t-21 -9q-14 0 -23.5 9t-9.5 23t9.5 23t23.5 9q12 0 21 -9t9 -23zM377 718q0 -14 -9 -23t-23 -9t-23 9t-9 23t9 23t23 9t23 -9t9 -23z" />
    <glyph glyph-name="Wgrave" unicode="&#x1e80;" horiz-adv-x="806" 
d="M791 650q-20 0 -34 -17t-19 -37l-182 -600l-156 492l-156 -493l-183 600q-5 19 -17.5 37t-28.5 18v10h142v-10q-13 0 -21.5 -10.5t-8.5 -26.5q0 -5 2 -13l130 -424l159 490l153 -489l132 423q0 2 1.5 8.5t1.5 10.5q0 14 -8 22.5t-16 8.5v10h109v-10zM484 682l-166 68
l26 45l142 -107z" />
    <glyph glyph-name="Ycircumflex" unicode="&#x176;" horiz-adv-x="529" 
d="M3 660h138v-10q-7 -1 -13 -6t-6 -15q0 -5 3 -11l150 -263l144 249q4 8 5.5 12t1.5 10q-2 16 -11.5 20t-11.5 4v10h107v-10q-15 0 -30.5 -18.5t-26.5 -37.5l-156 -270v-259q0 -8 2.5 -17t6.5 -17.5t10 -14.5t14 -6h5v-10h-143v10h5q8 0 14 5.5t10.5 14t6.5 18t2 17.5v250
l-161 276q-5 8 -12 18t-15 19t-17 15.5t-17 6.5h-5v10zM385 685l-121 59l-120 -59l-2 5l122 103l122 -103z" />
    <glyph glyph-name="Ygrave" unicode="&#x1ef2;" horiz-adv-x="529" 
d="M3 660h138v-10q-7 -1 -13 -6t-6 -15q0 -5 3 -11l150 -263l144 249q4 8 5.5 12t1.5 10q-2 16 -11.5 20t-11.5 4v10h107v-10q-15 0 -30.5 -18.5t-26.5 -37.5l-156 -270v-259q0 -8 2.5 -17t6.5 -17.5t10 -14.5t14 -6h5v-10h-143v10h5q8 0 14 5.5t10.5 14t6.5 18t2 17.5v250
l-161 276q-5 8 -12 18t-15 19t-17 15.5t-17 6.5h-5v10zM346 682l-166 68l26 45l142 -107z" />
    <glyph glyph-name="Zacute" unicode="&#x179;" horiz-adv-x="470" 
d="M17 0l332 625h-232q-16 0 -28 -7.5t-20 -19t-12 -25t-4 -25.5h-10v112h403l-332 -625h257q16 0 28 7.5t20 19.5t12 25.5t4 25.5h10v-113h-428zM150 688l142 107l26 -45l-165 -68z" />
    <glyph glyph-name="Zdotaccent" unicode="&#x17b;" horiz-adv-x="470" 
d="M17 0l332 625h-232q-16 0 -28 -7.5t-20 -19t-12 -25t-4 -25.5h-10v112h403l-332 -625h257q16 0 28 7.5t20 19.5t12 25.5t4 25.5h10v-113h-428zM196 741q0 17 10.5 27.5t27.5 10.5t28 -10.5t11 -27.5t-11 -27.5t-28 -10.5t-27.5 10.5t-10.5 27.5z" />
    <glyph glyph-name="abreve" unicode="&#x103;" horiz-adv-x="457" 
d="M309 0v51l-5 -5q-25 -25 -57.5 -39t-78.5 -14q-35 0 -60 8t-41 22.5t-23.5 33.5t-7.5 40q0 34 18.5 60t53.5 46t85.5 36.5t115.5 32.5q-2 39 -16 63t-33 37.5t-40 18t-36 4.5q-26 0 -45.5 -8t-34 -20.5t-24.5 -27t-16 -27.5h-9v73q8 1 15 5t17 8q15 6 41 17.5t73 11.5
q55 0 89 -14t52.5 -37t24.5 -52.5t6 -60.5v-198q0 -20 9 -37.5t24 -17.5v-10h-97zM309 95v143l-10 -2q-24 -6 -58.5 -16t-65.5 -26t-53 -38t-22 -51q0 -32 26 -53t68 -21q33 0 58 14.5t46 37.5zM340 555q0 -16 -8 -34.5t-22.5 -34t-35 -25.5t-45.5 -10q-24 0 -44.5 9.5
t-35.5 24.5t-24 33.5t-9 36.5h6q1 -6 6.5 -16.5t17.5 -21.5t32 -19t50 -8q31 0 50.5 8t31.5 19t17 21.5t7 16.5h6z" />
    <glyph glyph-name="acutecomb" unicode="&#x301;" horiz-adv-x="222" 
d="M24 448l142 107l26 -45l-165 -68z" />
    <glyph glyph-name="aeacute" unicode="&#x1fd;" horiz-adv-x="759" 
d="M546 28q22 0 46.5 6.5t45.5 18.5t37.5 29.5t22.5 39.5h10v-75q-7 0 -14.5 -4t-17.5 -10q-20 -12 -54 -25.5t-90 -13.5q-58 0 -106 22.5t-77 68.5q-8 -8 -18.5 -19t-18.5 -19q-24 -25 -56.5 -39t-79.5 -14q-35 0 -60 8t-40.5 22.5t-23 33.5t-7.5 40q0 34 18 60t53 46
t85.5 36.5t115.5 32.5q-2 39 -16 63t-33 37.5t-39.5 18t-36.5 4.5q-26 0 -45.5 -8t-33.5 -20.5t-24 -27t-16 -27.5h-9v73q8 1 15.5 4.5t15.5 8.5q11 8 38.5 18.5t75.5 10.5q67 0 102.5 -20.5t52.5 -52.5q26 31 67 52t98 21q50 0 86 -17t58.5 -47t33 -71t10.5 -90h-336v-9
q4 -33 16 -63t32.5 -53t49 -36.5t67.5 -13.5zM525 395q-33 0 -58.5 -13t-43 -33.5t-28 -47t-14.5 -53.5v-9h274q-1 29 -8.5 57t-23.5 50t-40 35.5t-58 13.5zM336 111q-19 47 -19 105v12.5t1 12.5l-11 -4q-24 -6 -58 -16t-65.5 -26t-53.5 -38t-22 -52q0 -32 26 -52.5
t68 -20.5q34 0 58 15t46 35zM306 470l142 107l26 -45l-165 -68z" />
    <glyph glyph-name="amacron" unicode="&#x101;" horiz-adv-x="457" 
d="M309 0v51l-5 -5q-25 -25 -57.5 -39t-78.5 -14q-35 0 -60 8t-41 22.5t-23.5 33.5t-7.5 40q0 34 18.5 60t53.5 46t85.5 36.5t115.5 32.5q-2 39 -16 63t-33 37.5t-40 18t-36 4.5q-26 0 -45.5 -8t-34 -20.5t-24.5 -27t-16 -27.5h-9v73q8 1 15 5t17 8q15 6 41 17.5t73 11.5
q55 0 89 -14t52.5 -37t24.5 -52.5t6 -60.5v-198q0 -20 9 -37.5t24 -17.5v-10h-97zM309 95v143l-10 -2q-24 -6 -58.5 -16t-65.5 -26t-53 -38t-22 -51q0 -32 26 -53t68 -21q33 0 58 14.5t46 37.5zM128 513h200v-40h-200v40z" />
    <glyph glyph-name="aogonek" unicode="&#x105;" horiz-adv-x="457" 
d="M373 -124q23 0 41 7l2 -5q-13 -8 -32 -12t-40 -4q-45 0 -65.5 16.5t-20.5 38.5q0 24 17.5 46t40.5 37h-7v51l-5 -5q-25 -25 -57.5 -39t-78.5 -14q-35 0 -60 8t-41 22.5t-23.5 33.5t-7.5 40q0 34 18.5 60t53.5 46t85.5 36.5t115.5 32.5q-2 39 -16 63t-33 37.5t-40 18
t-36 4.5q-26 0 -45.5 -8t-34 -20.5t-24.5 -27t-16 -27.5h-9v73q8 1 15.5 4.5t16.5 8.5q16 9 41.5 19t72.5 10q55 0 89 -14t52.5 -37t24.5 -52.5t6 -60.5v-198q0 -20 9 -37.5t24 -17.5v-10h-57q-17 -15 -30 -35.5t-13 -40.5q0 -19 14.5 -33.5t52.5 -14.5zM309 95v143l-10 -2
q-24 -6 -58.5 -16t-65.5 -26t-53 -38t-22 -51q0 -32 26 -53t68 -21q33 0 58 14.5t46 37.5z" />
    <glyph glyph-name="breve" unicode="&#x2d8;" horiz-adv-x="281" 
d="M252 555q0 -16 -8 -34.5t-22.5 -34t-35 -25.5t-45.5 -10q-24 0 -44.5 9.5t-35.5 24.5t-24 33.5t-9 36.5h6q1 -6 6.5 -16.5t17.5 -21.5t32 -19t50 -8q31 0 50.5 8t31.5 19t17 21.5t7 16.5h6z" />
    <glyph glyph-name="cacute" unicode="&#x107;" horiz-adv-x="436" 
d="M414 36q-8 0 -15 -3.5t-16 -8.5q-17 -10 -43 -20.5t-68 -10.5q-51 0 -94.5 16.5t-75 46t-49 69t-17.5 85.5q0 43 15.5 82t44.5 69t71.5 48t96.5 18q37 0 60 -8.5t39 -16.5q9 -5 17.5 -8t17.5 -3v-76h-10q-5 19 -18 33.5t-30 24.5t-37 15t-39 5q-41 0 -72 -14.5t-51 -38
t-30 -53.5t-10 -62q0 -37 12 -72.5t34.5 -63.5t54.5 -45t72 -17q28 0 51.5 8t40 21t26.5 28.5t12 29.5h10v-78zM161 473l142 107l26 -45l-165 -68z" />
    <glyph glyph-name="caron" unicode="&#x2c7;" horiz-adv-x="300" 
d="M15 550l121 -57l119 57l2 -4l-121 -104l-124 104z" />
    <glyph glyph-name="ccaron" unicode="&#x10d;" horiz-adv-x="436" 
d="M414 36q-8 0 -15 -3.5t-16 -8.5q-17 -10 -43 -20.5t-68 -10.5q-51 0 -94.5 16.5t-75 46t-49 69t-17.5 85.5q0 43 15.5 82t44.5 69t71.5 48t96.5 18q37 0 60 -8.5t39 -16.5q9 -5 17.5 -8t17.5 -3v-76h-10q-5 19 -18 33.5t-30 24.5t-37 15t-39 5q-41 0 -72 -14.5t-51 -38
t-30 -53.5t-10 -62q0 -37 12 -72.5t34.5 -63.5t54.5 -45t72 -17q28 0 51.5 8t40 21t26.5 28.5t12 29.5h10v-78zM133 564l121 -57l119 57l2 -4l-121 -104l-124 104z" />
    <glyph glyph-name="ccircumflex" unicode="&#x109;" horiz-adv-x="436" 
d="M414 36q-8 0 -15 -3.5t-16 -8.5q-17 -10 -43 -20.5t-68 -10.5q-51 0 -94.5 16.5t-75 46t-49 69t-17.5 85.5q0 43 15.5 82t44.5 69t71.5 48t96.5 18q37 0 60 -8.5t39 -16.5q9 -5 17.5 -8t17.5 -3v-76h-10q-5 19 -18 33.5t-30 24.5t-37 15t-39 5q-41 0 -72 -14.5t-51 -38
t-30 -53.5t-10 -62q0 -37 12 -72.5t34.5 -63.5t54.5 -45t72 -17q28 0 51.5 8t40 21t26.5 28.5t12 29.5h10v-78zM369 464l-121 59l-120 -59l-2 5l122 103l122 -103z" />
    <glyph glyph-name="cdotaccent" unicode="&#x10b;" horiz-adv-x="436" 
d="M414 36q-8 0 -15 -3.5t-16 -8.5q-17 -10 -43 -20.5t-68 -10.5q-51 0 -94.5 16.5t-75 46t-49 69t-17.5 85.5q0 43 15.5 82t44.5 69t71.5 48t96.5 18q37 0 60 -8.5t39 -16.5q9 -5 17.5 -8t17.5 -3v-76h-10q-5 19 -18 33.5t-30 24.5t-37 15t-39 5q-41 0 -72 -14.5t-51 -38
t-30 -53.5t-10 -62q0 -37 12 -72.5t34.5 -63.5t54.5 -45t72 -17q28 0 51.5 8t40 21t26.5 28.5t12 29.5h10v-78zM222 514q0 17 10.5 27.5t27.5 10.5t28 -10.5t11 -27.5t-11 -27.5t-28 -10.5t-27.5 10.5t-10.5 27.5z" />
    <glyph glyph-name="dcaron" unicode="&#x10f;" horiz-adv-x="576" 
d="M363 0v44q-17 -19 -45.5 -35t-71.5 -16q-53 0 -92.5 18.5t-65.5 48.5t-38.5 68.5t-12.5 79.5q0 40 13 79.5t39 70.5t65 50t90 19q34 0 67 -12.5t52 -32.5v195q0 17 -5 32t-29 16v10l100 31v-601q0 -8 2 -17.5t6 -17.5t10 -14t14 -6v-10h-98zM253 26q21 0 41 8.5t35 23
t24.5 34t9.5 42.5v137q0 28 -12 50.5t-30 38.5t-39.5 24.5t-41.5 8.5q-33 0 -59 -15.5t-44 -40t-27 -55t-9 -60.5q0 -35 10 -69.5t29.5 -62t47.5 -45.5t65 -19zM520 663q29 0 42.5 -19.5t13.5 -45.5q0 -16 -4 -34t-15.5 -37t-33 -37.5t-56.5 -34.5l-6 9q20 19 31.5 33
t17.5 25.5t7.5 21.5t1.5 21q0 8 -4.5 12t-11.5 8q-8 5 -16 11.5t-8 23.5q0 19 12 31t29 12z" />
    <glyph glyph-name="dcroat" unicode="&#x111;" horiz-adv-x="513" 
d="M198 532h165v45q0 17 -5 32t-29 16v10l100 31v-134h71v-36h-71v-431q0 -8 2 -17.5t6.5 -17.5t10 -14t13.5 -6v-10h-98v44q-17 -19 -45.5 -35t-71.5 -16q-53 0 -92.5 18.5t-65.5 48.5t-38.5 68.5t-12.5 79.5q0 40 13 79.5t39 70.5t65 50t90 19q34 0 67 -12.5t52 -32.5v114
h-165v36zM253 26q21 0 41 8.5t35 23t24.5 34t9.5 42.5v137q0 28 -12 50.5t-30 38.5t-39.5 24.5t-41.5 8.5q-33 0 -59 -15.5t-44 -40t-27 -55t-9 -60.5q0 -35 10 -69.5t29.5 -62t47.5 -45.5t65 -19z" />
    <glyph glyph-name="dotaccent" unicode="&#x2d9;" horiz-adv-x="132" 
d="M27 501q0 17 10.5 27.5t27.5 10.5t28 -10.5t11 -27.5t-11 -27.5t-28 -10.5t-27.5 10.5t-10.5 27.5z" />
    <glyph glyph-name="dotlessi" unicode="&#x131;" horiz-adv-x="251" 
d="M59 0v10q8 0 14 6t10 14t6 17.5t2 17.5v277q0 17 -5 32.5t-29 16.5v9l100 32v-367q0 -8 2 -17.5t6 -17.5t10 -14t14 -6v-10h-130z" />
    <glyph glyph-name="ebreve" unicode="&#x115;" 
d="M100 202q4 -35 17 -66.5t34.5 -55.5t52.5 -38.5t72 -14.5q22 0 46.5 6.5t45.5 18.5t37.5 29.5t22.5 39.5h9v-75q-6 0 -13.5 -4t-17.5 -10q-20 -12 -54 -25.5t-90 -13.5q-45 0 -85.5 13t-71.5 40t-49.5 69t-18.5 100q0 37 12.5 75t38 68.5t65.5 49.5t96 19q50 0 87.5 -17
t62 -47t36.5 -71t12 -90h-347zM245 394q-35 0 -60.5 -14t-43.5 -36t-28 -50t-13 -56h285q-1 29 -10.5 57t-26.5 50t-43 35.5t-60 13.5zM363 587q0 -16 -8 -34.5t-22.5 -34t-35 -25.5t-45.5 -10q-24 0 -44.5 9.5t-35.5 24.5t-24 33.5t-9 36.5h6q1 -6 6.5 -16.5t17.5 -21.5
t32 -19t50 -8q31 0 50.5 8t31.5 19t17 21.5t7 16.5h6z" />
    <glyph glyph-name="ecaron" unicode="&#x11b;" 
d="M100 202q4 -35 17 -66.5t34.5 -55.5t52.5 -38.5t72 -14.5q22 0 46.5 6.5t45.5 18.5t37.5 29.5t22.5 39.5h9v-75q-6 0 -13.5 -4t-17.5 -10q-20 -12 -54 -25.5t-90 -13.5q-45 0 -85.5 13t-71.5 40t-49.5 69t-18.5 100q0 37 12.5 75t38 68.5t65.5 49.5t96 19q50 0 87.5 -17
t62 -47t36.5 -71t12 -90h-347zM245 394q-35 0 -60.5 -14t-43.5 -36t-28 -50t-13 -56h285q-1 29 -10.5 57t-26.5 50t-43 35.5t-60 13.5zM134 583l121 -57l119 57l2 -4l-121 -104l-124 104z" />
    <glyph glyph-name="edotaccent" unicode="&#x117;" 
d="M100 202q4 -35 17 -66.5t34.5 -55.5t52.5 -38.5t72 -14.5q22 0 46.5 6.5t45.5 18.5t37.5 29.5t22.5 39.5h9v-75q-6 0 -13.5 -4t-17.5 -10q-20 -12 -54 -25.5t-90 -13.5q-45 0 -85.5 13t-71.5 40t-49.5 69t-18.5 100q0 37 12.5 75t38 68.5t65.5 49.5t96 19q50 0 87.5 -17
t62 -47t36.5 -71t12 -90h-347zM245 394q-35 0 -60.5 -14t-43.5 -36t-28 -50t-13 -56h285q-1 29 -10.5 57t-26.5 50t-43 35.5t-60 13.5zM216 532q0 17 10.5 27.5t27.5 10.5t28 -10.5t11 -27.5t-11 -27.5t-28 -10.5t-27.5 10.5t-10.5 27.5z" />
    <glyph glyph-name="emacron" unicode="&#x113;" 
d="M100 202q4 -35 17 -66.5t34.5 -55.5t52.5 -38.5t72 -14.5q22 0 46.5 6.5t45.5 18.5t37.5 29.5t22.5 39.5h9v-75q-6 0 -13.5 -4t-17.5 -10q-20 -12 -54 -25.5t-90 -13.5q-45 0 -85.5 13t-71.5 40t-49.5 69t-18.5 100q0 37 12.5 75t38 68.5t65.5 49.5t96 19q50 0 87.5 -17
t62 -47t36.5 -71t12 -90h-347zM245 394q-35 0 -60.5 -14t-43.5 -36t-28 -50t-13 -56h285q-1 29 -10.5 57t-26.5 50t-43 35.5t-60 13.5zM142 513h200v-40h-200v40z" />
    <glyph glyph-name="eng" unicode="&#x14b;" horiz-adv-x="532" 
d="M447 3q0 -31 -8 -58.5t-21 -50.5t-30 -42.5t-34 -35.5q-40 -37 -92 -63l-5 8q35 25 62 59q23 29 43 71.5t20 96.5v263q0 36 -10 63t-27 45t-38.5 26.5t-43.5 8.5t-43.5 -9t-38 -23.5t-27 -34t-10.5 -40.5v-222q0 -8 2 -17.5t6.5 -17.5t10 -14t13.5 -6v-10h-130v10
q7 0 13 6t10.5 14t6.5 17.5t2 17.5v276q0 17 -5 32.5t-29 16.5v9l100 32v-55q7 8 18 17.5t26.5 18t36 14t48.5 5.5q47 0 80 -16t54 -41.5t30.5 -56t9.5 -59.5v-255z" />
    <glyph glyph-name="eogonek" unicode="&#x119;" 
d="M311 -124q23 0 41 7l2 -5q-13 -8 -32 -12t-40 -4q-44 0 -64.5 16.5t-20.5 38.5q0 21 13.5 41t33.5 36q-42 2 -79.5 16t-66 41t-45 67.5t-16.5 96.5q0 37 12.5 75t38 68.5t65.5 49.5t96 19q50 0 87.5 -17t62 -47t36.5 -71t12 -90h-347q4 -35 17 -66.5t34.5 -55.5
t52.5 -38.5t72 -14.5q22 0 46.5 6.5t45.5 18.5t37.5 29.5t22.5 39.5h9v-75q-8 0 -15 -4t-18 -10q-19 -11 -48.5 -23.5t-76.5 -14.5q-14 -14 -24.5 -33.5t-10.5 -36.5q0 -19 14.5 -33.5t52.5 -14.5zM245 394q-35 0 -60.5 -14t-43.5 -36t-28 -50t-13 -56h285q-1 29 -10.5 57
t-26.5 50t-43 35.5t-60 13.5z" />
    <glyph glyph-name="fraction" unicode="&#x2044;" horiz-adv-x="482" 
d="M55 -10h-50l414 669h51z" />
    <glyph glyph-name="franc" unicode="&#x20a3;" horiz-adv-x="460" 
d="M45 228h38v369q0 7 -2 16t-6.5 17t-10.5 13.5t-14 5.5v10h380v-93h-10q0 23 -15.5 40.5t-48.5 17.5h-205v-253h166q23 0 38.5 14t15.5 33h10v-124h-10q0 17 -15 30t-39 13h-166v-109h230v-39h-230v-126q0 -8 2 -17t6.5 -17t10.5 -13.5t14 -5.5v-10h-134v10q8 0 14 5.5
t10.5 13.5t6.5 17t2 17v126h-38v39z" />
    <glyph glyph-name="gbreve" unicode="&#x11f;" horiz-adv-x="495" 
d="M253 -186q30 0 57 5.5t47.5 15.5t32.5 24t12 30q0 17 -16.5 29t-44.5 21t-65 15.5t-77 13.5l-51 9q-23 -18 -32 -38t-9 -35q0 -21 11.5 -37.5t31 -28.5t46 -18t57.5 -6zM308 14q40 -6 66.5 -16t42.5 -23.5t22 -30t6 -35.5q0 -34 -18.5 -59t-48 -41.5t-67 -24.5t-76.5 -8
q-38 0 -73 7.5t-62 22.5t-43 37.5t-16 51.5q0 26 16 49.5t52 46.5q-35 18 -53.5 48.5t-18.5 62.5q0 19 9 37.5t29 34.5q-17 20 -24 40t-7 43q0 36 15 67t41 54t61 36t75 13q42 0 80 -14.5t64 -37.5h72v-36h-46q7 -15 14 -35.5t7 -42.5q0 -32 -15 -60.5t-41.5 -50t-62 -34
t-75.5 -12.5q-37 0 -72 11t-62 32q-11 -7 -15 -17.5t-4 -21.5q0 -32 29 -49.5t74 -24.5zM224 392q-24 0 -45 -8.5t-37 -23.5t-25.5 -36.5t-9.5 -48.5q0 -33 13.5 -59t34.5 -43t46.5 -26t48.5 -9q25 0 45.5 9.5t35.5 26t23 38.5t8 46q0 30 -12 55t-31.5 42.5t-44.5 27
t-50 9.5zM348 597q0 -16 -8 -34.5t-22.5 -34t-35 -25.5t-45.5 -10q-24 0 -44.5 9.5t-35.5 24.5t-24 33.5t-9 36.5h6q1 -6 6.5 -16.5t17.5 -21.5t32 -19t50 -8q31 0 50.5 8t31.5 19t17 21.5t7 16.5h6z" />
    <glyph glyph-name="gcircumflex" unicode="&#x11d;" horiz-adv-x="495" 
d="M253 -186q30 0 57 5.5t47.5 15.5t32.5 24t12 30q0 17 -16.5 29t-44.5 21t-65 15.5t-77 13.5l-51 9q-23 -18 -32 -38t-9 -35q0 -21 11.5 -37.5t31 -28.5t46 -18t57.5 -6zM308 14q40 -6 66.5 -16t42.5 -23.5t22 -30t6 -35.5q0 -34 -18.5 -59t-48 -41.5t-67 -24.5t-76.5 -8
q-38 0 -73 7.5t-62 22.5t-43 37.5t-16 51.5q0 26 16 49.5t52 46.5q-35 18 -53.5 48.5t-18.5 62.5q0 19 9 37.5t29 34.5q-17 20 -24 40t-7 43q0 36 15 67t41 54t61 36t75 13q42 0 80 -14.5t64 -37.5h72v-36h-46q7 -15 14 -35.5t7 -42.5q0 -32 -15 -60.5t-41.5 -50t-62 -34
t-75.5 -12.5q-37 0 -72 11t-62 32q-11 -7 -15 -17.5t-4 -21.5q0 -32 29 -49.5t74 -24.5zM224 392q-24 0 -45 -8.5t-37 -23.5t-25.5 -36.5t-9.5 -48.5q0 -33 13.5 -59t34.5 -43t46.5 -26t48.5 -9q25 0 45.5 9.5t35.5 26t23 38.5t8 46q0 30 -12 55t-31.5 42.5t-44.5 27
t-50 9.5zM360 473l-121 59l-120 -59l-2 5l122 103l122 -103z" />
    <glyph glyph-name="gdotaccent" unicode="&#x121;" horiz-adv-x="495" 
d="M253 -186q30 0 57 5.5t47.5 15.5t32.5 24t12 30q0 17 -16.5 29t-44.5 21t-65 15.5t-77 13.5l-51 9q-23 -18 -32 -38t-9 -35q0 -21 11.5 -37.5t31 -28.5t46 -18t57.5 -6zM308 14q40 -6 66.5 -16t42.5 -23.5t22 -30t6 -35.5q0 -34 -18.5 -59t-48 -41.5t-67 -24.5t-76.5 -8
q-38 0 -73 7.5t-62 22.5t-43 37.5t-16 51.5q0 26 16 49.5t52 46.5q-35 18 -53.5 48.5t-18.5 62.5q0 19 9 37.5t29 34.5q-17 20 -24 40t-7 43q0 36 15 67t41 54t61 36t75 13q42 0 80 -14.5t64 -37.5h72v-36h-46q7 -15 14 -35.5t7 -42.5q0 -32 -15 -60.5t-41.5 -50t-62 -34
t-75.5 -12.5q-37 0 -72 11t-62 32q-11 -7 -15 -17.5t-4 -21.5q0 -32 29 -49.5t74 -24.5zM224 392q-24 0 -45 -8.5t-37 -23.5t-25.5 -36.5t-9.5 -48.5q0 -33 13.5 -59t34.5 -43t46.5 -26t48.5 -9q25 0 45.5 9.5t35.5 26t23 38.5t8 46q0 30 -12 55t-31.5 42.5t-44.5 27
t-50 9.5zM202 531q0 17 10.5 27.5t27.5 10.5t28 -10.5t11 -27.5t-11 -27.5t-28 -10.5t-27.5 10.5t-10.5 27.5z" />
    <glyph glyph-name="gravecomb" unicode="&#x300;" horiz-adv-x="222" 
d="M190 442l-166 68l26 45l142 -107z" />
    <glyph glyph-name="greaterequal" unicode="&#x2265;" horiz-adv-x="467" 
d="M35 236v60l319 123l-319 123v60l392 -156v-54zM35 133v53h392v-53h-392z" />
    <glyph glyph-name="hbar" unicode="&#x127;" horiz-adv-x="532" 
d="M20 532h58v44q0 17 -5 32t-29 16v10l100 31v-133h178v-36h-178v-120q7 8 18 17.5t26.5 18t36 14t48.5 5.5q47 0 80 -16t54 -41.5t30.5 -56t9.5 -59.5v-193q0 -8 2 -17.5t6.5 -17.5t10 -14t13.5 -6v-10h-129v10q7 0 13 6t10.5 14t6.5 17.5t2 17.5v186q0 36 -10 63t-27 45
t-38.5 26.5t-43.5 8.5t-43.5 -8.5t-38 -23.5t-27 -36.5t-10.5 -47.5v-213q0 -8 2 -17.5t6.5 -17.5t10 -14t13.5 -6v-10h-130v10q7 0 13 6t10.5 14t6.5 17.5t2 17.5v431h-58v36z" />
    <glyph glyph-name="hcircumflex" unicode="&#x125;" horiz-adv-x="532" 
d="M447 65q0 -8 2 -17.5t6.5 -17.5t10 -14t13.5 -6v-10h-129v10q7 0 13 6t10.5 14t6.5 17.5t2 17.5v186q0 36 -10 63t-27 45t-38.5 26.5t-43.5 8.5t-43.5 -8.5t-38 -23.5t-27 -36.5t-10.5 -47.5v-213q0 -8 2 -17.5t6.5 -17.5t10 -14t13.5 -6v-10h-130v10q7 0 13 6t10.5 14
t6.5 17.5t2 17.5v511q0 17 -5 32t-29 16v10l100 31v-289q7 8 18 17.5t26.5 18t36 14t48.5 5.5q47 0 80 -16t54 -41.5t30.5 -56t9.5 -59.5v-193zM424 487l-121 59l-120 -59l-2 5l122 103l122 -103z" />
    <glyph glyph-name="hungarumlaut" unicode="&#x2dd;" horiz-adv-x="278" 
d="M22 454l83 162l51 -32l-123 -138zM114 455l107 147l45 -39l-141 -118z" />
    <glyph glyph-name="ibreve" unicode="&#x12d;" horiz-adv-x="251" 
d="M59 0v10q8 0 14 6t10 14t6 17.5t2 17.5v277q0 17 -5 32.5t-29 16.5v9l100 32v-367q0 -8 2 -17.5t6 -17.5t10 -14t14 -6v-10h-130zM237 556q0 -16 -8 -34.5t-22.5 -34t-35 -25.5t-45.5 -10q-24 0 -44.5 9.5t-35.5 24.5t-24 33.5t-9 36.5h6q1 -6 6.5 -16.5t17.5 -21.5
t32 -19t50 -8q31 0 50.5 8t31.5 19t17 21.5t7 16.5h6z" />
    <glyph glyph-name="imacron" unicode="&#x12b;" horiz-adv-x="251" 
d="M59 0v10q8 0 14 6t10 14t6 17.5t2 17.5v277q0 17 -5 32.5t-29 16.5v9l100 32v-367q0 -8 2 -17.5t6 -17.5t10 -14t14 -6v-10h-130zM25 514h200v-40h-200v40z" />
    <glyph glyph-name="iogonek" unicode="&#x12f;" horiz-adv-x="251" 
d="M165 -124q22 0 40 7l2 -5q-13 -8 -31.5 -12t-39.5 -4q-45 0 -65.5 16.5t-20.5 38.5q0 24 17.5 46t40.5 37h-49v10q8 0 14 6t10 14t6 17.5t2 17.5v277q0 17 -5 32.5t-29 16.5v9l100 32v-367q0 -8 2 -17.5t6.5 -17.5t10 -14t13.5 -6v-10h-48q-17 -15 -30 -35.5t-13 -40.5
q0 -19 14.5 -33.5t52.5 -14.5zM64 528q0 20 13.5 34t33.5 14t34 -14t14 -34t-14 -33t-34 -13t-33.5 13t-13.5 33z" />
    <glyph glyph-name="itilde" unicode="&#x129;" horiz-adv-x="251" 
d="M59 0v10q8 0 14 6t10 14t6 17.5t2 17.5v277q0 17 -5 32.5t-29 16.5v9l100 32v-367q0 -8 2 -17.5t6 -17.5t10 -14t14 -6v-10h-130zM239 528q-12 -45 -23.5 -59t-32.5 -14q-12 0 -27 6t-31 13.5t-31.5 14t-28.5 6.5q-15 0 -25.5 -11t-23.5 -29l-5 1q14 42 32.5 59.5
t38.5 17.5q12 0 26 -6t27.5 -13.5t27.5 -13.5t26 -6q16 0 27 10.5t19 24.5z" />
    <glyph glyph-name="jcircumflex" unicode="&#x135;" horiz-adv-x="209" 
d="M152 431v-410q0 -31 -7.5 -57t-19.5 -48t-27.5 -39.5t-31.5 -31.5q-38 -33 -85 -53l-4 9q30 19 54 49q20 25 37.5 63.5t17.5 92.5v335q0 17 -5 32.5t-29 16.5v9zM225 446l-121 59l-120 -59l-2 5l122 103l122 -103z" />
    <glyph glyph-name="kgreenlandic" unicode="&#x138;" horiz-adv-x="451" 
d="M348 78q6 -11 16 -23t22.5 -22t25.5 -16.5t25 -6.5v-10h-38q-46 0 -75 18.5t-43 44.5l-50 94q-8 15 -30 30.5t-51 17.5v-142q0 -8 1.5 -17t5.5 -17t10 -13.5t14 -5.5v-10h-128v10q7 0 13 5.5t10 13.5t6 17t2 17v294q0 7 -2 16.5t-5.5 17.5t-9.5 13.5t-15 5.5v10h128v-10
q-7 0 -12.5 -5.5t-9.5 -13.5t-6 -17.5t-2 -16.5v-103q43 38 85 73.5t85 73.5q0 1 1 2t1 2q0 5 -5 5v10h87v-10q-5 0 -12 -3t-14 -7q-8 -4 -16 -10q-45 -38 -90 -77.5t-90 -77.5q43 0 70.5 -16t46.5 -51z" />
    <glyph glyph-name="lacute" unicode="&#x13a;" horiz-adv-x="231" 
d="M49 0v10q8 0 14 6t10.5 14t6.5 17.5t2 17.5v512q0 17 -5 32t-30 16v10l101 31v-601q0 -8 2 -17.5t6.5 -17.5t10 -14t13.5 -6v-10h-131zM19 687l142 107l26 -45l-165 -68z" />
    <glyph glyph-name="lcaron" unicode="&#x13e;" horiz-adv-x="299" 
d="M49 0v10q8 0 14 6t10.5 14t6.5 17.5t2 17.5v512q0 17 -5 32t-30 16v10l101 31v-601q0 -8 2 -17.5t6.5 -17.5t10 -14t13.5 -6v-10h-131zM243 663q29 0 42.5 -19.5t13.5 -45.5q0 -16 -4 -34t-15.5 -37t-33 -37.5t-56.5 -34.5l-6 9q20 19 31.5 33t17.5 25.5t7.5 21.5t1.5 21
q0 8 -4.5 12t-11.5 8q-8 5 -16 11.5t-8 23.5q0 19 12 31t29 12z" />
    <glyph glyph-name="ldot" unicode="&#x140;" horiz-adv-x="269" 
d="M49 0v10q8 0 14 6t10.5 14t6.5 17.5t2 17.5v512q0 17 -5 32t-30 16v10l101 31v-601q0 -8 2 -17.5t6.5 -17.5t10 -14t13.5 -6v-10h-131zM174 192q0 20 13.5 34t33.5 14t34 -14t14 -34t-14 -33.5t-34 -13.5t-33.5 13.5t-13.5 33.5z" />
    <glyph glyph-name="lessequal" unicode="&#x2264;" horiz-adv-x="467" 
d="M35 392v54l392 156v-60l-320 -123l320 -123v-60zM35 133v53h392v-53h-392z" />
    <glyph glyph-name="lira" unicode="&#x20a4;" horiz-adv-x="465" 
d="M234 310q-4 -81 -23.5 -141t-44.5 -92q11 4 23.5 7.5t23.5 3.5q17 0 33.5 -7.5t33.5 -16.5q14 -9 29 -15.5t32 -6.5q27 0 59 37l9 -6q-19 -38 -45 -57t-58 -19q-18 0 -35.5 6.5t-31.5 13.5q-3 0 -6 3q-13 6 -30 12.5t-36 6.5q-17 0 -40.5 -8.5t-52.5 -22.5l-17 -10l-5 10
q31 16 57 55q22 32 40.5 91.5t20.5 155.5h-77v33h77v43h-77v34h77v81q0 78 33 121t82 43q23 0 39 -7t27 -14q14 -9 20 -9v-73h-10q-11 34 -30.5 50.5t-36.5 16.5q-23 0 -41 -28.5t-18 -85.5v-95h113v-34h-113v-43h112v-33h-113z" />
    <glyph glyph-name="lozenge" unicode="&#x25ca;" horiz-adv-x="357" 
d="M178 -30l-167 357l167 356l166 -356zM178 580l-117 -253l117 -252l117 252z" />
    <glyph glyph-name="lslash" unicode="&#x142;" horiz-adv-x="234" 
d="M-2 181l87 63v333q0 17 -4.5 32t-29.5 16l-1 10l101 31v-375l61 44l22 -29l-83 -61v-180q0 -8 2 -17.5t6.5 -17.5t10 -14t13.5 -6v-10h-131v10q8 0 14 6t10.5 14t6.5 17.5t2 17.5v133q-15 -11 -32.5 -23.5t-31.5 -23.5z" />
    <glyph glyph-name="nacute" unicode="&#x144;" horiz-adv-x="532" 
d="M447 65q0 -8 2 -17.5t6.5 -17.5t10 -14t13.5 -6v-10h-129v10q7 0 13 6t10.5 14t6.5 17.5t2 17.5v186q0 36 -10 63t-27 45t-38.5 26.5t-43.5 8.5t-43.5 -9t-38 -23.5t-27 -34t-10.5 -40.5v-222q0 -8 2 -17.5t6.5 -17.5t10 -14t13.5 -6v-10h-130v10q7 0 13 6t10.5 14
t6.5 17.5t2 17.5v276q0 17 -5 32.5t-29 16.5v9l100 32v-55q7 8 18 17.5t26.5 18t36 14t48.5 5.5q47 0 80 -16t54 -41.5t30.5 -56t9.5 -59.5v-193zM181 500l142 107l26 -45l-165 -68z" />
    <glyph glyph-name="napostrophe" unicode="&#x149;" horiz-adv-x="532" 
d="M112 661q29 0 42.5 -20t13.5 -46q0 -15 -4 -33t-15.5 -37t-33 -37.5t-56.5 -34.5l-5 9q20 19 31.5 33t17 26t7 22t1.5 20t-6.5 15t-14 9.5t-13.5 11t-6 19.5q0 19 12 31t29 12zM448 66q0 -8 2 -17.5t6.5 -17.5t10 -14t13.5 -6v-10h-129v10q7 0 13 6t10.5 14t6.5 17.5
t2 17.5v186q0 36 -10 63t-27 45t-38.5 26.5t-43.5 8.5t-43.5 -9t-38 -23.5t-27 -34t-10.5 -40.5v-222q0 -8 2 -17.5t6.5 -17.5t10 -14t13.5 -6v-10h-130v10q7 0 13 6t10.5 14t6.5 17.5t2 17.5v276q0 17 -5 32.5t-29 16.5v9l100 32v-55q7 8 18 17.5t26.5 18t36 14t48.5 5.5
q47 0 80 -16t54 -41.5t30.5 -56t9.5 -59.5v-193z" />
    <glyph glyph-name="ncaron" unicode="&#x148;" horiz-adv-x="532" 
d="M447 65q0 -8 2 -17.5t6.5 -17.5t10 -14t13.5 -6v-10h-129v10q7 0 13 6t10.5 14t6.5 17.5t2 17.5v186q0 36 -10 63t-27 45t-38.5 26.5t-43.5 8.5t-43.5 -9t-38 -23.5t-27 -34t-10.5 -40.5v-222q0 -8 2 -17.5t6.5 -17.5t10 -14t13.5 -6v-10h-130v10q7 0 13 6t10.5 14
t6.5 17.5t2 17.5v276q0 17 -5 32.5t-29 16.5v9l100 32v-55q7 8 18 17.5t26.5 18t36 14t48.5 5.5q47 0 80 -16t54 -41.5t30.5 -56t9.5 -59.5v-193zM145 591l121 -57l119 57l2 -4l-121 -104l-124 104z" />
    <glyph glyph-name="notequal" unicode="&#x2260;" horiz-adv-x="467" 
d="M320 430h105v-50h-136q-16 -26 -32.5 -51t-31.5 -51h200v-48h-228q-15 -24 -31.5 -49.5t-30.5 -49.5h-51l61 99h-110v48h140q16 26 32.5 51t30.5 51h-203v50h233l59 94h52z" />
    <glyph glyph-name="obreve" unicode="&#x14f;" horiz-adv-x="523" 
d="M255 -7q-50 0 -90 16.5t-68.5 45t-44 67.5t-15.5 85q0 49 17 89.5t47 69.5t71 45t89 16t88 -15.5t69 -43.5t45 -66.5t16 -84.5q0 -43 -14.5 -83.5t-43 -71.5t-70 -50t-96.5 -19zM249 394q-36 -2 -63.5 -17.5t-46 -40t-28 -55.5t-9.5 -63q0 -37 11.5 -71.5t33 -61.5
t51.5 -43t67 -16t65.5 16t47.5 41.5t28.5 57.5t9.5 64q0 33 -10 66.5t-31 61t-52.5 44.5t-73.5 17zM373 595q0 -16 -8 -34.5t-22.5 -34t-35 -25.5t-45.5 -10q-24 0 -44.5 9.5t-35.5 24.5t-24 33.5t-9 36.5h6q1 -6 6.5 -16.5t17.5 -21.5t32 -19t50 -8q31 0 50.5 8t31.5 19
t17 21.5t7 16.5h6z" />
    <glyph glyph-name="ogonek" unicode="&#x2db;" horiz-adv-x="197" 
d="M141 -124q22 0 40 7l2 -5q-13 -8 -31.5 -12t-39.5 -4q-45 0 -65.5 16.5t-20.5 38.5q0 25 20.5 49t47.5 39h30q-21 -16 -35.5 -37.5t-14.5 -43.5q0 -19 14.5 -33.5t52.5 -14.5z" />
    <glyph glyph-name="ohungarumlaut" unicode="&#x151;" horiz-adv-x="523" 
d="M255 -7q-50 0 -90 16.5t-68.5 45t-44 67.5t-15.5 85q0 49 17 89.5t47 69.5t71 45t89 16t88 -15.5t69 -43.5t45 -66.5t16 -84.5q0 -43 -14.5 -83.5t-43 -71.5t-70 -50t-96.5 -19zM249 394q-36 -2 -63.5 -17.5t-46 -40t-28 -55.5t-9.5 -63q0 -37 11.5 -71.5t33 -61.5
t51.5 -43t67 -16t65.5 16t47.5 41.5t28.5 57.5t9.5 64q0 33 -10 66.5t-31 61t-52.5 44.5t-73.5 17zM139 468l83 162l51 -32l-123 -138zM231 469l107 147l45 -39l-141 -118z" />
    <glyph glyph-name="omacron" unicode="&#x14d;" horiz-adv-x="523" 
d="M255 -7q-50 0 -90 16.5t-68.5 45t-44 67.5t-15.5 85q0 49 17 89.5t47 69.5t71 45t89 16t88 -15.5t69 -43.5t45 -66.5t16 -84.5q0 -43 -14.5 -83.5t-43 -71.5t-70 -50t-96.5 -19zM249 394q-36 -2 -63.5 -17.5t-46 -40t-28 -55.5t-9.5 -63q0 -37 11.5 -71.5t33 -61.5
t51.5 -43t67 -16t65.5 16t47.5 41.5t28.5 57.5t9.5 64q0 33 -10 66.5t-31 61t-52.5 44.5t-73.5 17zM161 513h200v-40h-200v40z" />
    <glyph glyph-name="oslashacute" unicode="&#x1ff;" horiz-adv-x="523" 
d="M255 -7q-27 0 -52 5.5t-47 15.5q-4 -5 -7.5 -12t-7.5 -12h-51l28 45q-38 29 -59.5 73.5t-21.5 98.5q0 49 17 89.5t47 69.5t71 45t89 16q25 0 49.5 -5.5t44.5 -13.5l14 22h51l-26 -42q37 -28 61 -72.5t24 -98.5q0 -43 -14.5 -83.5t-43 -71.5t-70 -50t-96.5 -19zM416 205
q0 35 -12.5 72.5t-38.5 65.5q-45 -72 -92 -145t-92 -145q38 -27 84 -27q37 0 65.5 16t47.5 41.5t28.5 57.5t9.5 64zM249 394q-36 -2 -63.5 -17.5t-46 -40t-28 -55.5t-9.5 -63q0 -37 12.5 -73t34.5 -62q45 71 91 144.5t91 144.5q-17 10 -38 16t-44 6zM177 496l142 107l26 -45
l-165 -68z" />
    <glyph glyph-name="racute" unicode="&#x155;" horiz-adv-x="337" 
d="M289 347q-12 20 -25 25t-30 5q-11 0 -23.5 -5t-24.5 -13t-23.5 -17.5t-19.5 -17.5v-260q0 -8 2 -17t6.5 -17.5t10 -14t13.5 -5.5v-10h-130v10q7 0 13 5.5t10.5 14t6.5 17.5t2 17v279q0 14 -9 28t-26 18v8l101 30v-60q9 11 19 21.5t22.5 19t27.5 14t35 5.5q14 0 36 -6
t36 -13zM84 495l142 107l26 -45l-165 -68z" />
    <glyph glyph-name="rcaron" unicode="&#x159;" horiz-adv-x="337" 
d="M289 347q-12 20 -25 25t-30 5q-11 0 -23.5 -5t-24.5 -13t-23.5 -17.5t-19.5 -17.5v-260q0 -8 2 -17t6.5 -17.5t10 -14t13.5 -5.5v-10h-130v10q7 0 13 5.5t10.5 14t6.5 17.5t2 17v279q0 14 -9 28t-26 18v8l101 30v-60q9 11 19 21.5t22.5 19t27.5 14t35 5.5q14 0 36 -6
t36 -13zM48 588l121 -57l119 57l2 -4l-121 -104l-124 104z" />
    <glyph glyph-name="ring" unicode="&#x2da;" horiz-adv-x="222" 
d="M38 509q0 26 20.5 43t51.5 17t52 -17t21 -43t-21 -42.5t-52 -16.5t-51.5 16.5t-20.5 42.5zM66 515q0 -21 15 -35.5t36 -14.5q17 0 28 11.5t11 29.5t-16 33t-36 15q-16 0 -27 -11.5t-11 -27.5z" />
    <glyph glyph-name="sacute" unicode="&#x15b;" horiz-adv-x="411" 
d="M370 114q0 -26 -13 -48t-35.5 -38.5t-52.5 -26t-65 -9.5q-43 0 -70 11.5t-46 23.5q-13 8 -24 13.5t-24 5.5v76h10q3 -14 17.5 -30.5t35 -30.5t45 -23.5t49.5 -9.5q18 0 37 4t34.5 13t26 22.5t10.5 32.5t-11 33t-28 24.5t-39 18.5t-44 15q-26 8 -52.5 18t-47.5 23.5
t-34 33t-13 46.5q0 23 8.5 44t28 36.5t50.5 25t75 9.5q39 0 60.5 -6.5t35.5 -13.5q9 -5 18 -7.5t20 -2.5v-70h-8q-18 33 -55 50t-76 17q-25 0 -43 -6.5t-29.5 -16t-17 -21.5t-5.5 -24q0 -17 9.5 -29t26 -21t37 -17t43.5 -15q28 -9 56 -19.5t50 -25.5t36 -35.5t14 -49.5z
M121 503l142 107l26 -45l-165 -68z" />
    <glyph glyph-name="scedilla" unicode="&#x15f;" horiz-adv-x="411" 
d="M221 -7q-5 -9 -12.5 -21t-12.5 -22q45 -5 65 -21.5t20 -36.5q0 -26 -29.5 -48.5t-82.5 -22.5q-7 0 -13 0.5t-13 1.5q-3 0 -7 0.5t-7 0.5v8h11q38 0 65 17t27 38q0 16 -19.5 31.5t-56.5 20.5l33 54q-38 2 -61.5 12.5t-40.5 21.5q-12 8 -23 13.5t-24 5.5v76h10
q3 -14 17.5 -30.5t35 -30.5t45 -23.5t49.5 -9.5q18 0 37 4t34.5 13t26 22.5t10.5 32.5t-11 33t-28 24.5t-39 18.5t-44 15q-26 8 -52.5 18t-47.5 23.5t-34 33t-13 46.5q0 23 8.5 44t28 36.5t50.5 25t75 9.5q39 0 60.5 -6.5t35.5 -13.5q9 -5 18 -7.5t20 -2.5v-70h-8
q-18 33 -55 50t-76 17q-25 0 -43 -6.5t-29.5 -16t-17 -21.5t-5.5 -24q0 -17 9.5 -29t26 -21t37 -17t43.5 -15q28 -9 56 -19.5t50 -25.5t36 -35.5t14 -49.5q0 -24 -11.5 -44.5t-32 -36.5t-47.5 -26.5t-58 -13.5z" />
    <glyph glyph-name="scircumflex" unicode="&#x15d;" horiz-adv-x="411" 
d="M370 114q0 -26 -13 -48t-35.5 -38.5t-52.5 -26t-65 -9.5q-43 0 -70 11.5t-46 23.5q-13 8 -24 13.5t-24 5.5v76h10q3 -14 17.5 -30.5t35 -30.5t45 -23.5t49.5 -9.5q18 0 37 4t34.5 13t26 22.5t10.5 32.5t-11 33t-28 24.5t-39 18.5t-44 15q-26 8 -52.5 18t-47.5 23.5
t-34 33t-13 46.5q0 23 8.5 44t28 36.5t50.5 25t75 9.5q39 0 60.5 -6.5t35.5 -13.5q9 -5 18 -7.5t20 -2.5v-70h-8q-18 33 -55 50t-76 17q-25 0 -43 -6.5t-29.5 -16t-17 -21.5t-5.5 -24q0 -17 9.5 -29t26 -21t37 -17t43.5 -15q28 -9 56 -19.5t50 -25.5t36 -35.5t14 -49.5z
M326 473l-121 59l-120 -59l-2 5l122 103l122 -103z" />
    <glyph glyph-name="AEacute" unicode="&#x1fc;" horiz-adv-x="800" 
d="M681 294q0 18 -15 31t-39 13h-145v-303h198q19 0 33 9t23 22.5t13.5 29t4.5 28.5v5h10v-129h-388v10h5q8 0 14 5.5t10.5 13.5t7 17t2.5 17v276h-128l-172 -282q-4 -6 -8 -14t-4 -15q0 -18 18 -18h5v-10h-111v10h5q15 0 31 17t29 37l334 549q0 14 -11 25.5t-22 11.5h-5v10
h363v-98h-10v5q0 23 -15.5 40.5t-47.5 17.5h-184v-253h145q23 0 38.5 14t15.5 33v5h10v-135h-10v5zM415 372v178l-107 -178h107zM459 688l142 107l26 -45l-165 -68z" />
    <glyph glyph-name="tbar" unicode="&#x167;" horiz-adv-x="285" 
d="M143 386v-69h112v-33h-112v-139q0 -26 1 -47t5 -35t12 -21.5t22 -7.5q21 0 39.5 20t23.5 48h9v-73q-9 0 -15 -6q-8 -7 -22.5 -15t-43.5 -8q-36 0 -56 14t-29 37t-10.5 51t-1.5 57v125h-56v33h56v69h-56v34h56v89q0 17 -4.5 31.5t-29.5 15.5v10l100 32v-178h112v-34h-112z
" />
    <glyph glyph-name="tcaron" unicode="&#x165;" horiz-adv-x="291" 
d="M143 386v-241q0 -26 1 -47t5 -35t12 -21.5t22 -7.5q21 0 39.5 20t23.5 48h9v-73q-9 0 -15 -6q-8 -7 -22.5 -15t-43.5 -8q-36 0 -56 14t-29 37t-10.5 51t-1.5 57v227h-56v34h56v89q0 17 -4.5 31.5t-29.5 15.5v10l100 32v-178h112v-34h-112zM241 663q29 0 42.5 -19.5
t13.5 -45.5q0 -16 -4 -34t-15.5 -37t-33 -37.5t-56.5 -34.5l-6 9q20 19 31.5 33t17.5 25.5t7.5 21.5t1.5 21q0 8 -4.5 12t-11.5 8q-8 5 -16 11.5t-8 23.5q0 19 12 31t29 12z" />
    <glyph glyph-name="tildecomb" unicode="&#x303;" horiz-adv-x="284" 
d="M256 527q-12 -45 -23.5 -59t-32.5 -14q-12 0 -27 6t-31 13.5t-31.5 14t-28.5 6.5q-15 0 -25.5 -11t-23.5 -29l-5 1q14 42 32.5 59.5t38.5 17.5q12 0 26 -6t27.5 -13.5t27.5 -13.5t26 -6q16 0 27 10.5t19 24.5z" />
    <glyph glyph-name="ubreve" unicode="&#x16d;" horiz-adv-x="524" 
d="M441 65q0 -7 2 -16.5t5.5 -18t9.5 -14.5t14 -6v-10h-97v55q-15 -22 -44 -43t-75 -21q-58 0 -92 20t-52 51t-23 67.5t-5 68.5v143q0 9 -0.5 17.5t-4 15.5t-10.5 11.5t-20 4.5v9l101 32v-255q0 -76 33 -112t81 -36q26 0 46.5 11.5t35 27.5t22 33t7.5 28v213q0 9 -0.5 17.5
t-4 15.5t-10.5 11.5t-20 4.5v9l101 32v-366zM373 598q0 -16 -8 -34.5t-22.5 -34t-35 -25.5t-45.5 -10q-24 0 -44.5 9.5t-35.5 24.5t-24 33.5t-9 36.5h6q1 -6 6.5 -16.5t17.5 -21.5t32 -19t50 -8q31 0 50.5 8t31.5 19t17 21.5t7 16.5h6z" />
    <glyph glyph-name="uhungarumlaut" unicode="&#x171;" horiz-adv-x="524" 
d="M441 65q0 -7 2 -16.5t5.5 -18t9.5 -14.5t14 -6v-10h-97v55q-15 -22 -44 -43t-75 -21q-58 0 -92 20t-52 51t-23 67.5t-5 68.5v143q0 9 -0.5 17.5t-4 15.5t-10.5 11.5t-20 4.5v9l101 32v-255q0 -76 33 -112t81 -36q26 0 46.5 11.5t35 27.5t22 33t7.5 28v213q0 9 -0.5 17.5
t-4 15.5t-10.5 11.5t-20 4.5v9l101 32v-366zM140 481l83 162l51 -32l-123 -138zM232 482l107 147l45 -39l-141 -118z" />
    <glyph glyph-name="umacron" unicode="&#x16b;" horiz-adv-x="524" 
d="M441 65q0 -7 2 -16.5t5.5 -18t9.5 -14.5t14 -6v-10h-97v55q-15 -22 -44 -43t-75 -21q-58 0 -92 20t-52 51t-23 67.5t-5 68.5v143q0 9 -0.5 17.5t-4 15.5t-10.5 11.5t-20 4.5v9l101 32v-255q0 -76 33 -112t81 -36q26 0 46.5 11.5t35 27.5t22 33t7.5 28v213q0 9 -0.5 17.5
t-4 15.5t-10.5 11.5t-20 4.5v9l101 32v-366zM161 530h200v-40h-200v40z" />
    <glyph glyph-name="uni0122" unicode="&#x122;" horiz-adv-x="657" 
d="M334 -34q29 0 42.5 -20t13.5 -46q0 -15 -4 -33t-15.5 -37t-33 -37.5t-55.5 -34.5l-5 9q19 19 30.5 33t17 25.5t7 21.5t1.5 21q0 8 -4.5 12.5t-10.5 8.5q-11 0 -17.5 13t-6.5 21q0 19 11.5 31t28.5 12zM475 349h143v-10h-5q-8 0 -14 -5.5t-10 -13.5t-6.5 -17t-2.5 -16
v-268q-18 -7 -41 -12t-48 -8.5t-51 -5.5t-48 -2q-90 0 -157 30t-111 78.5t-65.5 109.5t-21.5 123t21.5 123t66 109t112 77.5t160.5 29.5q35 0 65 -6t53 -11q13 -3 22.5 -5.5t16.5 -2.5h9v-106h-10q-6 31 -23.5 50t-40.5 29t-48.5 13.5t-47.5 3.5q-75 0 -130 -26.5t-90 -68.5
t-52 -94.5t-17 -104.5q0 -58 22 -114.5t62 -101t96.5 -72t125.5 -27.5q19 0 47 4.5t56 20.5v235q0 7 -2 16t-6.5 17t-10.5 13.5t-14 5.5h-5v10z" />
    <glyph glyph-name="uni0123" unicode="&#x123;" horiz-adv-x="495" 
d="M253 -186q30 0 57 5.5t47.5 15.5t32.5 24t12 30q0 17 -16.5 29t-44.5 21t-65 15.5t-77 13.5l-51 9q-23 -18 -32 -38t-9 -35q0 -21 11.5 -37.5t31 -28.5t46 -18t57.5 -6zM308 14q40 -6 66.5 -16t42.5 -23.5t22 -30t6 -35.5q0 -34 -18.5 -59t-48 -41.5t-67 -24.5t-76.5 -8
q-38 0 -73 7.5t-62 22.5t-43 37.5t-16 51.5q0 26 16 49.5t52 46.5q-35 18 -53.5 48.5t-18.5 62.5q0 19 9 37.5t29 34.5q-17 20 -24 40t-7 43q0 36 15 67t41 54t61 36t75 13q42 0 80 -14.5t64 -37.5h72v-36h-46q7 -15 14 -35.5t7 -42.5q0 -32 -15 -60.5t-41.5 -50t-62 -34
t-75.5 -12.5q-37 0 -72 11t-62 32q-11 -7 -15 -17.5t-4 -21.5q0 -32 29 -49.5t74 -24.5zM224 392q-24 0 -45 -8.5t-37 -23.5t-25.5 -36.5t-9.5 -48.5q0 -33 13.5 -59t34.5 -43t46.5 -26t48.5 -9q25 0 45.5 9.5t35.5 26t23 38.5t8 46q0 30 -12 55t-31.5 42.5t-44.5 27
t-50 9.5zM217 461q-29 0 -42.5 20t-13.5 46q0 15 4 32.5t16 36.5t33 37.5t56 35.5l6 -9q-20 -19 -31.5 -33t-17.5 -26t-7.5 -22t-1.5 -21q0 -8 4.5 -11.5t11.5 -7.5q8 -5 16.5 -11.5t8.5 -23.5q0 -18 -12 -30.5t-30 -12.5z" />
    <glyph glyph-name="uni0136" unicode="&#x136;" horiz-adv-x="566" 
d="M284 -34q29 0 42 -20t13 -46q0 -15 -4 -33t-15.5 -37t-33 -37.5t-55.5 -34.5l-5 9q20 19 31.5 33t17 25.5t7 21.5t1.5 21q0 14 -16 21q-11 5 -17.5 15.5t-6.5 18.5q0 19 12 31t29 12zM183 10h5v-10h-143v10h5q8 0 14 6t10.5 14t6.5 17.5t2 17.5v533q0 7 -2 16t-6.5 17
t-10.5 13.5t-13 5.5h-5v10h143v-10h-5q-8 0 -14 -5.5t-10.5 -13.5t-7 -17t-2.5 -16v-232l254 252q6 7 6 16q0 16 -12 16h-5v10h122v-10h-5q-14 0 -29 -10t-30 -25l-210 -209l221 -335q1 -2 9 -12t19.5 -21t26 -19.5t29.5 -8.5v-10h-24q-30 0 -50.5 3.5t-35.5 11.5t-26.5 20
t-23.5 30l-194 293l-42 -43v-250q0 -8 2.5 -17t6.5 -17.5t10 -14.5t14 -6z" />
    <glyph glyph-name="uni0137" unicode="&#x137;" horiz-adv-x="460" 
d="M230 -34q29 0 42.5 -20t13.5 -46q0 -15 -4 -33t-15.5 -36.5t-33 -37.5t-55.5 -35l-5 9q19 19 30.5 33t17 26t7 22t1.5 21q0 8 -4.5 12.5t-10.5 8.5q-8 4 -16 10.5t-8 22.5q0 19 11.5 31t28.5 12zM379 0q-17 0 -31.5 7.5t-25.5 16.5q-13 11 -24 24l-129 166l-21 -21v-130
q0 -7 2 -16t6.5 -17.5t10.5 -14t14 -5.5v-10h-130v10q7 0 13 5.5t10 13.5t6 17t2 17v509q0 14 -9 28t-24 15v10l99 31v-417l162 152q5 5 5 12t-7 7v10h90v-10q-6 0 -12.5 -3t-12.5 -7q-7 -4 -14 -10l-142 -132l148 -187q13 -18 26 -31q11 -11 23.5 -20.5t21.5 -9.5v-10h-57z
" />
    <glyph glyph-name="uni013B" unicode="&#x13b;" horiz-adv-x="465" 
d="M233 -34q29 0 42.5 -20t13.5 -46q0 -15 -4 -33t-15.5 -37t-33 -37.5t-56.5 -34.5l-5 9q20 19 31.5 33t17 25.5t7 21.5t1.5 21q0 14 -16 21q-11 5 -17.5 15.5t-6.5 18.5q0 19 12 31t29 12zM45 10h5q8 0 14 5.5t10.5 13.5t7 17t2.5 17v535q0 7 -2.5 16t-7 17t-10.5 13.5
t-14 5.5h-5v10h144v-10h-5q-8 0 -14 -5.5t-10 -13.5t-6.5 -17t-2.5 -16v-561h219q19 0 33 9t23.5 22.5t14 29t4.5 28.5h10v-126h-410v10z" />
    <glyph glyph-name="uni013C" unicode="&#x13c;" horiz-adv-x="231" 
d="M116 -34q29 0 42 -20t13 -46q0 -15 -4 -33t-15.5 -36.5t-32.5 -37.5t-56 -35l-5 9q20 19 31.5 33t17 26t7 22t1.5 21q0 8 -5 12.5t-11 8.5q-8 4 -16 10.5t-8 22.5q0 19 12 31t29 12zM49 0v10q8 0 14 6t10.5 14t6.5 17.5t2 17.5v512q0 17 -5 32t-30 16v10l101 31v-601
q0 -8 2 -17.5t6.5 -17.5t10 -14t13.5 -6v-10h-131z" />
    <glyph glyph-name="uni0145" unicode="&#x145;" horiz-adv-x="628" 
d="M315 -34q29 0 42 -20t13 -46q0 -15 -4 -33t-15.5 -37t-33 -37.5t-55.5 -34.5l-5 9q20 19 31.5 33t17 25.5t7 21.5t1.5 21q0 8 -5 12.5t-11 8.5q-8 5 -16 11.5t-8 22.5q0 19 12 31t29 12zM150 10h5v-10h-111v10h5q7 0 13.5 6t10.5 14t6.5 17.5t2.5 17.5v533q0 7 -1.5 16
t-5.5 17t-11 13.5t-17 5.5h-5v10h101l363 -572v510q0 7 -2.5 16t-7 17t-10.5 13.5t-14 5.5h-5v10h112v-10h-5q-8 0 -14 -5.5t-10.5 -13.5t-6.5 -17t-2 -16v-598h-62l-362 574v-509q0 -8 2 -17.5t6.5 -17.5t10.5 -14t14 -6z" />
    <glyph glyph-name="uni0146" unicode="&#x146;" horiz-adv-x="532" 
d="M266 -34q29 0 42.5 -20t13.5 -46q0 -15 -4 -33t-15.5 -36.5t-33 -37.5t-55.5 -35l-5 9q19 19 30.5 33t17 26t7 22t1.5 21q0 8 -5 12.5t-11 8.5q-8 4 -15.5 10.5t-7.5 22.5q0 19 11.5 31t28.5 12zM448 66q0 -8 2 -17.5t6.5 -17.5t10 -14t13.5 -6v-10h-129v10q7 0 13 6
t10.5 14t6.5 17.5t2 17.5v186q0 36 -10 63t-27 45t-38.5 26.5t-43.5 8.5t-43.5 -9t-38 -23.5t-27 -34t-10.5 -40.5v-222q0 -8 2 -17.5t6.5 -17.5t10 -14t13.5 -6v-10h-130v10q7 0 13 6t10.5 14t6.5 17.5t2 17.5v276q0 17 -5 32.5t-29 16.5v9l100 32v-55q7 8 18 17.5t26.5 18
t36 14t48.5 5.5q47 0 80 -16t54 -41.5t30.5 -56t9.5 -59.5v-193z" />
    <glyph glyph-name="uni0156" unicode="&#x156;" horiz-adv-x="540" 
d="M271 -34q29 0 42 -20t13 -46q0 -15 -4 -33t-15.5 -37t-33 -37.5t-55.5 -34.5l-5 9q20 19 31.5 33t17 25.5t7 21.5t1.5 21q0 10 -6.5 15t-14 9.5t-13.5 11t-6 19.5q0 19 12 31t29 12zM181 10h5v-10h-141v10h5q7 0 13 6t10.5 14t6.5 17.5t2 17.5v533q0 7 -2 16t-6.5 17
t-10.5 13.5t-13 5.5h-5v10h174q100 0 154.5 -39t54.5 -115q0 -38 -12.5 -66.5t-33.5 -49t-49.5 -33t-60.5 -18.5l72 -110q26 -40 53 -78.5t53 -79.5q7 -10 15.5 -21t18 -20t20 -14.5t21.5 -5.5v-10h-43q-40 0 -65.5 19.5t-42.5 45.5q-45 66 -89.5 134t-88.5 134
q-11 1 -23.5 2.5t-23.5 3.5v-274q0 -8 2 -17.5t6.5 -17.5t10 -14t13.5 -6zM149 626v-254h5q8 -1 25.5 -1.5t43.5 -0.5q21 0 44.5 6.5t44 22t34 40.5t13.5 63t-14.5 62t-40 38t-61.5 19t-79 5h-15z" />
    <glyph glyph-name="uni0157" unicode="&#x157;" horiz-adv-x="337" 
d="M113 -34q29 0 42.5 -20t13.5 -46q0 -15 -4 -33t-15.5 -36.5t-33 -37.5t-56.5 -35l-5 9q20 19 31.5 33t17 26t7 22t1.5 21q0 8 -5 12.5t-11 8.5q-8 4 -16 10.5t-8 22.5q0 19 12 31t29 12zM289 348q-12 20 -25 25t-30 5q-11 0 -23.5 -5t-24.5 -13t-23.5 -17.5t-19.5 -17.5
v-260q0 -8 2 -17t6.5 -17.5t10 -14t13.5 -5.5v-10h-130v10q7 0 13 5.5t10.5 14t6.5 17.5t2 17v279q0 14 -9 28t-26 18v8l101 30v-60q9 11 19 21.5t22.5 19t27.5 14t35 5.5q14 0 36 -6t36 -13z" />
    <glyph glyph-name="uni0163" unicode="&#x163;" horiz-adv-x="285" 
d="M143 -34q29 0 42 -20t13 -46q0 -15 -4 -33t-15.5 -36.5t-33 -37.5t-55.5 -35l-5 9q20 19 31.5 33t17 26t7 22t1.5 21q0 8 -5 12.5t-11 8.5q-8 4 -16 10.5t-8 22.5q0 19 12 31t29 12zM143 387v-241q0 -26 1 -47t5 -35t12 -21.5t22 -7.5q21 0 39.5 20t23.5 48h9v-73
q-9 0 -15 -6q-8 -7 -22.5 -15t-43.5 -8q-36 0 -56 14t-29 37t-10.5 51t-1.5 57v227h-56v34h56v89q0 17 -4.5 31.5t-29.5 15.5v10l100 32v-178h112v-34h-112z" />
    <glyph glyph-name="uni01F4" unicode="&#x1f4;" horiz-adv-x="657" 
d="M475 348h143v-10h-5q-8 0 -14 -5.5t-10 -13.5t-6.5 -17t-2.5 -16v-268q-18 -7 -41 -12t-48 -8.5t-51 -5.5t-48 -2q-90 0 -157 30t-111 78.5t-65.5 109.5t-21.5 123t21.5 123t66 109t112 77.5t160.5 29.5q35 0 65 -6t53 -11q13 -3 22.5 -5.5t16.5 -2.5h9v-106h-10
q-6 31 -23.5 50t-40.5 29t-48.5 13.5t-47.5 3.5q-75 0 -130 -26.5t-90 -68.5t-52 -94.5t-17 -104.5q0 -58 22 -114.5t62 -101t96.5 -72t125.5 -27.5q19 0 47 4.5t56 20.5v235q0 7 -2 16t-6.5 17t-10.5 13.5t-14 5.5h-5v10zM274 720l142 107l26 -45l-165 -68z" />
    <glyph glyph-name="uni01F5" unicode="&#x1f5;" horiz-adv-x="495" 
d="M253 -186q30 0 57 5.5t47.5 15.5t32.5 24t12 30q0 17 -16.5 29t-44.5 21t-65 15.5t-77 13.5l-51 9q-23 -18 -32 -38t-9 -35q0 -21 11.5 -37.5t31 -28.5t46 -18t57.5 -6zM308 14q40 -6 66.5 -16t42.5 -23.5t22 -30t6 -35.5q0 -34 -18.5 -59t-48 -41.5t-67 -24.5t-76.5 -8
q-38 0 -73 7.5t-62 22.5t-43 37.5t-16 51.5q0 26 16 49.5t52 46.5q-35 18 -53.5 48.5t-18.5 62.5q0 19 9 37.5t29 34.5q-17 20 -24 40t-7 43q0 36 15 67t41 54t61 36t75 13q42 0 80 -14.5t64 -37.5h72v-36h-46q7 -15 14 -35.5t7 -42.5q0 -32 -15 -60.5t-41.5 -50t-62 -34
t-75.5 -12.5q-37 0 -72 11t-62 32q-11 -7 -15 -17.5t-4 -21.5q0 -32 29 -49.5t74 -24.5zM224 392q-24 0 -45 -8.5t-37 -23.5t-25.5 -36.5t-9.5 -48.5q0 -33 13.5 -59t34.5 -43t46.5 -26t48.5 -9q25 0 45.5 9.5t35.5 26t23 38.5t8 46q0 30 -12 55t-31.5 42.5t-44.5 27
t-50 9.5zM163 482l142 107l26 -45l-165 -68z" />
    <glyph glyph-name="uni0218" unicode="&#x218;" horiz-adv-x="490" 
d="M229 -34q29 0 42.5 -20t13.5 -46q0 -15 -4 -33t-15.5 -37t-33 -37.5t-56.5 -34.5l-5 9q20 19 31.5 33t17 25.5t7 21.5t1.5 21q0 10 -6.5 15t-14 9.5t-13.5 11t-6 19.5q0 19 12 31t29 12zM450 177q0 -50 -20 -85.5t-51.5 -57.5t-71 -32t-78.5 -10q-40 0 -69 8t-53 15
q-16 5 -29 8.5t-26 3.5v114h10q0 -38 19.5 -60.5t45.5 -34.5t52 -15.5t38 -3.5q43 0 74 12.5t51 33t29.5 45.5t9.5 51q0 33 -14 55.5t-36.5 39.5t-51.5 29t-59 24q-34 13 -67 27t-59 34.5t-42 49t-16 70.5q0 44 17 76.5t45.5 53.5t65 31.5t74.5 10.5q26 0 49 -3.5t44 -8.5
q17 -4 33 -6.5t31 -2.5v-103h-10q-2 52 -41 70.5t-108 18.5q-40 0 -65.5 -13.5t-40.5 -33t-20.5 -42t-5.5 -39.5q0 -28 12.5 -48t33.5 -35t48.5 -27t57.5 -23q34 -13 69 -28t62.5 -37t45 -54t17.5 -78z" />
    <glyph glyph-name="uni0219" unicode="&#x219;" horiz-adv-x="411" 
d="M206 -34q29 0 42 -20t13 -46q0 -15 -4 -33t-15.5 -36.5t-33 -37.5t-55.5 -35l-5 9q20 19 31.5 33t17 26t7 22t1.5 21q0 8 -5 12.5t-11 8.5q-8 4 -16 10.5t-8 22.5q0 19 12 31t29 12zM370 115q0 -26 -13 -48t-35.5 -38.5t-52.5 -26t-65 -9.5q-43 0 -70 11.5t-46 23.5
q-13 8 -24 13.5t-24 5.5v76h10q3 -14 17.5 -30.5t35 -30.5t45 -23.5t49.5 -9.5q18 0 37 4t34.5 13t26 22.5t10.5 32.5t-11 33t-28 24.5t-39 18.5t-44 15q-26 8 -52.5 18t-47.5 23.5t-34 33t-13 46.5q0 23 8.5 44t28 36.5t50.5 25t75 9.5q39 0 60.5 -6.5t35.5 -13.5
q9 -5 18 -7.5t20 -2.5v-70h-8q-18 33 -55 50t-76 17q-25 0 -43 -6.5t-29.5 -16t-17 -21.5t-5.5 -24q0 -17 9.5 -29t26 -21t37 -17t43.5 -15q28 -9 56 -19.5t50 -25.5t36 -35.5t14 -49.5z" />
    <glyph glyph-name="uni021A" unicode="&#x21a;" horiz-adv-x="468" 
d="M236 -34q29 0 42 -20t13 -46q0 -15 -4 -33t-15.5 -37t-32.5 -37.5t-56 -34.5l-5 9q20 19 31.5 33t17 25.5t7 21.5t1.5 21q0 8 -5 12.5t-11 8.5q-8 5 -16 11.5t-8 22.5q0 19 12 31t29 12zM298 10h5v-10h-142v10h5q8 0 14 6t10.5 14t6.5 17.5t2 17.5v558h-116q-16 0 -28 -7
t-20 -17.5t-12 -23t-4 -24.5h-10v109h449v-109h-10q0 12 -4 24.5t-12 23t-20 17.5t-28 7h-118v-558q0 -8 2 -17.5t6.5 -17.5t10 -14t13.5 -6z" />
    <glyph glyph-name="uni021B" unicode="&#x21b;" horiz-adv-x="285" 
d="M143 -34q29 0 42 -20t13 -46q0 -15 -4 -33t-15.5 -36.5t-33 -37.5t-55.5 -35l-5 9q20 19 31.5 33t17 26t7 22t1.5 21q0 8 -5 12.5t-11 8.5q-8 4 -16 10.5t-8 22.5q0 19 12 31t29 12zM143 387v-241q0 -26 1 -47t5 -35t12 -21.5t22 -7.5q21 0 39.5 20t23.5 48h9v-73
q-9 0 -15 -6q-8 -7 -22.5 -15t-43.5 -8q-36 0 -56 14t-29 37t-10.5 51t-1.5 57v227h-56v34h56v89q0 17 -4.5 31.5t-29.5 15.5v10l100 32v-178h112v-34h-112z" />
    <glyph glyph-name="uni02C9" unicode="&#x2c9;" horiz-adv-x="266" 
d="M29 513h200v-40h-200v40z" />
    <glyph glyph-name="uni02CB" unicode="&#x2cb;" horiz-adv-x="222" 
d="M190 442l-166 68l26 45l142 -107z" />
    <glyph glyph-name="uni0302" unicode="&#x302;" horiz-adv-x="268" 
d="M257 445l-121 59l-120 -59l-2 5l122 103l122 -103z" />
    <glyph glyph-name="uni0304" unicode="&#x304;" horiz-adv-x="266" 
d="M29 513h200v-40h-200v40z" />
    <glyph glyph-name="uni0306" unicode="&#x306;" horiz-adv-x="281" 
d="M252 555q0 -16 -8 -34.5t-22.5 -34t-35 -25.5t-45.5 -10q-24 0 -44.5 9.5t-35.5 24.5t-24 33.5t-9 36.5h6q1 -6 6.5 -16.5t17.5 -21.5t32 -19t50 -8q31 0 50.5 8t31.5 19t17 21.5t7 16.5h6z" />
    <glyph glyph-name="uni0307" unicode="&#x307;" horiz-adv-x="132" 
d="M27 501q0 17 10.5 27.5t27.5 10.5t28 -10.5t11 -27.5t-11 -27.5t-28 -10.5t-27.5 10.5t-10.5 27.5z" />
    <glyph glyph-name="uni030A" unicode="&#x30a;" horiz-adv-x="222" 
d="M38 509q0 26 20.5 43t51.5 17t52 -17t21 -43t-21 -42.5t-52 -16.5t-51.5 16.5t-20.5 42.5zM66 515q0 -21 15 -35.5t36 -14.5q17 0 28 11.5t11 29.5t-16 33t-36 15q-16 0 -27 -11.5t-11 -27.5z" />
    <glyph glyph-name="uni030B" unicode="&#x30b;" horiz-adv-x="278" 
d="M22 454l83 162l51 -32l-123 -138zM114 455l107 147l45 -39l-141 -118z" />
    <glyph glyph-name="uni030C" unicode="&#x30c;" horiz-adv-x="300" 
d="M15 550l121 -57l119 57l2 -4l-121 -104l-124 104z" />
    <glyph glyph-name="uni0401" unicode="&#x401;" 
d="M345 718q0 -14 -9 -23t-22 -9q-14 0 -23 9t-9 23t9 23t23 9q13 0 22 -9t9 -23zM230 718q0 -14 -9 -23t-23 -9t-23 9t-9 23t9 23t23 9t23 -9t9 -23zM45 10h5q8 0 14 5.5t10.5 13.5t7 17t2.5 17v535q0 7 -2.5 16t-7 17t-10.5 13.5t-14 5.5h-5v10h385v-93h-10
q-2 23 -18 40.5t-50 17.5h-201v-253h166q23 0 38.5 14t15.5 33h10v-125h-10q0 18 -15 31t-39 13h-166v-303h219q19 0 33 9t23.5 21.5t14 27t4.5 24.5h10v-117h-410v10z" />
    <glyph glyph-name="uni0402" unicode="&#x402;" horiz-adv-x="610" 
d="M306 10h5v-10h-142v10h5q7 0 13 6t10.5 14t6.5 17.5t2 17.5v560h-115q-17 0 -29 -7t-20 -18t-12 -24t-4 -25h-9v109h458v-109h-10q0 12 -4 25t-12 24t-20 18t-28 7h-128v-246q16 19 42.5 36t73.5 17q50 0 83.5 -16.5t54 -43t29 -59.5t8.5 -66v-90q0 -32 -7.5 -58.5
t-19.5 -49t-27.5 -41t-31.5 -32.5q-38 -33 -85 -55l-5 9q30 21 54 53q20 27 37.5 67.5t17.5 94.5v137q0 24 -8.5 44.5t-23.5 36t-36 24.5t-46 9q-23 0 -43 -9t-35 -24t-23.5 -35t-8.5 -42v-221q0 -8 2.5 -17.5t6.5 -17.5t10 -14t14 -6z" />
    <glyph glyph-name="uni0403" unicode="&#x403;" horiz-adv-x="460" 
d="M166 684l142 108l26 -46l-165 -68zM184 10h5v-10h-144v10h5q8 0 14 5.5t10.5 13.5t6.5 17t2 17v535q0 7 -2 16t-6.5 17t-10.5 13.5t-14 5.5h-5v10h385v-93h-10q0 23 -15.5 40.5t-48.5 17.5h-205v-562q0 -8 2 -17t6.5 -17t10.5 -13.5t14 -5.5z" />
    <glyph glyph-name="uni0404" unicode="&#x404;" horiz-adv-x="602" 
d="M582 142v-120q-15 0 -31.5 -3.5t-36.5 -8.5q-26 -7 -57.5 -13.5t-66.5 -6.5q-87 0 -153 30t-110 78t-66 108.5t-22 122.5t22 123t67 109.5t113 78.5t160 30q33 0 59.5 -6t47.5 -12q15 -5 27.5 -7.5t24.5 -2.5v-111h-10q-6 31 -22 51.5t-37.5 31.5t-46 15.5t-47.5 4.5
q-68 0 -119 -23.5t-87 -62t-56.5 -86t-26.5 -95.5h266q24 0 39.5 14t15.5 33h9v-125h-9q0 17 -14.5 30t-40.5 13h-267q2 -58 26 -113t64 -98t93.5 -69t114.5 -26q18 0 42.5 5.5t48.5 18.5t44.5 35.5t31.5 56.5h10z" />
    <glyph glyph-name="uni0405" unicode="&#x405;" horiz-adv-x="490" 
d="M450 177q0 -50 -20 -85.5t-51.5 -57.5t-71 -32t-78.5 -10q-40 0 -69.5 7.5t-52.5 15.5q-16 5 -29 8.5t-26 3.5v114h10q0 -38 19.5 -60.5t45.5 -34.5t52 -15.5t38 -3.5q43 0 74 12.5t51 33t29.5 45.5t9.5 51q0 33 -14 55.5t-36.5 39.5t-51.5 29t-59 24q-34 13 -67 27
t-59 34.5t-42 49t-16 70.5q0 44 17 76.5t45.5 53.5t65 31.5t74.5 10.5q26 0 49 -3.5t44 -8.5q17 -4 33 -6.5t31 -2.5v-103h-10q-2 52 -41 70.5t-108 18.5q-40 0 -65.5 -13.5t-40.5 -33t-20.5 -42t-5.5 -39.5q0 -28 12.5 -48t33.5 -35t48.5 -27t57.5 -23q34 -13 69 -28
t62.5 -37t45 -54t17.5 -78z" />
    <glyph glyph-name="uni0406" unicode="&#x406;" horiz-adv-x="243" 
d="M49 660h144v-10h-8q-14 -2 -22 -20t-8 -32v-533q0 -8 2 -17.5t6 -17.5t9.5 -14t12.5 -6h8v-10h-144v10h5q8 0 14 5.5t10.5 14t6.5 18t2 17.5v533q0 7 -2 16t-6.5 17t-10.5 13.5t-14 5.5h-5v10z" />
    <glyph glyph-name="uni0407" unicode="&#x407;" horiz-adv-x="243" 
d="M214 718q0 -14 -9 -23t-22 -9q-14 0 -23.5 9t-9.5 23t9.5 23t23.5 9q13 0 22 -9t9 -23zM98 718q0 -14 -9 -23t-23 -9t-23 9t-9 23t9 23t23 9t23 -9t9 -23zM49 660h144v-10h-8q-14 -2 -22 -20t-8 -32v-533q0 -8 2 -17.5t6 -17.5t9.5 -14t12.5 -6h8v-10h-144v10h5
q8 0 14 5.5t10.5 14t6.5 18t2 17.5v533q0 7 -2 16t-6.5 17t-10.5 13.5t-14 5.5h-5v10z" />
    <glyph glyph-name="uni0408" unicode="&#x408;" horiz-adv-x="270" 
d="M75 660h144v-10h-5q-8 0 -14 -5.5t-10.5 -14t-7 -17.5t-2.5 -16v-557q0 -32 -8 -59t-21.5 -50.5t-30 -43t-34.5 -35.5q-41 -37 -94 -62l-5 8q35 25 62 59q23 29 43 71t20 97v572q0 7 -2 16t-6.5 17.5t-10.5 14t-13 5.5h-5v10z" />
    <glyph glyph-name="uni0409" unicode="&#x409;" horiz-adv-x="849" 
d="M410 10h5q8 0 14 5.5t10.5 14t6.5 18t2 17.5v522l-328 -544q-15 -24 -34 -33.5t-33 -9.5h-34v10q23 1 37 12t25 25l333 550l8 14q3 6 5.5 13t2.5 13q0 5 -2.5 8.5t-9.5 4.5h-8v10h143v-10h-7q-15 0 -24 -18.5t-9 -33.5v-226h45q46 0 90.5 -7.5t79 -28t55.5 -56t21 -91.5
q0 -36 -15.5 -70t-47.5 -60.5t-80.5 -42.5t-115.5 -16h-135v10zM513 35q108 0 166 38.5t58 108.5q0 71 -52 113.5t-150 42.5h-22v-303z" />
    <glyph glyph-name="uni040A" unicode="&#x40a;" horiz-adv-x="830" 
d="M397 10h5q7 0 13 5.5t10 14t6 18t2 17.5v273h-284v-273q0 -8 2 -17t5.5 -17.5t9 -14.5t11.5 -6h7v-10h-138v10h5q7 0 13 5.5t10.5 14t6.5 18t2 17.5v533q0 7 -2 16t-6 17t-10 13.5t-14 5.5h-5v10h138v-10h-8q-7 -1 -12 -7t-8.5 -14t-5 -16.5t-1.5 -14.5v-226h284v226
q0 6 -2 14.5t-5.5 16.5t-8.5 14t-12 7h-8v10h138v-10h-8q-7 -1 -12.5 -7t-9 -14t-5 -16.5t-1.5 -14.5v-226h36q46 0 90 -8.5t78.5 -29t56 -56t21.5 -89.5q0 -44 -17.5 -79t-49 -59.5t-74 -37.5t-91.5 -13h-152v10zM499 35q103 2 158.5 41.5t55.5 108.5q0 71 -51 112t-150 41
h-13v-303z" />
    <glyph glyph-name="uni040B" unicode="&#x40b;" horiz-adv-x="642" 
d="M169 10h5q8 0 14 6t10 14t6 17.5t2 17.5v560h-115q-17 0 -29 -7.5t-19.5 -19t-11.5 -25t-4 -25.5h-10v112h458v-112h-10q0 12 -4 25.5t-12 25t-20 19t-28 7.5h-127v-247q17 21 45 38t72 17q50 0 83 -17.5t53 -45t28.5 -61t8.5 -66.5v-178q0 -8 2 -17t6 -17.5t9.5 -14.5
t13.5 -6h7v-10h-142v10h5q7 0 13 6t10.5 14.5t6.5 17.5t2 17v185q0 36 -9 63.5t-25 46t-36.5 28t-43.5 9.5q-21 0 -39 -7.5t-32 -19.5t-24 -26t-14 -27v-252q0 -8 2 -17t6 -17.5t9.5 -14.5t12.5 -6h7v-10h-142v10z" />
    <glyph glyph-name="uni040C" unicode="&#x40c;" horiz-adv-x="565" 
d="M398 794q0 -17 -8 -35t-22.5 -34t-35 -26t-45.5 -10q-24 0 -44.5 9.5t-35.5 24.5t-24 34t-9 37h6q1 -6 6.5 -17t17.5 -22t32 -19t50 -8q31 0 50.5 8t31.5 19t17 22t7 17h6zM183 10h5v-10h-143v10h5q8 0 14 6t10.5 14t6.5 17.5t2 17.5v533q0 7 -2 16t-6.5 17t-10.5 13.5
t-13 5.5h-5v10h143v-10h-5q-8 0 -14 -5.5t-10.5 -13.5t-7 -17t-2.5 -16v-232l254 252q6 7 6 16q0 16 -12 16h-5v10h122v-10h-5q-14 0 -29 -10t-30 -25l-210 -209l221 -335q1 -2 9 -12t19.5 -21t26 -19.5t29.5 -8.5v-10h-24q-30 0 -50.5 3.5t-35.5 11.5t-26.5 20t-23.5 30
l-194 293l-42 -43v-250q0 -8 2.5 -17t6.5 -17.5t10 -14.5t14 -6z" />
    <glyph glyph-name="uni040D" unicode="&#x40d;" horiz-adv-x="635" 
d="M443 10h5q8 0 14 5.5t10.5 14t6.5 18t2 17.5v458l-332 -449v-9q0 -8 2.5 -17.5t6.5 -17.5t10 -14t14 -6h5v-10h-142v10h5q8 0 14 5.5t10.5 14t6.5 18t2 17.5v533q0 7 -2 16t-6.5 17t-10.5 13.5t-14 5.5h-5v10h142v-10h-8q-7 -1 -12.5 -7t-9.5 -13.5t-6 -16t-2 -15.5v-462
l332 449v13q0 7 -2 16t-6.5 17t-10.5 13.5t-14 5.5h-5v10h142v-10h-5q-8 0 -14 -5.5t-10 -13.5t-6.5 -17t-2.5 -16v-533q0 -8 2.5 -17t6.5 -17.5t10 -14.5t14 -6h5v-10h-142v10zM399 682l-166 68l26 45l142 -107z" />
    <glyph glyph-name="uni040E" unicode="&#x40e;" horiz-adv-x="544" 
d="M405 795q0 -17 -8 -35t-22.5 -34t-35 -26t-45.5 -10q-24 0 -44.5 9.5t-35.5 24.5t-24 34t-9 37h6q1 -6 6.5 -17t17.5 -22t32 -19t50 -8q31 0 50.5 8t31.5 19t17 22t7 17h6zM7 660h139v-10h-6q-11 0 -15 -6.5t-4 -13.5q0 -5 1 -9t2 -6l171 -374l153 363q1 2 3 8.5t2 12.5
q0 14 -10 19.5t-15 5.5v10h107v-10q-18 0 -27 -9.5t-14 -19.5l-241 -574q-12 -29 -32 -42.5t-43 -13.5q-15 0 -27.5 5t-21 10.5t-13 10.5l-4.5 5l25 55q8 -19 21 -29.5t27 -10.5q9 0 18.5 6.5t16.5 20.5l39 95l-208 459q-14 30 -44 32v10z" />
    <glyph glyph-name="uni040F" unicode="&#x40f;" horiz-adv-x="612" 
d="M557 10h5v-10h-182q-17 0 -30 -9.5t-23 -23t-15 -29.5t-5 -28h-10q0 12 -5 28t-15 29.5t-23.5 23t-30.5 9.5h-178v10h5q7 0 13 5.5t10 13.5t6 17t2 16v533q0 7 -2 17t-6 18t-10 14t-13 6h-5v10h140v-10h-9q-8 -1 -13 -7t-8.5 -14t-5 -17.5t-1.5 -16.5v-560h310v560
q0 7 -2 17t-6 18t-10 14t-13 6h-5v10h140v-10h-8q-8 -1 -13 -7t-9 -14t-5.5 -17.5t-1.5 -16.5v-533q0 -7 2 -16t6.5 -17t10 -13.5t13.5 -5.5z" />
    <glyph glyph-name="uni0410" unicode="&#x410;" horiz-adv-x="590" 
d="M427 10h5q24 0 24 22q0 8 -3 17l-90 243h-175l-87 -239q-3 -8 -3 -15q0 -13 7 -20.5t15 -7.5h5v-10h-111v10h5q13 0 25.5 15.5t20.5 36.5l229 610l224 -604q7 -20 19.5 -39t32.5 -19h5v-10h-148v10zM198 326h154l-77 209z" />
    <glyph glyph-name="uni0411" unicode="&#x411;" horiz-adv-x="499" 
d="M45 10h5q8 0 14 5.5t10.5 13.5t7 17t2.5 17v535q0 7 -2.5 16t-7 17t-10.5 13.5t-14 5.5h-5v10h366v-95h-10q0 23 -16 40.5t-49 17.5h-185v-243h46q46 0 91.5 -9t82 -30.5t59 -58.5t22.5 -93q0 -44 -16.5 -79t-46.5 -59.5t-71.5 -37.5t-90.5 -13h-182v10zM190 35
q50 0 86.5 11t60.5 30.5t35.5 46t11.5 57.5q0 73 -52 119.5t-148 46.5h-33v-311h39z" />
    <glyph glyph-name="uni0412" unicode="&#x412;" horiz-adv-x="489" 
d="M45 10h5q7 0 13 6t10.5 14t6.5 17.5t2 17.5v532q0 7 -2 16t-6.5 17.5t-11 14t-14.5 5.5h-5v10h164q93 0 145.5 -41t52.5 -109q0 -29 -10 -52t-25.5 -41t-33.5 -30.5t-34 -20.5q42 -8 70 -27t45.5 -43.5t24.5 -52.5t7 -55q0 -52 -19 -87.5t-50.5 -58t-72 -32.5t-83.5 -10
h-179v10zM381 182q-8 77 -52 119t-124 42h-56v-310h58q81 0 127.5 36.5t46.5 101.5v11zM340 501q-3 58 -40.5 92t-100.5 34h-50v-252h52q42 0 68.5 11t42.5 28.5t22 38.5t6 41v7z" />
    <glyph glyph-name="uni0413" unicode="&#x413;" horiz-adv-x="445" 
d="M184 10h5v-10h-144v10h5q8 0 14 5.5t10.5 13.5t6.5 17t2 17v535q0 7 -2 16t-6.5 17t-10.5 13.5t-14 5.5h-5v10h385v-106h-10q0 36 -15.5 53.5t-48.5 17.5h-205v-562q0 -8 2 -17t6.5 -17t10.5 -13.5t14 -5.5z" />
    <glyph glyph-name="uni0414" unicode="&#x414;" horiz-adv-x="696" 
d="M660 35v-125h-10q-1 13 -7 29t-16.5 29.5t-24.5 22.5t-31 9h-461q-17 0 -31 -9.5t-24.5 -23t-17 -29.5t-7.5 -28h-10v125h44q32 0 45 37l230 603l232 -600q7 -15 19 -27.5t28 -12.5h42zM131 35h385l-193 497z" />
    <glyph glyph-name="uni0415" unicode="&#x415;" 
d="M45 10h5q8 0 14 5.5t10.5 13.5t7 17t2.5 17v535q0 7 -2.5 16t-7 17t-10.5 13.5t-14 5.5h-5v10h385v-93h-10q-2 23 -18 40.5t-50 17.5h-201v-253h166q23 0 38.5 14t15.5 33h10v-125h-10q0 18 -15 31t-39 13h-166v-303h219q19 0 33 9t23.5 21.5t14 27t4.5 24.5h10v-117
h-410v10z" />
    <glyph glyph-name="uni0416" unicode="&#x416;" horiz-adv-x="831" 
d="M342 10h5q8 0 14 5.5t10 14t6 18t2 17.5v281q-43 0 -71 -24.5t-46 -60.5l-80 -161q-9 -19 -19.5 -37t-24.5 -32t-33 -22.5t-47 -8.5h-46v10q19 0 35 11.5t28.5 28t22 33.5t15.5 29l79 160q23 48 59.5 74t96.5 26l-225 237q-17 18 -33.5 29t-34.5 12v10h109v-10
q-11 -3 -11 -11q0 -3 4 -9l222 -238v206q0 7 -2 16t-6 17t-10 13.5t-14 5.5h-5v10h141v-10h-8q-14 -2 -22 -20t-8 -32v-206l223 238q4 4 4 9q0 11 -12 11v10h109v-10q-17 -2 -35 -13.5t-32 -27.5l-225 -237q63 0 98 -26t59 -74l78 -160q6 -12 15 -29t22 -33.5t29 -28
t35 -11.5v-10h-47q-27 0 -46 8.5t-33 22t-24 31.5t-20 38l-80 161q-18 35 -45.5 60t-72.5 25v-281q0 -8 2 -17t6 -17.5t9.5 -14.5t13.5 -6h7v-10h-141v10z" />
    <glyph glyph-name="uni0417" unicode="&#x417;" horiz-adv-x="463" 
d="M37 642h9q8 0 18 2.5t21 6.5q19 6 45 12.5t63 6.5q47 0 83.5 -13t62 -35t38.5 -51t13 -62q0 -47 -26.5 -83.5t-74.5 -61.5q68 -30 99.5 -76.5t31.5 -100.5q0 -39 -16.5 -75t-47.5 -63t-76 -43t-103 -16q-42 0 -68 7t-45 15q-12 5 -22.5 8t-21.5 3h-9v111h10
q9 -28 24.5 -48.5t35.5 -33.5t43 -19.5t47 -6.5q31 0 61.5 10.5t54 29.5t38 46.5t14.5 61.5t-13 65.5t-36.5 54.5t-55.5 37t-70 14h-36v34h41q30 0 57 8.5t47.5 25t32.5 39.5t12 53t-12 54t-31.5 40.5t-44 25.5t-50.5 9q-21 0 -41 -6t-38 -19t-32 -32t-22 -46h-10v111z" />
    <glyph glyph-name="uni0418" unicode="&#x418;" horiz-adv-x="635" 
d="M443 10h5q8 0 14 5.5t10.5 14t6.5 18t2 17.5v458l-332 -449v-9q0 -8 2.5 -17.5t6.5 -17.5t10 -14t14 -6h5v-10h-142v10h5q8 0 14 5.5t10.5 14t6.5 18t2 17.5v533q0 7 -2 16t-6.5 17t-10.5 13.5t-14 5.5h-5v10h142v-10h-8q-7 -1 -12.5 -7t-9.5 -13.5t-6 -16t-2 -15.5v-462
l332 449v13q0 7 -2 16t-6.5 17t-10.5 13.5t-14 5.5h-5v10h142v-10h-5q-8 0 -14 -5.5t-10 -13.5t-6.5 -17t-2.5 -16v-533q0 -8 2.5 -17t6.5 -17.5t10 -14.5t14 -6h5v-10h-142v10z" />
    <glyph glyph-name="uni0419" unicode="&#x419;" horiz-adv-x="635" 
d="M426 791q0 -17 -8 -35t-22.5 -34t-35 -26t-45.5 -10q-24 0 -44.5 9.5t-35.5 24.5t-24 34t-9 37h6q1 -6 6.5 -17t17.5 -22t32 -19t50 -8q31 0 50.5 8t31.5 19t17 22t7 17h6zM443 10h5q8 0 14 5.5t10.5 14t6.5 18t2 17.5v458l-332 -449v-9q0 -8 2.5 -17.5t6.5 -17.5t10 -14
t14 -6h5v-10h-142v10h5q8 0 14 5.5t10.5 14t6.5 18t2 17.5v533q0 7 -2 16t-6.5 17t-10.5 13.5t-14 5.5h-5v10h142v-10h-8q-7 -1 -12.5 -7t-9.5 -13.5t-6 -16t-2 -15.5v-462l332 449v13q0 7 -2 16t-6.5 17t-10.5 13.5t-14 5.5h-5v10h142v-10h-5q-8 0 -14 -5.5t-10 -13.5
t-6.5 -17t-2.5 -16v-533q0 -8 2.5 -17t6.5 -17.5t10 -14.5t14 -6h5v-10h-142v10z" />
    <glyph glyph-name="uni041A" unicode="&#x41a;" horiz-adv-x="560" 
d="M45 10h5q8 0 14 6t10.5 14t6.5 17.5t2 17.5v533q0 7 -2 16t-6.5 17t-10.5 13.5t-13 5.5h-5v10h142v-10h-5q-8 0 -14 -5.5t-10.5 -13.5t-7 -17t-2.5 -16v-207l232 231q8 8 8 19q0 9 -8 9v10h108v-10q-20 -1 -35.5 -12t-33.5 -29l-237 -237q65 -2 105 -28t63 -72l79 -160
q7 -15 18.5 -32.5t26 -33t32.5 -26t38 -10.5v-10h-50q-29 0 -50 8.5t-36.5 23t-27 32.5t-20.5 36l-81 161q-19 37 -52.5 56.5t-78.5 21.5v-274q0 -8 2 -17t6 -17.5t10 -14t13 -6.5h7v-10h-142v10z" />
    <glyph glyph-name="uni041B" unicode="&#x41b;" horiz-adv-x="646" 
d="M130 70q-9 -26 -28 -48t-56 -22h-31v10q6 0 16 3.5t21 11.5t22 20.5t19 31.5l189 518q5 15 5 23q0 15 -8.5 23.5t-17.5 8.5v10h82l224 -612q5 -14 19 -25.5t31 -12.5v-10h-143v10q8 0 16.5 6.5t8.5 17.5q0 3 -2 9l-188 518z" />
    <glyph glyph-name="uni041C" unicode="&#x41c;" horiz-adv-x="777" 
d="M583 10h5q7 0 13 6t10.5 14t6.5 17.5t2 17.5v526l-258 -602l-245 571v-495q0 -8 2 -17.5t6.5 -17.5t10.5 -14t14 -6h5v-10h-109v10h5q7 0 13 6t10 14t6 17.5t2 17.5v533q0 7 -2 16t-6 17t-10 13.5t-13 5.5h-5v10h102l232 -547l232 547h113v-10h-5q-8 0 -14 -5.5
t-10.5 -13.5t-6.5 -17t-2 -16v-533q0 -8 2 -17.5t6.5 -17.5t10.5 -14t14 -6h5v-10h-142v10z" />
    <glyph glyph-name="uni041D" unicode="&#x41d;" horiz-adv-x="622" 
d="M444 10h5q7 0 13 5.5t10.5 14t6.5 18t2 17.5v272h-320v-272q0 -8 2 -17.5t6 -17.5t9.5 -14t13.5 -6h5v-10h-140v10h5q7 0 13 5.5t10.5 14t6.5 18t2 17.5v533q0 7 -2 16t-6 17t-10 13.5t-14 5.5h-5v10h140v-10h-5q-8 0 -14 -5.5t-9.5 -13.5t-5.5 -17t-2 -16v-226h320v226
q0 7 -2 16t-6 17t-10 13.5t-14 5.5h-5v10h140v-10h-5q-8 0 -14 -5.5t-9.5 -13.5t-5.5 -17t-2 -16v-533q0 -8 2.5 -17.5t6.5 -17.5t9.5 -14t12.5 -6h5v-10h-140v10z" />
    <glyph glyph-name="uni041E" unicode="&#x41e;" horiz-adv-x="761" 
d="M382 670q78 0 140 -27.5t105.5 -74t67 -108t23.5 -128.5q0 -75 -27.5 -138t-75.5 -108t-111.5 -70.5t-135.5 -25.5q-77 0 -138.5 28t-104 74t-65.5 106t-23 125q0 64 23 126.5t67.5 111.5t108.5 79t146 30zM381 25q67 3 117.5 30.5t84.5 70t50.5 93.5t16.5 101
q0 55 -20 111t-57 101.5t-88.5 74t-115.5 28.5q-62 0 -111 -27.5t-83.5 -70.5t-52.5 -96t-18 -104q0 -55 21 -110.5t58 -100.5t87.5 -73t110.5 -28z" />
    <glyph glyph-name="uni041F" unicode="&#x41f;" horiz-adv-x="607" 
d="M45 10h5q8 0 14 5.5t10 14t6 18t2 17.5v533q0 7 -2.5 16t-6.5 17t-10 13.5t-13 5.5h-5v10h512v-10h-8q-7 0 -12 -5.5t-8.5 -14t-5.5 -17.5t-2 -15v-533q0 -8 1.5 -17t5 -17.5t9 -14.5t12.5 -6h8v-10h-140v10h9q7 0 12.5 6t9 14t5 17.5t1.5 17.5v560h-305v-560
q0 -8 2 -17.5t5.5 -17.5t9.5 -14t14 -6h5v-10h-140v10z" />
    <glyph glyph-name="uni0420" unicode="&#x420;" horiz-adv-x="452" 
d="M44 660h142q111 0 168.5 -42.5t57.5 -120.5q0 -42 -20 -75t-52.5 -55.5t-73 -34.5t-80.5 -12h-38v-255q0 -8 2 -17.5t6.5 -17.5t10 -14t13.5 -6h5v-10h-141v10h5q7 0 13 6t10 14t6 17.5t2 17.5v533q0 14 -8 32t-23 20h-5v10zM148 625v-270h30q40 0 71.5 11t52.5 29t32 41
t11 47q0 29 -9.5 54.5t-31 45t-56.5 31t-86 11.5h-14z" />
    <glyph glyph-name="uni0421" unicode="&#x421;" horiz-adv-x="623" 
d="M397 634q-74 0 -128.5 -26.5t-90.5 -69t-53.5 -95.5t-17.5 -105q0 -59 23 -115.5t63.5 -100t94.5 -70t117 -26.5q18 0 42.5 4t48.5 15.5t44.5 32.5t31.5 55h10v-111q-15 0 -31.5 -4t-36.5 -9q-26 -7 -57.5 -13t-66.5 -6q-87 0 -153 30t-110 78t-66 108.5t-22 122.5
t22 123t67 109.5t113 78.5t160 30q33 0 59.5 -6t47.5 -12q15 -5 27.5 -7.5t24.5 -2.5v-111h-10q-6 31 -22 51.5t-37.5 31.5t-46 15.5t-47.5 4.5z" />
    <glyph glyph-name="uni0422" unicode="&#x422;" horiz-adv-x="468" 
d="M298 10h5v-10h-142v10h5q8 0 14 6t10.5 14t6.5 17.5t2 17.5v558h-116q-16 0 -28 -7t-20 -17.5t-12 -23t-4 -24.5h-10v109h449v-109h-10q0 12 -4 24.5t-12 23t-20 17.5t-28 7h-118v-558q0 -8 2 -17.5t6.5 -17.5t10 -14t13.5 -6z" />
    <glyph glyph-name="uni0423" unicode="&#x423;" horiz-adv-x="544" 
d="M7 660h139v-10h-6q-11 0 -15 -6.5t-4 -13.5q0 -5 1 -9t2 -6l171 -374l153 363q1 2 3 8.5t2 12.5q0 14 -10 19.5t-15 5.5v10h107v-10q-18 0 -27.5 -9.5t-14.5 -19.5l-240 -574q-12 -29 -32 -42.5t-43 -13.5q-15 0 -27 4.5t-21 10.5t-13.5 11l-4.5 5l25 55q8 -19 21 -29.5
t27 -10.5q9 0 18.5 6.5t16.5 20.5l39 95l-208 459q-14 30 -44 32v10z" />
    <glyph glyph-name="uni0424" unicode="&#x424;" horiz-adv-x="764" 
d="M309 660h141v-10h-8q-7 -1 -12.5 -7t-9.5 -14t-6 -17.5t-2 -16.5v-5q69 -2 125.5 -22.5t97.5 -55.5t63.5 -81.5t22.5 -100.5q0 -59 -25.5 -107t-68.5 -82t-98.5 -53.5t-116.5 -20.5v-5q0 -7 2 -16t6.5 -17t10.5 -13.5t14 -5.5h5v-10h-141v10h5q7 0 13.5 5.5t10.5 13.5
t6.5 17t2.5 16v5q-70 2 -127 22.5t-97.5 56t-63 82.5t-22.5 102q0 58 24.5 105.5t66.5 81t98.5 52.5t120.5 21v5q0 7 -2.5 16.5t-6.5 17.5t-10 14t-13 7h-6v10zM102 340q0 -44 20.5 -86.5t54.5 -76t78 -54.5t92 -23v457q-60 -1 -106 -21t-77 -50.5t-46.5 -69t-15.5 -76.5z
M655 320q0 44 -19 86t-52 75t-77 53.5t-95 22.5v-457q56 2 101 21.5t76.5 50t48.5 69t17 79.5z" />
    <glyph glyph-name="uni0425" unicode="&#x425;" horiz-adv-x="514" 
d="M217 331l-139 260q-5 8 -11.5 18.5t-13.5 19.5t-15.5 15t-17.5 6v10h142v-10q-6 0 -13.5 -8t-7.5 -20q0 -7 4 -14l113 -210l103 200q0 3 3 6q2 5 4.5 10.5t2.5 10.5q0 16 -11 20.5t-14 4.5v10h111v-10q-17 0 -32.5 -18.5t-24.5 -36.5l-122 -233l156 -294q5 -9 12 -19
t15 -19t16.5 -14.5t17.5 -5.5v-10h-142v10q6 0 12 8t6 19q0 7 -6 18l-127 238l-125 -238q-3 -6 -5.5 -14t-2.5 -15q0 -16 15 -16v-10h-109v10q7 0 16 4.5t18 11.5t17 16t13 17z" />
    <glyph glyph-name="uni0426" unicode="&#x426;" horiz-adv-x="625" 
d="M44 10h5q9 0 15 6t9.5 14t5 17.5t1.5 17.5v530q0 7 -1.5 17t-5 18t-9.5 14t-15 6h-5v10h141v-10h-10q-8 -1 -13.5 -7t-8.5 -14t-4.5 -17.5t-1.5 -16.5v-560h301v560q0 7 -1.5 16.5t-5 17.5t-9.5 14t-14 7h-6v10h139v-10h-9q-8 -1 -13 -7t-8 -14t-4.5 -17.5t-1.5 -16.5
v-506q0 -20 10.5 -37t34.5 -17h50v-125h-10q-1 13 -6.5 28.5t-16 29t-26 23t-36.5 9.5h-471v10z" />
    <glyph glyph-name="uni0427" unicode="&#x427;" horiz-adv-x="550" 
d="M358 10h5q7 0 13 5.5t10.5 13.5t6.5 17t2 17v266q-20 -15 -54 -29t-72 -14q-45 0 -81.5 15.5t-62 42.5t-39 62.5t-13.5 75.5v116q0 7 -2 16t-5.5 17t-9 13.5t-11.5 5.5h-5v10h139v-10h-5q-8 0 -14 -5.5t-10.5 -13.5t-7 -17t-2.5 -16v-122q0 -33 13 -60t34 -46.5t47.5 -30
t53.5 -10.5t55 13t52 30v226q0 7 -2 15.5t-5.5 16t-8.5 13.5t-12 7h-8v10h142v-10h-8q-7 -1 -13 -7t-10 -13.5t-6 -16t-2 -15.5v-535q0 -7 2 -16t6 -16.5t10 -13.5t13 -7h8v-10h-143v10z" />
    <glyph glyph-name="uni0428" unicode="&#x428;" horiz-adv-x="849" 
d="M353 660h137v-10h-5q-8 0 -14 -5.5t-9.5 -13.5t-5.5 -16.5t-2 -14.5v-564h240v559q0 7 -1.5 16.5t-4.5 17.5t-8.5 14t-13.5 7h-7v10h137v-10h-5q-9 0 -14.5 -6t-9.5 -14t-5.5 -18t-1.5 -17v-533q0 -7 2.5 -16t6.5 -17t9.5 -13.5t12.5 -5.5h5v-10h-750v10h5q7 0 13 5.5
t10 13.5t6 17t2 16v533q0 7 -1.5 17t-5.5 18t-9.5 14t-14.5 6h-5v10h137v-10h-7q-8 -1 -13.5 -7t-8.5 -14t-4.5 -17.5t-1.5 -16.5v-559h240v559q0 7 -2 17t-5.5 18t-9.5 14t-13 6h-5v10z" />
    <glyph glyph-name="uni0429" unicode="&#x429;" horiz-adv-x="870" 
d="M47 10h5q9 0 14.5 5.5t9 13.5t5 17t1.5 16v533q0 7 -1.5 16.5t-5.5 18t-9.5 14.5t-14.5 6h-5v10h137v-10h-5q-8 0 -14 -6t-9.5 -14.5t-5 -18t-1.5 -16.5v-560h241v560q0 7 -1.5 16t-5 17.5t-9.5 14.5t-14 7h-6v10h137v-10h-5q-8 0 -13.5 -6t-9 -14t-5.5 -16.5t-2 -13.5
v-565h240v560q0 7 -1.5 16.5t-5.5 18t-9.5 14.5t-14.5 6h-5v10h137v-10h-7q-16 -2 -22 -21.5t-6 -33.5v-506q0 -20 10 -37t35 -17h49v-125h-10q-1 15 -8 31t-18 29t-26 21.5t-33 8.5h-713v10z" />
    <glyph glyph-name="uni042A" unicode="&#x42a;" horiz-adv-x="558" 
d="M101 10h5q8 0 14 5.5t10 13.5t6 17t2 16v561h-52q-33 0 -49 -20t-16 -43h-10v100h232v-10h-5q-8 0 -14 -6t-10 -14.5t-6.5 -18t-2.5 -16.5v-215h56q46 0 90.5 -9t79 -30.5t55.5 -58.5t21 -93q0 -44 -17.5 -79t-49 -59.5t-74 -37.5t-91.5 -13h-174v10zM220 35
q111 0 163.5 39t52.5 111q0 71 -50 116t-147 45h-34v-311h15z" />
    <glyph glyph-name="uni042B" unicode="&#x42b;" horiz-adv-x="712" 
d="M47 10h5q7 0 13 5.5t10 13.5t6.5 17t2.5 16v533q0 7 -2 17t-6.5 18t-10.5 14t-13 6h-5v10h141v-10h-7q-14 -2 -22 -21.5t-8 -33.5v-215h56q46 0 90.5 -9.5t79 -32t55.5 -59t21 -90.5q0 -44 -18 -79t-49 -59.5t-73.5 -37.5t-91.5 -13h-174v10zM166 35q116 0 166.5 40
t50.5 110q0 71 -50.5 116t-148.5 45h-33v-311h15zM520 660h141v-10h-8q-7 -1 -12.5 -7t-9 -13.5t-5.5 -16t-2 -15.5v-533q0 -8 2 -17t6 -17.5t9.5 -14t12.5 -6.5h7v-10h-141v10h5q8 0 14 5.5t10 14t6 18t2 17.5v533q0 7 -2 16t-6 17t-10 13.5t-14 5.5h-5v10z" />
    <glyph glyph-name="uni042C" unicode="&#x42c;" horiz-adv-x="488" 
d="M45 10h5q7 0 13 5.5t10 13.5t6.5 17t2.5 16v533q0 7 -2 17t-6.5 18t-10.5 14t-13 6h-5v10h141v-10h-7q-14 -2 -22 -21.5t-8 -33.5v-215h56q46 0 90.5 -9.5t79 -32t55.5 -59t21 -90.5q0 -44 -18 -79t-49 -59.5t-73.5 -37.5t-91.5 -13h-174v10zM164 35q116 0 166.5 40
t50.5 110q0 71 -50.5 116t-148.5 45h-33v-311h15z" />
    <glyph glyph-name="uni042D" unicode="&#x42d;" horiz-adv-x="601" 
d="M203 670q92 0 159.5 -27.5t111.5 -72.5t65.5 -103t21.5 -119q0 -75 -28 -141t-77 -115.5t-115 -78t-142 -28.5q-48 0 -80.5 9t-55.5 17q-11 4 -23 7.5t-21 3.5v102h10q12 -34 34 -54t47.5 -30.5t51.5 -13.5t44 -3q63 0 115 26t90.5 69.5t60 100.5t22.5 119h-259
q-25 0 -40 -13t-15 -31h-9v125h9q0 -19 15.5 -33t39.5 -14h258q-6 48 -27.5 95t-58.5 84.5t-89.5 60.5t-121.5 23q-23 0 -46.5 -3t-43.5 -12.5t-34.5 -28.5t-20.5 -50h-10v102q12 0 24 2.5t25 6.5q21 6 48.5 12t64.5 6z" />
    <glyph glyph-name="uni042E" unicode="&#x42e;" horiz-adv-x="918" 
d="M47 10h5q7 0 12.5 6t9.5 14t6 17.5t2 17.5v533q0 7 -2.5 16t-6.5 17t-9.5 13.5t-12.5 5.5h-5v10h141v-10h-8q-7 -1 -12.5 -7t-9.5 -14t-6 -16.5t-2 -14.5v-226h66q9 57 35.5 110.5t68.5 95.5t99 67t129 25q78 0 138.5 -27.5t102.5 -74t63.5 -108t21.5 -128.5
q0 -75 -26 -138t-72 -108t-108 -70.5t-134 -25.5q-77 0 -136.5 28t-100.5 74t-62.5 106t-21.5 125v15h-63v-273q0 -8 2.5 -17t6.5 -17.5t10 -14.5t13 -6h7v-10h-141v10zM546 25q67 3 116.5 30.5t81.5 70t47.5 93.5t15.5 101q0 55 -19 111t-54 101.5t-85.5 74t-114.5 28.5
q-62 0 -109.5 -27.5t-80 -70.5t-49.5 -96t-17 -104q0 -55 19.5 -110.5t55 -100.5t84.5 -73t109 -28z" />
    <glyph glyph-name="uni042F" unicode="&#x42f;" horiz-adv-x="559" 
d="M368 10h5q7 0 13.5 6t10.5 14t6.5 17.5t2.5 17.5v271q-22 -2 -41.5 -14t-37 -32t-33 -45t-29.5 -52q-11 -20 -24 -42.5t-26 -45.5q-24 -44 -63 -74.5t-90 -30.5h-53v10q23 0 43.5 10t37.5 25t30.5 33t22.5 34l79 142q14 24 30.5 46.5t50.5 36.5q-42 3 -75 16t-56 34
t-35 47.5t-12 55.5q0 37 17 68.5t48 54t75.5 35t99.5 12.5h144v-10h-5q-7 0 -13 -5.5t-10 -13.5t-6 -17t-2 -16v-533q0 -8 2 -17.5t6 -17.5t10 -14t13 -6h5v-10h-141v10zM188 505q0 -29 12 -53.5t33 -42.5t49 -28t61 -10h63v255h-15q-97 0 -150 -32t-53 -89z" />
    <glyph glyph-name="uni0430" unicode="&#x430;" horiz-adv-x="457" 
d="M309 0v51l-5 -5q-25 -25 -57.5 -39t-78.5 -14q-35 0 -60 8t-41 22.5t-23.5 33.5t-7.5 40q0 34 18.5 60t53.5 46t85.5 36.5t115.5 32.5q-2 39 -16 63t-33 37.5t-40 18t-36 4.5q-26 0 -46 -7.5t-35 -20t-24.5 -28.5t-14.5 -32h-9v78q9 0 21 6.5t28.5 14.5t40 14.5t56.5 6.5
q55 0 89 -14t52.5 -37t24.5 -52.5t6 -60.5v-198q0 -20 10 -37.5t27 -17.5v-10h-101zM309 95v143l-10 -2q-24 -6 -58.5 -16t-65.5 -26t-53 -38t-22 -51q0 -32 26 -53t68 -21q33 0 58 14.5t46 37.5z" />
    <glyph glyph-name="uni0431" unicode="&#x431;" horiz-adv-x="523" 
d="M261 427q50 0 90.5 -16.5t69 -45t43.5 -67.5t15 -85q0 -49 -17 -89.5t-47 -69.5t-71 -45t-89 -16q-51 0 -91 19.5t-68 53.5t-43 80.5t-15 100.5q0 31 3.5 57t11 50.5t18.5 47.5t26 48q42 66 105.5 104t129.5 38h127l-39 -64h-104q-32 0 -64 -11.5t-60.5 -34t-50.5 -54.5
t-35 -73q27 33 62.5 52.5t92.5 19.5zM267 27q37 2 65 17.5t47 40t28.5 55t9.5 62.5q0 37 -12 71.5t-34 60.5t-52.5 42t-67.5 16q-36 0 -64 -15.5t-47 -40.5t-28.5 -57t-9.5 -64t11.5 -65.5t33 -60.5t52 -44.5t68.5 -17.5z" />
    <glyph glyph-name="uni0432" unicode="&#x432;" horiz-adv-x="455" 
d="M384 320q0 -17 -7 -32t-17.5 -27.5t-24.5 -22t-27 -14.5q17 -3 35.5 -11t34 -21t25.5 -32.5t10 -46.5q0 -14 -6.5 -33.5t-23 -37t-45 -30t-73.5 -12.5h-220v10q8 0 14 6t10.5 14t6.5 17.5t2 17.5v292q0 16 -8.5 34.5t-24.5 18.5v10h204q36 0 61.5 -9.5t42 -24t24 -32
t7.5 -34.5zM143 237h77q29 0 48.5 6.5t31.5 17.5t17.5 25t5.5 29q0 12 -7 25t-20.5 23.5t-32.5 17.5t-43 7h-77v-151zM241 32q12 0 30.5 2.5t36 11t30 25t12.5 43.5q0 29 -17 47t-39.5 27.5t-46.5 12.5t-37 3h-67v-172h98z" />
    <glyph glyph-name="uni0433" unicode="&#x433;" horiz-adv-x="366" 
d="M355 420v-104h-10q0 11 -4.5 23.5t-13.5 23t-21.5 17.5t-28.5 7h-133v-324q0 -8 2.5 -17t7 -17t10.5 -13.5t14 -5.5v-10h-133v10q8 0 14 5.5t10.5 13.5t6.5 17t2 17v295q0 7 -2 16t-6.5 17t-10.5 13.5t-14 5.5v10h310z" />
    <glyph glyph-name="uni0434" unicode="&#x434;" horiz-adv-x="504" 
d="M490 33v-123h-10q-2 12 -7 27.5t-14 29.5t-21.5 23.5t-28.5 9.5h-318q-16 0 -29 -9.5t-22.5 -23.5t-15 -29.5t-6.5 -27.5h-10v123h38q6 0 11.5 5t11 12t10.5 15.5t9 15.5q15 34 36.5 81t44 97t43.5 97.5t36 81.5l169 -369q8 -17 15 -26.5t19 -9.5h39zM101 33h260
l-130 285z" />
    <glyph glyph-name="uni0435" unicode="&#x435;" 
d="M100 202q4 -35 17 -66.5t34.5 -55.5t52.5 -38.5t72 -14.5q22 0 46.5 6.5t45.5 18.5t37.5 29.5t22.5 39.5h9v-75q-6 0 -13.5 -4t-17.5 -10q-20 -12 -54 -25.5t-90 -13.5q-45 0 -85.5 13t-71.5 40t-49.5 69t-18.5 100q0 37 12.5 75t38 68.5t65.5 49.5t96 19q50 0 87.5 -17
t62 -47t36.5 -71t12 -90h-347zM245 394q-35 0 -60.5 -14t-43.5 -36t-28 -50t-13 -56h285q-1 29 -10.5 57t-26.5 50t-43 35.5t-60 13.5z" />
    <glyph glyph-name="uni0436" unicode="&#x436;" horiz-adv-x="627" 
d="M525 79q6 -12 15.5 -24t20.5 -21.5t23.5 -16t23.5 -7.5v-10h-35q-42 0 -65.5 17.5t-37.5 44.5l-48 94q-9 23 -32 40t-48 19v-149q0 -7 2 -16.5t6.5 -18t10.5 -14.5t14 -7v-10h-128v10q8 1 14 7t10.5 14.5t6.5 17.5t2 17v149q-26 -2 -47.5 -19t-32.5 -40l-47 -94
q-13 -26 -37.5 -44t-66.5 -18h-35v10q11 1 23 7.5t23.5 16t21 21.5t15.5 24l47 97q12 23 40.5 40.5t65.5 19.5q-38 36 -81 77t-82 77q-3 2 -15.5 10.5t-22.5 9.5v10h77v-11q-3 -2 -3 -3q0 -5 3 -9l154 -143v103q0 14 -8.5 32.5t-24.5 20.5v10h128v-10q-8 -1 -14 -6.5
t-10 -13.5t-6.5 -17t-2.5 -16v-103l155 145q2 2 2 7q0 1 -3 3v11h77v-10q-5 0 -11.5 -3t-12.5 -7q-7 -4 -14 -10l-163 -154q40 -1 67 -17.5t39 -42.5z" />
    <glyph glyph-name="uni0437" unicode="&#x437;" horiz-adv-x="381" 
d="M318 322q0 -24 -21 -51.5t-57 -43.5q56 -12 80.5 -41.5t24.5 -62.5q0 -31 -15 -55t-40.5 -40t-58 -24t-67.5 -8q-33 0 -59 6.5t-45 14t-31.5 14t-19.5 6.5v81h9q2 -21 14 -37.5t30.5 -28t42 -17.5t48.5 -6q23 0 45.5 5t40 15.5t28.5 26.5t11 37q0 22 -12 39.5t-31.5 29.5
t-43 18t-46.5 6h-32v32h35q21 0 40.5 7t33.5 18t22.5 25.5t8.5 29.5q0 18 -9.5 32t-25.5 24t-35.5 15.5t-40.5 5.5q-19 0 -37 -4.5t-32.5 -14.5t-24 -25t-12.5 -36h-9v78q8 0 15 2.5t16 7.5q16 8 39 15.5t58 7.5q78 0 120.5 -28t42.5 -76z" />
    <glyph glyph-name="uni0438" unicode="&#x438;" horiz-adv-x="529" 
d="M446 65q0 -8 2.5 -17.5t6.5 -17.5t10.5 -14t12.5 -6v-10h-128v10q7 0 13 5.5t10 14t6 18t2 17.5v240l-238 -233v-7q0 -8 2 -17.5t6 -17.5t9.5 -14t12.5 -6v-10h-127v10q7 0 13 5.5t10 14t6 18t2 17.5v293q0 7 -2 16t-6 17t-10 13.5t-13 5.5v10h127v-10q-8 0 -13.5 -5.5
t-9 -13.5t-5.5 -17t-2 -16v-239l238 233v6q0 7 -2 16t-6 17t-10 13.5t-13 5.5v10h128v-10q-8 0 -14.5 -5.5t-10 -13.5t-5.5 -17t-2 -16v-293z" />
    <glyph glyph-name="uni0439" unicode="&#x439;" horiz-adv-x="529" 
d="M446 65q0 -8 2.5 -17.5t6.5 -17.5t10.5 -14t12.5 -6v-10h-128v10q7 0 13 5.5t10 14t6 18t2 17.5v240l-238 -233v-7q0 -8 2 -17.5t6 -17.5t9.5 -14t12.5 -6v-10h-127v10q7 0 13 5.5t10 14t6 18t2 17.5v293q0 7 -2 16t-6 17t-10 13.5t-13 5.5v10h127v-10q-8 0 -13.5 -5.5
t-9 -13.5t-5.5 -17t-2 -16v-239l238 233v6q0 7 -2 16t-6 17t-10 13.5t-13 5.5v10h128v-10q-8 0 -14.5 -5.5t-10 -13.5t-5.5 -17t-2 -16v-293zM369 555q0 -16 -8 -34.5t-23 -34t-35.5 -25.5t-45.5 -10q-23 0 -43.5 9.5t-35.5 24.5t-24 33.5t-9 36.5h6q1 -6 6.5 -16.5
t17.5 -21.5t31.5 -19t49.5 -8q31 0 51 8t32 19t17 21.5t7 16.5h6z" />
    <glyph glyph-name="uni043A" unicode="&#x43a;" horiz-adv-x="451" 
d="M348 78q6 -11 16 -23t22.5 -22t25.5 -16.5t25 -6.5v-10h-38q-46 0 -71 19t-39 45l-47 89q-11 21 -37 36.5t-55 15.5v-142q0 -8 1.5 -17t5.5 -17t10 -13.5t14 -5.5v-10h-129v10q7 0 13.5 5.5t10.5 13.5t6 17t2 17v294q0 7 -2 16.5t-5.5 17.5t-9.5 13.5t-15 5.5v10h128v-10
q-7 0 -12.5 -5.5t-9.5 -13.5t-6 -17.5t-2 -16.5v-103q43 38 85 73.5t85 73.5q0 1 1 2t1 2q0 5 -5 5v10h87v-10q-5 0 -12 -3t-14 -7q-8 -4 -16 -10q-45 -38 -90 -77.5t-90 -77.5q43 0 70.5 -16t46.5 -51z" />
    <glyph glyph-name="uni043B" unicode="&#x43b;" horiz-adv-x="493" 
d="M345 10q7 0 16 6t9 17q0 2 -1.5 8.5t-5.5 14.5l-127 300l-132 -315q-17 -41 -67 -41h-22v10q14 0 30.5 14.5t26.5 34.5l136 318q5 13 5 21q0 12 -16 12v10h81l154 -360q7 -15 20.5 -32.5t25.5 -17.5v-10h-133v10z" />
    <glyph glyph-name="uni043C" unicode="&#x43c;" horiz-adv-x="589" 
d="M503 65q0 -8 2 -17.5t6.5 -17.5t10.5 -14t14 -6v-10h-130v10q8 0 14 5.5t10 14t6 18t2 17.5v270l-167 -344l-160 324v-250q0 -8 2 -17.5t6 -17.5t10 -14t14 -6v-10h-97v10q8 0 14 6t9.5 14t5.5 17.5t2 17.5v293q0 18 -4.5 35t-26.5 17v10h89l153 -313l153 313h95v-10
q-15 0 -24 -18.5t-9 -33.5v-293z" />
    <glyph glyph-name="uni043D" unicode="&#x43d;" horiz-adv-x="519" 
d="M143 65q0 -8 2 -17.5t6 -17.5t9.5 -14t12.5 -6v-10h-126v10q7 0 12.5 5.5t9.5 14t6 18t2 17.5v293q0 7 -2 16t-6 17t-9.5 13.5t-12.5 5.5v10h126v-10q-8 0 -13.5 -5.5t-9 -13.5t-5.5 -17t-2 -16v-121h228v121q0 7 -2 16t-5.5 17t-9 13.5t-13.5 5.5v10h126v-10
q-8 0 -13.5 -5.5t-9.5 -13.5t-5.5 -17t-1.5 -16v-293q0 -8 2 -17.5t6 -17.5t9.5 -14t12.5 -6v-10h-126v10q7 0 12.5 5.5t9.5 14t6 18t2 17.5v139h-228v-139z" />
    <glyph glyph-name="uni043E" unicode="&#x43e;" horiz-adv-x="523" 
d="M255 -7q-50 0 -90 16.5t-68.5 45t-44 67.5t-15.5 85q0 49 17 89.5t47 69.5t71 45t89 16t88 -15.5t69 -43.5t45 -66.5t16 -84.5q0 -43 -14.5 -83.5t-43 -71.5t-70 -50t-96.5 -19zM249 394q-36 -2 -63.5 -17.5t-46 -40t-28 -55.5t-9.5 -63q0 -37 11.5 -71.5t33 -61.5
t51.5 -43t67 -16t65.5 16t47.5 41.5t28.5 57.5t9.5 64q0 33 -10 66.5t-31 61t-52.5 44.5t-73.5 17z" />
    <glyph glyph-name="uni043F" unicode="&#x43f;" horiz-adv-x="511" 
d="M143 65q0 -8 2 -17.5t5.5 -17.5t9 -14t13.5 -6v-10h-127v10q8 0 14 5.5t9.5 14t5.5 18t2 17.5v293q0 7 -2 16.5t-6 17t-10 13t-13 5.5v10h415v-10q-16 0 -24 -18.5t-8 -33.5v-293q0 -8 2 -17.5t6 -17.5t10.5 -14t13.5 -6v-10h-129v10q9 0 14.5 5.5t9.5 14t5.5 18
t1.5 17.5v320h-220v-320z" />
    <glyph glyph-name="uni0440" unicode="&#x440;" horiz-adv-x="515" 
d="M258 427q54 0 93.5 -18.5t66 -48.5t39.5 -69t13 -80q0 -40 -12.5 -79t-38 -70t-63.5 -50t-90 -19q-31 0 -63.5 16.5t-58.5 41.5v-206q0 -8 2 -17.5t6.5 -17.5t10 -14t13.5 -6v-10h-130v10q7 0 13 6t10.5 14t6.5 17.5t2 17.5v516q0 9 -0.5 17.5t-3.5 15t-9.5 11t-18.5 5.5
v10h98v-44q20 24 48.5 37.5t65.5 13.5zM267 27q35 1 61 16t43 39t25 53.5t8 61.5q0 36 -10 71t-29 62.5t-46.5 45t-62.5 17.5q-21 0 -41.5 -8t-36 -23t-25 -35.5t-9.5 -45.5v-131q0 -27 11 -49.5t28.5 -39t39.5 -25.5t44 -9z" />
    <glyph glyph-name="uni0441" unicode="&#x441;" horiz-adv-x="436" 
d="M414 36q-8 0 -15 -3.5t-16 -8.5q-17 -10 -45 -20.5t-70 -10.5q-51 0 -93.5 16.5t-73.5 46t-48 69t-17 85.5q0 43 15.5 82t44.5 69t71.5 48t96.5 18q37 0 60 -8.5t39 -16.5q9 -5 17.5 -8t17.5 -3v-76h-10q-5 19 -18 33.5t-30 24.5t-37 15t-39 5q-41 0 -72 -14.5t-51 -38
t-30 -53.5t-10 -62q0 -37 11.5 -72.5t33 -63.5t53 -45t71.5 -17q28 0 52 8t41.5 21t28 28.5t12.5 29.5h10v-78z" />
    <glyph glyph-name="uni0442" unicode="&#x442;" horiz-adv-x="404" 
d="M383 315q0 11 -4 24t-12 23.5t-20 17.5t-28 7h-88v-322q0 -8 2 -17t6.5 -17.5t10 -14.5t13.5 -6v-10h-130v10q8 0 14 6t10.5 14t6.5 17.5t2 17.5v322h-86q-16 0 -28 -7t-19.5 -17.5t-11.5 -23.5t-4 -24h-10v105h385v-105h-9z" />
    <glyph glyph-name="uni0443" unicode="&#x443;" horiz-adv-x="474" 
d="M205 -143q-14 -42 -35.5 -57t-44.5 -15q-15 0 -27 5t-21 11t-13.5 11l-4.5 5l33 81q4 -16 10 -27q5 -10 14 -18t22 -8q24 0 38 35l48 123l-160 364q-8 17 -16.5 30t-28.5 13v10h129v-10q-4 0 -10 -7t-6 -18q0 -8 4 -16l123 -283l118 289q3 7 3 13q0 10 -6.5 16t-13.5 6
v10h97v-10q-16 0 -27.5 -13.5t-18.5 -30.5z" />
    <glyph glyph-name="uni0444" unicode="&#x444;" horiz-adv-x="697" 
d="M486 427q49 0 83.5 -18t56.5 -48t31.5 -68.5t9.5 -79.5q0 -40 -11.5 -79.5t-35 -70.5t-59.5 -50.5t-85 -19.5q-19 0 -35.5 5.5t-30.5 12.5q-16 8 -30 19v-185q0 -8 2 -17.5t6.5 -17.5t10 -14t13.5 -6v-10h-128v10q8 0 14 5.5t10 14t6 18t2 17.5v185q-10 -10 -32.5 -23.5
t-62.5 -13.5q-49 0 -85 19.5t-60 51t-35.5 71.5t-11.5 82q0 40 10 77.5t31.5 67t56 47.5t83.5 18q48 0 71.5 -13.5t34.5 -24.5v119q0 7 -2 15.5t-6 16.5t-10 13.5t-14 5.5v10h128v-10q-7 0 -13 -5.5t-10 -13t-6.5 -16.5t-2.5 -16v-118q11 10 35 23.5t71 13.5zM228 27
q19 0 35 9t28 23t18.5 30.5t6.5 31.5v169q0 22 -8.5 40.5t-22 32.5t-31 22t-36.5 8q-35 0 -59 -13.5t-39 -36.5t-22 -52.5t-7 -60.5q0 -37 9 -73.5t26.5 -65t43 -46.5t58.5 -18zM472 27q35 0 60 14t41.5 37.5t24.5 53t8 61.5q0 37 -8 72.5t-24 63.5t-40.5 45.5t-57.5 17.5
q-42 0 -69 -28.5t-27 -72.5v-169q0 -16 7.5 -32.5t20 -30.5t29.5 -23t35 -9z" />
    <glyph glyph-name="uni0445" unicode="&#x445;" horiz-adv-x="466" 
d="M302 10q8 0 13.5 4t5.5 10q0 7 -12 22q-26 34 -50.5 69t-49.5 69l-104 -141q-3 -4 -7 -11t-4 -12q0 -10 11 -10v-10h-94v10q14 0 30 11.5t27 27.5l121 164l-112 152q-5 6 -11.5 14t-14.5 14.5t-16 11.5t-15 5v10h144v-10q-6 0 -12.5 -4t-6.5 -15q0 -6 6 -14l81 -112
l77 102q8 10 10 16t2 11q0 6 -3.5 11t-10.5 5v10h96v-10q-16 0 -30.5 -16t-24.5 -30l-97 -128l134 -181q13 -18 29 -31.5t31 -13.5v-10h-143v10z" />
    <glyph glyph-name="uni0446" unicode="&#x446;" horiz-adv-x="513" 
d="M499 33v-121h-10q0 13 -6.5 28t-17.5 28.5t-25.5 22.5t-30.5 9h-363v10q7 0 12.5 5.5t9.5 14t6 17.5t2 15v293q0 7 -1.5 17t-4.5 18t-9 14t-15 6v10h127v-10q-9 0 -14.5 -5.5t-9.5 -14t-5.5 -18t-1.5 -17.5v-322h218v322q0 7 -1.5 17t-5.5 18t-9.5 14t-14.5 6v10h127v-10
q-9 0 -14.5 -5.5t-9 -14t-5 -18t-1.5 -17.5v-267q0 -20 8.5 -37.5t32.5 -17.5h32z" />
    <glyph glyph-name="uni0447" unicode="&#x447;" horiz-adv-x="464" 
d="M380 63q0 -8 2.5 -17t6.5 -17t9 -13.5t13 -5.5v-10h-127v10q7 0 12.5 5.5t9.5 13.5t6 17t2 17v138q-23 -24 -48.5 -36.5t-63.5 -12.5q-36 0 -64 14t-46.5 37.5t-28 53t-9.5 61.5v40q0 7 -1.5 16t-4.5 17t-7.5 13.5t-9.5 5.5v10h117v-10q-6 0 -11.5 -5.5t-9 -13.5
t-5.5 -17t-2 -16v-40q0 -34 10 -57.5t25 -38t33 -21t35 -6.5q26 0 47.5 12.5t43.5 38.5v112q0 7 -2 16t-6 17t-9.5 13.5t-12.5 5.5v10h127v-10q-8 0 -13 -5.5t-9 -13.5t-6.5 -17t-2.5 -16v-295z" />
    <glyph glyph-name="uni0448" unicode="&#x448;" horiz-adv-x="707" 
d="M139 33h181v322q0 7 -2 17t-5.5 18t-9.5 14t-13 6v10h124v-10q-8 0 -13.5 -5.5t-9 -13.5t-5.5 -16.5t-2 -14.5v-327h182v322q0 7 -1.5 17t-5 18t-9.5 14t-15 6v10h126v-10q-8 0 -13.5 -6t-9.5 -14t-5.5 -18t-1.5 -17v-293q0 -7 2 -16t5.5 -17t9 -13.5t12.5 -5.5v-10h-615
v10q7 0 12 5.5t9 13.5t6 17t2 16v293q0 7 -1.5 17t-5 18t-9 14t-13.5 6v10h124v-10q-8 0 -14 -6t-9.5 -14t-5 -18t-1.5 -17v-322z" />
    <glyph glyph-name="uni0449" unicode="&#x449;" horiz-adv-x="728" 
d="M707 33v-123h-10q-2 12 -8.5 27.5t-17.5 29.5t-25 23.5t-30 9.5h-567v10q7 0 12 6t8 14t4.5 17t1.5 15v293q0 7 -1.5 17t-5 18t-9.5 14t-14 6v10h124v-10q-8 0 -14 -6t-9.5 -14t-5 -18t-1.5 -17v-322h181v322q0 7 -1.5 17t-5.5 18t-9.5 14t-12.5 6v10h124v-10
q-8 0 -14 -5.5t-9.5 -13.5t-5.5 -16.5t-2 -14.5v-327h182v322q0 7 -1.5 17t-5 18t-9.5 14t-15 6v10h126v-10q-9 0 -14.5 -6t-9 -14t-5 -18t-1.5 -17v-267q0 -6 1 -15.5t3.5 -18.5t8 -15t14.5 -6h49z" />
    <glyph glyph-name="uni044A" unicode="&#x44a;" horiz-adv-x="461" 
d="M246 238q46 0 80 -9.5t56 -25.5t32.5 -37.5t10.5 -46.5q0 -52 -44 -85.5t-140 -33.5h-170v10q7 0 13 5.5t10.5 14t6.5 18t2 17.5v323h-20q-33 0 -48.5 -17.5t-15.5 -40.5h-10v90h192v-10q-7 0 -13 -5.5t-10 -13t-6.5 -17t-2.5 -16.5v-120h77zM239 33q66 0 94 21.5
t28 53.5q0 19 -9 36.5t-27 31t-43.5 21.5t-58.5 8h-54v-172h70z" />
    <glyph glyph-name="uni044B" unicode="&#x44b;" horiz-adv-x="643" 
d="M459 0v10q7 0 13 5.5t10.5 14t6.5 18t2 17.5v293q0 7 -2 16t-6.5 17t-10.5 13.5t-13 5.5v10h130v-10q-15 0 -24 -18.5t-9 -33.5v-293q0 -8 2 -17.5t6.5 -17.5t10.5 -14t14 -6v-10h-130zM223 238q92 0 136.5 -34t44.5 -84q0 -25 -11.5 -47t-34.5 -38t-58 -25.5t-83 -9.5
h-170v10q7 0 13 5.5t10.5 14t6.5 18t2 17.5v293q0 7 -2 16t-6.5 17t-10.5 13.5t-13 5.5v10h130v-10q-15 0 -24 -18.5t-9 -33.5v-120h79zM215 33q66 0 95.5 21.5t29.5 53.5q0 18 -8 35.5t-24.5 31t-40.5 22t-55 8.5h-68v-172h71z" />
    <glyph glyph-name="uni044C" unicode="&#x44c;" horiz-adv-x="445" 
d="M221 238q46 0 80.5 -9t57 -25t33.5 -37.5t11 -46.5t-11 -47t-34.5 -38t-58.5 -25.5t-83 -9.5h-171v10q8 0 14 5.5t10.5 14t6.5 18t2 17.5v293q0 7 -2 16t-6.5 17t-10.5 13.5t-14 5.5v10h131v-10q-15 0 -24 -18.5t-9 -33.5v-120h78zM214 33q66 0 95.5 21.5t29.5 53.5
q0 18 -8 35.5t-24.5 31t-40.5 22t-55 8.5h-68v-172h71z" />
    <glyph glyph-name="uni044D" unicode="&#x44d;" horiz-adv-x="418" 
d="M15 387q8 0 15.5 3.5t14.5 7.5q16 9 42 19t72 10q45 0 84.5 -15.5t69.5 -43t47 -66t17 -83.5q0 -48 -17 -89t-47 -71.5t-72 -48t-92 -17.5q-41 0 -65 7.5t-40 15.5q-9 5 -17.5 7.5t-17.5 2.5v73h8q17 -40 48 -56t70 -16q44 0 76.5 16t54 41t33 56.5t12.5 63.5h-135
q-23 0 -37.5 -9.5t-16.5 -25.5h-10v100h10q1 -17 16 -24.5t38 -7.5h134q-4 33 -18.5 61.5t-36.5 49.5t-50.5 33t-60.5 12q-53 0 -81 -25t-40 -57h-8v76z" />
    <glyph glyph-name="uni044E" unicode="&#x44e;" horiz-adv-x="688" 
d="M430 427q50 0 89.5 -16.5t66.5 -45t41.5 -67.5t14.5 -85q0 -49 -16 -89.5t-45.5 -69.5t-69.5 -45t-88 -16q-47 0 -85.5 17.5t-66.5 46.5t-43.5 67t-16.5 80h-68v-139q0 -8 2 -17t5.5 -17.5t8.5 -14t12 -6.5v-10h-124v10q7 1 12.5 6.5t9.5 14t6 17.5t2 17v293
q0 13 -7.5 31.5t-21.5 20.5v10h123v-10q-15 -2 -21.5 -20.5t-6.5 -31.5v-121h70q6 37 22 71.5t43 61t65 42t87 15.5zM438 28q36 1 62.5 16.5t43.5 40t25 55t8 62.5q0 37 -11 71.5t-31.5 61t-49.5 42.5t-66 16t-63.5 -15.5t-44 -40t-26 -56t-8.5 -63.5q0 -33 9.5 -67t29 -61
t50 -44.5t72.5 -17.5z" />
    <glyph glyph-name="uni044F" unicode="&#x44f;" horiz-adv-x="447" 
d="M364 65q0 -8 2 -17.5t6.5 -18t10 -14t13.5 -5.5v-10h-130v10q7 0 13 6t10.5 14t6.5 17.5t2 17.5v140q-11 -2 -25 -11.5t-29 -24t-29 -31.5t-26 -34q-10 -14 -17 -23t-12 -17q-10 -13 -20 -24.5t-22.5 -20.5t-29.5 -14t-40 -5h-37v10q12 0 24.5 7t24.5 17.5t22.5 23
t18.5 23.5l31 43q17 23 35 45.5t41 35.5q-36 1 -64 10t-47 24t-28.5 34.5t-9.5 41.5q0 21 9.5 40t30.5 33.5t53.5 23t78.5 8.5h165v-10q-8 0 -13.5 -5.5t-10 -13.5t-6.5 -17t-2 -16v-293zM124 321q0 -15 9.5 -30t26 -27t37.5 -19.5t45 -7.5h56v151h-65q-60 0 -84.5 -19
t-24.5 -48z" />
    <glyph glyph-name="uni0450" unicode="&#x450;" 
d="M100 202q4 -35 17 -66.5t34.5 -55.5t52.5 -38.5t72 -14.5q22 0 46.5 6.5t45.5 18.5t37.5 29.5t22.5 39.5h9v-75q-6 0 -13.5 -4t-17.5 -10q-20 -12 -54 -25.5t-90 -13.5q-45 0 -85.5 13t-71.5 40t-49.5 69t-18.5 100q0 37 12.5 75t38 68.5t65.5 49.5t96 19q50 0 87.5 -17
t62 -47t36.5 -71t12 -90h-347zM245 394q-35 0 -60.5 -14t-43.5 -36t-28 -50t-13 -56h285q-1 29 -10.5 57t-26.5 50t-43 35.5t-60 13.5zM324 454l-166 68l26 45l142 -107z" />
    <glyph glyph-name="uni0451" unicode="&#x451;" 
d="M98 204q3 -37 15.5 -69.5t34.5 -57t54 -38.5t74 -14q22 0 46.5 6.5t46 18.5t38 29.5t23.5 39.5h6v-71q-7 -1 -15 -5t-17 -9q-20 -12 -53.5 -25.5t-88.5 -13.5q-44 0 -84.5 13t-71 40t-49 68.5t-18.5 98.5q0 37 12.5 74.5t38 67.5t65 49t94.5 19q48 0 84.5 -17t61 -47
t37 -70.5t13.5 -86.5h-347zM245 396q-36 0 -62.5 -14t-44.5 -36.5t-28 -51.5t-12 -58h289q-1 30 -10 58.5t-26.5 51t-44 36.5t-61.5 14zM328 486q0 -14 -9 -23t-22 -9q-14 0 -23.5 9t-9.5 23t9.5 23t23.5 9q13 0 22 -9t9 -23zM213 486q0 -14 -9 -23t-23 -9t-23 9t-9 23t9 23
t23 9t23 -9t9 -23z" />
    <glyph glyph-name="uni0452" unicode="&#x452;" horiz-adv-x="475" 
d="M7 547h52v29q0 17 -4.5 32t-28.5 16l-1 10l100 31v-118h111v-34h-111v-135q16 18 47 35t78 17q54 0 89 -21.5t56 -51.5t29 -62.5t8 -53.5v-156q0 -35 -7.5 -66.5t-19.5 -58.5t-27 -50t-31 -42q-37 -44 -84 -77l-7 7q30 32 55 74q21 35 38.5 85.5t17.5 113.5v175
q0 36 -10 63.5t-27 46t-39.5 28.5t-47.5 10q-23 0 -44 -8.5t-37.5 -24.5t-26.5 -37.5t-10 -47.5v-211q0 -8 2 -17.5t6 -17.5t9.5 -14t12.5 -6v-10h-126v10q7 0 12.5 6t9.5 14t6 17.5t2 17.5v448h-52v34z" />
    <glyph glyph-name="uni0453" unicode="&#x453;" horiz-adv-x="366" 
d="M104 448l142 107l26 -45l-165 -68zM355 420v-104h-10q0 11 -4.5 23.5t-13.5 23t-21.5 17.5t-28.5 7h-133v-324q0 -8 2.5 -17t7 -17t10.5 -13.5t14 -5.5v-10h-133v10q8 0 14 5.5t10.5 13.5t6.5 17t2 17v295q0 7 -2 16t-6.5 17t-10.5 13.5t-14 5.5v10h310z" />
    <glyph glyph-name="uni0454" unicode="&#x454;" horiz-adv-x="428" 
d="M418 115v-78q-8 0 -15 -3.5t-16 -8.5q-17 -10 -43 -20.5t-68 -10.5q-51 0 -94.5 16.5t-75 46t-49 69t-17.5 85.5q0 43 15.5 82t44.5 69t71.5 48t96.5 18q37 0 60 -8.5t39 -16.5q9 -5 17.5 -8t17.5 -3v-76h-10q-5 19 -18 33.5t-30 24.5t-37 15t-39 5q-39 0 -68.5 -13.5
t-50 -35t-31.5 -49.5t-13 -58h138q23 0 38 7.5t16 24.5h10v-100h-10q-2 16 -16.5 25.5t-37.5 9.5h-137q3 -33 16.5 -65t35.5 -57t52.5 -40t67.5 -15h8q25 0 47 8t38 21t25.5 28.5t11.5 29.5h10z" />
    <glyph glyph-name="uni0455" unicode="&#x455;" horiz-adv-x="411" 
d="M370 114q0 -26 -13 -48t-35.5 -38.5t-52.5 -26t-65 -9.5q-43 0 -70 11.5t-46 23.5q-13 8 -24 13.5t-24 5.5v76h10q3 -14 17.5 -30.5t35 -30.5t45 -23.5t49.5 -9.5q18 0 37 4t34.5 13t26 22.5t10.5 32.5t-11 33t-28 24.5t-39 18.5t-44 15q-26 8 -52.5 18t-47.5 23.5
t-34 33t-13 46.5q0 23 8.5 44t28 36.5t50.5 25t75 9.5q39 0 60.5 -6.5t35.5 -13.5q9 -5 18 -7.5t20 -2.5v-70h-8q-18 33 -55 50t-76 17q-25 0 -43 -6.5t-29.5 -16t-17 -21.5t-5.5 -24q0 -17 9.5 -29t26 -21t37 -17t43.5 -15q28 -9 56 -19.5t50 -25.5t36 -35.5t14 -49.5z" />
    <glyph glyph-name="uni0456" unicode="&#x456;" horiz-adv-x="251" 
d="M59 0v10q8 0 14 6t10 14t6 17.5t2 17.5v277q0 17 -5 32.5t-29 16.5v9l100 32v-367q0 -8 2 -17.5t6 -17.5t10 -14t14 -6v-10h-130zM71 528q0 20 13.5 34t33.5 14t34 -14t14 -34t-14 -33t-34 -13t-33.5 13t-13.5 33z" />
    <glyph glyph-name="uni0457" unicode="&#x457;" horiz-adv-x="214" 
d="M61 0v6q7 0 13 6t10 15t6.5 19t2.5 17v277q0 17 -5.5 33t-28.5 18v5l96 32v-365q0 -7 2 -17t6 -19t10 -15t14 -6v-6h-126zM201 497q0 -14 -9 -23t-22 -9q-14 0 -23 9t-9 23t9 22.5t23 8.5q13 0 22 -8.5t9 -22.5zM86 497q0 -14 -9 -23t-23 -9t-23 9t-9 23t9 22.5t23 8.5
t23 -8.5t9 -22.5z" />
    <glyph glyph-name="uni0458" unicode="&#x458;" horiz-adv-x="209" 
d="M151 431v-410q0 -31 -7.5 -57t-19.5 -48t-27 -39.5t-31 -31.5q-38 -33 -85 -53l-4 9q30 19 54 49q20 25 37.5 63.5t17.5 92.5v335q0 17 -5 32.5t-29 16.5v9zM63 528q0 20 14 34t34 14t33.5 -14t13.5 -34t-13.5 -33t-33.5 -13t-34 13t-14 33z" />
    <glyph glyph-name="uni0459" unicode="&#x459;" horiz-adv-x="636" 
d="M405 238q46 0 80.5 -9t58 -25t35 -37.5t11.5 -46.5q0 -50 -47.5 -85t-143.5 -35h-138v10q7 0 13 5.5t10 13.5t6 18t2 18v293q-48 -78 -97 -157t-97 -157q-10 -16 -25 -30t-35 -14h-31v10q21 0 37.5 16.5t29.5 37.5l205 335q1 2 1 4q0 7 -11 7v10h121v-10q-7 0 -13 -5.5
t-10 -13t-6.5 -17t-2.5 -16.5v-120h47zM397 34q67 0 96 21t29 53q0 18 -8 35.5t-24 31t-40 22t-56 8.5h-36v-171h39z" />
    <glyph glyph-name="uni045A" unicode="&#x45a;" horiz-adv-x="680" 
d="M450 238q92 0 138 -34t46 -84t-47.5 -85t-142.5 -35h-134v10q7 0 13 5.5t10.5 14t6.5 18t2 17.5v137h-198v-137q0 -8 2 -17.5t6 -17.5t9.5 -14t12.5 -6v-10h-127v10q7 0 13 5.5t10 14t6 18t2 17.5v293q0 7 -2 16t-6 17t-10 13.5t-13 5.5v10h127v-10q-8 0 -13.5 -5.5
t-9.5 -13.5t-5.5 -17t-1.5 -16v-120h198v120q0 7 -2 16t-6 17t-10 13.5t-14 5.5v10h128v-10q-8 0 -13.5 -5.5t-9.5 -13.5t-5.5 -17t-1.5 -16v-120h42zM442 34q66 0 95 21t29 53q0 18 -8 35.5t-24 31t-40 22t-55 8.5h-31v-171h34z" />
    <glyph glyph-name="uni045B" unicode="&#x45b;" horiz-adv-x="538" 
d="M23 547h55v19q0 17 -4.5 32.5t-28.5 15.5l-1 10l100 31v-108h108v-34h-108v-141q9 9 19.5 18.5t25.5 18t36 13.5t50 5q43 0 76 -15.5t55.5 -40t34.5 -56t12 -63.5v-187q0 -8 2 -17.5t6 -17.5t9.5 -14t12.5 -6v-10h-125v10q7 0 12.5 6t9.5 14t6 17.5t2 17.5v192
q0 36 -10 61.5t-27 42t-39.5 24t-47.5 7.5q-26 0 -47.5 -10t-38 -27t-25.5 -39t-9 -46v-205q0 -8 2 -17.5t5.5 -17.5t9 -14t13.5 -6v-10h-126v10q7 0 13 6t9.5 14t5.5 17.5t2 17.5v448h-55v34z" />
    <glyph glyph-name="uni045C" unicode="&#x45c;" horiz-adv-x="449" 
d="M358 71q13 -18 26 -31q11 -11 23.5 -20.5t21.5 -9.5v-10h-54q-17 0 -32.5 7.5t-26.5 16.5q-14 11 -25 24l-127 167l-23 -22v-130q0 -7 2 -16t6 -17.5t10.5 -14t14.5 -5.5v-10h-130v10q7 0 13 5.5t10 13.5t6 17t2 17v294q0 7 -2 16.5t-6 17.5t-10 13.5t-13 5.5v10h130v-10
q-8 0 -14 -5.5t-10.5 -14t-6.5 -17.5t-2 -16v-118l162 152q3 3 6.5 7.5t3.5 6.5q0 5 -8 5v10h86v-10q-6 0 -12.5 -3t-12.5 -7q-7 -4 -14 -10l-142 -132zM324 555q0 -16 -8 -34.5t-22.5 -34t-35 -25.5t-45.5 -10q-24 0 -44.5 9.5t-35.5 24.5t-24 33.5t-9 36.5h6
q1 -6 6.5 -16.5t17.5 -21.5t32 -19t50 -8q31 0 50.5 8t31.5 19t17 21.5t7 16.5h6z" />
    <glyph glyph-name="uni045D" unicode="&#x45d;" horiz-adv-x="529" 
d="M446 65q0 -8 2.5 -17.5t6.5 -17.5t10.5 -14t12.5 -6v-10h-128v10q7 0 13 5.5t10 14t6 18t2 17.5v240l-238 -233v-7q0 -8 2 -17.5t6 -17.5t9.5 -14t12.5 -6v-10h-127v10q7 0 13 5.5t10 14t6 18t2 17.5v293q0 7 -2 16t-6 17t-10 13.5t-13 5.5v10h127v-10q-8 0 -13.5 -5.5
t-9 -13.5t-5.5 -17t-2 -16v-239l238 233v6q0 7 -2 16t-6 17t-10 13.5t-13 5.5v10h128v-10q-8 0 -14.5 -5.5t-10 -13.5t-5.5 -17t-2 -16v-293zM346 442l-166 68l26 45l142 -107z" />
    <glyph glyph-name="uni045E" unicode="&#x45e;" horiz-adv-x="474" 
d="M205 -143q-14 -42 -35.5 -57t-44.5 -15q-15 0 -27 5t-21 11t-13.5 11l-4.5 5l33 81q4 -16 10 -27q5 -10 14 -18t22 -8q24 0 38 35l48 123l-160 364q-5 15 -16 29t-31 14v10h133v-10q-5 0 -11.5 -7t-6.5 -18q0 -8 4 -16l123 -283l118 289q3 7 3 13q0 10 -6.5 16t-13.5 6
v10h97v-10q-16 0 -27.5 -13.5t-18.5 -30.5zM361 555q0 -16 -8 -34.5t-23 -34t-35.5 -25.5t-45.5 -10q-23 0 -43.5 9.5t-35.5 24.5t-24 33.5t-9 36.5h6q1 -6 6.5 -16.5t17.5 -21.5t31.5 -19t49.5 -8q31 0 51 8t32 19t17 21.5t7 16.5h6z" />
    <glyph glyph-name="uni045F" unicode="&#x45f;" horiz-adv-x="515" 
d="M432 62q0 -7 2 -16t6 -17t10 -13.5t13 -5.5v-10h-139q-16 0 -28 -9.5t-20.5 -23t-12.5 -29.5t-4 -28h-10q0 12 -4 28t-12 29.5t-20 23t-28 9.5h-139v10q7 0 12.5 5.5t9.5 13.5t6 17t2 16v293q0 7 -2 17t-6 18t-9.5 14t-12.5 6v10h127v-10q-8 0 -14 -5.5t-10 -14t-5.5 -18
t-1.5 -17.5v-322h224v322q0 7 -1.5 17t-5.5 18t-9.5 14t-13.5 6v10h127v-10q-8 0 -14 -5.5t-9.5 -14t-5.5 -18t-2 -17.5v-293z" />
    <glyph glyph-name="uni0472" unicode="&#x472;" horiz-adv-x="761" 
d="M382 670q78 0 140 -27.5t105.5 -74t67 -108t23.5 -128.5q0 -75 -27.5 -138t-75.5 -108t-111.5 -70.5t-135.5 -25.5q-77 0 -138.5 28t-104 74t-65.5 106t-23 125q0 64 23 126.5t67.5 111.5t108.5 79t146 30zM642 383q-9 47 -32.5 92.5t-58.5 81t-81 57t-101 21.5
q-62 0 -111 -27.5t-83.5 -70.5t-52.5 -96t-18 -104q0 -13 1 -25.5t3 -24.5q17 36 36.5 57.5t39.5 33.5t39 15.5t34 3.5q42 0 76 -15t66 -33q29 -16 57 -29t60 -13q17 0 35.5 3.5t36 12t31.5 23t23 37.5zM381 25q67 3 117.5 30.5t84.5 70t50.5 93.5t16.5 101q0 21 -3 42
q-20 -54 -57 -83t-89 -29q-42 0 -76.5 15.5t-66.5 33.5q-28 16 -55 28.5t-57 12.5q-17 0 -36.5 -3.5t-38.5 -11.5t-34.5 -22t-24.5 -35q12 -45 36.5 -89t60 -78t79 -55t93.5 -21z" />
    <glyph glyph-name="uni0473" unicode="&#x473;" horiz-adv-x="523" 
d="M255 -7q-50 0 -90 16.5t-68.5 45t-44 67.5t-15.5 85q0 49 17 89.5t47 69.5t71 45t89 16t88 -15.5t69 -43.5t45 -66.5t16 -84.5q0 -43 -14.5 -83.5t-43 -71.5t-70 -50t-96.5 -19zM249 394q-36 -2 -63.5 -17.5t-46 -40t-28 -55.5t-9.5 -63q0 -10 0.5 -19.5t2.5 -18.5
q19 43 43 61t49 18q16 0 36 -8t40.5 -17t40 -17t35.5 -8q20 0 35.5 13t26.5 30q-6 27 -19.5 52.5t-33.5 45.5t-47.5 32t-61.5 12zM416 205v15.5t-2 15.5q-8 -23 -15 -38t-16 -23.5t-19.5 -11.5t-23.5 -3q-17 0 -39 8t-44.5 17t-44.5 17t-38 8q-17 0 -36 -16t-30 -30
q7 -28 21 -53t34.5 -44t46 -30t55.5 -11q37 0 65.5 16t47.5 41.5t28.5 57.5t9.5 64z" />
    <glyph glyph-name="uni0490" unicode="&#x490;" horiz-adv-x="444" 
d="M44 10h5q8 0 14 5.5t10.5 13.5t6.5 17t2 17v535q0 7 -2 16t-6.5 17t-10.5 13.5t-14 5.5h-5v10h311q16 0 28.5 6.5t20 16.5t11.5 22t4 24h10v-104h-279v-562q0 -7 2 -16t6 -17.5t9.5 -14t12.5 -5.5h8v-10h-144v10z" />
    <glyph glyph-name="uni0491" unicode="&#x491;" horiz-adv-x="366" 
d="M143 63q0 -8 2.5 -17t7 -17t10.5 -13.5t14 -5.5v-10h-133v10q8 0 14 5.5t10.5 13.5t6.5 17t2 17v295q0 7 -2 16t-6.5 17t-10.5 13.5t-14 5.5v10h237q32 0 47.5 17.5t15.5 40.5h10v-91h-211v-324z" />
    <glyph glyph-name="uni0492" unicode="&#x492;" horiz-adv-x="460" 
d="M46 660h384v-101h-10q0 23 -15.5 44.5t-48.5 21.5h-205v-253h136v-34h-136v-275q0 -8 2 -17t6.5 -17t10.5 -13.5t14 -5.5h4v-10h-142v10h4q8 0 14 5.5t10.5 13.5t6.5 17t2 17v275h-54v34h54v226q0 7 -2 16t-6.5 17t-10.5 13.5t-14 5.5h-4v10z" />
    <glyph glyph-name="uni0493" unicode="&#x493;" horiz-adv-x="366" 
d="M23 237h55v121q0 7 -2 16t-6.5 17t-10.5 13.5t-14 5.5v10h310v-91h-10q0 23 -15.5 40.5t-47.5 17.5h-138v-150h104v-34h-104v-140q0 -8 2.5 -17t7 -17t10.5 -13.5t14 -5.5v-10h-133v10q8 0 14 5.5t10.5 13.5t6.5 17t2 17v140h-55v34z" />
    <glyph glyph-name="uni0494" unicode="&#x494;" horiz-adv-x="477" 
d="M267 432q50 0 83.5 -16.5t54 -43t29 -59.5t8.5 -66v-90q0 -32 -7.5 -58.5t-19.5 -49t-27.5 -41t-31.5 -32.5q-19 -17 -40.5 -30.5t-44.5 -24.5l-5 9q29 20 54 53q20 27 37.5 67.5t17.5 94.5v137q0 24 -8.5 44.5t-23.5 36t-36 24.5t-46 9q-23 0 -43 -9t-35 -24
t-23.5 -34.5t-8.5 -41.5v-224q0 -8 2 -17t6.5 -17t10.5 -13.5t14 -5.5h5v-10h-144v10h5q8 0 14 5.5t10.5 13.5t6.5 17t2 17v535q0 7 -2 16t-6.5 17t-10.5 13.5t-14 5.5h-5v10h385v-107h-10q0 12 -4 24.5t-11.5 23t-20 17.5t-28.5 7h-205v-246q16 19 42.5 36t73.5 17z" />
    <glyph glyph-name="uni0495" unicode="&#x495;" horiz-adv-x="442" 
d="M251 304q54 0 84.5 -21.5t45 -51.5t18 -62.5t3.5 -53.5v-29q0 -35 -7.5 -66.5t-19.5 -58.5t-27 -50t-31 -42q-39 -45 -84 -77l-7 7q15 16 28.5 34.5t26.5 39.5q21 35 38.5 85.5t17.5 113.5v48q0 72 -21 110t-72 38q-21 0 -39 -9t-31.5 -23t-21.5 -32.5t-8 -37.5v-103
q0 -8 2.5 -17t7 -17t10.5 -13.5t14 -5.5v-10h-133v10q8 0 14 5.5t10.5 13.5t6.5 17t2 17v295q0 7 -2 16t-6.5 17t-10.5 13.5t-14 5.5v10h310v-104h-10q0 11 -4.5 23.5t-13.5 23t-21.5 17.5t-28.5 7h-133v-133q8 9 17 17.5t21 16t29 12t40 4.5z" />
    <glyph glyph-name="uni0496" unicode="&#x496;" horiz-adv-x="857" 
d="M345 10h5q7 0 13 5.5t10 14t6 18t2 17.5v250l-35 40l-174 -290q-10 -17 -21 -29t-25 -20t-33.5 -12t-46.5 -4h-20v10q11 0 25 9.5t25 20.5q13 13 27 31l199 332l-189 211q-13 14 -26.5 25t-25.5 11v10h97v-10q-12 -3 -12 -14q0 -7 10 -19l225 -251v232q0 7 -2 16t-6 17
t-10 13.5t-13 5.5h-5v10h141v-10h-5q-7 0 -13 -5.5t-10 -13.5t-6.5 -17t-2.5 -16v-232l225 251q10 12 10 20q0 10 -13 13v10h97v-10q-11 0 -23.5 -10.5t-24.5 -23.5l-193 -213l184 -310q10 -17 22 -30q11 -11 24.5 -20.5t30.5 -9.5h45v-118h-10q0 11 -4 26t-12 28t-22 22
t-33 9q-26 0 -50 15.5t-44 49.5l-174 288l-36 -36v-252q0 -8 2.5 -17.5t6.5 -17.5t10 -14t14 -6h5v-10h-141v10z" />
    <glyph glyph-name="uni0497" unicode="&#x497;" horiz-adv-x="707" 
d="M672 33v-117h-10q0 11 -5 25.5t-15 27.5t-23.5 22t-29.5 9t-29 7.5t-24 16.5q-12 11 -23 24q-28 40 -57.5 82t-57.5 83l-9.5 -9.5l-9.5 -9.5v-129q0 -8 2 -17.5t6.5 -17.5t10.5 -14t14 -6v-10h-132v10q7 0 13 5.5t10.5 14t6.5 18t2 17.5v130l-18 18q-28 -40 -57.5 -82.5
t-58.5 -82.5q-2 -2 -8 -10t-15.5 -16.5t-23 -15t-29.5 -6.5h-47v10q7 0 17.5 9.5t20.5 20.5q11 13 23 31l135 187l-129 132q-3 0 -3 2q-5 5 -14.5 11.5t-16.5 6.5v10h76v-10q-5 0 -5 -5q0 -7 9 -16l144 -149v119q0 7 -2 16t-6.5 17t-10.5 13.5t-13 5.5v10h132v-10
q-15 0 -24 -18.5t-9 -33.5v-119l144 149q4 4 7 8.5t3 7.5q0 5 -6 5v10h76v-10q-5 0 -10.5 -3t-10.5 -7q-6 -4 -13 -10l-73 -76l-55 -56q27 -39 51.5 -74t50.5 -71q4 -5 7.5 -10t7.5 -9q13 -18 24 -31q10 -11 20 -20.5t17 -9.5h53z" />
    </font>
</defs>
</svg>
