<?xml version="1.0" standalone="no"?>
<!DOCTYPE svg PUBLIC "-//W3C//DTD SVG 1.1//EN" "http://www.w3.org/Graphics/SVG/1.1/DTD/svg11.dtd" >
<svg xmlns="http://www.w3.org/2000/svg" xmlns:xlink="http://www.w3.org/1999/xlink" version="1.1">
<metadata>
Created by FontForge 20230101 at Wed Oct 28 13:53:46 2020
 By Glenn Lewis
Copyright 2020 The Josefin Slab Project Authors (https://github.com/googlefonts/josefinslab/), with Reserved Font Name Josefin.
</metadata>
<defs>
<font id="JosefinSlab-Light" horiz-adv-x="535" >
  <font-face 
    font-family="Josefin Slab Light"
    font-weight="300"
    font-stretch="normal"
    units-per-em="1000"
    panose-1="2 0 0 0 0 0 0 0 0 0"
    ascent="750"
    descent="-250"
    x-height="375"
    cap-height="700"
    bbox="-22 -250 1176 931"
    underline-thickness="50"
    underline-position="-100"
    unicode-range="U+000D-2215"
  />
<missing-glyph horiz-adv-x="300" 
 />
    <glyph glyph-name=".notdef" horiz-adv-x="300" 
 />
    <glyph glyph-name=".null" horiz-adv-x="0" 
 />
    <glyph glyph-name="nonmarkingreturn" unicode="&#xd;" horiz-adv-x="300" 
 />
    <glyph glyph-name="space" unicode=" " horiz-adv-x="300" 
 />
    <glyph glyph-name="exclam" unicode="!" horiz-adv-x="201" 
d="M126 55q0 12 -8 19.5t-18 7.5t-18 -7.5t-8 -19.5q0 -11 8 -18.5t18 -7.5t18 7.5t8 18.5zM114 166v584h-28v-584h28z" />
    <glyph glyph-name="quotedbl" unicode="&#x22;" horiz-adv-x="302" 
d="M223 472q1 63 2 124t2 124h-31v-248h27zM90 472q1 63 2 124t2 124h-31v-248h27z" />
    <glyph glyph-name="numbersign" unicode="#" horiz-adv-x="571" 
d="M190 400h156l-18 -155h-156zM143 0l25 217h156l-25 -217h28l25 217h129l3 28h-128l18 155h130l3 27h-129l26 216h-28l-26 -216h-156l26 216h-28l-26 -216h-112l-3 -27h111l-18 -155h-113l-3 -28h112l-25 -217h28z" />
    <glyph glyph-name="dollar" unicode="$" horiz-adv-x="567" 
d="M252 -68v60q42 2 78.5 16.5t63.5 39.5t43 60t15 78q-1 53 -19 86.5t-46 54.5t-64 33.5t-71 23.5v292q40 -2 68.5 -11t46.5 -22v-97h27v111q-32 27 -71 36t-71 11v60h-27v-61q-44 -2 -76 -19.5t-51 -43.5q-20 -27 -28.5 -59t-6.5 -64q1 -39 15.5 -64.5t36.5 -42.5
q23 -17 51 -28t59 -20v-342q-54 2 -92.5 19.5t-64.5 43.5v90h-27v-103q10 -11 26 -24t39 -24t52.5 -19t66.5 -10v-61h27zM252 353q32 -9 63 -20t55 -29q24 -19 39 -48t15 -73q0 -37 -15.5 -67.5t-40.5 -50.5q-23 -20 -53 -32t-63 -13v333zM91 527q0 28 8.5 54.5t26.5 47.5
q17 20 41.5 32t57.5 14v-283q-26 8 -50 17.5t-42 24.5q-19 15 -30.5 37.5t-11.5 55.5z" />
    <glyph glyph-name="percent" unicode="%" horiz-adv-x="726" 
d="M459 59q-10 12 -15.5 27t-4.5 32t8.5 31.5t20.5 24.5q12 11 27.5 16t32.5 4t32 -8.5t25 -20.5q10 -12 15.5 -28t3.5 -33q-1 -16 -8.5 -30.5t-19.5 -23.5q-12 -11 -27 -16.5t-32 -4.5q-18 1 -33 9t-25 21zM602 33q15 15 24.5 35.5t9.5 44.5q0 22 -9.5 43t-24.5 36
q-16 15 -36.5 23.5t-43.5 8.5q-24 0 -44.5 -8.5t-35.5 -23.5q-16 -15 -25 -36t-9 -43q0 -24 9 -44.5t25 -35.5q15 -15 35.5 -24t44.5 -9q23 0 43.5 9t36.5 24zM155 336q-10 11 -15.5 26.5t-3.5 32.5q1 16 8.5 30.5t19.5 25.5q12 10 28 15.5t33 3.5q17 -1 31.5 -8.5
t24.5 -19.5q10 -13 15.5 -29t3.5 -33q-1 -16 -8.5 -30t-19.5 -24t-27.5 -15.5t-32.5 -4.5t-32 9t-25 21zM298 309q15 15 24.5 35.5t9.5 44.5q0 23 -9.5 43.5t-24.5 35.5q-16 15 -36.5 24t-43.5 9q-24 0 -44.5 -9t-35.5 -24q-16 -15 -25 -35.5t-9 -43.5q0 -24 9 -44.5
t25 -35.5q15 -15 35.5 -24t44.5 -9q23 0 43.5 9t36.5 24zM232 0q75 126 149 250t149 250h-31q-75 -126 -149 -250t-149 -250h31z" />
    <glyph glyph-name="ampersand" unicode="&#x26;" horiz-adv-x="700" 
d="M301 -7q49 0 89.5 21t67.5 56l55 -89l22 15l-62 100q11 20 16 41t7 42t1.5 41.5t-0.5 41.5v85h104v28h-132v-163q0 -21 -5 -41t-14 -37l-229 372q-15 25 -22 52t-3 52q3 24 18 47.5t41 41.5q22 16 45.5 20.5t47.5 0.5q25 -4 49 -15t46 -23l11 24q-20 13 -46.5 24.5
t-56.5 15.5t-59.5 -2t-55.5 -24q-31 -20 -47.5 -47t-20.5 -57t4 -60.5t25 -59.5l71 -117q-35 -6 -64.5 -23t-50.5 -42q-22 -26 -34.5 -58.5t-12.5 -68.5q0 -41 15 -76t42 -61q26 -27 61.5 -42t76.5 -15zM301 20q-35 0 -65.5 13t-52.5 36q-23 22 -36 52.5t-13 65.5
q0 33 11 61.5t31 50.5q20 23 48 37t61 17l157 -257q-22 -34 -59 -55t-82 -21z" />
    <glyph glyph-name="quotesingle" unicode="'" horiz-adv-x="150" 
d="M89 472q1 63 2 124t2 124h-31v-248h27z" />
    <glyph glyph-name="parenleft" unicode="(" horiz-adv-x="400" 
d="M323 -140q-29 33 -56.5 78t-49.5 100t-35 119t-13 135t13 135t35 119t49.5 100t56.5 78q-5 6 -9 11.5t-8 11.5q-32 -33 -61.5 -80.5t-52.5 -105.5t-37 -126t-14 -143t14 -143t37 -126t52.5 -105.5t61.5 -80.5q4 6 8 11.5t9 11.5z" />
    <glyph glyph-name="parenright" unicode=")" horiz-adv-x="400" 
d="M235 22q23 58 37 126t14 143t-14 143t-37 126t-53 105.5t-61 80.5q-5 -6 -9 -11.5t-9 -11.5q29 -33 56.5 -78t49.5 -100t35 -119t13 -135t-13 -135t-35 -119t-49.5 -100t-56.5 -78q5 -6 9 -11.5t9 -11.5q31 33 61 80.5t53 105.5z" />
    <glyph glyph-name="asterisk" unicode="*" horiz-adv-x="335" 
d="M179 434q1 29 1 58t1 58q33 -19 50.5 -30t50.5 -30l16 27l-102 58q26 15 51 30t52 30l-14 24q-26 -15 -51.5 -29.5t-51.5 -29.5q0 31 0.5 60.5t0.5 59.5h-31v-120q-26 16 -51.5 30t-50.5 30l-14 -24q33 -19 51 -30t50 -30q-33 -18 -50.5 -28.5t-50.5 -28.5l16 -27
q25 15 50 29l50 28v-115h27z" />
    <glyph glyph-name="plus" unicode="+" horiz-adv-x="543" 
d="M280 51v167h166v27h-166v166h-28v-166h-166v-27h166v-167h28z" />
    <glyph glyph-name="comma" unicode="," horiz-adv-x="200" 
d="M48 -120q22 52 43 103t43 103h-35q-20 -52 -38.5 -103t-38.5 -103h26z" />
    <glyph glyph-name="hyphen" unicode="-" horiz-adv-x="300" 
d="M237 176v28h-184v-28h184z" />
    <glyph glyph-name="hyphen" unicode="&#xad;" horiz-adv-x="300" 
d="M237 176v28h-184v-28h184z" />
    <glyph glyph-name="hyphen" unicode="&#xad;" horiz-adv-x="300" 
d="M237 176v28h-184v-28h184z" />
    <glyph glyph-name="period" unicode="." horiz-adv-x="163" 
d="M112 26q0 12 -8 19.5t-18 7.5q-11 0 -19 -7.5t-8 -19.5q0 -11 8 -18.5t19 -7.5q10 0 18 7.5t8 18.5z" />
    <glyph glyph-name="slash" unicode="/" horiz-adv-x="334" 
d="M45 -19q70 190 139 377.5t139 377.5h-28q-70 -190 -139 -377.5t-139 -377.5h28z" />
    <glyph glyph-name="zero" unicode="0" horiz-adv-x="616" 
d="M491 88q37 44 59.5 104.5t22.5 131.5q0 53 -15 112t-47 109q-32 48 -82.5 80.5t-120.5 32.5q-71 0 -122.5 -31.5t-84.5 -79.5q-33 -50 -49 -108t-16 -112q0 -71 21 -132t57 -105q36 -45 84.5 -71t102.5 -26q55 0 104 25t86 70zM137 106q-33 40 -52.5 96.5t-19.5 125.5
q0 65 18 120.5t51 96.5q31 41 75.5 63t97.5 22t97 -23.5t75 -63.5q32 -42 49 -98t17 -122q0 -68 -20.5 -124.5t-54.5 -95.5q-34 -40 -77.5 -61.5t-89.5 -21.5t-89.5 22.5t-76.5 63.5z" />
    <glyph glyph-name="one" unicode="1" horiz-adv-x="257" 
d="M246 0v27h-80v623h-132v-28h104v-595h-80v-27h188z" />
    <glyph glyph-name="two" unicode="2" horiz-adv-x="500" 
d="M459 0v137h-28v-109h-309q50 52 101.5 105t94.5 107q42 54 69 109.5t27 111.5q0 42 -13 78t-36 63q-25 26 -58.5 41t-73.5 15q-45 0 -79.5 -15t-57.5 -40q-23 -27 -35 -62t-12 -75q0 -43 13.5 -74t36.5 -55l18 17q-20 22 -30 50t-10 62q0 24 6.5 52.5t24.5 54.5
q18 24 48 40.5t77 16.5q24 0 50.5 -8.5t49.5 -29.5t38 -56t15 -87q0 -47 -28 -100t-74 -109q-47 -58 -107 -118t-124 -122h406z" />
    <glyph glyph-name="three" unicode="3" horiz-adv-x="515" 
d="M383 53q29 27 45 64.5t16 80.5t-16.5 80t-44.5 64q-29 27 -66.5 42.5t-80.5 16.5l188 249h-321v-92h27v64h240l-197 -268q14 10 30 16t32 6q37 0 70 -14t58 -38q24 -25 38.5 -57t14.5 -69q0 -36 -14.5 -68.5t-38.5 -56.5q-25 -25 -58 -39t-70 -14q-40 0 -73 16.5
t-56 44.5l-20 -22q29 -30 67.5 -48.5t83.5 -18.5q43 0 80.5 16t65.5 45z" />
    <glyph glyph-name="four" unicode="4" horiz-adv-x="510" 
d="M486 0v27h-83v156h97v28h-97v447l-366 -475h338v-156h-77v-27h188zM375 576v-365h-280z" />
    <glyph glyph-name="five" unicode="5" horiz-adv-x="543" 
d="M401 53q28 27 44.5 64.5t16.5 80.5q0 42 -16.5 79t-44.5 65q-28 27 -66 43t-80 16q-23 0 -43.5 -5t-40.5 -14v240h232v-64h27v92h-287v-319q17 19 46 30.5t64 11.5q38 0 70.5 -13.5t57.5 -37.5q24 -24 38.5 -55.5t14.5 -68.5q0 -36 -14.5 -68.5t-38.5 -56.5
q-25 -25 -57.5 -39t-70.5 -14q-36 0 -66.5 12.5t-52.5 35.5l-21 -19q28 -27 64 -42t78 -15t80 16t66 45z" />
    <glyph glyph-name="six" unicode="6" horiz-adv-x="520" 
d="M130 72q-25 23 -39 55t-14 69t14 69t39 57q23 23 56 37t70 14q36 0 69 -14t57 -37q25 -25 39 -57t14 -69t-14 -69t-39 -55q-24 -25 -57 -38.5t-69 -13.5q-37 0 -70 13.5t-56 38.5zM403 52q28 27 44 64.5t16 79.5q0 43 -16 80t-44 65t-66 44t-81 16q-41 0 -76 -17.5
t-58 -47.5q13 26 35.5 57t57.5 67q33 35 79 73t106 77q-4 6 -9 12l-10 12q-56 -41 -115 -87.5t-107 -100.5t-78.5 -116.5t-30.5 -135.5q0 -42 16.5 -79t44.5 -64t65.5 -43t79.5 -16q43 0 81 16t66 44z" />
    <glyph glyph-name="seven" unicode="7" horiz-adv-x="469" 
d="M125 0l292 650h-403v-92h27v64h332l-281 -622h33z" />
    <glyph glyph-name="eight" unicode="8" horiz-adv-x="510" 
d="M164 443q-14 15 -21 35t-5 42q2 23 13 43.5t28 35.5q18 14 39.5 21.5t46.5 5.5q24 -2 43.5 -14t34.5 -30q13 -17 19.5 -39t3.5 -46q-1 -22 -11.5 -39.5t-26.5 -29.5q-18 -13 -39 -18.5t-45 -4.5q-24 2 -45 12t-35 26zM129 73q-24 24 -37.5 56.5t-13.5 68.5q0 37 14 68.5
t37 55.5q24 24 56 37.5t69 13.5t70 -13.5t57 -37.5q25 -25 39 -56t14 -68q0 -36 -14.5 -68.5t-38.5 -56.5q-25 -25 -57.5 -39.5t-70.5 -14.5q-37 0 -69 14.5t-55 39.5zM401 53q28 27 44.5 64.5t16.5 80.5q0 36 -12 67.5t-32 58.5q-20 23 -45.5 40t-55.5 25q37 16 59.5 48
t22.5 74q0 30 -11.5 57t-31.5 47t-46.5 31.5t-57.5 11.5q-30 0 -56.5 -11.5t-46.5 -30.5q-20 -20 -32 -46t-12 -56q0 -43 24 -76t62 -49q-30 -8 -55 -26t-44 -41q-20 -26 -31 -57.5t-11 -66.5q0 -43 16 -80.5t44 -64.5q28 -29 65 -45t80 -16q42 0 80 16t66 45z" />
    <glyph glyph-name="nine" unicode="9" horiz-adv-x="525" 
d="M130 304q-25 24 -39 56.5t-14 68.5q0 37 14 69t39 57q24 23 57 37t70 14t69.5 -14t57.5 -37q23 -25 37 -57t14 -69q0 -36 -14 -68.5t-37 -56.5q-25 -24 -57.5 -38t-69.5 -14t-70 14t-57 38zM352 179q49 54 80 116t31 134q0 43 -16.5 80t-43.5 65q-28 27 -66 43.5
t-81 16.5q-42 0 -80 -16.5t-66 -43.5q-28 -28 -44.5 -65t-16.5 -80q0 -42 16.5 -79t44.5 -65t66 -44t80 -16t76.5 17.5t58.5 47.5q-12 -24 -33 -54t-51 -63q-36 -37 -84 -76.5t-111 -81.5q5 -5 10 -11.5t9 -11.5q56 40 114.5 86.5t106.5 100.5z" />
    <glyph glyph-name="colon" unicode=":" horiz-adv-x="175" 
d="M111 276q0 12 -8 19.5t-18 7.5t-18 -7.5t-8 -19.5q0 -11 8 -18.5t18 -7.5t18 7.5t8 18.5zM111 26q0 12 -8 19.5t-18 7.5t-18 -7.5t-8 -19.5q0 -11 8 -18.5t18 -7.5t18 7.5t8 18.5z" />
    <glyph glyph-name="semicolon" unicode=";" horiz-adv-x="201" 
d="M136 276q0 12 -8 19.5t-18 7.5q-11 0 -19 -7.5t-8 -19.5q0 -11 8 -18.5t19 -7.5q10 0 18 7.5t8 18.5zM34 -120q22 52 43 103t43 103h-36q-20 -52 -38.5 -103t-38.5 -103h27z" />
    <glyph glyph-name="less" unicode="&#x3c;" horiz-adv-x="680" 
d="M553 21q-94 55 -188.5 108.5t-188.5 108.5q94 55 188.5 108.5t188.5 108.5v36q-110 -63 -219 -126.5t-219 -126.5q110 -63 219 -126.5t219 -126.5v36z" />
    <glyph glyph-name="equal" unicode="=" horiz-adv-x="708" 
d="M606 142v28h-506v-28h506zM606 336v28h-506v-28h506z" />
    <glyph glyph-name="greater" unicode="&#x3e;" horiz-adv-x="650" 
d="M553 238q-110 63 -219 126.5t-219 126.5v-36q95 -55 189 -108.5t189 -108.5q-95 -55 -189 -108.5t-189 -108.5v-36q110 63 219 126.5t219 126.5z" />
    <glyph glyph-name="question" unicode="?" horiz-adv-x="452" 
d="M227 164v78q0 32 7.5 51t19.5 31q13 12 29.5 22t35.5 23q45 32 71.5 73t26.5 95q0 40 -15 75.5t-41 61.5q-27 27 -63 42.5t-77 15.5q-36 0 -66.5 -11t-54.5 -30t-41 -43.5t-26 -52.5q6 -2 12.5 -4t12.5 -4q9 26 23.5 47t35.5 36q21 16 47 25t57 9q35 0 66 -12t54 -35
q22 -22 35 -53t13 -67q0 -37 -15 -69.5t-47 -59.5q-23 -20 -46 -34.5t-41 -28.5q-19 -15 -30 -34t-11 -50v-97h28zM239 46q0 12 -8 19.5t-18 7.5t-18 -7.5t-8 -19.5q0 -11 8 -18.5t18 -7.5t18 7.5t8 18.5z" />
    <glyph glyph-name="at" unicode="@" horiz-adv-x="990" 
d="M364 87q-20 24 -29.5 54.5t-5.5 63.5q3 33 18.5 60.5t40.5 47.5q23 20 53 30t63 8q34 -4 62.5 -19.5t48.5 -41.5t28.5 -57t4.5 -64q-3 -32 -18 -59.5t-39 -46.5q-24 -20 -54 -30t-63 -7q-34 3 -62.5 19t-47.5 42zM723 -136q-4 5 -8.5 10t-8.5 11q-47 -32 -101.5 -50.5
t-115.5 -18.5q-77 0 -145 29t-118 79q-51 51 -80.5 119t-29.5 145t29.5 145.5t80.5 119.5q50 51 118 80t145 29t145 -29t119 -80q50 -51 79.5 -119.5t29.5 -145.5q-1 -46 -10.5 -78t-26.5 -51q-14 -16 -33.5 -24t-43.5 -8h-63v348h-22q-2 -26 -3 -51t-1 -50q-7 16 -18 31.5
t-27 28.5q-24 23 -56 36t-69 13q-41 0 -76.5 -15.5t-62.5 -41.5q-26 -27 -41 -62.5t-15 -75.5q0 -41 15 -76t41 -62q27 -26 62.5 -41.5t76.5 -15.5q31 0 58 9t50 23q22 15 38 34.5t25 41.5l-1 -54v-47h84q25 0 50.5 7.5t45.5 28.5q21 21 35 57.5t16 94.5q0 83 -31.5 156.5
t-85.5 128.5q-55 54 -128 85.5t-156 31.5t-156 -31.5t-127 -85.5q-55 -55 -86.5 -128t-31.5 -156t31.5 -156t86.5 -128q54 -54 127 -85.5t156 -31.5q69 0 126.5 20t107.5 56z" />
    <glyph glyph-name="A" unicode="A" horiz-adv-x="820" 
d="M219 0v27h-79q31 73 59.5 140t59.5 141h302q29 -71 59 -141t59 -140h-78v-27h184v27h-77q-74 177 -148.5 352t-149.5 353q-75 -178 -150 -353t-149 -352h-76v-27h184zM401 643q2 8 4.5 14.5t4.5 11.5l9 -26l130 -308h-278q32 77 65.5 153t64.5 155z" />
    <glyph glyph-name="B" unicode="B" horiz-adv-x="521" 
d="M271 0q42 0 80.5 11.5t68.5 34.5q30 22 48 55.5t18 78.5q0 36 -12.5 65t-32.5 51q-22 22 -49.5 36t-57.5 20q64 17 95 64t31 109q0 46 -15 79.5t-42 54.5q-28 21 -66 31t-84 10h-218v-27h66v-646h-66v-27h236zM129 338h122q40 0 77 -9.5t67 -28.5q28 -19 45.5 -49
t17.5 -71q0 -38 -15 -66.5t-41 -47.5q-25 -20 -60 -29.5t-73 -9.5h-140v311zM129 673h135q37 0 67.5 -8.5t53.5 -25.5q22 -18 34.5 -46t12.5 -68q0 -72 -44 -116t-120 -44h-139v308z" />
    <glyph glyph-name="C" unicode="C" horiz-adv-x="610" 
d="M574 42l-16 23q-38 -22 -80.5 -34t-87.5 -12q-68 0 -127.5 26t-103.5 71t-70 104.5t-26 127.5t26 128.5t71 106.5q44 45 104 71.5t128 26.5q41 0 80.5 -10.5t75.5 -30.5v-94h27v112q-41 24 -86.5 37t-96.5 13q-74 0 -139 -28.5t-113 -76.5q-49 -49 -77 -114.5t-28 -139.5
t28 -139t77 -113q48 -49 113 -77t139 -28q51 0 96.5 13.5t85.5 36.5z" />
    <glyph glyph-name="D" unicode="D" horiz-adv-x="632" 
d="M211 0q106 0 179.5 32.5t119.5 83.5t66.5 113t20.5 121q0 80 -28 145t-76 111q-48 45 -112 69.5t-136 24.5h-210v-27h68v-646h-68v-27h176zM131 673h117q65 0 123.5 -22.5t103.5 -64.5q44 -42 69.5 -102t25.5 -134q0 -58 -20 -115.5t-62 -102.5q-43 -47 -108.5 -76
t-156.5 -29h-92v646z" />
    <glyph glyph-name="E" unicode="E" horiz-adv-x="571" 
d="M536 0v154h-27v-127h-369v312h343v27h-343v307h355v-127h27v154h-487v-27h77v-646h-77v-27h501z" />
    <glyph glyph-name="F" unicode="F" horiz-adv-x="557" 
d="M223 0v27h-83v312h343v27h-343v307h355v-127h27v154h-487v-27h77v-646h-77v-27h188z" />
    <glyph glyph-name="G" unicode="G" horiz-adv-x="609" 
d="M574 40v258h-186v-27h158v-214q-35 -20 -74.5 -30t-81.5 -10q-68 0 -127.5 26t-103.5 71t-70 104.5t-26 127.5t26 128.5t71 106.5q44 45 104 71.5t128 26.5q46 0 88.5 -12t78.5 -34l16 23q-41 24 -86.5 37t-96.5 13q-74 0 -139 -28.5t-113 -76.5q-49 -49 -77 -114.5
t-28 -139.5t28 -139t77 -113q48 -49 113 -77t139 -28q51 0 96.5 13.5t85.5 36.5z" />
    <glyph glyph-name="H" unicode="H" horiz-adv-x="727" 
d="M223 0v27h-83v312h447v-312h-82v-27h187v27h-77v646h77v27h-187v-27h82v-307h-447v307h83v27h-188v-27h77v-646h-77v-27h188z" />
    <glyph glyph-name="I" unicode="I" horiz-adv-x="258" 
d="M223 0v27h-83v646h83v27h-188v-27h77v-646h-77v-27h188z" />
    <glyph glyph-name="J" unicode="J" horiz-adv-x="266" 
d="M174 -80q27 29 42 71.5t15 98.5v610h-196v-27h168v-580q0 -48 -12.5 -86t-35.5 -64q-22 -27 -53 -41.5t-67 -16.5v-27q41 1 76.5 17t62.5 45z" />
    <glyph glyph-name="K" unicode="K" horiz-adv-x="686" 
d="M223 0v27h-83v287l95 90q74 -95 148 -189t147 -188h-63v-27h184v27h-85q-78 100 -155.5 198t-155.5 197l262 251h87v27h-183v-27h58l-322 -309l-18 -20q0 8 0.5 14.5t0.5 14.5v300h79v27h-184v-27h77v-646h-77v-27h188z" />
    <glyph glyph-name="L" unicode="L" horiz-adv-x="567" 
d="M532 0v154h-27v-127h-369v646h83v27h-184v-27h73v-646h-73v-27h497z" />
    <glyph glyph-name="M" unicode="M" horiz-adv-x="964" 
d="M223 0v27h-81v582q0 11 -0.5 21.5t-0.5 21.5q5 -9 8.5 -13.5t9.5 -12.5l321 -419l313 408q8 11 13 18.5t13 18.5q0 -14 -0.5 -21.5t-0.5 -21.5v-582h-77v-27h188v27h-83v646h79v27h-102q-86 -111 -171.5 -223t-171.5 -223q-70 90 -161.5 210t-181.5 236h-102v-27h79v-646
h-79v-27h188z" />
    <glyph glyph-name="N" unicode="N" horiz-adv-x="843" 
d="M725 673h83v27h-188v-27h77v-609l3 -32l-19 26l-540 642h-106v-27h79v-646h-79v-27h188v27h-81v605l-2 27l18 -21l567 -670v705z" />
    <glyph glyph-name="O" unicode="O" horiz-adv-x="786" 
d="M646 97q48 48 76.5 113t28.5 139t-28.5 139.5t-76.5 114.5q-49 48 -114.5 76.5t-139.5 28.5t-139 -28.5t-113 -76.5q-49 -49 -77 -114.5t-28 -139.5t28 -139t77 -113q48 -49 113 -77t139 -28t139.5 28t114.5 77zM159 116q-44 45 -70 104.5t-26 127.5q0 69 26 129.5
t71 105.5q44 45 104 71.5t128 26.5t128 -26.5t105 -71.5q45 -46 71.5 -106t26.5 -128t-26.5 -128t-71.5 -105q-46 -45 -106.5 -71t-128.5 -26t-127.5 26t-103.5 71z" />
    <glyph glyph-name="P" unicode="P" horiz-adv-x="488" 
d="M223 0v27h-94v308h111q103 0 158 50t55 135q0 48 -21 82.5t-52 55.5q-32 22 -68 32t-66 10h-211v-27h66v-646h-66v-27h188zM129 673h110q40 0 74 -12.5t59 -33.5q25 -22 39 -49.5t14 -57.5q0 -26 -8.5 -53.5t-29.5 -50.5q-22 -23 -58 -38t-91 -15h-109v310z" />
    <glyph glyph-name="Q" unicode="Q" horiz-adv-x="808" 
d="M159 116q-44 45 -70 104.5t-26 127.5t26 128.5t71 106.5q44 45 104 71.5t128 26.5t128 -26.5t105 -71.5q45 -46 71.5 -106t26.5 -128t-26.5 -128t-71.5 -105q-46 -45 -106.5 -71t-128.5 -26t-127.5 26t-103.5 71zM466 0h307v27h-235q46 19 84.5 50.5t66.5 71.5
q29 42 45.5 93t16.5 107q0 74 -28.5 139.5t-76.5 114.5q-49 48 -114.5 76.5t-139.5 28.5t-139 -28.5t-113 -76.5q-49 -49 -77 -114.5t-28 -139.5t28 -139t77 -113q48 -49 113 -77t139 -28q18 0 36.5 2t37.5 6z" />
    <glyph glyph-name="R" unicode="R" horiz-adv-x="570" 
d="M223 0v27h-94v308h98q12 0 23 1t23 2l159 -338h103v27h-86l-147 314q74 14 112.5 61t38.5 118q0 48 -21 82.5t-52 55.5q-32 22 -68 32t-66 10h-211v-27h66v-646h-66v-27h188zM129 673h110q40 0 74 -12.5t59 -33.5q25 -22 39 -49.5t14 -57.5q0 -26 -8.5 -53.5t-29.5 -50.5
q-22 -23 -58 -38t-91 -15h-109v310z" />
    <glyph glyph-name="S" unicode="S" horiz-adv-x="478" 
d="M391 45q29 25 45.5 61t15.5 80q-1 67 -28.5 104t-68.5 58q-43 20 -91 32t-87 29q-38 16 -62 42.5t-24 75.5q0 29 8.5 55.5t27.5 48.5q18 20 46 33t65 13q44 0 76.5 -10t52.5 -24v-97h27v111q-18 14 -38 23.5t-40 15.5q-21 4 -40.5 6t-36.5 2q-48 0 -82 -16.5t-56 -43.5
q-21 -27 -30.5 -60.5t-7.5 -66.5q1 -45 20 -73t48 -44q28 -18 63 -28.5t69 -20.5q32 -10 61.5 -22t52.5 -31q21 -19 34 -46.5t13 -68.5q0 -38 -16 -68t-41 -52q-26 -21 -59.5 -32.5t-70.5 -11.5q-58 0 -99 18.5t-70 45.5v90h-27v-103q10 -11 28 -24.5t43 -24.5
q24 -13 56.5 -21t72.5 -8q43 0 82 13.5t68 39.5z" />
    <glyph glyph-name="T" unicode="T" horiz-adv-x="623" 
d="M405 0v27h-80v646h236v-127h27v154h-553v-154h27v127h235v-646h-80v-27h188z" />
    <glyph glyph-name="U" unicode="U" horiz-adv-x="685" 
d="M507 52q30 29 48 73t18 101v447h77v27h-188v-27h83v-444q0 -51 -15.5 -90t-41.5 -65q-27 -27 -64.5 -41t-80.5 -14q-45 0 -82 14t-64 41q-27 26 -42 65t-15 90v444h83v27h-188v-27h77v-447q0 -57 17.5 -101t48.5 -73q30 -30 72.5 -45t91.5 -15q50 0 92 15t73 45z" />
    <glyph glyph-name="V" unicode="V" horiz-adv-x="837" 
d="M716 673h86v27h-188v-27h73q-65 -156 -130 -308.5t-131 -307.5l-9 -26l-9 26q-65 155 -130 308t-130 308h75v27h-188v-27h83q75 -178 150 -353t149 -352q75 177 149.5 352t149.5 353z" />
    <glyph glyph-name="W" unicode="W" horiz-adv-x="1211" 
d="M492 144q28 66 56.5 133.5t54.5 132.5l10 -25l177 -417q74 177 148.5 352t149.5 353h88v27h-187v-27h70q-65 -156 -130 -308.5t-130 -307.5l-9 -26l-9 26q-67 154 -132 307.5t-129 308.5h77v27h-188v-27h82q25 -59 49.5 -116.5t48.5 -115.5q-28 -65 -56.5 -130.5
t-55.5 -130.5q-16 -37 -31.5 -75.5t-28.5 -73.5l-9 26q-67 154 -131.5 307.5t-128.5 308.5h75v27h-188v-27h83q75 -178 150 -353t149 -352q19 44 37.5 88.5t37.5 87.5z" />
    <glyph glyph-name="X" unicode="X" horiz-adv-x="707" 
d="M223 0v27h-69q47 74 94 146.5t94 145.5l9 16q10 -14 19 -29.5t19 -30.5l162 -248h-67v-27h188v27h-86q-54 83 -107.5 164t-106.5 164q51 80 101.5 158.5t101.5 159.5h97v27h-188v-27h58l-178 -278l-9 -16l-9 16q-46 69 -90.5 138.5t-90.5 139.5h58v27h-188v-27h96
l203 -314l-213 -332h-86v-27h188z" />
    <glyph glyph-name="Y" unicode="Y" horiz-adv-x="732" 
d="M462 0v27h-80v236q61 103 122 205t122 205h71v27h-187v-27h82l-214 -359l-11 -27h-1l-12 27q-53 91 -107 179.5t-108 179.5h84v27h-188v-27h70q61 -103 122.5 -205t122.5 -204v-237h-76v-27h188z" />
    <glyph glyph-name="Z" unicode="Z" horiz-adv-x="629" 
d="M594 0v188h-27v-161h-495l493 646v27h-484v35h-29v-62h476l-493 -646v-27h559z" />
    <glyph glyph-name="bracketleft" unicode="[" horiz-adv-x="338" 
d="M252 -149v28h-139v839h139v28h-169v-895h169z" />
    <glyph glyph-name="backslash" unicode="\" horiz-adv-x="333" 
d="M322 -19q-70 190 -139 377.5t-139 377.5h-30q70 -190 139 -377.5t139 -377.5h30z" />
    <glyph glyph-name="bracketright" unicode="]" horiz-adv-x="342" 
d="M251 -149v895h-169v-28h139v-839h-139v-28h169z" />
    <glyph glyph-name="asciicircum" unicode="^" horiz-adv-x="470" 
d="M137 479q24 34 47.5 68.5t47.5 68.5q24 -34 47.5 -68.5t47.5 -68.5h25q-30 45 -60 90.5t-60 90.5q-30 -45 -60 -90.5t-60 -90.5h25z" />
    <glyph glyph-name="underscore" unicode="_" horiz-adv-x="600" 
d="M500 0v28h-400v-28h400z" />
    <glyph glyph-name="grave" unicode="`" horiz-adv-x="200" 
d="M98 479q-23 33 -45 66.5t-45 66.5h-30q25 -33 48 -66.5t48 -66.5h24z" />
    <glyph glyph-name="a" unicode="a" 
d="M500 0v27h-74v348h-22q-1 -26 -2 -51l-2 -50q-19 46 -64 77.5t-106 31.5q-41 0 -76.5 -15.5t-61.5 -41.5q-27 -26 -42 -62t-15 -76q0 -41 15 -76t42 -61q26 -27 61.5 -42.5t76.5 -15.5q31 0 58.5 8.5t49.5 24.5q22 14 38 33.5t25 41.5q0 -14 -0.5 -27t-0.5 -27v-47h100z
M230 356q35 0 65.5 -13t53.5 -36t36 -53.5t13 -65.5q0 -36 -13 -66t-36 -53q-23 -22 -53.5 -35t-65.5 -13q-34 0 -64 12.5t-52 34.5q-24 22 -37.5 53t-13.5 67q0 34 13 64.5t35 53.5q23 23 53.5 36.5t65.5 13.5z" />
    <glyph glyph-name="b" unicode="b" 
d="M35 0h100v47q0 14 -0.5 27t-0.5 27q8 -22 24.5 -41.5t39.5 -33.5q21 -16 48.5 -24.5t58.5 -8.5q40 0 76 15.5t63 42.5q26 26 41 61t15 76q0 40 -15 76t-41 62q-27 26 -63 41.5t-76 15.5q-30 0 -57.5 -8.5t-49.5 -23.5t-38 -34t-24 -42q0 18 0.5 27.5t0.5 26.5v421h-100
v-27h72v-696h-74v-27zM305 356q34 0 64.5 -13t53.5 -35q22 -23 35.5 -54t13.5 -66t-13 -65.5t-35 -52.5q-23 -23 -54 -36t-65 -13q-36 0 -66 13t-53 35t-36 52.5t-13 66.5q0 34 12.5 64.5t35.5 53.5t53.5 36.5t66.5 13.5z" />
    <glyph glyph-name="c" unicode="c" horiz-adv-x="389" 
d="M354 36l-18 21q-22 -17 -49 -26.5t-57 -9.5q-35 0 -65 13t-53 36q-23 22 -36 52.5t-13 65.5t13 66t37 54q22 22 52 35t65 13q28 0 52.5 -8.5t45.5 -23.5v-77h26v93q-25 20 -56.5 31.5t-67.5 11.5q-41 0 -76.5 -15.5t-61.5 -41.5q-27 -26 -42 -62t-15 -76q0 -41 15 -76
t42 -61q26 -27 61.5 -42.5t76.5 -15.5q35 0 66.5 11.5t57.5 31.5z" />
    <glyph glyph-name="d" unicode="d" 
d="M500 0v27h-74v723h-99v-27h71v-344q0 -34 0.5 -52t0.5 -51q-9 22 -24.5 41t-37.5 34t-49.5 23.5t-57.5 8.5q-41 0 -76.5 -15.5t-61.5 -41.5q-27 -26 -42 -62t-15 -76q0 -41 15 -76t42 -61q26 -27 61.5 -42.5t76.5 -15.5q31 0 58.5 8.5t49.5 24.5q22 14 38 33.5t25 41.5
q0 -14 -0.5 -27t-0.5 -27v-47h100zM230 356q35 0 65 -13t53 -35q24 -23 37 -54t13 -66q0 -36 -13 -66.5t-36 -52.5q-23 -23 -53.5 -35.5t-65.5 -12.5t-65 12.5t-52 35.5q-23 22 -36.5 52.5t-13.5 66.5q0 35 13 65t36 54q22 23 52.5 36t65.5 13z" />
    <glyph glyph-name="e" unicode="e" horiz-adv-x="438" 
d="M230 356q44 0 80 -25t55 -65q-74 -30 -148 -59.5t-148 -59.5q-11 39 -2.5 76t30.5 66q23 30 57.5 48.5t75.5 18.5zM362 46l-18 21q-22 -22 -51 -34t-63 -12q-52 0 -93 27.5t-60 72.5q82 33 162 65t162 65q-10 29 -26.5 52.5t-36.5 40.5q-22 19 -50 29t-58 10
q-41 0 -76.5 -15.5t-61.5 -41.5q-27 -26 -42 -62t-15 -76q0 -41 15 -76t42 -62q26 -26 61.5 -41.5t76.5 -15.5q39 0 72.5 14t59.5 39z" />
    <glyph glyph-name="f" unicode="f" horiz-adv-x="292" 
d="M219 0v27h-95v320h127v28h-127v145q0 47 13.5 84.5t37.5 63.5q22 26 52.5 40.5t64.5 14.5v27q-40 -2 -76 -17.5t-62 -44.5q-28 -29 -43 -72t-15 -98v-143h-61v-28h61v-320h-61v-27h184z" />
    <glyph glyph-name="g" unicode="g" horiz-adv-x="536" 
d="M88 -192q26 -29 64 -43.5t87 -14.5q38 1 72 16.5t61 44.5q25 28 39.5 69t14.5 93v375h75v27h-97q-2 -26 -3 -51t-1 -50q-20 47 -65 78t-105 31q-41 0 -76.5 -15.5t-61.5 -41.5q-27 -26 -42 -62t-15 -76q0 -41 15 -76t42 -61q26 -27 61.5 -42t76.5 -15q31 0 58 8t49 23
q21 14 37 33.5t26 41.5q-1 -14 -1.5 -27.5t-0.5 -27.5v-72q0 -44 -12.5 -80t-34.5 -61q-21 -26 -50.5 -39.5t-62.5 -13.5q-38 0 -73 13t-58 37zM230 356q35 0 65 -13t53 -35q24 -23 37 -54t13 -66t-12.5 -65t-35.5 -53t-54 -36t-66 -13t-65 13t-52 35q-24 23 -37 53t-13 66
q0 34 12.5 64.5t35.5 53.5q22 23 52.5 36.5t66.5 13.5z" />
    <glyph glyph-name="h" unicode="h" horiz-adv-x="534" 
d="M219 0v27h-78v185q0 31 13 57.5t36 45.5q22 18 51 29t62 11q42 -2 65.5 -27.5t25.5 -59.5v-241h-79v-27h184v27h-77v243q-2 50 -33.5 81t-85.5 31q-57 0 -100.5 -28.5t-64.5 -76.5l3 45v428h-101v-27h73v-696h-78v-27h184z" />
    <glyph glyph-name="i" unicode="i" horiz-adv-x="254" 
d="M219 0v27h-76v348h-108v-27h80v-321h-80v-27h184zM155 504q0 11 -8 19t-18 8q-11 0 -19 -8t-8 -19t8 -18.5t19 -7.5q10 0 18 7.5t8 18.5z" />
    <glyph glyph-name="j" unicode="j" horiz-adv-x="175" 
d="M140 -6v381h-105v-27h77v-356q0 -49 -14.5 -87.5t-39.5 -64.5l21 -20q28 29 44.5 73t16.5 101zM153 504q0 11 -8 19t-18 8t-18 -8t-8 -19t8 -18.5t18 -7.5t18 7.5t8 18.5z" />
    <glyph glyph-name="k" unicode="k" horiz-adv-x="495" 
d="M35 0h184v27h-83v120l69 65q33 -47 67.5 -93t68.5 -92h-60v-27h179v27h-85q-38 51 -75 101.5t-74 102.5q35 32 62 58t60 59h75v27h-179v-27h68l-176 -165v567h-100v-27h72v-696h-73v-27z" />
    <glyph glyph-name="l" unicode="l" horiz-adv-x="254" 
d="M219 0v27h-83v723h-100v-27h72v-696h-73v-27h184z" />
    <glyph glyph-name="m" unicode="m" horiz-adv-x="814" 
d="M219 0v27h-78v185q0 31 13 57.5t36 45.5q22 18 51 29t62 11q42 -2 65.5 -27.5t25.5 -59.5v-241h-79v-27h184v27h-77v190q0 30 14 55t36 44q22 18 50.5 28.5t60.5 10.5q43 -2 66 -27.5t25 -59.5v-241h-79v-27h184v27h-77v243q-2 50 -33.5 81t-85.5 31q-55 0 -98 -27
t-64 -73q-5 45 -36.5 72.5t-81.5 27.5q-57 0 -100.5 -28.5t-64.5 -76.5q0 16 -0.5 27.5t-1.5 26.5l-1 44h-95v-27h73v-321h-78v-27h184z" />
    <glyph glyph-name="n" unicode="n" horiz-adv-x="534" 
d="M219 0v27h-78v185q0 31 13 57.5t36 45.5q22 18 51 29t62 11q42 -2 65.5 -27.5t25.5 -59.5v-241h-79v-27h184v27h-77v243q-2 50 -33.5 81t-85.5 31q-56 0 -100.5 -28.5t-64.5 -76.5q0 16 -0.5 27.5t-1.5 26.5l-1 44h-95v-27h73v-321h-78v-27h184z" />
    <glyph glyph-name="o" unicode="o" horiz-adv-x="463" 
d="M371 51q26 26 41.5 61t15.5 76q0 40 -15.5 76t-41.5 63q-27 26 -63.5 41.5t-76.5 15.5q-41 0 -76.5 -15.5t-61.5 -41.5q-27 -27 -42 -63t-15 -76q0 -41 15 -76t42 -61q26 -27 61.5 -42.5t76.5 -15.5q40 0 76.5 15.5t63.5 42.5zM113 70q-23 22 -36 52.5t-13 65.5
q0 34 13 64.5t36 53.5q22 24 52 37t66 13q34 0 64.5 -13t53.5 -37q23 -23 36 -53.5t13 -64.5q0 -35 -13 -65.5t-36 -52.5q-23 -23 -53.5 -36t-64.5 -13q-36 0 -66 13t-52 36z" />
    <glyph glyph-name="p" unicode="p" 
d="M43 -250h183v27h-88v275q0 12 -0.5 23t-1.5 23q9 -22 24.5 -41t37.5 -33q22 -15 49 -23.5t58 -8.5q40 0 76 15.5t63 41.5q26 26 41 61.5t15 76.5q0 40 -15 75.5t-41 62.5q-27 26 -63 41.5t-76 15.5q-61 0 -106.5 -32t-64.5 -79q0 26 -1.5 52t-1.5 52h-96v-27h74v-571h-66
v-27zM305 354q34 0 64.5 -12.5t53.5 -34.5q22 -23 35.5 -54t13.5 -66q0 -36 -13 -66.5t-36 -53.5q-23 -22 -53.5 -35t-64.5 -13q-35 0 -65 13t-53 36q-24 23 -37 53.5t-13 65.5t12.5 65.5t35.5 53.5q23 22 53.5 35t66.5 13z" />
    <glyph glyph-name="q" unicode="q" horiz-adv-x="536" 
d="M496 -250v27h-70v571h75v27h-97q0 -26 -1.5 -52t-1.5 -52q-19 48 -64.5 79.5t-106.5 31.5q-41 0 -76.5 -15.5t-61.5 -41.5q-27 -27 -42 -62.5t-15 -75.5q0 -41 15 -76.5t42 -61.5q26 -26 61.5 -41.5t76.5 -15.5q31 0 58 8t49 24q22 14 37.5 33t24.5 41q0 -12 -0.5 -23.5
t-0.5 -23.5v-274h-86v-27h184zM230 354q35 0 65.5 -13t53.5 -35t36 -53t13 -66t-12.5 -65t-36.5 -54q-22 -23 -53 -36t-66 -13t-64.5 13t-51.5 35q-24 23 -37.5 53.5t-13.5 66.5q0 35 13 65.5t36 53.5q22 22 52.5 35t65.5 13z" />
    <glyph glyph-name="r" unicode="r" horiz-adv-x="335" 
d="M219 0v27h-78v185q0 31 13.5 57.5t35.5 45.5q22 18 49.5 28.5t59.5 11.5l1 27q-25 0 -48.5 -7t-44.5 -21q-23 -13 -40 -32.5t-29 -44.5q0 16 -0.5 23t-0.5 22l-2 53h-95v-27h73v-321h-78v-27h184z" />
    <glyph glyph-name="s" unicode="s" horiz-adv-x="318" 
d="M260 30q14 16 20.5 35.5t6.5 37.5q0 32 -14 51t-35 31q-22 11 -46.5 18t-46.5 17q-21 8 -35.5 22t-14.5 40q0 19 7 32.5t19 22.5q11 8 26 11.5t28 3.5q20 0 37.5 -4t33.5 -14v-56h26v70q-8 8 -19.5 14t-23.5 10q-17 5 -28 6.5t-25 1.5q-18 0 -39 -6.5t-37 -19.5
q-15 -13 -24 -31.5t-9 -44.5q0 -31 14.5 -49t35.5 -27q21 -11 46.5 -18t46.5 -16q21 -8 35 -23.5t14 -44.5q0 -20 -8 -35t-20 -24q-13 -11 -28.5 -16t-33.5 -5q-23 0 -46 3.5t-43 18.5v55h-27v-70q24 -21 54 -28t59 -7q32 0 55.5 10.5t38.5 27.5z" />
    <glyph glyph-name="t" unicode="t" horiz-adv-x="307" 
d="M236 0v27h-85v320h121v28h-121v244h-28v-244h-88v-28h88v-347h113z" />
    <glyph glyph-name="u" unicode="u" horiz-adv-x="529" 
d="M395 98l1 -45l2 -53h96v25h-74v350h-105v-27h77v-185q0 -31 -13.5 -57.5t-35.5 -44.5q-22 -19 -51 -30t-62 -11q-42 2 -65.5 27.5t-25.5 59.5v268h-104v-27h76v-243q2 -50 33.5 -81t85.5 -31q56 0 100.5 28.5t64.5 76.5z" />
    <glyph glyph-name="v" unicode="v" horiz-adv-x="589" 
d="M484 348h70v27h-157v-27h58q-41 -82 -81.5 -162.5t-76.5 -154.5q-39 79 -78.5 158.5t-79.5 158.5h69v27h-173v-27h74q48 -94 94.5 -185.5t93.5 -185.5q47 94 93.5 185.5t93.5 185.5z" />
    <glyph glyph-name="w" unicode="w" horiz-adv-x="854" 
d="M432 249l136 -272q46 94 92 185.5t92 185.5h67v27h-154v-27h59q-41 -80 -79.5 -158.5t-76.5 -158.5l-78 158t-79 159h69v27h-173v-27h72l38 -77q-30 -60 -59.5 -118.5t-60.5 -121.5q-38 76 -78 156.5t-80 160.5h66v27h-170v-27h75q47 -94 93 -185.5t93 -185.5z" />
    <glyph glyph-name="x" unicode="x" horiz-adv-x="496" 
d="M214 0v27h-71q25 35 50 69.5t50 69.5q25 -34 50.5 -68t51.5 -71h-68v-27h184v27h-82q-29 40 -57.5 78t-57.5 78l119 165h78v27h-179v-27h67l-101 -142l-104 142h75v27h-184v-27h74q29 -41 58 -79.5t58 -78.5q-30 -41 -58.5 -81.5t-58.5 -81.5h-73v-27h179z" />
    <glyph glyph-name="y" unicode="y" horiz-adv-x="595" 
d="M276 -250v27h-69q72 144 142 285.5t142 285.5h69v27h-157v-27h57q-41 -81 -81.5 -162.5t-78.5 -159.5q-38 81 -78.5 161t-80.5 161h67v27h-173v-27h74q44 -89 87.5 -176t88.5 -175q-28 -54 -55.5 -109.5t-54.5 -110.5h-83v-27h184z" />
    <glyph glyph-name="z" unicode="z" horiz-adv-x="430" 
d="M395 0v80h-26v-52h-296q79 82 151.5 159.5t152.5 159.5v28h-304v35h-26v-62h292q-80 -83 -152 -160.5t-152 -159.5v-28h360z" />
    <glyph glyph-name="braceleft" unicode="{" horiz-adv-x="282" 
d="M244 -148v27h-55q-13 0 -22 4t-15 14q-9 12 -12 35t-3 58v145q0 43 -5.5 71t-14.5 47q-9 18 -21 28t-24 18q12 7 24 17t21 27q9 19 14.5 47.5t5.5 71.5v146q0 37 4 60.5t13 35.5q6 8 15 11t20 3h55v28h-43q-17 0 -34 -1.5t-29 -12.5q-13 -10 -21 -34.5t-8 -69.5v-177
q0 -20 -3 -43.5t-12 -43.5t-24.5 -33.5t-39.5 -14.5v-35q24 -1 39.5 -14.5t24.5 -33.5t12 -43.5t3 -43.5v-148q0 -56 5.5 -86t17.5 -43q12 -14 30.5 -15.5t38.5 -1.5h43z" />
    <glyph glyph-name="bar" unicode="|" horiz-adv-x="230" 
d="M126 -232v932h-29v-932h29z" />
    <glyph glyph-name="braceright" unicode="}" horiz-adv-x="320" 
d="M119 -148q17 0 34 1t29 11q13 11 21 35.5t8 70.5v147q0 18 1 45t9 52q7 27 23 46t46 21v35q-22 1 -36 12t-23 27q-16 28 -18 65t-2 60v148q0 46 -8 70t-21 34q-13 11 -29.5 12.5t-33.5 1.5h-43v-28h55q14 0 23.5 -4.5t15.5 -14.5q7 -13 10 -35t3 -56v-146
q0 -43 5.5 -71.5t14.5 -47.5q9 -17 21 -27t24 -17q-9 -5 -20.5 -14.5t-21.5 -25.5q-10 -15 -16.5 -38t-6.5 -56v-175q0 -34 -3 -56.5t-11 -35.5q-6 -10 -15.5 -14.5t-22.5 -4.5h-55v-27h43z" />
    <glyph glyph-name="asciitilde" unicode="~" horiz-adv-x="489" 
d="M392 474q11 8 19.5 22t9.5 32l-20 2q-2 -16 -9 -26.5t-17 -15.5q-9 -6 -19 -8.5t-18 -2.5q-14 0 -26 6t-28 23t-33 27t-37 10q-15 0 -29 -4t-26 -13q-12 -8 -20 -22t-9 -32l19 -2q2 15 8.5 25t15.5 16q10 7 20.5 9.5t19.5 2.5q14 0 25.5 -6t27.5 -23t33 -27t38 -10
q14 0 28.5 4t26.5 13z" />
    <glyph glyph-name="uni00A0" unicode="&#xa0;" horiz-adv-x="300" 
 />
    <glyph glyph-name="exclamdown" unicode="&#xa1;" horiz-adv-x="200" 
d="M126 485.007q0 -11.999 -8 -19.498t-18 -7.49902t-18 7.49902t-8 19.498q0 10.999 8 18.498t18 7.49902t18 -7.49902t8 -18.498zM114 374.021v-583.929h-28v583.929h28z" />
    <glyph glyph-name="cent" unicode="&#xa2;" horiz-adv-x="385" 
d="M236 -68v62q34 1 63.5 12t55.5 30l-18 21q-21 -16 -47 -25.5t-54 -10.5v334q26 0 49.5 -8.5t43.5 -22.5v-77h26v93q-24 19 -54.5 30.5t-64.5 12.5v55h-28v-57q-37 -4 -68 -20.5t-54 -42.5t-36.5 -59t-13.5 -71t13.5 -71t36.5 -58q23 -26 54 -42.5t68 -20.5v-64h28z
M64 188q0 32 11 60.5t31 49.5q19 22 45 36t57 18v-328q-30 3 -55.5 16t-44.5 34q-21 22 -32.5 51.5t-11.5 62.5z" />
    <glyph glyph-name="sterling" unicode="&#xa3;" horiz-adv-x="574" 
d="M498 0v134h-28v-106h-342q15 14 19 38.5t4 53.5v183h126v28h-126v168q0 23 7.5 42.5t24.5 34.5q16 14 42.5 22t66.5 8q30 0 51.5 -4.5t37.5 -13.5t27.5 -23t23.5 -35l20 13q-20 40 -56 65.5t-105 25.5q-79 0 -123.5 -32t-44.5 -102v-169h-65v-28h65v-136q0 -40 -2 -67
t-7 -43t-15.5 -22.5t-27.5 -6.5h-44v-28h471z" />
    <glyph glyph-name="currency" unicode="&#xa4;" horiz-adv-x="500" 
d="M138 361q0 23 8.5 43t23.5 35t35 23.5t42 8.5t42 -8.5t35 -22.5q15 -15 24 -35.5t9 -43.5t-8.5 -43t-23.5 -35t-35 -24t-43 -9q-22 0 -42 9t-35 23q-15 15 -23.5 35t-8.5 44zM162 252q17 -14 39 -21.5t46 -7.5q25 0 46.5 7.5t38.5 22.5l38 -38l20 20l-37 38
q15 18 23.5 40.5t8.5 47.5q0 24 -7.5 45.5t-22.5 39.5l35 35l-20 19l-35 -35q-17 16 -40 25t-48 9t-47.5 -9t-40.5 -24l-35 35l-20 -20l35 -35q-14 -18 -22 -39.5t-8 -45.5q0 -25 8.5 -47.5t24.5 -41.5l-38 -38l20 -20z" />
    <glyph glyph-name="yen" unicode="&#xa5;" horiz-adv-x="638" 
d="M242 0h188v27h-80v79h151v28h-151v129h151v28h-134l227 382h72v27h-188v-27h82l-213 -359l-12 -27h-1l-11 27l-216 359h84v27h-188v-27h70l230 -382h-135v-28h151v-129h-151v-28h151v-79h-77v-27z" />
    <glyph glyph-name="brokenbar" unicode="&#xa6;" horiz-adv-x="215" 
d="M124 -233v350h-29v-350h29zM124 350v350h-29v-350h29z" />
    <glyph glyph-name="section" unicode="&#xa7;" horiz-adv-x="500" 
d="M177 321q-5 13 -7 25.5t-1 24.5q2 16 9.5 30.5t19.5 25.5q11 11 27 17t35 5q17 -2 33 -10t28 -21t18.5 -30.5t4.5 -38.5q-2 -16 -9.5 -31t-19.5 -25q-13 -11 -29 -17t-34 -4q-23 1 -43.5 13.5t-31.5 35.5zM276 13q13 10 21 23t8 30q0 15 -7.5 37t-24.5 52l-58 99
q13 -6 27 -9t27 -3q23 1 42 11t33 25q14 17 22 38t8 43q0 16 -3.5 30.5t-12.5 28.5l-87 151q-16 27 -23.5 46.5t-8.5 33.5q0 12 7.5 21.5t18.5 16.5q12 7 23 13t23 13q-4 6 -7.5 12t-6.5 11q-14 -7 -29.5 -15t-28.5 -18q-14 -9 -22 -21.5t-8 -28.5q0 -12 7.5 -33.5
t20.5 -47.5t29 -53.5t32 -53.5q-13 6 -26.5 9t-29.5 2q-22 -1 -41 -11t-32 -24q-14 -17 -22 -38t-8 -42q0 -18 5 -34.5t15 -31.5l83 -142q17 -29 25 -49t8 -35q0 -12 -7 -21t-18 -16q-12 -7 -23 -13t-23 -13q4 -6 7.5 -12t6.5 -12q14 7 29.5 14.5t28.5 16.5z" />
    <glyph glyph-name="dieresis" unicode="&#xa8;" horiz-adv-x="370" 
d="M293 504q0 11 -8 19t-18 8t-18 -8t-8 -19t8 -18.5t18 -7.5t18 7.5t8 18.5zM128 504q0 11 -8 19t-18 8q-11 0 -19 -8t-8 -19t8 -18.5t19 -7.5q10 0 18 7.5t8 18.5z" />
    <glyph glyph-name="copyright" unicode="&#xa9;" horiz-adv-x="793" 
d="M232 203q-32 32 -50.5 75t-18.5 93q0 52 18.5 95.5t50.5 76.5q33 31 76 49t91 18q50 0 93 -18t76 -49q32 -33 50.5 -76.5t18.5 -95.5q0 -50 -18.5 -93t-50.5 -75q-33 -32 -76 -50t-93 -18q-48 0 -91 18t-76 50zM583 189q34 34 54 81t20 102t-20 102.5t-54 81.5
q-35 34 -82 53t-101 19t-101 -19t-81 -53q-35 -34 -55 -81.5t-20 -102.5t20 -102t55 -81q34 -34 81 -53t101 -19t101 19t82 53zM501 236l-7 10q-17 -10 -36 -15t-40 -5q-31 0 -58 11.5t-47 31.5t-31.5 47t-11.5 58t12 58.5t32 48.5q20 20 47 32t58 12q19 0 36.5 -4.5
t33.5 -13.5v-43h13v51q-19 11 -40 16.5t-43 5.5q-33 0 -62.5 -12.5t-51.5 -34.5t-35.5 -52t-13.5 -64q0 -33 13 -63t35 -52t52 -34t63 -12q23 0 43.5 6t38.5 17z" />
    <glyph glyph-name="ordfeminine" unicode="&#xaa;" horiz-adv-x="585" 
d="M419 306v20h-53v250h-16q-2 -18 -2.5 -36t-0.5 -36q-14 32 -47 55t-76 23q-29 0 -55 -11t-45 -30t-30 -45t-11 -54q0 -30 11 -55t30 -44q19 -20 45 -30.5t55 -10.5q23 0 42.5 6t35.5 17q16 10 27.5 24t17.5 30v-19.5v-19.5v-34h72zM224 562q25 0 47 -9t39 -25
q17 -17 26.5 -39t9.5 -47q0 -26 -9.5 -48.5t-26.5 -37.5q-17 -16 -39 -25.5t-47 -9.5t-47 9.5t-38 25.5t-26 38t-10 48q0 24 9.5 46t25.5 39q16 16 38 25.5t48 9.5z" />
    <glyph glyph-name="guillemotleft" unicode="&#xab;" horiz-adv-x="601" 
d="M288 239l171 -162v32q-31 33 -63 65t-63 65q31 32 63 64t63 64v33q-43 -41 -85.5 -80.5t-85.5 -80.5zM117 239l171 -162v32q-31 33 -63 65t-63 65q31 32 63 64t63 64v33q-43 -41 -85.5 -80.5t-85.5 -80.5z" />
    <glyph glyph-name="logicalnot" unicode="&#xac;" horiz-adv-x="559" 
d="M460 148v94h-360v-23h332v-71h28z" />
    <glyph glyph-name="registered" unicode="&#xae;" horiz-adv-x="801" 
d="M232 203q-32 32 -50.5 75t-18.5 93q0 52 18.5 95.5t50.5 76.5q33 31 76 49t91 18q50 0 93 -18t76 -49q32 -33 50.5 -76.5t18.5 -95.5q0 -50 -18.5 -93t-50.5 -75q-33 -32 -76 -50t-93 -18q-48 0 -91 18t-76 50zM583 189q34 34 54 81t20 102t-20 102.5t-54 81.5
q-35 34 -82 53t-101 19t-101 -19t-81 -53q-35 -34 -55 -81.5t-20 -102.5t20 -102t55 -81q34 -34 81 -53t101 -19t101 19t82 53zM397 210v13h-44v145h45q7 0 12.5 0.5t10.5 1.5l75 -160h49v13h-41l-69 148q35 7 53 29t18 56q0 22 -10 38.5t-25 27.5q-15 10 -32.5 14.5
t-30.5 4.5h-99v-13h30v-305h-30v-13h88zM353 528h51q38 0 63.5 -21.5t25.5 -50.5q0 -12 -4.5 -25.5t-13.5 -23.5q-11 -11 -28 -18.5t-43 -7.5h-51v147z" />
    <glyph glyph-name="macron" unicode="&#xaf;" horiz-adv-x="399" 
d="M315 489v22h-230v-22h230z" />
    <glyph glyph-name="degree" unicode="&#xb0;" horiz-adv-x="282" 
d="M78 560q0 12 4.5 22.5t12.5 19.5q9 8 20 12.5t23 4.5t23 -4.5t19 -12.5t12.5 -19t4.5 -23q0 -13 -4.5 -23.5t-12.5 -19.5q-8 -7 -19 -11.5t-23 -4.5q-11 0 -21.5 3.5t-18.5 10.5q-9 9 -14.5 20t-5.5 25zM219 559q0 19 -7.5 34.5t-19.5 26.5q-10 10 -24 15.5t-30 5.5
t-30.5 -5.5t-24.5 -14.5q-13 -11 -20 -27t-7 -35q0 -18 7 -32.5t18 -25.5t25.5 -16.5t31.5 -5.5q16 0 30.5 5.5t25.5 15.5q11 11 18 26t7 33z" />
    <glyph glyph-name="plusminus" unicode="&#xb1;" horiz-adv-x="524" 
d="M280 211v167h166v27h-166v166h-28v-166h-166v-27h166v-167h28zM446 129v27h-360v-27h360z" />
    <glyph glyph-name="uni00B2" unicode="&#xb2;" horiz-adv-x="398" 
d="M303 375v68h-13v-54h-153q25 26 50.5 52t46.5 53q20 27 34 54t14 55q0 21 -7 38.5t-18 30.5q-12 13 -28.5 20.5t-36.5 7.5q-22 0 -39.5 -7t-28.5 -21q-12 -13 -17.5 -30t-5.5 -36q0 -21 6.5 -37t18.5 -28l8 9q-9 10 -14 24.5t-5 31.5q0 11 3 25.5t12 26.5q8 12 23 20
t39 8q11 0 24.5 -4t24.5 -15q12 -10 19.5 -27t7.5 -43q0 -23 -14.5 -49.5t-37.5 -54.5q-22 -28 -52 -57.5t-62 -60.5h201z" />
    <glyph glyph-name="uni00B3" unicode="&#xb3;" horiz-adv-x="419" 
d="M238 406q15 14 23 32t8 39q0 22 -8.5 40t-22.5 32q-14 13 -32.5 20.5t-39.5 7.5l93 123h-158v-45h13v31h118l-97 -131q7 4 14.5 7t16.5 3q18 0 34 -7t29 -18q12 -13 19 -29t7 -34q0 -17 -7 -33.5t-19 -27.5q-13 -12 -29 -19t-34 -7q-20 0 -36 8t-28 22l-10 -11
q14 -15 33 -24t41 -9t40 8t32 22z" />
    <glyph glyph-name="acute" unicode="&#xb4;" horiz-adv-x="229" 
d="M125 479q24 33 47.5 66.5t47.5 66.5h-30q-23 -33 -45 -66.5t-45 -66.5h25z" />
    <glyph glyph-name="uni03BC" unicode="&#xb5;" horiz-adv-x="545" 
d="M138 -201v239q13 -21 36 -33t55 -12q55 0 99.5 28.5t64.5 76.5l1 -45l3 -53h95v25h-74v350h-104v-27h76v-185q0 -31 -13.5 -57.5t-35.5 -44.5q-22 -19 -51 -30t-61 -11q-43 2 -66 27.5t-25 59.5v268h-104v-27h76v-549h28z" />
    <glyph glyph-name="paragraph" unicode="&#xb6;" horiz-adv-x="529" 
d="M229 0v725h135v-725h128v25h-100v700h100v25h-291q-34 0 -64 -13t-52 -35t-34.5 -52t-12.5 -64t12.5 -64t34.5 -52t52 -34.5t64 -12.5v-423h28z" />
    <glyph glyph-name="periodcentered" unicode="&#xb7;" horiz-adv-x="164" 
d="M112 280q0 12 -8 19.5t-18 7.5q-11 0 -19 -7.5t-8 -19.5q0 -11 8 -18.5t19 -7.5q10 0 18 7.5t8 18.5z" />
    <glyph glyph-name="cedilla" unicode="&#xb8;" horiz-adv-x="452" 
d="M295 -130q0 16 -9.5 35t-31.5 34q-13 8 -27 18t-14 37v6h-22v-20q0 -19 12.5 -30t28.5 -20q14 -11 26.5 -25.5t12.5 -40.5q0 -30 -18 -49.5t-48 -19.5q-24 0 -40.5 13t-22.5 33l-10 -4t-11 -4q11 -31 34.5 -46t51.5 -15q36 0 62 23.5t26 74.5z" />
    <glyph glyph-name="uni00B9" unicode="&#xb9;" horiz-adv-x="254" 
d="M170 380v12h-38v308h-64v-13h50v-295h-39v-12h91z" />
    <glyph glyph-name="ordmasculine" unicode="&#xba;" horiz-adv-x="469" 
d="M332 343q19 19 30 44t11 55q0 28 -11 54t-30 46q-19 19 -45 30t-55 11q-30 0 -55.5 -11t-44.5 -30q-19 -20 -30 -46t-11 -54q0 -30 11 -55t30 -44q19 -20 44.5 -30.5t55.5 -10.5q29 0 55 10.5t45 30.5zM146 357q-16 15 -25.5 37t-9.5 48q0 24 9.5 46t25.5 39
q17 17 38.5 26t46.5 9t47 -9t39 -26q16 -17 25.5 -39t9.5 -46q0 -26 -9 -48t-26 -38t-39 -25.5t-47 -9.5t-46.5 9.5t-38.5 26.5z" />
    <glyph glyph-name="guillemotright" unicode="&#xbb;" horiz-adv-x="601" 
d="M288.035 239l-170.979 -162v32q30.9971 33 62.9932 65t62.9922 65q-30.9961 32 -62.9922 64t-62.9932 64v33q42.9951 -41 85.4902 -80.5q42.4941 -39.5 85.4893 -80.5zM459.015 239l-170.979 -162v32q30.9961 33 62.9922 65t62.9922 65q-30.9961 32 -62.9922 64
t-62.9922 64v33q42.9951 -41 85.4893 -80.5q42.4951 -39.5 85.4902 -80.5z" />
    <glyph glyph-name="onequarter" unicode="&#xbc;" horiz-adv-x="968" 
d="M315 -19q70 190 139 377t139 377h-28q-70 -190 -139 -377t-139 -377h28zM835 0v20h-62v116h72v21h-72v333l-272 -354h251v-116h-56v-20h139zM752 428v-271h-207zM285 234v19h-57v442h-93v-20h73v-422h-57v-19h134z" />
    <glyph glyph-name="onehalf" unicode="&#xbd;" horiz-adv-x="1069" 
d="M271 234v19h-56v442h-94v-20h74v-422h-56v-19h132zM868 0v97h-19v-77h-218q35 36 71.5 73.5t66.5 76.5q30 38 49 77t19 79q0 30 -9 55.5t-26 43.5q-17 19 -40.5 29.5t-52.5 10.5q-31 0 -56 -10.5t-41 -28.5q-16 -19 -25 -43.5t-9 -53.5q0 -28 10 -51t27 -39l12 12
q-14 14 -21 34t-7 44q0 18 4.5 38t16.5 38q13 17 34.5 29t54.5 12q17 0 35.5 -6.5t34.5 -20.5q17 -16 27.5 -40t10.5 -62q0 -33 -19.5 -70t-52.5 -78q-33 -40 -75.5 -82.5t-88.5 -86.5h287zM315 -19q70 190 139 377t139 377h-28q-70 -190 -139 -377t-139 -377h28z" />
    <glyph glyph-name="threequarters" unicode="&#xbe;" horiz-adv-x="1276" 
d="M380 246q22 22 34.5 51t12.5 62t-13 62t-34 49q-22 20 -51.5 32.5t-61.5 12.5l144 193h-248v-71h22v49h184l-151 -207q11 8 23 12.5t24 4.5q29 0 54.5 -11t44.5 -29q19 -19 30 -44t11 -53t-11 -53t-30 -44t-44.5 -30t-54.5 -11q-30 0 -55.5 13t-43.5 35l-15 -17
q21 -24 51 -38t65 -14q33 0 62 12.5t51 33.5zM485 -19q70 190 139 377.5t139 377.5h-28q-70 -190 -139 -377.5t-139 -377.5h28zM1034 0v20h-62v116h73v21h-73v333l-272 -354h251v-116h-57v-20h140zM951 428v-271h-208z" />
    <glyph glyph-name="questiondown" unicode="&#xbf;" horiz-adv-x="419" 
d="M226.027 375.02v-77.9902q0 -31.9961 -7.49902 -50.9932q-7.49902 -18.998 -19.4971 -30.9971q-12.999 -11.998 -29.4971 -21.9971q-16.4971 -9.99902 -35.4951 -22.9971q-44.9941 -31.9961 -71.4912 -72.9912t-26.4971 -94.9883q0 -39.9951 14.998 -75.4902
q14.998 -35.4961 40.9951 -61.4932q26.9971 -26.9961 62.9922 -42.4941q35.9961 -15.498 76.9912 -15.498q35.9951 0 66.4912 10.998q30.4971 10.999 54.4932 29.9961q23.998 18.998 40.9951 43.4951q16.998 24.4971 25.9971 52.4932q-5.99902 2 -12.498 4
q-6.5 2 -12.499 3.99902q-8.99902 -25.9961 -23.4971 -46.9941q-14.498 -20.9971 -35.4951 -35.9951q-20.998 -15.998 -46.9951 -24.9971q-25.9961 -8.99902 -56.9922 -8.99902q-34.9961 0 -65.9922 11.998q-30.9961 11.999 -53.9932 34.9961
q-21.998 21.9971 -34.9961 52.9941q-12.998 30.9961 -12.998 66.9912q0 36.9951 14.998 69.4912t46.9941 59.4932q22.9971 19.9971 45.9941 34.4961q22.9971 14.498 40.9951 28.4961q18.998 14.998 29.9961 33.9961q10.999 18.9971 10.999 49.9941v96.9873h-27.9971z
M214.029 493.006q0 -11.999 7.99902 -19.498t17.998 -7.49902q9.99805 0 17.9971 7.49902t7.99902 19.498q0 10.998 -7.99902 18.4971t-17.9971 7.49902q-9.99902 0 -17.998 -7.49902t-7.99902 -18.4971z" />
    <glyph glyph-name="Agrave" unicode="&#xc0;" horiz-adv-x="820" 
d="M219 0v27h-79q31 73 59.5 140t59.5 141h302q29 -71 59 -141t59 -140h-78v-27h184v27h-77q-74 177 -148.5 352t-149.5 353q-75 -178 -150 -353t-149 -352h-76v-27h184zM401 643q2 8 4.5 14.5t4.5 11.5l9 -26l130 -308h-278q32 77 65.5 153t64.5 155zM419 750
q-23 33 -45 66.5t-45 66.5h-30q25 -33 48 -66.5t48 -66.5h24z" />
    <glyph glyph-name="Aacute" unicode="&#xc1;" horiz-adv-x="820" 
d="M424 750q24 33 47.5 66.5t47.5 66.5h-30q-23 -33 -45 -66.5t-45 -66.5h25zM219 0v27h-79q31 73 59.5 140t59.5 141h302q29 -71 59 -141t59 -140h-78v-27h184v27h-77q-74 177 -148.5 352t-149.5 353q-75 -178 -150 -353t-149 -352h-76v-27h184zM401 643q2 8 4.5 14.5
t4.5 11.5l9 -26l130 -308h-278q32 77 65.5 153t64.5 155z" />
    <glyph glyph-name="Acircumflex" unicode="&#xc2;" horiz-adv-x="820" 
d="M315 750q24 34 47.5 68.5t47.5 68.5q24 -34 47.5 -68.5t47.5 -68.5h25q-30 45 -60 90.5t-60 90.5q-30 -45 -60 -90.5t-60 -90.5h25zM219 0v27h-79q31 73 59.5 140t59.5 141h302q29 -71 59 -141t59 -140h-78v-27h184v27h-77q-74 177 -148.5 352t-149.5 353
q-75 -178 -150 -353t-149 -352h-76v-27h184zM401 643q2 8 4.5 14.5t4.5 11.5l9 -26l130 -308h-278q32 77 65.5 153t64.5 155z" />
    <glyph glyph-name="Atilde" unicode="&#xc3;" horiz-adv-x="820" 
d="M527 769q11 8 19.5 22t9.5 32l-20 2q-2 -16 -9 -26.5t-17 -15.5q-9 -6 -19 -8.5t-18 -2.5q-14 0 -26 6t-28 23t-33 27t-37 10q-15 0 -29 -4t-26 -13q-12 -8 -20 -22t-9 -32l19 -2q2 15 8.5 25t15.5 16q10 7 20.5 9.5t19.5 2.5q14 0 25.5 -6t27.5 -23t33 -27t38 -10
q14 0 28.5 4t26.5 13zM219 0v27h-79q31 73 59.5 140t59.5 141h302q29 -71 59 -141t59 -140h-78v-27h184v27h-77q-74 177 -148.5 352t-149.5 353q-75 -178 -150 -353t-149 -352h-76v-27h184zM401 643q2 8 4.5 14.5t4.5 11.5l9 -26l130 -308h-278q32 77 65.5 153t64.5 155z
" />
    <glyph glyph-name="Adieresis" unicode="&#xc4;" horiz-adv-x="820" 
d="M519 794q0 11 -8 19t-18 8t-18 -8t-8 -19t8 -18.5t18 -7.5t18 7.5t8 18.5zM354 794q0 11 -8 19t-18 8q-11 0 -19 -8t-8 -19t8 -18.5t19 -7.5q10 0 18 7.5t8 18.5zM219 0v27h-79q31 73 59.5 140t59.5 141h302q29 -71 59 -141t59 -140h-78v-27h184v27h-77
q-74 177 -148.5 352t-149.5 353q-75 -178 -150 -353t-149 -352h-76v-27h184zM401 643q2 8 4.5 14.5t4.5 11.5l9 -26l130 -308h-278q32 77 65.5 153t64.5 155z" />
    <glyph glyph-name="Aring" unicode="&#xc5;" horiz-adv-x="820" 
d="M219 0v27h-79q31 73 59.5 140t59.5 141h302q29 -71 59 -141t59 -140h-78v-27h184v27h-77q-74 177 -148.5 352t-149.5 353q-75 -178 -150 -353t-149 -352h-76v-27h184zM401 643q2 8 4.5 14.5t4.5 11.5l9 -26l130 -308h-278q32 77 65.5 153t64.5 155zM365 835q0 18 13 32
t33 14t33 -14t13 -32q0 -19 -13.5 -32.5t-32.5 -13.5q-21 0 -33.5 14.5t-12.5 31.5zM479 835q0 16 -6 28.5t-16 22.5q-9 8 -21 12.5t-25 4.5q-16 0 -28.5 -6t-22.5 -16q-8 -9 -12.5 -21t-4.5 -25q0 -16 6 -28.5t16 -22.5q9 -8 21 -12.5t25 -4.5t25 4.5t21 12.5
q10 10 16 22.5t6 28.5z" />
    <glyph glyph-name="AE" unicode="&#xc6;" horiz-adv-x="775" 
d="M219 0v27h-78q30 70 59.5 139t58.5 139h141v-305h340v154h-27v-127h-285v312h259v27h-259v307h271v-127h27v154h-329q-71 -170 -142 -337t-142 -336h-78v-27h184zM400 642v-309h-129q32 78 66.5 154t62.5 155z" />
    <glyph glyph-name="Ccedilla" unicode="&#xc7;" horiz-adv-x="602" 
d="M477 -130q0 16 -9 35t-32 34q-11 7 -22.5 14.5t-16.5 25.5q-1 2 -1.5 5.5t-0.5 7.5q50 0 94.5 13.5t84.5 36.5l-16 23q-38 -22 -80.5 -34t-87.5 -12q-68 0 -127.5 26t-103.5 71t-70 104.5t-26 127.5t26 128.5t71 106.5q44 45 104 71.5t128 26.5q41 0 80.5 -10.5
t75.5 -30.5v-166h27v184q-41 24 -86.5 37t-96.5 13q-74 0 -139 -28.5t-113 -76.5q-49 -49 -77 -114.5t-28 -139.5q0 -71 26 -135t73 -111q45 -48 106.5 -77t132.5 -33v-13q0 -19 13 -30t28 -20q14 -11 26.5 -25.5t12.5 -40.5q0 -30 -18 -49.5t-47 -19.5q-24 0 -41 13t-22 33
l-22 -8q11 -31 34.5 -46t51.5 -15q37 0 62.5 24.5t25.5 73.5z" />
    <glyph glyph-name="Egrave" unicode="&#xc8;" horiz-adv-x="571" 
d="M536 0v154h-27v-127h-369v312h343v27h-343v307h355v-127h27v154h-487v-27h77v-646h-77v-27h501zM308 750q-23 33 -45 66.5t-45 66.5h-30q25 -33 48 -66.5t48 -66.5h24z" />
    <glyph glyph-name="Eacute" unicode="&#xc9;" horiz-adv-x="571" 
d="M536 0v154h-27v-127h-369v312h343v27h-343v307h355v-127h27v154h-487v-27h77v-646h-77v-27h501zM299 750q24 33 47.5 66.5t47.5 66.5h-30q-23 -33 -45 -66.5t-45 -66.5h25z" />
    <glyph glyph-name="Ecircumflex" unicode="&#xca;" horiz-adv-x="571" 
d="M536 0v154h-27v-127h-369v312h343v27h-343v307h355v-127h27v154h-487v-27h77v-646h-77v-27h501zM205 750q24 34 47.5 68.5t47.5 68.5q24 -34 47.5 -68.5t47.5 -68.5h25q-30 45 -60 90.5t-60 90.5q-30 -45 -60 -90.5t-60 -90.5h25z" />
    <glyph glyph-name="Edieresis" unicode="&#xcb;" horiz-adv-x="571" 
d="M536 0v154h-27v-127h-369v312h343v27h-343v307h355v-127h27v154h-487v-27h77v-646h-77v-27h501zM404 794q0 11 -8 19t-18 8t-18 -8t-8 -19t8 -18.5t18 -7.5t18 7.5t8 18.5zM239 794q0 11 -8 19t-18 8q-11 0 -19 -8t-8 -19t8 -18.5t19 -7.5q10 0 18 7.5t8 18.5z" />
    <glyph glyph-name="Igrave" unicode="&#xcc;" horiz-adv-x="258" 
d="M223 0v27h-83v646h83v27h-188v-27h77v-646h-77v-27h188zM131 750q-23 33 -45 66.5t-45 66.5h-30q25 -33 48 -66.5t48 -66.5h24z" />
    <glyph glyph-name="Iacute" unicode="&#xcd;" horiz-adv-x="258" 
d="M223 0v27h-83v646h83v27h-188v-27h77v-646h-77v-27h188zM147 750q24 33 47.5 66.5t47.5 66.5h-30q-23 -33 -45 -66.5t-45 -66.5h25z" />
    <glyph glyph-name="Icircumflex" unicode="&#xce;" horiz-adv-x="258" 
d="M223 0v27h-83v646h83v27h-188v-27h77v-646h-77v-27h188zM34 750q24 34 47.5 68.5t47.5 68.5q24 -34 47.5 -68.5t47.5 -68.5h25q-30 45 -60 90.5t-60 90.5q-30 -45 -60 -90.5t-60 -90.5h25z" />
    <glyph glyph-name="Idieresis" unicode="&#xcf;" horiz-adv-x="258" 
d="M223 0v27h-83v646h83v27h-188v-27h77v-646h-77v-27h188zM238 794q0 11 -8 19t-18 8t-18 -8t-8 -19t8 -18.5t18 -7.5t18 7.5t8 18.5zM73 794q0 11 -8 19t-18 8q-11 0 -19 -8t-8 -19t8 -18.5t19 -7.5q10 0 18 7.5t8 18.5z" />
    <glyph glyph-name="Eth" unicode="&#xd0;" horiz-adv-x="632" 
d="M211 0q106 0 179.5 32.5t119.5 83.5t66.5 113t20.5 121q0 80 -28 145t-76 111q-48 45 -112 69.5t-136 24.5h-210v-27h68v-307h-59v-28h59v-311h-68v-27h176zM131 338h215v28h-215v307h117q65 0 123.5 -22.5t103.5 -64.5q44 -42 69.5 -102t25.5 -134q0 -58 -20 -115
t-62 -104q-43 -46 -108.5 -74.5t-156.5 -28.5h-92v310z" />
    <glyph glyph-name="Ntilde" unicode="&#xd1;" horiz-adv-x="805" 
d="M725 673h83v27h-188v-27h77v-609l3 -32l-19 26l-540 642h-106v-27h79v-646h-79v-27h188v27h-81v605l-2 27l18 -21l567 -670v705zM526 767q11 8 19.5 22t9.5 32l-20 2q-2 -16 -9 -26.5t-17 -15.5q-9 -6 -19 -8.5t-18 -2.5q-14 0 -26 6t-28 23t-33 27t-37 10q-15 0 -29 -4
t-26 -13q-12 -8 -20 -22t-9 -32l19 -2q2 15 8.5 25t15.5 16q10 7 20.5 9.5t19.5 2.5q14 0 25.5 -6t27.5 -23t33 -27t38 -10q14 0 28.5 4t26.5 13z" />
    <glyph glyph-name="Ograve" unicode="&#xd2;" horiz-adv-x="786" 
d="M646 97q48 48 76.5 113t28.5 139t-28.5 139.5t-76.5 114.5q-49 48 -114.5 76.5t-139.5 28.5t-139 -28.5t-113 -76.5q-49 -49 -77 -114.5t-28 -139.5t28 -139t77 -113q48 -49 113 -77t139 -28t139.5 28t114.5 77zM159 116q-44 45 -70 104.5t-26 127.5q0 69 26 129.5
t71 105.5q44 45 104 71.5t128 26.5t128 -26.5t105 -71.5q45 -46 71.5 -106t26.5 -128t-26.5 -128t-71.5 -105q-46 -45 -106.5 -71t-128.5 -26t-127.5 26t-103.5 71zM398 750q-23 33 -45 66.5t-45 66.5h-30q25 -33 48 -66.5t48 -66.5h24z" />
    <glyph glyph-name="Oacute" unicode="&#xd3;" horiz-adv-x="786" 
d="M646 97q48 48 76.5 113t28.5 139t-28.5 139.5t-76.5 114.5q-49 48 -114.5 76.5t-139.5 28.5t-139 -28.5t-113 -76.5q-49 -49 -77 -114.5t-28 -139.5t28 -139t77 -113q48 -49 113 -77t139 -28t139.5 28t114.5 77zM159 116q-44 45 -70 104.5t-26 127.5q0 69 26 129.5
t71 105.5q44 45 104 71.5t128 26.5t128 -26.5t105 -71.5q45 -46 71.5 -106t26.5 -128t-26.5 -128t-71.5 -105q-46 -45 -106.5 -71t-128.5 -26t-127.5 26t-103.5 71zM426 750q24 33 47.5 66.5t47.5 66.5h-30q-23 -33 -45 -66.5t-45 -66.5h25z" />
    <glyph glyph-name="Ocircumflex" unicode="&#xd4;" horiz-adv-x="786" 
d="M646 97q48 48 76.5 113t28.5 139t-28.5 139.5t-76.5 114.5q-49 48 -114.5 76.5t-139.5 28.5t-139 -28.5t-113 -76.5q-49 -49 -77 -114.5t-28 -139.5t28 -139t77 -113q48 -49 113 -77t139 -28t139.5 28t114.5 77zM159 116q-44 45 -70 104.5t-26 127.5q0 69 26 129.5
t71 105.5q44 45 104 71.5t128 26.5t128 -26.5t105 -71.5q45 -46 71.5 -106t26.5 -128t-26.5 -128t-71.5 -105q-46 -45 -106.5 -71t-128.5 -26t-127.5 26t-103.5 71zM302 750q24 34 47.5 68.5t47.5 68.5q24 -34 47.5 -68.5t47.5 -68.5h25q-30 45 -60 90.5t-60 90.5
q-30 -45 -60 -90.5t-60 -90.5h25z" />
    <glyph glyph-name="Otilde" unicode="&#xd5;" horiz-adv-x="786" 
d="M646 97q48 48 76.5 113t28.5 139t-28.5 139.5t-76.5 114.5q-49 48 -114.5 76.5t-139.5 28.5t-139 -28.5t-113 -76.5q-49 -49 -77 -114.5t-28 -139.5t28 -139t77 -113q48 -49 113 -77t139 -28t139.5 28t114.5 77zM159 116q-44 45 -70 104.5t-26 127.5q0 69 26 129.5
t71 105.5q44 45 104 71.5t128 26.5t128 -26.5t105 -71.5q45 -46 71.5 -106t26.5 -128t-26.5 -128t-71.5 -105q-46 -45 -106.5 -71t-128.5 -26t-127.5 26t-103.5 71zM515 774q11 8 19.5 22t9.5 32l-20 2q-2 -16 -9 -26.5t-17 -15.5q-9 -6 -19 -8.5t-18 -2.5q-14 0 -26 6
t-28 23t-33 27t-37 10q-15 0 -29 -4t-26 -13q-12 -8 -20 -22t-9 -32l19 -2q2 15 8.5 25t15.5 16q10 7 20.5 9.5t19.5 2.5q14 0 25.5 -6t27.5 -23t33 -27t38 -10q14 0 28.5 4t26.5 13z" />
    <glyph glyph-name="Odieresis" unicode="&#xd6;" horiz-adv-x="786" 
d="M646 97q48 48 76.5 113t28.5 139t-28.5 139.5t-76.5 114.5q-49 48 -114.5 76.5t-139.5 28.5t-139 -28.5t-113 -76.5q-49 -49 -77 -114.5t-28 -139.5t28 -139t77 -113q48 -49 113 -77t139 -28t139.5 28t114.5 77zM159 116q-44 45 -70 104.5t-26 127.5q0 69 26 129.5
t71 105.5q44 45 104 71.5t128 26.5t128 -26.5t105 -71.5q45 -46 71.5 -106t26.5 -128t-26.5 -128t-71.5 -105q-46 -45 -106.5 -71t-128.5 -26t-127.5 26t-103.5 71zM506 794q0 11 -8 19t-18 8t-18 -8t-8 -19t8 -18.5t18 -7.5t18 7.5t8 18.5zM341 794q0 11 -8 19t-18 8
q-11 0 -19 -8t-8 -19t8 -18.5t19 -7.5q10 0 18 7.5t8 18.5z" />
    <glyph glyph-name="multiply" unicode="&#xd7;" horiz-adv-x="500" 
d="M263 118l118 -118l20 20l-118 118l117 117l-19 20l-118 -117l-117 116l-19 -20l116 -116l-117 -118l20 -20z" />
    <glyph glyph-name="Oslash" unicode="&#xd8;" horiz-adv-x="786" 
d="M63 348q0 68 26 128.5t71 106.5q44 45 104 71.5t128 26.5q56 0 105.5 -18t91.5 -49q-107 -127 -212 -252t-212 -253q-47 45 -74.5 106.5t-27.5 132.5zM184 93q136 161 212.5 252t211.5 253q53 -46 84 -110.5t31 -138.5q0 -68 -26.5 -128t-71.5 -105q-46 -45 -106.5 -71
t-128.5 -26q-59 0 -111 19.5t-95 54.5zM167 72q46 -38 103.5 -59t121.5 -21q74 0 139.5 28t114.5 77q48 48 76.5 113t28.5 139q0 81 -33.5 151t-90.5 120q16 19 31 37t31 37q-4 4 -9 8l-10 8q-16 -19 -31 -37.5t-31 -37.5q-46 34 -100.5 53.5t-115.5 19.5q-74 0 -139 -28.5
t-113 -76.5q-49 -49 -77 -114.5t-28 -139.5q0 -78 30.5 -145t82.5 -115q-17 -21 -34 -41.5t-35 -40.5q5 -4 10 -8.5t9 -8.5q18 20 35 41t34 41z" />
    <glyph glyph-name="Ugrave" unicode="&#xd9;" horiz-adv-x="685" 
d="M507 52q30 29 48 73t18 101v447h77v27h-188v-27h83v-444q0 -51 -15.5 -90t-41.5 -65q-27 -27 -64.5 -41t-80.5 -14q-45 0 -82 14t-64 41q-27 26 -42 65t-15 90v444h83v27h-188v-27h77v-447q0 -57 17.5 -101t48.5 -73q30 -30 72.5 -45t91.5 -15q50 0 92 15t73 45zM352 750
q-23 33 -45 66.5t-45 66.5h-30q25 -33 48 -66.5t48 -66.5h24z" />
    <glyph glyph-name="Uacute" unicode="&#xda;" horiz-adv-x="685" 
d="M507 52q30 29 48 73t18 101v447h77v27h-188v-27h83v-444q0 -51 -15.5 -90t-41.5 -65q-27 -27 -64.5 -41t-80.5 -14q-45 0 -82 14t-64 41q-27 26 -42 65t-15 90v444h83v27h-188v-27h77v-447q0 -57 17.5 -101t48.5 -73q30 -30 72.5 -45t91.5 -15q50 0 92 15t73 45zM364 750
q24 33 47.5 66.5t47.5 66.5h-30q-23 -33 -45 -66.5t-45 -66.5h25z" />
    <glyph glyph-name="Ucircumflex" unicode="&#xdb;" horiz-adv-x="685" 
d="M507 52q30 29 48 73t18 101v447h77v27h-188v-27h83v-444q0 -51 -15.5 -90t-41.5 -65q-27 -27 -64.5 -41t-80.5 -14q-45 0 -82 14t-64 41q-27 26 -42 65t-15 90v444h83v27h-188v-27h77v-447q0 -57 17.5 -101t48.5 -73q30 -30 72.5 -45t91.5 -15q50 0 92 15t73 45zM250 750
q24 34 47.5 68.5t47.5 68.5q24 -34 47.5 -68.5t47.5 -68.5h25q-30 45 -60 90.5t-60 90.5q-30 -45 -60 -90.5t-60 -90.5h25z" />
    <glyph glyph-name="Udieresis" unicode="&#xdc;" horiz-adv-x="685" 
d="M507 52q30 29 48 73t18 101v447h77v27h-188v-27h83v-444q0 -51 -15.5 -90t-41.5 -65q-27 -27 -64.5 -41t-80.5 -14q-45 0 -82 14t-64 41q-27 26 -42 65t-15 90v444h83v27h-188v-27h77v-447q0 -57 17.5 -101t48.5 -73q30 -30 72.5 -45t91.5 -15q50 0 92 15t73 45zM450 795
q0 11 -8 19t-18 8t-18 -8t-8 -19t8 -18.5t18 -7.5t18 7.5t8 18.5zM285 795q0 11 -8 19t-18 8q-11 0 -19 -8t-8 -19t8 -18.5t19 -7.5q10 0 18 7.5t8 18.5z" />
    <glyph glyph-name="Yacute" unicode="&#xdd;" horiz-adv-x="732" 
d="M462 0v27h-80v236q61 103 122 205t122 205h71v27h-187v-27h82l-214 -359l-11 -27h-1l-12 27q-53 91 -107 179.5t-108 179.5h84v27h-188v-27h70q61 -103 122.5 -205t122.5 -204v-237h-76v-27h188zM397 750q24 33 47.5 66.5t47.5 66.5h-30q-23 -33 -45 -66.5t-45 -66.5h25z
" />
    <glyph glyph-name="Thorn" unicode="&#xde;" horiz-adv-x="494" 
d="M223 0v27h-89v143h111q103 0 158.5 50t55.5 135q0 48 -21.5 82.5t-52.5 55.5q-31 22 -67.5 32t-66.5 10h-117v138h85v27h-184v-27h71v-646h-71v-27h188zM134 508h110q40 0 74 -12.5t59 -33.5t39.5 -49t14.5 -59q0 -25 -9 -52.5t-30 -50.5t-57.5 -38t-91.5 -15h-109v310z
" />
    <glyph glyph-name="germandbls" unicode="&#xdf;" horiz-adv-x="545" 
d="M449 52q28 28 44.5 65.5t16.5 80.5q0 35 -11.5 66.5t-32.5 57.5q-19 24 -45 41t-56 26q37 15 59.5 47.5t22.5 74.5q0 29 -11 56t-31 47q-19 20 -45.5 31.5t-56.5 12.5q-38 -2 -72.5 -17.5t-60.5 -44.5q-26 -30 -41.5 -73t-15.5 -98v-35h-64v-27h64v-336h-78v-27h106v428
q0 46 13.5 83.5t35.5 64.5q22 26 51 40t62 14q25 0 46.5 -9.5t36.5 -26.5t24 -39.5t9 -46.5q0 -48 -34.5 -77.5t-81.5 -29.5v-28q37 0 69.5 -14t56.5 -38q25 -24 39 -55.5t14 -67.5t-14.5 -68.5t-38.5 -57.5q-25 -24 -57.5 -38.5t-70.5 -14.5q-24 0 -46 6t-43 18l-11 -24
q22 -13 48 -20t54 -7q42 0 80 16t66 44z" />
    <glyph glyph-name="agrave" unicode="&#xe0;" 
d="M500 0v27h-74v348h-22q-1 -26 -2 -51l-2 -50q-19 46 -64 77.5t-106 31.5q-41 0 -76.5 -15.5t-61.5 -41.5q-27 -26 -42 -62t-15 -76q0 -41 15 -76t42 -61q26 -27 61.5 -42.5t76.5 -15.5q31 0 58.5 8.5t49.5 24.5q22 14 38 33.5t25 41.5q0 -14 -0.5 -27t-0.5 -27v-47h100z
M230 356q35 0 65.5 -13t53.5 -36t36 -53.5t13 -65.5q0 -36 -13 -66t-36 -53q-23 -22 -53.5 -35t-65.5 -13q-34 0 -64 12.5t-52 34.5q-24 22 -37.5 53t-13.5 67q0 34 13 64.5t35 53.5q23 23 53.5 36.5t65.5 13.5zM255 479q-23 33 -45 66.5t-45 66.5h-30q25 -33 48 -66.5
t48 -66.5h24z" />
    <glyph glyph-name="aacute" unicode="&#xe1;" 
d="M500 0v27h-74v348h-22q-1 -26 -2 -51l-2 -50q-19 46 -64 77.5t-106 31.5q-41 0 -76.5 -15.5t-61.5 -41.5q-27 -26 -42 -62t-15 -76q0 -41 15 -76t42 -61q26 -27 61.5 -42.5t76.5 -15.5q31 0 58.5 8.5t49.5 24.5q22 14 38 33.5t25 41.5q0 -14 -0.5 -27t-0.5 -27v-47h100z
M230 356q35 0 65.5 -13t53.5 -36t36 -53.5t13 -65.5q0 -36 -13 -66t-36 -53q-23 -22 -53.5 -35t-65.5 -13q-34 0 -64 12.5t-52 34.5q-24 22 -37.5 53t-13.5 67q0 34 13 64.5t35 53.5q23 23 53.5 36.5t65.5 13.5zM257 479q24 33 47.5 66.5t47.5 66.5h-30q-23 -33 -45 -66.5
t-45 -66.5h25z" />
    <glyph glyph-name="acircumflex" unicode="&#xe2;" 
d="M500 0v27h-74v348h-22q-1 -26 -2 -51l-2 -50q-19 46 -64 77.5t-106 31.5q-41 0 -76.5 -15.5t-61.5 -41.5q-27 -26 -42 -62t-15 -76q0 -41 15 -76t42 -61q26 -27 61.5 -42.5t76.5 -15.5q31 0 58.5 8.5t49.5 24.5q22 14 38 33.5t25 41.5q0 -14 -0.5 -27t-0.5 -27v-47h100z
M230 356q35 0 65.5 -13t53.5 -36t36 -53.5t13 -65.5q0 -36 -13 -66t-36 -53q-23 -22 -53.5 -35t-65.5 -13q-34 0 -64 12.5t-52 34.5q-24 22 -37.5 53t-13.5 67q0 34 13 64.5t35 53.5q23 23 53.5 36.5t65.5 13.5zM166 479q24 34 47.5 68.5t47.5 68.5q24 -34 47.5 -68.5
t47.5 -68.5h25q-30 45 -60 90.5t-60 90.5q-30 -45 -60 -90.5t-60 -90.5h25z" />
    <glyph glyph-name="atilde" unicode="&#xe3;" 
d="M500 0v27h-74v348h-22q-1 -26 -2 -51l-2 -50q-19 46 -64 77.5t-106 31.5q-41 0 -76.5 -15.5t-61.5 -41.5q-27 -26 -42 -62t-15 -76q0 -41 15 -76t42 -61q26 -27 61.5 -42.5t76.5 -15.5q31 0 58.5 8.5t49.5 24.5q22 14 38 33.5t25 41.5q0 -14 -0.5 -27t-0.5 -27v-47h100z
M230 356q35 0 65.5 -13t53.5 -36t36 -53.5t13 -65.5q0 -36 -13 -66t-36 -53q-23 -22 -53.5 -35t-65.5 -13q-34 0 -64 12.5t-52 34.5q-24 22 -37.5 53t-13.5 67q0 34 13 64.5t35 53.5q23 23 53.5 36.5t65.5 13.5zM352 474q11 8 19.5 22t9.5 32l-20 2q-2 -16 -9 -26.5
t-17 -15.5q-9 -6 -19 -8.5t-18 -2.5q-14 0 -26 6t-28 23t-33 27t-37 10q-15 0 -29 -4t-26 -13q-12 -8 -20 -22t-9 -32l19 -2q2 15 8.5 25t15.5 16q10 7 20.5 9.5t19.5 2.5q14 0 25.5 -6t27.5 -23t33 -27t38 -10q14 0 28.5 4t26.5 13z" />
    <glyph glyph-name="adieresis" unicode="&#xe4;" 
d="M500 0v27h-74v348h-22q-1 -26 -2 -51l-2 -50q-19 46 -64 77.5t-106 31.5q-41 0 -76.5 -15.5t-61.5 -41.5q-27 -26 -42 -62t-15 -76q0 -41 15 -76t42 -61q26 -27 61.5 -42.5t76.5 -15.5q31 0 58.5 8.5t49.5 24.5q22 14 38 33.5t25 41.5q0 -14 -0.5 -27t-0.5 -27v-47h100z
M230 356q35 0 65.5 -13t53.5 -36t36 -53.5t13 -65.5q0 -36 -13 -66t-36 -53q-23 -22 -53.5 -35t-65.5 -13q-34 0 -64 12.5t-52 34.5q-24 22 -37.5 53t-13.5 67q0 34 13 64.5t35 53.5q23 23 53.5 36.5t65.5 13.5zM350 504q0 11 -8 19t-18 8t-18 -8t-8 -19t8 -18.5t18 -7.5
t18 7.5t8 18.5zM185 504q0 11 -8 19t-18 8q-11 0 -19 -8t-8 -19t8 -18.5t19 -7.5q10 0 18 7.5t8 18.5z" />
    <glyph glyph-name="aring" unicode="&#xe5;" 
d="M500 0v27h-74v348h-22q-1 -26 -2 -51l-2 -50q-19 46 -64 77.5t-106 31.5q-41 0 -76.5 -15.5t-61.5 -41.5q-27 -26 -42 -62t-15 -76q0 -41 15 -76t42 -61q26 -27 61.5 -42.5t76.5 -15.5q31 0 58.5 8.5t49.5 24.5q22 14 38 33.5t25 41.5q0 -14 -0.5 -27t-0.5 -27v-47h100z
M230 356q35 0 65.5 -13t53.5 -36t36 -53.5t13 -65.5q0 -36 -13 -66t-36 -53q-23 -22 -53.5 -35t-65.5 -13q-34 0 -64 12.5t-52 34.5q-24 22 -37.5 53t-13.5 67q0 34 13 64.5t35 53.5q23 23 53.5 36.5t65.5 13.5zM199 540q0 18 13 32t33 14t33 -14t13 -32q0 -19 -13.5 -32.5
t-32.5 -13.5q-21 0 -33.5 14.5t-12.5 31.5zM313 540q0 16 -6 28.5t-16 22.5q-9 8 -21 12.5t-25 4.5q-16 0 -28.5 -6t-22.5 -16q-8 -9 -12.5 -21t-4.5 -25q0 -16 6 -28.5t16 -22.5q9 -8 21 -12.5t25 -4.5t25 4.5t21 12.5q10 10 16 22.5t6 28.5z" />
    <glyph glyph-name="ae" unicode="&#xe6;" horiz-adv-x="587" 
d="M347 241q0 37 -6.5 61t-22.5 39q15 7 31 10t32 3q44 0 80 -25t55 -65q-42 -17 -84.5 -34t-84.5 -33v44zM63 99q0 29 20.5 43.5t49.5 20.5q27 6 55.5 5.5t44.5 -0.5h86v-62q0 -27 -11 -44t-29 -27t-40.5 -13.5t-44.5 -3.5q-21 0 -43.5 3t-41.5 11q-20 9 -33 25t-13 42z
M294 11q19 -10 41 -14.5t46 -4.5q39 0 72.5 14t59.5 38l-17 21q-23 -22 -52 -34t-63 -12q-17 0 -34 3.5t-33 10.5q18 16 25.5 39t7.5 56v39q52 20 102.5 41t102.5 41q-9 28 -25.5 51.5t-36.5 41.5q-22 18 -50 28.5t-59 10.5q-22 0 -43 -4.5t-39 -13.5q-17 9 -44 13.5
t-63 4.5q-16 0 -35 -3t-36 -9q-18 -5 -33 -12.5t-24 -15.5q4 -6 9 -11l10 -10q8 6 20.5 12t27.5 11t30.5 8t29.5 3q42 0 67 -7t39 -21q13 -13 17.5 -34t4.5 -49v-46h-134q-29 0 -56 -5t-47 -17q-21 -11 -34 -29.5t-13 -46.5q0 -32 11.5 -53t31.5 -33q21 -13 50 -18t65 -5
q32 0 57.5 5.5t43.5 15.5z" />
    <glyph glyph-name="ccedilla" unicode="&#xe7;" horiz-adv-x="389" 
d="M321 -130q0 16 -9.5 35t-32.5 34q-12 8 -26 20t-15 34q31 0 63 13t53 30l-18 21q-22 -17 -49 -26.5t-57 -9.5q-35 0 -64.5 12.5t-52.5 35.5q-23 22 -36.5 52.5t-13.5 66.5q0 35 13 65.5t36 53.5t53 36t65 13q28 0 52.5 -8.5t45.5 -23.5v-77h26v93q-25 20 -56.5 31.5
t-67.5 11.5q-41 0 -76 -15.5t-62 -41.5t-42 -62t-15 -76q0 -39 14.5 -73t38.5 -60q24 -27 57 -42.5t72 -17.5v-11q0 -20 12.5 -32.5t27.5 -21.5q15 -11 27.5 -25.5t12.5 -40.5q0 -30 -18.5 -49.5t-47.5 -19.5q-23 0 -40 12.5t-23 33.5l-21 -8q10 -32 33.5 -46.5t51.5 -14.5
q37 0 63 24.5t26 73.5z" />
    <glyph glyph-name="egrave" unicode="&#xe8;" horiz-adv-x="438" 
d="M230 356q44 0 80 -25t55 -65q-74 -30 -148 -59.5t-148 -59.5q-11 39 -2.5 76t30.5 66q23 30 57.5 48.5t75.5 18.5zM362 46l-18 21q-22 -22 -51 -34t-63 -12q-52 0 -93 27.5t-60 72.5q82 33 162 65t162 65q-10 29 -26.5 52.5t-36.5 40.5q-22 19 -50 29t-58 10
q-41 0 -76.5 -15.5t-61.5 -41.5q-27 -26 -42 -62t-15 -76q0 -41 15 -76t42 -62q26 -26 61.5 -41.5t76.5 -15.5q39 0 72.5 14t59.5 39zM236 479q-23 33 -45 66.5t-45 66.5h-30q25 -33 48 -66.5t48 -66.5h24z" />
    <glyph glyph-name="eacute" unicode="&#xe9;" horiz-adv-x="438" 
d="M230 356q44 0 80 -25t55 -65q-74 -30 -148 -59.5t-148 -59.5q-11 39 -2.5 76t30.5 66q23 30 57.5 48.5t75.5 18.5zM362 46l-18 21q-22 -22 -51 -34t-63 -12q-52 0 -93 27.5t-60 72.5q82 33 162 65t162 65q-10 29 -26.5 52.5t-36.5 40.5q-22 19 -50 29t-58 10
q-41 0 -76.5 -15.5t-61.5 -41.5q-27 -26 -42 -62t-15 -76q0 -41 15 -76t42 -62q26 -26 61.5 -41.5t76.5 -15.5q39 0 72.5 14t59.5 39zM255 479q24 33 47.5 66.5t47.5 66.5h-30q-23 -33 -45 -66.5t-45 -66.5h25z" />
    <glyph glyph-name="ecircumflex" unicode="&#xea;" horiz-adv-x="438" 
d="M230 356q44 0 80 -25t55 -65q-74 -30 -148 -59.5t-148 -59.5q-11 39 -2.5 76t30.5 66q23 30 57.5 48.5t75.5 18.5zM362 46l-18 21q-22 -22 -51 -34t-63 -12q-52 0 -93 27.5t-60 72.5q82 33 162 65t162 65q-10 29 -26.5 52.5t-36.5 40.5q-22 19 -50 29t-58 10
q-41 0 -76.5 -15.5t-61.5 -41.5q-27 -26 -42 -62t-15 -76q0 -41 15 -76t42 -62q26 -26 61.5 -41.5t76.5 -15.5q39 0 72.5 14t59.5 39zM135 479q24 34 47.5 68.5t47.5 68.5q24 -34 47.5 -68.5t47.5 -68.5h25q-30 45 -60 90.5t-60 90.5q-30 -45 -60 -90.5t-60 -90.5h25z" />
    <glyph glyph-name="edieresis" unicode="&#xeb;" horiz-adv-x="438" 
d="M230 356q44 0 80 -25t55 -65q-74 -30 -148 -59.5t-148 -59.5q-11 39 -2.5 76t30.5 66q23 30 57.5 48.5t75.5 18.5zM362 46l-18 21q-22 -22 -51 -34t-63 -12q-52 0 -93 27.5t-60 72.5q82 33 162 65t162 65q-10 29 -26.5 52.5t-36.5 40.5q-22 19 -50 29t-58 10
q-41 0 -76.5 -15.5t-61.5 -41.5q-27 -26 -42 -62t-15 -76q0 -41 15 -76t42 -62q26 -26 61.5 -41.5t76.5 -15.5q39 0 72.5 14t59.5 39zM342 504q0 11 -8 19t-18 8t-18 -8t-8 -19t8 -18.5t18 -7.5t18 7.5t8 18.5zM177 504q0 11 -8 19t-18 8q-11 0 -19 -8t-8 -19t8 -18.5
t19 -7.5q10 0 18 7.5t8 18.5z" />
    <glyph glyph-name="igrave" unicode="&#xec;" horiz-adv-x="254" 
d="M219 0v27h-76v348h-108v-27h80v-321h-80v-27h184zM139 479q-23 33 -45 66.5t-45 66.5h-30q25 -33 48 -66.5t48 -66.5h24z" />
    <glyph glyph-name="iacute" unicode="&#xed;" horiz-adv-x="254" 
d="M219 0v27h-76v348h-108v-27h80v-321h-80v-27h184zM143 479q24 33 47.5 66.5t47.5 66.5h-30q-23 -33 -45 -66.5t-45 -66.5h25z" />
    <glyph glyph-name="icircumflex" unicode="&#xee;" horiz-adv-x="254" 
d="M219 0v27h-76v348h-108v-27h80v-321h-80v-27h184zM35 479q24 34 47.5 68.5t47.5 68.5q24 -34 47.5 -68.5t47.5 -68.5h25q-30 45 -60 90.5t-60 90.5q-30 -45 -60 -90.5t-60 -90.5h25z" />
    <glyph glyph-name="idieresis" unicode="&#xef;" horiz-adv-x="254" 
d="M219 0v27h-76v348h-108v-27h80v-321h-80v-27h184zM239 504q0 11 -8 19t-18 8t-18 -8t-8 -19t8 -18.5t18 -7.5t18 7.5t8 18.5zM74 504q0 11 -8 19t-18 8q-11 0 -19 -8t-8 -19t8 -18.5t19 -7.5q10 0 18 7.5t8 18.5z" />
    <glyph glyph-name="eth" unicode="&#xf0;" horiz-adv-x="461" 
d="M113 70q-24 22 -37 52.5t-13 65.5t12.5 65.5t35.5 53.5t53 36t66 13q34 0 65 -12.5t54 -35.5t36 -53.5t13 -65.5t-12.5 -65t-35.5 -53t-53.5 -36t-65.5 -13q-36 -1 -66 12t-52 36zM370 52q26 26 41.5 61.5t14.5 76.5q0 53 -15.5 109.5t-42.5 112.5t-62 110t-74 100
q17 19 33.5 37t33.5 37q-4 4 -8.5 8t-9.5 8q-16 -18 -32.5 -35.5t-32.5 -35.5q-24 26 -47.5 47.5t-47.5 39.5l-17 -18q26 -20 49 -42.5t45 -46.5q-18 -19 -36 -38.5t-36 -38.5l18 -17l69 74q36 -41 62.5 -81.5t45.5 -77.5q20 -37 32.5 -70.5t18.5 -59.5q-24 33 -61.5 52.5
t-81.5 19.5q-41 -1 -76 -16.5t-61 -41.5q-27 -26 -42 -62.5t-15 -76.5q0 -41 15.5 -76t42.5 -61t62 -41t77 -15q40 0 76 15.5t62 42.5z" />
    <glyph glyph-name="ntilde" unicode="&#xf1;" horiz-adv-x="534" 
d="M219 0v27h-78v185q0 31 13 57.5t36 45.5q22 18 51 29t62 11q42 -2 65.5 -27.5t25.5 -59.5v-241h-79v-27h184v27h-77v243q-2 50 -33.5 81t-85.5 31q-56 0 -100.5 -28.5t-64.5 -76.5q0 16 -0.5 27.5t-1.5 26.5l-1 44h-95v-27h73v-321h-78v-27h184zM392 465q11 8 19.5 22
t9.5 32l-20 2q-2 -16 -9 -26.5t-17 -15.5q-9 -6 -19 -8.5t-18 -2.5q-14 0 -26 6t-28 23t-33 27t-37 10q-15 0 -29 -4t-26 -13q-12 -8 -20 -22t-9 -32l19 -2q2 15 8.5 25t15.5 16q10 7 20.5 9.5t19.5 2.5q14 0 25.5 -6t27.5 -23t33 -27t38 -10q14 0 28.5 4t26.5 13z" />
    <glyph glyph-name="ograve" unicode="&#xf2;" horiz-adv-x="463" 
d="M371 51q26 26 41.5 61t15.5 76q0 40 -15.5 76t-41.5 63q-27 26 -63.5 41.5t-76.5 15.5q-41 0 -76.5 -15.5t-61.5 -41.5q-27 -27 -42 -63t-15 -76q0 -41 15 -76t42 -61q26 -27 61.5 -42.5t76.5 -15.5q40 0 76.5 15.5t63.5 42.5zM113 70q-23 22 -36 52.5t-13 65.5
q0 34 13 64.5t36 53.5q22 24 52 37t66 13q34 0 64.5 -13t53.5 -37q23 -23 36 -53.5t13 -64.5q0 -35 -13 -65.5t-36 -52.5q-23 -23 -53.5 -36t-64.5 -13q-36 0 -66 13t-52 36zM241 479q-23 33 -45 66.5t-45 66.5h-30q25 -33 48 -66.5t48 -66.5h24z" />
    <glyph glyph-name="oacute" unicode="&#xf3;" horiz-adv-x="463" 
d="M371 51q26 26 41.5 61t15.5 76q0 40 -15.5 76t-41.5 63q-27 26 -63.5 41.5t-76.5 15.5q-41 0 -76.5 -15.5t-61.5 -41.5q-27 -27 -42 -63t-15 -76q0 -41 15 -76t42 -61q26 -27 61.5 -42.5t76.5 -15.5q40 0 76.5 15.5t63.5 42.5zM113 70q-23 22 -36 52.5t-13 65.5
q0 34 13 64.5t36 53.5q22 24 52 37t66 13q34 0 64.5 -13t53.5 -37q23 -23 36 -53.5t13 -64.5q0 -35 -13 -65.5t-36 -52.5q-23 -23 -53.5 -36t-64.5 -13q-36 0 -66 13t-52 36zM256 479q24 33 47.5 66.5t47.5 66.5h-30q-23 -33 -45 -66.5t-45 -66.5h25z" />
    <glyph glyph-name="ocircumflex" unicode="&#xf4;" horiz-adv-x="463" 
d="M371 51q26 26 41.5 61t15.5 76q0 40 -15.5 76t-41.5 63q-27 26 -63.5 41.5t-76.5 15.5q-41 0 -76.5 -15.5t-61.5 -41.5q-27 -27 -42 -63t-15 -76q0 -41 15 -76t42 -61q26 -27 61.5 -42.5t76.5 -15.5q40 0 76.5 15.5t63.5 42.5zM113 70q-23 22 -36 52.5t-13 65.5
q0 34 13 64.5t36 53.5q22 24 52 37t66 13q34 0 64.5 -13t53.5 -37q23 -23 36 -53.5t13 -64.5q0 -35 -13 -65.5t-36 -52.5q-23 -23 -53.5 -36t-64.5 -13q-36 0 -66 13t-52 36zM140 479q24 34 47.5 68.5t47.5 68.5q24 -34 47.5 -68.5t47.5 -68.5h25q-30 45 -60 90.5t-60 90.5
q-30 -45 -60 -90.5t-60 -90.5h25z" />
    <glyph glyph-name="otilde" unicode="&#xf5;" horiz-adv-x="463" 
d="M371 51q26 26 41.5 61t15.5 76q0 40 -15.5 76t-41.5 63q-27 26 -63.5 41.5t-76.5 15.5q-41 0 -76.5 -15.5t-61.5 -41.5q-27 -27 -42 -63t-15 -76q0 -41 15 -76t42 -61q26 -27 61.5 -42.5t76.5 -15.5q40 0 76.5 15.5t63.5 42.5zM113 70q-23 22 -36 52.5t-13 65.5
q0 34 13 64.5t36 53.5q22 24 52 37t66 13q34 0 64.5 -13t53.5 -37q23 -23 36 -53.5t13 -64.5q0 -35 -13 -65.5t-36 -52.5q-23 -23 -53.5 -36t-64.5 -13q-36 0 -66 13t-52 36zM358 474q11 8 19.5 22t9.5 32l-20 2q-2 -16 -9 -26.5t-17 -15.5q-9 -6 -19 -8.5t-18 -2.5
q-14 0 -26 6t-28 23t-33 27t-37 10q-15 0 -29 -4t-26 -13q-12 -8 -20 -22t-9 -32l19 -2q2 15 8.5 25t15.5 16q10 7 20.5 9.5t19.5 2.5q14 0 25.5 -6t27.5 -23t33 -27t38 -10q14 0 28.5 4t26.5 13z" />
    <glyph glyph-name="odieresis" unicode="&#xf6;" horiz-adv-x="463" 
d="M371 51q26 26 41.5 61t15.5 76q0 40 -15.5 76t-41.5 63q-27 26 -63.5 41.5t-76.5 15.5q-41 0 -76.5 -15.5t-61.5 -41.5q-27 -27 -42 -63t-15 -76q0 -41 15 -76t42 -61q26 -27 61.5 -42.5t76.5 -15.5q40 0 76.5 15.5t63.5 42.5zM113 70q-23 22 -36 52.5t-13 65.5
q0 34 13 64.5t36 53.5q22 24 52 37t66 13q34 0 64.5 -13t53.5 -37q23 -23 36 -53.5t13 -64.5q0 -35 -13 -65.5t-36 -52.5q-23 -23 -53.5 -36t-64.5 -13q-36 0 -66 13t-52 36zM343 504q0 11 -8 19t-18 8t-18 -8t-8 -19t8 -18.5t18 -7.5t18 7.5t8 18.5zM178 504q0 11 -8 19
t-18 8q-11 0 -19 -8t-8 -19t8 -18.5t19 -7.5q10 0 18 7.5t8 18.5z" />
    <glyph glyph-name="divide" unicode="&#xf7;" horiz-adv-x="501" 
d="M428 209v28h-360v-28h360zM277 347q0 12 -8 19.5t-18 7.5t-18 -7.5t-8 -19.5q0 -11 8 -18.5t18 -7.5t18 7.5t8 18.5zM277 97q0 12 -8 19.5t-18 7.5t-18 -7.5t-8 -19.5q0 -11 8 -18.5t18 -7.5t18 7.5t8 18.5z" />
    <glyph glyph-name="oslash" unicode="&#xf8;" horiz-adv-x="461" 
d="M63 188q0 35 13 65.5t36 53.5q22 23 52.5 36t65.5 13q26 0 49.5 -8t43.5 -21q-53 -64 -106.5 -128t-107.5 -127q-21 22 -33.5 52t-12.5 64zM126 57q56 67 107.5 128t107.5 128q26 -23 41.5 -55t15.5 -70q0 -36 -13.5 -67t-37.5 -53q-23 -22 -53 -34.5t-64 -12.5
q-29 0 -55.5 9t-48.5 27zM108 36q25 -20 56 -31.5t66 -11.5q41 0 77 15.5t62 42.5q26 26 41.5 61t15.5 76q0 44 -18 82.5t-49 64.5q8 9 16 18.5t16 18.5q-4 4 -8.5 7.5t-8.5 7.5q-8 -10 -16 -19.5t-16 -19.5q-23 17 -52 26t-60 9q-41 0 -76.5 -15.5t-61.5 -41.5
q-27 -26 -42 -62t-15 -76q0 -41 15 -76.5t41 -61.5q-10 -12 -19.5 -23.5t-19.5 -24.5q3 -3 7.5 -6.5t8.5 -7.5q10 12 19.5 24t20.5 24z" />
    <glyph glyph-name="ugrave" unicode="&#xf9;" horiz-adv-x="529" 
d="M395 98l1 -45l2 -53h96v25h-74v350h-105v-27h77v-185q0 -31 -13.5 -57.5t-35.5 -44.5q-22 -19 -51 -30t-62 -11q-42 2 -65.5 27.5t-25.5 59.5v268h-104v-27h76v-243q2 -50 33.5 -81t85.5 -31q56 0 100.5 28.5t64.5 76.5zM266 479q-23 33 -45 66.5t-45 66.5h-30
q25 -33 48 -66.5t48 -66.5h24z" />
    <glyph glyph-name="uacute" unicode="&#xfa;" horiz-adv-x="529" 
d="M395 98l1 -45l2 -53h96v25h-74v350h-105v-27h77v-185q0 -31 -13.5 -57.5t-35.5 -44.5q-22 -19 -51 -30t-62 -11q-42 2 -65.5 27.5t-25.5 59.5v268h-104v-27h76v-243q2 -50 33.5 -81t85.5 -31q56 0 100.5 28.5t64.5 76.5zM256 479q24 33 47.5 66.5t47.5 66.5h-30
q-23 -33 -45 -66.5t-45 -66.5h25z" />
    <glyph glyph-name="ucircumflex" unicode="&#xfb;" horiz-adv-x="529" 
d="M395 98l1 -45l2 -53h96v25h-74v350h-105v-27h77v-185q0 -31 -13.5 -57.5t-35.5 -44.5q-22 -19 -51 -30t-62 -11q-42 2 -65.5 27.5t-25.5 59.5v268h-104v-27h76v-243q2 -50 33.5 -81t85.5 -31q56 0 100.5 28.5t64.5 76.5zM171 479q24 34 47.5 68.5t47.5 68.5
q24 -34 47.5 -68.5t47.5 -68.5h25q-30 45 -60 90.5t-60 90.5q-30 -45 -60 -90.5t-60 -90.5h25z" />
    <glyph glyph-name="udieresis" unicode="&#xfc;" horiz-adv-x="529" 
d="M395 98l1 -45l2 -53h96v25h-74v350h-105v-27h77v-185q0 -31 -13.5 -57.5t-35.5 -44.5q-22 -19 -51 -30t-62 -11q-42 2 -65.5 27.5t-25.5 59.5v268h-104v-27h76v-243q2 -50 33.5 -81t85.5 -31q56 0 100.5 28.5t64.5 76.5zM369 504q0 11 -8 19t-18 8t-18 -8t-8 -19t8 -18.5
t18 -7.5t18 7.5t8 18.5zM204 504q0 11 -8 19t-18 8q-11 0 -19 -8t-8 -19t8 -18.5t19 -7.5q10 0 18 7.5t8 18.5z" />
    <glyph glyph-name="yacute" unicode="&#xfd;" horiz-adv-x="595" 
d="M276 -250v27h-69q72 144 142 285.5t142 285.5h69v27h-157v-27h57q-41 -81 -81.5 -162.5t-78.5 -159.5q-38 81 -78.5 161t-80.5 161h67v27h-173v-27h74q44 -89 87.5 -176t88.5 -175q-28 -54 -55.5 -109.5t-54.5 -110.5h-83v-27h184zM323 479q24 33 47.5 66.5t47.5 66.5
h-30q-23 -33 -45 -66.5t-45 -66.5h25z" />
    <glyph glyph-name="thorn" unicode="&#xfe;" horiz-adv-x="500" 
d="M204 -250v27h-82v269q0 15 -0.5 27.5t-1.5 24.5q9 -22 25 -41.5t38 -33.5q22 -15 49 -23t57 -8q40 0 76 15.5t63 41.5q26 26 41 61.5t15 76.5q0 40 -15 75.5t-41 62.5q-27 26 -63 41t-76 15q-59 0 -104.5 -30.5t-64.5 -77.5q0 14 0.5 29t0.5 30v391h79v27h-184v-27h77
v-946h-77v-27h188zM289 354q34 0 64 -12.5t53 -33.5q23 -23 36.5 -54t13.5 -67t-13 -66.5t-36 -53.5q-23 -22 -53.5 -35t-64.5 -13q-35 0 -65 13t-53 35q-23 23 -36.5 53.5t-13.5 66.5q0 35 13 65t35 53q23 23 53.5 36t66.5 13z" />
    <glyph glyph-name="ydieresis" unicode="&#xff;" horiz-adv-x="595" 
d="M276 -250v27h-69q72 144 142 285.5t142 285.5h69v27h-157v-27h57q-41 -81 -81.5 -162.5t-78.5 -159.5q-38 81 -78.5 161t-80.5 161h67v27h-173v-27h74q44 -89 87.5 -176t88.5 -175q-28 -54 -55.5 -109.5t-54.5 -110.5h-83v-27h184zM411 504q0 11 -8 19t-18 8t-18 -8
t-8 -19t8 -18.5t18 -7.5t18 7.5t8 18.5zM246 504q0 11 -8 19t-18 8q-11 0 -19 -8t-8 -19t8 -18.5t19 -7.5q10 0 18 7.5t8 18.5z" />
    <glyph glyph-name="dotlessi" unicode="&#x131;" horiz-adv-x="254" 
d="M219 0v27h-76v348h-108v-27h80v-321h-80v-27h184z" />
    <glyph glyph-name="ring" unicode="&#x2da;" horiz-adv-x="370" 
d="M139 540q0 18 13 32t33 14t33 -14t13 -32q0 -19 -13.5 -32.5t-32.5 -13.5q-21 0 -33.5 14.5t-12.5 31.5zM253 540q0 16 -6 28.5t-16 22.5q-9 8 -21 12.5t-25 4.5q-16 0 -28.5 -6t-22.5 -16q-8 -9 -12.5 -21t-4.5 -25q0 -16 6 -28.5t16 -22.5q9 -8 21 -12.5t25 -4.5
t25 4.5t21 12.5q10 10 16 22.5t6 28.5z" />
    <glyph glyph-name="endash" unicode="&#x2013;" horiz-adv-x="509" 
d="M401 178v28h-301v-28h301z" />
    <glyph glyph-name="emdash" unicode="&#x2014;" horiz-adv-x="700" 
d="M601 178v28h-502v-28h502z" />
    <glyph glyph-name="quoteleft" unicode="&#x2018;" horiz-adv-x="164" 
d="M97 590q-21 20 -30.5 49.5t-2.5 64.5q-7 2 -13 3.5t-13 3.5q-8 -40 4.5 -77t41.5 -63z" />
    <glyph glyph-name="quoteright" unicode="&#x2019;" horiz-adv-x="164" 
d="M113 711q-7 -2 -13 -3.5t-13 -3.5q7 -35 -2.5 -64.5t-30.5 -49.5l13 -19q29 26 41.5 63t4.5 77z" />
    <glyph glyph-name="quotesinglbase" unicode="&#x201a;" horiz-adv-x="146" 
d="M78 92q-6 -2 -12.5 -3.5t-12.5 -3.5q7 -35 -2.5 -64.5t-30.5 -49.5l13 -19q29 26 41 63t4 77z" />
    <glyph glyph-name="quotedblleft" unicode="&#x201c;" horiz-adv-x="249" 
d="M194 590q-21 20 -30.5 49.5t-2.5 64.5q-7 2 -13 3.5t-13 3.5q-8 -40 4.5 -77t41.5 -63zM90 590q-21 20 -30.5 49.5t-2.5 64.5q-7 2 -13 3.5t-13 3.5q-8 -40 4.5 -77t41.5 -63z" />
    <glyph glyph-name="quotedblright" unicode="&#x201d;" horiz-adv-x="248" 
d="M96 711q-7 -2 -13 -3.5t-13 -3.5q7 -35 -2.5 -64.5t-30.5 -49.5l13 -19q29 26 41.5 63t4.5 77zM200 711q-7 -2 -13 -3.5t-13 -3.5q7 -35 -2.5 -64.5t-30.5 -49.5l13 -19q29 26 41.5 63t4.5 77z" />
    <glyph glyph-name="quotedblbase" unicode="&#x201e;" horiz-adv-x="256" 
d="M78 92q-6 -2 -12.5 -3.5t-12.5 -3.5q7 -35 -2.5 -64.5t-30.5 -49.5l13 -19q29 26 41 63t4 77zM182 92q-6 -2 -12.5 -3.5t-12.5 -3.5q7 -35 -2.5 -64.5t-30.5 -49.5l13 -19q29 26 41 63t4 77z" />
    <glyph glyph-name="bullet" unicode="&#x2022;" horiz-adv-x="479" 
d="M239 223q16 0 30 5.5t24 14.5q12 11 18.5 25.5t6.5 31.5t-6.5 32t-17.5 26q-11 9 -25 15t-30 6t-31 -6.5t-25 -17.5t-15.5 -25t-5.5 -30q0 -17 6.5 -32t18.5 -25q10 -10 23.5 -15t28.5 -5z" />
    <glyph glyph-name="guilsinglleft" unicode="&#x2039;" horiz-adv-x="392" 
d="M117 239l171 -162v32q-31 33 -63 65t-63 65q31 32 63 64t63 64v33q-43 -41 -85.5 -80.5t-85.5 -80.5z" />
    <glyph glyph-name="guilsinglright" unicode="&#x203a;" horiz-adv-x="392" 
d="M288.015 239l-170.979 -162v32q30.9961 33 62.9922 65t62.9922 65q-30.9961 32 -62.9922 64t-62.9922 64v33q42.9951 -41 85.4893 -80.5q42.4951 -39.5 85.4902 -80.5z" />
    <glyph glyph-name="OE" unicode="&#x152;" horiz-adv-x="929" 
d="M835 599h27v102l-368 -1q-21 4 -40.5 5.5t-39.5 1.5q-74 0 -139 -27.5t-114 -76.5t-77 -114.5t-28 -139.5t28 -139.5t76 -113.5q49 -49 113.5 -76.5t141.5 -27.5q23 0 42 2t40 6h379v102h-27v-75h-327v312h301v27h-301v307h313v-74zM84 348q0 69 26 130t72 106
q45 45 104.5 71t128.5 26q21 0 39 -2t40 -6v-646q-19 -4 -37.5 -6t-44.5 -2q-69 0 -128.5 25.5t-104.5 70.5q-44 44 -69.5 104.5t-25.5 128.5z" />
    <glyph glyph-name="oe" unicode="&#x153;" horiz-adv-x="662" 
d="M594 46l-19 20q-22 -22 -51 -33.5t-62 -11.5q-53 0 -93.5 27.5t-59.5 72.5q36 15 76.5 31.5t81.5 32.5q43 17 85 34t80 32q-10 29 -26 53t-37 42q-22 18 -48.5 28t-58.5 10t-60.5 -9t-51.5 -26q-23 17 -51.5 26t-60.5 9q-41 0 -76.5 -15.5t-61.5 -41.5q-27 -27 -42 -63
t-15 -76q0 -41 15 -76t42 -61q26 -27 61.5 -42.5t76.5 -15.5q32 0 60.5 9t51.5 25q23 -16 51.5 -25t60.5 -9q39 0 73 14t59 39zM238 356q25 0 48.5 -7t42.5 -21q-29 -25 -45.5 -61.5t-16.5 -78.5q0 -43 16.5 -79t45.5 -62q-20 -13 -43 -19.5t-48 -6.5q-35 0 -65.5 13
t-52.5 36q-23 22 -36 52.5t-13 65.5q0 34 13 64.5t36 53.5q22 24 52.5 37t65.5 13zM596 266l-72.5 -29t-75.5 -30t-75.5 -30.5t-72.5 -29.5q-2 11 -3.5 23t-1.5 25q1 32 13.5 60.5t34.5 50.5q22 23 52.5 36.5t66.5 13.5q47 0 80.5 -25.5t53.5 -64.5z" />
    <glyph glyph-name="circumflex" unicode="&#x2c6;" horiz-adv-x="438" 
d="M224 612l-120 -133h25l95 90l96 -90h24z" />
    <glyph glyph-name="tilde" unicode="&#x2dc;" horiz-adv-x="568" 
d="M288 484q16 -16 33 -26.5t38 -10.5q14 0 28 4t27 13q11 9 19 22.5t9 31.5l-19 3q-2 -17 -9 -27t-17 -16q-9 -6 -19.5 -8.5t-17.5 -2.5q-14 0 -26 6t-28 24q-16 16 -33 26.5t-38 10.5q-14 0 -28 -4t-26 -13t-20 -22.5t-9 -32.5l19 -2q2 16 8.5 25.5t15.5 15.5
q10 7 20.5 9.5t18.5 2.5q14 0 26 -5.5t28 -23.5z" />
    <glyph glyph-name="ellipsis" unicode="&#x2026;" horiz-adv-x="521" 
d="M70 24q0 -10 7 -17t17 -7t17.5 7t7.5 17t-7.5 17.5t-17.5 7.5t-17 -7.5t-7 -17.5zM235 24q0 -10 7.5 -17t17.5 -7q9 0 17 7t8 17t-8 17.5t-17 7.5q-10 0 -17.5 -7.5t-7.5 -17.5zM401 24q0 -10 7.5 -17t17.5 -7q9 0 16.5 7t7.5 17t-7.5 17.5t-16.5 7.5q-10 0 -17.5 -7.5
t-7.5 -17.5z" />
    <glyph glyph-name="fraction" unicode="&#x2044;" horiz-adv-x="325" 
d="M9 0h29l278 755h-29z" />
    <glyph glyph-name="uni2074" unicode="&#x2074;" horiz-adv-x="406" 
d="M282 380v12h-40v77h47v14h-47v221l-174 -235h160v-77h-37v-12h91zM228 664v-181h-132z" />
    <glyph glyph-name="Euro" unicode="&#x20ac;" horiz-adv-x="554" 
d="M48 403v-28h64q-1 -13 -1.5 -25t-0.5 -23v-18.5v-17.5h-61v-28h65q8 -56 30.5 -104t55.5 -83q35 -39 80 -61t95 -22q32 0 62.5 9t58.5 26l-20 19q-23 -14 -48 -20.5t-52 -6.5q-42 0 -82 19.5t-72 54.5q-30 30 -50.5 73t-27.5 96h232v28h-235q-1 9 -1.5 18t-0.5 19
q0 12 1 23.5t2 23.5h234v28h-230q9 50 28.5 91.5t47.5 70.5q32 33 72 49t86 16q24 0 46.5 -4.5t43.5 -14.5l11 23q-9 6 -35.5 15t-64.5 9q-61 0 -108 -24t-80 -63q-31 -36 -49 -80.5t-27 -87.5h-69z" />
    <glyph glyph-name="minus" unicode="&#x2212;" horiz-adv-x="524" 
d="M442 187v27h-360v-27h360z" />
    <glyph glyph-name="uni2215" unicode="&#x2215;" horiz-adv-x="312" 
d="M38 -19l278 754h-28l-278 -754h28z" />
  </font>
</defs>
</svg>
