<?xml version="1.0" standalone="no"?>
<!DOCTYPE svg PUBLIC "-//W3C//DTD SVG 1.1//EN" "http://www.w3.org/Graphics/SVG/1.1/DTD/svg11.dtd" >
<svg xmlns="http://www.w3.org/2000/svg" xmlns:xlink="http://www.w3.org/1999/xlink" version="1.1">
<metadata>
Created by FontForge 20170924 at Thu Jun 15 14:35:45 2006
 By Glenn,,,
Copyright (c) 2005 by Jess Latham. All rights reserved.
</metadata>
<defs>
<font id="PrintClearly" horiz-adv-x="412" >
  <font-face 
    font-family="Print Clearly"
    font-weight="400"
    font-stretch="normal"
    units-per-em="1000"
    panose-1="2 0 0 0 0 0 0 0 0 0"
    ascent="755"
    descent="-245"
    x-height="318"
    cap-height="604"
    bbox="-11 -207 962 791"
    underline-thickness="50"
    underline-position="-100"
    unicode-range="U+000D-FB02"
  />
<missing-glyph horiz-adv-x="363" 
 />
    <glyph glyph-name="fl" unicode="fl" horiz-adv-x="597" 
d="M285 328c0 -8 -7 -14 -14 -14h-101v-307c0 -7 -6 -14 -14 -14s-14 7 -14 14v307h-64c-8 0 -14 6 -14 14s6 14 14 14h64v163c0 68 44 104 111 104c35 0 93 -24 111 -55c2 -3 3 -5 3 -9c0 -7 -6 -14 -14 -14c-12 0 -40 50 -99 50c-45 0 -84 -21 -84 -70v-169h101
c7 0 14 -6 14 -14zM514 607c8 0 14 -7 14 -14v-586c0 -7 -6 -14 -14 -14s-14 7 -14 14v586c0 7 6 14 14 14z" />
    <glyph glyph-name=".notdef" horiz-adv-x="363" 
 />
    <glyph glyph-name=".null" horiz-adv-x="0" 
 />
    <glyph glyph-name="CR" unicode="&#xd;" horiz-adv-x="297" 
 />
    <glyph glyph-name="space" unicode=" " horiz-adv-x="297" 
 />
    <glyph glyph-name="onehalf" unicode="&#xbd;" horiz-adv-x="609" 
d="M136 358c11 0 28 2 28 -14c0 -8 -7 -14 -14 -14h-55c-8 0 -14 6 -14 14c0 16 17 14 27 14v247c-6 -4 -17 -14 -25 -14s-14 6 -14 14c0 4 2 9 6 11c9 6 37 29 47 29c8 0 14 -6 14 -14v0v-273zM122 -12c-7 0 -14 6 -14 14c0 9 258 545 280 591c2 5 7 8 13 8
c7 0 13 -6 13 -14c0 -9 -257 -545 -279 -591c-2 -5 -7 -8 -13 -8zM540 223c0 -116 -142 -109 -154 -196h137c8 0 14 -6 14 -14s-6 -14 -14 -14h-153c-1 0 -3 1 -5 1l-4 3l-3 4l-2 6c0 123 156 107 156 211c0 36 -28 66 -64 66s-65 -30 -65 -66c0 -7 -6 -14 -14 -14
c-7 0 -14 7 -14 14c0 51 41 94 93 94s92 -43 92 -95z" />
    <glyph glyph-name="onequarter" unicode="&#xbc;" horiz-adv-x="594" 
d="M136 358c11 0 28 2 28 -14c0 -8 -7 -14 -14 -14h-55c-8 0 -14 6 -14 14c0 16 17 14 27 14v247c-6 -4 -17 -14 -25 -14s-14 6 -14 14c0 4 2 9 6 11c9 6 37 29 47 29c8 0 14 -6 14 -14v0v-273zM122 -12c-7 0 -14 6 -14 14c0 9 258 545 280 591c2 5 7 8 13 8
c7 0 13 -6 13 -14c0 -9 -257 -545 -279 -591c-2 -5 -7 -8 -13 -8zM525 166c0 -19 -25 -14 -36 -14v-139c0 -8 -6 -14 -14 -14s-14 6 -14 14v139h-112c-8 0 -14 6 -14 14c0 18 21 121 25 144c1 7 7 12 14 12s14 -7 14 -14c0 -18 -18 -105 -22 -128h95v128c0 7 6 14 14 14
s14 -7 14 -14v-128c11 0 36 5 36 -14z" />
    <glyph glyph-name="Zcaron" unicode="&#x17d;" horiz-adv-x="495" 
d="M426 589c0 -11 -293 -511 -319 -556h295c8 0 14 -7 14 -14c0 -8 -6 -14 -14 -14h-319c-8 0 -14 6 -14 14c0 11 293 511 319 556h-294c-8 0 -14 7 -14 14c0 8 6 14 14 14h318c8 0 14 -6 14 -14zM266 639h-25c-9 14 -61 85 -61 97c0 8 6 14 14 14c5 0 9 -2 12 -6l47 -72
l48 72c3 4 7 6 12 6c8 0 14 -6 14 -14c0 -12 -52 -83 -61 -97z" />
    <glyph glyph-name="zcaron" unicode="&#x17e;" horiz-adv-x="408" 
d="M339 304c0 -4 -2 -7 -4 -9l-222 -264h201c8 0 14 -6 14 -14c0 -7 -6 -14 -14 -14h-231c-8 0 -14 7 -14 14c0 4 1 7 3 9l222 264h-201c-7 0 -14 6 -14 14c0 7 7 14 14 14h232c7 0 14 -7 14 -14zM207 363c-4 0 -9 2 -12 6c-9 14 -61 85 -61 97c0 8 6 14 14 14
c5 0 9 -2 12 -6l47 -72l48 72c3 4 7 6 12 6c7 0 14 -6 14 -14c0 -12 -52 -83 -61 -97c-3 -4 -8 -6 -13 -6z" />
    <glyph glyph-name="onesuperior" unicode="&#xb9;" horiz-adv-x="233" 
d="M136 312c11 0 28 2 28 -14c0 -8 -7 -14 -14 -14h-55c-8 0 -14 6 -14 14c0 16 17 14 27 14v247c-6 -4 -17 -15 -25 -15s-14 7 -14 14c0 5 2 9 6 12c9 6 37 29 47 29c8 0 14 -6 14 -14v0v-273z" />
    <glyph glyph-name="threequarters" unicode="&#xbe;" horiz-adv-x="684" 
d="M212 -12c-7 0 -13 6 -13 14c0 9 257 545 279 591c2 5 7 8 13 8c7 0 14 -6 14 -14c0 -9 -258 -545 -280 -591c-2 -5 -7 -8 -13 -8zM615 166c0 -19 -25 -14 -36 -14v-139c0 -8 -6 -14 -14 -14c-7 0 -14 6 -14 14v139h-112c-7 0 -14 6 -14 14c0 18 21 121 25 144
c1 7 7 12 14 12c8 0 14 -7 14 -14c0 -18 -18 -105 -22 -128h95v128c0 7 7 14 14 14c8 0 14 -7 14 -14v-128c11 0 36 5 36 -14zM167 304c38 0 70 29 70 67c0 39 -32 68 -70 68c-8 0 -14 6 -14 14s6 14 14 14c32 0 63 22 63 56c0 33 -31 56 -63 56c-31 0 -63 -23 -63 -56
c0 -8 -6 -14 -14 -14c-7 0 -14 6 -14 14c0 49 44 84 91 84s91 -35 91 -84c0 -29 -16 -55 -40 -70c29 -17 47 -48 47 -82c0 -53 -45 -95 -98 -95s-98 42 -98 95c0 8 6 14 14 14s14 -6 14 -14c0 -38 33 -67 70 -67z" />
    <glyph glyph-name="threesuperior" unicode="&#xb3;" horiz-adv-x="334" 
d="M167 304c38 0 70 29 70 67s-32 68 -70 68c-8 0 -14 6 -14 14c0 7 6 14 14 14c32 0 63 22 63 56c0 33 -31 55 -63 55c-31 0 -63 -22 -63 -55c0 -8 -6 -14 -14 -14c-7 0 -14 6 -14 14c0 49 44 83 91 83s91 -34 91 -83c0 -29 -16 -55 -40 -70c29 -17 47 -48 47 -82
c0 -53 -45 -95 -98 -95s-98 42 -98 95c0 8 6 14 14 14s14 -6 14 -14c0 -38 33 -67 70 -67z" />
    <glyph glyph-name="twosuperior" unicode="&#xb2;" horiz-adv-x="323" 
d="M254 510c0 -116 -142 -109 -155 -196h138c7 0 14 -7 14 -14c0 -8 -7 -14 -14 -14h-153c-1 0 -4 1 -5 1l-5 3l-3 4l-1 6c0 123 156 107 156 211c0 36 -28 66 -65 66c-36 0 -64 -30 -64 -66c0 -7 -6 -14 -14 -14s-14 7 -14 14c0 51 41 94 92 94c53 0 93 -43 93 -95z" />
    <glyph glyph-name="brokenbar" unicode="&#xa6;" horiz-adv-x="166" 
d="M83 119c8 0 14 -6 14 -14v-294c0 -8 -6 -14 -14 -14s-14 6 -14 14v294c0 8 6 14 14 14zM83 610c8 0 14 -7 14 -14v-295c0 -7 -6 -14 -14 -14s-14 7 -14 14v295c0 7 6 14 14 14z" />
    <glyph glyph-name="minus" unicode="&#x2212;" horiz-adv-x="363" 
d="M83 310c-8 0 -14 7 -14 14c0 8 6 14 14 14h198c7 0 13 -6 13 -14c0 -7 -6 -14 -13 -14h-198z" />
    <glyph glyph-name="multiply" unicode="&#xd7;" horiz-adv-x="358" 
d="M181 302l-88 -89c-6 -5 -15 -5 -20 0s-5 14 0 20l89 88l-89 89c-5 5 -5 14 0 20c5 5 14 5 20 0l88 -89l89 89c5 5 14 5 19 0c6 -6 6 -15 0 -20l-88 -89l88 -88c6 -6 6 -15 0 -20c-5 -5 -14 -5 -19 0z" />
    <glyph glyph-name="thorn" unicode="&#xfe;" horiz-adv-x="462" 
d="M83 603c8 0 14 -6 14 -14v-342c28 52 80 87 140 87c94 0 161 -84 161 -174s-67 -174 -161 -174c-60 0 -112 36 -140 88v-257c0 -7 -6 -14 -14 -14s-14 7 -14 14v772c0 8 6 14 14 14zM237 306c-79 0 -134 -71 -134 -146c0 -74 55 -146 134 -146c78 0 133 72 133 146
c0 75 -55 146 -133 146z" />
    <glyph glyph-name="exclam" unicode="!" horiz-adv-x="184" 
d="M92 117c-8 0 -14 7 -14 15v466c0 7 6 14 14 14c7 0 14 -7 14 -14v-466c0 -8 -7 -15 -14 -15zM92 41c12 0 23 -10 23 -22c0 -13 -11 -23 -23 -23c-13 0 -23 10 -23 23c0 12 10 22 23 22z" />
    <glyph glyph-name="quotedbl" unicode="&#x22;" horiz-adv-x="236" 
d="M153 610c8 0 14 -6 14 -14v-162c0 -8 -6 -14 -14 -14s-14 6 -14 14v162c0 8 6 14 14 14zM83 610c8 0 14 -6 14 -14v-162c0 -8 -6 -14 -14 -14s-14 6 -14 14v162c0 8 6 14 14 14z" />
    <glyph glyph-name="numbersign" unicode="#" horiz-adv-x="458" 
d="M151 377l-19 -79c-1 -7 -7 -11 -13 -11c-8 0 -14 6 -14 14s14 64 17 76h-39c-8 0 -14 6 -14 14c0 7 6 14 14 14h46l20 86h-66c-8 0 -14 6 -14 13c0 8 6 14 14 14h72l19 80c1 6 7 10 13 10c8 0 14 -6 14 -14s-15 -64 -17 -76h123l19 80c1 6 7 10 13 10c8 0 14 -6 14 -14
s-14 -64 -17 -76h39c8 0 14 -6 14 -14c0 -7 -6 -13 -14 -13h-46l-20 -86h66c8 0 14 -7 14 -14c0 -8 -6 -14 -14 -14h-72l-19 -79c-1 -7 -7 -11 -13 -11c-8 0 -14 6 -14 14s14 64 17 76h-123zM177 491l-20 -86h124l20 86h-124z" />
    <glyph glyph-name="dollar" unicode="$" horiz-adv-x="487" 
d="M83 176c9 0 13 -7 14 -14c1 -9 0 -19 2 -28c6 -42 28 -76 63 -99c18 -12 40 -19 62 -22v294c-77 25 -155 63 -155 157c0 86 72 148 155 150c0 11 -5 39 14 39s14 -29 14 -41c84 -10 140 -77 140 -161c0 -8 -7 -13 -14 -13c-10 0 -12 6 -14 14c-2 11 -2 24 -5 36
c-14 54 -51 88 -107 96v-257c83 -30 166 -84 166 -182s-71 -160 -166 -161v-103c0 -7 -6 -14 -14 -14c-7 0 -14 7 -14 14v104c-95 12 -155 82 -155 177c0 8 7 14 14 14zM224 586c-67 -2 -127 -52 -127 -122c0 -76 65 -107 127 -128v250zM252 297v-285c80 1 138 51 138 134
c0 80 -71 126 -138 151z" />
    <glyph glyph-name="percent" unicode="%" horiz-adv-x="731" 
d="M200 271c-87 0 -131 99 -131 173s44 173 131 173c86 0 130 -99 130 -173s-44 -173 -130 -173zM200 589c-71 0 -103 -86 -103 -145c0 -58 32 -145 103 -145c70 0 102 87 102 145c0 59 -32 145 -102 145zM401 144c0 74 44 172 130 172c87 0 131 -98 131 -172
c0 -75 -44 -173 -131 -173c-86 0 -130 98 -130 173zM531 289c-70 0 -103 -87 -103 -145c0 -59 33 -145 103 -145s103 86 103 145c0 58 -33 145 -103 145zM229 -12c-7 0 -14 6 -14 14c0 9 258 545 280 591c2 5 7 8 13 8c7 0 13 -6 13 -14c0 -9 -257 -545 -279 -591
c-2 -5 -7 -8 -13 -8z" />
    <glyph glyph-name="ampersand" unicode="&#x26;" horiz-adv-x="776" 
d="M303 -66c-79 0 -180 23 -217 101c-10 22 -17 46 -17 71c0 98 109 170 182 219c-36 45 -74 104 -74 163c0 82 74 134 151 134c70 0 122 -43 122 -115c0 -88 -94 -144 -158 -188c81 -90 184 -164 284 -231c30 43 47 95 47 147c0 23 -4 44 -9 66c-1 2 -1 3 -1 5
c0 7 6 14 14 14c22 0 23 -72 23 -85c0 -58 -18 -115 -50 -163c31 -21 72 -43 101 -65c4 -3 6 -7 6 -12c0 -7 -6 -14 -13 -14c-9 0 -97 60 -111 69c-66 -83 -177 -116 -280 -116zM205 489c0 -53 36 -109 68 -148c55 36 149 92 149 166c0 57 -40 87 -94 87
c-61 0 -123 -40 -123 -105zM269 304c-64 -43 -172 -112 -172 -200c0 -109 116 -142 205 -142c93 0 197 29 258 103c-103 70 -208 146 -291 239z" />
    <glyph glyph-name="quotesingle" unicode="'" horiz-adv-x="166" 
d="M83 610c8 0 14 -6 14 -14v-162c0 -8 -6 -14 -14 -14s-14 6 -14 14v162c0 8 6 14 14 14z" />
    <glyph glyph-name="parenleft" unicode="(" horiz-adv-x="308" 
d="M225 -207c-91 0 -132 171 -143 238c-9 53 -13 107 -13 161s4 108 13 162c11 66 52 238 143 238c7 0 14 -7 14 -14c0 -8 -7 -14 -14 -14c-72 0 -109 -170 -117 -220s-11 -101 -11 -152s3 -102 11 -152s45 -220 117 -220c7 0 14 -6 14 -13c0 -8 -7 -14 -14 -14z" />
    <glyph glyph-name="parenright" unicode=")" horiz-adv-x="308" 
d="M83 -207c-8 0 -14 6 -14 14c0 7 6 13 14 13c71 0 109 170 117 220s11 101 11 152s-3 102 -11 152s-46 220 -117 220c-8 0 -14 6 -14 14c0 7 6 14 14 14c90 0 132 -172 143 -238c9 -54 13 -108 13 -162s-4 -108 -13 -161c-11 -67 -53 -238 -143 -238z" />
    <glyph glyph-name="asterisk" unicode="*" 
d="M83 340c-8 0 -14 6 -14 14c0 5 2 9 6 12l111 74l-111 75c-4 3 -6 7 -6 12c0 8 6 14 14 14c11 0 95 -62 110 -72v115c0 8 6 14 14 14s14 -6 14 -14v-120c15 10 97 71 108 71c8 0 14 -6 14 -14c0 -5 -2 -9 -6 -12l-102 -69l102 -68c4 -3 6 -7 6 -12c0 -8 -6 -14 -14 -14
c-11 0 -93 61 -108 71v-120c0 -8 -6 -14 -14 -14s-14 6 -14 14v115c-15 -10 -99 -72 -110 -72z" />
    <glyph glyph-name="plus" unicode="+" horiz-adv-x="444" 
d="M208 307h-125c-8 0 -14 7 -14 14c0 8 6 14 14 14h125v125c0 8 6 14 14 14s14 -6 14 -14v-125h125c8 0 14 -6 14 -14c0 -7 -6 -14 -14 -14h-125v-125c0 -7 -6 -14 -14 -14s-14 7 -14 14v125z" />
    <glyph glyph-name="comma" unicode="," horiz-adv-x="194" 
d="M125 20v-6c1 -22 -20 -96 -42 -96c-8 0 -14 6 -14 14c0 0 23 49 26 66c-9 3 -16 12 -16 22c0 12 11 23 23 23s22 -11 23 -23z" />
    <glyph glyph-name="hyphen" unicode="-" horiz-adv-x="363" 
d="M83 310c-8 0 -14 7 -14 14c0 8 6 14 14 14h198c7 0 13 -6 13 -14c0 -7 -6 -14 -13 -14h-198z" />
    <glyph glyph-name="period" unicode="." horiz-adv-x="184" 
d="M92 41c12 0 23 -10 23 -22c0 -13 -11 -23 -23 -23c-13 0 -23 10 -23 23c0 12 10 22 23 22z" />
    <glyph glyph-name="slash" unicode="/" horiz-adv-x="342" 
d="M83 -12c-8 0 -14 6 -14 14c0 7 163 548 177 592c1 6 7 10 13 10c8 0 14 -6 14 -14s-163 -548 -177 -592c-1 -6 -7 -10 -13 -10z" />
    <glyph glyph-name="zero" unicode="0" horiz-adv-x="542" 
d="M271 622c29 0 58 -10 83 -26c89 -59 124 -190 124 -291c0 -102 -35 -232 -124 -292c-25 -16 -53 -26 -83 -26s-58 10 -83 26c-89 60 -124 190 -124 292c0 101 35 232 124 291c25 16 53 26 83 26zM271 15c24 0 47 8 67 22c81 53 112 176 112 268c0 91 -31 214 -112 268
c-20 13 -43 21 -67 21s-47 -8 -67 -21c-81 -54 -112 -177 -112 -268c0 -92 31 -215 112 -268c20 -14 43 -22 67 -22z" />
    <glyph glyph-name="one" unicode="1" horiz-adv-x="423" 
d="M237 29h41c8 0 14 -6 14 -14c0 -7 -6 -14 -14 -14h-109c-8 0 -14 7 -14 14c0 8 6 14 14 14h40v535c-10 -7 -53 -41 -64 -41c-8 0 -14 6 -14 14c0 4 2 9 6 11c12 9 75 56 86 56c8 0 14 -6 14 -14v0v-561z" />
    <glyph glyph-name="two" unicode="2" horiz-adv-x="470" 
d="M235 616c95 0 171 -79 171 -174c0 -236 -299 -212 -311 -415h290c8 0 14 -6 14 -14c0 -7 -6 -14 -14 -14h-305c-1 0 -4 1 -5 1l-5 3l-3 5l-1 5c0 238 311 210 311 427c0 80 -60 148 -142 148c-80 0 -143 -67 -143 -146c0 -8 -6 -14 -14 -14s-14 6 -14 14
c0 95 75 174 171 174z" />
    <glyph glyph-name="three" unicode="3" horiz-adv-x="493" 
d="M316 325c67 -27 113 -90 113 -163c0 -100 -84 -177 -183 -177c-98 0 -182 77 -182 177c0 8 6 14 14 14s14 -6 14 -14c0 -84 72 -149 154 -149c83 0 155 65 155 149s-72 149 -155 149c-7 0 -13 6 -13 14s6 14 14 14c70 0 139 51 139 126s-69 126 -139 126
c-71 0 -140 -51 -140 -126c0 -8 -6 -14 -14 -14s-14 6 -14 14c0 90 81 154 168 154c86 0 167 -64 167 -154c0 -63 -41 -116 -98 -140z" />
    <glyph glyph-name="four" unicode="4" horiz-adv-x="480" 
d="M344 331h58c8 0 14 -6 14 -14c0 -7 -6 -14 -14 -14h-58v-292c0 -8 -7 -14 -14 -14c-8 0 -14 6 -14 14v292h-238c-8 0 -14 7 -14 14v3l49 283c1 7 7 12 14 12c8 0 15 -6 14 -14v-2l-46 -268h221v270c0 8 6 14 14 14c7 0 14 -6 14 -14v-270z" />
    <glyph glyph-name="five" unicode="5" horiz-adv-x="475" 
d="M238 419c111 0 173 -117 173 -215c0 -99 -62 -215 -173 -215c-105 0 -174 92 -174 192c0 13 -3 37 17 37c8 0 12 -9 12 -16s-1 -14 -1 -21c0 -85 56 -164 146 -164c95 0 145 104 145 187c0 82 -50 187 -145 187c-48 0 -92 -25 -126 -58c-4 -4 -10 -5 -15 -3
c-10 -4 -20 4 -19 14l28 243c1 7 7 12 14 12h262c7 0 14 -6 14 -14s-7 -14 -14 -14h-250l-23 -201c34 28 84 49 129 49z" />
    <glyph glyph-name="six" unicode="6" horiz-adv-x="495" 
d="M248 379c106 0 183 -93 183 -195s-77 -194 -183 -194c-95 0 -169 76 -181 168c-4 7 -3 37 -3 46c0 131 49 268 148 356c27 24 61 47 97 57h4c7 0 14 -6 14 -14c0 -7 -5 -11 -11 -13c-13 -6 -25 -9 -38 -17c-96 -54 -158 -169 -178 -275c34 49 88 81 148 81zM248 18
c91 0 155 80 155 166c0 87 -64 167 -155 167c-90 0 -155 -80 -155 -167c0 -86 65 -166 155 -166z" />
    <glyph glyph-name="seven" unicode="7" horiz-adv-x="470" 
d="M77 599h315c8 0 14 -7 14 -14s-204 -538 -220 -582c-2 -6 -8 -9 -13 -9c-8 0 -14 6 -14 14c0 7 196 521 212 563h-293c-8 0 -14 7 -14 14s6 14 13 14z" />
    <glyph glyph-name="eight" unicode="8" horiz-adv-x="493" 
d="M316 329c67 -27 113 -91 113 -164c0 -100 -84 -177 -183 -177c-98 0 -182 77 -182 177c0 73 46 137 113 164c-57 23 -98 77 -98 139c0 90 81 154 168 154c86 0 167 -64 167 -154c0 -62 -41 -116 -98 -139zM107 468c0 -75 69 -126 140 -126c70 0 139 51 139 126
s-69 126 -139 126c-71 0 -140 -51 -140 -126zM246 16c83 0 155 65 155 149s-72 149 -155 149c-82 0 -154 -65 -154 -149s72 -149 154 -149z" />
    <glyph glyph-name="nine" unicode="9" horiz-adv-x="493" 
d="M246 617c107 0 183 -83 183 -188c0 -140 -73 -283 -168 -384c-17 -17 -37 -39 -58 -52c-2 -2 -5 -3 -8 -3c-8 0 -14 6 -14 14c0 5 2 8 5 11c18 18 38 33 55 51c69 73 122 163 146 261c-35 -41 -87 -64 -141 -64c-98 0 -182 77 -182 177c0 99 84 177 182 177zM246 291
c83 0 155 64 155 149c0 84 -72 148 -155 148c-82 0 -154 -64 -154 -148c0 -85 72 -149 154 -149z" />
    <glyph glyph-name="colon" unicode=":" horiz-adv-x="184" 
d="M92 41c12 0 23 -10 23 -23c0 -12 -11 -23 -23 -23c-13 0 -23 11 -23 23c0 13 10 23 23 23zM92 281c-13 0 -23 10 -23 23c0 12 10 22 23 22c12 0 23 -10 23 -22c0 -13 -11 -23 -23 -23z" />
    <glyph glyph-name="semicolon" unicode=";" horiz-adv-x="194" 
d="M102 281c-12 0 -23 10 -23 23c0 12 11 22 23 22s23 -10 23 -22c0 -13 -11 -23 -23 -23zM125 20v-6c1 -22 -20 -96 -42 -96c-8 0 -14 6 -14 14c0 0 23 49 26 66c-9 3 -16 12 -16 22c0 12 11 23 23 23s22 -11 23 -23z" />
    <glyph glyph-name="less" unicode="&#x3c;" horiz-adv-x="385" 
d="M302 161c-3 0 -5 0 -8 2l-219 147c-6 4 -6 10 -6 16c0 5 2 9 6 12l219 146c3 2 5 3 8 3c8 0 14 -7 14 -14c0 -5 -2 -9 -6 -12l-206 -137l206 -138c4 -2 6 -7 6 -11c0 -8 -6 -14 -14 -14z" />
    <glyph glyph-name="equal" unicode="=" horiz-adv-x="444" 
d="M83 366c-8 0 -14 6 -14 14c0 7 6 14 14 14h278c8 0 14 -7 14 -14c0 -8 -6 -14 -14 -14h-278zM83 261c-8 0 -14 7 -14 14c0 8 6 14 14 14h278c8 0 14 -6 14 -14c0 -7 -6 -14 -14 -14h-278z" />
    <glyph glyph-name="greater" unicode="&#x3e;" horiz-adv-x="385" 
d="M83 161c-8 0 -14 6 -14 14c0 4 2 9 6 11l206 138l-206 137c-4 3 -6 7 -6 12c0 7 6 14 14 14c3 0 5 -1 8 -3l219 -146c4 -3 6 -7 6 -12c0 -6 0 -12 -6 -16l-219 -147c-3 -2 -5 -2 -8 -2z" />
    <glyph glyph-name="question" unicode="?" horiz-adv-x="482" 
d="M69 449c0 102 73 168 175 168c93 0 169 -63 169 -159c0 -88 -56 -124 -118 -171c-54 -42 -69 -77 -69 -143c0 -11 2 -27 -13 -27c-13 0 -15 11 -15 20v7c0 75 18 118 80 165c54 41 107 72 107 148c0 81 -64 132 -142 132c-82 0 -146 -51 -146 -136c0 -8 -3 -17 -13 -17
c-8 0 -15 5 -15 13zM211 41c13 0 23 -10 23 -23c0 -12 -10 -23 -23 -23c-12 0 -23 11 -23 23c0 13 11 23 23 23z" />
    <glyph glyph-name="at" unicode="@" horiz-adv-x="860" 
d="M470 596c185 0 321 -137 321 -321c0 -107 -35 -217 -123 -283c-27 -20 -58 -35 -91 -41c-4 -1 -8 -1 -12 -1c-27 0 -41 19 -41 45c0 25 6 52 10 77c-33 -49 -88 -85 -149 -85c-84 0 -139 68 -139 149c0 98 82 196 184 196c58 0 107 -34 128 -88l10 70c1 9 8 12 16 12
c7 0 12 -9 11 -16l-42 -304c-1 -4 -2 -7 -2 -11c0 -10 3 -17 14 -17h7c134 25 191 176 191 297c0 168 -123 293 -293 293c-36 0 -72 -6 -106 -18c-163 -58 -267 -203 -267 -376c0 -198 149 -351 349 -351c10 0 21 0 32 1c79 7 150 37 200 100c3 4 6 6 11 6c8 0 14 -6 14 -14
c0 -3 -1 -5 -2 -8c-51 -79 -167 -113 -256 -113c-215 0 -376 166 -376 380c0 184 111 340 285 401c37 13 77 20 116 20zM385 15c87 0 157 85 157 168c0 66 -44 121 -112 121c-87 0 -156 -85 -156 -168c0 -66 43 -121 111 -121z" />
    <glyph glyph-name="A" unicode="A" horiz-adv-x="550" 
d="M78 -7c-8 0 -14 7 -14 14s182 558 197 603c2 6 8 9 14 9s12 -3 14 -9c14 -44 197 -596 197 -603s-7 -14 -14 -14c-6 0 -12 4 -14 10l-75 230h-216l-76 -230c-2 -6 -7 -10 -13 -10zM275 562l-99 -301h198z" />
    <glyph glyph-name="B" unicode="B" horiz-adv-x="464" 
d="M84 -6c-8 0 -15 9 -15 16v589c0 7 6 14 14 14h136c81 0 139 -74 139 -152c0 -54 -27 -107 -74 -134c68 -24 116 -88 116 -161c0 -96 -81 -172 -176 -172h-140zM372 166c0 81 -68 144 -148 144h-127v-288h127c80 0 148 63 148 144zM330 461c0 63 -45 124 -111 124h-122
v-247h121c67 0 112 60 112 123z" />
    <glyph glyph-name="C" unicode="C" horiz-adv-x="509" 
d="M271 -12c-30 0 -58 10 -83 26c-89 59 -124 190 -124 291c0 102 35 232 124 292c25 16 53 26 83 26c64 0 115 -44 148 -95c6 -9 26 -44 26 -53c0 -8 -7 -14 -14 -14c-6 0 -11 4 -13 9c-29 59 -73 125 -147 125c-24 0 -47 -8 -67 -22c-81 -53 -112 -176 -112 -268
c0 -91 31 -214 112 -268c20 -13 43 -21 67 -21c74 0 118 66 147 125c2 5 7 9 13 9c7 0 14 -7 14 -14c0 -9 -20 -44 -26 -53c-33 -52 -84 -95 -148 -95z" />
    <glyph glyph-name="D" unicode="D" horiz-adv-x="486" 
d="M83 -6c-8 0 -14 7 -14 14v588c0 7 7 15 15 15h144c96 0 155 -104 178 -185c11 -40 16 -81 16 -123c0 -41 -5 -83 -16 -123c-23 -81 -82 -184 -178 -184h-139c-2 -1 -4 -2 -6 -2zM394 303c0 39 -5 78 -15 115c-18 69 -68 165 -151 165h-131v-559h131c83 0 133 95 151 164
c10 37 15 76 15 115z" />
    <glyph glyph-name="E" unicode="E" horiz-adv-x="431" 
d="M83 -3c-8 0 -14 7 -14 14v586c0 7 6 14 14 14h270c8 0 14 -7 14 -14c0 -8 -6 -14 -14 -14h-256v-242h167c8 0 14 -7 14 -14c0 -8 -6 -14 -14 -14h-167v-288h256c8 0 14 -6 14 -14c0 -7 -6 -14 -14 -14h-270z" />
    <glyph glyph-name="F" unicode="F" horiz-adv-x="431" 
d="M83 -4c-8 0 -14 7 -14 14v586c0 8 6 14 14 14h270c8 0 14 -6 14 -14s-6 -14 -14 -14h-256v-242h167c8 0 14 -6 14 -14s-6 -14 -14 -14h-167v-302c0 -7 -6 -14 -14 -14z" />
    <glyph glyph-name="G" unicode="G" horiz-adv-x="542" 
d="M271 -11c-30 0 -58 10 -83 26c-89 60 -124 190 -124 292c0 101 35 232 124 291c25 16 53 26 83 26c64 0 115 -44 148 -95c6 -9 26 -44 26 -53c0 -7 -7 -14 -14 -14c-6 0 -11 4 -13 9c-8 14 -14 29 -23 43c-27 43 -70 82 -124 82c-24 0 -47 -8 -67 -21
c-81 -54 -112 -177 -112 -268c0 -92 31 -215 112 -269c20 -13 43 -21 67 -21c89 0 144 100 164 175c9 33 13 66 14 101h-129c-8 0 -14 6 -14 14c0 7 6 14 14 14h144c7 0 14 -7 14 -14c0 -102 -35 -232 -124 -292c-25 -16 -53 -26 -83 -26z" />
    <glyph glyph-name="H" unicode="H" horiz-adv-x="457" 
d="M83 -5c-8 0 -14 7 -14 14v590c0 8 6 14 14 14s14 -6 14 -14v-262h263v262c0 8 6 14 14 14s14 -6 14 -14v-590c0 -7 -6 -14 -14 -14s-14 7 -14 14v300h-263v-300c0 -7 -6 -14 -14 -14z" />
    <glyph glyph-name="I" unicode="I" horiz-adv-x="266" 
d="M64 17c0 8 6 14 14 14h41v545h-41c-8 0 -14 6 -14 14c0 7 6 14 14 14h110c7 0 14 -7 14 -14c0 -8 -7 -14 -14 -14h-41v-545h41c7 0 14 -6 14 -14c0 -7 -7 -14 -14 -14h-110c-8 0 -14 7 -14 14z" />
    <glyph glyph-name="J" unicode="J" horiz-adv-x="543" 
d="M232 -10c-89 0 -168 69 -168 161c0 7 6 14 14 14s14 -7 14 -14c0 -76 66 -133 140 -133c108 0 141 67 141 168v388c0 2 0 3 1 5h-67c-8 0 -14 6 -14 14s6 14 14 14h158c8 0 14 -6 14 -14s-6 -14 -14 -14h-65c2 -6 1 -361 1 -393c0 -115 -44 -196 -169 -196z" />
    <glyph glyph-name="K" unicode="K" horiz-adv-x="490" 
d="M83 -4c-8 0 -14 6 -14 14v590c0 7 6 14 14 14s14 -7 14 -14v-287l286 296c2 3 6 5 10 5c8 0 14 -7 14 -14c0 -4 -2 -8 -4 -10l-205 -213c20 -33 228 -357 228 -369c0 -7 -7 -14 -14 -14c-5 0 -10 3 -12 7l-222 355l-81 -84v-262c0 -8 -6 -14 -14 -14z" />
    <glyph glyph-name="L" unicode="L" horiz-adv-x="431" 
d="M83 0c-8 0 -14 6 -14 14v585c0 8 6 14 14 14s14 -6 14 -14v-571h256c8 0 14 -7 14 -14c0 -8 -6 -14 -14 -14h-270z" />
    <glyph glyph-name="M" unicode="M" horiz-adv-x="594" 
d="M83 -6c-8 0 -14 6 -14 14v587c0 8 6 14 14 14c7 0 14 -7 16 -13l198 -540l200 544c2 6 7 9 14 9s14 -6 14 -14v-587c0 -8 -7 -14 -14 -14c-8 0 -14 6 -14 14v510l-185 -504c0 -8 -6 -15 -14 -15c-6 0 -11 4 -13 10l-188 511v-512c0 -8 -6 -14 -14 -14z" />
    <glyph glyph-name="N" unicode="N" horiz-adv-x="458" 
d="M389 10c0 -7 -6 -14 -14 -14c-5 0 -10 3 -12 8l-266 534v-530c0 -8 -6 -14 -14 -14s-14 6 -14 14v590c0 7 6 14 14 14c5 0 10 -3 13 -8l265 -534v530c0 8 6 14 14 14s14 -6 14 -14v-590z" />
    <glyph glyph-name="O" unicode="O" horiz-adv-x="542" 
d="M271 622c29 0 58 -10 83 -26c89 -59 124 -190 124 -291c0 -102 -35 -232 -124 -292c-25 -16 -53 -26 -83 -26s-58 10 -83 26c-89 60 -124 190 -124 292c0 101 35 232 124 291c25 16 53 26 83 26zM271 15c24 0 47 8 67 22c81 53 112 176 112 268c0 91 -31 214 -112 268
c-20 13 -43 21 -67 21s-47 -8 -67 -21c-81 -54 -112 -177 -112 -268c0 -92 31 -215 112 -268c20 -14 43 -22 67 -22z" />
    <glyph glyph-name="P" unicode="P" horiz-adv-x="449" 
d="M212 611c95 0 173 -77 173 -172s-78 -172 -173 -172h-115v-259c0 -7 -6 -14 -14 -14s-14 7 -14 14c0 41 -1 585 0 587v2c0 8 6 14 14 14h129zM212 295c80 0 145 64 145 144s-65 144 -145 144h-115v-288h115z" />
    <glyph glyph-name="Q" unicode="Q" horiz-adv-x="542" 
d="M271 621c29 0 58 -9 83 -26c89 -59 124 -190 124 -291c0 -77 -19 -165 -63 -229c8 -10 50 -62 50 -72c0 -8 -6 -14 -14 -14c-4 0 -9 2 -11 6l-43 57c-32 -38 -75 -66 -126 -66c-30 0 -58 10 -83 26c-89 60 -124 190 -124 292c0 101 35 232 124 291c25 17 53 26 83 26z
M397 99c37 60 53 135 53 205c0 91 -31 214 -112 268c-20 13 -43 21 -67 21s-47 -8 -67 -21c-81 -54 -112 -177 -112 -268c0 -92 31 -214 112 -268c20 -14 43 -22 67 -22c45 0 82 27 109 61c-9 11 -55 69 -55 79c0 7 6 14 14 14c4 0 8 -2 11 -6z" />
    <glyph glyph-name="R" unicode="R" horiz-adv-x="445" 
d="M258 271c12 -24 136 -253 136 -261s-6 -14 -14 -14c-5 0 -10 3 -12 7l-139 263c-43 -4 -89 -1 -132 -1v-256c0 -8 -6 -14 -14 -14s-14 6 -14 14c0 40 -1 580 0 582v2c0 8 6 14 14 14h129c95 0 173 -76 173 -171c0 -77 -53 -145 -127 -165zM212 293c79 0 145 64 145 143
c0 80 -66 143 -145 143h-115v-286h115z" />
    <glyph glyph-name="S" unicode="S" horiz-adv-x="480" 
d="M92 469c0 -84 77 -112 144 -134c88 -30 180 -83 180 -187c0 -100 -73 -163 -170 -163c-107 0 -182 73 -182 179c0 8 7 14 14 14c9 0 13 -6 14 -14s1 -18 2 -26c6 -43 27 -78 64 -101c25 -17 57 -24 87 -24c82 0 143 51 143 135c0 90 -87 136 -161 160
c-79 26 -163 63 -163 161c0 87 75 151 160 151c96 0 166 -69 166 -164c0 -8 -7 -14 -15 -14c-9 0 -12 7 -14 14c-2 13 -1 26 -5 39c-17 64 -62 95 -127 96l-5 1c-69 1 -132 -52 -132 -123z" />
    <glyph glyph-name="T" unicode="T" horiz-adv-x="464" 
d="M386 604c8 0 14 -6 14 -14s-6 -14 -14 -14h-140v-564c0 -8 -6 -14 -14 -14s-14 6 -14 14v564h-140c-8 0 -14 6 -14 14s6 14 14 14h308z" />
    <glyph glyph-name="U" unicode="U" horiz-adv-x="505" 
d="M422 615c8 0 14 -7 14 -14v-442c0 -111 -77 -171 -183 -171c-105 0 -184 62 -184 171v442c0 7 6 14 14 14s14 -7 14 -14v-442c0 -94 67 -143 156 -143c90 0 155 48 155 143v442c0 7 7 14 14 14z" />
    <glyph glyph-name="V" unicode="V" horiz-adv-x="550" 
d="M472 611c7 0 14 -6 14 -14c0 -7 -183 -563 -197 -608c-2 -6 -8 -9 -14 -9s-12 3 -14 9c-15 45 -197 602 -197 608c0 8 6 14 14 14c6 0 12 -3 13 -9l184 -565l183 565c2 6 8 9 14 9z" />
    <glyph glyph-name="W" unicode="W" horiz-adv-x="840" 
d="M762 612c8 0 14 -7 14 -14c0 -8 -158 -563 -171 -608c-1 -6 -7 -10 -14 -10c-6 0 -12 4 -14 10l-157 557l-157 -557c-2 -6 -8 -10 -14 -10s-12 4 -14 10c-13 45 -171 600 -171 608c0 7 6 14 14 14c6 0 12 -5 14 -11l157 -557l157 557c2 7 8 10 14 10s12 -3 14 -10
l157 -557l158 557c1 6 7 11 13 11z" />
    <glyph glyph-name="X" unicode="X" horiz-adv-x="484" 
d="M406 609c7 0 14 -6 14 -14c0 -11 -147 -264 -162 -291c15 -28 162 -281 162 -292c0 -8 -7 -14 -14 -14c-5 0 -10 3 -13 7l-151 270l-152 -270c-2 -4 -7 -7 -12 -7c-8 0 -14 6 -14 14c0 11 146 264 162 292c-16 27 -162 280 -162 291c0 8 6 14 14 14c5 0 10 -2 12 -7
l152 -270l151 270c3 5 8 7 13 7z" />
    <glyph glyph-name="Y" unicode="Y" horiz-adv-x="478" 
d="M400 611c8 0 14 -7 14 -14c0 -11 -146 -279 -161 -308v-279c0 -8 -6 -14 -14 -14s-14 6 -14 14v280c-15 28 -161 296 -161 307c0 7 6 14 14 14c5 0 10 -3 12 -8l149 -280l149 280c2 5 7 8 12 8z" />
    <glyph glyph-name="Z" unicode="Z" horiz-adv-x="485" 
d="M421 589c0 -11 -293 -511 -319 -556h295c8 0 14 -7 14 -14c0 -8 -6 -14 -14 -14h-319c-8 0 -14 6 -14 14c0 11 293 511 319 556h-294c-8 0 -14 7 -14 14c0 8 6 14 14 14h318c8 0 14 -6 14 -14z" />
    <glyph glyph-name="bracketleft" unicode="[" horiz-adv-x="266" 
d="M216 587c0 -7 -6 -14 -14 -14h-124v-745h124c8 0 14 -7 14 -14c0 -8 -6 -14 -14 -14h-138c-8 0 -14 6 -14 14v773c0 8 6 14 14 14h138c8 0 14 -6 14 -14z" />
    <glyph glyph-name="backslash" unicode="\" horiz-adv-x="304" 
d="M64 -12c-8 0 -14 6 -14 14c0 7 163 548 177 592c1 6 7 10 13 10c7 0 14 -6 14 -14s-163 -548 -177 -592c-2 -6 -7 -10 -13 -10z" />
    <glyph glyph-name="bracketright" unicode="]" horiz-adv-x="266" 
d="M50 587c0 8 6 14 14 14h138c8 0 14 -6 14 -14v-773c0 -8 -6 -14 -14 -14h-138c-8 0 -14 6 -14 14c0 7 6 14 14 14h125v745h-125c-8 0 -14 7 -14 14z" />
    <glyph glyph-name="asciicircum" unicode="^" horiz-adv-x="340" 
d="M276 342c-5 0 -10 3 -12 8l-94 196l-94 -196c-2 -5 -7 -8 -12 -8c-8 0 -14 6 -14 14c0 10 95 203 106 225c3 6 8 8 14 8s11 -2 14 -8c11 -22 106 -215 106 -225c0 -8 -6 -14 -14 -14z" />
    <glyph glyph-name="underscore" unicode="_" horiz-adv-x="519" 
d="M69 -40h381v-14h-381v14z" />
    <glyph glyph-name="grave" unicode="`" horiz-adv-x="258" 
d="M83 590c4 0 7 -1 10 -4l92 -92c2 -3 4 -6 4 -10c0 -8 -6 -14 -14 -14c-4 0 -7 1 -10 4l-92 92c-3 3 -4 6 -4 10c0 8 6 14 14 14z" />
    <glyph glyph-name="a" unicode="a" horiz-adv-x="462" 
d="M379 329c8 0 14 -7 14 -14v-305c0 -8 -6 -14 -14 -14s-14 6 -14 14v64c-28 -51 -80 -87 -140 -87c-94 0 -161 84 -161 174s67 174 161 174c60 0 112 -36 140 -87v67c0 7 6 14 14 14zM225 15c79 0 133 71 133 146s-54 146 -133 146c-78 0 -133 -71 -133 -146
s55 -146 133 -146z" />
    <glyph glyph-name="b" unicode="b" horiz-adv-x="462" 
d="M237 333c94 0 161 -84 161 -174c0 -91 -67 -174 -161 -174c-60 0 -112 35 -140 87v-65c0 -7 -6 -14 -14 -14s-14 7 -14 14v586c0 7 6 14 14 14s14 -7 14 -14v-348c28 52 80 88 140 88zM237 13c78 0 133 71 133 146c0 74 -55 146 -133 146c-79 0 -134 -72 -134 -146
c0 -75 55 -146 134 -146z" />
    <glyph glyph-name="c" unicode="c" horiz-adv-x="426" 
d="M362 72c0 -3 -1 -5 -3 -8v0c-29 -46 -78 -77 -134 -77c-94 0 -161 84 -161 174s67 174 161 174c44 0 85 -19 115 -51c5 -6 20 -24 20 -32s-6 -14 -14 -14c-4 0 -8 2 -11 5c-23 38 -64 64 -110 64c-78 0 -133 -71 -133 -146s55 -146 133 -146c42 0 89 25 109 62
c3 6 7 9 13 9c8 0 15 -6 15 -14z" />
    <glyph glyph-name="d" unicode="d" horiz-adv-x="462" 
d="M379 608c8 0 14 -7 14 -14v-585c0 -8 -6 -14 -14 -14s-14 6 -14 14v64c-28 -52 -80 -87 -140 -87c-94 0 -161 84 -161 174s67 174 161 174c60 0 112 -36 140 -88v348c0 7 6 14 14 14zM225 14c79 0 133 71 133 146s-54 146 -133 146c-78 0 -133 -71 -133 -146
s55 -146 133 -146z" />
    <glyph glyph-name="e" unicode="e" horiz-adv-x="451" 
d="M225 335c94 0 162 -84 162 -174c0 -8 -7 -14 -15 -14h-279c7 -69 59 -132 132 -132c50 0 87 19 115 59c3 4 7 7 12 7c8 0 14 -6 14 -14c0 -3 -1 -5 -2 -7c-28 -49 -84 -73 -139 -73c-94 0 -161 84 -161 174s67 174 161 174zM93 175h264c-6 69 -59 132 -132 132
s-125 -63 -132 -132z" />
    <glyph glyph-name="f" unicode="f" horiz-adv-x="431" 
d="M285 328c0 -8 -7 -14 -14 -14h-101v-307c0 -7 -6 -14 -14 -14s-14 7 -14 14v307h-64c-8 0 -14 6 -14 14s6 14 14 14h64v163c0 68 44 104 111 104c35 0 93 -24 111 -55c2 -3 3 -5 3 -9c0 -7 -6 -14 -14 -14c-12 0 -40 50 -99 50c-45 0 -84 -21 -84 -70v-169h101
c7 0 14 -6 14 -14z" />
    <glyph glyph-name="g" unicode="g" horiz-adv-x="457" 
d="M374 328c8 0 14 -6 14 -14v-400c0 -7 -4 -20 -7 -26c-19 -48 -61 -71 -109 -80c-13 -3 -27 -4 -40 -4c-36 0 -106 18 -130 48c-3 3 -5 6 -5 10c0 8 7 14 14 14c9 0 51 -44 121 -44c12 0 23 1 35 3c36 7 71 24 87 59c2 5 6 15 6 20v153c-29 -47 -79 -79 -135 -79
c-94 0 -161 84 -161 174s67 174 161 174c56 0 106 -31 135 -79v57c0 8 7 14 14 14zM225 16c79 0 133 72 133 146c0 75 -54 146 -133 146c-78 0 -133 -71 -133 -146c0 -74 55 -146 133 -146z" />
    <glyph glyph-name="h" unicode="h" horiz-adv-x="407" 
d="M214 334c82 0 129 -72 129 -148v-178c0 -8 -7 -14 -14 -14c-8 0 -14 6 -14 14v178c0 60 -34 120 -101 120c-86 0 -123 -75 -118 -152c0 -2 1 -11 1 -12v-134c0 -8 -6 -14 -14 -14s-14 6 -14 14v585c0 7 6 14 14 14s14 -7 14 -14v-331c24 43 67 72 117 72z" />
    <glyph glyph-name="i" unicode="i" horiz-adv-x="184" 
d="M115 424c0 -12 -11 -22 -23 -22c-13 0 -23 10 -23 22c0 13 10 23 23 23c12 0 23 -10 23 -23zM92 326c7 0 14 -7 14 -14v-304c0 -7 -7 -14 -14 -14c-8 0 -14 7 -14 14v304c0 7 6 14 14 14z" />
    <glyph glyph-name="j" unicode="j" horiz-adv-x="190" 
d="M121 424c0 -12 -10 -22 -22 -22c-13 0 -23 10 -23 22c0 13 10 23 23 23c12 0 22 -10 22 -23zM99 326c7 0 14 -7 14 -14v-377c0 -68 -36 -129 -110 -129c-7 0 -14 6 -14 14s6 13 14 14c22 2 40 5 56 22c20 22 26 54 26 82v374c0 7 6 14 14 14z" />
    <glyph glyph-name="k" unicode="k" horiz-adv-x="364" 
d="M177 203l134 -188c1 -2 2 -5 2 -8c0 -8 -6 -14 -14 -14c-4 0 -9 2 -11 6l-133 186l-58 -48v-130c0 -7 -6 -14 -14 -14s-14 7 -14 14v586c0 7 6 14 14 14s14 -7 14 -14v-419l188 154c2 2 6 4 9 4c7 0 14 -7 14 -14c0 -5 -2 -9 -5 -11z" />
    <glyph glyph-name="l" unicode="l" horiz-adv-x="166" 
d="M83 607c8 0 14 -7 14 -14v-586c0 -7 -6 -14 -14 -14s-14 7 -14 14v586c0 7 6 14 14 14z" />
    <glyph glyph-name="m" unicode="m" horiz-adv-x="652" 
d="M459 334c82 0 129 -71 129 -147v-179c0 -8 -7 -14 -14 -14c-8 0 -14 6 -14 14v179c0 60 -34 119 -101 119c-84 0 -116 -90 -116 -160v-138c0 -8 -7 -14 -14 -14c-8 0 -14 6 -14 14v179c0 60 -34 119 -101 119c-85 0 -120 -67 -117 -156c0 -2 1 -6 0 -7v-135
c0 -8 -6 -14 -14 -14s-14 6 -14 14v306c0 8 6 14 14 14s14 -6 14 -14v-51c24 43 67 71 117 71c57 0 101 -36 119 -89c23 52 68 89 126 89z" />
    <glyph glyph-name="n" unicode="n" horiz-adv-x="406" 
d="M213 336c82 0 129 -72 129 -148v-178c0 -8 -7 -14 -14 -14c-8 0 -14 6 -14 14v178c0 61 -34 120 -101 120c-84 0 -116 -75 -116 -159v-140c0 -8 -6 -14 -14 -14s-14 6 -14 14v306c0 8 6 14 14 14s14 -6 14 -14v-49c25 42 66 70 116 70z" />
    <glyph glyph-name="o" unicode="o" horiz-adv-x="451" 
d="M225 336c94 0 162 -84 162 -174c0 -91 -68 -174 -162 -174s-161 83 -161 174c0 90 67 174 161 174zM225 16c79 0 133 71 133 146c0 74 -54 145 -133 145c-78 0 -133 -71 -133 -145c0 -75 55 -146 133 -146z" />
    <glyph glyph-name="p" unicode="p" horiz-adv-x="462" 
d="M237 335c94 0 161 -84 161 -174s-67 -174 -161 -174c-60 0 -112 35 -140 87v-257c0 -8 -6 -14 -14 -14s-14 6 -14 14v498c0 7 6 14 14 14s14 -7 14 -14v-68c28 52 80 88 140 88zM237 15c78 0 133 71 133 146s-55 146 -133 146c-79 0 -134 -71 -134 -146s55 -146 134 -146
z" />
    <glyph glyph-name="q" unicode="q" horiz-adv-x="462" 
d="M379 329c8 0 14 -7 14 -14v-498c0 -8 -6 -14 -14 -14s-14 6 -14 14v257c-28 -51 -80 -87 -140 -87c-94 0 -161 84 -161 174s67 174 161 174c60 0 112 -35 140 -87v67c0 7 6 14 14 14zM225 15c79 0 133 71 133 146s-54 146 -133 146c-78 0 -133 -71 -133 -146
s55 -146 133 -146z" />
    <glyph glyph-name="r" unicode="r" horiz-adv-x="293" 
d="M214 328c7 0 15 -5 15 -13c0 -9 -5 -14 -13 -15c-82 -12 -119 -79 -119 -157v-134c0 -8 -6 -14 -14 -14s-14 6 -14 14v305c0 8 6 14 14 14s14 -6 14 -14v-62c23 39 69 76 117 76z" />
    <glyph glyph-name="s" unicode="s" horiz-adv-x="401" 
d="M96 249c0 -86 241 -29 241 -159c0 -71 -74 -104 -135 -104c-66 0 -138 26 -138 103c0 13 1 23 17 23c8 0 11 -10 11 -16c0 -66 53 -82 110 -82c45 0 107 22 107 76c0 101 -241 41 -241 158c0 67 75 84 128 84c63 0 133 -23 133 -98c0 -8 -8 -13 -15 -13
c-9 0 -13 8 -13 15c-2 16 -5 27 -16 40c-20 23 -60 28 -89 28c-35 0 -100 -8 -100 -55z" />
    <glyph glyph-name="t" unicode="t" horiz-adv-x="303" 
d="M164 328h75c8 0 14 -7 14 -14c0 -8 -6 -14 -14 -14h-75v-294c0 -7 -6 -14 -14 -14s-14 7 -14 14v294h-72c-8 0 -14 6 -14 14c0 7 6 14 14 14h72v108c0 8 6 14 14 14s14 -6 14 -14v-108z" />
    <glyph glyph-name="u" unicode="u" horiz-adv-x="406" 
d="M323 326c7 0 14 -7 14 -14v-97v-209c0 -8 -7 -14 -14 -14c-8 0 -14 6 -14 14v58c-23 -46 -64 -79 -116 -79c-83 0 -129 72 -129 148v179c0 7 6 14 14 14s14 -7 14 -14v-179c0 -60 34 -120 101 -120c94 0 116 88 116 185v114c0 7 6 14 14 14z" />
    <glyph glyph-name="v" unicode="v" horiz-adv-x="402" 
d="M324 328c8 0 14 -6 14 -14s-111 -292 -122 -319c-2 -7 -8 -9 -15 -9s-12 2 -15 9c-11 27 -122 311 -122 319s6 14 14 14c6 0 11 -4 13 -9l110 -286l110 286c2 5 7 9 13 9z" />
    <glyph glyph-name="w" unicode="w" horiz-adv-x="614" 
d="M536 330c8 0 14 -6 14 -14c0 -6 -103 -292 -113 -318c-2 -8 -8 -9 -15 -9s-12 1 -15 9l-100 280l-100 -280c-2 -8 -8 -9 -15 -9s-13 1 -15 9c-10 26 -113 312 -113 318c0 8 6 14 14 14c6 0 11 -3 13 -9l101 -283l101 283c2 7 8 9 14 9c7 0 12 -2 15 -9l100 -283l101 283
c2 6 7 9 13 9z" />
    <glyph glyph-name="x" unicode="x" horiz-adv-x="366" 
d="M288 329c8 0 14 -6 14 -14c0 -2 -1 -5 -2 -8l-100 -145l100 -146c1 -2 2 -5 2 -8c0 -8 -6 -14 -14 -14c-4 0 -9 2 -11 6l-94 137l-93 -137c-3 -4 -7 -6 -12 -6c-8 0 -14 6 -14 14c0 3 1 6 2 8l100 146l-100 145c-1 3 -2 6 -2 8c0 8 6 14 14 14c5 0 9 -2 12 -6l93 -136
l94 136c2 4 7 6 11 6z" />
    <glyph glyph-name="y" unicode="y" horiz-adv-x="408" 
d="M330 329c8 0 14 -6 14 -14c0 -7 -180 -467 -196 -506c-2 -5 -7 -9 -13 -9c-7 0 -14 7 -14 14c0 9 65 168 72 188c-4 4 -129 307 -129 313c0 8 6 14 14 14c6 0 11 -3 13 -8l116 -283l110 282c2 6 8 9 13 9z" />
    <glyph glyph-name="z" unicode="z" horiz-adv-x="398" 
d="M334 304c0 -4 -2 -7 -4 -9l-222 -264h201c8 0 14 -6 14 -14c0 -7 -6 -14 -14 -14h-231c-8 0 -14 7 -14 14c0 4 1 7 3 9l222 264h-201c-7 0 -14 6 -14 14c0 7 7 14 14 14h232c7 0 14 -7 14 -14z" />
    <glyph glyph-name="braceleft" unicode="{" horiz-adv-x="370" 
d="M301 595c0 -8 -7 -14 -14 -14h-70c-32 0 -56 -28 -56 -59v-250c0 -21 1 -50 -14 -67c15 -16 14 -46 14 -67v-250c0 -31 24 -59 56 -59h70c7 0 14 -6 14 -14c0 -7 -7 -14 -14 -14h-70c-47 0 -84 40 -84 87v250c0 37 6 53 -35 53c-12 0 -29 -4 -29 14c0 7 5 15 13 15
c50 0 51 -4 51 52v250c0 47 37 87 84 87h70c7 0 14 -6 14 -14z" />
    <glyph glyph-name="bar" unicode="|" horiz-adv-x="166" 
d="M69 597c0 8 6 14 14 14s14 -6 14 -14v-783c0 -8 -6 -14 -14 -14s-14 6 -14 14v783z" />
    <glyph glyph-name="braceright" unicode="}" horiz-adv-x="370" 
d="M69 595c0 8 6 14 14 14h70c47 0 84 -40 84 -87v-250c0 -56 0 -52 51 -52c8 0 13 -8 13 -15c0 -18 -18 -14 -30 -14c-40 0 -34 -16 -34 -53v-250c0 -47 -37 -87 -84 -87h-70c-8 0 -14 7 -14 14c0 8 6 14 14 14h70c32 0 56 28 56 59v250c0 21 -1 51 14 67
c-15 17 -14 46 -14 67v250c0 31 -24 59 -56 59h-70c-8 0 -14 6 -14 14z" />
    <glyph glyph-name="asciitilde" unicode="~" horiz-adv-x="478" 
d="M394 355c13 0 15 -8 15 -18c0 -50 -20 -104 -78 -104c-92 0 -105 99 -176 99c-43 0 -58 -40 -58 -77c0 -7 -6 -14 -14 -14s-14 7 -14 14c0 53 27 105 86 105c88 0 99 -99 176 -99c41 0 50 43 50 76c0 8 2 18 13 18z" />
    <glyph glyph-name="Euro" unicode="&#x20ac;" horiz-adv-x="469" 
d="M297 590c-103 0 -158 -130 -172 -216h181c7 0 14 -6 14 -14s-7 -14 -14 -14h-185c-1 -14 -2 -27 -2 -40h187c7 0 14 -7 14 -14c0 -8 -7 -14 -14 -14h-187c5 -98 57 -267 178 -267c62 0 96 52 108 52c8 0 14 -7 14 -14c0 -4 -1 -7 -4 -10c-28 -33 -74 -56 -118 -56
c-139 0 -200 181 -206 295c-11 0 -41 -6 -41 14c0 19 29 14 41 14c0 13 1 26 2 40c-12 0 -43 -6 -43 14c0 21 35 14 47 14c15 102 79 244 200 244c44 0 90 -24 118 -57c3 -2 4 -6 4 -9c0 -8 -6 -14 -14 -14c-12 0 -46 52 -108 52z" />
    <glyph glyph-name="oe" unicode="&#x153;" horiz-adv-x="752" 
d="M648 80c8 0 14 -6 14 -14c0 -2 0 -4 -2 -7c-28 -48 -83 -72 -138 -72c-65 0 -121 42 -146 101c-25 -60 -81 -102 -146 -102c-94 0 -161 83 -161 173s67 174 161 174c65 0 120 -43 146 -102c25 60 80 103 146 103c94 0 161 -84 161 -174c0 -7 -7 -14 -14 -14h-278
c6 -69 58 -131 131 -131c50 0 86 18 114 58c3 5 7 7 12 7zM522 306c-73 0 -125 -63 -131 -132h263c-7 69 -59 132 -132 132zM230 14c80 0 131 71 131 146c0 74 -53 145 -131 145c-79 0 -133 -71 -133 -146c0 -74 54 -145 133 -145z" />
    <glyph glyph-name="endash" unicode="&#x2013;" horiz-adv-x="481" 
d="M398 338c7 0 14 -6 14 -14s-7 -14 -14 -14h-315c-8 0 -14 6 -14 14s6 14 14 14h315z" />
    <glyph glyph-name="emdash" unicode="&#x2014;" horiz-adv-x="596" 
d="M513 338c8 0 14 -6 14 -14s-6 -14 -14 -14h-430c-8 0 -14 6 -14 14s6 14 14 14h430z" />
    <glyph glyph-name="quotedblleft" unicode="&#x201c;" horiz-adv-x="283" 
d="M74 504v6c-1 21 20 96 42 96c8 0 14 -6 14 -14c0 0 -23 -50 -26 -67c9 -3 16 -11 16 -21c0 -13 -10 -23 -23 -23c-12 0 -22 10 -23 23zM158 498v6c-1 21 20 96 42 96c8 0 14 -6 14 -14c0 0 -23 -50 -26 -67c9 -2 16 -11 16 -21c0 -13 -11 -23 -23 -23s-22 10 -23 23z" />
    <glyph glyph-name="quotedblright" unicode="&#x201d;" horiz-adv-x="283" 
d="M214 577v-6c1 -21 -20 -96 -42 -96c-8 0 -14 6 -14 14c0 0 23 50 26 67c-9 3 -16 11 -16 21c0 13 10 23 23 23c12 0 22 -10 23 -23zM130 583v-6c1 -21 -20 -96 -42 -96c-8 0 -14 6 -14 14c0 0 23 50 26 67c-9 2 -16 11 -16 21c0 13 11 23 23 23s22 -10 23 -23z" />
    <glyph glyph-name="quoteleft" unicode="&#x2018;" horiz-adv-x="194" 
d="M74 504v6c-1 21 20 96 42 96c8 0 14 -6 14 -14c0 0 -23 -50 -26 -67c9 -3 16 -11 16 -21c0 -13 -10 -23 -23 -23c-12 0 -22 10 -23 23z" />
    <glyph glyph-name="quoteright" unicode="&#x2019;" horiz-adv-x="194" 
d="M130 583v-6c1 -21 -20 -96 -42 -96c-8 0 -14 6 -14 14c0 0 23 50 26 67c-9 2 -16 11 -16 21c0 13 11 23 23 23s22 -10 23 -23z" />
    <glyph glyph-name="divide" unicode="&#xf7;" horiz-adv-x="363" 
d="M83 310c-8 0 -14 7 -14 14c0 8 6 14 14 14h198c7 0 13 -6 13 -14c0 -7 -6 -14 -13 -14h-198zM182 289c12 0 23 -11 23 -23c0 -13 -11 -23 -23 -23c-13 0 -23 10 -23 23c0 12 10 23 23 23zM182 364c-13 0 -23 10 -23 23c0 12 10 23 23 23c12 0 23 -11 23 -23
c0 -13 -11 -23 -23 -23z" />
    <glyph glyph-name="daggerdbl" unicode="&#x2021;" horiz-adv-x="388" 
d="M50 -21c0 7 6 14 14 14h116v411h-116c-8 0 -14 6 -14 14s6 14 14 14h116v165c0 7 6 14 14 14c7 0 14 -7 14 -14v-165h116c7 0 14 -6 14 -14s-7 -14 -14 -14h-116v-411h116c7 0 14 -7 14 -14c0 -8 -7 -14 -14 -14h-116v-152c0 -7 -7 -14 -14 -14c-8 0 -14 7 -14 14v152
h-116c-8 0 -14 6 -14 14z" />
    <glyph glyph-name="guilsinglleft" unicode="&#x2039;" horiz-adv-x="237" 
d="M97 159c8 -18 71 -144 71 -154c0 -8 -7 -14 -14 -14c-6 0 -11 3 -13 8l-71 152c-2 3 -1 5 -1 8s-1 5 1 8l71 152c2 5 7 9 13 9c7 0 14 -7 14 -14c0 -11 -63 -137 -71 -155z" />
    <glyph glyph-name="guilsinglright" unicode="&#x203a;" horiz-adv-x="237" 
d="M140 159c-9 18 -71 144 -71 155c0 7 6 14 14 14c5 0 10 -4 13 -9l71 -152c1 -3 1 -5 1 -8s0 -5 -1 -8l-71 -152c-3 -5 -8 -8 -13 -8c-8 0 -14 6 -14 14c0 10 62 136 71 154z" />
    <glyph glyph-name="quotesinglbase" unicode="&#x201a;" horiz-adv-x="194" 
d="M125 20v-6c1 -22 -20 -96 -42 -96c-8 0 -14 6 -14 14c0 0 23 49 26 66c-9 3 -16 12 -16 22c0 12 11 23 23 23s22 -11 23 -23z" />
    <glyph glyph-name="quotedblbase" unicode="&#x201e;" horiz-adv-x="266" 
d="M125 20v-6c1 -22 -20 -96 -42 -96c-8 0 -14 6 -14 14c0 0 23 49 26 66c-9 3 -16 12 -16 22c0 12 11 23 23 23s22 -11 23 -23zM200 17v-6c1 -21 -20 -96 -42 -96c-8 0 -14 6 -14 14c0 0 23 50 26 67c-9 2 -16 11 -16 21c0 13 11 23 23 23s22 -10 23 -23z" />
    <glyph glyph-name="perthousand" unicode="&#x2030;" horiz-adv-x="1025" 
d="M200 271c-87 0 -131 99 -131 173s44 173 131 173c86 0 130 -99 130 -173s-44 -173 -130 -173zM200 589c-71 0 -103 -86 -103 -145c0 -58 32 -145 103 -145c70 0 102 87 102 145c0 59 -32 145 -102 145zM401 144c0 74 44 172 130 172c87 0 131 -98 131 -172
c0 -75 -44 -173 -131 -173c-86 0 -130 98 -130 173zM531 289c-70 0 -103 -87 -103 -145c0 -59 33 -145 103 -145s103 86 103 145c0 58 -33 145 -103 145zM229 -12c-7 0 -14 6 -14 14c0 9 258 545 280 591c2 5 7 8 13 8c7 0 13 -6 13 -14c0 -9 -257 -545 -279 -591
c-2 -5 -7 -8 -13 -8zM700 143c0 74 45 173 131 173s131 -99 131 -173s-45 -173 -131 -173s-131 99 -131 173zM831 288c-70 0 -103 -86 -103 -145c0 -58 33 -145 103 -145s103 87 103 145c0 59 -33 145 -103 145z" />
    <glyph glyph-name="dotlessi" unicode="&#x131;" horiz-adv-x="184" 
d="M92 326c7 0 14 -7 14 -14v-304c0 -7 -7 -14 -14 -14c-8 0 -14 7 -14 14v304c0 7 6 14 14 14z" />
    <glyph glyph-name="circumflex" unicode="&#x2c6;" horiz-adv-x="285" 
d="M202 467c-5 0 -9 3 -12 7l-48 72l-47 -72c-3 -4 -7 -7 -12 -7c-8 0 -14 7 -14 14c0 12 52 83 61 97c3 4 8 6 12 6c5 0 10 -2 13 -6c9 -14 61 -85 61 -97c0 -7 -7 -14 -14 -14z" />
    <glyph glyph-name="tilde" unicode="&#x2dc;" horiz-adv-x="328" 
d="M69 485c0 33 12 84 54 84c48 0 56 -73 87 -73c19 0 20 45 21 58c0 8 5 15 14 15c7 0 14 -6 14 -14c0 -33 -7 -87 -51 -87c-48 0 -58 73 -86 73c-21 0 -24 -42 -25 -56c-1 -8 -6 -14 -14 -14s-14 7 -14 14z" />
    <glyph glyph-name="ring" unicode="&#x2da;" horiz-adv-x="323" 
d="M162 611c51 0 92 -42 92 -93s-41 -93 -92 -93c-52 0 -93 42 -93 93s41 93 93 93zM162 446c39 0 71 33 71 72s-32 72 -71 72c-40 0 -72 -33 -72 -72s32 -72 72 -72z" />
    <glyph glyph-name="cedilla" unicode="&#xb8;" horiz-adv-x="245" 
d="M76 -151c0 7 6 12 13 13c24 4 59 34 59 61c0 6 -1 12 -9 12c-20 0 -47 -24 -56 -24c-8 0 -14 7 -14 15c0 17 9 54 12 73c1 7 7 11 14 11c8 0 14 -6 14 -14c0 -13 -5 -30 -7 -44c11 6 24 11 38 11c23 0 36 -18 36 -40c0 -39 -48 -89 -87 -89c-7 0 -13 7 -13 15z" />
    <glyph glyph-name="caron" unicode="&#x2c7;" horiz-adv-x="285" 
d="M142 643c-4 0 -9 2 -12 6c-9 14 -61 85 -61 97c0 8 6 14 14 14c5 0 9 -2 12 -6l47 -72l48 72c3 4 7 6 12 6c7 0 14 -6 14 -14c0 -12 -52 -83 -61 -97c-3 -4 -8 -6 -13 -6z" />
    <glyph glyph-name="ordfeminine" unicode="&#xaa;" horiz-adv-x="373" 
d="M290 604c7 0 14 -6 14 -14v-212c0 -7 -7 -14 -14 -14c-20 0 -14 30 -14 42c-22 -29 -55 -47 -91 -47c-67 0 -116 60 -116 125s49 125 116 125c36 0 69 -18 91 -46c0 12 -6 41 14 41zM185 387c53 0 89 48 89 97c0 50 -36 98 -89 98c-52 0 -88 -48 -88 -98
c0 -49 36 -97 88 -97z" />
    <glyph glyph-name="ordmasculine" unicode="&#xba;" horiz-adv-x="371" 
d="M185 609c68 0 117 -61 117 -126s-49 -125 -117 -125c-67 0 -116 60 -116 125s49 126 116 126zM185 386c53 0 89 48 89 97c0 50 -36 98 -89 98c-52 0 -88 -48 -88 -98c0 -49 36 -97 88 -97z" />
    <glyph glyph-name="yen" unicode="&#xa5;" horiz-adv-x="487" 
d="M404 607c8 0 14 -6 14 -14c0 -10 -144 -275 -159 -303h124c8 0 14 -6 14 -14c0 -7 -6 -13 -14 -13h-126v-77h126c8 0 14 -7 14 -14c0 -8 -6 -14 -14 -14h-126v-150c0 -7 -6 -14 -14 -14c-7 0 -14 7 -14 14v150h-125c-8 0 -14 6 -14 14c0 7 6 14 14 14h125v77h-125
c-8 0 -14 6 -14 13c0 8 6 14 14 14h124c-15 28 -159 294 -159 303c0 8 6 14 14 14c5 0 10 -3 12 -7l148 -280l149 280c2 4 7 7 12 7z" />
    <glyph glyph-name="degree" unicode="&#xb0;" horiz-adv-x="323" 
d="M162 611c51 0 92 -42 92 -93s-41 -93 -92 -93c-52 0 -93 42 -93 93s41 93 93 93zM162 446c39 0 71 33 71 72s-32 72 -71 72c-40 0 -72 -33 -72 -72s32 -72 72 -72z" />
    <glyph glyph-name="cent" unicode="&#xa2;" horiz-adv-x="432" 
d="M363 402c-3 4 -7 7 -12 7c-7 0 -14 -7 -14 -14c0 -2 0 -4 1 -5c-14 22 -36 42 -61 52l-78 -277c10 -3 20 -4 31 -4c44 0 84 24 108 61c0 -1 -1 -3 -1 -5c0 -7 7 -14 14 -14c5 0 9 3 12 6c-29 -46 -78 -76 -133 -76c-13 0 -26 1 -39 5l-36 -128c-1 -6 -7 -10 -13 -10
c-8 0 -14 6 -14 14c0 6 33 119 37 133c-60 29 -96 94 -96 159c0 90 68 173 161 173c9 0 18 -1 27 -2l34 118c1 6 7 11 13 11c8 0 14 -7 14 -14s-30 -110 -34 -123c33 -13 61 -36 79 -67zM97 306c0 -53 28 -106 76 -131l77 275c-7 1 -14 1 -20 1c-78 0 -133 -70 -133 -145z
" />
    <glyph glyph-name="sterling" unicode="&#xa3;" horiz-adv-x="550" 
d="M426 12c20 0 32 12 41 12c7 0 14 -7 14 -14c0 -19 -41 -26 -55 -26c-23 0 -45 8 -66 15c-38 13 -71 22 -112 22c-42 0 -88 -9 -126 -25c-5 -2 -9 -5 -15 -5c-5 0 -9 4 -12 8v2l-1 5c-1 10 12 13 20 17c40 17 55 72 55 112c0 60 -20 109 -43 163c-15 0 -57 -7 -57 14
s34 14 46 14c-12 33 -19 64 -19 99c0 105 84 189 189 189c76 0 144 -46 174 -115c0 -2 1 -4 1 -6c0 -8 -7 -14 -14 -14c-6 0 -10 3 -13 9c-6 11 -11 21 -18 32c-30 41 -79 66 -130 66c-89 0 -161 -72 -161 -161c0 -36 9 -66 21 -99h131c8 0 14 -6 14 -14
c0 -7 -6 -14 -14 -14h-119c21 -54 40 -103 40 -163c0 -33 -7 -67 -25 -95c25 6 50 9 76 9c43 0 80 -10 121 -24c18 -6 38 -13 57 -13z" />
    <glyph glyph-name="section" unicode="&#xa7;" horiz-adv-x="488" 
d="M97 466c0 -83 77 -111 143 -133c88 -30 179 -83 179 -186c0 -33 -9 -67 -27 -94c18 -26 27 -57 27 -88c0 -100 -72 -163 -169 -163c-106 0 -181 73 -181 179c0 8 7 14 14 14c9 0 13 -6 14 -14c2 -10 1 -21 2 -31c7 -40 29 -73 63 -96c26 -17 58 -24 88 -24
c81 0 142 51 142 135c0 89 -87 135 -160 159c-79 27 -163 63 -163 161c0 34 11 65 33 92c-22 25 -33 56 -33 89c0 88 74 151 159 151c96 0 165 -68 165 -164c0 -7 -6 -13 -14 -13c-9 0 -12 6 -13 14c-3 13 -2 26 -6 40c-18 63 -63 93 -126 95h-6c-68 1 -131 -52 -131 -123z
M97 285c0 -83 77 -112 143 -134c49 -16 97 -38 133 -76c13 22 19 48 19 72c0 89 -87 135 -160 159c-39 13 -77 26 -109 52c-18 -21 -26 -46 -26 -73z" />
    <glyph glyph-name="bullet" unicode="&#x2022;" horiz-adv-x="356" 
d="M178 444c65 0 109 -58 109 -119c0 -62 -44 -120 -109 -120c-64 0 -109 58 -109 120c0 61 45 119 109 119z" />
    <glyph glyph-name="paragraph" unicode="&#xb6;" horiz-adv-x="595" 
d="M468 599h44c8 0 14 -6 14 -14c0 -21 -37 -14 -49 -14v-764c0 -7 -6 -14 -14 -14s-14 7 -14 14v764h-153v-764c0 -7 -6 -14 -13 -14c-8 0 -14 7 -14 14v472h-40c-88 0 -160 72 -160 160s72 160 160 160h48c2 1 4 1 6 1c1 0 3 0 5 -1h170c1 1 3 1 5 1s4 0 5 -1zM269 307
v264h-40c-73 0 -132 -59 -132 -132s59 -132 132 -132h40z" />
    <glyph glyph-name="germandbls" unicode="&#xdf;" horiz-adv-x="432" 
d="M176 578c-43 0 -79 -18 -79 -65v-506c0 -7 -6 -14 -14 -14c-7 0 -14 7 -14 14v506c0 63 48 93 107 93c72 0 131 -61 131 -133c0 -74 -76 -127 -76 -139c0 0 0 -1 1 -2c8 -23 105 -108 130 -135c22 -24 35 -54 35 -87c0 -68 -52 -128 -122 -128c-54 0 -109 37 -144 77
c-2 3 -4 6 -4 10c0 7 7 14 14 14c13 0 63 -73 134 -73c54 0 94 47 94 100c0 26 -10 49 -28 68c-29 32 -126 114 -136 145c-1 4 -2 8 -2 12c0 34 76 69 76 138c0 57 -46 105 -103 105z" />
    <glyph glyph-name="registered" unicode="&#xae;" horiz-adv-x="774" 
d="M387 617c175 0 318 -143 318 -318s-143 -318 -318 -318s-318 143 -318 318s143 318 318 318zM387 9c160 0 290 130 290 290s-130 290 -290 290s-290 -130 -290 -290s130 -290 290 -290zM433 278c11 -16 92 -123 92 -133c0 -7 -6 -13 -14 -13c-5 0 -9 2 -11 5l-97 136
c-29 -2 -59 -1 -89 -1v-127c0 -8 -6 -14 -14 -14c-7 0 -13 6 -13 14v306c0 7 6 14 13 14h92c55 0 127 -33 127 -96c0 -48 -44 -80 -86 -91zM314 300h78c39 0 99 21 99 69c0 47 -60 68 -99 68h-78v-137z" />
    <glyph glyph-name="copyright" unicode="&#xa9;" horiz-adv-x="774" 
d="M387 616c175 0 318 -143 318 -319c0 -175 -143 -318 -318 -318s-318 143 -318 318c0 176 143 319 318 319zM387 7c160 0 290 131 290 290c0 160 -130 291 -290 291s-290 -131 -290 -291c0 -159 130 -290 290 -290zM394 437c-76 0 -132 -70 -132 -145
c0 -74 56 -145 132 -145c36 0 70 16 94 42c7 8 17 31 31 31c7 0 12 -6 12 -13c0 -11 -17 -30 -23 -36c-29 -32 -70 -52 -114 -52c-91 0 -160 83 -160 173c0 91 69 173 160 173c44 0 85 -19 114 -51c5 -5 22 -26 22 -33s-6 -13 -13 -13c-14 0 -22 19 -29 27
c-24 26 -58 42 -94 42z" />
    <glyph glyph-name="trademark" unicode="&#x2122;" horiz-adv-x="576" 
d="M236 599c8 0 14 -6 14 -14c0 -7 -6 -13 -14 -13h-62v-275c0 -7 -7 -14 -14 -14c-8 0 -14 7 -14 14v275h-63c-8 0 -14 6 -14 13c0 8 6 14 14 14h153zM493 603c8 0 14 -6 14 -14v-292c0 -8 -6 -14 -14 -14c-7 0 -14 6 -14 14v215l-78 -214c-3 -7 -4 -13 -14 -13
c-6 0 -11 4 -13 10l-80 217v-215c0 -8 -6 -14 -14 -14c-7 0 -14 6 -14 14v292c0 8 7 14 14 14c6 0 13 -5 15 -11l92 -251l93 253c2 5 8 9 13 9z" />
    <glyph glyph-name="acute" unicode="&#xb4;" horiz-adv-x="259" 
d="M69 653c0 4 1 8 4 10l93 93c2 3 6 4 10 4c7 0 14 -6 14 -14c0 -3 -2 -7 -4 -9l-93 -93c-3 -3 -6 -5 -10 -5c-8 0 -14 7 -14 14z" />
    <glyph glyph-name="dieresis" unicode="&#xa8;" horiz-adv-x="277" 
d="M92 551c12 0 23 -11 23 -23c0 -13 -11 -23 -23 -23c-13 0 -23 10 -23 23c0 12 10 23 23 23zM208 528c0 -13 -10 -23 -23 -23c-12 0 -23 10 -23 23c0 12 11 23 23 23c13 0 23 -11 23 -23z" />
    <glyph glyph-name="Adieresis" unicode="&#xc4;" horiz-adv-x="550" 
d="M78 -7c-8 0 -14 7 -14 14s182 558 197 603c2 6 8 9 14 9s12 -3 14 -9c14 -44 197 -596 197 -603s-7 -14 -14 -14c-6 0 -12 4 -14 10l-75 230h-216l-76 -230c-2 -6 -7 -10 -13 -10zM275 562l-99 -301h198zM232 701c12 0 23 -11 23 -23c0 -13 -11 -23 -23 -23
c-13 0 -23 10 -23 23c0 12 10 23 23 23zM348 678c0 -13 -10 -23 -23 -23c-12 0 -23 10 -23 23c0 12 11 23 23 23c13 0 23 -11 23 -23z" />
    <glyph glyph-name="Aring" unicode="&#xc5;" horiz-adv-x="550" 
d="M272 791c51 0 92 -42 92 -93c0 -45 -32 -83 -74 -92c19 -59 196 -592 196 -599s-7 -14 -14 -14c-6 0 -12 4 -14 10l-75 230h-216l-76 -230c-2 -6 -7 -10 -13 -10c-8 0 -14 7 -14 14s175 536 195 598c-46 6 -80 46 -80 93c0 51 41 93 93 93zM275 562l-99 -301h198z
M272 626c39 0 71 33 71 72s-32 72 -71 72c-40 0 -72 -33 -72 -72s32 -72 72 -72z" />
    <glyph glyph-name="Ccedilla" unicode="&#xc7;" horiz-adv-x="509" 
d="M256 -151c0 7 6 12 13 13c24 4 59 34 59 61c0 6 -1 12 -9 12c-20 0 -47 -24 -56 -24c-8 0 -14 7 -14 15c0 14 6 43 10 63c-26 2 -50 11 -71 25c-89 59 -124 190 -124 291c0 102 35 232 124 292c25 16 53 26 83 26c64 0 115 -44 148 -95c6 -9 26 -44 26 -53
c0 -8 -7 -14 -14 -14c-6 0 -11 4 -13 9c-29 59 -73 125 -147 125c-24 0 -47 -8 -67 -22c-81 -53 -112 -176 -112 -268c0 -91 31 -214 112 -268c20 -13 43 -21 67 -21c74 0 118 66 147 125c2 5 7 9 13 9c7 0 14 -7 14 -14c0 -9 -20 -44 -26 -53c-30 -47 -75 -87 -130 -94
c-1 -11 -6 -25 -7 -37c11 6 24 11 38 11c23 0 36 -18 36 -40c0 -39 -48 -89 -87 -89c-7 0 -13 7 -13 15z" />
    <glyph glyph-name="Eacute" unicode="&#xc9;" horiz-adv-x="431" 
d="M83 -3c-8 0 -14 7 -14 14v586c0 7 6 14 14 14h270c8 0 14 -7 14 -14c0 -8 -6 -14 -14 -14h-256v-242h167c8 0 14 -7 14 -14c0 -8 -6 -14 -14 -14h-167v-288h256c8 0 14 -6 14 -14c0 -7 -6 -14 -14 -14h-270zM179 653c0 4 1 8 4 10l93 93c2 3 6 4 10 4c7 0 14 -6 14 -14
c0 -3 -2 -7 -4 -9l-93 -93c-3 -3 -6 -5 -10 -5c-8 0 -14 7 -14 14z" />
    <glyph glyph-name="Ntilde" unicode="&#xd1;" horiz-adv-x="458" 
d="M389 10c0 -7 -6 -14 -14 -14c-5 0 -10 3 -12 8l-266 534v-530c0 -8 -6 -14 -14 -14s-14 6 -14 14v590c0 7 6 14 14 14c5 0 10 -3 13 -8l265 -534v530c0 8 6 14 14 14s14 -6 14 -14v-590zM139 655c0 33 12 84 54 84c48 0 56 -73 87 -73c19 0 20 45 21 58c0 8 5 15 14 15
c7 0 14 -6 14 -14c0 -33 -7 -87 -51 -87c-48 0 -58 73 -86 73c-21 0 -24 -42 -25 -56c-1 -8 -6 -14 -14 -14s-14 7 -14 14z" />
    <glyph glyph-name="Odieresis" unicode="&#xd6;" horiz-adv-x="542" 
d="M271 622c29 0 58 -10 83 -26c89 -59 124 -190 124 -291c0 -102 -35 -232 -124 -292c-25 -16 -53 -26 -83 -26s-58 10 -83 26c-89 60 -124 190 -124 292c0 101 35 232 124 291c25 16 53 26 83 26zM271 15c24 0 47 8 67 22c81 53 112 176 112 268c0 91 -31 214 -112 268
c-20 13 -43 21 -67 21s-47 -8 -67 -21c-81 -54 -112 -177 -112 -268c0 -92 31 -215 112 -268c20 -14 43 -22 67 -22zM222 701c12 0 23 -11 23 -23c0 -13 -11 -23 -23 -23c-13 0 -23 10 -23 23c0 12 10 23 23 23zM338 678c0 -13 -10 -23 -23 -23c-12 0 -23 10 -23 23
c0 12 11 23 23 23c13 0 23 -11 23 -23z" />
    <glyph glyph-name="Udieresis" unicode="&#xdc;" horiz-adv-x="505" 
d="M422 615c8 0 14 -7 14 -14v-442c0 -111 -77 -171 -183 -171c-105 0 -184 62 -184 171v442c0 7 6 14 14 14s14 -7 14 -14v-442c0 -94 67 -143 156 -143c90 0 155 48 155 143v442c0 7 7 14 14 14zM202 701c12 0 23 -11 23 -23c0 -13 -11 -23 -23 -23c-13 0 -23 10 -23 23
c0 12 10 23 23 23zM318 678c0 -13 -10 -23 -23 -23c-12 0 -23 10 -23 23c0 12 11 23 23 23c13 0 23 -11 23 -23z" />
    <glyph glyph-name="aacute" unicode="&#xe1;" horiz-adv-x="462" 
d="M379 329c8 0 14 -7 14 -14v-305c0 -8 -6 -14 -14 -14s-14 6 -14 14v64c-28 -51 -80 -87 -140 -87c-94 0 -161 84 -161 174s67 174 161 174c60 0 112 -36 140 -87v67c0 7 6 14 14 14zM225 15c79 0 133 71 133 146s-54 146 -133 146c-78 0 -133 -71 -133 -146
s55 -146 133 -146zM199 373c0 4 1 8 4 10l93 93c2 3 6 4 10 4c7 0 14 -6 14 -14c0 -3 -2 -7 -4 -9l-93 -93c-3 -3 -6 -5 -10 -5c-8 0 -14 7 -14 14z" />
    <glyph glyph-name="agrave" unicode="&#xe0;" horiz-adv-x="462" 
d="M379 329c8 0 14 -7 14 -14v-305c0 -8 -6 -14 -14 -14s-14 6 -14 14v64c-28 -51 -80 -87 -140 -87c-94 0 -161 84 -161 174s67 174 161 174c60 0 112 -36 140 -87v67c0 7 6 14 14 14zM225 15c79 0 133 71 133 146s-54 146 -133 146c-78 0 -133 -71 -133 -146
s55 -146 133 -146zM183 480c4 0 7 -1 10 -4l92 -92c2 -3 4 -6 4 -10c0 -8 -6 -14 -14 -14c-4 0 -7 1 -10 4l-92 92c-3 3 -4 6 -4 10c0 8 6 14 14 14z" />
    <glyph glyph-name="acircumflex" unicode="&#xe2;" horiz-adv-x="462" 
d="M379 329c8 0 14 -7 14 -14v-305c0 -8 -6 -14 -14 -14s-14 6 -14 14v64c-28 -51 -80 -87 -140 -87c-94 0 -161 84 -161 174s67 174 161 174c60 0 112 -36 140 -87v67c0 7 6 14 14 14zM225 15c79 0 133 71 133 146s-54 146 -133 146c-78 0 -133 -71 -133 -146
s55 -146 133 -146zM292 357c-5 0 -9 3 -12 7l-48 72l-47 -72c-3 -4 -7 -7 -12 -7c-8 0 -14 7 -14 14c0 12 52 83 61 97c3 4 8 6 12 6c5 0 10 -2 13 -6c9 -14 61 -85 61 -97c0 -7 -7 -14 -14 -14z" />
    <glyph glyph-name="adieresis" unicode="&#xe4;" horiz-adv-x="462" 
d="M379 329c8 0 14 -7 14 -14v-305c0 -8 -6 -14 -14 -14s-14 6 -14 14v64c-28 -51 -80 -87 -140 -87c-94 0 -161 84 -161 174s67 174 161 174c60 0 112 -36 140 -87v67c0 7 6 14 14 14zM225 15c79 0 133 71 133 146s-54 146 -133 146c-78 0 -133 -71 -133 -146
s55 -146 133 -146zM172 421c12 0 23 -11 23 -23c0 -13 -11 -23 -23 -23c-13 0 -23 10 -23 23c0 12 10 23 23 23zM288 398c0 -13 -10 -23 -23 -23c-12 0 -23 10 -23 23c0 12 11 23 23 23c13 0 23 -11 23 -23z" />
    <glyph glyph-name="atilde" unicode="&#xe3;" horiz-adv-x="462" 
d="M379 329c8 0 14 -7 14 -14v-305c0 -8 -6 -14 -14 -14s-14 6 -14 14v64c-28 -51 -80 -87 -140 -87c-94 0 -161 84 -161 174s67 174 161 174c60 0 112 -36 140 -87v67c0 7 6 14 14 14zM225 15c79 0 133 71 133 146s-54 146 -133 146c-78 0 -133 -71 -133 -146
s55 -146 133 -146zM129 385c0 33 12 84 54 84c48 0 56 -73 87 -73c19 0 20 45 21 58c0 8 5 15 14 15c7 0 14 -6 14 -14c0 -33 -7 -87 -51 -87c-48 0 -58 73 -86 73c-21 0 -24 -42 -25 -56c-1 -8 -6 -14 -14 -14s-14 7 -14 14z" />
    <glyph glyph-name="aring" unicode="&#xe5;" horiz-adv-x="462" 
d="M232 501c51 0 92 -42 92 -93c0 -35 -20 -66 -48 -82c38 -14 69 -42 89 -78v67c0 7 6 14 14 14s14 -7 14 -14v-305c0 -8 -6 -14 -14 -14s-14 6 -14 14v64c-28 -51 -80 -87 -140 -87c-94 0 -161 84 -161 174c0 76 47 147 118 168c-26 16 -43 46 -43 79c0 51 41 93 93 93z
M225 15c79 0 133 71 133 146s-54 146 -133 146c-78 0 -133 -71 -133 -146s55 -146 133 -146zM232 336c39 0 71 33 71 72s-32 72 -71 72c-40 0 -72 -33 -72 -72s32 -72 72 -72z" />
    <glyph glyph-name="ccedilla" unicode="&#xe7;" horiz-adv-x="426" 
d="M206 -151c0 7 6 12 13 13c24 4 59 34 59 61c0 6 -1 12 -9 12c-20 0 -47 -24 -56 -24c-8 0 -14 7 -14 15c0 14 6 42 10 62c-86 9 -145 88 -145 173c0 90 67 174 161 174c44 0 85 -19 115 -51c5 -6 20 -24 20 -32s-6 -14 -14 -14c-4 0 -8 2 -11 5c-23 38 -64 64 -110 64
c-78 0 -133 -71 -133 -146s55 -146 133 -146c42 0 89 25 109 62c3 6 7 9 13 9c8 0 15 -6 15 -14c0 -3 -1 -5 -3 -8c-27 -43 -70 -72 -121 -76c-1 -12 -5 -25 -6 -36c11 6 24 11 38 11c23 0 36 -18 36 -40c0 -39 -48 -89 -87 -89c-7 0 -13 7 -13 15z" />
    <glyph glyph-name="eacute" unicode="&#xe9;" horiz-adv-x="451" 
d="M225 335c94 0 162 -84 162 -174c0 -8 -7 -14 -15 -14h-279c7 -69 59 -132 132 -132c50 0 87 19 115 59c3 4 7 7 12 7c8 0 14 -6 14 -14c0 -3 -1 -5 -2 -7c-28 -49 -84 -73 -139 -73c-94 0 -161 84 -161 174s67 174 161 174zM93 175h264c-6 69 -59 132 -132 132
s-125 -63 -132 -132zM169 373c0 4 1 8 4 10l93 93c2 3 6 4 10 4c7 0 14 -6 14 -14c0 -3 -2 -7 -4 -9l-93 -93c-3 -3 -6 -5 -10 -5c-8 0 -14 7 -14 14z" />
    <glyph glyph-name="egrave" unicode="&#xe8;" horiz-adv-x="451" 
d="M225 335c94 0 162 -84 162 -174c0 -8 -7 -14 -15 -14h-279c7 -69 59 -132 132 -132c50 0 87 19 115 59c3 4 7 7 12 7c8 0 14 -6 14 -14c0 -3 -1 -5 -2 -7c-28 -49 -84 -73 -139 -73c-94 0 -161 84 -161 174s67 174 161 174zM93 175h264c-6 69 -59 132 -132 132
s-125 -63 -132 -132zM143 480c4 0 7 -1 10 -4l92 -92c2 -3 4 -6 4 -10c0 -8 -6 -14 -14 -14c-4 0 -7 1 -10 4l-92 92c-3 3 -4 6 -4 10c0 8 6 14 14 14z" />
    <glyph glyph-name="ecircumflex" unicode="&#xea;" horiz-adv-x="451" 
d="M225 335c94 0 162 -84 162 -174c0 -8 -7 -14 -15 -14h-279c7 -69 59 -132 132 -132c50 0 87 19 115 59c3 4 7 7 12 7c8 0 14 -6 14 -14c0 -3 -1 -5 -2 -7c-28 -49 -84 -73 -139 -73c-94 0 -161 84 -161 174s67 174 161 174zM93 175h264c-6 69 -59 132 -132 132
s-125 -63 -132 -132zM282 357c-5 0 -9 3 -12 7l-48 72l-47 -72c-3 -4 -7 -7 -12 -7c-8 0 -14 7 -14 14c0 12 52 83 61 97c3 4 8 6 12 6c5 0 10 -2 13 -6c9 -14 61 -85 61 -97c0 -7 -7 -14 -14 -14z" />
    <glyph glyph-name="edieresis" unicode="&#xeb;" horiz-adv-x="451" 
d="M225 335c94 0 162 -84 162 -174c0 -8 -7 -14 -15 -14h-279c7 -69 59 -132 132 -132c50 0 87 19 115 59c3 4 7 7 12 7c8 0 14 -6 14 -14c0 -3 -1 -5 -2 -7c-28 -49 -84 -73 -139 -73c-94 0 -161 84 -161 174s67 174 161 174zM93 175h264c-6 69 -59 132 -132 132
s-125 -63 -132 -132zM172 421c12 0 23 -11 23 -23c0 -13 -11 -23 -23 -23c-13 0 -23 10 -23 23c0 12 10 23 23 23zM288 398c0 -13 -10 -23 -23 -23c-12 0 -23 10 -23 23c0 12 11 23 23 23c13 0 23 -11 23 -23z" />
    <glyph glyph-name="iacute" unicode="&#xed;" horiz-adv-x="184" 
d="M92 326c7 0 14 -7 14 -14v-304c0 -7 -7 -14 -14 -14c-8 0 -14 7 -14 14v304c0 7 6 14 14 14zM79 373c0 4 1 8 4 10l93 93c2 3 6 4 10 4c7 0 14 -6 14 -14c0 -3 -2 -7 -4 -9l-93 -93c-3 -3 -6 -5 -10 -5c-8 0 -14 7 -14 14z" />
    <glyph glyph-name="igrave" unicode="&#xec;" horiz-adv-x="184" 
d="M92 326c7 0 14 -7 14 -14v-304c0 -7 -7 -14 -14 -14c-8 0 -14 7 -14 14v304c0 7 6 14 14 14zM3 480c4 0 7 -1 10 -4l92 -92c2 -3 4 -6 4 -10c0 -8 -6 -14 -14 -14c-4 0 -7 1 -10 4l-92 92c-3 3 -4 6 -4 10c0 8 6 14 14 14z" />
    <glyph glyph-name="icircumflex" unicode="&#xee;" horiz-adv-x="184" 
d="M92 326c7 0 14 -7 14 -14v-304c0 -7 -7 -14 -14 -14c-8 0 -14 7 -14 14v304c0 7 6 14 14 14zM152 367c-5 0 -9 3 -12 7l-48 72l-47 -72c-3 -4 -7 -7 -12 -7c-8 0 -14 7 -14 14c0 12 52 83 61 97c3 4 8 6 12 6c5 0 10 -2 13 -6c9 -14 61 -85 61 -97c0 -7 -7 -14 -14 -14z
" />
    <glyph glyph-name="idieresis" unicode="&#xef;" horiz-adv-x="184" 
d="M92 326c7 0 14 -7 14 -14v-304c0 -7 -7 -14 -14 -14c-8 0 -14 7 -14 14v304c0 7 6 14 14 14zM42 421c12 0 23 -11 23 -23c0 -13 -11 -23 -23 -23c-13 0 -23 10 -23 23c0 12 10 23 23 23zM158 398c0 -13 -10 -23 -23 -23c-12 0 -23 10 -23 23c0 12 11 23 23 23
c13 0 23 -11 23 -23z" />
    <glyph glyph-name="ntilde" unicode="&#xf1;" horiz-adv-x="406" 
d="M213 336c82 0 129 -72 129 -148v-178c0 -8 -7 -14 -14 -14c-8 0 -14 6 -14 14v178c0 61 -34 120 -101 120c-84 0 -116 -75 -116 -159v-140c0 -8 -6 -14 -14 -14s-14 6 -14 14v306c0 8 6 14 14 14s14 -6 14 -14v-49c25 42 66 70 116 70zM109 385c0 33 12 84 54 84
c48 0 56 -73 87 -73c19 0 20 45 21 58c0 8 5 15 14 15c7 0 14 -6 14 -14c0 -33 -7 -87 -51 -87c-48 0 -58 73 -86 73c-21 0 -24 -42 -25 -56c-1 -8 -6 -14 -14 -14s-14 7 -14 14z" />
    <glyph glyph-name="oacute" unicode="&#xf3;" horiz-adv-x="451" 
d="M225 336c94 0 162 -84 162 -174c0 -91 -68 -174 -162 -174s-161 83 -161 174c0 90 67 174 161 174zM225 16c79 0 133 71 133 146c0 74 -54 145 -133 145c-78 0 -133 -71 -133 -145c0 -75 55 -146 133 -146zM209 373c0 4 1 8 4 10l93 93c2 3 6 4 10 4c7 0 14 -6 14 -14
c0 -3 -2 -7 -4 -9l-93 -93c-3 -3 -6 -5 -10 -5c-8 0 -14 7 -14 14z" />
    <glyph glyph-name="ograve" unicode="&#xf2;" horiz-adv-x="451" 
d="M225 336c94 0 162 -84 162 -174c0 -91 -68 -174 -162 -174s-161 83 -161 174c0 90 67 174 161 174zM225 16c79 0 133 71 133 146c0 74 -54 145 -133 145c-78 0 -133 -71 -133 -145c0 -75 55 -146 133 -146zM133 480c4 0 7 -1 10 -4l92 -92c2 -3 4 -6 4 -10
c0 -8 -6 -14 -14 -14c-4 0 -7 1 -10 4l-92 92c-3 3 -4 6 -4 10c0 8 6 14 14 14z" />
    <glyph glyph-name="ocircumflex" unicode="&#xf4;" horiz-adv-x="451" 
d="M225 336c94 0 162 -84 162 -174c0 -91 -68 -174 -162 -174s-161 83 -161 174c0 90 67 174 161 174zM225 16c79 0 133 71 133 146c0 74 -54 145 -133 145c-78 0 -133 -71 -133 -145c0 -75 55 -146 133 -146zM282 347c-5 0 -9 3 -12 7l-48 72l-47 -72c-3 -4 -7 -7 -12 -7
c-8 0 -14 7 -14 14c0 12 52 83 61 97c3 4 8 6 12 6c5 0 10 -2 13 -6c9 -14 61 -85 61 -97c0 -7 -7 -14 -14 -14z" />
    <glyph glyph-name="odieresis" unicode="&#xf6;" horiz-adv-x="451" 
d="M225 336c94 0 162 -84 162 -174c0 -91 -68 -174 -162 -174s-161 83 -161 174c0 90 67 174 161 174zM225 16c79 0 133 71 133 146c0 74 -54 145 -133 145c-78 0 -133 -71 -133 -145c0 -75 55 -146 133 -146zM172 421c12 0 23 -11 23 -23c0 -13 -11 -23 -23 -23
c-13 0 -23 10 -23 23c0 12 10 23 23 23zM288 398c0 -13 -10 -23 -23 -23c-12 0 -23 10 -23 23c0 12 11 23 23 23c13 0 23 -11 23 -23z" />
    <glyph glyph-name="otilde" unicode="&#xf5;" horiz-adv-x="451" 
d="M225 336c94 0 162 -84 162 -174c0 -91 -68 -174 -162 -174s-161 83 -161 174c0 90 67 174 161 174zM225 16c79 0 133 71 133 146c0 74 -54 145 -133 145c-78 0 -133 -71 -133 -145c0 -75 55 -146 133 -146zM119 375c0 33 12 84 54 84c48 0 56 -73 87 -73
c19 0 20 45 21 58c0 8 5 15 14 15c7 0 14 -6 14 -14c0 -33 -7 -87 -51 -87c-48 0 -58 73 -86 73c-21 0 -24 -42 -25 -56c-1 -8 -6 -14 -14 -14s-14 7 -14 14z" />
    <glyph glyph-name="uacute" unicode="&#xfa;" horiz-adv-x="406" 
d="M323 326c7 0 14 -7 14 -14v-97v-209c0 -8 -7 -14 -14 -14c-8 0 -14 6 -14 14v58c-23 -46 -64 -79 -116 -79c-83 0 -129 72 -129 148v179c0 7 6 14 14 14s14 -7 14 -14v-179c0 -60 34 -120 101 -120c94 0 116 88 116 185v114c0 7 6 14 14 14zM159 363c0 4 1 8 4 10l93 93
c2 3 6 4 10 4c7 0 14 -6 14 -14c0 -3 -2 -7 -4 -9l-93 -93c-3 -3 -6 -5 -10 -5c-8 0 -14 7 -14 14z" />
    <glyph glyph-name="ugrave" unicode="&#xf9;" horiz-adv-x="406" 
d="M323 326c7 0 14 -7 14 -14v-97v-209c0 -8 -7 -14 -14 -14c-8 0 -14 6 -14 14v58c-23 -46 -64 -79 -116 -79c-83 0 -129 72 -129 148v179c0 7 6 14 14 14s14 -7 14 -14v-179c0 -60 34 -120 101 -120c94 0 116 88 116 185v114c0 7 6 14 14 14zM143 450c4 0 7 -1 10 -4
l92 -92c2 -3 4 -6 4 -10c0 -8 -6 -14 -14 -14c-4 0 -7 1 -10 4l-92 92c-3 3 -4 6 -4 10c0 8 6 14 14 14z" />
    <glyph glyph-name="ucircumflex" unicode="&#xfb;" horiz-adv-x="406" 
d="M323 326c7 0 14 -7 14 -14v-97v-209c0 -8 -7 -14 -14 -14c-8 0 -14 6 -14 14v58c-23 -46 -64 -79 -116 -79c-83 0 -129 72 -129 148v179c0 7 6 14 14 14s14 -7 14 -14v-179c0 -60 34 -120 101 -120c94 0 116 88 116 185v114c0 7 6 14 14 14zM262 347c-5 0 -9 3 -12 7
l-48 72l-47 -72c-3 -4 -7 -7 -12 -7c-8 0 -14 7 -14 14c0 12 52 83 61 97c3 4 8 6 12 6c5 0 10 -2 13 -6c9 -14 61 -85 61 -97c0 -7 -7 -14 -14 -14z" />
    <glyph glyph-name="udieresis" unicode="&#xfc;" horiz-adv-x="406" 
d="M323 326c7 0 14 -7 14 -14v-97v-209c0 -8 -7 -14 -14 -14c-8 0 -14 6 -14 14v58c-23 -46 -64 -79 -116 -79c-83 0 -129 72 -129 148v179c0 7 6 14 14 14s14 -7 14 -14v-179c0 -60 34 -120 101 -120c94 0 116 88 116 185v114c0 7 6 14 14 14zM152 421c12 0 23 -11 23 -23
c0 -13 -11 -23 -23 -23c-13 0 -23 10 -23 23c0 12 10 23 23 23zM268 398c0 -13 -10 -23 -23 -23c-12 0 -23 10 -23 23c0 12 11 23 23 23c13 0 23 -11 23 -23z" />
    <glyph glyph-name="dagger" unicode="&#x2020;" horiz-adv-x="426" 
d="M227 432h116c8 0 14 -6 14 -14s-6 -14 -14 -14h-116v-591c0 -7 -6 -14 -14 -14s-14 7 -14 14v591h-116c-8 0 -14 6 -14 14s6 14 14 14h116v165c0 7 6 14 14 14s14 -7 14 -14v-165z" />
    <glyph glyph-name="ae" unicode="&#xe6;" horiz-adv-x="746" 
d="M522 333c93 0 160 -83 160 -173c0 -8 -6 -14 -14 -14h-278c6 -69 59 -132 132 -132c49 0 86 19 114 59c3 4 7 7 12 7c8 0 14 -6 14 -14c0 -2 -1 -5 -2 -7c-28 -48 -84 -73 -138 -73c-55 0 -105 31 -134 77v-55c0 -8 -6 -14 -14 -14c-7 0 -14 6 -14 14v59
c-28 -48 -78 -81 -135 -81c-94 0 -161 84 -161 174s67 173 161 173c57 0 107 -32 135 -81v60c0 7 7 14 14 14c8 0 14 -7 14 -14v-55c29 46 79 76 134 76zM225 14c78 0 133 71 133 146c0 74 -55 145 -133 145s-133 -71 -133 -145c0 -75 54 -146 133 -146zM390 174h263
c-6 69 -59 131 -131 131c-73 0 -126 -62 -132 -131z" />
    <glyph glyph-name="oslash" unicode="&#xf8;" horiz-adv-x="455" 
d="M91 -9c-8 0 -14 7 -14 14c0 10 23 32 29 40c-27 32 -42 74 -42 117c0 90 67 174 161 174c37 0 72 -14 100 -38c7 8 23 32 34 32c8 0 14 -6 14 -14c0 -10 -22 -31 -28 -38c27 -33 41 -74 41 -116c0 -90 -67 -174 -161 -174c-36 0 -71 14 -99 37c-7 -8 -24 -34 -35 -34z
M358 162c0 34 -11 68 -32 94l-181 -210c22 -19 51 -30 80 -30c79 0 133 71 133 146zM92 162c0 -35 11 -69 33 -96l182 211c-23 19 -52 31 -82 31c-78 0 -133 -71 -133 -146z" />
    <glyph glyph-name="questiondown" unicode="&#xbf;" horiz-adv-x="482" 
d="M413 -17c0 -101 -74 -168 -175 -168c-93 0 -169 63 -169 160c0 87 56 123 118 171c54 41 68 76 68 142c0 11 -2 28 14 28c13 0 14 -11 14 -21v-7c0 -75 -18 -117 -79 -164c-54 -42 -107 -73 -107 -149c0 -80 63 -132 141 -132c83 0 147 52 147 136c0 8 3 17 13 17
c8 0 15 -5 15 -13zM271 392c-13 0 -23 10 -23 22c0 13 10 23 23 23c12 0 23 -10 23 -23c0 -12 -11 -22 -23 -22z" />
    <glyph glyph-name="exclamdown" unicode="&#xa1;" horiz-adv-x="184" 
d="M92 360c7 0 14 -6 14 -14v-466c0 -8 -7 -14 -14 -14c-8 0 -14 6 -14 14v466c0 8 6 14 14 14zM92 436c-13 0 -23 10 -23 23c0 12 10 23 23 23c12 0 23 -11 23 -23c0 -13 -11 -23 -23 -23z" />
    <glyph glyph-name="guillemotleft" unicode="&#xab;" horiz-adv-x="287" 
d="M79 159c8 -18 71 -144 71 -154c0 -8 -7 -14 -14 -14c-6 0 -11 3 -13 8l-71 152c-2 3 -1 5 -1 8s-1 5 1 8l71 152c2 5 7 9 13 9c7 0 14 -7 14 -14c0 -11 -63 -137 -71 -155zM223 328c8 0 14 -6 14 -14c0 -10 -62 -136 -71 -154c9 -18 71 -144 71 -155c0 -7 -6 -14 -14 -14
c-5 0 -10 4 -12 8l-72 152c-1 4 0 6 0 9s-1 5 0 8l72 152c2 5 7 8 12 8z" />
    <glyph glyph-name="guillemotright" unicode="&#xbb;" horiz-adv-x="287" 
d="M208 159c-8 18 -71 144 -71 155c0 7 7 14 14 14c6 0 11 -4 13 -9l71 -152c2 -3 1 -5 1 -8s1 -5 -1 -8l-71 -152c-2 -5 -7 -8 -13 -8c-7 0 -14 6 -14 14c0 10 63 136 71 154zM64 328c5 0 10 -3 12 -8l72 -152c1 -3 0 -5 0 -8s1 -5 0 -9l-72 -152c-2 -4 -7 -8 -12 -8
c-8 0 -14 7 -14 14c0 11 62 137 71 155c-9 18 -71 144 -71 154c0 8 6 14 14 14z" />
    <glyph glyph-name="ellipsis" unicode="&#x2026;" horiz-adv-x="526" 
d="M92 41c12 0 23 -10 23 -22c0 -13 -11 -23 -23 -23c-13 0 -23 10 -23 23c0 12 10 22 23 22zM430 42c13 0 23 -11 23 -23s-10 -23 -23 -23c-12 0 -23 11 -23 23s11 23 23 23zM263 42c12 0 23 -11 23 -23s-11 -23 -23 -23s-23 11 -23 23s11 23 23 23z" />
    <glyph glyph-name="Acircumflex" unicode="&#xc2;" horiz-adv-x="550" 
d="M78 -7c-8 0 -14 7 -14 14s182 558 197 603c2 6 8 9 14 9s12 -3 14 -9c14 -44 197 -596 197 -603s-7 -14 -14 -14c-6 0 -12 4 -14 10l-75 230h-216l-76 -230c-2 -6 -7 -10 -13 -10zM275 562l-99 -301h198zM342 647c-5 0 -9 3 -12 7l-48 72l-47 -72c-3 -4 -7 -7 -12 -7
c-8 0 -14 7 -14 14c0 12 52 83 61 97c3 4 8 6 12 6c5 0 10 -2 13 -6c9 -14 61 -85 61 -97c0 -7 -7 -14 -14 -14z" />
    <glyph glyph-name="Ecircumflex" unicode="&#xca;" horiz-adv-x="431" 
d="M83 -3c-8 0 -14 7 -14 14v586c0 7 6 14 14 14h270c8 0 14 -7 14 -14c0 -8 -6 -14 -14 -14h-256v-242h167c8 0 14 -7 14 -14c0 -8 -6 -14 -14 -14h-167v-288h256c8 0 14 -6 14 -14c0 -7 -6 -14 -14 -14h-270zM272 647c-5 0 -9 3 -12 7l-48 72l-47 -72c-3 -4 -7 -7 -12 -7
c-8 0 -14 7 -14 14c0 12 52 83 61 97c3 4 8 6 12 6c5 0 10 -2 13 -6c9 -14 61 -85 61 -97c0 -7 -7 -14 -14 -14z" />
    <glyph glyph-name="Aacute" unicode="&#xc1;" horiz-adv-x="550" 
d="M78 -7c-8 0 -14 7 -14 14s182 558 197 603c2 6 8 9 14 9s12 -3 14 -9c14 -44 197 -596 197 -603s-7 -14 -14 -14c-6 0 -12 4 -14 10l-75 230h-216l-76 -230c-2 -6 -7 -10 -13 -10zM275 562l-99 -301h198zM269 653c0 4 1 8 4 10l93 93c2 3 6 4 10 4c7 0 14 -6 14 -14
c0 -3 -2 -7 -4 -9l-93 -93c-3 -3 -6 -5 -10 -5c-8 0 -14 7 -14 14z" />
    <glyph glyph-name="Edieresis" unicode="&#xcb;" horiz-adv-x="431" 
d="M83 -3c-8 0 -14 7 -14 14v586c0 7 6 14 14 14h270c8 0 14 -7 14 -14c0 -8 -6 -14 -14 -14h-256v-242h167c8 0 14 -7 14 -14c0 -8 -6 -14 -14 -14h-167v-288h256c8 0 14 -6 14 -14c0 -7 -6 -14 -14 -14h-270zM172 711c12 0 23 -11 23 -23c0 -13 -11 -23 -23 -23
c-13 0 -23 10 -23 23c0 12 10 23 23 23zM288 688c0 -13 -10 -23 -23 -23c-12 0 -23 10 -23 23c0 12 11 23 23 23c13 0 23 -11 23 -23z" />
    <glyph glyph-name="Egrave" unicode="&#xc8;" horiz-adv-x="431" 
d="M83 -3c-8 0 -14 7 -14 14v586c0 7 6 14 14 14h270c8 0 14 -7 14 -14c0 -8 -6 -14 -14 -14h-256v-242h167c8 0 14 -7 14 -14c0 -8 -6 -14 -14 -14h-167v-288h256c8 0 14 -6 14 -14c0 -7 -6 -14 -14 -14h-270zM163 760c4 0 7 -1 10 -4l92 -92c2 -3 4 -6 4 -10
c0 -8 -6 -14 -14 -14c-4 0 -7 1 -10 4l-92 92c-3 3 -4 6 -4 10c0 8 6 14 14 14z" />
    <glyph glyph-name="Iacute" unicode="&#xcd;" horiz-adv-x="266" 
d="M64 17c0 8 6 14 14 14h41v545h-41c-8 0 -14 6 -14 14c0 7 6 14 14 14h110c7 0 14 -7 14 -14c0 -8 -7 -14 -14 -14h-41v-545h41c7 0 14 -6 14 -14c0 -7 -7 -14 -14 -14h-110c-8 0 -14 7 -14 14zM69 653c0 4 1 8 4 10l93 93c2 3 6 4 10 4c7 0 14 -6 14 -14
c0 -3 -2 -7 -4 -9l-93 -93c-3 -3 -6 -5 -10 -5c-8 0 -14 7 -14 14z" />
    <glyph glyph-name="Icircumflex" unicode="&#xce;" horiz-adv-x="266" 
d="M64 17c0 8 6 14 14 14h41v545h-41c-8 0 -14 6 -14 14c0 7 6 14 14 14h110c7 0 14 -7 14 -14c0 -8 -7 -14 -14 -14h-41v-545h41c7 0 14 -6 14 -14c0 -7 -7 -14 -14 -14h-110c-8 0 -14 7 -14 14zM192 637c-5 0 -9 3 -12 7l-48 72l-47 -72c-3 -4 -7 -7 -12 -7
c-8 0 -14 7 -14 14c0 12 52 83 61 97c3 4 8 6 12 6c5 0 10 -2 13 -6c9 -14 61 -85 61 -97c0 -7 -7 -14 -14 -14z" />
    <glyph glyph-name="Idieresis" unicode="&#xcf;" horiz-adv-x="266" 
d="M64 17c0 8 6 14 14 14h41v545h-41c-8 0 -14 6 -14 14c0 7 6 14 14 14h110c7 0 14 -7 14 -14c0 -8 -7 -14 -14 -14h-41v-545h41c7 0 14 -6 14 -14c0 -7 -7 -14 -14 -14h-110c-8 0 -14 7 -14 14zM82 701c12 0 23 -11 23 -23c0 -13 -11 -23 -23 -23c-13 0 -23 10 -23 23
c0 12 10 23 23 23zM198 678c0 -13 -10 -23 -23 -23c-12 0 -23 10 -23 23c0 12 11 23 23 23c13 0 23 -11 23 -23z" />
    <glyph glyph-name="Igrave" unicode="&#xcc;" horiz-adv-x="266" 
d="M64 17c0 8 6 14 14 14h41v545h-41c-8 0 -14 6 -14 14c0 7 6 14 14 14h110c7 0 14 -7 14 -14c0 -8 -7 -14 -14 -14h-41v-545h41c7 0 14 -6 14 -14c0 -7 -7 -14 -14 -14h-110c-8 0 -14 7 -14 14zM83 760c4 0 7 -1 10 -4l92 -92c2 -3 4 -6 4 -10c0 -8 -6 -14 -14 -14
c-4 0 -7 1 -10 4l-92 92c-3 3 -4 6 -4 10c0 8 6 14 14 14z" />
    <glyph glyph-name="Oacute" unicode="&#xd3;" horiz-adv-x="542" 
d="M271 622c29 0 58 -10 83 -26c89 -59 124 -190 124 -291c0 -102 -35 -232 -124 -292c-25 -16 -53 -26 -83 -26s-58 10 -83 26c-89 60 -124 190 -124 292c0 101 35 232 124 291c25 16 53 26 83 26zM271 15c24 0 47 8 67 22c81 53 112 176 112 268c0 91 -31 214 -112 268
c-20 13 -43 21 -67 21s-47 -8 -67 -21c-81 -54 -112 -177 -112 -268c0 -92 31 -215 112 -268c20 -14 43 -22 67 -22zM219 653c0 4 1 8 4 10l93 93c2 3 6 4 10 4c7 0 14 -6 14 -14c0 -3 -2 -7 -4 -9l-93 -93c-3 -3 -6 -5 -10 -5c-8 0 -14 7 -14 14z" />
    <glyph glyph-name="Ocircumflex" unicode="&#xd4;" horiz-adv-x="542" 
d="M271 622c29 0 58 -10 83 -26c89 -59 124 -190 124 -291c0 -102 -35 -232 -124 -292c-25 -16 -53 -26 -83 -26s-58 10 -83 26c-89 60 -124 190 -124 292c0 101 35 232 124 291c25 16 53 26 83 26zM271 15c24 0 47 8 67 22c81 53 112 176 112 268c0 91 -31 214 -112 268
c-20 13 -43 21 -67 21s-47 -8 -67 -21c-81 -54 -112 -177 -112 -268c0 -92 31 -215 112 -268c20 -14 43 -22 67 -22zM332 637c-5 0 -9 3 -12 7l-48 72l-47 -72c-3 -4 -7 -7 -12 -7c-8 0 -14 7 -14 14c0 12 52 83 61 97c3 4 8 6 12 6c5 0 10 -2 13 -6c9 -14 61 -85 61 -97
c0 -7 -7 -14 -14 -14z" />
    <glyph glyph-name="Ograve" unicode="&#xd2;" horiz-adv-x="542" 
d="M271 622c29 0 58 -10 83 -26c89 -59 124 -190 124 -291c0 -102 -35 -232 -124 -292c-25 -16 -53 -26 -83 -26s-58 10 -83 26c-89 60 -124 190 -124 292c0 101 35 232 124 291c25 16 53 26 83 26zM271 15c24 0 47 8 67 22c81 53 112 176 112 268c0 91 -31 214 -112 268
c-20 13 -43 21 -67 21s-47 -8 -67 -21c-81 -54 -112 -177 -112 -268c0 -92 31 -215 112 -268c20 -14 43 -22 67 -22zM173 770c4 0 7 -1 10 -4l92 -92c2 -3 4 -6 4 -10c0 -8 -6 -14 -14 -14c-4 0 -7 1 -10 4l-92 92c-3 3 -4 6 -4 10c0 8 6 14 14 14z" />
    <glyph glyph-name="Uacute" unicode="&#xda;" horiz-adv-x="505" 
d="M422 615c8 0 14 -7 14 -14v-442c0 -111 -77 -171 -183 -171c-105 0 -184 62 -184 171v442c0 7 6 14 14 14s14 -7 14 -14v-442c0 -94 67 -143 156 -143c90 0 155 48 155 143v442c0 7 7 14 14 14zM219 653c0 4 1 8 4 10l93 93c2 3 6 4 10 4c7 0 14 -6 14 -14
c0 -3 -2 -7 -4 -9l-93 -93c-3 -3 -6 -5 -10 -5c-8 0 -14 7 -14 14z" />
    <glyph glyph-name="Ucircumflex" unicode="&#xdb;" horiz-adv-x="505" 
d="M422 615c8 0 14 -7 14 -14v-442c0 -111 -77 -171 -183 -171c-105 0 -184 62 -184 171v442c0 7 6 14 14 14s14 -7 14 -14v-442c0 -94 67 -143 156 -143c90 0 155 48 155 143v442c0 7 7 14 14 14zM312 647c-5 0 -9 3 -12 7l-48 72l-47 -72c-3 -4 -7 -7 -12 -7
c-8 0 -14 7 -14 14c0 12 52 83 61 97c3 4 8 6 12 6c5 0 10 -2 13 -6c9 -14 61 -85 61 -97c0 -7 -7 -14 -14 -14z" />
    <glyph glyph-name="Ugrave" unicode="&#xd9;" horiz-adv-x="505" 
d="M422 615c8 0 14 -7 14 -14v-442c0 -111 -77 -171 -183 -171c-105 0 -184 62 -184 171v442c0 7 6 14 14 14s14 -7 14 -14v-442c0 -94 67 -143 156 -143c90 0 155 48 155 143v442c0 7 7 14 14 14zM193 750c4 0 7 -1 10 -4l92 -92c2 -3 4 -6 4 -10c0 -8 -6 -14 -14 -14
c-4 0 -7 1 -10 4l-92 92c-3 3 -4 6 -4 10c0 8 6 14 14 14z" />
    <glyph glyph-name="Agrave" unicode="&#xc0;" horiz-adv-x="550" 
d="M78 -7c-8 0 -14 7 -14 14s182 558 197 603c2 6 8 9 14 9s12 -3 14 -9c14 -44 197 -596 197 -603s-7 -14 -14 -14c-6 0 -12 4 -14 10l-75 230h-216l-76 -230c-2 -6 -7 -10 -13 -10zM275 562l-99 -301h198zM183 770c4 0 7 -1 10 -4l92 -92c2 -3 4 -6 4 -10
c0 -8 -6 -14 -14 -14c-4 0 -7 1 -10 4l-92 92c-3 3 -4 6 -4 10c0 8 6 14 14 14z" />
    <glyph glyph-name="Atilde" unicode="&#xc3;" horiz-adv-x="550" 
d="M78 -7c-8 0 -14 7 -14 14s182 558 197 603c2 6 8 9 14 9s12 -3 14 -9c14 -44 197 -596 197 -603s-7 -14 -14 -14c-6 0 -12 4 -14 10l-75 230h-216l-76 -230c-2 -6 -7 -10 -13 -10zM275 562l-99 -301h198zM179 665c0 33 12 84 54 84c48 0 56 -73 87 -73c19 0 20 45 21 58
c0 8 5 15 14 15c7 0 14 -6 14 -14c0 -33 -7 -87 -51 -87c-48 0 -58 73 -86 73c-21 0 -24 -42 -25 -56c-1 -8 -6 -14 -14 -14s-14 7 -14 14z" />
    <glyph glyph-name="Otilde" unicode="&#xd5;" horiz-adv-x="542" 
d="M271 622c29 0 58 -10 83 -26c89 -59 124 -190 124 -291c0 -102 -35 -232 -124 -292c-25 -16 -53 -26 -83 -26s-58 10 -83 26c-89 60 -124 190 -124 292c0 101 35 232 124 291c25 16 53 26 83 26zM271 15c24 0 47 8 67 22c81 53 112 176 112 268c0 91 -31 214 -112 268
c-20 13 -43 21 -67 21s-47 -8 -67 -21c-81 -54 -112 -177 -112 -268c0 -92 31 -215 112 -268c20 -14 43 -22 67 -22zM169 665c0 33 12 84 54 84c48 0 56 -73 87 -73c19 0 20 45 21 58c0 8 5 15 14 15c7 0 14 -6 14 -14c0 -33 -7 -87 -51 -87c-48 0 -58 73 -86 73
c-21 0 -24 -42 -25 -56c-1 -8 -6 -14 -14 -14s-14 7 -14 14z" />
    <glyph glyph-name="OE" unicode="&#x152;" horiz-adv-x="819" 
d="M69 314c0 101 35 231 124 290c24 16 53 26 82 26c89 0 149 -80 178 -155v120c0 7 6 14 14 14h269c7 0 14 -7 14 -14c0 -8 -7 -14 -14 -14h-255v-241h166c8 0 14 -7 14 -14c0 -8 -6 -14 -14 -14h-166c0 -16 -1 -32 -1 -48v-191l1 -48h255c7 0 14 -6 14 -14
c0 -7 -7 -14 -14 -14h-269c-8 0 -14 7 -14 14v141c-29 -75 -89 -155 -178 -155c-29 0 -58 10 -82 26c-89 59 -124 190 -124 291zM275 602c-24 0 -47 -8 -67 -21c-80 -54 -111 -176 -111 -267c0 -92 31 -214 111 -268c20 -13 43 -21 67 -21c116 0 178 168 178 264
c0 28 0 56 -3 84c-12 89 -67 229 -175 229z" />
    <glyph glyph-name="ydieresis" unicode="&#xff;" horiz-adv-x="408" 
d="M330 329c8 0 14 -6 14 -14c0 -7 -180 -467 -196 -506c-2 -5 -7 -9 -13 -9c-7 0 -14 7 -14 14c0 9 65 168 72 188c-4 4 -129 307 -129 313c0 8 6 14 14 14c6 0 11 -3 13 -8l116 -283l110 282c2 6 8 9 13 9zM152 421c12 0 23 -11 23 -23c0 -13 -11 -23 -23 -23
c-13 0 -23 10 -23 23c0 12 10 23 23 23zM268 398c0 -13 -10 -23 -23 -23c-12 0 -23 10 -23 23c0 12 11 23 23 23c13 0 23 -11 23 -23z" />
    <glyph glyph-name="Ydieresis" unicode="&#x178;" horiz-adv-x="478" 
d="M400 611c8 0 14 -7 14 -14c0 -11 -146 -279 -161 -308v-279c0 -8 -6 -14 -14 -14s-14 6 -14 14v280c-15 28 -161 296 -161 307c0 7 6 14 14 14c5 0 10 -3 12 -8l149 -280l149 280c2 5 7 8 12 8zM192 671c12 0 23 -11 23 -23c0 -13 -11 -23 -23 -23c-13 0 -23 10 -23 23
c0 12 10 23 23 23zM308 648c0 -13 -10 -23 -23 -23c-12 0 -23 10 -23 23c0 12 11 23 23 23c13 0 23 -11 23 -23z" />
    <glyph glyph-name="Scaron" unicode="&#x160;" horiz-adv-x="490" 
d="M97 469c0 -84 77 -112 144 -134c88 -30 180 -83 180 -187c0 -100 -73 -163 -170 -163c-107 0 -182 73 -182 179c0 8 7 14 14 14c9 0 13 -6 14 -14s1 -18 2 -26c6 -43 27 -78 64 -101c25 -17 57 -24 87 -24c82 0 143 51 143 135c0 90 -87 136 -161 160
c-79 26 -163 63 -163 161c0 87 75 151 160 151c96 0 166 -69 166 -164c0 -8 -7 -14 -15 -14c-9 0 -12 7 -14 14c-2 13 -1 26 -5 39c-17 64 -62 95 -127 96l-5 1c-69 1 -132 -52 -132 -123zM233 643c-5 0 -9 2 -12 6c-9 14 -61 85 -61 97c0 8 6 14 14 14c4 0 9 -2 11 -6
l48 -72l48 72c2 4 7 6 12 6c7 0 14 -6 14 -14c0 -12 -53 -83 -62 -97c-2 -4 -7 -6 -12 -6z" />
    <glyph glyph-name="scaron" unicode="&#x161;" horiz-adv-x="411" 
d="M101 249c0 -86 241 -29 241 -159c0 -71 -74 -104 -135 -104c-66 0 -138 26 -138 103c0 13 1 23 17 23c8 0 11 -10 11 -16c0 -66 53 -82 110 -82c45 0 107 22 107 76c0 101 -241 41 -241 158c0 67 75 84 128 84c63 0 133 -23 133 -98c0 -8 -8 -13 -15 -13
c-9 0 -13 8 -13 15c-2 16 -5 27 -16 40c-20 23 -60 28 -89 28c-35 0 -100 -8 -100 -55zM197 363c-4 0 -9 2 -12 6c-9 14 -61 85 -61 97c0 8 6 14 14 14c5 0 9 -2 12 -6l47 -72l48 72c3 4 7 6 12 6c7 0 14 -6 14 -14c0 -12 -52 -83 -61 -97c-3 -4 -8 -6 -13 -6z" />
    <glyph glyph-name="Yacute" unicode="&#xdd;" horiz-adv-x="478" 
d="M400 611c8 0 14 -7 14 -14c0 -11 -146 -279 -161 -308v-279c0 -8 -6 -14 -14 -14s-14 6 -14 14v280c-15 28 -161 296 -161 307c0 7 6 14 14 14c5 0 10 -3 12 -8l149 -280l149 280c2 5 7 8 12 8zM199 653c0 4 1 8 4 10l93 93c2 3 6 4 10 4c7 0 14 -6 14 -14
c0 -3 -2 -7 -4 -9l-93 -93c-3 -3 -6 -5 -10 -5c-8 0 -14 7 -14 14z" />
    <glyph glyph-name="yacute" unicode="&#xfd;" horiz-adv-x="408" 
d="M330 329c8 0 14 -6 14 -14c0 -7 -180 -467 -196 -506c-2 -5 -7 -9 -13 -9c-7 0 -14 7 -14 14c0 9 65 168 72 188c-4 4 -129 307 -129 313c0 8 6 14 14 14c6 0 11 -3 13 -8l116 -283l110 282c2 6 8 9 13 9zM169 363c0 4 1 8 4 10l93 93c2 3 6 4 10 4c7 0 14 -6 14 -14
c0 -3 -2 -7 -4 -9l-93 -93c-3 -3 -6 -5 -10 -5c-8 0 -14 7 -14 14z" />
    <glyph glyph-name="Oslash" unicode="&#xd8;" horiz-adv-x="542" 
d="M183 -12c-8 0 -14 6 -14 14c0 1 2 9 5 21c-79 63 -110 185 -110 282c0 101 35 232 124 291c25 16 53 26 83 26c27 0 54 -9 77 -23c3 3 7 5 11 5c8 0 14 -6 14 -14c0 -1 -1 -3 -2 -7c76 -64 107 -184 107 -278c0 -102 -35 -232 -124 -292c-25 -16 -53 -26 -83 -26
c-26 0 -50 8 -72 19c-1 -3 -3 -6 -3 -8c-1 -6 -7 -10 -13 -10zM92 305c0 -84 25 -193 91 -252c36 122 129 432 156 519c-1 0 -1 1 -1 1c-20 13 -43 21 -67 21s-47 -8 -67 -21c-81 -54 -112 -177 -112 -268zM271 15c24 0 47 8 67 22c81 53 112 176 112 268
c0 81 -25 187 -87 248c-30 -104 -123 -410 -156 -519c19 -12 41 -19 64 -19z" />
    <glyph glyph-name="Eth" unicode="&#xd0;" horiz-adv-x="538" 
d="M469 302c0 -42 -5 -83 -16 -123c-23 -81 -82 -184 -178 -184h-139c-2 -1 -4 -2 -6 -2c-7 0 -14 7 -14 14v304c-12 0 -47 -6 -47 14s35 14 47 14v255c0 8 8 15 15 15h144c96 0 155 -103 178 -184c11 -40 16 -82 16 -123zM144 339h111c8 0 14 -6 14 -14
c0 -7 -6 -14 -14 -14h-111v-288h131c83 0 133 95 151 164c11 37 15 76 15 115s-4 78 -15 115c-18 69 -68 164 -151 164h-131v-242z" />
    <glyph glyph-name="fi" unicode="&#xfb01;" horiz-adv-x="551" 
d="M285 328c0 -8 -7 -14 -14 -14h-101v-307c0 -7 -6 -14 -14 -14s-14 7 -14 14v307h-64c-8 0 -14 6 -14 14s6 14 14 14h64v163c0 68 44 104 111 104c35 0 93 -24 111 -55c2 -3 3 -5 3 -9c0 -7 -6 -14 -14 -14c-12 0 -40 50 -99 50c-45 0 -84 -21 -84 -70v-169h101
c7 0 14 -6 14 -14zM482 424c0 -12 -11 -22 -23 -22c-13 0 -23 10 -23 22c0 13 10 23 23 23c12 0 23 -10 23 -23zM459 326c7 0 14 -7 14 -14v-304c0 -7 -7 -14 -14 -14c-8 0 -14 7 -14 14v304c0 7 6 14 14 14z" />
    <glyph glyph-name="periodcentered" unicode="&#xb7;" horiz-adv-x="184" 
d="M92 297c12 0 23 -10 23 -22c0 -13 -11 -23 -23 -23c-13 0 -23 10 -23 23c0 12 10 22 23 22z" />
    <glyph glyph-name="fraction" unicode="&#x2044;" horiz-adv-x="584" 
d="M150 -12c-7 0 -14 6 -14 14c0 9 258 545 280 591c2 5 7 8 13 8c7 0 13 -6 13 -14c0 -9 -257 -545 -279 -591c-2 -5 -7 -8 -13 -8z" />
    <glyph glyph-name="Lslash" unicode="&#x141;" 
d="M83 340c-8 0 -14 6 -14 14c0 5 2 9 6 12l111 74l-111 75c-4 3 -6 7 -6 12c0 8 6 14 14 14c11 0 95 -62 110 -72v115c0 8 6 14 14 14s14 -6 14 -14v-120c15 10 97 71 108 71c8 0 14 -6 14 -14c0 -5 -2 -9 -6 -12l-102 -69l102 -68c4 -3 6 -7 6 -12c0 -8 -6 -14 -14 -14
c-11 0 -93 61 -108 71v-120c0 -8 -6 -14 -14 -14s-14 6 -14 14v115c-15 -10 -99 -72 -110 -72z" />
    <glyph glyph-name="lslash" unicode="&#x142;" 
d="M83 340c-8 0 -14 6 -14 14c0 5 2 9 6 12l111 74l-111 75c-4 3 -6 7 -6 12c0 8 6 14 14 14c11 0 95 -62 110 -72v115c0 8 6 14 14 14s14 -6 14 -14v-120c15 10 97 71 108 71c8 0 14 -6 14 -14c0 -5 -2 -9 -6 -12l-102 -69l102 -68c4 -3 6 -7 6 -12c0 -8 -6 -14 -14 -14
c-11 0 -93 61 -108 71v-120c0 -8 -6 -14 -14 -14s-14 6 -14 14v115c-15 -10 -99 -72 -110 -72z" />
    <glyph glyph-name="notequal" unicode="&#x2260;" 
d="M83 340c-8 0 -14 6 -14 14c0 5 2 9 6 12l111 74l-111 75c-4 3 -6 7 -6 12c0 8 6 14 14 14c11 0 95 -62 110 -72v115c0 8 6 14 14 14s14 -6 14 -14v-120c15 10 97 71 108 71c8 0 14 -6 14 -14c0 -5 -2 -9 -6 -12l-102 -69l102 -68c4 -3 6 -7 6 -12c0 -8 -6 -14 -14 -14
c-11 0 -93 61 -108 71v-120c0 -8 -6 -14 -14 -14s-14 6 -14 14v115c-15 -10 -99 -72 -110 -72z" />
    <glyph glyph-name="infinity" unicode="&#x221e;" 
d="M83 340c-8 0 -14 6 -14 14c0 5 2 9 6 12l111 74l-111 75c-4 3 -6 7 -6 12c0 8 6 14 14 14c11 0 95 -62 110 -72v115c0 8 6 14 14 14s14 -6 14 -14v-120c15 10 97 71 108 71c8 0 14 -6 14 -14c0 -5 -2 -9 -6 -12l-102 -69l102 -68c4 -3 6 -7 6 -12c0 -8 -6 -14 -14 -14
c-11 0 -93 61 -108 71v-120c0 -8 -6 -14 -14 -14s-14 6 -14 14v115c-15 -10 -99 -72 -110 -72z" />
    <glyph glyph-name="plusminus" unicode="&#xb1;" 
d="M83 340c-8 0 -14 6 -14 14c0 5 2 9 6 12l111 74l-111 75c-4 3 -6 7 -6 12c0 8 6 14 14 14c11 0 95 -62 110 -72v115c0 8 6 14 14 14s14 -6 14 -14v-120c15 10 97 71 108 71c8 0 14 -6 14 -14c0 -5 -2 -9 -6 -12l-102 -69l102 -68c4 -3 6 -7 6 -12c0 -8 -6 -14 -14 -14
c-11 0 -93 61 -108 71v-120c0 -8 -6 -14 -14 -14s-14 6 -14 14v115c-15 -10 -99 -72 -110 -72z" />
    <glyph glyph-name="lessequal" unicode="&#x2264;" 
d="M83 340c-8 0 -14 6 -14 14c0 5 2 9 6 12l111 74l-111 75c-4 3 -6 7 -6 12c0 8 6 14 14 14c11 0 95 -62 110 -72v115c0 8 6 14 14 14s14 -6 14 -14v-120c15 10 97 71 108 71c8 0 14 -6 14 -14c0 -5 -2 -9 -6 -12l-102 -69l102 -68c4 -3 6 -7 6 -12c0 -8 -6 -14 -14 -14
c-11 0 -93 61 -108 71v-120c0 -8 -6 -14 -14 -14s-14 6 -14 14v115c-15 -10 -99 -72 -110 -72z" />
    <glyph glyph-name="greaterequal" unicode="&#x2265;" 
d="M83 340c-8 0 -14 6 -14 14c0 5 2 9 6 12l111 74l-111 75c-4 3 -6 7 -6 12c0 8 6 14 14 14c11 0 95 -62 110 -72v115c0 8 6 14 14 14s14 -6 14 -14v-120c15 10 97 71 108 71c8 0 14 -6 14 -14c0 -5 -2 -9 -6 -12l-102 -69l102 -68c4 -3 6 -7 6 -12c0 -8 -6 -14 -14 -14
c-11 0 -93 61 -108 71v-120c0 -8 -6 -14 -14 -14s-14 6 -14 14v115c-15 -10 -99 -72 -110 -72z" />
    <glyph glyph-name="mu" unicode="&#xb5;" 
d="M83 340c-8 0 -14 6 -14 14c0 5 2 9 6 12l111 74l-111 75c-4 3 -6 7 -6 12c0 8 6 14 14 14c11 0 95 -62 110 -72v115c0 8 6 14 14 14s14 -6 14 -14v-120c15 10 97 71 108 71c8 0 14 -6 14 -14c0 -5 -2 -9 -6 -12l-102 -69l102 -68c4 -3 6 -7 6 -12c0 -8 -6 -14 -14 -14
c-11 0 -93 61 -108 71v-120c0 -8 -6 -14 -14 -14s-14 6 -14 14v115c-15 -10 -99 -72 -110 -72z" />
    <glyph glyph-name="mu" unicode="&#x3bc;" 
d="M83 340c-8 0 -14 6 -14 14c0 5 2 9 6 12l111 74l-111 75c-4 3 -6 7 -6 12c0 8 6 14 14 14c11 0 95 -62 110 -72v115c0 8 6 14 14 14s14 -6 14 -14v-120c15 10 97 71 108 71c8 0 14 -6 14 -14c0 -5 -2 -9 -6 -12l-102 -69l102 -68c4 -3 6 -7 6 -12c0 -8 -6 -14 -14 -14
c-11 0 -93 61 -108 71v-120c0 -8 -6 -14 -14 -14s-14 6 -14 14v115c-15 -10 -99 -72 -110 -72z" />
    <glyph glyph-name="partialdiff" unicode="&#x2202;" 
d="M83 340c-8 0 -14 6 -14 14c0 5 2 9 6 12l111 74l-111 75c-4 3 -6 7 -6 12c0 8 6 14 14 14c11 0 95 -62 110 -72v115c0 8 6 14 14 14s14 -6 14 -14v-120c15 10 97 71 108 71c8 0 14 -6 14 -14c0 -5 -2 -9 -6 -12l-102 -69l102 -68c4 -3 6 -7 6 -12c0 -8 -6 -14 -14 -14
c-11 0 -93 61 -108 71v-120c0 -8 -6 -14 -14 -14s-14 6 -14 14v115c-15 -10 -99 -72 -110 -72z" />
    <glyph glyph-name="summation" unicode="&#x2211;" 
d="M83 340c-8 0 -14 6 -14 14c0 5 2 9 6 12l111 74l-111 75c-4 3 -6 7 -6 12c0 8 6 14 14 14c11 0 95 -62 110 -72v115c0 8 6 14 14 14s14 -6 14 -14v-120c15 10 97 71 108 71c8 0 14 -6 14 -14c0 -5 -2 -9 -6 -12l-102 -69l102 -68c4 -3 6 -7 6 -12c0 -8 -6 -14 -14 -14
c-11 0 -93 61 -108 71v-120c0 -8 -6 -14 -14 -14s-14 6 -14 14v115c-15 -10 -99 -72 -110 -72z" />
    <glyph glyph-name="product" unicode="&#x220f;" 
d="M83 340c-8 0 -14 6 -14 14c0 5 2 9 6 12l111 74l-111 75c-4 3 -6 7 -6 12c0 8 6 14 14 14c11 0 95 -62 110 -72v115c0 8 6 14 14 14s14 -6 14 -14v-120c15 10 97 71 108 71c8 0 14 -6 14 -14c0 -5 -2 -9 -6 -12l-102 -69l102 -68c4 -3 6 -7 6 -12c0 -8 -6 -14 -14 -14
c-11 0 -93 61 -108 71v-120c0 -8 -6 -14 -14 -14s-14 6 -14 14v115c-15 -10 -99 -72 -110 -72z" />
    <glyph glyph-name="pi" unicode="&#x3c0;" 
d="M83 340c-8 0 -14 6 -14 14c0 5 2 9 6 12l111 74l-111 75c-4 3 -6 7 -6 12c0 8 6 14 14 14c11 0 95 -62 110 -72v115c0 8 6 14 14 14s14 -6 14 -14v-120c15 10 97 71 108 71c8 0 14 -6 14 -14c0 -5 -2 -9 -6 -12l-102 -69l102 -68c4 -3 6 -7 6 -12c0 -8 -6 -14 -14 -14
c-11 0 -93 61 -108 71v-120c0 -8 -6 -14 -14 -14s-14 6 -14 14v115c-15 -10 -99 -72 -110 -72z" />
    <glyph glyph-name="integral" unicode="&#x222b;" 
d="M83 340c-8 0 -14 6 -14 14c0 5 2 9 6 12l111 74l-111 75c-4 3 -6 7 -6 12c0 8 6 14 14 14c11 0 95 -62 110 -72v115c0 8 6 14 14 14s14 -6 14 -14v-120c15 10 97 71 108 71c8 0 14 -6 14 -14c0 -5 -2 -9 -6 -12l-102 -69l102 -68c4 -3 6 -7 6 -12c0 -8 -6 -14 -14 -14
c-11 0 -93 61 -108 71v-120c0 -8 -6 -14 -14 -14s-14 6 -14 14v115c-15 -10 -99 -72 -110 -72z" />
    <glyph glyph-name="Omega" unicode="&#x3a9;" 
d="M83 340c-8 0 -14 6 -14 14c0 5 2 9 6 12l111 74l-111 75c-4 3 -6 7 -6 12c0 8 6 14 14 14c11 0 95 -62 110 -72v115c0 8 6 14 14 14s14 -6 14 -14v-120c15 10 97 71 108 71c8 0 14 -6 14 -14c0 -5 -2 -9 -6 -12l-102 -69l102 -68c4 -3 6 -7 6 -12c0 -8 -6 -14 -14 -14
c-11 0 -93 61 -108 71v-120c0 -8 -6 -14 -14 -14s-14 6 -14 14v115c-15 -10 -99 -72 -110 -72z" />
    <glyph glyph-name="Omega" unicode="&#x2126;" 
d="M83 340c-8 0 -14 6 -14 14c0 5 2 9 6 12l111 74l-111 75c-4 3 -6 7 -6 12c0 8 6 14 14 14c11 0 95 -62 110 -72v115c0 8 6 14 14 14s14 -6 14 -14v-120c15 10 97 71 108 71c8 0 14 -6 14 -14c0 -5 -2 -9 -6 -12l-102 -69l102 -68c4 -3 6 -7 6 -12c0 -8 -6 -14 -14 -14
c-11 0 -93 61 -108 71v-120c0 -8 -6 -14 -14 -14s-14 6 -14 14v115c-15 -10 -99 -72 -110 -72z" />
    <glyph glyph-name="logicalnot" unicode="&#xac;" 
d="M83 340c-8 0 -14 6 -14 14c0 5 2 9 6 12l111 74l-111 75c-4 3 -6 7 -6 12c0 8 6 14 14 14c11 0 95 -62 110 -72v115c0 8 6 14 14 14s14 -6 14 -14v-120c15 10 97 71 108 71c8 0 14 -6 14 -14c0 -5 -2 -9 -6 -12l-102 -69l102 -68c4 -3 6 -7 6 -12c0 -8 -6 -14 -14 -14
c-11 0 -93 61 -108 71v-120c0 -8 -6 -14 -14 -14s-14 6 -14 14v115c-15 -10 -99 -72 -110 -72z" />
    <glyph glyph-name="radical" unicode="&#x221a;" 
d="M83 340c-8 0 -14 6 -14 14c0 5 2 9 6 12l111 74l-111 75c-4 3 -6 7 -6 12c0 8 6 14 14 14c11 0 95 -62 110 -72v115c0 8 6 14 14 14s14 -6 14 -14v-120c15 10 97 71 108 71c8 0 14 -6 14 -14c0 -5 -2 -9 -6 -12l-102 -69l102 -68c4 -3 6 -7 6 -12c0 -8 -6 -14 -14 -14
c-11 0 -93 61 -108 71v-120c0 -8 -6 -14 -14 -14s-14 6 -14 14v115c-15 -10 -99 -72 -110 -72z" />
    <glyph glyph-name="florin" unicode="&#x192;" 
d="M83 340c-8 0 -14 6 -14 14c0 5 2 9 6 12l111 74l-111 75c-4 3 -6 7 -6 12c0 8 6 14 14 14c11 0 95 -62 110 -72v115c0 8 6 14 14 14s14 -6 14 -14v-120c15 10 97 71 108 71c8 0 14 -6 14 -14c0 -5 -2 -9 -6 -12l-102 -69l102 -68c4 -3 6 -7 6 -12c0 -8 -6 -14 -14 -14
c-11 0 -93 61 -108 71v-120c0 -8 -6 -14 -14 -14s-14 6 -14 14v115c-15 -10 -99 -72 -110 -72z" />
    <glyph glyph-name="approxequal" unicode="&#x2248;" 
d="M83 340c-8 0 -14 6 -14 14c0 5 2 9 6 12l111 74l-111 75c-4 3 -6 7 -6 12c0 8 6 14 14 14c11 0 95 -62 110 -72v115c0 8 6 14 14 14s14 -6 14 -14v-120c15 10 97 71 108 71c8 0 14 -6 14 -14c0 -5 -2 -9 -6 -12l-102 -69l102 -68c4 -3 6 -7 6 -12c0 -8 -6 -14 -14 -14
c-11 0 -93 61 -108 71v-120c0 -8 -6 -14 -14 -14s-14 6 -14 14v115c-15 -10 -99 -72 -110 -72z" />
    <glyph glyph-name="Delta" unicode="&#x394;" 
d="M83 340c-8 0 -14 6 -14 14c0 5 2 9 6 12l111 74l-111 75c-4 3 -6 7 -6 12c0 8 6 14 14 14c11 0 95 -62 110 -72v115c0 8 6 14 14 14s14 -6 14 -14v-120c15 10 97 71 108 71c8 0 14 -6 14 -14c0 -5 -2 -9 -6 -12l-102 -69l102 -68c4 -3 6 -7 6 -12c0 -8 -6 -14 -14 -14
c-11 0 -93 61 -108 71v-120c0 -8 -6 -14 -14 -14s-14 6 -14 14v115c-15 -10 -99 -72 -110 -72z" />
    <glyph glyph-name="Delta" unicode="&#x2206;" 
d="M83 340c-8 0 -14 6 -14 14c0 5 2 9 6 12l111 74l-111 75c-4 3 -6 7 -6 12c0 8 6 14 14 14c11 0 95 -62 110 -72v115c0 8 6 14 14 14s14 -6 14 -14v-120c15 10 97 71 108 71c8 0 14 -6 14 -14c0 -5 -2 -9 -6 -12l-102 -69l102 -68c4 -3 6 -7 6 -12c0 -8 -6 -14 -14 -14
c-11 0 -93 61 -108 71v-120c0 -8 -6 -14 -14 -14s-14 6 -14 14v115c-15 -10 -99 -72 -110 -72z" />
    <glyph glyph-name="uni00A0" unicode="&#xa0;" horiz-adv-x="0" 
 />
    <glyph glyph-name="lozenge" unicode="&#x25ca;" 
d="M83 340c-8 0 -14 6 -14 14c0 5 2 9 6 12l111 74l-111 75c-4 3 -6 7 -6 12c0 8 6 14 14 14c11 0 95 -62 110 -72v115c0 8 6 14 14 14s14 -6 14 -14v-120c15 10 97 71 108 71c8 0 14 -6 14 -14c0 -5 -2 -9 -6 -12l-102 -69l102 -68c4 -3 6 -7 6 -12c0 -8 -6 -14 -14 -14
c-11 0 -93 61 -108 71v-120c0 -8 -6 -14 -14 -14s-14 6 -14 14v115c-15 -10 -99 -72 -110 -72z" />
    <glyph glyph-name="apple" 
d="M83 340c-8 0 -14 6 -14 14c0 5 2 9 6 12l111 74l-111 75c-4 3 -6 7 -6 12c0 8 6 14 14 14c11 0 95 -62 110 -72v115c0 8 6 14 14 14s14 -6 14 -14v-120c15 10 97 71 108 71c8 0 14 -6 14 -14c0 -5 -2 -9 -6 -12l-102 -69l102 -68c4 -3 6 -7 6 -12c0 -8 -6 -14 -14 -14
c-11 0 -93 61 -108 71v-120c0 -8 -6 -14 -14 -14s-14 6 -14 14v115c-15 -10 -99 -72 -110 -72z" />
    <glyph glyph-name="macron" unicode="&#xaf;" 
d="M83 340c-8 0 -14 6 -14 14c0 5 2 9 6 12l111 74l-111 75c-4 3 -6 7 -6 12c0 8 6 14 14 14c11 0 95 -62 110 -72v115c0 8 6 14 14 14s14 -6 14 -14v-120c15 10 97 71 108 71c8 0 14 -6 14 -14c0 -5 -2 -9 -6 -12l-102 -69l102 -68c4 -3 6 -7 6 -12c0 -8 -6 -14 -14 -14
c-11 0 -93 61 -108 71v-120c0 -8 -6 -14 -14 -14s-14 6 -14 14v115c-15 -10 -99 -72 -110 -72z" />
    <glyph glyph-name="breve" unicode="&#x2d8;" 
d="M83 340c-8 0 -14 6 -14 14c0 5 2 9 6 12l111 74l-111 75c-4 3 -6 7 -6 12c0 8 6 14 14 14c11 0 95 -62 110 -72v115c0 8 6 14 14 14s14 -6 14 -14v-120c15 10 97 71 108 71c8 0 14 -6 14 -14c0 -5 -2 -9 -6 -12l-102 -69l102 -68c4 -3 6 -7 6 -12c0 -8 -6 -14 -14 -14
c-11 0 -93 61 -108 71v-120c0 -8 -6 -14 -14 -14s-14 6 -14 14v115c-15 -10 -99 -72 -110 -72z" />
    <glyph glyph-name="dotaccent" unicode="&#x2d9;" 
d="M83 340c-8 0 -14 6 -14 14c0 5 2 9 6 12l111 74l-111 75c-4 3 -6 7 -6 12c0 8 6 14 14 14c11 0 95 -62 110 -72v115c0 8 6 14 14 14s14 -6 14 -14v-120c15 10 97 71 108 71c8 0 14 -6 14 -14c0 -5 -2 -9 -6 -12l-102 -69l102 -68c4 -3 6 -7 6 -12c0 -8 -6 -14 -14 -14
c-11 0 -93 61 -108 71v-120c0 -8 -6 -14 -14 -14s-14 6 -14 14v115c-15 -10 -99 -72 -110 -72z" />
    <glyph glyph-name="hungarumlaut" unicode="&#x2dd;" 
d="M83 340c-8 0 -14 6 -14 14c0 5 2 9 6 12l111 74l-111 75c-4 3 -6 7 -6 12c0 8 6 14 14 14c11 0 95 -62 110 -72v115c0 8 6 14 14 14s14 -6 14 -14v-120c15 10 97 71 108 71c8 0 14 -6 14 -14c0 -5 -2 -9 -6 -12l-102 -69l102 -68c4 -3 6 -7 6 -12c0 -8 -6 -14 -14 -14
c-11 0 -93 61 -108 71v-120c0 -8 -6 -14 -14 -14s-14 6 -14 14v115c-15 -10 -99 -72 -110 -72z" />
    <glyph glyph-name="ogonek" unicode="&#x2db;" 
d="M83 340c-8 0 -14 6 -14 14c0 5 2 9 6 12l111 74l-111 75c-4 3 -6 7 -6 12c0 8 6 14 14 14c11 0 95 -62 110 -72v115c0 8 6 14 14 14s14 -6 14 -14v-120c15 10 97 71 108 71c8 0 14 -6 14 -14c0 -5 -2 -9 -6 -12l-102 -69l102 -68c4 -3 6 -7 6 -12c0 -8 -6 -14 -14 -14
c-11 0 -93 61 -108 71v-120c0 -8 -6 -14 -14 -14s-14 6 -14 14v115c-15 -10 -99 -72 -110 -72z" />
    <glyph glyph-name="AE" unicode="&#xc6;" 
d="M83 340c-8 0 -14 6 -14 14c0 5 2 9 6 12l111 74l-111 75c-4 3 -6 7 -6 12c0 8 6 14 14 14c11 0 95 -62 110 -72v115c0 8 6 14 14 14s14 -6 14 -14v-120c15 10 97 71 108 71c8 0 14 -6 14 -14c0 -5 -2 -9 -6 -12l-102 -69l102 -68c4 -3 6 -7 6 -12c0 -8 -6 -14 -14 -14
c-11 0 -93 61 -108 71v-120c0 -8 -6 -14 -14 -14s-14 6 -14 14v115c-15 -10 -99 -72 -110 -72z" />
    <glyph glyph-name="eth" unicode="&#xf0;" horiz-adv-x="461" 
d="M392 213c0 -18 -1 -36 -1 -53c0 -91 -67 -174 -161 -174s-161 83 -161 174c0 90 67 173 161 173c55 0 104 -30 133 -75c-5 91 -27 200 -97 266c-12 -11 -74 -71 -85 -71c-8 0 -14 6 -14 14c0 12 65 64 78 75c-28 20 -60 33 -93 37c-9 1 -19 1 -28 2c-8 1 -14 5 -14 14
c0 7 6 14 14 14c52 0 100 -16 142 -48c9 8 46 46 56 46c8 0 14 -7 14 -14c0 -12 -39 -42 -49 -51c85 -81 105 -217 105 -329zM230 14c82 0 133 73 133 150c0 73 -57 141 -133 141c-78 0 -133 -71 -133 -145c0 -75 55 -146 133 -146z" />
    <glyph glyph-name="Thorn" unicode="&#xde;" horiz-adv-x="454" 
d="M97 475h120c95 0 173 -78 173 -173s-78 -172 -173 -172h-120v-122c0 -8 -6 -14 -14 -14s-14 6 -14 14v589c0 8 6 14 14 14s14 -6 14 -14v-122zM362 302c0 80 -66 144 -145 144h-120v-288h120c79 0 145 65 145 144z" />
    </font>
</defs>
</svg>
