<?xml version="1.0" standalone="no"?>
<!DOCTYPE svg PUBLIC "-//W3C//DTD SVG 1.1//EN" "http://www.w3.org/Graphics/SVG/1.1/DTD/svg11.dtd" >
<svg xmlns="http://www.w3.org/2000/svg" xmlns:xlink="http://www.w3.org/1999/xlink" version="1.1">
<metadata>
Created by FontForge 20230101 at Sat Sep 30 05:29:59 2023
 By Glenn Lewis
Copyright 2022 The Noto Project Authors (https://github.com/notofonts/latin-greek-cyrillic)
</metadata>
<defs>
<font id="NotoSansExtraCondensed-ExtraLightItalic" horiz-adv-x="0" >
  <font-face 
    font-family="Noto Sans ExtraCondensed ExtraLight"
    font-weight="250"
    font-style="italic"
    font-stretch="extra-condensed"
    units-per-em="1000"
    panose-1="2 11 5 2 4 5 4 9 2 4"
    ascent="800"
    descent="-200"
    x-height="528"
    cap-height="714"
    bbox="-601 -394 2498 1064"
    underline-thickness="50"
    underline-position="-125"
    slope="-12"
    unicode-range="U+000D-1DF1E"
  />
<missing-glyph horiz-adv-x="536" 
d="M80 0v714h365v-714h-365zM124 44h279v626h-279v-626z" />
    <glyph glyph-name="f_f" unicode="ff" horiz-adv-x="381" 
d="M-89 -240q-13 0 -23 2t-17 4v34q8 -3 17 -4.5t22 -1.5q37 0 53.5 31t26.5 81l126 589h-59l5 24l61 10l22 97q8 35 17.5 61t22.5 43.5t31 26t43 8.5q14 0 28.5 -3.5t23.5 -7.5l-14 -32q-8 4 -18.5 6.5t-21.5 2.5q-33 0 -49.5 -29t-27.5 -82l-20 -92h152l21 98
q8 35 17.5 61t22.5 43.5t31 26t43 8.5q14 0 28.5 -3.5t23.5 -7.5l-14 -32q-8 4 -18.5 6.5t-21.5 2.5q-34 0 -50 -29t-28 -82l-20 -92h71l-7 -33h-70l-127 -593q-8 -38 -21 -71t-34.5 -52t-59.5 -19q-13 0 -23 2t-17 4v34q8 -3 17 -4.5t22 -1.5q37 0 53.5 31t26.5 81l126 589
h-151l-127 -593q-8 -38 -21 -71t-34.5 -52t-59.5 -19z" />
    <glyph glyph-name="f_f_i" unicode="ffi" horiz-adv-x="540" 
d="M-89 -240q-13 0 -23 2t-17 4v34q8 -3 17 -4.5t22 -1.5q37 0 53.5 31t26.5 81l126 589h-59l5 24l61 10l22 97q8 35 17.5 61t22.5 43.5t31 26t43 8.5q14 0 28.5 -3.5t23.5 -7.5l-14 -32q-8 4 -18.5 6.5t-21.5 2.5q-33 0 -49.5 -29t-27.5 -82l-20 -92h152l21 98
q8 35 17.5 61t22.5 43.5t31 26t43 8.5q14 0 28.5 -3.5t23.5 -7.5l-14 -32q-8 4 -18.5 6.5t-21.5 2.5q-34 0 -50 -29t-28 -82l-20 -92h71l-7 -33h-70l-127 -593q-8 -38 -21 -71t-34.5 -52t-59.5 -19q-13 0 -23 2t-17 4v34q8 -3 17 -4.5t22 -1.5q37 0 53.5 31t26.5 81l126 589
h-151l-127 -593q-8 -38 -21 -71t-34.5 -52t-59.5 -19zM382 0l113 528h36l-112 -528h-37zM539 640q-10 0 -16 7t-6 20q0 11 3.5 22.5t11.5 19.5t19 8q10 0 16 -6.5t6 -20.5q0 -17 -8.5 -33.5t-25.5 -16.5z" />
    <glyph glyph-name="f_f_l" unicode="ffl" horiz-adv-x="534" 
d="M-89 -240q-13 0 -23 2t-17 4v34q8 -3 17 -4.5t22 -1.5q37 0 53.5 31t26.5 81l126 589h-59l5 24l61 10l22 97q8 35 17.5 61t22.5 43.5t31 26t43 8.5q14 0 28.5 -3.5t23.5 -7.5l-14 -32q-8 4 -18.5 6.5t-21.5 2.5q-33 0 -49.5 -29t-27.5 -82l-20 -92h152l21 98
q8 35 17.5 61t22.5 43.5t31 26t43 8.5q14 0 28.5 -3.5t23.5 -7.5l-14 -32q-8 4 -18.5 6.5t-21.5 2.5q-34 0 -50 -29t-28 -82l-20 -92h71l-7 -33h-70l-127 -593q-8 -38 -21 -71t-34.5 -52t-59.5 -19q-13 0 -23 2t-17 4v34q8 -3 17 -4.5t22 -1.5q37 0 53.5 31t26.5 81l126 589
h-151l-127 -593q-8 -38 -21 -71t-34.5 -52t-59.5 -19zM382 0l162 760h36l-162 -760h-36z" />
    <glyph glyph-name="fi" unicode="fi" horiz-adv-x="350" 
d="M-89 -240q-13 0 -23 2t-17 4v34q8 -3 17 -4.5t22 -1.5q37 0 53.5 31t26.5 81l126 589h-59l5 24l61 10l22 97q8 35 17.5 61t22.5 43.5t31 26t43 8.5q14 0 28.5 -3.5t23.5 -7.5l-14 -32q-8 4 -18.5 6.5t-21.5 2.5q-33 0 -49.5 -29t-27.5 -82l-20 -92h70l-7 -33h-70
l-127 -593q-8 -38 -21 -71t-34.5 -52t-59.5 -19zM195 0l112 528h36l-112 -528h-36zM351 640q-10 0 -16 7t-6 20q0 11 4 22.5t11.5 19.5t19.5 8q10 0 16 -6.5t6 -21.5q0 -16 -9 -32.5t-26 -16.5z" />
    <glyph glyph-name="fl" unicode="fl" horiz-adv-x="351" 
d="M-89 -240q-13 0 -23 2t-17 4v34q8 -3 17 -4.5t22 -1.5q37 0 53.5 31t26.5 81l126 589h-59l5 24l61 10l22 97q8 35 17.5 61t22.5 43.5t31 26t43 8.5q14 0 28.5 -3.5t23.5 -7.5l-14 -32q-8 4 -18.5 6.5t-21.5 2.5q-33 0 -49.5 -29t-27.5 -82l-20 -92h70l-7 -33h-70
l-127 -593q-8 -38 -21 -71t-34.5 -52t-59.5 -19zM194 0l162 760h36l-162 -760h-36z" />
    <glyph glyph-name=".notdef" horiz-adv-x="536" 
d="M80 0v714h365v-714h-365zM124 44h279v626h-279v-626z" />
    <glyph glyph-name="NULL" 
 />
    <glyph glyph-name="CR" unicode="&#xd;" horiz-adv-x="168" 
 />
    <glyph glyph-name="space" unicode=" " horiz-adv-x="168" 
 />
    <glyph glyph-name="exclam" unicode="!" horiz-adv-x="209" 
d="M59 173l115 541h41l-124 -541h-32zM37 -2q-10 0 -16.5 7t-6.5 20q0 18 9 35.5t28 17.5q10 0 16 -7.5t6 -21.5q0 -18 -9.5 -34.5t-26.5 -16.5z" />
    <glyph glyph-name="quotedbl" unicode="&#x22;" horiz-adv-x="273" 
d="M218 456l49 258h40l-63 -258h-26zM96 456l48 258h41l-63 -258h-26z" />
    <glyph glyph-name="numbersign" unicode="#" horiz-adv-x="378" 
d="M2 0l72 232h-72l3 32h79l65 211h-76l2 32h84l64 207h33l-64 -207h103l64 207h33l-64 -207h67l-2 -32h-75l-66 -211h73l-2 -32h-81l-71 -232h-33l71 232h-102l-71 -232h-34zM117 264h102l66 211h-103z" />
    <glyph glyph-name="dollar" unicode="$" horiz-adv-x="351" 
d="M104 40q-39 1 -66.5 9.5t-45.5 16.5l2 37q19 -12 48.5 -20.5t69.5 -9.5l59 279q-23 24 -43 47.5t-32.5 50.5t-12.5 63q0 53 19.5 88.5t54.5 54.5t83 21l18 83h27l-18 -83q37 -2 64 -12t41 -19l-16 -32q-16 10 -39 19.5t-57 10.5l-58 -275q25 -25 45.5 -49.5t32.5 -51
t12 -57.5q0 -52 -19 -89t-54.5 -58t-86.5 -24l-21 -98h-27zM139 74q40 4 66 20t39 45.5t13 69.5q0 23 -8 42t-22 37.5t-34 40.5zM233 644q-37 -2 -62.5 -17.5t-39 -43t-13.5 -66.5q0 -26 7 -46.5t21 -39.5t33 -40z" />
    <glyph glyph-name="percent" unicode="%" horiz-adv-x="538" 
d="M78 0l357 714h33l-355 -714h-35zM113 276q-30 0 -48 24t-18 82q0 37 6 82.5t18.5 91t31 84t43.5 61.5t57 23q31 0 48 -23.5t17 -76.5q0 -32 -6 -77t-17.5 -92t-30.5 -88t-44 -66t-57 -25zM117 308q22 0 40.5 24t33 62t24 81.5t15 83t5.5 64.5q0 39 -9.5 54t-26.5 15
q-21 0 -39.5 -21.5t-33 -57t-24.5 -76.5t-16 -81t-6 -71q0 -45 10.5 -61t26.5 -16zM344 -12q-30 0 -48 24.5t-18 82.5q0 37 6.5 82.5t19 91t31 84t43.5 61t56 22.5t48 -23t17 -76q0 -33 -6 -78t-17.5 -92t-30.5 -87.5t-44 -66t-57 -25.5zM348 20q22 0 40.5 24.5t33 62.5
t24 81t15 82.5t5.5 64.5q0 40 -9.5 55t-26.5 15q-21 0 -39.5 -21.5t-33 -57.5t-24.5 -77t-16 -81t-6 -70q0 -45 10.5 -61.5t26.5 -16.5z" />
    <glyph glyph-name="ampersand" unicode="&#x26;" horiz-adv-x="344" 
d="M91 -10q-47 0 -74.5 31.5t-27.5 91.5q0 56 18 104t51.5 90t77.5 81q-9 33 -14 71.5t-5 74.5q0 55 13 98t39 67.5t62 24.5q22 0 38 -10.5t25 -30t9 -48.5q0 -51 -16 -96.5t-43.5 -85.5t-64.5 -74l58 -223q15 31 29 70t24 81h36q-7 -31 -18 -64t-25.5 -66t-31.5 -64
l29 -113h-36l-21 81q-22 -34 -52 -62.5t-80 -28.5zM96 24q29 0 49.5 14t36 35t29.5 45l-63 238q-37 -35 -64.5 -72t-42 -77.5t-14.5 -87.5q0 -30 8.5 -52t24 -32.5t36.5 -10.5zM169 412q21 20 38.5 45t30.5 53t20 59t7 63q0 28 -10 43.5t-28 15.5q-24 0 -40.5 -22t-25 -57
t-8.5 -75q0 -37 4 -67.5t12 -57.5z" />
    <glyph glyph-name="quotesingle" unicode="'" horiz-adv-x="152" 
d="M97 456l48 258h40l-62 -258h-26z" />
    <glyph glyph-name="parenleft" unicode="(" horiz-adv-x="244" 
d="M84 -158q-17 37 -30.5 84.5t-21.5 99.5t-8 102q0 85 16 163t47.5 150t76.5 139.5t104 131.5h33q-58 -69 -103 -138.5t-75.5 -140.5t-46 -147t-15.5 -159q0 -51 6.5 -102t18.5 -97.5t30 -85.5h-32z" />
    <glyph glyph-name="parenright" unicode=")" horiz-adv-x="245" 
d="M-70 -158q59 69 103.5 138.5t75 140.5t46 147t15.5 159q0 51 -6.5 102t-18.5 98t-30 85h32q19 -38 32 -85t20.5 -98t7.5 -103q0 -86 -16 -164t-47.5 -150t-76.5 -139t-104 -131h-33z" />
    <glyph glyph-name="asterisk" unicode="*" horiz-adv-x="326" 
d="M294 478l-56 115l-95 -90l-21 21l101 86l-107 55l13 27l102 -63l17 129l32 -5l-26 -126l115 28l3 -30l-116 -20l66 -112z" />
    <glyph glyph-name="plus" unicode="+" horiz-adv-x="405" 
d="M222 368h155v-33h-155v-213h-34v213h-157v33h157v216h34v-216z" />
    <glyph glyph-name="comma" unicode="," horiz-adv-x="165" 
d="M-40 -128q16 30 34 69.5t33.5 80t23.5 73.5h35l4 -11q-10 -31 -27 -69.5t-36.5 -75.5t-39.5 -67h-27z" />
    <glyph glyph-name="hyphen" unicode="-" horiz-adv-x="261" 
d="M22 254l3 35h211l-3 -35h-211z" />
    <glyph glyph-name="period" unicode="." horiz-adv-x="164" 
d="M38 -2q-10 0 -16.5 7t-6.5 20q0 18 9 35.5t27 17.5q11 0 17 -7.5t6 -21.5q0 -18 -9.5 -34.5t-26.5 -16.5z" />
    <glyph glyph-name="slash" unicode="/" horiz-adv-x="301" 
d="M-46 1l379 712h35l-378 -712h-36z" />
    <glyph glyph-name="zero" unicode="0" horiz-adv-x="353" 
d="M116 -10q-44 0 -70 40t-26 128q0 39 6.5 95.5t19.5 120t32.5 125.5t46 113t59.5 81.5t74 30.5q23 0 40 -9t29 -28t17.5 -48t5.5 -68q0 -45 -6.5 -105t-19.5 -125.5t-32.5 -127.5t-45.5 -112.5t-58.5 -80.5t-71.5 -30zM118 25q30 0 57 29.5t48.5 78t38 108.5t28 121.5
t17.5 116t6 92.5q0 64 -14 91t-44 27q-31 0 -57.5 -28.5t-48.5 -77t-39 -106.5t-29 -118t-18 -112.5t-6 -88.5q0 -75 16.5 -104t44.5 -29z" />
    <glyph glyph-name="one" unicode="1" horiz-adv-x="353" 
d="M232 585q4 13 6.5 25.5t5.5 26.5t8 32l-14 -14t-17 -15l-89 -73l-20 25l147 122h38l-151 -714h-37z" />
    <glyph glyph-name="two" unicode="2" horiz-adv-x="353" 
d="M-35 0l5 32l170 212q37 47 69 89.5t56 83.5t37.5 83t13.5 87q0 50 -25 76.5t-67 26.5q-20 0 -37 -5.5t-31 -13.5t-27 -18l-18 29q19 16 48.5 29t70.5 13q36 0 64 -16t44 -46t16 -72q0 -61 -24.5 -119.5t-65 -117t-90.5 -120.5l-159 -196v-3h232l-6 -34h-276z" />
    <glyph glyph-name="three" unicode="3" horiz-adv-x="353" 
d="M84 -11q-32 0 -60 6.5t-46 17.5v41q21 -13 46.5 -22t58.5 -9q44 0 75 18t51 47t29.5 64t9.5 69q0 50 -13.5 78.5t-38.5 41t-60 12.5h-27l7 34h28q43 0 76 17.5t55 46t33 64.5t11 71q0 48 -22 76t-69 28q-36 0 -61.5 -14t-44.5 -31l-18 31q21 18 53 33t75 15
q41 0 68.5 -17.5t42 -47.5t14.5 -70q0 -51 -19.5 -98t-53.5 -79t-79 -41l-1 -3q36 -11 59 -45t23 -98q0 -43 -11.5 -85t-36.5 -75.5t-63 -54.5t-91 -21z" />
    <glyph glyph-name="four" unicode="4" horiz-adv-x="353" 
d="M168 0l35 166h-223l5 28l322 528h51l-111 -522h68l-7 -34h-68l-36 -166h-36zM26 200h184l80 371q5 19 9 38.5t8.5 38t8.5 34.5h-2q-9 -17 -17 -31t-15 -26.5t-17 -27.5z" />
    <glyph glyph-name="five" unicode="5" horiz-adv-x="353" 
d="M78 -10q-23 0 -42.5 4t-34.5 9.5t-25 10.5v41q16 -11 42 -21t61 -10q48 0 83 20t57 53t32.5 74.5t10.5 84.5q0 68 -28 102t-85 34q-21 0 -39.5 -4t-34.5 -11l-17 25l87 312h215l-8 -35h-181l-73 -263q11 3 25.5 6t35.5 3q45 0 76.5 -20t48.5 -57t17 -88q0 -49 -13.5 -97
t-40.5 -87t-69 -62.5t-100 -23.5z" />
    <glyph glyph-name="six" unicode="6" horiz-adv-x="353" 
d="M133 -10q-33 0 -58 18.5t-38.5 55t-13.5 90.5q0 58 7 117t20 115t30.5 105.5t37.5 88.5q19 37 45.5 70t63 53.5t82.5 20.5q22 0 38 -3t28 -8l-12 -34q-11 5 -25 8t-30 3q-53 0 -94.5 -36t-74.5 -109.5t-59 -187.5h4q15 25 33.5 43.5t41.5 28t51 9.5q49 0 78 -37.5
t29 -104.5q0 -48 -11 -101t-33 -100t-57 -76t-83 -29zM135 24q39 0 66 28t44.5 70t25.5 87.5t8 82.5q0 55 -20.5 83.5t-54.5 28.5q-32 0 -57.5 -15.5t-43 -42t-28.5 -59.5q-5 -16 -8.5 -35t-5 -42.5t-1.5 -53.5q0 -33 5 -58t14.5 -41.5t24 -24.5t31.5 -8z" />
    <glyph glyph-name="seven" unicode="7" horiz-adv-x="353" 
d="M36 0l313 679h-255l7 35h290l-3 -32l-312 -682h-40z" />
    <glyph glyph-name="eight" unicode="8" horiz-adv-x="353" 
d="M129 -10q-42 0 -73.5 19t-49.5 52.5t-18 77.5q0 59 20.5 102.5t59 76.5t89.5 60q-21 25 -36.5 51.5t-24 56t-8.5 62.5q0 51 18.5 90.5t53.5 62.5t84 23q35 0 62 -16.5t42 -45.5t15 -68q0 -49 -18 -90t-52 -74t-83 -58q27 -28 46.5 -57.5t30 -63t10.5 -73.5
q0 -50 -19.5 -92.5t-57 -69t-91.5 -26.5zM130 24q42 0 71 20.5t44 55.5t15 77q0 38 -10.5 69t-29 57.5t-42.5 51.5q-44 -23 -78.5 -51.5t-54 -67.5t-19.5 -94q0 -52 28.5 -85t75.5 -33zM189 394q46 23 76.5 52.5t45.5 65.5t15 78q0 48 -24 74t-61 26q-34 0 -60.5 -16.5
t-41 -47.5t-14.5 -76q0 -49 17.5 -86t46.5 -70z" />
    <glyph glyph-name="nine" unicode="9" horiz-adv-x="353" 
d="M62 -10q-22 0 -38 3.5t-28 7.5v37q11 -6 28.5 -10t37.5 -4q40 0 73 20t61 61t51.5 103.5t42.5 148.5h-2q-15 -24 -34.5 -42.5t-42.5 -28.5t-51 -10q-33 0 -57 17t-37 49t-13 76q0 48 11 101t33 100t56.5 76t82.5 29q34 0 59 -18t38.5 -54t13.5 -91q0 -56 -6.5 -114
t-19 -112.5t-28.5 -103.5t-35 -89q-14 -29 -32.5 -57t-43 -49t-54 -33.5t-66.5 -12.5zM166 310q31 0 55 14.5t41.5 40t27.5 56.5q11 24 15.5 57t4.5 80q0 45 -9 74.5t-25.5 43.5t-40.5 14q-38 0 -65.5 -27.5t-44.5 -69.5t-25.5 -87.5t-8.5 -82.5q0 -55 20 -84t55 -29z" />
    <glyph glyph-name="colon" unicode=":" horiz-adv-x="163" 
d="M121 451q-10 0 -16 7.5t-6 20.5q0 12 3.5 24t12 20t20.5 8q10 0 16 -7t6 -22q0 -17 -9 -34t-27 -17zM25 -2q-10 0 -16.5 7t-6.5 20q0 18 9 35.5t27 17.5q11 0 17 -7.5t6 -21.5q0 -18 -9.5 -34.5t-26.5 -16.5z" />
    <glyph glyph-name="semicolon" unicode=";" horiz-adv-x="166" 
d="M-46 -128q17 31 35 70.5t33 79t23 73.5h36l4 -11q-11 -31 -28 -69t-36.5 -75.5t-39.5 -67.5h-27zM127 451q-10 0 -16.5 7.5t-6.5 20.5q0 12 4 24t12 20t21 8q10 0 16 -7t6 -22q0 -17 -9 -34t-27 -17z" />
    <glyph glyph-name="less" unicode="&#x3c;" horiz-adv-x="405" 
d="M377 145l-346 205v28l346 184v-38l-304 -160l304 -181v-38z" />
    <glyph glyph-name="equal" unicode="=" horiz-adv-x="405" 
d="M31 443v34h346v-34h-346zM31 228v34h346v-34h-346z" />
    <glyph glyph-name="greater" unicode="&#x3e;" horiz-adv-x="405" 
d="M31 183l306 180l-306 161v38l347 -184v-28l-347 -205v38z" />
    <glyph glyph-name="question" unicode="?" horiz-adv-x="251" 
d="M47 173q10 51 21.5 87t30.5 69t51 71q33 41 56 73t35.5 64.5t12.5 74.5q0 37 -19.5 57.5t-53.5 20.5q-26 0 -45.5 -8.5t-35.5 -19.5l-14 29q21 16 46.5 24.5t54.5 8.5q49 0 77 -28.5t28 -79.5q0 -44 -14 -81t-39 -72t-58 -75q-33 -39 -52 -69.5t-30 -64t-20 -81.5h-32z
M36 -2q-10 0 -16.5 7t-6.5 20q0 18 9 35.5t28 17.5q10 0 16 -7.5t6 -21.5q0 -18 -9 -34.5t-27 -16.5z" />
    <glyph glyph-name="at" unicode="@" horiz-adv-x="525" 
d="M183 -89q-41 0 -70.5 15.5t-49.5 44.5t-29 70.5t-9 93.5q0 78 13.5 160t40.5 157.5t67 135.5t92 95t115 35q52 0 86.5 -24t52 -71.5t17.5 -119.5q0 -43 -7.5 -95.5t-21 -104t-33 -94.5t-45 -68.5t-54.5 -25.5q-32 0 -42.5 23.5t-10.5 64.5l-1 -3q-12 -37 -33 -62t-49 -25
t-44 23t-16 73q0 32 7 73t21.5 81.5t35.5 75t48.5 55.5t61.5 21q17 0 34.5 -3t31.5 -9l-52 -208q-9 -37 -13.5 -62t-4.5 -39q0 -25 6.5 -36.5t22.5 -11.5q21 0 39.5 23.5t34 62.5t27 86t18 94.5t6.5 87.5q0 67 -14.5 108t-42 60.5t-69.5 19.5q-56 0 -102.5 -33.5
t-81.5 -90.5t-59 -128.5t-36.5 -148t-12.5 -150.5q0 -58 13 -102t40.5 -68.5t73.5 -24.5q28 0 53 7.5t40 15.5v-31q-17 -9 -41 -16t-54 -7zM220 144q22 0 45.5 45t47.5 136l40 156q-6 2 -14 3t-17 1q-32 0 -57 -29t-43 -73t-27 -90t-9 -81q0 -36 8.5 -52t25.5 -16z" />
    <glyph glyph-name="A" unicode="A" horiz-adv-x="342" 
d="M-67 0l295 717h47l-1 -717h-38l1 272h-152l-112 -272h-40zM97 307h140l3 288q0 21 0.5 40.5t1.5 33.5h-2q-4 -13 -11 -32t-17 -43z" />
    <glyph glyph-name="B" unicode="B" horiz-adv-x="385" 
d="M3 0l150 714h101q46 0 75.5 -16.5t45 -45.5t15.5 -70q0 -45 -15 -89t-46 -75.5t-80 -43.5v-2q38 -9 61 -42.5t23 -87.5q0 -66 -23 -121t-70 -88t-120 -33h-117zM120 34q65 0 103 30.5t55 77.5t17 98q0 64 -32 91t-84 27h-63l-69 -324h73zM189 392q58 0 94 28t52 71t16 87
q0 50 -25 76t-79 26h-64l-60 -288h66z" />
    <glyph glyph-name="C" unicode="C" horiz-adv-x="347" 
d="M186 -10q-49 0 -82.5 24.5t-50 76t-16.5 132.5q0 54 11 120.5t34 133.5t58.5 123t84 90.5t111.5 34.5q30 0 51.5 -7.5t37.5 -19.5l-21 -31q-12 12 -29.5 17.5t-40.5 5.5q-52 0 -93.5 -32t-72.5 -84t-52 -114.5t-31 -124t-10 -110.5q0 -106 28.5 -153t87.5 -47
q17 0 36 4.5t41 12.5v-36q-21 -8 -41.5 -12t-40.5 -4z" />
    <glyph glyph-name="D" unicode="D" horiz-adv-x="422" 
d="M2 0l151 714h84q80 0 123.5 -48.5t43.5 -157.5q0 -59 -10.5 -127.5t-32.5 -136t-58.5 -122.5t-88.5 -88.5t-122 -33.5h-90zM93 35q60 0 105 31t76.5 81.5t51.5 113.5t29 126.5t9 119.5q0 96 -33.5 134t-99.5 38h-47l-138 -644h47z" />
    <glyph glyph-name="E" unicode="E" horiz-adv-x="344" 
d="M2 0l151 714h232l-7 -35h-195l-61 -287h183l-9 -34h-182l-68 -323h195l-7 -35h-232z" />
    <glyph glyph-name="F" unicode="F" horiz-adv-x="319" 
d="M2 0l151 714h233l-7 -35h-196l-68 -320h184l-8 -34h-183l-69 -325h-37z" />
    <glyph glyph-name="G" unicode="G" horiz-adv-x="460" 
d="M216 -10q-89 0 -134.5 56t-45.5 169q0 77 13.5 151.5t40 139.5t65 114t88 77t109.5 28q44 0 75.5 -12.5t54.5 -30.5l-21 -30q-23 18 -49.5 28t-60.5 10q-66 0 -117.5 -41t-87 -109.5t-54 -152t-18.5 -168.5q0 -68 16.5 -111t49.5 -63t80 -20q26 0 49 4t44 12l59 282h-96
l7 34h134l-73 -343q-28 -11 -59.5 -17.5t-68.5 -6.5z" />
    <glyph glyph-name="H" unicode="H" horiz-adv-x="449" 
d="M2 0l151 714h37l-68 -322h237l68 322h37l-152 -714h-37l76 358h-237l-75 -358h-37z" />
    <glyph glyph-name="I" unicode="I" horiz-adv-x="184" 
d="M-57 0l6 24l64 6l138 653l-61 7l5 24h160l-5 -24l-63 -7l-138 -653l60 -6l-5 -24h-161z" />
    <glyph glyph-name="J" unicode="J" horiz-adv-x="164" 
d="M-90 -176q-16 0 -29.5 3.5t-23.5 8.5l10 33q9 -4 21 -7.5t24 -3.5q23 0 38.5 12t26.5 38t21 69l156 737h37l-158 -746q-10 -50 -26 -81.5t-39.5 -47t-57.5 -15.5z" />
    <glyph glyph-name="K" unicode="K" horiz-adv-x="358" 
d="M2 0l151 714h37l-82 -388l66 94l215 294h43l-231 -317l90 -397h-41l-80 367l-72 -87l-59 -280h-37z" />
    <glyph glyph-name="L" unicode="L" horiz-adv-x="309" 
d="M2 0l151 714h37l-144 -679h185l-7 -35h-222z" />
    <glyph glyph-name="M" unicode="M" horiz-adv-x="599" 
d="M2 0l151 714h53l34 -662h3l314 662h58l-152 -714h-37l118 556q3 14 6.5 28t7 29.5t7.5 34.5h-2l-307 -648h-49l-32 648h-2q-3 -20 -6 -35t-5.5 -28.5t-5.5 -29.5l-118 -555h-36z" />
    <glyph glyph-name="N" unicode="N" horiz-adv-x="472" 
d="M2 0l151 714h46l115 -638h3q5 26 10 51t9 47.5t8 37.5l106 502h37l-152 -714h-44l-115 646h-2q-2 -14 -5 -29.5t-6.5 -32.5t-7.5 -35.5t-8 -38.5l-108 -510h-37z" />
    <glyph glyph-name="O" unicode="O" horiz-adv-x="455" 
d="M166 -10q-43 0 -72.5 21.5t-44.5 65.5t-15 112q0 47 7.5 105t21.5 118t36.5 115.5t52.5 100t68.5 70.5t84.5 26q64 0 97.5 -44t33.5 -142q0 -45 -7 -103t-20 -119.5t-34.5 -119.5t-51.5 -104.5t-69 -74t-88 -27.5zM170 25q39 0 71 25.5t57.5 69t44 97.5t31 112t18 111.5
t5.5 96.5q0 81 -23 116.5t-72 35.5q-40 0 -72.5 -26t-57.5 -69t-44 -97t-31 -110t-18 -107t-6 -90q0 -58 11 -94.5t32.5 -53.5t53.5 -17z" />
    <glyph glyph-name="P" unicode="P" horiz-adv-x="363" 
d="M2 0l151 714h74q51 0 84 -17.5t49.5 -50.5t16.5 -80q0 -58 -15 -106.5t-44 -84t-71 -55t-96 -19.5h-48l-64 -301h-37zM149 335q65 0 107 30t62 82.5t20 115.5q0 54 -26 85t-90 31h-38l-74 -344h39z" />
    <glyph glyph-name="Q" unicode="Q" horiz-adv-x="455" 
d="M185 -8q-5 -1 -10.5 -1.5t-11.5 -0.5q-42 1 -70.5 22.5t-43.5 65.5t-15 111q0 47 7.5 105t21.5 118t36.5 115.5t52.5 100t68.5 70.5t84.5 26q64 0 97.5 -44t33.5 -142q0 -49 -7.5 -113t-24 -130.5t-42 -127.5t-60.5 -105t-82 -62l51 -170l-40 -1zM170 25q39 0 71 25.5
t57.5 69t44 97.5t31 112t18 111.5t5.5 96.5q0 81 -23 116.5t-72 35.5q-40 0 -72.5 -26t-57.5 -69t-44 -97t-31 -110t-18 -107t-6 -90q0 -58 11 -94.5t32.5 -53.5t53.5 -17z" />
    <glyph glyph-name="R" unicode="R" horiz-adv-x="369" 
d="M2 0l151 714h82q64 0 102.5 -37t38.5 -110q0 -58 -17.5 -110t-52 -88t-84.5 -46l58 -323h-39l-56 317h-79l-67 -317h-37zM180 350q43 0 73 19.5t48.5 51t27 69t8.5 73.5q0 61 -28 89t-84 28h-41l-70 -330h66z" />
    <glyph glyph-name="S" unicode="S" horiz-adv-x="348" 
d="M95 -10q-40 0 -71 8t-52 19l2 41q24 -14 54.5 -23.5t68.5 -9.5q34 0 61.5 11t47.5 31.5t30 50t10 67.5q0 30 -8.5 55t-26.5 51t-47 58q-26 30 -45.5 57t-30.5 58t-11 72q0 46 13.5 81t37.5 59t57 36t72 12q38 0 70 -10t49 -22l-19 -34q-17 12 -43 21.5t-60 9.5
q-30 0 -55.5 -9.5t-44 -29t-29 -47t-10.5 -64.5q0 -33 9.5 -60.5t28.5 -54t49 -59.5q25 -27 43.5 -54.5t28.5 -57.5t10 -66q0 -46 -13 -82t-37.5 -62t-59.5 -39.5t-79 -13.5z" />
    <glyph glyph-name="T" unicode="T" horiz-adv-x="304" 
d="M65 0l145 679h-126l7 35h290l-7 -35h-127l-145 -679h-37z" />
    <glyph glyph-name="U" unicode="U" horiz-adv-x="433" 
d="M158 -10q-37 0 -65.5 15t-45 44.5t-16.5 72.5q0 18 3 41.5t8 48.5l107 502h37l-107 -503q-5 -24 -7.5 -46t-2.5 -40q0 -50 25.5 -75t66.5 -25q45 0 73 23.5t45.5 68.5t31.5 110l106 487h37l-107 -489q-15 -71 -37 -124t-57.5 -82t-94.5 -29z" />
    <glyph glyph-name="V" unicode="V" horiz-adv-x="356" 
d="M85 0l-1 714h38l-3 -562v-36v-33t-2 -34h2q8 24 19.5 53t23.5 59l234 553h40l-304 -714h-47z" />
    <glyph glyph-name="W" unicode="W" horiz-adv-x="609" 
d="M73 0l12 714h36l-10 -548q-1 -38 -1.5 -66t-2.5 -47h2q12 32 24 64.5t22 57.5l212 539h36l-17 -521q-1 -26 -2.5 -50t-2 -47t-2.5 -47h2q8 23 16.5 45.5t18.5 47.5t22 57l205 515h40l-287 -714h-50l19 539q1 16 1.5 31.5l1 31t1.5 31.5h-2q-7 -21 -14.5 -43t-16.5 -42
l-213 -548h-50z" />
    <glyph glyph-name="X" unicode="X" horiz-adv-x="317" 
d="M-58 0l214 378l-40 336h37l33 -301l162 301h40l-189 -343l38 -371h-38l-30 333l-188 -333h-39z" />
    <glyph glyph-name="Y" unicode="Y" horiz-adv-x="303" 
d="M65 0l59 277l-41 437h37l32 -382l195 382h40l-226 -436l-59 -278h-37z" />
    <glyph glyph-name="Z" unicode="Z" horiz-adv-x="311" 
d="M-42 0l7 32l356 647h-208l8 35h250l-7 -33l-356 -646h225l-7 -35h-268z" />
    <glyph glyph-name="bracketleft" unicode="[" horiz-adv-x="276" 
d="M-19 -159l186 874h171l-7 -32h-136l-173 -809h136l-6 -33h-171z" />
    <glyph glyph-name="backslash" unicode="\" horiz-adv-x="323" 
d="M204 -1l-101 716h34l103 -716h-36z" />
    <glyph glyph-name="bracketright" unicode="]" horiz-adv-x="276" 
d="M-62 -159l7 33h136l172 809h-136l7 32h171l-187 -874h-170z" />
    <glyph glyph-name="asciicircum" unicode="^" horiz-adv-x="392" 
d="M22 364l187 349h29l149 -349h-40l-128 302l-156 -302h-41z" />
    <glyph glyph-name="underscore" unicode="_" horiz-adv-x="270" 
d="M-77 -122l2 33h266l-2 -33h-266z" />
    <glyph glyph-name="grave" unicode="`" horiz-adv-x="214" 
d="M227 606q-13 19 -28 45t-29.5 53.5t-23.5 51.5v7h37q10 -26 20 -51t21 -49.5t23 -48.5v-8h-20z" />
    <glyph glyph-name="a" unicode="a" horiz-adv-x="388" 
d="M127 -10q-32 0 -54 17t-33.5 50t-11.5 81q0 47 8.5 101t25.5 107t42 96t59 69.5t76 26.5q27 0 45 -11.5t28.5 -31.5t14.5 -46h3l19 79h31l-112 -528h-29l14 87h-2q-17 -30 -35 -52t-39.5 -33.5t-49.5 -11.5zM134 24q39 0 66 29.5t46.5 75.5t32.5 98q12 49 20.5 97t8.5 88
q0 42 -18 67t-50 25q-33 0 -60.5 -24t-49 -64t-35.5 -88t-21.5 -97t-7.5 -90q0 -62 19 -89.5t49 -27.5z" />
    <glyph glyph-name="b" unicode="b" horiz-adv-x="381" 
d="M149 -10q-29 0 -48.5 12.5t-30 33t-13.5 46.5h-2l-21 -82h-29l160 760h36l-56 -267q-3 -12 -5 -21t-4 -16l-4 -14h2q14 27 32 49t41 34.5t51 12.5q31 0 53 -16t33.5 -49t11.5 -83q0 -41 -8 -94t-24 -106.5t-40.5 -98.5t-58.5 -73t-76 -28zM148 24q34 0 61.5 25.5
t47.5 67.5t34 91t20.5 96t6.5 83q0 65 -18.5 91t-49.5 26t-56 -21.5t-44 -57.5t-33 -79t-23 -85t-13 -77.5t-4 -54.5q0 -50 18 -77.5t53 -27.5z" />
    <glyph glyph-name="c" unicode="c" horiz-adv-x="279" 
d="M142 -10q-37 0 -62.5 16t-38 51t-12.5 91q0 47 8 100t25 104.5t42.5 93.5t60 67t77.5 25q19 0 36 -3.5t30 -9.5l-14 -33q-12 6 -25 9t-27 3q-42 0 -75 -33.5t-55.5 -87.5t-34 -115.5t-11.5 -116.5q0 -46 9 -74t27 -40.5t45 -12.5q17 0 34.5 4.5t33.5 12.5v-34
q-14 -7 -32.5 -12t-40.5 -5z" />
    <glyph glyph-name="d" unicode="d" horiz-adv-x="388" 
d="M126 -10q-31 0 -53 17t-33.5 50t-11.5 81q0 47 8.5 101t25.5 106.5t42 96t58.5 70t76.5 26.5q25 0 43 -10.5t29 -29.5t15 -43h3q3 17 6.5 34.5t6.5 35.5t7 35l43 200h36l-160 -760h-30l14 89h-2q-15 -30 -33.5 -52.5t-40.5 -34.5t-50 -12zM134 24q32 0 57 22.5t44.5 60.5
t33 82.5t22 89t12.5 80t4 54.5q0 42 -17.5 66.5t-49.5 24.5q-33 0 -61 -24t-49 -64.5t-35.5 -88.5t-21.5 -97t-7 -89q0 -63 19 -90t49 -27z" />
    <glyph glyph-name="e" unicode="e" horiz-adv-x="337" 
d="M145 -10q-38 0 -64.5 17t-40.5 51t-14 86q0 81 17 152t45.5 125.5t66.5 85.5t80 31q39 0 62 -22t23 -71q0 -37 -14 -72t-43 -63t-75 -44.5t-109 -16.5h-7q-4 -22 -6 -47t-2 -52q0 -66 21.5 -96.5t67.5 -30.5q24 0 45 7.5t42 19.5v-36q-18 -11 -41.5 -17.5t-53.5 -6.5z
M82 281q74 0 118 24t64 61t20 77q0 29 -12.5 45.5t-39.5 16.5q-33 0 -63 -30t-54 -80.5t-37 -113.5h4z" />
    <glyph glyph-name="f" unicode="f" horiz-adv-x="193" 
d="M-89 -240q-13 0 -23 2t-17 4v34q8 -3 17 -4.5t22 -1.5q37 0 53.5 31t26.5 81l126 589h-59l5 24l61 10l22 97q8 35 17.5 61t22.5 43.5t31 26t43 8.5q14 0 28.5 -3.5t23.5 -7.5l-14 -32q-8 4 -18.5 6.5t-21.5 2.5q-33 0 -49.5 -29t-27.5 -82l-20 -92h70l-7 -33h-70
l-127 -593q-8 -38 -21 -71t-34.5 -52t-59.5 -19z" />
    <glyph glyph-name="g" unicode="g" horiz-adv-x="386" 
d="M78 -240q-30 0 -56 8.5t-41 16.5v39q10 -7 25.5 -14t34 -11.5t38.5 -4.5q64 0 95 41t50 125l12 59q2 10 7 29t9 38h-2q-16 -30 -34.5 -51.5t-40 -33t-49.5 -11.5q-31 0 -53 17t-33.5 50t-11.5 81q0 46 8.5 100t25.5 107t42 96.5t59 70t77 26.5q27 0 45 -12t28 -31.5
t14 -45.5h3l19 79h30l-121 -574q-14 -62 -35.5 -105.5t-56.5 -66t-88 -22.5zM134 24q31 0 56 23t44.5 61t33 83t22.5 88.5t13 79.5t4 55q0 41 -17.5 65.5t-49.5 24.5q-33 0 -61 -24t-49 -64.5t-35.5 -88.5t-21.5 -97t-7 -89q0 -62 18 -89.5t50 -27.5z" />
    <glyph glyph-name="h" unicode="h" horiz-adv-x="369" 
d="M6 0l161 760h36l-50 -229q-2 -14 -5.5 -26.5t-6.5 -26t-7 -26.5h2q13 28 30.5 47t40 29t48.5 10t44.5 -9.5t29 -28.5t10.5 -47q0 -23 -6 -57.5t-13 -64.5l-70 -331h-37l72 337q6 28 11.5 57.5t5.5 53.5q0 28 -15 42t-41 14q-35 0 -61.5 -24t-46 -71.5t-35.5 -119.5
l-61 -289h-36z" />
    <glyph glyph-name="i" unicode="i" horiz-adv-x="163" 
d="M5 0l112 528h36l-112 -528h-36zM161 640q-10 0 -16 7t-6 20q0 11 4 22.5t11.5 19.5t19.5 8q10 0 16 -6.5t6 -21.5q0 -16 -9 -32.5t-26 -16.5z" />
    <glyph glyph-name="j" unicode="j" horiz-adv-x="168" 
d="M-95 -240q-11 0 -21 1.5t-16 3.5v35q8 -3 16.5 -4.5t18.5 -1.5q27 0 43.5 14t29 48t23.5 94l123 578h36l-123 -580q-14 -65 -28.5 -107t-38 -61.5t-63.5 -19.5zM166 640q-10 0 -16 7t-6 20q0 11 4 22.5t11.5 19.5t19.5 8q10 0 16 -6.5t6 -20.5q0 -17 -9 -33.5t-26 -16.5z
" />
    <glyph glyph-name="k" unicode="k" horiz-adv-x="309" 
d="M4 0l162 760h36l-83 -392q-7 -32 -13.5 -61.5t-14.5 -61.5h1l215 283h40l-155 -206l53 -322h-37l-47 288l-81 -99l-40 -189h-36z" />
    <glyph glyph-name="l" unicode="l" horiz-adv-x="157" 
d="M4 0l162 760h36l-162 -760h-36z" />
    <glyph glyph-name="m" unicode="m" horiz-adv-x="559" 
d="M5 0l111 528h31l-13 -71h2q13 26 30 44t37.5 27.5t43.5 9.5q37 0 58 -18t24 -53h2q12 22 28 38t37 24.5t46 8.5q36 0 61.5 -21t25.5 -66q0 -13 -2.5 -33t-6.5 -35l-81 -383h-36l80 381q5 20 7 36t2 28q0 30 -16.5 44.5t-43.5 14.5q-24 0 -42 -10.5t-31.5 -29.5t-22 -42
t-14.5 -49l-81 -373h-37l86 397q3 14 4.5 26.5t1.5 22.5q0 28 -14.5 43t-42.5 15q-30 0 -51.5 -16.5t-37 -46t-26.5 -68t-21 -82.5l-62 -291h-36z" />
    <glyph glyph-name="n" unicode="n" horiz-adv-x="368" 
d="M5 0l111 528h30l-13 -77h2q12 28 30 47t40.5 29.5t48.5 10.5q25 0 44 -9.5t29.5 -28t10.5 -47.5q0 -23 -6 -57t-12 -64l-71 -332h-36l71 338q6 28 11.5 57t5.5 53q0 28 -14.5 42t-40.5 14q-36 0 -63 -24.5t-46 -72.5t-35 -120l-61 -287h-36z" />
    <glyph glyph-name="o" unicode="o" horiz-adv-x="369" 
d="M135 -10q-32 0 -57 15.5t-38 49t-13 85.5q0 37 7 88t22 105.5t39.5 101t59.5 75t82 28.5q33 0 56 -16t35.5 -49.5t12.5 -85.5q0 -47 -7.5 -100.5t-24 -106t-40.5 -96t-57.5 -69t-76.5 -25.5zM138 24q33 0 60 24.5t47 65.5t33 89.5t19.5 97t6.5 86.5q0 39 -8 65.5
t-23.5 39.5t-39.5 13q-35 0 -62.5 -27t-47.5 -70t-33 -92.5t-19 -96t-6 -79.5q0 -58 19 -87t54 -29z" />
    <glyph glyph-name="p" unicode="p" horiz-adv-x="382" 
d="M-42 -229l159 757h30l-15 -90h2q17 32 35 54t40.5 34t49.5 12q31 0 53 -17t33.5 -50t11.5 -81q0 -47 -8.5 -101t-25.5 -107t-42 -96.5t-59 -69.5t-76 -26q-25 0 -43.5 11t-28.5 29.5t-15 42.5h-3q-4 -24 -9 -51.5t-11 -53.5l-42 -197h-36zM145 24q33 0 61 24t49 64
t35.5 88t21.5 97t7 90q0 63 -18.5 90.5t-49.5 27.5t-56 -23t-44.5 -60t-33 -81.5t-22.5 -88.5t-13 -80t-4 -56q0 -42 17.5 -67t49.5 -25z" />
    <glyph glyph-name="q" unicode="q" horiz-adv-x="389" 
d="M238 31q3 12 5.5 21.5t4.5 17.5l4 16h-2q-14 -27 -32 -49t-41 -34.5t-51 -12.5q-31 0 -53 16t-33.5 49t-11.5 83q0 40 8 93t24 107t40.5 99t58.5 73t76 28q29 0 49 -12t30.5 -33t12.5 -47h2l20 82h30l-160 -763h-37zM134 24q31 0 56 21.5t44 58t33 79t23 85t13 78t4 54.5
q0 50 -18 77t-53 27q-34 0 -61.5 -25.5t-47.5 -67.5t-34 -91t-20.5 -96t-6.5 -83q0 -65 19 -91t49 -26z" />
    <glyph glyph-name="r" unicode="r" horiz-adv-x="242" 
d="M5 0l111 528h29l-16 -89h3q13 32 30.5 54t40 33.5t48.5 11.5q11 0 20 -2t15 -4l-9 -36q-6 3 -13.5 4.5t-17.5 1.5q-32 0 -56 -20.5t-41 -53.5t-28.5 -71.5t-19.5 -74.5l-60 -282h-36z" />
    <glyph glyph-name="s" unicode="s" horiz-adv-x="283" 
d="M81 -10q-33 0 -58 7.5t-38 15.5v40q15 -10 40 -19.5t54 -9.5q35 0 57.5 13t33.5 38.5t11 61.5q0 23 -6.5 42t-20 38.5t-34.5 44.5q-18 21 -32.5 42t-22.5 45t-8 55q0 38 16 68t46 48t71 18q36 0 60.5 -9t41.5 -20l-19 -31q-15 10 -35 18.5t-49 8.5q-43 0 -69 -26.5
t-26 -71.5q0 -22 5.5 -41t17.5 -37.5t30 -40.5q23 -27 39.5 -49t24.5 -45t8 -55q0 -48 -16.5 -81t-47 -50.5t-74.5 -17.5z" />
    <glyph glyph-name="t" unicode="t" horiz-adv-x="193" 
d="M79 -10q-30 0 -46 17.5t-16 50.5q0 16 3 37.5t8 45.5l76 354h-47l6 27l48 7l35 127h28l-27 -128h67l-7 -33h-66l-77 -357q-4 -24 -7.5 -42.5t-3.5 -31.5q0 -19 8.5 -29.5t26.5 -10.5q11 0 20.5 2t17.5 5v-32q-10 -4 -21.5 -6.5t-25.5 -2.5z" />
    <glyph glyph-name="u" unicode="u" horiz-adv-x="369" 
d="M111 -10q-26 0 -45 9.5t-29.5 28.5t-10.5 48q0 22 6 55.5t12 62.5l71 334h37l-73 -340q-5 -28 -10.5 -55.5t-5.5 -51.5q0 -28 14.5 -42.5t40.5 -14.5q37 0 63.5 24.5t46.5 73t34 119.5l61 287h36l-111 -528h-29l12 76h-2q-12 -27 -30 -46.5t-40.5 -29.5t-47.5 -10z" />
    <glyph glyph-name="v" unicode="v" horiz-adv-x="284" 
d="M61 0l-4 528h36l1 -348v-37.5v-40t-2 -40.5h4q6 19 13.5 37l15 36t15.5 36l156 357h38l-232 -528h-41z" />
    <glyph glyph-name="w" unicode="w" horiz-adv-x="477" 
d="M58 -1l5 529h34l-4 -356q0 -29 -1 -56.5t-2 -53.5h2q5 16 12.5 35t15.5 39t14 38l145 354h38l-6 -356l-2.5 -52.5t-3.5 -58.5h2q7 17 13 34.5t13 36t15 38.5l138 358h36l-208 -529h-39l8 379v29t1.5 31.5t2.5 32.5h-2q-4 -15 -9.5 -29t-11 -29t-11.5 -30l-155 -384h-40z
" />
    <glyph glyph-name="x" unicode="x" horiz-adv-x="296" 
d="M-44 0l172 276l-49 252h37l40 -223l134 223h40l-160 -259l53 -269h-37l-44 238l-145 -238h-41z" />
    <glyph glyph-name="y" unicode="y" horiz-adv-x="303" 
d="M-66 -243q-16 0 -27.5 3t-17.5 7l7 34q8 -4 17 -6.5t22 -2.5q31 0 52.5 22.5t44.5 74.5l53 122l-7 517h36l3 -367q0 -13 -0.5 -28.5t-0.5 -32t-1 -31.5h2q6 16 13 33t13.5 32t11.5 27l161 367h38l-288 -649q-18 -42 -37 -69t-41.5 -40t-53.5 -13z" />
    <glyph glyph-name="z" unicode="z" horiz-adv-x="241" 
d="M-34 0l7 30l254 465h-142l7 33h180l-6 -30l-253 -464h158l-7 -34h-198z" />
    <glyph glyph-name="braceleft" unicode="{" horiz-adv-x="314" 
d="M183 -158q-60 0 -88.5 25t-28.5 73q0 13 2 26t5 28l33 155q3 16 5 29.5t2 25.5q0 32 -18.5 44.5t-63.5 12.5l7 33q55 0 81 21t39 79l41 191q10 47 31 75.5t55 41t84 12.5h6l-8 -33q-63 0 -92 -24.5t-42 -81.5l-40 -192q-10 -47 -32.5 -73.5t-64.5 -32.5v-1
q26 -6 40 -22.5t14 -49.5q0 -10 -1.5 -22t-4.5 -26l-34 -163q-3 -15 -4.5 -27t-1.5 -22q0 -39 21.5 -54t70.5 -15l-5 -33h-8z" />
    <glyph glyph-name="bar" unicode="|" horiz-adv-x="348" 
d="M154 -243v1005h35v-1005h-35z" />
    <glyph glyph-name="braceright" unicode="}" horiz-adv-x="312" 
d="M-60 -125q43 0 70 10.5t42.5 34t23.5 61.5l40 191q10 47 32.5 73.5t64.5 32.5v1q-25 6 -39.5 22.5t-14.5 49.5q0 11 1.5 23t4.5 25l34 164q3 15 4.5 27t1.5 22q0 38 -21.5 53.5t-70.5 15.5l7 33h8q40 0 65 -11.5t37.5 -33t12.5 -53.5q0 -12 -2 -25.5t-5 -28.5l-33 -156
q-4 -16 -5.5 -29.5t-1.5 -25.5q0 -31 18.5 -44t63.5 -13l-7 -33q-55 0 -81 -21t-39 -79l-41 -190q-10 -47 -30.5 -75.5t-54.5 -41t-84 -12.5h-6z" />
    <glyph glyph-name="asciitilde" unicode="~" horiz-adv-x="405" 
d="M205 336q-20 12 -39 20.5t-41 8.5q-25 0 -48 -13t-45 -41v42q17 20 40.5 33t53.5 13q26 0 46 -8.5t41 -21.5q22 -12 38 -19.5t35 -7.5q24 0 48.5 13t43.5 38v-42q-16 -18 -39.5 -30t-52.5 -12q-25 0 -43.5 8t-37.5 19z" />
    <glyph glyph-name="uni00A0" unicode="&#xa0;" horiz-adv-x="168" 
 />
    <glyph glyph-name="exclamdown" unicode="&#xa1;" horiz-adv-x="210" 
d="M-11 -181l126 542h28l-114 -542h-40zM153 456q-10 0 -16 7.5t-6 21.5q0 18 9.5 34.5t26.5 16.5q10 0 16.5 -7t6.5 -20q0 -18 -9 -35.5t-28 -17.5z" />
    <glyph glyph-name="cent" unicode="&#xa2;" horiz-adv-x="352" 
d="M147 96q-41 9 -61 46t-20 109q0 45 7.5 96t23 100.5t39 91.5t55 69t71.5 31l18 85h32l-17 -84q15 -1 27.5 -4t22.5 -9l-13 -33q-13 7 -26 10t-27 3q-42 0 -74.5 -34t-55.5 -87.5t-34.5 -115t-11.5 -117.5q0 -69 20 -97.5t61 -28.5q17 0 34 4.5t32 11.5l3 -33
q-16 -8 -35.5 -12.5t-39.5 -4.5l-22 -103h-32z" />
    <glyph glyph-name="sterling" unicode="&#xa3;" horiz-adv-x="355" 
d="M-24 31q25 8 44 25.5t33.5 49t24.5 81.5l32 150h-70l6 33h70l43 202q11 46 26.5 80.5t42.5 53t71 18.5q35 0 58.5 -12t40.5 -28l-21 -28q-14 13 -33 23t-47 10q-48 0 -69 -32t-33 -88l-41 -199h108l-6 -33h-109l-32 -150q-15 -74 -37 -106.5t-43 -45.5h232l-7 -35h-291z
" />
    <glyph glyph-name="currency" unicode="&#xa4;" horiz-adv-x="556" 
d="M408 207q-28 -22 -60 -33.5t-64 -11.5q-33 0 -65 11.5t-60 34.5l-73 -72l-19 20l71 72q-23 28 -34 61t-11 65t11 64.5t34 59.5l-72 74l19 19l75 -73q28 23 60.5 35t63.5 12t63.5 -11.5t60.5 -35.5l73 72l21 -19l-73 -72q24 -27 35.5 -59.5t11.5 -65.5t-11.5 -65.5
t-35.5 -60.5l74 -74l-21 -19zM283 192q46 0 83 23t59 60t22 80q2 43 -21.5 80t-61 59.5t-79.5 21.5q-43 1 -80.5 -21t-60.5 -59.5t-22 -81.5q0 -46 22 -83t58.5 -58t80.5 -21z" />
    <glyph glyph-name="yen" unicode="&#xa5;" horiz-adv-x="337" 
d="M80 0l33 149h-94l6 31h94l22 104h-93l7 31h86l-18 399h36l14 -370l168 370h39l-187 -399h88l-6 -31h-97l-22 -104h96l-6 -31h-96l-33 -149h-37z" />
    <glyph glyph-name="brokenbar" unicode="&#xa6;" horiz-adv-x="347" 
d="M153 378v381h36v-381h-36zM153 -241v381h36v-381h-36z" />
    <glyph glyph-name="section" unicode="&#xa7;" horiz-adv-x="300" 
d="M81 54q-34 0 -58 7t-39 15v39q16 -12 41 -20.5t56 -8.5q52 0 83 29t31 75q0 23 -8.5 41t-24 33t-37.5 31q-19 15 -37 31t-29.5 37t-11.5 48q0 29 10.5 51.5t32 41t52.5 32.5q-23 22 -33 45t-10 48q0 37 15.5 66t45 46t70.5 18q34 1 60 -8.5t45 -23.5l-18 -27
q-18 13 -39 20.5t-47 7.5q-28 0 -49.5 -11.5t-33.5 -32.5t-12 -50q0 -37 18 -58.5t44 -40.5q25 -17 43 -34.5t27.5 -37t9.5 -44.5q0 -28 -11 -52.5t-30.5 -44.5t-45.5 -36q17 -16 28.5 -41t11.5 -53q0 -40 -18.5 -71t-52 -49t-79.5 -18zM169 307q34 21 53.5 48t19.5 59
q0 22 -9 39t-26.5 32t-41.5 31q-27 -11 -45.5 -25.5t-27.5 -33t-9 -42.5q0 -22 10.5 -39.5t30 -33t45.5 -35.5z" />
    <glyph glyph-name="dieresis" unicode="&#xa8;" horiz-adv-x="469" 
d="M340 644q-10 0 -15.5 6.5t-5.5 19.5q0 15 8 30.5t23 15.5q10 0 15.5 -6.5t5.5 -18.5q0 -16 -8 -31.5t-23 -15.5zM209 644q-9 0 -15 6.5t-6 19.5q0 15 8 30.5t24 15.5q6 0 11 -2.5t7 -8t2 -14.5q0 -16 -8 -31.5t-23 -15.5z" />
    <glyph glyph-name="copyright" unicode="&#xa9;" horiz-adv-x="830" 
d="M413 -8q-84 0 -151 27t-114.5 77t-73 116.5t-25.5 144.5q0 83 27.5 150t77 115t116.5 74t146 26q82 0 149.5 -28t115.5 -78t74 -116.5t26 -144.5t-26.5 -144.5t-75.5 -115.5t-116.5 -76t-149.5 -27zM436 141q-95 0 -151 55t-56 161q0 67 24 115.5t69.5 74.5t109.5 26
q35 0 66 -7t57 -19l-14 -29q-23 11 -51.5 17t-57.5 6q-81 0 -123.5 -48.5t-42.5 -135.5q0 -93 45.5 -138.5t129.5 -45.5q25 0 51 4.5t56 16.5v-31q-25 -11 -53.5 -16.5t-58.5 -5.5zM413 22q76 0 137.5 25.5t106 71.5t68.5 106.5t24 131.5q0 70 -24 131.5t-68 107t-106 71
t-137 25.5q-74 0 -135 -25t-105.5 -70t-68.5 -106.5t-24 -133.5t23.5 -133t67 -106.5t105 -70.5t136.5 -25z" />
    <glyph glyph-name="ordfeminine" unicode="&#xaa;" horiz-adv-x="241" 
d="M143 398q-23 0 -41 11t-28 35.5t-10 64.5q0 36 8.5 73.5t25 69t41.5 51t59 19.5q31 0 45 -15.5t20 -35.5h2l14 45h26l-65 -312h-26l7 47h-2q-14 -25 -32 -39t-44 -14zM148 428q22 0 38.5 15.5t28 39.5t18.5 50t10 48.5t3 33.5q0 37 -11.5 57t-39.5 20q-24 0 -42 -17
t-30.5 -44.5t-18.5 -59t-6 -59.5q0 -45 13.5 -64.5t36.5 -19.5z" />
    <glyph glyph-name="guillemotleft" unicode="&#xab;" horiz-adv-x="358" 
d="M112 76l-82 180l2 14l158 165l22 -17l-140 -158l66 -173zM260 76l-82 180l2 14l158 165l22 -17l-140 -158l66 -173z" />
    <glyph glyph-name="logicalnot" unicode="&#xac;" horiz-adv-x="405" 
d="M367 368v-248h-35v214h-297v34h332z" />
    <glyph glyph-name="uni00AD" unicode="&#xad;" horiz-adv-x="261" 
d="M22 254l3 35h211l-3 -35h-211z" />
    <glyph glyph-name="registered" unicode="&#xae;" horiz-adv-x="830" 
d="M293 143v427h119q65 0 104 -29t39 -93q0 -52 -25.5 -79t-62.5 -39l96 -187h-40l-90 179h-104v-179h-36zM407 352q48 0 80 22.5t32 73.5q0 48 -30 69.5t-80 21.5h-81v-187h79zM413 -8q-84 0 -151 27t-114.5 77t-73 116.5t-25.5 144.5q0 83 27.5 150t77 115t116.5 74
t146 26q82 0 149.5 -28t115.5 -78t74 -116.5t26 -144.5t-26.5 -144.5t-75.5 -115.5t-116.5 -76t-149.5 -27zM413 22q76 0 137.5 25.5t106 71.5t68.5 106.5t24 131.5q0 70 -24 131.5t-68 107t-106 71t-137 25.5q-74 0 -135 -25t-105.5 -70t-68.5 -106.5t-24 -133.5t23.5 -133
t67 -106.5t105 -70.5t136.5 -25z" />
    <glyph glyph-name="overscore" unicode="&#xaf;" horiz-adv-x="363" 
d="M101 760l7 32h369l-7 -32h-369z" />
    <glyph glyph-name="degree" unicode="&#xb0;" horiz-adv-x="359" 
d="M180 474q-36 0 -64 15.5t-44.5 43.5t-16.5 66q0 39 16.5 66.5t45 42.5t62.5 15t62.5 -15t45.5 -42.5t17 -66.5q0 -38 -16.5 -66t-44.5 -43.5t-63 -15.5zM179 502q41 0 67.5 27.5t26.5 69.5q0 43 -26 69.5t-69 26.5q-42 0 -67.5 -27t-25.5 -69q0 -44 27.5 -70.5
t66.5 -26.5z" />
    <glyph glyph-name="plusminus" unicode="&#xb1;" horiz-adv-x="405" 
d="M37 1v34h335v-34h-335zM222 372h155v-33h-155v-213h-34v213h-157v33h157v216h34v-216z" />
    <glyph glyph-name="uni00B2" unicode="&#xb2;" horiz-adv-x="267" 
d="M49 415l4 28l114 133q27 31 52.5 61.5t41.5 62t16 63.5q0 31 -15.5 46.5t-42.5 15.5q-22 0 -39 -8.5t-34 -21.5l-15 26q16 14 39 24.5t54 10.5q26 0 46 -10.5t30.5 -30t10.5 -47.5q0 -37 -16 -71.5t-43 -67.5t-57 -67l-101 -115h160l-8 -32h-197z" />
    <glyph glyph-name="uni00B3" unicode="&#xb3;" horiz-adv-x="267" 
d="M133 409q-26 0 -45 5t-31 12v36q15 -9 34.5 -15.5t43.5 -6.5q50 0 75.5 31t25.5 73q0 45 -22 63t-53 18h-24l6 30h24q39 0 63.5 17t35.5 41.5t11 48.5q0 28 -14 45.5t-43 17.5q-23 0 -41.5 -8.5t-33.5 -20.5l-16 25q16 14 40 24.5t54 10.5q31 0 50 -12t28.5 -32.5
t9.5 -44.5q0 -49 -27 -83.5t-69 -43.5l-1 -2q22 -8 39 -29.5t17 -62.5q0 -35 -14.5 -66t-44 -51t-78.5 -20z" />
    <glyph glyph-name="acute" unicode="&#xb4;" horiz-adv-x="211" 
d="M115 614q24 25 47 52t41.5 53.5t29.5 46.5h43v-8q-10 -16 -27 -37t-37 -42.5t-40.5 -40.5t-37.5 -32h-19v8z" />
    <glyph glyph-name="uni03BC" unicode="&#x3bc;" horiz-adv-x="405" 
d="M-43 -229l161 757h37l-83 -385q-7 -33 -6.5 -60.5t13 -43t40.5 -15.5q37 0 63.5 24t46.5 71t34 115l63 294h36l-86 -401q-11 -58 -5.5 -80.5t28.5 -22.5q7 0 17 1.5t18 5.5l-7 -34q-4 -1 -10 -3t-13.5 -3t-17.5 -1q-24 0 -35.5 11t-15 30.5t-2.5 44.5h-2q-5 -9 -13 -23.5
t-21.5 -28.5t-34 -24t-50.5 -10q-25 0 -40.5 13t-23.5 41h-2q-2 -20 -5 -37.5t-5.5 -32.5t-5.5 -29l-37 -174h-36z" />
    <glyph glyph-name="paragraph" unicode="&#xb6;" horiz-adv-x="415" 
d="M216 425q-7 -4 -14 -5.5t-17 -1.5q-19 0 -36 9.5t-29.5 29.5t-19.5 52t-7 76q0 48 8 81t22.5 54t36 30.5t47.5 9.5h158v-887h-32v857h-85v-857h-32v552z" />
    <glyph glyph-name="periodcentered" unicode="&#xb7;" horiz-adv-x="178" 
d="M101 311q-10 0 -16.5 7t-6.5 20q0 18 9 35.5t27 17.5q11 0 17 -7.5t6 -21.5q0 -18 -9.5 -34.5t-26.5 -16.5z" />
    <glyph glyph-name="cedilla" unicode="&#xb8;" horiz-adv-x="210" 
d="M-9 -240q-21 0 -34 2.5t-25 4.5v30q8 -3 22.5 -5.5t36.5 -2.5q25 0 44.5 9.5t30 26.5t10.5 36q0 29 -21 42.5t-60 17.5l56 79h30l-44 -62q33 -6 52.5 -24t19.5 -50q0 -29 -15 -53t-41.5 -37.5t-61.5 -13.5z" />
    <glyph glyph-name="uni00B9" unicode="&#xb9;" horiz-adv-x="267" 
d="M222 764q2 13 5 23t5 20q-11 -9 -19 -16t-16 -12l-64 -45l-15 25l119 85h35l-92 -428h-33z" />
    <glyph glyph-name="ordmasculine" unicode="&#xba;" horiz-adv-x="238" 
d="M154 395q-39 0 -58 26t-19 73q0 32 7 71t22.5 75t41 59t61.5 23q35 0 55 -24t20 -76q0 -35 -8.5 -74.5t-24.5 -74.5t-40.5 -56.5t-56.5 -21.5zM155 425q26 0 43.5 20.5t29 51.5t17 64t5.5 60q0 35 -10.5 53t-33.5 18q-25 0 -43 -20.5t-29.5 -51.5t-17.5 -64.5t-6 -59.5
q0 -34 10.5 -52.5t34.5 -18.5z" />
    <glyph glyph-name="guillemotright" unicode="&#xbb;" horiz-adv-x="361" 
d="M161 76l-22 17l140 159l-66 172l26 11l82 -180l-2 -14zM13 76l-22 17l140 159l-66 172l26 11l82 -180l-2 -14z" />
    <glyph glyph-name="onequarter" unicode="&#xbc;" horiz-adv-x="575" 
d="M-9 0l555 714h40l-554 -714h-41zM197 634q2 13 5 23t5 20q-11 -9 -19 -16t-16 -12l-64 -45l-15 25l119 85h35l-92 -428h-33zM406 0l24 109h-144l3 27l211 295h31l-62 -291h45l-7 -31h-44l-24 -109h-33zM325 140h111l34 158q5 20 9 39.5t8 32.5q-6 -10 -11.5 -19
t-12.5 -19t-16 -22z" />
    <glyph glyph-name="onehalf" unicode="&#xbd;" horiz-adv-x="624" 
d="M-11 0l555 714h40l-554 -714h-41zM197 634q2 13 5 23t5 20q-11 -9 -19 -16t-16 -12l-64 -45l-15 25l119 85h35l-92 -428h-33zM325 -1l4 28l114 133q27 31 52.5 61.5t41.5 62t16 63.5q0 31 -15.5 46.5t-42.5 15.5q-22 0 -39 -8.5t-34 -21.5l-15 26q16 14 39 24.5t54 10.5
q26 0 46 -10.5t30.5 -30t10.5 -47.5q0 -37 -16 -71.5t-43 -67.5t-57 -67l-101 -115h160l-8 -32h-197z" />
    <glyph glyph-name="threequarters" unicode="&#xbe;" horiz-adv-x="588" 
d="M108 279q-26 0 -45 5t-31 12v36q15 -9 34.5 -15.5t43.5 -6.5q50 0 75.5 31t25.5 73q0 45 -22 63t-53 18h-24l6 30h24q39 0 63.5 17t35.5 41.5t11 48.5q0 28 -14 45.5t-43 17.5q-23 0 -41.5 -8.5t-33.5 -20.5l-16 25q16 14 40 24.5t54 10.5q31 0 50 -12t28.5 -32.5
t9.5 -44.5q0 -49 -27 -83.5t-69 -43.5l-1 -2q22 -8 39 -29.5t17 -62.5q0 -35 -14.5 -66t-44 -51t-78.5 -20zM10 0l555 714h40l-554 -714h-41zM420 0l24 109h-144l3 27l211 295h31l-62 -291h45l-7 -31h-44l-24 -109h-33zM339 140h111l34 158q5 20 9 39.5t8 32.5
q-6 -10 -11.5 -19t-12.5 -19t-16 -22z" />
    <glyph glyph-name="questiondown" unicode="&#xbf;" horiz-adv-x="242" 
d="M192 348q-9 -50 -21 -86.5t-31 -69t-51 -72.5t-56 -72t-36.5 -64.5t-12.5 -74.5q0 -37 20 -57.5t53 -20.5q26 0 46 8.5t36 19.5l13 -29q-20 -15 -46 -24t-55 -9q-49 0 -76.5 29t-27.5 79q0 43 14 80t39 72.5t57 74.5q34 41 53 71t30 63.5t20 81.5h32zM202 523
q11 0 17 -7.5t6 -20.5q0 -17 -9 -34.5t-27 -17.5q-10 0 -16 7.5t-6 21.5q0 17 9 34t26 17z" />
    <glyph glyph-name="Agrave" unicode="&#xc0;" horiz-adv-x="342" 
d="M-67 0l295 717h47l-1 -717h-38l1 272h-152l-112 -272h-40zM97 307h140l3 288q0 21 0.5 40.5t1.5 33.5h-2q-4 -13 -11 -32t-17 -43zM286 794q-13 19 -28 45t-29.5 53.5t-23.5 51.5v7h37q10 -26 20 -51t21 -49.5t23 -48.5v-8h-20z" />
    <glyph glyph-name="Aacute" unicode="&#xc1;" horiz-adv-x="342" 
d="M-67 0l295 717h47l-1 -717h-38l1 272h-152l-112 -272h-40zM97 307h140l3 288q0 21 0.5 40.5t1.5 33.5h-2q-4 -13 -11 -32t-17 -43zM238 798q24 25 47 52t41.5 53.5t29.5 46.5h43v-8q-10 -16 -27 -37t-37 -42.5t-40.5 -40.5t-37.5 -32h-19v8z" />
    <glyph glyph-name="Acircumflex" unicode="&#xc2;" horiz-adv-x="342" 
d="M-67 0l295 717h47l-1 -717h-38l1 272h-152l-112 -272h-40zM97 307h140l3 288q0 21 0.5 40.5t1.5 33.5h-2q-4 -13 -11 -32t-17 -43zM149 797q20 21 41.5 46.5t41.5 53t34 52.5h31q4 -20 14 -49.5t21.5 -57.5t19.5 -45l-1 -8h-17q-9 15 -20.5 33.5t-21 39.5t-18.5 42
q-22 -28 -50 -58.5t-59 -56.5h-17z" />
    <glyph glyph-name="Atilde" unicode="&#xc3;" horiz-adv-x="342" 
d="M-67 0l295 717h47l-1 -717h-38l1 272h-152l-112 -272h-40zM97 307h140l3 288q0 21 0.5 40.5t1.5 33.5h-2q-4 -13 -11 -32t-17 -43zM131 793q6 34 17 55.5t28 32.5t40 11q20 0 34 -9.5t25.5 -22.5t23 -22.5t25.5 -9.5q19 0 31 15t18 49h30q-5 -33 -16 -55t-27.5 -32.5
t-37.5 -10.5q-20 0 -34 10t-25.5 23t-23 22.5t-26.5 9.5q-23 0 -34.5 -17t-17.5 -49h-30z" />
    <glyph glyph-name="Adieresis" unicode="&#xc4;" horiz-adv-x="342" 
d="M-67 0l295 717h47l-1 -717h-38l1 272h-152l-112 -272h-40zM97 307h140l3 288q0 21 0.5 40.5t1.5 33.5h-2q-4 -13 -11 -32t-17 -43zM318 827q-10 0 -15.5 6.5t-5.5 19.5q0 15 8 30.5t23 15.5q10 0 15.5 -6.5t5.5 -18.5q0 -16 -8 -31.5t-23 -15.5zM187 827q-9 0 -15 6.5
t-6 19.5q0 15 8 30.5t24 15.5q6 0 11 -2.5t7 -8t2 -14.5q0 -16 -8 -31.5t-23 -15.5z" />
    <glyph glyph-name="Aring" unicode="&#xc5;" horiz-adv-x="342" 
d="M-67 0l295 717h47l-1 -717h-38l1 272h-152l-112 -272h-40zM97 307h140l3 288q0 21 0.5 40.5t1.5 33.5h-2q-4 -13 -11 -32t-17 -43zM269 799q-41 0 -65 24t-24 65q0 39 24 64t65 25q44 0 66.5 -25.5t23.5 -62.5q0 -38 -24 -64t-66 -26zM270 828q28 0 43.5 16.5t15.5 43.5
t-15 44t-44 17t-44.5 -17.5t-15.5 -43.5q0 -27 15.5 -43.5t44.5 -16.5z" />
    <glyph glyph-name="AE" unicode="&#xc6;" horiz-adv-x="489" 
d="M-71 0l333 714h273l-7 -35h-195l-61 -287h183l-8 -34h-183l-68 -323h194l-7 -35h-231l58 274h-114l-127 -274h-40zM112 309h105l80 370h-14z" />
    <glyph glyph-name="Ccedilla" unicode="&#xc7;" horiz-adv-x="347" 
d="M186 -10q-49 0 -82.5 24.5t-50 76t-16.5 132.5q0 54 11 120.5t34 133.5t58.5 123t84 90.5t111.5 34.5q30 0 51.5 -7.5t37.5 -19.5l-21 -31q-12 12 -29.5 17.5t-40.5 5.5q-52 0 -93.5 -32t-72.5 -84t-52 -114.5t-31 -124t-10 -110.5q0 -106 28.5 -153t87.5 -47
q17 0 36 4.5t41 12.5v-36q-21 -8 -41.5 -12t-40.5 -4zM72 -240q-21 0 -34 2.5t-25 4.5v30q8 -3 22.5 -5.5t36.5 -2.5q25 0 44.5 9.5t30 26.5t10.5 36q0 29 -21 42.5t-60 17.5l56 79h30l-44 -62q33 -6 52.5 -24t19.5 -50q0 -29 -15 -53t-41.5 -37.5t-61.5 -13.5z" />
    <glyph glyph-name="Egrave" unicode="&#xc8;" horiz-adv-x="344" 
d="M2 0l151 714h232l-7 -35h-195l-61 -287h183l-9 -34h-182l-68 -323h195l-7 -35h-232zM288 793q-13 19 -28 45t-29.5 53.5t-23.5 51.5v7h37q10 -26 20 -51t21 -49.5t23 -48.5v-8h-20z" />
    <glyph glyph-name="Eacute" unicode="&#xc9;" horiz-adv-x="344" 
d="M2 0l151 714h232l-7 -35h-195l-61 -287h183l-9 -34h-182l-68 -323h195l-7 -35h-232zM239 798q24 25 47 52t41.5 53.5t29.5 46.5h43v-8q-10 -16 -27 -37t-37 -42.5t-40.5 -40.5t-37.5 -32h-19v8z" />
    <glyph glyph-name="Ecircumflex" unicode="&#xca;" horiz-adv-x="344" 
d="M2 0l151 714h232l-7 -35h-195l-61 -287h183l-9 -34h-182l-68 -323h195l-7 -35h-232zM171 779q20 21 41.5 46.5t41.5 53t34 52.5h31q4 -20 14 -49.5t21.5 -57.5t19.5 -45l-1 -8h-17q-9 15 -20.5 33.5t-21 39.5t-18.5 42q-22 -28 -50 -58.5t-59 -56.5h-17z" />
    <glyph glyph-name="Edieresis" unicode="&#xcb;" horiz-adv-x="344" 
d="M2 0l151 714h232l-7 -35h-195l-61 -287h183l-9 -34h-182l-68 -323h195l-7 -35h-232zM336 809q-10 0 -15.5 6.5t-5.5 19.5q0 15 8 30.5t23 15.5q10 0 15.5 -6.5t5.5 -18.5q0 -16 -8 -31.5t-23 -15.5zM205 809q-9 0 -15 6.5t-6 19.5q0 15 8 30.5t24 15.5q6 0 11 -2.5t7 -8
t2 -14.5q0 -16 -8 -31.5t-23 -15.5z" />
    <glyph glyph-name="Igrave" unicode="&#xcc;" horiz-adv-x="184" 
d="M-57 0l6 24l64 6l138 653l-61 7l5 24h160l-5 -24l-63 -7l-138 -653l60 -6l-5 -24h-161zM208 793q-13 19 -28 45t-29.5 53.5t-23.5 51.5v7h37q10 -26 20 -51t21 -49.5t23 -48.5v-8h-20z" />
    <glyph glyph-name="Iacute" unicode="&#xcd;" horiz-adv-x="184" 
d="M-57 0l6 24l64 6l138 653l-61 7l5 24h160l-5 -24l-63 -7l-138 -653l60 -6l-5 -24h-161zM159 798q24 25 47 52t41.5 53.5t29.5 46.5h43v-8q-10 -16 -27 -37t-37 -42.5t-40.5 -40.5t-37.5 -32h-19v8z" />
    <glyph glyph-name="Icircumflex" unicode="&#xce;" horiz-adv-x="184" 
d="M-57 0l6 24l64 6l138 653l-61 7l5 24h160l-5 -24l-63 -7l-138 -653l60 -6l-5 -24h-161zM94 802q20 21 41.5 46.5t41.5 53t34 52.5h31q4 -20 14 -49.5t21.5 -57.5t19.5 -45l-1 -8h-17q-9 15 -20.5 33.5t-21 39.5t-18.5 42q-22 -28 -50 -58.5t-59 -56.5h-17z" />
    <glyph glyph-name="Idieresis" unicode="&#xcf;" horiz-adv-x="184" 
d="M-57 0l6 24l64 6l138 653l-61 7l5 24h160l-5 -24l-63 -7l-138 -653l60 -6l-5 -24h-161zM262 832q-10 0 -15.5 6.5t-5.5 19.5q0 15 8 30.5t23 15.5q10 0 15.5 -6.5t5.5 -18.5q0 -16 -8 -31.5t-23 -15.5zM131 832q-9 0 -15 6.5t-6 19.5q0 15 8 30.5t24 15.5q6 0 11 -2.5
t7 -8t2 -14.5q0 -16 -8 -31.5t-23 -15.5z" />
    <glyph glyph-name="Eth" unicode="&#xd0;" horiz-adv-x="427" 
d="M24 353l7 33h186l-6 -33h-187zM2 0l151 714h84q80 0 123.5 -48.5t43.5 -157.5q0 -59 -10.5 -127.5t-32.5 -136t-58.5 -122.5t-88.5 -88.5t-122 -33.5h-90zM93 35q60 0 105 31t76.5 81.5t51.5 113.5t29 126.5t9 119.5q0 96 -33.5 134t-99.5 38h-47l-138 -644h47z" />
    <glyph glyph-name="Ntilde" unicode="&#xd1;" horiz-adv-x="472" 
d="M2 0l151 714h46l115 -638h3q5 26 10 51t9 47.5t8 37.5l106 502h37l-152 -714h-44l-115 646h-2q-2 -14 -5 -29.5t-6.5 -32.5t-7.5 -35.5t-8 -38.5l-108 -510h-37zM195 775q6 34 17 55.5t28 32.5t40 11q20 0 34 -9.5t25.5 -22.5t23 -22.5t25.5 -9.5q19 0 31 15t18 49h30
q-5 -33 -16 -55t-27.5 -32.5t-37.5 -10.5q-20 0 -34 10t-25.5 23t-23 22.5t-26.5 9.5q-23 0 -34.5 -17t-17.5 -49h-30z" />
    <glyph glyph-name="Ograve" unicode="&#xd2;" horiz-adv-x="455" 
d="M166 -10q-43 0 -72.5 21.5t-44.5 65.5t-15 112q0 47 7.5 105t21.5 118t36.5 115.5t52.5 100t68.5 70.5t84.5 26q64 0 97.5 -44t33.5 -142q0 -45 -7 -103t-20 -119.5t-34.5 -119.5t-51.5 -104.5t-69 -74t-88 -27.5zM170 25q39 0 71 25.5t57.5 69t44 97.5t31 112t18 111.5
t5.5 96.5q0 81 -23 116.5t-72 35.5q-40 0 -72.5 -26t-57.5 -69t-44 -97t-31 -110t-18 -107t-6 -90q0 -58 11 -94.5t32.5 -53.5t53.5 -17zM343 793q-13 19 -28 45t-29.5 53.5t-23.5 51.5v7h37q10 -26 20 -51t21 -49.5t23 -48.5v-8h-20z" />
    <glyph glyph-name="Oacute" unicode="&#xd3;" horiz-adv-x="455" 
d="M166 -10q-43 0 -72.5 21.5t-44.5 65.5t-15 112q0 47 7.5 105t21.5 118t36.5 115.5t52.5 100t68.5 70.5t84.5 26q64 0 97.5 -44t33.5 -142q0 -45 -7 -103t-20 -119.5t-34.5 -119.5t-51.5 -104.5t-69 -74t-88 -27.5zM170 25q39 0 71 25.5t57.5 69t44 97.5t31 112t18 111.5
t5.5 96.5q0 81 -23 116.5t-72 35.5q-40 0 -72.5 -26t-57.5 -69t-44 -97t-31 -110t-18 -107t-6 -90q0 -58 11 -94.5t32.5 -53.5t53.5 -17zM294 798q24 25 47 52t41.5 53.5t29.5 46.5h43v-8q-10 -16 -27 -37t-37 -42.5t-40.5 -40.5t-37.5 -32h-19v8z" />
    <glyph glyph-name="Ocircumflex" unicode="&#xd4;" horiz-adv-x="455" 
d="M166 -10q-43 0 -72.5 21.5t-44.5 65.5t-15 112q0 47 7.5 105t21.5 118t36.5 115.5t52.5 100t68.5 70.5t84.5 26q64 0 97.5 -44t33.5 -142q0 -45 -7 -103t-20 -119.5t-34.5 -119.5t-51.5 -104.5t-69 -74t-88 -27.5zM170 25q39 0 71 25.5t57.5 69t44 97.5t31 112t18 111.5
t5.5 96.5q0 81 -23 116.5t-72 35.5q-40 0 -72.5 -26t-57.5 -69t-44 -97t-31 -110t-18 -107t-6 -90q0 -58 11 -94.5t32.5 -53.5t53.5 -17zM209 779q20 21 41.5 46.5t41.5 53t34 52.5h31q4 -20 14 -49.5t21.5 -57.5t19.5 -45l-1 -8h-17q-9 15 -20.5 33.5t-21 39.5t-18.5 42
q-22 -28 -50 -58.5t-59 -56.5h-17z" />
    <glyph glyph-name="Otilde" unicode="&#xd5;" horiz-adv-x="455" 
d="M166 -10q-43 0 -72.5 21.5t-44.5 65.5t-15 112q0 47 7.5 105t21.5 118t36.5 115.5t52.5 100t68.5 70.5t84.5 26q64 0 97.5 -44t33.5 -142q0 -45 -7 -103t-20 -119.5t-34.5 -119.5t-51.5 -104.5t-69 -74t-88 -27.5zM170 25q39 0 71 25.5t57.5 69t44 97.5t31 112t18 111.5
t5.5 96.5q0 81 -23 116.5t-72 35.5q-40 0 -72.5 -26t-57.5 -69t-44 -97t-31 -110t-18 -107t-6 -90q0 -58 11 -94.5t32.5 -53.5t53.5 -17zM186 775q6 34 17 55.5t28 32.5t40 11q20 0 34 -9.5t25.5 -22.5t23 -22.5t25.5 -9.5q19 0 31 15t18 49h30q-5 -33 -16 -55t-27.5 -32.5
t-37.5 -10.5q-20 0 -34 10t-25.5 23t-23 22.5t-26.5 9.5q-23 0 -34.5 -17t-17.5 -49h-30z" />
    <glyph glyph-name="Odieresis" unicode="&#xd6;" horiz-adv-x="455" 
d="M166 -10q-43 0 -72.5 21.5t-44.5 65.5t-15 112q0 47 7.5 105t21.5 118t36.5 115.5t52.5 100t68.5 70.5t84.5 26q64 0 97.5 -44t33.5 -142q0 -45 -7 -103t-20 -119.5t-34.5 -119.5t-51.5 -104.5t-69 -74t-88 -27.5zM170 25q39 0 71 25.5t57.5 69t44 97.5t31 112t18 111.5
t5.5 96.5q0 81 -23 116.5t-72 35.5q-40 0 -72.5 -26t-57.5 -69t-44 -97t-31 -110t-18 -107t-6 -90q0 -58 11 -94.5t32.5 -53.5t53.5 -17zM416 831q-10 0 -15.5 6.5t-5.5 19.5q0 15 8 30.5t23 15.5q10 0 15.5 -6.5t5.5 -18.5q0 -16 -8 -31.5t-23 -15.5zM285 831q-9 0 -15 6.5
t-6 19.5q0 15 8 30.5t24 15.5q6 0 11 -2.5t7 -8t2 -14.5q0 -16 -8 -31.5t-23 -15.5z" />
    <glyph glyph-name="multiply" unicode="&#xd7;" horiz-adv-x="405" 
d="M347 519l22 -22l-142 -143l140 -143l-22 -22l-141 143l-142 -144l-22 23l143 143l-141 142l22 22l141 -142z" />
    <glyph glyph-name="Oslash" unicode="&#xd8;" horiz-adv-x="458" 
d="M5 -42l-26 15l69 111q-7 21 -10.5 47t-3.5 58q0 47 7.5 105t21.5 118t36.5 115.5t52.5 100t68.5 70.5t85.5 26q35 0 61.5 -14.5t42.5 -44.5l56 90l26 -15l-68 -109q6 -19 9 -42.5t3 -50.5q0 -45 -7 -103t-20 -119.5t-34.5 -119.5t-51.5 -104.5t-69 -74t-88 -27.5
q-34 0 -60.5 15t-42.5 45zM170 25q39 0 71 25t57 68t43.5 96.5t30.5 110.5t18.5 110t6.5 96q0 15 -0.5 28t-2.5 25l-308 -496q12 -32 33.5 -47.5t50.5 -15.5zM386 628q-10 32 -30.5 46.5t-53.5 14.5q-39 0 -71.5 -25.5t-57.5 -68t-44 -95.5t-31 -109t-18.5 -106.5
t-6.5 -88.5q0 -19 1 -35t3 -31z" />
    <glyph glyph-name="Ugrave" unicode="&#xd9;" horiz-adv-x="433" 
d="M158 -10q-37 0 -65.5 15t-45 44.5t-16.5 72.5q0 18 3 41.5t8 48.5l107 502h37l-107 -503q-5 -24 -7.5 -46t-2.5 -40q0 -50 25.5 -75t66.5 -25q45 0 73 23.5t45.5 68.5t31.5 110l106 487h37l-107 -489q-15 -71 -37 -124t-57.5 -82t-94.5 -29zM333 793q-13 19 -28 45
t-29.5 53.5t-23.5 51.5v7h37q10 -26 20 -51t21 -49.5t23 -48.5v-8h-20z" />
    <glyph glyph-name="Uacute" unicode="&#xda;" horiz-adv-x="433" 
d="M158 -10q-37 0 -65.5 15t-45 44.5t-16.5 72.5q0 18 3 41.5t8 48.5l107 502h37l-107 -503q-5 -24 -7.5 -46t-2.5 -40q0 -50 25.5 -75t66.5 -25q45 0 73 23.5t45.5 68.5t31.5 110l106 487h37l-107 -489q-15 -71 -37 -124t-57.5 -82t-94.5 -29zM284 798q24 25 47 52
t41.5 53.5t29.5 46.5h43v-8q-10 -16 -27 -37t-37 -42.5t-40.5 -40.5t-37.5 -32h-19v8z" />
    <glyph glyph-name="Ucircumflex" unicode="&#xdb;" horiz-adv-x="433" 
d="M158 -10q-37 0 -65.5 15t-45 44.5t-16.5 72.5q0 18 3 41.5t8 48.5l107 502h37l-107 -503q-5 -24 -7.5 -46t-2.5 -40q0 -50 25.5 -75t66.5 -25q45 0 73 23.5t45.5 68.5t31.5 110l106 487h37l-107 -489q-15 -71 -37 -124t-57.5 -82t-94.5 -29zM206 779q20 21 41.5 46.5
t41.5 53t34 52.5h31q4 -20 14 -49.5t21.5 -57.5t19.5 -45l-1 -8h-17q-9 15 -20.5 33.5t-21 39.5t-18.5 42q-22 -28 -50 -58.5t-59 -56.5h-17z" />
    <glyph glyph-name="Udieresis" unicode="&#xdc;" horiz-adv-x="433" 
d="M158 -10q-37 0 -65.5 15t-45 44.5t-16.5 72.5q0 18 3 41.5t8 48.5l107 502h37l-107 -503q-5 -24 -7.5 -46t-2.5 -40q0 -50 25.5 -75t66.5 -25q45 0 73 23.5t45.5 68.5t31.5 110l106 487h37l-107 -489q-15 -71 -37 -124t-57.5 -82t-94.5 -29zM406 831q-10 0 -15.5 6.5
t-5.5 19.5q0 15 8 30.5t23 15.5q10 0 15.5 -6.5t5.5 -18.5q0 -16 -8 -31.5t-23 -15.5zM275 831q-9 0 -15 6.5t-6 19.5q0 15 8 30.5t24 15.5q6 0 11 -2.5t7 -8t2 -14.5q0 -16 -8 -31.5t-23 -15.5z" />
    <glyph glyph-name="Yacute" unicode="&#xdd;" horiz-adv-x="303" 
d="M65 0l59 277l-41 437h37l32 -382l195 382h40l-226 -436l-59 -278h-37zM219 798q24 25 47 52t41.5 53.5t29.5 46.5h43v-8q-10 -16 -27 -37t-37 -42.5t-40.5 -40.5t-37.5 -32h-19v8z" />
    <glyph glyph-name="Thorn" unicode="&#xde;" horiz-adv-x="362" 
d="M2 0l151 714h37l-28 -132h37q51 0 84.5 -17.5t50 -50.5t16.5 -80q0 -57 -15.5 -105.5t-44.5 -84t-71 -55.5t-96 -20h-49l-35 -169h-37zM121 203q65 0 107.5 30t62.5 82.5t20 115.5q0 54 -26.5 85t-89.5 31h-40l-73 -344h39z" />
    <glyph glyph-name="germandbls" unicode="&#xdf;" horiz-adv-x="345" 
d="M-98 -240q-14 0 -24.5 2.5t-17.5 5.5v35q8 -4 17.5 -6.5t21.5 -2.5q35 0 50 30t27 87l150 696q12 55 29 90t42.5 51.5t62.5 16.5q45 0 70 -27.5t25 -69.5q0 -33 -10 -59t-27.5 -49.5t-42.5 -50.5q-30 -32 -43 -58.5t-13 -57.5q0 -16 4.5 -34t12.5 -36.5t17 -40.5
q12 -25 24.5 -58.5t12.5 -71.5q0 -46 -16.5 -83t-48 -58t-78.5 -21q-23 0 -44.5 6t-34.5 14l2 38q19 -12 38.5 -18t40.5 -6q47 0 75 34t28 92q0 21 -4.5 40.5t-12 38.5t-16.5 37q-14 30 -26 63t-12 62q0 23 7 44.5t20 42t33 41.5q24 26 40.5 48t26 45.5t9.5 53.5
q0 31 -17 48t-43 17t-43.5 -13.5t-29.5 -41t-22 -70.5l-150 -699q-8 -40 -20 -74t-32.5 -53.5t-57.5 -19.5z" />
    <glyph glyph-name="agrave" unicode="&#xe0;" horiz-adv-x="388" 
d="M127 -10q-32 0 -54 17t-33.5 50t-11.5 81q0 47 8.5 101t25.5 107t42 96t59 69.5t76 26.5q27 0 45 -11.5t28.5 -31.5t14.5 -46h3l19 79h31l-112 -528h-29l14 87h-2q-17 -30 -35 -52t-39.5 -33.5t-49.5 -11.5zM134 24q39 0 66 29.5t46.5 75.5t32.5 98q12 49 20.5 97t8.5 88
q0 42 -18 67t-50 25q-33 0 -60.5 -24t-49 -64t-35.5 -88t-21.5 -97t-7.5 -90q0 -62 19 -89.5t49 -27.5zM270 607q-13 19 -28 45t-29.5 53.5t-23.5 51.5v7h37q10 -26 20 -51t21 -49.5t23 -48.5v-8h-20z" />
    <glyph glyph-name="aacute" unicode="&#xe1;" horiz-adv-x="388" 
d="M127 -10q-32 0 -54 17t-33.5 50t-11.5 81q0 47 8.5 101t25.5 107t42 96t59 69.5t76 26.5q27 0 45 -11.5t28.5 -31.5t14.5 -46h3l19 79h31l-112 -528h-29l14 87h-2q-17 -30 -35 -52t-39.5 -33.5t-49.5 -11.5zM134 24q39 0 66 29.5t46.5 75.5t32.5 98q12 49 20.5 97t8.5 88
q0 42 -18 67t-50 25q-33 0 -60.5 -24t-49 -64t-35.5 -88t-21.5 -97t-7.5 -90q0 -62 19 -89.5t49 -27.5zM222 612q24 25 47 52t41.5 53.5t29.5 46.5h43v-8q-10 -16 -27 -37t-37 -42.5t-40.5 -40.5t-37.5 -32h-19v8z" />
    <glyph glyph-name="acircumflex" unicode="&#xe2;" horiz-adv-x="388" 
d="M127 -10q-32 0 -54 17t-33.5 50t-11.5 81q0 47 8.5 101t25.5 107t42 96t59 69.5t76 26.5q27 0 45 -11.5t28.5 -31.5t14.5 -46h3l19 79h31l-112 -528h-29l14 87h-2q-17 -30 -35 -52t-39.5 -33.5t-49.5 -11.5zM134 24q39 0 66 29.5t46.5 75.5t32.5 98q12 49 20.5 97t8.5 88
q0 42 -18 67t-50 25q-33 0 -60.5 -24t-49 -64t-35.5 -88t-21.5 -97t-7.5 -90q0 -62 19 -89.5t49 -27.5zM157 614q20 21 41.5 46.5t41.5 53t34 52.5h31q4 -20 14 -49.5t21.5 -57.5t19.5 -45l-1 -8h-17q-9 15 -20.5 33.5t-21 39.5t-18.5 42q-22 -28 -50 -58.5t-59 -56.5h-17z
" />
    <glyph glyph-name="atilde" unicode="&#xe3;" horiz-adv-x="388" 
d="M127 -10q-32 0 -54 17t-33.5 50t-11.5 81q0 47 8.5 101t25.5 107t42 96t59 69.5t76 26.5q27 0 45 -11.5t28.5 -31.5t14.5 -46h3l19 79h31l-112 -528h-29l14 87h-2q-17 -30 -35 -52t-39.5 -33.5t-49.5 -11.5zM134 24q39 0 66 29.5t46.5 75.5t32.5 98q12 49 20.5 97t8.5 88
q0 42 -18 67t-50 25q-33 0 -60.5 -24t-49 -64t-35.5 -88t-21.5 -97t-7.5 -90q0 -62 19 -89.5t49 -27.5zM138 610q6 34 17 55.5t28 32.5t40 11q20 0 34 -9.5t25.5 -22.5t23 -22.5t25.5 -9.5q19 0 31 15t18 49h30q-5 -33 -16 -55t-27.5 -32.5t-37.5 -10.5q-20 0 -34 10
t-25.5 23t-23 22.5t-26.5 9.5q-23 0 -34.5 -17t-17.5 -49h-30z" />
    <glyph glyph-name="adieresis" unicode="&#xe4;" horiz-adv-x="388" 
d="M127 -10q-32 0 -54 17t-33.5 50t-11.5 81q0 47 8.5 101t25.5 107t42 96t59 69.5t76 26.5q27 0 45 -11.5t28.5 -31.5t14.5 -46h3l19 79h31l-112 -528h-29l14 87h-2q-17 -30 -35 -52t-39.5 -33.5t-49.5 -11.5zM134 24q39 0 66 29.5t46.5 75.5t32.5 98q12 49 20.5 97t8.5 88
q0 42 -18 67t-50 25q-33 0 -60.5 -24t-49 -64t-35.5 -88t-21.5 -97t-7.5 -90q0 -62 19 -89.5t49 -27.5zM325 644q-10 0 -15.5 6.5t-5.5 19.5q0 15 8 30.5t23 15.5q10 0 15.5 -6.5t5.5 -18.5q0 -16 -8 -31.5t-23 -15.5zM194 644q-9 0 -15 6.5t-6 19.5q0 15 8 30.5t24 15.5
q6 0 11 -2.5t7 -8t2 -14.5q0 -16 -8 -31.5t-23 -15.5z" />
    <glyph glyph-name="aring" unicode="&#xe5;" horiz-adv-x="388" 
d="M127 -10q-32 0 -54 17t-33.5 50t-11.5 81q0 47 8.5 101t25.5 107t42 96t59 69.5t76 26.5q27 0 45 -11.5t28.5 -31.5t14.5 -46h3l19 79h31l-112 -528h-29l14 87h-2q-17 -30 -35 -52t-39.5 -33.5t-49.5 -11.5zM134 24q39 0 66 29.5t46.5 75.5t32.5 98q12 49 20.5 97t8.5 88
q0 42 -18 67t-50 25q-33 0 -60.5 -24t-49 -64t-35.5 -88t-21.5 -97t-7.5 -90q0 -62 19 -89.5t49 -27.5zM276 611q-41 0 -65 24t-24 65q0 39 24 64t65 25q44 0 66.5 -25.5t23.5 -62.5q0 -38 -24 -64t-66 -26zM277 640q28 0 43.5 16.5t15.5 43.5t-15 44t-44 17t-44.5 -17.5
t-15.5 -43.5q0 -27 15.5 -43.5t44.5 -16.5z" />
    <glyph glyph-name="ae" unicode="&#xe6;" horiz-adv-x="571" 
d="M126 -10q-31 0 -53 17t-33.5 50t-11.5 81q0 49 9 104t26 107.5t42.5 95t59 68t74.5 25.5q27 0 44.5 -11.5t28 -31t14.5 -45.5h2l19 78h28l-18 -87q25 43 57 70t69 27q38 0 61 -22t23 -71q0 -38 -14 -72.5t-43.5 -62.5t-75 -44.5t-108.5 -16.5h-7q-4 -22 -6 -47t-2 -52
q0 -65 21 -96t68 -31q24 0 46 8t43 20l-2 -37q-18 -11 -41 -17.5t-53 -6.5q-46 0 -73.5 26t-34.5 79l-20 -95h-28l15 87h-2q-16 -30 -34 -52t-40 -33.5t-50 -11.5zM134 24q29 0 51 16t39 45t30.5 65.5t22.5 76.5q12 48 20.5 96.5t8.5 89.5q0 42 -17.5 66.5t-48.5 24.5
q-33 0 -60.5 -23.5t-48.5 -63.5t-35.5 -87.5t-22 -97t-7.5 -91.5q0 -63 19 -90t49 -27zM329 281q74 0 118 24t64 61t20 77q0 29 -12.5 45.5t-39.5 16.5q-33 0 -63.5 -30t-54 -80.5t-36.5 -113.5h4z" />
    <glyph glyph-name="ccedilla" unicode="&#xe7;" horiz-adv-x="279" 
d="M142 -10q-37 0 -62.5 16t-38 51t-12.5 91q0 47 8 100t25 104.5t42.5 93.5t60 67t77.5 25q19 0 36 -3.5t30 -9.5l-14 -33q-12 6 -25 9t-27 3q-42 0 -75 -33.5t-55.5 -87.5t-34 -115.5t-11.5 -116.5q0 -46 9 -74t27 -40.5t45 -12.5q17 0 34.5 4.5t33.5 12.5v-34
q-14 -7 -32.5 -12t-40.5 -5zM27 -240q-21 0 -34 2.5t-25 4.5v30q8 -3 22.5 -5.5t36.5 -2.5q25 0 44.5 9.5t30 26.5t10.5 36q0 29 -21 42.5t-60 17.5l56 79h30l-44 -62q33 -6 52.5 -24t19.5 -50q0 -29 -15 -53t-41.5 -37.5t-61.5 -13.5z" />
    <glyph glyph-name="egrave" unicode="&#xe8;" horiz-adv-x="337" 
d="M145 -10q-38 0 -64.5 17t-40.5 51t-14 86q0 81 17 152t45.5 125.5t66.5 85.5t80 31q39 0 62 -22t23 -71q0 -37 -14 -72t-43 -63t-75 -44.5t-109 -16.5h-7q-4 -22 -6 -47t-2 -52q0 -66 21.5 -96.5t67.5 -30.5q24 0 45 7.5t42 19.5v-36q-18 -11 -41.5 -17.5t-53.5 -6.5z
M82 281q74 0 118 24t64 61t20 77q0 29 -12.5 45.5t-39.5 16.5q-33 0 -63 -30t-54 -80.5t-37 -113.5h4zM245 606q-13 19 -28 45t-29.5 53.5t-23.5 51.5v7h37q10 -26 20 -51t21 -49.5t23 -48.5v-8h-20z" />
    <glyph glyph-name="eacute" unicode="&#xe9;" horiz-adv-x="337" 
d="M145 -10q-38 0 -64.5 17t-40.5 51t-14 86q0 81 17 152t45.5 125.5t66.5 85.5t80 31q39 0 62 -22t23 -71q0 -37 -14 -72t-43 -63t-75 -44.5t-109 -16.5h-7q-4 -22 -6 -47t-2 -52q0 -66 21.5 -96.5t67.5 -30.5q24 0 45 7.5t42 19.5v-36q-18 -11 -41.5 -17.5t-53.5 -6.5z
M82 281q74 0 118 24t64 61t20 77q0 29 -12.5 45.5t-39.5 16.5q-33 0 -63 -30t-54 -80.5t-37 -113.5h4zM196 611q24 25 47 52t41.5 53.5t29.5 46.5h43v-8q-10 -16 -27 -37t-37 -42.5t-40.5 -40.5t-37.5 -32h-19v8z" />
    <glyph glyph-name="ecircumflex" unicode="&#xea;" horiz-adv-x="337" 
d="M145 -10q-38 0 -64.5 17t-40.5 51t-14 86q0 81 17 152t45.5 125.5t66.5 85.5t80 31q39 0 62 -22t23 -71q0 -37 -14 -72t-43 -63t-75 -44.5t-109 -16.5h-7q-4 -22 -6 -47t-2 -52q0 -66 21.5 -96.5t67.5 -30.5q24 0 45 7.5t42 19.5v-36q-18 -11 -41.5 -17.5t-53.5 -6.5z
M82 281q74 0 118 24t64 61t20 77q0 29 -12.5 45.5t-39.5 16.5q-33 0 -63 -30t-54 -80.5t-37 -113.5h4zM145 614q20 21 41.5 46.5t41.5 53t34 52.5h31q4 -20 14 -49.5t21.5 -57.5t19.5 -45l-1 -8h-17q-9 15 -20.5 33.5t-21 39.5t-18.5 42q-22 -28 -50 -58.5t-59 -56.5h-17z
" />
    <glyph glyph-name="edieresis" unicode="&#xeb;" horiz-adv-x="337" 
d="M145 -10q-38 0 -64.5 17t-40.5 51t-14 86q0 81 17 152t45.5 125.5t66.5 85.5t80 31q39 0 62 -22t23 -71q0 -37 -14 -72t-43 -63t-75 -44.5t-109 -16.5h-7q-4 -22 -6 -47t-2 -52q0 -66 21.5 -96.5t67.5 -30.5q24 0 45 7.5t42 19.5v-36q-18 -11 -41.5 -17.5t-53.5 -6.5z
M82 281q74 0 118 24t64 61t20 77q0 29 -12.5 45.5t-39.5 16.5q-33 0 -63 -30t-54 -80.5t-37 -113.5h4zM316 644q-10 0 -15.5 6.5t-5.5 19.5q0 15 8 30.5t23 15.5q10 0 15.5 -6.5t5.5 -18.5q0 -16 -8 -31.5t-23 -15.5zM185 644q-9 0 -15 6.5t-6 19.5q0 15 8 30.5t24 15.5
q6 0 11 -2.5t7 -8t2 -14.5q0 -16 -8 -31.5t-23 -15.5z" />
    <glyph glyph-name="igrave" unicode="&#xec;" horiz-adv-x="163" 
d="M5 0l112 528h36l-113 -528h-35zM158 607q-13 19 -28 45t-29.5 53.5t-23.5 51.5v7h37q10 -26 20 -51t21 -49.5t23 -48.5v-8h-20z" />
    <glyph glyph-name="iacute" unicode="&#xed;" horiz-adv-x="163" 
d="M5 0l112 528h36l-113 -528h-35zM109 612q24 25 47 52t41.5 53.5t29.5 46.5h43v-8q-10 -16 -27 -37t-37 -42.5t-40.5 -40.5t-37.5 -32h-19v8z" />
    <glyph glyph-name="icircumflex" unicode="&#xee;" horiz-adv-x="163" 
d="M5 0l112 528h36l-113 -528h-35zM43 614q20 21 41.5 46.5t41.5 53t34 52.5h31q4 -20 14 -49.5t21.5 -57.5t19.5 -45l-1 -8h-17q-9 15 -20.5 33.5t-21 39.5t-18.5 42q-22 -28 -50 -58.5t-59 -56.5h-17z" />
    <glyph glyph-name="idieresis" unicode="&#xef;" horiz-adv-x="163" 
d="M5 0l112 528h36l-113 -528h-35zM211 644q-10 0 -15.5 6.5t-5.5 19.5q0 15 8 30.5t23 15.5q10 0 15.5 -6.5t5.5 -18.5q0 -16 -8 -31.5t-23 -15.5zM80 644q-9 0 -15 6.5t-6 19.5q0 15 8 30.5t24 15.5q6 0 11 -2.5t7 -8t2 -14.5q0 -16 -8 -31.5t-23 -15.5z" />
    <glyph glyph-name="eth" unicode="&#xf0;" horiz-adv-x="367" 
d="M121 -10q-36 0 -61 17.5t-38.5 51t-13.5 81.5q0 53 12.5 109.5t36.5 105t61 79t86 30.5q43 0 62.5 -28t24.5 -63h2q0 86 -17.5 158t-54.5 123l-118 -66l-13 26l115 63q-10 16 -34.5 34.5t-50.5 32.5l17 24q26 -12 50.5 -30.5t47.5 -43.5l115 64l14 -25l-112 -62
q24 -35 41 -79.5t25.5 -94.5t8.5 -103q0 -41 -6 -94t-19 -107.5t-36.5 -100.5t-59 -74t-85.5 -28zM124 24q33 0 59 20t44.5 52.5t30 71t17 75t5.5 64.5q0 27 -5.5 50t-15 39t-23.5 25t-33 9q-39 0 -69 -27t-49.5 -70.5t-30 -94t-10.5 -96.5q0 -61 21.5 -89.5t58.5 -28.5z
" />
    <glyph glyph-name="ntilde" unicode="&#xf1;" horiz-adv-x="368" 
d="M5 0l111 528h30l-13 -77h2q12 28 30 47t40.5 29.5t48.5 10.5q25 0 44 -9.5t29.5 -28t10.5 -47.5q0 -23 -6 -57t-12 -64l-71 -332h-36l71 338q6 28 11.5 57t5.5 53q0 28 -14.5 42t-40.5 14q-36 0 -63 -24.5t-46 -72.5t-35 -120l-61 -287h-36zM121 610q6 34 17 55.5
t28 32.5t40 11q20 0 34 -9.5t25.5 -22.5t23 -22.5t25.5 -9.5q19 0 31 15t18 49h30q-5 -33 -16 -55t-27.5 -32.5t-37.5 -10.5q-20 0 -34 10t-25.5 23t-23 22.5t-26.5 9.5q-23 0 -34.5 -17t-17.5 -49h-30z" />
    <glyph glyph-name="ograve" unicode="&#xf2;" horiz-adv-x="369" 
d="M135 -10q-32 0 -57 15.5t-38 49t-13 85.5q0 37 7 88t22 105.5t39.5 101t59.5 75t82 28.5q33 0 56 -16t35.5 -49.5t12.5 -85.5q0 -47 -7.5 -100.5t-24 -106t-40.5 -96t-57.5 -69t-76.5 -25.5zM138 24q33 0 60 24.5t47 65.5t33 89.5t19.5 97t6.5 86.5q0 39 -8 65.5
t-23.5 39.5t-39.5 13q-35 0 -62.5 -27t-47.5 -70t-33 -92.5t-19 -96t-6 -79.5q0 -58 19 -87t54 -29zM261 606q-13 19 -28 45t-29.5 53.5t-23.5 51.5v7h37q10 -26 20 -51t21 -49.5t23 -48.5v-8h-20z" />
    <glyph glyph-name="oacute" unicode="&#xf3;" horiz-adv-x="369" 
d="M135 -10q-32 0 -57 15.5t-38 49t-13 85.5q0 37 7 88t22 105.5t39.5 101t59.5 75t82 28.5q33 0 56 -16t35.5 -49.5t12.5 -85.5q0 -47 -7.5 -100.5t-24 -106t-40.5 -96t-57.5 -69t-76.5 -25.5zM138 24q33 0 60 24.5t47 65.5t33 89.5t19.5 97t6.5 86.5q0 39 -8 65.5
t-23.5 39.5t-39.5 13q-35 0 -62.5 -27t-47.5 -70t-33 -92.5t-19 -96t-6 -79.5q0 -58 19 -87t54 -29zM212 611q24 25 47 52t41.5 53.5t29.5 46.5h43v-8q-10 -16 -27 -37t-37 -42.5t-40.5 -40.5t-37.5 -32h-19v8z" />
    <glyph glyph-name="ocircumflex" unicode="&#xf4;" horiz-adv-x="369" 
d="M135 -10q-32 0 -57 15.5t-38 49t-13 85.5q0 37 7 88t22 105.5t39.5 101t59.5 75t82 28.5q33 0 56 -16t35.5 -49.5t12.5 -85.5q0 -47 -7.5 -100.5t-24 -106t-40.5 -96t-57.5 -69t-76.5 -25.5zM138 24q33 0 60 24.5t47 65.5t33 89.5t19.5 97t6.5 86.5q0 39 -8 65.5
t-23.5 39.5t-39.5 13q-35 0 -62.5 -27t-47.5 -70t-33 -92.5t-19 -96t-6 -79.5q0 -58 19 -87t54 -29zM146 614q20 21 41.5 46.5t41.5 53t34 52.5h31q4 -20 14 -49.5t21.5 -57.5t19.5 -45l-1 -8h-17q-9 15 -20.5 33.5t-21 39.5t-18.5 42q-22 -28 -50 -58.5t-59 -56.5h-17z" />
    <glyph glyph-name="otilde" unicode="&#xf5;" horiz-adv-x="369" 
d="M135 -10q-32 0 -57 15.5t-38 49t-13 85.5q0 37 7 88t22 105.5t39.5 101t59.5 75t82 28.5q33 0 56 -16t35.5 -49.5t12.5 -85.5q0 -47 -7.5 -100.5t-24 -106t-40.5 -96t-57.5 -69t-76.5 -25.5zM138 24q33 0 60 24.5t47 65.5t33 89.5t19.5 97t6.5 86.5q0 39 -8 65.5
t-23.5 39.5t-39.5 13q-35 0 -62.5 -27t-47.5 -70t-33 -92.5t-19 -96t-6 -79.5q0 -58 19 -87t54 -29zM116 610q6 34 17 55.5t28 32.5t40 11q20 0 34 -9.5t25.5 -22.5t23 -22.5t25.5 -9.5q19 0 31 15t18 49h30q-5 -33 -16 -55t-27.5 -32.5t-37.5 -10.5q-20 0 -34 10t-25.5 23
t-23 22.5t-26.5 9.5q-23 0 -34.5 -17t-17.5 -49h-30z" />
    <glyph glyph-name="odieresis" unicode="&#xf6;" horiz-adv-x="369" 
d="M135 -10q-32 0 -57 15.5t-38 49t-13 85.5q0 37 7 88t22 105.5t39.5 101t59.5 75t82 28.5q33 0 56 -16t35.5 -49.5t12.5 -85.5q0 -47 -7.5 -100.5t-24 -106t-40.5 -96t-57.5 -69t-76.5 -25.5zM138 24q33 0 60 24.5t47 65.5t33 89.5t19.5 97t6.5 86.5q0 39 -8 65.5
t-23.5 39.5t-39.5 13q-35 0 -62.5 -27t-47.5 -70t-33 -92.5t-19 -96t-6 -79.5q0 -58 19 -87t54 -29zM316 644q-10 0 -15.5 6.5t-5.5 19.5q0 15 8 30.5t23 15.5q10 0 15.5 -6.5t5.5 -18.5q0 -16 -8 -31.5t-23 -15.5zM185 644q-9 0 -15 6.5t-6 19.5q0 15 8 30.5t24 15.5
q6 0 11 -2.5t7 -8t2 -14.5q0 -16 -8 -31.5t-23 -15.5z" />
    <glyph glyph-name="divide" unicode="&#xf7;" horiz-adv-x="405" 
d="M31 336v33h346v-33h-346zM204 134q-17 0 -23.5 11.5t-6.5 28.5q0 20 7.5 31t22.5 11q17 0 23.5 -11.5t6.5 -28.5q0 -19 -6.5 -30.5t-23.5 -11.5zM204 489q-17 0 -23.5 11.5t-6.5 29.5t6.5 29.5t23.5 11.5t23.5 -11.5t6.5 -30.5q0 -18 -6.5 -29t-23.5 -11z" />
    <glyph glyph-name="oslash" unicode="&#xf8;" horiz-adv-x="372" 
d="M23 -62l-26 15l49 89q-9 18 -14 42.5t-5 55.5q0 36 7 87t22 105.5t39.5 101t59 75.5t82.5 29q21 0 38 -7t31 -21l41 76l26 -15l-49 -89q8 -17 12.5 -40.5t4.5 -54.5q0 -45 -7.5 -98t-23.5 -106t-40 -97t-58 -70t-77 -26q-20 0 -37.5 6.5t-31.5 19.5zM138 23q33 0 59.5 24
t46.5 64t33 88t20 95.5t7 86.5q0 17 -1 31.5t-5 26.5l-213 -389q9 -13 22.5 -20t30.5 -7zM286 476q-8 15 -21.5 22t-31.5 7q-35 0 -62 -26t-46.5 -68.5t-33 -91.5t-20 -95t-6.5 -80q0 -18 2 -33t5 -27z" />
    <glyph glyph-name="ugrave" unicode="&#xf9;" horiz-adv-x="369" 
d="M111 -10q-26 0 -45 9.5t-29.5 28.5t-10.5 48q0 22 6 55.5t12 62.5l71 334h37l-73 -340q-5 -28 -10.5 -55.5t-5.5 -51.5q0 -28 14.5 -42.5t40.5 -14.5q37 0 63.5 24.5t46.5 73t34 119.5l61 287h36l-111 -528h-29l12 76h-2q-12 -27 -30 -46.5t-40.5 -29.5t-47.5 -10z
M260 606q-13 19 -28 45t-29.5 53.5t-23.5 51.5v7h37q10 -26 20 -51t21 -49.5t23 -48.5v-8h-20z" />
    <glyph glyph-name="uacute" unicode="&#xfa;" horiz-adv-x="369" 
d="M111 -10q-26 0 -45 9.5t-29.5 28.5t-10.5 48q0 22 6 55.5t12 62.5l71 334h37l-73 -340q-5 -28 -10.5 -55.5t-5.5 -51.5q0 -28 14.5 -42.5t40.5 -14.5q37 0 63.5 24.5t46.5 73t34 119.5l61 287h36l-111 -528h-29l12 76h-2q-12 -27 -30 -46.5t-40.5 -29.5t-47.5 -10z
M212 611q24 25 47 52t41.5 53.5t29.5 46.5h43v-8q-10 -16 -27 -37t-37 -42.5t-40.5 -40.5t-37.5 -32h-19v8z" />
    <glyph glyph-name="ucircumflex" unicode="&#xfb;" horiz-adv-x="369" 
d="M111 -10q-26 0 -45 9.5t-29.5 28.5t-10.5 48q0 22 6 55.5t12 62.5l71 334h37l-73 -340q-5 -28 -10.5 -55.5t-5.5 -51.5q0 -28 14.5 -42.5t40.5 -14.5q37 0 63.5 24.5t46.5 73t34 119.5l61 287h36l-111 -528h-29l12 76h-2q-12 -27 -30 -46.5t-40.5 -29.5t-47.5 -10z
M149 614q20 21 41.5 46.5t41.5 53t34 52.5h31q4 -20 14 -49.5t21.5 -57.5t19.5 -45l-1 -8h-17q-9 15 -20.5 33.5t-21 39.5t-18.5 42q-22 -28 -50 -58.5t-59 -56.5h-17z" />
    <glyph glyph-name="udieresis" unicode="&#xfc;" horiz-adv-x="369" 
d="M111 -10q-26 0 -45 9.5t-29.5 28.5t-10.5 48q0 22 6 55.5t12 62.5l71 334h37l-73 -340q-5 -28 -10.5 -55.5t-5.5 -51.5q0 -28 14.5 -42.5t40.5 -14.5q37 0 63.5 24.5t46.5 73t34 119.5l61 287h36l-111 -528h-29l12 76h-2q-12 -27 -30 -46.5t-40.5 -29.5t-47.5 -10z
M310 644q-10 0 -15.5 6.5t-5.5 19.5q0 15 8 30.5t23 15.5q10 0 15.5 -6.5t5.5 -18.5q0 -16 -8 -31.5t-23 -15.5zM179 644q-9 0 -15 6.5t-6 19.5q0 15 8 30.5t24 15.5q6 0 11 -2.5t7 -8t2 -14.5q0 -16 -8 -31.5t-23 -15.5z" />
    <glyph glyph-name="yacute" unicode="&#xfd;" horiz-adv-x="303" 
d="M-66 -243q-16 0 -27.5 3t-17.5 7l7 34q8 -4 17 -6.5t22 -2.5q31 0 52.5 22.5t44.5 74.5l53 122l-7 517h36l3 -367q0 -13 -0.5 -28.5t-0.5 -32t-1 -31.5h2q6 16 13 33t13.5 32t11.5 27l161 367h38l-288 -649q-18 -42 -37 -69t-41.5 -40t-53.5 -13zM179 611q24 25 47 52
t41.5 53.5t29.5 46.5h43v-8q-10 -16 -27 -37t-37 -42.5t-40.5 -40.5t-37.5 -32h-19v8z" />
    <glyph glyph-name="thorn" unicode="&#xfe;" horiz-adv-x="383" 
d="M-42 -229l208 989h36l-57 -270q-4 -17 -7 -28t-5 -20h3q16 29 34 50.5t40 33.5t49 12q47 0 72.5 -38t25.5 -110q0 -47 -8.5 -101t-25.5 -107t-42 -96.5t-59 -69.5t-76 -26q-25 0 -43.5 11t-29 29.5t-15.5 42.5h-2q-3 -21 -8.5 -47.5t-10.5 -51.5l-43 -203h-36zM145 24
q34 0 61.5 24.5t49 65t35.5 89t21 97t7 87.5q0 63 -18.5 90.5t-49.5 27.5q-35 0 -62.5 -28.5t-47 -73.5t-33.5 -94q-10 -39 -17 -77t-10 -68t-3 -48q0 -42 17.5 -67t49.5 -25z" />
    <glyph glyph-name="ydieresis" unicode="&#xff;" horiz-adv-x="303" 
d="M-66 -243q-16 0 -27.5 3t-17.5 7l7 34q8 -4 17 -6.5t22 -2.5q31 0 52.5 22.5t44.5 74.5l53 122l-7 517h36l3 -367q0 -13 -0.5 -28.5t-0.5 -32t-1 -31.5h2q6 16 13 33t13.5 32t11.5 27l161 367h38l-288 -649q-18 -42 -37 -69t-41.5 -40t-53.5 -13zM258 644
q-10 0 -15.5 6.5t-5.5 19.5q0 15 8 30.5t23 15.5q10 0 15.5 -6.5t5.5 -18.5q0 -16 -8 -31.5t-23 -15.5zM127 644q-9 0 -15 6.5t-6 19.5q0 15 8 30.5t24 15.5q6 0 11 -2.5t7 -8t2 -14.5q0 -16 -8 -31.5t-23 -15.5z" />
    <glyph glyph-name="Amacron" unicode="&#x100;" horiz-adv-x="342" 
d="M-67 0l295 717h47l-1 -717h-38l1 272h-152l-112 -272h-40zM97 307h140l3 288q0 21 0.5 40.5t1.5 33.5h-2q-4 -13 -11 -32t-17 -43zM144 795l6 32h220l-8 -32h-218z" />
    <glyph glyph-name="amacron" unicode="&#x101;" horiz-adv-x="388" 
d="M127 -10q-32 0 -54 17t-33.5 50t-11.5 81q0 47 8.5 101t25.5 107t42 96t59 69.5t76 26.5q27 0 45 -11.5t28.5 -31.5t14.5 -46h3l19 79h31l-112 -528h-29l14 87h-2q-17 -30 -35 -52t-39.5 -33.5t-49.5 -11.5zM134 24q39 0 66 29.5t46.5 75.5t32.5 98q12 49 20.5 97t8.5 88
q0 42 -18 67t-50 25q-33 0 -60.5 -24t-49 -64t-35.5 -88t-21.5 -97t-7.5 -90q0 -62 19 -89.5t49 -27.5zM150 612l6 32h220l-8 -32h-218z" />
    <glyph glyph-name="Abreve" unicode="&#x102;" horiz-adv-x="342" 
d="M-67 0l295 717h47l-1 -717h-38l1 272h-152l-112 -272h-40zM97 307h140l3 288q0 21 0.5 40.5t1.5 33.5h-2q-4 -13 -11 -32t-17 -43zM262 791q-35 0 -55 12t-28.5 32.5t-8.5 45.5q0 6 0.5 10.5t0.5 7.5h26q0 -24 5.5 -41.5t20 -26.5t40.5 -9q39 0 58 17.5t27 59.5h27
q-8 -53 -34 -80.5t-79 -27.5z" />
    <glyph glyph-name="abreve" unicode="&#x103;" horiz-adv-x="388" 
d="M127 -10q-32 0 -54 17t-33.5 50t-11.5 81q0 47 8.5 101t25.5 107t42 96t59 69.5t76 26.5q27 0 45 -11.5t28.5 -31.5t14.5 -46h3l19 79h31l-112 -528h-29l14 87h-2q-17 -30 -35 -52t-39.5 -33.5t-49.5 -11.5zM134 24q39 0 66 29.5t46.5 75.5t32.5 98q12 49 20.5 97t8.5 88
q0 42 -18 67t-50 25q-33 0 -60.5 -24t-49 -64t-35.5 -88t-21.5 -97t-7.5 -90q0 -62 19 -89.5t49 -27.5zM269 608q-35 0 -55 12t-28.5 32.5t-8.5 45.5q0 6 0.5 10.5t0.5 7.5h26q0 -24 5.5 -41.5t20 -26.5t40.5 -9q39 0 58 17.5t27 59.5h27q-8 -53 -34 -80.5t-79 -27.5z" />
    <glyph glyph-name="Aogonek" unicode="&#x104;" horiz-adv-x="342" 
d="M-67 0l295 717h47l-1 -717h-38l1 272h-152l-112 -272h-40zM97 307h140l3 288q0 21 0.5 40.5t1.5 33.5h-2q-4 -13 -11 -32t-17 -43zM204 -217q-34 0 -52 19t-18 48q0 25 9 48t31.5 48t61.5 54h32q-37 -30 -58.5 -54t-30.5 -45.5t-9 -43.5q0 -21 10.5 -31.5t32.5 -10.5
q9 0 18.5 2t18.5 4l-6 -30q-8 -3 -17.5 -5.5t-22.5 -2.5z" />
    <glyph glyph-name="aogonek" unicode="&#x105;" horiz-adv-x="388" 
d="M127 -10q-32 0 -54 17t-33.5 50t-11.5 81q0 47 8.5 101t25.5 107t42 96t59 69.5t76 26.5q27 0 45 -11.5t28.5 -31.5t14.5 -46h3l19 79h31l-112 -528h-29l14 87h-2q-17 -30 -35 -52t-39.5 -33.5t-49.5 -11.5zM134 24q39 0 66 29.5t46.5 75.5t32.5 98q12 49 20.5 97t8.5 88
q0 42 -18 67t-50 25q-33 0 -60.5 -24t-49 -64t-35.5 -88t-21.5 -97t-7.5 -90q0 -62 19 -89.5t49 -27.5zM204 -217q-34 0 -52 19t-18 48q0 25 9 48t31.5 48t61.5 54h32q-37 -30 -58.5 -54t-30.5 -45.5t-9 -43.5q0 -21 10.5 -31.5t32.5 -10.5q9 0 18.5 2t18.5 4l-6 -30
q-8 -3 -17.5 -5.5t-22.5 -2.5z" />
    <glyph glyph-name="Cacute" unicode="&#x106;" horiz-adv-x="347" 
d="M186 -10q-49 0 -82.5 24.5t-50 76t-16.5 132.5q0 54 11 120.5t34 133.5t58.5 123t84 90.5t111.5 34.5q30 0 51.5 -7.5t37.5 -19.5l-21 -31q-12 12 -29.5 17.5t-40.5 5.5q-52 0 -93.5 -32t-72.5 -84t-52 -114.5t-31 -124t-10 -110.5q0 -106 28.5 -153t87.5 -47
q17 0 36 4.5t41 12.5v-36q-21 -8 -41.5 -12t-40.5 -4zM243 798q24 25 47 52t41.5 53.5t29.5 46.5h43v-8q-10 -16 -27 -37t-37 -42.5t-40.5 -40.5t-37.5 -32h-19v8z" />
    <glyph glyph-name="cacute" unicode="&#x107;" horiz-adv-x="279" 
d="M142 -10q-37 0 -62.5 16t-38 51t-12.5 91q0 47 8 100t25 104.5t42.5 93.5t60 67t77.5 25q19 0 36 -3.5t30 -9.5l-14 -33q-12 6 -25 9t-27 3q-42 0 -75 -33.5t-55.5 -87.5t-34 -115.5t-11.5 -116.5q0 -46 9 -74t27 -40.5t45 -12.5q17 0 34.5 4.5t33.5 12.5v-34
q-14 -7 -32.5 -12t-40.5 -5zM167 612q24 25 47 52t41.5 53.5t29.5 46.5h43v-8q-10 -16 -27 -37t-37 -42.5t-40.5 -40.5t-37.5 -32h-19v8z" />
    <glyph glyph-name="Ccircumflex" unicode="&#x108;" horiz-adv-x="347" 
d="M186 -10q-49 0 -82.5 24.5t-50 76t-16.5 132.5q0 54 11 120.5t34 133.5t58.5 123t84 90.5t111.5 34.5q30 0 51.5 -7.5t37.5 -19.5l-21 -31q-12 12 -29.5 17.5t-40.5 5.5q-52 0 -93.5 -32t-72.5 -84t-52 -114.5t-31 -124t-10 -110.5q0 -106 28.5 -153t87.5 -47
q17 0 36 4.5t41 12.5v-36q-21 -8 -41.5 -12t-40.5 -4zM218 779q20 21 41.5 46.5t41.5 53t34 52.5h31q4 -20 14 -49.5t21.5 -57.5t19.5 -45l-1 -8h-17q-9 15 -20.5 33.5t-21 39.5t-18.5 42q-22 -28 -50 -58.5t-59 -56.5h-17z" />
    <glyph glyph-name="ccircumflex" unicode="&#x109;" horiz-adv-x="279" 
d="M142 -10q-37 0 -62.5 16t-38 51t-12.5 91q0 47 8 100t25 104.5t42.5 93.5t60 67t77.5 25q19 0 36 -3.5t30 -9.5l-14 -33q-12 6 -25 9t-27 3q-42 0 -75 -33.5t-55.5 -87.5t-34 -115.5t-11.5 -116.5q0 -46 9 -74t27 -40.5t45 -12.5q17 0 34.5 4.5t33.5 12.5v-34
q-14 -7 -32.5 -12t-40.5 -5zM126 614q20 21 41.5 46.5t41.5 53t34 52.5h31q4 -20 14 -49.5t21.5 -57.5t19.5 -45l-1 -8h-17q-9 15 -20.5 33.5t-21 39.5t-18.5 42q-22 -28 -50 -58.5t-59 -56.5h-17z" />
    <glyph glyph-name="Cdotaccent" unicode="&#x10a;" horiz-adv-x="347" 
d="M186 -10q-49 0 -82.5 24.5t-50 76t-16.5 132.5q0 54 11 120.5t34 133.5t58.5 123t84 90.5t111.5 34.5q30 0 51.5 -7.5t37.5 -19.5l-21 -31q-12 12 -29.5 17.5t-40.5 5.5q-52 0 -93.5 -32t-72.5 -84t-52 -114.5t-31 -124t-10 -110.5q0 -106 28.5 -153t87.5 -47
q17 0 36 4.5t41 12.5v-36q-21 -8 -41.5 -12t-40.5 -4zM367 811q-10 0 -16 7t-6 20q0 17 8.5 33.5t25.5 16.5q8 0 13 -3t7.5 -9t2.5 -16q0 -16 -8.5 -32.5t-26.5 -16.5z" />
    <glyph glyph-name="cdotaccent" unicode="&#x10b;" horiz-adv-x="279" 
d="M142 -10q-37 0 -62.5 16t-38 51t-12.5 91q0 47 8 100t25 104.5t42.5 93.5t60 67t77.5 25q19 0 36 -3.5t30 -9.5l-14 -33q-12 6 -25 9t-27 3q-42 0 -75 -33.5t-55.5 -87.5t-34 -115.5t-11.5 -116.5q0 -46 9 -74t27 -40.5t45 -12.5q17 0 34.5 4.5t33.5 12.5v-34
q-14 -7 -32.5 -12t-40.5 -5zM273 640q-10 0 -16 7t-6 20q0 17 8.5 33.5t25.5 16.5q8 0 13 -3t7.5 -9t2.5 -16q0 -16 -8.5 -32.5t-26.5 -16.5z" />
    <glyph glyph-name="Ccaron" unicode="&#x10c;" horiz-adv-x="347" 
d="M186 -10q-49 0 -82.5 24.5t-50 76t-16.5 132.5q0 54 11 120.5t34 133.5t58.5 123t84 90.5t111.5 34.5q30 0 51.5 -7.5t37.5 -19.5l-21 -31q-12 12 -29.5 17.5t-40.5 5.5q-52 0 -93.5 -32t-72.5 -84t-52 -114.5t-31 -124t-10 -110.5q0 -106 28.5 -153t87.5 -47
q17 0 36 4.5t41 12.5v-36q-21 -8 -41.5 -12t-40.5 -4zM327 771q-4 20 -14 49.5t-21 58t-20 44.5l1 8h17q9 -14 20 -32.5t21.5 -40t18.5 -42.5q22 29 50 59t59 56h18l-2 -8q-17 -19 -39.5 -45.5t-43 -54t-34.5 -52.5h-31z" />
    <glyph glyph-name="ccaron" unicode="&#x10d;" horiz-adv-x="279" 
d="M142 -10q-37 0 -62.5 16t-38 51t-12.5 91q0 47 8 100t25 104.5t42.5 93.5t60 67t77.5 25q19 0 36 -3.5t30 -9.5l-14 -33q-12 6 -25 9t-27 3q-42 0 -75 -33.5t-55.5 -87.5t-34 -115.5t-11.5 -116.5q0 -46 9 -74t27 -40.5t45 -12.5q17 0 34.5 4.5t33.5 12.5v-34
q-14 -7 -32.5 -12t-40.5 -5zM230 606q-4 20 -14 49.5t-21 58t-20 44.5l1 8h17q9 -14 20 -32.5t21.5 -40t18.5 -42.5q22 29 50 59t59 56h18l-2 -8q-17 -19 -39.5 -45.5t-43 -54t-34.5 -52.5h-31z" />
    <glyph glyph-name="Dcaron" unicode="&#x10e;" horiz-adv-x="422" 
d="M2 0l151 714h84q80 0 123.5 -48.5t43.5 -157.5q0 -59 -10.5 -127.5t-32.5 -136t-58.5 -122.5t-88.5 -88.5t-122 -33.5h-90zM93 35q60 0 105 31t76.5 81.5t51.5 113.5t29 126.5t9 119.5q0 96 -33.5 134t-99.5 38h-47l-138 -644h47zM264 771q-4 20 -14 49.5t-21 58
t-20 44.5l1 8h17q9 -14 20 -32.5t21.5 -40t18.5 -42.5q22 29 50 59t59 56h18l-2 -8q-17 -19 -39.5 -45.5t-43 -54t-34.5 -52.5h-31z" />
    <glyph glyph-name="dcaron" unicode="&#x10f;" horiz-adv-x="398" 
d="M425 607q13 25 25 51.5t22.5 53t15.5 48.5h37l-1 -10q-6 -18 -19 -46t-29 -55.5t-31 -48.5h-20v7zM126 -10q-31 0 -53 17t-33.5 50t-11.5 81q0 47 8.5 101t25.5 106.5t42 96t58.5 70t76.5 26.5q25 0 43 -10.5t29 -29.5t15 -43h3q3 17 6.5 34.5t6.5 35.5t7 35l43 200h36
l-160 -760h-30l14 89h-2q-15 -30 -33.5 -52.5t-40.5 -34.5t-50 -12zM134 24q32 0 57 22.5t44.5 60.5t33 82.5t22 89t12.5 80t4 54.5q0 42 -17.5 66.5t-49.5 24.5q-33 0 -61 -24t-49 -64.5t-35.5 -88.5t-21.5 -97t-7 -89q0 -63 19 -90t49 -27z" />
    <glyph glyph-name="Dcroat" unicode="&#x110;" horiz-adv-x="427" 
d="M24 353l7 33h186l-6 -33h-187zM2 0l151 714h84q80 0 123.5 -48.5t43.5 -157.5q0 -59 -10.5 -127.5t-32.5 -136t-58.5 -122.5t-88.5 -88.5t-122 -33.5h-90zM93 35q60 0 105 31t76.5 81.5t51.5 113.5t29 126.5t9 119.5q0 96 -33.5 134t-99.5 38h-47l-138 -644h47z" />
    <glyph glyph-name="dcroat" unicode="&#x111;" horiz-adv-x="388" 
d="M126 -10q-31 0 -53 17t-33.5 50t-11.5 81q0 47 8.5 101t25.5 106.5t42 96t58.5 70t76.5 26.5q25 0 43 -10.5t29 -29.5t15 -43h3q3 16 6.5 33.5t6.5 35.5t7 35l16 72h-105l7 32h104l21 97h36l-20 -97h61l-7 -32h-61l-133 -631h-30l14 89h-2q-15 -30 -33.5 -52.5
t-40.5 -34.5t-50 -12zM134 24q32 0 57 22.5t44.5 60.5t33 82.5t22 89t12.5 80t4 54.5q0 42 -17.5 66.5t-49.5 24.5q-33 0 -61 -24t-49 -64.5t-35.5 -88.5t-21.5 -97t-7 -89q0 -63 19 -90t49 -27z" />
    <glyph glyph-name="Emacron" unicode="&#x112;" horiz-adv-x="344" 
d="M2 0l151 714h232l-7 -35h-195l-61 -287h183l-9 -34h-182l-68 -323h195l-7 -35h-232zM167 777l6 32h220l-8 -32h-218z" />
    <glyph glyph-name="emacron" unicode="&#x113;" horiz-adv-x="337" 
d="M145 -10q-38 0 -64.5 17t-40.5 51t-14 86q0 81 17 152t45.5 125.5t66.5 85.5t80 31q39 0 62 -22t23 -71q0 -37 -14 -72t-43 -63t-75 -44.5t-109 -16.5h-7q-4 -22 -6 -47t-2 -52q0 -66 21.5 -96.5t67.5 -30.5q24 0 45 7.5t42 19.5v-36q-18 -11 -41.5 -17.5t-53.5 -6.5z
M82 281q74 0 118 24t64 61t20 77q0 29 -12.5 45.5t-39.5 16.5q-33 0 -63 -30t-54 -80.5t-37 -113.5h4zM144 612l6 32h220l-8 -32h-218z" />
    <glyph glyph-name="Ebreve" unicode="&#x114;" horiz-adv-x="344" 
d="M2 0l151 714h232l-7 -35h-195l-61 -287h183l-9 -34h-182l-68 -323h195l-7 -35h-232zM279 773q-35 0 -55 12t-28.5 32.5t-8.5 45.5q0 6 0.5 10.5t0.5 7.5h26q0 -24 5.5 -41.5t20 -26.5t40.5 -9q39 0 58 17.5t27 59.5h27q-8 -53 -34 -80.5t-79 -27.5z" />
    <glyph glyph-name="ebreve" unicode="&#x115;" horiz-adv-x="337" 
d="M145 -10q-38 0 -64.5 17t-40.5 51t-14 86q0 81 17 152t45.5 125.5t66.5 85.5t80 31q39 0 62 -22t23 -71q0 -37 -14 -72t-43 -63t-75 -44.5t-109 -16.5h-7q-4 -22 -6 -47t-2 -52q0 -66 21.5 -96.5t67.5 -30.5q24 0 45 7.5t42 19.5v-36q-18 -11 -41.5 -17.5t-53.5 -6.5z
M82 281q74 0 118 24t64 61t20 77q0 29 -12.5 45.5t-39.5 16.5q-33 0 -63 -30t-54 -80.5t-37 -113.5h4zM268 608q-35 0 -55 12t-28.5 32.5t-8.5 45.5q0 6 0.5 10.5t0.5 7.5h26q0 -24 5.5 -41.5t20 -26.5t40.5 -9q39 0 58 17.5t27 59.5h27q-8 -53 -34 -80.5t-79 -27.5z" />
    <glyph glyph-name="Edotaccent" unicode="&#x116;" horiz-adv-x="344" 
d="M2 0l151 714h232l-7 -35h-195l-61 -287h183l-9 -34h-182l-68 -323h195l-7 -35h-232zM307 791q-10 0 -16 7t-6 20q0 17 8.5 33.5t25.5 16.5q8 0 13 -3t7.5 -9t2.5 -16q0 -16 -8.5 -32.5t-26.5 -16.5z" />
    <glyph glyph-name="edotaccent" unicode="&#x117;" horiz-adv-x="337" 
d="M145 -10q-38 0 -64.5 17t-40.5 51t-14 86q0 81 17 152t45.5 125.5t66.5 85.5t80 31q39 0 62 -22t23 -71q0 -37 -14 -72t-43 -63t-75 -44.5t-109 -16.5h-7q-4 -22 -6 -47t-2 -52q0 -66 21.5 -96.5t67.5 -30.5q24 0 45 7.5t42 19.5v-36q-18 -11 -41.5 -17.5t-53.5 -6.5z
M82 281q74 0 118 24t64 61t20 77q0 29 -12.5 45.5t-39.5 16.5q-33 0 -63 -30t-54 -80.5t-37 -113.5h4zM293 640q-10 0 -16 7t-6 20q0 17 8.5 33.5t25.5 16.5q8 0 13 -3t7.5 -9t2.5 -16q0 -16 -8.5 -32.5t-26.5 -16.5z" />
    <glyph glyph-name="Eogonek" unicode="&#x118;" horiz-adv-x="344" 
d="M2 0l151 714h232l-7 -35h-195l-61 -287h183l-9 -34h-182l-68 -323h195l-7 -35h-232zM128 -217q-34 0 -52 19t-18 48q0 25 9 48t31.5 48t61.5 54h32q-37 -30 -58.5 -54t-30.5 -45.5t-9 -43.5q0 -21 10.5 -31.5t32.5 -10.5q9 0 18.5 2t18.5 4l-6 -30q-8 -3 -17.5 -5.5
t-22.5 -2.5z" />
    <glyph glyph-name="eogonek" unicode="&#x119;" horiz-adv-x="337" 
d="M176 -198q-30 0 -45 19.5t-15 48.5q0 25 8 48t29 47.5t58 52.5l26 -2q-26 -24 -44 -47.5t-27.5 -47t-9.5 -46.5q0 -21 9.5 -31t27.5 -10q8 0 16 1.5t16 2.5l-7 -28q-8 -4 -18.5 -6t-23.5 -2zM145 -10q-38 0 -64.5 17t-40.5 51t-14 86q0 81 17 152t45.5 125.5t66.5 85.5
t80 31q39 0 62 -22t23 -71q0 -37 -14 -72t-43 -63t-75 -44.5t-109 -16.5h-7q-4 -22 -6 -47t-2 -52q0 -66 21.5 -96.5t67.5 -30.5q24 0 45 7.5t42 19.5v-36q-18 -11 -41.5 -17.5t-53.5 -6.5zM82 281q74 0 118 24t64 61t20 77q0 29 -12.5 45.5t-39.5 16.5q-33 0 -63 -30
t-54 -80.5t-37 -113.5h4z" />
    <glyph glyph-name="Ecaron" unicode="&#x11a;" horiz-adv-x="344" 
d="M2 0l151 714h232l-7 -35h-195l-61 -287h183l-9 -34h-182l-68 -323h195l-7 -35h-232zM258 771q-4 20 -14 49.5t-21 58t-20 44.5l1 8h17q9 -14 20 -32.5t21.5 -40t18.5 -42.5q22 29 50 59t59 56h18l-2 -8q-17 -19 -39.5 -45.5t-43 -54t-34.5 -52.5h-31z" />
    <glyph glyph-name="ecaron" unicode="&#x11b;" horiz-adv-x="337" 
d="M145 -10q-38 0 -64.5 17t-40.5 51t-14 86q0 81 17 152t45.5 125.5t66.5 85.5t80 31q39 0 62 -22t23 -71q0 -37 -14 -72t-43 -63t-75 -44.5t-109 -16.5h-7q-4 -22 -6 -47t-2 -52q0 -66 21.5 -96.5t67.5 -30.5q24 0 45 7.5t42 19.5v-36q-18 -11 -41.5 -17.5t-53.5 -6.5z
M82 281q74 0 118 24t64 61t20 77q0 29 -12.5 45.5t-39.5 16.5q-33 0 -63 -30t-54 -80.5t-37 -113.5h4zM236 606q-4 20 -14 49.5t-21 58t-20 44.5l1 8h17q9 -14 20 -32.5t21.5 -40t18.5 -42.5q22 29 50 59t59 56h18l-2 -8q-17 -19 -39.5 -45.5t-43 -54t-34.5 -52.5h-31z" />
    <glyph glyph-name="Gcircumflex" unicode="&#x11c;" horiz-adv-x="460" 
d="M216 -10q-89 0 -134.5 56t-45.5 169q0 77 13.5 151.5t40 139.5t65 114t88 77t109.5 28q44 0 75.5 -12.5t54.5 -30.5l-21 -30q-23 18 -49.5 28t-60.5 10q-66 0 -117.5 -41t-87 -109.5t-54 -152t-18.5 -168.5q0 -68 16.5 -111t49.5 -63t80 -20q26 0 49 4t44 12l59 282h-96
l7 34h134l-73 -343q-28 -11 -59.5 -17.5t-68.5 -6.5zM243 779q20 21 41.5 46.5t41.5 53t34 52.5h31q4 -20 14 -49.5t21.5 -57.5t19.5 -45l-1 -8h-17q-9 15 -20.5 33.5t-21 39.5t-18.5 42q-22 -28 -50 -58.5t-59 -56.5h-17z" />
    <glyph glyph-name="gcircumflex" unicode="&#x11d;" horiz-adv-x="386" 
d="M78 -240q-30 0 -56 8.5t-41 16.5v39q10 -7 25.5 -14t34 -11.5t38.5 -4.5q64 0 95 41t50 125l12 59q2 10 7 29t9 38h-2q-16 -30 -34.5 -51.5t-40 -33t-49.5 -11.5q-31 0 -53 17t-33.5 50t-11.5 81q0 46 8.5 100t25.5 107t42 96.5t59 70t77 26.5q27 0 45 -12t28 -31.5
t14 -45.5h3l19 79h30l-121 -574q-14 -62 -35.5 -105.5t-56.5 -66t-88 -22.5zM134 24q31 0 56 23t44.5 61t33 83t22.5 88.5t13 79.5t4 55q0 41 -17.5 65.5t-49.5 24.5q-33 0 -61 -24t-49 -64.5t-35.5 -88.5t-21.5 -97t-7 -89q0 -62 18 -89.5t50 -27.5zM129 614
q20 21 41.5 46.5t41.5 53t34 52.5h31q4 -20 14 -49.5t21.5 -57.5t19.5 -45l-1 -8h-17q-9 15 -20.5 33.5t-21 39.5t-18.5 42q-22 -28 -50 -58.5t-59 -56.5h-17z" />
    <glyph glyph-name="Gbreve" unicode="&#x11e;" horiz-adv-x="460" 
d="M216 -10q-89 0 -134.5 56t-45.5 169q0 77 13.5 151.5t40 139.5t65 114t88 77t109.5 28q44 0 75.5 -12.5t54.5 -30.5l-21 -30q-23 18 -49.5 28t-60.5 10q-66 0 -117.5 -41t-87 -109.5t-54 -152t-18.5 -168.5q0 -68 16.5 -111t49.5 -63t80 -20q26 0 49 4t44 12l59 282h-96
l7 34h134l-73 -343q-28 -11 -59.5 -17.5t-68.5 -6.5zM355 773q-35 0 -55 12t-28.5 32.5t-8.5 45.5q0 6 0.5 10.5t0.5 7.5h26q0 -24 5.5 -41.5t20 -26.5t40.5 -9q39 0 58 17.5t27 59.5h27q-8 -53 -34 -80.5t-79 -27.5z" />
    <glyph glyph-name="gbreve" unicode="&#x11f;" horiz-adv-x="386" 
d="M78 -240q-30 0 -56 8.5t-41 16.5v39q10 -7 25.5 -14t34 -11.5t38.5 -4.5q64 0 95 41t50 125l12 59q2 10 7 29t9 38h-2q-16 -30 -34.5 -51.5t-40 -33t-49.5 -11.5q-31 0 -53 17t-33.5 50t-11.5 81q0 46 8.5 100t25.5 107t42 96.5t59 70t77 26.5q27 0 45 -12t28 -31.5
t14 -45.5h3l19 79h30l-121 -574q-14 -62 -35.5 -105.5t-56.5 -66t-88 -22.5zM134 24q31 0 56 23t44.5 61t33 83t22.5 88.5t13 79.5t4 55q0 41 -17.5 65.5t-49.5 24.5q-33 0 -61 -24t-49 -64.5t-35.5 -88.5t-21.5 -97t-7 -89q0 -62 18 -89.5t50 -27.5zM238 608q-35 0 -55 12
t-28.5 32.5t-8.5 45.5q0 6 0.5 10.5t0.5 7.5h26q0 -24 5.5 -41.5t20 -26.5t40.5 -9q39 0 58 17.5t27 59.5h27q-8 -53 -34 -80.5t-79 -27.5z" />
    <glyph glyph-name="Gdotaccent" unicode="&#x120;" horiz-adv-x="460" 
d="M216 -10q-89 0 -134.5 56t-45.5 169q0 77 13.5 151.5t40 139.5t65 114t88 77t109.5 28q44 0 75.5 -12.5t54.5 -30.5l-21 -30q-23 18 -49.5 28t-60.5 10q-66 0 -117.5 -41t-87 -109.5t-54 -152t-18.5 -168.5q0 -68 16.5 -111t49.5 -63t80 -20q26 0 49 4t44 12l59 282h-96
l7 34h134l-73 -343q-28 -11 -59.5 -17.5t-68.5 -6.5zM386 805q-10 0 -16 7t-6 20q0 17 8.5 33.5t25.5 16.5q8 0 13 -3t7.5 -9t2.5 -16q0 -16 -8.5 -32.5t-26.5 -16.5z" />
    <glyph glyph-name="gdotaccent" unicode="&#x121;" horiz-adv-x="386" 
d="M78 -240q-30 0 -56 8.5t-41 16.5v39q10 -7 25.5 -14t34 -11.5t38.5 -4.5q64 0 95 41t50 125l12 59q2 10 7 29t9 38h-2q-16 -30 -34.5 -51.5t-40 -33t-49.5 -11.5q-31 0 -53 17t-33.5 50t-11.5 81q0 46 8.5 100t25.5 107t42 96.5t59 70t77 26.5q27 0 45 -12t28 -31.5
t14 -45.5h3l19 79h30l-121 -574q-14 -62 -35.5 -105.5t-56.5 -66t-88 -22.5zM134 24q31 0 56 23t44.5 61t33 83t22.5 88.5t13 79.5t4 55q0 41 -17.5 65.5t-49.5 24.5q-33 0 -61 -24t-49 -64.5t-35.5 -88.5t-21.5 -97t-7 -89q0 -62 18 -89.5t50 -27.5zM264 640q-10 0 -16 7
t-6 20q0 17 8.5 33.5t25.5 16.5q8 0 13 -3t7.5 -9t2.5 -16q0 -16 -8.5 -32.5t-26.5 -16.5z" />
    <glyph glyph-name="uni0122" unicode="&#x122;" horiz-adv-x="460" 
d="M216 -10q-89 0 -134.5 56t-45.5 169q0 77 13.5 151.5t40 139.5t65 114t88 77t109.5 28q44 0 75.5 -12.5t54.5 -30.5l-21 -30q-23 18 -49.5 28t-60.5 10q-66 0 -117.5 -41t-87 -109.5t-54 -152t-18.5 -168.5q0 -68 16.5 -111t49.5 -63t80 -20q26 0 49 4t44 12l59 282h-96
l7 34h134l-73 -343q-28 -11 -59.5 -17.5t-68.5 -6.5zM84 -206q14 14 30.5 40t32 54.5t22.5 50.5h36v-11q-8 -21 -26 -49t-38.5 -55t-38.5 -45h-18v15z" />
    <glyph glyph-name="uni0123" unicode="&#x123;" horiz-adv-x="386" 
d="M221 617q9 21 26.5 49t38 55.5t38.5 44.5h18v-14q-13 -13 -30 -39.5t-32 -55.5t-23 -51h-36v11zM78 -240q-30 0 -56 8.5t-41 16.5v39q10 -7 25.5 -14t34 -11.5t38.5 -4.5q64 0 95 41t50 125l12 59q2 10 7 29t9 38h-2q-16 -30 -34.5 -51.5t-40 -33t-49.5 -11.5
q-31 0 -53 17t-33.5 50t-11.5 81q0 46 8.5 100t25.5 107t42 96.5t59 70t77 26.5q27 0 45 -12t28 -31.5t14 -45.5h3l19 79h30l-121 -574q-14 -62 -35.5 -105.5t-56.5 -66t-88 -22.5zM134 24q31 0 56 23t44.5 61t33 83t22.5 88.5t13 79.5t4 55q0 41 -17.5 65.5t-49.5 24.5
q-33 0 -61 -24t-49 -64.5t-35.5 -88.5t-21.5 -97t-7 -89q0 -62 18 -89.5t50 -27.5z" />
    <glyph glyph-name="Hcircumflex" unicode="&#x124;" horiz-adv-x="449" 
d="M2 0l151 714h37l-68 -322h237l68 322h37l-152 -714h-37l76 358h-237l-75 -358h-37zM209 779q20 21 41.5 46.5t41.5 53t34 52.5h31q4 -20 14 -49.5t21.5 -57.5t19.5 -45l-1 -8h-17q-9 15 -20.5 33.5t-21 39.5t-18.5 42q-22 -28 -50 -58.5t-59 -56.5h-17z" />
    <glyph glyph-name="hcircumflex" unicode="&#x125;" horiz-adv-x="369" 
d="M6 0l161 760h36l-50 -229q-2 -14 -5.5 -26.5t-6.5 -26t-7 -26.5h2q13 28 30.5 47t40 29t48.5 10t44.5 -9.5t29 -28.5t10.5 -47q0 -23 -6 -57.5t-13 -64.5l-70 -331h-37l72 337q6 28 11.5 57.5t5.5 53.5q0 28 -15 42t-41 14q-35 0 -61.5 -24t-46 -71.5t-35.5 -119.5
l-61 -289h-36zM93 838q20 21 41.5 46.5t41.5 53t34 52.5h31q4 -20 14 -49.5t21.5 -57.5t19.5 -45l-1 -8h-17q-9 15 -20.5 33.5t-21 39.5t-18.5 42q-22 -28 -50 -58.5t-59 -56.5h-17z" />
    <glyph glyph-name="Hbar" unicode="&#x126;" horiz-adv-x="440" 
d="M2 0l114 540h-71l6 32h72l30 142h37l-30 -142h237l30 142h37l-30 -142h58l-6 -32h-59l-115 -540h-37l76 358h-237l-75 -358h-37zM122 392h237l32 148h-237z" />
    <glyph glyph-name="hbar" unicode="&#x127;" horiz-adv-x="373" 
d="M6 0l134 631h-64l7 32h63l21 97h36l-21 -97h102l-6 -32h-103q-11 -49 -18.5 -83.5t-13 -57.5t-9.5 -39h2q13 27 30.5 46t40 29.5t48.5 10.5q25 0 44 -9.5t29.5 -28.5t10.5 -48q0 -22 -6.5 -57t-12.5 -65l-70 -329h-37l72 335q6 29 11.5 58t5.5 54q0 27 -15 41t-41 14
q-35 0 -62 -23.5t-46 -71t-35 -120.5l-61 -287h-36z" />
    <glyph glyph-name="Itilde" unicode="&#x128;" horiz-adv-x="184" 
d="M-57 0l6 24l64 6l138 653l-61 7l5 24h160l-5 -24l-63 -7l-138 -653l60 -6l-5 -24h-161zM76 798q6 34 17 55.5t28 32.5t40 11q20 0 34 -9.5t25.5 -22.5t23 -22.5t25.5 -9.5q19 0 31 15t18 49h30q-5 -33 -16 -55t-27.5 -32.5t-37.5 -10.5q-20 0 -34 10t-25.5 23t-23 22.5
t-26.5 9.5q-23 0 -34.5 -17t-17.5 -49h-30z" />
    <glyph glyph-name="itilde" unicode="&#x129;" horiz-adv-x="163" 
d="M5 0l112 528h36l-113 -528h-35zM24 610q6 34 17 55.5t28 32.5t40 11q20 0 34 -9.5t25.5 -22.5t23 -22.5t25.5 -9.5q19 0 31 15t18 49h30q-5 -33 -16 -55t-27.5 -32.5t-37.5 -10.5q-20 0 -34 10t-25.5 23t-23 22.5t-26.5 9.5q-23 0 -34.5 -17t-17.5 -49h-30z" />
    <glyph glyph-name="Imacron" unicode="&#x12a;" horiz-adv-x="184" 
d="M-57 0l6 24l64 6l138 653l-61 7l5 24h160l-5 -24l-63 -7l-138 -653l60 -6l-5 -24h-161zM88 800l6 32h220l-8 -32h-218z" />
    <glyph glyph-name="imacron" unicode="&#x12b;" horiz-adv-x="163" 
d="M5 0l112 528h36l-113 -528h-35zM36 612l6 32h220l-8 -32h-218z" />
    <glyph glyph-name="Ibreve" unicode="&#x12c;" horiz-adv-x="184" 
d="M-57 0l6 24l64 6l138 653l-61 7l5 24h160l-5 -24l-63 -7l-138 -653l60 -6l-5 -24h-161zM207 796q-35 0 -55 12t-28.5 32.5t-8.5 45.5q0 6 0.5 10.5t0.5 7.5h26q0 -24 5.5 -41.5t20 -26.5t40.5 -9q39 0 58 17.5t27 59.5h27q-8 -53 -34 -80.5t-79 -27.5z" />
    <glyph glyph-name="ibreve" unicode="&#x12d;" horiz-adv-x="163" 
d="M5 0l112 528h36l-113 -528h-35zM154 608q-35 0 -55 12t-28.5 32.5t-8.5 45.5q0 6 0.5 10.5t0.5 7.5h26q0 -24 5.5 -41.5t20 -26.5t40.5 -9q39 0 58 17.5t27 59.5h27q-8 -53 -34 -80.5t-79 -27.5z" />
    <glyph glyph-name="Iogonek" unicode="&#x12e;" horiz-adv-x="184" 
d="M-57 0l6 24l64 6l138 653l-61 7l5 24h160l-5 -24l-63 -7l-138 -653l60 -6l-5 -24h-161zM15 -217q-34 0 -52 19t-18 48q0 25 9 48t31.5 48t61.5 54h32q-37 -30 -58.5 -54t-30.5 -45.5t-9 -43.5q0 -21 10.5 -31.5t32.5 -10.5q9 0 18.5 2t18.5 4l-6 -30q-8 -3 -17.5 -5.5
t-22.5 -2.5z" />
    <glyph glyph-name="iogonek" unicode="&#x12f;" horiz-adv-x="163" 
d="M5 0l112 528h36l-112 -528h-36zM161 640q-10 0 -16 7t-6 20q0 11 4 22.5t11.5 19.5t19.5 8q10 0 16 -6.5t6 -21.5q0 -16 -9 -32.5t-26 -16.5zM-26 -217q-34 0 -52 19t-18 48q0 25 9 48t31.5 48t61.5 54h32q-37 -30 -58.5 -54t-30.5 -45.5t-9 -43.5q0 -21 10.5 -31.5
t32.5 -10.5q9 0 18.5 2t18.5 4l-6 -30q-8 -3 -17.5 -5.5t-22.5 -2.5z" />
    <glyph glyph-name="Idotaccent" unicode="&#x130;" horiz-adv-x="184" 
d="M-57 0l6 24l64 6l138 653l-61 7l5 24h160l-5 -24l-63 -7l-138 -653l60 -6l-5 -24h-161zM223 828q-10 0 -16 7t-6 20q0 17 8.5 33.5t25.5 16.5q8 0 13 -3t7.5 -9t2.5 -16q0 -16 -8.5 -32.5t-26.5 -16.5z" />
    <glyph glyph-name="IJ" unicode="&#x132;" horiz-adv-x="381" 
d="M-57 0l6 24l64 6l138 653l-61 7l5 24h160l-5 -24l-63 -7l-138 -653l60 -6l-5 -24h-161zM124 -176q-16 0 -29.5 3.5t-23.5 8.5l10 33q9 -4 21 -7.5t24 -3.5q23 0 38.5 12t26.5 38t21 69l156 737h37l-158 -746q-10 -50 -26 -81.5t-39.5 -47t-57.5 -15.5z" />
    <glyph glyph-name="ij" unicode="&#x133;" horiz-adv-x="325" 
d="M5 0l112 528h36l-112 -528h-36zM161 640q-10 0 -16 7t-6 20q0 11 4 22.5t11.5 19.5t19.5 8q10 0 16 -6.5t6 -21.5q0 -16 -9 -32.5t-26 -16.5zM68 -240q-11 0 -21 1.5t-16 3.5v35q8 -3 16.5 -4.5t18.5 -1.5q27 0 43.5 14t29 48t23.5 94l123 578h36l-123 -580
q-14 -65 -28.5 -107t-38 -61.5t-63.5 -19.5zM329 640q-10 0 -16 7t-6 20q0 11 4 22.5t11.5 19.5t19.5 8q10 0 16 -6.5t6 -20.5q0 -17 -9 -33.5t-26 -16.5z" />
    <glyph glyph-name="Jcircumflex" unicode="&#x134;" horiz-adv-x="164" 
d="M-90 -176q-16 0 -29.5 3.5t-23.5 8.5l10 33q9 -4 21 -7.5t24 -3.5q23 0 38.5 12t26.5 38t21 69l156 737h37l-158 -746q-10 -50 -26 -81.5t-39.5 -47t-57.5 -15.5zM76 779q20 21 41.5 46.5t41.5 53t34 52.5h31q4 -20 14 -49.5t21.5 -57.5t19.5 -45l-1 -8h-17
q-9 15 -20.5 33.5t-21 39.5t-18.5 42q-22 -28 -50 -58.5t-59 -56.5h-17z" />
    <glyph glyph-name="jcircumflex" unicode="&#x135;" horiz-adv-x="163" 
d="M-95 -240q-11 0 -21 1.5t-16 3.5v35q8 -3 16.5 -4.5t18.5 -1.5q27 0 43.5 14t29 48t23.5 94l123 578h36l-123 -580q-14 -65 -28.5 -107t-38 -61.5t-63.5 -19.5zM42 614q20 21 41.5 46.5t41.5 53t34 52.5h31q4 -20 14 -49.5t21.5 -57.5t19.5 -45l-1 -8h-17
q-9 15 -20.5 33.5t-21 39.5t-18.5 42q-22 -28 -50 -58.5t-59 -56.5h-17z" />
    <glyph glyph-name="uni0136" unicode="&#x136;" horiz-adv-x="358" 
d="M2 0l151 714h37l-82 -388l66 94l215 294h43l-231 -317l90 -397h-41l-80 367l-72 -87l-59 -280h-37zM33 -206q14 14 30.5 40t32 54.5t22.5 50.5h36v-11q-8 -21 -26 -49t-38.5 -55t-38.5 -45h-18v15z" />
    <glyph glyph-name="uni0137" unicode="&#x137;" horiz-adv-x="309" 
d="M4 0l162 760h36l-83 -392q-7 -32 -13.5 -61.5t-14.5 -61.5h1l215 283h40l-155 -206l53 -322h-37l-47 288l-81 -99l-40 -189h-36zM9 -206q14 14 30.5 40t32 54.5t22.5 50.5h36v-11q-8 -21 -26 -49t-38.5 -55t-38.5 -45h-18v15z" />
    <glyph glyph-name="kgreenlandic" unicode="&#x138;" horiz-adv-x="301" 
d="M4 0l115 528h36l-36 -161q-6 -29 -13.5 -62.5t-14.5 -59.5h1l215 284h40l-155 -207l53 -322h-37l-47 288l-81 -99l-40 -189h-36z" />
    <glyph glyph-name="Lacute" unicode="&#x139;" horiz-adv-x="309" 
d="M2 0l151 714h37l-144 -679h185l-7 -35h-222zM222 798q24 25 47 52t41.5 53.5t29.5 46.5h43v-8q-10 -16 -27 -37t-37 -42.5t-40.5 -40.5t-37.5 -32h-19v8z" />
    <glyph glyph-name="lacute" unicode="&#x13a;" horiz-adv-x="157" 
d="M4 0l162 760h36l-162 -760h-36zM155 844q24 25 47 52t41.5 53.5t29.5 46.5h43v-8q-10 -16 -27 -37t-37 -42.5t-40.5 -40.5t-37.5 -32h-19v8z" />
    <glyph glyph-name="uni013B" unicode="&#x13b;" horiz-adv-x="309" 
d="M2 0l151 714h37l-144 -679h185l-7 -35h-222zM9 -206q14 14 30.5 40t32 54.5t22.5 50.5h36v-11q-8 -21 -26 -49t-38.5 -55t-38.5 -45h-18v15z" />
    <glyph glyph-name="uni013C" unicode="&#x13c;" horiz-adv-x="157" 
d="M4 0l162 760h36l-162 -760h-36zM-68 -206q14 14 30.5 40t32 54.5t22.5 50.5h36v-11q-8 -21 -26 -49t-38.5 -55t-38.5 -45h-18v15z" />
    <glyph glyph-name="Lcaron" unicode="&#x13d;" horiz-adv-x="309" 
d="M239 560q14 25 26 51.5t22 53t15 48.5h37l-1 -10q-6 -18 -19 -46t-29 -55.5t-30 -48.5h-21v7zM2 0l151 714h37l-144 -679h185l-7 -35h-222z" />
    <glyph glyph-name="lcaron" unicode="&#x13e;" horiz-adv-x="173" 
d="M199 607q14 25 26 51.5t22 53t15 48.5h38l-1 -10q-7 -18 -20 -46t-28.5 -55.5t-30.5 -48.5h-21v7zM4 0l162 760h36l-162 -760h-36z" />
    <glyph glyph-name="Ldot" unicode="&#x13f;" horiz-adv-x="309" 
d="M2 0l151 714h37l-144 -679h185l-7 -35h-222zM239 328q-10 0 -16 7t-6 20q0 17 8.5 33.5t25.5 16.5q8 0 13 -3t7.5 -9t2.5 -16q0 -16 -8.5 -32.5t-26.5 -16.5z" />
    <glyph glyph-name="ldot" unicode="&#x140;" horiz-adv-x="257" 
d="M4 0l162 760h36l-162 -760h-36zM216 292q-10 0 -16 7t-6 20q0 17 8.5 33.5t25.5 16.5q8 0 13 -3t7.5 -9t2.5 -16q0 -16 -8.5 -32.5t-26.5 -16.5z" />
    <glyph glyph-name="Lslash" unicode="&#x141;" horiz-adv-x="302" 
d="M3 0l67 317l-77 -42l-14 29l101 55l75 355h37l-70 -330l102 56l14 -29l-126 -69l-65 -307h185l-6 -35h-223z" />
    <glyph glyph-name="lslash" unicode="&#x142;" horiz-adv-x="162" 
d="M6 0l74 349l-75 -43l-12 29l96 55l78 370h37l-75 -348l79 45l12 -29l-99 -57l-79 -371h-36z" />
    <glyph glyph-name="Nacute" unicode="&#x143;" horiz-adv-x="472" 
d="M2 0l151 714h46l115 -638h3q5 26 10 51t9 47.5t8 37.5l106 502h37l-152 -714h-44l-115 646h-2q-2 -14 -5 -29.5t-6.5 -32.5t-7.5 -35.5t-8 -38.5l-108 -510h-37zM303 798q24 25 47 52t41.5 53.5t29.5 46.5h43v-8q-10 -16 -27 -37t-37 -42.5t-40.5 -40.5t-37.5 -32h-19v8z
" />
    <glyph glyph-name="nacute" unicode="&#x144;" horiz-adv-x="368" 
d="M5 0l111 528h30l-13 -77h2q12 28 30 47t40.5 29.5t48.5 10.5q25 0 44 -9.5t29.5 -28t10.5 -47.5q0 -23 -6 -57t-12 -64l-71 -332h-36l71 338q6 28 11.5 57t5.5 53q0 28 -14.5 42t-40.5 14q-36 0 -63 -24.5t-46 -72.5t-35 -120l-61 -287h-36zM212 611q24 25 47 52
t41.5 53.5t29.5 46.5h43v-8q-10 -16 -27 -37t-37 -42.5t-40.5 -40.5t-37.5 -32h-19v8z" />
    <glyph glyph-name="uni0145" unicode="&#x145;" horiz-adv-x="472" 
d="M2 0l151 714h46l115 -638h3q5 26 10 51t9 47.5t8 37.5l106 502h37l-152 -714h-44l-115 646h-2q-2 -14 -5 -29.5t-6.5 -32.5t-7.5 -35.5t-8 -38.5l-108 -510h-37zM90 -206q14 14 30.5 40t32 54.5t22.5 50.5h36v-11q-8 -21 -26 -49t-38.5 -55t-38.5 -45h-18v15z" />
    <glyph glyph-name="uni0146" unicode="&#x146;" horiz-adv-x="368" 
d="M5 0l111 528h30l-13 -77h2q12 28 30 47t40.5 29.5t48.5 10.5q25 0 44 -9.5t29.5 -28t10.5 -47.5q0 -23 -6 -57t-12 -64l-71 -332h-36l71 338q6 28 11.5 57t5.5 53q0 28 -14.5 42t-40.5 14q-36 0 -63 -24.5t-46 -72.5t-35 -120l-61 -287h-36zM39 -206q14 14 30.5 40
t32 54.5t22.5 50.5h36v-11q-8 -21 -26 -49t-38.5 -55t-38.5 -45h-18v15z" />
    <glyph glyph-name="Ncaron" unicode="&#x147;" horiz-adv-x="472" 
d="M2 0l151 714h46l115 -638h3q5 26 10 51t9 47.5t8 37.5l106 502h37l-152 -714h-44l-115 646h-2q-2 -14 -5 -29.5t-6.5 -32.5t-7.5 -35.5t-8 -38.5l-108 -510h-37zM301 771q-4 20 -14 49.5t-21 58t-20 44.5l1 8h17q9 -14 20 -32.5t21.5 -40t18.5 -42.5q22 29 50 59t59 56
h18l-2 -8q-17 -19 -39.5 -45.5t-43 -54t-34.5 -52.5h-31z" />
    <glyph glyph-name="ncaron" unicode="&#x148;" horiz-adv-x="368" 
d="M5 0l111 528h30l-13 -77h2q12 28 30 47t40.5 29.5t48.5 10.5q25 0 44 -9.5t29.5 -28t10.5 -47.5q0 -23 -6 -57t-12 -64l-71 -332h-36l71 338q6 28 11.5 57t5.5 53q0 28 -14.5 42t-40.5 14q-36 0 -63 -24.5t-46 -72.5t-35 -120l-61 -287h-36zM225 606q-4 20 -14 49.5
t-21 58t-20 44.5l1 8h17q9 -14 20 -32.5t21.5 -40t18.5 -42.5q22 29 50 59t59 56h18l-2 -8q-17 -19 -39.5 -45.5t-43 -54t-34.5 -52.5h-31z" />
    <glyph glyph-name="napostrophe" unicode="&#x149;" horiz-adv-x="377" 
d="M14 0l111 528h30l-13 -77h2q12 28 30 47t40.5 29.5t48.5 10.5q25 0 44 -9.5t29.5 -28t10.5 -47.5q0 -23 -6 -57t-12 -64l-71 -332h-36l71 338q6 28 11.5 57t5.5 53q0 28 -14.5 42t-40.5 14q-36 0 -63 -24.5t-46 -72.5t-35 -120l-61 -287h-36zM33 490q20 33 37.5 71.5
t32.5 78t24 74.5h35l4 -12q-11 -32 -27.5 -69.5t-36 -74.5t-41.5 -68h-28z" />
    <glyph glyph-name="Eng" unicode="&#x14a;" horiz-adv-x="468" 
d="M207 -176q-16 0 -30 3.5t-24 8.5l10 34q9 -5 21 -8t24 -3q25 0 41 13.5t26.5 42.5t19.5 73l-118 660h-3q-2 -11 -4 -23.5t-5 -27.5t-6.5 -32t-8.5 -37l-111 -528h-37l151 714h46l115 -636h2q4 21 8.5 41.5t8.5 41t8 40.5l109 513h37l-154 -731q-12 -54 -27 -89.5
t-38.5 -52.5t-60.5 -17z" />
    <glyph glyph-name="eng" unicode="&#x14b;" horiz-adv-x="368" 
d="M108 -240q-12 0 -21.5 1.5t-15.5 3.5v35q8 -3 16.5 -4.5t19.5 -1.5q25 0 41.5 13.5t29 47.5t24.5 95l82 388q6 28 11.5 57t5.5 53q0 28 -14.5 42t-40.5 14q-36 0 -63 -24.5t-46 -72t-35 -118.5l-61 -289h-36l111 528h30l-13 -77h2q12 28 30 47t40.5 29.5t48.5 10.5
q25 0 44 -9.5t29.5 -28t10.5 -47.5q0 -23 -6 -57t-12 -64l-82 -384q-14 -69 -29 -110t-38.5 -59.5t-62.5 -18.5z" />
    <glyph glyph-name="Omacron" unicode="&#x14c;" horiz-adv-x="455" 
d="M166 -10q-43 0 -72.5 21.5t-44.5 65.5t-15 112q0 47 7.5 105t21.5 118t36.5 115.5t52.5 100t68.5 70.5t84.5 26q64 0 97.5 -44t33.5 -142q0 -45 -7 -103t-20 -119.5t-34.5 -119.5t-51.5 -104.5t-69 -74t-88 -27.5zM170 25q39 0 71 25.5t57.5 69t44 97.5t31 112t18 111.5
t5.5 96.5q0 81 -23 116.5t-72 35.5q-40 0 -72.5 -26t-57.5 -69t-44 -97t-31 -110t-18 -107t-6 -90q0 -58 11 -94.5t32.5 -53.5t53.5 -17zM207 777l6 32h220l-8 -32h-218z" />
    <glyph glyph-name="omacron" unicode="&#x14d;" horiz-adv-x="369" 
d="M135 -10q-32 0 -57 15.5t-38 49t-13 85.5q0 37 7 88t22 105.5t39.5 101t59.5 75t82 28.5q33 0 56 -16t35.5 -49.5t12.5 -85.5q0 -47 -7.5 -100.5t-24 -106t-40.5 -96t-57.5 -69t-76.5 -25.5zM138 24q33 0 60 24.5t47 65.5t33 89.5t19.5 97t6.5 86.5q0 39 -8 65.5
t-23.5 39.5t-39.5 13q-35 0 -62.5 -27t-47.5 -70t-33 -92.5t-19 -96t-6 -79.5q0 -58 19 -87t54 -29zM138 612l6 32h220l-8 -32h-218z" />
    <glyph glyph-name="Obreve" unicode="&#x14e;" horiz-adv-x="455" 
d="M166 -10q-43 0 -72.5 21.5t-44.5 65.5t-15 112q0 47 7.5 105t21.5 118t36.5 115.5t52.5 100t68.5 70.5t84.5 26q64 0 97.5 -44t33.5 -142q0 -45 -7 -103t-20 -119.5t-34.5 -119.5t-51.5 -104.5t-69 -74t-88 -27.5zM170 25q39 0 71 25.5t57.5 69t44 97.5t31 112t18 111.5
t5.5 96.5q0 81 -23 116.5t-72 35.5q-40 0 -72.5 -26t-57.5 -69t-44 -97t-31 -110t-18 -107t-6 -90q0 -58 11 -94.5t32.5 -53.5t53.5 -17zM323 773q-35 0 -55 12t-28.5 32.5t-8.5 45.5q0 6 0.5 10.5t0.5 7.5h26q0 -24 5.5 -41.5t20 -26.5t40.5 -9q39 0 58 17.5t27 59.5h27
q-8 -53 -34 -80.5t-79 -27.5z" />
    <glyph glyph-name="obreve" unicode="&#x14f;" horiz-adv-x="369" 
d="M135 -10q-32 0 -57 15.5t-38 49t-13 85.5q0 37 7 88t22 105.5t39.5 101t59.5 75t82 28.5q33 0 56 -16t35.5 -49.5t12.5 -85.5q0 -47 -7.5 -100.5t-24 -106t-40.5 -96t-57.5 -69t-76.5 -25.5zM138 24q33 0 60 24.5t47 65.5t33 89.5t19.5 97t6.5 86.5q0 39 -8 65.5
t-23.5 39.5t-39.5 13q-35 0 -62.5 -27t-47.5 -70t-33 -92.5t-19 -96t-6 -79.5q0 -58 19 -87t54 -29zM260 608q-35 0 -55 12t-28.5 32.5t-8.5 45.5q0 6 0.5 10.5t0.5 7.5h26q0 -24 5.5 -41.5t20 -26.5t40.5 -9q39 0 58 17.5t27 59.5h27q-8 -53 -34 -80.5t-79 -27.5z" />
    <glyph glyph-name="Ohungarumlaut" unicode="&#x150;" horiz-adv-x="455" 
d="M166 -10q-43 0 -72.5 21.5t-44.5 65.5t-15 112q0 47 7.5 105t21.5 118t36.5 115.5t52.5 100t68.5 70.5t84.5 26q64 0 97.5 -44t33.5 -142q0 -45 -7 -103t-20 -119.5t-34.5 -119.5t-51.5 -104.5t-69 -74t-88 -27.5zM170 25q39 0 71 25.5t57.5 69t44 97.5t31 112t18 111.5
t5.5 96.5q0 81 -23 116.5t-72 35.5q-40 0 -72.5 -26t-57.5 -69t-44 -97t-31 -110t-18 -107t-6 -90q0 -58 11 -94.5t32.5 -53.5t53.5 -17zM356 779q25 26 47.5 53.5t41 53t29.5 45.5h42v-8q-10 -16 -27 -37t-37.5 -42.5t-40.5 -40.5t-38 -32h-17v8zM220 779q25 26 47.5 53.5
t41 53t29.5 45.5h42v-8q-10 -16 -27 -37t-37.5 -42.5t-41 -40.5t-38.5 -32h-16v8z" />
    <glyph glyph-name="ohungarumlaut" unicode="&#x151;" horiz-adv-x="369" 
d="M135 -10q-32 0 -57 15.5t-38 49t-13 85.5q0 37 7 88t22 105.5t39.5 101t59.5 75t82 28.5q33 0 56 -16t35.5 -49.5t12.5 -85.5q0 -47 -7.5 -100.5t-24 -106t-40.5 -96t-57.5 -69t-76.5 -25.5zM138 24q33 0 60 24.5t47 65.5t33 89.5t19.5 97t6.5 86.5q0 39 -8 65.5
t-23.5 39.5t-39.5 13q-35 0 -62.5 -27t-47.5 -70t-33 -92.5t-19 -96t-6 -79.5q0 -58 19 -87t54 -29zM308 614q25 26 47.5 53.5t41 53t29.5 45.5h42v-8q-10 -16 -27 -37t-37.5 -42.5t-40.5 -40.5t-38 -32h-17v8zM172 614q25 26 47.5 53.5t41 53t29.5 45.5h42v-8
q-10 -16 -27 -37t-37.5 -42.5t-41 -40.5t-38.5 -32h-16v8z" />
    <glyph glyph-name="OE" unicode="&#x152;" horiz-adv-x="524" 
d="M176 -3q-48 0 -79.5 22.5t-46.5 65.5t-15 105q0 57 9 127t28.5 140.5t51.5 129t77 94.5t105 36q15 0 29 -1.5t21 -1.5h221l-7 -35h-195l-61 -287h182l-8 -34h-182l-69 -323h195l-7 -35h-211q-5 0 -13.5 -1.5t-24.5 -1.5zM180 32q7 0 12 0.5t8 1.5l138 646q-6 1 -14.5 1.5
t-19.5 0.5q-48 0 -85.5 -33t-65 -86.5t-45 -119t-26.5 -131.5t-9 -121q0 -53 11.5 -88.5t35.5 -53t60 -17.5z" />
    <glyph glyph-name="oe" unicode="&#x153;" horiz-adv-x="588" 
d="M134 -10q-49 0 -78 37t-29 121q0 34 7 83.5t21.5 102.5t39 99.5t59.5 75.5t82 29q50 0 73 -36.5t24 -108.5q28 66 69 105.5t86 39.5q38 0 61.5 -22t23.5 -71q0 -37 -14 -72t-43.5 -63t-75 -44.5t-109.5 -16.5h-6q-4 -22 -6.5 -47t-2.5 -52q0 -66 22 -96.5t68 -30.5
q23 0 45 7.5t42 19.5v-36q-18 -10 -41.5 -17t-53.5 -7q-36 0 -60.5 15.5t-37 47.5t-14.5 80q-24 -62 -62 -102.5t-90 -40.5zM139 24q33 0 60 24.5t46.5 65.5t32.5 89.5t19.5 97t6.5 87.5q0 59 -18 87.5t-53 28.5q-36 0 -63 -26t-47.5 -67.5t-33 -90t-18.5 -94.5t-6 -79
q0 -66 19.5 -94.5t54.5 -28.5zM335 281q74 0 118 24t64 61t20 77q0 29 -12.5 45.5t-39.5 16.5q-34 0 -64.5 -30.5t-54 -81.5t-35.5 -112h4z" />
    <glyph glyph-name="Racute" unicode="&#x154;" horiz-adv-x="369" 
d="M2 0l151 714h82q64 0 102.5 -37t38.5 -110q0 -58 -17.5 -110t-52 -88t-84.5 -46l58 -323h-39l-56 317h-79l-67 -317h-37zM180 350q43 0 73 19.5t48.5 51t27 69t8.5 73.5q0 61 -28 89t-84 28h-41l-70 -330h66zM252 798q24 25 47 52t41.5 53.5t29.5 46.5h43v-8
q-10 -16 -27 -37t-37 -42.5t-40.5 -40.5t-37.5 -32h-19v8z" />
    <glyph glyph-name="racute" unicode="&#x155;" horiz-adv-x="242" 
d="M5 0l111 528h29l-16 -89h3q13 32 30.5 54t40 33.5t48.5 11.5q11 0 20 -2t15 -4l-9 -36q-6 3 -13.5 4.5t-17.5 1.5q-32 0 -56 -20.5t-41 -53.5t-28.5 -71.5t-19.5 -74.5l-60 -282h-36zM148 611q24 25 47 52t41.5 53.5t29.5 46.5h43v-8q-10 -16 -27 -37t-37 -42.5
t-40.5 -40.5t-37.5 -32h-19v8z" />
    <glyph glyph-name="uni0156" unicode="&#x156;" horiz-adv-x="369" 
d="M2 0l151 714h82q64 0 102.5 -37t38.5 -110q0 -58 -17.5 -110t-52 -88t-84.5 -46l58 -323h-39l-56 317h-79l-67 -317h-37zM180 350q43 0 73 19.5t48.5 51t27 69t8.5 73.5q0 61 -28 89t-84 28h-41l-70 -330h66zM39 -206q14 14 30.5 40t32 54.5t22.5 50.5h36v-11
q-8 -21 -26 -49t-38.5 -55t-38.5 -45h-18v15z" />
    <glyph glyph-name="uni0157" unicode="&#x157;" horiz-adv-x="242" 
d="M5 0l111 528h29l-16 -89h3q13 32 30.5 54t40 33.5t48.5 11.5q11 0 20 -2t15 -4l-9 -36q-6 3 -13.5 4.5t-17.5 1.5q-32 0 -56 -20.5t-41 -53.5t-28.5 -71.5t-19.5 -74.5l-60 -282h-36zM-25 -206q14 14 30.5 40t32 54.5t22.5 50.5h36v-11q-8 -21 -26 -49t-38.5 -55
t-38.5 -45h-18v15z" />
    <glyph glyph-name="Rcaron" unicode="&#x158;" horiz-adv-x="369" 
d="M2 0l151 714h82q64 0 102.5 -37t38.5 -110q0 -58 -17.5 -110t-52 -88t-84.5 -46l58 -323h-39l-56 317h-79l-67 -317h-37zM180 350q43 0 73 19.5t48.5 51t27 69t8.5 73.5q0 61 -28 89t-84 28h-41l-70 -330h66zM258 771q-4 20 -14 49.5t-21 58t-20 44.5l1 8h17
q9 -14 20 -32.5t21.5 -40t18.5 -42.5q22 29 50 59t59 56h18l-2 -8q-17 -19 -39.5 -45.5t-43 -54t-34.5 -52.5h-31z" />
    <glyph glyph-name="rcaron" unicode="&#x159;" horiz-adv-x="242" 
d="M5 0l111 528h29l-16 -89h3q13 32 30.5 54t40 33.5t48.5 11.5q11 0 20 -2t15 -4l-9 -36q-6 3 -13.5 4.5t-17.5 1.5q-32 0 -56 -20.5t-41 -53.5t-28.5 -71.5t-19.5 -74.5l-60 -282h-36zM192 606q-4 20 -14 49.5t-21 58t-20 44.5l1 8h17q9 -14 20 -32.5t21.5 -40t18.5 -42.5
q22 29 50 59t59 56h18l-2 -8q-17 -19 -39.5 -45.5t-43 -54t-34.5 -52.5h-31z" />
    <glyph glyph-name="Sacute" unicode="&#x15a;" horiz-adv-x="348" 
d="M95 -10q-40 0 -71 8t-52 19l2 41q24 -14 54.5 -23.5t68.5 -9.5q34 0 61.5 11t47.5 31.5t30 50t10 67.5q0 30 -8.5 55t-26.5 51t-47 58q-26 30 -45.5 57t-30.5 58t-11 72q0 46 13.5 81t37.5 59t57 36t72 12q38 0 70 -10t49 -22l-19 -34q-17 12 -43 21.5t-60 9.5
q-30 0 -55.5 -9.5t-44 -29t-29 -47t-10.5 -64.5q0 -33 9.5 -60.5t28.5 -54t49 -59.5q25 -27 43.5 -54.5t28.5 -57.5t10 -66q0 -46 -13 -82t-37.5 -62t-59.5 -39.5t-79 -13.5zM242 798q24 25 47 52t41.5 53.5t29.5 46.5h43v-8q-10 -16 -27 -37t-37 -42.5t-40.5 -40.5
t-37.5 -32h-19v8z" />
    <glyph glyph-name="sacute" unicode="&#x15b;" horiz-adv-x="283" 
d="M81 -10q-33 0 -58 7.5t-38 15.5v40q15 -10 40 -19.5t54 -9.5q35 0 57.5 13t33.5 38.5t11 61.5q0 23 -6.5 42t-20 38.5t-34.5 44.5q-18 21 -32.5 42t-22.5 45t-8 55q0 38 16 68t46 48t71 18q36 0 60.5 -9t41.5 -20l-19 -31q-15 10 -35 18.5t-49 8.5q-43 0 -69 -26.5
t-26 -71.5q0 -22 5.5 -41t17.5 -37.5t30 -40.5q23 -27 39.5 -49t24.5 -45t8 -55q0 -48 -16.5 -81t-47 -50.5t-74.5 -17.5zM168 611q24 25 47 52t41.5 53.5t29.5 46.5h43v-8q-10 -16 -27 -37t-37 -42.5t-40.5 -40.5t-37.5 -32h-19v8z" />
    <glyph glyph-name="Scircumflex" unicode="&#x15c;" horiz-adv-x="348" 
d="M95 -10q-40 0 -71 8t-52 19l2 41q24 -14 54.5 -23.5t68.5 -9.5q34 0 61.5 11t47.5 31.5t30 50t10 67.5q0 30 -8.5 55t-26.5 51t-47 58q-26 30 -45.5 57t-30.5 58t-11 72q0 46 13.5 81t37.5 59t57 36t72 12q38 0 70 -10t49 -22l-19 -34q-17 12 -43 21.5t-60 9.5
q-30 0 -55.5 -9.5t-44 -29t-29 -47t-10.5 -64.5q0 -33 9.5 -60.5t28.5 -54t49 -59.5q25 -27 43.5 -54.5t28.5 -57.5t10 -66q0 -46 -13 -82t-37.5 -62t-59.5 -39.5t-79 -13.5zM158 779q20 21 41.5 46.5t41.5 53t34 52.5h31q4 -20 14 -49.5t21.5 -57.5t19.5 -45l-1 -8h-17
q-9 15 -20.5 33.5t-21 39.5t-18.5 42q-22 -28 -50 -58.5t-59 -56.5h-17z" />
    <glyph glyph-name="scircumflex" unicode="&#x15d;" horiz-adv-x="283" 
d="M81 -10q-33 0 -58 7.5t-38 15.5v40q15 -10 40 -19.5t54 -9.5q35 0 57.5 13t33.5 38.5t11 61.5q0 23 -6.5 42t-20 38.5t-34.5 44.5q-18 21 -32.5 42t-22.5 45t-8 55q0 38 16 68t46 48t71 18q36 0 60.5 -9t41.5 -20l-19 -31q-15 10 -35 18.5t-49 8.5q-43 0 -69 -26.5
t-26 -71.5q0 -22 5.5 -41t17.5 -37.5t30 -40.5q23 -27 39.5 -49t24.5 -45t8 -55q0 -48 -16.5 -81t-47 -50.5t-74.5 -17.5zM100 614q20 21 41.5 46.5t41.5 53t34 52.5h31q4 -20 14 -49.5t21.5 -57.5t19.5 -45l-1 -8h-17q-9 15 -20.5 33.5t-21 39.5t-18.5 42
q-22 -28 -50 -58.5t-59 -56.5h-17z" />
    <glyph glyph-name="Scedilla" unicode="&#x15e;" horiz-adv-x="348" 
d="M95 -10q-40 0 -71 8t-52 19l2 41q24 -14 54.5 -23.5t68.5 -9.5q34 0 61.5 11t47.5 31.5t30 50t10 67.5q0 30 -8.5 55t-26.5 51t-47 58q-26 30 -45.5 57t-30.5 58t-11 72q0 46 13.5 81t37.5 59t57 36t72 12q38 0 70 -10t49 -22l-19 -34q-17 12 -43 21.5t-60 9.5
q-30 0 -55.5 -9.5t-44 -29t-29 -47t-10.5 -64.5q0 -33 9.5 -60.5t28.5 -54t49 -59.5q25 -27 43.5 -54.5t28.5 -57.5t10 -66q0 -46 -13 -82t-37.5 -62t-59.5 -39.5t-79 -13.5zM18 -240q-21 0 -34 2.5t-25 4.5v30q8 -3 22.5 -5.5t36.5 -2.5q25 0 44.5 9.5t30 26.5t10.5 36
q0 29 -21 42.5t-60 17.5l56 79h30l-44 -62q33 -6 52.5 -24t19.5 -50q0 -29 -15 -53t-41.5 -37.5t-61.5 -13.5z" />
    <glyph glyph-name="scedilla" unicode="&#x15f;" horiz-adv-x="283" 
d="M81 -10q-33 0 -58 7.5t-38 15.5v40q15 -10 40 -19.5t54 -9.5q35 0 57.5 13t33.5 38.5t11 61.5q0 23 -6.5 42t-20 38.5t-34.5 44.5q-18 21 -32.5 42t-22.5 45t-8 55q0 38 16 68t46 48t71 18q36 0 60.5 -9t41.5 -20l-19 -31q-15 10 -35 18.5t-49 8.5q-43 0 -69 -26.5
t-26 -71.5q0 -22 5.5 -41t17.5 -37.5t30 -40.5q23 -27 39.5 -49t24.5 -45t8 -55q0 -48 -16.5 -81t-47 -50.5t-74.5 -17.5zM-8 -240q-21 0 -34 2.5t-25 4.5v30q8 -3 22.5 -5.5t36.5 -2.5q25 0 44.5 9.5t30 26.5t10.5 36q0 29 -21 42.5t-60 17.5l56 79h30l-44 -62
q33 -6 52.5 -24t19.5 -50q0 -29 -15 -53t-41.5 -37.5t-61.5 -13.5z" />
    <glyph glyph-name="Scaron" unicode="&#x160;" horiz-adv-x="348" 
d="M95 -10q-40 0 -71 8t-52 19l2 41q24 -14 54.5 -23.5t68.5 -9.5q34 0 61.5 11t47.5 31.5t30 50t10 67.5q0 30 -8.5 55t-26.5 51t-47 58q-26 30 -45.5 57t-30.5 58t-11 72q0 46 13.5 81t37.5 59t57 36t72 12q38 0 70 -10t49 -22l-19 -34q-17 12 -43 21.5t-60 9.5
q-30 0 -55.5 -9.5t-44 -29t-29 -47t-10.5 -64.5q0 -33 9.5 -60.5t28.5 -54t49 -59.5q25 -27 43.5 -54.5t28.5 -57.5t10 -66q0 -46 -13 -82t-37.5 -62t-59.5 -39.5t-79 -13.5zM255 771q-4 20 -14 49.5t-21 58t-20 44.5l1 8h17q9 -14 20 -32.5t21.5 -40t18.5 -42.5
q22 29 50 59t59 56h18l-2 -8q-17 -19 -39.5 -45.5t-43 -54t-34.5 -52.5h-31z" />
    <glyph glyph-name="scaron" unicode="&#x161;" horiz-adv-x="283" 
d="M81 -10q-33 0 -58 7.5t-38 15.5v40q15 -10 40 -19.5t54 -9.5q35 0 57.5 13t33.5 38.5t11 61.5q0 23 -6.5 42t-20 38.5t-34.5 44.5q-18 21 -32.5 42t-22.5 45t-8 55q0 38 16 68t46 48t71 18q36 0 60.5 -9t41.5 -20l-19 -31q-15 10 -35 18.5t-49 8.5q-43 0 -69 -26.5
t-26 -71.5q0 -22 5.5 -41t17.5 -37.5t30 -40.5q23 -27 39.5 -49t24.5 -45t8 -55q0 -48 -16.5 -81t-47 -50.5t-74.5 -17.5zM192 606q-4 20 -14 49.5t-21 58t-20 44.5l1 8h17q9 -14 20 -32.5t21.5 -40t18.5 -42.5q22 29 50 59t59 56h18l-2 -8q-17 -19 -39.5 -45.5t-43 -54
t-34.5 -52.5h-31z" />
    <glyph glyph-name="uni021A" unicode="&#x21a;" horiz-adv-x="304" 
d="M65 0l145 679h-126l7 35h290l-7 -35h-127l-145 -679h-37zM6 -206q14 14 30.5 40t32 54.5t22.5 50.5h36v-11q-8 -21 -26 -49t-38.5 -55t-38.5 -45h-18v15z" />
    <glyph glyph-name="uni021B" unicode="&#x21b;" horiz-adv-x="193" 
d="M79 -10q-30 0 -46 17.5t-16 50.5q0 16 3 37.5t8 45.5l76 354h-47l6 27l48 7l35 127h28l-27 -128h67l-7 -33h-66l-77 -357q-4 -24 -7.5 -42.5t-3.5 -31.5q0 -19 8.5 -29.5t26.5 -10.5q11 0 20.5 2t17.5 5v-32q-10 -4 -21.5 -6.5t-25.5 -2.5zM-49 -206q14 14 30.5 40
t32 54.5t22.5 50.5h36v-11q-8 -21 -26 -49t-38.5 -55t-38.5 -45h-18v15z" />
    <glyph glyph-name="Tcaron" unicode="&#x164;" horiz-adv-x="304" 
d="M65 0l145 679h-126l7 35h290l-7 -35h-127l-145 -679h-37zM222 771q-4 20 -14 49.5t-21 58t-20 44.5l1 8h17q9 -14 20 -32.5t21.5 -40t18.5 -42.5q22 29 50 59t59 56h18l-2 -8q-17 -19 -39.5 -45.5t-43 -54t-34.5 -52.5h-31z" />
    <glyph glyph-name="tcaron" unicode="&#x165;" horiz-adv-x="179" 
d="M206 599q14 25 26 51.5t22 53t15 48.5h37l-1 -10q-6 -18 -19 -46t-29 -55.5t-31 -48.5h-20v7zM79 -10q-30 0 -46 17.5t-16 50.5q0 16 3 37.5t8 45.5l76 354h-47l6 27l48 7l35 127h28l-27 -128h67l-7 -33h-66l-77 -357q-4 -24 -7.5 -42.5t-3.5 -31.5q0 -19 8.5 -29.5
t26.5 -10.5q11 0 20.5 2t17.5 5v-32q-10 -4 -21.5 -6.5t-25.5 -2.5z" />
    <glyph glyph-name="Tbar" unicode="&#x166;" horiz-adv-x="301" 
d="M65 0l76 357h-98l6 33h99l62 289h-126l7 35h290l-7 -35h-127l-62 -289h101l-6 -33h-102l-76 -357h-37z" />
    <glyph glyph-name="tbar" unicode="&#x167;" horiz-adv-x="183" 
d="M79 -10q-30 0 -46 17.5t-16 50.5q0 16 3 37t8 45l31 144h-53l7 32h53l38 179h-47l6 27l48 7l35 127h28l-27 -128h67l-7 -33h-67l-38 -179h82l-7 -32h-81l-32 -146q-4 -24 -7.5 -42.5t-3.5 -31.5q0 -19 8.5 -29.5t27.5 -10.5q11 0 20 2t17 5v-32q-10 -4 -21.5 -6.5
t-25.5 -2.5z" />
    <glyph glyph-name="Utilde" unicode="&#x168;" horiz-adv-x="433" 
d="M158 -10q-37 0 -65.5 15t-45 44.5t-16.5 72.5q0 18 3 41.5t8 48.5l107 502h37l-107 -503q-5 -24 -7.5 -46t-2.5 -40q0 -50 25.5 -75t66.5 -25q45 0 73 23.5t45.5 68.5t31.5 110l106 487h37l-107 -489q-15 -71 -37 -124t-57.5 -82t-94.5 -29zM184 775q6 34 17 55.5
t28 32.5t40 11q20 0 34 -9.5t25.5 -22.5t23 -22.5t25.5 -9.5q19 0 31 15t18 49h30q-5 -33 -16 -55t-27.5 -32.5t-37.5 -10.5q-20 0 -34 10t-25.5 23t-23 22.5t-26.5 9.5q-23 0 -34.5 -17t-17.5 -49h-30z" />
    <glyph glyph-name="utilde" unicode="&#x169;" horiz-adv-x="369" 
d="M111 -10q-26 0 -45 9.5t-29.5 28.5t-10.5 48q0 22 6 55.5t12 62.5l71 334h37l-73 -340q-5 -28 -10.5 -55.5t-5.5 -51.5q0 -28 14.5 -42.5t40.5 -14.5q37 0 63.5 24.5t46.5 73t34 119.5l61 287h36l-111 -528h-29l12 76h-2q-12 -27 -30 -46.5t-40.5 -29.5t-47.5 -10z
M131 610q6 34 17 55.5t28 32.5t40 11q20 0 34 -9.5t25.5 -22.5t23 -22.5t25.5 -9.5q19 0 31 15t18 49h30q-5 -33 -16 -55t-27.5 -32.5t-37.5 -10.5q-20 0 -34 10t-25.5 23t-23 22.5t-26.5 9.5q-23 0 -34.5 -17t-17.5 -49h-30z" />
    <glyph glyph-name="Umacron" unicode="&#x16a;" horiz-adv-x="433" 
d="M158 -10q-37 0 -65.5 15t-45 44.5t-16.5 72.5q0 18 3 41.5t8 48.5l107 502h37l-107 -503q-5 -24 -7.5 -46t-2.5 -40q0 -50 25.5 -75t66.5 -25q45 0 73 23.5t45.5 68.5t31.5 110l106 487h37l-107 -489q-15 -71 -37 -124t-57.5 -82t-94.5 -29zM200 777l6 32h220l-8 -32
h-218z" />
    <glyph glyph-name="umacron" unicode="&#x16b;" horiz-adv-x="369" 
d="M111 -10q-26 0 -45 9.5t-29.5 28.5t-10.5 48q0 22 6 55.5t12 62.5l71 334h37l-73 -340q-5 -28 -10.5 -55.5t-5.5 -51.5q0 -28 14.5 -42.5t40.5 -14.5q37 0 63.5 24.5t46.5 73t34 119.5l61 287h36l-111 -528h-29l12 76h-2q-12 -27 -30 -46.5t-40.5 -29.5t-47.5 -10z
M141 612l6 32h220l-8 -32h-218z" />
    <glyph glyph-name="Ubreve" unicode="&#x16c;" horiz-adv-x="433" 
d="M158 -10q-37 0 -65.5 15t-45 44.5t-16.5 72.5q0 18 3 41.5t8 48.5l107 502h37l-107 -503q-5 -24 -7.5 -46t-2.5 -40q0 -50 25.5 -75t66.5 -25q45 0 73 23.5t45.5 68.5t31.5 110l106 487h37l-107 -489q-15 -71 -37 -124t-57.5 -82t-94.5 -29zM308 773q-35 0 -55 12
t-28.5 32.5t-8.5 45.5q0 6 0.5 10.5t0.5 7.5h26q0 -24 5.5 -41.5t20 -26.5t40.5 -9q39 0 58 17.5t27 59.5h27q-8 -53 -34 -80.5t-79 -27.5z" />
    <glyph glyph-name="ubreve" unicode="&#x16d;" horiz-adv-x="369" 
d="M111 -10q-26 0 -45 9.5t-29.5 28.5t-10.5 48q0 22 6 55.5t12 62.5l71 334h37l-73 -340q-5 -28 -10.5 -55.5t-5.5 -51.5q0 -28 14.5 -42.5t40.5 -14.5q37 0 63.5 24.5t46.5 73t34 119.5l61 287h36l-111 -528h-29l12 76h-2q-12 -27 -30 -46.5t-40.5 -29.5t-47.5 -10z
M252 608q-35 0 -55 12t-28.5 32.5t-8.5 45.5q0 6 0.5 10.5t0.5 7.5h26q0 -24 5.5 -41.5t20 -26.5t40.5 -9q39 0 58 17.5t27 59.5h27q-8 -53 -34 -80.5t-79 -27.5z" />
    <glyph glyph-name="Uring" unicode="&#x16e;" horiz-adv-x="433" 
d="M158 -10q-37 0 -65.5 15t-45 44.5t-16.5 72.5q0 18 3 41.5t8 48.5l107 502h37l-107 -503q-5 -24 -7.5 -46t-2.5 -40q0 -50 25.5 -75t66.5 -25q45 0 73 23.5t45.5 68.5t31.5 110l106 487h37l-107 -489q-15 -71 -37 -124t-57.5 -82t-94.5 -29zM323 776q-41 0 -65 24t-24 65
q0 39 24 64t65 25q44 0 66.5 -25.5t23.5 -62.5q0 -38 -24 -64t-66 -26zM324 805q28 0 43.5 16.5t15.5 43.5t-15 44t-44 17t-44.5 -17.5t-15.5 -43.5q0 -27 15.5 -43.5t44.5 -16.5z" />
    <glyph glyph-name="uring" unicode="&#x16f;" horiz-adv-x="369" 
d="M111 -10q-26 0 -45 9.5t-29.5 28.5t-10.5 48q0 22 6 55.5t12 62.5l71 334h37l-73 -340q-5 -28 -10.5 -55.5t-5.5 -51.5q0 -28 14.5 -42.5t40.5 -14.5q37 0 63.5 24.5t46.5 73t34 119.5l61 287h36l-111 -528h-29l12 76h-2q-12 -27 -30 -46.5t-40.5 -29.5t-47.5 -10z
M260 611q-41 0 -65 24t-24 65q0 39 24 64t65 25q44 0 66.5 -25.5t23.5 -62.5q0 -38 -24 -64t-66 -26zM261 640q28 0 43.5 16.5t15.5 43.5t-15 44t-44 17t-44.5 -17.5t-15.5 -43.5q0 -27 15.5 -43.5t44.5 -16.5z" />
    <glyph glyph-name="Uhungarumlaut" unicode="&#x170;" horiz-adv-x="433" 
d="M158 -10q-37 0 -65.5 15t-45 44.5t-16.5 72.5q0 18 3 41.5t8 48.5l107 502h37l-107 -503q-5 -24 -7.5 -46t-2.5 -40q0 -50 25.5 -75t66.5 -25q45 0 73 23.5t45.5 68.5t31.5 110l106 487h37l-107 -489q-15 -71 -37 -124t-57.5 -82t-94.5 -29zM359 779q25 26 47.5 53.5
t41 53t29.5 45.5h42v-8q-10 -16 -27 -37t-37.5 -42.5t-40.5 -40.5t-38 -32h-17v8zM223 779q25 26 47.5 53.5t41 53t29.5 45.5h42v-8q-10 -16 -27 -37t-37.5 -42.5t-41 -40.5t-38.5 -32h-16v8z" />
    <glyph glyph-name="uhungarumlaut" unicode="&#x171;" horiz-adv-x="369" 
d="M111 -10q-26 0 -45 9.5t-29.5 28.5t-10.5 48q0 22 6 55.5t12 62.5l71 334h37l-73 -340q-5 -28 -10.5 -55.5t-5.5 -51.5q0 -28 14.5 -42.5t40.5 -14.5q37 0 63.5 24.5t46.5 73t34 119.5l61 287h36l-111 -528h-29l12 76h-2q-12 -27 -30 -46.5t-40.5 -29.5t-47.5 -10z
M301 614q25 26 47.5 53.5t41 53t29.5 45.5h42v-8q-10 -16 -27 -37t-37.5 -42.5t-40.5 -40.5t-38 -32h-17v8zM165 614q25 26 47.5 53.5t41 53t29.5 45.5h42v-8q-10 -16 -27 -37t-37.5 -42.5t-41 -40.5t-38.5 -32h-16v8z" />
    <glyph glyph-name="Uogonek" unicode="&#x172;" horiz-adv-x="433" 
d="M158 -10q-37 0 -65.5 15t-45 44.5t-16.5 72.5q0 18 3 41.5t8 48.5l107 502h37l-107 -503q-5 -24 -7.5 -46t-2.5 -40q0 -50 25.5 -75t66.5 -25q45 0 73 23.5t45.5 68.5t31.5 110l106 487h37l-107 -489q-15 -71 -37 -124t-57.5 -82t-94.5 -29zM140 -217q-34 0 -52 19
t-18 48q0 25 9 48t31.5 48t61.5 54h32q-37 -30 -58.5 -54t-30.5 -45.5t-9 -43.5q0 -21 10.5 -31.5t32.5 -10.5q9 0 18.5 2t18.5 4l-6 -30q-8 -3 -17.5 -5.5t-22.5 -2.5z" />
    <glyph glyph-name="uogonek" unicode="&#x173;" horiz-adv-x="369" 
d="M111 -10q-26 0 -45 9.5t-29.5 28.5t-10.5 48q0 22 6 55.5t12 62.5l71 334h37l-73 -340q-5 -28 -10.5 -55.5t-5.5 -51.5q0 -28 14.5 -42.5t40.5 -14.5q37 0 63.5 24.5t46.5 73t34 119.5l61 287h36l-111 -528h-29l12 76h-2q-12 -27 -30 -46.5t-40.5 -29.5t-47.5 -10z
M186 -217q-34 0 -52 19t-18 48q0 25 9 48t31.5 48t61.5 54h32q-37 -30 -58.5 -54t-30.5 -45.5t-9 -43.5q0 -21 10.5 -31.5t32.5 -10.5q9 0 18.5 2t18.5 4l-6 -30q-8 -3 -17.5 -5.5t-22.5 -2.5z" />
    <glyph glyph-name="Wcircumflex" unicode="&#x174;" horiz-adv-x="609" 
d="M73 0l12 714h36l-10 -548q-1 -38 -1.5 -66t-2.5 -47h2q12 32 24 64.5t22 57.5l212 539h36l-17 -521q-1 -26 -2.5 -50t-2 -47t-2.5 -47h2q8 23 16.5 45.5t18.5 47.5t22 57l205 515h40l-287 -714h-50l19 539q1 16 1.5 31.5l1 31t1.5 31.5h-2q-7 -21 -14.5 -43t-16.5 -42
l-213 -548h-50zM278 779q20 21 41.5 46.5t41.5 53t34 52.5h31q4 -20 14 -49.5t21.5 -57.5t19.5 -45l-1 -8h-17q-9 15 -20.5 33.5t-21 39.5t-18.5 42q-22 -28 -50 -58.5t-59 -56.5h-17z" />
    <glyph glyph-name="wcircumflex" unicode="&#x175;" horiz-adv-x="477" 
d="M58 -1l5 529h34l-4 -356q0 -29 -1 -56.5t-2 -53.5h2q5 16 12.5 35t15.5 39t14 38l145 354h38l-6 -356l-2.5 -52.5t-3.5 -58.5h2q7 17 13 34.5t13 36t15 38.5l138 358h36l-208 -529h-39l8 379v29t1.5 31.5t2.5 32.5h-2q-4 -15 -9.5 -29t-11 -29t-11.5 -30l-155 -384h-40z
M196 614q20 21 41.5 46.5t41.5 53t34 52.5h31q4 -20 14 -49.5t21.5 -57.5t19.5 -45l-1 -8h-17q-9 15 -20.5 33.5t-21 39.5t-18.5 42q-22 -28 -50 -58.5t-59 -56.5h-17z" />
    <glyph glyph-name="Ycircumflex" unicode="&#x176;" horiz-adv-x="303" 
d="M65 0l59 277l-41 437h37l32 -382l195 382h40l-226 -436l-59 -278h-37zM140 779q20 21 41.5 46.5t41.5 53t34 52.5h31q4 -20 14 -49.5t21.5 -57.5t19.5 -45l-1 -8h-17q-9 15 -20.5 33.5t-21 39.5t-18.5 42q-22 -28 -50 -58.5t-59 -56.5h-17z" />
    <glyph glyph-name="ycircumflex" unicode="&#x177;" horiz-adv-x="303" 
d="M-66 -243q-16 0 -27.5 3t-17.5 7l7 34q8 -4 17 -6.5t22 -2.5q31 0 52.5 22.5t44.5 74.5l53 122l-7 517h36l3 -367q0 -13 -0.5 -28.5t-0.5 -32t-1 -31.5h2q6 16 13 33t13.5 32t11.5 27l161 367h38l-288 -649q-18 -42 -37 -69t-41.5 -40t-53.5 -13zM118 614
q20 21 41.5 46.5t41.5 53t34 52.5h31q4 -20 14 -49.5t21.5 -57.5t19.5 -45l-1 -8h-17q-9 15 -20.5 33.5t-21 39.5t-18.5 42q-22 -28 -50 -58.5t-59 -56.5h-17z" />
    <glyph glyph-name="Ydieresis" unicode="&#x178;" horiz-adv-x="303" 
d="M65 0l59 277l-41 437h37l32 -382l195 382h40l-226 -436l-59 -278h-37zM308 809q-10 0 -15.5 6.5t-5.5 19.5q0 15 8 30.5t23 15.5q10 0 15.5 -6.5t5.5 -18.5q0 -16 -8 -31.5t-23 -15.5zM177 809q-9 0 -15 6.5t-6 19.5q0 15 8 30.5t24 15.5q6 0 11 -2.5t7 -8t2 -14.5
q0 -16 -8 -31.5t-23 -15.5z" />
    <glyph glyph-name="Zacute" unicode="&#x179;" horiz-adv-x="311" 
d="M-42 0l7 32l356 647h-208l8 35h250l-7 -33l-356 -646h225l-7 -35h-268zM223 798q24 25 47 52t41.5 53.5t29.5 46.5h43v-8q-10 -16 -27 -37t-37 -42.5t-40.5 -40.5t-37.5 -32h-19v8z" />
    <glyph glyph-name="zacute" unicode="&#x17a;" horiz-adv-x="241" 
d="M-34 0l7 30l254 465h-142l7 33h180l-6 -30l-253 -464h158l-7 -34h-198zM148 611q24 25 47 52t41.5 53.5t29.5 46.5h43v-8q-10 -16 -27 -37t-37 -42.5t-40.5 -40.5t-37.5 -32h-19v8z" />
    <glyph glyph-name="Zdotaccent" unicode="&#x17b;" horiz-adv-x="311" 
d="M-42 0l7 32l356 647h-208l8 35h250l-7 -33l-356 -646h225l-7 -35h-268zM252 805q-10 0 -16 7t-6 20q0 17 8.5 33.5t25.5 16.5q8 0 13 -3t7.5 -9t2.5 -16q0 -16 -8.5 -32.5t-26.5 -16.5z" />
    <glyph glyph-name="zdotaccent" unicode="&#x17c;" horiz-adv-x="241" 
d="M-34 0l7 30l254 465h-142l7 33h180l-6 -30l-253 -464h158l-7 -34h-198zM204 640q-10 0 -16 7t-6 20q0 17 8.5 33.5t25.5 16.5q8 0 13 -3t7.5 -9t2.5 -16q0 -16 -8.5 -32.5t-26.5 -16.5z" />
    <glyph glyph-name="Zcaron" unicode="&#x17d;" horiz-adv-x="311" 
d="M-42 0l7 32l356 647h-208l8 35h250l-7 -33l-356 -646h225l-7 -35h-268zM238 771q-4 20 -14 49.5t-21 58t-20 44.5l1 8h17q9 -14 20 -32.5t21.5 -40t18.5 -42.5q22 29 50 59t59 56h18l-2 -8q-17 -19 -39.5 -45.5t-43 -54t-34.5 -52.5h-31z" />
    <glyph glyph-name="zcaron" unicode="&#x17e;" horiz-adv-x="241" 
d="M-34 0l7 30l254 465h-142l7 33h180l-6 -30l-253 -464h158l-7 -34h-198zM180 606q-4 20 -14 49.5t-21 58t-20 44.5l1 8h17q9 -14 20 -32.5t21.5 -40t18.5 -42.5q22 29 50 59t59 56h18l-2 -8q-17 -19 -39.5 -45.5t-43 -54t-34.5 -52.5h-31z" />
    <glyph glyph-name="longs" unicode="&#x17f;" horiz-adv-x="155" 
d="M-102 -240q-13 0 -23 2t-17 4v34q8 -3 17 -4.5t22 -1.5q37 0 53.5 31t26.5 81l155 720q10 45 24 76t35.5 47t55.5 16q13 0 27.5 -3.5t23.5 -7.5l-14 -32q-7 4 -18 6.5t-22 2.5q-23 0 -37.5 -13.5t-23.5 -39.5t-17 -61l-153 -715q-8 -38 -21 -71t-34.5 -52t-59.5 -19z" />
    <glyph glyph-name="fhook" unicode="&#x192;" horiz-adv-x="323" 
d="M28 -241q-39 0 -64 16t-37 43.5t-12 60.5q0 13 1.5 24t5.5 22l32 -9q-2 -9 -3.5 -18t-1.5 -18q0 -26 9 -45.5t26.5 -30.5t43.5 -11q39 0 60 27t31 76l127 599h-60l5 24l62 10l21 97q8 35 17.5 61t22.5 43.5t31.5 26t43.5 8.5q13 0 27.5 -3.5t23.5 -7.5l-14 -32
q-7 4 -18 6.5t-22 2.5q-33 0 -49 -29t-28 -82l-20 -92h70l-7 -33h-70l-127 -602q-13 -67 -43 -100.5t-84 -33.5z" />
    <glyph glyph-name="Aringacute" unicode="&#x1fa;" horiz-adv-x="341" 
d="M195 600q-23 9 -36 29t-13 49q0 40 23 64.5t67 24.5q42 0 65.5 -25.5t23.5 -61.5t-18 -58t-49 -27l16 -595h-38l-5 242h-152l-106 -242h-40zM92 277h139l-5 246q-1 17 -1.5 34.5t0.5 30.5h-2q-4 -13 -10 -30t-15 -37zM235 619q27 0 43 16t16 43q0 26 -15.5 43t-43.5 17
t-43.5 -17t-15.5 -43q0 -27 14 -43t45 -16zM220 801q23 23 45 49t40.5 51.5t30.5 45.5h43v-8q-14 -20 -38 -48.5t-51 -54.5t-51 -43h-19v8z" />
    <glyph glyph-name="aringacute" unicode="&#x1fb;" horiz-adv-x="391" 
d="M132 -10q-35 0 -58 15t-33.5 45t-10.5 76q0 45 8 100t24.5 110t42 100.5t60.5 73.5t80 28q22 0 38.5 -8t28 -24.5t17.5 -40.5h3l19 63h29l-111 -528h-29l11 77h-2q-19 -29 -39 -48.5t-39.5 -29t-38.5 -9.5zM129 25q40 0 68.5 29t49.5 75t35 98q14 49 20.5 94.5t6.5 90.5
q0 42 -18.5 66.5t-50.5 24.5t-59.5 -24.5t-48.5 -66t-35.5 -92.5t-22 -103.5t-7.5 -98.5t13.5 -69.5t48.5 -23.5zM263 581q-40 0 -65 23t-25 64q0 40 24 64.5t66 24.5q41 0 66 -24t25 -62q0 -42 -24 -66t-67 -24zM264 609q26 0 42.5 16t16.5 43q0 28 -15.5 44.5t-43.5 16.5
q-27 0 -43 -16.5t-16 -44.5q0 -30 14.5 -44.5t44.5 -14.5zM266 803q16 21 33 42.5t35 46.5t32 53h57l1 -9q-14 -19 -36.5 -43.5t-50 -49.5t-56.5 -48h-15v8z" />
    <glyph glyph-name="AEacute" unicode="&#x1fc;" horiz-adv-x="489" 
d="M-71 0l333 714h273l-7 -35h-195l-61 -287h183l-8 -34h-183l-68 -323h194l-7 -35h-231l58 274h-114l-127 -274h-40zM112 309h105l80 370h-14zM311 798q24 25 47 52t41.5 53.5t29.5 46.5h43v-8q-10 -16 -27 -37t-37 -42.5t-40.5 -40.5t-37.5 -32h-19v8z" />
    <glyph glyph-name="aeacute" unicode="&#x1fd;" horiz-adv-x="571" 
d="M126 -10q-31 0 -53 17t-33.5 50t-11.5 81q0 49 9 104t26 107.5t42.5 95t59 68t74.5 25.5q27 0 44.5 -11.5t28 -31t14.5 -45.5h2l19 78h28l-18 -87q25 43 57 70t69 27q38 0 61 -22t23 -71q0 -38 -14 -72.5t-43.5 -62.5t-75 -44.5t-108.5 -16.5h-7q-4 -22 -6 -47t-2 -52
q0 -65 21 -96t68 -31q24 0 46 8t43 20l-2 -37q-18 -11 -41 -17.5t-53 -6.5q-46 0 -73.5 26t-34.5 79l-20 -95h-28l15 87h-2q-16 -30 -34 -52t-40 -33.5t-50 -11.5zM134 24q29 0 51 16t39 45t30.5 65.5t22.5 76.5q12 48 20.5 96.5t8.5 89.5q0 42 -17.5 66.5t-48.5 24.5
q-33 0 -60.5 -23.5t-48.5 -63.5t-35.5 -87.5t-22 -97t-7.5 -91.5q0 -63 19 -90t49 -27zM329 281q74 0 118 24t64 61t20 77q0 29 -12.5 45.5t-39.5 16.5q-33 0 -63.5 -30t-54 -80.5t-36.5 -113.5h4zM313 611q24 25 47 52t41.5 53.5t29.5 46.5h43v-8q-10 -16 -27 -37
t-37 -42.5t-40.5 -40.5t-37.5 -32h-19v8z" />
    <glyph glyph-name="Oslashacute" unicode="&#x1fe;" horiz-adv-x="458" 
d="M5 -42l-26 15l69 111q-7 21 -10.5 47t-3.5 58q0 47 7.5 105t21.5 118t36.5 115.5t52.5 100t68.5 70.5t85.5 26q35 0 61.5 -14.5t42.5 -44.5l56 90l26 -15l-68 -109q6 -19 9 -42.5t3 -50.5q0 -45 -7 -103t-20 -119.5t-34.5 -119.5t-51.5 -104.5t-69 -74t-88 -27.5
q-34 0 -60.5 15t-42.5 45zM170 25q39 0 71 25t57 68t43.5 96.5t30.5 110.5t18.5 110t6.5 96q0 15 -0.5 28t-2.5 25l-308 -496q12 -32 33.5 -47.5t50.5 -15.5zM386 628q-10 32 -30.5 46.5t-53.5 14.5q-39 0 -71.5 -25.5t-57.5 -68t-44 -95.5t-31 -109t-18.5 -106.5
t-6.5 -88.5q0 -19 1 -35t3 -31zM296 798q24 25 47 52t41.5 53.5t29.5 46.5h43v-8q-10 -16 -27 -37t-37 -42.5t-40.5 -40.5t-37.5 -32h-19v8z" />
    <glyph glyph-name="oslashacute" unicode="&#x1ff;" horiz-adv-x="372" 
d="M23 -62l-26 15l49 89q-9 18 -14 42.5t-5 55.5q0 36 7 87t22 105.5t39.5 101t59 75.5t82.5 29q21 0 38 -7t31 -21l41 76l26 -15l-49 -89q8 -17 12.5 -40.5t4.5 -54.5q0 -45 -7.5 -98t-23.5 -106t-40 -97t-58 -70t-77 -26q-20 0 -37.5 6.5t-31.5 19.5zM138 23q33 0 59.5 24
t46.5 64t33 88t20 95.5t7 86.5q0 17 -1 31.5t-5 26.5l-213 -389q9 -13 22.5 -20t30.5 -7zM286 476q-8 15 -21.5 22t-31.5 7q-35 0 -62 -26t-46.5 -68.5t-33 -91.5t-20 -95t-6.5 -80q0 -18 2 -33t5 -27zM214 611q24 25 47 52t41.5 53.5t29.5 46.5h43v-8q-10 -16 -27 -37
t-37 -42.5t-40.5 -40.5t-37.5 -32h-19v8z" />
    <glyph glyph-name="uni0218" unicode="&#x218;" horiz-adv-x="348" 
d="M95 -10q-40 0 -71 8t-52 19l2 41q24 -14 54.5 -23.5t68.5 -9.5q34 0 61.5 11t47.5 31.5t30 50t10 67.5q0 30 -8.5 55t-26.5 51t-47 58q-26 30 -45.5 57t-30.5 58t-11 72q0 46 13.5 81t37.5 59t57 36t72 12q38 0 70 -10t49 -22l-19 -34q-17 12 -43 21.5t-60 9.5
q-30 0 -55.5 -9.5t-44 -29t-29 -47t-10.5 -64.5q0 -33 9.5 -60.5t28.5 -54t49 -59.5q25 -27 43.5 -54.5t28.5 -57.5t10 -66q0 -46 -13 -82t-37.5 -62t-59.5 -39.5t-79 -13.5zM29 -206q14 14 30.5 40t32 54.5t22.5 50.5h36v-11q-8 -21 -26 -49t-38.5 -55t-38.5 -45h-18v15z
" />
    <glyph glyph-name="uni0219" unicode="&#x219;" horiz-adv-x="283" 
d="M81 -10q-33 0 -58 7.5t-38 15.5v40q15 -10 40 -19.5t54 -9.5q35 0 57.5 13t33.5 38.5t11 61.5q0 23 -6.5 42t-20 38.5t-34.5 44.5q-18 21 -32.5 42t-22.5 45t-8 55q0 38 16 68t46 48t71 18q36 0 60.5 -9t41.5 -20l-19 -31q-15 10 -35 18.5t-49 8.5q-43 0 -69 -26.5
t-26 -71.5q0 -22 5.5 -41t17.5 -37.5t30 -40.5q23 -27 39.5 -49t24.5 -45t8 -55q0 -48 -16.5 -81t-47 -50.5t-74.5 -17.5zM-5 -206q14 14 30.5 40t32 54.5t22.5 50.5h36v-11q-8 -21 -26 -49t-38.5 -55t-38.5 -45h-18v15z" />
    <glyph glyph-name="circumflex" unicode="&#x2c6;" horiz-adv-x="284" 
d="M115 614q20 21 41.5 46.5t41.5 53t34 52.5h31q4 -20 14 -49.5t21.5 -57.5t19.5 -45l-1 -8h-17q-9 15 -20.5 33.5t-21 39.5t-18.5 42q-22 -28 -50 -58.5t-59 -56.5h-17z" />
    <glyph glyph-name="caron" unicode="&#x2c7;" horiz-adv-x="285" 
d="M201 606q-4 20 -14 49.5t-21 58t-20 44.5l1 8h17q9 -14 20 -32.5t21.5 -40t18.5 -42.5q22 29 50 59t59 56h18l-2 -8q-17 -19 -39.5 -45.5t-43 -54t-34.5 -52.5h-31z" />
    <glyph glyph-name="macronmod" unicode="&#x2c9;" horiz-adv-x="299" 
d="M114 612l6 32h220l-8 -32h-218z" />
    <glyph glyph-name="breve" unicode="&#x2d8;" horiz-adv-x="284" 
d="M227 608q-35 0 -55 12t-28.5 32.5t-8.5 45.5q0 6 0.5 10.5t0.5 7.5h26q0 -24 5.5 -41.5t20 -26.5t40.5 -9q39 0 58 17.5t27 59.5h27q-8 -53 -34 -80.5t-79 -27.5z" />
    <glyph glyph-name="dotaccent" unicode="&#x2d9;" horiz-adv-x="135" 
d="M149 640q-10 0 -16 7t-6 20q0 17 8.5 33.5t25.5 16.5q8 0 13 -3t7.5 -9t2.5 -16q0 -16 -8.5 -32.5t-26.5 -16.5z" />
    <glyph glyph-name="ring" unicode="&#x2da;" horiz-adv-x="263" 
d="M224 611q-41 0 -65 24t-24 65q0 39 24 64t65 25q44 0 66.5 -25.5t23.5 -62.5q0 -38 -24 -64t-66 -26zM225 640q28 0 43.5 16.5t15.5 43.5t-15 44t-44 17t-44.5 -17.5t-15.5 -43.5q0 -27 15.5 -43.5t44.5 -16.5z" />
    <glyph glyph-name="ogonek" unicode="&#x2db;" horiz-adv-x="206" 
d="M25 -217q-34 0 -52 19t-18 48q0 25 9 48t31.5 48t61.5 54h32q-37 -30 -58.5 -54t-30.5 -45.5t-9 -43.5q0 -21 10.5 -31.5t32.5 -10.5q9 0 18.5 2t18.5 4l-6 -30q-8 -3 -17.5 -5.5t-22.5 -2.5z" />
    <glyph glyph-name="tilde" unicode="&#x2dc;" horiz-adv-x="332" 
d="M114 610q6 34 17 55.5t28 32.5t40 11q20 0 34 -9.5t25.5 -22.5t23 -22.5t25.5 -9.5q19 0 31 15t18 49h30q-5 -33 -16 -55t-27.5 -32.5t-37.5 -10.5q-20 0 -34 10t-25.5 23t-23 22.5t-26.5 9.5q-23 0 -34.5 -17t-17.5 -49h-30z" />
    <glyph glyph-name="hungarumlaut" unicode="&#x2dd;" horiz-adv-x="346" 
d="M251 614q25 26 47.5 53.5t41 53t29.5 45.5h42v-8q-10 -16 -27 -37t-37.5 -42.5t-40.5 -40.5t-38 -32h-17v8zM115 614q25 26 47.5 53.5t41 53t29.5 45.5h42v-8q-10 -16 -27 -37t-37.5 -42.5t-41 -40.5t-38.5 -32h-16v8z" />
    <glyph glyph-name="tonos" unicode="&#x384;" horiz-adv-x="173" 
d="M113 606l3 12l81 156h44l-2 -8l-104 -160h-22z" />
    <glyph glyph-name="dieresistonos" unicode="&#x385;" horiz-adv-x="507" 
d="M250 606l3 12l75 156h44l-2 -8l-97 -160h-23zM207 628q-13 0 -18.5 10t-3.5 26q4 16 14 26t23 10q12 0 17.5 -10t2.5 -26q-4 -16 -13.5 -26t-21.5 -10zM369 628q-13 0 -19 10.5t-2 25.5q2 17 12.5 26.5t23.5 9.5q12 0 18.5 -9.5t2.5 -25.5q-3 -17 -13.5 -27t-22.5 -10z
" />
    <glyph glyph-name="Alphatonos" unicode="&#x386;" horiz-adv-x="362" 
d="M-46 0l295 717h47l-1 -717h-38l1 272h-152l-112 -272h-40zM118 307h140l3 288q0 21 0.5 40.5t1.5 33.5h-2q-4 -13 -11 -32t-17 -43zM34 546l3 12l81 156h44l-2 -8l-104 -160h-22z" />
    <glyph glyph-name="anoteleia" unicode="&#x387;" horiz-adv-x="177" 
d="M130 451q-10 0 -16.5 7t-6.5 20q0 18 9 35.5t27 17.5q11 0 17 -7.5t6 -21.5q0 -18 -9.5 -34.5t-26.5 -16.5z" />
    <glyph glyph-name="Epsilontonos" unicode="&#x388;" horiz-adv-x="445" 
d="M104 0l151 714h232l-7 -35h-195l-61 -287h183l-9 -34h-182l-68 -323h195l-7 -35h-232zM70 546l3 12l81 156h44l-2 -8l-104 -160h-22z" />
    <glyph glyph-name="Etatonos" unicode="&#x389;" horiz-adv-x="550" 
d="M104 0l151 714h37l-68 -322h237l68 322h37l-152 -714h-37l76 358h-237l-75 -358h-37zM70 546l3 12l81 156h44l-2 -8l-104 -160h-22z" />
    <glyph glyph-name="Iotatonos" unicode="&#x38a;" horiz-adv-x="306" 
d="M65 0l6 24l64 6l138 653l-61 7l5 24h160l-5 -24l-63 -7l-138 -653l60 -6l-5 -24h-161zM70 546l3 12l81 156h44l-2 -8l-104 -160h-22z" />
    <glyph glyph-name="Omicrontonos" unicode="&#x38c;" horiz-adv-x="532" 
d="M244 -10q-43 0 -72.5 21.5t-44.5 65.5t-15 112q0 47 7.5 105t21.5 118t36.5 115.5t52.5 100t68.5 70.5t84.5 26q64 0 97.5 -44t33.5 -142q0 -45 -7 -103t-20 -119.5t-34.5 -119.5t-51.5 -104.5t-69 -74t-88 -27.5zM248 25q39 0 71 25.5t57.5 69t44 97.5t31 112t18 111.5
t5.5 96.5q0 81 -23 116.5t-72 35.5q-40 0 -72.5 -26t-57.5 -69t-44 -97t-31 -110t-18 -107t-6 -90q0 -58 11 -94.5t32.5 -53.5t53.5 -17zM70 546l3 12l81 156h44l-2 -8l-104 -160h-22z" />
    <glyph glyph-name="Upsilontonos" unicode="&#x38e;" horiz-adv-x="447" 
d="M210 0l59 277l-41 437h37l32 -382l195 382h40l-226 -436l-59 -278h-37zM70 546l3 12l81 156h44l-2 -8l-104 -160h-22z" />
    <glyph glyph-name="Omegatonos" unicode="&#x38f;" horiz-adv-x="582" 
d="M119 0l8 35h122q-33 33 -50.5 82.5t-20 115.5t8.5 146q17 116 47.5 192t77.5 114.5t111 38.5q65 0 100 -37.5t43.5 -115t-8.5 -194.5q-11 -83 -35.5 -148.5t-59.5 -113.5t-80 -80h122l-8 -35h-170l6 26q52 33 89 83.5t62 117.5t37 150q14 103 8.5 172.5t-32.5 104.5
t-79 35t-90 -35.5t-63.5 -104.5t-40.5 -171q-11 -84 -8 -153t22 -119t55 -80l-7 -26h-167zM70 546l3 12l81 156h44l-2 -8l-104 -160h-22z" />
    <glyph glyph-name="iotadieresistonos" unicode="&#x390;" horiz-adv-x="211" 
d="M81 -10q-18 0 -31.5 7t-21 22t-7.5 41q0 12 1.5 25.5t4.5 29.5l88 413h37l-87 -406q-4 -16 -5.5 -29.5t-1.5 -23.5q0 -22 8 -32.5t26 -10.5q8 0 16 2t15 5l-8 -36q-5 -3 -13.5 -5t-20.5 -2zM155 605l3 12l75 156h44l-2 -8l-97 -160h-23zM112 627q-13 0 -18.5 10t-3.5 26
q4 16 14 26t23 10q12 0 17.5 -10t2.5 -26q-4 -16 -13.5 -26t-21.5 -10zM274 627q-13 0 -19 10.5t-2 25.5q2 17 12.5 26.5t23.5 9.5q12 0 18.5 -9.5t2.5 -25.5q-3 -17 -13.5 -27t-22.5 -10z" />
    <glyph glyph-name="Alpha" unicode="&#x391;" horiz-adv-x="342" 
d="M-67 0l295 717h47l-1 -717h-38l1 272h-152l-112 -272h-40zM97 307h140l3 288q0 21 0.5 40.5t1.5 33.5h-2q-4 -13 -11 -32t-17 -43z" />
    <glyph glyph-name="Beta" unicode="&#x392;" horiz-adv-x="385" 
d="M3 0l150 714h101q46 0 75.5 -16.5t45 -45.5t15.5 -70q0 -45 -15 -89t-46 -75.5t-80 -43.5v-2q38 -9 61 -42.5t23 -87.5q0 -66 -23 -121t-70 -88t-120 -33h-117zM120 34q65 0 103 30.5t55 77.5t17 98q0 64 -32 91t-84 27h-63l-69 -324h73zM189 392q58 0 94 28t52 71t16 87
q0 50 -25 76t-79 26h-64l-60 -288h66z" />
    <glyph glyph-name="Gamma" unicode="&#x393;" horiz-adv-x="296" 
d="M2 0l151 714h210l-7 -35h-173l-144 -679h-37z" />
    <glyph glyph-name="Epsilon" unicode="&#x395;" horiz-adv-x="344" 
d="M2 0l151 714h232l-7 -35h-195l-61 -287h183l-9 -34h-182l-68 -323h195l-7 -35h-232z" />
    <glyph glyph-name="Zeta" unicode="&#x396;" horiz-adv-x="311" 
d="M-42 0l7 32l356 647h-208l8 35h250l-7 -33l-356 -646h225l-7 -35h-268z" />
    <glyph glyph-name="Eta" unicode="&#x397;" horiz-adv-x="449" 
d="M2 0l151 714h37l-68 -322h237l68 322h37l-152 -714h-37l76 358h-237l-75 -358h-37z" />
    <glyph glyph-name="Theta" unicode="&#x398;" horiz-adv-x="455" 
d="M137 344l8 34h189l-8 -34h-189zM166 -10q-43 0 -72.5 21.5t-44.5 65.5t-15 112q0 47 7.5 105t21.5 118t36.5 115.5t52.5 100t68.5 70.5t84.5 26q64 0 97.5 -44t33.5 -142q0 -45 -7 -103t-20 -119.5t-34.5 -119.5t-51.5 -104.5t-69 -74t-88 -27.5zM170 25q39 0 71 25.5
t57.5 69t44 97.5t31 112t18 111.5t5.5 96.5q0 81 -23 116.5t-72 35.5q-40 0 -72.5 -26t-57.5 -69t-44 -97t-31 -110t-18 -107t-6 -90q0 -58 11 -94.5t32.5 -53.5t53.5 -17z" />
    <glyph glyph-name="Iota" unicode="&#x399;" horiz-adv-x="184" 
d="M-57 0l6 24l64 6l138 653l-61 7l5 24h160l-5 -24l-63 -7l-138 -653l60 -6l-5 -24h-161z" />
    <glyph glyph-name="Kappa" unicode="&#x39a;" horiz-adv-x="358" 
d="M2 0l151 714h37l-82 -388l66 94l215 294h43l-231 -317l90 -397h-41l-80 367l-72 -87l-59 -280h-37z" />
    <glyph glyph-name="Lambda" unicode="&#x39b;" horiz-adv-x="353" 
d="M-67 0l304 714h47l1 -714h-38l2 577q0 24 1 47t2 47h-2l-18 -50t-22 -57l-238 -564h-39z" />
    <glyph glyph-name="Mu" unicode="&#x39c;" horiz-adv-x="599" 
d="M2 0l151 714h53l34 -662h3l314 662h58l-152 -714h-37l118 556q3 14 6.5 28t7 29.5t7.5 34.5h-2l-307 -648h-49l-32 648h-2q-3 -20 -6 -35t-5.5 -28.5t-5.5 -29.5l-118 -555h-36z" />
    <glyph glyph-name="Nu" unicode="&#x39d;" horiz-adv-x="472" 
d="M2 0l151 714h46l115 -638h3q5 26 10 51t9 47.5t8 37.5l106 502h37l-152 -714h-44l-115 646h-2q-2 -14 -5 -29.5t-6.5 -32.5t-7.5 -35.5t-8 -38.5l-108 -510h-37z" />
    <glyph glyph-name="Xi" unicode="&#x39e;" horiz-adv-x="360" 
d="M-2 0l8 35h251l-7 -35h-252zM89 358l7 34h221l-8 -34h-220zM145 679l8 35h247l-7 -35h-248z" />
    <glyph glyph-name="Omicron" unicode="&#x39f;" horiz-adv-x="455" 
d="M166 -10q-43 0 -72.5 21.5t-44.5 65.5t-15 112q0 47 7.5 105t21.5 118t36.5 115.5t52.5 100t68.5 70.5t84.5 26q64 0 97.5 -44t33.5 -142q0 -45 -7 -103t-20 -119.5t-34.5 -119.5t-51.5 -104.5t-69 -74t-88 -27.5zM170 25q39 0 71 25.5t57.5 69t44 97.5t31 112t18 111.5
t5.5 96.5q0 81 -23 116.5t-72 35.5q-40 0 -72.5 -26t-57.5 -69t-44 -97t-31 -110t-18 -107t-6 -90q0 -58 11 -94.5t32.5 -53.5t53.5 -17z" />
    <glyph glyph-name="Pi" unicode="&#x3a0;" horiz-adv-x="448" 
d="M2 0l151 714h310l-151 -714h-37l144 679h-236l-144 -679h-37z" />
    <glyph glyph-name="Rho" unicode="&#x3a1;" horiz-adv-x="363" 
d="M2 0l151 714h74q51 0 84 -17.5t49.5 -50.5t16.5 -80q0 -58 -15 -106.5t-44 -84t-71 -55t-96 -19.5h-48l-64 -301h-37zM149 335q65 0 107 30t62 82.5t20 115.5q0 54 -26 85t-90 31h-38l-74 -344h39z" />
    <glyph glyph-name="Sigma" unicode="&#x3a3;" horiz-adv-x="310" 
d="M-42 0l7 31l205 343l-45 312l6 28h239l-7 -35h-147q-10 0 -18 0.5t-16 0.5h-19l43 -304l-3 -11l-200 -333q13 1 32 2t50 1h147l-7 -35h-267z" />
    <glyph glyph-name="Tau" unicode="&#x3a4;" horiz-adv-x="304" 
d="M65 0l145 679h-126l7 35h290l-7 -35h-127l-145 -679h-37z" />
    <glyph glyph-name="Upsilon" unicode="&#x3a5;" horiz-adv-x="303" 
d="M65 0l59 277l-41 437h37l32 -382l195 382h40l-226 -436l-59 -278h-37z" />
    <glyph glyph-name="Phi" unicode="&#x3a6;" horiz-adv-x="601" 
d="M212 0l20 92q-56 5 -95.5 27.5t-62 60.5t-29 89.5t1.5 113.5q10 66 33 116t60.5 83.5t90 49t119.5 13.5l14 69h37l-15 -69q57 -5 96.5 -27t62.5 -60t30 -89.5t-2 -114.5q-10 -66 -33 -116.5t-60.5 -83.5t-90.5 -49t-121 -13l-19 -92h-37zM239 126l103 486
q-75 3 -128 -22.5t-85 -77.5t-43 -130q-8 -57 -3 -103t24 -79t52 -52t80 -22zM275 125q76 -3 130 22t86.5 78t42.5 130q8 58 2.5 104t-24.5 79t-52 52t-81 21z" />
    <glyph glyph-name="Chi" unicode="&#x3a7;" horiz-adv-x="317" 
d="M-58 0l214 378l-40 336h37l33 -301l162 301h40l-189 -343l38 -371h-38l-30 333l-188 -333h-39z" />
    <glyph glyph-name="Psi" unicode="&#x3a8;" horiz-adv-x="514" 
d="M171 0l41 193q-39 3 -68.5 14t-47.5 36.5t-20.5 69.5t11.5 112l62 289h36l-60 -283q-14 -66 -12.5 -111t26.5 -68t81 -26l103 488h37l-104 -488q48 1 82.5 19.5t58 62.5t39.5 119l62 287h37l-63 -292q-14 -63 -33 -106.5t-45.5 -71t-62.5 -39.5t-82 -12l-41 -193h-37z
" />
    <glyph glyph-name="Iotadieresis" unicode="&#x3aa;" horiz-adv-x="184" 
d="M-57 0l6 24l64 6l138 653l-61 7l5 24h160l-5 -24l-63 -7l-138 -653l60 -6l-5 -24h-161zM262 832q-10 0 -15.5 6.5t-5.5 19.5q0 15 8 30.5t23 15.5q10 0 15.5 -6.5t5.5 -18.5q0 -16 -8 -31.5t-23 -15.5zM131 832q-9 0 -15 6.5t-6 19.5q0 15 8 30.5t24 15.5q6 0 11 -2.5
t7 -8t2 -14.5q0 -16 -8 -31.5t-23 -15.5z" />
    <glyph glyph-name="Upsilondieresis" unicode="&#x3ab;" horiz-adv-x="303" 
d="M65 0l59 277l-41 437h37l32 -382l195 382h40l-226 -436l-59 -278h-37zM308 809q-10 0 -15.5 6.5t-5.5 19.5q0 15 8 30.5t23 15.5q10 0 15.5 -6.5t5.5 -18.5q0 -16 -8 -31.5t-23 -15.5zM177 809q-9 0 -15 6.5t-6 19.5q0 15 8 30.5t24 15.5q6 0 11 -2.5t7 -8t2 -14.5
q0 -16 -8 -31.5t-23 -15.5z" />
    <glyph glyph-name="alphatonos" unicode="&#x3ac;" horiz-adv-x="410" 
d="M124 -10q-47 0 -72.5 38t-25.5 110q0 44 8 98t25 107t42 97t58 71t75 27q26 0 45.5 -11t31 -31.5t14.5 -49.5h2l26 82h24l-77 -366q-6 -29 -11.5 -55t-5.5 -44t7 -28.5t23 -10.5q6 0 14 1t22 6l-7 -34q-8 -2 -15 -4t-13.5 -2.5t-11.5 -0.5q-26 0 -38 12.5t-14.5 35
t0.5 48.5h-2q-17 -32 -35.5 -53t-40 -32t-48.5 -11zM130 24q39 0 67.5 30.5t48.5 77.5t32 95q14 52 20.5 96.5t6.5 72.5q0 55 -18 81.5t-52 26.5t-61.5 -24.5t-48 -65.5t-34 -90t-20.5 -97t-7 -86q0 -62 18 -89.5t48 -27.5zM243 605l3 12l81 156h44l-2 -8l-104 -160h-22z
" />
    <glyph glyph-name="epsilontonos" unicode="&#x3ad;" horiz-adv-x="263" 
d="M129 -10q-44 0 -69.5 21.5t-33.5 58.5t-2 81q8 55 33 86t61 39v3q-26 12 -40 44.5t-7 87.5q6 43 24 71t46 42.5t61 14.5q25 0 45 -7.5t35 -21.5l-15 -32q-11 11 -28 18.5t-38 7.5q-29 0 -48.5 -12.5t-30 -34t-14.5 -48.5q-6 -50 6.5 -82.5t57.5 -32.5h37l-7 -34h-34
q-33 0 -55 -12t-34.5 -35t-17.5 -59q-9 -61 8 -95.5t67 -34.5q24 0 41 4t32 13v-33q-15 -9 -35 -13.5t-45 -4.5zM206 605l3 12l81 156h44l-2 -8l-104 -160h-22z" />
    <glyph glyph-name="etatonos" unicode="&#x3ae;" horiz-adv-x="368" 
d="M284 338q6 28 11.5 57t5.5 53q0 28 -14.5 42t-40.5 14q-27 0 -48.5 -13.5t-38.5 -41t-31 -68t-26 -94.5l-61 -287h-36l111 528h30l-13 -77h2q9 21 21.5 37t27.5 27t33 17t37 6q25 0 44 -9.5t29.5 -28t10.5 -47.5q0 -23 -6 -57t-12 -64l-122 -572h-36zM198 605l3 12
l81 156h44l-2 -8l-104 -160h-22z" />
    <glyph glyph-name="iotatonos" unicode="&#x3af;" horiz-adv-x="173" 
d="M81 -10q-18 0 -31.5 7t-21 22t-7.5 41q0 12 1.5 25.5t4.5 29.5l88 413h37l-87 -406q-4 -16 -5.5 -29.5t-1.5 -23.5q0 -22 8 -32.5t26 -10.5q8 0 16 2t15 5l-8 -36q-5 -3 -13.5 -5t-20.5 -2zM140 605l3 12l81 156h44l-2 -8l-104 -160h-22z" />
    <glyph glyph-name="upsilondieresistonos" unicode="&#x3b0;" horiz-adv-x="367" 
d="M117 -10q-40 0 -62.5 17t-27.5 51.5t6 86.5l83 383h36l-83 -384q-14 -65 -1 -92t53 -27q64 0 105.5 59.5t60.5 160.5q9 47 14 87.5t6.5 75.5t1 65t-2.5 55h35q5 -32 5 -76.5t-5 -97.5t-17 -113q-15 -82 -44 -138t-70 -84.5t-93 -28.5zM235 605l3 12l75 156h44l-2 -8
l-97 -160h-23zM192 627q-13 0 -18.5 10t-3.5 26q4 16 14 26t23 10q12 0 17.5 -10t2.5 -26q-4 -16 -13.5 -26t-21.5 -10zM354 627q-13 0 -19 10.5t-2 25.5q2 17 12.5 26.5t23.5 9.5q12 0 18.5 -9.5t2.5 -25.5q-3 -17 -13.5 -27t-22.5 -10z" />
    <glyph glyph-name="alpha" unicode="&#x3b1;" horiz-adv-x="410" 
d="M124 -10q-47 0 -72.5 38t-25.5 110q0 44 8 98t25 107t42 97t58 71t75 27q26 0 45.5 -11t31 -31.5t14.5 -49.5h2l26 82h24l-77 -366q-6 -29 -11.5 -55t-5.5 -44t7 -28.5t23 -10.5q6 0 14 1t22 6l-7 -34q-8 -2 -15 -4t-13.5 -2.5t-11.5 -0.5q-26 0 -38 12.5t-14.5 35
t0.5 48.5h-2q-17 -32 -35.5 -53t-40 -32t-48.5 -11zM130 24q39 0 67.5 30.5t48.5 77.5t32 95q14 52 20.5 96.5t6.5 72.5q0 55 -18 81.5t-52 26.5t-61.5 -24.5t-48 -65.5t-34 -90t-20.5 -97t-7 -86q0 -62 18 -89.5t48 -27.5z" />
    <glyph glyph-name="beta" unicode="&#x3b2;" horiz-adv-x="385" 
d="M-43 -229l173 812q13 59 32.5 99.5t50.5 61.5t77 21q34 0 59 -13.5t39 -41.5t14 -71q0 -55 -16.5 -107t-50 -87.5t-86.5 -44.5q44 -9 70.5 -47.5t26.5 -100.5q0 -44 -11 -90t-34.5 -85t-60.5 -63t-89 -24q-32 0 -59.5 12t-43.5 27l-55 -258h-36zM151 24q42 0 71.5 21
t49 54.5t28.5 73t9 76.5q0 46 -13 75.5t-37 44.5t-59 15h-16l7 33h15q43 0 73 19.5t49 51.5t27.5 71t8.5 76q0 50 -20 73t-57 23q-32 0 -55 -15.5t-38.5 -48.5t-27.5 -85l-109 -517q16 -16 41.5 -28.5t52.5 -12.5z" />
    <glyph glyph-name="gamma" unicode="&#x3b3;" horiz-adv-x="314" 
d="M15 -204l46 218l-4 514h36l1 -364v-31v-41.5t-2 -40.5h4q48 63 87.5 135.5t67.5 157.5t38 184h38q-11 -105 -43 -196.5t-79 -171.5t-108 -152l-45 -212h-37z" />
    <glyph glyph-name="delta" unicode="&#x3b4;" horiz-adv-x="376" 
d="M150 -10q-37 0 -65.5 18t-44.5 53.5t-16 88.5q0 69 22.5 133t68 112.5t113.5 71.5q-25 38 -40.5 72.5t-15.5 81.5q0 43 17 73.5t48 47t74 16.5q38 0 64 -11t39 -21l-20 -30q-14 10 -35.5 19t-51.5 9q-45 0 -71.5 -26.5t-26.5 -74.5q0 -28 7.5 -52t21.5 -47.5t31 -51.5
q23 -36 37.5 -70t21.5 -71.5t7 -81.5q0 -46 -10.5 -92t-32.5 -83.5t-57 -60.5t-85 -23zM154 24q41 0 68.5 22t43.5 56.5t23.5 73.5t7.5 73q0 38 -5.5 72t-17.5 64t-30 57q-63 -22 -103 -67t-59.5 -103.5t-19.5 -119.5q0 -42 11 -71t32 -43t49 -14z" />
    <glyph glyph-name="epsilon" unicode="&#x3b5;" horiz-adv-x="263" 
d="M129 -10q-44 0 -69.5 21.5t-33.5 58.5t-2 81q8 55 33 86t61 39v3q-26 12 -40 44.5t-7 87.5q6 43 24 71t46 42.5t61 14.5q25 0 45 -7.5t35 -21.5l-15 -32q-11 11 -28 18.5t-38 7.5q-29 0 -48.5 -12.5t-30 -34t-14.5 -48.5q-6 -50 6.5 -82.5t57.5 -32.5h37l-7 -34h-34
q-33 0 -55 -12t-34.5 -35t-17.5 -59q-9 -61 8 -95.5t67 -34.5q24 0 41 4t32 13v-33q-15 -9 -35 -13.5t-45 -4.5z" />
    <glyph glyph-name="zeta" unicode="&#x3b6;" horiz-adv-x="274" 
d="M148 -202q20 27 34.5 49t19.5 55q3 22 -1 40t-18.5 32.5t-46.5 26.5q-44 16 -72.5 43t-39.5 66.5t-3 95.5q6 35 17.5 70.5t32.5 76t54.5 93t80.5 123.5l107 161q-9 -1 -21 -1.5t-23 -1t-21 -0.5h-130l7 33h230l-5 -26l-118 -179q-55 -82 -91 -144t-55.5 -111t-26.5 -95
q-5 -38 0.5 -71t28.5 -59.5t70 -44.5q32 -12 51 -30t26 -41.5t2 -54.5q-3 -20 -9.5 -38t-17 -34t-25.5 -34h-37z" />
    <glyph glyph-name="eta" unicode="&#x3b7;" horiz-adv-x="368" 
d="M284 338q6 28 11.5 57t5.5 53q0 28 -14.5 42t-40.5 14q-27 0 -48.5 -13.5t-38.5 -41t-31 -68t-26 -94.5l-61 -287h-36l111 528h30l-13 -77h2q9 21 21.5 37t27.5 27t33 17t37 6q25 0 44 -9.5t29.5 -28t10.5 -47.5q0 -23 -6 -57t-12 -64l-122 -572h-36z" />
    <glyph glyph-name="theta" unicode="&#x3b8;" horiz-adv-x="372" 
d="M30 168q0 30 3.5 69t10.5 84t17 92q14 65 34 128.5t47.5 115t63 82.5t77.5 31q35 0 56.5 -17t32 -53t10.5 -93q0 -37 -4 -82.5t-12 -95.5t-20 -98q-14 -66 -35 -127t-47.5 -109.5t-58.5 -77.5t-72 -29q-33 0 -56.5 18t-35 57.5t-11.5 104.5zM67 167q0 -83 18 -114t48 -31
q34 0 62 30t51.5 81t41.5 114t31 130h-227q-12 -63 -18.5 -117.5t-6.5 -92.5zM98 410h226q11 58 16 110t5 89q0 72 -15 100t-48 28q-32 0 -59.5 -27.5t-50.5 -74t-41.5 -105t-32.5 -120.5z" />
    <glyph glyph-name="iota" unicode="&#x3b9;" horiz-adv-x="173" 
d="M81 -10q-18 0 -31.5 7t-21 22t-7.5 41q0 12 1.5 25.5t4.5 29.5l88 413h37l-87 -406q-4 -16 -5.5 -29.5t-1.5 -23.5q0 -22 8 -32.5t26 -10.5q8 0 16 2t15 5l-8 -36q-5 -3 -13.5 -5t-20.5 -2z" />
    <glyph glyph-name="kappa" unicode="&#x3ba;" horiz-adv-x="309" 
d="M4 0l115 528h36l-36 -161q-6 -29 -13.5 -62.5t-14.5 -59.5h1l215 284h40l-155 -207l53 -322h-37l-47 288l-81 -99l-40 -189h-36z" />
    <glyph glyph-name="lambda" unicode="&#x3bb;" horiz-adv-x="355" 
d="M262 -10q-24 0 -39 11t-21 34.5t-6 63.5l2 268q0 26 0.5 41t0 23t0 14t0.5 15h-4q-4 -14 -10 -27t-13 -27l-179 -406h-38l241 532l3 125q1 44 -13 58t-37 14q-9 0 -19.5 -2.5t-19.5 -6.5l8 37q4 2 10 3.5t14 3t17 1.5q22 0 39 -8.5t26.5 -29.5t9.5 -61l-1 -564
q0 -30 4 -46.5t13 -23.5t23 -7q8 0 14.5 1.5t10.5 2.5l-8 -34q-3 -2 -7 -3t-9 -1.5t-12 -0.5z" />
    <glyph glyph-name="nu" unicode="&#x3bd;" horiz-adv-x="314" 
d="M61 0l-4 528h36l1 -364v-31v-41.5t-2 -40.5h4q48 63 87.5 135.5t67.5 157.5t38 184h38q-11 -105 -43 -196.5t-80 -173t-111 -158.5h-32z" />
    <glyph glyph-name="xi" unicode="&#x3be;" horiz-adv-x="337" 
d="M161 -202q17 23 28.5 40.5t18.5 36t8 44.5q1 27 -12.5 46.5t-52.5 33.5q-41 15 -69 36.5t-41.5 53t-13.5 76.5q0 62 19 113.5t54 85.5t83 42v2q-33 17 -46.5 45t-13.5 68q0 34 9.5 67.5t27 62t42.5 49.5t57 30q-10 -1 -20 -1.5t-19 -1t-17 -0.5h-64l7 33h223l-5 -29h-22
q-36 0 -64.5 -12.5t-50 -33.5t-37 -48t-22.5 -56.5t-7 -57.5q0 -33 10.5 -56t31 -35t50.5 -12h38l-7 -33h-47q-42 0 -74 -17t-54 -47t-32.5 -68.5t-11.5 -81.5q1 -39 12 -66t34.5 -45t61.5 -33q29 -10 46.5 -25.5t25 -35.5t6.5 -45q0 -24 -7.5 -45.5t-18.5 -41t-27 -38.5
h-37z" />
    <glyph glyph-name="omicron" unicode="&#x3bf;" horiz-adv-x="369" 
d="M135 -10q-32 0 -57 15.5t-38 49t-13 85.5q0 37 7 88t22 105.5t39.5 101t59.5 75t82 28.5q33 0 56 -16t35.5 -49.5t12.5 -85.5q0 -47 -7.5 -100.5t-24 -106t-40.5 -96t-57.5 -69t-76.5 -25.5zM138 24q33 0 60 24.5t47 65.5t33 89.5t19.5 97t6.5 86.5q0 39 -8 65.5
t-23.5 39.5t-39.5 13q-35 0 -62.5 -27t-47.5 -70t-33 -92.5t-19 -96t-6 -79.5q0 -58 19 -87t54 -29z" />
    <glyph glyph-name="pi" unicode="&#x3c0;" horiz-adv-x="373" 
d="M269 -4q-25 0 -41 14.5t-16 46.5q0 14 2.5 31.5t6.5 35.5l78 371h-138l-108 -495h-37l109 495h-68l7 33h340l-6 -33h-62l-80 -373q-3 -19 -5.5 -33t-2.5 -27q0 -15 8 -23.5t23 -8.5q8 0 16 2.5t13 3.5v-32q-7 -3 -17.5 -5.5t-21.5 -2.5z" />
    <glyph glyph-name="rho" unicode="&#x3c1;" horiz-adv-x="380" 
d="M75 331q12 52 27 91t34.5 64.5t45.5 38.5t58 13q38 0 61.5 -18t35 -53t13.5 -89q2 -41 -5.5 -92t-23 -103t-40.5 -95.5t-59.5 -70.5t-78.5 -27q-34 0 -57.5 12t-37.5 29q-2 -12 -5 -25.5t-6 -29.5l-45 -216h-36zM141 23q34 0 62.5 24t49.5 64t34.5 87t20 94t4.5 85
q-2 63 -18.5 95t-58.5 32q-34 0 -57 -21t-39 -62t-29 -103l-52 -252q11 -17 33 -30t50 -13z" />
    <glyph glyph-name="uni03C2" unicode="&#x3c2;" horiz-adv-x="334" 
d="M158 -202q13 19 23.5 33.5t18.5 31.5t11 40q3 21 -1 38.5t-18 32t-44 25.5q-39 15 -66 37t-40 54t-13 77q0 39 8.5 88.5t25 99t41.5 91t59 67t77 25.5q19 0 37 -3.5t31 -9.5l-14 -33q-12 6 -26.5 9t-28.5 3q-33 0 -59.5 -21.5t-48 -57.5t-36 -80t-22 -89.5t-8.5 -86.5
q1 -30 10 -56.5t31.5 -47t63.5 -36.5q31 -12 49.5 -29.5t25.5 -41t2 -54.5q-3 -20 -10 -38t-17.5 -34t-24.5 -34h-37z" />
    <glyph glyph-name="sigma" unicode="&#x3c3;" horiz-adv-x="372" 
d="M140 -10q-47 0 -74.5 31t-34 90.5t7.5 144.5q13 86 42.5 147t77.5 93t119 32h130l-6 -33h-99q33 -42 35.5 -107t-9.5 -137q-10 -66 -28 -115t-42 -81.5t-54.5 -48.5t-64.5 -16zM144 24q53 0 91 57.5t57 171.5q7 46 10.5 90.5t-2 83.5t-27.5 68h-6q-56 0 -93.5 -28.5
t-60.5 -81.5t-36 -129q-13 -73 -11 -125.5t21 -79.5t57 -27z" />
    <glyph glyph-name="tau" unicode="&#x3c4;" horiz-adv-x="251" 
d="M136 -12q-35 0 -56 19t-21 58q0 13 2.5 32t8.5 45l76 353h-89l7 33h229l-7 -33h-104l-76 -359q-3 -20 -6 -35.5t-3 -30.5q0 -24 12.5 -36t34.5 -12q12 0 22 2.5l18 4.5v-33q-9 -3 -21 -5.5t-27 -2.5z" />
    <glyph glyph-name="upsilon" unicode="&#x3c5;" horiz-adv-x="367" 
d="M117 -10q-40 0 -62.5 17t-27.5 51.5t6 86.5l83 383h36l-83 -384q-14 -65 -1 -92t53 -27q64 0 105.5 59.5t60.5 160.5q9 47 14 87.5t6.5 75.5t1 65t-2.5 55h35q5 -32 5 -76.5t-5 -97.5t-17 -113q-15 -82 -44 -138t-70 -84.5t-93 -28.5z" />
    <glyph glyph-name="phi" unicode="&#x3c6;" horiz-adv-x="458" 
d="M104 -240l47 229q-34 5 -61 27t-42 60.5t-15 94.5q0 74 17.5 144t50.5 128t78 93l25 -23q-39 -31 -69 -83t-47.5 -118.5t-17.5 -140.5q0 -47 11.5 -78.5t31.5 -49t45 -21.5l83 396q9 40 23 67.5t34.5 41.5t46.5 14q29 0 49 -15.5t30.5 -46t10.5 -76.5q0 -49 -9 -104.5
t-28 -109.5t-48 -98.5t-69.5 -72.5t-93.5 -30l-48 -228h-35zM194 21q44 5 77.5 31.5t57 68.5t39 91.5t22.5 98.5t7 91q0 35 -6 58t-17.5 35t-29.5 12q-24 0 -40.5 -22t-27.5 -71z" />
    <glyph glyph-name="chi" unicode="&#x3c7;" horiz-adv-x="380" 
d="M240 -240q-16 0 -27 5.5t-17 19.5t-8 38l-55 619q-3 33 -9.5 47t-26.5 14q-9 0 -16.5 -2t-12.5 -4l7 34q6 2 15.5 4t20.5 2q21 0 32 -8t16 -25t7 -44l55 -620q2 -16 5 -26.5t9.5 -15.5t17.5 -5q6 0 11 1.5t10 3.5l-7 -33q-4 -1 -8 -2.5t-8.5 -2t-10.5 -0.5zM-54 -234
l219 392l3 -55l-184 -337h-38zM188 131l-4 54l181 344h39z" />
    <glyph glyph-name="psi" unicode="&#x3c8;" horiz-adv-x="441" 
d="M103 -234l48 227q-57 2 -84 28t-29.5 77.5t14.5 130.5l63 299h36l-64 -299q-13 -64 -13.5 -108t18.5 -67.5t66 -26.5l156 738h36l-156 -738q48 3 81.5 32.5t56 84.5t34.5 133q9 50 13 93.5t4.5 82t-2.5 75.5h36q3 -40 2.5 -79.5t-4 -81.5t-11.5 -92q-15 -89 -43 -151
t-71 -95t-103 -36l-48 -227h-36z" />
    <glyph glyph-name="omega" unicode="&#x3c9;" horiz-adv-x="471" 
d="M111 -10q-26 0 -43 14.5t-25.5 44.5t-7.5 76.5t13 108.5q13 63 30.5 118t41 99.5t55.5 76.5h39q-33 -33 -57.5 -78.5t-41.5 -100.5t-30 -116q-12 -70 -13 -116t10.5 -69t35.5 -23q23 0 39 20t29.5 59t24.5 93l32 152h37l-32 -152q-12 -57 -11 -95.5t14 -57.5t34 -19
q25 0 43.5 19.5t33.5 61.5t27 111q13 59 16 118t-1 109.5t-15 83.5h37q11 -33 15.5 -82.5t1 -108t-16.5 -121.5q-13 -76 -33 -126.5t-47.5 -75t-66.5 -24.5q-22 0 -38 12.5t-24.5 34.5t-6.5 50h-2q-9 -28 -23.5 -50t-32.5 -34.5t-41 -12.5z" />
    <glyph glyph-name="iotadieresis" unicode="&#x3ca;" horiz-adv-x="173" 
d="M81 -10q-18 0 -31.5 7t-21 22t-7.5 41q0 12 1.5 25.5t4.5 29.5l88 413h37l-87 -406q-4 -16 -5.5 -29.5t-1.5 -23.5q0 -22 8 -32.5t26 -10.5q8 0 16 2t15 5l-8 -36q-5 -3 -13.5 -5t-20.5 -2zM228 645q-10 0 -15.5 6.5t-5.5 19.5q0 15 8 30.5t23 15.5q10 0 15.5 -6.5
t5.5 -18.5q0 -16 -8 -31.5t-23 -15.5zM97 645q-9 0 -15 6.5t-6 19.5q0 15 8 30.5t24 15.5q6 0 11 -2.5t7 -8t2 -14.5q0 -16 -8 -31.5t-23 -15.5z" />
    <glyph glyph-name="upsilondieresis" unicode="&#x3cb;" horiz-adv-x="367" 
d="M117 -10q-40 0 -62.5 17t-27.5 51.5t6 86.5l83 383h36l-83 -384q-14 -65 -1 -92t53 -27q64 0 105.5 59.5t60.5 160.5q9 47 14 87.5t6.5 75.5t1 65t-2.5 55h35q5 -32 5 -76.5t-5 -97.5t-17 -113q-15 -82 -44 -138t-70 -84.5t-93 -28.5zM320 645q-10 0 -15.5 6.5t-5.5 19.5
q0 15 8 30.5t23 15.5q10 0 15.5 -6.5t5.5 -18.5q0 -16 -8 -31.5t-23 -15.5zM189 645q-9 0 -15 6.5t-6 19.5q0 15 8 30.5t24 15.5q6 0 11 -2.5t7 -8t2 -14.5q0 -16 -8 -31.5t-23 -15.5z" />
    <glyph glyph-name="omicrontonos" unicode="&#x3cc;" horiz-adv-x="369" 
d="M135 -10q-32 0 -57 15.5t-38 49t-13 85.5q0 37 7 88t22 105.5t39.5 101t59.5 75t82 28.5q33 0 56 -16t35.5 -49.5t12.5 -85.5q0 -47 -7.5 -100.5t-24 -106t-40.5 -96t-57.5 -69t-76.5 -25.5zM138 24q33 0 60 24.5t47 65.5t33 89.5t19.5 97t6.5 86.5q0 39 -8 65.5
t-23.5 39.5t-39.5 13q-35 0 -62.5 -27t-47.5 -70t-33 -92.5t-19 -96t-6 -79.5q0 -58 19 -87t54 -29zM245 604l3 12l81 156h44l-2 -8l-104 -160h-22z" />
    <glyph glyph-name="upsilontonos" unicode="&#x3cd;" horiz-adv-x="367" 
d="M117 -10q-40 0 -62.5 17t-27.5 51.5t6 86.5l83 383h36l-83 -384q-14 -65 -1 -92t53 -27q64 0 105.5 59.5t60.5 160.5q9 47 14 87.5t6.5 75.5t1 65t-2.5 55h35q5 -32 5 -76.5t-5 -97.5t-17 -113q-15 -82 -44 -138t-70 -84.5t-93 -28.5zM231 605l3 12l81 156h44l-2 -8
l-104 -160h-22z" />
    <glyph glyph-name="omegatonos" unicode="&#x3ce;" horiz-adv-x="471" 
d="M111 -10q-26 0 -43 14.5t-25.5 44.5t-7.5 76.5t13 108.5q13 63 30.5 118t41 99.5t55.5 76.5h39q-33 -33 -57.5 -78.5t-41.5 -100.5t-30 -116q-12 -70 -13 -116t10.5 -69t35.5 -23q23 0 39 20t29.5 59t24.5 93l32 152h37l-32 -152q-12 -57 -11 -95.5t14 -57.5t34 -19
q25 0 43.5 19.5t33.5 61.5t27 111q13 59 16 118t-1 109.5t-15 83.5h37q11 -33 15.5 -82.5t1 -108t-16.5 -121.5q-13 -76 -33 -126.5t-47.5 -75t-66.5 -24.5q-22 0 -38 12.5t-24.5 34.5t-6.5 50h-2q-9 -28 -23.5 -50t-32.5 -34.5t-41 -12.5zM301 605l3 12l81 156h44l-2 -8
l-104 -160h-22z" />
    <glyph glyph-name="uni0401" unicode="&#x401;" horiz-adv-x="343" 
d="M4 0l151 714h232l-7 -35h-195l-61 -287h183l-8 -34h-183l-68 -323h195l-7 -35h-232zM336 857q4 15 12 23.5t18 8.5q14 0 20 -10t2 -29q-4 -16 -12 -24.5t-18 -8.5q-14 0 -20 11t-2 29zM212 857q4 15 12 23.5t18 8.5q14 0 20 -10t2 -29q-4 -16 -12 -24.5t-18 -8.5
q-14 0 -20 11t-2 29z" />
    <glyph glyph-name="uni0402" unicode="&#x402;" horiz-adv-x="445" 
d="M229 -10q-15 0 -29 2.5t-25 6.5v35q10 -4 23 -7t28 -3q46 0 76.5 33.5t46.5 86t16 109.5q0 69 -30 99.5t-82 30.5q-24 0 -46 -4.5t-47 -14.5l21 19l-81 -383h-37l145 679h-115l7 35h315l-7 -35h-163l-62 -284l-15 5q22 8 44.5 12.5t46.5 4.5q67 0 105.5 -40t38.5 -123
q0 -46 -10.5 -92.5t-32 -85.5t-54 -62.5t-77.5 -23.5z" />
    <glyph glyph-name="uni0403" unicode="&#x403;" horiz-adv-x="302" 
d="M13 0l152 714h220l-7 -35h-183l-145 -679h-37zM256 800l118 152h43v-8l-142 -152h-19v8z" />
    <glyph glyph-name="uni0404" unicode="&#x404;" horiz-adv-x="366" 
d="M204 -10q-51 0 -85.5 26t-52 76.5t-17 122t19.5 161.5q16 71 40.5 133.5t59 111t79.5 76.5t102 28q25 0 47.5 -6t42.5 -19l-16 -33q-17 12 -36 17.5t-40 5.5q-49 0 -87.5 -25.5t-67.5 -69.5t-50.5 -102t-35.5 -124q-23 -108 -19 -185t34.5 -118t85.5 -41q18 0 40 4t39 12
v-35q-18 -7 -39 -11.5t-44 -4.5zM90 359l8 35h217l-7 -35h-218z" />
    <glyph glyph-name="uni0405" unicode="&#x405;" horiz-adv-x="344" 
d="M103 -10q-40 0 -71 8t-52 19l2 41q24 -14 54.5 -23.5t68.5 -9.5q39 0 68.5 13t48.5 38.5t27 60.5q8 37 4 69t-23.5 66t-57.5 77q-44 49 -64 89.5t-23 77t5 73.5q10 45 35 74.5t61 45t79 15.5q32 0 64 -9t55 -23l-19 -33q-21 14 -48 22t-55 8q-34 0 -62 -12t-46 -36
t-26 -59q-8 -37 -2.5 -70.5t26.5 -68.5t58 -78q40 -44 59 -83.5t22.5 -76t-4.5 -73.5q-9 -44 -34 -76.5t-63 -49t-87 -16.5z" />
    <glyph glyph-name="uni0406" unicode="&#x406;" horiz-adv-x="175" 
d="M13 0l152 714h36l-152 -714h-36z" />
    <glyph glyph-name="uni0407" unicode="&#x407;" horiz-adv-x="175" 
d="M13 0l152 714h36l-152 -714h-36zM162 817q-14 0 -20 11t-1 29q3 15 11 23.5t19 8.5q13 0 19 -10t2 -29q-4 -16 -11.5 -24.5t-18.5 -8.5zM255 817q-14 0 -19.5 11t-1.5 29q4 15 11.5 23.5t18.5 8.5q14 0 20 -10t1 -29q-3 -16 -11 -24.5t-19 -8.5z" />
    <glyph glyph-name="uni0408" unicode="&#x408;" horiz-adv-x="164" 
d="M-89 -176q-14 0 -26.5 2.5t-22.5 6.5v36q10 -4 22.5 -7t24.5 -3q38 0 56.5 26.5t32.5 91.5l156 737h37l-158 -746q-10 -50 -26 -81.5t-39 -47t-57 -15.5z" />
    <glyph glyph-name="uni0409" unicode="&#x409;" horiz-adv-x="649" 
d="M-27 -7q-7 0 -14 1t-13 3v34q5 -1 11 -2t14 -1q26 0 44 13.5t33.5 44.5t29.5 86l145 542h246l-64 -303h51q59 0 96.5 -27t50.5 -77t-3 -121q-20 -94 -74 -140t-143 -46h-102l145 679h-177l-138 -519q-17 -64 -37.5 -101t-45 -51.5t-55.5 -14.5zM325 35h59
q74 0 117.5 37.5t60.5 119.5q19 91 -10 138t-101 47h-53z" />
    <glyph glyph-name="uni040A" unicode="&#x40a;" horiz-adv-x="644" 
d="M14 0l151 714h36l-65 -309h227l65 309h36l-64 -309h51q58 0 95.5 -26t51 -76t-1.5 -120q-20 -92 -74 -137.5t-144 -45.5h-100l78 370h-227l-79 -370h-36zM322 35h57q74 0 118 37t61 117q18 90 -11 136t-101 46h-53z" />
    <glyph glyph-name="uni040B" unicode="&#x40b;" horiz-adv-x="455" 
d="M63 0l145 679h-115l7 35h315l-7 -35h-163l-62 -285l-15 5q22 9 46 13.5t49 4.5q79 0 116.5 -46t18.5 -134l-51 -237h-36l50 236q16 74 -11.5 110.5t-93.5 36.5q-24 0 -47 -4.5t-50 -14.5l22 20l-81 -384h-37z" />
    <glyph glyph-name="uni040C" unicode="&#x40c;" horiz-adv-x="379" 
d="M284 0l-87 363l3 23l221 328h42l-239 -354l4 31l96 -391h-40zM14 0l151 714h37l-151 -714h-37zM118 357l7 35h98l-7 -35h-98zM295 800l118 152h43v-8l-142 -152h-19v8z" />
    <glyph glyph-name="uni040E" unicode="&#x40e;" horiz-adv-x="331" 
d="M6 -10q-8 0 -16 1t-14 3v35q6 -2 13 -3t15 -1q21 0 36.5 8.5t29.5 29t31 56t41 89.5l-6 -41l-39 547h38l25 -389q1 -13 1.5 -27t1.5 -27.5t1 -27.5q9 21 17 41.5t17 39.5l182 390h39l-263 -563q-27 -57 -47.5 -92.5t-44 -52t-58.5 -16.5zM274 781q-45 0 -71 24t-26 69v9
t1 9h33q-1 -7 -1 -10.5v-6.5q0 -33 17 -49t48 -16q41 0 62 22.5t28 59.5h35q-10 -52 -42 -81.5t-84 -29.5z" />
    <glyph glyph-name="uni040F" unicode="&#x40f;" horiz-adv-x="440" 
d="M114 -145l31 145h-132l152 714h37l-145 -679h227l146 679h37l-153 -714h-132l-31 -145h-37z" />
    <glyph glyph-name="uni0410" unicode="&#x410;" horiz-adv-x="342" 
d="M-55 0l295 717h47l-1 -717h-38l1 272h-152l-112 -272h-40zM109 307h140l3 288q0 21 0.5 40.5t1.5 33.5h-2q-4 -13 -11 -32t-17 -43z" />
    <glyph glyph-name="uni0411" unicode="&#x411;" horiz-adv-x="390" 
d="M14 0l151 714h243l-7 -35h-207l-58 -276h57q59 0 97 -26t51 -75.5t-3 -120.5q-20 -92 -74.5 -136.5t-142.5 -44.5h-107zM58 35h64q73 0 117 36t61 116q19 90 -10 136t-101 46h-60z" />
    <glyph glyph-name="uni0412" unicode="&#x412;" horiz-adv-x="394" 
d="M15 0l150 714h98q55 0 88.5 -23.5t45 -66t-0.5 -99.5q-13 -58 -45.5 -98t-89.5 -53v-2q34 -10 55 -37t27.5 -67t-4.5 -89q-17 -81 -69.5 -130t-144.5 -49h-110zM59 34h65q80 0 121.5 40.5t55.5 108.5q12 54 2 93t-38 60.5t-74 21.5h-63zM135 392h65q70 0 107.5 38
t50.5 97q14 71 -9.5 112t-91.5 41h-62z" />
    <glyph glyph-name="uni0413" unicode="&#x413;" horiz-adv-x="302" 
d="M13 0l152 714h220l-7 -35h-183l-145 -679h-37z" />
    <glyph glyph-name="uni0414" unicode="&#x414;" horiz-adv-x="498" 
d="M-78 -145l37 180h49q37 46 63 88t45.5 91t37.5 118l102 382h259l-144 -679h68l-38 -180h-37l31 145h-406l-30 -145h-37zM53 35h281l137 644h-189l-93 -351q-18 -71 -39 -122t-44.5 -92t-52.5 -79z" />
    <glyph glyph-name="uni0415" unicode="&#x415;" horiz-adv-x="343" 
d="M4 0l151 714h232l-7 -35h-195l-61 -287h183l-8 -34h-183l-68 -323h195l-7 -35h-232z" />
    <glyph glyph-name="uni0416" unicode="&#x416;" horiz-adv-x="541" 
d="M-60 0l259 397l-6 -39l-84 356h36l78 -332l-6 -23l-234 -359h-43zM196 0l152 714h36l-152 -714h-36zM204 357l8 35h176l-7 -35h-177zM446 0l-82 363l3 23l216 328h41l-232 -352l3 32l91 -394h-40z" />
    <glyph glyph-name="uni0417" unicode="&#x417;" horiz-adv-x="356" 
d="M97 -10q-30 0 -60 6.5t-52 16.5v37q26 -11 53 -18t56 -7q44 0 77.5 16t56.5 48.5t32 80.5q12 56 1.5 98t-39.5 65.5t-74 23.5h-51l7 35h55q48 0 81.5 18t54 50.5t28.5 72.5q10 48 0.5 82.5t-35.5 54t-68 19.5q-22 0 -47 -5.5t-50 -16.5l-11 33q25 11 54 17.5t57 6.5
q53 0 88 -24.5t48 -68t1 -101.5q-8 -44 -28 -76.5t-48.5 -52t-63.5 -27.5l-1 -3q34 -13 55.5 -43t27.5 -73t-5 -94q-12 -55 -39 -93.5t-68 -58t-93 -19.5z" />
    <glyph glyph-name="uni0418" unicode="&#x418;" horiz-adv-x="459" 
d="M13 0l152 714h38l-102 -480q-7 -33 -13.5 -59.5t-12.5 -52t-15 -55.5h3l375 647h48l-152 -714h-38l102 479q7 32 12 54.5t9.5 40.5t9 35.5t11.5 38.5h-3l-376 -648h-48z" />
    <glyph glyph-name="uni0419" unicode="&#x419;" horiz-adv-x="459" 
d="M13 0l152 714h38l-102 -480q-7 -33 -13.5 -59.5t-12.5 -52t-15 -55.5h3l375 647h48l-152 -714h-38l102 479q7 32 12 54.5t9.5 40.5t9 35.5t11.5 38.5h-3l-376 -648h-48zM342 781q-45 0 -71 24t-26 69v9t1 9h33q-1 -7 -1 -10.5v-6.5q0 -33 17 -49t48 -16q41 0 62 22.5
t28 59.5h35q-10 -52 -42 -81.5t-84 -29.5z" />
    <glyph glyph-name="uni041A" unicode="&#x41a;" horiz-adv-x="379" 
d="M284 0l-87 363l3 23l221 328h42l-239 -354l4 31l96 -391h-40zM14 0l151 714h37l-151 -714h-37zM118 357l7 35h98l-7 -35h-98z" />
    <glyph glyph-name="uni041B" unicode="&#x41b;" horiz-adv-x="453" 
d="M-27 -7q-7 0 -14 1t-13 3v34q5 -1 11 -2t14 -1q26 0 44 13.5t33.5 44.5t29.5 86l145 542h257l-152 -714h-37l145 679h-187l-138 -519q-17 -64 -37.5 -101t-45 -51.5t-55.5 -14.5z" />
    <glyph glyph-name="uni041C" unicode="&#x41c;" horiz-adv-x="600" 
d="M13 0l152 714h53l35 -662h2l314 662h57l-152 -714h-36l118 556l6 28t7 29.5t8 34.5h-2l-308 -648h-48l-32 648h-2q-3 -20 -6 -35t-5.5 -28.5t-6.5 -29.5l-118 -555h-36z" />
    <glyph glyph-name="uni041D" unicode="&#x41d;" horiz-adv-x="449" 
d="M13 0l152 714h37l-68 -322h237l68 322h37l-152 -714h-37l76 357h-237l-76 -357h-37z" />
    <glyph glyph-name="uni041E" unicode="&#x41e;" horiz-adv-x="453" 
d="M181 -10q-44 0 -72 23t-42 61.5t-17 89t3 105t17 108.5q38 171 96.5 259.5t141.5 88.5q46 0 74.5 -23t43 -62.5t17 -89.5t-3 -104.5t-17.5 -107.5q-37 -172 -95.5 -260t-145.5 -88zM182 25q70 0 119 80t83 238q24 109 23 187t-26 119t-72 41q-68 0 -117.5 -80.5
t-83.5 -236.5q-23 -109 -22 -187t25.5 -119.5t70.5 -41.5z" />
    <glyph glyph-name="uni041F" unicode="&#x41f;" horiz-adv-x="439" 
d="M13 0l152 714h301l-152 -714h-37l145 679h-227l-145 -679h-37z" />
    <glyph glyph-name="uni0420" unicode="&#x420;" horiz-adv-x="382" 
d="M13 0l152 714h86q60 0 97.5 -26.5t50.5 -76.5t-2 -120q-20 -96 -75 -143t-144 -47h-65l-64 -301h-36zM121 335h58q75 0 118 39t61 123q20 90 -9 136t-103 46h-52z" />
    <glyph glyph-name="uni0421" unicode="&#x421;" horiz-adv-x="366" 
d="M203 -10q-51 0 -85.5 26t-51.5 76.5t-16.5 122t19.5 161.5q16 72 40.5 134.5t59 111t79.5 76t101 27.5q26 0 48.5 -6t42.5 -19l-16 -33q-17 12 -36 17.5t-40 5.5q-49 0 -87.5 -25.5t-67.5 -69.5t-50.5 -102t-35.5 -124q-23 -107 -19 -184.5t34.5 -118.5t85.5 -41
q18 0 39.5 4t37.5 12v-35q-17 -8 -38.5 -12t-43.5 -4z" />
    <glyph glyph-name="uni0422" unicode="&#x422;" horiz-adv-x="299" 
d="M74 0l145 679h-126l7 35h290l-7 -35h-127l-145 -679h-37z" />
    <glyph glyph-name="uni0423" unicode="&#x423;" horiz-adv-x="331" 
d="M6 -10q-8 0 -16 1t-14 3v35q6 -2 13 -3t15 -1q21 0 36.5 8.5t29.5 29t31 56t41 89.5l-6 -41l-39 547h38l25 -389q1 -13 1.5 -27t1.5 -27.5t1 -27.5q9 21 17 41.5t17 39.5l182 390h39l-263 -563q-27 -57 -47.5 -92.5t-44 -52t-58.5 -16.5z" />
    <glyph glyph-name="uni0424" unicode="&#x424;" horiz-adv-x="572" 
d="M239 89q-68 6 -113 46t-61 106t1 148q25 120 100.5 185t188.5 59l-7 -34q-95 6 -158 -51t-86 -162q-15 -73 -3.5 -130.5t49 -92.5t95.5 -40zM209 -2l22 103l4 15l104 493l3 14l21 93h35l-20 -95l-2 -12l-106 -493l-3 -16l-22 -102h-36zM258 89l7 33q96 -6 159 52t85 162
q16 74 3.5 131.5t-49.5 92t-96 39.5l7 33q69 -5 113.5 -44.5t60.5 -105.5t-1 -149q-25 -119 -100 -184.5t-189 -59.5z" />
    <glyph glyph-name="uni0425" unicode="&#x425;" horiz-adv-x="321" 
d="M-55 0l234 393l-5 -31l-54 352h37l46 -318l-11 2l182 316h40l-208 -358l4 31l54 -387h-38l-45 350l11 -2l-207 -348h-40z" />
    <glyph glyph-name="uni0426" unicode="&#x426;" horiz-adv-x="447" 
d="M313 -145l30 145h-331l152 714h36l-144 -679h227l145 679h37l-145 -679h68l-39 -180h-36z" />
    <glyph glyph-name="uni0427" unicode="&#x427;" horiz-adv-x="425" 
d="M262 0l70 327l15 -9q-18 -9 -37.5 -14.5t-40 -8.5t-40.5 -3q-84 0 -118 48t-15 136l51 238h37l-52 -240q-16 -75 9.5 -112t93.5 -37q32 0 62.5 7.5t58.5 22.5l-23 -23l81 382h37l-152 -714h-37z" />
    <glyph glyph-name="uni0428" unicode="&#x428;" horiz-adv-x="630" 
d="M13 0l153 714h37l-146 -679h190l145 679h37l-145 -679h190l145 679h37l-153 -714h-490z" />
    <glyph glyph-name="uni0429" unicode="&#x429;" horiz-adv-x="638" 
d="M504 -145l30 145h-521l153 714h37l-146 -679h189l146 679h37l-146 -679h190l145 679h37l-145 -679h68l-38 -180h-36z" />
    <glyph glyph-name="uni042A" unicode="&#x42a;" horiz-adv-x="443" 
d="M76 0l144 679h-127l7 35h164l-65 -303h51q59 0 96.5 -27t50.5 -77t-2 -121q-21 -94 -75 -140t-143 -46h-101zM120 35h58q74 0 117.5 37.5t60.5 119.5q20 91 -9.5 138t-101.5 47h-53z" />
    <glyph glyph-name="uni042B" unicode="&#x42b;" horiz-adv-x="545" 
d="M15 0l150 714h36l-63 -303h50q59 0 96.5 -27t50.5 -77t-2 -121q-21 -94 -75 -140t-143 -46h-100zM59 35h57q74 0 117.5 37.5t60.5 119.5q20 91 -9.5 138t-101.5 47h-52zM382 0l152 714h37l-153 -714h-36z" />
    <glyph glyph-name="uni042C" unicode="&#x42c;" horiz-adv-x="381" 
d="M14 0l150 714h36l-63 -303h51q59 0 96.5 -27t50.5 -77.5t-3 -120.5q-20 -94 -74 -140t-143 -46h-101zM58 35h58q74 0 117.5 37t60.5 119q20 91 -9.5 138.5t-101.5 47.5h-53z" />
    <glyph glyph-name="uni042D" unicode="&#x42d;" horiz-adv-x="370" 
d="M77 -10q-25 0 -49 4.5t-42 14.5v37q19 -10 42.5 -15.5t47.5 -5.5q49 0 85.5 27t63.5 73t46 102.5t31 114.5q24 111 20 188.5t-35 118.5t-88 41q-19 0 -39 -5t-40 -14l-9 33q23 10 46 15.5t46 5.5q69 0 108.5 -45t47.5 -132t-19 -212q-14 -67 -35.5 -129t-53.5 -111
t-74.5 -77.5t-99.5 -28.5zM96 356l7 35h220l-5 -35h-222z" />
    <glyph glyph-name="uni042E" unicode="&#x42e;" horiz-adv-x="611" 
d="M344 -10q-42 0 -69 23t-40.5 62t-16 89t4 105t17.5 109q38 170 95.5 258.5t138.5 88.5q44 0 71.5 -23t41 -62.5t16 -89.5t-4 -104.5t-17.5 -107.5q-37 -172 -95 -260t-142 -88zM13 0l152 714h37l-68 -322h129l-7 -34h-130l-76 -358h-37zM345 25q67 0 115 79.5t83 237.5
q24 111 23.5 188.5t-24 118.5t-69.5 41q-66 0 -113 -80.5t-82 -236.5q-23 -108 -23 -186.5t23 -120t67 -41.5z" />
    <glyph glyph-name="uni042F" unicode="&#x42f;" horiz-adv-x="378" 
d="M-41 0l221 330q-58 19 -78 75.5t-3 134.5q20 92 74 133t141 41h89l-151 -714h-37l67 317h-68l-211 -317h-44zM238 352h51l70 328h-51q-70 0 -112 -33.5t-59 -109.5q-12 -55 -5.5 -97t33 -65t73.5 -23z" />
    <glyph glyph-name="uni0430" unicode="&#x430;" horiz-adv-x="377" 
d="M125 -10q-36 0 -58.5 20t-32.5 58t-8.5 91.5t15.5 118.5q13 59 31.5 107t43 82t54 52.5t62.5 18.5q27 0 45 -11.5t28.5 -31.5t14.5 -46h3l20 79h30l-112 -528h-29l14 87h-2q-25 -45 -53.5 -71t-65.5 -26zM131 23q32 0 58.5 25.5t49.5 78t41 131.5q13 58 17.5 103.5
t-1 77.5t-21 49t-42.5 17q-34 0 -64 -28.5t-53 -80t-39 -123.5q-17 -80 -16 -135.5t19 -85t51 -29.5z" />
    <glyph glyph-name="uni0431" unicode="&#x431;" horiz-adv-x="362" 
d="M138 -10q-31 0 -53 12.5t-35 37.5t-17.5 62.5t0 87.5t17.5 112q19 93 42 169.5t54.5 134t75 93.5t105.5 49q19 4 40 6.5t44 6.5l3 -33q-25 -4 -45 -7t-40 -7q-48 -10 -82.5 -37.5t-58.5 -67t-41 -86.5t-32 -96h2q26 45 54 66.5t62 21.5q35 0 58 -19t34 -55t9 -86.5
t-16 -114.5q-26 -122 -72 -186t-108 -64zM138 23q48 0 84.5 56t60.5 165q16 77 15 130t-18.5 80.5t-54.5 27.5q-30 0 -58 -25t-49.5 -72t-36.5 -114q-13 -60 -16 -106.5t5 -78t24.5 -47.5t43.5 -16z" />
    <glyph glyph-name="uni0432" unicode="&#x432;" horiz-adv-x="349" 
d="M150 -10q-41 0 -68.5 22.5t-41 62t-13.5 93.5t14 118q16 77 43.5 133.5t66 87.5t85.5 31q37 0 60.5 -18.5t33 -50.5t0.5 -74q-9 -47 -37.5 -76.5t-75.5 -38.5v-3q30 -10 48.5 -32.5t23.5 -54.5t-4 -72q-8 -41 -27.5 -69.5t-46.5 -43.5t-61 -15zM153 22q36 0 61 26.5
t36 74.5q15 63 -10.5 102t-80.5 39h-97l6 33h94q37 0 64 11t44.5 33.5t24.5 55.5q11 47 -6.5 78t-54.5 31q-34 0 -64.5 -25.5t-54 -76t-39.5 -125.5q-24 -117 -4 -187t81 -70z" />
    <glyph glyph-name="uni0433" unicode="&#x433;" horiz-adv-x="273" 
d="M105 -10q-44 0 -70.5 20.5t-35.5 55t0 76.5q8 35 25.5 60.5t43 46t56.5 40.5q27 18 50.5 34.5t40 37.5t22.5 51q8 42 -8 67.5t-56 25.5q-20 0 -41 -7t-41 -19l-11 32q23 14 48 20.5t48 6.5q40 0 64 -17.5t33 -47.5t1 -67q-8 -35 -26.5 -60t-44.5 -44.5t-56 -38.5
q-48 -31 -75.5 -58t-35.5 -70q-7 -32 -1 -57t25 -39.5t49 -14.5q13 0 27 2.5t28 7t26 10.5v-35q-21 -10 -43 -14.5t-42 -4.5z" />
    <glyph glyph-name="uni0434" unicode="&#x434;" horiz-adv-x="357" 
d="M132 -10q-38 0 -62 20.5t-35 58.5t-9 91t16 119q17 77 43 129.5t60.5 79.5t75.5 27q19 0 35.5 -6.5t29.5 -17.5t21 -29h2q1 13 1 28.5v25.5q-1 112 -29 165.5t-81 53.5q-14 0 -31 -4.5t-33 -12.5l-10 32q20 9 41.5 13t37.5 4q42 0 70 -22.5t44 -62t22 -90t4.5 -106
t-9 -112t-18.5 -107.5q-14 -65 -32 -116.5t-41 -87.5t-51 -54.5t-62 -18.5zM134 23q33 0 58.5 26.5t45 70.5t33 97.5t22 108t11.5 101.5l2 -31q-5 22 -13.5 38.5t-19 26.5t-23 15.5t-27.5 5.5q-37 0 -65 -28t-48 -75.5t-33 -106.5t-15.5 -105t4.5 -78t24 -49t44 -17z" />
    <glyph glyph-name="uni0435" unicode="&#x435;" horiz-adv-x="322" 
d="M152 -10q-43 0 -69.5 19t-39 51t-15 71t2.5 79t12 76q15 73 44 130t67.5 89.5t82.5 32.5q41 0 60.5 -21.5t24 -52.5t-2.5 -59q-8 -42 -36.5 -77.5t-78.5 -57t-123 -21.5h-14l5 32h12q63 0 104 17.5t64 46.5t30 64q4 21 2.5 43t-13 37.5t-37.5 15.5q-33 0 -63 -28.5
t-53.5 -79t-37.5 -115.5q-6 -33 -11 -68.5t-4.5 -69.5t9.5 -61t28.5 -43t53.5 -16q23 0 44 6t42 17v-35q-18 -10 -42 -16t-48 -6z" />
    <glyph glyph-name="uni0436" unicode="&#x436;" horiz-adv-x="594" 
d="M6 -10q-7 0 -15 1t-15 3l8 32l12 -2t12 -1q36 0 64.5 26.5t50.5 78t37 125.5q17 80 16 136t-19 86.5t-53 30.5q-7 0 -12.5 -0.5t-10.5 -2.5v31q7 2 13 3t13 1q35 0 58 -19t34.5 -56t10.5 -90.5t-15 -122.5q-17 -88 -45 -145.5t-64 -86t-80 -28.5zM487 -10q-35 0 -58.5 19
t-34.5 55t-10 89t14 120q19 91 46 149.5t63 87t81 28.5q7 0 15 -1t15 -3l-8 -32q-6 2 -12 2.5t-12 0.5q-35 0 -64 -26.5t-50.5 -77.5t-36.5 -126q-16 -79 -16 -135.5t18 -86.5t53 -30q6 0 12 1t11 2v-32q-8 -1 -13.5 -2.5t-12.5 -1.5zM223 0l112 528h36l-113 -528h-35z
M184 252l6 33h218l-6 -33h-218z" />
    <glyph glyph-name="uni0437" unicode="&#x437;" horiz-adv-x="283" 
d="M66 -10q-24 0 -47 5t-41 12v36q20 -10 42 -15t45 -5q33 0 57.5 11.5t40.5 35t22 57.5q14 62 -8.5 99.5t-71.5 37.5h-44l6 33h48q30 0 52.5 10.5t37.5 31.5t22 53q10 53 -10.5 83t-66.5 30q-16 0 -34.5 -4t-34.5 -11l-10 30q20 9 42 13.5t42 4.5q41 0 68 -18.5t37.5 -51
t1.5 -76.5q-8 -45 -33 -74t-66 -39l-1 -3q27 -10 42.5 -32.5t20 -53.5t-3.5 -70q-13 -63 -53 -96.5t-102 -33.5z" />
    <glyph glyph-name="uni0438" unicode="&#x438;" horiz-adv-x="360" 
d="M111 -10q-26 0 -45 10.5t-29.5 31t-11.5 50.5t7 68l81 378h36l-80 -380q-8 -41 -6 -69t16.5 -41.5t40.5 -13.5q32 0 57.5 22.5t45.5 70.5t36 124l61 287h36l-111 -528h-30l13 76h-2q-13 -28 -30.5 -47t-38 -29t-46.5 -10z" />
    <glyph glyph-name="uni0439" unicode="&#x439;" horiz-adv-x="360" 
d="M111 -10q-26 0 -45 10.5t-29.5 31t-11.5 50.5t7 68l81 378h36l-80 -380q-8 -41 -6 -69t16.5 -41.5t40.5 -13.5q32 0 57.5 22.5t45.5 70.5t36 124l61 287h36l-111 -528h-30l13 76h-2q-13 -28 -30.5 -47t-38 -29t-46.5 -10zM252 599q-43 0 -68.5 23t-25.5 71v9t1 12h32
q-1 -9 -1 -13v-9q0 -34 16.5 -49t46.5 -15q38 0 59 23.5t28 62.5h34q-11 -56 -42 -85.5t-80 -29.5z" />
    <glyph glyph-name="uni043A" unicode="&#x43a;" horiz-adv-x="299" 
d="M206 0l-59 269l1 16l159 243h41l-172 -261l2 24l64 -291h-36zM3 0l113 528h36l-112 -528h-37zM81 261l7 33h81l-7 -33h-81z" />
    <glyph glyph-name="uni043B" unicode="&#x43b;" horiz-adv-x="372" 
d="M-23 -7q-8 0 -16 1.5t-14 3.5v34q5 -2 13 -3.5t15 -1.5q28 0 47 23t36 89l100 389h211l-113 -528h-36l105 495h-141l-93 -365q-13 -50 -28.5 -80t-36.5 -43.5t-49 -13.5z" />
    <glyph glyph-name="uni043C" unicode="&#x43c;" horiz-adv-x="469" 
d="M3 0l115 528h46l24 -469h2l228 469h48l-114 -528h-36l71 325q8 35 14 62t14 60h-2l-218 -447h-34l-25 448h-2q-5 -28 -9.5 -51t-10.5 -53l-75 -344h-36z" />
    <glyph glyph-name="uni043D" unicode="&#x43d;" horiz-adv-x="358" 
d="M3 0l113 528h35l-49 -235h167l49 235h37l-113 -528h-36l55 259h-166l-56 -259h-36z" />
    <glyph glyph-name="uni043E" unicode="&#x43e;" horiz-adv-x="355" 
d="M131 -10q-48 0 -75 34t-30.5 99t16.5 156q27 129 72.5 194t109.5 65q49 0 75.5 -33.5t30.5 -98t-16 -157.5q-28 -128 -73 -193.5t-110 -65.5zM133 23q49 0 84.5 57t60.5 174q27 123 12 187.5t-68 64.5q-48 0 -84 -57.5t-61 -173.5q-27 -122 -12 -187t68 -65z" />
    <glyph glyph-name="uni043F" unicode="&#x43f;" horiz-adv-x="361" 
d="M4 0l112 528h29l-13 -77h2q15 28 32 47.5t38 29.5t45 10q27 0 46 -10.5t29.5 -30.5t12 -48.5t-6.5 -64.5l-81 -384h-37l81 386q9 39 5.5 65t-17.5 39.5t-42 13.5q-32 0 -57 -22.5t-44.5 -70.5t-35.5 -124l-61 -287h-37z" />
    <glyph glyph-name="uni0440" unicode="&#x440;" horiz-adv-x="377" 
d="M-46 -239l162 767h30l-15 -90h2q24 48 53.5 74t67.5 26q29 0 49 -14.5t31.5 -41t15 -62t0 -78.5t-13.5 -91q-13 -59 -31.5 -107t-43.5 -82.5t-53.5 -53t-62.5 -18.5q-39 0 -60.5 23.5t-26.5 59.5h-3q-3 -19 -7 -39t-9 -40l-50 -233h-35zM144 23q35 0 64.5 29t53 81.5
t38.5 121.5q12 54 14.5 99.5t-3.5 79.5t-22 52.5t-43 18.5q-31 0 -58.5 -26.5t-49.5 -78t-40 -128.5q-12 -50 -17.5 -95.5t-1.5 -80t19.5 -54t45.5 -19.5z" />
    <glyph glyph-name="uni0441" unicode="&#x441;" horiz-adv-x="291" 
d="M143 -10q-40 0 -66.5 20t-39 58.5t-11 93.5t16.5 124q18 83 47.5 139t68 84.5t84.5 28.5q19 0 35.5 -4t30.5 -12l-14 -31q-10 6 -25 10t-29 4q-35 0 -66 -25t-55.5 -74t-40.5 -124q-13 -62 -15.5 -110t6.5 -81t28 -50.5t49 -17.5q14 0 32 3.5t33 11.5v-34q-13 -6 -32 -10
t-37 -4z" />
    <glyph glyph-name="uni0442" unicode="&#x442;" horiz-adv-x="551" 
d="M4 0l112 528h30l-12 -71h2q15 28 32 45.5t36.5 26.5t42.5 9q34 0 55 -19t27 -52h2q11 22 27.5 37.5t36.5 24.5t44 9q28 0 47 -11t29 -31.5t11.5 -49t-6.5 -63.5l-81 -383h-37l81 381q8 38 5.5 66t-17 42.5t-42.5 14.5q-23 0 -40.5 -10.5t-30.5 -28.5t-21.5 -40t-13.5 -45
l-83 -380h-36l83 385q7 27 7 49t-6 38t-19 24t-33 8q-24 0 -43.5 -12.5t-35.5 -38.5t-28.5 -64t-24.5 -90l-63 -299h-37z" />
    <glyph glyph-name="uni0443" unicode="&#x443;" horiz-adv-x="303" 
d="M-71 -243q-9 0 -18 2t-17 4v34q8 -2 16.5 -3.5t17.5 -1.5q29 0 50.5 22.5t45.5 74.5l55 122l-9 517h36l3 -367v-28.5t0.5 -32t-0.5 -31.5h2q6 16 12.5 33t12.5 32t12 27l163 367h38l-292 -649q-19 -42 -37.5 -69t-40 -40t-50.5 -13z" />
    <glyph glyph-name="uni0444" unicode="&#x444;" horiz-adv-x="423" 
d="M88 -240l50 239l4 15l106 502l2 15l48 229h36l-48 -229l-3 -15l-106 -502l-3 -15l-50 -239h-36zM146 -11q-39 2 -66.5 23.5t-42 60t-14.5 91.5t14 119q18 83 49.5 139.5t76 86.5t98.5 29l-7 -32q-42 1 -77.5 -25.5t-61.5 -77.5t-43 -124q-12 -58 -13 -105.5t9.5 -81.5
t31.5 -52t54 -19zM161 -12l9 33q43 0 77.5 26t61.5 77t42 124q13 58 14 105.5t-9.5 81.5t-31.5 52t-53 19l7 32q39 -2 66 -23.5t41.5 -60t15 -91.5t-13.5 -119q-13 -62 -35 -109.5t-50.5 -80t-63.5 -49t-77 -17.5z" />
    <glyph glyph-name="uni0445" unicode="&#x445;" horiz-adv-x="291" 
d="M-44 0l179 290l-5 -30l-52 268h37l43 -240l-11 3l142 237h40l-168 -273l5 30l56 -285h-37l-47 255l12 -2l-154 -253h-40z" />
    <glyph glyph-name="uni0446" unicode="&#x446;" horiz-adv-x="369" 
d="M245 -131l31 148l9 -17q-19 2 -33.5 9t-20.5 23t-4 44h-2q-14 -28 -30.5 -47t-37 -29t-46.5 -10t-45 10.5t-29.5 31t-11.5 50.5t7 68l81 378h36l-81 -380q-8 -41 -5.5 -69t17 -41.5t40.5 -13.5q25 0 44.5 12.5t36.5 39t31 67.5t26 98l61 287h35l-81 -388q-9 -42 -10 -66
t7 -32.5t26 -8.5q5 0 10.5 0.5t9.5 1.5l-35 -166h-36z" />
    <glyph glyph-name="uni0447" unicode="&#x447;" horiz-adv-x="348" 
d="M196 0l42 200l8 34t9 34h-2q-18 -39 -47.5 -61.5t-66.5 -22.5q-28 0 -46.5 11t-29 31.5t-11.5 49.5t7 66l40 186h37l-41 -186q-8 -40 -5.5 -67.5t17.5 -42t42 -14.5q35 0 60 23.5t43.5 71t33.5 118.5l22 97h36l-112 -528h-36z" />
    <glyph glyph-name="uni0448" unicode="&#x448;" horiz-adv-x="556" 
d="M115 -10q-27 0 -46 10.5t-29.5 30.5t-11.5 49t6 66l81 382h37l-81 -380q-9 -42 -5.5 -69t18.5 -41t41 -14q32 0 53 18.5t33.5 47.5t19.5 62l83 376h36l-83 -382q-9 -41 -6 -68t17 -40.5t39 -13.5t44.5 13t35.5 38.5t28.5 64t23.5 89.5l64 299h36l-112 -528h-29l11 69h-2
q-14 -26 -30.5 -43.5t-36 -26.5t-42.5 -9q-18 0 -31.5 5t-24 14.5t-17 22.5t-9.5 29h-2q-12 -21 -28.5 -37t-36.5 -25t-44 -9z" />
    <glyph glyph-name="uni0449" unicode="&#x449;" horiz-adv-x="562" 
d="M438 -131l30 148l9 -17q-19 2 -33 9t-20.5 22.5t-4.5 43.5h-2q-14 -27 -30 -46t-36 -29t-46 -10q-17 0 -30.5 5t-24 14.5t-17 22.5t-10.5 29h-2q-11 -21 -28 -37t-36.5 -25t-43.5 -9q-27 0 -46 10.5t-29.5 30.5t-12 49t6.5 66l81 382h36l-80 -380q-9 -42 -6 -69t18.5 -41
t41.5 -14q32 0 52.5 18.5t33.5 47.5t20 62l83 376h36l-83 -382q-9 -41 -6.5 -68t16.5 -40.5t39 -13.5q24 0 44 13t36 38.5t29.5 64t23.5 89.5l63 299h37l-82 -388q-9 -42 -10 -66t7 -32.5t26 -8.5q5 0 10.5 0.5t9.5 1.5l-35 -166h-35z" />
    <glyph glyph-name="uni044A" unicode="&#x44a;" horiz-adv-x="369" 
d="M176 -10q-67 0 -90 48t-2 142l68 314h-104l7 34h141l-76 -346q-17 -85 -3 -122.5t62 -37.5q40 0 65 26.5t38 82.5q14 67 -6.5 102t-72.5 35q-16 0 -36 -2.5t-35 -6.5l7 32q11 3 30.5 6t39.5 3q36 0 61 -13t38.5 -36t15.5 -54.5t-6 -68.5q-14 -67 -50.5 -102.5
t-91.5 -35.5z" />
    <glyph glyph-name="uni044B" unicode="&#x44b;" horiz-adv-x="462" 
d="M133 -10q-66 0 -89 48.5t-3 142.5l76 347h36l-75 -345q-12 -57 -10 -92.5t19 -52t48 -16.5q40 0 66.5 26.5t38.5 82.5q14 67 -6 102t-75 35q-15 0 -35 -2.5t-35 -6.5l8 32q10 3 30 6t40 3q36 0 61 -13t38 -36t15.5 -54.5t-5.5 -68.5q-14 -67 -50.5 -102.5t-92.5 -35.5z
M308 0l112 528h36l-112 -528h-36z" />
    <glyph glyph-name="uni044C" unicode="&#x44c;" horiz-adv-x="324" 
d="M131 -10q-66 0 -89 48.5t-3 142.5l75 347h37l-75 -345q-18 -85 -4.5 -123t61.5 -38q40 0 65.5 26.5t38.5 82.5q14 68 -6.5 102.5t-73.5 34.5q-15 0 -35 -2.5t-35 -6.5l7 32q11 3 31 6t39 3q47 0 75 -20.5t37 -59t-3 -92.5q-14 -67 -50.5 -102.5t-91.5 -35.5z" />
    <glyph glyph-name="uni044D" unicode="&#x44d;" horiz-adv-x="289" 
d="M37 -10q-18 0 -36.5 3.5t-33.5 8.5v35q15 -7 34 -10.5t37 -3.5q60 0 103 50.5t69 171.5q13 62 15.5 110.5t-6.5 82t-28 51t-50 17.5q-15 0 -31.5 -4.5t-31.5 -10.5l-8 31q15 7 34.5 11.5t39.5 4.5q40 0 66.5 -19.5t39.5 -58t12 -93.5t-16 -126q-19 -85 -48 -141t-69 -83
t-92 -27zM74 263l7 33h144l-5 -33h-146z" />
    <glyph glyph-name="uni044E" unicode="&#x44e;" horiz-adv-x="486" 
d="M267 -10q-45 0 -70.5 34t-29 99t15.5 156q27 129 71 194t107 65q45 0 70.5 -33.5t29.5 -98t-16 -157.5q-27 -128 -71 -193.5t-107 -65.5zM3 0l113 528h36l-49 -235h97l-7 -34h-97l-56 -259h-37zM269 23q47 0 81 57t59 174q27 122 12.5 186.5t-62.5 64.5q-47 0 -81 -57
t-60 -173q-17 -80 -16.5 -136.5t18 -86t49.5 -29.5z" />
    <glyph glyph-name="uni044F" unicode="&#x44f;" horiz-adv-x="337" 
d="M-47 0l180 248q-40 17 -58.5 57t-6.5 94q13 61 54 95t102 34h106l-112 -528h-36l50 238h-65l-172 -238h-42zM190 270h49l48 226h-63q-50 0 -80 -25.5t-40 -75.5q-8 -38 -0.5 -66t29.5 -43.5t57 -15.5z" />
    <glyph glyph-name="uni0451" unicode="&#x451;" horiz-adv-x="322" 
d="M152 -10q-43 0 -69.5 19t-39 51t-15 71t2.5 79t12 76q15 73 44 130t67.5 89.5t82.5 32.5q41 0 60.5 -21.5t24 -52.5t-2.5 -59q-8 -42 -36.5 -77.5t-78.5 -57t-123 -21.5h-14l5 32h12q63 0 104 17.5t64 46.5t30 64q4 21 2.5 43t-13 37.5t-37.5 15.5q-33 0 -63 -28.5
t-53.5 -79t-37.5 -115.5q-6 -33 -11 -68.5t-4.5 -69.5t9.5 -61t28.5 -43t53.5 -16q23 0 44 6t42 17v-35q-18 -10 -42 -16t-48 -6zM320 638q-14 0 -20 10.5t-1 28.5q3 16 11 24.5t19 8.5q14 0 20 -10t1 -29q-4 -17 -11.5 -25t-18.5 -8zM198 638q-14 0 -20 10.5t-1 28.5
q3 16 10.5 24.5t19.5 8.5q14 0 20 -10t1 -29q-4 -17 -11.5 -25t-18.5 -8z" />
    <glyph glyph-name="uni0452" unicode="&#x452;" horiz-adv-x="365" 
d="M109 -240q-11 0 -20.5 1.5t-17.5 3.5v35q9 -3 17.5 -4.5t18.5 -1.5q26 0 42.5 14.5t29 49t24.5 92.5l91 431q9 41 5.5 67.5t-18 40t-40.5 13.5q-33 0 -57.5 -21.5t-44 -69t-36.5 -124.5l-61 -287h-36l133 631h-62l7 32h62l21 97h36l-22 -97h108l-6 -32h-108l-20 -92
q-2 -10 -4 -19.5t-4.5 -19t-4.5 -18t-4 -16.5t-4 -15h2q14 27 30.5 46t37.5 29.5t47 10.5t45 -11t29 -31t12 -49t-6 -67l-92 -431q-14 -66 -29.5 -107.5t-38.5 -61t-62 -19.5z" />
    <glyph glyph-name="uni0453" unicode="&#x453;" horiz-adv-x="273" 
d="M105 -10q-44 0 -70.5 20.5t-35.5 55t0 76.5q8 35 25.5 60.5t43 46t56.5 40.5q27 18 50.5 34.5t40 37.5t22.5 51q8 42 -8 67.5t-56 25.5q-20 0 -41 -7t-41 -19l-11 32q23 14 48 20.5t48 6.5q40 0 64 -17.5t33 -47.5t1 -67q-8 -35 -26.5 -60t-44.5 -44.5t-56 -38.5
q-48 -31 -75.5 -58t-35.5 -70q-7 -32 -1 -57t25 -39.5t49 -14.5q13 0 27 2.5t28 7t26 10.5v-35q-21 -10 -43 -14.5t-42 -4.5zM173 614l118 152h43v-8l-142 -152h-19v8z" />
    <glyph glyph-name="uni0454" unicode="&#x454;" horiz-adv-x="291" 
d="M143 -10q-40 0 -66.5 20t-39 58.5t-11 93.5t16.5 124q18 83 47.5 139t68 84.5t84.5 28.5q19 0 35 -4t30 -12l-13 -31q-11 6 -25.5 10t-28.5 4q-35 0 -66 -25t-55.5 -74t-40.5 -124q-13 -62 -15.5 -110t6 -81t28 -50.5t49.5 -17.5q14 0 32 3.5t33 11.5v-34q-13 -6 -32 -10
t-37 -4zM70 263l7 33h145l-7 -33h-145z" />
    <glyph glyph-name="uni0455" unicode="&#x455;" horiz-adv-x="282" 
d="M80 -10q-27 0 -50 5.5t-38 13.5v36q18 -10 41.5 -16t45.5 -6q41 0 65.5 19.5t33.5 59.5q6 26 2 49.5t-19 50t-42 59.5q-28 36 -42.5 65.5t-18 56t1.5 54.5q10 44 43 72.5t87 28.5q28 0 54.5 -8t46.5 -22l-19 -30q-19 14 -39.5 21t-43.5 7q-36 0 -60.5 -19t-31.5 -53
q-5 -24 -1 -48t17 -48.5t33 -49.5q35 -42 51.5 -75t19.5 -61t-3 -57q-11 -52 -44.5 -78.5t-89.5 -26.5z" />
    <glyph glyph-name="uni0456" unicode="&#x456;" horiz-adv-x="163" 
d="M5 0l112 528h37l-113 -528h-36zM163 642q-10 0 -15.5 5.5t-7 15t0.5 21.5q3 17 11 26t20 9q9 0 15 -5t8 -14.5t-1 -22.5q-3 -16 -11 -25.5t-20 -9.5z" />
    <glyph glyph-name="uni0457" unicode="&#x457;" horiz-adv-x="156" 
d="M3 0l113 528h35l-112 -528h-36zM120 642q-15 0 -19.5 12t-0.5 30q3 17 10.5 26t19.5 9q14 0 19.5 -11t0.5 -31q-3 -16 -10 -25.5t-20 -9.5zM202 642q-15 0 -19.5 12t-0.5 30q3 17 10.5 26t19.5 9q14 0 19.5 -11t0.5 -31q-4 -16 -11 -25.5t-19 -9.5z" />
    <glyph glyph-name="uni0458" unicode="&#x458;" horiz-adv-x="168" 
d="M-95 -240q-10 0 -19.5 1.5t-17.5 3.5v35q8 -3 17 -4.5t19 -1.5q26 0 42 14t28.5 48t24.5 94l123 578h37l-124 -580q-14 -65 -28.5 -107t-38 -61.5t-63.5 -19.5zM167 642q-10 0 -15.5 5.5t-7 15t0.5 21.5q4 17 11.5 26t19.5 9q10 0 15.5 -5t7.5 -14.5t-1 -22.5
q-3 -16 -10.5 -25.5t-20.5 -9.5z" />
    <glyph glyph-name="uni0459" unicode="&#x459;" horiz-adv-x="532" 
d="M-23 -7q-8 0 -16 1.5t-14 3.5v34q5 -2 13 -3.5t15 -1.5q28 0 47 23t36 89l100 389h201l-75 -345q-18 -85 -4 -123t61 -38q40 0 65.5 26.5t38.5 82.5q14 68 -7 102.5t-73 34.5q-15 0 -35 -2.5t-35 -6.5l7 32q11 3 31 6t39 3q47 0 75 -20.5t37 -59t-3 -92.5
q-14 -67 -50.5 -102.5t-91.5 -35.5q-66 0 -89.5 48.5t-2.5 142.5l68 314h-131l-93 -365q-13 -50 -28.5 -80t-36.5 -43.5t-49 -13.5z" />
    <glyph glyph-name="uni045A" unicode="&#x45a;" horiz-adv-x="516" 
d="M323 -10q-67 0 -90 48.5t-2 142.5l75 347h36l-75 -345q-17 -85 -3.5 -123t61.5 -38q39 0 65 26.5t38 82.5q15 67 -7 101t-80 34h-67l-14 -1h-164l-57 -265h-36l113 528h35l-48 -229h165l13 -1h66q51 0 81 -20.5t39 -58t-2 -91.5q-14 -67 -50.5 -102.5t-91.5 -35.5z" />
    <glyph glyph-name="uni045B" unicode="&#x45b;" horiz-adv-x="363" 
d="M6 0l134 631h-64l7 32h63l21 97h36l-21 -97h106l-6 -32h-107q-11 -49 -18.5 -83.5t-13 -57.5t-9.5 -39h2q14 27 31 46t38 29.5t46 10.5q29 0 47.5 -11.5t28.5 -33t10 -52t-8 -67.5l-79 -373h-37l80 375q5 28 6 51.5t-5 40.5t-19 26t-35 9q-32 0 -57 -22t-44.5 -69
t-35.5 -124l-61 -287h-36z" />
    <glyph glyph-name="uni045C" unicode="&#x45c;" horiz-adv-x="299" 
d="M206 0l-59 269l1 16l159 243h41l-172 -261l2 24l64 -291h-36zM3 0l113 528h36l-112 -528h-37zM81 261l7 33h81l-7 -33h-81zM214 614l118 152h43v-8l-142 -152h-19v8z" />
    <glyph glyph-name="uni045E" unicode="&#x45e;" horiz-adv-x="303" 
d="M-71 -243q-9 0 -18 2t-17 4v34q8 -2 16.5 -3.5t17.5 -1.5q29 0 50.5 22.5t45.5 74.5l55 122l-9 517h36l3 -367v-28.5t0.5 -32t-0.5 -31.5h2q6 16 12.5 33t12.5 32t12 27l163 367h38l-292 -649q-19 -42 -37.5 -69t-40 -40t-50.5 -13zM221 598q-43 0 -68.5 23t-25.5 71v9
t1 12h32q-1 -9 -1 -13v-9q0 -34 16.5 -49t46.5 -15q38 0 59 23.5t28 62.5h34q-11 -56 -42 -85.5t-80 -29.5z" />
    <glyph glyph-name="uni045F" unicode="&#x45f;" horiz-adv-x="360" 
d="M77 -202l33 150l27 9h10l-36 -159h-34zM111 -10q-26 0 -45 10.5t-29.5 31t-11.5 50.5t7 68l81 378h36l-80 -380q-8 -41 -6 -69t16.5 -41.5t40.5 -13.5q32 0 57.5 22.5t45.5 70.5t36 124l61 287h36l-111 -528h-30l13 76h-2q-13 -28 -30.5 -47t-38 -29t-46.5 -10z" />
    <glyph glyph-name="uni0490" unicode="&#x490;" horiz-adv-x="289" 
d="M2 0l151 714h166l30 147h37l-39 -182h-164l-144 -679h-37z" />
    <glyph glyph-name="uni0491" unicode="&#x491;" horiz-adv-x="250" 
d="M-4 0l113 528h129l33 161h36l-40 -195h-129l-105 -494h-37z" />
    <glyph glyph-name="Wgrave" unicode="&#x1e80;" horiz-adv-x="609" 
d="M73 0l12 714h36l-10 -548q-1 -38 -1.5 -66t-2.5 -47h2q12 32 24 64.5t22 57.5l212 539h36l-17 -521q-1 -26 -2.5 -50t-2 -47t-2.5 -47h2q8 23 16.5 45.5t18.5 47.5t22 57l205 515h40l-287 -714h-50l19 539q1 16 1.5 31.5l1 31t1.5 31.5h-2q-7 -21 -14.5 -43t-16.5 -42
l-213 -548h-50zM420 793q-13 19 -28 45t-29.5 53.5t-23.5 51.5v7h37q10 -26 20 -51t21 -49.5t23 -48.5v-8h-20z" />
    <glyph glyph-name="wgrave" unicode="&#x1e81;" horiz-adv-x="477" 
d="M58 -1l5 529h34l-4 -356q0 -29 -1 -56.5t-2 -53.5h2q5 16 12.5 35t15.5 39t14 38l145 354h38l-6 -356l-2.5 -52.5t-3.5 -58.5h2q7 17 13 34.5t13 36t15 38.5l138 358h36l-208 -529h-39l8 379v29t1.5 31.5t2.5 32.5h-2q-4 -15 -9.5 -29t-11 -29t-11.5 -30l-155 -384h-40z
M314 606q-13 19 -28 45t-29.5 53.5t-23.5 51.5v7h37q10 -26 20 -51t21 -49.5t23 -48.5v-8h-20z" />
    <glyph glyph-name="Wacute" unicode="&#x1e82;" horiz-adv-x="609" 
d="M73 0l12 714h36l-10 -548q-1 -38 -1.5 -66t-2.5 -47h2q12 32 24 64.5t22 57.5l212 539h36l-17 -521q-1 -26 -2.5 -50t-2 -47t-2.5 -47h2q8 23 16.5 45.5t18.5 47.5t22 57l205 515h40l-287 -714h-50l19 539q1 16 1.5 31.5l1 31t1.5 31.5h-2q-7 -21 -14.5 -43t-16.5 -42
l-213 -548h-50zM372 798q24 25 47 52t41.5 53.5t29.5 46.5h43v-8q-10 -16 -27 -37t-37 -42.5t-40.5 -40.5t-37.5 -32h-19v8z" />
    <glyph glyph-name="wacute" unicode="&#x1e83;" horiz-adv-x="477" 
d="M58 -1l5 529h34l-4 -356q0 -29 -1 -56.5t-2 -53.5h2q5 16 12.5 35t15.5 39t14 38l145 354h38l-6 -356l-2.5 -52.5t-3.5 -58.5h2q7 17 13 34.5t13 36t15 38.5l138 358h36l-208 -529h-39l8 379v29t1.5 31.5t2.5 32.5h-2q-4 -15 -9.5 -29t-11 -29t-11.5 -30l-155 -384h-40z
M266 611q24 25 47 52t41.5 53.5t29.5 46.5h43v-8q-10 -16 -27 -37t-37 -42.5t-40.5 -40.5t-37.5 -32h-19v8z" />
    <glyph glyph-name="Wdieresis" unicode="&#x1e84;" horiz-adv-x="609" 
d="M73 0l12 714h36l-10 -548q-1 -38 -1.5 -66t-2.5 -47h2q12 32 24 64.5t22 57.5l212 539h36l-17 -521q-1 -26 -2.5 -50t-2 -47t-2.5 -47h2q8 23 16.5 45.5t18.5 47.5t22 57l205 515h40l-287 -714h-50l19 539q1 16 1.5 31.5l1 31t1.5 31.5h-2q-7 -21 -14.5 -43t-16.5 -42
l-213 -548h-50zM493 831q-10 0 -15.5 6.5t-5.5 19.5q0 15 8 30.5t23 15.5q10 0 15.5 -6.5t5.5 -18.5q0 -16 -8 -31.5t-23 -15.5zM362 831q-9 0 -15 6.5t-6 19.5q0 15 8 30.5t24 15.5q6 0 11 -2.5t7 -8t2 -14.5q0 -16 -8 -31.5t-23 -15.5z" />
    <glyph glyph-name="wdieresis" unicode="&#x1e85;" horiz-adv-x="477" 
d="M58 -1l5 529h34l-4 -356q0 -29 -1 -56.5t-2 -53.5h2q5 16 12.5 35t15.5 39t14 38l145 354h38l-6 -356l-2.5 -52.5t-3.5 -58.5h2q7 17 13 34.5t13 36t15 38.5l138 358h36l-208 -529h-39l8 379v29t1.5 31.5t2.5 32.5h-2q-4 -15 -9.5 -29t-11 -29t-11.5 -30l-155 -384h-40z
M358 644q-10 0 -15.5 6.5t-5.5 19.5q0 15 8 30.5t23 15.5q10 0 15.5 -6.5t5.5 -18.5q0 -16 -8 -31.5t-23 -15.5zM227 644q-9 0 -15 6.5t-6 19.5q0 15 8 30.5t24 15.5q6 0 11 -2.5t7 -8t2 -14.5q0 -16 -8 -31.5t-23 -15.5z" />
    <glyph glyph-name="Ygrave" unicode="&#x1ef2;" horiz-adv-x="303" 
d="M65 0l59 277l-41 437h37l32 -382l195 382h40l-226 -436l-59 -278h-37zM268 793q-13 19 -28 45t-29.5 53.5t-23.5 51.5v7h37q10 -26 20 -51t21 -49.5t23 -48.5v-8h-20z" />
    <glyph glyph-name="ygrave" unicode="&#x1ef3;" horiz-adv-x="303" 
d="M-66 -243q-16 0 -27.5 3t-17.5 7l7 34q8 -4 17 -6.5t22 -2.5q31 0 52.5 22.5t44.5 74.5l53 122l-7 517h36l3 -367q0 -13 -0.5 -28.5t-0.5 -32t-1 -31.5h2q6 16 13 33t13.5 32t11.5 27l161 367h38l-288 -649q-18 -42 -37 -69t-41.5 -40t-53.5 -13zM228 606q-13 19 -28 45
t-29.5 53.5t-23.5 51.5v7h37q10 -26 20 -51t21 -49.5t23 -48.5v-8h-20z" />
    <glyph glyph-name="endash" unicode="&#x2013;" horiz-adv-x="448" 
d="M31 252l7 33h375l-7 -33h-375z" />
    <glyph glyph-name="emdash" unicode="&#x2014;" horiz-adv-x="898" 
d="M31 252l7 33h825l-6 -33h-826z" />
    <glyph glyph-name="uni2015" unicode="&#x2015;" horiz-adv-x="890" 
d="M31 252l7 33h825l-6 -33h-826z" />
    <glyph glyph-name="underscoredbl" unicode="&#x2017;" horiz-adv-x="361" 
d="M-82 -132l6 30h365l-7 -30h-364zM-104 -239l7 30h363l-7 -30h-363z" />
    <glyph glyph-name="quoteleft" unicode="&#x2018;" horiz-adv-x="128" 
d="M67 502q12 33 28.5 70t36 74.5t40.5 67.5h28q-14 -23 -28 -51.5t-26.5 -58.5t-22.5 -59t-17 -55h-35z" />
    <glyph glyph-name="quoteright" unicode="&#x2019;" horiz-adv-x="128" 
d="M57 490q20 33 37.5 71.5t32.5 78t24 74.5h35l4 -12q-11 -32 -27.5 -69.5t-36 -74.5t-41.5 -68h-28z" />
    <glyph glyph-name="quotesinglbase" unicode="&#x201a;" horiz-adv-x="178" 
d="M-40 -128q19 32 37 71t33.5 79t23.5 74h36l3 -12q-11 -32 -27.5 -69.5t-36 -74.5t-40.5 -68h-29z" />
    <glyph glyph-name="quotereversed" unicode="&#x201b;" horiz-adv-x="128" 
d="M102 490q-7 34 -13 71.5t-8.5 74t-2.5 68.5l8 10h35q-3 -26 -3.5 -56t0.5 -59.5t4 -57.5t5 -51h-25z" />
    <glyph glyph-name="quotedblleft" unicode="&#x201c;" horiz-adv-x="241" 
d="M181 502q12 33 28.5 70.5t36 74.5t40.5 67h28q-18 -32 -36.5 -71t-33 -78.5t-23.5 -74.5h-36zM68 502q11 33 27.5 70.5t36.5 74.5t41 67h28q-15 -23 -28.5 -51.5t-26 -58.5t-23 -59t-16.5 -55h-35z" />
    <glyph glyph-name="quotedblright" unicode="&#x201d;" horiz-adv-x="241" 
d="M167 490q20 33 37.5 71.5t32.5 78t24 74.5h35l4 -12q-11 -32 -27.5 -69.5t-36.5 -74.5t-41 -68h-28zM53 490q20 33 37.5 71.5t32.5 78t24 74.5h35l4 -12q-11 -32 -27.5 -69.5t-36 -74.5t-40.5 -68h-29z" />
    <glyph glyph-name="quotedblbase" unicode="&#x201e;" horiz-adv-x="241" 
d="M44 -129q19 31 37 70.5t33.5 79.5t23.5 74h35l4 -12q-11 -31 -27.5 -69t-36 -74.5t-40.5 -68.5h-29zM-69 -129q19 33 37 71.5t32.5 78t24.5 74.5h35l4 -12q-11 -31 -27.5 -69t-36.5 -74.5t-41 -68.5h-28z" />
    <glyph glyph-name="dagger" unicode="&#x2020;" horiz-adv-x="383" 
d="M97 0l118 527l-121 -3l7 32l119 -5l39 209h37l-50 -209l126 5l-6 -32l-125 3l-107 -527h-37z" />
    <glyph glyph-name="daggerdbl" unicode="&#x2021;" horiz-adv-x="383" 
d="M96 0l50 205l-126 -4l7 31l123 -3l30 152l36 150l-121 -3l7 31l118 -4l39 205h37l-50 -205l127 4l-7 -31l-124 3l-30 -150l-36 -152l122 3l-7 -31l-119 4l-39 -205h-37z" />
    <glyph glyph-name="bullet" unicode="&#x2022;" horiz-adv-x="333" 
d="M176 253q-49 0 -75 29t-26 83q0 38 11.5 62.5t34 37t55.5 12.5q32 0 54.5 -12t34.5 -37t12 -63q0 -36 -12 -61t-34.5 -38t-54.5 -13z" />
    <glyph glyph-name="ellipsis" unicode="&#x2026;" horiz-adv-x="534" 
d="M38 -2q-10 0 -16.5 7t-6.5 20q0 18 9 35.5t27 17.5q11 0 17 -7.5t6 -21.5q0 -18 -9.5 -34.5t-26.5 -16.5zM217 -2q-10 0 -16.5 7t-6.5 20q0 18 9 35.5t27 17.5q11 0 17 -7.5t6 -21.5q0 -18 -9.5 -34.5t-26.5 -16.5zM396 -2q-10 0 -16.5 7t-6.5 20q0 18 9 35.5t27 17.5
q11 0 17 -7.5t6 -21.5q0 -18 -9.5 -34.5t-26.5 -16.5z" />
    <glyph glyph-name="perthousand" unicode="&#x2030;" horiz-adv-x="776" 
d="M78 0l357 714h33l-355 -714h-35zM113 276q-30 0 -48 24t-18 82q0 37 6 82.5t18.5 91t31 84t43.5 61.5t57 23q31 0 48 -23.5t17 -76.5q0 -32 -6 -77t-17.5 -92t-30.5 -88t-44 -66t-57 -25zM117 308q22 0 40.5 24t33 62t24 81.5t15 83t5.5 64.5q0 39 -9.5 54t-26.5 15
q-21 0 -39.5 -21.5t-33 -57t-24.5 -76.5t-16 -81t-6 -71q0 -45 10.5 -61t26.5 -16zM344 -12q-30 0 -48 24.5t-18 82.5q0 37 6.5 82.5t19 91t31 84t43.5 61t56 22.5t48 -23t17 -76q0 -33 -6 -78t-17.5 -92t-30.5 -87.5t-44 -66t-57 -25.5zM348 20q22 0 40.5 24.5t33 62.5
t24 81t15 82.5t5.5 64.5q0 40 -9.5 55t-26.5 15q-21 0 -39.5 -21.5t-33 -57.5t-24.5 -77t-16 -81t-6 -70q0 -45 10.5 -61.5t26.5 -16.5zM582 -12q-30 0 -48 24.5t-18 82.5q0 37 6.5 82.5t19 91t31 84t43.5 61t56 22.5t48 -23t17 -76q0 -33 -6 -78t-17.5 -92t-30.5 -87.5
t-44 -66t-57 -25.5zM586 20q22 0 40.5 24.5t33 62.5t24.5 81t15 82.5t5 64.5q0 40 -9.5 55t-26.5 15q-21 0 -39.5 -21.5t-33 -57.5t-24.5 -77t-16 -81t-6 -70q0 -45 10.5 -61.5t26.5 -16.5z" />
    <glyph glyph-name="minute" unicode="&#x2032;" horiz-adv-x="165" 
d="M89 531l72 183h39l-85 -183h-26z" />
    <glyph glyph-name="second" unicode="&#x2033;" horiz-adv-x="286" 
d="M210 531l72 183h39l-85 -183h-26zM89 531l72 183h39l-85 -183h-26z" />
    <glyph glyph-name="guilsinglleft" unicode="&#x2039;" horiz-adv-x="218" 
d="M112 76l-82 180l2 14l158 165l22 -17l-140 -158l66 -173z" />
    <glyph glyph-name="guilsinglright" unicode="&#x203a;" horiz-adv-x="218" 
d="M16 76l-21 17l139 159l-66 172l27 11l81 -180l-2 -14z" />
    <glyph glyph-name="exclamdbl" unicode="&#x203c;" horiz-adv-x="360" 
d="M223 173l115 541h41l-124 -541h-32zM201 -2q-10 0 -16.5 7t-6.5 20q0 18 9 35.5t28 17.5q10 0 16 -7.5t6 -21.5q0 -18 -9.5 -34.5t-26.5 -16.5zM59 173l115 541h41l-124 -541h-32zM37 -2q-10 0 -16.5 7t-6.5 20q0 18 9 35.5t28 17.5q10 0 16 -7.5t6 -21.5
q0 -18 -9.5 -34.5t-26.5 -16.5z" />
    <glyph glyph-name="fraction" unicode="&#x2044;" horiz-adv-x="119" 
d="M-232 0l555 714h40l-554 -714h-41z" />
    <glyph glyph-name="uni207F" unicode="&#x207f;" horiz-adv-x="239" 
d="M56 287l72 317h20l-9 -46h2q7 16 19 27.5t26.5 18t31.5 6.5q16 0 28.5 -5.5t19.5 -17t7 -28.5q0 -14 -4 -34.5t-8 -38.5l-46 -199h-24l47 202q4 18 7.5 35.5t3.5 31.5q0 16 -9.5 25t-27.5 9q-23 0 -40 -15t-30 -44t-23 -72l-39 -172h-24z" />
    <glyph glyph-name="franc" unicode="&#x20a3;" horiz-adv-x="350" 
d="M36 0l31 149h-65l7 32h66l113 533h232l-7 -35h-195l-69 -318h183l-7 -34h-183l-30 -146h100l-8 -32h-100l-31 -149h-37z" />
    <glyph glyph-name="lira" unicode="&#x20a4;" horiz-adv-x="350" 
d="M-24 31q32 10 51.5 31.5t33 62.5t27.5 108h-71l6 31h71l25 117h-71l6 32h71l34 159q10 46 26 80.5t43 53t71 18.5q35 0 58.5 -12t40.5 -28l-21 -28q-14 13 -33 23t-47 10q-49 0 -69.5 -33t-32.5 -87l-33 -156h108l-6 -32h-108l-25 -117h108l-6 -31h-108
q-14 -63 -26 -102.5t-27 -61.5t-37 -34h232l-7 -35h-291z" />
    <glyph glyph-name="peseta" unicode="&#x20a7;" horiz-adv-x="480" 
d="M1 0l152 714h41q52 0 85 -17.5t49.5 -50t16.5 -80.5q0 -49 -12 -96.5t-38 -85.5t-69.5 -60.5t-107.5 -22.5h-16l-64 -301h-37zM121 335q54 0 90 20t56.5 53t29.5 73.5t9 81.5q0 54 -25.5 85t-90.5 31h-7l-74 -344h12zM378 -10q-30 0 -46 17.5t-16 50.5q0 16 3.5 37
l7.5 45l49 228h-46l5 26l48 8l35 128h28l-27 -129h66l-6 -33h-67l-49 -230q-5 -24 -8 -42.5t-3 -31.5q0 -19 8.5 -29.5t26.5 -10.5q12 0 20.5 2t16.5 5v-32q-10 -4 -21.5 -6.5t-24.5 -2.5z" />
    <glyph glyph-name="Euro" unicode="&#x20ac;" horiz-adv-x="350" 
d="M184 -10q-59 0 -89 33t-40 91t-10 133h-52l6 31h47q1 18 4 46t7 56t9 46h-43l8 31h42q20 76 52 136.5t80 96t114 35.5q30 0 52 -7.5t38 -19.5l-21 -31q-11 12 -30 17.5t-42 5.5q-54 0 -93.5 -30.5t-66.5 -83t-45 -119.5h174l-7 -31h-175q-4 -17 -8 -45.5t-7 -56t-4 -46.5
h156l-6 -31h-152q0 -63 6.5 -113.5t29.5 -80t70 -29.5q18 0 35.5 4t35.5 12l8 -33q-21 -8 -41 -12.5t-42 -4.5z" />
    <glyph glyph-name="uni2105" unicode="&#x2105;" horiz-adv-x="477" 
d="M46 0l353 714h34l-353 -714h-34zM285 -6q-37 0 -55.5 26t-18.5 70q0 33 7 73t23 77.5t42 61.5t62 24q38 0 57 -24.5t19 -71.5q0 -39 -8 -80.5t-24.5 -77t-42 -57t-61.5 -21.5zM288 25q25 0 43.5 20t30.5 52.5t18 67.5t6 66q0 30 -10.5 47t-32.5 17q-26 0 -44.5 -21.5
t-30 -55t-17 -68t-5.5 -60.5q0 -29 10.5 -47t31.5 -18zM157 388q-39 0 -60 25.5t-21 78.5q0 32 8 71.5t25 75.5t44.5 59t67.5 23q17 0 30.5 -3.5t23.5 -9.5l-14 -30q-8 6 -19 8.5t-24 2.5q-27 0 -47.5 -19.5t-33.5 -49.5t-19.5 -64.5t-6.5 -63.5q0 -38 13.5 -55t39.5 -17
q14 0 26 3.5t24 9.5l-2 -31q-12 -7 -25 -10.5t-30 -3.5z" />
    <glyph glyph-name="uni2113" unicode="&#x2113;" horiz-adv-x="350" 
d="M184 -9q-36 0 -57.5 18t-30.5 53t-9 85v149q-16 -7 -34.5 -13.5t-33.5 -10.5v34q15 4 34 11t34 15v242q0 56 10.5 89t30.5 47t48 14q31 0 52 -16t32 -46.5t11 -75.5q0 -61 -16.5 -112.5t-49.5 -92.5t-82 -70v-165q0 -62 14 -92t49 -30q38 0 54.5 26t17.5 91h34
q0 -53 -12 -86.5t-36 -48.5t-60 -15zM123 347q56 38 84 97t28 141q0 36 -7 59.5t-20 35t-31 11.5q-30 0 -42 -24.5t-12 -86.5v-233z" />
    <glyph glyph-name="uni2116" unicode="&#x2116;" horiz-adv-x="644" 
d="M5 0l151 714h48l62 -634q2 13 4 25t4.5 24.5t4.5 26.5l119 558h36l-151 -714h-44l-63 648q-1 -8 -2 -15.5t-2.5 -14.5l-3 -14t-2.5 -13l-124 -591h-37zM357 0l5 32h172l-7 -32h-170zM472 132q-38 0 -58 25t-20 72q0 35 7.5 74.5t23.5 74.5t41 57.5t61 22.5q40 0 60.5 -25
t20.5 -73q0 -34 -7.5 -74t-23.5 -74.5t-42 -57t-63 -22.5zM475 163q28 0 47 20.5t30.5 51.5t16.5 64.5t5 59.5q0 33 -12 50.5t-37 17.5q-26 0 -44.5 -20t-30.5 -51t-17 -64.5t-5 -61.5q0 -34 11.5 -50.5t35.5 -16.5z" />
    <glyph glyph-name="trademark" unicode="&#x2122;" horiz-adv-x="585" 
d="M250 362v352h47l94 -306l96 306h44v-352h-31v189q0 31 0.5 57.5t0.5 55.5h-2l-96 -302h-28l-93 306h-3q1 -29 1.5 -55t0.5 -57v-194h-31zM94 362v322h-92v30h216v-30h-93v-322h-31z" />
    <glyph glyph-name="uni03A9" unicode="&#x3a9;" horiz-adv-x="452" 
d="M-12 0l8 35h122q-33 33 -50.5 82.5t-20 115.5t8.5 146q17 116 47.5 192t77.5 114.5t111 38.5q65 0 100 -37.5t43.5 -115t-8.5 -194.5q-11 -83 -35.5 -148.5t-59.5 -113.5t-80 -80h122l-8 -35h-170l6 26q52 33 89 83.5t62 117.5t37 150q14 103 8.5 172.5t-32.5 104.5
t-79 35t-90 -35.5t-63.5 -104.5t-40.5 -171q-11 -84 -8 -153t22 -119t55 -80l-7 -26h-167z" />
    <glyph glyph-name="estimated" unicode="&#x212e;" horiz-adv-x="557" 
d="M267 -17q-74 0 -126 38t-79.5 101t-27.5 137q0 59 16 109.5t46.5 88t73.5 58t97 20.5q67 2 119.5 -33.5t83.5 -98.5t30 -144h-363v-174q22 -26 59 -43t71 -17q63 0 102 28t72 86l31 -20q-25 -45 -54 -75.5t-65.5 -45.5t-85.5 -15zM137 301h261v135q-22 26 -57.5 42
t-74.5 16q-38 0 -70.5 -14t-58.5 -43v-136z" />
    <glyph glyph-name="oneeighth" unicode="&#x215b;" horiz-adv-x="594" 
d="M-8 0l555 714h40l-554 -714h-41zM197 634q2 13 5 23t5 20q-11 -9 -19 -16t-16 -12l-64 -45l-15 25l119 85h35l-92 -428h-33zM412 -8q-44 0 -72 26t-28 73q0 55 30.5 85.5t79.5 49.5q-22 22 -35 46.5t-13 53.5t12 54.5t37 41.5t63 16q42 0 66 -24t24 -65q0 -50 -28 -79.5
t-71 -47.5q20 -16 37 -41.5t17 -65.5q0 -36 -14 -64t-41 -43.5t-64 -15.5zM414 22q43 0 63.5 26.5t20.5 65.5q0 36 -17 58t-35 37q-44 -15 -72.5 -41t-28.5 -75q0 -33 19.5 -52t49.5 -19zM453 239q39 14 65 38.5t26 67.5q0 29 -16 45.5t-46 16.5q-39 0 -57 -24t-18 -55
q0 -30 13.5 -50.5t32.5 -38.5z" />
    <glyph glyph-name="threeeighths" unicode="&#x215c;" horiz-adv-x="614" 
d="M108 279q-26 0 -45 5t-31 12v36q15 -9 34.5 -15.5t43.5 -6.5q50 0 75.5 31t25.5 73q0 45 -22 63t-53 18h-24l6 30h24q39 0 63.5 17t35.5 41.5t11 48.5q0 28 -14 45.5t-43 17.5q-23 0 -41.5 -8.5t-33.5 -20.5l-16 25q16 14 40 24.5t54 10.5q31 0 50 -12t28.5 -32.5
t9.5 -44.5q0 -49 -27 -83.5t-69 -43.5l-1 -2q22 -8 39 -29.5t17 -62.5q0 -35 -14.5 -66t-44 -51t-78.5 -20zM13 0l555 714h40l-554 -714h-41zM432 -9q-44 0 -72 26t-28 73q0 55 30.5 85.5t79.5 49.5q-22 22 -35 46.5t-13 53.5t12 54.5t37 41.5t63 16q42 0 66 -24t24 -65
q0 -50 -28 -79.5t-71 -47.5q20 -16 37 -41.5t17 -65.5q0 -36 -14 -64t-41 -43.5t-64 -15.5zM434 21q43 0 63.5 26.5t20.5 65.5q0 36 -17 58t-35 37q-44 -15 -72.5 -41t-28.5 -75q0 -33 19.5 -52t49.5 -19zM473 238q39 14 65 38.5t26 67.5q0 29 -16 45.5t-46 16.5
q-39 0 -57 -24t-18 -55q0 -30 13.5 -50.5t32.5 -38.5z" />
    <glyph glyph-name="fiveeighths" unicode="&#x215d;" horiz-adv-x="606" 
d="M4 0l555 714h40l-554 -714h-41zM110 278q-20 0 -37.5 4t-30.5 10l2 33q13 -7 30 -11.5t37 -4.5q43 0 66.5 22.5t33 54t9.5 58.5q0 37 -16 54t-49 17q-12 0 -27 -3t-24 -6l-16 17l59 190h145l-7 -31h-117l-45 -142q9 2 20.5 3.5t23.5 1.5q40 0 64 -24.5t24 -72.5
q0 -27 -7.5 -56.5t-24.5 -55.5t-45 -42t-68 -16zM424 -9q-44 0 -72 26t-28 73q0 55 30.5 85.5t79.5 49.5q-22 22 -35 46.5t-13 53.5t12 54.5t37 41.5t63 16q42 0 66 -24t24 -65q0 -50 -28 -79.5t-71 -47.5q20 -16 37 -41.5t17 -65.5q0 -36 -14 -64t-41 -43.5t-64 -15.5z
M426 21q43 0 63.5 26.5t20.5 65.5q0 36 -17 58t-35 37q-44 -15 -72.5 -41t-28.5 -75q0 -33 19.5 -52t49.5 -19zM465 238q39 14 65 38.5t26 67.5q0 29 -16 45.5t-46 16.5q-39 0 -57 -24t-18 -55q0 -30 13.5 -50.5t32.5 -38.5z" />
    <glyph glyph-name="seveneighths" unicode="&#x215e;" horiz-adv-x="581" 
d="M-22 0l555 714h40l-554 -714h-41zM398 -9q-44 0 -72 26t-28 73q0 55 30.5 85.5t79.5 49.5q-22 22 -35 46.5t-13 53.5t12 54.5t37 41.5t63 16q42 0 66 -24t24 -65q0 -50 -28 -79.5t-71 -47.5q20 -16 37 -41.5t17 -65.5q0 -36 -14 -64t-41 -43.5t-64 -15.5zM400 21
q43 0 63.5 26.5t20.5 65.5q0 36 -17 58t-35 37q-44 -15 -72.5 -41t-28.5 -75q0 -33 19.5 -52t49.5 -19zM439 238q39 14 65 38.5t26 67.5q0 29 -16 45.5t-46 16.5q-39 0 -57 -24t-18 -55q0 -30 13.5 -50.5t32.5 -38.5zM70 286l197 397h-160l7 31h193l-6 -29l-195 -399h-36z
" />
    <glyph glyph-name="uni0394" unicode="&#x394;" horiz-adv-x="391" 
d="M-57 0l5 28l304 689h47l19 -689l-5 -28h-370zM-8 36h289l-14 560q0 18 -0.5 28t0 20t-0.5 25h-2q-5 -12 -9 -23t-8.5 -22.5t-11.5 -26.5z" />
    <glyph glyph-name="cyrillicbreve" 
d="M189 599q-43 0 -68.5 23t-25.5 71v9t1 12h32q-1 -9 -1 -13v-9q0 -34 16.5 -49t46.5 -15q38 0 59 23.5t28 62.5h34q-11 -56 -42 -85.5t-80 -29.5z" />
    <glyph glyph-name="uni2074" unicode="&#x2074;" horiz-adv-x="267" 
d="M183 416l24 109h-144l3 27l211 295h31l-62 -291h45l-7 -31h-44l-24 -109h-33zM102 556h111l34 158q5 20 9 39.5t8 32.5q-6 -10 -11.5 -19t-12.5 -19t-16 -22z" />
    <glyph glyph-name="uni2075" unicode="&#x2075;" horiz-adv-x="267" 
d="M135 408q-20 0 -37.5 4t-30.5 10l2 33q13 -7 30 -11.5t37 -4.5q43 0 66.5 22.5t33 54t9.5 58.5q0 37 -16 54t-49 17q-12 0 -27 -3t-24 -6l-16 17l59 190h145l-7 -31h-117l-45 -142q9 2 20.5 3.5t23.5 1.5q40 0 64 -24.5t24 -72.5q0 -27 -7.5 -56.5t-24.5 -55.5t-45 -42
t-68 -16z" />
    <glyph glyph-name="uni2077" unicode="&#x2077;" horiz-adv-x="267" 
d="M94 416l197 397h-160l7 31h193l-6 -29l-195 -399h-36z" />
    <glyph glyph-name="uni2078" unicode="&#x2078;" horiz-adv-x="267" 
d="M166 409q-44 0 -72 26t-28 73q0 55 30.5 85.5t79.5 49.5q-22 22 -35 46.5t-13 53.5t12 54.5t37 41.5t63 16q42 0 66 -24t24 -65q0 -50 -28 -79.5t-71 -47.5q20 -16 37 -41.5t17 -65.5q0 -36 -14 -64t-41 -43.5t-64 -15.5zM168 439q43 0 63.5 26.5t20.5 65.5q0 36 -17 58
t-35 37q-44 -15 -72.5 -41t-28.5 -75q0 -33 19.5 -52t49.5 -19zM207 656q39 14 65 38.5t26 67.5q0 29 -16 45.5t-46 16.5q-39 0 -57 -24t-18 -55q0 -30 13.5 -50.5t32.5 -38.5z" />
    <glyph glyph-name="uni2000" unicode="&#x2000;" horiz-adv-x="500" 
 />
    <glyph glyph-name="uni2001" unicode="&#x2001;" horiz-adv-x="1000" 
 />
    <glyph glyph-name="uni2002" unicode="&#x2002;" horiz-adv-x="500" 
 />
    <glyph glyph-name="uni2003" unicode="&#x2003;" horiz-adv-x="1000" 
 />
    <glyph glyph-name="uni2004" unicode="&#x2004;" horiz-adv-x="333" 
 />
    <glyph glyph-name="uni2005" unicode="&#x2005;" horiz-adv-x="250" 
 />
    <glyph glyph-name="uni2006" unicode="&#x2006;" horiz-adv-x="167" 
 />
    <glyph glyph-name="uni2007" unicode="&#x2007;" horiz-adv-x="353" 
 />
    <glyph glyph-name="uni2008" unicode="&#x2008;" horiz-adv-x="164" 
 />
    <glyph glyph-name="uni2009" unicode="&#x2009;" horiz-adv-x="166" 
 />
    <glyph glyph-name="uni200A" unicode="&#x200a;" horiz-adv-x="100" 
 />
    <glyph glyph-name="uni200B" unicode="&#x200b;" 
 />
    <glyph glyph-name="uniFEFF" unicode="&#xfeff;" 
 />
    </font>
</defs>
</svg>
