<?xml version="1.0" standalone="no"?>
<!DOCTYPE svg PUBLIC "-//W3C//DTD SVG 1.1//EN" "http://www.w3.org/Graphics/SVG/1.1/DTD/svg11.dtd" >
<svg xmlns="http://www.w3.org/2000/svg" xmlns:xlink="http://www.w3.org/1999/xlink" version="1.1">
<metadata>
Created by FontForge 20170924 at Thu Oct 18 05:46:21 2012
 By Glenn,,,
Copyright (c) 2011 by Anja Meiners, with Reserved Font Name 'ABeeZee'
</metadata>
<defs>
<font id="ABeeZee-Italic" horiz-adv-x="600" >
  <font-face 
    font-family="ABeeZee"
    font-weight="400"
    font-style="italic"
    font-stretch="normal"
    units-per-em="1000"
    panose-1="2 0 0 0 0 0 0 0 0 0"
    ascent="800"
    descent="-200"
    x-height="520"
    cap-height="700"
    bbox="-153 -262 1004 920"
    underline-thickness="50"
    underline-position="-100"
    slope="-10"
    stemh="80"
    stemv="92"
    unicode-range="U+0001-F6C3"
  />
<missing-glyph 
d="M106 0v700h388v-700h-388zM174 68h252v564h-252v-564z" />
    <glyph glyph-name=".notdef" 
d="M106 0v700h388v-700h-388zM174 68h252v564h-252v-564z" />
    <glyph glyph-name=".null" horiz-adv-x="0" 
 />
    <glyph glyph-name=".null" horiz-adv-x="0" 
 />
    <glyph glyph-name="uni0001" horiz-adv-x="0" 
 />
    <glyph glyph-name="uni0002" horiz-adv-x="0" 
 />
    <glyph glyph-name="uni0003" horiz-adv-x="0" 
 />
    <glyph glyph-name="uni0004" horiz-adv-x="0" 
 />
    <glyph glyph-name="uni0005" horiz-adv-x="0" 
 />
    <glyph glyph-name="uni0006" horiz-adv-x="0" 
 />
    <glyph glyph-name="uni0007" horiz-adv-x="0" 
 />
    <glyph glyph-name="uni0008" horiz-adv-x="0" 
 />
    <glyph glyph-name="uni0009" unicode="&#x9;" horiz-adv-x="0" 
 />
    <glyph glyph-name="CR" unicode="&#xd;" horiz-adv-x="300" 
 />
    <glyph glyph-name="uni0010" horiz-adv-x="0" 
 />
    <glyph glyph-name="uni0011" horiz-adv-x="0" 
 />
    <glyph glyph-name="uni0012" horiz-adv-x="0" 
 />
    <glyph glyph-name="uni0013" horiz-adv-x="0" 
 />
    <glyph glyph-name="uni0014" horiz-adv-x="0" 
 />
    <glyph glyph-name="uni0015" horiz-adv-x="0" 
 />
    <glyph glyph-name="uni0016" horiz-adv-x="0" 
 />
    <glyph glyph-name="uni0017" horiz-adv-x="0" 
 />
    <glyph glyph-name="uni0018" horiz-adv-x="0" 
 />
    <glyph glyph-name="uni0019" horiz-adv-x="0" 
 />
    <glyph glyph-name="space" unicode=" " horiz-adv-x="300" 
 />
    <glyph glyph-name="exclam" unicode="!" horiz-adv-x="314" 
d="M143 480l44 249h100l-44 -249l-61 -273h-74zM114 -12c-38 0 -62 27 -62 57c0 49 36 77 74 77s62 -27 62 -57c0 -49 -36 -77 -74 -77z" />
    <glyph glyph-name="quotedbl" unicode="&#x22;" horiz-adv-x="300" 
d="M96 700h87l-47 -223h-71zM258 700h87l-47 -223h-71z" />
    <glyph glyph-name="numbersign" unicode="#" horiz-adv-x="750" 
d="M174 0h-80l43 124h-90l24 73h92l88 250h-91l24 73h92l44 124h80l-44 -124h196l44 124h80l-44 -124h92l-24 -73h-93l-88 -250h91l-24 -73h-93l-43 -124h-80l43 124h-196zM331 447l-88 -250h196l88 250h-196z" />
    <glyph glyph-name="dollar" unicode="$" 
d="M447 795l-29 -116c50 -8 94 -25 134 -48l-46 -72c-44 27 -87 49 -151 49c-73 0 -124 -35 -124 -85c0 -43 28 -75 113 -121c118 -64 154 -119 154 -202c0 -109 -82 -172 -199 -182l-11 -113h-88l29 113c-70 6 -124 30 -171 68l57 71c42 -39 93 -64 161 -64
c79 0 131 38 131 98c0 50 -26 83 -130 142c-96 55 -133 99 -133 180c0 97 83 164 204 169l11 113h88z" />
    <glyph glyph-name="percent" unicode="%" horiz-adv-x="900" 
d="M212 -39l-55 40l563 739l55 -40zM415 547c0 -108 -51 -277 -211 -277c-94 0 -147 62 -147 161c0 111 51 276 214 276c93 0 144 -59 144 -160zM210 337c99 0 121 145 121 214c0 58 -22 90 -69 90c-98 0 -121 -144 -121 -214c0 -59 24 -90 69 -90zM873 270
c0 -108 -51 -277 -211 -277c-94 0 -147 62 -147 161c0 111 51 276 214 276c93 0 144 -59 144 -160zM668 60c99 0 121 145 121 214c0 58 -22 90 -69 90c-98 0 -121 -144 -121 -214c0 -59 24 -90 69 -90z" />
    <glyph glyph-name="ampersand" unicode="&#x26;" horiz-adv-x="761" 
d="M645 327h-38c-24 -226 -154 -339 -328 -339c-123 0 -219 75 -219 178c0 94 56 169 175 209c-68 41 -96 86 -96 151c0 113 101 186 223 186c79 0 138 -25 188 -59l-50 -73c-34 27 -81 52 -138 52c-72 0 -133 -43 -133 -115c0 -61 61 -117 150 -117h258c45 0 69 11 89 34
l25 -64c-20 -31 -55 -43 -106 -43zM297 70c129 0 216 98 236 257h-168c-130 0 -210 -63 -210 -142c0 -68 63 -115 142 -115z" />
    <glyph glyph-name="quotesingle" unicode="'" horiz-adv-x="150" 
d="M103 700h87l-47 -222h-71z" />
    <glyph glyph-name="parenleft" unicode="(" horiz-adv-x="300" 
d="M330 729c-110 -179 -178 -354 -178 -564c0 -95 11 -184 30 -264l-55 -24c-40 102 -67 219 -67 322c0 208 89 390 219 564z" />
    <glyph glyph-name="parenright" unicode=")" horiz-adv-x="300" 
d="M41 -123l-51 34c110 179 178 354 178 564c0 95 -11 184 -30 264l55 24c40 -102 67 -219 67 -322c0 -208 -89 -390 -219 -564z" />
    <glyph glyph-name="asterisk" unicode="*" horiz-adv-x="450" 
d="M125 663l114 -46l-9 123h80l-9 -121l114 44l23 -75l-116 -29l77 -94l-64 -46l-64 103l-66 -104l-63 47l76 92l-117 30z" />
    <glyph glyph-name="plus" unicode="+" 
d="M494 304h-152l-29 -162h-85l29 162h-153l13 78h153l29 163h85l-29 -163h152z" />
    <glyph glyph-name="comma" unicode="," horiz-adv-x="300" 
d="M107 90l86 -25c-29 -102 -94 -178 -181 -225l-47 28c65 68 108 133 142 222z" />
    <glyph glyph-name="hyphen" unicode="-" 
d="M467 302h-340l15 82h340z" />
    <glyph glyph-name="period" unicode="." horiz-adv-x="300" 
d="M119 -12c-38 0 -62 27 -62 57c0 49 36 77 74 77s62 -27 62 -57c0 -49 -36 -77 -74 -77z" />
    <glyph glyph-name="slash" unicode="/" horiz-adv-x="450" 
d="M70 -71l-70 36l418 808l70 -36z" />
    <glyph glyph-name="one" unicode="1" 
d="M111 80h143l89 503l-149 -104l-41 72l234 149h66l-109 -620h119l-14 -80h-352z" />
    <glyph glyph-name="two" unicode="2" 
d="M539 543c0 -210 -339 -262 -377 -461h318l-14 -82h-402c-2 10 -3 25 -3 37c0 278 381 344 381 499c0 59 -45 96 -104 96c-57 0 -101 -23 -146 -61l-42 68c54 44 116 73 199 73c113 0 190 -71 190 -169z" />
    <glyph glyph-name="three" unicode="3" 
d="M212 328h-51l12 73h32c131 0 216 50 216 132c0 61 -47 101 -112 101c-61 0 -103 -23 -138 -48l-35 68c47 33 106 58 184 58c122 0 194 -78 194 -164c0 -94 -56 -149 -161 -181c84 -30 131 -89 131 -167c0 -129 -107 -212 -255 -212c-76 0 -147 22 -193 58l53 71
c33 -28 80 -49 140 -49c91 0 158 45 158 128c0 73 -57 132 -175 132z" />
    <glyph glyph-name="four" unicode="4" 
d="M519 151h-86l-26 -151h-88l26 151h-298l12 70l293 486l77 -33l-265 -443h195l36 199h88l-36 -199h86z" />
    <glyph glyph-name="five" unicode="5" 
d="M41 45l54 77c36 -32 86 -52 145 -52c96 0 168 55 168 146c0 77 -58 132 -166 132h-99l61 352h345l-14 -81h-260l-33 -190h19c164 0 244 -92 244 -200c0 -143 -109 -241 -270 -241c-80 0 -150 22 -194 57z" />
    <glyph glyph-name="six" unicode="6" 
d="M492 620c-158 0 -263 -84 -310 -247c38 43 93 70 161 70c108 0 187 -80 187 -193c0 -147 -99 -262 -249 -262c-127 0 -216 86 -216 238c0 236 141 476 430 476c12 0 35 -1 48 -2l-14 -82c-11 1 -27 2 -37 2zM318 368c-61 0 -109 -27 -157 -87c-2 -16 -3 -32 -3 -53
c0 -97 53 -160 127 -160c86 0 152 77 152 173c0 76 -51 127 -119 127z" />
    <glyph glyph-name="seven" unicode="7" 
d="M229 0h-101c57 337 144 459 340 618h-333l14 82h443l-12 -72c-224 -187 -293 -314 -351 -628z" />
    <glyph glyph-name="eight" unicode="8" 
d="M234 384c-64 40 -95 83 -95 147c0 104 99 181 219 181c122 0 200 -79 200 -163c0 -88 -54 -138 -155 -175c90 -43 133 -95 133 -173c0 -131 -117 -213 -266 -213c-131 0 -229 75 -229 181c0 105 65 173 193 215zM280 68c84 0 161 49 161 129c0 58 -49 110 -135 142
c-87 -19 -170 -70 -170 -156c0 -65 61 -115 144 -115zM353 638c-62 0 -124 -36 -124 -106c0 -51 46 -92 106 -121c73 21 133 68 133 127c0 54 -46 100 -115 100z" />
    <glyph glyph-name="nine" unicode="9" 
d="M246 70c81 0 161 81 191 265c-45 -42 -99 -65 -153 -65c-104 0 -193 73 -193 196c0 137 105 246 246 246c66 0 116 -21 153 -61c36 -39 55 -89 55 -161c0 -250 -89 -502 -306 -502c-77 0 -140 32 -183 78l69 64c33 -38 71 -60 121 -60zM452 478c0 100 -49 154 -123 154
c-81 0 -145 -68 -145 -160c0 -77 47 -128 119 -128c51 0 105 25 146 71c2 24 3 40 3 63z" />
    <glyph glyph-name="colon" unicode=":" horiz-adv-x="300" 
d="M112 -12c-38 0 -62 27 -62 57c0 49 36 77 74 77s62 -27 62 -57c0 -49 -36 -77 -74 -77zM186 398c-38 0 -62 27 -62 57c0 49 36 77 74 77s62 -27 62 -57c0 -49 -36 -77 -74 -77z" />
    <glyph glyph-name="semicolon" unicode=";" horiz-adv-x="300" 
d="M82 90l86 -25c-29 -102 -94 -178 -181 -225l-47 28c65 68 108 133 142 222zM184 398c-38 0 -62 27 -62 57c0 49 36 77 74 77s62 -27 62 -57c0 -49 -36 -77 -74 -77z" />
    <glyph glyph-name="less" unicode="&#x3c;" 
d="M473 572l36 -70l-287 -165l231 -159l-58 -64l-284 200l10 57z" />
    <glyph glyph-name="equal" unicode="=" 
d="M511 395h-395l14 79h395zM480 213h-395l14 79h395z" />
    <glyph glyph-name="greater" unicode="&#x3e;" 
d="M127 114l-36 70l287 165l-231 159l58 64l284 -200l-10 -57z" />
    <glyph glyph-name="question" unicode="?" horiz-adv-x="498" 
d="M398 584c0 49 -41 86 -100 86c-58 0 -109 -35 -151 -87l-60 60c58 66 126 109 224 109c106 0 185 -69 185 -160c0 -176 -237 -177 -258 -323l-9 -62h-73c-2 16 -4 36 -4 55c0 203 246 199 246 322zM178 -12c-38 0 -62 27 -62 57c0 49 36 77 74 77s62 -27 62 -57
c0 -49 -36 -77 -74 -77z" />
    <glyph glyph-name="at" unicode="@" horiz-adv-x="1050" 
d="M724 52c76 0 163 116 163 284c0 170 -124 296 -302 296c-246 0 -421 -207 -421 -461c0 -201 135 -323 317 -323c99 0 178 29 250 62l16 -78c-68 -33 -161 -64 -277 -64c-230 0 -398 146 -398 398c0 325 220 546 517 546c243 0 390 -162 390 -364
c0 -209 -122 -360 -267 -360c-71 0 -109 37 -109 105v9c-31 -56 -85 -102 -149 -102c-79 0 -162 58 -162 186c0 174 120 294 292 294c69 0 121 -18 154 -32l-59 -332c-1 -6 -2 -15 -2 -21c0 -28 18 -43 47 -43zM478 70c62 0 124 66 141 162l31 171c-19 6 -39 9 -73 9
c-120 0 -204 -85 -204 -215c0 -81 49 -127 105 -127z" />
    <glyph glyph-name="A" unicode="A" horiz-adv-x="663" 
d="M48 -8l-76 45l384 663h107l153 -689l-91 -21l-42 200h-324zM395 607l-191 -337h262z" />
    <glyph glyph-name="B" unicode="B" horiz-adv-x="617" 
d="M42 20l118 672c61 12 114 20 187 20c161 0 238 -84 238 -173c0 -91 -51 -146 -150 -175c74 -28 128 -78 128 -161c0 -145 -145 -215 -309 -215c-95 0 -165 17 -212 32zM277 324h-87l-42 -243c34 -9 72 -14 113 -14c131 0 205 56 205 133c0 67 -54 124 -189 124zM343 637
c-41 0 -72 -3 -99 -8l-41 -231h98c129 0 191 60 191 128c0 62 -51 111 -149 111z" />
    <glyph glyph-name="C" unicode="C" horiz-adv-x="560" 
d="M406 629c-146 0 -261 -141 -261 -336c0 -144 79 -222 188 -222c62 0 108 20 155 44l16 -86c-49 -23 -108 -41 -184 -41c-164 0 -273 108 -273 298c0 240 150 426 367 426c79 0 139 -26 179 -49l-43 -78c-40 25 -81 44 -144 44z" />
    <glyph glyph-name="D" unicode="D" horiz-adv-x="663" 
d="M42 20l117 672c55 12 103 20 183 20c212 0 299 -147 299 -309c0 -241 -151 -415 -394 -415c-85 0 -151 12 -205 32zM334 632c-35 0 -65 -4 -92 -10l-94 -539c31 -8 65 -13 105 -13c174 0 290 132 290 325c0 125 -64 237 -209 237z" />
    <glyph glyph-name="E" unicode="E" horiz-adv-x="542" 
d="M42 0l123 700h415l-14 -82h-321l-37 -213h275l-14 -80h-275l-43 -243h320l-14 -82h-415z" />
    <glyph glyph-name="F" unicode="F" horiz-adv-x="507" 
d="M42 0l123 700h410l-14 -82h-316l-37 -214h262l-14 -78h-262l-57 -326h-95z" />
    <glyph glyph-name="G" unicode="G" horiz-adv-x="662" 
d="M410 629c-151 0 -265 -142 -265 -346c0 -126 63 -212 169 -212c92 0 168 75 187 176l9 49h-146l13 75h235l-39 -225c-1 -7 -2 -16 -2 -25c0 -36 22 -51 59 -51l-33 -75c-73 0 -110 34 -110 107c-41 -64 -106 -114 -199 -114c-138 0 -241 105 -241 282
c0 254 151 442 368 442c85 0 148 -26 203 -62l-50 -76c-48 33 -93 55 -158 55z" />
    <glyph glyph-name="H" unicode="H" horiz-adv-x="701" 
d="M471 0l56 319h-334l-56 -319h-95l123 700h95l-53 -299h334l53 299h95l-123 -700h-95z" />
    <glyph glyph-name="I" unicode="I" horiz-adv-x="272" 
d="M137 0h-95l123 700h95z" />
    <glyph glyph-name="J" unicode="J" horiz-adv-x="411" 
d="M111 -12c-67 0 -121 29 -159 71l58 70c26 -33 60 -59 105 -59c48 0 91 32 108 124l91 506h95l-91 -510c-32 -177 -139 -202 -207 -202z" />
    <glyph glyph-name="K" unicode="K" horiz-adv-x="597" 
d="M285 356l158 -199c55 -69 80 -83 124 -83l-35 -81c-59 0 -95 21 -142 80l-196 250l-57 -323h-95l123 700h95l-55 -311l332 309l58 -64z" />
    <glyph glyph-name="L" unicode="L" horiz-adv-x="510" 
d="M42 0l123 700h95l-108 -615h321l-15 -85h-416z" />
    <glyph glyph-name="M" unicode="M" horiz-adv-x="831" 
d="M601 0l103 585l-259 -427h-93l-117 431l-103 -589h-90l123 700h129l118 -446l264 446h143l-123 -700h-95z" />
    <glyph glyph-name="N" unicode="N" horiz-adv-x="702" 
d="M443 0l-209 584l-102 -584h-90l123 700h126l205 -588l104 588h90l-123 -700h-124z" />
    <glyph glyph-name="O" unicode="O" horiz-adv-x="738" 
d="M416 630c-171 0 -272 -160 -272 -329c0 -128 70 -231 203 -231c171 0 272 160 272 329c0 128 -70 231 -203 231zM339 -12c-188 0 -292 135 -292 307c0 213 138 417 377 417c188 0 292 -135 292 -307c0 -213 -138 -417 -377 -417z" />
    <glyph glyph-name="P" unicode="P" horiz-adv-x="560" 
d="M42 0l121 690c51 10 107 18 178 18c162 0 242 -97 242 -203c0 -164 -131 -250 -309 -250c-32 0 -64 3 -91 10l-46 -265h-95zM331 629c-36 0 -62 -3 -85 -7l-49 -277c26 -8 59 -11 90 -11c143 0 203 67 203 160c0 79 -58 135 -159 135z" />
    <glyph glyph-name="Q" unicode="Q" horiz-adv-x="746" 
d="M334 -12c-186 0 -287 136 -287 307c0 213 133 417 372 417c186 0 287 -137 287 -307c0 -124 -41 -212 -103 -287c44 -34 76 -49 111 -49l-34 -81c-43 0 -67 13 -135 77c-62 -52 -127 -77 -211 -77zM415 187l56 58l70 -75c44 59 68 144 68 229c0 127 -67 231 -198 231
c-171 0 -267 -160 -267 -329c0 -126 66 -231 198 -231c59 0 104 17 146 48z" />
    <glyph glyph-name="R" unicode="R" horiz-adv-x="621" 
d="M42 0l122 690c60 11 106 18 177 18c152 0 234 -80 234 -178c0 -121 -85 -178 -211 -197c163 -74 87 -258 220 -258l-35 -82c-207 0 -90 312 -358 312l-54 -305h-95zM335 629c-35 0 -63 -3 -88 -8l-42 -236h83c117 0 193 52 193 133c0 65 -54 111 -146 111z" />
    <glyph glyph-name="S" unicode="S" horiz-adv-x="539" 
d="M386 177c0 55 -28 92 -139 154c-104 58 -143 108 -143 197c0 111 95 184 234 184c84 0 150 -23 209 -57l-49 -78c-48 30 -98 53 -168 53c-79 0 -131 -38 -131 -92c0 -50 28 -82 120 -131c131 -70 164 -131 164 -221c0 -123 -102 -198 -249 -198c-96 0 -174 27 -232 74
l62 77c45 -41 107 -68 180 -68c86 0 142 41 142 106z" />
    <glyph glyph-name="T" unicode="T" horiz-adv-x="554" 
d="M77 616l15 84h525l-15 -84h-215l-108 -616h-95l108 616h-215z" />
    <glyph glyph-name="U" unicode="U" horiz-adv-x="681" 
d="M618 70l-33 -75c-74 0 -113 34 -113 109v22c-54 -84 -125 -138 -223 -138c-102 0 -187 68 -187 193c0 30 3 54 8 86l74 433h95l-77 -454c-4 -24 -5 -38 -5 -58c0 -72 46 -117 119 -117c92 0 192 87 219 241l69 388h95l-98 -554c-1 -7 -2 -16 -2 -25c0 -36 22 -51 59 -51z
" />
    <glyph glyph-name="V" unicode="V" horiz-adv-x="622" 
d="M213 0l-146 691l95 20l121 -607l318 604l84 -46l-363 -662h-109z" />
    <glyph glyph-name="W" unicode="W" horiz-adv-x="941" 
d="M158 0l-76 697l98 10l54 -606l244 526h119l56 -526l267 603l84 -39l-308 -665h-118l-57 526l-245 -526h-118z" />
    <glyph glyph-name="X" unicode="X" horiz-adv-x="621" 
d="M-8 56l277 306l-178 296l85 51l158 -284l240 281l70 -63l-263 -290l194 -312l-85 -51l-174 298l-254 -295z" />
    <glyph glyph-name="Y" unicode="Y" horiz-adv-x="562" 
d="M131 70c40 0 74 25 103 76l43 78l-132 353c-13 36 -35 49 -75 49l40 79c71 0 103 -27 125 -92l101 -295l215 390l79 -43l-301 -525c-61 -107 -115 -152 -205 -152c-52 0 -102 22 -132 55l58 68c21 -24 48 -41 81 -41z" />
    <glyph glyph-name="Z" unicode="Z" horiz-adv-x="563" 
d="M-8 0l13 74l439 544h-341l14 82h459l-12 -72l-442 -544h380l-15 -84h-495z" />
    <glyph glyph-name="bracketleft" unicode="[" horiz-adv-x="300" 
d="M208 -100h-174l149 840h174l-14 -75h-94l-123 -690h96z" />
    <glyph glyph-name="backslash" unicode="\" horiz-adv-x="450" 
d="M351 -59l-73 -12l-140 832l73 12z" />
    <glyph glyph-name="bracketright" unicode="]" horiz-adv-x="300" 
d="M265 740l-149 -840h-173l14 75h92l122 690h-94l14 75h174z" />
    <glyph glyph-name="asciicircum" unicode="^" 
d="M536 568l-63 -58l-121 146l-179 -146l-49 62l216 168h42z" />
    <glyph glyph-name="underscore" unicode="_" 
d="M-60 -115l10 60h600l-11 -60h-599z" />
    <glyph glyph-name="grave" unicode="`" horiz-adv-x="309" 
d="M269 630l-36 -55l-193 109l52 76z" />
    <glyph glyph-name="a" unicode="a" horiz-adv-x="592" 
d="M37 205c0 193 138 327 331 327c78 0 138 -20 177 -36l-63 -355c-1 -7 -2 -16 -2 -25c0 -37 23 -51 58 -51l-31 -70c-72 0 -111 34 -111 109c-37 -64 -94 -116 -170 -116c-98 0 -189 83 -189 217zM419 288l27 155c-25 8 -51 13 -89 13c-138 0 -228 -102 -228 -240
c0 -96 60 -148 121 -148c81 0 147 91 169 220z" />
    <glyph glyph-name="b" unicode="b" horiz-adv-x="573" 
d="M541 340c0 -199 -148 -352 -354 -352c-62 0 -115 13 -150 30l127 722h90l-57 -325c38 71 101 117 177 117c95 0 167 -78 167 -192zM351 454c-73 0 -158 -67 -194 -267l-20 -111c21 -5 44 -8 71 -8c137 0 241 114 241 260c0 77 -40 126 -98 126z" />
    <glyph glyph-name="c" unicode="c" horiz-adv-x="460" 
d="M468 492l-37 -77c-34 21 -72 37 -118 37c-111 0 -184 -96 -184 -219c0 -101 55 -165 142 -165c51 0 88 14 120 30l11 -79c-33 -15 -80 -31 -146 -31c-130 0 -219 93 -219 233c0 167 108 311 283 311c62 0 110 -18 148 -40z" />
    <glyph glyph-name="d" unicode="d" horiz-adv-x="607" 
d="M550 65l-31 -70c-72 0 -111 34 -111 110c-39 -64 -98 -117 -175 -117c-101 0 -191 83 -191 217c0 204 137 327 264 327c71 0 123 -39 151 -90l53 298h90l-106 -599c-1 -7 -2 -16 -2 -25c0 -37 23 -51 58 -51zM257 68c75 0 147 76 168 194l18 103c-27 56 -75 89 -129 89
c-93 0 -180 -89 -180 -236c0 -98 60 -150 123 -150z" />
    <glyph glyph-name="e" unicode="e" horiz-adv-x="518" 
d="M261 -12c-132 0 -224 90 -224 237c0 166 110 307 281 307c115 0 183 -74 183 -154c0 -148 -157 -182 -272 -182c-36 0 -73 4 -100 8c10 -88 65 -136 147 -136c66 0 119 22 155 39l8 -80c-40 -19 -103 -39 -178 -39zM311 456c-94 0 -165 -77 -180 -180c31 -6 60 -9 98 -9
c112 0 182 28 182 104c0 47 -40 85 -100 85z" />
    <glyph glyph-name="f" unicode="f" horiz-adv-x="372" 
d="M258 584l-15 -83h154l-14 -78h-154l-88 -495c-21 -118 -82 -160 -165 -160c-44 0 -81 13 -109 34l36 74c19 -18 44 -30 74 -30c36 0 64 24 74 80l88 497h-80l14 78h80l15 80c23 122 89 171 188 171c54 0 102 -16 139 -36l-35 -76c-31 16 -61 32 -105 32
c-49 0 -86 -28 -97 -88z" />
    <glyph glyph-name="g" unicode="g" horiz-adv-x="577" 
d="M367 532c79 0 139 -20 178 -36l-87 -502c-32 -183 -140 -226 -233 -226c-91 0 -153 43 -193 93l70 52c33 -45 76 -67 129 -67c67 0 121 44 142 163l17 98c-38 -60 -94 -107 -163 -107c-96 0 -190 73 -190 207c0 193 141 325 330 325zM129 217c0 -90 60 -137 122 -137
c75 0 145 85 169 218l26 145c-25 8 -52 13 -89 13c-134 0 -228 -104 -228 -239z" />
    <glyph glyph-name="h" unicode="h" horiz-adv-x="589" 
d="M446 368c0 51 -33 85 -81 85c-71 0 -172 -73 -201 -240l-37 -213h-90l130 740h90l-58 -329c41 73 113 121 188 121c92 0 150 -63 150 -143c0 -19 -2 -38 -6 -63l-57 -326h-90l55 311c6 32 7 43 7 57z" />
    <glyph glyph-name="i" unicode="i" horiz-adv-x="255" 
d="M218 520l-91 -520h-90l91 520h90zM194 609c-37 0 -57 26 -57 55c0 42 30 71 70 71c37 0 57 -26 57 -55c0 -42 -30 -71 -70 -71z" />
    <glyph glyph-name="j" unicode="j" horiz-adv-x="264" 
d="M31 -74l105 594h90l-104 -592c-21 -118 -83 -160 -166 -160c-44 0 -81 13 -109 34l36 74c19 -18 44 -30 74 -30c36 0 64 24 74 80zM202 609c-37 0 -57 26 -57 55c0 42 30 71 70 71c37 0 57 -26 57 -55c0 -42 -30 -71 -70 -71z" />
    <glyph glyph-name="k" unicode="k" horiz-adv-x="543" 
d="M37 0l130 740h90l-54 -307c36 61 97 99 170 99c86 0 148 -60 148 -134c0 -106 -80 -154 -189 -154c-7 0 -13 0 -22 1l85 -130c23 -35 48 -50 97 -50l-31 -70c-62 0 -102 13 -135 70l-123 212l9 29c20 -9 51 -16 90 -16c87 0 132 40 132 98c0 41 -32 74 -83 74
c-56 0 -151 -44 -179 -203l-45 -259h-90z" />
    <glyph glyph-name="l" unicode="l" horiz-adv-x="328" 
d="M244 740l-98 -560c-3 -18 -4 -31 -4 -42c0 -46 29 -72 75 -72c23 0 46 6 65 15l9 -73c-24 -12 -57 -20 -94 -20c-80 0 -145 45 -145 139c0 19 1 32 4 51l98 562h90z" />
    <glyph glyph-name="m" unicode="m" horiz-adv-x="913" 
d="M690 453c-67 0 -161 -73 -190 -238l-38 -215h-90l57 311c6 32 7 43 7 57c0 52 -33 85 -81 85c-70 0 -162 -76 -192 -246l-36 -207h-90l91 520h87l-22 -120c40 80 114 132 188 132c82 0 136 -56 143 -132c45 83 114 132 191 132c89 0 146 -63 146 -143
c0 -19 -2 -38 -6 -63l-58 -326h-90l57 311c6 32 7 43 7 57c0 52 -33 85 -81 85z" />
    <glyph glyph-name="n" unicode="n" horiz-adv-x="589" 
d="M364 453c-70 0 -171 -76 -201 -246l-36 -207h-90l91 520h87l-22 -120c41 80 116 132 194 132c91 0 150 -63 150 -143c0 -19 -2 -38 -6 -63l-57 -326h-90l55 311c6 32 7 43 7 57c0 52 -33 85 -82 85z" />
    <glyph glyph-name="o" unicode="o" horiz-adv-x="601" 
d="M281 68c119 0 191 97 191 221c0 91 -56 163 -152 163c-118 0 -191 -97 -191 -221c0 -91 56 -163 152 -163zM278 -12c-148 0 -241 98 -241 235c0 173 112 309 286 309c148 0 241 -98 241 -235c0 -173 -112 -309 -286 -309z" />
    <glyph glyph-name="p" unicode="p" horiz-adv-x="602" 
d="M65 450l32 70c70 0 104 -31 104 -90v-21c38 72 100 123 182 123c108 0 177 -89 177 -216c0 -198 -128 -328 -258 -328c-64 0 -123 36 -154 83l-51 -291h-90l104 595c2 11 3 19 3 28c0 33 -18 47 -49 47zM294 68c94 0 174 98 174 239c0 91 -46 147 -112 147
c-81 0 -154 -80 -176 -201l-18 -101c29 -54 78 -84 132 -84z" />
    <glyph glyph-name="q" unicode="q" horiz-adv-x="577" 
d="M227 -12c-100 0 -190 83 -190 217c0 193 140 327 331 327c79 0 138 -20 177 -36l-126 -716h-90l54 308c-37 -57 -89 -100 -156 -100zM250 68c75 0 143 80 164 199l31 176c-24 8 -50 13 -87 13c-139 0 -229 -102 -229 -240c0 -96 59 -148 121 -148z" />
    <glyph glyph-name="r" unicode="r" horiz-adv-x="405" 
d="M52 0l66 374c1 7 2 16 2 25c0 37 -23 51 -58 51l31 70c71 0 110 -34 110 -101v-20c38 95 101 133 178 133c30 0 52 -6 67 -12l-40 -88c-16 6 -32 9 -55 9c-73 0 -147 -67 -182 -272l-29 -169h-90z" />
    <glyph glyph-name="s" unicode="s" horiz-adv-x="444" 
d="M437 483l-36 -76c-39 27 -85 50 -145 50c-63 0 -99 -24 -99 -58c0 -31 20 -51 103 -93c91 -46 134 -89 134 -160c0 -106 -92 -158 -209 -158c-81 0 -143 23 -188 56l51 74c36 -29 86 -52 145 -52c67 0 108 29 108 66c0 35 -22 59 -105 101c-100 50 -128 91 -128 161
c0 80 78 138 190 138c74 0 134 -22 179 -49z" />
    <glyph glyph-name="t" unicode="t" horiz-adv-x="391" 
d="M42 423l13 78h92l48 164h69l-29 -164h144l-13 -78h-145l-42 -243c-3 -15 -4 -27 -4 -38c0 -47 30 -74 76 -74c38 0 63 14 85 26l11 -78c-25 -15 -65 -28 -111 -28c-75 0 -150 43 -150 147c0 15 1 29 4 49l41 239h-89z" />
    <glyph glyph-name="u" unicode="u" horiz-adv-x="579" 
d="M194 -12c-80 0 -147 56 -147 146c0 17 1 35 4 55l57 331h90l-58 -329c-2 -13 -3 -22 -3 -34c0 -60 40 -89 87 -89c75 0 156 73 178 197l45 255h90l-66 -379c-1 -7 -2 -16 -2 -25c0 -37 23 -51 58 -51l-31 -70c-72 0 -111 34 -111 109v9c-48 -82 -111 -125 -191 -125z" />
    <glyph glyph-name="v" unicode="v" horiz-adv-x="509" 
d="M162 0l-125 508l85 22l103 -430l249 430l73 -43l-292 -487h-93z" />
    <glyph glyph-name="w" unicode="w" horiz-adv-x="790" 
d="M229 0h-99l-78 513l87 12l59 -425l189 383h95l52 -383l210 425l74 -38l-249 -487h-99l-52 382z" />
    <glyph glyph-name="x" unicode="x" horiz-adv-x="495" 
d="M-18 51l214 218l-152 204l78 58l132 -206l182 200l62 -58l-199 -203l160 -218l-75 -55l-142 216l-201 -213z" />
    <glyph glyph-name="y" unicode="y" horiz-adv-x="561" 
d="M225 80c75 0 155 74 178 204l41 236h90l-91 -526c-32 -183 -140 -226 -233 -226c-91 0 -153 43 -193 93l70 52c33 -45 76 -67 129 -67c67 0 121 44 142 163l19 106c-40 -64 -102 -115 -182 -115c-79 0 -145 56 -145 146c0 14 1 34 4 55l54 319h90l-55 -317
c-2 -12 -3 -22 -3 -34c0 -60 39 -89 85 -89z" />
    <glyph glyph-name="z" unicode="z" horiz-adv-x="476" 
d="M75 442l13 78h386l-12 -69l-336 -371h288l-15 -80h-402l13 71l333 371h-268z" />
    <glyph glyph-name="braceleft" unicode="{" horiz-adv-x="450" 
d="M164 320c58 -16 88 -49 88 -112c0 -56 -17 -108 -17 -169c0 -63 25 -86 79 -100l-10 -57c-92 15 -153 56 -153 155c0 57 13 106 13 165c0 56 -22 78 -74 86l11 64c68 17 100 38 125 170c32 166 89 217 232 236l-10 -57c-74 -19 -111 -51 -131 -175
c-25 -152 -61 -181 -153 -206z" />
    <glyph glyph-name="bar" unicode="|" horiz-adv-x="300" 
d="M123 -100h-78l152 870h78z" />
    <glyph glyph-name="braceright" unicode="}" horiz-adv-x="450" 
d="M374 352l-11 -64c-68 -17 -101 -38 -126 -170c-32 -166 -88 -217 -231 -236l10 57c74 19 111 51 131 175c25 152 61 181 153 206c-58 16 -88 49 -88 112c0 56 17 108 17 169c0 63 -25 86 -79 100l10 57c92 -15 153 -56 153 -155c0 -57 -13 -106 -13 -165
c0 -56 22 -78 74 -86z" />
    <glyph glyph-name="asciitilde" unicode="~" 
d="M524 322c-25 -23 -78 -69 -140 -69c-72 0 -118 57 -180 57c-40 0 -76 -26 -104 -48l-24 66c34 29 79 62 129 62c71 0 118 -57 180 -57c52 0 89 36 114 55z" />
    <glyph glyph-name="nbspace" unicode="&#xa0;" horiz-adv-x="300" 
 />
    <glyph glyph-name="exclamdown" unicode="&#xa1;" horiz-adv-x="317" 
d="M174 41l-47 -261h-100l47 261l61 273h74zM191 398c-38 0 -62 27 -62 57c0 49 36 77 74 77s62 -27 62 -57c0 -49 -36 -77 -74 -77z" />
    <glyph glyph-name="cent" unicode="&#xa2;" horiz-adv-x="450" 
d="M466 521l-37 -77c-34 21 -72 37 -118 37c-111 0 -184 -96 -184 -219c0 -101 55 -165 142 -165c51 0 88 14 120 30l11 -79c-31 -16 -76 -29 -134 -31l-11 -112h-88l30 118c-98 24 -162 108 -162 227c0 158 97 295 255 310l11 106h88l-27 -108c41 -6 75 -20 104 -37z" />
    <glyph glyph-name="sterling" unicode="&#xa3;" 
d="M492 83l-14 -83h-427l13 73c67 76 94 127 118 248h-76l14 76h76l24 137c23 129 102 178 201 178c65 0 111 -23 148 -44l-41 -70c-30 19 -65 38 -106 38c-55 0 -101 -30 -116 -111l-24 -128h168l-14 -76h-169c-25 -119 -57 -182 -107 -238h332z" />
    <glyph glyph-name="currency" unicode="&#xa4;" 
d="M326 532c29 0 57 -8 82 -20l69 74l61 -55l-72 -68c21 -28 34 -64 34 -103c0 -61 -24 -114 -62 -152l48 -68l-69 -50l-43 73c-28 -12 -59 -19 -91 -19c-33 0 -64 8 -90 23l-71 -77l-61 55l76 72c-20 28 -31 61 -31 99c0 61 24 114 62 152l-47 68l69 50l42 -74
c29 13 61 20 94 20zM315 460c-79 0 -126 -64 -126 -137c0 -62 45 -107 104 -107c79 0 124 64 124 137c0 62 -43 107 -102 107z" />
    <glyph glyph-name="yen" unicode="&#xa5;" 
d="M85 266l13 73h118l-151 328l84 38l155 -354l272 354l73 -49l-257 -317h116l-13 -73h-157l-12 -67h157l-13 -73h-157l-22 -126h-95l22 126h-158l13 73h158l12 67h-158z" />
    <glyph glyph-name="brokenbar" unicode="&#xa6;" horiz-adv-x="300" 
d="M45 -100l62 357h78l-62 -357h-78zM136 422l61 348h78l-61 -348h-78z" />
    <glyph glyph-name="section" unicode="&#xa7;" 
d="M291 227c73 19 126 59 126 117c0 39 -25 72 -84 96c-65 -14 -130 -56 -130 -115c0 -39 26 -73 88 -98zM72 -31l37 70c34 -22 74 -39 128 -39c68 0 104 25 104 65c0 34 -21 60 -95 98c-91 47 -128 86 -128 152c0 83 62 132 152 160c-56 34 -80 68 -80 120
c0 87 88 138 196 138c60 0 103 -14 142 -32l-39 -65c-30 17 -62 29 -108 29c-58 0 -107 -25 -107 -68c0 -33 26 -56 112 -100c82 -42 116 -85 116 -144c0 -88 -56 -132 -153 -163c54 -31 80 -68 80 -118c0 -100 -97 -144 -195 -144c-66 0 -117 13 -162 41z" />
    <glyph glyph-name="dieresis" unicode="&#xa8;" horiz-adv-x="380" 
d="M94 607c-35 0 -54 25 -54 52c0 40 29 68 67 68c35 0 54 -25 54 -52c0 -40 -29 -68 -67 -68zM273 607c-35 0 -54 25 -54 52c0 40 29 68 67 68c35 0 54 -25 54 -52c0 -40 -29 -68 -67 -68z" />
    <glyph glyph-name="copyright" unicode="&#xa9;" horiz-adv-x="750" 
d="M422 501c-79 0 -140 -76 -140 -182c0 -76 41 -116 98 -116c32 0 64 12 100 33l14 -79c-35 -18 -76 -31 -123 -31c-106 0 -175 68 -175 188c0 149 94 264 229 264c49 0 89 -16 123 -38l-37 -70c-23 16 -52 31 -89 31zM357 51c185 0 302 148 302 348
c0 145 -94 250 -246 250c-188 0 -307 -146 -307 -348c0 -146 94 -250 251 -250zM349 -12c-201 0 -317 128 -317 312c0 225 141 412 384 412c203 0 317 -129 317 -312c0 -223 -139 -412 -384 -412z" />
    <glyph glyph-name="ordfeminine" unicode="&#xaa;" 
d="M451 132h-340l15 82h340zM123 472c0 141 104 235 255 235c59 0 104 -11 141 -24l-47 -231c-2 -9 -3 -17 -3 -25c0 -23 15 -37 44 -37l-29 -64c-55 0 -91 28 -91 80c-30 -50 -72 -83 -131 -83c-67 0 -139 53 -139 149zM287 396c44 0 93 36 113 139l19 97
c-13 3 -27 5 -48 5c-94 0 -160 -65 -160 -155c0 -56 35 -86 76 -86z" />
    <glyph glyph-name="guillemotleft" unicode="&#xab;" horiz-adv-x="569" 
d="M258 178l-64 -49l-124 194l7 42l187 194l55 -49l-174 -171zM458 178l-64 -49l-124 194l7 42l187 194l55 -49l-174 -171z" />
    <glyph glyph-name="logicalnot" unicode="&#xac;" 
d="M545 383l-47 -263h-91l32 180h-379l15 83h470z" />
    <glyph glyph-name="uni00AD" unicode="&#xad;" 
d="M467 302h-340l15 82h340z" />
    <glyph glyph-name="registered" unicode="&#xae;" horiz-adv-x="750" 
d="M349 -12c-201 0 -317 128 -317 312c0 225 141 412 384 412c203 0 317 -129 317 -312c0 -223 -139 -412 -384 -412zM357 51c185 0 302 148 302 348c0 145 -94 250 -246 250c-188 0 -307 -146 -307 -348c0 -146 94 -250 251 -250zM554 211l-32 -72c-131 0 -64 171 -202 179
l-31 -175h-80l75 420c38 7 67 10 111 10c95 0 146 -52 146 -114c0 -67 -45 -102 -115 -113c91 -46 41 -135 128 -135zM393 502c-15 0 -28 -1 -41 -3l-20 -111h34c59 0 97 25 97 64c0 29 -25 50 -70 50z" />
    <glyph glyph-name="macron" unicode="&#xaf;" horiz-adv-x="403" 
d="M340 627h-290l13 73h290z" />
    <glyph glyph-name="degree" unicode="&#xb0;" horiz-adv-x="450" 
d="M208 458c-81 0 -134 57 -134 126c0 95 74 156 158 156c81 0 134 -57 134 -126c0 -95 -74 -156 -158 -156zM215 532c36 0 71 28 71 75c0 30 -24 59 -62 59c-36 0 -70 -28 -70 -75c0 -30 23 -59 61 -59z" />
    <glyph glyph-name="plusminus" unicode="&#xb1;" 
d="M492 394h-127l-24 -135h-85l24 135h-128l13 78h128l24 136h85l-24 -136h127zM436 81h-340l15 82h340z" />
    <glyph glyph-name="twosuperior" unicode="&#xb2;" horiz-adv-x="450" 
d="M426 597c0 -140 -218 -144 -249 -254h212l-13 -67h-288c-2 10 -3 22 -3 32c0 180 257 191 257 286c0 28 -27 48 -60 48c-35 0 -68 -14 -101 -40l-37 56c42 29 87 49 146 49c81 0 136 -48 136 -110z" />
    <glyph glyph-name="threesuperior" unicode="&#xb3;" horiz-adv-x="450" 
d="M216 270c-53 0 -106 15 -144 41l48 56c27 -18 61 -31 99 -31c57 0 95 22 95 67c0 37 -40 64 -113 64h-42l11 60h31c79 0 136 24 136 68c0 28 -27 48 -68 48c-40 0 -69 -14 -95 -30l-34 54c37 23 84 40 137 40c87 0 141 -50 141 -104s-33 -85 -91 -106
c45 -21 70 -52 70 -94c0 -81 -66 -133 -181 -133z" />
    <glyph glyph-name="acute" unicode="&#xb4;" horiz-adv-x="309" 
d="M76 575l-36 55l177 130l52 -76z" />
    <glyph glyph-name="mu" unicode="&#xb5;" 
d="M10 -220l131 740h83l-58 -329c-2 -12 -3 -24 -3 -35c0 -56 39 -88 87 -88c75 0 156 75 179 201l45 251h86l-92 -520h-83l17 96c-40 -61 -98 -108 -172 -108c-46 0 -79 25 -94 57l-48 -265h-78z" />
    <glyph glyph-name="paragraph" unicode="&#xb6;" horiz-adv-x="750" 
d="M514 -64h-78l145 824h78zM520 764l-146 -828h-78l82 465c-21 -3 -44 -4 -67 -4c-136 0 -221 64 -221 177c0 118 102 205 261 205c73 0 118 -7 169 -15zM392 480l37 215c-25 4 -53 7 -83 7c-105 0 -166 -54 -166 -125c0 -59 48 -103 137 -103c32 0 54 1 75 6z" />
    <glyph glyph-name="periodcentered" unicode="&#xb7;" horiz-adv-x="300" 
d="M154 288c-38 0 -62 27 -62 57c0 49 36 77 74 77s62 -27 62 -57c0 -49 -36 -77 -74 -77z" />
    <glyph glyph-name="cedilla" unicode="&#xb8;" horiz-adv-x="312" 
d="M282 -140c0 -68 -64 -104 -145 -104c-46 0 -79 9 -107 23l35 63c21 -12 43 -20 72 -20c40 0 63 14 63 39c0 24 -27 44 -107 44l52 95h74l-31 -59c55 0 94 -33 94 -81z" />
    <glyph glyph-name="onesuperior" unicode="&#xb9;" horiz-adv-x="450" 
d="M122 341h97l52 261l-86 -54l-39 60l168 92h59l-74 -359h81l-14 -65h-256z" />
    <glyph glyph-name="ordmasculine" unicode="&#xba;" horiz-adv-x="610" 
d="M356 707c113 0 187 -69 187 -167c0 -123 -86 -218 -221 -218c-113 0 -187 69 -187 167c0 123 86 218 221 218zM457 132h-340l15 82h340zM352 634c-81 0 -131 -61 -131 -139c0 -56 40 -100 105 -100c81 0 131 61 131 139c0 56 -40 100 -105 100z" />
    <glyph glyph-name="guillemotright" unicode="&#xbb;" horiz-adv-x="569" 
d="M131 510l64 49l124 -194l-7 -42l-187 -194l-55 49l174 171zM331 510l64 49l124 -194l-7 -42l-187 -194l-55 49l174 171z" />
    <glyph glyph-name="onequarter" unicode="&#xbc;" horiz-adv-x="900" 
d="M224 -39l-55 40l563 739l55 -40zM684 0l15 87h-204l9 52l197 291l68 -26l-170 -251h112l20 114h77l-20 -114h57l-12 -66h-57l-15 -87h-77zM67 341h97l52 261l-86 -54l-39 60l168 92h59l-74 -359h81l-14 -65h-256z" />
    <glyph glyph-name="onehalf" unicode="&#xbd;" horiz-adv-x="900" 
d="M205 -39l-55 40l563 739l55 -40zM46 341h97l52 261l-86 -54l-39 60l168 92h59l-74 -359h81l-14 -65h-256zM866 321c0 -140 -218 -144 -249 -254h212l-13 -67h-288c-2 10 -3 22 -3 32c0 180 257 191 257 286c0 28 -27 48 -60 48c-35 0 -68 -14 -101 -40l-37 56
c42 29 87 49 146 49c81 0 136 -48 136 -110z" />
    <glyph glyph-name="threequarters" unicode="&#xbe;" horiz-adv-x="900" 
d="M240 -39l-55 40l563 739l55 -40zM692 0l15 87h-204l9 52l197 291l68 -26l-170 -251h112l20 114h77l-20 -114h57l-12 -66h-57l-15 -87h-77zM191 270c-53 0 -106 15 -144 41l48 56c27 -18 61 -31 99 -31c57 0 95 22 95 67c0 37 -40 64 -113 64h-42l11 60h31
c79 0 136 24 136 68c0 28 -27 48 -68 48c-40 0 -69 -14 -95 -30l-34 54c37 23 84 40 137 40c87 0 141 -50 141 -104s-33 -85 -91 -106c45 -21 70 -52 70 -94c0 -81 -66 -133 -181 -133z" />
    <glyph glyph-name="questiondown" unicode="&#xbf;" horiz-adv-x="498" 
d="M100 -64c0 -49 41 -86 100 -86c58 0 109 35 151 87l60 -60c-58 -66 -126 -109 -224 -109c-106 0 -185 69 -185 160c0 176 237 177 258 323l9 62h73c2 -16 4 -36 4 -55c0 -203 -246 -199 -246 -322zM307 398c-38 0 -62 27 -62 57c0 49 36 77 74 77s62 -27 62 -57
c0 -49 -36 -77 -74 -77z" />
    <glyph glyph-name="Agrave" unicode="&#xc0;" horiz-adv-x="663" 
d="M48 -8l-76 45l384 663h107l153 -689l-91 -21l-42 200h-324zM395 607l-191 -337h262zM549 790l-36 -56l-193 110l52 76z" />
    <glyph glyph-name="Aacute" unicode="&#xc1;" horiz-adv-x="663" 
d="M48 -8l-76 45l384 663h107l153 -689l-91 -21l-42 200h-324zM395 607l-191 -337h262zM356 734l-36 56l177 130l52 -76z" />
    <glyph glyph-name="Acircumflex" unicode="&#xc2;" horiz-adv-x="663" 
d="M48 -8l-76 45l384 663h107l153 -689l-91 -21l-42 200h-324zM395 607l-191 -337h262zM435 837l-150 -95l-34 75l162 83h64l132 -96l-56 -62z" />
    <glyph glyph-name="Atilde" unicode="&#xc3;" horiz-adv-x="663" 
d="M48 -8l-76 45l384 663h107l153 -689l-91 -21l-42 200h-324zM395 607l-191 -337h262zM586 806c-28 -24 -58 -47 -99 -47c-53 0 -73 35 -118 35c-30 0 -56 -16 -80 -36l-24 62c31 29 73 52 111 52c52 0 70 -34 117 -34c26 0 49 15 69 31z" />
    <glyph glyph-name="Adieresis" unicode="&#xc4;" horiz-adv-x="663" 
d="M48 -8l-76 45l384 663h107l153 -689l-91 -21l-42 200h-324zM395 607l-191 -337h262zM335 760c-35 0 -54 25 -54 52c0 40 29 68 67 68c35 0 54 -25 54 -52c0 -40 -29 -68 -67 -68zM514 760c-35 0 -54 25 -54 52c0 40 29 68 67 68c35 0 54 -25 54 -52
c0 -40 -29 -68 -67 -68z" />
    <glyph glyph-name="Aring" unicode="&#xc5;" horiz-adv-x="663" 
d="M48 -8l-76 45l361 624c-24 18 -38 46 -38 81c0 78 55 136 139 136c66 0 114 -40 114 -104c0 -56 -28 -101 -75 -123l143 -640l-91 -21l-42 200h-324zM395 607l-191 -337h262zM415 700c33 0 55 29 55 65c0 30 -16 51 -42 51c-33 0 -55 -29 -55 -65c0 -29 14 -49 38 -51h4z
" />
    <glyph glyph-name="AE" unicode="&#xc6;" horiz-adv-x="872" 
d="M34 -9l-72 51l483 658h465l-14 -82h-310l-38 -213h265l-14 -80h-265l-43 -243h310l-14 -82h-402l33 190h-239zM494 623l-257 -353h195z" />
    <glyph glyph-name="Ccedilla" unicode="&#xc7;" horiz-adv-x="560" 
d="M399 -140c0 -68 -64 -104 -145 -104c-46 0 -79 9 -107 23l35 63c21 -12 43 -20 72 -20c40 0 63 14 63 39c0 24 -27 44 -107 44l48 89c-129 23 -211 127 -211 292c0 240 150 426 367 426c79 0 139 -26 179 -49l-43 -78c-40 25 -81 44 -144 44c-146 0 -261 -141 -261 -336
c0 -144 79 -222 188 -222c62 0 108 20 155 44l16 -86c-47 -22 -103 -39 -175 -41l-24 -47c55 0 94 -33 94 -81z" />
    <glyph glyph-name="Egrave" unicode="&#xc8;" horiz-adv-x="542" 
d="M42 0l123 700h415l-14 -82h-321l-37 -213h275l-14 -80h-275l-43 -243h320l-14 -82h-415zM495 790l-36 -56l-193 110l52 76z" />
    <glyph glyph-name="Eacute" unicode="&#xc9;" horiz-adv-x="542" 
d="M42 0l123 700h415l-14 -82h-321l-37 -213h275l-14 -80h-275l-43 -243h320l-14 -82h-415zM324 734l-36 56l177 130l52 -76z" />
    <glyph glyph-name="Ecircumflex" unicode="&#xca;" horiz-adv-x="542" 
d="M42 0l123 700h415l-14 -82h-321l-37 -213h275l-14 -80h-275l-43 -243h320l-14 -82h-415zM396 837l-150 -95l-34 75l162 83h64l132 -96l-56 -62z" />
    <glyph glyph-name="Edieresis" unicode="&#xcb;" horiz-adv-x="542" 
d="M42 0l123 700h415l-14 -82h-321l-37 -213h275l-14 -80h-275l-43 -243h320l-14 -82h-415zM292 760c-35 0 -54 25 -54 52c0 40 29 68 67 68c35 0 54 -25 54 -52c0 -40 -29 -68 -67 -68zM471 760c-35 0 -54 25 -54 52c0 40 29 68 67 68c35 0 54 -25 54 -52
c0 -40 -29 -68 -67 -68z" />
    <glyph glyph-name="Igrave" unicode="&#xcc;" horiz-adv-x="272" 
d="M137 0h-95l123 700h95zM351 790l-36 -56l-193 110l52 76z" />
    <glyph glyph-name="Iacute" unicode="&#xcd;" horiz-adv-x="272" 
d="M137 0h-95l123 700h95zM156 734l-36 56l177 130l52 -76z" />
    <glyph glyph-name="Icircumflex" unicode="&#xce;" horiz-adv-x="272" 
d="M137 0h-95l123 700h95zM239 837l-150 -95l-34 75l162 83h64l132 -96l-56 -62z" />
    <glyph glyph-name="Idieresis" unicode="&#xcf;" horiz-adv-x="272" 
d="M137 0h-95l123 700h95zM137 760c-35 0 -54 25 -54 52c0 40 29 68 67 68c35 0 54 -25 54 -52c0 -40 -29 -68 -67 -68zM316 760c-35 0 -54 25 -54 52c0 40 29 68 67 68c35 0 54 -25 54 -52c0 -40 -29 -68 -67 -68z" />
    <glyph glyph-name="Eth" unicode="&#xd0;" horiz-adv-x="683" 
d="M12 304l14 80h99l54 308c55 12 103 20 183 20c212 0 299 -147 299 -309c0 -241 -151 -415 -394 -415c-85 0 -151 12 -205 32l49 284h-99zM354 632c-35 0 -65 -4 -92 -10l-42 -238h149l-15 -80h-148l-38 -221c31 -8 65 -13 105 -13c174 0 290 132 290 325
c0 125 -64 237 -209 237z" />
    <glyph glyph-name="Ntilde" unicode="&#xd1;" horiz-adv-x="702" 
d="M443 0l-209 584l-102 -584h-90l123 700h126l205 -588l104 588h90l-123 -700h-124zM611 806c-28 -24 -58 -47 -99 -47c-53 0 -73 35 -118 35c-30 0 -56 -16 -80 -36l-24 62c31 29 73 52 111 52c52 0 70 -34 117 -34c26 0 49 15 69 31z" />
    <glyph glyph-name="Ograve" unicode="&#xd2;" horiz-adv-x="738" 
d="M416 630c-171 0 -272 -160 -272 -329c0 -128 70 -231 203 -231c171 0 272 160 272 329c0 128 -70 231 -203 231zM339 -12c-188 0 -292 135 -292 307c0 213 138 417 377 417c188 0 292 -135 292 -307c0 -213 -138 -417 -377 -417zM534 790l-36 -56l-193 110l52 76z" />
    <glyph glyph-name="Oacute" unicode="&#xd3;" horiz-adv-x="738" 
d="M416 630c-171 0 -272 -160 -272 -329c0 -128 70 -231 203 -231c171 0 272 160 272 329c0 128 -70 231 -203 231zM339 -12c-188 0 -292 135 -292 307c0 213 138 417 377 417c188 0 292 -135 292 -307c0 -213 -138 -417 -377 -417zM367 734l-36 56l177 130l52 -76z" />
    <glyph glyph-name="Ocircumflex" unicode="&#xd4;" horiz-adv-x="738" 
d="M416 630c-171 0 -272 -160 -272 -329c0 -128 70 -231 203 -231c171 0 272 160 272 329c0 128 -70 231 -203 231zM339 -12c-188 0 -292 135 -292 307c0 213 138 417 377 417c188 0 292 -135 292 -307c0 -213 -138 -417 -377 -417zM438 837l-150 -95l-34 75l162 83h64
l132 -96l-56 -62z" />
    <glyph glyph-name="Otilde" unicode="&#xd5;" horiz-adv-x="738" 
d="M416 630c-171 0 -272 -160 -272 -329c0 -128 70 -231 203 -231c171 0 272 160 272 329c0 128 -70 231 -203 231zM339 -12c-188 0 -292 135 -292 307c0 213 138 417 377 417c188 0 292 -135 292 -307c0 -213 -138 -417 -377 -417zM599 806c-28 -24 -58 -47 -99 -47
c-53 0 -73 35 -118 35c-30 0 -56 -16 -80 -36l-24 62c31 29 73 52 111 52c52 0 70 -34 117 -34c26 0 49 15 69 31z" />
    <glyph glyph-name="Odieresis" unicode="&#xd6;" horiz-adv-x="738" 
d="M416 630c-171 0 -272 -160 -272 -329c0 -128 70 -231 203 -231c171 0 272 160 272 329c0 128 -70 231 -203 231zM339 -12c-188 0 -292 135 -292 307c0 213 138 417 377 417c188 0 292 -135 292 -307c0 -213 -138 -417 -377 -417zM341 760c-35 0 -54 25 -54 52
c0 40 29 68 67 68c35 0 54 -25 54 -52c0 -40 -29 -68 -67 -68zM520 760c-35 0 -54 25 -54 52c0 40 29 68 67 68c35 0 54 -25 54 -52c0 -40 -29 -68 -67 -68z" />
    <glyph glyph-name="multiply" unicode="&#xd7;" 
d="M251 348l-111 133l62 53l110 -136l158 136l48 -59l-158 -134l113 -133l-62 -52l-111 135l-159 -135l-48 59z" />
    <glyph glyph-name="Oslash" unicode="&#xd8;" horiz-adv-x="738" 
d="M339 -12c-49 0 -93 10 -130 26l-78 -132l-78 45l91 128c-64 56 -97 142 -97 240c0 213 138 417 377 417c50 0 94 -10 131 -27l74 124l78 -45l-86 -122c62 -56 95 -141 95 -237c0 -213 -138 -417 -377 -417zM416 630c-171 0 -272 -160 -272 -329c0 -65 18 -123 53 -165
l310 474c-26 13 -56 20 -91 20zM619 399c0 63 -17 121 -51 163l-310 -474c25 -12 53 -18 89 -18c171 0 272 160 272 329z" />
    <glyph glyph-name="Ugrave" unicode="&#xd9;" horiz-adv-x="681" 
d="M618 70l-33 -75c-74 0 -113 34 -113 109v22c-54 -84 -125 -138 -223 -138c-102 0 -187 68 -187 193c0 30 3 54 8 86l74 433h95l-77 -454c-4 -24 -5 -38 -5 -58c0 -72 46 -117 119 -117c92 0 192 87 219 241l69 388h95l-98 -554c-1 -7 -2 -16 -2 -25c0 -36 22 -51 59 -51z
M515 790l-36 -56l-193 110l52 76z" />
    <glyph glyph-name="Uacute" unicode="&#xda;" horiz-adv-x="681" 
d="M618 70l-33 -75c-74 0 -113 34 -113 109v22c-54 -84 -125 -138 -223 -138c-102 0 -187 68 -187 193c0 30 3 54 8 86l74 433h95l-77 -454c-4 -24 -5 -38 -5 -58c0 -72 46 -117 119 -117c92 0 192 87 219 241l69 388h95l-98 -554c-1 -7 -2 -16 -2 -25c0 -36 22 -51 59 -51z
M356 734l-36 56l177 130l52 -76z" />
    <glyph glyph-name="Ucircumflex" unicode="&#xdb;" horiz-adv-x="681" 
d="M618 70l-33 -75c-74 0 -113 34 -113 109v22c-54 -84 -125 -138 -223 -138c-102 0 -187 68 -187 193c0 30 3 54 8 86l74 433h95l-77 -454c-4 -24 -5 -38 -5 -58c0 -72 46 -117 119 -117c92 0 192 87 219 241l69 388h95l-98 -554c-1 -7 -2 -16 -2 -25c0 -36 22 -51 59 -51z
M423 837l-150 -95l-34 75l162 83h64l132 -96l-56 -62z" />
    <glyph glyph-name="Udieresis" unicode="&#xdc;" horiz-adv-x="681" 
d="M618 70l-33 -75c-74 0 -113 34 -113 109v22c-54 -84 -125 -138 -223 -138c-102 0 -187 68 -187 193c0 30 3 54 8 86l74 433h95l-77 -454c-4 -24 -5 -38 -5 -58c0 -72 46 -117 119 -117c92 0 192 87 219 241l69 388h95l-98 -554c-1 -7 -2 -16 -2 -25c0 -36 22 -51 59 -51z
M323 760c-35 0 -54 25 -54 52c0 40 29 68 67 68c35 0 54 -25 54 -52c0 -40 -29 -68 -67 -68zM502 760c-35 0 -54 25 -54 52c0 40 29 68 67 68c35 0 54 -25 54 -52c0 -40 -29 -68 -67 -68z" />
    <glyph glyph-name="Yacute" unicode="&#xdd;" horiz-adv-x="562" 
d="M94 70c40 0 74 25 103 76l43 78l-132 353c-13 36 -35 49 -75 49l40 79c71 0 103 -27 125 -92l101 -295l215 390l79 -43l-301 -525c-61 -107 -115 -152 -205 -152c-52 0 -102 22 -132 55l58 68c21 -24 48 -41 81 -41zM315 734l-36 56l177 130l52 -76z" />
    <glyph glyph-name="Thorn" unicode="&#xde;" horiz-adv-x="564" 
d="M321 585c163 0 241 -97 241 -203c0 -164 -131 -250 -309 -250c-32 0 -64 3 -91 10l-25 -142h-95l123 700h95l-21 -120c25 3 52 5 82 5zM313 506c-38 0 -65 -3 -89 -8l-48 -276c25 -8 58 -11 90 -11c143 0 203 67 203 160c0 79 -55 135 -156 135z" />
    <glyph glyph-name="germandbls" unicode="&#xdf;" horiz-adv-x="619" 
d="M168 470c25 201 113 282 249 282c110 0 190 -72 190 -171c0 -100 -57 -162 -158 -194c78 -37 125 -97 125 -183c0 -129 -95 -216 -236 -216c-49 0 -96 15 -120 31l34 77c16 -14 53 -28 91 -28c80 0 138 50 138 134c0 79 -61 139 -155 150l13 73c98 0 178 52 178 143
c0 56 -42 104 -108 104c-88 0 -146 -67 -175 -232l-117 -660h-90l99 566c2 12 3 21 3 30c0 41 -27 63 -75 63l31 81c48 0 70 -16 83 -50z" />
    <glyph glyph-name="agrave" unicode="&#xe0;" horiz-adv-x="592" 
d="M37 205c0 193 138 327 331 327c78 0 138 -20 177 -36l-63 -355c-1 -7 -2 -16 -2 -25c0 -37 23 -51 58 -51l-31 -70c-72 0 -111 34 -111 109c-37 -64 -94 -116 -170 -116c-98 0 -189 83 -189 217zM419 288l27 155c-25 8 -51 13 -89 13c-138 0 -228 -102 -228 -240
c0 -96 60 -148 121 -148c81 0 147 91 169 220zM516 630l-36 -55l-193 109l52 76z" />
    <glyph glyph-name="aacute" unicode="&#xe1;" horiz-adv-x="592" 
d="M37 205c0 193 138 327 331 327c78 0 138 -20 177 -36l-63 -355c-1 -7 -2 -16 -2 -25c0 -37 23 -51 58 -51l-31 -70c-72 0 -111 34 -111 109c-37 -64 -94 -116 -170 -116c-98 0 -189 83 -189 217zM419 288l27 155c-25 8 -51 13 -89 13c-138 0 -228 -102 -228 -240
c0 -96 60 -148 121 -148c81 0 147 91 169 220zM324 575l-36 55l177 130l52 -76z" />
    <glyph glyph-name="acircumflex" unicode="&#xe2;" horiz-adv-x="592" 
d="M37 205c0 193 138 327 331 327c78 0 138 -20 177 -36l-63 -355c-1 -7 -2 -16 -2 -25c0 -37 23 -51 58 -51l-31 -70c-72 0 -111 34 -111 109c-37 -64 -94 -116 -170 -116c-98 0 -189 83 -189 217zM419 288l27 155c-25 8 -51 13 -89 13c-138 0 -228 -102 -228 -240
c0 -96 60 -148 121 -148c81 0 147 91 169 220zM393 677l-153 -105l-34 74l162 94h64l132 -107l-56 -61z" />
    <glyph glyph-name="atilde" unicode="&#xe3;" horiz-adv-x="592" 
d="M37 205c0 193 138 327 331 327c78 0 138 -20 177 -36l-63 -355c-1 -7 -2 -16 -2 -25c0 -37 23 -51 58 -51l-31 -70c-72 0 -111 34 -111 109c-37 -64 -94 -116 -170 -116c-98 0 -189 83 -189 217zM419 288l27 155c-25 8 -51 13 -89 13c-138 0 -228 -102 -228 -240
c0 -96 60 -148 121 -148c81 0 147 91 169 220zM549 656c-28 -24 -58 -47 -99 -47c-53 0 -73 35 -118 35c-30 0 -56 -16 -80 -36l-24 62c31 29 73 52 111 52c52 0 70 -34 117 -34c26 0 49 15 69 31z" />
    <glyph glyph-name="adieresis" unicode="&#xe4;" horiz-adv-x="592" 
d="M37 205c0 193 138 327 331 327c78 0 138 -20 177 -36l-63 -355c-1 -7 -2 -16 -2 -25c0 -37 23 -51 58 -51l-31 -70c-72 0 -111 34 -111 109c-37 -64 -94 -116 -170 -116c-98 0 -189 83 -189 217zM419 288l27 155c-25 8 -51 13 -89 13c-138 0 -228 -102 -228 -240
c0 -96 60 -148 121 -148c81 0 147 91 169 220zM293 607c-35 0 -54 25 -54 52c0 40 29 68 67 68c35 0 54 -25 54 -52c0 -40 -29 -68 -67 -68zM472 607c-35 0 -54 25 -54 52c0 40 29 68 67 68c35 0 54 -25 54 -52c0 -40 -29 -68 -67 -68z" />
    <glyph glyph-name="aring" unicode="&#xe5;" horiz-adv-x="592" 
d="M37 205c0 193 138 327 331 327c78 0 138 -20 177 -36l-63 -355c-1 -7 -2 -16 -2 -25c0 -37 23 -51 58 -51l-31 -70c-72 0 -111 34 -111 109c-37 -64 -94 -116 -170 -116c-98 0 -189 83 -189 217zM419 288l27 155c-25 8 -51 13 -89 13c-138 0 -228 -102 -228 -240
c0 -96 60 -148 121 -148c81 0 147 91 169 220zM394 644c33 0 55 29 55 65c0 30 -16 51 -42 51c-33 0 -55 -29 -55 -65c0 -30 16 -51 42 -51zM388 582c-66 0 -114 40 -114 104c0 78 55 136 139 136c66 0 114 -40 114 -104c0 -78 -55 -136 -139 -136z" />
    <glyph glyph-name="ae" unicode="&#xe6;" horiz-adv-x="880" 
d="M276 532c92 0 157 -39 189 -115c53 79 124 115 216 115c114 0 182 -74 182 -154c0 -148 -157 -182 -272 -182c-36 0 -73 4 -100 8c10 -88 65 -136 147 -136c66 0 119 22 155 39l8 -80c-40 -19 -103 -39 -178 -39c-92 0 -161 42 -198 121c-55 -75 -129 -121 -232 -121
c-109 0 -181 66 -181 148c0 116 102 185 234 185c57 0 110 -8 157 -19v7c0 88 -56 145 -142 145c-50 0 -93 -14 -132 -33l-10 76c46 21 93 35 157 35zM673 456c-94 0 -165 -77 -180 -180c31 -6 60 -9 98 -9c112 0 182 28 182 104c0 47 -40 85 -100 85zM204 68
c98 0 164 73 188 162c-46 13 -90 18 -143 18c-79 0 -145 -33 -145 -103c0 -44 41 -77 100 -77z" />
    <glyph glyph-name="ccedilla" unicode="&#xe7;" horiz-adv-x="460" 
d="M338 -140c0 -68 -64 -104 -145 -104c-46 0 -79 9 -107 23l35 63c21 -12 43 -20 72 -20c40 0 63 14 63 39c0 24 -27 44 -107 44l49 90c-98 23 -161 108 -161 226c0 167 108 311 283 311c62 0 110 -18 148 -40l-37 -77c-34 21 -72 37 -118 37c-111 0 -184 -96 -184 -219
c0 -101 55 -165 142 -165c51 0 88 14 120 30l11 -79c-31 -14 -74 -29 -134 -31l-24 -47c55 0 94 -33 94 -81z" />
    <glyph glyph-name="egrave" unicode="&#xe8;" horiz-adv-x="518" 
d="M261 -12c-132 0 -224 90 -224 237c0 166 110 307 281 307c115 0 183 -74 183 -154c0 -148 -157 -182 -272 -182c-36 0 -73 4 -100 8c10 -88 65 -136 147 -136c66 0 119 22 155 39l8 -80c-40 -19 -103 -39 -178 -39zM311 456c-94 0 -165 -77 -180 -180c31 -6 60 -9 98 -9
c112 0 182 28 182 104c0 47 -40 85 -100 85zM460 630l-36 -55l-193 109l52 76z" />
    <glyph glyph-name="eacute" unicode="&#xe9;" horiz-adv-x="518" 
d="M261 -12c-132 0 -224 90 -224 237c0 166 110 307 281 307c115 0 183 -74 183 -154c0 -148 -157 -182 -272 -182c-36 0 -73 4 -100 8c10 -88 65 -136 147 -136c66 0 119 22 155 39l8 -80c-40 -19 -103 -39 -178 -39zM311 456c-94 0 -165 -77 -180 -180c31 -6 60 -9 98 -9
c112 0 182 28 182 104c0 47 -40 85 -100 85zM262 575l-36 55l177 130l52 -76z" />
    <glyph glyph-name="ecircumflex" unicode="&#xea;" horiz-adv-x="518" 
d="M261 -12c-132 0 -224 90 -224 237c0 166 110 307 281 307c115 0 183 -74 183 -154c0 -148 -157 -182 -272 -182c-36 0 -73 4 -100 8c10 -88 65 -136 147 -136c66 0 119 22 155 39l8 -80c-40 -19 -103 -39 -178 -39zM311 456c-94 0 -165 -77 -180 -180c31 -6 60 -9 98 -9
c112 0 182 28 182 104c0 47 -40 85 -100 85zM330 677l-153 -105l-34 74l162 94h64l132 -107l-56 -61z" />
    <glyph glyph-name="edieresis" unicode="&#xeb;" horiz-adv-x="518" 
d="M261 -12c-132 0 -224 90 -224 237c0 166 110 307 281 307c115 0 183 -74 183 -154c0 -148 -157 -182 -272 -182c-36 0 -73 4 -100 8c10 -88 65 -136 147 -136c66 0 119 22 155 39l8 -80c-40 -19 -103 -39 -178 -39zM311 456c-94 0 -165 -77 -180 -180c31 -6 60 -9 98 -9
c112 0 182 28 182 104c0 47 -40 85 -100 85zM245 607c-35 0 -54 25 -54 52c0 40 29 68 67 68c35 0 54 -25 54 -52c0 -40 -29 -68 -67 -68zM424 607c-35 0 -54 25 -54 52c0 40 29 68 67 68c35 0 54 -25 54 -52c0 -40 -29 -68 -67 -68z" />
    <glyph glyph-name="igrave" unicode="&#xec;" horiz-adv-x="255" 
d="M312 630l-36 -55l-193 109l52 76zM218 520l-91 -520h-90l91 520h90z" />
    <glyph glyph-name="iacute" unicode="&#xed;" horiz-adv-x="255" 
d="M120 575l-36 55l177 130l52 -76zM218 520l-91 -520h-90l91 520h90z" />
    <glyph glyph-name="icircumflex" unicode="&#xee;" horiz-adv-x="255" 
d="M205 677l-153 -105l-34 74l162 94h64l132 -107l-56 -61zM218 520l-91 -520h-90l91 520h90z" />
    <glyph glyph-name="idieresis" unicode="&#xef;" horiz-adv-x="255" 
d="M103 607c-35 0 -54 25 -54 52c0 40 29 68 67 68c35 0 54 -25 54 -52c0 -40 -29 -68 -67 -68zM282 607c-35 0 -54 25 -54 52c0 40 29 68 67 68c35 0 54 -25 54 -52c0 -40 -29 -68 -67 -68zM218 520l-91 -520h-90l91 520h90z" />
    <glyph glyph-name="eth" unicode="&#xf0;" horiz-adv-x="540" 
d="M284 498l-56 48l71 66c-27 12 -56 19 -89 19c-19 0 -32 -1 -44 -3l14 82c10 1 21 2 32 2c58 0 103 -12 148 -38l72 84l57 -48l-77 -74c68 -63 101 -151 101 -269c0 -221 -120 -379 -279 -379c-115 0 -207 79 -207 200c0 142 105 245 227 245c76 0 136 -39 166 -94
c1 15 2 30 2 48c0 78 -26 145 -71 188zM266 358c-88 0 -148 -69 -148 -160c0 -78 53 -130 121 -130c78 0 145 64 171 198c-32 53 -82 92 -144 92z" />
    <glyph glyph-name="ntilde" unicode="&#xf1;" horiz-adv-x="589" 
d="M364 453c-70 0 -171 -76 -201 -246l-36 -207h-90l91 520h87l-22 -120c41 80 116 132 194 132c91 0 150 -63 150 -143c0 -19 -2 -38 -6 -63l-57 -326h-90l55 311c6 32 7 43 7 57c0 52 -33 85 -82 85zM536 656c-28 -24 -58 -47 -99 -47c-53 0 -73 35 -118 35
c-30 0 -56 -16 -80 -36l-24 62c31 29 73 52 111 52c52 0 70 -34 117 -34c26 0 49 15 69 31z" />
    <glyph glyph-name="ograve" unicode="&#xf2;" horiz-adv-x="601" 
d="M281 68c119 0 191 97 191 221c0 91 -56 163 -152 163c-118 0 -191 -97 -191 -221c0 -91 56 -163 152 -163zM278 -12c-148 0 -241 98 -241 235c0 173 112 309 286 309c148 0 241 -98 241 -235c0 -173 -112 -309 -286 -309zM491 630l-36 -55l-193 109l52 76z" />
    <glyph glyph-name="oacute" unicode="&#xf3;" horiz-adv-x="601" 
d="M281 68c119 0 191 97 191 221c0 91 -56 163 -152 163c-118 0 -191 -97 -191 -221c0 -91 56 -163 152 -163zM278 -12c-148 0 -241 98 -241 235c0 173 112 309 286 309c148 0 241 -98 241 -235c0 -173 -112 -309 -286 -309zM277 575l-36 55l177 130l52 -76z" />
    <glyph glyph-name="ocircumflex" unicode="&#xf4;" horiz-adv-x="601" 
d="M281 68c119 0 191 97 191 221c0 91 -56 163 -152 163c-118 0 -191 -97 -191 -221c0 -91 56 -163 152 -163zM278 -12c-148 0 -241 98 -241 235c0 173 112 309 286 309c148 0 241 -98 241 -235c0 -173 -112 -309 -286 -309zM359 677l-153 -105l-34 74l162 94h64l132 -107
l-56 -61z" />
    <glyph glyph-name="otilde" unicode="&#xf5;" horiz-adv-x="601" 
d="M281 68c119 0 191 97 191 221c0 91 -56 163 -152 163c-118 0 -191 -97 -191 -221c0 -91 56 -163 152 -163zM278 -12c-148 0 -241 98 -241 235c0 173 112 309 286 309c148 0 241 -98 241 -235c0 -173 -112 -309 -286 -309zM513 656c-28 -24 -58 -47 -99 -47
c-53 0 -73 35 -118 35c-30 0 -56 -16 -80 -36l-24 62c31 29 73 52 111 52c52 0 70 -34 117 -34c26 0 49 15 69 31z" />
    <glyph glyph-name="odieresis" unicode="&#xf6;" horiz-adv-x="601" 
d="M281 68c119 0 191 97 191 221c0 91 -56 163 -152 163c-118 0 -191 -97 -191 -221c0 -91 56 -163 152 -163zM278 -12c-148 0 -241 98 -241 235c0 173 112 309 286 309c148 0 241 -98 241 -235c0 -173 -112 -309 -286 -309zM256 607c-35 0 -54 25 -54 52c0 40 29 68 67 68
c35 0 54 -25 54 -52c0 -40 -29 -68 -67 -68zM435 607c-35 0 -54 25 -54 52c0 40 29 68 67 68c35 0 54 -25 54 -52c0 -40 -29 -68 -67 -68z" />
    <glyph glyph-name="divide" unicode="&#xf7;" 
d="M467 302h-340l15 82h340zM260 71c-38 0 -62 27 -62 57c0 49 36 77 74 77s62 -27 62 -57c0 -49 -36 -77 -74 -77zM334 481c-38 0 -62 27 -62 57c0 49 36 77 74 77s62 -27 62 -57c0 -49 -36 -77 -74 -77z" />
    <glyph glyph-name="oslash" unicode="&#xf8;" horiz-adv-x="601" 
d="M278 -12c-37 0 -71 6 -101 18l-69 -121l-69 41l79 113c-52 42 -81 107 -81 184c0 173 112 309 286 309c36 0 69 -6 99 -17l68 116l69 -41l-77 -109c52 -42 82 -107 82 -184c0 -173 -112 -309 -286 -309zM281 68c119 0 191 97 191 221c0 45 -14 85 -40 115l-209 -326
c15 -7 34 -10 58 -10zM129 231c0 -45 13 -85 38 -114l209 325c-15 6 -36 10 -56 10c-118 0 -191 -97 -191 -221z" />
    <glyph glyph-name="ugrave" unicode="&#xf9;" horiz-adv-x="579" 
d="M194 -12c-80 0 -147 56 -147 146c0 17 1 35 4 55l57 331h90l-58 -329c-2 -13 -3 -22 -3 -34c0 -60 40 -89 87 -89c75 0 156 73 178 197l45 255h90l-66 -379c-1 -7 -2 -16 -2 -25c0 -37 23 -51 58 -51l-31 -70c-72 0 -111 34 -111 109v9c-48 -82 -111 -125 -191 -125z
M465 630l-36 -55l-193 109l52 76z" />
    <glyph glyph-name="uacute" unicode="&#xfa;" horiz-adv-x="579" 
d="M194 -12c-80 0 -147 56 -147 146c0 17 1 35 4 55l57 331h90l-58 -329c-2 -13 -3 -22 -3 -34c0 -60 40 -89 87 -89c75 0 156 73 178 197l45 255h90l-66 -379c-1 -7 -2 -16 -2 -25c0 -37 23 -51 58 -51l-31 -70c-72 0 -111 34 -111 109v9c-48 -82 -111 -125 -191 -125z
M282 575l-36 55l177 130l52 -76z" />
    <glyph glyph-name="ucircumflex" unicode="&#xfb;" horiz-adv-x="579" 
d="M194 -12c-80 0 -147 56 -147 146c0 17 1 35 4 55l57 331h90l-58 -329c-2 -13 -3 -22 -3 -34c0 -60 40 -89 87 -89c75 0 156 73 178 197l45 255h90l-66 -379c-1 -7 -2 -16 -2 -25c0 -37 23 -51 58 -51l-31 -70c-72 0 -111 34 -111 109v9c-48 -82 -111 -125 -191 -125z
M350 677l-153 -105l-34 74l162 94h64l132 -107l-56 -61z" />
    <glyph glyph-name="udieresis" unicode="&#xfc;" horiz-adv-x="579" 
d="M194 -12c-80 0 -147 56 -147 146c0 17 1 35 4 55l57 331h90l-58 -329c-2 -13 -3 -22 -3 -34c0 -60 40 -89 87 -89c75 0 156 73 178 197l45 255h90l-66 -379c-1 -7 -2 -16 -2 -25c0 -37 23 -51 58 -51l-31 -70c-72 0 -111 34 -111 109v9c-48 -82 -111 -125 -191 -125z
M251 607c-35 0 -54 25 -54 52c0 40 29 68 67 68c35 0 54 -25 54 -52c0 -40 -29 -68 -67 -68zM430 607c-35 0 -54 25 -54 52c0 40 29 68 67 68c35 0 54 -25 54 -52c0 -40 -29 -68 -67 -68z" />
    <glyph glyph-name="yacute" unicode="&#xfd;" horiz-adv-x="561" 
d="M225 80c75 0 155 74 178 204l41 236h90l-91 -526c-32 -183 -140 -226 -233 -226c-91 0 -153 43 -193 93l70 52c33 -45 76 -67 129 -67c67 0 121 44 142 163l19 106c-40 -64 -102 -115 -182 -115c-79 0 -145 56 -145 146c0 14 1 34 4 55l54 319h90l-55 -317
c-2 -12 -3 -22 -3 -34c0 -60 39 -89 85 -89zM278 575l-36 55l177 130l52 -76z" />
    <glyph glyph-name="thorn" unicode="&#xfe;" 
d="M97 -220h-90l162 920h90l-49 -275c39 64 98 107 172 107c106 0 176 -89 176 -216c0 -198 -127 -328 -256 -328c-63 0 -122 36 -154 84zM295 68c94 0 174 98 174 239c0 91 -46 147 -112 147c-87 0 -157 -95 -182 -231l-13 -71c29 -54 79 -84 133 -84z" />
    <glyph glyph-name="ydieresis" unicode="&#xff;" horiz-adv-x="561" 
d="M225 80c75 0 155 74 178 204l41 236h90l-91 -526c-32 -183 -140 -226 -233 -226c-91 0 -153 43 -193 93l70 52c33 -45 76 -67 129 -67c67 0 121 44 142 163l19 106c-40 -64 -102 -115 -182 -115c-79 0 -145 56 -145 146c0 14 1 34 4 55l54 319h90l-55 -317
c-2 -12 -3 -22 -3 -34c0 -60 39 -89 85 -89zM249 607c-35 0 -54 25 -54 52c0 40 29 68 67 68c35 0 54 -25 54 -52c0 -40 -29 -68 -67 -68zM428 607c-35 0 -54 25 -54 52c0 40 29 68 67 68c35 0 54 -25 54 -52c0 -40 -29 -68 -67 -68z" />
    <glyph glyph-name="hbar" unicode="&#x127;" horiz-adv-x="599" 
d="M456 368c0 51 -33 85 -81 85c-71 0 -172 -73 -201 -240l-37 -213h-90l103 585h-79l11 66h79l16 89h90l-16 -89h122l-11 -66h-122l-31 -174c41 73 113 121 188 121c92 0 150 -63 150 -143c0 -19 -2 -38 -6 -63l-57 -326h-90l55 311c6 32 7 43 7 57z" />
    <glyph glyph-name="Itilde" unicode="&#x128;" horiz-adv-x="272" 
d="M137 0h-95l123 700h95zM394 806c-28 -24 -58 -47 -99 -47c-53 0 -73 35 -118 35c-30 0 -56 -16 -80 -36l-24 62c31 29 73 52 111 52c52 0 70 -34 117 -34c26 0 49 15 69 31z" />
    <glyph glyph-name="itilde" unicode="&#x129;" horiz-adv-x="255" 
d="M359 656c-28 -24 -58 -47 -99 -47c-53 0 -73 35 -118 35c-30 0 -56 -16 -80 -36l-24 62c31 29 73 52 111 52c52 0 70 -34 117 -34c26 0 49 15 69 31zM218 520l-91 -520h-90l91 520h90z" />
    <glyph glyph-name="dotlessi" unicode="&#x131;" horiz-adv-x="255" 
d="M218 520l-91 -520h-90l91 520h90z" />
    <glyph glyph-name="IJ" unicode="&#x132;" horiz-adv-x="683" 
d="M137 0h-95l123 700h95zM383 -12c-67 0 -121 29 -159 71l58 70c26 -33 60 -59 105 -59c48 0 91 32 108 124l91 506h95l-91 -510c-32 -177 -139 -202 -207 -202z" />
    <glyph glyph-name="ij" unicode="&#x133;" horiz-adv-x="520" 
d="M218 520l-91 -520h-90l91 520h90zM194 609c-37 0 -57 26 -57 55c0 42 30 71 70 71c37 0 57 -26 57 -55c0 -42 -30 -71 -70 -71zM287 -74l105 594h90l-104 -592c-21 -118 -83 -160 -166 -160c-44 0 -81 13 -109 34l36 74c19 -18 44 -30 74 -30c36 0 64 24 74 80zM458 609
c-37 0 -57 26 -57 55c0 42 30 71 70 71c37 0 57 -26 57 -55c0 -42 -30 -71 -70 -71z" />
    <glyph glyph-name="Jcircumflex" unicode="&#x134;" horiz-adv-x="411" 
d="M111 -12c-67 0 -121 29 -159 71l58 70c26 -33 60 -59 105 -59c48 0 91 32 108 124l91 506h95l-91 -510c-32 -177 -139 -202 -207 -202zM386 837l-150 -95l-34 75l162 83h64l132 -96l-56 -62z" />
    <glyph glyph-name="jcircumflex" unicode="&#x135;" horiz-adv-x="264" 
d="M213 677l-153 -105l-34 74l162 94h64l132 -107l-56 -61zM31 -74l105 594h90l-104 -592c-21 -118 -83 -160 -166 -160c-44 0 -81 13 -109 34l36 74c19 -18 44 -30 74 -30c36 0 64 24 74 80z" />
    <glyph glyph-name="kcommaaccent" unicode="&#x137;" horiz-adv-x="543" 
d="M37 0l130 740h90l-54 -307c36 61 97 99 170 99c86 0 148 -60 148 -134c0 -106 -80 -154 -189 -154c-7 0 -13 0 -22 1l85 -130c23 -35 48 -50 97 -50l-31 -70c-62 0 -102 13 -135 70l-123 212l9 29c20 -9 51 -16 90 -16c87 0 132 40 132 98c0 41 -32 74 -83 74
c-56 0 -151 -44 -179 -203l-45 -259h-90zM216 -12l73 -21c-25 -87 -80 -151 -154 -191l-40 24c55 57 92 113 121 188z" />
    <glyph glyph-name="kgreenlandic" unicode="&#x138;" horiz-adv-x="491" 
d="M37 0l91 520h90l-38 -220l247 222l52 -56l-231 -195l132 -153c37 -43 65 -49 91 -49l-33 -77c-56 0 -82 23 -126 77l-143 172l-42 -241h-90z" />
    <glyph glyph-name="Ldotaccent" unicode="&#x13f;" horiz-adv-x="510" 
d="M42 0l123 700h95l-108 -615h321l-15 -85h-416zM335 296c-37 0 -57 26 -57 55c0 42 30 71 70 71c37 0 57 -26 57 -55c0 -42 -30 -71 -70 -71z" />
    <glyph glyph-name="ldot" unicode="&#x140;" horiz-adv-x="390" 
d="M244 740l-98 -560c-3 -18 -4 -31 -4 -42c0 -46 29 -72 75 -72c23 0 46 6 65 15l9 -73c-24 -12 -57 -20 -94 -20c-80 0 -145 45 -145 139c0 19 1 32 4 51l98 562h90zM299 288c-38 0 -62 27 -62 57c0 49 36 77 74 77s62 -27 62 -57c0 -49 -36 -77 -74 -77z" />
    <glyph glyph-name="Lslash" unicode="&#x141;" horiz-adv-x="521" 
d="M53 0l49 282l-73 -27l-27 68l115 42l59 335h95l-52 -296l207 78l28 -69l-250 -93l-41 -235h321l-15 -85h-416z" />
    <glyph glyph-name="lslash" unicode="&#x142;" horiz-adv-x="353" 
d="M262 740l-52 -298l137 58l19 -71l-171 -73l-31 -176c-3 -18 -4 -31 -4 -42c0 -46 29 -72 75 -72c23 0 46 6 65 15l9 -73c-24 -12 -57 -20 -94 -20c-80 0 -145 45 -145 139c0 19 1 32 4 51l24 136l-62 -26l-19 71l96 43l59 338h90z" />
    <glyph glyph-name="Nacute" unicode="&#x143;" horiz-adv-x="702" 
d="M443 0l-209 584l-102 -584h-90l123 700h126l205 -588l104 588h90l-123 -700h-124zM390 734l-36 56l177 130l52 -76z" />
    <glyph glyph-name="nacute" unicode="&#x144;" horiz-adv-x="589" 
d="M364 453c-70 0 -171 -76 -201 -246l-36 -207h-90l91 520h87l-22 -120c41 80 116 132 194 132c91 0 150 -63 150 -143c0 -19 -2 -38 -6 -63l-57 -326h-90l55 311c6 32 7 43 7 57c0 52 -33 85 -82 85zM297 575l-36 55l177 130l52 -76z" />
    <glyph glyph-name="OE" unicode="&#x152;" horiz-adv-x="892" 
d="M424 712c37 0 71 -5 103 -12h403l-14 -82h-310l-38 -213h265l-14 -80h-265l-43 -243h310l-14 -82h-389c-28 -7 -60 -12 -93 -12c-173 0 -278 134 -278 307c0 213 138 417 377 417zM347 70c27 0 48 2 71 8l95 538c-27 9 -57 14 -97 14c-171 0 -272 -160 -272 -329
c0 -128 70 -231 203 -231z" />
    <glyph glyph-name="oe" unicode="&#x153;" horiz-adv-x="951" 
d="M276 -12c-146 0 -239 98 -239 235c0 173 112 309 286 309c100 0 169 -47 208 -120c51 78 124 120 218 120c117 0 185 -74 185 -159c0 -106 -91 -169 -207 -169c-72 0 -127 19 -166 52v-20c0 -109 59 -168 152 -168c63 0 115 22 151 39l8 -80c-40 -19 -103 -39 -178 -39
c-87 0 -156 44 -192 127c-51 -79 -126 -127 -226 -127zM281 68c119 0 191 97 191 221c0 91 -56 163 -152 163c-118 0 -191 -97 -191 -221c0 -91 56 -163 152 -163zM743 456c-75 0 -136 -50 -165 -123c39 -38 93 -60 150 -60c69 0 116 34 116 96c0 49 -41 87 -101 87z" />
    <glyph glyph-name="Racute" unicode="&#x154;" horiz-adv-x="621" 
d="M42 0l122 690c60 11 106 18 177 18c152 0 234 -80 234 -178c0 -121 -85 -178 -211 -197c163 -74 87 -258 220 -258l-35 -82c-207 0 -90 312 -358 312l-54 -305h-95zM335 629c-35 0 -63 -3 -88 -8l-42 -236h83c117 0 193 52 193 133c0 65 -54 111 -146 111zM319 734
l-36 56l177 130l52 -76z" />
    <glyph glyph-name="Rcommaaccent" unicode="&#x156;" horiz-adv-x="621" 
d="M42 0l122 690c60 11 106 18 177 18c152 0 234 -80 234 -178c0 -121 -85 -178 -211 -197c163 -74 87 -258 220 -258l-35 -82c-207 0 -90 312 -358 312l-54 -305h-95zM335 629c-35 0 -63 -3 -88 -8l-42 -236h83c117 0 193 52 193 133c0 65 -54 111 -146 111zM266 -12
l73 -21c-25 -87 -80 -151 -154 -191l-40 24c55 57 92 113 121 188z" />
    <glyph glyph-name="rcommaaccent" unicode="&#x157;" horiz-adv-x="405" 
d="M52 0l66 374c1 7 2 16 2 25c0 37 -23 51 -58 51l31 70c71 0 110 -34 110 -101v-20c38 95 101 133 178 133c30 0 52 -6 67 -12l-40 -88c-16 6 -32 9 -55 9c-73 0 -147 -67 -182 -272l-29 -169h-90zM53 -50l73 -21c-25 -87 -80 -151 -154 -191l-40 24c55 57 92 113 121 188
z" />
    <glyph glyph-name="Rcaron" unicode="&#x158;" horiz-adv-x="621" 
d="M42 0l122 690c60 11 106 18 177 18c152 0 234 -80 234 -178c0 -121 -85 -178 -211 -197c163 -74 87 -258 220 -258l-35 -82c-207 0 -90 312 -358 312l-54 -305h-95zM335 629c-35 0 -63 -3 -88 -8l-42 -236h83c117 0 193 52 193 133c0 65 -54 111 -146 111zM335 749
l-130 87l45 71l123 -95l144 95l44 -71l-162 -87h-64z" />
    <glyph glyph-name="rcaron" unicode="&#x159;" horiz-adv-x="405" 
d="M52 0l66 374c1 7 2 16 2 25c0 37 -23 51 -58 51l31 70c71 0 110 -34 110 -101v-20c38 95 101 133 178 133c30 0 52 -6 67 -12l-40 -88c-16 6 -32 9 -55 9c-73 0 -147 -67 -182 -272l-29 -169h-90zM221 587l-130 94l45 75l124 -106l143 105l44 -74l-162 -94h-64z" />
    <glyph glyph-name="dotlessj" unicode="&#x237;" horiz-adv-x="264" 
d="M31 -74l105 594h90l-104 -592c-21 -118 -83 -160 -166 -160c-44 0 -81 13 -109 34l36 74c19 -18 44 -30 74 -30c36 0 64 24 74 80z" />
    <glyph glyph-name="circumflex" unicode="&#x2c6;" horiz-adv-x="458" 
d="M237 677l-153 -105l-34 74l162 94h64l132 -107l-56 -61z" />
    <glyph glyph-name="caron" unicode="&#x2c7;" horiz-adv-x="456" 
d="M180 587l-130 94l45 75l124 -106l143 105l44 -74l-162 -94h-64z" />
    <glyph glyph-name="ring" unicode="&#x2da;" horiz-adv-x="333" 
d="M160 644c33 0 55 29 55 65c0 30 -16 51 -42 51c-33 0 -55 -29 -55 -65c0 -30 16 -51 42 -51zM154 582c-66 0 -114 40 -114 104c0 78 55 136 139 136c66 0 114 -40 114 -104c0 -78 -55 -136 -139 -136z" />
    <glyph glyph-name="tilde" unicode="&#x2dc;" horiz-adv-x="421" 
d="M371 656c-28 -24 -58 -47 -99 -47c-53 0 -73 35 -118 35c-30 0 -56 -16 -80 -36l-24 62c31 29 73 52 111 52c52 0 70 -34 117 -34c26 0 49 15 69 31z" />
    <glyph glyph-name="dotaccentcmb" unicode="&#x307;" horiz-adv-x="207" 
d="M97 609c-37 0 -57 26 -57 55c0 42 30 71 70 71c37 0 57 -26 57 -55c0 -42 -30 -71 -70 -71z" />
    <glyph glyph-name="endash" unicode="&#x2013;" 
d="M532 302h-460l15 82h460z" />
    <glyph glyph-name="emdash" unicode="&#x2014;" horiz-adv-x="750" 
d="M677 302h-600l15 82h600z" />
    <glyph glyph-name="quoteleft" unicode="&#x2018;" horiz-adv-x="228" 
d="M246 604c0 -41 -33 -72 -77 -72c-41 0 -69 27 -69 73c0 74 59 142 132 177l16 -35c-35 -21 -66 -51 -80 -90c7 2 13 3 21 3c33 0 57 -24 57 -56z" />
    <glyph glyph-name="quoteright" unicode="&#x2019;" horiz-adv-x="228" 
d="M102 680c0 41 33 72 77 72c41 0 69 -27 69 -73c0 -74 -59 -142 -132 -177l-16 35c35 21 66 51 80 90c-7 -2 -13 -3 -21 -3c-33 0 -57 24 -57 56z" />
    <glyph glyph-name="quotesinglbase" unicode="&#x201a;" horiz-adv-x="228" 
d="M7 50c0 41 33 72 77 72c41 0 69 -27 69 -73c0 -74 -59 -142 -132 -177l-16 35c35 21 66 51 80 90c-7 -2 -13 -3 -21 -3c-33 0 -57 24 -57 56z" />
    <glyph glyph-name="quotedblleft" unicode="&#x201c;" horiz-adv-x="411" 
d="M246 604c0 -41 -33 -72 -77 -72c-41 0 -69 27 -69 73c0 74 59 142 132 177l16 -35c-35 -21 -66 -51 -80 -90c7 2 13 3 21 3c33 0 57 -24 57 -56zM429 604c0 -41 -33 -72 -77 -72c-41 0 -69 27 -69 73c0 74 59 142 132 177l16 -35c-35 -21 -66 -51 -80 -90c7 2 13 3 21 3
c33 0 57 -24 57 -56z" />
    <glyph glyph-name="quotedblright" unicode="&#x201d;" horiz-adv-x="411" 
d="M102 680c0 41 33 72 77 72c41 0 69 -27 69 -73c0 -74 -59 -142 -132 -177l-16 35c35 21 66 51 80 90c-7 -2 -13 -3 -21 -3c-33 0 -57 24 -57 56zM285 680c0 41 33 72 77 72c41 0 69 -27 69 -73c0 -74 -59 -142 -132 -177l-16 35c35 21 66 51 80 90c-7 -2 -13 -3 -21 -3
c-33 0 -57 24 -57 56z" />
    <glyph glyph-name="quotedblbase" unicode="&#x201e;" horiz-adv-x="411" 
d="M7 50c0 41 33 72 77 72c41 0 69 -27 69 -73c0 -74 -59 -142 -132 -177l-16 35c35 21 66 51 80 90c-7 -2 -13 -3 -21 -3c-33 0 -57 24 -57 56zM190 50c0 41 33 72 77 72c41 0 69 -27 69 -73c0 -74 -59 -142 -132 -177l-16 35c35 21 66 51 80 90c-7 -2 -13 -3 -21 -3
c-33 0 -57 24 -57 56z" />
    <glyph glyph-name="bullet" unicode="&#x2022;" horiz-adv-x="450" 
d="M228 218c-78 0 -128 56 -128 118c0 103 72 156 152 156c78 0 128 -55 128 -118c0 -103 -72 -156 -152 -156z" />
    <glyph glyph-name="guilsinglleft" unicode="&#x2039;" horiz-adv-x="369" 
d="M258 178l-64 -49l-124 194l7 42l187 194l55 -49l-174 -171z" />
    <glyph glyph-name="guilsinglright" unicode="&#x203a;" horiz-adv-x="369" 
d="M131 510l64 49l124 -194l-7 -42l-187 -194l-55 49l174 171z" />
    <glyph glyph-name="Euro" unicode="&#x20ac;" 
d="M443 235h-229c14 -107 79 -169 167 -169c64 0 102 19 144 41l18 -74c-38 -20 -92 -45 -174 -45c-137 0 -234 98 -248 247h-96l13 73h83c1 21 4 45 8 67h-79l13 73h83c46 146 154 264 328 264c71 0 124 -20 169 -45l-37 -76c-36 26 -83 43 -136 43
c-119 0 -196 -83 -232 -186h263l-13 -73h-267c-4 -22 -7 -45 -8 -67h243z" />
    <glyph glyph-name="commaaccent" unicode="&#xf6c3;" horiz-adv-x="274" 
d="M161 -30l73 -21c-25 -87 -80 -151 -154 -191l-40 24c55 57 92 113 121 188z" />
    <glyph glyph-name="grave.cap" horiz-adv-x="309" 
d="M269 610l-36 -56l-193 110l52 76z" />
    <glyph glyph-name="dieresis.cap" horiz-adv-x="380" 
d="M94 577c-35 0 -54 25 -54 52c0 40 29 68 67 68c35 0 54 -25 54 -52c0 -40 -29 -68 -67 -68zM273 577c-35 0 -54 25 -54 52c0 40 29 68 67 68c35 0 54 -25 54 -52c0 -40 -29 -68 -67 -68z" />
    <glyph glyph-name="acute.cap" horiz-adv-x="309" 
d="M76 554l-36 56l177 130l52 -76z" />
    <glyph glyph-name="circumflex.cap" horiz-adv-x="458" 
d="M234 667l-150 -95l-34 75l162 83h64l132 -96l-56 -62z" />
    <glyph glyph-name="caron.cap" horiz-adv-x="456" 
d="M180 569l-130 87l45 71l123 -95l144 95l44 -71l-162 -87h-64z" />
    <glyph glyph-name="ring.cap" horiz-adv-x="333" 
d="M160 574c33 0 55 29 55 65c0 30 -16 51 -42 51c-33 0 -55 -29 -55 -65c0 -30 16 -51 42 -51zM154 512c-66 0 -114 40 -114 104c0 78 55 136 139 136c66 0 114 -40 114 -104c0 -78 -55 -136 -139 -136z" />
    <glyph glyph-name="tilde.cap" horiz-adv-x="421" 
d="M371 626c-28 -24 -58 -47 -99 -47c-53 0 -73 35 -118 35c-30 0 -56 -16 -80 -36l-24 62c31 29 73 52 111 52c52 0 70 -34 117 -34c26 0 49 15 69 31z" />
    <glyph glyph-name="dotaccentcmb.cap" horiz-adv-x="207" 
d="M97 574c-37 0 -57 26 -57 55c0 42 30 71 70 71c37 0 57 -26 57 -55c0 -42 -30 -71 -70 -71z" />
    <glyph glyph-name="foundryicon" horiz-adv-x="864" 
d="M720 0h-576v576h288v-288h288v-288zM720 432h-144v144h144v-144z" />
    <glyph glyph-name="zero" unicode="0" 
d="M271 70c127 0 196 183 196 386c0 112 -40 174 -118 174c-127 0 -196 -183 -196 -386c0 -112 40 -174 118 -174zM261 -12c-133 0 -205 101 -205 262c0 225 94 462 303 462c133 0 205 -101 205 -262c0 -225 -94 -462 -303 -462z" />
    </font>
</defs>
</svg>
