<?xml version="1.0" standalone="no"?>
<!DOCTYPE svg PUBLIC "-//W3C//DTD SVG 1.1//EN" "http://www.w3.org/Graphics/SVG/1.1/DTD/svg11.dtd" >
<svg xmlns="http://www.w3.org/2000/svg" xmlns:xlink="http://www.w3.org/1999/xlink" version="1.1">
<metadata>
Created by FontForge 20170924 at Wed Jun 11 07:54:11 2008
 By Glenn,,,
This font is inspired by Polish-Lithuanian Constitution of 3 Mai 1791 and is released to the Public Domain.
Created by gluk (gluksza@wp.pl) with Fontforge.
Use two comma at end of your words for 'fina' glyphs:
a,aogonek,c,cacute,d,e,eogonek,g,h,i,k,l,lslash,m,n,t,u,x,y,z,zdot,zacute.
</metadata>
<defs>
<font id="Promocyja" horiz-adv-x="427" >
  <font-face 
    font-family="Promocyja"
    font-weight="500"
    font-stretch="normal"
    units-per-em="1024"
    panose-1="2 0 6 3 0 0 0 0 0 0"
    ascent="595"
    descent="-429"
    x-height="292.998"
    cap-height="595"
    bbox="-333.751 -438.024 1685 915"
    underline-thickness="10"
    underline-position="-200"
    stemh="27"
    unicode-range="U+0020-E128"
  />
<missing-glyph horiz-adv-x="415" 
 />
    <glyph glyph-name="IJ" unicode="IJ" horiz-adv-x="861" 
d="M743.125 481.109c-82.8799 -160.665 -174 -419.315 -246.875 -452.109c-36.25 -17 -74.2412 -29 -125 -29c-120 -0 -226.25 72.4512 -226.25 142c0 34 50 54 90 54c88.75 -3 112.5 -78 112.5 -96c-6.25 -8 -17.5 -12 -28.75 -12c-8.75 0 -15 2 -21.25 7
c-1.25 4 -1.25 6 -1.25 15c0 32 -6.25 72 -61.25 72c-30 0 -48.75 -23 -48.75 -53c0 -104.205 157.119 -115 182.5 -115c50 0 67.5 9 80 18c43.6436 31.9648 85.8301 100.903 237.562 461.572c15.5625 -5.57227 40.5625 -10.5723 56.8125 -12.4629zM768.655 531.607
c-18.6553 0.892578 -51.1553 7.39258 -64.4766 11.6279c7.3418 26.25 17.8398 44.417 49.5713 51.7646c11.25 0 32.5 -8 32.5 -22c0 0 -5 -21 -15 -37zM870.162 504.676c-17.668 -5.66602 -33.6191 -8.30566 -59.4746 -8.30566c-203.75 0 -245.688 98.6318 -401.938 98.6318
c-83.75 0 -90 -84 -90 -99c0 -16 7.5 -71 33.75 -71c8.75 0 10 5 10 16c0 8 -1.25 16 -1.25 23c0 9 1.25 11 5 11c8.75 0 37.5 -15 37.5 -27s-13.75 -37 -46.25 -37c-33.75 0 -85 45 -85 95s55 104 137.5 104c110 0 210.956 -63.1094 269.438 -82.6328
c28.0625 -9.36816 81.251 -17 105.001 -17c19.9863 0 54.4629 6.37598 96.8115 26.6318c-0.145508 -16.6318 -11.0879 -32.3252 -11.0879 -32.3252zM900 480.002c20.8691 47.5625 26.25 104 73.75 115c11.25 0 32.5 -8 32.5 -22c0 0 -6.25 -28 -15 -44
c-90 -151 -365 -893 -445 -929c-36.25 -17 -57.5 -29 -126.25 -29c-111.648 0 -225 71.1777 -225 142c0 34 50 54 90 54c90 -3 112.5 -78 112.5 -96c-6.25 -8 -17.5 -12 -28.75 -12c-8.75 0 -15 2 -21.25 7c-1.25 4 -1.25 6 -1.25 15c0 32 -6.25 72 -61.25 72
c-30 0 -48.75 -23 -48.75 -53c0 -104.205 157.119 -115 182.5 -115c50 0 67.5 9 80 19c88.75 64 227.5 480 401.25 876z" />
    <glyph glyph-name="rz" unicode="rz" horiz-adv-x="690" 
d="M206.05 239.552l-36.2744 -61.8555c3.70703 14.9912 5.04102 28.9482 6.62695 45.0283c0 17.8789 -3.22656 47.2754 -37.6523 47.2754c-29.375 0 -43.4463 -34.2432 -43.75 -35c-11.25 -28 -15.625 -73 -82.5 -153l-1.25 1c22.5 38 47.9209 72.249 67.5 159
c8.125 36 40 48 63.75 48c28.1191 0 60.5967 -17.3184 63.5498 -50.4482zM208.75 211c5 9 12.5 21.667 17.5 33c5.40723 12.2588 13.75 28.5 16.25 41c2.5 4 7.5 8 12.5 8c10 0 31.25 -8 31.25 -16c0 -13.9141 -0.72168 -26.3418 -0.72168 -36.0908
c0 -13.5391 18.8027 -21.9092 36.9717 -21.9092c21.25 0 48.75 3 48.75 21c16.25 13 23.75 25 26.25 25c15 0 22.5 -8.25 22.5 -11c0 -28 -42.5 -53 -83.75 -53c-48.75 0 -68.75 22 -72.5 28c-1.70605 3.60352 -3.68164 5.18652 -5.41406 5.18652
c-2.46582 0 -4.43945 -3.21191 -4.43945 -8.36328c0 -2.26758 0.381836 -4.91113 1.27344 -7.82324c-36.0674 -53.333 -65.1699 -108.5 -90.1699 -160c-3.75 -19 -10 -36 -20 -52c-3.75 -4 -8.75 -6 -13.75 -6c-10 0 -31.25 4 -31.25 13c0 14 10 20 25 49
c21.1729 47.1436 60 109 83.75 149zM410.625 278.5c10.1572 8.83691 29.5713 13.5 45.625 13.5c22.5 -2 38.75 -29 46.25 -36c13.1191 -12.4629 45.0625 -20.1934 66.1963 -24.6025c-4.94629 -6.06543 -9.97266 -11.1143 -9.97266 -11.1143
c-47.1797 11.1846 -89.6953 32.0117 -96.2236 40.7158c-5 5.33301 -5.41602 6 -17.5 6c-4.74219 0 -7.25098 -0.220703 -10.6113 -3.61035c-2.51367 11.6113 -23.7637 15.1113 -23.7637 15.1113zM476.241 63.001c16.2588 -9.00098 77.5078 -48.001 110.008 -48.001
c25 0 38.75 32 50 32h13.75c8.55371 0 10 0 26.25 16l1.25 -1c-33.75 -47 -33.75 -62 -77.5 -62c-27 0 -62.916 10.2939 -135 51c-5.84668 3.50781 -9.70996 4.88281 -12.1729 4.88281c-2.84375 0 -3.81641 -1.83301 -3.81641 -4.33398
c0 -4.59375 3.29004 -11.4385 4.32422 -13.2979c-22.918 -24.584 -37.918 -38.251 -63.334 -38.251c-7.5 0 -33.75 3 -33.75 19c0 8 16.25 57 80 57c16.9561 -0.426758 27.084 -6 39.9912 -12.999zM489.967 76.8877c-11.2178 5.7793 -22.0947 13.3486 -39.3828 13.7822
c35.416 35.4004 73.2168 67.6406 138.162 136.329c40.0039 42.001 60.0039 65.001 95.0039 65.001c15 0 23.75 -6 23.75 -14c0 -19.916 -56.666 -54.6387 -56.666 -54.6387c7.09375 12.9629 9.95703 19.8428 9.95703 22.5469c0 0.952148 -0.354492 1.38672 -1.00684 1.38672
c-4.33887 0 -21.8281 -19.333 -34.7852 -33.2949c-41.2217 -49.9365 -63.5771 -65.251 -135.032 -137.112z" />
    <glyph glyph-name="rw" unicode="rw" horiz-adv-x="840" 
d="M206.05 239.552l-36.2744 -61.8555c3.70703 14.9912 5.04102 28.9482 6.62695 45.0283c0 17.8789 -3.22656 47.2754 -37.6523 47.2754c-29.375 0 -43.4463 -34.2432 -43.75 -35c-11.25 -28 -15.625 -73 -82.5 -153l-1.25 1c22.5 38 47.9209 72.249 67.5 159
c8.125 36 40 48 63.75 48c28.1191 0 60.5967 -17.3184 63.5498 -50.4482zM208.75 211c5 9 12.5 21.667 17.5 33c5.40723 12.2588 13.75 28.5 16.25 41c2.5 4 7.5 8 12.5 8c10 0 31.25 -8 31.25 -16c0 -13.9141 -0.72168 -26.3418 -0.72168 -36.0908
c0 -13.5391 18.8027 -21.9092 36.9717 -21.9092c21.25 0 48.75 3 48.75 21c16.25 13 23.75 25 26.25 25c15 0 22.5 -8.25 22.5 -11c0 -28 -42.5 -53 -83.75 -53c-48.75 0 -68.75 22 -72.5 28c-1.70605 3.60352 -3.68164 5.18652 -5.41406 5.18652
c-2.46582 0 -4.43945 -3.21191 -4.43945 -8.36328c0 -2.26758 0.381836 -4.91113 1.27344 -7.82324c-36.0674 -53.333 -65.1699 -108.5 -90.1699 -160c-3.75 -19 -10 -36 -20 -52c-3.75 -4 -8.75 -6 -13.75 -6c-10 0 -31.25 4 -31.25 13c0 14 10 20 25 49
c21.1729 47.1436 60 109 83.75 149zM691.876 133.645c0 0 -20.001 -18.1455 -32.8135 -39.3955c0 39 -14.0625 83.75 -19.0625 122.75c-2.34375 11.125 -7.5 24 -7.5 33c0 8 5 32 27.5 32c15 -3 18.75 -15 18.75 -27c0 -10 -3.75 -21 -3.75 -26
c0 -32.376 11.3828 -63.5039 16.876 -95.3545zM693.75 107.999c24.6875 34.25 115 85.4121 115 147c0 3 0 17 -10 17c-13.75 0 -22.5 -26 -28.75 -37c1.25 16 8.75 58 37.5 58c35 0 38.75 -22 38.75 -40c0 -82.8271 -125.807 -136.605 -155 -202
c-13.75 -18 -21.25 -51 -43.75 -51c-21.25 0 -28.75 5 -28.75 10c0 3 1.25 8 8.75 12c23.2285 16.0488 25.9375 37.25 66.25 86zM622.36 202.983c-8.67188 -6.05371 -19.0996 -12.8525 -28.6094 -19.9844c-40 -30 -45 -38 -91.25 -99c-7.5 -18 -16.25 -34 -22.5 -52
c-5 -16 -18.75 -32 -40 -32c-8.75 0 -21.25 5 -21.25 20c0 9 5 19 11.25 25c27.5 33 26.334 20.0205 42.5 50c9.16602 17 30 43 61.2471 72.9941c14.3682 13.9609 51.5029 35.6328 81.1445 62.8936c1.0459 -8.2627 7.46777 -27.9033 7.46777 -27.9033zM436.674 260.667
c0 0 -7.92285 15.332 -23.3369 15.665c13.125 16.5 47.9141 16.667 59.1641 16.667c22.5 0 32.5 -8 50 -22c12.5 -12 16.25 -31 16.25 -49c0 -4.66016 -1.07031 -15.8525 -1.5625 -20.501c0 0 -33.2246 -27.0176 -45.3125 -41.75
c8.58008 35.4629 13.125 62.9932 13.125 64.25c0 31 0 58 -31.25 58c-12.5 0 -25.2021 -7.83105 -37.0771 -21.3311z" />
    <glyph glyph-name="jj" unicode="jj" horiz-adv-x="405" 
d="M347.296 58.9229c3.9541 -6.92285 9.18555 -11.9229 15.2031 -11.9229c10.749 0 16.25 1 28.75 16l1.25 -1c-3.75 -13 -18.75 -22 -30 -22c-7.35254 0 -14.165 4 -18.8955 8.0166zM34.585 -417.663c-47.8867 57.5166 -46.6699 79.6631 -78.3359 146.663
c-24.1211 51.0361 -57.5 142 -136.25 142c-87.5 0 -117.5 -117 -117.5 -165c0 -51 7.5 -120 107.5 -120c46.2861 0 89.3604 33.4229 135.171 120.896l14.415 -37.2256c-58.7949 -97.5664 -120.324 -97.6699 -148.336 -97.6699c-123.75 0 -145 79 -145 130
c0 37 25 186 155 186c62.5 0 109.375 -55.5 137.5 -116c41.25 -86 60 -126 98.75 -153zM142.499 -305c47.7461 90.4961 161.429 423 166.25 441c2.5 74 31.25 120 41.25 132c13.75 19 35 27 42.5 27c10 0 12.5 -14 12.5 -27c0 -50 -17.5 -71 -36.25 -108
c-5 -6 -6.03125 -14.2373 -8.75 -22c-63.75 -182 -101.25 -282 -180 -453c-25.4297 -55.2197 -63.75 -112.5 -125 -113l22.5 35c15 1 35 22 65 88zM418.749 461c0 11 28.75 10 28.75 27c0 5 -5 7 -6.25 9c7.5 3 26.25 11 38.75 11c6.25 0 13.75 -3 13.75 -10
c0 -27 -33.75 -48 -56.25 -48c-10 0 -18.75 4 -18.75 11zM85.624 142c-28.75 -10 -33.125 -18 -73.125 -60l-1.25 1c47.5 70 55.625 60 82.5 79c-6.25 -17 -8.125 -20 -8.125 -20zM3.74902 -264.666c-7.78125 12.6357 -14.166 33.666 -20.6709 47.3604
c40.668 104.63 118.505 336.508 123.171 353.306c17.5 61 37.5 120 47.5 132c13.75 19 28.75 27 36.25 27c10 0 12.5 -14 12.5 -27c0 -50 -17.5 -71 -36.25 -108c-5 -6 -6.03125 -14.2373 -8.75 -22c-60.9238 -173.932 -86.4473 -244.174 -153.75 -402.666zM216.249 461
c0 11 28.75 10 28.75 27c0 5 -5 7 -6.25 9c7.5 3 26.25 11 38.75 11c6.25 0 13.75 -3 13.75 -10c0 -27 -33.75 -48 -56.25 -48c-10 0 -18.75 4 -18.75 11z" />
    <glyph glyph-name="gj" unicode="gj" horiz-adv-x="578" 
d="M521.046 58.9229c3.9541 -6.92285 9.18652 -11.9229 15.2041 -11.9229c10.749 0 16.25 1 28.75 16l1.25 -1c-3.75 -13 -18.75 -22 -30 -22c-7.35352 0 -14.166 4 -18.8965 8.0166zM208.336 -417.663c-47.8867 57.5166 -46.6699 79.6631 -78.3359 146.663
c-24.1211 51.0361 -57.5 142 -136.25 142c-87.5 0 -117.5 -117 -117.5 -165c0 -51 7.5 -120 107.5 -120c46.2871 0 89.3604 33.4229 135.171 120.896l14.415 -37.2256c-58.7949 -97.5664 -120.324 -97.6699 -148.336 -97.6699c-123.75 0 -145 79 -145 130
c0 37 25 186 155 186c62.5 0 109.375 -55.5 137.5 -116c41.25 -86 60 -126 98.75 -153zM316.25 -305c47.7461 90.4961 161.429 423 166.25 441c3.125 64 31.25 120 41.25 132c13.75 19 35 27 42.5 27c10 0 12.5 -14 12.5 -27c0 -50 -17.5 -71 -36.25 -108
c-5 -6 -6.03125 -14.2373 -8.75 -22c-63.75 -182 -101.25 -282 -180 -453c-25.4297 -55.2197 -63.75 -112.5 -125 -113l22.5 35c15 1 35 22 65 88zM592.5 461c0 11 28.75 10 28.75 27c0 5 -5 7 -6.25 9c7.5 3 26.25 11 38.75 11c6.25 0 13.75 -3 13.75 -10
c0 -27 -33.75 -48 -56.25 -48c-10 0 -18.75 4 -18.75 11zM172.5 -263.666c-7.78125 12.6357 -14.166 32.666 -20.6709 46.3604c58.2148 129.786 70.7988 149.888 90.6709 210.306c15.625 5 34.5674 11.21 72.5 65c-28.4736 -83.5244 -63.9189 -151.521 -142.5 -321.666z
M250 27c-22.5 -16 -55 -27 -86.25 -27c-52.5 0 -128.75 31 -128.75 112c0 28 8.75 55 21.25 80c15 26 35 49 60 68c30 23 63.75 33 116.25 33c30.2334 0 50.4814 -9.22656 68.75 -19.5c-3.00977 -21.7812 -6.875 -35 -15 -52.5c-1.25 35 -21.7979 58 -48.75 58
c-58.75 0 -103.75 -58 -121.25 -83c-20 -34 -30 -77 -30 -109c0 -72 53.75 -73 68.75 -73c36.25 0 65 25 88.75 51c27.6152 30.2314 76.25 156 80 191c0 0 13.75 26 40 26c13.5801 0 13.75 -11 13.75 -26c0 -26 -7.5 -53 -33.75 -99
c-3.5625 -6.9668 -37.5 -89.5 -93.75 -130z" />
    <glyph glyph-name="yj" unicode="yj" horiz-adv-x="578" 
d="M521.046 58.9229c3.9541 -6.92285 9.18652 -11.9229 15.2041 -11.9229c10.749 0 16.25 1 28.75 16l1.25 -1c-3.75 -13 -18.75 -22 -30 -22c-7.35352 0 -14.166 4 -18.8965 8.0166zM208.336 -417.663c-47.8867 57.5166 -46.6699 79.6631 -78.3359 146.663
c-24.1211 51.0361 -57.5 142 -136.25 142c-87.5 0 -117.5 -117 -117.5 -165c0 -51 7.5 -120 107.5 -120c46.2871 0 89.3604 33.4229 135.171 120.896l14.415 -37.2256c-58.7949 -97.5664 -120.324 -97.6699 -148.336 -97.6699c-123.75 0 -145 79 -145 130
c0 37 25 186 155 186c62.5 0 109.375 -55.5 137.5 -116c41.25 -86 60 -126 98.75 -153zM173.75 -260.666c-5.83398 13.333 -14.7451 30.9717 -21.25 44.666c58.2148 129.786 70.7529 148.582 90.625 209c21.25 5.5 39.166 22.667 77.5 75
c-28.4736 -83.5244 -68.2939 -158.521 -146.875 -328.666zM316.25 -305c47.7461 90.4961 161.429 423 166.25 441c3.75 65 31.25 120 41.25 132c13.75 19 35 27 42.5 27c10 0 12.5 -14 12.5 -27c0 -50 -17.5 -71 -36.25 -108c-5 -6 -6.03125 -14.2373 -8.75 -22
c-63.75 -182 -101.25 -282 -180 -453c-25.4297 -55.2197 -63.75 -112.5 -125 -113l22.5 35c15 1 35 22 65 88zM592.5 461c0 11 28.75 10 28.75 27c0 5 -5 7 -6.25 9c7.5 3 26.25 11 38.75 11c6.25 0 13.75 -3 13.75 -10c0 -27 -33.75 -48 -56.25 -48
c-10 0 -18.75 4 -18.75 11zM50.5391 131.316c-0.104492 -1.41309 -0.166016 -3.58203 -0.166016 -6.0498c0 -2.88672 0.0849609 -6.18555 0.28125 -9.16797c-3.73438 -2.69238 -7.01074 -5.2959 -10.6543 -8.09863c-8.125 -6.25 -22.5 -19 -27.5 -26l-1.25 1
c2.5 10 17.7158 27.2158 27.5 37zM357.5 146.999c-25 -45.5 -85.627 -115 -105.627 -129.5c-20 -13 -59.375 -17.5 -81.875 -17.5c-80.7188 0 -100.294 83.6875 -100.294 123.965c0 16.6523 6.77734 32.8086 15.2939 64.0352c21.5713 79.0957 31.25 105 77.5 105
c30.0215 0 36.251 -5.66895 36.251 -22c0 -8.82812 -7.09668 -51.1709 -53.1875 -97.4365c0 0 5.27246 20.1035 9.84961 34.1045c17.1738 24.1816 25.8389 53.2705 25.8389 65.3311c0 3 -1.25 9 -11.25 9c-11.25 -10 -36.25 -73 -42.5 -101
c-0.250977 -1.89355 -16.5303 -56.2412 -16.5303 -97.6973c0 -37.1299 15.29 -69.3018 61.5303 -69.3018c61.25 0 101.25 48.5 120 89c21.25 54 46.25 135 71.25 179c8.75 9 13.75 11 18.75 12c21.25 0 26.25 -5 26.25 -23c0 -58 -38.75 -103 -51.25 -124z" />
    <glyph glyph-name="qj" unicode="qj" horiz-adv-x="600" 
d="M542.296 58.9229c3.9541 -6.92285 9.18652 -11.9229 15.2041 -11.9229c10.749 0 16.25 1 28.75 16l1.25 -1c-3.75 -13 -18.75 -22 -30 -22c-7.35352 0 -14.166 4 -18.8965 8.0166zM323.75 256c0 0 13.75 26 40 26c13.5801 0 13.75 -11 13.75 -26
c0 -26 -7.5 -53 -33.75 -99c-3.5625 -6.9668 -37.5 -89.5 -93.75 -130c-22.5 -16 -55 -27 -86.25 -27c-52.5 0 -128.75 31 -128.75 112c0 28 8.75 55 21.25 80c15 26 35 49 60 68c30 23 63.75 33 116.25 33c30.2334 0 55.0801 -9.79883 73.3486 -20.0723l-19.5986 -51.9277
c-1.25 35 -21.7979 58 -48.75 58c-58.75 0 -103.75 -58 -121.25 -83c-20 -34 -30 -77 -30 -109c0 -72 28.6719 -73 68.75 -73c43.75 0 65 25 88.75 51c27.6152 30.2314 76.25 156 80 191zM94.375 -427c-3.125 -1.5 -13.75 -1.5 -28.75 -1.5c-7.5 0 -13.125 0.5 -13.125 5.5
c0 7.46289 31.25 64 190 423c0 0 33.125 10.5 70 64c-106.25 -287 -218.125 -491 -218.125 -491zM503.75 136c2.5 67 31.25 120 41.25 132c13.75 19 35 27 42.5 27c10 0 12.5 -14 12.5 -27c0 -50 -17.5 -71 -36.25 -108c-5 -6 -6.03125 -14.2373 -8.75 -22
c-63.75 -182 -100 -277 -175 -453c-26.25 -63 -108.75 -115 -183.764 -115.001c-23.75 0 -72.4863 1.00098 -77.4863 2.00098c10.625 24.5 13.75 27 22.5 27c26.25 0 45 -15 56.25 -15c111.25 2 142.5 108 178.75 197c36.8623 90.5059 122.5 337 127.5 355zM613.75 461
c0 11 28.75 10 28.75 27c0 5 -5 7 -6.25 9c7.5 3 26.25 11 38.75 11c6.25 0 13.75 -3 13.75 -10c0 -27 -33.75 -48 -56.25 -48c-10 0 -18.75 4 -18.75 11z" />
    <glyph glyph-name="yf" unicode="yf" horiz-adv-x="642" 
d="M324.853 -308.304l-6.18359 -17.7529c-43.0439 18.1885 -57.9912 18.2998 -152.42 58.0566c-55 21 -73.75 25 -151.25 25c-36.25 0 -103.75 -34 -103.75 -81c0 -51 8.75 -90 108.75 -90c47.707 0 93.1377 38.2363 139.55 132.081l34.2305 -14.0986
c-53.5557 -113.485 -143.679 -131.982 -172.529 -131.982c-123.75 0 -146.25 49 -146.25 99c0 38 30 102 142.5 102c80 0 100 -7 155 -25c49.9609 -21.4258 99.8447 -36.915 152.353 -56.3037zM50.5381 131.315c-0.104492 -1.41309 -0.166016 -3.58203 -0.166016 -6.0498
c0 -2.88672 0.0849609 -6.18555 0.28125 -9.16797c-3.73438 -2.69238 -7.01074 -5.2959 -10.6543 -8.09863c-8.125 -6.25 -22.5 -19 -27.5 -26l-1.25 1c2.5 10 17.7158 27.2158 27.5 37zM357.499 146.998c-25 -45.5 -81.876 -116.001 -101.876 -130.501
c-20 -13 -63.125 -16.5 -85.625 -16.5c-80.7188 0 -100.294 83.6875 -100.294 123.965c0 16.6523 6.77734 32.8086 15.2939 64.0352c21.5713 79.0957 31.25 105 77.5 105c30.0215 0 36.25 -5.66895 36.25 -22c0 -8.82812 -7.09668 -51.1709 -53.1875 -97.4365
c0 0 5.27246 20.1045 9.84961 34.1055c17.1738 24.1816 25.8389 53.2705 25.8389 65.3311c0 3 -1.25 9 -11.25 9c-11.25 -10 -36.25 -73 -42.5 -101c-0.250977 -1.89355 -16.5303 -56.2412 -16.5303 -97.6973c0 -37.1299 15.29 -69.3018 61.5303 -69.3018
c61.25 0 101.25 48.5 120 89c21.25 54 46.25 135 71.25 179c8.75 9 13.75 11 18.75 12c21.25 0 26.25 -5 26.25 -23c0 -58 -38.75 -103 -51.25 -124zM474.373 134.997c-13.125 -4 -18.75 -0.5 -18.75 -18.5c0 -35.5 45.625 -74.5 103.75 -77
c31.25 0.5 49.375 11 69.3545 23.4873l1.25391 -1.00781c-16.8584 -18.9795 -47.4834 -30.9795 -71.2334 -30.9795c-113.75 5 -128.75 61.5 -128.75 98c0 24 30.625 35 53.125 41.5c-5.625 -24 -8.75 -35.5 -8.75 -35.5zM515.359 65.1416
c-13.4863 2.85547 -24.5439 15.4902 -35.4453 26.2471c3.28418 11.2119 5.86621 20.2676 7.58398 26.6094c66.25 212 67.6191 209.966 126.25 341c6.2627 13.9961 38.75 25 53.75 25c13.75 0 28.75 -6 28.75 -56c0 -75.6387 -75.2295 -218.42 -128.747 -268.999
l16.6436 41.3369c38.4512 52.876 85.8535 152.269 85.8535 220.661c0 20 -3.75 30 -3.75 33c-40 -59 -82.5 -184 -127.494 -313.99c-4.12305 -14.21 -12.3506 -41.1318 -23.3945 -74.8652zM390.384 -365.24l6.58105 18.8438
c30.4619 -18.3848 48.0342 -34.123 48.0342 -50.6045c0 -25.3203 -42.0713 -41.0234 -77.3926 -41.0234c-20.4766 0 -38.6846 5.2793 -45.1074 17.0234c-2.25488 3.34961 -3.26465 8.15918 -3.26465 14.1064c0 20.3447 9.75098 45.0752 27.0156 88.8857
c21.874 55.5068 84.4141 246.377 118.792 359.658c10.1406 -5.9873 20.9541 -11.6719 36.0879 -14.2764l-123.631 -362.375c-7.25293 -21.2588 -24.21 -54.8105 -24.21 -68.5137c0 -2.95215 0.554688 -5.40625 1.70996 -7.48633
c4.26367 -8.10156 15.915 -10.3848 29.3125 -10.3848c18.0195 0 33.1875 9.75098 33.1875 26.3848c0 8.4082 -2.37109 14.0586 -27.1152 29.7617zM213.38 -250.095l-34.7031 13.2559c32.9609 81.7686 56.5762 154.664 82.666 232.418
c28.8154 28.6211 55.3564 61.6953 78.7354 100.963c-29.2998 -85.5781 -63.9014 -205.037 -126.698 -346.637z" />
    <glyph glyph-name="ry" unicode="ry" horiz-adv-x="771" 
d="M621.25 -5c0 0 33.75 21 70 69c-28.4736 -83.5244 -73.9189 -208.855 -152.5 -379c-42.5 -74 -106.25 -115 -181.25 -115c-36.25 0 -100 1 -100 58c0 77 221.25 266 322.496 318.494l-14.166 -29.1621c-19.5801 -12.332 -72.9678 -35.9834 -204.58 -162.332
c-12.5 -12 -70 -83 -70 -125c0 -36 37.5 -45 67.5 -45c108.75 0 163.75 154 178.75 196c51.2939 131.48 63.8779 153.582 83.75 214zM429.584 243.333c4.79102 -4.25195 9.20605 -6.4209 15.416 -7.83301c-1.25 -3 -5 -16 -5 -16c-6.86621 8.93848 -15.416 5.5 -20.625 7
c8.55957 6.27832 8.42969 6.20117 10.209 16.833zM206.05 239.552l-36.2744 -61.8555c3.70703 14.9912 5.04102 28.9482 6.62695 45.0283c0 17.8789 -3.22656 47.2754 -37.6523 47.2754c-29.375 0 -43.4463 -34.2432 -43.75 -35c-11.25 -28 -15.625 -73 -82.5 -153l-1.25 1
c22.5 38 47.9209 72.249 67.5 159c8.125 36 40 48 63.75 48c28.1191 0 60.5967 -17.3184 63.5498 -50.4482zM208.75 211c5 9 12.5 21.667 17.5 33c5.40723 12.2588 13.75 28.5 16.25 41c2.5 4 7.5 8 12.5 8c10 0 31.25 -8 31.25 -16
c0 -13.9141 -0.72168 -26.3418 -0.72168 -36.0908c0 -13.5391 18.8027 -21.9092 36.9717 -21.9092c21.25 0 48.75 3 48.75 21c16.25 13 23.75 25 26.25 25c15 0 22.5 -8.25 22.5 -11c0 -28 -42.5 -53 -83.75 -53c-48.75 0 -68.75 22 -72.5 28
c-1.70605 3.60352 -3.68164 5.18652 -5.41406 5.18652c-2.46582 0 -4.43945 -3.21191 -4.43945 -8.36328c0 -2.26758 0.381836 -4.91113 1.27344 -7.82324c-36.0674 -53.333 -65.1699 -108.5 -90.1699 -160c-3.75 -19 -10 -36 -20 -52c-3.75 -4 -8.75 -6 -13.75 -6
c-10 0 -31.25 4 -31.25 13c0 14 10 20 25 49c21.1729 47.1436 60 109 83.75 149zM720 147c-25 -45.5 -81.875 -116 -101.875 -130.5c-20 -13 -63.125 -16.5 -85.625 -16.5c-80.7188 0 -95.2939 77.6875 -95.2939 117.965c0 16.6523 1.7793 38.8086 10.2939 70.0352
c21.5713 79.0957 31.25 105 77.5 105c30.0215 0 36.25 -5.66895 36.25 -22c0 -8.82812 -6.25 -40 -47.3496 -62.1035l6.09961 18.6035c17.0254 9.89551 23.75 33.4385 23.75 45.499c0 3 -1.25 9 -11.25 9c-11.25 -10 -36.25 -73 -42.5 -101
c-0.250977 -1.89355 -16.5312 -56.2412 -16.5312 -97.6973c0 -37.1299 15.291 -69.3018 61.5312 -69.3018c61.25 0 101.25 48.5 120 89c21.25 54 46.25 135 71.25 179c8.75 9 13.75 11 18.75 12c21.25 0 26.25 -5 26.25 -23c0 -58 -38.75 -103 -51.25 -124z" />
    <glyph glyph-name="ry.space" unicode="ry&#x2c;&#x2c;" horiz-adv-x="895" 
d="M621.25 -5c0 0 33.75 21 70 69c-28.4736 -83.5244 -73.9189 -208.855 -152.5 -379c-42.5 -74 -106.25 -115 -181.25 -115c-36.25 0 -100 1 -100 58c0 124 221.25 266 322.496 318.494l-14.166 -29.1621c-19.5801 -12.332 -79.2178 -25.9834 -210.83 -152.332
c-12.5 -12 -63.75 -93 -63.75 -135c0 -36 37.5 -45 67.5 -45c108.75 0 163.75 154 178.75 196c51.2939 131.48 63.8779 153.582 83.75 214zM429.584 243.333c4.79102 -4.25195 9.20605 -6.4209 15.416 -7.83301c-1.25 -3 -5 -16 -5 -16
c-6.86621 8.93848 -15.416 5.5 -20.625 7c8.55957 6.27832 8.42969 6.20117 10.209 16.833zM206.05 239.552l-36.2744 -61.8555c3.70703 14.9912 5.04102 28.9482 6.62695 45.0283c0 17.8789 -3.22656 47.2754 -37.6523 47.2754c-29.375 0 -43.4463 -34.2432 -43.75 -35
c-11.25 -28 -15.625 -73 -82.5 -153l-1.25 1c22.5 38 47.9209 72.249 67.5 159c8.125 36 40 48 63.75 48c28.1191 0 60.5967 -17.3184 63.5498 -50.4482zM208.75 211c5 9 12.5 21.667 17.5 33c5.40723 12.2588 13.75 28.5 16.25 41c2.5 4 7.5 8 12.5 8
c10 0 31.25 -8 31.25 -16c0 -13.9141 -0.72168 -26.3418 -0.72168 -36.0908c0 -13.5391 18.8027 -21.9092 36.9717 -21.9092c21.25 0 48.75 3 48.75 21c16.25 13 23.75 25 26.25 25c15 0 22.5 -8.25 22.5 -11c0 -28 -42.5 -53 -83.75 -53c-48.75 0 -68.75 22 -72.5 28
c-1.70605 3.60352 -3.68164 5.18652 -5.41406 5.18652c-2.46582 0 -4.43945 -3.21191 -4.43945 -8.36328c0 -2.26758 0.381836 -4.91113 1.27344 -7.82324c-36.0674 -53.333 -65.1699 -108.5 -90.1699 -160c-3.75 -19 -10 -36 -20 -52c-3.75 -4 -8.75 -6 -13.75 -6
c-10 0 -31.25 4 -31.25 13c0 14 10 20 25 49c21.1729 47.1436 60 109 83.75 149zM720 147c-25 -45.5 -81.875 -116 -101.875 -130.5c-20 -13 -63.125 -16.5 -85.625 -16.5c-80.7188 0 -95.2939 77.6875 -95.2939 117.965c0 16.6523 1.7793 38.8086 10.2939 70.0352
c21.5713 79.0957 31.25 105 77.5 105c30.0215 0 36.25 -5.66895 36.25 -22c0 -8.82812 -6.25 -40 -47.3496 -62.1035l6.09961 18.6035c17.0254 9.89551 23.75 33.4385 23.75 45.499c0 3 -1.25 9 -11.25 9c-11.25 -10 -36.25 -73 -42.5 -101
c-0.250977 -1.89355 -16.5312 -56.2412 -16.5312 -97.6973c0 -37.1299 15.291 -69.3018 61.5312 -69.3018c61.25 0 101.25 48.5 120 89c21.25 54 46.25 135 71.25 179c8.75 9 13.75 11 18.75 12c21.25 0 26.25 -5 26.25 -23c0 -58 -38.75 -103 -51.25 -124zM690 -11
c91.25 21 176.972 104.064 176.972 146.794c0 14.8301 -13.7168 32.2354 -13.7168 36.6006c0 1.13477 0.526367 2.31348 2.63281 2.31348c8.42871 0 26.3369 -17.7422 26.3369 -40.8428c0 -56.6074 -97.2246 -143.865 -200.975 -166.865z" />
    <glyph glyph-name="rzdota" unicode="r&#x17c;" horiz-adv-x="691" 
d="M206.05 239.552l-36.2734 -61.8545c3.70703 14.9912 5.04102 28.9473 6.62695 45.0273c0 17.8789 -3.22754 47.2754 -37.6533 47.2754c-29.375 0 -43.4463 -34.2432 -43.75 -35c-11.25 -28 -15.625 -73 -82.5 -153l-1.25 1c22.5 38 47.9209 72.249 67.5 159
c8.125 36 40 48 63.75 48c28.1191 0 60.5967 -17.3184 63.5498 -50.4482zM208.75 211c5 9 12.5 21.667 17.5 33c5.40723 12.2588 13.75 28.5 16.25 41c2.5 4 7.5 8 12.5 8c10 0 31.25 -8 31.25 -16c0 -13.9141 -0.72168 -26.3418 -0.72168 -36.0908
c0 -13.5391 18.8027 -21.9092 36.9717 -21.9092c21.25 0 48.75 3 48.75 21c16.25 13 23.75 25 26.25 25c15 0 22.5 -8.25 22.5 -11c0 -28 -42.5 -53 -83.75 -53c-48.75 0 -68.75 22 -72.5 28c-1.70605 3.60352 -3.68164 5.18652 -5.41406 5.18652
c-2.46582 0 -4.43945 -3.21191 -4.43945 -8.3623c0 -2.26855 0.381836 -4.91211 1.27344 -7.82422c-36.0674 -53.333 -65.1699 -108.5 -90.1699 -160c-3.75 -19 -10 -36 -20 -52c-3.75 -4 -8.75 -6 -13.75 -6c-10 0 -31.25 4 -31.25 13c0 14 10 20 25 49
c21.1729 47.1436 60 109 83.75 149zM410.625 278.5c10.1572 8.83691 29.5713 13.5 45.625 13.5c22.5 -2 38.75 -29 46.25 -36c13.1191 -12.4629 45.0625 -20.1934 66.1963 -24.6016c-4.94629 -6.06543 -9.97266 -11.1143 -9.97266 -11.1143
c-47.1797 11.1846 -89.6953 32.0117 -96.2236 40.7158c-5 5.33301 -5.41602 6 -17.5 6c-4.74219 0 -7.25098 -0.220703 -10.6113 -3.61133c-2.51367 11.6113 -23.7637 15.1113 -23.7637 15.1113zM476.241 63.001c16.2588 -9.00098 77.5088 -48.001 110.009 -48.001
c25 0 38.75 32 50 32h13.75c8.55371 0 10 0 26.25 16l1.25 -1c-33.75 -47 -33.75 -62 -77.5 -62c-27 0 -62.916 10.2939 -135 51c-5.84668 3.50781 -9.70996 4.88281 -12.1729 4.88281c-2.84375 0 -3.81738 -1.83301 -3.81738 -4.33398
c0 -4.59375 3.29004 -11.4385 4.32422 -13.2979c-22.918 -24.584 -37.918 -38.251 -63.334 -38.251c-7.5 0 -33.75 3 -33.75 19c0 8 16.25 57 80 57c16.9561 -0.426758 27.084 -6 39.9912 -12.999zM489.968 76.8877c-11.2178 5.7793 -22.0957 13.3496 -39.3838 13.7832
c35.416 35.4004 73.2168 67.6396 138.162 136.328c40.0039 42.001 60.0039 65.001 95.0039 65.001c15 0 23.75 -6 23.75 -14c0 -19.916 -56.666 -54.6387 -56.666 -54.6387c7.09375 12.9629 9.95703 19.8428 9.95703 22.5469c0 0.952148 -0.353516 1.38672 -1.00586 1.38672
c-4.33887 0 -21.8281 -19.333 -34.7852 -33.2949c-41.2217 -49.9365 -63.5771 -65.251 -135.032 -137.112zM593.75 461c0 13 27.5 10 27.5 28c0 4 -5 7 -6.25 9c7.5 3 26.25 10 38.75 10c7.5 0 13.75 -2 13.75 -10c0 -23 -28.75 -47 -55 -47c-7.5 0 -18.75 2 -18.75 10z" />
    <glyph glyph-name="rz.space" unicode="rz&#x2c;&#x2c;" horiz-adv-x="878" 
d="M608.75 15c127.5 0 242.499 103 242.499 140c0 11 -3.75 23 -3.75 29c0 2 1.25 3 2.5 3c6.25 0 16.25 -14 16.25 -32c0 -52 -130.1 -155 -255 -155c-41.25 0 -76.666 10.2939 -148.75 51c-5.84668 3.50781 -9.70996 4.88281 -12.1729 4.88281
c-2.84375 0 -3.81641 -1.83301 -3.81641 -4.33398c0 -4.59375 3.29004 -11.4385 4.32422 -13.2979c-22.918 -24.584 -37.918 -38.251 -63.334 -38.251c-7.5 0 -33.75 3 -33.75 19c0 8 16.25 57 80 57c16.9561 -0.426758 27.084 -6 39.9912 -12.999
c16.2588 -9.00098 80.6338 -48.001 135.009 -48.001zM206.049 239.552l-36.2744 -61.8555c3.70703 14.9912 5.04102 28.9482 6.62695 45.0283c0 17.8789 -3.22656 47.2754 -37.6523 47.2754c-29.375 0 -43.4463 -34.2432 -43.75 -35c-11.25 -28 -15.625 -73 -82.5 -153
l-1.25 1c22.5 38 47.9209 72.249 67.5 159c8.125 36 40 48 63.75 48c28.1191 0 60.5967 -17.3184 63.5498 -50.4482zM208.749 211c5 9 12.5 21.667 17.5 33c5.40723 12.2588 13.75 28.5 16.25 41c2.5 4 7.5 8 12.5 8c10 0 31.25 -8 31.25 -16
c0 -13.9141 -0.72168 -26.3418 -0.72168 -36.0908c0 -13.5391 18.8027 -21.9092 36.9717 -21.9092c21.25 0 48.75 3 48.75 21c16.25 13 23.75 25 26.25 25c15 0 22.5 -8.25 22.5 -11c0 -28 -42.5 -53 -83.75 -53c-48.75 0 -68.75 22 -72.5 28
c-1.70605 3.60352 -3.68164 5.18652 -5.41406 5.18652c-2.46582 0 -4.43945 -3.21191 -4.43945 -8.36328c0 -2.26758 0.381836 -4.91113 1.27344 -7.82324c-36.0674 -53.333 -65.1699 -108.5 -90.1699 -160c-3.75 -19 -10 -36 -20 -52c-3.75 -4 -8.75 -6 -13.75 -6
c-10 0 -31.25 4 -31.25 13c0 14 10 20 25 49c21.1729 47.1436 60 109 83.75 149zM410.624 278.5c10.1572 8.83691 29.5713 13.5 45.625 13.5c22.5 -2 38.75 -29 46.25 -36c13.1191 -12.4629 45.0625 -20.1934 66.1963 -24.6025
c-4.94629 -6.06543 -9.97266 -11.1143 -9.97266 -11.1143c-47.1797 11.1846 -89.6953 32.0117 -96.2236 40.7158c-5 5.33301 -5.41602 6 -17.5 6c-4.74219 0 -7.25098 -0.220703 -10.6113 -3.61035c-2.51367 11.6113 -23.7637 15.1113 -23.7637 15.1113zM489.967 76.8877
c-11.2178 5.7793 -22.0947 13.3486 -39.3828 13.7822c35.416 35.4004 73.2168 67.6406 138.162 136.329c40.0039 42.001 60.0039 65.001 95.0039 65.001c15 0 23.75 -6 23.75 -14c0 -19.916 -56.666 -54.6387 -56.666 -54.6387
c7.09375 12.9629 9.95703 19.8428 9.95703 22.5469c0 0.952148 -0.354492 1.38672 -1.00684 1.38672c-4.33887 0 -21.8281 -19.333 -34.7852 -33.2949c-41.2217 -49.9365 -63.5771 -65.251 -135.032 -137.112z" />
    <glyph glyph-name="Gj" unicode="Gj" horiz-adv-x="965" 
d="M907.296 58.9229c3.9541 -6.92285 9.18652 -11.9229 15.2041 -11.9229c10.749 0 16.25 1 28.75 16l1.25 -1c-3.75 -13 -18.75 -22 -30 -22c-7.35352 0 -14.166 4 -18.8965 8.0166zM552.848 19.3984c-25.4609 -10.3369 -61.4141 -19.3984 -117.848 -19.3984
c-103.832 -0 -251.25 45.2979 -251.25 210c0 132 35.3828 196.81 83.75 259c20.1602 25.9209 120 126 268.75 126c154.887 0 196.25 -75.7979 196.25 -111c0 -19 -11.25 -41 -18.75 -59c-68.75 -144 -178.75 -191 -178.75 -191c-2.5 6 -6.25 10 -6.25 16c0 3 0 4 2.5 6
c0 0 97.5 58 148.75 173c10 25 11.25 33 11.25 55c0 40.7432 -24.75 89 -123.75 89c-177.5 0 -263.75 -122 -296.25 -192c-18.75 -54 -33.75 -87 -41.25 -208c0 -126.4 137.812 -158 205 -158c58.3809 0 103.409 22.501 137.744 50.9951zM593.75 40
c32.0664 70.9238 51.251 118.999 71.251 166.999c12.5 28 16.25 62 22.5 76c5 8 12.5 11 21.25 11c13.75 0 33.75 -11 33.75 -34c-3.75 -34 -13.75 -66 -27.5 -94c-8.75 -17 -21.25 -32 -31.25 -46c-47.5 -85 -160 -367 -191.25 -425c-25 -49 -57.9639 -86.5303 -85 -104
c-32.5 -21 -82.5 -28 -126.25 -28c-97.1709 0 -236.799 67.7871 -236.799 143.677c0 39.293 42.8379 63.5908 102.44 63.5908c71.2197 0 166.917 -34.2686 249.358 -113.268c-0.0078125 -0.00292969 -5.625 -6 -14.375 -14.5
c-80.7949 80.4561 -166.874 111.438 -227.521 111.438c-48.6953 0 -80.9932 -19.9736 -80.9932 -50.3496c0 -73.8926 127.349 -126.588 207.888 -126.588c25 0 59.1113 8.52441 80 19c83.75 42 147.5 256 232.5 444zM868.751 135.999c4.375 65 30 120 40 132
c13.75 19 36.25 27 43.75 27c10 0 12.5 -14 12.5 -27c0 -50 -17.5 -71 -36.25 -108c-5 -6 -5.46973 -14.377 -8.75 -22l-187.5 -453c-42.5 -103 -108.75 -115 -183.764 -115.001c-23.75 0 -67.4863 7.00098 -105.611 24.001c12.5 9.33301 5.625 4 18.125 16
c40.625 -22.5 77.5 -26 88.75 -26c111.25 2 142.5 108 178.75 197c36.8623 90.5059 135 337 140 355zM978.751 460.999c0 11 28.75 10 28.75 27c0 5 -5 7 -6.25 9c7.5 3 26.25 11 38.75 11c6.25 0 13.75 -3 13.75 -10c0 -27 -33.75 -48 -56.25 -48c-10 0 -18.75 4 -18.75 11
z" />
    <glyph glyph-name="Yj" unicode="Yj" horiz-adv-x="1232" 
d="M1174.8 58.9229c3.9502 -6.92285 9.18066 -11.9229 15.2002 -11.9229c10.75 0 16.25 1 28.75 16l1.25 -1c-3.75 -13 -18.75 -22 -30 -22c-7.34961 0 -14.1699 4 -18.9004 8.0166zM756.25 -305c-25 -49 -57.499 -87 -84.999 -104c-26.25 -14 -82.5 -28 -126.25 -28
c-81.9453 0 -236.442 63.5029 -236.442 142.804c0 42.6318 40.877 69.873 100.467 69.873c69.8467 0 165.403 -36.6787 250.975 -118.677c-0.0078125 -0.00292969 -5.625 -6 -14.375 -14.5c-82.6484 82.3018 -171.113 115.598 -232.236 115.598
c-46.6904 0 -77.4248 -19.4277 -77.4248 -51.2822c0 -76.4229 127.288 -129.815 209.035 -129.815c25 0 59.1113 8.52441 80 19c83.75 42 148.875 268.584 232.5 444c102.191 214.361 155 552 243.75 555c0.320312 0.0107422 0.650391 0.015625 0.959961 0.015625
c24.1504 0 29.04 -31.458 29.04 -65.0156c0 -19.8779 -2.12012 -139.429 -155.625 -356.25c0 0 20.4053 69.9102 26.3457 96.4102c46.7803 74.8398 98.0303 189.942 98.0303 290.84c0 6 -2.5 11 -3.75 12c-45 -56 -85 -203 -153.747 -442.006
c-11.2188 -39.001 -101.372 -269.626 -186.253 -435.994zM1132.5 136c4.37988 63.5 31.25 120 41.25 132c13.75 19 35 27 42.5 27c10 0 12.5 -14 12.5 -27c0 -50 -17.5 -71 -36.25 -108c-5 -6 -5.46973 -14.377 -8.75 -22l-187.5 -453
c-26.25 -63 -108.75 -120 -183.764 -120.001c-23.75 0 -67.4863 12.001 -105.611 29.001c12.5 9.33301 5.625 4 18.125 16c40.625 -22.5 77.5 -31 88.75 -31c111.25 2 142.5 113 178.75 202c36.8604 90.5059 135 337 140 355zM1242.5 461c0 11 28.75 10 28.75 27
c0 5 -5 7 -6.25 9c7.5 3 26.25 11 38.75 11c6.25 0 13.75 -3 13.75 -10c0 -27 -33.75 -48 -56.25 -48c-10 0 -18.75 4 -18.75 11zM639.251 471.717c-42.0127 -17.6211 -56.2656 -20.7178 -79.251 -20.7178c-179.227 0 -182.69 99 -311.249 99c-85 0 -92.5 -78 -92.5 -101
c0 -34 13.75 -69 33.75 -69c8.75 0 10 7 10 14c0 15 -1.25 12 -1.25 31c0 3 2.5 4 6.25 4c6.25 0 37.5 -14 37.5 -27c0 -8 -3.75 -16 -10 -21c-7.5 -8 -22.5 -16 -38.75 -16c-43.75 0 -85 56 -85 96c0 61 71.25 102 130 102c149.551 0 171.501 -97 308.75 -97
c44.6904 0 67.6562 14.501 104.375 40c-2.86914 -11.4746 -7.05273 -22.9033 -12.625 -34.2822zM843.753 51.334c-48.8418 -35.918 -71.5938 -51.335 -138.753 -51.335c-152.5 0 -162.5 143 -162.5 181c0 66 52.8896 157.627 125.39 303.627
c6.30176 14.5801 11.9248 29.1621 15.625 43.75c2.73535 12.9561 19.9121 56.1885 55.2354 65.623c5 0 11.25 -1 15 -3c10 -2 28.75 -25 28.75 -33v-1c-1.3877 -9.9873 -18.75 -16.8877 -18.75 -16.8877c-1.59473 7.94141 -3.44434 10.9385 -5.46875 10.9385
c-3.43164 0 -13.8301 -19.2139 -44.5312 -80.0508c-81.25 -161 -135 -230 -135 -327c0 -108 78.75 -130 111.25 -130c38.8809 0 81.5654 17.25 178.099 106.284z" />
    <glyph glyph-name="a.space" unicode="a&#x2c;&#x2c;" horiz-adv-x="610" 
d="M336.25 14c118.102 0 246.249 104 246.249 141c0 11 -3.75 23 -3.75 29c0 2 1.25 3 2.5 3c6.25 0 16.25 -14 16.25 -32c0 -52 -138.684 -155 -267.5 -155c-28.7139 0 -50.4424 8.11035 -60.8682 33.1338c20.8691 18.8662 39.8467 56.957 42.5371 61.8691
c-5.0625 -17.4463 -6.66797 -26.9277 -6.66797 -37.0029c0 -30 6.58008 -44 31.25 -44zM378.759 260.528c0 -12.4756 -1.2168 -15.6133 -45.0107 -98.5303c-11.5771 -21.9209 -56.875 -100.25 -66.25 -109c-6.25 -6 -48.75 -53 -126.25 -53c-45 0 -103.75 37 -103.75 110
c0 91 60 183 197.5 183c85.8867 -3.55859 80 -44.4082 80.625 -46.499c-5.625 -15.5 -35.915 -75.749 -35.915 -75.749c6.28906 19.9893 8.9209 36.3105 8.9209 49.6318c0 53.4902 -32.4492 58.6182 -51.1309 58.6182c-45 0 -77.5 -26 -100 -50
c-56.25 -55 -57.5 -117 -57.5 -146c0 -47 35 -69 60 -69c27.5 0 31.25 0 60 17c55 34 61.25 70 78.75 106c0 0 50 99.5 57.5 119c0 0 10 18 27.5 18c4.18848 0 15.0107 -3.54102 15.0107 -13.4717z" />
    <glyph glyph-name="c.space" unicode="c&#x2c;&#x2c;" horiz-adv-x="441" 
d="M181.25 14c118.499 0 232.5 104 232.5 141c0 11 -3.75 23 -3.75 29c0 2 1.25 3 2.5 3c6.25 0 16.25 -14 16.25 -32c0 -52 -128.375 -155 -252.5 -155c-23.75 0 -145 11 -145 97c0 78 71.25 196 208.75 196c68.75 0 108.75 -32 108.75 -45c0 -15 -21.25 -26 -32.5 -26
c-6.25 0 -17.5 2 -17.5 14c0 10 3.75 19 3.75 24c0 17 -30 19 -60 19c-61.25 0 -162.5 -84 -162.5 -203c0 -54 72.5 -62 101.25 -62z" />
    <glyph glyph-name="d.space" unicode="d&#x2c;&#x2c;" horiz-adv-x="610" 
d="M348.75 14c114.173 0 233.75 104 233.75 141c0 11 -3.75 23 -3.75 29c0 2 1.25 3 2.5 3c6.25 0 16.25 -14 16.25 -32c0 -52 -130.1 -155 -255 -155c-32.8584 0 -62.9434 8.11035 -73.3691 33.1338c20.8691 18.8662 39.8467 56.957 42.5371 61.8691
c-5.0625 -17.4463 -6.66797 -26.9277 -6.66797 -37.0029c0 -30 16.3408 -44 43.75 -44zM267.5 53c-6.25 -6 -48.751 -53.0029 -126.251 -53.0029c-45 0 -103.75 37 -103.75 110c0 91 60 183 197.5 183c85.8867 -3.55859 80 -44.4082 80.625 -46.499
c-5.625 -15.5 -35.915 -75.749 -35.915 -75.749c6.28906 19.9893 8.9209 36.3105 8.9209 49.6318c0 53.4902 -32.4492 58.6182 -51.1309 58.6182c-45 0 -77.5 -26 -100 -50c-56.25 -55 -57.5 -117 -57.5 -146c0 -47 35 -69 60 -69c27.5 0 31.25 0 60 17
c55 34 61.25 70 78.75 106c0 0 41.875 80 46.25 90c6.75293 10.8037 98.6172 168.326 98.6172 206.917c0 4.27246 -1.12598 7.08691 -3.61719 8.08398c-29.375 -17.5 -73.8271 -132.425 -89.375 -171.5c-1.9873 5.80078 -5.50781 10.0508 -10.9609 13.8594
c58.4043 183.229 94.0215 199.641 125.337 199.641c11.25 0 18.75 -15 18.75 -29c0 -84 -110.541 -247.804 -130 -293c-9.6875 -22.5 -56.875 -100.25 -66.25 -109z" />
    <glyph glyph-name="e.space" unicode="e&#x2c;&#x2c;" horiz-adv-x="458" 
d="M197.5 14c118.102 0 233.75 104 233.75 141c0 11 -3.75 23 -3.75 29c0 2 1.25 3 2.5 3c6.25 0 16.25 -14 16.25 -32c0 -52 -130.1 -155 -255 -155c-50 0 -158.75 14 -158.75 95c0 36.5 17.5 80 35 107c27.5 44 62.5 91 160 91c40 0 110 -16 110 -51
c0 -6 -6.25 -87 -137.5 -87c-38.75 0 -60.3115 6.5 -70 8l5 11c4.375 -1.25 23.75 -4 51.25 -4c72.5 2 105 64 105 81c0 21 -36.25 28 -61.25 28c-63.75 0 -115 -60 -140 -137c-7.5 -25 -7.5 -44 -7.5 -60c0 -51 61.25 -68 115 -68z" />
    <glyph glyph-name="g.space" unicode="g&#x2c;&#x2c;" horiz-adv-x="517" 
d="M245 0c0 0 31.25 16 67.5 64c-28.4736 -83.5244 -73.9189 -208.855 -152.5 -379c-42.5 -74 -106.25 -115 -181.25 -115c-36.25 0 -100 1 -100 58c0 124 221.25 266 322.496 318.494l-14.166 -29.1621c-19.5801 -12.332 -79.2178 -25.9834 -210.83 -152.332
c-12.5 -12 -63.75 -93 -63.75 -135c0 -36 37.5 -45 67.5 -45c108.75 0 163.75 154 178.75 196c51.2939 131.48 66.3779 158.582 86.25 219zM312.5 -11c86.25 21 176.972 124.063 176.972 166.794c0 14.8301 -13.7168 32.2354 -13.7168 36.6006
c0 1.13477 0.526367 2.31348 2.63281 2.31348c8.42871 0 26.3369 -17.7422 26.3369 -40.8428c0 -56.6074 -97.2246 -163.865 -200.975 -186.865zM249.999 26.999c-22.5 -16 -54.999 -26.999 -86.249 -26.999c-52.5 0 -128.75 31 -128.75 112c0 28 8.75 55 21.25 80
c15 26 35 49 60 68c30 23 63.75 33 116.25 33c30.2334 0 53.8301 -9.79883 72.0986 -20.0723c-6.01855 -19.2393 -9.59863 -39.4287 -17.7236 -57.4287c-1.25 35 -22.4229 63.5 -49.375 63.5c-58.75 0 -103.75 -58 -121.25 -83c-20 -34 -30 -77 -30 -109
c0 -72 53.75 -73 68.75 -73c36.25 0 65 25 88.75 51c27.6152 30.2314 76.25 156 80 191c0 0 13.75 26 40 26c13.5801 0 13.75 -11 13.75 -26c0 -26 -7.5 -53 -33.75 -99c-3.5625 -6.9668 -37.501 -89.5 -93.751 -130z" />
    <glyph glyph-name="h.space" unicode="h&#x2c;&#x2c;" horiz-adv-x="582" 
d="M302.5 0c-55 0 -61.25 42 -61.25 59c0 41 107.5 142 108.75 188c0 27 -40 32 -76.25 32c-50 0 -72.5 -26 -166.25 -159c-15 -32 -20 -56 -35 -93c0 0 -15 -27 -33.75 -27c-8.75 0 -20 5 -20 14l37.1494 94.7256l71.6006 107.274c50 74 95 77 147.5 77
c48.75 0 113.75 -8 113.75 -59c0 -65 -105 -141 -105 -188c0 -24 7.5 -32 25 -32c118.102 0 246.25 104 246.25 141c0 11 -3.75 23 -3.75 29c0 2 1.25 3 2.5 3c6.25 0 16.25 -14 16.25 -32c0 -52 -138.684 -155 -267.5 -155zM51.3613 131.182
c-14.4863 -9.68164 -27.8896 -35.1377 -38.8613 -49.1816l-1.25 1c5.41602 9.33301 16.25 37 23.75 46c4.77148 5.72559 25 38 34.375 51.5c-3.125 -10.5 -18.0137 -49.3184 -18.0137 -49.3184zM145 261.5c-27.5371 -31.4912 -46.0049 -62.9971 -66.2451 -94.499
c78.7451 206.998 111.245 304.998 152.495 304.998c12.5 0 26.25 -18 26.25 -37c0 -19.0762 -50.7773 -92.7539 -78.75 -124.5l21.25 51.75c17.4229 24.3174 41.25 63.5146 41.25 70.751c0 4 -1.25 7 -5 7c-5 0 -13.75 -7 -23.75 -23
c-3.64648 -6.28223 -43.0801 -90.7842 -67.5 -155.5z" />
    <glyph glyph-name="i.space" unicode="i&#x2c;&#x2c;" horiz-adv-x="406" 
d="M132.5 14c118.102 0 246.25 104 246.25 141c0 11 -3.75 23 -3.75 29c0 2 1.25 3 2.5 3c6.25 0 16.25 -14 16.25 -32c0 -52 -138.684 -155 -267.5 -155c-67.5 0 -91.25 39 -91.25 77c0 14 2.5 28 6.25 42c12.5 51 60 170 106.25 170c16.25 0 28.75 -12 28.75 -23
c0 -19.4248 -19.166 -74.667 -60.8779 -112.167l8.45898 27.6309c17.6064 21.5752 28.6504 48.1348 32.4189 77.5361c-15 -11 -42.5391 -57.9922 -55 -97c-14.375 -45 -20 -62.1055 -20 -99c0 -31 18.1162 -49 51.25 -49zM30.0205 102.537
c-7.10449 -6.53711 -2.51074 -8.5293 -17.5205 -20.5371l-1.25 1c15.3037 20.4053 8.71582 25.1045 21.3047 35.9551c-0.992188 -4.95508 -2.53418 -16.418 -2.53418 -16.418zM210 461c0 13 27.5 10 27.5 28c0 4 -5 7 -6.25 9c7.5 3 26.25 10 38.75 10
c7.5 0 13.75 -2 13.75 -10c0 -23 -28.75 -47 -55 -47c-7.5 0 -18.75 2 -18.75 10z" />
    <glyph glyph-name="l.space" unicode="l&#x2c;&#x2c;" horiz-adv-x="450" 
d="M176.25 14c118.102 0 246.25 104.001 246.25 141.001c0 11 -3.75 23 -3.75 29c0 2 1.25 3 2.5 3c6.25 0 16.25 -14 16.25 -32c0 -52 -138.684 -155 -267.5 -155c-89.1904 0 -113.868 36.4814 -113.868 74.6729c0 14.8662 3.74023 29.9932 8.86816 43.3271
c17.5 51 68.75 191 142.5 328c7.5 14 37.5 23 53.75 23c22.5 0 23.75 -15 23.75 -27c0 -15 -3.75 -68 -53.75 -154c-30.2305 -51.4883 -60.459 -108.452 -88.9072 -134.338c2.86621 14.6709 12.4502 36.8398 12.4502 36.8398
c20.2285 28.0117 35.6729 65.2705 55.207 101.497c32.5 57 47.5 111 50 149c-15 -22 -41.25 -66 -53.75 -95l-79.999 -184.996l-7.50098 -21.0039c-9.6748 -32.8984 -14.9248 -58.0918 -14.9248 -76.9814c0 -35.8789 20.5449 -49.0186 72.4248 -49.0186zM42.5205 102.538
c-10.0205 -5.53711 -15.0107 -8.5293 -30.0205 -20.5371l-1.25 1c15.3037 20.4053 23.7158 27.1045 36.3047 37.9551c-0.992188 -4.95508 -5.03418 -18.418 -5.03418 -18.418z" />
    <glyph glyph-name="m.space" unicode="m&#x2c;&#x2c;" horiz-adv-x="801" 
d="M521.25 0c-33.75 0 -63.75 18 -63.75 47c0 43 92.5 136 92.5 204c0 26 -20 28 -32.5 28c-43.75 0 -97.5 -38 -115 -66c-31.25 -42 -90 -169 -106.25 -203c-3.75 -6 -8.75 -10 -18.75 -10c-13.75 0 -22.5 3 -22.5 12s5 20 8.75 28
c23.2422 50.9316 66.666 139.667 101.245 181.996c0 0 50.0049 71.0039 138.755 71.0039c52.5 0 88.75 -7 88.75 -53c0 -79 -87.5 -145 -91.25 -200c0 -17 1.25 -26 26.25 -26c118.102 0 246.25 104 246.25 141c0 11 -3.75 23 -3.75 29c0 2 1.25 3 2.5 3
c6.25 0 16.25 -14 16.25 -32c0 -52 -138.684 -155 -267.5 -155zM72.7754 161.247c-18.5908 -29.5771 -41.4775 -58.0566 -60.2754 -79.2471l-1.25 1c14.6045 21.3047 42.5605 57.7529 64.9395 96.7793zM66.999 73.0771l34.251 151.924l10 33c5 11 12.5 35 36.25 35
c16.25 0 22.5 -11 22.5 -21c0 -20 -21.25 -49 -27.5 -54c-7.08398 -15 -7.96094 -20.3564 -17.0859 -53.999c-6.66406 -14.668 -58.415 -90.9248 -58.415 -90.9248zM114.999 121.997c47.085 85.0039 52.501 96.0039 81.251 130.004c17.5 21 65 41 100 41
c41.4287 0 64.79 -20.5391 70.084 -46.3574c0 0 -24.668 -23.6426 -37.998 -47.1309c2.65039 10.8369 5.41406 29.208 5.41406 36.4883c0 18 -1.25 43 -32.5 43c-40 0 -68.75 -37 -87.5 -64c-51.25 -73 -76.25 -131 -120 -203c-3.75 -7 -11.25 -12 -20 -12
c-10 0 -22.5 3 -22.5 13c0 7 2.5 10 5 14c2.90039 10.8271 45 74.333 58.749 94.9961z" />
    <glyph glyph-name="n.space" unicode="n&#x2c;&#x2c;" horiz-adv-x="623" 
d="M343.75 0c-33.75 0 -63.75 18 -63.75 47c0 43 92.5 136 92.5 204c0 26 -31.25 28 -43.75 28c-43.75 0 -91.875 -28.5 -109.375 -56.5c-31.25 -42 -105.625 -178.5 -121.875 -212.5c-3.75 -6 -8.75 -10 -18.75 -10c-13.75 0 -22.5 3 -22.5 12s3.85645 20.4053 8.75 28
c31.25 48.5 92.5 153.5 120.625 201.5c0 0 40.625 51.5 129.375 51.5c52.5 0 100 -7 100 -53c0 -79 -87.5 -145 -91.25 -200c0 -17 1.25 -26 26.25 -26c118.102 0 246.25 104 246.25 141c0 11 -3.75 23 -3.75 29c0 2 1.25 3 2.5 3c6.25 0 16.25 -14 16.25 -32
c0 -52 -138.684 -155 -267.5 -155zM72.7754 161.247c-18.5908 -29.5771 -41.4775 -58.0566 -60.2754 -79.2471l-1.25 1c14.6045 21.3047 42.5605 57.7529 64.9395 96.7793zM66.999 73.0771l34.251 151.924l10 33c5 11 12.5 35 36.25 35c16.25 0 22.5 -11 22.5 -21
c0 -20 -21.25 -49 -27.5 -54c-7.08398 -15 -7.96094 -17.3564 -17.0859 -50.999c-6.66406 -14.668 -58.415 -93.9248 -58.415 -93.9248z" />
    <glyph glyph-name="t.space" unicode="t&#x2c;&#x2c;" horiz-adv-x="348" 
d="M198.75 14c118.102 0 246.25 104 246.25 141c0 11 -3.75 23 -3.75 29c0 2 1.25 3 2.5 3c6.25 0 16.25 -14 16.25 -32c0 -52 -138.684 -155 -267.5 -155c-31.25 0 -61.25 4 -86.25 17c-11.25 8 -30 19 -30 58c0 15 7.1875 42.25 12.5 56
c20.501 57.4004 41 109.819 66.2236 164.821l43.8301 -9.20312c-12.6133 -31.2412 -41.0449 -101.299 -52.5537 -126.618c-15.625 -37.75 -22.5 -84 -22.5 -91c0 -51 36.543 -55 75 -55zM212.955 300.562c-9.54883 2.0791 -20.1592 4.3457 -23.9961 5.4375
c-22.4629 5.13477 -36.334 10 -45.209 10c-31.25 0 -33.75 -27 -45 -27c-7.5 0 -23.75 6 -23.75 9c21.25 28 31.25 31 52.5 31c13.791 0 7.38281 -1.20801 68.9541 -16.498c3.23047 -0.75 11.9346 -2.37695 19.9844 -3.93945zM63.1875 117.963
c-19.2559 -9.76855 -33.6035 -23.2949 -50.6875 -35.9619l-1.25 1c18.75 19.333 37.3584 34.874 55.0176 44.7012c-2.51758 -6.45117 -3.08008 -9.73926 -3.08008 -9.73926zM265.841 292.84l2.61426 7.69922c4.84473 -0.326172 9.44336 -0.538086 14.0449 -0.538086
c28.75 0 42.5 8 65 34h1.25c6.25 -5 15 -11 17.5 -19c-21.25 -13 -37.5 -25 -70 -25c-6.04492 0 -30.4092 2.83887 -30.4092 2.83887zM250.005 302.004c-40.1025 -83.8047 -55.0039 -115.003 -80.0039 -133.003l10.1113 29.3203
c20.4082 27.541 29.1299 57.0605 52.3887 106.68c21.25 51 33.75 99 37.5 135l-53.6963 -115.452l-43.082 10.5215l51.7783 111.931c6.25 13 31.25 22 46.25 22c22.5 0 25 -17 25 -23c0 -42 -45 -141.5 -46.2461 -143.997z" />
    <glyph glyph-name="u.space" unicode="u&#x2c;&#x2c;" horiz-adv-x="656" 
d="M407.5 14c118.102 0 221.25 104.001 221.25 141.001c0 11 -3.75 23 -3.75 29c0 2 1.25 3 2.5 3c6.25 0 16.25 -14 16.25 -32c0 -52 -117.6 -155 -242.5 -155c-71.25 0 -95.4814 50.4639 -95.4814 96.916c0 31.6221 5.17773 61.3848 8.53809 72.1045
c9.83887 24.4854 22.1182 55.25 41.9434 112.979c5 8 18.75 11 28.75 11c12.5 0 23.75 -6 23.75 -15c0 -39 -63.75 -134.062 -63.75 -195c0 -51 27.5 -69 62.5 -69zM295.938 44.5342c-18.0029 -24.6367 -44.291 -44.5332 -125.937 -44.5332c-72.5 0 -103.75 51 -103.75 89
c0 9 1.25 35.75 5 51c8.75 28 33.75 155 93.75 155c18.75 0 32.5 -5 32.5 -23c0 -9.79688 -15.8652 -56.085 -60.8457 -100.706c0 0 4.17871 18.7061 8.75879 30.04c17.0859 19.333 35.8359 58.6523 35.8359 71.666c0 3 -1.25 9 -11.25 9
c-11.25 -10 -37.126 -73.5088 -46.25 -101c-12.5 -37.667 -20 -47.667 -20 -95c0 -34 18.75 -72 65 -72c68.9648 0 93.6699 31.7588 118.75 92.334c-0.575195 -5.98633 -0.832031 -17.6846 -0.832031 -22.9961c0 -17.0889 5.20703 -27.3379 9.26953 -38.8047z
M51.3613 119.183c-4.24902 -2.37891 -7.04395 -4.86328 -10.1113 -7.18164c-10.5508 -7.97168 -18.334 -16.667 -28.75 -30l-1.25 1c5.41602 9.33301 16.25 22 23.75 31c4.77148 5.72559 10.4141 12.4971 17.8096 19.8477
c-0.93457 -8.59766 -1.44824 -14.666 -1.44824 -14.666z" />
    <glyph glyph-name="x.space" unicode="x&#x2c;&#x2c;" horiz-adv-x="543" 
d="M280 14c118.102 0 236.25 104 236.25 141c0 11 -3.75 23 -3.75 29c0 2 1.25 3 2.5 3c6.25 0 16.25 -14 16.25 -32c0 -52 -132.683 -155 -258.75 -155c-41.25 0 -74.584 37 -74.584 58c0 5 6.66797 82.333 8.3252 94.9971
c4.38379 26.5029 8.75879 51.0029 8.75879 76.0029c0 40 -17.5 50 -41.25 50c-42.7959 0 -87.9844 -56.541 -113.335 -87h-1.66504c56.25 90 98.75 101 127.5 101c43.75 0 58.75 -37 58.75 -69c0 -4 -1.25 -9 -1.25 -14c-8.75 -70.5 -16.25 -120.87 -16.25 -150
c0 -27 23.75 -46 52.5 -46zM258.051 171.793c0 0 6.11426 43.873 6.5293 63.8711c14.4404 25.1914 36.6895 57.335 76.6699 57.335c55 0 81.25 -14 85 -41c-1.25 -1 -38.75 -10 -40 -10c-6.25 0 -3.75 37 -36.25 37c-12.5 0 -25 -6 -36.25 -16
c-21.5908 -19.6729 -41.1709 -54.3115 -55.6992 -91.2061zM179.375 48.4941c-21.7383 -27.1328 -53.1367 -48.4951 -83.1279 -48.4951c-55 0 -56.25 27 -58.75 43c7.5 1 23.75 3 30 3c0 0 1.25 0 1.25 -1c1.25 0 1.25 -2 1.25 -3c0 -4 -1.25 -8 -1.25 -13
c0 -7 3.75 -15 21.25 -15c12.5 0 28.75 5 40 16c22.1904 20.2881 39.1357 47.4951 51.667 74.666c-2.01562 -26.2676 -2.4375 -40.3506 -2.4375 -48.416c0 -3.60156 0.0839844 -6.00391 0.148438 -7.75488z" />
    <glyph glyph-name="y.space" unicode="y&#x2c;&#x2c;" horiz-adv-x="531" 
d="M258.75 -5c0 0 33.75 21 70 69c-28.4736 -83.5244 -73.9189 -208.855 -152.5 -379c-42.5 -74 -106.25 -115 -181.25 -115c-36.25 0 -100 1 -100 58c0 124 221.25 266 322.496 318.494l-14.166 -29.1621c-19.5801 -12.332 -79.2178 -25.9834 -210.83 -152.332
c-12.5 -12 -63.75 -93 -63.75 -135c0 -36 37.5 -45 67.5 -45c108.75 0 163.75 154 178.75 196c51.2939 131.48 63.8779 153.582 83.75 214zM325 -11c86.25 21 176.972 124.063 176.972 166.794c0 14.8301 -13.7168 32.2354 -13.7168 36.6006
c0 1.13477 0.526367 2.31348 2.63281 2.31348c8.42871 0 26.3369 -17.7422 26.3369 -40.8428c0 -56.6074 -97.2246 -163.865 -200.975 -186.865zM50.5381 131.315c-0.104492 -1.41309 -0.166016 -3.58203 -0.166016 -6.0498c0 -2.88672 0.0849609 -6.18555 0.28125 -9.16797
c-3.73438 -2.69238 -7.01074 -5.2959 -10.6543 -8.09863c-8.125 -6.25 -22.5 -19 -27.5 -26l-1.25 1c2.5 10 17.7158 27.2158 27.5 37zM357.499 146.998c-25 -45.5 -81.876 -116.001 -101.876 -130.501c-20 -13 -63.125 -16.5 -85.625 -16.5
c-80.7188 0 -100.294 83.6875 -100.294 123.965c0 16.6523 6.77734 32.8086 15.2939 64.0352c21.5713 79.0957 31.25 105 77.5 105c30.0215 0 36.25 -5.66895 36.25 -22c0 -8.82812 -7.09668 -51.1709 -53.1875 -97.4365c0 0 5.27246 20.1045 9.84961 34.1055
c17.1738 24.1816 25.8389 53.2705 25.8389 65.3311c0 3 -1.25 9 -11.25 9c-11.25 -10 -36.25 -73 -42.5 -101c-0.250977 -1.89355 -16.5303 -56.2412 -16.5303 -97.6973c0 -37.1299 15.29 -69.3018 61.5303 -69.3018c61.25 0 101.25 48.5 120 89
c21.25 54 46.25 135 71.25 179c8.75 9 13.75 11 18.75 12c21.25 0 26.25 -5 26.25 -23c0 -58 -38.75 -103 -51.25 -124z" />
    <glyph glyph-name="z.space" unicode="z&#x2c;&#x2c;" horiz-adv-x="558" 
d="M288.75 15c127.5 0 242.499 103 242.499 140c0 11 -3.75 23 -3.75 29c0 2 1.25 3 2.5 3c6.25 0 16.25 -14 16.25 -32c0 -52 -130.1 -155 -255 -155c-41.25 0 -76.666 10.2939 -148.75 51c-5.84668 3.50781 -9.70996 4.88281 -12.1729 4.88281
c-2.84375 0 -3.81641 -1.83301 -3.81641 -4.33398c0 -4.59375 3.29004 -11.4385 4.32422 -13.2979c-22.918 -24.584 -37.918 -38.251 -63.334 -38.251c-7.5 0 -33.75 3 -33.75 19c0 8 16.25 57 80 57c16.9561 -0.426758 27.084 -6 39.9912 -12.999
c16.2588 -9.00098 80.6338 -48.001 135.009 -48.001zM237.473 218.284c-47.1797 11.1846 -90.9453 34.0127 -97.4736 42.7168c-5 5.33301 -5.41602 6 -17.5 6c-20 0 -55.2314 -46.2041 -60 -68l-4.16797 1.66504c4.16797 16.835 36.668 92.335 85.418 92.335
c22.5 -2 28.75 -30 36.25 -37c13.1191 -12.4629 46.3125 -22.1934 67.4463 -26.6025c-4.94629 -6.06543 -9.97266 -11.1143 -9.97266 -11.1143zM164.967 74.8887c-11.2178 5.7793 -22.0957 13.3496 -39.3838 13.7832c35.416 35.4004 75.7168 69.6406 140.662 138.328
c40.0039 42.001 60.0039 65.001 95.0039 65.001c15 0 23.75 -6 23.75 -14c0 -19.916 -56.666 -54.6387 -56.666 -54.6387c7.09375 12.9629 9.95703 19.8428 9.95703 22.5469c0 0.952148 -0.353516 1.38672 -1.00586 1.38672c-4.33887 0 -21.8281 -19.333 -34.7852 -33.2949
c-41.2217 -49.9365 -66.0771 -67.251 -137.532 -139.112z" />
    <glyph glyph-name="k.space" unicode="k&#x2c;&#x2c;" horiz-adv-x="570" 
d="M302.5 0c-101.25 0 -180.001 125.998 -180.001 133.998c-17.5 -17 -22.5 -40 -28.75 -55c-12.5 -34 -20 -80 -50 -80c-7.5 0 -15 3 -15 12c0 34 96.25 255 96.25 255c21.25 61 71.25 208 118.75 208c11.25 0 30 -18 30 -38c0 -28 -41.25 -86 -51.25 -102
c-5.33496 -6.8291 -11.8086 -16.3896 -19.2266 -27.2832c5.71191 18.8574 11.0771 37.6289 13.2891 55.6221c17.4424 25.833 37.1885 58.8779 37.1885 69.6631c0 5 -3.75 9 -6.25 9c-3.75 0 -15 -6 -26.25 -24c-17.5 -28 -31.25 -83 -31.25 -87
c-3.43848 -19 -11.875 -47.25 -21.25 -71l-31.25 -78c68.75 40 75 36 178.75 106c8.75 3 16.25 5 22.5 5s11.25 -2 11.25 -10c0 -12 -3.75 -56 -37.5 -56c0.416016 3.33301 2.70898 3.49609 2.91797 7.49609c7.70703 0.170898 5.83203 12.5039 8.33203 29.5039
c-3.75 0 -19.166 -28.667 -25.0049 -33.0039c-49.9951 -30.9961 -143.745 -69.9961 -143.745 -76.9961c0 -33 83.75 -139 153.75 -139c114.173 0 233.75 104 233.75 141c0 11 -3.75 23 -3.75 29c0 2 1.25 3 2.5 3c6.25 0 16.25 -14 16.25 -32c0 -52 -126.184 -155 -255 -155
zM51.3604 129.18c-4.24902 -2.37891 -7.04395 -4.86328 -10.1113 -7.18164c-10.5508 -7.97168 -18.334 -26.667 -28.75 -40l-1.25 1c5.41602 9.33301 16.25 32 23.75 41c4.77148 5.72559 13.125 15.5 22.8096 19.8477c-4.68457 -9.34766 -6.44824 -14.666 -6.44824 -14.666z
M216.562 362.336z" />
    <glyph glyph-name="aogonek.space" unicode="&#x105;&#x2c;&#x2c;" horiz-adv-x="610" 
d="M336.25 14c118.102 0 246.249 104 246.249 141c0 11 -3.75 23 -3.75 29c0 2 1.25 3 2.5 3c6.25 0 16.25 -14 16.25 -32c0 -52 -138.684 -155 -267.5 -155c-28.7139 0 -50.4424 8.11035 -60.8682 33.1338c20.8691 18.8662 39.8467 56.957 42.5371 61.8691
c-5.0625 -17.4463 -6.66797 -26.9277 -6.66797 -37.0029c0 -30 6.58008 -44 31.25 -44zM378.759 260.528c0 -12.4756 -1.2168 -15.6133 -45.0107 -98.5303c-11.5771 -21.9209 -56.875 -100.25 -66.25 -109c-6.25 -6 -48.75 -53 -126.25 -53c-45 0 -103.75 37 -103.75 110
c0 91 60 183 197.5 183c85.8867 -3.55859 80 -44.4082 80.625 -46.499c-5.625 -15.5 -35.915 -75.749 -35.915 -75.749c6.28906 19.9893 8.9209 36.3105 8.9209 49.6318c0 53.4902 -32.4492 58.6182 -51.1309 58.6182c-45 0 -77.5 -26 -100 -50
c-56.25 -55 -57.5 -117 -57.5 -146c0 -47 35 -69 60 -69c27.5 0 31.25 0 60 17c55 34 61.25 70 78.75 106c0 0 50 99.5 57.5 119c0 0 10 18 27.5 18c4.18848 0 15.0107 -3.54102 15.0107 -13.4717zM356.248 -13.0029c7.5 2 8.75 2 26.25 6c-47.5 -49 -50 -91 -50 -106
c0 -29 7.5 -30 12.5 -32c21.25 3 36.25 43 55 43c2.5 0 2.5 -1 2.5 -2c0 0 -28.75 -50 -56.25 -50c-35 0 -43.75 41 -43.75 62c0 24 18.75 58 53.75 79z" />
    <glyph glyph-name="cacute.space" unicode="&#x107;&#x2c;&#x2c;" horiz-adv-x="441" 
d="M181.25 14c118.499 0 232.5 104 232.5 141c0 11 -3.75 23 -3.75 29c0 2 1.25 3 2.5 3c6.25 0 16.25 -14 16.25 -32c0 -52 -128.375 -155 -252.5 -155c-23.75 0 -145 11 -145 97c0 78 71.25 196 208.75 196c68.75 0 108.75 -32 108.75 -45c0 -15 -21.25 -26 -32.5 -26
c-6.25 0 -17.5 2 -17.5 14c0 10 3.75 19 3.75 24c0 17 -30 19 -60 19c-61.25 0 -162.5 -84 -162.5 -203c0 -54 72.5 -62 101.25 -62zM378.75 496c0 -5 -8.75 -32 -16.25 -53c-6.25 5 -15 13 -22.5 13c-20 0 -30 -12 -36.25 -19c-11.25 -14 -18.75 -30 -36.25 -55
c3.75 14 8.75 52 26.25 84c20 35 36.25 44 60 44c15 0 25 -5 25 -14z" />
    <glyph glyph-name="eogonek.space" unicode="&#x119;&#x2c;&#x2c;" horiz-adv-x="458" 
d="M197.5 14c118.102 0 233.75 104 233.75 141c0 11 -3.75 23 -3.75 29c0 2 1.25 3 2.5 3c6.25 0 16.25 -14 16.25 -32c0 -52 -130.1 -155 -255 -155c-50 0 -158.75 14 -158.75 95c0 36.5 17.5 80 35 107c27.5 44 62.5 91 160 91c40 0 110 -16 110 -51
c0 -6 -6.25 -87 -137.5 -87c-38.75 0 -60.3115 6.5 -70 8l5 11c4.375 -1.25 23.75 -4 51.25 -4c72.5 2 105 64 105 81c0 21 -36.25 28 -61.25 28c-63.75 0 -115 -60 -140 -137c-7.5 -25 -7.5 -44 -7.5 -60c0 -51 61.25 -68 115 -68zM257.5 -5c7.5 2 8.75 2 26.25 6
c-47.5 -49 -50 -91 -50 -106c0 -29 7.5 -30 12.5 -32c21.25 3 36.25 43 55 43c2.5 0 2.5 -1 2.5 -2c0 0 -28.75 -50 -56.25 -50c-35 0 -43.75 41 -43.75 62c0 24 18.75 58 53.75 79z" />
    <glyph glyph-name="lslash.space" unicode="&#x142;&#x2c;&#x2c;" horiz-adv-x="450" 
d="M172.5 14c122.5 0 250 104.001 250 141.001c0 11 -3.75 23 -3.75 29c0 2 1.25 3 2.5 3c6.25 0 16.25 -14 16.25 -32c0 -52 -138.684 -155 -267.5 -155c-89.1904 0 -113.868 36.4814 -113.868 74.6729c0 14.8662 3.74023 29.9932 8.86816 43.3271
c17.5 51 68.75 191 142.5 328c7.5 14 37.5 23 53.75 23c22.5 0 23.75 -15 23.75 -27c0 -15 -3.75 -68 -53.75 -154c-30.2305 -51.4883 -60.459 -108.452 -88.9072 -134.338c2.86621 14.6709 12.4502 36.8398 12.4502 36.8398
c20.2285 28.0117 35.6729 65.2705 55.207 101.497c32.5 57 47.5 111 50 149c-15 -22 -41.25 -66 -53.75 -95l-79.999 -184.996l-7.50098 -21.0039c-9.6748 -32.8984 -14.9248 -58.0918 -14.9248 -76.9814c0 -35.8789 19.2998 -49.0186 68.6748 -49.0186zM42.5205 102.538
c-10.0205 -5.53711 -15.0107 -8.5293 -30.0205 -20.5371l-1.25 1c15.3037 20.4053 21.2158 25.1045 33.8047 35.9551c-0.992188 -4.95508 -2.53418 -16.418 -2.53418 -16.418zM230.419 475.335c-21.0137 15.2051 -43.2305 27.666 -76.6689 27.666
c-17.5 0 -21.25 -5 -21.25 -13c0 -4 -7.5 -6 -16.25 -6c-7.5 0 -15 1 -21.25 3c0 25 17.5 42 57.5 42c52.8389 0 79.8066 -25.3281 104.35 -49.5488c0 0 -15.0771 -0.375977 -26.4307 -4.11719zM303.75 446.251c10.2236 -5.02637 16.1445 -10.25 30.001 -10.25
c57.5 0 53.75 59 73.75 59c15 0 27.5 -8 27.5 -11c-1.25 -9 -8.75 -19 -13.75 -25c-21.25 -22 -51.25 -37 -86.25 -37c-13.8623 0 -20.3008 4.74414 -31.251 9v15.25z" />
    <glyph glyph-name="nacute.space" unicode="&#x144;&#x2c;&#x2c;" horiz-adv-x="622" 
d="M352.5 14c116.915 0 242.5 104 242.5 141c0 11 -3.75 23 -3.75 29c0 2 1.25 3 2.5 3c6.25 0 16.25 -14 16.25 -32c0 -52 -136.116 -155 -263.75 -155c-33.75 0 -66.25 18 -66.25 47c0 43 92.5 136 92.5 204c0 26 -31.25 28 -43.75 28
c-43.75 0 -91.875 -28.5 -109.375 -56.5c-31.25 -42 -105.625 -178.5 -121.875 -212.5c-3.75 -6 -8.75 -10 -18.75 -10c-13.75 0 -22.5 3 -22.5 12s3.85645 20.4053 8.75 28c31.25 48.5 92.5 153.5 120.625 201.5c0 0 40.625 51.5 129.375 51.5c52.5 0 100 -7 100 -53
c0 -79 -87.5 -145 -91.25 -200c0 -17 3.75 -26 28.75 -26zM72.7754 161.247c-18.5908 -29.5771 -41.4775 -58.0566 -60.2754 -79.2471l-1.25 1c14.6045 21.3047 42.5605 57.7529 64.9395 96.7793zM66.999 73.0771l34.251 151.924l10 33c5 11 12.5 35 36.25 35
c16.25 0 22.5 -11 22.5 -21c0 -20 -21.25 -49 -27.5 -54c-7.08398 -15 -7.96094 -17.3564 -17.0859 -50.999c-6.66406 -14.668 -58.415 -93.9248 -58.415 -93.9248zM422.5 496.001c0 -5 -8.75 -32 -16.25 -53c-6.25 5 -15 13 -22.5 13c-20 0 -30 -12 -36.25 -19
c-10.7422 -13.3682 -20.5 -31.333 -33.9375 -54.667l-2.3125 -0.333008c3.75 14 8.75 52 26.25 84c20 35 36.25 44 60 44c15 0 25 -5 25 -14z" />
    <glyph glyph-name="zacute.space" unicode="&#x17a;&#x2c;&#x2c;" horiz-adv-x="558" 
d="M288.75 15c127.5 0 242.499 103 242.499 140c0 11 -3.75 23 -3.75 29c0 2 1.25 3 2.5 3c6.25 0 16.25 -14 16.25 -32c0 -52 -130.1 -155 -255 -155c-41.25 0 -76.666 10.2939 -148.75 51c-5.84668 3.50781 -9.70996 4.88281 -12.1729 4.88281
c-2.84375 0 -3.81641 -1.83301 -3.81641 -4.33398c0 -4.59375 3.29004 -11.4385 4.32422 -13.2979c-22.918 -24.584 -37.918 -38.251 -63.334 -38.251c-7.5 0 -33.75 3 -33.75 19c0 8 16.25 57 80 57c16.9561 -0.426758 27.084 -6 39.9912 -12.999
c16.2588 -9.00098 80.6338 -48.001 135.009 -48.001zM237.473 218.284c-47.1797 11.1846 -90.9453 34.0127 -97.4736 42.7168c-5 5.33301 -5.41602 6 -17.5 6c-20 0 -55.2314 -46.2041 -60 -68l-4.16797 1.66504c4.16797 16.835 36.668 92.335 85.418 92.335
c22.5 -2 28.75 -30 36.25 -37c13.1191 -12.4629 46.3125 -22.1934 67.4463 -26.6025c-4.94629 -6.06543 -9.97266 -11.1143 -9.97266 -11.1143zM164.967 74.8887c-11.2178 5.7793 -22.0957 13.3496 -39.3838 13.7832c35.416 35.4004 75.7168 69.6406 140.662 138.328
c40.0039 42.001 60.0039 65.001 95.0039 65.001c15 0 23.75 -6 23.75 -14c0 -19.916 -56.666 -54.6387 -56.666 -54.6387c7.09375 12.9629 9.95703 19.8428 9.95703 22.5469c0 0.952148 -0.353516 1.38672 -1.00586 1.38672c-4.33887 0 -21.8281 -19.333 -34.7852 -33.2949
c-41.2217 -49.9365 -66.0771 -67.251 -137.532 -139.112zM353.749 496.001c0 -5 -8.75 -32 -16.25 -53c-6.25 5 -15 13 -22.5 13c-20 0 -30 -12 -36.25 -19c-15 -20.5 -29.25 -45 -33.2324 -55.5l-3.01758 0.5c3.75 14 8.75 52 26.25 84c20 35 36.25 44 60 44
c15 0 25 -5 25 -14z" />
    <glyph glyph-name="zdotaccent.space" unicode="&#x17c;&#x2c;&#x2c;" horiz-adv-x="558" 
d="M288.75 15c127.5 0 242.499 103 242.499 140c0 11 -3.75 23 -3.75 29c0 2 1.25 3 2.5 3c6.25 0 16.25 -14 16.25 -32c0 -52 -130.1 -155 -255 -155c-41.25 0 -76.666 10.2939 -148.75 51c-5.84668 3.50781 -9.70996 4.88281 -12.1729 4.88281
c-2.84375 0 -3.81641 -1.83301 -3.81641 -4.33398c0 -4.59375 3.29004 -11.4385 4.32422 -13.2979c-22.918 -24.584 -37.918 -38.251 -63.334 -38.251c-7.5 0 -33.75 3 -33.75 19c0 8 16.25 57 80 57c16.9561 -0.426758 27.084 -6 39.9912 -12.999
c16.2588 -9.00098 80.6338 -48.001 135.009 -48.001zM237.473 218.284c-47.1797 11.1846 -90.9453 34.0127 -97.4736 42.7168c-5 5.33301 -5.41602 6 -17.5 6c-20 0 -55.2314 -46.2041 -60 -68l-4.16797 1.66504c4.16797 16.835 36.668 92.335 85.418 92.335
c22.5 -2 28.75 -30 36.25 -37c13.1191 -12.4629 46.3125 -22.1934 67.4463 -26.6025c-4.94629 -6.06543 -9.97266 -11.1143 -9.97266 -11.1143zM164.967 74.8887c-11.2178 5.7793 -22.0957 13.3496 -39.3838 13.7832c35.416 35.4004 75.7168 69.6406 140.662 138.328
c40.0039 42.001 60.0039 65.001 95.0039 65.001c15 0 23.75 -6 23.75 -14c0 -19.916 -56.666 -54.6387 -56.666 -54.6387c7.09375 12.9629 9.95703 19.8428 9.95703 22.5469c0 0.952148 -0.353516 1.38672 -1.00586 1.38672c-4.33887 0 -21.8281 -19.333 -34.7852 -33.2949
c-41.2217 -49.9365 -66.0771 -67.251 -137.532 -139.112zM223.749 461.001c0 13 27.5 10 27.5 28c0 4 -5 7 -6.25 9c7.5 3 26.25 10 38.75 10c7.5 0 13.75 -2 13.75 -10c0 -23 -28.75 -47 -55 -47c-7.5 0 -18.75 2 -18.75 10z" />
    <glyph glyph-name="ru" unicode="ru" horiz-adv-x="820" 
d="M432.084 243.333c4.79102 -4.25195 9.20605 -6.4209 15.416 -7.83301c-1.25 -3 -5 -16 -5 -16c-6.86621 8.93848 -15.416 5.5 -20.625 7c8.55957 6.27832 8.42969 6.20117 10.209 16.833zM561.25 271c0 -28.3701 -6.24902 -40.002 -47.3486 -62.1055l6.09961 18.6045
c22.084 7.83301 23.75 26.2705 23.75 45.501c0 8 -1.25 9 -11.25 9c-11.25 -10 -37.126 -73.5088 -46.25 -101c-12.5 -37.667 -20 -47.667 -20 -95c0 -34 18.75 -72 65 -72c68.9648 0 96.1699 32.7588 121.25 93.334
c-0.575195 -5.98633 -0.832031 -16.6846 -0.832031 -21.9961c0 -17.0889 3.51172 -24.6826 6.76953 -40.8047c-18.0029 -24.6367 -44.292 -44.5332 -125.938 -44.5332c-72.5 0 -103.75 51 -103.75 89c0 9 1.25 35.75 5 51c8.75 28 33.75 155 93.75 155
c18.75 0 33.75 -5.66699 33.75 -24zM206.051 239.55l-36.2744 -61.8555c3.70703 14.9912 5.04102 28.9482 6.62695 45.0283c0 17.8789 -3.22656 47.2754 -37.6523 47.2754c-29.375 0 -43.4463 -34.2432 -43.75 -35c-11.25 -28 -15.625 -73 -82.5 -153l-1.25 1
c22.5 38 47.9209 72.249 67.5 159c8.125 36 40 48 63.75 48c28.1191 0 60.5967 -17.3184 63.5498 -50.4482zM208.751 210.998c5 9 12.5 21.667 17.5 33c5.40723 12.2588 13.75 28.5 16.25 41c2.5 4 7.5 8 12.5 8c10 0 31.25 -8 31.25 -16
c0 -13.9141 -0.72168 -26.3418 -0.72168 -36.0908c0 -13.5391 18.8027 -21.9092 36.9717 -21.9092c21.25 0 48.75 3 48.75 21c16.25 13 23.75 25 26.25 25c15 0 22.5 -8.25 22.5 -11c0 -28 -42.5 -53 -83.75 -53c-48.75 0 -68.75 22 -72.5 28
c-1.70605 3.60352 -3.68164 5.18652 -5.41406 5.18652c-2.46582 0 -4.43945 -3.21191 -4.43945 -8.36328c0 -2.26758 0.381836 -4.91113 1.27344 -7.82324c-36.0674 -53.333 -65.1699 -108.5 -90.1699 -160c-3.75 -19 -10 -36 -20 -52c-3.75 -4 -8.75 -6 -13.75 -6
c-10 0 -31.25 4 -31.25 13c0 14 10 20 25 49c21.1729 47.1436 60 109 83.75 149zM676.808 169.02c9.83887 24.4854 22.1182 55.25 41.9434 112.979c5 8 18.75 11 28.75 11c12.5 0 23.75 -6 23.75 -15c0 -39 -63.75 -134.062 -63.75 -195c0 -51 15 -69 32.5 -69
c20 0 27.5 0 47.5 16c5 4.66699 11.25 18.333 18.75 33l1.25 -1c-11.25 -28 -12.5 -39 -36.25 -54c-12.5 -6 -23.75 -8 -32.5 -8c-57.8574 0 -71.7314 50.4639 -71.7314 96.916c0 31.6221 6.42773 61.3848 9.78809 72.1045z" />
    <glyph glyph-name="ru.space" unicode="ru&#x2c;&#x2c;" horiz-adv-x="1016" 
d="M430.834 243.333c4.79102 -4.25195 9.20605 -6.4209 15.416 -7.83301c-1.25 -3 -5 -16 -5 -16c-6.86621 8.93848 -15.416 5.5 -20.625 7c8.55957 6.27832 8.42969 6.20117 10.209 16.833zM767.5 14c118.102 0 221.25 104.001 221.25 141.001c0 11 -3.75 23 -3.75 29
c0 2 1.25 3 2.5 3c6.25 0 16.25 -14 16.25 -32c0 -52 -117.6 -155 -242.5 -155c-81.25 0 -95.4814 50.4639 -95.4814 96.916c0 31.6221 5.17773 61.3848 8.53809 72.1045c9.83887 24.4854 22.1182 55.25 41.9434 112.979c5 8 18.75 11 28.75 11c12.5 0 23.75 -6 23.75 -15
c0 -39 -63.75 -134.062 -63.75 -195c0 -51 12.5 -69 62.5 -69zM655.938 44.5342c-18.0029 -24.6367 -44.291 -44.5332 -125.937 -44.5332c-72.5 0 -103.75 51 -103.75 89c0 9 1.25 35.75 5 51c8.75 28 33.75 155 93.75 155c18.75 0 32.5 -5 32.5 -23
c0 -9.79688 -15.8652 -56.085 -60.8457 -100.706c0 0 4.17871 18.7061 8.75879 30.04c17.0859 19.333 35.8359 58.6523 35.8359 71.666c0 3 -1.25 9 -11.25 9c-11.25 -10 -37.126 -73.5088 -46.25 -101c-12.5 -37.667 -20 -47.667 -20 -95c0 -34 18.75 -72 65 -72
c68.9648 0 96.1699 32.7588 121.25 93.334c-0.575195 -5.98633 -0.832031 -16.6846 -0.832031 -21.9961c0 -17.0889 3.51172 -24.6826 6.76953 -40.8047zM206.051 239.553l-36.2744 -61.8545c3.70703 14.9912 5.04102 28.9482 6.62695 45.0283
c0 17.8789 -3.22656 47.2744 -37.6523 47.2744c-29.375 0 -43.4463 -34.2432 -43.75 -35c-11.25 -28 -15.625 -73 -82.5 -153l-1.25 1c22.5 38 47.9209 72.249 67.5 159c8.125 36 40 48 63.75 48c28.1191 0 60.5967 -17.3184 63.5498 -50.4482zM208.751 211.002
c5 9 12.5 21.667 17.5 33c5.40723 12.2588 13.75 28.5 16.25 41c2.5 4 7.5 8 12.5 8c10 0 31.25 -8 31.25 -16c0 -13.9141 -0.72168 -26.3418 -0.72168 -36.0908c0 -13.5391 18.8027 -21.9092 36.9717 -21.9092c21.25 0 48.75 3 48.75 21c16.25 13 23.75 25 26.25 25
c15 0 22.5 -8.25 22.5 -11c0 -28 -42.5 -53 -83.75 -53c-48.75 0 -68.75 22 -72.5 28c-1.70605 3.60352 -3.68164 5.18652 -5.41406 5.18652c-2.46582 0 -4.43945 -3.21191 -4.43945 -8.36328c0 -2.26758 0.381836 -4.91113 1.27344 -7.82324
c-36.0674 -53.333 -65.1699 -108.5 -90.1699 -160c-3.75 -19 -10 -36 -20 -52c-3.75 -4 -8.75 -6 -13.75 -6c-10 0 -31.25 4 -31.25 13c0 14 10 20 25 49c21.1729 47.1436 60 109 83.75 149z" />
    <glyph glyph-name=".notdef" horiz-adv-x="415" 
 />
    <glyph glyph-name=".notdef" horiz-adv-x="415" 
 />
    <glyph glyph-name="space" unicode=" " horiz-adv-x="375" 
 />
    <glyph glyph-name="exclam" unicode="!" horiz-adv-x="267" 
d="M86.25 42c12.5 0 25 -11 25 -21c0 -24 -21.25 -27 -33.75 -27c-20 0 -25 4 -27.5 10c0 37 23.75 38 36.25 38zM241.25 595c0 -17 -115 -385 -115 -420c0 -2 -1.25 -3 -5 -3c-7.5 0 -22.5 7 -22.5 11c2.5 17 70 288 70 383c0 12 -1.25 21 -2.5 29c25 0 36.25 -5 50 -5
c6.25 0 16.25 2 25 5z" />
    <glyph glyph-name="quotedbl" unicode="&#x22;" horiz-adv-x="342" 
d="M283.75 585c25 20 46.25 39 56.25 39c13.75 0 22.5 -12 27.5 -26v-6c0 -27 -43.75 -60 -57.5 -72c-12.5 -9 -31.25 -20 -47.5 -31c18.75 24 32.5 37 43.75 52c5 8 7.5 14 7.5 20c0 19 -17.5 22 -30 24zM173.75 585c25 20 46.25 39 56.25 39c12.5 0 22.5 -12 27.5 -26v-6
c0 -27 -43.75 -60 -57.5 -72c-12.5 -9 -31.25 -20 -47.5 -31c18.75 24 32.5 37 43.75 52c3.75 8 7.5 14 7.5 20c0 19 -17.5 22 -30 24z" />
    <glyph glyph-name="numbersign" unicode="#" horiz-adv-x="822" 
d="M168.477 195.674c0 0 -0.978516 -18.1748 -2.99219 -26.6836c-13.7578 0.791016 -25.5273 1.17871 -35.7363 1.17871c-32.2119 0 -48.8916 -3.86719 -63.499 -11.1699c-16.25 20 -12.5 21 -17.5 34c17.4883 2.79785 33.1113 4.83008 60.3369 4.83008
c15.3213 0 34.3184 -0.642578 59.3906 -2.15527zM253.987 388.77l-36.1191 -0.226562c4.95703 38.6924 9.16797 68.6133 13.3789 69.4551c11.25 2 16.25 -1 35 5c-3.08691 -13.1748 -7.87109 -41.2686 -12.2598 -74.2285zM228.748 162
c-1.25098 -12.002 -3.75098 -43.002 -3.75098 -53.002c0 -18 0 -53 2.5 -59c-25 -13 -31.25 -14 -48.75 -19c0 27 0.302734 33.0977 6.25 67c3.33398 19 8.75 53 10.0039 68.002c3.19434 23.8574 12.2949 106.11 15.7578 149.128l34.3242 0.186523
c-5.11523 -51.8076 -14.166 -142.035 -16.335 -153.314zM261.042 159.727c0 0 0.620117 12.6045 2.79004 26.998c35.5107 -2.25098 96.0039 -5.30762 146.465 -5.30762c66.0645 0 120.127 9.68164 132.199 16.5811c16.25 -20 17.5 -23 23.75 -36
c-26.3105 -3.82715 -40.1934 -7.86426 -134.114 -7.86426c-69.7383 0 -134.158 3.26758 -171.09 5.59277zM429.996 132.356v-15.3594c0 -18 3.75 -54 6.25 -59c-25 -13 -28.75 -14 -45 -19c0 27 3.75 27 3.75 67c0 2.36133 0 14.4805 0.257812 27.3066
c14.7422 -0.305664 34.7422 -0.947266 34.7422 -0.947266zM466.52 327.323c0 0 0.977539 18.1738 2.99121 26.6826c17.5518 -1.00879 37.1309 -1.00879 44.2363 -1.00879c28.75 0 60 8 70 13c16.25 -20 17.5 -23 22.5 -36c-12.5 -2 -43.75 -5 -62.5 -5
c-9.94531 0 -47.3535 0.523438 -77.2275 2.32617zM437.497 329.997c-1.05566 -6.76172 -3.00684 -73.5469 -5.09375 -121.831c-11.252 -3 -22.5039 -2.57227 -33.7559 -2.74805c2.37988 49.8799 6.97461 125.079 10.0996 154.579c7.01758 66.2461 12.5 97 22.5 99
c11.25 1 18.75 1 35 4c-11.25 -37 -26.25 -70 -28.75 -133zM376.974 334.955c-34.415 2.08203 -59.2158 2.24121 -103.228 3.04102c-123 0 -110.223 -1.05078 -153.75 -11c-7.5 1 -20 17 -30 27c30.624 10.3164 69.4062 12.8291 173.518 12.8291
c80.4541 0 74.3193 -0.587891 115.937 -4.35742c-1.95312 -14.4707 -2.47656 -27.5127 -2.47656 -27.5127z" />
    <glyph glyph-name="dollar" unicode="$" horiz-adv-x="433" 
d="M333.736 458.217c-7.05762 0.53125 -13.3574 0.779297 -19.8662 0.779297c-3.08301 0 -6.21387 -0.0556641 -9.49512 -0.163086l5.625 34.167l31.25 3zM247.066 258.342c-49.9951 35.04 -105.816 75.3145 -105.816 108.658c0 40 65 76 156.25 76
c123.567 0 155 -56.0498 155 -81c0 -16 -15 -28 -28.75 -28c-10 0 -20 0 -21.25 8c0 4 15 6 15 26c0 52 -66.459 65 -120 65c-62.5127 0 -118.75 -37 -118.75 -60c0 -25.2793 48.2529 -61.5127 75.0566 -79.6895zM229.469 64.7207l41.7803 217.279l25.709 135.028
c2.62988 0.135742 5.24609 0.211914 7.85449 0.211914c6.40625 0 12.7676 -0.452148 19.168 -1.55176c-20.043 -89.499 -19.3203 -82.2363 -37.7305 -187.688l-28.5166 -163.348zM226.249 48l28.75 0.999023c98.75 12 107.5 78 107.5 100
c0 28.4561 -13.5088 37.2354 -58.3311 68l6.56738 37.7891c43.5078 -26.3096 96.7637 -57.4883 96.7637 -125.788c0 -73 -80 -89 -153.751 -91.0049l-28.749 0.00488281c-113.75 5 -171.25 59 -171.25 101c0 24 28.75 32 50 32c72.5 0 102.5 -60 103.75 -64
c-5 -7 -13.75 -9 -21.25 -9c-6.25 0 -12.5 2 -15 3c-2.5 5 -8.75 61 -63.75 61c-15 0 -25 -6 -25 -24c0 -71 86.25 -89 143.75 -90zM250.235 21.9668l-12.7363 -66.9678l-28.75 -1l12.8555 68.3408z" />
    <glyph glyph-name="percent" unicode="%" horiz-adv-x="575" 
d="M348.75 62c0 -24 26.25 -45 56.25 -45c31.25 0 56.25 21 56.25 45c0 25 -25 45 -56.25 45c-30 0 -56.25 -20 -56.25 -45zM320 64c0 36 36.25 65 81.25 65s81.25 -29 81.25 -65s-36.25 -65 -81.25 -65s-81.25 29 -81.25 65zM103.75 398c0 -25 25 -45 56.25 -45
c30 0 56.25 20 56.25 45c0 24 -26.25 45 -56.25 45c-31.25 0 -56.25 -21 -56.25 -45zM73.75 400c0 36 36.25 65 81.25 65s81.25 -29 81.25 -65s-36.25 -65 -81.25 -65s-81.25 29 -81.25 65zM480 465l42.5 -27l-435 -441l-42.5 27c236.25 203 185 149 435 441z" />
    <glyph glyph-name="ampersand" unicode="&#x26;" horiz-adv-x="560" 
d="M406.097 127.773c-33.335 42.8574 -113.177 143.919 -132.346 166.225c-20 27 -33.75 60 -33.75 89c0 45 28.75 82 113.75 82c52.5 0 85 -38 85 -66c0 -27.9277 -26.165 -52.5215 -96.1602 -103.243l-24.2031 29.1973c32.7207 22.3232 75.3623 51.6377 75.3623 78.0479
c0 14 -11.25 48 -40 48c-57.5 0 -76.25 -31 -76.25 -64c0 -27 11.6934 -55.7754 25 -73l126.628 -163.925zM417.501 112.997l91.25 92.999l15 -12l-93.75 -96c-61.25 -63 -112.5 -98 -200 -98c-76.25 0 -162.5 59 -162.5 106c0 73.9141 132.188 140.334 191.41 177.983
l24.1113 -31.0127c-93.3154 -64.5703 -161.771 -97.332 -161.771 -139.97c0 -51 65 -99 111.25 -99h1.25c83.75 1 147.5 64 183.75 99zM441.79 83.3252l23.1133 23.2773l83.8477 -106.606h-40z" />
    <glyph glyph-name="quotesingle" unicode="'" horiz-adv-x="232" 
d="M198.75 585c25 20 46.25 39 56.25 39c12.5 0 22.5 -12 27.5 -26v-6c0 -27 -43.75 -60 -57.5 -72c-12.5 -9 -31.25 -20 -47.5 -31c18.75 24 32.5 37 43.75 52c3.75 8 7.5 14 7.5 20c0 19 -17.5 22 -30 24z" />
    <glyph glyph-name="parenleft" unicode="(" horiz-adv-x="303" 
d="M287.5 -97h-7.5c-85 0 -113.75 13 -143.75 28c-90 47 -102.5 116 -102.5 160c0 141 65 312 97.5 355c61.25 78 175 117 253.75 117c8.75 0 21.25 -2 46.25 -5c-62.5 -4 -87.5 -1 -175 -53c-113.75 -67 -175 -295 -175 -425c0 -52 13.75 -126 117.5 -161
c33.75 -11 48.75 -11 88.75 -16z" />
    <glyph glyph-name="parenright" unicode=")" horiz-adv-x="501" 
d="M22.5 -97c42.5 5 57.5 7 97.5 18c107.5 30 163.75 82 207.5 174c77.5 157 81.25 296 81.25 319c0 145 -153.75 140 -185 146c27.5 3 40 3 48.75 3c85 0 195 -46 195 -144c0 -54 -12.5 -171 -82.5 -317c-21.25 -43 -67.5 -125 -192.5 -176
c-59 -23.5996 -123.75 -22 -170 -23z" />
    <glyph glyph-name="asterisk" unicode="*" horiz-adv-x="443" 
d="M211.25 139v21c0 16 0 34 1.25 54l-103.75 -42c-2.5 5 -5 10 -10 22l93.75 40l-87.5 49c6.25 4 10 9 23.75 17l81.25 -47c0 39 -2.5 45 -10 83c11.25 -1 26.25 -4 35 -5c2.5 -41 3.75 -52 5 -75c37.5 17 58.75 25 92.5 48c3.75 -8 10 -20 12.5 -27
c-32.5 -18 -55 -27 -98.75 -46c36.25 -22 56.25 -31 96.25 -47c-7.5 -6 -20 -14 -26.25 -19c-53.75 27 -32.5 13 -75 39v-69c-7.5 1 -15 1 -30 4z" />
    <glyph glyph-name="plus" unicode="+" horiz-adv-x="452" 
d="M224.562 272.5c6.06934 30.1494 11.5283 64.0312 19.1885 98.5c1.25 4 30 7 42.5 13l-25.249 -111.5h-36.4395zM248.75 217c-41.25 0 -125 2 -173.75 2c-5 0 -2.5 19 -12.5 28c37.5 -1 100 -1 156.25 -1h67.5c46.25 0 87.5 0 136.25 7c7.5 -7 16.25 -25 20 -33
c-48.75 -3 -75 -4 -95 -4c-18.75 0 -53.75 1 -98.75 1zM243.925 187.858c-2.27344 -14.6445 -3.09863 -21.9072 -3.9248 -27.8584c0 -2 -8.75 -56 -8.75 -69c-10 -4 -33.75 -9 -45 -9c5 39 9.71973 58.2744 11.5615 73.5c0.938477 7.75 3.97949 20.0859 7.4043 34.1934
c6.3457 -0.193359 38.709 -1.83496 38.709 -1.83496z" />
    <glyph glyph-name="comma" unicode="," horiz-adv-x="216" 
d="M97.5 51c12.5 0 27.5 -15 27.5 -32c0 -16 -15 -32 -26.25 -44c-26.25 -28 -63.75 -50 -78.75 -59l-1.0293 2c27.2793 33 51.0293 49.3936 51.0293 70c0 19 -17.5 22 -30 24c37.5 29 48.75 39 57.5 39z" />
    <glyph glyph-name="hyphen" unicode="-" horiz-adv-x="480" 
d="M98.75 247c57.5 -1 176.25 -1 216.25 -1c46.25 0 87.5 0 137.5 7c-2.5 -10 -6.25 -25 -8.75 -33c-48.75 -3 -75 -4 -95 -4c-37.5 0 -132.5 3 -256.25 3c0 6 1.25 13 6.25 28z" />
    <glyph glyph-name="period" unicode="." horiz-adv-x="216" 
d="M98.75 42c12.5 0 25 -11 25 -21c0 -24 -21.25 -27 -33.75 -27c-20 0 -25 4 -27.5 10c0 37 23.75 38 36.25 38z" />
    <glyph glyph-name="slash" unicode="/" horiz-adv-x="540" 
d="M603.75 551l42.5 -27l-580 -563l-41.25 27c235 203 328.75 271 578.75 563z" />
    <glyph glyph-name="zero" unicode="0" horiz-adv-x="555" 
d="M287.5 0c-82.5 0 -214.999 41.998 -214.999 154.998c0 181 121.25 320 263.75 320c83.75 0 136.25 -50 136.25 -82c0 -8 -2.5 -43 -15 -49c-23.75 23 -23.75 38 -27.5 53c0 61 -57.5 63 -80 63c-141.25 0 -236.25 -162 -236.25 -334c0 -88 108.75 -114 165 -114
c105.969 0 217.55 152.617 217.55 296.185c0 13.5361 -0.904297 22.9541 -7.55078 34.8164c-2.53613 4.52734 -3.36719 8.22656 -3.36719 11.751c0 6.69336 2.99707 12.7588 2.99707 22.6777c0 1.58691 -0.0771484 3.27051 -0.254883 5.07227
c17.709 -16.167 45.625 -28.5 45.625 -95.5c0 -86 -55 -287 -246.25 -287z" />
    <glyph glyph-name="one" unicode="1" horiz-adv-x="280" 
d="M161.046 217.509l49.0996 34.498c-30.5039 -110.998 -42.6455 -172.54 -42.6455 -212.007c0 -12 1.25 -25 6.25 -37c-10 -2 -20 -2 -28.75 -2c-12.5 0 -17.5 1 -40 1c2.90723 71.3135 38.8604 167.87 56.0459 215.509zM216.25 274
c-66.875 -44.75 -78.8975 -62.6816 -143.75 -99c30 32 105 122 111.25 130c10.0283 9.62793 37.4639 66.4561 71.25 150c5 19 16.25 21 25 21c11.25 0 18.75 -7 18.75 -16v-1c0 -5 -28.1934 -148.661 -82.5 -185z" />
    <glyph glyph-name="two" unicode="2" horiz-adv-x="642" 
d="M362.497 117.002c-21.6631 14.998 -89.3096 45.998 -136.248 45.998c-103.75 0 -130 -32 -130 -82c0 -32 15 -67 71.25 -67c52.1152 0 118.929 70.3564 151.25 108.333c11.9805 -5.00781 21.165 -11.6963 31.0732 -17.9482
c-95.4102 -93.2803 -145.08 -103.385 -179.822 -103.385c-90 0 -106.25 50 -106.25 81c0 55 53.75 93 157.5 93c30.751 0 77.8389 -7.71484 153.754 -44c97.4961 -52 64.9961 -81 91.2461 -81c36.25 0 91.25 57 123.75 57c20 0 27.5 -23 27.5 -23c0 -1 -1.25 -4 -2.5 -4
c-65 -12 -126.25 -74 -157.5 -74c-23.75 0 -45 19 -45 37c0 17 -6.25 44 -50.0029 74.002zM387.617 143.427c-11.8467 6.68262 -23.8311 13.0537 -36.7754 17.2422c102.309 104.719 207.908 211.001 207.908 249.331c0 36 -72.5 40 -101.25 40
c-102.5 0 -142.5 -36 -152.5 -47c-22.5 -25 -10 -39 -22.5 -67c-5 -5 -10 -10 -16.25 -10c-11.25 0 -32.5 0 -32.5 8c0 0 5 49 50 81c30 20 56.25 50 185 50c91.25 0 136.25 -37 136.25 -66c0 -51.6553 -164.253 -204.326 -217.383 -255.573z" />
    <glyph glyph-name="three" unicode="3" horiz-adv-x="580" 
d="M444.997 249.335c0 0 3.69629 8.63477 8.48438 11.9658c87.1689 -28.1797 116.519 -68.2246 116.519 -110.301c0 -64 -80 -150 -250 -150c-145 0 -247.5 59 -247.5 148c0 42 26.25 55 42.5 55c22.5 0 26.25 -8 26.25 -10c-1.25 -7 -26.25 -12 -26.25 -58
c0 -54 58.75 -122 172.5 -122s227.5 74 227.5 149c0 32.3613 -16.6846 62.6914 -70.0029 86.335zM430.001 268.999c-3.75195 -1.83301 -6.25098 -7.83203 -8.75098 -9.99902c-7.5 -6 -20 -8 -30 -8c-33.75 0 -40 16 -40 24v2c3.75 29 131.25 0 131.25 91
c0 43 -37.5 85 -105 85c-73.75 0 -112.5 -38 -112.5 -64s43.75 -20 43.75 -29c0 -5 -7.5 -8 -15 -8c-37.5 0 -63.75 18 -63.75 39c0 44 93.75 74 158.75 74c87.5 0 138.75 -52 138.75 -103c0 -61 -58.75 -80 -97.499 -93.001z" />
    <glyph glyph-name="four" unicode="4" horiz-adv-x="576" 
d="M462.923 184.646l-51.9824 0.21875c23.541 89.8672 47.4971 183.755 61.5605 223.135c-118.75 -75 -231.25 -165 -357.5 -230c18.5947 -4.64941 151.231 -11 291.249 -11h92.5c26.25 0 55 8 55 21c0 7 -6.25 8 -13.75 8c-12.5 0 -16.25 -2 -27.5 -2
c-6.25 0 -8.75 1 -8.75 5c0 6 8.75 23 23.75 23c28.75 0 42.5 -20 42.5 -33c0 -19 -10 -47 -76.25 -47c-117.754 0 -353.305 5.46973 -392.5 7c-17.5 1 -28.75 13 -28.75 22c0 3 1.25 6 5 7c162.5 83 242.5 164 392.5 260c26.25 16 5 38 46.25 47c6.25 0 30 -4 30 -21
c-42.2129 -102.248 -62.2764 -190.298 -83.3271 -279.354zM449.688 124.608c-9.69727 -39.3623 -19.0127 -77.3281 -32.1875 -118.608c-1.25 -5 -2.5 -6 -11.25 -6h-45h-5c10.2637 20.0723 24.6904 66.6152 40.4316 124.919z" />
    <glyph glyph-name="five" unicode="5" horiz-adv-x="626" 
d="M175.832 275.655c0 0 1.66797 14.3457 4.94922 24.7207c37.8936 23.8047 85.9229 32.625 137.969 32.625c116.25 0 241.25 -80 241.25 -173c0 -59 -71.25 -160 -251.25 -160c-131.25 0 -236.25 55 -236.25 136v1c0 7 0 20 27.5 20c11.25 0 25 -3 25 -9
c0 -5 -8.75 -13 -8.75 -31c0 -72 92.5 -103 177.5 -103c166.25 0 212.5 104 212.5 148c0 81 -95 156 -191.25 156c-50.9551 0 -97.582 -16.6094 -139.168 -42.3457zM158.75 284.001c-2.03125 -13 -2.49902 -23.248 -7.49902 -24.998c-11.25 -3 -22.5 -3 -38.75 -3
c18.75 60 63.75 142 63.75 175c0 1.79395 -0.322266 4.23047 -0.735352 7.08105l36.4854 -13.6475c-16.8223 -51.0264 -51.8447 -126.436 -53.251 -140.436zM215.626 437.169c-7.29102 4.00098 -41.876 16.334 -41.876 18.834c0 12 6.25 30 25 30
c16.25 0 26.25 -11 26.25 -13c-7.26855 -1.03613 -9.93652 -3.26758 -9.93652 -5.73926c0 -2.50098 2.73047 -5.25 6.1875 -7.26074c0 0 66.25 -48 121.25 -48c130 0 235 77 270 77c7.5 0 11.25 -4 11.25 -14c0 -30.2129 -75.0967 -83 -266.25 -83
c-58.75 0 -101.885 24.168 -141.875 45.166z" />
    <glyph glyph-name="six" unicode="6" horiz-adv-x="633" 
d="M173.746 255.333c53.9844 46.1377 116.021 65.667 185.003 65.667c107.5 0 198.75 -62 198.75 -153c0 -138 -172.5 -168 -271.25 -168c-92.5 0 -213.75 26 -213.75 131c0 89 48.75 216 75 250c22.5 33 66.25 99 258.75 99c81.25 0 202.5 -30 202.5 -106
c0 -29 -30 -46 -46.25 -46c-12.5 0 -27.5 4 -27.5 11c2.5 6 30 10 30 50c0 52 -82.5 77 -155 77c-60 0 -130 -18 -167.5 -46c-60 -46 -90 -150 -100 -187c-9.8916 -35.7607 -15 -61.7061 -15 -92c0 -90 71.25 -127 146.25 -127c63.75 0 231.25 26 231.25 164
c0 71 -55 125 -147.5 125c-64.5576 0 -145.982 -31.4912 -192.607 -79.9893c3.44238 15.3223 8.85449 32.3223 8.85449 32.3223z" />
    <glyph glyph-name="seven" unicode="7" horiz-adv-x="445" 
d="M410.312 393.75c-12.7354 -2.34961 -15.7412 -3.75 -26.5625 -3.75c-88.75 0 -125 66 -218.75 66c-48.75 0 -61.25 -27 -61.25 -55c0 -21 8.75 -44 22.5 -44c5 0 6.25 3 6.25 8c0 4 -1.25 9 -1.25 16c0 5 1.25 7 5 7c5 0 25 -10 25 -18c0 -3 -5 -20 -31.25 -20
c-23.75 0 -57.5 26 -57.5 57c0 33 30 65 85 65c116.25 0 150 -65 236.25 -65c12.2939 0 24.5859 1.49219 37.084 4.9668c-2.08398 -4.9668 -20.5215 -18.2168 -20.5215 -18.2168zM443.75 399c29.375 26.5 31.25 62 61.25 69c6.25 0 30 -8 30 -15
c-2.5 -12 -18.75 -20 -27.5 -28c-11.25 -11 -18.75 -25 -38.75 -42c-197.5 -155 -265 -286 -265 -357c0 -15 0.0478516 -13.333 0.0478516 -16.666c0 -9.29102 -1.58691 -9.33398 -23.1826 -9.33398h-0.615234h-45c72.5 230 191.25 312 308.75 399z" />
    <glyph glyph-name="eight" unicode="8" horiz-adv-x="572" 
d="M440.835 266.499c47.9336 -16.1006 109.166 -47.5273 109.166 -102.499c0 -68 -83.75 -164 -261.25 -164c-136.25 0 -216.25 66 -216.25 145c0 113.935 241.74 128.529 292.5 143.999c68.75 19 122.5 47 122.5 85c0 45 -58.75 87 -118.75 87
c-57.5 0 -107.082 -47.6641 -107.082 -78.6641c0 -25.7236 18.8018 -51.9297 78.4111 -81.8545c0 0 -15.8604 -5.29297 -23.8975 -6.49121c-40.7393 17.3906 -89.9326 49.6514 -89.9326 89.0098c0 39 80 94 148.75 94c75 0 152.5 -51 152.5 -108
c0 -46.6699 -83.0322 -89.0293 -146.258 -99.9971c-244.992 -39.0029 -271.242 -86.0029 -271.242 -143.003c0 -73 77.5 -111 162.5 -111c143.75 0 222.5 98 222.5 156c0 44.1533 -46.9023 72.0654 -83.0811 87.0889c21.8311 3.41211 28.916 8.41113 28.916 8.41113z" />
    <glyph glyph-name="nine" unicode="9" horiz-adv-x="595" 
d="M509.994 253.996c4.17188 20.3369 13.7549 69.8037 13.7549 102.004c0 100 -92.5 104 -138.75 104c-138.75 0 -198.75 -53 -198.75 -132c0 -56 27.5 -118 123.75 -118c48.2646 0 137.433 16.8721 184.332 67.7988c-3.49805 -21.2988 -8.62988 -38.0225 -8.62988 -38.0225
c-50.4199 -27.874 -112.264 -42.7764 -169.451 -42.7764c-130 0 -175 85 -175 141c0 85 98.75 142 237.5 142c150 0 198.75 -66 198.75 -128c0 -92 -35 -352 -312.5 -352c-38.75 0 -192.5 17 -192.5 133c0 42 33.75 50 42.5 50c26.25 0 27.5 -15 27.5 -18
c-1.25 -5 -23.75 -8 -23.75 -58c0 -62 77.5 -88 133.75 -88c205 0 235.628 140.172 257.494 234.996z" />
    <glyph glyph-name="colon" unicode=":" horiz-adv-x="216" 
d="M100 287c12.5 0 25 -11 25 -21c0 -24 -21.25 -27 -33.75 -27c-20 0 -25 4 -27.5 10c0 37 23.75 38 36.25 38zM98.75 42c12.5 0 25 -11 25 -21c0 -24 -21.25 -27 -33.75 -27c-20 0 -25 4 -27.5 10c0 37 23.75 38 36.25 38z" />
    <glyph glyph-name="semicolon" unicode=";" horiz-adv-x="216" 
d="M100 287c12.5 0 25 -11 25 -21c0 -24 -21.25 -27 -33.75 -27c-20 0 -25 4 -27.5 10c0 37 23.75 38 36.25 38zM97.5 51c12.5 0 27.5 -15 27.5 -32c0 -16 -15 -32 -26.25 -44c-26.25 -28 -63.75 -50 -78.75 -59l-1.0293 2c27.2793 33 51.0293 49.3936 51.0293 70
c0 19 -17.5 22 -30 24c37.5 29 48.75 39 57.5 39z" />
    <glyph glyph-name="less" unicode="&#x3c;" horiz-adv-x="331" 
d="M89.8691 258.471l183.881 -238.471l-46.25 -23c-58.9141 92.665 -116.502 180.328 -164.582 248.001zM44.6338 268.569l-17.1348 23.4307l250 124l27.5 -38c-106.298 -41.3701 -179.855 -73.5107 -260.365 -109.431zM61.5889 244.897z" />
    <glyph glyph-name="equal" unicode="=" horiz-adv-x="467" 
d="M27.5 204c56.25 -1 192.5 -2 233.75 -2c46.25 0 87.5 1 136.25 8c7.5 -7 16.25 -25 20 -34c-48.75 -3 -75 -3 -95 -3c-38.75 0 -148.75 2 -272.5 2c-5 0 -12.5 20 -22.5 29zM45 290c57.5 0 193.75 -1 233.75 -1c46.25 0 87.5 1 137.5 8c6.25 -7 16.25 -25 18.75 -34
c-48.75 -3 -75 -4 -95 -4c-37.5 0 -148.75 3 -272.5 3c-3.75 0 -12.5 20 -22.5 28z" />
    <glyph glyph-name="greater" unicode="&#x3e;" horiz-adv-x="360" 
d="M273.915 265.071c-51.2627 36.4463 -110.352 75.6543 -178.915 120.929l25 31l179.09 -130.893zM322.142 267.995l20.3584 -15.9961c-71.25 -60 -172.5 -152 -276.25 -252l-38.75 30z" />
    <glyph glyph-name="question" unicode="?" horiz-adv-x="461" 
d="M125 42c12.5 0 25 -11 25 -21c0 -24 -21.25 -27 -33.75 -27c-20 0 -25 4 -27.5 10c0 37 23.75 38 36.25 38zM171.25 175c0 -2 -3.75 -3 -10 -3c-17.5 0 -55 7 -55 11c2.5 16 5 52 45 88c13.75 14 85 41 113.75 52c71.25 29 115 85 115 115
c0 126.616 -94.3535 142.976 -152.95 142.976c-74.1748 0 -122.049 -32.5762 -122.049 -76.9756c0 -30 56.25 -31 56.25 -39c0 -2 -12.5 -8 -21.25 -8c-6.25 0 -16.25 2 -32.5 6c-26.25 7 -42.5 21 -42.5 41c9.64258 69.4229 74.5205 89.1963 154.478 89.1963
c99.2168 0 216.771 -22.8281 216.771 -155.196c0 -79 -91.25 -116 -138.75 -132c-85 -29 -140 -43 -140 -72c0 -19 12.5 -42 13.75 -59z" />
    <glyph glyph-name="at" unicode="@" horiz-adv-x="596" 
d="M295 378c-143.75 0 -232.5 -79 -232.5 -211c0 -121 101.25 -199 236.25 -199c126.25 0 188.75 50 236.25 103h2.5s-53.75 -113 -238.75 -113c-145 0 -266.25 84 -266.25 210c0 127 110 220 261.25 220c146.25 0 271.25 -71 271.25 -204c0 -45 -48.75 -117 -168.75 -117
c-22.5 0 -50 10 -50 40v2c-11.25 -10 -15 -17 -32.5 -25c-13.75 -6 -37.5 -14 -57.5 -14c-78.75 0 -91.25 53 -91.25 79c0 57 65 128 160 128c33.75 0 66.25 -18 66.25 -26c0 0 10 13 25 13c3.75 0 15 -3 15 -15l-43.75 -94c-5 -11 -20 -37 -20 -56s18.75 -22 35 -22
c37.5 0 130 28 130 110c0 92 -55 191 -237.5 191zM370 227c0 28 -18.75 43 -41.25 43c-58.75 0 -125 -79 -125 -128c0 -51 26.25 -67 42.5 -67c18.75 1 33.75 4 53.75 16c25 15 40 36 55 63c11.25 21 12.5 40 15 73z" />
    <glyph glyph-name="A" unicode="A" horiz-adv-x="1045" 
d="M910.625 37.75c2.5 6.75 3.71973 13.5254 4.75977 20.1123c12.7461 -22.1787 21.8838 -48.8623 48.3652 -48.8623c22.1709 0 35 7 67.5 54l1.25 -1c-25 -52 -48.75 -62 -71.25 -62c-27.2705 -0 -41.0234 20.3379 -50.625 37.75zM856.25 87
c-0.00488281 55.8818 -12.0381 112.301 -19.1035 139.707c11.7783 -3.44629 23.4775 -6.92676 39.2979 -8.70801c9.81836 -38.2197 22.3057 -79.3877 22.3057 -138.998c-0.416016 -5.66699 -1.04102 -11.5 -2.50098 -18.0029
c-8.74902 -28.9971 -17.499 -60.9971 -89.999 -60.9971c-65 0 -91.25 28 -91.25 59c0 24 15 62 78.75 62c12.0137 0 27.5615 -0.943359 42.6016 -6.06348l0.238281 -16.9229c-9.40234 3.90332 -19.667 6.41602 -30.3398 6.98535c-51.5547 0 -58.75 -39.9512 -58.75 -53
c0 -19 15 -40 56.25 -40c51.25 0 51.25 64 52.5 75zM825.624 457.502c-6.875 -28.5 -13.125 -50.5 -16.875 -90l-75.0039 -83.5c-224.996 -248 -306.246 -284 -424.996 -284c-213.75 0 -255 80 -255 127c0 28 22.5 60 82.5 60c42.5 0 88.75 -17 110 -65
c3.75 -8 8.75 -22 8.75 -29c-6.25 -8 -17.5 -10 -27.5 -10c-8.75 0 -17.5 2 -21.25 6v29c0 39 -26.25 58 -62.5 58s-50 -37 -50 -67c0 -79 128.75 -98 183.75 -98c120.841 0 151.645 16.3223 430 302c22.6729 23.6582 75.3867 88.002 118.125 144.5zM833.749 386.002
c8.75 47.5 13.125 81.499 28.75 121.999c14.375 39 18.75 54 38.75 75c11.25 8 23.75 12 35 12c26.25 0 50 -16 50 -34c0 -22 -76.25 -119 -76.25 -119c-32.5 -44 -41.25 -103 -41.25 -148c0 -11.1816 0.391602 -21.4258 1.17285 -30.3828
c-13.9238 2.62305 -27.9854 5.94531 -42.4531 11.3154c-0.813477 8.86914 -1.21973 18.8066 -1.21973 29.0684c0 31 3.75 66 7.5 82zM829.999 257.003c13.125 -4.50195 47.4111 -15.002 73.75 -15.002c72.5 0 35 58 78.75 58c13.75 0 23.75 -12 23.75 -26
c0 -20 -25 -47 -76.25 -47c-22.626 0 -68.6172 7.53027 -97.5 16c-26.7939 8.24414 -55.2861 19.207 -81.9746 32.3291l9.55664 10.4277c22.0439 -10.7266 42.7383 -19.0928 69.918 -28.7549zM297.499 368.001c0 50 49.999 67 103.749 67
c98.4863 0 224.644 -76.8838 289.6 -112.982l-10.0078 -10.917c-72.9922 43.2549 -205.002 109.899 -255.841 109.899c-43.75 -1 -85 -25 -85 -61c0 -111 87.5 -112 121.25 -112c16.25 2 8.75 13 12.5 20c3.75 2 8.75 2 13.75 2c10 0 40 -14 40 -21
c0 -12 -18.75 -19 -40 -19c-117.5 0 -190 74 -190 138z" />
    <glyph glyph-name="B" unicode="B" horiz-adv-x="1200" 
d="M893.247 551.706l43.3545 -0.65332c4.38672 -4.39648 8.30273 -9.93262 10.8994 -17.0527c-83.75 -192 -103.068 -212.756 -132.082 -257c-13.334 -20.333 -112.918 -157 -190.418 -213c-96.25 -62 -126.25 -64 -206.25 -64c-168.75 0 -240 77 -240 134
c0 22 13.75 57 76.25 57c113.75 0 123.75 -71 123.75 -89c0 -11 -17.5 -14 -26.25 -14c-21.25 0 -22.5 7 -22.5 13v22c0 25 -22.5 59 -67.5 59c-27.5 0 -46.25 -12 -46.25 -51c0 -102 151.25 -117 186.25 -117c63.75 0 122.5 13 215 97c62.5 58 122.5 148 148.75 185
c68.7139 100.029 101.897 195.998 126.996 255.706zM901.252 570.001c-51.5625 -6 -93.749 -11 -131.249 -11c-185 0 -387.5 125 -526.25 125c-70 0 -95 -30 -95 -61c0 -61 48.75 -107 143.75 -152c50 -20 105 -32 135 -32c50 0 61.25 23 108.75 35
c31.25 0 66.25 -1 98.75 -24c-13.75 -14 -80 -26 -160 -26c-93.75 0 -173.75 23 -232.5 52c-111.25 55 -133.75 130 -133.75 150c0 44 33.75 78 125 78c167.5 0 380 -128 526.25 -128c82.5 0 103.75 20 173.75 20c141.25 0 198.75 -125 198.75 -194
c-1.0498 -36.166 -25.9795 -75.8682 -49.4893 -98.8799c-15.75 8.47852 -32.4004 16.0156 -49.8105 22.7598c37.4902 37.1377 40.5498 73.4688 40.5498 86.1201c0 36 -20 103 -67.5 135c-26.1074 16.3457 -49.3818 23.208 -91.583 23.208
c-4.27246 0 -8.73633 -0.0703125 -13.418 -0.208008zM1070 292.001c68.75 -33 105.001 -108 105.001 -175c0 -39 -20 -117 -170 -117c-31.25 0 -73.75 12 -100 27c-37.5 22 -68.75 70 -68.75 76s5 9 13.75 9c7.5 0 18.75 -2 31.25 -7c26.25 -15 17.5 -92 126.25 -92
c32.5 0 110 2 113.75 107c0 90 -57.5 132 -83.75 149.997c-14.5801 9.66992 -75 28.0029 -93.75 28.0029c-41.25 0 -51.25 -5 -53.75 -14c5.86914 -2.34766 14.9834 -7.08105 28.6592 -7.08105c8.07227 0 17.7344 1.65039 29.2559 6.41309
c25.835 -4.83203 49.0811 -14.1924 70.3652 -23.5996c-28.6201 -13.1553 -62.0205 -19.7334 -99.5303 -19.7334c-34.0732 0 -59.9834 8.70801 -87.0049 26.123c14.5068 19.9482 26.6201 40.6201 38.2529 61.4365c15.207 4.29395 32.5586 6.44141 51.251 6.44141
c32.5 0 67.5 -7 98.75 -20c14.0605 -6 35 -14.5 50 -22z" />
    <glyph glyph-name="C" unicode="C" horiz-adv-x="671" 
d="M246.075 333.715c-42.1797 -6.92188 -105.206 -15.3711 -173.575 -17.7148v1.69531c65.6035 6.49805 109.421 11.4609 192.5 41.3047zM448.75 433l85 49c46.0996 25.1758 121.25 68 128.75 76c-15 -3 -91.168 -20.0898 -165 -63
c-37.1709 -21.6025 -87.916 -70.333 -154.999 -141.998c-23.8311 -25.46 -93.751 -127.002 -93.751 -185.002c0 -76 65 -150 233.75 -150c88.75 0 111.25 42 111.25 73c0 35 -18.75 61 -46.25 61c-8.75 0 -12.5 -1 -15 -1c-1.25 0 -1.25 1 -1.25 2c0 4 8.75 12 31.25 12
c38.75 0 87.5 -31 87.5 -79c0 -31 -26.25 -86 -167.5 -86c-187.553 0 -291.25 94.2002 -291.25 157c0 73 57.5 150 85.001 182.003c65.7832 76.5498 103.794 126.491 194.999 179.997c100.199 58.7832 166.25 76 203.75 76c23.75 0 36.25 -6 36.25 -21v-5
c0 -11 -10.4316 -19.4873 -153.75 -97l-149.37 -79.2656c11.9873 13.8066 21.2803 23.8779 40.6201 40.2656z" />
    <glyph glyph-name="D" unicode="D" horiz-adv-x="1028" 
d="M579.994 117.922l-6.32422 -14.7217c-76.2148 52.9287 -76.8389 53.7998 -86.1699 53.7998c-15 0 -23.75 -16 -23.75 -34c0 -13 13.75 -110 67.5 -110c28.75 0 47.084 52 66.2461 93.0029c43.7539 87.9971 171.254 373.997 181.254 459.997c21.25 -1 48.75 -8 48.75 -29
c0 -8 -118.75 -334 -194.994 -453.994c-36.0469 -54.3389 -61.2559 -82.0059 -101.256 -82.0059c-78.75 0 -112.5 89 -112.5 125c0 24 15 49.5 43.75 49.5c46.7871 0 51.666 -11.167 117.494 -57.5781zM650.339 72.3369c45.0723 -26.4814 104.92 -57.3369 160.911 -57.3369
c72.3398 0 190 114.5 190 270c0 62 -12.5 114 -31.25 159c-21.25 55 -68.75 116 -116.25 163c-182.023 186.877 -378.684 200 -418.751 200c-83.75 0 -111.25 -8 -158.75 -29c-51.25 -22 -93.75 -107 -93.75 -155c0 -114 161.25 -219 238.75 -219c38.75 0 55 19 55 42
c0 26 -20 26 -31.25 65c0 33 32.5 36 43.75 36c40 0 48.75 -38 48.75 -59c0 -26 -12.5 -51 -26.25 -71c-13.75 -21 -41.25 -28 -71.25 -28c-113.75 0 -313.75 127 -313.75 239c0 31 22.5 131 130 173c42.5 16 107.5 20 136.25 20c97.5283 0 264.35 -7.70801 468.751 -174
c60 -50 111.072 -112.065 146.25 -174c39.7998 -70.0732 46.25 -142 46.25 -214c0 -69.4131 -69.9678 -260 -242.5 -260c-35.1162 0 -88.8691 13.1543 -169.466 59.9922z" />
    <glyph glyph-name="E" unicode="E" horiz-adv-x="630" 
d="M541.25 130.996c-2.5 8.00391 -11.251 45.0039 -11.251 59.0039c0 3 0 4 1.25 5c0 5 42.5 8 55 8c3.75 0 5 -6 5 -15c-2.91602 -22.333 -4.88672 -42.417 -9.6875 -56.75c-2.16602 11.7695 -4.24902 16.6865 -6.01367 16.6865
c-3.02637 0 -5.12305 -14.4199 -5.12305 -33.5225c0 -54.8975 8.83008 -66.4141 22.0752 -66.4141c17.3633 0 20 10 23.75 15c1.25 -1 1.08496 -1 1.25 -1c0 -1 -8.75 -23 -22.5 -23c-25 0 -41.25 14 -43.75 43c-5.41602 24.333 -6.25 31.667 -10 48.9961zM534.07 64.0498
c-64.8916 -61.5215 -138.176 -64.0488 -184.073 -64.0488c-150 0 -296.25 67 -296.25 204c0 60.8164 47.0537 120.758 142.185 154.433c0.870117 -5.44434 2.19043 -10.1826 4.94824 -15.7881c-48.1406 -27.667 -79.6328 -78.7305 -79.6328 -126.646
c0 -80 38.75 -202 230 -202c26.9834 0 124.76 5.66309 175.073 86.8486c2.69043 -11.9238 6.17871 -30.667 7.75 -36.7988zM219.997 352.001c-5 18 -11.251 55 -11.251 77c0 44 26.25 166 191.25 166c140.525 0 161.25 -94.7734 161.25 -110c0 -39 -38.75 -49 -61.25 -49
c-32.5 0 -42.5 3 -42.5 10c0 10 20 4 35 8c28.75 8 30 22 30 35c0 57 -72.5 78 -113.75 78c-133.75 0 -150 -105 -150 -157c0 -11 0.3125 -32 2.50098 -45c3.75 -21 10 -40 20 -57c25 -40 46.25 -56 86.25 -56c51.25 0 70 48 70 73c0 28 -16.25 56 -80 56
c-29.6201 0 -55.8027 -4.58398 -74.668 -9.40625l-1.08984 15.4062c24.96 6.19336 49.1982 9.28906 75.7578 9.28906c76.25 0 123.75 -38.2891 123.75 -79.2891c0 -66 -62.5 -82 -112.5 -82c-52.5 0 -76.25 21 -93.75 34c-22.5 18 -42.5 51 -55 83z" />
    <glyph glyph-name="F" unicode="F" horiz-adv-x="1017" 
d="M726.316 283.754c-35.7881 -7.72559 -34.0967 -48.7539 -48.8164 -48.7539c-10 0 -18.75 9 -28.75 12c10 27 31.25 57 55 58c13.4189 0 21.666 -0.666992 31.9492 -1.69727zM833.004 263.33l6.66113 13.8799c37.6777 -11.1523 68.9326 -18.21 87.835 -18.21
c63.75 0 63.75 29 85 53c10 -7 23.75 -18 28.75 -27c-27.5 -29 -53.75 -42 -105 -42c-35.2275 0 -61.3389 8.02246 -103.246 20.3301zM872.504 556c-30.0039 -1 -65.0029 -3 -97.5029 -3c-222.5 0 -397.5 135 -531.25 135c-53.75 0 -97.5 -25 -97.5 -62
c0 -104 135 -185 275 -185c47.5 0 58.75 23 103.75 37c18.75 -1 58.75 2 97.5 -25c-15 -14 -76.25 -27 -157.5 -27c-308.719 0 -356.25 171.579 -356.25 204c0 43 45 74 127.5 74c132.5 0 326.25 -131 502.5 -131c19.9258 0 72.832 0.887695 133.75 4.56934
c88.4717 6.29785 197.149 37.3643 261.249 37.4307c60 0 167.5 -11 167.5 -52c0 -3 -5 -27 -25 -27c-52.5 0 -27.5 49 -202.5 49c-55 0 -119.996 -25 -201.246 -29zM906.891 538.61c4.08984 -4.26465 7.83203 -9.66602 10.6094 -16.6104
c-40 -101 -42.5 -107 -100.008 -238.006c-24.5762 -52.3271 -66.6562 -146.721 -139.992 -217.994c-66.626 -64.752 -183.75 -66 -236.25 -66c-125 0 -216.25 71 -216.25 134c0 58 65 60 80 60c91.25 0 113.75 -80 113.75 -97c-5 -3 -12.5 -11 -30 -11
c-8.75 0 -20 3 -23.75 6c1.25 8 1.25 16 1.25 23c0 32 -12.5 60 -58.75 60c-25 0 -46.25 -21 -46.25 -59c0 -52 93.75 -102 178.75 -102c76.25 0 138.684 9.03711 217.5 99c49.957 57.0244 73.75 124 95.0039 170.009c39.5371 74.6143 92.7471 206.583 111.871 254.241
c13.4375 0.25 31.251 0.75 42.5156 1.36035z" />
    <glyph glyph-name="G" unicode="G" horiz-adv-x="750" 
d="M559.098 19.3984c-25.4609 -10.3369 -61.4141 -19.3984 -117.848 -19.3984c-103.832 -0 -251.25 45.2979 -251.25 210c0 132 35.3828 196.81 83.75 259c20.1602 25.9209 120 126 268.75 126c154.887 0 196.25 -75.7979 196.25 -111c0 -19 -11.25 -41 -18.75 -59
c-68.75 -144 -178.75 -191 -178.75 -191c-2.5 6 -6.25 10 -6.25 16c0 3 0 4 2.5 6c0 0 97.5 58 148.75 173c10 25 11.25 33 11.25 55c0 40.7432 -24.75 89 -123.75 89c-177.5 0 -263.75 -122 -296.25 -192c-18.75 -54 -33.75 -87 -41.25 -208
c0 -126.4 137.812 -158 205 -158c58.3809 0 103.409 22.501 137.744 50.9951zM600 40c32.0664 70.9238 51.25 119 71.25 167c12.5 28 16.25 40 22.5 54c5 8 12.5 11 21.25 11c13.75 0 33.75 -11 33.75 -34c-3.75 -34 -13.75 -44 -27.5 -72c-8.75 -17 -21.25 -32 -31.25 -46
c-47.5 -85 -166.25 -367 -197.5 -425c-25 -49 -57.5 -87 -85 -104c-26.25 -14 -82.5 -28 -126.25 -28c-42.5 0 -88.75 14 -130 33c-56.25 25 -97.5 64 -97.5 108c0 54 46.25 58 67.5 58c37.5 0 76.25 -15 100 -34c12.5 -10 18.75 -24 27.5 -36c6.25 -8 8.75 -17 10 -26
c-2.5 -1 -12.5 -11 -31.25 -11c-6.25 0 -15 1 -21.25 7c0 12 2.5 21 2.5 30c0 10 -3.75 21 -15 36c-8.75 13 -37.5 21 -55 21c-25 0 -42.5 -36 -42.5 -67c0 -24 6.25 -49 61.25 -75c48.75 -23 97.5 -30 123.75 -30c25 0 59.1113 8.52441 80 19
c83.75 42 153.75 256 238.75 444z" />
    <glyph glyph-name="H" unicode="H" horiz-adv-x="1080" 
d="M871.82 263.133l-40.5547 14.6924c50.2539 87.8271 116.301 180.454 172.484 258.175c41.25 58 78.75 58 81.25 58c33.75 0 63.75 -41 63.75 -92c0 -7 -3.75 -10 -12.5 -10c-12.5 0 -17.5 8 -17.5 21v13c0 17 -1.25 34 -21.25 41c-25 0 -23.75 -4 -45 -31
c-4.75977 -6.66113 -117.04 -164.534 -180.68 -272.867zM846.395 216.835c-17.334 -33.8672 -33.8945 -72.9678 -33.8945 -85.8359c0 -80 68.75 -117 143.75 -117c41.25 0 61.25 42 72.5 61c2.5 1 3.75 1 5 1c12.5 0 14.7803 -14.6377 26.0303 -14.6377
c2.0498 0 5.21973 0.0917969 6.46973 1.6377l1.25 -1c-13.1201 -24.5 -51.25 -62 -111.25 -62c-91.25 0 -181.25 41 -181.25 137c0 28.1484 18.1885 64.2988 32.8457 94.7998zM678.745 323.332c61.3086 -25.3984 118.129 -51.833 183.754 -76.333
c26.5166 -9.89941 71.25 -24 106.25 -24c30 0 48.1299 5.5 51.25 18c6.25 21 2.5 46 37.5 46c17.5 0 22.5 -17 22.5 -28c0 -40.1504 -49.7803 -50.1875 -104.59 -50.1875c-22.1992 0 -65.5449 2.45703 -120.41 25.1875l-182.711 77.5088zM589.764 358.958l-6.97363 -11.875
c-58.8301 20.7871 -86.9795 23.916 -119.042 23.916c-67.5 0 -92.5 -44 -92.5 -62c0 -27 25 -77 58.75 -77c3.75 0 6.25 1 10 1c10 2 11.25 10 11.25 17v3c0 3 0 6 1.25 7c5 3 11.25 4 16.25 4c10 0 18.75 -5 18.75 -11c0 -7 -28.75 -29 -51.25 -29
c-45 0 -102.5 41 -102.5 79c0 10 2.5 23 8.75 38c16.25 27 65 44 107.5 44c34.6504 0 72.3008 -3.19824 139.766 -26.041zM644.996 323.002c-54.9971 -94.0029 -124.996 -223.003 -143.746 -246.003c-61.25 -77 -135 -77 -178.75 -77c-123.75 0 -213.75 71 -213.75 131
c0 32 27.5 66 77.5 66c75 0 118.75 -54 118.75 -94c-7.5 -7 -17.5 -10 -27.5 -10s-18.75 3 -22.5 7c0 21 7.5 21 7.5 35c0 8 -2.5 18 -12.5 30s-35 20 -51.25 21c-31.25 0 -52.5 -35 -52.5 -77c0 -26 53.75 -94 166.25 -94c63.75 0 93.75 6 150 72
c30.5615 35.6553 83.7285 144.459 149.374 264.5l68.125 130.5c-31.25 -12 -62.5 -33 -108.75 -33c-202.5 0 -182.5 101 -316.25 101c-82.5 0 -103.75 -69 -103.75 -117c0 -29 10 -56 27.5 -58c12.5 0 13.75 10 15 40c0 4 0 10 6.25 10c8.75 0 32.5 -13 32.5 -21
c0 -20 -25 -36 -50 -36c-35 0 -73.75 41 -73.75 85c0 39 46.25 115 142.5 115c138.75 0 162.5 -102 302.5 -102c46.25 0 86.25 23 137.5 52c30 23 35 71 71.25 77c27.5 -3 28.75 -10 28.75 -22c0 -8 -1.25 -18 -31.25 -44c-28.75 -26 -27.5 -56 -107.5 -194z" />
    <glyph glyph-name="I" unicode="I" horiz-adv-x="641" 
d="M753.75 595c11.25 0 32.5 -8 32.5 -22c0 0 -5 -28 -15 -44c-90 -151 -195 -464 -275 -500c-36.25 -17 -74.2412 -29 -125 -29c-120 -0 -226.25 72.4512 -226.25 142c0 34 50 54 90 54c88.75 -3 112.5 -78 112.5 -96c-6.25 -8 -17.5 -12 -28.75 -12
c-8.75 0 -15 2 -21.25 7c-1.25 4 -1.25 6 -1.25 15c0 32 -6.25 72 -61.25 72c-30 0 -48.75 -23 -48.75 -53c0 -104.205 157.119 -115 182.5 -115c50 0 67.5 9 80 18c88.75 65 180 354 231.25 448c27.4365 45.7256 19.0967 102.343 73.75 115zM633.225 462.307
c-17.668 -5.66602 -33.6191 -8.30664 -59.4736 -8.30664c-203.75 0 -192.5 99 -328.75 99c-83.75 0 -90 -84 -90 -99c0 -16 7.5 -71 33.75 -71c8.75 0 10 5 10 16c0 8 -1.25 16 -1.25 23c0 9 1.25 11 5 11c8.75 0 37.5 -15 37.5 -27s-13.75 -37 -46.25 -37
c-33.75 0 -85 45 -85 95s50 104 132.5 104c110 0 165 -68 223.75 -87c23.75 -8 58.75 -13 82.5 -13c19.9863 0 54.4639 6.37598 96.8115 26.6318c-0.146484 -16.6318 -11.0879 -32.3252 -11.0879 -32.3252z" />
    <glyph glyph-name="J" unicode="J" horiz-adv-x="720" 
d="M713.225 462.307c-17.668 -5.66602 -33.6172 -8.30664 -59.4736 -8.30664c-203.75 0 -192.5 99 -328.75 99c-83.75 0 -90 -84 -90 -99c0 -16 7.5 -71 33.75 -71c8.75 0 10 5 10 16c0 8 -1.25 16 -1.25 23c0 9 1.25 11 5 11c8.75 0 37.5 -15 37.5 -27
s-13.75 -37 -46.25 -37c-33.75 0 -85 45 -85 95s50 104 132.5 104c110 0 165 -68 223.75 -87c23.75 -8 58.75 -13 82.5 -13c19.9854 0 54.4639 6.37598 96.8115 26.6318c-0.146484 -16.6318 -11.0879 -32.3252 -11.0879 -32.3252zM758.752 480
c20.8691 47.5625 26.25 104 73.75 115c11.25 0 32.5 -8 32.5 -22c0 0 -6.25 -28 -15 -44c-90 -151 -365 -893 -445 -929c-36.25 -17 -57.5 -29 -126.25 -29c-111.648 0 -225 71.1777 -225 142c0 34 50 54 90 54c90 -3 112.5 -78 112.5 -96c-6.25 -8 -17.5 -12 -28.75 -12
c-8.75 0 -15 2 -21.25 7c-1.25 4 -1.25 6 -1.25 15c0 32 -6.25 72 -61.25 72c-30 0 -48.75 -23 -48.75 -53c0 -104.205 157.119 -115 182.5 -115c50 0 67.5 9 80 19c88.75 64 227.5 480 401.25 876z" />
    <glyph glyph-name="K" unicode="K" horiz-adv-x="1037" 
d="M670.704 471.496c-36.4951 -19.124 -79.1846 -56.4951 -129.453 -56.4951c-103.75 0 -185 98 -301.25 98c-72.5 0 -86.25 -54 -86.25 -94c0 -30 10 -69 35 -69c8.75 0 11.25 5 11.25 14s-3.75 19 -3.75 26c0 3 2.5 6 3.75 7c26.25 0 37.5 -18 38.75 -21
c0 -35 -35 -40 -48.75 -40c-35 0 -81.25 49 -81.25 95c0 32 33.75 98 131.25 98c130 0 196.25 -97 302.5 -97c45.5596 0 84.2031 37.9326 137.009 71.6465c-1.17578 -15.3145 -8.80566 -32.1514 -8.80566 -32.1514zM716.294 279.719
c-15.042 -16.9062 -40.1426 -45.2695 -78.793 -74.7178c-16.25 -13 -35 -22 -47.5 -41c-28.75 -46 -56.25 -93 -76.25 -142c-5 -15 -20 -20 -31.25 -20c-22.5 0 -55 16 -55 41c0 5 1.25 10 3.75 14c8.75 16 108.75 116 123.75 129c18.125 19.5 30 33 47.5 48
c71.25 60 72.9863 63.0596 89.9971 76.666c12.0889 -4.48438 15.5381 -19.8213 23.7959 -30.9482zM770.957 331.945c-6.54102 6.3252 -10.8662 11.7461 -29.0459 22.8145l255.59 243.241c8.75 9 92.5 106 222.5 106c122.5 0 145 -45 145 -61s-10 -43 -67.5 -43
c-31.25 0 -46.25 2 -76.25 13c0 0 8.75 -2 35 -2c25 0 66.25 8 66.25 39c0 37 -56.25 41 -87.5 41c-65 0 -117.5 -26 -157.5 -63zM757.501 320c30.5127 -20.8379 40.8516 -95.5957 53.9062 -165.999c13.4053 -72.2969 29.6748 -140 73.5947 -140c21.25 0 33.75 2 52.5 16
c10 8 16.25 21 33.75 21h17.5c17.8096 0 25.3096 0.5 35 12l1.25 -1c-34.375 -58.5 -68.75 -62 -133.75 -62c-83.1416 0 -109.895 72.3555 -124.478 146c-12.4062 62.6533 -18.4385 120.333 -35.5225 147.75c-5.39746 8.92773 -10.2871 18.6904 -24.584 28.916
c-2.5 2 -9.47852 7.58301 -15.416 8.33301c-0.746094 -2.18848 -3.83789 -6.43164 -4.375 -8.50098c-8.4375 -10 -67.125 -55.75 -72.5 -60c35.8027 58.3828 41.6562 138.711 79.375 217.498c2.49902 5.66895 6.66504 22.335 12.0781 35.0029
c12.0869 16.332 20.4209 67.999 59.1709 76.999c22.5 -3 28.75 -14 28.75 -21c0 -9 -10 -28 -28.75 -45c-21.25 -21 -30 -51 -37.5 -76c-5.53516 -18.4502 -27.5 -79 -32.5 -99c12.5 0 21.25 -4 32.5 -9c12.1963 -6.60254 21.0488 -14.3174 30 -21.999z" />
    <glyph glyph-name="L" unicode="L" horiz-adv-x="850" 
d="M506.119 138.952c-35.2207 -44.415 -125.566 -138.951 -278.62 -138.951c-90 0 -173.75 43 -173.75 107c0 47 32.5 118 227.5 118c100.501 0 173.986 -17.4307 251.253 -51c157.497 -81 124.997 -151 173.747 -151c18.75 0 26.25 0 45 15c10 7 13.75 13 31.25 13h17.5
c29.2842 0 30.834 6.66699 36.25 12l1.25 -1c-35 -58 -63.75 -62 -132.5 -62c-91.25 0 -32.5 75 -187.5 154c-89.4639 46.3867 -176.178 55 -210 55c-58.75 0 -193.75 -15 -193.75 -119c0 -41 38.75 -74 105 -74c110.022 0 207.979 106.181 240.193 145.069
c21.2822 -8.43945 31.0576 -13.5703 47.1768 -22.1182zM531.561 309.001c-21.7363 -9.22852 -45.2861 -19 -50.3115 -19l60.3896 34.2217zM565 322c0.0136719 0.0214844 44.8105 76.4336 63.749 100.001c36.25 49 103.75 123 156.25 150c32.5 16 62.5 23 81.25 23
c21.25 0 26.25 -20 26.25 -32c0 -44.9971 -123.388 -115.274 -193.304 -159.466c9.1377 15.1318 23.2939 31.459 23.2939 31.459c132.926 86.0059 151.26 101.678 151.26 130.006c0 8 -5 8 -10 8c-62.5 -10 -99.6572 -58.4395 -133.75 -99
c-32.5 -38.667 -48.0547 -67.2656 -73.75 -101c-18.5928 -26.959 -70.6738 -118.734 -114.065 -184.541c-17.8477 9.03418 -34.6387 15.0273 -50.8125 19.25z" />
    <glyph glyph-name="M" unicode="M" horiz-adv-x="1588" 
d="M1032.5 247c27.0098 38.1465 57.0586 74.1777 92.959 106.13c-40.2197 -96.5566 -140.438 -292.022 -230.459 -353.129c-47.5 0 -61.25 3 -61.25 18c0 116 255 398 255 398c13.1299 18.25 45 46.25 62.5 60c136.25 85 177.5 119 361.25 119c53.75 0 62.5 -13 137.5 -13
c20 0 33.75 -4 35 -16c-7.5 0 -32.5 -4 -43.75 -6c-47.5 -8 -115 -18 -187.5 -67c0 -1 -173.75 -146 -173.75 -308c0 -141 51.25 -172 155 -172c59.0596 0 56.8799 38 87.5 38h16.25c30.9102 0 29.5898 6.66699 35.5498 12l1.9502 -1c-27.5 -49 -65 -63 -115 -63
c-6.25 0 -12.5 1 -20 1c-142.5 0 -210 51 -210 195c0 162 173.75 308 173.75 308c61.25 45 126.25 60 198.75 72c-17.4395 2.32422 -79.8398 4 -88.75 4c-171.25 0 -301.25 -92 -380 -176c-92.25 -94.9443 -153.339 -187.008 -175 -215.001c-13.75 -21 -55 -100 -62.5 -130
c13.75 17 53.75 66 76.25 99c10.6299 15.875 42.2803 56.3066 58.75 90zM1105.65 463.756c1.13965 6.17578 1.85059 14.8105 1.85059 20.2441c0 48 -23.75 99 -120 99c-41.25 0 -88.3867 -12.9053 -124.579 -26.001c-135.421 -48.999 -157.921 -70.999 -215.421 -70.999
c-78.75 0 -148.75 51 -187.5 76c-11.25 6 -160 127 -240 127c-58.75 0 -68.75 -75 -68.75 -94c0 -48 27.5 -97 68.75 -97c8.75 0 15 2 18.75 9l35 -8c-5 -9 -20 -45 -31.25 -45c-83.75 0 -133.75 86 -133.75 149c0 45 33.75 101 106.25 101c91.25 0 138.75 -54 281.25 -145
c72.5 -46 115 -59 142.5 -59c43.75 0 130 62 232.5 83c41.25 9 73.75 12 106.25 12c55.3301 0 135.021 -7.98633 168.12 -103c-15.0303 -7.16504 -35.0303 -24.165 -39.9707 -28.2441zM562.5 122.001c213.051 200.268 260.393 403.35 260.47 403.375
c2.55664 0.833008 59.6865 20.083 67.0293 21.0312c1.09473 -4.53125 1.25098 -9.91602 1.25098 -12.4062c0 -1 -85 -283 -322.5 -460c-101.25 -65 -127.725 -74 -221.25 -74c-90.8213 0 -160 43 -202.5 92c-15 17 -21.25 44 -21.25 62c0 16 16.25 53 80 53
c98.75 0 120 -84 120 -99c-7.5 -7 -17.5 -9 -27.5 -9c-8.75 0 -18.75 2 -21.25 6c-7.5 25 12.5 83 -63.75 89c-32.5 0 -48.75 -41 -48.75 -70c0 -57 106.25 -110 183.75 -110s123.75 24 216.25 108z" />
    <glyph glyph-name="N" unicode="N" horiz-adv-x="1110" 
d="M1035.93 170.977c-18.0098 32.6904 -24.2598 43.0225 -40.9287 69.0215c66.7393 298.552 201.329 462.045 317.499 464.001c90 0 126.25 -10 155 -45c3.75 -6 11.25 -12 16.25 -17c-1.25 -7 -26.25 -11 -32.5 -11c-20 0 -18.75 10 -43.75 34
c-23.75 25 -61.25 25 -73.75 25c-102.58 0 -246.931 -183.266 -297.82 -519.022zM988.753 212.996c6.45801 -10.499 30.417 -47.6621 41.2471 -76.3281c0 0 13.75 -54.6689 13.75 -59.6689c0 -44 -30 -77 -50 -77c-16.25 0 -53.75 13 -53.75 52
c0 10.4092 23.125 74.125 24.5078 76.75c3.20312 -6.26758 6.4707 -8.90234 9.16992 -8.90234c3.65332 0 6.26465 4.83203 6.26465 12.0117c0 5.91602 -1.77246 13.4248 -6.19238 21.1406l-170.961 296.306c7.21094 14.6943 16.7158 36.5322 24.96 63.0479
c14.542 -45.8359 59.8818 -95.1152 161.004 -299.356zM821.242 548.992c-7.49219 -25.9932 -17.9082 -49.3262 -31.2422 -79.9932c-11.25 -16 -152.5 -469 -508.75 -469c-135 0 -227.5 75 -227.5 132c0 56 61.25 62 76.25 62c71.25 0 106.25 -34 118.75 -91
c0 -8 -11.25 -13 -25 -13c-7.5 0 -20 3 -25 6c1.25 7 2.5 15 2.5 25c0 24 -7.5 55 -60 55c-47.5 0 -48.75 -32 -48.75 -62c0 -58 120 -98 186.25 -98c88.75 0 238.75 9 443.75 438c4.6875 11 10 24.25 13.75 32c27.5 60 22.5 56 25 83c3.75 12 18.75 26 33.75 26
c31.25 0 36.25 -18 36.25 -22c0 -8 -7.5 -18 -10.0078 -24.0068zM694.688 435.999c-25.7021 -17.918 -58.6631 -40 -93.4385 -40c-137.5 0 -110 152 -280 152c-82.5 0 -110 -39 -110 -80c0 -45 28.75 -95 57.5 -95c70 0 45 42 57.5 42c5 0 27.5 -11 27.5 -27
c0 -11 -12.5 -28 -72.5 -28c-68.75 0 -118.75 53 -118.75 106c0 78 95 95 155 95c207.231 -2.80957 172.78 -150 282.5 -150c23.0801 0 73.8311 28.377 107.5 51.75c-3.75 -11.25 -12.8115 -26.75 -12.8115 -26.75z" />
    <glyph glyph-name="O" unicode="O" horiz-adv-x="667" 
d="M365 0c-108.75 0 -283.75 53 -283.75 197c0 233 152.5 397 340 397c105 0 187.5 -62 187.5 -117c0 -34 -47.5 -145 -102.5 -205c-27.5 -29 -92.5 -45 -92.5 -45h-2.5v7c0 17 42.5 12 76.25 43c42.5 38 78.75 128 78.75 212c0 68 -105 86 -130 86
c-197.563 0 -305 -195 -305 -413c0 -106 145 -143 218.75 -143c200 0 291.25 260 291.25 333c0 26 -3.24707 51.6621 -17.5 77c-1.72656 3.06836 -2.30469 6.70117 -2.30469 10.4121c0 4.35156 0.795898 8.80957 1.46973 12.5879
c1.18848 6.66016 1.91699 10.2275 2.78711 15.8193c0.547852 3.51367 0.963867 6.84766 0.962891 14.5156c30 -23 62.085 -42.335 62.085 -127.335c0 -111 -72.5 -355 -323.75 -355z" />
    <glyph glyph-name="P" unicode="P" horiz-adv-x="1086" 
d="M827.678 265.116l10.6562 17.5488c38.5859 -12.9834 66.5244 -23.665 101.666 -23.665c38.75 0 146.25 9 146.25 119c0 52 -25 188 -186.25 188l-77.5 -2c-111.25 0 -187.5 14 -200 16c-158.75 33 -288.75 108 -376.25 108c-46.25 0 -98.75 -20 -98.75 -62
c0 -109 187.5 -180 281.25 -180c57.5 0 75 33 116.25 33c21.25 0 55 -1 90 -24c-16.25 -16 -97.5 -26 -161.25 -26c-213.75 0 -365 120 -365 201c0 43 57.5 74 115 74c120 0 196.25 -62 367.5 -102c52.5 -13 105 -19 158.75 -19c68.75 0 113.75 11 173.75 11
c122.5 0 210 -87 210 -209c0 -63 -32.5 -150 -163.75 -150c-54.4453 0 -112.026 18.8145 -142.322 30.1162zM726.838 130.566l12.7451 15.4336c59.6611 -26.8848 127.916 -55.4102 127.916 -101c0 -40 -35 -45 -78.75 -45c-30.7139 -0 -74.0615 36.2383 -74.0615 36.2383
s0.3125 1.40234 0.3125 1.76172c13.75 -4 33.75 -24 75 -24c17.5 0 56.25 1 56.25 30c0 18.1035 -3.29004 37.9307 -119.412 86.5664zM707.5 139.001c-126.251 -130.001 -201.251 -139.003 -265.001 -139.003h-28.75c-220.36 0 -240 107.875 -240 113c0 10 3.75 21 12.5 36
c20 34 81.25 69 191.25 69c140.327 0 218.146 -25.7852 273.169 -42.8213c-4.26172 -5.80371 -11.3457 -14.2197 -11.3457 -14.2197c-83.7285 25.7451 -139.703 43.041 -244.322 43.041c-100 0 -131.25 -10 -167.5 -38c-17.5 -13 -23.75 -29 -23.75 -43
c0 -87.2002 111.615 -104.447 187.5 -109c75 5 141.25 -3 267.5 141c5 5 7.65625 9.125 12.5 14c137.312 162.466 186.215 307.037 214.557 380.227c6.64648 0.37793 13.3857 0.663086 20.4209 0.663086c7.27637 0 14.8691 -0.306641 22.999 -1.1377
c4.20117 -4.01953 8.00977 -9.12109 10.7725 -15.75c-30.5371 -69.3389 -76.0342 -179.464 -130 -261c-25 -38 -38.75 -61 -88.75 -117z" />
    <glyph glyph-name="Q" unicode="Q" horiz-adv-x="660" 
d="M351.57 -14.8516c-13.248 -12.8486 -29.8877 -27.457 -35.3203 -36.1484c1.25 -1 3.75 -2 6.25 -2c12.5 0 25 17 91.25 17c70 0 127.5 -14 165 -34s47.5 -29 72.5 -41c0 -13 -23.75 -20 -23.75 -20c-10 0 -56.25 34 -112.5 59c-35 15 -73.75 21 -107.5 21
c-80 0 -96.25 -26 -120 -32c-1.25 3 -2.5 6 -2.5 9c0 19 30 38 33.75 52c-12.0146 6.72852 -17.6787 10.916 -20.457 14.3389c22.332 -5.08887 53.2773 -7.19043 53.2773 -7.19043zM296.252 6c-101.253 18 -215.003 75 -215.003 191c0 233 152.5 397 340 397
c105 0 187.5 -72 187.5 -117c0 -34 -45 -145 -100 -205c-24.4863 -25.8223 -88.8203 -45 -97.5 -45v7c0 17 41.25 12 75 43c42.5 38 71.25 132 71.25 216c0 57 -82.5 82 -110 82c-208.75 0 -316.25 -188 -316.25 -406c0 -97 145 -151 218.75 -151c200 0 292.5 234 292.5 334
c0 26 -0.972656 52.0469 -16.25 77c-1.58984 2.59668 -2.19043 1.86914 -2.19043 4.3623c0.015625 7.62793 5.31543 24.6377 5.74316 44.9658c9.58691 -7.66797 58.9473 -38.3281 58.9473 -123.328c0 -111 -72.5 -355 -323.75 -355
c-21.084 0.424805 -42.2549 0.923828 -68.7471 6z" />
    <glyph glyph-name="R" unicode="R" horiz-adv-x="1252" 
d="M1023.33 271.321c-4.95996 7.40918 -16.3994 18.0205 -28.3301 28.8818c36.3105 16.9795 91.25 50.3311 91.25 108.798c0 37 -41.25 141 -181.25 141h-13.75l-135 -5c-127.084 0 -467.5 143 -512.5 143c-57.5 0 -96.25 -26 -96.25 -62c0 -125 227.5 -182 278.75 -182
c50 0 62.5 24 108.75 37c41.25 0 63.75 -1 100 -24c-16.25 -16 -92.5 -27 -163.75 -27c-30 0 -60 2 -90 7c-182.5 33 -272.5 134 -272.5 194c0 42 51.25 73 116.25 73c116.25 0 366.25 -139 527.5 -139c75 0 100 11 168.75 12c115 0 217.5 -70 217.5 -184
c0 -56.0273 -56.3496 -99.4004 -115.42 -121.68zM938.473 244.444c-11.9072 -1.43359 -25.6191 -2.44434 -37.2236 -2.44434c-48.75 0 -83.75 32 -83.75 32c-180 -274 -218.75 -274 -407.5 -274c-113.75 0 -222.5 69 -222.5 134c0 18 21.25 58 73.75 58
c65 0 95 -34 117.5 -68c2.5 -5 10 -17 10 -24v-1c-7.5 -8 -17.5 -10 -27.5 -10c-8.75 0 -18.75 2 -21.25 6c-1.25 4 -1.25 8 -1.25 10c0 6 1.25 12 1.25 18c0 47 -45 57 -62.5 58c-41.25 0 -51.25 -53 -51.25 -67c0 -66 128.75 -102 193.75 -102
c218.07 0 334.079 241.103 464.53 520.899c5.2793 0.719727 11.3633 0.994141 17.915 0.994141c7.99707 0 16.6953 -1.4082 25.4873 -1.9082c4.37305 -4.18164 8.24414 -8.63184 10.8184 -15.9863c-92.5 -204 -97.5 -190 -97.5 -203c16.25 10 28.75 14 43.75 14
c36.25 0 66.25 -11 91.25 -35c7.1875 -6.75 18.125 -19.25 25 -28c50 -57 25 -250 98.75 -250c21.25 0 33.75 2 51.25 16c10 8 16.25 21 35 21h17.5c30.1895 0 31.25 9 35 12l1.25 -1c-34.5801 -57.333 -77.5 -62 -133.75 -62c-68.75 0 -115 58 -123.75 165
c-5.83887 65.3984 -28.8125 100.102 -47.499 117.001c-5 5 -20 9 -32.5 9c-17.5 0 -31.25 -4 -31.25 -10c7.5 -2 22.5 -5 36.25 -5c3.83105 0 7.5166 0.116211 10.959 0.46582c6.76074 -10.7471 15.916 -23.2158 20.0127 -32.0215z" />
    <glyph glyph-name="S" unicode="S" horiz-adv-x="535" 
d="M329.394 397.473c-55.375 -35.6748 -45.8652 -23.7686 -169.394 -110.473l-1.05078 0.995117c98.5508 88.0049 127.809 92.6289 161.467 134.004c4.76855 -13.3262 8.56055 -24.5264 8.97754 -24.5264zM398.335 448.332l-13.0332 36.6123
c13.4502 15.7227 23.4502 36.7363 23.4502 48.0557c0 14 -12.5 29 -21.25 29c-16.7002 0 -25.2656 -34.5234 -25.2656 -50.167c0 -16.167 3.41699 -33.6064 21.5146 -80.833c26.25 -68.5 126.25 -198 126.25 -290c-1.25 -27 -7.5 -56 -26.25 -77
c-48.75 -60 -110 -64 -186.25 -64c-133.75 0 -201.25 49 -222.5 77c-15 15 -21.25 33 -21.25 50c0 50 42.5 57 60 57c102.5 0 127.5 -85 127.5 -91c-7.5 -7 -17.5 -9 -25 -9c-10 0 -20 2 -22.5 5c-1.25 2 -1.25 8 -1.25 9c0 5 1.25 -2 1.25 18c0 28 -27.7451 56 -65 56
c-36.4316 0 -38.75 -41 -38.75 -68c0 -43 80 -84 171.25 -90c12.5 2 113.75 -5 170 70c18.75 24 28.75 48 28.75 76c0 59 -46.7529 120.005 -103.75 234c-11.1562 22.3125 -32.125 72.1133 -32.125 120.361c0 63.7852 36.8271 81.6396 73.375 81.6396
c33.75 0 57.5 -32 57.5 -59c0 -14 -5 -26 -11.25 -37c-10.25 -18.8604 -26.9287 -29.7168 -45.416 -51.6689z" />
    <glyph glyph-name="T" unicode="T" horiz-adv-x="840" 
d="M858.974 539.043c13.8379 0.0820312 26.4951 1.70703 40.7139 4.20703c4.45215 -4.1123 9.8252 -12.377 12.8125 -19.25c-75 -130 -142.5 -349 -252.5 -460c-71.25 -59 -132.5 -64 -215 -64h-23.75c-84.8096 0 -153.75 27 -195 77c-13.75 16 -16.25 34 -16.25 52
c0 56 41.25 59 87.5 59c88.75 0 101.25 -78 101.25 -93v-1c-7.5 -7 -17.5 -10 -26.25 -10s-17.5 3 -21.25 6c-1.25 4 -2.5 7 -2.5 10v18c0 34 -31.25 58 -60 58c-25 0 -46.25 -18 -46.25 -71c0 -34 95 -91 176.25 -91c102.5 0 141.25 18 222.5 91
c73.1016 81.3252 180.645 354.693 217.724 434.043zM867.5 556c-30 -1 -65 -4 -97.5 -4c-239.126 0 -390.576 134 -527.5 134c-7.5 0 -16.25 0 -23.75 -1c-18.2412 -2.18945 -72.5 -17.7871 -72.5 -57c0 -42 23.75 -98 135 -150c47.1104 -20.2939 107 -29 133.75 -29
c50 0 61.25 20 106.25 33h6.25h3.75c20 0 52.5 -1 87.5 -24c-8.75 -7 -30 -13 -70 -20c-30 -4 -57.5 -5 -86.25 -5s-58.75 2 -90 8c-46.25 8 -93.75 22 -135 44c-101.25 48 -128.75 121 -128.75 145c0 42 52.5 73 107.5 73c188.75 0 332.5 -130 517.5 -130
c126.438 0 226.318 53 386.25 53c55 0 171.25 -11 171.25 -52c0 -16 -11.25 -28 -23.75 -28c-49.4297 0 -29.8496 49 -213.75 49c-48.75 -2 -143.75 -37 -186.25 -39z" />
    <glyph glyph-name="U" unicode="U" horiz-adv-x="1100" 
d="M611.25 467c-36.4951 -19.124 -76.6865 -45.4951 -126.953 -45.4951c-103.75 0 -141.25 88 -257.5 88c-72.5 0 -80 -54 -80 -94c0 -30 10 -69 35 -69c8.75 0 11.25 5 11.25 14s-3.75 19 -3.75 26c0 3 2.5 6 3.75 7c26.25 0 37.5 -18 38.75 -21c0 -35 -35 -40 -48.75 -40
c-35 0 -81.25 49 -81.25 95c0 32 33.75 98 131.25 98c130 0 146.25 -87 252.5 -87c45.5596 0 81.7031 26.9336 134.51 60.6465c-6.93164 -17.6514 -8.80664 -32.1514 -8.80664 -32.1514zM896.562 110.751c14.4248 -45.5322 30.7871 -96.75 82.1895 -96.75
c50 0 61.25 62 75 62c12.5 0 16.04 -14.833 26.04 -14.833c3.38965 0 3.64941 0.208008 6.45898 1.83301l1.25 -1c-12.5 -23.667 -51.25 -62 -111.25 -62c-71.2803 0 -93.5576 52.9121 -105.001 85c9.95508 8.29785 15.625 15 25.3125 25.75zM1080 523.001
c0 -150.715 -177.238 -389.946 -215 -420.001c-123.125 -98 -137.5 -103 -230 -103c-56.25 0 -143.75 25 -143.75 157c0 66 56.25 150 136.25 310c4.64551 18.7734 30.7852 101.186 72.5 111.001c28.75 -5 31.25 -15 31.25 -22c-1.25 -17 -10 -29.5 -21.25 -44
c-15 -20.5 -30 -36 -38.75 -57c-30 -68 -136.25 -219 -136.25 -321c0 -104 60 -120 105 -120c47.5 0 132.5 57 212.5 133c33.0537 30.0479 187.5 244.31 187.5 403c0 6 0 10 -2.5 12c-41.25 -44 -162.5 -262.001 -162.5 -357.001c0 0 -19.0625 -27.1689 -28.749 -35.6689
c-1.875 7.25 -3.125 16.4688 -3.125 22.75c0 76 116.874 342.92 184.374 380.92c8.75 4 16.25 5 22.5 5c22.5 0 30 -23 30 -55z" />
    <glyph glyph-name="V" unicode="V" horiz-adv-x="473" 
d="M144.45 389.604c-9.30469 -9.6377 -25.2031 -25.4365 -49.4502 -47.6055c-12.2363 -11.1875 -28.75 -21 -41.25 -32c12.5 14 27.5 26 37.5 40c17.1748 19.5254 29.7734 40.6191 42.0527 62.1475c2.1084 -9.92578 7.0127 -16.1533 11.1475 -22.542zM278.438 91.248
l46.5615 84.75c38.75 63 71.25 110 120 156c47.5 46 97.5 107 97.5 172c0 30 -8.75 64 -36.25 64s-37.5 -39 -45 -55c1.25 32 12.5 69.5 45 82c51.25 -3 90 -14 93.75 -99c-1.25 -66 -61.25 -131 -107.5 -172c-41.25 -37 -80 -82 -133.75 -169
c-12.5 -21 -18.75 -43 -28.75 -64c-8.75 -23 -11.25 -49 -26.25 -70c-9.15039 -12.8105 -18.75 -21 -31.25 -21c-21.25 0 -52.5 10 -52.5 19c0 6 11.25 9 16.25 13c16.25 11 28.125 31.75 42.1885 59.25zM316.104 200.505c0 0 -24.8555 -46.7559 -37.9521 -64.9346
c-0.887695 10.8408 -1.39453 19.8818 -3.15234 30.4287c-3.75 28 -17.5 79 -33.75 107c0 0 -79.584 121 -83.75 130c-5.45117 11.4678 -26.25 28.8584 -26.25 105.999c0 16 10 46 16.25 57c7.5 14 20 28 38.75 30c46.25 0 67.5 -35 67.5 -56
c0 -45 -27.0078 -61.4424 -49.6729 -95.335c-9.07715 7.83496 -15.3271 32.835 -15.3271 32.835c11.875 15 20 32.1494 20 47.5c0 7 -1.25 33 -15 33c-22.5 0 -27.5 -36 -27.5 -47c0 -17 3.75 -37 7.5 -55c11.875 -28.5 16.25 -37.5 97.5 -152
c17.3652 -24.4717 33.041 -69.0361 44.8545 -103.493z" />
    <glyph glyph-name="W" unicode="W" horiz-adv-x="1276" 
d="M587.496 464.5c-23.8184 -6.12793 -44.8389 -10.499 -82.4941 -10.499c-97.5 0 -103.75 20 -148.75 47c-51.25 33 -78.75 36 -106.25 36c-81.25 0 -93.75 -67 -93.75 -103c0 -17 2.5 -33 10 -49c5 -11 13.75 -18 23.75 -18c8.75 0 10 7 10 15s-2.5 17 -2.5 25v5
c0 3 3.75 4 6.25 4c7.5 0 26.25 -10 36.25 -21c1.25 -2 1.25 -4 1.25 -6c0 -14 -18.75 -32 -47.5 -32c-38.75 0 -85 47 -85 89c0 62 67.5 104 130 104c136.25 0 133.75 -83 243.75 -83c25.8799 0 63.7715 1.78418 126.249 34.5
c-4.02344 -12.1143 -13.4014 -25.3115 -21.2549 -37.001zM795.896 135.806c4.22656 -14.79 8.74609 -29.3906 14.9756 -42.8799c-88.2236 -64.4658 -120.853 -92.9248 -203.369 -92.9248c-116.25 5 -158.75 58 -158.75 127c0 140 163.746 343.998 163.746 343.998
c25.0039 39.1689 26.2539 62.002 32.5039 76.002c7.5 16 18.75 29 40 35c0 0 28.75 0 28.75 -22c-2.5 -18 -7.5 -31 -18.75 -44c-17.291 -14 -24.166 -38 -37.5 -57c0 0 -168.75 -220 -168.75 -351c0 -55 28.75 -94 113.75 -94c47.5986 0 121.075 52.6191 193.394 121.805z
M827.503 105.001c-6.17969 17.7969 -19.999 61.252 -19.999 87.002c0 98 72.5 254 165 311c7.5 4 13.75 6 20 6c16.25 0 26.25 -16 26.25 -43c0 -79.4873 -113.262 -251.684 -154.236 -311.919c-5.39844 14.5166 -8.68164 30.2744 -11.6953 45.4551
c36.7217 53.9131 139.682 211.085 139.682 278.462c0 6 -2.5 9 -5 11c-63.75 -43 -151.25 -186 -151.25 -278c0 -20.75 0.625 -24 15 -77c7.07227 -26.0771 33.75 -119 87.5 -119c37.5 0 71.25 24 93.75 40c147.5 99 308.75 349 308.75 451c-1.25 41 -33.75 75 -66.25 75
c-42.5 0 -65 -20 -65 -71c0 -48 46.25 -53 46.25 -67c0 -9 -10 -20 -21.25 -20c-15 0 -67.5 45 -67.5 85c0 23 21.25 87 106.25 87c53.75 0 110 -46 110 -84c0 -46 -71.25 -294 -313.75 -475c-43.75 -29 -93.75 -36 -132.5 -36c-83.75 2 -105.312 91.5 -110.001 105z" />
    <glyph glyph-name="X" unicode="X" horiz-adv-x="626" 
d="M403.125 416c-2.82422 142.383 -59.0889 160 -90.624 160c-102.96 0 -150 -91 -171.25 -113c-1.25 0 -18.75 1 -18.75 1c46.25 70 96.25 130 188.75 131c52.9336 0 110.732 -28.7988 123.611 -107.684c-12.9873 -23.3164 -31.7373 -71.3164 -31.7373 -71.3164z
M340.001 316c25 0 70 -18 102.5 -19c25 0 36.25 15 52.5 25c2.5 -3 8.75 -7 10 -11c-15 -8 -32.5 -22 -48.75 -22c-35 0 -88.75 19 -106.25 19c-23.75 0 -26.25 -15 -33.75 -15c-6.25 0 -8.75 3 -13.75 5c7.5 9 16.25 18 37.5 18zM413.595 278.366
c-12.6338 -28.9854 -34.6914 -82.7344 -53.5938 -115.366c-15 -30 -106.25 -163 -180 -163c-103.75 0 -126.25 70 -126.25 99c0 4 1.25 9 2.5 12c18.75 -74 86.25 -79 103.75 -79c83.3066 0 170.013 155.002 213.729 256.159zM429.391 314.409
c0 0 -27.7227 7.25879 -40.7051 11.0391c13.8066 37.1406 41.5508 104.812 52.5654 127.053c43.75 77 102.5 142.5 177.5 142.5c41.25 0 71.25 -7 105 -31c22.5 -19 25 -24 31.25 -46c-2.5 -6 -6.25 -9 -10 -9c-10 0 -18.75 15 -25 25c-23.75 26 -52.5 40 -85 40
c-22.5 0 -45 -9 -65 -29c-63.8896 -57.8623 -90.5791 -103.636 -140.61 -230.592zM401.252 197.501c-0.28418 -4.62402 -1.25 -22.1846 -1.25 -25.5c0 -112 38.75 -150 95 -150c41.25 0 52.5 14 80 29c0 0 25.416 1.33301 37.5 12l1.25 -1c-12.916 -25 -60 -62 -120 -62
c-99.7803 0 -123.711 84.2432 -130.576 132.453c14.3262 18.5469 38.0762 65.0469 38.0762 65.0469z" />
    <glyph glyph-name="Y" unicode="Y" horiz-adv-x="1048" 
d="M639.25 471.717c-42.0127 -17.6211 -56.2656 -20.7178 -79.251 -20.7178c-179.227 0 -182.69 99 -311.249 99c-85 0 -92.5 -78 -92.5 -101c0 -34 13.75 -69 33.75 -69c8.75 0 10 7 10 14c0 15 -1.25 12 -1.25 31c0 3 2.5 4 6.25 4c6.25 0 37.5 -14 37.5 -27
c0 -8 -3.75 -16 -10 -21c-7.5 -8 -22.5 -16 -38.75 -16c-43.75 0 -85 56 -85 96c0 61 71.25 102 130 102c149.551 0 171.501 -97 308.75 -97c44.6904 0 67.6562 14.501 104.375 40c-2.86914 -11.4746 -7.05273 -22.9033 -12.625 -34.2822zM852.502 53.334
c-48.8418 -35.918 -80.3438 -53.335 -147.503 -53.335c-152.5 0 -162.5 143 -162.5 181c0 66 52.8896 157.627 125.39 303.627c6.30078 14.5801 11.9248 29.1621 15.625 43.75c2.73535 12.9561 19.9121 56.1885 55.2354 65.623c5 0 11.25 -1 15 -3
c10 -2 28.75 -25 28.75 -33v-1c-1.3877 -9.9873 -18.75 -16.8877 -18.75 -16.8877c-1.59473 7.94141 -3.44434 10.9385 -5.46875 10.9385c-3.43164 0 -13.8301 -19.2139 -44.5312 -80.0508c-81.25 -161 -135 -230 -135 -327c0 -108 78.75 -130 111.25 -130
c38.8809 0 90.3154 19.25 186.848 108.284zM693.749 -342.001c0.800781 1.32031 166.354 321.011 211.25 491c111.25 364 127.5 446 196.25 446c25 0 30 -31 30 -65c0 -19.8779 -2.12012 -139.429 -155.625 -356.25c0 0 20.4053 69.9102 26.3447 96.4102
c46.7803 74.8398 91.7803 189.942 91.7803 290.84c0 6 -2.5 11 -3.75 12c-45 -56 -78.75 -203 -147.497 -442.006c-11.2188 -39.001 -110.003 -310.994 -220.003 -507.994c-10.4561 -18.7246 -51.2109 -46.627 -168.75 -52c-45 1 -88.75 10 -131.25 28
c-66.25 33 -96.25 67 -96.25 112c0 19 10 53 61.25 53c36.25 0 75 -11 102.5 -34c8.75 -7 40 -39 40 -60c-1.25 -2 -11.25 -11 -28.75 -11c-7.5 0 -18.75 2 -25 7c1.25 6 1.25 12 1.25 29c0 12 -3.75 23 -11.25 36c-12.5 12 -40 22 -50 22c-28.75 0 -47.5 -36.5 -47.5 -65.5
c0 -46 45.2266 -70.1748 61.25 -77.5c39.375 -18 96 -28 120 -28c86.25 0 129.09 51.874 143.75 76z" />
    <glyph glyph-name="Z" unicode="Z" horiz-adv-x="868" 
d="M660.85 482.788c-132.125 20.874 -234.988 70.2119 -247.1 70.2119c-10 0 -82.5 -118 -103.75 -118c-10 0 -18.75 13 -30 34c105 127 103.75 127 117.5 127c46.2861 0 75.8203 -71.627 275.442 -100.391c-6.90137 -5.77637 -12.0928 -12.8213 -12.0928 -12.8213z
M506.744 137.213c-69.5742 -81.0674 -199.631 -137.213 -279.244 -137.213c-83.75 0 -173.75 42 -173.75 108c0 47 32.5 117 228.75 117c85 0 143.125 -14.5 200 -32c16.5625 -4.5 33.8701 -12.2656 50.0029 -20c108.747 -65 111.247 -96 139.997 -125
c11.25 -11 25 -18 52.5 -18s32.5 12 63.75 34c20 0 42.5 -6 52.5 -6c7.91602 0 12.291 3 13.75 5l1.25 -1c-12.084 -24.667 -40 -38 -88.75 -57c-11.25 -5 -43.75 -5 -61.25 -5c-112.5 0 -56.25 73 -186.25 154c-15.4414 8.45508 -31.7842 16.0342 -48.7539 23.002
c-70.8301 27.3311 -153.746 33.998 -163.746 33.998c-81.25 0 -193.75 -24 -193.75 -120c0 -12 15 -71 112.5 -71c82.5352 0 194.135 98.4316 233.301 142.453c19.1992 -7.45312 47.1934 -25.2402 47.1934 -25.2402zM543.125 188.75
c-16.5088 7.54395 -33.0557 14.9951 -50.3711 20.5508c58.4023 94.042 102.15 183.712 187.247 270.699c4.58398 4.83301 8.54102 9.16699 12.5039 13.002c36.2461 35.998 114.996 97.998 192.496 97.998c22.5 0 31.25 -15 31.25 -40c0 -62 -93.75 -79 -155 -79
c-2.94922 0 -5.89746 0.0869141 -8.84766 0.209961l9.88965 15.958l7.70703 -0.167969c55 0 112.5 12 112.5 69c0 16 -5 20 -10 20c-14.9453 0 -81.5771 -14.4922 -141.25 -104c-145.271 -190.174 -113.286 -172.435 -188.125 -284.25z" />
    <glyph glyph-name="bracketleft" unicode="[" horiz-adv-x="307" 
d="M216.25 -100c-6.25 -20 -17.5 -30 -17.5 -35c-43.75 -3 -65 -3 -80 -3c-26.25 0 -31.25 3 -105 3c3.55664 5.69141 33.8789 168.55 82.5 376c6.25 29 56.25 235 78.75 332c0 2 5 3 11.25 5c1.25 2 2.5 5 3.75 8c71.25 -1 92.5 -1 113.75 -1c43.75 0 38.75 2 75 5
c-6.25 -20 -17.5 -26 -17.5 -30v-1c-43.75 -3 -65 -3 -80 -3c-22.5 0 -28.75 1 -75 2l-62.5 -274c-7.5 -34 -71.25 -314 -81.25 -391c50 -1 78.75 -1 96.25 -1s27.5 3 57.5 8z" />
    <glyph glyph-name="backslash" unicode="\" horiz-adv-x="575" 
d="M128.75 560l48.75 18l357.5 -600l-48.75 -19c-130 256 -131.25 295 -357.5 601z" />
    <glyph glyph-name="bracketright" unicode="]" horiz-adv-x="281" 
d="M-70 -100c23.75 -8 25 -8 68.75 -8c17.5 0 31.25 0 81.25 1c23.75 77 90 357 97.5 391l61.25 274c-46.25 -1 -53.75 -2 -75 -2c-15 0 -36.25 0 -78.75 3c0 0.0078125 -0.516602 -0.0380859 -3.75 31c35 -3 28.75 -5 72.5 -5c22.5 0 42.5 0 115 1c0 -3 -1.25 -6 -1.25 -8
c6.25 -2 10 -3 10 -5c-22.5 -97 -66.25 -303 -72.5 -332c-86.25 -376 -86.25 -360 -88.75 -376c-73.75 0 -80 -3 -106.25 -3c-15 0 -36.25 1 -78.75 4c1.25 1 1.25 1 1.25 2c-2.5 6 -2.5 17 -2.5 32z" />
    <glyph glyph-name="asciicircum" unicode="^" horiz-adv-x="282" 
d="M217.5 508c41.25 -75 80 -80 97.5 -123c-86.25 46 -96.25 54 -125 88c-27.5 -34 -62.5 -42 -148.75 -88c17.5 43 85 48 126.25 123h50z" />
    <glyph glyph-name="underscore" unicode="_" horiz-adv-x="631" 
d="M541.25 -108c-6.25 -19 -17.5 -29 -17.5 -33v-1c-48.75 -2 -200 -3 -220 -3c-37.5 0 -148.75 3 -272.5 3c5 9 7.5 9 13.75 28c57.5 -1 193.75 -2 233.75 -2c46.25 0 212.5 1 262.5 8z" />
    <glyph glyph-name="grave" unicode="`" horiz-adv-x="211" 
d="M185 585c26.25 20 46.25 39 57.5 39c12.5 0 22.5 -12 26.25 -26v-6c0 -27 -43.75 -61 -57.5 -72c-11.25 -9 -30 -20 -46.25 -31c17.5 24 32.5 37 42.5 52c5 8 7.5 14 7.5 20c0 19 -17.5 22 -30 24z" />
    <glyph glyph-name="a" unicode="a" 
d="M311.668 95.0029c-5.0625 -17.4463 -6.66797 -26.9277 -6.66797 -37.0029c0 -30 8.75 -44 30 -44c45.6953 0 45 14 78.75 49l1.25 -1c-21.25 -29 -35 -62 -85 -62c-19.9805 0 -50.4434 8.11035 -60.8691 33.1338c20.8691 18.8662 39.8467 56.957 42.5371 61.8691z
M378.76 260.528c0 -12.4756 -1.21582 -15.6133 -45.0098 -98.5303c-11.5771 -21.9209 -56.875 -100.25 -66.25 -109c-6.25 -6 -48.75 -53 -126.25 -53c-45 0 -103.75 37 -103.75 110c0 91 60 183 197.5 183c85.8867 -3.55859 80 -44.4082 80.625 -46.499
c-5.625 -15.5 -35.915 -75.749 -35.915 -75.749c6.28906 19.9893 8.9209 36.3105 8.9209 49.6318c0 53.4902 -32.4492 58.6182 -51.1309 58.6182c-45 0 -78.5 -22 -101 -46c-56.25 -55 -56.5 -121 -56.5 -150c0 -47 35 -69 60 -69c27.5 0 31.25 0 60 17
c55 34 61.25 70 78.75 106c0 0 50 99.5 57.5 119c0 0 10 18 27.5 18c4.1875 0 15.0098 -3.54102 15.0098 -13.4717z" />
    <glyph glyph-name="b" unicode="b" horiz-adv-x="367" 
d="M38.7705 106.537c-10.0205 -5.53711 -11.2607 -12.5293 -26.2705 -24.5371l-1.25 1c15.3037 20.4053 16.2158 31.1045 28.8047 41.9551c-0.992188 -4.95508 -1.28418 -18.418 -1.28418 -18.418zM115.01 178.008c-10.0098 -32.0078 -20.0117 -57.0098 -20.0117 -81.0098
c0 -56 28.75 -83 75 -83c82.5 7 147.5 120 147.5 196c-2.49121 23.9199 -2.5 69 -36.25 69c-29.7471 0 -33.2227 -12.2695 -33.2227 -30.2383c0 -4.68262 0.236328 -9.75293 0.305664 -15.0938c-0.332031 -10.667 -3.33203 -15.667 -12.082 -15.667c-15 0 -20 6 -20 19
s11.25 56 62.5 56c8.75 0 88.75 -6 88.75 -103c0 -101 -95 -190 -195 -190c-18.75 0 -117.5 9 -118.75 98c0 111 128.75 342 138.75 356c5 14 28.75 23 45 23c13.75 0 32.5 -9 32.5 -23c0 -37.0928 -61.3896 -215.568 -124.795 -263.904l17.7109 47.9053
c37.2314 51.4844 73.2598 157.494 80.835 209c-10 -14 -53.75 -93 -75 -134c-18.75 -34 -41.25 -92 -53.7402 -134.992z" />
    <glyph glyph-name="c" unicode="c" horiz-adv-x="330" 
d="M240 293c68.75 0 108.75 -32 108.75 -45c0 -15 -21.25 -26 -32.5 -26c-6.25 0 -17.5 2 -17.5 14c0 10 3.75 19 3.75 24c0 17 -30 19 -60 19c-61.25 0 -162.5 -84 -162.5 -203c0 -54 56.25 -62 78.75 -62c25 0 48.75 4 63.75 17c13.75 11 16.25 21 38.75 21
c47.7734 0 44.375 2 55 10.8799l1.25 -0.879883c-42.5 -61.5 -113.75 -62 -157.5 -62c-22.5 0 -128.75 11 -128.75 97c0 78 71.25 196 208.75 196z" />
    <glyph glyph-name="d" unicode="d" 
d="M311.668 95.0029c-5.0625 -17.4463 -6.66797 -26.9277 -6.66797 -37.0029c0 -30 8.75 -44 30 -44c45.6953 0 45 14 78.75 49l1.25 -1c-21.25 -29 -35 -62 -85 -62c-19.9805 0 -50.4434 8.11035 -60.8691 33.1338c20.8691 18.8662 39.8467 56.957 42.5371 61.8691z
M267.5 53c-6.25 -6 -48.751 -53.0029 -126.251 -53.0029c-45 0 -103.75 37 -103.75 110c0 91 60 183 197.5 183c85.8867 -3.55859 80 -44.4082 80.625 -46.499c-5.625 -15.5 -35.915 -75.749 -35.915 -75.749c6.28906 19.9893 8.9209 36.3105 8.9209 49.6318
c0 53.4902 -32.4492 58.6182 -51.1309 58.6182c-45 0 -77.5 -26 -100 -50c-56.25 -55 -57.5 -117 -57.5 -146c0 -47 35 -69 60 -69c27.5 0 31.25 0 60 17c55 34 61.25 70 78.75 106c0 0 41.875 80 46.25 90c6.75293 10.8037 98.6172 168.326 98.6172 206.917
c0 4.27246 -1.12598 7.08691 -3.61719 8.08398c-29.375 -17.5 -73.8271 -132.425 -89.375 -171.5c-1.9873 5.80078 -5.50781 10.0508 -10.9609 13.8594c58.4043 183.229 94.0215 199.641 125.337 199.641c11.25 0 18.75 -15 18.75 -29c0 -84 -110.541 -247.804 -130 -293
c-9.6875 -22.5 -56.875 -100.25 -66.25 -109z" />
    <glyph glyph-name="e" unicode="e" horiz-adv-x="330" 
d="M130 163l5 11c4.375 -1.25 23.75 -4 51.25 -4c72.5 2 105 64 105 81c0 21 -36.25 28 -61.25 28c-63.75 0 -115 -60 -140 -137c-7.5 -25 -7.5 -44 -7.5 -60c0 -51 36.25 -68 83.75 -68c21.25 0 43.75 2 61.25 16c10 8 16.25 21 35 21h17.5c30.4971 0 25 1 36.5215 12
l0.978516 -1c-38.75 -61 -91.25 -62 -142.5 -62c-46.25 0 -142.5 14 -142.5 95c0 36.5 17.5 80 35 107c27.5 44 62.5 91 160 91c40 0 110 -16 110 -51c0 -6 -6.25 -87 -137.5 -87c-38.75 0 -60.3115 6.5 -70 8z" />
    <glyph glyph-name="f" unicode="f" horiz-adv-x="233" 
d="M65.625 135c-13.125 -4 -18.75 -5.5 -18.75 -23.5c0 -35.5 46.25 -71 103.75 -72c31.25 0.5 49.0635 12.25 69.3545 23.4873l1.25391 -1.00781c-18.4023 -17.4316 -49.9834 -32.9795 -73.7334 -32.9795c-113.75 5 -127.5 57.5 -127.5 94c0 24 31.875 41 54.375 47.5
c-5.625 -24 -8.75 -35.5 -8.75 -35.5zM106.539 65.626c-15.416 4.11816 -25.1963 14.7305 -35.8369 24.3506c3.53125 11.9365 6.27832 21.4912 8.04785 28.0244c66.25 212 67.6191 209.966 126.25 341c6.2627 13.9961 38.75 25 53.75 25c13.75 0 28.75 -6 28.75 -56
c0 -75.6387 -75.2295 -218.42 -128.747 -268.999l16.6436 41.3369c38.4512 52.876 85.8535 152.269 85.8535 220.661c0 20 -3.75 30 -3.75 33c-40 -59 -82.5 -184 -127.494 -313.99c-4.1582 -14.3281 -12.4062 -40.4336 -23.4668 -74.3838zM54.0869 35.0664
c12.6826 -6.66211 25.3838 -10.0488 38.0869 -13.1572l-122.174 -354.908c-22.1895 -61.7891 -78.75 -94 -147.5 -94c-23.75 0 -23.75 2 -28.75 3c6.25 21 13.75 27 22.5 27c26.25 0 31.25 -4 45 -4c23.75 0 44.8477 9.32422 71.25 71
c23.5791 55.0801 85.585 247.93 121.587 365.065z" />
    <glyph glyph-name="g" unicode="g" horiz-adv-x="376" 
d="M242.5 -2c0 0 33.125 12.5 70 66c-28.4736 -83.5244 -73.9189 -208.855 -152.5 -379c-42.5 -74 -106.25 -115 -181.25 -115c-36.25 0 -100 1 -100 58c0 77 221.25 266 322.496 318.494l-14.166 -29.1621c-19.5801 -12.332 -72.9678 -35.9834 -204.58 -162.332
c-12.5 -12 -70 -83 -70 -125c0 -36 37.5 -45 67.5 -45c108.75 0 163.75 154 178.75 196c51.2939 131.48 63.8779 156.582 83.75 217zM250 27c-22.5 -16 -55 -26.999 -86.25 -26.999c-52.5 0 -128.75 31 -128.75 112c0 28 8.75 55 21.25 80c15 26 35 49 60 68
c30 23 63.75 33 116.25 33c30.2334 0 53.8301 -9.79883 72.0986 -20.0723c-6.01855 -19.2393 -9.59863 -39.4287 -17.7236 -57.4287c-1.25 35 -22.4229 63.5 -49.375 63.5c-58.75 0 -103.75 -58 -121.25 -83c-20 -34 -30 -77 -30 -109c0 -72 53.75 -73 68.75 -73
c36.25 0 65 25 88.75 51c27.6152 30.2314 76.25 156 80 191c0 0 13.75 26 40 26c13.5801 0 13.75 -11 13.75 -26c0 -26 -7.5 -53 -33.75 -99c-3.5625 -6.9668 -37.5 -89.5 -93.75 -130z" />
    <glyph glyph-name="h" unicode="h" horiz-adv-x="397" 
d="M51.3613 131.182c-14.4863 -9.68164 -27.8896 -35.1377 -38.8613 -49.1816l-1.25 1c5.41602 9.33301 16.25 37 23.75 46c4.77148 5.72559 25 38 34.375 51.5c-3.125 -10.5 -18.0137 -49.3184 -18.0137 -49.3184zM145 261.5
c-27.5371 -31.4912 -46.0049 -62.9971 -66.2451 -94.499c78.7451 206.998 111.245 304.998 152.495 304.998c12.5 0 26.25 -18 26.25 -37c0 -19.0762 -50.7773 -92.7539 -78.75 -124.5l21.25 51.75c17.4229 24.3174 41.25 63.5146 41.25 70.751c0 4 -1.25 7 -5 7
c-5 0 -13.75 -7 -23.75 -23c-3.64648 -6.28223 -43.0801 -90.7842 -67.5 -155.5zM55.8994 108.725l71.6006 107.274c50 74 95 77 147.5 77c48.75 0 113.75 -8 113.75 -59c0 -65 -105 -141 -105 -188c0 -24 7.5 -32 25 -32c23.3691 0 40 6 77.5 49l1.25 -1
c-25 -36 -38.75 -62 -85 -62c-55 0 -61.25 42 -61.25 59c0 41 107.5 142 108.75 188c0 27 -40 32 -76.25 32c-50 0 -72.5 -26 -166.25 -159c-15 -32 -20 -56 -35 -93c0 0 -15 -27 -33.75 -27c-8.75 0 -20 5 -20 14z" />
    <glyph glyph-name="i" unicode="i" horiz-adv-x="232" 
d="M28.7705 102.537c-7.10449 -6.53711 -4.70801 -9.03711 -16.2705 -20.5371l-1.25 1c8.4375 17 8.71582 25.1045 21.3047 35.9551c-0.992188 -4.95508 -3.78418 -16.418 -3.78418 -16.418zM115.372 153.833l8.45898 27.6309
c17.6064 21.5752 28.6504 48.1348 32.4189 77.5361c-15 -11 -42.5391 -57.9922 -55 -97c-14.375 -45 -20 -62.1055 -20 -99c0 -31 12.5 -49 35 -49c18.75 0 21.25 1 43.75 23c7.5 7 10 14 23.75 14h12.5c13.125 0 14.6885 3.5 22.5 12l1.25 -1
c-8.43848 -11.5 -8.75 -20.5 -36.25 -46c-21.25 -13 -36.25 -16 -53.75 -16c-67.5 0 -95 39 -95 77c0 14 2.5 28 6.25 42c12.5 51 60 170 106.25 170c16.25 0 28.75 -12 28.75 -23c0 -19.4248 -19.166 -74.667 -60.8779 -112.167zM210 461c0 13 27.5 10 27.5 28
c0 4 -5 7 -6.25 9c7.5 3 26.25 10 38.75 10c7.5 0 13.75 -2 13.75 -10c0 -23 -28.75 -47 -55 -47c-7.5 0 -18.75 2 -18.75 10z" />
    <glyph glyph-name="j" unicode="j" horiz-adv-x="202" 
d="M85.625 142c-28.75 -10 -33.125 -18 -73.125 -60l-1.25 1c47.5 70 55.625 60 82.5 79c-6.25 -17 -8.125 -20 -8.125 -20zM106.25 136c17.5 61 37.5 120 47.5 132c13.75 19 28.75 27 36.25 27c10 0 12.5 -14 12.5 -27c0 -50 -17.5 -71 -36.25 -108
c-5 -6 -6.03125 -14.2373 -8.75 -22c-63.75 -182 -100 -277 -175 -453c-26.25 -63 -108.75 -115 -183.764 -115.001c-23.75 0 -72.4863 1.00098 -77.4863 2.00098c6.25 21 13.75 27 22.5 27c26.25 0 45 -15 56.25 -15c111.25 2 142.5 108 178.75 197
c36.8623 90.5059 122.5 337 127.5 355zM216.25 461c0 11 28.75 10 28.75 27c0 5 -5 7 -6.25 9c7.5 3 26.25 11 38.75 11c6.25 0 13.75 -3 13.75 -10c0 -27 -33.75 -48 -56.25 -48c-10 0 -18.75 4 -18.75 11z" />
    <glyph glyph-name="k" unicode="k" horiz-adv-x="383" 
d="M51.3613 129.182c-4.24902 -2.37891 -7.04395 -4.86328 -10.1113 -7.18164c-10.5508 -7.97168 -18.334 -26.667 -28.75 -40l-1.25 1c5.41602 9.33301 16.25 32 23.75 41c4.77148 5.72559 13.125 15.5 22.8096 19.8477
c-4.68457 -9.34766 -6.44824 -14.666 -6.44824 -14.666zM190 330.001c-3.43848 -19 -11.874 -47.25 -21.249 -71l-31.25 -78c68.75 40 75 36 178.75 106c8.75 3 16.25 5 22.5 5s11.25 -2 11.25 -10c0 -12 0 -56 -33.75 -56c1.66602 3.16699 2.91602 4.33301 4.16797 7.49609
c3.2666 0.0888672 4.36816 9.1709 4.36816 9.1709s0.270508 12.2207 1.46387 20.333c-3.75 0 -21.666 -28.667 -27.5049 -33.0039c-49.9951 -30.9961 -143.745 -69.9961 -143.745 -76.9961c0 -33 82.5 -139 141.25 -139c32.6797 0 48.75 25 73.75 49l1.25 -1
c-22.5 -31 -47.5 -62 -87.5 -62c-82.5 0 -161.25 126 -161.25 134c-17.5 -17 -22.5 -40 -28.75 -55c-12.5 -34 -20 -80 -50 -80c-7.5 0 -15 3 -15 12c0 34 96.25 255 96.25 255c21.25 61 71.25 208 118.75 208c11.25 0 32.5 -17 32.5 -37c0 -28 -43.75 -87 -53.75 -103
c-5.33496 -6.8291 -11.8086 -16.3896 -19.2266 -27.2832c5.39355 19.2842 9.05957 37.2842 13.2881 55.6211c27.4346 40.6338 37.208 62.084 37.208 71.8467c0 4.84961 -2.41309 6.81543 -6.27051 6.81543c-3.75 0 -15 -6 -26.25 -24c-17.5 -28 -31.25 -83 -31.25 -87z
M216.562 362.338z" />
    <glyph glyph-name="l" unicode="l" horiz-adv-x="322" 
d="M42.5205 102.537c-10.0205 -5.53711 -15.0107 -8.5293 -30.0205 -20.5371l-1.25 1c15.3037 20.4053 23.7158 27.1045 36.3047 37.9551c-0.992188 -4.95508 -5.03418 -18.418 -5.03418 -18.418zM126.251 161.004l-7.50098 -21.0039
c-9.6748 -32.8984 -14.9248 -58.0918 -14.9248 -76.9814c0 -35.8789 18.9336 -49.0186 62.4248 -49.0186c21.25 0 36.25 0 53.75 15c10 7 17.5 22 35 22c5 0 5 -1 17.5 -1c30.9189 0 25.416 0.333008 36.25 13l1.25 -1
c-32.6914 -57.6475 -88.0371 -62.1543 -122.96 -62.1543c-6.47266 0 -12.2451 0.155273 -17.04 0.155273c-89.1904 0 -113.868 36.4814 -113.868 74.6729c0 14.8662 3.74023 29.9932 8.86816 43.3271c17.5 51 68.75 191 142.5 328c7.5 14 37.5 23 53.75 23
c22.5 0 23.75 -15 23.75 -27c0 -15 -3.75 -68 -53.75 -154c-30.2305 -51.4883 -60.459 -108.452 -88.9072 -134.338c2.86621 14.6709 12.4502 36.8398 12.4502 36.8398c20.2285 28.0117 35.6729 65.2705 55.207 101.497c32.5 57 47.5 111 50 149
c-15 -22 -41.25 -66 -53.75 -95z" />
    <glyph glyph-name="m" unicode="m" horiz-adv-x="617" 
d="M72.7754 161.247c-18.5908 -29.5771 -41.4775 -58.0566 -60.2754 -79.2471l-1.25 1c14.6045 21.3047 42.5605 57.7529 64.9395 96.7793zM364.995 221.997c0 0 50.0049 71.0039 138.755 71.0039c52.5 0 88.75 -7 88.75 -53c0 -79 -87.5 -145 -91.25 -200
c0 -17 1.25 -26 26.25 -26c6.25 0 20 0 26.25 3c33.8828 16.457 32.5 25 50 46l1.25 -1c-12.5 -25.667 -18.75 -37 -48.75 -55c-12.5 -6 -23.75 -7 -36.25 -7c-33.75 0 -62.5 18 -62.5 47c0 43 92.5 136 92.5 204c0 26 -20 28 -32.5 28c-43.75 0 -97.5 -38 -115 -66
c-31.25 -42 -90 -169 -106.25 -203c-3.75 -6 -8.75 -10 -18.75 -10c-13.75 0 -22.5 3 -22.5 12s5 20 8.75 28c23.2422 50.9316 66.666 139.667 101.245 181.996zM66.999 73.0771l34.251 151.924l10 33c5 11 12.5 35 36.25 35c16.25 0 22.5 -11 22.5 -21
c0 -20 -21.25 -49 -27.5 -54c-7.08398 -15 -7.96094 -20.3564 -17.0859 -53.999c-6.66406 -14.668 -58.415 -90.9248 -58.415 -90.9248zM114.999 121.997c47.085 85.0039 52.501 96.0039 81.251 130.004c17.5 21 65 41 100 41c41.4287 0 64.79 -20.5391 70.084 -46.3574
c0 0 -24.668 -23.6426 -37.998 -47.1309c2.65039 10.8369 5.41406 29.208 5.41406 36.4883c0 18 -1.25 43 -32.5 43c-40 0 -68.75 -37 -87.5 -64c-51.25 -73 -76.25 -131 -120 -203c-3.75 -7 -11.25 -12 -20 -12c-10 0 -22.5 3 -22.5 13c0 7 2.5 10 5 14
c2.90039 10.8271 45 74.333 58.749 94.9961z" />
    <glyph glyph-name="n" unicode="n" horiz-adv-x="440" 
d="M72.7754 161.247c-18.5908 -29.5771 -41.4775 -58.0566 -60.2754 -79.2471l-1.25 1c14.6045 21.3047 42.5605 57.7529 64.9395 96.7793zM185.625 241.501c0 0 40.625 51.5 129.375 51.5c52.5 0 100 -7 100 -53c0 -79 -87.5 -145 -91.25 -200c0 -17 1.25 -26 26.25 -26
c6.25 0 20 0 26.25 3c33.8828 16.457 32.5 25 50 46l1.25 -1c-11.25 -24.5 -18.75 -37 -48.75 -55c-12.5 -6 -23.75 -7 -36.25 -7c-33.75 0 -62.5 18 -62.5 47c0 43 92.5 136 92.5 204c0 26 -31.25 28 -43.75 28c-43.75 0 -91.875 -28.5 -109.375 -56.5
c-31.25 -42 -105.625 -178.5 -121.875 -212.5c-3.75 -6 -8.75 -10 -18.75 -10c-13.75 0 -22.5 3 -22.5 12s3.85645 20.4053 8.75 28c31.25 48.5 92.5 153.5 120.625 201.5zM66.999 73.0771l34.251 151.924l10 33c5 11 12.5 35 36.25 35c16.25 0 22.5 -11 22.5 -21
c0 -20 -21.25 -49 -27.5 -54c-7.08398 -15 -7.96094 -17.3564 -17.0859 -50.999c-6.66406 -14.668 -58.415 -93.9248 -58.415 -93.9248z" />
    <glyph glyph-name="o" unicode="o" horiz-adv-x="375" 
d="M318.546 51.9229c3.65625 -2.76367 7.93555 -3.92285 13.9531 -3.92285c10.749 0 16.25 0 28.75 15l1.25 -1c-3.75 -13 -18.75 -20 -30 -20c-7.35254 0 -13.5049 0.240234 -18.8955 2.0166c3.89648 4.9834 4.94238 7.90625 4.94238 7.90625zM307.499 67
c-26.875 -42.75 -66.249 -67 -129.999 -67c-133.75 0 -140 85 -140 97c0 114 106.25 196 172.5 196c19.7129 0 33.1445 -6.62305 41.7979 -14.7412c0.0771484 -8.92578 0.286133 -23.9258 0.581055 -31.7822c-5.23535 0.654297 -13.8086 1.8291 -19.8799 2.52344
c-5 18 -12.5 30 -22.5 30c-17.5 0 -125 -51 -125 -199c0 -30 22.5 -66 72.5 -66c94.1387 0 140 113.466 140 174c0 21 -7.5 40 -13.75 61c0 -5 0 -6 -1.25 -9c-1.25 -9 -23.75 -41 -23.75 -81c0 -9.91211 5 -22.333 9.29492 -31.9336
c-3.04492 -7.06641 -10.0928 -17.7275 -10.0928 -17.7275c-4.46875 13.1387 -12.9521 29.623 -12.9521 43.6611c0 47 26.25 94 26.25 94c-1.25 6 -1.25 13 -1.25 20c0 12 3.75 24 16.25 24c5 0 29.624 -8.09766 37.5 -27c12.7451 -30.5889 20.4727 -56.623 20.4727 -84.0771
c0 -32.3936 -10.7578 -66.7637 -36.7227 -112.923z" />
    <glyph glyph-name="p" unicode="p" horiz-adv-x="421" 
d="M115.776 178.562c6.63086 31.6777 14.2236 77.4961 14.2236 92.4375c0 4 -1.25 5 -6.25 5c-21.25 -5 -23.75 -104 -111.25 -194l-1.25 1c62.5 86 84.418 207.025 110 208c0 0 8.75 1 12.5 1c6.25 0 11.25 -5 11.25 -24c0 -18.5078 -3.62109 -38.6484 -7.5 -61.3369
c-7.55762 -6.59375 -21.7236 -28.1006 -21.7236 -28.1006zM341.293 60.0371c0 0 -19.418 1.71191 -31.623 12.7881c18.375 34.7598 46.5801 101.838 46.5801 152.174c0 30 -5 54 -32.5 54c-79.0049 0 -176.798 -156.062 -218.75 -212
c-112.159 -165.099 -181.25 -410.641 -181.25 -437c2.5 -1 3.75 -2 6.25 -2c32.9053 0 120.365 266.684 159.585 387.007c0 0 25.415 40.3262 33.335 49.3721c-23.0566 -124.214 -119.953 -392.433 -166.67 -455.379c-12.5 -18 -26.25 -35 -46.25 -35
c-22.5 0 -36.25 19 -36.25 39c0 0.174805 38.6758 228.003 255 554c73.75 111 160 126 188.75 126c33.75 0 90 -10 90 -69c0 -39.9932 -18.3809 -109.397 -66.207 -163.962zM280.84 33.0938c0 0 9.7832 -8.34473 20.8916 -11.4287
c-14.9043 -9.95605 -39.4893 -21.666 -61.7334 -21.666c-32.5 0 -51.25 23 -51.25 32c0 24 13.75 50 52.5 50c16.25 0 40 -9 60 -24c12.1885 -8.25 19.6885 -13 36.5625 -13c26.416 0 49.6885 4 69.6885 18l1.25 -1c-25.625 -30 -61.875 -30 -81.25 -30
c-12.5039 0 -25.8965 4.91309 -34.999 13c-13.75 11 -40 23 -47.5 23c-30 0 -35 -19 -35 -36c0 -9 15 -15 28.75 -16c22.0479 0 31.9414 7.02148 42.0898 17.0947z" />
    <glyph glyph-name="q" unicode="q" horiz-adv-x="371" 
d="M323.75 256c0 0 13.75 26 40 26c13.5801 0 13.75 -11 13.75 -26c0 -26 -7.5 -53 -33.75 -99c-3.5625 -6.9668 -37.5 -89.5 -93.75 -130c-22.5 -16 -55 -27 -86.25 -27c-52.5 0 -128.75 31 -128.75 112c0 28 8.75 55 21.25 80c15 26 35 49 60 68c30 23 63.75 33 116.25 33
c30.2334 0 55.0801 -9.79883 73.3486 -20.0723l-19.5986 -51.9277c-1.25 35 -21.7979 58 -48.75 58c-58.75 0 -103.75 -58 -121.25 -83c-20 -34 -30 -77 -30 -109c0 -72 28.6719 -73 68.75 -73c43.75 0 65 25 88.75 51c27.6152 30.2314 76.25 156 80 191zM312.5 64
c-106.25 -287 -198.75 -452 -198.75 -452c0 -1 5 -1 7.5 -1c3.75 0 28.6729 17.9375 38.75 26c22.5 18 42.5811 30.3906 57.5 40.1738l1.25 -1.17383c-18.75 -30 -43.75 -54 -77.5 -83c-17.5 -15 -61.25 -29 -76.25 -29c-7.5 0 -12.5 4 -12.5 13c0 7.46289 31.25 64 190 423
c0 0 33.125 10.5 70 64z" />
    <glyph glyph-name="r" unicode="r" horiz-adv-x="370" 
d="M206.05 239.552l-36.2744 -61.8555c3.70703 14.9912 5.04102 28.9482 6.62695 45.0283c0 17.8789 -3.22656 47.2754 -37.6523 47.2754c-29.375 0 -43.4463 -34.2432 -43.75 -35c-11.25 -28 -15.625 -73 -82.5 -153l-1.25 1c22.5 38 47.9209 72.249 67.5 159
c8.125 36 40 48 63.75 48c28.1191 0 60.5967 -17.3184 63.5498 -50.4482zM208.75 211c5 9 12.5 21.667 17.5 33c5.40723 12.2588 13.75 28.5 16.25 41c2.5 4 7.5 8 12.5 8c10 0 31.25 -8 31.25 -16c0 -13.9141 -0.72168 -26.3418 -0.72168 -36.0908
c0 -13.5391 18.8027 -21.9092 36.9717 -21.9092c21.25 0 48.75 3 48.75 21c16.25 13 23.75 25 26.25 25c15 0 22.5 -8.25 22.5 -11c0 -28 -42.5 -53 -83.75 -53c-48.75 0 -68.75 22 -72.5 28c-1.70605 3.60352 -3.68164 5.18652 -5.41406 5.18652
c-2.46582 0 -4.43945 -3.21191 -4.43945 -8.36328c0 -2.26758 0.381836 -4.91113 1.27344 -7.82324c-36.0674 -53.333 -65.1699 -108.5 -90.1699 -160c-3.75 -19 -10 -36 -20 -52c-3.75 -4 -8.75 -6 -13.75 -6c-10 0 -31.25 4 -31.25 13c0 14 10 20 25 49
c21.1729 47.1436 60 109 83.75 149z" />
    <glyph glyph-name="s" unicode="s" horiz-adv-x="312" 
d="M167.5 271.188c1.875 12.8125 6.58398 21.2793 11.25 21.8125h1.25c10 0 28.75 -18 43.75 -32c3.75 -19 3.75 -25 10 -44c15 -44 58.75 -74 60 -127c-1.25 -73 -85 -90 -135 -90c-107.5 0 -121.25 66 -121.25 66c0 3 0 5 1.25 10c6.25 1 12.5 3 17.5 3
c15 0 26.25 -5 42.5 -12c5 -4 7.5 -8 7.5 -11c0 -10 -20 -15 -20 -23c0 -11 28.75 -19 56.25 -19c22.5 0 101.25 16 101.25 80c0 18 -6.25 45 -50 100c-7.58496 9.10254 -26.25 40 -26.25 77.1875zM157.653 210.493c-16.8291 -12.1533 -41.3857 -24.4795 -52.6533 -33.4932
c-23.125 -18.5 -18.75 -12 -57.5 -49l-1.25 1c57.5 67 31.25 37 75 78c12.8301 12.6318 22.543 19.2646 30.3691 30.4199c0.0195312 -11.4395 1.71582 -20.8057 6.03418 -26.9268z" />
    <glyph glyph-name="t" unicode="t" horiz-adv-x="348" 
d="M212.955 300.562c-9.54883 2.0791 -20.1592 4.3457 -23.9961 5.4375c-22.4629 5.13477 -36.334 10 -45.209 10c-31.25 0 -33.75 -27 -45 -27c-7.5 0 -23.75 6 -23.75 9c21.25 28 31.25 31 52.5 31c13.791 0 7.38281 -1.20801 68.9541 -16.498
c3.23047 -0.75 11.9346 -2.37695 19.9844 -3.93945zM63.1875 117.963c-19.2559 -9.76855 -33.6045 -23.2949 -50.6875 -35.9619l-1.25 1c18.75 19.333 37.3584 34.874 55.0176 44.7012c-2.51758 -6.45117 -3.08008 -9.73926 -3.08008 -9.73926zM154.974 295.822
l43.8301 -9.20312c-12.6133 -31.2412 -41.0449 -101.299 -52.5537 -126.618c-15.625 -37.75 -22.5 -84 -22.5 -91c0 -51 36.25 -55 71.25 -55c20 0 36.25 1 53.75 16c21.6533 19.7979 16.999 19.9941 42.54 19.9941h7.84082
c30.8691 0.00585938 25.0352 3.67285 35.8691 13.0059l1.25 -1c-12.5 -17 -14.584 -22.667 -47.5 -44c-26.9863 -17.4902 -48.75 -18 -96.25 -18c-31.25 0 -61.25 4 -86.25 17c-11.25 8 -30 19 -30 58c0 15 7.1875 42.25 12.5 56c20.501 57.4004 41 109.819 66.2236 164.821
zM265.841 292.84l2.61426 7.69922c4.84473 -0.326172 9.44336 -0.538086 14.0449 -0.538086c28.75 0 42.5 8 65 34h1.25c6.25 -5 15 -11 17.5 -19c-21.25 -13 -37.5 -25 -70 -25c-6.04492 0 -30.4092 2.83887 -30.4092 2.83887zM250.005 302.004
c-40.1025 -83.8047 -55.0039 -115.003 -80.0039 -133.003l10.1113 29.3203c20.4082 27.541 29.1299 57.0605 52.3887 106.68c21.25 51 33.75 99 37.5 135l-53.6963 -115.452l-43.082 10.5215l51.7783 111.931c6.25 13 31.25 22 46.25 22c22.5 0 25 -17 25 -23
c0 -42 -45 -141.5 -46.2461 -143.997z" />
    <glyph glyph-name="u" unicode="u" horiz-adv-x="457" 
d="M295.938 44.5332c-18.0029 -24.6367 -44.291 -44.5332 -125.937 -44.5332c-72.5 0 -103.75 51 -103.75 89c0 9 1.25 35.75 5 51c8.75 28 33.75 155 93.75 155c18.75 0 32.5 -5 32.5 -23c0 -9.79688 -13.3652 -56.085 -58.3457 -100.706
c0 0 5.42871 18.7061 10.0088 30.04c13.9609 18.166 32.0859 58.6523 32.0859 71.666c0 3 -1.25 9 -11.25 9c-11.25 -10 -37.126 -73.5088 -46.25 -101c-12.5 -37.667 -20 -47.667 -20 -95c0 -34 18.75 -72 65 -72c68.9648 0 96.1699 32.7588 121.25 93.334
c-0.575195 -5.98633 -0.832031 -16.6846 -0.832031 -21.9961c0 -17.0889 3.51172 -24.6826 6.76953 -40.8047zM51.3613 119.182c-4.24902 -2.37891 -7.04395 -4.86328 -10.1113 -7.18164c-10.5508 -7.97168 -18.334 -16.667 -28.75 -30l-1.25 1
c5.41602 9.33301 16.25 22 23.75 31c4.77148 5.72559 10.4141 12.4971 17.8096 19.8477c-0.93457 -8.59766 -1.44824 -14.666 -1.44824 -14.666zM314.307 169.021c9.83887 24.4854 22.1182 55.25 41.9434 112.979c5 8 18.75 11 28.75 11c12.5 0 23.75 -6 23.75 -15
c0 -39 -63.75 -134.062 -63.75 -195c0 -51 15 -69 32.5 -69c20 0 27.5 0 47.5 16c5 4.66699 11.25 18.333 18.75 33l1.25 -1c-11.25 -28 -12.5 -39 -36.25 -54c-12.5 -6 -23.75 -8 -32.5 -8c-57.8574 0 -71.7314 50.4639 -71.7314 96.916
c0 31.6221 6.42773 61.3848 9.78809 72.1045z" />
    <glyph glyph-name="v" unicode="v" horiz-adv-x="390" 
d="M103.153 189.126c-29.7432 -45.8447 -62 -85.9023 -90.6533 -107.127l-1.25 1c30.4971 34.4443 64.3203 85.2666 83.3311 127.666c2.35449 -9.88086 5.46191 -15.7217 8.57227 -21.5391zM180 1.99805c-2.5 -1 -6.24805 -2 -8.74805 -2c-10 0 -38.75 2 -38.75 12
c0 3 3.75 7 13.75 10c21.25 12 23.75 27 23.75 48c0 83 -35 82 -52.5 140c-4.68848 15 -7.8125 24.5 -8.75098 38c0 7 3.75 21 8.75 30c3.75 7 11.25 15 22.5 15c12.5 -1 17.5 -11 17.5 -19c0 -8.54492 -1.25 0.0166016 -1.25 -47c1.25 -41 45 -80 53.75 -120
c3.79102 -16.1748 5.85156 -30.6387 5.85156 -43.4238c0 -29.0879 -10.6641 -49.4854 -35.8525 -61.5762zM237.556 82.8672c0 0 -2.96973 24.1318 -9.03711 41.1367c23.5596 19.1875 47.9863 31.4072 67.7324 47.9941c26.25 21 53.75 50 53.75 81c0 12 -1.25 14 -8.75 14
c-16.25 0 -26.25 -34 -32.5 -34h-5c0 21 22.5 60 38.75 60c45 -1 52.5 -24 53.75 -43c0 -35 -28.75 -70 -61.25 -93c-22.0127 -17.6104 -65.1992 -38.0645 -97.4453 -74.1309z" />
    <glyph glyph-name="w" unicode="w" horiz-adv-x="503" 
d="M355.626 133.645c0 0 -20.001 -18.1455 -32.8135 -39.3955c0 39 -14.0625 83.75 -19.0625 122.75c-2.34375 11.125 -7.5 24 -7.5 33c0 8 5 32 27.5 32c15 -3 18.75 -15 18.75 -27c0 -10 -3.75 -21 -3.75 -26c0 -32.376 11.3828 -63.5039 16.876 -95.3545zM357.5 107.999
c24.6875 34.25 115 85.4121 115 147c0 3 0 17 -10 17c-13.75 0 -22.5 -26 -28.75 -37c1.25 16 8.75 58 37.5 58c35 0 38.75 -22 38.75 -40c0 -82.8271 -125.807 -136.605 -155 -202c-13.75 -18 -21.25 -51 -43.75 -51c-21.25 0 -28.75 5 -28.75 10c0 3 1.25 8 8.75 12
c23.2285 16.0488 25.9375 37.25 66.25 86zM286.11 202.983c-8.67188 -6.05371 -19.0996 -12.8525 -28.6094 -19.9844c-40 -30 -45 -38 -91.25 -99c-7.5 -18 -16.25 -34 -22.5 -52c-5 -16 -18.75 -32 -40 -32c-8.75 0 -21.25 5 -21.25 20c0 9 5 19 11.25 25
c27.5 33 26.334 20.0205 42.5 50c9.16602 17 30 43 61.2471 72.9941c14.3682 13.9609 51.5029 35.6328 81.1445 62.8936c1.0459 -8.2627 7.46777 -27.9033 7.46777 -27.9033zM200.938 201.498c0 0 -33.2246 -27.0166 -45.3125 -41.749
c8.58008 35.4629 13.125 62.9932 13.125 64.25c0 31 -13.75 58 -45 58c-12.5 0 -12.5 -4 -18.75 -8c-22.5 -16 -39.166 -129.333 -92.5 -192l-1.25 1c56.666 91.667 44.2627 123.948 83.75 197c5 6 16.25 13 27.5 13c22.5 0 46.25 -8 63.75 -22
c12.5 -12 16.25 -31 16.25 -49c0 -4.66016 -1.07031 -15.8525 -1.5625 -20.501z" />
    <glyph glyph-name="x" unicode="x" horiz-adv-x="392" 
d="M258.051 171.793c0 0 6.11426 43.873 6.5293 63.8711c14.4404 25.1914 36.6895 57.335 76.6699 57.335c55 0 81.25 -14 85 -41c-1.25 -1 -38.75 -10 -40 -10c-6.25 0 -3.75 37 -36.25 37c-12.5 0 -25 -6 -36.25 -16
c-21.5908 -19.6729 -41.1709 -54.3115 -55.6992 -91.2061zM206.24 152.996c4.38379 26.5029 8.75879 51.0029 8.75879 76.0029c0 40 -17.5 50 -41.25 50c-42.7959 0 -87.9844 -56.541 -113.335 -87h-1.66504c56.25 90 98.75 101 127.5 101c43.75 0 58.75 -37 58.75 -69
c0 -4 -1.25 -9 -1.25 -14c-8.75 -70.5 -16.25 -120.87 -16.25 -150c0 -27 21.25 -45 41.25 -46c34.7617 1.98633 48.75 -5 108.75 49l1.25 -1c-32.5 -39 -61.25 -62 -115 -62c-36.25 0 -65.834 37 -65.834 58c0 5 6.66797 82.333 8.3252 94.9971zM179.375 48.4941
c-21.7383 -27.1328 -53.1367 -48.4951 -83.1279 -48.4951c-55 0 -56.25 27 -58.75 43c7.5 1 23.75 3 30 3c0 0 1.25 0 1.25 -1c1.25 0 1.25 -2 1.25 -3c0 -4 -1.25 -8 -1.25 -13c0 -7 3.75 -15 21.25 -15c12.5 0 28.75 5 40 16
c22.1904 20.2881 39.1357 47.4951 51.667 74.666c-2.01562 -26.2676 -2.4375 -40.3506 -2.4375 -48.416c0 -3.60156 0.0839844 -6.00391 0.148438 -7.75488z" />
    <glyph glyph-name="y" unicode="y" horiz-adv-x="408" 
d="M252.919 -5.99707c17.0811 5.99707 34.5811 22.4971 70 66c-28.4736 -83.5244 -71.8379 -204.858 -150.419 -375.003c-42.5 -74 -106.25 -115 -181.25 -115c-36.25 0 -100 1 -100 58c0 77 221.25 266 322.496 318.494l-14.166 -29.1621
c-19.5801 -12.332 -72.9678 -35.9834 -204.58 -162.332c-12.5 -12 -70 -83 -70 -125c0 -36 37.5 -45 67.5 -45c108.75 0 163.75 154 178.75 196c51.2939 131.48 61.7959 152.585 81.6689 213.003zM50.5391 131.316c-0.104492 -1.41309 -0.166016 -3.58203 -0.166016 -6.0498
c0 -2.88672 0.0849609 -6.18555 0.28125 -9.16797c-3.73438 -2.69238 -7.01074 -5.2959 -10.6543 -8.09863c-8.125 -6.25 -22.5 -19 -27.5 -26l-1.25 1c2.5 10 17.7158 27.2158 27.5 37zM357.5 146.999c-25 -45.5 -81.877 -116 -101.877 -130.5
c-20 -13 -63.125 -16.5 -85.625 -16.5c-80.7188 0 -100.294 83.6875 -100.294 123.965c0 16.6523 6.77734 32.8086 15.2939 64.0352c21.5713 79.0957 31.25 105 77.5 105c30.0215 0 36.251 -5.66895 36.251 -22c0 -8.82812 -7.09668 -51.1709 -53.1875 -97.4365
c0 0 5.27246 20.1035 9.84961 34.1045c17.1738 24.1816 25.8389 53.2705 25.8389 65.3311c0 3 -1.25 9 -11.25 9c-11.25 -10 -36.25 -73 -42.5 -101c-0.250977 -1.89355 -16.5303 -56.2412 -16.5303 -97.6973c0 -37.1299 15.29 -69.3018 61.5303 -69.3018
c61.25 0 101.25 48.5 120 89c21.25 54 46.25 135 71.25 179c8.75 9 13.75 11 18.75 12c21.25 0 26.25 -5 26.25 -23c0 -58 -38.75 -103 -51.25 -124z" />
    <glyph glyph-name="z" unicode="z" horiz-adv-x="367" 
d="M237.474 218.284c-47.1797 11.1846 -90.9453 34.0127 -97.4736 42.7168c-5 5.33301 -5.41602 6 -17.5 6c-20 0 -55.2314 -46.2041 -60 -68l-4.16797 1.66504c4.16797 16.835 36.668 92.335 85.418 92.335c22.5 -2 28.75 -30 36.25 -37
c13.1191 -12.4629 46.3125 -22.1934 67.4463 -26.6025c-4.94629 -6.06543 -9.97266 -11.1143 -9.97266 -11.1143zM153.74 63.002c16.2588 -9.00098 77.5078 -48.001 110.008 -48.001c25 0 38.75 32 50 32h13.75c8.55371 0 10 0 26.25 16l1.25 -1
c-33.75 -47 -33.75 -62 -77.5 -62c-27 0 -62.916 10.2939 -135 51c-5.84668 3.50781 -9.70996 4.88281 -12.1729 4.88281c-2.84375 0 -3.81641 -1.83301 -3.81641 -4.33398c0 -4.59375 3.29004 -11.4385 4.32422 -13.2979c-22.918 -24.584 -37.918 -38.251 -63.334 -38.251
c-7.5 0 -33.75 3 -33.75 19c0 8 16.25 57 80 57c16.9561 -0.426758 27.084 -6 39.9912 -12.999zM164.966 74.8887c-11.2178 5.7793 -22.0957 13.3496 -39.3838 13.7832c35.416 35.4004 75.7168 69.6406 140.662 138.328c40.0039 42.001 60.0039 65.001 95.0039 65.001
c15 0 23.75 -6 23.75 -14c0 -19.916 -56.666 -54.6387 -56.666 -54.6387c7.09375 12.9629 9.95703 19.8428 9.95703 22.5469c0 0.952148 -0.353516 1.38672 -1.00586 1.38672c-4.33887 0 -21.8281 -19.333 -34.7852 -33.2949
c-41.2217 -49.9365 -66.0771 -67.251 -137.532 -139.112z" />
    <glyph glyph-name="braceleft" unicode="{" horiz-adv-x="403" 
d="M88.75 242c-1.7002 -3.85254 -14.2383 -5.85449 -27.4404 -5.85449c-15.9229 0 -32.8115 2.91504 -32.8115 9.01562c0 23.6201 23.6348 34.4102 47.752 40.8408c33.6396 8.9707 135.787 49.7402 135.787 138.601c0 30.666 -11.4893 57.6572 -11.4893 87.1748
c0 58.0488 49.1543 112.445 126.906 112.445c79.3271 0 117.14 -57.8623 117.14 -91.1846c0 -24.2666 -21.543 -33.166 -40.6475 -33.166c-8.58984 0 -16.4922 1.74902 -21.4473 4.12793c-5.05762 2.02344 -10.1475 11.8672 -10.1475 20.4463
c0 7.22559 3.61133 13.5537 13.8984 13.5537c3.46973 -2.2207 23.1602 -14.7061 34.7227 -14.7061c4.99512 0 8.47168 2.33008 8.47168 8.82227c0 7.28613 -27.6729 66.5107 -117.976 66.5107c-77.4502 0 -95.4629 -57.752 -95.4629 -83.9688
c0 -30.4365 18.9121 -55.2715 18.9121 -91.8975c0 -110.509 -129.831 -150.702 -146.168 -180.761zM99.6504 227.502c57.1025 -53.2881 105.605 -63.4521 105.605 -156.601c0 -45.7314 -29.6074 -65.4727 -29.6074 -101.41c0 -25.4531 16.2227 -89.4883 104.353 -89.4883
c22.5 0 32.5 -4 32.5 -9c0 -6 -13.75 -13 -35 -13c-89.2324 4.32617 -117.97 73.9736 -117.97 113.183c0 39.5771 27.1875 64.2256 27.1875 104.131c0 62.2764 -48.3916 90.9209 -114.219 130.686c-16.8604 10.1162 -28.9639 12.626 -36.25 19.5
c8.4541 -3.64844 19.2041 -5.42578 29.8477 -5.42578c12.6982 0 25.2432 2.5293 33.5527 7.42578z" />
    <glyph glyph-name="bar" unicode="|" horiz-adv-x="127" 
d="M80 594c-1.25 -46 -2.5 -276 -2.5 -308c0 -37 1.25 -372 10 -412c-8.75 -5 -31.25 -13 -42.5 -15c-3.75 39 -5 362 -5 378c0 30 3.75 240 3.75 339c0 3 25 10 36.25 18z" />
    <glyph glyph-name="braceright" unicode="}" horiz-adv-x="467" 
d="M323.532 216.297c0 0 26.9043 -11.0605 51.0615 -11.0605c5.85449 0 11.5479 0.650391 16.6562 2.26367c-6.45996 -7.30176 -16.8711 -11.332 -40 -17.5c-32.5264 -7.65332 -140.595 -45.3389 -140.595 -139.826c0 -27.4805 8.44434 -52.375 8.44434 -78.9023
c0 -60.6709 -50.7207 -113.798 -126.804 -113.798c-79.9131 0 -118.431 57.2568 -118.431 92.6973c0 25.2412 22.7959 33.957 42.1104 33.957c18.6084 0 34.6748 -5.24414 34.6748 -30.3428c0 -7.97852 -5.44043 -10.8369 -10.0068 -10.8369
c-11.5439 0 -33.4814 18.2656 -44.5986 18.2656c-4.1748 0 -6.82324 -2.5752 -6.82324 -9.66016c0 -9.62305 29.7725 -69.1084 119.143 -69.1084c76.3213 0 95.4014 59.8896 95.4014 85.3701c0 28.1445 -15.791 52.3848 -15.791 86.2676
c0 96.5967 94.749 135.038 135.558 162.214zM339.998 230.999c-15.25 39.3096 -110.566 71.1611 -110.566 174.295c0 49.0674 33.2207 68.0615 33.2207 106.649c0 27.8711 -19.2812 88.0547 -96.4033 88.0547c-22.5 0 -31.25 5 -31.25 10c0 6 11.25 13 28.75 13
c46.3779 0 115.942 -39.6885 115.942 -112.896c0 -42.625 -31.2324 -67.0781 -31.2324 -109.801c0 -62.2051 49.5518 -92.626 109.04 -130.303c27.8467 -16.708 42.7686 -23.0771 42.7686 -39.8994c-0.5625 -4.8418 -7.31934 -6.52832 -16.2158 -6.52832
c-15.1729 0 -36.5674 4.90625 -44.0537 7.42871z" />
    <glyph glyph-name="asciitilde" unicode="~" horiz-adv-x="345" 
d="M23.75 188c22.5 28 36.25 43 47.5 43c40 0 105 -36 138.75 -36c38.75 0 47.5 15 68.75 32c5 -5 15 -11 17.5 -19c-21.25 -13 -37.5 -33 -70 -33c-61.25 0 -100 37 -133.75 37c-31.25 0 -35 -33 -47.5 -33c-3.75 0 -11.25 1 -21.25 9z" />
    <glyph glyph-name="uni009D" horiz-adv-x="473" 
 />
    <glyph glyph-name="exclamdown" unicode="&#xa1;" horiz-adv-x="242" 
d="M188.75 552c-12.5 0 -25 11 -25 21c0 24 21.25 27 33.75 27c20 0 25 -4 27.5 -10c0 -37 -23.75 -38 -36.25 -38zM25 -1c0 17 116.25 385 116.25 419c0 2 0 4 3.75 4c7.5 0 23.75 -8 23.75 -12c-2.5 -13 -70 -250 -70 -365c0 -21 0 -36 1.25 -46c-25 0 -36.25 4 -50 4
c-6.25 0 -16.25 -1 -25 -4z" />
    <glyph glyph-name="cent" unicode="&#xa2;" horiz-adv-x="323" 
d="M261.822 278.163c0 0 1.92773 9.16895 2.5332 12.8574c50.2217 -7.18262 78.1445 -31.8027 78.1445 -43.0205c0 -15 -21.25 -26 -32.5 -26c-6.25 0 -17.5 2 -17.5 14c0 10 3.75 19 3.75 24c0 12.0283 -15.0176 16.5469 -34.4277 18.1631zM145.001 35.333l53.7529 234.674
l29.9961 125.992c0 3 25 10 36.25 18c-1.25 -7 -11.25 -56 -26.2529 -121.008l-56.7344 -256.79zM174.988 -0.0117188l-38.7383 1.00977c-37.5 5 -111.25 24 -111.25 96c0 66.7871 51.626 163.689 153.881 189.344l-7.12598 -30.8232
c-49.6953 -32.5752 -98.0049 -97.459 -98.0049 -179.52c0 -46 40 -58 66.2529 -60.9932l37.4971 0.993164c15 2 28.75 7 38.75 15c13.75 11 16.25 21 38.75 21c48.75 0 47.5 1 68.75 20c-46.25 -61 -105 -70 -148.762 -72.0107zM169.943 -22.9395
c-6.0498 -28.04 -10.1982 -49.7334 -11.1924 -60.0625c-8.75 -5 -31.25 -13 -42.5 -15c2.03418 15.4639 7.38184 44.1875 14.6914 77.3203z" />
    <glyph glyph-name="sterling" unicode="&#xa3;" horiz-adv-x="727" 
d="M397.759 110.686c-30.7148 -36.8027 -104.166 -110.686 -226.51 -110.686c-72.5 0 -98.75 31 -98.75 84c0 38 20 101 180 101c32.0391 0 67.084 0 168.75 -43c135.527 -57.3213 103.75 -123 142.5 -123c43.75 0 35 23 63.75 23c32.5 0 45 -4 45 -10
c0 -12 -65 -32 -108.75 -32c-75 0 -21.6387 68.9404 -153.75 126c-67.916 29.333 -86.5635 42 -147.5 42c-47.5 0 -153.75 -8 -153.75 -94c0 -34 10 -61 65 -61c89.1074 0 161.81 83.3379 186.877 116.59zM402.749 284.611c-11.6055 2.48926 -22.8027 4.38867 -34 4.38867
c-36.25 0 -41.25 -30 -55 -30c-5 0 -13.75 2 -23.75 10c23.75 34 41.25 37 52.5 37c17.9736 0 39.1396 -3.19043 61.584 -7.5332zM429.166 155.665c0 0 -27.2627 11.7422 -40.8926 16.3613c18.3525 34.0947 26.4668 71.5557 30.8965 109.644
c12.5 100 12.082 206.33 130.832 206.33c130.179 0 132.504 -43.7031 132.504 -58.4814c-0.0253906 -11.5781 -3.6416 -36.5195 -55.0049 -36.5195c-25 0 -37.5 1 -63.75 10c0 0 8.75 -2 28.75 -2c21.25 0 55 6 55 32c0 29 -38.75 37 -90 37
c-70 0 -77.4971 -105.995 -91.2471 -200.995c-6.73828 -39.5156 -16.8525 -78.5664 -37.0879 -113.339zM485.249 266.289c0 0 1.83691 8.71094 3.0127 15.6641c6.85547 -0.681641 13.3867 -0.953125 19.2412 -0.953125c45 0 53.75 14 78.75 35c7.5 -7 17.5 -13 21.25 -23
c-25 -15 -43.75 -29 -82.5 -29c-13.9023 0 -27.2705 0.856445 -39.7539 2.28906z" />
    <glyph glyph-name="currency" unicode="&#xa4;" horiz-adv-x="452" 
d="M157.412 187.358c-29.71 -22.3008 -60.5225 -38.8467 -76.1621 -51.3584c-11.25 3 -32.5 13 -40 19c32.5 21 52.5 34 67.5 42c14.167 8.66699 17.5 11 28.0537 17.0635c3.8291 -10.3174 11.0439 -19.498 20.6084 -26.7051zM103.812 298.414l-30.0615 24.085
c-0.522461 0.431641 -0.761719 1.15137 -0.761719 2.11914c0 5.8623 8.43848 20.5811 9.51172 30.8799l45.21 -36.9785c-8.96875 -5.50586 -17.1592 -11.9395 -23.8984 -20.1055zM276.95 255.894c-4.72168 8.21582 -11.6992 15.4443 -20.2764 21.1768
c11.6611 6.59473 19.1611 11.5947 28.3271 16.9277l55 31c0.286133 0.15332 0.674805 0.224609 1.15527 0.224609c5.7998 0 24.8955 -10.377 37.5947 -12.2236l-73.75 -41c-10 -6 -18.75 -10.333 -28.0508 -16.1055zM260.747 307.869l-32.7705 -18.8838
c-6.13965 1.31152 -12.585 2.01074 -19.2246 2.01074c-39.6592 0 -72.3838 -24.957 -74.8525 -56.2109c0 0 -22.2314 -12.4561 -32.4336 -18.6836c-1.00879 4.83496 -1.46387 9.77441 -1.46387 14.8955c0 20 7.5 38 21.25 53c7.27051 8.77734 16.1191 13.9287 24.999 19.001
c17.5 10 40 15 62.5 15c19.0596 0 36.6064 -3.63281 51.9961 -10.1289zM314.563 252.505c2.00977 -6.83887 2.93652 -14.0498 2.93652 -21.5088c0 -18 -6.25 -35 -18.75 -49c-5.625 -7.5 -14.375 -14 -27.5 -22c-17.5 -10 -38.75 -16 -62.5 -16
c-21.1562 0 -41.0684 4.97363 -57.9854 13.5166l30.4893 17.6807c8.52441 -2.70801 17.8047 -4.19824 27.4971 -4.19824c41.25 0 75 27 75 60c0 1.19629 -0.0439453 2.38574 -0.130859 3.56445zM295.081 142.314c0 0 16.7939 14.1807 24.9932 24.376
c12.167 -8.29004 25.0693 -16.1885 39.9268 -23.6953c-1.25 -9 -11.25 -27 -16.25 -35c-21.54 14.3604 -36.8955 25.4209 -48.6699 34.3193z" />
    <glyph glyph-name="brokenbar" unicode="&#xa6;" horiz-adv-x="127" 
d="M42.5 365c1.25 72 1.25 157 1.25 211c0 3 25 10 36.25 18c-1.25 -31 -1.25 -147 -2.5 -229h-35zM41.25 108h37.5c1.25 -101 3.75 -212 8.75 -234c-8.75 -5 -31.25 -13 -42.5 -15c-2.5 24 -3.75 149 -3.75 249z" />
    <glyph glyph-name="section" unicode="&#xa7;" horiz-adv-x="670" 
d="M336.6 321.674c-17.8496 0.326172 -44.7246 3.82617 -57.8496 7.32617c-116.25 32 -117.5 75 -117.5 120c0 64 86.25 127 256.25 127c145 0 250 -58 250 -148c0 -42 -17.5 -55 -33.75 -55c-22.5 0 -26.25 8 -26.25 11c1.25 7 26.25 12 26.25 58c0 54 -70 121 -183.75 121
s-235 -53 -235 -128c0 -87.1494 101.336 -92.6963 101.715 -92.6963c19.4463 0 42.1777 5.69629 69.5361 5.69629c77.5 0 173.75 -19 173.75 -126c0 -61.9902 -46.3779 -84.9248 -90.1963 -101.135l-48.7822 11.0068c51.6279 19.8477 88.9775 52.082 88.9775 91.1279
c0 67 -57.5 104 -127.5 104c-14.9971 0 -30.6045 -1.77246 -45.9004 -5.32617zM303.722 310.936c-43.2324 -18.6338 -77.4707 -53.5264 -77.4707 -104.936c0 -65 45 -94 103.75 -94c17.8926 0 36.7832 0.550781 55.334 5.18262
c25.7549 -0.189453 28.415 0.816406 57.165 -7.18359c121.25 -33 127.5 -72 127.5 -118c0 -63 -80 -135 -250 -135c-145 0 -266.25 59 -266.25 148c0 42 26.25 55 42.5 55c22.5 0 26.25 -8 26.25 -11c-1.25 -6 -26.25 -11 -26.25 -58c0 -54 77.5 -121 191.25 -121
s227.5 59 227.5 134c0 36 -13.75 67 -96.25 97c-23.75 0 -62.5 -10 -91.25 -10c-91.25 0 -158.75 38 -158.75 129c0 56.3613 38.001 83.5146 76.6104 100.328c25.8896 -4.82715 58.3613 -9.3916 58.3613 -9.3916zM421.023 131.871z" />
    <glyph glyph-name="dieresis" unicode="&#xa8;" horiz-adv-x="312" 
d="M367.5 461c0 13 27.5 10 27.5 28c0 4 -3.75 7 -6.25 9c8.75 3 26.25 10 38.75 10c8.75 0 13.75 -2 13.75 -10c0 -23 -27.5 -47 -55 -47c-7.5 0 -18.75 2 -18.75 10zM167.5 461c0 13 27.5 10 27.5 28c0 4 -5 7 -6.25 9c7.5 3 26.25 10 38.75 10c7.5 0 13.75 -2 13.75 -10
c0 -23 -28.75 -47 -55 -47c-7.5 0 -18.75 2 -18.75 10z" />
    <glyph glyph-name="copyright" unicode="&#xa9;" horiz-adv-x="596" 
d="M292.5 427c147.5 0 258.75 -96 258.75 -214s-128.75 -213 -276.25 -213s-258.75 95 -258.75 213s128.75 214 276.25 214zM33.75 213c0 -110 103.75 -199 241.25 -199s257.5 89 257.5 199c0 111 -102.5 200 -240 200s-258.75 -89 -258.75 -200zM322.5 343
c62.5 0 97.5 -28 97.5 -40c0 -13 -18.75 -24 -28.75 -24c-6.25 0 -15 2 -15 13c0 9 2.5 17 2.5 22c0 15 -26.25 17 -53.75 17c-55 0 -136.25 -75 -136.25 -182c0 -49 50 -55 71.25 -55c22.5 0 50 8 62.5 20c12.5 10 15 19 36.25 19c16.25 0 23.75 -4 23.75 -8
c0 -15 -65 -44 -122.5 -44c-20 0 -115 10 -115 87c0 69 55 175 177.5 175z" />
    <glyph glyph-name="guillemotleft" unicode="&#xab;" horiz-adv-x="570" 
d="M241.25 292l250 124l28.75 -38c-92.5 -36 -168.75 -68 -233.75 -97l201.25 -261l-45 -23c-73.75 116 -148.75 224 -201.25 295zM27.5 299l250 124l27.5 -37c-92.5 -37 -167.5 -69 -232.5 -98l201.25 -261l-46.25 -23c-73.75 117 -147.5 224 -200 295z" />
    <glyph glyph-name="registered" unicode="&#xae;" horiz-adv-x="596" 
d="M292.5 427c147.5 0 258.75 -96 258.75 -214s-128.75 -213 -276.25 -213s-258.75 95 -258.75 213s128.75 214 276.25 214zM33.75 213c0 -110 103.75 -199 241.25 -199s257.5 89 257.5 199c0 111 -102.5 200 -240 200s-258.75 -89 -258.75 -200zM388.75 88
c-63.6133 0 -49.4336 101.546 -75.001 122c-7.5 -1 -21.25 -3 -32.5 -3c-28.75 0 -42.5 16 -43.75 16c0 0 -33.75 -135 -65 -135c-2.5 0 -23.75 0 -35 1c0 7 15.5713 15.6846 27.5 30c27.5 33 55 147 86.25 239c-9.375 0 -29.0615 -0.25 -40.625 -2.5
c0.313477 6.25 2.5 14 3.75 20.5c12.4023 1.75098 27.2402 2.57812 39.3496 2.57812c88.6201 0 162.526 -29.5781 162.526 -90.5781c0 -35 -47.5 -61 -81.25 -70c32.5 -28 26.25 -117 55 -117c25 0 22.5 13 41.25 13c8.75 0 12.5 -2 12.5 -5c0 -7 -26.25 -21 -55 -21z
M282.5 358c-0.0166016 -0.046875 -34.8096 -109.544 -37.5 -116c8.75 5 11.25 7 20 7c20 0 37.5 -6 53.75 -17c15 6 66.25 24 66.25 60c0 41 -58.75 66 -102.5 66zM277.5 231c-10 0 -17.5 -1 -17.5 -4v-1c5 -1 13.75 -2 21.25 -2c6.25 0 11.25 1 15 3
c-3.75 3 -12.5 4 -18.75 4z" />
    <glyph glyph-name="macron" unicode="&#xaf;" horiz-adv-x="372" 
d="M116.25 493c12.5 3 30 3 50 3c47.5 0 111.25 -4 150 -4c40 0 60 3 91.25 9c6.25 -7 5 -25 7.5 -34c-36.25 -2 -66.25 -2 -90 -2c-83.75 0 -98.75 4 -132.5 4c-35 0 -51.25 -1 -65 -1c-5 0 0 17 -11.25 25z" />
    <glyph glyph-name="degree" unicode="&#xb0;" horiz-adv-x="266" 
d="M96.25 444c0 -20 21.25 -37 45 -37c26.25 0 46.25 17 46.25 37s-20 37 -46.25 37c-23.75 0 -45 -17 -45 -37zM72.5 446c0 29 28.75 53 65 53c37.5 0 67.5 -24 67.5 -53c0 -30 -30 -53 -67.5 -53c-36.25 0 -65 23 -65 53z" />
    <glyph glyph-name="plusminus" unicode="&#xb1;" horiz-adv-x="452" 
d="M36.25 81c56.25 -1 175 -2 215 -2c46.25 0 88.75 1 137.5 8c-1.25 -10 -6.25 -25 -7.5 -34c-48.75 -2 -75 -3 -95 -3c-37.5 0 -133.75 3 -257.5 3c1.25 6 2.5 13 7.5 28zM187.5 247c-41.25 0 -88.75 1 -137.5 1c-5 0 -12.5 19 -22.5 28c37.5 -1 110 -1 166.25 -2
l28.75 126c1.25 4 26.25 7 38.75 13l-31.25 -139h31.25c46.25 0 87.5 1 136.25 8c7.5 -7 16.25 -25 20 -34c-48.75 -2 -75 -3 -95 -3c-18.75 0 -53.75 1 -98.75 1c-6.25 -37 -7.5 -48 -8.75 -57c0 -2 -8.75 -56 -8.75 -69c-10 -4 -33.75 -9 -45 -10c5 39 8.75 60 12.5 76
c1.25 12 6.25 33 13.75 61z" />
    <glyph glyph-name="uni00B2" unicode="&#xb2;" horiz-adv-x="473" 
d="M202.5 568c16.25 10 30 27 101.25 27c51.25 0 75 -21 75 -37c0 -31 -108.75 -129 -125 -146c53.75 -28 33.75 -45 48.75 -45c20 0 50 31 68.75 31c10 0 15 -12 15 -12c0 -1 -1.25 -3 -1.25 -3c-36.25 -6 -70 -41 -87.5 -41c-12.5 0 -23.75 10 -23.75 21
c0 9 -3.75 24 -28.75 41c-56.25 -62 -83.75 -65 -103.75 -65c-51.25 0 -60 29 -60 45c0 31 23.75 57 86.25 57c21.25 0 40 -4 66.25 -19c58.75 60 118.75 117 118.75 139c0 20 -40 20 -56.25 20c-55 0 -66.25 -14 -72.5 -20c-11.25 -14 -10 -22 -16.25 -37
c-2.5 -3 -11.25 -6 -13.75 -6c-7.5 0 -18.75 0 -18.75 5c0 0 2.5 27 27.5 45zM226.25 413c-25 13 -43.75 17 -57.5 17c-56.25 0 -67.5 -19 -67.5 -47c0 -17 6.25 -35 36.25 -35c33.75 0 75 47 88.75 65z" />
    <glyph glyph-name="uni00B3" unicode="&#xb3;" horiz-adv-x="473" 
d="M306.25 485c56.25 -15 77.5 -40 77.5 -65c0 -35 -43.75 -82 -137.5 -82c-80 0 -136.25 32 -136.25 81c0 23 13.75 30 22.5 30c12.5 0 15 -4 15 -5c0 -4 -11.25 -7 -11.25 -32c0 -30 35 -60 97.5 -60s117.5 34 117.5 75c0 20 -12.5 39 -50 53c-3.75 -3 -10 -5 -16.25 -5
c-18.75 0 -22.5 9 -22.5 13v1c2.5 17 70 0 70 51c0 23 -17.5 40 -55 40c-40 0 -57.5 -15 -57.5 -29c0 -15 20 -11 20 -16c0 -3 -3.75 -4 -8.75 -4c-20 0 -35 9 -35 21c0 25 51.25 41 87.5 41c48.75 0 76.25 -29 76.25 -57c0 -33 -32.5 -44 -53.75 -51z" />
    <glyph glyph-name="acute" unicode="&#xb4;" horiz-adv-x="370" 
d="M255 496c0 -5 -8.75 -32 -16.25 -53c-6.25 5 -15 13 -22.5 13c-20 0 -30 -12 -36.25 -19c-10.9219 -13.5908 -20 -31.5 -34.7422 -55.833l-1.50781 0.833008c3.75 14 8.75 52 26.25 84c20 35 36.25 44 60 44c15 0 25 -5 25 -14z" />
    <glyph glyph-name="uni00B5" unicode="&#xb5;" horiz-adv-x="525" 
d="M58.6025 29.9707c-85.3301 -141.254 -101.103 -237.076 -101.103 -260.971c3.125 -9.5 10.625 -13 18.75 -13c32.9053 0 86.875 156.5 106.251 256.5c33.9219 153.792 47.499 232.917 47.499 258.5c0 4 -1.25 5 -6.25 5c-21.25 -5 -23.75 -104 -111.25 -194l-1.25 1
c62.5 86 84.418 207.025 110 208c12.084 3.33301 23.75 5.66699 32.5 6c6.25 0 17.5 -5 17.5 -24c0 -29.6328 -44.1641 -214.156 -49.375 -239c-30.625 -146 -65.1592 -234.054 -111.875 -297c-12.5 -18 -33.75 -35 -53.75 -35c-22.5 0 -36.25 19 -36.25 39
c0 0.167969 0 98 169.329 386.673c-10.5791 -35.3398 -25.1631 -72.6729 -30.7266 -97.7021zM143.074 39.5986c0 0 19.7383 100.151 25.6768 126.401c0 -16 -3.75 -47.5 -3.75 -80c0 -34 12.5 -72 58.75 -72c68.9648 0 96.1699 32.7588 121.25 93.334
c-0.575195 -5.98633 -0.832031 -16.6846 -0.832031 -21.9961c0 -17.0889 3.51172 -24.6826 6.76953 -40.8047c-18.0029 -24.6367 -44.292 -44.5332 -125.938 -44.5332c-42.4453 -0 -65.7529 17.4805 -81.9258 39.5986zM369.308 169.021
c9.83887 24.4854 22.1182 55.25 41.9434 112.979c5 8 18.75 11 28.75 11c12.5 0 23.75 -6 23.75 -15c0 -39 -63.75 -134.062 -63.75 -195c0 -51 15 -69 32.5 -69c20 0 27.5 0 47.5 16c13.0928 14.2832 22.5 30 31.25 43l1.25 -1c-15 -30 -25 -49 -48.75 -64
c-12.5 -6 -23.75 -8 -32.5 -8c-57.8574 0 -71.7314 50.4639 -71.7314 96.916c0 31.6221 6.42773 61.3848 9.78809 72.1045z" />
    <glyph glyph-name="periodcentered" unicode="&#xb7;" horiz-adv-x="188" 
d="M98.75 237c12.5 0 25 -11 25 -21c0 -24 -21.25 -27 -33.75 -27c-20 0 -25 4 -27.5 10c0 37 23.75 38 36.25 38z" />
    <glyph glyph-name="cedilla" unicode="&#xb8;" horiz-adv-x="367" 
d="M188.75 -14c36.25 -21 53.75 -55 53.75 -79c0 -21 -8.75 -62 -42.5 -62c-23.75 0 -32.5 21 -56.25 46c-1.25 2 -1.25 3 -1.25 4s1.25 2 2.5 2c18.75 0 33.75 -43 55 -46c6.25 2 12.5 6 12.5 35c0 15 -2.5 57 -48.75 106c16.25 -4 17.5 -4 25 -6z" />
    <glyph glyph-name="uni00B9" unicode="&#xb9;" horiz-adv-x="285" 
d="M158.75 472c-11.25 -8 -31.25 -37 -51.25 -38c16.25 16 52.5 63 56.25 68c2.5 3 7.5 12 11.25 20c11.25 23 21.25 41 28.75 58c2.5 10 8.75 11 12.5 11c6.25 0 10 -3 10 -8c0 -3 -11.25 -78 -40 -98c-17.5 -65 -28.75 -101 -28.75 -122c0 -7 1.25 -13 3.75 -20
c-5 -1 -11.25 -1 -15 -1c-6.25 0 -10 1 -21.25 1c1.25 48 32.5 124 33.75 129z" />
    <glyph glyph-name="guillemotright" unicode="&#xbb;" horiz-adv-x="590" 
d="M540 252c-71.25 -60 -173.75 -152 -277.5 -252l-37.5 30l267.5 219c-56.25 41 -121.25 85 -201.25 137l37.5 31zM342.5 252c-71.25 -60 -172.5 -152 -276.25 -252l-38.75 30l268.75 219c-56.25 41 -122.5 85 -201.25 137l37.5 31z" />
    <glyph glyph-name="onequarter" unicode="&#xbc;" horiz-adv-x="682" 
d="M158.75 443c-11.25 -8 -31.25 -37 -51.25 -38c16.25 16 52.5 63 56.25 68c2.5 3 7.5 12 11.25 20c11.25 23 21.25 41 28.75 58c2.5 10 8.75 11 12.5 11c6.25 0 10 -3 10 -8c0 -3 -11.25 -78 -40 -98c-17.5 -65 -28.75 -101 -28.75 -122c0 -7 1.25 -13 3.75 -20
c-5 -1 -11.25 -1 -15 -1c-6.25 0 -10 1 -21.25 1c1.25 48 32.5 124 33.75 129zM548.75 66c13.75 50 26.25 89 33.75 111c-62.5 -40 -90 -72 -156.25 -106c11.7285 -3.51855 67.5 -5 122.5 -5zM546.25 47c-55 1 -131.25 2 -157.5 4c-8.75 0 -15 7 -15 11c0 2 1.25 3 2.5 4
c85 43 127.5 86 206.25 136c13.75 9 2.5 20 23.75 25c3.75 0 18.75 -2 18.75 -11c-23.75 -57 -35 -100 -46.25 -150h25c5 -4 10 -14 10 -16s-2.5 -3 -12.5 -3h-25c-6.25 -23 -11.25 -47 -18.75 -71c-1.25 -3 -1.25 -4 -6.25 -4h-26.25h-2.5c6.25 12 15 41 23.75 75z
M603.75 522l42.5 -27l-580 -563l-41.25 27c235 203 328.75 271 578.75 563z" />
    <glyph glyph-name="onehalf" unicode="&#xbd;" horiz-adv-x="728" 
d="M158.75 442c-11.25 -8 -31.25 -37 -51.25 -38c16.25 16 52.5 63 56.25 68c2.5 3 7.5 12 11.25 20c11.25 23 21.25 41 28.75 58c2.5 10 8.75 11 12.5 11c6.25 0 10 -3 10 -8c0 -3 -11.25 -78 -40 -98c-17.5 -65 -28.75 -101 -28.75 -122c0 -7 1.25 -13 3.75 -20
c-5 -1 -11.25 -1 -15 -1c-6.25 0 -10 1 -21.25 1c1.25 48 32.5 124 33.75 129zM510 199c16.25 10 30 27 101.25 27c51.25 0 75 -21 75 -37c0 -31 -108.75 -129 -125 -146c53.75 -28 33.75 -45 48.75 -45c20 0 50 31 68.75 31c10 0 15 -12 15 -12c0 -1 -1.25 -3 -1.25 -3
c-36.25 -6 -70 -41 -87.5 -41c-12.5 0 -23.75 10 -23.75 21c0 9 -3.75 24 -28.75 41c-56.25 -62 -83.75 -65 -103.75 -65c-51.25 0 -60 29 -60 45c0 31 23.75 57 86.25 57c21.25 0 40 -4 66.25 -19c58.75 60 118.75 117 118.75 139c0 20 -40 20 -56.25 20
c-55 0 -66.25 -14 -72.5 -20c-11.25 -14 -10 -22 -16.25 -37c-2.5 -3 -11.25 -6 -13.75 -6c-7.5 0 -18.75 0 -18.75 5c0 0 2.5 27 27.5 45zM533.75 44c-25 13 -43.75 17 -57.5 17c-56.25 0 -67.5 -19 -67.5 -47c0 -17 6.25 -35 36.25 -35c33.75 0 75 47 88.75 65z
M603.75 522l42.5 -27l-580 -563l-41.25 27c235 203 328.75 271 578.75 563z" />
    <glyph glyph-name="threequarters" unicode="&#xbe;" horiz-adv-x="682" 
d="M603.75 522l42.5 -27l-580 -563l-41.25 27c235 203 328.75 271 578.75 563zM278.75 455c56.25 -15 77.5 -40 77.5 -65c0 -35 -43.75 -82 -137.5 -82c-80 0 -136.25 32 -136.25 81c0 23 13.75 30 22.5 30c12.5 0 15 -4 15 -5c0 -4 -11.25 -7 -11.25 -32
c0 -30 35 -60 97.5 -60s117.5 34 117.5 75c0 20 -12.5 39 -50 53c-3.75 -3 -10 -5 -16.25 -5c-18.75 0 -22.5 9 -22.5 13v1c2.5 17 70 0 70 51c0 23 -17.5 40 -55 40c-40 0 -57.5 -15 -57.5 -29c0 -15 20 -11 20 -16c0 -3 -3.75 -4 -8.75 -4c-20 0 -35 9 -35 21
c0 25 51.25 41 87.5 41c48.75 0 76.25 -29 76.25 -57c0 -33 -32.5 -44 -53.75 -51zM548.75 66c13.75 50 26.25 89 33.75 111c-62.5 -40 -90 -72 -156.25 -106c11.7285 -3.51855 67.5 -5 122.5 -5zM546.25 47c-55 1 -131.25 2 -157.5 4c-8.75 0 -15 7 -15 11
c0 2 1.25 3 2.5 4c85 43 127.5 86 206.25 136c13.75 9 2.5 20 23.75 25c3.75 0 18.75 -2 18.75 -11c-23.75 -57 -35 -100 -46.25 -150h25c5 -4 10 -14 10 -16s-2.5 -3 -12.5 -3h-25c-6.25 -23 -11.25 -47 -18.75 -71c-1.25 -3 -1.25 -4 -6.25 -4h-26.25h-2.5
c6.25 12 15 41 23.75 75z" />
    <glyph glyph-name="questiondown" unicode="&#xbf;" horiz-adv-x="453" 
d="M338.75 554c-12.5 0 -25 11 -25 21c0 24 21.25 27 33.75 27c20 0 25 -4 27.5 -10c0 -37 -23.75 -38 -36.25 -38zM275 421c0 2 3.75 3 10 3c17.5 0 46.25 -8 46.25 -12c-3.75 -15 -6.25 -51 -45 -87c-15 -14 -95 -42 -122.5 -53c-72.5 -28 -80 -84 -80 -114
c0 -70 27.5 -116 95 -137c17.5 -6 42.5 -9 71.25 -9c100 0 115 34 127.5 58c3.75 7 7.5 14 7.5 22s-3.75 16 -18.75 24c-10 6 -36.25 9 -36.25 14c0 1 1.25 3 5 4c5 2 8.75 4 16.25 4c6.25 0 16.25 -1 32.5 -5c26.25 -7 42.5 -22 42.5 -41v-1c-2.5 -19 -6.25 -27 -10 -33
c-23.75 -39 -75 -58 -163.75 -58c-32.5 0 -56.25 4 -78.75 7c-23.75 3 -146.25 26 -146.25 149c0 34 8.75 57 15 67c13.75 25 61.25 58 87.5 67c85 29 158.75 43 158.75 72c0 19 -13.75 42 -13.75 59z" />
    <glyph glyph-name="Agrave" unicode="&#xc0;" horiz-adv-x="1045" 
d="M1033.75 723c26.25 20 46.25 39 57.5 39c12.5 0 22.5 -12 26.25 -26v-6c0 -27 -43.75 -61 -57.5 -72c-11.25 -9 -30 -20 -46.25 -31c17.5 24 32.5 37 42.5 52c5 8 7.5 14 7.5 20c0 19 -17.5 22 -30 24zM910.625 37.75c2.5 6.75 3.71973 13.5254 4.75977 20.1123
c12.7461 -22.1787 21.8838 -48.8623 48.3652 -48.8623c22.1709 0 35 7 67.5 54l1.25 -1c-25 -52 -48.75 -62 -71.25 -62c-27.2695 0 -41.0234 20.3379 -50.625 37.75zM856.25 87c-0.00488281 55.8818 -12.0371 112.299 -19.1016 139.705
c11.7773 -3.44629 23.4766 -6.92578 39.2969 -8.70703c9.81738 -38.2197 22.3047 -79.3877 22.3047 -138.998c-0.416016 -5.66699 -1.04102 -11.5 -2.50098 -18.0029c-8.74902 -28.9971 -17.499 -60.9971 -89.999 -60.9971c-65 0 -91.25 28 -91.25 59c0 24 15 62 78.75 62
c12.0137 0 27.5625 -0.943359 42.6016 -6.06348l0.238281 -16.9219c-9.40234 3.90332 -19.667 6.41602 -30.3398 6.98535c-51.5547 0 -58.75 -39.9512 -58.75 -53c0 -19 15 -40 56.25 -40c51.25 0 51.25 64 52.5 75zM825.625 457.5c-6.875 -28.5 -13.125 -50.5 -16.875 -90
l-75.0039 -83.5c-224.996 -248 -306.246 -284 -424.996 -284c-213.75 0 -255 80 -255 127c0 28 22.5 60 82.5 60c42.5 0 88.75 -17 110 -65c3.75 -8 8.75 -22 8.75 -29c-6.25 -8 -17.5 -10 -27.5 -10c-8.75 0 -17.5 2 -21.25 6v29c0 39 -26.25 58 -62.5 58s-50 -37 -50 -67
c0 -79 128.75 -98 183.75 -98c120.841 0 151.645 16.3223 430 302c22.6729 23.6582 75.3867 88.002 118.125 144.5zM833.75 386c8.75 47.5 13.125 81.5 28.75 122c14.375 39 18.75 54 38.75 75c11.25 8 23.75 12 35 12c26.25 0 50 -16 50 -34c0 -22 -76.25 -119 -76.25 -119
c-32.5 -44 -41.25 -103 -41.25 -148c0 -11.1816 0.391602 -21.4258 1.17285 -30.3828c-13.9238 2.62305 -27.9854 5.94531 -42.4541 11.3145c-0.8125 8.86914 -1.21875 18.8066 -1.21875 29.0684c0 31 3.75 66 7.5 82zM830 257.002
c13.125 -4.50195 47.4111 -15.002 73.75 -15.002c72.5 0 35 58 78.75 58c13.75 0 23.75 -12 23.75 -26c0 -20 -25 -47 -76.25 -47c-22.626 0 -68.6172 7.53027 -97.5 16c-26.7939 8.24414 -55.2861 19.207 -81.9746 32.3291l9.55664 10.4277
c22.0439 -10.7266 42.7383 -19.0928 69.918 -28.7549zM297.5 368c0 50 50 67 103.75 67c98.4863 0 224.643 -76.8838 289.599 -112.983l-10.0078 -10.917c-72.9922 43.2559 -205.002 109.9 -255.841 109.9c-43.75 -1 -85 -25 -85 -61c0 -111 87.5 -112 121.25 -112
c16.25 2 8.75 13 12.5 20c3.75 2 8.75 2 13.75 2c10 0 40 -14 40 -21c0 -12 -18.75 -19 -40 -19c-117.5 0 -190 74 -190 138z" />
    <glyph glyph-name="Aacute" unicode="&#xc1;" horiz-adv-x="1045" 
d="M1078.75 742c0 -5 -8.75 -32 -16.25 -53c-6.25 5 -15 13 -22.5 13c-20 0 -30 -12 -36.25 -19c-10.9219 -13.5908 -20 -31.5 -34.7422 -55.833l-1.50781 0.833008c3.75 14 8.75 52 26.25 84c20 35 36.25 44 60 44c15 0 25 -5 25 -14zM910.625 37.75
c2.5 6.75 3.71973 13.5254 4.75977 20.1123c12.7461 -22.1787 21.8838 -48.8623 48.3652 -48.8623c22.1709 0 35 7 67.5 54l1.25 -1c-25 -52 -48.75 -62 -71.25 -62c-27.2695 0 -41.0234 20.3379 -50.625 37.75zM856.25 87
c-0.00488281 55.8818 -12.0371 112.299 -19.1016 139.705c11.7773 -3.44629 23.4766 -6.92578 39.2969 -8.70703c9.81738 -38.2197 22.3047 -79.3877 22.3047 -138.998c-0.416016 -5.66699 -1.04102 -11.5 -2.50098 -18.0029
c-8.74902 -28.9971 -17.499 -60.9971 -89.999 -60.9971c-65 0 -91.25 28 -91.25 59c0 24 15 62 78.75 62c12.0137 0 27.5625 -0.943359 42.6016 -6.06348l0.238281 -16.9219c-9.40234 3.90332 -19.667 6.41602 -30.3398 6.98535c-51.5547 0 -58.75 -39.9512 -58.75 -53
c0 -19 15 -40 56.25 -40c51.25 0 51.25 64 52.5 75zM825.625 457.5c-6.875 -28.5 -13.125 -50.5 -16.875 -90l-75.0039 -83.5c-224.996 -248 -306.246 -284 -424.996 -284c-213.75 0 -255 80 -255 127c0 28 22.5 60 82.5 60c42.5 0 88.75 -17 110 -65
c3.75 -8 8.75 -22 8.75 -29c-6.25 -8 -17.5 -10 -27.5 -10c-8.75 0 -17.5 2 -21.25 6v29c0 39 -26.25 58 -62.5 58s-50 -37 -50 -67c0 -79 128.75 -98 183.75 -98c120.841 0 151.645 16.3223 430 302c22.6729 23.6582 75.3867 88.002 118.125 144.5zM833.75 386
c8.75 47.5 13.125 81.5 28.75 122c14.375 39 18.75 54 38.75 75c11.25 8 23.75 12 35 12c26.25 0 50 -16 50 -34c0 -22 -76.25 -119 -76.25 -119c-32.5 -44 -41.25 -103 -41.25 -148c0 -11.1816 0.391602 -21.4258 1.17285 -30.3828
c-13.9238 2.62305 -27.9854 5.94531 -42.4541 11.3145c-0.8125 8.86914 -1.21875 18.8066 -1.21875 29.0684c0 31 3.75 66 7.5 82zM830 257.002c13.125 -4.50195 47.4111 -15.002 73.75 -15.002c72.5 0 35 58 78.75 58c13.75 0 23.75 -12 23.75 -26
c0 -20 -25 -47 -76.25 -47c-22.626 0 -68.6172 7.53027 -97.5 16c-26.7939 8.24414 -55.2861 19.207 -81.9746 32.3291l9.55664 10.4277c22.0439 -10.7266 42.7383 -19.0928 69.918 -28.7549zM297.5 368c0 50 50 67 103.75 67c98.4863 0 224.643 -76.8838 289.599 -112.983
l-10.0078 -10.917c-72.9922 43.2559 -205.002 109.9 -255.841 109.9c-43.75 -1 -85 -25 -85 -61c0 -111 87.5 -112 121.25 -112c16.25 2 8.75 13 12.5 20c3.75 2 8.75 2 13.75 2c10 0 40 -14 40 -21c0 -12 -18.75 -19 -40 -19c-117.5 0 -190 74 -190 138z" />
    <glyph glyph-name="Acircumflex" unicode="&#xc2;" horiz-adv-x="1045" 
d="M980 754c41.25 -75 80 -80 97.5 -123c-86.25 46 -96.25 54 -125 88c-27.5 -34 -62.5 -42 -148.75 -88c17.5 43 85 48 126.25 123h50zM910.625 37.75c2.5 6.75 3.71973 13.5254 4.75977 20.1123c12.7461 -22.1787 21.8838 -48.8623 48.3652 -48.8623
c22.1709 0 35 7 67.5 54l1.25 -1c-25 -52 -48.75 -62 -71.25 -62c-27.2695 0 -41.0234 20.3379 -50.625 37.75zM856.25 87c-0.00488281 55.8818 -12.0371 112.299 -19.1016 139.705c11.7773 -3.44629 23.4766 -6.92578 39.2969 -8.70703
c9.81738 -38.2197 22.3047 -79.3877 22.3047 -138.998c-0.416016 -5.66699 -1.04102 -11.5 -2.50098 -18.0029c-8.74902 -28.9971 -17.499 -60.9971 -89.999 -60.9971c-65 0 -91.25 28 -91.25 59c0 24 15 62 78.75 62c12.0137 0 27.5625 -0.943359 42.6016 -6.06348
l0.238281 -16.9219c-9.40234 3.90332 -19.667 6.41602 -30.3398 6.98535c-51.5547 0 -58.75 -39.9512 -58.75 -53c0 -19 15 -40 56.25 -40c51.25 0 51.25 64 52.5 75zM825.625 457.5c-6.875 -28.5 -13.125 -50.5 -16.875 -90l-75.0039 -83.5
c-224.996 -248 -306.246 -284 -424.996 -284c-213.75 0 -255 80 -255 127c0 28 22.5 60 82.5 60c42.5 0 88.75 -17 110 -65c3.75 -8 8.75 -22 8.75 -29c-6.25 -8 -17.5 -10 -27.5 -10c-8.75 0 -17.5 2 -21.25 6v29c0 39 -26.25 58 -62.5 58s-50 -37 -50 -67
c0 -79 128.75 -98 183.75 -98c120.841 0 151.645 16.3223 430 302c22.6729 23.6582 75.3867 88.002 118.125 144.5zM833.75 386c8.75 47.5 13.125 81.5 28.75 122c14.375 39 18.75 54 38.75 75c11.25 8 23.75 12 35 12c26.25 0 50 -16 50 -34c0 -22 -76.25 -119 -76.25 -119
c-32.5 -44 -41.25 -103 -41.25 -148c0 -11.1816 0.391602 -21.4258 1.17285 -30.3828c-13.9238 2.62305 -27.9854 5.94531 -42.4541 11.3145c-0.8125 8.86914 -1.21875 18.8066 -1.21875 29.0684c0 31 3.75 66 7.5 82zM830 257.002
c13.125 -4.50195 47.4111 -15.002 73.75 -15.002c72.5 0 35 58 78.75 58c13.75 0 23.75 -12 23.75 -26c0 -20 -25 -47 -76.25 -47c-22.626 0 -68.6172 7.53027 -97.5 16c-26.7939 8.24414 -55.2861 19.207 -81.9746 32.3291l9.55664 10.4277
c22.0439 -10.7266 42.7383 -19.0928 69.918 -28.7549zM297.5 368c0 50 50 67 103.75 67c98.4863 0 224.643 -76.8838 289.599 -112.983l-10.0078 -10.917c-72.9922 43.2559 -205.002 109.9 -255.841 109.9c-43.75 -1 -85 -25 -85 -61c0 -111 87.5 -112 121.25 -112
c16.25 2 8.75 13 12.5 20c3.75 2 8.75 2 13.75 2c10 0 40 -14 40 -21c0 -12 -18.75 -19 -40 -19c-117.5 0 -190 74 -190 138z" />
    <glyph glyph-name="Atilde" unicode="&#xc3;" horiz-adv-x="1045" 
d="M843.75 678c22.5 29 36.25 35 47.5 35c40 0 105 -23 138.75 -23c38.75 0 47.5 11 68.75 28c5 -6 15 -11 17.5 -19c-21.25 -13 -37.5 -27 -70 -27c-61.25 0 -100 23 -133.75 23c-31.25 0 -35 -25 -47.5 -25c-3.75 0 -11.25 1 -21.25 8zM910.625 37.75
c2.5 6.75 3.71973 13.5254 4.75977 20.1123c12.7461 -22.1787 21.8838 -48.8623 48.3652 -48.8623c22.1709 0 35 7 67.5 54l1.25 -1c-25 -52 -48.75 -62 -71.25 -62c-27.2695 0 -41.0234 20.3379 -50.625 37.75zM856.25 87
c-0.00488281 55.8818 -12.0371 112.299 -19.1016 139.705c11.7773 -3.44629 23.4766 -6.92578 39.2969 -8.70703c9.81738 -38.2197 22.3047 -79.3877 22.3047 -138.998c-0.416016 -5.66699 -1.04102 -11.5 -2.50098 -18.0029
c-8.74902 -28.9971 -17.499 -60.9971 -89.999 -60.9971c-65 0 -91.25 28 -91.25 59c0 24 15 62 78.75 62c12.0137 0 27.5625 -0.943359 42.6016 -6.06348l0.238281 -16.9219c-9.40234 3.90332 -19.667 6.41602 -30.3398 6.98535c-51.5547 0 -58.75 -39.9512 -58.75 -53
c0 -19 15 -40 56.25 -40c51.25 0 51.25 64 52.5 75zM825.625 457.5c-6.875 -28.5 -13.125 -50.5 -16.875 -90l-75.0039 -83.5c-224.996 -248 -306.246 -284 -424.996 -284c-213.75 0 -255 80 -255 127c0 28 22.5 60 82.5 60c42.5 0 88.75 -17 110 -65
c3.75 -8 8.75 -22 8.75 -29c-6.25 -8 -17.5 -10 -27.5 -10c-8.75 0 -17.5 2 -21.25 6v29c0 39 -26.25 58 -62.5 58s-50 -37 -50 -67c0 -79 128.75 -98 183.75 -98c120.841 0 151.645 16.3223 430 302c22.6729 23.6582 75.3867 88.002 118.125 144.5zM833.75 386
c8.75 47.5 13.125 81.5 28.75 122c14.375 39 18.75 54 38.75 75c11.25 8 23.75 12 35 12c26.25 0 50 -16 50 -34c0 -22 -76.25 -119 -76.25 -119c-32.5 -44 -41.25 -103 -41.25 -148c0 -11.1816 0.391602 -21.4258 1.17285 -30.3828
c-13.9238 2.62305 -27.9854 5.94531 -42.4541 11.3145c-0.8125 8.86914 -1.21875 18.8066 -1.21875 29.0684c0 31 3.75 66 7.5 82zM830 257.002c13.125 -4.50195 47.4111 -15.002 73.75 -15.002c72.5 0 35 58 78.75 58c13.75 0 23.75 -12 23.75 -26
c0 -20 -25 -47 -76.25 -47c-22.626 0 -68.6172 7.53027 -97.5 16c-26.7939 8.24414 -55.2861 19.207 -81.9746 32.3291l9.55664 10.4277c22.0439 -10.7266 42.7383 -19.0928 69.918 -28.7549zM297.5 368c0 50 50 67 103.75 67c98.4863 0 224.643 -76.8838 289.599 -112.983
l-10.0078 -10.917c-72.9922 43.2559 -205.002 109.9 -255.841 109.9c-43.75 -1 -85 -25 -85 -61c0 -111 87.5 -112 121.25 -112c16.25 2 8.75 13 12.5 20c3.75 2 8.75 2 13.75 2c10 0 40 -14 40 -21c0 -12 -18.75 -19 -40 -19c-117.5 0 -190 74 -190 138z" />
    <glyph glyph-name="Adieresis" unicode="&#xc4;" horiz-adv-x="1045" 
d="M1071.25 683c0 13 27.5 10 27.5 28c0 4 -3.75 7 -6.25 9c8.75 3 26.25 10 38.75 10c8.75 0 13.75 -2 13.75 -10c0 -23 -27.5 -47 -55 -47c-7.5 0 -18.75 2 -18.75 10zM871.25 683c0 13 27.5 10 27.5 28c0 4 -5 7 -6.25 9c7.5 3 26.25 10 38.75 10
c7.5 0 13.75 -2 13.75 -10c0 -23 -28.75 -47 -55 -47c-7.5 0 -18.75 2 -18.75 10zM910.625 37.75c2.5 6.75 3.71973 13.5254 4.75977 20.1123c12.7461 -22.1787 21.8838 -48.8623 48.3652 -48.8623c22.1709 0 35 7 67.5 54l1.25 -1c-25 -52 -48.75 -62 -71.25 -62
c-27.2695 0 -41.0234 20.3379 -50.625 37.75zM856.25 87c-0.00488281 55.8818 -12.0371 112.299 -19.1016 139.705c11.7773 -3.44629 23.4766 -6.92578 39.2969 -8.70703c9.81738 -38.2197 22.3047 -79.3877 22.3047 -138.998
c-0.416016 -5.66699 -1.04102 -11.5 -2.50098 -18.0029c-8.74902 -28.9971 -17.499 -60.9971 -89.999 -60.9971c-65 0 -91.25 28 -91.25 59c0 24 15 62 78.75 62c12.0137 0 27.5625 -0.943359 42.6016 -6.06348l0.238281 -16.9219
c-9.40234 3.90332 -19.667 6.41602 -30.3398 6.98535c-51.5547 0 -58.75 -39.9512 -58.75 -53c0 -19 15 -40 56.25 -40c51.25 0 51.25 64 52.5 75zM825.625 457.5c-6.875 -28.5 -13.125 -50.5 -16.875 -90l-75.0039 -83.5c-224.996 -248 -306.246 -284 -424.996 -284
c-213.75 0 -255 80 -255 127c0 28 22.5 60 82.5 60c42.5 0 88.75 -17 110 -65c3.75 -8 8.75 -22 8.75 -29c-6.25 -8 -17.5 -10 -27.5 -10c-8.75 0 -17.5 2 -21.25 6v29c0 39 -26.25 58 -62.5 58s-50 -37 -50 -67c0 -79 128.75 -98 183.75 -98
c120.841 0 151.645 16.3223 430 302c22.6729 23.6582 75.3867 88.002 118.125 144.5zM833.75 386c8.75 47.5 13.125 81.5 28.75 122c14.375 39 18.75 54 38.75 75c11.25 8 23.75 12 35 12c26.25 0 50 -16 50 -34c0 -22 -76.25 -119 -76.25 -119
c-32.5 -44 -41.25 -103 -41.25 -148c0 -11.1816 0.391602 -21.4258 1.17285 -30.3828c-13.9238 2.62305 -27.9854 5.94531 -42.4541 11.3145c-0.8125 8.86914 -1.21875 18.8066 -1.21875 29.0684c0 31 3.75 66 7.5 82zM830 257.002
c13.125 -4.50195 47.4111 -15.002 73.75 -15.002c72.5 0 35 58 78.75 58c13.75 0 23.75 -12 23.75 -26c0 -20 -25 -47 -76.25 -47c-22.626 0 -68.6172 7.53027 -97.5 16c-26.7939 8.24414 -55.2861 19.207 -81.9746 32.3291l9.55664 10.4277
c22.0439 -10.7266 42.7383 -19.0928 69.918 -28.7549zM297.5 368c0 50 50 67 103.75 67c98.4863 0 224.643 -76.8838 289.599 -112.983l-10.0078 -10.917c-72.9922 43.2559 -205.002 109.9 -255.841 109.9c-43.75 -1 -85 -25 -85 -61c0 -111 87.5 -112 121.25 -112
c16.25 2 8.75 13 12.5 20c3.75 2 8.75 2 13.75 2c10 0 40 -14 40 -21c0 -12 -18.75 -19 -40 -19c-117.5 0 -190 74 -190 138z" />
    <glyph glyph-name="Aring" unicode="&#xc5;" horiz-adv-x="1045" 
d="M933.75 673c0 -25 25 -45 56.25 -45c30 0 56.25 20 56.25 45c0 24 -26.25 45 -56.25 45c-31.25 0 -56.25 -21 -56.25 -45zM903.75 675c0 36 36.25 65 81.25 65s81.25 -29 81.25 -65s-36.25 -65 -81.25 -65s-81.25 29 -81.25 65zM910.625 37.75
c2.5 6.75 3.71973 13.5254 4.75977 20.1123c12.7461 -22.1787 21.8838 -48.8623 48.3652 -48.8623c22.1709 0 35 7 67.5 54l1.25 -1c-25 -52 -48.75 -62 -71.25 -62c-27.2695 0 -41.0234 20.3379 -50.625 37.75zM856.25 87
c-0.00488281 55.8818 -12.0371 112.299 -19.1016 139.705c11.7773 -3.44629 23.4766 -6.92578 39.2969 -8.70703c9.81738 -38.2197 22.3047 -79.3877 22.3047 -138.998c-0.416016 -5.66699 -1.04102 -11.5 -2.50098 -18.0029
c-8.74902 -28.9971 -17.499 -60.9971 -89.999 -60.9971c-65 0 -91.25 28 -91.25 59c0 24 15 62 78.75 62c12.0137 0 27.5625 -0.943359 42.6016 -6.06348l0.238281 -16.9219c-9.40234 3.90332 -19.667 6.41602 -30.3398 6.98535c-51.5547 0 -58.75 -39.9512 -58.75 -53
c0 -19 15 -40 56.25 -40c51.25 0 51.25 64 52.5 75zM825.625 457.5c-6.875 -28.5 -13.125 -50.5 -16.875 -90l-75.0039 -83.5c-224.996 -248 -306.246 -284 -424.996 -284c-213.75 0 -255 80 -255 127c0 28 22.5 60 82.5 60c42.5 0 88.75 -17 110 -65
c3.75 -8 8.75 -22 8.75 -29c-6.25 -8 -17.5 -10 -27.5 -10c-8.75 0 -17.5 2 -21.25 6v29c0 39 -26.25 58 -62.5 58s-50 -37 -50 -67c0 -79 128.75 -98 183.75 -98c120.841 0 151.645 16.3223 430 302c22.6729 23.6582 75.3867 88.002 118.125 144.5zM833.75 386
c8.75 47.5 13.125 81.5 28.75 122c14.375 39 18.75 54 38.75 75c11.25 8 23.75 12 35 12c26.25 0 50 -16 50 -34c0 -22 -76.25 -119 -76.25 -119c-32.5 -44 -41.25 -103 -41.25 -148c0 -11.1816 0.391602 -21.4258 1.17285 -30.3828
c-13.9238 2.62305 -27.9854 5.94531 -42.4541 11.3145c-0.8125 8.86914 -1.21875 18.8066 -1.21875 29.0684c0 31 3.75 66 7.5 82zM830 257.002c13.125 -4.50195 47.4111 -15.002 73.75 -15.002c72.5 0 35 58 78.75 58c13.75 0 23.75 -12 23.75 -26
c0 -20 -25 -47 -76.25 -47c-22.626 0 -68.6172 7.53027 -97.5 16c-26.7939 8.24414 -55.2861 19.207 -81.9746 32.3291l9.55664 10.4277c22.0439 -10.7266 42.7383 -19.0928 69.918 -28.7549zM297.5 368c0 50 50 67 103.75 67c98.4863 0 224.643 -76.8838 289.599 -112.983
l-10.0078 -10.917c-72.9922 43.2559 -205.002 109.9 -255.841 109.9c-43.75 -1 -85 -25 -85 -61c0 -111 87.5 -112 121.25 -112c16.25 2 8.75 13 12.5 20c3.75 2 8.75 2 13.75 2c10 0 40 -14 40 -21c0 -12 -18.75 -19 -40 -19c-117.5 0 -190 74 -190 138z" />
    <glyph glyph-name="Ccedilla" unicode="&#xc7;" horiz-adv-x="671" 
d="M400.423 -9.09961c36.25 -21 53.75 -55 53.75 -79c0 -21 -8.75 -62 -42.5 -62c-23.75 0 -32.5 21 -56.25 46c-1.25 2 -1.25 3 -1.25 4s1.25 2 2.5 2c18.75 0 33.75 -43 55 -46c6.25 2 12.5 6 12.5 35c0 15 -2.5 57 -48.75 106c16.25 -4 17.5 -4 25 -6zM246.075 333.715
c-42.1807 -6.92188 -105.206 -15.3711 -173.575 -17.7148v1.69531c65.6035 6.49805 109.421 11.4609 192.5 41.3047zM448.75 433l85 49c46.0996 25.1758 121.25 68 128.75 76c-15 -3 -91.168 -20.0898 -165 -63c-37.1709 -21.6025 -87.916 -70.333 -154.999 -141.998
c-23.8311 -25.46 -93.751 -127.002 -93.751 -185.002c0 -76 65 -150 233.75 -150c88.75 0 111.25 42 111.25 73c0 35 -18.75 61 -46.25 61c-8.75 0 -12.5 -1 -15 -1c-1.25 0 -1.25 1 -1.25 2c0 4 8.75 12 31.25 12c38.75 0 87.5 -31 87.5 -79c0 -31 -26.25 -86 -167.5 -86
c-187.553 0 -291.25 94.2002 -291.25 157c0 73 57.5 150 85.001 182.003c65.7832 76.5498 103.794 126.491 194.999 179.997c100.199 58.7832 166.25 76 203.75 76c23.75 0 36.25 -6 36.25 -21v-5c0 -11 -10.4316 -19.4873 -153.75 -97l-149.37 -79.2656
c11.9873 13.8066 21.2803 23.8779 40.6201 40.2656z" />
    <glyph glyph-name="Egrave" unicode="&#xc8;" horiz-adv-x="630" 
d="M486.25 723c26.25 20 46.25 39 57.5 39c12.5 0 22.5 -12 26.25 -26v-6c0 -27 -43.75 -61 -57.5 -72c-11.25 -9 -30 -20 -46.25 -31c17.5 24 32.5 37 42.5 52c5 8 7.5 14 7.5 20c0 19 -17.5 22 -30 24zM541.25 130.996c-2.5 8.00391 -11.25 45.0039 -11.25 59.0039
c0 3 0 4 1.25 5c0 5 42.5 8 55 8c3.75 0 5 -6 5 -15c-2.91602 -22.333 -4.88672 -42.417 -9.6875 -56.75c-2.16602 11.7695 -4.25 16.6865 -6.01465 16.6865c-3.02637 0 -5.12305 -14.4199 -5.12305 -33.5225c0 -54.8975 8.83008 -66.4141 22.0752 -66.4141
c17.3633 0 20 10 23.75 15c1.25 -1 1.08496 -1 1.25 -1c0 -1 -8.75 -23 -22.5 -23c-25 0 -41.25 14 -43.75 43c-5.41602 24.333 -6.25 31.667 -10 48.9961zM534.071 64.0498c-64.8926 -61.5215 -138.174 -64.0498 -184.071 -64.0498c-150 0 -296.25 67 -296.25 204
c0 60.8164 47.0537 120.757 142.185 154.432c0.870117 -5.44336 2.19043 -10.1816 4.94824 -15.7871c-48.1406 -27.667 -79.6328 -78.7295 -79.6328 -126.645c0 -80 38.75 -202 230 -202c26.9834 0 124.759 5.66309 175.072 86.8486
c2.68945 -11.9238 6.17773 -30.667 7.74902 -36.7988zM220 352c-5 18 -11.25 55 -11.25 77c0 44 26.25 166 191.25 166c140.525 0 161.25 -94.7734 161.25 -110c0 -39 -38.75 -49 -61.25 -49c-32.5 0 -42.5 3 -42.5 10c0 10 20 4 35 8c28.75 8 30 22 30 35
c0 57 -72.5 78 -113.75 78c-133.75 0 -150 -105 -150 -157c0 -11 0.3125 -32 2.5 -45c3.75 -21 10 -40 20 -57c25 -40 46.25 -56 86.25 -56c51.25 0 70 48 70 73c0 28 -16.25 56 -80 56c-29.6201 0 -55.8027 -4.58398 -74.668 -9.40625l-1.08984 15.4062
c24.96 6.19336 49.1982 9.28906 75.7578 9.28906c76.25 0 123.75 -38.2891 123.75 -79.2891c0 -66 -62.5 -82 -112.5 -82c-52.5 0 -76.25 21 -93.75 34c-22.5 18 -42.5 51 -55 83z" />
    <glyph glyph-name="Eacute" unicode="&#xc9;" horiz-adv-x="630" 
d="M542.5 742c0 -5 -8.75 -32 -16.25 -53c-6.25 5 -15 13 -22.5 13c-20 0 -30 -12 -36.25 -19c-10.9219 -13.5908 -20 -31.5 -34.7422 -55.833l-1.50781 0.833008c3.75 14 8.75 52 26.25 84c20 35 36.25 44 60 44c15 0 25 -5 25 -14zM541.25 130.996
c-2.5 8.00391 -11.25 45.0039 -11.25 59.0039c0 3 0 4 1.25 5c0 5 42.5 8 55 8c3.75 0 5 -6 5 -15c-2.91602 -22.333 -4.88672 -42.417 -9.6875 -56.75c-2.16602 11.7695 -4.25 16.6865 -6.01465 16.6865c-3.02637 0 -5.12305 -14.4199 -5.12305 -33.5225
c0 -54.8975 8.83008 -66.4141 22.0752 -66.4141c17.3633 0 20 10 23.75 15c1.25 -1 1.08496 -1 1.25 -1c0 -1 -8.75 -23 -22.5 -23c-25 0 -41.25 14 -43.75 43c-5.41602 24.333 -6.25 31.667 -10 48.9961zM534.071 64.0498
c-64.8926 -61.5215 -138.174 -64.0498 -184.071 -64.0498c-150 0 -296.25 67 -296.25 204c0 60.8164 47.0537 120.757 142.185 154.432c0.870117 -5.44336 2.19043 -10.1816 4.94824 -15.7871c-48.1406 -27.667 -79.6328 -78.7295 -79.6328 -126.645
c0 -80 38.75 -202 230 -202c26.9834 0 124.759 5.66309 175.072 86.8486c2.68945 -11.9238 6.17773 -30.667 7.74902 -36.7988zM220 352c-5 18 -11.25 55 -11.25 77c0 44 26.25 166 191.25 166c140.525 0 161.25 -94.7734 161.25 -110c0 -39 -38.75 -49 -61.25 -49
c-32.5 0 -42.5 3 -42.5 10c0 10 20 4 35 8c28.75 8 30 22 30 35c0 57 -72.5 78 -113.75 78c-133.75 0 -150 -105 -150 -157c0 -11 0.3125 -32 2.5 -45c3.75 -21 10 -40 20 -57c25 -40 46.25 -56 86.25 -56c51.25 0 70 48 70 73c0 28 -16.25 56 -80 56
c-29.6201 0 -55.8027 -4.58398 -74.668 -9.40625l-1.08984 15.4062c24.96 6.19336 49.1982 9.28906 75.7578 9.28906c76.25 0 123.75 -38.2891 123.75 -79.2891c0 -66 -62.5 -82 -112.5 -82c-52.5 0 -76.25 21 -93.75 34c-22.5 18 -42.5 51 -55 83z" />
    <glyph glyph-name="Ecircumflex" unicode="&#xca;" horiz-adv-x="630" 
d="M486.25 754c41.25 -75 80 -80 97.5 -123c-86.25 46 -96.25 54 -125 88c-27.5 -34 -62.5 -42 -148.75 -88c17.5 43 85 48 126.25 123h50zM541.25 130.996c-2.5 8.00391 -11.25 45.0039 -11.25 59.0039c0 3 0 4 1.25 5c0 5 42.5 8 55 8c3.75 0 5 -6 5 -15
c-2.91602 -22.333 -4.88672 -42.417 -9.6875 -56.75c-2.16602 11.7695 -4.25 16.6865 -6.01465 16.6865c-3.02637 0 -5.12305 -14.4199 -5.12305 -33.5225c0 -54.8975 8.83008 -66.4141 22.0752 -66.4141c17.3633 0 20 10 23.75 15c1.25 -1 1.08496 -1 1.25 -1
c0 -1 -8.75 -23 -22.5 -23c-25 0 -41.25 14 -43.75 43c-5.41602 24.333 -6.25 31.667 -10 48.9961zM534.071 64.0498c-64.8926 -61.5215 -138.174 -64.0498 -184.071 -64.0498c-150 0 -296.25 67 -296.25 204c0 60.8164 47.0537 120.757 142.185 154.432
c0.870117 -5.44336 2.19043 -10.1816 4.94824 -15.7871c-48.1406 -27.667 -79.6328 -78.7295 -79.6328 -126.645c0 -80 38.75 -202 230 -202c26.9834 0 124.759 5.66309 175.072 86.8486c2.68945 -11.9238 6.17773 -30.667 7.74902 -36.7988zM220 352
c-5 18 -11.25 55 -11.25 77c0 44 26.25 166 191.25 166c140.525 0 161.25 -94.7734 161.25 -110c0 -39 -38.75 -49 -61.25 -49c-32.5 0 -42.5 3 -42.5 10c0 10 20 4 35 8c28.75 8 30 22 30 35c0 57 -72.5 78 -113.75 78c-133.75 0 -150 -105 -150 -157
c0 -11 0.3125 -32 2.5 -45c3.75 -21 10 -40 20 -57c25 -40 46.25 -56 86.25 -56c51.25 0 70 48 70 73c0 28 -16.25 56 -80 56c-29.6201 0 -55.8027 -4.58398 -74.668 -9.40625l-1.08984 15.4062c24.96 6.19336 49.1982 9.28906 75.7578 9.28906
c76.25 0 123.75 -38.2891 123.75 -79.2891c0 -66 -62.5 -82 -112.5 -82c-52.5 0 -76.25 21 -93.75 34c-22.5 18 -42.5 51 -55 83z" />
    <glyph glyph-name="Edieresis" unicode="&#xcb;" horiz-adv-x="630" 
d="M551.25 683c0 13 27.5 10 27.5 28c0 4 -3.75 7 -6.25 9c8.75 3 26.25 10 38.75 10c8.75 0 13.75 -2 13.75 -10c0 -23 -27.5 -47 -55 -47c-7.5 0 -18.75 2 -18.75 10zM351.25 683c0 13 27.5 10 27.5 28c0 4 -5 7 -6.25 9c7.5 3 26.25 10 38.75 10
c7.5 0 13.75 -2 13.75 -10c0 -23 -28.75 -47 -55 -47c-7.5 0 -18.75 2 -18.75 10zM541.25 130.996c-2.5 8.00391 -11.25 45.0039 -11.25 59.0039c0 3 0 4 1.25 5c0 5 42.5 8 55 8c3.75 0 5 -6 5 -15c-2.91602 -22.333 -4.88672 -42.417 -9.6875 -56.75
c-2.16602 11.7695 -4.25 16.6865 -6.01465 16.6865c-3.02637 0 -5.12305 -14.4199 -5.12305 -33.5225c0 -54.8975 8.83008 -66.4141 22.0752 -66.4141c17.3633 0 20 10 23.75 15c1.25 -1 1.08496 -1 1.25 -1c0 -1 -8.75 -23 -22.5 -23c-25 0 -41.25 14 -43.75 43
c-5.41602 24.333 -6.25 31.667 -10 48.9961zM534.071 64.0498c-64.8926 -61.5215 -138.174 -64.0498 -184.071 -64.0498c-150 0 -296.25 67 -296.25 204c0 60.8164 47.0537 120.757 142.185 154.432c0.870117 -5.44336 2.19043 -10.1816 4.94824 -15.7871
c-48.1406 -27.667 -79.6328 -78.7295 -79.6328 -126.645c0 -80 38.75 -202 230 -202c26.9834 0 124.759 5.66309 175.072 86.8486c2.68945 -11.9238 6.17773 -30.667 7.74902 -36.7988zM220 352c-5 18 -11.25 55 -11.25 77c0 44 26.25 166 191.25 166
c140.525 0 161.25 -94.7734 161.25 -110c0 -39 -38.75 -49 -61.25 -49c-32.5 0 -42.5 3 -42.5 10c0 10 20 4 35 8c28.75 8 30 22 30 35c0 57 -72.5 78 -113.75 78c-133.75 0 -150 -105 -150 -157c0 -11 0.3125 -32 2.5 -45c3.75 -21 10 -40 20 -57
c25 -40 46.25 -56 86.25 -56c51.25 0 70 48 70 73c0 28 -16.25 56 -80 56c-29.6201 0 -55.8027 -4.58398 -74.668 -9.40625l-1.08984 15.4062c24.96 6.19336 49.1982 9.28906 75.7578 9.28906c76.25 0 123.75 -38.2891 123.75 -79.2891c0 -66 -62.5 -82 -112.5 -82
c-52.5 0 -76.25 21 -93.75 34c-22.5 18 -42.5 51 -55 83z" />
    <glyph glyph-name="Igrave" unicode="&#xcc;" horiz-adv-x="641" 
d="M560 723c26.25 20 46.25 39 57.5 39c12.5 0 22.5 -12 26.25 -26v-6c0 -27 -43.75 -61 -57.5 -72c-11.25 -9 -30 -20 -46.25 -31c17.5 24 32.5 37 42.5 52c5 8 7.5 14 7.5 20c0 19 -17.5 22 -30 24zM753.75 595c11.25 0 32.5 -8 32.5 -22c0 0 -5 -28 -15 -44
c-90 -151 -195 -464 -275 -500c-36.25 -17 -74.2412 -29 -125 -29c-120 0 -226.25 72.4512 -226.25 142c0 34 50 54 90 54c88.75 -3 112.5 -78 112.5 -96c-6.25 -8 -17.5 -12 -28.75 -12c-8.75 0 -15 2 -21.25 7c-1.25 4 -1.25 6 -1.25 15c0 32 -6.25 72 -61.25 72
c-30 0 -48.75 -23 -48.75 -53c0 -104.205 157.119 -115 182.5 -115c50 0 67.5 9 80 18c88.75 65 180 354 231.25 448c27.4375 45.7256 19.0967 102.343 73.75 115zM633.225 462.307c-17.668 -5.66602 -33.6191 -8.30664 -59.4746 -8.30664c-203.75 0 -192.5 99 -328.75 99
c-83.75 0 -90 -84 -90 -99c0 -16 7.5 -71 33.75 -71c8.75 0 10 5 10 16c0 8 -1.25 16 -1.25 23c0 9 1.25 11 5 11c8.75 0 37.5 -15 37.5 -27s-13.75 -37 -46.25 -37c-33.75 0 -85 45 -85 95s50 104 132.5 104c110 0 165 -68 223.75 -87c23.75 -8 58.75 -13 82.5 -13
c19.9863 0 54.4639 6.37598 96.8125 26.6318c-0.146484 -16.6318 -11.0879 -32.3252 -11.0879 -32.3252z" />
    <glyph glyph-name="Iacute" unicode="&#xcd;" horiz-adv-x="641" 
d="M597.5 742c0 -5 -8.75 -32 -16.25 -53c-6.25 5 -15 13 -22.5 13c-20 0 -30 -12 -36.25 -19c-10.9219 -13.5908 -20 -31.5 -34.7422 -55.833l-1.50781 0.833008c3.75 14 8.75 52 26.25 84c20 35 36.25 44 60 44c15 0 25 -5 25 -14zM753.75 595c11.25 0 32.5 -8 32.5 -22
c0 0 -5 -28 -15 -44c-90 -151 -195 -464 -275 -500c-36.25 -17 -74.2412 -29 -125 -29c-120 0 -226.25 72.4512 -226.25 142c0 34 50 54 90 54c88.75 -3 112.5 -78 112.5 -96c-6.25 -8 -17.5 -12 -28.75 -12c-8.75 0 -15 2 -21.25 7c-1.25 4 -1.25 6 -1.25 15
c0 32 -6.25 72 -61.25 72c-30 0 -48.75 -23 -48.75 -53c0 -104.205 157.119 -115 182.5 -115c50 0 67.5 9 80 18c88.75 65 180 354 231.25 448c27.4375 45.7256 19.0967 102.343 73.75 115zM633.225 462.307c-17.668 -5.66602 -33.6191 -8.30664 -59.4746 -8.30664
c-203.75 0 -192.5 99 -328.75 99c-83.75 0 -90 -84 -90 -99c0 -16 7.5 -71 33.75 -71c8.75 0 10 5 10 16c0 8 -1.25 16 -1.25 23c0 9 1.25 11 5 11c8.75 0 37.5 -15 37.5 -27s-13.75 -37 -46.25 -37c-33.75 0 -85 45 -85 95s50 104 132.5 104c110 0 165 -68 223.75 -87
c23.75 -8 58.75 -13 82.5 -13c19.9863 0 54.4639 6.37598 96.8125 26.6318c-0.146484 -16.6318 -11.0879 -32.3252 -11.0879 -32.3252z" />
    <glyph glyph-name="Icircumflex" unicode="&#xce;" horiz-adv-x="641" 
d="M550 754c41.25 -75 80 -80 97.5 -123c-86.25 46 -96.25 54 -125 88c-27.5 -34 -62.5 -42 -148.75 -88c17.5 43 85 48 126.25 123h50zM753.75 595c11.25 0 32.5 -8 32.5 -22c0 0 -5 -28 -15 -44c-90 -151 -195 -464 -275 -500c-36.25 -17 -74.2412 -29 -125 -29
c-120 0 -226.25 72.4512 -226.25 142c0 34 50 54 90 54c88.75 -3 112.5 -78 112.5 -96c-6.25 -8 -17.5 -12 -28.75 -12c-8.75 0 -15 2 -21.25 7c-1.25 4 -1.25 6 -1.25 15c0 32 -6.25 72 -61.25 72c-30 0 -48.75 -23 -48.75 -53c0 -104.205 157.119 -115 182.5 -115
c50 0 67.5 9 80 18c88.75 65 180 354 231.25 448c27.4375 45.7256 19.0967 102.343 73.75 115zM633.225 462.307c-17.668 -5.66602 -33.6191 -8.30664 -59.4746 -8.30664c-203.75 0 -192.5 99 -328.75 99c-83.75 0 -90 -84 -90 -99c0 -16 7.5 -71 33.75 -71
c8.75 0 10 5 10 16c0 8 -1.25 16 -1.25 23c0 9 1.25 11 5 11c8.75 0 37.5 -15 37.5 -27s-13.75 -37 -46.25 -37c-33.75 0 -85 45 -85 95s50 104 132.5 104c110 0 165 -68 223.75 -87c23.75 -8 58.75 -13 82.5 -13c19.9863 0 54.4639 6.37598 96.8125 26.6318
c-0.146484 -16.6318 -11.0879 -32.3252 -11.0879 -32.3252z" />
    <glyph glyph-name="Idieresis" unicode="&#xcf;" horiz-adv-x="641" 
d="M600 683c0 13 27.5 10 27.5 28c0 4 -3.75 7 -6.25 9c8.75 3 26.25 10 38.75 10c8.75 0 13.75 -2 13.75 -10c0 -23 -27.5 -47 -55 -47c-7.5 0 -18.75 2 -18.75 10zM400 683c0 13 27.5 10 27.5 28c0 4 -5 7 -6.25 9c7.5 3 26.25 10 38.75 10c7.5 0 13.75 -2 13.75 -10
c0 -23 -28.75 -47 -55 -47c-7.5 0 -18.75 2 -18.75 10zM753.75 595c11.25 0 32.5 -8 32.5 -22c0 0 -5 -28 -15 -44c-90 -151 -195 -464 -275 -500c-36.25 -17 -74.2412 -29 -125 -29c-120 0 -226.25 72.4512 -226.25 142c0 34 50 54 90 54c88.75 -3 112.5 -78 112.5 -96
c-6.25 -8 -17.5 -12 -28.75 -12c-8.75 0 -15 2 -21.25 7c-1.25 4 -1.25 6 -1.25 15c0 32 -6.25 72 -61.25 72c-30 0 -48.75 -23 -48.75 -53c0 -104.205 157.119 -115 182.5 -115c50 0 67.5 9 80 18c88.75 65 180 354 231.25 448c27.4375 45.7256 19.0967 102.343 73.75 115z
M633.225 462.307c-17.668 -5.66602 -33.6191 -8.30664 -59.4746 -8.30664c-203.75 0 -192.5 99 -328.75 99c-83.75 0 -90 -84 -90 -99c0 -16 7.5 -71 33.75 -71c8.75 0 10 5 10 16c0 8 -1.25 16 -1.25 23c0 9 1.25 11 5 11c8.75 0 37.5 -15 37.5 -27s-13.75 -37 -46.25 -37
c-33.75 0 -85 45 -85 95s50 104 132.5 104c110 0 165 -68 223.75 -87c23.75 -8 58.75 -13 82.5 -13c19.9863 0 54.4639 6.37598 96.8125 26.6318c-0.146484 -16.6318 -11.0879 -32.3252 -11.0879 -32.3252z" />
    <glyph glyph-name="Eth" unicode="&#xd0;" horiz-adv-x="1080" 
d="M597.496 106.003c15.918 29.7773 39.4971 80.043 66.2529 139.996l50.0654 -0.71582c-28.124 -63.7686 -55.4678 -123.824 -81.3086 -162.277c-36.0469 -54.3389 -61.2559 -82.0059 -101.256 -82.0059c-78.75 0 -112.5 89 -112.5 125c0 24 15 49.5 43.75 49.5
c46.7871 0 51.666 -11.167 117.494 -57.5781l-6.32422 -14.7217c-76.2148 52.9287 -76.8389 53.7998 -86.1699 53.7998c-15 0 -23.75 -16 -23.75 -34c0 -13 13.75 -110 67.5 -110c28.75 0 47.084 52 66.2461 93.0029zM811.249 14.999c41.5518 0 63.75 22 91.25 44
c35 28 98.75 112 98.75 226c0 62 -12.5 114 -31.25 159c-21.25 55 -68.75 116 -116.25 163c-75 77 -160 135 -257.5 169c-33.75 13 -123.75 31 -161.25 31c-83.75 0 -111.25 -8 -158.75 -29c-51.25 -22 -93.75 -107 -93.75 -155c0 -114 161.25 -219 238.75 -219
c38.75 0 55 19 55 42c0 26 -20 26 -31.25 65c0 33 32.5 36 43.75 36c40 0 48.75 -38 48.75 -59c0 -26 -12.5 -51 -26.25 -71c-13.75 -21 -41.25 -28 -71.25 -28c-113.75 0 -313.75 127 -313.75 239c0 31 22.5 131 130 173c42.5 16 107.5 20 136.25 20
c86.25 0 155 -12 212.5 -33c115 -43 182.5 -81 256.25 -141c60 -50 111.25 -112 146.25 -174c40 -70 46.25 -142 46.25 -214c0 -71 -51.25 -154 -83.75 -190c-13.75 -15 -81.25 -70 -153.75 -70c-72.5107 0 -93.8691 13.1543 -174.466 59.9922l8.55469 13.3447
c45.0723 -26.4814 97.1611 -57.3369 160.911 -57.3369zM743.824 314.17l-52.125 0.651367c42.2168 100.506 82.3457 205.065 87.0508 251.178c21.25 -1 48.75 -8 48.75 -29c0 -4.74512 -37.1514 -110.361 -83.6758 -222.829zM736.25 295.999c45 1 101.25 2 167.5 8
c-2.5 -10 -6.25 -25 -8.75 -34c-36.25 -3 -61.25 -4 -96.25 -4c-0.03125 0 -126.241 1.99902 -126.25 2c-37.5 1 -81.25 1 -128.75 1c0 7 1.25 14 7.5 29c32.5 -1 138.75 -1 185 -2z" />
    <glyph glyph-name="Ntilde" unicode="&#xd1;" horiz-adv-x="1110" 
d="M870 678c22.5 29 36.25 35 47.5 35c40 0 105 -23 138.75 -23c38.75 0 47.5 11 68.75 28c5 -6 15 -11 17.5 -19c-21.25 -13 -37.5 -27 -70 -27c-61.25 0 -100 23 -133.75 23c-31.25 0 -35 -25 -47.5 -25c-3.75 0 -11.25 1 -21.25 8zM1035.93 170.977
c-18.0098 32.6904 -24.2598 43.0234 -40.9287 69.0225c66.7393 298.552 201.329 462.045 317.499 464.001c90 0 126.25 -10 155 -45c3.75 -6 11.25 -12 16.25 -17c-1.25 -7 -26.25 -11 -32.5 -11c-20 0 -18.75 10 -43.75 34c-23.75 25 -61.25 25 -73.75 25
c-102.58 0 -246.93 -183.266 -297.82 -519.023zM988.753 212.998c6.45801 -10.499 30.417 -47.6631 41.2471 -76.3291c0 0 13.75 -54.6689 13.75 -59.6689c0 -44 -30 -77 -50 -77c-16.25 0 -53.75 13 -53.75 52c0 10.4092 23.125 74.125 24.5078 76.75
c3.20312 -6.26758 6.4707 -8.90332 9.16992 -8.90332c3.65332 0 6.26465 4.83203 6.26465 12.0127c0 5.91602 -1.77246 13.4248 -6.19238 21.1406l-170.961 296.306c7.21094 14.6943 16.7158 36.5322 24.96 63.0479c14.542 -45.8359 59.8818 -95.1143 161.004 -299.355z
M821.242 548.993c-7.49219 -25.9932 -17.9082 -49.3262 -31.2422 -79.9932c-11.25 -16 -152.5 -469 -508.75 -469c-135 0 -227.5 75 -227.5 132c0 56 61.25 62 76.25 62c71.25 0 106.25 -34 118.75 -91c0 -8 -11.25 -13 -25 -13c-7.5 0 -20 3 -25 6c1.25 7 2.5 15 2.5 25
c0 24 -7.5 55 -60 55c-47.5 0 -48.75 -32 -48.75 -62c0 -58 120 -98 186.25 -98c88.75 0 238.75 9 443.75 438c4.6875 11 10 24.25 13.75 32c27.5 60 22.5 56 25 83c3.75 12 18.75 26 33.75 26c31.25 0 36.25 -18 36.25 -22c0 -8 -7.5 -18 -10.0078 -24.0068zM694.688 436
c-25.7012 -17.918 -58.6621 -40 -93.4375 -40c-137.5 0 -110 152 -280 152c-82.5 0 -110 -39 -110 -80c0 -45 28.75 -95 57.5 -95c70 0 45 42 57.5 42c5 0 27.5 -11 27.5 -27c0 -11 -12.5 -28 -72.5 -28c-68.75 0 -118.75 53 -118.75 106c0 78 95 95 155 95
c207.231 -2.80957 172.78 -150 282.5 -150c23.0801 0 73.8311 28.377 107.5 51.75c-3.75 -11.25 -12.8125 -26.75 -12.8125 -26.75z" />
    <glyph glyph-name="Ograve" unicode="&#xd2;" horiz-adv-x="667" 
d="M592.5 723c26.25 20 46.25 39 57.5 39c12.5 0 22.5 -12 26.25 -26v-6c0 -27 -43.75 -61 -57.5 -72c-11.25 -9 -30 -20 -46.25 -31c17.5 24 32.5 37 42.5 52c5 8 7.5 14 7.5 20c0 19 -17.5 22 -30 24zM365 0c-108.75 0 -283.75 53 -283.75 197c0 233 152.5 397 340 397
c105 0 187.5 -62 187.5 -117c0 -34 -47.5 -145 -102.5 -205c-27.5 -29 -92.5 -45 -92.5 -45h-2.5v7c0 17 42.5 12 76.25 43c42.5 38 78.75 128 78.75 212c0 68 -105 86 -130 86c-197.563 0 -305 -195 -305 -413c0 -106 145 -143 218.75 -143c200 0 291.25 260 291.25 333
c0 26 -3.24707 51.6621 -17.5 77c-1.72656 3.06836 -2.30469 6.70117 -2.30469 10.4121c0 4.35156 0.795898 8.80957 1.46973 12.5879c1.18848 6.66016 1.91699 10.2266 2.78711 15.8193c0.547852 3.51367 0.963867 6.84766 0.962891 14.5156
c30 -23 62.085 -42.335 62.085 -127.335c0 -111 -72.5 -355 -323.75 -355z" />
    <glyph glyph-name="Oacute" unicode="&#xd3;" horiz-adv-x="667" 
d="M645 742c0 -5 -8.75 -32 -16.25 -53c-6.25 5 -15 13 -22.5 13c-20 0 -30 -12 -36.25 -19c-10.9219 -13.5908 -20 -31.5 -34.7422 -55.833l-1.50781 0.833008c3.75 14 8.75 52 26.25 84c20 35 36.25 44 60 44c15 0 25 -5 25 -14zM365 0c-108.75 0 -283.75 53 -283.75 197
c0 233 152.5 397 340 397c105 0 187.5 -62 187.5 -117c0 -34 -47.5 -145 -102.5 -205c-27.5 -29 -92.5 -45 -92.5 -45h-2.5v7c0 17 42.5 12 76.25 43c42.5 38 78.75 128 78.75 212c0 68 -105 86 -130 86c-197.563 0 -305 -195 -305 -413c0 -106 145 -143 218.75 -143
c200 0 291.25 260 291.25 333c0 26 -3.24707 51.6621 -17.5 77c-1.72656 3.06836 -2.30469 6.70117 -2.30469 10.4121c0 4.35156 0.795898 8.80957 1.46973 12.5879c1.18848 6.66016 1.91699 10.2266 2.78711 15.8193c0.547852 3.51367 0.963867 6.84766 0.962891 14.5156
c30 -23 62.085 -42.335 62.085 -127.335c0 -111 -72.5 -355 -323.75 -355z" />
    </font>
</defs>
</svg>
