<?xml version="1.0" standalone="no"?>
<!DOCTYPE svg PUBLIC "-//W3C//DTD SVG 1.1//EN" "http://www.w3.org/Graphics/SVG/1.1/DTD/svg11.dtd" >
<svg xmlns="http://www.w3.org/2000/svg" xmlns:xlink="http://www.w3.org/1999/xlink" version="1.1">
<metadata>
Created by FontForge 20170924 at Mon Jul 18 04:52:07 2011
 By Glenn,,,
Copyright (c) 2011 by Brian J. Bonislawsky DBA Astigmatic (AOETI). All rights reserved. Available under the Apache 2.0 licence.http://www.apache.org/licenses/LICENSE-2.0.html
</metadata>
<defs>
<font id="Yellowtail" horiz-adv-x="750" >
  <font-face 
    font-family="Yellowtail"
    font-weight="400"
    font-stretch="normal"
    units-per-em="2048"
    panose-1="2 0 5 6 0 0 0 2 0 3"
    ascent="1638"
    descent="-410"
    x-height="778"
    cap-height="1453"
    bbox="-500 -617 2414 1990"
    underline-thickness="41"
    underline-position="-272"
    unicode-range="U+0020-FB02"
  />
<missing-glyph horiz-adv-x="2048" 
 />
    <glyph glyph-name=".notdef" horiz-adv-x="2048" 
 />
    <glyph glyph-name=".null" horiz-adv-x="0" 
 />
    <glyph glyph-name="CR" horiz-adv-x="425" 
 />
    <glyph glyph-name="space" unicode=" " horiz-adv-x="425" 
 />
    <glyph glyph-name="comma" unicode="," horiz-adv-x="487" 
d="M359 -41c-47 -63 -153 -152 -217 -152c-32 0 -30 17 -47 25c-7 2 -11 11 -11 20c0 8 3 16 9 21c8 6 70 92 78 113c-11 10 -16 24 -16 40c0 52 56 122 130 122c77 0 102 -52 102 -98c0 -35 -12 -70 -28 -91z" />
    <glyph glyph-name="hyphen" unicode="-" horiz-adv-x="650" 
d="M214 399h-5c-21 -2 -59 11 -59 52c0 18 19 30 23 49c7 33 66 83 87 85c56 6 113 8 170 14c86 6 59 6 146 6c9 0 46 0 53 -4c18 -12 22 -39 37 -57c8 -9 12 -15 12 -30c0 -41 -34 -61 -56 -63c-56 -11 -113 -14 -169 -21c-117 -15 -121 -29 -239 -31z" />
    <glyph glyph-name="period" unicode="." horiz-adv-x="475" 
d="M306 166c46 0 69 -29 69 -68c0 -71 -71 -161 -153 -161c-57 0 -72 37 -72 73c0 81 76 156 156 156z" />
    <glyph glyph-name="one" unicode="1" horiz-adv-x="467" 
d="M478 596c-154 -254 -312 -516 -341 -600c0 -2 -47 -21 -70 -21c-11 0 -17 32 -52 72c-5 10 -24 14 -24 20c0 1 0 2 1 3c41 94 358 632 537 884c-32 -22 -58 -43 -87 -67c-7 -5 -8 -6 -14 -6c-16 0 -16 33 -23 45c-7 10 -12 13 -12 23c1 5 3 12 8 24
c15 41 269 260 330 260c35 0 86 -53 86 -91c-3 -25 -167 -264 -339 -546z" />
    <glyph glyph-name="two" unicode="2" horiz-adv-x="770" 
d="M267 164c104 21 296 51 358 51c51 0 34 -27 49 -35c16 -9 28 -77 29 -98v-9c0 -20 -7 -36 -26 -40c-166 -35 -431 -39 -570 -58c-11 0 -45 12 -67 23c-2 2 -29 41 -30 66c0 11 12 47 19 61c6 13 55 64 125 141c67 73 243 211 329 307c175 196 422 424 421 490
c0 13 -15 19 -33 19c-59 0 -240 -83 -411 -320c-5 -4 -6 -14 -6 -21c-12 -30 -59 -46 -79 -46c-16 0 -55 15 -77 36c-5 4 -9 16 -9 35c0 111 319 469 632 469c97 0 136 -106 136 -157c0 -205 -618 -743 -790 -914z" />
    <glyph glyph-name="three" unicode="3" horiz-adv-x="841" 
d="M630 625c101 0 217 -68 217 -174c0 -3 -1 -6 -1 -9c-19 -219 -357 -467 -644 -467c-101 0 -137 81 -137 132c0 64 67 137 112 137c27 0 3 -92 70 -92c158 0 434 149 434 245c-3 54 -84 97 -250 97c-30 0 -47 40 -47 77c0 72 75 96 157 156c88 65 341 236 341 326
c0 15 -13 22 -30 22c-81 0 -370 -164 -476 -340c-8 -14 -9 -30 -29 -30c-46 0 -77 40 -79 80c0 5 0 9 1 14c9 108 314 420 619 420c103 0 144 -68 144 -133c0 -97 -98 -261 -402 -461z" />
    <glyph glyph-name="four" unicode="4" horiz-adv-x="900" 
d="M1125 1165c-149 -229 -256 -405 -346 -567c129 13 205 21 240 21c6 0 9 -4 9 -9s-5 -17 -15 -32c-20 -29 -83 -123 -112 -136c-10 -2 -92 -12 -222 -24c-53 -94 -140 -250 -242 -438c-19 -42 -117 -43 -158 -60c-14 0 -37 21 -38 37c48 102 137 256 246 446
c-169 -12 -300 -22 -325 -22c-26 0 -33 47 -33 85c0 25 3 47 6 54c78 180 780 717 891 735c2 0 26 -9 70 -24c12 -7 13 -28 23 -33c2 -4 8 -18 8 -28c0 -2 -1 -4 -2 -5zM317 535c94 18 173 30 272 43c72 122 182 296 312 479c-181 -150 -437 -393 -584 -522z" />
    <glyph glyph-name="five" unicode="5" horiz-adv-x="795" 
d="M1081 1044c-50 -38 -323 -55 -463 -67c-45 -72 -127 -211 -168 -281c30 6 66 10 102 10c111 0 231 -38 239 -172c0 -340 -399 -571 -611 -571c-121 0 -172 62 -172 158c0 69 33 135 84 135c15 0 22 -11 22 -35c3 -58 44 -81 100 -81c146 0 420 165 420 313
c-3 55 -77 71 -156 71c-69 0 -141 -11 -182 -20c-8 -2 -13 -3 -16 -3c-8 0 -11 0 -34 56c-4 4 -5 8 -5 17s3 23 12 44c47 113 294 499 310 517c15 17 33 30 59 30c82 20 401 49 397 49c32 0 78 -85 78 -105c0 -19 -9 -59 -16 -65z" />
    <glyph glyph-name="six" unicode="6" horiz-adv-x="841" 
d="M1137 1122c-268 -88 -485 -231 -702 -497c127 88 217 131 301 131c57 0 131 -41 136 -136c0 -251 -328 -657 -655 -657c-72 0 -142 62 -142 168c0 6 0 11 1 17c19 209 150 444 318 657c253 320 602 461 679 461c72 0 82 -54 82 -94c0 -26 -6 -46 -18 -50zM635 610
c-86 0 -240 -92 -303 -149c-72 -134 -105 -239 -105 -297c0 -30 9 -51 32 -51c38 0 135 45 253 155c102 95 184 215 184 285c-3 40 -36 57 -61 57z" />
    <glyph glyph-name="seven" unicode="7" horiz-adv-x="700" 
d="M1012 1020c-81 -114 -264 -334 -379 -496c-187 -265 -289 -444 -346 -555c-7 -14 -24 -21 -38 -21s-26 7 -39 7c-15 0 -63 32 -63 62c0 21 17 52 41 106c75 169 530 778 697 930c-133 -9 -518 -54 -543 -54c-14 0 -21 4 -21 17c0 23 26 56 29 74c3 7 65 52 75 59
c16 12 16 28 56 47c28 13 357 35 488 36c14 0 26 -1 35 -1c28 0 61 -71 61 -106c0 -13 -3 -27 -11 -46c0 -2 -17 -22 -42 -59z" />
    <glyph glyph-name="eight" unicode="8" horiz-adv-x="820" 
d="M648 648l-3 -9c54 -75 125 -141 125 -240v-19c-22 -250 -294 -411 -517 -411c-111 0 -233 47 -233 171c0 5 1 11 1 17c28 195 256 386 407 490c-32 56 -49 121 -49 185c0 8 1 17 2 26c32 197 216 395 410 395c68 0 136 -20 168 -83c4 -10 10 -22 10 -33
c0 -18 -16 -58 -27 -88c22 16 209 157 228 157c16 0 33 3 48 3c43 0 64 -3 64 -32c0 -26 -10 -44 -27 -59c-62 -53 -132 -97 -196 -149c-139 -105 -274 -215 -411 -321zM506 540l-7 1c-81 -63 -282 -234 -282 -332c2 -51 49 -73 99 -73c110 0 295 92 295 223
c0 61 -49 118 -88 162h1c-5 7 -11 13 -18 19zM544 888c-1 -9 -2 -18 -2 -26c0 -38 11 -75 26 -114c97 82 205 169 304 247c-26 48 -67 83 -123 83c-93 0 -194 -93 -205 -190z" />
    <glyph glyph-name="nine" unicode="9" horiz-adv-x="818" 
d="M109 -43c-37 0 -52 27 -67 67c-12 22 -17 37 -17 51c0 17 9 28 33 36c168 57 391 234 595 460l-5 6c-144 -77 -230 -92 -255 -92c-32 0 -121 16 -127 131c0 373 480 656 673 656c98 0 155 -60 155 -167c0 -10 0 -22 -1 -33c-31 -366 -772 -1115 -984 -1115zM894 1128
c-145 0 -460 -306 -460 -425c0 -32 25 -43 56 -43c73 0 201 61 290 108c86 115 170 233 170 303c0 31 -29 57 -56 57z" />
    <glyph glyph-name="colon" unicode=":" horiz-adv-x="692" 
d="M623 719c47 0 69 -30 69 -70c0 -70 -75 -160 -153 -160c-58 0 -73 36 -73 72c0 82 77 158 157 158zM326 166c46 0 69 -29 69 -68c0 -71 -71 -161 -153 -161c-57 0 -72 37 -72 73c0 81 76 156 156 156z" />
    <glyph glyph-name="semicolon" unicode=";" horiz-adv-x="703" 
d="M631 719c50 0 72 -30 72 -70c0 -70 -74 -160 -154 -160c-57 0 -72 36 -72 72c0 82 76 158 154 158zM403 50c0 -35 -12 -70 -28 -91c-47 -63 -153 -152 -217 -152c-32 0 -30 17 -47 25c-7 2 -11 11 -11 20c0 8 3 16 9 21c8 6 70 92 78 113c-11 10 -16 24 -16 40
c0 52 56 122 130 122c62 0 102 -43 102 -98z" />
    <glyph glyph-name="equal" unicode="=" horiz-adv-x="879" 
d="M365 686h-14c-30 0 -78 13 -78 49c0 17 27 29 33 47c10 31 94 77 125 80c147 11 311 15 452 15c12 0 66 0 76 -5c25 -10 31 -36 53 -53c10 -8 17 -14 17 -28c0 -39 -50 -59 -80 -60c-49 -3 -400 -43 -584 -45zM242 399h-14c-30 0 -78 13 -78 50c0 16 27 28 33 47
c10 30 94 76 125 79c129 10 288 15 411 15c13 0 66 0 76 -4c25 -11 31 -37 53 -54c11 -9 17 -14 17 -28c0 -39 -49 -58 -80 -60c-47 -4 -367 -43 -543 -45z" />
    <glyph glyph-name="question" unicode="?" horiz-adv-x="1098" 
d="M1418 1159c0 -392 -535 -467 -758 -694c-60 -61 28 -127 -88 -127c-18 0 -111 6 -111 77c0 72 37 129 82 170c189 176 699 357 699 581c0 82 -59 131 -223 131c-185 0 -450 -134 -450 -256c0 -6 21 -15 25 -15c27 0 45 23 55 23c9 0 15 -11 15 -19
c0 -62 -61 -94 -153 -94c-53 0 -138 59 -138 123c0 229 368 403 632 403c220 0 413 -104 413 -303zM329 -56c-39 0 -59 21 -59 60c0 80 82 170 164 170c35 0 57 -21 57 -58c0 -73 -84 -172 -162 -172z" />
    <glyph glyph-name="A" unicode="A" horiz-adv-x="1203" 
d="M1551 1366c-54 -164 -506 -1147 -560 -1247c-51 -94 -94 -172 -184 -172c-45 0 -55 -13 -70 -13c-25 0 -32 6 -32 15s6 20 10 31c4 8 104 219 227 479c-102 4 -264 10 -413 14c-138 -174 -240 -332 -310 -450c-22 -42 -38 -60 -70 -60c-35 0 -89 38 -89 88
c0 68 104 232 258 428c-56 0 -99 0 -121 -2c-33 -3 -57 -10 -74 -10c-18 0 -27 9 -27 43c0 61 72 117 197 117c18 0 61 4 152 6c268 315 622 658 868 782c18 9 30 14 41 13c18 0 29 -10 43 -25c34 66 31 69 49 69c11 0 107 -49 107 -92c0 -5 0 -9 -2 -14zM1327 1262
c-270 -205 -491 -424 -667 -629c94 -2 213 -6 358 -15c111 234 229 480 309 644z" />
    <glyph glyph-name="B" unicode="B" horiz-adv-x="1400" 
d="M1634 1161c0 -213 -295 -389 -504 -463c147 -16 323 -94 323 -264c0 -203 -327 -440 -667 -440c-250 0 -318 117 -318 151c0 9 2 33 15 62c-33 -60 -69 -125 -107 -199c-11 -22 -33 -30 -60 -30c-64 0 -96 38 -96 85c0 15 3 31 9 46c65 172 581 978 651 1056
c23 28 60 39 145 39c23 0 45 -2 45 -20c0 -8 -4 -17 -12 -31c-104 -170 -188 -299 -260 -414c264 76 647 275 647 426c0 92 -135 117 -254 117c-346 0 -637 -203 -637 -248c0 -8 4 -10 10 -10c9 0 23 7 29 7c4 0 6 -2 6 -6c0 -17 -48 -69 -112 -69c-76 0 -109 45 -109 101
c0 198 441 395 776 395c338 0 480 -123 480 -291zM1267 449c0 40 -88 124 -332 124c-151 0 -177 -27 -191 -27c-13 0 -22 9 -40 42c-68 -109 -129 -213 -199 -338c27 37 68 65 137 65c47 0 60 -8 60 -15c0 -17 -53 -11 -53 -56c0 -27 22 -72 153 -72c258 0 465 193 465 277z
" />
    <glyph glyph-name="C" unicode="C" horiz-adv-x="1164" 
d="M1524 1276c0 -186 -344 -485 -477 -485c-70 0 -119 55 -119 92c0 14 12 75 37 75c-3 -4 -4 -7 -4 -10c0 -9 14 -12 30 -12c82 0 332 233 332 312c0 16 -11 26 -35 26c-122 0 -374 -128 -565 -303c-205 -188 -385 -468 -385 -678c0 -78 39 -139 135 -139
c252 0 672 385 676 421c1 6 4 8 9 8c13 0 24 -15 24 -39c0 -33 -7 -77 -17 -132c-15 -76 -315 -416 -719 -416c-129 0 -282 131 -282 313c0 496 649 1125 1157 1125c72 0 203 -52 203 -158z" />
    <glyph glyph-name="D" unicode="D" horiz-adv-x="1607" 
d="M1801 979c0 -518 -716 -979 -1267 -979c-203 0 -180 39 -215 63c-14 9 -19 33 -19 58c0 26 5 53 8 65c46 166 555 885 670 1041c6 8 31 16 113 22c55 0 74 -6 74 -29c0 -11 -7 -24 -23 -46c-110 -153 -645 -978 -645 -993c0 -9 15 -13 57 -13c496 0 1051 485 1051 764
c0 188 -174 348 -488 348c-232 0 -429 -105 -489 -152c-27 -21 -38 -35 -38 -44c0 -5 5 -8 12 -8c19 0 35 8 43 8c6 0 9 -2 9 -4c0 -3 -6 -8 -18 -15c-29 -16 -26 -25 -45 -37c-66 -40 -94 -47 -110 -48c-10 0 -15 3 -21 3h-4c-24 0 -78 19 -78 82c0 160 305 369 741 369
c439 0 682 -193 682 -455z" />
    <glyph glyph-name="E" unicode="E" horiz-adv-x="1232" 
d="M1442 1335c0 -78 -41 -91 -77 -102c-8 -3 -16 -5 -23 -8c-52 -22 -112 -33 -164 -33c-34 0 -73 11 -79 26c1 16 10 40 22 60c-268 -10 -544 -208 -544 -300c0 -56 145 -65 227 -65c53 0 65 4 83 12c50 24 136 34 188 34c59 0 90 -20 90 -53c0 -31 -34 -101 -45 -113
c-9 -8 -105 -37 -151 -41c-3 -1 -20 -3 -32 -5c-23 -4 -47 -8 -59 -3c-434 -216 -511 -429 -511 -509c0 -83 70 -99 137 -99c217 0 692 309 692 495c0 25 38 28 48 28c37 0 91 -19 91 -115c0 -180 -430 -572 -835 -572c-147 0 -314 82 -314 281c0 221 260 420 420 511
c-97 22 -206 74 -206 212c0 266 497 480 792 480c64 0 149 -13 167 -19c54 -27 83 -81 83 -102z" />
    <glyph glyph-name="F" unicode="F" horiz-adv-x="1189" 
d="M1789 1432c0 -48 -127 -156 -356 -172c-80 -101 -203 -263 -361 -500c52 -2 101 -6 148 -12c45 -6 63 -27 63 -52c0 -16 -39 -53 -57 -69c-21 -23 -23 -45 -53 -45c-23 0 -19 2 -29 4c-26 1 -67 3 -117 3c-20 0 -42 -1 -65 -1c-129 -201 -349 -543 -361 -565
c-16 -29 -29 -48 -68 -48c-11 0 -24 2 -40 5c-55 10 -81 19 -81 47c0 9 4 21 9 36c21 60 213 340 336 517c-143 -7 -279 -17 -322 -21c-10 -2 -31 -12 -47 -12c-18 0 -28 17 -28 35c0 6 2 13 4 18c24 55 36 55 45 74c9 18 42 56 71 63c19 4 195 23 404 25
c70 106 207 311 326 450c-88 -16 -228 -34 -459 -34c-285 0 -369 71 -369 165c0 60 66 117 170 117c53 0 70 -10 70 -17c0 -5 -7 -9 -17 -9c-41 0 -67 -31 -67 -48c0 -16 63 -45 309 -45c232 0 406 17 535 37c94 78 182 131 303 131c42 0 70 -16 86 -39c9 -13 17 -25 18 -38
zM1658 1450c-14 -4 -27 -10 -39 -16c25 10 39 14 39 16z" />
    <glyph glyph-name="G" unicode="G" horiz-adv-x="1295" 
d="M1705 1243c0 -106 -228 -287 -415 -363c12 4 26 7 43 7c53 0 79 -6 98 -27c4 -4 6 -9 6 -13c0 -12 -13 -24 -27 -40c-225 -260 -392 -476 -516 -645c47 37 103 82 170 143c23 21 62 37 100 37c48 0 63 -18 63 -27c0 -7 -5 -14 -13 -20c0 0 -166 -145 -545 -426
c-100 -111 -246 -262 -328 -348c-32 -33 -79 -48 -120 -48c-52 0 -95 22 -95 62c0 4 2 30 43 86c56 82 193 191 303 275c191 213 416 448 480 544c-119 -112 -420 -395 -658 -395c-102 0 -184 70 -184 225c0 449 778 1180 1390 1180c74 0 138 -31 160 -53
c21 -21 45 -68 45 -154zM1224 823c14 13 28 39 59 54c-52 -21 -100 -33 -139 -33c-61 0 -115 33 -115 80c0 68 70 115 92 115c4 0 6 -2 6 -5c0 -5 -5 -13 -5 -20c0 -9 5 -17 23 -17c5 0 10 1 16 2c149 27 387 197 387 281c0 29 -37 35 -62 35c-457 0 -1206 -705 -1206 -1016
c0 -35 20 -76 69 -76c141 0 476 234 875 600z" />
    <glyph glyph-name="H" unicode="H" horiz-adv-x="1536" 
d="M1994 1413c9 -7 12 -14 12 -22c0 -15 -11 -29 -21 -45c-119 -185 -290 -443 -436 -682c-147 -240 -391 -650 -399 -658c-2 -2 -1 -10 -10 -10c-3 0 -9 3 -14 3c-8 0 -16 -7 -27 -7c-4 0 -11 3 -16 3c-6 0 -10 -3 -17 -3h-6c-9 0 -28 -8 -56 -8c-31 0 -50 9 -50 34
c0 9 3 21 9 35c27 64 215 373 312 531c-111 -3 -254 -5 -365 -5c-92 0 -143 1 -215 1c-139 -224 -338 -580 -358 -586c-6 -1 -10 -2 -15 -2c-23 0 -20 19 -31 19c-7 0 -6 -8 -32 -8c-10 0 -20 1 -23 1s-6 6 -9 6s0 -6 -10 -6c-25 0 -43 13 -43 36c0 5 0 10 1 15
c2 20 32 85 43 103c75 127 196 300 274 420c-51 2 -90 1 -104 4c-42 7 -73 28 -90 96c-7 26 -11 43 -10 54c0 23 12 27 23 27s18 -7 26 -7c61 -2 147 -9 205 -9c18 0 36 2 57 2c72 113 199 302 311 461c-55 -45 -155 -108 -293 -108c-96 0 -186 49 -186 135
c0 70 70 115 139 115c12 0 21 -6 21 -12c0 -9 -21 -9 -21 -19c0 -22 55 -41 117 -41c115 0 377 176 389 184c10 5 43 16 72 16c45 0 58 -36 69 -49c7 -6 11 -9 11 -16c0 -6 -3 -13 -9 -25c-14 -28 -272 -419 -411 -634c88 0 391 4 577 10c123 194 378 596 402 629
c24 34 45 42 76 42c24 0 75 -6 88 -6c20 0 20 2 43 -14z" />
    <glyph glyph-name="I" unicode="I" horiz-adv-x="574" 
d="M1092 1423c-225 -331 -548 -817 -893 -1378c-19 -31 -28 -38 -39 -41c-4 0 -28 -12 -82 -22c-6 -2 -16 0 -20 -2c-6 -7 -21 -10 -30 -10c-2 0 -4 0 -5 1c-8 0 -45 13 -45 19c0 8 0 49 4 59c45 152 828 1318 922 1393c10 8 22 11 37 11c34 0 61 -3 80 -3c23 0 36 2 47 2
c16 0 26 -9 26 -20c0 -3 0 -6 -2 -9z" />
    <glyph glyph-name="J" unicode="J" horiz-adv-x="1314" 
d="M1059 328c33 16 160 71 188 71c11 0 13 -8 13 -18c0 -30 -40 -75 -56 -98c-70 -100 -201 -139 -309 -193c-1 1 -196 -302 -348 -469c-120 -132 -239 -223 -422 -223c-90 0 -125 98 -125 174c0 278 565 557 791 659c221 326 503 723 739 1039c2 4 8 8 8 12s-6 4 -8 4
c-51 0 -104 -10 -156 -20c-306 -62 -621 -235 -843 -451c-58 -56 -152 -159 -152 -244c0 -69 72 -112 135 -112c105 0 205 98 221 98c6 0 6 -8 6 -14c0 -48 -20 -100 -47 -137c-43 -58 -153 -93 -223 -93c-131 0 -289 84 -289 232c0 23 6 49 13 71c85 277 405 489 647 621
c246 134 579 227 860 227c49 0 94 -34 94 -86c0 -8 0 -16 -2 -24c-16 -41 -187 -257 -227 -310c-143 -191 -372 -522 -508 -716zM635 -6c-92 -57 -492 -309 -492 -408c0 -16 13 -22 27 -22c148 0 383 315 465 430z" />
    <glyph glyph-name="K" unicode="K" horiz-adv-x="1468" 
d="M1865 1335c-291 -262 -834 -536 -1135 -673c123 -70 252 -166 385 -269c172 -127 336 -241 401 -241c44 0 53 29 65 29c8 0 17 -5 17 -16c0 -2 0 -6 -2 -9c-8 -23 -53 -127 -86 -156c-23 -20 -55 -23 -86 -23c-151 0 -663 482 -854 560c-157 -248 -297 -465 -321 -512
c-6 -11 -31 -29 -35 -29c-23 0 -29 -6 -43 -6c-13 0 -25 2 -35 2c-8 0 -15 -1 -22 -6c-7 -6 -15 -4 -21 -9c-4 -4 -7 -7 -13 -7c-19 0 -52 28 -52 47c0 16 11 34 18 49c6 12 182 276 365 548c-25 0 -86 -4 -86 39c0 45 57 107 98 107c26 0 51 -2 78 -6
c129 190 245 366 291 438c-48 -45 -130 -109 -220 -109c-69 0 -108 54 -108 121c0 80 86 114 94 114c7 0 9 -4 9 -8c0 -8 -8 -16 -8 -24s9 -14 46 -14c96 0 293 190 377 190c29 0 45 -4 59 -14c7 -6 17 -4 27 -12c12 -11 12 -19 18 -23c11 -9 19 -19 19 -33
c0 -8 -2 -16 -8 -26c-23 -35 -158 -242 -312 -484c355 185 881 525 912 568c5 8 10 10 17 10c11 0 24 -9 36 -10c54 -8 127 -23 127 -76c0 -10 -4 -20 -12 -27z" />
    <glyph glyph-name="L" unicode="L" horiz-adv-x="1476" 
d="M1776 1321c0 -180 -340 -428 -422 -428c-71 0 -107 60 -107 108c0 34 16 48 26 48c6 0 10 -4 11 -11c67 20 289 206 289 249c0 6 -4 9 -12 9c-67 0 -237 -88 -553 -555c-128 -189 -229 -350 -326 -477c246 -61 514 -135 733 -135c125 0 149 35 159 35c5 0 9 -4 9 -10
c0 -3 -1 -8 -4 -13c-10 -18 -76 -123 -102 -139c-27 -16 -105 -29 -193 -29c-258 0 -500 90 -729 152c-119 -107 -252 -166 -444 -166c-248 0 -261 113 -261 193c0 79 64 194 367 194c76 0 166 -14 264 -35c127 142 239 344 371 537c245 356 495 616 762 616
c127 0 162 -82 162 -143zM322 176c-46 6 -89 10 -132 10c-96 0 -131 -16 -131 -31s34 -30 76 -30c68 0 129 18 187 51z" />
    <glyph glyph-name="M" unicode="M" horiz-adv-x="1582" 
d="M2046 1401c-131 -174 -708 -950 -823 -1208c76 16 192 118 313 251c13 15 22 30 30 30c16 0 22 -73 26 -105c1 -13 8 -24 8 -38s-6 -32 -25 -57c-76 -100 -325 -309 -430 -309c-92 0 -143 69 -143 133c0 7 1 14 2 21c26 139 432 719 626 989
c-274 -283 -915 -967 -1054 -1081c-12 -10 -26 -14 -43 -14c-50 0 -111 40 -111 86v5c6 56 342 711 510 998c-207 -228 -677 -807 -919 -1292c-12 -25 -27 -32 -45 -32c-15 0 -33 5 -56 11c-52 14 -88 41 -88 84c0 97 904 1362 1202 1561c25 17 44 22 57 22
c22 0 31 -13 39 -13c3 0 5 1 7 3c9 11 29 16 52 16c48 0 111 -22 111 -49c0 -3 -1 -5 -2 -8c-20 -55 -362 -639 -548 -999c200 241 854 942 1067 1069c7 5 16 7 27 7c18 0 40 -5 71 -14c35 -10 90 -11 106 -14c20 -4 39 -19 39 -37c0 -5 -2 -11 -6 -16z" />
    <glyph glyph-name="N" unicode="N" horiz-adv-x="1325" 
d="M1805 1470c0 -125 -650 -1072 -950 -1437c-15 -18 -41 -33 -68 -33c-24 0 -63 9 -78 14c-16 5 -43 16 -43 47c0 107 150 846 193 1057c-236 -307 -631 -960 -672 -1069c-18 -49 -26 -90 -82 -90c-48 0 -63 -9 -79 -9c-31 0 -62 22 -62 40c0 109 676 1208 926 1423
c15 13 30 16 41 16c18 0 33 -8 47 -8c17 0 48 16 73 16c38 0 62 -19 62 -41c0 -4 -1 -9 -2 -14c-8 -32 -143 -682 -195 -952c142 193 604 848 662 1018c26 75 68 80 102 80c35 0 125 -11 125 -58z" />
    <glyph glyph-name="O" unicode="O" horiz-adv-x="1306" 
d="M1630 1206c0 -338 -600 -1224 -1174 -1224c-102 0 -286 96 -286 333c0 222 145 514 366 748c228 237 533 416 799 416c45 0 106 -21 106 -62c0 -12 -6 -25 -18 -41s-18 -33 -31 -45c25 6 50 8 70 8c98 0 168 -79 168 -133zM1409 1149c-86 0 -307 -201 -307 -259
c0 -5 3 -8 3 -13c0 -8 -6 -20 -15 -20c-11 0 -101 79 -101 130c0 105 170 258 334 324c-188 -11 -464 -178 -651 -389c-187 -210 -308 -462 -308 -600c0 -78 33 -158 117 -158c226 0 523 293 688 504c148 188 254 394 254 460c0 14 -5 21 -14 21z" />
    <glyph glyph-name="P" unicode="P" horiz-adv-x="1478" 
d="M1848 1157c0 -307 -459 -616 -796 -616c-72 0 -127 39 -162 90c-193 -303 -373 -596 -377 -602c-10 -11 -27 -23 -45 -23c-16 0 -32 -9 -49 -9c-8 0 -16 2 -24 2h-17c-46 0 -59 20 -59 37c0 5 1 11 3 17c72 189 705 1107 779 1186c26 28 51 31 114 31h50
c8 0 13 -15 13 -29c0 -8 -2 -15 -5 -20c-72 -101 -193 -289 -318 -486c13 -26 45 -24 95 -24c260 0 577 272 577 393c0 141 -176 192 -364 192c-201 0 -533 -137 -646 -223c-23 -17 -33 -36 -33 -51c0 -18 17 -32 44 -32c14 0 30 4 49 11h1c4 0 5 -10 5 -21
c0 -10 -1 -21 -4 -24c-17 -12 -94 -73 -180 -73c-91 0 -129 65 -129 143c0 174 393 414 929 414c355 0 549 -148 549 -283z" />
    <glyph glyph-name="Q" unicode="Q" horiz-adv-x="1393" 
d="M1665 1147c0 -324 -426 -946 -889 -1129c117 -94 248 -206 324 -206c87 0 79 45 96 45c8 0 13 -9 13 -19c0 -12 -26 -55 -38 -67c-59 -58 -153 -99 -213 -99c-155 0 -381 248 -475 357c-57 -27 -119 -45 -178 -45c-96 0 -203 104 -203 237c0 266 270 642 465 821
c268 246 528 388 776 388c223 0 322 -125 322 -283zM1485 1180c0 73 -48 88 -96 88c-252 0 -517 -169 -691 -340c-259 -255 -401 -541 -401 -681c0 -34 9 -59 26 -73c56 0 265 80 410 246c5 5 10 10 15 10c3 0 7 -2 10 -6c4 -9 36 -49 36 -103c0 -39 -13 -89 -139 -188
c154 55 455 369 629 612c149 213 201 388 201 435z" />
    <glyph glyph-name="R" unicode="R" horiz-adv-x="1502" 
d="M1782 1145c0 -287 -434 -494 -744 -561c124 -129 395 -534 515 -534c13 0 26 12 33 12c6 0 11 -5 11 -11c0 -4 -3 -9 -8 -14c-75 -84 -96 -115 -170 -115c-147 0 -440 447 -583 631c-97 -152 -248 -383 -301 -496c-17 -37 -42 -42 -68 -42c-12 0 -24 1 -35 1
c-12 0 -21 -1 -30 -1c-20 0 -62 7 -62 52c0 25 11 63 37 119c41 88 661 989 715 1041c18 17 26 24 41 28c4 2 10 9 16 9c8 0 12 -3 18 -3s13 3 17 3c12 0 16 -9 26 -17c26 -19 42 -34 42 -56c0 -12 -4 -24 -13 -40c-19 -35 -188 -272 -289 -418c224 10 656 275 656 432
c0 86 -191 121 -295 121c-205 0 -484 -90 -613 -162c-85 -48 -133 -96 -133 -111c0 -6 18 -7 26 -7c9 0 21 4 46 20c1 1 3 1 4 1c8 0 15 -8 15 -17c0 -4 -2 -8 -5 -11c-69 -69 -131 -84 -194 -84c-27 0 -90 37 -90 105c0 40 21 87 80 147c103 104 466 275 835 275
c416 0 500 -219 500 -297z" />
    <glyph glyph-name="S" unicode="S" horiz-adv-x="1369" 
d="M1679 1356c0 -23 -3 -59 -13 -80c-12 -23 -23 -25 -37 -37c-59 -51 -295 -41 -315 -53c-3 -2 -6 -4 -9 -4c-6 0 -18 9 -18 30c0 18 18 44 39 70c-348 -20 -739 -299 -739 -377c0 -32 33 -73 248 -129c217 -56 504 -138 504 -352c0 -197 -338 -453 -885 -453
c-235 0 -313 104 -313 187c0 97 101 129 114 129c11 0 18 -5 18 -12c0 -9 -13 -18 -13 -27c0 -39 136 -82 249 -82c305 0 629 178 629 268c0 63 -176 111 -400 164c-237 55 -358 140 -358 283c0 313 651 571 1008 571c192 0 291 -55 291 -96z" />
    <glyph glyph-name="T" unicode="T" horiz-adv-x="1161" 
d="M1743 1434c11 -17 18 -34 18 -51c0 -92 -198 -142 -356 -166c-96 -123 -194 -279 -278 -398c-258 -368 -479 -868 -682 -868c-53 0 -115 24 -115 106c0 88 135 234 166 260c11 9 20 14 26 14c7 0 11 -5 11 -13c0 -6 -5 -14 -5 -21c0 -8 9 -16 18 -16c5 0 10 2 14 8
c12 16 142 188 321 463c97 148 181 292 285 417c-111 -28 -293 -68 -462 -68c-68 0 -134 6 -192 23c-78 22 -98 54 -98 107c0 10 1 21 2 33c6 73 111 114 168 114c15 0 23 -6 23 -14c0 -15 -33 -38 -33 -52c0 -20 44 -32 201 -32c208 0 374 23 561 61c43 35 90 68 143 97
s108 43 154 43c51 0 92 -16 110 -47z" />
    <glyph glyph-name="U" unicode="U" horiz-adv-x="1516" 
d="M1859 1335c-39 -53 -701 -973 -701 -1106c0 0 0 -1 1 -1c10 0 106 48 198 126c82 69 168 146 207 191c5 6 9 8 13 8c18 0 27 -49 27 -96c0 -27 -3 -54 -9 -70c-62 -160 -420 -401 -594 -401c-52 0 -95 43 -95 112c0 127 177 418 349 654c-242 -281 -656 -756 -914 -756
c-110 0 -149 90 -149 156c0 135 96 321 221 514c121 188 237 348 354 485c-67 -59 -149 -127 -205 -127c-67 0 -102 55 -102 115c0 55 80 112 98 112c11 0 19 0 19 -4c0 -6 -30 -34 -30 -45c0 -5 3 -8 13 -8c54 0 277 139 394 233c18 15 39 21 59 21c21 0 42 -6 61 -16
c3 10 62 -22 62 -54c0 -7 -3 -15 -8 -22c-138 -178 -457 -600 -566 -766c-64 -98 -174 -287 -174 -365c0 -22 8 -35 29 -35c39 0 243 164 475 390c258 251 548 576 746 802c23 26 35 30 51 29h9c21 0 11 7 83 7c69 0 100 -12 100 -37c0 -10 -6 -24 -22 -46z" />
    <glyph glyph-name="V" unicode="V" horiz-adv-x="1368" 
d="M1868 1389c0 -134 -379 -705 -918 -1127c-202 -158 -397 -276 -577 -276c-119 0 -162 102 -162 180c0 254 434 797 594 983c-86 -72 -213 -180 -313 -180c-74 0 -97 67 -97 116c0 52 58 121 97 121c8 0 11 -4 11 -8c0 -14 -15 -24 -15 -33c0 -7 6 -11 18 -11
c9 0 23 3 41 11c47 21 282 172 375 258c17 15 42 22 69 22c66 0 143 -37 143 -68c0 -2 0 -5 -1 -7c-7 -18 -3 -31 -13 -47c-105 -166 -700 -944 -700 -1104c0 -24 10 -45 35 -45c57 0 258 115 479 315c192 173 719 723 719 914c0 9 -6 12 -13 12c-12 0 -27 -7 -33 -7
s-11 9 -11 17c0 6 2 12 8 15c14 8 90 55 184 55c55 0 80 -47 80 -106z" />
    <glyph glyph-name="W" unicode="W" horiz-adv-x="1835" 
d="M2285 1391c0 -363 -1006 -1416 -1284 -1416c-39 0 -142 2 -142 129c0 134 99 347 205 523c-397 -471 -674 -645 -780 -645c-36 0 -139 71 -139 135c0 350 526 921 675 1079c-92 -80 -200 -149 -262 -149c-35 0 -55 14 -71 47c-15 24 -21 55 -21 73c0 34 82 94 90 94
c6 0 16 -9 16 -14c0 -2 -14 -12 -14 -20c0 -2 2 -4 6 -4c35 0 377 229 412 229c72 0 148 -50 148 -83c0 -8 -3 -17 -9 -26c-69 -114 -370 -473 -579 -778c-124 -181 -178 -305 -178 -340c0 -7 2 -10 6 -10c93 0 1023 997 1048 1030c24 31 48 49 116 49
c105 0 134 -24 134 -51c0 -31 -70 -97 -141 -188c-164 -209 -432 -709 -432 -818c0 -14 4 -22 14 -22c28 0 261 191 506 465c254 284 455 594 455 668c0 36 -19 46 -40 46c-20 0 -42 -10 -51 -10c-5 0 -11 9 -11 19c0 6 3 13 9 16c70 35 121 66 193 66c49 0 121 -33 121 -94
z" />
    <glyph glyph-name="X" unicode="X" horiz-adv-x="1206" 
d="M1774 1333c-37 -49 -113 -73 -891 -682c-51 -196 -96 -381 -96 -477c0 -20 2 -28 9 -28c3 0 8 3 15 8c86 51 325 266 355 303c17 20 28 30 36 29c11 0 15 -14 15 -36c0 -8 -1 -13 -1 -17c0 -10 19 -38 19 -82c0 -27 -5 -55 -18 -75c-24 -38 -254 -311 -471 -311
c-62 0 -146 43 -146 178c0 70 21 187 52 320c-242 -203 -570 -479 -582 -483c-4 -3 -7 -3 -10 -3c-5 0 -9 4 -15 4c-2 0 -4 -1 -6 -1c-9 0 -31 23 -57 45c-26 21 -39 28 -38 48c0 9 2 20 7 36c15 51 385 340 770 639c60 229 119 438 119 473c0 6 -3 8 -9 8
c-49 0 -294 -216 -294 -264c0 -17 -8 -23 -17 -23c-12 0 -52 34 -57 74c-5 35 -10 41 -10 76c0 108 367 366 477 366c68 0 113 -55 113 -125c0 -71 -39 -227 -86 -401c315 242 581 443 596 452c18 10 42 14 69 14c53 0 112 -14 138 -24c10 -4 19 -15 19 -26
c0 -5 -2 -10 -5 -15z" />
    <glyph glyph-name="Y" unicode="Y" horiz-adv-x="1362" 
d="M1781 1350c-13 -54 -910 -1489 -1030 -1739c41 43 106 98 120 110c3 2 6 4 9 4c11 0 20 -11 20 -21c0 -2 0 -5 -2 -7c-35 -39 -94 -123 -156 -195c-53 -61 -63 -116 -110 -116c-92 0 -144 106 -144 141c0 104 576 995 822 1345c-226 -268 -774 -882 -1012 -882
c-45 0 -94 30 -111 65c-14 27 -16 63 -16 103c0 221 414 805 559 1001c-63 -57 -145 -121 -219 -121c-46 0 -58 16 -76 37c-21 24 -31 48 -31 78c0 45 58 82 78 100c5 4 12 5 19 5c8 0 16 -3 16 -7c0 -5 -21 -15 -21 -26c0 -2 2 -4 9 -4c44 0 128 56 268 135
c30 17 92 67 121 84c22 13 42 18 58 19c7 0 12 -1 18 -3c28 -14 37 -10 47 -16c23 -13 57 -32 57 -69c0 -17 -7 -38 -26 -64c-58 -78 -667 -958 -667 -1083c0 -10 3 -15 11 -15c9 0 181 133 377 321c390 374 743 787 764 816c24 33 41 44 94 44c17 0 37 -1 56 -1
c14 0 27 2 38 2c23 0 60 -26 60 -41z" />
    <glyph glyph-name="Z" unicode="Z" horiz-adv-x="1259" 
d="M1699 1425c0 -88 -176 -174 -202 -194c-11 -8 -162 -133 -406 -361c-147 -137 -606 -571 -739 -704c109 25 401 75 633 75c198 0 329 -33 329 -149c0 -56 -33 -122 -47 -122c-8 0 -8 22 -16 28c-33 22 -89 31 -178 31c-175 0 -729 -52 -783 -58c-27 -3 -49 -5 -67 -5
c-95 0 -143 87 -143 121c0 16 8 28 8 32c0 104 886 923 1122 1108c-104 -30 -300 -64 -468 -64c-159 0 -292 31 -292 127c0 120 151 165 178 165c17 0 27 -6 27 -13c0 -12 -33 -24 -33 -37c0 -21 62 -43 250 -43c142 0 454 17 510 37c105 38 93 102 192 102
c41 0 125 -20 125 -76z" />
    <glyph glyph-name="a" unicode="a" horiz-adv-x="834" 
d="M981 295c2 -13 6 -43 6 -70c0 -17 -1 -33 -6 -43c-27 -53 -180 -217 -314 -217c-104 0 -149 83 -149 167c0 33 7 66 20 95c-110 -143 -272 -258 -372 -258c-86 0 -146 66 -156 137c-3 17 -4 33 -4 50c0 297 376 612 598 612c77 0 120 -30 131 -63c33 51 49 55 90 55
c42 0 76 -16 76 -52c0 -15 -5 -33 -14 -42c-15 -16 -182 -289 -215 -469c-2 -7 -3 -17 -3 -28c0 -25 7 -55 32 -55c80 0 221 177 237 191c7 6 15 9 22 9c11 0 20 -8 21 -19zM692 649c-68 0 -199 -28 -354 -190c-88 -91 -174 -243 -174 -303c0 -16 6 -25 20 -25
c38 0 266 199 342 293c45 57 113 154 166 225z" />
    <glyph glyph-name="b" unicode="b" horiz-adv-x="763" 
d="M885 1427c-34 -51 -235 -358 -411 -663c72 37 169 45 189 45c46 0 171 -7 171 -166c0 -219 -373 -676 -657 -676c-41 0 -137 66 -137 166c0 328 665 1297 696 1327c30 30 104 42 131 41c19 0 36 -8 36 -28c0 -11 -5 -26 -18 -46zM619 657c-67 0 -172 -65 -205 -65
c-8 0 -18 8 -28 18c-111 -200 -195 -379 -195 -448c0 -15 2 -45 29 -45c92 0 307 192 395 350c28 49 41 97 41 133c0 34 -13 57 -37 57z" />
    <glyph glyph-name="c" unicode="c" horiz-adv-x="747" 
d="M866 295c1 -6 1 -11 1 -16c0 -198 -420 -316 -530 -316c-161 0 -292 96 -292 248c0 301 317 602 624 602c66 0 140 -41 140 -113c0 -69 -84 -208 -162 -208c-41 0 -64 20 -64 61c0 33 60 80 60 117c0 8 -4 10 -11 10c-43 0 -92 -23 -127 -45
c-137 -78 -303 -234 -303 -402c0 -55 29 -120 135 -120c289 0 467 176 486 192c7 6 14 9 20 9c11 0 20 -8 23 -19z" />
    <glyph glyph-name="d" unicode="d" horiz-adv-x="843" 
d="M1359 1456c0 -10 -5 -16 -9 -24c-137 -222 -277 -443 -407 -668c-56 -96 -287 -520 -287 -602v-8c0 -21 7 -41 30 -41c86 0 224 172 247 192c7 6 15 9 22 9c24 0 27 -35 27 -89c0 -17 -1 -33 -6 -43c-27 -53 -181 -217 -314 -217c-114 0 -150 55 -150 127
c0 65 31 145 60 207c-92 -119 -274 -315 -436 -315c-92 0 -125 77 -125 157c0 281 393 654 670 654c28 0 55 -21 75 -39c39 61 71 123 107 184c73 123 147 244 225 363c31 47 62 98 99 141c28 37 83 55 131 55c26 0 41 -18 41 -43zM695 662c-199 -44 -371 -197 -469 -373
c-18 -33 -47 -92 -47 -129c0 -10 2 -23 14 -23c66 0 321 293 365 346c48 58 94 117 137 179z" />
    <glyph glyph-name="e" unicode="e" horiz-adv-x="650" 
d="M750 748c0 -89 -86 -166 -175 -166c-32 0 -36 16 -36 45c0 10 2 18 4 26c-29 -10 -56 -24 -82 -39c-33 -18 -170 -108 -170 -145c0 -8 16 -8 20 -8c54 0 99 33 150 33c6 0 14 0 20 -2c17 -9 43 -50 43 -66c0 -17 -22 -34 -35 -45c-29 -24 -63 -26 -94 -43
c-41 -23 -211 -117 -211 -162c0 -70 80 -78 133 -78c146 0 285 138 377 207c6 4 15 10 23 10c26 0 26 -61 26 -79c0 -17 0 -37 -6 -54c-6 -16 -26 -35 -41 -47c-96 -78 -243 -174 -405 -174c-119 0 -275 37 -275 184c0 111 97 174 191 209c-55 25 -60 64 -60 117
c0 197 332 338 502 338c35 0 101 -18 101 -61z" />
    <glyph glyph-name="f" unicode="f" horiz-adv-x="737" 
d="M1001 1446c-18 -39 -391 -612 -598 -952c8 -2 16 -7 25 -9c102 19 196 35 219 41c4 1 9 2 14 2c33 0 72 -23 113 -30c6 -1 17 -24 17 -44c0 -14 -6 -27 -21 -30c-11 -2 -86 -21 -185 -45c33 -39 53 -84 53 -125c0 -279 -600 -868 -790 -868c-41 0 -115 24 -115 104
c0 168 166 438 371 778c-22 -4 -30 -5 -40 -5c-53 0 -58 47 -58 59c0 9 -8 19 -8 28c0 4 2 9 8 12c16 13 24 33 41 48c16 14 45 44 63 49c14 3 68 24 129 35c279 467 555 896 576 921c48 57 145 77 165 76c16 0 27 -7 27 -22c0 -6 -2 -14 -6 -23zM464 240
c0 36 -24 69 -59 96l-111 -25c-150 -254 -394 -655 -394 -736c0 -10 4 -15 11 -15c66 0 553 428 553 680z" />
    <glyph glyph-name="g" unicode="g" horiz-adv-x="857" 
d="M998 762c1 -2 1 -3 1 -5c0 -13 -21 -27 -24 -32c-116 -166 -272 -406 -452 -723c69 61 235 209 426 303c8 4 17 6 23 6c24 0 26 -35 26 -86c0 -17 -1 -33 -6 -43c-11 -26 -385 -212 -592 -461c-112 -135 -177 -227 -215 -292c-17 -30 -51 -43 -87 -43
c-70 0 -107 39 -107 107c0 194 298 387 327 423c18 27 18 21 201 315c-152 -159 -299 -247 -361 -247c-79 0 -153 25 -153 131c0 362 495 688 718 688c48 0 78 -19 88 -39c46 51 99 49 152 49c27 0 27 -31 35 -51zM754 690c-411 -90 -590 -457 -590 -540c0 -11 3 -17 9 -17
c24 0 253 148 581 557z" />
    <glyph glyph-name="h" unicode="h" horiz-adv-x="805" 
d="M942 295c2 -13 7 -43 7 -70c0 -17 -2 -33 -7 -43c-30 -61 -183 -219 -347 -219c-99 0 -165 42 -165 146c0 135 170 419 232 526c-111 -78 -501 -520 -584 -635c-8 -12 -49 -31 -69 -31c-22 0 -37 17 -47 17c-6 0 -13 1 -13 11c0 4 1 9 4 17c107 248 244 553 598 1170
c74 129 148 241 172 272c23 30 73 57 148 57c14 0 28 -2 28 -39c0 -11 -2 -22 -6 -32c-16 -31 -385 -582 -586 -989c111 135 326 358 453 358c22 0 57 -10 72 -16c28 -11 34 -39 34 -68c0 -51 -260 -498 -260 -577c0 -27 12 -40 35 -40c8 0 17 2 27 5c59 16 213 174 231 190
c8 6 15 9 22 9c11 0 20 -8 21 -19z" />
    <glyph glyph-name="i" unicode="i" horiz-adv-x="415" 
d="M713 1098c0 -74 -86 -172 -162 -172c-39 0 -59 20 -59 59c0 80 80 170 162 170c36 0 59 -20 59 -57zM551 225c0 -14 0 -30 -6 -43c-70 -143 -244 -223 -353 -223c-90 0 -182 84 -182 172c0 100 220 420 220 436c0 23 -41 43 -41 66c0 16 155 186 241 186
c33 0 74 -49 74 -80c0 -21 -209 -382 -238 -432c-24 -40 -75 -112 -75 -160c0 -28 26 -34 51 -34c121 0 252 202 283 202c28 0 26 -72 26 -90z" />
    <glyph glyph-name="j" unicode="j" horiz-adv-x="453" 
d="M795 1112c0 -90 -123 -192 -209 -192c-31 0 -47 18 -47 49c0 88 110 192 198 192c33 0 58 -14 58 -49zM571 295c5 -21 13 -88 0 -113c-18 -28 -401 -198 -608 -426c-43 -84 -226 -358 -367 -358c-49 0 -96 31 -96 102c0 99 203 244 366 381c161 271 286 498 400 660
c-24 3 -79 -25 -91 45c-9 50 226 200 278 200c49 0 75 -26 75 -75c0 -6 -3 -17 -5 -23c-17 -47 -349 -577 -401 -657c46 32 368 274 406 274c21 17 41 8 43 -10z" />
    <glyph glyph-name="k" unicode="k" horiz-adv-x="753" 
d="M897 295c2 -13 6 -43 6 -70c0 -17 -1 -33 -6 -43c-27 -53 -180 -217 -313 -217c-183 0 -291 238 -338 326c-66 -131 -144 -291 -148 -299c-6 -13 -13 -16 -20 -16c-19 0 -49 14 -64 14c-35 6 -39 22 -55 49c-1 1 -1 2 -1 4c0 7 8 19 15 43c32 109 684 1268 703 1290
c30 43 49 43 84 56c57 20 59 32 75 32c15 0 29 -13 29 -32v-7c-8 -28 -477 -856 -539 -972c99 39 381 260 383 313c3 63 54 78 84 78c40 0 74 -27 74 -76c-6 -164 -317 -387 -430 -434c29 -78 92 -219 186 -219c84 12 213 174 232 190c7 6 15 9 22 9c11 0 20 -8 21 -19z" />
    <glyph glyph-name="l" unicode="l" horiz-adv-x="528" 
d="M1012 1397c0 -230 -572 -903 -742 -1092c-4 -33 -16 -63 -16 -96c0 -64 47 -100 108 -100c125 0 263 206 306 206c26 0 26 -57 26 -73v-20c0 -45 -23 -68 -47 -95c-81 -92 -228 -166 -352 -166c-133 0 -195 86 -195 215c0 277 181 682 340 907c123 174 314 418 451 418
c61 0 121 -39 121 -104zM846 1335c0 8 -2 15 -10 15c-53 0 -337 -408 -377 -480c-56 -100 -112 -229 -148 -338c97 115 535 695 535 803z" />
    <glyph glyph-name="m" unicode="m" horiz-adv-x="1246" 
d="M1373 295c2 -13 6 -43 6 -70c0 -17 -1 -33 -6 -43c-26 -51 -179 -218 -318 -218c-5 0 -11 0 -16 1c-151 15 -182 94 -182 172c0 172 278 496 278 512c0 4 -2 6 -8 6c-70 0 -404 -371 -454 -430c-59 -70 -111 -141 -166 -213c-12 -16 -36 -20 -54 -20c-24 0 -96 14 -96 45
c0 24 318 534 318 571c0 15 -9 29 -25 29c-75 0 -351 -328 -397 -389c-44 -58 -84 -116 -121 -180c-8 -13 -57 -74 -70 -74c-16 0 -33 2 -49 2h-18c-15 4 -25 16 -37 24c-8 5 -8 7 -8 17s4 22 8 35c104 229 231 480 377 686c29 41 103 57 151 57c21 0 25 -20 25 -39
c0 -10 -4 -22 -8 -33c-17 -34 -134 -174 -166 -215c82 86 295 281 411 281c62 0 99 -43 99 -102c0 -99 -97 -205 -154 -275c154 156 324 402 565 402c49 0 90 -35 90 -86c0 -70 -323 -492 -323 -570c0 -22 -2 -63 53 -63c84 12 233 174 252 190c7 6 15 9 22 9
c11 0 20 -8 21 -19z" />
    <glyph glyph-name="n" unicode="n" horiz-adv-x="800" 
d="M956 225c0 -34 -12 -67 -47 -88c-73 -67 -188 -172 -307 -172c-80 2 -168 64 -168 162c0 127 109 296 193 420c10 15 50 74 53 94l-2 2c-52 -4 -323 -289 -373 -344c-75 -83 -143 -170 -209 -258c-14 -18 -39 -43 -63 -43c-17 0 -80 25 -92 35c-7 4 -7 10 -7 16
c0 33 38 86 60 123c86 150 174 297 262 444c29 48 53 98 88 142c34 43 99 57 152 57c22 0 24 -22 24 -39c0 -47 -100 -184 -129 -231c96 106 250 268 404 268c51 0 94 -35 94 -90c0 -61 -121 -223 -160 -283c-33 -51 -145 -217 -145 -286c0 -32 31 -44 60 -44
c95 0 257 205 286 205c28 0 26 -72 26 -90z" />
    <glyph glyph-name="o" unicode="o" 
d="M834 657c0 -202 -361 -684 -649 -684c-97 0 -164 76 -164 166c0 365 397 670 583 670c60 0 93 -31 93 -43v-6c14 2 26 2 34 2c47 0 103 -31 103 -105zM640 629h-7c-20 0 -35 10 -35 51c-92 -31 -207 -111 -299 -229c-86 -111 -126 -214 -127 -274c0 -35 14 -56 41 -56
c45 0 164 59 285 211c110 138 156 237 156 277c0 13 -5 20 -14 20z" />
    <glyph glyph-name="p" unicode="p" horiz-adv-x="801" 
d="M885 668c0 -172 -328 -703 -648 -703c-61 0 -110 37 -110 115c-197 -301 -412 -655 -430 -678c-10 -13 -17 -19 -24 -19c-8 0 -69 29 -72 85c0 38 6 65 24 96c33 55 887 1456 938 1489c15 10 27 12 36 12c7 0 13 -1 19 -1c5 0 12 2 18 2c10 0 17 -5 25 -30
c4 -11 8 -18 8 -26c0 -9 -5 -20 -20 -39l-285 -434s250 245 410 245c70 0 111 -47 111 -114zM706 604c0 12 -8 21 -20 21c-76 0 -379 -299 -506 -469c18 -22 42 -32 70 -32c162 0 456 335 456 480z" />
    <glyph glyph-name="q" unicode="q" horiz-adv-x="837" 
d="M983 776c0 -10 0 -18 -4 -26c-69 -138 -153 -271 -229 -406c-137 -244 -236 -407 -363 -655c25 24 115 125 146 125c45 0 61 -23 88 -54c6 -6 10 -8 10 -18c0 -38 -60 -78 -94 -111c-46 -45 -239 -239 -291 -239c-49 0 -96 47 -96 96c0 123 266 563 346 698
c-76 -86 -242 -223 -361 -223c-94 0 -143 72 -143 160c0 243 281 499 477 606c63 34 143 70 217 70c47 0 105 -11 123 -62c6 13 12 27 21 35c16 21 94 47 118 47c21 0 35 -26 35 -43zM756 657c-14 11 -31 13 -49 13c-99 0 -266 -121 -334 -189c-57 -57 -201 -241 -201 -319
c0 -12 6 -21 19 -21c71 0 305 203 360 260c76 78 143 166 205 256z" />
    <glyph glyph-name="r" unicode="r" horiz-adv-x="715" 
d="M885 723c0 -57 -119 -231 -158 -283c-14 -18 -31 -32 -57 -32c-43 0 -66 38 -66 77c0 58 39 115 74 156l-2 2c-52 -4 -323 -289 -373 -344c-75 -82 -145 -169 -211 -258c-13 -18 -38 -43 -61 -43c-17 0 -82 25 -92 35c-7 4 -7 10 -7 16c0 35 38 85 60 123
c86 150 174 297 262 444c29 48 53 98 88 142c34 43 99 57 152 57c20 0 24 -22 24 -39c0 -47 -100 -184 -129 -231c94 106 250 268 402 268c53 0 94 -35 94 -90z" />
    <glyph glyph-name="s" unicode="s" horiz-adv-x="753" 
d="M872 768v-7c0 -32 -12 -69 -24 -85c-26 -35 -101 -76 -160 -76c-33 0 -31 16 -45 23c-7 3 -10 11 -10 19c0 17 15 20 24 48c-188 -10 -381 -168 -381 -201c0 -38 168 -26 340 -106c62 -29 93 -90 93 -127c0 -180 -312 -293 -478 -293c-145 0 -190 68 -190 119
c0 72 41 139 82 139c25 0 49 -2 49 -21c0 -5 -1 -11 -1 -16c0 -37 36 -61 54 -61c168 0 305 63 305 108c0 37 -137 52 -268 91c-67 20 -141 50 -141 139c0 241 454 393 606 393c147 0 145 -68 145 -86z" />
    <glyph glyph-name="t" unicode="t" horiz-adv-x="440" 
d="M50 160c2 157 280 610 370 749c-1 1 -151 -18 -173 -18h-9c-28 0 -83 10 -83 49c0 15 25 29 32 49c10 31 92 75 125 78c43 3 86 4 129 6c94 4 -4 0 90 4c43 62 86 129 137 185c12 16 14 20 35 20c16 0 31 6 47 6c25 0 25 -10 41 -10c12 0 23 -16 23 -27
c0 -16 -86 -145 -101 -170c13 1 75 6 99 6s47 -1 55 -4c24 -10 31 -37 53 -53c10 -8 17 -14 17 -29c0 -40 -50 -56 -80 -59c-92 -9 -164 -19 -256 -24c-72 -111 -367 -615 -381 -715c-2 -15 -4 -28 -4 -39c0 -39 17 -49 49 -49c96 0 270 200 295 200c28 0 26 -72 26 -90
c0 -38 -14 -61 -45 -88c-67 -58 -193 -175 -308 -175c-10 0 -19 1 -28 3c-102 19 -155 66 -155 195z" />
    <glyph glyph-name="u" unicode="u" horiz-adv-x="810" 
d="M930 295c2 -13 6 -43 6 -70c0 -17 -1 -33 -6 -43c-27 -53 -180 -217 -313 -217c-60 0 -146 35 -146 129c0 41 6 109 43 176c-98 -123 -262 -311 -389 -311c-78 0 -125 68 -125 131c0 144 141 368 187 449c97 170 134 243 188 243c35 0 68 -45 68 -65
c0 -35 -265 -463 -265 -550c0 -10 3 -15 11 -15c71 0 429 413 463 479c39 77 81 132 98 143c15 10 66 29 111 30c5 0 11 0 16 -1c10 -2 23 -32 23 -42c0 -2 -1 -3 -1 -3c-86 -166 -133 -234 -157 -283c-30 -62 -118 -237 -118 -318c0 -26 9 -42 32 -42
c84 12 213 174 231 190c8 6 15 9 22 9c11 0 20 -8 21 -19z" />
    <glyph glyph-name="v" unicode="v" horiz-adv-x="745" 
d="M896 770c0 -93 -117 -292 -268 -463c-163 -184 -368 -342 -473 -342c-48 0 -109 35 -109 117c0 111 123 354 184 453c-26 -19 -53 -39 -65 -39c-13 0 -46 43 -46 72c0 6 2 12 5 16c18 20 188 219 278 219c47 0 80 -33 80 -66c0 -73 -272 -518 -272 -602c0 -4 2 -6 6 -6
c36 0 236 183 319 287c101 127 185 264 185 315c0 37 -23 39 -23 72c0 31 39 80 105 80c55 0 94 -29 94 -113z" />
    <glyph glyph-name="w" unicode="w" horiz-adv-x="1134" 
d="M1273 772c0 -213 -461 -788 -663 -788c-76 0 -105 59 -105 116c0 15 6 125 57 230c-116 -152 -313 -363 -436 -363c-51 0 -88 31 -88 94c0 99 125 367 201 482c-13 -8 -24 -14 -36 -14c-32 0 -63 37 -63 51c0 7 3 14 9 22c16 23 198 195 262 195c31 0 100 -13 100 -56
s-278 -522 -278 -565c0 -2 1 -3 2 -3c30 0 379 403 506 566c8 13 22 25 45 25c4 0 6 -1 9 -1c5 0 28 11 55 11c17 0 38 -17 38 -30c0 -4 -1 -8 -4 -13c-53 -96 -227 -438 -227 -549c0 -9 3 -18 13 -18c19 0 64 30 165 145c156 178 266 367 266 434c0 21 -12 21 -12 48
c0 57 45 88 100 88c53 0 84 -31 84 -107z" />
    <glyph glyph-name="x" unicode="x" horiz-adv-x="760" 
d="M901 809c-30 -27 -292 -268 -430 -393c-5 -60 -8 -118 -8 -166c0 -80 8 -135 27 -135c84 12 213 174 231 190c7 6 14 9 21 9c26 0 27 -36 27 -92c0 -16 -1 -31 -5 -40c-26 -53 -180 -217 -315 -217c-122 0 -145 102 -145 200c0 35 3 70 6 99c-76 -80 -183 -196 -269 -305
c-5 -7 -15 -11 -27 -11c-39 0 -93 39 -93 79c0 8 1 15 4 24c14 51 188 244 397 424c-2 43 -4 103 -4 172c0 5 -2 7 -5 7c-15 0 -57 -58 -84 -58c-31 0 -50 64 -50 85c0 5 1 9 2 13c14 37 118 164 215 164c20 0 76 -27 79 -59c4 -60 7 -119 7 -174c67 73 170 180 309 276
c8 5 17 8 27 8c23 0 49 -13 59 -20c14 -11 39 -30 39 -52c0 -9 -4 -19 -15 -28z" />
    <glyph glyph-name="y" unicode="y" horiz-adv-x="799" 
d="M365 -332c-21 -22 -127 -264 -236 -278c-10 -1 -19 -2 -28 -2c-68 0 -92 41 -92 93c0 46 18 101 42 146c84 158 228 268 250 299c17 25 59 109 150 281c-103 -113 -224 -232 -336 -244h-7c-25 0 -54 10 -79 27c-30 20 -36 62 -36 88c0 5 0 10 1 14c12 148 63 176 195 418
c94 145 131 264 169 264c19 0 76 -29 76 -76c0 -63 -262 -475 -262 -540c0 -6 3 -8 8 -8c53 0 360 277 506 495c43 64 84 133 121 133c9 0 64 -6 76 -22c10 -14 19 -19 19 -31c0 -8 -4 -17 -13 -35c-17 -33 -313 -518 -432 -764c141 119 297 260 428 379c7 6 15 9 22 9
c22 0 31 -40 31 -95c0 -17 -3 -31 -10 -37c-211 -162 -367 -303 -563 -514z" />
    <glyph glyph-name="z" unicode="z" horiz-adv-x="735" 
d="M828 694c-10 -10 -25 -18 -62 -28c-110 -86 -434 -336 -544 -525c96 29 506 86 553 135c7 7 14 10 22 10c9 0 19 -4 31 -12c10 -6 12 -45 12 -84c0 -30 -35 -84 -61 -96c-49 -22 -561 -106 -649 -117c-19 -3 -34 -4 -47 -4c-50 0 -62 16 -72 25s-15 46 -15 74
c0 14 1 26 4 32c138 263 383 412 523 535c-144 -10 -310 -18 -379 -31h-3c-11 0 -20 10 -20 33c0 14 37 102 109 123c110 33 186 -3 489 43c13 2 44 20 72 20s58 -29 58 -80c0 -19 -6 -38 -21 -53z" />
    <glyph glyph-name="quotedbl" unicode="&#x22;" horiz-adv-x="692" 
d="M477 969c0 30 116 286 176 405c20 41 47 47 74 47c57 0 84 -26 84 -43c0 -69 -217 -469 -281 -469c-12 0 -53 33 -53 60zM742 965c0 57 168 339 180 405c7 44 50 47 79 47c61 0 81 -19 81 -40c0 -117 -234 -466 -263 -466c-46 0 -77 20 -77 54z" />
    <glyph glyph-name="quotesingle" unicode="'" horiz-adv-x="391" 
d="M456 969c0 45 168 336 207 405c22 39 67 47 94 47c57 0 72 -22 72 -39c0 -69 -228 -473 -299 -473c-13 0 -74 33 -74 60z" />
    <glyph glyph-name="asterisk" unicode="*" 
d="M560 881c0 14 29 67 65 135c-61 -12 -120 -23 -155 -23c-25 0 -33 4 -33 17c0 65 106 114 207 147l-33 43c-33 19 -59 74 -59 103c0 30 18 63 47 63c20 0 49 -18 84 -59l59 -82c27 49 47 96 60 131c20 45 67 51 83 51c37 0 52 -16 52 -29c0 -16 -31 -78 -72 -153
c72 18 133 26 158 49c6 10 12 16 20 16c17 0 27 -39 27 -51c0 -90 -119 -139 -205 -164c45 -55 63 -86 63 -133c0 -55 -22 -106 -65 -106c-18 0 -29 10 -41 36c-39 60 -64 101 -84 134c-57 -95 -111 -170 -123 -170s-51 20 -55 45z" />
    <glyph glyph-name="plus" unicode="+" horiz-adv-x="850" 
d="M819 553c-74 0 -151 8 -237 10c-25 -61 -48 -135 -64 -219c-7 -33 -10 -72 -35 -72c-21 0 -38 29 -57 52c-20 24 -38 42 -38 57c0 2 0 4 1 6c27 64 53 117 72 178c-76 -2 -170 -4 -201 -4c-30 0 -49 19 -49 39c0 3 1 7 2 10c27 68 29 109 80 109c108 0 170 -4 215 -6
c16 32 70 116 123 221c6 12 14 57 61 57c19 0 68 -28 68 -67c0 -43 -53 -109 -113 -217c117 -5 187 -7 236 -7c18 0 43 -13 43 -38c0 -8 -2 -17 -8 -27c-25 -43 -33 -82 -99 -82z" />
    <glyph glyph-name="slash" unicode="/" horiz-adv-x="775" 
d="M1361 1552c0 -22 6 -55 -25 -100c-264 -381 -1085 -1139 -1399 -1653c-12 -20 -14 -49 -41 -49c-34 0 -55 76 -55 121c0 94 4 111 43 166c348 498 987 1122 1417 1575c9 8 21 24 35 24c19 0 25 -43 25 -84z" />
    <glyph glyph-name="parenleft" unicode="(" 
d="M1277 1485c-514 -213 -903 -862 -917 -1469c-7 -241 84 -397 10 -397c-43 0 -197 195 -197 340c0 848 527 1446 1053 1671c43 19 86 31 129 31c31 0 41 -84 41 -107c0 -34 -72 -49 -119 -69z" />
    <glyph glyph-name="parenright" unicode=")" 
d="M927 1644c33 0 57 -143 57 -342c0 -748 -639 -1671 -1071 -1671c-41 0 -90 2 -119 84c-4 10 -5 19 -5 27c0 53 75 47 106 55c396 105 924 876 924 1549c0 83 -8 153 -8 203c0 32 3 57 11 74c11 23 85 21 105 21z" />
    <glyph glyph-name="minus" unicode="&#x2212;" horiz-adv-x="850" 
d="M292 533h-14c-30 0 -78 13 -78 49c0 17 27 29 33 47c10 31 94 78 125 80c167 12 328 19 452 19c13 0 66 0 76 -4c25 -11 31 -37 53 -54c11 -9 17 -14 17 -28c0 -39 -49 -58 -80 -60c-80 -10 -162 -13 -242 -20c-168 -14 -174 -28 -342 -29z" />
    <glyph glyph-name="less" unicode="&#x3c;" horiz-adv-x="700" 
d="M835 1069c35 0 35 -80 35 -104c0 -47 -4 -66 -35 -91c-90 -71 -246 -133 -385 -227c20 -106 74 -258 88 -280c2 -4 3 -10 3 -18c0 -57 -50 -202 -77 -202c-31 0 -37 35 -41 76c-39 209 -59 262 -114 422c-5 6 -7 13 -7 20c0 23 23 49 52 68c131 84 274 173 442 311
c11 9 21 25 39 25z" />
    <glyph glyph-name="greater" unicode="&#x3e;" horiz-adv-x="700" 
d="M569 1108c25 0 15 -23 21 -53c31 -207 45 -258 100 -418c4 -12 8 -26 8 -41c0 -24 -11 -50 -47 -72c-151 -71 -272 -174 -428 -286c-22 -15 -37 -50 -53 -50c-35 0 -35 80 -35 105c0 47 60 98 90 123c90 71 224 141 342 209c-43 102 -84 225 -100 266
c-14 37 10 82 33 131c18 41 49 86 69 86z" />
    <glyph glyph-name="bracketleft" unicode="[" 
d="M978 1511c-230 -512 -537 -1149 -772 -1587c-4 -6 -21 -35 -21 -43c1 -4 5 -5 10 -5c4 0 9 1 11 1c21 -1 49 -3 83 -3s75 1 124 7c26 3 56 12 78 12c15 0 26 -4 26 -20c0 -86 -229 -174 -309 -184c-29 -4 -58 -6 -84 -6c-85 0 -124 111 -124 174c0 40 17 81 36 118
c145 287 454 930 602 1215c121 233 142 293 217 467c11 26 66 47 96 51c122 0 179 -16 290 -16c17 0 35 4 50 4c31 0 35 -43 35 -66c0 -50 -4 -108 -55 -114c-55 -7 -105 -10 -149 -10c-65 0 -116 5 -144 5z" />
    <glyph glyph-name="bracketright" unicode="]" 
d="M972 1538c-15 13 -54 14 -86 14c-90 0 -104 3 -181 -12c-8 -2 -16 -4 -24 -4c-40 0 -43 52 -43 88c0 21 -3 111 55 111c166 0 168 -11 336 -11c79 0 95 -73 106 -141c3 -22 7 -45 7 -68c0 -28 -5 -55 -17 -81c-136 -291 -422 -945 -561 -1233
c-79 -158 -148 -319 -231 -475c-18 -33 -90 -43 -179 -43c-69 0 -149 5 -227 12c-20 1 -94 2 -94 40c0 52 60 146 92 148c98 0 150 -26 287 -26c293 618 545 1155 747 1634c2 5 14 31 14 42c0 2 0 4 -1 5z" />
    <glyph glyph-name="asciicircum" unicode="^" horiz-adv-x="1024" 
d="M933 844c9 30 52 270 64 385c-111 -129 -328 -283 -430 -420c-2 -2 -5 -3 -9 -3c-31 0 -110 55 -110 101c0 74 207 211 371 346c65 54 162 127 223 183c8 10 18 14 31 14c14 0 65 -49 77 -61c10 -11 15 -24 15 -36v-5c-10 -79 -40 -260 -40 -392c0 -31 5 -60 5 -83
c0 -39 -82 -68 -141 -68c-32 0 -57 9 -57 31c0 2 0 5 1 8z" />
    <glyph glyph-name="backslash" unicode="\" horiz-adv-x="775" 
d="M442 1618c28 0 156 -78 175 -145c133 -482 142 -957 142 -1422c0 -110 -25 -170 -68 -219c-39 -45 -84 -82 -103 -82c-20 0 -28 12 -28 37c0 39 20 319 20 479c0 434 -53 842 -108 1139c-20 100 -61 164 -61 194c0 13 9 19 31 19z" />
    <glyph glyph-name="underscore" unicode="_" horiz-adv-x="788" 
d="M-80 -279h-15c-29 0 -78 13 -78 46c0 16 27 26 33 43c10 28 94 71 125 73c80 6 162 8 244 13c123 4 248 10 373 10c12 0 65 0 75 -4c25 -8 31 -33 54 -49c10 -7 16 -13 16 -25c0 -38 -49 -52 -80 -55c-80 -8 -162 -14 -242 -19c-168 -12 -338 -31 -505 -33z" />
    <glyph glyph-name="grave" unicode="`" horiz-adv-x="819" 
d="M663 1008c-65 131 -125 176 -125 213c0 24 76 73 140 73c48 0 46 -45 86 -180c13 -43 53 -148 53 -197c0 -22 -10 -28 -33 -28c-86 0 -104 84 -121 119z" />
    <glyph glyph-name="copyright" unicode="&#xa9;" horiz-adv-x="1536" 
d="M1650 1124c0 -749 -590 -1212 -983 -1212c-219 0 -381 307 -381 457c0 495 482 991 678 995h8c35 0 121 90 346 90c113 0 332 -106 332 -330zM733 111c348 0 731 481 731 841c0 226 -125 363 -207 363c-111 0 -244 -72 -264 -86c-506 -357 -549 -578 -549 -832
c0 -108 125 -286 289 -286zM1189 604c1 -9 1 -18 1 -27c0 -191 -255 -305 -363 -305c-164 0 -242 109 -242 252c0 231 295 598 600 598c66 0 140 -41 140 -112c0 -70 -84 -209 -162 -209c-41 0 -64 20 -64 61c0 33 60 80 60 117c0 8 -4 10 -11 10
c-174 0 -405 -299 -405 -458c0 -53 14 -109 90 -109c150 0 295 176 313 192c7 6 15 9 21 9c11 0 19 -7 22 -19z" />
    <glyph glyph-name="registered" unicode="&#xae;" horiz-adv-x="1024" 
d="M1267 1275c0 -433 -319 -666 -546 -666c-125 0 -260 98 -260 313c0 284 256 502 370 533c24 6 94 31 223 31c66 0 213 -82 213 -211zM1081 1209c0 -67 -76 -149 -166 -178c6 -37 45 -137 78 -182c96 94 166 229 166 348c0 129 -92 188 -139 188c-64 0 -158 -22 -172 -28
c-193 -86 -297 -332 -297 -418c0 -162 94 -215 188 -215c53 0 111 18 162 51c-27 51 -62 186 -70 240c-14 -3 -35 -3 -41 -3c-35 -63 -57 -131 -82 -200c-7 -11 -20 -16 -35 -16c-28 0 -62 18 -62 45c0 2 1 4 1 6c25 120 105 268 182 387c-8 0 -16 -2 -24 -2
c-7 0 -10 3 -10 7c0 9 11 23 16 32c22 34 96 51 121 51c108 0 184 -41 184 -113zM973 1209c0 33 -25 33 -52 33h-16c-27 -57 -45 -90 -72 -148h10c52 0 130 58 130 115z" />
    <glyph glyph-name="endash" unicode="&#x2013;" horiz-adv-x="1024" 
d="M449 421c-137 0 -280 19 -280 111c0 12 16 53 70 53c172 0 79 -10 302 -10c127 6 267 30 390 30c82 0 140 -24 140 -75c0 -45 -72 -66 -140 -76c-161 -23 -314 -31 -482 -33z" />
    <glyph glyph-name="emdash" unicode="&#x2014;" horiz-adv-x="2048" 
d="M649 428c-137 0 -467 4 -555 33c-3 2 -5 17 -5 37c0 40 8 98 26 98c69 0 403 -14 626 -14c127 0 1293 30 1416 30c23 0 29 -8 29 -22c0 -13 -5 -33 -5 -57c0 -45 0 -72 -39 -76c-180 -19 -1325 -29 -1493 -29z" />
    <glyph glyph-name="bullet" unicode="&#x2022;" horiz-adv-x="614" 
d="M590 869c58 0 97 -47 97 -115c0 -47 -29 -156 -144 -242c-37 -28 -69 -35 -110 -35c-74 0 -113 68 -113 123c0 119 80 224 168 230c6 35 80 39 102 39z" />
    <glyph glyph-name="guilsinglleft" unicode="&#x2039;" horiz-adv-x="512" 
d="M174 469c-5 6 -7 13 -7 20c0 22 23 49 52 68c131 84 129 74 297 211c10 8 23 25 39 25c35 0 35 -80 35 -105c0 -47 -2 -70 -35 -90c-86 -53 -174 -84 -239 -127c34 -183 80 -158 80 -235c0 -68 -35 -158 -89 -158c-39 0 -47 16 -49 55c-31 207 -28 176 -84 336z" />
    <glyph glyph-name="guilsinglright" unicode="&#x203a;" horiz-adv-x="512" 
d="M451 410c7 -10 12 -23 12 -37c0 -25 -14 -54 -51 -76c-151 -72 -182 -94 -280 -172c-17 -23 -37 -49 -54 -49c-34 0 -34 80 -34 104c0 127 127 117 284 217c-41 123 -84 176 -86 221c0 64 37 173 84 173c39 0 43 -25 49 -56c13 -137 39 -233 76 -325z" />
    <glyph glyph-name="dieresis" unicode="&#xa8;" horiz-adv-x="819" 
d="M1049 1087c0 -76 -78 -168 -170 -168c-52 0 -76 35 -76 80c0 37 55 166 170 166c35 0 76 -18 76 -78zM719 1089c0 -71 -70 -170 -154 -170c-39 0 -61 33 -61 84c0 55 43 168 143 168c33 0 72 -24 72 -82z" />
    <glyph glyph-name="macron" unicode="&#xaf;" horiz-adv-x="819" 
d="M812 973c-113 0 -164 -2 -260 -8c-6 0 -8 -2 -15 -2c-14 0 -18 18 -18 40c0 116 39 136 72 136c98 0 114 -10 213 -10c75 0 121 8 196 26c4 2 11 2 17 2c18 0 22 -35 22 -53c0 -135 -146 -131 -227 -131z" />
    <glyph glyph-name="circumflex" unicode="&#x2c6;" horiz-adv-x="819" 
d="M981 889c-125 0 -145 142 -176 242c-63 -63 -262 -227 -334 -227c-16 0 -22 16 -22 26c0 64 102 134 186 205c70 60 103 90 146 139c7 13 30 21 55 21c122 0 112 -171 127 -209c16 -41 51 -119 51 -168c0 -22 -10 -29 -33 -29z" />
    <glyph glyph-name="degree" unicode="&#xb0;" horiz-adv-x="410" 
d="M741 1100c0 -111 -82 -252 -233 -252c-94 0 -131 63 -131 125c0 72 55 156 86 153c12 23 45 86 149 86c80 0 129 -49 129 -112zM594 1141c-35 0 -41 -72 -68 -72c-6 0 -10 2 -18 8c-27 -47 -33 -73 -33 -112c0 -35 27 -37 33 -37c86 0 108 125 108 171c0 17 -2 42 -22 42
z" />
    <glyph glyph-name="periodcentered" unicode="&#xb7;" horiz-adv-x="510" 
d="M302 398c-41 0 -65 28 -65 78c0 86 73 239 176 239c39 0 69 -24 69 -90c0 -88 -73 -227 -180 -227z" />
    <glyph glyph-name="cedilla" unicode="&#xb8;" horiz-adv-x="655" 
d="M340 -264c0 51 -168 32 -168 140c0 50 57 146 121 146c25 0 50 -8 50 -18c0 -4 -11 -16 -17 -16c-19 -20 -42 -49 -42 -68c0 -42 174 -16 174 -133c0 -16 -3 -35 -11 -57c-51 -140 -180 -187 -303 -187c-55 0 -74 0 -74 54c0 51 27 96 57 96c11 0 7 -15 15 -15
c143 11 198 39 198 58z" />
    <glyph glyph-name="guillemotleft" unicode="&#xab;" horiz-adv-x="766" 
d="M174 428c-5 6 -7 13 -7 21c0 24 22 50 52 67c79 45 174 163 236 232c9 10 21 24 39 24c35 0 35 -80 35 -104c0 -47 -3 -71 -35 -90c-72 -44 -138 -89 -178 -148c12 -45 28 -113 45 -133c10 -13 15 -36 15 -60c0 -68 -35 -159 -89 -159c-40 0 -46 16 -49 55
c-7 92 -43 240 -64 295zM428 434c-5 6 -7 13 -7 20c0 23 23 49 52 68c131 84 129 94 297 232c10 8 23 24 39 24c35 0 35 -80 35 -104c0 -47 -2 -70 -35 -90c-86 -54 -174 -105 -240 -148c34 -174 81 -129 81 -214c0 -68 -35 -159 -89 -159c-39 0 -47 17 -49 56
c-31 207 -29 155 -84 315z" />
    <glyph glyph-name="guillemotright" unicode="&#xbb;" horiz-adv-x="768" 
d="M451 451c7 -10 12 -23 12 -37c0 -25 -14 -54 -51 -76c-151 -72 -182 -135 -280 -213c-17 -23 -37 -49 -54 -49c-34 0 -34 80 -34 104c0 47 24 80 55 103c47 34 147 90 229 155c-41 123 -84 135 -86 180c0 64 37 173 84 173c39 0 43 -25 49 -56c13 -137 39 -192 76 -284z
M713 422c4 -6 6 -12 6 -18c0 -22 -25 -46 -51 -70c-75 -69 -175 -164 -235 -232c-9 -10 -23 -24 -39 -24c-35 0 -35 80 -35 104c0 47 2 70 35 90c72 43 139 88 180 148c-12 45 -20 112 -37 133c-10 12 -14 32 -14 55c0 69 37 164 78 164c40 0 46 -16 49 -55
c7 -92 43 -241 63 -295z" />
    <glyph glyph-name="divide" unicode="&#xf7;" horiz-adv-x="850" 
d="M827 553c-96 0 -198 12 -321 12c-78 0 -201 -4 -238 -4c-29 0 -50 20 -50 38c0 4 1 7 3 11c35 62 29 109 80 109c166 0 225 -9 277 -10c163 -5 253 -7 313 -9c39 -1 55 -6 55 -20c0 -10 -8 -24 -20 -45c-25 -43 -33 -82 -99 -82zM449 240c-41 0 -66 28 -66 77
c0 86 63 175 139 175c39 0 70 -25 70 -91c0 -88 -70 -161 -143 -161zM633 772c-41 0 -66 29 -66 78c0 86 64 174 140 174c38 0 69 -25 69 -90c0 -88 -69 -162 -143 -162z" />
    <glyph glyph-name="ring" unicode="&#x2da;" horiz-adv-x="655" 
d="M812 1306c69 0 117 -49 117 -122c0 -53 -37 -166 -175 -258c-46 -31 -86 -37 -135 -37c-90 0 -137 71 -137 131c0 125 76 215 227 268c0 14 74 18 103 18zM716 1200c-18 1 -47 -17 -64 -29c-27 -19 -57 -56 -57 -114c0 -35 38 -44 62 -44c86 0 149 78 149 130
c0 28 -58 45 -90 57z" />
    <glyph glyph-name="hungarumlaut" unicode="&#x2dd;" horiz-adv-x="819" 
d="M579 1137c68 75 97 100 101 137c2 14 12 18 22 18c60 0 80 -82 80 -102c0 -45 -27 -82 -57 -111c-27 -33 -209 -190 -252 -190c-17 0 -23 18 -23 26c0 60 68 152 129 222zM885 1147c69 57 88 123 120 123c41 0 66 -66 66 -101c0 -63 -41 -108 -84 -137
c-29 -27 -215 -143 -268 -143c-17 0 -23 16 -23 26c0 7 2 13 4 19c33 86 103 147 185 213z" />
    <glyph glyph-name="ogonek" unicode="&#x2db;" horiz-adv-x="655" 
d="M-49 -254c0 72 137 287 209 287c45 0 65 0 65 -11c0 -23 -151 -171 -151 -239c0 -11 4 -19 12 -25c94 0 193 70 244 70c10 0 14 -20 14 -42c0 -17 -3 -34 -6 -44c-43 -80 -145 -139 -277 -139c-49 0 -110 69 -110 143z" />
    <glyph glyph-name="caron" unicode="&#x2c7;" horiz-adv-x="819" 
d="M600 1294c96 0 125 -141 155 -241c64 63 238 227 310 227c16 0 53 -43 53 -64c0 -38 -88 -96 -172 -167c-85 -72 -139 -160 -201 -160c-72 0 -90 51 -90 49c0 8 4 14 4 24c0 5 0 9 -2 15c-16 41 -90 239 -90 289c0 22 10 28 33 28z" />
    <glyph glyph-name="breve" unicode="&#x2d8;" horiz-adv-x="819" 
d="M533 1253c63 -1 77 -80 111 -137c17 -29 56 -45 90 -45c162 0 221 188 318 188c16 0 53 -43 53 -64c0 -38 -172 -286 -352 -286c-154 0 -261 141 -261 293c0 22 19 51 41 51z" />
    <glyph glyph-name="dotaccent" unicode="&#x2d9;" horiz-adv-x="819" 
d="M791 1187c43 0 84 -37 84 -94c0 -84 -61 -184 -178 -184c-53 0 -88 43 -88 94c0 74 59 184 182 184z" />
    <glyph glyph-name="tilde" unicode="&#x2dc;" horiz-adv-x="819" 
d="M911 1071c137 0 141 101 192 101c31 0 46 -43 46 -79c0 -14 -3 -27 -7 -36c-45 -90 -139 -147 -240 -147c-135 0 -163 120 -229 120c-96 0 -127 -123 -203 -123c-10 0 -22 17 -22 41c0 129 182 240 250 240c122 0 145 -117 213 -117z" />
    <glyph glyph-name="asciitilde" unicode="~" horiz-adv-x="793" 
d="M674 654c154 0 158 113 215 113c37 0 53 -48 53 -87c0 -17 -3 -32 -8 -42c-49 -103 -157 -168 -270 -168c-152 0 -184 137 -260 137c-109 0 -143 -139 -227 -139c-13 0 -27 20 -27 47c0 145 207 272 283 272c139 0 163 -133 241 -133z" />
    <glyph glyph-name="cent" unicode="&#xa2;" horiz-adv-x="968" 
d="M951 501c1 -6 1 -11 1 -16c0 -154 -282 -286 -464 -309c-49 -100 -96 -198 -140 -289c-15 -31 -59 -26 -68 -28c-4 -1 -7 -1 -11 -1c-26 0 -55 11 -57 23c-2 11 -9 20 -9 32c0 4 1 8 3 13c47 96 88 179 129 262c-95 32 -145 115 -145 230c0 251 249 501 540 574
c122 247 146 294 156 313c25 47 136 67 153 67c12 0 29 -10 29 -25c0 -4 -2 -9 -5 -14c-28 -45 -84 -151 -149 -282c-6 -12 -13 -25 -19 -38h2c65 0 138 -41 138 -112c0 -68 -83 -205 -160 -205c-41 0 -63 20 -63 60c0 33 59 79 59 116c0 8 -4 10 -11 10
c-10 0 -20 -1 -30 -2c-73 -149 -170 -347 -268 -549c194 28 330 165 347 180c7 6 14 9 20 9c10 0 19 -8 22 -19zM411 344c98 199 176 357 237 481c-154 -78 -288 -228 -288 -385c0 -37 12 -75 51 -96z" />
    <glyph glyph-name="acute" unicode="&#xb4;" horiz-adv-x="819" 
d="M765 1147c84 69 129 86 143 125c4 10 10 18 19 18c41 0 65 -65 65 -100c0 -64 -41 -109 -84 -137c-28 -27 -256 -164 -309 -164c-16 0 -23 16 -23 26c0 7 2 13 5 19c32 86 102 147 184 213z" />
    <glyph glyph-name="numbersign" unicode="#" horiz-adv-x="1112" 
d="M306 365h-76c-31 0 -90 12 -90 41c0 14 29 22 37 40c10 23 96 68 131 68c20 0 72 2 92 4c41 68 76 141 127 211c-29 -1 -74 -2 -98 -2c-35 0 -86 12 -86 41c0 12 26 18 30 35c11 22 78 55 119 57l129 6c84 113 144 219 217 316c4 6 11 18 19 18c12 0 38 -50 38 -87
c0 -8 -2 -18 -7 -28c-31 -59 -109 -202 -115 -213l145 5l180 278c4 4 8 12 16 12c12 0 54 -57 54 -102c0 -5 0 -11 -2 -16c-14 -48 -43 -105 -80 -168h29c12 0 61 -1 74 -4c20 -6 28 -29 49 -41c8 -7 14 -9 14 -19c0 -33 -45 -45 -76 -45c-45 -4 -104 -8 -159 -12l-138 -228
h80c15 0 70 0 80 -2c27 -7 32 -29 57 -45c11 -7 19 -11 19 -24c0 -33 -53 -47 -86 -49c-76 -9 -152 -11 -225 -15c-50 -100 -95 -196 -113 -280v-12c0 -10 -1 -19 -13 -19c-22 0 -56 53 -69 82c-17 38 -23 57 -23 73c0 39 29 94 50 144c-70 -4 -109 -8 -181 -14
c-61 -105 -120 -209 -155 -301c-2 -13 0 -31 -17 -31c-24 0 -51 47 -55 76c-7 27 -11 44 -11 59c0 47 53 124 89 191zM838 752l-151 -13c-45 -73 -86 -145 -133 -217c4 0 7 1 153 6c39 72 84 150 131 224z" />
    <glyph glyph-name="bar" unicode="|" horiz-adv-x="768" 
d="M1187 1661c-150 -266 -761 -1403 -987 -1854c-12 -25 -22 -28 -29 -32c-2 0 -20 -11 -55 -19c-4 -2 -13 0 -15 -2c-3 -5 -12 -7 -18 -7c-2 0 -3 0 -4 1c-6 0 -35 10 -35 14c-2 5 -3 23 -3 37c0 5 0 10 1 13c27 120 934 1804 1002 1863c6 7 15 10 25 10c18 0 42 -3 55 -3
c24 0 34 1 43 1c13 0 21 -7 21 -16c0 -2 0 -4 -1 -6z" />
    <glyph glyph-name="brokenbar" unicode="&#xa6;" horiz-adv-x="768" 
d="M605 580c-149 -267 -169 -322 -395 -773c-12 -25 -22 -28 -29 -32c-2 0 -20 -11 -55 -19c-4 -2 -13 0 -15 -2c-3 -5 -12 -7 -18 -7c-2 0 -3 0 -4 1c-6 0 -35 10 -35 14c-2 5 -3 23 -3 37c0 5 0 10 1 13c55 143 342 723 410 782c7 7 16 9 27 9c19 0 40 -2 53 -2
c23 0 33 1 42 1c13 0 22 -7 22 -16c0 -2 0 -4 -1 -6zM1193 1659c-150 -266 -200 -322 -424 -772c-13 -25 -21 -29 -29 -33c-2 0 -20 -10 -55 -18c-4 -2 -12 0 -14 -2c-4 -5 -13 -8 -19 -8c-2 0 -3 0 -4 1c-6 0 -35 11 -35 15c-2 4 -3 23 -3 36c0 6 0 11 1 13
c55 143 371 723 438 782c7 7 17 9 27 9c20 0 40 -2 53 -2c23 0 34 1 43 1c13 0 22 -7 22 -16c0 -2 0 -4 -1 -6z" />
    <glyph glyph-name="plusminus" unicode="&#xb1;" horiz-adv-x="900" 
d="M859 594c-67 0 -137 6 -215 10c-10 -24 -18 -51 -26 -78c-9 -30 -46 -151 -70 -151s-34 28 -53 51c-20 24 -43 43 -43 59c0 2 1 5 2 7c6 12 43 102 49 114c-76 -2 -172 -4 -203 -4c-29 0 -50 18 -50 37c0 4 1 8 3 12c25 47 53 109 80 109c110 0 172 -4 217 -8
c15 45 50 125 61 147c6 12 16 62 31 62c19 0 98 -33 98 -72s-16 -84 -38 -141c106 -5 174 -7 221 -7c20 0 44 -14 44 -30c0 -3 -1 -6 -3 -9c-50 -71 -39 -108 -105 -108zM777 145c-96 0 -198 13 -321 13c-78 0 -180 -4 -217 -4c-35 0 -47 24 -47 49c0 57 28 108 79 108
c166 0 205 -9 256 -10c164 -5 254 -8 314 -8c24 0 35 -43 35 -66c0 -49 -33 -82 -99 -82z" />
    <glyph glyph-name="notequal" unicode="&#x2260;" horiz-adv-x="879" 
d="M385 686h-8c-29 0 -84 9 -84 49c0 17 27 29 33 47c10 31 94 78 125 80c86 6 176 10 266 12l172 226c6 6 16 20 26 20c18 0 22 -49 22 -89c0 -17 -4 -36 -22 -60c-13 -17 -28 -33 -71 -94h59c12 0 66 0 76 -5c25 -10 31 -36 53 -53c10 -8 17 -14 17 -28
c0 -40 -50 -57 -80 -60l-244 -22c-23 -35 -51 -76 -82 -119h96c13 0 66 0 76 -4c25 -11 31 -37 53 -54c11 -8 17 -14 17 -28c0 -39 -49 -58 -80 -60c-29 -2 -150 -16 -283 -28c-65 -99 -143 -211 -237 -348c-9 -19 -11 -41 -31 -41c-27 0 -43 57 -43 96c0 76 4 90 33 137
l108 141c-32 -2 -63 -2 -90 -2h-8c-29 0 -84 9 -84 50c0 16 27 28 33 47c10 30 94 76 125 79c51 4 108 9 166 11l84 108c-70 -4 -140 -8 -193 -8z" />
    <glyph glyph-name="thorn" unicode="&#xfe;" horiz-adv-x="801" 
d="M885 668c0 -172 -328 -703 -648 -703c-61 0 -110 37 -110 115c-197 -301 -412 -655 -430 -678c-10 -13 -17 -19 -24 -19c-8 0 -69 29 -72 85c0 38 6 65 24 96c33 55 1104 1810 1155 1843c15 10 27 12 36 12c7 0 13 -1 19 -1c5 0 12 2 18 2c10 0 17 -5 25 -29
c4 -12 8 -19 8 -27c0 -9 -5 -20 -20 -39l-502 -788s250 245 410 245c70 0 111 -47 111 -114zM706 604c0 12 -8 21 -20 21c-76 0 -379 -299 -506 -469c18 -22 42 -32 70 -32c162 0 456 335 456 480z" />
    <glyph glyph-name="Thorn" unicode="&#xde;" horiz-adv-x="1549" 
d="M1759 905c0 -307 -459 -616 -797 -616c-72 0 -127 39 -162 90l-221 -350c-10 -11 -27 -23 -45 -23c-16 0 -32 -9 -49 -9c-8 0 -16 2 -24 2h-17c-46 0 -59 20 -59 37c0 68 357 600 624 986c-184 -41 -397 -135 -481 -201c-23 -18 -33 -36 -33 -51c0 -18 16 -31 43 -31
c13 0 30 3 49 11h1c3 0 5 -10 5 -21s-1 -21 -4 -24c-16 -13 -94 -74 -180 -74c-90 0 -129 65 -129 143c0 164 350 387 842 412c100 141 176 244 196 266c26 29 53 31 115 31h49c8 0 13 -15 13 -29c0 -8 -1 -15 -5 -20c-24 -35 -90 -131 -170 -252c285 -27 439 -158 439 -277
zM866 483c12 -26 45 -24 94 -24c260 0 577 272 577 393c0 127 -143 180 -307 190c-141 -213 -297 -452 -364 -559z" />
    <glyph glyph-name="ordfeminine" unicode="&#xaa;" horiz-adv-x="578" 
d="M878 1128c0 -15 -9 -31 -18 -43c-14 -19 -31 -41 -43 -59c-55 -79 -107 -149 -140 -241l28 20c55 40 136 92 154 92c21 0 27 -14 27 -22c0 -14 -4 -25 -8 -35c-31 -61 -154 -197 -246 -197c-27 0 -80 48 -80 85c0 19 13 54 22 75c-59 -69 -155 -170 -202 -170
c-51 0 -103 76 -103 109c0 17 7 36 13 49c81 188 251 330 426 436c10 6 28 8 43 8c38 0 110 -24 116 -80c7 -10 11 -15 11 -27zM576 439c-15 -3 -28 -2 -38 -2l-113 6c-41 0 -172 -15 -209 -15c-29 2 -29 37 -29 64c0 43 16 67 41 67c27 3 57 3 81 3c63 0 79 -3 106 -3
c55 0 135 3 161 3c39 -3 50 -13 50 -48c0 -54 -18 -69 -50 -75zM757 1153c-152 -90 -289 -225 -369 -378c139 102 268 233 371 378c0 1 -1 1 -2 0z" />
    <glyph glyph-name="ordmasculine" unicode="&#xba;" horiz-adv-x="455" 
d="M793 1047c-58 -191 -185 -387 -396 -459c-7 -2 -16 -6 -30 -6c-64 0 -95 92 -95 134c0 123 195 366 269 448c37 41 76 71 143 71c72 0 119 -53 119 -117c0 -24 -3 -51 -10 -71zM471 402c-14 -2 -28 -2 -39 -2c-24 0 -45 2 -71 2c-41 0 -152 -19 -189 -19
c-28 0 -31 35 -31 62c0 43 13 66 39 69c50 4 84 5 109 5h57c56 2 94 6 121 6c43 0 51 -13 51 -56c0 -47 -18 -65 -47 -67zM674 1135c-8 0 -15 -4 -25 -14c-118 -97 -231 -267 -280 -408c-1 -7 -2 -13 -2 -29l12 7c123 100 272 262 297 411c1 4 3 10 3 14c0 6 -1 19 -5 19z
" />
    <glyph glyph-name="quotesinglbase" unicode="&#x201a;" horiz-adv-x="258" 
d="M109 -41c-47 -63 -153 -152 -217 -152c-32 0 -30 17 -47 25c-7 2 -11 11 -11 20c0 8 3 16 9 21c8 6 70 92 78 113c-11 10 -16 24 -16 40c0 52 56 122 130 122c77 0 102 -52 102 -98c0 -35 -12 -70 -28 -91z" />
    <glyph glyph-name="quotedblbase" unicode="&#x201e;" horiz-adv-x="545" 
d="M109 -41c-47 -63 -153 -152 -217 -152c-32 0 -30 17 -47 25c-7 2 -11 11 -11 20c0 8 3 16 9 21c8 6 70 92 78 113c-11 10 -16 24 -16 40c0 52 56 122 130 122c77 0 102 -52 102 -98c0 -35 -12 -70 -28 -91zM400 -45c-45 -64 -141 -152 -200 -152c-31 0 -29 17 -45 25
c-6 2 -10 11 -10 21c0 7 2 15 7 20c9 6 64 92 70 113c-11 11 -16 25 -16 42c0 52 50 120 119 120c74 0 99 -55 99 -103c0 -33 -11 -66 -24 -86z" />
    <glyph glyph-name="quotedblright" unicode="&#x201d;" horiz-adv-x="592" 
d="M706 1149c-47 -64 -153 -152 -217 -152c-32 0 -30 17 -47 25c-7 2 -11 11 -11 20c0 8 3 16 9 21c8 6 70 92 78 113c-11 10 -16 24 -16 40c0 52 56 122 130 122c77 0 102 -52 102 -98c0 -35 -12 -70 -28 -91zM997 1145c-45 -64 -141 -152 -200 -152c-31 0 -29 17 -45 25
c-6 2 -10 11 -10 21c0 7 2 15 7 20c9 6 64 92 70 112c-11 11 -16 26 -16 42c0 53 50 121 119 121c74 0 99 -55 99 -103c0 -33 -11 -66 -24 -86z" />
    <glyph glyph-name="quotedblleft" unicode="&#x201c;" horiz-adv-x="591" 
d="M754 1182c47 63 154 151 217 151c33 0 31 -16 48 -24c7 -2 11 -11 11 -20c0 -8 -3 -16 -9 -21c-9 -6 -70 -92 -78 -113c11 -10 16 -25 16 -40c0 -53 -57 -123 -131 -123c-77 0 -102 53 -102 100c0 34 12 69 28 90zM464 1186c45 63 141 151 200 151c31 0 29 -16 45 -24
c6 -2 10 -11 10 -21c0 -7 -2 -15 -8 -20c-8 -6 -63 -92 -69 -113c11 -11 15 -26 15 -42c0 -52 -50 -121 -119 -121c-74 0 -98 56 -98 103c0 33 10 67 24 87z" />
    <glyph glyph-name="quoteleft" unicode="&#x2018;" horiz-adv-x="305" 
d="M469 1182c47 63 153 151 217 151c33 0 30 -16 47 -24c7 -2 11 -11 11 -20c0 -8 -3 -16 -9 -21c-8 -6 -70 -92 -78 -113c11 -11 16 -25 16 -41c0 -52 -56 -122 -131 -122c-76 0 -102 53 -102 99c0 35 13 70 29 91z" />
    <glyph glyph-name="quoteright" unicode="&#x2019;" horiz-adv-x="305" 
d="M706 1149c-47 -64 -153 -152 -217 -152c-32 0 -30 17 -47 25c-7 2 -11 11 -11 20c0 8 3 16 9 21c8 6 70 92 78 113c-11 10 -16 24 -16 40c0 52 56 122 130 122c77 0 102 -52 102 -98c0 -35 -12 -70 -28 -91z" />
    <glyph glyph-name="dagger" unicode="&#x2020;" horiz-adv-x="850" 
d="M496 899h-14c-30 0 -78 13 -78 49c0 17 27 29 33 47c10 31 94 78 125 80c61 4 127 8 190 10c95 166 166 285 185 301c7 8 16 10 27 10c20 0 40 -2 53 -2c22 0 33 1 43 1c13 0 21 -8 21 -17c0 -2 0 -4 -1 -6c-37 -65 -92 -164 -156 -282h91c12 0 65 0 75 -5
c25 -10 31 -36 54 -53c10 -8 16 -14 16 -28c0 -39 -49 -58 -80 -60l-246 -24c-194 -361 -435 -820 -581 -1113c-12 -25 -22 -28 -29 -32c-2 0 -20 -11 -55 -19c-4 -2 -13 0 -15 -2c-3 -5 -12 -7 -18 -7c-2 0 -3 0 -4 1c-6 0 -35 10 -35 14c-2 5 -3 23 -3 37c0 5 0 10 1 13
c16 75 320 659 559 1093c-59 -4 -112 -6 -158 -6z" />
    <glyph glyph-name="daggerdbl" unicode="&#x2021;" horiz-adv-x="850" 
d="M151 176h-14c-30 0 -78 13 -78 49c0 17 27 29 33 47c10 31 94 77 125 80c45 3 94 6 143 8c94 179 197 373 293 545c-59 -4 -113 -6 -158 -6h-14c-30 0 -78 13 -78 49c0 17 27 29 33 47c10 31 94 78 125 80c61 4 127 8 190 10c94 166 166 285 185 301c7 8 16 10 27 10
c20 0 40 -2 53 -2c22 0 33 1 42 1c13 0 22 -8 22 -17c0 -2 0 -4 -1 -6c-37 -65 -92 -164 -156 -282h90c13 0 66 0 76 -5c25 -10 31 -36 53 -53c11 -9 17 -14 17 -28c0 -39 -49 -58 -80 -60l-246 -24l-295 -553h90c13 0 66 0 76 -5c25 -10 31 -36 53 -53c11 -9 17 -14 17 -28
c0 -39 -49 -58 -80 -60l-244 -26c-76 -144 -142 -277 -198 -388c-12 -24 -22 -28 -29 -32c-2 0 -21 -11 -55 -19c-5 -2 -13 0 -15 -2c-3 -5 -12 -7 -18 -7c-2 0 -3 0 -4 1c-6 0 -35 10 -35 14c-2 5 -3 23 -3 37c0 5 0 10 1 13c8 36 78 182 174 368c-43 -2 -84 -4 -117 -4z
" />
    <glyph glyph-name="approxequal" unicode="&#x2248;" horiz-adv-x="950" 
d="M806 842c154 0 158 113 215 113c36 0 53 -48 53 -88c0 -16 -3 -31 -8 -41c-49 -102 -157 -168 -270 -168c-152 0 -184 137 -260 137c-109 0 -143 -139 -227 -139c-13 0 -27 20 -27 47c0 145 207 272 283 272c139 0 163 -133 241 -133zM724 537c154 0 158 113 215 113
c37 0 53 -47 53 -87c0 -16 -3 -32 -8 -42c-49 -103 -157 -168 -270 -168c-152 0 -184 137 -260 137c-109 0 -143 -139 -227 -139c-13 0 -27 20 -27 47c0 145 207 272 283 272c139 0 163 -133 241 -133z" />
    <glyph glyph-name="dotlessi" unicode="&#x131;" horiz-adv-x="415" 
d="M551 225c0 -14 0 -30 -6 -43c-70 -143 -244 -223 -353 -223c-90 0 -182 84 -182 172c0 100 220 420 220 436c0 23 -41 43 -41 66c0 16 155 186 241 186c33 0 74 -49 74 -80c0 -21 -209 -382 -238 -432c-24 -40 -75 -112 -75 -160c0 -28 26 -34 51 -34
c121 0 252 202 283 202c28 0 26 -72 26 -90z" />
    <glyph glyph-name="sterling" unicode="&#xa3;" horiz-adv-x="1222" 
d="M246 455c-26 0 -68 9 -68 38l14 16c8 9 17 20 23 34c10 30 95 75 129 79c55 6 126 9 184 12c9 41 11 50 12 57c63 334 407 563 647 563c110 0 137 -74 137 -127c0 -148 -223 -338 -289 -338c-67 0 -94 58 -94 102c0 35 19 50 26 50c2 0 10 -7 17 -14
c69 31 184 127 184 149c0 18 -5 24 -25 24c-52 0 -386 -64 -453 -459c47 2 76 3 182 3c15 0 73 0 84 -4c9 -4 17 -14 26 -26s17 -25 32 -36c7 -4 9 -8 9 -16c0 -32 -47 -46 -76 -49c-86 -11 -175 -19 -267 -22c-9 -78 -36 -159 -76 -238c158 -66 262 -143 418 -143
c83 0 106 15 119 24c9 7 16 11 20 11c5 0 9 -4 9 -10c0 -30 -69 -117 -91 -138c-30 -15 -61 -27 -129 -27c-119 0 -323 123 -447 168c-101 -86 -222 -141 -373 -141c-210 0 -220 96 -220 165s54 168 309 168c59 0 138 -13 216 -27c38 45 61 101 77 169
c-80 -10 -142 -17 -266 -17zM324 183c-46 6 -89 10 -132 10c-96 0 -131 -16 -131 -31s34 -30 76 -30c68 0 129 18 187 51z" />
    <glyph glyph-name="zero" unicode="0" horiz-adv-x="875" 
d="M1111 1018c-13 -67 -44 -133 -83 -193c1 -4 2 -9 3 -14c0 -9 0 -19 -2 -31c-35 -177 -452 -807 -804 -807c-90 0 -162 63 -166 173c-13 374 611 1089 931 1089c70 0 123 -69 126 -161c1 -18 -2 -37 -5 -56zM303 147c118 0 314 216 481 438c-35 -20 -67 -31 -91 -31
c-40 0 -62 39 -64 79c0 18 2 55 30 66c173 68 286 230 282 347c-1 20 -13 32 -35 32c-146 0 -588 -533 -661 -814c-3 -11 -4 -24 -3 -37c1 -40 14 -80 61 -80z" />
    <glyph glyph-name="Euro" unicode="&#x20ac;" horiz-adv-x="993" 
d="M269 582h-14c-29 0 -76 11 -76 43c0 14 20 43 26 58c10 28 98 49 128 51c27 2 56 3 87 4c204 282 519 511 748 511c51 0 139 -43 139 -131c0 -164 -229 -346 -352 -346c-61 0 -102 47 -102 82c0 32 30 76 59 77c-9 -10 -12 -14 -12 -15c0 -4 10 -5 21 -5
c72 0 192 107 192 171c0 9 -4 14 -16 14c-82 0 -257 -111 -399 -265c-25 -27 -51 -58 -77 -91c74 -1 146 -2 204 -2c56 0 79 -13 49 -81c-14 -31 -49 -51 -78 -52s-149 -9 -278 -15c-15 -24 -29 -48 -42 -72c91 2 180 3 239 3c13 0 21 -27 18 -36c-24 -83 -29 -92 -95 -96
c-26 -2 -120 -12 -228 -20c-19 -55 -30 -109 -30 -157c0 -53 21 -91 70 -91c149 0 433 335 440 366c2 10 25 12 31 12c8 0 15 -12 15 -33c0 -30 -12 -73 -25 -124c-17 -68 -261 -372 -508 -372c-91 0 -187 99 -187 243c0 47 6 96 18 145c-27 -1 -54 -2 -78 -2h-14
c-29 0 -76 11 -76 43c0 14 16 47 22 64c10 26 102 42 133 45c19 1 42 3 67 4c10 24 22 47 34 71c-18 -1 -37 -1 -53 -1z" />
    <glyph glyph-name="percent" unicode="%" horiz-adv-x="1366" 
d="M860 1083c-14 -134 -212 -593 -487 -600c-73 -2 -131 55 -131 153c0 229 296 615 507 615c57 0 111 -94 111 -168zM402 623c146 0 327 336 327 477c0 10 -4 21 -13 21c-79 0 -334 -303 -334 -461c0 -16 7 -37 20 -37zM1366 606c0 -48 -37 -75 -17 -125
c22 -55 -200 -508 -456 -508c-73 0 -131 55 -131 153c0 229 286 615 497 615c57 0 107 -61 107 -135zM922 113c129 0 317 342 317 477c0 10 -4 21 -13 21c-79 0 -324 -303 -324 -461c0 -16 7 -37 20 -37zM1333 1165c-3 -22 -2 -55 -40 -100c-244 -289 -484 -529 -876 -1043
c-15 -20 -21 -49 -48 -49s-39 49 -39 91c0 11 0 21 2 30c15 94 17 81 64 136c423 498 574 642 883 995c11 8 25 24 39 24c13 0 18 -11 18 -31c0 -9 -1 -40 -3 -53z" />
    <glyph glyph-name="yen" unicode="&#xa5;" horiz-adv-x="1038" 
d="M372 116c-21 0 -56 9 -56 37l12 15c6 9 14 20 19 33c8 29 78 73 106 77c70 9 139 14 208 17c106 165 229 347 321 478c-179 -213 -412 -450 -601 -450c-36 0 -75 24 -88 52c-11 21 -13 50 -13 82c0 175 163 389 278 545c-49 -46 -115 -98 -174 -98c-37 0 -46 13 -60 30
c-17 19 -25 39 -25 62c0 36 46 65 62 80c4 3 9 4 15 4c7 0 13 -3 13 -6s-17 -12 -17 -20c0 -2 2 -4 8 -4c34 0 102 45 213 108c23 14 73 53 96 67c18 10 34 14 46 15c5 0 10 -1 15 -2c22 -11 29 -8 37 -13c18 -10 45 -25 45 -55c0 -13 -6 -30 -21 -51
c-45 -62 -364 -511 -364 -610c0 -8 2 -12 8 -12c166 0 769 742 705 653c20 26 33 35 75 35c14 0 30 -1 45 -1c11 0 21 2 30 2c18 0 48 -21 48 -33c-7 -30 -303 -505 -513 -854h44c12 0 60 0 69 -4c7 -4 14 -13 21 -25c8 -12 14 -24 27 -35c6 -4 7 -8 7 -15
c0 -31 -39 -45 -63 -48c-66 -10 -132 -20 -197 -28c-46 -79 -81 -142 -99 -179c33 34 85 78 96 87c3 2 4 4 7 4c9 0 16 -9 16 -17c0 -2 0 -4 -2 -5c-27 -31 -74 -99 -124 -156c-42 -48 -50 -92 -87 -92c-74 0 -115 84 -115 112c0 30 44 115 109 225c-60 -5 -121 -7 -182 -7z
" />
    <glyph glyph-name="section" unicode="&#xa7;" horiz-adv-x="850" 
d="M1020 1328c127 0 138 -51 138 -77c0 -38 -14 -78 -32 -101c-29 -35 -107 -76 -166 -76c-33 0 -30 16 -43 23c-27 11 14 55 19 67c-189 -10 -397 -169 -397 -201c0 -33 411 -52 411 -251c0 -117 -95 -174 -202 -228c65 -19 118 -51 118 -120c0 -249 -401 -404 -639 -404
c-128 0 -139 51 -139 76c0 34 13 77 33 102c29 35 107 76 166 76c33 0 30 -16 43 -23c27 -11 -14 -55 -19 -67c262 0 397 141 397 202c0 67 -412 82 -412 257c0 100 65 162 193 221c-74 17 -109 50 -109 115c0 252 487 409 640 409zM774 673c0 61 -82 79 -145 88
c-123 -29 -162 -108 -162 -143c0 -47 81 -73 118 -84c69 16 189 62 189 139z" />
    <glyph glyph-name="perthousand" unicode="&#x2030;" horiz-adv-x="1931" 
d="M860 1083c-14 -134 -212 -593 -487 -600c-73 -2 -131 55 -131 153c0 229 296 615 507 615c57 0 111 -94 111 -168zM402 623c146 0 327 336 327 477c0 10 -4 21 -13 21c-79 0 -334 -303 -334 -461c0 -16 7 -37 20 -37zM1366 606c0 -170 -199 -633 -473 -633
c-73 0 -131 55 -131 153c0 229 286 615 497 615c57 0 107 -61 107 -135zM922 113c129 0 317 342 317 477c0 10 -4 21 -13 21c-79 0 -324 -303 -324 -461c0 -16 7 -37 20 -37zM1333 1165c-3 -22 -2 -55 -40 -100c-244 -289 -484 -529 -876 -1043c-15 -20 -21 -49 -48 -49
s-39 49 -39 91c0 11 0 21 2 30c15 94 17 81 64 136c423 498 574 642 883 995c11 8 25 24 39 24c13 0 18 -11 18 -31c0 -9 -1 -40 -3 -53zM1931 570c-14 -134 -212 -593 -487 -600c-73 -2 -131 55 -131 153c0 229 296 615 507 615c57 0 111 -94 111 -168zM1473 110
c146 0 327 336 327 477c0 10 -4 21 -13 21c-79 0 -334 -303 -334 -461c0 -16 7 -37 20 -37z" />
    <glyph glyph-name="OE" unicode="&#x152;" horiz-adv-x="2206" 
d="M2414 1335c0 -78 -41 -91 -77 -102c-8 -3 -16 -5 -23 -8c-52 -22 -112 -33 -164 -33c-34 0 -73 11 -79 26c1 16 10 40 22 60c-268 -10 -544 -208 -544 -300c0 -56 145 -65 227 -65c53 0 65 4 83 12c50 24 136 34 188 34c59 0 90 -20 90 -53c0 -31 -34 -101 -45 -113
c-9 -8 -105 -37 -151 -41h1s-20 -3 -33 -5c-23 -4 -47 -8 -59 -3c-434 -216 -511 -429 -511 -509c0 -83 70 -99 137 -99c217 0 692 309 692 495c0 25 38 28 48 28c37 0 91 -19 91 -115c0 -180 -430 -572 -835 -572c-147 0 -314 82 -314 281c0 221 260 420 420 511
c-40 9 -83 23 -118 46c-210 -377 -621 -828 -1004 -828c-102 0 -286 96 -286 333c0 222 145 514 366 748c228 237 503 416 769 416c45 0 106 -21 106 -62c0 -12 -6 -25 -18 -41s-18 -33 -31 -45c25 6 50 8 70 8c64 0 116 -34 144 -72c171 115 414 189 588 189
c64 0 149 -13 167 -19c54 -27 83 -81 83 -102zM1379 1149c-86 0 -307 -201 -307 -259c0 -5 3 -8 3 -13c0 -8 -6 -20 -15 -20c-11 0 -101 79 -101 130c0 105 170 258 334 324c-188 -11 -444 -178 -631 -389c-187 -210 -298 -462 -298 -600c0 -78 33 -158 117 -158
c226 0 503 293 668 504c148 188 244 394 244 460c0 14 -5 21 -14 21z" />
    <glyph glyph-name="oe" unicode="&#x153;" horiz-adv-x="1137" 
d="M1237 748c0 -89 -86 -166 -175 -166c-32 0 -36 16 -36 45c0 10 2 18 4 26c-29 -10 -56 -24 -82 -39c-33 -18 -170 -108 -170 -145c0 -8 16 -8 20 -8c54 0 99 33 150 33c6 0 14 0 20 -2c17 -9 43 -50 43 -66c0 -17 -22 -34 -35 -45c-29 -24 -63 -26 -94 -43
c-41 -23 -211 -117 -211 -162c0 -70 80 -78 133 -78c146 0 285 138 377 207c6 4 15 10 23 10c26 0 26 -61 26 -79c0 -17 0 -37 -6 -54c-6 -16 -26 -35 -41 -47c-96 -78 -243 -174 -405 -174c-117 0 -270 36 -275 177c-97 -96 -209 -165 -318 -165c-97 0 -164 76 -164 166
c0 365 397 670 583 670c60 0 93 -31 93 -43v-6c14 2 26 2 34 2c39 0 50 -22 52 -72c110 74 257 119 353 119c35 0 101 -18 101 -61zM640 629h-7c-20 0 -35 10 -35 51c-92 -31 -207 -111 -299 -229c-86 -111 -126 -214 -127 -274c0 -35 14 -56 41 -56c45 0 164 59 285 211
c110 138 156 237 156 277c0 13 -5 20 -14 20zM698 400c-10 -19 -22 -39 -34 -59c31 18 63 33 90 43c-19 5 -39 10 -56 16z" />
    <glyph glyph-name="exclamdown" unicode="&#xa1;" horiz-adv-x="670" 
d="M-67 -66c225 331 344 510 690 1071c18 30 31 38 41 41c4 1 1 8 49 12c6 1 16 -1 20 2c10 7 31 10 37 10c19 0 37 -7 37 -38c0 -11 -3 -25 -8 -42c-45 -152 -616 -1010 -711 -1085c-14 -11 -32 -10 -57 -10c-29 0 -52 10 -77 10c-15 0 -25 7 -25 16c0 4 2 8 4 13z
M953 1468c46 0 60 -28 60 -59c0 -94 -90 -171 -165 -171c-39 0 -58 25 -58 58c0 76 88 172 163 172z" />
    <glyph glyph-name="florin" unicode="&#x192;" horiz-adv-x="815" 
d="M256 559c-21 0 -56 9 -56 37l12 15c6 9 14 20 19 33c8 29 78 73 106 77c52 6 103 11 155 14c126 275 292 500 584 500c147 0 145 -68 145 -86c0 -103 -89 -168 -184 -168c-33 0 -31 16 -45 23c-7 3 -10 11 -10 19c0 17 15 20 24 48c-157 0 -260 -138 -348 -330
c39 1 77 1 115 1c12 0 60 0 69 -4c7 -4 14 -13 21 -25c8 -12 14 -24 27 -35c6 -4 7 -8 7 -15c0 -31 -39 -45 -63 -48c-82 -12 -162 -24 -242 -34c-167 -435 -308 -1004 -740 -1004c-163 0 -203 105 -203 123c0 76 123 131 184 131c33 0 31 -16 45 -23c7 -3 10 -11 10 -19
c0 -17 -53 -48 -24 -48c288 0 400 426 556 824c-55 -4 -109 -6 -164 -6z" />
    <glyph glyph-name="at" unicode="@" horiz-adv-x="1471" 
d="M1560 1118c0 134 -132 169 -158 169c-165 0 -420 -71 -629 -262c-225 -206 -379 -423 -379 -653c0 -109 102 -255 283 -255c201 0 369 105 443 154c5 3 4 8 9 8c15 0 27 -16 27 -42c0 -37 2 -15 -9 -75c-16 -83 -207 -206 -505 -206c-303 0 -442 214 -442 413
c0 544 681 1093 1238 1093c178 0 303 -197 303 -313c0 -262 -271 -801 -567 -801c-91 0 -130 72 -130 145c0 29 6 57 17 84c-95 -126 -237 -226 -324 -226c-93 0 -150 84 -150 162c0 261 339 535 532 535c66 0 83 -25 94 -55c28 44 63 48 98 48c38 0 66 -14 66 -46
c0 -12 -4 -28 -12 -36c-5 -6 -179 -257 -179 -404c0 -21 5 -47 27 -47c81 0 347 412 347 610zM1176 944c-155 6 -431 -290 -431 -421c0 -12 4 -21 18 -21c128 0 325 339 413 442z" />
    <glyph glyph-name="AE" unicode="&#xc6;" horiz-adv-x="2062" 
d="M2270 1335c0 -78 -41 -91 -77 -102c-8 -3 -16 -5 -23 -8c-52 -22 -112 -33 -164 -33c-34 0 -73 11 -79 26c1 16 10 40 22 60c-268 -10 -544 -208 -544 -300c0 -56 145 -65 227 -65c53 0 65 4 83 12c50 24 136 34 188 34c59 0 90 -20 90 -53c0 -31 -34 -101 -45 -113
c-9 -8 -105 -37 -151 -41c-3 -1 -20 -3 -32 -5c-23 -4 -47 -8 -59 -3c-434 -216 -511 -429 -511 -509c0 -83 70 -99 137 -99c217 0 692 309 692 495c0 25 38 28 48 28c37 0 91 -19 91 -115c0 -180 -430 -572 -835 -572c-128 0 -271 62 -306 209c-14 -29 -25 -51 -31 -62
c-51 -94 -94 -172 -184 -172c-45 0 -55 -13 -70 -13c-25 0 -32 6 -32 15s6 20 10 31c4 8 104 219 227 479c-102 4 -264 10 -413 14c-138 -174 -240 -332 -310 -450c-22 -42 -38 -60 -70 -60c-35 0 -89 38 -89 88c0 68 104 232 258 428c-56 0 -99 0 -121 -2
c-33 -3 -57 -10 -74 -10c-18 0 -27 9 -27 43c0 61 72 117 197 117c18 0 61 4 152 6c268 315 622 658 868 782c18 9 30 14 41 13c18 0 29 -10 43 -25c34 66 31 69 49 69c11 0 107 -49 107 -92c0 -5 0 -9 -2 -14c-3 -10 -8 -23 -14 -38c156 79 342 128 483 128
c64 0 149 -13 167 -19c54 -27 83 -81 83 -102zM1327 1262c-270 -205 -491 -424 -667 -629c94 -2 213 -6 358 -15c111 234 229 480 309 644zM1313 812c-30 -67 -60 -133 -90 -198c71 63 149 114 211 150c-41 9 -85 23 -121 48z" />
    <glyph glyph-name="ae" unicode="&#xe6;" horiz-adv-x="1127" 
d="M1227 748c0 -89 -86 -166 -175 -166c-32 0 -36 16 -36 45c0 10 2 18 4 26c-29 -10 -56 -24 -82 -39c-33 -18 -203 -137 -203 -174c0 -8 16 -8 20 -8c54 0 132 62 183 62c6 0 14 0 20 -2c17 -9 43 -50 43 -66c0 -17 -22 -34 -35 -45c-29 -24 -59 -36 -94 -43
c-144 -27 -230 -121 -230 -166c0 -70 99 -74 152 -74c146 0 285 138 377 207c6 4 15 10 23 10c26 0 26 -61 26 -79c0 -17 0 -37 -6 -54c-6 -16 -26 -35 -41 -47c-96 -78 -243 -174 -405 -174c-79 0 -165 22 -195 89c-28 -39 -63 -62 -100 -62c-42 0 -76 16 -76 52
c0 4 8 19 21 39c-79 -68 -158 -110 -252 -110c-100 0 -160 88 -160 187c0 297 376 612 598 612c77 0 120 -30 131 -63c33 51 49 55 90 55c36 0 80 -8 59 -55c88 76 180 104 242 104c35 0 101 -18 101 -61zM692 649c-68 0 -199 -28 -354 -190c-88 -91 -174 -243 -174 -303
c0 -16 6 -25 20 -25c38 0 164 31 352 293c42 59 103 154 156 225z" />
    <glyph glyph-name="Oslash" unicode="&#xd8;" horiz-adv-x="1306" 
d="M1651 1552c0 -22 6 -55 -25 -100c-27 -39 -59 -81 -96 -126c61 -25 100 -80 100 -120c0 -338 -600 -1224 -1174 -1224c-26 0 -58 6 -90 19c-53 -70 -100 -138 -139 -202c-12 -20 -14 -49 -41 -49c-34 0 -55 76 -55 121c0 94 4 111 43 166c17 25 35 50 54 75
c-35 51 -58 118 -58 203c0 222 145 514 366 748c228 237 533 416 799 416c33 0 76 -12 95 -35c56 58 110 114 161 168c9 8 21 24 35 24c19 0 25 -43 25 -84zM364 322c0 -11 0 -22 2 -32c270 333 622 697 933 1018c-187 -22 -448 -184 -627 -386
c-187 -210 -308 -462 -308 -600zM1423 1128c0 24 -2 45 -6 64c-258 -296 -638 -681 -923 -1028c224 12 513 297 675 504c148 188 254 394 254 460z" />
    <glyph glyph-name="oslash" unicode="&#xf8;" 
d="M996 1016c0 -15 -11 -32 -33 -63c-46 -66 -106 -133 -176 -207c27 -16 47 -45 47 -89c0 -202 -361 -684 -649 -684c-23 0 -44 5 -63 12c-43 -63 -86 -130 -127 -201c-8 -14 -9 -34 -28 -34c-24 0 -31 38 -31 70c0 66 1 80 30 117c28 36 56 71 84 106
c-19 27 -29 60 -29 96c0 365 397 670 583 670c44 0 74 -17 86 -31c90 97 177 189 264 280c6 6 14 17 24 17c14 0 18 -30 18 -59zM498 332c110 138 156 237 156 277c-132 -135 -283 -292 -432 -488c50 7 162 68 276 211zM299 451c-79 -102 -119 -196 -126 -258
c148 179 289 338 425 486v1c-92 -31 -207 -111 -299 -229z" />
    <glyph glyph-name="germandbls" unicode="&#xdf;" horiz-adv-x="846" 
d="M573 849c-55 -77 -631 -1083 -665 -1225c-31 -128 -4 -190 -47 -200c-62 -14 -168 -14 -168 66c0 201 639 1271 743 1433c141 220 354 523 657 523c127 0 193 -103 193 -178c0 -297 -564 -549 -564 -615c0 -40 87 -131 87 -316c0 -131 -71 -352 -372 -352
c-162 0 -225 93 -225 152c0 73 80 107 134 107c32 0 3 -95 104 -95c153 0 201 101 201 163c0 135 -101 237 -101 329c0 87 87 137 185 206c105 75 382 294 382 388c0 27 -16 55 -63 55c-121 0 -218 -84 -481 -441z" />
    <glyph glyph-name="Eth" unicode="&#xd0;" horiz-adv-x="1607" 
d="M931 800c137 -6 269 -31 265 -123c-1 -12 -18 -52 -72 -50c-172 8 -69 13 -292 23c-13 0 -26 -1 -39 -1c-153 -236 -296 -460 -296 -468c0 -9 15 -13 57 -13c496 0 1051 485 1051 764c0 188 -174 348 -488 348c-232 0 -429 -105 -489 -152c-27 -21 -38 -35 -38 -44
c0 -5 5 -8 12 -8c19 0 35 8 43 8c6 0 9 -2 9 -4c0 -3 -6 -8 -18 -15c-29 -16 -26 -25 -45 -37c-66 -40 -94 -47 -110 -48c-10 0 -15 3 -21 3h-4c-24 0 -78 19 -78 82c0 160 305 369 741 369c439 0 682 -193 682 -455c0 -518 -716 -979 -1267 -979c-203 0 -180 39 -215 63
c-14 9 -19 33 -19 58c0 26 5 53 8 65c20 73 132 256 260 450c-39 -1 -78 -2 -116 0c-82 3 -138 30 -136 81c2 45 74 63 143 70c76 7 147 12 219 14c127 187 250 359 300 426c6 8 31 16 113 22c55 0 74 -6 74 -29c0 -11 -7 -24 -23 -46c-41 -57 -141 -207 -250 -373
c13 -1 26 -1 39 -1z" />
    <glyph glyph-name="Ccedilla" unicode="&#xc7;" horiz-adv-x="1164" 
d="M1524 1276c0 -186 -344 -485 -477 -485c-70 0 -119 55 -119 92c0 14 12 75 37 75c-3 -4 -4 -7 -4 -10c0 -9 14 -12 30 -12c82 0 332 233 332 312c0 16 -11 26 -35 26c-122 0 -374 -128 -565 -303c-205 -188 -385 -468 -385 -678c0 -78 39 -139 135 -139
c252 0 672 385 676 421c1 6 4 8 9 8c13 0 24 -15 24 -39c0 -33 -7 -77 -17 -132c-15 -76 -315 -416 -719 -416c-129 0 -282 131 -282 313c0 496 649 1125 1157 1125c72 0 203 -52 203 -158zM488 -244c0 51 -168 32 -168 140c0 50 57 146 121 146c25 0 50 -8 50 -18
c0 -4 -11 -16 -17 -16c-19 -20 -42 -49 -42 -68c0 -42 174 -16 174 -133c0 -16 -3 -35 -11 -57c-51 -140 -180 -187 -303 -187c-55 0 -74 0 -74 54c0 51 27 96 57 96c11 0 7 -15 15 -15c143 11 198 39 198 58z" />
    <glyph glyph-name="ccedilla" unicode="&#xe7;" horiz-adv-x="747" 
d="M866 295c1 -6 1 -11 1 -16c0 -198 -420 -316 -530 -316c-161 0 -292 96 -292 248c0 301 317 602 624 602c66 0 140 -41 140 -113c0 -69 -84 -208 -162 -208c-41 0 -64 20 -64 61c0 33 60 80 60 117c0 8 -4 10 -11 10c-43 0 -92 -23 -127 -45
c-137 -78 -303 -234 -303 -402c0 -55 29 -120 135 -120c289 0 467 176 486 192c7 6 14 9 20 9c11 0 20 -8 23 -19zM305 -254c0 51 -168 32 -168 140c0 50 57 146 121 146c25 0 50 -8 50 -18c0 -4 -11 -16 -17 -16c-19 -20 -42 -49 -42 -68c0 -42 174 -16 174 -133
c0 -16 -3 -35 -11 -57c-51 -140 -180 -187 -303 -187c-55 0 -74 0 -74 54c0 51 27 96 57 96c11 0 7 -15 15 -15c143 11 198 39 198 58z" />
    <glyph glyph-name="eth" unicode="&#xf0;" horiz-adv-x="779" 
d="M746 1063c-96 -35 -194 -56 -217 9c-4 7 -2 40 35 54c114 42 58 15 188 62c-46 139 -134 292 3 343c39 14 104 -116 140 -277c44 21 87 42 132 59c57 21 104 19 117 -17c12 -30 -34 -64 -78 -88c-52 -28 -101 -53 -151 -75c3 -33 6 -66 6 -98
c0 -529 -347 -1062 -743 -1062c-97 0 -164 76 -164 166c0 295 365 650 662 650c32 0 57 -5 73 -16c27 123 25 237 25 300c-9 -3 -19 -7 -28 -10zM687 596c8 17 16 34 23 51c-12 -4 -27 -6 -44 -5c-194 6 -499 -327 -501 -465c-1 -35 14 -56 41 -56c122 0 307 130 481 475z
" />
    <glyph glyph-name="multiply" unicode="&#xd7;" horiz-adv-x="850" 
d="M329 319c-4 -5 -9 -7 -15 -7c-29 0 -73 52 -78 66c-3 7 -4 14 -4 20c0 32 29 49 37 58c45 48 133 133 206 202c-47 50 -123 125 -163 168c-9 10 -11 21 -11 31c0 27 7 50 53 98c8 9 13 13 27 13s28 -7 40 -23c15 -21 98 -128 149 -197c8 7 14 13 18 16
c29 26 188 184 215 184c14 0 33 -2 56 -11c32 -13 70 -17 70 -46c0 -22 -11 -40 -50 -66c-56 -37 -162 -125 -231 -182c56 -73 127 -164 158 -208c14 -20 19 -35 19 -51c0 -28 -28 -85 -45 -99c-7 -5 -13 -7 -20 -7c-15 0 -29 10 -37 20c-24 32 -103 166 -171 264
c-95 -88 -185 -199 -223 -243z" />
    <glyph glyph-name="logicalnot" unicode="&#xac;" horiz-adv-x="850" 
d="M913 798c102 -59 -56 -261 -105 -389c-15 -39 -30 -97 -55 -97c-68 0 -135 34 -94 115c27 64 172 260 131 264c-148 15 -461 -19 -492 -19c-30 0 -37 8 -37 28c0 3 9 45 10 48c19 50 21 71 72 71c108 0 521 7 570 -21z" />
    <glyph glyph-name="mu" unicode="&#xb5;" horiz-adv-x="810" 
d="M682 115c89 16 112 -138 -63 -138c-29 0 -122 23 -122 117c0 41 -1 77 36 144c-98 -123 -211 -261 -338 -261c-42 0 -109 37 -96 129c-193 -288 -185 -336 -222 -424c-6 -15 -34 -19 -41 -19c-8 0 -69 29 -72 85c0 38 6 65 24 96c19 32 228 361 425 695
c100 169 134 243 188 243c35 0 68 -45 68 -65c0 -35 -231 -363 -264 -482c-7 -25 -7 -96 46 -96c69 0 282 212 427 492c40 77 81 132 98 143c15 10 66 29 111 30c5 0 11 0 16 -1c10 -2 23 -32 23 -42c0 -2 -1 -3 -1 -3c-86 -166 -133 -234 -157 -283
c-30 -62 -118 -237 -118 -318c0 -26 9 -42 32 -42z" />
    <glyph glyph-name="braceleft" unicode="{" horiz-adv-x="900" 
d="M1109 1411c6 -232 -83 -478 -402 -585c311 -156 -291 -678 -291 -902c0 -150 213 -31 285 -31c15 0 26 -4 26 -20c0 -86 -229 -174 -309 -184c-29 -4 -58 -6 -84 -6c-85 0 -124 111 -124 174c0 250 389 631 389 802c0 125 -237 39 -226 197c3 49 40 76 56 76
s47 -20 80 -20c80 0 189 41 277 129c218 218 49 420 203 574c60 60 155 93 234 93c87 0 292 -2 292 -104c0 -50 -70 -173 -137 -104c-72 74 -273 77 -269 -89z" />
    <glyph glyph-name="braceright" unicode="}" horiz-adv-x="900" 
d="M225 9c49 259 163 668 482 775c-58 43 -98 81 -98 135c0 194 337 412 337 585c0 58 -35 81 -56 81c-69 0 -213 -58 -257 -58c-15 0 -26 4 -26 20c0 86 19 142 99 152c29 4 192 38 294 38c85 0 124 -111 124 -174c0 -250 -315 -423 -319 -616c-3 -125 237 -91 237 -195
c0 -49 -39 -99 -55 -99s-59 5 -92 5c-80 0 -189 -41 -277 -129c-218 -218 -119 -570 -273 -724c-60 -60 -155 -93 -234 -93c-87 0 -292 2 -292 104c0 39 44 124 95 124c14 0 28 -6 42 -20c29 -30 73 -48 118 -48c66 0 132 39 151 137z" />
    <glyph glyph-name="twosuperior" unicode="&#xb2;" horiz-adv-x="500" 
d="M406 653c-23 -21 -47 -41 -65 -57c70 13 172 27 210 27c27 0 31 -10 34 -18c0 -2 1 -3 2 -4h-1c12 -6 22 -51 22 -65v-5c0 -15 -6 -28 -22 -31c-67 -13 -161 -20 -243 -25c-50 -3 -94 -6 -128 -10c-8 0 -33 8 -50 16c-1 1 -20 26 -21 44c0 8 9 31 13 40c4 7 20 24 42 46
c12 12 26 25 41 41c10 10 50 43 88 74c43 35 89 72 125 110c34 35 73 72 110 108c85 82 163 156 162 181c0 3 -7 4 -14 4c-38 0 -153 -50 -265 -192c1 1 1 -3 1 -6c-10 -22 -45 -34 -59 -34c-11 0 -39 9 -54 23c-5 3 -9 12 -9 27c0 68 212 288 418 288c68 0 96 -69 96 -101
c0 -98 -271 -340 -433 -481z" />
    <glyph glyph-name="threesuperior" unicode="&#xb3;" horiz-adv-x="547" 
d="M850 1133c0 -59 -60 -156 -246 -272c63 -8 126 -50 126 -109c0 -1 -1 -3 -1 -7c-12 -134 -236 -286 -425 -286c-71 0 -96 53 -96 86c0 42 47 89 80 89c14 0 14 -11 17 -24s7 -31 28 -31c100 0 275 86 275 140c-2 29 -51 51 -155 51c-25 0 -38 28 -38 54c0 37 28 53 66 75
c12 7 26 15 39 24c6 4 16 11 24 16c68 45 195 130 195 174c0 4 -6 6 -13 6c-51 0 -235 -97 -303 -201v1l-3 -6c-4 -8 -8 -16 -22 -16c-34 0 -57 27 -58 55v9c6 67 208 258 410 258c72 0 100 -44 100 -86z" />
    <glyph glyph-name="onesuperior" unicode="&#xb9;" horiz-adv-x="304" 
d="M498 840c-100 -153 -203 -310 -221 -358v1c-2 -3 -37 -19 -52 -19c-8 0 -12 6 -18 16c-5 8 -11 18 -22 30c-2 2 -7 4 -11 7c-4 2 -8 5 -7 8c25 55 208 343 327 504c-6 -5 -15 -12 -22 -17c-5 -4 -7 -4 -13 -4c-13 0 -16 10 -18 21c-1 3 -2 7 -1 6c-2 4 -4 6 -5 7
c-4 3 -7 7 -5 18c0 1 -2 -2 6 13l-1 -1c9 25 180 161 221 161c26 0 63 -37 63 -63c-1 -10 -32 -54 -78 -120c-40 -57 -91 -131 -143 -210z" />
    <glyph glyph-name="onequarter" unicode="&#xbc;" horiz-adv-x="1206" 
d="M1286 702c0 -3 0 -5 -2 -7c-97 -137 -159 -230 -218 -327c76 7 120 10 143 10c9 0 13 -5 13 -12c0 -5 -4 -14 -11 -23c-15 -20 -56 -74 -79 -85c-6 -1 -54 -7 -139 -14c-9 -16 -22 -36 -35 -57c-33 -54 -75 -122 -121 -202c-11 -21 -45 -27 -74 -32c-12 -2 -23 -5 -33 -8
c-12 0 -33 18 -34 30c32 61 83 146 154 260c-28 -2 -55 -4 -78 -6c-64 -4 -109 -7 -120 -7c-23 0 -28 32 -28 58c0 18 1 29 2 32c52 110 513 437 587 448c5 0 21 -5 49 -14c5 -3 9 -9 12 -15c1 -3 1 -6 7 -7c0 -1 1 -6 1 -7c2 -5 4 -9 4 -15zM1153 1165
c-3 -22 -2 -55 -40 -100c-244 -289 -484 -529 -876 -1043c-15 -20 -21 -49 -48 -49s-39 49 -39 91c0 11 0 21 2 30c15 94 17 81 64 136c423 498 574 642 883 995c11 8 25 24 39 24c13 0 18 -11 18 -31c0 -9 -1 -40 -3 -53zM498 840c-100 -153 -203 -310 -221 -358v1
c-2 -3 -37 -19 -52 -19c-8 0 -12 6 -18 16c-5 8 -11 18 -22 30c-2 2 -7 4 -11 7c-4 2 -8 5 -7 8c25 55 208 343 327 504c-6 -5 -15 -12 -22 -17c-5 -4 -7 -4 -13 -4c-13 0 -16 10 -18 21c-1 3 -2 7 -1 6c-2 4 -4 6 -5 7c-4 3 -7 7 -5 18c0 1 -2 -2 6 13l-1 -1
c9 25 180 161 221 161c26 0 63 -37 63 -63c-1 -10 -32 -54 -78 -120c-40 -57 -91 -131 -143 -210zM889 425c-39 -34 -79 -67 -111 -93c49 9 92 15 148 22c45 71 85 132 167 240c-64 -51 -137 -112 -204 -169z" />
    <glyph glyph-name="onehalf" unicode="&#xbd;" horiz-adv-x="1186" 
d="M1153 1165c-3 -22 -2 -55 -40 -100c-244 -289 -484 -529 -876 -1043c-15 -20 -21 -49 -48 -49s-39 49 -39 91c0 11 0 21 2 30c15 94 17 81 64 136c423 498 574 642 883 995c11 8 25 24 39 24c13 0 18 -11 18 -31c0 -9 -1 -40 -3 -53zM498 840
c-100 -153 -203 -310 -221 -358v1c-2 -3 -37 -19 -52 -19c-8 0 -12 6 -18 16c-5 8 -11 18 -22 30c-2 2 -7 4 -11 7c-4 2 -8 5 -7 8c25 55 208 343 327 504c-6 -5 -15 -12 -22 -17c-5 -4 -7 -4 -13 -4c-13 0 -16 10 -18 21c-1 3 -2 7 -1 6c-2 4 -4 6 -5 7c-4 3 -7 7 -5 18
c0 1 -2 -2 6 13l-1 -1c9 25 180 161 221 161c26 0 63 -37 63 -63c-1 -10 -32 -54 -78 -120c-40 -57 -91 -131 -143 -210zM873 175c-23 -21 -47 -41 -65 -57c70 13 172 27 210 27c27 0 31 -10 34 -18c0 -2 1 -3 2 -4h-1c12 -6 22 -51 22 -65v-5c0 -15 -6 -28 -22 -31
c-67 -13 -161 -20 -243 -25c-50 -3 -94 -6 -128 -10c-8 0 -33 8 -50 16c-1 1 -20 26 -21 44c0 8 9 31 13 40c4 7 20 24 42 46c12 12 26 25 41 41c10 10 50 43 88 74c43 35 89 72 125 110c34 35 73 72 110 108c85 82 163 156 162 181c0 3 -7 4 -14 4
c-38 0 -153 -50 -265 -192c1 1 1 -3 1 -6c-10 -22 -45 -34 -59 -34c-11 0 -39 9 -54 23c-5 3 -9 12 -9 27c0 68 212 288 418 288c68 0 96 -69 96 -101c0 -98 -271 -340 -433 -481z" />
    <glyph glyph-name="threequarters" unicode="&#xbe;" horiz-adv-x="1416" 
d="M1496 702c0 -3 0 -5 -2 -7c-97 -137 -159 -230 -218 -327c76 7 120 10 143 10c9 0 13 -5 13 -12c0 -5 -4 -14 -11 -23c-15 -20 -56 -74 -79 -85c-6 -1 -54 -7 -139 -14c-9 -16 -22 -36 -35 -57c-33 -54 -75 -122 -121 -202c-11 -21 -45 -27 -74 -32c-12 -2 -23 -5 -33 -8
c-12 0 -33 18 -34 30c32 61 83 146 154 260c-28 -2 -55 -4 -78 -6c-64 -4 -109 -7 -120 -7c-23 0 -28 32 -28 58c0 18 1 29 2 32c52 110 513 437 587 448c5 0 21 -5 49 -14c5 -3 9 -9 12 -15c1 -3 1 -6 7 -7c0 -1 1 -6 1 -7c2 -5 4 -9 4 -15zM1383 1165
c-3 -22 -2 -55 -40 -100c-244 -289 -484 -529 -876 -1043c-15 -20 -21 -49 -48 -49s-39 49 -39 91c0 11 0 21 2 30c15 94 17 81 64 136c423 498 574 642 883 995c11 8 25 24 39 24c13 0 18 -11 18 -31c0 -9 -1 -40 -3 -53zM850 1133c0 -59 -60 -156 -246 -272
c63 -8 126 -50 126 -109c0 -1 -1 -3 -1 -7c-12 -134 -236 -286 -425 -286c-71 0 -96 53 -96 86c0 42 47 89 80 89c14 0 14 -11 17 -24s7 -31 28 -31c100 0 275 86 275 140c-2 29 -51 51 -155 51c-25 0 -38 28 -38 54c0 37 28 53 66 75c12 7 26 15 39 24c6 4 16 11 24 16
c68 45 195 130 195 174c0 4 -6 6 -13 6c-51 0 -235 -97 -303 -201v1l-3 -6c-4 -8 -8 -16 -22 -16c-34 0 -57 27 -58 55v9c6 67 208 258 410 258c72 0 100 -44 100 -86zM1099 425c-39 -34 -79 -67 -111 -93c49 9 92 15 148 22c45 71 85 132 167 240
c-64 -51 -137 -112 -204 -169z" />
    <glyph glyph-name="paragraph" unicode="&#xb6;" horiz-adv-x="1314" 
d="M1176 842c195 271 233 357 306 437c2 3 54 63 54 66c0 10 -49 13 -66 13c-140 0 -439 -509 -773 -1079c-133 -227 -317 -618 -337 -625c-6 -2 -10 -3 -15 -3c-134 -10 -179 40 -113 160c140 269 347 619 570 950c-101 49 -183 96 -183 205c0 304 464 499 896 499
c49 0 239 -13 239 -98c0 -29 -31 -66 -78 -53c-143 -191 -507 -775 -617 -986c-141 -271 -295 -601 -315 -607c-6 -1 -10 -2 -15 -2c-23 0 -20 19 -31 19c-7 0 -6 -8 -32 -8c-8 0 -15 1 -42 1c-25 0 -43 13 -43 36c0 5 0 10 1 15c2 20 32 85 43 103c75 127 414 766 551 957z
" />
    <glyph glyph-name="ellipsis" unicode="&#x2026;" horiz-adv-x="1425" 
d="M306 166c46 0 69 -29 69 -68c0 -71 -71 -161 -153 -161c-57 0 -72 37 -72 73c0 81 76 156 156 156zM781 166c46 0 69 -29 69 -68c0 -71 -71 -161 -153 -161c-57 0 -72 37 -72 73c0 81 76 156 156 156zM1256 166c46 0 69 -29 69 -68c0 -71 -71 -161 -153 -161
c-57 0 -72 37 -72 73c0 81 76 156 156 156z" />
    <glyph glyph-name="questiondown" unicode="&#xbf;" horiz-adv-x="1098" 
d="M110 247c0 392 535 467 758 694c60 61 -28 127 88 127c18 0 111 -6 111 -77c0 -72 -37 -129 -82 -170c-189 -176 -699 -357 -699 -581c0 -82 59 -131 223 -131c185 0 450 134 450 256c0 6 -21 15 -25 15c-27 0 -45 -23 -55 -23c-9 0 -15 11 -15 19c0 62 61 94 153 94
c53 0 138 -59 138 -123c0 -229 -368 -403 -632 -403c-220 0 -413 104 -413 303zM1199 1462c39 0 59 -21 59 -60c0 -80 -82 -170 -164 -170c-35 0 -57 21 -57 58c0 73 84 172 162 172z" />
    <glyph glyph-name="trademark" unicode="&#x2122;" horiz-adv-x="1536" 
d="M1048 1309c-90 -125 -162 -233 -240 -360c-83 -137 -170 -274 -250 -274c-35 0 -77 43 -77 73c0 51 60 127 77 141c8 7 21 16 39 16c8 0 14 -3 19 -8c88 120 156 231 251 375c-53 -11 -118 -22 -179 -22c-56 0 -165 5 -165 85c0 52 46 94 105 94c20 0 31 -12 31 -27
c0 -10 -5 -18 -10 -24c113 1 210 -1 317 24c45 34 125 78 186 78c38 0 84 -23 84 -69c0 -56 -104 -88 -188 -102zM1956 1409c-56 -79 -312 -417 -405 -576c37 28 84 75 119 118c7 8 16 26 29 26c25 0 29 -39 32 -64c0 -9 5 -18 5 -28c0 -11 -4 -24 -16 -40
c-40 -53 -174 -163 -231 -163c-59 0 -92 45 -92 87c0 57 154 277 238 402c-141 -148 -373 -415 -418 -453c-10 -9 -22 -12 -34 -12c-34 0 -76 30 -76 68c0 20 138 271 217 420c-110 -138 -302 -412 -383 -577c-11 -23 -25 -28 -41 -28c-8 0 -19 2 -33 6c-35 9 -59 30 -59 61
c0 50 456 701 610 798c17 10 29 14 40 14c10 0 14 -2 18 -4c9 4 20 7 31 7c33 0 75 -20 75 -45c0 -42 -141 -191 -244 -420c183 172 389 408 471 467c7 5 17 8 25 8c15 0 24 -3 36 -6c17 -5 34 -8 57 -8c18 -4 35 -20 35 -39c0 -5 -2 -13 -6 -19z" />
    <glyph glyph-name="currency" unicode="&#xa4;" horiz-adv-x="1024" 
d="M351 1033c21 8 138 -12 172 -57c17 -23 33 -43 47 -62c67 34 143 53 220 53c28 0 73 -17 112 -47c49 36 107 78 181 132c11 8 28 21 42 20c13 -2 16 -13 14 -33c-1 -9 -6 -40 -9 -52c-6 -22 -8 -55 -51 -95c-36 -34 -69 -64 -99 -91c1 -8 2 -16 2 -24
c0 -155 -52 -278 -125 -366c5 -14 10 -26 17 -42c32 -80 32 -133 14 -181c-16 -45 -38 -86 -53 -91c-13 -6 -23 1 -30 18c-8 19 -35 103 -66 193c-66 -41 -137 -62 -198 -62c-45 0 -91 14 -130 42c-43 -43 -90 -91 -142 -145c-17 -18 -26 -46 -53 -43s-33 53 -28 95
c1 11 2 20 5 29c26 92 26 79 79 128c20 19 39 36 58 54c-10 31 -16 66 -16 107c0 131 59 246 149 327c-9 13 -18 27 -28 44c-44 69 -92 104 -101 125c-4 10 0 18 17 24zM554 397c153 0 282 191 282 321c0 74 -47 109 -71 109c-177 0 -319 -194 -319 -302
c0 -96 54 -128 108 -128z" />
    <glyph glyph-name="fraction" unicode="&#x2044;" horiz-adv-x="336" 
d="M848 1165c-3 -22 -2 -55 -40 -100c-244 -289 -484 -529 -876 -1043c-15 -20 -21 -49 -48 -49s-39 49 -39 91c0 11 0 21 2 30c15 94 17 81 64 136c423 498 574 642 883 995c11 8 25 24 39 24c13 0 18 -11 18 -31c0 -9 -1 -40 -3 -53z" />
    <glyph glyph-name="fi" unicode="&#xfb01;" horiz-adv-x="1152" 
d="M1001 1446c-18 -39 -391 -612 -598 -952c8 -2 16 -7 25 -9c102 19 196 35 219 41c4 1 9 2 14 2c33 0 72 -23 113 -30c6 -1 17 -24 17 -44c0 -14 -6 -27 -21 -30c-11 -2 -86 -21 -185 -45c33 -39 53 -84 53 -125c0 -279 -600 -868 -790 -868c-41 0 -115 24 -115 104
c0 168 166 438 371 778c-22 -4 -30 -5 -40 -5c-53 0 -58 47 -58 59c0 9 -8 19 -8 28c0 4 2 9 8 12c16 13 24 33 41 48c16 14 45 44 63 49c14 3 68 24 129 35c279 467 555 896 576 921c48 57 145 77 165 76c16 0 27 -7 27 -22c0 -6 -2 -14 -6 -23zM464 240
c0 36 -24 69 -59 96l-111 -25c-150 -254 -394 -655 -394 -736c0 -10 4 -15 11 -15c66 0 553 428 553 680zM1450 1098c0 -74 -86 -172 -162 -172c-39 0 -59 20 -59 59c0 80 80 170 162 170c36 0 59 -20 59 -57zM1288 225c0 -14 0 -30 -6 -43c-70 -143 -244 -223 -353 -223
c-90 0 -182 84 -182 172c0 100 220 420 220 436c0 23 -41 43 -41 66c0 16 155 186 241 186c33 0 74 -49 74 -80c0 -21 -209 -382 -238 -432c-24 -40 -75 -112 -75 -160c0 -28 26 -34 51 -34c121 0 252 202 283 202c28 0 26 -72 26 -90z" />
    <glyph glyph-name="fl" unicode="&#xfb02;" horiz-adv-x="1265" 
d="M1001 1446c-18 -39 -391 -612 -598 -952c8 -2 16 -7 25 -9c102 19 196 35 219 41c4 1 9 2 14 2c33 0 72 -23 113 -30c6 -1 17 -24 17 -44c0 -14 -6 -27 -21 -30c-11 -2 -86 -21 -185 -45c33 -39 53 -84 53 -125c0 -279 -600 -868 -790 -868c-41 0 -115 24 -115 104
c0 168 166 438 371 778c-22 -4 -30 -5 -40 -5c-53 0 -58 47 -58 59c0 9 -8 19 -8 28c0 4 2 9 8 12c16 13 24 33 41 48c16 14 45 44 63 49c14 3 68 24 129 35c279 467 555 896 576 921c48 57 145 77 165 76c16 0 27 -7 27 -22c0 -6 -2 -14 -6 -23zM464 240
c0 36 -24 69 -59 96l-111 -25c-150 -254 -394 -655 -394 -736c0 -10 4 -15 11 -15c66 0 553 428 553 680zM1749 1397c0 -230 -572 -903 -742 -1092c-4 -33 -16 -63 -16 -96c0 -64 47 -100 108 -100c125 0 263 206 306 206c26 0 26 -57 26 -73v-20c0 -45 -23 -68 -47 -95
c-81 -92 -228 -166 -352 -166c-133 0 -195 86 -195 215c0 277 181 682 340 907c123 174 314 418 451 418c61 0 121 -39 121 -104zM1583 1335c0 8 -2 15 -10 15c-53 0 -337 -408 -377 -480c-56 -100 -112 -229 -148 -338c97 115 535 695 535 803z" />
    <glyph glyph-name="lessequal" unicode="&#x2264;" horiz-adv-x="700" 
d="M714 1039c35 0 35 -80 35 -104c0 -47 -4 -66 -35 -91c-90 -71 -155 -63 -294 -157c20 -106 132 -190 146 -212c2 -4 3 -10 3 -18c0 -57 -34 -196 -61 -196c-31 0 -40 33 -57 70c-38 81 -117 194 -172 354c-5 6 -7 13 -7 20c0 23 23 49 52 68c131 84 183 103 351 241
c11 9 21 25 39 25zM537 75c-96 0 -148 13 -271 13c-78 0 -150 -4 -187 -4c-35 0 -47 24 -47 49c0 57 28 108 79 108c166 0 175 -9 226 -10c164 -5 204 -8 264 -8c24 0 35 -43 35 -66c0 -49 -33 -82 -99 -82z" />
    <glyph glyph-name="greaterequal" unicode="&#x2265;" horiz-adv-x="700" 
d="M511 1054c25 0 15 -23 21 -53c34 -92 81 -184 136 -344c4 -12 8 -26 8 -41c0 -24 -11 -50 -47 -72c-151 -71 -187 -93 -343 -205c-22 -15 -37 -50 -53 -50c-35 0 -35 110 -35 135c0 105 261 157 347 221c-43 102 -120 151 -136 192c-14 37 10 82 33 131
c18 41 49 86 69 86zM515 85c-96 0 -148 13 -271 13c-78 0 -150 -4 -187 -4c-35 0 -47 24 -47 49c0 57 28 108 79 108c166 0 175 -9 226 -10c164 -5 204 -8 264 -8c24 0 35 -43 35 -66c0 -49 -33 -82 -99 -82z" />
    <glyph glyph-name="dotlessj" unicode="&#x237;" horiz-adv-x="453" 
d="M571 295c5 -21 13 -88 0 -113c-18 -28 -401 -198 -608 -426c-43 -84 -226 -358 -367 -358c-49 0 -96 31 -96 102c0 99 203 244 366 381c161 271 286 498 400 660c-24 3 -79 -25 -91 45c-9 50 226 200 278 200c49 0 75 -26 75 -75c0 -6 -3 -17 -5 -23
c-17 -47 -349 -577 -401 -657c46 32 368 274 406 274c21 17 41 8 43 -10z" />
    <glyph glyph-name="Lslash" unicode="&#x141;" horiz-adv-x="1476" 
d="M969 529c-35 -5 -73 -9 -112 -14c-63 -94 -120 -179 -175 -251c246 -61 514 -135 733 -135c125 0 149 35 159 35c5 0 9 -4 9 -10c0 -3 -1 -8 -4 -13c-10 -18 -76 -123 -102 -139c-27 -16 -105 -29 -193 -29c-258 0 -500 90 -729 152c-119 -107 -252 -166 -444 -166
c-248 0 -261 113 -261 193c0 79 64 194 367 194c76 0 166 -14 264 -35c45 50 88 108 131 171c-64 -9 -125 -19 -173 -27c-9 0 -10 -3 -21 -4c-19 -2 -31 15 -38 37c-39 121 10 148 58 153c89 11 195 20 297 30c38 58 76 118 117 177c245 356 495 616 762 616
c127 0 162 -82 162 -143c0 -180 -340 -428 -422 -428c-71 0 -107 60 -107 108c0 34 16 48 26 48c6 0 10 -4 11 -11c67 20 289 206 289 249c0 6 -4 9 -12 9c-67 0 -237 -88 -553 -555c-10 -15 -20 -29 -30 -44c93 14 193 35 273 59c6 4 16 5 25 6c25 3 44 -32 49 -50
c46 -139 -237 -170 -356 -183zM322 176c-46 6 -89 10 -132 10c-96 0 -131 -16 -131 -31s34 -30 76 -30c68 0 129 18 187 51z" />
    <glyph glyph-name="lslash" unicode="&#x142;" horiz-adv-x="528" 
d="M461 363c-57 -19 -124 -40 -192 -61c-4 -16 -15 -53 -15 -93c0 -64 47 -100 108 -100c125 0 263 206 306 206c26 0 26 -57 26 -73v-20c0 -45 -23 -68 -47 -95c-81 -92 -228 -166 -352 -166c-133 0 -195 86 -195 215c0 23 1 47 3 71c-21 -7 -41 -15 -59 -21
c-7 -2 -7 -4 -15 -6c-15 -5 -27 9 -37 24c-47 94 -12 122 26 134c35 11 75 22 115 34c60 239 189 504 307 671c123 174 314 418 451 418c61 0 121 -39 121 -104c0 -212 -434 -711 -604 -901c74 26 186 61 249 92c4 5 11 8 19 8c18 8 40 -19 46 -32
c57 -107 -166 -173 -261 -201zM846 1335c0 8 -2 15 -10 15c-53 0 -337 -408 -377 -480c-56 -100 -112 -229 -148 -338c97 115 535 695 535 803z" />
    <glyph glyph-name="Hbar" unicode="&#x126;" horiz-adv-x="1536" 
d="M1698 837h-42c-36 -58 -72 -116 -107 -173c-147 -240 -391 -650 -399 -658c-2 -2 -1 -10 -10 -10c-3 0 -9 3 -14 3c-8 0 -16 -7 -27 -7c-4 0 -11 3 -16 3c-6 0 -10 -3 -17 -3h-6c-9 0 -28 -8 -56 -8c-31 0 -50 9 -50 34c0 9 3 21 9 35c27 64 192 344 289 502
c-111 -3 -254 -5 -365 -5c-92 0 -143 1 -215 1c-139 -224 -315 -551 -335 -557c-6 -1 -10 -2 -15 -2c-23 0 -20 19 -31 19c-7 0 -6 -8 -32 -8c-10 0 -20 1 -23 1s-6 6 -9 6s0 -6 -10 -6c-25 0 -43 13 -43 36c0 5 0 10 1 15c2 20 32 85 43 103c75 127 173 271 251 391
c-63 2 -62 31 -80 102c-7 26 -11 43 -10 54c0 23 12 27 23 27c27 0 55 -18 117 -18c18 0 36 2 57 2c21 32 48 74 79 120c-91 -1 -156 -2 -177 -3c-6 0 -8 -2 -15 -2c-14 0 -18 18 -18 40c0 116 39 136 72 136c36 0 136 -2 252 -3c48 70 97 140 141 202
c-55 -45 -155 -108 -293 -108c-96 0 -186 49 -186 135c0 70 70 115 139 115c12 0 21 -6 21 -12c0 -9 -21 -9 -21 -19c0 -22 55 -41 117 -41c115 0 377 176 389 184c10 5 43 16 72 16c45 0 58 -36 69 -49c7 -6 11 -9 11 -16c0 -6 -3 -13 -9 -25c-9 -18 -130 -201 -252 -385
c139 -2 265 -4 308 -4c29 0 137 1 258 4c117 182 238 368 254 390c24 34 45 42 76 42c24 0 75 -6 88 -6c20 0 20 2 43 -14c9 -7 12 -14 12 -22c0 -15 -11 -29 -21 -45c-63 -97 -140 -215 -220 -339c104 4 190 9 217 16c4 2 11 2 17 2c18 0 22 -35 22 -53
c0 -135 -242 -135 -323 -135zM1362 733c18 29 42 66 66 104h-569c-27 -42 -53 -81 -74 -114c88 0 391 4 577 10z" />
    <glyph glyph-name="hbar" unicode="&#x127;" horiz-adv-x="805" 
d="M703 1002h-87c-107 -175 -223 -375 -309 -549c111 135 326 358 453 358c22 0 57 -10 72 -16c28 -11 34 -39 34 -68c0 -51 -260 -498 -260 -577c0 -27 12 -40 35 -40c8 0 17 2 27 5c59 16 213 174 231 190c8 6 15 9 22 9c11 0 20 -8 21 -19c2 -13 7 -43 7 -70
c0 -17 -2 -33 -7 -43c-30 -61 -183 -219 -347 -219c-99 0 -165 42 -165 146c0 135 170 419 232 526c-111 -78 -501 -520 -584 -635c-8 -12 -49 -31 -69 -31c-22 0 -37 17 -47 17c-6 0 -13 1 -13 11c0 4 1 9 4 17c95 222 215 489 493 985c-42 -1 -81 -3 -113 -5
c-6 0 -8 -2 -15 -2c-14 0 -18 18 -18 40c0 116 39 136 72 136c50 0 109 -3 167 -6c4 7 8 14 12 22c74 129 148 241 172 272c23 30 73 57 148 57c14 0 28 -2 28 -39c0 -11 -2 -22 -6 -32c-7 -14 -82 -127 -181 -284c72 1 159 9 229 26c4 2 11 2 17 2c18 0 22 -35 22 -53
c0 -135 -196 -131 -277 -131z" />
    <glyph glyph-name="Tbar" unicode="&#x166;" horiz-adv-x="1161" 
d="M1167 657c-30 0 -85 0 -147 -1c-213 -337 -401 -705 -575 -705c-53 0 -115 24 -115 106c0 88 135 234 166 260c11 9 20 14 26 14c7 0 11 -5 11 -13c0 -6 -5 -14 -5 -21c0 -8 9 -16 18 -16c5 0 10 2 14 8c10 14 112 148 257 366c-127 -2 -248 -3 -293 -6
c-6 0 -8 -2 -15 -2c-14 0 -18 18 -18 40c0 116 39 136 72 136c75 0 241 -6 358 -9c81 126 155 247 245 355c-111 -28 -293 -68 -462 -68c-68 0 -134 6 -192 23c-78 22 -98 54 -98 107c0 10 1 21 2 33c6 73 111 114 168 114c15 0 23 -6 23 -14c0 -15 -33 -38 -33 -52
c0 -20 44 -32 201 -32c208 0 374 23 561 61c43 35 90 68 143 97s108 43 154 43c51 0 92 -16 110 -47c11 -17 18 -34 18 -51c0 -92 -198 -142 -356 -166c-96 -123 -194 -279 -278 -398c116 10 271 27 323 40c4 2 11 2 17 2c18 0 22 -35 22 -53c0 -135 -241 -151 -322 -151z
" />
    <glyph glyph-name="tbar" unicode="&#x167;" horiz-adv-x="440" 
d="M50 160c1 76 67 223 146 370c-58 -1 -111 -3 -147 -5c-6 0 -8 -2 -15 -2c-14 0 -18 18 -18 40c0 116 39 136 72 136c52 0 126 -3 199 -6c53 91 103 170 133 216c-1 1 -151 -18 -173 -18h-9c-28 0 -83 10 -83 49c0 15 25 29 32 49c10 31 92 75 125 78c43 3 86 4 129 6
c94 4 -4 0 90 4c43 62 86 129 137 185c12 16 14 20 35 20c16 0 31 6 47 6c25 0 25 -10 41 -10c12 0 23 -16 23 -27c0 -16 -86 -145 -101 -170c13 1 75 6 99 6s47 -1 55 -4c24 -10 31 -37 53 -53c10 -8 17 -14 17 -29c0 -40 -50 -56 -80 -59c-92 -9 -164 -19 -256 -24
c-26 -39 -79 -127 -138 -229h1c74 0 169 8 243 26c4 2 11 2 17 2c18 0 22 -35 22 -53c0 -135 -196 -131 -277 -131h-94c-79 -144 -149 -283 -155 -330c-2 -15 -4 -28 -4 -39c0 -39 17 -49 49 -49c96 0 270 200 295 200c28 0 26 -72 26 -90c0 -38 -14 -61 -45 -88
c-67 -58 -193 -175 -308 -175c-10 0 -19 1 -28 3c-102 19 -155 66 -155 195z" />
    <glyph glyph-name="Eng" unicode="&#x14a;" horiz-adv-x="1325" 
d="M1111 1382c-7 -28 -131 -623 -197 -952c195 273 418 568 600 888c31 55 54 100 64 130c26 75 68 80 102 80c35 0 125 -11 125 -58c0 -139 -556 -923 -722 -1142c-149 -197 -463 -791 -785 -791c-131 0 -205 82 -205 158c0 86 90 232 186 232c33 0 81 -10 81 -26
c0 -43 -102 -112 -102 -136c0 -28 20 -41 42 -41c116 0 243 181 326 295c7 11 23 32 41 59c16 169 151 841 192 1040c-236 -307 -631 -960 -672 -1069c-18 -49 -26 -90 -82 -90c-48 0 -63 -9 -79 -9c-31 0 -62 22 -62 40c0 109 676 1208 926 1423c15 13 30 16 41 16
c18 0 33 -8 47 -8c17 0 48 16 73 16c38 0 62 -19 62 -41c0 -4 -1 -9 -2 -14z" />
    <glyph glyph-name="eng" unicode="&#x14b;" horiz-adv-x="801" 
d="M889 723c0 -76 -231 -360 -410 -692c46 32 368 274 406 274c21 17 41 8 43 -10c5 -21 13 -88 0 -113c-18 -28 -401 -198 -608 -426c-43 -84 -226 -358 -367 -358c-49 0 -96 31 -96 102c0 99 203 244 366 381c225 373 296 520 461 758c1 2 0 4 -4 4
c-52 0 -325 -289 -375 -344c-75 -83 -143 -170 -209 -258c-14 -18 -39 -43 -63 -43c-17 0 -80 25 -92 35c-7 4 -7 10 -7 16c0 33 38 86 60 123c86 150 174 297 262 444c29 48 53 98 88 142c34 43 99 57 152 57c22 0 24 -22 24 -39c0 -47 -100 -184 -129 -231
c96 106 250 268 404 268c51 0 94 -35 94 -90z" />
    <glyph glyph-name="dcroat" unicode="&#x111;" horiz-adv-x="843" 
d="M1118 1040h-11c-56 -92 -111 -184 -164 -276c-56 -96 -287 -520 -287 -602v-8c0 -21 7 -41 30 -41c86 0 224 172 247 192c7 6 15 9 22 9c24 0 27 -35 27 -89c0 -17 -1 -33 -6 -43c-27 -53 -181 -217 -314 -217c-114 0 -150 55 -150 127c0 65 31 145 60 207
c-92 -119 -274 -315 -436 -315c-92 0 -125 77 -125 157c0 281 393 654 670 654c28 0 55 -21 75 -39c39 61 71 123 107 184c19 33 39 66 59 98c-65 -1 -127 -3 -174 -6c-6 0 -8 -2 -15 -2c-14 0 -18 18 -18 40c0 116 39 136 72 136c70 0 154 -5 233 -8c22 35 45 70 68 105
c31 47 62 98 99 141c28 37 83 55 131 55c26 0 41 -18 41 -43c0 -10 -5 -16 -9 -24c-48 -77 -95 -154 -143 -230c31 4 61 11 99 20c4 2 11 2 17 2c18 0 22 -35 22 -53c0 -135 -146 -131 -227 -131zM695 662c-199 -44 -371 -197 -469 -373c-18 -33 -47 -92 -47 -129
c0 -10 2 -23 14 -23c66 0 321 293 365 346c48 58 94 117 137 179z" />
    <glyph glyph-name="Aogonek" unicode="&#x104;" horiz-adv-x="1203" 
d="M614 -254c0 41 39 137 123 188c-40 -3 -38 24 -38 27c0 9 6 20 10 31c4 8 110 207 233 467c-102 4 -264 10 -413 14c-138 -174 -240 -332 -310 -450c-22 -42 -38 -60 -70 -60c-35 0 -89 38 -89 88c0 68 104 232 258 428c-56 0 -99 0 -121 -2c-33 -3 -57 -10 -74 -10
c-18 0 -27 9 -27 43c0 61 72 117 197 117c18 0 61 4 152 6c268 315 622 658 868 782c18 9 30 14 41 13c18 0 29 -10 43 -25c34 66 31 69 49 69c11 0 107 -49 107 -92c0 -5 0 -9 -2 -14c-54 -164 -506 -1147 -560 -1247c-40 -74 -76 -138 -133 -162
c-64 -46 -121 -125 -121 -174c0 -11 4 -19 12 -25c94 0 193 70 244 70c10 0 14 -20 14 -42c0 -17 -3 -34 -6 -44c-43 -80 -145 -139 -277 -139c-49 0 -110 69 -110 143zM1327 1262c-270 -205 -491 -424 -667 -629c94 -2 213 -6 358 -15c111 234 229 480 309 644z" />
    <glyph glyph-name="aogonek" unicode="&#x105;" horiz-adv-x="834" 
d="M474 -254c0 49 35 140 149 225c-82 26 -105 98 -105 161c0 33 7 66 20 95c-110 -143 -272 -258 -372 -258c-86 0 -146 66 -156 137c-3 17 -4 33 -4 50c0 297 376 612 598 612c77 0 120 -30 131 -63c33 51 49 55 90 55c42 0 76 -16 76 -52c0 -15 -5 -33 -14 -42
c-15 -16 -182 -289 -215 -469c-2 -7 -3 -17 -3 -28c0 -25 7 -55 32 -55c80 0 221 177 237 191c7 6 15 9 22 9c11 0 20 -8 21 -19c2 -13 6 -43 6 -70c0 -17 -1 -33 -6 -43c-24 -47 -134 -146 -238 -212c-60 -38 -146 -140 -146 -187c0 -11 4 -19 12 -25c94 0 193 70 244 70
c10 0 14 -20 14 -42c0 -17 -3 -34 -6 -44c-43 -80 -145 -139 -277 -139c-49 0 -110 69 -110 143zM692 649c-68 0 -199 -28 -354 -190c-88 -91 -174 -243 -174 -303c0 -16 6 -25 20 -25c38 0 266 199 342 293c45 57 113 154 166 225z" />
    <glyph glyph-name="Eogonek" unicode="&#x118;" horiz-adv-x="1232" 
d="M1442 1335c0 -78 -41 -91 -77 -102c-8 -3 -16 -5 -23 -8c-52 -22 -112 -33 -164 -33c-34 0 -73 11 -79 26c1 16 10 40 22 60c-268 -10 -544 -208 -544 -300c0 -56 145 -65 227 -65c53 0 65 4 83 12c50 24 136 34 188 34c59 0 90 -20 90 -53c0 -31 -34 -101 -45 -113
c-9 -8 -105 -37 -151 -41c-3 -1 -20 -3 -32 -5c-23 -4 -47 -8 -59 -3c-434 -216 -511 -429 -511 -509c0 -83 70 -99 137 -99c217 0 692 309 692 495c0 25 38 28 48 28c37 0 91 -19 91 -115c0 -134 -244 -374 -510 -497c-56 -26 -170 -189 -170 -234c0 -11 4 -19 12 -25
c94 0 193 70 244 70c10 0 14 -20 14 -42c0 -17 -3 -34 -6 -44c-43 -80 -145 -139 -277 -139c-49 0 -110 69 -110 143c0 41 45 137 121 214c-51 -12 -102 -18 -153 -18c-147 0 -314 82 -314 281c0 221 260 420 420 511c-97 22 -206 74 -206 212c0 266 497 480 792 480
c64 0 149 -13 167 -19c54 -27 83 -81 83 -102z" />
    <glyph glyph-name="eogonek" unicode="&#x119;" horiz-adv-x="650" 
d="M217 -244c0 63 49 149 133 209c-12 -2 -50 -4 -59 -4c-119 0 -275 37 -275 184c0 111 97 174 191 209c-55 25 -60 64 -60 117c0 197 332 338 502 338c35 0 101 -18 101 -61c0 -89 -86 -166 -175 -166c-32 0 -36 16 -36 45c0 10 2 18 4 26c-29 -10 -56 -24 -82 -39
c-33 -18 -170 -108 -170 -145c0 -8 16 -8 20 -8c54 0 99 33 150 33c6 0 14 0 20 -2c17 -9 43 -50 43 -66c0 -17 -22 -34 -35 -45c-29 -24 -63 -26 -94 -43c-41 -23 -211 -117 -211 -162c0 -70 80 -78 133 -78c146 0 285 138 377 207c6 4 15 10 23 10c26 0 26 -61 26 -79
c0 -17 0 -37 -6 -54c-6 -16 -26 -35 -41 -47c-59 -48 -153 -103 -229 -160c-54 -41 -127 -130 -127 -182c0 -11 4 -19 12 -25c94 0 193 70 244 70c10 0 14 -20 14 -42c0 -17 -3 -34 -6 -44c-43 -80 -145 -139 -277 -139c-49 0 -110 69 -110 143z" />
    <glyph glyph-name="Uogonek" unicode="&#x172;" horiz-adv-x="1516" 
d="M876 -224c0 45 52 143 108 212c-44 8 -78 48 -78 110c0 127 177 418 349 654c-242 -281 -656 -756 -914 -756c-110 0 -149 90 -149 156c0 135 96 321 221 514c121 188 237 348 354 485c-67 -59 -149 -127 -205 -127c-67 0 -102 55 -102 115c0 55 80 112 98 112
c11 0 19 0 19 -4c0 -6 -30 -34 -30 -45c0 -5 3 -8 13 -8c54 0 277 139 394 233c18 15 39 21 59 21c21 0 42 -6 61 -16c3 10 62 -22 62 -54c0 -7 -3 -15 -8 -22c-138 -178 -457 -600 -566 -766c-64 -98 -174 -287 -174 -365c0 -22 8 -35 29 -35c39 0 243 164 475 390
c258 251 548 576 746 802c23 26 35 30 51 29h9c21 0 11 7 83 7c69 0 100 -12 100 -37c0 -10 -6 -24 -22 -46c-39 -53 -701 -973 -701 -1106c0 0 0 -1 1 -1c10 0 106 48 198 126c82 69 168 146 207 191c5 6 9 8 13 8c18 0 27 -49 27 -96c0 -27 -3 -54 -9 -70
c-50 -128 -297 -269 -454 -384c-55 -40 -142 -139 -142 -190c0 -11 4 -19 12 -25c94 0 193 70 244 70c10 0 14 -20 14 -42c0 -17 -3 -34 -6 -44c-43 -80 -145 -139 -277 -139c-49 0 -110 69 -110 143z" />
    <glyph glyph-name="uogonek" unicode="&#x173;" horiz-adv-x="810" 
d="M453 -244c0 68 64 165 122 214c-56 14 -104 55 -104 124c0 41 6 109 43 176c-98 -123 -262 -311 -389 -311c-78 0 -125 68 -125 131c0 144 141 368 187 449c97 170 134 243 188 243c35 0 68 -45 68 -65c0 -35 -265 -463 -265 -550c0 -10 3 -15 11 -15
c71 0 429 413 463 479c39 77 81 132 98 143c15 10 66 29 111 30c5 0 11 0 16 -1c10 -2 23 -32 23 -42c0 -2 -1 -3 -1 -3c-86 -166 -133 -234 -157 -283c-30 -62 -118 -237 -118 -318c0 -26 9 -42 32 -42c84 12 213 174 231 190c8 6 15 9 22 9c11 0 20 -8 21 -19
c2 -13 6 -43 6 -70c0 -17 -1 -33 -6 -43c-22 -43 -139 -143 -234 -213c-57 -42 -120 -129 -120 -176c0 -11 4 -19 12 -25c94 0 193 70 244 70c10 0 14 -20 14 -42c0 -17 -3 -34 -6 -44c-43 -80 -145 -139 -277 -139c-49 0 -110 69 -110 143z" />
    <glyph glyph-name="kgreenlandic" unicode="&#x138;" horiz-adv-x="753" 
d="M897 295c2 -13 6 -43 6 -70c0 -17 -1 -33 -6 -43c-27 -53 -180 -217 -313 -217c-183 0 -291 238 -338 326c-66 -131 -144 -291 -148 -299c-6 -13 -13 -16 -20 -16c-19 0 -49 14 -64 14c-35 6 -39 22 -55 49c-1 1 -1 2 -1 4c0 7 8 19 15 43c32 109 380 781 399 803
c30 43 55 5 90 18c57 20 54 8 70 8c15 0 29 -13 29 -32v-7c-8 -28 -174 -307 -236 -423c99 39 381 260 383 313c3 63 54 78 84 78c40 0 74 -27 74 -76c-6 -164 -317 -387 -430 -434c29 -78 92 -219 186 -219c84 12 213 174 232 190c7 6 15 9 22 9c11 0 20 -8 21 -19z" />
    <glyph glyph-name="Iogonek" unicode="&#x12e;" horiz-adv-x="574" 
d="M-132 -254c0 49 64 165 127 233c-9 4 -17 8 -17 11c0 8 0 49 4 59c45 152 828 1318 922 1393c10 8 22 11 37 11c34 0 61 -3 80 -3c23 0 36 2 47 2c16 0 26 -9 26 -20c0 -3 0 -6 -2 -9c-225 -331 -548 -817 -893 -1378c-19 -31 -28 -38 -39 -41c-3 0 -14 -5 -35 -11
c-40 -53 -134 -156 -134 -210c0 -11 4 -19 12 -25c94 0 193 70 244 70c10 0 14 -20 14 -42c0 -17 -3 -34 -6 -44c-43 -80 -145 -139 -277 -139c-49 0 -110 69 -110 143z" />
    <glyph glyph-name="iogonek" unicode="&#x12f;" horiz-adv-x="415" 
d="M-19 -254c0 50 65 167 129 236c-57 30 -100 88 -100 149c0 100 220 420 220 436c0 23 -41 43 -41 66c0 16 155 186 241 186c33 0 74 -49 74 -80c0 -21 -209 -382 -238 -432c-24 -40 -75 -112 -75 -160c0 -28 26 -34 51 -34c121 0 252 202 283 202c28 0 26 -72 26 -90
c0 -14 0 -30 -6 -43c-66 -135 -224 -213 -333 -222c-45 -55 -108 -133 -108 -177c0 -11 4 -19 12 -25c94 0 193 70 244 70c10 0 14 -20 14 -42c0 -17 -3 -34 -6 -44c-43 -80 -145 -139 -277 -139c-49 0 -110 69 -110 143zM713 1098c0 -74 -86 -172 -162 -172
c-39 0 -59 20 -59 59c0 80 80 170 162 170c36 0 59 -20 59 -57z" />
    <glyph glyph-name="uni00AD" unicode="&#xad;" horiz-adv-x="650" 
d="M214 399h-5c-21 -2 -59 11 -59 52c0 18 19 30 23 49c7 33 66 83 87 85c56 6 113 8 170 14c86 6 59 6 146 6c9 0 46 0 53 -4c18 -12 22 -39 37 -57c8 -9 12 -15 12 -30c0 -41 -34 -61 -56 -63c-56 -11 -113 -14 -169 -21c-117 -15 -121 -29 -239 -31z" />
    <glyph glyph-name="micro" unicode="&#x3bc;" horiz-adv-x="810" 
d="M682 115c89 16 112 -138 -63 -138c-29 0 -122 23 -122 117c0 41 -1 77 36 144c-98 -123 -211 -261 -338 -261c-42 0 -109 37 -96 129c-193 -288 -185 -336 -222 -424c-6 -15 -34 -19 -41 -19c-8 0 -69 29 -72 85c0 38 6 65 24 96c19 32 228 361 425 695
c100 169 134 243 188 243c35 0 68 -45 68 -65c0 -35 -231 -363 -264 -482c-7 -25 -7 -96 46 -96c69 0 282 212 427 492c40 77 81 132 98 143c15 10 66 29 111 30c5 0 11 0 16 -1c10 -2 23 -32 23 -42c0 -2 -1 -3 -1 -3c-86 -166 -133 -234 -157 -283
c-30 -62 -118 -237 -118 -318c0 -26 9 -42 32 -42z" />
    <glyph glyph-name="uni2215" unicode="&#x2215;" horiz-adv-x="336" 
d="M848 1165c-3 -22 -2 -55 -40 -100c-244 -289 -484 -529 -876 -1043c-15 -20 -21 -49 -48 -49s-39 49 -39 91c0 11 0 21 2 30c15 94 17 81 64 136c423 498 574 642 883 995c11 8 25 24 39 24c13 0 18 -11 18 -31c0 -9 -1 -40 -3 -53z" />
    <glyph glyph-name="partialdiff" unicode="&#x2202;" horiz-adv-x="779" 
d="M921 1035c0 -529 -347 -1062 -743 -1062c-97 0 -164 76 -164 166c0 295 365 650 662 650c32 0 58 -10 70 -25c23 107 28 217 28 283c0 218 -69 297 -124 297c-114 0 -132 -152 -205 -152c-54 0 -87 45 -87 66c0 51 167 235 318 235c159 0 245 -219 245 -458zM687 596
c11 23 22 46 -21 46c-193 0 -501 -322 -501 -465c0 -35 13 -56 41 -56c122 0 307 130 481 475z" />
    <glyph glyph-name="commaaccent" horiz-adv-x="655" 
d="M264 -240c0 -103 -155 -243 -245 -243c-32 0 -30 17 -47 25c-7 2 -11 11 -11 20c0 8 3 16 9 21c7 5 103 29 103 75c0 27 -43 39 -43 83c0 74 70 117 132 117c77 0 102 -52 102 -98z" />
    <glyph glyph-name="nbspace" unicode="&#xa0;" horiz-adv-x="425" 
 />
    <glyph glyph-name="Dcroat" unicode="&#x110;" horiz-adv-x="1607" 
d="M931 800c137 -6 269 -31 265 -123c-1 -12 -18 -52 -72 -50c-172 8 -69 13 -292 23c-13 0 -26 -1 -39 -1c-153 -236 -296 -460 -296 -468c0 -9 15 -13 57 -13c496 0 1051 485 1051 764c0 188 -174 348 -488 348c-232 0 -429 -105 -489 -152c-27 -21 -38 -35 -38 -44
c0 -5 5 -8 12 -8c19 0 35 8 43 8c6 0 9 -2 9 -4c0 -3 -6 -8 -18 -15c-29 -16 -26 -25 -45 -37c-66 -40 -94 -47 -110 -48c-10 0 -15 3 -21 3h-4c-24 0 -78 19 -78 82c0 160 305 369 741 369c439 0 682 -193 682 -455c0 -518 -716 -979 -1267 -979c-203 0 -180 39 -215 63
c-14 9 -19 33 -19 58c0 26 5 53 8 65c20 73 132 256 260 450c-39 -1 -78 -2 -116 0c-82 3 -138 30 -136 81c2 45 74 63 143 70c76 7 147 12 219 14c127 187 250 359 300 426c6 8 31 16 113 22c55 0 74 -6 74 -29c0 -11 -7 -24 -23 -46c-41 -57 -141 -207 -250 -373
c13 -1 26 -1 39 -1z" />
    <glyph glyph-name="Ldot" unicode="&#x13f;" horiz-adv-x="1476" 
d="M1776 1321c0 -180 -340 -428 -422 -428c-71 0 -107 60 -107 108c0 34 16 48 26 48c6 0 10 -4 11 -11c67 20 289 206 289 249c0 6 -4 9 -12 9c-67 0 -237 -88 -553 -555c-128 -189 -229 -350 -326 -477c246 -61 514 -135 733 -135c125 0 149 35 159 35c5 0 9 -4 9 -10
c0 -3 -1 -8 -4 -13c-10 -18 -76 -123 -102 -139c-27 -16 -105 -29 -193 -29c-258 0 -500 90 -729 152c-119 -107 -252 -166 -444 -166c-248 0 -261 113 -261 193c0 79 64 194 367 194c76 0 166 -14 264 -35c127 142 239 344 371 537c245 356 495 616 762 616
c127 0 162 -82 162 -143zM322 176c-46 6 -89 10 -132 10c-96 0 -131 -16 -131 -31s34 -30 76 -30c68 0 129 18 187 51zM1488 468c-41 0 -65 28 -65 78c0 86 73 239 176 239c39 0 69 -24 69 -90c0 -88 -73 -227 -180 -227z" />
    <glyph glyph-name="ldotaccent" unicode="&#x140;" horiz-adv-x="805" 
d="M1012 1397c0 -230 -572 -903 -742 -1092c-4 -33 -16 -63 -16 -96c0 -64 47 -100 108 -100c125 0 263 206 306 206c26 0 26 -57 26 -73v-20c0 -45 -23 -68 -47 -95c-81 -92 -228 -166 -352 -166c-133 0 -195 86 -195 215c0 277 181 682 340 907c123 174 314 418 451 418
c61 0 121 -39 121 -104zM846 1335c0 8 -2 15 -10 15c-53 0 -337 -408 -377 -480c-56 -100 -112 -229 -148 -338c97 115 535 695 535 803zM690 398c-41 0 -65 28 -65 78c0 86 73 239 176 239c39 0 69 -24 69 -90c0 -88 -73 -227 -180 -227z" />
    <glyph glyph-name="IJ" unicode="&#x132;" horiz-adv-x="1888" 
d="M1092 1423c-225 -331 -548 -817 -893 -1378c-19 -31 -28 -38 -39 -41c-4 0 -28 -12 -82 -22c-6 -2 -16 0 -20 -2c-6 -7 -21 -10 -30 -10c-2 0 -4 0 -5 1c-8 0 -45 13 -45 19c0 8 0 49 4 59c45 152 828 1318 922 1393c10 8 22 11 37 11c34 0 61 -3 80 -3c23 0 36 2 47 2
c16 0 26 -9 26 -20c0 -3 0 -6 -2 -9zM1633 328c33 16 160 71 188 71c11 0 13 -8 13 -18c0 -30 -40 -75 -56 -98c-70 -100 -201 -139 -309 -193c-1 1 -196 -302 -348 -469c-120 -132 -239 -223 -422 -223c-90 0 -125 98 -125 174c0 278 565 557 791 659
c221 326 503 723 739 1039c2 4 8 8 8 12s-6 4 -8 4c-51 0 -104 -10 -156 -20c-306 -62 -621 -235 -843 -451c-58 -56 -152 -159 -152 -244c0 -69 72 -112 135 -112c105 0 205 98 221 98c6 0 6 -8 6 -14c0 -48 -20 -100 -47 -137c-43 -58 -153 -93 -223 -93
c-131 0 -289 84 -289 232c0 23 6 49 13 71c85 277 405 489 647 621c246 134 579 227 860 227c49 0 94 -34 94 -86c0 -8 0 -16 -2 -24c-16 -41 -187 -257 -227 -310c-143 -191 -372 -522 -508 -716zM1209 -6c-92 -57 -492 -309 -492 -408c0 -16 13 -22 27 -22
c148 0 383 315 465 430z" />
    <glyph glyph-name="ij" unicode="&#x133;" horiz-adv-x="868" 
d="M986 295c5 -21 13 -88 0 -113c-18 -28 -401 -198 -608 -426c-43 -84 -226 -358 -367 -358c-49 0 -96 31 -96 102c0 99 203 244 366 381c31 36 88 103 110 140c-72 -42 -157 -62 -199 -62c-90 0 -182 84 -182 172c0 100 220 420 220 436c0 23 -41 43 -41 66
c0 16 155 186 241 186c33 0 74 -49 74 -80c0 -21 -209 -382 -238 -432c-24 -40 -75 -112 -75 -160c0 -28 26 -34 51 -34c98 0 204 76 283 183c55 93 107 175 156 245c-24 3 -79 -25 -91 45c-9 50 226 200 278 200c49 0 75 -26 75 -75c0 -6 -3 -17 -5 -23
c-17 -47 -349 -577 -401 -657c46 32 368 274 406 274c21 17 41 8 43 -10zM1210 1112c0 -90 -123 -192 -209 -192c-31 0 -47 18 -47 49c0 88 110 192 198 192c33 0 58 -14 58 -49zM713 1098c0 -74 -86 -172 -162 -172c-39 0 -59 20 -59 59c0 80 80 170 162 170
c36 0 59 -20 59 -57z" />
    <glyph glyph-name="Agrave" unicode="&#xc0;" horiz-adv-x="1203" 
d="M1551 1366c-54 -164 -506 -1147 -560 -1247c-51 -94 -94 -172 -184 -172c-45 0 -55 -13 -70 -13c-25 0 -32 6 -32 15s6 20 10 31c4 8 104 219 227 479c-102 4 -264 10 -413 14c-138 -174 -240 -332 -310 -450c-22 -42 -38 -60 -70 -60c-35 0 -89 38 -89 88
c0 68 104 232 258 428c-56 0 -99 0 -121 -2c-33 -3 -57 -10 -74 -10c-18 0 -27 9 -27 43c0 61 72 117 197 117c18 0 61 4 152 6c268 315 622 658 868 782c18 9 30 14 41 13c18 0 29 -10 43 -25c34 66 31 69 49 69c11 0 107 -49 107 -92c0 -5 0 -9 -2 -14zM1327 1262
c-270 -205 -491 -424 -667 -629c94 -2 213 -6 358 -15c111 234 229 480 309 644zM1370 1692c-65 131 -125 176 -125 213c0 24 76 73 140 73c48 0 46 -45 86 -180c13 -43 53 -148 53 -197c0 -22 -10 -28 -33 -28c-86 0 -104 84 -121 119z" />
    <glyph glyph-name="agrave" unicode="&#xe0;" horiz-adv-x="834" 
d="M981 295c2 -13 6 -43 6 -70c0 -17 -1 -33 -6 -43c-27 -53 -180 -217 -314 -217c-104 0 -149 83 -149 167c0 33 7 66 20 95c-110 -143 -272 -258 -372 -258c-86 0 -146 66 -156 137c-3 17 -4 33 -4 50c0 297 376 612 598 612c77 0 120 -30 131 -63c33 51 49 55 90 55
c42 0 76 -16 76 -52c0 -15 -5 -33 -14 -42c-15 -16 -182 -289 -215 -469c-2 -7 -3 -17 -3 -28c0 -25 7 -55 32 -55c80 0 221 177 237 191c7 6 15 9 22 9c11 0 20 -8 21 -19zM692 649c-68 0 -199 -28 -354 -190c-88 -91 -174 -243 -174 -303c0 -16 6 -25 20 -25
c38 0 266 199 342 293c45 57 113 154 166 225zM536 1012c-65 131 -125 176 -125 213c0 24 76 73 140 73c48 0 46 -45 86 -180c13 -43 53 -148 53 -197c0 -22 -10 -28 -33 -28c-86 0 -104 84 -121 119z" />
    <glyph glyph-name="Aacute" unicode="&#xc1;" horiz-adv-x="1203" 
d="M1551 1366c-54 -164 -506 -1147 -560 -1247c-51 -94 -94 -172 -184 -172c-45 0 -55 -13 -70 -13c-25 0 -32 6 -32 15s6 20 10 31c4 8 104 219 227 479c-102 4 -264 10 -413 14c-138 -174 -240 -332 -310 -450c-22 -42 -38 -60 -70 -60c-35 0 -89 38 -89 88
c0 68 104 232 258 428c-56 0 -99 0 -121 -2c-33 -3 -57 -10 -74 -10c-18 0 -27 9 -27 43c0 61 72 117 197 117c18 0 61 4 152 6c268 315 622 658 868 782c18 9 30 14 41 13c18 0 29 -10 43 -25c34 66 31 69 49 69c11 0 107 -49 107 -92c0 -5 0 -9 -2 -14zM1327 1262
c-270 -205 -491 -424 -667 -629c94 -2 213 -6 358 -15c111 234 229 480 309 644zM1657 1831c84 69 129 86 143 125c4 10 10 18 19 18c41 0 65 -65 65 -100c0 -64 -41 -109 -84 -137c-28 -27 -256 -164 -309 -164c-16 0 -23 16 -23 26c0 7 2 13 5 19c32 86 102 147 184 213z
" />
    <glyph glyph-name="aacute" unicode="&#xe1;" horiz-adv-x="834" 
d="M981 295c2 -13 6 -43 6 -70c0 -17 -1 -33 -6 -43c-27 -53 -180 -217 -314 -217c-104 0 -149 83 -149 167c0 33 7 66 20 95c-110 -143 -272 -258 -372 -258c-86 0 -146 66 -156 137c-3 17 -4 33 -4 50c0 297 376 612 598 612c77 0 120 -30 131 -63c33 51 49 55 90 55
c42 0 76 -16 76 -52c0 -15 -5 -33 -14 -42c-15 -16 -182 -289 -215 -469c-2 -7 -3 -17 -3 -28c0 -25 7 -55 32 -55c80 0 221 177 237 191c7 6 15 9 22 9c11 0 20 -8 21 -19zM692 649c-68 0 -199 -28 -354 -190c-88 -91 -174 -243 -174 -303c0 -16 6 -25 20 -25
c38 0 266 199 342 293c45 57 113 154 166 225zM823 1151c84 69 129 86 143 125c4 10 10 18 19 18c41 0 65 -65 65 -100c0 -64 -41 -109 -84 -137c-28 -27 -256 -164 -309 -164c-16 0 -23 16 -23 26c0 7 2 13 5 19c32 86 102 147 184 213z" />
    <glyph glyph-name="Acircumflex" unicode="&#xc2;" horiz-adv-x="1203" 
d="M1551 1366c-54 -164 -506 -1147 -560 -1247c-51 -94 -94 -172 -184 -172c-45 0 -55 -13 -70 -13c-25 0 -32 6 -32 15s6 20 10 31c4 8 104 219 227 479c-102 4 -264 10 -413 14c-138 -174 -240 -332 -310 -450c-22 -42 -38 -60 -70 -60c-35 0 -89 38 -89 88
c0 68 104 232 258 428c-56 0 -99 0 -121 -2c-33 -3 -57 -10 -74 -10c-18 0 -27 9 -27 43c0 61 72 117 197 117c18 0 61 4 152 6c268 315 622 658 868 782c18 9 30 14 41 13c18 0 29 -10 43 -25c34 66 31 69 49 69c11 0 107 -49 107 -92c0 -5 0 -9 -2 -14zM1327 1262
c-270 -205 -491 -424 -667 -629c94 -2 213 -6 358 -15c111 234 229 480 309 644zM1795 1573c-125 0 -145 142 -176 242c-63 -63 -262 -227 -334 -227c-16 0 -22 16 -22 26c0 64 102 134 186 205c70 60 103 90 146 139c7 13 30 21 55 21c122 0 112 -171 127 -209
c16 -41 51 -119 51 -168c0 -22 -10 -29 -33 -29z" />
    <glyph glyph-name="acircumflex" unicode="&#xe2;" horiz-adv-x="834" 
d="M981 295c2 -13 6 -43 6 -70c0 -17 -1 -33 -6 -43c-27 -53 -180 -217 -314 -217c-104 0 -149 83 -149 167c0 33 7 66 20 95c-110 -143 -272 -258 -372 -258c-86 0 -146 66 -156 137c-3 17 -4 33 -4 50c0 297 376 612 598 612c77 0 120 -30 131 -63c33 51 49 55 90 55
c42 0 76 -16 76 -52c0 -15 -5 -33 -14 -42c-15 -16 -182 -289 -215 -469c-2 -7 -3 -17 -3 -28c0 -25 7 -55 32 -55c80 0 221 177 237 191c7 6 15 9 22 9c11 0 20 -8 21 -19zM692 649c-68 0 -199 -28 -354 -190c-88 -91 -174 -243 -174 -303c0 -16 6 -25 20 -25
c38 0 266 199 342 293c45 57 113 154 166 225zM961 893c-125 0 -145 142 -176 242c-63 -63 -262 -227 -334 -227c-16 0 -22 16 -22 26c0 64 102 134 186 205c70 60 103 90 146 139c7 13 30 21 55 21c122 0 112 -171 127 -209c16 -41 51 -119 51 -168c0 -22 -10 -29 -33 -29z
" />
    <glyph glyph-name="Atilde" unicode="&#xc3;" horiz-adv-x="1203" 
d="M1551 1366c-54 -164 -506 -1147 -560 -1247c-51 -94 -94 -172 -184 -172c-45 0 -55 -13 -70 -13c-25 0 -32 6 -32 15s6 20 10 31c4 8 104 219 227 479c-102 4 -264 10 -413 14c-138 -174 -240 -332 -310 -450c-22 -42 -38 -60 -70 -60c-35 0 -89 38 -89 88
c0 68 104 232 258 428c-56 0 -99 0 -121 -2c-33 -3 -57 -10 -74 -10c-18 0 -27 9 -27 43c0 61 72 117 197 117c18 0 61 4 152 6c268 315 622 658 868 782c18 9 30 14 41 13c18 0 29 -10 43 -25c34 66 31 69 49 69c11 0 107 -49 107 -92c0 -5 0 -9 -2 -14zM1327 1262
c-270 -205 -491 -424 -667 -629c94 -2 213 -6 358 -15c111 234 229 480 309 644zM1674 1755c137 0 141 101 192 101c31 0 46 -43 46 -79c0 -14 -3 -27 -7 -36c-45 -90 -139 -147 -240 -147c-135 0 -163 120 -229 120c-96 0 -127 -123 -203 -123c-10 0 -22 17 -22 41
c0 129 182 240 250 240c122 0 145 -117 213 -117z" />
    <glyph glyph-name="atilde" unicode="&#xe3;" horiz-adv-x="834" 
d="M981 295c2 -13 6 -43 6 -70c0 -17 -1 -33 -6 -43c-27 -53 -180 -217 -314 -217c-104 0 -149 83 -149 167c0 33 7 66 20 95c-110 -143 -272 -258 -372 -258c-86 0 -146 66 -156 137c-3 17 -4 33 -4 50c0 297 376 612 598 612c77 0 120 -30 131 -63c33 51 49 55 90 55
c42 0 76 -16 76 -52c0 -15 -5 -33 -14 -42c-15 -16 -182 -289 -215 -469c-2 -7 -3 -17 -3 -28c0 -25 7 -55 32 -55c80 0 221 177 237 191c7 6 15 9 22 9c11 0 20 -8 21 -19zM692 649c-68 0 -199 -28 -354 -190c-88 -91 -174 -243 -174 -303c0 -16 6 -25 20 -25
c38 0 266 199 342 293c45 57 113 154 166 225zM840 1075c137 0 141 101 192 101c31 0 46 -43 46 -79c0 -14 -3 -27 -7 -36c-45 -90 -139 -147 -240 -147c-135 0 -163 120 -229 120c-96 0 -127 -123 -203 -123c-10 0 -22 17 -22 41c0 129 182 240 250 240
c122 0 145 -117 213 -117z" />
    <glyph glyph-name="Adieresis" unicode="&#xc4;" horiz-adv-x="1203" 
d="M1551 1366c-54 -164 -506 -1147 -560 -1247c-51 -94 -94 -172 -184 -172c-45 0 -55 -13 -70 -13c-25 0 -32 6 -32 15s6 20 10 31c4 8 104 219 227 479c-102 4 -264 10 -413 14c-138 -174 -240 -332 -310 -450c-22 -42 -38 -60 -70 -60c-35 0 -89 38 -89 88
c0 68 104 232 258 428c-56 0 -99 0 -121 -2c-33 -3 -57 -10 -74 -10c-18 0 -27 9 -27 43c0 61 72 117 197 117c18 0 61 4 152 6c268 315 622 658 868 782c18 9 30 14 41 13c18 0 29 -10 43 -25c34 66 31 69 49 69c11 0 107 -49 107 -92c0 -5 0 -9 -2 -14zM1327 1262
c-270 -205 -491 -424 -667 -629c94 -2 213 -6 358 -15c111 234 229 480 309 644zM1875 1771c0 -76 -78 -168 -170 -168c-52 0 -76 35 -76 80c0 37 55 166 170 166c35 0 76 -18 76 -78zM1545 1773c0 -71 -70 -170 -154 -170c-39 0 -61 33 -61 84c0 55 43 168 143 168
c33 0 72 -24 72 -82z" />
    <glyph glyph-name="adieresis" unicode="&#xe4;" horiz-adv-x="834" 
d="M981 295c2 -13 6 -43 6 -70c0 -17 -1 -33 -6 -43c-27 -53 -180 -217 -314 -217c-104 0 -149 83 -149 167c0 33 7 66 20 95c-110 -143 -272 -258 -372 -258c-86 0 -146 66 -156 137c-3 17 -4 33 -4 50c0 297 376 612 598 612c77 0 120 -30 131 -63c33 51 49 55 90 55
c42 0 76 -16 76 -52c0 -15 -5 -33 -14 -42c-15 -16 -182 -289 -215 -469c-2 -7 -3 -17 -3 -28c0 -25 7 -55 32 -55c80 0 221 177 237 191c7 6 15 9 22 9c11 0 20 -8 21 -19zM692 649c-68 0 -199 -28 -354 -190c-88 -91 -174 -243 -174 -303c0 -16 6 -25 20 -25
c38 0 266 199 342 293c45 57 113 154 166 225zM1041 1091c0 -76 -78 -168 -170 -168c-52 0 -76 35 -76 80c0 37 55 166 170 166c35 0 76 -18 76 -78zM711 1093c0 -71 -70 -170 -154 -170c-39 0 -61 33 -61 84c0 55 43 168 143 168c33 0 72 -24 72 -82z" />
    <glyph glyph-name="Aring" unicode="&#xc5;" horiz-adv-x="1203" 
d="M1551 1366c-54 -164 -506 -1147 -560 -1247c-51 -94 -94 -172 -184 -172c-45 0 -55 -13 -70 -13c-25 0 -32 6 -32 15s6 20 10 31c4 8 104 219 227 479c-102 4 -264 10 -413 14c-138 -174 -240 -332 -310 -450c-22 -42 -38 -60 -70 -60c-35 0 -89 38 -89 88
c0 68 104 232 258 428c-56 0 -99 0 -121 -2c-33 -3 -57 -10 -74 -10c-18 0 -27 9 -27 43c0 61 72 117 197 117c18 0 61 4 152 6c268 315 622 658 868 782c18 9 30 14 41 13c18 0 29 -10 43 -25c34 66 31 69 49 69c11 0 107 -49 107 -92c0 -5 0 -9 -2 -14zM1327 1262
c-270 -205 -491 -424 -667 -629c94 -2 213 -6 358 -15c111 234 229 480 309 644zM1685 1990c69 0 117 -49 117 -122c0 -53 -37 -166 -175 -258c-46 -31 -86 -37 -135 -37c-90 0 -137 71 -137 131c0 125 76 215 227 268c0 14 74 18 103 18zM1589 1884c-18 1 -47 -17 -64 -29
c-27 -19 -57 -56 -57 -114c0 -35 38 -44 62 -44c86 0 149 78 149 130c0 28 -58 45 -90 57z" />
    <glyph glyph-name="aring" unicode="&#xe5;" horiz-adv-x="834" 
d="M981 295c2 -13 6 -43 6 -70c0 -17 -1 -33 -6 -43c-27 -53 -180 -217 -314 -217c-104 0 -149 83 -149 167c0 33 7 66 20 95c-110 -143 -272 -258 -372 -258c-86 0 -146 66 -156 137c-3 17 -4 33 -4 50c0 297 376 612 598 612c77 0 120 -30 131 -63c33 51 49 55 90 55
c42 0 76 -16 76 -52c0 -15 -5 -33 -14 -42c-15 -16 -182 -289 -215 -469c-2 -7 -3 -17 -3 -28c0 -25 7 -55 32 -55c80 0 221 177 237 191c7 6 15 9 22 9c11 0 20 -8 21 -19zM692 649c-68 0 -199 -28 -354 -190c-88 -91 -174 -243 -174 -303c0 -16 6 -25 20 -25
c38 0 266 199 342 293c45 57 113 154 166 225zM851 1310c69 0 117 -49 117 -122c0 -53 -37 -166 -175 -258c-46 -31 -86 -37 -135 -37c-90 0 -137 71 -137 131c0 125 76 215 227 268c0 14 74 18 103 18zM755 1204c-18 1 -47 -17 -64 -29c-27 -19 -57 -56 -57 -114
c0 -35 38 -44 62 -44c86 0 149 78 149 130c0 28 -58 45 -90 57z" />
    <glyph glyph-name="AEacute" unicode="&#x1fc;" horiz-adv-x="2062" 
d="M2270 1335c0 -78 -41 -91 -77 -102c-8 -3 -16 -5 -23 -8c-52 -22 -112 -33 -164 -33c-34 0 -73 11 -79 26c1 16 10 40 22 60c-268 -10 -544 -208 -544 -300c0 -56 145 -65 227 -65c53 0 65 4 83 12c50 24 136 34 188 34c59 0 90 -20 90 -53c0 -31 -34 -101 -45 -113
c-9 -8 -105 -37 -151 -41c-3 -1 -20 -3 -32 -5c-23 -4 -47 -8 -59 -3c-434 -216 -511 -429 -511 -509c0 -83 70 -99 137 -99c217 0 692 309 692 495c0 25 38 28 48 28c37 0 91 -19 91 -115c0 -180 -430 -572 -835 -572c-128 0 -271 62 -306 209c-14 -29 -25 -51 -31 -62
c-51 -94 -94 -172 -184 -172c-45 0 -55 -13 -70 -13c-25 0 -32 6 -32 15s6 20 10 31c4 8 104 219 227 479c-102 4 -264 10 -413 14c-138 -174 -240 -332 -310 -450c-22 -42 -38 -60 -70 -60c-35 0 -89 38 -89 88c0 68 104 232 258 428c-56 0 -99 0 -121 -2
c-33 -3 -57 -10 -74 -10c-18 0 -27 9 -27 43c0 61 72 117 197 117c18 0 61 4 152 6c268 315 622 658 868 782c18 9 30 14 41 13c18 0 29 -10 43 -25c34 66 31 69 49 69c11 0 107 -49 107 -92c0 -5 0 -9 -2 -14c-3 -10 -8 -23 -14 -38c156 79 342 128 483 128
c64 0 149 -13 167 -19c54 -27 83 -81 83 -102zM1327 1262c-270 -205 -491 -424 -667 -629c94 -2 213 -6 358 -15c111 234 229 480 309 644zM1313 812c-30 -67 -60 -133 -90 -198c71 63 149 114 211 150c-41 9 -85 23 -121 48zM1856 1831c84 69 129 86 143 125
c4 10 10 18 19 18c41 0 65 -65 65 -100c0 -64 -41 -109 -84 -137c-28 -27 -256 -164 -309 -164c-16 0 -23 16 -23 26c0 7 2 13 5 19c32 86 102 147 184 213z" />
    <glyph glyph-name="aeacute" unicode="&#x1fd;" horiz-adv-x="1127" 
d="M1227 748c0 -89 -86 -166 -175 -166c-32 0 -36 16 -36 45c0 10 2 18 4 26c-29 -10 -56 -24 -82 -39c-33 -18 -203 -137 -203 -174c0 -8 16 -8 20 -8c54 0 132 62 183 62c6 0 14 0 20 -2c17 -9 43 -50 43 -66c0 -17 -22 -34 -35 -45c-29 -24 -59 -36 -94 -43
c-144 -27 -230 -121 -230 -166c0 -70 99 -74 152 -74c146 0 285 138 377 207c6 4 15 10 23 10c26 0 26 -61 26 -79c0 -17 0 -37 -6 -54c-6 -16 -26 -35 -41 -47c-96 -78 -243 -174 -405 -174c-79 0 -165 22 -195 89c-28 -39 -63 -62 -100 -62c-42 0 -76 16 -76 52
c0 4 8 19 21 39c-79 -68 -158 -110 -252 -110c-100 0 -160 88 -160 187c0 297 376 612 598 612c77 0 120 -30 131 -63c33 51 49 55 90 55c36 0 80 -8 59 -55c88 76 180 104 242 104c35 0 101 -18 101 -61zM692 649c-68 0 -199 -28 -354 -190c-88 -91 -174 -243 -174 -303
c0 -16 6 -25 20 -25c38 0 164 31 352 293c42 59 103 154 156 225zM962 1137c84 69 129 86 143 125c4 10 10 18 19 18c41 0 65 -65 65 -100c0 -64 -41 -109 -84 -137c-28 -27 -256 -164 -309 -164c-16 0 -23 16 -23 26c0 7 2 13 5 19c32 86 102 147 184 213z" />
    <glyph glyph-name="Amacron" unicode="&#x100;" horiz-adv-x="1203" 
d="M1551 1366c-54 -164 -506 -1147 -560 -1247c-51 -94 -94 -172 -184 -172c-45 0 -55 -13 -70 -13c-25 0 -32 6 -32 15s6 20 10 31c4 8 104 219 227 479c-102 4 -264 10 -413 14c-138 -174 -240 -332 -310 -450c-22 -42 -38 -60 -70 -60c-35 0 -89 38 -89 88
c0 68 104 232 258 428c-56 0 -99 0 -121 -2c-33 -3 -57 -10 -74 -10c-18 0 -27 9 -27 43c0 61 72 117 197 117c18 0 61 4 152 6c268 315 622 658 868 782c18 9 30 14 41 13c18 0 29 -10 43 -25c34 66 31 69 49 69c11 0 107 -49 107 -92c0 -5 0 -9 -2 -14zM1327 1262
c-270 -205 -491 -424 -667 -629c94 -2 213 -6 358 -15c111 234 229 480 309 644zM1632 1657c-113 0 -164 -2 -260 -8c-6 0 -8 -2 -15 -2c-14 0 -18 18 -18 40c0 116 39 136 72 136c98 0 114 -10 213 -10c75 0 121 8 196 26c4 2 11 2 17 2c18 0 22 -35 22 -53
c0 -135 -146 -131 -227 -131z" />
    <glyph glyph-name="amacron" unicode="&#x101;" horiz-adv-x="834" 
d="M981 295c2 -13 6 -43 6 -70c0 -17 -1 -33 -6 -43c-27 -53 -180 -217 -314 -217c-104 0 -149 83 -149 167c0 33 7 66 20 95c-110 -143 -272 -258 -372 -258c-86 0 -146 66 -156 137c-3 17 -4 33 -4 50c0 297 376 612 598 612c77 0 120 -30 131 -63c33 51 49 55 90 55
c42 0 76 -16 76 -52c0 -15 -5 -33 -14 -42c-15 -16 -182 -289 -215 -469c-2 -7 -3 -17 -3 -28c0 -25 7 -55 32 -55c80 0 221 177 237 191c7 6 15 9 22 9c11 0 20 -8 21 -19zM692 649c-68 0 -199 -28 -354 -190c-88 -91 -174 -243 -174 -303c0 -16 6 -25 20 -25
c38 0 266 199 342 293c45 57 113 154 166 225zM798 977c-113 0 -164 -2 -260 -8c-6 0 -8 -2 -15 -2c-14 0 -18 18 -18 40c0 116 39 136 72 136c98 0 114 -10 213 -10c75 0 121 8 196 26c4 2 11 2 17 2c18 0 22 -35 22 -53c0 -135 -146 -131 -227 -131z" />
    <glyph glyph-name="Abreve" unicode="&#x102;" horiz-adv-x="1203" 
d="M1551 1366c-54 -164 -506 -1147 -560 -1247c-51 -94 -94 -172 -184 -172c-45 0 -55 -13 -70 -13c-25 0 -32 6 -32 15s6 20 10 31c4 8 104 219 227 479c-102 4 -264 10 -413 14c-138 -174 -240 -332 -310 -450c-22 -42 -38 -60 -70 -60c-35 0 -89 38 -89 88
c0 68 104 232 258 428c-56 0 -99 0 -121 -2c-33 -3 -57 -10 -74 -10c-18 0 -27 9 -27 43c0 61 72 117 197 117c18 0 61 4 152 6c268 315 622 658 868 782c18 9 30 14 41 13c18 0 29 -10 43 -25c34 66 31 69 49 69c11 0 107 -49 107 -92c0 -5 0 -9 -2 -14zM1327 1262
c-270 -205 -491 -424 -667 -629c94 -2 213 -6 358 -15c111 234 229 480 309 644zM1284 1937c63 -1 77 -80 111 -137c17 -29 56 -45 90 -45c162 0 221 188 318 188c16 0 53 -43 53 -64c0 -38 -172 -286 -352 -286c-154 0 -261 141 -261 293c0 22 19 51 41 51z" />
    <glyph glyph-name="abreve" unicode="&#x103;" horiz-adv-x="834" 
d="M981 295c2 -13 6 -43 6 -70c0 -17 -1 -33 -6 -43c-27 -53 -180 -217 -314 -217c-104 0 -149 83 -149 167c0 33 7 66 20 95c-110 -143 -272 -258 -372 -258c-86 0 -146 66 -156 137c-3 17 -4 33 -4 50c0 297 376 612 598 612c77 0 120 -30 131 -63c33 51 49 55 90 55
c42 0 76 -16 76 -52c0 -15 -5 -33 -14 -42c-15 -16 -182 -289 -215 -469c-2 -7 -3 -17 -3 -28c0 -25 7 -55 32 -55c80 0 221 177 237 191c7 6 15 9 22 9c11 0 20 -8 21 -19zM692 649c-68 0 -199 -28 -354 -190c-88 -91 -174 -243 -174 -303c0 -16 6 -25 20 -25
c38 0 266 199 342 293c45 57 113 154 166 225zM450 1257c63 -1 77 -80 111 -137c17 -29 56 -45 90 -45c162 0 221 188 318 188c16 0 53 -43 53 -64c0 -38 -172 -286 -352 -286c-154 0 -261 141 -261 293c0 22 19 51 41 51z" />
    <glyph glyph-name="Cacute" unicode="&#x106;" horiz-adv-x="1164" 
d="M1524 1276c0 -186 -344 -485 -477 -485c-70 0 -119 55 -119 92c0 14 12 75 37 75c-3 -4 -4 -7 -4 -10c0 -9 14 -12 30 -12c82 0 332 233 332 312c0 16 -11 26 -35 26c-122 0 -374 -128 -565 -303c-205 -188 -385 -468 -385 -678c0 -78 39 -139 135 -139
c252 0 672 385 676 421c1 6 4 8 9 8c13 0 24 -15 24 -39c0 -33 -7 -77 -17 -132c-15 -76 -315 -416 -719 -416c-129 0 -282 131 -282 313c0 496 649 1125 1157 1125c72 0 203 -52 203 -158zM1490 1791c84 69 129 86 143 125c4 10 10 18 19 18c41 0 65 -65 65 -100
c0 -64 -41 -109 -84 -137c-28 -27 -256 -164 -309 -164c-16 0 -23 16 -23 26c0 7 2 13 5 19c32 86 102 147 184 213z" />
    <glyph glyph-name="cacute" unicode="&#x107;" horiz-adv-x="747" 
d="M866 295c1 -6 1 -11 1 -16c0 -198 -420 -316 -530 -316c-161 0 -292 96 -292 248c0 301 317 602 624 602c66 0 140 -41 140 -113c0 -69 -84 -208 -162 -208c-41 0 -64 20 -64 61c0 33 60 80 60 117c0 8 -4 10 -11 10c-43 0 -92 -23 -127 -45
c-137 -78 -303 -234 -303 -402c0 -55 29 -120 135 -120c289 0 467 176 486 192c7 6 14 9 20 9c11 0 20 -8 23 -19zM834 1190c84 69 129 86 143 125c4 10 10 18 19 18c41 0 65 -65 65 -100c0 -64 -41 -109 -84 -137c-28 -27 -256 -164 -309 -164c-16 0 -23 16 -23 26
c0 7 2 13 5 19c32 86 102 147 184 213z" />
    <glyph glyph-name="Ccircumflex" unicode="&#x108;" horiz-adv-x="1164" 
d="M1524 1276c0 -186 -344 -485 -477 -485c-70 0 -119 55 -119 92c0 14 12 75 37 75c-3 -4 -4 -7 -4 -10c0 -9 14 -12 30 -12c82 0 332 233 332 312c0 16 -11 26 -35 26c-122 0 -374 -128 -565 -303c-205 -188 -385 -468 -385 -678c0 -78 39 -139 135 -139
c252 0 672 385 676 421c1 6 4 8 9 8c13 0 24 -15 24 -39c0 -33 -7 -77 -17 -132c-15 -76 -315 -416 -719 -416c-129 0 -282 131 -282 313c0 496 649 1125 1157 1125c72 0 203 -52 203 -158zM1628 1533c-125 0 -145 142 -176 242c-63 -63 -262 -227 -334 -227
c-16 0 -22 16 -22 26c0 64 102 134 186 205c70 60 103 90 146 139c7 13 30 21 55 21c122 0 112 -171 127 -209c16 -41 51 -119 51 -168c0 -22 -10 -29 -33 -29z" />
    <glyph glyph-name="ccircumflex" unicode="&#x109;" horiz-adv-x="747" 
d="M866 295c1 -6 1 -11 1 -16c0 -198 -420 -316 -530 -316c-161 0 -292 96 -292 248c0 301 317 602 624 602c66 0 140 -41 140 -113c0 -69 -84 -208 -162 -208c-41 0 -64 20 -64 61c0 33 60 80 60 117c0 8 -4 10 -11 10c-43 0 -92 -23 -127 -45
c-137 -78 -303 -234 -303 -402c0 -55 29 -120 135 -120c289 0 467 176 486 192c7 6 14 9 20 9c11 0 20 -8 23 -19zM972 932c-125 0 -145 142 -176 242c-63 -63 -262 -227 -334 -227c-16 0 -22 16 -22 26c0 64 102 134 186 205c70 60 103 90 146 139c7 13 30 21 55 21
c122 0 112 -171 127 -209c16 -41 51 -119 51 -168c0 -22 -10 -29 -33 -29z" />
    <glyph glyph-name="Cdotaccent" unicode="&#x10a;" horiz-adv-x="1164" 
d="M1524 1276c0 -186 -344 -485 -477 -485c-70 0 -119 55 -119 92c0 14 12 75 37 75c-3 -4 -4 -7 -4 -10c0 -9 14 -12 30 -12c82 0 332 233 332 312c0 16 -11 26 -35 26c-122 0 -374 -128 -565 -303c-205 -188 -385 -468 -385 -678c0 -78 39 -139 135 -139
c252 0 672 385 676 421c1 6 4 8 9 8c13 0 24 -15 24 -39c0 -33 -7 -77 -17 -132c-15 -76 -315 -416 -719 -416c-129 0 -282 131 -282 313c0 496 649 1125 1157 1125c72 0 203 -52 203 -158zM1425 1831c43 0 84 -37 84 -94c0 -84 -61 -184 -178 -184c-53 0 -88 43 -88 94
c0 74 59 184 182 184z" />
    <glyph glyph-name="cdotaccent" unicode="&#x10b;" horiz-adv-x="747" 
d="M866 295c1 -6 1 -11 1 -16c0 -198 -420 -316 -530 -316c-161 0 -292 96 -292 248c0 301 317 602 624 602c66 0 140 -41 140 -113c0 -69 -84 -208 -162 -208c-41 0 -64 20 -64 61c0 33 60 80 60 117c0 8 -4 10 -11 10c-43 0 -92 -23 -127 -45
c-137 -78 -303 -234 -303 -402c0 -55 29 -120 135 -120c289 0 467 176 486 192c7 6 14 9 20 9c11 0 20 -8 23 -19zM809 1230c43 0 84 -37 84 -94c0 -84 -61 -184 -178 -184c-53 0 -88 43 -88 94c0 74 59 184 182 184z" />
    <glyph glyph-name="Ccaron" unicode="&#x10c;" horiz-adv-x="1164" 
d="M1524 1276c0 -186 -344 -485 -477 -485c-70 0 -119 55 -119 92c0 14 12 75 37 75c-3 -4 -4 -7 -4 -10c0 -9 14 -12 30 -12c82 0 332 233 332 312c0 16 -11 26 -35 26c-122 0 -374 -128 -565 -303c-205 -188 -385 -468 -385 -678c0 -78 39 -139 135 -139
c252 0 672 385 676 421c1 6 4 8 9 8c13 0 24 -15 24 -39c0 -33 -7 -77 -17 -132c-15 -76 -315 -416 -719 -416c-129 0 -282 131 -282 313c0 496 649 1125 1157 1125c72 0 203 -52 203 -158zM1216 1938c96 0 125 -141 155 -241c64 63 238 227 310 227c16 0 53 -43 53 -64
c0 -38 -88 -96 -172 -167c-85 -72 -139 -160 -201 -160c-72 0 -90 51 -90 49c0 8 4 14 4 24c0 5 0 9 -2 15c-16 41 -90 239 -90 289c0 22 10 28 33 28z" />
    <glyph glyph-name="ccaron" unicode="&#x10d;" horiz-adv-x="747" 
d="M866 295c1 -6 1 -11 1 -16c0 -198 -420 -316 -530 -316c-161 0 -292 96 -292 248c0 301 317 602 624 602c66 0 140 -41 140 -113c0 -69 -84 -208 -162 -208c-41 0 -64 20 -64 61c0 33 60 80 60 117c0 8 -4 10 -11 10c-43 0 -92 -23 -127 -45
c-137 -78 -303 -234 -303 -402c0 -55 29 -120 135 -120c289 0 467 176 486 192c7 6 14 9 20 9c11 0 20 -8 23 -19zM560 1337c96 0 125 -141 155 -241c64 63 238 227 310 227c16 0 53 -43 53 -64c0 -38 -88 -96 -172 -167c-85 -72 -139 -160 -201 -160c-72 0 -90 51 -90 49
c0 8 4 14 4 24c0 5 0 9 -2 15c-16 41 -90 239 -90 289c0 22 10 28 33 28z" />
    <glyph glyph-name="Dcaron" unicode="&#x10e;" horiz-adv-x="1607" 
d="M1801 979c0 -518 -716 -979 -1267 -979c-203 0 -180 39 -215 63c-14 9 -19 33 -19 58c0 26 5 53 8 65c46 166 555 885 670 1041c6 8 31 16 113 22c55 0 74 -6 74 -29c0 -11 -7 -24 -23 -46c-110 -153 -645 -978 -645 -993c0 -9 15 -13 57 -13c496 0 1051 485 1051 764
c0 188 -174 348 -488 348c-232 0 -429 -105 -489 -152c-27 -21 -38 -35 -38 -44c0 -5 5 -8 12 -8c19 0 35 8 43 8c6 0 9 -2 9 -4c0 -3 -6 -8 -18 -15c-29 -16 -26 -25 -45 -37c-66 -40 -94 -47 -110 -48c-10 0 -15 3 -21 3h-4c-24 0 -78 19 -78 82c0 160 305 369 741 369
c439 0 682 -193 682 -455zM1145 1937c96 0 125 -141 155 -241c64 63 238 227 310 227c16 0 53 -43 53 -64c0 -38 -88 -96 -172 -167c-85 -72 -139 -160 -201 -160c-72 0 -90 51 -90 49c0 8 4 14 4 24c0 5 0 9 -2 15c-16 41 -90 239 -90 289c0 22 10 28 33 28z" />
    <glyph glyph-name="dcaron" unicode="&#x10f;" horiz-adv-x="1077" 
d="M1359 1456c0 -10 -5 -16 -9 -24c-137 -222 -277 -443 -407 -668c-56 -96 -287 -520 -287 -602v-8c0 -21 7 -41 30 -41c86 0 224 172 247 192c7 6 15 9 22 9c24 0 27 -35 27 -89c0 -17 -1 -33 -6 -43c-27 -53 -181 -217 -314 -217c-114 0 -150 55 -150 127
c0 65 31 145 60 207c-92 -119 -274 -315 -436 -315c-92 0 -125 77 -125 157c0 281 393 654 670 654c28 0 55 -21 75 -39c39 61 71 123 107 184c73 123 147 244 225 363c31 47 62 98 99 141c28 37 83 55 131 55c26 0 41 -18 41 -43zM695 662c-199 -44 -371 -197 -469 -373
c-18 -33 -47 -92 -47 -129c0 -10 2 -23 14 -23c66 0 321 293 365 346c48 58 94 117 137 179zM1589 1269c-47 -64 -153 -152 -217 -152c-32 0 -30 17 -47 25c-7 2 -11 11 -11 20c0 8 3 16 9 21c8 6 70 92 78 113c-11 10 -16 24 -16 40c0 52 56 122 130 122
c77 0 102 -52 102 -98c0 -35 -12 -70 -28 -91z" />
    <glyph glyph-name="Egrave" unicode="&#xc8;" horiz-adv-x="1232" 
d="M1442 1335c0 -78 -41 -91 -77 -102c-8 -3 -16 -5 -23 -8c-52 -22 -112 -33 -164 -33c-34 0 -73 11 -79 26c1 16 10 40 22 60c-268 -10 -544 -208 -544 -300c0 -56 145 -65 227 -65c53 0 65 4 83 12c50 24 136 34 188 34c59 0 90 -20 90 -53c0 -31 -34 -101 -45 -113
c-9 -8 -105 -37 -151 -41c-3 -1 -20 -3 -32 -5c-23 -4 -47 -8 -59 -3c-434 -216 -511 -429 -511 -509c0 -83 70 -99 137 -99c217 0 692 309 692 495c0 25 38 28 48 28c37 0 91 -19 91 -115c0 -180 -430 -572 -835 -572c-147 0 -314 82 -314 281c0 221 260 420 420 511
c-97 22 -206 74 -206 212c0 266 497 480 792 480c64 0 149 -13 167 -19c54 -27 83 -81 83 -102zM963 1667c-65 131 -125 176 -125 213c0 24 76 73 140 73c48 0 46 -45 86 -180c13 -43 53 -148 53 -197c0 -22 -10 -28 -33 -28c-86 0 -104 84 -121 119z" />
    <glyph glyph-name="egrave" unicode="&#xe8;" horiz-adv-x="650" 
d="M750 748c0 -89 -86 -166 -175 -166c-32 0 -36 16 -36 45c0 10 2 18 4 26c-29 -10 -56 -24 -82 -39c-33 -18 -170 -108 -170 -145c0 -8 16 -8 20 -8c54 0 99 33 150 33c6 0 14 0 20 -2c17 -9 43 -50 43 -66c0 -17 -22 -34 -35 -45c-29 -24 -63 -26 -94 -43
c-41 -23 -211 -117 -211 -162c0 -70 80 -78 133 -78c146 0 285 138 377 207c6 4 15 10 23 10c26 0 26 -61 26 -79c0 -17 0 -37 -6 -54c-6 -16 -26 -35 -41 -47c-96 -78 -243 -174 -405 -174c-119 0 -275 37 -275 184c0 111 97 174 191 209c-55 25 -60 64 -60 117
c0 197 332 338 502 338c35 0 101 -18 101 -61zM503 1049c-65 131 -125 176 -125 213c0 24 76 73 140 73c48 0 46 -45 86 -180c13 -43 53 -148 53 -197c0 -22 -10 -28 -33 -28c-86 0 -104 84 -121 119z" />
    <glyph glyph-name="Eacute" unicode="&#xc9;" horiz-adv-x="1232" 
d="M1442 1335c0 -78 -41 -91 -77 -102c-8 -3 -16 -5 -23 -8c-52 -22 -112 -33 -164 -33c-34 0 -73 11 -79 26c1 16 10 40 22 60c-268 -10 -544 -208 -544 -300c0 -56 145 -65 227 -65c53 0 65 4 83 12c50 24 136 34 188 34c59 0 90 -20 90 -53c0 -31 -34 -101 -45 -113
c-9 -8 -105 -37 -151 -41c-3 -1 -20 -3 -32 -5c-23 -4 -47 -8 -59 -3c-434 -216 -511 -429 -511 -509c0 -83 70 -99 137 -99c217 0 692 309 692 495c0 25 38 28 48 28c37 0 91 -19 91 -115c0 -180 -430 -572 -835 -572c-147 0 -314 82 -314 281c0 221 260 420 420 511
c-97 22 -206 74 -206 212c0 266 497 480 792 480c64 0 149 -13 167 -19c54 -27 83 -81 83 -102zM1250 1806c84 69 129 86 143 125c4 10 10 18 19 18c41 0 65 -65 65 -100c0 -64 -41 -109 -84 -137c-28 -27 -256 -164 -309 -164c-16 0 -23 16 -23 26c0 7 2 13 5 19
c32 86 102 147 184 213z" />
    <glyph glyph-name="eacute" unicode="&#xe9;" horiz-adv-x="650" 
d="M750 748c0 -89 -86 -166 -175 -166c-32 0 -36 16 -36 45c0 10 2 18 4 26c-29 -10 -56 -24 -82 -39c-33 -18 -170 -108 -170 -145c0 -8 16 -8 20 -8c54 0 99 33 150 33c6 0 14 0 20 -2c17 -9 43 -50 43 -66c0 -17 -22 -34 -35 -45c-29 -24 -63 -26 -94 -43
c-41 -23 -211 -117 -211 -162c0 -70 80 -78 133 -78c146 0 285 138 377 207c6 4 15 10 23 10c26 0 26 -61 26 -79c0 -17 0 -37 -6 -54c-6 -16 -26 -35 -41 -47c-96 -78 -243 -174 -405 -174c-119 0 -275 37 -275 184c0 111 97 174 191 209c-55 25 -60 64 -60 117
c0 197 332 338 502 338c35 0 101 -18 101 -61zM790 1188c84 69 129 86 143 125c4 10 10 18 19 18c41 0 65 -65 65 -100c0 -64 -41 -109 -84 -137c-28 -27 -256 -164 -309 -164c-16 0 -23 16 -23 26c0 7 2 13 5 19c32 86 102 147 184 213z" />
    <glyph glyph-name="Ecircumflex" unicode="&#xca;" horiz-adv-x="1232" 
d="M1442 1335c0 -78 -41 -91 -77 -102c-8 -3 -16 -5 -23 -8c-52 -22 -112 -33 -164 -33c-34 0 -73 11 -79 26c1 16 10 40 22 60c-268 -10 -544 -208 -544 -300c0 -56 145 -65 227 -65c53 0 65 4 83 12c50 24 136 34 188 34c59 0 90 -20 90 -53c0 -31 -34 -101 -45 -113
c-9 -8 -105 -37 -151 -41c-3 -1 -20 -3 -32 -5c-23 -4 -47 -8 -59 -3c-434 -216 -511 -429 -511 -509c0 -83 70 -99 137 -99c217 0 692 309 692 495c0 25 38 28 48 28c37 0 91 -19 91 -115c0 -180 -430 -572 -835 -572c-147 0 -314 82 -314 281c0 221 260 420 420 511
c-97 22 -206 74 -206 212c0 266 497 480 792 480c64 0 149 -13 167 -19c54 -27 83 -81 83 -102zM1388 1548c-125 0 -145 142 -176 242c-63 -63 -262 -227 -334 -227c-16 0 -22 16 -22 26c0 64 102 134 186 205c70 60 103 90 146 139c7 13 30 21 55 21
c122 0 112 -171 127 -209c16 -41 51 -119 51 -168c0 -22 -10 -29 -33 -29z" />
    <glyph glyph-name="ecircumflex" unicode="&#xea;" horiz-adv-x="650" 
d="M750 748c0 -89 -86 -166 -175 -166c-32 0 -36 16 -36 45c0 10 2 18 4 26c-29 -10 -56 -24 -82 -39c-33 -18 -170 -108 -170 -145c0 -8 16 -8 20 -8c54 0 99 33 150 33c6 0 14 0 20 -2c17 -9 43 -50 43 -66c0 -17 -22 -34 -35 -45c-29 -24 -63 -26 -94 -43
c-41 -23 -211 -117 -211 -162c0 -70 80 -78 133 -78c146 0 285 138 377 207c6 4 15 10 23 10c26 0 26 -61 26 -79c0 -17 0 -37 -6 -54c-6 -16 -26 -35 -41 -47c-96 -78 -243 -174 -405 -174c-119 0 -275 37 -275 184c0 111 97 174 191 209c-55 25 -60 64 -60 117
c0 197 332 338 502 338c35 0 101 -18 101 -61zM928 930c-125 0 -145 142 -176 242c-63 -63 -262 -227 -334 -227c-16 0 -22 16 -22 26c0 64 102 134 186 205c70 60 103 90 146 139c7 13 30 21 55 21c122 0 112 -171 127 -209c16 -41 51 -119 51 -168c0 -22 -10 -29 -33 -29z
" />
    <glyph glyph-name="Edieresis" unicode="&#xcb;" horiz-adv-x="1232" 
d="M1442 1335c0 -78 -41 -91 -77 -102c-8 -3 -16 -5 -23 -8c-52 -22 -112 -33 -164 -33c-34 0 -73 11 -79 26c1 16 10 40 22 60c-268 -10 -544 -208 -544 -300c0 -56 145 -65 227 -65c53 0 65 4 83 12c50 24 136 34 188 34c59 0 90 -20 90 -53c0 -31 -34 -101 -45 -113
c-9 -8 -105 -37 -151 -41c-3 -1 -20 -3 -32 -5c-23 -4 -47 -8 -59 -3c-434 -216 -511 -429 -511 -509c0 -83 70 -99 137 -99c217 0 692 309 692 495c0 25 38 28 48 28c37 0 91 -19 91 -115c0 -180 -430 -572 -835 -572c-147 0 -314 82 -314 281c0 221 260 420 420 511
c-97 22 -206 74 -206 212c0 266 497 480 792 480c64 0 149 -13 167 -19c54 -27 83 -81 83 -102zM1468 1746c0 -76 -78 -168 -170 -168c-52 0 -76 35 -76 80c0 37 55 166 170 166c35 0 76 -18 76 -78zM1138 1748c0 -71 -70 -170 -154 -170c-39 0 -61 33 -61 84
c0 55 43 168 143 168c33 0 72 -24 72 -82z" />
    <glyph glyph-name="edieresis" unicode="&#xeb;" horiz-adv-x="650" 
d="M750 748c0 -89 -86 -166 -175 -166c-32 0 -36 16 -36 45c0 10 2 18 4 26c-29 -10 -56 -24 -82 -39c-33 -18 -170 -108 -170 -145c0 -8 16 -8 20 -8c54 0 99 33 150 33c6 0 14 0 20 -2c17 -9 43 -50 43 -66c0 -17 -22 -34 -35 -45c-29 -24 -63 -26 -94 -43
c-41 -23 -211 -117 -211 -162c0 -70 80 -78 133 -78c146 0 285 138 377 207c6 4 15 10 23 10c26 0 26 -61 26 -79c0 -17 0 -37 -6 -54c-6 -16 -26 -35 -41 -47c-96 -78 -243 -174 -405 -174c-119 0 -275 37 -275 184c0 111 97 174 191 209c-55 25 -60 64 -60 117
c0 197 332 338 502 338c35 0 101 -18 101 -61zM1008 1128c0 -76 -78 -168 -170 -168c-52 0 -76 35 -76 80c0 37 55 166 170 166c35 0 76 -18 76 -78zM678 1130c0 -71 -70 -170 -154 -170c-39 0 -61 33 -61 84c0 55 43 168 143 168c33 0 72 -24 72 -82z" />
    <glyph glyph-name="Emacron" unicode="&#x112;" horiz-adv-x="1232" 
d="M1442 1335c0 -78 -41 -91 -77 -102c-8 -3 -16 -5 -23 -8c-52 -22 -112 -33 -164 -33c-34 0 -73 11 -79 26c1 16 10 40 22 60c-268 -10 -544 -208 -544 -300c0 -56 145 -65 227 -65c53 0 65 4 83 12c50 24 136 34 188 34c59 0 90 -20 90 -53c0 -31 -34 -101 -45 -113
c-9 -8 -105 -37 -151 -41c-3 -1 -20 -3 -32 -5c-23 -4 -47 -8 -59 -3c-434 -216 -511 -429 -511 -509c0 -83 70 -99 137 -99c217 0 692 309 692 495c0 25 38 28 48 28c37 0 91 -19 91 -115c0 -180 -430 -572 -835 -572c-147 0 -314 82 -314 281c0 221 260 420 420 511
c-97 22 -206 74 -206 212c0 266 497 480 792 480c64 0 149 -13 167 -19c54 -27 83 -81 83 -102zM1225 1632c-113 0 -164 -2 -260 -8c-6 0 -8 -2 -15 -2c-14 0 -18 18 -18 40c0 116 39 136 72 136c98 0 114 -10 213 -10c75 0 121 8 196 26c4 2 11 2 17 2c18 0 22 -35 22 -53
c0 -135 -146 -131 -227 -131z" />
    <glyph glyph-name="emacron" unicode="&#x113;" horiz-adv-x="650" 
d="M750 748c0 -89 -86 -166 -175 -166c-32 0 -36 16 -36 45c0 10 2 18 4 26c-29 -10 -56 -24 -82 -39c-33 -18 -170 -108 -170 -145c0 -8 16 -8 20 -8c54 0 99 33 150 33c6 0 14 0 20 -2c17 -9 43 -50 43 -66c0 -17 -22 -34 -35 -45c-29 -24 -63 -26 -94 -43
c-41 -23 -211 -117 -211 -162c0 -70 80 -78 133 -78c146 0 285 138 377 207c6 4 15 10 23 10c26 0 26 -61 26 -79c0 -17 0 -37 -6 -54c-6 -16 -26 -35 -41 -47c-96 -78 -243 -174 -405 -174c-119 0 -275 37 -275 184c0 111 97 174 191 209c-55 25 -60 64 -60 117
c0 197 332 338 502 338c35 0 101 -18 101 -61zM765 1014c-113 0 -164 -2 -260 -8c-6 0 -8 -2 -15 -2c-14 0 -18 18 -18 40c0 116 39 136 72 136c98 0 114 -10 213 -10c75 0 121 8 196 26c4 2 11 2 17 2c18 0 22 -35 22 -53c0 -135 -146 -131 -227 -131z" />
    <glyph glyph-name="Ebreve" unicode="&#x114;" horiz-adv-x="1232" 
d="M1442 1335c0 -78 -41 -91 -77 -102c-8 -3 -16 -5 -23 -8c-52 -22 -112 -33 -164 -33c-34 0 -73 11 -79 26c1 16 10 40 22 60c-268 -10 -544 -208 -544 -300c0 -56 145 -65 227 -65c53 0 65 4 83 12c50 24 136 34 188 34c59 0 90 -20 90 -53c0 -31 -34 -101 -45 -113
c-9 -8 -105 -37 -151 -41c-3 -1 -20 -3 -32 -5c-23 -4 -47 -8 -59 -3c-434 -216 -511 -429 -511 -509c0 -83 70 -99 137 -99c217 0 692 309 692 495c0 25 38 28 48 28c37 0 91 -19 91 -115c0 -180 -430 -572 -835 -572c-147 0 -314 82 -314 281c0 221 260 420 420 511
c-97 22 -206 74 -206 212c0 266 497 480 792 480c64 0 149 -13 167 -19c54 -27 83 -81 83 -102zM877 1912c63 -1 77 -80 111 -137c17 -29 56 -45 90 -45c162 0 221 188 318 188c16 0 53 -43 53 -64c0 -38 -172 -286 -352 -286c-154 0 -261 141 -261 293c0 22 19 51 41 51z
" />
    <glyph glyph-name="ebreve" unicode="&#x115;" horiz-adv-x="650" 
d="M750 748c0 -89 -86 -166 -175 -166c-32 0 -36 16 -36 45c0 10 2 18 4 26c-29 -10 -56 -24 -82 -39c-33 -18 -170 -108 -170 -145c0 -8 16 -8 20 -8c54 0 99 33 150 33c6 0 14 0 20 -2c17 -9 43 -50 43 -66c0 -17 -22 -34 -35 -45c-29 -24 -63 -26 -94 -43
c-41 -23 -211 -117 -211 -162c0 -70 80 -78 133 -78c146 0 285 138 377 207c6 4 15 10 23 10c26 0 26 -61 26 -79c0 -17 0 -37 -6 -54c-6 -16 -26 -35 -41 -47c-96 -78 -243 -174 -405 -174c-119 0 -275 37 -275 184c0 111 97 174 191 209c-55 25 -60 64 -60 117
c0 197 332 338 502 338c35 0 101 -18 101 -61zM417 1294c63 -1 77 -80 111 -137c17 -29 56 -45 90 -45c162 0 221 188 318 188c16 0 53 -43 53 -64c0 -38 -172 -286 -352 -286c-154 0 -261 141 -261 293c0 22 19 51 41 51z" />
    <glyph glyph-name="Edotaccent" unicode="&#x116;" horiz-adv-x="1232" 
d="M1442 1335c0 -78 -41 -91 -77 -102c-8 -3 -16 -5 -23 -8c-52 -22 -112 -33 -164 -33c-34 0 -73 11 -79 26c1 16 10 40 22 60c-268 -10 -544 -208 -544 -300c0 -56 145 -65 227 -65c53 0 65 4 83 12c50 24 136 34 188 34c59 0 90 -20 90 -53c0 -31 -34 -101 -45 -113
c-9 -8 -105 -37 -151 -41c-3 -1 -20 -3 -32 -5c-23 -4 -47 -8 -59 -3c-434 -216 -511 -429 -511 -509c0 -83 70 -99 137 -99c217 0 692 309 692 495c0 25 38 28 48 28c37 0 91 -19 91 -115c0 -180 -430 -572 -835 -572c-147 0 -314 82 -314 281c0 221 260 420 420 511
c-97 22 -206 74 -206 212c0 266 497 480 792 480c64 0 149 -13 167 -19c54 -27 83 -81 83 -102zM1185 1846c43 0 84 -37 84 -94c0 -84 -61 -184 -178 -184c-53 0 -88 43 -88 94c0 74 59 184 182 184z" />
    <glyph glyph-name="edotaccent" unicode="&#x117;" horiz-adv-x="650" 
d="M750 748c0 -89 -86 -166 -175 -166c-32 0 -36 16 -36 45c0 10 2 18 4 26c-29 -10 -56 -24 -82 -39c-33 -18 -170 -108 -170 -145c0 -8 16 -8 20 -8c54 0 99 33 150 33c6 0 14 0 20 -2c17 -9 43 -50 43 -66c0 -17 -22 -34 -35 -45c-29 -24 -63 -26 -94 -43
c-41 -23 -211 -117 -211 -162c0 -70 80 -78 133 -78c146 0 285 138 377 207c6 4 15 10 23 10c26 0 26 -61 26 -79c0 -17 0 -37 -6 -54c-6 -16 -26 -35 -41 -47c-96 -78 -243 -174 -405 -174c-119 0 -275 37 -275 184c0 111 97 174 191 209c-55 25 -60 64 -60 117
c0 197 332 338 502 338c35 0 101 -18 101 -61zM725 1228c43 0 84 -37 84 -94c0 -84 -61 -184 -178 -184c-53 0 -88 43 -88 94c0 74 59 184 182 184z" />
    <glyph glyph-name="Ecaron" unicode="&#x11a;" horiz-adv-x="1232" 
d="M1442 1335c0 -78 -41 -91 -77 -102c-8 -3 -16 -5 -23 -8c-52 -22 -112 -33 -164 -33c-34 0 -73 11 -79 26c1 16 10 40 22 60c-268 -10 -544 -208 -544 -300c0 -56 145 -65 227 -65c53 0 65 4 83 12c50 24 136 34 188 34c59 0 90 -20 90 -53c0 -31 -34 -101 -45 -113
c-9 -8 -105 -37 -151 -41c-3 -1 -20 -3 -32 -5c-23 -4 -47 -8 -59 -3c-434 -216 -511 -429 -511 -509c0 -83 70 -99 137 -99c217 0 692 309 692 495c0 25 38 28 48 28c37 0 91 -19 91 -115c0 -180 -430 -572 -835 -572c-147 0 -314 82 -314 281c0 221 260 420 420 511
c-97 22 -206 74 -206 212c0 266 497 480 792 480c64 0 149 -13 167 -19c54 -27 83 -81 83 -102zM976 1953c96 0 125 -141 155 -241c64 63 238 227 310 227c16 0 53 -43 53 -64c0 -38 -88 -96 -172 -167c-85 -72 -139 -160 -201 -160c-72 0 -90 51 -90 49c0 8 4 14 4 24
c0 5 0 9 -2 15c-16 41 -90 239 -90 289c0 22 10 28 33 28z" />
    <glyph glyph-name="ecaron" unicode="&#x11b;" horiz-adv-x="650" 
d="M750 748c0 -89 -86 -166 -175 -166c-32 0 -36 16 -36 45c0 10 2 18 4 26c-29 -10 -56 -24 -82 -39c-33 -18 -170 -108 -170 -145c0 -8 16 -8 20 -8c54 0 99 33 150 33c6 0 14 0 20 -2c17 -9 43 -50 43 -66c0 -17 -22 -34 -35 -45c-29 -24 -63 -26 -94 -43
c-41 -23 -211 -117 -211 -162c0 -70 80 -78 133 -78c146 0 285 138 377 207c6 4 15 10 23 10c26 0 26 -61 26 -79c0 -17 0 -37 -6 -54c-6 -16 -26 -35 -41 -47c-96 -78 -243 -174 -405 -174c-119 0 -275 37 -275 184c0 111 97 174 191 209c-55 25 -60 64 -60 117
c0 197 332 338 502 338c35 0 101 -18 101 -61zM516 1335c96 0 125 -141 155 -241c64 63 238 227 310 227c16 0 53 -43 53 -64c0 -38 -88 -96 -172 -167c-85 -72 -139 -160 -201 -160c-72 0 -90 51 -90 49c0 8 4 14 4 24c0 5 0 9 -2 15c-16 41 -90 239 -90 289
c0 22 10 28 33 28z" />
    <glyph glyph-name="Gcircumflex" unicode="&#x11c;" horiz-adv-x="1295" 
d="M1705 1243c0 -106 -228 -287 -415 -363c12 4 26 7 43 7c53 0 79 -6 98 -27c4 -4 6 -9 6 -13c0 -12 -13 -24 -27 -40c-225 -260 -392 -476 -516 -645c47 37 103 82 170 143c23 21 62 37 100 37c48 0 63 -18 63 -27c0 -7 -5 -14 -13 -20c0 0 -166 -145 -545 -426
c-100 -111 -246 -262 -328 -348c-32 -33 -79 -48 -120 -48c-52 0 -95 22 -95 62c0 4 2 30 43 86c56 82 193 191 303 275c191 213 416 448 480 544c-119 -112 -420 -395 -658 -395c-102 0 -184 70 -184 225c0 449 778 1180 1390 1180c74 0 138 -31 160 -53
c21 -21 45 -68 45 -154zM1224 823c14 13 28 39 59 54c-52 -21 -100 -33 -139 -33c-61 0 -115 33 -115 80c0 68 70 115 92 115c4 0 6 -2 6 -5c0 -5 -5 -13 -5 -20c0 -9 5 -17 23 -17c5 0 10 1 16 2c149 27 387 197 387 281c0 29 -37 35 -62 35c-457 0 -1206 -705 -1206 -1016
c0 -35 20 -76 69 -76c141 0 476 234 875 600zM1747 1548c-125 0 -145 142 -176 242c-63 -63 -262 -227 -334 -227c-16 0 -22 16 -22 26c0 64 102 134 186 205c70 60 103 90 146 139c7 13 30 21 55 21c122 0 112 -171 127 -209c16 -41 51 -119 51 -168c0 -22 -10 -29 -33 -29
z" />
    <glyph glyph-name="gcircumflex" unicode="&#x11d;" horiz-adv-x="857" 
d="M998 762c1 -2 1 -3 1 -5c0 -13 -21 -27 -24 -32c-116 -166 -272 -406 -452 -723c69 61 235 209 426 303c8 4 17 6 23 6c24 0 26 -35 26 -86c0 -17 -1 -33 -6 -43c-11 -26 -385 -212 -592 -461c-112 -135 -177 -227 -215 -292c-17 -30 -51 -43 -87 -43
c-70 0 -107 39 -107 107c0 194 298 387 327 423c18 27 18 21 201 315c-152 -159 -299 -247 -361 -247c-79 0 -153 25 -153 131c0 362 495 688 718 688c48 0 78 -19 88 -39c46 51 99 49 152 49c27 0 27 -31 35 -51zM754 690c-411 -90 -590 -457 -590 -540c0 -11 3 -17 9 -17
c24 0 253 148 581 557zM1068 923c-125 0 -145 142 -176 242c-63 -63 -262 -227 -334 -227c-16 0 -22 16 -22 26c0 64 102 134 186 205c70 60 103 90 146 139c7 13 30 21 55 21c122 0 112 -171 127 -209c16 -41 51 -119 51 -168c0 -22 -10 -29 -33 -29z" />
    <glyph glyph-name="Gbreve" unicode="&#x11e;" horiz-adv-x="1295" 
d="M1705 1243c0 -106 -228 -287 -415 -363c12 4 26 7 43 7c53 0 79 -6 98 -27c4 -4 6 -9 6 -13c0 -12 -13 -24 -27 -40c-225 -260 -392 -476 -516 -645c47 37 103 82 170 143c23 21 62 37 100 37c48 0 63 -18 63 -27c0 -7 -5 -14 -13 -20c0 0 -166 -145 -545 -426
c-100 -111 -246 -262 -328 -348c-32 -33 -79 -48 -120 -48c-52 0 -95 22 -95 62c0 4 2 30 43 86c56 82 193 191 303 275c191 213 416 448 480 544c-119 -112 -420 -395 -658 -395c-102 0 -184 70 -184 225c0 449 778 1180 1390 1180c74 0 138 -31 160 -53
c21 -21 45 -68 45 -154zM1224 823c14 13 28 39 59 54c-52 -21 -100 -33 -139 -33c-61 0 -115 33 -115 80c0 68 70 115 92 115c4 0 6 -2 6 -5c0 -5 -5 -13 -5 -20c0 -9 5 -17 23 -17c5 0 10 1 16 2c149 27 387 197 387 281c0 29 -37 35 -62 35c-457 0 -1206 -705 -1206 -1016
c0 -35 20 -76 69 -76c141 0 476 234 875 600zM1236 1912c63 -1 77 -80 111 -137c17 -29 56 -45 90 -45c162 0 221 188 318 188c16 0 53 -43 53 -64c0 -38 -172 -286 -352 -286c-154 0 -261 141 -261 293c0 22 19 51 41 51z" />
    <glyph glyph-name="gbreve" unicode="&#x11f;" horiz-adv-x="857" 
d="M998 762c1 -2 1 -3 1 -5c0 -13 -21 -27 -24 -32c-116 -166 -272 -406 -452 -723c69 61 235 209 426 303c8 4 17 6 23 6c24 0 26 -35 26 -86c0 -17 -1 -33 -6 -43c-11 -26 -385 -212 -592 -461c-112 -135 -177 -227 -215 -292c-17 -30 -51 -43 -87 -43
c-70 0 -107 39 -107 107c0 194 298 387 327 423c18 27 18 21 201 315c-152 -159 -299 -247 -361 -247c-79 0 -153 25 -153 131c0 362 495 688 718 688c48 0 78 -19 88 -39c46 51 99 49 152 49c27 0 27 -31 35 -51zM754 690c-411 -90 -590 -457 -590 -540c0 -11 3 -17 9 -17
c24 0 253 148 581 557zM567 1287c63 -1 77 -80 111 -137c17 -29 56 -45 90 -45c162 0 221 188 318 188c16 0 53 -43 53 -64c0 -38 -172 -286 -352 -286c-154 0 -261 141 -261 293c0 22 19 51 41 51z" />
    <glyph glyph-name="Gdotaccent" unicode="&#x120;" horiz-adv-x="1295" 
d="M1705 1243c0 -106 -228 -287 -415 -363c12 4 26 7 43 7c53 0 79 -6 98 -27c4 -4 6 -9 6 -13c0 -12 -13 -24 -27 -40c-225 -260 -392 -476 -516 -645c47 37 103 82 170 143c23 21 62 37 100 37c48 0 63 -18 63 -27c0 -7 -5 -14 -13 -20c0 0 -166 -145 -545 -426
c-100 -111 -246 -262 -328 -348c-32 -33 -79 -48 -120 -48c-52 0 -95 22 -95 62c0 4 2 30 43 86c56 82 193 191 303 275c191 213 416 448 480 544c-119 -112 -420 -395 -658 -395c-102 0 -184 70 -184 225c0 449 778 1180 1390 1180c74 0 138 -31 160 -53
c21 -21 45 -68 45 -154zM1224 823c14 13 28 39 59 54c-52 -21 -100 -33 -139 -33c-61 0 -115 33 -115 80c0 68 70 115 92 115c4 0 6 -2 6 -5c0 -5 -5 -13 -5 -20c0 -9 5 -17 23 -17c5 0 10 1 16 2c149 27 387 197 387 281c0 29 -37 35 -62 35c-457 0 -1206 -705 -1206 -1016
c0 -35 20 -76 69 -76c141 0 476 234 875 600zM1544 1846c43 0 84 -37 84 -94c0 -84 -61 -184 -178 -184c-53 0 -88 43 -88 94c0 74 59 184 182 184z" />
    <glyph glyph-name="gdotaccent" unicode="&#x121;" horiz-adv-x="857" 
d="M998 762c1 -2 1 -3 1 -5c0 -13 -21 -27 -24 -32c-116 -166 -272 -406 -452 -723c69 61 235 209 426 303c8 4 17 6 23 6c24 0 26 -35 26 -86c0 -17 -1 -33 -6 -43c-11 -26 -385 -212 -592 -461c-112 -135 -177 -227 -215 -292c-17 -30 -51 -43 -87 -43
c-70 0 -107 39 -107 107c0 194 298 387 327 423c18 27 18 21 201 315c-152 -159 -299 -247 -361 -247c-79 0 -153 25 -153 131c0 362 495 688 718 688c48 0 78 -19 88 -39c46 51 99 49 152 49c27 0 27 -31 35 -51zM754 690c-411 -90 -590 -457 -590 -540c0 -11 3 -17 9 -17
c24 0 253 148 581 557zM895 1221c43 0 84 -37 84 -94c0 -84 -61 -184 -178 -184c-53 0 -88 43 -88 94c0 74 59 184 182 184z" />
    <glyph glyph-name="Gcommaaccent" unicode="&#x122;" horiz-adv-x="1295" 
d="M1705 1243c0 -106 -228 -287 -415 -363c12 4 26 7 43 7c53 0 79 -6 98 -27c4 -4 6 -9 6 -13c0 -12 -13 -24 -27 -40c-225 -260 -392 -476 -516 -645c47 37 103 82 170 143c23 21 62 37 100 37c48 0 63 -18 63 -27c0 -7 -5 -14 -13 -20c0 0 -166 -145 -545 -426
c-100 -111 -246 -262 -328 -348c-32 -33 -79 -48 -120 -48c-52 0 -95 22 -95 62c0 4 2 30 43 86c56 82 193 191 303 275c191 213 416 448 480 544c-119 -112 -420 -395 -658 -395c-102 0 -184 70 -184 225c0 449 778 1180 1390 1180c74 0 138 -31 160 -53
c21 -21 45 -68 45 -154zM1224 823c14 13 28 39 59 54c-52 -21 -100 -33 -139 -33c-61 0 -115 33 -115 80c0 68 70 115 92 115c4 0 6 -2 6 -5c0 -5 -5 -13 -5 -20c0 -9 5 -17 23 -17c5 0 10 1 16 2c149 27 387 197 387 281c0 29 -37 35 -62 35c-457 0 -1206 -705 -1206 -1016
c0 -35 20 -76 69 -76c141 0 476 234 875 600zM224 -130c0 -103 -155 -243 -245 -243c-32 0 -30 17 -47 25c-7 2 -11 11 -11 20c0 8 3 16 9 21c7 5 103 29 103 75c0 27 -43 39 -43 83c0 74 70 117 132 117c77 0 102 -52 102 -98z" />
    <glyph glyph-name="gcommaaccent" unicode="&#x123;" horiz-adv-x="857" 
d="M998 762c1 -2 1 -3 1 -5c0 -13 -21 -27 -24 -32c-116 -166 -272 -406 -452 -723c69 61 235 209 426 303c8 4 17 6 23 6c24 0 26 -35 26 -86c0 -17 -1 -33 -6 -43c-11 -26 -385 -212 -592 -461c-112 -135 -177 -227 -215 -292c-17 -30 -51 -43 -87 -43
c-70 0 -107 39 -107 107c0 194 298 387 327 423c18 27 18 21 201 315c-152 -159 -299 -247 -361 -247c-79 0 -153 25 -153 131c0 362 495 688 718 688c48 0 78 -19 88 -39c46 51 99 49 152 49c27 0 27 -31 35 -51zM754 690c-411 -90 -590 -457 -590 -540c0 -11 3 -17 9 -17
c24 0 253 148 581 557zM728 1098c47 63 153 151 217 151c33 0 30 -16 47 -24c7 -2 11 -11 11 -20c0 -8 -3 -16 -9 -21c-8 -6 -70 -92 -78 -113c11 -11 16 -25 16 -41c0 -52 -56 -122 -131 -122c-76 0 -102 53 -102 99c0 35 13 70 29 91z" />
    <glyph glyph-name="Hcircumflex" unicode="&#x124;" horiz-adv-x="1536" 
d="M1994 1413c9 -7 12 -14 12 -22c0 -15 -11 -29 -21 -45c-119 -185 -290 -443 -436 -682c-147 -240 -391 -650 -399 -658c-2 -2 -1 -10 -10 -10c-3 0 -9 3 -14 3c-8 0 -16 -7 -27 -7c-4 0 -11 3 -16 3c-6 0 -10 -3 -17 -3h-6c-9 0 -28 -8 -56 -8c-31 0 -50 9 -50 34
c0 9 3 21 9 35c27 64 215 373 312 531c-111 -3 -254 -5 -365 -5c-92 0 -143 1 -215 1c-139 -224 -338 -580 -358 -586c-6 -1 -10 -2 -15 -2c-23 0 -20 19 -31 19c-7 0 -6 -8 -32 -8c-10 0 -20 1 -23 1s-6 6 -9 6s0 -6 -10 -6c-25 0 -43 13 -43 36c0 5 0 10 1 15
c2 20 32 85 43 103c75 127 196 300 274 420c-51 2 -90 1 -104 4c-42 7 -73 28 -90 96c-7 26 -11 43 -10 54c0 23 12 27 23 27s18 -7 26 -7c61 -2 147 -9 205 -9c18 0 36 2 57 2c72 113 199 302 311 461c-55 -45 -155 -108 -293 -108c-96 0 -186 49 -186 135
c0 70 70 115 139 115c12 0 21 -6 21 -12c0 -9 -21 -9 -21 -19c0 -22 55 -41 117 -41c115 0 377 176 389 184c10 5 43 16 72 16c45 0 58 -36 69 -49c7 -6 11 -9 11 -16c0 -6 -3 -13 -9 -25c-14 -28 -272 -419 -411 -634c88 0 391 4 577 10c123 194 378 596 402 629
c24 34 45 42 76 42c24 0 75 -6 88 -6c20 0 20 2 43 -14zM1834 1531c-125 0 -145 142 -176 242c-63 -63 -262 -227 -334 -227c-16 0 -22 16 -22 26c0 64 102 134 186 205c70 60 103 90 146 139c7 13 30 21 55 21c122 0 112 -171 127 -209c16 -41 51 -119 51 -168
c0 -22 -10 -29 -33 -29z" />
    <glyph glyph-name="hcircumflex" unicode="&#x125;" horiz-adv-x="805" 
d="M942 295c2 -13 7 -43 7 -70c0 -17 -2 -33 -7 -43c-30 -61 -183 -219 -347 -219c-99 0 -165 42 -165 146c0 135 170 419 232 526c-111 -78 -501 -520 -584 -635c-8 -12 -49 -31 -69 -31c-22 0 -37 17 -47 17c-6 0 -13 1 -13 11c0 4 1 9 4 17c107 248 244 553 598 1170
c74 129 148 241 172 272c23 30 73 57 148 57c14 0 28 -2 28 -39c0 -11 -2 -22 -6 -32c-16 -31 -385 -582 -586 -989c111 135 326 358 453 358c22 0 57 -10 72 -16c28 -11 34 -39 34 -68c0 -51 -260 -498 -260 -577c0 -27 12 -40 35 -40c8 0 17 2 27 5c59 16 213 174 231 190
c8 6 15 9 22 9c11 0 20 -8 21 -19zM1180 1577c-125 0 -145 142 -176 242c-63 -63 -262 -227 -334 -227c-16 0 -22 16 -22 26c0 64 102 134 186 205c70 60 103 90 146 139c7 13 30 21 55 21c122 0 112 -171 127 -209c16 -41 51 -119 51 -168c0 -22 -10 -29 -33 -29z" />
    <glyph glyph-name="Igrave" unicode="&#xcc;" horiz-adv-x="574" 
d="M1092 1423c-225 -331 -548 -817 -893 -1378c-19 -31 -28 -38 -39 -41c-4 0 -28 -12 -82 -22c-6 -2 -16 0 -20 -2c-6 -7 -21 -10 -30 -10c-2 0 -4 0 -5 1c-8 0 -45 13 -45 19c0 8 0 49 4 59c45 152 828 1318 922 1393c10 8 22 11 37 11c34 0 61 -3 80 -3c23 0 36 2 47 2
c16 0 26 -9 26 -20c0 -3 0 -6 -2 -9zM941 1670c-65 131 -125 176 -125 213c0 24 76 73 140 73c48 0 46 -45 86 -180c13 -43 53 -148 53 -197c0 -22 -10 -28 -33 -28c-86 0 -104 84 -121 119z" />
    <glyph glyph-name="igrave" unicode="&#xec;" horiz-adv-x="415" 
d="M551 225c0 -14 0 -30 -6 -43c-70 -143 -244 -223 -353 -223c-90 0 -182 84 -182 172c0 100 220 420 220 436c0 23 -41 43 -41 66c0 16 155 186 241 186c33 0 74 -49 74 -80c0 -21 -209 -382 -238 -432c-24 -40 -75 -112 -75 -160c0 -28 26 -34 51 -34
c121 0 252 202 283 202c28 0 26 -72 26 -90zM341 1058c-65 131 -125 176 -125 213c0 24 76 73 140 73c48 0 46 -45 86 -180c13 -43 53 -148 53 -197c0 -22 -10 -28 -33 -28c-86 0 -104 84 -121 119z" />
    <glyph glyph-name="Iacute" unicode="&#xcd;" horiz-adv-x="574" 
d="M1092 1423c-225 -331 -548 -817 -893 -1378c-19 -31 -28 -38 -39 -41c-4 0 -28 -12 -82 -22c-6 -2 -16 0 -20 -2c-6 -7 -21 -10 -30 -10c-2 0 -4 0 -5 1c-8 0 -45 13 -45 19c0 8 0 49 4 59c45 152 828 1318 922 1393c10 8 22 11 37 11c34 0 61 -3 80 -3c23 0 36 2 47 2
c16 0 26 -9 26 -20c0 -3 0 -6 -2 -9zM1228 1809c84 69 129 86 143 125c4 10 10 18 19 18c41 0 65 -65 65 -100c0 -64 -41 -109 -84 -137c-28 -27 -256 -164 -309 -164c-16 0 -23 16 -23 26c0 7 2 13 5 19c32 86 102 147 184 213z" />
    <glyph glyph-name="iacute" unicode="&#xed;" horiz-adv-x="415" 
d="M551 225c0 -14 0 -30 -6 -43c-70 -143 -244 -223 -353 -223c-90 0 -182 84 -182 172c0 100 220 420 220 436c0 23 -41 43 -41 66c0 16 155 186 241 186c33 0 74 -49 74 -80c0 -21 -209 -382 -238 -432c-24 -40 -75 -112 -75 -160c0 -28 26 -34 51 -34
c121 0 252 202 283 202c28 0 26 -72 26 -90zM628 1197c84 69 129 86 143 125c4 10 10 18 19 18c41 0 65 -65 65 -100c0 -64 -41 -109 -84 -137c-28 -27 -256 -164 -309 -164c-16 0 -23 16 -23 26c0 7 2 13 5 19c32 86 102 147 184 213z" />
    <glyph glyph-name="Icircumflex" unicode="&#xce;" horiz-adv-x="574" 
d="M1092 1423c-225 -331 -548 -817 -893 -1378c-19 -31 -28 -38 -39 -41c-4 0 -28 -12 -82 -22c-6 -2 -16 0 -20 -2c-6 -7 -21 -10 -30 -10c-2 0 -4 0 -5 1c-8 0 -45 13 -45 19c0 8 0 49 4 59c45 152 828 1318 922 1393c10 8 22 11 37 11c34 0 61 -3 80 -3c23 0 36 2 47 2
c16 0 26 -9 26 -20c0 -3 0 -6 -2 -9zM1366 1551c-125 0 -145 142 -176 242c-63 -63 -262 -227 -334 -227c-16 0 -22 16 -22 26c0 64 102 134 186 205c70 60 103 90 146 139c7 13 30 21 55 21c122 0 112 -171 127 -209c16 -41 51 -119 51 -168c0 -22 -10 -29 -33 -29z" />
    <glyph glyph-name="icircumflex" unicode="&#xee;" horiz-adv-x="415" 
d="M551 225c0 -14 0 -30 -6 -43c-70 -143 -244 -223 -353 -223c-90 0 -182 84 -182 172c0 100 220 420 220 436c0 23 -41 43 -41 66c0 16 155 186 241 186c33 0 74 -49 74 -80c0 -21 -209 -382 -238 -432c-24 -40 -75 -112 -75 -160c0 -28 26 -34 51 -34
c121 0 252 202 283 202c28 0 26 -72 26 -90zM766 939c-125 0 -145 142 -176 242c-63 -63 -262 -227 -334 -227c-16 0 -22 16 -22 26c0 64 102 134 186 205c70 60 103 90 146 139c7 13 30 21 55 21c122 0 112 -171 127 -209c16 -41 51 -119 51 -168c0 -22 -10 -29 -33 -29z
" />
    <glyph glyph-name="Idieresis" unicode="&#xcf;" horiz-adv-x="574" 
d="M1092 1423c-225 -331 -548 -817 -893 -1378c-19 -31 -28 -38 -39 -41c-4 0 -28 -12 -82 -22c-6 -2 -16 0 -20 -2c-6 -7 -21 -10 -30 -10c-2 0 -4 0 -5 1c-8 0 -45 13 -45 19c0 8 0 49 4 59c45 152 828 1318 922 1393c10 8 22 11 37 11c34 0 61 -3 80 -3c23 0 36 2 47 2
c16 0 26 -9 26 -20c0 -3 0 -6 -2 -9zM1396 1749c0 -76 -78 -168 -170 -168c-52 0 -76 35 -76 80c0 37 55 166 170 166c35 0 76 -18 76 -78zM1066 1751c0 -71 -70 -170 -154 -170c-39 0 -61 33 -61 84c0 55 43 168 143 168c33 0 72 -24 72 -82z" />
    <glyph glyph-name="idieresis" unicode="&#xef;" horiz-adv-x="415" 
d="M551 225c0 -14 0 -30 -6 -43c-70 -143 -244 -223 -353 -223c-90 0 -182 84 -182 172c0 100 220 420 220 436c0 23 -41 43 -41 66c0 16 155 186 241 186c33 0 74 -49 74 -80c0 -21 -209 -382 -238 -432c-24 -40 -75 -112 -75 -160c0 -28 26 -34 51 -34
c121 0 252 202 283 202c28 0 26 -72 26 -90zM846 1137c0 -76 -78 -168 -170 -168c-52 0 -76 35 -76 80c0 37 55 166 170 166c35 0 76 -18 76 -78zM516 1139c0 -71 -70 -170 -154 -170c-39 0 -61 33 -61 84c0 55 43 168 143 168c33 0 72 -24 72 -82z" />
    <glyph glyph-name="Itilde" unicode="&#x128;" horiz-adv-x="574" 
d="M1092 1423c-225 -331 -548 -817 -893 -1378c-19 -31 -28 -38 -39 -41c-4 0 -28 -12 -82 -22c-6 -2 -16 0 -20 -2c-6 -7 -21 -10 -30 -10c-2 0 -4 0 -5 1c-8 0 -45 13 -45 19c0 8 0 49 4 59c45 152 828 1318 922 1393c10 8 22 11 37 11c34 0 61 -3 80 -3c23 0 36 2 47 2
c16 0 26 -9 26 -20c0 -3 0 -6 -2 -9zM1245 1733c137 0 141 101 192 101c31 0 46 -43 46 -79c0 -14 -3 -27 -7 -36c-45 -90 -139 -147 -240 -147c-135 0 -163 120 -229 120c-96 0 -127 -123 -203 -123c-10 0 -22 17 -22 41c0 129 182 240 250 240c122 0 145 -117 213 -117z
" />
    <glyph glyph-name="itilde" unicode="&#x129;" horiz-adv-x="415" 
d="M551 225c0 -14 0 -30 -6 -43c-70 -143 -244 -223 -353 -223c-90 0 -182 84 -182 172c0 100 220 420 220 436c0 23 -41 43 -41 66c0 16 155 186 241 186c33 0 74 -49 74 -80c0 -21 -209 -382 -238 -432c-24 -40 -75 -112 -75 -160c0 -28 26 -34 51 -34
c121 0 252 202 283 202c28 0 26 -72 26 -90zM645 1121c137 0 141 101 192 101c31 0 46 -43 46 -79c0 -14 -3 -27 -7 -36c-45 -90 -139 -147 -240 -147c-135 0 -163 120 -229 120c-96 0 -127 -123 -203 -123c-10 0 -22 17 -22 41c0 129 182 240 250 240
c122 0 145 -117 213 -117z" />
    <glyph glyph-name="Imacron" unicode="&#x12a;" horiz-adv-x="574" 
d="M1092 1423c-225 -331 -548 -817 -893 -1378c-19 -31 -28 -38 -39 -41c-4 0 -28 -12 -82 -22c-6 -2 -16 0 -20 -2c-6 -7 -21 -10 -30 -10c-2 0 -4 0 -5 1c-8 0 -45 13 -45 19c0 8 0 49 4 59c45 152 828 1318 922 1393c10 8 22 11 37 11c34 0 61 -3 80 -3c23 0 36 2 47 2
c16 0 26 -9 26 -20c0 -3 0 -6 -2 -9zM1203 1635c-113 0 -164 -2 -260 -8c-6 0 -8 -2 -15 -2c-14 0 -18 18 -18 40c0 116 39 136 72 136c98 0 114 -10 213 -10c75 0 121 8 196 26c4 2 11 2 17 2c18 0 22 -35 22 -53c0 -135 -146 -131 -227 -131z" />
    <glyph glyph-name="imacron" unicode="&#x12b;" horiz-adv-x="415" 
d="M551 225c0 -14 0 -30 -6 -43c-70 -143 -244 -223 -353 -223c-90 0 -182 84 -182 172c0 100 220 420 220 436c0 23 -41 43 -41 66c0 16 155 186 241 186c33 0 74 -49 74 -80c0 -21 -209 -382 -238 -432c-24 -40 -75 -112 -75 -160c0 -28 26 -34 51 -34
c121 0 252 202 283 202c28 0 26 -72 26 -90zM603 1023c-113 0 -164 -2 -260 -8c-6 0 -8 -2 -15 -2c-14 0 -18 18 -18 40c0 116 39 136 72 136c98 0 114 -10 213 -10c75 0 121 8 196 26c4 2 11 2 17 2c18 0 22 -35 22 -53c0 -135 -146 -131 -227 -131z" />
    <glyph glyph-name="Ibreve" unicode="&#x12c;" horiz-adv-x="574" 
d="M1092 1423c-225 -331 -548 -817 -893 -1378c-19 -31 -28 -38 -39 -41c-4 0 -28 -12 -82 -22c-6 -2 -16 0 -20 -2c-6 -7 -21 -10 -30 -10c-2 0 -4 0 -5 1c-8 0 -45 13 -45 19c0 8 0 49 4 59c45 152 828 1318 922 1393c10 8 22 11 37 11c34 0 61 -3 80 -3c23 0 36 2 47 2
c16 0 26 -9 26 -20c0 -3 0 -6 -2 -9zM855 1915c63 -1 77 -80 111 -137c17 -29 56 -45 90 -45c162 0 221 188 318 188c16 0 53 -43 53 -64c0 -38 -172 -286 -352 -286c-154 0 -261 141 -261 293c0 22 19 51 41 51z" />
    <glyph glyph-name="ibreve" unicode="&#x12d;" horiz-adv-x="415" 
d="M551 225c0 -14 0 -30 -6 -43c-70 -143 -244 -223 -353 -223c-90 0 -182 84 -182 172c0 100 220 420 220 436c0 23 -41 43 -41 66c0 16 155 186 241 186c33 0 74 -49 74 -80c0 -21 -209 -382 -238 -432c-24 -40 -75 -112 -75 -160c0 -28 26 -34 51 -34
c121 0 252 202 283 202c28 0 26 -72 26 -90zM255 1303c63 -1 77 -80 111 -137c17 -29 56 -45 90 -45c162 0 221 188 318 188c16 0 53 -43 53 -64c0 -38 -172 -286 -352 -286c-154 0 -261 141 -261 293c0 22 19 51 41 51z" />
    <glyph glyph-name="Idotaccent" unicode="&#x130;" horiz-adv-x="574" 
d="M1092 1423c-225 -331 -548 -817 -893 -1378c-19 -31 -28 -38 -39 -41c-4 0 -28 -12 -82 -22c-6 -2 -16 0 -20 -2c-6 -7 -21 -10 -30 -10c-2 0 -4 0 -5 1c-8 0 -45 13 -45 19c0 8 0 49 4 59c45 152 828 1318 922 1393c10 8 22 11 37 11c34 0 61 -3 80 -3c23 0 36 2 47 2
c16 0 26 -9 26 -20c0 -3 0 -6 -2 -9zM1163 1849c43 0 84 -37 84 -94c0 -84 -61 -184 -178 -184c-53 0 -88 43 -88 94c0 74 59 184 182 184z" />
    <glyph glyph-name="Jcircumflex" unicode="&#x134;" horiz-adv-x="1314" 
d="M1059 328c33 16 160 71 188 71c11 0 13 -8 13 -18c0 -30 -40 -75 -56 -98c-70 -100 -201 -139 -309 -193c-1 1 -196 -302 -348 -469c-120 -132 -239 -223 -422 -223c-90 0 -125 98 -125 174c0 278 565 557 791 659c221 326 503 723 739 1039c2 4 8 8 8 12s-6 4 -8 4
c-51 0 -104 -10 -156 -20c-306 -62 -621 -235 -843 -451c-58 -56 -152 -159 -152 -244c0 -69 72 -112 135 -112c105 0 205 98 221 98c6 0 6 -8 6 -14c0 -48 -20 -100 -47 -137c-43 -58 -153 -93 -223 -93c-131 0 -289 84 -289 232c0 23 6 49 13 71c85 277 405 489 647 621
c246 134 579 227 860 227c49 0 94 -34 94 -86c0 -8 0 -16 -2 -24c-16 -41 -187 -257 -227 -310c-143 -191 -372 -522 -508 -716zM635 -6c-92 -57 -492 -309 -492 -408c0 -16 13 -22 27 -22c148 0 383 315 465 430zM1817 1562c-125 0 -145 142 -176 242
c-63 -63 -262 -227 -334 -227c-16 0 -22 16 -22 26c0 64 102 134 186 205c70 60 103 90 146 139c7 13 30 21 55 21c122 0 112 -171 127 -209c16 -41 51 -119 51 -168c0 -22 -10 -29 -33 -29z" />
    <glyph glyph-name="jcircumflex" unicode="&#x135;" horiz-adv-x="453" 
d="M571 295c5 -21 13 -88 0 -113c-18 -28 -401 -198 -608 -426c-43 -84 -226 -358 -367 -358c-49 0 -96 31 -96 102c0 99 203 244 366 381c161 271 286 498 400 660c-24 3 -79 -25 -91 45c-9 50 226 200 278 200c49 0 75 -26 75 -75c0 -6 -3 -17 -5 -23
c-17 -47 -349 -577 -401 -657c46 32 368 274 406 274c21 17 41 8 43 -10zM761 906c-125 0 -145 142 -176 242c-63 -63 -262 -227 -334 -227c-16 0 -22 16 -22 26c0 64 102 134 186 205c70 60 103 90 146 139c7 13 30 21 55 21c122 0 112 -171 127 -209
c16 -41 51 -119 51 -168c0 -22 -10 -29 -33 -29z" />
    <glyph glyph-name="Kcommaaccent" unicode="&#x136;" horiz-adv-x="1468" 
d="M1865 1335c-291 -262 -834 -536 -1135 -673c123 -70 252 -166 385 -269c172 -127 336 -241 401 -241c44 0 53 29 65 29c8 0 17 -5 17 -16c0 -2 0 -6 -2 -9c-8 -23 -53 -127 -86 -156c-23 -20 -55 -23 -86 -23c-151 0 -663 482 -854 560c-157 -248 -297 -465 -321 -512
c-6 -11 -31 -29 -35 -29c-23 0 -29 -6 -43 -6c-13 0 -25 2 -35 2c-8 0 -15 -1 -22 -6c-7 -6 -15 -4 -21 -9c-4 -4 -7 -7 -13 -7c-19 0 -52 28 -52 47c0 16 11 34 18 49c6 12 182 276 365 548c-25 0 -86 -4 -86 39c0 45 57 107 98 107c26 0 51 -2 78 -6
c129 190 245 366 291 438c-48 -45 -130 -109 -220 -109c-69 0 -108 54 -108 121c0 80 86 114 94 114c7 0 9 -4 9 -8c0 -8 -8 -16 -8 -24s9 -14 46 -14c96 0 293 190 377 190c29 0 45 -4 59 -14c7 -6 17 -4 27 -12c12 -11 12 -19 18 -23c11 -9 19 -19 19 -33
c0 -8 -2 -16 -8 -26c-23 -35 -158 -242 -312 -484c355 185 881 525 912 568c5 8 10 10 17 10c11 0 24 -9 36 -10c54 -8 127 -23 127 -76c0 -10 -4 -20 -12 -27zM785 -240c0 -103 -155 -243 -245 -243c-32 0 -30 17 -47 25c-7 2 -11 11 -11 20c0 8 3 16 9 21
c7 5 103 29 103 75c0 27 -43 39 -43 83c0 74 70 117 132 117c77 0 102 -52 102 -98z" />
    <glyph glyph-name="kcommaaccent" unicode="&#x137;" horiz-adv-x="753" 
d="M897 295c2 -13 6 -43 6 -70c0 -17 -1 -33 -6 -43c-27 -53 -180 -217 -313 -217c-183 0 -291 238 -338 326c-66 -131 -144 -291 -148 -299c-6 -13 -13 -16 -20 -16c-19 0 -49 14 -64 14c-35 6 -39 22 -55 49c-1 1 -1 2 -1 4c0 7 8 19 15 43c32 109 684 1268 703 1290
c30 43 49 43 84 56c57 20 59 32 75 32c15 0 29 -13 29 -32v-7c-8 -28 -477 -856 -539 -972c99 39 381 260 383 313c3 63 54 78 84 78c40 0 74 -27 74 -76c-6 -164 -317 -387 -430 -434c29 -78 92 -219 186 -219c84 12 213 174 232 190c7 6 15 9 22 9c11 0 20 -8 21 -19z
M348 -240c0 -103 -155 -243 -245 -243c-32 0 -30 17 -47 25c-7 2 -11 11 -11 20c0 8 3 16 9 21c7 5 103 29 103 75c0 27 -43 39 -43 83c0 74 70 117 132 117c77 0 102 -52 102 -98z" />
    <glyph glyph-name="Lacute" unicode="&#x139;" horiz-adv-x="1476" 
d="M1776 1321c0 -180 -340 -428 -422 -428c-71 0 -107 60 -107 108c0 34 16 48 26 48c6 0 10 -4 11 -11c67 20 289 206 289 249c0 6 -4 9 -12 9c-67 0 -237 -88 -553 -555c-128 -189 -229 -350 -326 -477c246 -61 514 -135 733 -135c125 0 149 35 159 35c5 0 9 -4 9 -10
c0 -3 -1 -8 -4 -13c-10 -18 -76 -123 -102 -139c-27 -16 -105 -29 -193 -29c-258 0 -500 90 -729 152c-119 -107 -252 -166 -444 -166c-248 0 -261 113 -261 193c0 79 64 194 367 194c76 0 166 -14 264 -35c127 142 239 344 371 537c245 356 495 616 762 616
c127 0 162 -82 162 -143zM322 176c-46 6 -89 10 -132 10c-96 0 -131 -16 -131 -31s34 -30 76 -30c68 0 129 18 187 51zM1766 1825c84 69 129 86 143 125c4 10 10 18 19 18c41 0 65 -65 65 -100c0 -64 -41 -109 -84 -137c-28 -27 -256 -164 -309 -164c-16 0 -23 16 -23 26
c0 7 2 13 5 19c32 86 102 147 184 213z" />
    <glyph glyph-name="lacute" unicode="&#x13a;" horiz-adv-x="528" 
d="M1012 1397c0 -230 -572 -903 -742 -1092c-4 -33 -16 -63 -16 -96c0 -64 47 -100 108 -100c125 0 263 206 306 206c26 0 26 -57 26 -73v-20c0 -45 -23 -68 -47 -95c-81 -92 -228 -166 -352 -166c-133 0 -195 86 -195 215c0 277 181 682 340 907c123 174 314 418 451 418
c61 0 121 -39 121 -104zM846 1335c0 8 -2 15 -10 15c-53 0 -337 -408 -377 -480c-56 -100 -112 -229 -148 -338c97 115 535 695 535 803zM1049 1831c84 69 129 86 143 125c4 10 10 18 19 18c41 0 65 -65 65 -100c0 -64 -41 -109 -84 -137c-28 -27 -256 -164 -309 -164
c-16 0 -23 16 -23 26c0 7 2 13 5 19c32 86 102 147 184 213z" />
    <glyph glyph-name="Lcommaaccent" unicode="&#x13b;" horiz-adv-x="1476" 
d="M1776 1321c0 -180 -340 -428 -422 -428c-71 0 -107 60 -107 108c0 34 16 48 26 48c6 0 10 -4 11 -11c67 20 289 206 289 249c0 6 -4 9 -12 9c-67 0 -237 -88 -553 -555c-128 -189 -229 -350 -326 -477c246 -61 514 -135 733 -135c125 0 149 35 159 35c5 0 9 -4 9 -10
c0 -3 -1 -8 -4 -13c-10 -18 -76 -123 -102 -139c-27 -16 -105 -29 -193 -29c-258 0 -500 90 -729 152c-119 -107 -252 -166 -444 -166c-248 0 -261 113 -261 193c0 79 64 194 367 194c76 0 166 -14 264 -35c127 142 239 344 371 537c245 356 495 616 762 616
c127 0 162 -82 162 -143zM322 176c-46 6 -89 10 -132 10c-96 0 -131 -16 -131 -31s34 -30 76 -30c68 0 129 18 187 51zM759 -240c0 -103 -155 -243 -245 -243c-32 0 -30 17 -47 25c-7 2 -11 11 -11 20c0 8 3 16 9 21c7 5 103 29 103 75c0 27 -43 39 -43 83
c0 74 70 117 132 117c77 0 102 -52 102 -98z" />
    <glyph glyph-name="lcommaaccent" unicode="&#x13c;" horiz-adv-x="528" 
d="M1012 1397c0 -230 -572 -903 -742 -1092c-4 -33 -16 -63 -16 -96c0 -64 47 -100 108 -100c125 0 263 206 306 206c26 0 26 -57 26 -73v-20c0 -45 -23 -68 -47 -95c-81 -92 -228 -166 -352 -166c-133 0 -195 86 -195 215c0 277 181 682 340 907c123 174 314 418 451 418
c61 0 121 -39 121 -104zM846 1335c0 8 -2 15 -10 15c-53 0 -337 -408 -377 -480c-56 -100 -112 -229 -148 -338c97 115 535 695 535 803zM295 -240c0 -103 -155 -243 -245 -243c-32 0 -30 17 -47 25c-7 2 -11 11 -11 20c0 8 3 16 9 21c7 5 103 29 103 75c0 27 -43 39 -43 83
c0 74 70 117 132 117c77 0 102 -52 102 -98z" />
    <glyph glyph-name="Lcaron" unicode="&#x13d;" horiz-adv-x="1564" 
d="M1776 1321c0 -180 -340 -428 -422 -428c-71 0 -107 60 -107 108c0 34 16 48 26 48c6 0 10 -4 11 -11c67 20 289 206 289 249c0 6 -4 9 -12 9c-67 0 -237 -88 -553 -555c-128 -189 -229 -350 -326 -477c246 -61 514 -135 733 -135c125 0 149 35 159 35c5 0 9 -4 9 -10
c0 -3 -1 -8 -4 -13c-10 -18 -76 -123 -102 -139c-27 -16 -105 -29 -193 -29c-258 0 -500 90 -729 152c-119 -107 -252 -166 -444 -166c-248 0 -261 113 -261 193c0 79 64 194 367 194c76 0 166 -14 264 -35c127 142 239 344 371 537c245 356 495 616 762 616
c127 0 162 -82 162 -143zM322 176c-46 6 -89 10 -132 10c-96 0 -131 -16 -131 -31s34 -30 76 -30c68 0 129 18 187 51zM2096 1259c-47 -64 -153 -152 -217 -152c-32 0 -30 17 -47 25c-7 2 -11 11 -11 20c0 8 3 16 9 21c8 6 70 92 78 113c-11 10 -16 24 -16 40
c0 52 56 122 130 122c77 0 102 -52 102 -98c0 -35 -12 -70 -28 -91z" />
    <glyph glyph-name="lcaron" unicode="&#x13e;" horiz-adv-x="782" 
d="M1012 1397c0 -230 -572 -903 -742 -1092c-4 -33 -16 -63 -16 -96c0 -64 47 -100 108 -100c125 0 263 206 306 206c26 0 26 -57 26 -73v-20c0 -45 -23 -68 -47 -95c-81 -92 -228 -166 -352 -166c-133 0 -195 86 -195 215c0 277 181 682 340 907c123 174 314 418 451 418
c61 0 121 -39 121 -104zM846 1335c0 8 -2 15 -10 15c-53 0 -337 -408 -377 -480c-56 -100 -112 -229 -148 -338c97 115 535 695 535 803zM1294 1291c-47 -64 -153 -152 -217 -152c-32 0 -30 17 -47 25c-7 2 -11 11 -11 20c0 8 3 16 9 21c8 6 70 92 78 113
c-11 10 -16 24 -16 40c0 52 56 122 130 122c77 0 102 -52 102 -98c0 -35 -12 -70 -28 -91z" />
    <glyph glyph-name="Ntilde" unicode="&#xd1;" horiz-adv-x="1325" 
d="M1805 1470c0 -125 -650 -1072 -950 -1437c-15 -18 -41 -33 -68 -33c-24 0 -63 9 -78 14c-16 5 -43 16 -43 47c0 107 150 846 193 1057c-236 -307 -631 -960 -672 -1069c-18 -49 -26 -90 -82 -90c-48 0 -63 -9 -79 -9c-31 0 -62 22 -62 40c0 109 676 1208 926 1423
c15 13 30 16 41 16c18 0 33 -8 47 -8c17 0 48 16 73 16c38 0 62 -19 62 -41c0 -4 -1 -9 -2 -14c-8 -32 -143 -682 -195 -952c142 193 604 848 662 1018c26 75 68 80 102 80c35 0 125 -11 125 -58zM1498 1760c137 0 141 101 192 101c31 0 46 -43 46 -79c0 -14 -3 -27 -7 -36
c-45 -90 -139 -147 -240 -147c-135 0 -163 120 -229 120c-96 0 -127 -123 -203 -123c-10 0 -22 17 -22 41c0 129 182 240 250 240c122 0 145 -117 213 -117z" />
    <glyph glyph-name="ntilde" unicode="&#xf1;" horiz-adv-x="800" 
d="M956 225c0 -34 -12 -67 -47 -88c-73 -67 -188 -172 -307 -172c-80 2 -168 64 -168 162c0 127 109 296 193 420c10 15 50 74 53 94l-2 2c-52 -4 -323 -289 -373 -344c-75 -83 -143 -170 -209 -258c-14 -18 -39 -43 -63 -43c-17 0 -80 25 -92 35c-7 4 -7 10 -7 16
c0 33 38 86 60 123c86 150 174 297 262 444c29 48 53 98 88 142c34 43 99 57 152 57c22 0 24 -22 24 -39c0 -47 -100 -184 -129 -231c96 106 250 268 404 268c51 0 94 -35 94 -90c0 -61 -121 -223 -160 -283c-33 -51 -145 -217 -145 -286c0 -32 31 -44 60 -44
c95 0 257 205 286 205c28 0 26 -72 26 -90zM840 1113c137 0 141 101 192 101c31 0 46 -43 46 -79c0 -14 -3 -27 -7 -36c-45 -90 -139 -147 -240 -147c-135 0 -163 120 -229 120c-96 0 -127 -123 -203 -123c-10 0 -22 17 -22 41c0 129 182 240 250 240
c122 0 145 -117 213 -117z" />
    <glyph glyph-name="Nacute" unicode="&#x143;" horiz-adv-x="1325" 
d="M1805 1470c0 -125 -650 -1072 -950 -1437c-15 -18 -41 -33 -68 -33c-24 0 -63 9 -78 14c-16 5 -43 16 -43 47c0 107 150 846 193 1057c-236 -307 -631 -960 -672 -1069c-18 -49 -26 -90 -82 -90c-48 0 -63 -9 -79 -9c-31 0 -62 22 -62 40c0 109 676 1208 926 1423
c15 13 30 16 41 16c18 0 33 -8 47 -8c17 0 48 16 73 16c38 0 62 -19 62 -41c0 -4 -1 -9 -2 -14c-8 -32 -143 -682 -195 -952c142 193 604 848 662 1018c26 75 68 80 102 80c35 0 125 -11 125 -58zM1481 1836c84 69 129 86 143 125c4 10 10 18 19 18c41 0 65 -65 65 -100
c0 -64 -41 -109 -84 -137c-28 -27 -256 -164 -309 -164c-16 0 -23 16 -23 26c0 7 2 13 5 19c32 86 102 147 184 213z" />
    <glyph glyph-name="nacute" unicode="&#x144;" horiz-adv-x="800" 
d="M956 225c0 -34 -12 -67 -47 -88c-73 -67 -188 -172 -307 -172c-80 2 -168 64 -168 162c0 127 109 296 193 420c10 15 50 74 53 94l-2 2c-52 -4 -323 -289 -373 -344c-75 -83 -143 -170 -209 -258c-14 -18 -39 -43 -63 -43c-17 0 -80 25 -92 35c-7 4 -7 10 -7 16
c0 33 38 86 60 123c86 150 174 297 262 444c29 48 53 98 88 142c34 43 99 57 152 57c22 0 24 -22 24 -39c0 -47 -100 -184 -129 -231c96 106 250 268 404 268c51 0 94 -35 94 -90c0 -61 -121 -223 -160 -283c-33 -51 -145 -217 -145 -286c0 -32 31 -44 60 -44
c95 0 257 205 286 205c28 0 26 -72 26 -90zM823 1189c84 69 129 86 143 125c4 10 10 18 19 18c41 0 65 -65 65 -100c0 -64 -41 -109 -84 -137c-28 -27 -256 -164 -309 -164c-16 0 -23 16 -23 26c0 7 2 13 5 19c32 86 102 147 184 213z" />
    <glyph glyph-name="Ncommaaccent" unicode="&#x145;" horiz-adv-x="1325" 
d="M1805 1470c0 -125 -650 -1072 -950 -1437c-15 -18 -41 -33 -68 -33c-24 0 -63 9 -78 14c-16 5 -43 16 -43 47c0 107 150 846 193 1057c-236 -307 -631 -960 -672 -1069c-18 -49 -26 -90 -82 -90c-48 0 -63 -9 -79 -9c-31 0 -62 22 -62 40c0 109 676 1208 926 1423
c15 13 30 16 41 16c18 0 33 -8 47 -8c17 0 48 16 73 16c38 0 62 -19 62 -41c0 -4 -1 -9 -2 -14c-8 -32 -143 -682 -195 -952c142 193 604 848 662 1018c26 75 68 80 102 80c35 0 125 -11 125 -58zM507 -240c0 -103 -155 -243 -245 -243c-32 0 -30 17 -47 25
c-7 2 -11 11 -11 20c0 8 3 16 9 21c7 5 103 29 103 75c0 27 -43 39 -43 83c0 74 70 117 132 117c77 0 102 -52 102 -98z" />
    <glyph glyph-name="ncommaaccent" unicode="&#x146;" horiz-adv-x="800" 
d="M956 225c0 -34 -12 -67 -47 -88c-73 -67 -188 -172 -307 -172c-80 2 -168 64 -168 162c0 127 109 296 193 420c10 15 50 74 53 94l-2 2c-52 -4 -323 -289 -373 -344c-75 -83 -143 -170 -209 -258c-14 -18 -39 -43 -63 -43c-17 0 -80 25 -92 35c-7 4 -7 10 -7 16
c0 33 38 86 60 123c86 150 174 297 262 444c29 48 53 98 88 142c34 43 99 57 152 57c22 0 24 -22 24 -39c0 -47 -100 -184 -129 -231c96 106 250 268 404 268c51 0 94 -35 94 -90c0 -61 -121 -223 -160 -283c-33 -51 -145 -217 -145 -286c0 -32 31 -44 60 -44
c95 0 257 205 286 205c28 0 26 -72 26 -90zM331 -240c0 -103 -155 -243 -245 -243c-32 0 -30 17 -47 25c-7 2 -11 11 -11 20c0 8 3 16 9 21c7 5 103 29 103 75c0 27 -43 39 -43 83c0 74 70 117 132 117c77 0 102 -52 102 -98z" />
    <glyph glyph-name="Ncaron" unicode="&#x147;" horiz-adv-x="1325" 
d="M1805 1470c0 -125 -650 -1072 -950 -1437c-15 -18 -41 -33 -68 -33c-24 0 -63 9 -78 14c-16 5 -43 16 -43 47c0 107 150 846 193 1057c-236 -307 -631 -960 -672 -1069c-18 -49 -26 -90 -82 -90c-48 0 -63 -9 -79 -9c-31 0 -62 22 -62 40c0 109 676 1208 926 1423
c15 13 30 16 41 16c18 0 33 -8 47 -8c17 0 48 16 73 16c38 0 62 -19 62 -41c0 -4 -1 -9 -2 -14c-8 -32 -143 -682 -195 -952c142 193 604 848 662 1018c26 75 68 80 102 80c35 0 125 -11 125 -58zM1207 1983c96 0 125 -141 155 -241c64 63 238 227 310 227
c16 0 53 -43 53 -64c0 -38 -88 -96 -172 -167c-85 -72 -139 -160 -201 -160c-72 0 -90 51 -90 49c0 8 4 14 4 24c0 5 0 9 -2 15c-16 41 -90 239 -90 289c0 22 10 28 33 28z" />
    <glyph glyph-name="ncaron" unicode="&#x148;" horiz-adv-x="800" 
d="M956 225c0 -34 -12 -67 -47 -88c-73 -67 -188 -172 -307 -172c-80 2 -168 64 -168 162c0 127 109 296 193 420c10 15 50 74 53 94l-2 2c-52 -4 -323 -289 -373 -344c-75 -83 -143 -170 -209 -258c-14 -18 -39 -43 -63 -43c-17 0 -80 25 -92 35c-7 4 -7 10 -7 16
c0 33 38 86 60 123c86 150 174 297 262 444c29 48 53 98 88 142c34 43 99 57 152 57c22 0 24 -22 24 -39c0 -47 -100 -184 -129 -231c96 106 250 268 404 268c51 0 94 -35 94 -90c0 -61 -121 -223 -160 -283c-33 -51 -145 -217 -145 -286c0 -32 31 -44 60 -44
c95 0 257 205 286 205c28 0 26 -72 26 -90zM549 1336c96 0 125 -141 155 -241c64 63 238 227 310 227c16 0 53 -43 53 -64c0 -38 -88 -96 -172 -167c-85 -72 -139 -160 -201 -160c-72 0 -90 51 -90 49c0 8 4 14 4 24c0 5 0 9 -2 15c-16 41 -90 239 -90 289c0 22 10 28 33 28
z" />
    <glyph glyph-name="napostrophe" unicode="&#x149;" horiz-adv-x="816" 
d="M972 225c0 -34 -12 -67 -47 -88c-73 -67 -188 -172 -307 -172c-80 2 -168 64 -168 162c0 127 109 296 193 420c10 15 50 74 53 94l-2 2c-52 -4 -323 -289 -373 -344c-75 -83 -143 -170 -209 -258c-14 -18 -39 -43 -63 -43c-17 0 -80 25 -92 35c-7 4 -7 10 -7 16
c0 33 38 86 60 123c86 150 174 297 262 444c29 48 53 98 88 142c34 43 99 57 152 57c22 0 24 -22 24 -39c0 -47 -100 -184 -129 -231c96 106 250 268 404 268c51 0 94 -35 94 -90c0 -61 -121 -223 -160 -283c-33 -51 -145 -217 -145 -286c0 -32 31 -44 60 -44
c95 0 257 205 286 205c28 0 26 -72 26 -90zM630 1059c-47 -64 -153 -152 -217 -152c-32 0 -30 17 -47 25c-7 2 -11 11 -11 20c0 8 3 16 9 21c8 6 70 92 78 113c-11 10 -16 24 -16 40c0 52 56 122 130 122c77 0 102 -52 102 -98c0 -35 -12 -70 -28 -91z" />
    <glyph glyph-name="Ograve" unicode="&#xd2;" horiz-adv-x="1306" 
d="M1630 1206c0 -338 -600 -1224 -1174 -1224c-102 0 -286 96 -286 333c0 222 145 514 366 748c228 237 533 416 799 416c45 0 106 -21 106 -62c0 -12 -6 -25 -18 -41s-18 -33 -31 -45c25 6 50 8 70 8c98 0 168 -79 168 -133zM1409 1149c-86 0 -307 -201 -307 -259
c0 -5 3 -8 3 -13c0 -8 -6 -20 -15 -20c-11 0 -101 79 -101 130c0 105 170 258 334 324c-188 -11 -464 -178 -651 -389c-187 -210 -308 -462 -308 -600c0 -78 33 -158 117 -158c226 0 523 293 688 504c148 188 254 394 254 460c0 14 -5 21 -14 21zM1243 1697
c-65 131 -125 176 -125 213c0 24 76 73 140 73c48 0 46 -45 86 -180c13 -43 53 -148 53 -197c0 -22 -10 -28 -33 -28c-86 0 -104 84 -121 119z" />
    <glyph glyph-name="ograve" unicode="&#xf2;" 
d="M834 657c0 -202 -361 -684 -649 -684c-97 0 -164 76 -164 166c0 365 397 670 583 670c60 0 93 -31 93 -43v-6c14 2 26 2 34 2c47 0 103 -31 103 -105zM640 629h-7c-20 0 -35 10 -35 51c-92 -31 -207 -111 -299 -229c-86 -111 -126 -214 -127 -274c0 -35 14 -56 41 -56
c45 0 164 59 285 211c110 138 156 237 156 277c0 13 -5 20 -14 20zM532 1047c-65 131 -125 176 -125 213c0 24 76 73 140 73c48 0 46 -45 86 -180c13 -43 53 -148 53 -197c0 -22 -10 -28 -33 -28c-86 0 -104 84 -121 119z" />
    <glyph glyph-name="Oacute" unicode="&#xd3;" horiz-adv-x="1306" 
d="M1630 1206c0 -338 -600 -1224 -1174 -1224c-102 0 -286 96 -286 333c0 222 145 514 366 748c228 237 533 416 799 416c45 0 106 -21 106 -62c0 -12 -6 -25 -18 -41s-18 -33 -31 -45c25 6 50 8 70 8c98 0 168 -79 168 -133zM1409 1149c-86 0 -307 -201 -307 -259
c0 -5 3 -8 3 -13c0 -8 -6 -20 -15 -20c-11 0 -101 79 -101 130c0 105 170 258 334 324c-188 -11 -464 -178 -651 -389c-187 -210 -308 -462 -308 -600c0 -78 33 -158 117 -158c226 0 523 293 688 504c148 188 254 394 254 460c0 14 -5 21 -14 21zM1530 1836
c84 69 129 86 143 125c4 10 10 18 19 18c41 0 65 -65 65 -100c0 -64 -41 -109 -84 -137c-28 -27 -256 -164 -309 -164c-16 0 -23 16 -23 26c0 7 2 13 5 19c32 86 102 147 184 213z" />
    <glyph glyph-name="oacute" unicode="&#xf3;" 
d="M834 657c0 -202 -361 -684 -649 -684c-97 0 -164 76 -164 166c0 365 397 670 583 670c60 0 93 -31 93 -43v-6c14 2 26 2 34 2c47 0 103 -31 103 -105zM640 629h-7c-20 0 -35 10 -35 51c-92 -31 -207 -111 -299 -229c-86 -111 -126 -214 -127 -274c0 -35 14 -56 41 -56
c45 0 164 59 285 211c110 138 156 237 156 277c0 13 -5 20 -14 20zM819 1186c84 69 129 86 143 125c4 10 10 18 19 18c41 0 65 -65 65 -100c0 -64 -41 -109 -84 -137c-28 -27 -256 -164 -309 -164c-16 0 -23 16 -23 26c0 7 2 13 5 19c32 86 102 147 184 213z" />
    <glyph glyph-name="Ocircumflex" unicode="&#xd4;" horiz-adv-x="1306" 
d="M1630 1206c0 -338 -600 -1224 -1174 -1224c-102 0 -286 96 -286 333c0 222 145 514 366 748c228 237 533 416 799 416c45 0 106 -21 106 -62c0 -12 -6 -25 -18 -41s-18 -33 -31 -45c25 6 50 8 70 8c98 0 168 -79 168 -133zM1409 1149c-86 0 -307 -201 -307 -259
c0 -5 3 -8 3 -13c0 -8 -6 -20 -15 -20c-11 0 -101 79 -101 130c0 105 170 258 334 324c-188 -11 -464 -178 -651 -389c-187 -210 -308 -462 -308 -600c0 -78 33 -158 117 -158c226 0 523 293 688 504c148 188 254 394 254 460c0 14 -5 21 -14 21zM1668 1578
c-125 0 -145 142 -176 242c-63 -63 -262 -227 -334 -227c-16 0 -22 16 -22 26c0 64 102 134 186 205c70 60 103 90 146 139c7 13 30 21 55 21c122 0 112 -171 127 -209c16 -41 51 -119 51 -168c0 -22 -10 -29 -33 -29z" />
    <glyph glyph-name="ocircumflex" unicode="&#xf4;" 
d="M834 657c0 -202 -361 -684 -649 -684c-97 0 -164 76 -164 166c0 365 397 670 583 670c60 0 93 -31 93 -43v-6c14 2 26 2 34 2c47 0 103 -31 103 -105zM640 629h-7c-20 0 -35 10 -35 51c-92 -31 -207 -111 -299 -229c-86 -111 -126 -214 -127 -274c0 -35 14 -56 41 -56
c45 0 164 59 285 211c110 138 156 237 156 277c0 13 -5 20 -14 20zM957 928c-125 0 -145 142 -176 242c-63 -63 -262 -227 -334 -227c-16 0 -22 16 -22 26c0 64 102 134 186 205c70 60 103 90 146 139c7 13 30 21 55 21c122 0 112 -171 127 -209c16 -41 51 -119 51 -168
c0 -22 -10 -29 -33 -29z" />
    <glyph glyph-name="Otilde" unicode="&#xd5;" horiz-adv-x="1306" 
d="M1630 1206c0 -338 -600 -1224 -1174 -1224c-102 0 -286 96 -286 333c0 222 145 514 366 748c228 237 533 416 799 416c45 0 106 -21 106 -62c0 -12 -6 -25 -18 -41s-18 -33 -31 -45c25 6 50 8 70 8c98 0 168 -79 168 -133zM1409 1149c-86 0 -307 -201 -307 -259
c0 -5 3 -8 3 -13c0 -8 -6 -20 -15 -20c-11 0 -101 79 -101 130c0 105 170 258 334 324c-188 -11 -464 -178 -651 -389c-187 -210 -308 -462 -308 -600c0 -78 33 -158 117 -158c226 0 523 293 688 504c148 188 254 394 254 460c0 14 -5 21 -14 21zM1547 1760
c137 0 141 101 192 101c31 0 46 -43 46 -79c0 -14 -3 -27 -7 -36c-45 -90 -139 -147 -240 -147c-135 0 -163 120 -229 120c-96 0 -127 -123 -203 -123c-10 0 -22 17 -22 41c0 129 182 240 250 240c122 0 145 -117 213 -117z" />
    <glyph glyph-name="otilde" unicode="&#xf5;" 
d="M834 657c0 -202 -361 -684 -649 -684c-97 0 -164 76 -164 166c0 365 397 670 583 670c60 0 93 -31 93 -43v-6c14 2 26 2 34 2c47 0 103 -31 103 -105zM640 629h-7c-20 0 -35 10 -35 51c-92 -31 -207 -111 -299 -229c-86 -111 -126 -214 -127 -274c0 -35 14 -56 41 -56
c45 0 164 59 285 211c110 138 156 237 156 277c0 13 -5 20 -14 20zM836 1110c137 0 141 101 192 101c31 0 46 -43 46 -79c0 -14 -3 -27 -7 -36c-45 -90 -139 -147 -240 -147c-135 0 -163 120 -229 120c-96 0 -127 -123 -203 -123c-10 0 -22 17 -22 41c0 129 182 240 250 240
c122 0 145 -117 213 -117z" />
    <glyph glyph-name="Odieresis" unicode="&#xd6;" horiz-adv-x="1306" 
d="M1630 1206c0 -338 -600 -1224 -1174 -1224c-102 0 -286 96 -286 333c0 222 145 514 366 748c228 237 533 416 799 416c45 0 106 -21 106 -62c0 -12 -6 -25 -18 -41s-18 -33 -31 -45c25 6 50 8 70 8c98 0 168 -79 168 -133zM1409 1149c-86 0 -307 -201 -307 -259
c0 -5 3 -8 3 -13c0 -8 -6 -20 -15 -20c-11 0 -101 79 -101 130c0 105 170 258 334 324c-188 -11 -464 -178 -651 -389c-187 -210 -308 -462 -308 -600c0 -78 33 -158 117 -158c226 0 523 293 688 504c148 188 254 394 254 460c0 14 -5 21 -14 21zM1748 1776
c0 -76 -78 -168 -170 -168c-52 0 -76 35 -76 80c0 37 55 166 170 166c35 0 76 -18 76 -78zM1418 1778c0 -71 -70 -170 -154 -170c-39 0 -61 33 -61 84c0 55 43 168 143 168c33 0 72 -24 72 -82z" />
    <glyph glyph-name="odieresis" unicode="&#xf6;" 
d="M834 657c0 -202 -361 -684 -649 -684c-97 0 -164 76 -164 166c0 365 397 670 583 670c60 0 93 -31 93 -43v-6c14 2 26 2 34 2c47 0 103 -31 103 -105zM640 629h-7c-20 0 -35 10 -35 51c-92 -31 -207 -111 -299 -229c-86 -111 -126 -214 -127 -274c0 -35 14 -56 41 -56
c45 0 164 59 285 211c110 138 156 237 156 277c0 13 -5 20 -14 20zM1037 1126c0 -76 -78 -168 -170 -168c-52 0 -76 35 -76 80c0 37 55 166 170 166c35 0 76 -18 76 -78zM707 1128c0 -71 -70 -170 -154 -170c-39 0 -61 33 -61 84c0 55 43 168 143 168c33 0 72 -24 72 -82z
" />
    <glyph glyph-name="Omacron" unicode="&#x14c;" horiz-adv-x="1306" 
d="M1630 1206c0 -338 -600 -1224 -1174 -1224c-102 0 -286 96 -286 333c0 222 145 514 366 748c228 237 533 416 799 416c45 0 106 -21 106 -62c0 -12 -6 -25 -18 -41s-18 -33 -31 -45c25 6 50 8 70 8c98 0 168 -79 168 -133zM1409 1149c-86 0 -307 -201 -307 -259
c0 -5 3 -8 3 -13c0 -8 -6 -20 -15 -20c-11 0 -101 79 -101 130c0 105 170 258 334 324c-188 -11 -464 -178 -651 -389c-187 -210 -308 -462 -308 -600c0 -78 33 -158 117 -158c226 0 523 293 688 504c148 188 254 394 254 460c0 14 -5 21 -14 21zM1505 1662
c-113 0 -164 -2 -260 -8c-6 0 -8 -2 -15 -2c-14 0 -18 18 -18 40c0 116 39 136 72 136c98 0 114 -10 213 -10c75 0 121 8 196 26c4 2 11 2 17 2c18 0 22 -35 22 -53c0 -135 -146 -131 -227 -131z" />
    <glyph glyph-name="omacron" unicode="&#x14d;" 
d="M834 657c0 -202 -361 -684 -649 -684c-97 0 -164 76 -164 166c0 365 397 670 583 670c60 0 93 -31 93 -43v-6c14 2 26 2 34 2c47 0 103 -31 103 -105zM640 629h-7c-20 0 -35 10 -35 51c-92 -31 -207 -111 -299 -229c-86 -111 -126 -214 -127 -274c0 -35 14 -56 41 -56
c45 0 164 59 285 211c110 138 156 237 156 277c0 13 -5 20 -14 20zM794 1012c-113 0 -164 -2 -260 -8c-6 0 -8 -2 -15 -2c-14 0 -18 18 -18 40c0 116 39 136 72 136c98 0 114 -10 213 -10c75 0 121 8 196 26c4 2 11 2 17 2c18 0 22 -35 22 -53c0 -135 -146 -131 -227 -131z
" />
    <glyph glyph-name="Obreve" unicode="&#x14e;" horiz-adv-x="1306" 
d="M1630 1206c0 -338 -600 -1224 -1174 -1224c-102 0 -286 96 -286 333c0 222 145 514 366 748c228 237 533 416 799 416c45 0 106 -21 106 -62c0 -12 -6 -25 -18 -41s-18 -33 -31 -45c25 6 50 8 70 8c98 0 168 -79 168 -133zM1409 1149c-86 0 -307 -201 -307 -259
c0 -5 3 -8 3 -13c0 -8 -6 -20 -15 -20c-11 0 -101 79 -101 130c0 105 170 258 334 324c-188 -11 -464 -178 -651 -389c-187 -210 -308 -462 -308 -600c0 -78 33 -158 117 -158c226 0 523 293 688 504c148 188 254 394 254 460c0 14 -5 21 -14 21zM1157 1942
c63 -1 77 -80 111 -137c17 -29 56 -45 90 -45c162 0 221 188 318 188c16 0 53 -43 53 -64c0 -38 -172 -286 -352 -286c-154 0 -261 141 -261 293c0 22 19 51 41 51z" />
    <glyph glyph-name="obreve" unicode="&#x14f;" 
d="M834 657c0 -202 -361 -684 -649 -684c-97 0 -164 76 -164 166c0 365 397 670 583 670c60 0 93 -31 93 -43v-6c14 2 26 2 34 2c47 0 103 -31 103 -105zM640 629h-7c-20 0 -35 10 -35 51c-92 -31 -207 -111 -299 -229c-86 -111 -126 -214 -127 -274c0 -35 14 -56 41 -56
c45 0 164 59 285 211c110 138 156 237 156 277c0 13 -5 20 -14 20zM486 1272c63 -1 77 -80 111 -137c17 -29 56 -45 90 -45c162 0 221 188 318 188c16 0 53 -43 53 -64c0 -38 -172 -286 -352 -286c-154 0 -261 141 -261 293c0 22 19 51 41 51z" />
    <glyph glyph-name="Ohungarumlaut" unicode="&#x150;" horiz-adv-x="1306" 
d="M1630 1206c0 -338 -600 -1224 -1174 -1224c-102 0 -286 96 -286 333c0 222 145 514 366 748c228 237 533 416 799 416c45 0 106 -21 106 -62c0 -12 -6 -25 -18 -41s-18 -33 -31 -45c25 6 50 8 70 8c98 0 168 -79 168 -133zM1409 1149c-86 0 -307 -201 -307 -259
c0 -5 3 -8 3 -13c0 -8 -6 -20 -15 -20c-11 0 -101 79 -101 130c0 105 170 258 334 324c-188 -11 -464 -178 -651 -389c-187 -210 -308 -462 -308 -600c0 -78 33 -158 117 -158c226 0 523 293 688 504c148 188 254 394 254 460c0 14 -5 21 -14 21zM1338 1826
c68 75 97 100 101 137c2 14 12 18 22 18c60 0 80 -82 80 -102c0 -45 -27 -82 -57 -111c-27 -33 -209 -190 -252 -190c-17 0 -23 18 -23 26c0 60 68 152 129 222zM1644 1836c69 57 88 123 120 123c41 0 66 -66 66 -101c0 -63 -41 -108 -84 -137c-29 -27 -215 -143 -268 -143
c-17 0 -23 16 -23 26c0 7 2 13 4 19c33 86 103 147 185 213z" />
    <glyph glyph-name="ohungarumlaut" unicode="&#x151;" 
d="M834 657c0 -202 -361 -684 -649 -684c-97 0 -164 76 -164 166c0 365 397 670 583 670c60 0 93 -31 93 -43v-6c14 2 26 2 34 2c47 0 103 -31 103 -105zM640 629h-7c-20 0 -35 10 -35 51c-92 -31 -207 -111 -299 -229c-86 -111 -126 -214 -127 -274c0 -35 14 -56 41 -56
c45 0 164 59 285 211c110 138 156 237 156 277c0 13 -5 20 -14 20zM627 1176c68 75 97 100 101 137c2 14 12 18 22 18c60 0 80 -82 80 -102c0 -45 -27 -82 -57 -111c-27 -33 -209 -190 -252 -190c-17 0 -23 18 -23 26c0 60 68 152 129 222zM933 1186c69 57 88 123 120 123
c41 0 66 -66 66 -101c0 -63 -41 -108 -84 -137c-29 -27 -215 -143 -268 -143c-17 0 -23 16 -23 26c0 7 2 13 4 19c33 86 103 147 185 213z" />
    <glyph glyph-name="Oslashacute" unicode="&#x1fe;" horiz-adv-x="1306" 
d="M1651 1552c0 -22 6 -55 -25 -100c-27 -39 -59 -81 -96 -126c61 -25 100 -80 100 -120c0 -338 -600 -1224 -1174 -1224c-26 0 -58 6 -90 19c-53 -70 -100 -138 -139 -202c-12 -20 -14 -49 -41 -49c-34 0 -55 76 -55 121c0 94 4 111 43 166c17 25 35 50 54 75
c-35 51 -58 118 -58 203c0 222 145 514 366 748c228 237 533 416 799 416c33 0 76 -12 95 -35c56 58 110 114 161 168c9 8 21 24 35 24c19 0 25 -43 25 -84zM364 322c0 -11 0 -22 2 -32c270 333 622 697 933 1018c-187 -22 -448 -184 -627 -386
c-187 -210 -308 -462 -308 -600zM1423 1128c0 24 -2 45 -6 64c-258 -296 -638 -681 -923 -1028c224 12 513 297 675 504c148 188 254 394 254 460zM1427 1838c84 69 129 86 143 125c4 10 10 18 19 18c41 0 65 -65 65 -100c0 -64 -41 -109 -84 -137
c-28 -27 -256 -164 -309 -164c-16 0 -23 16 -23 26c0 7 2 13 5 19c32 86 102 147 184 213z" />
    <glyph glyph-name="oslashacute" unicode="&#x1ff;" 
d="M996 1016c0 -15 -11 -32 -33 -63c-46 -66 -106 -133 -176 -207c27 -16 47 -45 47 -89c0 -202 -361 -684 -649 -684c-23 0 -44 5 -63 12c-43 -63 -86 -130 -127 -201c-8 -14 -9 -34 -28 -34c-24 0 -31 38 -31 70c0 66 1 80 30 117c28 36 56 71 84 106
c-19 27 -29 60 -29 96c0 365 397 670 583 670c44 0 74 -17 86 -31c90 97 177 189 264 280c6 6 14 17 24 17c14 0 18 -30 18 -59zM498 332c110 138 156 237 156 277c-132 -135 -283 -292 -432 -488c50 7 162 68 276 211zM299 451c-79 -102 -119 -196 -126 -258
c148 179 289 338 425 486v1c-92 -31 -207 -111 -299 -229zM730 1187c84 69 129 86 143 125c4 10 10 18 19 18c41 0 65 -65 65 -100c0 -64 -41 -109 -84 -137c-28 -27 -256 -164 -309 -164c-16 0 -23 16 -23 26c0 7 2 13 5 19c32 86 102 147 184 213z" />
    <glyph glyph-name="Racute" unicode="&#x154;" horiz-adv-x="1502" 
d="M1782 1145c0 -287 -434 -494 -744 -561c124 -129 395 -534 515 -534c13 0 26 12 33 12c6 0 11 -5 11 -11c0 -4 -3 -9 -8 -14c-75 -84 -96 -115 -170 -115c-147 0 -440 447 -583 631c-97 -152 -248 -383 -301 -496c-17 -37 -42 -42 -68 -42c-12 0 -24 1 -35 1
c-12 0 -21 -1 -30 -1c-20 0 -62 7 -62 52c0 25 11 63 37 119c41 88 661 989 715 1041c18 17 26 24 41 28c4 2 10 9 16 9c8 0 12 -3 18 -3s13 3 17 3c12 0 16 -9 26 -17c26 -19 42 -34 42 -56c0 -12 -4 -24 -13 -40c-19 -35 -188 -272 -289 -418c224 10 656 275 656 432
c0 86 -191 121 -295 121c-205 0 -484 -90 -613 -162c-85 -48 -133 -96 -133 -111c0 -6 18 -7 26 -7c9 0 21 4 46 20c1 1 3 1 4 1c8 0 15 -8 15 -17c0 -4 -2 -8 -5 -11c-69 -69 -131 -84 -194 -84c-27 0 -90 37 -90 105c0 40 21 87 80 147c103 104 466 275 835 275
c416 0 500 -219 500 -297zM1459 1799c84 69 129 86 143 125c4 10 10 18 19 18c41 0 65 -65 65 -100c0 -64 -41 -109 -84 -137c-28 -27 -256 -164 -309 -164c-16 0 -23 16 -23 26c0 7 2 13 5 19c32 86 102 147 184 213z" />
    <glyph glyph-name="racute" unicode="&#x155;" horiz-adv-x="715" 
d="M885 723c0 -57 -119 -231 -158 -283c-14 -18 -31 -32 -57 -32c-43 0 -66 38 -66 77c0 58 39 115 74 156l-2 2c-52 -4 -323 -289 -373 -344c-75 -82 -145 -169 -211 -258c-13 -18 -38 -43 -61 -43c-17 0 -82 25 -92 35c-7 4 -7 10 -7 16c0 35 38 85 60 123
c86 150 174 297 262 444c29 48 53 98 88 142c34 43 99 57 152 57c20 0 24 -22 24 -39c0 -47 -100 -184 -129 -231c94 106 250 268 402 268c53 0 94 -35 94 -90zM798 1186c84 69 129 86 143 125c4 10 10 18 19 18c41 0 65 -65 65 -100c0 -64 -41 -109 -84 -137
c-28 -27 -256 -164 -309 -164c-16 0 -23 16 -23 26c0 7 2 13 5 19c32 86 102 147 184 213z" />
    <glyph glyph-name="Rcommaaccent" unicode="&#x156;" horiz-adv-x="1502" 
d="M1782 1145c0 -287 -434 -494 -744 -561c124 -129 395 -534 515 -534c13 0 26 12 33 12c6 0 11 -5 11 -11c0 -4 -3 -9 -8 -14c-75 -84 -96 -115 -170 -115c-147 0 -440 447 -583 631c-97 -152 -248 -383 -301 -496c-17 -37 -42 -42 -68 -42c-12 0 -24 1 -35 1
c-12 0 -21 -1 -30 -1c-20 0 -62 7 -62 52c0 25 11 63 37 119c41 88 661 989 715 1041c18 17 26 24 41 28c4 2 10 9 16 9c8 0 12 -3 18 -3s13 3 17 3c12 0 16 -9 26 -17c26 -19 42 -34 42 -56c0 -12 -4 -24 -13 -40c-19 -35 -188 -272 -289 -418c224 10 656 275 656 432
c0 86 -191 121 -295 121c-205 0 -484 -90 -613 -162c-85 -48 -133 -96 -133 -111c0 -6 18 -7 26 -7c9 0 21 4 46 20c1 1 3 1 4 1c8 0 15 -8 15 -17c0 -4 -2 -8 -5 -11c-69 -69 -131 -84 -194 -84c-27 0 -90 37 -90 105c0 40 21 87 80 147c103 104 466 275 835 275
c416 0 500 -219 500 -297zM902 -240c0 -103 -155 -243 -245 -243c-32 0 -30 17 -47 25c-7 2 -11 11 -11 20c0 8 3 16 9 21c7 5 103 29 103 75c0 27 -43 39 -43 83c0 74 70 117 132 117c77 0 102 -52 102 -98z" />
    <glyph glyph-name="rcommaaccent" unicode="&#x157;" horiz-adv-x="715" 
d="M885 723c0 -57 -119 -231 -158 -283c-14 -18 -31 -32 -57 -32c-43 0 -66 38 -66 77c0 58 39 115 74 156l-2 2c-52 -4 -323 -289 -373 -344c-75 -82 -145 -169 -211 -258c-13 -18 -38 -43 -61 -43c-17 0 -82 25 -92 35c-7 4 -7 10 -7 16c0 35 38 85 60 123
c86 150 174 297 262 444c29 48 53 98 88 142c34 43 99 57 152 57c20 0 24 -22 24 -39c0 -47 -100 -184 -129 -231c94 106 250 268 402 268c53 0 94 -35 94 -90zM36 -240c0 -103 -155 -243 -245 -243c-32 0 -30 17 -47 25c-7 2 -11 11 -11 20c0 8 3 16 9 21
c7 5 103 29 103 75c0 27 -43 39 -43 83c0 74 70 117 132 117c77 0 102 -52 102 -98z" />
    </font>
</defs>
</svg>
