<svg xmlns="http://www.w3.org/2000/svg">
<defs>
<font id="Edwin-Bold" horiz-adv-x="1000" >
  <font-face 
    font-family="Edwin"
    font-weight="700"
    font-stretch="normal"
    units-per-em="1000"
    panose-1="0 0 8 0 0 0 0 0 0 0"
    ascent="737"
    descent="-263"
    x-height="473"
    cap-height="722"
    bbox="-437 -372 1210 1170"
    underline-thickness="90"
    underline-position="-110"
    stemh="52"
    stemv="158"
    unicode-range="U+0020-1D12B"
  />
<missing-glyph horiz-adv-x="500" 
d="M50 0v491h400v-491h-400zM100 50h300v391h-300v-391z" />
    <glyph glyph-name="afii61352" unicode="Nr&#x2e;" horiz-adv-x="1116" 
d="M270 722l386 -452v235c2 129 -17 159 -108 163v54h285v-54c-92 -4 -112 -34 -110 -163v-512h-67l-465 553v-329c-2 -129 17 -158 110 -163v-54h-285v54c91 5 110 34 108 163v394c-26 36 -61 55 -106 56v55h252zM949 488c90 0 161 -66 161 -151s-70 -148 -164 -148
s-162 63 -162 149s70 150 165 150zM948 442c-35 0 -53 -35 -53 -104c0 -68 18 -103 52 -103c33 0 52 37 52 102c0 69 -18 105 -51 105zM784 138h326v-80h-326v80z" />
    <glyph glyph-name="ff" unicode="ff" horiz-adv-x="742" 
d="M365 473v-60h-125v-269v-50c0 -37 9 -42 75 -44h18v-50h-330v50h4c44 1 63 5 70 14c4 5 5 12 6 25v55v269h-87v60h87v13c0 148 87 247 218 247c83 0 145 -47 145 -109c0 -47 -34 -82 -80 -82c-42 0 -75 30 -75 69c0 20 10 41 25 53c4 4 5 6 5 9c0 5 -6 8 -16 8
c-20 0 -43 -17 -53 -40c-10 -22 -12 -44 -12 -111v-57h125zM754 473v-60h-125v-269v-51c0 -36 9 -41 75 -43h18v-50h-330v50h4c44 1 63 5 70 14c4 5 5 12 6 25v8v47v269h-87v60h87v13c0 148 87 247 218 247c83 0 145 -47 145 -109c0 -47 -34 -82 -80 -82
c-43 0 -75 30 -75 69c0 20 10 41 25 53c4 4 5 6 5 9c0 5 -6 8 -16 8c-20 0 -43 -17 -53 -40c-10 -22 -12 -44 -12 -111v-57h125z" />
    <glyph glyph-name="fi" unicode="fi" horiz-adv-x="685" 
d="M255 413v-268v-50c2 -40 6 -42 72 -44v-51h-306v51h4c43 1 61 5 67 14c4 5 5 11 6 25v8v47v268h-83v60h83v13c0 82 20 136 68 178c53 47 124 69 223 69c124 0 191 -37 191 -106c0 -49 -35 -82 -86 -82c-48 0 -80 29 -80 72c0 12 2 22 8 34c4 8 5 11 5 15
c0 13 -12 20 -38 20c-41 0 -78 -15 -100 -41c-24 -29 -34 -67 -34 -136v-36h174c46 0 81 2 163 7v-335v-50c0 -37 8 -42 69 -44h6v-51h-307v51h4c42 1 59 5 65 14c4 6 5 11 6 26v7v47v174c0 88 -3 93 -62 94h-118z" />
    <glyph glyph-name="fl" unicode="fl" horiz-adv-x="685" 
d="M435 413h-180v-268v-50c2 -40 6 -42 72 -44v-51h-306v51h4c43 1 61 5 67 14c4 5 5 11 6 25v8v47v268h-83v60h83v13c0 82 21 136 68 178s127 69 205 69c37 0 83 -6 117 -16l104 20v-592v-50c0 -37 8 -42 69 -44h5v-51h-306v51h4c42 1 59 5 65 14c4 6 5 11 6 26v7v47v268z
M435 473v90c-24 7 -40 29 -40 56c0 13 5 29 13 40c6 7 7 10 7 12c1 10 -10 15 -33 15c-39 0 -72 -14 -93 -41c-25 -29 -34 -67 -34 -136v-36h180z" />
    <glyph glyph-name="ffi" unicode="ffi" horiz-adv-x="1035" 
d="M255 413v-268v-50c2 -40 6 -42 72 -44v-51h-306v51h4c43 1 61 5 67 14c4 5 5 11 6 25v8v47v268h-83v60h83v13c0 82 20 136 68 178c53 47 124 69 223 69c80 0 132 -14 164 -42c49 29 107 42 186 42c124 0 191 -37 191 -106c0 -49 -35 -82 -86 -82c-47 0 -80 29 -80 72
c0 12 2 22 8 34c4 8 5 11 5 15c0 14 -12 20 -38 20c-41 0 -78 -15 -100 -41c-24 -28 -34 -68 -34 -136v-36h174c46 0 81 2 163 7v-335v-50c0 -37 8 -42 69 -44h6v-51h-307v51h4c42 1 59 5 65 14c4 5 5 11 6 26v54v174c0 88 -3 93 -62 94h-118v-268v-50c2 -40 6 -42 72 -44
v-51h-306v51h4c43 1 61 5 67 14c4 6 6 11 6 25v26v29v268h-193zM255 473h193v13c0 24 2 50 6 67c-25 12 -40 36 -40 64c0 12 2 22 8 34c4 8 5 11 5 15c0 13 -12 20 -37 20c-42 0 -79 -15 -101 -41c-24 -29 -34 -67 -34 -136v-36z" />
    <glyph glyph-name="ffl" unicode="ffl" horiz-adv-x="1025" 
d="M98 473v13c0 82 20 136 68 178c52 46 124 69 222 69c77 0 130 -13 161 -39c45 25 104 39 162 39c37 0 83 -6 117 -16l104 20v-592v-50c0 -37 8 -42 69 -44h5v-51h-306v51h4c42 1 59 5 65 14c4 5 5 11 6 26v54v268h-180v-268v-50c2 -40 6 -42 72 -44v-51h-306v51h4
c43 1 61 5 67 14c4 5 5 11 6 25v27v28v268h-183v-268v-50c2 -40 6 -42 72 -44v-51h-306v51h4c43 1 61 5 67 14c4 5 5 11 6 25v8v47v268h-83v60h83zM438 473v13c0 25 2 53 7 72c-21 15 -31 35 -31 59c0 12 2 22 8 34c4 8 5 11 5 15c0 13 -12 20 -37 20
c-42 0 -79 -15 -101 -41c-24 -28 -34 -67 -34 -136v-36h183zM775 473v90c-25 7 -40 29 -40 56c0 13 5 29 13 40c6 8 7 10 7 13c0 10 -10 14 -33 14c-40 0 -72 -14 -93 -41c-24 -29 -34 -68 -34 -136v-36h180z" />
    <glyph glyph-name=".notdef" horiz-adv-x="500" 
d="M50 0v491h400v-491h-400zM100 50h300v391h-300v-391z" />
    <glyph glyph-name="space" unicode=" " horiz-adv-x="287" 
 />
    <glyph glyph-name="exclam" unicode="!" horiz-adv-x="296" 
d="M177 228h-53c-6 145 -13 188 -53 320c-9 30 -14 63 -14 89c0 63 34 100 93 100c60 0 94 -37 94 -100c0 -39 -2 -48 -34 -158c-19 -64 -29 -142 -33 -251zM150 172c52 0 94 -42 94 -93c0 -53 -42 -94 -95 -94c-50 0 -92 43 -92 94s42 93 93 93z" />
    <glyph glyph-name="quotedbl" unicode="&#x22;" horiz-adv-x="333" 
d="M79 416h-46l-42 219c-2 12 -3 23 -3 33c0 40 29 69 68 69s68 -29 68 -70c0 -9 -1 -20 -3 -32zM301 416h-46l-42 219c-2 12 -3 23 -3 33c0 40 29 69 68 69c40 0 68 -29 68 -70c0 -9 -1 -20 -3 -32z" />
    <glyph glyph-name="numbersign" unicode="#" horiz-adv-x="574" 
d="M135 220h-94v83h106l16 108h-96v83h107l30 206h90l-30 -206h86l29 206h90l-29 -206h93v-83h-105l-15 -108h94v-83h-106l-32 -220h-90l32 220h-86l-32 -220h-90zM253 411l-16 -108h85l16 108h-85z" />
    <glyph glyph-name="dollar" unicode="$" horiz-adv-x="574" 
d="M319 433l26 -8c144 -44 204 -107 204 -214c0 -125 -83 -206 -230 -223v-125h-58v123c-23 2 -37 3 -55 7c-117 23 -181 80 -181 160c0 55 35 94 86 94c46 0 81 -31 81 -73c0 -27 -14 -58 -35 -74c-5 -5 -7 -7 -7 -11c0 -22 52 -44 111 -48v238l-34 11
c-127 39 -182 96 -182 190c0 85 46 158 123 195c26 13 45 18 93 24v102h58v-101c134 -9 219 -64 219 -143c0 -53 -36 -90 -87 -90c-43 0 -76 31 -76 71c0 18 6 37 17 54c5 7 6 9 6 15c0 20 -28 34 -79 39v-213zM261 451v194c-65 -11 -96 -42 -96 -96c0 -47 27 -77 83 -94z
M319 261v-217c20 2 31 5 43 10c38 15 62 53 62 95c0 55 -29 89 -95 109z" />
    <glyph glyph-name="percent" unicode="%" horiz-adv-x="833" 
d="M651 722l-414 -722h-51l349 612c-42 -14 -66 -18 -103 -18c-25 0 -39 2 -65 9c2 -15 3 -22 3 -31c0 -57 -29 -129 -71 -180c-44 -53 -92 -77 -149 -77c-77 0 -133 54 -133 128c0 69 46 160 106 213c40 33 85 52 129 52c41 0 68 -13 94 -48c27 -13 55 -19 92 -19
c74 0 123 23 167 81h46zM266 658c-37 -13 -49 -25 -85 -89c-44 -78 -60 -118 -60 -153c0 -32 21 -54 51 -54c76 0 158 114 158 219c0 14 -2 25 -6 39c-26 9 -41 19 -58 38zM699 407c71 0 122 -52 122 -124c0 -60 -30 -136 -76 -194c-38 -48 -90 -75 -144 -75
c-79 0 -135 52 -135 126c0 57 27 126 69 179c47 57 104 88 164 88zM724 355c-28 0 -54 -21 -83 -70c-51 -84 -72 -134 -72 -171c0 -30 22 -53 51 -53c77 0 161 114 161 218c0 42 -25 76 -57 76z" />
    <glyph glyph-name="ampersand" unicode="&#x26;" horiz-adv-x="852" 
d="M797 408v-54c-70 -2 -94 -18 -133 -94c-27 -49 -35 -63 -63 -101c34 -45 66 -66 102 -66c34 0 58 29 69 84l50 -11c-4 -37 -13 -63 -30 -92c-38 -63 -84 -89 -154 -89c-62 0 -114 22 -158 66c-63 -46 -130 -67 -211 -67c-75 0 -137 22 -176 63c-35 37 -54 83 -54 132
c0 75 41 140 119 186c25 15 45 25 83 42c-29 59 -39 96 -39 144c0 49 23 100 59 133c39 35 92 53 158 53c108 0 181 -57 181 -143c0 -43 -21 -84 -57 -113c-32 -25 -57 -39 -118 -64c51 -87 116 -185 140 -211c34 42 48 71 48 99c0 34 -26 48 -89 49v54h273zM265 357
c-37 -23 -56 -56 -56 -99c0 -27 8 -57 23 -87c34 -69 82 -104 142 -104c25 0 42 5 66 22c-74 90 -132 179 -175 268zM397 464c64 28 93 67 93 125c0 56 -33 96 -78 96c-40 0 -70 -32 -70 -75c0 -38 15 -77 55 -146z" />
    <glyph glyph-name="quotesingle" unicode="'" horiz-adv-x="241" 
d="M143 416h-46l-42 219c-2 12 -3 23 -3 33c0 40 29 69 68 69s68 -29 68 -70c0 -9 -1 -20 -3 -32z" />
    <glyph glyph-name="parenleft" unicode="(" horiz-adv-x="389" 
d="M338 -68v-50c-73 38 -118 75 -165 135c-66 84 -101 186 -101 293c0 114 41 223 116 311c45 52 83 81 150 116v-50c-55 -39 -79 -69 -102 -129c-26 -66 -39 -150 -39 -248c0 -110 16 -202 47 -269c22 -48 45 -74 94 -109z" />
    <glyph glyph-name="parenright" unicode=")" horiz-adv-x="389" 
d="M50 687v50c73 -38 118 -74 165 -135c66 -84 101 -186 101 -292c0 -115 -41 -224 -116 -312c-45 -52 -83 -81 -150 -116v50c55 38 79 69 102 129c26 66 39 150 39 249c0 109 -16 201 -47 268c-22 48 -45 74 -94 109z" />
    <glyph glyph-name="asterisk" unicode="*" horiz-adv-x="500" 
d="M239 495l-17 -9c-28 -18 -36 -27 -63 -67c-15 -23 -34 -35 -56 -35c-26 0 -47 20 -47 46c0 21 13 40 33 49c13 5 16 6 55 9c25 1 44 7 66 20l16 9l-16 9c-30 17 -39 19 -90 22c-39 3 -64 25 -64 56c0 26 21 46 47 46c27 0 39 -9 69 -54c14 -21 28 -34 51 -47l16 -10v19
c-1 35 -4 43 -26 89c-7 13 -10 26 -10 37c0 29 22 53 48 53c28 0 49 -24 49 -53c0 -15 -1 -19 -20 -59c-12 -23 -16 -41 -16 -67v-19l16 10c30 18 36 24 64 66c16 24 34 35 56 35c26 0 47 -20 47 -46c0 -21 -12 -39 -33 -49c-11 -5 -14 -5 -55 -9c-26 -2 -43 -7 -66 -19
l-16 -10l16 -9c31 -17 41 -20 90 -22c38 -3 64 -25 64 -57c0 -24 -20 -43 -45 -43c-27 0 -38 9 -71 53c-14 20 -29 34 -51 46l-16 10v-19c1 -34 4 -44 26 -89c6 -13 9 -25 9 -37c0 -30 -21 -53 -48 -53s-48 24 -48 53c0 15 2 20 20 59c11 23 15 41 16 67v19z" />
    <glyph glyph-name="plus" unicode="+" horiz-adv-x="606" 
d="M246 195h-195v115h195v195h115v-195h194v-115h-194v-195h-115v195z" />
    <glyph glyph-name="comma" unicode="," horiz-adv-x="278" 
d="M67 -186l-27 41c62 43 99 91 99 129c0 4 -1 6 -4 6h-4c-3 -1 -6 -1 -9 -1c-47 0 -83 37 -83 86c0 55 42 98 96 98c60 0 101 -49 101 -120c0 -90 -58 -172 -169 -239z" />
    <glyph glyph-name="hyphen" unicode="-" horiz-adv-x="333" 
d="M42 310h249v-130h-249v130z" />
    <glyph glyph-name="period" unicode="." horiz-adv-x="278" 
d="M139 173c52 0 94 -42 94 -94s-42 -94 -95 -94c-51 0 -93 43 -93 94c0 52 42 94 94 94z" />
    <glyph glyph-name="slash" unicode="/" horiz-adv-x="278" 
d="M228 737h74l-251 -752h-74z" />
    <glyph glyph-name="zero" unicode="0" horiz-adv-x="574" 
d="M287 708c67 0 126 -30 173 -87c59 -74 86 -161 86 -279c0 -203 -112 -356 -259 -356c-150 0 -260 153 -260 361s110 361 260 361zM286 656c-35 0 -59 -21 -70 -61c-9 -34 -17 -143 -17 -248c0 -120 8 -226 21 -259c12 -33 35 -50 66 -50c34 0 58 21 69 61
c9 34 17 142 17 245c0 124 -8 229 -21 262c-11 32 -35 50 -65 50z" />
    <glyph glyph-name="one" unicode="1" horiz-adv-x="574" 
d="M371 708v-564c0 -61 0 -65 7 -75c9 -11 28 -15 81 -15h32v-54h-399v54h32c54 0 74 4 83 15c7 10 7 13 7 75v355c1 82 0 84 -89 84h-42v56c119 2 190 22 253 69h35z" />
    <glyph glyph-name="two" unicode="2" horiz-adv-x="574" 
d="M477 266h54l-23 -270c-30 3 -42 4 -61 4h-376c-15 0 -26 -1 -52 -4v47c50 72 89 117 201 236c106 113 138 172 138 255c0 74 -40 117 -110 117c-50 0 -104 -34 -104 -66c0 -8 5 -14 16 -19c46 -22 65 -47 65 -90c0 -52 -33 -85 -85 -85c-60 0 -99 45 -99 115
c0 114 105 202 241 202c141 0 246 -81 246 -188c0 -47 -20 -100 -54 -145c-29 -37 -58 -59 -199 -150c-39 -26 -65 -45 -100 -75h193c63 1 65 1 75 8c8 5 14 18 23 58z" />
    <glyph glyph-name="three" unicode="3" horiz-adv-x="574" 
d="M351 368c53 -7 76 -14 105 -30c46 -27 74 -82 74 -145c0 -64 -30 -125 -76 -157s-115 -50 -188 -50c-144 0 -242 69 -242 170c0 56 36 95 90 95c49 0 86 -36 86 -83c0 -29 -7 -42 -37 -70c-6 -6 -9 -12 -9 -18c0 -21 44 -42 86 -42c74 0 116 57 116 158
c0 94 -31 142 -93 142c-7 0 -13 -1 -36 -3c-17 -2 -23 -3 -30 -3c-21 0 -36 15 -36 38c0 22 12 33 37 33c11 0 18 -1 40 -6c16 -4 26 -5 34 -5c49 0 78 53 78 140c0 78 -37 124 -100 124c-39 0 -76 -19 -76 -38c0 -4 2 -7 7 -12c28 -27 39 -48 39 -75c0 -47 -33 -79 -81 -79
c-51 0 -90 39 -90 91c0 38 20 80 53 109c42 37 101 56 174 56c142 0 236 -71 236 -177c0 -59 -30 -108 -83 -136c-22 -11 -39 -17 -78 -27z" />
    <glyph glyph-name="four" unicode="4" horiz-adv-x="574" 
d="M446 248h100v-67h-100v-37c0 -62 0 -65 7 -76c7 -9 28 -13 72 -14h11v-54h-341v54h11c47 0 68 4 76 14c7 10 7 14 7 76v37h-270v74l364 453h69c-4 -72 -6 -137 -6 -152v-308zM289 248v250l-197 -250h197z" />
    <glyph glyph-name="five" unicode="5" horiz-adv-x="574" 
d="M83 380l6 72c12 164 12 172 17 256c61 -13 111 -17 195 -17c80 0 145 5 181 14c6 2 12 3 16 3c5 0 8 -4 8 -11c0 -22 -15 -59 -34 -84c-37 -49 -106 -77 -189 -77c-39 0 -78 5 -126 15l-15 -129c67 30 97 38 144 38c144 0 249 -96 249 -226c0 -148 -112 -248 -276 -248
c-138 0 -228 65 -228 165c0 62 38 102 96 102c51 0 85 -32 85 -82c0 -34 -14 -53 -54 -72c-9 -5 -12 -8 -12 -14c0 -21 43 -42 88 -42c80 0 123 64 123 186c0 108 -38 163 -113 163c-42 0 -80 -13 -111 -38c1 -6 2 -12 2 -16c0 -22 -19 -40 -41 -40c-21 0 -37 16 -37 37
c0 16 3 21 26 45z" />
    <glyph glyph-name="six" unicode="6" horiz-adv-x="574" 
d="M202 361c42 48 81 66 146 66c119 0 201 -84 201 -204c0 -138 -107 -237 -254 -237c-82 0 -149 31 -198 91c-47 58 -68 129 -68 229c0 119 27 211 86 288c58 77 132 114 228 114c114 0 187 -54 187 -140c0 -55 -36 -90 -93 -90c-52 0 -88 32 -88 77c0 20 7 42 20 59
c7 9 8 12 8 19c0 14 -18 23 -43 23c-51 0 -89 -44 -112 -126c-10 -41 -20 -121 -20 -169zM296 352c-38 2 -69 -25 -80 -68c-5 -23 -8 -54 -8 -90c0 -103 31 -161 85 -161c53 0 82 63 82 179c0 90 -27 138 -79 140z" />
    <glyph glyph-name="seven" unicode="7" horiz-adv-x="574" 
d="M546 708v-42c-149 -317 -169 -385 -168 -570c0 -71 -36 -110 -99 -110c-56 0 -92 38 -92 98c0 31 8 64 28 108c24 55 24 55 102 177l50 78l68 101l-39 -1c-50 -1 -83 -2 -93 -2c-24 0 -86 2 -114 3c-7 1 -13 1 -17 1c-36 0 -43 -13 -62 -101l-10 -45l-55 6l34 299
c108 -12 145 -14 240 -14c104 0 160 3 227 14z" />
    <glyph glyph-name="eight" unicode="8" horiz-adv-x="574" 
d="M403 411c97 -40 143 -102 143 -196c0 -137 -109 -229 -270 -229c-152 0 -249 69 -249 177c0 58 27 104 77 130c17 9 30 13 61 23c-79 42 -116 100 -116 179c0 130 100 213 255 213c130 0 217 -62 217 -154c0 -47 -22 -88 -61 -115c-14 -10 -28 -17 -57 -28zM347 432
c32 27 49 65 49 110c0 70 -42 114 -109 114c-62 0 -108 -41 -108 -96c0 -44 30 -85 76 -102c19 -7 50 -16 92 -26zM219 289c-45 -36 -62 -70 -62 -123c0 -80 49 -128 130 -128c79 0 135 49 135 117c0 51 -24 78 -87 100c-25 8 -75 23 -116 34z" />
    <glyph glyph-name="nine" unicode="9" horiz-adv-x="574" 
d="M369 329c-42 -47 -84 -66 -146 -66c-114 0 -198 87 -198 205c0 139 105 240 250 240c84 0 157 -37 208 -105c42 -57 62 -125 62 -217c0 -110 -26 -205 -75 -279c-53 -79 -136 -121 -239 -121c-113 0 -186 50 -186 128c0 58 40 100 95 100c50 0 84 -33 84 -81
c0 -22 -2 -28 -20 -57c-4 -6 -6 -12 -6 -18c0 -13 12 -20 33 -20c58 0 94 33 118 105c14 47 20 99 20 186zM283 656c-56 0 -85 -56 -85 -165c0 -50 5 -85 17 -110c12 -26 39 -43 67 -43c51 0 83 56 83 144c0 47 -9 100 -22 129c-12 29 -34 45 -60 45z" />
    <glyph glyph-name="colon" unicode=":" horiz-adv-x="278" 
d="M150 172c52 0 94 -42 94 -93c0 -53 -42 -94 -95 -94c-50 0 -92 43 -92 94s42 93 93 93zM150 481c52 0 94 -42 94 -93c0 -53 -42 -94 -95 -94c-50 0 -92 43 -92 94s42 93 93 93z" />
    <glyph glyph-name="semicolon" unicode=";" horiz-adv-x="278" 
d="M75 -186l-27 41c62 43 99 91 99 129c0 4 -1 6 -4 6h-4c-3 -1 -6 -1 -9 -1c-47 0 -83 37 -83 86c0 56 42 99 96 99c60 0 101 -49 101 -121c0 -89 -58 -171 -169 -239zM145 481c52 0 94 -42 94 -93c0 -53 -42 -94 -95 -94c-50 0 -92 43 -92 94s42 93 93 93z" />
    <glyph glyph-name="less" unicode="&#x3c;" horiz-adv-x="606" 
d="M558 505l-328 -151l328 -152v-126l-509 232v90l509 232v-125z" />
    <glyph glyph-name="equal" unicode="=" horiz-adv-x="606" 
d="M51 92v115h504v-115h-504zM51 298v115h504v-115h-504z" />
    <glyph glyph-name="greater" unicode="&#x3e;" horiz-adv-x="606" 
d="M48 505v125l509 -232v-90l-509 -232v126l328 152z" />
    <glyph glyph-name="question" unicode="?" horiz-adv-x="500" 
d="M254 228h-54c-2 16 -3 32 -3 42c0 45 8 65 63 163c25 45 40 96 40 137c0 71 -34 110 -94 110c-31 0 -53 -10 -53 -25c0 -7 0 -7 19 -22c21 -15 32 -38 32 -64c0 -48 -35 -81 -86 -81c-55 0 -95 39 -95 93c0 92 93 156 225 156c140 0 228 -69 228 -178
c0 -48 -20 -94 -55 -124c-7 -6 -16 -13 -93 -72c-61 -48 -71 -65 -74 -135zM229 173c52 0 94 -42 94 -94s-42 -94 -95 -94c-51 0 -93 43 -93 94c0 52 42 94 94 94z" />
    <glyph glyph-name="at" unicode="@" horiz-adv-x="747" 
d="M644 190h69c-15 -37 -32 -60 -64 -92c-76 -77 -161 -113 -262 -113c-202 0 -363 167 -363 377c0 208 162 375 365 375c185 0 333 -138 333 -311c0 -145 -116 -278 -242 -278c-47 0 -77 22 -77 56c0 3 1 9 2 16c-27 -51 -63 -75 -113 -75c-75 0 -132 65 -132 149
c0 64 26 137 68 194c40 54 98 85 157 85c44 0 68 -14 93 -51l12 34h104l-92 -288c-4 -15 -7 -28 -7 -37c0 -15 8 -22 24 -22c19 0 41 10 64 29c49 42 75 105 75 181c0 150 -113 257 -270 257c-172 0 -300 -132 -300 -310c0 -182 130 -320 301 -320c107 0 197 51 255 144z
M406 521c-31 0 -59 -23 -86 -73c-35 -62 -57 -136 -57 -192c0 -38 16 -59 46 -59c32 0 61 28 84 83c27 63 60 170 60 196c0 25 -21 45 -47 45z" />
    <glyph glyph-name="A" unicode="A" horiz-adv-x="759" 
d="M351 737h76l257 -620c21 -51 37 -61 94 -63v-54h-351v54l17 1c44 0 58 6 58 24c0 8 -1 13 -12 41l-38 98h-249l-16 -38c-11 -24 -15 -40 -15 -57c0 -46 28 -65 99 -69v-54h-289v54c59 6 96 45 142 153zM330 524l-101 -239h198z" />
    <glyph glyph-name="B" unicode="B" horiz-adv-x="778" 
d="M17 722h386c118 0 166 -9 221 -40c49 -27 79 -80 79 -137c0 -60 -32 -108 -92 -137c-28 -13 -56 -20 -105 -28c53 -7 82 -15 116 -31c74 -34 114 -89 114 -159c0 -68 -42 -131 -105 -159c-52 -23 -105 -31 -209 -31h-405v54h15c53 0 73 4 82 15c7 10 7 13 7 75v434
c0 62 0 65 -7 76c-9 10 -28 14 -82 14h-15v54zM301 398h49c62 0 96 8 123 30c32 25 49 64 49 113c0 83 -47 127 -135 127h-30c-44 -2 -58 -16 -56 -58v-212zM301 343v-225c-2 -56 4 -62 61 -64h30c48 0 81 10 106 30c29 24 47 68 47 116c0 52 -20 96 -55 119
c-28 18 -57 24 -120 24h-69z" />
    <glyph glyph-name="C" unicode="C" horiz-adv-x="778" 
d="M698 733l10 -286l-53 -6c-45 167 -118 244 -229 244c-123 0 -187 -107 -187 -315c0 -220 64 -323 200 -323c115 0 195 79 222 218l62 -15c-39 -180 -140 -265 -317 -265c-118 0 -202 34 -271 110c-65 71 -95 153 -95 257c0 109 33 198 101 270c72 77 165 115 277 115
c72 0 117 -13 183 -53l54 49h43z" />
    <glyph glyph-name="D" unicode="D" horiz-adv-x="833" 
d="M19 0v54h15c53 0 73 4 82 15c7 10 7 13 7 75v434c0 62 0 65 -7 75c-9 11 -29 15 -82 15h-15v54h356c141 0 214 -14 275 -54c94 -62 143 -164 143 -299c0 -137 -49 -245 -138 -307c-62 -44 -142 -62 -268 -62h-368zM363 54h21c67 0 126 26 157 68c32 45 53 142 53 249
c0 200 -67 297 -206 297h-25c-50 -2 -62 -14 -60 -60v-489c0 -54 9 -64 60 -65z" />
    <glyph glyph-name="E" unicode="E" horiz-adv-x="759" 
d="M687 722l6 -260h-52c-42 149 -102 203 -227 206h-28c-74 -1 -88 -16 -86 -86v-181h17c79 0 127 50 138 142h54v-339h-54c-11 92 -59 142 -138 142h-17v-221c-1 -59 17 -73 90 -71h30c121 1 196 70 234 215h53l-12 -269h-679v54h15c53 0 73 4 82 15c7 10 7 13 7 75v434
c0 62 0 65 -7 75c-9 11 -29 15 -82 15h-15v54h671z" />
    <glyph glyph-name="F" unicode="F" horiz-adv-x="722" 
d="M684 722l6 -260h-52c-42 149 -102 204 -227 206h-19c-74 -1 -88 -16 -86 -86v-181h17c79 0 127 49 138 142h54v-339h-54c-11 92 -59 141 -138 142h-17v-202c0 -62 0 -65 7 -75c9 -11 29 -15 83 -15h26v-54h-400v54h15c53 0 73 4 82 15c7 10 7 13 7 75v434
c0 62 0 65 -7 75c-9 11 -29 15 -82 15h-15v54h662z" />
    <glyph glyph-name="G" unicode="G" horiz-adv-x="833" 
d="M719 733l9 -287h-53c-33 152 -120 239 -238 239c-59 0 -112 -28 -141 -75c-37 -60 -57 -148 -57 -254c0 -94 14 -175 41 -233c25 -54 75 -86 136 -86c89 0 148 61 148 154v15c-1 74 -2 75 -91 76h-11v54h355v-54c-56 -1 -71 -4 -82 -15c-7 -9 -7 -13 -7 -76v-205h-53
l-49 98c-30 -30 -46 -43 -71 -58c-45 -26 -106 -41 -167 -41c-207 0 -349 148 -349 365c0 110 31 194 98 266c75 80 173 121 288 121c73 0 121 -14 191 -54l59 50h44z" />
    <glyph glyph-name="H" unicode="H" horiz-adv-x="870" 
d="M565 339h-261v-195c0 -62 0 -65 7 -75c9 -11 29 -15 83 -15h15v-54h-389v54h15c53 0 73 4 82 15c7 10 7 13 7 75v433c0 62 0 66 -7 76c-9 11 -29 14 -82 15h-15v54h389v-54h-15c-54 -1 -74 -4 -83 -15c-7 -10 -7 -14 -7 -76v-178h261v178c0 63 0 66 -7 76
c-9 11 -29 14 -82 15h-15v54h389v-54h-15c-53 -1 -74 -4 -83 -15c-7 -10 -7 -14 -7 -76v-433c0 -61 0 -66 7 -75c9 -11 29 -15 83 -15h15v-54h-389v54h15c53 0 73 4 82 15c7 9 7 13 7 75v195z" />
    <glyph glyph-name="I" unicode="I" horiz-adv-x="444" 
d="M28 0v54h15c53 0 73 4 82 15c7 10 7 13 7 75v434c0 62 0 65 -7 75c-9 11 -29 15 -82 15h-15v54h389v-54h-15c-54 0 -74 -4 -83 -15c-7 -10 -7 -13 -7 -75v-434c0 -62 0 -65 7 -75c9 -11 29 -15 83 -15h15v-54h-389z" />
    <glyph glyph-name="J" unicode="J" horiz-adv-x="648" 
d="M250 668v54h389v-54h-15c-54 0 -74 -4 -83 -15c-7 -10 -7 -12 -7 -75v-298c0 -119 -25 -184 -88 -234c-51 -41 -118 -61 -201 -61c-149 0 -241 75 -241 197c0 87 51 148 124 148c60 0 103 -43 103 -102c0 -54 -39 -94 -92 -94c-9 0 -15 1 -24 3c-5 1 -9 2 -12 2
c-11 0 -19 -8 -19 -19c0 -39 56 -74 118 -74c53 0 100 23 125 59c20 30 27 68 27 140v333c0 62 0 65 -7 75c-9 11 -29 15 -82 15h-15z" />
    <glyph glyph-name="K" unicode="K" horiz-adv-x="815" 
d="M383 338l-84 -88v-106c0 -62 0 -65 7 -75c9 -11 29 -15 83 -15h15v-54h-389v54h15c53 0 73 4 82 15c7 10 7 13 7 75v434c0 62 0 65 -7 75c-9 11 -29 15 -82 15h-15v54h389v-54h-15c-54 0 -74 -4 -83 -15c-7 -10 -7 -13 -7 -75v-234l221 234c18 20 33 44 33 55
c0 23 -26 35 -75 35h-24v54h337v-54c-66 -4 -116 -33 -203 -118l-83 -87l208 -332c46 -72 50 -74 105 -77v-54h-364v54h13c46 0 68 8 68 23c0 9 -4 18 -12 32z" />
    <glyph glyph-name="L" unicode="L" horiz-adv-x="722" 
d="M648 269h53l-12 -269h-670v54h15c53 0 73 4 82 15c7 10 7 13 7 76v433c0 62 0 65 -7 75c-9 11 -28 15 -82 15h-15v54h396v-54h-22c-55 0 -74 -4 -83 -15c-7 -10 -7 -13 -7 -75v-453c-1 -59 17 -73 90 -71h21c122 2 193 67 234 215z" />
    <glyph glyph-name="M" unicode="M" horiz-adv-x="981" 
d="M338 722l155 -430l146 430h326v-54h-11c-54 0 -74 -4 -83 -15c-7 -9 -7 -14 -7 -75v-434c0 -61 0 -66 7 -75c9 -11 29 -15 83 -15h11v-54h-382v54h11c54 0 74 4 83 15c7 10 7 13 7 75v499l-221 -643h-52l-227 633v-416c-2 -129 17 -158 110 -163v-54h-285v54
c91 5 110 34 108 163v361c0 62 0 65 -7 75c-8 11 -29 15 -83 15h-11v54h322z" />
    <glyph glyph-name="N" unicode="N" horiz-adv-x="833" 
d="M270 722l386 -452v235c2 129 -17 159 -108 163v54h285v-54c-92 -4 -113 -34 -110 -163v-512h-67l-465 553v-329c-2 -129 17 -158 110 -163v-54h-285v54c91 5 110 34 108 163v394c-26 36 -61 55 -106 56v55h252z" />
    <glyph glyph-name="O" unicode="O" horiz-adv-x="833" 
d="M417 737c98 0 176 -27 243 -85c84 -71 134 -185 134 -301c0 -117 -47 -220 -134 -288c-67 -54 -145 -78 -248 -78c-217 0 -373 153 -373 365c0 117 50 230 134 302c65 57 147 85 244 85zM418 685c-59 0 -99 -22 -128 -71c-34 -57 -51 -137 -51 -245
c0 -106 18 -193 51 -255c28 -52 70 -77 128 -77c114 0 176 110 176 313c0 108 -18 198 -51 258c-29 51 -71 77 -125 77z" />
    <glyph glyph-name="P" unicode="P" horiz-adv-x="759" 
d="M308 310v-166c0 -62 0 -65 7 -76c9 -10 29 -14 83 -14h22v-54h-396v54h15c53 0 73 4 82 14c7 11 7 14 7 76v433c0 62 0 65 -7 76c-9 10 -29 14 -82 14h-15v55h397c100 0 159 -10 213 -35c64 -30 101 -91 101 -166c0 -140 -106 -211 -315 -211h-112zM308 365h58
c129 0 176 42 176 157c0 100 -43 145 -139 145h-40c-45 0 -56 -12 -55 -60v-242z" />
    <glyph glyph-name="Q" unicode="Q" horiz-adv-x="833" 
d="M472 -25v15c-24 -4 -38 -5 -62 -5c-113 0 -204 40 -276 122c-63 70 -96 159 -96 256c0 213 163 374 378 374c208 0 374 -166 374 -374c0 -129 -65 -250 -170 -319c38 -112 54 -139 85 -139s44 21 49 77h54v-7c0 -97 -69 -163 -172 -163c-105 0 -164 59 -164 163zM565 175
c16 42 25 114 25 195c0 85 -14 164 -39 221c-27 62 -74 94 -137 94c-116 0 -176 -104 -176 -306c0 -83 7 -147 21 -190c11 31 20 46 36 61c26 25 66 40 107 40c78 0 134 -39 163 -115zM474 53c2 20 3 36 3 46c0 88 -31 134 -90 134c-52 0 -88 -42 -88 -101
c0 -57 45 -95 112 -95c24 0 38 3 63 16z" />
    <glyph glyph-name="R" unicode="R" horiz-adv-x="815" 
d="M304 347v-202c0 -62 0 -66 7 -76c9 -11 30 -14 83 -15h26v-54h-400v54h15c53 1 73 4 82 15c7 10 7 14 7 76v433c0 62 0 65 -7 76c-9 10 -28 14 -82 14h-15v54h427c92 0 159 -12 197 -36c52 -34 81 -85 81 -145c0 -65 -35 -120 -96 -151c-25 -12 -51 -19 -104 -29
c87 -29 125 -74 140 -164l7 -38c2 -14 4 -23 4 -28c5 -32 6 -39 12 -48c6 -8 18 -14 29 -14c30 0 45 32 46 95h54v-12c0 -107 -62 -167 -170 -167c-78 0 -128 31 -152 93c-10 27 -13 45 -19 120l-3 39c-3 80 -34 109 -113 110h-56zM304 402h55c133 0 175 32 175 133
c0 92 -41 133 -135 133h-24c-64 -1 -72 -9 -71 -64v-202z" />
    <glyph glyph-name="S" unicode="S" horiz-adv-x="667" 
d="M588 729l13 -259h-53c-60 143 -142 215 -246 215c-79 0 -135 -43 -135 -104c0 -42 22 -71 68 -87c25 -9 25 -9 102 -24l48 -11c173 -38 248 -109 248 -236c0 -141 -108 -238 -264 -238c-81 0 -144 21 -205 67l-62 -59h-45l-6 283h51c55 -150 154 -239 267 -239
c87 0 144 46 144 117c0 36 -16 65 -44 80c-24 13 -43 18 -108 30l-62 12c-157 29 -247 116 -247 238c0 133 105 223 260 223c69 0 121 -16 179 -54l52 46h45z" />
    <glyph glyph-name="T" unicode="T" horiz-adv-x="722" 
d="M692 722l15 -271h-53c-15 82 -31 124 -59 160c-32 41 -65 59 -108 59c-30 0 -36 -7 -36 -40v-486c0 -61 0 -66 7 -75c9 -11 29 -15 83 -15h22v-54h-404v54h22c54 0 74 4 83 15c7 10 7 13 7 75v486c0 33 -6 40 -36 40c-47 0 -84 -23 -116 -71c-24 -35 -38 -74 -51 -148
h-53l15 271h662z" />
    <glyph glyph-name="U" unicode="U" horiz-adv-x="833" 
d="M15 668v54h389v-54h-15c-54 0 -74 -4 -83 -15c-7 -10 -7 -13 -7 -75v-320c0 -73 11 -122 33 -149c28 -33 70 -49 128 -49c84 0 141 32 170 95c13 28 17 67 17 149v201c2 129 -17 158 -108 163v54h285v-54c-93 -5 -112 -34 -110 -163v-201c0 -119 -8 -162 -36 -208
c-49 -77 -126 -111 -254 -111c-141 0 -238 40 -279 115c-19 35 -26 77 -26 161v317c0 62 0 65 -7 75c-9 11 -29 15 -82 15h-15z" />
    <glyph glyph-name="V" unicode="V" horiz-adv-x="759" 
d="M429 206l142 356c6 15 9 26 9 38c0 45 -32 67 -97 68v54h295v-54c-61 -6 -106 -48 -138 -127l-229 -556h-88l-243 614c-23 57 -39 69 -98 69v54h362v-54h-21c-44 0 -62 -7 -62 -25c0 -6 3 -17 9 -33z" />
    <glyph glyph-name="W" unicode="W" horiz-adv-x="981" 
d="M711 258l87 285c11 36 13 47 13 61c0 24 -13 45 -34 55c-13 6 -27 8 -56 9v54h252v-54c-61 -13 -79 -35 -108 -135l-174 -548h-73l-125 407l-132 -407h-75l-204 625c-18 50 -29 58 -76 58v54h310v-54c-47 -2 -59 -7 -59 -25c0 -7 2 -16 8 -34l116 -358l80 251l-36 112
c-15 44 -25 52 -64 54v54h296v-54c-47 -3 -59 -8 -59 -27c0 -6 1 -11 6 -27z" />
    <glyph glyph-name="X" unicode="X" horiz-adv-x="722" 
d="M431 413l177 -258c62 -90 74 -99 127 -101v-54h-360v54c50 1 66 7 66 24c0 11 -5 23 -13 34l-109 156l-88 -112c-13 -16 -20 -34 -20 -50c0 -35 32 -50 108 -52v-54h-331v54c58 2 86 19 144 90l147 181l-205 292c-28 40 -42 49 -86 51v54h358v-54c-59 -2 -68 -5 -68 -24
c0 -8 3 -16 10 -26l105 -151l70 86c24 29 34 48 34 64c0 33 -33 51 -96 51v54h308v-54c-52 -4 -86 -24 -132 -77z" />
    <glyph glyph-name="Y" unicode="Y" horiz-adv-x="722" 
d="M420 396l100 178c8 15 14 34 14 46c0 28 -29 48 -73 48h-21v54h295v-54c-56 -4 -95 -31 -134 -93l-150 -257v-174c0 -62 0 -65 7 -75c9 -11 29 -15 83 -15h22v-54h-404v54h22c54 0 74 4 83 15c7 10 7 13 7 75v161l-204 327c-19 29 -34 36 -79 36v54h360v-54h-16
c-38 0 -56 -7 -56 -22c0 -9 2 -15 12 -31z" />
    <glyph glyph-name="Z" unicode="Z" horiz-adv-x="667" 
d="M634 722v-56l-401 -611h89c107 -1 148 15 201 83c31 43 49 85 58 138h53l-17 -276h-593v58l401 609h-74c-141 3 -201 -44 -251 -197h-51l12 252h573z" />
    <glyph glyph-name="bracketleft" unicode="[" horiz-adv-x="389" 
d="M339 722v-50h-132v-730h132v-50h-255v830h255z" />
    <glyph glyph-name="backslash" unicode="\" horiz-adv-x="606" 
d="M124 737l431 -737h-74l-431 737h74z" />
    <glyph glyph-name="bracketright" unicode="]" horiz-adv-x="389" 
d="M31 -108v50h132v730h-132v50h255v-830h-255z" />
    <glyph glyph-name="asciicircum" unicode="^" horiz-adv-x="606" 
d="M554 318h-119l-131 250l-133 -250h-119l209 404h85z" />
    <glyph glyph-name="underscore" unicode="_" horiz-adv-x="500" 
d="M0 -65h500v-90h-500v90z" />
    <glyph glyph-name="grave" unicode="`" horiz-adv-x="333" 
d="M249 545h-64l-147 87c-24 14 -36 31 -36 52c0 28 25 50 57 50c30 0 42 -8 77 -51z" />
    <glyph glyph-name="a" unicode="a" horiz-adv-x="611" 
d="M516 318v-176c0 -59 5 -72 27 -72c7 0 10 1 19 7c8 5 14 7 20 7c10 0 15 -6 15 -16c0 -43 -53 -83 -110 -83c-51 0 -89 26 -106 71c-53 -52 -105 -71 -191 -71c-98 0 -154 43 -154 117c0 66 40 108 133 139c43 15 66 21 128 34c37 8 57 13 62 14v52c0 70 -22 95 -83 95
c-40 0 -73 -15 -73 -32c0 -5 0 -5 9 -17s14 -26 14 -38c0 -37 -35 -65 -82 -65s-81 32 -81 75c0 78 90 129 228 129c79 0 141 -16 178 -45c35 -29 47 -60 47 -125zM359 235l-53 -12c-72 -17 -103 -47 -103 -101c0 -42 25 -69 64 -69c57 0 92 49 92 126v56z" />
    <glyph glyph-name="b" unicode="b" horiz-adv-x="648" 
d="M240 737v-324c41 52 88 75 154 75c128 0 218 -101 218 -243c0 -154 -104 -260 -256 -260c-75 0 -126 24 -173 81l-65 -80h-49c9 46 13 109 14 220v372c1 88 -3 93 -64 93h-19v51zM345 413c-70 0 -106 -68 -106 -201c0 -114 35 -175 101 -175c65 0 99 66 99 196
c0 120 -31 180 -94 180z" />
    <glyph glyph-name="c" unicode="c" horiz-adv-x="556" 
d="M475 177l52 -17c-15 -47 -31 -77 -60 -107c-44 -48 -93 -68 -167 -68c-161 0 -269 98 -269 244c0 151 119 259 285 259c121 0 199 -53 199 -136c0 -52 -35 -85 -89 -85c-48 0 -82 30 -82 73c0 19 3 27 20 50c11 14 11 14 11 18c0 16 -23 28 -52 28
c-75 0 -119 -69 -119 -189c0 -124 46 -194 128 -194c42 0 81 19 105 51c15 20 24 36 38 73z" />
    <glyph glyph-name="d" unicode="d" horiz-adv-x="667" 
d="M568 737v-615c0 -52 8 -59 59 -57h27v-54l-234 -11v72c-41 -60 -92 -87 -164 -87c-130 0 -219 99 -219 244c0 146 99 259 229 259c62 0 107 -21 145 -67v157c0 89 -2 93 -64 93h-32v51zM311 420c-64 0 -101 -69 -101 -189c0 -115 35 -178 99 -178c62 0 104 75 104 184
c0 112 -40 183 -102 183z" />
    <glyph glyph-name="e" unicode="e" horiz-adv-x="574" 
d="M540 228h-335c1 -57 8 -88 25 -115c25 -38 65 -60 111 -60c66 0 110 33 150 111l49 -20c-44 -107 -121 -159 -238 -159c-76 0 -143 22 -189 61c-50 43 -81 114 -81 186c0 66 27 132 72 179c50 51 116 77 197 77c147 0 239 -95 239 -244v-16zM206 283h150c20 0 27 8 27 32
c0 79 -27 121 -79 121c-60 0 -98 -58 -98 -153z" />
    <glyph glyph-name="f" unicode="f" horiz-adv-x="389" 
d="M383 473v-60h-125v-269v-50c0 -37 9 -42 75 -44h18v-50h-330v50h4c44 1 63 5 70 14c4 5 5 12 6 25v55v269h-87v60h87v13c0 148 87 247 218 247c83 0 145 -47 145 -109c0 -47 -34 -82 -80 -82c-42 0 -75 30 -75 69c0 20 10 41 25 53c4 4 5 6 5 9c0 5 -6 8 -16 8
c-20 0 -43 -17 -53 -40c-10 -22 -12 -44 -12 -111v-57h125z" />
    <glyph glyph-name="g" unicode="g" horiz-adv-x="611" 
d="M263 97h69c72 0 116 -4 149 -15c50 -15 83 -62 83 -118c0 -107 -104 -166 -290 -166c-164 0 -244 32 -244 98c0 47 39 79 106 89c-59 16 -91 49 -91 93c0 52 37 83 116 98c-72 25 -110 73 -110 141c0 99 99 171 236 171c51 0 96 -10 134 -29c44 55 82 79 128 79
c44 0 74 -26 74 -65c0 -36 -27 -64 -62 -64c-28 0 -54 22 -54 45v4c0 4 -2 5 -5 5c-12 0 -24 -9 -37 -28c44 -36 60 -66 60 -113c0 -62 -34 -113 -92 -139c-38 -18 -75 -24 -141 -24h-18c-58 0 -76 -8 -76 -33c0 -24 12 -29 65 -29zM290 436c-51 0 -77 -36 -77 -110
c0 -32 5 -61 16 -83c11 -25 30 -36 60 -36c47 0 74 41 74 113c0 76 -25 116 -73 116zM328 -43h-131c-25 -11 -37 -27 -37 -49c0 -37 44 -58 121 -58c103 0 153 20 153 61c0 14 -6 27 -15 33c-17 11 -29 13 -91 13z" />
    <glyph glyph-name="h" unicode="h" horiz-adv-x="685" 
d="M256 737v-341c42 64 94 92 170 92c52 0 96 -17 123 -48c27 -29 38 -67 38 -129v-167v-50c0 -37 9 -42 75 -43h4v-51h-305v51c34 -1 53 3 63 13c4 6 5 12 6 26v26v28v153c0 64 -25 98 -71 98c-37 0 -72 -23 -88 -59c-11 -24 -15 -50 -15 -95v-97v-50c-1 -35 12 -43 68 -43
v-51h-305v51h4c44 0 63 4 70 13c4 6 5 12 6 26v54v430c1 93 -2 97 -64 97h-19v51z" />
    <glyph glyph-name="i" unicode="i" horiz-adv-x="370" 
d="M263 473v-329v-50c0 -36 9 -42 72 -43h6v-51h-313v51h4c42 0 62 4 68 13c4 6 5 12 6 26v8v46v177c0 89 -3 93 -64 94h-14v51zM182 737c48 0 88 -40 88 -88c0 -50 -39 -89 -90 -89c-47 0 -87 40 -87 89c0 48 40 88 89 88z" />
    <glyph glyph-name="j" unicode="j" horiz-adv-x="352" 
d="M183 737c49 0 89 -40 89 -88c0 -50 -39 -89 -90 -89c-47 0 -87 40 -87 89c0 48 40 88 88 88zM268 473v-364c0 -104 -9 -160 -35 -210c-31 -62 -99 -101 -175 -101c-82 0 -140 42 -140 100c0 43 33 75 78 75c38 0 65 -28 65 -67c0 -23 -8 -36 -29 -50c6 -8 13 -11 25 -11
c37 0 54 31 54 98v386c0 80 -4 85 -64 86h-32v51z" />
    <glyph glyph-name="k" unicode="k" horiz-adv-x="667" 
d="M252 737v-491l124 109c18 16 25 27 25 40c0 17 -22 27 -60 27h-12v51h294v-51h-23c-39 0 -69 -13 -108 -47l-77 -64l157 -197c45 -57 53 -63 88 -63v-51h-306v51h10c26 0 39 6 39 20c0 9 -5 21 -13 30l-92 112l-46 -41v-28v-50c-1 -35 12 -43 68 -43v-51h-305v51h4
c44 0 63 4 70 13c4 6 5 12 6 26v7v47v434c1 88 -3 93 -64 93h-19v51z" />
    <glyph glyph-name="l" unicode="l" horiz-adv-x="352" 
d="M256 737v-593v-50c0 -36 8 -41 68 -43h7v-51h-312v51h4c44 0 63 4 70 13c4 6 5 12 6 26v7v47v434c1 88 -3 93 -64 93h-19v51z" />
    <glyph glyph-name="m" unicode="m" horiz-adv-x="963" 
d="M248 473v-79c40 63 93 94 160 94s119 -33 141 -90c48 64 93 90 158 90c88 0 156 -63 156 -145v-199v-50c0 -37 9 -42 75 -43h4v-51h-294v51c33 0 44 3 52 13c4 7 6 12 6 25v27v28v162c0 62 -17 89 -55 89c-55 0 -91 -46 -91 -117v-134c-2 -91 -1 -91 58 -93v-51h-272v51
c58 2 59 2 57 93v158c0 67 -16 93 -55 93c-56 0 -91 -45 -91 -117v-134c-2 -91 -2 -91 58 -93v-51h-295v51h5c43 0 62 4 69 13c4 6 5 12 6 26v8v46v177c1 89 -2 93 -64 94h-16v51z" />
    <glyph glyph-name="n" unicode="n" horiz-adv-x="685" 
d="M249 473v-88c49 74 99 103 178 103c53 0 97 -17 124 -48c27 -29 38 -67 38 -129v-167v-50c0 -37 8 -42 75 -43h4v-51h-305v51c34 -1 53 3 63 13c4 6 5 12 6 26v26v28v153c0 64 -26 98 -73 98c-36 0 -71 -23 -87 -59c-12 -24 -16 -50 -16 -95v-97v-50
c-1 -35 12 -43 69 -43v-51h-305v51h4c43 0 62 4 69 13c4 6 5 12 6 26v8v46v174c1 92 -2 96 -64 97h-15v51z" />
    <glyph glyph-name="o" unicode="o" horiz-adv-x="611" 
d="M308 488c152 0 271 -112 271 -254c0 -143 -117 -249 -275 -249s-273 105 -273 250s118 253 277 253zM306 436c-68 0 -102 -67 -102 -200c0 -132 34 -199 101 -199c65 0 101 71 101 198c0 53 -8 109 -20 142c-13 35 -45 59 -80 59z" />
    <glyph glyph-name="p" unicode="p" horiz-adv-x="667" 
d="M254 473v-64c45 57 88 79 157 79c128 0 221 -101 221 -239c0 -151 -101 -264 -236 -264c-57 0 -102 21 -142 65v-108v-50c0 -37 8 -42 76 -44h11v-50h-323v50h4c43 1 63 5 69 14c4 6 5 12 6 26v7v47v376c1 92 -2 96 -64 97h-15v51zM366 413c-73 0 -113 -65 -113 -184
c0 -113 38 -176 105 -176c64 0 101 66 101 179c0 119 -32 181 -93 181z" />
    <glyph glyph-name="q" unicode="q" horiz-adv-x="648" 
d="M527 487h49c-9 -75 -16 -166 -15 -215v-330v-50c0 -37 9 -42 75 -44h4v-50h-323v50h11c44 1 64 5 70 14c4 6 5 12 6 26v54v116c-43 -50 -91 -73 -154 -73c-58 0 -120 27 -156 68s-60 113 -60 180c0 146 109 255 255 255c76 0 129 -25 174 -81zM308 436
c-67 0 -101 -68 -101 -200c0 -120 33 -183 96 -183c65 0 104 76 104 200c0 54 -5 89 -17 119c-16 39 -48 64 -82 64z" />
    <glyph glyph-name="r" unicode="r" horiz-adv-x="519" 
d="M241 473v-121c35 92 89 136 166 136c64 0 110 -43 110 -101c0 -49 -37 -86 -86 -86c-43 0 -75 31 -75 74c0 18 4 29 17 47c-72 -19 -114 -110 -118 -258v-20v-50c0 -37 8 -42 75 -43h22v-51h-334v51h4c43 0 62 4 69 13c4 6 5 12 6 26v54v174c1 92 -2 96 -64 97h-15v51z
" />
    <glyph glyph-name="s" unicode="s" horiz-adv-x="500" 
d="M439 478l4 -158h-47c-49 82 -96 116 -160 116c-50 0 -84 -24 -84 -58c0 -26 13 -36 62 -49l90 -22c72 -18 93 -27 119 -50c28 -25 43 -60 43 -102c0 -100 -83 -170 -201 -170c-52 0 -103 13 -141 35l-39 -18h-42l-5 173h45c48 -95 105 -138 182 -138c53 0 86 23 86 59
c0 30 -20 47 -70 58l-73 16c-65 14 -94 28 -124 57c-28 26 -42 61 -42 99c0 95 80 162 193 162c49 0 86 -10 124 -32l37 22h43z" />
    <glyph glyph-name="t" unicode="t" horiz-adv-x="426" 
d="M381 473v-60h-130v-257c0 -68 8 -86 37 -86c41 0 64 41 63 116h53c1 -10 1 -18 1 -23c0 -44 -15 -91 -40 -124c-27 -35 -72 -54 -129 -54s-100 20 -121 55c-17 28 -21 52 -21 134v239h-71v52c95 11 149 78 165 206h63v-198h130z" />
    <glyph glyph-name="u" unicode="u" horiz-adv-x="685" 
d="M584 473v-342c-1 -61 3 -66 55 -66h28v-54l-233 -11v82c-58 -71 -106 -97 -177 -97c-69 0 -121 30 -148 86c-14 28 -16 46 -16 120v127c1 92 -2 96 -64 97h-16v51l237 7v-288c0 -76 21 -107 71 -107c38 0 73 23 89 57c13 26 17 53 17 103v80c1 92 -2 96 -64 97h-16v51z
" />
    <glyph glyph-name="v" unicode="v" horiz-adv-x="611" 
d="M357 140l73 183c16 40 18 46 18 60c0 29 -22 40 -77 39v51h227v-51c-44 1 -67 -20 -95 -88l-154 -348h-85l-184 384c-21 43 -31 51 -68 52v51h282v-51c-38 1 -52 -6 -52 -22c0 -6 3 -15 8 -26z" />
    <glyph glyph-name="w" unicode="w" horiz-adv-x="889" 
d="M642 154l70 170c9 24 14 41 14 52c0 28 -27 46 -69 46h-7v51h226v-51c-45 -2 -65 -20 -94 -85l-157 -351h-75l-107 264l-114 -264h-76l-163 380c-18 43 -32 54 -71 56v51h276v-51c-40 0 -49 -5 -49 -23c0 -6 0 -6 7 -24l87 -221l72 170l-25 61c-13 30 -24 37 -61 37v51
h279v-51h-7c-38 0 -54 -6 -54 -23c0 -5 2 -13 6 -21z" />
    <glyph glyph-name="x" unicode="x" horiz-adv-x="611" 
d="M370 272l138 -164c42 -49 53 -56 90 -57v-51h-314v51h7c28 0 40 7 40 22c0 8 -3 14 -11 23l-59 71l-60 -59c-9 -9 -14 -19 -14 -29c0 -18 18 -28 47 -28h13v-51h-234v51c31 1 53 13 89 45l121 116l-143 171c-26 31 -37 38 -67 39v51h296v-51h-11c-21 0 -33 -6 -33 -16
c0 -5 3 -11 11 -21l57 -69l51 49c15 15 21 24 21 35c0 14 -15 22 -40 22h-23v51h246v-51c-43 0 -73 -14 -114 -52z" />
    <glyph glyph-name="y" unicode="y" horiz-adv-x="611" 
d="M359 158l83 184c5 12 9 29 9 40c0 26 -24 40 -67 40h-11v51h225v-51c-42 -2 -62 -20 -91 -82l-175 -377c-55 -118 -114 -169 -198 -169c-75 0 -124 36 -124 92c0 50 38 87 87 87c44 0 75 -28 75 -68c0 -14 -2 -24 -8 -34c-1 -1 -1 -2 -1 -3c0 -3 4 -6 8 -6
c29 0 60 28 86 79l23 43l-205 398c-16 33 -24 39 -61 40v51h284v-51h-18c-24 0 -35 -6 -35 -21c0 -7 3 -16 8 -26z" />
    <glyph glyph-name="z" unicode="z" horiz-adv-x="537" 
d="M495 473v-48l-270 -375h62c66 0 84 6 110 38c22 29 36 57 49 102h49l-10 -190h-450v44l272 379h-51c-101 2 -121 -14 -154 -130h-51l12 180h432z" />
    <glyph glyph-name="braceleft" unicode="{" horiz-adv-x="389" 
d="M84 285v44c66 15 78 37 76 133v110c-1 110 30 145 131 150h52v-46c-56 -7 -63 -21 -60 -126v-118c-1 -78 -25 -108 -102 -125c77 -17 101 -47 102 -125v-118c-3 -105 4 -119 60 -126v-46h-52c-101 5 -132 40 -131 150v110c2 96 -10 118 -76 133z" />
    <glyph glyph-name="bar" unicode="|" horiz-adv-x="606" 
d="M362 722v-966h-119v966h119z" />
    <glyph glyph-name="braceright" unicode="}" horiz-adv-x="389" 
d="M290 329v-44c-64 -15 -76 -37 -74 -133v-110c1 -110 -30 -146 -131 -150h-54v46c58 7 65 21 62 126v118c1 78 25 108 102 125c-77 17 -101 47 -102 125v118c3 105 -4 119 -62 126v46h54c101 -5 132 -40 131 -150v-110c-2 -96 10 -118 74 -133z" />
    <glyph glyph-name="asciitilde" unicode="~" horiz-adv-x="606" 
d="M135 169l-84 53c41 76 89 113 145 113c22 0 43 -5 89 -23l52 -19c44 -17 52 -19 67 -19c24 0 39 12 67 52l84 -53c-40 -75 -89 -113 -144 -113c-23 0 -45 6 -90 23l-53 19c-45 17 -50 19 -65 19c-25 0 -40 -12 -68 -52z" />
    <glyph glyph-name="uni00A0" unicode="&#xa0;" horiz-adv-x="287" 
 />
    <glyph glyph-name="exclamdown" unicode="&#xa1;" horiz-adv-x="296" 
d="M120 306h54c6 -146 12 -185 52 -320c9 -30 14 -63 14 -89c0 -63 -34 -100 -93 -100c-60 0 -94 37 -94 100c0 39 2 48 34 158c19 63 30 143 33 251zM148 549c51 0 93 -43 93 -94c0 -52 -42 -94 -94 -94s-94 42 -94 94s42 94 95 94z" />
    <glyph glyph-name="cent" unicode="&#xa2;" horiz-adv-x="574" 
d="M522 567l-62 -113c43 -26 63 -59 63 -101c0 -51 -37 -88 -87 -88c-26 0 -47 9 -64 26l-113 -208c19 -19 46 -29 80 -29c69 0 118 42 143 120l52 -16c-41 -119 -115 -172 -239 -172c-31 0 -57 3 -82 11l-57 -104h-58l67 123c-83 46 -129 122 -129 213
c0 149 121 259 284 259c33 0 66 -5 95 -14l51 93h56zM229 133l132 242c2 4 5 8 10 13c11 12 13 15 13 22c0 14 -24 26 -53 26c-75 0 -122 -75 -122 -195c0 -40 5 -68 20 -108z" />
    <glyph glyph-name="sterling" unicode="&#xa3;" horiz-adv-x="574" 
d="M459 378v-60h-146c3 -23 4 -34 4 -45c0 -43 -11 -82 -37 -134c39 -14 73 -20 112 -20c63 0 98 24 118 81l51 -14c-24 -129 -87 -200 -177 -200c-53 0 -101 20 -153 64c-31 -45 -66 -64 -114 -64c-57 0 -97 37 -97 91c0 56 45 97 106 97c23 0 40 -3 70 -13c1 10 1 18 1 23
c0 37 -18 99 -39 134h-124v60h102c-18 53 -24 83 -24 122c0 120 98 208 233 208c116 0 198 -66 198 -160c0 -57 -40 -99 -95 -99c-46 0 -79 32 -79 77c0 28 12 47 40 62c21 12 24 15 24 24c0 24 -34 44 -76 44c-54 0 -92 -37 -92 -90c0 -39 12 -96 39 -188h155zM182 92
c-25 22 -42 30 -66 30c-27 0 -46 -18 -46 -43c0 -24 18 -41 44 -41c32 0 52 16 68 54z" />
    <glyph glyph-name="currency" unicode="&#xa4;" horiz-adv-x="574" 
d="M154 140l-43 -42l-77 77l42 43c-25 40 -38 85 -38 132s14 97 38 133l-43 44l78 77l43 -43c39 25 85 38 134 38c47 0 85 -11 131 -38l43 43l78 -78l-43 -42c25 -41 38 -86 38 -134s-11 -86 -38 -132l43 -43l-78 -78l-43 43c-45 -27 -85 -38 -132 -38c-48 0 -90 12 -133 38
zM287 478c-72 0 -129 -57 -129 -127s58 -128 127 -128c73 0 130 56 130 128c0 70 -57 127 -128 127z" />
    <glyph glyph-name="yen" unicode="&#xa5;" horiz-adv-x="574" 
d="M392 359h94v-60h-110v-66h110v-60h-110v-29c0 -62 0 -65 5 -75c6 -11 20 -15 58 -15h15v-54h-335v54h15c37 0 51 4 57 15c5 9 5 14 5 75v29h-111v60h111v66h-111v60h88l-116 273c-13 29 -24 36 -54 36v54h270v-54h-6c-16 0 -26 -8 -26 -20c0 -6 1 -9 11 -33l93 -219
l72 178c6 14 10 34 10 46c0 29 -17 48 -42 48h-20v54h206v-54c-38 -4 -64 -31 -91 -93z" />
    <glyph glyph-name="brokenbar" unicode="&#xa6;" horiz-adv-x="606" 
d="M362 722v-322h-119v322h119zM362 322v-322h-119v322h119z" />
    <glyph glyph-name="section" unicode="&#xa7;" horiz-adv-x="500" 
d="M333 187h-6c55 -49 71 -81 71 -135c0 -84 -62 -139 -157 -139c-81 0 -142 43 -142 100c0 38 26 66 62 66c30 0 54 -23 54 -52c0 -14 -4 -22 -16 -34c-10 -10 -13 -15 -13 -20c0 -16 22 -28 52 -28c48 0 80 25 80 62c0 21 -7 36 -27 56c-6 6 -6 6 -54 48l-113 97
c-40 34 -61 79 -61 127c0 73 46 124 114 129c-58 53 -71 77 -71 129c0 87 59 144 149 144c79 0 131 -41 131 -103c0 -33 -24 -57 -57 -57c-32 0 -56 21 -56 50c0 15 5 26 19 41c5 6 7 9 7 13c0 13 -21 24 -46 24c-39 0 -72 -27 -72 -60c0 -24 17 -48 56 -80l106 -87
c26 -21 52 -51 71 -81c17 -27 24 -52 24 -84c0 -70 -47 -126 -105 -126zM320 344l-51 44c-32 28 -51 37 -75 37c-32 0 -56 -23 -56 -52c0 -24 9 -39 41 -67l54 -47c25 -23 51 -34 74 -34c31 0 56 24 56 53c0 21 -12 39 -43 66z" />
    <glyph glyph-name="dieresis" unicode="&#xa8;" horiz-adv-x="333" 
d="M60 693c39 0 70 -31 70 -70c0 -40 -31 -71 -71 -71c-38 0 -70 32 -70 70c0 39 32 71 71 71zM275 693c39 0 70 -31 70 -70c0 -40 -31 -71 -71 -71c-38 0 -70 32 -70 70c0 39 32 71 71 71z" />
    <glyph glyph-name="copyright" unicode="&#xa9;" horiz-adv-x="747" 
d="M531 554l6 -160l-36 -4c-23 89 -60 129 -117 129c-64 0 -96 -55 -96 -163c0 -113 32 -166 102 -166c60 0 100 40 115 116l40 -10c-20 -101 -76 -148 -173 -148c-119 0 -199 80 -199 199c0 122 85 209 205 209c38 0 64 -7 97 -27l28 25h28zM373 721
c203 0 368 -165 368 -367c0 -206 -164 -369 -372 -369c-199 0 -364 167 -364 368c0 203 165 368 368 368zM373 669c-168 0 -305 -142 -305 -316c0 -172 137 -316 301 -316c173 0 309 140 309 317c0 174 -137 315 -305 315z" />
    <glyph glyph-name="ordfeminine" unicode="&#xaa;" horiz-adv-x="367" 
d="M313 635v-106c0 -34 3 -42 18 -42c5 0 6 0 12 4c5 2 9 3 13 3c6 0 9 -3 9 -9c0 -26 -34 -50 -71 -50c-32 0 -57 14 -69 40c-38 -28 -75 -40 -124 -40c-64 0 -100 26 -100 70c0 39 27 66 86 85c26 9 32 10 83 19c23 5 23 5 40 8v31c0 42 -14 57 -52 57
c-27 0 -48 -8 -48 -19c0 -3 0 -4 5 -10c6 -7 9 -15 9 -23c0 -22 -23 -39 -53 -39s-53 19 -53 45c0 47 58 78 148 78c50 0 92 -10 116 -27c23 -17 31 -36 31 -75zM210 585l-34 -7c-45 -10 -65 -28 -65 -60c0 -26 16 -42 41 -42c36 0 58 29 58 75v34z" />
    <glyph glyph-name="guillemotleft" unicode="&#xab;" horiz-adv-x="500" 
d="M49 252v14c52 45 104 89 153 133c14 14 22 20 29 20c5 0 12 -7 12 -12c0 -6 -7 -22 -19 -41l-64 -107l64 -107c13 -20 19 -34 19 -40c0 -5 -7 -12 -13 -12s-14 6 -28 20c-49 43 -100 87 -153 132zM248 252v14c52 45 104 89 153 133c14 14 22 20 29 20c5 0 12 -7 12 -12
c0 -6 -7 -22 -19 -41l-64 -107l64 -107c13 -20 19 -34 19 -40c0 -5 -7 -12 -13 -12s-14 6 -28 20c-49 43 -100 87 -153 132z" />
    <glyph glyph-name="logicalnot" unicode="&#xac;" horiz-adv-x="606" 
d="M51 310h504v-310h-115v195h-389v115z" />
    <glyph glyph-name="uni00AD" unicode="&#xad;" horiz-adv-x="333" 
d="M42 310h249v-130h-249v130z" />
    <glyph glyph-name="registered" unicode="&#xae;" horiz-adv-x="747" 
d="M330 340v-103c0 -32 0 -33 3 -37c4 -5 15 -6 41 -6h18v-37h-221v37h12c27 0 37 1 41 6c2 2 2 5 3 11v13v13v230c0 33 0 34 -3 38c-4 5 -13 6 -41 6h-12v37h232c52 0 85 -6 107 -20c28 -18 44 -47 44 -81c0 -51 -30 -82 -95 -97c36 -14 56 -41 64 -85l3 -20
c1 -7 2 -12 2 -15c4 -24 7 -29 18 -29c14 0 21 16 20 50h37v-12c0 -56 -36 -90 -94 -90c-43 0 -71 17 -85 52c-5 14 -7 24 -10 64c-4 63 -11 73 -58 75h-26zM330 377h25c69 0 89 16 89 67c0 48 -19 67 -67 67h-13c-32 0 -35 -2 -34 -30v-104zM373 721
c203 0 368 -165 368 -367c0 -206 -164 -369 -372 -369c-199 0 -364 167 -364 368c0 203 165 368 368 368zM374 669c-169 0 -306 -140 -306 -314c0 -170 137 -313 302 -313c173 0 309 139 309 314c0 172 -137 313 -305 313z" />
    <glyph glyph-name="macron" unicode="&#xaf;" horiz-adv-x="333" 
d="M-5 663h344v-80h-344v80z" />
    <glyph glyph-name="degree" unicode="&#xb0;" horiz-adv-x="400" 
d="M204 686c82 0 146 -67 146 -153s-66 -153 -150 -153s-150 67 -150 154c0 85 67 152 154 152zM202 629c-54 0 -96 -42 -96 -97c0 -52 42 -95 94 -95s93 42 93 96c0 53 -41 96 -91 96z" />
    <glyph glyph-name="plusminus" unicode="&#xb1;" horiz-adv-x="606" 
d="M246 300h-195v115h195v195h115v-195h194v-115h-194v-142h-115v142zM51 0v115h504v-115h-504z" />
    <glyph glyph-name="uni00B2" unicode="&#xb2;" horiz-adv-x="344" 
d="M5 281v32c32 43 58 72 127 140c66 66 85 99 85 146c0 43 -24 67 -67 67c-30 0 -63 -19 -63 -36c0 -4 2 -6 8 -8c31 -11 46 -30 46 -56c0 -32 -22 -52 -57 -52c-39 0 -65 28 -65 71c0 70 67 123 155 123c90 0 158 -49 158 -115c0 -47 -26 -88 -80 -126
c-20 -13 -22 -15 -81 -51c-20 -12 -37 -24 -55 -38h115l32 1c17 1 18 3 27 36l7 32h41l-16 -166c-20 2 -27 2 -41 2h-240c-10 0 -18 -1 -36 -2z" />
    <glyph glyph-name="uni00B3" unicode="&#xb3;" horiz-adv-x="344" 
d="M236 505c39 -8 59 -17 73 -32c17 -19 27 -45 27 -72c0 -78 -65 -126 -171 -126c-94 0 -157 42 -157 103c0 36 25 60 60 60c33 0 58 -23 58 -52c0 -18 -6 -28 -26 -44c-3 -3 -5 -6 -5 -9c0 -10 28 -21 53 -21c47 0 73 32 73 90c0 54 -19 81 -57 81c-4 0 -4 0 -23 -2
c-10 -1 -16 -2 -20 -2c-16 0 -27 11 -27 26s9 23 26 23c8 0 13 -1 27 -4c10 -3 16 -4 22 -4c29 0 45 29 45 80c0 45 -22 71 -59 71c-20 0 -44 -10 -44 -19c0 -2 0 -2 13 -16c9 -10 14 -22 14 -35c0 -31 -22 -51 -54 -51c-34 0 -60 25 -60 57c0 58 63 101 147 101
c92 0 153 -43 153 -108c0 -46 -24 -72 -88 -95z" />
    <glyph glyph-name="acute" unicode="&#xb4;" horiz-adv-x="333" 
d="M84 545l113 138c35 43 47 51 77 51c32 0 57 -22 57 -50c0 -21 -12 -38 -36 -52l-147 -87h-64z" />
    <glyph glyph-name="mu" unicode="&#xb5;" horiz-adv-x="685" 
d="M434 0v82c-56 -68 -106 -97 -168 -97c-48 0 -87 19 -113 55c0 -50 0 -51 18 -93c23 -53 29 -71 29 -91c0 -27 -6 -42 -23 -56c-14 -12 -33 -19 -52 -19c-45 0 -76 30 -76 72c0 23 2 29 26 91c12 31 18 56 18 76v298c0 93 -2 96 -64 97h-16v51l237 7v-288
c0 -76 21 -107 71 -107c38 0 73 23 89 57c12 25 17 54 17 103v80c0 93 -2 96 -65 97h-15v51l237 7v-342c-1 -61 3 -66 55 -66h28v-54z" />
    <glyph glyph-name="paragraph" unicode="&#xb6;" horiz-adv-x="747" 
d="M254 -3v328c-136 0 -219 74 -219 196c0 75 32 138 86 170c39 23 78 31 147 31h445v-55h-20c-36 -2 -53 -6 -59 -14c-4 -5 -5 -11 -6 -25v-47v-584v-44c0 -34 8 -40 65 -43h20v-54h-558v54h24c42 1 62 5 68 14c5 6 6 12 7 26v47zM476 667h-70v-756h70v756zM252 384v284
c-63 2 -87 -28 -87 -106v-71c2 -75 26 -109 76 -107h11z" />
    <glyph glyph-name="periodcentered" unicode="&#xb7;" horiz-adv-x="278" 
d="M139 348c52 0 94 -42 94 -94s-42 -94 -95 -94c-51 0 -93 43 -93 94c0 52 42 94 94 94z" />
    <glyph glyph-name="cedilla" unicode="&#xb8;" horiz-adv-x="333" 
d="M111 0h45l-29 -61c21 4 30 5 41 5c48 0 83 -32 83 -76c0 -53 -57 -90 -139 -90c-35 0 -64 6 -95 19l18 45c28 -13 43 -17 63 -17c30 0 49 15 49 39c0 21 -16 34 -41 34c-9 0 -14 -1 -23 -6l-19 10z" />
    <glyph glyph-name="uni00B9" unicode="&#xb9;" horiz-adv-x="344" 
d="M226 708v-336c0 -36 0 -37 4 -42s18 -7 50 -7h24v-39h-265v39h31c32 0 45 2 49 7s4 7 4 42v210c0 30 0 34 -5 40c-6 5 -11 5 -48 6h-30v40c77 0 121 11 160 40h26z" />
    <glyph glyph-name="ordmasculine" unicode="&#xba;" horiz-adv-x="367" 
d="M181 737c98 0 176 -67 176 -153c0 -85 -76 -149 -178 -149c-103 0 -178 63 -178 150s77 152 180 152zM180 705c-46 0 -69 -40 -69 -119s23 -119 67 -119s69 42 69 117c0 80 -23 121 -67 121z" />
    <glyph glyph-name="guillemotright" unicode="&#xbb;" horiz-adv-x="500" 
d="M251 266v-14c-54 -45 -105 -89 -154 -132c-14 -15 -22 -20 -29 -20c-5 0 -12 7 -12 12c0 6 7 20 19 40l64 107l-64 107c-12 20 -19 35 -19 41c0 5 7 12 13 12s14 -6 28 -20c49 -43 100 -88 154 -133zM451 266v-14c-54 -45 -105 -89 -154 -132c-14 -15 -22 -20 -29 -20
c-5 0 -12 7 -12 12c0 6 7 20 19 40l64 107l-64 107c-12 20 -19 35 -19 41c0 5 7 12 13 12s14 -6 28 -20c49 -43 100 -88 154 -133z" />
    <glyph glyph-name="onequarter" unicode="&#xbc;" horiz-adv-x="861" 
d="M598 722h79l-419 -722h-80zM756 154h66v-47h-66v-19c0 -35 0 -36 4 -42c3 -5 18 -7 44 -7h11v-39h-221v39h10c28 0 42 2 45 7c4 5 4 8 4 42v19h-170v49l229 268h48c-3 -47 -4 -84 -4 -93v-177zM653 154v134l-113 -134h113zM226 708v-336c0 -36 0 -37 4 -42s18 -7 50 -7
h24v-39h-265v39h31c32 0 45 2 49 7s4 7 4 42v210c0 30 0 34 -5 40c-6 5 -11 5 -48 6h-30v40c77 0 121 11 160 40h26z" />
    <glyph glyph-name="onehalf" unicode="&#xbd;" horiz-adv-x="861" 
d="M593 722h79l-420 -722h-79zM226 708v-336c0 -36 0 -37 4 -42s18 -7 50 -7h24v-39h-265v39h31c32 0 45 2 49 7s4 7 4 42v210c0 30 0 34 -5 40c-6 5 -11 5 -48 6h-30v40c77 0 121 11 160 40h26zM499 -2v32c32 43 58 72 127 140c66 66 85 99 85 147c0 42 -24 66 -67 66
c-30 0 -63 -19 -63 -36c0 -4 2 -6 8 -8c32 -13 46 -29 46 -56c0 -32 -22 -52 -57 -52c-39 0 -65 28 -65 71c0 70 67 123 155 123c90 0 158 -49 158 -115c0 -47 -26 -88 -80 -125c-21 -15 -23 -16 -81 -52c-20 -12 -37 -24 -55 -38h115l32 1c17 1 18 3 27 36l7 32h41
l-16 -166c-20 2 -27 2 -41 2h-240c-10 0 -18 -1 -36 -2z" />
    <glyph glyph-name="threequarters" unicode="&#xbe;" horiz-adv-x="861" 
d="M621 722h80l-420 -722h-79zM756 154h66v-47h-66v-19c0 -36 0 -36 4 -42c3 -5 18 -7 44 -7h11v-39h-221v39h10c28 0 42 2 45 7c4 5 4 7 4 42v19h-170v49l229 268h48c-3 -49 -4 -80 -4 -93v-177zM653 154v134l-113 -134h113zM236 505c39 -8 59 -17 73 -32
c17 -19 27 -45 27 -72c0 -78 -65 -126 -171 -126c-94 0 -157 42 -157 103c0 36 25 60 60 60c33 0 58 -23 58 -52c0 -18 -6 -28 -26 -44c-3 -3 -5 -6 -5 -9c0 -10 28 -21 53 -21c47 0 73 32 73 90c0 54 -19 81 -57 81c-4 0 -4 0 -23 -2c-10 -1 -16 -2 -20 -2
c-16 0 -27 11 -27 26s9 23 26 23c8 0 13 -1 27 -4c10 -3 16 -4 22 -4c29 0 45 29 45 80c0 45 -22 71 -59 71c-20 0 -44 -10 -44 -19c0 -2 0 -2 13 -16c9 -10 14 -22 14 -35c0 -31 -22 -51 -54 -51c-34 0 -60 25 -60 57c0 58 63 101 147 101c92 0 153 -43 153 -108
c0 -46 -24 -72 -88 -95z" />
    <glyph glyph-name="questiondown" unicode="&#xbf;" horiz-adv-x="500" 
d="M245 306h54c2 -16 3 -32 3 -42c0 -45 -8 -65 -63 -163c-25 -45 -40 -96 -40 -137c0 -71 34 -110 94 -110c31 0 53 11 53 25c0 7 -1 8 -19 22c-21 16 -32 38 -32 64c0 48 35 81 87 81c55 0 94 -39 94 -94c0 -91 -93 -155 -225 -155c-140 0 -228 69 -228 178
c0 48 20 94 55 124c7 7 17 14 93 72c61 48 71 65 74 135zM271 549c51 0 93 -43 93 -94c0 -52 -42 -94 -94 -94s-94 42 -94 94s42 94 95 94z" />
    <glyph glyph-name="Agrave" unicode="&#xc0;" horiz-adv-x="759" 
d="M351 737h76l257 -620c21 -51 37 -61 94 -63v-54h-351v54l17 1c44 0 58 6 58 24c0 8 -1 13 -12 41l-38 98h-249l-16 -38c-11 -24 -15 -40 -15 -57c0 -46 28 -65 99 -69v-54h-289v54c59 6 96 45 142 153zM330 524l-101 -239h198zM456 790h-64l-147 88c-24 14 -36 31 -36 52
c0 28 25 50 57 50c30 0 42 -8 77 -51z" />
    <glyph glyph-name="Aacute" unicode="&#xc1;" horiz-adv-x="759" 
d="M351 737h76l257 -620c21 -51 37 -61 94 -63v-54h-351v54l17 1c44 0 58 6 58 24c0 8 -1 13 -12 41l-38 98h-249l-16 -38c-11 -24 -15 -40 -15 -57c0 -46 28 -65 99 -69v-54h-289v54c59 6 96 45 142 153zM330 524l-101 -239h198zM324 790l112 139c35 43 48 51 78 51
c32 0 57 -22 57 -50c0 -21 -12 -37 -36 -52l-147 -88h-64z" />
    <glyph glyph-name="Acircumflex" unicode="&#xc2;" horiz-adv-x="759" 
d="M351 737h76l257 -620c21 -51 37 -61 94 -63v-54h-351v54l17 1c44 0 58 6 58 24c0 8 -1 13 -12 41l-38 98h-249l-16 -38c-11 -24 -15 -40 -15 -57c0 -46 28 -65 99 -69v-54h-289v54c59 6 96 45 142 153zM330 524l-101 -239h198zM216 790l121 179h109l121 -179h-67l-109 94
l-109 -94h-66z" />
    <glyph glyph-name="Atilde" unicode="&#xc3;" horiz-adv-x="759" 
d="M351 737h76l257 -620c21 -51 37 -61 94 -63v-54h-351v54l17 1c44 0 58 6 58 24c0 8 -1 13 -12 41l-38 98h-249l-16 -38c-11 -24 -15 -40 -15 -57c0 -46 28 -65 99 -69v-54h-289v54c59 6 96 45 142 153zM330 524l-101 -239h198zM535 933h49c-4 -35 -14 -60 -33 -86
c-28 -36 -54 -50 -92 -50c-34 0 -49 5 -102 34c-23 13 -46 21 -60 21c-19 0 -35 -18 -44 -50h-50c13 79 62 135 120 135c27 0 43 -5 95 -31c34 -16 57 -24 71 -24c21 0 32 12 46 51z" />
    <glyph glyph-name="Adieresis" unicode="&#xc4;" horiz-adv-x="759" 
d="M351 737h76l257 -620c21 -51 37 -61 94 -63v-54h-351v54l17 1c44 0 58 6 58 24c0 8 -1 13 -12 41l-38 98h-249l-16 -38c-11 -24 -15 -40 -15 -57c0 -46 28 -65 99 -69v-54h-289v54c59 6 96 45 142 153zM330 524l-101 -239h198zM280 938c39 0 70 -31 70 -70
c0 -40 -32 -71 -71 -71c-38 0 -70 32 -70 70c0 39 32 71 71 71zM495 938c39 0 70 -31 70 -70c0 -40 -31 -71 -71 -71c-38 0 -70 32 -70 70c0 39 32 71 71 71z" />
    <glyph glyph-name="Aring" unicode="&#xc5;" horiz-adv-x="759" 
d="M351 737h76l257 -620c21 -51 37 -61 94 -63v-54h-351v54l17 1c44 0 58 6 58 24c0 8 -1 13 -12 41l-38 98h-249l-16 -38c-11 -24 -15 -40 -15 -57c0 -46 28 -65 99 -69v-54h-289v54c59 6 96 45 142 153zM330 524l-101 -239h198zM387 990c59 0 107 -48 107 -107
c0 -61 -48 -108 -109 -108c-58 0 -106 49 -106 108s48 107 108 107zM387 938c-29 0 -53 -25 -53 -56c0 -30 24 -55 52 -55c29 0 53 25 53 56c0 30 -24 55 -52 55z" />
    <glyph glyph-name="AE" unicode="&#xc6;" horiz-adv-x="981" 
d="M946 722l6 -260h-52c-41 144 -99 201 -213 206h-21c-59 -3 -74 -20 -71 -86v-181h10c79 1 127 50 138 142h54v-339h-54c-12 94 -59 143 -138 143h-10v-223c-2 -54 16 -71 76 -71h17c108 0 187 76 222 216h53l-11 -269h-639v53h11c55 1 75 4 84 15c7 10 7 13 7 76v120
h-215l-49 -97c-14 -28 -22 -54 -22 -69c0 -28 29 -45 76 -45h18v-53h-252v53c41 8 63 32 102 110l197 391c12 25 18 44 18 60c0 35 -31 54 -88 54h-20v54h766zM415 319v327c0 17 -2 22 -10 22c-6 0 -7 -1 -18 -23l-160 -326h188z" />
    <glyph glyph-name="Ccedilla" unicode="&#xc7;" horiz-adv-x="778" 
d="M422 -15l-22 -48c21 4 30 5 41 5c48 0 83 -32 83 -75c0 -53 -57 -90 -139 -90c-36 0 -64 6 -95 18l17 45c29 -12 44 -16 64 -16c30 0 49 15 49 39c0 20 -16 33 -41 33c-9 0 -14 -1 -24 -5l-18 9l41 86c-92 6 -151 28 -206 74c-88 73 -132 171 -132 292
c0 109 33 198 101 270c72 77 165 115 277 115c72 0 117 -13 183 -53l54 49h43l10 -286l-53 -6c-45 167 -118 244 -229 244c-123 0 -187 -107 -187 -314c0 -220 64 -323 200 -323c115 0 196 79 222 217l62 -15c-35 -172 -133 -259 -301 -265z" />
    <glyph glyph-name="Egrave" unicode="&#xc8;" horiz-adv-x="759" 
d="M687 722l6 -260h-52c-42 149 -102 203 -227 206h-28c-74 -1 -88 -16 -86 -86v-181h17c79 0 127 50 138 142h54v-339h-54c-11 92 -59 142 -138 142h-17v-221c-1 -59 17 -73 90 -71h30c121 1 196 70 234 215h53l-12 -269h-679v54h15c53 0 73 4 82 15c7 10 7 13 7 75v434
c0 62 0 65 -7 75c-9 11 -29 15 -82 15h-15v54h671zM470 790h-64l-147 88c-24 14 -36 31 -36 52c0 28 25 50 57 50c30 0 42 -8 77 -51z" />
    <glyph glyph-name="Eacute" unicode="&#xc9;" horiz-adv-x="759" 
d="M687 722l6 -260h-52c-42 149 -102 203 -227 206h-28c-74 -1 -88 -16 -86 -86v-181h17c79 0 127 50 138 142h54v-339h-54c-11 92 -59 142 -138 142h-17v-221c-1 -59 17 -73 90 -71h30c121 1 196 70 234 215h53l-12 -269h-679v54h15c53 0 73 4 82 15c7 10 7 13 7 75v434
c0 62 0 65 -7 75c-9 11 -29 15 -82 15h-15v54h671zM317 790l113 139c35 43 47 51 77 51c32 0 57 -22 57 -50c0 -21 -12 -38 -36 -52l-147 -88h-64z" />
    <glyph glyph-name="Ecircumflex" unicode="&#xca;" horiz-adv-x="759" 
d="M687 722l6 -260h-52c-42 149 -102 203 -227 206h-28c-74 -1 -88 -16 -86 -86v-181h17c79 0 127 50 138 142h54v-339h-54c-11 92 -59 142 -138 142h-17v-221c-1 -59 17 -73 90 -71h30c121 1 196 70 234 215h53l-12 -269h-679v54h15c53 0 73 4 82 15c7 10 7 13 7 75v434
c0 62 0 65 -7 75c-9 11 -29 15 -82 15h-15v54h671zM212 790l121 179h109l121 -179h-67l-109 94l-109 -94h-66z" />
    <glyph glyph-name="Edieresis" unicode="&#xcb;" horiz-adv-x="759" 
d="M687 722l6 -260h-52c-42 149 -102 203 -227 206h-28c-74 -1 -88 -16 -86 -86v-181h17c79 0 127 50 138 142h54v-339h-54c-11 92 -59 142 -138 142h-17v-221c-1 -59 17 -73 90 -71h30c121 1 196 70 234 215h53l-12 -269h-679v54h15c53 0 73 4 82 15c7 10 7 13 7 75v434
c0 62 0 65 -7 75c-9 11 -29 15 -82 15h-15v54h671zM280 938c39 0 70 -31 70 -70c0 -40 -31 -71 -71 -71c-38 0 -70 32 -70 70c0 39 32 71 71 71zM495 938c39 0 70 -31 70 -70c0 -40 -31 -71 -71 -71c-38 0 -70 32 -70 70c0 39 32 71 71 71z" />
    <glyph glyph-name="Igrave" unicode="&#xcc;" horiz-adv-x="444" 
d="M28 0v54h15c53 0 73 4 82 15c7 10 7 13 7 75v434c0 62 0 65 -7 75c-9 11 -29 15 -82 15h-15v54h389v-54h-15c-54 0 -74 -4 -83 -15c-7 -10 -7 -13 -7 -75v-434c0 -62 0 -65 7 -75c9 -11 29 -15 83 -15h15v-54h-389zM298 790h-64l-147 88c-24 14 -36 31 -36 52
c0 28 25 50 57 50c17 0 33 -6 48 -18c5 -4 5 -4 29 -33z" />
    <glyph glyph-name="Iacute" unicode="&#xcd;" horiz-adv-x="444" 
d="M28 0v54h15c53 0 73 4 82 15c7 10 7 13 7 75v434c0 62 0 65 -7 75c-9 11 -29 15 -82 15h-15v54h389v-54h-15c-54 0 -74 -4 -83 -15c-7 -10 -7 -13 -7 -75v-434c0 -62 0 -65 7 -75c9 -11 29 -15 83 -15h15v-54h-389zM140 790l112 138c35 42 48 51 78 51
c32 0 57 -22 57 -50c0 -21 -12 -37 -37 -52l-147 -87h-63z" />
    <glyph glyph-name="Icircumflex" unicode="&#xce;" horiz-adv-x="444" 
d="M28 0v54h15c53 0 73 4 82 15c7 10 7 13 7 75v434c0 62 0 65 -7 75c-9 11 -29 15 -82 15h-15v54h389v-54h-15c-54 0 -74 -4 -83 -15c-7 -10 -7 -13 -7 -75v-434c0 -62 0 -65 7 -75c9 -11 29 -15 83 -15h15v-54h-389zM48 790l120 179h110l121 -179h-67l-109 94l-109 -94
h-66z" />
    <glyph glyph-name="Idieresis" unicode="&#xcf;" horiz-adv-x="444" 
d="M28 0v54h15c53 0 73 4 82 15c7 10 7 13 7 75v434c0 62 0 65 -7 75c-9 11 -29 15 -82 15h-15v54h389v-54h-15c-54 0 -74 -4 -83 -15c-7 -10 -7 -13 -7 -75v-434c0 -62 0 -65 7 -75c9 -11 29 -15 83 -15h15v-54h-389zM116 938c39 0 70 -31 70 -70c0 -40 -31 -71 -71 -71
c-38 0 -70 32 -70 70c0 39 32 71 71 71zM331 938c39 0 70 -31 70 -70c0 -40 -31 -71 -71 -71c-38 0 -70 32 -70 70c0 39 32 71 71 71z" />
    <glyph glyph-name="Eth" unicode="&#xd0;" horiz-adv-x="833" 
d="M123 339h-104v60h104v179c0 62 0 65 -7 75c-9 11 -29 15 -82 15h-15v54h337c165 0 230 -12 294 -54c94 -61 143 -164 143 -300s-48 -244 -138 -306c-62 -44 -141 -62 -268 -62h-368v54h15c53 0 73 4 82 15c7 10 7 13 7 75v195zM303 339v-220c0 -54 9 -64 60 -65h22
c67 0 125 26 156 68c32 45 53 142 53 247c0 118 -27 211 -72 254c-35 31 -75 45 -133 45h-26c-50 -2 -62 -14 -60 -60v-209h144v-60h-144z" />
    <glyph glyph-name="Ntilde" unicode="&#xd1;" horiz-adv-x="833" 
d="M270 722l386 -452v235c2 129 -17 159 -108 163v54h285v-54c-92 -4 -113 -34 -110 -163v-512h-67l-465 553v-329c-2 -129 17 -158 110 -163v-54h-285v54c91 5 110 34 108 163v394c-26 36 -61 55 -106 56v55h252zM572 933h49c-4 -34 -13 -59 -33 -86
c-27 -36 -54 -50 -92 -50c-34 0 -49 5 -102 34c-23 13 -46 21 -60 21c-19 0 -35 -18 -44 -50h-50c13 80 62 135 120 135c27 0 43 -5 95 -31c34 -16 57 -24 71 -24c15 0 30 11 37 28c2 4 5 11 9 23z" />
    <glyph glyph-name="Ograve" unicode="&#xd2;" horiz-adv-x="833" 
d="M417 737c98 0 176 -27 243 -85c84 -71 134 -185 134 -301c0 -117 -47 -220 -134 -288c-67 -54 -145 -78 -248 -78c-217 0 -373 153 -373 365c0 117 50 230 134 302c65 57 147 85 244 85zM418 685c-59 0 -99 -22 -128 -71c-34 -57 -51 -137 -51 -245
c0 -106 18 -193 51 -255c28 -52 70 -77 128 -77c114 0 176 110 176 313c0 108 -18 198 -51 258c-29 51 -71 77 -125 77zM499 790h-64l-147 88c-24 15 -36 31 -36 52c0 28 25 50 57 50c30 0 42 -8 77 -51z" />
    <glyph glyph-name="Oacute" unicode="&#xd3;" horiz-adv-x="833" 
d="M417 737c98 0 176 -27 243 -85c84 -71 134 -185 134 -301c0 -117 -47 -220 -134 -288c-67 -54 -145 -78 -248 -78c-217 0 -373 153 -373 365c0 117 50 230 134 302c65 57 147 85 244 85zM418 685c-59 0 -99 -22 -128 -71c-34 -57 -51 -137 -51 -245
c0 -106 18 -193 51 -255c28 -52 70 -77 128 -77c114 0 176 110 176 313c0 108 -18 198 -51 258c-29 51 -71 77 -125 77zM341 790l113 139c35 43 47 51 77 51c32 0 57 -22 57 -50c0 -21 -12 -37 -36 -52l-147 -88h-64z" />
    <glyph glyph-name="Ocircumflex" unicode="&#xd4;" horiz-adv-x="833" 
d="M417 737c98 0 176 -27 243 -85c84 -71 134 -185 134 -301c0 -117 -47 -220 -134 -288c-67 -54 -145 -78 -248 -78c-217 0 -373 153 -373 365c0 117 50 230 134 302c65 57 147 85 244 85zM418 685c-59 0 -99 -22 -128 -71c-34 -57 -51 -137 -51 -245
c0 -106 18 -193 51 -255c28 -52 70 -77 128 -77c114 0 176 110 176 313c0 108 -18 198 -51 258c-29 51 -71 77 -125 77zM242 790l121 179h109l121 -179h-67l-108 94l-109 -94h-67z" />
    <glyph glyph-name="Otilde" unicode="&#xd5;" horiz-adv-x="833" 
d="M417 737c98 0 176 -27 243 -85c84 -71 134 -185 134 -301c0 -117 -47 -220 -134 -288c-67 -54 -145 -78 -248 -78c-217 0 -373 153 -373 365c0 117 50 230 134 302c65 57 147 85 244 85zM418 685c-59 0 -99 -22 -128 -71c-34 -57 -51 -137 -51 -245
c0 -106 18 -193 51 -255c28 -52 70 -77 128 -77c114 0 176 110 176 313c0 108 -18 198 -51 258c-29 51 -71 77 -125 77zM566 933h49c-4 -34 -14 -59 -34 -86c-27 -36 -53 -50 -91 -50c-35 0 -49 5 -102 34c-24 13 -47 21 -60 21c-20 0 -36 -18 -44 -50h-50
c12 79 61 135 119 135c28 0 44 -5 96 -31c33 -16 56 -24 70 -24c22 0 33 12 47 51z" />
    <glyph glyph-name="Odieresis" unicode="&#xd6;" horiz-adv-x="833" 
d="M417 737c98 0 176 -27 243 -85c84 -71 134 -185 134 -301c0 -117 -47 -220 -134 -288c-67 -54 -145 -78 -248 -78c-217 0 -373 153 -373 365c0 117 50 230 134 302c65 57 147 85 244 85zM418 685c-59 0 -99 -22 -128 -71c-34 -57 -51 -137 -51 -245
c0 -106 18 -193 51 -255c28 -52 70 -77 128 -77c114 0 176 110 176 313c0 108 -18 198 -51 258c-29 51 -71 77 -125 77zM310 938c39 0 70 -31 70 -70c0 -40 -31 -71 -71 -71c-38 0 -70 32 -70 70c0 39 32 71 71 71zM525 938c39 0 70 -31 70 -70c0 -40 -31 -71 -71 -71
c-38 0 -70 32 -70 70c0 39 32 71 71 71z" />
    <glyph glyph-name="multiply" unicode="&#xd7;" horiz-adv-x="606" 
d="M303 171l-171 -170l-81 81l171 171l-171 170l81 82l171 -171l171 171l81 -82l-171 -170l171 -171l-81 -81z" />
    <glyph glyph-name="Oslash" unicode="&#xd8;" horiz-adv-x="833" 
d="M613 688l53 74h65l-75 -105c85 -70 137 -180 137 -292c0 -99 -43 -205 -114 -275c-69 -70 -158 -105 -266 -105c-78 0 -141 17 -200 54l-57 -79h-65l79 111c-85 75 -131 178 -131 292c0 214 164 375 382 375c72 0 135 -16 192 -50zM258 193l291 407
c-31 60 -71 86 -132 86c-117 0 -178 -107 -178 -314c0 -71 6 -125 19 -179zM573 541l-294 -409c29 -66 72 -95 141 -95c60 0 108 29 130 79c27 61 43 155 43 257c0 63 -7 122 -20 168z" />
    <glyph glyph-name="Ugrave" unicode="&#xd9;" horiz-adv-x="833" 
d="M15 668v54h389v-54h-15c-54 0 -74 -4 -83 -15c-7 -10 -7 -13 -7 -75v-320c0 -73 11 -122 33 -149c28 -33 70 -49 128 -49c84 0 141 32 170 95c13 28 17 67 17 149v201c2 129 -17 158 -108 163v54h285v-54c-93 -5 -112 -34 -110 -163v-201c0 -119 -8 -162 -36 -208
c-49 -77 -126 -111 -254 -111c-141 0 -238 40 -279 115c-19 35 -26 77 -26 161v317c0 62 0 65 -7 75c-9 11 -29 15 -82 15h-15zM529 790h-64l-147 88c-24 14 -36 31 -36 52c0 28 25 50 57 50c30 0 42 -8 77 -51z" />
    <glyph glyph-name="Uacute" unicode="&#xda;" horiz-adv-x="833" 
d="M15 668v54h389v-54h-15c-54 0 -74 -4 -83 -15c-7 -10 -7 -13 -7 -75v-320c0 -73 11 -122 33 -149c28 -33 70 -49 128 -49c84 0 141 32 170 95c13 28 17 67 17 149v201c2 129 -17 158 -108 163v54h285v-54c-93 -5 -112 -34 -110 -163v-201c0 -119 -8 -162 -36 -208
c-49 -77 -126 -111 -254 -111c-141 0 -238 40 -279 115c-19 35 -26 77 -26 161v317c0 62 0 65 -7 75c-9 11 -29 15 -82 15h-15zM374 790l113 139c35 43 47 51 77 51c32 0 57 -22 57 -50c0 -21 -12 -38 -36 -52l-147 -88h-64z" />
    <glyph glyph-name="Ucircumflex" unicode="&#xdb;" horiz-adv-x="833" 
d="M15 668v54h389v-54h-15c-54 0 -74 -4 -83 -15c-7 -10 -7 -13 -7 -75v-320c0 -73 11 -122 33 -149c28 -33 70 -49 128 -49c84 0 141 32 170 95c13 28 17 67 17 149v201c2 129 -17 158 -108 163v54h285v-54c-93 -5 -112 -34 -110 -163v-201c0 -119 -8 -162 -36 -208
c-49 -77 -126 -111 -254 -111c-141 0 -238 40 -279 115c-19 35 -26 77 -26 161v317c0 62 0 65 -7 75c-9 11 -29 15 -82 15h-15zM265 790l121 179h109l121 -179h-66l-109 94l-109 -94h-67z" />
    <glyph glyph-name="Udieresis" unicode="&#xdc;" horiz-adv-x="833" 
d="M15 668v54h389v-54h-15c-54 0 -74 -4 -83 -15c-7 -10 -7 -13 -7 -75v-320c0 -73 11 -122 33 -149c28 -33 70 -49 128 -49c84 0 141 32 170 95c13 28 17 67 17 149v201c2 129 -17 158 -108 163v54h285v-54c-93 -5 -112 -34 -110 -163v-201c0 -119 -8 -162 -36 -208
c-49 -77 -126 -111 -254 -111c-141 0 -238 40 -279 115c-19 35 -26 77 -26 161v317c0 62 0 65 -7 75c-9 11 -29 15 -82 15h-15zM343 938c39 0 70 -31 70 -70c0 -40 -31 -71 -71 -71c-38 0 -70 32 -70 70c0 39 32 71 71 71zM558 938c39 0 70 -31 70 -70
c0 -40 -31 -71 -71 -71c-38 0 -70 32 -70 70c0 39 32 71 71 71z" />
    <glyph glyph-name="Yacute" unicode="&#xdd;" horiz-adv-x="722" 
d="M420 396l100 178c8 15 14 34 14 46c0 28 -29 48 -73 48h-21v54h295v-54c-56 -4 -95 -31 -134 -93l-150 -257v-174c0 -62 0 -65 7 -75c9 -11 29 -15 83 -15h22v-54h-404v54h22c54 0 74 4 83 15c7 10 7 13 7 75v161l-204 327c-19 29 -34 36 -79 36v54h360v-54h-16
c-38 0 -56 -7 -56 -22c0 -9 2 -15 12 -31zM307 790l113 139c35 42 48 51 77 51c33 0 58 -22 58 -50c0 -21 -11 -37 -37 -52l-147 -88h-64z" />
    <glyph glyph-name="Thorn" unicode="&#xde;" horiz-adv-x="759" 
d="M24 0v54h15c54 1 73 4 82 15c7 10 7 14 7 75v434c0 61 0 65 -7 76c-9 10 -28 14 -82 14h-15v54h389v-54h-15c-54 0 -74 -4 -83 -14c-7 -10 -7 -15 -7 -76h113c100 0 159 -10 213 -35c64 -30 101 -91 101 -166c0 -140 -105 -211 -315 -211h-112v-22c0 -62 0 -65 7 -75
c9 -11 29 -14 83 -15h15v-54h-389zM308 221h59c130 0 176 41 176 158c0 101 -42 144 -140 144h-40c-45 0 -55 -12 -55 -60v-242z" />
    <glyph glyph-name="germandbls" unicode="&#xdf;" horiz-adv-x="611" 
d="M85 144v354c0 167 68 239 228 239c70 0 123 -13 161 -39c39 -27 63 -75 63 -124c0 -73 -44 -128 -122 -151c100 -24 160 -102 160 -208c0 -132 -88 -230 -208 -230c-27 0 -46 4 -74 15v63c20 -17 41 -26 62 -26c39 0 58 60 58 182c0 88 -13 145 -38 163
c-11 8 -19 10 -57 10c-20 0 -27 5 -27 20c0 13 10 27 20 27l27 -1c37 0 52 35 52 120c0 93 -21 127 -78 127c-54 0 -70 -32 -70 -144v-541h-236v51h4c43 0 62 4 69 13c4 6 5 12 6 26v54z" />
    <glyph glyph-name="agrave" unicode="&#xe0;" horiz-adv-x="611" 
d="M516 318v-176c0 -59 5 -72 27 -72c7 0 10 1 19 7c8 5 14 7 20 7c10 0 15 -6 15 -16c0 -43 -53 -83 -110 -83c-51 0 -89 26 -106 71c-53 -52 -105 -71 -191 -71c-98 0 -154 43 -154 117c0 66 40 108 133 139c43 15 66 21 128 34c37 8 57 13 62 14v52c0 70 -22 95 -83 95
c-40 0 -73 -15 -73 -32c0 -5 0 -5 9 -17s14 -26 14 -38c0 -37 -35 -65 -82 -65s-81 32 -81 75c0 78 90 129 228 129c79 0 141 -16 178 -45c35 -29 47 -60 47 -125zM359 235l-53 -12c-72 -17 -103 -47 -103 -101c0 -42 25 -69 64 -69c57 0 92 49 92 126v56zM375 545h-64
l-147 87c-24 14 -36 31 -36 52c0 28 25 50 57 50c17 0 32 -6 48 -18c5 -4 5 -4 29 -33z" />
    <glyph glyph-name="aacute" unicode="&#xe1;" horiz-adv-x="611" 
d="M516 318v-176c0 -59 5 -72 27 -72c7 0 10 1 19 7c8 5 14 7 20 7c10 0 15 -6 15 -16c0 -43 -53 -83 -110 -83c-51 0 -89 26 -106 71c-53 -52 -105 -71 -191 -71c-98 0 -154 43 -154 117c0 66 40 108 133 139c43 15 66 21 128 34c37 8 57 13 62 14v52c0 70 -22 95 -83 95
c-40 0 -73 -15 -73 -32c0 -5 0 -5 9 -17s14 -26 14 -38c0 -37 -35 -65 -82 -65s-81 32 -81 75c0 78 90 129 228 129c79 0 141 -16 178 -45c35 -29 47 -60 47 -125zM359 235l-53 -12c-72 -17 -103 -47 -103 -101c0 -42 25 -69 64 -69c57 0 92 49 92 126v56zM220 545l112 138
c36 43 48 51 78 51c32 0 57 -22 57 -50c0 -21 -12 -38 -36 -52l-147 -87h-64z" />
    <glyph glyph-name="acircumflex" unicode="&#xe2;" horiz-adv-x="611" 
d="M516 318v-176c0 -59 5 -72 27 -72c7 0 10 1 19 7c8 5 14 7 20 7c10 0 15 -6 15 -16c0 -43 -53 -83 -110 -83c-51 0 -89 26 -106 71c-53 -52 -105 -71 -191 -71c-98 0 -154 43 -154 117c0 66 40 108 133 139c43 15 66 21 128 34c37 8 57 13 62 14v52c0 70 -22 95 -83 95
c-40 0 -73 -15 -73 -32c0 -5 0 -5 9 -17s14 -26 14 -38c0 -37 -35 -65 -82 -65s-81 32 -81 75c0 78 90 129 228 129c79 0 141 -16 178 -45c35 -29 47 -60 47 -125zM359 235l-53 -12c-72 -17 -103 -47 -103 -101c0 -42 25 -69 64 -69c57 0 92 49 92 126v56zM118 544l121 178
h109l121 -178h-67l-109 93l-108 -93h-67z" />
    <glyph glyph-name="atilde" unicode="&#xe3;" horiz-adv-x="611" 
d="M516 318v-176c0 -59 5 -72 27 -72c7 0 10 1 19 7c8 5 14 7 20 7c10 0 15 -6 15 -16c0 -43 -53 -83 -110 -83c-51 0 -89 26 -106 71c-53 -52 -105 -71 -191 -71c-98 0 -154 43 -154 117c0 66 40 108 133 139c43 15 66 21 128 34c37 8 57 13 62 14v52c0 70 -22 95 -83 95
c-40 0 -73 -15 -73 -32c0 -5 0 -5 9 -17s14 -26 14 -38c0 -37 -35 -65 -82 -65s-81 32 -81 75c0 78 90 129 228 129c79 0 141 -16 178 -45c35 -29 47 -60 47 -125zM359 235l-53 -12c-72 -17 -103 -47 -103 -101c0 -42 25 -69 64 -69c57 0 92 49 92 126v56zM441 701h49
c-4 -34 -13 -58 -33 -85c-28 -36 -54 -50 -92 -50c-34 0 -49 5 -101 33c-24 13 -47 21 -60 21c-20 0 -36 -18 -45 -50h-50c13 79 62 135 120 135c27 0 43 -5 95 -30c34 -16 56 -24 71 -24c21 0 33 12 46 50z" />
    <glyph glyph-name="adieresis" unicode="&#xe4;" horiz-adv-x="611" 
d="M516 318v-176c0 -59 5 -72 27 -72c7 0 10 1 19 7c8 5 14 7 20 7c10 0 15 -6 15 -16c0 -43 -53 -83 -110 -83c-51 0 -89 26 -106 71c-53 -52 -105 -71 -191 -71c-98 0 -154 43 -154 117c0 66 40 108 133 139c43 15 66 21 128 34c37 8 57 13 62 14v52c0 70 -22 95 -83 95
c-40 0 -73 -15 -73 -32c0 -5 0 -5 9 -17s14 -26 14 -38c0 -37 -35 -65 -82 -65s-81 32 -81 75c0 78 90 129 228 129c79 0 141 -16 178 -45c35 -29 47 -60 47 -125zM359 235l-53 -12c-72 -17 -103 -47 -103 -101c0 -42 25 -69 64 -69c57 0 92 49 92 126v56zM183 693
c39 0 70 -31 70 -70c0 -40 -31 -71 -71 -71c-38 0 -70 32 -70 70c0 39 32 71 71 71zM398 693c39 0 70 -31 70 -70c0 -40 -31 -71 -71 -71c-38 0 -70 32 -70 70c0 39 32 71 71 71z" />
    <glyph glyph-name="aring" unicode="&#xe5;" horiz-adv-x="611" 
d="M516 318v-176c0 -59 5 -72 27 -72c7 0 10 1 19 7c8 5 14 7 20 7c10 0 15 -6 15 -16c0 -43 -53 -83 -110 -83c-51 0 -89 26 -106 71c-53 -52 -105 -71 -191 -71c-98 0 -154 43 -154 117c0 66 40 108 133 139c43 15 66 21 128 34c37 8 57 13 62 14v52c0 70 -22 95 -83 95
c-40 0 -73 -15 -73 -32c0 -5 0 -5 9 -17s14 -26 14 -38c0 -37 -35 -65 -82 -65s-81 32 -81 75c0 78 90 129 228 129c79 0 141 -16 178 -45c35 -29 47 -60 47 -125zM359 235l-53 -12c-72 -17 -103 -47 -103 -101c0 -42 25 -69 64 -69c57 0 92 49 92 126v56zM296 760
c59 0 107 -48 107 -107c0 -60 -48 -108 -109 -108c-58 0 -106 49 -106 108s48 107 108 107zM296 708c-29 0 -53 -25 -53 -56c0 -30 24 -55 52 -55c30 0 53 25 53 56c0 30 -24 55 -52 55z" />
    <glyph glyph-name="ae" unicode="&#xe6;" horiz-adv-x="870" 
d="M787 164l49 -20c-44 -107 -121 -159 -234 -159c-84 0 -155 32 -201 91c-59 -62 -127 -91 -215 -91c-99 0 -156 43 -156 118c0 63 42 108 133 141c41 15 50 17 128 33c38 7 38 7 62 13v52c0 69 -22 94 -83 94c-40 0 -73 -14 -73 -32c0 -5 0 -5 9 -17c9 -11 14 -25 14 -38
c0 -36 -35 -64 -82 -64s-81 32 -81 74c0 77 90 129 224 129c71 0 131 -18 169 -51c45 34 99 51 156 51c139 0 231 -98 231 -246c0 -1 0 -8 -1 -14h-335c2 -58 8 -88 26 -115c24 -38 64 -60 110 -60c66 0 111 33 150 111zM353 236l-53 -13c-72 -17 -103 -47 -103 -100
c0 -43 25 -70 64 -70c57 0 92 49 92 126v57zM502 283h150c21 0 28 8 28 32c0 79 -28 121 -79 121c-61 0 -98 -58 -99 -153z" />
    <glyph glyph-name="ccedilla" unicode="&#xe7;" horiz-adv-x="556" 
d="M305 -15l-22 -46c20 4 30 5 41 5c48 0 83 -32 83 -76c0 -53 -57 -90 -139 -90c-35 0 -64 6 -95 19l18 45c28 -13 43 -17 63 -17c30 0 49 15 49 39c0 21 -16 34 -41 34c-9 0 -14 -1 -23 -6l-19 10l41 85c-143 17 -230 108 -230 242c0 151 119 259 285 259
c121 0 199 -53 199 -136c0 -52 -35 -85 -89 -85c-48 0 -82 30 -82 73c0 19 3 27 20 50c11 14 11 14 11 18c0 16 -23 28 -52 28c-75 0 -119 -69 -119 -188c0 -123 46 -193 129 -193c40 0 80 19 104 51c15 19 23 34 38 71l52 -17c-36 -114 -116 -177 -222 -175z" />
    <glyph glyph-name="egrave" unicode="&#xe8;" horiz-adv-x="574" 
d="M540 228h-335c1 -57 8 -88 25 -115c25 -38 65 -60 111 -60c66 0 110 33 150 111l49 -20c-44 -107 -121 -159 -238 -159c-76 0 -143 22 -189 61c-50 43 -81 114 -81 186c0 66 27 132 72 179c50 51 116 77 197 77c147 0 239 -95 239 -244v-16zM206 283h150c20 0 27 8 27 32
c0 79 -27 121 -79 121c-60 0 -98 -58 -98 -153zM382 545h-64l-147 87c-24 14 -36 32 -36 53c0 27 26 49 57 49c16 0 32 -6 48 -18c5 -4 5 -4 29 -33z" />
    <glyph glyph-name="eacute" unicode="&#xe9;" horiz-adv-x="574" 
d="M540 228h-335c1 -57 8 -88 25 -115c25 -38 65 -60 111 -60c66 0 110 33 150 111l49 -20c-44 -107 -121 -159 -238 -159c-76 0 -143 22 -189 61c-50 43 -81 114 -81 186c0 66 27 132 72 179c50 51 116 77 197 77c147 0 239 -95 239 -244v-16zM206 283h150c20 0 27 8 27 32
c0 79 -27 121 -79 121c-60 0 -98 -58 -98 -153zM225 545l112 138c35 43 48 51 78 51c32 0 57 -22 57 -50c0 -21 -12 -38 -37 -52l-146 -87h-64z" />
    <glyph glyph-name="ecircumflex" unicode="&#xea;" horiz-adv-x="574" 
d="M540 228h-335c1 -57 8 -88 25 -115c25 -38 65 -60 111 -60c66 0 110 33 150 111l49 -20c-44 -107 -121 -159 -238 -159c-76 0 -143 22 -189 61c-50 43 -81 114 -81 186c0 66 27 132 72 179c50 51 116 77 197 77c147 0 239 -95 239 -244v-16zM206 283h150c20 0 27 8 27 32
c0 79 -27 121 -79 121c-60 0 -98 -58 -98 -153zM117 544l121 178h109l121 -178h-67l-108 93l-109 -93h-67z" />
    <glyph glyph-name="edieresis" unicode="&#xeb;" horiz-adv-x="574" 
d="M540 228h-335c1 -57 8 -88 25 -115c25 -38 65 -60 111 -60c66 0 110 33 150 111l49 -20c-44 -107 -121 -159 -238 -159c-76 0 -143 22 -189 61c-50 43 -81 114 -81 186c0 66 27 132 72 179c50 51 116 77 197 77c147 0 239 -95 239 -244v-16zM206 283h150c20 0 27 8 27 32
c0 79 -27 121 -79 121c-60 0 -98 -58 -98 -153zM188 693c39 0 70 -31 70 -70c0 -40 -31 -71 -71 -71c-38 0 -70 32 -70 70c0 39 32 71 71 71zM403 693c39 0 70 -31 70 -70c0 -40 -31 -71 -71 -71c-38 0 -70 32 -70 70c0 39 32 71 71 71z" />
    <glyph glyph-name="igrave" unicode="&#xec;" horiz-adv-x="370" 
d="M263 473v-329v-50c0 -36 9 -42 72 -43h6v-51h-313v51h4c42 0 62 4 68 13c4 6 5 12 6 26v54v177c0 89 -2 93 -64 94h-14v51zM268 545h-64l-147 87c-24 14 -36 31 -36 52c0 28 25 50 57 50c30 0 42 -8 77 -51z" />
    <glyph glyph-name="iacute" unicode="&#xed;" horiz-adv-x="370" 
d="M263 473v-329v-50c0 -36 9 -42 72 -43h6v-51h-313v51h4c42 0 62 4 68 13c4 6 5 12 6 26v8v46v177c0 89 -3 93 -64 94h-14v51zM103 545l113 138c35 43 47 51 77 51c32 0 57 -22 57 -50c0 -21 -12 -38 -36 -52l-147 -87h-64z" />
    <glyph glyph-name="icircumflex" unicode="&#xee;" horiz-adv-x="370" 
d="M263 473v-329v-50c0 -36 9 -42 72 -43h6v-51h-313v51h4c42 0 62 4 68 13c4 6 5 12 6 26v8v46v177c0 89 -3 93 -64 94h-14v51zM11 544l121 178h109l121 -178h-67l-108 93l-109 -93h-67z" />
    <glyph glyph-name="idieresis" unicode="&#xef;" horiz-adv-x="370" 
d="M263 473v-329v-50c0 -36 9 -42 72 -43h6v-51h-313v51h4c42 0 62 4 68 13c4 6 5 12 6 26v8v46v177c0 89 -3 93 -64 94h-14v51zM79 693c39 0 70 -31 70 -70c0 -40 -31 -71 -71 -71c-38 0 -70 32 -70 70c0 39 32 71 71 71zM294 693c39 0 70 -31 70 -70
c0 -40 -31 -71 -71 -71c-38 0 -70 32 -70 70c0 39 32 71 71 71z" />
    <glyph glyph-name="eth" unicode="&#xf0;" horiz-adv-x="611" 
d="M404 748l-108 -65c189 -143 283 -289 283 -437c0 -81 -26 -143 -79 -191c-51 -46 -118 -70 -196 -70c-158 0 -273 105 -273 251c0 142 118 252 270 252c18 0 27 -1 45 -6c-36 66 -76 119 -121 158l-116 -72l-27 43l102 65c-20 19 -60 46 -102 68l32 39
c31 -11 48 -18 67 -27c7 -4 23 -13 47 -26c2 -1 18 -11 23 -13l125 76zM306 436c-67 0 -102 -68 -102 -200s34 -199 101 -199c65 0 101 71 101 197c0 54 -8 110 -20 143c-13 35 -45 59 -80 59z" />
    <glyph glyph-name="ntilde" unicode="&#xf1;" horiz-adv-x="685" 
d="M249 473v-88c49 74 99 103 178 103c53 0 97 -17 124 -48c27 -29 38 -67 38 -129v-167v-50c0 -37 8 -42 75 -43h4v-51h-305v51c34 -1 53 3 63 13c4 6 5 12 6 26v26v28v153c0 64 -26 98 -73 98c-36 0 -71 -23 -87 -59c-12 -24 -16 -50 -16 -95v-97v-50
c-1 -35 12 -43 69 -43v-51h-305v51h4c43 0 62 4 69 13c4 6 5 12 6 26v8v46v174c1 92 -2 96 -64 97h-15v51zM485 701h49c-4 -34 -13 -58 -34 -85c-27 -36 -53 -50 -91 -50c-35 0 -49 5 -102 33c-23 13 -46 21 -60 21c-19 0 -35 -18 -44 -50h-50c12 79 62 135 119 135
c28 0 44 -5 96 -30c33 -16 56 -24 71 -24c21 0 33 13 46 50z" />
    <glyph glyph-name="ograve" unicode="&#xf2;" horiz-adv-x="611" 
d="M308 488c152 0 271 -112 271 -254c0 -143 -117 -249 -275 -249s-273 105 -273 250s118 253 277 253zM306 436c-68 0 -102 -67 -102 -200c0 -132 34 -199 101 -199c65 0 101 71 101 198c0 53 -8 109 -20 142c-13 35 -45 59 -80 59zM387 545h-64l-147 87
c-24 14 -36 31 -36 52c0 28 25 50 57 50c30 0 42 -8 78 -51z" />
    <glyph glyph-name="oacute" unicode="&#xf3;" horiz-adv-x="611" 
d="M308 488c152 0 271 -112 271 -254c0 -143 -117 -249 -275 -249s-273 105 -273 250s118 253 277 253zM306 436c-68 0 -102 -67 -102 -200c0 -132 34 -199 101 -199c65 0 101 71 101 198c0 53 -8 109 -20 142c-13 35 -45 59 -80 59zM240 545l112 138c36 43 48 51 78 51
c32 0 57 -22 57 -50c0 -21 -12 -38 -36 -52l-147 -87h-64z" />
    <glyph glyph-name="ocircumflex" unicode="&#xf4;" horiz-adv-x="611" 
d="M308 488c152 0 271 -112 271 -254c0 -143 -117 -249 -275 -249s-273 105 -273 250s118 253 277 253zM306 436c-68 0 -102 -67 -102 -200c0 -132 34 -199 101 -199c65 0 101 71 101 198c0 53 -8 109 -20 142c-13 35 -45 59 -80 59zM131 544l121 178h109l121 -178h-67
l-108 93l-109 -93h-67z" />
    <glyph glyph-name="otilde" unicode="&#xf5;" horiz-adv-x="611" 
d="M308 488c152 0 271 -112 271 -254c0 -143 -117 -249 -275 -249s-273 105 -273 250s118 253 277 253zM306 436c-68 0 -102 -67 -102 -200c0 -132 34 -199 101 -199c65 0 101 71 101 198c0 53 -8 109 -20 142c-13 35 -45 59 -80 59zM455 701h49c-4 -34 -14 -58 -34 -85
c-27 -36 -53 -50 -92 -50c-34 0 -49 5 -101 33c-23 13 -47 21 -60 21c-20 0 -36 -18 -45 -50h-49c12 79 61 135 119 135c27 0 43 -5 96 -30c33 -16 56 -24 70 -24c22 0 33 12 47 50z" />
    <glyph glyph-name="odieresis" unicode="&#xf6;" horiz-adv-x="611" 
d="M308 488c152 0 271 -112 271 -254c0 -143 -117 -249 -275 -249s-273 105 -273 250s118 253 277 253zM306 436c-68 0 -102 -67 -102 -200c0 -132 34 -199 101 -199c65 0 101 71 101 198c0 53 -8 109 -20 142c-13 35 -45 59 -80 59zM199 693c39 0 70 -31 70 -70
c0 -40 -31 -71 -71 -71c-38 0 -70 32 -70 70c0 39 32 71 71 71zM414 693c39 0 70 -31 70 -70c0 -40 -31 -71 -71 -71c-38 0 -70 32 -70 70c0 39 32 71 71 71z" />
    <glyph glyph-name="divide" unicode="&#xf7;" horiz-adv-x="606" 
d="M305 136c45 0 82 -38 82 -83c0 -47 -37 -84 -83 -84c-47 0 -84 37 -84 84c0 46 38 83 85 83zM305 536c45 0 82 -38 82 -83c0 -47 -37 -84 -83 -84c-47 0 -84 37 -84 84c0 46 38 83 85 83zM51 195v115h504v-115h-504z" />
    <glyph glyph-name="oslash" unicode="&#xf8;" horiz-adv-x="611" 
d="M411 469l54 94h58l-67 -115c82 -54 123 -125 123 -214c0 -143 -117 -249 -274 -249c-39 0 -73 6 -107 18l-54 -93h-58l66 114c-75 42 -121 123 -121 212c0 142 118 252 271 252c38 0 74 -6 109 -19zM214 130l158 273c-18 22 -39 33 -67 33c-66 0 -101 -69 -101 -201
c0 -41 3 -73 10 -105zM396 343l-158 -272c18 -24 39 -34 66 -34c66 0 102 71 102 198c0 36 -4 80 -10 108z" />
    <glyph glyph-name="ugrave" unicode="&#xf9;" horiz-adv-x="685" 
d="M410 545h-64l-147 87c-24 14 -36 31 -36 52c0 28 25 50 57 50c17 0 32 -6 48 -18c5 -4 5 -4 29 -33zM584 473v-342c-1 -61 3 -66 55 -66h28v-54l-233 -11v82c-58 -71 -106 -97 -177 -97c-69 0 -121 30 -148 86c-14 28 -16 46 -16 120v127c1 92 -2 96 -64 97h-16v51l237 7
v-288c0 -76 21 -107 71 -107c38 0 73 23 89 57c13 26 17 53 17 103v80c1 92 -2 96 -64 97h-16v51z" />
    <glyph glyph-name="uacute" unicode="&#xfa;" horiz-adv-x="685" 
d="M258 545l113 138c35 43 47 51 77 51c32 0 57 -22 57 -50c0 -21 -12 -38 -36 -52l-147 -87h-64zM584 473v-342c-1 -61 3 -66 55 -66h28v-54l-233 -11v82c-58 -71 -106 -97 -177 -97c-69 0 -121 30 -148 86c-14 28 -16 46 -16 120v127c1 92 -2 96 -64 97h-16v51l237 7v-288
c0 -76 21 -107 71 -107c38 0 73 23 89 57c13 26 17 53 17 103v80c1 92 -2 96 -64 97h-16v51z" />
    <glyph glyph-name="ucircumflex" unicode="&#xfb;" horiz-adv-x="685" 
d="M152 544l121 178h109l121 -178h-67l-108 93l-109 -93h-67zM584 473v-342c-1 -61 3 -66 55 -66h28v-54l-233 -11v82c-58 -71 -106 -97 -177 -97c-69 0 -121 30 -148 86c-14 28 -16 46 -16 120v127c1 92 -2 96 -64 97h-16v51l237 7v-288c0 -76 21 -107 71 -107
c38 0 73 23 89 57c13 26 17 53 17 103v80c1 92 -2 96 -64 97h-16v51z" />
    <glyph glyph-name="udieresis" unicode="&#xfc;" horiz-adv-x="685" 
d="M231 693c39 0 70 -31 70 -70c0 -40 -31 -71 -71 -71c-38 0 -70 32 -70 70c0 39 32 71 71 71zM446 693c39 0 70 -31 70 -70c0 -40 -31 -71 -71 -71c-38 0 -70 32 -70 70c0 39 32 71 71 71zM584 473v-342c-1 -61 3 -66 55 -66h28v-54l-233 -11v82
c-58 -71 -106 -97 -177 -97c-69 0 -121 30 -148 86c-14 28 -16 46 -16 120v127c1 92 -2 96 -64 97h-16v51l237 7v-288c0 -76 21 -107 71 -107c38 0 73 23 89 57c13 26 17 53 17 103v80c1 92 -2 96 -64 97h-16v51z" />
    <glyph glyph-name="yacute" unicode="&#xfd;" horiz-adv-x="611" 
d="M359 158l83 184c5 12 9 29 9 40c0 26 -24 40 -67 40h-11v51h225v-51c-42 -2 -62 -20 -91 -82l-175 -377c-55 -118 -114 -169 -198 -169c-75 0 -124 36 -124 92c0 50 38 87 87 87c44 0 75 -28 75 -68c0 -14 -2 -24 -8 -34c-1 -1 -1 -2 -1 -3c0 -3 4 -6 8 -6
c29 0 60 28 86 79l23 43l-205 398c-16 33 -24 39 -61 40v51h284v-51h-18c-24 0 -35 -6 -35 -21c0 -7 3 -16 8 -26zM223 545l113 138c35 43 47 51 77 51c32 0 57 -22 57 -50c0 -21 -12 -38 -36 -52l-147 -87h-64z" />
    <glyph glyph-name="thorn" unicode="&#xfe;" horiz-adv-x="667" 
d="M254 737v-328c45 57 88 79 156 79c129 0 222 -101 222 -239c0 -151 -101 -264 -236 -264c-57 0 -103 21 -142 65v-108v-50c0 -37 8 -42 76 -44h11v-50h-323v50h4c44 2 63 5 69 14c4 6 5 12 6 26v54v632c1 92 -2 97 -64 98h-15v50zM366 413c-73 0 -113 -65 -113 -184
c0 -112 38 -176 105 -176c65 0 101 66 101 184c0 120 -29 176 -93 176z" />
    <glyph glyph-name="ydieresis" unicode="&#xff;" horiz-adv-x="611" 
d="M359 158l83 184c5 12 9 29 9 40c0 26 -24 40 -67 40h-11v51h225v-51c-42 -2 -62 -20 -91 -82l-175 -377c-55 -118 -114 -169 -198 -169c-75 0 -124 36 -124 92c0 50 38 87 87 87c44 0 75 -28 75 -68c0 -14 -2 -24 -8 -34c-1 -1 -1 -2 -1 -3c0 -3 4 -6 8 -6
c29 0 60 28 86 79l23 43l-205 398c-16 33 -24 39 -61 40v51h284v-51h-18c-24 0 -35 -6 -35 -21c0 -7 3 -16 8 -26zM206 693c39 0 70 -31 70 -70c0 -40 -31 -71 -71 -71c-38 0 -70 32 -70 70c0 39 32 71 71 71zM421 693c39 0 70 -31 70 -70c0 -40 -31 -71 -71 -71
c-38 0 -70 32 -70 70c0 39 32 71 71 71z" />
    <glyph glyph-name="Amacron" unicode="&#x100;" horiz-adv-x="759" 
d="M351 737h76l257 -620c21 -51 37 -61 94 -63v-54h-351v54l17 1c44 0 58 6 58 24c0 8 -1 13 -12 41l-38 98h-249l-16 -38c-11 -24 -15 -40 -15 -57c0 -46 28 -65 99 -69v-54h-289v54c59 6 96 45 142 153zM330 524l-101 -239h198zM218 908h344v-80h-344v80z" />
    <glyph glyph-name="amacron" unicode="&#x101;" horiz-adv-x="611" 
d="M516 318v-176c0 -59 5 -72 27 -72c7 0 10 1 19 7c8 5 14 7 20 7c10 0 15 -6 15 -16c0 -43 -53 -83 -110 -83c-51 0 -89 26 -106 71c-53 -52 -105 -71 -191 -71c-98 0 -154 43 -154 117c0 66 40 108 133 139c43 15 66 21 128 34c37 8 57 13 62 14v52c0 70 -22 95 -83 95
c-40 0 -73 -15 -73 -32c0 -5 0 -5 9 -17s14 -26 14 -38c0 -37 -35 -65 -82 -65s-81 32 -81 75c0 78 90 129 228 129c79 0 141 -16 178 -45c35 -29 47 -60 47 -125zM359 235l-53 -12c-72 -17 -103 -47 -103 -101c0 -42 25 -69 64 -69c57 0 92 49 92 126v56zM134 663h344v-80
h-344v80z" />
    <glyph glyph-name="Abreve" unicode="&#x102;" horiz-adv-x="759" 
d="M351 737h76l257 -620c21 -51 37 -61 94 -63v-54h-351v54l17 1c44 0 58 6 58 24c0 8 -1 13 -12 41l-38 98h-249l-16 -38c-11 -24 -15 -40 -15 -57c0 -46 28 -65 99 -69v-54h-289v54c59 6 96 45 142 153zM330 524l-101 -239h198zM232 957h53c7 -55 41 -82 105 -82
c63 0 97 27 104 82h53c0 -106 -57 -167 -158 -167c-100 0 -157 61 -157 167z" />
    <glyph glyph-name="abreve" unicode="&#x103;" horiz-adv-x="611" 
d="M516 318v-176c0 -59 5 -72 27 -72c7 0 10 1 19 7c8 5 14 7 20 7c10 0 15 -6 15 -16c0 -43 -53 -83 -110 -83c-51 0 -89 26 -106 71c-53 -52 -105 -71 -191 -71c-98 0 -154 43 -154 117c0 66 40 108 133 139c43 15 66 21 128 34c37 8 57 13 62 14v52c0 70 -22 95 -83 95
c-40 0 -73 -15 -73 -32c0 -5 0 -5 9 -17s14 -26 14 -38c0 -37 -35 -65 -82 -65s-81 32 -81 75c0 78 90 129 228 129c79 0 141 -16 178 -45c35 -29 47 -60 47 -125zM359 235l-53 -12c-72 -17 -103 -47 -103 -101c0 -42 25 -69 64 -69c57 0 92 49 92 126v56zM148 712h53
c7 -55 41 -82 105 -82c63 0 97 27 104 82h53c0 -106 -57 -167 -158 -167c-100 0 -157 61 -157 167z" />
    <glyph glyph-name="Aogonek" unicode="&#x104;" horiz-adv-x="759" 
d="M351 737h76l257 -620c21 -51 37 -61 94 -63v-54c-24 -25 -30 -37 -30 -60c0 -22 11 -35 30 -35c17 0 31 6 49 22l19 -32c-26 -43 -61 -65 -102 -65c-46 0 -76 32 -76 81c0 36 12 60 42 89h-283v54l17 1c44 0 58 6 58 24c0 8 -1 13 -12 41l-38 98h-249l-16 -38
c-11 -24 -15 -40 -15 -57c0 -46 28 -65 99 -69v-54h-289v54c59 6 96 45 142 153zM330 524l-101 -239h198z" />
    <glyph glyph-name="aogonek" unicode="&#x105;" horiz-adv-x="611" 
d="M359 289v52c0 70 -22 95 -83 95c-40 0 -73 -15 -73 -32c0 -5 0 -5 9 -17s14 -26 14 -38c0 -37 -35 -65 -82 -65s-81 32 -81 75c0 78 90 129 228 129c79 0 141 -16 178 -45c35 -29 47 -60 47 -125v-176c0 -59 5 -72 27 -72c7 0 10 1 19 7c8 5 14 7 20 7c9 0 15 -6 15 -15
c0 -19 -6 -31 -31 -59c-23 -26 -33 -48 -33 -70s12 -35 30 -35c17 0 31 6 49 22l19 -32c-27 -43 -61 -65 -102 -65c-46 0 -76 32 -76 81c0 29 8 50 28 74c-48 2 -87 30 -100 71c-53 -52 -105 -71 -191 -71c-98 0 -154 43 -154 117c0 66 40 108 133 139c43 15 66 21 128 34
c37 8 57 13 62 14zM359 235l-53 -12c-72 -17 -103 -47 -103 -101c0 -42 25 -69 64 -69c57 0 92 49 92 126v56z" />
    <glyph glyph-name="Cacute" unicode="&#x106;" horiz-adv-x="778" 
d="M698 733l10 -286l-53 -6c-45 167 -118 244 -229 244c-123 0 -187 -107 -187 -315c0 -220 64 -323 200 -323c115 0 195 79 222 218l62 -15c-39 -180 -140 -265 -317 -265c-118 0 -202 34 -271 110c-65 71 -95 153 -95 257c0 109 33 198 101 270c72 77 165 115 277 115
c72 0 117 -13 183 -53l54 49h43zM327 790l112 138c35 43 48 51 77 51c32 0 57 -22 57 -50c0 -21 -12 -38 -36 -52l-147 -87h-63z" />
    <glyph glyph-name="cacute" unicode="&#x107;" horiz-adv-x="556" 
d="M475 177l52 -17c-15 -47 -31 -77 -60 -107c-44 -48 -93 -68 -167 -68c-161 0 -269 98 -269 244c0 151 119 259 285 259c121 0 199 -53 199 -136c0 -52 -35 -85 -89 -85c-48 0 -82 30 -82 73c0 19 3 27 20 50c11 14 11 14 11 18c0 16 -23 28 -52 28
c-75 0 -119 -69 -119 -189c0 -124 46 -194 128 -194c42 0 81 19 105 51c15 20 24 36 38 73zM236 545l112 138c35 43 48 51 78 51c32 0 57 -22 57 -50c0 -21 -12 -38 -37 -52l-147 -87h-63z" />
    <glyph glyph-name="Ccircumflex" unicode="&#x108;" horiz-adv-x="778" 
d="M698 733l10 -286l-53 -6c-45 167 -118 244 -229 244c-123 0 -187 -107 -187 -315c0 -220 64 -323 200 -323c115 0 195 79 222 218l62 -15c-39 -180 -140 -265 -317 -265c-118 0 -202 34 -271 110c-65 71 -95 153 -95 257c0 109 33 198 101 270c72 77 165 115 277 115
c72 0 117 -13 183 -53l54 49h43zM207 789l121 178h109l121 -178h-67l-108 93l-109 -93h-67z" />
    <glyph glyph-name="ccircumflex" unicode="&#x109;" horiz-adv-x="556" 
d="M475 177l52 -17c-15 -47 -31 -77 -60 -107c-44 -48 -93 -68 -167 -68c-161 0 -269 98 -269 244c0 151 119 259 285 259c121 0 199 -53 199 -136c0 -52 -35 -85 -89 -85c-48 0 -82 30 -82 73c0 19 3 27 20 50c11 14 11 14 11 18c0 16 -23 28 -52 28
c-75 0 -119 -69 -119 -189c0 -124 46 -194 128 -194c42 0 81 19 105 51c15 20 24 36 38 73zM105 544l120 178h110l121 -178h-67l-109 93l-109 -93h-66z" />
    <glyph glyph-name="Cdotaccent" unicode="&#x10a;" horiz-adv-x="778" 
d="M698 733l10 -286l-53 -6c-45 167 -118 244 -229 244c-123 0 -187 -107 -187 -315c0 -220 64 -323 200 -323c115 0 195 79 222 218l62 -15c-39 -180 -140 -265 -317 -265c-118 0 -202 34 -271 110c-65 71 -95 153 -95 257c0 109 33 198 101 270c72 77 165 115 277 115
c72 0 117 -13 183 -53l54 49h43zM382 938c39 0 70 -31 70 -70c0 -40 -31 -71 -71 -71c-38 0 -70 32 -70 70c0 39 32 71 71 71z" />
    <glyph glyph-name="cdotaccent" unicode="&#x10b;" horiz-adv-x="556" 
d="M475 177l52 -17c-15 -47 -31 -77 -60 -107c-44 -48 -93 -68 -167 -68c-161 0 -269 98 -269 244c0 151 119 259 285 259c121 0 199 -53 199 -136c0 -52 -35 -85 -89 -85c-48 0 -82 30 -82 73c0 19 3 27 20 50c11 14 11 14 11 18c0 16 -23 28 -52 28
c-75 0 -119 -69 -119 -189c0 -124 46 -194 128 -194c42 0 81 19 105 51c15 20 24 36 38 73zM319 693c39 0 70 -31 70 -70c0 -40 -31 -71 -71 -71c-38 0 -70 32 -70 70c0 39 32 71 71 71z" />
    <glyph glyph-name="Ccaron" unicode="&#x10c;" horiz-adv-x="778" 
d="M698 733l10 -286l-53 -6c-45 167 -118 244 -229 244c-123 0 -187 -107 -187 -315c0 -220 64 -323 200 -323c115 0 195 79 222 218l62 -15c-39 -180 -140 -265 -317 -265c-118 0 -202 34 -271 110c-65 71 -95 153 -95 257c0 109 33 198 101 270c72 77 165 115 277 115
c72 0 117 -13 183 -53l54 49h43zM586 967l-121 -178h-110l-120 178h66l109 -93l109 93h67z" />
    <glyph glyph-name="ccaron" unicode="&#x10d;" horiz-adv-x="556" 
d="M475 177l52 -17c-15 -47 -31 -77 -60 -107c-44 -48 -93 -68 -167 -68c-161 0 -269 98 -269 244c0 151 119 259 285 259c121 0 199 -53 199 -136c0 -52 -35 -85 -89 -85c-48 0 -82 30 -82 73c0 19 3 27 20 50c11 14 11 14 11 18c0 16 -23 28 -52 28
c-75 0 -119 -69 -119 -189c0 -124 46 -194 128 -194c42 0 81 19 105 51c15 20 24 36 38 73zM495 722l-121 -178h-110l-120 178h66l109 -93l109 93h67z" />
    <glyph glyph-name="Dcaron" unicode="&#x10e;" horiz-adv-x="833" 
d="M19 0v54h15c53 0 73 4 82 15c7 10 7 13 7 75v434c0 62 0 65 -7 75c-9 11 -29 15 -82 15h-15v54h356c141 0 214 -14 275 -54c94 -62 143 -164 143 -299c0 -137 -49 -245 -138 -307c-62 -44 -142 -62 -268 -62h-368zM363 54h21c67 0 126 26 157 68c32 45 53 142 53 249
c0 200 -67 297 -206 297h-25c-50 -2 -62 -14 -60 -60v-489c0 -54 9 -64 60 -65zM593 967l-121 -178h-109l-121 178h67l108 -93l109 93h67z" />
    <glyph glyph-name="dcaron" unicode="&#x10f;" horiz-adv-x="805" 
d="M568 737v-615c0 -52 8 -59 59 -57h27v-54l-234 -11v72c-41 -60 -92 -87 -164 -87c-130 0 -219 99 -219 244c0 146 99 259 229 259c62 0 107 -21 145 -67v157c0 89 -2 93 -64 93h-32v51zM311 420c-64 0 -101 -69 -101 -189c0 -115 35 -178 99 -178c62 0 104 75 104 184
c0 112 -40 183 -102 183zM631 415l-24 37c54 36 89 81 89 115c0 3 -1 5 -3 5h-4c-3 -1 -6 -1 -8 -1c-42 0 -75 34 -75 77c0 50 38 89 86 89c54 0 91 -44 91 -108c0 -80 -51 -153 -152 -214z" />
    <glyph glyph-name="Dcroat" unicode="&#x110;" horiz-adv-x="833" 
d="M123 339h-104v60h104v179c0 62 0 65 -7 75c-9 11 -29 15 -82 15h-15v54h337c165 0 230 -12 294 -54c94 -61 143 -164 143 -300s-48 -244 -138 -306c-62 -44 -141 -62 -268 -62h-368v54h15c53 0 73 4 82 15c7 10 7 13 7 75v195zM303 339v-220c0 -54 9 -64 60 -65h22
c67 0 125 26 156 68c32 45 53 142 53 247c0 118 -27 211 -72 254c-35 31 -75 45 -133 45h-26c-50 -2 -62 -14 -60 -60v-209h144v-60h-144z" />
    <glyph glyph-name="dcroat" unicode="&#x111;" horiz-adv-x="667" 
d="M568 596h76v-60h-76v-414c0 -52 8 -59 59 -57h27v-54l-234 -11v72c-41 -60 -92 -87 -164 -87c-130 0 -219 99 -219 244c0 146 99 259 229 259c62 0 107 -20 145 -67v115h-141v60h141c0 68 -6 75 -64 75h-32v51l253 15v-141zM311 420c-64 0 -101 -69 -101 -189
c0 -115 35 -178 99 -178c62 0 104 74 104 184c0 112 -40 183 -102 183z" />
    <glyph glyph-name="Emacron" unicode="&#x112;" horiz-adv-x="759" 
d="M687 722l6 -260h-52c-42 149 -102 203 -227 206h-28c-74 -1 -88 -16 -86 -86v-181h17c79 0 127 50 138 142h54v-339h-54c-11 92 -59 142 -138 142h-17v-221c-1 -59 17 -73 90 -71h30c121 1 196 70 234 215h53l-12 -269h-679v54h15c53 0 73 4 82 15c7 10 7 13 7 75v434
c0 62 0 65 -7 75c-9 11 -29 15 -82 15h-15v54h671zM208 908h344v-80h-344v80z" />
    <glyph glyph-name="emacron" unicode="&#x113;" horiz-adv-x="574" 
d="M540 228h-335c1 -57 8 -88 25 -115c25 -38 65 -60 111 -60c66 0 110 33 150 111l49 -20c-44 -107 -121 -159 -238 -159c-76 0 -143 22 -189 61c-50 43 -81 114 -81 186c0 66 27 132 72 179c50 51 116 77 197 77c147 0 239 -95 239 -244v-16zM206 283h150c20 0 27 8 27 32
c0 79 -27 121 -79 121c-60 0 -98 -58 -98 -153zM126 663h344v-80h-344v80z" />
    <glyph glyph-name="Ebreve" unicode="&#x114;" horiz-adv-x="759" 
d="M687 722l6 -260h-52c-42 149 -102 203 -227 206h-28c-74 -1 -88 -16 -86 -86v-181h17c79 0 127 50 138 142h54v-339h-54c-11 92 -59 142 -138 142h-17v-221c-1 -59 17 -73 90 -71h30c121 1 196 70 234 215h53l-12 -269h-679v54h15c53 0 73 4 82 15c7 10 7 13 7 75v434
c0 62 0 65 -7 75c-9 11 -29 15 -82 15h-15v54h671zM214 957h53c7 -55 41 -82 105 -82c63 0 97 26 105 82h52v-7v-9c-1 -43 -19 -86 -48 -114c-27 -25 -62 -37 -109 -37c-101 0 -158 61 -158 167z" />
    <glyph glyph-name="ebreve" unicode="&#x115;" horiz-adv-x="574" 
d="M540 228h-335c1 -57 8 -88 25 -115c25 -38 65 -60 111 -60c66 0 110 33 150 111l49 -20c-44 -107 -121 -159 -238 -159c-76 0 -143 22 -189 61c-50 43 -81 114 -81 186c0 66 27 132 72 179c50 51 116 77 197 77c147 0 239 -95 239 -244v-16zM206 283h150c20 0 27 8 27 32
c0 79 -27 121 -79 121c-60 0 -98 -58 -98 -153zM128 712h53c8 -55 41 -82 105 -82s97 26 105 82h52c1 -3 1 -7 1 -7c0 -99 -61 -160 -158 -160c-100 0 -158 61 -158 167z" />
    <glyph glyph-name="Edotaccent" unicode="&#x116;" horiz-adv-x="759" 
d="M687 722l6 -260h-52c-42 149 -102 203 -227 206h-28c-74 -1 -88 -16 -86 -86v-181h17c79 0 127 50 138 142h54v-339h-54c-11 92 -59 142 -138 142h-17v-221c-1 -59 17 -73 90 -71h30c121 1 196 70 234 215h53l-12 -269h-679v54h15c53 0 73 4 82 15c7 10 7 13 7 75v434
c0 62 0 65 -7 75c-9 11 -29 15 -82 15h-15v54h671zM380 938c39 0 70 -31 70 -70c0 -40 -31 -71 -71 -71c-38 0 -70 32 -70 70c0 39 32 71 71 71z" />
    <glyph glyph-name="edotaccent" unicode="&#x117;" horiz-adv-x="574" 
d="M540 228h-335c1 -57 8 -88 25 -115c25 -38 65 -60 111 -60c66 0 110 33 150 111l49 -20c-44 -107 -121 -159 -238 -159c-76 0 -143 22 -189 61c-50 43 -81 114 -81 186c0 66 27 132 72 179c50 51 116 77 197 77c147 0 239 -95 239 -244v-16zM206 283h150c20 0 27 8 27 32
c0 79 -27 121 -79 121c-60 0 -98 -58 -98 -153zM288 693c39 0 70 -31 70 -70c0 -40 -31 -71 -71 -71c-38 0 -70 32 -70 70c0 39 32 71 71 71z" />
    <glyph glyph-name="Eogonek" unicode="&#x118;" horiz-adv-x="759" 
d="M707 269l-12 -269c-24 -25 -30 -37 -30 -59c0 -23 11 -36 30 -36c17 0 31 6 49 22l19 -32c-26 -43 -61 -65 -102 -65c-46 0 -76 32 -76 81c0 36 11 60 42 89h-611v54h15c53 0 73 4 82 15c7 10 7 13 7 75v434c0 62 0 65 -7 75c-9 11 -29 15 -82 15h-15v54h671l6 -260h-52
c-42 149 -102 203 -227 206h-28c-74 -1 -88 -16 -86 -86v-181h17c79 0 127 50 138 142h54v-339h-54c-11 92 -59 142 -138 142h-17v-221c-1 -59 17 -73 90 -71h30c121 1 196 70 234 215h53z" />
    <glyph glyph-name="eogonek" unicode="&#x119;" horiz-adv-x="574" 
d="M540 228h-335c1 -57 8 -88 25 -115c25 -38 65 -60 111 -60c66 0 110 33 150 111l49 -20c-15 -36 -26 -54 -72 -111c-47 -57 -53 -69 -53 -94c0 -21 12 -34 30 -34c17 0 31 6 49 22l19 -32c-26 -43 -61 -65 -102 -65c-46 0 -76 32 -76 81c0 32 9 53 34 80
c-25 -4 -43 -6 -68 -6c-75 0 -143 22 -188 61c-50 43 -81 114 -81 186c0 66 27 132 72 179c50 51 116 77 197 77c147 0 239 -95 239 -244v-16zM206 283h150c20 0 27 8 27 32c0 79 -27 121 -79 121c-60 0 -98 -58 -98 -153z" />
    <glyph glyph-name="Ecaron" unicode="&#x11a;" horiz-adv-x="759" 
d="M687 722l6 -260h-52c-42 149 -102 203 -227 206h-28c-74 -1 -88 -16 -86 -86v-181h17c79 0 127 50 138 142h54v-339h-54c-11 92 -59 142 -138 142h-17v-221c-1 -59 17 -73 90 -71h30c121 1 196 70 234 215h53l-12 -269h-679v54h15c53 0 73 4 82 15c7 10 7 13 7 75v434
c0 62 0 65 -7 75c-9 11 -29 15 -82 15h-15v54h671zM556 967l-121 -178h-109l-121 178h67l108 -93l109 93h67z" />
    <glyph glyph-name="ecaron" unicode="&#x11b;" horiz-adv-x="574" 
d="M540 228h-335c1 -57 8 -88 25 -115c25 -38 65 -60 111 -60c66 0 110 33 150 111l49 -20c-44 -107 -121 -159 -238 -159c-76 0 -143 22 -189 61c-50 43 -81 114 -81 186c0 66 27 132 72 179c50 51 116 77 197 77c147 0 239 -95 239 -244v-16zM206 283h150c20 0 27 8 27 32
c0 79 -27 121 -79 121c-60 0 -98 -58 -98 -153zM464 722l-121 -178h-110l-120 178h66l109 -93l109 93h67z" />
    <glyph glyph-name="Gcircumflex" unicode="&#x11c;" horiz-adv-x="833" 
d="M719 733l9 -287h-53c-33 152 -120 239 -238 239c-59 0 -112 -28 -141 -75c-37 -60 -57 -148 -57 -254c0 -94 14 -175 41 -233c25 -54 75 -86 136 -86c89 0 148 61 148 154v15c-1 74 -2 75 -91 76h-11v54h355v-54c-56 -1 -71 -4 -82 -15c-7 -9 -7 -13 -7 -76v-205h-53
l-49 98c-30 -30 -46 -43 -71 -58c-45 -26 -106 -41 -167 -41c-207 0 -349 148 -349 365c0 110 31 194 98 266c75 80 173 121 288 121c73 0 121 -14 191 -54l59 50h44zM254 789l120 178h110l121 -178h-67l-109 93l-109 -93h-66z" />
    <glyph glyph-name="gcircumflex" unicode="&#x11d;" horiz-adv-x="611" 
d="M263 97h69c72 0 116 -4 149 -15c50 -15 83 -62 83 -118c0 -107 -104 -166 -290 -166c-164 0 -244 32 -244 98c0 47 39 79 106 89c-59 16 -91 49 -91 93c0 52 37 83 116 98c-72 25 -110 73 -110 141c0 99 99 171 236 171c51 0 96 -10 134 -29c44 55 82 79 128 79
c44 0 74 -26 74 -65c0 -36 -27 -64 -62 -64c-28 0 -54 22 -54 45v4c0 4 -2 5 -5 5c-12 0 -24 -9 -37 -28c44 -36 60 -66 60 -113c0 -62 -34 -113 -92 -139c-38 -18 -75 -24 -141 -24h-18c-58 0 -76 -8 -76 -33c0 -24 12 -29 65 -29zM290 436c-51 0 -77 -36 -77 -110
c0 -32 5 -61 16 -83c11 -25 30 -36 60 -36c47 0 74 41 74 113c0 76 -25 116 -73 116zM328 -43h-131c-25 -11 -37 -27 -37 -49c0 -37 44 -58 121 -58c103 0 153 20 153 61c0 14 -6 27 -15 33c-17 11 -29 13 -91 13zM121 544l121 178h109l121 -178h-67l-108 93l-109 -93h-67z
" />
    <glyph glyph-name="Gbreve" unicode="&#x11e;" horiz-adv-x="833" 
d="M719 733l9 -287h-53c-33 152 -120 239 -238 239c-59 0 -112 -28 -141 -75c-37 -60 -57 -148 -57 -254c0 -94 14 -175 41 -233c25 -54 75 -86 136 -86c89 0 148 61 148 154v15c-1 74 -2 75 -91 76h-11v54h355v-54c-56 -1 -71 -4 -82 -15c-7 -9 -7 -13 -7 -76v-205h-53
l-49 98c-30 -30 -46 -43 -71 -58c-45 -26 -106 -41 -167 -41c-207 0 -349 148 -349 365c0 110 31 194 98 266c75 80 173 121 288 121c73 0 121 -14 191 -54l59 50h44zM259 957h53c7 -56 41 -82 104 -82c64 0 98 27 105 82h53v-7c0 -99 -60 -160 -157 -160
c-101 0 -158 61 -158 167z" />
    <glyph glyph-name="gbreve" unicode="&#x11f;" horiz-adv-x="611" 
d="M263 97h69c72 0 116 -4 149 -15c50 -15 83 -62 83 -118c0 -107 -104 -166 -290 -166c-164 0 -244 32 -244 98c0 47 39 79 106 89c-59 16 -91 49 -91 93c0 52 37 83 116 98c-72 25 -110 73 -110 141c0 99 99 171 236 171c51 0 96 -10 134 -29c44 55 82 79 128 79
c44 0 74 -26 74 -65c0 -36 -27 -64 -62 -64c-28 0 -54 22 -54 45v4c0 4 -2 5 -5 5c-12 0 -24 -9 -37 -28c44 -36 60 -66 60 -113c0 -62 -34 -113 -92 -139c-38 -18 -75 -24 -141 -24h-18c-58 0 -76 -8 -76 -33c0 -24 12 -29 65 -29zM290 436c-51 0 -77 -36 -77 -110
c0 -32 5 -61 16 -83c11 -25 30 -36 60 -36c47 0 74 41 74 113c0 76 -25 116 -73 116zM328 -43h-131c-25 -11 -37 -27 -37 -49c0 -37 44 -58 121 -58c103 0 153 20 153 61c0 14 -6 27 -15 33c-17 11 -29 13 -91 13zM148 712h53c7 -55 41 -82 105 -82c63 0 97 27 104 82h53
c0 -107 -57 -167 -157 -167c-101 0 -158 60 -158 167z" />
    <glyph glyph-name="Gdotaccent" unicode="&#x120;" horiz-adv-x="833" 
d="M719 733l9 -287h-53c-33 152 -120 239 -238 239c-59 0 -112 -28 -141 -75c-37 -60 -57 -148 -57 -254c0 -94 14 -175 41 -233c25 -54 75 -86 136 -86c89 0 148 61 148 154v15c-1 74 -2 75 -91 76h-11v54h355v-54c-56 -1 -71 -4 -82 -15c-7 -9 -7 -13 -7 -76v-205h-53
l-49 98c-30 -30 -46 -43 -71 -58c-45 -26 -106 -41 -167 -41c-207 0 -349 148 -349 365c0 110 31 194 98 266c75 80 173 121 288 121c73 0 121 -14 191 -54l59 50h44zM412 938c39 0 70 -31 70 -70c0 -40 -31 -71 -71 -71c-38 0 -70 32 -70 70c0 39 32 71 71 71z" />
    <glyph glyph-name="gdotaccent" unicode="&#x121;" horiz-adv-x="611" 
d="M263 97h69c72 0 116 -4 149 -15c50 -15 83 -62 83 -118c0 -107 -104 -166 -290 -166c-164 0 -244 32 -244 98c0 47 39 79 106 89c-59 16 -91 49 -91 93c0 52 37 83 116 98c-72 25 -110 73 -110 141c0 99 99 171 236 171c51 0 96 -10 134 -29c44 55 82 79 128 79
c44 0 74 -26 74 -65c0 -36 -27 -64 -62 -64c-28 0 -54 22 -54 45v4c0 4 -2 5 -5 5c-12 0 -24 -9 -37 -28c44 -36 60 -66 60 -113c0 -62 -34 -113 -92 -139c-38 -18 -75 -24 -141 -24h-18c-58 0 -76 -8 -76 -33c0 -24 12 -29 65 -29zM290 436c-51 0 -77 -36 -77 -110
c0 -32 5 -61 16 -83c11 -25 30 -36 60 -36c47 0 74 41 74 113c0 76 -25 116 -73 116zM328 -43h-131c-25 -11 -37 -27 -37 -49c0 -37 44 -58 121 -58c103 0 153 20 153 61c0 14 -6 27 -15 33c-17 11 -29 13 -91 13zM295 693c39 0 70 -31 70 -70c0 -40 -31 -71 -71 -71
c-38 0 -70 32 -70 70c0 39 32 71 71 71z" />
    <glyph glyph-name="Gcommaaccent" unicode="&#x122;" horiz-adv-x="833" 
d="M719 733l9 -287h-53c-33 152 -120 239 -238 239c-59 0 -112 -28 -141 -75c-37 -60 -57 -148 -57 -254c0 -94 14 -175 41 -233c25 -54 75 -86 136 -86c89 0 148 61 148 154v15c-1 74 -2 75 -91 76h-11v54h355v-54c-56 -1 -71 -4 -82 -15c-7 -9 -7 -13 -7 -76v-205h-53
l-49 98c-30 -30 -46 -43 -71 -58c-45 -26 -106 -41 -167 -41c-207 0 -349 148 -349 365c0 110 31 194 98 266c75 80 173 121 288 121c73 0 121 -14 191 -54l59 50h44zM354 -372l-25 36c55 37 90 82 90 116c0 4 -1 5 -3 5h-4c-3 -1 -6 -1 -9 -1c-42 0 -75 34 -75 77
c0 50 38 89 86 89c55 0 92 -44 92 -108c0 -80 -51 -153 -152 -214z" />
    <glyph glyph-name="gcommaaccent" unicode="&#x123;" horiz-adv-x="611" 
d="M263 97h69c72 0 116 -4 149 -15c50 -15 83 -62 83 -118c0 -107 -104 -166 -290 -166c-164 0 -244 32 -244 98c0 47 39 79 106 89c-59 16 -91 49 -91 93c0 52 37 83 116 98c-72 25 -110 73 -110 141c0 99 99 171 236 171c51 0 96 -10 134 -29c44 55 82 79 128 79
c44 0 74 -26 74 -65c0 -36 -27 -64 -62 -64c-28 0 -54 22 -54 45v4c0 4 -2 5 -5 5c-12 0 -24 -9 -37 -28c44 -36 60 -66 60 -113c0 -62 -34 -113 -92 -139c-38 -18 -75 -24 -141 -24h-18c-58 0 -76 -8 -76 -33c0 -24 12 -29 65 -29zM290 436c-51 0 -77 -36 -77 -110
c0 -32 5 -61 16 -83c11 -25 30 -36 60 -36c47 0 74 41 74 113c0 76 -25 116 -73 116zM328 -43h-131c-25 -11 -37 -27 -37 -49c0 -37 44 -58 121 -58c103 0 153 20 153 61c0 14 -6 27 -15 33c-17 11 -29 13 -91 13zM369 837l25 -37c-56 -37 -90 -81 -90 -115c0 -3 1 -5 4 -5
h3c3 1 6 1 8 1c43 0 76 -34 76 -77c0 -50 -38 -89 -86 -89c-55 0 -92 44 -92 108c0 80 51 152 152 214z" />
    <glyph glyph-name="Hcircumflex" unicode="&#x124;" horiz-adv-x="870" 
d="M565 339h-261v-195c0 -62 0 -65 7 -75c9 -11 29 -15 83 -15h15v-54h-389v54h15c53 0 73 4 82 15c7 10 7 13 7 75v433c0 62 0 66 -7 76c-9 11 -29 14 -82 15h-15v54h389v-54h-15c-54 -1 -74 -4 -83 -15c-7 -10 -7 -14 -7 -76v-178h261v178c0 63 0 66 -7 76
c-9 11 -29 14 -82 15h-15v54h389v-54h-15c-53 -1 -74 -4 -83 -15c-7 -10 -7 -14 -7 -76v-433c0 -61 0 -66 7 -75c9 -11 29 -15 83 -15h15v-54h-389v54h15c53 0 73 4 82 15c7 9 7 13 7 75v195zM261 789l120 178h110l121 -178h-67l-109 93l-109 -93h-66z" />
    <glyph glyph-name="hcircumflex" unicode="&#x125;" horiz-adv-x="685" 
d="M256 737v-341c42 64 94 92 170 92c52 0 96 -17 123 -48c27 -29 38 -67 38 -129v-167v-50c0 -37 9 -42 75 -43h4v-51h-305v51c34 -1 53 3 63 13c4 6 5 12 6 26v26v28v153c0 64 -25 98 -71 98c-37 0 -72 -23 -88 -59c-11 -24 -15 -50 -15 -95v-97v-50c-1 -35 12 -43 68 -43
v-51h-305v51h4c44 0 63 4 70 13c4 6 5 12 6 26v54v430c1 93 -2 97 -64 97h-19v51zM167 789l120 178h110l121 -178h-67l-109 93l-109 -93h-66z" />
    <glyph glyph-name="Hbar" unicode="&#x126;" horiz-adv-x="870" 
d="M124 470h-79v111h79v19c1 64 -3 67 -90 68h-14v54h389v-54h-15c-88 -1 -91 -4 -90 -68v-19h261c0 52 0 57 -4 67c-7 15 -26 19 -85 20h-15v54h389v-54h-15c-63 -1 -82 -5 -87 -23c-2 -7 -3 -17 -3 -33v-16v-15h72v-111h-72v-326c0 -61 0 -66 7 -75c9 -11 29 -15 83 -15
h15v-54h-389v54h15c53 0 73 4 82 15c7 9 7 13 7 75v195h-261v-195c0 -62 0 -65 7 -75c9 -11 29 -15 83 -15h15v-54h-389v54h14c54 0 74 4 83 15c7 10 7 13 7 75v326zM304 470v-71h261v71h-261z" />
    <glyph glyph-name="hbar" unicode="&#x127;" horiz-adv-x="685" 
d="M256 638h181v-111h-181v-131c43 64 94 92 170 92c52 0 96 -17 124 -48c26 -29 37 -67 37 -129v-167v-50c0 -37 9 -42 75 -43h4v-51h-305v51c34 -1 53 3 63 13c4 6 5 12 6 26v26v28v153c0 64 -25 98 -71 98c-37 0 -72 -23 -88 -59c-11 -24 -15 -50 -15 -95v-97v-50
c-1 -35 12 -43 68 -43v-51h-305v51h4c44 0 63 4 70 13c4 6 5 12 6 26v54v383h-88v111h86c-4 27 -16 33 -62 33h-19v51l240 15v-99z" />
    <glyph glyph-name="Itilde" unicode="&#x128;" horiz-adv-x="444" 
d="M28 0v54h15c53 0 73 4 82 15c7 10 7 13 7 75v434c0 62 0 65 -7 75c-9 11 -29 15 -82 15h-15v54h389v-54h-15c-54 0 -74 -4 -83 -15c-7 -10 -7 -13 -7 -75v-434c0 -62 0 -65 7 -75c9 -11 29 -15 83 -15h15v-54h-389zM365 946h49c-4 -34 -14 -58 -34 -85
c-27 -36 -53 -50 -92 -50c-34 0 -48 5 -101 33c-24 13 -46 21 -60 21c-19 0 -35 -18 -44 -50h-50c13 79 62 135 119 135c28 0 44 -5 96 -30c34 -17 56 -24 70 -24c22 0 33 12 47 50z" />
    <glyph glyph-name="itilde" unicode="&#x129;" horiz-adv-x="370" 
d="M263 473v-329v-50c0 -36 8 -41 72 -43h6v-51h-313v51h4c42 0 62 4 68 13c4 6 5 12 6 26v8v46v177c0 89 -3 93 -64 94h-14v51zM314 701h49c-4 -34 -13 -58 -34 -85c-27 -36 -53 -50 -91 -50c-35 0 -49 5 -102 33c-23 13 -46 21 -60 21c-19 0 -35 -18 -44 -50h-50
c12 79 62 135 119 135c28 0 44 -5 96 -30c34 -16 56 -24 71 -24c21 0 32 12 46 50z" />
    <glyph glyph-name="Imacron" unicode="&#x12a;" horiz-adv-x="444" 
d="M28 0v54h15c53 0 73 4 82 15c7 10 7 13 7 75v434c0 62 0 65 -7 75c-9 11 -29 15 -82 15h-15v54h389v-54h-15c-54 0 -74 -4 -83 -15c-7 -10 -7 -13 -7 -75v-434c0 -62 0 -65 7 -75c9 -11 29 -15 83 -15h15v-54h-389zM51 908h344v-80h-344v80z" />
    <glyph glyph-name="imacron" unicode="&#x12b;" horiz-adv-x="370" 
d="M264 473v-329v-50c0 -36 9 -42 72 -43h6v-51h-313v51h4c42 0 62 4 68 13c4 6 5 12 6 26v8v46v177c0 89 -3 93 -64 94h-14v51zM14 663h344v-80h-344v80z" />
    <glyph glyph-name="Ibreve" unicode="&#x12c;" horiz-adv-x="444" 
d="M28 0v54h15c53 0 73 4 82 15c7 10 7 13 7 75v434c0 62 0 65 -7 75c-9 11 -29 15 -82 15h-15v54h389v-54h-15c-54 0 -74 -4 -83 -15c-7 -10 -7 -13 -7 -75v-434c0 -62 0 -65 7 -75c9 -11 29 -15 83 -15h15v-54h-389zM65 957h53c7 -55 41 -82 105 -82c63 0 96 26 104 82h53
c0 -106 -57 -167 -157 -167c-101 0 -158 61 -158 167z" />
    <glyph glyph-name="ibreve" unicode="&#x12d;" horiz-adv-x="370" 
d="M263 473v-329v-50c0 -36 8 -41 72 -43h6v-51h-313v51h4c42 1 61 4 68 13c4 6 5 12 6 26v7v47v177c0 89 -3 93 -64 94h-14v51zM27 712h53c7 -55 41 -82 105 -82c63 0 97 26 104 82h53c0 -106 -57 -167 -158 -167c-100 0 -157 61 -157 167z" />
    <glyph glyph-name="Iogonek" unicode="&#x12e;" horiz-adv-x="444" 
d="M28 722h389v-54h-15c-54 0 -74 -4 -83 -15c-7 -10 -7 -13 -7 -75v-434c0 -62 0 -65 7 -75c9 -11 29 -15 83 -15h15v-54c-24 -25 -30 -37 -30 -59c0 -23 11 -36 30 -36c17 0 31 6 49 22l19 -32c-26 -43 -61 -65 -102 -65c-46 0 -76 32 -76 81c0 36 12 60 42 89h-321v54h15
c53 0 73 4 82 15c7 10 7 13 7 75v434c0 62 0 65 -7 75c-9 11 -29 15 -82 15h-15v54z" />
    <glyph glyph-name="iogonek" unicode="&#x12f;" horiz-adv-x="370" 
d="M28 0v51h4c42 0 62 4 68 13c4 6 5 12 6 26v8v46v177c0 89 -3 93 -64 94h-14v51l235 7v-329v-50c0 -36 9 -42 72 -43h6v-51c-23 -23 -30 -38 -30 -59c0 -23 11 -36 30 -36c17 0 31 7 49 22l19 -32c-26 -43 -61 -65 -102 -65c-46 0 -76 32 -76 81c0 36 12 60 42 89h-245z
M182 737c48 0 88 -40 88 -88c0 -50 -39 -89 -90 -89c-47 0 -87 40 -87 89c0 48 40 88 89 88z" />
    <glyph glyph-name="Idotaccent" unicode="&#x130;" horiz-adv-x="444" 
d="M28 0v54h15c53 0 73 4 82 15c7 10 7 13 7 75v434c0 62 0 65 -7 75c-9 11 -29 15 -82 15h-15v54h389v-54h-15c-54 0 -74 -4 -83 -15c-7 -10 -7 -13 -7 -75v-434c0 -62 0 -65 7 -75c9 -11 29 -15 83 -15h15v-54h-389zM223 938c39 0 70 -31 70 -70c0 -40 -31 -71 -71 -71
c-38 0 -70 32 -70 70c0 39 32 71 71 71z" />
    <glyph glyph-name="dotlessi" unicode="&#x131;" horiz-adv-x="370" 
d="M263 473v-329v-50c0 -36 9 -42 72 -43h6v-51h-313v51h4c42 0 62 4 68 13c4 6 5 12 6 26v8v46v177c0 89 -3 93 -64 94h-14v51z" />
    <glyph glyph-name="IJ" unicode="&#x132;" horiz-adv-x="1086" 
d="M23 0v54h15c53 0 73 4 82 15c7 10 7 13 7 75v434c0 62 0 65 -7 75c-9 11 -29 15 -82 15h-15v54h389v-54h-15c-54 0 -74 -4 -83 -15c-7 -10 -7 -13 -7 -75v-434c0 -62 0 -65 7 -75c9 -11 29 -15 83 -15h15v-54h-389zM689 668v54h389v-54h-15c-54 0 -74 -4 -83 -15
c-7 -10 -7 -12 -7 -75v-298c0 -118 -25 -184 -88 -234c-51 -41 -118 -61 -201 -61c-149 0 -241 75 -241 197c0 87 51 148 124 148c60 0 103 -43 103 -102c0 -54 -39 -94 -92 -94c-9 0 -15 1 -24 3c-5 1 -9 2 -12 2c-11 0 -19 -8 -19 -19c0 -39 56 -74 118 -74
c53 0 100 23 125 59c20 30 27 68 27 140v333c0 62 0 65 -7 75c-9 11 -29 14 -82 15h-15z" />
    <glyph glyph-name="ij" unicode="&#x133;" horiz-adv-x="722" 
d="M263 473v-329v-50c0 -36 9 -42 72 -43h6v-51h-313v51h4c42 0 62 4 68 13c4 6 5 12 6 26v8v46v177c0 89 -3 93 -64 94h-14v51zM182 737c48 0 88 -40 88 -88c0 -50 -39 -89 -90 -89c-47 0 -87 40 -87 89c0 48 40 88 89 88zM553 737c49 0 89 -40 89 -88
c0 -50 -40 -89 -90 -89c-47 0 -87 40 -87 89c0 48 40 88 88 88zM638 473v-364c0 -105 -9 -160 -35 -210c-31 -62 -99 -101 -175 -101c-82 0 -140 42 -140 100c0 43 33 75 78 75c38 0 65 -28 65 -67c0 -23 -8 -36 -29 -50c6 -8 13 -11 25 -11c37 0 54 31 54 98v386
c0 80 -4 85 -64 86h-32v51z" />
    <glyph glyph-name="Jcircumflex" unicode="&#x134;" horiz-adv-x="648" 
d="M250 668v54h389v-54h-15c-54 0 -74 -4 -83 -15c-7 -10 -7 -12 -7 -75v-298c0 -119 -25 -184 -88 -234c-51 -41 -118 -61 -201 -61c-149 0 -241 75 -241 197c0 87 51 148 124 148c60 0 103 -43 103 -102c0 -54 -39 -94 -92 -94c-9 0 -15 1 -24 3c-5 1 -9 2 -12 2
c-11 0 -19 -8 -19 -19c0 -39 56 -74 118 -74c53 0 100 23 125 59c20 30 27 68 27 140v333c0 62 0 65 -7 75c-9 11 -29 15 -82 15h-15zM268 789l121 178h109l121 -178h-66l-109 93l-109 -93h-67z" />
    <glyph glyph-name="jcircumflex" unicode="&#x135;" horiz-adv-x="352" 
d="M268 473v-364c0 -104 -9 -160 -35 -210c-31 -62 -99 -101 -175 -101c-82 0 -140 42 -140 100c0 43 33 75 78 75c38 0 65 -28 65 -67c0 -23 -8 -36 -29 -50c6 -8 13 -11 25 -11c37 0 54 31 54 98v386c0 80 -4 85 -64 86h-32v51zM-6 544l121 178h109l121 -178h-66l-109 93
l-109 -93h-67z" />
    <glyph glyph-name="Kcommaaccent" unicode="&#x136;" horiz-adv-x="815" 
d="M383 338l-84 -88v-106c0 -62 0 -65 7 -75c9 -11 29 -15 83 -15h15v-54h-389v54h15c53 0 73 4 82 15c7 10 7 13 7 75v434c0 62 0 65 -7 75c-9 11 -29 15 -82 15h-15v54h389v-54h-15c-54 0 -74 -4 -83 -15c-7 -10 -7 -13 -7 -75v-234l221 234c18 20 33 44 33 55
c0 23 -26 35 -75 35h-24v54h337v-54c-66 -4 -116 -33 -203 -118l-83 -87l208 -332c46 -72 50 -74 105 -77v-54h-364v54h13c46 0 68 8 68 23c0 9 -4 18 -12 32zM345 -372l-25 36c56 38 90 82 90 116c0 3 -1 5 -4 5h-3c-3 -1 -6 -1 -9 -1c-42 0 -75 34 -75 77
c0 50 38 89 86 89c55 0 92 -44 92 -108c0 -80 -52 -153 -152 -214z" />
    <glyph glyph-name="kcommaaccent" unicode="&#x137;" horiz-adv-x="667" 
d="M252 737v-491l124 109c18 16 25 27 25 40c0 17 -22 27 -60 27h-12v51h294v-51h-23c-39 0 -69 -13 -108 -47l-77 -64l157 -197c45 -57 53 -63 88 -63v-51h-306v51h10c26 0 39 6 39 20c0 9 -5 21 -13 30l-92 112l-46 -41v-28v-50c-1 -35 12 -43 68 -43v-51h-305v51h4
c44 0 63 4 70 13c4 6 5 12 6 26v7v47v434c1 88 -3 93 -64 93h-19v51zM271 -372l-25 36c55 37 90 82 90 116c0 3 -1 5 -4 5h-3c-3 -1 -6 -1 -8 -1c-43 0 -76 34 -76 77c0 50 38 89 86 89c55 0 92 -44 92 -108c0 -80 -51 -153 -152 -214z" />
    <glyph glyph-name="kgreenlandic" unicode="&#x138;" horiz-adv-x="667" 
d="M246 146v-2v-50c-1 -35 11 -43 65 -43v-51h-290v51h4c42 0 60 4 66 13c4 6 5 12 6 26v54v186v51c0 36 -9 42 -72 43h-4v51h290v-51c-32 0 -50 -4 -59 -14c-4 -5 -5 -11 -6 -25v-55v-110l153 135c19 16 26 27 26 40c0 17 -22 27 -60 27h-12v51h294v-51h-23
c-39 0 -69 -13 -109 -47l-90 -76l147 -185c45 -57 53 -63 88 -63v-51h-306v51h10c26 0 39 6 39 20c0 9 -5 21 -13 30l-82 100z" />
    <glyph glyph-name="Lacute" unicode="&#x139;" horiz-adv-x="722" 
d="M648 269h53l-12 -269h-670v54h15c53 0 73 4 82 15c7 10 7 13 7 76v433c0 62 0 65 -7 75c-9 11 -28 15 -82 15h-15v54h396v-54h-22c-55 0 -74 -4 -83 -15c-7 -10 -7 -13 -7 -75v-453c-1 -59 17 -73 90 -71h21c122 2 193 67 234 215zM279 790l112 138c35 42 48 51 78 51
c32 0 57 -22 57 -50c0 -21 -12 -37 -37 -52l-147 -87h-63z" />
    <glyph glyph-name="lacute" unicode="&#x13a;" horiz-adv-x="352" 
d="M256 737v-593v-50c0 -36 8 -41 68 -43h7v-51h-312v51h4c44 0 63 4 70 13c4 6 5 12 6 26v7v47v434c1 88 -3 93 -64 93h-19v51zM94 790l112 138c35 42 48 51 78 51c32 0 57 -22 57 -50c0 -21 -12 -37 -37 -52l-147 -87h-63z" />
    <glyph glyph-name="Lcommaaccent" unicode="&#x13b;" horiz-adv-x="722" 
d="M648 269h53l-12 -269h-670v54h15c53 0 73 4 82 15c7 10 7 13 7 76v433c0 62 0 65 -7 75c-9 11 -28 15 -82 15h-15v54h396v-54h-22c-55 0 -74 -4 -83 -15c-7 -10 -7 -13 -7 -75v-453c-1 -59 17 -73 90 -71h21c122 2 193 67 234 215zM298 -372l-24 36c54 37 89 82 89 116
c0 3 -1 5 -4 5h-3c-3 -1 -6 -1 -8 -1c-42 0 -75 34 -75 77c0 50 38 89 86 89c54 0 91 -44 91 -108c0 -80 -51 -153 -152 -214z" />
    <glyph glyph-name="lcommaaccent" unicode="&#x13c;" horiz-adv-x="352" 
d="M256 737v-593v-50c0 -36 8 -41 68 -43h7v-51h-312v51h4c44 0 63 4 70 13c4 6 5 12 6 26v7v47v434c1 88 -3 93 -64 93h-19v51zM113 -372l-24 36c54 37 89 82 89 116c0 3 -1 5 -4 5h-3c-3 -1 -6 -1 -8 -1c-42 0 -75 34 -75 77c0 50 38 89 86 89c54 0 91 -44 91 -108
c0 -80 -51 -153 -152 -214z" />
    <glyph glyph-name="Lcaron" unicode="&#x13d;" horiz-adv-x="722" 
d="M648 269h53l-12 -269h-670v54h15c53 0 73 4 82 15c7 10 7 13 7 76v433c0 62 0 65 -7 75c-9 11 -28 15 -82 15h-15v54h396v-54h-22c-55 0 -74 -4 -83 -15c-7 -10 -7 -13 -7 -75v-453c-1 -59 17 -73 90 -71h21c122 2 193 67 234 215zM538 415l-24 37c54 36 89 81 89 115
c0 3 -1 5 -4 5h-3c-3 -1 -6 -1 -8 -1c-42 0 -75 34 -75 77c0 50 38 89 86 89c54 0 91 -44 91 -108c0 -80 -52 -153 -152 -214z" />
    <glyph glyph-name="lcaron" unicode="&#x13e;" horiz-adv-x="498" 
d="M256 737v-593v-50c0 -36 8 -41 68 -43h7v-51h-312v51h4c44 0 63 4 70 13c4 6 5 12 6 26v7v47v434c1 88 -3 93 -64 93h-19v51zM320 415l-24 37c54 35 89 81 89 115c0 3 -1 5 -4 5h-3c-3 -1 -6 -1 -8 -1c-43 0 -75 34 -75 77c0 50 38 89 86 89c54 0 91 -44 91 -108
c0 -80 -51 -153 -152 -214z" />
    <glyph glyph-name="Ldot" unicode="&#x13f;" horiz-adv-x="722" 
d="M648 269h53l-12 -269h-670v54h15c53 0 73 4 82 15c7 10 7 13 7 76v433c0 62 0 65 -7 75c-9 11 -28 15 -82 15h-15v54h396v-54h-22c-55 0 -74 -4 -83 -15c-7 -10 -7 -13 -7 -75v-453c-1 -59 17 -73 90 -71h21c122 2 193 67 234 215zM539 491c52 0 94 -42 94 -94
c0 -53 -42 -94 -95 -94c-51 0 -93 43 -93 94c0 52 42 94 94 94z" />
    <glyph glyph-name="ldot" unicode="&#x140;" horiz-adv-x="395" 
d="M258 737v-593v-50c0 -36 8 -41 68 -43h7v-51h-312v51h4c44 0 63 4 70 13c4 6 5 12 6 26v7v47v434c1 88 -3 93 -64 93h-19v51zM375 504c52 0 94 -42 94 -94s-42 -94 -95 -94c-51 0 -93 43 -93 94c0 52 42 94 94 94z" />
    <glyph glyph-name="Lslash" unicode="&#x141;" horiz-adv-x="722" 
d="M123 249l-104 -70v70l104 70v259c0 62 0 65 -7 75c-9 11 -28 15 -83 15h-14v54h396v-54h-22c-55 0 -74 -4 -83 -15c-7 -10 -7 -13 -7 -75v-163l174 118v-69l-174 -119v-220c-1 -59 17 -73 90 -71h21c122 2 193 67 234 215h53l-12 -269h-670v54h14c54 0 74 4 83 15
c7 10 7 14 7 76v104z" />
    <glyph glyph-name="lslash" unicode="&#x142;" horiz-adv-x="352" 
d="M256 445l73 53v-70l-73 -54v-230v-50c0 -36 8 -41 67 -43h8v-51h-312v51h4c44 0 63 4 70 13c4 6 5 12 6 26v54v147l-73 -56v70l73 56v217c1 88 -3 93 -64 93h-19v51l240 15v-292z" />
    <glyph glyph-name="Nacute" unicode="&#x143;" horiz-adv-x="833" 
d="M270 722l386 -452v235c2 129 -17 159 -108 163v54h285v-54c-92 -4 -113 -34 -110 -163v-512h-67l-465 553v-329c-2 -129 17 -158 110 -163v-54h-285v54c91 5 110 34 108 163v394c-26 36 -61 55 -106 56v55h252zM334 790l113 138c35 43 47 51 77 51c32 0 57 -22 57 -50
c0 -21 -12 -38 -36 -52l-147 -87h-64z" />
    <glyph glyph-name="nacute" unicode="&#x144;" horiz-adv-x="685" 
d="M249 473v-88c49 74 99 103 178 103c53 0 97 -17 124 -48c27 -29 38 -67 38 -129v-167v-50c0 -37 8 -42 75 -43h4v-51h-305v51c34 -1 53 3 63 13c4 6 5 12 6 26v26v28v153c0 64 -26 98 -73 98c-36 0 -71 -23 -87 -59c-12 -24 -16 -50 -16 -95v-97v-50
c-1 -35 12 -43 69 -43v-51h-305v51h4c43 0 62 4 69 13c4 6 5 12 6 26v8v46v174c1 92 -2 96 -64 97h-15v51zM260 545l113 138c35 43 47 51 77 51c32 0 57 -22 57 -50c0 -21 -12 -38 -36 -52l-147 -87h-64z" />
    <glyph glyph-name="Ncommaaccent" unicode="&#x145;" horiz-adv-x="833" 
d="M270 722l386 -452v235c2 129 -17 159 -108 163v54h285v-54c-92 -4 -113 -34 -110 -163v-512h-67l-465 553v-329c-2 -129 17 -158 110 -163v-54h-285v54c91 5 110 34 108 163v394c-26 36 -61 55 -106 56v55h252zM354 -372l-25 36c56 38 90 82 90 116c0 3 -1 5 -4 5h-3
c-3 -1 -6 -1 -8 -1c-43 0 -76 34 -76 77c0 50 38 89 86 89c55 0 92 -44 92 -108c0 -80 -51 -152 -152 -214z" />
    <glyph glyph-name="ncommaaccent" unicode="&#x146;" horiz-adv-x="685" 
d="M249 473v-88c49 74 99 103 178 103c53 0 97 -17 124 -48c27 -29 38 -67 38 -129v-167v-50c0 -37 8 -42 75 -43h4v-51h-305v51c34 -1 53 3 63 13c4 6 5 12 6 26v26v28v153c0 64 -26 98 -73 98c-36 0 -71 -23 -87 -59c-12 -24 -16 -50 -16 -95v-97v-50
c-1 -35 12 -43 69 -43v-51h-305v51h4c43 0 62 4 69 13c4 6 5 12 6 26v8v46v174c1 92 -2 96 -64 97h-15v51zM280 -372l-25 36c56 38 90 82 90 116c0 3 -1 5 -4 5h-3c-3 -1 -6 -1 -8 -1c-43 0 -76 33 -76 77c0 50 38 89 86 89c55 0 92 -44 92 -108c0 -80 -51 -153 -152 -214z
" />
    <glyph glyph-name="Ncaron" unicode="&#x147;" horiz-adv-x="833" 
d="M270 722l386 -452v235c2 129 -17 159 -108 163v54h285v-54c-92 -4 -113 -34 -110 -163v-512h-67l-465 553v-329c-2 -129 17 -158 110 -163v-54h-285v54c91 5 110 34 108 163v394c-26 36 -61 55 -106 56v55h252zM593 967l-121 -178h-109l-121 178h67l108 -93l109 93h67z
" />
    <glyph glyph-name="ncaron" unicode="&#x148;" horiz-adv-x="685" 
d="M249 473v-88c49 74 99 103 178 103c53 0 97 -17 124 -48c27 -29 38 -67 38 -129v-167v-50c0 -37 8 -42 75 -43h4v-51h-305v51c34 -1 53 3 63 13c4 6 5 12 6 26v26v28v153c0 64 -26 98 -73 98c-36 0 -71 -23 -87 -59c-12 -24 -16 -50 -16 -95v-97v-50
c-1 -35 12 -43 69 -43v-51h-305v51h4c43 0 62 4 69 13c4 6 5 12 6 26v8v46v174c1 92 -2 96 -64 97h-15v51zM519 722l-121 -178h-109l-121 178h67l108 -93l109 93h67z" />
    <glyph glyph-name="napostrophe" unicode="&#x149;" horiz-adv-x="806" 
d="M32 379l-27 41c62 42 99 91 99 129c0 3 -1 5 -4 5h-4c-3 -1 -5 -1 -10 -1c-46 0 -82 38 -82 86c0 55 42 98 96 98c60 0 101 -49 101 -120c0 -89 -58 -170 -169 -238zM383 473v-88c48 74 99 103 178 103c53 0 97 -17 124 -48c27 -29 38 -68 38 -129v-167v-50
c0 -37 9 -42 75 -43h4v-51h-305v51c34 -1 53 3 63 13c4 6 5 12 6 26v7v47v153c0 64 -25 98 -73 98c-36 0 -71 -23 -88 -59c-11 -24 -15 -49 -15 -95v-97v-51c-1 -34 12 -42 69 -42v-51h-305v51h4c43 0 62 4 69 13c4 6 5 12 6 26v54v174c0 93 -2 96 -64 97h-15v51z" />
    <glyph glyph-name="Eng" unicode="&#x14a;" horiz-adv-x="833" 
d="M723 505l-2 -405c-1 -95 -12 -173 -31 -211c-30 -61 -100 -101 -176 -101c-82 0 -140 42 -140 100c0 43 33 75 78 75c38 0 65 -28 65 -67c0 -22 -8 -36 -28 -49c5 -10 12 -13 25 -13c36 0 53 31 53 99v165l-376 448v-329c-2 -129 17 -158 110 -163v-54h-285v54
c91 5 110 34 108 163v394c-26 36 -61 55 -106 56v55h252l386 -452v235c2 129 -17 158 -108 163v54h285v-54c-92 -4 -112 -34 -110 -163z" />
    <glyph glyph-name="eng" unicode="&#x14b;" horiz-adv-x="636" 
d="M316 0h-305v51h4c43 0 62 4 69 13c4 6 5 12 6 26v8v46v174c1 92 -2 96 -64 97h-15v51l229 7v-88c49 74 99 103 178 103c53 0 97 -17 124 -48c27 -29 38 -67 38 -129v-202c0 -104 -9 -160 -35 -210c-31 -62 -99 -101 -175 -101c-82 0 -140 42 -140 100c0 43 33 75 77 75
c39 0 66 -28 66 -67c0 -23 -8 -36 -28 -50c5 -8 12 -11 24 -11c37 0 54 30 54 99v353c0 63 -26 98 -73 98c-35 0 -71 -24 -87 -59c-12 -23 -16 -50 -16 -95v-97v-50c-1 -35 12 -43 69 -43v-51z" />
    <glyph glyph-name="Omacron" unicode="&#x14c;" horiz-adv-x="833" 
d="M417 737c98 0 176 -27 243 -85c84 -71 134 -185 134 -301c0 -117 -47 -220 -134 -288c-67 -54 -145 -78 -248 -78c-217 0 -373 153 -373 365c0 117 50 230 134 302c65 57 147 85 244 85zM418 685c-59 0 -99 -22 -128 -71c-34 -57 -51 -137 -51 -245
c0 -106 18 -193 51 -255c28 -52 70 -77 128 -77c114 0 176 110 176 313c0 108 -18 198 -51 258c-29 51 -71 77 -125 77zM245 908h344v-80h-344v80z" />
    <glyph glyph-name="omacron" unicode="&#x14d;" horiz-adv-x="611" 
d="M308 488c152 0 271 -112 271 -254c0 -143 -117 -249 -275 -249s-273 105 -273 250s118 253 277 253zM306 436c-68 0 -102 -67 -102 -200c0 -132 34 -199 101 -199c65 0 101 71 101 198c0 53 -8 109 -20 142c-13 35 -45 59 -80 59zM134 663h344v-80h-344v80z" />
    <glyph glyph-name="Obreve" unicode="&#x14e;" horiz-adv-x="833" 
d="M417 737c98 0 176 -27 243 -85c84 -71 134 -185 134 -301c0 -117 -47 -220 -134 -288c-67 -54 -145 -78 -248 -78c-217 0 -373 153 -373 365c0 117 50 230 134 302c65 57 147 85 244 85zM418 685c-59 0 -99 -22 -128 -71c-34 -57 -51 -137 -51 -245
c0 -106 18 -193 51 -255c28 -52 70 -77 128 -77c114 0 176 110 176 313c0 108 -18 198 -51 258c-29 51 -71 77 -125 77zM256 957h53c7 -55 41 -82 105 -82c63 0 97 26 104 82h53c-1 -108 -57 -167 -157 -167c-101 0 -158 61 -158 167z" />
    <glyph glyph-name="obreve" unicode="&#x14f;" horiz-adv-x="611" 
d="M308 488c152 0 271 -112 271 -254c0 -143 -117 -249 -275 -249s-273 105 -273 250s118 253 277 253zM306 436c-68 0 -102 -67 -102 -200c0 -132 34 -199 101 -199c65 0 101 71 101 198c0 53 -8 109 -20 142c-13 35 -45 59 -80 59zM142 712h52c7 -55 42 -82 105 -82
c64 0 97 26 105 82h53c0 -106 -57 -167 -158 -167c-100 0 -157 60 -157 167z" />
    <glyph glyph-name="Ohungarumlaut" unicode="&#x150;" horiz-adv-x="833" 
d="M417 737c98 0 176 -27 243 -85c84 -71 134 -185 134 -301c0 -117 -47 -220 -134 -288c-67 -54 -145 -78 -248 -78c-217 0 -373 153 -373 365c0 117 50 230 134 302c65 57 147 85 244 85zM418 685c-59 0 -99 -22 -128 -71c-34 -57 -51 -137 -51 -245
c0 -106 18 -193 51 -255c28 -52 70 -77 128 -77c114 0 176 110 176 313c0 108 -18 198 -51 258c-29 51 -71 77 -125 77zM343 790l-25 15l19 97c6 31 10 41 17 53c8 14 25 23 42 23c28 0 50 -22 50 -49c0 -20 -9 -40 -26 -58zM512 790l-25 15l19 97c6 31 10 41 17 53
c8 14 25 23 42 23c28 0 50 -22 50 -49c0 -20 -9 -39 -26 -58z" />
    <glyph glyph-name="ohungarumlaut" unicode="&#x151;" horiz-adv-x="611" 
d="M308 488c152 0 271 -112 271 -254c0 -143 -117 -249 -275 -249s-273 105 -273 250s118 253 277 253zM306 436c-68 0 -102 -67 -102 -200c0 -132 34 -199 101 -199c65 0 101 71 101 198c0 53 -8 109 -20 142c-13 35 -45 59 -80 59zM232 545l-25 15l19 97c7 32 10 41 17 53
c9 14 25 23 42 23c28 0 50 -22 50 -49c0 -20 -9 -39 -26 -57zM401 545l-25 15l19 97c7 32 10 41 17 53c9 14 25 23 42 23c28 0 50 -22 50 -49c0 -20 -9 -39 -26 -57z" />
    <glyph glyph-name="OE" unicode="&#x152;" 
d="M970 722l5 -260h-52c-11 46 -37 105 -57 132c-34 45 -98 76 -152 74h-6c-56 -3 -71 -21 -68 -86v-181h3c79 0 128 50 139 142h54v-339h-54c-11 92 -60 142 -139 142h-3v-221c-2 -53 16 -71 72 -71h7c106 4 181 79 215 215h53l-11 -269h-610c-110 0 -197 34 -261 101
c-63 67 -100 162 -100 257c0 94 38 192 100 259c66 70 152 105 258 105h607zM460 191v353c0 86 -30 124 -99 124c-109 0 -156 -91 -156 -299c0 -104 8 -171 27 -221c20 -57 73 -94 132 -94c32 0 61 13 75 33c15 22 21 51 21 104z" />
    <glyph glyph-name="oe" unicode="&#x153;" horiz-adv-x="907" 
d="M823 164l49 -20c-43 -104 -122 -159 -229 -159c-65 0 -128 21 -175 59c-52 -41 -104 -59 -167 -59c-151 0 -266 108 -266 252c0 72 26 131 80 179c51 46 118 72 186 72c62 0 110 -18 170 -63c58 46 102 63 169 63c140 0 232 -98 232 -246v-14h-322c2 -58 8 -88 25 -115
c24 -37 65 -60 106 -60c57 0 105 37 142 111zM303 436c-63 0 -95 -68 -95 -200c0 -131 32 -199 93 -199c29 0 54 18 70 50c14 28 24 91 24 149c0 49 -8 109 -19 141c-11 35 -42 59 -73 59zM551 283h137c21 0 27 8 27 33c0 78 -26 120 -73 120c-32 0 -63 -24 -78 -61
c-9 -22 -12 -47 -13 -92z" />
    <glyph glyph-name="Racute" unicode="&#x154;" horiz-adv-x="815" 
d="M304 347v-202c0 -62 0 -66 7 -76c9 -11 30 -14 83 -15h26v-54h-400v54h15c53 1 73 4 82 15c7 10 7 14 7 76v433c0 62 0 65 -7 76c-9 10 -28 14 -82 14h-15v54h427c92 0 159 -12 197 -36c52 -34 81 -85 81 -145c0 -65 -35 -120 -96 -151c-25 -12 -51 -19 -104 -29
c87 -29 125 -74 140 -164l7 -38c2 -14 4 -23 4 -28c5 -32 6 -39 12 -48c6 -8 18 -14 29 -14c30 0 45 32 46 95h54v-12c0 -107 -62 -167 -170 -167c-78 0 -128 31 -152 93c-10 27 -13 45 -19 120l-3 39c-3 80 -34 109 -113 110h-56zM304 402h55c133 0 175 32 175 133
c0 92 -41 133 -135 133h-24c-64 -1 -72 -9 -71 -64v-202zM325 790l113 138c35 43 47 51 77 51c32 0 57 -22 57 -50c0 -21 -12 -38 -36 -52l-147 -87h-64z" />
    <glyph glyph-name="racute" unicode="&#x155;" horiz-adv-x="519" 
d="M241 473v-121c35 92 89 136 166 136c64 0 110 -43 110 -101c0 -49 -37 -86 -86 -86c-43 0 -75 31 -75 74c0 18 4 29 17 47c-72 -19 -114 -110 -118 -258v-20v-50c0 -37 8 -42 75 -43h22v-51h-334v51h4c43 0 62 4 69 13c4 6 5 12 6 26v54v174c1 92 -2 96 -64 97h-15v51z
M195 545l113 138c35 43 47 51 77 51c32 0 57 -22 57 -50c0 -21 -12 -38 -36 -52l-147 -87h-64z" />
    <glyph glyph-name="Rcommaaccent" unicode="&#x156;" horiz-adv-x="815" 
d="M304 347v-202c0 -62 0 -66 7 -76c9 -11 30 -14 83 -15h26v-54h-400v54h15c53 1 73 4 82 15c7 10 7 14 7 76v433c0 62 0 65 -7 76c-9 10 -28 14 -82 14h-15v54h427c92 0 159 -12 197 -36c52 -34 81 -85 81 -145c0 -65 -35 -120 -96 -151c-25 -12 -51 -19 -104 -29
c87 -29 125 -74 140 -164l7 -38c2 -14 4 -23 4 -28c5 -32 6 -39 12 -48c6 -8 18 -14 29 -14c30 0 45 32 46 95h54v-12c0 -107 -62 -167 -170 -167c-78 0 -128 31 -152 93c-10 27 -13 45 -19 120l-3 39c-3 80 -34 109 -113 110h-56zM304 402h55c133 0 175 32 175 133
c0 92 -41 133 -135 133h-24c-64 -1 -72 -9 -71 -64v-202zM345 -372l-25 36c56 38 90 82 90 116c0 3 -1 5 -4 5h-3c-3 -1 -6 -1 -8 -1c-43 0 -76 34 -76 77c0 50 38 89 86 89c55 0 92 -44 92 -108c0 -80 -51 -153 -152 -214z" />
    <glyph glyph-name="rcommaaccent" unicode="&#x157;" horiz-adv-x="519" 
d="M241 473v-121c35 92 89 136 166 136c64 0 110 -43 110 -101c0 -49 -37 -86 -86 -86c-43 0 -75 31 -75 74c0 18 4 29 17 47c-72 -19 -114 -110 -118 -258v-20v-50c0 -37 8 -42 75 -43h22v-51h-334v51h4c43 0 62 4 69 13c4 6 5 12 6 26v54v174c1 92 -2 96 -64 97h-15v51z
M117 -372l-25 36c56 38 90 82 90 116c0 3 -1 5 -4 5h-3c-3 -1 -6 -1 -8 -1c-43 0 -76 34 -76 77c0 50 38 89 86 89c55 0 92 -44 92 -108c0 -80 -51 -153 -152 -214z" />
    <glyph glyph-name="Rcaron" unicode="&#x158;" horiz-adv-x="815" 
d="M304 347v-202c0 -62 0 -66 7 -76c9 -11 30 -14 83 -15h26v-54h-400v54h15c53 1 73 4 82 15c7 10 7 14 7 76v433c0 62 0 65 -7 76c-9 10 -28 14 -82 14h-15v54h427c92 0 159 -12 197 -36c52 -34 81 -85 81 -145c0 -65 -35 -120 -96 -151c-25 -12 -51 -19 -104 -29
c87 -29 125 -74 140 -164l7 -38c2 -14 4 -23 4 -28c5 -32 6 -39 12 -48c6 -8 18 -14 29 -14c30 0 45 32 46 95h54v-12c0 -107 -62 -167 -170 -167c-78 0 -128 31 -152 93c-10 27 -13 45 -19 120l-3 39c-3 80 -34 109 -113 110h-56zM304 402h55c133 0 175 32 175 133
c0 92 -41 133 -135 133h-24c-64 -1 -72 -9 -71 -64v-202zM584 967l-121 -178h-109l-121 178h67l108 -93l109 93h67z" />
    <glyph glyph-name="rcaron" unicode="&#x159;" horiz-adv-x="519" 
d="M241 473v-121c35 92 89 136 166 136c64 0 110 -43 110 -101c0 -49 -37 -86 -86 -86c-43 0 -75 31 -75 74c0 18 4 29 17 47c-72 -19 -114 -110 -118 -258v-20v-50c0 -37 8 -42 75 -43h22v-51h-334v51h4c43 0 62 4 69 13c4 6 5 12 6 26v54v174c1 92 -2 96 -64 97h-15v51z
M436 722l-121 -178h-109l-121 178h67l108 -93l109 93h67z" />
    <glyph glyph-name="Sacute" unicode="&#x15a;" horiz-adv-x="667" 
d="M588 729l13 -259h-53c-60 143 -142 215 -246 215c-79 0 -135 -43 -135 -104c0 -42 22 -71 68 -87c25 -9 25 -9 102 -24l48 -11c173 -38 248 -109 248 -236c0 -141 -108 -238 -264 -238c-81 0 -144 21 -205 67l-62 -59h-45l-6 283h51c55 -150 154 -239 267 -239
c87 0 144 46 144 117c0 36 -16 65 -44 80c-24 13 -43 18 -108 30l-62 12c-157 29 -247 116 -247 238c0 133 105 223 260 223c69 0 121 -16 179 -54l52 46h45zM251 790l113 138c35 43 47 51 77 51c32 0 57 -22 57 -50c0 -21 -12 -38 -36 -52l-147 -87h-64z" />
    <glyph glyph-name="sacute" unicode="&#x15b;" horiz-adv-x="500" 
d="M439 478l4 -158h-47c-49 82 -96 116 -160 116c-50 0 -84 -24 -84 -58c0 -26 13 -36 62 -49l90 -22c72 -18 93 -27 119 -50c28 -25 43 -60 43 -102c0 -100 -83 -170 -201 -170c-52 0 -103 13 -141 35l-39 -18h-42l-5 173h45c48 -95 105 -138 182 -138c53 0 86 23 86 59
c0 30 -20 47 -70 58l-73 16c-65 14 -94 28 -124 57c-28 26 -42 61 -42 99c0 95 80 162 193 162c49 0 86 -10 124 -32l37 22h43zM165 545l113 138c35 43 48 51 77 51c32 0 57 -22 57 -50c0 -21 -12 -38 -36 -52l-147 -87h-64z" />
    <glyph glyph-name="Scircumflex" unicode="&#x15c;" horiz-adv-x="667" 
d="M588 729l13 -259h-53c-60 143 -142 215 -246 215c-79 0 -135 -43 -135 -104c0 -42 22 -71 68 -87c25 -9 25 -9 102 -24l48 -11c173 -38 248 -109 248 -236c0 -141 -108 -238 -264 -238c-81 0 -144 21 -205 67l-62 -59h-45l-6 283h51c55 -150 154 -239 267 -239
c87 0 144 46 144 117c0 36 -16 65 -44 80c-24 13 -43 18 -108 30l-62 12c-157 29 -247 116 -247 238c0 133 105 223 260 223c69 0 121 -16 179 -54l52 46h45zM168 789l120 178h110l121 -178h-67l-109 93l-109 -93h-66z" />
    <glyph glyph-name="scircumflex" unicode="&#x15d;" horiz-adv-x="500" 
d="M439 478l4 -158h-47c-49 82 -96 116 -160 116c-50 0 -84 -24 -84 -58c0 -26 13 -36 62 -49l90 -22c72 -18 93 -27 119 -50c28 -25 43 -60 43 -102c0 -100 -83 -170 -201 -170c-52 0 -103 13 -141 35l-39 -18h-42l-5 173h45c48 -95 105 -138 182 -138c53 0 86 23 86 59
c0 30 -20 47 -70 58l-73 16c-65 14 -94 28 -124 57c-28 26 -42 61 -42 99c0 95 80 162 193 162c49 0 86 -10 124 -32l37 22h43zM76 544l120 178h110l121 -178h-67l-109 93l-109 -93h-66z" />
    <glyph glyph-name="Scedilla" unicode="&#x15e;" horiz-adv-x="667" 
d="M588 729l13 -259h-53c-60 143 -142 215 -246 215c-79 0 -135 -43 -135 -104c0 -42 22 -71 68 -87c25 -9 25 -9 102 -24l48 -11c173 -38 248 -109 248 -236c0 -140 -108 -238 -261 -238h-16l-22 -46c21 4 30 5 41 5c48 0 83 -32 83 -76c0 -53 -57 -90 -139 -90
c-35 0 -64 6 -95 19l18 45c28 -13 43 -17 63 -17c30 0 49 15 49 39c0 21 -16 34 -41 34c-9 0 -14 -1 -23 -6l-19 10l42 87c-58 9 -106 29 -149 63l-62 -59h-45l-6 283h51c55 -150 154 -239 267 -239c87 0 144 46 144 117c0 36 -16 65 -44 80c-24 13 -43 18 -108 30l-62 12
c-157 29 -247 116 -247 238c0 133 105 223 260 223c69 0 121 -16 179 -54l52 46h45z" />
    <glyph glyph-name="scedilla" unicode="&#x15f;" horiz-adv-x="500" 
d="M439 478l4 -158h-47c-49 82 -96 116 -160 116c-50 0 -84 -24 -84 -58c0 -26 13 -36 62 -49l90 -22c72 -18 93 -27 119 -50c28 -25 43 -60 43 -102c0 -100 -83 -170 -200 -170h-14l-21 -46c20 4 30 5 41 5c48 0 83 -32 83 -76c0 -53 -57 -90 -139 -90c-35 0 -64 6 -95 19
l17 45c29 -13 44 -17 64 -17c30 0 49 15 49 39c0 21 -16 34 -41 34c-9 0 -14 -1 -24 -6l-18 10l42 88c-40 8 -62 15 -86 30l-39 -18h-42l-5 173h45c48 -95 105 -138 182 -138c53 0 86 23 86 59c0 30 -20 47 -70 58l-73 16c-65 14 -94 28 -124 57c-28 26 -42 61 -42 99
c0 95 80 162 193 162c49 0 86 -10 124 -32l37 22h43z" />
    <glyph glyph-name="Scaron" unicode="&#x160;" horiz-adv-x="667" 
d="M588 729l13 -259h-53c-60 143 -142 215 -246 215c-79 0 -135 -43 -135 -104c0 -42 22 -71 68 -87c25 -9 25 -9 102 -24l48 -11c173 -38 248 -109 248 -236c0 -141 -108 -238 -264 -238c-81 0 -144 21 -205 67l-62 -59h-45l-6 283h51c55 -150 154 -239 267 -239
c87 0 144 46 144 117c0 36 -16 65 -44 80c-24 13 -43 18 -108 30l-62 12c-157 29 -247 116 -247 238c0 133 105 223 260 223c69 0 121 -16 179 -54l52 46h45zM510 969l-121 -179h-109l-121 179h67l108 -94l109 94h67z" />
    <glyph glyph-name="scaron" unicode="&#x161;" horiz-adv-x="500" 
d="M439 478l4 -158h-47c-49 82 -96 116 -160 116c-50 0 -84 -24 -84 -58c0 -26 13 -36 62 -49l90 -22c72 -18 93 -27 119 -50c28 -25 43 -60 43 -102c0 -100 -83 -170 -201 -170c-52 0 -103 13 -141 35l-39 -18h-42l-5 173h45c48 -95 105 -138 182 -138c53 0 86 23 86 59
c0 30 -20 47 -70 58l-73 16c-65 14 -94 28 -124 57c-28 26 -42 61 -42 99c0 95 80 162 193 162c49 0 86 -10 124 -32l37 22h43zM423 722l-121 -178h-109l-121 178h67l109 -93l108 93h67z" />
    <glyph glyph-name="Tcommaaccent" unicode="&#x162;" horiz-adv-x="722" 
d="M692 722l15 -271h-53c-15 82 -31 124 -59 160c-32 41 -65 59 -108 59c-30 0 -36 -7 -36 -40v-486c0 -61 0 -66 7 -75c9 -11 29 -15 83 -15h22v-54h-404v54h22c54 0 74 4 83 15c7 10 7 13 7 75v486c0 33 -6 40 -36 40c-47 0 -84 -23 -116 -71c-24 -35 -38 -74 -51 -148
h-53l15 271h662zM298 -372l-24 36c54 36 89 82 89 116c0 3 -1 5 -4 5h-3c-3 -1 -6 -1 -8 -1c-42 0 -75 34 -75 77c0 50 38 89 86 89c54 0 91 -44 91 -108c0 -80 -51 -153 -152 -214z" />
    <glyph glyph-name="tcommaaccent" unicode="&#x163;" horiz-adv-x="426" 
d="M381 473v-60h-130v-257c0 -68 8 -86 37 -86c41 0 64 41 63 116h53c1 -10 1 -18 1 -23c0 -44 -15 -91 -40 -124c-27 -35 -72 -54 -129 -54s-100 20 -121 55c-17 28 -21 52 -21 134v239h-71v52c95 11 149 78 165 206h63v-198h130zM150 -372l-24 36c54 37 89 82 89 116
c0 3 -1 5 -4 5h-3c-3 -1 -6 -1 -8 -1c-42 0 -75 34 -75 77c0 50 38 89 86 89c54 0 91 -44 91 -108c0 -80 -51 -153 -152 -214z" />
    <glyph glyph-name="Tcaron" unicode="&#x164;" horiz-adv-x="722" 
d="M692 722l15 -271h-53c-15 82 -31 124 -59 160c-32 41 -65 59 -108 59c-30 0 -36 -7 -36 -40v-486c0 -61 0 -66 7 -75c9 -11 29 -15 83 -15h22v-54h-404v54h22c54 0 74 4 83 15c7 10 7 13 7 75v486c0 33 -6 40 -36 40c-47 0 -84 -23 -116 -71c-24 -35 -38 -74 -51 -148
h-53l15 271h662zM538 967l-121 -178h-110l-120 178h66l109 -93l109 93h67z" />
    <glyph glyph-name="tcaron" unicode="&#x165;" horiz-adv-x="566" 
d="M252 473h130v-60h-130v-257c0 -68 8 -86 37 -86c41 0 64 41 63 116h53c1 -10 1 -18 1 -23c0 -44 -15 -91 -40 -124c-27 -35 -72 -54 -129 -54s-100 20 -121 55c-17 28 -21 52 -21 134v239h-71v52c95 11 149 78 165 206h63v-198zM404 437l-63 10l30 26c39 34 61 67 61 94
c0 3 -1 5 -4 5h-3c-3 -1 -6 -1 -8 -1c-43 0 -76 34 -76 77c0 50 38 89 86 89c55 0 92 -44 92 -108c0 -61 -27 -113 -86 -165z" />
    <glyph glyph-name="Tbar" unicode="&#x166;" horiz-adv-x="722" 
d="M451 420h145v-60h-145v-216c0 -61 0 -65 7 -75c9 -11 29 -15 83 -15h22v-54h-404v54h22c54 0 74 4 83 15c7 10 7 13 7 75v216h-145v60h145v209c0 35 -6 41 -37 41c-45 0 -84 -23 -115 -71c-24 -35 -38 -74 -51 -148h-53l15 271h662l15 -271h-53c-15 81 -31 123 -59 160
c-32 41 -65 59 -108 59c-30 0 -36 -7 -36 -41v-209z" />
    <glyph glyph-name="tbar" unicode="&#x167;" horiz-adv-x="426" 
d="M251 357h130v-57h-130v-144c0 -68 7 -86 37 -86c41 0 64 42 63 116h53c1 -10 1 -17 1 -22c0 -44 -15 -91 -40 -125c-27 -35 -72 -54 -129 -54s-100 20 -121 55c-17 28 -21 52 -21 134v126h-71v57h71v56h-71v52c95 11 149 78 165 206h63v-198h130v-60h-130v-56z" />
    <glyph glyph-name="Utilde" unicode="&#x168;" horiz-adv-x="833" 
d="M15 668v54h389v-54h-15c-54 0 -74 -4 -83 -15c-7 -10 -7 -13 -7 -75v-320c0 -73 11 -122 33 -149c28 -33 70 -49 128 -49c84 0 141 32 170 95c13 28 17 67 17 149v201c2 129 -17 158 -108 163v54h285v-54c-93 -5 -112 -34 -110 -163v-201c0 -119 -8 -162 -36 -208
c-49 -77 -126 -111 -254 -111c-141 0 -238 40 -279 115c-19 35 -26 77 -26 161v317c0 62 0 65 -7 75c-9 11 -29 15 -82 15h-15zM609 946h49c-4 -34 -13 -58 -34 -85c-27 -36 -53 -50 -91 -50c-35 0 -49 5 -102 33c-23 13 -46 21 -60 21c-19 0 -35 -18 -44 -50h-50
c13 79 62 135 119 135c28 0 44 -5 96 -30c35 -17 56 -24 70 -24c22 0 33 12 47 50z" />
    <glyph glyph-name="utilde" unicode="&#x169;" horiz-adv-x="685" 
d="M584 473v-342c-1 -61 3 -66 55 -66h28v-54l-233 -11v82c-58 -71 -106 -97 -177 -97c-69 0 -121 30 -148 86c-14 28 -16 46 -16 120v127c1 92 -2 96 -64 97h-16v51l237 7v-288c0 -76 21 -107 71 -107c38 0 73 23 89 57c13 26 17 53 17 103v80c1 92 -2 96 -64 97h-16v51z
M482 701h50c-5 -34 -14 -58 -34 -85c-27 -36 -53 -50 -92 -50c-34 0 -49 5 -101 33c-24 13 -47 21 -60 21c-20 0 -36 -18 -45 -50h-49c12 79 61 135 119 135c27 0 43 -5 95 -30c34 -16 57 -24 71 -24c22 0 33 12 46 50z" />
    <glyph glyph-name="Umacron" unicode="&#x16a;" horiz-adv-x="833" 
d="M15 668v54h389v-54h-15c-54 0 -74 -4 -83 -15c-7 -10 -7 -13 -7 -75v-320c0 -73 11 -122 33 -149c28 -33 70 -49 128 -49c84 0 141 32 170 95c13 28 17 67 17 149v201c2 129 -17 158 -108 163v54h285v-54c-93 -5 -112 -34 -110 -163v-201c0 -119 -8 -162 -36 -208
c-49 -77 -126 -111 -254 -111c-141 0 -238 40 -279 115c-19 35 -26 77 -26 161v317c0 62 0 65 -7 75c-9 11 -29 15 -82 15h-15zM245 908h344v-80h-344v80z" />
    <glyph glyph-name="umacron" unicode="&#x16b;" horiz-adv-x="685" 
d="M584 473v-342c-1 -61 3 -66 55 -66h28v-54l-233 -11v82c-58 -71 -106 -97 -177 -97c-69 0 -121 30 -148 86c-14 28 -16 46 -16 120v127c1 92 -2 96 -64 97h-16v51l237 7v-288c0 -76 21 -107 71 -107c38 0 73 23 89 57c13 26 17 53 17 103v80c1 92 -2 96 -64 97h-16v51z
M171 663h344v-80h-344v80z" />
    <glyph glyph-name="Ubreve" unicode="&#x16c;" horiz-adv-x="833" 
d="M15 668v54h389v-54h-15c-54 0 -74 -4 -83 -15c-7 -10 -7 -13 -7 -75v-320c0 -73 11 -122 33 -149c28 -33 70 -49 128 -49c84 0 141 32 170 95c13 28 17 67 17 149v201c2 129 -17 158 -108 163v54h285v-54c-93 -5 -112 -34 -110 -163v-201c0 -119 -8 -162 -36 -208
c-49 -77 -126 -111 -254 -111c-141 0 -238 40 -279 115c-19 35 -26 77 -26 161v317c0 62 0 65 -7 75c-9 11 -29 15 -82 15h-15zM314 957h53c7 -55 41 -82 105 -82c63 0 97 27 104 82h53c0 -106 -57 -167 -157 -167c-101 0 -158 61 -158 167z" />
    <glyph glyph-name="ubreve" unicode="&#x16d;" horiz-adv-x="685" 
d="M584 473v-342c-1 -61 3 -66 55 -66h28v-54l-233 -11v82c-58 -71 -106 -97 -177 -97c-69 0 -121 30 -148 86c-14 28 -16 46 -16 120v127c1 92 -2 96 -64 97h-16v51l237 7v-288c0 -76 21 -107 71 -107c38 0 73 23 89 57c13 26 17 53 17 103v80c1 92 -2 96 -64 97h-16v51z
M164 712h52c8 -55 42 -82 105 -82c64 0 98 27 105 82h53c0 -106 -57 -167 -158 -167c-100 0 -157 60 -157 167z" />
    <glyph glyph-name="Uring" unicode="&#x16e;" horiz-adv-x="833" 
d="M15 668v54h389v-54h-15c-54 0 -74 -4 -83 -15c-7 -10 -7 -13 -7 -75v-320c0 -73 11 -122 33 -149c28 -33 70 -49 128 -49c84 0 141 32 170 95c13 28 17 67 17 149v201c2 129 -17 158 -108 163v54h285v-54c-93 -5 -112 -34 -110 -163v-201c0 -119 -8 -162 -36 -208
c-49 -77 -126 -111 -254 -111c-141 0 -238 40 -279 115c-19 35 -26 77 -26 161v317c0 62 0 65 -7 75c-9 11 -29 15 -82 15h-15zM417 1005c59 0 107 -48 107 -107c0 -61 -48 -108 -109 -108c-58 0 -106 49 -106 108s48 107 108 107zM417 953c-29 0 -53 -25 -53 -55
s24 -56 52 -56c29 0 53 25 53 56c0 30 -24 55 -52 55z" />
    <glyph glyph-name="uring" unicode="&#x16f;" horiz-adv-x="685" 
d="M584 473v-342c-1 -61 3 -66 55 -66h28v-54l-233 -11v82c-58 -71 -106 -97 -177 -97c-69 0 -121 30 -148 86c-14 28 -16 46 -16 120v127c1 92 -2 96 -64 97h-16v51l237 7v-288c0 -76 21 -107 71 -107c38 0 73 23 89 57c13 26 17 53 17 103v80c1 92 -2 96 -64 97h-16v51z
M343 760c59 0 107 -48 107 -107c0 -61 -48 -108 -109 -108c-58 0 -106 49 -106 108s48 107 108 107zM343 708c-29 0 -53 -25 -53 -56c0 -30 24 -55 52 -55c29 0 53 25 53 56c0 30 -24 55 -52 55z" />
    <glyph glyph-name="Uhungarumlaut" unicode="&#x170;" horiz-adv-x="833" 
d="M15 668v54h389v-54h-15c-54 0 -74 -4 -83 -15c-7 -10 -7 -13 -7 -75v-320c0 -73 11 -122 33 -149c28 -33 70 -49 128 -49c84 0 141 32 170 95c13 28 17 67 17 149v201c2 129 -17 158 -108 163v54h285v-54c-93 -5 -112 -34 -110 -163v-201c0 -119 -8 -162 -36 -208
c-49 -77 -126 -111 -254 -111c-141 0 -238 40 -279 115c-19 35 -26 77 -26 161v317c0 62 0 65 -7 75c-9 11 -29 15 -82 15h-15zM343 790l-25 15l19 97c6 31 10 41 17 53c8 14 25 23 42 23c28 0 50 -22 50 -49c0 -20 -9 -40 -26 -58zM512 790l-25 15l19 97c6 31 10 41 17 53
c8 14 25 23 42 23c28 0 50 -22 50 -49c0 -20 -9 -39 -26 -58z" />
    <glyph glyph-name="uhungarumlaut" unicode="&#x171;" horiz-adv-x="685" 
d="M584 473v-342c-1 -61 3 -66 55 -66h28v-54l-233 -11v82c-58 -71 -106 -97 -177 -97c-69 0 -121 30 -148 86c-14 28 -16 46 -16 120v127c1 92 -2 96 -64 97h-16v51l237 7v-288c0 -76 21 -107 71 -107c38 0 73 23 89 57c13 26 17 53 17 103v80c1 92 -2 96 -64 97h-16v51z
M269 545l-25 15l19 97c7 32 10 41 17 53c9 14 25 23 42 23c28 0 50 -22 50 -49c0 -20 -9 -39 -26 -57zM438 545l-25 15l19 97c7 32 10 41 17 53c9 14 25 23 42 23c28 0 50 -22 50 -49c0 -20 -9 -39 -26 -57z" />
    <glyph glyph-name="Uogonek" unicode="&#x172;" horiz-adv-x="833" 
d="M539 722h285v-54c-93 -5 -112 -34 -110 -163v-201c0 -156 -8 -179 -97 -284c-25 -30 -39 -60 -39 -82c0 -20 12 -33 30 -33c17 0 31 7 49 22l19 -32c-26 -43 -61 -65 -102 -65c-46 0 -76 32 -76 81c0 34 12 60 39 86c-37 -9 -71 -12 -116 -12c-138 0 -235 40 -276 115
c-19 35 -26 78 -26 161v317c0 62 0 65 -7 75c-9 11 -29 15 -82 15h-15v54h389v-54h-15c-54 0 -74 -4 -83 -15c-7 -10 -7 -13 -7 -75v-320c0 -73 11 -122 33 -149c28 -33 70 -49 128 -49c84 0 141 32 170 95c13 28 17 67 17 149v201c2 129 -17 158 -108 163v54z" />
    <glyph glyph-name="uogonek" unicode="&#x173;" horiz-adv-x="685" 
d="M667 65v-65c-24 -25 -30 -37 -30 -59c0 -23 11 -36 30 -36c17 0 31 7 49 22l19 -32c-26 -43 -61 -65 -102 -65c-46 0 -76 32 -76 81c0 39 9 57 51 97l-174 -8v82c-58 -71 -106 -97 -177 -97c-69 0 -121 30 -148 86c-14 28 -16 46 -16 120v127c1 92 -2 96 -64 97h-16v51
l237 7v-288c0 -76 21 -107 71 -107c38 0 73 23 89 57c13 26 17 53 17 103v80c1 92 -2 96 -64 97h-16v51l237 7v-342c-1 -61 3 -66 55 -66h28z" />
    <glyph glyph-name="Wcircumflex" unicode="&#x174;" horiz-adv-x="981" 
d="M711 258l87 285c11 36 13 47 13 61c0 24 -13 45 -34 55c-13 6 -27 8 -56 9v54h252v-54c-61 -13 -79 -35 -108 -135l-174 -548h-73l-125 407l-132 -407h-75l-204 625c-18 50 -29 58 -76 58v54h310v-54c-47 -2 -59 -7 -59 -25c0 -7 2 -16 8 -34l116 -358l80 251l-36 112
c-15 44 -25 52 -64 54v54h296v-54c-47 -3 -59 -8 -59 -27c0 -6 1 -11 6 -27zM326 789l121 178h109l121 -178h-67l-109 93l-108 -93h-67z" />
    <glyph glyph-name="wcircumflex" unicode="&#x175;" horiz-adv-x="889" 
d="M642 154l70 170c9 24 14 41 14 52c0 28 -27 46 -69 46h-7v51h226v-51c-45 -2 -65 -20 -94 -85l-157 -351h-75l-107 264l-114 -264h-76l-163 380c-18 43 -32 54 -71 56v51h276v-51c-40 0 -49 -5 -49 -23c0 -6 0 -6 7 -24l87 -221l72 170l-25 61c-13 30 -24 37 -61 37v51
h279v-51h-7c-38 0 -54 -6 -54 -23c0 -5 2 -13 6 -21zM282 544l121 178h109l121 -178h-67l-108 93l-109 -93h-67z" />
    <glyph glyph-name="Ycircumflex" unicode="&#x176;" horiz-adv-x="722" 
d="M420 396l100 178c8 15 14 34 14 46c0 28 -29 48 -73 48h-21v54h295v-54c-56 -4 -95 -31 -134 -93l-150 -257v-174c0 -62 0 -65 7 -75c9 -11 29 -15 83 -15h22v-54h-404v54h22c54 0 74 4 83 15c7 10 7 13 7 75v161l-204 327c-19 29 -34 36 -79 36v54h360v-54h-16
c-38 0 -56 -7 -56 -22c0 -9 2 -15 12 -31zM186 789l121 178h109l121 -178h-67l-108 93l-109 -93h-67z" />
    <glyph glyph-name="ycircumflex" unicode="&#x177;" horiz-adv-x="611" 
d="M359 158l83 184c5 12 9 29 9 40c0 26 -24 40 -67 40h-11v51h225v-51c-42 -2 -62 -20 -91 -82l-175 -377c-55 -118 -114 -169 -198 -169c-75 0 -124 36 -124 92c0 50 38 87 87 87c44 0 75 -28 75 -68c0 -14 -2 -24 -8 -34c-1 -1 -1 -2 -1 -3c0 -3 4 -6 8 -6
c29 0 60 28 86 79l23 43l-205 398c-16 33 -24 39 -61 40v51h284v-51h-18c-24 0 -35 -6 -35 -21c0 -7 3 -16 8 -26zM143 544l121 178h109l121 -178h-67l-108 93l-109 -93h-67z" />
    <glyph glyph-name="Ydieresis" unicode="&#x178;" horiz-adv-x="722" 
d="M420 396l100 178c8 15 14 34 14 46c0 28 -29 48 -73 48h-21v54h295v-54c-56 -4 -95 -31 -134 -93l-150 -257v-174c0 -62 0 -65 7 -75c9 -11 29 -15 83 -15h22v-54h-404v54h22c54 0 74 4 83 15c7 10 7 13 7 75v161l-204 327c-19 29 -34 36 -79 36v54h360v-54h-16
c-38 0 -56 -7 -56 -22c0 -9 2 -15 12 -31zM278 938c39 0 70 -31 70 -70c0 -40 -31 -71 -71 -71c-38 0 -70 32 -70 70c0 39 32 71 71 71zM493 938c39 0 70 -31 70 -70c0 -40 -31 -71 -71 -71c-38 0 -70 32 -70 70c0 39 32 71 71 71z" />
    <glyph glyph-name="Zacute" unicode="&#x179;" horiz-adv-x="667" 
d="M634 722v-56l-401 -611h89c107 -1 148 15 201 83c31 43 49 85 58 138h53l-17 -276h-593v58l401 609h-74c-141 3 -201 -44 -251 -197h-51l12 252h573zM271 790l113 138c35 43 47 51 77 51c32 0 57 -22 57 -50c0 -21 -12 -38 -36 -52l-147 -87h-64z" />
    <glyph glyph-name="zacute" unicode="&#x17a;" horiz-adv-x="537" 
d="M495 473v-48l-270 -375h62c66 0 84 6 110 38c22 29 36 57 49 102h49l-10 -190h-450v44l272 379h-51c-101 2 -121 -14 -154 -130h-51l12 180h432zM226 545l113 138c35 43 47 51 77 51c32 0 57 -22 57 -50c0 -21 -12 -38 -36 -52l-147 -87h-64z" />
    <glyph glyph-name="Zdotaccent" unicode="&#x17b;" horiz-adv-x="667" 
d="M634 722v-56l-401 -611h89c107 -1 148 15 201 83c31 43 49 85 58 138h53l-17 -276h-593v58l401 609h-74c-141 3 -201 -44 -251 -197h-51l12 252h573zM354 938c39 0 70 -31 70 -70c0 -40 -31 -71 -71 -71c-38 0 -70 32 -70 70c0 39 32 71 71 71z" />
    <glyph glyph-name="zdotaccent" unicode="&#x17c;" horiz-adv-x="537" 
d="M495 473v-48l-270 -375h62c66 0 84 6 110 38c22 29 36 57 49 102h49l-10 -190h-450v44l272 379h-51c-101 2 -121 -14 -154 -130h-51l12 180h432zM289 693c39 0 70 -31 70 -70c0 -40 -31 -71 -71 -71c-38 0 -70 32 -70 70c0 39 32 71 71 71z" />
    <glyph glyph-name="Zcaron" unicode="&#x17d;" horiz-adv-x="667" 
d="M634 722v-56l-401 -611h89c107 -1 148 15 201 83c31 43 49 85 58 138h53l-17 -276h-593v58l401 609h-74c-141 3 -201 -44 -251 -197h-51l12 252h573zM527 969l-121 -179h-109l-121 179h66l109 -94l109 94h67z" />
    <glyph glyph-name="zcaron" unicode="&#x17e;" horiz-adv-x="537" 
d="M495 473v-48l-270 -375h62c66 0 84 6 110 38c22 29 36 57 49 102h49l-10 -190h-450v44l272 379h-51c-101 2 -121 -14 -154 -130h-51l12 180h432zM472 722l-121 -178h-109l-121 178h66l109 -93l109 93h67z" />
    <glyph glyph-name="longs" unicode="&#x17f;" horiz-adv-x="389" 
d="M351 50v-50h-330v50h4c44 1 63 5 70 14c4 5 5 12 6 25v55v269h-87v60h87v13c0 148 87 247 218 247c83 0 145 -47 145 -109c0 -47 -34 -82 -80 -82c-42 0 -75 30 -75 69c0 20 10 41 25 53c4 4 5 6 5 9c0 5 -6 8 -16 8c-20 0 -43 -17 -53 -40c-10 -22 -12 -44 -12 -111
v-386v-50c0 -37 9 -42 75 -44h18z" />
    <glyph glyph-name="florin" unicode="&#x192;" horiz-adv-x="574" 
d="M362 457h136v-60h-140l-11 -181c-3 -45 -14 -134 -23 -185c-25 -148 -94 -226 -198 -226c-66 0 -112 37 -112 90c0 43 28 73 69 73c38 0 62 -24 62 -60c0 -12 -3 -23 -9 -35s-7 -14 -7 -17c0 -6 5 -9 13 -9c15 0 32 13 39 31c9 22 13 53 18 144l23 375h-124v60h130
c8 89 18 129 43 180c36 71 92 109 162 109s116 -35 116 -89c0 -43 -28 -73 -69 -73c-36 0 -63 25 -63 59c0 15 5 33 15 49c1 2 2 4 2 6c0 3 -4 6 -11 6c-16 0 -31 -11 -39 -29c-12 -28 -13 -35 -20 -174z" />
    <glyph glyph-name="Aringacute" unicode="&#x1fa;" horiz-adv-x="759" 
d="M351 737h76l257 -620c21 -51 37 -61 94 -63v-54h-351v54l17 1c44 0 58 6 58 24c0 8 -1 13 -12 41l-38 98h-249l-16 -38c-11 -24 -15 -40 -15 -57c0 -46 28 -65 99 -69v-54h-289v54c59 6 96 45 142 153zM330 524l-101 -239h198zM386 990c60 0 108 -48 108 -107
c0 -61 -48 -108 -109 -108c-58 0 -106 49 -106 108s48 107 107 107zM387 938c-29 0 -53 -25 -53 -56c0 -30 24 -55 52 -55c29 0 53 25 53 56c0 30 -24 55 -52 55zM231 981l113 138c35 43 48 51 77 51c32 0 57 -22 57 -50c0 -21 -12 -38 -36 -52l-147 -87h-64z" />
    <glyph glyph-name="aringacute" unicode="&#x1fb;" horiz-adv-x="611" 
d="M516 318v-176c0 -59 5 -72 27 -72c7 0 10 1 19 7c8 5 14 7 20 7c10 0 15 -6 15 -16c0 -43 -53 -83 -110 -83c-51 0 -89 26 -106 71c-54 -52 -105 -71 -191 -71c-98 0 -154 43 -154 117c0 66 40 108 133 139c43 15 66 21 128 34c37 8 57 13 62 14v52c0 70 -22 95 -83 95
c-40 0 -73 -15 -73 -32c0 -5 0 -5 9 -17s14 -26 14 -38c0 -37 -35 -65 -82 -65s-81 32 -81 75c0 78 90 129 228 129c79 0 141 -16 178 -45c35 -29 47 -60 47 -125zM359 235l-53 -12c-72 -17 -103 -47 -103 -101c0 -42 25 -69 64 -69c57 0 92 49 92 126v56zM289 760
c59 0 107 -48 107 -107c0 -60 -48 -108 -109 -108c-58 0 -106 49 -106 108s48 107 108 107zM289 708c-29 0 -53 -25 -53 -56c0 -30 24 -55 52 -55c29 0 53 25 53 56c0 30 -24 55 -52 55zM115 738l112 138c35 43 48 51 77 51c33 0 58 -22 58 -50c0 -21 -12 -38 -37 -52
l-146 -87h-64z" />
    <glyph glyph-name="AEacute" unicode="&#x1fc;" horiz-adv-x="981" 
d="M946 722l6 -260h-52c-41 144 -99 201 -213 206h-21c-59 -2 -74 -20 -71 -86v-181h10c79 1 127 50 138 142h54v-339h-54c-12 94 -59 143 -138 143h-10v-223c-2 -54 16 -71 76 -71h17c108 0 187 76 222 216h53l-11 -269h-639v53h11c55 1 75 4 84 15c7 11 7 12 7 76v120
h-215l-49 -97c-14 -28 -22 -54 -22 -69c0 -28 29 -45 76 -45h18v-53h-252v53c41 8 63 32 102 110l197 391c12 25 18 44 18 60c0 35 -31 54 -88 54h-20v54h766zM415 319v327c0 17 -2 22 -10 22c-6 0 -7 -1 -18 -23l-160 -326h188zM408 790l113 138c35 43 48 51 77 51
c32 0 57 -22 57 -50c0 -21 -12 -38 -36 -52l-147 -87h-64z" />
    <glyph glyph-name="aeacute" unicode="&#x1fd;" horiz-adv-x="870" 
d="M787 164l49 -20c-44 -107 -121 -159 -234 -159c-84 0 -155 32 -201 91c-59 -62 -127 -91 -215 -91c-99 0 -156 43 -156 118c0 63 42 108 133 141c41 15 50 17 128 33c38 7 38 7 62 13v52c0 69 -22 94 -83 94c-40 0 -73 -14 -73 -32c0 -5 0 -5 9 -17c9 -11 14 -25 14 -38
c0 -36 -35 -64 -82 -64s-81 32 -81 74c0 77 90 129 224 129c71 0 130 -18 169 -51c45 34 99 51 156 51c139 0 231 -98 231 -246c0 -1 0 -8 -1 -14h-335c2 -58 8 -88 26 -115c24 -38 64 -60 110 -60c66 0 111 33 150 111zM353 236l-53 -13c-72 -17 -103 -47 -103 -100
c0 -43 25 -70 64 -70c57 0 92 49 92 126v57zM502 283h150c21 0 28 8 28 32c0 79 -28 121 -79 121c-61 0 -98 -58 -99 -153zM353 545l112 138c35 42 48 51 77 51c33 0 58 -22 58 -50c0 -20 -12 -38 -37 -52l-147 -87h-63z" />
    <glyph glyph-name="Oslashacute" unicode="&#x1fe;" horiz-adv-x="833" 
d="M613 688l53 74h65l-75 -105c85 -70 137 -180 137 -292c0 -99 -43 -205 -114 -275c-69 -70 -158 -105 -266 -105c-78 0 -141 17 -200 54l-57 -79h-65l79 111c-85 75 -131 178 -131 292c0 214 164 375 382 375c72 0 135 -16 192 -50zM258 193l291 407
c-30 59 -71 86 -132 86c-117 0 -178 -107 -178 -314c0 -71 6 -125 19 -179zM573 541l-294 -409c29 -66 72 -95 141 -95c60 0 108 29 130 79c27 61 43 155 43 257c0 63 -7 122 -20 168zM334 790l113 138c35 43 47 51 77 51c32 0 57 -22 57 -50c0 -21 -12 -38 -36 -52
l-147 -87h-64z" />
    <glyph glyph-name="oslashacute" unicode="&#x1ff;" horiz-adv-x="611" 
d="M411 469l54 94h58l-67 -115c82 -54 123 -125 123 -214c0 -143 -117 -249 -274 -249c-39 0 -73 6 -107 18l-54 -93h-58l66 114c-75 42 -121 123 -121 212c0 142 118 252 272 252c37 0 73 -6 108 -19zM214 130l158 273c-18 22 -39 33 -67 33c-66 0 -101 -69 -101 -201
c0 -41 3 -73 10 -105zM396 343l-158 -272c18 -24 39 -34 66 -34c66 0 102 71 102 198c0 36 -4 80 -10 108zM223 545l113 138c35 43 47 51 77 51c32 0 57 -22 57 -50c0 -21 -12 -38 -36 -52l-147 -87h-64z" />
    <glyph glyph-name="Scommaaccent" unicode="&#x218;" horiz-adv-x="667" 
d="M588 729l13 -259h-53c-60 143 -142 215 -246 215c-79 0 -135 -43 -135 -104c0 -42 22 -71 68 -87c25 -9 25 -9 102 -24l48 -11c173 -38 248 -109 248 -236c0 -141 -108 -238 -264 -238c-81 0 -144 21 -205 67l-62 -59h-45l-6 283h51c55 -150 154 -239 267 -239
c87 0 144 46 144 117c0 36 -16 65 -44 80c-24 13 -43 18 -108 30l-62 12c-157 29 -247 116 -247 238c0 133 105 223 260 223c69 0 121 -16 179 -54l52 46h45zM271 -372l-25 36c56 38 90 82 90 116c0 3 -1 5 -4 5h-3c-3 -1 -6 -1 -8 -1c-43 0 -76 34 -76 77c0 50 38 89 86 89
c55 0 92 -44 92 -108c0 -80 -51 -153 -152 -214z" />
    <glyph glyph-name="scommaaccent" unicode="&#x219;" horiz-adv-x="500" 
d="M439 478l4 -158h-47c-49 82 -96 116 -160 116c-50 0 -84 -24 -84 -58c0 -26 13 -36 62 -49l90 -22c72 -18 93 -27 119 -50c28 -25 43 -60 43 -102c0 -100 -83 -170 -201 -170c-52 0 -103 13 -141 35l-39 -18h-42l-5 173h45c48 -95 105 -138 182 -138c53 0 86 23 86 59
c0 30 -20 47 -70 58l-73 16c-65 14 -94 28 -124 57c-28 26 -42 61 -42 99c0 95 80 162 193 162c49 0 86 -10 124 -32l37 22h43zM187 -372l-24 36c54 37 89 82 89 116c0 3 -1 5 -4 5h-3c-3 -1 -6 -1 -8 -1c-42 0 -75 34 -75 77c0 50 38 89 86 89c54 0 91 -44 91 -108
c0 -80 -51 -153 -152 -214z" />
    <glyph glyph-name="uni021A" unicode="&#x21a;" horiz-adv-x="722" 
d="M692 722l15 -271h-53c-15 82 -31 124 -59 160c-32 41 -65 59 -108 59c-30 0 -36 -7 -36 -40v-486c0 -61 0 -66 7 -75c9 -11 29 -15 83 -15h22v-54h-404v54h22c54 0 74 4 83 15c7 10 7 13 7 75v486c0 33 -6 40 -36 40c-47 0 -84 -23 -116 -71c-24 -35 -38 -74 -51 -148
h-53l15 271h662zM298 -372l-24 36c54 36 89 82 89 116c0 3 -1 5 -4 5h-3c-3 -1 -6 -1 -8 -1c-42 0 -75 34 -75 77c0 50 38 89 86 89c54 0 91 -44 91 -108c0 -80 -51 -153 -152 -214z" />
    <glyph glyph-name="uni021B" unicode="&#x21b;" horiz-adv-x="426" 
d="M381 473v-60h-130v-257c0 -68 8 -86 37 -86c41 0 64 41 63 116h53c1 -10 1 -18 1 -23c0 -44 -15 -91 -40 -124c-27 -35 -72 -54 -129 -54s-100 20 -121 55c-17 28 -21 52 -21 134v239h-71v52c95 11 149 78 165 206h63v-198h130zM150 -372l-24 36c54 37 89 82 89 116
c0 3 -1 5 -4 5h-3c-3 -1 -6 -1 -8 -1c-42 0 -75 34 -75 77c0 50 38 89 86 89c54 0 91 -44 91 -108c0 -80 -51 -153 -152 -214z" />
    <glyph glyph-name="uni02BB" unicode="&#x2bb;" horiz-adv-x="241" 
d="M191 747l27 -41c-62 -43 -99 -91 -99 -129c0 -4 1 -6 4 -6h4c3 1 5 1 8 1c48 0 84 -37 84 -86c0 -55 -42 -98 -96 -98c-60 0 -101 49 -101 120c0 90 58 171 169 239z" />
    <glyph glyph-name="uni02BC" unicode="&#x2bc;" horiz-adv-x="241" 
d="M50 379l-27 41c62 42 99 91 99 129c0 3 -1 5 -4 5h-4c-3 -1 -5 -1 -10 -1c-46 0 -82 38 -82 86c0 55 42 98 96 98c60 0 101 -49 101 -120c0 -89 -58 -170 -169 -238z" />
    <glyph glyph-name="circumflex" unicode="&#x2c6;" horiz-adv-x="333" 
d="M-8 544l121 178h109l121 -178h-67l-108 93l-109 -93h-67z" />
    <glyph glyph-name="caron" unicode="&#x2c7;" horiz-adv-x="333" 
d="M343 722l-121 -178h-109l-121 178h67l108 -93l109 93h67z" />
    <glyph glyph-name="uni02C9" unicode="&#x2c9;" horiz-adv-x="333" 
d="M-5 663h344v-80h-344v80z" />
    <glyph glyph-name="breve" unicode="&#x2d8;" horiz-adv-x="333" 
d="M9 712h53c7 -55 41 -82 105 -82c63 0 97 26 104 82h53c0 -106 -57 -167 -158 -167c-100 0 -157 61 -157 167z" />
    <glyph glyph-name="dotaccent" unicode="&#x2d9;" horiz-adv-x="333" 
d="M167 693c39 0 70 -31 70 -70c0 -40 -31 -71 -71 -71c-38 0 -70 32 -70 70c0 39 32 71 71 71z" />
    <glyph glyph-name="ring" unicode="&#x2da;" horiz-adv-x="333" 
d="M167 760c59 0 107 -48 107 -107c0 -61 -48 -108 -109 -108c-58 0 -106 49 -106 108s48 107 108 107zM167 708c-29 0 -53 -25 -53 -56c0 -30 24 -55 52 -55c29 0 53 25 53 56c0 30 -24 55 -52 55z" />
    <glyph glyph-name="ogonek" unicode="&#x2db;" horiz-adv-x="333" 
d="M111 0h67c-23 -24 -30 -37 -30 -59c0 -23 11 -36 30 -36c17 0 31 6 49 22l19 -32c-26 -43 -61 -65 -102 -65c-46 0 -76 32 -76 81c0 36 12 60 43 89z" />
    <glyph glyph-name="tilde" unicode="&#x2dc;" horiz-adv-x="333" 
d="M309 701h49c-4 -34 -13 -58 -34 -85c-27 -36 -53 -50 -91 -50c-35 0 -49 5 -102 33c-23 13 -46 21 -60 21c-19 0 -35 -18 -44 -50h-50c12 79 62 135 119 135c28 0 44 -5 96 -30c34 -16 56 -24 71 -24c21 0 32 12 46 50z" />
    <glyph glyph-name="hungarumlaut" unicode="&#x2dd;" horiz-adv-x="333" 
d="M93 545l-25 15l19 97c7 32 10 41 17 53c9 14 25 23 42 23c28 0 50 -22 50 -49c0 -20 -9 -39 -26 -57zM262 545l-25 15l19 97c7 32 10 41 17 53c9 14 25 23 42 23c28 0 50 -22 50 -49c0 -20 -9 -39 -26 -57z" />
    <glyph glyph-name="uni035C" unicode="&#x35c;" horiz-adv-x="0" 
d="M434 -59c-25 -42 -149 -247 -441 -247c-82 0 -296 28 -421 247h28c59 -84 130 -134 402 -134c305 0 349 64 405 134h27z" />
    <glyph glyph-name="uni0361" unicode="&#x361;" horiz-adv-x="0" 
d="M-437 517c25 42 149 247 441 247c82 0 296 -28 421 -247h-28c-59 84 -130 134 -402 134c-305 0 -349 -64 -405 -134h-27z" />
    <glyph glyph-name="tonos" unicode="&#x384;" horiz-adv-x="188" 
d="M114 530h-41l-37 195c-2 10 -3 20 -3 28c0 36 26 62 61 62s60 -26 60 -62c0 -8 -1 -18 -3 -28z" />
    <glyph glyph-name="dieresistonos" unicode="&#x385;" horiz-adv-x="437" 
d="M212 530l-40 10l15 198c4 49 26 75 62 75c35 0 62 -26 62 -60c0 -13 -4 -25 -13 -45zM71 693c39 0 70 -31 70 -70c0 -40 -31 -71 -71 -71c-38 0 -70 32 -70 70c0 39 32 71 71 71zM367 693c39 0 70 -31 70 -70c0 -40 -31 -71 -71 -71c-38 0 -70 32 -70 70
c0 39 32 71 71 71z" />
    <glyph glyph-name="Alphatonos" unicode="&#x386;" horiz-adv-x="777" 
d="M369 737h76l257 -620c21 -51 37 -61 94 -63v-54h-351v54l17 1c44 0 58 6 58 24c0 8 -1 13 -12 41l-38 98h-249l-16 -38c-11 -24 -15 -40 -15 -57c0 -46 28 -65 99 -69v-54h-289v54c59 6 96 45 142 153zM348 524l-101 -239h198zM188 530h-41l-37 195c-2 10 -3 18 -3 28
c0 36 26 62 61 62s60 -26 60 -62c0 -6 -1 -17 -3 -28z" />
    <glyph glyph-name="uni0387" unicode="&#x387;" horiz-adv-x="278" 
d="M139 348c52 0 94 -42 94 -94s-42 -94 -95 -94c-51 0 -93 43 -93 94c0 52 42 94 94 94z" />
    <glyph glyph-name="Epsilontonos" unicode="&#x388;" horiz-adv-x="890" 
d="M819 722l6 -260h-52c-42 149 -102 203 -227 206h-28c-74 -1 -88 -16 -86 -86v-181h17c79 0 127 50 138 142h54v-339h-54c-11 92 -59 142 -138 142h-17v-221c-1 -59 17 -73 90 -71h30c121 1 196 70 234 215h53l-12 -269h-679v54h15c53 0 73 4 82 15c7 10 7 13 7 75v434
c0 62 0 65 -7 75c-9 11 -29 15 -82 15h-15v54h671zM88 530h-41l-37 195c-2 10 -3 20 -3 28c0 36 26 62 61 62s60 -26 60 -62c0 -8 -1 -18 -3 -28z" />
    <glyph glyph-name="Etatonos" unicode="&#x389;" horiz-adv-x="998" 
d="M693 339h-261v-195c0 -62 0 -65 7 -75c9 -11 29 -15 83 -15h15v-54h-389v54h15c53 0 73 4 82 15c7 10 7 13 7 75v433c0 62 0 66 -7 76c-9 11 -29 14 -82 15h-15v54h389v-54h-15c-54 -1 -74 -4 -83 -15c-7 -10 -7 -14 -7 -76v-178h261v178c0 63 0 66 -7 76
c-9 11 -29 14 -82 15h-15v54h389v-54h-15c-53 -1 -74 -4 -83 -15c-7 -10 -7 -14 -7 -76v-433c0 -61 0 -66 7 -75c9 -11 29 -15 83 -15h15v-54h-389v54h15c53 0 73 4 82 15c7 9 7 13 7 75v195zM88 530h-41l-37 195c-2 10 -3 20 -3 28c0 36 26 62 61 62s60 -26 60 -62
c0 -8 -1 -18 -3 -28z" />
    <glyph glyph-name="Iotatonos" unicode="&#x38a;" horiz-adv-x="563" 
d="M148 0v54h15c53 0 73 4 82 15c7 10 7 13 7 75v434c0 62 0 65 -7 75c-9 11 -29 15 -82 15h-15v54h389v-54h-15c-54 0 -74 -4 -83 -15c-7 -10 -7 -13 -7 -75v-434c0 -62 0 -65 7 -75c9 -11 29 -15 83 -15h15v-54h-389zM88 530h-41l-37 195c-2 10 -3 20 -3 28
c0 36 26 62 61 62s60 -26 60 -62c0 -8 -1 -18 -3 -28z" />
    <glyph glyph-name="Omicrontonos" unicode="&#x38c;" horiz-adv-x="872" 
d="M456 737c98 0 176 -27 243 -85c84 -71 134 -185 134 -301c0 -118 -47 -219 -134 -288c-67 -54 -145 -78 -248 -78c-217 0 -373 153 -373 365c0 117 50 230 134 302c65 57 147 85 244 85zM457 685c-59 0 -99 -22 -128 -71c-34 -57 -51 -137 -51 -245
c0 -106 18 -193 51 -255c28 -52 70 -77 128 -77c114 0 176 110 176 313c0 109 -18 198 -51 258c-29 51 -70 77 -125 77zM88 530h-41l-37 195c-2 10 -3 20 -3 28c0 36 26 62 61 62s60 -26 60 -62c0 -8 -1 -18 -3 -28z" />
    <glyph glyph-name="Upsilontonos" unicode="&#x38e;" horiz-adv-x="867" 
d="M565 396l100 178c9 16 14 33 14 45c0 29 -29 49 -73 49h-21v54h295v-54c-56 -4 -95 -31 -134 -93l-150 -257v-174c0 -62 0 -65 7 -75c9 -11 29 -15 83 -15h22v-54h-404v54h22c54 0 74 4 83 15c7 9 7 13 7 75v161l-204 327c-19 29 -34 36 -79 36v54h360v-54h-16
c-38 0 -56 -7 -56 -22c0 -9 3 -15 12 -31zM81 530h-41l-37 195c-2 10 -3 20 -3 28c0 36 26 62 61 62s60 -26 60 -62c0 -8 -1 -18 -3 -28z" />
    <glyph glyph-name="Omegatonos" unicode="&#x38f;" horiz-adv-x="938" 
d="M101 530h-41l-37 195c-2 10 -3 20 -3 28c0 36 26 62 61 62s60 -26 60 -62c0 -8 -1 -18 -3 -28zM421 145v-145h-339l-36 256h54c25 -87 74 -128 155 -129h61v16c-126 47 -203 153 -203 281c0 99 48 187 134 246c66 45 146 67 244 67c221 0 377 -129 377 -313
c0 -128 -76 -233 -203 -281v-16h61c81 1 130 41 155 129h54l-36 -256h-339v145c12 8 27 23 42 44c43 59 66 143 66 243c0 166 -61 253 -178 253c-116 0 -177 -87 -177 -252c0 -108 26 -195 74 -255c13 -16 24 -26 34 -33z" />
    <glyph glyph-name="iotadieresistonos" unicode="&#x390;" horiz-adv-x="377" 
d="M263 473v-331c0 -55 8 -70 39 -70c10 0 16 2 29 8c12 6 20 9 28 9c11 0 18 -7 18 -18c0 -42 -73 -86 -140 -86c-51 0 -92 21 -113 57c-14 25 -18 49 -18 102v177c0 89 -3 93 -64 94h-14v51zM182 530l-40 10l15 198c4 49 26 75 62 75c35 0 62 -26 62 -60
c0 -13 -4 -25 -13 -45zM41 693c39 0 70 -31 70 -70c0 -40 -31 -71 -71 -71c-38 0 -70 32 -70 70c0 39 32 71 71 71zM337 693c39 0 70 -31 70 -70c0 -40 -31 -71 -71 -71c-38 0 -70 32 -70 70c0 39 32 71 71 71z" />
    <glyph glyph-name="Alpha" unicode="&#x391;" horiz-adv-x="759" 
d="M351 737h76l257 -620c21 -51 37 -61 94 -63v-54h-351v54l17 1c44 0 58 6 58 24c0 8 -1 13 -12 41l-38 98h-249l-16 -38c-11 -24 -15 -40 -15 -57c0 -46 28 -65 99 -69v-54h-289v54c59 6 96 45 142 153zM330 524l-101 -239h198z" />
    <glyph glyph-name="Beta" unicode="&#x392;" horiz-adv-x="778" 
d="M17 722h386c118 0 166 -9 221 -40c49 -27 79 -80 79 -137c0 -60 -32 -108 -92 -137c-28 -13 -56 -20 -105 -28c53 -7 82 -15 116 -31c74 -34 114 -89 114 -159c0 -68 -42 -131 -105 -159c-52 -23 -105 -31 -209 -31h-405v54h15c53 0 73 4 82 15c7 10 7 13 7 75v434
c0 62 0 65 -7 76c-9 10 -28 14 -82 14h-15v54zM301 398h49c62 0 96 8 123 30c32 25 49 64 49 113c0 83 -47 127 -135 127h-30c-44 -2 -58 -16 -56 -58v-212zM301 343v-225c-2 -56 4 -62 61 -64h30c48 0 81 10 106 30c29 24 47 68 47 116c0 52 -21 96 -55 119
c-28 18 -57 24 -120 24h-69z" />
    <glyph glyph-name="Gamma" unicode="&#x393;" horiz-adv-x="722" 
d="M701 453h-53c-41 148 -112 213 -234 215h-21c-73 2 -91 -12 -90 -71v-453c0 -62 0 -65 7 -75c10 -11 29 -15 83 -15h22v-54h-396v54h15c54 0 73 4 82 15c7 10 7 13 7 75v433c0 62 0 66 -7 76c-9 11 -29 15 -82 15h-15v54h670z" />
    <glyph glyph-name="uni0394" unicode="&#x394;" horiz-adv-x="651" 
d="M0 0v54l292 683h76l283 -683v-54h-651zM271 524l-163 -391h229c47 1 51 1 60 5c10 4 15 11 15 20c0 8 -4 21 -12 42z" />
    <glyph glyph-name="Epsilon" unicode="&#x395;" horiz-adv-x="759" 
d="M687 722l6 -260h-52c-42 149 -102 203 -227 206h-28c-74 -1 -88 -16 -86 -86v-181h17c79 0 127 50 138 142h54v-339h-54c-11 92 -59 142 -138 142h-17v-221c-1 -59 17 -73 90 -71h30c121 1 196 70 234 215h53l-12 -269h-679v54h15c53 0 73 4 82 15c7 10 7 13 7 75v434
c0 62 0 65 -7 75c-9 11 -29 15 -82 15h-15v54h671z" />
    <glyph glyph-name="Zeta" unicode="&#x396;" horiz-adv-x="667" 
d="M634 722v-56l-401 -611h89c107 -1 148 15 201 83c31 43 49 85 58 138h53l-17 -276h-593v58l401 609h-74c-141 3 -201 -44 -251 -197h-51l12 252h573z" />
    <glyph glyph-name="Eta" unicode="&#x397;" horiz-adv-x="870" 
d="M565 339h-261v-195c0 -62 0 -65 7 -75c9 -11 29 -15 83 -15h15v-54h-389v54h15c53 0 73 4 82 15c7 10 7 13 7 75v433c0 62 0 66 -7 76c-9 11 -29 14 -82 15h-15v54h389v-54h-15c-54 -1 -74 -4 -83 -15c-7 -10 -7 -14 -7 -76v-178h261v178c0 63 0 66 -7 76
c-9 11 -29 14 -82 15h-15v54h389v-54h-15c-53 -1 -74 -4 -83 -15c-7 -10 -7 -14 -7 -76v-433c0 -61 0 -66 7 -75c9 -11 29 -15 83 -15h15v-54h-389v54h15c53 0 73 4 82 15c7 9 7 13 7 75v195z" />
    <glyph glyph-name="Theta" unicode="&#x398;" horiz-adv-x="833" 
d="M347 239h-54v243h54c6 -60 31 -94 70 -94c38 0 63 33 69 94h54v-243h-54c-6 60 -31 94 -69 94c-39 0 -65 -34 -70 -94zM417 737c98 0 176 -27 243 -85c84 -71 134 -185 134 -301c0 -117 -47 -220 -134 -288c-67 -54 -145 -78 -248 -78c-217 0 -373 153 -373 365
c0 117 50 230 134 302c65 57 147 85 244 85zM418 685c-59 0 -99 -22 -128 -71c-34 -57 -51 -137 -51 -245c0 -106 18 -193 51 -255c28 -52 70 -77 128 -77c114 0 176 110 176 313c0 108 -18 198 -51 258c-29 51 -71 77 -125 77z" />
    <glyph glyph-name="Iota" unicode="&#x399;" horiz-adv-x="444" 
d="M28 0v54h15c53 0 73 4 82 15c7 10 7 13 7 75v434c0 62 0 65 -7 75c-9 11 -29 15 -82 15h-15v54h389v-54h-15c-54 0 -74 -4 -83 -15c-7 -10 -7 -13 -7 -75v-434c0 -62 0 -65 7 -75c9 -11 29 -15 83 -15h15v-54h-389z" />
    <glyph glyph-name="Kappa" unicode="&#x39a;" horiz-adv-x="815" 
d="M383 338l-84 -88v-106c0 -62 0 -65 7 -75c9 -11 29 -15 83 -15h15v-54h-389v54h15c53 0 73 4 82 15c7 10 7 13 7 75v434c0 62 0 65 -7 75c-9 11 -29 15 -82 15h-15v54h389v-54h-15c-54 0 -74 -4 -83 -15c-7 -10 -7 -13 -7 -75v-234l221 234c18 20 33 44 33 55
c0 23 -26 35 -75 35h-24v54h337v-54c-66 -4 -116 -33 -203 -118l-83 -87l208 -332c46 -72 50 -74 105 -77v-54h-364v54h13c46 0 68 8 68 23c0 9 -4 18 -12 32z" />
    <glyph glyph-name="Lambda" unicode="&#x39b;" horiz-adv-x="759" 
d="M330 516l-142 -356c-6 -15 -9 -26 -9 -38c0 -45 31 -67 97 -68v-54h-295v54c61 6 106 48 138 127l229 556h88l243 -614c23 -57 39 -69 98 -69v-54h-362v54h21c44 0 62 7 62 25c0 6 -3 17 -9 33z" />
    <glyph glyph-name="Mu" unicode="&#x39c;" horiz-adv-x="981" 
d="M338 722l155 -430l146 430h326v-54h-11c-54 0 -74 -4 -83 -15c-7 -9 -7 -14 -7 -75v-434c0 -61 0 -66 7 -75c9 -11 29 -15 83 -15h11v-54h-382v54h11c54 0 74 4 83 15c7 10 7 13 7 75v499l-221 -643h-52l-227 633v-416c-2 -129 17 -158 110 -163v-54h-285v54
c91 5 110 34 108 163v361c0 62 0 65 -7 75c-8 11 -29 15 -83 15h-11v54h322z" />
    <glyph glyph-name="Nu" unicode="&#x39d;" horiz-adv-x="833" 
d="M270 722l386 -452v235c2 129 -17 159 -108 163v54h285v-54c-92 -4 -112 -34 -110 -163v-512h-67l-465 553v-329c-2 -129 17 -158 110 -163v-54h-285v54c91 5 110 34 108 163v394c-26 36 -61 55 -106 56v55h252z" />
    <glyph glyph-name="Xi" unicode="&#x39e;" horiz-adv-x="746" 
d="M693 722l5 -260h-52c-26 102 -57 128 -147 127h-253c-90 1 -120 -25 -147 -127h-52l6 260h640zM700 0h-655l-12 269h53c24 -100 61 -135 144 -136h285c83 1 121 36 144 136h53zM210 498h54c9 -64 47 -97 109 -97s100 33 109 97h54v-250h-54c-9 64 -47 98 -109 98
s-100 -34 -109 -98h-54v250z" />
    <glyph glyph-name="Omicron" unicode="&#x39f;" horiz-adv-x="833" 
d="M417 737c98 0 176 -27 243 -85c84 -71 134 -185 134 -301c0 -117 -47 -220 -134 -288c-67 -54 -145 -78 -248 -78c-217 0 -373 153 -373 365c0 117 50 230 134 302c65 57 147 85 244 85zM418 685c-59 0 -99 -22 -128 -71c-34 -57 -51 -137 -51 -245
c0 -106 18 -193 51 -255c28 -52 70 -77 128 -77c114 0 176 110 176 313c0 108 -18 198 -51 258c-29 51 -71 77 -125 77z" />
    <glyph glyph-name="Pi" unicode="&#x3a0;" horiz-adv-x="870" 
d="M409 54v-54h-389v54h15c54 0 74 4 83 15c7 10 7 13 7 75v433c0 62 0 66 -7 76c-9 11 -29 14 -83 15h-15v54h830v-54h-15c-53 -1 -74 -4 -83 -15c-7 -10 -7 -14 -7 -76v-433c0 -61 0 -66 7 -75c9 -11 29 -15 83 -15h15v-54h-389v54h15c53 0 73 4 82 15c7 9 7 13 7 75v427
c0 63 0 66 -7 76c-9 11 -29 15 -82 15h-82c-53 0 -73 -4 -82 -15c-7 -10 -7 -13 -7 -76v-427c0 -62 0 -66 7 -75c9 -11 29 -15 82 -15h15z" />
    <glyph glyph-name="Rho" unicode="&#x3a1;" horiz-adv-x="759" 
d="M308 310v-166c0 -62 0 -65 7 -76c9 -10 29 -14 83 -14h22v-54h-396v54h15c53 0 73 4 82 14c7 11 7 14 7 76v433c0 62 0 65 -7 76c-9 10 -29 14 -82 14h-15v55h397c100 0 159 -10 213 -35c64 -30 101 -91 101 -166c0 -140 -106 -211 -315 -211h-112zM308 365h58
c129 0 176 42 176 157c0 100 -43 145 -139 145h-40c-45 0 -56 -12 -55 -60v-242z" />
    <glyph glyph-name="Sigma" unicode="&#x3a3;" horiz-adv-x="657" 
d="M259 325l-214 341v56h573l12 -252h-51c-50 153 -110 200 -251 197h-86l166 -279l-225 -255h176c119 -6 191 41 218 143h53l-16 -276h-594v58z" />
    <glyph glyph-name="Tau" unicode="&#x3a4;" horiz-adv-x="722" 
d="M692 722l15 -271h-53c-15 82 -31 124 -59 160c-32 41 -65 59 -108 59c-30 0 -36 -7 -36 -40v-486c0 -61 0 -65 7 -75c9 -11 29 -15 83 -15h22v-54h-404v54h22c54 0 74 4 83 15c7 10 7 13 7 75v486c0 33 -6 40 -36 40c-47 0 -84 -23 -116 -71c-24 -35 -38 -74 -51 -148
h-53l15 271h662z" />
    <glyph glyph-name="Upsilon" unicode="&#x3a5;" horiz-adv-x="722" 
d="M420 396l100 178c8 15 14 34 14 46c0 28 -29 48 -73 48h-21v54h295v-54c-56 -4 -95 -31 -134 -93l-150 -257v-174c0 -62 0 -65 7 -75c9 -11 29 -15 83 -15h22v-54h-404v54h22c54 0 74 4 83 15c7 10 7 13 7 75v161l-204 327c-19 29 -34 36 -79 36v54h360v-54h-16
c-38 0 -56 -7 -56 -22c0 -9 2 -15 12 -31z" />
    <glyph glyph-name="Phi" unicode="&#x3a6;" horiz-adv-x="933" 
d="M380 107v4c-83 0 -114 2 -164 9c-143 20 -216 101 -216 241s73 221 216 241c50 7 81 9 164 9v4v5c0 42 -9 47 -89 48h-15v54h382v-54h-15c-81 -1 -90 -6 -90 -48v-5v-4c83 0 114 -2 164 -9c143 -20 216 -101 216 -241s-73 -221 -216 -241c-50 -7 -82 -9 -164 -9v-4v-5
c0 -42 10 -47 90 -48h15v-54h-382v54h15c79 1 89 6 89 48v5zM380 558h-3h-5c-117 -1 -178 -69 -178 -197c0 -132 60 -195 186 -197v394zM553 558v-394h3h5c117 1 178 69 178 197c0 132 -59 195 -186 197z" />
    <glyph glyph-name="Chi" unicode="&#x3a7;" horiz-adv-x="722" 
d="M431 413l177 -258c62 -90 74 -99 127 -101v-54h-360v54c50 1 66 7 66 24c0 11 -5 23 -13 34l-109 156l-88 -112c-13 -16 -20 -34 -20 -50c0 -35 32 -50 108 -52v-54h-331v54c58 2 86 19 144 90l147 181l-205 292c-28 40 -42 49 -86 51v54h358v-54c-59 -2 -68 -5 -68 -24
c0 -8 3 -16 10 -26l105 -151l70 86c24 29 34 48 34 64c0 33 -33 51 -96 51v54h308v-54c-52 -4 -87 -24 -132 -77z" />
    <glyph glyph-name="Psi" unicode="&#x3a8;" horiz-adv-x="1017" 
d="M595 223v-79c0 -62 0 -65 7 -75c9 -11 29 -15 83 -15h15v-54h-382v54h15c53 0 73 4 82 15c7 10 7 13 7 75v79h-14h-15c-140 0 -230 38 -273 115c-18 36 -25 79 -25 161v79c0 62 0 65 -7 75c-5 9 -24 13 -60 15h-13v54h27c168 1 222 -33 226 -144v-83
c0 -140 39 -191 154 -197v280c0 62 0 65 -7 75c-9 11 -29 15 -82 15h-15v54h382v-54h-15c-54 0 -74 -4 -83 -15c-7 -10 -7 -13 -7 -75v-280c115 6 154 57 154 197v83c4 111 58 145 226 144h27v-54h-13c-36 -2 -55 -6 -60 -15c-7 -10 -7 -13 -7 -75v-79
c0 -94 -9 -140 -35 -178c-49 -66 -132 -97 -263 -98h-15h-14z" />
    <glyph glyph-name="uni03A9" unicode="&#x3a9;" horiz-adv-x="895" 
d="M378 145v-145h-340l-35 256h53c26 -87 75 -128 155 -129h61v16c-126 48 -202 153 -202 281c0 99 48 187 133 246c66 45 147 67 244 67s178 -22 244 -67c86 -59 134 -147 134 -246c0 -128 -77 -233 -203 -281v-16h61c80 1 129 41 155 129h53l-35 -256h-339v145
c12 9 27 24 41 44c44 58 67 143 67 243c0 166 -61 253 -178 253s-177 -87 -177 -253c0 -107 25 -194 74 -254c13 -16 24 -26 34 -33z" />
    <glyph glyph-name="Iotadieresis" unicode="&#x3aa;" horiz-adv-x="444" 
d="M28 0v54h15c53 0 73 4 82 15c7 10 7 13 7 75v434c0 62 0 65 -7 75c-9 11 -29 15 -82 15h-15v54h389v-54h-15c-54 0 -74 -4 -83 -15c-7 -10 -7 -13 -7 -75v-434c0 -62 0 -65 7 -75c9 -11 29 -15 83 -15h15v-54h-389zM116 938c39 0 70 -31 70 -70c0 -40 -31 -71 -71 -71
c-38 0 -70 32 -70 70c0 39 32 71 71 71zM331 938c39 0 70 -31 70 -70c0 -40 -31 -71 -71 -71c-38 0 -70 32 -70 70c0 39 32 71 71 71z" />
    <glyph glyph-name="Upsilondieresis" unicode="&#x3ab;" horiz-adv-x="722" 
d="M420 396l100 178c8 15 14 34 14 46c0 28 -29 48 -73 48h-21v54h295v-54c-56 -4 -95 -31 -134 -93l-150 -257v-174c0 -62 0 -65 7 -75c9 -11 29 -15 83 -15h22v-54h-404v54h22c54 0 74 4 83 15c7 10 7 13 7 75v161l-204 327c-19 29 -34 36 -79 36v54h360v-54h-16
c-38 0 -56 -7 -56 -22c0 -9 2 -15 12 -31zM278 938c39 0 70 -31 70 -70c0 -40 -31 -71 -71 -71c-38 0 -70 32 -70 70c0 39 32 71 71 71zM493 938c39 0 70 -31 70 -70c0 -40 -31 -71 -71 -71c-38 0 -70 32 -70 70c0 39 32 71 71 71z" />
    <glyph glyph-name="alphatonos" unicode="&#x3ac;" horiz-adv-x="639" 
d="M432 404l25 69h154v-51c-53 -1 -69 -16 -94 -85l-24 -60l35 -155c6 -32 19 -52 32 -52c5 0 8 1 17 7c9 5 14 7 20 7c9 0 15 -6 15 -15c0 -43 -52 -84 -108 -84c-49 0 -78 30 -96 101c-37 -72 -83 -101 -164 -101c-127 0 -214 102 -214 251c0 152 93 252 234 252
c78 0 139 -31 168 -84zM370 231l-44 148c-12 43 -25 57 -50 57c-48 0 -73 -68 -73 -198c0 -129 24 -201 68 -201c20 0 34 16 48 52zM308 530l-39 10l14 198c4 49 26 75 62 75c35 0 62 -26 62 -60c0 -13 -4 -26 -13 -45z" />
    <glyph glyph-name="epsilontonos" unicode="&#x3ad;" horiz-adv-x="533" 
d="M451 177l53 -17c-39 -121 -114 -175 -243 -175c-145 0 -234 55 -234 146c0 61 41 98 122 111c-73 15 -109 51 -109 109c0 86 88 137 236 137c137 0 216 -50 216 -136c0 -51 -35 -85 -89 -85c-48 0 -82 30 -82 73c0 19 3 27 20 50c11 14 11 14 11 18c0 16 -23 28 -56 28
c-52 0 -83 -33 -83 -89c0 -48 25 -82 62 -82h40v-60h-38c-48 0 -77 -28 -77 -75c0 -49 35 -77 98 -77c48 0 91 19 116 51c14 19 23 35 37 73zM290 530l-40 10l15 198c3 49 25 75 62 75c34 0 61 -26 61 -60c0 -13 -4 -27 -12 -45z" />
    <glyph glyph-name="etatonos" unicode="&#x3ae;" horiz-adv-x="684" 
d="M124 144v120c-1 102 -17 130 -75 133c-30 1 -36 3 -36 16c0 30 71 66 130 66c71 0 117 -33 132 -93c49 74 98 102 177 102c52 0 97 -17 124 -48c27 -29 38 -67 38 -129v-196c0 -101 -24 -192 -64 -242c-32 -42 -91 -75 -131 -75c-14 0 -22 5 -22 13c0 4 2 6 9 13
c32 27 48 121 51 295v178c0 64 -26 98 -73 98c-36 0 -71 -23 -87 -59c-12 -24 -16 -50 -16 -95v-97v-51c-1 -34 12 -42 69 -42v-51h-305v51h4c43 0 62 4 69 13c4 6 5 12 6 26v8v46zM357 530l-39 10l14 198c4 49 26 75 62 75c35 0 62 -26 62 -60c0 -13 -4 -26 -13 -45z" />
    <glyph glyph-name="iotatonos" unicode="&#x3af;" horiz-adv-x="377" 
d="M263 473v-331c0 -55 9 -70 39 -70c10 0 16 2 29 8c12 7 20 9 28 9c11 0 18 -7 18 -18c0 -42 -73 -86 -140 -86c-51 0 -92 21 -113 57c-14 25 -18 49 -18 102v177c0 89 -3 93 -64 94h-14v51zM202 530l-40 10l15 198c4 49 26 75 62 75c35 0 62 -26 62 -60
c0 -13 -4 -26 -13 -45z" />
    <glyph glyph-name="upsilondieresistonos" unicode="&#x3b0;" horiz-adv-x="572" 
d="M250 473v-282c0 -86 29 -126 92 -126c78 0 135 74 135 174c0 59 -23 95 -72 113s-63 33 -63 65c0 37 29 64 68 64c75 0 128 -83 128 -201c0 -98 -31 -188 -82 -236c-44 -42 -92 -59 -166 -59c-89 0 -149 29 -178 87c-16 32 -19 49 -19 119v127c1 92 -2 96 -64 97h-16v51z
M312 530l-40 10l15 198c4 49 26 75 62 75c35 0 62 -26 62 -60c0 -13 -4 -26 -13 -45zM171 693c39 0 70 -31 70 -70c0 -40 -31 -71 -71 -71c-38 0 -70 32 -70 70c0 39 32 71 71 71zM467 693c39 0 70 -31 70 -70c0 -40 -31 -71 -71 -71c-38 0 -70 32 -70 70c0 39 32 71 71 71z
" />
    <glyph glyph-name="alpha" unicode="&#x3b1;" horiz-adv-x="639" 
d="M432 404l25 69h154v-51c-53 -1 -69 -16 -94 -85l-24 -60l35 -155c6 -32 19 -52 32 -52c5 0 8 1 17 7c9 5 14 7 20 7c9 0 15 -6 15 -15c0 -43 -52 -84 -108 -84c-49 0 -78 30 -96 101c-37 -72 -83 -101 -164 -101c-127 0 -214 102 -214 251c0 152 93 252 234 252
c78 0 139 -31 168 -84zM370 231l-44 148c-12 43 -25 57 -50 57c-48 0 -73 -68 -73 -198c0 -129 24 -201 68 -201c20 0 34 16 48 52z" />
    <glyph glyph-name="beta" unicode="&#x3b2;" horiz-adv-x="650" 
d="M80 -202v708c0 151 88 227 263 227c163 0 258 -65 258 -176c0 -89 -54 -150 -153 -173c103 -11 167 -79 167 -176c0 -127 -100 -223 -232 -223c-62 0 -106 20 -146 65v-252h-157zM285 409h30c39 0 53 3 72 18c27 21 41 64 41 124c0 83 -35 130 -95 130
c-41 0 -74 -26 -88 -68c-5 -17 -8 -49 -8 -91v-233l-1 -62c0 -112 38 -174 106 -174c62 0 100 57 100 153c0 60 -15 103 -45 125c-17 13 -40 18 -78 18h-34v60z" />
    <glyph glyph-name="gamma" unicode="&#x3b3;" horiz-adv-x="582" 
d="M575 473l-136 -285c-18 -38 -48 -112 -56 -140c-5 -17 -8 -37 -8 -58c0 -15 2 -30 7 -64c3 -15 4 -27 4 -37c0 -52 -36 -91 -85 -91c-51 0 -84 33 -84 83c0 18 4 45 18 125c-37 158 -70 255 -114 337c-35 62 -58 81 -95 79h-12v51h113c66 -1 99 -19 126 -66
c33 -58 69 -169 84 -251c17 57 19 62 45 125l83 192h110z" />
    <glyph glyph-name="delta" unicode="&#x3b4;" horiz-adv-x="611" 
d="M335 550l154 -126c58 -47 90 -115 90 -190c0 -143 -117 -249 -275 -249s-273 105 -273 251c0 104 61 190 163 232c-66 45 -92 83 -92 133c0 84 85 132 236 132c134 0 217 -44 217 -115c0 -45 -35 -80 -80 -80c-42 0 -73 27 -73 64c0 13 6 30 14 44c3 4 3 5 3 7
c0 17 -27 28 -68 28c-49 0 -79 -20 -79 -53c0 -23 5 -29 63 -78zM261 424c-37 -25 -57 -91 -57 -187c0 -133 34 -200 101 -200c32 0 58 18 75 51c14 27 26 86 26 127c0 82 -39 139 -145 209z" />
    <glyph glyph-name="epsilon" unicode="&#x3b5;" horiz-adv-x="533" 
d="M432 177l53 -17c-39 -121 -114 -175 -243 -175c-145 0 -234 55 -234 146c0 61 41 98 122 111c-73 15 -109 51 -109 109c0 86 88 137 236 137c137 0 216 -50 216 -136c0 -51 -35 -85 -89 -85c-48 0 -82 30 -82 73c0 19 3 27 20 50c11 14 11 14 11 18c0 16 -23 28 -56 28
c-52 0 -83 -33 -83 -89c0 -48 25 -82 62 -82h40v-60h-38c-48 0 -77 -28 -77 -75c0 -49 35 -77 98 -77c48 0 91 19 116 51c14 19 23 35 37 73z" />
    <glyph glyph-name="zeta" unicode="&#x3b6;" horiz-adv-x="500" 
d="M50 570l20 166c105 -14 250 -24 332 -24c33 0 60 5 84 14c14 6 17 7 23 7c11 0 18 -6 18 -18c0 -13 -4 -19 -17 -28c-86 -58 -139 -107 -199 -183c-71 -90 -107 -182 -107 -274c0 -48 14 -88 38 -111c20 -20 46 -32 102 -48c57 -16 78 -25 95 -42c15 -15 24 -40 24 -66
c0 -92 -103 -165 -232 -165c-85 0 -134 28 -134 76c0 34 25 59 59 59c17 0 31 -6 42 -17c3 -4 3 -4 18 -28c13 -21 31 -31 57 -31c40 0 71 29 71 68c0 21 -11 35 -33 45c-16 6 -16 6 -71 18c-132 29 -209 116 -209 239c0 95 46 187 142 279c38 38 75 68 146 119
c-74 1 -100 3 -132 10c-15 4 -29 6 -36 6c-17 0 -28 -14 -37 -47l-7 -30z" />
    <glyph glyph-name="eta" unicode="&#x3b7;" horiz-adv-x="684" 
d="M124 144v120c-1 102 -17 130 -75 133c-30 1 -36 3 -36 16c0 30 71 66 130 66c71 0 117 -33 132 -93c49 74 98 102 177 102c52 0 97 -17 124 -48c27 -29 38 -67 38 -129v-196c0 -101 -24 -192 -64 -242c-32 -42 -91 -75 -131 -75c-14 0 -22 5 -22 13c0 4 2 6 9 13
c32 27 48 121 51 295v178c0 64 -26 98 -73 98c-36 0 -71 -23 -87 -59c-12 -24 -16 -50 -16 -95v-97v-51c-1 -34 12 -42 69 -42v-51h-305v51h4c43 0 62 4 69 13c4 6 5 12 6 26v8v46z" />
    <glyph glyph-name="theta" unicode="&#x3b8;" horiz-adv-x="611" 
d="M204 389h202c-2 74 -9 145 -20 196c-12 58 -45 96 -83 96c-61 0 -95 -101 -99 -292zM406 329h-202c4 -195 37 -292 99 -292c64 0 99 100 103 292zM308 733c152 0 271 -167 271 -377c0 -214 -116 -371 -275 -371s-273 156 -273 373c0 107 27 196 80 268
c54 72 118 107 197 107z" />
    <glyph glyph-name="iota" unicode="&#x3b9;" horiz-adv-x="377" 
d="M263 473v-331c0 -55 9 -70 39 -70c10 0 16 2 29 8c12 7 20 9 28 9c11 0 18 -7 18 -18c0 -42 -73 -86 -140 -86c-51 0 -92 21 -113 57c-14 25 -18 49 -18 102v177c0 89 -3 93 -64 94h-14v51z" />
    <glyph glyph-name="kappa" unicode="&#x3ba;" horiz-adv-x="672" 
d="M21 415v51l236 7v-227l124 109c18 16 25 27 25 40c0 17 -22 27 -60 27h-12v51h294v-51h-23c-39 0 -69 -13 -108 -47l-77 -64l157 -197c45 -57 53 -63 88 -63v-51h-306v51h10c26 0 39 6 39 20c0 9 -5 21 -13 30l-92 112l-46 -41v-28v-50c-1 -35 12 -43 68 -43v-51h-305v51
h4c44 0 63 4 70 13c4 6 5 12 6 26v7v47v174c1 92 -2 96 -64 97h-15z" />
    <glyph glyph-name="lambda" unicode="&#x3bb;" horiz-adv-x="604" 
d="M101 136l142 338c0 7 0 13 2 20c0 6 3 20 7 44c4 23 7 50 7 68c0 41 -11 67 -28 67c-6 0 -11 -5 -11 -13c0 -2 0 -4 2 -9c3 -10 4 -18 4 -27c0 -41 -29 -70 -72 -70c-45 0 -79 36 -79 82c0 59 46 97 118 97c54 0 98 -23 122 -64c17 -31 18 -33 52 -141
c7 -23 13 -42 18 -56c3 -7 12 -30 25 -64l123 -317c14 -32 25 -40 61 -40v-51h-284v51h18c24 0 35 6 35 21c0 6 0 6 -8 28l-92 287l-97 -253c-5 -12 -9 -34 -9 -44c0 -25 24 -39 67 -39h11v-51h-225v51c41 1 64 23 91 85z" />
    <glyph glyph-name="uni03BC" unicode="&#x3bc;" horiz-adv-x="685" 
d="M176 2v-6c1 -12 4 -24 10 -35l22 -43c7 -13 11 -29 11 -41c0 -45 -31 -79 -72 -79c-44 0 -68 30 -68 83c0 13 2 35 6 58c10 66 13 91 13 117c0 10 -1 25 -2 45c-2 21 -3 40 -3 50v40v127c1 92 -2 96 -64 97h-16v51l237 7v-288c0 -76 21 -107 71 -107c38 0 73 23 89 57
c13 26 17 53 17 103v80c1 92 -2 96 -64 97h-16v51l237 7v-342c-1 -61 3 -66 55 -66h28v-54l-233 -11v82c-58 -71 -106 -97 -176 -97c-31 0 -60 6 -82 17z" />
    <glyph glyph-name="nu" unicode="&#x3bd;" horiz-adv-x="611" 
d="M14 422v51h113c86 -2 120 -30 151 -126l59 -202l128 328h110l-237 -487h-85l-95 271c-50 126 -84 169 -132 165h-12z" />
    <glyph glyph-name="xi" unicode="&#x3be;" horiz-adv-x="513" 
d="M277 -20l-38 9c-77 18 -100 27 -136 50c-48 32 -72 75 -72 129c0 53 22 100 59 130c30 23 58 34 108 41c-69 18 -106 64 -106 131c0 68 53 122 155 157c-28 1 -52 4 -73 8c-15 4 -29 6 -36 6c-17 0 -28 -14 -37 -48l-8 -29l-56 6l19 166c105 -14 250 -24 332 -24
c33 0 61 5 84 14c14 6 17 7 23 7c11 0 18 -6 18 -18c0 -13 -4 -19 -17 -28c-31 -20 -65 -38 -103 -54c-71 -29 -76 -31 -101 -55c-27 -24 -41 -56 -41 -92c0 -71 57 -118 142 -118h38v-60h-38c-118 0 -189 -45 -189 -120c0 -56 31 -85 116 -110l35 -11c51 -14 68 -22 84 -38
c15 -15 24 -41 24 -66c0 -92 -103 -165 -232 -165c-85 0 -134 28 -134 76c0 34 25 59 59 59c17 0 31 -6 42 -17c3 -4 3 -4 18 -28c13 -21 31 -31 57 -31c40 0 71 29 71 68c0 28 -18 43 -67 55z" />
    <glyph glyph-name="omicron" unicode="&#x3bf;" horiz-adv-x="611" 
d="M308 488c152 0 271 -112 271 -254c0 -143 -117 -249 -275 -249s-273 105 -273 250s118 253 277 253zM306 436c-68 0 -102 -67 -102 -200c0 -132 34 -199 101 -199c65 0 101 71 101 198c0 53 -8 109 -20 142c-13 35 -45 59 -80 59z" />
    <glyph glyph-name="pi" unicode="&#x3c0;" horiz-adv-x="697" 
d="M297 373v-29c0 -118 -23 -218 -64 -275c-33 -46 -93 -84 -133 -84c-13 0 -21 5 -21 14c0 5 2 7 9 15c34 30 51 142 52 343v16h-18c-35 1 -70 -18 -94 -50c-15 -20 -22 -26 -31 -26s-17 7 -17 16c0 12 20 62 36 86c36 60 72 74 187 74h319c84 0 117 7 150 31
c8 5 13 8 16 8c8 0 17 -8 17 -17c0 -6 -2 -11 -12 -29l-51 -93h-96v-231c0 -55 8 -70 39 -70c10 0 16 2 29 8c12 7 20 9 28 9c11 0 18 -7 18 -18c0 -42 -73 -86 -140 -86c-51 0 -92 21 -113 57c-14 25 -18 50 -18 102v229h-92z" />
    <glyph glyph-name="rho" unicode="&#x3c1;" horiz-adv-x="610" 
d="M197 50v-252h-157v418c0 168 107 272 281 272c156 0 254 -93 254 -240c0 -150 -102 -263 -236 -263c-57 0 -102 21 -142 65zM309 436c-73 0 -113 -70 -113 -196c0 -120 38 -187 105 -187c64 0 101 70 101 190c0 126 -32 193 -93 193z" />
    <glyph glyph-name="uni03C2" unicode="&#x3c2;" horiz-adv-x="529" 
d="M316 488c121 0 199 -53 199 -136c0 -51 -35 -85 -89 -85c-48 0 -82 30 -82 73c0 19 3 27 20 50c11 14 11 14 11 18c0 16 -23 28 -52 28c-77 0 -119 -69 -119 -194c0 -105 28 -139 140 -171c57 -16 78 -25 95 -42c15 -15 24 -40 24 -66c0 -92 -103 -165 -232 -165
c-85 0 -134 28 -134 76c0 34 25 59 59 59c17 0 31 -6 42 -17c3 -4 3 -4 18 -28c13 -21 32 -31 57 -31c39 0 71 30 71 66c0 23 -10 37 -33 47c-16 6 -16 6 -71 18c-133 29 -209 116 -209 241c0 151 119 259 285 259z" />
    <glyph glyph-name="sigma" unicode="&#x3c3;" horiz-adv-x="651" 
d="M535 392h-17c41 -46 61 -98 61 -159c0 -142 -117 -248 -275 -248s-273 105 -273 251c0 145 118 252 279 252c35 0 43 -1 107 -14c42 -9 76 -12 116 -12c35 0 54 2 99 11c9 -13 13 -20 13 -27c0 -10 -10 -26 -22 -34c-22 -15 -46 -20 -88 -20zM325 421
c-36 0 -71 -20 -91 -53c-21 -33 -30 -76 -30 -135c0 -129 35 -196 101 -196c65 0 101 71 101 200c0 67 -10 130 -25 154c-12 20 -31 30 -56 30z" />
    <glyph glyph-name="tau" unicode="&#x3c4;" horiz-adv-x="575" 
d="M347 373v-231c0 -55 8 -70 39 -70c10 0 16 2 29 8c12 6 20 9 28 9c11 0 18 -7 18 -18c0 -42 -73 -86 -140 -86c-51 0 -92 21 -113 57c-14 25 -18 49 -18 102v229h-68c-35 1 -71 -18 -94 -50c-15 -21 -22 -26 -31 -26s-17 8 -17 16c0 17 27 77 46 102c32 42 73 58 149 58
h27h184c83 0 117 7 149 31c8 5 13 8 16 8c9 0 17 -9 17 -17c0 -6 -4 -15 -11 -29l-51 -93h-159z" />
    <glyph glyph-name="upsilon" unicode="&#x3c5;" horiz-adv-x="572" 
d="M250 473v-282c0 -86 29 -126 92 -126c78 0 135 74 135 174c0 59 -23 95 -72 113s-63 33 -63 65c0 37 29 64 68 64c75 0 128 -83 128 -201c0 -98 -31 -188 -82 -236c-44 -42 -92 -59 -166 -59c-89 0 -149 29 -178 87c-16 32 -19 49 -19 119v127c1 92 -2 96 -64 97h-16v51z
" />
    <glyph glyph-name="phi" unicode="&#x3c6;" horiz-adv-x="770" 
d="M310 -58v44c-74 4 -123 16 -161 38c-75 44 -119 122 -119 211c0 73 28 132 84 180c36 30 75 49 103 49c10 0 18 -7 18 -16c0 -10 -5 -28 -13 -48c-16 -39 -26 -102 -26 -163c0 -90 15 -144 48 -171c18 -14 40 -23 66 -27v280c0 110 53 169 153 169
c159 0 277 -108 277 -252c0 -98 -52 -182 -137 -221c-33 -16 -81 -26 -143 -29v-44v-51c0 -36 9 -41 76 -43h11v-50h-316v50h4c43 1 63 5 69 14c4 6 5 12 6 25v27v28zM460 338v-299c31 4 57 17 75 36c26 25 39 82 39 164c0 74 -11 138 -29 165c-13 20 -30 32 -46 32
c-28 0 -39 -26 -39 -98z" />
    <glyph glyph-name="chi" unicode="&#x3c7;" horiz-adv-x="591" 
d="M357 186l138 -254c42 -72 54 -82 90 -84v-50h-308v50h7c27 0 40 11 40 33c0 11 -1 14 -11 34l-59 121l-60 -104c-13 -23 -14 -27 -14 -41c0 -27 17 -43 47 -43h13v-50h-227v50c30 2 55 20 89 67l121 185l-143 267c-24 42 -39 54 -67 55v51h289v-51h-11
c-21 0 -33 -8 -33 -23c0 -8 0 -8 11 -29l57 -121l51 92c21 32 21 32 21 48c0 22 -13 33 -37 33h-26v51h240v-51c-42 1 -74 -20 -115 -74z" />
    <glyph glyph-name="psi" unicode="&#x3c8;" horiz-adv-x="740" 
d="M498 473v-401c86 19 145 94 145 184c0 52 -16 85 -50 101c-35 18 -45 31 -45 62c0 37 24 62 60 62c58 0 94 -67 94 -173c0 -155 -76 -270 -204 -310v-56v-50c0 -37 9 -42 76 -44h11v-50h-316v50h4c43 1 63 5 69 14c4 6 5 12 6 26v8v46v46c-174 12 -257 90 -255 242v88
c1 92 -2 96 -64 97h-16v51l237 7v-241c1 -93 32 -142 98 -159v400h150z" />
    <glyph glyph-name="omega" unicode="&#x3c9;" horiz-adv-x="740" 
d="M370 55c-27 -49 -69 -70 -135 -70c-125 0 -205 87 -205 224c0 126 53 219 151 262c23 10 46 17 57 17c12 0 24 -11 24 -23c0 -5 0 -5 -20 -40c-22 -39 -38 -123 -38 -203c0 -98 28 -159 72 -159c26 0 45 27 45 63c0 10 -2 17 -9 34c-11 26 -15 44 -15 64
c0 51 27 82 73 82s73 -31 73 -82c0 -20 -4 -38 -14 -64c-7 -17 -9 -24 -9 -34c0 -36 19 -63 45 -63c43 0 71 61 71 159c0 57 -8 115 -22 165c-6 21 -6 21 -31 64c-3 6 -5 11 -5 14c0 12 12 23 24 23c13 0 41 -9 66 -21c92 -45 142 -136 142 -258c0 -137 -80 -224 -205 -224
c-66 0 -108 21 -135 70z" />
    <glyph glyph-name="iotadieresis" unicode="&#x3ca;" horiz-adv-x="377" 
d="M263 473v-331c0 -55 8 -70 39 -70c10 0 16 2 29 8c12 6 20 9 28 9c11 0 18 -7 18 -18c0 -42 -73 -86 -140 -86c-51 0 -92 21 -113 57c-14 25 -18 49 -18 102v177c0 89 -3 93 -64 94h-14v51zM80 693c39 0 70 -31 70 -70c0 -40 -31 -71 -71 -71c-38 0 -70 32 -70 70
c0 39 32 71 71 71zM295 693c39 0 70 -31 70 -70c0 -40 -31 -71 -71 -71c-38 0 -70 32 -70 70c0 39 32 71 71 71z" />
    <glyph glyph-name="upsilondieresis" unicode="&#x3cb;" horiz-adv-x="572" 
d="M250 473v-282c0 -86 29 -126 92 -126c78 0 135 74 135 174c0 59 -23 95 -72 113s-63 33 -63 65c0 37 29 64 68 64c75 0 128 -83 128 -201c0 -98 -31 -188 -82 -236c-44 -42 -92 -59 -166 -59c-89 0 -149 29 -178 87c-16 32 -19 49 -19 119v127c1 92 -2 96 -64 97h-16v51z
M197 693c39 0 70 -31 70 -70c0 -40 -31 -71 -71 -71c-38 0 -70 32 -70 70c0 39 32 71 71 71zM412 693c39 0 70 -31 70 -70c0 -40 -31 -71 -71 -71c-38 0 -70 32 -70 70c0 39 32 71 71 71z" />
    <glyph glyph-name="omicrontonos" unicode="&#x3cc;" horiz-adv-x="611" 
d="M308 488c152 0 271 -112 271 -254c0 -143 -117 -249 -275 -249s-273 105 -273 250s118 253 277 253zM306 436c-68 0 -102 -67 -102 -200c0 -132 34 -199 101 -199c65 0 101 71 101 198c0 53 -8 109 -20 142c-13 35 -45 59 -80 59zM319 530l-40 10l15 198
c4 49 26 75 62 75c35 0 62 -26 62 -60c0 -13 -4 -26 -13 -45z" />
    <glyph glyph-name="upsilontonos" unicode="&#x3cd;" horiz-adv-x="572" 
d="M250 473v-282c0 -86 29 -126 92 -126c78 0 135 74 135 174c0 59 -23 95 -72 113s-63 33 -63 65c0 37 29 64 68 64c75 0 128 -83 128 -201c0 -98 -31 -188 -82 -236c-44 -42 -92 -59 -166 -59c-89 0 -149 29 -178 87c-16 32 -19 49 -19 119v127c1 92 -2 96 -64 97h-16v51z
M332 530l-39 10l14 198c4 48 26 75 62 75c35 0 62 -26 62 -60c0 -13 -4 -27 -12 -45z" />
    <glyph glyph-name="omegatonos" unicode="&#x3ce;" horiz-adv-x="740" 
d="M370 55c-27 -49 -69 -70 -135 -70c-125 0 -205 87 -205 224c0 126 53 219 151 262c23 10 46 17 57 17c12 0 24 -11 24 -23c0 -5 0 -5 -20 -40c-22 -39 -38 -123 -38 -203c0 -98 28 -159 72 -159c26 0 45 27 45 63c0 10 -2 17 -9 34c-11 26 -15 44 -15 64
c0 51 27 82 73 82s73 -31 73 -82c0 -20 -4 -38 -14 -64c-7 -17 -9 -24 -9 -34c0 -36 19 -63 45 -63c43 0 71 61 71 159c0 57 -8 115 -22 165c-6 21 -6 21 -31 64c-3 6 -5 11 -5 14c0 12 12 23 24 23c13 0 41 -9 66 -21c92 -45 142 -136 142 -258c0 -137 -80 -224 -205 -224
c-66 0 -108 21 -135 70zM374 530l-39 10l14 198c4 49 26 75 63 75c34 0 61 -26 61 -60c0 -13 -4 -27 -13 -45z" />
    <glyph glyph-name="theta1" unicode="&#x3d1;" horiz-adv-x="644" 
d="M579 389h58v-60h-58c-8 -93 -23 -147 -53 -200c-53 -92 -147 -144 -261 -144c-71 0 -128 22 -173 68c-36 37 -61 91 -61 133c0 39 21 72 62 100c32 22 66 33 97 33c16 0 29 -6 29 -14c0 -3 -1 -7 -2 -11c-8 -23 -13 -59 -13 -95c0 -100 31 -162 81 -162c37 0 73 32 92 81
c18 49 26 106 29 211c-109 6 -146 12 -208 34c-102 37 -160 105 -160 186c0 107 99 184 239 184c117 0 206 -48 254 -137c32 -60 44 -113 48 -207zM406 389c0 192 -39 292 -112 292c-51 0 -83 -46 -83 -119c0 -111 61 -166 195 -173z" />
    <glyph glyph-name="phi1" unicode="&#x3d5;" horiz-adv-x="770" 
d="M310 -58v43c-74 5 -123 17 -161 39c-75 44 -119 122 -119 212c0 93 47 172 130 216c37 20 86 32 150 35v91c1 88 -3 93 -64 93h-19v51l233 15v-250c75 -4 126 -18 168 -45c73 -48 112 -120 112 -206c0 -98 -52 -181 -137 -221c-33 -16 -81 -26 -143 -30v-43v-50
c0 -37 8 -42 76 -44h11v-50h-316v50h4c43 1 63 5 69 14c4 6 5 12 6 26v7v47zM310 39v395c-81 -12 -114 -68 -114 -197c0 -90 15 -144 48 -171c18 -14 40 -23 66 -27zM460 434v-395c31 4 57 17 75 36c25 25 39 82 39 162c0 129 -33 185 -114 197z" />
    <glyph glyph-name="omega1" unicode="&#x3d6;" horiz-adv-x="611" 
d="M200 432l29 -30c-39 -43 -43 -48 -56 -66c-26 -34 -38 -73 -38 -119c0 -77 36 -123 96 -123c25 0 40 6 65 24c-1 7 -3 12 -3 14l-9 39c-3 15 -5 30 -5 45c0 45 27 82 60 82c29 0 49 -26 49 -62c0 -31 -4 -42 -39 -118c29 -17 45 -22 67 -22c58 0 106 50 106 109
c0 34 0 34 -59 117c-22 30 -26 40 -26 56c0 30 20 54 45 54c55 0 91 -66 91 -166c0 -147 -75 -278 -159 -278c-36 0 -55 16 -95 81c-48 -63 -78 -82 -127 -82c-80 0 -142 80 -142 183c0 95 48 179 150 262zM197 590h306v-82h-306v82z" />
    <glyph glyph-name="uni0400" unicode="&#x400;" horiz-adv-x="759" 
d="M687 722l6 -260h-52c-42 149 -102 203 -227 206h-28c-74 -1 -88 -16 -86 -86v-181h17c79 0 127 50 138 142h54v-339h-54c-11 92 -59 142 -138 142h-17v-221c-1 -59 17 -73 90 -71h30c121 1 196 70 234 215h53l-12 -269h-679v54h15c53 0 73 4 82 15c7 10 7 13 7 75v434
c0 62 0 65 -7 75c-9 11 -29 15 -82 15h-15v54h671zM436 790h-64l-147 87c-24 14 -36 31 -36 52c0 28 25 50 57 50c17 0 33 -6 48 -18c6 -4 6 -4 29 -33z" />
    <glyph glyph-name="afii10023" unicode="&#x401;" horiz-adv-x="759" 
d="M687 722l6 -260h-52c-42 149 -102 203 -227 206h-28c-74 -1 -88 -16 -86 -86v-181h17c79 0 127 50 138 142h54v-339h-54c-11 92 -59 142 -138 142h-17v-221c-1 -59 17 -73 90 -71h30c121 1 196 70 234 215h53l-12 -269h-679v54h15c53 0 73 4 82 15c7 10 7 13 7 75v434
c0 62 0 65 -7 75c-9 11 -29 15 -82 15h-15v54h671zM280 938c39 0 70 -31 70 -70c0 -40 -31 -71 -71 -71c-38 0 -70 32 -70 70c0 39 32 71 71 71zM495 938c39 0 70 -31 70 -70c0 -40 -31 -71 -71 -71c-38 0 -70 32 -70 70c0 39 32 71 71 71z" />
    <glyph glyph-name="afii10051" unicode="&#x402;" horiz-adv-x="899" 
d="M451 342v-342h-292v54h22c54 0 74 4 83 14c7 11 7 14 7 76v485c0 35 -6 41 -36 41c-47 0 -84 -21 -116 -66c-24 -34 -37 -71 -51 -140h-53l15 258h662l15 -258h-52c-16 78 -32 117 -60 151c-32 38 -65 55 -108 55c-30 0 -36 -6 -36 -41v-233l3 1l9 3c65 18 122 26 180 26
c82 0 142 -18 189 -58c42 -35 60 -79 60 -148c0 -71 -21 -129 -61 -172c-41 -43 -94 -63 -169 -63c-87 0 -139 38 -139 103c0 40 29 69 71 69c36 0 60 -23 60 -57c0 -13 -4 -23 -10 -31c-7 -8 -8 -9 -8 -15c0 -14 12 -23 28 -23c20 0 31 11 38 40c6 25 11 79 11 116
c0 131 -37 179 -136 179c-40 0 -72 -6 -126 -24z" />
    <glyph glyph-name="afii10052" unicode="&#x403;" horiz-adv-x="722" 
d="M701 453h-53c-41 148 -112 213 -234 215h-21c-73 2 -91 -12 -90 -71v-453c0 -62 0 -65 7 -75c10 -11 29 -15 83 -15h22v-54h-396v54h15c54 0 73 4 82 15c7 10 7 13 7 75v433c0 62 0 66 -7 76c-9 11 -29 15 -82 15h-15v54h670zM305 790l113 138c35 43 48 51 77 51
c32 0 57 -22 57 -50c0 -21 -12 -38 -36 -52l-147 -87h-64z" />
    <glyph glyph-name="afii10053" unicode="&#x404;" horiz-adv-x="778" 
d="M239 389h240v-60h-239c3 -65 12 -119 26 -159c30 -81 89 -123 173 -123c115 0 196 79 223 218l61 -15c-38 -180 -140 -265 -316 -265c-119 0 -203 34 -272 110c-65 71 -95 153 -95 257c0 109 33 198 101 270c72 77 165 115 277 115c72 0 117 -13 184 -53l53 49h44l9 -286
l-53 -6c-45 167 -118 244 -229 244c-119 0 -183 -100 -187 -296z" />
    <glyph glyph-name="afii10054" unicode="&#x405;" horiz-adv-x="667" 
d="M588 729l13 -259h-53c-59 142 -142 215 -246 215c-79 0 -135 -43 -135 -104c0 -42 22 -71 68 -87c25 -9 25 -9 102 -24l48 -11c173 -38 248 -109 248 -236c0 -141 -108 -238 -264 -238c-81 0 -144 21 -205 67l-62 -59h-45l-6 283h51c55 -150 154 -239 267 -239
c87 0 144 46 144 117c0 36 -16 65 -44 80c-24 13 -43 18 -108 30l-62 12c-157 29 -247 116 -247 238c0 133 105 223 260 223c69 0 121 -16 179 -54l52 46h45z" />
    <glyph glyph-name="afii10055" unicode="&#x406;" horiz-adv-x="444" 
d="M28 0v54h15c53 0 73 4 82 15c7 10 7 13 7 75v434c0 62 0 65 -7 75c-9 11 -29 15 -82 15h-15v54h389v-54h-15c-54 0 -74 -4 -83 -15c-7 -10 -7 -13 -7 -75v-434c0 -62 0 -65 7 -75c9 -11 29 -15 83 -15h15v-54h-389z" />
    <glyph glyph-name="afii10056" unicode="&#x407;" horiz-adv-x="444" 
d="M28 0v54h15c53 0 73 4 82 15c7 10 7 13 7 75v434c0 62 0 65 -7 75c-9 11 -29 15 -82 15h-15v54h389v-54h-15c-54 0 -74 -4 -83 -15c-7 -10 -7 -13 -7 -75v-434c0 -62 0 -65 7 -75c9 -11 29 -15 83 -15h15v-54h-389zM116 938c39 0 70 -31 70 -70c0 -40 -31 -71 -71 -71
c-38 0 -70 32 -70 70c0 39 32 71 71 71zM331 938c39 0 70 -31 70 -70c0 -40 -31 -71 -71 -71c-38 0 -70 32 -70 70c0 39 32 71 71 71z" />
    <glyph glyph-name="afii10057" unicode="&#x408;" horiz-adv-x="648" 
d="M250 668v54h389v-54h-15c-54 0 -74 -4 -83 -15c-7 -10 -7 -13 -7 -75v-298c0 -119 -25 -184 -88 -234c-51 -41 -118 -61 -201 -61c-149 0 -241 75 -241 197c0 87 51 148 124 148c60 0 103 -43 103 -102c0 -54 -39 -94 -92 -94c-9 0 -15 1 -24 3c-5 1 -9 2 -12 2
c-11 0 -19 -8 -19 -19c0 -39 56 -74 118 -74c53 0 100 23 125 59c20 30 27 68 27 140v333c0 62 0 65 -7 75c-9 11 -29 15 -82 15h-15z" />
    <glyph glyph-name="afii10058" unicode="&#x409;" horiz-adv-x="1129" 
d="M153 722h660v-54h-15c-54 -1 -74 -4 -83 -15c-7 -10 -7 -13 -7 -76v-165h99c90 0 151 -9 202 -30c71 -30 113 -95 113 -178c0 -76 -37 -138 -101 -169c-54 -25 -113 -35 -214 -35h-383v55h15c53 0 73 4 82 14c7 11 7 13 7 76v426c0 63 0 66 -7 76c-9 11 -29 15 -82 15
h-25c-53 0 -73 -4 -82 -15c-7 -9 -7 -14 -7 -76v-167c0 -157 -7 -228 -28 -290c-27 -79 -88 -126 -164 -126c-80 0 -133 50 -133 124c0 58 39 99 92 99c48 0 85 -32 85 -73c0 -24 -13 -45 -35 -56c-20 -11 -22 -12 -22 -18c0 -9 12 -16 27 -16c40 0 75 36 90 94
c15 59 21 136 21 262v173c0 63 0 66 -7 76c-9 11 -29 14 -83 15h-15v54zM708 357v-242c-1 -48 10 -60 55 -60h26c97 0 140 45 140 144c0 116 -47 158 -176 158h-45z" />
    <glyph glyph-name="afii10059" unicode="&#x40a;" horiz-adv-x="1152" 
d="M552 346h-248v-202c0 -62 0 -65 7 -75c9 -11 29 -15 83 -15h15v-54h-389v54h15c53 0 73 4 82 15c7 10 7 13 7 75v433c0 62 0 66 -7 76c-9 11 -29 14 -82 15h-15v54h389v-54h-15c-54 -1 -74 -4 -83 -15c-7 -10 -7 -13 -7 -76v-171h248v172c0 62 0 65 -7 76
c-9 10 -28 14 -82 14h-15v54h396v-54h-22c-54 0 -74 -4 -83 -14c-7 -11 -7 -14 -7 -76v-172h99c91 0 150 -9 202 -30c71 -29 113 -93 113 -175c0 -75 -37 -136 -101 -166c-54 -25 -113 -35 -214 -35h-383v55h15c53 0 73 4 82 14c7 11 7 14 7 76v201zM732 348v-235
c-1 -46 10 -58 55 -58h26c96 0 140 44 140 140c0 112 -47 153 -176 153h-45z" />
    <glyph glyph-name="afii10060" unicode="&#x40b;" horiz-adv-x="996" 
d="M451 629v-233c71 21 131 30 193 30c104 0 181 -31 220 -87c20 -30 28 -64 28 -115v-79c0 -62 0 -66 7 -76c9 -11 29 -14 82 -15h15v-54h-389v54h15c53 1 74 4 83 15c7 10 7 14 7 76v86c0 93 -42 135 -134 135c-41 0 -82 -8 -127 -24v-198c0 -61 0 -66 7 -76
c9 -10 29 -14 83 -14h22v-54h-404v54h22c54 0 74 4 83 14c7 11 7 14 7 76v485c0 35 -6 41 -36 41c-47 0 -84 -21 -116 -66c-24 -33 -37 -71 -51 -140h-53l15 258h662l15 -258h-53c-15 77 -31 116 -59 151c-32 38 -65 55 -108 55c-30 0 -36 -6 -36 -41z" />
    <glyph glyph-name="afii10061" unicode="&#x40c;" horiz-adv-x="771" 
d="M384 790l113 138c35 43 47 51 77 51c32 0 57 -22 57 -50c0 -21 -12 -37 -36 -52l-147 -87h-64zM299 399h34c81 0 115 40 130 155c9 61 18 92 36 121c25 41 63 62 114 62c70 0 120 -46 120 -111c0 -54 -33 -91 -82 -91c-40 0 -70 28 -70 64c0 15 5 27 14 38
c10 11 11 14 11 26c0 7 -5 11 -16 11c-19 0 -34 -12 -45 -36c-11 -23 -11 -27 -25 -125c-11 -76 -45 -122 -104 -138c127 -13 183 -70 209 -212c11 -50 24 -70 45 -70c28 0 49 40 51 101h50c-8 -76 -16 -108 -40 -146c-26 -41 -66 -63 -115 -63c-51 0 -91 27 -112 76
c-14 33 -23 70 -37 144c-16 93 -56 131 -139 134h-29v-195c0 -62 0 -65 7 -75c9 -11 29 -15 83 -15h15v-54h-389v54h15c53 0 73 4 82 15c7 10 7 13 7 75v434c0 62 0 65 -7 75c-9 11 -29 15 -82 15h-15v54h389v-54h-15c-54 0 -74 -4 -83 -15c-7 -10 -7 -13 -7 -75v-179z" />
    <glyph glyph-name="uni040D" unicode="&#x40d;" horiz-adv-x="870" 
d="M512 790h-64l-147 87c-24 14 -36 31 -36 52c0 28 25 50 57 50c17 0 33 -6 48 -18c5 -4 5 -4 29 -33zM565 495l-261 -372v-11v-10c0 -42 10 -47 90 -48h15v-54h-389v54h15c53 0 73 4 82 15c7 10 7 13 7 75v433c0 62 0 66 -7 76c-9 11 -29 14 -82 15h-15v54h389v-54h-15
c-54 -1 -74 -4 -83 -15c-7 -10 -7 -14 -7 -76v-350l261 372c1 65 -2 68 -89 69h-15v54h389v-54h-15c-53 -1 -74 -4 -83 -15c-7 -10 -7 -14 -7 -76v-433c0 -61 0 -66 7 -75c9 -11 29 -15 83 -15h15v-54h-389v54h15c53 0 73 4 82 15c7 9 7 13 7 75v351z" />
    <glyph glyph-name="afii10062" unicode="&#x40e;" horiz-adv-x="740" 
d="M343 145l-264 487c-17 28 -35 36 -79 36v54h360v-54h-16c-37 0 -56 -7 -56 -21c0 -7 4 -19 12 -35l138 -280l103 239c6 14 11 36 11 48c0 30 -29 49 -73 49h-21v54h289v-54c-57 -3 -106 -38 -134 -98l-207 -435c-53 -110 -102 -150 -186 -150c-94 0 -163 67 -163 157
c0 61 42 104 101 104c49 0 85 -34 85 -79c0 -38 -19 -64 -52 -72c-21 -5 -28 -10 -28 -20c0 -20 30 -37 63 -37c49 0 85 33 117 107zM295 954c36 0 60 -20 60 -51c0 -15 -7 -27 -20 -37c-8 -5 -10 -8 -10 -12c0 -14 36 -25 78 -25c41 0 77 11 77 25c0 4 -2 7 -10 12
c-13 10 -20 22 -20 37c0 31 24 51 60 51s61 -25 61 -62c0 -63 -64 -102 -166 -102c-107 0 -171 38 -171 102c0 37 25 62 61 62z" />
    <glyph glyph-name="afii10145" unicode="&#x40f;" horiz-adv-x="870" 
d="M461 668v54h389v-54h-15c-54 0 -74 -4 -83 -15c-7 -10 -7 -14 -7 -75v-433c0 -62 0 -66 7 -76c9 -11 30 -14 83 -15h15v-54h-205c-66 -7 -76 -11 -114 -41c-46 -41 -68 -96 -69 -169h-54c-1 76 -26 135 -76 174c-36 26 -44 29 -107 36h-205v54h15c54 1 74 4 83 15
c7 10 7 14 7 76v433c0 62 0 65 -7 75c-9 11 -29 15 -83 15h-15v54h389v-54h-15c-54 0 -73 -4 -82 -15c-7 -10 -7 -13 -7 -75v-427c0 -63 0 -66 7 -76c9 -11 29 -15 82 -15h82c53 0 73 4 82 15c7 10 7 13 7 76v427c0 62 0 65 -7 75c-9 11 -28 15 -82 15h-15z" />
    <glyph glyph-name="afii10017" unicode="&#x410;" horiz-adv-x="759" 
d="M351 737h76l257 -620c21 -51 37 -61 94 -63v-54h-351v54l17 1c44 0 58 6 58 24c0 8 -1 13 -12 41l-38 98h-249l-16 -38c-11 -24 -15 -40 -15 -57c0 -46 28 -65 99 -69v-54h-289v54c59 6 96 45 142 153zM330 524l-101 -239h198z" />
    <glyph glyph-name="afii10018" unicode="&#x411;" horiz-adv-x="748" 
d="M308 412h112c90 0 151 -9 202 -30c71 -30 113 -95 113 -178c0 -76 -37 -138 -101 -169c-54 -25 -113 -35 -213 -35h-397v55h15c53 0 73 4 82 14c7 11 7 14 7 76v432c0 62 0 66 -7 76c-9 11 -29 15 -82 15h-15v54h643l12 -269h-52c-36 147 -100 213 -208 215h-21
c-73 2 -91 -12 -90 -71v-185zM308 357v-242c-1 -48 10 -60 55 -60h40c96 0 139 45 139 145c0 115 -47 157 -176 157h-58z" />
    <glyph glyph-name="afii10019" unicode="&#x412;" horiz-adv-x="778" 
d="M17 722h386c118 0 166 -9 221 -40c49 -27 79 -80 79 -137c0 -60 -32 -108 -92 -137c-28 -13 -56 -20 -105 -28c53 -7 82 -15 116 -31c74 -34 114 -89 114 -159c0 -68 -42 -131 -105 -159c-52 -23 -105 -31 -209 -31h-405v54h15c53 0 73 4 82 15c7 10 7 13 7 75v434
c0 62 0 65 -7 76c-9 10 -28 14 -82 14h-15v54zM301 398h49c62 0 96 8 123 30c32 25 49 64 49 113c0 83 -47 127 -135 127h-30c-44 -2 -58 -16 -56 -58v-212zM301 343v-225c-2 -56 4 -62 61 -64h30c48 0 81 10 106 30c29 24 47 68 47 116c0 52 -21 96 -55 119
c-28 18 -57 24 -120 24h-69z" />
    <glyph glyph-name="afii10020" unicode="&#x413;" horiz-adv-x="722" 
d="M701 453h-53c-41 148 -112 213 -234 215h-21c-73 2 -91 -12 -90 -71v-453c0 -62 0 -65 7 -75c10 -11 29 -15 83 -15h22v-54h-396v54h15c54 0 73 4 82 15c7 10 7 13 7 75v433c0 62 0 66 -7 76c-9 11 -29 15 -82 15h-15v54h670z" />
    <glyph glyph-name="afii10021" unicode="&#x414;" horiz-adv-x="786" 
d="M92 668v54h674v-54h-15c-54 -1 -74 -4 -83 -15c-7 -10 -7 -13 -7 -76v-432c0 -62 0 -66 7 -76c9 -11 29 -14 83 -15h15v-264h-53c-1 123 -76 210 -183 210h-294c-107 0 -182 -86 -183 -210h-53v264c120 5 198 187 197 456v67c0 64 0 66 -7 76c-9 11 -29 14 -83 15h-15z
M138 60h254c53 0 72 4 82 15c7 9 7 13 7 76v420c0 62 0 67 -7 76c-9 11 -29 15 -82 15h-39c-53 0 -73 -4 -82 -15c-7 -9 -7 -14 -7 -76v-64c-4 -212 -49 -372 -126 -447z" />
    <glyph glyph-name="afii10022" unicode="&#x415;" horiz-adv-x="759" 
d="M687 722l6 -260h-52c-42 149 -102 203 -227 206h-28c-74 -1 -88 -16 -86 -86v-181h17c79 0 127 50 138 142h54v-339h-54c-11 92 -59 142 -138 142h-17v-221c-1 -59 17 -73 90 -71h30c121 1 196 70 234 215h53l-12 -269h-679v54h15c53 0 73 4 82 15c7 10 7 13 7 75v434
c0 62 0 65 -7 75c-9 11 -29 15 -82 15h-15v54h671z" />
    <glyph glyph-name="afii10024" unicode="&#x416;" horiz-adv-x="1118" 
d="M750 722v-54h-15c-54 0 -74 -4 -83 -15c-7 -10 -7 -13 -7 -75v-179h34c82 0 115 40 131 155c10 62 18 92 36 121c25 41 63 62 114 62c70 0 120 -47 120 -110c0 -55 -33 -92 -82 -92c-40 0 -70 28 -70 64c0 15 4 27 13 38c10 11 10 13 11 26c0 7 -5 11 -15 11
c-20 0 -35 -12 -46 -36c-10 -22 -11 -27 -25 -125c-10 -77 -44 -122 -103 -138c127 -13 182 -69 209 -212c12 -50 24 -70 45 -70c28 0 48 39 51 101h50c-8 -77 -17 -108 -40 -146c-26 -41 -66 -63 -115 -63c-51 0 -91 27 -112 76c-14 33 -23 69 -37 144
c-16 93 -55 131 -140 134h-29v-195c0 -62 0 -65 7 -75c9 -11 29 -15 83 -15h15v-54h-382v54h15c53 0 73 4 82 15c7 10 7 14 7 75v195h-29c-90 -4 -125 -42 -143 -154c-28 -151 -64 -200 -145 -200c-49 0 -89 22 -115 63c-24 38 -33 70 -40 146h50c3 -62 23 -101 51 -101
c13 0 24 9 32 28c6 13 7 15 23 85c26 107 86 158 199 169c-75 24 -98 66 -113 202c-9 64 -30 97 -61 97c-11 0 -16 -4 -16 -11c0 -12 1 -15 11 -26c9 -11 14 -24 14 -38c0 -36 -30 -64 -70 -64c-49 0 -82 37 -82 91c0 65 50 111 120 111c54 0 93 -23 118 -69
c15 -28 23 -57 32 -114c15 -115 49 -155 130 -155h34v179c0 61 0 65 -7 75c-8 11 -29 15 -82 15h-15v54h382z" />
    <glyph glyph-name="afii10025" unicode="&#x417;" horiz-adv-x="750" 
d="M123 733l53 -49c65 39 119 53 211 53c199 0 309 -71 309 -199c0 -75 -38 -131 -109 -162c-9 -4 -27 -10 -54 -17c109 -21 163 -76 163 -165c0 -134 -111 -210 -306 -210c-115 0 -195 22 -254 70c-49 40 -75 88 -75 138c0 59 39 100 95 100c57 0 95 -36 95 -88
c0 -35 -16 -56 -56 -74c-16 -7 -21 -11 -21 -17c0 -30 82 -66 149 -66c104 0 174 58 174 143c0 87 -59 139 -158 139h-40v60h38c102 0 160 57 160 157c0 89 -51 139 -141 139c-115 0 -187 -75 -233 -244l-53 6l9 286h44z" />
    <glyph glyph-name="afii10026" unicode="&#x418;" horiz-adv-x="870" 
d="M565 495l-261 -372v-11v-10c0 -42 10 -47 90 -48h15v-54h-389v54h15c53 0 73 4 82 15c7 10 7 13 7 75v433c0 62 0 66 -7 76c-9 11 -29 14 -82 15h-15v54h389v-54h-15c-54 -1 -74 -4 -83 -15c-7 -10 -7 -14 -7 -76v-350l261 372c1 65 -2 68 -89 69h-15v54h389v-54h-15
c-53 -1 -74 -4 -83 -15c-7 -10 -7 -14 -7 -76v-433c0 -61 0 -66 7 -75c9 -11 29 -15 83 -15h15v-54h-389v54h15c53 0 73 4 82 15c7 9 7 13 7 75v351z" />
    <glyph glyph-name="afii10027" unicode="&#x419;" horiz-adv-x="870" 
d="M333 954c36 0 60 -20 60 -51c0 -15 -7 -27 -20 -37c-8 -5 -10 -8 -10 -12c0 -14 36 -25 77 -25c42 0 78 11 78 25c0 4 -2 7 -10 12c-13 10 -20 23 -20 37c0 31 24 51 60 51s61 -26 61 -62c0 -63 -64 -102 -166 -102c-107 0 -171 38 -171 102c0 36 25 62 61 62zM565 495
l-261 -372v-11v-10c0 -42 10 -47 90 -48h15v-54h-389v54h15c53 0 73 4 82 15c7 10 7 13 7 75v433c0 62 0 66 -7 76c-9 11 -29 14 -82 15h-15v54h389v-54h-15c-54 -1 -74 -4 -83 -15c-7 -10 -7 -14 -7 -76v-350l261 372c1 65 -2 68 -89 69h-15v54h389v-54h-15
c-53 -1 -74 -4 -83 -15c-7 -10 -7 -14 -7 -76v-433c0 -61 0 -66 7 -75c9 -11 29 -15 83 -15h15v-54h-389v54h15c53 0 73 4 82 15c7 9 7 13 7 75v351z" />
    <glyph glyph-name="afii10028" unicode="&#x41a;" horiz-adv-x="771" 
d="M299 399h34c81 0 115 40 130 155c9 61 18 92 36 121c25 41 63 62 114 62c70 0 120 -46 120 -111c0 -54 -33 -91 -82 -91c-40 0 -70 28 -70 64c0 15 5 27 14 38c10 11 11 14 11 26c0 7 -5 11 -16 11c-19 0 -34 -12 -45 -36c-11 -23 -11 -27 -25 -125
c-11 -76 -45 -122 -104 -138c127 -13 183 -70 209 -212c11 -50 24 -70 45 -70c28 0 49 40 51 101h50c-8 -76 -16 -108 -40 -146c-26 -41 -66 -63 -115 -63c-51 0 -91 27 -112 76c-14 33 -23 70 -37 144c-16 93 -56 131 -139 134h-29v-195c0 -62 0 -65 7 -75
c9 -11 29 -15 83 -15h15v-54h-389v54h15c53 0 73 4 82 15c7 10 7 13 7 75v434c0 62 0 65 -7 75c-9 11 -29 15 -82 15h-15v54h389v-54h-15c-54 0 -74 -4 -83 -15c-7 -10 -7 -13 -7 -75v-179z" />
    <glyph glyph-name="afii10029" unicode="&#x41b;" horiz-adv-x="847" 
d="M827 722v-54h-15c-54 -1 -74 -4 -83 -15c-7 -10 -7 -13 -7 -76v-433c0 -62 0 -65 7 -75c9 -11 29 -15 83 -15h15v-54h-389v54h15c52 0 73 4 82 15c6 9 7 14 7 75v427c0 62 -1 67 -7 76c-9 11 -29 15 -82 15h-39c-53 0 -73 -4 -82 -15c-7 -9 -7 -14 -7 -76v-167
c0 -157 -7 -228 -28 -290c-27 -79 -88 -126 -164 -126c-80 0 -133 50 -133 124c0 58 39 99 92 99c48 0 85 -32 85 -73c0 -24 -13 -45 -35 -56c-20 -11 -22 -12 -22 -18c0 -9 12 -16 27 -16c40 0 75 36 90 94c15 59 21 136 21 262v173c0 63 0 66 -7 76c-9 11 -29 14 -83 15
h-15v54h674z" />
    <glyph glyph-name="afii10030" unicode="&#x41c;" horiz-adv-x="981" 
d="M338 722l155 -430l146 430h326v-54h-11c-54 0 -74 -4 -83 -15c-7 -9 -7 -14 -7 -75v-434c0 -61 0 -66 7 -75c9 -11 29 -15 83 -15h11v-54h-382v54h11c54 0 74 4 83 15c7 10 7 13 7 75v499l-221 -643h-52l-227 633v-416c-2 -129 17 -158 110 -163v-54h-285v54
c91 5 110 34 108 163v361c0 62 0 65 -7 75c-8 11 -29 15 -83 15h-11v54h322z" />
    <glyph glyph-name="afii10031" unicode="&#x41d;" horiz-adv-x="870" 
d="M565 339h-261v-195c0 -62 0 -65 7 -75c9 -11 29 -15 83 -15h15v-54h-389v54h15c53 0 73 4 82 15c7 10 7 13 7 75v433c0 62 0 66 -7 76c-9 11 -29 14 -82 15h-15v54h389v-54h-15c-54 -1 -74 -4 -83 -15c-7 -10 -7 -14 -7 -76v-178h261v178c0 63 0 66 -7 76
c-9 11 -29 14 -82 15h-15v54h389v-54h-15c-53 -1 -74 -4 -83 -15c-7 -10 -7 -14 -7 -76v-433c0 -61 0 -66 7 -75c9 -11 29 -15 83 -15h15v-54h-389v54h15c53 0 73 4 82 15c7 9 7 13 7 75v195z" />
    <glyph glyph-name="afii10032" unicode="&#x41e;" horiz-adv-x="833" 
d="M417 737c98 0 176 -27 243 -85c84 -71 134 -185 134 -301c0 -117 -47 -220 -134 -288c-67 -54 -145 -78 -248 -78c-217 0 -373 153 -373 365c0 117 50 230 134 302c65 57 147 85 244 85zM418 685c-59 0 -99 -22 -128 -71c-34 -57 -51 -137 -51 -245
c0 -106 18 -193 51 -255c28 -52 70 -77 128 -77c114 0 176 110 176 313c0 108 -18 198 -51 258c-29 51 -71 77 -125 77z" />
    <glyph glyph-name="afii10033" unicode="&#x41f;" horiz-adv-x="870" 
d="M409 54v-54h-389v54h15c54 0 74 4 83 15c7 10 7 13 7 75v433c0 62 0 66 -7 76c-9 11 -29 14 -83 15h-15v54h830v-54h-15c-53 -1 -74 -4 -83 -15c-7 -10 -7 -14 -7 -76v-433c0 -61 0 -66 7 -75c9 -11 29 -15 83 -15h15v-54h-389v54h15c53 0 73 4 82 15c7 9 7 13 7 75v427
c0 63 0 66 -7 76c-9 11 -29 15 -82 15h-82c-53 0 -73 -4 -82 -15c-7 -10 -7 -13 -7 -76v-427c0 -62 0 -66 7 -75c9 -11 29 -15 82 -15h15z" />
    <glyph glyph-name="afii10034" unicode="&#x420;" horiz-adv-x="759" 
d="M308 310v-166c0 -62 0 -65 7 -76c9 -10 29 -14 83 -14h22v-54h-396v54h15c53 0 73 4 82 14c7 11 7 14 7 76v433c0 62 0 65 -7 76c-9 10 -29 14 -82 14h-15v55h397c100 0 159 -10 213 -35c64 -30 101 -91 101 -166c0 -140 -106 -211 -315 -211h-112zM308 365h58
c129 0 176 42 176 157c0 100 -43 145 -139 145h-40c-45 0 -56 -12 -55 -60v-242z" />
    <glyph glyph-name="afii10035" unicode="&#x421;" horiz-adv-x="778" 
d="M698 733l10 -286l-53 -6c-45 167 -118 244 -229 244c-123 0 -187 -107 -187 -315c0 -220 64 -323 200 -323c115 0 195 79 222 218l62 -15c-39 -180 -140 -265 -317 -265c-118 0 -202 34 -271 110c-65 71 -95 153 -95 257c0 109 33 198 101 270c72 77 164 115 277 115
c72 0 117 -13 183 -53l54 49h43z" />
    <glyph glyph-name="afii10036" unicode="&#x422;" horiz-adv-x="722" 
d="M692 722l15 -271h-53c-15 82 -31 124 -59 160c-32 41 -65 59 -108 59c-30 0 -36 -7 -36 -40v-486c0 -61 0 -65 7 -75c9 -11 29 -15 83 -15h22v-54h-404v54h22c54 0 74 4 83 15c7 10 7 13 7 75v486c0 33 -6 40 -36 40c-47 0 -84 -23 -116 -71c-24 -35 -38 -74 -51 -148
h-53l15 271h662z" />
    </font>
</defs>
</svg>
