<?xml version="1.0" standalone="no"?>
<!DOCTYPE svg PUBLIC "-//W3C//DTD SVG 1.1//EN" "http://www.w3.org/Graphics/SVG/1.1/DTD/svg11.dtd" >
<svg xmlns="http://www.w3.org/2000/svg" xmlns:xlink="http://www.w3.org/1999/xlink" version="1.1">
<metadata>
Created by FontForge 20170924 at Fri May 27 07:40:55 2016
 By Glenn,,,
Copyright (c) 2014, Ek Type. All rights reserved.
</metadata>
<defs>
<font id="Modak" horiz-adv-x="0" >
  <font-face 
    font-family="Modak"
    font-weight="400"
    font-stretch="normal"
    units-per-em="2048"
    panose-1="0 0 5 0 0 0 0 0 0 0"
    ascent="1638"
    descent="-410"
    x-height="1093"
    cap-height="1308"
    bbox="-1059 -1049 3985 2035"
    underline-thickness="102"
    underline-position="-205"
    unicode-range="U+000D-FB05"
  />
<missing-glyph horiz-adv-x="1278" 
d="M554 527q0 -17 9 -30.5t30 -13.5h7t8 1q-2 6 -2 12v12q0 35 23.5 68.5t57.5 67.5q30 30 63.5 61t61 65t46 71.5t18.5 80.5q0 53 -20 93.5t-53 67.5t-75.5 40.5t-87.5 13.5q-42 0 -83.5 -14t-74 -40.5t-53 -65.5t-20.5 -90q0 -18 8.5 -30t25.5 -12h8t9 2v30q0 42 15.5 74
t41.5 53.5t58.5 32t67.5 10.5q33 0 65.5 -10t58 -30.5t41 -51t15.5 -71.5t-17 -73.5t-42.5 -60.5t-56 -54.5t-58.5 -55.5q-39 -41 -67 -79.5t-28 -73.5zM345 -1q-111 0 -173 58t-62 161v1004q0 103 62 161t173 58h588q111 0 173 -58t62 -161v-1004q0 -103 -62 -161t-173 -58
h-588zM542 319q0 -17 12 -29t29 -12t30 12t13 29t-13 30t-30 13t-29 -13t-12 -30z" />
    <glyph glyph-name="f_f" unicode="ff" horiz-adv-x="1682" 
d="M842 1019q-26 -4 -55.5 -6.5t-63.5 -2.5q-30 0 -61 2t-59.5 5t-52 6.5t-38.5 7.5q-3 -3 -5 -7.5t-2 -12.5q0 -17 50.5 -31.5t163.5 -14.5q63 0 104.5 3.5t71.5 8.5v32q0 96 25 174.5t77 134.5t131 86.5t187 30.5q69 0 126 -11t101.5 -28t76.5 -38t51 -41q4 -12 6 -26.5
t3 -28.5t1 -25.5v-18.5q0 -56 -7.5 -99t-22.5 -82q-31 -12 -80.5 -19.5t-112.5 -7.5q-28 0 -57.5 2t-56.5 5t-50 6.5t-37 7.5q-3 -3 -5 -7.5t-2 -12.5q0 -17 48 -31.5t156 -14.5q63 0 104.5 3.5t71.5 8.5q4 -8 7.5 -25t6.5 -38t4.5 -44t1.5 -41q0 -51 -9 -87.5t-25 -64.5
h-185v-621q-34 -22 -69 -35.5t-68.5 -21t-64 -10t-56.5 -2.5q-56 0 -105 10.5t-85.5 32t-57.5 54.5t-21 79v469h31q26 0 38 9t12 24q0 6 -2 12h-298v-621q-34 -22 -69 -35.5t-68.5 -21t-64 -10t-56.5 -2.5q-56 0 -105 10.5t-85.5 32t-57.5 54.5t-21 79v469h31q26 0 38 9
t12 24q0 6 -2 12h-166q-29 42 -43.5 93.5t-14.5 102.5q0 54 14.5 114.5t43.5 105.5h87q23 168 130 255t282 87q61 0 115 -9t99.5 -25t81 -37.5t59.5 -46.5q-79 -130 -82 -298z" />
    <glyph glyph-name="fl" unicode="fl" horiz-adv-x="1530" 
d="M956 1361q10 6 32 17t52.5 21.5t69.5 18t83 7.5q72 0 123.5 -16t84.5 -44.5t48.5 -68.5t15.5 -89v-703q0 -69 15 -118.5t57 -75.5q1 -8 1 -19.5v-17.5q0 -145 -73.5 -218t-204.5 -73q-59 0 -114 17t-97 57t-67.5 105t-25.5 161v1039zM903 1037q-31 -12 -80 -19.5
t-112 -7.5q-28 0 -57.5 2t-56.5 5t-50 6.5t-37 7.5q-3 -3 -5 -7.5t-2 -12.5q0 -17 48 -31.5t156 -14.5q63 0 104.5 3.5t71.5 8.5q4 -8 7.5 -25t6.5 -38t4.5 -44t1.5 -41q0 -51 -9 -87.5t-25 -64.5h-185v-621q-34 -22 -69 -35.5t-68.5 -21t-64 -10t-56.5 -2.5
q-56 0 -105 10.5t-85.5 32t-57.5 54.5t-21 79v469h31q26 0 38 9t12 24q0 6 -2 12h-166q-29 42 -43.5 93.5t-14.5 102.5q0 54 14.5 114.5t43.5 105.5h87q12 83 45 147t85.5 107.5t123.5 65.5t158 22q61 0 112.5 -8.5t93.5 -22.5t74 -31.5t54 -35.5v-300z" />
    <glyph glyph-name="f_f_l" unicode="ffl" horiz-adv-x="2276" 
d="M1702 1361q10 6 32 17t52.5 21.5t69.5 18t83 7.5q72 0 123.5 -16t84.5 -44.5t48.5 -68.5t15.5 -89v-703q0 -69 15 -118.5t57 -75.5q1 -8 1 -19.5v-17.5q0 -145 -73.5 -218t-204.5 -73q-59 0 -114 17t-97 57t-67.5 105t-25.5 161v1039zM1430 56q-34 -22 -69 -35.5
t-68.5 -21t-64 -10t-56.5 -2.5q-56 0 -105 10.5t-85.5 32t-57.5 54.5t-21 79v469h31q26 0 38 9t12 24q0 6 -2 12h-298v-621q-34 -22 -69 -35.5t-68.5 -21t-64 -10t-56.5 -2.5q-56 0 -105 10.5t-85.5 32t-57.5 54.5t-21 79v469h31q26 0 38 9t12 24q0 6 -2 12h-166
q-29 42 -43.5 93.5t-14.5 102.5q0 54 14.5 114.5t43.5 105.5h87q23 168 130 255t282 87q61 0 115 -9t99.5 -25t81 -37.5t59.5 -46.5q-79 -130 -82 -298q-26 -4 -55.5 -6.5t-63.5 -2.5q-30 0 -61 2t-59.5 5t-52 6.5t-38.5 7.5q-3 -3 -5 -7.5t-2 -12.5q0 -17 50.5 -31.5
t163.5 -14.5q63 0 104.5 3.5t71.5 8.5v32q0 96 25 174.5t77 134.5t131 86.5t187 30.5q62 0 114 -9t94 -23.5t73.5 -32t52.5 -34.5v-299q-31 -12 -80.5 -19.5t-111.5 -7.5q-28 0 -57.5 2t-56.5 5t-50 6.5t-37 7.5q-3 -3 -5 -7.5t-2 -12.5q0 -17 48 -31.5t156 -14.5
q63 0 104.5 3.5t71.5 8.5q4 -8 7.5 -25t6.5 -38t4.5 -44t1.5 -41q0 -51 -9 -87t-25 -64l-185 -1v-621z" />
    <glyph glyph-name="s_s" unicode="ss" horiz-adv-x="2086" 
d="M624 788q-16 0 -31 -0.5t-26.5 -4t-18.5 -10.5t-7 -20v-5.5t1 -5.5q17 1 29 1h24q50 0 103 -7.5t102.5 -24.5t93.5 -45t76.5 -68t51.5 -94t19 -123q0 -104 -37.5 -181.5t-106.5 -128.5t-166 -76.5t-216 -25.5q-110 0 -201.5 19t-156.5 57t-101 95.5t-36 135.5
q0 29 7 55.5t18 48.5t25 38.5t28 25.5q24 -20 62.5 -40.5t88 -36.5t107.5 -26t123 -10q30 0 38.5 8t8.5 22q0 8 -3 16q-11 -1 -17 -1h-11q-98 0 -185.5 20t-153.5 63.5t-105 110.5t-39 162q0 79 32 150.5t97 125.5t163 86t230 32q65 0 125 -7.5t112.5 -20.5t97 -30.5
t77.5 -36.5q10 -21 14.5 -56t4.5 -65q0 -69 -20 -115t-47 -72q-23 13 -53 24.5t-65.5 20.5t-75 14.5t-80.5 5.5zM1667 788q-16 0 -31 -0.5t-26.5 -4t-18.5 -10.5t-7 -20v-5.5t1 -5.5q17 1 29 1h24q51 0 103.5 -7.5t102 -24.5t93.5 -45t76.5 -68t51.5 -94t19 -123
q0 -104 -37.5 -181.5t-106.5 -128.5t-166 -76.5t-216 -25.5q-106 0 -193.5 19t-150 57t-97 95.5t-34.5 135.5q0 29 5 55.5t13.5 48.5t18.5 38.5t21 25.5q24 -20 62.5 -40.5t88 -36.5t107.5 -26t123 -10q30 0 38.5 8t8.5 22q0 8 -3 16q-11 -1 -17 -1h-11q-98 0 -185.5 20
t-153.5 63.5t-105 110.5t-39 162q0 79 32 150.5t97 125.5t163 86t230 32q65 0 125 -7.5t112.5 -20.5t97 -30.5t77.5 -36.5q10 -21 14.5 -56t4.5 -65q0 -69 -20 -115t-47 -72q-23 13 -53 24.5t-65.5 20.5t-75 14.5t-80.5 5.5z" />
    <glyph glyph-name="w_w_w" unicode="www" horiz-adv-x="3937" 
d="M3450 -18q-23 0 -58.5 2.5t-72 6.5t-67 9t-43.5 10q-11 18 -24 44.5t-25.5 55t-23.5 56t-17 46.5q-19 -3 -28.5 -10t-9.5 -23q0 -5 3 -15.5t7.5 -23.5t10 -27.5t11.5 -27.5q-8 -17 -17 -36.5t-24 -39.5q-32 -11 -80.5 -19t-120.5 -8q-75 0 -127 14.5t-87 51.5
q-6 6 -16.5 18t-22 27t-22.5 32.5t-17 35.5q-11 -50 -37.5 -84t-61.5 -55t-74.5 -30.5t-76.5 -9.5q-15 0 -39.5 1t-53 3t-58 4.5t-56 6t-46.5 6.5t-28 7q-11 18 -24 44.5t-25.5 55t-23.5 56t-17 46.5q-19 -3 -28.5 -10t-9.5 -23q0 -5 3 -15.5t7.5 -23.5t10 -27.5t11.5 -27.5
q-8 -17 -17 -36.5t-24 -39.5q-16 -6 -44 -10.5t-62 -8.5t-71.5 -6t-73.5 -2q-75 0 -139.5 17t-104.5 49q-5 7 -15.5 18t-22 26t-23 32.5t-17.5 36.5q-11 -50 -37.5 -84t-61.5 -55t-74.5 -30.5t-76.5 -9.5q-23 0 -58.5 2.5t-72 6.5t-67 9t-43.5 10q-11 18 -24 44.5t-25.5 55
t-23.5 56t-17 46.5q-19 -3 -28.5 -10t-9.5 -23q0 -5 3 -15.5t7.5 -23.5t10 -27.5t11.5 -27.5q-8 -17 -17 -36.5t-24 -39.5q-32 -11 -80.5 -19t-120.5 -8q-75 0 -140 10.5t-113 30.5q-32 53 -62.5 114.5t-58.5 140t-52.5 179.5t-43.5 233q-27 34 -46.5 81t-19.5 108
q0 55 14 110.5t46 103.5h247q78 0 125 -18t73 -49.5t34.5 -74.5t8.5 -93q0 -34 -1 -66t-2.5 -67t-2.5 -76t-1 -92q0 -23 0.5 -43t4 -35t11.5 -23.5t22 -8.5h8.5t9.5 2q-2 20 -2.5 46.5t-0.5 56.5q0 39 1.5 82.5t3 100t3.5 129.5t2 172q26 18 56.5 30.5t62.5 20t64.5 11
t62.5 3.5q45 0 87 -7t76.5 -18t60.5 -24.5t39 -26.5q0 -74 3.5 -155t9 -158t12.5 -144.5t14 -114.5q2 -3 8 -6.5t14 -3.5q13 0 21 5.5t8 22.5q0 12 -6 66.5t-12.5 133.5t-12.5 172t-6 183q18 20 44.5 35t60 25.5t73 16t81.5 5.5q104 0 163 -21.5t88 -55.5t36 -75t7 -81
q0 -48 -5 -102.5t-12.5 -110t-16.5 -110t-17 -103.5q7 -9 20 -9q15 0 21.5 10t11.5 34q21 105 32.5 191.5t17 155.5t6.5 120.5t3 85.5q17 13 47.5 25t66.5 20.5t74.5 13.5t72.5 5q45 0 87 -7t76.5 -18t60.5 -24.5t39 -26.5q0 -74 3.5 -155t9 -158t12.5 -144.5t14 -114.5
q2 -3 8 -6.5t14 -3.5q13 0 21 5.5t8 22.5q0 12 -6 66.5t-12.5 133.5t-12.5 172t-6 183q18 20 44.5 35t60 25.5t73 15.5t81.5 5q69 0 118 -10t81.5 -27t51.5 -39.5t28.5 -48.5t12 -53.5t2.5 -53.5q0 -48 -5 -102.5t-12.5 -110t-16.5 -110t-17 -103.5q7 -9 20 -9q15 0 21.5 10
t11.5 34q21 105 32.5 191.5t17 155.5t6.5 120.5t3 85.5q53 37 110 52.5t117 15.5q101 0 166 -39.5t90 -110.5q0 -20 -2 -57t-5.5 -83t-9.5 -97.5t-13.5 -103t-17 -99t-20.5 -83.5q7 -4 14 -5t12 -1q15 0 22.5 15.5t15.5 41.5q10 34 18.5 84t15 105.5t11.5 113t9 108t6 89.5
t3 58q38 29 101 46.5t133 17.5q60 0 108.5 -17t83.5 -48t54 -74.5t19 -97.5q0 -42 -10 -105.5t-26 -133t-36 -138t-39 -120.5q-28 -78 -51 -137.5t-46.5 -102.5t-51.5 -71.5t-65.5 -45.5t-88.5 -24.5t-121 -7.5z" />
    <glyph glyph-name="f_t" unicode="ft" horiz-adv-x="1616" 
d="M711 1010q-28 0 -57.5 2t-56.5 5t-50 6.5t-37 7.5q-3 -3 -5 -7.5t-2 -12.5q0 -17 48 -31.5t156 -14.5q61 0 105.5 4t74.5 9q14 40 31.5 94.5t35 107.5t31.5 97t21 62q30 8 81.5 14t103.5 6q43 0 86.5 -5t95.5 -16v-245h173q58 -86 58 -193q0 -26 -3.5 -56t-11 -60
t-18 -57.5t-25.5 -48.5h-143v-151q0 -69 28 -98.5t79 -29.5h43q8 -30 14.5 -64t6.5 -68q0 -139 -87 -212t-248 -73q-81 0 -147.5 22t-114.5 67t-74 112.5t-26 159.5v289h62q26 0 38 9t12 24q0 6 -2 12h-303v-621q-34 -22 -69 -35.5t-68.5 -21t-64 -10t-56.5 -2.5
q-56 0 -105 10.5t-85.5 32t-57.5 54.5t-21 79v469h31q26 0 38 9t12 24q0 6 -2 12h-166q-29 42 -43.5 93.5t-14.5 102.5q0 54 14.5 114.5t43.5 105.5h87q12 79 45 142.5t85.5 108t123.5 68t158 23.5q58 0 108.5 -8t91.5 -21.5t73 -30t55 -34.5q-2 -44 -6.5 -87.5t-11 -84.5
t-15 -79t-18.5 -69q-58 -11 -135 -11z" />
    <glyph glyph-name="fi" unicode="fi" horiz-adv-x="1517" 
d="M943 962q20 13 40 21t43 20q-27 14 -55 44t-44 75q-4 -23 -9.5 -44t-13.5 -41q-31 -12 -80.5 -19.5t-112.5 -7.5q-28 0 -57.5 2t-56.5 5t-50 6.5t-37 7.5q-3 -3 -5 -7.5t-2 -12.5q0 -17 48 -31.5t156 -14.5q63 0 108 5t75 10v-303h-206v-621q-34 -22 -69 -35.5t-68.5 -21
t-64 -10t-56.5 -2.5q-56 0 -105 10.5t-85.5 32t-57.5 54.5t-21 79v469h31q26 0 38 9t12 24q0 6 -2 12h-166q-29 42 -43.5 93.5t-14.5 102.5q0 54 14.5 114.5t43.5 105.5h87q23 168 130 255t282 87q68 0 125 -11t103 -29t79.5 -40t54.5 -44q15 42 41.5 75.5t61.5 57.5
t77 36.5t89 12.5q61 0 112.5 -22t89.5 -60t59.5 -90.5t21.5 -113.5q0 -52 -17.5 -96.5t-46.5 -79.5t-68 -58.5t-81 -32.5q0 -15 6.5 -26.5t22.5 -11.5q50 0 104 40q3 -2 10 -7t15 -12t15 -13.5t9 -9.5v-396q0 -69 15 -118.5t57 -75.5q1 -8 1 -19.5v-17.5q0 -76 -21 -131
t-59 -90.5t-90.5 -52.5t-114.5 -17q-48 0 -100.5 16t-96 54t-72 101.5t-28.5 158.5v650z" />
    <glyph glyph-name="f_j" unicode="fj" horiz-adv-x="1518" 
d="M1470 67q0 -117 -29.5 -200t-80 -135.5t-117 -76.5t-140.5 -24t-132 18.5t-98 53t-60.5 83.5t-20.5 111q0 24 4 47t9.5 42.5t12 35t11.5 23.5q23 5 59 9t90 4q40 0 80.5 -7t80.5 -17q5 -2 12 -2.5t11 -0.5q17 0 21.5 11.5t4.5 22.5q-13 4 -34.5 10.5t-49 11.5t-58 9
t-61.5 4q-20 36 -31 84t-11 114v664q20 13 40 21t43 20q-27 14 -55 44t-44 75q-4 -23 -9.5 -44t-13.5 -41q-31 -12 -80.5 -19.5t-112.5 -7.5q-28 0 -57.5 2t-56.5 5t-50 6.5t-37 7.5q-3 -3 -5 -7.5t-2 -12.5q0 -17 48 -31.5t156 -14.5q63 0 108 5t75 10v-303h-206v-621
q-34 -22 -69 -35.5t-68.5 -21t-64 -10t-56.5 -2.5q-56 0 -105 10.5t-85.5 32t-57.5 54.5t-21 79v469h31q26 0 38 9t12 24q0 6 -2 12h-166q-29 42 -43.5 93.5t-14.5 102.5q0 54 14.5 114.5t43.5 105.5h87q23 168 130 255t282 87q68 0 125 -11t103 -29t79.5 -40t54.5 -44
q15 42 41.5 75.5t61.5 57.5t77 36.5t89 12.5q61 0 112.5 -22t89.5 -60t59.5 -90.5t21.5 -113.5q0 -52 -17.5 -96.5t-46.5 -79.5t-68 -58.5t-81 -32.5q0 -15 6.5 -26.5t22.5 -11.5q50 0 104 40q3 -2 11 -7t18 -12.5t20 -16t18 -15.5v-824z" />
    <glyph glyph-name="ffi" unicode="ffi" horiz-adv-x="2263" 
d="M1689 962q20 13 40 21t43 20q-27 14 -55 44t-44 75q-4 -23 -9.5 -44t-13.5 -41q-31 -12 -80.5 -19.5t-112.5 -7.5q-28 0 -57.5 2t-56.5 5t-50 6.5t-37 7.5q-3 -3 -5 -7.5t-2 -12.5q0 -17 48 -31.5t156 -14.5q63 0 108 5t75 10v-303h-206v-621q-34 -22 -69 -35.5
t-68.5 -21t-64 -10t-56.5 -2.5q-56 0 -105 10.5t-85.5 32t-57.5 54.5t-21 79v469h31q26 0 38 9t12 24q0 6 -2 12h-298v-621q-34 -22 -69 -35.5t-68.5 -21t-64 -10t-56.5 -2.5q-56 0 -105 10.5t-85.5 32t-57.5 54.5t-21 79v469h31q26 0 38 9t12 24q0 6 -2 12h-166
q-29 42 -43.5 93.5t-14.5 102.5q0 54 14.5 114.5t43.5 105.5h87q23 168 130 255t282 87q61 0 115 -9t99.5 -25t81 -37.5t59.5 -46.5q-79 -130 -82 -298q-26 -4 -55.5 -6.5t-63.5 -2.5q-30 0 -61 2t-59.5 5t-52 6.5t-38.5 7.5q-3 -3 -5 -7.5t-2 -12.5q0 -17 50.5 -31.5
t163.5 -14.5q63 0 104.5 3.5t71.5 8.5v32q0 96 25 174.5t77 134.5t131 86.5t187 30.5q68 0 125 -11t103 -29t79.5 -40t54.5 -44q15 42 41.5 75.5t61.5 57.5t77 36.5t89 12.5q61 0 112.5 -22t89.5 -60t59.5 -90.5t21.5 -113.5q0 -52 -17.5 -96.5t-46.5 -79.5t-68 -58.5
t-81 -32.5q0 -15 6.5 -26.5t22.5 -11.5q50 0 104 40q3 -2 10 -7t15 -12t15 -13.5t9 -9.5v-396q0 -69 15 -118.5t57 -75.5q1 -8 1 -19.5v-17.5q0 -76 -21 -131t-59 -90.5t-90.5 -52.5t-114.5 -17q-48 0 -100.5 16t-96 54t-72 101.5t-28.5 158.5v650z" />
    <glyph glyph-name="r_t" unicode="rt" horiz-adv-x="1683" 
d="M675 1107q49 0 87 -9.5t69 -25t55.5 -35t45.5 -38.5q24 52 42.5 96t34.5 84t31 79t32 82q32 8 81.5 13.5t104.5 5.5q43 0 86.5 -5t95.5 -16v-245h173q29 -44 43.5 -98.5t14.5 -108.5q0 -51 -14.5 -108.5t-43.5 -99.5h-143v-151q0 -69 28 -98.5t79 -29.5h43
q8 -30 14.5 -64t6.5 -68q0 -139 -87 -212t-248 -73q-81 0 -147.5 22t-114.5 67t-74 112.5t-26 159.5v375q0 27 -7.5 35.5t-20.5 8.5q-12 0 -22 -8q0 -29 -3 -61.5t-10 -58.5q-32 -14 -87.5 -26t-118.5 -12q-33 0 -58.5 2t-46.5 5.5t-38.5 8t-35.5 8.5q-8 -8 -8 -23
q0 -14 18.5 -22t66.5 -17v-502q-34 -22 -69 -35.5t-68.5 -21t-64 -10t-56.5 -2.5q-56 0 -105 10.5t-85.5 32t-57.5 54.5t-21 79v515q-30 42 -44.5 95t-14.5 111q0 48 14.5 106t44.5 103h153q62 0 103.5 -20t65.5 -56q-13 -14 -24.5 -34t-20 -39.5t-13.5 -37t-5 -27.5
q0 -12 9 -21.5t28 -9.5q19 74 53.5 124t79 80t96 42.5t104.5 12.5z" />
    <glyph glyph-name="r_f" unicode="rf" horiz-adv-x="1723" 
d="M944 718q0 27 -7.5 35.5t-20.5 8.5q-12 0 -22 -8q0 -29 -3 -61.5t-10 -58.5q-32 -14 -87.5 -26t-118.5 -12q-33 0 -58.5 2t-46.5 5.5t-38.5 8t-35.5 8.5q-8 -8 -8 -23q0 -14 18.5 -22t66.5 -17v-502q-34 -22 -69 -35.5t-68.5 -21t-64 -10t-56.5 -2.5q-56 0 -105 10.5
t-85.5 32t-57.5 54.5t-21 79v515q-30 42 -44.5 95t-14.5 111q0 48 14.5 106t44.5 103h153q62 0 103.5 -20t65.5 -56q-13 -14 -24.5 -34t-20 -39.5t-13.5 -37t-5 -27.5q0 -12 9 -21.5t28 -9.5q19 73 53.5 122.5t79 80t96 43.5t104.5 13q76 0 142 -27t110 -81q0 120 33.5 203
t91.5 134.5t136 74.5t168 23q69 0 126 -11t101.5 -28t76.5 -38t51 -41q4 -12 6 -26.5t3 -28.5t1 -25.5v-18.5q0 -56 -7.5 -99t-22.5 -82q-31 -12 -80.5 -19.5t-112.5 -7.5q-28 0 -57.5 2t-56.5 5t-50 6.5t-37 7.5q-3 -3 -5 -7.5t-2 -12.5q0 -17 48 -31.5t156 -14.5
q63 0 104.5 3.5t71.5 8.5q4 -8 7.5 -25t6.5 -38t4.5 -44t1.5 -41q0 -51 -9 -87t-25 -64h-185v-622q-34 -22 -69 -35.5t-68.5 -21t-64 -10t-56.5 -2.5q-56 0 -105 10.5t-85.5 32t-57.5 54.5t-21 79v556z" />
    <glyph glyph-name="T_i" unicode="Ti" horiz-adv-x="1729" 
d="M1155 889q-26 -33 -63.5 -48.5t-83.5 -15.5h-293q-3 -8 -3 -15q0 -9 4 -14.5t16.5 -9.5t35 -5.5t59.5 -1.5h69v-703q-41 -36 -116.5 -65t-181.5 -29q-56 0 -108 12t-91.5 36.5t-63 62t-23.5 88.5v644h-233q-38 55 -55 109.5t-17 115.5q0 46 8 83.5t21 67t29.5 52
t33.5 37.5h983q-5 -17 -8.5 -36.5t-3.5 -39.5q0 -43 12.5 -70t37.5 -27q11 0 20 3q-15 37 -15 87q0 64 22.5 116.5t61.5 90t91 58.5t112 21q61 0 112.5 -22t89.5 -60t59.5 -90.5t21.5 -113.5q0 -52 -17.5 -96.5t-46.5 -79.5t-68 -58.5t-81 -32.5q0 -15 6.5 -26.5t22.5 -11.5
q50 0 104 40q3 -2 10 -7t15 -12t15 -13.5t9 -9.5v-396q0 -69 15 -118.5t57 -75.5q1 -8 1 -19.5v-17.5q0 -76 -21 -131t-59 -90.5t-90.5 -52.5t-114.5 -17q-48 0 -100.5 16t-96 54t-72 101.5t-28.5 158.5v577z" />
    <glyph glyph-name="T_j" unicode="Tj" horiz-adv-x="1740" 
d="M1165 889q-26 -33 -63.5 -48.5t-83.5 -15.5h-303q-3 -8 -3 -15q0 -9 4 -14.5t16.5 -9.5t35 -5.5t59.5 -1.5h69v-703q-41 -36 -116.5 -65t-181.5 -29q-56 0 -108 12t-91.5 36.5t-63 62t-23.5 88.5v644h-233q-38 55 -55 109.5t-17 115.5q0 46 8 83.5t21 67t29.5 52
t33.5 37.5h992q-5 -17 -8.5 -36.5t-3.5 -39.5q0 -43 11 -70t36 -27q11 0 20 3q-11 38 -11 87q0 64 22.5 116.5t61.5 90t91 58.5t112 21q61 0 112.5 -22t89.5 -60t59.5 -90.5t21.5 -113.5q0 -52 -17.5 -96.5t-46.5 -79.5t-68 -58.5t-81 -32.5q0 -15 6.5 -26.5t22.5 -11.5
q50 0 104 40q3 -2 11 -7t18 -12.5t20 -16t18 -15.5v-824q0 -117 -29.5 -200t-80 -135.5t-117 -76.5t-140.5 -24t-132 18.5t-98 53t-60.5 83.5t-20.5 111q0 24 4 47t9.5 42.5t12 35t11.5 23.5q23 5 59 9t90 4q40 0 80.5 -7t80.5 -17q5 -2 12 -2.5t11 -0.5q17 0 21.5 11.5
t4.5 22.5q-13 4 -34.5 10.5t-49 11.5t-58 9t-61.5 4q-20 36 -31 84t-11 114v591z" />
    <glyph glyph-name=".notdef" horiz-adv-x="1278" 
d="M554 527q0 -17 9 -30.5t30 -13.5h7t8 1q-2 6 -2 12v12q0 35 23.5 68.5t57.5 67.5q30 30 63.5 61t61 65t46 71.5t18.5 80.5q0 53 -20 93.5t-53 67.5t-75.5 40.5t-87.5 13.5q-42 0 -83.5 -14t-74 -40.5t-53 -65.5t-20.5 -90q0 -18 8.5 -30t25.5 -12h8t9 2v30q0 42 15.5 74
t41.5 53.5t58.5 32t67.5 10.5q33 0 65.5 -10t58 -30.5t41 -51t15.5 -71.5t-17 -73.5t-42.5 -60.5t-56 -54.5t-58.5 -55.5q-39 -41 -67 -79.5t-28 -73.5zM345 -1q-111 0 -173 58t-62 161v1004q0 103 62 161t173 58h588q111 0 173 -58t62 -161v-1004q0 -103 -62 -161t-173 -58
h-588zM542 319q0 -17 12 -29t29 -12t30 12t13 29t-13 30t-30 13t-29 -13t-12 -30z" />
    <glyph glyph-name="NULL" 
 />
    <glyph glyph-name="NULL" 
 />
    <glyph glyph-name="CR" unicode="&#xd;" horiz-adv-x="512" 
 />
    <glyph glyph-name="space" unicode=" " horiz-adv-x="480" 
 />
    <glyph glyph-name="uni0900" unicode="&#x900;" 
d="M-497 1497q-24 1 -53 12.5t-54 34.5t-42 57t-17 80t22 91t66.5 81t113 58t161.5 22t161 -22t113 -58t66.5 -81t21.5 -91t-18 -80.5t-43.5 -57t-54 -34t-49.5 -11.5v7q0 48 -14.5 87t-41 66.5t-63 42t-80.5 14.5q-43 0 -78.5 -14.5t-61.5 -41.5t-40.5 -65.5t-14.5 -86.5
v-10zM-445 1527q0 31 11.5 57t31 45t45.5 30t55 11q34 0 60.5 -11.5t45.5 -31.5t29 -46t10 -54q0 -31 -11.5 -57.5t-31 -46t-46 -30.5t-56.5 -11q-29 0 -55 11t-45.5 30.5t-31 46t-11.5 57.5z" />
    <glyph glyph-name="Chandrabindu.dv" unicode="&#x901;" 
d="M-497 1808q0 -48 14.5 -86.5t40.5 -65.5t61.5 -41.5t78.5 -14.5q44 0 80.5 14.5t63 42t41 66.5t14.5 87v7q21 0 49.5 -11.5t54 -34t43.5 -57t18 -80.5t-21.5 -91t-66.5 -81t-113 -58t-161 -22t-161.5 22t-113 58t-66.5 81t-22 91t17 80t42 57t54 34.5t53 12.5v-10z
M-445 1788q0 31 11.5 57.5t31 46t45.5 30.5t55 11q30 0 56.5 -11t46 -30.5t31 -46t11.5 -57.5q0 -29 -10 -54.5t-29 -45.5t-45.5 -31.5t-60.5 -11.5q-29 0 -55 11t-45.5 30t-31 45t-11.5 57z" />
    <glyph glyph-name="Bindu.dv" unicode="&#x902;" 
d="M-487 1595q0 46 17 87t46.5 71.5t69.5 48t86 17.5t86.5 -17.5t71 -48t48 -71.5t17.5 -87t-15.5 -86t-44.5 -69.5t-69.5 -46.5t-90.5 -17q-49 0 -90 17t-70 46.5t-45.5 69.5t-16.5 86z" />
    <glyph glyph-name="Visarga.dv" unicode="&#x903;" horiz-adv-x="525" 
d="M498 765q0 -59 -21.5 -104t-57.5 -75q-33 21 -58 28.5t-45 7.5t-30.5 -10.5t-10.5 -27.5q45 -2 85.5 -18.5t71 -46.5t48.5 -72t18 -95q0 -56 -19.5 -99t-52 -73t-75.5 -45.5t-91 -15.5q-50 0 -92.5 18t-74 49.5t-49.5 74t-18 91.5q0 67 32.5 121t86.5 83q-56 29 -87.5 84
t-31.5 125q0 49 18 91.5t49.5 74t74 49.5t92.5 18q48 0 91 -15.5t75.5 -45.5t52 -73.5t19.5 -98.5zM-21 967q-31 43 -46 84.5t-15 95.5q0 28 4 51.5t11.5 45.5t19 43t26.5 44h563q15 -23 26.5 -44t19.5 -43t12 -45.5t4 -51.5q0 -54 -15.5 -95.5t-46.5 -84.5h-83
q-18 21 -41 35.5t-49.5 23.5t-54 13t-54.5 4q-54 0 -106.5 -19.5t-85.5 -56.5h-89z" />
    <glyph glyph-name="vowelShortA.dv" unicode="&#x904;" horiz-adv-x="1545" 
d="M1103 382q0 45 -8.5 79.5t-21 57.5t-27 35t-27.5 12q-11 0 -17 -5t-8 -12q22 -25 39 -66t17 -98q0 -86 -35 -157.5t-100.5 -123t-159.5 -80t-211 -28.5q-97 0 -191 30.5t-168 87t-119.5 136.5t-45.5 178q0 70 25.5 118.5t65 78t89 43t97.5 14.5q1 -63 20.5 -114t55 -88
t86.5 -57t114 -20q61 0 61 34q0 8 -3 17q-23 -6 -51 -6q-109 0 -170.5 62t-61.5 171q0 48 18 87.5t48.5 68t71.5 44.5t87 16q15 0 26 -0.5t21 -2.5q3 6 3 13q0 19 -17.5 27t-42.5 8q-36 0 -72 -11t-69 -31t-60.5 -50t-46.5 -67q-66 5 -114.5 34.5t-80 71.5t-47 90.5
t-15.5 91.5q27 49 69 100.5t102 94t138.5 69.5t177.5 27q117 0 207.5 -30.5t153 -84.5t94.5 -129t32 -165q0 -17 -2.5 -41.5t-7.5 -39.5q7 -6 20 -6q19 0 31 26.5t12 71.5q0 75 -23 144t-73 127q3 28 20 53.5t40 42.5h139q15 3 15 16q0 33 -92 33q-14 0 -31.5 -0.5t-37 -1.5
t-39 -1.5t-35.5 -0.5q-90 0 -151 21t-97.5 55.5t-52.5 78.5t-16 91q0 39 9.5 72.5t24.5 61.5t35 50.5t41 39.5l92 -11q9 -36 40.5 -52t80 -23.5t111.5 -12.5t135 -18q63 -12 115 -34t89.5 -57.5t58.5 -85.5t21 -117q0 -59 -21 -104h84q15 -23 26.5 -44t19 -43t11.5 -45.5
t4 -51.5q0 -54 -15 -95.5t-46 -84.5h-50v-582q0 -36 3.5 -63.5t10.5 -50t17.5 -40.5t25.5 -36q-10 -50 -34 -87.5t-58.5 -63.5t-78.5 -39t-93 -13q-42 0 -84 9.5t-78 30.5t-64 54t-42 81q28 45 44.5 100t16.5 115z" />
    <glyph glyph-name="vowelA.dv" unicode="&#x905;" horiz-adv-x="1543" 
d="M1103 382q0 45 -8.5 79.5t-21 57.5t-27 35t-27.5 12q-11 0 -17 -5t-8 -12q22 -25 39 -66t17 -98q0 -86 -35 -157.5t-100.5 -123t-159.5 -80t-211 -28.5q-97 0 -191 30.5t-168 87t-119.5 136.5t-45.5 178q0 70 25.5 118.5t65 78t89 43t97.5 14.5q1 -63 20.5 -114t55 -88
t86.5 -57t114 -20q61 0 61 34q0 8 -3 17q-23 -6 -51 -6q-109 0 -170.5 62t-61.5 171q0 48 18 87.5t48.5 68t71.5 44.5t87 16q15 0 26 -0.5t21 -2.5q3 6 3 13q0 19 -17.5 27t-42.5 8q-36 0 -72 -11t-69 -31t-60.5 -50t-46.5 -67q-66 5 -114.5 34.5t-80 71.5t-47 90.5
t-15.5 91.5q27 49 69 100.5t102 94t138.5 69.5t177.5 27q117 0 207.5 -30.5t153 -84.5t94.5 -129t32 -165q0 -17 -2.5 -41.5t-7.5 -39.5q7 -6 20 -6q19 0 31 26.5t12 71.5q0 75 -23 144t-73 127q3 28 20 53.5t40 42.5h518q15 -23 26.5 -44t19 -43t11.5 -45.5t4 -51.5
q0 -54 -15 -95.5t-46 -84.5h-50v-582q0 -36 3.5 -63.5t10.5 -50t17.5 -40.5t25.5 -36q-10 -50 -34 -87.5t-58.5 -63.5t-78.5 -39t-93 -13q-42 0 -84 9.5t-78 30.5t-64 54t-42 81q28 45 44.5 100t16.5 115z" />
    <glyph glyph-name="vowelAa.dv" unicode="&#x906;" horiz-adv-x="2074" 
d="M2105 195q-10 -50 -34 -87.5t-58.5 -63.5t-78.5 -39t-93 -13q-35 0 -70 6.5t-66.5 20.5t-58.5 36t-46 53q9 18 17.5 44.5t12.5 63.5q-8 8 -18.5 19.5t-19.5 31t-15 48.5t-6 73v579h-54v-582q0 -36 3.5 -63.5t10.5 -50t17.5 -40.5t25.5 -36q-10 -50 -34 -87.5t-58.5 -63.5
t-78.5 -39t-93 -13q-42 0 -84 9.5t-78 30.5t-64 54t-42 81q28 45 44.5 100t16.5 115q0 45 -8.5 79.5t-21 57.5t-27 35t-27.5 12q-11 0 -17 -5t-8 -12q22 -25 39 -66t17 -98q0 -86 -35 -157.5t-100.5 -123t-159.5 -80t-211 -28.5q-97 0 -191 30.5t-168 87t-119.5 136.5
t-45.5 178q0 70 25.5 118.5t65 78t89 43t97.5 14.5q1 -63 20.5 -114t55 -88t86.5 -57t114 -20q61 0 61 34q0 8 -3 17q-23 -6 -51 -6q-109 0 -170.5 62t-61.5 171q0 48 18 87.5t48.5 68t71.5 44.5t87 16q15 0 26 -0.5t21 -2.5q3 6 3 13q0 19 -17.5 27t-42.5 8q-36 0 -72 -11
t-69 -31t-60.5 -50t-46.5 -67q-66 5 -114.5 34.5t-80 71.5t-47 90.5t-15.5 91.5q27 49 69 100.5t102 94t138.5 69.5t177.5 27q117 0 207.5 -30.5t153 -84.5t94.5 -129t32 -165q0 -17 -2.5 -41.5t-7.5 -39.5q7 -6 20 -6q19 0 31 26.5t12 71.5q0 75 -23 144t-73 127
q3 28 20 53.5t40 42.5h1049q15 -23 26.5 -44t19 -43t11.5 -45.5t4 -51.5q0 -54 -15 -95.5t-46 -84.5h-50v-582q0 -36 3.5 -63.5t10.5 -50t17.5 -40.5t25.5 -36z" />
    <glyph glyph-name="vowelI.dv" unicode="&#x907;" horiz-adv-x="1105" 
d="M1120 1331q15 -23 26.5 -44t19.5 -43t12 -45.5t4 -51.5q0 -54 -15.5 -95.5t-46.5 -84.5h-114v-103q0 -40 -18.5 -72t-43.5 -44q-42 24 -104 41.5t-144 17.5q-69 0 -106 -13t-37 -42q0 -5 2 -13q19 8 48.5 15.5t74.5 7.5q86 0 160.5 -25t129 -71.5t86 -113t31.5 -149.5
q0 -94 -37 -163t-100 -115.5t-146.5 -73t-176.5 -35.5q0 -18 18 -27t43 -9q31 0 64.5 5.5t64.5 14t55.5 18.5t36.5 19q6 -22 10.5 -52.5t4.5 -51.5q0 -53 -16.5 -93.5t-46.5 -69t-71.5 -43t-91.5 -14.5q-60 0 -111 21.5t-93.5 61.5t-76.5 97t-61 127q-87 11 -148.5 28
t-113.5 42q-19 35 -35 80.5t-16 102.5q0 53 19 99t55 79.5t88.5 53t120.5 19.5q56 0 104.5 -19t85.5 -51.5t60 -76t28 -91.5q11 1 22 10t11 32q0 33 -20 75t-59 79t-97 62t-134 25q-40 0 -69.5 -4t-52.5 -10.5t-40.5 -14.5t-33.5 -16q-17 18 -32.5 40t-28 49t-20 61t-7.5 76
q0 60 26 110.5t71 87t104.5 56.5t127.5 20h171q1 3 1 9q0 15 -12.5 25.5t-41.5 10.5h-118q-60 0 -106.5 -10.5t-81 -26.5t-58 -33.5t-38.5 -31.5h-111q-31 43 -46 84.5t-15 95.5q0 28 4 51.5t11.5 45.5t19 43t26.5 44h1145z" />
    <glyph glyph-name="vowelIi.dv" unicode="&#x908;" horiz-adv-x="1105" 
d="M435 1577q0 68 23.5 125t68 98.5t107.5 64.5t142 23q60 0 113.5 -19t93.5 -54.5t63.5 -85.5t23.5 -111q0 -34 -6.5 -66.5t-14.5 -54.5l-126 -36q-43 -12 -63 -28t-20 -45q0 -21 12.5 -35.5t32.5 -21.5h235q15 -23 26.5 -44t19.5 -43t12 -45.5t4 -51.5q0 -54 -15.5 -95.5
t-46.5 -84.5h-114v-103q0 -40 -18.5 -72t-43.5 -44q-42 24 -104 41.5t-144 17.5q-69 0 -106 -13t-37 -42q0 -5 2 -13q19 8 48.5 15.5t74.5 7.5q86 0 160.5 -25t129 -71.5t86 -113t31.5 -149.5q0 -94 -37 -163t-100 -115.5t-146.5 -73t-176.5 -35.5q0 -18 18 -27t43 -9
q31 0 64.5 5.5t64.5 14t55.5 18.5t36.5 19q6 -22 10.5 -52.5t4.5 -51.5q0 -53 -16.5 -93.5t-46.5 -69t-71.5 -43t-91.5 -14.5q-60 0 -111 21.5t-93.5 61.5t-76.5 97t-61 127q-87 11 -148.5 28t-113.5 42q-19 35 -35 80.5t-16 102.5q0 53 19 99t55 79.5t88.5 53t120.5 19.5
q56 0 104.5 -19t85.5 -51.5t60 -76t28 -91.5q11 1 22 10t11 32q0 33 -20 75t-59 79t-97 62t-134 25q-40 0 -69.5 -4t-52.5 -10.5t-40.5 -14.5t-33.5 -16q-17 18 -32.5 40t-28 49t-20 61t-7.5 76q0 60 26 110.5t71 87t104.5 56.5t127.5 20h171q1 3 1 9q0 15 -12.5 25.5
t-41.5 10.5h-118q-60 0 -106.5 -10.5t-81 -26.5t-58 -33.5t-38.5 -31.5h-111q-31 43 -46 84.5t-15 95.5q0 28 4 51.5t11.5 45.5t19 43t26.5 44h586q-57 42 -91.5 104.5t-34.5 141.5z" />
    <glyph glyph-name="vowelU.dv" unicode="&#x909;" horiz-adv-x="1115" 
d="M-15 967q-31 43 -46 84.5t-15 95.5q0 28 4 51.5t11.5 45.5t19 43t26.5 44h1153q29 -45 45 -87t16 -97q0 -54 -15 -95.5t-46 -84.5h-83v-119q0 -72 -24 -129t-58 -86q19 -12 40.5 -32.5t39.5 -50.5t30 -69t12 -87q0 -89 -36 -161t-102.5 -122.5t-160.5 -77.5t-210 -27
q-127 0 -231 34t-178.5 93t-115.5 140t-41 176q0 70 24 118.5t63 78.5t88 43t100 13q0 -54 18 -101t52.5 -82.5t85.5 -56t117 -20.5q13 0 29.5 2t31.5 6.5t25 12.5t10 21q0 11 -7 22q-17 -8 -36.5 -13.5t-45.5 -5.5q-49 0 -90.5 16t-72 44.5t-47.5 69t-17 90.5q0 49 12 86
t28.5 63t34.5 42.5t30 25.5q27 -5 60.5 -8t59.5 -3q36 0 54 7.5t18 27.5q0 10 -4 19h-656z" />
    <glyph glyph-name="vowelUu.dv" unicode="&#x90a;" horiz-adv-x="1797" 
d="M1806 1331q15 -23 26.5 -44t19.5 -43t12 -45.5t4 -51.5q0 -54 -15.5 -95.5t-46.5 -84.5h-647q0 58 -17 96t-41 38q-9 0 -15.5 -4.5t-10.5 -11.5q14 -17 22.5 -47.5t8.5 -70.5q0 -55 -22.5 -95t-51.5 -65q8 -8 16 -15.5t14 -15.5q54 51 122.5 82t163.5 31
q82 0 159.5 -27.5t137.5 -82t96 -135t36 -186.5q0 -93 -30.5 -167t-82.5 -126t-121.5 -80t-147.5 -28q-67 0 -121 17.5t-92.5 50t-59 79.5t-20.5 107q0 69 27.5 121.5t67.5 77.5q9 -8 26 -16.5t43 -8.5q25 0 41.5 11.5t16.5 32.5q0 18 -15.5 33.5t-57.5 15.5
q-32 0 -67.5 -16.5t-65.5 -50t-49.5 -83.5t-19.5 -116q0 -15 2 -31t5 -31t6.5 -27.5t6.5 -19.5q-20 -33 -63.5 -68t-106.5 -63.5t-142.5 -47t-170.5 -18.5q-122 0 -225.5 34t-179 93t-118.5 140t-43 176q0 70 24 118.5t63 78.5t88 43t100 13q0 -54 18 -101t52.5 -82.5
t85.5 -56t117 -20.5q13 0 29.5 2t31.5 6.5t25 12.5t10 21q0 11 -7 22q-17 -8 -36.5 -13.5t-45.5 -5.5q-49 0 -90.5 16t-72 44.5t-47.5 69t-17 90.5q0 49 12 86t28.5 63t34.5 42.5t30 25.5q27 -5 60.5 -8t59.5 -3q36 0 54 7.5t18 27.5q0 10 -4 19h-656q-31 43 -46 84.5
t-15 95.5q0 28 4 51.5t11.5 45.5t19 43t26.5 44h1821z" />
    <glyph glyph-name="vowelRu.dv" unicode="&#x90b;" horiz-adv-x="1758" 
d="M684 270q35 45 51 69.5t16 41.5q0 11 -7.5 19t-16.5 11l-148 -183q-29 -36 -59 -64.5t-63 -48t-71.5 -29.5t-83.5 -10t-88 15.5t-76.5 47.5t-54 80.5t-20.5 114.5q0 13 1 34t3 35l435 205q1 5 1.5 10.5t0.5 9.5q0 21 -13.5 31.5t-30.5 10.5q-21 0 -35 -13t-14 -36
l-260 -122q-24 10 -47.5 30t-42.5 49t-30.5 65.5t-11.5 79.5q0 73 28.5 133t76.5 103t110.5 66t130.5 23q70 0 125.5 -16t98 -41.5t74 -57.5t52.5 -63q12 2 17 10t5 18q0 21 -26 54t-74 64.5t-117 54t-155 22.5q-58 0 -105.5 -12t-85 -30.5t-65 -40.5t-45.5 -43h-113
q-31 43 -46.5 84.5t-15.5 95.5q0 28 4 51.5t12 45.5t19.5 43t26.5 44h1815q15 -23 26.5 -44t19.5 -43t12 -45.5t4 -51.5q0 -54 -15.5 -95.5t-46.5 -84.5h-123q-16 18 -39.5 34.5t-55.5 30t-73 21.5t-92 8q-59 0 -112 -18.5t-93 -52t-63 -79.5t-23 -100q0 -21 2 -40t7 -34
t13.5 -23.5t21.5 -8.5q11 0 20 4q-5 18 -8 36t-3 50q0 53 19.5 94.5t52 70t75 43.5t89.5 15q70 0 122 -17.5t85.5 -48.5t50 -72t16.5 -89q0 -31 -9 -59.5t-28 -47.5q-18 12 -43.5 21.5t-44.5 9.5q-14 0 -23.5 -5.5t-11.5 -23.5q39 -8 82 -33t78.5 -64t58.5 -91.5t23 -116.5
q0 -75 -24.5 -134t-67 -99t-99.5 -61t-122 -21q-45 0 -94 11t-89.5 40t-67 80t-26.5 132q0 12 0.5 31.5t1.5 35.5q8 -2 22.5 -3.5t22.5 -1.5q34 0 61.5 7t47.5 17.5t31 24t11 26.5t-14 21q-29 -29 -71.5 -40t-85.5 -11q-16 0 -35.5 3t-39.5 10q-2 -26 -3.5 -52t-1.5 -49
q0 -41 3 -71.5t8.5 -54t13.5 -41.5t18 -34q-15 -38 -40.5 -66.5t-58 -48.5t-71 -30t-80.5 -10q-44 0 -87 11t-80 34t-64 58.5t-40 85.5z" />
    <glyph glyph-name="vowelLru.dv" unicode="&#x90c;" horiz-adv-x="1507" 
d="M-25 967q-31 43 -46 84.5t-15 95.5q0 28 4 51.5t11.5 45.5t19 43t26.5 44h1549q15 -23 26.5 -44t19 -43t11.5 -45.5t4 -51.5q0 -54 -15 -95.5t-46 -84.5h-226v-48q37 -19 70 -53t58 -79.5t40 -101.5t15 -119q0 -75 -22.5 -140t-60.5 -116q-54 21 -110 33
q-7 -18 -23.5 -41.5t-41.5 -46t-57.5 -41t-71.5 -27.5q0 -17 8 -22.5t22 -5.5q25 0 53 11.5t54.5 30.5t49 43t36.5 50q32 -9 63 -25.5t55 -42.5t39 -62.5t15 -84.5q0 -72 -31.5 -126t-85.5 -90t-125 -54.5t-149 -18.5q-74 0 -138.5 17.5t-113.5 52.5t-77 87t-28 122
q0 61 21.5 106.5t54 80.5t70.5 63t70.5 54t54 51.5t21.5 57.5q0 14 -8 20t-19 6q-16 -37 -42 -65t-59.5 -47t-72.5 -28.5t-82 -9.5q-40 0 -78.5 11t-71.5 32t-59 51.5t-41 69.5q-14 0 -21.5 -10t-7.5 -23q0 -30 21 -60t54 -54.5t74 -41t80 -20.5q13 -28 18 -50t5 -48
q0 -46 -15.5 -86.5t-46 -71t-77 -48t-107.5 -17.5q-92 0 -175 39.5t-145.5 110t-99.5 167.5t-37 211q0 82 27.5 162.5t82 144t135 103t187.5 39.5q42 0 83.5 -12t79.5 -35t71 -58t57 -80q16 35 39 62.5t49 47.5t53.5 31.5t53.5 14.5q0 20 -10 26.5t-27 6.5t-37.5 -7.5
t-41.5 -21.5t-41.5 -33t-37.5 -42q-22 30 -53.5 56.5t-70 46t-84 31t-95.5 11.5q-51 0 -101.5 -10.5t-111.5 -36.5h-252z" />
    <glyph glyph-name="vowelChandraE.dv" unicode="&#x90d;" horiz-adv-x="1039" 
d="M325 1817q12 -21 32 -40t46.5 -34t58.5 -24t68 -9q63 0 117.5 27.5t82.5 79.5q21 0 49 -11.5t53.5 -34t43.5 -57t18 -80.5t-21.5 -91t-66.5 -81t-113 -58t-161 -22t-161.5 22t-113 58t-66.5 81t-22 91t16.5 80.5t40.5 57t51 34t48 11.5zM495 784q24 0 45.5 28t21.5 85
q0 43 -10 70h-57v-183zM689 330q63 0 118.5 14t100.5 37q35 -48 48.5 -89t13.5 -89q0 -65 -23.5 -110t-63 -72.5t-90 -39.5t-104.5 -12q-161 0 -285 56.5t-208 157t-127 238t-43 298.5v248h-52q-31 43 -46 84.5t-15 95.5q0 28 4 51.5t11.5 45.5t19 43t26.5 44h1088
q15 -23 26.5 -44t19.5 -43t12 -45.5t4 -51.5q0 -54 -15.5 -95.5t-46.5 -84.5h-64q11 -39 16 -77t5 -75q0 -41 -4 -89.5t-16 -97.5t-34.5 -94.5t-59 -81t-89.5 -56.5t-127 -21q-60 0 -107.5 19t-90.5 64q-7 -6 -10 -14t-3 -14q0 -21 16.5 -39t45.5 -31.5t67 -21.5t82 -8z" />
    <glyph glyph-name="vowelShortE.dv" unicode="&#x90e;" horiz-adv-x="1039" 
d="M689 330q63 0 118.5 14t100.5 37q35 -48 48.5 -89t13.5 -89q0 -65 -23.5 -110t-63 -72.5t-90 -39.5t-104.5 -12q-161 0 -285 56.5t-208 157t-127 238t-43 298.5v248h-52q-31 43 -46 84.5t-15 95.5q0 28 4 51.5t11.5 45.5t19 43t26.5 44h685q15 3 15 16q0 33 -92 33
q-14 0 -31.5 -0.5t-37 -1.5t-39 -1.5t-35.5 -0.5q-90 0 -151 21t-97.5 55.5t-52.5 78.5t-16 91q0 39 9.5 72.5t24.5 61.5t35 50.5t41 39.5l92 -11q9 -36 40.5 -52t80 -23.5t111.5 -12.5t135 -18q63 -12 115 -34t89.5 -57.5t58.5 -85.5t21 -117q0 -59 -21 -104h108
q15 -23 26.5 -44t19.5 -43t12 -45.5t4 -51.5q0 -54 -15.5 -95.5t-46.5 -84.5h-64q11 -39 16 -77t5 -75q0 -41 -4 -89.5t-16 -97.5t-34.5 -94.5t-59 -81t-89.5 -56.5t-127 -21q-60 0 -107.5 19t-90.5 64q-7 -6 -10 -14t-3 -14q0 -21 16.5 -39t45.5 -31.5t67 -21.5t82 -8z
M495 784q24 0 45.5 28t21.5 85q0 43 -10 70h-57v-183z" />
    <glyph glyph-name="vowelE.dv" unicode="&#x90f;" horiz-adv-x="1039" 
d="M495 784q24 0 45.5 28t21.5 85q0 43 -10 70h-57v-183zM689 330q63 0 118.5 14t100.5 37q35 -48 48.5 -89t13.5 -89q0 -65 -23.5 -110t-63 -72.5t-90 -39.5t-104.5 -12q-161 0 -285 56.5t-208 157t-127 238t-43 298.5v248h-52q-31 43 -46 84.5t-15 95.5q0 28 4 51.5
t11.5 45.5t19 43t26.5 44h1088q15 -23 26.5 -44t19.5 -43t12 -45.5t4 -51.5q0 -54 -15.5 -95.5t-46.5 -84.5h-64q11 -39 16 -77t5 -75q0 -41 -4 -89.5t-16 -97.5t-34.5 -94.5t-59 -81t-89.5 -56.5t-127 -21q-60 0 -107.5 19t-90.5 64q-7 -6 -10 -14t-3 -14q0 -21 16.5 -39
t45.5 -31.5t67 -21.5t82 -8z" />
    <glyph glyph-name="vowelAi.dv" unicode="&#x910;" horiz-adv-x="1039" 
d="M689 330q63 0 118.5 14t100.5 37q35 -48 48.5 -89t13.5 -89q0 -65 -23.5 -110t-63 -72.5t-90 -39.5t-104.5 -12q-161 0 -285 56.5t-208 157t-127 238t-43 298.5v248h-52q-31 43 -46 84.5t-15 95.5q0 28 4 51.5t11.5 45.5t19 43t26.5 44h668q15 0 23 8t8 19q0 9 -6 18
q-65 0 -134 8t-132 28t-116.5 53t-88.5 83q0 76 26.5 135.5t69.5 100.5t97.5 62.5t111.5 21.5q111 0 193.5 -44.5t137.5 -118.5t82.5 -171.5t28.5 -202.5h119q15 -23 26.5 -44t19.5 -43t12 -45.5t4 -51.5q0 -54 -15.5 -95.5t-46.5 -84.5h-64q11 -39 16 -77t5 -75
q0 -41 -4 -89.5t-16 -97.5t-34.5 -94.5t-59 -81t-89.5 -56.5t-127 -21q-60 0 -107.5 19t-90.5 64q-7 -6 -10 -14t-3 -14q0 -21 16.5 -39t45.5 -31.5t67 -21.5t82 -8zM495 784q24 0 45.5 28t21.5 85q0 43 -10 70h-57v-183z" />
    <glyph glyph-name="vowelChandraO.dv" unicode="&#x911;" horiz-adv-x="2074" 
d="M2105 195q-10 -50 -34 -87.5t-58.5 -63.5t-78.5 -39t-93 -13q-35 0 -70 6.5t-66.5 20.5t-58.5 36t-46 53q9 18 17.5 44.5t12.5 63.5q-8 8 -18.5 19.5t-19.5 31t-15 48.5t-6 73v579h-54v-582q0 -36 3.5 -63.5t10.5 -50t17.5 -40.5t25.5 -36q-10 -50 -34 -87.5t-58.5 -63.5
t-78.5 -39t-93 -13q-42 0 -84 9.5t-78 30.5t-64 54t-42 81q28 45 44.5 100t16.5 115q0 45 -8.5 79.5t-21 57.5t-27 35t-27.5 12q-11 0 -17 -5t-8 -12q22 -25 39 -66t17 -98q0 -86 -35 -157.5t-100.5 -123t-159.5 -80t-211 -28.5q-97 0 -191 30.5t-168 87t-119.5 136.5
t-45.5 178q0 70 25.5 118.5t65 78t89 43t97.5 14.5q1 -63 20.5 -114t55 -88t86.5 -57t114 -20q61 0 61 34q0 8 -3 17q-23 -6 -51 -6q-109 0 -170.5 62t-61.5 171q0 48 18 87.5t48.5 68t71.5 44.5t87 16q15 0 26 -0.5t21 -2.5q3 6 3 13q0 19 -17.5 27t-42.5 8q-36 0 -72 -11
t-69 -31t-60.5 -50t-46.5 -67q-66 5 -114.5 34.5t-80 71.5t-47 90.5t-15.5 91.5q27 49 69 100.5t102 94t138.5 69.5t177.5 27q117 0 207.5 -30.5t153 -84.5t94.5 -129t32 -165q0 -17 -2.5 -41.5t-7.5 -39.5q7 -6 20 -6q19 0 31 26.5t12 71.5q0 75 -23 144t-73 127
q3 28 20 53.5t40 42.5h1049q15 -23 26.5 -44t19 -43t11.5 -45.5t4 -51.5q0 -54 -15 -95.5t-46 -84.5h-50v-582q0 -36 3.5 -63.5t10.5 -50t17.5 -40.5t25.5 -36zM1532 1817q12 -21 32 -40t46.5 -34t58.5 -24t68 -9q63 0 117.5 27.5t82.5 79.5q21 0 49 -11.5t53.5 -34
t43.5 -57t18 -80.5t-21.5 -91t-66.5 -81t-113 -58t-161 -22t-161.5 22t-113 58t-66.5 81t-22 91t16.5 80.5t40.5 57t51 34t48 11.5z" />
    <glyph glyph-name="vowelShortO.dv" unicode="&#x912;" horiz-adv-x="2074" 
d="M2105 195q-10 -50 -34 -87.5t-58.5 -63.5t-78.5 -39t-93 -13q-35 0 -70 6.5t-66.5 20.5t-58.5 36t-46 53q9 18 17.5 44.5t12.5 63.5q-8 8 -18.5 19.5t-19.5 31t-15 48.5t-6 73v579h-54v-582q0 -36 3.5 -63.5t10.5 -50t17.5 -40.5t25.5 -36q-10 -50 -34 -87.5t-58.5 -63.5
t-78.5 -39t-93 -13q-42 0 -84 9.5t-78 30.5t-64 54t-42 81q28 45 44.5 100t16.5 115q0 45 -8.5 79.5t-21 57.5t-27 35t-27.5 12q-11 0 -17 -5t-8 -12q22 -25 39 -66t17 -98q0 -86 -35 -157.5t-100.5 -123t-159.5 -80t-211 -28.5q-97 0 -191 30.5t-168 87t-119.5 136.5
t-45.5 178q0 70 25.5 118.5t65 78t89 43t97.5 14.5q1 -63 20.5 -114t55 -88t86.5 -57t114 -20q61 0 61 34q0 8 -3 17q-23 -6 -51 -6q-109 0 -170.5 62t-61.5 171q0 48 18 87.5t48.5 68t71.5 44.5t87 16q15 0 26 -0.5t21 -2.5q3 6 3 13q0 19 -17.5 27t-42.5 8q-36 0 -72 -11
t-69 -31t-60.5 -50t-46.5 -67q-66 5 -114.5 34.5t-80 71.5t-47 90.5t-15.5 91.5q27 49 69 100.5t102 94t138.5 69.5t177.5 27q117 0 207.5 -30.5t153 -84.5t94.5 -129t32 -165q0 -17 -2.5 -41.5t-7.5 -39.5q7 -6 20 -6q19 0 31 26.5t12 71.5q0 75 -23 144t-73 127
q3 28 20 53.5t40 42.5h657q15 3 15 16q0 33 -92 33q-14 0 -31.5 -0.5t-37 -1.5t-39 -1.5t-35.5 -0.5q-90 0 -151 21t-97.5 55.5t-52.5 78.5t-16 91q0 39 9.5 72.5t24.5 61.5t35 50.5t41 39.5l92 -11q9 -36 40.5 -52t80 -23.5t111.5 -12.5t135 -18q63 -12 115 -34t89.5 -57.5
t58.5 -85.5t21 -117q0 -59 -21 -104h97q15 -23 26.5 -44t19 -43t11.5 -45.5t4 -51.5q0 -54 -15 -95.5t-46 -84.5h-50v-582q0 -36 3.5 -63.5t10.5 -50t17.5 -40.5t25.5 -36z" />
    <glyph glyph-name="vowelO.dv" unicode="&#x913;" horiz-adv-x="2074" 
d="M2105 195q-10 -50 -34 -87.5t-58.5 -63.5t-78.5 -39t-93 -13q-35 0 -70 6.5t-66.5 20.5t-58.5 36t-46 53q9 18 17.5 44.5t12.5 63.5q-8 8 -18.5 19.5t-19.5 31t-15 48.5t-6 73v579h-54v-582q0 -36 3.5 -63.5t10.5 -50t17.5 -40.5t25.5 -36q-10 -50 -34 -87.5t-58.5 -63.5
t-78.5 -39t-93 -13q-42 0 -84 9.5t-78 30.5t-64 54t-42 81q28 45 44.5 100t16.5 115q0 45 -8.5 79.5t-21 57.5t-27 35t-27.5 12q-11 0 -17 -5t-8 -12q22 -25 39 -66t17 -98q0 -86 -35 -157.5t-100.5 -123t-159.5 -80t-211 -28.5q-97 0 -191 30.5t-168 87t-119.5 136.5
t-45.5 178q0 70 25.5 118.5t65 78t89 43t97.5 14.5q1 -63 20.5 -114t55 -88t86.5 -57t114 -20q61 0 61 34q0 8 -3 17q-23 -6 -51 -6q-109 0 -170.5 62t-61.5 171q0 48 18 87.5t48.5 68t71.5 44.5t87 16q15 0 26 -0.5t21 -2.5q3 6 3 13q0 19 -17.5 27t-42.5 8q-36 0 -72 -11
t-69 -31t-60.5 -50t-46.5 -67q-66 5 -114.5 34.5t-80 71.5t-47 90.5t-15.5 91.5q27 49 69 100.5t102 94t138.5 69.5t177.5 27q117 0 207.5 -30.5t153 -84.5t94.5 -129t32 -165q0 -17 -2.5 -41.5t-7.5 -39.5q7 -6 20 -6q19 0 31 26.5t12 71.5q0 75 -23 144t-73 127
q3 28 20 53.5t40 42.5h659q15 0 23 8t8 19q0 9 -6 18q-65 0 -134 8t-132 28t-116.5 53t-88.5 83q0 76 26.5 135.5t69.5 100.5t97.5 62.5t111.5 21.5q111 0 193.5 -44.5t137.5 -118.5t82.5 -171.5t28.5 -202.5h89q15 -23 26.5 -44t19 -43t11.5 -45.5t4 -51.5q0 -54 -15 -95.5
t-46 -84.5h-50v-582q0 -36 3.5 -63.5t10.5 -50t17.5 -40.5t25.5 -36z" />
    <glyph glyph-name="vowelAu.dv" unicode="&#x914;" horiz-adv-x="2074" 
d="M1730 2027q75 0 137 -28.5t106.5 -80t68.5 -123t24 -158.5q0 -47 -6.5 -91.5t-16.5 -84t-21.5 -73t-21.5 -57.5h98q15 -23 26.5 -44t19 -43t11.5 -45.5t4 -51.5q0 -54 -15 -95.5t-46 -84.5h-50v-582q0 -36 3.5 -63.5t10.5 -50t17.5 -40.5t25.5 -36q-10 -50 -34 -87.5
t-58.5 -63.5t-78.5 -39t-93 -13q-35 0 -70 6.5t-66.5 20.5t-58.5 36t-46 53q9 18 17.5 44.5t12.5 63.5q-8 8 -18.5 19.5t-19.5 31t-15 48.5t-6 73v579h-54v-582q0 -36 3.5 -63.5t10.5 -50t17.5 -40.5t25.5 -36q-10 -50 -34 -87.5t-58.5 -63.5t-78.5 -39t-93 -13
q-42 0 -84 9.5t-78 30.5t-64 54t-42 81q28 45 44.5 100t16.5 115q0 45 -8.5 79.5t-21 57.5t-27 35t-27.5 12q-11 0 -17 -5t-8 -12q22 -25 39 -66t17 -98q0 -86 -35 -157.5t-100.5 -123t-159.5 -80t-211 -28.5q-97 0 -191 30.5t-168 87t-119.5 136.5t-45.5 178
q0 70 25.5 118.5t65 78t89 43t97.5 14.5q1 -63 20.5 -114t55 -88t86.5 -57t114 -20q61 0 61 34q0 8 -3 17q-23 -6 -51 -6q-109 0 -170.5 62t-61.5 171q0 48 18 87.5t48.5 68t71.5 44.5t87 16q15 0 26 -0.5t21 -2.5q3 6 3 13q0 19 -17.5 27t-42.5 8q-36 0 -72 -11t-69 -31
t-60.5 -50t-46.5 -67q-66 5 -114.5 34.5t-80 71.5t-47 90.5t-15.5 91.5q27 49 69 100.5t102 94t138.5 69.5t177.5 27q117 0 207.5 -30.5t153 -84.5t94.5 -129t32 -165q0 -17 -2.5 -41.5t-7.5 -39.5q7 -6 20 -6q19 0 31 26.5t12 71.5q0 75 -23 144t-73 127q3 28 20 53.5
t40 42.5h595q17 0 28.5 7t11.5 21q0 7 -3 15q-53 0 -114.5 6t-122 20.5t-114 38t-89.5 58.5q0 66 22 120t58 92t82 58.5t94 20.5q58 0 106.5 -17t88 -46t69.5 -68.5t53 -85.5q9 3 15 11t6 22q0 28 -24 66t-66 73.5t-100 61.5t-126 29q1 44 17.5 79.5t45 61t66.5 39t82 13.5z
" />
    <glyph glyph-name="Ka.dv" unicode="&#x915;" horiz-adv-x="1648" 
d="M424 995q57 0 113 -16t96 -45q7 10 7 22q0 15 -15.5 30t-44 27t-68 19.5t-88.5 7.5q-76 0 -138.5 -18t-119.5 -55h-191q-31 43 -46 84.5t-15 95.5q0 28 4 51.5t11.5 45.5t19 43t26.5 44h1676q15 -23 27 -44t19.5 -43t11.5 -45.5t4 -51.5q0 -54 -15.5 -95.5t-46.5 -84.5
h-164q-44 29 -107.5 51t-144.5 22q-47 0 -86 -7t-68 -19t-45 -28.5t-16 -34.5q0 -13 8 -21q45 32 94.5 48.5t112.5 16.5q91 0 163.5 -35.5t123.5 -93.5t78.5 -132t27.5 -150q0 -98 -28 -174.5t-75 -129t-108.5 -80.5t-128.5 -28q-118 0 -183 63.5t-65 177.5q0 73 30 150
q8 -5 16.5 -8.5t19.5 -3.5q20 0 32 15.5t12 39.5q0 27 -14.5 43t-41.5 16q-6 0 -15 -1.5t-14 -3.5q-14 -14 -28 -39.5t-25 -58.5t-18 -71.5t-7 -77.5q0 -57 13 -98t32.5 -70.5t42.5 -48t43 -30.5q-10 -31 -28.5 -62t-50 -56t-76.5 -40.5t-107 -15.5q-60 0 -110.5 18.5
t-86.5 53t-56.5 82t-20.5 106.5v45q-31 0 -41.5 -17.5t-10.5 -41.5q0 -15 2.5 -30t5.5 -26q-18 -8 -48.5 -14t-67.5 -6q-89 0 -163 31t-127 85.5t-82.5 130t-29.5 164.5q0 80 26.5 156t78 135t126.5 95t173 36zM561 664q-5 1 -15 1q-29 0 -45 -19.5t-16 -45.5t17.5 -43.5
t46.5 -17.5q8 0 12 1v124z" />
    <glyph glyph-name="Kha.dv" unicode="&#x916;" horiz-adv-x="1572" 
d="M1596 1331q15 -23 26.5 -44t19 -43t11.5 -45.5t4 -51.5q0 -54 -15 -95.5t-46 -84.5h-50v-582q0 -36 3.5 -63.5t11 -50t18 -40.5t25.5 -36q-10 -50 -34.5 -87.5t-59 -63.5t-78.5 -39t-93 -13q-55 0 -111 18t-93 54q17 25 28 56.5t11 63.5q0 23 -9.5 39.5t-32.5 18.5
q0 -63 -21.5 -115t-62 -89.5t-99.5 -58t-134 -20.5q-94 0 -167.5 29t-137.5 82t-122 126.5t-120 163.5q-48 7 -93 31t-79.5 61.5t-55 85.5t-20.5 103q0 59 18 110.5t50.5 89.5t78.5 59.5t103 21.5q34 0 61 -6t48 -16.5t37.5 -23.5t29.5 -28q19 8 30.5 24.5t11.5 37.5
q0 20 -7.5 34.5t-15.5 22.5h-490q-31 43 -46 84.5t-15 95.5q0 28 4 51.5t11.5 45.5t19 43t26.5 44h1621zM742 470q42 -55 108 -86.5t150 -31.5q19 0 44 2.5t46.5 8.5t36.5 16.5t15 26.5q0 9 -4 17q-61 -26 -137 -26q-59 0 -107.5 19.5t-84 54.5t-55 82.5t-19.5 104.5
q0 60 22.5 108.5t60.5 83t88.5 53.5t107.5 19q42 0 73.5 -5t58.5 -17q4 8 4 17q0 16 -15.5 26t-38 15t-48 7t-45.5 2q-67 0 -125.5 -23t-102 -64.5t-68.5 -98t-25 -123.5q0 -82 33 -145q-23 -28 -71.5 -43t-106.5 -15q-10 0 -25 1t-25 3q-1 -2 -1 -4.5v-4.5q0 -14 8 -22
t20 -11.5t26.5 -4.5t28.5 -1q60 0 104.5 19.5t68.5 39.5z" />
    <glyph glyph-name="Ga.dv" unicode="&#x917;" horiz-adv-x="1167" 
d="M733 659q0 82 -16.5 147t-40 110t-49 68.5t-44.5 23.5t-30 -15q25 -23 48 -56.5t40.5 -75.5t28 -93t10.5 -109q0 -71 -18.5 -139.5t-60 -123.5t-109 -88.5t-164.5 -33.5q-70 0 -127 21.5t-97 58.5t-62 86t-22 105q0 41 9 80t24 71q13 -6 27.5 -9t25.5 -3q45 0 73 29.5
t28 95.5q0 26 -6.5 50.5t-17 45.5t-23.5 37t-25 25h-160q-31 43 -46 84.5t-15 95.5q0 28 4 51.5t11.5 45.5t19 43t26.5 44h1216q15 -23 26.5 -44t19 -43t11.5 -45.5t4 -51.5q0 -54 -15 -95.5t-46 -84.5h-50v-582q0 -36 3.5 -63.5t10.5 -50t17.5 -40.5t25.5 -36
q-10 -50 -34 -87.5t-59 -63.5t-78.5 -39t-92.5 -13q-51 0 -101 14t-90 46t-65 83t-25 125v109q16 24 30.5 53.5t25.5 65t17.5 78t6.5 93.5z" />
    <glyph glyph-name="Gha.dv" unicode="&#x918;" horiz-adv-x="1102" 
d="M1126 1331q15 -23 26.5 -44t19 -43t11.5 -45.5t4 -51.5q0 -54 -15 -95.5t-46 -84.5h-50v-582q0 -36 3.5 -63.5t11 -50t18 -40.5t25.5 -36q-10 -50 -34 -87.5t-59 -63.5t-78.5 -39t-92.5 -13q-40 0 -80 9t-75.5 28t-63.5 49t-44 72q19 3 43 12t48.5 22t48.5 29t42.5 33
t29.5 35t11 34q0 19 -20 27q-54 -78 -149.5 -123t-221.5 -45q-81 0 -149.5 20t-118 57.5t-77 91t-27.5 120.5q0 32 9 62.5t24.5 56t37 44.5t45.5 28q27 -9 64.5 -16.5t89.5 -7.5q75 0 113.5 13t38.5 35q0 11 -7 18q-23 -7 -57.5 -13.5t-85.5 -6.5q-54 0 -101.5 14t-82 42.5
t-54.5 70.5t-20 98q0 24 6 51t18.5 52.5t32.5 48t48 37.5q-2 11 -9 16t-16 5q-18 0 -36.5 -11.5t-35 -31t-29.5 -45.5t-20 -56h-72q-31 43 -46 84.5t-15 95.5q0 28 4 51.5t11.5 45.5t19 43t26.5 44h1158z" />
    <glyph glyph-name="Nga.dv" unicode="&#x919;" horiz-adv-x="1362" 
d="M707 733q30 0 68 -5.5t80 -20.5q-2 -15 -3 -30t-1 -29q0 -50 16.5 -94.5t46.5 -79.5t71 -58.5t90 -32.5v-5q-1 -95 -37 -171t-103 -130t-163 -83t-217 -29q-106 0 -201 25t-167 72t-114 114t-42 152q0 33 7.5 64.5t26 58.5t49.5 48.5t79 35.5q12 -23 40 -54.5t72.5 -59.5
t104.5 -47.5t137 -19.5q9 0 23.5 0.5t28.5 4t24 10.5t10 20q0 5 -2 13q-17 -2 -31 -2.5t-46 -0.5q-47 0 -97 11.5t-95.5 34.5t-83 59t-59.5 84q-34 -6 -62.5 -16t-56.5 -27q-11 15 -23 35t-22 44.5t-16 53t-6 59.5q0 72 26 129t71.5 97.5t106.5 62t130 21.5q33 0 59 -2
t47 -5t39 -7.5t35 -8.5q3 7 3 14q0 19 -22.5 30t-52.5 16.5t-59.5 6.5t-42.5 1q-100 0 -176 -31t-128 -94h-94q-31 43 -46 84.5t-15 95.5q0 28 4 51.5t11.5 45.5t19 43t26.5 44h1399q15 -23 26.5 -44t19.5 -43t12 -45.5t4 -51.5q0 -54 -15.5 -95.5t-46.5 -84.5h-379v-88
q-45 -20 -74.5 -52.5t-48.5 -74.5q-37 12 -78.5 19t-86.5 7q-36 0 -66.5 -2.5t-53.5 -9.5t-36 -18t-13 -27q0 -8 5 -16q35 15 75.5 21.5t88.5 6.5zM906 645q0 45 17 85t46.5 70t69 47t84.5 17q48 0 88 -17t69 -47t45.5 -70t16.5 -85q0 -48 -17 -88t-46.5 -68.5t-68.5 -44.5
t-82 -16q-47 0 -87.5 17t-70.5 46.5t-47 69t-17 84.5z" />
    <glyph glyph-name="Ca.dv" unicode="&#x91a;" horiz-adv-x="1326" 
d="M1411 1147q0 -54 -15 -95.5t-46 -84.5h-50v-582q0 -36 3.5 -63.5t11 -50t18 -40.5t25.5 -36q-10 -50 -34 -87.5t-59 -63.5t-78.5 -39t-92.5 -13q-88 0 -157 32t-108 89q29 13 62.5 33t61.5 43t46.5 46.5t18.5 43.5q0 22 -21 32q-24 -37 -64 -73.5t-94.5 -66t-122.5 -47.5
t-147 -18q-101 0 -182 25t-137.5 70t-86.5 108.5t-30 141.5q0 40 9.5 76.5t25.5 62.5q-30 3 -57 19.5t-47 42.5t-32 60.5t-12 73.5q0 38 10 76t27 60h723q17 -26 30 -69t13 -87q0 -39 -11 -71.5t-31.5 -56.5t-49 -37t-63.5 -13h-80q-17 -15 -17 -35q0 -22 17.5 -35.5
t52.5 -13.5q9 0 20 2t22.5 6.5t22 13t17.5 21.5q31 8 59 24t49 42.5t33 64.5t12 89q0 32 -6 62t-15 56t-20.5 47t-22.5 35h-837q-31 43 -46 84.5t-15 95.5q0 28 4 51.5t11.5 45.5t19 43t26.5 44h1375q15 -23 26.5 -44t19 -43t11.5 -45.5t4 -51.5z" />
    <glyph glyph-name="Cha.dv" unicode="&#x91b;" horiz-adv-x="1292" 
d="M43 380q0 61 22.5 114t63.5 92t98.5 61t127.5 22q20 0 43.5 -3t37.5 -10q1 2 2 5q1 2 2 5.5t1 6.5q0 12 -8.5 20t-22 12.5t-32 6.5t-37.5 2q-66 0 -113 -14.5t-72 -26.5q-21 14 -36 38t-24 51t-13.5 55t-4.5 50q0 38 10 73t28 64.5t42.5 52t54.5 36.5q-4 13 -14 16.5
t-20 3.5q-17 0 -37.5 -11t-39.5 -30.5t-35 -46.5t-25 -58h-67q-31 43 -46 84.5t-15 95.5q0 28 4 51.5t11.5 45.5t19 43t26.5 44h1327q15 -23 26.5 -44t19 -43t11.5 -45.5t4 -51.5q0 -54 -15 -95.5t-46 -84.5h-169q-23 11 -49.5 18.5t-63.5 13.5v27q0 28 -2.5 44.5t-9 24.5
t-16.5 10.5t-25 2.5v-107q-72 0 -132.5 -25t-104.5 -69.5t-68.5 -106.5t-24.5 -136q0 -68 23.5 -123.5t58 -95.5t74.5 -62t73 -22q11 0 16 6t5 15v5q-35 12 -70 35t-63 57t-46 79.5t-18 103.5q0 61 20 114.5t56.5 93.5t88.5 63t116 23q74 0 130.5 -28t94.5 -76t57 -113
t19 -139q0 -109 -25.5 -197.5t-71 -158t-108 -120.5t-135.5 -84t-153.5 -49t-162.5 -16q-137 0 -243.5 30.5t-179.5 84.5t-111.5 128t-38.5 162z" />
    <glyph glyph-name="Ja.dv" unicode="&#x91c;" horiz-adv-x="1382" 
d="M1406 1331q15 -23 26.5 -44t19 -43t11.5 -45.5t4 -51.5q0 -54 -15 -95.5t-46 -84.5h-50v-582q0 -36 3.5 -63.5t10.5 -50t17.5 -40.5t25.5 -36q-10 -50 -34 -87.5t-59 -63.5t-78.5 -39t-92.5 -13q-40 0 -79.5 8.5t-74.5 27.5t-62.5 48.5t-43.5 70.5q69 63 98 128t29 137
q0 33 -6.5 61.5t-17 49t-25 32.5t-29.5 12q-6 0 -10.5 -0.5t-9.5 -3.5q21 -32 33 -70.5t12 -80.5q0 -57 -23.5 -113t-71 -101t-120 -72.5t-170.5 -27.5q-120 0 -222 37t-177 99.5t-117 146t-42 176.5q0 62 21 112.5t58.5 86.5t90 55.5t115.5 19.5q-3 -15 -3.5 -27.5
t-0.5 -25.5q0 -65 19.5 -118t54 -91t81.5 -59t103 -21q55 0 55 41q-64 0 -112.5 18t-81.5 51t-49.5 79.5t-16.5 103.5q0 15 2 34t6.5 38t11 37t15.5 31h555q0 22 -12.5 33.5t-57.5 11.5h-879q-31 43 -46 84.5t-15 95.5q0 28 4 51.5t11.5 45.5t19 43t26.5 44h1411z" />
    <glyph glyph-name="Jha.dv" unicode="&#x91d;" horiz-adv-x="1513" 
d="M1012 663q32 26 44.5 68.5t12.5 109.5v122q0 37 -13 59t-40 22v-187q0 -51 -4.5 -81t-15.5 -47q-57 35 -127 56.5t-163 21.5q-72 0 -112.5 -14t-40.5 -41q0 -5 2 -13q20 8 54.5 15.5t88.5 7.5q85 0 163.5 -24t150.5 -75zM1537 1331q15 -23 26.5 -44t19 -43t11.5 -45.5
t4 -51.5q0 -54 -15 -95.5t-46 -84.5h-50v-582q0 -36 3.5 -63.5t10.5 -50t17.5 -40.5t25.5 -36q-10 -50 -34 -87.5t-58.5 -63.5t-78.5 -39t-93 -13q-37 0 -74 7.5t-70.5 24t-61.5 42t-46 61.5q19 18 37 42.5t32 53t22.5 59t8.5 60.5q0 20 -10 32t-33 17q-3 -91 -41 -157.5
t-100.5 -112t-145 -71t-173.5 -34.5q0 -18 18 -27t43 -9q31 0 64.5 5.5t64.5 14t55.5 18.5t36.5 19q6 -22 10.5 -52.5t4.5 -51.5q0 -53 -16.5 -93.5t-46.5 -69t-71.5 -43t-91.5 -14.5q-60 0 -111 21.5t-93.5 61.5t-76.5 97t-61 127q-87 11 -148.5 28t-113.5 42
q-19 35 -35 80.5t-16 102.5q0 53 19 99t55 79.5t88.5 53t120.5 19.5q56 0 104.5 -19t85.5 -51.5t60 -76t28 -91.5q11 1 22 10t11 32q0 33 -20 75t-59 79t-97 62t-134 25q-41 0 -71 -4t-52.5 -10.5t-40 -14.5t-32.5 -16q-17 18 -32.5 40t-28 49t-20 61t-7.5 76q0 60 26 110.5
t71 87t104.5 56.5t127.5 20h171q1 3 1 9q0 15 -12.5 25.5t-41.5 10.5h-118q-60 0 -106.5 -10.5t-81 -26.5t-58 -33.5t-38.5 -31.5h-111q-31 43 -46 84.5t-15 95.5q0 28 4 51.5t11.5 45.5t19 43t26.5 44h1562z" />
    <glyph glyph-name="Nya.dv" unicode="&#x91e;" horiz-adv-x="1201" 
d="M1225 1331q15 -23 26.5 -44t19 -43t11.5 -45.5t4 -51.5q0 -54 -15 -95.5t-46 -84.5h-50v-582q0 -36 3.5 -63.5t10.5 -50t17.5 -40.5t25.5 -36q-10 -50 -34 -87.5t-58.5 -63.5t-78.5 -39t-93 -13q-38 0 -76.5 8t-73.5 26t-64 47.5t-47 72.5q31 21 63 52.5t57 67.5t41 74
t16 74q0 20 -9 33.5t-26 13.5q-14 -79 -52.5 -142t-94 -107t-125 -67.5t-145.5 -23.5q-86 0 -161 25t-130.5 69t-88 105.5t-32.5 135.5q0 26 6 54t17 53t26 45.5t33 32.5q26 -25 58.5 -46t69.5 -36t76 -23.5t78 -8.5q48 0 74.5 18.5t26.5 50.5q0 27 -14 40t-34 13
q-18 0 -36 -16t-23 -61q-23 0 -54 6t-64 18.5t-67 32t-62 47.5t-49 64.5t-29 82.5q23 62 65 108.5t93.5 77.5t106.5 46.5t105 15.5q123 0 215.5 -52t149.5 -140q26 5 26 28q0 17 -25 52t-73 70t-118.5 61t-161.5 26q-59 0 -110 -11.5t-95 -32t-81.5 -47.5t-69.5 -58h-116
q-31 43 -46 84.5t-15 95.5q0 28 4 51.5t11.5 45.5t19 43t26.5 44h1261z" />
    <glyph glyph-name="Tta.dv" unicode="&#x91f;" horiz-adv-x="1091" 
d="M972 967q8 -35 12.5 -61.5t4.5 -55.5q0 -87 -37 -145t-93 -96t-121 -59.5t-121 -36.5t-93 -27.5t-37 -30.5q0 -22 23 -29.5t61 -7.5q46 0 98.5 13.5t100.5 34.5t86.5 46t56.5 49q33 -17 62 -41t50 -54.5t33.5 -67.5t12.5 -79q0 -74 -40 -135t-108.5 -104t-159.5 -66.5
t-192 -23.5q-123 0 -224.5 33t-174 93.5t-112.5 145t-40 187.5q0 89 29.5 160.5t79.5 125.5t117 90.5t141 55.5q48 12 82.5 26t56 31.5t31.5 39.5t10 52q0 15 -2 30.5t-7.5 28t-15 21t-24.5 8.5q-7 0 -12.5 -2t-9.5 -4q9 -20 13.5 -36t4.5 -38q0 -20 -8.5 -41.5t-28.5 -29.5
h-477q-31 43 -46 84.5t-15 95.5q0 28 4 51.5t11.5 45.5t19 43t26.5 44h1081q15 -23 26.5 -44t19 -43t11.5 -45.5t4 -51.5q0 -54 -15 -95.5t-46 -84.5h-109z" />
    <glyph glyph-name="Ttha.dv" unicode="&#x920;" horiz-adv-x="1184" 
d="M613 477q-51 -14 -75 -29t-24 -38q0 -20 23 -30.5t58 -10.5q31 0 53 11.5t22 33.5q0 24 -16 38t-41 25zM1192 1331q15 -23 26.5 -44t19.5 -43t12 -45.5t4 -51.5q0 -54 -15.5 -95.5t-46.5 -84.5h-189q3 -16 4.5 -35t1.5 -35q0 -28 -9.5 -59t-27.5 -50q-22 11 -53 22
t-56 11q-18 0 -28 -7t-15 -26q76 -18 139.5 -58t109 -94t70.5 -118.5t25 -132.5q0 -108 -43 -187t-117.5 -130.5t-175.5 -76t-217 -24.5q-132 0 -241 30.5t-186.5 89t-120.5 142.5t-43 191q0 76 22 146t67 129t113 104.5t160 72.5q49 15 85.5 29.5t60.5 33t35.5 41.5
t11.5 54q0 33 -8.5 51.5t-31.5 18.5q-13 0 -20 -4q2 -13 4 -26.5t2 -27.5q0 -30 -13.5 -48.5t-33.5 -26.5h-478q-30 43 -45.5 84.5t-15.5 95.5q0 28 4 51.5t11.5 45.5t19 43t26.5 44h1196z" />
    <glyph glyph-name="Dda.dv" unicode="&#x921;" horiz-adv-x="1095" 
d="M707 733q30 0 69 -6t80 -20.5t80 -40t70 -64.5t50 -93t19 -126q0 -95 -35.5 -172.5t-103 -132t-164 -84t-217.5 -29.5q-106 0 -201 25t-167 72t-114 114t-42 152q0 33 7.5 64.5t26 58.5t49.5 48.5t79 35.5q12 -23 40 -54.5t72.5 -59.5t104.5 -47.5t137 -19.5
q9 0 23.5 0.5t28.5 4t24 10.5t10 20q0 5 -2 13q-17 -2 -31 -2.5t-46 -0.5q-47 0 -97 11.5t-95.5 34.5t-83 59t-59.5 84q-34 -6 -62.5 -16t-56.5 -27q-11 15 -23 35t-22 44.5t-16 53t-6 59.5q0 72 26 129t71.5 97.5t106.5 62t130 21.5q33 0 59 -2t47 -5t39 -7.5t35 -8.5
q3 7 3 14q0 19 -22.5 30t-52.5 16.5t-59.5 6.5t-42.5 1q-100 0 -176 -31t-128 -94h-97q-31 43 -46 84.5t-15 95.5q0 28 4 51.5t11.5 45.5t19 43t26.5 44h1131q15 -23 26.5 -44t19.5 -43t12 -45.5t4 -51.5q0 -54 -15.5 -95.5t-46.5 -84.5h-108v-119q0 -40 -17 -74.5
t-46 -46.5q-45 23 -102 37t-123 14q-36 0 -66.5 -2.5t-53.5 -9.5t-36 -18t-13 -27q0 -8 5 -16q35 15 75.5 21.5t88.5 6.5z" />
    <glyph glyph-name="Ddha.dv" unicode="&#x922;" horiz-adv-x="1166" 
d="M769 332q29 0 51.5 9t22.5 38q0 14 -9.5 24.5t-25.5 10.5q-21 0 -33 -14.5t-12 -37.5q0 -14 6 -30zM628 1087q0 27 -9 37.5t-28 10.5h-14v-27q0 -37 -21 -53t-72 -27q-34 -7 -60.5 -13.5t-49 -13.5t-44 -15t-45.5 -19h-299q-31 43 -46.5 84.5t-15.5 95.5q0 28 4 51.5
t12 45.5t19.5 43t26.5 44h1188q15 -23 26.5 -44t19.5 -43t12 -45.5t4 -51.5q0 -54 -15.5 -95.5t-46.5 -84.5h-151q2 -20 3 -42t1 -42q0 -51 -16.5 -89t-40.5 -58q-33 13 -72.5 21.5t-87.5 8.5q-83 0 -150.5 -23t-116 -64t-75 -97t-26.5 -123q0 -29 4.5 -54t13.5 -44.5
t21.5 -30.5t29.5 -11q7 0 12 3q-12 23 -20 56t-8 71q0 55 23 104.5t64 86.5t99 59t129 22q79 0 141.5 -28t105.5 -75t66 -108.5t23 -128.5q0 -104 -39.5 -182t-109.5 -130t-166.5 -78t-210.5 -26q-129 0 -239 36t-190 102t-125.5 159t-45.5 207q0 91 22.5 162t59.5 124.5
t85.5 91.5t101 64.5t105.5 42.5t99 25q75 15 105 42.5t30 65.5z" />
    <glyph glyph-name="Nna.dv" unicode="&#x923;" horiz-adv-x="1407" 
d="M462 967q-1 -20 -2 -36t-2 -32.5t-1.5 -35.5t-0.5 -44q0 -40 10.5 -55.5t28.5 -15.5q17 0 27.5 13t10.5 53q0 42 -5 83t-10 70h-56zM1431 1331q15 -23 26.5 -44t19 -43t11.5 -45.5t4 -51.5q0 -54 -15 -95.5t-46 -84.5h-50v-582q0 -36 3.5 -63.5t11 -50t18 -40.5t25.5 -36
q-10 -50 -34 -87.5t-59 -63.5t-78.5 -39t-92.5 -13q-51 0 -101.5 14t-90 45.5t-64.5 82t-25 124.5v118q57 63 89 146.5t32 200.5q0 62 -6.5 113t-18 87t-28 55.5t-35.5 19.5q-13 0 -21 -5q15 -26 25.5 -58.5t17.5 -67t10 -69.5t3 -66q0 -111 -36 -197t-99 -144t-149 -88
t-186 -30q-91 0 -175.5 29.5t-149 90t-103 152.5t-38.5 216q0 54 2.5 104.5t6.5 101.5h-59q-31 43 -46 84.5t-15 95.5q0 28 4 51.5t11.5 45.5t19 43t26.5 44h1455z" />
    <glyph glyph-name="Ta.dv" unicode="&#x924;" horiz-adv-x="1139" 
d="M479 1042q-51 0 -93 -4.5t-79.5 -14t-72 -23.5t-70.5 -33h-188q-31 43 -46 84.5t-15 95.5q0 28 4 51.5t11.5 45.5t19 43t26.5 44h1187q15 -23 26.5 -44t19 -43t11.5 -45.5t4 -51.5q0 -54 -15 -95.5t-46 -84.5h-50v-582q0 -36 3.5 -63.5t11 -50t18 -40.5t25.5 -36
q-10 -50 -34 -87.5t-59 -63.5t-78.5 -39t-92.5 -13q-36 0 -72 7t-69 22t-60.5 39t-46.5 58q15 21 24.5 50.5t9.5 61.5q0 38 -16 83.5t-51 105.5v167q-11 8 -24 12t-25 4q-23 0 -39 -17.5t-16 -49.5q0 -22 19 -58.5t41.5 -78t41.5 -84t19 -76.5q0 -59 -28 -104t-76.5 -76.5
t-113.5 -49.5t-138 -24l-58 75q-100 130 -154.5 257t-54.5 251q0 104 32.5 184t92.5 135t145 83t189 28q50 0 98.5 -6.5t87.5 -17.5q2 5 2 13q0 16 -16.5 27t-43 17.5t-60.5 9t-68 2.5z" />
    <glyph glyph-name="Tha.dv" unicode="&#x925;" horiz-adv-x="1355" 
d="M583 573q5 -17 16.5 -22.5t26.5 -5.5q20 0 44.5 11t39.5 20q36 22 69 58t58.5 83t41 104t15.5 121q0 71 -14.5 125t-31.5 92q-20 44 -46 76q3 28 20 53.5t40 42.5h517q15 -23 26.5 -44t19 -43t11.5 -45.5t4 -51.5q0 -54 -15 -95.5t-46 -84.5h-50v-582q0 -36 3.5 -63.5
t10.5 -50t17.5 -40.5t25.5 -36q-10 -50 -34 -87.5t-59 -63.5t-78.5 -39t-92.5 -13q-97 0 -168.5 42.5t-102.5 127.5q78 37 115 71.5t37 59.5q0 20 -17 32q-29 -36 -68 -65.5t-87 -51.5t-105.5 -34t-121.5 -12q-123 0 -229.5 39t-185.5 113.5t-124 181.5t-45 244
q14 -2 33.5 -2h42.5q84 0 150.5 14.5t112.5 41.5t70.5 65.5t24.5 86.5q0 36 -14.5 50t-34.5 14q-15 0 -27 -11.5t-12 -31.5q0 -19 9.5 -32.5t23.5 -19.5q-8 -30 -30 -53t-53.5 -39.5t-70 -26t-80.5 -12.5q-21 7 -46.5 27t-48.5 51.5t-38.5 72.5t-15.5 89q0 72 28.5 135.5
t81.5 111t128.5 74.5t168.5 27q109 0 188 -39t130 -100.5t75.5 -136t24.5 -146.5q0 -84 -23 -149t-60 -111.5t-83 -75.5t-92 -41z" />
    <glyph glyph-name="Da.dv" unicode="&#x926;" horiz-adv-x="1136" 
d="M1138 1331q15 -23 26.5 -44t19.5 -43t12 -45.5t4 -51.5q0 -54 -15.5 -95.5t-46.5 -84.5h-95v-33q0 -38 -7.5 -75.5t-25.5 -67.5t-48 -49t-75 -19q-38 6 -78 6q-61 0 -117.5 -16.5t-100 -49.5t-69.5 -83t-26 -117q0 -87 46 -87q9 0 15 3q-5 17 -6.5 37.5t-1.5 42.5
q0 57 22 99t58.5 70t83 42t94.5 14q54 0 103 -20t89 -58.5t70 -93.5t47 -125q-7 -23 -19 -46.5t-26 -45t-29 -41t-28 -33.5l110 -174q0 -54 -19 -100.5t-53.5 -80.5t-83.5 -53.5t-110 -19.5q-57 0 -104 18.5t-81.5 48t-55.5 66.5t-27 74q17 0 40.5 2t48.5 6t49.5 10t44 15
t31.5 20.5t12 25.5q0 11 -7 21q-46 -24 -106.5 -39.5t-139.5 -15.5q-117 0 -216 34t-172 96t-114 150.5t-41 196.5q0 123 42 214t117.5 151.5t180 90.5t228.5 30q0 28 -21.5 35t-62.5 7q-40 0 -83 -7t-83 -18.5t-74.5 -26.5t-58.5 -31h-230q-31 43 -46 84.5t-15 95.5
q0 28 4 51.5t11.5 45.5t19 43t26.5 44h1163z" />
    <glyph glyph-name="Dha.dv" unicode="&#x927;" horiz-adv-x="1252" 
d="M1276 1331q15 -23 26.5 -44t19 -43t11.5 -45.5t4 -51.5q0 -54 -15 -95.5t-46 -84.5h-50v-582q0 -36 3.5 -63.5t10.5 -50t17.5 -40.5t25.5 -36q-10 -50 -34 -87.5t-59 -63.5t-78.5 -39t-92.5 -13q-71 0 -134.5 27t-101.5 79q46 20 83.5 47.5t63.5 55.5t40 52.5t14 39.5
q0 25 -27 39q-24 -54 -70.5 -98.5t-108 -76t-134.5 -48.5t-150 -17q-100 0 -181.5 22.5t-139.5 64t-89.5 101.5t-31.5 135q0 34 10.5 68.5t28.5 63t42.5 50t53.5 30.5q38 -19 96.5 -33t127.5 -14q46 0 71 7.5t25 30.5q0 7 -2 15q-22 -5 -47.5 -6.5t-46.5 -1.5
q-60 0 -115 13.5t-104 40.5q-42 23 -77.5 56t-61 76t-40 95t-14.5 113q0 88 31 155.5t82 113.5t117 70t137 24q69 0 124.5 -18.5t95 -52t60.5 -81.5t21 -106t-20 -97.5t-51.5 -63.5t-69.5 -34.5t-74 -10.5q-68 0 -110 33q-6 -3 -9.5 -10t-3.5 -13q0 -12 10.5 -22t27.5 -17.5
t39.5 -11.5t45.5 -4q46 0 94 13t87 42t64 77t25 119q0 28 -3.5 55t-12.5 56q3 28 19.5 53.5t39.5 42.5h511z" />
    <glyph glyph-name="Na.dv" unicode="&#x928;" horiz-adv-x="1187" 
d="M1211 1331q15 -23 26.5 -44t19 -43t11.5 -45.5t4 -51.5q0 -54 -15 -95.5t-46 -84.5h-50v-582q0 -36 3.5 -63.5t10.5 -50t17.5 -40.5t25.5 -36q-10 -50 -34 -87.5t-59 -63.5t-78.5 -39t-92.5 -13q-51 0 -99.5 14t-86.5 46t-61 83t-23 125v283q-19 22 -66 22q-6 0 -12.5 -1
t-11.5 -3q8 -12 19.5 -46t11.5 -79q0 -54 -16 -99t-48 -77.5t-79.5 -51t-110.5 -18.5q-73 0 -137 29.5t-111.5 80t-75 118.5t-27.5 145q0 92 32 159.5t89.5 112t136 66t171.5 21.5q43 0 77 -3.5t62 -9t51 -13.5t45 -17v88h-694q-31 43 -46 84.5t-15 95.5q0 28 4 51.5
t11.5 45.5t19 43t26.5 44h1221z" />
    <glyph glyph-name="NaNukta.dv" unicode="&#x929;" horiz-adv-x="1187" 
d="M396 2q0 28 11 52.5t29.5 43t43 29t51.5 10.5q28 0 52.5 -10.5t43 -29t29.5 -43t11 -52.5q0 -30 -11 -54.5t-29.5 -42.5t-43 -28t-52.5 -10q-30 0 -54.5 11t-42.5 29.5t-28 43t-10 51.5zM1211 1331q15 -23 26.5 -44t19 -43t11.5 -45.5t4 -51.5q0 -54 -15 -95.5t-46 -84.5
h-50v-582q0 -36 3.5 -63.5t10.5 -50t17.5 -40.5t25.5 -36q-10 -50 -34 -87.5t-59 -63.5t-78.5 -39t-92.5 -13q-51 0 -99.5 14t-86.5 46t-61 83t-23 125v283q-19 22 -66 22q-6 0 -12.5 -1t-11.5 -3q8 -12 19.5 -46t11.5 -79q0 -54 -16 -99t-48 -77.5t-79.5 -51t-110.5 -18.5
q-73 0 -137 29.5t-111.5 80t-75 118.5t-27.5 145q0 92 32 159.5t89.5 112t136 66t171.5 21.5q43 0 77 -3.5t62 -9t51 -13.5t45 -17v88h-694q-31 43 -46 84.5t-15 95.5q0 28 4 51.5t11.5 45.5t19 43t26.5 44h1221z" />
    <glyph glyph-name="Pa.dv" unicode="&#x92a;" horiz-adv-x="1063" 
d="M552 967h-57q-3 -11 -6 -40t-3 -55q0 -38 14 -68t52 -36v199zM1087 1331q15 -23 26.5 -44t19 -43t11.5 -45.5t4 -51.5q0 -54 -15 -95.5t-46 -84.5h-50v-582q0 -36 3.5 -63.5t11 -50t18 -40.5t25.5 -36q-10 -50 -34 -87.5t-59 -63.5t-79 -39t-93 -13q-51 0 -101 14
t-89.5 46t-64.5 83t-25 125v41q33 4 71.5 16.5t72 30.5t55.5 39.5t22 42.5q0 19 -14 30q-24 -28 -59 -50.5t-75.5 -38t-85.5 -23.5t-89 -8q-97 0 -175 30t-133 85.5t-84.5 134t-29.5 174.5q0 54 4 104.5t12 98.5h-68q-31 43 -46 84.5t-15 95.5q0 28 4 51.5t11.5 45.5t19 43
t26.5 44h1113z" />
    <glyph glyph-name="Pha.dv" unicode="&#x92b;" horiz-adv-x="1652" 
d="M552 967h-57q-3 -11 -6 -40t-3 -55q0 -38 14 -68t52 -36v199zM731 435q-26 -23 -59 -40.5t-69.5 -29.5t-76 -18.5t-78.5 -6.5q-97 0 -175 30t-133 85.5t-84.5 134t-29.5 174.5q0 54 4 104.5t12 98.5h-68q-31 43 -46 84.5t-15 95.5q0 28 4 51.5t11.5 45.5t19 43t26.5 44
h1681q15 -23 26.5 -44t19.5 -43t12 -45.5t4 -51.5q0 -54 -15.5 -95.5t-46.5 -84.5h-164q-45 29 -108 51t-144 22q-47 0 -86 -7.5t-67 -20t-44 -28.5t-16 -32q0 -15 6 -22q45 32 94.5 48.5t112.5 16.5q91 0 163.5 -35.5t123.5 -93.5t78.5 -132t27.5 -150q0 -98 -28 -174.5
t-75 -129t-108.5 -80.5t-128.5 -28q-118 0 -183 63.5t-65 177.5q0 73 30 150q8 -5 16.5 -8.5t19.5 -3.5q20 0 32 15.5t12 39.5q0 28 -18.5 42.5t-42.5 14.5q-12 0 -24 -3q-14 -14 -28 -39.5t-25 -58.5t-18 -71.5t-7 -77.5q0 -47 9 -83t24 -64t33 -47.5t36 -33.5
q-7 -32 -25 -66t-49.5 -62t-78 -46.5t-110.5 -18.5q-51 0 -101 14t-89.5 46t-64.5 83t-25 125v41q20 3 52.5 11.5t63 22t53 32t22.5 40.5q0 14 -10 28z" />
    <glyph glyph-name="Ba.dv" unicode="&#x92c;" horiz-adv-x="1077" 
d="M582 150q12 1 37 7.5t50 17t43.5 25.5t18.5 34q0 13 -10 23q-13 -10 -34.5 -22.5t-51.5 -23t-68.5 -18t-84.5 -7.5q-84 0 -166.5 25.5t-148 77.5t-106.5 131t-41 187q0 115 38.5 197t103 134t147.5 76.5t173 24.5q73 0 135 -18t98 -42q4 9 4 18q0 19 -20.5 35t-54 27.5
t-76.5 18t-88 6.5q-121 0 -209.5 -31.5t-151.5 -85.5h-144q-31 43 -46 84.5t-15 95.5q0 28 4 51.5t11.5 45.5t19 43t26.5 44h1126q15 -23 26.5 -44t19 -43t11.5 -45.5t4 -51.5q0 -54 -15 -95.5t-46 -84.5h-50v-582q0 -36 3.5 -63.5t10.5 -50t17.5 -40.5t25.5 -36
q-10 -50 -34 -87.5t-59 -63.5t-78.5 -39t-92.5 -13q-38 0 -77 8t-74 26.5t-64 48.5t-47 75zM385 780q-20 -11 -20 -34q0 -19 16.5 -47.5t42.5 -60.5t59 -64t65.5 -58t61.5 -42t48 -16q12 0 20 4.5t14 12.5q-22 12 -50.5 33.5t-59.5 49t-62 58.5t-57.5 61t-47 57t-30.5 46z
" />
    <glyph glyph-name="Bha.dv" unicode="&#x92d;" horiz-adv-x="1384" 
d="M1408 1331q15 -23 26.5 -44t19 -43t11.5 -45.5t4 -51.5q0 -54 -15 -95.5t-46 -84.5h-50v-582q0 -36 3.5 -63.5t10.5 -50t17.5 -40.5t25.5 -36q-10 -50 -34 -87.5t-58.5 -63.5t-78.5 -39t-93 -13q-51 0 -101 14t-90 46t-65 83t-25 125v173q-9 6 -24.5 8.5t-26.5 2.5v-73
q0 -59 -20 -107.5t-56.5 -83t-88 -53t-113.5 -18.5q-77 0 -148.5 25t-127 70.5t-89 110.5t-33.5 146q0 118 81 188t229 88v129q0 16 -2 34.5t-8 34t-18 26t-32 10.5q-17 0 -31 -11.5t-14 -31.5t14 -33t35 -18v-97q-21 -4 -47 -12t-52.5 -19.5t-52 -26.5t-46.5 -32
q-35 11 -70.5 37.5t-64 66.5t-46.5 92t-18 115q0 69 28 135.5t79.5 119t125.5 84.5t166 32q112 0 193.5 -33t134.5 -94.5t78.5 -149.5t25.5 -198v-139q10 -2 25.5 -5t28.5 -8v199q0 31 -5.5 70.5t-15.5 79.5t-25 77t-34 64q3 28 19.5 53.5t39.5 42.5h544z" />
    <glyph glyph-name="Ma.dv" unicode="&#x92e;" horiz-adv-x="1250" 
d="M1274 1331q15 -23 26.5 -44t19 -43t11.5 -45.5t4 -51.5q0 -54 -15 -95.5t-46 -84.5h-50v-582q0 -36 3.5 -63.5t10.5 -50t17.5 -40.5t25.5 -36q-10 -50 -34 -87.5t-59 -63.5t-78.5 -39t-92.5 -13q-51 0 -99.5 14t-86.5 46t-61 83t-23 125v209q-11 13 -21.5 18t-33.5 5v-82
q0 -50 -17.5 -97.5t-52 -84.5t-86.5 -59t-121 -22q-77 0 -148.5 29t-126 80t-87.5 120t-33 150q0 221 205 285v156h-225q-31 43 -46.5 84.5t-15.5 95.5q0 28 4 51.5t12 45.5t19.5 43t26.5 44h1274zM747 967h-55v-148q15 -3 28.5 -6.5t26.5 -7.5v162z" />
    <glyph glyph-name="Ya.dv" unicode="&#x92f;" horiz-adv-x="1206" 
d="M635 956q12 -13 23.5 -31.5t20.5 -41t14.5 -47.5t5.5 -51q0 -52 -18 -90.5t-48.5 -64.5t-71.5 -39t-86 -13v-7q0 -18 12 -26.5t39 -8.5q37 0 77 15.5t73 46t54.5 77.5t21.5 110q0 37 -9 71t-23 59.5t-30.5 40.5t-30.5 15q-6 0 -13.5 -4t-10.5 -11zM1230 1331
q15 -23 26.5 -44t19 -43t11.5 -45.5t4 -51.5q0 -54 -15 -95.5t-46 -84.5h-50v-582q0 -36 3 -63.5t10 -50t17 -40.5t25 -36q-10 -50 -34 -87.5t-59 -63.5t-78.5 -39t-92.5 -13q-41 0 -80.5 9t-74 28t-61.5 46.5t-42 65.5q33 6 66 20t59.5 31.5t43.5 37.5t17 38q0 19 -14 25
q-27 -26 -60 -48t-73.5 -38t-91 -24.5t-113.5 -8.5q-102 0 -197.5 32t-168.5 93t-117 149.5t-44 202.5q0 54 13 98t26 68q13 -8 31.5 -13t40.5 -5q45 0 71.5 24.5t26.5 61.5q0 32 -18 52t-41 30h-180q-31 43 -46 84.5t-15 95.5q0 28 4 51.5t11.5 45.5t19 43t26.5 44h1240z
" />
    <glyph glyph-name="Ra.dv" unicode="&#x930;" horiz-adv-x="972" 
d="M664 -29q-77 0 -138 29.5t-111 85t-92 136t-81 181.5q-34 9 -73 30.5t-72 55.5t-55 81t-22 108q0 72 25 124.5t64.5 87t88.5 51.5t97 17q75 0 128.5 -33t82.5 -79q10 3 17 10.5t7 18.5q0 18 -18 40.5t-48.5 42t-72 33t-89.5 13.5q-55 0 -93 -10t-73 -27h-146
q-31 43 -46 84.5t-15 95.5q0 28 4 51.5t11.5 45.5t19 43t26.5 44h1009q29 -45 44.5 -87t15.5 -97q0 -54 -15.5 -95.5t-46.5 -84.5h-94q26 -39 37.5 -85t11.5 -94q0 -81 -31.5 -148.5t-87.5 -117t-132.5 -79t-166.5 -33.5q0 -42 63 -42q21 0 44.5 3t46 9t43 14t36.5 18
q15 -27 34.5 -54.5t41.5 -52.5t45 -46.5t44 -37.5q-6 -50 -26.5 -95.5t-54 -80t-80.5 -54.5t-107 -20z" />
    <glyph glyph-name="RaNukta.dv" unicode="&#x931;" horiz-adv-x="972" 
d="M147 132q0 28 11 52.5t29.5 43t43 29t52.5 10.5q27 0 51.5 -10.5t43 -29t29.5 -43t11 -52.5t-11 -52.5t-29.5 -43t-43 -29t-51.5 -10.5q-28 0 -52.5 10.5t-43 29t-29.5 43t-11 52.5zM295 958q75 0 128.5 -33t82.5 -79q10 3 17 10.5t7 18.5q0 18 -18 40.5t-48.5 42t-72 33
t-89.5 13.5q-55 0 -93 -10t-73 -27h-145q-31 43 -46 84.5t-15 95.5q0 28 4 51.5t11.5 45.5t19 43t26.5 44h1008q29 -45 44.5 -87t15.5 -97q0 -54 -15.5 -95.5t-46.5 -84.5h-94q26 -39 37.5 -85t11.5 -94q0 -81 -31.5 -148.5t-87.5 -117t-132.5 -79t-166.5 -33.5
q0 -42 63 -42q21 0 44.5 3t46 9t43 14t36.5 18q15 -27 34.5 -54.5t41.5 -52.5t45 -46.5t44 -37.5q-6 -50 -26.5 -95.5t-54 -80t-80.5 -54.5t-107 -20q-66 0 -118 20.5t-97 60.5q11 22 16 42t5 40q0 40 -15.5 73t-42 56t-61 36t-73.5 13q-9 20 -18 44t-18 47q-34 9 -73 30.5
t-72 55.5t-55 81t-22 108q0 72 25 124.5t64.5 87t88.5 51.5t97 17z" />
    <glyph glyph-name="La.dv" unicode="&#x932;" horiz-adv-x="1376" 
d="M1400 1331q15 -23 26.5 -44t19 -43t11.5 -45.5t4 -51.5q0 -54 -15 -95.5t-46 -84.5h-50v-582q0 -36 3.5 -63.5t10.5 -50t17.5 -40.5t25.5 -36q-10 -50 -34 -87.5t-59 -63.5t-78.5 -39t-92.5 -13q-51 0 -101 14t-90 46t-65 83t-25 125v90q19 9 40.5 24.5t38.5 34t28.5 39
t11.5 39.5q0 11 -5.5 20.5t-19.5 12.5q-13 -36 -36 -63.5t-53 -46t-65.5 -28t-74.5 -9.5q-36 0 -71 9t-65.5 27.5t-54 46.5t-36.5 66q-14 -3 -21.5 -13.5t-7.5 -23.5q0 -27 18 -54.5t51 -50.5t80 -37.5t105 -14.5h18t21.5 0.5t19.5 1.5t12 2q14 -32 17.5 -63.5t3.5 -57.5
q0 -48 -18 -89t-52 -71t-84.5 -47.5t-114.5 -17.5q-118 0 -215 43t-166.5 116t-108 169t-38.5 202q0 82 25 162t75 143t126 101.5t178 38.5q42 0 84 -12.5t80.5 -35.5t70 -57t51.5 -76h8q31 78 93 124t147 46q36 0 68 -5.5t53 -14.5q4 8 4 16q0 16 -15.5 26t-36.5 15
t-42 6.5t-31 1.5q-81 0 -144 -32.5t-103 -96.5q-21 29 -50 54.5t-66 44.5t-82.5 30t-98.5 11q-54 0 -100.5 -10.5t-88.5 -28.5h-235q-31 43 -46 84.5t-15 95.5q0 28 4 51.5t11.5 45.5t19 43t26.5 44h1410z" />
    <glyph glyph-name="Lla.dv" unicode="&#x933;" horiz-adv-x="1588" 
d="M572 533q-12 22 -40 22q-25 0 -42 -23.5t-17 -55.5q0 -24 10.5 -36.5t22.5 -12.5zM1021 451q4 -8 13 -13.5t22 -5.5q14 0 25.5 7t19.5 18.5t12.5 25.5t4.5 28q0 16 -8 32t-29 16zM763 786q49 72 118.5 109t156.5 37q1 3 1 10q0 31 -48 31q-27 0 -56.5 -6.5t-59.5 -20
t-59 -34.5t-54 -49q-23 25 -54.5 49t-71 43t-88 30.5t-106.5 11.5q-31 0 -55.5 -2t-47 -6t-44 -9.5t-46.5 -12.5h-254q-31 43 -46 84.5t-15 95.5q0 28 4 51.5t11.5 45.5t19 43t26.5 44h1593q15 -23 26.5 -44t19 -43t11.5 -45.5t4 -51.5q0 -54 -15 -95.5t-46 -84.5h-210v-72
q37 -21 71.5 -54.5t61 -80.5t42 -110t15.5 -144q0 -117 -36 -209.5t-98.5 -156.5t-147.5 -98t-182 -34q-41 0 -80 6.5t-73 19.5t-62 32t-47 43q14 13 29.5 32.5t28.5 41t21.5 41t8.5 32.5q0 28 -29 43q-37 -79 -82 -134t-98.5 -90t-115.5 -51t-134 -16q-88 0 -169.5 30.5
t-144 91.5t-100 152t-37.5 213q0 85 26 167t78 146.5t130 104t182 39.5q49 0 95.5 -10t87.5 -31t75.5 -52t60.5 -73h8z" />
    <glyph glyph-name="LlaNukta.dv" unicode="&#x934;" horiz-adv-x="1588" 
d="M643 -93q0 27 10.5 51.5t29 43t43 29.5t52.5 11t52.5 -11t43 -29.5t29 -43t10.5 -51.5q0 -28 -10.5 -52.5t-29 -43t-43 -29t-52.5 -10.5t-52.5 10.5t-43 29t-29 43t-10.5 52.5zM572 533q-12 22 -40 22q-25 0 -42 -23.5t-17 -55.5q0 -24 10.5 -36.5t22.5 -12.5zM1021 451
q4 -8 13 -13.5t22 -5.5q14 0 25.5 7t19.5 18.5t12.5 25.5t4.5 28q0 27 -9 38t-20 11q-6 0 -8 -1zM763 786q49 72 118.5 109t156.5 37q1 3 1 10q0 31 -48 31q-27 0 -56.5 -6.5t-59.5 -20t-59 -34.5t-54 -49q-23 25 -54.5 49t-71 43t-88 30.5t-106.5 11.5q-31 0 -55.5 -2
t-47 -6t-44 -9.5t-46.5 -12.5h-254q-31 43 -46 84.5t-15 95.5q0 28 4 51.5t11.5 45.5t19 43t26.5 44h1593q15 -23 26.5 -44t19 -43t11.5 -45.5t4 -51.5q0 -54 -15 -95.5t-46 -84.5h-210v-72q37 -21 71.5 -54.5t61 -80.5t42 -110t15.5 -144q0 -117 -36 -209.5t-98.5 -156.5
t-147.5 -98t-182 -34q-83 0 -152 26t-107 75q14 13 29 32.5t27.5 41t20.5 41t8 32.5q0 28 -29 43q-75 -150 -182 -220.5t-248 -70.5q-88 0 -169.5 30.5t-144 91.5t-100 152t-37.5 213q0 85 26 167t78 146.5t130 104t182 39.5q49 0 95.5 -10t87.5 -31t75.5 -52t60.5 -73h8z
" />
    <glyph glyph-name="Va.dv" unicode="&#x935;" horiz-adv-x="1066" 
d="M569 681q-3 1 -15 1q-26 0 -43.5 -18t-17.5 -47q0 -26 17.5 -43.5t46.5 -17.5q9 0 12 1v124zM1090 1331q15 -23 26.5 -44t19 -43t11.5 -45.5t4 -51.5q0 -54 -15 -95.5t-46 -84.5h-50v-582q0 -36 3.5 -63.5t11 -50t18 -40.5t25.5 -36q-10 -50 -34 -87.5t-59 -63.5
t-78.5 -39t-92.5 -13q-39 0 -80.5 9t-78 29.5t-66 54t-44.5 83.5q12 2 37 7.5t50.5 15.5t45 24.5t19.5 33.5q0 13 -10 23q-13 -10 -37.5 -22t-57 -22t-71 -16.5t-78.5 -6.5q-92 0 -173 29t-141 82.5t-94.5 128.5t-34.5 167t34.5 167.5t94.5 129t141 82.5t173 29
q60 0 108 -10t93 -29q5 8 5 15q0 18 -19 31t-49 21.5t-66 12.5t-70 4q-94 0 -177.5 -25t-152.5 -73h-160q-31 43 -46 84.5t-15 95.5q0 28 4 51.5t11.5 45.5t19 43t26.5 44h1115z" />
    <glyph glyph-name="Sha.dv" unicode="&#x936;" horiz-adv-x="1474" 
d="M1498 1331q15 -23 26.5 -44t19 -43t11.5 -45.5t4 -51.5q0 -54 -15 -95.5t-46 -84.5h-50v-582q0 -36 3.5 -63.5t10.5 -50t17.5 -40.5t25.5 -36q-10 -50 -34 -87.5t-58.5 -63.5t-78.5 -39t-93 -13q-31 0 -63 5.5t-62 17t-56 30t-46 44.5q10 24 17 61.5t7 79.5q-18 9 -41 24
t-37 28v231q31 31 55 72t40 86t24 93t8 93q0 64 -13 87.5t-37 23.5q-7 0 -11 -1q4 -27 6 -56t2 -60q0 -87 -34 -169.5t-95 -148t-144 -107t-182 -47.5q0 -24 15 -31.5t34 -7.5q36 0 76 10.5t82 32.5q45 -57 94.5 -101t104.5 -77q0 -48 -18 -96t-55 -86t-92 -62t-130 -24
t-134 25t-110 73t-96.5 116.5t-93.5 155.5q-60 7 -104.5 30.5t-73.5 58t-43.5 78t-14.5 91.5q0 32 8.5 63.5t25 59.5t39.5 51t52 38q35 -39 92.5 -61t120.5 -22q50 0 95.5 15.5t80.5 43t55.5 65.5t20.5 82q0 14 -2.5 28t-8.5 25.5t-15.5 18.5t-22.5 7q-25 0 -34 -14t-9 -29
q0 -20 10.5 -38t24.5 -28q-5 -30 -21.5 -54t-42 -41t-58 -26.5t-69.5 -9.5q-63 0 -111.5 21.5t-82 58t-50.5 85.5t-17 103q0 74 31 141.5t89 119t141 82t188 30.5q103 0 194.5 -34t160.5 -108q6 27 22.5 51.5t39.5 41.5h531z" />
    <glyph glyph-name="Ssa.dv" unicode="&#x937;" horiz-adv-x="1063" 
d="M392 1001q-20 -11 -20 -34q0 -18 16.5 -47t42.5 -61t59 -64t65.5 -58t61.5 -42t48 -16q12 0 20 4.5t14 12.5q-22 12 -50.5 33.5t-59.5 49t-62 58.5t-57.5 61t-47 57t-30.5 46zM550 301q33 4 71.5 16.5t72 30.5t55.5 39.5t22 42.5q0 19 -14 30q-24 -28 -59 -50.5
t-75.5 -38t-85.5 -23.5t-89 -8q-97 0 -175 30t-133 85.5t-84.5 134t-29.5 174.5q0 54 4 104.5t12 98.5h-68q-31 43 -46 84.5t-15 95.5q0 28 4 51.5t11.5 45.5t19 43t26.5 44h1113q15 -23 26.5 -44t19 -43t11.5 -45.5t4 -51.5q0 -54 -15 -95.5t-46 -84.5h-50v-582
q0 -36 3.5 -63.5t11 -50t18 -40.5t25.5 -36q-10 -50 -34 -87.5t-59 -63.5t-79 -39t-93 -13q-51 0 -101 14t-89.5 46t-64.5 83t-25 125v41z" />
    <glyph glyph-name="Sa.dv" unicode="&#x938;" horiz-adv-x="1460" 
d="M881 797q15 -9 30 -9q20 0 35 9v170h-67q8 -20 11 -42.5t3 -45.5t-3 -45t-9 -37zM1484 1331q15 -23 26.5 -44t19 -43t11.5 -45.5t4 -51.5q0 -54 -15 -95.5t-46 -84.5h-50v-582q0 -36 3.5 -63.5t10.5 -50t17.5 -40.5t25.5 -36q-10 -50 -34 -87.5t-59 -63.5t-78.5 -39
t-92.5 -13q-33 0 -66.5 6t-64 19t-57.5 33.5t-47 49.5q15 33 24.5 75.5t9.5 92.5q0 45 -8 78t-17 60q-7 -1 -20 -1h-18q-37 0 -73.5 6.5t-68.5 18.5t-58.5 29t-43.5 39q-51 -29 -104 -40.5t-119 -11.5q2 -23 14.5 -34t44.5 -11q21 0 43 3.5t43 8.5t39 12t31 13
q45 -42 111.5 -62.5t138.5 -20.5q5 -16 8.5 -40t3.5 -44q0 -146 -70 -218.5t-202 -72.5q-77 0 -146 29.5t-128 84t-107 132.5t-82 175q-35 9 -73.5 32.5t-70.5 59.5t-53 82.5t-21 102.5q0 72 24 126t62 89.5t85 53.5t92 18q51 0 90 -14.5t65 -37.5q5 4 8 10.5t3 12.5
q0 13 -12.5 26.5t-34.5 24t-52.5 17t-66.5 6.5q-86 0 -160 -43h-133q-31 43 -46 84.5t-15 95.5q0 28 4 51.5t11.5 45.5t19 43t26.5 44h1494z" />
    <glyph glyph-name="Ha.dv" unicode="&#x939;" horiz-adv-x="1125" 
d="M946 91q-14 45 -50 78.5t-102 58.5l-152 59v49q0 22 -13.5 38.5t-39.5 16.5q-17 0 -32 -14t-15 -45q0 -24 12 -41t32.5 -30.5t47.5 -24t57 -21.5l68 -25q39 -14 68.5 -31t49.5 -39.5t30 -52.5t10 -70q0 -51 -25 -109t-82 -103q-92 5 -185 21.5t-178.5 46t-160 72.5
t-129 101.5t-86 133.5t-31.5 168q0 42 11.5 85.5t32 81.5t47.5 68t59 45q-45 28 -75 77.5t-30 109.5q0 68 30 117.5t81 81.5t117.5 47.5t140.5 15.5q35 0 59.5 -1.5t42.5 -4t31 -5t25 -4.5q3 4 3 12q0 10 -5.5 19t-23 15.5t-49 10t-83.5 3.5q-84 0 -145.5 -13.5t-105 -34
t-71.5 -44t-46 -43.5h-97q-31 43 -46.5 84.5t-15.5 95.5q0 28 4 51.5t12 45.5t19.5 43t26.5 44h1145q15 -23 26.5 -44t19 -43t11.5 -45.5t4 -51.5q0 -54 -15 -95.5t-46 -84.5h-105v-97q0 -57 -17.5 -91.5t-49.5 -51.5q-51 26 -108.5 38.5t-123.5 12.5q-75 0 -117.5 -18
t-42.5 -41q0 -7 3 -14q11 4 22 7.5t24 6.5q21 5 49 9.5t58 4.5q89 0 159.5 -26t119 -72.5t74.5 -112t26 -143.5q0 -109 -43.5 -181.5t-115.5 -106.5z" />
    <glyph glyph-name="uni093A" unicode="&#x93a;" 
d="M-504 1667q42 32 101.5 50t128.5 18q71 0 129 -17.5t105 -50.5v-446q-29 -20 -56 -35t-55 -24.5t-58 -14.5t-65 -5q-69 0 -122.5 19.5t-107.5 59.5v446z" />
    <glyph glyph-name="uni093B" unicode="&#x93b;" horiz-adv-x="530" 
d="M25 1667q42 32 101.5 50t128.5 18q71 0 129 -17.5t105 -50.5v-336h65q15 -23 26.5 -44t19 -43t11.5 -45.5t4 -51.5q0 -54 -15 -95.5t-46 -84.5h-50v-582q0 -36 3.5 -63.5t10.5 -50t17.5 -40.5t25.5 -36q-10 -50 -34 -87.5t-58.5 -63.5t-78.5 -39t-93 -13q-51 0 -99.5 14
t-86.5 46t-61 83t-23 125v707h-52q-31 43 -46 84.5t-15 95.5q0 28 4 51.5t11.5 45.5t19 43t26.5 44h50v336z" />
    <glyph glyph-name="Nukta.dv" unicode="&#x93c;" 
d="M-683 -156q0 27 10.5 51.5t29 43t43 29.5t52.5 11t52.5 -11t43 -29.5t29 -43t10.5 -51.5q0 -28 -10.5 -52.5t-29 -43t-43 -29t-52.5 -10.5t-52.5 10.5t-43 29t-29 43t-10.5 52.5z" />
    <glyph glyph-name="Avagrah.dv" unicode="&#x93d;" horiz-adv-x="1048" 
d="M220 556q25 -22 61 -47.5t74.5 -48t74.5 -37.5t61 -15q29 0 34 27q-11 4 -33 11.5t-51 21.5q-32 15 -70.5 37.5t-76.5 53t-74 70t-64 88.5t-44.5 108.5t-16.5 130.5q0 76 19 133.5t52 99t77 69t95 44t105.5 23t108.5 6.5h326q20 -39 31 -84t11 -89q0 -38 -7.5 -76
t-26.5 -68t-53 -48.5t-86 -18.5h-155q-10 -10 -10 -25q0 -29 31.5 -51.5t79 -47.5t102.5 -57t102.5 -80.5t79 -117t31.5 -166.5q0 -101 -37 -177t-103.5 -127.5t-160 -77.5t-206.5 -26q-92 0 -175.5 21.5t-147 64t-101 105t-37.5 143.5q0 41 12.5 79t36 68.5t57 51.5
t74.5 29z" />
    <glyph glyph-name="matraA.dv" unicode="&#x93e;" horiz-adv-x="530" 
d="M27 967h-52q-31 43 -46 84.5t-15 95.5q0 28 4 51.5t11.5 45.5t19 43t26.5 44h579q15 -23 26.5 -44t19 -43t11.5 -45.5t4 -51.5q0 -54 -15 -95.5t-46 -84.5h-50v-582q0 -36 3.5 -63.5t10.5 -50t17.5 -40.5t25.5 -36q-10 -50 -34 -87.5t-58.5 -63.5t-78.5 -39t-93 -13
q-51 0 -99.5 14t-86.5 46t-61 83t-23 125v707z" />
    <glyph glyph-name="matraI.dv" unicode="&#x93f;" horiz-adv-x="530" 
d="M27 967h-52q-31 43 -46 84.5t-15 95.5q0 28 4 51.5t11.5 45.5t19 43t26.5 44h92q-5 15 -8 37.5t-3 45.5q0 93 39.5 175t118.5 143t197.5 96.5t276.5 35.5q100 0 200 -19t195 -50.5t182.5 -72t162.5 -83t134 -84t97 -74.5q-63 -219 -244 -219q-43 0 -92.5 16t-104 40
t-113 52.5t-121 52.5t-128 40t-133.5 16q-47 0 -87.5 -9.5t-70 -28.5t-46.5 -46.5t-17 -63.5h52q15 -23 26.5 -44t19 -43t11.5 -45.5t4 -51.5q0 -54 -15 -95.5t-46 -84.5h-50v-582q0 -36 3.5 -63.5t10.5 -50t17.5 -40.5t25.5 -36q-10 -50 -34 -87.5t-58.5 -63.5t-78.5 -39
t-93 -13q-51 0 -99.5 14t-86.5 46t-61 83t-23 125v707z" />
    <glyph glyph-name="matraIi.dv" unicode="&#x940;" horiz-adv-x="530" 
d="M27 967h-252q-80 25 -143 69t-107.5 101t-68 123.5t-23.5 136.5q0 106 40 187t109.5 135.5t163 82t200.5 27.5q102 0 198.5 -32t172.5 -93t122 -149.5t46 -200.5v-23h69q15 -23 26.5 -44t19 -43t11.5 -45.5t4 -51.5q0 -54 -15 -95.5t-46 -84.5h-50v-582q0 -36 3.5 -63.5
t10.5 -50t17.5 -40.5t25.5 -36q-10 -50 -34 -87.5t-58.5 -63.5t-78.5 -39t-93 -13q-51 0 -99.5 14t-86.5 46t-61 83t-23 125v707zM42 1331q1 6 1.5 12.5t0.5 12.5q0 42 -22.5 70t-76.5 28q-48 0 -70 -24t-22 -53q0 -12 3 -25t10 -21h176z" />
    <glyph glyph-name="matraU.dv" unicode="&#x941;" 
d="M67 -259q0 -87 -29.5 -164t-86 -135t-139.5 -92t-190 -34q-87 0 -165.5 24t-138 70.5t-95 115t-35.5 158.5q0 54 17 93.5t45.5 65.5t65.5 38.5t76 12.5q13 0 23 -1t22 -4q-2 -14 -3 -28.5t-1 -30.5q0 -48 15.5 -98t61.5 -92q23 -21 47 -30.5t44 -9.5q13 0 21.5 7t8.5 23
q-42 12 -70 35t-45 52t-24 61.5t-7 62.5q0 60 22 106.5t58.5 78.5t85.5 48.5t103 16.5q59 0 119 -23l-68 -62q0 -28 13 -37t32 -9q16 0 32 4.5t30.5 10.5t27 13t20.5 12q35 -30 56 -64t32.5 -68t15 -66.5t3.5 -60.5z" />
    <glyph glyph-name="matraUu.dv" unicode="&#x942;" 
d="M-195 6q0 -28 13 -37t32 -9q24 0 48 9t42 19q37 -21 67 -58.5t55.5 -84.5t47.5 -100.5l44 -107t45 -104t51 -90.5q-11 -39 -33.5 -70t-53.5 -52.5t-68.5 -33t-78.5 -11.5q-42 0 -81 11t-71.5 33t-58 55t-41.5 76q31 7 63 27.5t57.5 49t41.5 60.5t16 61q0 18 -9.5 30
t-35.5 12q-3 -31 -18 -67.5t-43 -68t-70 -52.5t-100 -21q-62 0 -117 21.5t-96.5 61t-66 96t-24.5 125.5q0 76 29 134t77 96.5t110.5 58t128.5 19.5q54 0 91.5 -11.5t69.5 -37.5z" />
    <glyph glyph-name="matraRu.dv" unicode="&#x943;" 
d="M66 -77q0 -19 -5 -40t-16 -40.5t-28 -35.5t-40 -25q-28 5 -55 7.5t-45 2.5q-38 0 -57 -11t-19 -28q0 -18 20.5 -29.5t58.5 -11.5q51 0 88 11.5t73 38.5q48 -19 75 -64t27 -114q0 -48 -20 -90t-60 -73t-101 -48.5t-143 -17.5q-91 0 -170.5 25.5t-139 75t-94 122
t-34.5 165.5q0 69 19.5 124t52.5 97t76.5 71.5t90.5 48.5t95.5 28t91.5 9q54 0 101.5 -12t82.5 -37t55 -62t20 -87z" />
    <glyph glyph-name="matraRuu.dv" unicode="&#x944;" 
d="M-27 -161q-12 2 -36 5t-50 3q-29 0 -51.5 -7.5t-22.5 -29.5q0 -15 15.5 -26.5t48.5 -11.5q45 0 77.5 9.5t64.5 32.5q42 -18 66 -52.5t24 -89.5q0 -36 -14.5 -66t-44 -51.5t-73.5 -34t-104 -12.5q-33 0 -47 -10t-14 -25q0 -16 16 -27.5t49 -11.5q45 0 77.5 11t64.5 31
q43 -16 66.5 -50.5t23.5 -91.5q0 -40 -17.5 -74.5t-53 -60t-89 -40t-125.5 -14.5q-80 0 -147.5 18.5t-117 55.5t-77 92.5t-27.5 128.5q0 46 12 82t33 62.5t49.5 44.5t60.5 29q-4 16 -13.5 23t-22.5 7q-22 0 -46 -13.5t-38 -27.5q-24 30 -38 68t-14 86q0 88 37.5 149t93.5 99
t121.5 55.5t122.5 17.5q61 0 105 -12.5t72.5 -33.5t42.5 -49.5t14 -60.5q0 -15 -3 -32.5t-11 -34t-22.5 -32.5t-37.5 -28z" />
    <glyph glyph-name="Chandra.dv" unicode="&#x945;" 
d="M-507 1817q12 -21 32 -40t46.5 -34t58.5 -24t68 -9q63 0 117.5 27.5t82.5 79.5q21 0 49 -11.5t53.5 -34t43.5 -57t18 -80.5t-21.5 -91t-66.5 -81t-113 -58t-161 -22t-161.5 22t-113 58t-66.5 81t-22 91t16.5 80.5t40.5 57t51 34t48 11.5z" />
    <glyph glyph-name="matraShortE.dv" unicode="&#x946;" 
d="M-71 1294q0 -64 -39.5 -102.5t-105.5 -38.5q-36 0 -63 10.5t-45 29t-27 43t-9 51.5v44q15 3 15 16q0 33 -92 33q-14 0 -31.5 -0.5t-37 -1.5t-39 -1.5t-35.5 -0.5q-90 0 -151 21t-97.5 55.5t-52.5 78.5t-16 91q0 39 9.5 72.5t24.5 61.5t35 50.5t41 39.5l92 -11
q9 -36 40.5 -52t80 -23.5t111.5 -12.5t135 -18q63 -12 115 -34t89.5 -57.5t58.5 -85.5t21 -117q0 -32 -6.5 -62t-20.5 -55v-24z" />
    <glyph glyph-name="matraE.dv" unicode="&#x947;" 
d="M-343 1376q-65 0 -134 8t-132 28t-116.5 53t-88.5 83q0 78 27.5 137.5t72.5 100t102 61t116 20.5q101 0 181 -44.5t135.5 -119.5t84.5 -174.5t29 -208.5v-28q0 -69 -42 -109.5t-112 -40.5q-38 0 -66.5 11.5t-48 31t-29 45t-9.5 54.5v47q17 0 26.5 7.5t9.5 19.5q0 9 -6 18
z" />
    <glyph glyph-name="matraAi.dv" unicode="&#x948;" 
d="M-73 1305q0 -39 -13 -71.5t-36 -55t-56 -35t-73 -12.5q-44 0 -77.5 13t-55.5 35.5t-33 52.5t-11 63v36q17 0 28.5 7t11.5 21q0 7 -3 15q-53 0 -114.5 6t-122 20.5t-114 38t-89.5 58.5q0 66 22 120t58 92t82 58.5t94 20.5q58 0 106.5 -17t88 -46t70 -68.5t53.5 -85.5
q20 8 20 33q0 28 -24 66t-66 73.5t-100 61.5t-126 29q1 44 17.5 79.5t45 61t66.5 39t82 13.5q75 0 137 -28.5t106.5 -80t68.5 -123t24 -158.5q0 -48 -6.5 -93t-16.5 -85t-22 -74t-22 -58v-22z" />
    <glyph glyph-name="matraAChandra.dv" unicode="&#x949;" horiz-adv-x="530" 
d="M7 1817q12 -21 32 -40t46.5 -34t58.5 -24t68 -9q63 0 117.5 27.5t82.5 79.5q21 0 49 -11.5t53.5 -34t43.5 -57t18 -80.5t-21.5 -91t-66.5 -81t-113 -58t-161 -22t-161.5 22t-113 58t-66.5 81t-22 91t16.5 80.5t40.5 57t51 34t48 11.5zM27 967h-52q-31 43 -46 84.5
t-15 95.5q0 28 4 51.5t11.5 45.5t19 43t26.5 44h579q15 -23 26.5 -44t19 -43t11.5 -45.5t4 -51.5q0 -54 -15 -95.5t-46 -84.5h-50v-582q0 -36 3.5 -63.5t10.5 -50t17.5 -40.5t25.5 -36q-10 -50 -34 -87.5t-58.5 -63.5t-78.5 -39t-93 -13q-51 0 -99.5 14t-86.5 46t-61 83
t-23 125v707z" />
    <glyph glyph-name="matraShortO.dv" unicode="&#x94a;" horiz-adv-x="530" 
d="M27 967h-52q-31 43 -46 84.5t-15 95.5q0 28 4 51.5t11.5 45.5t19 43t26.5 44h214q15 3 15 16q0 33 -92 33q-14 0 -31.5 -0.5t-37 -1.5t-39 -1.5t-35.5 -0.5q-90 0 -151 21t-97.5 55.5t-52.5 78.5t-16 91q0 39 9.5 72.5t24.5 61.5t35 50.5t41 39.5l92 -11q9 -36 40.5 -52
t80 -23.5t111.5 -12.5t135 -18q63 -12 115 -34t89.5 -57.5t58.5 -85.5t21 -117q0 -59 -21 -104h70q15 -23 26.5 -44t19 -43t11.5 -45.5t4 -51.5q0 -54 -15 -95.5t-46 -84.5h-50v-582q0 -36 3.5 -63.5t10.5 -50t17.5 -40.5t25.5 -36q-10 -50 -34 -87.5t-58.5 -63.5t-78.5 -39
t-93 -13q-51 0 -99.5 14t-86.5 46t-61 83t-23 125v707z" />
    <glyph glyph-name="matraO.dv" unicode="&#x94b;" horiz-adv-x="530" 
d="M157 1331q17 0 26.5 7.5t9.5 19.5q0 9 -6 18q-65 0 -134 8t-132 28t-116.5 53t-88.5 83q0 78 27.5 137.5t72.5 100t102 61t116 20.5q100 0 179 -43.5t134.5 -117t85 -170.5t31.5 -205h90q15 -23 26.5 -44t19 -43t11.5 -45.5t4 -51.5q0 -54 -15 -95.5t-46 -84.5h-50v-582
q0 -36 3.5 -63.5t10.5 -50t17.5 -40.5t25.5 -36q-10 -50 -34 -87.5t-58.5 -63.5t-78.5 -39t-93 -13q-51 0 -99.5 14t-86.5 46t-61 83t-23 125v707h-52q-31 43 -46 84.5t-15 95.5q0 28 4 51.5t11.5 45.5t19 43t26.5 44h182z" />
    <glyph glyph-name="matraAu.dv" unicode="&#x94c;" horiz-adv-x="530" 
d="M27 967h-52q-31 43 -46 84.5t-15 95.5q0 28 4 51.5t11.5 45.5t19 43t26.5 44h135q17 0 28.5 7t11.5 21q0 7 -3 15q-53 0 -114.5 6t-122 20.5t-114 38t-89.5 58.5q0 66 22 120t58 92t82 58.5t94 20.5q58 0 106.5 -17t88 -46t70 -68.5t53.5 -85.5q20 8 20 33q0 28 -24 66
t-66 73.5t-100 61.5t-126 29q1 44 17.5 79.5t45 61t66.5 39t82 13.5q75 0 137 -28.5t106.5 -80t68.5 -123t24 -158.5q0 -47 -6.5 -91.5t-16.5 -84t-21.5 -73t-21.5 -57.5h88q15 -23 26.5 -44t19 -43t11.5 -45.5t4 -51.5q0 -54 -15 -95.5t-46 -84.5h-50v-582q0 -36 3.5 -63.5
t10.5 -50t17.5 -40.5t25.5 -36q-10 -50 -34 -87.5t-58.5 -63.5t-78.5 -39t-93 -13q-51 0 -99.5 14t-86.5 46t-61 83t-23 125v707z" />
    <glyph glyph-name="Halant.dv" unicode="&#x94d;" 
d="M-83 -525q-54 0 -102.5 24t-99.5 75l-163 165q-3 22 -3 43q0 45 17.5 76.5t44 51t58 28.5t60.5 9q70 0 121.5 -30t102.5 -97l156 -204q-7 -27 -22 -52.5t-39 -45t-56.5 -31.5t-74.5 -12z" />
    <glyph glyph-name="uni094E" unicode="&#x94e;" horiz-adv-x="530" 
d="M27 967h-52q-31 43 -46 84.5t-15 95.5q0 28 4 51.5t11.5 45.5t19 43t26.5 44h579q15 -23 26.5 -44t19 -43t11.5 -45.5t4 -51.5q0 -54 -15 -95.5t-46 -84.5h-50v-582q0 -36 3.5 -63.5t10.5 -50t17.5 -40.5t25.5 -36q-10 -50 -34 -87.5t-58.5 -63.5t-78.5 -39t-93 -13
q-51 0 -99.5 14t-86.5 46t-61 83t-23 125v707z" />
    <glyph glyph-name="matraShortAu.dv" unicode="&#x94f;" horiz-adv-x="531" 
d="M27 967h-52q-31 43 -46 84.5t-15 95.5q0 28 4 51.5t11.5 45.5t19 43t26.5 44h184q15 3 15 16q0 33 -92 33q-27 0 -54 -2t-59 -2q-90 0 -151 21t-97.5 55.5t-52.5 78.5t-16 91q0 39 9.5 72.5t24.5 61.5t35 50.5t41 39.5l92 -11q4 -30 17 -52t36 -38t58 -26.5t83 -18.5
l113 -19q28 -5 50.5 -12t39.5 -19t27.5 -31t13.5 -47q13 0 21.5 7t8.5 23q0 17 -7.5 35.5t-25 35t-46 29.5t-70.5 20l-83 13q-41 6 -73.5 16t-55 26t-34.5 40.5t-12 60.5q0 35 15 66t43 57l92 -11q2 -21 12 -34t25 -20t32.5 -10t35.5 -5l60 -7q88 -11 151 -38t103.5 -67.5
t59.5 -92t19 -111.5q0 -77 -30 -149.5t-78 -124.5h100q15 -23 26.5 -44t19 -43t11.5 -45.5t4 -51.5q0 -54 -15 -95.5t-46 -84.5h-51v-582q0 -36 3.5 -63.5t10.5 -50t17.5 -40.5t25.5 -36q-10 -50 -34 -87.5t-58.5 -63.5t-78.5 -39t-93 -13q-51 0 -99.5 14t-86.5 46t-61 83
t-23 125v707z" />
    <glyph glyph-name="Om.dv" unicode="&#x950;" horiz-adv-x="1967" 
d="M1213 420q-26 0 -46 4q0 -9 0.5 -17.5t0.5 -16.5q0 -107 -39 -184t-102.5 -126.5t-145.5 -73.5t-168 -24q-100 0 -177 24.5t-138.5 62.5t-110 85t-92 93t-85 85t-87.5 62q-3 22 -3 43q0 60 19.5 104.5t52 74t74.5 43.5t87 14q40 0 73 -10.5t68 -35.5q6 -59 31.5 -103.5
t64.5 -74.5t87.5 -45t99.5 -15q59 0 59 34q0 8 -3 17q-21 -6 -49 -6q-52 0 -96 16t-76.5 46t-50.5 73t-18 97q0 51 20 94t52.5 74t74.5 48.5t87 17.5q15 0 25.5 -0.5t20.5 -2.5q3 6 3 13q0 18 -17 26t-41 8q-40 0 -78.5 -10.5t-71.5 -31t-59.5 -50t-42.5 -66.5
q-57 0 -104.5 19t-81.5 53t-52.5 80.5t-18.5 101.5q16 23 38.5 54t53 64.5t69.5 66.5t88 58.5t107.5 41.5t129.5 16q24 0 52 -3t55.5 -8t53 -12t46.5 -14q-1 -8 -1.5 -17t-0.5 -17q0 -44 13 -85.5t44.5 -78.5t83 -68.5t129.5 -54.5q7 -31 7 -68q0 -67 -30 -128t-94 -99
q5 -10 13 -14.5t25 -4.5q21 0 39.5 15.5t34 38t27 46t19.5 40.5q20 43 45 89.5t62.5 85t91.5 63.5t132 25q105 0 189 -36.5t143.5 -103t91 -159.5t31.5 -205q0 -58 -11 -117t-34.5 -113t-59.5 -101.5t-85.5 -82.5t-113.5 -55t-143 -20q-60 0 -111.5 19t-89.5 52.5t-59.5 80
t-21.5 102.5q0 19 3 42q73 1 133 24.5t102.5 62.5t65.5 90.5t23 107.5q0 19 -7 33t-36 14q0 -66 -22 -119.5t-61 -90.5t-92 -57t-114 -20zM1078 1431q0 -48 14.5 -85t40.5 -61.5t61.5 -37.5t78.5 -13q44 0 80.5 13t63 38.5t41 63t14.5 85.5v17q21 0 51 -11.5t57.5 -34
t47 -57t19.5 -80.5q0 -41 -18 -82t-53 -76q-22 4 -44.5 5.5t-41.5 1.5q-52 0 -93.5 -9.5t-74 -24.5t-57.5 -34t-43 -39q-76 6 -135.5 30.5t-100.5 61t-62.5 80t-21.5 86.5q0 46 18.5 80t45.5 57t57.5 34.5t54.5 12.5v-21zM1130 1422q0 31 11.5 57.5t31 46t45.5 30.5t55 11
q30 0 56.5 -11t46 -30.5t31 -46t11.5 -57.5q0 -29 -10 -54.5t-29 -45.5t-45.5 -31.5t-60.5 -11.5q-29 0 -55 11t-45.5 30t-31 45t-11.5 57z" />
    <glyph glyph-name="Udatta.dv" unicode="&#x951;" 
d="M-64 1419q-42 -24 -97.5 -36t-115.5 -12q-59 0 -114.5 12t-96.5 36v446q41 24 96.5 36t114.5 12q60 0 115.5 -12t97.5 -36v-446z" />
    <glyph glyph-name="Anudatta.dv" unicode="&#x952;" 
d="M-665 -368q-27 38 -40 74.5t-13 84.5q0 49 13.5 85.5t39.5 76.5h655q26 -40 39.5 -76.5t13.5 -85.5q0 -48 -13.5 -84.5t-39.5 -74.5h-655z" />
    <glyph glyph-name="Grave.dv" unicode="&#x953;" 
d="M-296 1549q0 -41 -15 -74.5t-39.5 -57.5t-57 -37t-67.5 -13q-32 0 -57 6t-46 18t-39 29t-35 39l-143 184q0 42 15.5 76t41.5 57t59.5 35.5t70.5 12.5q59 0 97.5 -24.5t71.5 -66.5z" />
    <glyph glyph-name="Acute.dv" unicode="&#x954;" 
d="M-652 1733q33 42 71 66.5t98 24.5q37 0 70.5 -12.5t59.5 -35.5t41.5 -57t15.5 -76l-143 -184q-17 -22 -35 -39t-39 -29t-46 -18t-57 -6q-35 0 -67.5 13t-57.5 37t-39.5 57.5t-14.5 74.5z" />
    <glyph glyph-name="uni0955" unicode="&#x955;" 
d="M-302 1587q-83 0 -145 19t-103 50t-62 70.5t-21 81.5q0 54 31 97.5t100 66.5q12 -21 31 -39.5t44.5 -32.5t57 -22t67.5 -8t67.5 8t57 22t44.5 32.5t31 39.5q69 -23 100 -66.5t31 -97.5q0 -42 -21 -81.5t-62 -70.5t-103.5 -50t-144.5 -19zM-302 1542q55 0 108 9t98.5 27.5
t82 48t59.5 70.5h35q26 -40 39.5 -76.5t13.5 -85.5q0 -48 -13 -82.5t-40 -72.5h-766q-27 38 -40 72.5t-13 82.5q0 49 13.5 85.5t39.5 76.5h35q23 -41 59.5 -70.5t82 -48t98 -27.5t108.5 -9z" />
    <glyph glyph-name="uni0956" unicode="&#x956;" 
d="M-436 -5q12 -21 32 -40t46.5 -34t58.5 -24t68 -9q63 0 117.5 27.5t82.5 79.5q21 0 49 -11.5t53.5 -34t43.5 -57t18 -80.5t-21.5 -91t-66.5 -81t-113 -58t-161 -22t-161.5 22t-113 58t-66.5 81t-22 91t16.5 80.5t40.5 57t51 34t48 11.5z" />
    <glyph glyph-name="uni0957" unicode="&#x957;" 
d="M-436 -5q12 -21 32 -40t46.5 -34t58.5 -24t68 -9q63 0 117.5 27.5t82.5 79.5q21 0 49 -11.5t53.5 -34t43.5 -57t18 -80.5t-21.5 -88t-66.5 -74t-113 -51t-161 -19t-161.5 19t-113 51t-66.5 74t-22 88t16.5 80.5t40.5 57t51 34t48 11.5zM-548 -502q0 36 10 63.5t27 40.5
q18 -12 46.5 -23.5t65 -21.5t79.5 -16t91 -6q97 0 166.5 21t111.5 46q20 -19 29.5 -47t9.5 -57q0 -41 -19 -77.5t-58 -64.5t-99 -44.5t-141 -16.5q-82 0 -142 16.5t-99.5 44.5t-58.5 64.5t-19 77.5z" />
    <glyph glyph-name="KaNukta.dv" unicode="&#x958;" horiz-adv-x="1648" 
d="M445 162q-22 61 -68 93t-102 32q-38 0 -66.5 -11t-46.5 -25q-66 54 -104 138t-38 184q0 80 26.5 156t78 135t126.5 95t173 36q57 0 113 -16t96 -45q7 10 7 22q0 15 -15.5 30t-44 27t-68 19.5t-88.5 7.5q-76 0 -138.5 -18t-119.5 -55h-191q-31 43 -46 84.5t-15 95.5
q0 28 4 51.5t11.5 45.5t19 43t26.5 44h1676q15 -23 27 -44t19.5 -43t11.5 -45.5t4 -51.5q0 -54 -15.5 -95.5t-46.5 -84.5h-164q-44 29 -107.5 51t-144.5 22q-47 0 -86 -7t-68 -19t-45 -28.5t-16 -34.5q0 -13 8 -21q45 32 94.5 48.5t112.5 16.5q91 0 163.5 -35.5t123.5 -93.5
t78.5 -132t27.5 -150q0 -98 -28 -174.5t-75 -129t-108.5 -80.5t-128.5 -28q-118 0 -183 63.5t-65 177.5q0 73 30 150q8 -5 16.5 -8.5t19.5 -3.5q20 0 32 15.5t12 39.5q0 27 -14.5 43t-41.5 16q-6 0 -15 -1.5t-14 -3.5q-14 -14 -28 -39.5t-25 -58.5t-18 -71.5t-7 -77.5
q0 -57 13 -98t32.5 -70.5t42.5 -48t43 -30.5q-10 -31 -28.5 -62t-50 -56t-76.5 -40.5t-107 -15.5q-53 0 -98 14.5t-80 41t-58.5 64.5t-32.5 85q-2 14 -3.5 27.5t-1.5 27.5v45q-31 0 -41.5 -17.5t-10.5 -41.5q0 -15 2.5 -30t5.5 -26q-16 -7 -40 -12.5t-53 -7.5zM134 109
q0 28 11 52.5t29.5 43t43 29t51.5 10.5q28 0 52.5 -10.5t43 -29t29.5 -43t11 -52.5q0 -30 -11 -54.5t-29.5 -42.5t-43 -28t-52.5 -10q-30 0 -54.5 11t-42.5 29.5t-28 43t-10 51.5zM561 664q-5 1 -15 1q-29 0 -45 -19.5t-16 -45.5t17.5 -43.5t46.5 -17.5q8 0 12 1v124z" />
    <glyph glyph-name="KhaNukta.dv" unicode="&#x959;" horiz-adv-x="1574" 
d="M1008 352q63 0 99 15t36 41q0 10 -6 18q-31 -17 -63 -23t-66 -6q-59 0 -109 19t-86.5 52.5t-57 80.5t-20.5 104q0 51 19 99t56 86t91 61t125 23q77 0 118 -22q6 4 6 12q0 26 -35.5 40.5t-101.5 14.5q-77 0 -138 -23.5t-104 -65.5t-66 -99t-23 -124q0 -34 6.5 -70.5
t26.5 -72.5q-23 -28 -71.5 -42.5t-106.5 -14.5q-10 0 -25 1t-25 3q-1 -2 -1 -7q0 -23 25.5 -32t57.5 -9q60 0 104 18.5t68 38.5q48 -60 118.5 -88t148.5 -28zM815 -41q-78 0 -141.5 20t-118.5 57q9 20 13 39.5t4 37.5q0 39 -13.5 72.5t-38 57.5t-58.5 38t-75 14
q-20 0 -38.5 -4t-26.5 -7q-14 18 -25.5 35.5t-28.5 40.5q-48 7 -93 31t-79.5 61.5t-55 85.5t-20.5 103q0 59 18 110.5t50.5 89.5t78.5 59.5t103 21.5q34 0 61 -6t48 -16.5t37.5 -23.5t29.5 -28q19 8 30.5 24.5t11.5 37.5q0 20 -7.5 34.5t-15.5 22.5h-490q-31 43 -46 84.5
t-15 95.5q0 28 4 51.5t11.5 45.5t19 43t26.5 44h1622q15 -23 26.5 -44t19.5 -43t12 -45.5t4 -51.5q0 -54 -15.5 -95.5t-46.5 -84.5h-51v-582q0 -36 3.5 -63.5t11 -50t18 -40.5t25.5 -36q-10 -50 -34 -87.5t-59 -63.5t-79 -39t-93 -13q-55 0 -111 18t-93 54q17 25 28 56.5
t11 63.5q0 23 -9.5 39.5t-32.5 18.5q0 -63 -21.5 -115t-62 -89.5t-99.5 -58t-134 -20.5zM251 115q0 28 11 52.5t29.5 43t43 29t51.5 10.5q28 0 52.5 -10.5t43 -29t29.5 -43t11 -52.5q0 -30 -11 -54.5t-29.5 -42.5t-43 -28t-52.5 -10q-30 0 -54.5 11t-42.5 29.5t-28 43
t-10 51.5z" />
    <glyph glyph-name="GaNukta.dv" unicode="&#x95a;" horiz-adv-x="1167" 
d="M223 135q0 28 11 52.5t29.5 43t43 29t51.5 10.5q28 0 52.5 -10.5t43 -29t29.5 -43t11 -52.5q0 -30 -11 -54.5t-29.5 -42.5t-43 -28t-52.5 -10q-30 0 -54.5 11t-42.5 29.5t-28 43t-10 51.5zM20 545q0 41 9 80t24 71q13 -6 27.5 -9t25.5 -3q45 0 73 29.5t28 95.5
q0 26 -6.5 50.5t-17 45.5t-23.5 37t-25 25h-160q-31 43 -46 84.5t-15 95.5q0 28 4 51.5t11.5 45.5t19 43t26.5 44h1216q15 -23 26.5 -44t19 -43t11.5 -45.5t4 -51.5q0 -54 -15 -95.5t-46 -84.5h-50v-582q0 -36 3.5 -63.5t10.5 -50t17.5 -40.5t25.5 -36q-10 -50 -34 -87.5
t-59 -63.5t-78.5 -39t-92.5 -13q-51 0 -101 14t-90 46t-65 83t-25 125v109q16 24 30.5 53.5t25.5 65t17.5 78t6.5 93.5q0 91 -16.5 156.5t-39.5 108.5t-49 63.5t-44 20.5t-31 -15q31 -25 55 -62t40 -81t24 -93t8 -98q0 -58 -12.5 -115.5t-40 -107.5t-71 -88t-106.5 -57
q-12 8 -35.5 16t-58.5 8q-38 0 -63 -11.5t-39 -22.5q-54 10 -97.5 34.5t-74 60t-46.5 78.5t-16 91z" />
    <glyph glyph-name="JaNukta.dv" unicode="&#x95b;" horiz-adv-x="1382" 
d="M66 135q0 28 11 52.5t29.5 43t43 29t51.5 10.5q28 0 52.5 -10.5t43 -29t29.5 -43t11 -52.5q0 -30 -11 -54.5t-29.5 -42.5t-43 -28t-52.5 -10q-30 0 -54.5 11t-42.5 29.5t-28 43t-10 51.5zM119 295q-48 57 -73.5 123t-25.5 139q0 62 21 112.5t58.5 86.5t90 55.5
t115.5 19.5q-3 -15 -3.5 -27.5t-0.5 -25.5q0 -65 19.5 -118t54 -91t81.5 -59t103 -21q55 0 55 41q-64 0 -112.5 18t-81.5 51t-49.5 79.5t-16.5 103.5q0 15 2 34t6.5 38t11 37t15.5 31h555q0 22 -12.5 33.5t-57.5 11.5h-899q-31 43 -46 84.5t-15 95.5q0 28 4 51.5t11.5 45.5
t19 43t26.5 44h1431q15 -23 26.5 -44t19 -43t11.5 -45.5t4 -51.5q0 -54 -15 -95.5t-46 -84.5h-50v-582q0 -36 3.5 -63.5t10.5 -50t17.5 -40.5t25.5 -36q-10 -50 -34 -87.5t-59 -63.5t-78.5 -39t-92.5 -13q-40 0 -79.5 8.5t-74.5 27.5t-62.5 48.5t-43.5 70.5q69 63 98 128
t29 137q0 33 -6.5 61.5t-17 49t-25 32.5t-29.5 12q-6 0 -10.5 -0.5t-9.5 -3.5q21 -32 33 -70.5t12 -80.5q0 -57 -23.5 -113t-71 -101t-120 -72.5t-170.5 -27.5q-51 0 -98 7t-92 20q0 40 -13 75t-37 60.5t-58.5 40t-77.5 14.5q-26 0 -47.5 -6.5t-35.5 -13.5z" />
    <glyph glyph-name="DdaNukta.dv" unicode="&#x95c;" horiz-adv-x="1090" 
d="M417 -78q0 28 11 52.5t29.5 43t43 29t51.5 10.5q28 0 52.5 -10.5t43 -29t29.5 -43t11 -52.5q0 -30 -11 -54.5t-29.5 -42.5t-43 -28t-52.5 -10q-30 0 -54.5 11t-42.5 29.5t-28 43t-10 51.5zM702 733q30 0 69 -6t80 -20.5t80 -40t70 -64.5t50 -93t19 -126
q0 -156 -90 -259.5t-257 -140.5q-17 51 -62 85t-111 34q-35 0 -62.5 -10.5t-48.5 -27t-35 -38.5t-21 -44q-77 16 -142 46.5t-113 75t-75 101t-27 123.5q0 33 7.5 64.5t26 58.5t49.5 48.5t79 35.5q12 -23 40 -54.5t72.5 -59.5t104.5 -47.5t137 -19.5q9 0 23.5 0.5t28.5 4
t24 10.5t10 20q0 5 -2 13q-17 -2 -31 -2.5t-46 -0.5q-47 0 -97 11.5t-95.5 34.5t-83 59t-59.5 84q-34 -6 -62.5 -16t-56.5 -27q-11 15 -23 35t-22 44.5t-16 53t-6 59.5q0 72 26 129t71.5 97.5t106.5 62t130 21.5q33 0 59 -2t47 -5t39 -7.5t35 -8.5q3 7 3 14q0 19 -22.5 30
t-52.5 16.5t-59.5 6.5t-42.5 1q-100 0 -176 -31t-128 -94h-97q-31 43 -46 84.5t-15 95.5q0 28 4 51.5t11.5 45.5t19 43t26.5 44h1131q15 -23 26.5 -44t19.5 -43t12 -45.5t4 -51.5q0 -54 -15.5 -95.5t-46.5 -84.5h-108v-119q0 -40 -17 -74.5t-46 -46.5q-45 23 -102 37
t-123 14q-36 0 -66.5 -2.5t-53.5 -9.5t-36 -18t-13 -27q0 -8 5 -16q35 15 75.5 21.5t88.5 6.5z" />
    <glyph glyph-name="DdhaNukta.dv" unicode="&#x95d;" horiz-adv-x="1166" 
d="M769 332q29 0 51.5 9t22.5 38q0 14 -9.5 24.5t-25.5 10.5q-21 0 -33 -14.5t-12 -37.5q0 -14 6 -30zM-14 967q-31 43 -46.5 84.5t-15.5 95.5q0 28 4 51.5t12 45.5t19.5 43t26.5 44h1188q15 -23 26.5 -44t19.5 -43t12 -45.5t4 -51.5q0 -54 -15.5 -95.5t-46.5 -84.5h-151
q2 -20 3 -42t1 -42q0 -51 -16.5 -89t-40.5 -58q-33 13 -72.5 21.5t-87.5 8.5q-83 0 -150.5 -23t-116 -64t-75 -97t-26.5 -123q0 -29 4.5 -54t13.5 -44.5t21.5 -30.5t29.5 -11q7 0 12 3q-12 23 -20 56t-8 71q0 55 23 104.5t64 86.5t99 59t129 22q79 0 141.5 -28t105.5 -75
t66 -108.5t23 -128.5q0 -83 -25.5 -149.5t-72 -117t-112 -83.5t-144.5 -49q-21 54 -65 87t-107 33q-66 0 -111 -32t-65 -86q-95 21 -173 64t-133.5 105.5t-86.5 142t-31 173.5q0 91 22.5 162t59.5 124.5t85.5 91.5t101 64.5t105.5 42.5t99 25q75 15 105 42.5t30 65.5
q0 27 -9 37.5t-28 10.5h-14v-27q0 -37 -21 -53t-72 -27q-34 -7 -60.5 -13.5t-49 -13.5t-44 -15t-45.5 -19h-299zM482 -78q0 28 11 52.5t29.5 43t43 29t51.5 10.5q28 0 52.5 -10.5t43 -29t29.5 -43t11 -52.5q0 -30 -11 -54.5t-29.5 -42.5t-43 -28t-52.5 -10q-30 0 -54.5 11
t-42.5 29.5t-28 43t-10 51.5z" />
    <glyph glyph-name="PhaNukta.dv" unicode="&#x95e;" horiz-adv-x="1652" 
d="M240 135q0 28 11 52.5t29.5 43t43 29t51.5 10.5q28 0 52.5 -10.5t43 -29t29.5 -43t11 -52.5q0 -30 -11 -54.5t-29.5 -42.5t-43 -28t-52.5 -10q-30 0 -54.5 11t-42.5 29.5t-28 43t-10 51.5zM552 967h-57q-3 -11 -6 -40t-3 -55q0 -38 14 -68t52 -36v199zM550 301
q20 3 52.5 11.5t63 22t53 32t22.5 40.5q0 14 -10 28q-26 -23 -59 -40.5t-69.5 -29.5t-76 -18.5t-78.5 -6.5q-97 0 -175 30t-133 85.5t-84.5 134t-29.5 174.5q0 54 4 104.5t12 98.5h-68q-31 43 -46 84.5t-15 95.5q0 28 4 51.5t11.5 45.5t19 43t26.5 44h1681q15 -23 26.5 -44
t19.5 -43t12 -45.5t4 -51.5q0 -54 -15.5 -95.5t-46.5 -84.5h-164q-45 29 -108 51t-144 22q-47 0 -86 -7.5t-67 -20t-44 -28.5t-16 -32q0 -15 6 -22q45 32 94.5 48.5t112.5 16.5q91 0 163.5 -35.5t123.5 -93.5t78.5 -132t27.5 -150q0 -98 -28 -174.5t-75 -129t-108.5 -80.5
t-128.5 -28q-118 0 -183 63.5t-65 177.5q0 73 30 150q8 -5 16.5 -8.5t19.5 -3.5q20 0 32 15.5t12 39.5q0 28 -18.5 42.5t-42.5 14.5q-12 0 -24 -3q-14 -14 -28 -39.5t-25 -58.5t-18 -71.5t-7 -77.5q0 -47 9 -83t24 -64t33 -47.5t36 -33.5q-7 -32 -25 -66t-49.5 -62
t-78 -46.5t-110.5 -18.5q-51 0 -101 14t-89.5 46t-64.5 83t-25 125v41z" />
    <glyph glyph-name="YaNukta.dv" unicode="&#x95f;" horiz-adv-x="1206" 
d="M635 956q12 -13 23.5 -31.5t20.5 -41t14.5 -47.5t5.5 -51q0 -52 -18 -90.5t-48.5 -64.5t-71.5 -39t-86 -13v-7q0 -18 12 -26.5t39 -8.5q37 0 77 15.5t73 46t54.5 77.5t21.5 110q0 37 -9 71t-23 59.5t-30.5 40.5t-30.5 15q-6 0 -13.5 -4t-10.5 -11zM547 174q-17 0 -35.5 1
t-32.5 3q-15 63 -62.5 100t-113.5 37q-56 0 -102 -31q-85 63 -133 156t-48 211q0 44 9.5 84t29.5 82q13 -8 31.5 -13t40.5 -5q45 0 71.5 24.5t26.5 61.5q0 32 -18 52t-41 30h-180q-31 43 -46 84.5t-15 95.5q0 28 4 51.5t11.5 45.5t19 43t26.5 44h1240q15 -23 26.5 -44
t19 -43t11.5 -45.5t4 -51.5q0 -54 -15 -95.5t-46 -84.5h-50v-582q0 -36 3 -63.5t10 -50t17 -40.5t25 -36q-10 -50 -34 -87.5t-59 -63.5t-78.5 -39t-92.5 -13q-41 0 -80.5 9t-74 28t-61.5 46.5t-42 65.5q33 6 66 20t59.5 31.5t43.5 37.5t17 38q0 19 -14 25q-27 -26 -60 -48
t-73.5 -38t-91 -24.5t-113.5 -8.5zM168 135q0 28 11 52.5t29.5 43t43 29t51.5 10.5q28 0 52.5 -10.5t43 -29t29.5 -43t11 -52.5q0 -30 -11 -54.5t-29.5 -42.5t-43 -28t-52.5 -10q-30 0 -54.5 11t-42.5 29.5t-28 43t-10 51.5z" />
    <glyph glyph-name="vowelRuu.dv" unicode="&#x960;" horiz-adv-x="1779" 
d="M1790 1331q15 -23 26.5 -44t19.5 -43t12 -45.5t4 -51.5q0 -54 -15.5 -95.5t-46.5 -84.5h-180q-15 21 -37.5 44t-54.5 41.5t-75.5 30.5t-100.5 12q-59 0 -111.5 -19.5t-91.5 -53.5t-62 -80.5t-23 -100.5q0 -42 8 -58t26 -16q6 0 12.5 1t8.5 3q-2 18 -2.5 32.5t-0.5 21.5
q0 52 20 94t53 71t75 44.5t86 15.5q63 0 109.5 -18t77 -48.5t45 -69.5t14.5 -81q0 -25 -4 -45.5t-11 -35.5l176 -42q6 -29 9 -64t3 -61q0 -45 -10.5 -82t-30 -64t-48 -41.5t-64.5 -14.5q-28 0 -55.5 3t-54.5 8q-10 -6 -10 -21q0 -20 24 -32t81 -12q42 0 71.5 8t46.5 18
q9 -6 17.5 -19.5t15 -31t11 -37.5t4.5 -39q0 -63 -21.5 -106.5t-57.5 -70.5t-83 -39.5t-98 -12.5q-68 0 -128.5 18t-106.5 52.5t-73 85.5t-27 117q0 63 31.5 119t85.5 93q-5 4 -9 8t-7 8q-16 -12 -37 -22.5t-44 -19t-45.5 -14t-41.5 -6.5v-90q0 -41 3 -71.5t8.5 -54
t13.5 -41.5t18 -34q-15 -38 -40.5 -66.5t-58 -48.5t-71 -30t-80.5 -10q-44 0 -87 11t-80 34t-64 58.5t-40 85.5l68 89q35 45 51 69.5t16 41.5q0 11 -7.5 19t-16.5 11l-148 -183q-29 -36 -59 -64.5t-63 -48t-71.5 -29.5t-83.5 -10t-88 15.5t-76.5 47.5t-54 80.5t-20.5 114.5
q0 13 1 34t3 35l435 205q1 5 1.5 10.5t0.5 9.5q0 21 -13.5 31.5t-30.5 10.5q-21 0 -35 -13t-14 -36l-260 -122q-24 10 -47.5 30t-42.5 49t-30.5 65.5t-11.5 79.5q0 73 28.5 133t76.5 103t110.5 66t130.5 23q70 0 125.5 -16t98 -41.5t74 -57.5t52.5 -63q12 2 17 10t5 18
q0 21 -26 54t-74 64.5t-117 54t-155 22.5q-58 0 -105.5 -12t-85 -30.5t-65 -40.5t-45.5 -43h-113q-31 43 -46.5 84.5t-15.5 95.5q0 28 4 51.5t12 45.5t19.5 43t26.5 44h1838z" />
    <glyph glyph-name="vowelLruu.dv" unicode="&#x961;" horiz-adv-x="1507" 
d="M-25 967q-31 43 -46 84.5t-15 95.5q0 28 4 51.5t11.5 45.5t19 43t26.5 44h1549q15 -23 26.5 -44t19 -43t11.5 -45.5t4 -51.5q0 -54 -15 -95.5t-46 -84.5h-226v-48q37 -19 70 -51.5t58 -76.5t40 -98t15 -117q0 -75 -22.5 -140t-60.5 -116q-26 11 -53 20.5t-56 15.5
q-7 -18 -24 -42t-42 -47t-57.5 -42t-71.5 -28q0 -17 8 -22.5t22 -5.5q25 0 53 11.5t54.5 30.5t49 43t36.5 50q32 -9 63 -25.5t55 -42.5t39 -62.5t15 -84.5q0 -59 -22 -105.5t-61 -80t-91.5 -55t-113.5 -30.5q7 -21 19 -28t29 -7q23 0 49 7t51 18t47.5 25.5t39.5 29.5
q18 -18 33.5 -50t15.5 -79q0 -60 -27 -105.5t-75 -77t-114 -47.5t-144 -16q-74 0 -137 16.5t-109 48t-72.5 77.5t-26.5 105q0 40 13 74t34.5 62.5t49.5 51t59 39.5q-4 22 -30 22q-19 0 -45.5 -18.5t-55.5 -49.5q-31 33 -47.5 71t-16.5 92q0 61 21.5 105.5t54 79t70.5 61
t70.5 51t54 49.5t21.5 57q0 14 -8 20t-19 6q-16 -37 -42 -65t-59.5 -47t-72.5 -28.5t-82 -9.5q-40 0 -78.5 11t-71.5 32t-59 51.5t-41 69.5q-14 0 -21.5 -10t-7.5 -23q0 -30 21 -60t54 -54.5t74 -41t80 -20.5q13 -28 18 -50t5 -48q0 -46 -15.5 -86.5t-46 -71t-77 -48
t-107.5 -17.5q-92 0 -175 39.5t-145.5 110t-99.5 167.5t-37 211q0 82 27.5 162.5t82 144t135 103t187.5 39.5q42 0 83.5 -12t79.5 -35t71 -58t57 -80q16 35 39 62.5t49 47.5t53.5 31.5t53.5 14.5q0 20 -10 26.5t-27 6.5t-37.5 -7.5t-41.5 -21.5t-41.5 -33t-37.5 -42
q-22 30 -53.5 56.5t-70 46t-84 31t-95.5 11.5q-51 0 -101.5 -10.5t-111.5 -36.5h-252z" />
    <glyph glyph-name="matraLru.dv" unicode="&#x962;" 
d="M-84 48q67 0 115.5 -24.5t80 -64.5t47 -91.5t15.5 -105.5q0 -50 -11 -90.5t-37 -75.5q-18 8 -37.5 14t-39.5 9q-6 -14 -17 -29.5t-28 -30t-40 -26.5t-52 -18q0 -27 26 -27q17 0 36.5 7t37.5 19t34 28t25 34q21 -7 41 -17.5t35.5 -27.5t25 -40.5t9.5 -56.5
q0 -48 -21 -84.5t-56 -61t-82 -37t-99 -12.5q-50 0 -93.5 11.5t-76 35t-51.5 59t-19 82.5q0 44 14 75.5t35.5 55t46.5 41t46.5 34t35.5 33t14 37.5q0 9 -6.5 17t-23.5 8q-21 -51 -62.5 -75.5t-100.5 -24.5q-54 0 -96.5 27.5t-62.5 79.5q-17 0 -23 -9t-6 -17q0 -21 14 -41
t35.5 -36t47.5 -26.5t50 -13.5q9 -19 12.5 -33.5t3.5 -32.5q0 -31 -9.5 -58.5t-29 -48t-50 -32.5t-72.5 -12q-62 0 -117 27t-97 74.5t-66.5 112.5t-24.5 142q0 56 16.5 109t50 94.5t86 66.5t124.5 25q73 0 128.5 -27t88.5 -90q32 63 88.5 101t141.5 38z" />
    <glyph glyph-name="matraLruu.dv" unicode="&#x963;" 
d="M-84 48q67 0 115.5 -24.5t80 -64.5t47 -91.5t15.5 -105.5q0 -50 -11 -90.5t-37 -75.5q-18 8 -37.5 14t-39.5 9q-6 -14 -17 -29.5t-28 -30t-40 -26.5t-52 -18q0 -27 26 -27q17 0 36.5 7t37.5 19t34 28t25 34q21 -7 41 -17.5t35.5 -27.5t25 -40.5t9.5 -56.5q0 -38 -15 -67
t-40.5 -50.5t-61 -34.5t-75.5 -19q4 -18 11 -25t20 -7q32 0 67.5 16.5t58.5 36.5q14 -12 23.5 -31t9.5 -50q0 -41 -18 -72t-50.5 -52t-77 -31.5t-96.5 -10.5q-50 0 -92 11t-73 32t-48.5 52t-17.5 71q0 50 28.5 86.5t65.5 60.5q-3 11 -9.5 15t-14.5 4q-14 0 -30.5 -13
t-29.5 -29q-33 39 -33 100q0 44 14 75.5t35.5 55t46.5 41t46.5 34t35.5 33t14 37.5q0 9 -6.5 17t-23.5 8q-21 -51 -62.5 -75.5t-100.5 -24.5q-54 0 -96.5 27.5t-62.5 79.5q-17 0 -23 -9t-6 -17q0 -21 14 -41t35.5 -36t47.5 -26.5t50 -13.5q9 -19 12.5 -33.5t3.5 -32.5
q0 -31 -9.5 -58.5t-29 -48t-50 -32.5t-72.5 -12q-62 0 -117 27t-97 74.5t-66.5 112.5t-24.5 142q0 56 16.5 109t50 94.5t86 66.5t124.5 25q73 0 128.5 -27t88.5 -90q32 63 88.5 101t141.5 38z" />
    <glyph glyph-name="Danda.dv" unicode="&#x964;" horiz-adv-x="926" 
d="M719 385q0 -36 3.5 -63.5t10.5 -50t17.5 -40.5t25.5 -36q-10 -50 -34 -87.5t-58.5 -63.5t-78.5 -39t-93 -13q-51 0 -99.5 14t-86.5 46t-61 83t-23 125v685q0 36 -3.5 63.5t-10.5 50t-17.5 40.5t-25.5 36q10 49 34 87t58.5 64t78 39t93.5 13q51 0 99.5 -14t86.5 -46
t61 -83t23 -125v-685z" />
    <glyph glyph-name="Doubledanda.dv" unicode="&#x965;" horiz-adv-x="1457" 
d="M719 385q0 -36 3.5 -63.5t10.5 -50t17.5 -40.5t25.5 -36q-10 -50 -34 -87.5t-58.5 -63.5t-78.5 -39t-93 -13q-51 0 -99.5 14t-86.5 46t-61 83t-23 125v685q0 36 -3.5 63.5t-10.5 50t-17.5 40.5t-25.5 36q10 49 34 87t58.5 64t78 39t93.5 13q51 0 99.5 -14t86.5 -46
t61 -83t23 -125v-685zM1250 385q0 -36 3.5 -63.5t10.5 -50t17.5 -40.5t25.5 -36q-10 -50 -34 -87.5t-58.5 -63.5t-78.5 -39t-93 -13q-35 0 -70 6.5t-66.5 20.5t-58.5 36t-46 53q9 18 17.5 44.5t12.5 63.5q-8 8 -18.5 19.5t-19.5 31t-15 48.5t-6 73v682q0 83 -29 143
q35 63 96.5 94t139.5 31q51 0 99.5 -14t86.5 -46t61 -83t23 -125v-685z" />
    <glyph glyph-name="Shunya.dv" unicode="&#x966;" horiz-adv-x="995" 
d="M10 653q0 115 36 211t101 164t154 106t196 38q106 0 196 -38t154.5 -106t101 -164t36.5 -211q0 -116 -36.5 -211t-101 -163.5t-154.5 -106t-196 -37.5q-107 0 -196 37.5t-154 106t-101 163.5t-36 211zM497 513q14 0 20.5 12t6.5 49v145q0 38 -6.5 52t-20.5 14t-21 -14
t-7 -52v-144q0 -38 7 -50t21 -12z" />
    <glyph glyph-name="Ek.dv" unicode="&#x967;" horiz-adv-x="1006" 
d="M10 959q0 98 38 172.5t105 125t156.5 76.5t193.5 26q99 0 190 -29.5t160.5 -86.5t111 -140t41.5 -190q0 -100 -42.5 -177.5t-111.5 -134.5t-157 -94t-179 -55q0 -37 33 -37q15 0 35 4t42.5 10.5t45 14.5t42.5 16l56 -56q44 -44 66 -95.5t22 -103.5q0 -48 -17.5 -91.5
t-49.5 -77t-79 -53.5t-105 -20q-19 0 -40.5 2.5t-43.5 7t-42.5 11.5t-36.5 16q1 5 1.5 9.5t0.5 9.5q0 40 -27.5 76t-78 78t-122 94.5t-159.5 124.5q-8 25 -12 52.5t-4 54.5q0 30 4 57.5t12 48.5q31 11 71.5 29t71.5 35q-47 21 -82.5 53.5t-60 70.5t-37 81t-12.5 85zM501 855
q26 17 37.5 38t11.5 41q0 22 -13 37t-36 15t-36 -15t-13 -37q0 -20 11 -41t38 -38z" />
    <glyph glyph-name="Don.dv" unicode="&#x968;" horiz-adv-x="1067" 
d="M37 589q0 34 6.5 68t17.5 62.5t24 50t27 32.5q23 -17 46 -30t48.5 -22t55.5 -13.5t67 -4.5q64 0 113 18t82.5 43t51 51t17.5 42q0 22 -18 30l-6 2q-3 1 -6 1q-11 -27 -31.5 -52.5t-50.5 -45.5t-69.5 -32t-88.5 -12q-53 0 -105.5 19.5t-94 56.5t-67.5 91t-26 123v25
t0.5 19t1.5 19.5t3 26.5q85 100 204.5 148t272.5 48q125 0 226 -37.5t172 -104.5t109 -159t38 -201q0 -107 -38.5 -191t-105.5 -143t-157.5 -93.5t-194.5 -41.5q2 -18 12.5 -28t41.5 -10q41 0 90 12.5t88 29.5q13 -18 29.5 -29t33.5 -17t34 -9t32 -5q7 -22 12.5 -53.5
t5.5 -57.5q0 -40 -14.5 -82.5t-47.5 -78t-86.5 -58t-131.5 -22.5q-87 0 -152.5 26.5t-115 74t-85 113t-63.5 143.5q-34 5 -60 13.5t-54 22.5q-17 15 -34 38.5t-30 53t-21 62.5t-8 68z" />
    <glyph glyph-name="Teen.dv" unicode="&#x969;" horiz-adv-x="1092" 
d="M903 -29q-10 -39 -32 -73t-56 -59t-80.5 -39.5t-104.5 -14.5q-50 0 -102.5 16.5t-99.5 53.5t-86 96t-63 145q-24 3 -53 11.5t-58 20.5t-55 26.5t-43 28.5q-30 42 -45 94t-15 100q0 63 20.5 114t55.5 87.5t81.5 56.5t99.5 20h19.5t18.5 -1q10 -53 37 -93.5t63.5 -68.5
t79 -42.5t84.5 -14.5q37 0 59.5 8.5t22.5 25.5q0 7 -5 17q-17 -2 -32 -3.5t-30 -1.5q-61 0 -105 20t-72.5 52t-42 71.5t-13.5 79.5q0 43 14.5 84t43 73.5t70.5 52.5t96 20q11 0 23 -1t24 -3q3 7 3 14q0 19 -20 27t-54 8q-36 0 -78.5 -15.5t-79 -48t-61.5 -84t-27 -123.5
q-59 0 -110 20.5t-89 56.5t-60 84t-22 102q0 72 32 141.5t96.5 124t163 88.5t230.5 34q129 0 226.5 -30t163 -81t98.5 -119.5t33 -146.5q0 -47 -14 -86t-36 -70t-50 -52.5t-56 -32.5q27 -10 57 -31t55.5 -55.5t42 -84.5t16.5 -118q0 -91 -36.5 -159t-96 -113t-135.5 -67.5
t-155 -22.5h-22.5t-22.5 1q-1 -4 -1 -10q0 -15 10.5 -24t39.5 -9q50 0 90.5 6.5t67.5 14.5z" />
    <glyph glyph-name="Chaar.dv" unicode="&#x96a;" horiz-adv-x="1136" 
d="M1098 405q0 -107 -41 -184.5t-112.5 -128t-168.5 -74.5t-209 -24q-108 0 -202.5 26t-164 78t-110 129.5t-40.5 180.5q0 66 18.5 121.5t52 98t80.5 70.5t105 39q0 17 -6.5 28.5t-20.5 11.5q-26 0 -60 -11.5t-59 -28.5q-91 51 -135.5 126.5t-44.5 166.5q0 75 26 130.5
t70.5 92t103.5 54t124 17.5q56 0 98.5 -10t75 -27t56.5 -41.5t42 -52.5q-6 -15 -11 -28t-8.5 -27.5t-5.5 -31t-2 -39.5q0 -28 9 -54t26 -50q14 7 25.5 22.5t20 36t13.5 45t5 49.5q0 21 -4.5 41t-10.5 37.5t-13 31t-13 22.5q16 13 40 27t53.5 25.5t65 18.5t75.5 7
q78 0 137 -24t98.5 -63.5t59.5 -91.5t20 -108q0 -65 -22 -124t-64 -107.5t-103.5 -83.5t-140.5 -50q0 -17 6.5 -28.5t24.5 -11.5q8 0 22.5 3.5t31 9t32.5 12t28 13.5q26 -14 49 -44t40.5 -67t27.5 -78t10 -78zM507 414q0 -22 13.5 -32.5t35.5 -10.5t34.5 10t12.5 33
q0 20 -12 34.5t-35 28.5q-22 -13 -35.5 -28t-13.5 -35z" />
    <glyph glyph-name="Paach.dv" unicode="&#x96b;" horiz-adv-x="1131" 
d="M572 624q-19 30 -30 71t-11 84q0 51 18.5 98t53 83t84 57.5t112.5 21.5q67 0 125.5 -21t102 -62t69 -102t25.5 -140q0 -114 -59 -206t-165 -149q36 -51 52.5 -98.5t16.5 -106.5q0 -69 -24 -118.5t-64.5 -82t-93 -48t-109.5 -15.5q-56 0 -109 17t-95 49.5t-70 80
t-34 109.5q35 26 57.5 51.5t41.5 54.5q10 -3 24 -5t29.5 -3.5t31.5 -2.5t30 -1q57 0 74.5 8.5t17.5 26.5q0 5 -2 15q-23 -2 -46.5 -3.5t-47.5 -1.5q-69 0 -138.5 14.5t-132.5 43.5t-117 73t-94 102.5t-62.5 132t-22.5 161.5q0 100 32 188.5t83 159t115 120.5t129 75
q8 1 16.5 1h16.5q54 0 110 -12.5t106.5 -35t91.5 -54t65 -68.5l-42 -97q-62 -14 -109 -44t-78.5 -71.5t-48 -91t-16.5 -101.5q0 -31 6 -61t15.5 -53.5t21.5 -38t25 -14.5q12 0 23 10z" />
    <glyph glyph-name="Saha.dv" unicode="&#x96c;" horiz-adv-x="1092" 
d="M1021 39q-2 -57 -25.5 -101.5t-61.5 -75t-88 -46.5t-105 -16q-52 0 -100 15.5t-85 45.5t-60.5 75t-27.5 104h26q27 0 59 2.5t59.5 9t45.5 17.5t18 29q0 8 -4 16q-24 -11 -69.5 -20.5t-109.5 -9.5q-92 0 -178.5 23.5t-154.5 70t-109 115t-41 159.5q0 68 16.5 118t42 84.5
t55.5 55.5t57 31q-28 11 -56 32.5t-50 52.5t-36 70t-14 86q0 78 33 146.5t98.5 119.5t163 81t226.5 30q132 0 230.5 -34t163 -88.5t96.5 -124t32 -141.5q0 -54 -22 -102t-60 -84t-89.5 -56.5t-109.5 -20.5q-2 72 -27 123.5t-61.5 84t-79 48t-78.5 15.5q-34 0 -54 -8t-20 -27
q0 -7 3 -14q12 2 24 3t23 1q54 0 95.5 -20t70 -52.5t43.5 -73.5t15 -84q0 -40 -13.5 -79.5t-42 -71.5t-72.5 -52t-105 -20q-15 0 -30 1.5t-32 3.5q-5 -10 -5 -17q0 -17 22.5 -25.5t59.5 -8.5q42 0 84.5 14.5t79 42.5t63.5 68.5t37 93.5q10 1 18.5 1h19.5q53 0 99.5 -15.5
t81.5 -46t55.5 -77t20.5 -109.5q0 -36 -9.5 -72.5t-26 -69.5t-40.5 -60t-52 -43z" />
    <glyph glyph-name="Saat.dv" unicode="&#x96d;" horiz-adv-x="1220" 
d="M578 361q-26 19 -50.5 46t-43.5 63t-31 79.5t-12 95.5q0 82 26 151t73 119.5t112.5 78.5t144.5 28q94 0 170 -37t130 -98.5t83.5 -142t29.5 -167.5q0 -96 -33.5 -193.5t-105 -176.5t-182.5 -128.5t-266 -49.5q-75 0 -149.5 16.5t-142.5 51t-126.5 87.5t-102 125.5
t-68 164.5t-24.5 206q0 99 25.5 193.5t65 176.5t87.5 147.5t94 106.5q20 2 39.5 3.5t39.5 1.5q51 0 100 -9t94 -28t84 -48.5t69 -70.5l-39 -98q-61 -17 -112.5 -54.5t-89 -90.5t-59 -120t-21.5 -143q0 -69 19.5 -126t45.5 -97t53 -62t42 -22q14 0 20 5.5t11 15.5zM780 550
q17 15 24 34t7 36q0 24 -10.5 35t-24.5 11q-18 0 -27.5 -12t-9.5 -29q0 -14 5 -26.5t12 -22.5t14 -16.5t10 -9.5z" />
    <glyph glyph-name="Aath.dv" unicode="&#x96e;" horiz-adv-x="962" 
d="M10 454q0 79 16.5 144.5t45 122t68.5 107t86.5 100t98.5 99.5t106 107q47 49 85 95t55 81q71 -4 133 -24t108 -56t72.5 -86t26.5 -114q0 -60 -19 -111t-51 -98t-76 -90.5t-93 -88.5l-107 -97q-37 -33 -58.5 -66.5t-21.5 -60.5q0 -12 8 -17.5t28 -5.5q15 50 41.5 78.5
t65.5 51.5q29 17 49 28t35 18t27 11t26 9q53 -21 98.5 -53t81.5 -73.5t60.5 -91.5t36.5 -106q-29 -47 -74 -94.5t-105.5 -85.5t-136.5 -61.5t-166 -23.5q-109 0 -208.5 29.5t-175.5 86.5t-121 141.5t-45 194.5z" />
    <glyph glyph-name="Nau.dv" unicode="&#x96f;" horiz-adv-x="944" 
d="M572 485q0 -22 11 -30.5t29 -8.5q33 0 75 10.5t76 27.5l77 -105q35 -49 50 -93.5t15 -87.5q0 -53 -19.5 -96t-55.5 -73.5t-87.5 -47.5t-115.5 -17q-29 0 -58.5 3.5t-56 9.5t-49 13t-38.5 14v32q0 22 -3.5 50t-12.5 57t-24 57.5t-39 53.5l-170 176q-43 44 -84 94
t-73.5 106t-52 118.5t-19.5 132.5q0 108 34 195.5t98.5 150t156 96.5t207.5 34q120 0 215 -37t160.5 -100t100.5 -146t35 -175q0 -99 -33.5 -176t-87.5 -130t-122.5 -80.5t-138.5 -27.5zM439 811q33 0 50 19.5t17 45.5q0 32 -14.5 44.5t-31.5 12.5q-20 0 -35 -12.5
t-15 -41.5q0 -27 9 -43.5t20 -24.5z" />
    <glyph glyph-name="uni0970" unicode="&#x970;" horiz-adv-x="761" 
d="M20 668q0 85 26.5 154.5t74.5 118t114 75t145 26.5t145 -26.5t114 -75t75 -118t27 -154.5q0 -86 -27 -154.5t-75 -117.5t-114 -75t-145 -26t-145 26t-114 75t-74.5 117.5t-26.5 154.5zM310 752q-20 -11 -20 -34q0 -18 16 -43t39.5 -48t49.5 -39.5t47 -16.5q12 0 19 4.5
t12 12.5q-54 26 -94.5 69.5t-68.5 94.5z" />
    <glyph glyph-name="uni0971" unicode="&#x971;" horiz-adv-x="682" 
d="M120 1144q0 46 17 87t46.5 71.5t69.5 48t86 17.5t86.5 -17.5t71 -48t48 -71.5t17.5 -87t-15.5 -86t-44.5 -69.5t-69.5 -46.5t-90.5 -17q-49 0 -90 17t-70 46.5t-45.5 69.5t-16.5 86z" />
    <glyph glyph-name="vowelChandraA.dv" unicode="&#x972;" horiz-adv-x="1543" 
d="M1009 1817q12 -21 32 -40t46.5 -34t58.5 -24t68 -9q63 0 117.5 27.5t82.5 79.5q21 0 49 -11.5t53.5 -34t43.5 -57t18 -80.5t-21.5 -91t-66.5 -81t-113 -58t-161 -22t-161.5 22t-113 58t-66.5 81t-22 91t16.5 80.5t40.5 57t51 34t48 11.5zM1103 382q0 45 -8.5 79.5
t-21 57.5t-27 35t-27.5 12q-11 0 -17 -5t-8 -12q22 -25 39 -66t17 -98q0 -86 -35 -157.5t-100.5 -123t-159.5 -80t-211 -28.5q-97 0 -191 30.5t-168 87t-119.5 136.5t-45.5 178q0 70 25.5 118.5t65 78t89 43t97.5 14.5q1 -63 20.5 -114t55 -88t86.5 -57t114 -20q61 0 61 34
q0 8 -3 17q-23 -6 -51 -6q-109 0 -170.5 62t-61.5 171q0 48 18 87.5t48.5 68t71.5 44.5t87 16q15 0 26 -0.5t21 -2.5q3 6 3 13q0 19 -17.5 27t-42.5 8q-36 0 -72 -11t-69 -31t-60.5 -50t-46.5 -67q-66 5 -114.5 34.5t-80 71.5t-47 90.5t-15.5 91.5q27 49 69 100.5t102 94
t138.5 69.5t177.5 27q117 0 207.5 -30.5t153 -84.5t94.5 -129t32 -165q0 -17 -2.5 -41.5t-7.5 -39.5q7 -6 20 -6q19 0 31 26.5t12 71.5q0 75 -23 144t-73 127q3 28 20 53.5t40 42.5h518q15 -23 26.5 -44t19 -43t11.5 -45.5t4 -51.5q0 -54 -15 -95.5t-46 -84.5h-50v-582
q0 -36 3.5 -63.5t10.5 -50t17.5 -40.5t25.5 -36q-10 -50 -34 -87.5t-58.5 -63.5t-78.5 -39t-93 -13q-42 0 -84 9.5t-78 30.5t-64 54t-42 81q28 45 44.5 100t16.5 115z" />
    <glyph glyph-name="uni0973" unicode="&#x973;" horiz-adv-x="1543" 
d="M1038 1667q42 32 101.5 50t128.5 18q71 0 129 -17.5t105 -50.5v-336h65q15 -23 26.5 -44t19 -43t11.5 -45.5t4 -51.5q0 -54 -15 -95.5t-46 -84.5h-50v-582q0 -36 3.5 -63.5t10.5 -50t17.5 -40.5t25.5 -36q-10 -50 -34 -87.5t-58.5 -63.5t-78.5 -39t-93 -13q-42 0 -84 9.5
t-78 30.5t-64 54t-42 81q28 45 44.5 100t16.5 115q0 45 -8.5 79.5t-21 57.5t-27 35t-27.5 12q-11 0 -17 -5t-8 -12q22 -25 39 -66t17 -98q0 -86 -35 -157.5t-100.5 -123t-159.5 -80t-211 -28.5q-97 0 -191 30.5t-168 87t-119.5 136.5t-45.5 178q0 70 25.5 118.5t65 78t89 43
t97.5 14.5q1 -63 20.5 -114t55 -88t86.5 -57t114 -20q61 0 61 34q0 8 -3 17q-23 -6 -51 -6q-109 0 -170.5 62t-61.5 171q0 48 18 87.5t48.5 68t71.5 44.5t87 16q15 0 26 -0.5t21 -2.5q3 6 3 13q0 19 -17.5 27t-42.5 8q-36 0 -72 -11t-69 -31t-60.5 -50t-46.5 -67
q-66 5 -114.5 34.5t-80 71.5t-47 90.5t-15.5 91.5q27 49 69 100.5t102 94t138.5 69.5t177.5 27q117 0 207.5 -30.5t153 -84.5t94.5 -129t32 -165q0 -17 -2.5 -41.5t-7.5 -39.5q7 -6 20 -6q19 0 31 26.5t12 71.5q0 44 -12 94.5t-35 98.5v510z" />
    <glyph glyph-name="uni0974" unicode="&#x974;" horiz-adv-x="2074" 
d="M2105 195q-10 -50 -34 -87.5t-58.5 -63.5t-78.5 -39t-93 -13q-35 0 -70 6.5t-66.5 20.5t-58.5 36t-46 53q9 18 17.5 44.5t12.5 63.5q-8 8 -18.5 18t-19.5 28.5t-15 48t-6 77.5v579h-54v-582q0 -36 3.5 -63.5t10.5 -50t17.5 -40.5t25.5 -36q-10 -50 -34 -87.5t-58.5 -63.5
t-78.5 -39t-93 -13q-42 0 -84 9.5t-78 30.5t-64 54t-42 81q28 45 44.5 100t16.5 115q0 45 -8.5 79.5t-21 57.5t-27 35t-27.5 12q-11 0 -17 -5t-8 -12q22 -25 39 -66t17 -98q0 -86 -35 -157.5t-100.5 -123t-159.5 -80t-211 -28.5q-97 0 -191 30.5t-168 87t-119.5 136.5
t-45.5 178q0 70 25.5 118.5t65 78t89 43t97.5 14.5q1 -63 20.5 -114t55 -88t86.5 -57t114 -20q61 0 61 34q0 8 -3 17q-23 -6 -51 -6q-109 0 -170.5 62t-61.5 171q0 48 18 87.5t48.5 68t71.5 44.5t87 16q15 0 26 -0.5t21 -2.5q3 6 3 13q0 19 -17.5 27t-42.5 8q-36 0 -72 -11
t-69 -31t-60.5 -50t-46.5 -67q-66 5 -114.5 34.5t-80 71.5t-47 90.5t-15.5 91.5q27 49 69 100.5t102 94t138.5 69.5t177.5 27q117 0 207.5 -30.5t153 -84.5t94.5 -129t32 -165q0 -17 -2.5 -41.5t-7.5 -39.5q7 -6 20 -6q19 0 31 26.5t12 71.5q0 75 -23 144t-73 127
q3 28 20 53.5t40 42.5h522v336q42 32 101.5 50t128.5 18q71 0 129 -17.5t105 -50.5v-336h63q15 -23 26.5 -44t19 -43t11.5 -45.5t4 -51.5q0 -54 -15 -95.5t-46 -84.5h-50v-582q0 -36 3.5 -63.5t10.5 -50t17.5 -40.5t25.5 -36z" />
    <glyph glyph-name="uni0975" unicode="&#x975;" horiz-adv-x="2074" 
d="M2105 195q-10 -50 -34 -87.5t-58.5 -63.5t-78.5 -39t-93 -13q-35 0 -70 6.5t-66.5 20.5t-58.5 36t-46 53q9 18 17.5 44.5t12.5 63.5q-8 8 -18.5 18t-19.5 28.5t-15 48t-6 77.5v579h-54v-582q0 -36 3.5 -63.5t10.5 -50t17.5 -40.5t25.5 -36q-10 -50 -34 -87.5t-58.5 -63.5
t-78.5 -39t-93 -13q-42 0 -84 9.5t-78 30.5t-64 54t-42 81q28 45 44.5 100t16.5 115q0 45 -8.5 79.5t-21 57.5t-27 35t-27.5 12q-11 0 -17 -5t-8 -12q22 -25 39 -66t17 -98q0 -86 -35 -157.5t-100.5 -123t-159.5 -80t-211 -28.5q-97 0 -191 30.5t-168 87t-119.5 136.5
t-45.5 178q0 70 25.5 118.5t65 78t89 43t97.5 14.5q1 -63 20.5 -114t55 -88t86.5 -57t114 -20q61 0 61 34q0 8 -3 17q-23 -6 -51 -6q-109 0 -170.5 62t-61.5 171q0 48 18 87.5t48.5 68t71.5 44.5t87 16q15 0 26 -0.5t21 -2.5q3 6 3 13q0 19 -17.5 27t-42.5 8q-36 0 -72 -11
t-69 -31t-60.5 -50t-46.5 -67q-66 5 -114.5 34.5t-80 71.5t-47 90.5t-15.5 91.5q27 49 69 100.5t102 94t138.5 69.5t177.5 27q117 0 207.5 -30.5t153 -84.5t94.5 -129t32 -165q0 -17 -2.5 -41.5t-7.5 -39.5q7 -6 20 -6q19 0 31 26.5t12 71.5q0 75 -23 144t-73 127
q3 28 20 53.5t40 42.5h588q15 3 15 16q0 17 -18.5 23.5t-64.5 6.5q-16 0 -29.5 -0.5t-24.5 -0.5q-90 0 -151 21t-97.5 55.5t-52.5 78.5t-16 91q0 39 9.5 72.5t24.5 61.5t35 50.5t41 39.5l92 -11q4 -30 17 -52t36 -37.5t58 -26.5t83 -19l113 -19q28 -5 50.5 -12t39.5 -19
t27.5 -31t13.5 -47q13 0 21.5 7t8.5 23q0 18 -7.5 36t-25 34.5t-46 29.5t-70.5 20l-83 13q-41 6 -73.5 15.5t-55 26t-34.5 41t-12 60.5q0 35 15 66t43 57l92 -11q2 -21 12 -33.5t25 -20t32.5 -10.5t35.5 -5l60 -7q174 -19 253.5 -102t79.5 -222q0 -30 -7.5 -65t-21 -69.5
t-34 -67t-45.5 -57.5h97q15 -23 26.5 -44t19 -43t11.5 -45.5t4 -51.5q0 -54 -15 -95.5t-46 -84.5h-50v-582q0 -36 3.5 -63.5t10.5 -50t17.5 -40.5t25.5 -36z" />
    <glyph glyph-name="uni0976" unicode="&#x976;" horiz-adv-x="1543" 
d="M1266 -6q-16 41 -33.5 59t-32.5 18q-13 0 -22 -14q25 -23 42 -56.5t17 -78.5q0 -46 -21.5 -91t-66.5 -81t-113 -58t-161 -22t-161.5 22t-113 58t-66.5 81t-22 91q0 54 22 91.5t51 59.5q-3 6 -7 10t-12 4q-17 0 -38.5 -17t-46.5 -70q-89 9 -172 43.5t-147.5 89.5t-103 130
t-38.5 165q0 70 25.5 118.5t65 78t89 43t97.5 14.5q1 -63 20.5 -114t55 -88t86.5 -57t114 -20q61 0 61 34q0 8 -3 17q-23 -6 -51 -6q-109 0 -170.5 62t-61.5 171q0 48 18 87.5t48.5 68t71.5 44.5t87 16q15 0 26 -0.5t21 -2.5q3 6 3 13q0 19 -17.5 27t-42.5 8q-36 0 -72 -11
t-69 -31t-60.5 -50t-46.5 -67q-66 5 -114.5 34.5t-80 71.5t-47 90.5t-15.5 91.5q27 49 69 100.5t102 94t138.5 69.5t177.5 27q117 0 207.5 -30.5t153 -84.5t94.5 -129t32 -165q0 -17 -2.5 -41.5t-7.5 -39.5q7 -6 20 -6q19 0 31 26.5t12 71.5q0 75 -23 144t-73 127
q3 28 20 53.5t40 42.5h518q15 -23 26.5 -44t19 -43t11.5 -45.5t4 -51.5q0 -54 -15 -95.5t-46 -84.5h-50v-582q0 -36 3.5 -63.5t10.5 -50t17.5 -40.5t25.5 -36q-10 -50 -34 -87.5t-58.5 -63.5t-78.5 -39t-93 -13h-22t-22 2zM873 -2q62 0 116 26.5t82 77.5q-9 14 -16.5 30
t-12.5 35q28 45 44.5 100t16.5 115q0 45 -8.5 79.5t-21 57.5t-27 35t-27.5 12q-11 0 -17 -5t-8 -12q22 -25 39 -66t17 -98q0 -130 -77 -224t-217 -136q26 -13 55 -20t62 -7z" />
    <glyph glyph-name="uni0977" unicode="&#x977;" horiz-adv-x="1543" 
d="M1266 -6q-16 41 -33.5 59t-32.5 18q-11 0 -22 -14q25 -23 42 -56.5t17 -78.5q0 -46 -21.5 -88t-66.5 -74t-113 -51t-161 -19t-161.5 19t-113 51t-66.5 74t-22 88q0 54 22 91.5t51 59.5q-3 6 -7 10t-12 4q-17 0 -38.5 -17t-46.5 -70q-89 9 -172 43.5t-147.5 89.5t-103 130
t-38.5 165q0 70 25.5 118.5t65 78t89 43t97.5 14.5q1 -63 20.5 -114t55 -88t86.5 -57t114 -20q61 0 61 34q0 8 -3 17q-23 -6 -51 -6q-109 0 -170.5 62t-61.5 171q0 48 18 87.5t48.5 68t71.5 44.5t87 16q15 0 26 -0.5t21 -2.5q3 6 3 13q0 19 -17.5 27t-42.5 8q-36 0 -72 -11
t-69 -31t-60.5 -50t-46.5 -67q-66 5 -114.5 34.5t-80 71.5t-47 90.5t-15.5 91.5q27 49 69 100.5t102 94t138.5 69.5t177.5 27q117 0 207.5 -30.5t153 -84.5t94.5 -129t32 -165q0 -17 -2.5 -41.5t-7.5 -39.5q7 -6 20 -6q19 0 31 26.5t12 71.5q0 75 -23 144t-73 127
q3 28 20 53.5t40 42.5h518q15 -23 26.5 -44t19 -43t11.5 -45.5t4 -51.5q0 -54 -15 -95.5t-46 -84.5h-50v-582q0 -36 3.5 -63.5t10.5 -50t17.5 -40.5t25.5 -36q-10 -50 -34 -87.5t-58.5 -63.5t-78.5 -39t-93 -13h-22t-22 2zM556 -392q0 36 10 63.5t27 40.5q18 -12 46.5 -23.5
t65 -21.5t79.5 -16t91 -6q97 0 166.5 21t111.5 46q20 -19 29.5 -47t9.5 -57q0 -41 -19 -77.5t-58 -64.5t-99 -44.5t-141 -16.5q-82 0 -142 16.5t-99.5 44.5t-58.5 64.5t-19 77.5zM1050 385q0 -130 -77 -224t-217 -136q26 -13 55 -20t62 -7q62 0 116 26.5t82 77.5
q-9 14 -16.5 30t-12.5 35q28 45 44.5 100t16.5 115q0 45 -8.5 79.5t-21 57.5t-27 35t-27.5 12q-11 0 -17 -5t-8 -12q22 -25 39 -66t17 -98z" />
    <glyph glyph-name="uni0979" unicode="&#x979;" horiz-adv-x="1382" 
d="M722 242q-13 0 -18 -5.5t-5 -12.5q0 -9 2 -14q35 -17 56.5 -49t21.5 -73q0 -30 -11 -54.5t-29.5 -42.5t-43 -28t-52.5 -10q-9 0 -14 1q12 -17 19 -36.5t7 -42.5q0 -30 -11 -54.5t-29.5 -42.5t-43 -28t-52.5 -10q-30 0 -54.5 11t-42.5 29.5t-28 43t-10 51.5q0 23 7 42.5
t19 36.5q-5 -1 -9 -1h-9q-30 0 -54.5 11t-42.5 29.5t-28 43t-10 51.5q0 28 11 52.5t29.5 43t43 29t51.5 10.5q36 0 66 -17.5t49 -46.5q7 2 13 8.5t6 16.5q0 12 -10.5 26.5t-28.5 27t-42.5 21t-52.5 8.5q-49 0 -88 -19.5t-68 -55.5q-50 32 -89.5 72.5t-68 87t-43.5 98.5
t-15 107q0 62 21 112.5t58.5 86.5t90 55.5t115.5 19.5q-3 -15 -3.5 -27.5t-0.5 -25.5q0 -65 19.5 -118t54 -91t81.5 -59t103 -21q55 0 55 41q-64 0 -112.5 18t-81.5 51t-49.5 79.5t-16.5 103.5q0 15 2 34t6.5 38t11 37t15.5 31h555q0 22 -12.5 33.5t-57.5 11.5h-879
q-31 43 -46 84.5t-15 95.5q0 28 4 51.5t11.5 45.5t19 43t26.5 44h1411q15 -23 26.5 -44t19 -43t11.5 -45.5t4 -51.5q0 -54 -15 -95.5t-46 -84.5h-50v-582q0 -36 3.5 -63.5t10.5 -50t17.5 -40.5t25.5 -36q-10 -50 -34 -87.5t-59 -63.5t-78.5 -39t-92.5 -13q-40 0 -79.5 8.5
t-74.5 27.5t-62.5 48.5t-43.5 70.5q69 63 98 128t29 137q0 33 -6.5 61.5t-17 49t-25 32.5t-29.5 12q-6 0 -10.5 -0.5t-9.5 -3.5q21 -32 33 -70.5t12 -80.5q0 -70 -35 -137.5t-107 -113.5q-8 15 -19.5 29.5t-25 26t-27.5 18.5t-27 7z" />
    <glyph glyph-name="uni097A" unicode="&#x97a;" horiz-adv-x="1207" 
d="M1230 1331q15 -23 26.5 -44t19 -43t11.5 -45.5t4 -51.5q0 -54 -15 -95.5t-46 -84.5h-50v-582q0 -36 3 -63.5t10 -50t17 -40.5t25 -36q-10 -50 -34 -87.5t-59 -63.5t-78.5 -39t-92.5 -13q-41 0 -80.5 9t-74 28t-61.5 46.5t-42 65.5q33 6 66 20t59.5 31.5t43.5 37.5t17 38
q0 19 -14 25q-27 -26 -60 -48t-73.5 -38t-91 -24.5t-113.5 -8.5q-102 0 -197.5 32t-168.5 93t-117 149.5t-44 202.5q0 54 13 98t26 68q13 -8 31.5 -13t40.5 -5q45 0 71.5 24.5t26.5 61.5q0 32 -18 52t-41 30h-180q-31 43 -46 84.5t-15 95.5q0 28 4 51.5t11.5 45.5t19 43
t26.5 44h1240zM498 919q-24 -11 -24 -34q0 -17 19 -47.5t49.5 -66t67.5 -73t73.5 -67.5t68 -49.5t49.5 -19.5q25 0 35 20q-40 26 -92 71t-102 94.5t-89.5 96t-54.5 75.5z" />
    <glyph glyph-name="uni097B" unicode="&#x97b;" horiz-adv-x="1167" 
d="M770 344q2 6 2 14q0 31 -56 31h-86q14 16 32 42.5t33.5 64.5t26.5 88t11 115q0 62 -16.5 118t-40 98.5t-49 67.5t-44.5 25t-30 -15q25 -18 48 -49t40.5 -70.5t28 -84.5t10.5 -90q0 -71 -18.5 -138t-60 -120t-109 -85t-164.5 -32q-70 0 -127 21.5t-97 58.5t-62 86t-22 105
q0 41 9 80t24 71q13 -6 27.5 -9t25.5 -3q45 0 73 25t28 70q0 22 -6.5 43.5t-17 40t-23.5 33t-25 21.5h-160q-31 43 -46 84.5t-15 95.5q0 28 4 51.5t11.5 45.5t19 43t26.5 44h1216q15 -23 26.5 -44t19 -43t11.5 -45.5t4 -51.5q0 -54 -15 -95.5t-46 -84.5h-50v-827
q0 -91 -43 -135.5t-127 -44.5h-838q-25 29 -43 77.5t-18 102.5q0 51 12.5 102t41.5 88q11 -8 30.5 -17t45.5 -17t58 -13.5t69 -5.5t68 3.5t59.5 11.5t55.5 20.5t55 31.5h203z" />
    <glyph glyph-name="uni097C" unicode="&#x97c;" horiz-adv-x="1362" 
d="M20 557q0 62 21 112.5t58.5 86.5t90 55.5t115.5 19.5q-3 -15 -3.5 -27.5t-0.5 -25.5q0 -65 17 -115t48.5 -84t75.5 -52t97 -18q55 0 55 41q-125 0 -182.5 58.5t-57.5 173.5q0 15 2 34t6.5 38t11 37t15.5 31h535q0 22 -12.5 33.5t-57.5 11.5h-859q-31 43 -46 84.5
t-15 95.5q0 28 4 51.5t11.5 45.5t19 43t26.5 44h1391q15 -23 26.5 -44t19 -43t11.5 -45.5t4 -51.5q0 -54 -15 -95.5t-46 -84.5h-50v-823q0 -94 -42.5 -139t-126.5 -45h-1074q-25 30 -43 78t-18 102q0 45 9.5 88.5t23.5 67.5q26 -35 57.5 -60t61.5 -41t56 -23.5t41 -7.5
q17 0 22.5 9.5t5.5 20.5q-140 43 -214.5 138.5t-74.5 224.5zM854 222q3 -5 8.5 -9.5t16.5 -4.5q13 0 24 4.5t26 21.5q10 11 21.5 30t21.5 44t17 55.5t7 63.5q0 32 -6 61.5t-16 52t-23.5 36t-28.5 13.5q-6 0 -13 -2t-11 -5q21 -32 33 -70.5t12 -80.5q0 -68 -23.5 -119
t-65.5 -91z" />
    <glyph glyph-name="uni097D" unicode="&#x97d;" horiz-adv-x="1241" 
d="M364 752q-97 50 -145.5 138.5t-48.5 194.5q0 32 4 63t13 63q49 45 114 73.5t129.5 45t121.5 23t91 6.5q105 0 188 -21t147.5 -58t110.5 -87t75 -108.5t43 -122.5t14 -128q0 -95 -32.5 -183t-97 -156t-160.5 -109t-223 -41q0 -24 16.5 -33.5t44.5 -9.5q18 0 39 2.5t35 5.5
v-246q-57 -38 -125.5 -56t-140.5 -18q-69 0 -134 17.5t-120 59.5v470q0 72 34.5 124t87.5 86.5t118 51.5t125 19q0 26 -14 34t-45 8q-56 0 -128 -25.5t-137 -82.5z" />
    <glyph glyph-name="uni097E" unicode="&#x97e;" horiz-adv-x="1095" 
d="M707 733q30 0 69 -6t80 -20.5t80 -40t70 -64.5t50 -93t19 -126q0 -95 -35.5 -172.5t-103 -132t-164 -84t-217.5 -29.5q-106 0 -201 25t-167 72t-114 114t-42 152q0 33 7.5 64.5t26 58.5t49.5 48.5t79 35.5q12 -23 40 -54.5t72.5 -59.5t104.5 -47.5t137 -19.5
q9 0 23.5 0.5t28.5 4t24 10.5t10 20q0 5 -2 13q-17 -2 -31 -2.5t-46 -0.5q-47 0 -97 11.5t-95.5 34.5t-83 59t-59.5 84q-34 -6 -62.5 -16t-56.5 -27q-11 15 -23 35t-22 44.5t-16 53t-6 59.5q0 72 26 129t71.5 97.5t106.5 62t130 21.5q33 0 59 -2t47 -5t39 -7.5t35 -8.5
q3 7 3 14q0 19 -22.5 30t-52.5 16.5t-59.5 6.5t-42.5 1q-100 0 -176 -31t-128 -94h-97q-31 43 -46 84.5t-15 95.5q0 28 4 51.5t11.5 45.5t19 43t26.5 44h1131q15 -23 26.5 -44t19.5 -43t12 -45.5t4 -51.5q0 -54 -15.5 -95.5t-46.5 -84.5h-108v-119q0 -40 -17 -74.5
t-46 -46.5q-45 23 -102 37t-123 14q-36 0 -66.5 -2.5t-53.5 -9.5t-36 -18t-13 -27q0 -8 5 -16q35 15 75.5 21.5t88.5 6.5zM176 -291q-31 43 -46 88.5t-15 99.5q0 42 11.5 72t31.5 58q27 -20 68.5 -39t93 -34t111.5 -24t125 -9q75 0 136.5 11t110 27t83 34t54.5 31
q14 -23 24.5 -56t10.5 -71q0 -54 -16.5 -101.5t-44.5 -86.5h-738z" />
    <glyph glyph-name="uni097F" unicode="&#x97f;" horiz-adv-x="1076" 
d="M133 -40q-24 31 -38 75.5t-14 98.5q0 25 4 50.5t11.5 47.5t16.5 40t20 29q26 -21 59.5 -42.5t76.5 -38.5t95.5 -28t117.5 -11q58 0 104 9t78 22.5t49.5 30t17.5 31.5q0 5 -2.5 12t-7.5 11q-13 -10 -34.5 -22.5t-51.5 -23t-68.5 -18t-84.5 -7.5q-80 0 -159 24.5t-142 73.5
t-102 122.5t-39 170.5q0 115 37 195.5t98.5 130.5t141 73t165.5 23q73 0 135 -18t98 -42q4 9 4 18q0 19 -20.5 35t-54 27.5t-76.5 18t-88 6.5q-216 0 -350 -117h-135q-31 43 -46 84.5t-15 95.5q0 28 4 51.5t12 45.5t19 43t26 44h1106q15 -23 26.5 -44t19 -43t11.5 -45.5
t4 -51.5q0 -54 -15 -95.5t-46 -84.5h-50v-827q0 -91 -43.5 -135.5t-127.5 -44.5h-747zM415 760q-20 -11 -20 -34q0 -13 13.5 -35.5t34.5 -49t47 -53.5t51.5 -49.5t46.5 -36.5t33 -14t20 4.5t14 12.5q-28 21 -62 52.5t-67.5 67t-63 71t-47.5 64.5z" />
    <glyph glyph-name="KaSsa.dv" horiz-adv-x="1467" 
d="M554 962q26 11 36.5 28t12.5 35q0 23 -13.5 34t-27.5 11q-19 0 -29 -14.5t-10 -34.5t10 -35.5t21 -23.5zM968 1243q5 27 18 50.5t32 37.5h473q15 -23 26.5 -44t19 -43t11.5 -45.5t4 -51.5q0 -54 -15 -95.5t-46 -84.5h-51v-582q0 -36 3.5 -63.5t10.5 -50t17.5 -40.5
t25.5 -36q-10 -50 -34 -87.5t-59 -63.5t-78.5 -39t-92.5 -13q-44 0 -87.5 10.5t-80 33t-63.5 57.5t-38 83q28 36 46 83t18 108q0 66 -22 120t-62.5 92.5t-96.5 59.5t-124 21t-124 -21.5t-95.5 -58.5t-61.5 -86t-22 -103q0 -33 11 -47t28 -14q5 0 8 0.5t6 1.5q-2 9 -2 20v19
q0 57 20.5 102t55 76.5t80.5 48.5t96 17t96 -16.5t80.5 -48t55 -78t20.5 -105.5q0 -61 -20 -104t-46 -73q5 -57 31.5 -101t62.5 -72q0 -53 -21.5 -96t-58.5 -74t-85 -47.5t-100 -16.5q-45 0 -89 13.5t-80 42.5t-60.5 75.5t-31.5 112.5q-107 0 -192 32.5t-144 89.5t-90 135
t-31 169q0 71 17.5 128t45.5 101.5t63.5 77.5t72.5 57q-11 13 -24 34t-25 49t-20 61.5t-8 70.5q0 82 29.5 151t84 119t130.5 78t169 28q100 0 177.5 -30t129.5 -82t79 -122.5t27 -151.5q0 -57 -12 -106t-38 -84q4 -10 18 -10q19 0 35 18t27 46t17 63t6 68q0 63 -15 121
t-38 105z" />
    <glyph glyph-name="JaNya.dv" horiz-adv-x="1465" 
d="M1002 95q44 49 70 118.5t26 150.5q0 84 -31.5 156t-88 124.5t-134.5 82.5t-172 30q-58 0 -88 -9t-30 -37q0 -6 2 -12q18 6 44 9.5t55 3.5q82 0 153.5 -25t124 -70.5t82.5 -110.5t30 -144q0 -84 -29 -148t-81.5 -108.5t-124.5 -70.5t-159 -36q0 -14 6 -21.5t14.5 -11.5
t18.5 -4.5t18 -0.5q26 0 56.5 7t59 16.5t51 20t32.5 16.5q7 -21 12.5 -52.5t5.5 -55.5q0 -50 -17.5 -91t-49 -70t-76.5 -45t-100 -16q-62 0 -111 22.5t-88.5 62.5t-71 96t-57.5 123q-83 11 -142 27.5t-109 39.5q-18 34 -33.5 78t-15.5 98q0 51 18 94.5t53 76t85 51t115 18.5
q48 0 92 -15.5t79.5 -42t60.5 -62t36 -75.5q18 3 25 12.5t7 21.5q0 32 -23.5 68.5t-64.5 67t-95.5 51t-115.5 20.5q-39 0 -67.5 -4t-50.5 -10.5t-38.5 -15t-31.5 -16.5q-17 18 -33.5 40.5t-30 50.5t-22 62.5t-8.5 76.5q0 60 26 113t71 92.5t104.5 62t127.5 22.5h663q1 3 1 9
q0 15 -12.5 25.5t-41.5 10.5h-610q-87 0 -147.5 -23.5t-99.5 -53.5h-144q-31 43 -46 84.5t-15 95.5q0 28 4 51.5t11.5 45.5t19 43t26.5 44h1509q15 -23 26.5 -44t19 -43t11.5 -45.5t4 -51.5q0 -54 -15.5 -95.5t-45.5 -84.5h-52v-582q0 -36 3.5 -63.5t11 -50t18 -40.5
t25.5 -36q-10 -50 -34 -87.5t-59 -63.5t-79 -39t-93 -13q-66 0 -127.5 24t-102.5 80z" />
    <glyph glyph-name="KaRa.dv" horiz-adv-x="1647" 
d="M1288 172q-118 0 -183 63.5t-65 177.5q0 73 30 150q8 -5 16.5 -8.5t19.5 -3.5q20 0 32 15.5t12 39.5q0 27 -14.5 43t-41.5 16q-6 0 -15 -1.5t-14 -3.5q-14 -14 -28 -39.5t-25 -58.5t-18 -71.5t-7 -77.5q0 -57 13 -98t32.5 -70.5t42.5 -48t43 -30.5q-10 -31 -28.5 -62
t-50 -56t-76.5 -40.5t-107 -15.5q-51 0 -94.5 14t-75.5 38t-51 56.5t-23 70.5q-53 -115 -128 -181.5t-183 -66.5q-40 0 -78 12.5t-68 37.5t-48.5 63t-18.5 89v21q60 35 100 74q81 -36 174 -36q64 0 93.5 15.5t29.5 32.5q0 8 -4 16q-28 -11 -57 -15t-54 -4q-73 0 -136.5 24
t-111 70t-75 113t-27.5 154q0 80 26.5 153t78 129t126.5 89.5t173 33.5q57 0 113 -16t96 -45q7 10 7 22q0 15 -15.5 30t-44 27t-68 19.5t-88.5 7.5q-76 0 -144.5 -20t-118.5 -53h-186q-31 43 -46 84.5t-15 95.5q0 28 4 51.5t11.5 45.5t19 43t26.5 44h1675q15 -23 27 -44
t19.5 -43t11.5 -45.5t4 -51.5q0 -54 -15.5 -95.5t-46.5 -84.5h-163q-44 29 -107.5 51t-144.5 22q-47 0 -86 -7t-68 -19t-45 -28.5t-16 -34.5q0 -13 8 -21q45 32 94.5 48.5t112.5 16.5q91 0 163.5 -35.5t123.5 -93.5t78.5 -132t27.5 -150q0 -98 -28 -174.5t-75 -129
t-108.5 -80.5t-128.5 -28zM561 664q-5 1 -15 1q-29 0 -45 -19.5t-16 -45.5t17.5 -43.5t46.5 -17.5q8 0 12 1v124z" />
    <glyph glyph-name="KhaRa.dv" horiz-adv-x="1573" 
d="M514 87q-34 23 -67 54.5t-64 67.5t-60 74.5t-55 76.5q-48 7 -93 31t-79.5 61.5t-55 85.5t-20.5 103q0 59 18 110.5t50.5 89.5t78.5 59.5t103 21.5q34 0 61 -6t48 -16.5t37.5 -23.5t29.5 -28q19 8 30.5 24.5t11.5 37.5q0 20 -7.5 34.5t-15.5 22.5h-490q-31 43 -46 84.5
t-15 95.5q0 28 4 51.5t11.5 45.5t19 43t26.5 44h1621q15 -23 27 -44t19.5 -43t11.5 -45.5t4 -51.5q0 -54 -15.5 -95.5t-46.5 -84.5h-50v-582q0 -36 3.5 -63.5t11 -50t18 -40.5t25.5 -36q-10 -50 -34.5 -87.5t-59 -63.5t-78.5 -39t-93 -13q-81 0 -132.5 25t-80.5 57
q12 20 26 44t26 47.5t20 45.5t8 39q0 28 -26 35q-48 -104 -93 -178t-90.5 -121t-94.5 -68.5t-106 -21.5q-50 0 -92.5 15.5t-73 43.5t-47.5 68t-17 89q0 29 1.5 47.5t3.5 29.5q31 10 64.5 22.5t75.5 31.5t95 46.5t123 67.5q16 -3 30 -3q26 0 39 9.5t13 21.5q0 6 -3 12
q-59 0 -109 19t-86.5 52.5t-57 80.5t-20.5 104q0 53 19 101.5t56 86t91 59.5t125 22q76 0 118 -22q6 4 6 12q0 26 -35.5 40.5t-101.5 14.5q-77 0 -138 -23.5t-104 -65t-66 -99t-23 -124.5q0 -59 17.5 -106t45 -82t60.5 -57.5t64 -32.5q-56 -31 -98.5 -53t-81 -39
t-76.5 -30.5t-83 -26.5q-9 -19 -13 -50t-4 -66v-12.5t1 -12.5z" />
    <glyph glyph-name="GaRa.dv" horiz-adv-x="1167" 
d="M20 545q0 41 9 80t24 71q13 -6 27.5 -9t25.5 -3q45 0 73 29.5t28 95.5q0 26 -6.5 50.5t-17 45.5t-23.5 37t-25 25h-160q-31 43 -46 84.5t-15 95.5q0 28 4 51.5t11.5 45.5t19 43t26.5 44h1216q15 -23 26.5 -44t19 -43t11.5 -45.5t4 -51.5q0 -54 -15 -95.5t-46 -84.5h-50
v-582q0 -36 3.5 -63.5t10.5 -50t17.5 -40.5t25.5 -36q-10 -50 -34 -87.5t-59 -63.5t-78.5 -39t-92.5 -13q-46 0 -92.5 12t-85.5 38.5t-66 69.5t-35 105q-24 -45 -57.5 -87t-77 -75t-97.5 -53t-119 -20q-59 0 -103 15.5t-73 42.5t-43 63t-14 77q0 35 11.5 62.5t25.5 46.5
q10 -7 28.5 -17t43.5 -19.5t56.5 -16.5t69.5 -7q96 0 175 32t135 89t86.5 136t30.5 173q0 82 -16.5 147t-40 110t-49 68.5t-44.5 23.5t-30 -15q25 -23 48 -56.5t40.5 -75.5t28 -93t10.5 -109q0 -76 -24 -145t-70.5 -121t-115 -83t-158.5 -31q-70 0 -124.5 20.5t-91.5 56.5
t-56.5 84.5t-19.5 104.5z" />
    <glyph glyph-name="GhaRa.dv" horiz-adv-x="1102" 
d="M452 189q91 0 158 17.5t111 43t65.5 52.5t21.5 47q0 17 -15 25q-20 -26 -49 -51t-70.5 -45t-96 -32t-125.5 -12q-94 0 -164.5 20t-117.5 56.5t-70.5 87.5t-23.5 113q0 63 28.5 111.5t76.5 72.5q35 -11 73 -18t83 -7q75 0 113.5 13t38.5 35q0 11 -7 18q-23 -7 -57.5 -13.5
t-85.5 -6.5q-126 0 -192 56t-66 159q0 51 24 99.5t81 79.5q-5 21 -25 21q-16 0 -34.5 -12t-36 -33.5t-31 -52t-19.5 -66.5h-72q-31 43 -46 84.5t-15 95.5q0 28 4 51.5t11.5 45.5t19 43t26.5 44h1158q15 -23 26.5 -44t19 -43t11.5 -45.5t4 -51.5q0 -54 -15 -95.5t-46 -84.5
h-50v-582q0 -36 3.5 -63.5t11 -50t18 -40.5t25.5 -36q-10 -50 -34 -87.5t-59 -63.5t-78.5 -39t-92.5 -13q-81 0 -142.5 32t-96.5 98l-90 -78q-36 -36 -68 -58t-60 -34t-52.5 -16t-46.5 -4q-44 0 -81.5 11.5t-65 37t-43.5 65.5t-16 97v11t2 11q23 6 42.5 11t39 10.5
t40.5 12.5t47 16q22 -7 42 -12t40.5 -8t42.5 -4.5t48 -1.5z" />
    <glyph glyph-name="CaRa.dv" horiz-adv-x="1286" 
d="M758 922q17 -26 30 -69t13 -87q0 -39 -11 -71.5t-31.5 -56.5t-49 -37t-63.5 -13h-80q-17 -15 -17 -35q0 -22 17.5 -35.5t52.5 -13.5q9 0 20 2t22.5 6.5t22 13t17.5 21.5q31 8 59 24t49 42.5t33 64.5t12 89q0 32 -6 62t-15 56t-20.5 47t-22.5 35h-815q-31 43 -46 84.5
t-15 95.5q0 28 4 51.5t11.5 45.5t19 43t26.5 44h1335q15 -23 26.5 -44t19 -43t11.5 -45.5t4 -51.5q0 -54 -15 -95.5t-46 -84.5h-50v-582q0 -36 3.5 -63.5t11 -50t18 -40.5t25.5 -36q-10 -50 -34 -87.5t-59 -63.5t-78.5 -39t-92.5 -13q-87 0 -144 35.5t-87 92.5
q-58 -50 -118 -92.5t-121 -73.5t-121.5 -49t-118.5 -18q-48 0 -91 12.5t-75 37.5t-51 63t-19 89q0 11 1 22t3 23q38 8 66.5 17.5t56.5 22.5q51 -29 115 -44.5t148 -15.5t156 19.5t124.5 47t82.5 57t30 48.5q0 10 -4 15.5t-8 8.5q-26 -27 -63 -54t-85 -48.5t-106 -35
t-127 -13.5q-91 0 -159.5 22.5t-114 61.5t-68.5 92.5t-23 115.5q0 40 9.5 76.5t25.5 62.5q-30 3 -57 19.5t-47 42.5t-32 60.5t-12 73.5q0 38 10 76t27 60h701z" />
    <glyph glyph-name="ChaRa.dv" horiz-adv-x="1292" 
d="M336 18q-142 48 -217.5 142.5t-75.5 219.5q0 61 22.5 114t63.5 92t98.5 61t127.5 22q20 0 43.5 -3t37.5 -10q1 2 2 5q1 2 2 5.5t1 6.5q0 12 -8.5 20t-22 12.5t-32 6.5t-37.5 2q-66 0 -113 -14.5t-72 -26.5q-21 14 -36 38t-24 51t-13.5 55t-4.5 50q0 38 10 73t28 64.5
t42.5 52t54.5 36.5q-4 13 -14 16.5t-20 3.5q-17 0 -37.5 -11t-39.5 -30.5t-35 -46.5t-25 -58h-67q-31 43 -46 84.5t-15 95.5q0 28 4 51.5t11.5 45.5t19 43t26.5 44h1327q15 -23 26.5 -44t19 -43t11.5 -45.5t4 -51.5q0 -54 -15 -95.5t-46 -84.5h-169q-23 11 -49.5 18.5
t-63.5 13.5v17q0 56 -10.5 74t-35.5 18h-7v-107q-72 0 -132.5 -25t-104.5 -69.5t-68.5 -106.5t-24.5 -136q0 -68 23.5 -123.5t58 -95.5t74.5 -62t73 -22q11 0 16 6t5 15v5q-35 12 -70 35t-63 57t-46 79.5t-18 103.5q0 61 20 114.5t56.5 93.5t88.5 63t116 23q74 0 130.5 -28
t94.5 -76t57 -113t19 -139q0 -117 -30 -211.5t-82.5 -166.5t-124.5 -122.5t-155 -80.5l189 -136q1 -10 1.5 -19.5t0.5 -19.5q0 -48 -13.5 -88.5t-39.5 -70.5t-64 -46.5t-87 -16.5q-75 0 -127 35.5t-77 90.5q6 11 14.5 28t16 34t13 31.5t5.5 20.5q0 25 -29 32l-32 -66
q-29 -60 -59.5 -100t-62 -64t-64.5 -34t-67 -10q-49 0 -85.5 16t-61 42.5t-36.5 60t-12 69.5v46l277 221q-6 11 -13 15t-18 4q-7 0 -19 -6.5t-27 -17t-32 -24t-35 -28.5z" />
    <glyph glyph-name="JaRa.dv" horiz-adv-x="1378" 
d="M1145 -8q-85 0 -148.5 35.5t-91.5 93.5q-61 -53 -130 -99t-141.5 -79.5t-146.5 -52.5t-146 -19q-60 0 -107.5 16t-80 46t-50 72.5t-17.5 95.5q0 11 1 23.5t3 21.5q31 3 65 12.5t66 21.5q25 -12 59 -24t74.5 -21.5t86 -15.5t93.5 -6q114 0 200.5 29.5t144.5 78.5t87.5 113
t29.5 133q0 34 -6 64.5t-15.5 53.5t-22.5 36.5t-27 13.5q-11 0 -22 -7q21 -35 30.5 -75.5t9.5 -85.5q0 -55 -25 -110t-74.5 -99.5t-124 -72t-172.5 -27.5q-119 0 -216 32.5t-166 87t-107 127t-38 152.5q0 67 21 118.5t58.5 86t90 52t115.5 17.5q-3 -15 -3.5 -27.5
t-0.5 -25.5q0 -63 19.5 -114t54 -88t81.5 -57t103 -20q55 0 55 41q-128 0 -194 65.5t-66 176.5q0 15 2 34t6.5 38t11 37t15.5 31h535q0 22 -12.5 33.5t-57.5 11.5h-879q-31 43 -46 84.5t-15 95.5q0 28 4 51.5t11.5 45.5t19 43t26.5 44h1427q15 -23 26.5 -44t19 -43
t11.5 -45.5t4 -51.5q0 -54 -15 -95.5t-46 -84.5h-50v-582q0 -36 3.5 -63.5t10.5 -50t17.5 -40.5t25.5 -36q-10 -50 -34 -87.5t-58.5 -63.5t-78.5 -39t-93 -13z" />
    <glyph glyph-name="JhaRa.dv" horiz-adv-x="1509" 
d="M1210 203q-17 -57 -41.5 -105t-57.5 -82.5t-75.5 -53.5t-95.5 -19q-31 0 -58.5 11t-50.5 28.5t-40.5 40.5t-26.5 47q7 6 13.5 11.5t13.5 10.5q68 55 125 102.5t98.5 86t64.5 68t23 48.5q0 13 -10 17.5t-20 4.5h-6q-8 -26 -30.5 -53t-65 -65t-107 -90t-155.5 -127
q3 -14 8.5 -27.5t12.5 -25.5q-26 -6 -53.5 -10t-55.5 -5q2 -20 11.5 -28t30.5 -8q33 0 96 16q32 -38 72 -60.5t86 -30.5q-10 -94 -70.5 -143t-154.5 -49q-60 0 -111 21.5t-93.5 61.5t-76.5 97t-61 127q-87 11 -148.5 28t-113.5 42q-19 35 -35 80.5t-16 102.5q0 53 19 99
t55 79.5t88.5 53t120.5 19.5q56 0 104.5 -19t85.5 -51.5t60 -76t28 -91.5q11 1 22 10t11 32q0 33 -20 75t-59 79t-97 62t-134 25q-41 0 -71 -4t-52.5 -10.5t-39.5 -14.5t-33 -16q-17 18 -32.5 40t-28 49t-20 61t-7.5 76q0 60 26 110.5t71 87t104.5 56.5t127.5 20h171
q1 3 1 10q0 15 -12.5 25t-41.5 10h-118q-60 0 -106.5 -10.5t-81 -26.5t-58 -33.5t-38.5 -31.5h-111q-31 43 -46 84.5t-15 95.5q0 28 4 51.5t11.5 45.5t19 43t26.5 44h1563q15 -23 26.5 -44t19 -43t11.5 -45.5t4 -51.5q0 -54 -15 -95.5t-46 -84.5h-51v-582q0 -36 3.5 -63.5
t10.5 -50t17.5 -40.5t25.5 -36q-10 -50 -34 -87.5t-58.5 -63.5t-78.5 -39t-93 -13q-26 0 -52 6.5t-45 17.5q29 45 44.5 88t15.5 66q0 14 -8.5 22.5t-19.5 10.5zM1007 663q32 26 44.5 68.5t12.5 109.5v122q0 37 -13 59t-40 22v-187q0 -51 -4.5 -81t-15.5 -47
q-57 35 -127 56.5t-163 21.5q-72 0 -112.5 -14t-40.5 -41q0 -5 2 -13q20 8 54.5 15.5t88.5 7.5q85 0 163.5 -24t150.5 -75z" />
    <glyph glyph-name="TtaRa.dv" horiz-adv-x="1091" 
d="M785 -378q-75 0 -127 35.5t-77 90.5q6 11 14.5 28t16 34t13 31.5t5.5 20.5q0 25 -29 32l-32 -66q-29 -60 -59.5 -100t-62 -64t-64.5 -34t-67 -10q-49 0 -85.5 16t-61 42.5t-36.5 60t-12 69.5v46l277 221q-14 21 -34 21q-14 0 -34 -14t-46 -36q-126 57 -195 160t-69 243
q0 89 29.5 160.5t79.5 125.5t117 90.5t141 55.5q48 12 82.5 26t56 31t31.5 39.5t10 52.5q0 15 -2 30.5t-7.5 28t-15 21t-24.5 8.5q-7 0 -12.5 -2t-9.5 -4q9 -20 13.5 -36t4.5 -38q0 -20 -8.5 -41.5t-28.5 -29.5h-477q-31 43 -46 84.5t-15 95.5q0 28 4 51.5t11.5 45.5t19 43
t26.5 44h1081q15 -23 26.5 -44t19 -43t11.5 -45.5t4 -51.5q0 -54 -15 -95.5t-46 -84.5h-109q8 -35 12.5 -61.5t4.5 -55.5q0 -87 -37 -145t-93 -96t-121 -59.5t-121 -36.5t-93 -27.5t-37 -30.5q0 -22 23 -29.5t61 -7.5q46 0 98.5 13.5t100.5 34.5t86.5 46t56.5 49
q33 -17 62 -41t50 -54.5t33.5 -67.5t12.5 -79q0 -52 -20 -97.5t-56.5 -83.5t-86.5 -67t-110 -48l189 -140q1 -10 1.5 -19.5t0.5 -19.5q0 -48 -13.5 -88.5t-39.5 -70.5t-64 -46.5t-87 -16.5z" />
    <glyph glyph-name="TthaRa.dv" horiz-adv-x="1184" 
d="M613 477q-51 -14 -75 -29t-24 -38q0 -20 23 -30.5t58 -10.5q31 0 53 11.5t22 33.5q0 24 -16 38t-41 25zM1016 -117q1 -10 1.5 -19.5t0.5 -19.5q0 -48 -13.5 -88.5t-39.5 -70.5t-64 -46.5t-87 -16.5q-75 0 -127 35.5t-77 90.5q6 11 14.5 28t16 34t13 31.5t5.5 20.5
q0 25 -29 32l-32 -66q-29 -60 -59.5 -100t-62 -64t-64.5 -34t-67 -10q-49 0 -85.5 16t-61 42.5t-36.5 60t-12 69.5v46l277 221q-14 21 -34 21q-14 0 -40.5 -17.5t-68.5 -50.5q-126 55 -195 153.5t-69 238.5q0 76 22 146t67 129t113 104.5t160 72.5q49 15 85.5 29.5t60.5 33
t35.5 41.5t11.5 54q0 33 -8.5 51.5t-31.5 18.5q-13 0 -20 -4q2 -13 4 -26.5t2 -27.5q0 -30 -13.5 -48.5t-33.5 -26.5h-478q-30 43 -45.5 84.5t-15.5 95.5q0 28 4 51.5t11.5 45.5t19 43t26.5 44h1196q15 -23 26.5 -44t19.5 -43t12 -45.5t4 -51.5q0 -54 -15.5 -95.5
t-46.5 -84.5h-189q3 -16 4.5 -35t1.5 -35q0 -28 -9.5 -59t-27.5 -50q-22 11 -53 22t-56 11q-18 0 -28 -7t-15 -26q76 -18 139.5 -58t109 -94t70.5 -118.5t25 -132.5q0 -78 -22 -140t-62.5 -110t-97 -81.5t-125.5 -54.5z" />
    <glyph glyph-name="DdaRa.dv" horiz-adv-x="1090" 
d="M960 -117q3 -17 3 -37q0 -48 -13.5 -88.5t-39.5 -70.5t-64 -46.5t-87 -16.5q-75 0 -127 35.5t-77 90.5q6 11 14.5 28t16 34t13 31.5t5.5 20.5q0 25 -29 32l-32 -66q-29 -60 -59.5 -100t-62 -64t-64.5 -34t-67 -10q-49 0 -85.5 16t-61 42.5t-36.5 60t-12 69.5v46l276 199
q-14 21 -34 21q-14 0 -37 -12.5t-56 -35.5q-48 22 -88.5 53t-69 69t-44.5 83t-16 95q0 33 7.5 64.5t26 58.5t49.5 48.5t79 35.5q12 -23 40 -54.5t72.5 -59.5t104.5 -47.5t137 -19.5q9 0 23.5 0.5t28.5 4t24 10.5t10 20q0 5 -2 13q-17 -2 -31 -2.5t-46 -0.5q-47 0 -97 11.5
t-95.5 34.5t-83 59t-59.5 84q-34 -6 -62.5 -16t-56.5 -27q-11 15 -23 35t-22 44.5t-16 53t-6 59.5q0 72 26 129t71.5 97.5t106.5 62t130 21.5q33 0 59 -2t47 -5t39 -7.5t35 -8.5q3 7 3 14q0 19 -22.5 30t-52.5 16.5t-59.5 6.5t-42.5 1q-100 0 -176 -31t-128 -94h-97
q-31 43 -46 84.5t-15 95.5q0 28 4 51.5t11.5 45.5t19 43t26.5 44h1131q15 -23 26.5 -44t19.5 -43t12 -45.5t4 -51.5q0 -54 -15.5 -95.5t-46.5 -84.5h-108v-119q0 -40 -17 -74.5t-46 -46.5q-45 23 -102 37t-123 14q-36 0 -66.5 -2.5t-53.5 -9.5t-36 -18t-13 -27q0 -8 5 -16
q35 15 75.5 21.5t88.5 6.5q30 0 69 -6t80 -20.5t80 -40t70 -64.5t50 -93t19 -126q0 -139 -72 -236.5t-207 -145.5z" />
    <glyph glyph-name="DdhaRa.dv" horiz-adv-x="1166" 
d="M769 332q29 0 51.5 9t22.5 38q0 14 -9.5 24.5t-25.5 10.5q-21 0 -33 -14.5t-12 -37.5q0 -14 6 -30zM143 -136l277 191q-14 21 -34 21q-14 0 -36 -12t-48 -31q-64 31 -116 75.5t-89 100t-57 121t-20 139.5q0 91 22.5 162t59.5 124.5t85.5 91.5t101 64.5t105.5 42.5t99 25
q75 15 105 42.5t30 65.5q0 27 -9 37.5t-28 10.5h-14v-27q0 -37 -21 -53t-72 -27q-34 -7 -60.5 -13.5t-49 -13.5t-44 -15t-45.5 -19h-299q-31 43 -46.5 84.5t-15.5 95.5q0 28 4 51.5t12 45.5t19.5 43t26.5 44h1188q15 -23 26.5 -44t19.5 -43t12 -45.5t4 -51.5
q0 -54 -15.5 -95.5t-46.5 -84.5h-151q2 -20 3 -42t1 -42q0 -51 -16.5 -89t-40.5 -58q-33 13 -72.5 21.5t-87.5 8.5q-83 0 -150.5 -23t-116 -64t-75 -97t-26.5 -123q0 -29 4.5 -54t13.5 -44.5t21.5 -30.5t29.5 -11q7 0 12 3q-12 23 -20 56t-8 71q0 55 23 104.5t64 86.5t99 59
t129 22q79 0 141.5 -28t105.5 -75t66 -108.5t23 -128.5q0 -75 -21 -136.5t-59 -109.5t-92 -82.5t-121 -55.5l156 -114q1 -8 1.5 -16.5t0.5 -17.5q0 -48 -13.5 -88.5t-39.5 -70.5t-64 -46.5t-87 -16.5q-75 0 -127 35.5t-77 90.5q6 11 14.5 28t16 34t13 31.5t5.5 20.5
q0 25 -29 32l-32 -66q-29 -60 -59.5 -100t-62 -64t-64.5 -34t-67 -10q-49 0 -85.5 16t-61 42.5t-36.5 60t-12 69.5v51z" />
    <glyph glyph-name="NnaRa.dv" horiz-adv-x="1401" 
d="M456 967q-1 -20 -2 -36t-2 -32.5t-1.5 -35.5t-0.5 -44q0 -40 10.5 -55.5t28.5 -15.5t28 15.5t10 55.5q0 46 -5 82.5t-10 65.5h-56zM891 234q-103 -140 -218.5 -204.5t-229.5 -64.5q-110 0 -174.5 51.5t-64.5 152.5q0 38 10.5 70.5t24.5 58.5q29 -11 56.5 -19t56 -13.5
t60 -8t68.5 -2.5q127 0 226 38t166 104t102 155t35 191q0 55 -7.5 102t-20 81t-29 53t-34.5 19q-10 0 -18 -5q30 -54 43 -116t13 -125q0 -110 -38.5 -194t-104 -141.5t-152 -87t-181.5 -29.5q-108 0 -193.5 31.5t-144.5 91t-90.5 145t-31.5 193.5q0 54 2.5 104.5t6.5 101.5
h-59q-31 43 -46 84.5t-15 95.5q0 28 4 51.5t11.5 45.5t19 43t26.5 44h1455q15 -23 26.5 -44t19 -43t11.5 -45.5t4 -51.5q0 -54 -15 -95.5t-46 -84.5h-50v-582q0 -36 3.5 -63.5t11 -50t18 -40.5t25.5 -36q-10 -50 -34 -87.5t-59 -63.5t-78.5 -39t-92.5 -13q-47 0 -93.5 14.5
t-85 44.5t-65.5 75.5t-34 107.5z" />
    <glyph glyph-name="TaRa.dv" horiz-adv-x="1181" 
d="M756 228q35 45 51 69t16 41q0 11 -6.5 17.5t-15.5 9.5l-143 -175q-40 -49 -78.5 -82.5t-76 -54.5t-75.5 -30t-77 -9q-78 0 -132 29.5t-88.5 73t-50 93t-15.5 90.5l499 286q-10 32 -29 46.5t-40 14.5q-23 0 -40.5 -13.5t-17.5 -36.5q0 -12 4 -23l-271 -153
q-75 41 -112.5 107.5t-37.5 153.5q0 81 31.5 144t85.5 106.5t126 66t153 22.5q70 0 126 -14t100 -37t76 -53.5t53 -63.5q21 4 21 30q0 22 -23 53.5t-69.5 60t-117 49t-166.5 20.5q-59 0 -106 -8t-85.5 -21.5t-69.5 -31.5t-59 -39h-110q-31 43 -46.5 84.5t-15.5 95.5
q0 28 4 51.5t11.5 45.5t19.5 43t27 44h1219q15 -23 26.5 -44t19 -43t11.5 -45.5t4 -51.5q0 -54 -15 -95.5t-46 -84.5h-50v-582q0 -36 3.5 -63.5t10.5 -50t17.5 -40.5t25.5 -36q-10 -50 -34 -87.5t-58.5 -63.5t-78.5 -39t-93 -13q-85 0 -153 41t-102 115z" />
    <glyph glyph-name="ThaRa.dv" horiz-adv-x="1315" 
d="M661 605q14 -20 36 -20q15 0 30.5 8.5t30 20.5t26 25t18.5 22q41 54 66.5 125t25.5 156q0 71 -14.5 125t-31.5 92q-20 44 -46 76q3 28 20 53.5t40 42.5h477q15 -23 26.5 -44t19 -43t11.5 -45.5t4 -51.5q0 -54 -15 -95.5t-46 -84.5h-50v-582q0 -36 3.5 -63.5t10.5 -50
t17.5 -40.5t25.5 -36q-10 -50 -34 -87.5t-59 -63.5t-78.5 -39t-92.5 -13q-50 0 -90.5 13t-71.5 36.5t-51.5 55.5t-31.5 71q-56 -54 -115.5 -99t-120.5 -77.5t-122.5 -50.5t-119.5 -18q-60 0 -105 16t-75 44t-45 67t-15 84q0 17 1 31.5t3 26.5q39 8 78.5 18t77.5 24
q52 -23 124.5 -38.5t147.5 -15.5q99 0 175.5 21.5t129 50.5t80 59.5t27.5 47.5q0 19 -17 26q-29 -35 -70 -64t-92 -50.5t-110 -33.5t-123 -12q-106 0 -202 35t-169 101.5t-116.5 162t-43.5 216.5q14 -2 33.5 -2h42.5q84 0 150.5 14.5t112.5 41.5t70.5 65.5t24.5 86.5
q0 36 -14.5 50t-34.5 14q-15 0 -27 -11.5t-12 -31.5q0 -19 9.5 -32.5t23.5 -19.5q-8 -30 -30 -53t-53.5 -39.5t-70 -26t-80.5 -12.5q-21 7 -46.5 27t-48.5 51.5t-38.5 72.5t-15.5 89q0 72 28.5 135.5t81.5 111t128.5 74.5t168.5 27q109 0 188 -39t130 -100.5t75.5 -136
t24.5 -146.5q0 -66 -14.5 -120.5t-39.5 -97.5t-57.5 -74.5t-68.5 -52.5z" />
    <glyph glyph-name="DaRa.dv" horiz-adv-x="1136" 
d="M807 684q54 0 103 -20t89 -58.5t70 -93.5t47 -125q-7 -23 -19 -46.5t-26 -45t-29 -41t-28 -33.5l156 -254q-5 -55 -25.5 -99.5t-55 -76t-82 -49t-107.5 -17.5q-51 0 -101.5 16t-88.5 62q29 38 47 71.5t18 53.5q0 26 -29 29q-2 -8 -13 -29.5t-30 -50.5q-33 -51 -69 -85
t-72.5 -54.5t-72.5 -28.5t-70 -8q-66 0 -112.5 21.5t-76.5 56.5t-44.5 80t-16.5 92l171 90q42 -23 102 -32t123 -9q45 0 69 10.5t24 30.5q0 6 -1 8q-21 -3 -45 -3.5t-49 -0.5q-117 0 -216 34t-172 96t-114 150.5t-41 196.5q0 123 42 214t117.5 151.5t180 90.5t228.5 30
q0 28 -21.5 35t-62.5 7q-40 0 -83 -7t-83 -18.5t-74.5 -26.5t-58.5 -31h-230q-31 43 -46 84.5t-15 95.5q0 28 4 51.5t11.5 45.5t19 43t26.5 44h1163q15 -23 26.5 -44t19.5 -43t12 -45.5t4 -51.5q0 -54 -15.5 -95.5t-46.5 -84.5h-95v-33q0 -38 -7.5 -75.5t-25.5 -67.5
t-48 -49t-75 -19q-38 6 -78 6q-61 0 -117.5 -16.5t-100 -49.5t-69.5 -83t-26 -117q0 -87 46 -87q9 0 15 3q-5 17 -6.5 37.5t-1.5 42.5q0 57 22 99t58.5 70t83 42t94.5 14z" />
    <glyph glyph-name="DhaRa.dv" horiz-adv-x="1252" 
d="M311 -98q-43 0 -80.5 11t-65.5 34t-44 59.5t-16 87.5q0 12 0.5 26t1.5 25q32 8 65.5 15.5t81.5 19.5q13 -5 32.5 -8.5t41 -6t44 -3.5t40.5 -1q73 0 136 12t114 30.5t90 41.5t66 45t40.5 40.5t13.5 28.5q0 23 -20 37q-26 -34 -68.5 -66.5t-98.5 -58t-125 -41t-148 -15.5
q-83 0 -150.5 17t-115.5 49.5t-74.5 80t-26.5 109.5q0 36 11 67.5t28.5 57.5t39 45.5t42.5 30.5q43 -21 105 -36.5t140 -15.5q46 0 71 7.5t25 30.5q0 5 -0.5 8t-1.5 7q-22 -5 -47.5 -6.5t-46.5 -1.5q-90 0 -165.5 23t-130.5 68t-85.5 111t-30.5 152q0 88 31 155.5t82 113.5
t117 70t137 24q69 0 124.5 -18.5t95 -52t60.5 -81.5t21 -106t-20 -97.5t-51.5 -63.5t-69.5 -34.5t-74 -10.5q-68 0 -110 33q-7 -3 -10 -10t-3 -13q0 -12 10.5 -22t27.5 -17.5t39.5 -11.5t45.5 -4q46 0 94 13t87 42t64 77t25 119q0 56 -16 111q3 28 19.5 53.5t39.5 42.5h511
q15 -23 26.5 -44t19 -43t11.5 -45.5t4 -51.5q0 -54 -15 -95.5t-46 -84.5h-50v-582q0 -36 3.5 -63.5t10.5 -50t17.5 -40.5t25.5 -36q-10 -50 -34 -87.5t-59 -63.5t-78.5 -39t-92.5 -13q-47 0 -85.5 10t-71 27.5t-58.5 41.5t-47 52q-51 -43 -107 -83t-113.5 -70.5t-115 -49
t-110.5 -18.5z" />
    <glyph glyph-name="NaRa.dv" horiz-adv-x="1187" 
d="M191 238q42 -26 91.5 -37t100.5 -11q82 0 139.5 25t93.5 64.5t52 88t16 95.5v80q-19 22 -66 22h-5.5t-7.5 -1q8 -12 14 -41t6 -57q0 -50 -15 -92.5t-45 -73.5t-74.5 -48t-103.5 -17q-69 0 -134.5 27.5t-116.5 75.5t-82.5 111.5t-31.5 135.5q0 84 33 147t91.5 105
t138.5 63.5t175 21.5q40 0 72 -3.5t58.5 -9t49 -13.5t44.5 -17v88h-694q-31 43 -46 84.5t-15 95.5q0 28 4 51.5t11.5 45.5t19 43t26.5 44h1221q15 -23 26.5 -44t19 -43t11.5 -45.5t4 -51.5q0 -54 -15 -95.5t-46 -84.5h-50v-582q0 -36 3.5 -63.5t10.5 -50t17.5 -40.5
t25.5 -36q-10 -50 -34 -87.5t-59 -63.5t-78.5 -39t-92.5 -13q-42 0 -84.5 11.5t-78.5 35.5t-61.5 60.5t-32.5 87.5q-33 -51 -72.5 -99.5t-87 -86t-103.5 -60.5t-122 -23q-50 0 -92 15t-72 43t-47 68t-17 90v11t1 12z" />
    <glyph glyph-name="PaRa.dv" horiz-adv-x="1063" 
d="M547 967h-57q-3 -11 -6 -40t-3 -55q0 -38 14 -68t52 -36v199zM231 373q18 -10 38.5 -15.5t37.5 -5.5q15 0 22 7.5t7 16.5q0 10 -4 15q-57 6 -112 36.5t-98 83.5t-69.5 127t-26.5 166q0 43 4 83.5t12 79.5h-68q-31 43 -46 84.5t-15 95.5q0 28 4 51.5t11.5 45.5t19 43
t26.5 44h1113q15 -23 26.5 -44t19 -43t11.5 -45.5t4 -51.5q0 -54 -15 -95.5t-46 -84.5h-50v-582q0 -36 3.5 -63.5t11 -50t18 -40.5t25.5 -36q-10 -50 -34 -87.5t-59 -63.5t-79 -39t-93 -13q-75 0 -137.5 30.5t-96.5 84.5q16 26 27.5 52t19 49.5t11 43t3.5 31.5q0 20 -11 28
t-22 8h-6q-16 -90 -45.5 -155.5t-70 -108t-91 -63.5t-107.5 -21q-47 0 -90.5 16t-79 49t-58.5 84t-29 120q45 25 89 57t95 76z" />
    <glyph glyph-name="PhaRa.dv" horiz-adv-x="1652" 
d="M547 967h-57q-3 -11 -6 -40t-3 -55q0 -38 14 -68t52 -36v199zM26 804q0 25 1 44.5t3 38t5 37.5t7 43h-68q-31 43 -46 84.5t-15 95.5q0 28 4 51.5t11.5 45.5t19 43t26.5 44h1681q15 -23 26.5 -44t19.5 -43t12 -45.5t4 -51.5q0 -54 -15.5 -95.5t-46.5 -84.5h-164
q-45 29 -108 51t-144 22q-47 0 -86 -7.5t-67 -20t-44 -28.5t-16 -32q0 -15 6 -22q45 32 94.5 48.5t112.5 16.5q91 0 163.5 -35.5t123.5 -93.5t78.5 -132t27.5 -150q0 -98 -28 -174.5t-75 -129t-108.5 -80.5t-128.5 -28q-118 0 -183 63.5t-65 177.5q0 73 30 150
q8 -5 16.5 -8.5t19.5 -3.5q20 0 32 15.5t12 39.5q0 28 -18.5 42.5t-42.5 14.5q-12 0 -24 -3q-14 -14 -28 -39.5t-25 -58.5t-18 -71.5t-7 -77.5q0 -47 9 -83t24 -64t33 -47.5t36 -33.5q-7 -32 -25 -66t-49.5 -62t-78 -46.5t-110.5 -18.5q-77 0 -136.5 30.5t-97.5 84.5
q16 26 28 52t19 49.5t10.5 43t3.5 31.5q0 20 -11 28t-22 8h-6q-16 -90 -45.5 -155.5t-70 -108t-91 -63.5t-107.5 -21q-47 0 -90.5 16t-79 49t-58.5 84t-29 120q45 25 89 57t95 76q18 -10 38.5 -15.5t37.5 -5.5q15 0 22 7.5t7 16.5q0 10 -4 15q-57 6 -112 36.5t-98 83.5
t-69.5 127t-26.5 166z" />
    <glyph glyph-name="BaRa.dv" horiz-adv-x="1087" 
d="M241 220q21 -8 42 -15.5t46.5 -12.5t57.5 -8t74 -3q45 0 88 6t76.5 17.5t54.5 27t21 35.5q0 10 -7 20q-37 -26 -91.5 -43.5t-141.5 -17.5q-84 0 -163 23t-141 70.5t-99.5 121.5t-37.5 176q0 113 38.5 195.5t103 136t147.5 79.5t173 26q39 0 75 -5t67.5 -13t57 -19
t43.5 -23q8 11 8 23q0 19 -24 34.5t-61 26t-81.5 16t-86.5 5.5q-121 0 -215.5 -37t-154.5 -95h-135q-31 43 -46 84.5t-15 95.5q0 28 4 51.5t11.5 45.5t19 43t26.5 44h1136q15 -23 26.5 -44t19 -43t11.5 -45.5t4 -51.5q0 -54 -15 -95.5t-46 -84.5h-50v-612q0 -36 3.5 -63.5
t10.5 -50t17.5 -40.5t25.5 -36q-10 -50 -34 -87.5t-59 -63.5t-78.5 -39t-92.5 -13q-66 0 -124 27.5t-91 89.5q-81 -77 -171.5 -122.5t-174.5 -45.5q-99 0 -146 49.5t-47 129.5q0 9 1 23.5t3 25.5q32 13 70 35.5t67 45.5zM385 799q-20 -11 -20 -34q0 -18 16.5 -47t42.5 -61
t59 -64t65.5 -58t61.5 -42t48 -16q12 0 20 4.5t14 12.5q-22 12 -50.5 33.5t-59.5 49t-62 58.5t-57.5 61t-47 57t-30.5 46z" />
    <glyph glyph-name="BhaRa.dv" horiz-adv-x="1363" 
d="M839 533q-9 7 -24.5 9t-26.5 2v-69q0 -56 -19 -102t-54 -78.5t-84 -50.5t-108 -18q-73 0 -141.5 26.5t-121 71.5t-84.5 104.5t-32 125.5q0 56 24.5 103.5t65 82t92 53.5t106.5 19v77q0 24 -1 44.5t-5.5 35.5t-14.5 23.5t-29 8.5q-17 0 -27.5 -10.5t-10.5 -30.5
q0 -14 8.5 -26.5t23.5 -19.5v-64q-66 -8 -128.5 -42.5t-110.5 -104.5q-69 52 -103 126t-34 155q0 72 26 141.5t77 124.5t125 88.5t170 33.5q109 0 189 -33t131.5 -94.5t76.5 -149.5t25 -198v-101q10 -2 25.5 -5t28.5 -8v161q0 31 -5.5 70.5t-15.5 79.5t-25 77t-34 64
q3 28 19.5 53.5t39.5 42.5h534q15 -23 26.5 -44t19 -43t11.5 -45.5t4 -51.5q0 -54 -15 -95.5t-46 -84.5h-50v-582q0 -36 3.5 -63.5t10.5 -50t17.5 -40.5t25.5 -36q-10 -50 -34 -87.5t-58.5 -63.5t-78.5 -39t-93 -13q-53 0 -100 16t-84 46.5t-61 75t-30 101.5
q-41 -72 -87 -131.5t-100 -102t-116.5 -65.5t-136.5 -23q-50 0 -93.5 14t-75.5 42t-50.5 70.5t-18.5 99.5v10.5t1 12.5l138 75q20 -13 45 -23t52.5 -16.5t55.5 -9.5t53 -3q72 0 131 22t100 60t63.5 90t22.5 112v68z" />
    <glyph glyph-name="MaRa.dv" horiz-adv-x="1212" 
d="M650 466q0 -50 -15 -92.5t-45 -73.5t-74.5 -48t-103.5 -17q-83 0 -154 27.5t-123.5 74t-82.5 108.5t-30 130q0 108 44 174.5t121 100.5v117h-188q-31 43 -46 84.5t-15 95.5q0 28 4 51.5t11.5 45.5t19 43t26.5 44h1237q15 -23 26.5 -44t19 -43t11.5 -45.5t4 -51.5
q0 -54 -15 -95.5t-46 -84.5h-50v-582q0 -36 3.5 -63.5t10.5 -50t17.5 -40.5t25.5 -36q-10 -50 -34 -87.5t-59 -63.5t-78.5 -39t-92.5 -13q-42 0 -84.5 11.5t-78.5 35.5t-61.5 60.5t-32.5 87.5q-33 -51 -72.5 -99.5t-87 -86t-103.5 -60.5t-122 -23q-50 0 -92 15t-72 43
t-47 68t-17 90v11t1 12l100 78q39 -19 88.5 -32t109.5 -13q82 0 138.5 23.5t91 62t50 87.5t15.5 100v80q-18 20 -53 22v-99zM709 967h-55v-102q14 -4 27.5 -8t27.5 -8v118z" />
    <glyph glyph-name="YaRa.dv" horiz-adv-x="1196" 
d="M625 956q12 -13 23.5 -31.5t20.5 -41t14.5 -47.5t5.5 -51q0 -52 -18 -90.5t-48.5 -64.5t-71.5 -39t-86 -13v-7q0 -18 12 -26.5t39 -8.5q37 0 77 15.5t73 46t54.5 77.5t21.5 110q0 37 -9 71t-23 59.5t-30.5 40.5t-30.5 15q-6 0 -13.5 -4t-10.5 -11zM511 225
q-89 0 -176.5 27.5t-157.5 83t-113.5 139t-43.5 196.5q0 54 13 98t26 68q13 -8 31.5 -13t40.5 -5q45 0 71.5 22t26.5 54q0 29 -18 46.5t-41 25.5h-180q-31 43 -46 84.5t-15 95.5q0 28 4 51.5t11.5 45.5t19 43t26.5 44h1230q15 -23 26.5 -44t19 -43t11.5 -45.5t4 -51.5
q0 -54 -15 -95.5t-46 -84.5h-50v-582q0 -36 3 -63.5t10 -50t17 -40.5t25 -36q-10 -50 -34 -87.5t-59 -63.5t-78.5 -39t-92.5 -13q-88 0 -147.5 34t-89.5 90q-46 -37 -91 -72t-92 -62t-96.5 -43t-104.5 -16q-60 0 -105 16t-75 44t-45 67t-15 84q0 17 1 31.5t3 26.5
q38 8 69.5 20.5t69.5 29.5q54 -29 123.5 -45.5t144.5 -16.5q77 0 139.5 16t106.5 38t68 45t24 37q0 17 -12 25q-57 -54 -137 -85t-189 -31z" />
    <glyph glyph-name="LaRa.dv" horiz-adv-x="1376" 
d="M569 -13q-5 -1 -11 -1h-10q-118 0 -215 43t-166.5 116t-108 169t-38.5 202q0 82 25 162t75 143t126 101.5t178 38.5q42 0 84 -12.5t80.5 -35.5t70 -57t51.5 -76h8q31 78 93 124t147 46q36 0 68 -5.5t53 -14.5q4 8 4 16q0 16 -15.5 26t-36.5 15t-42 6.5t-31 1.5
q-81 0 -144 -32.5t-103 -96.5q-21 29 -50 54.5t-66 44.5t-82.5 30t-98.5 11q-54 0 -100.5 -10.5t-88.5 -28.5h-235q-31 43 -46 84.5t-15 95.5q0 28 4 51.5t11.5 45.5t19 43t26.5 44h1410q15 -23 26.5 -44t19 -43t11.5 -45.5t4 -51.5q0 -54 -15 -95.5t-46 -84.5h-50v-582
q0 -36 3.5 -63.5t10.5 -50t17.5 -40.5t25.5 -36q-10 -50 -34 -87.5t-59 -63.5t-78.5 -39t-92.5 -13q-45 0 -88.5 11t-81.5 34q16 21 30 49t24.5 56.5t16.5 54t6 42.5q0 25 -12.5 30.5t-24.5 5.5q-16 -87 -43.5 -147.5t-62 -98t-74.5 -54.5t-80 -17q-41 0 -75.5 11t-59 34
t-38.5 59t-14 86v14q48 17 107.5 57t138.5 118q37 8 68 25t53.5 38.5t35 44t12.5 42.5q0 11 -5.5 20.5t-19.5 12.5q-15 -37 -39 -64.5t-54 -46t-64.5 -27.5t-71.5 -9q-36 0 -71 9t-65.5 27.5t-54 46.5t-36.5 66q-14 -3 -21.5 -13.5t-7.5 -23.5q0 -26 17 -53.5t49.5 -50.5
t80 -38t109.5 -15h11q-37 -35 -69 -59t-59.5 -40t-51.5 -24.5t-45 -12.5v-25q0 -67 16.5 -111.5t39.5 -68.5z" />
    <glyph glyph-name="VaRa.dv" horiz-adv-x="1066" 
d="M569 681q-3 1 -15 1q-26 0 -43.5 -18t-17.5 -47q0 -26 17.5 -43.5t46.5 -17.5q9 0 12 1v124zM834 -8q-69 0 -122.5 30t-84.5 94q-38 -39 -76.5 -71t-79.5 -55.5t-84.5 -36.5t-91.5 -13q-41 0 -79 11.5t-68 36t-48 62t-18 88.5q0 6 0.5 12t1.5 12q32 13 58.5 26t57.5 30
q54 -26 116 -42t147 -16q41 0 87.5 7t85.5 19.5t64.5 29t25.5 36.5q0 12 -10 23q-37 -26 -101.5 -48t-151.5 -22q-92 0 -173 29t-141 82.5t-94.5 128.5t-34.5 167t34.5 167.5t94.5 129t141 82.5t173 29q60 0 108 -10t93 -29q5 8 5 15q0 18 -19 31t-49 21.5t-66 12.5t-70 4
q-94 0 -177.5 -25t-152.5 -73h-160q-31 43 -46 84.5t-15 95.5q0 28 4 51.5t11.5 45.5t19 43t26.5 44h1115q15 -23 26.5 -44t19 -43t11.5 -45.5t4 -51.5q0 -54 -15 -95.5t-46 -84.5h-50v-582q0 -36 3.5 -63.5t11 -50t18 -40.5t25.5 -36q-10 -50 -34 -87.5t-59 -63.5
t-78.5 -39t-92.5 -13z" />
    <glyph glyph-name="ShaRa.dv" horiz-adv-x="1462" 
d="M1022 264q27 32 39.5 49.5t12.5 31.5q0 11 -8.5 17.5t-17.5 9.5l-118 -138q-52 -60 -99 -107t-95 -79t-100.5 -48.5t-114.5 -16.5q-72 0 -128.5 25.5t-96 69t-60.5 101.5t-21 122l426 228l-52 27l-338 -175q-49 6 -92 26.5t-75 55.5t-50.5 85.5t-18.5 115.5q0 20 3 42.5
t8.5 44t14 41t19.5 34.5l167 32q-20 29 -35 72.5t-15 103.5q0 75 28 140t80.5 114t127.5 77t168 28q96 0 169.5 -28t124 -77t76 -114.5t25.5 -141.5q0 -66 -17 -121t-55 -103q11 -14 28 -14q18 0 35 20.5t30.5 53t21.5 71.5t8 76q0 57 -8 104.5t-28 95.5q1 14 7.5 31.5
t16 34t22 30t26.5 20.5h424q15 -23 26.5 -44t19 -43t11.5 -45.5t4 -51.5q0 -54 -15 -95.5t-46 -84.5h-50v-582q0 -36 3.5 -63.5t10.5 -50t17.5 -40.5t25.5 -36q-10 -50 -34 -87.5t-58.5 -63.5t-78.5 -39t-93 -13q-45 0 -89 11t-80 35.5t-61.5 64t-34.5 95.5zM623 1016
q0 21 -12.5 32t-26.5 13q-17 0 -29 -11.5t-12 -35.5q0 -16 7 -29t27 -29q29 12 37.5 24.5t8.5 35.5z" />
    <glyph glyph-name="SsaRa.dv" horiz-adv-x="1063" 
d="M618 319q-16 -90 -45.5 -155.5t-70 -108t-91 -63.5t-107.5 -21q-47 0 -90.5 16t-79 49t-58.5 84t-29 120q45 25 89 57t95 76q18 -10 38.5 -15.5t37.5 -5.5q15 0 22 7.5t7 16.5q0 10 -4 15q-57 6 -112 36.5t-98 83.5t-69.5 127t-26.5 166q0 43 4 83.5t12 79.5h-68
q-31 43 -46 84.5t-15 95.5q0 28 4 51.5t11.5 45.5t19 43t26.5 44h1113q15 -23 26.5 -44t19 -43t11.5 -45.5t4 -51.5q0 -54 -15 -95.5t-46 -84.5h-50v-582q0 -36 3.5 -63.5t11 -50t18 -40.5t25.5 -36q-10 -50 -34 -87.5t-59 -63.5t-79 -39t-93 -13q-75 0 -137.5 30.5
t-96.5 84.5q16 26 27 52t18.5 49.5t11 43t3.5 31.5q0 20 -10.5 28t-21.5 8h-6zM366 990q-20 -11 -20 -34q0 -18 16.5 -47t42.5 -61t59 -64t65.5 -58t61.5 -42t48 -16q12 0 20 4.5t14 12.5q-22 12 -50.5 33.5t-59.5 49t-62 58.5t-57.5 61t-47 57t-30.5 46z" />
    <glyph glyph-name="SaRa.dv" horiz-adv-x="1490" 
d="M973 967h-69q11 -29 11 -69q0 -58 -24 -101q11 -6 21 -8t21 -2t20 2t20 8v170zM932 441q-27 0 -53 7.5t-48.5 20t-41 28t-30.5 31.5q-51 -29 -114 -40.5t-129 -11.5q2 -23 14.5 -34t44.5 -11q21 0 46 3.5t49.5 8.5t46 12t34.5 13q20 -20 50.5 -35.5t63.5 -24.5
q-51 -29 -99.5 -60t-97 -61t-99.5 -58t-106 -49q-1 -6 -1 -12.5v-13.5q0 -24 3.5 -49.5t8.5 -43.5q-43 26 -79 64t-65 83t-52 94.5t-40 98.5q-35 9 -73.5 32.5t-70.5 59.5t-53 82.5t-21 102.5q0 72 24 126t62 89.5t85 53.5t92 18q51 0 90 -14.5t65 -37.5q5 4 8 10.5t3 12.5
q0 13 -12.5 26.5t-34.5 24t-52.5 17t-66.5 6.5q-86 0 -160 -43h-133q-31 43 -46 84.5t-15 95.5q0 28 4 51.5t11.5 45.5t19 43t26.5 44h1524q15 -23 26.5 -44t19 -43t11.5 -45.5t4 -51.5q0 -54 -15 -95.5t-46 -84.5h-50v-582q0 -36 3.5 -63.5t10.5 -50t17.5 -40.5t25.5 -36
q-10 -50 -34 -87.5t-59 -63.5t-78.5 -39t-92.5 -13q-75 0 -131.5 29.5t-102.5 95.5q-20 -31 -44.5 -68t-58 -69t-77 -53.5t-100.5 -21.5q-61 0 -104.5 20.5t-71.5 54.5t-41.5 77.5t-13.5 90.5q64 25 117 56t101.5 63.5t96.5 64.5t102 60q38 0 52 9t14 25q0 7 -3 18
q-14 -2 -29.5 -2.5t-30.5 -0.5z" />
    <glyph glyph-name="HaRa.dv" horiz-adv-x="1125" 
d="M1029 967v-97q0 -57 -17.5 -91.5t-49.5 -51.5q-51 26 -108.5 38.5t-123.5 12.5q-75 0 -117.5 -18t-42.5 -41q0 -7 3 -14q36 13 74 20.5t79 7.5q89 0 159.5 -26t119 -72.5t74.5 -112t26 -143.5q0 -109 -43.5 -181.5t-115.5 -106.5q-14 45 -50 78.5t-102 58.5l-34 13
q10 17 19 36t17 41q2 5 4 11.5t2 12.5q0 25 -28 28l-11 -21q-25 -48 -48 -87.5t-49.5 -68t-57.5 -44t-73 -15.5q-24 0 -48 8.5t-43 26.5t-31 44.5t-12 62.5q0 4 0.5 7.5t0.5 7.5l240 192q-3 10 -11 16.5t-25 6.5q-7 -2 -13 -4t-14 -8l-232 -185q0 -5 -0.5 -9.5t-0.5 -9.5
q0 -49 14.5 -86.5t40 -63t59.5 -38.5t73 -13q69 0 116.5 29.5t86.5 80.5l23 -9q39 -14 68.5 -31t49.5 -39.5t30 -52.5t10 -70q0 -51 -25 -109t-82 -103q-161 0 -301 32.5t-244.5 99t-164.5 169t-60 242.5q0 42 11.5 85.5t32 81.5t47.5 68t59 45q-45 28 -75 77.5t-30 109.5
q0 68 30 117.5t81 81.5t117.5 47.5t140.5 15.5q35 0 59.5 -1.5t42.5 -4t31 -5t25 -4.5q3 4 3 12q0 10 -5.5 19t-23 15.5t-49 10t-83.5 3.5q-84 0 -145.5 -13.5t-105 -34t-71.5 -44t-46 -43.5h-97q-31 43 -46.5 84.5t-15.5 95.5q0 28 4 51.5t12 45.5t19.5 43t26.5 44h1145
q15 -23 26.5 -44t19 -43t11.5 -45.5t4 -51.5q0 -54 -15 -95.5t-46 -84.5h-105z" />
    <glyph glyph-name="KaKa.dv" horiz-adv-x="2727" 
d="M1471 1001q33 0 59 -2t47 -5t39 -7.5t35 -8.5q2 8 2 11v5q0 13 -15.5 23t-41 16.5t-57 9.5t-62.5 3q-99 0 -166 -26.5t-117 -68.5q-6 1 -16 2.5t-21 2.5t-22.5 1.5t-18.5 0.5q-24 0 -44.5 -3.5t-36.5 -10.5t-25 -16t-9 -20q0 -14 7 -24q20 11 50 19t58 8q20 0 45 -1
t45 -4q18 19 45.5 36.5t62 30.5t74.5 20.5t83 7.5zM561 664q-5 1 -15 1q-29 0 -45 -19.5t-16 -45.5t17.5 -43.5t46.5 -17.5q8 0 12 1v124zM1640 664q-5 1 -15 1q-29 0 -45 -19.5t-16 -45.5t17.5 -43.5t46.5 -17.5q8 0 12 1v124zM1501 162q-83 0 -155.5 30t-126.5 82
t-85.5 121.5t-31.5 149.5q-11 4 -23.5 6.5t-28.5 2.5q-26 0 -44 -9.5t-18 -26.5q0 -10 5 -23q10 3 24 4.5t43 1.5v-116q0 -36 3.5 -63.5t10 -50t17 -40.5t25.5 -36q-10 -50 -34 -87.5t-58.5 -63.5t-77 -39t-90.5 -13q-60 0 -110.5 18.5t-86.5 53t-56.5 82t-20.5 106.5v45
q-31 0 -41.5 -17.5t-10.5 -41.5q0 -15 2.5 -30t5.5 -26q-18 -8 -48.5 -14t-67.5 -6q-89 0 -163 31t-127 85.5t-82.5 130t-29.5 164.5q0 80 26.5 156t78 135t126.5 95t173 36q57 0 113 -16t96 -45q7 10 7 22q0 15 -15.5 30t-44 27t-68 19.5t-88.5 7.5q-76 0 -138.5 -18
t-119.5 -55h-191q-31 43 -46 84.5t-15 95.5q0 28 4 51.5t11.5 45.5t19 43t26.5 44h2755q15 -23 27 -44t19.5 -43t11.5 -45.5t4 -51.5q0 -54 -15.5 -95.5t-46.5 -84.5h-164q-44 29 -107.5 51t-144.5 22q-47 0 -86 -7.5t-67 -20t-44 -28.5t-16 -32q0 -14 6 -22
q45 32 94.5 48.5t112.5 16.5q91 0 163.5 -35.5t123.5 -93.5t78.5 -132t27.5 -150q0 -98 -28 -174.5t-75 -129t-108.5 -80.5t-128.5 -28q-118 0 -183 63.5t-65 177.5q0 73 30 150q8 -5 16.5 -8.5t19.5 -3.5q20 0 32 15.5t12 39.5q0 27 -14.5 43t-41.5 16q-6 0 -15 -1.5
t-14 -3.5q-14 -14 -28 -39.5t-25 -58.5t-18 -71.5t-7 -77.5q0 -57 13 -98t32.5 -70.5t42.5 -48t43 -30.5q-10 -31 -28.5 -62t-50 -56t-76.5 -40.5t-107 -15.5q-60 0 -110.5 18.5t-86.5 53t-56.5 82t-20.5 106.5v45q-31 0 -41.5 -17.5t-10.5 -41.5q0 -15 2.5 -30t5.5 -26
q-18 -8 -48.5 -14t-67.5 -6z" />
    <glyph glyph-name="KaKha.dv" horiz-adv-x="2622" 
d="M561 664q-5 1 -15 1q-29 0 -45 -19.5t-16 -45.5t17.5 -43.5t46.5 -17.5q8 0 12 1v124zM1320 922q48 0 82 -8.5t57 -21t37.5 -27t24.5 -27.5q3 8 5.5 14t2.5 12q0 22 -15.5 40.5t-43.5 32t-66.5 21.5t-83.5 8h-203q-72 0 -115 -18.5t-43 -55.5q0 -5 1 -9t3 -9
q20 15 56.5 31.5t95.5 16.5h205zM1792 470q42 -55 108 -86.5t150 -31.5q19 0 44 2.5t46.5 8.5t36.5 16.5t15 26.5q0 9 -4 17q-61 -26 -137 -26q-59 0 -107.5 19.5t-84 54.5t-55 82.5t-19.5 104.5q0 60 22.5 108.5t60.5 83t88.5 53.5t107.5 19q42 0 73.5 -5t58.5 -17
q4 8 4 17q0 16 -15.5 26t-38 15t-48 7t-45.5 2q-67 0 -125.5 -23t-102 -64.5t-68.5 -98t-25 -123.5q0 -82 33 -145q-23 -28 -71.5 -43t-106.5 -15q-10 0 -25 1t-25 3q-1 -2 -1 -4.5v-4.5q0 -14 8 -22t20 -11.5t26.5 -4.5t28.5 -1q60 0 104.5 19.5t68.5 39.5zM856 -8
q-60 0 -110.5 18.5t-86.5 53t-56.5 82t-20.5 106.5v45q-31 0 -41.5 -17.5t-10.5 -41.5q0 -15 2.5 -30t5.5 -26q-18 -8 -48.5 -14t-67.5 -6q-89 0 -163 31t-127 85.5t-82.5 130t-29.5 164.5q0 80 26.5 156t78 135t126.5 95t173 36q57 0 113 -16t96 -45q7 10 7 22
q0 15 -15.5 30t-44 27t-68 19.5t-88.5 7.5q-76 0 -138.5 -18t-119.5 -55h-191q-31 43 -46 84.5t-15 95.5q0 28 4 51.5t11.5 45.5t19 43t26.5 44h2671q15 -23 26.5 -44t19 -43t11.5 -45.5t4 -51.5q0 -54 -15 -95.5t-46 -84.5h-50v-582q0 -36 3.5 -63.5t11 -50t18 -40.5
t25.5 -36q-10 -50 -34.5 -87.5t-59 -63.5t-78.5 -39t-93 -13q-55 0 -111 18t-93 54q17 25 28 56.5t11 63.5q0 23 -9.5 39.5t-32.5 18.5q0 -63 -21.5 -115t-62 -89.5t-99.5 -58t-134 -20.5q-94 0 -167.5 29t-137.5 82t-122 126.5t-120 163.5q-30 4 -63.5 17t-65.5 36.5
t-59.5 57.5t-44.5 79q-20 0 -20 -44v-121q0 -36 3 -63.5t10 -50t17 -40.5t25 -36q-10 -50 -34 -87.5t-58.5 -63.5t-78.5 -39t-93 -13z" />
    <glyph glyph-name="KaCa.dv" horiz-adv-x="2314" 
d="M1557 106q-101 0 -182 25t-137.5 70t-86.5 108.5t-30 141.5q0 57 19 106h-36q-26 0 -32.5 -19t-6.5 -45v-108q0 -36 3 -63.5t10 -50t17 -40.5t25 -36q-10 -50 -34 -87.5t-58.5 -63.5t-78.5 -39t-93 -13q-60 0 -110.5 18.5t-86.5 53t-56.5 82t-20.5 106.5v45
q-31 0 -41.5 -17.5t-10.5 -41.5q0 -15 2.5 -30t5.5 -26q-18 -8 -48.5 -14t-67.5 -6q-89 0 -163 31t-127 85.5t-82.5 130t-29.5 164.5q0 80 26.5 156t78 135t126.5 95t173 36q57 0 113 -16t96 -45q7 10 7 22q0 15 -15.5 30t-44 27t-68 19.5t-88.5 7.5q-76 0 -138.5 -18
t-119.5 -55h-191q-31 43 -46 84.5t-15 95.5q0 28 4 51.5t11.5 45.5t19 43t26.5 44h2363q15 -23 26.5 -44t19 -43t11.5 -45.5t4 -51.5q0 -54 -15 -95.5t-46 -84.5h-50v-582q0 -36 3.5 -63.5t11 -50t18 -40.5t25.5 -36q-10 -50 -34 -87.5t-59 -63.5t-78.5 -39t-92.5 -13
q-88 0 -157 32t-108 89q29 13 62.5 33t61.5 43t46.5 46.5t18.5 43.5q0 22 -21 32q-24 -37 -64 -73.5t-94.5 -66t-122.5 -47.5t-147 -18zM1766 922q17 -26 30 -69t13 -87q0 -39 -11 -71.5t-31.5 -56.5t-49 -37t-63.5 -13h-80q-17 -15 -17 -35q0 -22 17.5 -35.5t52.5 -13.5
q9 0 20 2t22.5 6.5t22 13t17.5 21.5q31 8 59 24t49 42.5t33 64.5t12 89q0 32 -6 62t-15 56t-20.5 47t-22.5 35h-691q-21 0 -42.5 -2.5t-38 -8.5t-27 -16.5t-10.5 -26.5q0 -8 6 -20q17 12 41 20.5t60 8.5h670zM561 664q-5 1 -15 1q-29 0 -45 -19.5t-16 -45.5t17.5 -43.5
t46.5 -17.5q8 0 12 1v124z" />
    <glyph glyph-name="KaJa.dv" horiz-adv-x="2418" 
d="M1341 831q-3 -15 -3.5 -27.5t-0.5 -25.5q0 -65 19.5 -118t54 -91t82 -59t102.5 -21t55 41q-64 0 -112.5 18t-81.5 51t-49.5 79.5t-16.5 103.5q0 15 2 34t6.5 38t11 37t15.5 31h555q0 11 -2.5 19.5t-10 14t-21 8.5t-36.5 3h-523q-10 -14 -19.5 -34.5t-14.5 -40.5
q-50 51 -113 81.5t-154 30.5q-24 0 -48 -3.5t-43.5 -10.5t-31.5 -16t-12 -20q0 -14 7 -24q10 5 26 10t34 8.5t36 6t32 2.5q66 0 132 -28.5t123 -97.5zM561 664q-5 1 -15 1q-29 0 -45 -19.5t-16 -45.5t17.5 -43.5t46.5 -17.5q8 0 12 1v124zM856 -8q-60 0 -110.5 18.5
t-86.5 53t-56.5 82t-20.5 106.5v45q-31 0 -41.5 -17.5t-10.5 -41.5q0 -15 2.5 -30t5.5 -26q-18 -8 -48.5 -14t-67.5 -6q-89 0 -163 31t-127 85.5t-82.5 130t-29.5 164.5q0 80 26.5 156t78 135t126.5 95t173 36q57 0 113 -16t96 -45q7 10 7 22q0 15 -15.5 30t-44 27t-68 19.5
t-88.5 7.5q-76 0 -138.5 -18t-119.5 -55h-191q-31 43 -46 84.5t-15 95.5q0 28 4 51.5t11.5 45.5t19 43t26.5 44h2467q15 -23 26.5 -44t19 -43t11.5 -45.5t4 -51.5q0 -54 -15 -95.5t-46 -84.5h-50v-582q0 -36 3.5 -63.5t10.5 -50t17.5 -40.5t25.5 -36q-10 -50 -34 -87.5
t-59 -63.5t-78.5 -39t-92.5 -13q-40 0 -79.5 8.5t-74.5 27.5t-62.5 48.5t-43.5 70.5q69 62 98 127.5t29 137.5q0 33 -6.5 61.5t-17 49t-25 32.5t-29.5 12q-6 0 -10.5 -0.5t-9.5 -3.5q21 -32 33 -70.5t12 -80.5q0 -57 -23.5 -113t-71 -101t-120 -72.5t-170.5 -27.5
q-86 0 -154.5 19.5t-123 51.5t-96.5 73t-75.5 84t-59.5 84t-48 73t-41.5 51.5t-40.5 19.5q-26 0 -36.5 -9.5t-10.5 -26.5q0 -10 5 -23q12 3 22 3q26 0 50.5 -31t53.5 -82q0 -36 3.5 -63.5t10.5 -50t17.5 -40.5t25.5 -36q-10 -50 -34 -87.5t-58.5 -63.5t-77 -39t-90.5 -13z
" />
    <glyph glyph-name="KaJha.dv" horiz-adv-x="2613" 
d="M856 -8q-60 0 -110.5 18.5t-86.5 53t-56.5 82t-20.5 106.5v45q-31 0 -41.5 -17.5t-10.5 -41.5q0 -15 2.5 -30t5.5 -26q-18 -8 -48.5 -14t-67.5 -6q-89 0 -163 31t-127 85.5t-82.5 130t-29.5 164.5q0 80 26.5 156t78 135t126.5 95t173 36q57 0 113 -16t96 -45q7 10 7 22
q0 15 -15.5 30t-44 27t-68 19.5t-88.5 7.5q-76 0 -138.5 -18t-119.5 -55h-191q-31 43 -46 84.5t-15 95.5q0 28 4 51.5t11.5 45.5t19 43t26.5 44h2662q15 -23 26.5 -44t19 -43t11.5 -45.5t4 -51.5q0 -54 -15 -95.5t-46 -84.5h-50v-582q0 -36 3.5 -63.5t10.5 -50t17.5 -40.5
t25.5 -36q-10 -50 -34 -87.5t-58.5 -63.5t-78.5 -39t-93 -13q-37 0 -74 7.5t-70.5 24t-61.5 42t-46 61.5q19 18 37 42.5t32 53t22.5 59t8.5 60.5q0 20 -10 32t-33 17q-3 -91 -41 -157.5t-100.5 -111.5t-145 -71t-173.5 -35q0 -18 18 -27t43 -9q31 0 64.5 5.5t64.5 14
t55.5 18.5t36.5 19q6 -22 10.5 -52.5t4.5 -51.5q0 -53 -16.5 -93.5t-46.5 -69t-71.5 -43t-91.5 -14.5q-60 0 -111 21.5t-93.5 61.5t-76.5 97t-61 127q-86 11 -148 28t-114 42q-19 35 -35 81t-16 102q0 53 19 99t55 79.5t88.5 53t120.5 19.5q56 0 104.5 -19t85.5 -51.5
t60 -76t28 -91.5q11 1 22 10t11 32q0 33 -20 75t-59 79t-97 62t-134 25q-52 0 -92 -8t-70 -20t-50 -24.5t-30 -21.5q-26 25 -58.5 42t-74.5 17q-26 0 -44 -9.5t-18 -26.5q0 -10 5 -23q10 3 24 4.5t43 1.5v-116q0 -36 3.5 -63.5t10 -50t17 -40.5t25.5 -36q-10 -50 -34 -87.5
t-58.5 -63.5t-77 -39t-90.5 -13zM2112 663q32 26 44.5 68.5t12.5 109.5v122q0 37 -13 59t-40 22v-187q0 -50 -4.5 -80.5t-15.5 -47.5q-57 35 -127 56.5t-163 21.5q-72 0 -112.5 -14t-40.5 -41q0 -7 2 -13q20 8 54.5 15.5t88.5 7.5q85 0 163.5 -24t150.5 -75zM1641 1024
q1 4 1 10q0 15 -12.5 25t-41.5 10h-118q-50 0 -90.5 -7.5t-73 -19.5t-56.5 -26.5t-41 -27.5q-23 6 -55.5 11t-67.5 5q-24 0 -44.5 -3.5t-36.5 -10.5t-25 -16t-9 -20q0 -14 7 -24q20 11 50 19t58 8q47 0 79.5 -7t55.5 -17q46 43 110 67t139 24h171zM561 664q-5 1 -15 1
q-29 0 -45 -19.5t-16 -45.5t17.5 -43.5t46.5 -17.5q8 0 12 1v124z" />
    <glyph glyph-name="KaTta.dv" horiz-adv-x="2151" 
d="M856 -8q-60 0 -110.5 18.5t-86.5 53t-56.5 82t-20.5 106.5v45q-31 0 -41.5 -17.5t-10.5 -41.5q0 -15 2.5 -30t5.5 -26q-18 -8 -48.5 -14t-67.5 -6q-89 0 -163 31t-127 85.5t-82.5 130t-29.5 164.5q0 80 26.5 156t78 135t126.5 95t173 36q57 0 113 -16t96 -45q7 10 7 22
q0 15 -15.5 30t-44 27t-68 19.5t-88.5 7.5q-76 0 -138.5 -18t-119.5 -55h-191q-31 43 -46 84.5t-15 95.5q0 28 4 51.5t11.5 45.5t19 43t26.5 44h2166q15 -23 26.5 -44t19 -43t11.5 -45.5t4 -51.5q0 -54 -15 -95.5t-46 -84.5h-109q8 -35 12.5 -61.5t4.5 -55.5
q0 -65 -21.5 -114t-57 -84.5t-80.5 -60t-92 -42t-92 -29t-80.5 -21.5t-57 -20t-21.5 -24q0 -22 23 -29.5t61 -7.5q46 0 98.5 13.5t100.5 34.5t86.5 46t56.5 49q33 -17 62 -41t50 -54.5t33.5 -67.5t12.5 -79q0 -74 -40 -135t-108.5 -104t-159.5 -66.5t-192 -23.5
q-123 0 -224.5 33t-174 93.5t-112.5 145t-40 187.5q0 48 8.5 91t25.5 81q-10 2 -15 2q-36 0 -54 -45t-18 -130q0 -75 14 -128t31 -88q20 -40 46 -66q-10 -31 -28.5 -62t-50 -56t-76.5 -40.5t-107 -15.5zM1627 1030q0 15 -2 30.5t-7.5 28t-15 21t-24.5 8.5q-7 0 -12.5 -2
t-9.5 -4q9 -20 13.5 -36t4.5 -38q0 -20 -8.5 -41.5t-28.5 -29.5h-50q-44 29 -107.5 51t-144.5 22q-47 0 -86 -7.5t-67 -20t-44 -28.5t-16 -32q0 -14 6 -22q45 32 94.5 48.5t112.5 16.5q14 0 44.5 -2.5t67.5 -12.5t77 -30t73 -55q69 23 99.5 53t30.5 82zM561 664q-5 1 -15 1
q-29 0 -45 -19.5t-16 -45.5t17.5 -43.5t46.5 -17.5q8 0 12 1v124z" />
    <glyph glyph-name="KaTtha.dv" horiz-adv-x="2265" 
d="M856 -8q-60 0 -110.5 18.5t-86.5 53t-56.5 82t-20.5 106.5v45q-31 0 -41.5 -17.5t-10.5 -41.5q0 -15 2.5 -30t5.5 -26q-18 -8 -48.5 -14t-67.5 -6q-89 0 -163 31t-127 85.5t-82.5 130t-29.5 164.5q0 80 26.5 156t78 135t126.5 95t173 36q57 0 113 -16t96 -45q7 10 7 22
q0 15 -15.5 30t-44 27t-68 19.5t-88.5 7.5q-76 0 -138.5 -18t-119.5 -55h-191q-31 43 -46 84.5t-15 95.5q0 28 4 51.5t11.5 45.5t19 43t26.5 44h2298q15 -23 27 -44t19.5 -43t11.5 -45.5t4 -51.5q0 -54 -15.5 -95.5t-46.5 -84.5h-189q3 -16 4.5 -35t1.5 -35q0 -28 -9.5 -59
t-27.5 -50q-22 11 -53 22t-56 11q-18 0 -28 -7t-15 -26q76 -18 139.5 -58t109 -94t70.5 -118.5t25 -132.5q0 -108 -43 -187t-117.5 -130.5t-175.5 -76t-217 -24.5q-132 0 -241 30.5t-186.5 89t-120.5 142.5t-43 191q0 58 12 112t38 103q-16 7 -24 7q-20 0 -35 -20t-25 -52.5
t-15.5 -72t-5.5 -78.5q0 -89 21 -147.5t51 -105.5q-10 -31 -28.5 -62t-50 -56t-76.5 -40.5t-107 -15.5zM1656 1030q0 33 -8.5 51.5t-31.5 18.5q-7 0 -11.5 -1t-8.5 -3q2 -13 4 -26.5t2 -27.5q0 -30 -13.5 -48.5t-33.5 -26.5h-68q-44 29 -107.5 51t-144.5 22q-47 0 -86 -7.5
t-67 -20t-44 -28.5t-16 -32q0 -14 6 -22q45 32 94.5 48.5t112.5 16.5q15 0 46.5 -3t70 -14t79.5 -33t74 -60q77 26 114 58t37 87zM1694 477q-51 -14 -75 -29t-24 -38q0 -20 23 -30.5t58 -10.5q31 0 53 11.5t22 33.5q0 24 -16 38t-41 25zM561 664q-5 1 -15 1q-29 0 -45 -19.5
t-16 -45.5t17.5 -43.5t46.5 -17.5q8 0 12 1v124z" />
    <glyph glyph-name="KaDda.dv" horiz-adv-x="2159" 
d="M1437 1092q-99 0 -175.5 -31t-128.5 -94h-98q-34 0 -44 -11.5t-10 -23.5q0 -4 2 -10h173q45 60 117 92.5t158 32.5q33 0 59 -2t47 -5t39 -7.5t35 -8.5q3 7 3 14q0 19 -22.5 30t-52.5 16.5t-59.5 6.5t-42.5 1zM561 664q-5 1 -15 1q-29 0 -45 -19.5t-16 -45.5t17.5 -43.5
t46.5 -17.5q8 0 12 1v124zM1771 733q30 0 69 -6t80 -20.5t80 -40t70 -64.5t50 -93t19 -126q0 -95 -35.5 -172.5t-103 -132t-164 -84t-217.5 -29.5q-106 0 -201 25t-167 72t-114 114t-42 152q0 33 7.5 64.5t26 58.5t49.5 48.5t79 35.5q12 -23 40 -54.5t72.5 -59.5
t104.5 -47.5t137 -19.5q9 0 23.5 0.5t28.5 4t24 10.5t10 20q0 5 -2 13q-17 -2 -31 -2.5t-46 -0.5q-47 0 -97 11.5t-95.5 34.5t-83 59t-59.5 84q-27 -5 -54 -14t-49 -20h-104q-18 0 -25.5 -11.5t-7.5 -27.5q0 -44 -0.5 -74.5t-0.5 -53v-39v-31.5q0 -43 3.5 -74.5t10.5 -55.5
t15.5 -41t19.5 -30q-35 -61 -96.5 -92.5t-138.5 -31.5q-60 0 -110.5 18.5t-86.5 53t-56.5 82t-20.5 106.5v45q-31 0 -41.5 -17.5t-10.5 -41.5q0 -15 2.5 -30t5.5 -26q-18 -8 -48.5 -14t-67.5 -6q-89 0 -163 31t-127 85.5t-82.5 130t-29.5 164.5q0 80 26.5 156t78 135
t126.5 95t173 36q57 0 113 -16t96 -45q7 10 7 22q0 15 -15.5 30t-44 27t-68 19.5t-88.5 7.5q-76 0 -138.5 -18t-119.5 -55h-191q-31 43 -46 84.5t-15 95.5q0 28 4 51.5t11.5 45.5t19 43t26.5 44h2192q15 -23 27 -44t19.5 -43t11.5 -45.5t4 -51.5q0 -54 -15.5 -95.5
t-46.5 -84.5h-108v-119q0 -40 -17 -74.5t-46 -46.5q-45 23 -102.5 37t-122.5 14q-36 0 -66.5 -2.5t-53.5 -9.5t-36 -18t-13 -27q0 -8 5 -16q35 15 75.5 21.5t88.5 6.5z" />
    <glyph glyph-name="KaNna.dv" horiz-adv-x="2447" 
d="M852 -8q-59 0 -108.5 18.5t-85.5 53t-56 82t-20 106.5v45q-31 0 -41.5 -17.5t-10.5 -41.5q0 -15 2.5 -30t5.5 -26q-18 -8 -48.5 -14t-67.5 -6q-89 0 -163 31t-127 85.5t-82.5 130t-29.5 164.5q0 80 26.5 156t78 135t126.5 95t173 36q57 0 113 -16t96 -45q7 10 7 22
q0 15 -15.5 30t-44 27t-68 19.5t-88.5 7.5q-76 0 -138.5 -18t-119.5 -55h-191q-31 43 -46 84.5t-15 95.5q0 28 4 51.5t11.5 45.5t19 43t26.5 44h2496q15 -23 26.5 -44t19 -43t11.5 -45.5t4 -51.5q0 -54 -15 -95.5t-46 -84.5h-50v-582q0 -36 3.5 -63.5t11 -50t18 -40.5
t25.5 -36q-10 -50 -34 -87.5t-59 -63.5t-78.5 -39t-92.5 -13q-51 0 -101.5 14t-90 45.5t-64.5 82t-25 124.5v106q56 66 88.5 154.5t32.5 204.5q0 55 -7.5 105t-20 87.5t-29 60t-34.5 22.5q-11 0 -18 -5q15 -26 25.5 -58.5t17.5 -67t10 -69.5t3 -66q0 -110 -33 -194.5
t-92.5 -142t-143 -87.5t-184.5 -30q-175 0 -289 71.5t-159 198.5q-11 3 -27.5 4.5t-23.5 1.5q-26 0 -44 -9.5t-18 -26.5q0 -10 5 -23q10 3 24 4.5t43 1.5v-116q0 -36 3.5 -63.5t10 -50t17 -40.5t25.5 -36q-10 -50 -34 -87.5t-58.5 -63.5t-78.5 -39t-93 -13zM1501 967
q-1 -20 -2 -36t-2 -32.5t-1.5 -35.5t-0.5 -44q0 -40 10.5 -55.5t28.5 -15.5t28 15.5t10 55.5q0 46 -5 82.5t-10 65.5h-56zM1071 1004q-57 0 -88.5 -12t-31.5 -34q0 -14 7 -24q17 7 47.5 15t65.5 8q31 0 69 -6.5t62 -16.5q3 10 3 20q0 23 -31 36.5t-103 13.5zM561 664
q-5 1 -15 1q-29 0 -45 -19.5t-16 -45.5t17.5 -43.5t46.5 -17.5q8 0 12 1v124z" />
    <glyph glyph-name="KaTa.dv" horiz-adv-x="2211" 
d="M561 664q-5 1 -15 1q-29 0 -45 -19.5t-16 -45.5t17.5 -43.5t46.5 -17.5q8 0 12 1v124zM1471 1021q33 0 59 -2t47 -5t39 -7.5t35 -8.5q2 8 2 11v5q0 13 -15.5 23t-41 16.5t-57 9.5t-62.5 3q-99 0 -166 -26.5t-117 -68.5q-6 1 -16 2.5t-21 2.5t-22.5 1.5t-18.5 0.5
q-24 0 -44.5 -3.5t-36.5 -10.5t-25 -16t-9 -20q0 -14 7 -24q20 11 50 19t58 8q20 0 45 -1t45 -4q18 19 45.5 36.5t62 30.5t74.5 20.5t83 7.5zM852 -8q-59 0 -108.5 18.5t-85.5 53t-56 82t-20 106.5v45q-31 0 -41.5 -17.5t-10.5 -41.5q0 -15 2.5 -30t5.5 -26
q-18 -8 -48.5 -14t-67.5 -6q-89 0 -163 31t-127 85.5t-82.5 130t-29.5 164.5q0 80 26.5 156t78 135t126.5 95t173 36q57 0 113 -16t96 -45q7 10 7 22q0 15 -15.5 30t-44 27t-68 19.5t-88.5 7.5q-76 0 -138.5 -18t-119.5 -55h-191q-31 43 -46 84.5t-15 95.5q0 28 4 51.5
t11.5 45.5t19 43t26.5 44h2260q15 -23 26.5 -44t19 -43t11.5 -45.5t4 -51.5q0 -54 -15 -95.5t-46 -84.5h-50v-582q0 -36 3.5 -63.5t11 -50t18 -40.5t25.5 -36q-10 -50 -34 -87.5t-59 -63.5t-78.5 -39t-92.5 -13q-36 0 -72 7t-69 22t-60.5 39t-46.5 58q15 21 24.5 50.5
t9.5 61.5q0 38 -16 83.5t-51 105.5v167q-11 8 -24 12t-25 4q-23 0 -39 -17.5t-16 -49.5q0 -22 19 -58.5t41.5 -78t41.5 -84t19 -76.5q0 -59 -28 -104t-76.5 -76.5t-113.5 -49.5t-138 -24l-58 75q-96 124 -150 245.5t-59 240.5q-9 5 -21.5 7t-20.5 2q-26 0 -44 -9.5
t-18 -26.5q0 -10 5 -23q10 3 24 4.5t43 1.5v-116q0 -36 3.5 -63.5t10 -50t17 -40.5t25.5 -36q-10 -50 -34 -87.5t-58.5 -63.5t-78.5 -39t-93 -13z" />
    <glyph glyph-name="KaTaone.dv" horiz-adv-x="1880" 
d="M174 517q23 -7 44 -10t45 -3q53 0 73 10.5t20 29.5q0 7 -1 12q-17 -4 -42 -5.5t-50 -1.5q-63 0 -108.5 21t-74.5 55t-43 78t-14 90q0 65 25 129h703q24 0 38 7t14 24q0 4 -2 14h-823q-31 43 -46 84.5t-15 95.5q0 28 4 51.5t11.5 45.5t19 43t26.5 44h1905q15 -23 27 -44
t19.5 -43t11.5 -45.5t4 -51.5q0 -54 -15.5 -95.5t-46.5 -84.5h-164q-44 29 -107.5 51t-144.5 22q-47 0 -86 -7.5t-67 -20t-44 -28.5t-16 -32q0 -14 6 -22q45 32 94.5 48.5t112.5 16.5q91 0 163.5 -35.5t123.5 -93.5t78.5 -132t27.5 -150q0 -98 -28 -174.5t-75 -129
t-108.5 -80.5t-128.5 -28q-118 0 -183 63.5t-65 177.5q0 73 30 150q8 -5 16.5 -8.5t19.5 -3.5q20 0 32 15.5t12 39.5q0 27 -14.5 43t-41.5 16q-6 0 -15 -1.5t-14 -3.5q-14 -14 -28 -40t-25 -59.5t-18 -71.5t-7 -75q0 -45 8.5 -81t22.5 -64t32 -49.5t38 -38.5
q-8 -30 -26 -63.5t-49 -61.5t-77 -46t-110 -18q-36 0 -72 7t-69 22t-60.5 39t-46.5 58q15 21 24.5 50.5t9.5 61.5q0 38 -16 83.5t-51 105.5v167q-11 8 -24 12t-25 4q-23 0 -39 -17.5t-16 -49.5q0 -22 19 -58.5t41.5 -78t41.5 -84t19 -76.5q0 -59 -28 -104t-76.5 -76.5
t-113.5 -49.5t-138 -24l-58 75q-90 117 -143 231.5t-63 226.5z" />
    <glyph glyph-name="KaDa.dv" horiz-adv-x="2218" 
d="M852 -8q-59 0 -108.5 18.5t-85.5 53t-56 82t-20 106.5v45q-31 0 -41.5 -17.5t-10.5 -41.5q0 -15 2.5 -30t5.5 -26q-18 -8 -48.5 -14t-67.5 -6q-89 0 -163 31t-127 85.5t-82.5 130t-29.5 164.5q0 80 26.5 156t78 135t126.5 95t173 36q57 0 113 -16t96 -45q7 10 7 22
q0 15 -15.5 30t-44 27t-68 19.5t-88.5 7.5q-76 0 -138.5 -18t-119.5 -55h-191q-31 43 -46 84.5t-15 95.5q0 28 4 51.5t11.5 45.5t19 43t26.5 44h2245q15 -23 27 -44t19.5 -43t11.5 -45.5t4 -51.5q0 -54 -15.5 -95.5t-46.5 -84.5h-95v-33q0 -38 -7.5 -75.5t-25.5 -67.5
t-48 -49t-75 -19q-38 6 -78 6q-61 0 -117.5 -16.5t-100 -49.5t-69.5 -83t-26 -117q0 -87 46 -87q9 0 15 3q-5 17 -6.5 37.5t-1.5 42.5q0 57 22 99t58.5 70t83 42t94.5 14q54 0 103 -20t89 -58.5t70 -93.5t47 -125q-7 -23 -18.5 -46.5t-26 -45.5t-29.5 -41t-28 -33l110 -174
q0 -54 -20.5 -100.5t-57 -80.5t-87 -53.5t-111.5 -19.5q-56 0 -101 18t-78 47t-53 66t-26 76q17 0 40.5 2t48.5 6t49.5 10t44 15t31.5 20.5t12 25.5q0 11 -7 21q-46 -24 -106.5 -39.5t-139.5 -15.5q-117 0 -216 34t-172 96t-114 150.5t-41 196.5v23q-9 5 -26.5 7t-25.5 2
q-26 0 -44 -9.5t-18 -26.5q0 -10 5 -23q10 3 24 4.5t43 1.5v-116q0 -36 3.5 -63.5t10 -50t17 -40.5t25.5 -36q-10 -50 -34 -87.5t-58.5 -63.5t-78.5 -39t-93 -13zM1086 1004q-24 0 -44.5 -3.5t-36.5 -10.5t-25 -16t-9 -20q0 -14 7 -24q20 11 50 19t58 8q41 0 71.5 -5.5
t53 -14t38.5 -19t29 -19.5q75 55 174.5 81.5t217.5 27.5q0 28 -21.5 35t-62.5 7q-40 0 -84 -8t-85 -20.5t-76 -29t-58 -33.5q-15 7 -33.5 15t-42 15t-53.5 11t-68 4zM561 664q-5 1 -15 1q-29 0 -45 -19.5t-16 -45.5t17.5 -43.5t46.5 -17.5q8 0 12 1v124z" />
    <glyph glyph-name="KaNa.dv" horiz-adv-x="2277" 
d="M852 -8q-59 0 -108.5 18.5t-85.5 53t-56 82t-20 106.5v45q-31 0 -41.5 -17.5t-10.5 -41.5q0 -15 2.5 -30t5.5 -26q-18 -8 -48.5 -14t-67.5 -6q-89 0 -163 31t-127 85.5t-82.5 130t-29.5 164.5q0 80 26.5 156t78 135t126.5 95t173 36q57 0 113 -16t96 -45q7 10 7 22
q0 15 -15.5 30t-44 27t-68 19.5t-88.5 7.5q-76 0 -138.5 -18t-119.5 -55h-191q-31 43 -46 84.5t-15 95.5q0 28 4 51.5t11.5 45.5t19 43t26.5 44h2326q15 -23 26.5 -44t19 -43t11.5 -45.5t4 -51.5q0 -54 -15 -95.5t-46 -84.5h-51v-562q0 -36 3.5 -63.5t10.5 -50t17.5 -40.5
t25.5 -36q-10 -50 -34 -87.5t-59 -63.5t-78.5 -39t-92.5 -13q-51 0 -101 14t-90 46t-65 83t-25 125v283q-19 22 -66 22q-6 0 -12.5 -1t-11.5 -3q8 -12 19.5 -46t11.5 -79q0 -54 -16 -99t-48 -77.5t-79.5 -51t-110.5 -18.5q-84 0 -147.5 28.5t-107 76t-67 108t-27.5 123.5
q-10 4 -26 6t-24 2q-26 0 -44 -9.5t-18 -26.5q0 -10 5 -23q10 3 24 4.5t43 1.5v-116q0 -36 3.5 -63.5t10 -50t17 -40.5t25.5 -36q-10 -50 -34 -87.5t-58.5 -63.5t-78.5 -39t-93 -13zM1498 942q68 0 138.5 -12.5t125.5 -30.5v44q-44 14 -113 29t-160 15q-55 0 -106 -9.5
t-87 -23.5q-35 18 -89 34t-121 16q-24 0 -44.5 -3.5t-36.5 -10.5t-25 -16t-9 -20q0 -14 7 -24q20 11 50 19t58 8q46 0 80.5 -7.5t61.5 -19.5q14 -7 27.5 -15t24.5 -16q89 43 218 43zM561 664q-5 1 -15 1q-29 0 -45 -19.5t-16 -45.5t17.5 -43.5t46.5 -17.5q8 0 12 1v124z" />
    <glyph glyph-name="KaPa.dv" horiz-adv-x="2106" 
d="M1595 967h-57q-3 -11 -6 -40t-3 -55q0 -38 14 -68t52 -36v199zM1071 1004q-57 0 -88.5 -12t-31.5 -34q0 -14 7 -24q17 7 47.5 15t65.5 8q31 0 69 -6.5t62 -16.5q3 10 3 20q0 23 -31 36.5t-103 13.5zM561 664q-5 1 -15 1q-29 0 -45 -19.5t-16 -45.5t17.5 -43.5t46.5 -17.5
q8 0 12 1v124zM1593 301q33 4 71.5 16.5t72 30.5t55.5 39.5t22 42.5q0 19 -14 30q-24 -28 -59 -50.5t-75.5 -38t-85.5 -23.5t-89 -8q-133 0 -236.5 54.5t-160.5 153.5q-11 3 -24 4.5t-20 1.5q-26 0 -44 -9.5t-18 -26.5q0 -10 5 -23q10 3 24 4.5t43 1.5v-116q0 -36 3.5 -63.5
t10 -50t17 -40.5t25.5 -36q-10 -50 -34 -87.5t-58.5 -63.5t-77 -39t-90.5 -13q-60 0 -110.5 18.5t-86.5 53t-56.5 82t-20.5 106.5v45q-31 0 -41.5 -17.5t-10.5 -41.5q0 -15 2.5 -30t5.5 -26q-18 -8 -48.5 -14t-67.5 -6q-89 0 -163 31t-127 85.5t-82.5 130t-29.5 164.5
q0 80 26.5 156t78 135t126.5 95t173 36q57 0 113 -16t96 -45q7 10 7 22q0 15 -15.5 30t-44 27t-68 19.5t-88.5 7.5q-76 0 -138.5 -18t-119.5 -55h-191q-31 43 -46 84.5t-15 95.5q0 28 4 51.5t11.5 45.5t19 43t26.5 44h2155q15 -23 26.5 -44t19 -43t11.5 -45.5t4 -51.5
q0 -54 -15 -95.5t-46 -84.5h-50v-582q0 -36 3.5 -63.5t11 -50t18 -40.5t25.5 -36q-10 -50 -34 -87.5t-59 -63.5t-79 -39t-93 -13q-51 0 -101 14t-89.5 46t-64.5 83t-25 125v41z" />
    <glyph glyph-name="KaPha.dv" horiz-adv-x="2695" 
d="M1595 967h-57q-3 -11 -6 -40t-3 -55q0 -38 14 -68t52 -36v199zM1071 1004q-57 0 -88.5 -12t-31.5 -34q0 -14 7 -24q17 7 47.5 15t65.5 8q31 0 69 -6.5t62 -16.5q3 10 3 20q0 23 -31 36.5t-103 13.5zM561 664q-5 1 -15 1q-29 0 -45 -19.5t-16 -45.5t17.5 -43.5t46.5 -17.5
q8 0 12 1v124zM1593 301q20 3 52.5 11.5t63 22t53 32t22.5 40.5q0 14 -10 28q-26 -23 -59 -40.5t-69.5 -29.5t-76 -18.5t-78.5 -6.5q-133 0 -236.5 54.5t-160.5 153.5q-11 3 -24 4.5t-20 1.5q-26 0 -44 -9.5t-18 -26.5q0 -10 5 -23q10 3 24 4.5t43 1.5v-116q0 -36 3.5 -63.5
t10 -50t17 -40.5t25.5 -36q-10 -50 -34 -87.5t-58.5 -63.5t-77 -39t-90.5 -13q-60 0 -110.5 18.5t-86.5 53t-56.5 82t-20.5 106.5v45q-31 0 -41.5 -17.5t-10.5 -41.5q0 -15 2.5 -30t5.5 -26q-18 -8 -48.5 -14t-67.5 -6q-89 0 -163 31t-127 85.5t-82.5 130t-29.5 164.5
q0 80 26.5 156t78 135t126.5 95t173 36q57 0 113 -16t96 -45q7 10 7 22q0 15 -15.5 30t-44 27t-68 19.5t-88.5 7.5q-76 0 -138.5 -18t-119.5 -55h-191q-31 43 -46 84.5t-15 95.5q0 28 4 51.5t11.5 45.5t19 43t26.5 44h2723q15 -23 27 -44t19.5 -43t11.5 -45.5t4 -51.5
q0 -54 -15.5 -95.5t-46.5 -84.5h-164q-44 29 -107.5 51t-144.5 22q-47 0 -86 -7.5t-67 -20t-44 -28.5t-16 -32q0 -14 6 -22q45 32 94.5 48.5t112.5 16.5q91 0 163.5 -35.5t123.5 -93.5t78.5 -132t27.5 -150q0 -98 -28 -174.5t-75 -129t-108.5 -80.5t-128.5 -28
q-118 0 -183 63.5t-65 177.5q0 73 30 150q8 -5 16.5 -8.5t19.5 -3.5q20 0 32 15.5t12 39.5q0 28 -18.5 42.5t-42.5 14.5q-12 0 -24 -3q-14 -14 -28 -39.5t-25 -58.5t-18 -71.5t-7 -77.5q0 -47 9 -83t24 -64t33 -47.5t36 -33.5q-7 -32 -25 -66t-49.5 -62t-78 -46.5
t-110.5 -18.5q-51 0 -101 14t-89.5 46t-64.5 83t-25 125v41z" />
    <glyph glyph-name="KaMa.dv" horiz-adv-x="2350" 
d="M1847 967h-55v-188q30 -6 55 -14v202zM561 664q-5 1 -15 1q-29 0 -45 -19.5t-16 -45.5t17.5 -43.5t46.5 -17.5q8 0 12 1v124zM1126 1004q-71 0 -113 -14t-42 -36q0 -14 7 -24q24 11 60.5 19t87.5 8q42 0 78.5 -8.5t67.5 -21.5v-152q10 4 24.5 7.5t28.5 6.5v170
q-14 9 -37 17t-50 14.5t-56 10t-56 3.5zM852 -8q-59 0 -108.5 18.5t-85.5 53t-56 82t-20 106.5v45q-31 0 -41.5 -17.5t-10.5 -41.5q0 -15 2.5 -30t5.5 -26q-18 -8 -48.5 -14t-67.5 -6q-89 0 -163 31t-127 85.5t-82.5 130t-29.5 164.5q0 80 26.5 156t78 135t126.5 95t173 36
q57 0 113 -16t96 -45q7 10 7 22q0 15 -15.5 30t-44 27t-68 19.5t-88.5 7.5q-76 0 -138.5 -18t-119.5 -55h-191q-31 43 -46 84.5t-15 95.5q0 28 4 51.5t11.5 45.5t19 43t26.5 44h2399q15 -23 26.5 -44t19 -43t11.5 -45.5t4 -51.5q0 -54 -15 -95.5t-46 -84.5h-50v-582
q0 -36 3.5 -63.5t10.5 -50t17.5 -40.5t25.5 -36q-10 -50 -34 -87.5t-59 -63.5t-78.5 -39t-92.5 -13q-51 0 -99.5 14t-86.5 46t-61 83t-23 125v169q-11 13 -21.5 18t-33.5 5v-82q0 -50 -17.5 -97.5t-52 -84.5t-86.5 -59t-121 -22q-77 0 -149 29t-128 80t-90 120t-34 150
q0 28 6 57q-12 5 -31 8t-39 3q-26 0 -44 -9.5t-18 -26.5q0 -10 5 -23q10 3 24 4.5t43 1.5v-116q0 -36 3.5 -63.5t10 -50t17 -40.5t25.5 -36q-10 -50 -34 -87.5t-58.5 -63.5t-78.5 -39t-93 -13z" />
    <glyph glyph-name="KaYa.dv" horiz-adv-x="2269" 
d="M561 664q-5 1 -15 1q-29 0 -45 -19.5t-16 -45.5t17.5 -43.5t46.5 -17.5q8 0 12 1v124zM1698 956q12 -13 23.5 -31.5t20.5 -41t14.5 -47.5t5.5 -51q0 -52 -18 -90.5t-48.5 -64.5t-71.5 -39t-86 -13v-7q0 -18 12 -26.5t39 -8.5q37 0 77 15.5t73 46t54.5 77.5t21.5 110
q0 37 -9 71t-23 59.5t-30.5 40.5t-30.5 15q-6 0 -13.5 -4t-10.5 -11zM1319 830q4 -1 10 -1q25 0 25 32q0 29 -20.5 60.5t-55.5 58t-83.5 43.5t-103.5 17q-57 0 -91 -15t-34 -35q0 -10 4 -17q51 22 112 22q41 0 79.5 -11t70 -32t54.5 -51.5t33 -70.5zM852 -8
q-59 0 -108.5 18.5t-85.5 53t-56 82t-20 106.5v45q-31 0 -41.5 -17.5t-10.5 -41.5q0 -15 2.5 -30t5.5 -26q-18 -8 -48.5 -14t-67.5 -6q-89 0 -163 31t-127 85.5t-82.5 130t-29.5 164.5q0 80 26.5 156t78 135t126.5 95t173 36q57 0 113 -16t96 -45q7 10 7 22q0 15 -15.5 30
t-44 27t-68 19.5t-88.5 7.5q-76 0 -138.5 -18t-119.5 -55h-191q-31 43 -46 84.5t-15 95.5q0 28 4 51.5t11.5 45.5t19 43t26.5 44h2318q15 -23 26.5 -44t19 -43t11.5 -45.5t4 -51.5q0 -54 -15 -95.5t-46 -84.5h-50v-582q0 -36 3 -63.5t10 -50t17 -40.5t25 -36
q-10 -50 -34 -87.5t-59 -63.5t-78.5 -39t-92.5 -13q-41 0 -80.5 9t-74 28t-61.5 46.5t-42 65.5q33 6 66 20t59.5 31.5t43.5 37.5t17 38q0 19 -14 25q-54 -53 -142.5 -86t-215.5 -33q-105 0 -192 30.5t-150.5 84t-100.5 126t-42 155.5q-12 5 -22 5q-11 0 -17.5 -6.5
t-6.5 -26.5v-157q0 -36 3.5 -63.5t10.5 -50t17.5 -40.5t25.5 -36q-10 -50 -34 -87.5t-58.5 -63.5t-78.5 -39t-93 -13z" />
    <glyph glyph-name="KaLa.dv" horiz-adv-x="2457" 
d="M852 -8q-59 0 -108.5 18.5t-85.5 53t-56 82t-20 106.5v45q-31 0 -41.5 -17.5t-10.5 -41.5q0 -15 2.5 -30t5.5 -26q-18 -8 -48.5 -14t-67.5 -6q-89 0 -163 31t-127 85.5t-82.5 130t-29.5 164.5q0 80 26.5 156t78 135t126.5 95t173 36q57 0 113 -16t96 -45q7 10 7 22
q0 15 -15.5 30t-44 27t-68 19.5t-88.5 7.5q-76 0 -138.5 -18t-119.5 -55h-191q-31 43 -46 84.5t-15 95.5q0 28 4 51.5t11.5 45.5t19 43t26.5 44h2506q15 -23 26.5 -44t19 -43t11.5 -45.5t4 -51.5q0 -54 -15 -95.5t-46 -84.5h-50v-582q0 -36 3.5 -63.5t10.5 -50t17.5 -40.5
t25.5 -36q-10 -50 -34 -87.5t-59 -63.5t-78.5 -39t-92.5 -13q-51 0 -101 14t-90 46t-65 83t-25 125v90q19 9 40.5 24.5t38.5 34t28.5 39t11.5 39.5q0 11 -5.5 20.5t-19.5 12.5q-26 -72 -89 -109.5t-140 -37.5q-36 0 -71 9t-65.5 27.5t-54 46.5t-36.5 66q-14 -3 -21.5 -13.5
t-7.5 -23.5q0 -27 18 -54.5t51 -50.5t80 -37.5t105 -14.5q7 0 18 0.5t21.5 1t19.5 1t12 1.5q14 -32 17.5 -63.5t3.5 -57.5q0 -48 -18 -89t-52 -71t-84.5 -47.5t-114.5 -17.5q-118 0 -215 43t-166.5 116t-108 169t-38.5 202v14t1 15q-9 5 -26.5 7t-25.5 2q-26 0 -44 -9.5
t-18 -26.5q0 -10 5 -23q10 3 24 4.5t43 1.5v-116q0 -36 3.5 -63.5t10 -50t17 -40.5t25.5 -36q-10 -50 -34 -87.5t-58.5 -63.5t-78.5 -39t-93 -13zM1505 961q42 0 84 -12.5t80.5 -35.5t70 -57t51.5 -76h8q31 77 93 123.5t147 46.5q36 0 68 -5.5t53 -14.5q2 5 3 8t1 8
q0 17 -15.5 26.5t-36.5 14.5t-42 6.5t-31 1.5q-81 0 -144 -32.5t-103 -96.5q-21 29 -50 54.5t-66 44.5t-82.5 30t-98.5 11q-54 0 -110 -11.5t-100 -36.5q-16 9 -34.5 17t-42.5 14.5t-54 10.5t-68 4q-24 0 -44.5 -3.5t-36.5 -10.5t-25 -16t-9 -20q0 -14 7 -24q20 11 50 19
t58 8q42 0 73 -6t53.5 -15t39 -20t29.5 -21q45 31 100.5 48.5t123.5 17.5zM561 664q-5 1 -15 1q-29 0 -45 -19.5t-16 -45.5t17.5 -43.5t46.5 -17.5q8 0 12 1v124z" />
    <glyph glyph-name="KaVa.dv" horiz-adv-x="2130" 
d="M1629 168q12 2 37 7.5t50.5 15.5t45 24.5t19.5 33.5q0 13 -10 23q-13 -10 -37.5 -22t-57 -22t-71 -16.5t-78.5 -6.5q-84 0 -159 24.5t-133 69.5t-96.5 108.5t-49.5 141.5q-11 2 -22 3.5t-17 1.5q-26 0 -44 -9.5t-18 -26.5q0 -10 5 -23q10 3 24 4.5t43 1.5v-116
q0 -36 3.5 -63.5t10 -50t17 -40.5t25.5 -36q-10 -50 -34 -87.5t-58.5 -63.5t-77 -39t-90.5 -13q-60 0 -110.5 18.5t-86.5 53t-56.5 82t-20.5 106.5v45q-31 0 -41.5 -17.5t-10.5 -41.5q0 -15 2.5 -30t5.5 -26q-18 -8 -48.5 -14t-67.5 -6q-89 0 -163 31t-127 85.5t-82.5 130
t-29.5 164.5q0 80 26.5 156t78 135t126.5 95t173 36q57 0 113 -16t96 -45q7 10 7 22q0 15 -15.5 30t-44 27t-68 19.5t-88.5 7.5q-76 0 -138.5 -18t-119.5 -55h-191q-31 43 -46 84.5t-15 95.5q0 28 4 51.5t11.5 45.5t19 43t26.5 44h2179q15 -23 26.5 -44t19 -43t11.5 -45.5
t4 -51.5q0 -54 -15 -95.5t-46 -84.5h-50v-582q0 -36 3.5 -63.5t11 -50t18 -40.5t25.5 -36q-10 -50 -34 -87.5t-59 -63.5t-78.5 -39t-92.5 -13q-39 0 -80 9t-78.5 29.5t-66.5 54t-44 83.5zM1086 1004q-24 0 -44.5 -3.5t-36.5 -10.5t-25 -16t-9 -20q0 -14 7 -24q20 11 50 19
t58 8q54 0 89.5 -9t59.5 -22q59 45 133 69.5t159 24.5q60 0 108.5 -10t92.5 -29q5 7 5 15q0 18 -19 31t-49 21.5t-66 12.5t-70 4q-85 0 -162 -21.5t-142 -60.5q-25 8 -61 14.5t-78 6.5zM561 664q-5 1 -15 1q-29 0 -45 -19.5t-16 -45.5t17.5 -43.5t46.5 -17.5q8 0 12 1v124z
M1633 681q-5 1 -15 1q-26 0 -43.5 -18t-17.5 -47q0 -26 17.5 -43.5t46.5 -17.5q8 0 12 1v124z" />
    <glyph glyph-name="KaSha.dv" horiz-adv-x="2565" 
d="M1449 694q50 0 95.5 15.5t80.5 43t55.5 65.5t20.5 82q0 14 -2.5 28t-8.5 25.5t-15.5 18.5t-22.5 7q-25 0 -34 -14t-9 -29q0 -20 10.5 -38t24.5 -28q-5 -30 -21.5 -54t-42 -41t-58 -26.5t-69.5 -9.5q-61 0 -108.5 20t-80.5 54.5t-51.5 81t-20.5 98.5q-22 5 -48 8t-58 3
q-24 0 -44.5 -3.5t-36.5 -10.5t-25 -16t-9 -20q0 -14 7 -24q20 11 50 19t58 8q21 0 35.5 -1.5t30.5 -4.5q6 -56 29.5 -103t62 -81t90.5 -53.5t115 -19.5zM561 664q-5 1 -15 1q-29 0 -45 -19.5t-16 -45.5t17.5 -43.5t46.5 -17.5q8 0 12 1v124zM852 -8q-59 0 -108.5 18.5
t-85.5 53t-56 82t-20 106.5v45q-31 0 -41.5 -17.5t-10.5 -41.5q0 -15 2.5 -30t5.5 -26q-18 -8 -48.5 -14t-67.5 -6q-89 0 -163 31t-127 85.5t-82.5 130t-29.5 164.5q0 80 26.5 156t78 135t126.5 95t173 36q57 0 113 -16t96 -45q7 10 7 22q0 15 -15.5 30t-44 27t-68 19.5
t-88.5 7.5q-76 0 -138.5 -18t-119.5 -55h-191q-31 43 -46 84.5t-15 95.5q0 28 4 51.5t11.5 45.5t19 43t26.5 44h1238q27 -11 46 -36t28 -51q59 62 148 99t206 37q102 0 194 -34t161 -107q5 26 22 50.5t40 41.5h531q15 -23 26.5 -44t19 -43t11.5 -45.5t4 -51.5
q0 -54 -15 -95.5t-46 -84.5h-50v-582q0 -36 3.5 -63.5t10.5 -50t17.5 -40.5t25.5 -36q-10 -50 -34 -87.5t-58.5 -63.5t-78.5 -39t-93 -13q-31 0 -63 5.5t-62 17t-56 30t-46 44.5q10 24 17 61.5t7 79.5q-18 9 -41 24t-37 28v231q31 31 55 72t40 86t24 93t8 93q0 64 -13 87.5
t-37 23.5q-7 0 -11 -1q4 -27 6 -56t2 -60q0 -87 -34 -169.5t-95 -148t-144 -107t-182 -47.5q0 -24 15 -31.5t34 -7.5q36 0 76 10.5t82 32.5q44 -57 94 -101t105 -77q0 -48 -18 -96t-55 -86t-92 -62t-130 -24t-134 25t-110 73t-96.5 116.5t-93.5 155.5q-90 11 -146 55
t-79 107q-8 21 -14 37t-14.5 26.5t-20 16t-29.5 5.5q-26 0 -41 -9.5t-15 -26.5q0 -10 5 -23q10 3 24 4.5t43 1.5v-116q0 -36 3.5 -63.5t10 -50t17 -40.5t25.5 -36q-10 -50 -34 -87.5t-58.5 -63.5t-78.5 -39t-93 -13z" />
    <glyph glyph-name="KaSa.dv" horiz-adv-x="2505" 
d="M1926 797q15 -9 30 -9q20 0 35 9v170h-67q8 -20 11 -42.5t3 -45.5t-3 -45t-9 -37zM1203 982q-26 11 -57 16.5t-60 5.5q-24 0 -44.5 -3.5t-36.5 -10.5t-25 -16t-9 -20q0 -14 7 -24q20 11 50 19t58 8q21 0 55 -5t63 -20q60 33 124 33q51 0 90 -14.5t65 -37.5q5 4 8 10.5
t3 12.5q0 13 -12.5 26.5t-34.5 24t-52.5 17t-66.5 6.5q-30 0 -64.5 -6.5t-60.5 -21.5zM561 664q-5 1 -15 1q-29 0 -45 -19.5t-16 -45.5t17.5 -43.5t46.5 -17.5q8 0 12 1v124zM852 -8q-59 0 -108.5 18.5t-85.5 53t-56 82t-20 106.5v45q-31 0 -41.5 -17.5t-10.5 -41.5
q0 -15 2.5 -30t5.5 -26q-18 -8 -48.5 -14t-67.5 -6q-89 0 -163 31t-127 85.5t-82.5 130t-29.5 164.5q0 80 26.5 156t78 135t126.5 95t173 36q57 0 113 -16t96 -45q7 10 7 22q0 15 -15.5 30t-44 27t-68 19.5t-88.5 7.5q-76 0 -138.5 -18t-119.5 -55h-191q-31 43 -46 84.5
t-15 95.5q0 28 4 51.5t11.5 45.5t19 43t26.5 44h2554q15 -23 26.5 -44t19 -43t11.5 -45.5t4 -51.5q0 -54 -15 -95.5t-46 -84.5h-50v-582q0 -36 3.5 -63.5t10.5 -50t17.5 -40.5t25.5 -36q-10 -50 -34 -87.5t-59 -63.5t-78.5 -39t-92.5 -13q-33 0 -66.5 6t-64 19t-57.5 33.5
t-47 49.5q15 33 24.5 75.5t9.5 92.5q0 45 -8 78t-17 60q-7 -1 -20 -1h-18q-37 0 -73.5 6.5t-68.5 18.5t-58.5 29t-43.5 39q-51 -29 -104 -40.5t-119 -11.5q2 -23 14.5 -34t44.5 -11q21 0 43 3.5t43 8.5t39 12t31 13q45 -42 111.5 -62.5t138.5 -20.5q5 -16 8.5 -40t3.5 -44
q0 -146 -70 -218.5t-202 -72.5q-77 0 -146 29.5t-128 84t-107 132.5t-82 175q-45 12 -94.5 47t-82.5 89q-6 10 -26 13.5t-36 3.5q-26 0 -41 -9.5t-15 -26.5q0 -10 5 -23q10 3 24 4.5t43 1.5v-116q0 -36 3.5 -63.5t10 -50t17 -40.5t25.5 -36q-10 -50 -34 -87.5t-58.5 -63.5
t-78.5 -39t-93 -13z" />
    <glyph glyph-name="KhaKha.dv" horiz-adv-x="2741" 
d="M1443 967q-65 0 -120.5 -22.5t-97 -65t-65 -103.5t-23.5 -137q0 -27 4.5 -53.5t11.5 -49t15 -40.5t15 -29q-11 -13 -30 -25.5t-43 -22.5t-52.5 -16t-58.5 -6q-65 0 -114.5 22t-82.5 58t-50 82t-17 94q0 47 15.5 92t47 81.5t78 61.5t109.5 32q1 3 1 8q0 11 -9.5 20
t-30.5 9t-45 -7q-55 -16 -96 -45t-68.5 -67.5t-41 -85t-13.5 -97.5q0 -34 7 -72.5t26 -70.5q-42 -23 -90.5 -40t-98.5 -17q-9 0 -19 1t-20 3q0 -15 6.5 -23.5t17 -13.5t24 -6.5t26.5 -1.5q25 0 52.5 6.5t52.5 15.5t45 18.5t30 16.5q47 -59 110 -89t148 -30q64 0 116 19.5
t92 55.5q15 -18 37 -35.5t47.5 -33.5t53 -28.5t54.5 -19.5l44 -63q-36 -76 -92 -130.5t-122.5 -89.5t-139.5 -51.5t-144 -16.5q-131 0 -229.5 29t-177.5 82t-143.5 126.5t-126.5 163.5q-48 7 -93 31t-79.5 61.5t-55 85.5t-20.5 103q0 59 18 110.5t50.5 89.5t78.5 59.5
t103 21.5q34 0 61 -6t48 -16.5t37.5 -23.5t29.5 -28q19 8 30.5 24.5t11.5 37.5q0 20 -7.5 34.5t-15.5 22.5h-490q-31 43 -46 84.5t-15 95.5q0 28 4 51.5t11.5 45.5t19 43t26.5 44h2790q15 -23 26.5 -44t19 -43t11.5 -45.5t4 -51.5q0 -54 -15 -95.5t-46 -84.5h-50v-582
q0 -36 3.5 -63.5t11 -50t18 -40.5t25.5 -36q-10 -50 -34.5 -87.5t-59 -63.5t-78.5 -39t-93 -13q-55 0 -111 18t-93 54q17 25 28 56.5t11 63.5q0 23 -9.5 39.5t-32.5 18.5q0 -63 -21.5 -115t-62 -89.5t-99.5 -58t-134 -20.5q-94 0 -167.5 29t-137.5 82t-122 126.5t-120 163.5
q-48 7 -93 31t-79.5 61.5t-55 85.5t-20.5 103q0 59 18 110.5t50.5 89.5t78.5 59.5t103 21.5q34 0 61 -6t48 -16.5t37.5 -23.5t29.5 -28q19 8 30.5 24.5t11.5 37.5q0 20 -7.5 34.5t-15.5 22.5h-191zM1911 470q42 -55 108 -86.5t150 -31.5q19 0 44 2.5t46.5 8.5t36.5 16.5
t15 26.5q0 9 -4 17q-61 -26 -137 -26q-59 0 -107.5 19.5t-84 54.5t-55 82.5t-19.5 104.5q0 60 22.5 108.5t60.5 83t88.5 53.5t107.5 19q42 0 73.5 -5t58.5 -17q4 8 4 17q0 16 -15.5 26t-38 15t-48 7t-45.5 2q-67 0 -125.5 -23t-102 -64.5t-68.5 -98t-25 -123.5
q0 -82 33 -145q-23 -28 -71.5 -43t-106.5 -15q-10 0 -25 1t-25 3q-1 -2 -1 -4.5v-4.5q0 -14 8 -22t20 -11.5t26.5 -4.5t28.5 -1q60 0 104.5 19.5t68.5 39.5z" />
    <glyph glyph-name="KhaTa.dv" horiz-adv-x="2289" 
d="M1309 63q-25 -20 -66 -38.5t-90.5 -33t-103 -23.5t-104.5 -9q-131 0 -229.5 29t-177.5 82t-143.5 126.5t-126.5 163.5q-48 7 -93 31t-79.5 61.5t-55 85.5t-20.5 103q0 59 18 110.5t50.5 89.5t78.5 59.5t103 21.5q34 0 61 -6t48 -16.5t37.5 -23.5t29.5 -28q19 8 30.5 24.5
t11.5 37.5q0 20 -7.5 34.5t-15.5 22.5h-490q-31 43 -46 84.5t-15 95.5q0 28 4 51.5t11.5 45.5t19 43t26.5 44h2338q15 -23 26.5 -44t19 -43t11.5 -45.5t4 -51.5q0 -54 -15 -95.5t-46 -84.5h-50v-582q0 -36 3.5 -63.5t11 -50t18 -40.5t25.5 -36q-10 -50 -34 -87.5t-59 -63.5
t-78.5 -39t-92.5 -13q-36 0 -72 7t-69 22t-60.5 39t-46.5 58q15 21 24.5 50.5t9.5 61.5q0 38 -16 83.5t-51 105.5v167q-11 8 -24 12t-25 4q-23 0 -39 -17.5t-16 -49.5q0 -22 19 -58.5t41.5 -78t41.5 -84t19 -76.5q0 -59 -28 -104t-76.5 -76.5t-113.5 -49.5t-138 -24l-58 75
q-100 130 -154.5 257t-54.5 251q0 104 32.5 184t92.5 135t145 83t189 28q50 0 98.5 -6.5t87.5 -17.5q2 5 2 13q0 16 -16.5 27t-43 17.5t-60.5 9t-68 2.5q-138 0 -235 -38.5t-158.5 -104t-90 -151.5t-28.5 -182q0 -35 5.5 -72.5t15.5 -68.5q-26 -12 -61.5 -20t-77.5 -8
q-65 0 -114.5 22t-82.5 58t-50 82t-17 94q0 47 15.5 92t47 81.5t78 61.5t109.5 32q1 3 1 8q0 11 -9.5 20t-30.5 9t-45 -7q-55 -16 -96 -45t-68.5 -67.5t-41 -85t-13.5 -97.5q0 -34 7 -72.5t26 -70.5q-42 -23 -90.5 -40t-98.5 -17q-9 0 -19 1t-20 3q0 -15 6.5 -23.5t17 -13.5
t24 -6.5t26.5 -1.5q25 0 52.5 6.5t52.5 15.5t45 18.5t30 16.5q47 -59 110 -89t148 -30q87 0 147 26q12 -46 31.5 -91.5t42.5 -86.5t46.5 -76.5t42.5 -60.5z" />
    <glyph glyph-name="KhaNa.dv" horiz-adv-x="1572" 
d="M735 653q0 51 19 99t56 86t91 61t125 23q76 0 118 -22q6 4 6 12q0 26 -35.5 40.5t-101.5 14.5q-77 0 -138 -23.5t-104 -65.5t-66 -99t-23 -124q0 -52 14 -94.5t36.5 -76t51 -57.5t56.5 -38l-158 -115q-52 -38 -80.5 -75.5t-39.5 -77.5q-46 13 -88.5 39t-80 59t-69.5 69.5
t-56 71.5q-48 7 -93 31t-79.5 61.5t-55 85.5t-20.5 103q0 59 18 110.5t50.5 89.5t78.5 59.5t103 21.5q34 0 61 -6t48 -16.5t37.5 -23.5t29.5 -28q19 8 30.5 24.5t11.5 37.5q0 20 -7.5 34.5t-15.5 22.5h-490q-31 43 -46 84.5t-15 95.5q0 28 4 51.5t11.5 45.5t19 43t26.5 44
h1620q15 -23 27 -44t19.5 -43t11.5 -45.5t4 -51.5q0 -54 -15.5 -95.5t-46.5 -84.5h-49v-582q0 -36 3.5 -63.5t11 -50t18 -40.5t25.5 -36q-10 -50 -34.5 -87.5t-59 -63.5t-78.5 -39t-93 -13q-41 0 -78.5 9t-70 26.5t-57.5 44.5t-40 63q35 30 59 50.5t39 34.5t21.5 23t6.5 17
q0 11 -5.5 16.5t-12.5 10.5l-210 -175q20 -12 33 -26.5t20.5 -30t10 -31t2.5 -28.5q0 -33 -14.5 -61.5t-41.5 -49t-66 -32.5t-88 -12q-51 0 -96.5 16t-79 45.5t-53 71t-19.5 91.5q0 31 11 57.5t29 49.5t41.5 42.5t47.5 37.5l158 115q15 -5 35.5 -9t37.5 -4q26 0 39 9.5
t13 21.5q0 6 -3 12q-59 0 -109 19t-86.5 52.5t-57 80.5t-20.5 104z" />
    <glyph glyph-name="KhaMa.dv" horiz-adv-x="2422" 
d="M1919 967h-55v-148q30 -6 55 -14v162zM1344 841q-94 -31 -149 -109.5t-55 -205.5q0 -17 3 -40t9 -45q-20 -21 -56.5 -32.5t-96.5 -11.5q-65 0 -114.5 22t-82.5 58t-50 82t-17 94q0 51 18 99t54.5 86t91 61t127.5 23q17 0 35.5 -2t33.5 -6q3 4 3 12q0 19 -17.5 30
t-54.5 11q-86 0 -150.5 -25t-107.5 -67.5t-64.5 -99t-21.5 -120.5q0 -34 7 -72.5t26 -70.5q-42 -23 -90.5 -40t-98.5 -17q-9 0 -19 1t-20 3q0 -15 6.5 -23.5t17 -13.5t24 -6.5t26.5 -1.5q25 0 52.5 6.5t52.5 15.5t45 18.5t30 16.5q47 -59 110 -89t148 -30q48 0 88.5 11
t75.5 31q33 -81 79 -134t97 -88q-33 -50 -80 -89t-103 -67t-119.5 -42.5t-127.5 -14.5q-126 0 -218.5 29t-165.5 82t-134 126.5t-123 163.5q-48 7 -93 31t-79.5 61.5t-55 85.5t-20.5 103q0 59 18 110.5t50.5 89.5t78.5 59.5t103 21.5q34 0 61 -6t48 -16.5t37.5 -23.5
t29.5 -28q19 8 30.5 24.5t11.5 37.5q0 20 -7.5 34.5t-15.5 22.5h-490q-31 43 -46 84.5t-15 95.5q0 28 4 51.5t11.5 45.5t19 43t26.5 44h2471q15 -23 26.5 -44t19 -43t11.5 -45.5t4 -51.5q0 -54 -15 -95.5t-46 -84.5h-50v-582q0 -36 3.5 -63.5t10.5 -50t17.5 -40.5t25.5 -36
q-10 -50 -34 -87.5t-59 -63.5t-78.5 -39t-92.5 -13q-51 0 -99.5 14t-86.5 46t-61 83t-23 125v209q-11 13 -21.5 18t-33.5 5v-82q0 -50 -17.5 -97.5t-52 -84.5t-86.5 -59t-121 -22q-77 0 -148.5 29t-126 80t-87.5 120t-33 150q0 221 205 285v166q0 20 -10.5 37.5t-42.5 17.5
v-191z" />
    <glyph glyph-name="KhaYa.dv" horiz-adv-x="2297" 
d="M1026 922q43 0 78.5 -8t63.5 -21t49 -29.5t35 -34.5q29 6 44.5 24t15.5 43q0 27 -14 44t-37 27h-235q-94 0 -159.5 -30t-106.5 -75.5t-59.5 -100.5t-18.5 -106q0 -34 7 -72.5t26 -70.5q-42 -23 -90.5 -40t-98.5 -17q-9 0 -19 1t-20 3q0 -15 6.5 -23.5t17 -13.5t24 -6.5
t26.5 -1.5q25 0 52.5 6.5t52.5 15.5t45 18.5t30 16.5q47 -59 110 -89t148 -30q76 0 136 26q53 -82 123 -131.5t139 -76.5q-41 -53 -94 -93t-112.5 -66t-122.5 -39t-123 -13q-131 0 -229.5 29t-177.5 82t-143.5 126.5t-126.5 163.5q-48 7 -93 31t-79.5 61.5t-55 85.5
t-20.5 103q0 59 18 110.5t50.5 89.5t78.5 59.5t103 21.5q34 0 61 -6t48 -16.5t37.5 -23.5t29.5 -28q19 8 30.5 24.5t11.5 37.5q0 20 -7.5 34.5t-15.5 22.5h-490q-31 43 -46 84.5t-15 95.5q0 28 4 51.5t11.5 45.5t19 43t26.5 44h2346q15 -23 26.5 -44t19 -43t11.5 -45.5
t4 -51.5q0 -54 -15 -95.5t-46 -84.5h-50v-582q0 -36 3 -63.5t10 -50t17 -40.5t25 -36q-10 -50 -34 -87.5t-59 -63.5t-78.5 -39t-92.5 -13q-41 0 -80.5 9t-74 28t-61.5 46.5t-42 65.5q33 6 66 20t59.5 31.5t43.5 37.5t17 38q0 19 -14 25q-27 -26 -59.5 -48t-73.5 -38
t-91.5 -24.5t-113.5 -8.5q-100 0 -193.5 30.5t-166 89t-118 143.5t-49.5 194q-26 -2 -35.5 -14.5t-9.5 -35.5q0 -21 4 -42.5t11 -42.5t15.5 -39.5t16.5 -33.5q-28 -13 -58.5 -16.5t-55.5 -3.5q-65 0 -114.5 21t-82.5 55.5t-50 80t-17 93.5q0 51 18 99t54.5 86t91 61
t127.5 23zM1726 956q12 -13 23.5 -31.5t20.5 -41t14.5 -47.5t5.5 -51q0 -52 -18 -90.5t-48.5 -64.5t-71.5 -39t-86 -13v-7q0 -18 12 -26.5t39 -8.5q37 0 77 15.5t73 46t54.5 77.5t21.5 110q0 37 -9 71t-23 59.5t-30.5 40.5t-30.5 15q-6 0 -13.5 -4t-10.5 -11z" />
    <glyph glyph-name="KhaVa.dv" horiz-adv-x="2223" 
d="M999 397q-65 0 -114.5 22t-82.5 58t-50 82t-17 94q0 47 15.5 92t47 81.5t78 61.5t109.5 32q1 3 1 8q0 11 -9.5 20t-30.5 9t-45 -7q-55 -16 -96 -45t-68.5 -67.5t-41 -85t-13.5 -97.5q0 -34 7 -72.5t26 -70.5q-42 -23 -90.5 -40t-98.5 -17q-9 0 -19 1t-20 3
q0 -15 6.5 -23.5t17 -13.5t24 -6.5t26.5 -1.5q25 0 52.5 6.5t52.5 15.5t45 18.5t30 16.5q47 -59 110 -89t148 -30q66 0 106.5 14t66.5 28q40 -71 101 -120t133 -78q-35 -62 -85 -107t-110 -74t-128 -42.5t-138 -13.5q-131 0 -229.5 29t-177.5 82t-143.5 126.5t-126.5 163.5
q-48 7 -93 31t-79.5 61.5t-55 85.5t-20.5 103q0 59 18 110.5t50.5 89.5t78.5 59.5t103 21.5q34 0 61 -6t48 -16.5t37.5 -23.5t29.5 -28q19 8 30.5 24.5t11.5 37.5q0 20 -7.5 34.5t-15.5 22.5h-490q-31 43 -46 84.5t-15 95.5q0 28 4 51.5t11.5 45.5t19 43t26.5 44h2272
q15 -23 26.5 -44t19 -43t11.5 -45.5t4 -51.5q0 -54 -15 -95.5t-46 -84.5h-50v-582q0 -36 3.5 -63.5t11 -50t18 -40.5t25.5 -36q-10 -50 -34 -87.5t-59 -63.5t-78.5 -39t-92.5 -13q-39 0 -80 9t-78.5 29.5t-66.5 54t-44 83.5q12 2 36.5 8.5t49 17t43.5 25.5t19 34q0 11 -6 19
q-13 -10 -37.5 -22t-57 -22t-71 -16.5t-78.5 -6.5q-92 0 -173 29t-141 82.5t-94.5 128.5t-34.5 167t34.5 167.5t94.5 129t141 82.5t173 29q60 0 108.5 -10t92.5 -29q5 7 5 15q0 18 -19 31t-49 21.5t-66 12.5t-70 4q-113 0 -205.5 -33.5t-157.5 -93.5t-100.5 -143t-35.5 -183
q0 -54 9.5 -99t22.5 -73q-20 -16 -58.5 -29.5t-97.5 -13.5zM1666 681q-5 1 -15 1q-26 0 -43.5 -18t-17.5 -47q0 -26 17.5 -43.5t46.5 -17.5q8 0 12 1v124z" />
    <glyph glyph-name="KhaSha.dv" horiz-adv-x="2560" 
d="M1299 1244q54 67 140.5 101.5t196.5 34.5q102 0 194 -34t161 -107q5 26 22 50.5t40 41.5h531q15 -23 26.5 -44t19 -43t11.5 -45.5t4 -51.5q0 -54 -15 -95.5t-46 -84.5h-50v-582q0 -36 3.5 -63.5t10.5 -50t17.5 -40.5t25.5 -36q-10 -50 -34 -87.5t-58.5 -63.5t-78.5 -39
t-93 -13q-31 0 -63 5.5t-62 17t-56 30t-46 44.5q10 24 17 61.5t7 79.5q-18 9 -41 24t-37 28v231q31 31 55 72t40 86t24 93t8 93q0 64 -13 87.5t-37 23.5q-7 0 -11 -1q4 -27 6 -56t2 -60q0 -87 -34 -169.5t-95 -148t-144 -107t-182 -47.5q0 -24 15 -31.5t34 -7.5
q36 0 76 10.5t82 32.5q44 -57 94 -101t105 -77q0 -48 -18 -96t-55 -86t-92 -62t-130 -24t-134 25t-110 73t-96.5 116.5t-93.5 155.5q-60 7 -104.5 30.5t-73.5 58t-43.5 78t-14.5 91.5q0 20 3 41q-14 -3 -23 -10.5t-14.5 -18t-7.5 -22.5t-2 -24q0 -25 8.5 -57t21.5 -58
q-23 -8 -43.5 -10.5t-49.5 -2.5q-65 0 -114.5 21t-82.5 55.5t-50 80t-17 93.5q0 51 18 99t54.5 86t91 61t127.5 23q44 0 76 -7t59 -18q14 -49 41.5 -86.5t64.5 -63.5t82 -39.5t95 -13.5t95.5 15.5t80.5 43t55.5 65.5t20.5 82q0 14 -2.5 28t-8.5 25.5t-15.5 18.5t-22.5 7
q-25 0 -34 -14t-9 -29q0 -20 10.5 -38t24.5 -28q-5 -30 -21.5 -54t-42 -41t-58 -26.5t-69.5 -9.5q-53 0 -95 15t-74 41.5t-53 62t-31 77.5q-37 13 -80.5 22.5t-88.5 9.5q-94 0 -159.5 -30t-106.5 -75.5t-59.5 -100.5t-18.5 -106q0 -34 7 -72.5t26 -70.5q-42 -23 -90.5 -40
t-98.5 -17q-9 0 -19 1t-20 3q0 -15 6.5 -23.5t17 -13.5t24 -6.5t26.5 -1.5q25 0 52.5 6.5t52.5 15.5t45 18.5t30 16.5q47 -59 110 -89t148 -30q37 0 67.5 5.5t51.5 15.5q32 -45 82 -71.5t113 -40.5q19 -35 34.5 -61t38.5 -57q-33 -45 -83.5 -79.5t-110 -58t-123.5 -35
t-124 -11.5q-131 0 -229.5 29t-177.5 82t-143.5 126.5t-126.5 163.5q-48 7 -93 31t-79.5 61.5t-55 85.5t-20.5 103q0 59 18 110.5t50.5 89.5t78.5 59.5t103 21.5q34 0 61 -6t48 -16.5t37.5 -23.5t29.5 -28q19 8 30.5 24.5t11.5 37.5q0 20 -7.5 34.5t-15.5 22.5h-490
q-31 43 -46 84.5t-15 95.5q0 28 4 51.5t11.5 45.5t19 43t26.5 44h1250q27 -11 46 -36t28 -51z" />
    <glyph glyph-name="KhaSa.dv" horiz-adv-x="2629" 
d="M1870 -20q-77 0 -146 29.5t-128 84t-107 132.5t-82 175q-35 9 -73.5 33t-70.5 59.5t-53 82t-21 102.5q0 72 24 126t62 89.5t85 53.5t92 18q51 0 90 -14.5t65 -37.5q5 4 8 10.5t3 12.5q0 13 -12.5 26.5t-34.5 24t-52.5 17t-66.5 6.5h-13q-59 -2 -113.5 -24t-96.5 -64
t-67 -103t-25 -141q0 -33 6 -62.5t15 -54t20.5 -44.5t22.5 -33q-12 -16 -31.5 -31.5t-45 -28t-57 -20t-68.5 -7.5q-65 0 -114.5 22t-82.5 58t-50 82t-17 94q0 47 15.5 92t47 81.5t78 61.5t109.5 32q1 3 1 8q0 11 -9.5 20t-30.5 9t-45 -7q-55 -16 -96 -45t-68.5 -67.5
t-41 -85t-13.5 -97.5q0 -34 7 -72.5t26 -70.5q-42 -23 -90.5 -40t-98.5 -17q-9 0 -19 1t-20 3q0 -15 6.5 -23.5t17 -13.5t24 -6.5t26.5 -1.5q25 0 52.5 6.5t52.5 15.5t45 18.5t30 16.5q47 -59 110 -89t148 -30q69 0 131 25.5t102 67.5q29 -29 64 -50t73 -38q12 -35 28.5 -69
t34.5 -64q-34 -64 -88.5 -113.5t-120.5 -83t-138 -51t-140 -17.5q-131 0 -229.5 29t-177.5 82t-143.5 126.5t-126.5 163.5q-48 7 -93 31t-79.5 61.5t-55 85.5t-20.5 103q0 59 18 110.5t50.5 89.5t78.5 59.5t103 21.5q34 0 61 -6t48 -16.5t37.5 -23.5t29.5 -28
q19 8 30.5 24.5t11.5 37.5q0 20 -7.5 34.5t-15.5 22.5h-490q-31 43 -46 84.5t-15 95.5q0 28 4 51.5t11.5 45.5t19 43t26.5 44h2678q15 -23 26.5 -44t19 -43t11.5 -45.5t4 -51.5q0 -54 -15 -95.5t-46 -84.5h-50v-582q0 -36 3.5 -63.5t10.5 -50t17.5 -40.5t25.5 -36
q-10 -50 -34 -87.5t-59 -63.5t-78.5 -39t-92.5 -13q-33 0 -66.5 6t-64 19t-57.5 33.5t-47 49.5q15 33 24.5 75.5t9.5 92.5q0 45 -8 78t-17 60q-7 -1 -20 -1h-18q-37 0 -73.5 6.5t-68.5 18.5t-58.5 29t-43.5 39q-51 -29 -104 -40.5t-119 -11.5q2 -23 14.5 -34t44.5 -11
q21 0 43 3.5t43 8.5t39 12t31 13q45 -42 111.5 -62.5t138.5 -20.5q5 -16 8.5 -40t3.5 -44q0 -146 -70 -218.5t-202 -72.5zM2050 797q15 -9 30 -9q20 0 35 9v170h-67q8 -20 11 -42.5t3 -45.5t-3 -45t-9 -37z" />
    <glyph glyph-name="GaGa.dv" horiz-adv-x="1697" 
d="M1263 659q0 82 -16.5 147t-40 110t-49 68.5t-44.5 23.5t-30 -15q25 -23 48 -56.5t40.5 -75.5t28 -93t10.5 -109q0 -71 -18.5 -139.5t-60 -123.5t-109 -88.5t-164.5 -33.5q-70 0 -127 21.5t-97 58.5t-62 86t-22 105q0 41 9 80t24 71q13 -6 27.5 -9t25.5 -3q45 0 73 29.5
t28 95.5q0 37 -11 69t-27.5 56t-36 37.5t-36.5 13.5q-10 0 -19 -5t-13 -13q47 -31 68.5 -76t21.5 -82q0 -80 -53 -80q-18 0 -38.5 7.5t-31.5 15.5q-32 -48 -48 -101t-16 -107q0 -52 15.5 -99.5t50.5 -90.5q-42 -38 -99.5 -59t-135.5 -21q-70 0 -127 21.5t-97 58.5t-62 86
t-22 105q0 41 9 80t24 71q13 -6 27.5 -9t25.5 -3q45 0 73 29.5t28 95.5q0 26 -6.5 50.5t-17 45.5t-23.5 37t-25 25h-160q-31 43 -46 84.5t-15 95.5q0 28 4 51.5t11.5 45.5t19 43t26.5 44h1746q15 -23 26.5 -44t19 -43t11.5 -45.5t4 -51.5q0 -54 -15 -95.5t-46 -84.5h-50
v-582q0 -36 3.5 -63.5t10.5 -50t17.5 -40.5t25.5 -36q-10 -50 -34 -87.5t-59 -63.5t-78.5 -39t-92.5 -13q-51 0 -101 14t-90 46t-65 83t-25 125v109q16 24 30.5 53.5t25.5 65t17.5 78t6.5 93.5z" />
    <glyph glyph-name="GaGha.dv" horiz-adv-x="1637" 
d="M20 545q0 41 9 80t24 71q13 -6 27.5 -9t25.5 -3q45 0 73 29.5t28 95.5q0 26 -6.5 50.5t-17 45.5t-23.5 37t-25 25h-160q-31 43 -46 84.5t-15 95.5q0 28 4 51.5t11.5 45.5t19 43t26.5 44h1686q15 -23 26.5 -44t19 -43t11.5 -45.5t4 -51.5q0 -54 -15 -95.5t-46 -84.5h-50
v-582q0 -36 3.5 -63.5t11 -50t18 -40.5t25.5 -36q-10 -50 -34 -87.5t-59 -63.5t-78.5 -39t-92.5 -13q-40 0 -80 9t-75.5 28t-63.5 49t-44 72q19 3 43 12t48.5 22t48.5 29t42.5 33t29.5 35t11 34q0 19 -20 27q-54 -78 -149.5 -123t-221.5 -45q-81 0 -149.5 20t-118 57.5
t-77 91t-27.5 120.5q0 32 9 62.5t24.5 56t37 44.5t45.5 28q27 -9 64.5 -16.5t89.5 -7.5q75 0 113.5 13t38.5 35q0 11 -7 18q-23 -7 -57.5 -13.5t-85.5 -6.5q-54 0 -101.5 14t-82 42.5t-54.5 70.5t-20 98q0 24 6 51t18.5 52.5t32.5 48t48 37.5q-2 11 -9 16t-16 5
q-23 0 -46.5 -18t-43 -47t-31.5 -67t-12 -78q0 -69 28.5 -126t79.5 -88q-62 -40 -92 -101.5t-30 -122.5q0 -55 20 -103q-42 -39 -101 -62.5t-140 -23.5q-70 0 -127 21.5t-97 58.5t-62 86t-22 105z" />
    <glyph glyph-name="GaJa.dv" horiz-adv-x="1978" 
d="M20 545q0 41 9 80t24 71q13 -6 27.5 -9t25.5 -3q45 0 73 29.5t28 95.5q0 26 -6.5 50.5t-17 45.5t-23.5 37t-25 25h-160q-31 43 -46 84.5t-15 95.5q0 28 4 51.5t11.5 45.5t19 43t26.5 44h2027q15 -23 26.5 -44t19 -43t11.5 -45.5t4 -51.5q0 -54 -15 -95.5t-46 -84.5h-50
v-582q0 -36 3.5 -63.5t10.5 -50t17.5 -40.5t25.5 -36q-10 -50 -34 -87.5t-59 -63.5t-78.5 -39t-92.5 -13q-40 0 -79.5 8.5t-74.5 27.5t-62.5 48.5t-43.5 70.5q69 63 98 128t29 137q0 33 -6.5 61.5t-17 49t-25 32.5t-29.5 12q-6 0 -10.5 -0.5t-9.5 -3.5q21 -32 33 -70.5
t12 -80.5q0 -57 -23.5 -113t-71 -101t-120 -72.5t-170.5 -27.5q-120 0 -222 37t-177 99.5t-117 146t-42 176.5q0 62 21 112.5t58.5 86.5t90 55.5t115.5 19.5q-3 -15 -3.5 -27.5t-0.5 -25.5q0 -65 19.5 -118t54 -91t81.5 -59t103 -21q55 0 55 41q-64 0 -112.5 18t-81.5 51
t-49.5 79.5t-16.5 103.5q0 15 2 34t6.5 38t11 37t15.5 31h555q0 24 -12.5 34.5t-57.5 10.5h-892q27 -32 49.5 -75t36.5 -98q-51 -48 -76 -110.5t-25 -131.5q0 -42 9 -83t27 -77q-42 -54 -108 -86t-163 -32q-70 0 -127 21.5t-97 58.5t-62 86t-22 105z" />
    </font>
</defs>
</svg>
