<?xml version="1.0" standalone="no"?>
<!DOCTYPE svg PUBLIC "-//W3C//DTD SVG 1.1//EN" "http://www.w3.org/Graphics/SVG/1.1/DTD/svg11.dtd" >
<svg xmlns="http://www.w3.org/2000/svg" xmlns:xlink="http://www.w3.org/1999/xlink" version="1.1">
<metadata>
Created by FontForge 20190801 at Fri Jan  6 15:27:55 2012
 By Glenn
Copyright (c) 2011 Rodrigo Fuenzalida (hello@rfuenzalida.com), with Reserved Font Name "Titan One"
</metadata>
<defs>
<font id="TitanOne" horiz-adv-x="680" >
  <font-face 
    font-family="Titan One"
    font-weight="400"
    font-stretch="normal"
    units-per-em="1000"
    panose-1="2 0 0 0 0 0 0 0 0 0"
    ascent="800"
    descent="-200"
    x-height="580"
    cap-height="711"
    bbox="-70 -175 1384 970"
    underline-thickness="50"
    underline-position="-100"
    unicode-range="U+0020-FB04"
  />
<missing-glyph horiz-adv-x="300" 
 />
    <glyph glyph-name=".notdef" horiz-adv-x="300" 
 />
    <glyph glyph-name=".null" horiz-adv-x="0" 
 />
    <glyph glyph-name="nonmarkingreturn" horiz-adv-x="333" 
 />
    <glyph glyph-name="space" unicode=" " horiz-adv-x="225" 
 />
    <glyph glyph-name="exclam" unicode="!" horiz-adv-x="332" 
d="M88 717.5q58 6.5 136 6.5t78 -23q0 -29 -18 -482q-1 -25 -36 -45t-99 -20q-87 0 -91 47l-27 499q-1 11 57 17.5zM258.5 -61.5q-32.5 -19.5 -91 -19.5t-89.5 17.5t-31 72.5q0 90 122 90t122 -90q0 -51 -32.5 -70.5z" />
    <glyph glyph-name="quotedbl" unicode="&#x22;" horiz-adv-x="522" 
d="M49 762.5q19 17.5 78 17.5t81.5 -16t22.5 -74q0 -253 -100.5 -253t-100.5 253q0 55 19 72.5zM310 762.5q19 17.5 78 17.5t81.5 -16t22.5 -74q0 -253 -100.5 -253t-100.5 253q0 55 19 72.5z" />
    <glyph glyph-name="numbersign" unicode="#" horiz-adv-x="814" 
d="M105 0q-22 0 -31.5 13.5t-9.5 28.5t19 88h-46q-11 0 -19 18.5t-8 53t22 70t43 35.5h56l26 96h-62q-11 0 -19 18.5t-8 53t22 70t43 35.5h72q8 32 21 77q15 54 154 54q52 0 52 -35q0 -6 -24 -96h105q8 32 21 77q15 54 154 54q52 0 52 -35q0 -6 -24 -96h62q26 0 26 -65
q0 -33 -21 -72.5t-40 -39.5h-75l-26 -96h78q26 0 26 -65q0 -33 -21 -72.5t-40 -39.5h-90l-23 -86q-12 -44 -159 -44q-22 0 -31.5 13.5t-9.5 28.5t19 88h-104l-23 -86q-12 -44 -159 -44zM360 403l-26 -96h105l26 96h-105z" />
    <glyph glyph-name="dollar" unicode="$" horiz-adv-x="664" 
d="M235 716q0 23 38 43.5t100 20.5q48 0 62 -20q10 -14 10 -26v-30q113 -12 157 -42q18 -12 18 -23q0 -52 -24.5 -112t-47.5 -60q-4 0 -26 9q-66 29 -109.5 29t-59 -8t-15.5 -24.5t22 -25.5t54.5 -15.5t71 -21.5t71.5 -36t55 -62.5t22 -84.5t-8 -71t-27.5 -58t-59 -53.5
t-94.5 -34.5v-16q0 -23 -38 -43.5t-100 -20.5q-48 0 -62 20q-10 14 -10 26v30q-65 6 -113 19q-92 25 -92 54q0 56 16 116.5t38 60.5q4 0 83 -27t119 -27t52 8.5t12 24.5t-22 27.5t-55 18.5t-71.5 22t-71.5 35t-55 59t-22 91q0 184 182 215v13z" />
    <glyph glyph-name="percent" unicode="%" horiz-adv-x="975" 
d="M353 11.5q-21 -11.5 -70 -11.5t-49 26q0 2 2 8l354 626q9 16 16.5 24.5t27.5 17t50 8.5q62 0 62 -27q0 -5 -2 -9l-358 -630q-12 -21 -33 -32.5zM224 329q-44 0 -76.5 8t-60.5 28q-57 41 -57 159q0 115 60 154q51 33 134 33q82 0 135 -33q60 -39 60 -154q0 -119 -57 -159
q-52 -36 -138 -36zM224 426q8 0 13 6q13 14 13 71t-4 78.5t-9 26.5t-13 5q-26 0 -26 -93.5t26 -93.5zM750 -10q-44 0 -76.5 8t-60.5 28q-57 41 -57 159q0 115 60 153q51 34 134 34q82 0 135 -34q60 -38 60 -153q0 -119 -57 -159q-52 -36 -138 -36zM750 87q8 0 13 5
q13 15 13 72t-4 78.5t-9 26.5t-13 5q-26 0 -26 -93.5t26 -93.5z" />
    <glyph glyph-name="ampersand" unicode="&#x26;" horiz-adv-x="776" 
d="M447 438h269q45 0 45 -76q0 -36 -8.5 -65.5t-18.5 -29.5h-50v-29q0 -131 -9 -144q-71 -103 -349 -103q-138 0 -217 52t-79 162q0 89 58 144q13 13 31 24q-3 2 -8.5 5t-19.5 16t-25 29q-27 42 -27 101q0 187 288 187q81 0 139 -11.5t82.5 -27.5t24.5 -33q0 -28 -19 -95
t-42 -67q-5 0 -58 16t-96.5 16t-43.5 -30q0 -26 38 -33q39 -8 95 -8zM423 200l1 11v55q-110 -2 -110 -43q0 -30 54 -30q25 0 55 7z" />
    <glyph glyph-name="quotesingle" unicode="'" horiz-adv-x="261" 
d="M49 762.5q19 17.5 78 17.5t81.5 -16t22.5 -74q0 -253 -100.5 -253t-100.5 253q0 55 19 72.5z" />
    <glyph glyph-name="parenleft" unicode="(" horiz-adv-x="450" 
d="M388 -149q-353 0 -353 444q0 216 91 320.5t252 104.5q42 0 42 -49q0 -40 -7.5 -74.5t-24.5 -34.5q-42 0 -64 -71t-22 -201.5t23 -205t56 -74.5q20 0 28.5 -22t8.5 -62t-6 -57.5t-24 -17.5z" />
    <glyph glyph-name="parenright" unicode=")" horiz-adv-x="450" 
d="M62 -149q-18 0 -24 17.5t-6 57.5q0 84 37 84q33 0 56 74.5t23 205t-22 201.5t-64 71q-17 0 -24.5 34.5t-7.5 74.5q0 49 42 49q161 0 252 -104.5t91 -320.5q0 -444 -353 -444z" />
    <glyph glyph-name="asterisk" unicode="*" horiz-adv-x="558" 
d="M15 549q0 33 17 69.5t47 36.5q21 0 53.5 -16.5t75.5 -48.5q-7 96 -7 129.5t14.5 47t61 13.5t63.5 -12.5t17 -57.5q0 -16 -7 -64t-10 -56q11 7 18 11.5t17.5 10.5l21 12t22.5 12t23 10q22 10 39 10q29 0 45.5 -36t16.5 -70q0 -24 -42.5 -41t-84.5 -23l-42 -5
q106 -87 106 -128q0 -24 -36.5 -52.5t-61.5 -28.5q-39 0 -103 149q-21 -59 -51 -103t-53.5 -44t-59 26.5t-35.5 47t23.5 52.5t70.5 80h-4.5t-40 6t-75 23t-39.5 40z" />
    <glyph glyph-name="plus" unicode="+" horiz-adv-x="553" 
d="M253 31q-65 0 -65 26v133h-131q-11 0 -19 18.5t-8 53t22 70t43 35.5h93v112q0 19 33.5 32t70 13t55 -8t18.5 -19v-130h132q26 0 26 -65q0 -33 -21 -72.5t-40 -39.5h-97v-118q0 -17 -37.5 -29t-74.5 -12z" />
    <glyph glyph-name="comma" unicode="," horiz-adv-x="293" 
d="M47 48q-7 20 -7 57t21 61.5t85 24.5t85.5 -25t21.5 -76q0 -243 -164 -243q-15 0 -29.5 36t-14.5 57t7 21q20 0 33 9.5t16 19.5l3 10q-40 0 -57 48z" />
    <glyph glyph-name="hyphen" unicode="-" horiz-adv-x="553" 
d="M462 190h-405q-11 0 -19 18.5t-8 53t22 70t43 35.5h402q26 0 26 -65q0 -33 -21 -72.5t-40 -39.5z" />
    <glyph glyph-name="period" unicode="." horiz-adv-x="293" 
d="M226 13q-27 -22 -79.5 -22t-79.5 22t-27 81t27.5 78.5t79.5 19.5t79 -19.5t27 -78.5t-27 -81z" />
    <glyph glyph-name="slash" unicode="/" horiz-adv-x="418" 
d="M66 0q-22 0 -31.5 13.5t-9.5 28.5t162 615q15 54 154 54q52 0 52 -35q0 -6 -168 -632q-12 -44 -159 -44z" />
    <glyph glyph-name="zero" unicode="0" horiz-adv-x="726" 
d="M363 -9q-83 0 -139.5 14.5t-102.5 53.5q-91 77 -91 301q0 216 95 293q47 38 103 53t134.5 15t135 -15t103.5 -53q95 -77 95 -293q0 -224 -91 -301q-46 -39 -102.5 -53.5t-139.5 -14.5zM342 161q8 -13 21.5 -13t21.5 13.5t13 59.5t5 131t-5 132.5t-13 63t-21.5 15.5
t-21.5 -15q-20 -34 -20 -196q0 -161 20 -191z" />
    <glyph glyph-name="one" unicode="1" horiz-adv-x="453" 
d="M352 6.5q-61 -6.5 -122 -6.5t-78.5 5.5t-17.5 18.5v432h-102q-17 0 -17 73t17 132q5 19 106 35t155 16t72 -4t27 -9.5t14 -12.5q7 -11 7 -21v-641q0 -11 -61 -17.5z" />
    <glyph glyph-name="two" unicode="2" horiz-adv-x="614" 
d="M99 451q-28 0 -48.5 66t-20.5 127q0 14 31 31.5t94 31.5t137 14q287 0 287 -201q0 -56 -24 -105t-53 -78.5t-68 -54.5q-45 -28 -86 -44h200q6 0 13 -5.5t15 -32t8 -66t-5 -66t-12 -38.5q-15 -27 -27 -29l-5 -1h-438q-63 0 -63 197q0 22 130 121q49 36 90 79t41 70
q0 30 -45 30t-94.5 -23t-56.5 -23z" />
    <glyph glyph-name="three" unicode="3" horiz-adv-x="609" 
d="M570 534q0 -101 -80 -151q11 -5 28.5 -24t29.5 -38q31 -49 31 -116q0 -110 -79 -162t-217 -52q-68 0 -128.5 11.5t-92.5 26t-32 26.5q0 55 12 97t27 59.5t29 17.5q4 0 53 -18t96.5 -18t47.5 30q0 41 -101 44q-40 1 -44 2q-21 7 -21 88t21 89q4 2 44 2q101 2 101 41
q0 30 -43.5 30t-96.5 -21t-58 -21q-23 0 -42 67t-19 95q0 26 58 53q64 29 188 29q288 0 288 -187z" />
    <glyph glyph-name="four" unicode="4" horiz-adv-x="618" 
d="M517 6.5q-61 -6.5 -122 -6.5t-78.5 5.5t-17.5 18.5v123h-250q-34 0 -34 166q0 19 81.5 163t112.5 189q12 17 90 32t152 15q127 0 127 -47v-641q0 -11 -61 -17.5zM316 303l1 218l-70 -218h69z" />
    <glyph glyph-name="five" unicode="5" horiz-adv-x="611" 
d="M30 67q0 65 18 117.5t40 52.5q6 0 64 -24.5t86 -24.5t43.5 9t15.5 24q0 55 -203 65q-35 2 -35 214t33 212h442q26 0 26 -80q0 -48 -9.5 -105.5t-32.5 -57.5h-280v-45q193 0 276 -62q67 -51 67 -150t-74 -160t-237 -61q-106 0 -173 24t-67 52z" />
    <glyph glyph-name="six" unicode="6" horiz-adv-x="662" 
d="M357 458q39 13 88.5 13t84 -14.5t54 -36.5t30.5 -55q18 -54 18 -110t-4.5 -84.5t-22 -63.5t-47 -59t-84 -40.5t-127.5 -16.5q-157 0 -237 86.5t-80 280t75 279t228 85.5q105 0 182.5 -15.5t77.5 -36.5q0 -26 -19.5 -91t-35.5 -65q-5 0 -30 5q-68 14 -124 14t-72 -27.5
t-16 -80.5q4 5 13 12.5t48 20.5zM331 347q-29 0 -29 -107.5t29 -107.5q31 0 31 107.5t-31 107.5z" />
    <glyph glyph-name="seven" unicode="7" horiz-adv-x="539" 
d="M327.5 6.5q-63.5 -6.5 -125.5 -6.5t-79 5.5t-17 18.5q0 21 135 446h-205q-14 0 -22 48q-4 23 -4 61t10.5 85.5t33.5 47.5h402q49 0 62 -22q11 -17 11 -44.5t-23 -132.5t-59.5 -258t-52.5 -231q-3 -11 -66.5 -17.5z" />
    <glyph glyph-name="eight" unicode="8" horiz-adv-x="659" 
d="M629 224q0 -233 -299.5 -233t-299.5 233q0 105 48 158q-13 15 -24 52.5t-11 74.5q0 115 73 163.5t213 48.5t213.5 -48.5t73.5 -163.5q0 -37 -11 -74.5t-24 -52.5q48 -53 48 -158zM305 151.5q8 -15.5 24.5 -15.5t24 15.5t7.5 65.5t-7.5 66.5t-24 16.5t-24.5 -16.5
t-8 -66.5t8 -65.5zM330 456q31 0 31 59.5t-31 59.5q-33 0 -33 -59.5t33 -59.5z" />
    <glyph glyph-name="nine" unicode="9" horiz-adv-x="662" 
d="M205 252q-86 0 -130.5 62.5t-44.5 164.5q0 86 56 157q30 39 89 62.5t140 23.5q159 0 238 -82t79 -281t-74 -283.5t-229 -84.5q-108 0 -184 13.5t-76 34.5q0 25 19.5 90t35.5 65q5 0 30 -4q73 -10 126.5 -10t69.5 28.5t16 75.5q-14 -11 -61.5 -21.5t-99.5 -10.5zM331 376
q29 0 29 102.5t-29 102.5q-31 0 -31 -102.5t31 -102.5z" />
    <glyph glyph-name="colon" unicode=":" horiz-adv-x="293" 
d="M226 337.5q-27 -21.5 -79.5 -21.5t-79.5 21.5t-27 81t27.5 79t79.5 19.5t79 -19.5t27 -79t-27 -81zM226 13q-27 -22 -79.5 -22t-79.5 22t-27 81t27.5 78.5t79.5 19.5t79 -19.5t27 -78.5t-27 -81z" />
    <glyph glyph-name="semicolon" unicode=";" horiz-adv-x="293" 
d="M226 337.5q-27 -21.5 -79.5 -21.5t-79.5 21.5t-27 81t27.5 79t79.5 19.5t79 -19.5t27 -79t-27 -81zM61 166.5q21 24.5 85 24.5t85.5 -25t21.5 -76q0 -243 -164 -243q-15 0 -29.5 36t-14.5 57t7 21q26 0 42 18q10 11 10 21q-22 2 -42 20q-9 9 -15.5 28.5t-6.5 56.5
t21 61.5z" />
    <glyph glyph-name="less" unicode="&#x3c;" horiz-adv-x="362" 
d="M215 288q117 -240 117 -264t-52 -24q-83 0 -111.5 9t-42.5 30.5t-62.5 124t-48.5 120.5t24.5 70t55 110.5t34.5 68t15.5 20t45.5 19t88 8.5t54 -35q0 -21 -117 -257z" />
    <glyph glyph-name="equal" unicode="=" horiz-adv-x="553" 
d="M462 317h-405q-11 0 -19 18.5t-8 53t22 70t43 35.5h402q26 0 26 -65q0 -33 -21 -72.5t-40 -39.5zM462 74h-405q-11 0 -19 18.5t-8 53t22 70t43 35.5h402q26 0 26 -65q0 -33 -21 -72.5t-40 -39.5z" />
    <glyph glyph-name="greater" unicode="&#x3e;" horiz-adv-x="362" 
d="M30 545q0 35 122 35q60 0 84 -54q1 -3 32 -62q79 -152 79 -175t-48.5 -125.5t-62 -123.5t-31.5 -30.5t-62.5 -9.5t-72.5 3.5t-34 8.5t-6 14t29 75t88 187q-117 235 -117 257z" />
    <glyph glyph-name="question" unicode="?" horiz-adv-x="599" 
d="M89 441q-28 0 -48.5 66.5t-20.5 127.5q0 14 31 31.5t94 31t137 13.5q287 0 287 -200q0 -57 -23.5 -98.5t-56.5 -60.5q-67 -37 -123 -38l-23 -1q0 -11 5 -35t5 -42q0 -16 -54.5 -24.5t-94.5 -8.5q-61 0 -75.5 30t-14.5 127q0 23 86 34q32 5 58.5 21t26.5 44t-45 28
t-94.5 -23t-56.5 -23zM246 169q68 0 104 -17.5t36 -72.5q0 -90 -140 -90t-140 90t140 90z" />
    <glyph glyph-name="at" unicode="@" horiz-adv-x="786" 
d="M431 235h-4q-15 -53 -80 -53q-133 0 -133 104q0 33 18.5 56t47.5 34q50 17 105 17h19q0 14 -8.5 26t-29 12t-52 -14t-33.5 -14q-10 0 -28 31.5t-18 54.5q0 20 69 33q39 8 89.5 8t83.5 -11.5t49 -26.5t25 -39.5t10 -39t1 -36.5v-110h32q29 0 38.5 24.5t9.5 78.5t-9.5 95
t-34.5 77q-49 71 -203 71q-155 0 -204 -69q-25 -36 -33.5 -77t-8.5 -97.5t3 -87.5t16.5 -70t38.5 -61t73 -37.5t116 -15.5q11 0 21 -24.5t10 -46.5q0 -37 -31 -37q-141 0 -214 42q-68 38 -102 110q-40 84 -40 217q0 95 21.5 163.5t53.5 106t82.5 59t95 27t104.5 5.5
q177 0 263 -83.5t86 -232.5q0 -162 -84 -200q-28 -13 -49.5 -15.5t-53.5 -2.5q-128 0 -128 49zM405 279v68q-15 0 -24.5 -13t-9.5 -29q0 -38 17 -38t17 12z" />
    <glyph glyph-name="A" unicode="A" horiz-adv-x="738" 
d="M285.5 11q-28.5 -11 -102.5 -11t-123.5 13.5t-49.5 34.5q0 24 89 306.5t102 325.5q5 13 80.5 21.5t162 8.5t95.5 -30q189 -628 189 -638t-12 -20q-28 -22 -111 -22q-177 0 -181 42l-7 65h-96l-5 -56q-2 -29 -30.5 -40zM396 297l-15 180h-22l-17 -180h54z" />
    <glyph glyph-name="B" unicode="B" horiz-adv-x="705" 
d="M343 0h-219q-50 0 -67 7t-17 22v643q0 48 289 48q166 0 229 -32q64 -33 82 -84q10 -30 10 -70q0 -78 -26.5 -117t-57.5 -44q47 -10 78 -46t31 -122q0 -100 -61 -148q-53 -42 -162 -53q-46 -4 -109 -4zM344 436q51 0 51 68q0 34 -13.5 50.5t-30.5 16.5h-32v-135h25z
M319 149h25q51 0 51 68q0 34 -13.5 50.5t-30.5 16.5h-32v-135z" />
    <glyph glyph-name="C" unicode="C" horiz-adv-x="656" 
d="M459.5 -5.5q-41.5 -3.5 -81 -3.5t-61 2t-56.5 10t-64 22t-61.5 41t-54.5 64q-51 86 -51 222q0 91 28.5 161t69 108t92.5 61q84 38 169 38q122 0 175 -20q24 -9 43 -28t19 -55t-17.5 -91t-50.5 -55q-10 0 -74 16t-87 16q-35 0 -59.5 -39t-24.5 -111t21.5 -112t56.5 -40
q25 0 90.5 20.5t76.5 20.5q31 0 48.5 -57t17.5 -92t-21.5 -55.5t-61.5 -30t-81.5 -13z" />
    <glyph glyph-name="D" unicode="D" horiz-adv-x="731" 
d="M359 0h-236q-49 0 -66 7t-17 23v631q0 26 22 37.5t76 11.5h225q192 0 265 -75.5t73 -274.5t-76 -279.5t-266 -80.5zM351 561q-24 0 -32 -4v-404l38 -4q30 0 45.5 48t15.5 166t-16 158t-51 40z" />
    <glyph glyph-name="E" unicode="E" horiz-adv-x="610" 
d="M547 0h-424q-49 0 -66 7t-17 22v633q0 26 23.5 37t84.5 11h402q21 0 21 -69.5t-9 -106t-24 -36.5q-65 0 -219 13v-67q148 6 193 6q27 0 27 -63t-10.5 -95.5t-28.5 -32.5l-181 4v-64q174 13 240 13q21 0 21 -70t-9 -106t-24 -36z" />
    <glyph glyph-name="F" unicode="F" horiz-adv-x="586" 
d="M254.5 7q-64.5 -7 -122.5 -7t-75 7t-17 22v634q0 26 26 37t98 11h371q21 0 21 -75.5t-9.5 -115t-24.5 -39.5l-203 10v-68q133 6 178 6q15 0 20.5 -16t5.5 -61.5t-10 -87t-28 -41.5l-166 6v-200q0 -15 -64.5 -22z" />
    <glyph glyph-name="G" unicode="G" horiz-adv-x="674" 
d="M257 -8q-34 0 -63 7t-60.5 29.5t-53.5 59.5q-50 84 -50 253q0 93 25 164t63 110.5t91 64.5t99 32.5t98 7.5q120 0 169 -20.5t49 -78.5q0 -46 -17 -99.5t-50 -53.5q-8 0 -68 15.5t-90 15.5q-86 0 -86 -145q0 -73 20 -108.5t50 -39.5v90q0 25 51 46t98 21t68.5 -6t29.5 -17
q14 -18 14 -32v-277q0 -13 -52.5 -21t-109 -8t-71.5 5.5t-17 30.5l-7 59h-8q-7 -43 -35.5 -74t-86.5 -31z" />
    <glyph glyph-name="H" unicode="H" horiz-adv-x="727" 
d="M258.5 8q-60.5 -8 -122 -8t-79 7t-17.5 22v615q0 25 58 45.5t126 20.5q95 0 95 -45v-220h89v199q0 25 58.5 45.5t126.5 20.5q94 0 94 -45v-636q0 -13 -61 -21t-122 -8t-78.5 7t-17.5 22v229h-89v-229q0 -13 -60.5 -21z" />
    <glyph glyph-name="I" unicode="I" horiz-adv-x="359" 
d="M258 6.5q-61 -6.5 -122.5 -6.5t-78.5 5.5t-17 18.5v622q0 22 58 43.5t130 21.5q64 0 84 -27q7 -10 7 -20v-640q0 -11 -61 -17.5z" />
    <glyph glyph-name="J" unicode="J" horiz-adv-x="410" 
d="M281.5 -121.5q-37.5 -13.5 -85 -13.5t-69.5 1.5t-46.5 8t-38.5 17.5q-32 27 -32 84q0 82 42 82q13 0 20 4q19 9 19 62v521q0 22 57.5 43.5t122.5 21.5q99 0 99 -47v-553q0 -69 -6 -110t-25.5 -74.5t-57 -47z" />
    <glyph glyph-name="K" unicode="K" horiz-adv-x="709" 
d="M257.5 10q-61.5 -8 -122.5 -8t-78 7t-17 22v613q0 26 56.5 46t130.5 20q61 0 79 -24q13 -17 13 -31v-165h8q0 5 30 83q57 147 83 147q49 0 138 -29q43 -14 74 -40.5t31 -58.5q0 -20 -40.5 -77.5t-122.5 -153.5q19 -20 48 -51t77.5 -92.5t48.5 -87.5t-47 -60.5t-100 -56
t-79 -21.5q-17 0 -46.5 51.5t-71.5 154.5l-31 -37v-130q0 -13 -61.5 -21z" />
    <glyph glyph-name="L" unicode="L" horiz-adv-x="544" 
d="M124 0q-50 0 -67 5.5t-17 18.5v622q0 22 58 43.5t130 21.5q64 0 84 -27q7 -10 7 -20v-443q122 8 184 8q21 0 21 -66.5t-9 -114.5t-24 -48h-367z" />
    <glyph glyph-name="M" unicode="M" horiz-adv-x="880" 
d="M194 0h-72.5t-64.5 7t-17 22v631q0 23 61.5 36.5t131.5 13.5t100 -18t35 -38l68 -264h9l64 252q7 27 65.5 47.5t128.5 20.5t103.5 -11t33.5 -28v-642q0 -13 -57 -21t-139 -8t-82 29q0 79 17 281h-9l-52 -261q-3 -15 -24.5 -22t-64.5 -7t-52.5 6t-12.5 23l-54 261h-9
q18 -206 18 -281q0 -26 -125 -29z" />
    <glyph glyph-name="N" unicode="N" horiz-adv-x="734" 
d="M257.5 8q-61.5 -8 -122.5 -8t-78 7t-17 22v614q0 25 57.5 46t130.5 21q26 0 39 -2q34 -5 48 -43l96 -258h4v236q0 25 57 46t130 21q63 0 80 -24q12 -17 12 -31v-626q0 -13 -61.5 -21t-135 -8t-80.5 19l-93 246h-5v-236q0 -13 -61.5 -21z" />
    <glyph glyph-name="O" unicode="O" horiz-adv-x="756" 
d="M378 -9q-83 0 -142.5 15.5t-109.5 55.5q-101 79 -101 303q0 94 27.5 164t76.5 111q96 80 249 80q79 0 137.5 -14t110.5 -51q105 -76 105 -290q0 -192 -95 -283t-258 -91zM378 148q21 0 33 14.5t20 62t8 132.5t-8 131t-20 60t-33 14t-33 -14t-20 -60t-8 -131t8 -132.5
t20 -62t33 -14.5z" />
    <glyph glyph-name="P" unicode="P" horiz-adv-x="707" 
d="M318 29q0 -13 -61 -21t-122 -8t-78 7t-17 22v643q0 48 288 48q174 0 230 -24q68 -28 92 -76q32 -62 32 -159q0 -133 -46 -193q-33 -44 -66 -57t-54.5 -18.5t-53.5 -8.5q-44 -4 -120 -4l-24 1v-152zM319 347h24q19 0 30 5.5t19.5 30t8.5 69t-9.5 68t-19 28t-22.5 4.5h-31
v-205z" />
    <glyph glyph-name="Q" unicode="Q" horiz-adv-x="746" 
d="M20 373q0 92 27.5 160t76.5 108q97 79 249 79q63 0 111.5 -8t96 -30.5t77.5 -59.5q68 -83 68 -236t-45 -241.5t-126 -120.5q45 -74 45 -86q0 -22 -22 -37.5t-56 -22.5q-63 -13 -106 -13t-59.5 8.5t-27.5 34.5l-43 92q-122 0 -194 90.5t-72 282.5zM373 148q31 0 46 47.5
t15 150t-8 147t-20 57t-33 12.5t-33 -12q-28 -30 -28 -168.5t15 -186t46 -47.5z" />
    <glyph glyph-name="R" unicode="R" horiz-adv-x="716" 
d="M320 29q0 -13 -61 -21t-122.5 -8t-79 7t-17.5 22v643q0 26 65.5 37t165.5 11t129.5 -0.5t69.5 -3.5t63.5 -10t52 -18t44.5 -28.5t31 -41.5q27 -43 27 -122.5t-26.5 -134t-70.5 -82.5q115 -181 115 -230t-197 -49q-57 0 -79 5t-28 22l-65 206l-17 1v-205zM320 388h26
q58 0 58 90q0 46 -15.5 65t-35.5 19h-33v-174z" />
    <glyph glyph-name="S" unicode="S" horiz-adv-x="654" 
d="M465.5 5.5q-53.5 -14.5 -138 -14.5t-160.5 14t-109 31t-33 33q0 56 16 116.5t38 60.5q4 0 83 -27t119 -27t52 8.5t12 24.5t-22 28.5t-55 22t-71.5 27.5t-71.5 40t-55 62.5t-22 92.5q0 222 265 222q99 0 171 -12.5t101.5 -28t29.5 -30.5q0 -52 -24.5 -112t-47.5 -60
q-4 0 -26 9q-66 29 -109.5 29t-59 -8t-15.5 -24.5t22 -27t54.5 -19t71 -26t71.5 -41t55 -66.5t22 -100q0 -60 -31 -109q-19 -30 -49 -52t-83.5 -36.5z" />
    <glyph glyph-name="T" unicode="T" horiz-adv-x="651" 
d="M403.5 6.5q-61.5 -6.5 -123 -6.5t-78 5.5t-16.5 18.5v430h-139q-11 0 -19 28t-8 83.5t12 100t32 44.5h541q15 0 20.5 -28t5.5 -81t-11 -100t-30 -47h-125v-430q0 -11 -61.5 -17.5z" />
    <glyph glyph-name="U" unicode="U" horiz-adv-x="726" 
d="M603.5 63.5q-82.5 -71.5 -239 -71.5t-240.5 71.5t-84 215.5v367q0 25 56.5 45t131.5 20q60 0 78 -23q13 -18 13 -31v-298q0 -113 8.5 -149.5t36.5 -36.5t35.5 35.5t7.5 151.5v286q0 25 56.5 45t130.5 20q63 0 80 -23q12 -18 12 -31v-378q0 -144 -82.5 -215.5z" />
    <glyph glyph-name="V" unicode="V" horiz-adv-x="727" 
d="M10 639q0 12 26 28.5t73.5 29.5t103.5 13t82 -16t28 -35l35 -364h14l31 355q3 28 68 44t121 16t83 -9.5t34.5 -19.5t7.5 -18.5t-14.5 -47t-30.5 -82.5q-53 -140 -179 -502q-11 -31 -172 -31q-50 0 -66 7t-22 24q-59 170 -141 386t-82 222z" />
    <glyph glyph-name="W" unicode="W" horiz-adv-x="1016" 
d="M315 0q-48 0 -63 7t-21 24l-221 610q0 19 71.5 44t144.5 25q94 0 100 -59l34 -317h14l28 317q5 59 135 59q50 0 67 -13.5t19 -35.5l33 -327h14l26 317q3 29 68.5 44t130 15t88 -19t23.5 -40l-214 -620q-11 -31 -148 -31q-41 0 -55 7t-19 24l-52 174h-12l-53 -174
q-9 -31 -138 -31z" />
    <glyph glyph-name="X" unicode="X" horiz-adv-x="721" 
d="M209 0q-73 0 -136 12.5t-63 36.5q0 14 41.5 91.5t125.5 219.5q-150 282 -150 296q0 22 63.5 38t116 16t86 -16t36.5 -32l39 -177h5l28 175q1 7 24 19t61.5 21.5t89 9.5t84.5 -12t34 -45q0 -17 -36 -99t-109 -228q162 -263 162 -277q0 -49 -119 -49q-177 0 -190 48
l-39 139h-6l-32 -139q-11 -48 -116 -48z" />
    <glyph glyph-name="Y" unicode="Y" horiz-adv-x="698" 
d="M426 8q-61 -8 -121.5 -8t-78.5 6.5t-18 22.5v174q-198 405 -198 440q0 21 67 44t141 23q95 0 101 -56l27 -269h11l19 262q2 28 71 45.5t131 17.5t86 -18t24 -38q0 -19 -201 -451v-174q0 -13 -61 -21z" />
    <glyph glyph-name="Z" unicode="Z" horiz-adv-x="627" 
d="M582 507q0 -18 -53 -83t-159 -176h211q11 0 18.5 -29.5t7.5 -83t-12.5 -94.5t-33.5 -41h-487q-29 0 -41.5 58t-12.5 126q0 15 56 82t169 187h-194q-27 0 -27 87q0 61 13 115.5t33 54.5h461q51 0 51 -203z" />
    <glyph glyph-name="bracketleft" unicode="[" horiz-adv-x="470" 
d="M134 -143q-50 0 -67 5.5t-17 18.5v805q0 13 17 18.5t67 5.5h253q15 0 24 -28t9 -64q0 -67 -21 -67q-55 0 -105 8v-551q43 8 105 8q21 0 21 -67q0 -36 -9 -64t-24 -28h-253z" />
    <glyph glyph-name="backslash" unicode="\" horiz-adv-x="368" 
d="M0 676q0 35 132 35q28 0 48 -16t26 -38q162 -600 162 -613q0 -44 -121 -44q-28 0 -51 12.5t-28 31.5q-168 626 -168 632z" />
    <glyph glyph-name="bracketright" unicode="]" horiz-adv-x="470" 
d="M336 -143h-253q-15 0 -24 28t-9 64q0 67 21 67q55 0 105 -8v551q-43 -8 -105 -8q-21 0 -21 67q0 36 9 64t24 28h253q50 0 67 -5.5t17 -18.5v-805q0 -13 -17 -18.5t-67 -5.5z" />
    <glyph glyph-name="asciicircum" unicode="^" horiz-adv-x="440" 
d="M113.5 745.5q73.5 34.5 109 34.5t106.5 -34t71 -46q0 -35 -11 -62.5t-29 -27.5q-14 0 -140 39q-127 -39 -140 -39q-18 0 -29 27.5t-11 62.5q0 11 73.5 45.5z" />
    <glyph glyph-name="underscore" unicode="_" horiz-adv-x="593" 
d="M537 -145h-495q-27 0 -27 51q0 36 14.5 60t35.5 24h487q8 0 13 -3q13 -8 13 -46t-11.5 -62t-29.5 -24z" />
    <glyph glyph-name="grave" unicode="`" horiz-adv-x="380" 
d="M120 780q61 0 135.5 -29.5t74.5 -61t-15.5 -55.5t-34.5 -24q-57 0 -143.5 11.5t-86.5 26.5q0 56 23.5 94t46.5 38z" />
    <glyph glyph-name="a" unicode="a" horiz-adv-x="664" 
d="M225 -9q-91 0 -143 43q-21 18 -36.5 53t-15.5 82t22.5 82t54.5 54t75 31q65 17 143 17h33q0 41 -28 58q-12 7 -36.5 7t-59 -13t-57.5 -26.5t-31 -13.5q-18 0 -49 47.5t-31 86.5q0 13 37 34t104.5 38.5t131.5 17.5t110.5 -10.5t76 -25.5t50 -40t31 -45t15.5 -52
q7 -37 7 -91v-301q0 -11 -53.5 -17.5t-106 -6.5t-68 3t-18.5 7t-5 14l-8 57h-8q-25 -90 -137 -90zM359 157v117q-26 0 -42 -22t-16 -50q0 -66 30 -66q13 0 20.5 6.5t7.5 14.5z" />
    <glyph glyph-name="b" unicode="b" horiz-adv-x="668" 
d="M90 10q-55 14 -55 42v634q0 22 59 43t124 21q88 0 88 -46v-113l-11 -69h8q6 9 22.5 22t34.5 22q44 23 97 23t83.5 -13.5t49 -35t29.5 -54.5q19 -57 19 -142q0 -141 -32 -216t-104 -106t-203 -31t-209 19zM305 138h31q32 0 32 153.5t-33 153.5h-30v-307z" />
    <glyph glyph-name="c" unicode="c" horiz-adv-x="550" 
d="M164 17q-24 11 -51.5 33t-45.5 52q-42 72 -42 188q0 72 23 128.5t56 87.5t76 51q69 32 138 32q116 0 161.5 -18t45.5 -61t-15.5 -91.5t-40.5 -48.5q-8 0 -48.5 17t-70 17t-45 -23.5t-15.5 -91t14 -92t43.5 -24.5t73.5 20t49 20q19 0 36.5 -45t17.5 -80q0 -54 -56 -75.5
t-151.5 -21.5t-152.5 26z" />
    <glyph glyph-name="d" unicode="d" horiz-adv-x="664" 
d="M223 -9q-37 0 -69 11t-52.5 27t-35.5 43t-23 51.5t-12 60.5q-6 53 -6 121q0 139 51 211.5t140 72.5q91 0 132 -43q9 -10 14 -24h8l-12 69v125q0 22 56 43t121 21q68 0 87 -26q7 -10 7 -20v-710q0 -11 -55.5 -17.5t-107 -6.5t-66 3.5t-18 7.5t-4.5 13l-8 57h-8
q-9 -35 -36 -59q-34 -31 -103 -31zM335 137q16 0 24 20v267q0 10 -10.5 15.5t-18.5 5.5q-34 0 -34 -156q0 -83 9.5 -117.5t29.5 -34.5z" />
    <glyph glyph-name="e" unicode="e" horiz-adv-x="640" 
d="M298 226q0 -65 62 -65q36 0 94 24.5t61 24.5q19 0 50 -57t31 -84q0 -39 -80 -59t-156.5 -20t-128 12t-84 30.5t-57 45.5t-36.5 51.5t-19 54.5q-10 44 -10 91q0 182 95 251q47 35 105 49t137 14q253 0 253 -176q0 -187 -284 -187h-33zM296 372v-66q29 0 47.5 23t18.5 56
q0 60 -31 60q-35 0 -35 -73z" />
    <glyph glyph-name="f" unicode="f" horiz-adv-x="559" 
d="M358 330v-306q0 -11 -55 -17.5t-135 -6.5t-80 24v306h-51q-27 0 -27 91q0 36 12.5 67.5t32.5 31.5h33q0 67 19.5 117t47 76.5t66.5 42.5q58 24 132 24q186 0 186 -61q0 -66 -13 -108t-35 -42q-9 0 -33.5 6.5t-46.5 6.5q-58 0 -58 -40q0 -10 5 -22h133q27 0 27 -88
q0 -39 -11.5 -70.5t-30.5 -31.5h-118z" />
    <glyph glyph-name="g" unicode="g" horiz-adv-x="659" 
d="M369 66v58h-8q-4 -5 -14 -12.5t-49.5 -20.5t-89 -13t-83.5 15t-53 37.5t-30 60.5q-17 59 -17 160q0 116 49 178q19 25 56.5 42.5t80.5 17.5t71 -9.5t42 -22.5q28 -28 32 -49l1 -9h8l9 39q10 42 158 42q66 0 80 -20q8 -12 10 -22.5t2 -31.5v-419q0 -118 -77 -180t-226 -62
q-158 0 -215 31q-25 14 -25 29q0 24 19.5 81t36.5 57q4 0 28 -7q76 -20 123.5 -20t64 12t16.5 38zM329 192q11 0 18 8t7 18v206q-4 21 -22 21q-38 0 -38 -125q0 -58 9.5 -93t25.5 -35z" />
    <glyph glyph-name="h" unicode="h" horiz-adv-x="665" 
d="M360 24v278q0 75 -6 109t-29 34q-20 0 -20 -27v-394q0 -11 -58 -17.5t-119 -6.5t-77 5.5t-16 18.5v693q0 21 58 42t122 21q67 0 85 -25q6 -8 6 -17v-147l-11 -69h7q14 21 44 37q56 30 122 30q95 0 128.5 -60.5t33.5 -196.5v-308q0 -11 -58.5 -17.5t-119 -6.5t-76.5 5.5
t-16 18.5z" />
    <glyph glyph-name="i" unicode="i" horiz-adv-x="350" 
d="M310 517v-493q0 -11 -57.5 -17.5t-118 -6.5t-78 5.5t-17.5 18.5v475q0 22 56.5 43.5t123.5 21.5q91 0 91 -47zM174 780q66 0 103.5 -19.5t37.5 -70.5q0 -90 -140 -90t-140 90t139 90z" />
    <glyph glyph-name="j" unicode="j" horiz-adv-x="400" 
d="M304.5 -94q-55.5 -61 -152.5 -61t-124.5 18.5t-27.5 83t25 67.5q35 5 49.5 18t14.5 48v419q0 22 56.5 43.5t122.5 21.5q92 0 92 -47v-427q0 -123 -55.5 -184zM225 600q-140 0 -140 91q0 51 37.5 70t104.5 19t102.5 -17.5t35.5 -69.5q0 -93 -140 -93z" />
    <glyph glyph-name="k" unicode="k" horiz-adv-x="636" 
d="M249 6.5q-56 -6.5 -117 -6.5t-79 5.5t-18 18.5v692q0 22 56.5 43t121.5 21q92 0 92 -46v-374h13q48 229 71 229q58 0 140 -27t82 -60q0 -24 -40 -92t-83 -111q143 -171 143 -203q0 -30 -91 -73t-128 -43q-18 0 -38 43.5t-43 130.5l-26 -31v-99q0 -11 -56 -17.5z" />
    <glyph glyph-name="l" unicode="l" horiz-adv-x="340" 
d="M305 734v-710q0 -11 -57 -17.5t-117.5 -6.5t-78 5.5t-17.5 18.5v692q0 22 56.5 43t121.5 21q92 0 92 -46z" />
    <glyph glyph-name="m" unicode="m" horiz-adv-x="981" 
d="M946 330v-306q0 -11 -56.5 -17.5t-117 -6.5t-78.5 5.5t-18 18.5v277q0 143 -29 143q-7 0 -14 -6t-7 -21v-393q0 -11 -56.5 -17.5t-117.5 -6.5t-78.5 5.5t-17.5 18.5v277q0 111 -14 133q-7 10 -18 10q-19 0 -19 -27v-393q0 -11 -57 -17.5t-117.5 -6.5t-78 5.5t-17.5 18.5
v493q0 21 57.5 42t121.5 21t72 -37l9 -44h7q29 57 96 81q28 9 72 9q88 0 128 -90q13 30 65 60t115 30q99 0 133.5 -61.5t34.5 -197.5z" />
    <glyph glyph-name="n" unicode="n" horiz-adv-x="673" 
d="M638 332v-308q0 -11 -57 -17.5t-117.5 -6.5t-78 5.5t-17.5 18.5v318q0 45 -3.5 59t-6.5 25q-7 19 -25 19q-28 0 -28 -27v-394q0 -11 -56.5 -17.5t-117 -6.5t-78.5 5.5t-18 18.5v493q0 21 57.5 42t121.5 21t72 -37l9 -44h7q29 58 100 81q29 9 64 9q101 0 136.5 -60.5
t35.5 -196.5z" />
    <glyph glyph-name="o" unicode="o" horiz-adv-x="685" 
d="M343 -9q-75 0 -129 13t-98 46q-91 66 -91 246q0 160 93 229q87 64 225 64q59 0 101 -5.5t85.5 -23.5t70 -49t43.5 -85.5t17 -129.5q0 -152 -86 -228.5t-231 -76.5zM322.5 143q7.5 -7 20 -7t20 7t14 43t6.5 90.5t-2.5 84t-6 45.5t-9.5 25q-9 13 -21.5 13t-20.5 -7.5
t-15 -44t-7 -103.5t7 -103t14.5 -43z" />
    <glyph glyph-name="p" unicode="p" horiz-adv-x="663" 
d="M35 -121v636q0 21 56 43t121 22q30 0 47 -7t21 -14t15 -60h8q2 9 18 28t32.5 31t47.5 21.5t72.5 9.5t75.5 -18.5t50.5 -43t26 -62t11 -60t1.5 -65t-3 -84t-11 -84.5t-23 -74t-38 -56q-46 -50 -135 -50q-32 0 -56.5 9.5t-36.5 22.5q-25 27 -29 48l-1 10h-8l14 -90v-113
q0 -11 -57.5 -17.5t-118 -6.5t-80.5 5.5t-20 18.5zM358 412q-9 34 -27 34t-26 -20v-262q0 -26 27 -26q35 0 35 155q0 85 -9 119z" />
    <glyph glyph-name="q" unicode="q" horiz-adv-x="663" 
d="M287.5 -0.5q-26.5 -7.5 -69.5 -7.5t-81 16.5t-59 41.5t-34 64q-19 60 -19 151q0 173 79.5 248.5t257.5 75.5q99 0 142 -7t69 -13q55 -13 55 -42v-648q0 -11 -55.5 -17.5t-135.5 -6.5t-80 24v113l12 69h-8q0 -8 -10 -22t-23.5 -23t-40 -16.5zM328 444q-32 0 -32 -153
t34 -153q8 0 18 5t10 14v283q-7 4 -30 4z" />
    <glyph glyph-name="r" unicode="r" horiz-adv-x="586" 
d="M305 316v-292q0 -11 -56.5 -17.5t-117 -6.5t-78.5 5.5t-18 18.5v493q0 19 55.5 41t121 22t73.5 -36l10 -46h7q14 38 67 64.5t106 26.5t74.5 -17t21.5 -43.5t-4 -67.5t-19.5 -89t-40.5 -48q-10 0 -63 15t-87.5 15t-43 -10t-8.5 -28z" />
    <glyph glyph-name="s" unicode="s" horiz-adv-x="611" 
d="M307 -9q-166 0 -243 32q-39 17 -39 33q0 41 24 96t42 55q10 0 67.5 -22t97 -22t52 5t12.5 19.5t-20 23t-50 11.5t-64.5 12t-64.5 23t-50 46.5t-20 70t2 56t16.5 52t41 54.5t82 38t124.5 17t115.5 -4.5t73 -11.5t43.5 -16q29 -15 29 -33q0 -39 -28 -90t-44.5 -51
t-71.5 17.5t-81 17.5q-42 0 -42 -24q0 -15 28.5 -22.5t68.5 -15.5t80.5 -22.5t69 -52.5t28.5 -96q0 -196 -279 -196z" />
    <glyph glyph-name="t" unicode="t" horiz-adv-x="482" 
d="M346 -8q-64 0 -106 8.5t-80 33.5q-73 49 -73 204v156h-50q-11 0 -19 23t-8 63t12.5 70.5t32.5 30.5h32v121q0 31 60.5 50t118.5 19q91 0 91 -45v-145h74q26 0 26 -75q0 -49 -11.5 -80.5t-29.5 -31.5h-59v-183q0 -27 23 -38.5t40.5 -11.5t21.5 -17t4 -51q0 -67 -18 -84
t-82 -17z" />
    <glyph glyph-name="u" unicode="u" horiz-adv-x="678" 
d="M236 -9q-112 0 -156.5 58t-44.5 202v272q0 20 59 38.5t124 18.5q87 0 87 -45v-254q0 -76 6 -110.5t30 -34.5q32 0 32 27v360q0 21 62 39t135 18t73 -39v-515q0 -14 -63 -20t-124 -6t-62 16l-10 65h-8q-9 -36 -36 -59q-14 -12 -41.5 -21.5t-62.5 -9.5z" />
    <glyph glyph-name="v" unicode="v" horiz-adv-x="679" 
d="M5 509q0 10 29 26.5t79 30.5t98 14q97 0 100 -47l25 -318h13l22 302q2 25 69 44t118 19t76.5 -9t32.5 -18.5t7 -16.5t-42.5 -103t-169.5 -409q-10 -24 -163 -24q-48 0 -63 5.5t-20 18.5q-69 174 -140 327.5t-71 157.5z" />
    <glyph glyph-name="w" unicode="w" horiz-adv-x="983" 
d="M794 24q-13 -24 -135.5 -24t-127.5 24l-34 182h-14l-32 -182q-3 -24 -175 -24q-48 0 -63.5 5.5t-21.5 18.5q-186 457 -186 481t72.5 49.5t139.5 25.5q86 0 89 -46l34 -274h12l12 221q1 25 51 44t101 19t76.5 -12.5t26.5 -30.5l11 -241h11l33 257q3 24 67.5 43.5
t113.5 19.5t77 -14q46 -22 46 -52q0 -3 -90.5 -244t-93.5 -246z" />
    <glyph glyph-name="x" unicode="x" horiz-adv-x="679" 
d="M306 38q-8 -38 -89 -38t-146.5 9.5t-65.5 29.5q0 12 42 75t127 177q-160 218 -160 228q0 19 70 40t118 21t74.5 -11.5t29.5 -25.5l44 -153h9l16 144q1 6 23.5 16.5t60.5 20t73 9.5q132 0 132 -45q0 -14 -39 -78.5t-117 -179.5q166 -225 166 -238q0 -39 -113 -39
q-175 0 -183 38l-39 131h-7z" />
    <glyph glyph-name="y" unicode="y" horiz-adv-x="661" 
d="M372 65v59h-8q-5 -5 -15 -13t-47 -21t-82.5 -13t-80 14.5t-54.5 39t-31 65.5q-19 65 -19 184v138q0 21 59 41.5t124 20.5q87 0 87 -45v-126q0 -200 32 -200q19 0 19 27v282q0 21 63 41.5t135 20.5t72 -39v-473q0 -223 -302 -223q-159 0 -216 31q-25 14 -25 29
q0 24 20 80.5t37 56.5q4 0 28 -6q74 -20 123.5 -20t65 11t15.5 38z" />
    <glyph glyph-name="z" unicode="z" horiz-adv-x="576" 
d="M531 428q0 -14 -41.5 -74.5t-124.5 -166.5h161q25 0 25 -70q0 -46 -13 -81.5t-32 -35.5h-431q-27 0 -38.5 47.5t-11.5 102.5q0 12 46.5 72.5t139.5 170.5h-153q-25 0 -25 70q0 46 12.5 81.5t32.5 35.5h405q48 0 48 -152z" />
    <glyph glyph-name="braceleft" unicode="{" horiz-adv-x="466" 
d="M412 711.5q9 -7.5 9 -49t-15.5 -72t-41.5 -30.5q-39 0 -51.5 -34t-12.5 -89.5t-6.5 -78t-15.5 -36.5q-19 -26 -43 -39q64 -43 64 -139q0 -74 13.5 -103.5t49.5 -29.5q59 0 59 -114q0 -22 -11.5 -35t-40 -13t-52.5 2.5t-61.5 9t-67.5 23t-58 41.5q-61 53 -61 162
q0 112 -21 129q-8 7 -17 10q-21 5 -21 60q0 54 16 56q31 5 38 58q5 31 5 83t16 93.5t44.5 66.5t58.5 41.5t68 23.5q66 11 106.5 11t49.5 -7.5z" />
    <glyph glyph-name="bar" unicode="|" horiz-adv-x="280" 
d="M235 669v-770q0 -44 -136 -44q-54 0 -54 44v752q0 59 128 59q62 0 62 -41z" />
    <glyph glyph-name="braceright" unicode="}" horiz-adv-x="466" 
d="M60.5 590.5q-15.5 30.5 -15.5 72t9 49t40 7.5t55 -2.5t61.5 -9t67.5 -23t58 -41.5q61 -53 61 -162q0 -110 23 -129q6 -5 12.5 -6.5t11.5 -5.5q12 -10 12 -48.5t-6 -51t-14.5 -15t-17.5 -9.5q-21 -16 -21 -129q0 -109 -60.5 -162t-126.5 -65q-66 -11 -104 -11t-49.5 13
t-11.5 35q0 114 59 114q36 0 49.5 29.5t13.5 81.5t7 77.5t16 40.5q20 29 41 43q-7 2 -20.5 14.5t-22.5 24.5q-22 34 -22 86q0 84 -12.5 118t-51.5 34q-26 0 -41.5 30.5z" />
    <glyph glyph-name="asciitilde" unicode="~" horiz-adv-x="561" 
d="M469.5 642q-51.5 -32 -90 -32t-92 17.5t-69 17.5t-59.5 -17.5t-62 -17.5t-37.5 35.5t-19.5 54.5q0 17 54.5 48.5t90.5 31.5t88.5 -17t75.5 -17q7 0 49.5 17t62 17t40 -37t20.5 -54q0 -15 -51.5 -47z" />
    <glyph glyph-name="exclamdown" unicode="&#xa1;" horiz-adv-x="332" 
d="M244 -138.5q-58 -6.5 -136 -6.5t-78 23q16 394 18.5 415.5t37 41.5t97.5 20q87 0 91 -47l27 -429q1 -11 -57 -17.5zM74.5 569.5q32.5 19.5 91 19.5t89.5 -17.5t31 -72.5q0 -90 -122 -90t-122 90q0 51 32.5 70.5z" />
    <glyph glyph-name="cent" unicode="&#xa2;" horiz-adv-x="545" 
d="M400 -53q0 -44 -136 -44q-54 0 -54 44v54q-185 45 -185 288t185 289v40q0 59 128 59q62 0 62 -41v-50q68 -5 96.5 -23.5t28.5 -57t-15.5 -87t-40.5 -48.5q-8 0 -48.5 17t-70 17t-45 -23.5t-15.5 -91t14 -92t43.5 -24.5t73.5 20t49 20q19 0 36.5 -45t17.5 -80
q0 -77 -124 -92v-49z" />
    <glyph glyph-name="sterling" unicode="&#xa3;" horiz-adv-x="594" 
d="M97 257q0 22 -7 43h-53q-13 0 -20 26.5t-7 61t8.5 61t18 34t19.5 7.5h32q0 79 24 137.5t66 90.5q80 62 183.5 62t140.5 -17.5t37 -49.5q0 -55 -13 -100t-33 -45q-12 0 -35 7t-45 7t-36 -23t-16 -46l-2 -23h133q10 0 18 -17.5t8 -44.5q0 -128 -45 -128h-117q0 -64 -40 -85
v-6q190 10 223 10q25 0 25 -85q0 -74 -9 -96q-15 -35 -23 -37l-3 -1h-465q-49 0 -49 92q0 112 35 112q47 0 47 53z" />
    <glyph glyph-name="currency" unicode="&#xa4;" horiz-adv-x="721" 
d="M500 14q-64 -23 -142.5 -23t-142.5 23l-44 -44q-12 -11 -29.5 -11t-43.5 26q-62 63 -62 101q0 18 13 31l22 22q-32 66 -32 156.5t30 150.5l-20 20q-13 13 -13 31q0 39 62 101q26 26 51 26q13 0 22 -11l44 -45q65 21 145 21t141 -20l42 42q14 14 31 14t38 -21
q73 -73 73 -108q0 -11 -8 -19l-32 -32q29 -63 29 -150t-32 -154l35 -35q8 -8 8 -19q0 -35 -73 -108q-21 -21 -38 -21t-31 14zM357 136q60 0 60 154t-60 154q-62 0 -62 -154t62 -154z" />
    <glyph glyph-name="yen" unicode="&#xa5;" horiz-adv-x="698" 
d="M547 78h-60v-49q0 -13 -61 -21t-121.5 -8t-78.5 6.5t-18 22.5v49h-96q-15 0 -15 41q0 20 12.5 40t24.5 20h74v39h-76q-15 0 -15 40q0 21 12.5 41.5t24.5 20.5h31q-175 292 -175 323q0 21 67 44t141 23q95 0 101 -56l27 -269h11l19 262q2 28 71 45.5t131 17.5t86 -18
t24 -37.5t-180 -334.5h79q15 0 15 -37q0 -19 -12 -42t-23 -23h-80v-39h80q15 0 15 -37q0 -19 -12.5 -41.5t-22.5 -22.5z" />
    <glyph glyph-name="brokenbar" unicode="&#xa6;" horiz-adv-x="280" 
d="M235 669v-302q0 -44 -136 -44q-54 0 -54 44v284q0 59 128 59q62 0 62 -41zM235 202v-302q0 -44 -136 -44q-54 0 -54 44v284q0 59 128 59q62 0 62 -41z" />
    <glyph glyph-name="section" unicode="&#xa7;" horiz-adv-x="579" 
d="M291 -106q-155 0 -233 36q-38 17 -38 34q0 41 23 95.5t40 54.5q10 0 65.5 -24.5t93.5 -24.5t49.5 5t11.5 19.5t-19 23t-48 11.5t-62 12t-62 23t-48 46.5t-19 80.5q0 111 70 160q-70 37 -70 129q0 69 21 107q10 16 29.5 36t46.5 33q62 30 167 30q156 0 215 -32
q27 -15 27 -33q0 -39 -26.5 -89.5t-42.5 -50.5t-62 17.5t-69 17.5q-56 0 -56 -24t69 -33q64 -7 126 -41q30 -16 49.5 -51t19.5 -84q0 -102 -75 -151q75 -45 75 -138q0 -195 -268 -195zM308 352q-64 0 -64 -32q14 -18 54 -18q64 0 64 32q-14 18 -54 18z" />
    <glyph glyph-name="dieresis" unicode="&#xa8;" horiz-adv-x="570" 
d="M146 600q-52 0 -79 19.5t-27 72t27.5 70.5t79 18t79 -18t27.5 -70.5t-27.5 -72t-79.5 -19.5zM423 600q-52 0 -79 19.5t-27 72t27.5 70.5t79 18t79 -18t27.5 -70.5t-27.5 -72t-79.5 -19.5z" />
    <glyph glyph-name="copyright" unicode="&#xa9;" horiz-adv-x="685" 
d="M471 4q-54 -13 -128.5 -13t-128.5 13t-98 46q-91 66 -91 246q0 144 61 215q26 31 69.5 49t86 23.5t101.5 5.5t101 -5.5t85.5 -23.5t70 -49t43.5 -85.5t17 -137.5t-23 -144.5t-67.5 -94t-98.5 -45.5zM169 119q60 -48 173.5 -48t173 48t59.5 176q0 137 -69 178
q-35 21 -72 28.5t-85.5 7.5t-80 -4t-63.5 -17t-51 -36q-45 -52 -45 -157q0 -128 60 -176zM340 148q-37 0 -78 20q-24 13 -39.5 45t-15.5 80q0 148 144 148q95 0 95 -37q0 -18 -7 -40.5t-20 -22.5q-4 0 -30 6.5t-37.5 6.5t-21 -15.5t-9.5 -45.5q0 -60 31 -60q10 0 36 8t31 8
q12 0 19 -22.5t7 -39.5q0 -39 -105 -39z" />
    <glyph glyph-name="ordfeminine" unicode="&#xaa;" horiz-adv-x="332" 
d="M91 464q-47 0 -61.5 6t-14.5 9.5t9 34.5q27 99 60 186q1 4 45 7t80 3t41 -10q34 -92 50.5 -154t16.5 -65q0 -17 -61.5 -17t-62.5 15l-3 23h-47l-2 -20q-3 -18 -50 -18zM181 568l-6 61h-17l-7 -61h30z" />
    <glyph glyph-name="guillemotleft" unicode="&#xab;" horiz-adv-x="716" 
d="M255 288q117 -240 117 -264t-54 -24t-86.5 5.5t-43 12.5t-27 27t-81.5 120.5t-65 122.5t69 121q25 36 52.5 75t34 49t16 19t44 18.5t88 9.5t53.5 -35q0 -21 -117 -257zM569 288q117 -240 117 -264t-54 -24t-86.5 5.5t-43 12.5t-27 27t-81.5 120.5t-65 122.5t69 121
q25 36 52.5 75t34 49t16 19t44 18.5t88 9.5t53.5 -35q0 -21 -117 -257z" />
    <glyph glyph-name="logicalnot" unicode="&#xac;" horiz-adv-x="553" 
d="M525 308v-205q0 -11 -40 -17t-87.5 -6t-47.5 15v95h-287q-33 0 -33 63q0 43 21 78.5t44 35.5h403q27 0 27 -59z" />
    <glyph glyph-name="uni00AD" unicode="&#xad;" horiz-adv-x="833" 
 />
    <glyph glyph-name="registered" unicode="&#xae;" horiz-adv-x="685" 
d="M471 4q-54 -13 -128.5 -13t-128.5 13t-98 46q-91 66 -91 246q0 144 61 215q26 31 69.5 49t86 23.5t101.5 5.5t101 -5.5t85.5 -23.5t70 -49t43.5 -85.5t17 -137.5t-23 -144.5t-67.5 -94t-98.5 -45.5zM169 119q60 -48 173.5 -48t173 48t59.5 176q0 137 -69 178
q-35 21 -72 28.5t-85.5 7.5t-80 -4t-63.5 -17t-51 -36q-45 -52 -45 -157q0 -128 60 -176zM329 162q0 -11 -50.5 -11t-50.5 11v255q0 7 6 11q13 8 91.5 8t111.5 -18.5t33 -80t-45 -86.5q53 -61 53 -80.5t-71 -19.5q-25 0 -31.5 2t-8.5 9l-31 73l-7 1v-74zM329 306h12
q13 0 20 6t7 26q0 31 -24 31h-15v-63z" />
    <glyph glyph-name="macron" unicode="&#xaf;" horiz-adv-x="553" 
d="M462 610h-405q-11 0 -19 18.5t-8 49.5t22.5 61.5t42.5 30.5h402q26 0 26 -65q0 -32 -21 -63.5t-40 -31.5z" />
    <glyph glyph-name="degree" unicode="&#xb0;" horiz-adv-x="375" 
d="M293 491.5q-37 -27.5 -105.5 -27.5t-105.5 27.5t-37 99t37 95.5t105 24t105.5 -24t37.5 -95.5t-37 -99zM149 587q0 -34 38.5 -34t38.5 34q0 20 -10 26.5t-25.5 6.5t-22.5 -2q-19 -5 -19 -31z" />
    <glyph glyph-name="plusminus" unicode="&#xb1;" horiz-adv-x="553" 
d="M253 217q-65 0 -65 26v133h-131q-11 0 -19 18.5t-8 53t22 70t43 35.5h93v112q0 19 33.5 32t70 13t55 -8t18.5 -19v-130h132q26 0 26 -65q0 -33 -21 -72.5t-40 -39.5h-97v-118q0 -17 -37.5 -29t-74.5 -12zM462 0h-405q-11 0 -19 18.5t-8 53t22 70t43 35.5h402q26 0 26 -65
q0 -33 -21 -72.5t-40 -39.5z" />
    <glyph glyph-name="twosuperior" unicode="&#xb2;" horiz-adv-x="362" 
d="M62 596q-15 0 -26 39t-11 73q0 7 17 16q40 24 117.5 24t126 -26t48.5 -82q0 -29 -14.5 -54.5t-32.5 -40t-42 -27.5q-31 -16 -52 -21h124q20 0 20 -57q0 -29 -6.5 -46.5t-12.5 -19.5l-7 -3h-251q-33 0 -33 104q0 9 34.5 32.5t69.5 51t35 45.5q0 16 -24 16t-50 -12t-30 -12
z" />
    <glyph glyph-name="threesuperior" unicode="&#xb3;" horiz-adv-x="364" 
d="M25 400q0 59 21 90q8 11 13 11t31 -9.5t51 -9.5t25 16q0 22 -48 24h-20q-12 5 -12 35.5t12 35.5q2 1 20 1q48 2 48 22q0 16 -23.5 16t-51 -11.5t-30.5 -11.5q-13 0 -22.5 39.5t-9.5 52.5t13 23q34 24 119.5 24t126.5 -29.5t41 -70.5q0 -25 -11 -44q-13 -25 -31 -36
q18 -7 32.5 -33.5t14.5 -54.5q0 -58 -49.5 -86t-125.5 -28q-71 0 -117 20q-17 8 -17 14z" />
    <glyph glyph-name="acute" unicode="&#xb4;" horiz-adv-x="380" 
d="M260 780q23 0 46.5 -38t23.5 -94q0 -15 -86.5 -26.5t-143.5 -11.5q-19 0 -34.5 24t-15.5 55.5t74.5 61t135.5 29.5z" />
    <glyph glyph-name="mu" unicode="&#xb5;" horiz-adv-x="688" 
d="M247 31h-4q67 -137 67 -156q0 -30 -172 -30q-80 0 -92 11q-6 4 -6 12v655q0 22 63.5 39.5t120.5 17.5q86 0 86 -48v-267q0 -69 7 -99t32 -30q29 0 29 34v352q0 24 65.5 41t126.5 17q78 0 78 -39v-516q0 -12 -58.5 -18.5t-123.5 -6.5t-67 17l-10 64h-8q-1 -3 -2 -8.5
t-7 -19.5t-14 -25q-22 -28 -55 -28t-56 31z" />
    <glyph glyph-name="mu" unicode="&#x3bc;" horiz-adv-x="688" 
d="M247 31h-4q67 -137 67 -156q0 -30 -172 -30q-80 0 -92 11q-6 4 -6 12v655q0 22 63.5 39.5t120.5 17.5q86 0 86 -48v-267q0 -69 7 -99t32 -30q29 0 29 34v352q0 24 65.5 41t126.5 17q78 0 78 -39v-516q0 -12 -58.5 -18.5t-123.5 -6.5t-67 17l-10 64h-8q-1 -3 -2 -8.5
t-7 -19.5t-14 -25q-22 -28 -55 -28t-56 31z" />
    <glyph glyph-name="paragraph" unicode="&#xb6;" horiz-adv-x="703" 
d="M222 197q-105 0 -153.5 68t-48.5 175q0 136 58 202q52 58 170 72q50 6 121 6q289 0 289 -52v-789q0 -24 -123 -24q-48 0 -48 24v658h-44v-658q0 -24 -123 -24q-48 0 -48 24v318h-50z" />
    <glyph glyph-name="periodcentered" unicode="&#xb7;" horiz-adv-x="293" 
d="M226 223q-27 -22 -79.5 -22t-79.5 22t-27 81t27.5 78.5t79.5 19.5t79 -19.5t27 -78.5t-27 -81z" />
    <glyph glyph-name="cedilla" unicode="&#xb8;" horiz-adv-x="268" 
d="M85 -74l-29 -1q-16 0 -16 31v47q0 8 24 15t50.5 7t26.5 -15v-25q87 -3 87 -69q0 -31 -30 -50.5t-63.5 -25t-71.5 -5.5q-8 0 -13 15.5t-5 32.5t8 17q74 0 74 16q0 10 -42 10z" />
    <glyph glyph-name="onesuperior" unicode="&#xb9;" horiz-adv-x="275" 
d="M123 367q-45 0 -45 13v224h-54q-9 0 -9 40.5t9 67.5q2 10 60 18.5t104.5 8.5t46.5 -25v-334q0 -13 -112 -13z" />
    <glyph glyph-name="ordmasculine" unicode="&#xba;" horiz-adv-x="375" 
d="M293 491.5q-37 -27.5 -105.5 -27.5t-105.5 27.5t-37 99t37 95.5t105 24t105.5 -24t37.5 -95.5t-37 -99zM189 556q20 0 20 31.5t-21.5 31.5t-21.5 -30q0 -15 6.5 -24t16.5 -9z" />
    <glyph glyph-name="guillemotright" unicode="&#xbb;" horiz-adv-x="694" 
d="M30 545q0 35 122 35q40 0 64 -29q3 -3 11 -13.5t20 -25.5t71 -109.5t59 -115.5t-60.5 -121.5t-78.5 -123.5t-35 -32.5t-61 -9.5t-72 3.5t-34 8.5t-6 14t29 75t88 187q-117 235 -117 257zM332 545q0 35 122 35q40 0 64 -29q3 -3 11 -13.5t20 -25.5t71 -109.5t59 -115.5
t-60.5 -121.5t-78.5 -123.5t-35 -32.5t-61 -9.5t-72 3.5t-34 8.5t-6 14t29 75t88 187q-117 235 -117 257z" />
    <glyph glyph-name="onequarter" unicode="&#xbc;" horiz-adv-x="771" 
d="M245 11.5q-21 -11.5 -70 -11.5t-49 26q0 2 2 8l354 626q9 16 16.5 24.5t27.5 17t50 8.5q62 0 62 -27q0 -5 -2 -9l-358 -630q-12 -21 -33 -32.5zM138 327q-45 0 -45 13v224h-54q-9 0 -9 40.5t9 67.5q2 10 60 18.5t104.5 8.5t46.5 -25v-334q0 -13 -112 -13zM628 0
q-44 0 -44 13v60h-138q-18 0 -18 88q0 10 45 85.5t63 100.5q7 9 52 17t85 8q68 0 68 -25v-334q0 -13 -113 -13zM593 156v115l-37 -115h37z" />
    <glyph glyph-name="onehalf" unicode="&#xbd;" horiz-adv-x="828" 
d="M235 11.5q-21 -11.5 -70 -11.5t-49 26q0 2 2 8l354 626q9 16 16.5 24.5t27.5 17t50 8.5q62 0 62 -27q0 -5 -2 -9l-358 -630q-12 -21 -33 -32.5zM138 327q-45 0 -45 13v224h-54q-9 0 -9 40.5t9 67.5q2 10 60 18.5t104.5 8.5t46.5 -25v-334q0 -13 -112 -13zM523 225
q-15 0 -26 39t-11 73q0 7 16 17q41 23 118.5 23t126 -26t48.5 -82q0 -29 -14.5 -54.5t-32.5 -40t-42 -26.5q-31 -17 -52 -22h124q20 0 20 -57q0 -29 -6.5 -46.5t-13.5 -20.5l-6 -2h-251q-33 0 -33 104q0 9 35 32.5t69.5 51t34.5 45.5q0 16 -24.5 16t-50.5 -12t-29 -12z" />
    <glyph glyph-name="threequarters" unicode="&#xbe;" horiz-adv-x="799" 
d="M291 11.5q-21 -11.5 -70 -11.5t-49 26q0 2 2 8l354 626q9 16 16.5 24.5t27.5 17t50 8.5q62 0 62 -27q0 -5 -2 -9l-358 -630q-12 -21 -33 -32.5zM30 363q0 59 21 89q8 12 13 12t31 -9.5t51 -9.5t25 16q0 22 -47 23q-20 1 -21 1q-12 5 -12 36t12 35q2 1 21 2q47 1 47 21
q0 16 -23.5 16t-51 -11.5t-30.5 -11.5q-13 0 -22.5 39.5t-9.5 52.5t13 22q34 25 119.5 25t126.5 -29.5t41 -70.5q0 -25 -10 -45q-14 -24 -32 -35q18 -7 32.5 -33.5t14.5 -54.5q0 -58 -49.5 -86t-125.5 -28q-71 0 -117 21q-17 7 -17 13zM656 0q-44 0 -44 13v60h-138
q-18 0 -18 88q0 10 45 85.5t63 100.5q7 9 52 17t85 8q68 0 68 -25v-334q0 -13 -113 -13zM621 156v115l-37 -115h37z" />
    <glyph glyph-name="questiondown" unicode="&#xbf;" horiz-adv-x="599" 
d="M510 115q28 0 48.5 -66.5t20.5 -127.5q0 -14 -31 -31.5t-94 -31t-137 -13.5q-287 0 -287 201q0 57 23.5 100t56.5 64q68 45 122 50l24 3q0 12 -5 36t-5 40.5t54.5 25t94.5 8.5q61 0 75.5 -30t14.5 -127q0 -22 -86 -44q-32 -8 -59 -27t-27 -46q0 -30 45.5 -30t95 23
t56.5 23zM353 410q-68 0 -104 17.5t-36 72.5q0 90 140 90t140 -90t-140 -90z" />
    <glyph glyph-name="Agrave" unicode="&#xc0;" horiz-adv-x="748" 
d="M290.5 11q-28.5 -11 -102.5 -11t-123.5 13.5t-49.5 34.5q0 24 89 306.5t102 325.5q5 13 80.5 21.5t162 8.5t95.5 -30q189 -628 189 -638t-12 -20q-28 -22 -111 -22q-177 0 -181 42l-7 65h-96l-5 -56q-2 -29 -30.5 -40zM401 297l-15 180h-22l-17 -180h54zM244 910
q61 0 135.5 -29.5t74.5 -61t-15.5 -55.5t-34.5 -24q-57 0 -143.5 11.5t-86.5 26.5q0 56 23.5 94t46.5 38z" />
    <glyph glyph-name="Aacute" unicode="&#xc1;" horiz-adv-x="748" 
d="M290.5 11q-28.5 -11 -102.5 -11t-123.5 13.5t-49.5 34.5q0 24 89 306.5t102 325.5q5 13 80.5 21.5t162 8.5t95.5 -30q189 -628 189 -638t-12 -20q-28 -22 -111 -22q-177 0 -181 42l-7 65h-96l-5 -56q-2 -29 -30.5 -40zM401 297l-15 180h-22l-17 -180h54zM484 910
q23 0 46.5 -38t23.5 -94q0 -15 -86.5 -26.5t-143.5 -11.5q-19 0 -34.5 24t-15.5 55.5t74.5 61t135.5 29.5z" />
    <glyph glyph-name="Acircumflex" unicode="&#xc2;" horiz-adv-x="748" 
d="M290.5 11q-28.5 -11 -102.5 -11t-123.5 13.5t-49.5 34.5q0 24 89 306.5t102 325.5q5 13 80.5 21.5t162 8.5t95.5 -30q189 -628 189 -638t-12 -20q-28 -22 -111 -22q-177 0 -181 42l-7 65h-96l-5 -56q-2 -29 -30.5 -40zM401 297l-15 180h-22l-17 -180h54zM267.5 865.5
q73.5 34.5 109 34.5t106.5 -34t71 -46q0 -35 -11 -62.5t-29 -27.5q-14 0 -140 39q-127 -39 -140 -39q-18 0 -29 27.5t-11 62.5q0 11 73.5 45.5z" />
    <glyph glyph-name="Atilde" unicode="&#xc3;" horiz-adv-x="748" 
d="M290.5 11q-28.5 -11 -102.5 -11t-123.5 13.5t-49.5 34.5q0 24 89 306.5t102 325.5q5 13 80.5 21.5t162 8.5t95.5 -30q189 -628 189 -638t-12 -20q-28 -22 -111 -22q-177 0 -181 42l-7 65h-96l-5 -56q-2 -29 -30.5 -40zM401 297l-15 180h-22l-17 -180h54zM571.5 772
q-51.5 -32 -90 -32t-92 17.5t-69 17.5t-59.5 -17.5t-62 -17.5t-37.5 35.5t-19.5 54.5q0 17 54.5 48.5t90.5 31.5t88.5 -17t75.5 -17q7 0 49.5 17t62 17t40 -37t20.5 -54q0 -15 -51.5 -47z" />
    <glyph glyph-name="Adieresis" unicode="&#xc4;" horiz-adv-x="748" 
d="M290.5 11q-28.5 -11 -102.5 -11t-123.5 13.5t-49.5 34.5q0 24 89 306.5t102 325.5q5 13 80.5 21.5t162 8.5t95.5 -30q189 -628 189 -638t-12 -20q-28 -22 -111 -22q-177 0 -181 42l-7 65h-96l-5 -56q-2 -29 -30.5 -40zM401 297l-15 180h-22l-17 -180h54zM240 730
q-52 0 -79 19.5t-27 72t27.5 70.5t79 18t79 -18t27.5 -70.5t-27.5 -72t-79.5 -19.5zM517 730q-52 0 -79 19.5t-27 72t27.5 70.5t79 18t79 -18t27.5 -70.5t-27.5 -72t-79.5 -19.5z" />
    <glyph glyph-name="Aring" unicode="&#xc5;" horiz-adv-x="748" 
d="M290.5 11q-28.5 -11 -102.5 -11t-123.5 13.5t-49.5 34.5q0 24 89 306.5t102 325.5q5 13 80.5 21.5t162 8.5t95.5 -30q189 -628 189 -638t-12 -20q-28 -22 -111 -22q-177 0 -181 42l-7 65h-96l-5 -56q-2 -29 -30.5 -40zM401 297l-15 180h-22l-17 -180h54zM461 748.5
q-28 -18.5 -87 -18.5t-87 18.5t-28 69t28 66.5t87 16t87 -16t28 -66.5t-28 -69zM352.5 801q5.5 -4 21.5 -4t21.5 4t5.5 14.5t-6 14t-21.5 3.5t-21 -3.5t-5.5 -14t5.5 -14.5z" />
    <glyph glyph-name="AE" unicode="&#xc6;" horiz-adv-x="1004" 
d="M941 0h-424q-49 0 -66 7t-17 22v78h-114l-17 -56q-9 -29 -40 -40t-89.5 -11t-95.5 8q-63 13 -63 40q0 19 113 270.5t169 353.5q7 13 71.5 21.5t159.5 8.5h416q21 0 21 -69.5t-9 -104.5t-24 -35q-39 0 -219 13v-67q148 6 193 6q27 0 27 -63t-10.5 -95.5t-28.5 -32.5
l-181 4v-64q174 13 240 13q21 0 21 -69q0 -138 -33 -138zM434 297v169l-59 -169h59z" />
    <glyph glyph-name="Ccedilla" unicode="&#xc7;" horiz-adv-x="661" 
d="M464.5 -5.5q41.5 3.5 81.5 13t61.5 30t21.5 55.5t-17.5 92t-48.5 57q-11 0 -76.5 -20.5t-90.5 -20.5q-35 0 -56.5 40t-21.5 112t24.5 111t59.5 39q23 0 87 -16t74 -16q33 0 50.5 55t17.5 91t-19 55t-43 28q-53 20 -175 20q-85 0 -168 -38q-53 -23 -93.5 -61t-69 -108
t-28.5 -161q0 -136 51 -222q22 -37 54.5 -64t61.5 -41t64 -22t56.5 -10t61 -2t81 3.5zM356 -84l-29 -1q-16 0 -16 31v47q0 8 24 15t50.5 7t26.5 -15v-25q87 -3 87 -69q0 -31 -30 -50.5t-63.5 -25t-71.5 -5.5q-8 0 -13 15.5t-5 32.5t8 17q74 0 74 16q0 10 -42 10z" />
    <glyph glyph-name="Egrave" unicode="&#xc8;" horiz-adv-x="615" 
d="M552 0h-424q-49 0 -66 7t-17 22v633q0 26 23.5 37t84.5 11h402q21 0 21 -69.5t-9 -106t-24 -36.5q-65 0 -219 13v-67q148 6 193 6q27 0 27 -63t-10.5 -95.5t-28.5 -32.5l-181 4v-64q174 13 240 13q21 0 21 -70t-9 -106t-24 -36zM207 910q61 0 135.5 -29.5t74.5 -61
t-15.5 -55.5t-34.5 -24q-57 0 -143.5 11.5t-86.5 26.5q0 56 23.5 94t46.5 38z" />
    <glyph glyph-name="Eacute" unicode="&#xc9;" horiz-adv-x="615" 
d="M552 0h-424q-49 0 -66 7t-17 22v633q0 26 23.5 37t84.5 11h402q21 0 21 -69.5t-9 -106t-24 -36.5q-65 0 -219 13v-67q148 6 193 6q27 0 27 -63t-10.5 -95.5t-28.5 -32.5l-181 4v-64q174 13 240 13q21 0 21 -70t-9 -106t-24 -36zM417 910q23 0 46.5 -38t23.5 -94
q0 -15 -86.5 -26.5t-143.5 -11.5q-19 0 -34.5 24t-15.5 55.5t74.5 61t135.5 29.5z" />
    <glyph glyph-name="Ecircumflex" unicode="&#xca;" horiz-adv-x="615" 
d="M552 0h-424q-49 0 -66 7t-17 22v633q0 26 23.5 37t84.5 11h402q21 0 21 -69.5t-9 -106t-24 -36.5q-65 0 -219 13v-67q148 6 193 6q27 0 27 -63t-10.5 -95.5t-28.5 -32.5l-181 4v-64q174 13 240 13q21 0 21 -70t-9 -106t-24 -36zM200.5 865.5q73.5 34.5 109 34.5
t106.5 -34t71 -46q0 -35 -11 -62.5t-29 -27.5q-14 0 -140 39q-127 -39 -140 -39q-18 0 -29 27.5t-11 62.5q0 11 73.5 45.5z" />
    <glyph glyph-name="Edieresis" unicode="&#xcb;" horiz-adv-x="615" 
d="M552 0h-424q-49 0 -66 7t-17 22v633q0 26 23.5 37t84.5 11h402q21 0 21 -69.5t-9 -106t-24 -36.5q-65 0 -219 13v-67q148 6 193 6q27 0 27 -63t-10.5 -95.5t-28.5 -32.5l-181 4v-64q174 13 240 13q21 0 21 -70t-9 -106t-24 -36zM173 730q-52 0 -79 19.5t-27 72t27.5 70.5
t79 18t79 -18t27.5 -70.5t-27.5 -72t-79.5 -19.5zM450 730q-52 0 -79 19.5t-27 72t27.5 70.5t79 18t79 -18t27.5 -70.5t-27.5 -72t-79.5 -19.5z" />
    <glyph glyph-name="Igrave" unicode="&#xcc;" horiz-adv-x="369" 
d="M263 6.5q-61 -6.5 -122.5 -6.5t-78.5 5.5t-17 18.5v622q0 22 58 43.5t130 21.5q64 0 83 -27q8 -10 8 -20v-640q0 -11 -61 -17.5zM85 910q61 0 135.5 -29.5t74.5 -61t-15.5 -55.5t-34.5 -24q-57 0 -143.5 11.5t-86.5 26.5q0 56 23.5 94t46.5 38z" />
    <glyph glyph-name="Iacute" unicode="&#xcd;" horiz-adv-x="369" 
d="M263 6.5q-61 -6.5 -122.5 -6.5t-78.5 5.5t-17 18.5v622q0 22 58 43.5t130 21.5q64 0 83 -27q8 -10 8 -20v-640q0 -11 -61 -17.5zM285 910q23 0 46.5 -38t23.5 -94q0 -15 -86.5 -26.5t-143.5 -11.5q-19 0 -34.5 24t-15.5 55.5t74.5 61t135.5 29.5z" />
    <glyph glyph-name="Icircumflex" unicode="&#xce;" horiz-adv-x="369" 
d="M263 6.5q-61 -6.5 -122.5 -6.5t-78.5 5.5t-17 18.5v622q0 22 58 43.5t130 21.5q64 0 83 -27q8 -10 8 -20v-640q0 -11 -61 -17.5zM82.5 865.5q73.5 34.5 109 34.5t106.5 -34t71 -46q0 -35 -11 -62.5t-29 -27.5q-14 0 -140 39q-127 -39 -140 -39q-18 0 -29 27.5t-11 62.5
q0 11 73.5 45.5z" />
    <glyph glyph-name="Idieresis" unicode="&#xcf;" horiz-adv-x="369" 
d="M263 6.5q-61 -6.5 -122.5 -6.5t-78.5 5.5t-17 18.5v622q0 22 58 43.5t130 21.5q64 0 83 -27q8 -10 8 -20v-640q0 -11 -61 -17.5zM51 730q-52 0 -79 19.5t-27 72t27.5 70.5t79 18t79 -18t27.5 -70.5t-27.5 -72t-79.5 -19.5zM328 730q-52 0 -79 19.5t-27 72t27.5 70.5
t79 18t79 -18t27.5 -70.5t-27.5 -72t-79.5 -19.5z" />
    <glyph glyph-name="Eth" unicode="&#xd0;" horiz-adv-x="776" 
d="M80 273h-43q-11 0 -19 18.5t-8 53t22 70t43 35.5h5v211q0 26 22 37.5t76 11.5h225q192 0 265 -75.5t73 -274.5t-76 -279.5t-266 -80.5h-236q-49 0 -66 7t-17 23v243zM391 561q-24 0 -32 -4v-107h40q26 0 26 -65q0 -33 -21 -72.5t-40 -39.5h-5v-121q15 -3 38 -3
q30 0 45.5 48t15.5 166t-16 158t-51 40z" />
    <glyph glyph-name="Ntilde" unicode="&#xd1;" horiz-adv-x="734" 
d="M257.5 8q-61.5 -8 -122.5 -8t-78 7t-17 22v614q0 25 57.5 46t130.5 21q26 0 39 -2q34 -5 48 -43l96 -258h4v236q0 25 57 46t130 21q63 0 80 -24q12 -17 12 -31v-626q0 -13 -61.5 -21t-135 -8t-80.5 19l-93 246h-5v-236q0 -13 -61.5 -21zM550.5 762q-51.5 -32 -90 -32
t-92 17.5t-69 17.5t-59.5 -17.5t-62 -17.5t-37.5 35.5t-19.5 54.5q0 17 54.5 48.5t90.5 31.5t88.5 -17t75.5 -17q7 0 49.5 17t62 17t40 -37t20.5 -54q0 -15 -51.5 -47z" />
    <glyph glyph-name="Ograve" unicode="&#xd2;" horiz-adv-x="776" 
d="M388 -9q-83 0 -142.5 15.5t-109.5 55.5q-101 79 -101 303q0 94 27.5 164t76.5 111q96 80 249 80q79 0 137.5 -14t110.5 -51q105 -76 105 -290q0 -192 -95 -283t-258 -91zM388 148q21 0 33 14.5t20 62t8 132.5t-8 131t-20 60t-33 14t-33 -14t-20 -60t-8 -131t8 -132.5
t20 -62t33 -14.5zM268 910q61 0 135.5 -29.5t74.5 -61t-15.5 -55.5t-34.5 -24q-57 0 -143.5 11.5t-86.5 26.5q0 56 23.5 94t46.5 38z" />
    <glyph glyph-name="Oacute" unicode="&#xd3;" horiz-adv-x="776" 
d="M388 -9q-83 0 -142.5 15.5t-109.5 55.5q-101 79 -101 303q0 94 27.5 164t76.5 111q96 80 249 80q79 0 137.5 -14t110.5 -51q105 -76 105 -290q0 -192 -95 -283t-258 -91zM388 148q21 0 33 14.5t20 62t8 132.5t-8 131t-20 60t-33 14t-33 -14t-20 -60t-8 -131t8 -132.5
t20 -62t33 -14.5zM498 920q23 0 46.5 -38t23.5 -94q0 -15 -86.5 -26.5t-143.5 -11.5q-19 0 -34.5 24t-15.5 55.5t74.5 61t135.5 29.5z" />
    <glyph glyph-name="Ocircumflex" unicode="&#xd4;" horiz-adv-x="776" 
d="M388 -9q-83 0 -142.5 15.5t-109.5 55.5q-101 79 -101 303q0 94 27.5 164t76.5 111q96 80 249 80q79 0 137.5 -14t110.5 -51q105 -76 105 -290q0 -192 -95 -283t-258 -91zM388 148q21 0 33 14.5t20 62t8 132.5t-8 131t-20 60t-33 14t-33 -14t-20 -60t-8 -131t8 -132.5
t20 -62t33 -14.5zM281.5 875.5q73.5 34.5 109 34.5t106.5 -34t71 -46q0 -35 -11 -62.5t-29 -27.5q-14 0 -140 39q-127 -39 -140 -39q-18 0 -29 27.5t-11 62.5q0 11 73.5 45.5z" />
    <glyph glyph-name="Otilde" unicode="&#xd5;" horiz-adv-x="776" 
d="M388 -9q-83 0 -142.5 15.5t-109.5 55.5q-101 79 -101 303q0 94 27.5 164t76.5 111q96 80 249 80q79 0 137.5 -14t110.5 -51q105 -76 105 -290q0 -192 -95 -283t-258 -91zM388 148q21 0 33 14.5t20 62t8 132.5t-8 131t-20 60t-33 14t-33 -14t-20 -60t-8 -131t8 -132.5
t20 -62t33 -14.5zM581.5 772q-51.5 -32 -90 -32t-92 17.5t-69 17.5t-59.5 -17.5t-62 -17.5t-37.5 35.5t-19.5 54.5q0 17 54.5 48.5t90.5 31.5t88.5 -17t75.5 -17q7 0 49.5 17t62 17t40 -37t20.5 -54q0 -15 -51.5 -47z" />
    <glyph glyph-name="Odieresis" unicode="&#xd6;" horiz-adv-x="776" 
d="M388 -9q-83 0 -142.5 15.5t-109.5 55.5q-101 79 -101 303q0 94 27.5 164t76.5 111q96 80 249 80q79 0 137.5 -14t110.5 -51q105 -76 105 -290q0 -192 -95 -283t-258 -91zM388 148q21 0 33 14.5t20 62t8 132.5t-8 131t-20 60t-33 14t-33 -14t-20 -60t-8 -131t8 -132.5
t20 -62t33 -14.5zM249 730q-52 0 -79 19.5t-27 72t27.5 70.5t79 18t79 -18t27.5 -70.5t-27.5 -72t-79.5 -19.5zM526 730q-52 0 -79 19.5t-27 72t27.5 70.5t79 18t79 -18t27.5 -70.5t-27.5 -72t-79.5 -19.5z" />
    <glyph glyph-name="multiply" unicode="&#xd7;" horiz-adv-x="553" 
d="M181 64q-30 0 -79.5 40.5t-49.5 65.5q0 6 31 38t69 70q-30 30 -59 58t-33 33t-4 13q0 34 45 65t82 31q11 0 28 -12.5t66 -62.5q76 76 82 80.5t8.5 5t4.5 0.5h4q32 0 77 -41t45 -67q0 -11 -16 -25q-32 -31 -79 -78q40 -40 48.5 -48t16.5 -16t12.5 -13t9 -9t6.5 -7t4 -5
t2.5 -4t0.5 -4v-4q0 -27 -50 -63.5t-75 -36.5q-12 0 -23.5 9.5t-77.5 75.5q-15 -15 -28 -29t-21 -22t-15 -15.5t-11 -10.5q-9 -10 -11.5 -10.5t-4.5 -1t-5 -0.5z" />
    <glyph glyph-name="Oslash" unicode="&#xd8;" horiz-adv-x="776" 
d="M389 -9q0 -25 -67 -38q-37 -7 -92 -7q-22 0 -31.5 13.5t-9.5 28t5 36.5q-159 71 -159 341q0 242 143 315q47 23 95 31.5t111 8.5q12 54 154 54q52 0 52 -35q0 -17 -24 -46q175 -66 175 -328q0 -255 -141 -331q-82 -43 -211 -43zM388 148q21 0 33 14.5t20 62t8 132.5
t-8 131t-20 60t-33 14t-33 -14t-20 -60t-8 -131t8 -132.5t20 -62t33 -14.5z" />
    <glyph glyph-name="Ugrave" unicode="&#xd9;" horiz-adv-x="736" 
d="M608.5 63.5q-82.5 -71.5 -239 -71.5t-240.5 71.5t-84 215.5v367q0 25 56.5 45t131.5 20q60 0 78 -23q13 -18 13 -31v-298q0 -113 8.5 -149.5t36.5 -36.5t35.5 35.5t7.5 151.5v286q0 25 56.5 45t130.5 20q63 0 79 -23q13 -18 13 -31v-378q0 -144 -82.5 -215.5zM258 910
q61 0 135.5 -29.5t74.5 -61t-15.5 -55.5t-34.5 -24q-57 0 -143.5 11.5t-86.5 26.5q0 56 23.5 94t46.5 38z" />
    <glyph glyph-name="Uacute" unicode="&#xda;" horiz-adv-x="736" 
d="M608.5 63.5q-82.5 -71.5 -239 -71.5t-240.5 71.5t-84 215.5v367q0 25 56.5 45t131.5 20q60 0 78 -23q13 -18 13 -31v-298q0 -113 8.5 -149.5t36.5 -36.5t35.5 35.5t7.5 151.5v286q0 25 56.5 45t130.5 20q63 0 79 -23q13 -18 13 -31v-378q0 -144 -82.5 -215.5zM488 910
q23 0 46.5 -38t23.5 -94q0 -15 -86.5 -26.5t-143.5 -11.5q-19 0 -34.5 24t-15.5 55.5t74.5 61t135.5 29.5z" />
    <glyph glyph-name="Ucircumflex" unicode="&#xdb;" horiz-adv-x="736" 
d="M608.5 63.5q-82.5 -71.5 -239 -71.5t-240.5 71.5t-84 215.5v367q0 25 56.5 45t131.5 20q60 0 78 -23q13 -18 13 -31v-298q0 -113 8.5 -149.5t36.5 -36.5t35.5 35.5t7.5 151.5v286q0 25 56.5 45t130.5 20q63 0 79 -23q13 -18 13 -31v-378q0 -144 -82.5 -215.5z
M261.5 865.5q73.5 34.5 109 34.5t106.5 -34t71 -46q0 -35 -11 -62.5t-29 -27.5q-14 0 -140 39q-127 -39 -140 -39q-18 0 -29 27.5t-11 62.5q0 11 73.5 45.5z" />
    <glyph glyph-name="Udieresis" unicode="&#xdc;" horiz-adv-x="736" 
d="M608.5 63.5q-82.5 -71.5 -239 -71.5t-240.5 71.5t-84 215.5v367q0 25 56.5 45t131.5 20q60 0 78 -23q13 -18 13 -31v-298q0 -113 8.5 -149.5t36.5 -36.5t35.5 35.5t7.5 151.5v286q0 25 56.5 45t130.5 20q63 0 79 -23q13 -18 13 -31v-378q0 -144 -82.5 -215.5zM229 730
q-52 0 -79 19.5t-27 72t27.5 70.5t79 18t79 -18t27.5 -70.5t-27.5 -72t-79.5 -19.5zM506 730q-52 0 -79 19.5t-27 72t27.5 70.5t79 18t79 -18t27.5 -70.5t-27.5 -72t-79.5 -19.5z" />
    <glyph glyph-name="Yacute" unicode="&#xdd;" horiz-adv-x="698" 
d="M426 8q-61 -8 -121.5 -8t-78.5 6.5t-18 22.5v174q-198 405 -198 440q0 21 67 44t141 23q95 0 101 -56l27 -269h11l19 262q2 28 71 45.5t131 17.5t86 -18t24 -38q0 -19 -201 -451v-174q0 -13 -61 -21zM469 910q23 0 46.5 -38t23.5 -94q0 -15 -86.5 -26.5t-143.5 -11.5
q-19 0 -34.5 24t-15.5 55.5t74.5 61t135.5 29.5z" />
    <glyph glyph-name="Thorn" unicode="&#xde;" horiz-adv-x="718" 
d="M324 696v-66q165 0 214 -15q71 -22 94 -49q40 -48 50 -108q6 -36 6 -81t-6 -81.5t-14.5 -63.5t-25.5 -47.5t-32.5 -34.5t-41.5 -23.5t-46.5 -15t-53.5 -7.5q-47 -4 -120 -4l-24 1v-77q0 -10 -51 -17t-110 -7t-82 3t-29.5 8t-6.5 13v654q0 21 59 38t127 17q93 0 93 -37z
M325 257h24q20 0 30 4.5t19 30.5t9 69.5t-4.5 66.5t-14.5 32q-13 12 -32 12h-31v-215z" />
    <glyph glyph-name="germandbls" unicode="&#xdf;" horiz-adv-x="919" 
d="M185 0q-54 0 -75 5t-21 23v254h-51q-11 0 -19.5 27t-8.5 64.5t14 68t32 30.5h30q0 126 69.5 193.5t218.5 67.5t213 -30t64 -110q0 -31 -13.5 -75.5t-13.5 -71.5t17.5 -43t43.5 -25t56.5 -23.5t56.5 -32.5t43.5 -53t17.5 -84t-19.5 -86.5t-47.5 -58t-68 -32.5
q-63 -19 -140 -19q-181 0 -181 74q0 45 14.5 92t32.5 47q4 0 43.5 -17.5t65.5 -17.5q45 0 45 21q0 25 -48 36q-46 9 -89 46q-21 17 -34.5 55t-13.5 108t-6.5 100.5t-23 30.5t-23.5 -15.5t-7 -66.5v-456q0 -26 -174 -26z" />
    <glyph glyph-name="agrave" unicode="&#xe0;" horiz-adv-x="659" 
d="M220 -9q-91 0 -142 43q-22 18 -37.5 53t-15.5 82t22.5 82t54.5 54t75 31q65 17 143 17h33q0 41 -29 58q-11 7 -35.5 7t-59 -13t-57.5 -26.5t-31 -13.5q-18 0 -49 47.5t-31 86.5q0 13 37 34t104.5 38.5t131.5 17.5t110.5 -10.5t76 -25.5t50 -40t31 -45t16.5 -52
q6 -37 6 -91v-301q0 -11 -53.5 -17.5t-106 -6.5t-68 3t-18.5 7t-5 14l-8 57h-8q-25 -90 -137 -90zM354 157v117q-26 0 -42 -22t-16 -50q0 -66 30 -66q13 0 20.5 6.5t7.5 14.5zM239 780q61 0 135.5 -29.5t74.5 -61t-15.5 -55.5t-34.5 -24q-57 0 -143.5 11.5t-86.5 26.5
q0 56 23.5 94t46.5 38z" />
    <glyph glyph-name="aacute" unicode="&#xe1;" horiz-adv-x="659" 
d="M220 -9q-91 0 -142 43q-22 18 -37.5 53t-15.5 82t22.5 82t54.5 54t75 31q65 17 143 17h33q0 41 -29 58q-11 7 -35.5 7t-59 -13t-57.5 -26.5t-31 -13.5q-18 0 -49 47.5t-31 86.5q0 13 37 34t104.5 38.5t131.5 17.5t110.5 -10.5t76 -25.5t50 -40t31 -45t16.5 -52
q6 -37 6 -91v-301q0 -11 -53.5 -17.5t-106 -6.5t-68 3t-18.5 7t-5 14l-8 57h-8q-25 -90 -137 -90zM354 157v117q-26 0 -42 -22t-16 -50q0 -66 30 -66q13 0 20.5 6.5t7.5 14.5zM439 780q23 0 46.5 -38t23.5 -94q0 -15 -86.5 -26.5t-143.5 -11.5q-19 0 -34.5 24t-15.5 55.5
t74.5 61t135.5 29.5z" />
    <glyph glyph-name="acircumflex" unicode="&#xe2;" horiz-adv-x="659" 
d="M220 -9q-91 0 -142 43q-22 18 -37.5 53t-15.5 82t22.5 82t54.5 54t75 31q65 17 143 17h33q0 41 -29 58q-11 7 -35.5 7t-59 -13t-57.5 -26.5t-31 -13.5q-18 0 -49 47.5t-31 86.5q0 13 37 34t104.5 38.5t131.5 17.5t110.5 -10.5t76 -25.5t50 -40t31 -45t16.5 -52
q6 -37 6 -91v-301q0 -11 -53.5 -17.5t-106 -6.5t-68 3t-18.5 7t-5 14l-8 57h-8q-25 -90 -137 -90zM354 157v117q-26 0 -42 -22t-16 -50q0 -66 30 -66q13 0 20.5 6.5t7.5 14.5zM252.5 745.5q73.5 34.5 109 34.5t106.5 -34t71 -46q0 -35 -11 -62.5t-29 -27.5q-14 0 -140 39
q-127 -39 -140 -39q-18 0 -29 27.5t-11 62.5q0 11 73.5 45.5z" />
    <glyph glyph-name="atilde" unicode="&#xe3;" horiz-adv-x="659" 
d="M220 -9q-91 0 -142 43q-22 18 -37.5 53t-15.5 82t22.5 82t54.5 54t75 31q65 17 143 17h33q0 41 -29 58q-11 7 -35.5 7t-59 -13t-57.5 -26.5t-31 -13.5q-18 0 -49 47.5t-31 86.5q0 13 37 34t104.5 38.5t131.5 17.5t110.5 -10.5t76 -25.5t50 -40t31 -45t16.5 -52
q6 -37 6 -91v-301q0 -11 -53.5 -17.5t-106 -6.5t-68 3t-18.5 7t-5 14l-8 57h-8q-25 -90 -137 -90zM354 157v117q-26 0 -42 -22t-16 -50q0 -66 30 -66q13 0 20.5 6.5t7.5 14.5zM527.5 642q-51.5 -32 -90 -32t-92 17.5t-69 17.5t-59.5 -17.5t-62 -17.5t-37.5 35.5t-19.5 54.5
q0 17 54.5 48.5t90.5 31.5t88.5 -17t75.5 -17q7 0 49.5 17t62 17t40 -37t20.5 -54q0 -15 -51.5 -47z" />
    <glyph glyph-name="adieresis" unicode="&#xe4;" horiz-adv-x="659" 
d="M220 -9q-91 0 -142 43q-22 18 -37.5 53t-15.5 82t22.5 82t54.5 54t75 31q65 17 143 17h33q0 41 -29 58q-11 7 -35.5 7t-59 -13t-57.5 -26.5t-31 -13.5q-18 0 -49 47.5t-31 86.5q0 13 37 34t104.5 38.5t131.5 17.5t110.5 -10.5t76 -25.5t50 -40t31 -45t16.5 -52
q6 -37 6 -91v-301q0 -11 -53.5 -17.5t-106 -6.5t-68 3t-18.5 7t-5 14l-8 57h-8q-25 -90 -137 -90zM354 157v117q-26 0 -42 -22t-16 -50q0 -66 30 -66q13 0 20.5 6.5t7.5 14.5zM192 599q-52 0 -79 19.5t-27 72t27.5 70.5t79 18t79 -18t27.5 -70.5t-27.5 -72t-79.5 -19.5z
M469 599q-52 0 -79 19.5t-27 72t27.5 70.5t79 18t79 -18t27.5 -70.5t-27.5 -72t-79.5 -19.5z" />
    <glyph glyph-name="aring" unicode="&#xe5;" horiz-adv-x="659" 
d="M220 -9q-91 0 -142 43q-22 18 -37.5 53t-15.5 82t22.5 82t54.5 54t75 31q65 17 143 17h33q0 41 -29 58q-11 7 -26 7q-46 0 -99.5 -24t-57.5 -24q-18 0 -49 55t-31 94q0 29 94 53q70 18 156.5 18t133 -10.5t76 -25.5t50 -40.5t31 -45.5t16.5 -51q6 -37 6 -92v-301
q0 -11 -53.5 -17.5t-106 -6.5t-68 3t-18.5 7t-5 14l-8 57h-8q-25 -90 -137 -90zM354 157v117q-26 0 -42 -22t-16 -50q0 -66 30 -66q13 0 20.5 6.5t7.5 14.5zM429 628.5q-28 -18.5 -87 -18.5t-87 18.5t-28 69t28 66.5t87 16t87 -16t28 -66.5t-28 -69zM320.5 681
q5.5 -4 21.5 -4t21.5 4t5.5 14.5t-6 14t-21.5 3.5t-21 -3.5t-5.5 -14t5.5 -14.5z" />
    <glyph glyph-name="ae" unicode="&#xe6;" horiz-adv-x="970" 
d="M627 226q0 -65 62 -65q36 0 94.5 24.5t61.5 24.5q18 0 49 -57t31 -84q0 -39 -79 -58.5t-170 -19.5q-154 0 -237 68q-45 -68 -219 -68q-91 0 -142 43q-22 18 -37.5 53t-15.5 82t22.5 82t54.5 54t75 31q65 17 143 17h33q0 41 -29 58q-11 7 -26 7q-46 0 -99.5 -24t-57.5 -24
q-18 0 -49 55t-31 94q0 16 41 35q77 35 238 35q105 0 166 -29q72 29 186 29q253 0 253 -176q0 -187 -285 -187h-33zM625 372v-66q29 0 47.5 23t18.5 56q0 60 -31 60q-35 0 -35 -73zM354 157v117q-26 0 -42 -22t-16 -50q0 -66 30 -66q13 0 20.5 6.5t7.5 14.5z" />
    <glyph glyph-name="ccedilla" unicode="&#xe7;" horiz-adv-x="545" 
d="M279 -84l-29 -1q-16 0 -16 31v50q-209 34 -209 294q0 72 23 128.5t56 87.5t76 51q69 32 138 32q116 0 161.5 -18t45.5 -61t-15.5 -91.5t-40.5 -48.5q-8 0 -48.5 17t-70 17t-45 -23.5t-15.5 -91t14 -92t43.5 -24.5t73.5 20t49 20q19 0 36.5 -45t17.5 -80q0 -51 -49 -73
t-140 -24v-16q87 -3 87 -69q0 -31 -30 -50.5t-63.5 -25t-71.5 -5.5q-8 0 -13 15.5t-5 32.5t8 17q74 0 74 16q0 10 -42 10z" />
    <glyph glyph-name="egrave" unicode="&#xe8;" horiz-adv-x="640" 
d="M298 226q0 -65 62 -65q36 0 94 24.5t61 24.5q19 0 50 -57t31 -84q0 -39 -80 -59t-156.5 -20t-128 12t-84 30.5t-57 45.5t-36.5 51.5t-19 54.5q-10 44 -10 91q0 182 95 251q47 35 105 49t137 14q253 0 253 -176q0 -187 -284 -187h-33zM296 372v-66q29 0 47.5 23t18.5 56
q0 60 -31 60q-35 0 -35 -73zM220 780q61 0 135.5 -29.5t74.5 -61t-15.5 -55.5t-34.5 -24q-57 0 -143.5 11.5t-86.5 26.5q0 56 23.5 94t46.5 38z" />
    <glyph glyph-name="eacute" unicode="&#xe9;" horiz-adv-x="640" 
d="M298 226q0 -65 62 -65q36 0 94 24.5t61 24.5q19 0 50 -57t31 -84q0 -39 -80 -59t-156.5 -20t-128 12t-84 30.5t-57 45.5t-36.5 51.5t-19 54.5q-10 44 -10 91q0 182 95 251q47 35 105 49t137 14q253 0 253 -176q0 -187 -284 -187h-33zM296 372v-66q29 0 47.5 23t18.5 56
q0 60 -31 60q-35 0 -35 -73zM439 780q23 0 46.5 -38t23.5 -94q0 -15 -86.5 -26.5t-143.5 -11.5q-19 0 -34.5 24t-15.5 55.5t74.5 61t135.5 29.5z" />
    <glyph glyph-name="ecircumflex" unicode="&#xea;" horiz-adv-x="640" 
d="M298 226q0 -65 62 -65q36 0 94 24.5t61 24.5q19 0 50 -57t31 -84q0 -39 -80 -59t-156.5 -20t-128 12t-84 30.5t-57 45.5t-36.5 51.5t-19 54.5q-10 44 -10 91q0 182 95 251q47 35 105 49t137 14q253 0 253 -176q0 -187 -284 -187h-33zM296 372v-66q29 0 47.5 23t18.5 56
q0 60 -31 60q-35 0 -35 -73zM223.5 745.5q73.5 34.5 109 34.5t106.5 -34t71 -46q0 -35 -11 -62.5t-29 -27.5q-14 0 -140 39q-127 -39 -140 -39q-18 0 -29 27.5t-11 62.5q0 11 73.5 45.5z" />
    <glyph glyph-name="edieresis" unicode="&#xeb;" horiz-adv-x="640" 
d="M298 226q0 -65 62 -65q36 0 94 24.5t61 24.5q19 0 50 -57t31 -84q0 -39 -80 -59t-156.5 -20t-128 12t-84 30.5t-57 45.5t-36.5 51.5t-19 54.5q-10 44 -10 91q0 182 95 251q47 35 105 49t137 14q253 0 253 -176q0 -187 -284 -187h-33zM296 372v-66q29 0 47.5 23t18.5 56
q0 60 -31 60q-35 0 -35 -73zM190 600q-52 0 -79 19.5t-27 72t27.5 70.5t79 18t79 -18t27.5 -70.5t-27.5 -72t-79.5 -19.5zM467 600q-52 0 -79 19.5t-27 72t27.5 70.5t79 18t79 -18t27.5 -70.5t-27.5 -72t-79.5 -19.5z" />
    <glyph glyph-name="igrave" unicode="&#xec;" horiz-adv-x="341" 
d="M306 534v-510q0 -11 -57.5 -17.5t-118 -6.5t-78 5.5t-17.5 18.5v492q0 22 57 43t123 21q91 0 91 -46zM71 780q61 0 135.5 -29.5t74.5 -61t-15.5 -55.5t-34.5 -24q-57 0 -143.5 11.5t-86.5 26.5q0 56 23.5 94t46.5 38z" />
    <glyph glyph-name="iacute" unicode="&#xed;" horiz-adv-x="341" 
d="M306 534v-510q0 -11 -57.5 -17.5t-118 -6.5t-78 5.5t-17.5 18.5v492q0 22 57 43t123 21q91 0 91 -46zM271 780q23 0 46.5 -38t23.5 -94q0 -15 -86.5 -26.5t-143.5 -11.5q-19 0 -34.5 24t-15.5 55.5t74.5 61t135.5 29.5z" />
    <glyph glyph-name="icircumflex" unicode="&#xee;" horiz-adv-x="341" 
d="M306 534v-510q0 -11 -57.5 -17.5t-118 -6.5t-78 5.5t-17.5 18.5v492q0 22 57 43t123 21q91 0 91 -46zM69.5 735.5q73.5 34.5 109 34.5t106.5 -34t71 -46q0 -35 -11 -62.5t-29 -27.5q-14 0 -140 39q-127 -39 -140 -39q-18 0 -29 27.5t-11 62.5q0 11 73.5 45.5z" />
    <glyph glyph-name="idieresis" unicode="&#xef;" horiz-adv-x="341" 
d="M306 534v-510q0 -11 -57.5 -17.5t-118 -6.5t-78 5.5t-17.5 18.5v492q0 22 57 43t123 21q91 0 91 -46zM38 600q-52 0 -79 19.5t-27 72t27.5 70.5t79 18t79 -18t27.5 -70.5t-27.5 -72t-79.5 -19.5zM315 600q-52 0 -79 19.5t-27 72t27.5 70.5t79 18t79 -18t27.5 -70.5
t-27.5 -72t-79.5 -19.5z" />
    <glyph glyph-name="eth" unicode="&#xf0;" horiz-adv-x="705" 
d="M634 590h-5v-566q0 -11 -55.5 -17.5t-107 -6.5t-66 3.5t-18 7.5t-4.5 13l-8 57h-8q-9 -35 -36 -59q-13 -12 -39.5 -21.5t-63.5 -9.5t-69 11t-52.5 27t-35.5 43t-23 51.5t-12 60.5q-6 53 -6 129t13 133t39.5 87.5t59.5 43t74 12.5t69.5 -7t43.5 -16q29 -20 36 -37l2 -7h8
v68h-38q-27 0 -27 61q0 35 22 65.5t43 30.5h17q62 33 142.5 33t96.5 -33h43q26 0 26 -55q0 -33 -21 -67.5t-40 -34.5zM335 137q16 0 24 20v267q0 10 -10.5 15.5t-18.5 5.5q-34 0 -34 -156q0 -83 9.5 -117.5t29.5 -34.5z" />
    <glyph glyph-name="ntilde" unicode="&#xf1;" horiz-adv-x="673" 
d="M638 332v-308q0 -11 -57 -17.5t-117.5 -6.5t-78 5.5t-17.5 18.5v318q0 45 -3.5 59t-6.5 25q-7 19 -25 19q-28 0 -28 -27v-394q0 -11 -56.5 -17.5t-117 -6.5t-78.5 5.5t-18 18.5v493q0 21 57.5 42t121.5 21t72 -37l9 -44h7q29 58 100 81q29 9 64 9q101 0 136.5 -60.5
t35.5 -196.5zM497.5 642q-51.5 -32 -90 -32t-92 17.5t-69 17.5t-59.5 -17.5t-62 -17.5t-37.5 35.5t-19.5 54.5q0 17 54.5 48.5t90.5 31.5t88.5 -17t75.5 -17q7 0 49.5 17t62 17t40 -37t20.5 -54q0 -15 -51.5 -47z" />
    <glyph glyph-name="ograve" unicode="&#xf2;" horiz-adv-x="685" 
d="M343 -9q-75 0 -129 13t-98 46q-91 66 -91 246q0 160 93 229q87 64 225 64q59 0 101 -5.5t85.5 -23.5t70 -49t43.5 -85.5t17 -129.5q0 -152 -86 -228.5t-231 -76.5zM322.5 143q7.5 -7 20 -7t20 7t14 43t6.5 90.5t-2.5 84t-6 45.5t-9.5 25q-9 13 -21.5 13t-20.5 -7.5
t-15 -44t-7 -103.5t7 -103t14.5 -43zM232 780q61 0 135.5 -29.5t74.5 -61t-15.5 -55.5t-34.5 -24q-57 0 -143.5 11.5t-86.5 26.5q0 56 23.5 94t46.5 38z" />
    <glyph glyph-name="oacute" unicode="&#xf3;" horiz-adv-x="685" 
d="M343 -9q-75 0 -129 13t-98 46q-91 66 -91 246q0 160 93 229q87 64 225 64q59 0 101 -5.5t85.5 -23.5t70 -49t43.5 -85.5t17 -129.5q0 -152 -86 -228.5t-231 -76.5zM322.5 143q7.5 -7 20 -7t20 7t14 43t6.5 90.5t-2.5 84t-6 45.5t-9.5 25q-9 13 -21.5 13t-20.5 -7.5
t-15 -44t-7 -103.5t7 -103t14.5 -43zM462 780q23 0 46.5 -38t23.5 -94q0 -15 -86.5 -26.5t-143.5 -11.5q-19 0 -34.5 24t-15.5 55.5t74.5 61t135.5 29.5z" />
    <glyph glyph-name="ocircumflex" unicode="&#xf4;" horiz-adv-x="685" 
d="M343 -9q-75 0 -129 13t-98 46q-91 66 -91 246q0 160 93 229q87 64 225 64q59 0 101 -5.5t85.5 -23.5t70 -49t43.5 -85.5t17 -129.5q0 -152 -86 -228.5t-231 -76.5zM322.5 143q7.5 -7 20 -7t20 7t14 43t6.5 90.5t-2.5 84t-6 45.5t-9.5 25q-9 13 -21.5 13t-20.5 -7.5
t-15 -44t-7 -103.5t7 -103t14.5 -43zM235.5 745.5q73.5 34.5 109 34.5t106.5 -34t71 -46q0 -35 -11 -62.5t-29 -27.5q-14 0 -140 39q-127 -39 -140 -39q-18 0 -29 27.5t-11 62.5q0 11 73.5 45.5z" />
    <glyph glyph-name="otilde" unicode="&#xf5;" horiz-adv-x="685" 
d="M343 -9q-75 0 -129 13t-98 46q-91 66 -91 246q0 160 93 229q87 64 225 64q59 0 101 -5.5t85.5 -23.5t70 -49t43.5 -85.5t17 -129.5q0 -152 -86 -228.5t-231 -76.5zM322.5 143q7.5 -7 20 -7t20 7t14 43t6.5 90.5t-2.5 84t-6 45.5t-9.5 25q-9 13 -21.5 13t-20.5 -7.5
t-15 -44t-7 -103.5t7 -103t14.5 -43zM537.5 642q-51.5 -32 -90 -32t-92 17.5t-69 17.5t-59.5 -17.5t-62 -17.5t-37.5 35.5t-19.5 54.5q0 17 54.5 48.5t90.5 31.5t88.5 -17t75.5 -17q7 0 49.5 17t62 17t40 -37t20.5 -54q0 -15 -51.5 -47z" />
    <glyph glyph-name="odieresis" unicode="&#xf6;" horiz-adv-x="685" 
d="M343 -9q-75 0 -129 13t-98 46q-91 66 -91 246q0 160 93 229q87 64 225 64q59 0 101 -5.5t85.5 -23.5t70 -49t43.5 -85.5t17 -129.5q0 -152 -86 -228.5t-231 -76.5zM322.5 143q7.5 -7 20 -7t20 7t14 43t6.5 90.5t-2.5 84t-6 45.5t-9.5 25q-9 13 -21.5 13t-20.5 -7.5
t-15 -44t-7 -103.5t7 -103t14.5 -43zM203 600q-52 0 -79 19.5t-27 72t27.5 70.5t79 18t79 -18t27.5 -70.5t-27.5 -72t-79.5 -19.5zM480 600q-52 0 -79 19.5t-27 72t27.5 70.5t79 18t79 -18t27.5 -70.5t-27.5 -72t-79.5 -19.5z" />
    <glyph glyph-name="divide" unicode="&#xf7;" horiz-adv-x="533" 
d="M268 -10q-42 0 -64 17.5t-22 65t22.5 63.5t63.5 16t63.5 -16t22.5 -63.5t-22 -65t-64 -17.5zM452 190h-405q-11 0 -19 18.5t-8 53t22 70t43 35.5h402q26 0 26 -65q0 -33 -21 -72.5t-40 -39.5zM268 407q-42 0 -64 17.5t-22 65t22.5 63.5t63.5 16t63.5 -16t22.5 -63.5
t-22 -65t-64 -17.5z" />
    <glyph glyph-name="oslash" unicode="&#xf8;" horiz-adv-x="685" 
d="M193 -87q-22 0 -31.5 13.5t-9.5 29.5t12 64q-139 60 -139 276q0 203 120 260q40 19 80.5 25.5t95.5 7.5l9 35q14 54 154 54q52 0 52 -35q0 -13 -17 -78q141 -55 141 -269q0 -175 -85 -242q-42 -33 -93 -47t-121 -16l-9 -34q-12 -44 -159 -44zM322.5 143q7.5 -7 20 -7
t20 7t14 43t6.5 90.5t-2.5 84t-6 45.5t-9.5 25q-9 13 -21.5 13t-20.5 -7.5t-15 -44t-7 -103.5t7 -103t14.5 -43z" />
    <glyph glyph-name="ugrave" unicode="&#xf9;" horiz-adv-x="678" 
d="M236 -9q-112 0 -156.5 58t-44.5 202v272q0 20 59 38.5t124 18.5q87 0 87 -45v-254q0 -76 6 -110.5t30 -34.5q32 0 32 27v360q0 21 62 39t135 18t73 -39v-515q0 -14 -63 -20t-124 -6t-62 16l-10 65h-8q-9 -36 -36 -59q-14 -12 -41.5 -21.5t-62.5 -9.5zM249 780
q61 0 135.5 -29.5t74.5 -61t-15.5 -55.5t-34.5 -24q-57 0 -143.5 11.5t-86.5 26.5q0 56 23.5 94t46.5 38z" />
    <glyph glyph-name="uacute" unicode="&#xfa;" horiz-adv-x="678" 
d="M394 16l-10 65h-8l-2 -9q-4 -22 -34 -49q-14 -13 -41.5 -22.5t-62.5 -9.5q-112 0 -156.5 58t-44.5 202v272q0 20 59 38.5t124 18.5q87 0 87 -45v-254q0 -76 6 -110.5t30 -34.5q32 0 32 27v360q0 21 62 39t135 18t73 -39v-515q0 -14 -63 -20t-124 -6t-62 16zM459 780
q23 0 46.5 -38t23.5 -94q0 -15 -86.5 -26.5t-143.5 -11.5q-19 0 -34.5 24t-15.5 55.5t74.5 61t135.5 29.5z" />
    <glyph glyph-name="ucircumflex" unicode="&#xfb;" horiz-adv-x="678" 
d="M394 16l-10 65h-8l-2 -9q-4 -22 -34 -49q-14 -13 -41.5 -22.5t-62.5 -9.5q-112 0 -156.5 58t-44.5 202v272q0 20 59 38.5t124 18.5q87 0 87 -45v-254q0 -76 6 -110.5t30 -34.5q32 0 32 27v360q0 21 62 39t135 18t73 -39v-515q0 -14 -63 -20t-124 -6t-62 16zM234.5 735.5
q73.5 34.5 109 34.5t106.5 -34t71 -46q0 -35 -11 -62.5t-29 -27.5q-14 0 -140 39q-127 -39 -140 -39q-18 0 -29 27.5t-11 62.5q0 11 73.5 45.5z" />
    <glyph glyph-name="udieresis" unicode="&#xfc;" horiz-adv-x="678" 
d="M394 16l-10 65h-8l-2 -9q-4 -22 -34 -49q-14 -13 -41.5 -22.5t-62.5 -9.5q-112 0 -156.5 58t-44.5 202v272q0 20 59 38.5t124 18.5q87 0 87 -45v-254q0 -76 6 -110.5t30 -34.5q32 0 32 27v360q0 21 62 39t135 18t73 -39v-515q0 -14 -63 -20t-124 -6t-62 16zM200 600
q-52 0 -79 19.5t-27 72t27.5 70.5t79 18t79 -18t27.5 -70.5t-27.5 -72t-79.5 -19.5zM477 600q-52 0 -79 19.5t-27 72t27.5 70.5t79 18t79 -18t27.5 -70.5t-27.5 -72t-79.5 -19.5z" />
    <glyph glyph-name="yacute" unicode="&#xfd;" horiz-adv-x="661" 
d="M372 65v59h-8q-5 -5 -15 -13t-47 -21t-82.5 -13t-80 14.5t-54.5 39t-31 65.5q-19 65 -19 184v138q0 21 59 41.5t124 20.5q87 0 87 -45v-126q0 -200 32 -200q19 0 19 27v282q0 21 63 41.5t135 20.5t72 -39v-473q0 -223 -302 -223q-159 0 -216 31q-25 14 -25 29
q0 24 20 80.5t37 56.5q4 0 28 -6q74 -20 123.5 -20t65 11t15.5 38zM440 780q23 0 46.5 -38t23.5 -94q0 -15 -86.5 -26.5t-143.5 -11.5q-19 0 -34.5 24t-15.5 55.5t74.5 61t135.5 29.5z" />
    <glyph glyph-name="thorn" unicode="&#xfe;" horiz-adv-x="735" 
d="M31 -102v771q0 22 59 43t124 21q88 0 88 -46v-96l-11 -69h8q27 32 70.5 49.5t87 17.5t74.5 -10.5t49.5 -32.5t30 -44.5t16.5 -59.5q7 -53 7 -126t-10 -126.5t-33 -99.5t-65.5 -72t-101.5 -26q-32 0 -56.5 9.5t-36.5 22.5q-25 27 -29 48l-1 10h-8l14 -90v-94
q0 -11 -57.5 -17.5t-118 -6.5t-80.5 5.5t-20 18.5zM354 412q-9 34 -27 34t-26 -20v-244q0 -26 27 -26q12 0 20 10q15 19 15 115.5t-9 130.5z" />
    <glyph glyph-name="ydieresis" unicode="&#xff;" horiz-adv-x="661" 
d="M372 65v59h-8q-5 -5 -15 -13t-47 -21t-82.5 -13t-80 14.5t-54.5 39t-31 65.5q-19 65 -19 184v138q0 21 59 41.5t124 20.5q87 0 87 -45v-126q0 -200 32 -200q19 0 19 27v282q0 21 63 41.5t135 20.5t72 -39v-473q0 -223 -302 -223q-159 0 -216 31q-25 14 -25 29
q0 24 20 80.5t37 56.5q4 0 28 -6q74 -20 123.5 -20t65 11t15.5 38zM191 600q-52 0 -79 19.5t-27 72t27.5 70.5t79 18t79 -18t27.5 -70.5t-27.5 -72t-79.5 -19.5zM468 600q-52 0 -79 19.5t-27 72t27.5 70.5t79 18t79 -18t27.5 -70.5t-27.5 -72t-79.5 -19.5z" />
    <glyph glyph-name="Amacron" unicode="&#x100;" horiz-adv-x="748" 
d="M290.5 11q-28.5 -11 -102.5 -11t-123.5 13.5t-49.5 34.5q0 24 89 306.5t102 325.5q5 13 80.5 21.5t162 8.5t95.5 -30q189 -628 189 -638t-12 -20q-28 -22 -111 -22q-177 0 -181 42l-7 65h-96l-5 -56q-2 -29 -30.5 -40zM401 297l-15 180h-22l-17 -180h54zM562 730h-405
q-11 0 -19 18.5t-8 49.5t22.5 61.5t42.5 30.5h402q26 0 26 -65q0 -32 -21 -63.5t-40 -31.5z" />
    <glyph glyph-name="amacron" unicode="&#x101;" horiz-adv-x="659" 
d="M220 -9q-91 0 -142 43q-22 18 -37.5 53t-15.5 82t22.5 82t54.5 54t75 31q65 17 143 17h33q0 41 -29 58q-11 7 -35.5 7t-59 -13t-57.5 -26.5t-31 -13.5q-18 0 -49 47.5t-31 86.5q0 13 37 34t104.5 38.5t131.5 17.5t110.5 -10.5t76 -25.5t50 -40t31 -45t16.5 -52
q6 -37 6 -91v-301q0 -11 -53.5 -17.5t-106 -6.5t-68 3t-18.5 7t-5 14l-8 57h-8q-25 -90 -137 -90zM354 157v117q-26 0 -42 -22t-16 -50q0 -66 30 -66q13 0 20.5 6.5t7.5 14.5zM524 610h-405q-11 0 -19 18.5t-8 49.5t22.5 61.5t42.5 30.5h402q26 0 26 -65q0 -32 -21 -63.5
t-40 -31.5z" />
    <glyph glyph-name="Abreve" unicode="&#x102;" horiz-adv-x="748" 
d="M290.5 11q-28.5 -11 -102.5 -11t-123.5 13.5t-49.5 34.5q0 24 89 306.5t102 325.5q5 13 80.5 21.5t162 8.5t95.5 -30q189 -628 189 -638t-12 -20q-28 -22 -111 -22q-177 0 -181 42l-7 65h-96l-5 -56q-2 -29 -30.5 -40zM401 297l-15 180h-22l-17 -180h54zM350 868
q0 -47 23.5 -47t23.5 47q0 32 59.5 32t59.5 -30q0 -75 -37.5 -102.5t-105.5 -27.5t-104.5 26.5t-36.5 103.5q0 30 59 30t59 -32z" />
    <glyph glyph-name="abreve" unicode="&#x103;" horiz-adv-x="659" 
d="M220 -9q-91 0 -142 43q-22 18 -37.5 53t-15.5 82t22.5 82t54.5 54t75 31q65 17 143 17h33q0 41 -29 58q-11 7 -35.5 7t-59 -13t-57.5 -26.5t-31 -13.5q-18 0 -49 47.5t-31 86.5q0 13 37 34t104.5 38.5t131.5 17.5t110.5 -10.5t76 -25.5t50 -40t31 -45t16.5 -52
q6 -37 6 -91v-301q0 -11 -53.5 -17.5t-106 -6.5t-68 3t-18.5 7t-5 14l-8 57h-8q-25 -90 -137 -90zM354 157v117q-26 0 -42 -22t-16 -50q0 -66 30 -66q13 0 20.5 6.5t7.5 14.5zM303 738q0 -47 23.5 -47t23.5 47q0 32 59.5 32t59.5 -30q0 -75 -37.5 -102.5t-105.5 -27.5
t-104.5 26.5t-36.5 103.5q0 30 59 30t59 -32z" />
    <glyph glyph-name="Aogonek" unicode="&#x104;" horiz-adv-x="748" 
d="M290.5 11q-28.5 -11 -102.5 -11t-123.5 13.5t-49.5 34.5q0 24 89 306.5t102 325.5q5 13 80.5 21.5t162 8.5t95.5 -30q189 -628 189 -638t-12 -20q-28 -22 -111 -22q-177 0 -181 42l-7 65h-96l-5 -56q-2 -29 -30.5 -40zM401 297l-15 180h-22l-17 -180h54zM537 38.5
q71 -8.5 71 -16.5t-19 -21.5t-19 -23.5q0 -16 25 -16t51 4.5t31 4.5t13 -12q21 -30 21 -89q0 -13 -49 -18.5t-85 -5.5q-76 0 -125.5 28t-49.5 86q0 29 12 51t24 30l11 7q17 0 88 -8.5z" />
    <glyph glyph-name="aogonek" unicode="&#x105;" horiz-adv-x="659" 
d="M220 -9q-91 0 -142 43q-22 18 -37.5 53t-15.5 82t22.5 82t54.5 54t75 31q65 17 143 17h33q0 41 -29 58q-11 7 -35.5 7t-59 -13t-57.5 -26.5t-31 -13.5q-18 0 -49 47.5t-31 86.5q0 13 37 34t104.5 38.5t131.5 17.5t110.5 -10.5t76 -25.5t50 -40t31 -45t16.5 -52
q6 -37 6 -91v-301q0 -11 -53.5 -17.5t-106 -6.5t-68 3t-18.5 7t-5 14l-8 57h-8q-25 -90 -137 -90zM354 157v117q-26 0 -42 -22t-16 -50q0 -66 30 -66q13 0 20.5 6.5t7.5 14.5zM493 38.5q71 -8.5 71 -16.5t-19 -21.5t-19 -23.5q0 -16 25 -16t51 4.5t31 4.5t13 -12
q21 -30 21 -89q0 -13 -49 -18.5t-85 -5.5q-76 0 -125.5 28t-49.5 86q0 29 12 51t24 30l11 7q17 0 88 -8.5z" />
    <glyph glyph-name="Cacute" unicode="&#x106;" horiz-adv-x="661" 
d="M322.5 -7q-21.5 2 -56.5 10t-64 22t-61.5 41t-54.5 64t-36.5 94t-14.5 138t28.5 151t69 108t93 61.5t92.5 30.5t91 7t97 -6q39 -5 63 -14t43 -28t19 -55t-17.5 -91t-50.5 -55q-10 0 -74 16t-87 16q-35 0 -59.5 -39t-24.5 -111t21.5 -112t56.5 -40q25 0 90.5 20.5
t76.5 20.5q31 0 48.5 -57t17.5 -97q0 -61 -83 -80q-40 -10 -81.5 -13.5t-81 -3.5t-61 2zM478 910q23 0 46.5 -38t23.5 -94q0 -15 -86.5 -26.5t-143.5 -11.5q-19 0 -34.5 24t-15.5 55.5t74.5 61t135.5 29.5z" />
    <glyph glyph-name="cacute" unicode="&#x107;" horiz-adv-x="545" 
d="M308 -9q-48 0 -89 9q-31 6 -55 17t-51.5 33t-45.5 52.5t-30 79t-12 114.5t23 122.5t56 87.5t89 57t125 26q116 0 161.5 -18t45.5 -61t-15.5 -91.5t-40.5 -48.5q-8 0 -48.5 17t-70 17t-45 -23.5t-15.5 -91t14 -92t43.5 -24.5t73.5 20t49 20q19 0 36.5 -45t17.5 -80
q0 -54 -56 -75.5t-160 -21.5zM422 780q23 0 46.5 -38t23.5 -94q0 -15 -86.5 -26.5t-143.5 -11.5q-19 0 -34.5 24t-15.5 55.5t74.5 61t135.5 29.5z" />
    <glyph glyph-name="Ccircumflex" unicode="&#x108;" horiz-adv-x="661" 
d="M322.5 -7q-21.5 2 -56.5 10t-64 22t-61.5 41t-54.5 64t-36.5 94t-14.5 138t28.5 151t69 108t93 61.5t92.5 30.5t91 7t97 -6q39 -5 63 -14t43 -28t19 -55t-17.5 -91t-50.5 -55q-10 0 -74 16t-87 16q-35 0 -59.5 -39t-24.5 -111t21.5 -112t56.5 -40q25 0 90.5 20.5
t76.5 20.5q31 0 48.5 -57t17.5 -97q0 -61 -83 -80q-40 -10 -81.5 -13.5t-81 -3.5t-61 2zM288.5 875.5q73.5 34.5 109 34.5t106.5 -34t71 -46q0 -35 -11 -62.5t-29 -27.5q-14 0 -140 39q-127 -39 -140 -39q-18 0 -29 27.5t-11 62.5q0 11 73.5 45.5z" />
    <glyph glyph-name="ccircumflex" unicode="&#x109;" horiz-adv-x="545" 
d="M308 -9q-48 0 -89 9q-31 6 -55 17t-51.5 33t-45.5 52.5t-30 79t-12 114.5t23 122.5t56 87.5t89 57t125 26q116 0 161.5 -18t45.5 -61t-15.5 -91.5t-40.5 -48.5q-8 0 -48.5 17t-70 17t-45 -23.5t-15.5 -91t14 -92t43.5 -24.5t73.5 20t49 20q19 0 36.5 -45t17.5 -80
q0 -54 -56 -75.5t-160 -21.5zM220.5 745.5q73.5 34.5 109 34.5t106.5 -34t71 -46q0 -35 -11 -62.5t-29 -27.5q-14 0 -140 39q-127 -39 -140 -39q-18 0 -29 27.5t-11 62.5q0 11 73.5 45.5z" />
    <glyph glyph-name="Cdotaccent" unicode="&#x10a;" horiz-adv-x="661" 
d="M322.5 -7q-21.5 2 -56.5 10t-64 22t-61.5 41t-54.5 64t-36.5 94t-14.5 138t28.5 151t69 108t93 61.5t92.5 30.5t91 7t97 -6q39 -5 63 -14t43 -28t19 -55t-17.5 -91t-50.5 -55q-10 0 -74 16t-87 16q-35 0 -59.5 -39t-24.5 -111t21.5 -112t56.5 -40q25 0 90.5 20.5
t76.5 20.5q31 0 48.5 -57t17.5 -97q0 -61 -83 -80q-40 -10 -81.5 -13.5t-81 -3.5t-61 2zM422 909q17 -1 37.5 -5.5t31.5 -13.5q27 -22 27 -68.5t-36.5 -64t-103 -17.5t-103.5 17.5t-37 67.5q0 53 42 71q36 14 80.5 14t61.5 -1z" />
    <glyph glyph-name="cdotaccent" unicode="&#x10b;" horiz-adv-x="545" 
d="M308 -9q-48 0 -89 9q-31 6 -55 17t-51.5 33t-45.5 52.5t-30 79t-12 114.5t23 122.5t56 87.5t89 57t125 26q116 0 161.5 -18t45.5 -61t-15.5 -91.5t-40.5 -48.5q-8 0 -48.5 17t-70 17t-45 -23.5t-15.5 -91t14 -92t43.5 -24.5t73.5 20t49 20q19 0 36.5 -45t17.5 -80
q0 -54 -56 -75.5t-160 -21.5zM357 779q17 -1 37.5 -5.5t31.5 -13.5q27 -22 27 -68.5t-36.5 -64t-103 -17.5t-103.5 17.5t-37 67.5q0 53 42 71q36 14 80.5 14t61.5 -1z" />
    <glyph glyph-name="Ccaron" unicode="&#x10c;" horiz-adv-x="661" 
d="M464.5 -5.5q-41.5 -3.5 -81 -3.5t-61 2t-56.5 10t-64 22t-61.5 41t-54.5 64q-51 86 -51 222q0 91 28.5 161t69 108t93.5 61q83 38 168 38q122 0 175 -20q24 -9 43 -28t19 -55t-17.5 -91t-50.5 -55q-10 0 -74 16t-87 16q-35 0 -59.5 -39t-24.5 -111t21.5 -112t56.5 -40
q25 0 90.5 20.5t76.5 20.5q31 0 48.5 -57t17.5 -92t-21.5 -55.5t-61.5 -30t-81.5 -13zM502 774q-71 -34 -106.5 -34t-109 34.5t-73.5 45.5q0 35 11 62.5t29 27.5q13 0 140 -39q126 39 140 39q18 0 29 -27.5t11 -62.5q0 -12 -71 -46z" />
    <glyph glyph-name="ccaron" unicode="&#x10d;" horiz-adv-x="545" 
d="M164 17q-24 11 -51.5 33t-45.5 52q-42 72 -42 188q0 72 23 128.5t56 87.5t76 51q69 32 138 32q116 0 161.5 -18t45.5 -61t-15.5 -91.5t-40.5 -48.5q-8 0 -48.5 17t-70 17t-45 -23.5t-15.5 -91t14 -92t43.5 -24.5t73.5 20t49 20q19 0 36.5 -45t17.5 -80q0 -54 -56 -75.5
t-151.5 -21.5t-152.5 26zM435 644q-71 -34 -106.5 -34t-109 34.5t-73.5 45.5q0 35 11 62.5t29 27.5q13 0 140 -39q126 39 140 39q18 0 29 -27.5t11 -62.5q0 -12 -71 -46z" />
    <glyph glyph-name="Dcaron" unicode="&#x10e;" horiz-adv-x="741" 
d="M364 0h-236q-49 0 -66 7t-17 23v631q0 26 22 37.5t76 11.5h225q192 0 265 -75.5t73 -274.5t-76 -279.5t-266 -80.5zM356 561q-24 0 -32 -4v-404l38 -4q30 0 45.5 48t15.5 166t-16 158t-51 40zM468 774q-71 -34 -106.5 -34t-109 34.5t-73.5 45.5q0 35 11 62.5t29 27.5
q13 0 140 -39q126 39 140 39q18 0 29 -27.5t11 -62.5q0 -12 -71 -46z" />
    <glyph glyph-name="dcaron" unicode="&#x10f;" horiz-adv-x="928" 
d="M223 -9q-37 0 -69 11t-52.5 27t-35.5 43t-23 51.5t-12 60.5q-6 53 -6 121q0 139 51 211.5t140 72.5q91 0 132 -43q9 -10 14 -24h8l-12 69v125q0 22 56 43t121 21q68 0 87 -26q7 -10 7 -20v-710q0 -11 -55.5 -17.5t-107 -6.5t-66 3.5t-18 7.5t-4.5 13l-8 57h-8
q-9 -35 -36 -59q-34 -31 -103 -31zM335 137q16 0 24 20v267q0 10 -10.5 15.5t-18.5 5.5q-34 0 -34 -156q0 -83 9.5 -117.5t29.5 -34.5zM744 437q-29 0 -42 47q-13 50 -15 100q-3 74 -3 143q0 53 162 53q28 0 35 -36t7 -124q0 -183 -144 -183z" />
    <glyph glyph-name="Dcroat" unicode="&#x110;" horiz-adv-x="776" 
d="M80 273h-43q-11 0 -19 18.5t-8 53t22 70t43 35.5h5v211q0 26 22 37.5t76 11.5h225q192 0 265 -75.5t73 -274.5t-76 -279.5t-266 -80.5h-236q-49 0 -66 7t-17 23v243zM391 561q-24 0 -32 -4v-107h40q26 0 26 -65q0 -33 -21 -72.5t-40 -39.5h-5v-121q15 -3 38 -3
q30 0 45.5 48t15.5 166t-16 158t-51 40z" />
    <glyph glyph-name="dcroat" unicode="&#x111;" horiz-adv-x="705" 
d="M634 590h-5v-566q0 -11 -55.5 -17.5t-107 -6.5t-66 3.5t-18 7.5t-4.5 13l-8 57h-8q-9 -35 -36 -59q-13 -12 -39.5 -21.5t-63.5 -9.5t-69 11t-52.5 27t-35.5 43t-23 51.5t-12 60.5q-6 53 -6 129t13 133t39.5 87.5t59.5 43t74 12.5t69.5 -7t43.5 -16q29 -20 36 -37l2 -7h8
v68h-38q-27 0 -27 61q0 35 22 65.5t43 30.5h17q62 33 142.5 33t96.5 -33h43q26 0 26 -55q0 -33 -21 -67.5t-40 -34.5zM335 137q16 0 24 20v267q0 10 -10.5 15.5t-18.5 5.5q-34 0 -34 -156q0 -83 9.5 -117.5t29.5 -34.5z" />
    <glyph glyph-name="Emacron" unicode="&#x112;" horiz-adv-x="615" 
d="M552 0h-424q-49 0 -66 7t-17 22v633q0 26 23.5 37t84.5 11h402q21 0 21 -69.5t-9 -106t-24 -36.5q-65 0 -219 13v-67q148 6 193 6q27 0 27 -63t-10.5 -95.5t-28.5 -32.5l-181 4v-64q174 13 240 13q21 0 21 -70t-9 -106t-24 -36zM491 730h-405q-11 0 -19 18.5t-8 49.5
t22.5 61.5t42.5 30.5h402q26 0 26 -65q0 -32 -21 -63.5t-40 -31.5z" />
    <glyph glyph-name="emacron" unicode="&#x113;" horiz-adv-x="640" 
d="M298 226q0 -65 62 -65q36 0 94 24.5t61 24.5q19 0 50 -57t31 -84q0 -39 -80 -59t-156.5 -20t-128 12t-84 30.5t-57 45.5t-36.5 51.5t-19 54.5q-10 44 -10 91q0 182 95 251q47 35 105 49t137 14q253 0 253 -176q0 -187 -284 -187h-33zM296 372v-66q29 0 47.5 23t18.5 56
q0 60 -31 60q-35 0 -35 -73zM515 610h-405q-11 0 -19 18.5t-8 49.5t22.5 61.5t42.5 30.5h402q26 0 26 -65q0 -32 -21 -63.5t-40 -31.5z" />
    <glyph glyph-name="Ebreve" unicode="&#x114;" horiz-adv-x="615" 
d="M552 0h-424q-49 0 -66 7t-17 22v633q0 26 23.5 37t84.5 11h402q21 0 21 -69.5t-9 -106t-24 -36.5q-65 0 -219 13v-67q148 6 193 6q27 0 27 -63t-10.5 -95.5t-28.5 -32.5l-181 4v-64q174 13 240 13q21 0 21 -70t-9 -106t-24 -36zM300 868q0 -47 23.5 -47t23.5 47
q0 32 59.5 32t59.5 -30q0 -75 -37.5 -102.5t-105.5 -27.5t-104.5 26.5t-36.5 103.5q0 30 59 30t59 -32z" />
    <glyph glyph-name="ebreve" unicode="&#x115;" horiz-adv-x="640" 
d="M298 226q0 -65 62 -65q36 0 94 24.5t61 24.5q19 0 50 -57t31 -84q0 -39 -80 -59t-156.5 -20t-128 12t-84 30.5t-57 45.5t-36.5 51.5t-19 54.5q-10 44 -10 91q0 182 95 251q47 35 105 49t137 14q253 0 253 -176q0 -187 -284 -187h-33zM296 372v-66q29 0 47.5 23t18.5 56
q0 60 -31 60q-35 0 -35 -73zM325 738q0 -47 23.5 -47t23.5 47q0 32 59.5 32t59.5 -30q0 -75 -37.5 -102.5t-105.5 -27.5t-104.5 26.5t-36.5 103.5q0 30 59 30t59 -32z" />
    <glyph glyph-name="Edotaccent" unicode="&#x116;" horiz-adv-x="615" 
d="M552 0h-424q-49 0 -66 7t-17 22v633q0 26 23.5 37t84.5 11h402q21 0 21 -69.5t-9 -106t-24 -36.5q-65 0 -219 13v-67q148 6 193 6q27 0 27 -63t-10.5 -95.5t-28.5 -32.5l-181 4v-64q174 13 240 13q21 0 21 -70t-9 -106t-24 -36zM366 909q17 -1 37.5 -5.5t31.5 -13.5
q27 -22 27 -68.5t-36.5 -64t-103 -17.5t-103.5 17.5t-37 67.5q0 53 42 71q36 14 80.5 14t61.5 -1z" />
    <glyph glyph-name="edotaccent" unicode="&#x117;" horiz-adv-x="640" 
d="M298 226q0 -65 62 -65q36 0 94 24.5t61 24.5q19 0 50 -57t31 -84q0 -39 -80 -59t-156.5 -20t-128 12t-84 30.5t-57 45.5t-36.5 51.5t-19 54.5q-10 44 -10 91q0 182 95 251q47 35 105 49t137 14q253 0 253 -176q0 -187 -284 -187h-33zM296 372v-66q29 0 47.5 23t18.5 56
q0 60 -31 60q-35 0 -35 -73zM384 779q17 -1 37.5 -5.5t31.5 -13.5q27 -22 27 -68.5t-36.5 -64t-103 -17.5t-103.5 17.5t-37 67.5q0 53 42 71q36 14 80.5 14t61.5 -1z" />
    <glyph glyph-name="Eogonek" unicode="&#x118;" horiz-adv-x="615" 
d="M552 0h-424q-49 0 -66 7t-17 22v633q0 26 23.5 37t84.5 11h402q21 0 21 -69.5t-9 -106t-24 -36.5q-65 0 -219 13v-67q148 6 193 6q27 0 27 -63t-10.5 -95.5t-28.5 -32.5l-181 4v-64q174 13 240 13q21 0 21 -70t-9 -106t-24 -36zM334.5 -127q-49.5 28 -49.5 87t47 87
q17 0 88 -8.5t71 -16.5t-19 -21.5t-19 -23.5q0 -16 25 -16t51 4.5t31 4.5t13 -12q21 -30 21 -89q0 -13 -49 -18.5t-85 -5.5q-76 0 -125.5 28z" />
    <glyph glyph-name="eogonek" unicode="&#x119;" horiz-adv-x="640" 
d="M298 226h33q284 0 284 187q0 176 -253 176q-79 0 -137 -14t-105 -49q-95 -69 -95 -251q0 -47 10 -91q7 -30 19 -54.5t36.5 -51.5t57 -45.5t84 -30.5t128 -12t156.5 20t80 59q0 27 -31 84t-50 57q-3 0 -61 -24.5t-94 -24.5q-62 0 -62 65zM296 372q0 73 35 73q31 0 31 -60
q0 -33 -18.5 -56t-47.5 -23v66zM341 38.5q71 -8.5 71 -16.5t-19 -21.5t-19 -23.5q0 -16 25 -16t51 4.5t31 4.5t13 -12q21 -30 21 -89q0 -13 -49 -18.5t-85 -5.5q-76 0 -125.5 28t-49.5 86q0 29 12 51t24 30l11 7q17 0 88 -8.5z" />
    <glyph glyph-name="Ecaron" unicode="&#x11a;" horiz-adv-x="615" 
d="M552 0h-424q-49 0 -66 7t-17 22v633q0 26 23.5 37t84.5 11h402q21 0 21 -69.5t-9 -106t-24 -36.5q-65 0 -219 13v-67q148 6 193 6q27 0 27 -63t-10.5 -95.5t-28.5 -32.5l-181 4v-64q174 13 240 13q21 0 21 -70t-9 -106t-24 -36zM430 774q-71 -34 -106.5 -34t-109 34.5
t-73.5 45.5q0 35 11 62.5t29 27.5q13 0 140 -39q126 39 140 39q18 0 29 -27.5t11 -62.5q0 -12 -71 -46z" />
    <glyph glyph-name="ecaron" unicode="&#x11b;" horiz-adv-x="640" 
d="M298 226q0 -65 62 -65q36 0 94 24.5t61 24.5q19 0 50 -57t31 -84q0 -39 -80 -59t-156.5 -20t-128 12t-84 30.5t-57 45.5t-36.5 51.5t-19 54.5q-10 44 -10 91q0 182 95 251q47 35 105 49t137 14q253 0 253 -176q0 -187 -284 -187h-33zM296 372v-66q29 0 47.5 23t18.5 56
q0 60 -31 60q-35 0 -35 -73zM441 644q-71 -34 -106.5 -34t-109 34.5t-73.5 45.5q0 35 11 62.5t29 27.5q13 0 140 -39q126 39 140 39q18 0 29 -27.5t11 -62.5q0 -12 -71 -46z" />
    <glyph glyph-name="Gcircumflex" unicode="&#x11c;" horiz-adv-x="679" 
d="M262 -8q-34 0 -63 7t-60.5 29.5t-53.5 59.5t-36 101.5t-14 154.5t25 161t63 110.5t91 64.5t99 32.5t98 7.5q120 0 169 -20.5t49 -78.5q0 -46 -17 -99.5t-50 -53.5q-8 0 -68 15.5t-90 15.5q-86 0 -86 -145q0 -73 20 -108.5t50 -39.5v90q0 25 51 46t115 21t84 -26
q11 -15 11 -29v-277q0 -13 -52.5 -21t-109 -8t-71.5 5.5t-17 30.5l-7 59h-8q-7 -43 -35.5 -74t-86.5 -31zM287.5 875.5q73.5 34.5 109 34.5t106.5 -34t71 -46q0 -35 -11 -62.5t-29 -27.5q-14 0 -140 39q-127 -39 -140 -39q-18 0 -29 27.5t-11 62.5q0 11 73.5 45.5z" />
    <glyph glyph-name="gcircumflex" unicode="&#x11d;" horiz-adv-x="659" 
d="M369 124h-8l-13 -12q-13 -11 -51.5 -22.5t-89.5 -11.5q-91 0 -135 52q-19 23 -30 61t-14 73.5t-3 93.5t17 111q12 35 31.5 60t57 42.5t80.5 17.5t71 -9.5t41.5 -21.5t23.5 -30t10 -29h8l9 39q10 42 158 42q66 0 80 -20q8 -12 10 -22.5t2 -31.5v-419q0 -118 -77 -180
t-226 -62q-79 0 -135 9q-105 17 -105 51q0 24 19.5 81t36.5 57q4 0 28 -6.5t60 -13.5t73.5 -7t54 12t16.5 38v58zM332 445q-38 0 -38 -125q0 -58 9.5 -93t25.5 -35q8 0 16.5 6t8.5 20v206q-6 21 -22 21zM250.5 745.5q73.5 34.5 109 34.5t106.5 -34t71 -46q0 -35 -11 -62.5
t-29 -27.5q-14 0 -140 39q-127 -39 -140 -39q-18 0 -29 27.5t-11 62.5q0 11 73.5 45.5z" />
    <glyph glyph-name="Gbreve" unicode="&#x11e;" horiz-adv-x="679" 
d="M262 -8q-34 0 -63 7t-60.5 29.5t-53.5 59.5q-50 84 -50 253q0 93 25 164t63 110.5t91 64.5t99 32.5t98 7.5q120 0 169 -20.5t49 -78.5q0 -46 -17 -99.5t-50 -53.5q-8 0 -68 15.5t-90 15.5q-86 0 -86 -145q0 -73 20 -108.5t50 -39.5v90q0 25 51 46t98 21t68.5 -6t29.5 -17
q14 -18 14 -32v-277q0 -13 -52.5 -21t-109 -8t-71.5 5.5t-17 30.5l-7 59h-8q-7 -43 -35.5 -74t-86.5 -31zM377 868q0 -47 23.5 -47t23.5 47q0 32 59.5 32t59.5 -30q0 -75 -37.5 -102.5t-105.5 -27.5t-104.5 26.5t-36.5 103.5q0 30 59 30t59 -32z" />
    <glyph glyph-name="gbreve" unicode="&#x11f;" horiz-adv-x="659" 
d="M369 66v58h-8q-4 -5 -14 -12.5t-49.5 -20.5t-89 -13t-83.5 15t-53 37.5t-30 60.5q-17 59 -17 160q0 116 49 178q19 25 56.5 42.5t80.5 17.5t71 -9.5t42 -22.5q28 -28 32 -49l1 -9h8l9 39q10 42 158 42q66 0 80 -20q8 -12 10 -22.5t2 -31.5v-419q0 -118 -77 -180t-226 -62
q-158 0 -215 31q-25 14 -25 29q0 24 19.5 81t36.5 57q4 0 28 -7q76 -20 123.5 -20t64 12t16.5 38zM329 192q11 0 18 8t7 18v206q-4 21 -22 21q-38 0 -38 -125q0 -58 9.5 -93t25.5 -35zM335 738q0 -47 23.5 -47t23.5 47q0 32 59.5 32t59.5 -30q0 -75 -37.5 -102.5
t-105.5 -27.5t-104.5 26.5t-36.5 103.5q0 30 59 30t59 -32z" />
    <glyph glyph-name="Gdotaccent" unicode="&#x120;" horiz-adv-x="679" 
d="M262 -8q-34 0 -63 7t-60.5 29.5t-53.5 59.5t-36 101.5t-14 154.5t25 161t63 110.5t91 64.5t99 32.5t98 7.5q120 0 169 -20.5t49 -78.5q0 -46 -17 -99.5t-50 -53.5q-8 0 -68 15.5t-90 15.5q-86 0 -86 -145q0 -73 20 -108.5t50 -39.5v90q0 25 51 46t115 21t84 -26
q11 -15 11 -29v-277q0 -13 -52.5 -21t-109 -8t-71.5 5.5t-17 30.5l-7 59h-8q-7 -43 -35.5 -74t-86.5 -31zM446 909q17 -1 37.5 -5.5t31.5 -13.5q27 -22 27 -68.5t-36.5 -64t-103 -17.5t-103.5 17.5t-37 67.5q0 53 42 71q36 14 80.5 14t61.5 -1z" />
    <glyph glyph-name="gdotaccent" unicode="&#x121;" horiz-adv-x="659" 
d="M369 124h-8l-13 -12q-13 -11 -51.5 -22.5t-89.5 -11.5q-91 0 -135 52q-19 23 -30 61t-14 73.5t-3 93.5t17 111q12 35 31.5 60t57 42.5t80.5 17.5t71 -9.5t41.5 -21.5t23.5 -30t10 -29h8l9 39q10 42 158 42q66 0 80 -20q8 -12 10 -22.5t2 -31.5v-419q0 -118 -77 -180
t-226 -62q-79 0 -135 9q-105 17 -105 51q0 24 19.5 81t36.5 57q4 0 28 -6.5t60 -13.5t73.5 -7t54 12t16.5 38v58zM332 445q-38 0 -38 -125q0 -58 9.5 -93t25.5 -35q8 0 16.5 6t8.5 20v206q-6 21 -22 21zM386 779q17 -1 37.5 -5.5t31.5 -13.5q27 -22 27 -68.5t-36.5 -64
t-103 -17.5t-103.5 17.5t-37 67.5q0 53 42 71q36 14 80.5 14t61.5 -1z" />
    <glyph glyph-name="Hcircumflex" unicode="&#x124;" horiz-adv-x="737" 
d="M263.5 8q-60.5 -8 -122 -8t-79 7t-17.5 22v615q0 25 58 45.5t126 20.5q95 0 95 -45v-220h89v199q0 25 58.5 45.5t126.5 20.5q94 0 94 -45v-636q0 -13 -61 -21t-122 -8t-78.5 7t-17.5 22v229h-89v-229q0 -13 -60.5 -21zM261.5 875.5q73.5 34.5 109 34.5t106.5 -34t71 -46
q0 -35 -11 -62.5t-29 -27.5q-14 0 -140 39q-127 -39 -140 -39q-18 0 -29 27.5t-11 62.5q0 11 73.5 45.5z" />
    <glyph glyph-name="hcircumflex" unicode="&#x125;" horiz-adv-x="665" 
d="M379.5 746q58.5 34 93.5 34t91.5 -33.5t56.5 -46.5q0 -35 -11 -62.5t-29 -27.5q-14 0 -110 39q-97 -39 -110 -39q-18 0 -29 27.5t-11 62.5q0 12 58.5 46zM360 24v278q0 75 -6 109t-29 34q-20 0 -20 -27v-394q0 -11 -58 -17.5t-119 -6.5t-77 5.5t-16 18.5v693q0 21 58 42
t122 21q67 0 85 -25q6 -8 6 -17v-147l-11 -69h7q14 21 44 37q56 30 122 30q95 0 128.5 -60.5t33.5 -196.5v-308q0 -11 -58.5 -17.5t-119 -6.5t-76.5 5.5t-16 18.5z" />
    <glyph glyph-name="hbar" unicode="&#x127;" horiz-adv-x="665" 
d="M365 24v278q0 75 -6 109t-29 34q-20 0 -20 -27v-394q0 -11 -58 -17.5t-119 -6.5t-77 5.5t-16 18.5v693q0 21 58 42t122 21q67 0 85 -25q6 -8 6 -17v-147l-11 -69h7q14 21 44 37q56 30 122 30q95 0 128.5 -60.5t33.5 -196.5v-308q0 -11 -58.5 -17.5t-119 -6.5t-76.5 5.5
t-16 18.5zM378 590h-405q-11 0 -19 18.5t-8 49.5t22.5 61.5t42.5 30.5h402q26 0 26 -65q0 -32 -21 -63.5t-40 -31.5z" />
    <glyph glyph-name="Itilde" unicode="&#x128;" horiz-adv-x="369" 
d="M263 6.5q-61 -6.5 -122.5 -6.5t-78.5 5.5t-17 18.5v622q0 22 58 43.5t130 21.5q64 0 83 -27q8 -10 8 -20v-640q0 -11 -61 -17.5zM379.5 762q-51.5 -32 -90 -32t-92 17.5t-69 17.5t-59.5 -17.5t-62 -17.5t-37.5 35.5t-19.5 54.5q0 17 54.5 48.5t90.5 31.5t88.5 -17
t75.5 -17q7 0 49.5 17t62 17t40 -37t20.5 -54q0 -15 -51.5 -47z" />
    <glyph glyph-name="itilde" unicode="&#x129;" horiz-adv-x="341" 
d="M306 534v-510q0 -11 -57.5 -17.5t-118 -6.5t-78 5.5t-17.5 18.5v492q0 22 57 43t123 21q91 0 91 -46zM359.5 642q-51.5 -32 -90 -32t-92 17.5t-69 17.5t-59.5 -17.5t-62 -17.5t-37.5 35.5t-19.5 54.5q0 17 54.5 48.5t90.5 31.5t88.5 -17t75.5 -17q7 0 49.5 17t62 17
t40 -37t20.5 -54q0 -15 -51.5 -47z" />
    <glyph glyph-name="Imacron" unicode="&#x12a;" horiz-adv-x="463" 
d="M417 730h-405q-11 0 -19 18.5t-8 49.5t22.5 61.5t42.5 30.5h402q26 0 26 -65q0 -32 -21 -63.5t-40 -31.5zM308 6.5q-61 -6.5 -122.5 -6.5t-78.5 5.5t-17 18.5v622q0 22 58 43.5t130 21.5q64 0 84 -27q7 -10 7 -20v-640q0 -11 -61 -17.5z" />
    <glyph glyph-name="imacron" unicode="&#x12b;" horiz-adv-x="463" 
d="M417 610h-405q-11 0 -19 18.5t-8 49.5t22.5 61.5t42.5 30.5h402q26 0 26 -65q0 -32 -21 -63.5t-40 -31.5zM365 544v-520q0 -11 -57.5 -17.5t-118 -6.5t-78 5.5t-17.5 18.5v502q0 22 57 43t123 21q91 0 91 -46z" />
    <glyph glyph-name="Ibreve" unicode="&#x12c;" horiz-adv-x="369" 
d="M263 6.5q-61 -6.5 -122.5 -6.5t-78.5 5.5t-17 18.5v622q0 22 58 43.5t130 21.5q64 0 83 -27q8 -10 8 -20v-640q0 -11 -61 -17.5zM160 868q0 -47 23.5 -47t23.5 47q0 32 59.5 32t59.5 -30q0 -75 -37.5 -102.5t-105.5 -27.5t-104.5 26.5t-36.5 103.5q0 30 59 30t59 -32z
" />
    <glyph glyph-name="ibreve" unicode="&#x12d;" horiz-adv-x="341" 
d="M306 534v-510q0 -11 -57.5 -17.5t-118 -6.5t-78 5.5t-17.5 18.5v492q0 22 57 43t123 21q91 0 91 -46zM147 738q0 -47 23.5 -47t23.5 47q0 32 59.5 32t59.5 -30q0 -75 -37.5 -102.5t-105.5 -27.5t-104.5 26.5t-36.5 103.5q0 30 59 30t59 -32z" />
    <glyph glyph-name="Iogonek" unicode="&#x12e;" horiz-adv-x="369" 
d="M263 6.5q61 6.5 61 17.5v640q0 10 -8 20q-19 27 -83 27q-72 0 -130 -21.5t-58 -43.5v-622q0 -13 17 -18.5t78.5 -5.5t122.5 6.5zM79.5 -127q-49.5 28 -49.5 87t47 87q17 0 88 -8.5t71 -16.5t-19 -21.5t-19 -23.5q0 -16 25 -16t51 4.5t31 4.5t13 -12q21 -30 21 -89
q0 -13 -49 -18.5t-85 -5.5q-76 0 -125.5 28z" />
    <glyph glyph-name="iogonek" unicode="&#x12f;" horiz-adv-x="350" 
d="M310 517q0 47 -91 47q-67 0 -123.5 -21.5t-56.5 -43.5v-475q0 -13 17.5 -18.5t78 -5.5t118 6.5t57.5 17.5v493zM174 780q66 0 103.5 -19.5t37.5 -70.5q0 -90 -140 -90t-140 90t139 90zM68.5 -127q-49.5 28 -49.5 87t47 87q17 0 88 -8.5t71 -16.5t-19 -21.5t-19 -23.5
q0 -16 25 -16t51 4.5t31 4.5t13 -12q21 -30 21 -89q0 -13 -49 -18.5t-85 -5.5q-76 0 -125.5 28z" />
    <glyph glyph-name="dotlessi" unicode="&#x131;" horiz-adv-x="341" 
d="M306 534v-510q0 -11 -57.5 -17.5t-118 -6.5t-78 5.5t-17.5 18.5v492q0 22 57 43t123 21q91 0 91 -46z" />
    <glyph glyph-name="IJ" unicode="&#x132;" horiz-adv-x="789" 
d="M263 6.5q-61 -6.5 -122.5 -6.5t-78.5 5.5t-17 18.5v622q0 22 58 43.5t130 21.5q64 0 83 -27q8 -10 8 -20v-640q0 -11 -61 -17.5zM630.5 -121.5q-37.5 -13.5 -85 -13.5t-69.5 1.5t-46.5 8t-38.5 17.5q-32 27 -32 84q0 82 42 82q13 0 20 4q19 9 19 62v521q0 22 57.5 43.5
t122.5 21.5q99 0 99 -47v-553q0 -69 -6 -110t-25.5 -74.5t-57 -47z" />
    <glyph glyph-name="ij" unicode="&#x133;" horiz-adv-x="765" 
d="M315 517v-493q0 -11 -57.5 -17.5t-118 -6.5t-78 5.5t-17.5 18.5v475q0 22 56.5 43.5t123.5 21.5q91 0 91 -47zM179 780q66 0 103.5 -19.5t37.5 -70.5q0 -90 -140 -90t-140 90t139 90zM641.5 -94q-55.5 -61 -152.5 -61t-124.5 18.5t-27.5 83t25 67.5q35 5 49.5 18t14.5 48
v419q0 22 56.5 43.5t122.5 21.5q92 0 92 -47v-427q0 -123 -55.5 -184zM562 600q-140 0 -140 91q0 51 37.5 70t104.5 19t102.5 -17.5t35.5 -69.5q0 -93 -140 -93z" />
    <glyph glyph-name="Jcircumflex" unicode="&#x134;" horiz-adv-x="420" 
d="M132.5 825.5q73.5 34.5 109 34.5t106.5 -34t71 -46q0 -35 -11 -62.5t-29 -27.5q-14 0 -140 39q-127 -39 -140 -39q-18 0 -29 27.5t-11 62.5q0 11 73.5 45.5zM286.5 -121.5q-37.5 -13.5 -85 -13.5t-69.5 1.5t-46.5 8t-38.5 17.5q-32 27 -32 84q0 82 42 82q13 0 20 4
q19 9 19 62v471q0 22 57.5 43.5t122.5 21.5q99 0 99 -47v-503q0 -69 -6 -110t-25.5 -74.5t-57 -47z" />
    <glyph glyph-name="jcircumflex" unicode="&#x135;" horiz-adv-x="371" 
d="M228.5 -145q-34.5 -10 -97 -10t-92 25.5t-29.5 80t25 63.5q17 6 21 18.5t4 47.5v419q0 22 56.5 43.5t122.5 21.5q92 0 92 -47v-427q0 -57 -3 -91t-13.5 -67t-31 -50t-55 -27zM88.5 745.5q73.5 34.5 109 34.5t106.5 -34t71 -46q0 -35 -11 -62.5t-29 -27.5q-14 0 -140 39
q-127 -39 -140 -39q-18 0 -29 27.5t-11 62.5q0 11 73.5 45.5z" />
    <glyph glyph-name="Lacute" unicode="&#x139;" horiz-adv-x="549" 
d="M129 0q-50 0 -67 5.5t-17 18.5v622q0 22 58 43.5t130 21.5q64 0 83 -27q8 -10 8 -20v-443q122 8 184 8q21 0 21 -66.5t-9 -114.5t-24 -48h-367zM342 910q23 0 46.5 -38t23.5 -94q0 -15 -86.5 -26.5t-143.5 -11.5q-19 0 -34.5 24t-15.5 55.5t74.5 61t135.5 29.5z" />
    <glyph glyph-name="lacute" unicode="&#x13a;" horiz-adv-x="340" 
d="M305 734v-710q0 -11 -57 -17.5t-117.5 -6.5t-78 5.5t-17.5 18.5v692q0 22 56.5 43t121.5 21q92 0 92 -46zM290 970q23 0 46.5 -38t23.5 -94q0 -15 -86.5 -26.5t-143.5 -11.5q-19 0 -34.5 24t-15.5 55.5t74.5 61t135.5 29.5z" />
    <glyph glyph-name="Lcaron" unicode="&#x13d;" horiz-adv-x="600" 
d="M129 0q-50 0 -67 5.5t-17 18.5v622q0 22 58 43.5t130 21.5q64 0 83 -27q8 -10 8 -20v-443q122 8 184 8q21 0 21 -66.5t-9 -114.5t-24 -48h-367zM416 367q-29 0 -42 47q-13 50 -15 100q-3 74 -3 143q0 53 162 53q28 0 35 -36t7 -124q0 -183 -144 -183z" />
    <glyph glyph-name="lcaron" unicode="&#x13e;" horiz-adv-x="610" 
d="M305 734v-710q0 -11 -57 -17.5t-117.5 -6.5t-78 5.5t-17.5 18.5v692q0 22 56.5 43t121.5 21q92 0 92 -46zM436 437q-29 0 -42 47q-13 50 -15 100q-3 74 -3 143q0 53 162 53q28 0 35 -36t7 -124q0 -183 -144 -183z" />
    <glyph glyph-name="Ldot" unicode="&#x13f;" horiz-adv-x="607" 
d="M129 0q-50 0 -67 5.5t-17 18.5v622q0 22 58 43.5t130 21.5q64 0 83 -27q8 -10 8 -20v-443q122 8 184 8q21 0 21 -66.5t-9 -114.5t-24 -48h-367zM550 330q-27 -22 -79.5 -22t-79.5 22t-27 81t27.5 78.5t79.5 19.5t79 -19.5t27 -78.5t-27 -81z" />
    <glyph glyph-name="ldot" unicode="&#x140;" horiz-adv-x="608" 
d="M305 734v-710q0 -11 -57 -17.5t-117.5 -6.5t-78 5.5t-17.5 18.5v692q0 22 56.5 43t121.5 21q92 0 92 -46zM551 330q-27 -22 -79.5 -22t-79.5 22t-27 81t27.5 78.5t79.5 19.5t79 -19.5t27 -78.5t-27 -81z" />
    <glyph glyph-name="Lslash" unicode="&#x141;" horiz-adv-x="611" 
d="M191 0q-50 0 -67 5.5t-17 18.5v289h-70q-11 0 -19 18.5t-8 53t22 70t43 35.5h32v156q0 22 58 43.5t130 21.5q64 0 83 -27q8 -10 8 -20v-174h101q26 0 26 -65q0 -33 -21 -72.5t-40 -39.5h-66v-92q122 8 184 8q21 0 21 -66.5t-9 -114.5t-24 -48h-367z" />
    <glyph glyph-name="lslash" unicode="&#x142;" horiz-adv-x="553" 
d="M354 6.5q-57 -6.5 -117.5 -6.5t-78 5.5t-17.5 18.5v286h-104q-11 0 -19 18.5t-8 53t22 70t43 35.5h66v229q0 22 56.5 43t121.5 21q92 0 92 -46v-247h106q26 0 26 -65q0 -33 -21 -72.5t-40 -39.5h-71v-286q0 -11 -57 -17.5z" />
    <glyph glyph-name="Nacute" unicode="&#x143;" horiz-adv-x="744" 
d="M262.5 8q-61.5 -8 -122.5 -8t-78 7t-17 22v614q0 25 57.5 46t130.5 21q26 0 39 -2q34 -5 48 -43l96 -258h4v236q0 25 57 46t130 21q63 0 79 -24q13 -17 13 -31v-626q0 -13 -61.5 -21t-135 -8t-80.5 19l-93 246h-5v-236q0 -13 -61.5 -21zM462 910q23 0 46.5 -38t23.5 -94
q0 -15 -86.5 -26.5t-143.5 -11.5q-19 0 -34.5 24t-15.5 55.5t74.5 61t135.5 29.5z" />
    <glyph glyph-name="nacute" unicode="&#x144;" horiz-adv-x="673" 
d="M638 332v-308q0 -11 -57 -17.5t-117.5 -6.5t-78 5.5t-17.5 18.5v318q0 45 -3.5 59t-6.5 25q-7 19 -25 19q-28 0 -28 -27v-394q0 -11 -56.5 -17.5t-117 -6.5t-78.5 5.5t-18 18.5v493q0 21 57.5 42t121.5 21t72 -37l9 -44h7q29 58 100 81q29 9 64 9q101 0 136.5 -60.5
t35.5 -196.5zM426 780q23 0 46.5 -38t23.5 -94q0 -15 -86.5 -26.5t-143.5 -11.5q-19 0 -34.5 24t-15.5 55.5t74.5 61t135.5 29.5z" />
    <glyph glyph-name="Ncaron" unicode="&#x147;" horiz-adv-x="744" 
d="M262.5 8q-61.5 -8 -122.5 -8t-78 7t-17 22v614q0 25 57.5 46t130.5 21q26 0 39 -2q34 -5 48 -43l96 -258h4v236q0 25 57 46t130 21q63 0 79 -24q13 -17 13 -31v-626q0 -13 -61.5 -21t-135 -8t-80.5 19l-93 246h-5v-236q0 -13 -61.5 -21zM481 774q-71 -34 -106.5 -34
t-109 34.5t-73.5 45.5q0 35 11 62.5t29 27.5q13 0 140 -39q126 39 140 39q18 0 29 -27.5t11 -62.5q0 -12 -71 -46z" />
    <glyph glyph-name="ncaron" unicode="&#x148;" horiz-adv-x="673" 
d="M638 332v-308q0 -11 -57 -17.5t-117.5 -6.5t-78 5.5t-17.5 18.5v318q0 45 -3.5 59t-6.5 25q-7 19 -25 19q-28 0 -28 -27v-394q0 -11 -56.5 -17.5t-117 -6.5t-78.5 5.5t-18 18.5v493q0 21 57.5 42t121.5 21t72 -37l9 -44h7q29 58 100 81q29 9 64 9q101 0 136.5 -60.5
t35.5 -196.5zM445 644q-71 -34 -106.5 -34t-109 34.5t-73.5 45.5q0 35 11 62.5t29 27.5q13 0 140 -39q126 39 140 39q18 0 29 -27.5t11 -62.5q0 -12 -71 -46z" />
    <glyph glyph-name="Eng" unicode="&#x14a;" horiz-adv-x="744" 
d="M610.5 -141.5q-37.5 -13.5 -85 -13.5t-69.5 1.5t-46.5 8t-38.5 17.5q-32 27 -32 84q0 82 42 82q12 0 19 4q20 9 20 60l-111 163h-5v-236q0 -13 -52.5 -21t-112.5 -8t-77 7t-17 22v614q0 25 57.5 46t112 21t72.5 -7.5t33 -37.5l96 -188h4v166q0 25 57 46t130 21
q63 0 79 -24q13 -17 13 -31v-565q0 -69 -6 -110t-25.5 -74.5t-57 -47z" />
    <glyph glyph-name="eng" unicode="&#x14b;" horiz-adv-x="673" 
d="M451 -155q-74 0 -103.5 25.5t-29.5 80t25 63.5q17 6 21 18.5t4 47.5v262q0 45 -3.5 59t-6.5 25q-7 19 -25 19q-28 0 -28 -27v-394q0 -11 -56.5 -17.5t-117 -6.5t-78.5 5.5t-18 18.5v493q0 21 57.5 42t121.5 21t72 -37l9 -44h7q29 58 100 81q29 9 64 9q101 0 136.5 -60.5
t35.5 -196.5v-301q0 -95 -45 -140.5t-142 -45.5z" />
    <glyph glyph-name="Omacron" unicode="&#x14c;" horiz-adv-x="776" 
d="M388 -9q-83 0 -142.5 15.5t-109.5 55.5q-101 79 -101 303q0 94 27.5 164t76.5 111q96 80 249 80q79 0 137.5 -14t110.5 -51q105 -76 105 -290q0 -192 -95 -283t-258 -91zM388 148q21 0 33 14.5t20 62t8 132.5t-8 131t-20 60t-33 14t-33 -14t-20 -60t-8 -131t8 -132.5
t20 -62t33 -14.5zM574 740h-405q-11 0 -19 18.5t-8 49.5t22.5 61.5t42.5 30.5h402q26 0 26 -65q0 -32 -21 -63.5t-40 -31.5z" />
    <glyph glyph-name="omacron" unicode="&#x14d;" horiz-adv-x="685" 
d="M343 -9q-75 0 -129 13t-98 46q-91 66 -91 246q0 160 93 229q87 64 225 64q59 0 101 -5.5t85.5 -23.5t70 -49t43.5 -85.5t17 -129.5q0 -152 -86 -228.5t-231 -76.5zM322.5 143q7.5 -7 20 -7t20 7t14 43t6.5 90.5t-2.5 84t-6 45.5t-9.5 25q-9 13 -21.5 13t-20.5 -7.5
t-15 -44t-7 -103.5t7 -103t14.5 -43zM530 610h-405q-11 0 -19 18.5t-8 49.5t22.5 61.5t42.5 30.5h402q26 0 26 -65q0 -32 -21 -63.5t-40 -31.5z" />
    <glyph glyph-name="Obreve" unicode="&#x14e;" horiz-adv-x="776" 
d="M388 -9q-83 0 -142.5 15.5t-109.5 55.5q-101 79 -101 303q0 94 27.5 164t76.5 111q96 80 249 80q79 0 137.5 -14t110.5 -51q105 -76 105 -290q0 -192 -95 -283t-258 -91zM388 148q21 0 33 14.5t20 62t8 132.5t-8 131t-20 60t-33 14t-33 -14t-20 -60t-8 -131t8 -132.5
t20 -62t33 -14.5zM365 868q0 -47 23.5 -47t23.5 47q0 32 59.5 32t59.5 -30q0 -75 -37.5 -102.5t-105.5 -27.5t-104.5 26.5t-36.5 103.5q0 30 59 30t59 -32z" />
    <glyph glyph-name="obreve" unicode="&#x14f;" horiz-adv-x="685" 
d="M343 -9q-75 0 -129 13t-98 46q-91 66 -91 246q0 160 93 229q87 64 225 64q59 0 101 -5.5t85.5 -23.5t70 -49t43.5 -85.5t17 -129.5q0 -152 -86 -228.5t-231 -76.5zM322.5 143q7.5 -7 20 -7t20 7t14 43t6.5 90.5t-2.5 84t-6 45.5t-9.5 25q-9 13 -21.5 13t-20.5 -7.5
t-15 -44t-7 -103.5t7 -103t14.5 -43zM318 738q0 -47 23.5 -47t23.5 47q0 32 59.5 32t59.5 -30q0 -75 -37.5 -102.5t-105.5 -27.5t-104.5 26.5t-36.5 103.5q0 30 59 30t59 -32z" />
    <glyph glyph-name="Ohungarumlaut" unicode="&#x150;" horiz-adv-x="776" 
d="M388 -9q-83 0 -142.5 15.5t-109.5 55.5q-101 79 -101 303q0 94 27.5 164t76.5 111q96 80 249 80q79 0 137.5 -14t110.5 -51q105 -76 105 -290q0 -192 -95 -283t-258 -91zM388 148q21 0 33 14.5t20 62t8 132.5t-8 131t-20 60t-33 14t-33 -14t-20 -60t-8 -131t8 -132.5
t20 -62t33 -14.5zM292 910q23 0 46.5 -38t23.5 -94q0 -15 -77.5 -26.5t-132.5 -11.5q-19 0 -34.5 24t-15.5 56t65.5 61t124.5 29zM603 910q23 0 46.5 -38t23.5 -94q0 -15 -77.5 -26.5t-132.5 -11.5q-19 0 -34.5 24t-15.5 56t65.5 61t124.5 29z" />
    <glyph glyph-name="ohungarumlaut" unicode="&#x151;" horiz-adv-x="685" 
d="M343 -9q-75 0 -129 13t-98 46q-91 66 -91 246q0 160 93 229q87 64 225 64q59 0 101 -5.5t85.5 -23.5t70 -49t43.5 -85.5t17 -129.5q0 -152 -86 -228.5t-231 -76.5zM322.5 143q7.5 -7 20 -7t20 7t14 43t6.5 90.5t-2.5 84t-6 45.5t-9.5 25q-9 13 -21.5 13t-20.5 -7.5
t-15 -44t-7 -103.5t7 -103t14.5 -43zM247 780q23 0 46.5 -38t23.5 -94q0 -15 -77.5 -26.5t-132.5 -11.5q-19 0 -34.5 24t-15.5 56t65.5 61t124.5 29zM558 780q23 0 46.5 -38t23.5 -94q0 -15 -77.5 -26.5t-132.5 -11.5q-19 0 -34.5 24t-15.5 56t65.5 61t124.5 29z" />
    <glyph glyph-name="OE" unicode="&#x152;" horiz-adv-x="1024" 
d="M486 3q-36 -12 -97.5 -12t-111.5 8.5t-96.5 32.5t-76.5 64q-64 89 -64 264.5t98 262t255 86.5q61 0 99 -15q34 6 70 6h402q21 0 21 -70q0 -137 -33 -137q-39 0 -219 13v-67q148 6 193 6q27 0 27 -63t-10.5 -95.5t-28.5 -32.5l-181 4v-64q174 13 240 13q21 0 21 -69
q0 -138 -33 -138h-424q-33 0 -51 3zM393 148q21 0 33 13.5t20 59.5t8 131t-8 130t-20 58t-33 13t-33 -13t-20 -58t-8 -130t8 -131t20 -59.5t33 -13.5z" />
    <glyph glyph-name="oe" unicode="&#x153;" horiz-adv-x="999" 
d="M656 226q0 -65 62 -65q36 0 94.5 24.5t61.5 24.5q18 0 49 -57t31 -84q0 -39 -80 -59t-184 -20t-176 39q-73 -38 -159.5 -38t-140.5 13t-98 46q-91 66 -91 246q0 144 61 215q26 31 69.5 49t86 23.5t101.5 5.5q104 0 175 -36q73 36 203 36q253 0 253 -176q0 -187 -285 -187
h-33zM322.5 143q7.5 -7 19.5 -7t19.5 7.5t14.5 44t7 90t-2.5 83t-6 45.5t-9.5 25q-9 13 -21.5 13t-20.5 -7.5t-15 -44t-7 -103.5t7 -103t14.5 -43zM654 372v-66q29 0 47.5 23t18.5 56q0 60 -31 60q-35 0 -35 -73z" />
    <glyph glyph-name="Racute" unicode="&#x154;" horiz-adv-x="721" 
d="M325 29q0 -13 -61 -21t-122.5 -8t-79 7t-17.5 22v643q0 26 65.5 37t165.5 11t129.5 -0.5t69.5 -3.5t63.5 -10t52 -18t44.5 -28.5t31 -41.5q27 -43 27 -122.5t-26.5 -134t-70.5 -82.5q115 -181 115 -230t-197 -49q-57 0 -79 5t-28 22l-65 206l-17 1v-205zM325 388h26
q58 0 58 90q0 46 -15.5 65t-35.5 19h-33v-174zM450 910q23 0 46.5 -38t23.5 -94q0 -15 -86.5 -26.5t-143.5 -11.5q-19 0 -34.5 24t-15.5 55.5t74.5 61t135.5 29.5z" />
    <glyph glyph-name="racute" unicode="&#x155;" horiz-adv-x="556" 
d="M305 24q0 -11 -56.5 -17.5t-117 -6.5t-78.5 5.5t-18 18.5v493q0 19 55.5 41t121 22t73.5 -36l10 -46h7q14 38 67 64.5t106 26.5t74.5 -17t21.5 -42q0 -85 -23 -158q-16 -48 -41 -48q-10 0 -63 15t-87.5 15t-43 -10t-8.5 -28v-292zM368 780q23 0 46.5 -38t23.5 -94
q0 -15 -86.5 -26.5t-143.5 -11.5q-19 0 -34.5 24t-15.5 55.5t74.5 61t135.5 29.5z" />
    <glyph glyph-name="rcommaaccent" unicode="&#x157;" horiz-adv-x="591" 
d="M310 316v-292q0 -11 -56.5 -17.5t-117 -6.5t-78.5 5.5t-18 18.5v493q0 19 55.5 41t121 22t73.5 -36l10 -46h7q14 38 67 64.5t106 26.5t74.5 -17t21.5 -43.5t-4 -67.5t-19.5 -89t-40.5 -48q-10 0 -63 15t-87.5 15t-43 -10t-8.5 -28zM348 48q-7 20 -7 57t21 61.5t85 24.5
t85.5 -25t21.5 -76q0 -243 -164 -243q-15 0 -29.5 36t-14.5 57t7 21q20 0 33 9.5t16 19.5l3 10q-40 0 -57 48z" />
    <glyph glyph-name="Rcaron" unicode="&#x158;" horiz-adv-x="721" 
d="M325 29q0 -13 -61 -21t-122.5 -8t-79 7t-17.5 22v643q0 26 65.5 37t165.5 11t129.5 -0.5t69.5 -3.5t63.5 -10t52 -18t44.5 -28.5t31 -41.5q27 -43 27 -122.5t-26.5 -134t-70.5 -82.5q115 -181 115 -230t-197 -49q-57 0 -79 5t-28 22l-65 206l-17 1v-205zM325 388h26
q58 0 58 90q0 46 -15.5 65t-35.5 19h-33v-174zM469 774q-71 -34 -106.5 -34t-109 34.5t-73.5 45.5q0 35 11 62.5t29 27.5q13 0 140 -39q126 39 140 39q18 0 29 -27.5t11 -62.5q0 -12 -71 -46z" />
    <glyph glyph-name="rcaron" unicode="&#x159;" horiz-adv-x="556" 
d="M305 316v-292q0 -11 -56.5 -17.5t-117 -6.5t-78.5 5.5t-18 18.5v493q0 19 55.5 41t121 22t73.5 -36l10 -46h7q14 38 67 64.5t106 26.5t74.5 -17t21.5 -43.5t-4 -67.5t-19.5 -89t-40.5 -48q-10 0 -63 15t-87.5 15t-43 -10t-8.5 -28zM387 644q-71 -34 -106.5 -34t-109 34.5
t-73.5 45.5q0 35 11 62.5t29 27.5q13 0 140 -39q126 39 140 39q18 0 29 -27.5t11 -62.5q0 -12 -71 -46z" />
    <glyph glyph-name="Sacute" unicode="&#x15a;" horiz-adv-x="664" 
d="M172 5q-76 14 -109 31t-33 33q0 56 16 116.5t38 60.5q4 0 83 -27t119 -27t52 8.5t12 26.5q0 26 -77 49q-33 9 -71.5 27t-71.5 40t-55 62.5t-22 92.5q0 222 265 222q99 0 171 -12.5t101.5 -28t29.5 -30.5q0 -52 -24.5 -112t-47.5 -60q-4 0 -26 9.5t-54.5 19t-65.5 9.5
t-48.5 -8t-15.5 -28q0 -22 76 -43q33 -8 71.5 -25.5t71.5 -41t55 -66.5t22 -101.5t-31 -107.5q-19 -30 -49 -52t-83.5 -36.5t-138 -14.5t-160.5 14zM432 910q23 0 46.5 -38t23.5 -94q0 -15 -86.5 -26.5t-143.5 -11.5q-19 0 -34.5 24t-15.5 55.5t74.5 61t135.5 29.5z" />
    <glyph glyph-name="sacute" unicode="&#x15b;" horiz-adv-x="579" 
d="M302 -9q-166 0 -242 32q-40 17 -40 33q0 41 24 96t42 55q10 0 67.5 -22t97 -22t52 5t12.5 19q0 28 -70 35q-30 3 -64.5 12t-64.5 23t-50 46.5t-20 70t2 56t16.5 52t41 54.5t82 38t154 17t158.5 -16q73 -19 73 -49q0 -39 -28 -90t-44.5 -51t-71.5 17.5t-81 17.5
q-42 0 -42 -24q0 -15 28.5 -22.5t69 -15.5t80.5 -22.5t68.5 -52.5t28.5 -96q0 -196 -279 -196zM389 780q23 0 46.5 -38t23.5 -94q0 -15 -86.5 -26.5t-143.5 -11.5q-19 0 -34.5 24t-15.5 55.5t74.5 61t135.5 29.5z" />
    <glyph glyph-name="Scircumflex" unicode="&#x15c;" horiz-adv-x="664" 
d="M172 5q-76 14 -109 31t-33 33q0 56 16 116.5t38 60.5q4 0 83 -27t119 -27t52 8.5t12 26.5q0 26 -77 49q-33 9 -71.5 27t-71.5 40t-55 62.5t-22 92.5q0 222 265 222q99 0 171 -12.5t101.5 -28t29.5 -30.5q0 -52 -24.5 -112t-47.5 -60q-4 0 -26 9.5t-54.5 19t-65.5 9.5
t-48.5 -8t-15.5 -28q0 -22 76 -43q33 -8 71.5 -25.5t71.5 -41t55 -66.5t22 -101.5t-31 -107.5q-19 -30 -49 -52t-83.5 -36.5t-138 -14.5t-160.5 14zM228.5 875.5q73.5 34.5 109 34.5t106.5 -34t71 -46q0 -35 -11 -62.5t-29 -27.5q-14 0 -140 39q-127 -39 -140 -39
q-18 0 -29 27.5t-11 62.5q0 11 73.5 45.5z" />
    <glyph glyph-name="scircumflex" unicode="&#x15d;" horiz-adv-x="579" 
d="M302 -9q-166 0 -242 32q-40 17 -40 33q0 41 24 96t42 55q10 0 67.5 -22t97 -22t52 5t12.5 19q0 28 -70 35q-30 3 -64.5 12t-64.5 23t-50 46.5t-20 70t2 56t16.5 52t41 54.5t82 38t154 17t158.5 -16q73 -19 73 -49q0 -39 -28 -90t-44.5 -51t-71.5 17.5t-81 17.5
q-42 0 -42 -24q0 -15 28.5 -22.5t69 -15.5t80.5 -22.5t68.5 -52.5t28.5 -96q0 -196 -279 -196zM192.5 745.5q73.5 34.5 109 34.5t106.5 -34t71 -46q0 -35 -11 -62.5t-29 -27.5q-14 0 -140 39q-127 -39 -140 -39q-18 0 -29 27.5t-11 62.5q0 11 73.5 45.5z" />
    <glyph glyph-name="Scedilla" unicode="&#x15e;" horiz-adv-x="664" 
d="M470.5 5.5q53.5 14.5 83.5 36.5t49 52q31 49 31 109q0 57 -22 100t-55 66.5t-71.5 41t-71 26t-54.5 19t-22 27t15.5 24.5t59 8t109.5 -29q22 -9 26 -9q23 0 47.5 60t24.5 112q0 15 -29.5 30.5t-101.5 28t-171 12.5q-265 0 -265 -222q0 -52 22 -92.5t55 -62.5t71.5 -40
t71.5 -27.5t55 -22t22 -28.5t-12 -24.5t-52 -8.5t-119 27t-83 27q-22 0 -38 -60.5t-16 -116.5q0 -16 33 -33t109 -31t160.5 -14t138 14.5zM317 -84l-29 -1q-16 0 -16 31v47q0 8 24 15t50.5 7t26.5 -15v-25q87 -3 87 -69q0 -31 -30 -50.5t-63.5 -25t-71.5 -5.5q-8 0 -13 15.5
t-5 32.5t8 17q74 0 74 16q0 10 -42 10z" />
    <glyph glyph-name="scedilla" unicode="&#x15f;" horiz-adv-x="579" 
d="M302 -9q279 0 279 196q0 58 -28.5 96t-68.5 52.5t-80.5 22.5t-69 15.5t-28.5 22.5q0 24 42 24q26 0 81 -17.5t71.5 -17.5t44.5 51t28 90q0 18 -29 33q-17 9 -43.5 16t-73 11.5t-115.5 4.5t-124.5 -17t-82 -38t-41 -54.5t-16.5 -52t-2 -56t20 -70t50 -46.5t64.5 -23
t64.5 -12t50 -11.5t20 -23t-12.5 -19.5t-52 -5t-97 22t-67.5 22q-18 0 -42 -55t-24 -96q0 -16 40 -33q76 -32 242 -32zM266 -84l-29 -1q-16 0 -16 31v47q0 8 24 15t50.5 7t26.5 -15v-25q87 -3 87 -69q0 -31 -30 -50.5t-63.5 -25t-71.5 -5.5q-8 0 -13 15.5t-5 32.5t8 17
q74 0 74 16q0 10 -42 10z" />
    <glyph glyph-name="Scaron" unicode="&#x160;" horiz-adv-x="664" 
d="M470.5 5.5q-53.5 -14.5 -138 -14.5t-160.5 14t-109 31t-33 33q0 56 16 116.5t38 60.5q4 0 83 -27t119 -27t52 8.5t12 24.5t-22 28.5t-55 22t-71.5 27.5t-71.5 40t-55 62.5t-22 92.5q0 222 265 222q99 0 171 -12.5t101.5 -28t29.5 -30.5q0 -52 -24.5 -112t-47.5 -60
q-4 0 -26 9q-66 29 -109.5 29t-59 -8t-15.5 -24.5t22 -27t54.5 -19t71 -26t71.5 -41t55 -66.5t22 -100q0 -60 -31 -109q-19 -30 -49 -52t-83.5 -36.5zM451 774q-71 -34 -106.5 -34t-109 34.5t-73.5 45.5q0 35 11 62.5t29 27.5q13 0 140 -39q126 39 140 39q18 0 29 -27.5
t11 -62.5q0 -12 -71 -46z" />
    <glyph glyph-name="scaron" unicode="&#x161;" horiz-adv-x="579" 
d="M302 -9q-166 0 -242 32q-40 17 -40 33q0 41 24 96t42 55q10 0 67.5 -22t97 -22t52 5t12.5 19.5t-20 23t-50 11.5t-64.5 12t-64.5 23t-50 46.5t-20 70t2 56t16.5 52t41 54.5t82 38t124.5 17t115.5 -4.5t73 -11.5t43.5 -16q29 -15 29 -33q0 -39 -28 -90t-44.5 -51
t-71.5 17.5t-81 17.5q-42 0 -42 -24q0 -15 28.5 -22.5t69 -15.5t80.5 -22.5t68.5 -52.5t28.5 -96q0 -196 -279 -196zM406 644q-71 -34 -106.5 -34t-109 34.5t-73.5 45.5q0 35 11 62.5t29 27.5q13 0 140 -39q126 39 140 39q18 0 29 -27.5t11 -62.5q0 -12 -71 -46z" />
    <glyph glyph-name="Tcaron" unicode="&#x164;" horiz-adv-x="651" 
d="M403.5 6.5q-61.5 -6.5 -123 -6.5t-78 5.5t-16.5 18.5v430h-139q-11 0 -19 28t-8 83.5t12 100t32 44.5h541q15 0 20.5 -28t5.5 -81t-11 -100t-30 -47h-125v-430q0 -11 -61.5 -17.5zM434 774q-71 -34 -106.5 -34t-109 34.5t-73.5 45.5q0 35 11 62.5t29 27.5q13 0 140 -39
q126 39 140 39q18 0 29 -27.5t11 -62.5q0 -12 -71 -46z" />
    <glyph glyph-name="tcaron" unicode="&#x165;" horiz-adv-x="756" 
d="M346 -8q-64 0 -106 8.5t-80 33.5q-73 49 -73 204v156h-50q-11 0 -19 23t-8 63t12.5 70.5t32.5 30.5h32v121q0 31 60.5 50t118.5 19q91 0 91 -45v-145h74q26 0 26 -75q0 -49 -11.5 -80.5t-29.5 -31.5h-59v-183q0 -19 18.5 -34.5t48.5 -15.5q14 0 18 -17t4 -51
q0 -67 -18 -84t-82 -17zM572 437q-29 0 -42 47q-13 50 -15 100q-3 74 -3 143q0 53 162 53q28 0 35 -36t7 -124q0 -183 -144 -183z" />
    <glyph glyph-name="Utilde" unicode="&#x168;" horiz-adv-x="736" 
d="M608.5 63.5q-82.5 -71.5 -239 -71.5t-240.5 71.5t-84 215.5v367q0 25 56.5 45t131.5 20q60 0 78 -23q13 -18 13 -31v-298q0 -113 8.5 -149.5t36.5 -36.5t35.5 35.5t7.5 151.5v286q0 25 56.5 45t130.5 20q63 0 79 -23q13 -18 13 -31v-378q0 -144 -82.5 -215.5zM559.5 762
q-51.5 -32 -90 -32t-92 17.5t-69 17.5t-59.5 -17.5t-62 -17.5t-37.5 35.5t-19.5 54.5q0 17 54.5 48.5t90.5 31.5t88.5 -17t75.5 -17q7 0 49.5 17t62 17t40 -37t20.5 -54q0 -15 -51.5 -47z" />
    <glyph glyph-name="utilde" unicode="&#x169;" horiz-adv-x="678" 
d="M394 16l-10 65h-8l-2 -9q-4 -22 -34 -49q-14 -13 -41.5 -22.5t-62.5 -9.5q-112 0 -156.5 58t-44.5 202v272q0 20 59 38.5t124 18.5q87 0 87 -45v-254q0 -76 6 -110.5t30 -34.5q32 0 32 27v360q0 21 62 39t135 18t73 -39v-515q0 -14 -63 -20t-124 -6t-62 16zM530.5 642
q-51.5 -32 -90 -32t-92 17.5t-69 17.5t-59.5 -17.5t-62 -17.5t-37.5 35.5t-19.5 54.5q0 17 54.5 48.5t90.5 31.5t88.5 -17t75.5 -17q7 0 49.5 17t62 17t40 -37t20.5 -54q0 -15 -51.5 -47z" />
    <glyph glyph-name="Umacron" unicode="&#x16a;" horiz-adv-x="736" 
d="M608.5 63.5q-82.5 -71.5 -239 -71.5t-240.5 71.5t-84 215.5v367q0 25 56.5 45t131.5 20q60 0 78 -23q13 -18 13 -31v-298q0 -113 8.5 -149.5t36.5 -36.5t35.5 35.5t7.5 151.5v286q0 25 56.5 45t130.5 20q63 0 79 -23q13 -18 13 -31v-378q0 -144 -82.5 -215.5zM556 730
h-405q-11 0 -19 18.5t-8 49.5t22.5 61.5t42.5 30.5h402q26 0 26 -65q0 -32 -21 -63.5t-40 -31.5z" />
    <glyph glyph-name="umacron" unicode="&#x16b;" horiz-adv-x="678" 
d="M394 16l-10 65h-8l-2 -9q-4 -22 -34 -49q-14 -13 -41.5 -22.5t-62.5 -9.5q-112 0 -156.5 58t-44.5 202v272q0 20 59 38.5t124 18.5q87 0 87 -45v-254q0 -76 6 -110.5t30 -34.5q32 0 32 27v360q0 21 62 39t135 18t73 -39v-515q0 -14 -63 -20t-124 -6t-62 16zM526 610h-405
q-11 0 -19 18.5t-8 49.5t22.5 61.5t42.5 30.5h402q26 0 26 -65q0 -32 -21 -63.5t-40 -31.5z" />
    <glyph glyph-name="Ubreve" unicode="&#x16c;" horiz-adv-x="736" 
d="M608.5 63.5q-82.5 -71.5 -239 -71.5t-240.5 71.5t-84 215.5v367q0 25 56.5 45t131.5 20q60 0 78 -23q13 -18 13 -31v-298q0 -113 8.5 -149.5t36.5 -36.5t35.5 35.5t7.5 151.5v286q0 25 56.5 45t130.5 20q63 0 79 -23q13 -18 13 -31v-378q0 -144 -82.5 -215.5zM344 868
q0 -47 23.5 -47t23.5 47q0 32 59.5 32t59.5 -30q0 -75 -37.5 -102.5t-105.5 -27.5t-104.5 26.5t-36.5 103.5q0 30 59 30t59 -32z" />
    <glyph glyph-name="ubreve" unicode="&#x16d;" horiz-adv-x="678" 
d="M236 -9q-112 0 -156.5 58t-44.5 202v272q0 20 59 38.5t124 18.5q87 0 87 -45v-254q0 -76 6 -110.5t30 -34.5q32 0 32 27v360q0 21 62 39t135 18t73 -39v-515q0 -14 -63 -20t-124 -6t-62 16l-10 65h-8q-9 -36 -36 -59q-14 -12 -41.5 -21.5t-62.5 -9.5zM315 738
q0 -47 23.5 -47t23.5 47q0 32 59.5 32t59.5 -30q0 -75 -37.5 -102.5t-105.5 -27.5t-104.5 26.5t-36.5 103.5q0 30 59 30t59 -32z" />
    <glyph glyph-name="Uring" unicode="&#x16e;" horiz-adv-x="736" 
d="M608.5 63.5q-82.5 -71.5 -239 -71.5t-240.5 71.5t-84 215.5v367q0 25 56.5 45t131.5 20q60 0 78 -23q13 -18 13 -31v-298q0 -113 8.5 -149.5t36.5 -36.5t35.5 35.5t7.5 151.5v286q0 25 56.5 45t130.5 20q63 0 79 -23q13 -18 13 -31v-378q0 -144 -82.5 -215.5zM455 758.5
q-28 -18.5 -87 -18.5t-87 18.5t-28 69t28 66.5t87 16t87 -16t28 -66.5t-28 -69zM346.5 811q5.5 -4 21.5 -4t21.5 4t5.5 14.5t-6 14t-21.5 3.5t-21 -3.5t-5.5 -14t5.5 -14.5z" />
    <glyph glyph-name="uring" unicode="&#x16f;" horiz-adv-x="678" 
d="M394 16l-10 65h-8l-2 -9q-4 -22 -34 -49q-14 -13 -41.5 -22.5t-62.5 -9.5q-112 0 -156.5 58t-44.5 202v272q0 20 59 38.5t124 18.5q87 0 87 -45v-254q0 -76 6 -110.5t30 -34.5q32 0 32 27v360q0 21 62 39t135 18t73 -39v-515q0 -14 -63 -20t-124 -6t-62 16zM426 628.5
q-28 -18.5 -87 -18.5t-87 18.5t-28 69t28 66.5t87 16t87 -16t28 -66.5t-28 -69zM317.5 681q5.5 -4 21.5 -4t21.5 4t5.5 14.5t-6 14t-21.5 3.5t-21 -3.5t-5.5 -14t5.5 -14.5z" />
    <glyph glyph-name="Uhungarumlaut" unicode="&#x170;" horiz-adv-x="736" 
d="M608.5 63.5q-82.5 -71.5 -239 -71.5t-240.5 71.5t-84 215.5v367q0 25 56.5 45t131.5 20q60 0 78 -23q13 -18 13 -31v-298q0 -113 8.5 -149.5t36.5 -36.5t35.5 35.5t7.5 151.5v286q0 25 56.5 45t130.5 20q63 0 79 -23q13 -18 13 -31v-378q0 -144 -82.5 -215.5zM272 910
q23 0 46.5 -38t23.5 -94q0 -15 -77.5 -26.5t-132.5 -11.5q-19 0 -34.5 24t-15.5 56t65.5 61t124.5 29zM583 910q23 0 46.5 -38t23.5 -94q0 -15 -77.5 -26.5t-132.5 -11.5q-19 0 -34.5 24t-15.5 56t65.5 61t124.5 29z" />
    <glyph glyph-name="uhungarumlaut" unicode="&#x171;" horiz-adv-x="678" 
d="M394 16l-10 65h-8l-2 -9q-4 -22 -34 -49q-14 -13 -41.5 -22.5t-62.5 -9.5q-112 0 -156.5 58t-44.5 202v272q0 20 59 38.5t124 18.5q87 0 87 -45v-254q0 -76 6 -110.5t30 -34.5q32 0 32 27v360q0 21 62 39t135 18t73 -39v-515q0 -14 -63 -20t-124 -6t-62 16zM243 780
q23 0 46.5 -38t23.5 -94q0 -15 -77.5 -26.5t-132.5 -11.5q-19 0 -34.5 24t-15.5 56t65.5 61t124.5 29zM554 780q23 0 46.5 -38t23.5 -94q0 -15 -77.5 -26.5t-132.5 -11.5q-19 0 -34.5 24t-15.5 56t65.5 61t124.5 29z" />
    <glyph glyph-name="Uogonek" unicode="&#x172;" horiz-adv-x="736" 
d="M608.5 63.5q82.5 71.5 82.5 215.5v378q0 13 -13 31q-16 23 -79 23q-74 0 -130.5 -20t-56.5 -45v-286q0 -116 -7.5 -151.5t-35.5 -35.5t-36.5 36.5t-8.5 149.5v298q0 13 -13 31q-18 23 -78 23q-75 0 -131.5 -20t-56.5 -45v-367q0 -144 84 -215.5t240.5 -71.5t239 71.5z
M308.5 -127q-49.5 28 -49.5 87t47 87q17 0 88 -8.5t71 -16.5t-19 -21.5t-19 -23.5q0 -16 25 -16t51 4.5t31 4.5t13 -12q21 -30 21 -89q0 -13 -49 -18.5t-85 -5.5q-76 0 -125.5 28z" />
    <glyph glyph-name="uogonek" unicode="&#x173;" horiz-adv-x="678" 
d="M428.5 -127q-49.5 28 -49.5 87t47 87q17 0 88 -8.5t71 -16.5t-19 -21.5t-19 -23.5q0 -16 25 -16t51 4.5t31 4.5t13 -12q21 -30 21 -89q0 -13 -49 -18.5t-85 -5.5q-76 0 -125.5 28zM236 -9q-112 0 -156.5 58t-44.5 202v272q0 20 59 38.5t124 18.5q87 0 87 -45v-254
q0 -76 6 -110.5t30 -34.5q32 0 32 27v360q0 21 62 39t135 18t73 -39v-515q0 -14 -63 -20t-124 -6t-62 16l-10 65h-8q-9 -36 -36 -59q-14 -12 -41.5 -21.5t-62.5 -9.5z" />
    <glyph glyph-name="Wcircumflex" unicode="&#x174;" horiz-adv-x="1026" 
d="M320 0q-48 0 -63 7t-21 24l-221 610q0 19 71.5 44t144.5 25q94 0 100 -59l34 -317h14l28 317q5 59 135 59q50 0 67 -13.5t19 -35.5l33 -327h14l26 317q3 29 68.5 44t130 15t88 -19t23.5 -40l-214 -620q-11 -31 -148 -31q-41 0 -55 7t-19 24l-52 174h-12l-53 -174
q-9 -31 -138 -31zM416.5 875.5q73.5 34.5 109 34.5t106.5 -34t71 -46q0 -35 -11 -62.5t-29 -27.5q-14 0 -140 39q-127 -39 -140 -39q-18 0 -29 27.5t-11 62.5q0 11 73.5 45.5z" />
    <glyph glyph-name="wcircumflex" unicode="&#x175;" horiz-adv-x="993" 
d="M799 24q-13 -24 -135.5 -24t-127.5 24l-34 182h-14l-32 -182q-3 -24 -175 -24q-48 0 -63.5 5.5t-21.5 18.5q-186 457 -186 481t72.5 49.5t139.5 25.5q86 0 89 -46l34 -274h12l12 221q1 25 51 44t101 19t76.5 -12.5t26.5 -30.5l11 -241h11l33 257q3 24 67.5 43.5
t113.5 19.5t78 -14q45 -22 45 -52q0 -3 -90.5 -244t-93.5 -246zM399.5 745.5q73.5 34.5 109 34.5t106.5 -34t71 -46q0 -35 -11 -62.5t-29 -27.5q-14 0 -140 39q-127 -39 -140 -39q-18 0 -29 27.5t-11 62.5q0 11 73.5 45.5z" />
    <glyph glyph-name="Ycircumflex" unicode="&#x176;" horiz-adv-x="698" 
d="M426 8q-61 -8 -121.5 -8t-78.5 6.5t-18 22.5v174q-198 405 -198 440q0 21 67 44t141 23q95 0 101 -56l27 -269h11l19 262q2 28 71 45.5t131 17.5t86 -18t24 -38q0 -19 -201 -451v-174q0 -13 -61 -21zM252.5 875.5q73.5 34.5 109 34.5t106.5 -34t71 -46q0 -35 -11 -62.5
t-29 -27.5q-14 0 -140 39q-127 -39 -140 -39q-18 0 -29 27.5t-11 62.5q0 11 73.5 45.5z" />
    <glyph glyph-name="ycircumflex" unicode="&#x177;" horiz-adv-x="661" 
d="M372 65v59h-8q-5 -5 -15 -13t-47 -21t-82.5 -13t-80 14.5t-54.5 39t-31 65.5q-19 65 -19 184v138q0 21 59 41.5t124 20.5q87 0 87 -45v-126q0 -200 32 -200q19 0 19 27v282q0 21 63 41.5t135 20.5t72 -39v-473q0 -223 -302 -223q-159 0 -216 31q-25 14 -25 29
q0 24 20 80.5t37 56.5q4 0 28 -6q74 -20 123.5 -20t65 11t15.5 38zM233.5 745.5q73.5 34.5 109 34.5t106.5 -34t71 -46q0 -35 -11 -62.5t-29 -27.5q-14 0 -140 39q-127 -39 -140 -39q-18 0 -29 27.5t-11 62.5q0 11 73.5 45.5z" />
    <glyph glyph-name="Ydieresis" unicode="&#x178;" horiz-adv-x="698" 
d="M426 8q-61 -8 -121.5 -8t-78.5 6.5t-18 22.5v174q-198 405 -198 440q0 21 67 44t141 23q95 0 101 -56l27 -269h11l19 262q2 28 71 45.5t131 17.5t86 -18t24 -38q0 -19 -201 -451v-174q0 -13 -61 -21zM211 730q-52 0 -79 19.5t-27 72t27.5 70.5t79 18t79 -18t27.5 -70.5
t-27.5 -72t-79.5 -19.5zM488 730q-52 0 -79 19.5t-27 72t27.5 70.5t79 18t79 -18t27.5 -70.5t-27.5 -72t-79.5 -19.5z" />
    <glyph glyph-name="Zacute" unicode="&#x179;" horiz-adv-x="637" 
d="M587 507q0 -18 -53 -83t-159 -176h211q11 0 18.5 -29.5t7.5 -83t-12.5 -94.5t-33.5 -41h-487q-29 0 -41.5 58t-12.5 126q0 15 56.5 82t168.5 187h-194q-27 0 -27 87q0 61 13 115.5t33 54.5h461q51 0 51 -203zM398 910q23 0 46.5 -38t23.5 -94q0 -15 -86.5 -26.5
t-143.5 -11.5q-19 0 -34.5 24t-15.5 55.5t74.5 61t135.5 29.5z" />
    <glyph glyph-name="zacute" unicode="&#x17a;" horiz-adv-x="576" 
d="M531 428q0 -14 -41.5 -74.5t-124.5 -166.5h161q25 0 25 -70q0 -46 -13 -81.5t-32 -35.5h-431q-27 0 -38.5 47.5t-11.5 102.5q0 12 46.5 72.5t139.5 170.5h-153q-25 0 -25 70q0 46 12.5 81.5t32.5 35.5h405q48 0 48 -152zM368 780q23 0 46.5 -38t23.5 -94
q0 -15 -86.5 -26.5t-143.5 -11.5q-19 0 -34.5 24t-15.5 55.5t74.5 61t135.5 29.5z" />
    <glyph glyph-name="Zdotaccent" unicode="&#x17b;" horiz-adv-x="637" 
d="M587 507q0 -18 -53 -83t-159 -176h211q11 0 18.5 -29.5t7.5 -83t-12.5 -94.5t-33.5 -41h-487q-29 0 -41.5 58t-12.5 126q0 15 56.5 82t168.5 187h-194q-27 0 -27 87q0 61 13 115.5t33 54.5h461q51 0 51 -203zM362 909q17 -1 37.5 -5.5t31.5 -13.5q27 -22 27 -68.5
t-36.5 -64t-103 -17.5t-103.5 17.5t-37 67.5q0 53 42 71q36 14 80.5 14t61.5 -1z" />
    <glyph glyph-name="zdotaccent" unicode="&#x17c;" horiz-adv-x="576" 
d="M531 428q0 -14 -41.5 -74.5t-124.5 -166.5h161q25 0 25 -70q0 -46 -13 -81.5t-32 -35.5h-431q-27 0 -38.5 47.5t-11.5 102.5q0 12 46.5 72.5t139.5 170.5h-153q-25 0 -25 70q0 46 12.5 81.5t32.5 35.5h405q48 0 48 -152zM332 779q17 -1 37.5 -5.5t31.5 -13.5
q27 -22 27 -68.5t-36.5 -64t-103 -17.5t-103.5 17.5t-37 67.5q0 53 42 71q36 14 80.5 14t61.5 -1z" />
    <glyph glyph-name="Zcaron" unicode="&#x17d;" horiz-adv-x="637" 
d="M587 507q0 -18 -53 -83t-159 -176h211q11 0 18.5 -29.5t7.5 -83t-12.5 -94.5t-33.5 -41h-487q-29 0 -41.5 58t-12.5 126q0 15 56.5 82t168.5 187h-194q-27 0 -27 87q0 61 13 115.5t33 54.5h461q51 0 51 -203zM423 764q-71 -34 -106.5 -34t-109 34.5t-73.5 45.5
q0 35 11 62.5t29 27.5q13 0 140 -39q126 39 140 39q18 0 29 -27.5t11 -62.5q0 -12 -71 -46z" />
    <glyph glyph-name="zcaron" unicode="&#x17e;" horiz-adv-x="576" 
d="M531 428q0 -14 -41.5 -74.5t-124.5 -166.5h161q25 0 25 -70q0 -46 -13 -81.5t-32 -35.5h-431q-27 0 -38.5 47.5t-11.5 102.5q0 12 46.5 72.5t139.5 170.5h-153q-25 0 -25 70q0 46 12.5 81.5t32.5 35.5h405q48 0 48 -152zM397 644q-71 -34 -106.5 -34t-109 34.5
t-73.5 45.5q0 35 11 62.5t29 27.5q13 0 140 -39q126 39 140 39q18 0 29 -27.5t11 -62.5q0 -12 -71 -46z" />
    <glyph glyph-name="florin" unicode="&#x192;" horiz-adv-x="559" 
d="M256.5 -145q-34.5 -10 -97 -10t-92 25.5t-29.5 80t25 63.5q17 6 21 18.5t4 47.5v250h-51q-27 0 -27 91q0 36 12.5 67.5t32.5 31.5h33q0 67 19.5 117t47 76.5t66.5 42.5q58 24 132 24q186 0 186 -61q0 -66 -13 -108t-35 -42q-9 0 -33.5 6.5t-48 6.5t-37.5 -18.5t-14 -43.5
h133q27 0 27 -88q0 -39 -11.5 -70.5t-30.5 -31.5h-118v-240q0 -57 -3 -91t-13.5 -67t-30.5 -50t-54.5 -27z" />
    <glyph glyph-name="circumflex" unicode="&#x2c6;" horiz-adv-x="440" 
d="M113.5 745.5q73.5 34.5 109 34.5t106.5 -34t71 -46q0 -35 -11 -62.5t-29 -27.5q-14 0 -140 39q-127 -39 -140 -39q-18 0 -29 27.5t-11 62.5q0 11 73.5 45.5z" />
    <glyph glyph-name="caron" unicode="&#x2c7;" horiz-adv-x="440" 
d="M329 644q-71 -34 -106.5 -34t-109 34.5t-73.5 45.5q0 35 11 62.5t29 27.5q13 0 140 -39q126 39 140 39q18 0 29 -27.5t11 -62.5q0 -12 -71 -46z" />
    <glyph glyph-name="breve" unicode="&#x2d8;" horiz-adv-x="364" 
d="M158 738q0 -47 23.5 -47t23.5 47q0 32 59.5 32t59.5 -30q0 -75 -37.5 -102.5t-105.5 -27.5t-104.5 26.5t-36.5 103.5q0 30 59 30t59 -32z" />
    <glyph glyph-name="dotaccent" unicode="&#x2d9;" horiz-adv-x="380" 
d="M234 779q17 -1 37.5 -5.5t31.5 -13.5q27 -22 27 -68.5t-36.5 -64t-103 -17.5t-103.5 17.5t-37 67.5q0 53 42 71q36 14 80.5 14t61.5 -1z" />
    <glyph glyph-name="ring" unicode="&#x2da;" horiz-adv-x="330" 
d="M252 628.5q-28 -18.5 -87 -18.5t-87 18.5t-28 69t28 66.5t87 16t87 -16t28 -66.5t-28 -69zM143.5 681q5.5 -4 21.5 -4t21.5 4t5.5 14.5t-6 14t-21.5 3.5t-21 -3.5t-5.5 -14t5.5 -14.5z" />
    <glyph glyph-name="ogonek" unicode="&#x2db;" horiz-adv-x="394" 
d="M185 38.5q71 -8.5 71 -16.5t-19 -21.5t-19 -23.5q0 -16 25 -16t51 4.5t31 4.5t13 -12q21 -30 21 -89q0 -13 -49 -18.5t-85 -5.5q-76 0 -125.5 28t-49.5 86q0 29 12 51t24 30l11 7q17 0 88 -8.5z" />
    <glyph glyph-name="tilde" unicode="&#x2dc;" horiz-adv-x="561" 
d="M469.5 642q-51.5 -32 -90 -32t-92 17.5t-69 17.5t-59.5 -17.5t-62 -17.5t-37.5 35.5t-19.5 54.5q0 17 54.5 48.5t90.5 31.5t88.5 -17t75.5 -17q7 0 49.5 17t62 17t40 -37t20.5 -54q0 -15 -51.5 -47z" />
    <glyph glyph-name="hungarumlaut" unicode="&#x2dd;" horiz-adv-x="671" 
d="M240 780q23 0 46.5 -38t23.5 -94q0 -15 -77.5 -26.5t-132.5 -11.5q-19 0 -34.5 24t-15.5 56t65.5 61t124.5 29zM551 780q23 0 46.5 -38t23.5 -94q0 -15 -77.5 -26.5t-132.5 -11.5q-19 0 -34.5 24t-15.5 56t65.5 61t124.5 29z" />
    <glyph glyph-name="dotaccentcmb" unicode="&#x307;" horiz-adv-x="380" 
d="M234 779q17 -1 37.5 -5.5t31.5 -13.5q27 -22 27 -68.5t-36.5 -64t-103 -17.5t-103.5 17.5t-37 67.5q0 53 42 71q36 14 80.5 14t61.5 -1z" />
    <glyph glyph-name="endash" unicode="&#x2013;" horiz-adv-x="673" 
d="M582 190h-525q-11 0 -19 18.5t-8 53t22 70t43 35.5h522q26 0 26 -65q0 -33 -21 -72.5t-40 -39.5z" />
    <glyph glyph-name="emdash" unicode="&#x2014;" horiz-adv-x="954" 
d="M890 190h-833q-11 0 -19 18.5t-8 53t22 70t43 35.5h830q26 0 26 -65q0 -33 -21 -72.5t-40 -39.5z" />
    <glyph glyph-name="quoteleft" unicode="&#x2018;" horiz-adv-x="274" 
d="M174 780q29 0 42 -47q13 -50 15 -100q3 -74 3 -143q0 -53 -162 -53q-28 0 -35 36t-7 125q0 182 144 182z" />
    <glyph glyph-name="quoteright" unicode="&#x2019;" horiz-adv-x="274" 
d="M100 437q-29 0 -42 47q-13 50 -15 100q-3 74 -3 143q0 53 162 53q28 0 35 -36t7 -124q0 -183 -144 -183z" />
    <glyph glyph-name="quotesinglbase" unicode="&#x201a;" horiz-adv-x="274" 
d="M100 -154q-29 0 -42 47q-13 50 -15 100q-3 74 -3 143q0 53 162 53q28 0 35 -36t7 -125q0 -182 -144 -182z" />
    <glyph glyph-name="quotedblleft" unicode="&#x201c;" horiz-adv-x="565" 
d="M465 780q40 0 51 -98q9 -75 9 -192q0 -53 -162 -53q-28 0 -35 36t-7 125q0 182 144 182zM174 780q29 0 42 -47q13 -50 15 -100q3 -74 3 -143q0 -53 -162 -53q-28 0 -35 36t-7 125q0 182 144 182z" />
    <glyph glyph-name="quotedblright" unicode="&#x201d;" horiz-adv-x="565" 
d="M100 437q-40 0 -52 99q-8 74 -8 191q0 53 162 53q28 0 35 -36t7 -124q0 -183 -144 -183zM391 437q-29 0 -41 47q-14 50 -16 100q-3 74 -3 143q0 53 162 53q28 0 35 -36t7 -124q0 -183 -144 -183z" />
    <glyph glyph-name="quotedblbase" unicode="&#x201e;" horiz-adv-x="565" 
d="M100 -154q-40 0 -52 98q-8 75 -8 192q0 53 162 53q28 0 35 -36t7 -125q0 -182 -144 -182zM391 -154q-29 0 -41 47q-14 50 -16 100q-3 74 -3 143q0 53 162 53q28 0 35 -36t7 -125q0 -182 -144 -182z" />
    <glyph glyph-name="dagger" unicode="&#x2020;" horiz-adv-x="513" 
d="M233 -145q-65 0 -65 26v435h-131q-11 0 -19 18.5t-8 53t22 70t43 35.5h93v172q0 19 33.5 32t70 13t55 -8t18.5 -19v-190h132q26 0 26 -65q0 -33 -21 -72.5t-40 -39.5h-97v-420q0 -17 -37.5 -29t-74.5 -12z" />
    <glyph glyph-name="daggerdbl" unicode="&#x2021;" horiz-adv-x="513" 
d="M345 72v-176q0 -20 -33.5 -30.5t-72.5 -10.5q-71 0 -71 26v191h-132q-26 0 -26 65q0 33 21 72.5t40 39.5h97v67h-131q-11 0 -19 18.5t-8 53t22 70t43 35.5h93v176q0 21 36.5 31t79.5 10q61 0 61 -26v-191h132q26 0 26 -65q0 -33 -21 -72.5t-40 -39.5h-97v-67h131
q11 0 19 -18.5t8 -53t-22 -70t-43 -35.5h-93z" />
    <glyph glyph-name="bullet" unicode="&#x2022;" horiz-adv-x="375" 
d="M330 300q0 -136 -142.5 -136t-142.5 136q0 73 38 101.5t103.5 28.5t104.5 -28.5t39 -101.5z" />
    <glyph glyph-name="ellipsis" unicode="&#x2026;" horiz-adv-x="948" 
d="M256 13q-27 -22 -79.5 -22t-79.5 22t-27 81t27.5 78.5t79.5 19.5t79 -19.5t27 -78.5t-27 -81zM568.5 13q-27.5 -22 -80 -22t-79.5 22t-27 81t27.5 78.5t79.5 19.5t79.5 -19.5t27.5 -78.5t-27.5 -81zM881 13q-27 -22 -79.5 -22t-79.5 22t-27 81t27 78.5t79 19.5
t79.5 -19.5t27.5 -78.5t-27 -81z" />
    <glyph glyph-name="perthousand" unicode="&#x2030;" horiz-adv-x="1414" 
d="M353 11.5q-21 -11.5 -70 -11.5t-49 26q0 2 2 8l354 626q9 16 16.5 24.5t27.5 17t50 8.5q62 0 62 -27q0 -5 -2 -9l-358 -630q-12 -21 -33 -32.5zM224 329q-44 0 -76.5 8t-60.5 28q-57 41 -57 159q0 115 60 154q51 33 134 33q82 0 135 -33q60 -39 60 -154q0 -119 -57 -159
q-52 -36 -138 -36zM224 426q8 0 13 6q13 14 13 71t-4 78.5t-9 26.5t-13 5q-26 0 -26 -93.5t26 -93.5zM750 -10q-44 0 -76.5 8t-60.5 28q-57 41 -57 159q0 115 60 153q51 34 134 34q82 0 135 -34q60 -38 60 -153q0 -119 -57 -159q-52 -36 -138 -36zM750 87q8 0 13 5
q13 15 13 72t-4 78.5t-9 26.5t-13 5q-26 0 -26 -93.5t26 -93.5zM1189 -10q-44 0 -76.5 8t-60.5 28q-57 41 -57 159q0 115 59 153q52 34 135 34q82 0 135 -34q60 -38 60 -153q0 -119 -58 -159q-51 -36 -137 -36zM1189 87q8 0 13 5q13 15 13 72t-4 78.5t-9 26.5t-13 5
q-26 0 -26 -93.5t26 -93.5z" />
    <glyph glyph-name="guilsinglleft" unicode="&#x2039;" horiz-adv-x="402" 
d="M255 288q117 -240 117 -264t-54 -24t-86.5 5.5t-43 12.5t-27 27t-81.5 120.5t-65 122.5t69 121q25 36 52.5 75t34 49t16 19t44 18.5t88 9.5t53.5 -35q0 -21 -117 -257z" />
    <glyph glyph-name="guilsinglright" unicode="&#x203a;" horiz-adv-x="392" 
d="M30 545q0 35 122 35q40 0 64 -29q3 -3 11 -13.5t20 -25.5t71 -109.5t59 -115.5t-60.5 -121.5t-78.5 -123.5t-35 -32.5t-61 -9.5t-72 3.5t-34 8.5t-6 14t29 75t88 187q-117 235 -117 257z" />
    <glyph glyph-name="fraction" unicode="&#x2044;" horiz-adv-x="418" 
d="M66 11.5q-21 -11.5 -70 -11.5t-49 26q0 2 2 8l354 626q9 16 16.5 24.5t27.5 17t50 8.5q62 0 62 -27q0 -5 -2 -9l-358 -630q-12 -21 -33 -32.5z" />
    <glyph glyph-name="Euro" unicode="&#x20ac;" horiz-adv-x="625" 
d="M557.5 6q-37.5 -15 -111 -15t-106 3t-76 16.5t-73.5 37.5t-56.5 70.5t-38.5 111.5h-71q-15 0 -15 41q0 20 12.5 40t24.5 20h39v39h-41q-15 0 -15 40q0 21 12.5 41.5t24.5 20.5h28q23 141 109 191q54 32 103 38q64 9 113 9t61 -0.5t32.5 -2.5t32 -6.5t23.5 -12.5
q23 -15 23 -52q0 -105 -58 -105q-10 0 -49 11t-62 11q-33 0 -41 -81h118q15 0 15 -37q0 -19 -12.5 -42t-22.5 -23h-101v-39h101q15 0 15 -37q0 -19 -12.5 -41.5t-22.5 -22.5h-76q10 -82 38 -82q25 0 68 10.5t54 10.5q51 0 51 -101q0 -47 -37.5 -62z" />
    <glyph glyph-name="trademark" unicode="&#x2122;" horiz-adv-x="656" 
d="M332 462q-34 0 -34 10v220q0 18 85 18q45 0 51 -20l30 -92h5l24 88q3 10 27 17t67.5 7t43.5 -14v-224q0 -10 -82 -10q-38 0 -38 10l7 98h-4l-21 -92q-3 -9 -31 -9t-29 9l-24 92h-4q9 -71 9 -98q0 -10 -82 -10zM263 603h-52v-131q0 -10 -82 -10q-35 0 -35 10v131h-58
q-11 0 -11 39q0 68 18 68h226q11 0 11 -35q0 -72 -17 -72z" />
    <glyph glyph-name="onethird" unicode="&#x2153;" horiz-adv-x="828" 
d="M246 11.5q-21 -11.5 -70 -11.5t-49 26q0 2 2 8l354 626q9 16 16.5 24.5t27.5 17t50 8.5q62 0 62 -27q0 -5 -2 -9l-358 -630q-12 -21 -33 -32.5zM138 327q-45 0 -45 13v224h-54q-9 0 -9 40.5t9 67.5q2 10 60 18.5t104.5 8.5t46.5 -25v-334q0 -13 -112 -13zM489 29
q0 59 21 89q8 12 13 12t31 -9.5t51 -9.5t25 16q0 22 -48 23q-19 1 -20 1q-12 5 -12 36t12 35q2 1 20 2q48 1 48 21q0 16 -23.5 16t-51 -11.5t-30.5 -11.5q-13 0 -22.5 39.5t-9.5 52.5t13 22q34 25 119.5 25t126.5 -29.5t41 -70.5q0 -25 -11 -45q-13 -24 -31 -35
q18 -7 32.5 -33.5t14.5 -54.5q0 -58 -49.5 -86t-125.5 -28q-71 0 -117 21q-17 7 -17 13z" />
    <glyph glyph-name="twothirds" unicode="&#x2154;" horiz-adv-x="908" 
d="M327 11.5q-21 -11.5 -70 -11.5t-49 26q0 2 2 8l354 626q9 16 16.5 24.5t27.5 17t50 8.5q62 0 62 -27q0 -5 -2 -9l-358 -630q-12 -21 -33 -32.5zM67 552q-15 0 -26 39t-11 73q0 7 16 16q41 24 118.5 24t126 -26t48.5 -82q0 -29 -14.5 -54.5t-32.5 -40t-42 -27.5
q-31 -16 -52 -21h124q20 0 20 -57q0 -29 -6.5 -46.5t-13.5 -19.5l-6 -3h-251q-33 0 -33 104q0 9 35 32.5t69.5 51t34.5 45.5q0 16 -24.5 16t-50.5 -12t-29 -12zM569 29q0 59 21 89q8 12 13 12t31 -9.5t51 -9.5t25 16q0 22 -48 23q-19 1 -20 1q-12 5 -12 36t12 35q2 1 20 2
q48 1 48 21q0 16 -23.5 16t-51 -11.5t-30.5 -11.5q-13 0 -22.5 39.5t-9.5 52.5t13 22q34 25 119.5 25t126.5 -29.5t41 -70.5q0 -25 -11 -45q-13 -24 -31 -35q18 -7 32.5 -33.5t14.5 -54.5q0 -58 -49.5 -86t-125.5 -28q-71 0 -117 21q-17 7 -17 13z" />
    <glyph glyph-name="minus" unicode="&#x2212;" horiz-adv-x="553" 
d="M462 190h-405q-11 0 -19 18.5t-8 53t22 70t43 35.5h402q26 0 26 -65q0 -33 -21 -72.5t-40 -39.5z" />
    <glyph glyph-name="zero.tab" unicode="&#xf639;" 
d="M340 -9q-83 0 -139.5 14.5t-102.5 53.5q-91 77 -91 301q0 216 95 293q47 38 103 53t134.5 15t135 -15t103.5 -53q95 -77 95 -293q0 -224 -91 -301q-46 -39 -102.5 -53.5t-139.5 -14.5zM318 161q9 -13 22.5 -13t21.5 13.5t13 59.5t5 131t-5 132.5t-13 63t-21.5 15.5
t-22.5 -15q-19 -34 -19 -196q0 -161 19 -191z" />
    <glyph glyph-name="two.tab" unicode="&#xf63a;" 
d="M132 451q-28 0 -48.5 66t-20.5 127q0 14 31 31.5t94 31.5t137 14q287 0 287 -201q0 -56 -24 -105t-53 -78.5t-69 -54.5q-44 -28 -85 -44h200q6 0 13 -5.5t15 -32t8 -66t-5 -66t-12 -38.5q-16 -27 -27 -29l-5 -1h-438q-63 0 -63 197q0 22 131 121q48 36 89 79t41 70
q0 30 -45 30t-94.5 -23t-56.5 -23z" />
    <glyph glyph-name="three.tab" unicode="&#xf63b;" 
d="M605 534q0 -101 -80 -151q11 -5 28.5 -24t29.5 -38q31 -49 31 -116q0 -110 -79 -162t-217 -52q-68 0 -128.5 11.5t-92.5 26t-32 26.5q0 55 12 97t27 59.5t24.5 17.5t58 -18t96 -18t47.5 30q0 41 -102 44q-39 1 -43 2q-21 7 -21 88t21 89q4 2 43 2q102 2 102 41
q0 30 -43.5 30t-96.5 -21t-58 -21q-23 0 -42 67t-19 95q0 26 59 53q63 29 187 29q288 0 288 -187z" />
    <glyph glyph-name="four.tab" unicode="&#xf63c;" 
d="M560 6.5q-61 -6.5 -122 -6.5t-78.5 5.5t-17.5 18.5v123h-250q-34 0 -34 166q0 19 81.5 163t112.5 189q12 17 90 32t152 15q127 0 127 -47v-641q0 -11 -61 -17.5zM359 303l1 218l-70 -218h69z" />
    <glyph glyph-name="five.tab" unicode="&#xf63d;" 
d="M64 67q0 65 18 117.5t40 52.5q5 0 63 -24.5t86.5 -24.5t44 9t15.5 24q0 55 -203 65q-35 2 -35 214t33 212h442q26 0 26 -80q0 -48 -9.5 -105.5t-32.5 -57.5h-280v-45q193 0 276 -62q67 -51 67 -150t-74 -160t-237 -61q-106 0 -173 24t-67 52z" />
    <glyph glyph-name="six.tab" unicode="&#xf63e;" 
d="M366 458q39 13 88.5 13t84 -14.5t54 -36.5t30.5 -55q18 -54 18 -110t-4.5 -84.5t-22 -63.5t-47 -59t-84 -40.5t-127.5 -16.5q-157 0 -237 86.5t-80 280t75 279t228 85.5q105 0 182.5 -15.5t77.5 -36.5q0 -26 -19.5 -91t-35.5 -65q-5 0 -29 5q-69 14 -125 14t-72 -27.5
t-16 -80.5q4 5 13 12.5t48 20.5zM340 347q-29 0 -29 -107.5t29 -107.5q31 0 31 107.5t-31 107.5z" />
    <glyph glyph-name="seven.tab" unicode="&#xf63f;" 
d="M398.5 6.5q-63.5 -6.5 -125.5 -6.5t-79 5.5t-17 18.5q0 27 135 446h-205q-14 0 -22 48q-4 23 -4 61t10.5 85.5t33.5 47.5h402q49 0 63 -22q10 -17 10 -44.5t-23 -132.5t-59.5 -258t-52.5 -231q-3 -11 -66.5 -17.5z" />
    <glyph glyph-name="eight.tab" unicode="&#xf640;" 
d="M639 224q0 -233 -299.5 -233t-299.5 233q0 105 48 158q-13 15 -24 52.5t-11 74.5q0 115 73 163.5t213 48.5t213.5 -48.5t73.5 -163.5q0 -37 -11 -74.5t-24 -52.5q48 -53 48 -158zM315 151.5q8 -15.5 24.5 -15.5t24 15.5t7.5 65.5t-7.5 66.5t-24 16.5t-24.5 -16.5
t-8 -66.5t8 -65.5zM340 456q31 0 31 59.5t-31 59.5q-33 0 -33 -59.5t33 -59.5z" />
    <glyph glyph-name="nine.tab" unicode="&#xf641;" 
d="M214 252q-86 0 -130.5 62.5t-44.5 164.5q0 86 56 157q30 39 89 62.5t140 23.5q159 0 238 -82t79 -281t-74 -283.5t-229 -84.5q-108 0 -184 13.5t-76 34.5q0 25 19.5 90t35.5 65q5 0 29 -4q74 -10 127.5 -10t69.5 28.5t16 75.5q-14 -11 -61.5 -21.5t-99.5 -10.5zM340 376
q29 0 29 102.5t-29 102.5q-31 0 -31 -102.5t31 -102.5z" />
    <glyph glyph-name="zero.os.tab" unicode="&#xf643;" 
d="M340 -9q-164 0 -248.5 71t-84.5 246q0 171 95 238q85 61 241 61t243 -67t87 -237t-84.5 -241t-248.5 -71zM317.5 155.5q8.5 -7.5 23 -7.5t23.5 8q21 18 21 144q0 124 -21 142q-9 8 -24 8t-23 -7.5t-15 -42t-7 -100.5t7 -101.5t15.5 -43z" />
    <glyph glyph-name="one.os.tab" unicode="&#xf644;" 
d="M510 6.5q-61 -6.5 -122 -6.5t-78.5 5.5t-17.5 18.5v321h-165q-17 0 -17 73t17 131q5 20 114 35.5t239 15.5q91 0 91 -46v-530q0 -11 -61 -17.5z" />
    <glyph glyph-name="two.os.tab" unicode="&#xf645;" 
d="M121 387q-18 0 -43.5 51t-25.5 102q0 14 37 29.5t104.5 26.5t142.5 11q287 0 287 -196q0 -43 -21 -79t-51 -58t-68 -38q-61 -26 -118 -33v-5h228q36 0 36 -81q0 -77 -33 -107q-7 -7 -17 -10h-460q-29 0 -47 48q-16 42 -16 131q0 23 140 93q53 27 97 61t44 61q0 30 -45 30
t-104.5 -18.5t-66.5 -18.5z" />
    <glyph glyph-name="three.os.tab" unicode="&#xf646;" 
d="M600 166q10 -31 10 -73t-18 -81.5t-46.5 -65.5t-69.5 -45t-80 -29.5t-86 -17.5q-69 -9 -150 -9q-27 0 -45 42t-18 95.5t28 53.5q100 0 157 22t57 60q0 46 -148 46q-31 0 -31 86.5t31 86.5q86 0 116.5 10t30.5 38q0 16 -14 27.5t-49.5 11.5t-82 -19t-54.5 -19
q-21 0 -44.5 53t-23.5 103q0 27 88 46t165 19q284 0 284 -188q0 -64 -31 -103q-27 -36 -45 -44l-9 -5q56 -28 78 -101z" />
    <glyph glyph-name="four.os.tab" unicode="&#xf647;" 
d="M583 -110.5q-61 -6.5 -122.5 -6.5t-78.5 5.5t-17 18.5v93h-295q-35 0 -35 166q0 20 108.5 190t140.5 207q13 15 85 26t148 11q127 0 127 -46v-647q0 -11 -61 -17.5zM382 175l1 235l-115 -235h114z" />
    <glyph glyph-name="five.os.tab" unicode="&#xf648;" 
d="M139 -155q-23 0 -40 42.5t-17 95t29 52.5q98 0 156 22.5t58 58.5q0 27 -38 33t-158 6q-21 0 -32.5 90.5t-11.5 152.5q0 202 33 202h442q26 0 26 -80q0 -46 -9.5 -100t-32.5 -54h-280v-45q334 0 334 -211q0 -174 -178 -230q-110 -35 -281 -35z" />
    <glyph glyph-name="six.os.tab" unicode="&#xf649;" 
d="M412.5 451q20.5 1 56 1t69.5 -12.5t53.5 -31.5t30.5 -50q18 -46 18 -102.5t-4.5 -85t-21.5 -63.5t-46.5 -59t-83.5 -40.5t-127 -16.5q-159 0 -238 82t-79 275q0 201 78 300q69 89 239 114q76 11 184 11q28 0 46 -43t18 -95.5t-26 -52.5q-118 0 -196 -31.5t-78 -88.5
q0 -22 7 -32q5 2 9.5 4t11.5 4.5t18.5 5t26 4.5t35 3zM340 337q-30 0 -30 -102.5t30 -102.5t30 102.5t-30 102.5z" />
    <glyph glyph-name="seven.os.tab" unicode="&#xf64a;" 
d="M365 -109.5q-67 -6.5 -129 -6.5t-79 5.5t-17 18.5q0 24 220 450h-299q-14 0 -22 48q-4 23 -4 61t10.5 85.5t33.5 47.5h492q47 0 60 -11t13 -35q0 -51 -70 -271.5t-137 -374.5q-5 -11 -72 -17.5z" />
    <glyph glyph-name="eight.os.tab" unicode="&#xf64b;" 
d="M651 224q0 -233 -310.5 -233t-310.5 233q0 47 23 103t49 84q-15 17 -32.5 66.5t-17.5 89.5q0 206 288 206t288 -206q0 -40 -17.5 -89.5t-32.5 -66.5q26 -28 49.5 -84t23.5 -103zM340 136q17 0 26.5 16t9.5 66q0 82 -36 82t-36 -82q0 -50 9.5 -66t26.5 -16zM340 505
q36 0 36 59.5t-36 59.5t-36 -59.5t36 -59.5z" />
    <glyph glyph-name="nine.os.tab" unicode="&#xf64c;" 
d="M107 182q-39 35 -53 82.5t-14 92.5t6.5 75t25 63t48.5 57t82.5 39.5t120.5 15.5q159 0 238 -82t79 -275q0 -221 -90 -305q-64 -60 -163 -81q-93 -19 -248 -19q-28 0 -46 43t-18 96t26 53q275 0 275 100q0 18 -8 40q-7 -3 -13 -6t-15 -6t-22.5 -6t-29.5 -6q-30 -6 -86 -6
t-95 35zM341 271q29 0 29 99q0 55 -7 75.5t-22 20.5q-31 0 -31 -97.5t31 -97.5z" />
    <glyph glyph-name="zero.den" unicode="&#xf655;" horiz-adv-x="439" 
d="M219 -9q-44 0 -76.5 8t-60.5 28q-57 41 -57 159q0 115 59 154q52 33 135 33q82 0 135 -33q60 -39 60 -154q0 -119 -58 -159q-51 -36 -137 -36zM219 88q8 0 13 6q13 14 13 71t-4 78.5t-9 26.5t-13 5q-26 0 -26 -93.5t26 -93.5z" />
    <glyph glyph-name="one.den" unicode="&#xf656;" horiz-adv-x="275" 
d="M123 0q-45 0 -45 13v224h-54q-9 0 -9 40.5t9 67.5q2 10 60 18.5t104.5 8.5t46.5 -25v-334q0 -13 -112 -13z" />
    <glyph glyph-name="two.den" unicode="&#xf657;" horiz-adv-x="362" 
d="M62 225q-15 0 -26 39t-11 73q0 7 17 17q40 23 117.5 23t126 -26t48.5 -82q0 -29 -14.5 -54.5t-32.5 -40t-42 -26.5q-31 -17 -52 -22h124q20 0 20 -57q0 -29 -6.5 -46.5t-12.5 -20.5l-7 -2h-251q-33 0 -33 104q0 9 34.5 32.5t69.5 51t35 45.5q0 16 -24 16t-50 -12t-30 -12
z" />
    <glyph glyph-name="three.den" unicode="&#xf658;" horiz-adv-x="364" 
d="M25 29q0 59 21 89q8 12 13 12t31 -9.5t51 -9.5t25 16q0 22 -48 23q-19 1 -20 1q-12 5 -12 36t12 35q2 1 20 2q48 1 48 21q0 16 -23.5 16t-51 -11.5t-30.5 -11.5q-13 0 -22.5 39.5t-9.5 52.5t13 22q34 25 119.5 25t126.5 -29.5t41 -70.5q0 -25 -11 -45q-13 -24 -31 -35
q18 -7 32.5 -33.5t14.5 -54.5q0 -58 -49.5 -86t-125.5 -28q-71 0 -117 21q-17 7 -17 13z" />
    <glyph glyph-name="four.den" unicode="&#xf659;" horiz-adv-x="368" 
d="M215 0q-44 0 -44 13v60h-138q-18 0 -18 88q0 10 45 85.5t63 100.5q7 9 52 17t85 8q68 0 68 -25v-334q0 -13 -113 -13zM180 156v115l-37 -115h37z" />
    <glyph glyph-name="five.den" unicode="&#xf65a;" horiz-adv-x="364" 
d="M25 35q0 36 9.5 67.5t21.5 31.5q3 0 33.5 -12.5t54 -12.5t23.5 17q0 11 -11 15.5t-18 6.5t-19 3.5t-19.5 2t-21.5 1.5t-19 1q-19 1 -19 108.5t18 107.5h252q14 0 14 -43q0 -52 -8 -69t-15 -17h-165v-23q98 0 148 -22t50 -81t-37.5 -90.5t-134.5 -31.5q-57 0 -97 13
t-40 27z" />
    <glyph glyph-name="six.den" unicode="&#xf65b;" horiz-adv-x="387" 
d="M175 211q24 24 84.5 24t81.5 -29t21 -82q0 -46 -28 -84q-16 -20 -50 -32.5t-82 -12.5q-85 0 -131 44t-46 145q0 193 170 193q56 0 101.5 -8.5t45.5 -19.5q0 -13 -10.5 -52t-19.5 -39q-2 0 -17 2q-45 8 -74 8t-37.5 -14.5t-8.5 -42.5zM194 169q-21 0 -21 -49.5t21 -49.5
t21 49.5t-21 49.5z" />
    <glyph glyph-name="seven.den" unicode="&#xf65c;" horiz-adv-x="314" 
d="M110 0q-44 0 -44 13t72 231h-109q-6 0 -10 19t-4 38.5t5.5 45t17.5 25.5h222q25 0 32 -9.5t7 -25t-12.5 -70t-31 -133.5t-27.5 -121q-3 -13 -118 -13z" />
    <glyph glyph-name="eight.den" unicode="&#xf65d;" horiz-adv-x="386" 
d="M193 -5q-168 0 -168 124q0 40 34 78q-27 33 -27 68q0 112 160.5 112t160.5 -112q0 -35 -27 -68q35 -37 35 -78q0 -124 -168 -124zM193 72q21 0 21 43t-21 43t-21 -43t21 -43zM193 237q21 0 21 31.5t-21 31.5t-21 -31.5t21 -31.5z" />
    <glyph glyph-name="nine.den" unicode="&#xf65e;" horiz-adv-x="388" 
d="M119 138q-94 0 -94 110q0 49 39 89t123 40t130 -44t46 -147.5t-43 -147t-127 -43.5q-58 0 -102.5 7t-44.5 19.5t10.5 51.5t19.5 39q2 0 17 -2q45 -6 74 -6t37.5 13.5t8.5 37.5q-34 -17 -94 -17zM194 203q20 0 20 49.5t-20 49.5q-22 0 -22 -49.5t22 -49.5z" />
    <glyph glyph-name="zero.num" unicode="&#xf661;" horiz-adv-x="439" 
d="M219 367q-44 0 -76.5 8t-60.5 28q-57 41 -57 159q0 115 59 154q52 33 135 33q82 0 135 -33q60 -39 60 -154q0 -119 -58 -159q-51 -36 -137 -36zM219 464q8 0 13 6q13 14 13 71t-4 78.5t-9 26.5t-13 5q-26 0 -26 -93.5t26 -93.5z" />
    <glyph glyph-name="one.num" unicode="&#xf662;" horiz-adv-x="275" 
d="M123 367q-45 0 -45 13v224h-54q-9 0 -9 40.5t9 67.5q2 10 60 18.5t104.5 8.5t46.5 -25v-334q0 -13 -112 -13z" />
    <glyph glyph-name="two.num" unicode="&#xf663;" horiz-adv-x="362" 
d="M62 596q-15 0 -26 39t-11 73q0 7 17 16q40 24 117.5 24t126 -26t48.5 -82q0 -29 -14.5 -54.5t-32.5 -40t-42 -27.5q-31 -16 -52 -21h124q20 0 20 -57q0 -29 -6.5 -46.5t-12.5 -19.5l-7 -3h-251q-33 0 -33 104q0 9 34.5 32.5t69.5 51t35 45.5q0 16 -24 16t-50 -12t-30 -12
z" />
    <glyph glyph-name="three.num" unicode="&#xf664;" horiz-adv-x="364" 
d="M25 400q0 59 21 90q8 11 13 11t31 -9.5t51 -9.5t25 16q0 22 -48 24h-20q-12 5 -12 35.5t12 35.5q2 1 20 1q48 2 48 22q0 16 -23.5 16t-51 -11.5t-30.5 -11.5q-13 0 -22.5 39.5t-9.5 52.5t13 23q34 24 119.5 24t126.5 -29.5t41 -70.5q0 -25 -11 -44q-13 -25 -31 -36
q18 -7 32.5 -33.5t14.5 -54.5q0 -58 -49.5 -86t-125.5 -28q-71 0 -117 20q-17 8 -17 14z" />
    <glyph glyph-name="four.num" unicode="&#xf665;" horiz-adv-x="368" 
d="M215 367q-44 0 -44 13v60h-138q-18 0 -18 88q0 10 45 85.5t63 100.5q7 9 52 17t85 8q68 0 68 -25v-334q0 -13 -113 -13zM180 523v115l-37 -115h37z" />
    <glyph glyph-name="five.num" unicode="&#xf666;" horiz-adv-x="359" 
d="M25 402q0 36 9.5 67.5t21.5 31.5q3 0 33.5 -12.5t54 -12.5t23.5 17q0 11 -11 15.5t-18 6.5t-19 3.5t-19.5 2t-21.5 1.5t-19 1q-19 1 -19 108.5t18 107.5h252q14 0 14 -43q0 -52 -8 -69t-15 -17h-165v-23q98 0 148 -22t50 -81t-37.5 -90.5t-134.5 -31.5q-57 0 -97 13
t-40 27z" />
    <glyph glyph-name="six.num" unicode="&#xf667;" horiz-adv-x="387" 
d="M175 582q24 24 84.5 24t81.5 -29t21 -82q0 -46 -28 -83q-16 -21 -50 -33.5t-82 -12.5q-85 0 -131 44t-46 145q0 193 170 193q56 0 101.5 -8.5t45.5 -19.5q0 -13 -10.5 -52t-19.5 -39q-2 0 -17 3q-45 7 -74 7t-37.5 -14.5t-8.5 -42.5zM194 540q-21 0 -21 -49.5t21 -49.5
t21 49.5t-21 49.5z" />
    <glyph glyph-name="seven.num" unicode="&#xf668;" horiz-adv-x="314" 
d="M110 367q-44 0 -44 13t72 231h-109q-6 0 -10 19t-4 38.5t5.5 45t17.5 25.5h222q25 0 32 -9.5t7 -25t-12.5 -70t-31 -133.5t-27.5 -121q-3 -13 -118 -13z" />
    <glyph glyph-name="eight.num" unicode="&#xf669;" horiz-adv-x="386" 
d="M193 366q-168 0 -168 124q0 40 34 78q-27 33 -27 68q0 112 160.5 112t160.5 -112q0 -35 -27 -68q35 -37 35 -78q0 -124 -168 -124zM193 443q21 0 21 43t-21 43t-21 -43t21 -43zM193 608q21 0 21 31.5t-21 31.5t-21 -31.5t21 -31.5z" />
    <glyph glyph-name="nine.num" unicode="&#xf66a;" horiz-adv-x="388" 
d="M119 509q-94 0 -94 110q0 49 39 89t123 40t130 -44t46 -147.5t-43 -147t-127 -43.5q-58 0 -102.5 7t-44.5 19.5t10.5 51.5t19.5 39q2 0 17 -2q45 -6 74 -6t37.5 13.5t8.5 37.5q-34 -17 -94 -17zM194 574q20 0 20 49.5t-20 49.5q-22 0 -22 -49.5t22 -49.5z" />
    <glyph glyph-name="one.tab" unicode="&#xf6dc;" 
d="M478 6.5q-61 -6.5 -122 -6.5t-78.5 5.5t-17.5 18.5v432h-102q-17 0 -17 73t17 132q5 19 106 35t155 16t72 -4t27 -9.5t14 -12.5q7 -11 7 -21v-641q0 -11 -61 -17.5z" />
    <glyph glyph-name="zero.os" unicode="&#xf730;" horiz-adv-x="736" 
d="M368 -9q-164 0 -248.5 71t-84.5 246q0 171 95 238q85 61 241 61t243 -67t87 -237t-84.5 -241t-248.5 -71zM345.5 155.5q8.5 -7.5 23 -7.5t23.5 8q21 18 21 144q0 124 -21 142q-9 8 -24 8t-23 -7.5t-15 -42t-7 -100.5t7 -101.5t15.5 -43z" />
    <glyph glyph-name="one.os" unicode="&#xf731;" horiz-adv-x="516" 
d="M410 6.5q-61 -6.5 -122 -6.5t-78.5 5.5t-17.5 18.5v321h-165q-17 0 -17 73t17 131q5 20 114 35.5t239 15.5q91 0 91 -46v-530q0 -11 -61 -17.5z" />
    <glyph glyph-name="two.os" unicode="&#xf732;" horiz-adv-x="642" 
d="M104 387q-18 0 -43.5 51t-25.5 102q0 14 37 29.5t104.5 26.5t142.5 11q287 0 287 -196q0 -43 -21 -79t-51 -58t-68 -38q-61 -26 -118 -33v-5h228q36 0 36 -81q0 -77 -32 -107q-8 -7 -18 -10h-460q-29 0 -47 48q-16 42 -16 131q0 23 141 93q52 27 96 61t44 61q0 30 -45 30
t-104.5 -18.5t-66.5 -18.5z" />
    <glyph glyph-name="three.os" unicode="&#xf733;" horiz-adv-x="610" 
d="M566 166q9 -31 9 -73t-18 -81.5t-46.5 -65.5t-69.5 -45t-80 -29.5t-86 -17.5q-69 -9 -150 -9q-27 0 -45 42t-18 95.5t28 53.5q100 0 157 22t57 60q0 46 -148 46q-31 0 -31 86.5t31 86.5q86 0 116.5 10t30.5 38q0 16 -14 27.5t-49.5 11.5t-82 -19t-54.5 -19
q-21 0 -44.5 53t-23.5 103q0 27 88 46t165 19q284 0 284 -188q0 -63 -30 -103q-26 -34 -46 -44l-9 -5q56 -28 79 -101z" />
    <glyph glyph-name="four.os" unicode="&#xf734;" horiz-adv-x="669" 
d="M563 -110.5q-61 -6.5 -122.5 -6.5t-78.5 5.5t-17 18.5v93h-295q-35 0 -35 166q0 20 108.5 190t140.5 207q13 15 85 26t148 11q127 0 127 -46v-647q0 -11 -61 -17.5zM362 175l1 235l-115 -235h114z" />
    <glyph glyph-name="five.os" unicode="&#xf735;" horiz-adv-x="586" 
d="M92 -155q-23 0 -40 42.5t-17 95t29 52.5q98 0 156 22.5t58 58.5q0 27 -38 33t-158 6q-21 0 -32.5 90.5t-11.5 152.5q0 202 33 202h442q26 0 26 -80q0 -46 -9.5 -100t-32.5 -54h-280v-45q334 0 334 -211q0 -174 -179 -230q-109 -35 -280 -35z" />
    <glyph glyph-name="six.os" unicode="&#xf736;" horiz-adv-x="670" 
d="M407.5 451q20.5 1 56 1t69.5 -12.5t53.5 -31.5t31.5 -50q17 -46 17 -102.5t-4.5 -85t-21.5 -63.5t-46.5 -59t-83.5 -40.5t-127 -16.5q-159 0 -238 82t-79 275q0 201 77 300q70 89 240 114q76 11 184 11q28 0 46 -43t18 -95.5t-26 -52.5q-118 0 -196 -31.5t-78 -88.5
q0 -18 7 -32q5 2 9.5 4t11.5 4.5t18.5 5t26 4.5t35 3zM335 337q-30 0 -30 -102.5t30 -102.5t30 102.5t-30 102.5z" />
    <glyph glyph-name="seven.os" unicode="&#xf737;" horiz-adv-x="629" 
d="M340 -109.5q-67 -6.5 -129 -6.5t-79 5.5t-17 18.5q0 24 220 450h-299q-14 0 -22 48q-4 23 -4 61t10.5 85.5t33.5 47.5h492q47 0 60 -11t13 -35q0 -51 -70 -271.5t-137 -374.5q-5 -11 -72 -17.5z" />
    <glyph glyph-name="eight.os" unicode="&#xf738;" horiz-adv-x="691" 
d="M656 224q0 -233 -310.5 -233t-310.5 233q0 47 23 103t49 84q-15 17 -32.5 66.5t-17.5 89.5q0 206 288 206t288 -206q0 -40 -17.5 -89.5t-32.5 -66.5q26 -28 49.5 -84t23.5 -103zM345 136q17 0 26.5 16t9.5 66q0 82 -36 82t-36 -82q0 -50 9.5 -66t26.5 -16zM345 505
q36 0 36 59.5t-36 59.5t-36 -59.5t36 -59.5z" />
    <glyph glyph-name="nine.os" unicode="&#xf739;" horiz-adv-x="670" 
d="M102 182q-39 35 -53 82.5t-14 92.5t6.5 75t25 63t48.5 57t82.5 39.5t120.5 15.5q159 0 238 -82t79 -275q0 -221 -90 -305q-64 -60 -163 -81q-93 -19 -248 -19q-28 0 -46 43t-18 96t26 53q275 0 275 100q0 18 -8 40q-7 -3 -13 -6t-15 -6t-22.5 -6t-28.5 -6q-31 -6 -87 -6
t-95 35zM336 271q29 0 29 99q0 55 -7 75.5t-22 20.5q-31 0 -31 -97.5t31 -97.5z" />
    <glyph glyph-name="B.sc" unicode="&#xf761;" horiz-adv-x="724" 
d="M353 0h-219q-50 0 -67 5.5t-17 18.5v542q0 20 81 30.5t182.5 10.5t154 -5.5t99.5 -21.5q93 -33 93 -133q0 -65 -26 -95t-58 -33q108 -20 108 -148q0 -63 -32 -107q-21 -29 -87 -49q-43 -13 -102.5 -14t-109.5 -1zM329 364h25q27 0 39 9.5t12 40.5q0 49 -44 49h-32v-99z
M329 144h25q27 0 39 9t12 40q0 50 -44 50h-32v-99z" />
    <glyph glyph-name="C.sc" unicode="&#xf762;" horiz-adv-x="651" 
d="M366 -9q-102 0 -162 25q-28 12 -60 34.5t-54 53.5q-50 74 -50 193q0 69 19 123t52 86t69 53.5t80 30.5q78 17 131.5 17t83.5 -1t60.5 -5.5t46.5 -12.5q34 -19 34 -58.5t-17 -92.5t-49 -53q-10 0 -68.5 13.5t-80.5 13.5q-78 0 -78 -114.5t72 -114.5q24 0 84 17t71 17
q30 0 47 -52.5t17 -87.5q0 -85 -248 -85z" />
    <glyph glyph-name="D.sc" unicode="&#xf763;" horiz-adv-x="752" 
d="M370 0h-237q-49 0 -66 5.5t-17 18.5v536q0 21 22 30.5t76 9.5h226q191 0 264.5 -64.5t73.5 -230t-76.5 -235.5t-265.5 -70zM420.5 194.5q8.5 33.5 8.5 101.5t-8.5 104.5t-21.5 45.5t-37 9l-33 -3v-304l39 -2q22 0 33 7.5t19.5 41z" />
    <glyph glyph-name="E.sc" unicode="&#xf764;" horiz-adv-x="634" 
d="M566 0h-433q-49 0 -66 5.5t-17 18.5v536q0 22 23.5 31t83.5 9h412q21 0 21 -59.5t-9 -93t-24 -33.5l-228 11v-50q157 5 202 5q27 0 27 -53.5t-10.5 -81.5t-28.5 -28l-190 4v-46q183 10 249 10q21 0 21 -59.5t-9 -92.5t-24 -33z" />
    <glyph glyph-name="F.sc" unicode="&#xf765;" horiz-adv-x="610" 
d="M329 24q0 -13 -64.5 -18.5t-122.5 -5.5t-75 5.5t-17 18.5v536q0 22 26 31t99 9h379q21 0 21 -64q0 -129 -34 -129l-212 8v-50q142 5 187 5q15 0 20.5 -13.5t5.5 -52t-10 -72.5t-28 -34l-175 4v-178z" />
    <glyph glyph-name="G.sc" unicode="&#xf766;" horiz-adv-x="691" 
d="M656 253v-229q0 -11 -54 -17.5t-110 -6.5t-71 5t-18 26l-7 51h-8q-6 -37 -35 -63.5t-87 -26.5q-35 0 -63.5 5.5t-60 24t-52.5 49.5q-50 71 -50 214q0 186 100 258q34 24 63 36t72 19q63 9 162.5 9t142.5 -14.5t43 -59.5t-17 -97.5t-49 -52.5q-9 0 -64 13.5t-78.5 13.5
t-35.5 -3t-27 -13q-29 -20 -29 -89.5t18.5 -93.5t50.5 -28v60q0 21 52 39t115 18q97 0 97 -47z" />
    <glyph glyph-name="H.sc" unicode="&#xf767;" horiz-adv-x="747" 
d="M268 6.5q-61 -6.5 -122.5 -6.5t-78.5 5.5t-17 18.5v512q0 21 60 42.5t126 21.5q48 0 64 -9t22 -17q7 -10 7 -20v-161h88v143q0 21 60 42.5t126 21.5q94 0 94 -46v-530q0 -11 -61.5 -17.5t-122.5 -6.5t-78.5 5.5t-17.5 18.5v184h-88v-184q0 -11 -61 -17.5z" />
    <glyph glyph-name="I.sc" unicode="&#xf768;" horiz-adv-x="379" 
d="M268 6.5q-61 -6.5 -122.5 -6.5t-78.5 5.5t-17 18.5v512q0 22 58 43t113.5 21t77.5 -10.5t26 -18.5t4 -17v-530q0 -11 -61 -17.5z" />
    <glyph glyph-name="J.sc" unicode="&#xf769;" horiz-adv-x="430" 
d="M291.5 -121.5q-37.5 -13.5 -85 -13.5t-69.5 1.5t-46.5 8t-38.5 17.5q-32 27 -32 84q0 82 42 82q13 0 20 4q19 9 19 62v412q0 22 57.5 43t122.5 21q99 0 99 -46v-444q0 -69 -6 -110t-25.5 -74.5t-57 -47z" />
    <glyph glyph-name="K.sc" unicode="&#xf76a;" horiz-adv-x="730" 
d="M268 6.5q-61 -6.5 -122.5 -6.5t-78.5 5.5t-17 18.5v521q0 21 57 38t113.5 17t78.5 -10.5t26 -18.5t4 -17v-142h9q1 2 15 36t28.5 68t32 63.5t27.5 29.5q48 0 138 -25q43 -12 74 -34.5t31 -44.5t-37.5 -72t-112.5 -133q7 -6 19 -16t42.5 -37t53.5 -51q61 -62 61 -83
q0 -37 -91 -79t-136 -42q-18 0 -48.5 42t-52.5 84l-21 42l-32 -31v-105q0 -11 -61 -17.5z" />
    <glyph glyph-name="L.sc" unicode="&#xf76b;" horiz-adv-x="564" 
d="M501 0h-367q-50 0 -67 5.5t-17 18.5v512q0 22 58 43t113.5 21t77.5 -10.5t26 -18.5t4 -17v-333q122 8 184 8q21 0 21 -66.5t-9 -114.5t-24 -48z" />
    <glyph glyph-name="M.sc" unicode="&#xf76c;" horiz-adv-x="900" 
d="M67 5.5q-17 5.5 -17 18.5v534q0 20 61.5 31t131.5 11t100 -15t35 -32l70 -221h12l59 211q6 23 64.5 40t136.5 17q130 0 130 -33v-543q0 -11 -61 -17.5t-143.5 -6.5t-82.5 24q0 58 16 240h-9l-51 -223q-3 -13 -20 -18.5t-60 -5.5t-52.5 5t-12.5 19l-56 223h-9
q20 -175 20 -240q0 -17 -67 -21q-51 -3 -114.5 -3t-80.5 5.5z" />
    <glyph glyph-name="N.sc" unicode="&#xf76d;" horiz-adv-x="754" 
d="M268 6.5q-61 -6.5 -122.5 -6.5t-78.5 5.5t-17 18.5v512q0 22 58 43t130 21q26 0 38 -2q33 -3 49 -36l95 -192h4v166q0 22 58 43t130 21q92 0 92 -46v-530q0 -11 -61.5 -17.5t-134.5 -6.5t-82 16l-92 187h-5v-179q0 -11 -61 -17.5z" />
    <glyph glyph-name="O.sc" unicode="&#xf76e;" horiz-adv-x="768" 
d="M384 -9q-83 0 -141 12.5t-107 46.5q-96 66 -96 257q0 171 100 239q90 63 244 63q80 0 137 -12t107 -43q100 -63 100 -241.5t-89 -250t-255 -71.5zM384 145q23 0 33.5 6.5t19 41.5t8.5 107.5t-8.5 107t-19 41t-33.5 6.5t-33.5 -6.5t-19 -41t-8.5 -107t8.5 -107.5t19 -41.5
t33.5 -6.5z" />
    <glyph glyph-name="P.sc" unicode="&#xf76f;" horiz-adv-x="736" 
d="M329 24q0 -11 -61 -17.5t-122.5 -6.5t-78.5 5.5t-17 18.5v545q0 40 289 40q73 0 120.5 -4t97 -17.5t77.5 -37.5q62 -56 62 -174q0 -141 -75 -193q-65 -45 -188 -51q-32 -1 -80 -1l-24 1v-108zM329 275h25q15 0 23 2t18 11q18 15 18 82q0 95 -52 95h-32v-190z" />
    <glyph glyph-name="Q.sc" unicode="&#xf770;" horiz-adv-x="768" 
d="M728 307q0 -237 -154 -291q37 -67 37 -81.5t-22 -28.5t-57 -20q-63 -11 -106.5 -11t-60.5 7.5t-26 30.5l-34 82q-64 7 -109 23.5t-82 50.5q-74 68 -74 238q0 177 100 243q48 33 106.5 46.5t129.5 13.5t118 -6t93.5 -25t75.5 -51q65 -73 65 -221zM349.5 152.5
q10.5 -6.5 34 -6.5t34.5 6q26 17 26 149q0 133 -27 149q-11 6 -31 6t-29 -3.5t-18 -17.5q-16 -25 -16 -116t8 -125.5t18.5 -41z" />
    <glyph glyph-name="R.sc" unicode="&#xf771;" horiz-adv-x="733" 
d="M329 24q0 -11 -61 -17.5t-122.5 -6.5t-78.5 5.5t-17 18.5v546q0 40 281 40q177 0 235 -18q71 -22 96 -58q34 -49 34 -126q0 -140 -98 -193q44 -51 79.5 -103t35.5 -71q0 -41 -196 -41q-57 0 -79 4.5t-28 18.5l-65 157l-16 1v-157zM329 332h25q29 0 44 13t15 56
q0 65 -52 65h-32v-134z" />
    <glyph glyph-name="S.sc" unicode="&#xf772;" horiz-adv-x="668" 
d="M333 -9q-92 0 -164.5 11.5t-103 26.5t-30.5 29q0 45 25.5 103.5t47.5 58.5q4 0 70 -25t119 -25t53 31q0 17 -30 26t-72 16.5t-84.5 21t-72 48.5t-29.5 90q0 29 3 50.5t18.5 53t42.5 52t80 35.5t139 15t157 -11q131 -19 131 -50q0 -44 -27.5 -99.5t-50.5 -55.5q-4 0 -25 9
q-62 24 -123.5 24t-61.5 -31q0 -15 30 -21.5t72 -12.5t84.5 -20t72 -52.5t29.5 -100.5q0 -72 -55 -129q-66 -68 -245 -68z" />
    <glyph glyph-name="T.sc" unicode="&#xf773;" horiz-adv-x="661" 
d="M595 345h-125v-321q0 -11 -61.5 -17.5t-123 -6.5t-78 5.5t-16.5 18.5v321h-139q-11 0 -19 28t-8 83.5t12 99.5t32 44h541q15 0 20.5 -28t5.5 -81t-11 -99.5t-30 -46.5z" />
    <glyph glyph-name="U.sc" unicode="&#xf774;" horiz-adv-x="755" 
d="M705 554v-317q0 -123 -85 -184t-242.5 -61t-242.5 61t-85 184v308q0 21 57 38t113.5 17t78.5 -10.5t26 -18.5t4 -17v-249q0 -94 10 -126.5t38.5 -32.5t38 32t9.5 128v239q0 21 57 38t131 17q92 0 92 -46z" />
    <glyph glyph-name="V.sc" unicode="&#xf775;" horiz-adv-x="748" 
d="M20 540q0 10 26 24t73.5 25t94 11t73.5 -8q44 -13 46 -36l38 -304h9l34 297q3 24 68 37.5t121 13.5t83 -8t34.5 -17t7.5 -15.5t-8 -23.5q-67 -144 -216 -510q-11 -26 -173 -26q-51 0 -66.5 5.5t-21.5 20.5q-73 179 -148 344t-75 170z" />
    <glyph glyph-name="W.sc" unicode="&#xf776;" horiz-adv-x="1035" 
d="M325 0q-48 0 -63 5.5t-21 20.5q-73 190 -188 434q-33 70 -33 74q0 10 31.5 25.5t84 28t100.5 12.5q97 0 100 -50l36 -299h10l30 292q3 27 40 42t82.5 15t65 -7.5t24 -14t8.5 -19.5l36 -308h9l28 292q3 25 71 41t121 16t78.5 -9.5t32.5 -19.5t7 -17t-6 -20
q-61 -130 -208 -508q-11 -26 -148 -26q-41 0 -54.5 6t-19.5 20l-54 149h-8l-54 -149q-9 -26 -138 -26z" />
    <glyph glyph-name="X.sc" unicode="&#xf777;" horiz-adv-x="745" 
d="M221 0q-72 0 -136.5 10.5t-64.5 30.5q0 12 42 78.5t126 187.5q-151 228 -151 239q0 19 65.5 36.5t117 17.5t84 -13t37.5 -27l40 -153h4l29 144q1 6 23.5 17.5t62 21.5t90 10t85 -10t34.5 -38q0 -15 -36.5 -83.5t-110.5 -190.5q163 -224 163 -237q0 -41 -120 -41
q-177 0 -190 40l-40 119h-4l-34 -119q-19 -40 -116 -40z" />
    <glyph glyph-name="Y.sc" unicode="&#xf778;" horiz-adv-x="720" 
d="M437 6.5q-61 -6.5 -121.5 -6.5t-78.5 5.5t-18 18.5v150q-199 340 -199 370q0 17 67 36.5t142 19.5q95 0 101 -47l29 -194h7l21 187q3 24 71 39t122.5 15t79.5 -9q40 -14 40 -38q0 -15 -202 -379v-150q0 -11 -61 -17.5z" />
    <glyph glyph-name="Z.sc" unicode="&#xf779;" horiz-adv-x="658" 
d="M598 408q0 -15 -55 -57.5t-166 -112.5h220q11 0 18.5 -25t7.5 -72t-13 -94t-33 -47h-488q-28 0 -41 61t-13 123q0 12 58.5 57t175.5 122h-203q-11 0 -19 26.5t-8 72.5t13 92t33 46h462q51 0 51 -192z" />
    <glyph glyph-name="A.sc" unicode="&#xf77a;" horiz-adv-x="757" 
d="M296 9.5q-28 -9.5 -87 -9.5t-103 6q-86 13 -86 34q0 14 72.5 214t118.5 321q4 11 79.5 18t161.5 7t97 -25q69 -186 128.5 -355.5t59.5 -178.5q0 -41 -132 -41q-72 0 -120.5 9.5t-50.5 26.5l-7 56h-96l-5 -48q-2 -25 -30 -34.5zM406 254l-15 148h-22l-17 -148h54z" />
    <glyph glyph-name="ff" unicode="&#xfb00;" horiz-adv-x="910" 
d="M358 320v-296q0 -11 -55 -17.5t-135 -6.5t-80 24v296h-51q-27 0 -27 91q0 36 12.5 67.5t32.5 31.5h33q0 64 19.5 113t47.5 76t66 44q60 27 132 27q132 0 184 -37q68 47 167 47q186 0 186 -61q0 -66 -13 -108t-35 -42q-9 0 -33.5 6.5t-46.5 6.5q-58 0 -58 -40q0 -20 5 -32
h133q27 0 27 -88q0 -39 -11.5 -70.5t-30.5 -31.5h-118v-296q0 -11 -55 -17.5t-135 -6.5t-80 24v296h-81zM353 542q0 -20 5 -32h81q0 40 5 65q-19 7 -33 7q-58 0 -58 -40z" />
    <glyph glyph-name="fi" unicode="&#xfb01;" horiz-adv-x="749" 
d="M358 321v-297q0 -11 -55 -17.5t-135 -6.5t-80 24v297h-51q-27 0 -27 91q0 36 12.5 67.5t32.5 31.5h33q0 65 17.5 114t45 78t66.5 47q65 30 158.5 30t178 -17.5t84.5 -43.5q0 -63 -21.5 -111t-44.5 -48q-11 0 -67 11t-94 11q-57 0 -57 -45q0 -13 4 -26h262q89 0 89 -46
v-441q0 -11 -57.5 -17.5t-118 -6.5t-78 5.5t-17.5 18.5v297h-80z" />
    <glyph glyph-name="fl" unicode="&#xfb02;" horiz-adv-x="749" 
d="M184 0q-91 0 -91 23v298h-48q-30 0 -30 91q0 34 9 58q14 41 35 41h34q0 73 25 127t68 84q82 58 197 58q235 0 299 -80q20 -25 26 -49.5t6 -56.5v-567q0 -13 -55.5 -20t-110 -7t-75.5 4t-25 8.5t-4 14.5v468q0 50 -8.5 68t-30.5 18t-32 -19t-10 -68v-468q0 -26 -179 -26z
" />
    <glyph glyph-name="ffi" unicode="&#xfb03;" horiz-adv-x="1100" 
d="M358 320v-296q0 -11 -55 -17.5t-135 -6.5t-80 24v296h-51q-27 0 -27 91q0 36 12.5 67.5t32.5 31.5h33q0 64 19.5 113t47.5 76t66 44q60 27 132 27q132 0 184 -37q68 47 173.5 47t192 -17.5t86.5 -43.5q0 -63 -21.5 -111t-44.5 -48q-11 0 -67 11t-94 11q-57 0 -57 -45
q0 -13 4 -26h262q89 0 89 -46v-441q0 -11 -57.5 -17.5t-118 -6.5t-78 5.5t-17.5 18.5v297h-80v-297q0 -11 -55 -17.5t-135 -6.5t-80 24v296h-81zM353 542q0 -20 5 -32h81q0 40 5 65q-19 7 -33 7q-58 0 -58 -40z" />
    <glyph glyph-name="ffl" unicode="&#xfb04;" horiz-adv-x="1100" 
d="M358 320v-296q0 -11 -55 -17.5t-135 -6.5t-80 24v296h-51q-27 0 -27 91q0 36 12.5 67.5t32.5 31.5h33q0 64 19.5 113t47.5 76t66 44q60 27 132 27q132 0 184 -37q68 47 168.5 47t164.5 -10.5t100 -27t57 -42t27 -49.5t6 -57v-567q0 -13 -55.5 -20t-110 -7t-75.5 4
t-25 8.5t-4 14.5v468q0 52 -9 74t-31 22q-41 0 -41 -87v-480q0 -11 -55 -17.5t-135 -6.5t-80 24v296h-81zM353 542q0 -20 5 -32h81q0 40 5 65q-19 7 -33 7q-58 0 -58 -40z" />
    </font>
</defs>
</svg>
