<?xml version="1.0" standalone="no"?>
<!DOCTYPE svg PUBLIC "-//W3C//DTD SVG 1.1//EN" "http://www.w3.org/Graphics/SVG/1.1/DTD/svg11.dtd" >
<svg xmlns="http://www.w3.org/2000/svg" xmlns:xlink="http://www.w3.org/1999/xlink" version="1.1">
<metadata>
Created by FontForge 20230101 at Thu May  4 12:38:23 2017
 By Glenn Lewis
Copyright (c) 2012, Eduardo Tunni (http://www.tipo.net.ar), with Reserved Font Name 'Average'
</metadata>
<defs>
<font id="AverageSans-Regular" horiz-adv-x="523" >
  <font-face 
    font-family="Average Sans"
    font-weight="400"
    font-stretch="normal"
    units-per-em="1000"
    panose-1="2 0 5 3 4 0 0 2 0 3"
    ascent="800"
    descent="-200"
    x-height="456"
    cap-height="691"
    bbox="-85 -269 1116 1027"
    underline-thickness="50"
    underline-position="-100"
    unicode-range="U+0020-FB04"
  />
<missing-glyph horiz-adv-x="250" 
 />
    <glyph glyph-name="f_f" unicode="ff" horiz-adv-x="620" 
d="M177 578v-122h228v121q0 74 35 113.5t91.5 39.5t120.5 -30l-29 -60q-44 18 -76 18q-60 0 -60 -80v-122h124v-63h-124v-393h-82v393h-228v-393h-82v393h-68v63h68v121q0 74 35 113.5t91.5 39.5t120.5 -30l-29 -60q-44 18 -76 18q-60 0 -60 -80z" />
    <glyph glyph-name="fi" unicode="fi" horiz-adv-x="555" 
d="M95 456v121q0 74 35 113.5t91.5 39.5t120.5 -30l-29 -60q-44 18 -76 18q-60 0 -60 -80v-122h298v-456h-85v393h-213v-393h-82v393h-68v63h68zM432 547q-23 0 -39 16.5t-16 39.5t16.5 39.5t38.5 16.5t38.5 -16.5t16.5 -39.5t-16 -39.5t-39 -16.5z" />
    <glyph glyph-name="fl" unicode="fl" horiz-adv-x="531" 
d="M463 730v-730h-82v627q-83 34 -132 34q-72 0 -72 -83v-122h124v-63h-124v-393h-82v393h-68v63h68v121q0 153 138 153q67 0 172 -39l29 39h29z" />
    <glyph glyph-name="f_f_i" unicode="ffi" horiz-adv-x="865" 
d="M487 393v-393h-82v393h-228v-393h-82v393h-68v63h68v121q0 74 35 113.5t91.5 39.5t120.5 -30l-29 -60q-44 18 -76 18q-60 0 -60 -80v-122h228v121q0 74 35 113.5t91.5 39.5t120.5 -30l-29 -60q-44 18 -76 18q-60 0 -60 -80v-122h298v-456h-85v393h-213zM742 547
q-23 0 -39 16.5t-16 39.5t16.5 39.5t38.5 16.5t38.5 -16.5t16.5 -39.5t-16 -39.5t-39 -16.5z" />
    <glyph glyph-name="f_f_l" unicode="ffl" horiz-adv-x="840" 
d="M177 393v-393h-82v393h-68v63h68v121q0 74 35 113.5t91.5 39.5t120.5 -30l-29 -60q-44 18 -76 18q-60 0 -60 -80v-122h227v121q0 153 138 153q67 0 172 -39l29 39h29v-730h-82v627q-83 34 -132 34q-72 0 -72 -83v-122h124v-63h-124v-393h-82v393h-227z" />
    <glyph glyph-name="fj" unicode="fj" horiz-adv-x="552" 
d="M432 547q-23 0 -39 16.5t-16 39.5t16.5 39.5t38.5 16.5t38.5 -16.5t16.5 -39.5t-16 -39.5t-39 -16.5zM393 393h-216v-393h-82v393h-68v63h68v121q0 74 35 113.5t91.5 39.5t120.5 -30l-29 -60q-44 18 -76 18q-60 0 -60 -80v-122h298v-545q0 -74 -35 -113.5t-91.5 -39.5
t-120.5 30l29 60q44 -18 76 -18q60 0 60 80v483z" />
    <glyph glyph-name=".notdef" horiz-adv-x="250" 
 />
    <glyph glyph-name=".null" horiz-adv-x="0" 
 />
    <glyph glyph-name="nonmarkingreturn" horiz-adv-x="333" 
 />
    <glyph glyph-name="space" unicode=" " horiz-adv-x="270" 
 />
    <glyph glyph-name="exclam" unicode="!" horiz-adv-x="236" 
d="M118 -9q-22 0 -37.5 15.5t-15.5 38.5t15.5 38.5t37.5 15.5t37.5 -15.5t15.5 -38.5t-15.5 -38.5t-37.5 -15.5zM171 646l-27 -478l-48 -9l-31 487h106z" />
    <glyph glyph-name="quotedbl" unicode="&#x22;" horiz-adv-x="274" 
d="M25 663h90l-20 -225h-50zM159 663h90l-20 -225h-50z" />
    <glyph glyph-name="numbersign" unicode="#" 
d="M24 223v61h96l26 101h-81v61h97l59 228h65l-59 -228h128l59 228h65l-59 -228h79v-61h-95l-26 -101h82v-61h-97l-60 -232h-65l60 232h-128l-60 -232h-65l60 232h-81zM211 385l-26 -101h128l26 101h-128z" />
    <glyph glyph-name="dollar" unicode="$" 
d="M468 167q0 -82 -58.5 -130.5t-156.5 -48.5h-16l-13 -108h-45l13 112q-87 10 -137 34l24 67q58 -26 122 -33l29 243l-47 26q-113 62 -113 164q0 80 56 129t150 51l13 108h45l-14 -110q53 -5 115 -25l-25 -66q-63 20 -98 22l-29 -233l72 -39q113 -63 113 -163zM382 159
q0 61 -64 96l-46 25l-27 -222q64 0 100.5 29.5t36.5 71.5zM156 500q0 -60 64 -95l21 -12l26 208q-52 -6 -81.5 -35t-29.5 -66z" />
    <glyph glyph-name="percent" unicode="%" horiz-adv-x="795" 
d="M250 -10l247 685h48l-247 -685h-48zM341 455q0 -102 -41.5 -160.5t-110 -58.5t-110 58.5t-41.5 160.5t41.5 159.5t110 57.5t110 -57.5t41.5 -159.5zM266 455q0 76 -20 116.5t-56.5 40.5t-56.5 -41t-20 -116.5t20 -116t56.5 -40.5t56.5 40.5t20 116.5zM756 211
q0 -102 -41.5 -160.5t-110 -58.5t-110 58.5t-41.5 160.5t41.5 159.5t110 57.5t110 -57.5t41.5 -159.5zM681 211q0 76 -20 116.5t-56.5 40.5t-56.5 -41t-20 -116.5t20 -116t56.5 -40.5t56.5 40.5t20 116.5z" />
    <glyph glyph-name="ampersand" unicode="&#x26;" horiz-adv-x="680" 
d="M248 -12q-87 0 -146 49.5t-59 142.5q0 75 41.5 124t112.5 86q-58 91 -58 156q0 86 51.5 132.5t123 46.5t124 -45.5t52.5 -123.5q0 -79 -54 -124q-43 -36 -118 -71q62 -77 156 -165q49 69 69 155l81 -16q-26 -113 -90 -195q59 -53 121 -103l-56 -58q-63 51 -120 102
q-106 -93 -231 -93zM248 62q89 0 172 74q-109 102 -178 191q-53 -27 -82 -60.5t-29 -88.5t33.5 -85.5t83.5 -30.5zM227 546q0 -50 45 -121q99 45 120 87q10 20 10 44q0 44 -26.5 69.5t-62 25.5t-61 -27.5t-25.5 -77.5z" />
    <glyph glyph-name="quotesingle" unicode="'" horiz-adv-x="140" 
d="M25 663h90l-20 -225h-50z" />
    <glyph glyph-name="parenleft" unicode="(" horiz-adv-x="350" 
d="M152 291q0 -225 169 -385l-54 -54q-197 188 -197 439t197 439l54 -54q-169 -160 -169 -385z" />
    <glyph glyph-name="parenright" unicode=")" horiz-adv-x="350" 
d="M198 291q0 225 -169 385l54 54q197 -188 197 -439t-197 -439l-54 54q169 160 169 385z" />
    <glyph glyph-name="asterisk" unicode="*" horiz-adv-x="462" 
d="M259 556q32 14 143 67l30 -91l-156 -29q18 -19 54.5 -57.5t53.5 -57.5l-78 -57l-75 138l-76 -137l-78 56l109 115l-156 30l30 91l143 -67l-20 156h96z" />
    <glyph glyph-name="plus" unicode="+" 
d="M231 541h61v-207h207v-61h-207v-207h-61v207h-207v61h207v207z" />
    <glyph glyph-name="comma" unicode="," horiz-adv-x="214" 
d="M68 -135l-47 10l41 204l96 10z" />
    <glyph glyph-name="hyphen" unicode="-" horiz-adv-x="355" 
d="M320 228h-285v68h285v-68z" />
    <glyph glyph-name="period" unicode="." horiz-adv-x="165" 
d="M82 -9q-22 0 -37 15.5t-15 38.5t15 38t37 15t37.5 -15t15.5 -38t-15.5 -38.5t-37.5 -15.5z" />
    <glyph glyph-name="slash" unicode="/" horiz-adv-x="290" 
d="M20 -140l185 841h65l-185 -841h-65z" />
    <glyph glyph-name="zero" unicode="0" horiz-adv-x="587" 
d="M527 331q0 -162 -63.5 -252.5t-170 -90.5t-170 90.5t-63.5 252.5t63.5 252t170 90t170 -90t63.5 -252zM437 331q0 130 -38 201t-105 71t-105.5 -71t-38.5 -201t38.5 -201t105.5 -71t105 71t38 201z" />
    <glyph glyph-name="one" unicode="1" horiz-adv-x="369" 
d="M269 665v-665h-87v574l-153 -73l-29 65l208 99h61z" />
    <glyph glyph-name="two" unicode="2" horiz-adv-x="520" 
d="M465 0h-412l-18 53q21 20 65 61t63.5 59.5t54.5 53t51 54t38.5 49t32.5 50.5q25 54 25 105t-33 82t-97.5 31t-155.5 -42l-32 61q96 56 194.5 56t156 -47.5t57.5 -133.5q0 -69 -34 -126q-20 -33 -34 -55.5t-50.5 -61.5t-52.5 -55.5t-64.5 -63t-62.5 -60.5l308 6v-76z" />
    <glyph glyph-name="three" unicode="3" horiz-adv-x="531" 
d="M321 574q-29 24 -86 24t-132 -42l-31 61q97 56 185.5 56t135.5 -48t47 -108t-32 -106.5t-93 -61.5v-7q76 -22 107 -63t31 -109.5t-57 -125t-158.5 -56.5t-182.5 39l27 61q63 -30 132.5 -30t109 39t39.5 90t-37.5 87t-108.5 36h-87v66h80q66 0 103 36.5t37 87t-29 74.5z
" />
    <glyph glyph-name="four" unicode="4" horiz-adv-x="515" 
d="M409 0h-87v149h-289l-18 53l325 463h69v-443h66v-73h-66v-149zM322 222v297h-5l-203 -297h208z" />
    <glyph glyph-name="five" unicode="5" horiz-adv-x="506" 
d="M181 395h36q114 0 176.5 -60.5t62.5 -142t-60.5 -143t-168 -61.5t-172.5 39l26 60q61 -29 130.5 -29t112 40t42.5 97.5t-43 95t-124 37.5h-105v333h340l-20 -80l-233 4v-190z" />
    <glyph glyph-name="six" unicode="6" horiz-adv-x="552" 
d="M334 598q-79 0 -126.5 -61.5t-57.5 -177.5q84 35 158.5 35t136 -48.5t61.5 -133.5q0 -102 -61 -163t-158.5 -61t-162 75.5t-64.5 240.5t72.5 267t201.5 102q71 0 149 -31l-37 -70q-63 26 -112 26zM378 94.5q38 38.5 38 100.5t-35 96.5t-87 34.5q-77 0 -145 -41
q1 -105 36.5 -167t95 -62t97.5 38.5z" />
    <glyph glyph-name="seven" unicode="7" horiz-adv-x="477" 
d="M458 661v-30l-268 -631h-99l259 585l-293 -5l-20 81h421z" />
    <glyph glyph-name="eight" unicode="8" horiz-adv-x="567" 
d="M394 510q0 44 -28.5 69.5t-81 25.5t-81.5 -27.5t-29 -70.5t27.5 -68.5t104.5 -61.5q88 57 88 133zM154 170q0 -55 36.5 -85.5t94.5 -30.5t93 30.5t35 81.5t-30 79t-120 70q-109 -57 -109 -145zM88 503q0 74 54.5 122t143 48t141.5 -46.5t53 -118.5q0 -96 -114 -161
q71 -34 104 -73t33 -111.5t-60 -123.5t-161.5 -51t-159.5 52t-58 130q0 106 130 178q-52 27 -79 62.5t-27 92.5z" />
    <glyph glyph-name="nine" unicode="9" horiz-adv-x="551" 
d="M173.5 565q-38.5 -40 -38.5 -104.5t34.5 -100.5t87.5 -36q78 0 146 43q0 108 -35.5 173t-95.5 65t-98.5 -40zM427.5 597.5q63.5 -75.5 63.5 -239.5t-75 -267t-203 -103q-78 0 -163 39l27 61q64 -26 122 -26q85 0 140.5 57.5t61.5 171.5q-84 -35 -164.5 -35t-136 53.5
t-55.5 150t62 155t159.5 58.5t161 -75.5z" />
    <glyph glyph-name="colon" unicode=":" horiz-adv-x="166" 
d="M83 -9q-22 0 -37.5 15.5t-15.5 38.5t15.5 38.5t37.5 15.5t37.5 -15.5t15.5 -38.5t-15.5 -38.5t-37.5 -15.5zM83 295q-22 0 -37.5 15.5t-15.5 38.5t15.5 38.5t37.5 15.5t37.5 -15.5t15.5 -38.5t-15.5 -38.5t-37.5 -15.5z" />
    <glyph glyph-name="semicolon" unicode=";" horiz-adv-x="214" 
d="M116 295q-22 0 -37.5 15.5t-15.5 38.5t15.5 38.5t37.5 15.5t37.5 -15.5t15.5 -38.5t-15.5 -38.5t-37.5 -15.5zM68 -135l-47 10l41 204l96 10z" />
    <glyph glyph-name="less" unicode="&#x3c;" 
d="M487 56l-450 247l450 247v-69l-336 -178l336 -178v-69z" />
    <glyph glyph-name="equal" unicode="=" 
d="M24 354v61h475v-61h-475zM24 192v61h475v-61h-475z" />
    <glyph glyph-name="greater" unicode="&#x3e;" 
d="M487 303l-450 -247v69l336 178l-336 178v69z" />
    <glyph glyph-name="question" unicode="?" horiz-adv-x="360" 
d="M97 165q-19 67 -19 112t26.5 74.5t58 46.5t58 45t26.5 61.5t-30 57t-102 23.5q-33 0 -65 -4l8 66q31 3 76 3t90.5 -13t68.5 -35q42 -42 42 -89.5t-19.5 -79t-47.5 -51t-56 -36.5q-66 -39 -66 -77t17 -99q-64 -5 -66 -5zM138 -9q-22 0 -37.5 15.5t-15.5 38.5t15.5 38.5
t37.5 15.5t37.5 -15.5t15.5 -38.5t-15.5 -38.5t-37.5 -15.5z" />
    <glyph glyph-name="at" unicode="@" horiz-adv-x="809" 
d="M647 250.5q37 60.5 37 133t-58 128.5t-166 56q-72 0 -131.5 -26.5t-96.5 -69.5q-79 -90 -79 -210.5t72.5 -190t182 -69.5t217.5 88l43 -55q-59 -47 -132 -75t-151 -28t-150.5 35.5t-121 114t-48.5 188.5q0 138 101 250q49 53 126 85.5t162 32.5t145.5 -22t97.5 -60
q75 -76 75 -177t-72 -176.5t-195 -75.5l-24 75q-50 -80 -126 -80q-45 0 -75.5 35t-30.5 98q0 83 55 148t140 65q57 0 118 -32l-21 -252q69 6 106 66.5zM448 411q-49 0 -82 -44.5t-33 -92.5t14 -69t37 -21t49.5 26.5t43.5 74.5l14 116q-21 10 -43 10z" />
    <glyph glyph-name="A" unicode="A" horiz-adv-x="623" 
d="M518 0l-79 225h-261l-79 -225h-89l250 691h103l250 -691h-95zM414 298l-87 249l-16 56h-4l-16 -56l-87 -249h210z" />
    <glyph glyph-name="B" unicode="B" horiz-adv-x="553" 
d="M75 0v691h174q111 0 177 -46t66 -135q0 -101 -100 -149q61 -20 96 -61.5t35 -100.5q0 -94 -69.5 -146.5t-183.5 -52.5h-195zM269 323h-108v-247h108q162 0 162 123.5t-162 123.5zM161 389h87q75 0 113.5 32.5t38.5 87.5t-37.5 80.5t-114.5 25.5h-87v-226z" />
    <glyph glyph-name="C" unicode="C" horiz-adv-x="612" 
d="M149 321q0 -115 60.5 -187t164 -72t202.5 51l11 -76q-112 -49 -220 -49t-179.5 48.5t-104.5 122.5t-33 162q0 168 98 275t261 107q75 0 162 -27l-24 -70q-69 21 -138 21q-122 0 -191 -82t-69 -224z" />
    <glyph glyph-name="D" unicode="D" horiz-adv-x="693" 
d="M75 0v691h260q75 0 135 -27t97 -72q76 -94 76 -222q0 -162 -98 -266t-261 -104h-209zM324 615h-163v-539h123q124 0 192 78t68 216q0 103 -57.5 174t-162.5 71z" />
    <glyph glyph-name="E" unicode="E" horiz-adv-x="535" 
d="M75 0v691h406l-19 -76h-301v-228h284v-73h-284v-238h339v-76h-425z" />
    <glyph glyph-name="F" unicode="F" horiz-adv-x="494" 
d="M75 0v691h389l-19 -76h-284v-228h267v-73h-267v-314h-86z" />
    <glyph glyph-name="G" unicode="G" horiz-adv-x="675" 
d="M409 627q-122 0 -191 -82t-69 -224q0 -115 60.5 -187t155 -72t175.5 36v178h-148v73h233v-294q-131 -67 -267 -67q-99 0 -170.5 48.5t-104.5 122.5t-33 162q0 168 98 275t261 107q80 0 178 -32l-25 -70q-81 26 -153 26z" />
    <glyph glyph-name="H" unicode="H" horiz-adv-x="695" 
d="M534 0v314h-373v-314h-86v691h86v-304h373v304h86v-691h-86z" />
    <glyph glyph-name="I" unicode="I" horiz-adv-x="256" 
d="M85 0v691h86v-691h-86z" />
    <glyph glyph-name="J" unicode="J" horiz-adv-x="271" 
d="M186 691v-692q0 -99 -37.5 -149.5t-131.5 -50.5q-39 0 -70 11l17 69q21 -8 54 -8q47 0 64.5 34t17.5 102v684h86z" />
    <glyph glyph-name="K" unicode="K" horiz-adv-x="571" 
d="M161 0h-86v691h86v-292l273 292h107l-272 -284l297 -407h-110l-249 342l-46 -48v-294z" />
    <glyph glyph-name="L" unicode="L" horiz-adv-x="459" 
d="M75 0v691h86v-615h293v-76h-379z" />
    <glyph glyph-name="M" unicode="M" horiz-adv-x="886" 
d="M489 0h-103l-206 572h-5l-19 -572h-86l27 690h129l215 -597h4l215 597h129l27 -690h-96l-19 572h-5z" />
    <glyph glyph-name="N" unicode="N" horiz-adv-x="731" 
d="M570 155v536h86v-691h-83l-407 537h-5v-537h-86v691h83l407 -536h5z" />
    <glyph glyph-name="O" unicode="O" horiz-adv-x="759" 
d="M355 -12q-75 0 -134.5 28t-96.5 75q-74 96 -74 230q0 168 97 275t257 107q75 0 134.5 -28t95.5 -75q75 -96 75 -230q0 -168 -97 -275t-257 -107zM400 628q-124 0 -191 -81t-67 -227q0 -107 57.5 -183t160.5 -76q124 0 190.5 81t66.5 227q0 107 -57 183t-160 76z" />
    <glyph glyph-name="P" unicode="P" 
d="M257 267h-96v-267h-86v691h182q106 0 171 -56t65 -156t-65 -156t-171 -56zM161 343h96q144 0 144 136t-144 136h-96v-272z" />
    <glyph glyph-name="Q" unicode="Q" horiz-adv-x="759" 
d="M50 321q0 168 97 275t257 107q75 0 134.5 -28t95.5 -75q75 -96 75 -233t-69 -237t-189 -130l258 -156v-22l-83 -39l-278 205q-96 2 -166 51q-132 93 -132 282zM400 631q-124 0 -191 -82.5t-67 -229.5q0 -110 57.5 -187.5t160.5 -77.5q124 0 190.5 82.5t66.5 229.5
q0 110 -57 187.5t-160 77.5z" />
    <glyph glyph-name="R" unicode="R" horiz-adv-x="549" 
d="M161 281v-281h-86v691h182q102 0 169 -54.5t67 -151.5q0 -70 -37 -118.5t-100 -70.5q52 -60 193 -296h-104q-139 240 -176 281h-108zM161 355h96q69 0 106.5 34t37.5 96t-37.5 96t-106.5 34h-96v-260z" />
    <glyph glyph-name="S" unicode="S" horiz-adv-x="512" 
d="M412 605q-70 24 -130 24t-98 -31t-38 -75q0 -63 67 -99l141 -78q118 -66 118 -170q0 -86 -61 -137t-172 -51t-199 40l25 70q82 -36 161.5 -36t117.5 31t38 75q0 63 -67 99l-141 78q-118 66 -118 170q0 86 61 137t164 51q70 0 157 -29z" />
    <glyph glyph-name="T" unicode="T" horiz-adv-x="492" 
d="M5 615v76h482v-76h-198v-615h-86v615h-198z" />
    <glyph glyph-name="U" unicode="U" horiz-adv-x="660" 
d="M156 691v-469q0 -76 53 -123q42 -38 121 -38q109 0 152 77q22 38 22 84v469h86v-469q0 -103 -67.5 -168.5t-192.5 -65.5t-192.5 65.5t-67.5 168.5v469h86z" />
    <glyph glyph-name="V" unicode="V" horiz-adv-x="585" 
d="M100 691l194 -596h5l196 596h85l-226 -691h-120l-229 691h95z" />
    <glyph glyph-name="W" unicode="W" horiz-adv-x="873" 
d="M485 691l145 -596h4l146 596h88l-176 -691h-123l-131 514h-4l-130 -514h-120l-179 691h98l145 -596h4l146 596h87z" />
    <glyph glyph-name="X" unicode="X" horiz-adv-x="669" 
d="M45 691h107l183 -258l179 258h106l-234 -330l258 -361h-112l-203 287l-198 -287h-106l254 359z" />
    <glyph glyph-name="Y" unicode="Y" horiz-adv-x="558" 
d="M318 0h-86v247l-227 444h95l176 -349h5l178 349h94l-235 -444v-247z" />
    <glyph glyph-name="Z" unicode="Z" horiz-adv-x="605" 
d="M572 76v-76h-524l-18 53l426 562h-372l-19 76h490l20 -60l-418 -555h415z" />
    <glyph glyph-name="bracketleft" unicode="[" horiz-adv-x="350" 
d="M167 653v-718h134l10 -65h-226v848h226l-10 -65h-134z" />
    <glyph glyph-name="backslash" unicode="\" horiz-adv-x="290" 
d="M85 701l185 -841h-65l-185 841h65z" />
    <glyph glyph-name="bracketright" unicode="]" horiz-adv-x="350" 
d="M183 -65v718h-134l-10 65h226v-848h-226l10 65h134z" />
    <glyph glyph-name="asciicircum" unicode="^" 
d="M235 664h51l200 -399h-69l-156 336l-156 -336h-69z" />
    <glyph glyph-name="underscore" unicode="_" horiz-adv-x="462" 
d="M7 -16h448v-64h-448v64z" />
    <glyph glyph-name="grave" unicode="`" horiz-adv-x="285" 
d="M180 513h-64l-135 130l72 54z" />
    <glyph glyph-name="a" unicode="a" horiz-adv-x="475" 
d="M322 273v44q0 81 -84 81q-66 0 -138 -43l-29 60q84 53 181 53q68 0 111.5 -34.5t43.5 -106.5v-327h-54l-25 60q-32 -33 -76 -52.5t-80 -19.5q-62 0 -99 34t-37 89q0 162 286 162zM130.5 145.5q-6.5 -13.5 -6.5 -35t18.5 -37t48.5 -15.5q63 0 131 56v100q-126 -2 -166 -38
q-19 -17 -25.5 -30.5z" />
    <glyph glyph-name="b" unicode="b" horiz-adv-x="526" 
d="M243 56q75 0 116 51t41 123t-36 115.5t-92.5 43.5t-120.5 -34v-281q47 -18 92 -18zM151 718v-299q76 43 153.5 43t129.5 -62.5t52 -163.5t-60.5 -174.5t-172.5 -73.5q-86 0 -184 44v686h82z" />
    <glyph glyph-name="c" unicode="c" horiz-adv-x="412" 
d="M251 468q67 0 136 -30l-25 -62q-51 22 -108.5 22t-91 -43t-33.5 -126t35 -127t92 -44t118 28l19 -66q-70 -32 -142 -32q-93 0 -151.5 67.5t-58.5 174t58.5 172.5t151.5 66z" />
    <glyph glyph-name="d" unicode="d" horiz-adv-x="529" 
d="M379 718h82v-718h-54l-25 60q-75 -72 -154.5 -72t-131.5 61.5t-52 166.5t62 175.5t160 70.5q53 0 113 -24v280zM287 394q-75 0 -116 -51t-41 -124t34 -117t88 -44q30 0 64.5 16.5t62.5 45.5v256q-47 18 -92 18z" />
    <glyph glyph-name="e" unicode="e" horiz-adv-x="473" 
d="M255 58q72 0 144 43l29 -60q-84 -53 -179.5 -53t-151.5 60.5t-56 174.5t58 179.5t154 65.5q87 0 137 -54q21 -22 35.5 -64t14.5 -99l-31 -35h-283q3 -158 129 -158zM327 369q-29 34 -76.5 34t-80.5 -33.5t-40 -90.5h226q0 56 -29 90z" />
    <glyph glyph-name="f" unicode="f" horiz-adv-x="310" 
d="M95 456v121q0 74 35 113.5t91.5 39.5t120.5 -30l-29 -60q-44 18 -76 18q-60 0 -60 -80v-122h124v-63h-124v-393h-82v393h-68v63h68z" />
    <glyph glyph-name="g" unicode="g" horiz-adv-x="469" 
d="M221 129q-23 0 -44 3q-25 -48 -25 -63q0 -7 18 -12l122 -27q85 -19 121 -44.5t36 -75.5t-35 -84q-68 -68 -200 -68q-81 0 -140 30t-59 86t80 129q-30 11 -30 33t59 109q-86 37 -86 155q0 66 46.5 115.5t136.5 49.5q52 0 91 -15l140 16v-67h-75q26 -42 26 -106.5t-46 -114
t-136 -49.5zM323 285q0 124 -101 124q-40 0 -65 -21q-39 -34 -39 -84.5t24 -84.5t77 -34t78.5 32.5t25.5 67.5zM95 -113q0 -32 35 -49t91 -17t104 22.5t48 61.5q0 20 -23 32.5t-80 24.5l-117 26q-58 -58 -58 -101z" />
    <glyph glyph-name="h" unicode="h" horiz-adv-x="528" 
d="M153 718v-309q75 59 161 59q67 0 106.5 -33.5t39.5 -87.5v-347h-85v341q0 26 -20.5 40t-54.5 14q-71 0 -147 -51v-344h-85v718h85z" />
    <glyph glyph-name="i" unicode="i" horiz-adv-x="245" 
d="M122 547q-23 0 -39 16.5t-16 39.5t16.5 39.5t38.5 16.5t38.5 -16.5t16.5 -39.5t-16 -39.5t-39 -16.5zM80 456h85v-456h-85v456z" />
    <glyph glyph-name="j" unicode="j" horiz-adv-x="242" 
d="M122 547q-23 0 -39 16.5t-16 39.5t16.5 39.5t38.5 16.5t38.5 -16.5t16.5 -39.5t-16 -39.5t-39 -16.5zM162 456v-545q0 -74 -35 -113.5t-91 -39.5t-121 30l29 60q44 -18 76 -18q60 0 60 80v546h82z" />
    <glyph glyph-name="k" unicode="k" horiz-adv-x="459" 
d="M150 0h-82v718h82v-424l178 162h113l-201 -173l222 -283h-108l-176 230l-28 -24v-206z" />
    <glyph glyph-name="l" unicode="l" horiz-adv-x="218" 
d="M68 718h82v-718h-82v718z" />
    <glyph glyph-name="m" unicode="m" horiz-adv-x="811" 
d="M151 404q74 64 164 64t123 -70q79 70 166 70q64 0 101.5 -34t37.5 -89v-345h-85v341q0 26 -19 40t-51 14q-65 0 -139 -53v-342h-85v341q0 26 -19 40t-51 14q-67 0 -137 -51v-344h-85v456h54z" />
    <glyph glyph-name="n" unicode="n" horiz-adv-x="532" 
d="M464 345v-345h-85v341q0 26 -20.5 40t-54.5 14q-71 0 -147 -51v-344h-85v456h54l25 -52q77 64 167 64q67 0 106.5 -34t39.5 -89z" />
    <glyph glyph-name="o" unicode="o" horiz-adv-x="513" 
d="M259 403q-38 0 -65.5 -17t-40.5 -44q-24 -51 -24 -109q0 -180 125 -180q38 0 65 17t41 44q24 50 24 109q0 180 -125 180zM259 468q111 0 162 -69t51 -180q0 -80 -42 -148q-23 -37 -69 -60t-110 -23q-110 0 -160 66t-50 177q0 65 20.5 110t43.5 69.5t63 41t91 16.5z" />
    <glyph glyph-name="p" unicode="p" horiz-adv-x="532" 
d="M247 56q75 0 116 51t41 124.5t-35.5 118.5t-97.5 45q-24 0 -57 -14t-59 -37v-270q47 -18 92 -18zM155 -230h-83v686h54l23 -52q73 64 155 64t134 -64t52 -166.5t-60.5 -176t-172.5 -73.5q-50 0 -102 14v-232z" />
    <glyph glyph-name="q" unicode="q" horiz-adv-x="526" 
d="M458 -230h-82v278q-62 -60 -147 -60t-136.5 59.5t-51.5 166t62 180.5t160 74q56 0 113 -30l82 30v-698zM284 400q-75 0 -116 -53.5t-41 -127t34 -118t92.5 -44.5t122.5 57v268q-47 18 -92 18z" />
    <glyph glyph-name="r" unicode="r" horiz-adv-x="315" 
d="M72 456h54l25 -80h4q55 71 151 86l9 -79q-47 -3 -91 -24t-67 -56v-303h-85v456z" />
    <glyph glyph-name="s" unicode="s" horiz-adv-x="384" 
d="M306 376q-51 22 -96 22q-87 0 -87 -53q0 -46 116 -89q43 -16 79.5 -50t36.5 -82q0 -69 -45 -102.5t-125 -33.5t-156 44l25 62q63 -36 143 -36q34 0 55 14.5t21 39.5t-24 43t-58 32t-68 30.5t-58 46.5t-24 71q0 64 43.5 98.5t110.5 34.5t136 -30z" />
    <glyph glyph-name="t" unicode="t" horiz-adv-x="339" 
d="M174 393v-274q0 -60 57 -60q33 0 79 19l11 -67q-49 -23 -103 -23t-90 32.5t-36 99.5v273h-63v63h63v90l62 57h20v-147h129v-63h-129z" />
    <glyph glyph-name="u" unicode="u" horiz-adv-x="530" 
d="M153 456v-339q0 -28 20.5 -43.5t53.5 -15.5q71 0 146 56v342h85v-456h-54l-25 60q-77 -72 -171 -72q-60 0 -100 32t-40 93v343h85z" />
    <glyph glyph-name="v" unicode="v" horiz-adv-x="422" 
d="M258 0h-94l-159 456h86l118 -365h4l118 365h86z" />
    <glyph glyph-name="w" unicode="w" horiz-adv-x="652" 
d="M223 0h-94l-124 456h86l83 -365h4l107 365h81l108 -365h4l83 365h86l-124 -456h-94l-102 325h-5z" />
    <glyph glyph-name="x" unicode="x" horiz-adv-x="445" 
d="M14 456h98l115 -158l111 158h96l-161 -222l172 -234h-98l-128 175l-123 -175h-96l173 238z" />
    <glyph glyph-name="y" unicode="y" horiz-adv-x="424" 
d="M171.5 -209.5q-27.5 -32.5 -81.5 -32.5t-119 30l31 65q43 -23 74 -23q27 0 36 9l13 13q13 13 23 45t16 49.5t9 27.5l-167 482h86l118 -365h4l118 365h86l-186 -537q-33 -96 -60.5 -128.5z" />
    <glyph glyph-name="z" unicode="z" horiz-adv-x="438" 
d="M397 68v-68h-351l-19 28l263 360h-223l-8 68h327l18 -32l-256 -356h249z" />
    <glyph glyph-name="braceleft" unicode="{" horiz-adv-x="350" 
d="M211 605v-175q0 -57 -11.5 -88.5t-47.5 -47.5q36 -16 47.5 -47.5t11.5 -88.5v-175q0 -32 21 -40t83 -8l10 -65q-157 0 -185 47q-13 23 -13 71v212q0 49 -39 62q-14 5 -23 5v54q40 0 55 34q7 14 7 33v212q0 48 13 71q28 47 185 47l-10 -65q-62 0 -83 -8t-21 -40z" />
    <glyph glyph-name="bar" unicode="|" horiz-adv-x="289" 
d="M112 -140v841h65v-841h-65z" />
    <glyph glyph-name="braceright" unicode="}" horiz-adv-x="350" 
d="M139 430v175q0 32 -21 40t-83 8l-10 65q157 0 185 -47q13 -23 13 -71v-212q0 -49 39 -62q14 -5 23 -5v-54q-40 0 -55 -34q-7 -14 -7 -33v-212q0 -48 -13 -71q-28 -47 -185 -47l10 65q62 0 83 8t21 40v175q0 57 11.5 88.5t47.5 47.5q-36 16 -47.5 47.5t-11.5 88.5z" />
    <glyph glyph-name="asciitilde" unicode="~" 
d="M381 241q-40 0 -119.5 32.5t-123.5 32.5t-82 -32l-31 31q54 62 118 62q40 0 119.5 -32.5t122.5 -32.5t83 32l31 -31q-54 -62 -118 -62z" />
    <glyph glyph-name="nbspace" unicode="&#xa0;" horiz-adv-x="270" 
 />
    <glyph glyph-name="exclamdown" unicode="&#xa1;" horiz-adv-x="236" 
d="M118 461q22 0 37.5 -15.5t15.5 -38.5t-15.5 -38.5t-37.5 -15.5t-37.5 15.5t-15.5 38.5t15.5 38.5t37.5 15.5zM65 -194l27 478l48 9l31 -487h-106z" />
    <glyph glyph-name="cent" unicode="&#xa2;" horiz-adv-x="412" 
d="M259 148q54 0 115 28l19 -66q-70 -32 -142 -32h-19l-11 -87h-45l12 96q-67 21 -107 83.5t-40 158.5t57.5 162t148.5 67l10 83h45l-11 -86q44 -5 96 -27l-25 -62q-41 16 -79 20l-42 -337q6 -1 18 -1zM129 321q0 -121 68 -158l41 324q-51 -6 -80 -48.5t-29 -117.5z" />
    <glyph glyph-name="sterling" unicode="&#xa3;" 
d="M194 500l12 -185h203v-50h-203q-3 -101 -53 -195l321 6l-10 -76h-418l-18 53q88 44 93 212h-97v50h96l-12 178q0 84 49.5 131.5t145.5 47.5q67 0 150 -27l-25 -66q-69 23 -124.5 23t-82.5 -28.5t-27 -73.5z" />
    <glyph glyph-name="currency" unicode="&#xa4;" 
d="M115 213q-36 49 -36 109t36 110l-80 63l51 56l66 -83q51 36 108.5 36t109.5 -36l64 81l55 -53l-82 -65q36 -53 36 -109t-36 -109l80 -62l-51 -56l-66 82q-50 -36 -110 -36t-109 36l-62 -80l-56 51zM179 404.5q-33 -33.5 -33 -82.5t33 -82t82 -33t82 33t33 82t-33 82.5
t-82 33.5t-82 -33.5z" />
    <glyph glyph-name="yen" unicode="&#xa5;" 
d="M55 336v50h91l-137 275h90l160 -334h4l160 334h90l-137 -275h93v-50h-118l-46 -92h164v-50h-168v-194h-80v194h-167v50h163l-46 92h-116z" />
    <glyph glyph-name="brokenbar" unicode="&#xa6;" horiz-adv-x="289" 
d="M112 -140v335h65v-335h-65zM112 366v335h65v-335h-65z" />
    <glyph glyph-name="section" unicode="&#xa7;" horiz-adv-x="500" 
d="M85 227q0 63 33 107q-33 41 -33 96q0 78 50.5 127t133.5 49q57 0 128 -29l-20 -69q-43 19 -91.5 19t-79.5 -21.5t-31 -71.5t53 -82l110 -67q93 -57 93 -147q0 -62 -33 -108q33 -43 33 -95q0 -79 -51.5 -128t-144.5 -49t-166 40l20 70q66 -36 129 -36t93.5 29t30.5 67
q0 54 -53 86l-111 67q-93 55 -93 146zM175 234q0 -53 53 -85l102 -63q12 21 12 45q0 54 -53 86l-104 62q-10 -17 -10 -45z" />
    <glyph glyph-name="dieresis" unicode="&#xa8;" horiz-adv-x="464" 
d="M140 547q-23 0 -39 16.5t-16 39.5t16.5 39.5t38.5 16.5t38.5 -16.5t16.5 -39.5t-16 -39.5t-39 -16.5zM320 547q-23 0 -39 16.5t-16 39.5t16.5 39.5t38.5 16.5t38.5 -16.5t16.5 -39.5t-16 -39.5t-39 -16.5z" />
    <glyph glyph-name="copyright" unicode="&#xa9;" horiz-adv-x="663" 
d="M87 479q0 -101 71.5 -172.5t172.5 -71.5t172.5 71.5t71.5 172.5t-71.5 172.5t-172.5 71.5t-172.5 -71.5t-71.5 -172.5zM132.5 279.5q-82.5 82.5 -82.5 199t82.5 199t199 82.5t199 -82.5t82.5 -199t-82.5 -199t-199 -82.5t-199 82.5zM267.5 578.5q-30.5 -36.5 -30.5 -94
t26 -89.5t74.5 -32t97.5 27l9 -49q-62 -27 -116 -27q-73 0 -112.5 48t-39.5 123t48.5 127t127.5 52q37 0 85 -15l-15 -46q-41 12 -70 12q-54 0 -84.5 -36.5z" />
    <glyph glyph-name="ordfeminine" unicode="&#xaa;" horiz-adv-x="315" 
d="M200 609q0 43 -44 43q-35 0 -84 -28l-20 45q53 34 104 34q104 0 104 -88v-197h-40l-12 31q-41 -38 -85.5 -38t-67 21t-22.5 56q0 99 167 100v21zM94 491q0 -29 34 -29t72 29v52q-106 -2 -106 -52zM38 330v40h222v-40h-222z" />
    <glyph glyph-name="guillemotleft" unicode="&#xab;" horiz-adv-x="450" 
d="M243 44h-76l-118 183l118 183h76l-112 -183zM400 44h-76l-118 183l118 183h76l-112 -183z" />
    <glyph glyph-name="logicalnot" unicode="&#xac;" 
d="M24 273v61h475v-268h-61v207h-414z" />
    <glyph glyph-name="registered" unicode="&#xae;" horiz-adv-x="663" 
d="M87 479q0 -101 71.5 -172.5t172.5 -71.5t172.5 71.5t71.5 172.5t-71.5 172.5t-172.5 71.5t-172.5 -71.5t-71.5 -172.5zM132.5 279.5q-82.5 82.5 -82.5 199t82.5 199t199 82.5t199 -82.5t82.5 -199t-82.5 -199t-199 -82.5t-199 82.5zM286 452v-132h-54v339h92
q52 0 85.5 -27.5t33.5 -76.5q0 -66 -61 -93l93 -142h-66l-81 132h-42zM286 500h38q61 0 61 54.5t-61 54.5h-38v-109z" />
    <glyph glyph-name="macron" unicode="&#xaf;" horiz-adv-x="360" 
d="M320 635v-67h-280v67h280z" />
    <glyph glyph-name="degree" unicode="&#xb0;" horiz-adv-x="281" 
d="M10 554q0 54 38 92.5t92 38.5t92.5 -38.5t38.5 -92.5t-38.5 -92t-92.5 -38t-92 38t-38 92zM52 554q0 -37 25.5 -62.5t62.5 -25.5t63.5 25.5t26.5 62.5t-26.5 63.5t-63.5 26.5t-62.5 -26.5t-25.5 -63.5z" />
    <glyph glyph-name="plusminus" unicode="&#xb1;" 
d="M231 541h61v-207h207v-61h-207v-207h-61v207h-207v61h207v207zM24 -60v61h475v-61h-475z" />
    <glyph glyph-name="twosuperior" unicode="&#xb2;" horiz-adv-x="371" 
d="M327 297h-269l-13 43l88 90q111 113 111 167q0 65 -62 65q-44 0 -104 -30l-28 54q64 39 129 39t103 -31.5t38 -88.5q0 -94 -146 -225l-24 -22l177 3v-64z" />
    <glyph glyph-name="threesuperior" unicode="&#xb3;" horiz-adv-x="350" 
d="M169 662q-38 0 -92 -30l-26 54q68 39 125.5 39t90 -32t32.5 -69q0 -79 -63 -107q71 -30 71 -103q0 -50 -38 -87.5t-102 -37.5t-127 30l24 53q47 -22 86 -22t60 20.5t21 48.5t-20 47.5t-59 19.5h-63v58h58q36 0 56 19t20 46q0 53 -54 53z" />
    <glyph glyph-name="acute" unicode="&#xb4;" horiz-adv-x="285" 
d="M136 513h-64l127 184l72 -54z" />
    <glyph glyph-name="mu" unicode="&#xb5;" horiz-adv-x="530" 
d="M68 456h85v-339q0 -28 20.5 -43.5t53.5 -15.5q71 0 146 56v342h85v-456h-54l-25 60q-77 -72 -171 -72q-28 0 -55 8v-226l-85 -10v696z" />
    <glyph glyph-name="paragraph" unicode="&#xb6;" horiz-adv-x="546" 
d="M241 -229v402q-87 0 -149 61.5t-62 148.5t62 149t149 62h230v-823h-68v760h-94v-760h-68z" />
    <glyph glyph-name="periodcentered" unicode="&#xb7;" horiz-adv-x="165" 
d="M82 209q-22 0 -37 15.5t-15 38.5t15 38t37 15t37.5 -15t15.5 -38t-15.5 -38.5t-37.5 -15.5z" />
    <glyph glyph-name="cedilla" unicode="&#xb8;" horiz-adv-x="443" 
d="M330 -143q0 -45 -32 -72t-78.5 -27t-90.5 27l16 40q30 -20 58.5 -20t46 16.5t17.5 38t-19 38t-55 19.5l-9 13l32 78h35l-11 -55q90 -30 90 -96z" />
    <glyph glyph-name="onesuperior" unicode="&#xb9;" horiz-adv-x="251" 
d="M198 720v-423h-70v345l-89 -43l-25 56l136 65h48z" />
    <glyph glyph-name="ordmasculine" unicode="&#xba;" horiz-adv-x="338" 
d="M168 655q-39 0 -55 -29.5t-16 -65.5q0 -101 68 -101q40 0 56 29.5t16 65.5q0 101 -69 101zM168 703q68 0 99 -42t31 -102.5t-30.5 -104t-103.5 -43.5q-128 0 -128 148q0 47 26 91q13 24 40.5 38.5t65.5 14.5zM41 330v40h252v-40h-252z" />
    <glyph glyph-name="guillemotright" unicode="&#xbb;" horiz-adv-x="450" 
d="M282 44h-76l112 183l-112 183h76l118 -183zM125 44h-76l112 183l-112 183h76l118 -183z" />
    <glyph glyph-name="onequarter" unicode="&#xbc;" horiz-adv-x="795" 
d="M210 -10l247 685h48l-247 -685h-48zM218 667v-423h-70v345l-89 -43l-25 56l136 65h48zM674 0h-71v90h-175l-12 42l203 291h55v-270h41v-63h-41v-90zM603 153v147l-101 -147h101z" />
    <glyph glyph-name="onehalf" unicode="&#xbd;" horiz-adv-x="795" 
d="M210 -10l247 685h48l-247 -685h-48zM218 667v-423h-70v345l-89 -43l-25 56l136 65h48zM746 0h-269l-13 43l88 90q111 113 111 167q0 65 -62 65q-44 0 -104 -30l-28 54q65 39 129.5 39t102.5 -31.5t38 -88.5q0 -94 -146 -225l-24 -22l177 3v-64z" />
    <glyph glyph-name="threequarters" unicode="&#xbe;" horiz-adv-x="795" 
d="M263 -10l247 685h48l-247 -685h-48zM189 609q-38 0 -92 -30l-26 54q68 39 125.5 39t90 -32t32.5 -70q0 -78 -63 -106q71 -30 71 -103q0 -50 -38 -87.5t-102 -37.5t-127 30l24 53q47 -22 86 -22t60 20.5t21 48.5t-20 47.5t-59 19.5h-63v58h58q36 0 56 19t20 46
q0 53 -54 53zM674 0h-71v90h-175l-12 42l203 291h55v-270h41v-63h-41v-90zM603 153v147l-101 -147h101z" />
    <glyph glyph-name="questiondown" unicode="&#xbf;" horiz-adv-x="335" 
d="M238 287q19 -67 19 -112t-26.5 -74.5t-58 -46.5t-58 -45t-26.5 -61.5t30 -57t102 -23.5q33 0 65 4l-8 -66q-31 -3 -76 -3t-90.5 13t-68.5 35q-42 42 -42 89.5t19.5 79t47.5 51t55 36.5q67 39 67 77t-17 99q64 5 66 5zM197 461q22 0 37.5 -15.5t15.5 -38.5t-15.5 -38.5
t-37.5 -15.5t-37.5 15.5t-15.5 38.5t15.5 38.5t37.5 15.5z" />
    <glyph glyph-name="Agrave" unicode="&#xc0;" horiz-adv-x="623" 
d="M518 0l-79 225h-261l-79 -225h-89l250 691h103l250 -691h-95zM414 298l-87 249l-16 56h-4l-16 -56l-87 -249h210zM378 742h-64l-135 130l72 54z" />
    <glyph glyph-name="Aacute" unicode="&#xc1;" horiz-adv-x="623" 
d="M518 0l-79 225h-261l-79 -225h-89l250 691h103l250 -691h-95zM414 298l-87 249l-16 56h-4l-16 -56l-87 -249h210zM276 742h-64l127 184l72 -54z" />
    <glyph glyph-name="Acircumflex" unicode="&#xc2;" horiz-adv-x="623" 
d="M518 0l-79 225h-261l-79 -225h-89l250 691h103l250 -691h-95zM414 298l-87 249l-16 56h-4l-16 -56l-87 -249h210zM430 742h-53l-64 84h-5l-63 -84h-53l97 182h44z" />
    <glyph glyph-name="Atilde" unicode="&#xc3;" horiz-adv-x="623" 
d="M518 0l-79 225h-261l-79 -225h-89l250 691h103l250 -691h-95zM414 298l-87 249l-16 56h-4l-16 -56l-87 -249h210zM377 780q-25 0 -73 16t-67 16q-34 0 -49 -37l-39 17q31 93 97 93q25 0 73 -16t67 -16q34 0 49 37l39 -17q-31 -93 -97 -93z" />
    <glyph glyph-name="Adieresis" unicode="&#xc4;" horiz-adv-x="623" 
d="M518 0l-79 225h-261l-79 -225h-89l250 691h103l250 -691h-95zM414 298l-87 249l-16 56h-4l-16 -56l-87 -249h210zM221 776q-23 0 -39 16.5t-16 40t16 39.5t39 16t39 -16t16 -39.5t-16 -40t-39 -16.5zM401 776q-23 0 -39 16.5t-16 40t16 39.5t39 16t39 -16t16 -39.5
t-16 -40t-39 -16.5z" />
    <glyph glyph-name="Aring" unicode="&#xc5;" horiz-adv-x="623" 
d="M518 0l-79 225h-261l-79 -225h-89l250 691h103l250 -691h-95zM414 298l-87 249l-16 56h-4l-16 -56l-87 -249h210zM311 781q44 0 44 54.5t-45.5 54.5t-45.5 -50q0 -25 12 -42t35 -17zM207 835q0 43 30.5 74t74 31t74 -30.5t30.5 -74t-30 -74t-74 -30.5t-74.5 30.5
t-30.5 73.5z" />
    <glyph glyph-name="AE" unicode="&#xc6;" horiz-adv-x="886" 
d="M426 0v231h-208l-129 -231h-89l379 691h453l-19 -76h-301v-228h284v-73h-284v-238h339v-76h-425zM426 304v319l-168 -319h168z" />
    <glyph glyph-name="Ccedilla" unicode="&#xc7;" horiz-adv-x="612" 
d="M149 321q0 142 69 224t191 82q69 0 138 -21l24 70q-87 27 -162 27q-163 0 -261 -107t-98 -275q0 -88 33 -162t104.5 -122.5t179.5 -48.5t220 49l-11 76q-99 -51 -202.5 -51t-164 72t-60.5 187zM455 -143q0 -45 -32 -72t-78.5 -27t-90.5 27l16 40q30 -20 58.5 -20t46 16.5
t17.5 38t-19 38t-55 19.5l-9 13l32 78h35l-11 -55q90 -30 90 -96z" />
    <glyph glyph-name="Egrave" unicode="&#xc8;" horiz-adv-x="535" 
d="M75 0v691h406l-19 -76h-301v-228h284v-73h-284v-238h339v-76h-425zM367 742h-64l-135 130l72 54z" />
    <glyph glyph-name="Eacute" unicode="&#xc9;" horiz-adv-x="535" 
d="M75 0v691h406l-19 -76h-301v-228h284v-73h-284v-238h339v-76h-425zM262 742h-64l127 184l72 -54z" />
    <glyph glyph-name="Ecircumflex" unicode="&#xca;" horiz-adv-x="535" 
d="M75 0v691h406l-19 -76h-301v-228h284v-73h-284v-238h339v-76h-425zM406 742h-53l-64 84h-5l-63 -84h-53l97 182h44z" />
    <glyph glyph-name="Edieresis" unicode="&#xcb;" horiz-adv-x="535" 
d="M75 0v691h406l-19 -76h-301v-228h284v-73h-284v-238h339v-76h-425zM197 776q-23 0 -39 16.5t-16 40t16 39.5t39 16t39 -16t16 -39.5t-16 -40t-39 -16.5zM377 776q-23 0 -39 16.5t-16 40t16 39.5t39 16t39 -16t16 -39.5t-16 -40t-39 -16.5z" />
    <glyph glyph-name="Igrave" unicode="&#xcc;" horiz-adv-x="256" 
d="M85 0v691h86v-691h-86zM227 742h-64l-135 130l72 54z" />
    <glyph glyph-name="Iacute" unicode="&#xcd;" horiz-adv-x="256" 
d="M85 0v691h86v-691h-86zM93 742h-64l127 184l72 -54z" />
    <glyph glyph-name="Icircumflex" unicode="&#xce;" horiz-adv-x="256" 
d="M85 0v691h86v-691h-86zM247 742h-53l-64 84h-5l-63 -84h-53l97 182h44z" />
    <glyph glyph-name="Idieresis" unicode="&#xcf;" horiz-adv-x="256" 
d="M85 0v691h86v-691h-86zM38 776q-23 0 -39 16.5t-16 40t16.5 39.5t38.5 16t38.5 -16t16.5 -39.5t-16 -40t-39 -16.5zM218 776q-23 0 -39 16.5t-16 40t16.5 39.5t38.5 16t38.5 -16t16.5 -39.5t-16 -40t-39 -16.5z" />
    <glyph glyph-name="Eth" unicode="&#xd0;" horiz-adv-x="693" 
d="M75 0v691h260q75 0 135 -27t97 -72q76 -94 76 -222q0 -162 -98 -266t-261 -104h-209zM324 615h-163v-539h123q124 0 192 78t68 216q0 103 -57.5 174t-162.5 71zM382 315h-382v54h382v-54z" />
    <glyph glyph-name="Ntilde" unicode="&#xd1;" horiz-adv-x="731" 
d="M570 155v536h86v-691h-83l-407 537h-5v-537h-86v691h83l407 -536h5zM431 780q-25 0 -73 16t-67 16q-34 0 -49 -37l-39 17q31 93 97 93q25 0 73 -16t67 -16q34 0 49 37l39 -17q-31 -93 -97 -93z" />
    <glyph glyph-name="Ograve" unicode="&#xd2;" horiz-adv-x="759" 
d="M355 -12q-75 0 -134.5 28t-96.5 75q-74 96 -74 230q0 168 97 275t257 107q75 0 134.5 -28t95.5 -75q75 -96 75 -230q0 -168 -97 -275t-257 -107zM400 628q-124 0 -191 -81t-67 -227q0 -107 57.5 -183t160.5 -76q124 0 190.5 81t66.5 227q0 107 -57 183t-160 76zM479 742
h-64l-135 130l72 54z" />
    <glyph glyph-name="Oacute" unicode="&#xd3;" horiz-adv-x="759" 
d="M355 -12q-75 0 -134.5 28t-96.5 75q-74 96 -74 230q0 168 97 275t257 107q75 0 134.5 -28t95.5 -75q75 -96 75 -230q0 -168 -97 -275t-257 -107zM400 628q-124 0 -191 -81t-67 -227q0 -107 57.5 -183t160.5 -76q124 0 190.5 81t66.5 227q0 107 -57 183t-160 76zM374 742
h-64l127 184l72 -54z" />
    <glyph glyph-name="Ocircumflex" unicode="&#xd4;" horiz-adv-x="759" 
d="M355 -12q-75 0 -134.5 28t-96.5 75q-74 96 -74 230q0 168 97 275t257 107q75 0 134.5 -28t95.5 -75q75 -96 75 -230q0 -168 -97 -275t-257 -107zM400 628q-124 0 -191 -81t-67 -227q0 -107 57.5 -183t160.5 -76q124 0 190.5 81t66.5 227q0 107 -57 183t-160 76zM498 742
h-53l-64 84h-5l-63 -84h-53l97 182h44z" />
    <glyph glyph-name="Otilde" unicode="&#xd5;" horiz-adv-x="759" 
d="M355 -12q-75 0 -134.5 28t-96.5 75q-74 96 -74 230q0 168 97 275t257 107q75 0 134.5 -28t95.5 -75q75 -96 75 -230q0 -168 -97 -275t-257 -107zM400 628q-124 0 -191 -81t-67 -227q0 -107 57.5 -183t160.5 -76q124 0 190.5 81t66.5 227q0 107 -57 183t-160 76zM445 780
q-25 0 -73 16t-67 16q-34 0 -49 -37l-39 17q31 93 97 93q25 0 73 -16t67 -16q34 0 49 37l39 -17q-31 -93 -97 -93z" />
    <glyph glyph-name="Odieresis" unicode="&#xd6;" horiz-adv-x="759" 
d="M355 -12q-75 0 -134.5 28t-96.5 75q-74 96 -74 230q0 168 97 275t257 107q75 0 134.5 -28t95.5 -75q75 -96 75 -230q0 -168 -97 -275t-257 -107zM400 628q-124 0 -191 -81t-67 -227q0 -107 57.5 -183t160.5 -76q124 0 190.5 81t66.5 227q0 107 -57 183t-160 76zM289 776
q-23 0 -39 16.5t-16 40t16 39.5t39 16t39 -16t16 -39.5t-16 -40t-39 -16.5zM469 776q-23 0 -39 16.5t-16 40t16 39.5t39 16t39 -16t16 -39.5t-16 -40t-39 -16.5z" />
    <glyph glyph-name="multiply" unicode="&#xd7;" 
d="M443 529l44 -43l-182 -182l181 -181l-43 -44l-182 181l-180 -180l-44 43l181 181l-181 181l43 44l181 -182z" />
    <glyph glyph-name="Oslash" unicode="&#xd8;" horiz-adv-x="759" 
d="M48 -81l596 841h65l-596 -841h-65zM355 -12q-75 0 -134.5 28t-96.5 75q-74 96 -74 230q0 168 97 275t257 107q75 0 134.5 -28t95.5 -75q75 -96 75 -230q0 -168 -97 -275t-257 -107zM400 628q-124 0 -191 -81t-67 -227q0 -107 57.5 -183t160.5 -76q124 0 190.5 81
t66.5 227q0 107 -57 183t-160 76z" />
    <glyph glyph-name="Ugrave" unicode="&#xd9;" horiz-adv-x="660" 
d="M156 691v-469q0 -76 53 -123q42 -38 121 -38q109 0 152 77q22 38 22 84v469h86v-469q0 -103 -67.5 -168.5t-192.5 -65.5t-192.5 65.5t-67.5 168.5v469h86zM409 742h-64l-135 130l72 54z" />
    <glyph glyph-name="Uacute" unicode="&#xda;" horiz-adv-x="660" 
d="M156 691v-469q0 -76 53 -123q42 -38 121 -38q109 0 152 77q22 38 22 84v469h86v-469q0 -103 -67.5 -168.5t-192.5 -65.5t-192.5 65.5t-67.5 168.5v469h86zM334 742h-64l127 184l72 -54z" />
    <glyph glyph-name="Ucircumflex" unicode="&#xdb;" horiz-adv-x="660" 
d="M156 691v-469q0 -76 53 -123q42 -38 121 -38q109 0 152 77q22 38 22 84v469h86v-469q0 -103 -67.5 -168.5t-192.5 -65.5t-192.5 65.5t-67.5 168.5v469h86zM449 742h-53l-64 84h-5l-63 -84h-53l97 182h44z" />
    <glyph glyph-name="Udieresis" unicode="&#xdc;" horiz-adv-x="660" 
d="M156 691v-469q0 -76 53 -123q42 -38 121 -38q109 0 152 77q22 38 22 84v469h86v-469q0 -103 -67.5 -168.5t-192.5 -65.5t-192.5 65.5t-67.5 168.5v469h86zM240 776q-23 0 -39 16.5t-16 40t16.5 39.5t38.5 16t38.5 -16t16.5 -39.5t-16 -40t-39 -16.5zM420 776
q-23 0 -39 16.5t-16 40t16.5 39.5t38.5 16t38.5 -16t16.5 -39.5t-16 -40t-39 -16.5z" />
    <glyph glyph-name="Yacute" unicode="&#xdd;" horiz-adv-x="558" 
d="M318 0h-86v247l-227 444h95l176 -349h5l178 349h94l-235 -444v-247zM284 742h-64l127 184l72 -54z" />
    <glyph glyph-name="Thorn" unicode="&#xde;" 
d="M75 0v691h86v-134h96q106 0 171 -56t65 -156t-65 -156t-171 -56h-96v-133h-86zM161 209h96q144 0 144 136t-144 136h-96v-272z" />
    <glyph glyph-name="germandbls" unicode="&#xdf;" horiz-adv-x="552" 
d="M455 580q0 -42 -20.5 -79t-40.5 -66.5t-20 -52t17 -45.5t41 -44.5t48 -44.5q57 -56 57 -120q0 -41 -18 -70.5t-47 -43.5q-117 -56 -261 8l26 64q62 -30 119 -30q100 0 100 71q0 35 -58 88q-24 22 -48 46q-57 59 -57 122q0 37 20.5 71.5t40.5 64t20 51.5q0 39 -30.5 63.5
t-70 24.5t-68 -26.5t-28.5 -77.5v-554h-82v393h-68v63h68v98q0 83 54 129.5t127 46.5t126 -38.5t53 -111.5z" />
    <glyph glyph-name="agrave" unicode="&#xe0;" horiz-adv-x="475" 
d="M322 273v44q0 81 -84 81q-66 0 -138 -43l-29 60q84 53 181 53q68 0 111.5 -34.5t43.5 -106.5v-327h-54l-25 60q-32 -33 -76 -52.5t-80 -19.5q-62 0 -99 34t-37 89q0 162 286 162zM130.5 145.5q-6.5 -13.5 -6.5 -35t18.5 -37t48.5 -15.5q63 0 131 56v100q-126 -2 -166 -38
q-19 -17 -25.5 -30.5zM322 513h-64l-135 130l72 54z" />
    <glyph glyph-name="aacute" unicode="&#xe1;" horiz-adv-x="475" 
d="M322 273v44q0 81 -84 81q-66 0 -138 -43l-29 60q84 53 181 53q68 0 111.5 -34.5t43.5 -106.5v-327h-54l-25 60q-32 -33 -76 -52.5t-80 -19.5q-62 0 -99 34t-37 89q0 162 286 162zM130.5 145.5q-6.5 -13.5 -6.5 -35t18.5 -37t48.5 -15.5q63 0 131 56v100q-126 -2 -166 -38
q-19 -17 -25.5 -30.5zM259 513h-64l127 184l72 -54z" />
    <glyph glyph-name="acircumflex" unicode="&#xe2;" horiz-adv-x="475" 
d="M322 273v44q0 81 -84 81q-66 0 -138 -43l-29 60q84 53 181 53q68 0 111.5 -34.5t43.5 -106.5v-327h-54l-25 60q-32 -33 -76 -52.5t-80 -19.5q-62 0 -99 34t-37 89q0 162 286 162zM130.5 145.5q-6.5 -13.5 -6.5 -35t18.5 -37t48.5 -15.5q63 0 131 56v100q-126 -2 -166 -38
q-19 -17 -25.5 -30.5zM366 513h-53l-64 84h-5l-63 -84h-53l97 182h44z" />
    <glyph glyph-name="atilde" unicode="&#xe3;" horiz-adv-x="475" 
d="M322 273v44q0 81 -84 81q-66 0 -138 -43l-29 60q84 53 181 53q68 0 111.5 -34.5t43.5 -106.5v-327h-54l-25 60q-32 -33 -76 -52.5t-80 -19.5q-62 0 -99 34t-37 89q0 162 286 162zM130.5 145.5q-6.5 -13.5 -6.5 -35t18.5 -37t48.5 -15.5q63 0 131 56v100q-126 -2 -166 -38
q-19 -17 -25.5 -30.5zM312 551q-25 0 -73 16t-67 16q-34 0 -49 -37l-39 17q31 93 97 93q25 0 73 -16t67 -16q34 0 49 37l39 -17q-31 -93 -97 -93z" />
    <glyph glyph-name="adieresis" unicode="&#xe4;" horiz-adv-x="475" 
d="M322 273v44q0 81 -84 81q-66 0 -138 -43l-29 60q84 53 181 53q68 0 111.5 -34.5t43.5 -106.5v-327h-54l-25 60q-32 -33 -76 -52.5t-80 -19.5q-62 0 -99 34t-37 89q0 162 286 162zM130.5 145.5q-6.5 -13.5 -6.5 -35t18.5 -37t48.5 -15.5q63 0 131 56v100q-126 -2 -166 -38
q-19 -17 -25.5 -30.5zM158 547q-23 0 -39 16.5t-16 39.5t16.5 39.5t38.5 16.5t38.5 -16.5t16.5 -39.5t-16 -39.5t-39 -16.5zM338 547q-23 0 -39 16.5t-16 39.5t16.5 39.5t38.5 16.5t38.5 -16.5t16.5 -39.5t-16 -39.5t-39 -16.5z" />
    <glyph glyph-name="aring" unicode="&#xe5;" horiz-adv-x="475" 
d="M322 273v44q0 81 -84 81q-66 0 -138 -43l-29 60q84 53 181 53q68 0 111.5 -34.5t43.5 -106.5v-327h-54l-25 60q-32 -33 -76 -52.5t-80 -19.5q-62 0 -99 34t-37 89q0 162 286 162zM130.5 145.5q-6.5 -13.5 -6.5 -35t18.5 -37t48.5 -15.5q63 0 131 56v100q-126 -2 -166 -38
q-19 -17 -25.5 -30.5zM248 552q44 0 44 54.5t-45.5 54.5t-45.5 -50q0 -25 12 -42t35 -17zM174.5 532.5q-30.5 30.5 -30.5 74t31 74t74 30.5t73.5 -30.5t30.5 -74.5t-30.5 -74t-74 -30t-74 30.5z" />
    <glyph glyph-name="ae" unicode="&#xe6;" horiz-adv-x="754" 
d="M536 58q72 0 144 43l29 -60q-84 -53 -181 -53q-115 0 -167 83q-45 -45 -97 -64t-92 -19q-62 0 -99 34t-37 89q0 162 286 162v44q0 81 -84 81q-66 0 -138 -43l-29 60q84 53 179.5 53t135.5 -60q57 60 148 60q87 0 138 -54q20 -22 34.5 -64t14.5 -99l-31 -35h-283
q3 -158 129 -158zM130.5 145.5q-6.5 -13.5 -6.5 -35t18.5 -37t48.5 -15.5q63 0 131 56v100q-126 -2 -166 -38q-19 -17 -25.5 -30.5zM608 369q-29 34 -76.5 34t-80.5 -33.5t-40 -90.5h226q0 56 -29 90z" />
    <glyph glyph-name="ccedilla" unicode="&#xe7;" horiz-adv-x="412" 
d="M251 468q67 0 136 -30l-25 -62q-51 22 -108.5 22t-91 -43t-33.5 -126t35 -127t92 -44t118 28l19 -66q-70 -32 -142 -32q-93 0 -151.5 67.5t-58.5 174t58.5 172.5t151.5 66zM309 -143q0 -45 -32 -72t-78.5 -27t-90.5 27l16 40q30 -20 58.5 -20t46 16.5t17.5 38t-19 38
t-55 19.5l-9 13l32 78h35l-11 -55q90 -30 90 -96z" />
    <glyph glyph-name="egrave" unicode="&#xe8;" horiz-adv-x="473" 
d="M255 58q72 0 144 43l29 -60q-84 -53 -179.5 -53t-151.5 60.5t-56 174.5t58 179.5t154 65.5q87 0 137 -54q21 -22 35.5 -64t14.5 -99l-31 -35h-283q3 -158 129 -158zM327 369q-29 34 -76.5 34t-80.5 -33.5t-40 -90.5h226q0 56 -29 90zM324 513h-64l-135 130l72 54z" />
    <glyph glyph-name="eacute" unicode="&#xe9;" horiz-adv-x="473" 
d="M255 58q72 0 144 43l29 -60q-84 -53 -179.5 -53t-151.5 60.5t-56 174.5t58 179.5t154 65.5q87 0 137 -54q21 -22 35.5 -64t14.5 -99l-31 -35h-283q3 -158 129 -158zM327 369q-29 34 -76.5 34t-80.5 -33.5t-40 -90.5h226q0 56 -29 90zM256 513h-64l127 184l72 -54z" />
    <glyph glyph-name="ecircumflex" unicode="&#xea;" horiz-adv-x="473" 
d="M255 58q72 0 144 43l29 -60q-84 -53 -179.5 -53t-151.5 60.5t-56 174.5t58 179.5t154 65.5q87 0 137 -54q21 -22 35.5 -64t14.5 -99l-31 -35h-283q3 -158 129 -158zM327 369q-29 34 -76.5 34t-80.5 -33.5t-40 -90.5h226q0 56 -29 90zM361 513h-53l-64 84h-5l-63 -84h-53
l97 182h44z" />
    <glyph glyph-name="edieresis" unicode="&#xeb;" horiz-adv-x="473" 
d="M255 58q72 0 144 43l29 -60q-84 -53 -179.5 -53t-151.5 60.5t-56 174.5t58 179.5t154 65.5q87 0 137 -54q21 -22 35.5 -64t14.5 -99l-31 -35h-283q3 -158 129 -158zM327 369q-29 34 -76.5 34t-80.5 -33.5t-40 -90.5h226q0 56 -29 90zM152 547q-23 0 -39 16.5t-16 39.5
t16.5 39.5t38.5 16.5t38.5 -16.5t16.5 -39.5t-16 -39.5t-39 -16.5zM332 547q-23 0 -39 16.5t-16 39.5t16.5 39.5t38.5 16.5t38.5 -16.5t16.5 -39.5t-16 -39.5t-39 -16.5z" />
    <glyph glyph-name="igrave" unicode="&#xec;" horiz-adv-x="245" 
d="M80 456h85v-456h-85v456zM182 513h-64l-135 130l72 54z" />
    <glyph glyph-name="iacute" unicode="&#xed;" horiz-adv-x="245" 
d="M139 513h-64l127 184l72 -54zM80 456h85v-456h-85v456z" />
    <glyph glyph-name="icircumflex" unicode="&#xee;" horiz-adv-x="245" 
d="M80 456h85v-456h-85v456zM241 513h-53l-64 84h-5l-63 -84h-53l97 182h44z" />
    <glyph glyph-name="idieresis" unicode="&#xef;" horiz-adv-x="245" 
d="M80 456h85v-456h-85v456zM32 547q-23 0 -39 16.5t-16 39.5t16.5 39.5t38.5 16.5t38.5 -16.5t16.5 -39.5t-16 -39.5t-39 -16.5zM212 547q-23 0 -39 16.5t-16 39.5t16.5 39.5t38.5 16.5t38.5 -16.5t16.5 -39.5t-16 -39.5t-39 -16.5z" />
    <glyph glyph-name="eth" unicode="&#xf0;" horiz-adv-x="513" 
d="M259 403q-38 0 -65.5 -17t-40.5 -44q-24 -51 -24 -109q0 -180 125 -180q38 0 65 17t41 44q24 50 24 109q0 180 -125 180zM472 219q0 -80 -42 -148q-23 -37 -69 -60t-110 -23q-110 0 -160 66t-50 177q0 65 20.5 110t43.5 69.5t63 41t84.5 16.5t71.5 -12l5 4
q-45 68 -115.5 128t-147.5 99l26 43q169 -87 274.5 -220t105.5 -291zM323 673l-218 -164v57l218 164v-57z" />
    <glyph glyph-name="ntilde" unicode="&#xf1;" horiz-adv-x="532" 
d="M464 345v-345h-85v341q0 26 -20.5 40t-54.5 14q-71 0 -147 -51v-344h-85v456h54l25 -52q77 64 167 64q67 0 106.5 -34t39.5 -89zM341 551q-25 0 -73 16t-67 16q-34 0 -49 -37l-39 17q31 93 97 93q25 0 73 -16t67 -16q34 0 49 37l39 -17q-31 -93 -97 -93z" />
    <glyph glyph-name="ograve" unicode="&#xf2;" horiz-adv-x="513" 
d="M259 403q-38 0 -65.5 -17t-40.5 -44q-24 -51 -24 -109q0 -180 125 -180q38 0 65 17t41 44q24 50 24 109q0 180 -125 180zM259 468q111 0 162 -69t51 -180q0 -80 -42 -148q-23 -37 -69 -60t-110 -23q-110 0 -160 66t-50 177q0 65 20.5 110t43.5 69.5t63 41t91 16.5z
M314 513h-64l-135 130l72 54z" />
    <glyph glyph-name="oacute" unicode="&#xf3;" horiz-adv-x="513" 
d="M259 403q-38 0 -65.5 -17t-40.5 -44q-24 -51 -24 -109q0 -180 125 -180q38 0 65 17t41 44q24 50 24 109q0 180 -125 180zM259 468q111 0 162 -69t51 -180q0 -80 -42 -148q-23 -37 -69 -60t-110 -23q-110 0 -160 66t-50 177q0 65 20.5 110t43.5 69.5t63 41t91 16.5z
M251 513h-64l127 184l72 -54z" />
    <glyph glyph-name="ocircumflex" unicode="&#xf4;" horiz-adv-x="513" 
d="M259 403q-38 0 -65.5 -17t-40.5 -44q-24 -51 -24 -109q0 -180 125 -180q38 0 65 17t41 44q24 50 24 109q0 180 -125 180zM259 468q111 0 162 -69t51 -180q0 -80 -42 -148q-23 -37 -69 -60t-110 -23q-110 0 -160 66t-50 177q0 65 20.5 110t43.5 69.5t63 41t91 16.5z
M375 513h-53l-64 84h-5l-63 -84h-53l97 182h44z" />
    <glyph glyph-name="otilde" unicode="&#xf5;" horiz-adv-x="513" 
d="M259 403q-38 0 -65.5 -17t-40.5 -44q-24 -51 -24 -109q0 -180 125 -180q38 0 65 17t41 44q24 50 24 109q0 180 -125 180zM259 468q111 0 162 -69t51 -180q0 -80 -42 -148q-23 -37 -69 -60t-110 -23q-110 0 -160 66t-50 177q0 65 20.5 110t43.5 69.5t63 41t91 16.5z
M322 551q-25 0 -73 16t-67 16q-34 0 -49 -37l-39 17q31 93 97 93q25 0 73 -16t67 -16q34 0 49 37l39 -17q-31 -93 -97 -93z" />
    <glyph glyph-name="odieresis" unicode="&#xf6;" horiz-adv-x="513" 
d="M259 403q-38 0 -65.5 -17t-40.5 -44q-24 -51 -24 -109q0 -180 125 -180q38 0 65 17t41 44q24 50 24 109q0 180 -125 180zM259 468q111 0 162 -69t51 -180q0 -80 -42 -148q-23 -37 -69 -60t-110 -23q-110 0 -160 66t-50 177q0 65 20.5 110t43.5 69.5t63 41t91 16.5z
M166 547q-23 0 -39 16.5t-16 39.5t16.5 39.5t38.5 16.5t38.5 -16.5t16.5 -39.5t-16 -39.5t-39 -16.5zM346 547q-23 0 -39 16.5t-16 39.5t16.5 39.5t38.5 16.5t38.5 -16.5t16.5 -39.5t-16 -39.5t-39 -16.5z" />
    <glyph glyph-name="divide" unicode="&#xf7;" 
d="M24 273v61h475v-61h-475zM261 398q-22 0 -37 15.5t-15 38.5t15 38t37 15t37.5 -15t15.5 -38t-15.5 -38.5t-37.5 -15.5zM261 101q-22 0 -37 15.5t-15 38.5t15 38t37 15t37.5 -15t15.5 -38t-15.5 -38.5t-37.5 -15.5z" />
    <glyph glyph-name="oslash" unicode="&#xf8;" horiz-adv-x="513" 
d="M39 -69l386 589h65l-386 -589h-65zM259 403q-38 0 -65.5 -17t-40.5 -44q-24 -51 -24 -109q0 -180 125 -180q38 0 65 17t41 44q24 50 24 109q0 180 -125 180zM259 468q111 0 162 -69t51 -180q0 -80 -42 -148q-23 -37 -69 -60t-110 -23q-110 0 -160 66t-50 177
q0 65 20.5 110t43.5 69.5t63 41t91 16.5z" />
    <glyph glyph-name="ugrave" unicode="&#xf9;" horiz-adv-x="530" 
d="M153 456v-339q0 -28 20.5 -43.5t53.5 -15.5q71 0 146 56v342h85v-456h-54l-25 60q-77 -72 -171 -72q-60 0 -100 32t-40 93v343h85zM318 513h-64l-135 130l72 54z" />
    <glyph glyph-name="uacute" unicode="&#xfa;" horiz-adv-x="530" 
d="M153 456v-339q0 -28 20.5 -43.5t53.5 -15.5q71 0 146 56v342h85v-456h-54l-25 60q-77 -72 -171 -72q-60 0 -100 32t-40 93v343h85zM274 513h-64l127 184l72 -54z" />
    <glyph glyph-name="ucircumflex" unicode="&#xfb;" horiz-adv-x="530" 
d="M153 456v-339q0 -28 20.5 -43.5t53.5 -15.5q71 0 146 56v342h85v-456h-54l-25 60q-77 -72 -171 -72q-60 0 -100 32t-40 93v343h85zM384 513h-53l-64 84h-5l-63 -84h-53l97 182h44z" />
    <glyph glyph-name="udieresis" unicode="&#xfc;" horiz-adv-x="530" 
d="M153 456v-339q0 -28 20.5 -43.5t53.5 -15.5q71 0 146 56v342h85v-456h-54l-25 60q-77 -72 -171 -72q-60 0 -100 32t-40 93v343h85zM175 547q-23 0 -39 16.5t-16 39.5t16 39.5t39 16.5t39 -16.5t16 -39.5t-16 -39.5t-39 -16.5zM355 547q-23 0 -39 16.5t-16 39.5t16 39.5
t39 16.5t39 -16.5t16 -39.5t-16 -39.5t-39 -16.5z" />
    <glyph glyph-name="yacute" unicode="&#xfd;" horiz-adv-x="424" 
d="M171.5 -209.5q-27.5 -32.5 -81.5 -32.5t-119 30l31 65q43 -23 74 -23q27 0 36 9l13 13q13 13 23 45t16 49.5t9 27.5l-167 482h86l118 -365h4l118 365h86l-186 -537q-33 -96 -60.5 -128.5zM237 513h-64l127 184l72 -54z" />
    <glyph glyph-name="thorn" unicode="&#xfe;" horiz-adv-x="532" 
d="M72 718h83v-309q70 59 150.5 59t132.5 -64t52 -166.5t-60.5 -176t-172.5 -73.5q-50 0 -102 14v-232h-83v948zM247 56q75 0 116 51t41 124.5t-35.5 118.5t-97.5 45q-24 0 -57 -14t-59 -37v-270q47 -18 92 -18z" />
    <glyph glyph-name="ydieresis" unicode="&#xff;" horiz-adv-x="424" 
d="M171.5 -209.5q-27.5 -32.5 -81.5 -32.5t-119 30l31 65q43 -23 74 -23q27 0 36 9l13 13q13 13 23 45t16 49.5t9 27.5l-167 482h86l118 -365h4l118 365h86l-186 -537q-33 -96 -60.5 -128.5zM122 547q-23 0 -39 16.5t-16 39.5t16.5 39.5t38.5 16.5t38.5 -16.5t16.5 -39.5
t-16 -39.5t-39 -16.5zM302 547q-23 0 -39 16.5t-16 39.5t16.5 39.5t38.5 16.5t38.5 -16.5t16.5 -39.5t-16 -39.5t-39 -16.5z" />
    <glyph glyph-name="Amacron" unicode="&#x100;" horiz-adv-x="623" 
d="M518 0l-79 225h-261l-79 -225h-89l250 691h103l250 -691h-95zM414 298l-87 249l-16 56h-4l-16 -56l-87 -249h210zM451 864v-67h-280v67h280z" />
    <glyph glyph-name="amacron" unicode="&#x101;" horiz-adv-x="475" 
d="M322 273v44q0 81 -84 81q-66 0 -138 -43l-29 60q84 53 181 53q68 0 111.5 -34.5t43.5 -106.5v-327h-54l-25 60q-32 -33 -76 -52.5t-80 -19.5q-62 0 -99 34t-37 89q0 162 286 162zM130.5 145.5q-6.5 -13.5 -6.5 -35t18.5 -37t48.5 -15.5q63 0 131 56v100q-126 -2 -166 -38
q-19 -17 -25.5 -30.5zM377 635v-67h-280v67h280z" />
    <glyph glyph-name="Abreve" unicode="&#x102;" horiz-adv-x="623" 
d="M518 0l-79 225h-261l-79 -225h-89l250 691h103l250 -691h-95zM414 298l-87 249l-16 56h-4l-16 -56l-87 -249h210zM405.5 796.5q-38.5 -37.5 -93 -37.5t-93.5 37.5t-43 89.5h71q10 -61 65 -61t65 61h70q-3 -52 -41.5 -89.5z" />
    <glyph glyph-name="abreve" unicode="&#x103;" horiz-adv-x="475" 
d="M322 273v44q0 81 -84 81q-66 0 -138 -43l-29 60q84 53 181 53q68 0 111.5 -34.5t43.5 -106.5v-327h-54l-25 60q-32 -33 -76 -52.5t-80 -19.5q-62 0 -99 34t-37 89q0 162 286 162zM130.5 145.5q-6.5 -13.5 -6.5 -35t18.5 -37t48.5 -15.5q63 0 131 56v100q-126 -2 -166 -38
q-19 -17 -25.5 -30.5zM331.5 567.5q-38.5 -37.5 -93 -37.5t-93.5 37.5t-43 89.5h71q10 -61 65 -61t65 61h70q-3 -52 -41.5 -89.5z" />
    <glyph glyph-name="Aogonek" unicode="&#x104;" horiz-adv-x="623" 
d="M518 0l-79 225h-261l-79 -225h-89l250 691h103l250 -691h-95zM414 298l-87 249l-16 56h-4l-16 -56l-87 -249h210zM496 -109q0 -28 15.5 -42t45.5 -14t60 22l26 -44q-62 -43 -109 -43t-72.5 27.5t-25.5 69.5q0 74 82 133h54q-76 -53 -76 -109z" />
    <glyph glyph-name="aogonek" unicode="&#x105;" horiz-adv-x="475" 
d="M322 273v44q0 81 -84 81q-66 0 -138 -43l-29 60q84 53 181 53q68 0 111.5 -34.5t43.5 -106.5v-327h-54l-25 60q-32 -33 -76 -52.5t-80 -19.5q-62 0 -99 34t-37 89q0 162 286 162zM130.5 145.5q-6.5 -13.5 -6.5 -35t18.5 -37t48.5 -15.5q63 0 131 56v100q-126 -2 -166 -38
q-19 -17 -25.5 -30.5zM331 -109q0 -28 15.5 -42t45.5 -14t60 22l26 -44q-62 -43 -109 -43t-72.5 27.5t-25.5 69.5q0 74 82 133h54q-76 -53 -76 -109z" />
    <glyph glyph-name="Cacute" unicode="&#x106;" horiz-adv-x="612" 
d="M149 321q0 -115 60.5 -187t164 -72t202.5 51l11 -76q-112 -49 -220 -49t-179.5 48.5t-104.5 122.5t-33 162q0 168 98 275t261 107q75 0 162 -27l-24 -70q-69 21 -138 21q-122 0 -191 -82t-69 -224zM353 742h-64l127 184l72 -54z" />
    <glyph glyph-name="cacute" unicode="&#x107;" horiz-adv-x="412" 
d="M251 468q67 0 136 -30l-25 -62q-51 22 -108.5 22t-91 -43t-33.5 -126t35 -127t92 -44t118 28l19 -66q-70 -32 -142 -32q-93 0 -151.5 67.5t-58.5 174t58.5 172.5t151.5 66zM230 513h-64l127 184l72 -54z" />
    <glyph glyph-name="Ccircumflex" unicode="&#x108;" horiz-adv-x="612" 
d="M149 321q0 -115 60.5 -187t164 -72t202.5 51l11 -76q-112 -49 -220 -49t-179.5 48.5t-104.5 122.5t-33 162q0 168 98 275t261 107q75 0 162 -27l-24 -70q-69 21 -138 21q-122 0 -191 -82t-69 -224zM507 742h-53l-64 84h-5l-63 -84h-53l97 182h44z" />
    <glyph glyph-name="ccircumflex" unicode="&#x109;" horiz-adv-x="412" 
d="M251 468q67 0 136 -30l-25 -62q-51 22 -108.5 22t-91 -43t-33.5 -126t35 -127t92 -44t118 28l19 -66q-70 -32 -142 -32q-93 0 -151.5 67.5t-58.5 174t58.5 172.5t151.5 66zM359 513h-53l-64 84h-5l-63 -84h-53l97 182h44z" />
    <glyph glyph-name="Cdotaccent" unicode="&#x10a;" horiz-adv-x="612" 
d="M149 321q0 -115 60.5 -187t164 -72t202.5 51l11 -76q-112 -49 -220 -49t-179.5 48.5t-104.5 122.5t-33 162q0 168 98 275t261 107q75 0 162 -27l-24 -70q-69 21 -138 21q-122 0 -191 -82t-69 -224zM387 776q-23 0 -39 16.5t-16 40t16 39.5t39 16t39 -16t16 -39.5t-16 -40
t-39 -16.5z" />
    <glyph glyph-name="cdotaccent" unicode="&#x10b;" horiz-adv-x="412" 
d="M251 468q67 0 136 -30l-25 -62q-51 22 -108.5 22t-91 -43t-33.5 -126t35 -127t92 -44t118 28l19 -66q-70 -32 -142 -32q-93 0 -151.5 67.5t-58.5 174t58.5 172.5t151.5 66zM255 547q-23 0 -39 16.5t-16 39.5t16 39.5t39 16.5t39 -16.5t16 -39.5t-16 -39.5t-39 -16.5z" />
    <glyph glyph-name="Ccaron" unicode="&#x10c;" horiz-adv-x="612" 
d="M149 321q0 -115 60.5 -187t164 -72t202.5 51l11 -76q-112 -49 -220 -49t-179.5 48.5t-104.5 122.5t-33 162q0 168 98 275t261 107q75 0 162 -27l-24 -70q-69 21 -138 21q-122 0 -191 -82t-69 -224zM389 836l64 84h53l-97 -182h-44l-97 182h53l63 -84h5z" />
    <glyph glyph-name="ccaron" unicode="&#x10d;" horiz-adv-x="412" 
d="M251 468q67 0 136 -30l-25 -62q-51 22 -108.5 22t-91 -43t-33.5 -126t35 -127t92 -44t118 28l19 -66q-70 -32 -142 -32q-93 0 -151.5 67.5t-58.5 174t58.5 172.5t151.5 66zM259 607l64 84h53l-97 -182h-44l-97 182h53l63 -84h5z" />
    <glyph glyph-name="Dcaron" unicode="&#x10e;" horiz-adv-x="693" 
d="M75 0v691h260q75 0 135 -27t97 -72q76 -94 76 -222q0 -162 -98 -266t-261 -104h-209zM324 615h-163v-539h123q124 0 192 78t68 216q0 103 -57.5 174t-162.5 71zM318 836l64 84h53l-97 -182h-44l-97 182h53l63 -84h5z" />
    <glyph glyph-name="dcaron" unicode="&#x10f;" horiz-adv-x="529" 
d="M379 718h82v-718h-54l-25 60q-75 -72 -154.5 -72t-131.5 61.5t-52 166.5t62 175.5t160 70.5q53 0 113 -24v280zM287 394q-75 0 -116 -51t-41 -124t34 -117t88 -44q30 0 64.5 16.5t62.5 45.5v256q-47 18 -92 18zM548 516l-47 10l41 204l96 10z" />
    <glyph glyph-name="Dcroat" unicode="&#x110;" horiz-adv-x="693" 
d="M75 0v691h260q75 0 135 -27t97 -72q76 -94 76 -222q0 -162 -98 -266t-261 -104h-209zM324 615h-163v-539h123q124 0 192 78t68 216q0 103 -57.5 174t-162.5 71zM382 315h-382v54h382v-54z" />
    <glyph glyph-name="dcroat" unicode="&#x111;" horiz-adv-x="529" 
d="M379 718h82v-718h-54l-25 60q-75 -72 -154.5 -72t-131.5 61.5t-52 166.5t62 175.5t160 70.5q53 0 113 -24v280zM287 394q-75 0 -116 -51t-41 -124t34 -117t88 -44q30 0 64.5 16.5t62.5 45.5v256q-47 18 -92 18zM522 577h-286v54h286v-54z" />
    <glyph glyph-name="Emacron" unicode="&#x112;" horiz-adv-x="535" 
d="M75 0v691h406l-19 -76h-301v-228h284v-73h-284v-238h339v-76h-425zM417 864v-67h-280v67h280z" />
    <glyph glyph-name="emacron" unicode="&#x113;" horiz-adv-x="473" 
d="M255 58q72 0 144 43l29 -60q-84 -53 -179.5 -53t-151.5 60.5t-56 174.5t58 179.5t154 65.5q87 0 137 -54q21 -22 35.5 -64t14.5 -99l-31 -35h-283q3 -158 129 -158zM327 369q-29 34 -76.5 34t-80.5 -33.5t-40 -90.5h226q0 56 -29 90zM397 635v-67h-280v67h280z" />
    <glyph glyph-name="Ebreve" unicode="&#x114;" horiz-adv-x="535" 
d="M75 0v691h406l-19 -76h-301v-228h284v-73h-284v-238h339v-76h-425zM371.5 796.5q-38.5 -37.5 -93 -37.5t-93.5 37.5t-43 89.5h71q10 -61 65 -61t65 61h70q-3 -52 -41.5 -89.5z" />
    <glyph glyph-name="ebreve" unicode="&#x115;" horiz-adv-x="473" 
d="M255 58q72 0 144 43l29 -60q-84 -53 -179.5 -53t-151.5 60.5t-56 174.5t58 179.5t154 65.5q87 0 137 -54q21 -22 35.5 -64t14.5 -99l-31 -35h-283q3 -158 129 -158zM327 369q-29 34 -76.5 34t-80.5 -33.5t-40 -90.5h226q0 56 -29 90zM352.5 567.5q-38.5 -37.5 -93 -37.5
t-93.5 37.5t-43 89.5h71q10 -61 65 -61t65 61h70q-3 -52 -41.5 -89.5z" />
    <glyph glyph-name="Edotaccent" unicode="&#x116;" horiz-adv-x="535" 
d="M75 0v691h406l-19 -76h-301v-228h284v-73h-284v-238h339v-76h-425zM277 776q-23 0 -39 16.5t-16 40t16 39.5t39 16t39 -16t16 -39.5t-16 -40t-39 -16.5z" />
    <glyph glyph-name="edotaccent" unicode="&#x117;" horiz-adv-x="473" 
d="M255 58q72 0 144 43l29 -60q-84 -53 -179.5 -53t-151.5 60.5t-56 174.5t58 179.5t154 65.5q87 0 137 -54q21 -22 35.5 -64t14.5 -99l-31 -35h-283q3 -158 129 -158zM327 369q-29 34 -76.5 34t-80.5 -33.5t-40 -90.5h226q0 56 -29 90zM256 547q-23 0 -39 16.5t-16 39.5
t16.5 39.5t38.5 16.5t38.5 -16.5t16.5 -39.5t-16 -39.5t-39 -16.5z" />
    <glyph glyph-name="Eogonek" unicode="&#x118;" horiz-adv-x="535" 
d="M75 0v691h406l-19 -76h-301v-228h284v-73h-284v-238h339v-76h-425zM424 -109q0 -28 15.5 -42t45.5 -14t60 22l26 -44q-62 -43 -109 -43t-72.5 27.5t-25.5 69.5q0 74 82 133h54q-76 -53 -76 -109z" />
    <glyph glyph-name="eogonek" unicode="&#x119;" horiz-adv-x="473" 
d="M255 58q72 0 144 43l29 -60q-84 -53 -179.5 -53t-151.5 60.5t-56 174.5t58 179.5t154 65.5q87 0 137 -54q21 -22 35.5 -64t14.5 -99l-31 -35h-283q3 -158 129 -158zM327 369q-29 34 -76.5 34t-80.5 -33.5t-40 -90.5h226q0 56 -29 90zM257 -109q0 -28 15.5 -42t45.5 -14
t60 22l26 -44q-62 -43 -109 -43t-72.5 27.5t-25.5 69.5q0 74 82 133h54q-76 -53 -76 -109z" />
    <glyph glyph-name="Ecaron" unicode="&#x11a;" horiz-adv-x="535" 
d="M75 0v691h406l-19 -76h-301v-228h284v-73h-284v-238h339v-76h-425zM279 836l64 84h53l-97 -182h-44l-97 182h53l63 -84h5z" />
    <glyph glyph-name="ecaron" unicode="&#x11b;" horiz-adv-x="473" 
d="M255 58q72 0 144 43l29 -60q-84 -53 -179.5 -53t-151.5 60.5t-56 174.5t58 179.5t154 65.5q87 0 137 -54q21 -22 35.5 -64t14.5 -99l-31 -35h-283q3 -158 129 -158zM327 369q-29 34 -76.5 34t-80.5 -33.5t-40 -90.5h226q0 56 -29 90zM261 607l64 84h53l-97 -182h-44
l-97 182h53l63 -84h5z" />
    <glyph glyph-name="Gcircumflex" unicode="&#x11c;" horiz-adv-x="675" 
d="M409 627q-122 0 -191 -82t-69 -224q0 -115 60.5 -187t155 -72t175.5 36v178h-148v73h233v-294q-131 -67 -267 -67q-99 0 -170.5 48.5t-104.5 122.5t-33 162q0 168 98 275t261 107q80 0 178 -32l-25 -70q-81 26 -153 26zM511 742h-53l-64 84h-5l-63 -84h-53l97 182h44z
" />
    <glyph glyph-name="gcircumflex" unicode="&#x11d;" horiz-adv-x="469" 
d="M221 129q-23 0 -44 3q-25 -48 -25 -63q0 -7 18 -12l122 -27q85 -19 121 -44.5t36 -75.5t-35 -84q-68 -68 -200 -68q-81 0 -140 30t-59 86t80 129q-30 11 -30 33t59 109q-86 37 -86 155q0 66 46.5 115.5t136.5 49.5q52 0 91 -15l140 16v-67h-75q26 -42 26 -106.5t-46 -114
t-136 -49.5zM323 285q0 124 -101 124q-40 0 -65 -21q-39 -34 -39 -84.5t24 -84.5t77 -34t78.5 32.5t25.5 67.5zM95 -113q0 -32 35 -49t91 -17t104 22.5t48 61.5q0 20 -23 32.5t-80 24.5l-117 26q-58 -58 -58 -101zM353 513h-53l-64 84h-5l-63 -84h-53l97 182h44z" />
    <glyph glyph-name="Gbreve" unicode="&#x11e;" horiz-adv-x="675" 
d="M409 627q-122 0 -191 -82t-69 -224q0 -115 60.5 -187t155 -72t175.5 36v178h-148v73h233v-294q-131 -67 -267 -67q-99 0 -170.5 48.5t-104.5 122.5t-33 162q0 168 98 275t261 107q80 0 178 -32l-25 -70q-81 26 -153 26zM485.5 796.5q-38.5 -37.5 -93 -37.5t-93.5 37.5
t-43 89.5h71q10 -61 65 -61t65 61h70q-3 -52 -41.5 -89.5z" />
    <glyph glyph-name="gbreve" unicode="&#x11f;" horiz-adv-x="469" 
d="M221 129q-23 0 -44 3q-25 -48 -25 -63q0 -7 18 -12l122 -27q85 -19 121 -44.5t36 -75.5t-35 -84q-68 -68 -200 -68q-81 0 -140 30t-59 86t80 129q-30 11 -30 33t59 109q-86 37 -86 155q0 66 46.5 115.5t136.5 49.5q52 0 91 -15l140 16v-67h-75q26 -42 26 -106.5t-46 -114
t-136 -49.5zM323 285q0 124 -101 124q-40 0 -65 -21q-39 -34 -39 -84.5t24 -84.5t77 -34t78.5 32.5t25.5 67.5zM95 -113q0 -32 35 -49t91 -17t104 22.5t48 61.5q0 20 -23 32.5t-80 24.5l-117 26q-58 -58 -58 -101zM328.5 567.5q-38.5 -37.5 -93 -37.5t-93.5 37.5t-43 89.5
h71q10 -61 65 -61t65 61h70q-3 -52 -41.5 -89.5z" />
    <glyph glyph-name="Gdotaccent" unicode="&#x120;" horiz-adv-x="675" 
d="M409 627q-122 0 -191 -82t-69 -224q0 -115 60.5 -187t155 -72t175.5 36v178h-148v73h233v-294q-131 -67 -267 -67q-99 0 -170.5 48.5t-104.5 122.5t-33 162q0 168 98 275t261 107q80 0 178 -32l-25 -70q-81 26 -153 26zM392 776q-23 0 -39 16.5t-16 40t16.5 39.5t38.5 16
t38.5 -16t16.5 -39.5t-16 -40t-39 -16.5z" />
    <glyph glyph-name="gdotaccent" unicode="&#x121;" horiz-adv-x="469" 
d="M221 129q-23 0 -44 3q-25 -48 -25 -63q0 -7 18 -12l122 -27q85 -19 121 -44.5t36 -75.5t-35 -84q-68 -68 -200 -68q-81 0 -140 30t-59 86t80 129q-30 11 -30 33t59 109q-86 37 -86 155q0 66 46.5 115.5t136.5 49.5q52 0 91 -15l140 16v-67h-75q26 -42 26 -106.5t-46 -114
t-136 -49.5zM323 285q0 124 -101 124q-40 0 -65 -21q-39 -34 -39 -84.5t24 -84.5t77 -34t78.5 32.5t25.5 67.5zM95 -113q0 -32 35 -49t91 -17t104 22.5t48 61.5q0 20 -23 32.5t-80 24.5l-117 26q-58 -58 -58 -101zM234 547q-23 0 -39 16.5t-16 39.5t16.5 39.5t38.5 16.5
t38.5 -16.5t16.5 -39.5t-16 -39.5t-39 -16.5z" />
    <glyph glyph-name="uni0122" unicode="&#x122;" horiz-adv-x="675" 
d="M409 627q-122 0 -191 -82t-69 -224q0 -115 60.5 -187t155 -72t175.5 36v178h-148v73h233v-294q-131 -67 -267 -67q-99 0 -170.5 48.5t-104.5 122.5t-33 162q0 168 98 275t261 107q80 0 178 -32l-25 -70q-81 26 -153 26zM316 -269l-47 10l41 204l96 10z" />
    <glyph glyph-name="uni0123" unicode="&#x123;" horiz-adv-x="462" 
d="M221 129q-23 0 -44 3q-25 -48 -25 -63q0 -7 18 -12l122 -27q85 -19 121 -44.5t36 -75.5t-35 -84q-68 -68 -200 -68q-81 0 -140 30t-59 86t80 129q-30 11 -30 33t59 109q-86 37 -86 155q0 66 46.5 115.5t136.5 49.5q52 0 91 -15l140 16v-67h-75q26 -42 26 -106.5t-46 -114
t-136 -49.5zM323 285q0 124 -101 124q-40 0 -65 -21q-39 -34 -39 -84.5t24 -84.5t77 -34t78.5 32.5t25.5 67.5zM95 -113q0 -32 35 -49t91 -17t104 22.5t48 61.5q0 20 -23 32.5t-80 24.5l-117 26q-58 -58 -58 -101zM257 730l47 -10l-41 -204l-96 -10z" />
    <glyph glyph-name="Hcircumflex" unicode="&#x124;" horiz-adv-x="695" 
d="M534 0v314h-373v-314h-86v691h86v-304h373v304h86v-691h-86zM466 742h-53l-64 84h-5l-63 -84h-53l97 182h44z" />
    <glyph glyph-name="hcircumflex" unicode="&#x125;" horiz-adv-x="528" 
d="M153 718v-309q75 59 161 59q67 0 106.5 -33.5t39.5 -87.5v-347h-85v341q0 26 -20.5 40t-54.5 14q-71 0 -147 -51v-344h-85v718h85zM230 741h-53l-64 84h-5l-63 -84h-53l97 182h44z" />
    <glyph glyph-name="Hbar" unicode="&#x126;" horiz-adv-x="695" 
d="M534 0v314h-373v-314h-86v691h86v-304h373v304h86v-691h-86zM691 521h-688v54h688v-54z" />
    <glyph glyph-name="hbar" unicode="&#x127;" horiz-adv-x="528" 
d="M153 718v-309q75 59 161 59q67 0 106.5 -33.5t39.5 -87.5v-347h-85v341q0 26 -20.5 40t-54.5 14q-71 0 -147 -51v-344h-85v718h85zM295 577h-286v54h286v-54z" />
    <glyph glyph-name="Itilde" unicode="&#x128;" horiz-adv-x="256" 
d="M85 0v691h86v-691h-86zM194 780q-25 0 -73 16t-67 16q-34 0 -49 -37l-39 17q31 93 97 93q25 0 73 -16t67 -16q34 0 49 37l39 -17q-31 -93 -97 -93z" />
    <glyph glyph-name="itilde" unicode="&#x129;" horiz-adv-x="245" 
d="M80 456h85v-456h-85v456zM188 551q-25 0 -73 16t-67 16q-34 0 -49 -37l-39 17q31 93 97 93q25 0 73 -16t67 -16q34 0 49 37l39 -17q-31 -93 -97 -93z" />
    <glyph glyph-name="Imacron" unicode="&#x12a;" horiz-adv-x="256" 
d="M85 0v691h86v-691h-86zM268 864v-67h-280v67h280z" />
    <glyph glyph-name="imacron" unicode="&#x12b;" horiz-adv-x="245" 
d="M80 456h85v-456h-85v456zM263 635v-67h-280v67h280z" />
    <glyph glyph-name="Ibreve" unicode="&#x12c;" horiz-adv-x="256" 
d="M85 0v691h86v-691h-86zM222.5 796.5q-38.5 -37.5 -93 -37.5t-93.5 37.5t-43 89.5h71q10 -61 65 -61t65 61h70q-3 -52 -41.5 -89.5z" />
    <glyph glyph-name="ibreve" unicode="&#x12d;" horiz-adv-x="245" 
d="M80 456h85v-456h-85v456zM216.5 567.5q-38.5 -37.5 -93 -37.5t-93.5 37.5t-43 89.5h71q10 -61 65 -61t65 61h70q-3 -52 -41.5 -89.5z" />
    <glyph glyph-name="Iogonek" unicode="&#x12e;" horiz-adv-x="256" 
d="M85 0v691h86v-691h-86zM63 -109q0 -28 15.5 -42t45.5 -14t60 22l26 -44q-62 -43 -109 -43t-72.5 27.5t-25.5 69.5q0 74 82 133h54q-76 -53 -76 -109z" />
    <glyph glyph-name="iogonek" unicode="&#x12f;" horiz-adv-x="245" 
d="M122 547q-23 0 -39 16.5t-16 39.5t16.5 39.5t38.5 16.5t38.5 -16.5t16.5 -39.5t-16 -39.5t-39 -16.5zM80 456h85v-456h-85v456zM58 -109q0 -28 15.5 -42t45.5 -14t60 22l26 -44q-62 -43 -109 -43t-72.5 27.5t-25.5 69.5q0 74 82 133h54q-76 -53 -76 -109z" />
    <glyph glyph-name="Idotaccent" unicode="&#x130;" horiz-adv-x="256" 
d="M85 0v691h86v-691h-86zM128 776q-23 0 -39 16.5t-16 40t16.5 39.5t38.5 16t38.5 -16t16.5 -39.5t-16 -40t-39 -16.5z" />
    <glyph glyph-name="dotlessi" unicode="&#x131;" horiz-adv-x="245" 
d="M80 456h85v-456h-85v456z" />
    <glyph glyph-name="IJ" unicode="&#x132;" horiz-adv-x="527" 
d="M85 0v691h86v-691h-86zM442 691v-692q0 -99 -37.5 -149.5t-131.5 -50.5q-39 0 -70 11l17 69q21 -8 54 -8q47 0 64.5 34t17.5 102v684h86z" />
    <glyph glyph-name="ij" unicode="&#x133;" horiz-adv-x="487" 
d="M122 547q-23 0 -39 16.5t-16 39.5t16.5 39.5t38.5 16.5t38.5 -16.5t16.5 -39.5t-16 -39.5t-39 -16.5zM80 456h85v-456h-85v456zM367 547q-23 0 -39 16.5t-16 39.5t16 39.5t39 16.5t39 -16.5t16 -39.5t-16 -39.5t-39 -16.5zM407 456v-545q0 -74 -35 -113.5t-91.5 -39.5
t-120.5 30l29 60q44 -18 76 -18q60 0 60 80v546h82z" />
    <glyph glyph-name="Jcircumflex" unicode="&#x134;" horiz-adv-x="271" 
d="M186 691v-692q0 -99 -37.5 -149.5t-131.5 -50.5q-39 0 -70 11l17 69q21 -8 54 -8q47 0 64.5 34t17.5 102v684h86zM255 742h-53l-64 84h-5l-63 -84h-53l97 182h44z" />
    <glyph glyph-name="jcircumflex" unicode="&#x135;" horiz-adv-x="242" 
d="M162 456v-545q0 -74 -35 -113.5t-91 -39.5t-121 30l29 60q44 -18 76 -18q60 0 60 80v546h82zM240 513h-53l-64 84h-5l-63 -84h-53l97 182h44z" />
    <glyph glyph-name="uni0136" unicode="&#x136;" horiz-adv-x="571" 
d="M161 0h-86v691h86v-292l273 292h107l-272 -284l297 -407h-110l-249 342l-46 -48v-294zM244 -269l-47 10l41 204l96 10z" />
    <glyph glyph-name="uni0137" unicode="&#x137;" horiz-adv-x="459" 
d="M150 0h-82v718h82v-424l178 162h113l-201 -173l222 -283h-108l-176 230l-28 -24v-206zM208 -269l-47 10l41 204l96 10z" />
    <glyph glyph-name="kgreenlandic" unicode="&#x138;" horiz-adv-x="459" 
d="M150 0h-82v455h82v-186l178 187h113l-199 -198l220 -258h-108l-170 201l-34 -34v-167z" />
    <glyph glyph-name="Lacute" unicode="&#x139;" horiz-adv-x="459" 
d="M75 0v691h86v-615h293v-76h-379zM126 742h-64l127 184l72 -54z" />
    <glyph glyph-name="lacute" unicode="&#x13a;" horiz-adv-x="218" 
d="M68 718h82v-718h-82v718zM74 742h-64l127 184l72 -54z" />
    <glyph glyph-name="uni013B" unicode="&#x13b;" horiz-adv-x="459" 
d="M75 0v691h86v-615h293v-76h-379zM230 -269l-47 10l41 204l96 10z" />
    <glyph glyph-name="uni013C" unicode="&#x13c;" horiz-adv-x="218" 
d="M68 718h82v-718h-82v718zM68 -269l-47 10l41 204l96 10z" />
    <glyph glyph-name="Lcaron" unicode="&#x13d;" horiz-adv-x="459" 
d="M75 0v691h86v-615h293v-76h-379zM288 516l-47 10l41 204l96 10z" />
    <glyph glyph-name="lcaron" unicode="&#x13e;" horiz-adv-x="218" 
d="M68 718h82v-718h-82v718zM237 516l-47 10l41 204l96 10z" />
    <glyph glyph-name="Ldot" unicode="&#x13f;" horiz-adv-x="459" 
d="M75 0v691h86v-615h293v-76h-379zM303 309q-22 0 -37 15.5t-15 38.5t15 38t37 15t37.5 -15t15.5 -38t-15.5 -38.5t-37.5 -15.5z" />
    <glyph glyph-name="ldot" unicode="&#x140;" horiz-adv-x="285" 
d="M68 718h82v-718h-82v718zM232 309q-22 0 -37 15.5t-15 38.5t15 38t37 15t37.5 -15t15.5 -38t-15.5 -38.5t-37.5 -15.5z" />
    <glyph glyph-name="Lslash" unicode="&#x141;" horiz-adv-x="459" 
d="M75 0v691h86v-615h293v-76h-379zM228 426l-218 -164v57l218 164v-57z" />
    <glyph glyph-name="lslash" unicode="&#x142;" horiz-adv-x="218" 
d="M68 718h82v-718h-82v718zM218 426l-218 -164v57l218 164v-57z" />
    <glyph glyph-name="Nacute" unicode="&#x143;" horiz-adv-x="731" 
d="M570 155v536h86v-691h-83l-407 537h-5v-537h-86v691h83l407 -536h5zM380 742h-64l127 184l72 -54z" />
    <glyph glyph-name="nacute" unicode="&#x144;" horiz-adv-x="532" 
d="M464 345v-345h-85v341q0 26 -20.5 40t-54.5 14q-71 0 -147 -51v-344h-85v456h54l25 -52q77 64 167 64q67 0 106.5 -34t39.5 -89zM250 513h-64l127 184l72 -54z" />
    <glyph glyph-name="uni0145" unicode="&#x145;" horiz-adv-x="731" 
d="M570 155v536h86v-691h-83l-407 537h-5v-537h-86v691h83l407 -536h5zM342 -269l-47 10l41 204l96 10z" />
    <glyph glyph-name="uni0146" unicode="&#x146;" horiz-adv-x="532" 
d="M464 345v-345h-85v341q0 26 -20.5 40t-54.5 14q-71 0 -147 -51v-344h-85v456h54l25 -52q77 64 167 64q67 0 106.5 -34t39.5 -89zM243 -269l-47 10l41 204l96 10z" />
    <glyph glyph-name="Ncaron" unicode="&#x147;" horiz-adv-x="731" 
d="M570 155v536h86v-691h-83l-407 537h-5v-537h-86v691h83l407 -536h5zM367 836l64 84h53l-97 -182h-44l-97 182h53l63 -84h5z" />
    <glyph glyph-name="ncaron" unicode="&#x148;" horiz-adv-x="532" 
d="M464 345v-345h-85v341q0 26 -20.5 40t-54.5 14q-71 0 -147 -51v-344h-85v456h54l25 -52q77 64 167 64q67 0 106.5 -34t39.5 -89zM268 607l64 84h53l-97 -182h-44l-97 182h53l63 -84h5z" />
    <glyph glyph-name="napostrophe" unicode="&#x149;" horiz-adv-x="532" 
d="M464 345v-345h-85v341q0 26 -20.5 40t-54.5 14q-71 0 -147 -51v-344h-85v456h54l25 -52q77 64 167 64q67 0 106.5 -34t39.5 -89zM11 516l-47 10l41 204l96 10z" />
    <glyph glyph-name="Eng" unicode="&#x14a;" horiz-adv-x="731" 
d="M570 155v536h86v-692q0 -99 -37.5 -149.5t-131.5 -50.5q-39 0 -70 11l17 69q21 -8 60.5 -8t57 33t18.5 100l-404 533h-5v-537h-86v691h83l407 -536h5z" />
    <glyph glyph-name="eng" unicode="&#x14b;" horiz-adv-x="532" 
d="M464 345v-434q0 -74 -35 -113.5t-91 -39.5t-121 30l29 60q44 -18 73 -18q60 0 60 80v431q0 26 -20.5 40t-54.5 14q-71 0 -147 -51v-344h-85v456h54l25 -52q77 64 167 64q67 0 106.5 -34t39.5 -89z" />
    <glyph glyph-name="Omacron" unicode="&#x14c;" horiz-adv-x="759" 
d="M355 -12q-75 0 -134.5 28t-96.5 75q-74 96 -74 230q0 168 97 275t257 107q75 0 134.5 -28t95.5 -75q75 -96 75 -230q0 -168 -97 -275t-257 -107zM400 628q-124 0 -191 -81t-67 -227q0 -107 57.5 -183t160.5 -76q124 0 190.5 81t66.5 227q0 107 -57 183t-160 76zM519 864
v-67h-280v67h280z" />
    <glyph glyph-name="omacron" unicode="&#x14d;" horiz-adv-x="513" 
d="M259 403q-38 0 -65.5 -17t-40.5 -44q-24 -51 -24 -109q0 -180 125 -180q38 0 65 17t41 44q24 50 24 109q0 180 -125 180zM259 468q111 0 162 -69t51 -180q0 -80 -42 -148q-23 -37 -69 -60t-110 -23q-110 0 -160 66t-50 177q0 65 20.5 110t43.5 69.5t63 41t91 16.5z
M396 635v-67h-280v67h280z" />
    <glyph glyph-name="Obreve" unicode="&#x14e;" horiz-adv-x="759" 
d="M355 -12q-75 0 -134.5 28t-96.5 75q-74 96 -74 230q0 168 97 275t257 107q75 0 134.5 -28t95.5 -75q75 -96 75 -230q0 -168 -97 -275t-257 -107zM400 628q-124 0 -191 -81t-67 -227q0 -107 57.5 -183t160.5 -76q124 0 190.5 81t66.5 227q0 107 -57 183t-160 76z
M473.5 796.5q-38.5 -37.5 -93 -37.5t-93.5 37.5t-43 89.5h71q10 -61 65 -61t65 61h70q-3 -52 -41.5 -89.5z" />
    <glyph glyph-name="obreve" unicode="&#x14f;" horiz-adv-x="513" 
d="M259 403q-38 0 -65.5 -17t-40.5 -44q-24 -51 -24 -109q0 -180 125 -180q38 0 65 17t41 44q24 50 24 109q0 180 -125 180zM259 468q111 0 162 -69t51 -180q0 -80 -42 -148q-23 -37 -69 -60t-110 -23q-110 0 -160 66t-50 177q0 65 20.5 110t43.5 69.5t63 41t91 16.5z
M350.5 567.5q-38.5 -37.5 -93 -37.5t-93.5 37.5t-43 89.5h71q10 -61 65 -61t65 61h70q-3 -52 -41.5 -89.5z" />
    <glyph glyph-name="Ohungarumlaut" unicode="&#x150;" horiz-adv-x="759" 
d="M355 -12q-75 0 -134.5 28t-96.5 75q-74 96 -74 230q0 168 97 275t257 107q75 0 134.5 -28t95.5 -75q75 -96 75 -230q0 -168 -97 -275t-257 -107zM400 628q-124 0 -191 -81t-67 -227q0 -107 57.5 -183t160.5 -76q124 0 190.5 81t66.5 227q0 107 -57 183t-160 76zM309 742
h-64l127 184l72 -54zM478 742h-64l127 184l72 -54z" />
    <glyph glyph-name="ohungarumlaut" unicode="&#x151;" horiz-adv-x="513" 
d="M259 403q-38 0 -65.5 -17t-40.5 -44q-24 -51 -24 -109q0 -180 125 -180q38 0 65 17t41 44q24 50 24 109q0 180 -125 180zM259 468q111 0 162 -69t51 -180q0 -80 -42 -148q-23 -37 -69 -60t-110 -23q-110 0 -160 66t-50 177q0 65 20.5 110t43.5 69.5t63 41t91 16.5z
M176 513h-64l127 184l72 -54zM345 513h-64l127 184l72 -54z" />
    <glyph glyph-name="OE" unicode="&#x152;" horiz-adv-x="976" 
d="M452 0q-45 -12 -108.5 -12t-123 28t-96.5 75q-74 96 -74 230q0 168 97 275t257 107q49 0 91 -12h427l-19 -76h-282q81 -87 88 -228h177v-73h-180q-17 -148 -113 -238h348v-76h-489zM400 628q-124 0 -191 -81t-67 -227q0 -107 57.5 -183t160.5 -76q124 0 190.5 81
t66.5 227q0 107 -57 183t-160 76z" />
    <glyph glyph-name="oe" unicode="&#x153;" horiz-adv-x="819" 
d="M259 403q-38 0 -65.5 -17t-40.5 -44q-24 -51 -24 -109q0 -180 125 -180q38 0 65 17t41 44q24 50 24 109q0 180 -125 180zM259 468q111 0 162 -69t51 -180q0 -80 -42 -148q-23 -37 -69 -60t-110 -23q-110 0 -160 66t-50 177q0 65 20.5 110t43.5 69.5t63 41t91 16.5z
M601 58q72 0 144 43l29 -60q-84 -53 -179.5 -53t-151.5 60.5t-56 174.5t58 179.5t154 65.5q87 0 137 -54q21 -22 35.5 -64t14.5 -99l-31 -35h-283q3 -158 129 -158zM673 369q-29 34 -76.5 34t-80.5 -33.5t-40 -90.5h226q0 56 -29 90z" />
    <glyph glyph-name="Racute" unicode="&#x154;" horiz-adv-x="549" 
d="M161 281v-281h-86v691h182q102 0 169 -54.5t67 -151.5q0 -70 -37 -118.5t-100 -70.5q52 -60 193 -296h-104q-139 240 -176 281h-108zM161 355h96q69 0 106.5 34t37.5 96t-37.5 96t-106.5 34h-96v-260zM239 742h-64l127 184l72 -54z" />
    <glyph glyph-name="racute" unicode="&#x155;" horiz-adv-x="315" 
d="M72 456h54l25 -80h4q55 71 151 86l9 -79q-47 -3 -91 -24t-67 -56v-303h-85v456zM171 513h-64l127 184l72 -54z" />
    <glyph glyph-name="uni0156" unicode="&#x156;" horiz-adv-x="549" 
d="M161 281v-281h-86v691h182q102 0 169 -54.5t67 -151.5q0 -70 -37 -118.5t-100 -70.5q52 -60 193 -296h-104q-139 240 -176 281h-108zM161 355h96q69 0 106.5 34t37.5 96t-37.5 96t-106.5 34h-96v-260zM252 -269l-47 10l41 204l96 10z" />
    <glyph glyph-name="uni0157" unicode="&#x157;" horiz-adv-x="315" 
d="M72 456h54l25 -80h4q55 71 151 86l9 -79q-47 -3 -91 -24t-67 -56v-303h-85v456zM83 -269l-47 10l41 204l96 10z" />
    <glyph glyph-name="Rcaron" unicode="&#x158;" horiz-adv-x="549" 
d="M161 281v-281h-86v691h182q102 0 169 -54.5t67 -151.5q0 -70 -37 -118.5t-100 -70.5q52 -60 193 -296h-104q-139 240 -176 281h-108zM161 355h96q69 0 106.5 34t37.5 96t-37.5 96t-106.5 34h-96v-260zM242 836l64 84h53l-97 -182h-44l-97 182h53l63 -84h5z" />
    <glyph glyph-name="rcaron" unicode="&#x159;" horiz-adv-x="315" 
d="M72 456h54l25 -80h4q55 71 151 86l9 -79q-47 -3 -91 -24t-67 -56v-303h-85v456zM179 607l64 84h53l-97 -182h-44l-97 182h53l63 -84h5z" />
    <glyph glyph-name="Sacute" unicode="&#x15a;" horiz-adv-x="512" 
d="M412 605q-70 24 -130 24t-98 -31t-38 -75q0 -63 67 -99l141 -78q118 -66 118 -170q0 -86 -61 -137t-172 -51t-199 40l25 70q82 -36 161.5 -36t117.5 31t38 75q0 63 -67 99l-141 78q-118 66 -118 170q0 86 61 137t164 51q70 0 157 -29zM256 742h-64l127 184l72 -54z" />
    <glyph glyph-name="sacute" unicode="&#x15b;" horiz-adv-x="384" 
d="M306 376q-51 22 -96 22q-87 0 -87 -53q0 -46 116 -89q43 -16 79.5 -50t36.5 -82q0 -69 -45 -102.5t-125 -33.5t-156 44l25 62q63 -36 143 -36q34 0 55 14.5t21 39.5t-24 43t-58 32t-68 30.5t-58 46.5t-24 71q0 64 43.5 98.5t110.5 34.5t136 -30zM167 513h-64l127 184
l72 -54z" />
    <glyph glyph-name="Scircumflex" unicode="&#x15c;" horiz-adv-x="512" 
d="M412 605q-70 24 -130 24t-98 -31t-38 -75q0 -63 67 -99l141 -78q118 -66 118 -170q0 -86 -61 -137t-172 -51t-199 40l25 70q82 -36 161.5 -36t117.5 31t38 75q0 63 -67 99l-141 78q-118 66 -118 170q0 86 61 137t164 51q70 0 157 -29zM371 742h-53l-64 84h-5l-63 -84h-53
l97 182h44z" />
    <glyph glyph-name="scircumflex" unicode="&#x15d;" horiz-adv-x="384" 
d="M306 376q-51 22 -96 22q-87 0 -87 -53q0 -46 116 -89q43 -16 79.5 -50t36.5 -82q0 -69 -45 -102.5t-125 -33.5t-156 44l25 62q63 -36 143 -36q34 0 55 14.5t21 39.5t-24 43t-58 32t-68 30.5t-58 46.5t-24 71q0 64 43.5 98.5t110.5 34.5t136 -30zM311 513h-53l-64 84h-5
l-63 -84h-53l97 182h44z" />
    <glyph glyph-name="Scedilla" unicode="&#x15e;" horiz-adv-x="512" 
d="M412 605q-70 24 -130 24t-98 -31t-38 -75q0 -63 67 -99l141 -78q118 -66 118 -170q0 -86 -61 -137t-172 -51t-199 40l25 70q82 -36 161.5 -36t117.5 31t38 75q0 63 -67 99l-141 78q-118 66 -118 170q0 86 61 137t164 51q70 0 157 -29zM348 -143q0 -45 -32 -72t-78.5 -27
t-90.5 27l16 40q30 -20 58.5 -20t46 16.5t17.5 38t-19 38t-55 19.5l-9 13l32 78h35l-11 -55q90 -30 90 -96z" />
    <glyph glyph-name="scedilla" unicode="&#x15f;" horiz-adv-x="384" 
d="M306 376q-51 22 -96 22q-87 0 -87 -53q0 -46 116 -89q43 -16 79.5 -50t36.5 -82q0 -69 -45 -102.5t-125 -33.5t-156 44l25 62q63 -36 143 -36q34 0 55 14.5t21 39.5t-24 43t-58 32t-68 30.5t-58 46.5t-24 71q0 64 43.5 98.5t110.5 34.5t136 -30zM283 -143q0 -45 -32 -72
t-78.5 -27t-90.5 27l16 40q30 -20 58.5 -20t46 16.5t17.5 38t-19 38t-55 19.5l-9 13l32 78h35l-11 -55q90 -30 90 -96z" />
    <glyph glyph-name="Scaron" unicode="&#x160;" horiz-adv-x="512" 
d="M412 605q-70 24 -130 24t-98 -31t-38 -75q0 -63 67 -99l141 -78q118 -66 118 -170q0 -86 -61 -137t-172 -51t-199 40l25 70q82 -36 161.5 -36t117.5 31t38 75q0 63 -67 99l-141 78q-118 66 -118 170q0 86 61 137t164 51q70 0 157 -29zM258 836l64 84h53l-97 -182h-44
l-97 182h53l63 -84h5z" />
    <glyph glyph-name="scaron" unicode="&#x161;" horiz-adv-x="384" 
d="M194 607l64 84h53l-97 -182h-44l-97 182h53l63 -84h5zM306 376q-51 22 -96 22q-87 0 -87 -53q0 -46 116 -89q43 -16 79.5 -50t36.5 -82q0 -69 -45 -102.5t-125 -33.5t-156 44l25 62q63 -36 143 -36q34 0 55 14.5t21 39.5t-24 43t-58 32t-68 30.5t-58 46.5t-24 71
q0 64 43.5 98.5t110.5 34.5t136 -30z" />
    <glyph glyph-name="uni0162" unicode="&#x162;" horiz-adv-x="492" 
d="M5 615v76h482v-76h-198v-615h-86v615h-198zM344 -143q0 -45 -32 -72t-78.5 -27t-90.5 27l16 40q30 -20 58.5 -20t46 16.5t17.5 38t-19 38t-55 19.5l-9 13l32 78h35l-11 -55q90 -30 90 -96z" />
    <glyph glyph-name="uni0163" unicode="&#x163;" horiz-adv-x="339" 
d="M174 393v-274q0 -60 57 -60q33 0 79 19l11 -67q-49 -23 -103 -23t-90 32.5t-36 99.5v273h-63v63h63v90l62 57h20v-147h129v-63h-129zM275 -143q0 -45 -32 -72t-78.5 -27t-90.5 27l16 40q30 -20 58.5 -20t46 16.5t17.5 38t-19 38t-55 19.5l-9 13l32 78h35l-11 -55
q90 -30 90 -96z" />
    <glyph glyph-name="Tcaron" unicode="&#x164;" horiz-adv-x="492" 
d="M5 615v76h482v-76h-198v-615h-86v615h-198zM248 836l64 84h53l-97 -182h-44l-97 182h53l63 -84h5z" />
    <glyph glyph-name="tcaron" unicode="&#x165;" horiz-adv-x="339" 
d="M174 393v-274q0 -60 57 -60q33 0 79 19l11 -67q-49 -23 -103 -23t-90 32.5t-36 99.5v273h-63v63h63v90l62 57h20v-147h129v-63h-129zM318 516l-47 10l41 204l96 10z" />
    <glyph glyph-name="Tbar" unicode="&#x166;" horiz-adv-x="492" 
d="M5 615v76h482v-76h-198v-615h-86v615h-198zM437 315h-382v54h382v-54z" />
    <glyph glyph-name="tbar" unicode="&#x167;" horiz-adv-x="339" 
d="M174 393v-274q0 -60 57 -60q33 0 79 19l11 -67q-49 -23 -103 -23t-90 32.5t-36 99.5v273h-63v63h63v90l62 57h20v-147h129v-63h-129zM302 215h-271v54h271v-54z" />
    <glyph glyph-name="Utilde" unicode="&#x168;" horiz-adv-x="660" 
d="M156 691v-469q0 -76 53 -123q42 -38 121 -38q109 0 152 77q22 38 22 84v469h86v-469q0 -103 -67.5 -168.5t-192.5 -65.5t-192.5 65.5t-67.5 168.5v469h86zM395 780q-25 0 -73 16t-67 16q-34 0 -49 -37l-39 17q31 93 97 93q25 0 73 -16t67 -16q34 0 49 37l39 -17
q-31 -93 -97 -93z" />
    <glyph glyph-name="utilde" unicode="&#x169;" horiz-adv-x="530" 
d="M153 456v-339q0 -28 20.5 -43.5t53.5 -15.5q71 0 146 56v342h85v-456h-54l-25 60q-77 -72 -171 -72q-60 0 -100 32t-40 93v343h85zM330 551q-25 0 -73 16t-67 16q-34 0 -49 -37l-39 17q31 93 97 93q25 0 73 -16t67 -16q34 0 49 37l39 -17q-31 -93 -97 -93z" />
    <glyph glyph-name="Umacron" unicode="&#x16a;" horiz-adv-x="660" 
d="M156 691v-469q0 -76 53 -123q42 -38 121 -38q109 0 152 77q22 38 22 84v469h86v-469q0 -103 -67.5 -168.5t-192.5 -65.5t-192.5 65.5t-67.5 168.5v469h86zM470 864v-67h-280v67h280z" />
    <glyph glyph-name="umacron" unicode="&#x16b;" horiz-adv-x="530" 
d="M153 456v-339q0 -28 20.5 -43.5t53.5 -15.5q71 0 146 56v342h85v-456h-54l-25 60q-77 -72 -171 -72q-60 0 -100 32t-40 93v343h85zM405 635v-67h-280v67h280z" />
    <glyph glyph-name="Ubreve" unicode="&#x16c;" horiz-adv-x="660" 
d="M156 691v-469q0 -76 53 -123q42 -38 121 -38q109 0 152 77q22 38 22 84v469h86v-469q0 -103 -67.5 -168.5t-192.5 -65.5t-192.5 65.5t-67.5 168.5v469h86zM423.5 796.5q-38.5 -37.5 -93 -37.5t-93.5 37.5t-43 89.5h71q10 -61 65 -61t65 61h70q-3 -52 -41.5 -89.5z" />
    <glyph glyph-name="ubreve" unicode="&#x16d;" horiz-adv-x="530" 
d="M153 456v-339q0 -28 20.5 -43.5t53.5 -15.5q71 0 146 56v342h85v-456h-54l-25 60q-77 -72 -171 -72q-60 0 -100 32t-40 93v343h85zM358.5 567.5q-38.5 -37.5 -93 -37.5t-93.5 37.5t-43 89.5h71q10 -61 65 -61t65 61h70q-3 -52 -41.5 -89.5z" />
    <glyph glyph-name="Uring" unicode="&#x16e;" horiz-adv-x="660" 
d="M156 691v-469q0 -76 53 -123q42 -38 121 -38q109 0 152 77q22 38 22 84v469h86v-469q0 -103 -67.5 -168.5t-192.5 -65.5t-192.5 65.5t-67.5 168.5v469h86zM329 781q44 0 44 54.5t-45.5 54.5t-45.5 -50q0 -25 12 -42t35 -17zM225 835q0 43 30.5 74t74 31t74 -30.5
t30.5 -74t-30 -74t-74 -30.5t-74.5 30.5t-30.5 73.5z" />
    <glyph glyph-name="uring" unicode="&#x16f;" horiz-adv-x="530" 
d="M153 456v-339q0 -28 20.5 -43.5t53.5 -15.5q71 0 146 56v342h85v-456h-54l-25 60q-77 -72 -171 -72q-60 0 -100 32t-40 93v343h85zM264 552q44 0 44 54.5t-45.5 54.5t-45.5 -50q0 -25 12 -42t35 -17zM190.5 532.5q-30.5 30.5 -30.5 74t31 74t74 30.5t73.5 -30.5
t30.5 -74.5t-30.5 -74t-74 -30t-74 30.5z" />
    <glyph glyph-name="Uhungarumlaut" unicode="&#x170;" horiz-adv-x="660" 
d="M156 691v-469q0 -76 53 -123q42 -38 121 -38q109 0 152 77q22 38 22 84v469h86v-469q0 -103 -67.5 -168.5t-192.5 -65.5t-192.5 65.5t-67.5 168.5v469h86zM250 742h-64l127 184l72 -54zM419 742h-64l127 184l72 -54z" />
    <glyph glyph-name="uhungarumlaut" unicode="&#x171;" horiz-adv-x="530" 
d="M153 456v-339q0 -28 20.5 -43.5t53.5 -15.5q71 0 146 56v342h85v-456h-54l-25 60q-77 -72 -171 -72q-60 0 -100 32t-40 93v343h85zM185 513h-64l127 184l72 -54zM354 513h-64l127 184l72 -54z" />
    <glyph glyph-name="Uogonek" unicode="&#x172;" horiz-adv-x="660" 
d="M156 691v-469q0 -76 53 -123q42 -38 121 -38q109 0 152 77q22 38 22 84v469h86v-469q0 -103 -67.5 -168.5t-192.5 -65.5t-192.5 65.5t-67.5 168.5v469h86zM307 -109q0 -28 15.5 -42t45.5 -14t60 22l26 -44q-62 -43 -109 -43t-72.5 27.5t-25.5 69.5q0 74 82 133h54
q-76 -53 -76 -109z" />
    <glyph glyph-name="uogonek" unicode="&#x173;" horiz-adv-x="530" 
d="M153 456v-339q0 -28 20.5 -43.5t53.5 -15.5q71 0 146 56v342h85v-456h-54l-25 60q-77 -72 -171 -72q-60 0 -100 32t-40 93v343h85zM382 -109q0 -28 15.5 -42t45.5 -14t60 22l26 -44q-62 -43 -109 -43t-72.5 27.5t-25.5 69.5q0 74 82 133h54q-76 -53 -76 -109z" />
    <glyph glyph-name="Wcircumflex" unicode="&#x174;" horiz-adv-x="873" 
d="M485 691l145 -596h4l146 596h88l-176 -691h-123l-131 514h-4l-130 -514h-120l-179 691h98l145 -596h4l146 596h87zM555 742h-53l-64 84h-5l-63 -84h-53l97 182h44z" />
    <glyph glyph-name="wcircumflex" unicode="&#x175;" horiz-adv-x="652" 
d="M223 0h-94l-124 456h86l83 -365h4l107 365h81l108 -365h4l83 365h86l-124 -456h-94l-102 325h-5zM445 513h-53l-64 84h-5l-63 -84h-53l97 182h44z" />
    <glyph glyph-name="Ycircumflex" unicode="&#x176;" horiz-adv-x="558" 
d="M318 0h-86v247l-227 444h95l176 -349h5l178 349h94l-235 -444v-247zM398 742h-53l-64 84h-5l-63 -84h-53l97 182h44z" />
    <glyph glyph-name="ycircumflex" unicode="&#x177;" horiz-adv-x="424" 
d="M171.5 -209.5q-27.5 -32.5 -81.5 -32.5t-119 30l31 65q43 -23 74 -23q27 0 36 9l13 13q13 13 23 45t16 49.5t9 27.5l-167 482h86l118 -365h4l118 365h86l-186 -537q-33 -96 -60.5 -128.5zM331 513h-53l-64 84h-5l-63 -84h-53l97 182h44z" />
    <glyph glyph-name="Ydieresis" unicode="&#x178;" horiz-adv-x="558" 
d="M318 0h-86v247l-227 444h95l176 -349h5l178 349h94l-235 -444v-247zM189 776q-23 0 -39 16.5t-16 40t16 39.5t39 16t39 -16t16 -39.5t-16 -40t-39 -16.5zM369 776q-23 0 -39 16.5t-16 40t16 39.5t39 16t39 -16t16 -39.5t-16 -40t-39 -16.5z" />
    <glyph glyph-name="Zacute" unicode="&#x179;" horiz-adv-x="605" 
d="M572 76v-76h-524l-18 53l426 562h-372l-19 76h490l20 -60l-418 -555h415zM331 742h-64l127 184l72 -54z" />
    <glyph glyph-name="zacute" unicode="&#x17a;" horiz-adv-x="438" 
d="M397 68v-68h-351l-19 28l263 360h-223l-8 68h327l18 -32l-256 -356h249zM234 513h-64l127 184l72 -54z" />
    <glyph glyph-name="Zdotaccent" unicode="&#x17b;" horiz-adv-x="605" 
d="M572 76v-76h-524l-18 53l426 562h-372l-19 76h490l20 -60l-418 -555h415zM332 776q-23 0 -39 16.5t-16 40t16.5 39.5t38.5 16t38.5 -16t16.5 -39.5t-16 -40t-39 -16.5z" />
    <glyph glyph-name="zdotaccent" unicode="&#x17c;" horiz-adv-x="438" 
d="M397 68v-68h-351l-19 28l263 360h-223l-8 68h327l18 -32l-256 -356h249zM239 547q-23 0 -39 16.5t-16 39.5t16 39.5t39 16.5t39 -16.5t16 -39.5t-16 -39.5t-39 -16.5z" />
    <glyph glyph-name="Zcaron" unicode="&#x17d;" horiz-adv-x="605" 
d="M572 76v-76h-524l-18 53l426 562h-372l-19 76h490l20 -60l-418 -555h415zM326 836l64 84h53l-97 -182h-44l-97 182h53l63 -84h5z" />
    <glyph glyph-name="zcaron" unicode="&#x17e;" horiz-adv-x="438" 
d="M397 68v-68h-351l-19 28l263 360h-223l-8 68h327l18 -32l-256 -356h249zM241 607l64 84h53l-97 -182h-44l-97 182h53l63 -84h5z" />
    <glyph glyph-name="florin" unicode="&#x192;" 
d="M409 265h-138l-39 -322q-9 -73 -48.5 -112.5t-99.5 -39.5q-42 0 -104 30l27 60q42 -18 74 -18q58 0 69 80l39 322h-125v50h131l26 205q9 74 48.5 113.5t91 39.5t112.5 -30l-27 -60q-42 18 -74 18q-58 0 -69 -80l-26 -206h132v-50z" />
    <glyph glyph-name="Aringacute" unicode="&#x1fa;" horiz-adv-x="623" 
d="M518 0l-79 225h-261l-79 -225h-89l250 691h103l250 -691h-95zM414 298l-87 249l-16 56h-4l-16 -56l-87 -249h210zM207 835q0 43 30.5 74t74.5 31q25 0 45 -11l68 98l72 -54l-99 -80q18 -28 18 -64.5t-30 -67t-74 -30.5t-74.5 30.5t-30.5 73.5zM311 781q44 0 44 54.5
t-45.5 54.5t-45.5 -50q0 -25 12 -42t35 -17z" />
    <glyph glyph-name="aringacute" unicode="&#x1fb;" horiz-adv-x="475" 
d="M322 273v44q0 81 -84 81q-66 0 -138 -43l-29 60q84 53 181 53q68 0 111.5 -34.5t43.5 -106.5v-327h-54l-25 60q-32 -33 -76 -52.5t-80 -19.5q-62 0 -99 34t-37 89q0 162 286 162zM130.5 145.5q-6.5 -13.5 -6.5 -35t18.5 -37t48.5 -15.5q63 0 131 56v100q-126 -2 -166 -38
q-19 -17 -25.5 -30.5zM163.5 532.5q-30.5 30.5 -30.5 74t30.5 74t74.5 30.5q25 0 45 -11l68 98l72 -54l-99 -80q18 -28 18 -65t-30 -67t-74 -30t-74.5 30.5zM237 552q44 0 44 54.5t-45.5 54.5t-45.5 -50q0 -25 12 -42t35 -17z" />
    <glyph glyph-name="AEacute" unicode="&#x1fc;" horiz-adv-x="886" 
d="M426 0v231h-208l-129 -231h-89l379 691h453l-19 -76h-301v-228h284v-73h-284v-238h339v-76h-425zM426 304v319l-168 -319h168zM565 742h-64l127 184l72 -54z" />
    <glyph glyph-name="aeacute" unicode="&#x1fd;" horiz-adv-x="754" 
d="M536 58q72 0 144 43l29 -60q-84 -53 -181 -53q-115 0 -167 83q-45 -45 -97 -64t-92 -19q-62 0 -99 34t-37 89q0 162 286 162v44q0 81 -84 81q-66 0 -138 -43l-29 60q84 53 179.5 53t135.5 -60q57 60 148 60q87 0 138 -54q20 -22 34.5 -64t14.5 -99l-31 -35h-283
q3 -158 129 -158zM130.5 145.5q-6.5 -13.5 -6.5 -35t18.5 -37t48.5 -15.5q63 0 131 56v100q-126 -2 -166 -38q-19 -17 -25.5 -30.5zM608 369q-29 34 -76.5 34t-80.5 -33.5t-40 -90.5h226q0 56 -29 90zM397 513h-64l127 184l72 -54z" />
    <glyph glyph-name="Oslashacute" unicode="&#x1fe;" horiz-adv-x="759" 
d="M48 -81l596 841h65l-596 -841h-65zM374 742h-64l127 184l72 -54zM355 -12q-75 0 -134.5 28t-96.5 75q-74 96 -74 230q0 168 97 275t257 107q75 0 134.5 -28t95.5 -75q75 -96 75 -230q0 -168 -97 -275t-257 -107zM400 628q-124 0 -191 -81t-67 -227q0 -107 57.5 -183
t160.5 -76q124 0 190.5 81t66.5 227q0 107 -57 183t-160 76z" />
    <glyph glyph-name="oslashacute" unicode="&#x1ff;" horiz-adv-x="513" 
d="M39 -69l386 589h65l-386 -589h-65zM259 403q-38 0 -65.5 -17t-40.5 -44q-24 -51 -24 -109q0 -180 125 -180q38 0 65 17t41 44q24 50 24 109q0 180 -125 180zM259 468q111 0 162 -69t51 -180q0 -80 -42 -148q-23 -37 -69 -60t-110 -23q-110 0 -160 66t-50 177
q0 65 20.5 110t43.5 69.5t63 41t91 16.5zM251 513h-64l127 184l72 -54z" />
    <glyph glyph-name="uni0218" unicode="&#x218;" horiz-adv-x="512" 
d="M412 605q-70 24 -130 24t-98 -31t-38 -75q0 -63 67 -99l141 -78q118 -66 118 -170q0 -86 -61 -137t-172 -51t-199 40l25 70q82 -36 161.5 -36t117.5 31t38 75q0 63 -67 99l-141 78q-118 66 -118 170q0 86 61 137t164 51q70 0 157 -29zM214 -269l-47 10l41 204l96 10z" />
    <glyph glyph-name="uni0219" unicode="&#x219;" horiz-adv-x="384" 
d="M306 376q-51 22 -96 22q-87 0 -87 -53q0 -46 116 -89q43 -16 79.5 -50t36.5 -82q0 -69 -45 -102.5t-125 -33.5t-156 44l25 62q63 -36 143 -36q34 0 55 14.5t21 39.5t-24 43t-58 32t-68 30.5t-58 46.5t-24 71q0 64 43.5 98.5t110.5 34.5t136 -30zM154 -269l-47 10l41 204
l96 10z" />
    <glyph glyph-name="uni021A" unicode="&#x21a;" horiz-adv-x="492" 
d="M5 615v76h482v-76h-198v-615h-86v615h-198zM210 -269l-47 10l41 204l96 10z" />
    <glyph glyph-name="uni021B" unicode="&#x21b;" horiz-adv-x="339" 
d="M174 393v-274q0 -60 57 -60q33 0 79 19l11 -67q-49 -23 -103 -23t-90 32.5t-36 99.5v273h-63v63h63v90l62 57h20v-147h129v-63h-129zM155 -269l-47 10l41 204l96 10z" />
    <glyph glyph-name="circumflex" unicode="&#x2c6;" horiz-adv-x="325" 
d="M280 513h-53l-64 84h-5l-63 -84h-53l97 182h44z" />
    <glyph glyph-name="caron" unicode="&#x2c7;" horiz-adv-x="325" 
d="M163 607l64 84h53l-97 -182h-44l-97 182h53l63 -84h5z" />
    <glyph glyph-name="uni02C9" unicode="&#x2c9;" horiz-adv-x="360" 
d="M320 635v-67h-280v67h280z" />
    <glyph glyph-name="breve" unicode="&#x2d8;" horiz-adv-x="325" 
d="M256.5 567.5q-38.5 -37.5 -93 -37.5t-93.5 37.5t-43 89.5h71q10 -61 65 -61t65 61h70q-3 -52 -41.5 -89.5z" />
    <glyph glyph-name="dotaccent" unicode="&#x2d9;" horiz-adv-x="259" 
d="M129 547q-23 0 -39 16.5t-16 39.5t16 39.5t39 16.5t39 -16.5t16 -39.5t-16 -39.5t-39 -16.5z" />
    <glyph glyph-name="ring" unicode="&#x2da;" horiz-adv-x="325" 
d="M161 552q44 0 44 54.5t-45.5 54.5t-45.5 -50q0 -25 12 -42t35 -17zM87.5 532.5q-30.5 30.5 -30.5 74t30.5 74t74 30.5t74 -30.5t30.5 -74.5t-30 -74t-74 -30t-74.5 30.5z" />
    <glyph glyph-name="ogonek" unicode="&#x2db;" horiz-adv-x="459" 
d="M204 -109q0 -28 15.5 -42t45.5 -14t60 22l26 -44q-62 -43 -109 -43t-72.5 27.5t-25.5 69.5q0 74 82 133h54q-76 -53 -76 -109z" />
    <glyph glyph-name="tilde" unicode="&#x2dc;" horiz-adv-x="361" 
d="M246 551q-25 0 -73 16t-67 16q-34 0 -49 -37l-39 17q31 93 97 93q25 0 73 -16t67 -16q34 0 49 37l39 -17q-31 -93 -97 -93z" />
    <glyph glyph-name="hungarumlaut" unicode="&#x2dd;" horiz-adv-x="454" 
d="M136 513h-64l127 184l72 -54zM305 513h-64l127 184l72 -54z" />
    <glyph glyph-name="uni0394" unicode="&#x394;" horiz-adv-x="615" 
d="M321 691h11l283 -691h-615zM488 50l-198 478l-223 -478h421z" />
    <glyph glyph-name="uni03A9" unicode="&#x3a9;" horiz-adv-x="816" 
d="M581 70h171v-70h-230v131q64 34 99 100t35 142q0 106 -72.5 180.5t-175.5 74.5t-175.5 -74.5t-72.5 -180.5q0 -76 35 -142t99 -100v-131h-230v70h171v17q-77 46 -122 121t-45 164q0 137 99.5 234t240.5 97t240.5 -97t99.5 -234q0 -89 -45 -164t-122 -121v-17z" />
    <glyph glyph-name="uni03BC" unicode="&#x3bc;" horiz-adv-x="530" 
d="M68 456h85v-339q0 -28 20.5 -43.5t53.5 -15.5q71 0 146 56v342h85v-456h-54l-25 60q-77 -72 -171 -72q-28 0 -55 8v-226l-85 -10v696z" />
    <glyph glyph-name="pi" unicode="&#x3c0;" horiz-adv-x="539" 
d="M195 0h-79v386h-70v70h442v-71h-70v-305q0 -18 6.5 -23.5t17.5 -5.5q35 0 60 43l29 -18q-24 -44 -57.5 -66t-65.5 -22q-69 0 -69 90v308h-144v-386z" />
    <glyph glyph-name="Wgrave" unicode="&#x1e80;" horiz-adv-x="873" 
d="M485 691l145 -596h4l146 596h88l-176 -691h-123l-131 514h-4l-130 -514h-120l-179 691h98l145 -596h4l146 596h87zM497 742h-64l-135 130l72 54z" />
    <glyph glyph-name="wgrave" unicode="&#x1e81;" horiz-adv-x="652" 
d="M223 0h-94l-124 456h86l83 -365h4l107 365h81l108 -365h4l83 365h86l-124 -456h-94l-102 325h-5zM385 513h-64l-135 130l72 54z" />
    <glyph glyph-name="Wacute" unicode="&#x1e82;" horiz-adv-x="873" 
d="M485 691l145 -596h4l146 596h88l-176 -691h-123l-131 514h-4l-130 -514h-120l-179 691h98l145 -596h4l146 596h87zM451 742h-64l127 184l72 -54z" />
    <glyph glyph-name="wacute" unicode="&#x1e83;" horiz-adv-x="652" 
d="M223 0h-94l-124 456h86l83 -365h4l107 365h81l108 -365h4l83 365h86l-124 -456h-94l-102 325h-5zM332 513h-64l127 184l72 -54z" />
    <glyph glyph-name="Wdieresis" unicode="&#x1e84;" horiz-adv-x="873" 
d="M485 691l145 -596h4l146 596h88l-176 -691h-123l-131 514h-4l-130 -514h-120l-179 691h98l145 -596h4l146 596h87zM346 776q-23 0 -39 16.5t-16 40t16.5 39.5t38.5 16t38.5 -16t16.5 -39.5t-16 -40t-39 -16.5zM526 776q-23 0 -39 16.5t-16 40t16.5 39.5t38.5 16t38.5 -16
t16.5 -39.5t-16 -40t-39 -16.5z" />
    <glyph glyph-name="wdieresis" unicode="&#x1e85;" horiz-adv-x="652" 
d="M223 0h-94l-124 456h86l83 -365h4l107 365h81l108 -365h4l83 365h86l-124 -456h-94l-102 325h-5zM236 547q-23 0 -39 16.5t-16 39.5t16.5 39.5t38.5 16.5t38.5 -16.5t16.5 -39.5t-16 -39.5t-39 -16.5zM416 547q-23 0 -39 16.5t-16 39.5t16.5 39.5t38.5 16.5t38.5 -16.5
t16.5 -39.5t-16 -39.5t-39 -16.5z" />
    <glyph glyph-name="Ygrave" unicode="&#x1ef2;" horiz-adv-x="558" 
d="M318 0h-86v247l-227 444h95l176 -349h5l178 349h94l-235 -444v-247zM332 742h-64l-135 130l72 54z" />
    <glyph glyph-name="ygrave" unicode="&#x1ef3;" horiz-adv-x="424" 
d="M171.5 -209.5q-27.5 -32.5 -81.5 -32.5t-119 30l31 65q43 -23 74 -23q27 0 36 9l13 13q13 13 23 45t16 49.5t9 27.5l-167 482h86l118 -365h4l118 365h86l-186 -537q-33 -96 -60.5 -128.5zM291 513h-64l-135 130l72 54z" />
    <glyph glyph-name="endash" unicode="&#x2013;" horiz-adv-x="560" 
d="M-7 294h574v-64h-574v64z" />
    <glyph glyph-name="emdash" unicode="&#x2014;" horiz-adv-x="838" 
d="M-7 294h852v-64h-852v64z" />
    <glyph glyph-name="quoteleft" unicode="&#x2018;" horiz-adv-x="207" 
d="M125 671l47 -10l-41 -204l-96 -10z" />
    <glyph glyph-name="quoteright" unicode="&#x2019;" horiz-adv-x="207" 
d="M82 447l-47 10l41 204l96 10z" />
    <glyph glyph-name="quotesinglbase" unicode="&#x201a;" horiz-adv-x="207" 
d="M82 -126l-47 10l41 204l96 10z" />
    <glyph glyph-name="quotedblleft" unicode="&#x201c;" horiz-adv-x="344" 
d="M262 671l47 -10l-41 -204l-96 -10zM125 671l47 -10l-41 -204l-96 -10z" />
    <glyph glyph-name="quotedblright" unicode="&#x201d;" horiz-adv-x="344" 
d="M82 447l-47 10l41 204l96 10zM219 447l-47 10l41 204l96 10z" />
    <glyph glyph-name="quotedblbase" unicode="&#x201e;" horiz-adv-x="344" 
d="M82 -127l-47 10l41 204l96 10zM219 -127l-47 10l41 204l96 10z" />
    <glyph glyph-name="dagger" unicode="&#x2020;" horiz-adv-x="418" 
d="M164 673h90l-20 -164h-50zM254 0h-90l20 445h50zM15 432v90l160 -20v-50zM403 432l-160 20v50l160 20v-90z" />
    <glyph glyph-name="daggerdbl" unicode="&#x2021;" horiz-adv-x="418" 
d="M164 235l20 210h50l20 -211l-20 -210h-50zM164 673h90l-20 -164h-50zM254 -204h-90l20 164h50zM403 37v-90l-160 20v50zM403 522v-90l-160 20v50zM15 432v90l160 -20v-50zM15 -53v90l160 -20v-50z" />
    <glyph glyph-name="bullet" unicode="&#x2022;" horiz-adv-x="398" 
d="M70 356q0 53 38 91t91 38t91 -38t38 -91t-38 -91t-91 -38t-91 38t-38 91z" />
    <glyph glyph-name="ellipsis" unicode="&#x2026;" horiz-adv-x="585" 
d="M292 -9q-22 0 -37 15.5t-15 38.5t15 38t37 15t37.5 -15t15.5 -38t-15.5 -38.5t-37.5 -15.5zM502 -9q-22 0 -37 15.5t-15 38.5t15 38t37 15t37.5 -15t15.5 -38t-15.5 -38.5t-37.5 -15.5zM82 -9q-22 0 -37 15.5t-15 38.5t15 38t37 15t37.5 -15t15.5 -38t-15.5 -38.5
t-37.5 -15.5z" />
    <glyph glyph-name="perthousand" unicode="&#x2030;" horiz-adv-x="1159" 
d="M250 -10l247 685h48l-247 -685h-48zM341 455q0 -102 -41.5 -160.5t-110 -58.5t-110 58.5t-41.5 160.5t41.5 159.5t110 57.5t110 -57.5t41.5 -159.5zM266 455q0 76 -20 116.5t-56.5 40.5t-56.5 -41t-20 -116.5t20 -116t56.5 -40.5t56.5 40.5t20 116.5zM756 211
q0 -102 -41.5 -160.5t-110 -58.5t-110 58.5t-41.5 160.5t41.5 159.5t110 57.5t110 -57.5t41.5 -159.5zM681 211q0 76 -20 116.5t-56.5 40.5t-56.5 -41t-20 -116.5t20 -116t56.5 -40.5t56.5 40.5t20 116.5zM1116 211q0 -102 -41.5 -160.5t-110 -58.5t-110 58.5t-41.5 160.5
t41.5 159.5t110 57.5t110 -57.5t41.5 -159.5zM1041 211q0 76 -20 116.5t-56.5 40.5t-56.5 -41t-20 -116.5t20 -116t56.5 -40.5t56.5 40.5t20 116.5z" />
    <glyph glyph-name="guilsinglleft" unicode="&#x2039;" horiz-adv-x="293" 
d="M243 44h-76l-118 183l118 183h76l-112 -183z" />
    <glyph glyph-name="guilsinglright" unicode="&#x203a;" horiz-adv-x="293" 
d="M125 44h-76l112 183l-112 183h76l118 -183z" />
    <glyph glyph-name="fraction" unicode="&#x2044;" horiz-adv-x="295" 
d="M0 -10l247 685h48l-247 -685h-48z" />
    <glyph glyph-name="zeroinferior" unicode="&#x2080;" horiz-adv-x="388" 
d="M345 211q0 -102 -41.5 -160.5t-110 -58.5t-110 58.5t-41.5 160.5t41.5 159.5t110 57.5t110 -57.5t41.5 -159.5zM270 211q0 76 -20 116.5t-56.5 40.5t-56.5 -41t-20 -116.5t20 -116t56.5 -40.5t56.5 40.5t20 116.5z" />
    <glyph glyph-name="oneinferior" unicode="&#x2081;" horiz-adv-x="251" 
d="M198 423v-423h-70v345l-89 -43l-25 56l136 65h48z" />
    <glyph glyph-name="twoinferior" unicode="&#x2082;" horiz-adv-x="371" 
d="M327 0h-269l-13 43l88 90q111 113 111 167q0 65 -62 65q-44 0 -104 -30l-28 54q65 39 129.5 39t102.5 -31.5t38 -88.5q0 -94 -146 -225l-24 -22l177 3v-64z" />
    <glyph glyph-name="threeinferior" unicode="&#x2083;" horiz-adv-x="350" 
d="M169 365q-38 0 -92 -30l-26 54q68 39 125.5 39t90 -32t32.5 -70q0 -78 -63 -106q71 -30 71 -103q0 -50 -38 -87.5t-102 -37.5t-127 30l24 53q47 -22 86 -22t60 20.5t21 48.5t-20 47.5t-59 19.5h-63v58h58q36 0 56 19t20 46q0 53 -54 53z" />
    <glyph glyph-name="fourinferior" unicode="&#x2084;" horiz-adv-x="355" 
d="M275 0h-71v90h-175l-12 42l203 291h55v-270h41v-63h-41v-90zM204 153v147l-101 -147h101z" />
    <glyph glyph-name="fiveinferior" unicode="&#x2085;" horiz-adv-x="347" 
d="M139 357v-98h13q73 0 113.5 -40t40.5 -93t-39 -93.5t-108.5 -40.5t-117.5 30l23 52q47 -21 84.5 -21t60 23t22.5 53t-22.5 50.5t-67.5 20.5h-73v221h227l-16 -64h-140z" />
    <glyph glyph-name="sixinferior" unicode="&#x2086;" horiz-adv-x="374" 
d="M298 347q-39 18 -79.5 18t-67 -31.5t-33.5 -91.5q41 16 90 16t86 -32t37 -93t-40 -101t-103 -40t-105 48.5t-42 152.5t47 169.5t129 65.5q48 0 104 -23zM236.5 72.5q20.5 20.5 20.5 54.5t-18 53t-50.5 19t-71.5 -22q2 -58 20 -91.5t48.5 -33.5t51 20.5z" />
    <glyph glyph-name="seveninferior" unicode="&#x2087;" horiz-adv-x="299" 
d="M295 421v-30l-166 -391h-79l157 357l-173 -4l-16 68h277z" />
    <glyph glyph-name="eightinferior" unicode="&#x2088;" horiz-adv-x="374" 
d="M129 318q0 -22 15.5 -36.5t54.5 -32.5q46 32 46 71q0 48 -58 48q-28 0 -43 -14t-15 -36zM257 109q0 27 -18 43.5t-64 38.5q-58 -30 -58 -79q0 -29 19.5 -45.5t51 -16.5t50.5 16t19 43zM79.5 26.5q-38.5 34.5 -38.5 90.5t72 104q-57 33 -57 94q0 49 36.5 81t95.5 32
t94.5 -31t35.5 -82.5t-62 -93.5q41 -21 58.5 -44.5t17.5 -70.5t-40.5 -80.5t-107 -33.5t-105 34.5z" />
    <glyph glyph-name="nineinferior" unicode="&#x2089;" horiz-adv-x="375" 
d="M136.5 234.5q17.5 -19.5 50.5 -19.5t71 22q-2 59 -20.5 95t-48.5 36t-49.5 -21.5t-20 -57t17 -55zM292 379.5q41 -48.5 41 -152.5t-48 -169.5t-130 -65.5q-62 0 -111 25l23 58q42 -19 82.5 -19t70.5 28.5t36 87.5q-48 -16 -93 -16t-82.5 32.5t-37.5 95t41 103.5t104 41
t104 -48.5z" />
    <glyph glyph-name="franc" unicode="&#x20a3;" horiz-adv-x="494" 
d="M75 0v691h389l-19 -76h-284v-228h267v-73h-267v-314h-86zM382 130h-382v54h382v-54z" />
    <glyph glyph-name="lira" unicode="&#x20a4;" 
d="M24 194v50h96q1 14 1 36t-2 56h-95v50h91q-7 89 -7 107q0 84 49.5 131.5t145.5 47.5q67 0 150 -27l-25 -66q-69 23 -124.5 23t-82.5 -28.5t-27 -73.5q0 -16 7 -114h208v-50h-204q2 -18 2 -42t-2 -50h204v-50h-211q-15 -68 -45 -124l321 6l-10 -76h-418l-18 53
q70 34 87 141h-91z" />
    <glyph glyph-name="Euro" unicode="&#x20ac;" 
d="M172 336q0 -65 4 -92h211l-10 -50h-189q19 -63 58.5 -99t93.5 -36q84 0 157 49l11 -73q-93 -47 -182 -47t-149.5 57t-85.5 149h-81l10 50h61q-4 28 -4 55t1 37h-68l10 50h62q19 129 95 208t187 79q62 0 129 -27l-21 -67q-53 21 -104 21q-79 0 -128 -56t-63 -158h210
l-10 -50h-205z" />
    <glyph glyph-name="uni2113" unicode="&#x2113;" horiz-adv-x="218" 
d="M150 718v-599q0 -60 57 -60q33 0 79 19l11 -67q-49 -23 -103 -23t-90 32.5t-36 99.5v598h82z" />
    <glyph glyph-name="trademark" unicode="&#x2122;" horiz-adv-x="758" 
d="M374 570q0 -118 -6 -250h-55l13 338h72l98 -281l96 281h73l13 -338h-59l-10 250h-4l-83 -250h-58l-86 250h-4zM50 609v50h241v-50h-93v-289h-55v289h-93z" />
    <glyph glyph-name="Omega" unicode="&#x2126;" horiz-adv-x="816" 
d="M581 70h171v-70h-230v131q64 34 99 100t35 142q0 106 -72.5 180.5t-175.5 74.5t-175.5 -74.5t-72.5 -180.5q0 -76 35 -142t99 -100v-131h-230v70h171v17q-77 46 -122 121t-45 164q0 137 99.5 234t240.5 97t240.5 -97t99.5 -234q0 -89 -45 -164t-122 -121v-17z" />
    <glyph glyph-name="estimated" unicode="&#x212e;" horiz-adv-x="600" 
d="M157 259v-181q62 -59 145 -59q124 0 193 120l35 -21q-55 -74 -103.5 -104.5t-124.5 -30.5q-119 0 -188.5 79t-69.5 200t69.5 197t190 76t186 -76.5t71.5 -199.5h-404zM157 295h291v145q-63 60 -147.5 60t-143.5 -60v-145z" />
    <glyph glyph-name="partialdiff" unicode="&#x2202;" horiz-adv-x="498" 
d="M468 293q0 -60 -19.5 -118t-45.5 -95t-77.5 -64.5t-120.5 -27.5q-167 0 -167 169q0 31 10.5 84t29 88t45.5 67.5t72.5 52t96 19.5t82.5 -21q-22 86 -62.5 141t-85.5 55t-83 -62l-47 29q37 66 81 84q22 9 48 9q105 0 174 -111.5t69 -298.5zM287 403q-43 0 -75.5 -22.5
t-48.5 -51.5t-25 -67q-14 -53 -14 -94q0 -115 96 -115q43 0 75 22t47.5 51t25.5 66q14 52 14 95q0 116 -95 116z" />
    <glyph glyph-name="Delta" unicode="&#x2206;" horiz-adv-x="615" 
d="M321 691h11l283 -691h-615zM488 50l-198 478l-223 -478h421z" />
    <glyph glyph-name="product" unicode="&#x220f;" horiz-adv-x="695" 
d="M534 -200v818h-373v-818h-86v891h545v-891h-86z" />
    <glyph glyph-name="summation" unicode="&#x2211;" horiz-adv-x="654" 
d="M625 -127v-73h-595v34l295 400l-279 427v30h545v-73h-410l230 -351l-287 -394h501z" />
    <glyph glyph-name="minus" unicode="&#x2212;" 
d="M24 273v61h475v-61h-475z" />
    <glyph glyph-name="uni2215" unicode="&#x2215;" horiz-adv-x="295" 
d="M0 -10l247 685h48l-247 -685h-48z" />
    <glyph glyph-name="radical" unicode="&#x221a;" horiz-adv-x="574" 
d="M579 691h-130l-187 -691h-29l-139 411l-85 -18l-9 37l162 35l93 -292h5l146 557h173v-39z" />
    <glyph glyph-name="infinity" unicode="&#x221e;" horiz-adv-x="674" 
d="M502 136q-48 0 -85.5 29.5t-76.5 83.5q-36 -53 -74.5 -83t-102 -30t-103.5 41.5t-40 123.5t40 123.5t103 41.5t101.5 -28t73.5 -78q36 50 73.5 78t90.5 28q72 0 112 -41.5t40 -123t-40.5 -123.5t-111.5 -42zM170 198q40 0 70.5 28t61.5 78q-67 100 -133 100
q-81 0 -81 -103t82 -103zM504 404q-66 0 -128 -101q31 -50 61 -77.5t68 -27.5q81 0 81 103t-82 103z" />
    <glyph glyph-name="integral" unicode="&#x222b;" horiz-adv-x="282" 
d="M181 551v-610q0 -74 -35 -113.5t-91.5 -39.5t-120.5 30l29 60q44 -18 76 -18q60 0 60 80v610q0 74 35 113.5t91.5 39.5t120.5 -30l-29 -60q-44 18 -76 18q-60 0 -60 -80z" />
    <glyph glyph-name="approxequal" unicode="&#x2248;" 
d="M499 354q-71 28 -120.5 28t-118 -27.5t-118.5 -27.5t-118 27v61q68 -27 118 -27t118.5 27.5t118 27.5t120.5 -28v-61zM499 192q-71 28 -120.5 28t-118 -27.5t-118.5 -27.5t-118 27v61q68 -27 118 -27t118.5 27.5t118 27.5t120.5 -28v-61z" />
    <glyph glyph-name="notequal" unicode="&#x2260;" 
d="M24 192v61h170l58 101h-228v61h263l127 223h65l-127 -223h147v-61h-182l-58 -101h240v-61h-275l-114 -201h-65l114 201h-135z" />
    <glyph glyph-name="lessequal" unicode="&#x2264;" 
d="M487 56l-450 247l450 247v-69l-336 -178l336 -178v-69zM34 -60v61h453v-61h-453z" />
    <glyph glyph-name="greaterequal" unicode="&#x2265;" 
d="M485 303l-450 -247v69l336 178l-336 178v69zM488 1v-61h-453v61h453z" />
    <glyph glyph-name="lozenge" unicode="&#x25ca;" horiz-adv-x="450" 
d="M248 0h-47l-161 345l161 346h47l162 -346zM345 345l-120 286l-119 -286l119 -285z" />
    <glyph glyph-name="commaaccent" unicode="&#xf6c3;" horiz-adv-x="300" 
d="M127 -269l-47 10l41 204l96 10z" />
    <glyph glyph-name="apple" unicode="&#xf8ff;" horiz-adv-x="923" 
d="M589 -89l-23 1q-14 0 -31.5 -12t-26.5 -12l-46 10q-8 0 -23.5 -6t-24 -6t-24.5 12.5t-29 12.5l-24 -2q-15 0 -33 17l-18 19q-12 6 -25 7t-22 6.5t-16 23t-12.5 22t-19.5 10t-20 14.5q-5 9 -7 23.5t-6 21t-14 13.5q-22 18 -22 38l3 25q0 9 -12.5 26.5t-12.5 26.5t6 23.5
t6 23t-6 21.5t-6 22t12.5 29.5t12.5 29.5l-1 25q0 15 16.5 29.5t19 19.5t4.5 21t6 22t19.5 12t20.5 11t12 20.5t13.5 21t25.5 9.5t24.5 7t20.5 20t29 18l26 -2q13 0 28.5 11.5t26.5 11.5l44 -12l45 12q13 0 29 -12.5t28 -12.5l28 3q16 0 29 -16.5t19.5 -20t21.5 -6.5
t22.5 -8t12.5 -19t10.5 -19t25.5 -15.5t24.5 -18.5t5 -24t3 -20.5t19.5 -19t17 -30.5l-1 -25q0 -13 12 -31.5t12 -27.5t-5.5 -22t-5.5 -20t5.5 -21.5t5 -22.5t-12.5 -20.5t-12 -26.5l2 -32q0 -16 -16 -29t-18.5 -18t-7 -24t-10 -25.5t-18 -12t-17.5 -10.5t-14 -21.5
t-16 -21.5t-24.5 -9.5t-22.5 -7.5t-18.5 -16.5t-28.5 -13.5zM462 -6l33 -7q6 0 17 7q15 10 27 10l15 -1q12 0 21 10t12.5 12t16.5 5.5t18.5 7.5t12 15.5t10 15t12.5 7.5t13 8.5t7 18.5t5.5 18t13.5 13t11 23l-1 20q0 11 8.5 20.5t9.5 15.5l-8 32l8 28q0 8 -9 22t-9 23l1 17
q0 12 -12 22t-14 14t-2.5 15.5t-3.5 17t-17.5 13t-18.5 11.5t-8 14t-9 14t-16 6t-16 4.5t-14 14.5t-21 12l-20 -2q-9 0 -20 9t-21 9l-33 -9l-32 9q-8 0 -20 -8.5t-22 -8.5l-17 1q-11 0 -21.5 -12.5t-15 -15t-17.5 -5t-18 -6.5t-10 -15t-9 -15t-14.5 -8t-14.5 -9
q-2 -4 -4 -15.5t-4 -15.5t-14 -14.5t-12 -21.5l1 -16q0 -8 -8.5 -23t-8.5 -23l8 -30l-8 -33q0 -8 8.5 -20.5t8.5 -20.5l-2 -16q0 -11 12.5 -22.5t14.5 -15.5t3.5 -14.5t5.5 -17t14 -10.5t14 -7.5t9.5 -16.5t11.5 -17t15.5 -4t15.5 -3t17.5 -15.5t22.5 -12.5l15 1
q10 0 22 -8.5t18 -9.5zM462 417q70 0 120 -49.5t50 -120.5t-50 -120.5t-120 -49.5t-120 49.5t-50 120.5t50 120.5t120 49.5zM505 292h52v68h-191v-68h54v-175h85v175z" />
    </font>
</defs>
</svg>
