<?xml version="1.0" standalone="no"?>
<!DOCTYPE svg PUBLIC "-//W3C//DTD SVG 1.1//EN" "http://www.w3.org/Graphics/SVG/1.1/DTD/svg11.dtd" >
<svg xmlns="http://www.w3.org/2000/svg" xmlns:xlink="http://www.w3.org/1999/xlink" version="1.1">
<metadata>
Created by FontForge 20170924 at Tue May  1 14:24:52 2012
 By Glenn,,,
Copyright 2002, 2003, 2005, 2008, 2009, 2010, 2012 GNU Freefont contributors.
</metadata>
<defs>
<font id="FreeSansOblique" horiz-adv-x="0" >
  <font-face 
    font-family="FreeSans"
    font-weight="400"
    font-style="oblique"
    font-stretch="normal"
    units-per-em="1000"
    panose-1="2 11 5 4 2 2 2 9 2 4"
    ascent="800"
    descent="-200"
    x-height="524"
    cap-height="729"
    bbox="-1166 -431 1572 1072"
    underline-thickness="50"
    underline-position="-201"
    slope="-12"
    unicode-range="U+0020-FFFD"
  />
<missing-glyph horiz-adv-x="800" 
d="M529 701q51 0 89 -15t56.5 -39.5t27 -48.5t8.5 -48q0 -52 -22 -93.5t-55 -69.5t-67 -53t-64 -57.5t-41 -70.5l-10 -47h-90l12 55q9 41 37.5 76t62 60.5t66 52t54 60.5t21.5 75q0 38 -30 62t-77 24q-66 0 -103.5 -37.5t-54.5 -119.5h-85q47 234 265 234zM431 63l-22 -103
h-90l22 103h90zM-15 -139l200 939h730l-200 -939h-730zM83 -69h564l170 799h-564z" />
    <glyph glyph-name="IJ" unicode="IJ" horiz-adv-x="742" 
d="M444 -23q-47 0 -82 15t-52 39t-24.5 46.5t-7.5 44.5q0 21 20 112h94q-18 -85 -18 -100q0 -34 25 -55t65 -21q33 0 59 14.5t40 30.5t25.5 44.5t14 38.5t6.5 30l109 513h94l-116 -547q-21 -98 -87 -151.5t-165 -53.5zM349 729l-155 -729h-94l155 729h94z" />
    <glyph glyph-name="ij" unicode="ij" horiz-adv-x="387" 
d="M365 524h84l-134 -633q-14 -62 -52 -85.5t-124 -23.5q-8 0 -19 3l15 71q18 -2 25 -2q38 0 53.5 14t24.5 56zM493 729l-22 -103h-84l22 103h84zM261 524l-111 -524h-84l111 524h84zM305 729l-22 -103h-84l22 103h84z" />
    <glyph glyph-name="Ldot" unicode="L&#xb7;" horiz-adv-x="556" 
d="M568 422l-22 -103h-105l22 103h105zM329 729l-138 -647h360l-17 -82h-454l155 729h94z" />
    <glyph glyph-name="ldot" unicode="l&#xb7;" horiz-adv-x="359" 
d="M424 422l-22 -103h-105l22 103h105zM307 729l-155 -729h-84l155 729h84z" />
    <glyph glyph-name="ff" unicode="ff" horiz-adv-x="494" 
d="M586 524l-14 -68h-87l-97 -456h-83l97 456h-134l-97 -456h-83l97 456h-70l14 68h70l19 89q12 56 51.5 87.5t97.5 31.5q23 0 46 -5l-15 -69q-19 1 -29 1q-58 0 -69 -53l-18 -82h134l19 89q12 56 51.5 87.5t97.5 31.5q23 0 46 -5l-15 -69q-19 1 -29 1q-58 0 -69 -53
l-18 -82h87z" />
    <glyph glyph-name="fi" unicode="fi" horiz-adv-x="471" 
d="M505 524l-111 -524h-83l97 456h-140l-97 -456h-83l97 456h-70l14 68h70l19 89q12 56 51.5 87.5t97.5 31.5h179l-22 -102h-69q-1 8 -36.5 18.5t-49.5 10.5q-58 0 -69 -53l-18 -82h223z" />
    <glyph glyph-name="fl" unicode="fl" horiz-adv-x="474" 
d="M550 729l-155 -729h-83l97 456h-141l-97 -456h-83l97 456h-70l14 68h70l19 89q12 56 51.5 87.5t97.5 31.5q77 0 100 -5v2h83zM452 658q-19 1 -83 1q-58 0 -69 -53l-18 -82h141z" />
    <glyph glyph-name="ffi" unicode="ffi" horiz-adv-x="659" 
d="M735 729l-22 -105h-83l7 34q-22 1 -64 1q-58 0 -69 -53l-18 -82h205l-111 -524h-83l97 456h-122l-97 -456h-83l97 456h-121l-97 -456h-83l97 456h-70l14 68h70l19 89q12 56 51.5 87.5t97.5 31.5q23 0 46 -5l-15 -69q-19 1 -29 1q-58 0 -69 -53l-18 -82h121l19 89
q12 56 51.5 87.5t97.5 31.5q10 0 49 -1.5t40 -1.5h75z" />
    <glyph glyph-name="ffl" unicode="ffl" horiz-adv-x="654" 
d="M730 729l-155 -729h-83l97 456h-117l-97 -456h-83l97 456h-121l-97 -456h-83l97 456h-70l14 68h70l19 89q12 56 51.5 87.5t97.5 31.5q23 0 46 -5l-15 -69q-19 1 -29 1q-58 0 -69 -53l-18 -82h121l19 89q12 56 51.5 87.5t97.5 31.5q5 0 27.5 -1.5t48.5 -1.5h83zM603 524
l29 134q-41 1 -59 1q-58 0 -69 -53l-18 -82h117z" />
    <glyph glyph-name="cyrillic_ukrainian_yi_yi_lig" unicode="&#x457;&#x457;" horiz-adv-x="533" 
d="M271 524l-111 -524h-84l111 524h84zM556 524l-111 -524h-84l111 524h84zM255 708l-22 -103h-104l22 103h104zM683 708l-22 -103h-104l22 103h104zM394 708l-22 -103h-104l22 103h104zM545 708l-22 -103h-104l22 103h104z" />
    <glyph glyph-name="dapostrophe" unicode="d&#x315;" horiz-adv-x="724" 
d="M433 76q-23 -45 -77.5 -72t-108.5 -27q-78 0 -124.5 52.5t-46.5 140.5q0 158 83 263.5t207 105.5q53 0 86 -21t57 -70l60 281h84l-155 -729h-81zM281 54q44 0 80 22.5t56.5 55t34.5 72t19 70.5t5 53q0 64 -31 99.5t-87 35.5q-46 0 -82 -23.5t-56.5 -56.5t-33.5 -73
t-17.5 -69.5t-4.5 -49.5q0 -65 31 -100.5t86 -35.5zM716 708h105l-25 -120q-28 -131 -133 -131l8 38q36 1 52.5 20t27.5 71l3 18h-60z" />
    <glyph glyph-name="lapostrophe" unicode="l&#x315;" horiz-adv-x="379" 
d="M307 729l-155 -729h-84l155 729h84zM371 708h105l-25 -120q-28 -131 -133 -131l8 38q36 1 52.5 20t27.5 71l3 18h-60z" />
    <glyph glyph-name="tapostrophe" unicode="t&#x315;" horiz-adv-x="445" 
d="M356 524l-14 -67h-89l-78 -367q-2 -12 -2 -14q0 -12 10 -19.5t26 -7.5q13 0 48 8l-16 -73q-25 -7 -65 -7q-41 0 -65 21t-24 58q0 16 3 31l79 370h-71l14 67h71l31 144h84l-31 -144h89zM437 708h105l-25 -120q-28 -131 -133 -131l8 38q36 1 52.5 20t27.5 71l3 18h-60z" />
    <glyph glyph-name=".notdef" horiz-adv-x="800" 
d="M529 701q51 0 89 -15t56.5 -39.5t27 -48.5t8.5 -48q0 -52 -22 -93.5t-55 -69.5t-67 -53t-64 -57.5t-41 -70.5l-10 -47h-90l12 55q9 41 37.5 76t62 60.5t66 52t54 60.5t21.5 75q0 38 -30 62t-77 24q-66 0 -103.5 -37.5t-54.5 -119.5h-85q47 234 265 234zM431 63l-22 -103
h-90l22 103h90zM-15 -139l200 939h730l-200 -939h-730zM83 -69h564l170 799h-564z" />
    <glyph glyph-name=".null" 
 />
    <glyph glyph-name="nonmarkingreturn" horiz-adv-x="500" 
 />
    <glyph glyph-name="space" unicode=" " horiz-adv-x="278" 
 />
    <glyph glyph-name="exclam" unicode="!" horiz-adv-x="278" 
d="M363 729l-74 -350l-67 -211h-40l23 211l74 350h84zM230 103l-22 -103h-84l22 103h84z" />
    <glyph glyph-name="quotedbl" unicode="&#x22;" horiz-adv-x="355" 
d="M361 709h94l-24 -111l-55 -134h-40l1 134zM202 709h94l-24 -111l-55 -134h-40l1 134z" />
    <glyph glyph-name="numbersign" unicode="#" horiz-adv-x="556" 
d="M632 697l-77 -194h94l-14 -64h-105l-73 -184h107l-14 -64h-118l-83 -211h-76l83 211h-125l-83 -211h-76l83 211h-101l14 64h112l73 184h-109l13 64h121l77 194h76l-76 -194h124l77 194h76zM454 439h-124l-74 -184h125z" />
    <glyph glyph-name="dollar" unicode="$" horiz-adv-x="556" 
d="M311 318q-87 30 -123 59.5t-36 91.5q0 20 3.5 43.5t18.5 59.5t39.5 64.5t72 51.5t110.5 28l11 54h59l-11 -54q75 -4 116.5 -43.5t41.5 -107.5q0 -22 -6 -46h-79q2 19 2 36q0 39 -24.5 64t-65.5 27l-53 -249q97 -30 137.5 -60t40.5 -94q0 -113 -72.5 -187.5t-194.5 -78.5
l-22 -103h-59l22 103q-88 14 -129 51.5t-41 105.5q0 29 8 74h79q-4 -44 -4 -58q0 -41 23 -64.5t78 -39.5zM381 645q-43 -3 -74 -21.5t-45.5 -43t-20.5 -44.5t-6 -35q0 -37 21.5 -58.5t73.5 -37.5zM368 309l-56 -263q79 6 122 49t43 116q0 36 -24.5 58t-84.5 40z" />
    <glyph glyph-name="percent" unicode="%" horiz-adv-x="889" 
d="M759 709h66l-550 -729h-66zM345 682q58 0 98 -37.5t40 -92.5q0 -81 -64.5 -143.5t-148.5 -62.5q-59 0 -97.5 37.5t-38.5 94.5q0 79 65 141.5t146 62.5zM329 616q-48 0 -86.5 -37.5t-38.5 -84.5q0 -35 23.5 -58.5t58.5 -23.5q49 0 88 37.5t39 84.5q0 37 -23 59.5t-61 22.5
zM757 320q58 0 98 -37.5t40 -92.5q0 -81 -64.5 -143.5t-148.5 -62.5q-59 0 -97.5 37.5t-38.5 94.5q0 79 65 141.5t146 62.5zM741 254q-48 0 -86.5 -37.5t-38.5 -84.5q0 -35 23.5 -58.5t58.5 -23.5q49 0 88 37.5t39 84.5q0 37 -23 59.5t-61 22.5z" />
    <glyph glyph-name="ampersand" unicode="&#x26;" horiz-adv-x="667" 
d="M83 128q0 42 14 79.5t34 63t48 48.5t50 36.5t46 27.5q9 5 13 7q-6 16 -18.5 45t-17.5 47t-5 41q0 73 63 129.5t145 56.5q61 0 97 -33t36 -89q0 -65 -44 -116t-137 -93l98 -163q43 50 60 119h79q-20 -99 -100 -183l90 -151h-106l-46 78q-68 -56 -118.5 -78.5t-110.5 -22.5
q-79 0 -124.5 40.5t-45.5 110.5zM377 434q69 35 98.5 67t29.5 73q0 30 -18.5 47.5t-50.5 17.5q-44 0 -75 -31t-31 -75q0 -21 8 -38.5t39 -60.5zM448 137l-119 199q-84 -45 -121 -86.5t-37 -90.5t29.5 -77t79.5 -28q69 0 168 83z" />
    <glyph glyph-name="quotesingle" unicode="'" horiz-adv-x="191" 
d="M198 709h94l-24 -111l-55 -134h-40l1 134z" />
    <glyph glyph-name="parenleft" unicode="(" horiz-adv-x="333" 
d="M391 729h55q-255 -313 -255 -650q0 -149 55 -292h-55q-78 137 -78 329q0 152 73.5 314t204.5 299z" />
    <glyph glyph-name="parenright" unicode=")" horiz-adv-x="333" 
d="M48 -213h-55q255 313 255 650q0 149 -55 292h55q78 -137 78 -329q0 -152 -73.5 -314t-204.5 -299z" />
    <glyph glyph-name="asterisk" unicode="*" horiz-adv-x="389" 
d="M319 729h62l-29 -112l110 38l9 -62l-113 -27l53 -91l-58 -37l-44 96l-81 -95l-47 40l92 88l-104 31l30 59l100 -40z" />
    <glyph glyph-name="plus" unicode="+" horiz-adv-x="584" 
d="M591 269l-15 -72h-207l-44 -208h-70l44 208h-207l15 72h207l44 204h70l-44 -204h207z" />
    <glyph glyph-name="comma" unicode="," horiz-adv-x="278" 
d="M109 103h105l-26 -119q-13 -62 -46.5 -96.5t-80.5 -34.5h-6l8 38q36 0 54.5 24t28.5 85h-59z" />
    <glyph glyph-name="hyphen" unicode="-" horiz-adv-x="333" 
d="M351 312l-15 -72h-239l15 72h239z" />
    <glyph glyph-name="period" unicode="." horiz-adv-x="278" 
d="M213 103l-22 -103h-104l22 103h104z" />
    <glyph glyph-name="slash" unicode="/" horiz-adv-x="278" 
d="M379 729h55l-391 -749h-55z" />
    <glyph glyph-name="zero" unicode="0" horiz-adv-x="556" 
d="M98 170q0 28 3.5 65t13 90t24 104t39.5 102.5t57.5 90t79.5 63t103 24.5q85 0 132.5 -51.5t47.5 -143.5q0 -34 -5 -80t-17 -109.5t-36.5 -122.5t-58 -110.5t-87 -83t-118.5 -31.5q-30 0 -59 9t-57 29t-45 60t-17 95zM287 54q50 0 91 38t64.5 92.5t39.5 120t22 115.5t6 84
q0 61 -27.5 94.5t-76.5 33.5q-61 0 -107.5 -55.5t-69 -135.5t-33 -147t-10.5 -113q0 -59 27 -93t74 -34z" />
    <glyph glyph-name="one" unicode="1" horiz-adv-x="556" 
d="M367 505h-159l13 63q108 15 143.5 37.5t75.5 103.5h58l-151 -709h-88z" />
    <glyph glyph-name="two" unicode="2" horiz-adv-x="556" 
d="M428 709q55 0 94.5 -16.5t59.5 -44t29 -55t9 -56.5q0 -150 -198 -250l-112 -57q-137 -68 -163 -143h377l-19 -87h-471q34 123 83.5 182.5t179.5 124.5l104 52q62 32 96.5 75t34.5 91t-32 77.5t-84 29.5q-48 0 -84 -18.5t-55 -49.5t-27 -51.5t-14 -44.5q-1 -4 -1 -5h-88
q29 127 97 186.5t184 59.5z" />
    <glyph glyph-name="three" unicode="3" horiz-adv-x="556" 
d="M555 249q0 -114 -80.5 -193t-210.5 -79q-94 0 -143.5 43t-49.5 124q0 24 5 62h88q-5 -33 -5 -52q0 -46 32.5 -73t85.5 -27q84 0 137 50.5t53 131.5q0 43 -35 67t-97 24q-24 0 -45 -2l16 75h18q187 0 187 145q0 40 -28.5 63.5t-77.5 23.5q-38 0 -68.5 -13t-46.5 -28.5
t-28.5 -40.5t-16.5 -38t-8 -32h-88q6 21 8 29t13.5 37t22.5 45.5t33 42t47 39.5t62.5 25t81.5 11q82 0 132 -40t50 -106q0 -67 -29 -113.5t-93 -82.5q42 -21 60 -48t18 -70z" />
    <glyph glyph-name="four" unicode="4" horiz-adv-x="556" 
d="M362 170h-299l20 92l416 447h66l-98 -461h106l-17 -78h-106l-36 -170h-88zM379 248l65 308l-286 -308h221z" />
    <glyph glyph-name="five" unicode="5" horiz-adv-x="556" 
d="M271 -23q-33 0 -64 7t-64 24t-53 54t-20 90v22h88q4 -120 125 -120q85 0 140.5 61t55.5 154q0 58 -33 89.5t-93 31.5q-44 0 -73.5 -13.5t-75.5 -53.5h-80l135 386h370l-18 -87h-300l-70 -198q70 43 140 43q85 0 135.5 -47t50.5 -125q0 -55 -20 -110.5t-56 -102.5t-94 -76
t-126 -29z" />
    <glyph glyph-name="six" unicode="6" horiz-adv-x="556" 
d="M566 271q0 -23 -7.5 -55.5t-27.5 -75.5t-50 -78.5t-81 -60t-114 -24.5q-88 0 -140.5 51.5t-52.5 138.5q0 46 9 107.5t33.5 140t60.5 142.5t98.5 108t140.5 44q80 0 128 -43t48 -115q0 -16 -1 -27h-88q1 2 1 5q0 38 -23.5 70.5t-78.5 32.5q-76 0 -133 -73.5t-79 -200.5
q84 84 179 84q80 0 129 -47t49 -124zM364 365q-76 0 -129.5 -55.5t-53.5 -135.5q0 -53 33 -86.5t85 -33.5q74 0 126.5 59t52.5 143q0 49 -31.5 79t-82.5 30z" />
    <glyph glyph-name="seven" unicode="7" horiz-adv-x="556" 
d="M671 709l-17 -81q-128 -126 -248.5 -306t-170.5 -322h-98q67 158 160.5 295t262.5 327h-383l19 87h475z" />
    <glyph glyph-name="eight" unicode="8" horiz-adv-x="556" 
d="M560 239q0 -21 -7 -50t-27 -67.5t-50 -69.5t-81 -53t-114 -22q-94 0 -150.5 45.5t-56.5 122.5q0 155 159 228q-41 34 -52.5 52t-11.5 55q0 39 16.5 78.5t46.5 73.5t79.5 55.5t109.5 21.5q52 0 90 -15t57 -38.5t27.5 -47t8.5 -47.5q0 -20 -3 -37.5t-9.5 -33t-13 -27.5
t-17.5 -23.5t-18 -19.5t-19.5 -16.5t-17.5 -12t-16.5 -10.5t-12.5 -8q83 -47 83 -134zM364 408q68 0 110 40t42 97q0 41 -29 64t-80 23q-65 0 -107.5 -40t-42.5 -101q0 -39 28.5 -61t78.5 -22zM344 334q-76 0 -129 -50.5t-53 -123.5q0 -47 34.5 -76.5t90.5 -29.5
q79 0 132 49.5t53 122.5q0 49 -34.5 78.5t-93.5 29.5z" />
    <glyph glyph-name="nine" unicode="9" horiz-adv-x="556" 
d="M404 709q55 0 95.5 -18.5t61 -48.5t29.5 -59t9 -58q0 -30 -3.5 -68.5t-13.5 -92.5t-25.5 -105.5t-42.5 -103.5t-61.5 -90.5t-84.5 -63t-110 -24.5q-80 0 -127.5 43t-47.5 115q0 16 1 27h87q0 -52 25.5 -80t73.5 -28q151 0 211 270q-2 -1 -12 -10t-15 -13t-17 -12.5
t-21 -13.5t-23 -12t-27 -10.5t-29.5 -6t-33.5 -2.5q-81 0 -129 47t-48 126q0 25 7 58t27 75t49.5 76.5t80.5 58.5t114 24zM392 632q-73 0 -125.5 -58t-52.5 -138q0 -54 30 -84.5t83 -30.5q76 0 130 57t54 136q0 50 -34 84t-85 34z" />
    <glyph glyph-name="colon" unicode=":" horiz-adv-x="278" 
d="M326 524l-22 -103h-104l22 103h104zM236 103l-22 -103h-104l22 103h104z" />
    <glyph glyph-name="semicolon" unicode=";" horiz-adv-x="278" 
d="M132 103h105l-26 -119q-13 -62 -46.5 -96.5t-80.5 -34.5h-6l8 38q36 0 54.5 24t28.5 85h-59zM325 524l-22 -103h-104l22 103h104z" />
    <glyph glyph-name="less" unicode="&#x3c;" horiz-adv-x="584" 
d="M87 198l15 69l533 207l-17 -79l-422 -164l353 -163l-17 -77z" />
    <glyph glyph-name="equal" unicode="=" horiz-adv-x="584" 
d="M609 355l-15 -72h-483l14 72h484zM572 183l-14 -72h-484l15 72h483z" />
    <glyph glyph-name="greater" unicode="&#x3e;" horiz-adv-x="584" 
d="M596 267l-15 -69l-533 -207l17 79l422 164l-353 163l17 77z" />
    <glyph glyph-name="question" unicode="?" horiz-adv-x="556" 
d="M449 741q51 0 89 -15t56.5 -39.5t27 -48.5t8.5 -48q0 -52 -22 -93.5t-55 -69.5t-67 -53t-64 -57.5t-41 -70.5l-10 -47h-90l12 55q9 41 37.5 76t62 60.5t66 52t54 60.5t21.5 75q0 38 -30 62t-77 24q-66 0 -103.5 -37.5t-54.5 -119.5h-85q47 234 265 234zM351 103l-22 -103
h-90l22 103h90z" />
    <glyph glyph-name="at" unicode="@" horiz-adv-x="1015" 
d="M597 134q-11 -8 -31.5 -23.5t-29.5 -21t-24.5 -14t-31 -11t-35.5 -2.5q-61 0 -98 38t-37 101q0 74 47.5 150t121.5 124.5t147 48.5q91 0 109 -89l36 66h82l-149 -280q-24 -45 -24 -58q0 -14 12.5 -25t28.5 -11q53 0 107.5 43.5t89.5 111t35 132.5q0 108 -83 179t-210 71
q-121 0 -235.5 -67.5t-185.5 -176.5t-71 -224q0 -117 85 -189t222 -72q82 0 204 32l13 -67q-115 -42 -245 -42q-154 0 -260.5 92.5t-106.5 231.5q0 69 25.5 145t77.5 150t122 132.5t168.5 95t207.5 36.5q154 0 254.5 -87t100.5 -220q0 -86 -28 -155t-68.5 -109t-89.5 -67
t-87.5 -36.5t-66.5 -9.5q-34 0 -56 7t-30.5 20.5t-10.5 23.5t-2 26zM478 124q42 0 82 33t65.5 78t41 88t15.5 67q0 65 -68 65q-53 0 -103.5 -41.5t-79.5 -98.5t-29 -105q0 -37 21.5 -61.5t54.5 -24.5z" />
    <glyph glyph-name="A" unicode="A" horiz-adv-x="667" 
d="M523 219h-285l-123 -219h-99l415 729h120l101 -729h-102zM513 297l-40 333l-191 -333h231z" />
    <glyph glyph-name="B" unicode="B" horiz-adv-x="664" 
d="M673 258q0 -105 -73.5 -181.5t-189.5 -76.5h-330l155 729h296q52 0 89 -13.5t56 -36t27.5 -46t8.5 -49.5q0 -67 -35.5 -119t-100.5 -81q53 -23 75 -51.5t22 -74.5zM442 415q95 0 134.5 43.5t39.5 102.5q0 86 -124 86h-180l-50 -232h180zM418 82q72 0 115.5 45.5
t43.5 114.5q0 91 -106 91h-226l-54 -251h227z" />
    <glyph glyph-name="C" unicode="C" horiz-adv-x="710" 
d="M355 -23q-59 0 -105.5 17.5t-73.5 45t-45 64t-24.5 70t-6.5 68.5q0 64 16.5 132t51 134t83 117.5t118.5 83.5t151 32q32 0 60.5 -5.5t61 -21t56 -41t40.5 -69.5t20 -101h-96q-6 81 -44.5 119t-114.5 38q-70 0 -126 -33t-88.5 -80.5t-54.5 -105.5t-30 -103t-8 -78
q0 -91 47.5 -146.5t125.5 -55.5q55 0 97.5 17t72.5 50.5t48 64t38 76.5h98q-67 -160 -157 -224.5t-211 -64.5z" />
    <glyph glyph-name="D" unicode="D" horiz-adv-x="702" 
d="M517 729q67 0 115.5 -25t72.5 -64.5t34.5 -77t10.5 -74.5q0 -57 -12.5 -119.5t-42 -129t-72.5 -119t-111 -86.5t-150 -34h-282l155 729h282zM191 82h172q70 0 124 31.5t84.5 77.5t50 103.5t26 102.5t6.5 83q0 78 -45.5 122.5t-125.5 44.5h-171z" />
    <glyph glyph-name="E" unicode="E" horiz-adv-x="657" 
d="M245 332l-54 -250h429l-17 -82h-523l155 729h506l-17 -82h-412l-50 -233h396l-18 -82h-395z" />
    <glyph glyph-name="F" unicode="F" horiz-adv-x="601" 
d="M245 332l-71 -332h-94l155 729h489l-17 -82h-395l-50 -233h347l-17 -82h-347z" />
    <glyph glyph-name="G" unicode="G" horiz-adv-x="778" 
d="M205 277q0 -66 19.5 -112t53 -68t65.5 -30.5t68 -8.5q94 0 173.5 57.5t102.5 161.5l6 26h-222l18 82h304l-83 -389h-59l-4 90q-66 -55 -126 -82t-143 -27q-35 0 -69.5 7.5t-71.5 27.5t-64.5 50.5t-45.5 82t-18 116.5q0 62 17.5 127.5t54.5 128.5t88.5 113t126 80.5
t159.5 30.5q118 0 186 -58t68 -158v-17h-91q-1 44 -19 76t-46.5 47.5t-57 22t-58.5 6.5q-66 0 -120.5 -22.5t-89.5 -59.5t-60 -79t-38 -87.5t-18.5 -78t-5.5 -56.5z" />
    <glyph glyph-name="H" unicode="H" horiz-adv-x="721" 
d="M618 332h-373l-71 -332h-94l155 729h94l-67 -315h373l67 315h94l-155 -729h-94z" />
    <glyph glyph-name="I" unicode="I" horiz-adv-x="278" 
d="M349 729l-155 -729h-94l155 729h94z" />
    <glyph glyph-name="J" unicode="J" horiz-adv-x="507" 
d="M213 -23q-47 0 -82 15t-52 39t-24.5 46.5t-7.5 44.5q0 21 20 112h94q-18 -85 -18 -100q0 -34 25 -55t65 -21q33 0 59 14.5t40 30.5t25.5 44.5t14 38.5t6.5 30l109 513h94l-116 -547q-21 -98 -87 -151.5t-165 -53.5z" />
    <glyph glyph-name="K" unicode="K" horiz-adv-x="667" 
d="M227 249l-53 -249h-94l155 729h94l-79 -373l444 373h120l-361 -298l206 -431h-110l-168 376z" />
    <glyph glyph-name="L" unicode="L" horiz-adv-x="556" 
d="M329 729l-138 -647h360l-17 -82h-454l155 729h94z" />
    <glyph glyph-name="M" unicode="M" horiz-adv-x="846" 
d="M472 0h-97l-77 605l-129 -605h-89l155 729h129l80 -627l346 627h131l-155 -729h-89l129 605z" />
    <glyph glyph-name="N" unicode="N" horiz-adv-x="730" 
d="M805 729l-155 -729h-106l-249 591l-126 -591h-89l155 729h104l250 -598l127 598h89z" />
    <glyph glyph-name="O" unicode="O" horiz-adv-x="770" 
d="M387 -23q-40 0 -77.5 7.5t-76.5 27.5t-68 51t-47 82.5t-18 117.5q0 114 51 222t152.5 182t229.5 74q83 0 143 -26t90.5 -69t44 -88t13.5 -94q0 -26 -4.5 -60.5t-17.5 -82.5t-33.5 -94t-55 -92t-78.5 -80.5t-108 -56t-140 -21.5zM728 446q0 61 -19.5 105t-52 66.5
t-66 32.5t-69.5 10q-95 0 -171 -57.5t-115 -145.5t-39 -186q0 -60 20 -104.5t52 -66.5t65 -32t67 -10q66 0 120 23t88.5 60.5t59 80.5t37 89t18 79t5.5 56z" />
    <glyph glyph-name="P" unicode="P" horiz-adv-x="646" 
d="M722 568q0 -106 -71 -182.5t-183 -76.5h-228l-66 -309h-94l155 729h302q185 0 185 -161zM451 391q80 0 127.5 46t47.5 113q0 97 -120 97h-194l-55 -256h194z" />
    <glyph glyph-name="Q" unicode="Q" horiz-adv-x="776" 
d="M535 741q53 0 100 -13t92 -43t72 -89t27 -140q0 -108 -45 -207t-128 -173l78 -77l-60 -58l-87 87q-55 -29 -96.5 -40t-99.5 -11q-135 0 -210.5 76t-75.5 211q0 65 18.5 132t55.5 128.5t87.5 110t121 77.5t150.5 29zM730 446q0 61 -19.5 105t-52 66.5t-66 32.5t-69.5 10
q-97 0 -173 -59.5t-114 -147t-38 -181.5q0 -101 55.5 -157.5t153.5 -56.5q54 0 119 29l-62 62l58 56l74 -73q134 129 134 314z" />
    <glyph glyph-name="R" unicode="R" horiz-adv-x="709" 
d="M549 47q0 37 16 99t16 93q0 75 -101 75h-239l-67 -314h-94l155 729h336q96 0 141 -37.5t45 -116.5q0 -40 -11.5 -74.5t-25.5 -55t-37.5 -40.5t-35 -27t-30.5 -18q35 -23 47.5 -43t12.5 -53q0 -22 -13.5 -96.5t-13.5 -91.5q0 -34 21 -53l-5 -23h-113q-4 28 -4 47zM661 558
q0 52 -30.5 70.5t-88.5 18.5h-230l-54 -251h231q49 0 85 16t53.5 41.5t25.5 51.5t8 53z" />
    <glyph glyph-name="S" unicode="S" horiz-adv-x="651" 
d="M480 741q64 0 111 -16.5t70.5 -43.5t34 -54.5t10.5 -55.5q0 -19 -8 -56h-88q4 27 4 36q0 109 -152 109q-84 0 -140 -39t-56 -103q0 -33 21.5 -51t79.5 -35l172 -49q62 -17 92 -59.5t30 -86.5q0 -20 -7 -47.5t-30 -66t-58 -70t-99 -54t-145 -22.5q-113 0 -177 51t-64 141
q0 30 9 63h87q-4 -25 -4 -41q0 -68 40 -100.5t125 -32.5q104 0 165.5 44t61.5 107q0 36 -26.5 59.5t-86.5 40.5l-171 48q-50 14 -80.5 51t-30.5 84q0 17 5 41.5t25 63t51 69t91 53t138 22.5z" />
    <glyph glyph-name="T" unicode="T" horiz-adv-x="611" 
d="M493 647l-138 -647h-94l138 647h-241l17 82h573l-17 -82h-238z" />
    <glyph glyph-name="U" unicode="U" horiz-adv-x="721" 
d="M359 -23q-108 0 -173.5 50t-65.5 128q0 30 14 96l102 478h94l-109 -512q-5 -23 -5 -44q0 -52 44.5 -83.5t116.5 -31.5q85 0 142.5 42.5t73.5 116.5l109 512h94l-109 -512q-23 -109 -112.5 -174.5t-215.5 -65.5z" />
    <glyph glyph-name="V" unicode="V" horiz-adv-x="645" 
d="M377 0h-100l-107 729h97l83 -617l336 617h99z" />
    <glyph glyph-name="W" unicode="W" horiz-adv-x="937" 
d="M737 0h-102l-41 592l-290 -592h-102l-32 729h100l15 -592l288 592h96l41 -592l263 592h104z" />
    <glyph glyph-name="X" unicode="X" horiz-adv-x="669" 
d="M469 374l179 -374h-115l-134 304l-264 -304h-115l339 374l-167 355h113l125 -285l248 285h114z" />
    <glyph glyph-name="Y" unicode="Y" horiz-adv-x="678" 
d="M450 286l-61 -286h-94l61 286l-186 443h112l136 -357l289 357h111z" />
    <glyph glyph-name="Z" unicode="Z" horiz-adv-x="611" 
d="M739 729l-18 -84l-556 -563h438l-17 -82h-556l18 84l555 563h-406l17 82h525z" />
    <glyph glyph-name="bracketleft" unicode="[" horiz-adv-x="278" 
d="M405 729l-15 -72h-102l-170 -798h102l-15 -72h-186l200 942h186z" />
    <glyph glyph-name="backslash" unicode="\" horiz-adv-x="278" 
d="M147 729h55l78 -749h-55z" />
    <glyph glyph-name="bracketright" unicode="]" horiz-adv-x="278" 
d="M-23 -213l15 72h102l170 798h-102l15 72h186l-200 -942h-186z" />
    <glyph glyph-name="asciicircum" unicode="^" horiz-adv-x="469" 
d="M349 709h73l74 -380h-69l-58 299l-182 -299h-72z" />
    <glyph glyph-name="underscore" unicode="_" horiz-adv-x="556" 
d="M551 -126l-11 -50h-599l11 50h599z" />
    <glyph glyph-name="grave" unicode="`" horiz-adv-x="333" 
d="M285 740l72 -148h-53l-125 148h106z" />
    <glyph glyph-name="a" unicode="a" horiz-adv-x="554" 
d="M370 462q-108 0 -137 -93h-84q14 83 76.5 126.5t166.5 43.5q79 0 126.5 -31t47.5 -82q0 -10 -6 -37l-64 -301q-1 -3 -1 -10q0 -29 38 -29q8 0 17 2l-13 -65q-8 -1 -18 -3.5t-17.5 -4t-17.5 -1.5q-33 0 -51.5 17t-21.5 31t-3 29q-1 -1 -8.5 -7.5t-11 -9t-12.5 -9.5
t-15 -10.5t-17.5 -10t-21 -10t-23.5 -8t-27.5 -7t-30 -4t-34.5 -1.5q-67 0 -105.5 34t-38.5 94q0 69 54.5 123.5t183.5 66.5q12 1 40 3t39.5 3.5t31 5.5t29 10t18.5 17t12 27l3 18q2 16 2 22q0 27 -30 44t-76 17zM449 258q-29 -10 -89 -19.5t-101 -17t-74.5 -34.5t-33.5 -72
q0 -32 23 -49t66 -17q66 0 122.5 34.5t66.5 80.5z" />
    <glyph glyph-name="b" unicode="b" horiz-adv-x="561" 
d="M300 -23q-106 0 -148 101l-17 -78h-75l155 729h84l-58 -275q38 41 65 57q48 28 111 28q76 0 126.5 -56t50.5 -140q0 -85 -33 -167t-102.5 -140.5t-158.5 -58.5zM302 54q48 0 86 23t59.5 55.5t35.5 72.5t18.5 69t4.5 50q0 65 -31 101.5t-86 36.5q-87 0 -142.5 -86
t-55.5 -193q0 -59 30 -94t81 -35z" />
    <glyph glyph-name="c" unicode="c" horiz-adv-x="515" 
d="M381 539q77 0 125 -43t48 -104q0 -7 -3 -44h-84q1 9 1 22q0 43 -27.5 67.5t-74.5 24.5q-48 0 -86 -24t-59 -58t-34.5 -75.5t-18 -72t-4.5 -51.5q0 -58 30.5 -92.5t82.5 -34.5q111 0 157 126h84q-5 -18 -8.5 -28t-14 -34t-22 -40t-32 -37t-44 -33.5t-58.5 -21.5t-76 -9
q-53 0 -92 19.5t-58.5 51t-28 62t-8.5 60.5q0 159 84.5 264t220.5 105z" />
    <glyph glyph-name="d" unicode="d" horiz-adv-x="558" 
d="M433 76q-23 -45 -77.5 -72t-108.5 -27q-78 0 -124.5 52.5t-46.5 140.5q0 158 83 263.5t207 105.5q53 0 86 -21t57 -70l60 281h84l-155 -729h-81zM281 54q44 0 80 22.5t56.5 55t34.5 72t19 70.5t5 53q0 64 -31 99.5t-87 35.5q-46 0 -82 -23.5t-56.5 -56.5t-33.5 -73
t-17.5 -69.5t-4.5 -49.5q0 -65 31 -100.5t86 -35.5z" />
    <glyph glyph-name="e" unicode="e" horiz-adv-x="547" 
d="M77 173q0 28 6.5 66.5t27 93t52 99t89 76t130.5 31.5q81 0 136 -49.5t55 -121.5q0 -38 -17 -134h-386q-5 -19 -5 -46q0 -64 32.5 -99t91.5 -35q101 0 156 105h84q-23 -81 -93.5 -131.5t-160.5 -50.5q-89 0 -143.5 56.5t-54.5 139.5zM188 306h294q3 24 3 33
q0 56 -31.5 89.5t-84.5 33.5q-61 0 -111 -43.5t-70 -112.5z" />
    <glyph glyph-name="f" unicode="f" horiz-adv-x="260" 
d="M352 524l-14 -67h-86l-97 -457h-84l97 457h-70l14 67h70l19 89q12 56 51.5 87.5t97.5 31.5q22 0 45 -5l-15 -69q-14 2 -27 2q-32 0 -48 -14.5t-24 -52.5l-15 -69h86z" />
    <glyph glyph-name="g" unicode="g" horiz-adv-x="552" 
d="M371 539q97 0 139 -93l17 78h76l-93 -439q-35 -162 -101.5 -232.5t-197.5 -70.5q-80 0 -128.5 34.5t-48.5 92.5q0 13 2 31h84v-14q0 -34 28.5 -53t79.5 -19q90 0 130 50.5t63 158.5q-75 -80 -172 -80q-76 0 -124.5 51.5t-48.5 133.5q0 27 7 67t27.5 95t51.5 100t85.5 77
t123.5 32zM365 462q-48 0 -86 -24t-58.5 -57.5t-34 -75t-18 -71t-4.5 -50.5q0 -59 29.5 -94t79.5 -35q88 0 143 86t55 198q0 56 -29 89.5t-77 33.5z" />
    <glyph glyph-name="h" unicode="h" horiz-adv-x="540" 
d="M215 729h84l-57 -270q47 44 89 62t98 18q63 0 99 -33.5t36 -92.5q0 -20 -4 -37l-80 -376h-84l73 343q6 27 6 39q0 38 -23.5 61.5t-61.5 23.5q-68 0 -118 -48t-67 -130l-61 -289h-84z" />
    <glyph glyph-name="i" unicode="i" horiz-adv-x="222" 
d="M261 524l-111 -524h-84l111 524h84zM305 729l-22 -103h-84l22 103h84z" />
    <glyph glyph-name="j" unicode="j" horiz-adv-x="242" 
d="M200 524h84l-134 -633q-14 -62 -52 -85.5t-124 -23.5q-8 0 -19 3l15 71q18 -2 25 -2q38 0 53.5 14t24.5 56zM328 729l-22 -103h-84l22 103h84z" />
    <glyph glyph-name="k" unicode="k" horiz-adv-x="502" 
d="M299 729l-90 -423l269 218h108l-222 -181l140 -343h-96l-114 291l-107 -88l-43 -203h-84l155 729h84z" />
    <glyph glyph-name="l" unicode="l" horiz-adv-x="222" 
d="M307 729l-155 -729h-84l155 729h84z" />
    <glyph glyph-name="m" unicode="m" horiz-adv-x="816" 
d="M714 539q68 0 97.5 -36t29.5 -75q0 -22 -6 -55l-79 -373h-84l72 341q9 43 9 49q0 36 -20.5 56.5t-55.5 20.5q-54 0 -99 -39.5t-58 -98.5l-70 -329h-84l77 361q4 17 4 37q0 31 -22.5 50t-59.5 19q-50 0 -94.5 -40.5t-56.5 -97.5l-70 -329h-84l111 524h76l-13 -65
q48 45 87.5 62.5t90.5 17.5q97 0 121 -83q86 83 181 83z" />
    <glyph glyph-name="n" unicode="n" horiz-adv-x="540" 
d="M171 524h76l-13 -65q78 80 194 80q62 0 99 -34t37 -91q0 -21 -4 -38l-80 -376h-84l74 349q6 24 6 37q0 35 -25 58t-62 23q-68 0 -117.5 -48t-66.5 -130l-61 -289h-84z" />
    <glyph glyph-name="o" unicode="o" horiz-adv-x="556" 
d="M384 539q87 0 139.5 -52t52.5 -135q0 -39 -8 -83.5t-30 -98t-54.5 -95t-88.5 -70t-126 -28.5q-84 0 -136.5 52t-52.5 135q0 38 8 82.5t29.5 98t54 95.5t88 70.5t124.5 28.5zM283 54q49 0 87.5 23.5t60 57t35 75t18 71.5t4.5 52q0 61 -31 95t-86 34q-48 0 -86.5 -24
t-59.5 -57.5t-34.5 -75t-18 -71t-4.5 -50.5q0 -60 31 -95t84 -35z" />
    <glyph glyph-name="p" unicode="p" horiz-adv-x="563" 
d="M593 344q0 -155 -83.5 -261t-208.5 -106q-53 0 -86.5 21t-56.5 70l-60 -281h-84l157 737h81l-18 -84q21 44 75 71.5t110 27.5q80 0 127 -52.5t47 -142.5zM309 54q57 0 99 33.5t61 82.5t27.5 88t8.5 66q0 65 -31.5 101.5t-87.5 36.5q-44 0 -80 -23t-57 -56t-35 -73
t-19 -71.5t-5 -54.5q0 -60 32 -95t87 -35z" />
    <glyph glyph-name="q" unicode="q" horiz-adv-x="556" 
d="M425 62q-1 -1 -9 -9.5t-12 -12t-13.5 -12t-16.5 -13t-18 -11.5t-22 -11t-24.5 -8t-29 -6t-32.5 -2q-76 0 -126.5 56t-50.5 140q0 58 18.5 120t53.5 118t93.5 92t129.5 36q111 0 147 -101l19 86h75l-157 -737h-84zM364 462q-49 0 -87.5 -24t-59.5 -57t-35 -74t-18.5 -70.5
t-4.5 -50.5q0 -60 32 -96t85 -36q86 0 142 85.5t56 193.5q0 59 -30 94t-80 35z" />
    <glyph glyph-name="r" unicode="r" horiz-adv-x="324" 
d="M171 524h76l-17 -82q46 53 83.5 75t81.5 22q13 0 32 -3l-18 -85q-79 0 -132.5 -39.5t-74.5 -139.5l-58 -272h-84z" />
    <glyph glyph-name="s" unicode="s" horiz-adv-x="500" 
d="M123 345q0 81 64.5 137.5t168.5 56.5q73 0 118.5 -33t45.5 -85q0 -18 -6 -43h-84q1 8 1 22q0 29 -24 45.5t-68 16.5q-57 0 -92.5 -27.5t-35.5 -67.5q0 -39 85 -60l76 -19q66 -16 93.5 -42.5t27.5 -72.5q0 -89 -67 -142.5t-179 -53.5q-87 0 -136.5 34t-49.5 94q0 23 6 51
h89q-2 -20 -2 -25q0 -37 28 -57t80 -20q42 0 72.5 12t44.5 29t20 31t6 24q0 7 -1.5 13.5t-5.5 11.5t-7 9t-9 7.5t-10 5.5t-11 4.5t-9.5 3t-9.5 2.5l-7 2l-74 19q-77 20 -107.5 45.5t-30.5 71.5z" />
    <glyph glyph-name="t" unicode="t" horiz-adv-x="265" 
d="M356 524l-14 -67h-89l-78 -367q-2 -12 -2 -14q0 -12 10 -19.5t26 -7.5q13 0 48 8l-16 -73q-25 -7 -65 -7q-41 0 -65 21t-24 58q0 16 3 31l79 370h-71l14 67h71l31 144h84l-31 -144h89z" />
    <glyph glyph-name="u" unicode="u" horiz-adv-x="538" 
d="M478 0h-76l12 57q-83 -80 -193 -80q-65 0 -101.5 29t-36.5 80q0 19 3 34l86 404h84l-79 -371q-3 -15 -3 -27q0 -35 24 -56t65 -21q64 0 113 48.5t66 129.5l63 297h84z" />
    <glyph glyph-name="v" unicode="v" horiz-adv-x="497" 
d="M287 0h-91l-74 524h92l49 -422l244 422h91z" />
    <glyph glyph-name="w" unicode="w" horiz-adv-x="723" 
d="M560 0h-95l-12 418l-195 -418h-96l-40 524h91l19 -408l189 408h105l11 -408l196 408h91z" />
    <glyph glyph-name="x" unicode="x" horiz-adv-x="490" 
d="M350 267l123 -267h-94l-90 200l-174 -200h-98l239 267l-118 257h93l88 -192l167 192h97z" />
    <glyph glyph-name="y" unicode="y" horiz-adv-x="479" 
d="M491 524h89l-368 -634q-63 -108 -165 -108q-27 0 -49 10l16 75q36 -4 44 -4q28 0 44 10.5t36 41.5l52 81l-68 528h90l46 -407z" />
    <glyph glyph-name="z" unicode="z" horiz-adv-x="500" 
d="M557 524l-18 -75l-392 -377h326l-15 -72h-427l18 74l395 378h-294l15 72h392z" />
    <glyph glyph-name="braceleft" unicode="{" horiz-adv-x="334" 
d="M431 729l-14 -65h-16q-37 0 -53.5 -14t-24.5 -53l-39 -181q-22 -109 -108 -157q28 -18 38 -38.5t10 -58.5q0 -32 -6 -61l-39 -181q-4 -16 -4 -33q0 -34 54 -34h16l-14 -66h-47q-41 0 -63.5 21t-22.5 58q0 27 6 54l35 166q9 40 9 67q0 62 -57 71l15 69q43 7 67.5 39
t38.5 99l36 166q30 132 136 132h47z" />
    <glyph glyph-name="bar" unicode="|" horiz-adv-x="260" 
d="M255 729h60l-201 -941h-60z" />
    <glyph glyph-name="braceright" unicode="}" horiz-adv-x="334" 
d="M-16 -213l14 65h16q37 0 53.5 14t24.5 53l39 181q22 109 108 157q-28 18 -38 38.5t-10 58.5q0 32 6 61l39 181q4 16 4 33q0 34 -54 34h-16l14 66h47q41 0 63.5 -21t22.5 -58q0 -27 -6 -54l-35 -166q-9 -40 -9 -67q0 -62 57 -71l-15 -69q-43 -7 -67.5 -39t-38.5 -99
l-36 -166q-30 -132 -136 -132h-47z" />
    <glyph glyph-name="asciitilde" unicode="~" horiz-adv-x="584" 
d="M594 411q-8 -45 -26 -76t-40.5 -44t-39 -18t-30.5 -5q-38 0 -74 26l-85 63q-21 15 -39 15q-47 0 -71 -79h-52q19 70 54.5 107.5t83.5 37.5q27 0 51 -16l102 -69q26 -17 47 -17q51 0 67 75h52z" />
    <glyph glyph-name="nonbreakingspace" unicode="&#xa0;" horiz-adv-x="278" 
 />
    <glyph glyph-name="exclamdown" unicode="&#xa1;" horiz-adv-x="333" 
d="M76 -205l74 350l67 211h40l-23 -211l-74 -350h-84zM209 421l22 103h84l-22 -103h-84z" />
    <glyph glyph-name="cent" unicode="&#xa2;" horiz-adv-x="556" 
d="M423 538q38 0 68 -12.5t47 -30t28.5 -38.5t15 -37t3.5 -28q0 -18 -3 -44h-84q1 9 1 23q0 82 -92 92l-87 -410q53 6 87.5 36t57.5 91h84q-26 -99 -85.5 -148t-159.5 -55l-21 -97h-40l21 98q-77 8 -122.5 60.5t-45.5 132.5q0 30 5 65.5t23 88.5t47 95.5t84.5 76.5t127.5 41
l19 90h40zM281 56l85 404q-48 -9 -85 -41t-57 -74.5t-30 -84t-10 -77.5q0 -53 26 -87t71 -40z" />
    <glyph glyph-name="sterling" unicode="&#xa3;" horiz-adv-x="556" 
d="M256 492q0 -15 1.5 -25t4 -17.5t10 -28.5t15.5 -45h160l-12 -55h-137q3 -20 3 -38q0 -45 -26.5 -88t-49.5 -63t-74 -59l-15 -12q78 39 133 39q27 0 73 -15t82 -15q40 0 94 31l25 -70q-66 -54 -142 -54q-43 0 -105.5 23t-96.5 23q-53 0 -118 -37l-37 66q174 115 174 219
q0 18 -10 50h-113l12 55h83q-2 7 -11 27t-14 38t-5 39q0 97 86 173t196 76q83 0 134.5 -41.5t51.5 -108.5q0 -28 -9 -82h-88q9 33 9 57q0 45 -31.5 71.5t-84.5 26.5q-71 0 -119.5 -46t-48.5 -114z" />
    <glyph glyph-name="currency" unicode="&#xa4;" horiz-adv-x="556" 
d="M156 305q0 37 12 66t28 49.5t18 24.5l-42 55l66 56l45 -58q46 27 102 27q61 0 93 -29l68 56l47 -58l-69 -56q13 -23 13 -57q0 -35 -15.5 -74.5t-38.5 -61.5l43 -54l-70 -54l-42 53q-44 -30 -105 -30q-60 0 -90 25l-65 -52l-44 58l60 49q-14 26 -14 65zM369 448
q-52 0 -93 -38t-41 -87q0 -37 26 -61.5t64 -24.5q52 0 92.5 39t40.5 88q0 35 -26 59.5t-63 24.5z" />
    <glyph glyph-name="yen" unicode="&#xa5;" horiz-adv-x="556" 
d="M573 354l-11 -51h-172l-17 -77h172l-10 -51h-173l-37 -175h-88l37 175h-174l11 51h174l17 77h-175l11 51h154l-130 355h85l116 -322l248 322h85l-277 -355h154z" />
    <glyph glyph-name="brokenbar" unicode="&#xa6;" horiz-adv-x="260" 
d="M255 729h60l-86 -401h-60zM140 189h60l-86 -401h-60z" />
    <glyph glyph-name="section" unicode="&#xa7;" horiz-adv-x="556" 
d="M104 274q0 115 138 186q3 2 5 3q-26 33 -26 77q0 74 65.5 131.5t149.5 57.5q67 0 110 -38t43 -97q0 -22 -12 -61l-1 -1q0 -2 -0.5 -4t-0.5 -4h-84q10 29 10 51q0 35 -22.5 56t-60.5 21q-42 0 -73.5 -30t-31.5 -69q0 -17 8.5 -29.5t33.5 -32.5l127 -101q1 -1 10.5 -8
t14 -11.5t14 -13.5t15 -17.5t11.5 -20t9 -24.5t3 -28q0 -18 -5.5 -41t-19 -54t-45.5 -58.5t-77 -42.5q30 -41 30 -87q0 -67 -61 -132t-156 -65q-73 0 -117.5 38t-44.5 100q0 24 11 61h85q-8 -28 -8 -45q0 -34 24.5 -55.5t62.5 -21.5q46 0 79 30.5t33 71.5q0 39 -38 72
l-145 124q-63 53 -63 112zM236 229l138 -121q97 50 97 123q0 48 -53 91l-131 106q-53 -30 -74 -56.5t-21 -62.5q0 -24 9.5 -41t34.5 -39z" />
    <glyph glyph-name="dieresis" unicode="&#xa8;" horiz-adv-x="333" 
d="M451 715l-22 -103h-104l22 103h104zM280 715l-22 -103h-104l22 103h104z" />
    <glyph glyph-name="copyright" unicode="&#xa9;" horiz-adv-x="737" 
d="M618 312q-73 -186 -218 -186q-70 0 -110.5 44.5t-40.5 121.5q0 72 30 139.5t89.5 114t134.5 46.5q67 0 99.5 -37.5t34.5 -117.5h-71q-2 49 -20.5 71t-57.5 22q-47 0 -82 -27.5t-52 -67.5t-25 -74.5t-8 -59.5q0 -50 26 -81.5t69 -31.5q85 0 131 124h71zM530 742
q133 0 219.5 -85.5t86.5 -216.5q0 -118 -67 -225t-177 -172t-231 -65q-133 0 -219.5 86t-86.5 217q0 117 67 224t177 172t231 65zM516 680q-99 0 -190 -54.5t-146 -144.5t-55 -188q0 -109 71 -181t179 -72q99 0 190 54.5t146 145t55 188.5q0 109 -71 180.5t-179 71.5z" />
    <glyph glyph-name="ordfeminine" unicode="&#xaa;" horiz-adv-x="370" 
d="M406 354l-11 -51h-288l11 51h288zM184 634q5 19 8.5 29t14.5 27.5t25.5 27t41.5 17t63 7.5q48 0 76 -17.5t28 -48.5q0 -15 -1 -18l-41 -190q-1 -3 -1 -7q0 -5 5 -9.5t12 -4.5l17 2l-9 -44q-2 0 -5 -1q-4 -1 -5 -1q-17 -4 -26 -4q-42 0 -47 43q-46 -43 -109 -43
q-46 0 -70.5 21t-24.5 59q0 19 4 34.5t14.5 27t19 20t26.5 15t28 10t32 7t30 4.5t30 3q34 3 48 13.5t14 42.5q0 35 -62 35t-80 -57h-56zM363 566q-15 -5 -64 -12t-76 -21.5t-27 -46.5q0 -37 53 -37q34 0 66.5 21t37.5 45z" />
    <glyph glyph-name="guillemotleft" unicode="&#xab;" horiz-adv-x="444" 
d="M93 227l19 89l177 122l-18 -83l-121 -84l86 -83l-18 -82zM298 227l19 89l177 122l-18 -83l-121 -84l86 -83l-18 -82z" />
    <glyph glyph-name="logicalnot" unicode="&#xac;" horiz-adv-x="584" 
d="M114 377h505l-61 -291h-70l46 219h-435z" />
    <glyph glyph-name="softhyphen" unicode="&#xad;" horiz-adv-x="333" 
d="M351 312l-15 -72h-239l15 72h239z" />
    <glyph glyph-name="registered" unicode="&#xae;" horiz-adv-x="737" 
d="M510 168q0 24 9.5 64.5t9.5 52.5q0 40 -54 40h-134l-39 -185h-70l94 445h206q119 0 119 -89q0 -33 -8.5 -58t-26.5 -42.5t-23.5 -21.5t-21.5 -14q17 -14 23 -25t6 -31q0 -12 -7.5 -54.5t-7.5 -55.5q0 -18 12 -29l-5 -25h-78q-4 16 -4 28zM484 388q52 0 71.5 27t19.5 61
q0 25 -15 35.5t-48 10.5h-129l-28 -134h129zM530 742q133 0 219.5 -85.5t86.5 -216.5q0 -118 -67 -225t-177 -172t-231 -65q-133 0 -219.5 86t-86.5 217q0 117 67 224t177 172t231 65zM516 680q-99 0 -190 -54.5t-146 -144.5t-55 -188q0 -109 71 -181t179 -72q99 0 190 54.5
t146 145t55 188.5q0 109 -71 180.5t-179 71.5z" />
    <glyph glyph-name="macron" unicode="&#xaf;" horiz-adv-x="333" 
d="M450 696l-15 -69h-275l15 69h275z" />
    <glyph glyph-name="degree" unicode="&#xb0;" horiz-adv-x="606" 
d="M442 686q63 0 107.5 -44.5t44.5 -106.5q0 -64 -44.5 -108t-108.5 -44q-61 0 -105.5 45t-44.5 107t44.5 106.5t106.5 44.5zM443 643q-44 0 -75.5 -32t-31.5 -76t31 -76.5t74 -32.5q45 0 76.5 31.5t31.5 77.5q0 44 -31.5 76t-74.5 32z" />
    <glyph glyph-name="plusminus" unicode="&#xb1;" horiz-adv-x="584" 
d="M625 429l-15 -72h-207l-44 -208h-71l45 208h-207l15 72h207l43 204h71l-44 -204h207zM549 72l-15 -72h-484l15 72h484z" />
    <glyph glyph-name="twosuperior" unicode="&#xb2;" horiz-adv-x="352" 
d="M416 440l-12 -60h-300q21 76 52 111t113 77l63 31q75 35 75 91q0 27 -18.5 43.5t-49.5 16.5q-42 0 -67 -23.5t-38 -75.5h-63q18 80 61 117t117 37q56 0 89.5 -28.5t33.5 -77.5q0 -90 -124 -151l-68 -33q-71 -35 -95 -75h231z" />
    <glyph glyph-name="threesuperior" unicode="&#xb3;" horiz-adv-x="352" 
d="M177 661q5 19 8 29t16.5 35.5t29.5 40t47 27t69 12.5q53 0 85 -25t32 -66q0 -38 -16 -64.5t-53 -49.5q44 -21 44 -70q0 -70 -52.5 -117t-130.5 -47q-60 0 -92 26.5t-32 76.5q0 8 3 41h64q-2 -18 -2 -33q0 -25 18.5 -40.5t49.5 -15.5q49 0 79 27.5t30 72.5q0 50 -78 50
q-15 0 -31 -1l11 53h16q107 0 107 79q0 22 -16.5 35t-45.5 13q-28 0 -48 -10t-30 -29.5t-13 -26.5t-6 -23h-63z" />
    <glyph glyph-name="acute" unicode="&#xb4;" horiz-adv-x="333" 
d="M346 740h112l-180 -148h-60z" />
    <glyph glyph-name="micro" unicode="&#xb5;" horiz-adv-x="556" 
d="M175 167q0 -44 28 -73.5t75 -29.5q51 0 97.5 35t63.5 109l77 310h86l-91 -366q-10 -40 -10 -59q2 -14 11 -14l8 2l12 -60q-36 -21 -58 -21q-36 0 -49.5 18.5t-13.5 55.5q-28 -38 -69.5 -61t-84.5 -23q-89 0 -113 72l-65 -262h-88l179 718h88l-77 -310q-6 -22 -6 -41z" />
    <glyph glyph-name="paragraph" unicode="&#xb6;" horiz-adv-x="537" 
d="M677 729l-14 -64h-56l-179 -843h-64l179 843h-83l-179 -843h-64l93 437q-77 2 -121 49.5t-44 127.5q0 114 86 203.5t196 89.5h250z" />
    <glyph glyph-name="middot" unicode="&#xb7;" horiz-adv-x="278" 
d="M293 295l-22 -103h-105l22 103h105z" />
    <glyph glyph-name="cedilla" unicode="&#xb8;" horiz-adv-x="333" 
d="M155 -94q-2 0 -7 -0.5t-11.5 -2t-8.5 -1.5l-13 6l50 92h41l-30 -56q13 2 21 2q28 0 47.5 -15t19.5 -36q0 -47 -41 -78t-104 -31q-51 0 -118 34l28 38q57 -29 94 -29q28 0 45.5 15.5t17.5 39.5q0 9 -9 15.5t-22 6.5z" />
    <glyph glyph-name="onesuperior" unicode="&#xb9;" horiz-adv-x="250" 
d="M281 676h-97l10 46q68 9 88.5 21.5t45.5 61.5h44l-90 -425h-64z" />
    <glyph glyph-name="ordmasculine" unicode="&#xba;" horiz-adv-x="365" 
d="M388 354l-11 -51h-263l11 51h263zM149 509q0 99 52 166t135 67q63 0 89.5 -36t26.5 -79q0 -93 -52.5 -160.5t-137.5 -67.5q-50 0 -81.5 30.5t-31.5 79.5zM327 690q-50 0 -84 -47.5t-34 -117.5q0 -35 17.5 -54.5t49.5 -19.5q49 0 82.5 48t33.5 118q0 34 -17.5 53.5
t-47.5 19.5z" />
    <glyph glyph-name="guillemotright" unicode="&#xbb;" horiz-adv-x="444" 
d="M267 317l-19 -89l-179 -122l18 83l123 84l-88 83l18 82zM466 317l-19 -89l-179 -122l18 83l123 84l-88 83l18 82z" />
    <glyph glyph-name="onequarter" unicode="&#xbc;" horiz-adv-x="900" 
d="M302 597h-97l10 46q68 9 88.5 21.5t45.5 61.5h44l-90 -425h-64zM788 709h58l-606 -729h-58zM758 100h-184l13 60l256 265h47l-57 -270h65l-12 -55h-65l-21 -100h-63zM770 155l34 161l-156 -161h122z" />
    <glyph glyph-name="onehalf" unicode="&#xbd;" horiz-adv-x="927" 
d="M302 597h-97l10 46q68 9 88.5 21.5t45.5 61.5h44l-90 -425h-64zM788 709h58l-606 -729h-58zM889 60l-12 -60h-300q21 76 52 111t113 77l63 31q75 35 75 91q0 27 -18.5 43.5t-49.5 16.5q-42 0 -67 -23.5t-38 -75.5h-63q18 80 61 117t117 37q56 0 89.5 -28.5t33.5 -77.5
q0 -90 -124 -151l-68 -33q-71 -35 -95 -75h231z" />
    <glyph glyph-name="threequarters" unicode="&#xbe;" horiz-adv-x="947" 
d="M173 590q5 19 8 29t16.5 35.5t29.5 40t47 27t69 12.5q53 0 85 -25t32 -66q0 -38 -16 -64.5t-53 -49.5q44 -21 44 -70q0 -70 -52.5 -117t-130.5 -47q-60 0 -92 26.5t-32 76.5q0 8 3 41h64q-2 -22 -2 -33q0 -25 18.5 -40.5t49.5 -15.5q49 0 79 27.5t30 72.5q0 50 -78 50
q-15 0 -31 -1l11 53h16q107 0 107 79q0 22 -16.5 35t-45.5 13q-28 0 -48 -10t-30 -29.5t-13 -26.5t-6 -23h-63zM838 709h58l-606 -729h-58zM798 100h-184l13 60l256 265h47l-57 -270h65l-12 -55h-65l-21 -100h-63zM810 155l34 161l-156 -161h122z" />
    <glyph glyph-name="questiondown" unicode="&#xbf;" horiz-adv-x="611" 
d="M266 -217q-51 0 -89 15t-56.5 39.5t-27 48.5t-8.5 48q0 52 22 93.5t55 69.5t67 53t64 57.5t41 70.5l10 47h90l-12 -55q-9 -41 -37.5 -76t-62 -60.5t-66 -52t-54 -60.5t-21.5 -75q0 -38 30 -62t77 -24q66 0 103.5 37.5t54.5 119.5h85q-47 -234 -265 -234zM364 421l22 103
h90l-22 -103h-90z" />
    <glyph glyph-name="Agrave" unicode="&#xc0;" horiz-adv-x="667" 
d="M475 920l72 -148h-53l-125 148h106zM523 219h-285l-123 -219h-99l415 729h120l101 -729h-102zM513 297l-40 333l-191 -333h231z" />
    <glyph glyph-name="Aacute" unicode="&#xc1;" horiz-adv-x="667" 
d="M555 920h112l-180 -148h-60zM523 219h-285l-123 -219h-99l415 729h120l101 -729h-102zM513 297l-40 333l-191 -333h231z" />
    <glyph glyph-name="Acircumflex" unicode="&#xc2;" horiz-adv-x="667" 
d="M487 940h95l64 -150h-63l-56 99l-104 -99h-64zM523 219h-285l-123 -219h-99l415 729h120l101 -729h-102zM513 297l-40 333l-191 -333h231z" />
    <glyph glyph-name="Atilde" unicode="&#xc3;" horiz-adv-x="667" 
d="M442 904q19 0 70.5 -16t65.5 -16q15 0 24.5 7.5t23.5 29.5h53q-16 -49 -45 -78t-63 -29q-27 0 -73.5 16t-56.5 16q-13 0 -23 -5.5t-13.5 -9.5t-13.5 -18h-53q15 45 38 74t66 29zM523 219h-285l-123 -219h-99l415 729h120l101 -729h-102zM513 297l-40 333l-191 -333h231z
" />
    <glyph glyph-name="Adieresis" unicode="&#xc4;" horiz-adv-x="667" 
d="M667 904l-22 -103h-104l22 103h104zM496 904l-22 -103h-104l22 103h104zM523 219h-285l-123 -219h-99l415 729h120l101 -729h-102zM513 297l-40 333l-191 -333h231z" />
    <glyph glyph-name="Aring" unicode="&#xc5;" horiz-adv-x="667" 
d="M537 970q36 0 61 -23.5t25 -57.5q0 -50 -40 -89.5t-91 -39.5q-36 0 -60.5 24t-24.5 60q0 47 40.5 86.5t89.5 39.5zM526 908q-21 0 -38 -16t-17 -36q0 -16 10 -25.5t25 -9.5q20 0 37 16.5t17 35.5q0 15 -10 25t-24 10zM523 219h-285l-123 -219h-99l415 729h120l101 -729
h-102zM513 297l-40 333l-191 -333h231z" />
    <glyph glyph-name="AE" unicode="&#xc6;" horiz-adv-x="1000" 
d="M513 214h-269l-130 -214h-103l454 729h622l-17 -82h-371l-49 -233h351l-18 -82h-351l-53 -250h388l-17 -82h-482zM531 295l74 352h-100l-212 -352h238z" />
    <glyph glyph-name="Ccedilla" unicode="&#xc7;" horiz-adv-x="711" 
d="M369 58q55 0 97.5 17t72.5 50.5t48 64t38 76.5h98q-59 -148 -147.5 -217.5t-219.5 -71.5l-17 -33q13 2 21 2q28 0 47.5 -15t19.5 -36q0 -47 -41 -78t-104 -31q-51 0 -118 34l28 38q55 -29 94 -29q28 0 45.5 15.5t17.5 39.5q0 9 -9 15.5t-22 6.5q-3 0 -27 -4l-13 6l38 71
q-57 8 -99 33t-63.5 53.5t-34.5 65t-16 61.5t-3 50q0 64 16.5 132t51 134t83 117.5t118.5 83.5t151 32q32 0 60.5 -5.5t61 -21t56 -41t40.5 -69.5t20 -101h-96q-6 81 -44.5 119t-114.5 38q-70 0 -126 -33t-88.5 -80.5t-54.5 -105.5t-30 -103t-8 -78q0 -91 47.5 -146.5
t125.5 -55.5z" />
    <glyph glyph-name="Egrave" unicode="&#xc8;" horiz-adv-x="657" 
d="M485 920l72 -148h-53l-125 148h106zM245 332l-54 -250h429l-17 -82h-523l155 729h506l-17 -82h-412l-50 -233h396l-18 -82h-395z" />
    <glyph glyph-name="Eacute" unicode="&#xc9;" horiz-adv-x="657" 
d="M555 920h112l-180 -148h-60zM245 332l-54 -250h429l-17 -82h-523l155 729h506l-17 -82h-412l-50 -233h396l-18 -82h-395z" />
    <glyph glyph-name="Ecircumflex" unicode="&#xca;" horiz-adv-x="657" 
d="M495 940h95l64 -150h-63l-56 99l-104 -99h-64zM245 332l-54 -250h429l-17 -82h-523l155 729h506l-17 -82h-412l-50 -233h396l-18 -82h-395z" />
    <glyph glyph-name="Edieresis" unicode="&#xcb;" horiz-adv-x="657" 
d="M673 904l-22 -103h-104l22 103h104zM502 904l-22 -103h-104l22 103h104zM245 332l-54 -250h429l-17 -82h-523l155 729h506l-17 -82h-412l-50 -233h396l-18 -82h-395z" />
    <glyph glyph-name="Igrave" unicode="&#xcc;" horiz-adv-x="278" 
d="M305 920l72 -148h-53l-125 148h106zM349 729l-155 -729h-94l155 729h94z" />
    <glyph glyph-name="Iacute" unicode="&#xcd;" horiz-adv-x="278" 
d="M355 920h112l-180 -148h-60zM349 729l-155 -729h-94l155 729h94z" />
    <glyph glyph-name="Icircumflex" unicode="&#xce;" horiz-adv-x="278" 
d="M297 940h95l64 -150h-63l-56 99l-104 -99h-64zM349 729l-155 -729h-94l155 729h94z" />
    <glyph glyph-name="Idieresis" unicode="&#xcf;" horiz-adv-x="278" 
d="M477 904l-22 -103h-104l22 103h104zM306 904l-22 -103h-104l22 103h104zM349 729l-155 -729h-94l155 729h94z" />
    <glyph glyph-name="Eth" unicode="&#xd0;" horiz-adv-x="722" 
d="M526 729q67 0 115.5 -25t72.5 -64.5t34.5 -77t10.5 -74.5q0 -57 -12.5 -119.5t-42 -129t-72.5 -119t-111 -86.5t-150 -34h-282l72 341h-68l13 67h70l68 321h282zM255 341l-55 -259h172q70 0 124.5 32t84.5 77.5t50 103.5t26 103t6 82q0 79 -45.5 123t-125.5 44h-171
l-51 -239h166l-14 -67h-167z" />
    <glyph glyph-name="Ntilde" unicode="&#xd1;" horiz-adv-x="730" 
d="M476 904q19 0 70.5 -16t65.5 -16q15 0 24.5 7.5t23.5 29.5h53q-16 -49 -45 -78t-63 -29q-27 0 -73.5 16t-56.5 16q-13 0 -23 -5.5t-13.5 -9.5t-13.5 -18h-53q15 45 38 74t66 29zM805 729l-155 -729h-106l-249 591l-126 -591h-89l155 729h104l250 -598l127 598h89z" />
    <glyph glyph-name="Ograve" unicode="&#xd2;" horiz-adv-x="770" 
d="M535 920l72 -148h-53l-125 148h106zM387 -23q-40 0 -77.5 7.5t-76.5 27.5t-68 51t-47 82.5t-18 117.5q0 114 51 222t152.5 182t229.5 74q83 0 143 -26t90.5 -69t44 -88t13.5 -94q0 -26 -4.5 -60.5t-17.5 -82.5t-33.5 -94t-55 -92t-78.5 -80.5t-108 -56t-140 -21.5z
M728 446q0 61 -19.5 105t-52 66.5t-66 32.5t-69.5 10q-95 0 -171 -57.5t-115 -145.5t-39 -186q0 -60 20 -104.5t52 -66.5t65 -32t67 -10q66 0 120 23t88.5 60.5t59 80.5t37 89t18 79t5.5 56z" />
    <glyph glyph-name="Oacute" unicode="&#xd3;" horiz-adv-x="770" 
d="M595 920h112l-180 -148h-60zM387 -23q-40 0 -77.5 7.5t-76.5 27.5t-68 51t-47 82.5t-18 117.5q0 114 51 222t152.5 182t229.5 74q83 0 143 -26t90.5 -69t44 -88t13.5 -94q0 -26 -4.5 -60.5t-17.5 -82.5t-33.5 -94t-55 -92t-78.5 -80.5t-108 -56t-140 -21.5zM728 446
q0 61 -19.5 105t-52 66.5t-66 32.5t-69.5 10q-95 0 -171 -57.5t-115 -145.5t-39 -186q0 -60 20 -104.5t52 -66.5t65 -32t67 -10q66 0 120 23t88.5 60.5t59 80.5t37 89t18 79t5.5 56z" />
    <glyph glyph-name="Ocircumflex" unicode="&#xd4;" horiz-adv-x="770" 
d="M526 940h95l64 -150h-63l-56 99l-104 -99h-64zM387 -23q-40 0 -77.5 7.5t-76.5 27.5t-68 51t-47 82.5t-18 117.5q0 114 51 222t152.5 182t229.5 74q83 0 143 -26t90.5 -69t44 -88t13.5 -94q0 -26 -4.5 -60.5t-17.5 -82.5t-33.5 -94t-55 -92t-78.5 -80.5t-108 -56
t-140 -21.5zM728 446q0 61 -19.5 105t-52 66.5t-66 32.5t-69.5 10q-95 0 -171 -57.5t-115 -145.5t-39 -186q0 -60 20 -104.5t52 -66.5t65 -32t67 -10q66 0 120 23t88.5 60.5t59 80.5t37 89t18 79t5.5 56z" />
    <glyph glyph-name="Otilde" unicode="&#xd5;" horiz-adv-x="770" 
d="M495 904q19 0 70.5 -16t65.5 -16q15 0 24.5 7.5t23.5 29.5h53q-16 -49 -45 -78t-63 -29q-27 0 -73.5 16t-56.5 16q-13 0 -23 -5.5t-13.5 -9.5t-13.5 -18h-53q15 45 38 74t66 29zM387 -23q-40 0 -77.5 7.5t-76.5 27.5t-68 51t-47 82.5t-18 117.5q0 114 51 222t152.5 182
t229.5 74q83 0 143 -26t90.5 -69t44 -88t13.5 -94q0 -26 -4.5 -60.5t-17.5 -82.5t-33.5 -94t-55 -92t-78.5 -80.5t-108 -56t-140 -21.5zM728 446q0 61 -19.5 105t-52 66.5t-66 32.5t-69.5 10q-95 0 -171 -57.5t-115 -145.5t-39 -186q0 -60 20 -104.5t52 -66.5t65 -32t67 -10
q66 0 120 23t88.5 60.5t59 80.5t37 89t18 79t5.5 56z" />
    <glyph glyph-name="Odieresis" unicode="&#xd6;" horiz-adv-x="770" 
d="M709 904l-22 -103h-104l22 103h104zM538 904l-22 -103h-104l22 103h104zM387 -23q-40 0 -77.5 7.5t-76.5 27.5t-68 51t-47 82.5t-18 117.5q0 114 51 222t152.5 182t229.5 74q83 0 143 -26t90.5 -69t44 -88t13.5 -94q0 -26 -4.5 -60.5t-17.5 -82.5t-33.5 -94t-55 -92
t-78.5 -80.5t-108 -56t-140 -21.5zM728 446q0 61 -19.5 105t-52 66.5t-66 32.5t-69.5 10q-95 0 -171 -57.5t-115 -145.5t-39 -186q0 -60 20 -104.5t52 -66.5t65 -32t67 -10q66 0 120 23t88.5 60.5t59 80.5t37 89t18 79t5.5 56z" />
    <glyph glyph-name="multiply" unicode="&#xd7;" horiz-adv-x="584" 
d="M529 427l39 -50l-178 -146l117 -147l-61 -50l-116 147l-178 -146l-39 49l178 147l-115 146l60 49l115 -145z" />
    <glyph glyph-name="Oslash" unicode="&#xd8;" horiz-adv-x="778" 
d="M822 463q0 -25 -5 -59t-18 -81t-33 -93.5t-55 -92.5t-78 -81t-106.5 -57t-138.5 -22q-142 0 -220 80l-91 -81l-35 39l94 85q-38 65 -38 168q0 60 17.5 125t54 127t86 111.5t121 79.5t152.5 30q73 0 133 -22.5t93 -61.5l87 78l35 -39l-92 -83q37 -64 37 -150zM212 168
l470 424q-57 68 -164 68q-136 0 -230 -114.5t-94 -280.5q0 -55 18 -97zM710 546l-470 -423q26 -30 69 -47.5t92 -17.5q95 0 171.5 58.5t115 145.5t38.5 181q0 63 -16 103z" />
    <glyph glyph-name="Ugrave" unicode="&#xd9;" horiz-adv-x="721" 
d="M515 920l72 -148h-53l-125 148h106zM359 -23q-108 0 -173.5 50t-65.5 128q0 30 14 96l102 478h94l-109 -512q-5 -23 -5 -44q0 -52 44.5 -83.5t116.5 -31.5q85 0 142.5 42.5t73.5 116.5l109 512h94l-109 -512q-23 -109 -112.5 -174.5t-215.5 -65.5z" />
    <glyph glyph-name="Uacute" unicode="&#xda;" horiz-adv-x="721" 
d="M565 920h112l-180 -148h-60zM359 -23q-108 0 -173.5 50t-65.5 128q0 30 14 96l102 478h94l-109 -512q-5 -23 -5 -44q0 -52 44.5 -83.5t116.5 -31.5q85 0 142.5 42.5t73.5 116.5l109 512h94l-109 -512q-23 -109 -112.5 -174.5t-215.5 -65.5z" />
    <glyph glyph-name="Ucircumflex" unicode="&#xdb;" horiz-adv-x="721" 
d="M517 940h95l64 -150h-63l-56 99l-104 -99h-64zM359 -23q-108 0 -173.5 50t-65.5 128q0 30 14 96l102 478h94l-109 -512q-5 -23 -5 -44q0 -52 44.5 -83.5t116.5 -31.5q85 0 142.5 42.5t73.5 116.5l109 512h94l-109 -512q-23 -109 -112.5 -174.5t-215.5 -65.5z" />
    <glyph glyph-name="Udieresis" unicode="&#xdc;" horiz-adv-x="721" 
d="M695 904l-22 -103h-104l22 103h104zM524 904l-22 -103h-104l22 103h104zM359 -23q-108 0 -173.5 50t-65.5 128q0 30 14 96l102 478h94l-109 -512q-5 -23 -5 -44q0 -52 44.5 -83.5t116.5 -31.5q85 0 142.5 42.5t73.5 116.5l109 512h94l-109 -512q-23 -109 -112.5 -174.5
t-215.5 -65.5z" />
    <glyph glyph-name="Yacute" unicode="&#xdd;" horiz-adv-x="678" 
d="M545 920h112l-180 -148h-60zM450 286l-61 -286h-94l61 286l-186 443h112l136 -357l289 357h111z" />
    <glyph glyph-name="Thorn" unicode="&#xde;" horiz-adv-x="646" 
d="M697 450q0 -106 -71 -182.5t-183 -76.5h-228l-41 -191h-94l155 729h94l-25 -118h208q185 0 185 -161zM426 273q80 0 127.5 46t47.5 113q0 97 -120 97h-195l-54 -256h194z" />
    <glyph glyph-name="ssharp" unicode="&#xdf;" horiz-adv-x="579" 
d="M356 427q90 0 137 38t47 101q0 39 -29 62.5t-80 23.5q-132 0 -165 -142l-118 -510h-88l123 532q20 88 91 142t175 54q87 0 135 -36.5t48 -99.5q0 -40 -14 -75t-36.5 -58.5t-39 -36.5t-32.5 -22q40 -11 61 -48.5t21 -81.5q0 -57 -19.5 -106.5t-51 -83t-71 -57.5t-79 -35.5
t-75.5 -11.5q-31 0 -69 16l17 75q29 -11 62 -11q75 0 133.5 56t58.5 146q0 54 -40.5 75t-118.5 21z" />
    <glyph glyph-name="agrave" unicode="&#xe0;" horiz-adv-x="554" 
d="M385 740l72 -148h-53l-125 148h106zM370 462q-108 0 -137 -93h-84q14 83 76.5 126.5t166.5 43.5q79 0 126.5 -31t47.5 -82q0 -10 -6 -37l-64 -301q-1 -3 -1 -10q0 -29 38 -29q8 0 17 2l-13 -65q-8 -1 -18 -3.5t-17.5 -4t-17.5 -1.5q-33 0 -51.5 17t-21.5 31t-3 29
q-1 -1 -8.5 -7.5t-11 -9t-12.5 -9.5t-15 -10.5t-17.5 -10t-21 -10t-23.5 -8t-27.5 -7t-30 -4t-34.5 -1.5q-67 0 -105.5 34t-38.5 94q0 69 54.5 123.5t183.5 66.5q12 1 40 3t39.5 3.5t31 5.5t29 10t18.5 17t12 27l3 18q2 16 2 22q0 27 -30 44t-76 17zM449 258
q-29 -10 -89 -19.5t-101 -17t-74.5 -34.5t-33.5 -72q0 -32 23 -49t66 -17q66 0 122.5 34.5t66.5 80.5z" />
    <glyph glyph-name="aacute" unicode="&#xe1;" horiz-adv-x="554" 
d="M456 740h112l-180 -148h-60zM370 462q-108 0 -137 -93h-84q14 83 76.5 126.5t166.5 43.5q79 0 126.5 -31t47.5 -82q0 -10 -6 -37l-64 -301q-1 -3 -1 -10q0 -29 38 -29q8 0 17 2l-13 -65q-8 -1 -18 -3.5t-17.5 -4t-17.5 -1.5q-33 0 -51.5 17t-21.5 31t-3 29
q-1 -1 -8.5 -7.5t-11 -9t-12.5 -9.5t-15 -10.5t-17.5 -10t-21 -10t-23.5 -8t-27.5 -7t-30 -4t-34.5 -1.5q-67 0 -105.5 34t-38.5 94q0 69 54.5 123.5t183.5 66.5q12 1 40 3t39.5 3.5t31 5.5t29 10t18.5 17t12 27l3 18q2 16 2 22q0 27 -30 44t-76 17zM449 258
q-29 -10 -89 -19.5t-101 -17t-74.5 -34.5t-33.5 -72q0 -32 23 -49t66 -17q66 0 122.5 34.5t66.5 80.5z" />
    <glyph glyph-name="acircumflex" unicode="&#xe2;" horiz-adv-x="554" 
d="M391 742h95l64 -150h-63l-56 99l-104 -99h-64zM370 462q-108 0 -137 -93h-84q14 83 76.5 126.5t166.5 43.5q79 0 126.5 -31t47.5 -82q0 -10 -6 -37l-64 -301q-1 -3 -1 -10q0 -29 38 -29q8 0 17 2l-13 -65q-8 -1 -18 -3.5t-17.5 -4t-17.5 -1.5q-33 0 -51.5 17t-21.5 31
t-3 29q-1 -1 -8.5 -7.5t-11 -9t-12.5 -9.5t-15 -10.5t-17.5 -10t-21 -10t-23.5 -8t-27.5 -7t-30 -4t-34.5 -1.5q-67 0 -105.5 34t-38.5 94q0 69 54.5 123.5t183.5 66.5q12 1 40 3t39.5 3.5t31 5.5t29 10t18.5 17t12 27l3 18q2 16 2 22q0 27 -30 44t-76 17zM449 258
q-29 -10 -89 -19.5t-101 -17t-74.5 -34.5t-33.5 -72q0 -32 23 -49t66 -17q66 0 122.5 34.5t66.5 80.5z" />
    <glyph glyph-name="atilde" unicode="&#xe3;" horiz-adv-x="554" 
d="M352 702q19 0 70.5 -16t65.5 -16q15 0 24.5 7.5t23.5 29.5h53q-16 -49 -45 -78t-63 -29q-27 0 -73.5 16t-56.5 16q-13 0 -23 -5.5t-13.5 -9.5t-13.5 -18h-53q15 45 38 74t66 29zM370 462q-108 0 -137 -93h-84q14 83 76.5 126.5t166.5 43.5q79 0 126.5 -31t47.5 -82
q0 -10 -6 -37l-64 -301q-1 -3 -1 -10q0 -29 38 -29q8 0 17 2l-13 -65q-8 -1 -18 -3.5t-17.5 -4t-17.5 -1.5q-33 0 -51.5 17t-21.5 31t-3 29q-1 -1 -8.5 -7.5t-11 -9t-12.5 -9.5t-15 -10.5t-17.5 -10t-21 -10t-23.5 -8t-27.5 -7t-30 -4t-34.5 -1.5q-67 0 -105.5 34t-38.5 94
q0 69 54.5 123.5t183.5 66.5q12 1 40 3t39.5 3.5t31 5.5t29 10t18.5 17t12 27l3 18q2 16 2 22q0 27 -30 44t-76 17zM449 258q-29 -10 -89 -19.5t-101 -17t-74.5 -34.5t-33.5 -72q0 -32 23 -49t66 -17q66 0 122.5 34.5t66.5 80.5z" />
    <glyph glyph-name="adieresis" unicode="&#xe4;" horiz-adv-x="554" 
d="M566 702l-22 -103h-104l22 103h104zM395 702l-22 -103h-104l22 103h104zM370 462q-108 0 -137 -93h-84q14 83 76.5 126.5t166.5 43.5q79 0 126.5 -31t47.5 -82q0 -10 -6 -37l-64 -301q-1 -3 -1 -10q0 -29 38 -29q8 0 17 2l-13 -65q-8 -1 -18 -3.5t-17.5 -4t-17.5 -1.5
q-33 0 -51.5 17t-21.5 31t-3 29q-1 -1 -8.5 -7.5t-11 -9t-12.5 -9.5t-15 -10.5t-17.5 -10t-21 -10t-23.5 -8t-27.5 -7t-30 -4t-34.5 -1.5q-67 0 -105.5 34t-38.5 94q0 69 54.5 123.5t183.5 66.5q12 1 40 3t39.5 3.5t31 5.5t29 10t18.5 17t12 27l3 18q2 16 2 22q0 27 -30 44
t-76 17zM449 258q-29 -10 -89 -19.5t-101 -17t-74.5 -34.5t-33.5 -72q0 -32 23 -49t66 -17q66 0 122.5 34.5t66.5 80.5z" />
    <glyph glyph-name="aring" unicode="&#xe5;" horiz-adv-x="554" 
d="M448 772q36 0 61 -23.5t25 -57.5q0 -50 -40 -89.5t-91 -39.5q-36 0 -60.5 24t-24.5 60q0 47 40.5 86.5t89.5 39.5zM437 710q-21 0 -38 -16t-17 -36q0 -16 10 -25.5t25 -9.5q20 0 37 16.5t17 35.5q0 15 -10 25t-24 10zM370 462q-108 0 -137 -93h-84q14 83 76.5 126.5
t166.5 43.5q79 0 126.5 -31t47.5 -82q0 -10 -6 -37l-64 -301q-1 -3 -1 -10q0 -29 38 -29q8 0 17 2l-13 -65q-8 -1 -18 -3.5t-17.5 -4t-17.5 -1.5q-33 0 -51.5 17t-21.5 31t-3 29q-1 -1 -8.5 -7.5t-11 -9t-12.5 -9.5t-15 -10.5t-17.5 -10t-21 -10t-23.5 -8t-27.5 -7t-30 -4
t-34.5 -1.5q-67 0 -105.5 34t-38.5 94q0 69 54.5 123.5t183.5 66.5q12 1 40 3t39.5 3.5t31 5.5t29 10t18.5 17t12 27l3 18q2 16 2 22q0 27 -30 44t-76 17zM449 258q-29 -10 -89 -19.5t-101 -17t-74.5 -34.5t-33.5 -72q0 -32 23 -49t66 -17q66 0 122.5 34.5t66.5 80.5z" />
    <glyph glyph-name="ae" unicode="&#xe6;" horiz-adv-x="897" 
d="M513 163q0 -12 5 -27.5t17 -35t39 -33t64 -13.5q100 0 155 105h84q-24 -82 -94 -132t-161 -50q-117 0 -174 102q-105 -102 -241 -102q-65 0 -103.5 34.5t-38.5 93.5q0 31 11 60t37 57t77 47.5t122 25.5q8 0 32 1.5t31.5 2.5t25.5 4t25.5 7t18 10.5t16 16.5t8.5 24l5 25
q2 14 2 22q0 24 -28 39t-76 15q-59 0 -92 -22t-49 -71h-84q18 63 40 92q60 78 206 78q65 0 107.5 -21t51.5 -44q73 65 182 65q76 0 131.5 -50t55.5 -119q0 -40 -17 -136h-386q-5 -22 -5 -53v-18zM447 257q-24 -9 -67.5 -15.5t-79.5 -13t-71 -18t-55.5 -35.5t-20.5 -60
q0 -66 90 -66q63 0 118.5 35t65.5 80zM536 306h294q3 22 3 33q0 56 -31 89.5t-84 33.5q-62 0 -110.5 -41.5t-71.5 -114.5z" />
    <glyph glyph-name="ccedilla" unicode="&#xe7;" horiz-adv-x="510" 
d="M366 462q-48 0 -86 -24t-59 -58t-34.5 -75.5t-18 -72t-4.5 -51.5q0 -58 30.5 -92.5t82.5 -34.5q111 0 157 126h84q-24 -97 -87 -148.5t-160 -54.5l-18 -33q13 2 21 2q28 0 47.5 -15t19.5 -36q0 -47 -41 -78t-104 -31q-51 0 -118 34l28 38q57 -29 94 -29q28 0 45.5 15.5
t17.5 39.5q0 9 -9.5 15.5t-21.5 6.5q-3 0 -27 -4l-13 6l38 70q-81 16 -117.5 71.5t-36.5 120.5q0 159 84.5 264t220.5 105q42 0 74.5 -12.5t50.5 -29.5t29.5 -39t15 -37.5t3.5 -27.5q0 -1 -0.5 -5t-1 -11.5t-0.5 -13.5l-1 -15h-84q1 9 1 22q0 43 -27.5 67.5t-74.5 24.5z" />
    <glyph glyph-name="egrave" unicode="&#xe8;" horiz-adv-x="547" 
d="M385 740l72 -148h-53l-125 148h106zM77 173q0 28 6.5 66.5t27 93t52 99t89 76t130.5 31.5q81 0 136 -49.5t55 -121.5q0 -38 -17 -134h-386q-5 -19 -5 -46q0 -64 32.5 -99t91.5 -35q101 0 156 105h84q-23 -81 -93.5 -131.5t-160.5 -50.5q-89 0 -143.5 56.5t-54.5 139.5z
M188 306h294q3 24 3 33q0 56 -31.5 89.5t-84.5 33.5q-61 0 -111 -43.5t-70 -112.5z" />
    <glyph glyph-name="eacute" unicode="&#xe9;" horiz-adv-x="547" 
d="M456 740h112l-180 -148h-60zM77 173q0 28 6.5 66.5t27 93t52 99t89 76t130.5 31.5q81 0 136 -49.5t55 -121.5q0 -38 -17 -134h-386q-5 -19 -5 -46q0 -64 32.5 -99t91.5 -35q101 0 156 105h84q-23 -81 -93.5 -131.5t-160.5 -50.5q-89 0 -143.5 56.5t-54.5 139.5zM188 306
h294q3 24 3 33q0 56 -31.5 89.5t-84.5 33.5q-61 0 -111 -43.5t-70 -112.5z" />
    <glyph glyph-name="ecircumflex" unicode="&#xea;" horiz-adv-x="547" 
d="M388 742h95l64 -150h-63l-56 99l-104 -99h-64zM77 173q0 28 6.5 66.5t27 93t52 99t89 76t130.5 31.5q81 0 136 -49.5t55 -121.5q0 -38 -17 -134h-386q-5 -19 -5 -46q0 -64 32.5 -99t91.5 -35q101 0 156 105h84q-23 -81 -93.5 -131.5t-160.5 -50.5q-89 0 -143.5 56.5
t-54.5 139.5zM188 306h294q3 24 3 33q0 56 -31.5 89.5t-84.5 33.5q-61 0 -111 -43.5t-70 -112.5z" />
    <glyph glyph-name="edieresis" unicode="&#xeb;" horiz-adv-x="547" 
d="M571 725l-22 -103h-104l22 103h104zM400 725l-22 -103h-104l22 103h104zM77 173q0 28 6.5 66.5t27 93t52 99t89 76t130.5 31.5q81 0 136 -49.5t55 -121.5q0 -38 -17 -134h-386q-5 -19 -5 -46q0 -64 32.5 -99t91.5 -35q101 0 156 105h84q-23 -81 -93.5 -131.5
t-160.5 -50.5q-89 0 -143.5 56.5t-54.5 139.5zM188 306h294q3 24 3 33q0 56 -31.5 89.5t-84.5 33.5q-61 0 -111 -43.5t-70 -112.5z" />
    <glyph glyph-name="igrave" unicode="&#xec;" horiz-adv-x="222" 
d="M261 524l-111 -524h-84l111 524h84zM265 740l72 -148h-53l-125 148h106z" />
    <glyph glyph-name="iacute" unicode="&#xed;" horiz-adv-x="222" 
d="M273 740h112l-180 -148h-60zM261 524l-111 -524h-84l111 524h84z" />
    <glyph glyph-name="icircumflex" unicode="&#xee;" horiz-adv-x="262" 
d="M281 524l-111 -524h-84l111 524h84zM241 742h95l64 -150h-63l-56 99l-104 -99h-64z" />
    <glyph glyph-name="idieresis" unicode="&#xef;" horiz-adv-x="262" 
d="M423 725l-22 -103h-104l22 103h104zM252 725l-22 -103h-104l22 103h104zM281 524l-111 -524h-84l111 524h84z" />
    <glyph glyph-name="eth" unicode="&#xf0;" horiz-adv-x="556" 
d="M80 164q0 24 4.5 55.5t15.5 75t32.5 84.5t52 76.5t78 57t106.5 21.5q32 0 66 -17q-38 50 -84 92l-100 -45l-32 39l89 41q-17 15 -27 22t-21.5 14t-26.5 18l42 45q84 -53 102 -67l99 43l39 -38l-95 -41q156 -134 156 -293q0 -30 -6.5 -69.5t-26.5 -94.5t-51.5 -99
t-88.5 -75.5t-130 -31.5q-87 0 -140 51.5t-53 135.5zM283 54q49 0 87.5 23.5t60 57t35 75t18 71.5t4.5 52q0 61 -31 95t-86 34q-48 0 -86.5 -24t-59.5 -57.5t-34.5 -75t-18 -71t-4.5 -50.5q0 -60 31 -95t84 -35z" />
    <glyph glyph-name="ntilde" unicode="&#xf1;" horiz-adv-x="540" 
d="M352 702q19 0 70.5 -16t65.5 -16q15 0 24.5 7.5t23.5 29.5h53q-16 -49 -45 -78t-63 -29q-27 0 -73.5 16t-56.5 16q-13 0 -23 -5.5t-13.5 -9.5t-13.5 -18h-53q15 45 38 74t66 29zM171 524h76l-13 -65q78 80 194 80q62 0 99 -34t37 -91q0 -21 -4 -38l-80 -376h-84l74 349
q6 24 6 37q0 35 -25 58t-62 23q-68 0 -117.5 -48t-66.5 -130l-61 -289h-84z" />
    <glyph glyph-name="ograve" unicode="&#xf2;" horiz-adv-x="556" 
d="M395 740l72 -148h-53l-125 148h106zM384 539q87 0 139.5 -52t52.5 -135q0 -39 -8 -83.5t-30 -98t-54.5 -95t-88.5 -70t-126 -28.5q-84 0 -136.5 52t-52.5 135q0 38 8 82.5t29.5 98t54 95.5t88 70.5t124.5 28.5zM283 54q49 0 87.5 23.5t60 57t35 75t18 71.5t4.5 52
q0 61 -31 95t-86 34q-48 0 -86.5 -24t-59.5 -57.5t-34.5 -75t-18 -71t-4.5 -50.5q0 -60 31 -95t84 -35z" />
    <glyph glyph-name="oacute" unicode="&#xf3;" horiz-adv-x="556" 
d="M456 740h112l-180 -148h-60zM384 539q87 0 139.5 -52t52.5 -135q0 -39 -8 -83.5t-30 -98t-54.5 -95t-88.5 -70t-126 -28.5q-84 0 -136.5 52t-52.5 135q0 38 8 82.5t29.5 98t54 95.5t88 70.5t124.5 28.5zM283 54q49 0 87.5 23.5t60 57t35 75t18 71.5t4.5 52q0 61 -31 95
t-86 34q-48 0 -86.5 -24t-59.5 -57.5t-34.5 -75t-18 -71t-4.5 -50.5q0 -60 31 -95t84 -35z" />
    <glyph glyph-name="ocircumflex" unicode="&#xf4;" horiz-adv-x="556" 
d="M383 742h95l64 -150h-63l-56 99l-104 -99h-64zM384 539q87 0 139.5 -52t52.5 -135q0 -39 -8 -83.5t-30 -98t-54.5 -95t-88.5 -70t-126 -28.5q-84 0 -136.5 52t-52.5 135q0 38 8 82.5t29.5 98t54 95.5t88 70.5t124.5 28.5zM283 54q49 0 87.5 23.5t60 57t35 75t18 71.5
t4.5 52q0 61 -31 95t-86 34q-48 0 -86.5 -24t-59.5 -57.5t-34.5 -75t-18 -71t-4.5 -50.5q0 -60 31 -95t84 -35z" />
    <glyph glyph-name="otilde" unicode="&#xf5;" horiz-adv-x="556" 
d="M342 702q19 0 70.5 -16t65.5 -16q15 0 24.5 7.5t23.5 29.5h53q-16 -49 -45 -78t-63 -29q-27 0 -73.5 16t-56.5 16q-13 0 -23 -5.5t-13.5 -9.5t-13.5 -18h-53q15 45 38 74t66 29zM384 539q87 0 139.5 -52t52.5 -135q0 -39 -8 -83.5t-30 -98t-54.5 -95t-88.5 -70
t-126 -28.5q-84 0 -136.5 52t-52.5 135q0 38 8 82.5t29.5 98t54 95.5t88 70.5t124.5 28.5zM283 54q49 0 87.5 23.5t60 57t35 75t18 71.5t4.5 52q0 61 -31 95t-86 34q-48 0 -86.5 -24t-59.5 -57.5t-34.5 -75t-18 -71t-4.5 -50.5q0 -60 31 -95t84 -35z" />
    <glyph glyph-name="odieresis" unicode="&#xf6;" horiz-adv-x="556" 
d="M562 725l-22 -103h-104l22 103h104zM391 725l-22 -103h-104l22 103h104zM384 539q87 0 139.5 -52t52.5 -135q0 -39 -8 -83.5t-30 -98t-54.5 -95t-88.5 -70t-126 -28.5q-84 0 -136.5 52t-52.5 135q0 38 8 82.5t29.5 98t54 95.5t88 70.5t124.5 28.5zM283 54q49 0 87.5 23.5
t60 57t35 75t18 71.5t4.5 52q0 61 -31 95t-86 34q-48 0 -86.5 -24t-59.5 -57.5t-34.5 -75t-18 -71t-4.5 -50.5q0 -60 31 -95t84 -35z" />
    <glyph glyph-name="divide" unicode="&#xf7;" horiz-adv-x="584" 
d="M591 269l-15 -72h-484l15 72h484zM305 104q22 0 37 -15.5t15 -37.5q0 -20 -15.5 -35.5t-36.5 -15.5t-36.5 15.5t-15.5 36.5t15.5 36.5t36.5 15.5zM379 462q22 0 37 -15.5t15 -37.5q0 -20 -15.5 -35.5t-36.5 -15.5t-36.5 15.5t-15.5 36.5q0 22 15 37t37 15z" />
    <glyph glyph-name="oslash" unicode="&#xf8;" horiz-adv-x="561" 
d="M577 354q0 -152 -84 -264.5t-219 -112.5q-105 0 -151 64l-78 -71l-26 28l83 76q-21 45 -21 90q0 38 8 82t29.5 97.5t53.5 96t87 71t124 28.5q105 0 154 -67l76 69l26 -30l-81 -74q19 -42 19 -83zM369 462q-48 0 -85.5 -24t-58 -57.5t-34 -75.5t-18 -72.5t-4.5 -52.5
q0 -21 6 -39l295 269q-29 52 -101 52zM289 54q56 0 98 32.5t62.5 81t30 89.5t9.5 71q0 17 -5 42l-294 -268q29 -48 99 -48z" />
    <glyph glyph-name="ugrave" unicode="&#xf9;" horiz-adv-x="538" 
d="M385 740l72 -148h-53l-125 148h106zM478 0h-76l12 57q-83 -80 -193 -80q-65 0 -101.5 29t-36.5 80q0 19 3 34l86 404h84l-79 -371q-3 -15 -3 -27q0 -35 24 -56t65 -21q64 0 113 48.5t66 129.5l63 297h84z" />
    <glyph glyph-name="uacute" unicode="&#xfa;" horiz-adv-x="538" 
d="M456 740h112l-180 -148h-60zM478 0h-76l12 57q-83 -80 -193 -80q-65 0 -101.5 29t-36.5 80q0 19 3 34l86 404h84l-79 -371q-3 -15 -3 -27q0 -35 24 -56t65 -21q64 0 113 48.5t66 129.5l63 297h84z" />
    <glyph glyph-name="ucircumflex" unicode="&#xfb;" horiz-adv-x="538" 
d="M386 749h95l64 -150h-63l-56 99l-104 -99h-64zM478 0h-76l12 57q-83 -80 -193 -80q-65 0 -101.5 29t-36.5 80q0 19 3 34l86 404h84l-79 -371q-3 -15 -3 -27q0 -35 24 -56t65 -21q64 0 113 48.5t66 129.5l63 297h84z" />
    <glyph glyph-name="udieresis" unicode="&#xfc;" horiz-adv-x="538" 
d="M566 725l-22 -103h-104l22 103h104zM395 725l-22 -103h-104l22 103h104zM478 0h-76l12 57q-83 -80 -193 -80q-65 0 -101.5 29t-36.5 80q0 19 3 34l86 404h84l-79 -371q-3 -15 -3 -27q0 -35 24 -56t65 -21q64 0 113 48.5t66 129.5l63 297h84z" />
    <glyph glyph-name="yacute" unicode="&#xfd;" horiz-adv-x="479" 
d="M426 740h112l-180 -148h-60zM491 524h89l-368 -634q-63 -108 -165 -108q-27 0 -49 10l16 75q36 -4 44 -4q28 0 44 10.5t36 41.5l52 81l-68 528h90l46 -407z" />
    <glyph glyph-name="thorn" unicode="&#xfe;" horiz-adv-x="561" 
d="M594 344q0 -155 -83.5 -261t-208.5 -106q-53 0 -86.5 21t-56.5 70l-60 -281h-84l200 942h84l-61 -289q22 43 73.5 71t108.5 28q80 0 127 -52.5t47 -142.5zM310 54q57 0 99 33.5t61 82.5t27.5 88t8.5 66q0 65 -31.5 101.5t-87.5 36.5q-44 0 -80 -23t-57 -56t-35 -73
t-19 -71.5t-5 -54.5q0 -60 32 -95t87 -35z" />
    <glyph glyph-name="ydieresis" unicode="&#xff;" horiz-adv-x="479" 
d="M542 725l-22 -103h-104l22 103h104zM371 725l-22 -103h-104l22 103h104zM491 524h89l-368 -634q-63 -108 -165 -108q-27 0 -49 10l16 75q36 -4 44 -4q28 0 44 10.5t36 41.5l52 81l-68 528h90l46 -407z" />
    <glyph glyph-name="Amacron" unicode="&#x100;" horiz-adv-x="667" 
d="M660 869l-15 -69h-275l15 69h275zM523 219h-285l-123 -219h-99l415 729h120l101 -729h-102zM513 297l-40 333l-191 -333h231z" />
    <glyph glyph-name="amacron" unicode="&#x101;" horiz-adv-x="554" 
d="M560 676l-15 -69h-275l15 69h275zM370 462q-108 0 -137 -93h-84q14 83 76.5 126.5t166.5 43.5q79 0 126.5 -31t47.5 -82q0 -10 -6 -37l-64 -301q-1 -3 -1 -10q0 -29 38 -29q8 0 17 2l-13 -65q-8 -1 -18 -3.5t-17.5 -4t-17.5 -1.5q-33 0 -51.5 17t-21.5 31t-3 29
q-1 -1 -8.5 -7.5t-11 -9t-12.5 -9.5t-15 -10.5t-17.5 -10t-21 -10t-23.5 -8t-27.5 -7t-30 -4t-34.5 -1.5q-67 0 -105.5 34t-38.5 94q0 69 54.5 123.5t183.5 66.5q12 1 40 3t39.5 3.5t31 5.5t29 10t18.5 17t12 27l3 18q2 16 2 22q0 27 -30 44t-76 17zM449 258
q-29 -10 -89 -19.5t-101 -17t-74.5 -34.5t-33.5 -72q0 -32 23 -49t66 -17q66 0 122.5 34.5t66.5 80.5z" />
    <glyph glyph-name="Abreve" unicode="&#x102;" horiz-adv-x="667" 
d="M687 916q-12 -48 -42 -79.5t-64 -43.5t-73 -12q-56 0 -91.5 27.5t-35.5 71.5q0 12 5 36h53v-13q0 -22 22.5 -36t59.5 -14q94 0 110 63h56zM523 219h-285l-123 -219h-99l415 729h120l101 -729h-102zM513 297l-40 333l-191 -333h231z" />
    <glyph glyph-name="abreve" unicode="&#x103;" horiz-adv-x="554" 
d="M586 734q-12 -48 -42 -79.5t-64 -43.5t-73 -12q-56 0 -91.5 27.5t-35.5 71.5q0 12 5 36h53v-13q0 -22 22.5 -36t59.5 -14q94 0 110 63h56zM370 462q-108 0 -137 -93h-84q14 83 76.5 126.5t166.5 43.5q79 0 126.5 -31t47.5 -82q0 -10 -6 -37l-64 -301q-1 -3 -1 -10
q0 -29 38 -29q8 0 17 2l-13 -65q-8 -1 -18 -3.5t-17.5 -4t-17.5 -1.5q-33 0 -51.5 17t-21.5 31t-3 29q-1 -1 -8.5 -7.5t-11 -9t-12.5 -9.5t-15 -10.5t-17.5 -10t-21 -10t-23.5 -8t-27.5 -7t-30 -4t-34.5 -1.5q-67 0 -105.5 34t-38.5 94q0 69 54.5 123.5t183.5 66.5
q12 1 40 3t39.5 3.5t31 5.5t29 10t18.5 17t12 27l3 18q2 16 2 22q0 27 -30 44t-76 17zM449 258q-29 -10 -89 -19.5t-101 -17t-74.5 -34.5t-33.5 -72q0 -32 23 -49t66 -17q66 0 122.5 34.5t66.5 80.5z" />
    <glyph glyph-name="Aogonek" unicode="&#x104;" horiz-adv-x="667" 
d="M452 -130q0 84 130 130h-31l-27 219h-298l-110 -219h-99l415 729h120l101 -729q-67 -29 -96.5 -56.5t-29.5 -59.5q0 -20 18.5 -32t49.5 -12q39 0 68 10l-9 -45q-47 -10 -72 -10q-60 0 -95 20t-35 55zM514 297l-40 333l-191 -333h231z" />
    <glyph glyph-name="aogonek" unicode="&#x105;" horiz-adv-x="556" 
d="M372 462q-108 0 -137 -93h-84q14 83 76.5 126.5t166.5 43.5q79 0 126.5 -31t47.5 -82q0 -10 -6 -37l-64 -301q-1 -3 -1 -10q0 -29 38 -29q8 0 17 2l-13 -65q-41 -10 -72.5 -40.5t-31.5 -61.5q0 -20 18.5 -32t49.5 -12q39 0 68 10l-9 -45q-44 -10 -72 -10q-62 0 -96 20
t-34 57q0 34 21 57.5t74 51.5q-45 14 -45 62v11q-1 -1 -8.5 -7.5t-11 -9t-12.5 -9.5t-15 -10.5t-17.5 -10t-21 -10t-23.5 -8t-27.5 -7t-30 -4t-34.5 -1.5q-67 0 -105.5 34t-38.5 94q0 92 82 144q37 23 83.5 34.5t84.5 13.5t72.5 5t57 16.5t28.5 42.5l3 18q2 16 2 19
q0 28 -30.5 46t-75.5 18zM451 258q-29 -10 -89 -19.5t-101 -17t-74.5 -34.5t-33.5 -72q0 -32 23 -49t66 -17q66 0 122.5 34.5t66.5 80.5z" />
    <glyph glyph-name="Cacute" unicode="&#x106;" horiz-adv-x="710" 
d="M595 920h112l-180 -148h-60zM355 -23q-59 0 -105.5 17.5t-73.5 45t-45 64t-24.5 70t-6.5 68.5q0 64 16.5 132t51 134t83 117.5t118.5 83.5t151 32q32 0 60.5 -5.5t61 -21t56 -41t40.5 -69.5t20 -101h-96q-6 81 -44.5 119t-114.5 38q-70 0 -126 -33t-88.5 -80.5
t-54.5 -105.5t-30 -103t-8 -78q0 -91 47.5 -146.5t125.5 -55.5q55 0 97.5 17t72.5 50.5t48 64t38 76.5h98q-67 -160 -157 -224.5t-211 -64.5z" />
    <glyph glyph-name="cacute" unicode="&#x107;" horiz-adv-x="515" 
d="M456 740h112l-180 -148h-60zM381 539q77 0 125 -43t48 -104q0 -7 -3 -44h-84q1 9 1 22q0 43 -27.5 67.5t-74.5 24.5q-48 0 -86 -24t-59 -58t-34.5 -75.5t-18 -72t-4.5 -51.5q0 -58 30.5 -92.5t82.5 -34.5q111 0 157 126h84q-5 -18 -8.5 -28t-14 -34t-22 -40t-32 -37
t-44 -33.5t-58.5 -21.5t-76 -9q-53 0 -92 19.5t-58.5 51t-28 62t-8.5 60.5q0 159 84.5 264t220.5 105z" />
    <glyph glyph-name="Ccircumflex" unicode="&#x108;" horiz-adv-x="710" 
d="M529 940h95l64 -150h-63l-56 99l-104 -99h-64zM355 -23q-59 0 -105.5 17.5t-73.5 45t-45 64t-24.5 70t-6.5 68.5q0 64 16.5 132t51 134t83 117.5t118.5 83.5t151 32q32 0 60.5 -5.5t61 -21t56 -41t40.5 -69.5t20 -101h-96q-6 81 -44.5 119t-114.5 38q-70 0 -126 -33
t-88.5 -80.5t-54.5 -105.5t-30 -103t-8 -78q0 -91 47.5 -146.5t125.5 -55.5q55 0 97.5 17t72.5 50.5t48 64t38 76.5h98q-67 -160 -157 -224.5t-211 -64.5z" />
    <glyph glyph-name="ccircumflex" unicode="&#x109;" horiz-adv-x="515" 
d="M378 749h95l64 -150h-63l-56 99l-104 -99h-64zM381 539q77 0 125 -43t48 -104q0 -7 -3 -44h-84q1 9 1 22q0 43 -27.5 67.5t-74.5 24.5q-48 0 -86 -24t-59 -58t-34.5 -75.5t-18 -72t-4.5 -51.5q0 -58 30.5 -92.5t82.5 -34.5q111 0 157 126h84q-5 -18 -8.5 -28t-14 -34
t-22 -40t-32 -37t-44 -33.5t-58.5 -21.5t-76 -9q-53 0 -92 19.5t-58.5 51t-28 62t-8.5 60.5q0 159 84.5 264t220.5 105z" />
    <glyph glyph-name="Cdotaccent" unicode="&#x10a;" horiz-adv-x="710" 
d="M619 904l-22 -103h-104l22 103h104zM355 -23q-59 0 -105.5 17.5t-73.5 45t-45 64t-24.5 70t-6.5 68.5q0 64 16.5 132t51 134t83 117.5t118.5 83.5t151 32q32 0 60.5 -5.5t61 -21t56 -41t40.5 -69.5t20 -101h-96q-6 81 -44.5 119t-114.5 38q-70 0 -126 -33t-88.5 -80.5
t-54.5 -105.5t-30 -103t-8 -78q0 -91 47.5 -146.5t125.5 -55.5q55 0 97.5 17t72.5 50.5t48 64t38 76.5h98q-67 -160 -157 -224.5t-211 -64.5z" />
    <glyph glyph-name="cdotaccent" unicode="&#x10b;" horiz-adv-x="515" 
d="M468 702l-22 -103h-104l22 103h104zM381 539q77 0 125 -43t48 -104q0 -7 -3 -44h-84q1 9 1 22q0 43 -27.5 67.5t-74.5 24.5q-48 0 -86 -24t-59 -58t-34.5 -75.5t-18 -72t-4.5 -51.5q0 -58 30.5 -92.5t82.5 -34.5q111 0 157 126h84q-5 -18 -8.5 -28t-14 -34t-22 -40
t-32 -37t-44 -33.5t-58.5 -21.5t-76 -9q-53 0 -92 19.5t-58.5 51t-28 62t-8.5 60.5q0 159 84.5 264t220.5 105z" />
    <glyph glyph-name="Ccaron" unicode="&#x10c;" horiz-adv-x="710" 
d="M596 791h-95l-64 148h63l56 -98l104 98h64zM355 -23q-59 0 -105.5 17.5t-73.5 45t-45 64t-24.5 70t-6.5 68.5q0 64 16.5 132t51 134t83 117.5t118.5 83.5t151 32q32 0 60.5 -5.5t61 -21t56 -41t40.5 -69.5t20 -101h-96q-6 81 -44.5 119t-114.5 38q-70 0 -126 -33
t-88.5 -80.5t-54.5 -105.5t-30 -103t-8 -78q0 -91 47.5 -146.5t125.5 -55.5q55 0 97.5 17t72.5 50.5t48 64t38 76.5h98q-67 -160 -157 -224.5t-211 -64.5z" />
    <glyph glyph-name="ccaron" unicode="&#x10d;" horiz-adv-x="515" 
d="M436 591h-95l-64 148h63l56 -98l104 98h64zM381 539q77 0 125 -43t48 -104q0 -7 -3 -44h-84q1 9 1 22q0 43 -27.5 67.5t-74.5 24.5q-48 0 -86 -24t-59 -58t-34.5 -75.5t-18 -72t-4.5 -51.5q0 -58 30.5 -92.5t82.5 -34.5q111 0 157 126h84q-5 -18 -8.5 -28t-14 -34
t-22 -40t-32 -37t-44 -33.5t-58.5 -21.5t-76 -9q-53 0 -92 19.5t-58.5 51t-28 62t-8.5 60.5q0 159 84.5 264t220.5 105z" />
    <glyph glyph-name="Dcaron" unicode="&#x10e;" horiz-adv-x="702" 
d="M537 792h-95l-64 148h63l56 -98l104 98h64zM517 729q67 0 115.5 -25t72.5 -64.5t34.5 -77t10.5 -74.5q0 -57 -12.5 -119.5t-42 -129t-72.5 -119t-111 -86.5t-150 -34h-282l155 729h282zM191 82h172q70 0 124 31.5t84.5 77.5t50 103.5t26 102.5t6.5 83q0 78 -45.5 122.5
t-125.5 44.5h-171z" />
    <glyph glyph-name="dcaron" unicode="&#x10f;" horiz-adv-x="692" 
d="M745 740h81l-15 -69q-19 -88 -100 -88l9 42h3q12 0 19 1.5t15.5 12t13.5 31.5h-41zM433 76q-23 -45 -77.5 -72t-108.5 -27q-78 0 -124.5 52.5t-46.5 140.5q0 158 83 263.5t207 105.5q53 0 86 -21t57 -70l60 281h84l-155 -729h-81zM281 54q44 0 80 22.5t56.5 55t34.5 72
t19 70.5t5 53q0 64 -31 99.5t-87 35.5q-46 0 -82 -23.5t-56.5 -56.5t-33.5 -73t-17.5 -69.5t-4.5 -49.5q0 -65 31 -100.5t86 -35.5z" />
    <glyph glyph-name="Dcroat" unicode="&#x110;" horiz-adv-x="722" 
d="M526 729q67 0 115.5 -25t72.5 -64.5t34.5 -77t10.5 -74.5q0 -57 -12.5 -119.5t-42 -129t-72.5 -119t-111 -86.5t-150 -34h-282l72 341h-68l13 67h70l68 321h282zM255 341l-55 -259h172q70 0 124.5 32t84.5 77.5t50 103.5t26 103t6 82q0 79 -45.5 123t-125.5 44h-171
l-51 -239h166l-14 -67h-167z" />
    <glyph glyph-name="dcroat" unicode="&#x111;" horiz-adv-x="556" 
d="M73 170q0 155 82 262t208 107q53 0 86 -21t57 -70l32 152h-150l12 53h150l16 76h84l-16 -76h61l-11 -53h-62l-127 -600h-81l16 76q-23 -45 -77.5 -72t-108.5 -27q-78 0 -124.5 52.5t-46.5 140.5zM278 54q44 0 80 22.5t56.5 55t34.5 72t19 70.5t5 53q0 64 -31 99.5
t-87 35.5q-46 0 -82 -23.5t-56.5 -56.5t-33.5 -73t-17.5 -69.5t-4.5 -49.5q0 -65 31 -100.5t86 -35.5z" />
    <glyph glyph-name="Emacron" unicode="&#x112;" horiz-adv-x="657" 
d="M668 869l-15 -69h-275l15 69h275zM245 332l-54 -250h429l-17 -82h-523l155 729h506l-17 -82h-412l-50 -233h396l-18 -82h-395z" />
    <glyph glyph-name="emacron" unicode="&#x113;" horiz-adv-x="547" 
d="M560 676l-15 -69h-275l15 69h275zM77 173q0 28 6.5 66.5t27 93t52 99t89 76t130.5 31.5q81 0 136 -49.5t55 -121.5q0 -38 -17 -134h-386q-5 -19 -5 -46q0 -64 32.5 -99t91.5 -35q101 0 156 105h84q-23 -81 -93.5 -131.5t-160.5 -50.5q-89 0 -143.5 56.5t-54.5 139.5z
M188 306h294q3 24 3 33q0 56 -31.5 89.5t-84.5 33.5q-61 0 -111 -43.5t-70 -112.5z" />
    <glyph glyph-name="Ebreve" unicode="&#x114;" horiz-adv-x="657" 
d="M697 916q-12 -48 -42 -79.5t-64 -43.5t-73 -12q-56 0 -91.5 27.5t-35.5 71.5q0 12 5 36h53v-13q0 -22 22.5 -36t59.5 -14q94 0 110 63h56zM245 332l-54 -250h429l-17 -82h-523l155 729h506l-17 -82h-412l-50 -233h396l-18 -82h-395z" />
    <glyph glyph-name="ebreve" unicode="&#x115;" horiz-adv-x="547" 
d="M586 734q-12 -48 -42 -79.5t-64 -43.5t-73 -12q-56 0 -91.5 27.5t-35.5 71.5q0 12 5 36h53v-13q0 -22 22.5 -36t59.5 -14q94 0 110 63h56zM77 173q0 28 6.5 66.5t27 93t52 99t89 76t130.5 31.5q81 0 136 -49.5t55 -121.5q0 -38 -17 -134h-386q-5 -19 -5 -46
q0 -64 32.5 -99t91.5 -35q101 0 156 105h84q-23 -81 -93.5 -131.5t-160.5 -50.5q-89 0 -143.5 56.5t-54.5 139.5zM188 306h294q3 24 3 33q0 56 -31.5 89.5t-84.5 33.5q-61 0 -111 -43.5t-70 -112.5z" />
    <glyph glyph-name="Edotaccent" unicode="&#x116;" horiz-adv-x="657" 
d="M587 904l-22 -103h-104l22 103h104zM245 332l-54 -250h429l-17 -82h-523l155 729h506l-17 -82h-412l-50 -233h396l-18 -82h-395z" />
    <glyph glyph-name="edotaccent" unicode="&#x117;" horiz-adv-x="547" 
d="M476 702l-22 -103h-104l22 103h104zM77 173q0 28 6.5 66.5t27 93t52 99t89 76t130.5 31.5q81 0 136 -49.5t55 -121.5q0 -38 -17 -134h-386q-5 -19 -5 -46q0 -64 32.5 -99t91.5 -35q101 0 156 105h84q-23 -81 -93.5 -131.5t-160.5 -50.5q-89 0 -143.5 56.5t-54.5 139.5z
M188 306h294q3 24 3 33q0 56 -31.5 89.5t-84.5 33.5q-61 0 -111 -43.5t-70 -112.5z" />
    <glyph glyph-name="Eogonek" unicode="&#x118;" horiz-adv-x="657" 
d="M245 332l-54 -250h429l-17 -82h-2q-2 -2 -25 -12.5t-43 -22.5t-38 -34t-18 -47q0 -20 18.5 -32t47.5 -12q40 0 70 10l-9 -45q-30 -10 -68 -10q-64 0 -99 20t-35 55q0 82 130 130h-452l155 729h506l-17 -82h-412l-50 -233h396l-18 -82h-395z" />
    <glyph glyph-name="eogonek" unicode="&#x119;" horiz-adv-x="547" 
d="M529 159q-11 -41 -37 -75.5t-54.5 -57.5t-55.5 -44.5t-44.5 -45.5t-17.5 -50q0 -20 19 -33t48 -13q40 0 70 10l-9 -45q-30 -10 -68 -10q-24 0 -46 3.5t-43 11.5t-33 24.5t-12 38.5q0 31 20.5 55.5t72.5 55.5q-37 -7 -66 -7q-87 0 -141.5 57t-54.5 139q0 28 6.5 66.5
t27 93t52 99t89 76t130.5 31.5q81 0 136 -49.5t55 -121.5q0 -42 -14 -117l-3 -17h-386q-5 -19 -5 -46q0 -64 32.5 -99t91.5 -35q101 0 156 105h84zM188 306h294q3 24 3 33q0 56 -31.5 89.5t-84.5 33.5q-61 0 -111 -43.5t-70 -112.5z" />
    <glyph glyph-name="Ecaron" unicode="&#x11a;" horiz-adv-x="657" 
d="M555 791h-95l-64 148h63l56 -98l104 98h64zM245 332l-54 -250h429l-17 -82h-523l155 729h506l-17 -82h-412l-50 -233h396l-18 -82h-395z" />
    <glyph glyph-name="ecaron" unicode="&#x11b;" horiz-adv-x="547" 
d="M451 591h-95l-64 148h63l56 -98l104 98h64zM77 173q0 28 6.5 66.5t27 93t52 99t89 76t130.5 31.5q81 0 136 -49.5t55 -121.5q0 -38 -17 -134h-386q-5 -19 -5 -46q0 -64 32.5 -99t91.5 -35q101 0 156 105h84q-23 -81 -93.5 -131.5t-160.5 -50.5q-89 0 -143.5 56.5
t-54.5 139.5zM188 306h294q3 24 3 33q0 56 -31.5 89.5t-84.5 33.5q-61 0 -111 -43.5t-70 -112.5z" />
    <glyph glyph-name="Gcircumflex" unicode="&#x11c;" horiz-adv-x="778" 
d="M543 938h95l64 -150h-63l-56 99l-104 -99h-64zM205 277q0 -66 19.5 -112t53 -68t65.5 -30.5t68 -8.5q94 0 173.5 57.5t102.5 161.5l6 26h-222l18 82h304l-83 -389h-59l-4 90q-66 -55 -126 -82t-143 -27q-35 0 -69.5 7.5t-71.5 27.5t-64.5 50.5t-45.5 82t-18 116.5
q0 62 17.5 127.5t54.5 128.5t88.5 113t126 80.5t159.5 30.5q118 0 186 -58t68 -158v-17h-91q-1 44 -19 76t-46.5 47.5t-57 22t-58.5 6.5q-66 0 -120.5 -22.5t-89.5 -59.5t-60 -79t-38 -87.5t-18.5 -78t-5.5 -56.5z" />
    <glyph glyph-name="gcircumflex" unicode="&#x11d;" horiz-adv-x="552" 
d="M381 774h95l64 -150h-63l-56 99l-104 -99h-64zM371 539q97 0 139 -93l17 78h76l-93 -439q-35 -162 -101.5 -232.5t-197.5 -70.5q-80 0 -128.5 34.5t-48.5 92.5q0 13 2 31h84v-14q0 -34 28.5 -53t79.5 -19q90 0 130 50.5t63 158.5q-75 -80 -172 -80q-76 0 -124.5 51.5
t-48.5 133.5q0 27 7 67t27.5 95t51.5 100t85.5 77t123.5 32zM365 462q-48 0 -86 -24t-58.5 -57.5t-34 -75t-18 -71t-4.5 -50.5q0 -59 29.5 -94t79.5 -35q88 0 143 86t55 198q0 56 -29 89.5t-77 33.5z" />
    <glyph glyph-name="Gbreve" unicode="&#x11e;" horiz-adv-x="778" 
d="M747 936q-12 -48 -42 -79.5t-64 -43.5t-73 -12q-56 0 -91.5 27.5t-35.5 71.5q0 12 5 36h53v-13q0 -22 22.5 -36t59.5 -14q94 0 110 63h56zM205 277q0 -66 19.5 -112t53 -68t65.5 -30.5t68 -8.5q94 0 173.5 57.5t102.5 161.5l6 26h-222l18 82h304l-83 -389h-59l-4 90
q-66 -55 -126 -82t-143 -27q-35 0 -69.5 7.5t-71.5 27.5t-64.5 50.5t-45.5 82t-18 116.5q0 62 17.5 127.5t54.5 128.5t88.5 113t126 80.5t159.5 30.5q118 0 186 -58t68 -158v-17h-91q-1 44 -19 76t-46.5 47.5t-57 22t-58.5 6.5q-66 0 -120.5 -22.5t-89.5 -59.5t-60 -79
t-38 -87.5t-18.5 -78t-5.5 -56.5z" />
    <glyph glyph-name="gbreve" unicode="&#x11f;" horiz-adv-x="552" 
d="M561 734q-12 -48 -42 -79.5t-64 -43.5t-73 -12q-56 0 -91.5 27.5t-35.5 71.5q0 12 5 36h53v-13q0 -22 22.5 -36t59.5 -14q94 0 110 63h56zM371 539q97 0 139 -93l17 78h76l-93 -439q-35 -162 -101.5 -232.5t-197.5 -70.5q-80 0 -128.5 34.5t-48.5 92.5q0 13 2 31h84v-14
q0 -34 28.5 -53t79.5 -19q90 0 130 50.5t63 158.5q-75 -80 -172 -80q-76 0 -124.5 51.5t-48.5 133.5q0 27 7 67t27.5 95t51.5 100t85.5 77t123.5 32zM365 462q-48 0 -86 -24t-58.5 -57.5t-34 -75t-18 -71t-4.5 -50.5q0 -59 29.5 -94t79.5 -35q88 0 143 86t55 198
q0 56 -29 89.5t-77 33.5z" />
    <glyph glyph-name="Gdotaccent" unicode="&#x120;" horiz-adv-x="778" 
d="M633 932l-22 -103h-104l22 103h104zM205 277q0 -66 19.5 -112t53 -68t65.5 -30.5t68 -8.5q94 0 173.5 57.5t102.5 161.5l6 26h-222l18 82h304l-83 -389h-59l-4 90q-66 -55 -126 -82t-143 -27q-35 0 -69.5 7.5t-71.5 27.5t-64.5 50.5t-45.5 82t-18 116.5q0 62 17.5 127.5
t54.5 128.5t88.5 113t126 80.5t159.5 30.5q118 0 186 -58t68 -158v-17h-91q-1 44 -19 76t-46.5 47.5t-57 22t-58.5 6.5q-66 0 -120.5 -22.5t-89.5 -59.5t-60 -79t-38 -87.5t-18.5 -78t-5.5 -56.5z" />
    <glyph glyph-name="gdotaccent" unicode="&#x121;" horiz-adv-x="552" 
d="M471 727l-22 -103h-104l22 103h104zM371 539q97 0 139 -93l17 78h76l-93 -439q-35 -162 -101.5 -232.5t-197.5 -70.5q-80 0 -128.5 34.5t-48.5 92.5q0 13 2 31h84v-14q0 -34 28.5 -53t79.5 -19q90 0 130 50.5t63 158.5q-75 -80 -172 -80q-76 0 -124.5 51.5t-48.5 133.5
q0 27 7 67t27.5 95t51.5 100t85.5 77t123.5 32zM365 462q-48 0 -86 -24t-58.5 -57.5t-34 -75t-18 -71t-4.5 -50.5q0 -59 29.5 -94t79.5 -35q88 0 143 86t55 198q0 56 -29 89.5t-77 33.5z" />
    <glyph glyph-name="Gcommaaccent" unicode="&#x122;" horiz-adv-x="778" 
d="M305 -76h100l-22 -103q-11 -56 -44 -88.5t-79 -32.5h-2l8 38q55 0 71 78q1 2 1 4t1 4h-55zM205 277q0 -66 19.5 -112t53 -68t65.5 -30.5t68 -8.5q94 0 173.5 57.5t102.5 161.5l6 26h-222l18 82h304l-83 -389h-59l-4 90q-66 -55 -126 -82t-143 -27q-35 0 -69.5 7.5
t-71.5 27.5t-64.5 50.5t-45.5 82t-18 116.5q0 62 17.5 127.5t54.5 128.5t88.5 113t126 80.5t159.5 30.5q118 0 186 -58t68 -158v-17h-91q-1 44 -19 76t-46.5 47.5t-57 22t-58.5 6.5q-66 0 -120.5 -22.5t-89.5 -59.5t-60 -79t-38 -87.5t-18.5 -78t-5.5 -56.5z" />
    <glyph glyph-name="gcommaaccent" unicode="&#x123;" horiz-adv-x="552" 
d="M422 589h-81l15 69q19 88 100 88l-9 -42h-3q-12 0 -19 -1.5t-15.5 -12t-13.5 -31.5h41zM371 539q97 0 139 -93l17 78h76l-93 -439q-35 -162 -101.5 -232.5t-197.5 -70.5q-80 0 -128.5 34.5t-48.5 92.5q0 13 2 31h84v-14q0 -34 28.5 -53t79.5 -19q90 0 130 50.5t63 158.5
q-75 -80 -172 -80q-76 0 -124.5 51.5t-48.5 133.5q0 27 7 67t27.5 95t51.5 100t85.5 77t123.5 32zM365 462q-48 0 -86 -24t-58.5 -57.5t-34 -75t-18 -71t-4.5 -50.5q0 -59 29.5 -94t79.5 -35q88 0 143 86t55 198q0 56 -29 89.5t-77 33.5z" />
    <glyph glyph-name="Hcircumflex" unicode="&#x124;" horiz-adv-x="721" 
d="M519 937h95l64 -150h-63l-56 99l-104 -99h-64zM618 332h-373l-71 -332h-94l155 729h94l-67 -315h373l67 315h94l-155 -729h-94z" />
    <glyph glyph-name="hcircumflex" unicode="&#x125;" horiz-adv-x="540" 
d="M363 929h95l64 -150h-63l-56 99l-104 -99h-64zM215 729h84l-57 -270q47 44 89 62t98 18q63 0 99 -33.5t36 -92.5q0 -20 -4 -37l-80 -376h-84l73 343q6 27 6 39q0 38 -23.5 61.5t-61.5 23.5q-68 0 -118 -48t-67 -130l-61 -289h-84z" />
    <glyph glyph-name="Hbar" unicode="&#x126;" horiz-adv-x="722" 
d="M283 504l-19 -90h375l19 90h-375zM205 576l32 153h93l-32 -153h375l32 153h93l-32 -153h64l-15 -70h-64l-107 -506h-93l70 332h-374l-70 -332h-94l107 506h-64l15 70h64z" />
    <glyph glyph-name="hbar" unicode="&#x127;" horiz-adv-x="556" 
d="M284 653h150l-11 -53h-150l-31 -148q46 48 88 67.5t98 19.5q66 0 102 -29t36 -80q0 -16 -3 -34l-84 -396h-83l77 363q3 17 3 30q0 34 -26 53.5t-63 19.5q-64 0 -113.5 -48.5t-66.5 -128.5l-61 -289h-83l127 600h-63l11 53h63l16 76h83z" />
    <glyph glyph-name="Itilde" unicode="&#x128;" horiz-adv-x="300" 
d="M267 932q19 0 70.5 -16t65.5 -16q15 0 24.5 7.5t23.5 29.5h53q-16 -49 -45 -78t-63 -29q-27 0 -73.5 16t-56.5 16q-13 0 -23 -5.5t-13.5 -9.5t-13.5 -18h-53q15 45 38 74t66 29zM352 729l-155 -729h-94l155 729h94z" />
    <glyph glyph-name="itilde" unicode="&#x129;" horiz-adv-x="262" 
d="M281 524l-111 -524h-84l111 524h84zM214 727q19 0 70.5 -16t65.5 -16q15 0 24.5 7.5t23.5 29.5h53q-16 -49 -45 -78t-63 -29q-27 0 -73.5 16t-56.5 16q-13 0 -23 -5.5t-13.5 -9.5t-13.5 -18h-53q15 45 38 74t66 29z" />
    <glyph glyph-name="Imacron" unicode="&#x12a;" horiz-adv-x="300" 
d="M352 729l-155 -729h-94l155 729h94zM472 869l-15 -69h-275l15 69h275z" />
    <glyph glyph-name="imacron" unicode="&#x12b;" horiz-adv-x="262" 
d="M281 524l-111 -524h-84l111 524h84zM413 676l-15 -69h-275l15 69h275z" />
    <glyph glyph-name="Ibreve" unicode="&#x12c;" horiz-adv-x="300" 
d="M497 916q-12 -48 -42 -79.5t-64 -43.5t-73 -12q-56 0 -91.5 27.5t-35.5 71.5q0 12 5 36h53v-13q0 -22 22.5 -36t59.5 -14q94 0 110 63h56zM352 729l-155 -729h-94l155 729h94z" />
    <glyph glyph-name="ibreve" unicode="&#x12d;" horiz-adv-x="262" 
d="M445 734q-12 -48 -42 -79.5t-64 -43.5t-73 -12q-56 0 -91.5 27.5t-35.5 71.5q0 12 5 36h53v-13q0 -22 22.5 -36t59.5 -14q94 0 110 63h56zM281 524l-111 -524h-84l111 524h84z" />
    <glyph glyph-name="Iogonek" unicode="&#x12e;" horiz-adv-x="278" 
d="M349 729l-155 -729h-1q-2 -2 -25 -12.5t-43 -22.5t-38 -34t-18 -47q0 -20 18.5 -32t47.5 -12q40 0 70 10l-9 -45q-30 -10 -68 -10q-64 0 -99 20t-35 55q0 82 130 130h-24l155 729h94z" />
    <glyph glyph-name="iogonek" unicode="&#x12f;" horiz-adv-x="262" 
d="M325 729l-22 -103h-84l22 103h84zM281 524l-111 -524h-1q-2 -2 -25 -12.5t-43 -22.5t-38 -34t-18 -47q0 -20 18.5 -32t47.5 -12q40 0 70 10l-9 -45q-30 -10 -68 -10q-64 0 -99 20t-35 55q0 82 130 130h-14l111 524h84z" />
    <glyph glyph-name="Idotaccent" unicode="&#x130;" horiz-adv-x="278" 
d="M391 904l-22 -103h-104l22 103h104zM349 729l-155 -729h-94l155 729h94z" />
    <glyph glyph-name="dotlessi" unicode="&#x131;" horiz-adv-x="222" 
d="M261 524l-111 -524h-84l111 524h84z" />
    <glyph glyph-name="Jcircumflex" unicode="&#x134;" horiz-adv-x="507" 
d="M383 942h95l64 -150h-63l-56 99l-104 -99h-64zM213 -23q-47 0 -82 15t-52 39t-24.5 46.5t-7.5 44.5q0 21 20 112h94q-18 -85 -18 -100q0 -34 25 -55t65 -21q33 0 59 14.5t40 30.5t25.5 44.5t14 38.5t6.5 30l109 513h94l-116 -547q-21 -98 -87 -151.5t-165 -53.5z" />
    <glyph glyph-name="jcircumflex" unicode="&#x135;" horiz-adv-x="262" 
d="M241 752h95l64 -150h-63l-56 99l-104 -99h-64zM200 524h84l-134 -633q-14 -62 -52 -85.5t-124 -23.5q-8 0 -19 3l15 71q18 -2 25 -2q38 0 53.5 14t24.5 56z" />
    <glyph glyph-name="Kcommaaccent" unicode="&#x136;" horiz-adv-x="667" 
d="M297 -76h100l-22 -103q-11 -56 -44 -88.5t-79 -32.5h-2l8 38q55 0 71 78q1 2 1 4t1 4h-55zM227 249l-53 -249h-94l155 729h94l-79 -373l444 373h120l-361 -298l206 -431h-110l-168 376z" />
    <glyph glyph-name="kcommaaccent" unicode="&#x137;" horiz-adv-x="502" 
d="M207 -76h100l-22 -103q-11 -56 -44 -88.5t-79 -32.5h-2l8 38q55 0 71 78q1 2 1 4t1 4h-55zM299 729l-90 -423l269 218h108l-222 -181l140 -343h-96l-114 291l-107 -88l-43 -203h-84l155 729h84z" />
    <glyph glyph-name="kgreenlandic" unicode="&#x138;" horiz-adv-x="500" 
d="M254 524l-47 -222l269 222h107l-327 -260l248 -264h-103l-212 216l-46 -216h-83l111 524h83z" />
    <glyph glyph-name="Lacute" unicode="&#x139;" horiz-adv-x="556" 
d="M415 920h112l-180 -148h-60zM329 729l-138 -647h360l-17 -82h-454l155 729h94z" />
    <glyph glyph-name="lacute" unicode="&#x13a;" horiz-adv-x="222" 
d="M305 920h112l-180 -148h-60zM307 729l-155 -729h-84l155 729h84z" />
    <glyph glyph-name="Lcommaaccent" unicode="&#x13b;" horiz-adv-x="556" 
d="M235 -76h100l-22 -103q-11 -56 -44 -88.5t-79 -32.5h-2l8 38q55 0 71 78q1 2 1 4t1 4h-55zM329 729l-138 -647h360l-17 -82h-454l155 729h94z" />
    <glyph glyph-name="lcommaaccent" unicode="&#x13c;" horiz-adv-x="222" 
d="M45 -76h100l-22 -103q-11 -56 -44 -88.5t-79 -32.5h-2l8 38q55 0 71 78q1 2 1 4t1 4h-55zM307 729l-155 -729h-84l155 729h84z" />
    <glyph glyph-name="Lcaron" unicode="&#x13d;" horiz-adv-x="556" 
d="M475 740h81l-15 -69q-19 -88 -100 -88l9 42h3q12 0 19 1.5t15.5 12t13.5 31.5h-41zM329 729l-138 -647h360l-17 -82h-454l155 729h94z" />
    <glyph glyph-name="lcaron" unicode="&#x13e;" horiz-adv-x="342" 
d="M395 740h81l-15 -69q-19 -88 -100 -88l9 42h3q12 0 19 1.5t15.5 12t13.5 31.5h-41zM307 729l-155 -729h-84l155 729h84z" />
    <glyph glyph-name="Lslash" unicode="&#x141;" horiz-adv-x="556" 
d="M261 315l-50 -233h359l-18 -82h-452l58 276l-83 -51l17 79l83 51l80 374h94l-71 -335l196 118l-17 -79z" />
    <glyph glyph-name="lslash" unicode="&#x142;" horiz-adv-x="222" 
d="M239 414l73 42l-14 -67l-73 -42l-74 -347h-84l67 314l-72 -44l14 67l73 45l73 347h84z" />
    <glyph glyph-name="Nacute" unicode="&#x143;" horiz-adv-x="730" 
d="M575 920h112l-180 -148h-60zM805 729l-155 -729h-106l-249 591l-126 -591h-89l155 729h104l250 -598l127 598h89z" />
    <glyph glyph-name="nacute" unicode="&#x144;" horiz-adv-x="540" 
d="M456 740h112l-180 -148h-60zM171 524h76l-13 -65q78 80 194 80q62 0 99 -34t37 -91q0 -21 -4 -38l-80 -376h-84l74 349q6 24 6 37q0 35 -25 58t-62 23q-68 0 -117.5 -48t-66.5 -130l-61 -289h-84z" />
    <glyph glyph-name="Ncommaaccent" unicode="&#x145;" horiz-adv-x="730" 
d="M292 -76h100l-22 -103q-11 -56 -44 -88.5t-79 -32.5h-2l8 38q55 0 71 78q1 2 1 4t1 4h-55zM805 729l-155 -729h-106l-249 591l-126 -591h-89l155 729h104l250 -598l127 598h89z" />
    <glyph glyph-name="ncommaaccent" unicode="&#x146;" horiz-adv-x="540" 
d="M209 -76h100l-22 -103q-11 -56 -44 -88.5t-79 -32.5h-2l8 38q55 0 71 78q1 2 1 4t1 4h-55zM171 524h76l-13 -65q78 80 194 80q62 0 99 -34t37 -91q0 -21 -4 -38l-80 -376h-84l74 349q6 24 6 37q0 35 -25 58t-62 23q-68 0 -117.5 -48t-66.5 -130l-61 -289h-84z" />
    <glyph glyph-name="Ncaron" unicode="&#x147;" horiz-adv-x="730" 
d="M568 792h-95l-64 148h63l56 -98l104 98h64zM805 729l-155 -729h-106l-249 591l-126 -591h-89l155 729h104l250 -598l127 598h89z" />
    <glyph glyph-name="ncaron" unicode="&#x148;" horiz-adv-x="540" 
d="M449 590h-95l-64 148h63l56 -98l104 98h64zM171 524h76l-13 -65q78 80 194 80q62 0 99 -34t37 -91q0 -21 -4 -38l-80 -376h-84l74 349q6 24 6 37q0 35 -25 58t-62 23q-68 0 -117.5 -48t-66.5 -130l-61 -289h-84z" />
    <glyph glyph-name="napostrophe" unicode="&#x149;" horiz-adv-x="692" 
d="M196 728h105l-25 -120q-28 -131 -133 -131l8 38q36 1 52.5 20t27.5 71l3 18h-60zM281 524h76l-13 -65q78 80 194 80q62 0 99 -34t37 -91q0 -21 -4 -38l-80 -376h-84l74 349q6 24 6 37q0 35 -25 58t-62 23q-68 0 -117.5 -48t-66.5 -130l-61 -289h-84z" />
    <glyph glyph-name="Eng" unicode="&#x14a;" horiz-adv-x="642" 
d="M698 522q0 -44 -12.5 -108.5t-39.5 -140t-63.5 -139.5t-90 -107t-113.5 -43q-21 0 -40.5 2.5t-29.5 5t-19.5 5.5t-11.5 3l15 71q3 0 34.5 -7t58.5 -7q46 0 97 73.5t84.5 177.5t33.5 189q0 91 -39 132.5t-89 41.5q-66 0 -122 -49t-73 -128l-105 -494h-93l155 729h93
l-16 -77q44 52 91 72t110 20q73 0 129 -56.5t56 -165.5z" />
    <glyph glyph-name="eng" unicode="&#x14b;" horiz-adv-x="538" 
d="M561 396l-107 -505q-23 -109 -166 -109q-13 0 -28 3l15 71q17 -1 20 -1q38 0 56.5 15t26.5 54l93 439q3 13 3 26q0 36 -23.5 56.5t-65.5 20.5q-64 0 -113.5 -48.5t-66.5 -128.5l-61 -289h-84l111 524h77l-18 -88q46 55 91.5 79t103.5 24q66 0 103 -29.5t37 -80.5
q0 -11 -4 -33z" />
    <glyph glyph-name="Omacron" unicode="&#x14c;" horiz-adv-x="770" 
d="M702 869l-15 -69h-275l15 69h275zM387 -23q-40 0 -77.5 7.5t-76.5 27.5t-68 51t-47 82.5t-18 117.5q0 114 51 222t152.5 182t229.5 74q83 0 143 -26t90.5 -69t44 -88t13.5 -94q0 -26 -4.5 -60.5t-17.5 -82.5t-33.5 -94t-55 -92t-78.5 -80.5t-108 -56t-140 -21.5zM728 446
q0 61 -19.5 105t-52 66.5t-66 32.5t-69.5 10q-95 0 -171 -57.5t-115 -145.5t-39 -186q0 -60 20 -104.5t52 -66.5t65 -32t67 -10q66 0 120 23t88.5 60.5t59 80.5t37 89t18 79t5.5 56z" />
    <glyph glyph-name="omacron" unicode="&#x14d;" horiz-adv-x="556" 
d="M550 676l-15 -69h-275l15 69h275zM384 539q87 0 139.5 -52t52.5 -135q0 -39 -8 -83.5t-30 -98t-54.5 -95t-88.5 -70t-126 -28.5q-84 0 -136.5 52t-52.5 135q0 38 8 82.5t29.5 98t54 95.5t88 70.5t124.5 28.5zM283 54q49 0 87.5 23.5t60 57t35 75t18 71.5t4.5 52
q0 61 -31 95t-86 34q-48 0 -86.5 -24t-59.5 -57.5t-34.5 -75t-18 -71t-4.5 -50.5q0 -60 31 -95t84 -35z" />
    <glyph glyph-name="Obreve" unicode="&#x14e;" horiz-adv-x="770" 
d="M717 916q-12 -48 -42 -79.5t-64 -43.5t-73 -12q-56 0 -91.5 27.5t-35.5 71.5q0 12 5 36h53v-13q0 -22 22.5 -36t59.5 -14q94 0 110 63h56zM387 -23q-40 0 -77.5 7.5t-76.5 27.5t-68 51t-47 82.5t-18 117.5q0 114 51 222t152.5 182t229.5 74q83 0 143 -26t90.5 -69t44 -88
t13.5 -94q0 -26 -4.5 -60.5t-17.5 -82.5t-33.5 -94t-55 -92t-78.5 -80.5t-108 -56t-140 -21.5zM728 446q0 61 -19.5 105t-52 66.5t-66 32.5t-69.5 10q-95 0 -171 -57.5t-115 -145.5t-39 -186q0 -60 20 -104.5t52 -66.5t65 -32t67 -10q66 0 120 23t88.5 60.5t59 80.5t37 89
t18 79t5.5 56z" />
    <glyph glyph-name="obreve" unicode="&#x14f;" horiz-adv-x="556" 
d="M582 734q-12 -48 -42 -79.5t-64 -43.5t-73 -12q-56 0 -91.5 27.5t-35.5 71.5q0 12 5 36h53v-13q0 -22 22.5 -36t59.5 -14q94 0 110 63h56zM384 539q87 0 139.5 -52t52.5 -135q0 -39 -8 -83.5t-30 -98t-54.5 -95t-88.5 -70t-126 -28.5q-84 0 -136.5 52t-52.5 135
q0 38 8 82.5t29.5 98t54 95.5t88 70.5t124.5 28.5zM283 54q49 0 87.5 23.5t60 57t35 75t18 71.5t4.5 52q0 61 -31 95t-86 34q-48 0 -86.5 -24t-59.5 -57.5t-34.5 -75t-18 -71t-4.5 -50.5q0 -60 31 -95t84 -35z" />
    <glyph glyph-name="Ohungarumlaut" unicode="&#x150;" horiz-adv-x="770" 
d="M731 940h112l-180 -148h-60zM555 940h112l-180 -148h-60zM387 -23q-40 0 -77.5 7.5t-76.5 27.5t-68 51t-47 82.5t-18 117.5q0 114 51 222t152.5 182t229.5 74q83 0 143 -26t90.5 -69t44 -88t13.5 -94q0 -26 -4.5 -60.5t-17.5 -82.5t-33.5 -94t-55 -92t-78.5 -80.5
t-108 -56t-140 -21.5zM728 446q0 61 -19.5 105t-52 66.5t-66 32.5t-69.5 10q-95 0 -171 -57.5t-115 -145.5t-39 -186q0 -60 20 -104.5t52 -66.5t65 -32t67 -10q66 0 120 23t88.5 60.5t59 80.5t37 89t18 79t5.5 56z" />
    <glyph glyph-name="ohungarumlaut" unicode="&#x151;" horiz-adv-x="556" 
d="M574 740h112l-180 -148h-60zM398 740h112l-180 -148h-60zM384 539q87 0 139.5 -52t52.5 -135q0 -39 -8 -83.5t-30 -98t-54.5 -95t-88.5 -70t-126 -28.5q-84 0 -136.5 52t-52.5 135q0 38 8 82.5t29.5 98t54 95.5t88 70.5t124.5 28.5zM283 54q49 0 87.5 23.5t60 57t35 75
t18 71.5t4.5 52q0 61 -31 95t-86 34q-48 0 -86.5 -24t-59.5 -57.5t-34.5 -75t-18 -71t-4.5 -50.5q0 -60 31 -95t84 -35z" />
    <glyph glyph-name="OE" unicode="&#x152;" horiz-adv-x="1000" 
d="M687 327l-53 -245h340l-17 -82h-434l16 77q-81 -100 -207 -100q-104 0 -167.5 66.5t-63.5 175.5q0 89 26 179t73.5 167.5t125 126.5t170.5 49q121 0 166 -88l16 76h430l-17 -82h-336l-51 -238h327l-18 -82h-326zM562 182l76 357q-28 121 -158 121q-66 0 -118 -34.5
t-82 -85t-49.5 -113.5t-26.5 -113.5t-7 -91.5q0 -76 41.5 -120t113.5 -44q125 0 210 124z" />
    <glyph glyph-name="oe" unicode="&#x153;" horiz-adv-x="937" 
d="M80 165q0 24 5 56.5t16 76.5t34 85t54 77t81 57.5t111 21.5q127 0 172 -103q32 44 94 73.5t123 29.5q81 0 136 -49.5t55 -121.5q0 -38 -17 -134h-386q-7 -36 -7 -58q0 -56 34.5 -89t92.5 -33q100 0 155 105h84q-24 -82 -94 -132t-161 -50q-74 0 -117 34.5t-59 72.5
q-38 -51 -94.5 -79t-121.5 -28q-54 0 -93.5 19t-59.5 49.5t-28.5 60t-8.5 59.5zM280 54q87 0 144.5 80.5t57.5 199.5q0 60 -31 94t-85 34q-83 0 -140.5 -81.5t-57.5 -199.5q0 -59 30 -93t82 -34zM576 306h294q3 21 3 32q0 57 -31 90.5t-83 33.5q-61 0 -112 -43.5t-71 -112.5
z" />
    <glyph glyph-name="Racute" unicode="&#x154;" horiz-adv-x="709" 
d="M545 920h112l-180 -148h-60zM549 47q0 37 16 99t16 93q0 75 -101 75h-239l-67 -314h-94l155 729h336q96 0 141 -37.5t45 -116.5q0 -40 -11.5 -74.5t-25.5 -55t-37.5 -40.5t-35 -27t-30.5 -18q35 -23 47.5 -43t12.5 -53q0 -22 -13.5 -96.5t-13.5 -91.5q0 -34 21 -53
l-5 -23h-113q-4 28 -4 47zM661 558q0 52 -30.5 70.5t-88.5 18.5h-230l-54 -251h231q49 0 85 16t53.5 41.5t25.5 51.5t8 53z" />
    <glyph glyph-name="racute" unicode="&#x155;" horiz-adv-x="324" 
d="M376 740h112l-180 -148h-60zM171 524h76l-17 -82q46 53 83.5 75t81.5 22q13 0 32 -3l-18 -85q-79 0 -132.5 -39.5t-74.5 -139.5l-58 -272h-84z" />
    <glyph glyph-name="Rcommaaccent" unicode="&#x156;" horiz-adv-x="709" 
d="M315 -76h100l-22 -103q-11 -56 -44 -88.5t-79 -32.5h-2l8 38q55 0 71 78q1 2 1 4t1 4h-55zM549 47q0 37 16 99t16 93q0 75 -101 75h-239l-67 -314h-94l155 729h336q96 0 141 -37.5t45 -116.5q0 -40 -11.5 -74.5t-25.5 -55t-37.5 -40.5t-35 -27t-30.5 -18q35 -23 47.5 -43
t12.5 -53q0 -22 -13.5 -96.5t-13.5 -91.5q0 -34 21 -53l-5 -23h-113q-4 28 -4 47zM661 558q0 52 -30.5 70.5t-88.5 18.5h-230l-54 -251h231q49 0 85 16t53.5 41.5t25.5 51.5t8 53z" />
    <glyph glyph-name="rcommaaccent" unicode="&#x157;" horiz-adv-x="324" 
d="M45 -76h100l-22 -103q-11 -56 -44 -88.5t-79 -32.5h-2l8 38q55 0 71 78q1 2 1 4t1 4h-55zM171 524h76l-17 -82q46 53 83.5 75t81.5 22q13 0 32 -3l-18 -85q-79 0 -132.5 -39.5t-74.5 -139.5l-58 -272h-84z" />
    <glyph glyph-name="Rcaron" unicode="&#x158;" horiz-adv-x="709" 
d="M556 792h-95l-64 148h63l56 -98l104 98h64zM549 47q0 37 16 99t16 93q0 75 -101 75h-239l-67 -314h-94l155 729h336q96 0 141 -37.5t45 -116.5q0 -40 -11.5 -74.5t-25.5 -55t-37.5 -40.5t-35 -27t-30.5 -18q35 -23 47.5 -43t12.5 -53q0 -22 -13.5 -96.5t-13.5 -91.5
q0 -34 21 -53l-5 -23h-113q-4 28 -4 47zM661 558q0 52 -30.5 70.5t-88.5 18.5h-230l-54 -251h231q49 0 85 16t53.5 41.5t25.5 51.5t8 53z" />
    <glyph glyph-name="rcaron" unicode="&#x159;" horiz-adv-x="324" 
d="M360 590h-95l-64 148h63l56 -98l104 98h64zM171 524h76l-17 -82q46 53 83.5 75t81.5 22q13 0 32 -3l-18 -85q-79 0 -132.5 -39.5t-74.5 -139.5l-58 -272h-84z" />
    <glyph glyph-name="Sacute" unicode="&#x15a;" horiz-adv-x="651" 
d="M545 920h112l-180 -148h-60zM480 741q64 0 111 -16.5t70.5 -43.5t34 -54.5t10.5 -55.5q0 -19 -8 -56h-88q4 27 4 36q0 109 -152 109q-84 0 -140 -39t-56 -103q0 -33 21.5 -51t79.5 -35l172 -49q62 -17 92 -59.5t30 -86.5q0 -20 -7 -47.5t-30 -66t-58 -70t-99 -54
t-145 -22.5q-113 0 -177 51t-64 141q0 30 9 63h87q-4 -25 -4 -41q0 -68 40 -100.5t125 -32.5q104 0 165.5 44t61.5 107q0 36 -26.5 59.5t-86.5 40.5l-171 48q-50 14 -80.5 51t-30.5 84q0 17 5 41.5t25 63t51 69t91 53t138 22.5z" />
    <glyph glyph-name="sacute" unicode="&#x15b;" horiz-adv-x="500" 
d="M426 740h112l-180 -148h-60zM123 345q0 81 64.5 137.5t168.5 56.5q73 0 118.5 -33t45.5 -85q0 -18 -6 -43h-84q1 8 1 22q0 29 -24 45.5t-68 16.5q-57 0 -92.5 -27.5t-35.5 -67.5q0 -39 85 -60l76 -19q66 -16 93.5 -42.5t27.5 -72.5q0 -89 -67 -142.5t-179 -53.5
q-87 0 -136.5 34t-49.5 94q0 23 6 51h89q-2 -20 -2 -25q0 -37 28 -57t80 -20q42 0 72.5 12t44.5 29t20 31t6 24q0 7 -1.5 13.5t-5.5 11.5t-7 9t-9 7.5t-10 5.5t-11 4.5t-9.5 3t-9.5 2.5l-7 2l-74 19q-77 20 -107.5 45.5t-30.5 71.5z" />
    <glyph glyph-name="Scircumflex" unicode="&#x15c;" horiz-adv-x="651" 
d="M487 942h95l64 -150h-63l-56 99l-104 -99h-64zM480 741q64 0 111 -16.5t70.5 -43.5t34 -54.5t10.5 -55.5q0 -19 -8 -56h-88q4 27 4 36q0 109 -152 109q-84 0 -140 -39t-56 -103q0 -33 21.5 -51t79.5 -35l172 -49q62 -17 92 -59.5t30 -86.5q0 -20 -7 -47.5t-30 -66
t-58 -70t-99 -54t-145 -22.5q-113 0 -177 51t-64 141q0 30 9 63h87q-4 -25 -4 -41q0 -68 40 -100.5t125 -32.5q104 0 165.5 44t61.5 107q0 36 -26.5 59.5t-86.5 40.5l-171 48q-50 14 -80.5 51t-30.5 84q0 17 5 41.5t25 63t51 69t91 53t138 22.5z" />
    <glyph glyph-name="scircumflex" unicode="&#x15d;" horiz-adv-x="500" 
d="M356 749h95l64 -150h-63l-56 99l-104 -99h-64zM123 345q0 81 64.5 137.5t168.5 56.5q73 0 118.5 -33t45.5 -85q0 -18 -6 -43h-84q1 8 1 22q0 29 -24 45.5t-68 16.5q-57 0 -92.5 -27.5t-35.5 -67.5q0 -39 85 -60l76 -19q66 -16 93.5 -42.5t27.5 -72.5q0 -89 -67 -142.5
t-179 -53.5q-87 0 -136.5 34t-49.5 94q0 23 6 51h89q-2 -20 -2 -25q0 -37 28 -57t80 -20q42 0 72.5 12t44.5 29t20 31t6 24q0 7 -1.5 13.5t-5.5 11.5t-7 9t-9 7.5t-10 5.5t-11 4.5t-9.5 3t-9.5 2.5l-7 2l-74 19q-77 20 -107.5 45.5t-30.5 71.5z" />
    <glyph glyph-name="Scedilla" unicode="&#x15e;" horiz-adv-x="667" 
d="M470 660q-84 0 -140 -39t-56 -103q0 -33 21.5 -51t79.5 -35l172 -49q62 -17 92 -59.5t30 -86.5q0 -26 -9.5 -57t-33.5 -67.5t-60 -66t-95.5 -49t-132.5 -19.5l-18 -34q13 2 21 2q28 0 47.5 -15t19.5 -36q0 -47 -41 -78t-104 -31q-50 0 -118 34l28 38q55 -29 94 -29
q28 0 45.5 15.5t17.5 39.5q0 9 -9.5 15.5t-21.5 6.5q-3 0 -27 -4l-13 6l37 70q-104 14 -155.5 60t-51.5 131q0 30 9 63h87q-4 -25 -4 -41q0 -68 40 -100.5t125 -32.5q104 0 165.5 44t61.5 107q0 36 -26.5 59.5t-86.5 40.5l-171 48q-50 14 -80.5 51t-30.5 84q0 17 5 41.5
t25 63t51 69t91 53t138 22.5q64 0 111 -16.5t70.5 -43.5t34 -54.5t10.5 -55.5q0 -19 -8 -56h-88q4 27 4 36q0 109 -152 109z" />
    <glyph glyph-name="scedilla" unicode="&#x15f;" horiz-adv-x="500" 
d="M340 462q-58 0 -93.5 -27.5t-35.5 -67.5q0 -39 85 -60l76 -19q66 -16 94 -42.5t28 -72.5q0 -32 -10 -62t-34.5 -60.5t-74.5 -50.5t-120 -23l-18 -33q13 2 21 2q28 0 47.5 -15t19.5 -36q0 -47 -41 -78t-104 -31q-51 0 -118 34l28 38q55 -29 94 -29q28 0 45.5 15.5
t17.5 39.5q0 9 -9 15.5t-22 6.5q-3 0 -27 -4l-13 6l38 70q-153 20 -153 127q0 17 6 51h89q-2 -20 -2 -25q0 -37 28 -57t80 -20q42 0 73 12t45 29.5t20 31t6 23.5q0 6 -1.5 12t-4 10.5t-6.5 8.5l-7 7t-9.5 6t-9.5 4.5t-9.5 4t-8.5 3t-8 2.5l-7 1l-74 19q-77 20 -107.5 45.5
t-30.5 71.5q0 81 64.5 137.5t168.5 56.5q73 0 119 -32.5t46 -85.5q0 -14 -7 -43h-83v22q0 62 -91 62z" />
    <glyph glyph-name="Scaron" unicode="&#x160;" horiz-adv-x="651" 
d="M548 791h-95l-64 148h63l56 -98l104 98h64zM480 741q64 0 111 -16.5t70.5 -43.5t34 -54.5t10.5 -55.5q0 -19 -8 -56h-88q4 27 4 36q0 109 -152 109q-84 0 -140 -39t-56 -103q0 -33 21.5 -51t79.5 -35l172 -49q62 -17 92 -59.5t30 -86.5q0 -20 -7 -47.5t-30 -66t-58 -70
t-99 -54t-145 -22.5q-113 0 -177 51t-64 141q0 30 9 63h87q-4 -25 -4 -41q0 -68 40 -100.5t125 -32.5q104 0 165.5 44t61.5 107q0 36 -26.5 59.5t-86.5 40.5l-171 48q-50 14 -80.5 51t-30.5 84q0 17 5 41.5t25 63t51 69t91 53t138 22.5z" />
    <glyph glyph-name="scaron" unicode="&#x161;" horiz-adv-x="500" 
d="M420 591h-95l-64 148h63l56 -98l104 98h64zM123 345q0 81 64.5 137.5t168.5 56.5q73 0 118.5 -33t45.5 -85q0 -18 -6 -43h-84q1 8 1 22q0 29 -24 45.5t-68 16.5q-57 0 -92.5 -27.5t-35.5 -67.5q0 -39 85 -60l76 -19q66 -16 93.5 -42.5t27.5 -72.5q0 -89 -67 -142.5
t-179 -53.5q-87 0 -136.5 34t-49.5 94q0 23 6 51h89q-2 -20 -2 -25q0 -37 28 -57t80 -20q42 0 72.5 12t44.5 29t20 31t6 24q0 7 -1.5 13.5t-5.5 11.5t-7 9t-9 7.5t-10 5.5t-11 4.5t-9.5 3t-9.5 2.5l-7 2l-74 19q-77 20 -107.5 45.5t-30.5 71.5z" />
    <glyph glyph-name="Tcedilla" unicode="&#x162;" horiz-adv-x="611" 
d="M304 -93q-1 0 -6 -0.5t-11.5 -2t-9.5 -1.5l-13 6l50 91h-53l138 647h-241l17 82h573l-17 -82h-238l-138 -647l-30 -55q13 2 21 2q28 0 47.5 -15t19.5 -36q0 -47 -41 -78t-104 -31q-51 0 -118 34l28 38q57 -29 94 -29q28 0 45.5 15.5t17.5 39.5q0 9 -9 15.5t-22 6.5z" />
    <glyph glyph-name="tcedilla" unicode="&#x163;" horiz-adv-x="278" 
d="M136 -110q-1 0 -6 -0.5t-11.5 -2t-9.5 -1.5l-13 6l50 91q-49 18 -49 73q0 16 3 31l79 370h-71l14 67h71l31 144h84l-31 -144h89l-14 -67h-89l-78 -367q-2 -12 -2 -14q0 -12 10 -19.5t26 -7.5q13 0 48 8l-16 -73q-25 -7 -65 -7h-2l-27 -49q13 2 21 2q28 0 47.5 -15
t19.5 -36q0 -47 -41 -78t-104 -31q-51 0 -118 34l28 38q57 -29 94 -29q28 0 45.5 15.5t17.5 39.5q0 9 -9 15.5t-22 6.5z" />
    <glyph glyph-name="Tcaron" unicode="&#x164;" horiz-adv-x="611" 
d="M524 791h-95l-64 148h63l56 -98l104 98h64zM493 647l-138 -647h-94l138 647h-241l17 82h573l-17 -82h-238z" />
    <glyph glyph-name="tcaron" unicode="&#x165;" horiz-adv-x="373" 
d="M425 740h81l-15 -69q-19 -88 -100 -88l9 42h3q12 0 19 1.5t15.5 12t13.5 31.5h-41zM356 524l-14 -67h-89l-78 -367q-2 -12 -2 -14q0 -12 10 -19.5t26 -7.5q13 0 48 8l-16 -73q-25 -7 -65 -7q-41 0 -65 21t-24 58q0 16 3 31l79 370h-71l14 67h71l31 144h84l-31 -144h89z
" />
    <glyph glyph-name="Tbar" unicode="&#x166;" horiz-adv-x="611" 
d="M198 357l16 72h141l46 218h-240l17 82h572l-17 -82h-239l-46 -218h141l-16 -72h-140l-76 -357h-93l76 357h-142z" />
    <glyph glyph-name="tbar" unicode="&#x167;" horiz-adv-x="278" 
d="M359 524l-15 -68h-86l-30 -144h79l-16 -72h-79l-30 -143q-3 -12 -3 -21q0 -15 9 -20.5t30 -5.5q25 0 41 4l-15 -70q-41 -7 -69 -7q-86 0 -86 62q0 7 2 21l38 180h-76l16 72h75l31 144h-71l15 68h71l30 144h83l-30 -144h86z" />
    <glyph glyph-name="Utilde" unicode="&#x168;" horiz-adv-x="721" 
d="M486 901q19 0 70.5 -16t65.5 -16q15 0 24.5 7.5t23.5 29.5h53q-16 -49 -45 -78t-63 -29q-27 0 -73.5 16t-56.5 16q-13 0 -23 -5.5t-13.5 -9.5t-13.5 -18h-53q15 45 38 74t66 29zM359 -23q-108 0 -173.5 50t-65.5 128q0 30 14 96l102 478h94l-109 -512q-5 -23 -5 -44
q0 -52 44.5 -83.5t116.5 -31.5q85 0 142.5 42.5t73.5 116.5l109 512h94l-109 -512q-23 -109 -112.5 -174.5t-215.5 -65.5z" />
    <glyph glyph-name="utilde" unicode="&#x169;" horiz-adv-x="538" 
d="M342 712q19 0 70.5 -16t65.5 -16q15 0 24.5 7.5t23.5 29.5h53q-16 -49 -45 -78t-63 -29q-27 0 -73.5 16t-56.5 16q-13 0 -23 -5.5t-13.5 -9.5t-13.5 -18h-53q15 45 38 74t66 29zM478 0h-76l12 57q-83 -80 -193 -80q-65 0 -101.5 29t-36.5 80q0 19 3 34l86 404h84
l-79 -371q-3 -15 -3 -27q0 -35 24 -56t65 -21q64 0 113 48.5t66 129.5l63 297h84z" />
    <glyph glyph-name="Umacron" unicode="&#x16a;" horiz-adv-x="721" 
d="M688 869l-15 -69h-275l15 69h275zM359 -23q-108 0 -173.5 50t-65.5 128q0 30 14 96l102 478h94l-109 -512q-5 -23 -5 -44q0 -52 44.5 -83.5t116.5 -31.5q85 0 142.5 42.5t73.5 116.5l109 512h94l-109 -512q-23 -109 -112.5 -174.5t-215.5 -65.5z" />
    <glyph glyph-name="umacron" unicode="&#x16b;" horiz-adv-x="538" 
d="M558 676l-15 -69h-275l15 69h275zM478 0h-76l12 57q-83 -80 -193 -80q-65 0 -101.5 29t-36.5 80q0 19 3 34l86 404h84l-79 -371q-3 -15 -3 -27q0 -35 24 -56t65 -21q64 0 113 48.5t66 129.5l63 297h84z" />
    <glyph glyph-name="Ubreve" unicode="&#x16c;" horiz-adv-x="721" 
d="M711 916q-12 -48 -42 -79.5t-64 -43.5t-73 -12q-56 0 -91.5 27.5t-35.5 71.5q0 12 5 36h53v-13q0 -22 22.5 -36t59.5 -14q94 0 110 63h56zM359 -23q-108 0 -173.5 50t-65.5 128q0 30 14 96l102 478h94l-109 -512q-5 -23 -5 -44q0 -52 44.5 -83.5t116.5 -31.5
q85 0 142.5 42.5t73.5 116.5l109 512h94l-109 -512q-23 -109 -112.5 -174.5t-215.5 -65.5z" />
    <glyph glyph-name="ubreve" unicode="&#x16d;" horiz-adv-x="538" 
d="M576 734q-12 -48 -42 -79.5t-64 -43.5t-73 -12q-56 0 -91.5 27.5t-35.5 71.5q0 12 5 36h53v-13q0 -22 22.5 -36t59.5 -14q94 0 110 63h56zM478 0h-76l12 57q-83 -80 -193 -80q-65 0 -101.5 29t-36.5 80q0 19 3 34l86 404h84l-79 -371q-3 -15 -3 -27q0 -35 24 -56t65 -21
q64 0 113 48.5t66 129.5l63 297h84z" />
    <glyph glyph-name="Uring" unicode="&#x16e;" horiz-adv-x="721" 
d="M566 974q36 0 61 -23.5t25 -57.5q0 -50 -40 -89.5t-91 -39.5q-36 0 -60.5 24t-24.5 60q0 47 40.5 86.5t89.5 39.5zM555 912q-21 0 -38 -16t-17 -36q0 -16 10 -25.5t25 -9.5q20 0 37 16.5t17 35.5q0 15 -10 25t-24 10zM359 -23q-108 0 -173.5 50t-65.5 128q0 30 14 96
l102 478h94l-109 -512q-5 -23 -5 -44q0 -52 44.5 -83.5t116.5 -31.5q85 0 142.5 42.5t73.5 116.5l109 512h94l-109 -512q-23 -109 -112.5 -174.5t-215.5 -65.5z" />
    <glyph glyph-name="uring" unicode="&#x16f;" horiz-adv-x="538" 
d="M433 772q36 0 61 -23.5t25 -57.5q0 -50 -40 -89.5t-91 -39.5q-36 0 -60.5 24t-24.5 60q0 47 40.5 86.5t89.5 39.5zM422 710q-21 0 -38 -16t-17 -36q0 -16 10 -25.5t25 -9.5q20 0 37 16.5t17 35.5q0 15 -10 25t-24 10zM478 0h-76l12 57q-83 -80 -193 -80q-65 0 -101.5 29
t-36.5 80q0 19 3 34l86 404h84l-79 -371q-3 -15 -3 -27q0 -35 24 -56t65 -21q64 0 113 48.5t66 129.5l63 297h84z" />
    <glyph glyph-name="Uhungarumlaut" unicode="&#x170;" horiz-adv-x="721" 
d="M695 940h112l-180 -148h-60zM519 940h112l-180 -148h-60zM359 -23q-108 0 -173.5 50t-65.5 128q0 30 14 96l102 478h94l-109 -512q-5 -23 -5 -44q0 -52 44.5 -83.5t116.5 -31.5q85 0 142.5 42.5t73.5 116.5l109 512h94l-109 -512q-23 -109 -112.5 -174.5t-215.5 -65.5z
" />
    <glyph glyph-name="uhungarumlaut" unicode="&#x171;" horiz-adv-x="538" 
d="M569 740h112l-180 -148h-60zM393 740h112l-180 -148h-60zM478 0h-76l12 57q-83 -80 -193 -80q-65 0 -101.5 29t-36.5 80q0 19 3 34l86 404h84l-79 -371q-3 -15 -3 -27q0 -35 24 -56t65 -21q64 0 113 48.5t66 129.5l63 297h84z" />
    <glyph glyph-name="Uogonek" unicode="&#x172;" horiz-adv-x="722" 
d="M366 -23q-109 0 -175.5 49t-66.5 129q0 30 14 96l102 478h94l-109 -512q-5 -27 -5 -44q0 -52 44.5 -83.5t116.5 -31.5q85 0 142.5 42.5t73.5 116.5l109 512h94l-109 -512q-15 -71 -54 -119.5t-123 -103.5q-38 -25 -60.5 -55t-22.5 -55q0 -20 18 -32t48 -12q39 0 71 10
l-9 -45q-27 -10 -72 -10q-63 0 -97 20t-34 58q0 65 97 114q-47 -10 -87 -10z" />
    <glyph glyph-name="uogonek" unicode="&#x173;" horiz-adv-x="556" 
d="M594 524l-111 -524q-33 -18 -69 -51.5t-36 -63.5q0 -19 16 -32t39 -13q34 0 62 10l-9 -45q-30 -10 -67 -10q-53 0 -84 21t-31 57t32 69t91 58h-20l12 57q-83 -80 -193 -80q-65 0 -101.5 29t-36.5 80q0 19 3 34l86 404h84l-79 -371q-3 -15 -3 -27q0 -35 24 -56t65 -21
q64 0 113 48.5t66 129.5l63 297h84z" />
    <glyph glyph-name="Wcircumflex" unicode="&#x174;" horiz-adv-x="937" 
d="M625 935h95l64 -150h-63l-56 99l-104 -99h-64zM737 0h-102l-41 592l-290 -592h-102l-32 729h100l15 -592l288 592h96l41 -592l263 592h104z" />
    <glyph glyph-name="wcircumflex" unicode="&#x175;" horiz-adv-x="723" 
d="M468 749h95l64 -150h-63l-56 99l-104 -99h-64zM560 0h-95l-12 418l-195 -418h-96l-40 524h91l19 -408l189 408h105l11 -408l196 408h91z" />
    <glyph glyph-name="Ycircumflex" unicode="&#x176;" horiz-adv-x="678" 
d="M481 935h95l64 -150h-63l-56 99l-104 -99h-64zM450 286l-61 -286h-94l61 286l-186 443h112l136 -357l289 357h111z" />
    <glyph glyph-name="ycircumflex" unicode="&#x177;" horiz-adv-x="479" 
d="M366 749h95l64 -150h-63l-56 99l-104 -99h-64zM491 524h89l-368 -634q-63 -108 -165 -108q-27 0 -49 10l16 75q36 -4 44 -4q28 0 44 10.5t36 41.5l52 81l-68 528h90l46 -407z" />
    <glyph glyph-name="Ydieresis" unicode="&#x178;" horiz-adv-x="678" 
d="M667 904l-22 -103h-104l22 103h104zM496 904l-22 -103h-104l22 103h104zM450 286l-61 -286h-94l61 286l-186 443h112l136 -357l289 357h111z" />
    <glyph glyph-name="Zacute" unicode="&#x179;" horiz-adv-x="611" 
d="M535 920h112l-180 -148h-60zM739 729l-18 -84l-556 -563h438l-17 -82h-556l18 84l555 563h-406l17 82h525z" />
    <glyph glyph-name="zacute" unicode="&#x17a;" horiz-adv-x="500" 
d="M436 740h112l-180 -148h-60zM557 524l-18 -75l-392 -377h326l-15 -72h-427l18 74l395 378h-294l15 72h392z" />
    <glyph glyph-name="Zdotaccent" unicode="&#x17b;" horiz-adv-x="611" 
d="M564 904l-22 -103h-104l22 103h104zM739 729l-18 -84l-556 -563h438l-17 -82h-556l18 84l555 563h-406l17 82h525z" />
    <glyph glyph-name="zdotaccent" unicode="&#x17c;" horiz-adv-x="500" 
d="M451 702l-22 -103h-104l22 103h104zM557 524l-18 -75l-392 -377h326l-15 -72h-427l18 74l395 378h-294l15 72h392z" />
    <glyph glyph-name="Zcaron" unicode="&#x17d;" horiz-adv-x="611" 
d="M531 792h-95l-64 148h63l56 -98l104 98h64zM739 729l-18 -84l-556 -563h438l-17 -82h-556l18 84l555 563h-406l17 82h525z" />
    <glyph glyph-name="zcaron" unicode="&#x17e;" horiz-adv-x="500" 
d="M419 590h-95l-64 148h63l56 -98l104 98h64zM557 524l-18 -75l-392 -377h326l-15 -72h-427l18 74l395 378h-294l15 72h392z" />
    <glyph glyph-name="longs" unicode="&#x17f;" horiz-adv-x="278" 
d="M173 0h-84l97 457h-70l14 67h70l19 89q12 56 51.5 87.5t97.5 31.5q22 0 45 -5l-15 -69q-14 2 -27 2q-32 0 -48 -14.5t-24 -52.5z" />
    <glyph glyph-name="uni0180" unicode="&#x180;" horiz-adv-x="556" 
d="M425 653l-9 -53h-150l-31 -146q38 41 65 57q48 28 111 28q76 0 126.5 -56t50.5 -140q0 -85 -33 -167t-102.5 -140.5t-158.5 -58.5q-106 0 -148 101l-17 -78h-75l128 600h-62l9 53h64l16 76h84l-16 -76h148zM296 54q48 0 86 23t59.5 55.5t35.5 72.5t18.5 69t4.5 50
q0 65 -31 101.5t-86 36.5q-87 0 -142.5 -86t-55.5 -193q0 -59 30 -94t81 -35z" />
    <glyph glyph-name="uni0181" unicode="&#x181;" horiz-adv-x="777" 
d="M526 82q72 0 116.5 46.5t44.5 112.5q0 43 -27.5 67.5t-80.5 24.5h-227l-53 -251h227zM724 561q0 50 -33.5 68t-91.5 18h-180l-49 -232h180q50 0 86 13.5t54 36.5t26 46.5t8 49.5zM91 539q0 32 7.5 62.5t25 60.5t52 48.5t82.5 18.5h381q54 0 92.5 -14t56.5 -37.5t25.5 -46
t7.5 -46.5q0 -45 -16 -82.5t-41.5 -61t-45 -36t-37.5 -20.5q101 -42 101 -130q0 -38 -15.5 -80t-45.5 -82t-83 -66.5t-120 -26.5h-329l136 642h-82q-29 0 -46 -21.5t-17 -51.5q0 -38 44 -38q2 0 10.5 0.5t19.5 0.5l-17 -79q-25 -5 -48 -5q-53 0 -75.5 27.5t-22.5 63.5z" />
    <glyph glyph-name="uni0182" unicode="&#x182;" horiz-adv-x="667" 
d="M669 238q0 -20 -6.5 -46.5t-25.5 -61t-46.5 -63t-75 -48t-106.5 -19.5h-329l155 729h489l-17 -82h-396l-50 -232h184q105 0 164.5 -39t59.5 -138zM579 238q0 38 -23.5 66.5t-84.5 28.5h-227l-54 -251h227q72 0 117 45.5t45 110.5z" />
    <glyph glyph-name="uni0183" unicode="&#x183;" horiz-adv-x="556" 
d="M296 54q48 0 86 23t59.5 55.5t35.5 72.5t18.5 69t4.5 50q0 65 -31 101.5t-86 36.5q-87 0 -142.5 -86t-55.5 -193q0 -59 30 -94t81 -35zM294 -23q-106 0 -148 101l-17 -78h-75l155 729h342l-13 -73h-260l-43 -202q38 41 65 57q48 28 111 28q76 0 126.5 -56t50.5 -140
q0 -85 -33 -167t-102.5 -140.5t-158.5 -58.5z" />
    <glyph glyph-name="uni0184" unicode="&#x184;" horiz-adv-x="667" 
d="M414 82q41 0 73.5 14.5t51 35.5t30 46.5t15.5 44.5t4 32q0 51 -33 82.5t-90 31.5h-212l-51 -287h212zM283 539l-16 -88h165q251 0 251 -175q0 -27 -4 -50q-18 -99 -94 -162.5t-176 -63.5h-314l84 477l-88 -52l13 77l88 52l31 175h93l-20 -113l192 113l-13 -76z" />
    <glyph glyph-name="uni0185" unicode="&#x185;" horiz-adv-x="556" 
d="M106 493l11 64l64 39l28 133h84l-16 -74l78 47l-12 -64l-79 -49l-29 -135q38 41 65 57q48 28 111 28q76 0 126.5 -56t50.5 -140q0 -85 -33 -167t-102.5 -140.5t-158.5 -58.5q-106 0 -148 101l-17 -78h-75l113 530zM296 54q48 0 86 23t59.5 55.5t35.5 72.5t18.5 69t4.5 50
q0 65 -31 101.5t-86 36.5q-87 0 -142.5 -86t-55.5 -193q0 -59 30 -94t81 -35z" />
    <glyph glyph-name="uni0186" unicode="&#x186;" horiz-adv-x="710" 
d="M510 741q59 0 105.5 -17.5t73.5 -45t45 -64t24.5 -70t6.5 -68.5q0 -64 -16.5 -132t-51 -134t-83 -117.5t-118.5 -83.5t-151 -32q-32 0 -60.5 5.5t-61 21t-56 41t-40.5 69.5t-20 101h96q6 -81 44.5 -119t114.5 -38q70 0 126 33t88.5 80.5t54.5 105.5t30 103t8 78
q0 91 -47.5 146.5t-125.5 55.5q-55 0 -97.5 -17t-72.5 -50.5t-48 -64t-38 -76.5h-98q67 160 157 224.5t211 64.5z" />
    <glyph glyph-name="uni0187" unicode="&#x187;" horiz-adv-x="722" 
d="M99 264q0 26 4.5 59.5t16.5 80.5t31 92t51.5 90t73.5 79t101 55t131 21q139 0 196 -79q42 59 122 59q24 0 46 -5l-14 -79q-19 1 -29 1q-58 0 -67 -53l-15 -82h-95q-2 73 -38.5 114.5t-130.5 41.5q-69 0 -123.5 -32.5t-84.5 -78.5t-50 -102.5t-26 -98t-6 -71.5
q0 -102 50.5 -159.5t141.5 -57.5q99 0 153.5 56t86.5 151h96q-84 -289 -351 -289q-55 0 -99.5 13.5t-73 37t-49 51.5t-30.5 62t-14.5 63.5t-4.5 59.5z" />
    <glyph glyph-name="uni0188" unicode="&#x188;" horiz-adv-x="530" 
d="M337 462q-55 0 -95 -33.5t-58.5 -82t-26 -87.5t-7.5 -66q0 -66 30.5 -102.5t87.5 -36.5q106 0 150 126h84q-25 -96 -90.5 -149.5t-159.5 -53.5q-90 0 -140 54t-50 150q0 60 18.5 121.5t53 115t91.5 87.5t127 34q84 0 132 -45q36 62 118 62q24 0 46 -5l-12 -69
q-19 1 -29 1q-58 0 -67 -53l-15 -82h-84q0 2 0.5 4t0.5 4q0 51 -27 78.5t-78 27.5z" />
    <glyph glyph-name="uni0189" unicode="&#x189;" horiz-adv-x="722" 
d="M526 729q67 0 115.5 -25t72.5 -64.5t34.5 -77t10.5 -74.5q0 -57 -12.5 -119.5t-42 -129t-72.5 -119t-111 -86.5t-150 -34h-282l72 341h-68l13 67h70l68 321h282zM255 341l-55 -259h172q70 0 124.5 32t84.5 77.5t50 103.5t26 103t6 82q0 79 -45.5 123t-125.5 44h-171
l-51 -239h166l-14 -67h-167z" />
    <glyph glyph-name="uni018A" unicode="&#x18a;" horiz-adv-x="869" 
d="M347 82h172q67 0 120 29t84 72t52 98t28.5 101t7.5 87q0 178 -172 178h-172zM139 539q0 32 7.5 62.5t25 60.5t52 48.5t82.5 18.5h366q113 0 173.5 -64.5t60.5 -181.5q0 -24 -4 -57.5t-15.5 -80.5t-29.5 -93t-48.5 -92.5t-69.5 -81t-96 -56.5t-125 -22h-281l136 642h-82
q-29 0 -46 -21.5t-17 -51.5q0 -38 44 -38q2 0 10.5 0.5t19.5 0.5l-17 -79q-25 -5 -48 -5q-53 0 -75.5 27.5t-22.5 63.5z" />
    <glyph glyph-name="uni018B" unicode="&#x18b;" horiz-adv-x="667" 
d="M402 435h180l38 212h-396l14 82h489l-128 -729h-329q-55 0 -93 16.5t-56 44t-25 54.5t-7 58q0 47 14.5 90t47.5 83.5t97.5 64.5t153.5 24zM183 187q0 -105 110 -105h227l48 271h-227q-72 0 -115 -47t-43 -119z" />
    <glyph glyph-name="uni018C" unicode="&#x18c;" horiz-adv-x="556" 
d="M161 202q0 -67 32.5 -107t89.5 -40q45 0 80.5 22.5t55 54.5t32 71t16.5 67t4 47q0 67 -30.5 105.5t-85.5 38.5q-44 0 -79.5 -22t-56 -54t-34.5 -69.5t-19 -66t-5 -47.5zM353 539q105 0 147 -86l35 203h-308l13 73h391l-128 -729h-75l12 67q-75 -90 -182 -90
q-87 0 -136 56t-49 154q0 148 79.5 250t200.5 102z" />
    <glyph glyph-name="uni018D" unicode="&#x18d;" horiz-adv-x="566" 
d="M411 538q53 0 91 -16t58 -42.5t28.5 -54.5t8.5 -59q0 -24 -4.5 -53.5t-19 -72.5t-37.5 -80.5t-65 -72.5t-96 -53q-39 -11 -67 -11q-14 0 -17 1l-16 3l173 -151l-18 -72h-398l18 72h269l-143 127q-49 44 -68 76q-29 48 -29 106q0 95 50.5 192.5t129.5 132.5q62 28 152 28z
M363 456q-44 0 -79 -21t-55 -50.5t-34 -66.5t-19 -62.5t-6 -44.5q0 -121 123 -121q63 0 112.5 42.5t73.5 99.5t24 111q0 56 -29.5 84.5t-82.5 28.5h-28z" />
    <glyph glyph-name="uni018E" unicode="&#x18e;" horiz-adv-x="667" 
d="M572 332h-395l17 82h396l49 233h-412l18 82h506l-155 -729h-523l18 82h429z" />
    <glyph glyph-name="uni018F" unicode="&#x18f;" horiz-adv-x="778" 
d="M105 272q0 69 14 113h609q2 32 2 47q0 106 -56.5 166.5t-156.5 60.5q-93 0 -169 -55.5t-116 -151.5h-94q48 133 153.5 211t239.5 78q138 0 215.5 -79t77.5 -216q0 -196 -123 -332.5t-303 -136.5q-136 0 -214.5 80t-78.5 215zM711 303h-512q0 -70 18.5 -120t51 -76
t67.5 -37t76 -11q103 0 184 66.5t115 177.5z" />
    <glyph glyph-name="uni0190" unicode="&#x190;" horiz-adv-x="667" 
d="M433 663q-55 0 -95 -17t-58 -41.5t-25.5 -44t-7.5 -33.5q0 -45 38.5 -84.5t96.5 -39.5h88l-15 -82h-108q-63 0 -125 -44t-62 -106q0 -112 164 -112q22 0 43 2t55 12t60 27t49 51.5t30 80.5h88q-13 -70 -47.5 -121t-71 -75.5t-84 -39t-74.5 -17t-56 -2.5q-61 0 -107 12.5
t-72.5 31.5t-42.5 45.5t-21.5 49.5t-5.5 49q0 65 40.5 122.5t123.5 86.5q-82 37 -82 119q0 105 83.5 176.5t216.5 71.5q112 0 172 -46.5t60 -132.5q0 -15 -4 -47h-88q2 22 2 30q0 57 -40.5 87.5t-117.5 30.5z" />
    <glyph glyph-name="uni0191" unicode="&#x191;" horiz-adv-x="611" 
d="M20 -76l171 805h489l-18 -82h-396l-49 -233h348l-18 -82h-348l-93 -441q-12 -53 -59 -81t-118 -28q-12 0 -27 3l17 81q17 -1 20 -1q68 0 81 59z" />
    <glyph glyph-name="florin" unicode="&#x192;" horiz-adv-x="278" 
d="M370 524l-14 -67h-86l-120 -566q-14 -62 -52 -85.5t-124 -23.5q-8 0 -19 3l15 71q18 -2 25 -2q38 0 53.5 14t24.5 56l113 533h-70l14 67h70l19 89q12 56 51.5 87.5t97.5 31.5q22 0 45 -5l-15 -69q-14 2 -27 2q-32 0 -48 -14.5t-24 -52.5l-15 -69h86z" />
    <glyph glyph-name="uni0193" unicode="&#x193;" horiz-adv-x="778" 
d="M206 290q0 -69 21 -118t55.5 -72t67.5 -32t70 -9q100 0 176 63.5t93 160.5l3 20h-222l15 82h304l-69 -389h-59l-6 97q-125 -116 -269 -116q-127 0 -201 79.5t-74 212.5q0 124 52 231t151 174t222 67q146 0 216 -82q41 67 127 67q23 0 46 -5l-14 -79q-19 1 -29 1
q-58 0 -67 -53l-15 -82h-95q-2 70 -51.5 110.5t-132.5 40.5q-116 0 -200.5 -81.5t-107.5 -215.5q-7 -35 -7 -72z" />
    <glyph glyph-name="uni0194" unicode="&#x194;" horiz-adv-x="667" 
d="M379 194q-53 -70 -53 -101q0 -26 25 -26q15 0 26.5 13.5t11.5 45.5t-10 68zM231 81q0 32 21 69.5t97 135.5l-187 443h115l139 -355l283 355h111l-368 -443q43 -77 43 -147q0 -60 -44.5 -113t-109.5 -53q-54 0 -77 33.5t-23 74.5z" />
    <glyph glyph-name="uni0195" unicode="&#x195;" horiz-adv-x="889" 
d="M896 298q0 -46 -25 -101t-67 -104.5t-107.5 -82.5t-137.5 -33h-55q-86 0 -86 62q0 11 3 21l64 303q3 15 3 27q0 41 -27 58.5t-62 17.5q-64 0 -113.5 -48.5t-66.5 -128.5l-61 -289h-83l155 729h83l-59 -277q47 48 89 67.5t98 19.5q66 0 102 -29t36 -80q0 -18 -4 -34
l-63 -299q-1 -3 -1 -10q0 -37 64 -37q98 0 165 81t67 166q0 102 -84 170l103 4q33 -30 51.5 -77t18.5 -96z" />
    <glyph glyph-name="uni0196" unicode="&#x196;" horiz-adv-x="278" 
d="M309 729l-134 -632q-3 -12 -3 -21q0 -15 9 -20.5t30 -5.5q25 0 40 4l-14 -70q-41 -7 -70 -7q-86 0 -86 62q0 11 3 21l142 669h83z" />
    <glyph glyph-name="uni0197" unicode="&#x197;" horiz-adv-x="333" 
d="M194 339h-119l14 67h119l68 323h94l-68 -323h120l-14 -67h-120l-72 -339h-94z" />
    <glyph glyph-name="uni0198" unicode="&#x198;" horiz-adv-x="741" 
d="M715 521q19 14 27 20.5t17 19.5t9 26q0 19 -15 35.5t-32 16.5q-18 0 -38 -17l-231 -190l209 -432h-110l-178 374l-144 -119l-54 -255h-93l154 729h93l-78 -369l389 326q54 43 105 43q48 0 81.5 -43t33.5 -85q0 -80 -101 -136z" />
    <glyph glyph-name="uni0199" unicode="&#x199;" horiz-adv-x="500" 
d="M43 0l109 613q10 56 48 87.5t96 31.5q22 0 46 -5l-13 -69q-18 1 -28 1q-59 0 -68 -53l-53 -304l261 222h107l-214 -181l153 -343h-103l-126 284l-96 -80l-36 -204h-83z" />
    <glyph glyph-name="uni019A" unicode="&#x19a;" horiz-adv-x="333" 
d="M196 339h-124l14 67h124l68 323h84l-68 -323h125l-14 -67h-125l-72 -339h-84z" />
    <glyph glyph-name="lambdastroke" unicode="&#x19b;" horiz-adv-x="560" 
d="M270 732q42 0 67.5 -18t43.5 -71l156 95l-16 -76l-127 -77l82 -493q5 -19 24 -19q5 0 19 4t17 7l6 -70q-54 -24 -86 -24q-25 0 -39 12t-18 25.5t-8 40.5l-47 354l-235 -420h-96l309 520l-3 18l-192 -116l16 77q5 0 165 98q-10 29 -26.5 38t-41.5 9l-56 -8l28 82
q34 12 58 12z" />
    <glyph glyph-name="uni019C" unicode="&#x19c;" horiz-adv-x="833" 
d="M767 0h-83l16 74q-45 -48 -86.5 -68.5t-93.5 -20.5q-51 0 -80.5 19t-43.5 61q-47 -44 -86.5 -62t-91.5 -18q-63 0 -97 27.5t-34 79.5q0 20 4 39l127 598h95l-118 -555q-4 -17 -4 -35q0 -70 74 -70q51 0 93 40t54 97l111 523h95l-118 -555q-4 -17 -4 -37q0 -68 73 -68
q51 0 93 40t54 97l111 523h95z" />
    <glyph glyph-name="uni019D" unicode="&#x19d;" horiz-adv-x="722" 
d="M78 -76l141 805h101l276 -596l105 596h88l-128 -729h-105l-273 591l-123 -700q-10 -53 -53 -81t-114 -28q-13 0 -28 3l13 76q17 -1 20 -1q68 0 80 64z" />
    <glyph glyph-name="uni019E" unicode="&#x19e;" horiz-adv-x="556" 
d="M153 524h77l-16 -88q44 55 89 79t103 24q67 0 105 -30.5t38 -84.5q0 -18 -2 -28l-105 -596h-83l99 563q2 16 2 22q0 38 -24.5 59.5t-67.5 21.5q-64 0 -111.5 -48.5t-61.5 -128.5l-51 -289h-84z" />
    <glyph glyph-name="uni019F" unicode="&#x19f;" horiz-adv-x="778" 
d="M829 446q0 -196 -123 -332.5t-303 -136.5q-136 0 -214.5 80t-78.5 215q0 87 30 171t83.5 150.5t135 107t177.5 40.5q138 0 215.5 -79t77.5 -216zM733 385q2 32 2 47q0 106 -56.5 166.5t-156.5 60.5q-109 0 -192.5 -75t-112.5 -199h516zM719 315h-514q0 -5 -0.5 -14.5
t-0.5 -13.5q0 -105 57 -166.5t156 -61.5q106 0 188 70t114 186z" />
    <glyph glyph-name="Ohorn" unicode="&#x1a0;" horiz-adv-x="778" 
d="M527 659q-96 0 -173 -57t-117.5 -145t-40.5 -184q0 -99 54.5 -156.5t149.5 -57.5t172.5 56t118.5 144t41 186q0 100 -54 157t-151 57zM938 730q0 -121 -134 -142q23 -55 23 -127q0 -92 -33 -179t-90 -154.5t-141 -109t-180 -41.5q-132 0 -207 75.5t-75 204.5q0 89 32 175
t88 155t141 111.5t182 42.5q62 0 112 -18t79.5 -36t41.5 -18q45 0 60 8t15 35q0 16 -9 30l75 54q20 -31 20 -66z" />
    <glyph glyph-name="ohorn" unicode="&#x1a1;" horiz-adv-x="556" 
d="M280 54q40 0 73 16t54 43t36.5 57t23 62.5t11 56.5t3.5 41q0 63 -29.5 97.5t-84.5 34.5q-48 0 -86 -24t-59 -58t-34.5 -74.5t-18 -70t-4.5 -48.5q0 -63 30 -98t85 -35zM526 504q36 0 50.5 9t14.5 34q0 17 -9 30l76 54q19 -32 19 -66q0 -15 -3 -30t-13 -39t-36.5 -43
t-65.5 -27q11 -36 11 -79q0 -156 -87.5 -263t-219.5 -107q-90 0 -138.5 50t-48.5 141q0 30 6.5 69.5t27 94.5t52 99.5t89 76t131.5 31.5q56 0 93.5 -17.5t50.5 -17.5z" />
    <glyph glyph-name="uni01a2" unicode="&#x1a2;" horiz-adv-x="1002" 
d="M529 659q-60 0 -114 -23t-93 -62t-67.5 -88.5t-42.5 -104t-14 -108.5q0 -99 54 -156.5t151 -57.5q72 0 135.5 33.5t105.5 88t66.5 123.5t24.5 141q0 100 -54.5 157t-151.5 57zM385 -23q-132 0 -207 75.5t-75 204.5q0 69 19.5 138.5t58 131.5t91 110t124 76t151.5 28
q113 0 187 -56q91 57 193 57q123 0 123 -118q0 -29 -7 -65l-119 -559h-94l125 589q3 12 3 25q0 58 -53 58q-39 0 -62 -10t-56 -36q42 -68 42 -165q0 -91 -32.5 -178.5t-89.5 -155t-141.5 -109t-180.5 -41.5z" />
    <glyph glyph-name="uni01a3" unicode="&#x1a3;" horiz-adv-x="737" 
d="M371 462q-50 0 -90 -27.5t-63.5 -70.5t-35.5 -89t-12 -88q0 -64 29.5 -98.5t84.5 -34.5q49 0 88.5 26.5t63.5 68t37 88.5t13 93q0 63 -29.5 97.5t-85.5 34.5zM750 369l-121 -569h-84l126 589q5 24 5 40q0 42 -44 42q-37 0 -78 -20q21 -42 21 -103q0 -48 -11 -98.5
t-35.5 -99.5t-59.5 -87.5t-87 -62t-114 -23.5q-91 0 -139 50t-48 141q0 41 9 87t32 97.5t56.5 92.5t87.5 67.5t121 26.5q83 0 131 -41q75 42 135 42q54 0 80.5 -21t26.5 -74q0 -32 -10 -76z" />
    <glyph glyph-name="uni01A4" unicode="&#x1a4;" horiz-adv-x="842" 
d="M609 391q78 0 125.5 46.5t47.5 114.5q0 45 -31 70t-88 25h-194l-54 -256h194zM881 575q0 -111 -74 -188.5t-181 -77.5h-229l-65 -309h-93l136 642h-82q-29 0 -46 -21.5t-17 -51.5q0 -38 44 -38q2 0 10.5 0.5t19.5 0.5l-17 -79q-25 -5 -48 -5q-53 0 -75.5 27.5t-22.5 63.5
q0 32 7.5 62.5t25 60.5t52 48.5t82.5 18.5h386q91 0 139 -39.5t48 -114.5z" />
    <glyph glyph-name="uni01A5" unicode="&#x1a5;" horiz-adv-x="556" 
d="M302 54q57 0 99 33.5t61 82.5t27.5 88t8.5 66q0 65 -31.5 101.5t-87.5 36.5q-44 0 -80 -23t-57 -56t-35 -73t-19 -71.5t-5 -54.5q0 -60 32 -95t87 -35zM586 344q0 -155 -83.5 -261t-208.5 -106q-53 0 -86.5 21t-56.5 70l-60 -281h-84l176 826q12 56 51.5 87.5t97.5 31.5
q22 0 45 -5l-18 -69q-14 2 -27 2q-32 0 -48 -14.5t-24 -52.5l-33 -153q21 44 75 71.5t110 27.5q80 0 127 -52.5t47 -142.5z" />
    <glyph glyph-name="uni01a6" unicode="&#x1a6;" horiz-adv-x="666" 
d="M242 271h194q43 0 77 15t53 39.5t29 52t10 55.5q0 45 -30 69.5t-85 24.5h-194zM224 189l-40 -189h-93l155 729h93l-26 -120h208q89 0 137.5 -41t48.5 -116q0 -67 -34.5 -130t-95.5 -99q47 -30 47 -95q0 -31 -13 -91.5t-13 -83.5q0 -41 26 -55l-5 -23h-113q-3 17 -3 40
q0 36 9 79l14 65q5 26 5 46q0 84 -98 84h-209z" />
    <glyph glyph-name="uni01A7" unicode="&#x1a7;" horiz-adv-x="667" 
d="M334 59q22 0 43 2t55 12t60 27t49 51.5t30 80.5h88q-11 -59 -36.5 -104.5t-59 -71.5t-66.5 -43.5t-70.5 -24.5t-58.5 -9t-42 -2q-75 0 -127.5 18t-77 48.5t-34.5 59.5t-10 62q0 71 46.5 132t143.5 86l192 49q72 19 102 44q39 33 39 85q0 47 -38.5 74.5t-104.5 27.5
q-87 0 -141 -38.5t-67 -109.5h-88q20 107 100 166.5t206 59.5q107 0 166 -45.5t59 -126.5q0 -89 -49 -141t-127 -71l-190 -48q-156 -40 -156 -138q0 -112 164 -112z" />
    <glyph glyph-name="uni01A8" unicode="&#x1a8;" horiz-adv-x="500" 
d="M403 156h88q-37 -179 -241 -179q-88 0 -138.5 37t-50.5 100q0 134 176 175l84 19q111 25 111 88q0 31 -26 48.5t-72 17.5q-102 0 -120 -84h-88q14 77 71 119t148 42q81 0 128 -35.5t47 -95.5q0 -136 -188 -178q-5 -1 -7 -2l-82 -19q-95 -23 -95 -85q0 -32 29.5 -51
t79.5 -19q33 0 59 8t40 18t25 27t14 25t8 24z" />
    <glyph glyph-name="uni01A9" unicode="&#x1a9;" horiz-adv-x="611" 
d="M327 365l-168 280l15 84h525l-14 -82h-410l169 -282l-269 -283h438l-14 -82h-555l14 82z" />
    <glyph glyph-name="uni01AA" unicode="&#x1aa;" horiz-adv-x="333" 
d="M227 549q26 0 51 21t25 52q0 21 -14 34.5t-36 13.5q-27 0 -51.5 -21t-24.5 -51q0 -21 14 -35t36 -14zM114 585q0 60 49.5 103.5t102.5 43.5q48 0 74 -24.5t26 -66.5q0 -15 -3 -33l-146 -684q-3 -16 -3 -28q0 -22 13.5 -31.5t44.5 -9.5q3 0 20 1l-15 -71q-17 -3 -29 -3
q-124 0 -124 82q0 14 3 27l128 603q-20 -7 -41 -7q-44 0 -72 28t-28 70z" />
    <glyph glyph-name="uni01AB" unicode="&#x1ab;" horiz-adv-x="278" 
d="M176 -22q-72 6 -72 64q0 6 2 18l70 396h-71l12 68h71l25 144h83l-25 -144h86l-12 -68h-86l-64 -359q-2 -16 -2 -19q0 -16 9 -22t31 -6q25 0 41 4l-29 -163q-18 -109 -163 -109q-13 0 -28 3l13 71q17 -1 20 -1q38 0 55.5 15t24.5 54z" />
    <glyph glyph-name="uni01AC" unicode="&#x1ac;" horiz-adv-x="611" 
d="M123 539q0 32 7.5 61.5t24.5 60t51.5 49t83.5 19.5h460l-17 -82h-239l-138 -647h-93l138 647h-43h-82q-28 0 -46 -22.5t-18 -53.5q0 -40 44 -40q10 0 30 1l-17 -79q-25 -5 -48 -5q-53 0 -75.5 27.5t-22.5 63.5z" />
    <glyph glyph-name="uni01AD" unicode="&#x1ad;" horiz-adv-x="278" 
d="M292 606l-14 -82h86l-12 -68h-86l-63 -359q-2 -8 -2 -19q0 -16 8.5 -22t30.5 -6q25 0 41 4l-12 -70q-41 -7 -70 -7q-88 0 -88 65q0 6 2 18l70 396h-71l12 68h71l16 89q10 56 48 87.5t96 31.5q22 0 46 -5l-12 -69q-19 1 -29 1q-57 0 -68 -53z" />
    <glyph glyph-name="uni01AE" unicode="&#x1ae;" horiz-adv-x="611" 
d="M267 -109l133 756h-240l14 82h572l-14 -82h-239l-127 -723q-2 -10 -2 -15q0 -44 59 -44q3 0 20 1l-14 -81q-15 -3 -28 -3q-64 0 -100 23t-36 66q0 13 2 20z" />
    <glyph glyph-name="Uhorn" unicode="&#x1af;" horiz-adv-x="773" 
d="M799 729q28 1 41.5 9t13.5 34q0 16 -9 30l75 54q20 -31 20 -66q0 -54 -34.5 -96t-123.5 -48l-91 -429q-23 -110 -113.5 -175t-218.5 -65q-112 0 -173.5 48.5t-61.5 134.5q0 29 7 57l108 512h93l-108 -512q-5 -25 -5 -40q0 -59 42 -88.5t115 -29.5q88 0 147 42t75 116
l108 512h93z" />
    <glyph glyph-name="uhorn" unicode="&#x1b0;" horiz-adv-x="623" 
d="M604 524q27 1 40.5 9t13.5 34q0 17 -9 30l76 54q19 -32 19 -66q0 -25 -7 -47.5t-24.5 -45t-52.5 -36.5t-84 -16l-94 -440h-75l16 73q-48 -52 -93 -74t-103 -22q-66 0 -103 29.5t-37 80.5q0 18 4 33l86 404h83l-79 -371q-3 -13 -3 -26q0 -36 23.5 -56.5t65.5 -20.5
q65 0 114.5 48.5t66.5 128.5l63 297h93z" />
    <glyph glyph-name="uni01B1" unicode="&#x1b1;" horiz-adv-x="768" 
d="M342 -30q-75 0 -129.5 24t-82 63.5t-39.5 80.5t-12 86q0 56 22 130t75 139q59 71 167 123h-176l19 76h274l-20 -80q-98 -36 -165 -112t-92 -176q-11 -46 -11 -82t8.5 -67.5t28 -62t58.5 -48.5t92 -18q68 0 129 35.5t101 90t63 119t23 124.5q0 137 -113 197l20 80h264
l-19 -76h-174q20 -15 34 -27.5t33.5 -37.5t30 -59.5t10.5 -77.5q0 -69 -31 -145.5t-83.5 -143.5t-133.5 -111t-171 -44z" />
    <glyph glyph-name="uni01b2" unicode="&#x1b2;" horiz-adv-x="722" 
d="M329 -23q-36 0 -63.5 2.5t-56.5 12t-47.5 25.5t-30 44t-11.5 67q0 35 9 79l111 522h93l-120 -562q-3 -15 -3 -28q0 -23 10 -39.5t26.5 -25t33.5 -12t37 -3.5q67 0 123 21.5t94 58t64.5 85.5t38.5 102.5t12 109.5q0 49 -13 102.5t-27 88.5t-44 102h108q72 -135 72 -274
q0 -68 -17 -135.5t-51.5 -129t-83 -109t-117 -76t-147.5 -28.5z" />
    <glyph glyph-name="uni01B3" unicode="&#x1b3;" horiz-adv-x="793" 
d="M769 526l6.5 6.5t8.5 9t8 10.5t8 12t5.5 12t2.5 13q0 20 -17 34.5t-35 14.5q-22 0 -43 -24l-273 -328l-61 -286h-93l61 286l-187 443h115l139 -355l235 291q58 64 123 64q44 0 87 -36.5t43 -85.5q0 -60 -75 -123z" />
    <glyph glyph-name="yhook" unicode="&#x1b4;" horiz-adv-x="608" 
d="M711 660q-29 0 -54.5 -28t-72.5 -108l-367 -634q-63 -108 -158 -108q-31 0 -53 13l16 75q26 -6 43 -6q48 0 77 51l50 85l-65 524h89l47 -408l233 409q39 68 67.5 109t53.5 62.5t45 28.5t48 7q15 0 43 -5l-15 -69q-12 2 -27 2z" />
    <glyph glyph-name="uni01B5" unicode="&#x1b5;" horiz-adv-x="611" 
d="M728 729l-17 -84l-236 -239h77l-14 -67h-129l-254 -257h438l-17 -82h-555l17 82l254 257h-87l14 67h139l238 241h-410l17 82h525z" />
    <glyph glyph-name="uni01B6" unicode="&#x1b6;" horiz-adv-x="500" 
d="M559 524l-16 -74l-155 -149h83l-14 -67h-138l-167 -161h325l-16 -73h-426l16 75l166 159h-93l14 67h149l157 150h-292l16 73h391z" />
    <glyph glyph-name="Yogh" unicode="&#x1b7;" horiz-adv-x="611" 
d="M306 55q94 0 157.5 49.5t63.5 128.5q0 122 -208 122l16 75q21 0 37.5 5.5t24.5 11.5t22 19l179 181h-410l18 82h525l-18 -84l-229 -232q64 -17 100.5 -48t36.5 -100q0 -129 -95.5 -208.5t-239.5 -79.5q-219 0 -219 179q0 26 4 50h88q-3 -18 -3 -34q0 -117 150 -117z" />
    <glyph glyph-name="uni01B8" unicode="&#x1b8;" horiz-adv-x="611" 
d="M444 355q-77 0 -133.5 -18t-85.5 -47.5t-41.5 -59.5t-12.5 -61q0 -53 44 -83.5t116 -30.5q170 0 211 151h88q-65 -229 -313 -229q-110 0 -174 47.5t-64 129.5q0 19 5 44q11 56 33.5 96t55.5 63t62 35t70 21l-131 232l18 84h525l-18 -82h-410l103 -181q10 -14 14.5 -19
t18.5 -11t35 -6z" />
    <glyph glyph-name="uni01B9" unicode="&#x1b9;" horiz-adv-x="500" 
d="M22 25q0 21 4 45.5t19 59.5t38.5 63.5t68.5 52t104 30.5l-106 174l16 74h391l-16 -73h-292l107 -171l-16 -75h-48q-51 0 -88 -16t-55.5 -42t-26.5 -53t-8 -55q0 -50 31.5 -77t89.5 -27q72 0 116 37t65 114h88q-65 -229 -283 -229q-93 0 -146 45t-53 123z" />
    <glyph glyph-name="uni01ba" unicode="&#x1ba;" horiz-adv-x="500" 
d="M359 276q151 -18 151 -128q0 -93 -77 -155.5t-189 -62.5q-20 0 -61.5 8.5t-56.5 8.5q-29 0 -29 -26q0 -24 27 -37t77 -13q86 0 193 38l8 -69l-9 -3q-114 -39 -208 -39q-84 0 -125.5 29t-41.5 81q0 47 26 79t90 32q29 0 73.5 -8t52.5 -8q22 0 49.5 7t54.5 20t45.5 37
t18.5 52q0 38 -35.5 62t-99.5 24h-48l16 75l179 171h-292l15 73h391l-15 -74z" />
    <glyph glyph-name="uni01bb" unicode="&#x1bb;" horiz-adv-x="556" 
d="M148 463q60 246 287 246q86 0 137 -44t51 -117.5t-46 -138t-132 -110.5l79 -36l-16 -77l-153 68l-44 -21q-73 -35 -108 -68t-52 -78h373l-18 -87h-472q30 111 79.5 173t156.5 119l-76 34l17 77l147 -66l43 22q63 32 96 76t33 93q0 46 -31.5 75t-83.5 29
q-35 0 -63.5 -11.5t-46.5 -28.5t-33 -41.5t-22 -44t-14 -43.5h-88z" />
    <glyph glyph-name="uni01be" unicode="&#x1be;" horiz-adv-x="556" 
d="M279 -21q-87 0 -132.5 43t-45.5 122q0 32 8 69h79q-6 -28 -6 -53q0 -49 25 -79t82 -30q39 0 69 10.5t47.5 26.5t28 36.5t14.5 37.5t4 33q0 28 -14.5 48t-34.5 32.5l-40 25t-34 34.5t-14 53q0 17 5 38l6 30h-71l14 68h71l31 144h83l-31 -144h86l-14 -68h-86l-5 -22
q-2 -10 -2 -19q0 -22 14 -41t34 -33t39.5 -30t33.5 -41.5t14 -58.5q0 -29 -9 -60t-29.5 -62t-49.5 -55t-73.5 -39.5t-96.5 -15.5z" />
    <glyph glyph-name="uni01bf" unicode="&#x1bf;" horiz-adv-x="556" 
d="M215 360l-71 -334q375 215 375 374q0 31 -23 46.5t-59 15.5q-42 0 -100 -23.5t-122 -78.5zM125 -63l-33 -155h-84l157 742h84l-17 -80q73 59 125 77.5t130 18.5q55 0 88 -33.5t33 -91.5q0 -51 -24 -103.5t-59 -94t-87 -85t-94 -72t-94 -58t-73.5 -40t-45.5 -22.5
q-5 -3 -6 -3z" />
    <glyph glyph-name="uni01C0" unicode="&#x1c0;" horiz-adv-x="260" 
d="M255 729h60l-201 -941h-60z" />
    <glyph glyph-name="uni01C1" unicode="&#x1c1;" horiz-adv-x="520" 
d="M395 729h60l-201 -941h-60zM255 729h60l-201 -941h-60z" />
    <glyph glyph-name="uni01C2" unicode="&#x1c2;" horiz-adv-x="584" 
d="M572 183l-14 -72h-212l-69 -323h-60l69 323h-212l15 72h212l22 100h-212l14 72h213l80 374h60l-80 -374h211l-15 -72h-211l-22 -100h211z" />
    <glyph glyph-name="uni01C3" unicode="&#x1c3;" horiz-adv-x="278" 
d="M363 729l-74 -350l-67 -211h-40l23 211l74 350h84zM230 103l-22 -103h-84l22 103h84z" />
    <glyph glyph-name="uni01C4" unicode="&#x1c4;" horiz-adv-x="1311" 
d="M517 729q67 0 115.5 -25t72.5 -64.5t34.5 -77t10.5 -74.5q0 -57 -12.5 -119.5t-42 -129t-72.5 -119t-111 -86.5t-150 -34h-282l155 729h282zM191 82h172q70 0 124 31.5t84.5 77.5t50 103.5t26 102.5t6.5 83q0 78 -45.5 122.5t-125.5 44.5h-171zM1231 792h-95l-64 148h63
l56 -98l104 98h64zM1439 729l-18 -84l-556 -563h438l-17 -82h-556l18 84l555 563h-406l17 82h525z" />
    <glyph glyph-name="uni01C5" unicode="&#x1c5;" horiz-adv-x="1208" 
d="M517 729q67 0 115.5 -25t72.5 -64.5t34.5 -77t10.5 -74.5q0 -57 -12.5 -119.5t-42 -129t-72.5 -119t-111 -86.5t-150 -34h-282l155 729h282zM191 82h172q70 0 124 31.5t84.5 77.5t50 103.5t26 102.5t6.5 83q0 78 -45.5 122.5t-125.5 44.5h-171zM1127 590h-95l-64 148h63
l56 -98l104 98h64zM1265 524l-18 -75l-392 -377h326l-15 -72h-427l18 74l395 378h-294l15 72h392z" />
    <glyph glyph-name="uni01C6" unicode="&#x1c6;" horiz-adv-x="1056" 
d="M433 76q-23 -45 -77.5 -72t-108.5 -27q-78 0 -124.5 52.5t-46.5 140.5q0 158 83 263.5t207 105.5q53 0 86 -21t57 -70l60 281h84l-155 -729h-81zM281 54q44 0 80 22.5t56.5 55t34.5 72t19 70.5t5 53q0 64 -31 99.5t-87 35.5q-46 0 -82 -23.5t-56.5 -56.5t-33.5 -73
t-17.5 -69.5t-4.5 -49.5q0 -65 31 -100.5t86 -35.5zM975 590h-95l-64 148h63l56 -98l104 98h64zM1113 524l-18 -75l-392 -377h326l-15 -72h-427l18 74l395 378h-294l15 72h392z" />
    <glyph glyph-name="uni01C7" unicode="&#x1c7;" horiz-adv-x="1056" 
d="M329 729l-138 -647h360l-17 -82h-454l155 729h94zM769 -23q-47 0 -82 15t-52 39t-24.5 46.5t-7.5 44.5q0 21 20 112h94q-18 -85 -18 -100q0 -34 25 -55t65 -21q33 0 59 14.5t40 30.5t25.5 44.5t14 38.5t6.5 30l109 513h94l-116 -547q-21 -98 -87 -151.5t-165 -53.5z" />
    <glyph glyph-name="uni01C8" unicode="&#x1c8;" horiz-adv-x="778" 
d="M329 729l-138 -647h360l-17 -82h-454l155 729h94zM756 524h84l-134 -633q-14 -62 -52 -85.5t-124 -23.5q-8 0 -19 3l15 71q18 -2 25 -2q38 0 53.5 14t24.5 56zM884 729l-22 -103h-84l22 103h84z" />
    <glyph glyph-name="uni01C9" unicode="&#x1c9;" horiz-adv-x="444" 
d="M307 729l-155 -729h-84l155 729h84zM422 524h84l-134 -633q-14 -62 -52 -85.5t-124 -23.5q-8 0 -19 3l15 71q18 -2 25 -2q38 0 53.5 14t24.5 56zM550 729l-22 -103h-84l22 103h84z" />
    <glyph glyph-name="uni01CA" unicode="&#x1ca;" horiz-adv-x="1158" 
d="M805 729l-155 -729h-106l-249 591l-126 -591h-89l155 729h104l250 -598l127 598h89zM921 -23q-47 0 -82 15t-52 39t-24.5 46.5t-7.5 44.5q0 21 20 112h94q-18 -85 -18 -100q0 -34 25 -55t65 -21q33 0 59 14.5t40 30.5t25.5 44.5t14 38.5t6.5 30l109 513h94l-116 -547
q-21 -98 -87 -151.5t-165 -53.5z" />
    <glyph glyph-name="uni01CB" unicode="&#x1cb;" horiz-adv-x="944" 
d="M805 729l-155 -729h-106l-249 591l-126 -591h-89l155 729h104l250 -598l127 598h89zM922 524h84l-134 -633q-14 -62 -52 -85.5t-124 -23.5q-8 0 -19 3l15 71q18 -2 25 -2q38 0 53.5 14t24.5 56zM1050 729l-22 -103h-84l22 103h84z" />
    <glyph glyph-name="uni01CC" unicode="&#x1cc;" horiz-adv-x="778" 
d="M171 524h76l-13 -65q78 80 194 80q62 0 99 -34t37 -91q0 -21 -4 -38l-80 -376h-84l74 349q6 24 6 37q0 35 -25 58t-62 23q-68 0 -117.5 -48t-66.5 -130l-61 -289h-84zM756 524h84l-134 -633q-14 -62 -52 -85.5t-124 -23.5q-8 0 -19 3l15 71q18 -2 25 -2q38 0 53.5 14
t24.5 56zM884 729l-22 -103h-84l22 103h84z" />
    <glyph glyph-name="uni01CD" unicode="&#x1cd;" horiz-adv-x="667" 
d="M550 781h-95l-64 148h63l56 -98l104 98h64zM523 219h-285l-123 -219h-99l415 729h120l101 -729h-102zM513 297l-40 333l-191 -333h231z" />
    <glyph glyph-name="uni01CE" unicode="&#x1ce;" horiz-adv-x="554" 
d="M450 579h-95l-64 148h63l56 -98l104 98h64zM370 462q-108 0 -137 -93h-84q14 83 76.5 126.5t166.5 43.5q79 0 126.5 -31t47.5 -82q0 -10 -6 -37l-64 -301q-1 -3 -1 -10q0 -29 38 -29q8 0 17 2l-13 -65q-8 -1 -18 -3.5t-17.5 -4t-17.5 -1.5q-33 0 -51.5 17t-21.5 31t-3 29
q-1 -1 -8.5 -7.5t-11 -9t-12.5 -9.5t-15 -10.5t-17.5 -10t-21 -10t-23.5 -8t-27.5 -7t-30 -4t-34.5 -1.5q-67 0 -105.5 34t-38.5 94q0 69 54.5 123.5t183.5 66.5q12 1 40 3t39.5 3.5t31 5.5t29 10t18.5 17t12 27l3 18q2 16 2 22q0 27 -30 44t-76 17zM449 258
q-29 -10 -89 -19.5t-101 -17t-74.5 -34.5t-33.5 -72q0 -32 23 -49t66 -17q66 0 122.5 34.5t66.5 80.5z" />
    <glyph glyph-name="uni01CF" unicode="&#x1cf;" horiz-adv-x="300" 
d="M363 781h-95l-64 148h63l56 -98l104 98h64zM352 729l-155 -729h-94l155 729h94z" />
    <glyph glyph-name="icaron" unicode="&#x1d0;" horiz-adv-x="262" 
d="M306 579h-95l-64 148h63l56 -98l104 98h64zM281 524l-111 -524h-84l111 524h84z" />
    <glyph glyph-name="uni01D1" unicode="&#x1d1;" horiz-adv-x="770" 
d="M593 781h-95l-64 148h63l56 -98l104 98h64zM387 -23q-40 0 -77.5 7.5t-76.5 27.5t-68 51t-47 82.5t-18 117.5q0 114 51 222t152.5 182t229.5 74q83 0 143 -26t90.5 -69t44 -88t13.5 -94q0 -26 -4.5 -60.5t-17.5 -82.5t-33.5 -94t-55 -92t-78.5 -80.5t-108 -56t-140 -21.5
zM728 446q0 61 -19.5 105t-52 66.5t-66 32.5t-69.5 10q-95 0 -171 -57.5t-115 -145.5t-39 -186q0 -60 20 -104.5t52 -66.5t65 -32t67 -10q66 0 120 23t88.5 60.5t59 80.5t37 89t18 79t5.5 56z" />
    <glyph glyph-name="uni01D2" unicode="&#x1d2;" horiz-adv-x="556" 
d="M440 579h-95l-64 148h63l56 -98l104 98h64zM384 539q87 0 139.5 -52t52.5 -135q0 -39 -8 -83.5t-30 -98t-54.5 -95t-88.5 -70t-126 -28.5q-84 0 -136.5 52t-52.5 135q0 38 8 82.5t29.5 98t54 95.5t88 70.5t124.5 28.5zM283 54q49 0 87.5 23.5t60 57t35 75t18 71.5t4.5 52
q0 61 -31 95t-86 34q-48 0 -86.5 -24t-59.5 -57.5t-34.5 -75t-18 -71t-4.5 -50.5q0 -60 31 -95t84 -35z" />
    <glyph glyph-name="uni01D3" unicode="&#x1d3;" horiz-adv-x="721" 
d="M578 781h-95l-64 148h63l56 -98l104 98h64zM359 -23q-108 0 -173.5 50t-65.5 128q0 30 14 96l102 478h94l-109 -512q-5 -23 -5 -44q0 -52 44.5 -83.5t116.5 -31.5q85 0 142.5 42.5t73.5 116.5l109 512h94l-109 -512q-23 -109 -112.5 -174.5t-215.5 -65.5z" />
    <glyph glyph-name="uni01D4" unicode="&#x1d4;" horiz-adv-x="538" 
d="M444 579h-95l-64 148h63l56 -98l104 98h64zM478 0h-76l12 57q-83 -80 -193 -80q-65 0 -101.5 29t-36.5 80q0 19 3 34l86 404h84l-79 -371q-3 -15 -3 -27q0 -35 24 -56t65 -21q64 0 113 48.5t66 129.5l63 297h84z" />
    <glyph glyph-name="uni01D5" unicode="&#x1d5;" horiz-adv-x="721" 
d="M681 857l-22 -103h-104l22 103h104zM510 857l-22 -103h-104l22 103h104zM359 -23q-108 0 -173.5 50t-65.5 128q0 30 14 96l102 478h94l-109 -512q-5 -23 -5 -44q0 -52 44.5 -83.5t116.5 -31.5q85 0 142.5 42.5t73.5 116.5l109 512h94l-109 -512q-23 -109 -112.5 -174.5
t-215.5 -65.5zM702 971l-15 -69h-275l15 69h275z" />
    <glyph glyph-name="uni01D6" unicode="&#x1d6;" horiz-adv-x="538" 
d="M564 687l-22 -103h-104l22 103h104zM393 687l-22 -103h-104l22 103h104zM478 0h-76l12 57q-83 -80 -193 -80q-65 0 -101.5 29t-36.5 80q0 19 3 34l86 404h84l-79 -371q-3 -15 -3 -27q0 -35 24 -56t65 -21q64 0 113 48.5t66 129.5l63 297h84zM584 800l-15 -69h-275l15 69
h275z" />
    <glyph glyph-name="uni01D7" unicode="&#x1d7;" horiz-adv-x="721" 
d="M681 857l-22 -103h-104l22 103h104zM510 857l-22 -103h-104l22 103h104zM359 -23q-108 0 -173.5 50t-65.5 128q0 30 14 96l102 478h94l-109 -512q-5 -23 -5 -44q0 -52 44.5 -83.5t116.5 -31.5q85 0 142.5 42.5t73.5 116.5l109 512h94l-109 -512q-23 -109 -112.5 -174.5
t-215.5 -65.5zM620 1038h112l-180 -148h-60z" />
    <glyph glyph-name="uni01D8" unicode="&#x1d8;" horiz-adv-x="538" 
d="M554 687l-22 -103h-104l22 103h104zM383 687l-22 -103h-104l22 103h104zM478 0h-76l12 57q-83 -80 -193 -80q-65 0 -101.5 29t-36.5 80q0 19 3 34l86 404h84l-79 -371q-3 -15 -3 -27q0 -35 24 -56t65 -21q64 0 113 48.5t66 129.5l63 297h84zM509 883h112l-180 -148h-60z
" />
    <glyph glyph-name="uni01D9" unicode="&#x1d9;" horiz-adv-x="721" 
d="M681 857l-22 -103h-104l22 103h104zM510 857l-22 -103h-104l22 103h104zM359 -23q-108 0 -173.5 50t-65.5 128q0 30 14 96l102 478h94l-109 -512q-5 -23 -5 -44q0 -52 44.5 -83.5t116.5 -31.5q85 0 142.5 42.5t73.5 116.5l109 512h94l-109 -512q-23 -109 -112.5 -174.5
t-215.5 -65.5zM597 889h-95l-64 148h63l56 -98l104 98h64z" />
    <glyph glyph-name="uni01DA" unicode="&#x1da;" horiz-adv-x="538" 
d="M554 687l-22 -103h-104l22 103h104zM383 687l-22 -103h-104l22 103h104zM478 0h-76l12 57q-83 -80 -193 -80q-65 0 -101.5 29t-36.5 80q0 19 3 34l86 404h84l-79 -371q-3 -15 -3 -27q0 -35 24 -56t65 -21q64 0 113 48.5t66 129.5l63 297h84zM478 735h-95l-64 148h63
l56 -98l104 98h64z" />
    <glyph glyph-name="uni01DB" unicode="&#x1db;" horiz-adv-x="721" 
d="M681 857l-22 -103h-104l22 103h104zM510 857l-22 -103h-104l22 103h104zM359 -23q-108 0 -173.5 50t-65.5 128q0 30 14 96l102 478h94l-109 -512q-5 -23 -5 -44q0 -52 44.5 -83.5t116.5 -31.5q85 0 142.5 42.5t73.5 116.5l109 512h94l-109 -512q-23 -109 -112.5 -174.5
t-215.5 -65.5zM530 1041l72 -148h-53l-125 148h106z" />
    <glyph glyph-name="uni01DC" unicode="&#x1dc;" horiz-adv-x="538" 
d="M554 687l-22 -103h-104l22 103h104zM383 687l-22 -103h-104l22 103h104zM478 0h-76l12 57q-83 -80 -193 -80q-65 0 -101.5 29t-36.5 80q0 19 3 34l86 404h84l-79 -371q-3 -15 -3 -27q0 -35 24 -56t65 -21q64 0 113 48.5t66 129.5l63 297h84zM386 883l72 -148h-53
l-125 148h106z" />
    <glyph glyph-name="uni01DD" unicode="&#x1dd;" horiz-adv-x="547" 
d="M588 343q0 -28 -6.5 -66.5t-27 -93t-52 -99t-89 -76t-130.5 -31.5q-81 0 -136 49.5t-55 121.5q0 38 17 134h386q5 19 5 46q0 64 -32.5 99t-91.5 35q-101 0 -156 -105h-84q23 81 93.5 131.5t160.5 50.5q89 0 143.5 -56.5t54.5 -139.5zM477 210h-294q-3 -24 -3 -33
q0 -56 31.5 -89.5t84.5 -33.5q61 0 111 43.5t70 112.5z" />
    <glyph glyph-name="uni01DE" unicode="&#x1de;" horiz-adv-x="667" 
d="M661 856l-22 -103h-104l22 103h104zM490 856l-22 -103h-104l22 103h104zM523 219h-285l-123 -219h-99l415 729h120l101 -729h-102zM513 297l-40 333l-191 -333h231zM686 967l-15 -69h-275l15 69h275z" />
    <glyph glyph-name="uni01DF" unicode="&#x1df;" horiz-adv-x="554" 
d="M566 687l-22 -103h-104l22 103h104zM395 687l-22 -103h-104l22 103h104zM370 462q-108 0 -137 -93h-84q14 83 76.5 126.5t166.5 43.5q79 0 126.5 -31t47.5 -82q0 -10 -6 -37l-64 -301q-1 -3 -1 -10q0 -29 38 -29q8 0 17 2l-13 -65q-8 -1 -18 -3.5t-17.5 -4t-17.5 -1.5
q-33 0 -51.5 17t-21.5 31t-3 29q-1 -1 -8.5 -7.5t-11 -9t-12.5 -9.5t-15 -10.5t-17.5 -10t-21 -10t-23.5 -8t-27.5 -7t-30 -4t-34.5 -1.5q-67 0 -105.5 34t-38.5 94q0 69 54.5 123.5t183.5 66.5q12 1 40 3t39.5 3.5t31 5.5t29 10t18.5 17t12 27l3 18q2 16 2 22q0 27 -30 44
t-76 17zM449 258q-29 -10 -89 -19.5t-101 -17t-74.5 -34.5t-33.5 -72q0 -32 23 -49t66 -17q66 0 122.5 34.5t66.5 80.5zM593 802l-15 -69h-275l15 69h275z" />
    <glyph glyph-name="uni01E0" unicode="&#x1e0;" horiz-adv-x="667" 
d="M682 974l-15 -69h-275l15 69h275zM575 867l-22 -103h-104l22 103h104zM523 219h-285l-123 -219h-99l415 729h120l101 -729h-102zM513 297l-40 333l-191 -333h231z" />
    <glyph glyph-name="uni01E1" unicode="&#x1e1;" horiz-adv-x="554" 
d="M491 685l-22 -103h-104l22 103h104zM370 462q-108 0 -137 -93h-84q14 83 76.5 126.5t166.5 43.5q79 0 126.5 -31t47.5 -82q0 -10 -6 -37l-64 -301q-1 -3 -1 -10q0 -29 38 -29q8 0 17 2l-13 -65q-8 -1 -18 -3.5t-17.5 -4t-17.5 -1.5q-33 0 -51.5 17t-21.5 31t-3 29
q-1 -1 -8.5 -7.5t-11 -9t-12.5 -9.5t-15 -10.5t-17.5 -10t-21 -10t-23.5 -8t-27.5 -7t-30 -4t-34.5 -1.5q-67 0 -105.5 34t-38.5 94q0 69 54.5 123.5t183.5 66.5q12 1 40 3t39.5 3.5t31 5.5t29 10t18.5 17t12 27l3 18q2 16 2 22q0 27 -30 44t-76 17zM449 258
q-29 -10 -89 -19.5t-101 -17t-74.5 -34.5t-33.5 -72q0 -32 23 -49t66 -17q66 0 122.5 34.5t66.5 80.5zM595 800l-15 -69h-275l15 69h275z" />
    <glyph glyph-name="uni01E2" unicode="&#x1e2;" horiz-adv-x="1000" 
d="M920 869l-15 -69h-275l15 69h275zM513 214h-269l-130 -214h-103l454 729h622l-17 -82h-371l-49 -233h351l-18 -82h-351l-53 -250h388l-17 -82h-482zM531 295l74 352h-100l-212 -352h238z" />
    <glyph glyph-name="uni01E3" unicode="&#x1e3;" horiz-adv-x="897" 
d="M719 648l-15 -69h-275l15 69h275zM513 163q0 -12 5 -27.5t17 -35t39 -33t64 -13.5q100 0 155 105h84q-24 -82 -94 -132t-161 -50q-117 0 -174 102q-105 -102 -241 -102q-65 0 -103.5 34.5t-38.5 93.5q0 31 11 60t37 57t77 47.5t122 25.5q8 0 32 1.5t31.5 2.5t25.5 4
t25.5 7t18 10.5t16 16.5t8.5 24l5 25q2 14 2 22q0 24 -28 39t-76 15q-59 0 -92 -22t-49 -71h-84q18 63 40 92q60 78 206 78q65 0 107.5 -21t51.5 -44q73 65 182 65q76 0 131.5 -50t55.5 -119q0 -40 -17 -136h-386q-5 -22 -5 -53v-18zM447 257q-24 -9 -67.5 -15.5t-79.5 -13
t-71 -18t-55.5 -35.5t-20.5 -60q0 -66 90 -66q63 0 118.5 35t65.5 80zM536 306h294q3 22 3 33q0 56 -31 89.5t-84 33.5q-62 0 -110.5 -41.5t-71.5 -114.5z" />
    <glyph glyph-name="uni01e4" unicode="&#x1e4;" horiz-adv-x="778" 
d="M205 275q0 -42 9.5 -78t32 -68.5t64 -51t100.5 -18.5q70 0 131.5 33t101.5 90h-200l12 58h218q8 19 13 43l4 20h-222l18 82h304l-31 -145h53l-12 -58h-53l-40 -186h-59l-2 97q-129 -116 -274 -116q-123 0 -194 75t-71 202q0 59 16 123.5t51.5 130t86 117t126 84
t164.5 32.5q121 0 188 -58t67 -163v-12h-95q0 70 -48 110.5t-131 40.5q-74 0 -137 -34t-104 -89t-64 -123t-23 -138z" />
    <glyph glyph-name="uni01e5" unicode="&#x1e5;" horiz-adv-x="556" 
d="M359 462q-47 0 -86.5 -27.5t-62.5 -70.5t-35.5 -89.5t-12.5 -89.5q0 -63 29 -97t82 -34q48 0 86.5 27.5t61 70.5t34.5 90t12 91q0 62 -27.5 95.5t-80.5 33.5zM118 -60v-6q0 -22 9.5 -38.5t21.5 -24.5t29 -12.5t27 -5.5t22 -1q70 0 117 40h-99l11 52h126q18 36 31 100
l6 27q-46 -50 -88 -72t-91 -22q-75 0 -120.5 52t-45.5 142q0 48 12.5 99.5t38 99.5t60 85.5t82 60.5t100.5 23q98 0 140 -91l16 76h77l-93 -438q-19 -91 -41 -142h36l-11 -52h-53q-34 -54 -93.5 -82t-135.5 -28q-85 0 -131 35.5t-46 99.5q0 11 1 23h85z" />
    <glyph glyph-name="Gcaron" unicode="&#x1e6;" horiz-adv-x="778" 
d="M611 781h-95l-64 148h63l56 -98l104 98h64zM205 277q0 -66 19.5 -112t53 -68t65.5 -30.5t68 -8.5q94 0 173.5 57.5t102.5 161.5l6 26h-222l18 82h304l-83 -389h-59l-4 90q-66 -55 -126 -82t-143 -27q-35 0 -69.5 7.5t-71.5 27.5t-64.5 50.5t-45.5 82t-18 116.5
q0 62 17.5 127.5t54.5 128.5t88.5 113t126 80.5t159.5 30.5q118 0 186 -58t68 -158v-17h-91q-1 44 -19 76t-46.5 47.5t-57 22t-58.5 6.5q-66 0 -120.5 -22.5t-89.5 -59.5t-60 -79t-38 -87.5t-18.5 -78t-5.5 -56.5z" />
    <glyph glyph-name="gcaron" unicode="&#x1e7;" horiz-adv-x="552" 
d="M425 579h-95l-64 148h63l56 -98l104 98h64zM371 539q97 0 139 -93l17 78h76l-93 -439q-35 -162 -101.5 -232.5t-197.5 -70.5q-80 0 -128.5 34.5t-48.5 92.5q0 13 2 31h84v-14q0 -34 28.5 -53t79.5 -19q90 0 130 50.5t63 158.5q-75 -80 -172 -80q-76 0 -124.5 51.5
t-48.5 133.5q0 27 7 67t27.5 95t51.5 100t85.5 77t123.5 32zM365 462q-48 0 -86 -24t-58.5 -57.5t-34 -75t-18 -71t-4.5 -50.5q0 -59 29.5 -94t79.5 -35q88 0 143 86t55 198q0 56 -29 89.5t-77 33.5z" />
    <glyph glyph-name="uni01E8" unicode="&#x1e8;" horiz-adv-x="667" 
d="M543 781h-95l-64 148h63l56 -98l104 98h64zM227 249l-53 -249h-94l155 729h94l-79 -373l444 373h120l-361 -298l206 -431h-110l-168 376z" />
    <glyph glyph-name="uni01E9" unicode="&#x1e9;" horiz-adv-x="502" 
d="M452 766h-95l-64 148h63l56 -98l104 98h64zM299 729l-90 -423l269 218h108l-222 -181l140 -343h-96l-114 291l-107 -88l-43 -203h-84l155 729h84z" />
    <glyph glyph-name="Oogonek" unicode="&#x1ea;" horiz-adv-x="778" 
d="M186 -146q0 82 130 130q-43 8 -78.5 27t-67 50.5t-49 83t-17.5 118.5q0 114 51 222t152.5 182t229.5 74q83 0 143 -26t90.5 -69t44 -88t13.5 -94q0 -26 -4.5 -60.5t-17.5 -82.5t-33.5 -94t-55 -92t-78.5 -80.5t-108 -56t-140 -21.5h-19q-22 -10 -33 -16t-33.5 -20.5
t-33.5 -33t-11 -39.5q0 -20 18.5 -32t47.5 -12q40 0 70 10l-9 -45q-30 -10 -68 -10q-64 0 -99 20t-35 55zM732 446q0 61 -19.5 105t-52 66.5t-66 32.5t-69.5 10q-95 0 -171 -57.5t-115 -145.5t-39 -186q0 -60 20 -104.5t52 -66.5t65 -32t67 -10q66 0 120 23t88.5 60.5
t59 80.5t37 89t18 79t5.5 56z" />
    <glyph glyph-name="oogonek" unicode="&#x1eb;" horiz-adv-x="551" 
d="M278 54q49 0 87.5 23.5t60 57t35 75t18 71.5t4.5 52q0 61 -31 95t-86 34q-48 0 -86.5 -24t-59.5 -57.5t-34.5 -75t-18 -71t-4.5 -50.5q0 -60 31 -95t84 -35zM379 539q87 0 139.5 -52t52.5 -135q0 -19 -2.5 -44t-11 -61t-21 -70t-35 -69.5t-51 -62.5t-71 -45.5
t-93.5 -21.5l-6 -3q-20 -9 -32.5 -16t-32.5 -21t-30.5 -32t-10.5 -38t18.5 -32t47.5 -12q40 0 70 10l-9 -45q-30 -10 -68 -10q-64 0 -99 20t-35 55q0 79 122 127q-67 13 -106.5 62t-39.5 121q0 38 8 82.5t29.5 97.5t54 95.5t88 71t124.5 28.5z" />
    <glyph glyph-name="uni01EC" unicode="&#x1ec;" horiz-adv-x="778" 
d="M700 869l-15 -69h-275l15 69h275zM186 -146q0 82 130 130q-43 8 -78.5 27t-67 50.5t-49 83t-17.5 118.5q0 114 51 222t152.5 182t229.5 74q83 0 143 -26t90.5 -69t44 -88t13.5 -94q0 -26 -4.5 -60.5t-17.5 -82.5t-33.5 -94t-55 -92t-78.5 -80.5t-108 -56t-140 -21.5h-19
q-22 -10 -33 -16t-33.5 -20.5t-33.5 -33t-11 -39.5q0 -20 18.5 -32t47.5 -12q40 0 70 10l-9 -45q-30 -10 -68 -10q-64 0 -99 20t-35 55zM732 446q0 61 -19.5 105t-52 66.5t-66 32.5t-69.5 10q-95 0 -171 -57.5t-115 -145.5t-39 -186q0 -60 20 -104.5t52 -66.5t65 -32t67 -10
q66 0 120 23t88.5 60.5t59 80.5t37 89t18 79t5.5 56z" />
    <glyph glyph-name="uni01ED" unicode="&#x1ed;" horiz-adv-x="551" 
d="M545 648l-15 -69h-275l15 69h275zM278 54q49 0 87.5 23.5t60 57t35 75t18 71.5t4.5 52q0 61 -31 95t-86 34q-48 0 -86.5 -24t-59.5 -57.5t-34.5 -75t-18 -71t-4.5 -50.5q0 -60 31 -95t84 -35zM379 539q87 0 139.5 -52t52.5 -135q0 -19 -2.5 -44t-11 -61t-21 -70
t-35 -69.5t-51 -62.5t-71 -45.5t-93.5 -21.5l-6 -3q-20 -9 -32.5 -16t-32.5 -21t-30.5 -32t-10.5 -38t18.5 -32t47.5 -12q40 0 70 10l-9 -45q-30 -10 -68 -10q-64 0 -99 20t-35 55q0 79 122 127q-67 13 -106.5 62t-39.5 121q0 38 8 82.5t29.5 97.5t54 95.5t88 71t124.5 28.5
z" />
    <glyph glyph-name="uni01EE" unicode="&#x1ee;" horiz-adv-x="611" 
d="M530 786h-95l-64 148h63l56 -98l104 98h64zM306 55q94 0 157.5 49.5t63.5 128.5q0 122 -208 122l16 75q21 0 37.5 5.5t24.5 11.5t22 19l179 181h-410l18 82h525l-18 -84l-229 -232q64 -17 100.5 -48t36.5 -100q0 -129 -95.5 -208.5t-239.5 -79.5q-219 0 -219 179
q0 26 4 50h88q-3 -18 -3 -34q0 -117 150 -117z" />
    <glyph glyph-name="uni01EF" unicode="&#x1ef;" horiz-adv-x="560" 
d="M382 599h-95l-64 148h63l56 -98l104 98h64zM378 276q14 -2 28.5 -5t38 -13t40.5 -24.5t30 -41t13 -59.5q0 -113 -81.5 -194.5t-211.5 -81.5q-190 0 -190 171q0 23 5 58h88q-4 -20 -4 -43q0 -108 121 -108q80 0 130.5 52t50.5 126q0 93 -124 93l-37 -1h-11l16 75l179 171
h-292l16 73h391l-16 -74z" />
    <glyph glyph-name="jcaron" unicode="&#x1f0;" horiz-adv-x="222" 
d="M180 524h84l-134 -633q-14 -62 -52 -85.5t-124 -23.5q-8 0 -19 3l15 71q18 -2 25 -2q38 0 53.5 14t24.5 56zM278 564h-95l-64 148h63l56 -98l104 98h64z" />
    <glyph glyph-name="uni01F1" unicode="&#x1f1;" horiz-adv-x="1333" 
d="M517 729q67 0 115.5 -25t72.5 -64.5t34.5 -77t10.5 -74.5q0 -57 -12.5 -119.5t-42 -129t-72.5 -119t-111 -86.5t-150 -34h-282l155 729h282zM191 82h172q70 0 124 31.5t84.5 77.5t50 103.5t26 102.5t6.5 83q0 78 -45.5 122.5t-125.5 44.5h-171zM1461 729l-18 -84
l-556 -563h438l-17 -82h-556l18 84l555 563h-406l17 82h525z" />
    <glyph glyph-name="uni01F2" unicode="&#x1f2;" horiz-adv-x="1222" 
d="M517 729q67 0 115.5 -25t72.5 -64.5t34.5 -77t10.5 -74.5q0 -57 -12.5 -119.5t-42 -129t-72.5 -119t-111 -86.5t-150 -34h-282l155 729h282zM191 82h172q70 0 124 31.5t84.5 77.5t50 103.5t26 102.5t6.5 83q0 78 -45.5 122.5t-125.5 44.5h-171zM1279 524l-18 -75
l-392 -377h326l-15 -72h-427l18 74l395 378h-294l15 72h392z" />
    <glyph glyph-name="uni01F3" unicode="&#x1f3;" horiz-adv-x="1056" 
d="M433 76q-23 -45 -77.5 -72t-108.5 -27q-78 0 -124.5 52.5t-46.5 140.5q0 158 83 263.5t207 105.5q53 0 86 -21t57 -70l60 281h84l-155 -729h-81zM281 54q44 0 80 22.5t56.5 55t34.5 72t19 70.5t5 53q0 64 -31 99.5t-87 35.5q-46 0 -82 -23.5t-56.5 -56.5t-33.5 -73
t-17.5 -69.5t-4.5 -49.5q0 -65 31 -100.5t86 -35.5zM1113 524l-18 -75l-392 -377h326l-15 -72h-427l18 74l395 378h-294l15 72h392z" />
    <glyph glyph-name="uni01F4" unicode="&#x1f4;" horiz-adv-x="778" 
d="M630 929h112l-180 -148h-60zM205 277q0 -66 19.5 -112t53 -68t65.5 -30.5t68 -8.5q94 0 173.5 57.5t102.5 161.5l6 26h-222l18 82h304l-83 -389h-59l-4 90q-66 -55 -126 -82t-143 -27q-35 0 -69.5 7.5t-71.5 27.5t-64.5 50.5t-45.5 82t-18 116.5q0 62 17.5 127.5
t54.5 128.5t88.5 113t126 80.5t159.5 30.5q118 0 186 -58t68 -158v-17h-91q-1 44 -19 76t-46.5 47.5t-57 22t-58.5 6.5q-66 0 -120.5 -22.5t-89.5 -59.5t-60 -79t-38 -87.5t-18.5 -78t-5.5 -56.5z" />
    <glyph glyph-name="uni01F5" unicode="&#x1f5;" horiz-adv-x="552" 
d="M467 727h112l-180 -148h-60zM371 539q97 0 139 -93l17 78h76l-93 -439q-35 -162 -101.5 -232.5t-197.5 -70.5q-80 0 -128.5 34.5t-48.5 92.5q0 13 2 31h84v-14q0 -34 28.5 -53t79.5 -19q90 0 130 50.5t63 158.5q-75 -80 -172 -80q-76 0 -124.5 51.5t-48.5 133.5
q0 27 7 67t27.5 95t51.5 100t85.5 77t123.5 32zM365 462q-48 0 -86 -24t-58.5 -57.5t-34 -75t-18 -71t-4.5 -50.5q0 -59 29.5 -94t79.5 -35q88 0 143 86t55 198q0 56 -29 89.5t-77 33.5z" />
    <glyph glyph-name="Wynn" unicode="&#x1f7;" horiz-adv-x="630" 
d="M304 555l-69 -326q107 62 184 118.5t116.5 102t56.5 80.5t17 65q0 29 -25.5 46t-56.5 17q-42 0 -100 -23.5t-123 -79.5zM214 132l-28 -132h-95l155 727h95l-17 -80q73 59 124.5 77.5t129.5 18.5q56 0 92 -34.5t36 -94.5q0 -51 -26.5 -105t-64.5 -97.5t-93 -88t-99.5 -74
t-96.5 -59t-72.5 -39.5t-37.5 -18z" />
    <glyph glyph-name="uni01F8" unicode="&#x1f8;" horiz-adv-x="730" 
d="M495 920l72 -148h-53l-125 148h106zM805 729l-155 -729h-106l-249 591l-126 -591h-89l155 729h104l250 -598l127 598h89z" />
    <glyph glyph-name="uni01F9" unicode="&#x1f9;" horiz-adv-x="540" 
d="M365 740l72 -148h-53l-125 148h106zM171 524h76l-13 -65q78 80 194 80q62 0 99 -34t37 -91q0 -21 -4 -38l-80 -376h-84l74 349q6 24 6 37q0 35 -25 58t-62 23q-68 0 -117.5 -48t-66.5 -130l-61 -289h-84z" />
    <glyph glyph-name="Aringacute" unicode="&#x1fa;" horiz-adv-x="667" 
d="M537 774q36 0 61 -23.5t25 -57.5q0 -50 -40 -89.5t-91 -39.5q-36 0 -60.5 24t-24.5 60q0 47 40.5 86.5t89.5 39.5zM526 712q-21 0 -38 -16t-17 -36q0 -16 10 -25.5t25 -9.5q20 0 37 16.5t17 35.5q0 15 -10 25t-24 10zM523 164.25h-285l-123 -164.25h-99l415 546.75h120
l101 -546.75h-102zM513 222.75l-40 249.75l-191 -249.75h231zM640 945h112l-180 -148h-60z" />
    <glyph glyph-name="aringacute" unicode="&#x1fb;" horiz-adv-x="554" 
d="M548 942h112l-180 -148h-60zM448 772q36 0 61 -23.5t25 -57.5q0 -50 -40 -89.5t-91 -39.5q-36 0 -60.5 24t-24.5 60q0 47 40.5 86.5t89.5 39.5zM437 710q-21 0 -38 -16t-17 -36q0 -16 10 -25.5t25 -9.5q20 0 37 16.5t17 35.5q0 15 -10 25t-24 10zM370 462
q-108 0 -137 -93h-84q14 83 76.5 126.5t166.5 43.5q79 0 126.5 -31t47.5 -82q0 -10 -6 -37l-64 -301q-1 -3 -1 -10q0 -29 38 -29q8 0 17 2l-13 -65q-8 -1 -18 -3.5t-17.5 -4t-17.5 -1.5q-33 0 -51.5 17t-21.5 31t-3 29q-1 -1 -8.5 -7.5t-11 -9t-12.5 -9.5t-15 -10.5
t-17.5 -10t-21 -10t-23.5 -8t-27.5 -7t-30 -4t-34.5 -1.5q-67 0 -105.5 34t-38.5 94q0 69 54.5 123.5t183.5 66.5q12 1 40 3t39.5 3.5t31 5.5t29 10t18.5 17t12 27l3 18q2 16 2 22q0 27 -30 44t-76 17zM449 258q-29 -10 -89 -19.5t-101 -17t-74.5 -34.5t-33.5 -72
q0 -32 23 -49t66 -17q66 0 122.5 34.5t66.5 80.5z" />
    <glyph glyph-name="AEacute" unicode="&#x1fc;" horiz-adv-x="1000" 
d="M835 920h112l-180 -148h-60zM513 214h-269l-130 -214h-103l454 729h622l-17 -82h-371l-49 -233h351l-18 -82h-351l-53 -250h388l-17 -82h-482zM531 295l74 352h-100l-212 -352h238z" />
    <glyph glyph-name="aeacute" unicode="&#x1fd;" horiz-adv-x="897" 
d="M636 740h112l-180 -148h-60zM513 163q0 -12 5 -27.5t17 -35t39 -33t64 -13.5q100 0 155 105h84q-24 -82 -94 -132t-161 -50q-117 0 -174 102q-105 -102 -241 -102q-65 0 -103.5 34.5t-38.5 93.5q0 31 11 60t37 57t77 47.5t122 25.5q8 0 32 1.5t31.5 2.5t25.5 4t25.5 7
t18 10.5t16 16.5t8.5 24l5 25q2 14 2 22q0 24 -28 39t-76 15q-59 0 -92 -22t-49 -71h-84q18 63 40 92q60 78 206 78q65 0 107.5 -21t51.5 -44q73 65 182 65q76 0 131.5 -50t55.5 -119q0 -40 -17 -136h-386q-5 -22 -5 -53v-18zM447 257q-24 -9 -67.5 -15.5t-79.5 -13t-71 -18
t-55.5 -35.5t-20.5 -60q0 -66 90 -66q63 0 118.5 35t65.5 80zM536 306h294q3 22 3 33q0 56 -31 89.5t-84 33.5q-62 0 -110.5 -41.5t-71.5 -114.5z" />
    <glyph glyph-name="Oslashacute" unicode="&#x1fe;" horiz-adv-x="778" 
d="M585 920h112l-180 -148h-60zM822 463q0 -25 -5 -59t-18 -81t-33 -93.5t-55 -92.5t-78 -81t-106.5 -57t-138.5 -22q-142 0 -220 80l-91 -81l-35 39l94 85q-38 65 -38 168q0 60 17.5 125t54 127t86 111.5t121 79.5t152.5 30q73 0 133 -22.5t93 -61.5l87 78l35 -39l-92 -83
q37 -64 37 -150zM212 168l470 424q-57 68 -164 68q-136 0 -230 -114.5t-94 -280.5q0 -55 18 -97zM710 546l-470 -423q26 -30 69 -47.5t92 -17.5q95 0 171.5 58.5t115 145.5t38.5 181q0 63 -16 103z" />
    <glyph glyph-name="oslashacute" unicode="&#x1ff;" horiz-adv-x="561" 
d="M476 740h112l-180 -148h-60zM577 354q0 -152 -84 -264.5t-219 -112.5q-105 0 -151 64l-78 -71l-26 28l83 76q-21 45 -21 90q0 38 8 82t29.5 97.5t53.5 96t87 71t124 28.5q105 0 154 -67l76 69l26 -30l-81 -74q19 -42 19 -83zM369 462q-48 0 -85.5 -24t-58 -57.5
t-34 -75.5t-18 -72.5t-4.5 -52.5q0 -21 6 -39l295 269q-29 52 -101 52zM289 54q56 0 98 32.5t62.5 81t30 89.5t9.5 71q0 17 -5 42l-294 -268q29 -48 99 -48z" />
    <glyph glyph-name="uni0200" unicode="&#x200;" horiz-adv-x="667" 
d="M523 219h-285l-123 -219h-99l415 729h120l101 -729h-102zM513 297l-40 333l-191 -333h231zM534 931l72 -148h-53l-125 148h106zM360 931l72 -148h-53l-125 148h106z" />
    <glyph glyph-name="uni0201" unicode="&#x201;" horiz-adv-x="554" 
d="M370 462q-108 0 -137 -93h-84q14 83 76.5 126.5t166.5 43.5q79 0 126.5 -31t47.5 -82q0 -10 -6 -37l-64 -301q-1 -3 -1 -10q0 -29 38 -29q8 0 17 2l-13 -65q-8 -1 -18 -3.5t-17.5 -4t-17.5 -1.5q-33 0 -51.5 17t-21.5 31t-3 29q-1 -1 -8.5 -7.5t-11 -9t-12.5 -9.5
t-15 -10.5t-17.5 -10t-21 -10t-23.5 -8t-27.5 -7t-30 -4t-34.5 -1.5q-67 0 -105.5 34t-38.5 94q0 69 54.5 123.5t183.5 66.5q12 1 40 3t39.5 3.5t31 5.5t29 10t18.5 17t12 27l3 18q2 16 2 22q0 27 -30 44t-76 17zM449 258q-29 -10 -89 -19.5t-101 -17t-74.5 -34.5t-33.5 -72
q0 -32 23 -49t66 -17q66 0 122.5 34.5t66.5 80.5zM458 729l72 -148h-53l-125 148h106zM284 729l72 -148h-53l-125 148h106z" />
    <glyph glyph-name="uni0202" unicode="&#x202;" horiz-adv-x="667" 
d="M523 219h-285l-123 -219h-99l415 729h120l101 -729h-102zM513 297l-40 333l-191 -333h231zM334 778q12 48 42 79.5t64 43.5t73 12q56 0 91.5 -27.5t35.5 -71.5q0 -12 -5 -36h-53v13q0 22 -22.5 36t-59.5 14q-94 0 -110 -63h-56z" />
    <glyph glyph-name="uni0203" unicode="&#x203;" horiz-adv-x="554" 
d="M370 462q-108 0 -137 -93h-84q14 83 76.5 126.5t166.5 43.5q79 0 126.5 -31t47.5 -82q0 -10 -6 -37l-64 -301q-1 -3 -1 -10q0 -29 38 -29q8 0 17 2l-13 -65q-8 -1 -18 -3.5t-17.5 -4t-17.5 -1.5q-33 0 -51.5 17t-21.5 31t-3 29q-1 -1 -8.5 -7.5t-11 -9t-12.5 -9.5
t-15 -10.5t-17.5 -10t-21 -10t-23.5 -8t-27.5 -7t-30 -4t-34.5 -1.5q-67 0 -105.5 34t-38.5 94q0 69 54.5 123.5t183.5 66.5q12 1 40 3t39.5 3.5t31 5.5t29 10t18.5 17t12 27l3 18q2 16 2 22q0 27 -30 44t-76 17zM449 258q-29 -10 -89 -19.5t-101 -17t-74.5 -34.5t-33.5 -72
q0 -32 23 -49t66 -17q66 0 122.5 34.5t66.5 80.5zM255 576q12 48 42 79.5t64 43.5t73 12q56 0 91.5 -27.5t35.5 -71.5q0 -12 -5 -36h-53v13q0 22 -22.5 36t-59.5 14q-94 0 -110 -63h-56z" />
    <glyph glyph-name="uni0204" unicode="&#x204;" horiz-adv-x="657" 
d="M245 332l-54 -250h429l-17 -82h-523l155 729h506l-17 -82h-412l-50 -233h396l-18 -82h-395zM570 931l72 -148h-53l-125 148h106zM396 931l72 -148h-53l-125 148h106z" />
    <glyph glyph-name="uni0205" unicode="&#x205;" horiz-adv-x="547" 
d="M77 173q0 28 6.5 66.5t27 93t52 99t89 76t130.5 31.5q81 0 136 -49.5t55 -121.5q0 -38 -17 -134h-386q-5 -19 -5 -46q0 -64 32.5 -99t91.5 -35q101 0 156 105h84q-23 -81 -93.5 -131.5t-160.5 -50.5q-89 0 -143.5 56.5t-54.5 139.5zM188 306h294q3 24 3 33
q0 56 -31.5 89.5t-84.5 33.5q-61 0 -111 -43.5t-70 -112.5zM448 729l72 -148h-53l-125 148h106zM274 729l72 -148h-53l-125 148h106z" />
    <glyph glyph-name="uni0206" unicode="&#x206;" horiz-adv-x="657" 
d="M245 332l-54 -250h429l-17 -82h-523l155 729h506l-17 -82h-412l-50 -233h396l-18 -82h-395zM339 778q12 48 42 79.5t64 43.5t73 12q56 0 91.5 -27.5t35.5 -71.5q0 -12 -5 -36h-53v13q0 22 -22.5 36t-59.5 14q-94 0 -110 -63h-56z" />
    <glyph glyph-name="uni0207" unicode="&#x207;" horiz-adv-x="547" 
d="M77 173q0 28 6.5 66.5t27 93t52 99t89 76t130.5 31.5q81 0 136 -49.5t55 -121.5q0 -38 -17 -134h-386q-5 -19 -5 -46q0 -64 32.5 -99t91.5 -35q101 0 156 105h84q-23 -81 -93.5 -131.5t-160.5 -50.5q-89 0 -143.5 56.5t-54.5 139.5zM188 306h294q3 24 3 33
q0 56 -31.5 89.5t-84.5 33.5q-61 0 -111 -43.5t-70 -112.5zM255 576q12 48 42 79.5t64 43.5t73 12q56 0 91.5 -27.5t35.5 -71.5q0 -12 -5 -36h-53v13q0 22 -22.5 36t-59.5 14q-94 0 -110 -63h-56z" />
    <glyph glyph-name="uni0208" unicode="&#x208;" horiz-adv-x="300" 
d="M349 729l-155 -729h-94l155 729h94zM377 931l72 -148h-53l-125 148h106zM203 931l72 -148h-53l-125 148h106z" />
    <glyph glyph-name="idblgrave" unicode="&#x209;" horiz-adv-x="262" 
d="M281 524l-111 -524h-84l111 524h84zM325 729l72 -148h-53l-125 148h106zM151 729l72 -148h-53l-125 148h106z" />
    <glyph glyph-name="uni020A" unicode="&#x20a;" horiz-adv-x="300" 
d="M352 729l-155 -729h-94l155 729h94zM157 778q12 48 42 79.5t64 43.5t73 12q56 0 91.5 -27.5t35.5 -71.5q0 -12 -5 -36h-53v13q0 22 -22.5 36t-59.5 14q-94 0 -110 -63h-56z" />
    <glyph glyph-name="iinvertedbreve" unicode="&#x20b;" horiz-adv-x="262" 
d="M281 524l-111 -524h-84l111 524h84zM105 576q12 48 42 79.5t64 43.5t73 12q56 0 91.5 -27.5t35.5 -71.5q0 -12 -5 -36h-53v13q0 22 -22.5 36t-59.5 14q-94 0 -110 -63h-56z" />
    <glyph glyph-name="uni020C" unicode="&#x20c;" horiz-adv-x="770" 
d="M387 -23q-40 0 -77.5 7.5t-76.5 27.5t-68 51t-47 82.5t-18 117.5q0 114 51 222t152.5 182t229.5 74q83 0 143 -26t90.5 -69t44 -88t13.5 -94q0 -26 -4.5 -60.5t-17.5 -82.5t-33.5 -94t-55 -92t-78.5 -80.5t-108 -56t-140 -21.5zM728 446q0 61 -19.5 105t-52 66.5
t-66 32.5t-69.5 10q-95 0 -171 -57.5t-115 -145.5t-39 -186q0 -60 20 -104.5t52 -66.5t65 -32t67 -10q66 0 120 23t88.5 60.5t59 80.5t37 89t18 79t5.5 56zM583 931l72 -148h-53l-125 148h106zM409 931l72 -148h-53l-125 148h106z" />
    <glyph glyph-name="uni020D" unicode="&#x20d;" horiz-adv-x="556" 
d="M384 539q87 0 139.5 -52t52.5 -135q0 -39 -8 -83.5t-30 -98t-54.5 -95t-88.5 -70t-126 -28.5q-84 0 -136.5 52t-52.5 135q0 38 8 82.5t29.5 98t54 95.5t88 70.5t124.5 28.5zM283 54q49 0 87.5 23.5t60 57t35 75t18 71.5t4.5 52q0 61 -31 95t-86 34q-48 0 -86.5 -24
t-59.5 -57.5t-34.5 -75t-18 -71t-4.5 -50.5q0 -60 31 -95t84 -35zM451 729l72 -148h-53l-125 148h106zM277 729l72 -148h-53l-125 148h106z" />
    <glyph glyph-name="uni020E" unicode="&#x20e;" horiz-adv-x="770" 
d="M387 -23q-40 0 -77.5 7.5t-76.5 27.5t-68 51t-47 82.5t-18 117.5q0 114 51 222t152.5 182t229.5 74q83 0 143 -26t90.5 -69t44 -88t13.5 -94q0 -26 -4.5 -60.5t-17.5 -82.5t-33.5 -94t-55 -92t-78.5 -80.5t-108 -56t-140 -21.5zM728 446q0 61 -19.5 105t-52 66.5
t-66 32.5t-69.5 10q-95 0 -171 -57.5t-115 -145.5t-39 -186q0 -60 20 -104.5t52 -66.5t65 -32t67 -10q66 0 120 23t88.5 60.5t59 80.5t37 89t18 79t5.5 56zM389 778q12 48 42 79.5t64 43.5t73 12q56 0 91.5 -27.5t35.5 -71.5q0 -12 -5 -36h-53v13q0 22 -22.5 36t-59.5 14
q-94 0 -110 -63h-56z" />
    <glyph glyph-name="uni020F" unicode="&#x20f;" horiz-adv-x="556" 
d="M384 539q87 0 139.5 -52t52.5 -135q0 -39 -8 -83.5t-30 -98t-54.5 -95t-88.5 -70t-126 -28.5q-84 0 -136.5 52t-52.5 135q0 38 8 82.5t29.5 98t54 95.5t88 70.5t124.5 28.5zM283 54q49 0 87.5 23.5t60 57t35 75t18 71.5t4.5 52q0 61 -31 95t-86 34q-48 0 -86.5 -24
t-59.5 -57.5t-34.5 -75t-18 -71t-4.5 -50.5q0 -60 31 -95t84 -35zM244 576q12 48 42 79.5t64 43.5t73 12q56 0 91.5 -27.5t35.5 -71.5q0 -12 -5 -36h-53v13q0 22 -22.5 36t-59.5 14q-94 0 -110 -63h-56z" />
    <glyph glyph-name="uni0210" unicode="&#x210;" horiz-adv-x="709" 
d="M549 47q0 37 16 99t16 93q0 75 -101 75h-239l-67 -314h-94l155 729h336q96 0 141 -37.5t45 -116.5q0 -40 -11.5 -74.5t-25.5 -55t-37.5 -40.5t-35 -27t-30.5 -18q35 -23 47.5 -43t12.5 -53q0 -22 -13.5 -96.5t-13.5 -91.5q0 -34 21 -53l-5 -23h-113q-4 28 -4 47zM661 558
q0 52 -30.5 70.5t-88.5 18.5h-230l-54 -251h231q49 0 85 16t53.5 41.5t25.5 51.5t8 53zM552 931l72 -148h-53l-125 148h106zM378 931l72 -148h-53l-125 148h106z" />
    <glyph glyph-name="uni0211" unicode="&#x211;" horiz-adv-x="324" 
d="M171 524h76l-17 -82q46 53 83.5 75t81.5 22q13 0 32 -3l-18 -85q-79 0 -132.5 -39.5t-74.5 -139.5l-58 -272h-84zM379 729l72 -148h-53l-125 148h106zM205 729l72 -148h-53l-125 148h106z" />
    <glyph glyph-name="uni0212" unicode="&#x212;" horiz-adv-x="709" 
d="M549 47q0 37 16 99t16 93q0 75 -101 75h-239l-67 -314h-94l155 729h336q96 0 141 -37.5t45 -116.5q0 -40 -11.5 -74.5t-25.5 -55t-37.5 -40.5t-35 -27t-30.5 -18q35 -23 47.5 -43t12.5 -53q0 -22 -13.5 -96.5t-13.5 -91.5q0 -34 21 -53l-5 -23h-113q-4 28 -4 47zM661 558
q0 52 -30.5 70.5t-88.5 18.5h-230l-54 -251h231q49 0 85 16t53.5 41.5t25.5 51.5t8 53zM357 778q12 48 42 79.5t64 43.5t73 12q56 0 91.5 -27.5t35.5 -71.5q0 -12 -5 -36h-53v13q0 22 -22.5 36t-59.5 14q-94 0 -110 -63h-56z" />
    <glyph glyph-name="uni0213" unicode="&#x213;" horiz-adv-x="324" 
d="M171 524h76l-17 -82q46 53 83.5 75t81.5 22q13 0 32 -3l-18 -85q-79 0 -132.5 -39.5t-74.5 -139.5l-58 -272h-84zM195 576q12 48 42 79.5t64 43.5t73 12q56 0 91.5 -27.5t35.5 -71.5q0 -12 -5 -36h-53v13q0 22 -22.5 36t-59.5 14q-94 0 -110 -63h-56z" />
    <glyph glyph-name="uni0214" unicode="&#x214;" horiz-adv-x="721" 
d="M359 -23q-108 0 -173.5 50t-65.5 128q0 30 14 96l102 478h94l-109 -512q-5 -23 -5 -44q0 -52 44.5 -83.5t116.5 -31.5q85 0 142.5 42.5t73.5 116.5l109 512h94l-109 -512q-23 -109 -112.5 -174.5t-215.5 -65.5zM578 931l72 -148h-53l-125 148h106zM404 931l72 -148h-53
l-125 148h106z" />
    <glyph glyph-name="uni0215" unicode="&#x215;" horiz-adv-x="538" 
d="M478 0h-76l12 57q-83 -80 -193 -80q-65 0 -101.5 29t-36.5 80q0 19 3 34l86 404h84l-79 -371q-3 -15 -3 -27q0 -35 24 -56t65 -21q64 0 113 48.5t66 129.5l63 297h84zM457 729l72 -148h-53l-125 148h106zM283 729l72 -148h-53l-125 148h106z" />
    <glyph glyph-name="uni0216" unicode="&#x216;" horiz-adv-x="721" 
d="M359 -23q-108 0 -173.5 50t-65.5 128q0 30 14 96l102 478h94l-109 -512q-5 -23 -5 -44q0 -52 44.5 -83.5t116.5 -31.5q85 0 142.5 42.5t73.5 116.5l109 512h94l-109 -512q-23 -109 -112.5 -174.5t-215.5 -65.5zM365 778q12 48 42 79.5t64 43.5t73 12q56 0 91.5 -27.5
t35.5 -71.5q0 -12 -5 -36h-53v13q0 22 -22.5 36t-59.5 14q-94 0 -110 -63h-56z" />
    <glyph glyph-name="uni0217" unicode="&#x217;" horiz-adv-x="538" 
d="M478 0h-76l12 57q-83 -80 -193 -80q-65 0 -101.5 29t-36.5 80q0 19 3 34l86 404h84l-79 -371q-3 -15 -3 -27q0 -35 24 -56t65 -21q64 0 113 48.5t66 129.5l63 297h84zM241 576q12 48 42 79.5t64 43.5t73 12q56 0 91.5 -27.5t35.5 -71.5q0 -12 -5 -36h-53v13
q0 22 -22.5 36t-59.5 14q-94 0 -110 -63h-56z" />
    <glyph glyph-name="Scommaaccent" unicode="&#x218;" horiz-adv-x="651" 
d="M275 -76h100l-22 -103q-11 -56 -44 -88.5t-79 -32.5h-2l8 38q55 0 71 78q1 2 1 4t1 4h-55zM480 741q64 0 111 -16.5t70.5 -43.5t34 -54.5t10.5 -55.5q0 -19 -8 -56h-88q4 27 4 36q0 109 -152 109q-84 0 -140 -39t-56 -103q0 -33 21.5 -51t79.5 -35l172 -49
q62 -17 92 -59.5t30 -86.5q0 -20 -7 -47.5t-30 -66t-58 -70t-99 -54t-145 -22.5q-113 0 -177 51t-64 141q0 30 9 63h87q-4 -25 -4 -41q0 -68 40 -100.5t125 -32.5q104 0 165.5 44t61.5 107q0 36 -26.5 59.5t-86.5 40.5l-171 48q-50 14 -80.5 51t-30.5 84q0 17 5 41.5t25 63
t51 69t91 53t138 22.5z" />
    <glyph glyph-name="scommaaccent" unicode="&#x219;" horiz-adv-x="500" 
d="M183 -76h100l-22 -103q-11 -56 -44 -88.5t-79 -32.5h-2l8 38q55 0 71 78q1 2 1 4t1 4h-55zM123 345q0 81 64.5 137.5t168.5 56.5q73 0 118.5 -33t45.5 -85q0 -18 -6 -43h-84q1 8 1 22q0 29 -24 45.5t-68 16.5q-57 0 -92.5 -27.5t-35.5 -67.5q0 -39 85 -60l76 -19
q66 -16 93.5 -42.5t27.5 -72.5q0 -89 -67 -142.5t-179 -53.5q-87 0 -136.5 34t-49.5 94q0 23 6 51h89q-2 -20 -2 -25q0 -37 28 -57t80 -20q42 0 72.5 12t44.5 29t20 31t6 24q0 7 -1.5 13.5t-5.5 11.5t-7 9t-9 7.5t-10 5.5t-11 4.5t-9.5 3t-9.5 2.5l-7 2l-74 19
q-77 20 -107.5 45.5t-30.5 71.5z" />
    <glyph glyph-name="uni021A" unicode="&#x21a;" horiz-adv-x="611" 
d="M235 -76h100l-22 -103q-11 -56 -44 -88.5t-79 -32.5h-2l8 38q55 0 71 78q1 2 1 4t1 4h-55zM493 647l-138 -647h-94l138 647h-241l17 82h573l-17 -82h-238z" />
    <glyph glyph-name="uni021B" unicode="&#x21b;" horiz-adv-x="265" 
d="M94 -76h100l-22 -103q-11 -56 -44 -88.5t-79 -32.5h-2l8 38q55 0 71 78q1 2 1 4t1 4h-55zM356 524l-14 -67h-89l-78 -367q-2 -12 -2 -14q0 -12 10 -19.5t26 -7.5q13 0 48 8l-16 -73q-25 -7 -65 -7q-41 0 -65 21t-24 58q0 16 3 31l79 370h-71l14 67h71l31 144h84l-31 -144
h89z" />
    <glyph glyph-name="uni021c" unicode="&#x21c;" horiz-adv-x="521" 
d="M389 632q-76 0 -113.5 -41.5t-53.5 -110.5h-88q53 229 271 229q86 0 133 -38t47 -107q0 -41 -13.5 -77t-33.5 -59.5t-36.5 -37t-29.5 -20.5q67 -38 67 -119q0 -139 -148 -223q-84 -48 -294 -111q-8 -2 -29 -8q-18 -6 -29 -9l-4 87q9 2 23.5 5t57.5 14.5t82 25t86.5 35.5
t82 46t58 57t23.5 68q0 23 -10.5 39.5t-19.5 21.5t-32 17q-71 -34 -168 -62l-4 75q140 54 183 78q95 56 95 136q0 42 -27 65.5t-76 23.5z" />
    <glyph glyph-name="uni021d" unicode="&#x21d;" horiz-adv-x="393" 
d="M291 464q-39 0 -71.5 -28t-42.5 -76h-86q16 80 76 131t139 51q66 0 104.5 -33.5t38.5 -88.5q0 -43 -23.5 -85t-58.5 -59q47 -27 47 -86q0 -26 -7 -49t-17 -42t-30.5 -37t-37.5 -31t-48.5 -27.5t-53 -24t-61 -22.5t-63 -20.5t-68.5 -20.5l-1 74q1 1 35.5 9.5t76 23
t85.5 34.5t73 52t29 68q0 16 -7.5 27t-25.5 25q-51 -25 -130 -47l-3 69q3 1 8 3q32 12 47 17.5t39.5 16.5t36.5 18.5t27.5 19t23 23t12.5 26.5t5 32q0 57 -68 57z" />
    <glyph glyph-name="uni021E" unicode="&#x21e;" horiz-adv-x="721" 
d="M577 785h-95l-64 148h63l56 -98l104 98h64zM618 332h-373l-71 -332h-94l155 729h94l-67 -315h373l67 315h94l-155 -729h-94z" />
    <glyph glyph-name="uni021F" unicode="&#x21f;" horiz-adv-x="540" 
d="M477 769h-95l-64 148h63l56 -98l104 98h64zM215 729h84l-57 -270q47 44 89 62t98 18q63 0 99 -33.5t36 -92.5q0 -20 -4 -37l-80 -376h-84l73 343q6 27 6 39q0 38 -23.5 61.5t-61.5 23.5q-68 0 -118 -48t-67 -130l-61 -289h-84z" />
    <glyph glyph-name="uni0224" unicode="&#x224;" horiz-adv-x="611" 
d="M736 729l-18 -84l-556 -563h438l-40 -189q-11 -53 -53.5 -81t-113.5 -28q-13 0 -27 3l15 71q17 -1 20 -1q38 0 56 15t26 54l16 74h-471l17 82l559 565h-410l17 82h525z" />
    <glyph glyph-name="uni0225" unicode="&#x225;" horiz-adv-x="500" 
d="M373 0h-342l16 75l393 376h-292l15 73h391l-15 -74l-391 -377h325l-39 -180q-11 -53 -53.5 -81t-113.5 -28q-13 0 -27 3l15 71q17 -1 20 -1q38 0 56 15t26 54z" />
    <glyph glyph-name="uni0226" unicode="&#x226;" horiz-adv-x="667" 
d="M581 903l-22 -103h-104l22 103h104zM523 219h-285l-123 -219h-99l415 729h120l101 -729h-102zM513 297l-40 333l-191 -333h231z" />
    <glyph glyph-name="uni0227" unicode="&#x227;" horiz-adv-x="554" 
d="M481 702l-22 -103h-104l22 103h104zM370 462q-108 0 -137 -93h-84q14 83 76.5 126.5t166.5 43.5q79 0 126.5 -31t47.5 -82q0 -10 -6 -37l-64 -301q-1 -3 -1 -10q0 -29 38 -29q8 0 17 2l-13 -65q-8 -1 -18 -3.5t-17.5 -4t-17.5 -1.5q-33 0 -51.5 17t-21.5 31t-3 29
q-1 -1 -8.5 -7.5t-11 -9t-12.5 -9.5t-15 -10.5t-17.5 -10t-21 -10t-23.5 -8t-27.5 -7t-30 -4t-34.5 -1.5q-67 0 -105.5 34t-38.5 94q0 69 54.5 123.5t183.5 66.5q12 1 40 3t39.5 3.5t31 5.5t29 10t18.5 17t12 27l3 18q2 16 2 22q0 27 -30 44t-76 17zM449 258
q-29 -10 -89 -19.5t-101 -17t-74.5 -34.5t-33.5 -72q0 -32 23 -49t66 -17q66 0 122.5 34.5t66.5 80.5z" />
    <glyph glyph-name="uni0228" unicode="&#x228;" horiz-adv-x="667" 
d="M324 -87q-2 0 -7 -0.5t-11.5 -2t-8.5 -1.5l-13 6l46 85h-240l155 729h506l-17 -82h-412l-50 -233h396l-18 -82h-395l-54 -250h429l-17 -82h-242l-26 -49q13 2 21 2q28 0 47.5 -15t19.5 -36q0 -47 -41 -78t-104 -31q-51 0 -118 34l28 38q57 -29 94 -29q28 0 45.5 15.5
t17.5 39.5q0 9 -9 15.5t-22 6.5z" />
    <glyph glyph-name="uni0229" unicode="&#x229;" horiz-adv-x="556" 
d="M223 -110q-2 0 -7 -0.5t-11.5 -2t-8.5 -1.5l-13 6l49 90q-68 16 -108 68.5t-40 122.5q0 28 6.5 66.5t27 93t52 99t89 76t130.5 31.5q81 0 136 -49.5t55 -121.5q0 -38 -17 -134h-386q-5 -19 -5 -46q0 -64 32.5 -99t91.5 -35q101 0 156 105h84q-23 -81 -93.5 -131.5
t-160.5 -50.5h-12l-26 -49q13 2 21 2q28 0 47.5 -15t19.5 -36q0 -47 -41 -78t-104 -31q-51 0 -118 34l28 38q57 -29 94 -29q28 0 45.5 15.5t17.5 39.5q0 9 -9 15.5t-22 6.5zM195 306h294q3 24 3 33q0 56 -31.5 89.5t-84.5 33.5q-61 0 -111 -43.5t-70 -112.5z" />
    <glyph glyph-name="uni022A" unicode="&#x22a;" horiz-adv-x="770" 
d="M717 971l-15 -69h-275l15 69h275zM697 865l-22 -103h-104l22 103h104zM526 865l-22 -103h-104l22 103h104zM387 -23q-40 0 -77.5 7.5t-76.5 27.5t-68 51t-47 82.5t-18 117.5q0 114 51 222t152.5 182t229.5 74q83 0 143 -26t90.5 -69t44 -88t13.5 -94q0 -26 -4.5 -60.5
t-17.5 -82.5t-33.5 -94t-55 -92t-78.5 -80.5t-108 -56t-140 -21.5zM728 446q0 61 -19.5 105t-52 66.5t-66 32.5t-69.5 10q-95 0 -171 -57.5t-115 -145.5t-39 -186q0 -60 20 -104.5t52 -66.5t65 -32t67 -10q66 0 120 23t88.5 60.5t59 80.5t37 89t18 79t5.5 56z" />
    <glyph glyph-name="uni022B" unicode="&#x22b;" horiz-adv-x="556" 
d="M556 687l-22 -103h-104l22 103h104zM385 687l-22 -103h-104l22 103h104zM384 539q87 0 139.5 -52t52.5 -135q0 -39 -8 -83.5t-30 -98t-54.5 -95t-88.5 -70t-126 -28.5q-84 0 -136.5 52t-52.5 135q0 38 8 82.5t29.5 98t54 95.5t88 70.5t124.5 28.5zM283 54q49 0 87.5 23.5
t60 57t35 75t18 71.5t4.5 52q0 61 -31 95t-86 34q-48 0 -86.5 -24t-59.5 -57.5t-34.5 -75t-18 -71t-4.5 -50.5q0 -60 31 -95t84 -35zM580 800l-15 -69h-275l15 69h275z" />
    <glyph glyph-name="uni022C" unicode="&#x22c;" horiz-adv-x="770" 
d="M715 971l-15 -69h-275l15 69h275zM486 874q19 0 70.5 -16t65.5 -16q15 0 24.5 7.5t23.5 29.5h53q-16 -49 -45 -78t-63 -29q-27 0 -73.5 16t-56.5 16q-13 0 -23 -5.5t-13.5 -9.5t-13.5 -18h-53q15 45 38 74t66 29zM387 -23q-40 0 -77.5 7.5t-76.5 27.5t-68 51t-47 82.5
t-18 117.5q0 114 51 222t152.5 182t229.5 74q83 0 143 -26t90.5 -69t44 -88t13.5 -94q0 -26 -4.5 -60.5t-17.5 -82.5t-33.5 -94t-55 -92t-78.5 -80.5t-108 -56t-140 -21.5zM728 446q0 61 -19.5 105t-52 66.5t-66 32.5t-69.5 10q-95 0 -171 -57.5t-115 -145.5t-39 -186
q0 -60 20 -104.5t52 -66.5t65 -32t67 -10q66 0 120 23t88.5 60.5t59 80.5t37 89t18 79t5.5 56z" />
    <glyph glyph-name="uni022D" unicode="&#x22d;" horiz-adv-x="556" 
d="M342 677q19 0 70.5 -16t65.5 -16q15 0 24.5 7.5t23.5 29.5h53q-16 -49 -45 -78t-63 -29q-27 0 -73.5 16t-56.5 16q-13 0 -23 -5.5t-13.5 -9.5t-13.5 -18h-53q15 45 38 74t66 29zM384 539q87 0 139.5 -52t52.5 -135q0 -39 -8 -83.5t-30 -98t-54.5 -95t-88.5 -70
t-126 -28.5q-84 0 -136.5 52t-52.5 135q0 38 8 82.5t29.5 98t54 95.5t88 70.5t124.5 28.5zM283 54q49 0 87.5 23.5t60 57t35 75t18 71.5t4.5 52q0 61 -31 95t-86 34q-48 0 -86.5 -24t-59.5 -57.5t-34.5 -75t-18 -71t-4.5 -50.5q0 -60 31 -95t84 -35zM585 801l-15 -69h-275
l15 69h275z" />
    <glyph glyph-name="uni022E" unicode="&#x22e;" horiz-adv-x="770" 
d="M624 904l-22 -103h-104l22 103h104zM387 -23q-40 0 -77.5 7.5t-76.5 27.5t-68 51t-47 82.5t-18 117.5q0 114 51 222t152.5 182t229.5 74q83 0 143 -26t90.5 -69t44 -88t13.5 -94q0 -26 -4.5 -60.5t-17.5 -82.5t-33.5 -94t-55 -92t-78.5 -80.5t-108 -56t-140 -21.5z
M728 446q0 61 -19.5 105t-52 66.5t-66 32.5t-69.5 10q-95 0 -171 -57.5t-115 -145.5t-39 -186q0 -60 20 -104.5t52 -66.5t65 -32t67 -10q66 0 120 23t88.5 60.5t59 80.5t37 89t18 79t5.5 56z" />
    <glyph glyph-name="uni022F" unicode="&#x22f;" horiz-adv-x="556" 
d="M471 702l-22 -103h-104l22 103h104zM384 539q87 0 139.5 -52t52.5 -135q0 -39 -8 -83.5t-30 -98t-54.5 -95t-88.5 -70t-126 -28.5q-84 0 -136.5 52t-52.5 135q0 38 8 82.5t29.5 98t54 95.5t88 70.5t124.5 28.5zM283 54q49 0 87.5 23.5t60 57t35 75t18 71.5t4.5 52
q0 61 -31 95t-86 34q-48 0 -86.5 -24t-59.5 -57.5t-34.5 -75t-18 -71t-4.5 -50.5q0 -60 31 -95t84 -35z" />
    <glyph glyph-name="uni0230" unicode="&#x230;" horiz-adv-x="770" 
d="M624 884l-22 -103h-104l22 103h104zM387 -23q-40 0 -77.5 7.5t-76.5 27.5t-68 51t-47 82.5t-18 117.5q0 114 51 222t152.5 182t229.5 74q83 0 143 -26t90.5 -69t44 -88t13.5 -94q0 -26 -4.5 -60.5t-17.5 -82.5t-33.5 -94t-55 -92t-78.5 -80.5t-108 -56t-140 -21.5z
M728 446q0 61 -19.5 105t-52 66.5t-66 32.5t-69.5 10q-95 0 -171 -57.5t-115 -145.5t-39 -186q0 -60 20 -104.5t52 -66.5t65 -32t67 -10q66 0 120 23t88.5 60.5t59 80.5t37 89t18 79t5.5 56zM727 978l-15 -69h-275l15 69h275z" />
    <glyph glyph-name="uni0231" unicode="&#x231;" horiz-adv-x="556" 
d="M471 681l-22 -103h-104l22 103h104zM384 539q87 0 139.5 -52t52.5 -135q0 -39 -8 -83.5t-30 -98t-54.5 -95t-88.5 -70t-126 -28.5q-84 0 -136.5 52t-52.5 135q0 38 8 82.5t29.5 98t54 95.5t88 70.5t124.5 28.5zM283 54q49 0 87.5 23.5t60 57t35 75t18 71.5t4.5 52
q0 61 -31 95t-86 34q-48 0 -86.5 -24t-59.5 -57.5t-34.5 -75t-18 -71t-4.5 -50.5q0 -60 31 -95t84 -35zM584 800l-15 -69h-275l15 69h275z" />
    <glyph glyph-name="uni0232" unicode="&#x232;" horiz-adv-x="678" 
d="M660 869l-15 -69h-275l15 69h275zM450 286l-61 -286h-94l61 286l-186 443h112l136 -357l289 357h111z" />
    <glyph glyph-name="uni0233" unicode="&#x233;" horiz-adv-x="479" 
d="M521 676l-15 -69h-275l15 69h275zM491 524h89l-368 -634q-63 -108 -165 -108q-27 0 -49 10l16 75q36 -4 44 -4q28 0 44 10.5t36 41.5l52 81l-68 528h90l46 -407z" />
    <glyph glyph-name="dotlessj" unicode="&#x237;" horiz-adv-x="222" 
d="M180 524h84l-134 -633q-14 -62 -52 -85.5t-124 -23.5q-8 0 -19 3l15 71q18 -2 25 -2q38 0 53.5 14t24.5 56z" />
    <glyph glyph-name="uni0250" unicode="&#x250;" horiz-adv-x="554" 
d="M297 54q108 0 137 93h84q-14 -83 -76.5 -126.5t-166.5 -43.5q-79 0 -126.5 31t-47.5 82q0 10 6 37l64 301q1 3 1 10q0 29 -38 29q-8 0 -17 -2l13 65q8 1 18 3.5t17.5 4t17.5 1.5q33 0 51.5 -17t21.5 -31t3 -29q1 1 8.5 7.5t11 9t12.5 9.5t15 10.5t17.5 10t21 10t23.5 8
t27.5 7t30 4t34.5 1.5q67 0 105.5 -34t38.5 -94q0 -69 -54.5 -123.5t-183.5 -66.5q-12 -1 -40 -3t-39.5 -3.5t-31 -5.5t-29 -10t-18.5 -17t-12 -27l-3 -18q-2 -16 -2 -22q0 -27 30 -44t76 -17zM218 258q29 10 89 19.5t101 17t74.5 34.5t33.5 72q0 32 -23 49t-66 17
q-66 0 -122.5 -34.5t-66.5 -80.5z" />
    <glyph glyph-name="uni0251" unicode="&#x251;" horiz-adv-x="556" 
d="M259 60q55 0 98.5 47t63.5 107t20 115q0 63 -28.5 102.5t-83.5 39.5q-52 0 -96 -46t-66.5 -106t-22.5 -113q0 -63 30.5 -104.5t84.5 -41.5zM55 190q0 23 5.5 54.5t18 71.5t35 78.5t52.5 71t76 52.5t100 20q89 0 139 -80l14 66h83l-93 -436q-1 -4 -1 -11q0 -30 37 -30
q9 0 19 2l-14 -63q-36 -9 -59 -9q-36 0 -53.5 15t-17.5 50v15q-45 -36 -86 -53t-99 -18q-68 0 -112 58.5t-44 145.5z" />
    <glyph glyph-name="uni0252" unicode="&#x252;" horiz-adv-x="589" 
d="M405 464q-55 0 -98.5 -47t-63.5 -107t-20 -115q0 -63 28.5 -102.5t83.5 -39.5q52 0 96 46t66.5 106t22.5 113q0 63 -30.5 104.5t-84.5 41.5zM609 334q0 -23 -5.5 -54.5t-18 -71.5t-35 -78.5t-52.5 -71t-76 -52.5t-100 -20q-89 0 -139 80l-14 -66h-83l93 436q1 4 1 11
q0 30 -37 30q-9 0 -19 -2l14 63q36 9 59 9q36 0 53.5 -15t17.5 -50v-15q45 36 86 53t99 18q68 0 112 -58.5t44 -145.5z" />
    <glyph glyph-name="uni0253" unicode="&#x253;" horiz-adv-x="556" 
d="M294 55q57 0 98.5 32t60.5 79t27 84t8 64q0 69 -32.5 108t-89.5 39q-37 0 -68 -15.5t-50.5 -40.5t-33.5 -54t-21.5 -60t-10.5 -53.5t-3 -38.5q0 -67 30.5 -105.5t84.5 -38.5zM578 339q0 -28 -6.5 -67t-25.5 -92.5t-49 -97t-83.5 -74.5t-121.5 -31q-106 0 -150 90l-12 -67
h-75l109 613q10 56 48 87.5t96 31.5q22 0 46 -5l-12 -69q-19 1 -29 1q-57 0 -68 -53l-27 -153q73 86 178 86q87 0 134.5 -53t47.5 -147z" />
    <glyph glyph-name="uni0254" unicode="&#x254;" horiz-adv-x="515" 
d="M223 -23q-77 0 -125 43t-48 104q0 7 3 44h84q-1 -9 -1 -22q0 -43 27.5 -67.5t74.5 -24.5q48 0 86 24t59 58t34.5 75.5t18 72t4.5 51.5q0 58 -30.5 92.5t-82.5 34.5q-111 0 -157 -126h-84q5 18 8.5 28t14 34t22 40t32 37t44 33.5t58.5 21.5t76 9q53 0 92 -19.5t58.5 -51
t28 -62t8.5 -60.5q0 -159 -84.5 -264t-220.5 -105z" />
    <glyph glyph-name="uni0255" unicode="&#x255;" horiz-adv-x="500" 
d="M275 54q44 0 73 6t41.5 16.5t17 20t4.5 21.5q0 32 -47 32q-23 0 -56 -15.5t-98 -61.5q25 -19 65 -19zM489 135q0 -45 -20.5 -77.5t-56 -49t-73 -24t-80.5 -7.5q-78 0 -125 41q-57 -42 -84 -60l-35 60l79 54q-19 42 -19 98q0 47 12 97t37.5 99t60.5 87.5t85.5 62
t108.5 23.5q81 0 125 -39.5t44 -113.5q0 -18 -3 -38h-84q1 7 1 14q0 49 -26 74.5t-75 25.5q-41 0 -75 -20t-56 -51t-37.5 -69.5t-22 -73.5t-6.5 -65q0 -32 8 -56q8 6 24 17q76 54 106 69t71 15q50 0 83 -22.5t33 -70.5z" />
    <glyph glyph-name="uni0256" unicode="&#x256;" horiz-adv-x="581" 
d="M256 55q55 0 95 32.5t58.5 80t26 85.5t7.5 64q0 67 -30.5 105.5t-86.5 38.5q-46 0 -82 -22t-56 -53.5t-33 -70t-17.5 -66t-4.5 -47.5q0 -68 33 -107.5t90 -39.5zM45 183q0 150 81 253t200 103q107 0 147 -81l47 271h83l-141 -805q-3 -12 -3 -22q0 -26 15.5 -36.5
t47.5 -10.5q3 0 21 1l-13 -71q-15 -3 -28 -3q-123 0 -123 84q0 12 3 25l31 178q-79 -92 -183 -92q-88 0 -136.5 54.5t-48.5 151.5z" />
    <glyph glyph-name="uni0257" unicode="&#x257;" horiz-adv-x="564" 
d="M261 55q55 0 95 32.5t58.5 80t26 85.5t7.5 64q0 67 -30.5 105.5t-85.5 38.5q-56 0 -97.5 -32t-60.5 -79t-27 -84t-8 -64q0 -68 32.5 -107.5t89.5 -39.5zM50 183q0 150 81 253t201 103q108 0 146 -81l28 155q10 56 48 87.5t96 31.5q22 0 46 -5l-12 -69q-19 1 -29 1
q-57 0 -68 -53l-107 -606h-74l13 69q-81 -92 -184 -92q-88 0 -136.5 54.5t-48.5 151.5z" />
    <glyph glyph-name="uni0258" unicode="&#x258;" horiz-adv-x="556" 
d="M242 -23q-86 0 -138 46.5t-52 121.5v14h84q18 -105 119 -105q37 0 68 14t51 34.5t34.5 46t21 47t8.5 38.5h-386l3 17q47 288 278 288q47 0 82.5 -13t57.5 -33.5t36 -49.5t19 -58.5t5 -62.5q0 -73 -19 -133t-49.5 -98.5t-70 -65t-77.5 -37.5t-75 -11zM445 306v15
q0 63 -34.5 102t-91.5 39q-24 0 -48 -8t-48 -24.5t-43 -48.5t-29 -75h294z" />
    <glyph glyph-name="schwa" unicode="&#x259;" horiz-adv-x="547" 
d="M588 343q0 -28 -6.5 -66.5t-27 -93t-52 -99t-89 -76t-130.5 -31.5q-81 0 -136 49.5t-55 121.5q0 38 17 134h386q5 19 5 46q0 64 -32.5 99t-91.5 35q-101 0 -156 -105h-84q23 81 93.5 131.5t160.5 50.5q89 0 143.5 -56.5t54.5 -139.5zM477 210h-294q-3 -24 -3 -33
q0 -56 31.5 -89.5t84.5 -33.5q61 0 111 43.5t70 112.5z" />
    <glyph glyph-name="uni025A" unicode="&#x25a;" horiz-adv-x="773" 
d="M144 214q-6 -9 -6 -41q0 -52 32 -85.5t84 -33.5q63 0 113.5 43.5t70.5 116.5h-294zM237 -23q-82 0 -134 46.5t-52 129.5q0 45 18 129h386q7 40 7 59q0 51 -32.5 86t-90.5 35q-101 0 -159 -105h-84q34 86 103.5 134t159.5 48q99 0 149 -62l109 93h69q5 -28 10 -97.5
t12 -112t22 -42.5q7 0 14 2t13 4.5t13 8t11 9t12 12t11 12t11.5 14t11.5 13.5l-25 -114q-54 -45 -96 -45q-79 0 -85 258q-2 -3 -84 -71q10 -31 10 -75q0 -62 -20 -125.5t-57.5 -118.5t-98.5 -90t-134 -35z" />
    <glyph glyph-name="uni025B" unicode="&#x25b;" horiz-adv-x="500" 
d="M250 54q32 0 57.5 8t39.5 18t24.5 26t14 26.5t6.5 23.5h88q-4 -25 -10.5 -45.5t-23 -46.5t-40.5 -44t-65.5 -30.5t-94.5 -12.5q-92 0 -143.5 39.5t-51.5 102.5q0 104 106 148q-52 32 -52 90q0 29 12.5 59.5t37.5 58.5t71 46t105 18q82 0 125.5 -34.5t43.5 -99.5
q0 -13 -2 -27h-88q1 6 1 12q0 72 -94 72q-54 0 -88 -24.5t-34 -65.5q0 -30 19 -52.5t66 -22.5h62l-11 -76h-74q-42 0 -78 -28.5t-36 -65.5q0 -29 23.5 -51t83.5 -22z" />
    <glyph glyph-name="uni025C" unicode="&#x25c;" horiz-adv-x="500" 
d="M259 54q40 0 69.5 11.5t43 28t19 30.5t5.5 24q0 28 -23.5 50.5t-61.5 22.5h-74l16 76h62q60 0 88.5 36t28.5 65t-25.5 46.5t-70.5 17.5q-102 0 -123 -84h-88q17 77 75 119t149 42q80 0 125.5 -33.5t45.5 -92.5q0 -99 -93 -146q64 -31 64 -90q0 -84 -71 -142t-184 -58
q-176 0 -176 132q0 19 5 47h88q-1 -9 -1 -24q0 -78 107 -78z" />
    <glyph glyph-name="uni025D" unicode="&#x25d;" horiz-adv-x="742" 
d="M493 176q0 -32 -14 -65t-43 -64t-80.5 -50.5t-117.5 -19.5q-175 0 -175 132q0 22 4 47h88q-1 -10 -1 -18q0 -39 23 -61.5t84 -22.5q37 0 65 10t43 25t22 30t7 29q0 28 -23.5 50.5t-61.5 22.5h-74l16 76h62q54 0 85.5 33t31.5 68q0 30 -25.5 47t-70.5 17q-102 0 -123 -84
h-88q18 77 76 119t149 42q96 0 141 -48l101 79h69q5 -27 9.5 -97.5t12.5 -112.5t24 -42q9 0 18.5 3.5t16 7t16 13.5t14 14.5t15.5 18.5t15 18l-25 -114q-27 -22 -48.5 -33.5t-47.5 -11.5q-13 0 -24 5t-19 17.5t-14 24t-10 33t-7 37t-5 43.5t-3 43.5l-3 46.5v8q-1 -2 -76 -64
v-15q0 -99 -92 -146q63 -31 63 -91z" />
    <glyph glyph-name="uni025E" unicode="&#x25e;" horiz-adv-x="500" 
d="M152 132q0 -78 107 -78q40 0 69.5 11.5t43 28t19 30.5t5.5 24q0 28 -23.5 50.5t-61.5 22.5h-74l16 76h62q60 0 88.5 36t28.5 65t-25.5 46.5t-70.5 17.5q-90 0 -121 -58q-23 -43 -43 -125t-20 -147zM127 417q31 62 83 92t139 30q80 0 125.5 -33.5t45.5 -92.5
q0 -99 -93 -146q64 -31 64 -90q0 -84 -71 -142t-184 -58q-83 0 -125 37t-49 97q0 161 65 306z" />
    <glyph glyph-name="uni025F" unicode="&#x25f;" horiz-adv-x="246" 
d="M184 524h83l-37 -212h77l-13 -72h-77l-61 -349q-20 -109 -162 -109q-13 0 -28 3l13 71q16 -1 19 -1q38 0 56 15t25 54l55 316h-78l13 72h78z" />
    <glyph glyph-name="uni0260" unicode="&#x260;" horiz-adv-x="556" 
d="M253 54q79 0 131.5 77.5t52.5 191.5q0 67 -29 103t-84 36q-45 0 -80 -22.5t-54.5 -55t-32 -72t-16.5 -68t-4 -49.5q0 -67 30.5 -104t85.5 -37zM102 -63q0 -48 34 -66.5t78 -18.5q80 0 121 46.5t59 145.5l4 27q-44 -50 -85 -72t-90 -22q-78 0 -126 55.5t-48 150.5
q0 35 7 70q23 128 98 207t175 79q99 0 144 -91l15 83q10 57 45.5 88t92.5 31q22 0 46 -5l-13 -69q-18 1 -28 1q-59 0 -68 -53l-77 -438q-9 -51 -18 -85.5t-30 -80t-49.5 -72.5t-77.5 -46.5t-113 -19.5q-87 0 -134 37t-47 105v16h85v-3z" />
    <glyph glyph-name="uni0261" unicode="&#x261;" horiz-adv-x="552" 
d="M371 539q97 0 139 -93l17 78h76l-93 -439q-35 -162 -101.5 -232.5t-197.5 -70.5q-80 0 -128.5 34.5t-48.5 92.5q0 13 2 31h84v-14q0 -34 28.5 -53t79.5 -19q90 0 130 50.5t63 158.5q-75 -80 -172 -80q-76 0 -124.5 51.5t-48.5 133.5q0 27 7 67t27.5 95t51.5 100t85.5 77
t123.5 32zM365 462q-48 0 -86 -24t-58.5 -57.5t-34 -75t-18 -71t-4.5 -50.5q0 -59 29.5 -94t79.5 -35q88 0 143 86t55 198q0 56 -29 89.5t-77 33.5z" />
    <glyph glyph-name="uni0262" unicode="&#x262;" horiz-adv-x="546" 
d="M135 185q0 -133 147 -133q46 0 101.5 42.5t67.5 108.5l2 15h-137l11 61h225l-51 -288h-44l-4 72q-92 -86 -199 -86q-94 0 -149 58t-55 155q0 22 5 52t17 71.5t35.5 79.5t56.5 71.5t85 54t116 20.5q92 0 143.5 -45t51.5 -127h-86q-1 51 -31 73t-93 22q-61 0 -105.5 -28.5
t-67 -73.5t-32.5 -89t-10 -86z" />
    <glyph glyph-name="gammalatin" unicode="&#x263;" horiz-adv-x="434" 
d="M178 -160q17 0 34.5 23.5t17.5 50.5q0 54 -10 101q-68 -97 -68 -136q0 -17 7 -28t19 -11zM200 99l-80 425h78l64 -328l199 328h76l-257 -425q2 -14 11 -56t13.5 -71t4.5 -51q0 -49 -25.5 -85t-58 -51t-64.5 -15q-34 0 -59.5 22.5t-25.5 64.5q0 27 13 60.5t28 57t43 64
t40 60.5z" />
    <glyph glyph-name="uni0264" unicode="&#x264;" horiz-adv-x="556" 
d="M465 198q0 -30 -12 -67t-34 -72t-59 -59t-81 -24q-23 0 -43 6.5t-38.5 20.5t-29.5 40t-11 62q0 127 158 312q-28 46 -51 46t-58.5 -44.5t-46.5 -85.5h-76q22 84 84 146.5t112 62.5q53 0 97 -63q72 63 125 63q36 0 64 -27.5t40.5 -66t12.5 -78.5q0 -20 -3 -37h-76
q1 7 1 17q0 37 -14 75.5t-37 38.5q-11 0 -34.5 -15.5t-42.5 -33.5q24 -53 38.5 -113.5t14.5 -103.5zM291 53q25 0 45 17t30.5 40.5t16 43.5t5.5 32q0 64 -39 161q-67 -79 -90 -131.5t-23 -93.5q0 -38 16.5 -53.5t38.5 -15.5z" />
    <glyph glyph-name="uni0265" unicode="&#x265;" horiz-adv-x="540" 
d="M410 -205h-84l57 270q-47 -44 -89 -62t-98 -18q-63 0 -99 33.5t-36 92.5q0 20 4 37l80 376h84l-73 -343q-6 -27 -6 -39q0 -38 23.5 -61.5t61.5 -23.5q68 0 118 48t67 130l61 289h84z" />
    <glyph glyph-name="uni0266" unicode="&#x266;" horiz-adv-x="556" 
d="M469 393q0 33 -26 53t-64 20q-64 0 -113.5 -48.5t-66.5 -128.5l-61 -289h-83l130 613q12 56 51.5 87.5t97.5 31.5q22 0 46 -5l-15 -69q-16 2 -29 2q-58 0 -69 -54l-33 -154q47 48 89 67.5t98 19.5q66 0 102 -29t36 -80q0 -18 -4 -34l-84 -396h-83l77 363q4 15 4 30z" />
    <glyph glyph-name="uni0267" unicode="&#x267;" horiz-adv-x="556" 
d="M470 393q0 33 -26 53t-64 20q-64 0 -113.5 -48.5t-66.5 -128.5l-61 -289h-83l130 613q12 56 51.5 87.5t97.5 31.5q22 0 46 -5l-15 -69q-19 1 -29 1q-58 0 -69 -53l-33 -154q47 48 89 67.5t98 19.5q66 0 102 -29t36 -80q0 -18 -4 -34l-107 -505q-23 -109 -166 -109
q-13 0 -28 3l15 71q17 -1 20 -1q38 0 56.5 15t26.5 54l93 439q4 15 4 30z" />
    <glyph glyph-name="uni0268" unicode="&#x268;" horiz-adv-x="245" 
d="M317 729l-22 -105h-84l22 105h84zM145 312l45 212h83l-45 -212h80l-15 -72h-80l-51 -240h-83l51 240h-75l15 72h75z" />
    <glyph glyph-name="uni0269" unicode="&#x269;" horiz-adv-x="222" 
d="M213 524l-76 -427q-2 -16 -2 -19q0 -16 9 -22t31 -6q25 0 41 4l-13 -70q-39 -7 -69 -7q-88 0 -88 65q0 6 2 18l82 464h83z" />
    <glyph glyph-name="uni026A" unicode="&#x26a;" horiz-adv-x="278" 
d="M123 524h238l-15 -72h-73l-81 -380h73l-15 -72h-238l15 72h82l81 380h-82z" />
    <glyph glyph-name="uni026B" unicode="&#x26b;" horiz-adv-x="473" 
d="M405 268q-41 0 -77 27l-63 -295h-84l74 349q-21 22 -50 22q-47 0 -70 -78h-53q19 70 54.5 107.5t84.5 37.5q26 0 50 -15l65 306h84l-76 -356q50 -37 76 -37q29 0 44 18t23 57h53q-5 -21 -10 -37t-16 -37t-24.5 -35t-35.5 -24t-49 -10z" />
    <glyph glyph-name="uni026C" unicode="&#x26c;" horiz-adv-x="427" 
d="M100 365q0 24 10.5 48t30.5 46t56 36t83 16l46 218h84l-79 -373h152l-17 -77h-152l-59 -279h-84l59 279h-16q-28 0 -51.5 7t-43 27t-19.5 52zM264 438q-44 0 -63.5 -15t-19.5 -33q0 -14 12.5 -24t43.5 -10h10z" />
    <glyph glyph-name="uni026D" unicode="&#x26d;" horiz-adv-x="229" 
d="M31 -109l179 838h84l-172 -805q-3 -16 -3 -29q0 -22 13.5 -31t43.5 -9q3 0 20 1l-15 -71q-17 -3 -29 -3q-124 0 -124 82q0 14 3 27z" />
    <glyph glyph-name="lezh" unicode="&#x26e;" horiz-adv-x="611" 
d="M459 276q72 -9 111 -45.5t39 -99.5q0 -47 -18.5 -93.5t-52.5 -87.5t-92.5 -67t-129.5 -26q-150 0 -181 103l83 46q7 -18 13 -28t18.5 -21.5t33.5 -16.5t52 -5q40 0 72.5 13t52.5 32.5t33 44t18.5 46.5t5.5 42q0 93 -124 93q-23 -1 -37 -1h-11l16 75l179 171h-292
l-96 -451h-84l155 729h84l-44 -205h391l-15 -74z" />
    <glyph glyph-name="uni026F" unicode="&#x26f;" horiz-adv-x="816" 
d="M217 -15q-68 0 -97.5 36t-29.5 75q0 22 6 55l79 373h84l-72 -341q-9 -43 -9 -49q0 -36 20.5 -56.5t55.5 -20.5q54 0 99 39.5t58 98.5l70 329h84l-77 -361q-4 -17 -4 -37q0 -31 22.5 -50t59.5 -19q50 0 94.5 40.5t56.5 97.5l70 329h84l-111 -524h-76l13 65
q-48 -45 -87.5 -62.5t-90.5 -17.5q-97 0 -121 83q-86 -83 -181 -83z" />
    <glyph glyph-name="uni0270" unicode="&#x270;" horiz-adv-x="803" 
d="M684 -200h-77l58 274q-44 -47 -86 -68t-94 -21q-51 0 -80.5 19t-43.5 61q-46 -44 -85.5 -62t-92.5 -18q-61 0 -93 27t-32 77q0 22 4 42l84 393h84l-77 -361q-3 -17 -3 -31q0 -74 78 -74q51 0 95.5 40t56.5 97l70 329h84l-77 -361q-4 -24 -4 -33q0 -35 20.5 -53.5
t58.5 -18.5q51 0 95.5 40t56.5 97l70 329h84z" />
    <glyph glyph-name="uni0271" unicode="&#x271;" horiz-adv-x="833" 
d="M167 524h77l-15 -74q44 47 85.5 68t93.5 21q51 0 80.5 -19t43.5 -61q47 44 86.5 62t91.5 18q126 0 126 -104q0 -23 -5 -42l-106 -502q-23 -109 -167 -109q-13 0 -28 3l15 71q17 -1 20 -1q38 0 56.5 15t26.5 54l93 437q3 17 3 31q0 74 -78 74q-51 0 -95.5 -40t-56.5 -97
l-70 -329h-84l77 361q3 18 3 33q0 72 -78 72q-51 0 -95.5 -40t-56.5 -97l-70 -329h-84z" />
    <glyph glyph-name="uni0272" unicode="&#x272;" horiz-adv-x="566" 
d="M207 524h77l-18 -88q46 55 91.5 79t103.5 24q66 0 103 -29.5t37 -80.5q0 -11 -4 -33l-84 -396h-83l77 363q3 13 3 26q0 36 -23.5 56.5t-65.5 20.5q-64 0 -113.5 -48.5t-66.5 -128.5l-84 -398q-23 -109 -167 -109q-13 0 -28 3l15 71q17 -1 20 -1q38 0 56.5 15t26.5 54z
" />
    <glyph glyph-name="uni0273" unicode="&#x273;" horiz-adv-x="576" 
d="M167 524h77l-18 -88q46 55 91.5 79t103.5 24q66 0 103 -29.5t37 -80.5q0 -11 -4 -33l-100 -472q-4 -15 -4 -29q0 -22 13.5 -31t43.5 -9q3 0 20 1l-14 -71q-15 -3 -28 -3q-124 0 -124 82q0 14 3 27l100 472q3 13 3 26q0 36 -23.5 56.5t-65.5 20.5q-64 0 -113.5 -48.5
t-66.5 -128.5l-61 -289h-84z" />
    <glyph glyph-name="uni0274" unicode="&#x274;" horiz-adv-x="560" 
d="M588 524l-111 -524h-99l-147 413l-88 -413h-83l111 524h98l148 -413l87 413h84z" />
    <glyph glyph-name="uni0275" unicode="&#x275;" horiz-adv-x="556" 
d="M50 181q0 149 81 253.5t212 104.5q94 0 144.5 -53t50.5 -151q0 -152 -81.5 -255t-211.5 -103q-94 0 -144.5 53.5t-50.5 150.5zM449 290q1 10 1 28q0 69 -31 106.5t-89 37.5q-63 0 -110.5 -45.5t-68.5 -126.5h298zM435 220h-296q0 -4 -0.5 -12t-0.5 -12q0 -67 31.5 -104.5
t88.5 -37.5q62 0 109 44t68 122z" />
    <glyph glyph-name="uni0276" unicode="&#x276;" horiz-adv-x="778" 
d="M346 462q-48 0 -86 -24t-58.5 -57.5t-34 -75t-18 -70t-4.5 -48.5q0 -63 30 -98t85 -35q96 0 153 98l45 212q-14 98 -112 98zM56 168q0 30 6.5 69.5t27 94.5t52 99.5t89 76t131.5 31.5q78 0 126 -37l5 22h330l-16 -75h-246l-31 -142h212l-16 -76h-212l-33 -155h250
l-16 -76h-334l3 15q-62 -38 -141 -38q-90 0 -138.5 50t-48.5 141z" />
    <glyph glyph-name="uni0277" unicode="&#x277;" horiz-adv-x="722" 
d="M514 63q36 0 64 20t44.5 49t28 64.5t15.5 63.5t4 49q0 39 -12 67t-31 44.5t-47.5 26.5t-56.5 13t-64 3q-56 0 -103 -12.5t-78 -32t-54.5 -47t-36.5 -54.5t-21.5 -57.5t-10.5 -52.5t-2 -43q0 -101 80 -101q30 0 52.5 9.5t36 24.5t20.5 28.5t10 27.5l47 223h84l-47 -223
q-3 -10 -3 -20q0 -30 19 -50t62 -20zM69 159q0 28 4.5 59t17 69t31.5 73t51 68.5t73 58.5t100.5 40t129.5 15q65 0 115 -12.5t80.5 -33t50 -50t26.5 -59t7 -64.5q0 -55 -16 -111.5t-46 -106.5t-80 -82t-110 -32q-96 0 -125 90q-65 -90 -163 -90q-74 0 -110 46t-36 122z" />
    <glyph glyph-name="uni0278" unicode="&#x278;" horiz-adv-x="728" 
d="M64 257q24 111 107.5 188t193.5 77h32l40 190h88l-40 -190q104 0 165 -54.5t61 -147.5q0 -33 -7 -65q-24 -111 -107.5 -188t-193.5 -77h-32l-40 -190h-88l40 190q-104 0 -165 54.5t-61 147.5q0 33 7 65zM355 441q-48 0 -86.5 -19t-61 -47t-38 -62t-21 -60t-5.5 -45
q0 -61 36 -99t102 -38h20l78 370h-24zM413 71q48 0 86.5 19t61 47t38 62t21 60t5.5 45q0 61 -36 99t-102 38h-20l-78 -370h24z" />
    <glyph glyph-name="uni0279" unicode="&#x279;" horiz-adv-x="324" 
d="M290 1h-76l17 82q-46 -53 -83.5 -75t-81.5 -22q-13 0 -32 3l18 85q79 0 132.5 39.5t74.5 139.5l58 272h84z" />
    <glyph glyph-name="uni027A" unicode="&#x27a;" horiz-adv-x="333" 
d="M278 0h-77l17 95q-47 -59 -85 -84.5t-78 -25.5q-10 0 -31 3l15 85q28 0 48 2.5t46 13t44.5 29t35.5 52.5t25 82l85 477h84z" />
    <glyph glyph-name="uni027B" unicode="&#x27b;" horiz-adv-x="393" 
d="M386 524l-105 -600q-3 -15 -3 -26q0 -24 13.5 -33.5t44.5 -9.5q3 0 21 1l-13 -71q-15 -3 -28 -3q-121 0 -121 84q0 12 3 25l36 204q-47 -59 -85 -84.5t-78 -25.5q-10 0 -31 3l15 85q28 0 48 2.5t46 13t44.5 29t35.5 52.5t25 82l48 272h84z" />
    <glyph glyph-name="uni027C" unicode="&#x27c;" horiz-adv-x="333" 
d="M142 524h77l-17 -95q47 59 84.5 84.5t77.5 25.5q11 0 32 -3l-15 -85q-28 0 -48 -2.5t-46.5 -13t-45 -29t-35.5 -52.5t-25 -82l-83 -472h-84z" />
    <glyph glyph-name="uni027D" unicode="&#x27d;" horiz-adv-x="333" 
d="M31 -109l112 633h77l-17 -95q47 59 85 84.5t78 25.5q12 0 31 -3l-15 -85q-28 0 -48 -2.5t-46 -13t-44.5 -29t-35.5 -52.5t-25 -82l-62 -348q-2 -20 -2 -26q0 -24 13.5 -33.5t44.5 -9.5q3 0 20 1l-12 -71q-17 -3 -29 -3q-127 0 -127 86q0 7 2 23z" />
    <glyph glyph-name="uni027E" unicode="&#x27e;" horiz-adv-x="384" 
d="M140 0h-84l76 430q20 109 164 109q126 0 126 -86q0 -15 -2 -23l-6 -33h-84q3 15 3 26q0 22 -11.5 31.5t-38.5 11.5q-34 -1 -50 -16.5t-23 -52.5z" />
    <glyph glyph-name="uni027F" unicode="&#x27f;" horiz-adv-x="369" 
d="M247 466q-33 -2 -49 -17t-22 -52h-84l6 33q1 10 4.5 21t14.5 27.5t27.5 29.5t46.5 22t69 9q128 0 128 -87q0 -10 -2 -22l-107 -630h-84l101 597q2 14 2 25q0 22 -11.5 32.5t-39.5 11.5z" />
    <glyph glyph-name="uni0280" unicode="&#x280;" horiz-adv-x="546" 
d="M550 338q-25 -58 -77 -87t-138 -32l204 -219h-103l-213 218h-28l-46 -218h-84l111 525h263q36 0 61.5 -10t38.5 -27t19 -36t6 -41q0 -40 -14 -73zM462 341q10 24 10 45q0 29 -19.5 46t-56.5 17h-152l-33 -155h152q35 0 63 14t36 33z" />
    <glyph glyph-name="uni0281" unicode="&#x281;" horiz-adv-x="546" 
d="M519 186q0 -15 -4.5 -35t-17.5 -47.5t-33 -50t-55.5 -38.5t-79.5 -16h-263l112 525h84l-47 -218h28l306 218h103l-297 -219q84 -3 124 -32t40 -87zM430 183q0 19 -22 33t-57 14h-152l-33 -155h152q51 0 81.5 31t30.5 77z" />
    <glyph glyph-name="uni0282" unicode="&#x282;" horiz-adv-x="550" 
d="M539 173q0 -84 -68.5 -140t-180.5 -56q-77 0 -120 25l-19 -109q-20 -109 -164 -109q-12 0 -27 3l12 71q17 -1 20 -1q38 0 55.5 15t24.5 54l41 230h88v-15q0 -87 110 -87q59 0 98.5 26.5t39.5 69.5q0 42 -70 59l-74 19q-77 20 -110 47t-33 72q0 83 64 137.5t169 54.5
q80 0 122 -32.5t42 -94.5q0 -16 -3 -34h-88q1 6 1 16q0 68 -91 68q-56 0 -91 -26t-35 -64q0 -44 85 -64l76 -19q66 -17 96 -44.5t30 -71.5z" />
    <glyph glyph-name="uni0283" unicode="&#x283;" horiz-adv-x="328" 
d="M283 606l-126 -715q-19 -109 -163 -109q-14 0 -27 3l12 71q17 -1 20 -1q38 0 55.5 15t24.5 54l122 689q10 56 48 87.5t96 31.5q23 0 46 -5l-12 -69q-19 1 -29 1q-58 0 -67 -53z" />
    <glyph glyph-name="uni0284" unicode="&#x284;" horiz-adv-x="298" 
d="M233 311h77l-13 -72h-77l-62 -349q-19 -111 -162 -111q-8 0 -16.5 1.5t-11.5 1.5l13 73q2 0 6.5 -0.5t8 -0.5h5.5q38 0 54.5 15t23.5 54l56 316h-76l13 72h76l53 302q10 56 48 88t96 32q6 0 46 -4l-12 -71q-6 0 -12.5 0.5t-10 0.5h-6.5q-58 0 -67 -53z" />
    <glyph glyph-name="uni0285" unicode="&#x285;" horiz-adv-x="298" 
d="M176 413q0 3 0.5 7t0.5 6q0 40 -50 40q-10 0 -29 -1l12 69q25 5 48 5q50 0 77 -23.5t27 -67.5q0 -8 -2 -28l-88 -496q-2 -20 -2 -26q0 -24 13.5 -33.5t44.5 -9.5q3 0 20 1l-12 -71q-16 -3 -29 -3q-126 0 -126 86q0 7 2 23z" />
    <glyph glyph-name="uni0286" unicode="&#x286;" horiz-adv-x="444" 
d="M133 -65q-38 0 -55.5 -14t-17.5 -31q0 -35 67 -35q49 0 69.5 16t27.5 48q-56 16 -91 16zM-17 -121q0 57 45.5 95.5t115.5 38.5q50 0 97 -13l130 613q12 56 51.5 87.5t97.5 31.5q23 0 46 -5l-15 -69q-19 1 -29 1q-58 0 -69 -53l-134 -631q31 -10 108 -41l-41 -72
q-19 7 -85 32q-23 -112 -179 -112q-75 0 -107 28.5t-32 68.5z" />
    <glyph glyph-name="uni0287" unicode="&#x287;" horiz-adv-x="265" 
d="M32 -1l14 67h89l78 367q2 12 2 14q0 12 -10 19.5t-26 7.5q-13 0 -48 -8l16 73q25 7 65 7q41 0 65 -21t24 -58q0 -16 -3 -31l-79 -370h71l-14 -67h-71l-31 -144h-84l31 144h-89z" />
    <glyph glyph-name="uni0288" unicode="&#x288;" horiz-adv-x="278" 
d="M367 524l-12 -68h-86l-98 -554q-2 -16 -2 -19q0 -16 9 -22t31 -6q25 0 40 4l-12 -70q-41 -7 -69 -7q-88 0 -88 65q0 12 2 18l104 591h-71l12 68h71l25 144h83l-25 -144h86z" />
    <glyph glyph-name="uni0289" unicode="&#x289;" horiz-adv-x="579" 
d="M508 0h-75l13 73q-46 -52 -90 -74t-102 -22q-68 0 -106.5 31t-38.5 84q0 13 3 28l21 120h-73l13 72h73l37 212h83l-37 -212h251l37 212h83l-37 -212h78l-13 -72h-78zM216 240l-15 -87q-2 -8 -2 -22q0 -38 24.5 -59.5t67.5 -21.5q65 0 112.5 48.5t61.5 128.5l2 13h-251z
" />
    <glyph glyph-name="uni028A" unicode="&#x28a;" horiz-adv-x="626" 
d="M291 50q66 0 121.5 41.5t83.5 97.5t28 109q0 101 -84 169l16 77h212l-15 -73h-110q33 -30 51.5 -77t18.5 -96q0 -46 -25 -101t-67 -104.5t-107.5 -82.5t-137.5 -33q-66 0 -112.5 23t-68.5 60.5t-31 72t-9 71.5q0 73 47.5 147t116.5 120h-110l15 73h212l-16 -77
q-73 -44 -123 -110.5t-50 -135.5q0 -27 6 -53.5t20.5 -55t45 -45.5t72.5 -17z" />
    <glyph glyph-name="uni028B" unicode="&#x28b;" horiz-adv-x="539" 
d="M432 298q0 101 -84 169l103 4q33 -30 51.5 -77t18.5 -96q0 -46 -25 -101t-67 -104.5t-107.5 -82.5t-137.5 -33h-55q-86 0 -86 62q0 11 3 21l98 464h83l-91 -427q0 -1 -0.5 -5t-0.5 -5q0 -37 64 -37q98 0 165.5 81t67.5 167z" />
    <glyph glyph-name="uni028C" unicode="&#x28c;" horiz-adv-x="497" 
d="M324 524h91l74 -524h-92l-49 422l-244 -422h-91z" />
    <glyph glyph-name="uni028D" unicode="&#x28d;" horiz-adv-x="723" 
d="M274 524h95l12 -418l195 418h96l40 -524h-91l-19 408l-189 -408h-105l-11 408l-196 -408h-91z" />
    <glyph glyph-name="uni028E" unicode="&#x28e;" horiz-adv-x="479" 
d="M117 0h-89l368 634q63 108 165 108q27 0 49 -10l-16 -75q-36 4 -44 4q-28 0 -44 -10.5t-36 -41.5l-52 -81l68 -528h-90l-46 407z" />
    <glyph glyph-name="uni028F" unicode="&#x28f;" horiz-adv-x="538" 
d="M344 202l-43 -202h-83l43 202l-136 322h97l97 -246l197 246h95z" />
    <glyph glyph-name="uni0290" unicode="&#x290;" horiz-adv-x="510" 
d="M376 0h-342l13 75l379 376h-292l13 73h391l-13 -74l-377 -377h325l-26 -147q-3 -15 -3 -26q0 -24 13.5 -33.5t45.5 -9.5q3 0 20 1l-13 -71q-15 -3 -28 -3q-127 0 -127 86q0 7 2 23z" />
    <glyph glyph-name="uni0291" unicode="&#x291;" horiz-adv-x="520" 
d="M503 126q0 -37 -14 -62.5t-40 -39t-57.5 -19t-73.5 -5.5l-20 -96h-72l20 96h-215l16 75l393 376h-292l15 73h391l-15 -74l-391 -377h114l6 29q9 45 48.5 76t91.5 31q37 0 66 -19.5t29 -63.5zM392 136q-24 0 -37 -10.5t-15 -23.5l-6 -29h10q51 0 68 7t17 33q0 23 -37 23z
" />
    <glyph glyph-name="yogh" unicode="&#x292;" horiz-adv-x="560" 
d="M378 276q14 -2 28.5 -5t38 -13t40.5 -24.5t30 -41t13 -59.5q0 -113 -81.5 -194.5t-211.5 -81.5q-190 0 -190 171q0 23 5 58h88q-4 -20 -4 -43q0 -108 121 -108q80 0 130.5 52t50.5 126q0 93 -124 93l-37 -1h-11l16 75l179 171h-292l16 73h391l-16 -74z" />
    <glyph glyph-name="uni0293" unicode="&#x293;" horiz-adv-x="552" 
d="M408 60q9 29 9 53q0 92 -124 92h-48l16 75l179 171h-292l15 73h391l-15 -74l-180 -174q72 -9 111 -45.5t39 -99.5q0 -49 -20 -100q30 -11 46 -17l-41 -72q-14 5 -48 17q-79 -97 -232 -97q-66 0 -94.5 28.5t-28.5 67.5q0 59 45.5 97t115.5 38q14 0 26.5 -0.5t25.5 -3
t20.5 -3.5t22.5 -5.5t18.5 -6t22 -7.5t20.5 -7zM241 15q-38 0 -55.5 -14t-17.5 -31q0 -35 67 -35q45 0 84.5 18t54.5 36q-63 26 -133 26z" />
    <glyph glyph-name="glottalstop" unicode="&#x294;" horiz-adv-x="533" 
d="M398 632q-38 0 -68 -13t-46.5 -29t-29 -41t-16 -38t-7.5 -31h-88q53 229 270 229q87 0 134 -38t47 -107q0 -27 -7.5 -56.5t-28.5 -68.5t-69.5 -69t-119.5 -40l-70 -330h-84l85 400q103 2 152 31.5t49 111.5q0 42 -27 65.5t-76 23.5z" />
    <glyph glyph-name="glottalstopreversed" unicode="&#x295;" horiz-adv-x="534" 
d="M387 632q-69 0 -112 -45t-43 -109q0 -45 36 -60.5t119 -17.5l-85 -400h-84l70 330q-29 4 -49.5 10.5t-45 21.5t-37.5 44t-13 70q0 95 72 164t189 69q181 0 181 -160q0 -25 -7 -69h-88q7 42 7 58q0 51 -33 72.5t-77 21.5z" />
    <glyph glyph-name="glottalstopinv" unicode="&#x296;" horiz-adv-x="533" 
d="M268 77q38 0 68 13t46.5 29t29 41t16 38t7.5 31h88q-53 -229 -270 -229q-87 0 -134 38t-47 107q0 27 7.5 56.5t28.5 68.5t69.5 69t119.5 40l70 330h84l-85 -400q-103 -2 -152 -31.5t-49 -111.5q0 -42 27 -65.5t76 -23.5z" />
    <glyph glyph-name="uni0297" unicode="&#x297;" horiz-adv-x="1000" 
 />
    <glyph glyph-name="uni0298" unicode="&#x298;" horiz-adv-x="526" 
d="M359 295l-22 -103h-105l22 103h105zM354 539q87 0 139.5 -52t52.5 -135q0 -39 -8 -83.5t-30 -98t-54.5 -95t-88.5 -70t-126 -28.5q-84 0 -136.5 52t-52.5 135q0 38 8 82.5t29.5 98t54 95.5t88 70.5t124.5 28.5zM253 54q49 0 87.5 23.5t60 57t35 75t18 71.5t4.5 52
q0 61 -31 95t-86 34q-48 0 -86.5 -24t-59.5 -57.5t-34.5 -75t-18 -71t-4.5 -50.5q0 -60 31 -95t84 -35z" />
    <glyph glyph-name="uni0299" unicode="&#x299;" horiz-adv-x="501" 
d="M514 184q0 -18 -9 -45t-28.5 -60t-60 -56t-93.5 -23h-263l112 525h239q38 0 65 -10t39.5 -26.5t17.5 -32.5t5 -33q0 -58 -31 -94.5t-66 -51.5q73 -31 73 -93zM449 393q0 21 -21 38.5t-70 17.5h-118l-31 -142h118q66 0 94 26t28 60zM425 184q0 19 -22.5 33t-57.5 14h-152
l-33 -155h152q50 0 81.5 31.5t31.5 76.5z" />
    <glyph glyph-name="uni029A" unicode="&#x29a;" horiz-adv-x="520" 
d="M132 345q0 34 15 68t44 62.5t76.5 46t106.5 17.5q85 0 131.5 -39.5t46.5 -107.5q0 -415 -310 -415q-86 0 -134 35t-48 95q0 48 26.5 91t90.5 69q-45 29 -45 78zM274 221q-44 0 -83 -30.5t-39 -70.5q0 -31 26 -48.5t73 -17.5q39 0 71 13t52.5 33t36.5 48.5t24.5 56t14 59
t7 53t1.5 42.5q0 57 -25.5 80t-78.5 23q-57 0 -94.5 -26.5t-37.5 -69.5q0 -29 19.5 -49t60.5 -20h41l-16 -76h-53z" />
    <glyph glyph-name="uni029B" unicode="&#x29b;" horiz-adv-x="575" 
d="M136 177q0 -125 142 -125q46 0 103 42.5t71 108.5l3 15h-137l13 61h225l-61 -288h-44l-2 72q-95 -86 -202 -86q-92 0 -144.5 54.5t-52.5 147.5q0 35 9 76q10 46 31.5 91t58 90.5t96.5 74t133 28.5q100 0 148 -50q41 55 119 55q23 0 46 -5l-14 -69q-19 1 -29 1
q-58 0 -70 -53l-10 -51h-86q-1 51 -30 73t-91 22q-101 0 -163 -83t-62 -202z" />
    <glyph glyph-name="uni029C" unicode="&#x29c;" horiz-adv-x="520" 
d="M437 236h-261l-41 -236h-84l92 526h83l-38 -218h262l38 218h83l-92 -526h-83z" />
    <glyph glyph-name="uni029D" unicode="&#x29d;" horiz-adv-x="444" 
d="M479 729l-22 -105h-83l22 105h83zM-17 -121q0 57 45.5 95.5t115.5 38.5q50 0 97 -13l111 524h83l-116 -549q31 -10 108 -41l-41 -72q-19 7 -85 32q-23 -112 -179 -112q-75 0 -107 28.5t-32 68.5zM133 -65q-38 0 -55.5 -14t-17.5 -31q0 -35 67 -35q49 0 69.5 16t27.5 48
q-56 16 -91 16z" />
    <glyph glyph-name="uni029E" unicode="&#x29e;" horiz-adv-x="502" 
d="M314 -204l90 423l-269 -218h-108l222 181l-140 343h96l114 -291l107 88l43 203h84l-155 -729h-84z" />
    <glyph glyph-name="uni029F" unicode="&#x29f;" horiz-adv-x="430" 
d="M69 0l112 524h84l-95 -448h211l-17 -76h-295z" />
    <glyph glyph-name="uni02A0" unicode="&#x2a0;" horiz-adv-x="556" 
d="M268 55q44 0 79 22.5t54.5 54t32.5 70.5t17 67t4 48q0 68 -30.5 106t-85.5 38q-46 0 -82 -22t-56.5 -53.5t-33.5 -70t-17.5 -66t-4.5 -47.5q0 -68 33 -107.5t90 -39.5zM55 177q0 18 3 43.5t12 61t22 70t36 68.5t51.5 60t70.5 42.5t91 16.5q103 0 150 -81l13 73
q10 57 45.5 88t92.5 31q22 0 46 -5l-13 -69q-18 1 -28 1q-59 0 -68 -53l-131 -742h-83l49 278q-71 -83 -176 -83q-87 0 -135 53t-48 147z" />
    <glyph glyph-name="glottalstopbar" unicode="&#x2a1;" horiz-adv-x="532" 
d="M398 632q-40 0 -70 -12.5t-49 -35.5t-29.5 -47.5t-18.5 -56.5h-88q26 113 94.5 171t176.5 58q86 0 133 -38t47 -107q0 -80 -50 -143.5t-116 -79.5q-27 -7 -59 -11l-4 -18h109l-15 -72h-109l-51 -240h-84l51 240h-105l15 72h105l19 88q23 0 37.5 1t38 4t39 8.5t33.5 16.5
t28.5 25.5t17.5 37t7 50.5q0 42 -26.5 65.5t-76.5 23.5z" />
    <glyph glyph-name="glottalstopbarrev" unicode="&#x2a2;" horiz-adv-x="533" 
d="M489 480q6 30 6 54q0 48 -25.5 73t-83.5 25q-39 0 -70 -14.5t-48.5 -38t-26.5 -49.5t-9 -52q0 -45 36 -61t118 -17l-19 -88h105l-15 -72h-105l-51 -240h-84l51 240h-109l15 72h109l4 18q-30 4 -55 11q-43 12 -66.5 49.5t-23.5 85.5q0 23 7 51t25.5 61t46.5 59t75.5 44
t107.5 18q180 0 180 -160q0 -32 -7 -69h-88z" />
    <glyph glyph-name="uni02A3" unicode="&#x2a3;" horiz-adv-x="934" 
d="M353 461q-60 0 -108 -43.5t-71.5 -103.5t-23.5 -121q0 -64 31 -101t87 -37q66 0 117.5 55t70.5 146q9 38 9 71q0 63 -29.5 98.5t-82.5 35.5zM984 524l-15 -74l-391 -377h325l-16 -73h-476l15 69q-44 -49 -88.5 -70.5t-98.5 -21.5q-85 0 -131.5 50.5t-46.5 142.5
q0 50 12 102t37 100t59.5 85t82.5 59.5t104 22.5q107 0 143 -81l58 271h83l-44 -205h388zM581 451l-74 -347l363 347h-289z" />
    <glyph glyph-name="uni02A4" unicode="&#x2a4;" horiz-adv-x="944" 
d="M779 276q72 -9 111 -45.5t39 -99.5q0 -47 -18.5 -93.5t-52.5 -87.5t-92.5 -67t-129.5 -26q-150 0 -181 103l83 46q7 -18 13 -28t18.5 -21.5t33.5 -16.5t52 -5q40 0 72.5 13t52.5 32.5t33 44t18.5 46.5t5.5 42q0 93 -124 93h-15t-18 -0.5t-15 -0.5l16 75l179 171h-289
l-96 -451h-74l15 69q-44 -49 -88.5 -70.5t-98.5 -21.5q-85 0 -131.5 50.5t-46.5 142.5q0 50 12 102t37 100t59.5 85t82.5 59.5t104 22.5q107 0 143 -81l58 271h83l-44 -205h388l-15 -74zM343 461q-60 0 -108 -43.5t-71.5 -103.5t-23.5 -121q0 -64 31 -101t87 -37
q66 0 117.5 55t70.5 146q9 38 9 71q0 63 -29.5 98.5t-82.5 35.5z" />
    </font>
</defs>
</svg>
