<?xml version="1.0" standalone="no"?>
<!DOCTYPE svg PUBLIC "-//W3C//DTD SVG 1.1//EN" "http://www.w3.org/Graphics/SVG/1.1/DTD/svg11.dtd" >
<svg xmlns="http://www.w3.org/2000/svg" xmlns:xlink="http://www.w3.org/1999/xlink" version="1.1">
<metadata>
Created by FontForge 20170924 at Thu Mar  7 09:14:20 2013
 By Glenn,,,
Copyright (c) 2009 by Nathanael Bonnell. All rights reserved.
</metadata>
<defs>
<font id="SolveigDemiBold" horiz-adv-x="416" >
  <font-face 
    font-family="Solveig Demi Bold"
    font-weight="400"
    font-stretch="normal"
    units-per-em="1000"
    panose-1="2 0 5 3 9 0 0 2 0 3"
    ascent="716"
    descent="-284"
    x-height="391"
    cap-height="583"
    bbox="-164 -285 1119 831"
    underline-thickness="37"
    underline-position="-106"
    stemh="8"
    stemv="96"
    unicode-range="U+0020-FB02"
  />
<missing-glyph horiz-adv-x="524" 
d="M55 583c131 -4 282 -4 421 0c-17 -148 -13 -437 -6 -585h-1c-132 3 -269 3 -421 0v2c12 135 15 459 7 583zM414 42c8 140 10 343 5 495c-139 3 -173 3 -308 1c-12 -174 -12 -355 -5 -494c139 -3 172 -3 308 -2z" />
    <glyph glyph-name="fi" unicode="fi" horiz-adv-x="445" 
d="M39 390h31c1 24 1 75 2 120c3 71 83 176 146 182c17 1 40 -5 58 -13c-2 -11 -9 -27 -14 -35c-10 4 -23 6 -36 6c-22 0 -45 -25 -54 -52c-14 -40 -20 -55 -19 -208c43 -2 77 0 106 2c0 -12 -3 -39 -6 -43c-32 3 -54 3 -99 3c-1 -69 1 -300 15 -354c-24 4 -86 3 -108 0
c11 121 10 238 10 354h-34c0 10 0 25 2 38zM291 0c11 92 10 297 -1 377c30 2 73 10 100 17c-10 -64 -6 -320 7 -396c-26 8 -92 3 -106 2zM352 591c35 0 43 -22 43 -33c0 -20 -27 -43 -60 -43c-25 0 -42 10 -42 34c0 18 21 42 59 42z" />
    <glyph glyph-name="fl" unicode="fl" horiz-adv-x="451" 
d="M39 390h31c1 24 1 75 2 120c3 71 83 176 146 182c17 1 40 -5 58 -13c-2 -11 -9 -27 -14 -35c-10 4 -23 6 -36 6c-22 0 -45 -25 -54 -52c-14 -40 -20 -55 -19 -208c43 -2 77 0 106 2c0 -12 -3 -39 -6 -43c-32 3 -54 3 -99 3c-1 -69 1 -300 15 -354c-24 4 -86 3 -108 0
c11 121 10 238 10 354h-34c0 10 0 25 2 38zM296 -3c12 93 8 609 -6 675c28 2 76 15 105 28c-16 -176 -6 -637 8 -702c-34 4 -65 5 -107 -1z" />
    <glyph glyph-name=".notdef" horiz-adv-x="524" 
d="M55 583c131 -4 282 -4 421 0c-17 -148 -13 -437 -6 -585h-1c-132 3 -269 3 -421 0v2c12 135 15 459 7 583zM414 42c8 140 10 343 5 495c-139 3 -173 3 -308 1c-12 -174 -12 -355 -5 -494c139 -3 172 -3 308 -2z" />
    <glyph glyph-name="space" unicode=" " horiz-adv-x="221" 
 />
    <glyph glyph-name="exclam" unicode="!" horiz-adv-x="225" 
d="M129 158l-34 -4c-2 140 -23 376 -29 424c26 2 73 5 103 10c-12 -83 -37 -359 -40 -430zM121 75c40 0 48 -24 48 -38c0 -21 -30 -47 -66 -47c-27 0 -47 12 -47 38c0 20 23 47 65 47z" />
    <glyph glyph-name="quotedbl" unicode="&#x22;" horiz-adv-x="340" 
d="M111 350l-30 -2c-4 76 -24 203 -31 230c27 0 73 5 103 10c-12 -45 -36 -173 -42 -238zM261 350l-30 -2c-4 76 -25 203 -31 230c26 0 73 5 103 10c-12 -45 -36 -173 -42 -238z" />
    <glyph glyph-name="numbersign" unicode="#" 
d="M285 582c-1 -58 -2 -107 -2 -155c25 0 52 1 71 1c1 -11 -1 -34 -6 -44c-22 0 -43 1 -65 1c-1 -63 -1 -111 -1 -174c25 0 53 1 72 1c1 -11 -1 -33 -6 -43c-23 0 -44 1 -66 2c0 -54 0 -104 1 -169c-11 -4 -32 -8 -43 -5c0 65 1 120 1 174h-100c0 -54 0 -104 1 -169
c-10 -4 -30 -8 -41 -5c0 65 1 120 1 174h-67c-3 9 1 37 3 43l64 -2c0 64 1 110 1 174h-68c-3 9 1 38 3 43c20 0 43 0 65 -1v153c9 3 35 3 41 1c-1 -58 -2 -106 -2 -154c43 -1 61 -1 100 -1v154c9 3 37 3 43 1zM141 212c43 -1 60 -1 100 -1c0 64 1 110 1 174
c-37 1 -57 1 -100 1c-1 -63 -1 -111 -1 -174z" />
    <glyph glyph-name="dollar" unicode="$" horiz-adv-x="338" 
d="M148 -16c-1 36 -3 76 -4 87c-32 1 -82 3 -106 11c-1 10 1 30 4 37c98 -15 178 -12 180 56c2 43 -50 75 -92 103c-55 37 -87 75 -87 112c0 58 43 97 108 120c1 26 2 64 2 83c10 4 28 2 35 1c-1 -20 2 -63 3 -77c15 2 51 4 78 4c1 -10 1 -26 0 -36c-68 3 -152 -14 -152 -76
c0 -27 36 -50 81 -76c72 -40 102 -75 102 -129c0 -45 -27 -106 -114 -128c-3 -12 -5 -73 -5 -92c-6 -2 -25 -2 -33 0z" />
    <glyph glyph-name="percent" unicode="%" horiz-adv-x="800" 
d="M655 583l-469 -593c-10 3 -31 7 -40 16l470 592c9 -2 33 -9 39 -15zM212 593c103 0 148 -69 148 -156c0 -45 -23 -104 -64 -136c-19 -16 -75 -38 -116 -38c-104 0 -143 90 -143 154c0 57 30 112 70 140c28 17 79 36 105 36zM204 549c-26 0 -81 -30 -81 -131
c0 -46 22 -113 69 -113c52 0 88 58 86 130c-3 75 -37 114 -74 114zM604 320c103 0 148 -69 148 -156c0 -45 -23 -104 -64 -135c-19 -16 -75 -39 -116 -39c-104 0 -143 90 -143 154c0 58 30 113 70 140c28 18 79 36 105 36zM596 277c-26 0 -81 -30 -81 -132
c0 -46 22 -113 69 -113c52 0 88 59 86 131c-3 75 -37 114 -74 114z" />
    <glyph glyph-name="ampersand" unicode="&#x26;" horiz-adv-x="638" 
d="M390 570c-5 -9 -10 -27 -15 -32c-22 9 -65 15 -81 10c-40 -15 -59 -44 -59 -72s16 -51 37 -81c7 -12 109 -147 174 -212c20 17 54 66 65 105c32 5 71 16 114 34c-32 -41 -94 -112 -154 -168c42 -51 115 -124 160 -154c-47 4 -128 0 -147 -4l-81 100
c-77 -59 -161 -108 -231 -108c-91 0 -137 72 -137 138c0 91 72 154 160 219c-23 33 -54 76 -54 114c2 66 77 133 167 133c16 0 57 -10 82 -22zM219 315c-48 -34 -87 -71 -97 -121c-15 -62 14 -130 105 -130c48 0 109 31 150 63c-62 70 -121 141 -158 188z" />
    <glyph glyph-name="quotesingle" unicode="'" horiz-adv-x="190" 
d="M111 350l-30 -2c-4 76 -24 203 -31 230c27 0 73 5 103 10c-12 -45 -36 -173 -42 -238z" />
    <glyph glyph-name="parenleft" unicode="(" horiz-adv-x="244" 
d="M181 -88c-67 104 -126 220 -125 359c1 129 64 232 130 332c9 0 19 -4 28 -9c-33 -70 -70 -184 -70 -321c0 -110 17 -229 67 -353c-10 -6 -20 -7 -30 -8z" />
    <glyph glyph-name="parenright" unicode=")" horiz-adv-x="244" 
d="M62 603c61 -94 127 -193 126 -332c-1 -128 -69 -261 -129 -360c-7 2 -22 5 -29 9c38 101 70 212 70 349c0 110 -16 203 -67 325z" />
    <glyph glyph-name="asterisk" unicode="*" 
d="M326 517c7 -8 10 -24 10 -31c-16 -4 -76 -25 -100 -34c16 -27 57 -87 68 -101c-6 -8 -22 -16 -29 -17c-8 13 -54 73 -69 93c-20 -23 -65 -81 -74 -94c-10 3 -21 12 -25 17c10 13 52 79 65 99c-28 14 -80 34 -96 39c1 11 5 26 9 31c14 -6 77 -25 101 -31c1 30 4 96 4 113
c10 3 25 2 31 1c0 -17 3 -91 4 -114c29 6 85 23 101 29z" />
    <glyph glyph-name="plus" unicode="+" 
d="M232 365c-1 -50 -1 -96 -1 -146c52 -1 102 -1 137 1c1 -11 -1 -29 -6 -39c-45 2 -85 3 -131 3v-149c-10 -2 -27 -3 -39 -3c1 51 2 100 2 152c-46 1 -90 1 -145 0c-3 8 1 32 3 37c45 -1 92 -2 142 -2c1 50 1 96 0 145c8 1 32 1 38 1z" />
    <glyph glyph-name="comma" unicode="," horiz-adv-x="181" 
d="M96 96c22 0 46 -18 46 -67c0 -48 -51 -145 -92 -215c-9 4 -19 10 -28 16c29 59 39 98 39 138c0 30 -17 49 -17 78s25 50 52 50z" />
    <glyph glyph-name="hyphen" unicode="-" horiz-adv-x="266" 
d="M47 271c30 3 148 21 169 26c3 -12 6 -34 0 -53c-24 -2 -139 -18 -167 -24c-3 10 -3 40 -2 51z" />
    <glyph glyph-name="period" unicode="." horiz-adv-x="216" 
d="M117 75c39 0 47 -25 47 -39s-17 -46 -66 -46c-26 0 -46 12 -46 38c0 20 23 47 65 47z" />
    <glyph glyph-name="slash" unicode="/" horiz-adv-x="299" 
d="M276 600l-213 -646c-11 0 -32 -1 -43 4l214 647c9 1 37 -1 42 -5z" />
    <glyph glyph-name="zero" unicode="0" horiz-adv-x="444" 
d="M203 -15c-117 0 -166 141 -166 310c0 69 17 150 50 203c28 43 99 97 149 97c139 0 172 -125 170 -281c0 -87 -30 -215 -91 -280c-24 -26 -69 -49 -112 -49zM224 548c-63 0 -97 -117 -97 -226c-2 -154 25 -290 100 -290c49 0 88 82 88 257c0 200 -40 259 -91 259z" />
    <glyph glyph-name="one" unicode="1" horiz-adv-x="340" 
d="M230 588c7 -4 11 -5 17 -10c-16 -75 -10 -476 -1 -581c-27 5 -80 5 -111 1c16 93 22 426 14 508c-45 -2 -67 -6 -112 -13c-2 6 -4 25 -5 32c75 20 140 38 198 63z" />
    <glyph glyph-name="two" unicode="2" horiz-adv-x="422" 
d="M62 529c61 29 123 62 199 62c79 0 97 -64 97 -123c0 -75 -58 -168 -97 -223l-125 -156c53 -9 229 -1 256 3c-11 -35 -15 -67 -20 -99c-77 14 -225 11 -335 4c-7 9 -7 20 -9 28c106 102 245 305 245 424c0 52 -18 78 -66 78c-37 0 -100 -15 -130 -28c-9 7 -13 20 -15 30z
" />
    <glyph glyph-name="three" unicode="3" horiz-adv-x="370" 
d="M35 553c21 13 102 40 148 40c81 0 104 -53 104 -100c0 -43 -41 -98 -94 -130c81 1 140 -53 140 -137c0 -169 -182 -237 -318 -234c-1 8 -1 28 2 38c109 -4 224 63 224 193c0 67 -38 103 -86 103c-14 0 -41 -3 -54 -7c-9 8 -9 23 -11 31c66 23 111 58 111 121
c0 38 -26 66 -68 66c-30 0 -66 -8 -85 -15c-6 5 -11 21 -13 31z" />
    <glyph glyph-name="four" unicode="4" 
d="M244 -2c11 45 11 104 11 176c-3 0 -161 2 -218 0c-7 4 -10 12 -15 19l280 408c6 -3 21 -16 27 -22c-69 -103 -167 -253 -230 -361c63 -3 105 0 156 -1c0 28 1 87 -2 170c26 3 72 15 98 29c-9 -67 -11 -98 -11 -198c14 0 24 0 41 2c3 -16 3 -34 -1 -49c-24 1 -32 2 -41 1
c-1 -34 2 -122 11 -173c-25 3 -76 7 -106 -1z" />
    <glyph glyph-name="five" unicode="5" horiz-adv-x="350" 
d="M296 586c-14 -29 -25 -70 -32 -90c-40 7 -111 7 -144 3c-7 -20 -15 -47 -23 -83c124 11 213 -22 213 -159c0 -94 -90 -201 -196 -279c-7 5 -18 15 -21 27c68 60 137 139 137 233c-1 83 -59 117 -180 105c-5 2 -13 8 -13 8c23 61 56 182 67 233c50 -4 145 -6 192 2z" />
    <glyph glyph-name="six" unicode="6" horiz-adv-x="438" 
d="M257 602c11 -3 25 -10 32 -18c-88 -114 -162 -240 -162 -370c0 -140 49 -179 87 -179c54 0 98 34 98 105c0 73 -39 98 -68 98c-23 0 -41 -3 -64 -12c-10 9 -10 23 -10 30c29 18 76 36 108 36c75 0 125 -36 125 -136c0 -87 -99 -172 -212 -172c-131 0 -154 123 -154 199
c0 134 101 282 220 419z" />
    <glyph glyph-name="seven" unicode="7" horiz-adv-x="419" 
d="M62 -32c53 150 143 359 260 525c-77 7 -228 0 -281 -8c13 36 21 81 24 106c74 -13 269 -11 338 -5c7 -6 11 -14 14 -23c-137 -169 -242 -429 -253 -556c-27 -9 -69 -22 -102 -39z" />
    <glyph glyph-name="eight" unicode="8" horiz-adv-x="415" 
d="M275 578c-1 -9 -5 -25 -12 -30c-9 4 -26 9 -46 9c-30 0 -68 -19 -68 -64c0 -35 40 -66 75 -88c51 51 91 109 118 195c8 2 24 0 31 -3c-15 -107 -37 -142 -117 -214c13 -9 22 -15 34 -25c47 -38 92 -88 91 -174c-1 -107 -106 -197 -205 -197c-84 0 -143 48 -143 149
c0 90 44 142 122 208c-28 20 -41 34 -56 51c-37 44 -35 101 16 158c24 26 53 40 105 40c19 0 41 -3 55 -15zM190 323c-56 -54 -74 -108 -75 -162c0 -77 34 -117 82 -117c80 0 103 66 103 94c0 83 -29 127 -110 185z" />
    <glyph glyph-name="nine" unicode="9" horiz-adv-x="424" 
d="M167 -21c-12 1 -27 11 -34 21c97 124 164 237 164 367c0 171 -59 185 -84 185c-70 0 -88 -64 -88 -107c0 -69 29 -100 57 -100c21 0 40 4 56 9c8 -8 9 -21 11 -28c-30 -17 -68 -29 -103 -29c-55 0 -109 43 -109 137c0 64 60 165 197 165c131 0 152 -120 152 -196
c0 -134 -116 -301 -219 -424z" />
    <glyph glyph-name="colon" unicode=":" horiz-adv-x="180" 
d="M107 75c39 0 47 -25 47 -39s-17 -46 -66 -46c-26 0 -46 12 -46 38c0 20 23 47 65 47zM107 362c39 0 47 -25 47 -39s-17 -46 -66 -46c-26 0 -46 12 -46 38c0 20 23 47 65 47z" />
    <glyph glyph-name="semicolon" unicode=";" horiz-adv-x="184" 
d="M107 362c39 0 47 -25 47 -39s-17 -46 -66 -46c-26 0 -46 12 -46 38c0 20 23 47 65 47zM96 96c22 0 46 -18 46 -67c0 -48 -51 -145 -92 -215c-9 4 -19 10 -28 16c29 59 39 98 39 138c0 30 -17 49 -17 78s25 50 52 50z" />
    <glyph glyph-name="less" unicode="&#x3c;" 
d="M52 210c108 56 252 137 295 165c10 -9 14 -28 18 -39c-62 -33 -186 -98 -247 -134l242 -145c-5 -11 -8 -30 -20 -37c-60 38 -187 116 -288 172c-1 6 -1 13 0 18z" />
    <glyph glyph-name="equal" unicode="=" 
d="M52 302c101 -2 241 -2 316 -2c1 -10 -1 -31 -6 -41c-96 2 -188 3 -313 2c-3 9 1 35 3 41zM52 185c101 -3 241 -3 316 -2c1 -11 -1 -31 -6 -41c-96 3 -188 4 -313 3c-3 8 1 34 3 40z" />
    <glyph glyph-name="greater" unicode="&#x3e;" 
d="M364 185c-108 -56 -252 -138 -296 -165c-10 9 -13 29 -16 40c60 33 184 97 245 133l-241 144c4 12 8 31 21 38c59 -38 186 -116 287 -173c1 -6 1 -11 0 -17z" />
    <glyph glyph-name="question" unicode="?" horiz-adv-x="262" 
d="M98 151c-19 43 -33 75 -32 112c2 69 73 118 73 189c0 50 -30 86 -73 121c6 10 11 20 21 28c76 -57 135 -116 135 -180c0 -85 -98 -144 -99 -220c0 -11 3 -26 8 -42c-10 -4 -23 -7 -33 -8zM126 75c40 0 48 -25 48 -39s-18 -46 -67 -46c-26 0 -46 12 -46 38
c0 20 23 47 65 47z" />
    <glyph glyph-name="at" unicode="@" horiz-adv-x="749" 
d="M413 144c-62 -55 -108 -92 -190 -156c-24 20 -43 72 -43 119c0 149 133 280 256 284c43 1 96 0 131 -2c-21 -22 -46 -120 -64 -215c-7 -37 -13 -73 7 -106c86 62 160 141 160 273c0 133 -98 181 -196 181c-193 0 -389 -164 -389 -405c0 -166 78 -257 228 -257
c38 0 121 19 146 27l11 -33c-36 -12 -126 -34 -164 -34c-181 0 -268 117 -268 293c0 269 234 445 442 445c108 0 233 -53 233 -214c0 -138 -86 -262 -256 -357c-38 23 -53 54 -53 102c0 7 4 34 9 55zM457 351c-8 1 -15 1 -22 1c-105 -1 -170 -112 -170 -194
c0 -26 3 -53 14 -71c38 24 117 87 145 114c8 25 32 119 33 150z" />
    <glyph glyph-name="A" unicode="A" horiz-adv-x="514" 
d="M325 217c-53 -2 -129 -9 -176 -15c-39 -95 -53 -136 -67 -198c-20 1 -65 -5 -90 -11c85 144 149 288 218 448c32 72 41 102 51 147c11 5 19 7 31 10c68 -233 134 -426 205 -600c-42 5 -93 3 -116 0c-11 61 -29 130 -56 219zM254 457l-88 -211c54 -1 101 2 149 6
c-16 58 -30 98 -43 141c-6 17 -13 42 -18 64z" />
    <glyph glyph-name="B" unicode="B" horiz-adv-x="480" 
d="M55 582c36 -4 116 1 162 1c88 1 197 -14 197 -109c0 -43 -25 -95 -105 -131l1 -3c82 0 145 -32 145 -123c0 -117 -138 -217 -279 -219c-35 0 -89 -2 -128 1c9 205 11 471 7 583zM147 543c-5 -206 -6 -316 0 -503c11 -3 21 -3 33 -3c89 1 187 69 184 171
c-4 86 -64 103 -148 100c-4 6 -4 18 -3 27c72 21 108 65 108 132c0 49 -36 76 -97 79c-21 1 -51 1 -77 -3z" />
    <glyph glyph-name="C" unicode="C" horiz-adv-x="548" 
d="M295 -14c-187 3 -262 138 -262 259c0 177 125 350 339 350c30 0 94 -16 124 -36c-2 -9 -11 -24 -17 -29c-34 15 -81 23 -111 23c-167 0 -240 -153 -240 -302c0 -123 73 -208 192 -209c49 -1 120 11 180 43c9 -8 15 -22 17 -31c-55 -31 -155 -68 -222 -68z" />
    <glyph glyph-name="D" unicode="D" horiz-adv-x="571" 
d="M274 582c174 -3 269 -87 269 -203c0 -193 -153 -374 -355 -378c-38 -1 -89 -2 -140 2c14 58 23 392 16 580c42 -2 182 -1 210 -1zM159 544c-7 -150 -8 -340 -3 -501c12 -1 23 -1 37 -1c134 0 253 144 253 293s-69 203 -190 209c-35 2 -74 2 -97 0z" />
    <glyph glyph-name="E" unicode="E" horiz-adv-x="439" 
d="M55 583c85 -3 235 -1 349 1l-2 -36c-101 -3 -153 -4 -246 -8c-4 -39 -5 -167 -5 -190c78 -1 138 -1 214 3l2 -34c-64 -3 -150 -9 -216 -14c-1 -59 0 -196 3 -260c75 -4 151 -8 268 -8l2 -39c-234 4 -262 4 -376 0c13 86 16 533 7 585z" />
    <glyph glyph-name="F" unicode="F" horiz-adv-x="423" 
d="M419 582l-4 -35c-100 -4 -164 -4 -257 -9c-2 -24 -7 -117 -6 -191c79 0 134 3 210 7l1 -35c-24 -1 -145 -9 -212 -16c-2 -58 -2 -251 7 -305c-26 4 -86 5 -110 2c12 117 14 424 9 583c84 -4 248 -4 362 -1z" />
    <glyph glyph-name="G" unicode="G" horiz-adv-x="618" 
d="M514 531c-35 13 -95 22 -134 22c-124 0 -248 -98 -248 -303c0 -130 88 -217 188 -217c69 0 103 12 149 26c6 112 5 171 -3 282c31 0 74 4 103 9c-8 -69 -16 -252 -4 -298c-102 -50 -176 -66 -267 -66c-158 0 -263 124 -263 255c0 210 166 354 348 354
c30 0 109 -10 145 -32c-3 -8 -8 -26 -14 -32z" />
    <glyph glyph-name="H" unicode="H" horiz-adv-x="621" 
d="M59 583c18 -1 82 -3 104 0c-8 -76 -11 -193 -11 -244c76 1 239 6 321 14c1 76 1 180 -4 230c26 -3 79 -4 104 0c-15 -127 -15 -437 -5 -585c-18 1 -83 3 -104 0c7 71 7 248 9 317c-47 -1 -259 -19 -322 -25c-2 -59 -5 -228 0 -292c-25 3 -79 5 -103 2
c14 117 19 424 11 583z" />
    <glyph glyph-name="I" unicode="I" horiz-adv-x="205" 
d="M55 583c17 -4 80 -2 101 0c-15 -196 -13 -437 -5 -585c-26 3 -79 5 -103 2c13 133 14 424 7 583z" />
    <glyph glyph-name="J" unicode="J" horiz-adv-x="214" 
d="M67 583c17 -4 77 -2 99 0c-12 -142 -10 -288 -10 -433c0 -153 -15 -215 -69 -298c-39 -58 -137 -118 -231 -78c3 11 7 24 13 35c20 -5 33 -6 57 -6c35 0 141 25 144 330c1 121 1 340 -3 450z" />
    <glyph glyph-name="K" unicode="K" horiz-adv-x="588" 
d="M156 583c-5 -66 -8 -141 -8 -193c115 50 296 141 401 211c-15 -34 -25 -72 -32 -98c-62 -24 -153 -62 -190 -80c73 -137 177 -321 257 -424c-41 3 -102 4 -135 -1c-54 124 -148 292 -207 392c-37 -15 -49 -20 -96 -43c-3 -132 0 -256 5 -349c-26 3 -79 5 -103 2
c13 133 14 424 7 583c17 -4 80 -2 101 0z" />
    <glyph glyph-name="L" unicode="L" horiz-adv-x="419" 
d="M57 583c18 -4 79 -2 100 0c-11 -173 -12 -360 -7 -536c75 -10 145 -14 262 -16l-4 -33c-235 3 -246 3 -360 0c12 106 17 453 9 585z" />
    <glyph glyph-name="M" unicode="M" horiz-adv-x="828" 
d="M10 -3c68 141 124 313 169 455c10 31 26 102 26 131c10 3 18 3 31 9c20 -73 105 -278 158 -406c9 -21 16 -40 21 -58c48 93 138 286 154 326c24 61 31 83 40 128c13 1 22 4 32 7c31 -150 120 -521 152 -591c-26 5 -101 3 -121 0c-11 93 -40 238 -66 349
c-5 23 -10 47 -13 67c-69 -144 -138 -287 -180 -411c-9 -5 -29 -12 -43 -20c-64 192 -99 263 -142 374c-7 18 -13 38 -20 58c-45 -147 -86 -291 -111 -412c-27 -1 -56 -3 -87 -6z" />
    <glyph glyph-name="N" unicode="N" horiz-adv-x="614" 
d="M555 3l-25 -10c-134 164 -350 356 -426 439c-2 -134 18 -390 25 -423c-27 -4 -50 -7 -82 -23c16 111 20 414 16 596c9 4 13 5 25 11c109 -142 290 -289 418 -423c0 172 -6 305 -18 405c21 4 59 12 80 21c-15 -38 -22 -283 -20 -493c0 -27 3 -67 7 -100z" />
    <glyph glyph-name="O" unicode="O" horiz-adv-x="662" 
d="M357 594c154 0 268 -112 269 -279c0 -104 -49 -205 -133 -270c-41 -32 -128 -62 -191 -62c-200 0 -267 167 -267 293c2 83 44 204 146 267c38 23 119 51 176 51zM343 548c-82 0 -211 -62 -211 -270c0 -119 68 -248 188 -248c74 0 210 62 210 281c0 138 -81 237 -187 237z
" />
    <glyph glyph-name="P" unicode="P" horiz-adv-x="468" 
d="M48 -1c14 84 13 506 4 584c38 -4 104 0 183 0c123 0 208 -15 208 -129c0 -65 -62 -132 -232 -177c-3 0 -10 28 -10 32c92 28 145 63 145 145c0 67 -59 92 -115 92c-33 0 -68 -2 -85 -4c-8 -111 5 -488 10 -543c-20 3 -84 3 -108 0z" />
    <glyph glyph-name="Q" unicode="Q" horiz-adv-x="677" 
d="M357 594c154 0 268 -112 269 -279c0 -104 -49 -205 -133 -270c-34 -27 -78 -43 -116 -49c-1 0 -1 -1 -2 -1c88 -52 218 -106 306 -126c-50 -20 -87 -39 -117 -57c-86 69 -155 118 -243 174c-8 -1 -16 -2 -24 -2c-188 0 -262 170 -262 292c2 83 44 204 146 267
c38 23 119 51 176 51zM343 548c-82 0 -211 -62 -211 -270c0 -119 68 -248 188 -248c74 0 210 62 210 281c0 138 -81 237 -187 237z" />
    <glyph glyph-name="R" unicode="R" horiz-adv-x="538" 
d="M190 582c104 0 260 9 261 -98c0 -47 -40 -104 -139 -140c59 -105 155 -272 226 -345c-38 3 -92 4 -127 -5c-41 72 -145 266 -205 344c5 6 11 16 15 17c74 11 129 54 129 112c0 61 -62 80 -138 79c-21 0 -43 -1 -61 -3c-8 -98 -7 -354 7 -543c-31 3 -80 2 -110 -5
c14 113 9 514 1 588c27 -3 107 -1 141 -1z" />
    <glyph glyph-name="S" unicode="S" horiz-adv-x="291" 
d="M16 -4c-3 10 -1 26 4 38c98 -15 157 25 157 111c0 61 -33 103 -78 156c-42 49 -55 91 -55 123c0 61 54 125 145 178c8 -7 17 -21 20 -29c-68 -44 -84 -82 -84 -124c-1 -34 33 -78 66 -115c45 -51 74 -108 74 -163c0 -83 -54 -179 -186 -179c-15 0 -47 1 -63 4z" />
    <glyph glyph-name="T" unicode="T" horiz-adv-x="441" 
d="M6 583c192 -5 257 -4 429 0c3 -8 2 -21 1 -32c-68 -7 -121 -9 -170 -17c-4 -93 -5 -333 6 -536c-26 4 -69 4 -106 1c8 47 13 483 9 535c-47 8 -88 9 -170 15c-2 8 -3 22 1 34z" />
    <glyph glyph-name="U" unicode="U" horiz-adv-x="579" 
d="M35 582c37 -2 79 -2 108 2c-6 -130 3 -279 21 -402c16 -105 72 -144 131 -144c104 0 149 85 162 154c20 110 22 302 14 381c28 5 58 15 83 28c-16 -114 -30 -274 -48 -386c-20 -129 -84 -229 -222 -229c-130 0 -192 62 -214 218c-18 133 -18 264 -35 378z" />
    <glyph glyph-name="V" unicode="V" horiz-adv-x="538" 
d="M26 584c38 -5 80 -4 119 1c22 -127 66 -248 114 -390c7 -19 14 -41 19 -63c57 125 141 324 179 443c26 3 62 8 88 19c-34 -52 -190 -389 -208 -429c-19 -43 -45 -110 -56 -153c-11 -13 -30 -24 -54 -32c-58 203 -119 405 -201 604z" />
    <glyph glyph-name="W" unicode="W" horiz-adv-x="862" 
d="M26 584c38 -5 82 -4 121 1c18 -127 37 -210 75 -357c4 -17 17 -61 22 -82c58 125 151 311 189 430c11 7 28 14 47 19c28 -125 63 -240 109 -380c7 -20 15 -49 22 -70c57 125 131 311 165 430c25 3 68 9 94 20c-36 -52 -187 -389 -205 -430c-37 -79 -42 -101 -62 -167
c-9 -9 -23 -20 -40 -26c-37 140 -74 263 -111 379c-9 29 -18 65 -25 93c-55 -119 -131 -281 -142 -308c-19 -42 -42 -94 -53 -137c-16 -14 -28 -19 -45 -26c-44 205 -98 428 -161 611z" />
    <glyph glyph-name="X" unicode="X" horiz-adv-x="615" 
d="M333 375c64 77 107 141 133 200c23 1 68 7 107 17c-59 -53 -168 -180 -218 -247c69 -109 134 -231 231 -346c-25 3 -115 3 -142 0c-36 94 -118 226 -155 284c-51 -67 -144 -202 -178 -275c-39 -6 -76 -7 -126 -25c84 83 220 245 283 330c-44 74 -178 260 -193 270
c24 -3 104 -6 143 0c40 -82 80 -149 115 -208z" />
    <glyph glyph-name="Y" unicode="Y" horiz-adv-x="479" 
d="M5 583c49 -4 90 -3 131 0c30 -81 77 -160 128 -233c61 80 108 152 144 227c26 1 56 3 92 11c-96 -108 -136 -162 -224 -287c-3 -140 -1 -229 9 -302c-36 3 -75 4 -105 0c6 63 11 219 6 303c-40 79 -138 231 -181 281z" />
    <glyph glyph-name="Z" unicode="Z" horiz-adv-x="530" 
d="M80 587c128 -6 348 -9 391 0c8 -8 8 -14 8 -24c-20 -15 -42 -37 -60 -61l-296 -419c59 -3 297 -3 376 14c-9 -30 -15 -78 -17 -103c-195 13 -403 9 -459 0c-5 5 -9 19 -8 26c18 15 46 44 64 68c96 127 217 301 293 414c-107 4 -240 -1 -305 -14c9 29 11 71 13 99z" />
    <glyph glyph-name="bracketleft" unicode="[" horiz-adv-x="241" 
d="M207 -30c4 -7 4 -25 4 -34c-66 -5 -124 -11 -184 -24c15 119 14 558 6 671c39 -3 132 -2 173 0c1 -7 2 -25 -1 -31c-22 -1 -54 -3 -75 -6c-9 -155 -10 -370 -4 -577c35 -1 55 -1 81 1z" />
    <glyph glyph-name="backslash" unicode="\" horiz-adv-x="299" 
d="M22 600c5 4 37 6 46 5l210 -647c-11 -5 -37 -5 -47 -4z" />
    <glyph glyph-name="bracketright" unicode="]" horiz-adv-x="242" 
d="M215 583c-14 -124 -15 -541 -6 -649c-44 -2 -127 -13 -175 -22c-3 7 -5 22 -4 32c32 7 52 10 82 24c9 159 4 412 4 575c-20 2 -54 4 -74 4c-2 10 -3 25 -1 35c53 -3 118 -2 174 1z" />
    <glyph glyph-name="asciicircum" unicode="^" horiz-adv-x="375" 
d="M204 592c43 -86 101 -201 123 -236c-7 -8 -33 -12 -45 -14c-26 60 -59 129 -87 180c-34 -52 -77 -127 -106 -180c-12 3 -34 10 -40 21c33 47 95 148 139 229c5 1 12 1 16 0z" />
    <glyph glyph-name="underscore" unicode="_" horiz-adv-x="529" 
d="M5 -89c226 -3 298 -3 523 -2c1 -11 -1 -33 -6 -43c-226 2 -296 3 -520 2c-4 9 0 37 3 43z" />
    <glyph glyph-name="grave" unicode="`" 
d="M140 570c37 -25 110 -64 169 -91c-1 -9 -7 -20 -12 -29c-65 20 -114 32 -183 43c9 18 23 58 26 77z" />
    <glyph glyph-name="a" unicode="a" horiz-adv-x="392" 
d="M66 368c63 22 120 28 164 28c45 0 108 -14 106 -76c-1 -52 -1 -201 1 -256c1 -16 1 -41 7 -65c-35 3 -57 3 -93 -3c-1 11 -1 31 -1 40c-52 -22 -103 -45 -131 -45c-35 0 -57 3 -78 42c-6 13 -13 61 -10 81c7 54 59 79 101 89c40 10 76 18 118 24c2 23 1 64 -1 83
c-4 35 -51 38 -90 38c-32 0 -72 -10 -87 -14c-4 5 -6 22 -6 34zM174 50c15 0 50 11 75 22c-1 37 0 86 1 119c-36 -7 -59 -11 -84 -20c-39 -14 -51 -53 -48 -79c4 -38 23 -44 56 -42z" />
    <glyph glyph-name="b" unicode="b" horiz-adv-x="476" 
d="M49 670c30 7 92 17 114 27c-13 -104 -14 -230 -16 -345c48 22 98 44 152 44c83 0 136 -49 140 -148c6 -115 -79 -259 -234 -259c-66 0 -141 28 -158 44c20 200 22 570 2 637zM147 48c23 -15 40 -19 65 -19c105 0 137 112 136 202c-1 76 -48 109 -91 109
c-41 0 -77 -10 -111 -26c-2 -53 -1 -230 1 -266z" />
    <glyph glyph-name="c" unicode="c" horiz-adv-x="387" 
d="M334 378c-3 -9 -8 -25 -15 -32c-11 4 -41 9 -60 9c-65 0 -139 -53 -139 -186c0 -50 27 -132 101 -132c48 0 76 5 124 20c6 -9 9 -22 11 -32c-61 -22 -104 -32 -167 -32c-91 0 -154 60 -154 173c0 138 102 229 224 229c25 0 54 -8 75 -17z" />
    <glyph glyph-name="d" unicode="d" horiz-adv-x="473" 
d="M240 396c40 0 60 -11 88 -16c1 78 -5 249 -15 292c45 4 79 10 114 26c-16 -68 -23 -557 0 -650c-60 -23 -148 -60 -216 -60c-109 0 -179 54 -174 180c5 133 89 228 203 228zM237 353c-50 -1 -112 -65 -113 -187c-2 -99 53 -134 99 -134c40 0 77 13 101 24
c4 85 4 222 3 284c-27 8 -47 14 -90 13z" />
    <glyph glyph-name="e" unicode="e" horiz-adv-x="403" 
d="M36 169c4 157 122 228 195 228c72 0 105 -14 119 -37c16 -28 15 -77 -12 -105c-20 -21 -60 -30 -139 -30c-24 0 -50 1 -74 5c-10 -60 -1 -195 106 -195c51 0 78 7 129 23c5 -7 8 -24 10 -29c-49 -18 -104 -39 -167 -39c-106 0 -170 74 -167 179zM198 260c25 0 47 5 60 19
c15 15 19 45 3 63c-8 10 -23 14 -43 14c-44 0 -79 -51 -85 -90c15 -4 31 -6 65 -6z" />
    <glyph glyph-name="f" unicode="f" horiz-adv-x="255" 
d="M39 390h31c1 24 1 75 2 120c3 71 83 176 146 182c17 1 40 -5 58 -13c-2 -11 -9 -27 -14 -35c-10 4 -23 6 -36 6c-22 0 -45 -25 -54 -52c-14 -40 -20 -55 -19 -208c43 -2 77 0 106 2c0 -12 -3 -39 -6 -43c-32 3 -54 3 -99 3c-1 -69 1 -300 15 -354c-24 4 -86 3 -108 0
c11 121 10 238 10 354h-34c0 10 0 25 2 38z" />
    <glyph glyph-name="g" unicode="g" horiz-adv-x="413" 
d="M208 394c41 0 90 -8 106 -19c23 5 45 14 63 22c8 -7 13 -15 15 -25c-21 -11 -38 -20 -53 -30c3 -6 7 -17 7 -28c0 -74 -88 -110 -158 -113c-29 -53 33 -87 86 -121c120 -75 131 -123 131 -181c0 -98 -125 -168 -222 -168c-173 0 -175 113 -175 132c0 69 42 136 131 217
c-35 41 -20 78 13 121c-77 8 -115 37 -117 84c-1 65 85 109 173 109zM162 53c-48 -49 -75 -112 -75 -166c0 -49 36 -108 109 -108c84 0 130 47 130 92c0 65 -52 108 -100 137c-27 17 -46 29 -64 45zM193 361c-32 0 -69 -26 -68 -73c0 -19 17 -51 62 -51c38 0 70 28 69 67
c0 31 -23 57 -63 57z" />
    <glyph glyph-name="h" unicode="h" horiz-adv-x="487" 
d="M52 672c34 5 83 14 118 30c-18 -78 -23 -263 -22 -338c41 17 88 33 127 33c94 0 134 -30 148 -129c5 -35 12 -234 20 -269c-36 2 -73 5 -103 -1c10 68 2 212 -5 261c-6 50 -26 87 -78 88c-43 1 -81 -13 -109 -23c0 -91 1 -214 7 -326c-28 4 -48 6 -107 0
c16 104 19 531 4 674z" />
    <glyph glyph-name="i" unicode="i" horiz-adv-x="203" 
d="M109 591c36 0 44 -22 44 -33c0 -20 -27 -43 -60 -43c-25 0 -42 10 -42 34c0 18 21 42 58 42zM49 0c11 92 10 297 -1 377c29 2 73 10 99 17c-10 -64 -6 -320 8 -396c-26 8 -93 3 -106 2z" />
    <glyph glyph-name="j" unicode="j" horiz-adv-x="204" 
d="M142 45c0 -145 -21 -204 -83 -272c-35 -39 -97 -54 -140 -40c0 9 0 25 2 34c118 0 134 133 136 213c4 106 2 338 -8 403c23 1 68 6 98 16c-4 -136 -5 -263 -5 -354zM109 593c36 0 44 -22 44 -34c0 -19 -27 -43 -60 -43c-25 0 -42 11 -42 35c0 17 21 42 58 42z" />
    <glyph glyph-name="k" unicode="k" horiz-adv-x="483" 
d="M55 -3c12 93 7 608 -7 674c23 2 81 13 110 23c-16 -129 -12 -251 -8 -422c93 32 203 83 302 132c-10 -20 -23 -61 -25 -79c-51 -12 -94 -24 -146 -44c30 -63 173 -257 198 -282c-33 5 -101 3 -124 -3c-26 47 -112 188 -156 253c-20 -6 -32 -11 -48 -17
c-1 -68 5 -164 11 -234c-34 4 -65 5 -107 -1z" />
    <glyph glyph-name="l" unicode="l" horiz-adv-x="209" 
d="M54 -3c12 93 8 609 -6 675c28 2 76 15 105 28c-17 -176 -7 -637 8 -702c-34 4 -65 5 -107 -1z" />
    <glyph glyph-name="m" unicode="m" horiz-adv-x="704" 
d="M560 -2c0 59 -6 212 -9 238c-12 92 -46 103 -72 103c-30 0 -62 -15 -93 -29c7 -20 9 -66 9 -90c2 -37 5 -131 13 -221c-28 3 -80 3 -100 0c3 96 1 225 -3 271c-5 65 -44 72 -72 72c-27 0 -51 -7 -84 -18c-4 -76 -4 -194 2 -326c-27 4 -72 7 -103 0c13 122 12 297 4 389
c24 3 72 7 102 14c-3 -16 -4 -26 -5 -40c37 17 83 35 123 35c48 0 86 -18 103 -50c44 24 96 51 134 51c68 0 128 -33 136 -200c2 -69 8 -170 14 -198c-29 3 -70 5 -99 -1z" />
    <glyph glyph-name="n" unicode="n" horiz-adv-x="484" 
d="M50 387c23 2 71 6 101 14c-4 -17 -5 -29 -5 -42c40 18 98 38 124 38c79 0 141 -45 149 -148c13 -188 17 -226 20 -251c-29 4 -69 6 -101 0c7 49 -2 205 -4 229c-11 95 -46 114 -92 114c-25 0 -72 -9 -96 -17c-5 -76 -2 -194 5 -326c-28 4 -72 7 -103 0
c13 122 9 297 2 389z" />
    <glyph glyph-name="o" unicode="o" horiz-adv-x="466" 
d="M244 391c125 0 185 -84 185 -190c0 -53 -23 -127 -71 -165c-26 -20 -100 -46 -145 -46c-124 0 -179 107 -177 183c0 70 33 138 77 171c26 20 97 47 131 47zM233 344c-37 0 -109 -29 -109 -163c0 -64 30 -144 104 -144c73 0 117 56 113 163c-3 107 -65 144 -108 144z" />
    <glyph glyph-name="p" unicode="p" horiz-adv-x="463" 
d="M45 -277c16 131 19 562 10 654c21 5 66 12 91 21v-31c35 15 74 29 115 29c124 -1 172 -76 169 -173c-5 -137 -107 -231 -228 -231c-25 0 -38 3 -59 8c3 -136 6 -217 20 -266c-29 0 -98 -8 -118 -11zM144 40c18 -5 36 -7 57 -7c60 0 137 42 137 188c0 72 -30 127 -102 127
c-25 0 -63 -7 -90 -18c-5 -71 -2 -248 -2 -290z" />
    <glyph glyph-name="q" unicode="q" horiz-adv-x="465" 
d="M306 -277c10 35 12 276 10 304c-38 -19 -80 -33 -122 -33c-133 0 -158 103 -159 150c0 181 134 251 211 251c17 0 44 -4 66 -12c21 3 69 11 89 17c-3 -33 -2 -185 -1 -338c0 -204 7 -294 24 -328c-15 0 -86 -6 -118 -11zM313 343c-30 9 -51 11 -74 10
c-26 -1 -117 -31 -117 -192c0 -43 18 -116 106 -117c26 0 62 10 88 22c2 66 -1 252 -3 277z" />
    <glyph glyph-name="r" unicode="r" horiz-adv-x="275" 
d="M140 397c-2 -18 -6 -54 -6 -107l3 -1c26 71 44 92 116 119c5 -5 12 -21 12 -31c-68 -47 -120 -105 -125 -219c-2 -40 0 -73 5 -159c-22 2 -64 3 -95 -1c9 97 10 296 -2 387c15 1 79 8 92 12z" />
    <glyph glyph-name="s" unicode="s" horiz-adv-x="259" 
d="M32 -3c-1 10 0 28 3 35c61 -9 99 20 99 61c0 31 -19 60 -40 88c-28 37 -42 61 -42 89c0 44 44 99 119 135c7 -5 16 -20 18 -27c-46 -33 -58 -53 -58 -83c0 -25 23 -53 39 -72c38 -47 52 -83 52 -112c0 -49 -31 -118 -138 -118c-10 0 -43 0 -52 4z" />
    <glyph glyph-name="t" unicode="t" horiz-adv-x="308" 
d="M133 542c7 1 20 -1 28 -4c-5 -26 -11 -113 -11 -148c19 0 101 -1 132 2c-1 -12 -2 -27 -9 -43c-32 3 -98 3 -124 3c-2 -37 -2 -186 1 -227c4 -63 15 -79 43 -79c19 0 47 4 76 9c3 -8 6 -22 6 -32c-44 -13 -128 -30 -151 -30c-44 0 -59 22 -60 110c-1 50 3 179 3 249h-35
c0 14 0 27 2 38h38c21 38 51 113 61 152z" />
    <glyph glyph-name="u" unicode="u" horiz-adv-x="471" 
d="M146 397c-8 -69 -12 -131 -12 -201c2 -98 17 -140 75 -140c37 0 77 10 114 20c5 38 5 238 -5 307c18 -1 74 7 101 13c-12 -89 -9 -353 4 -391c-29 0 -65 -5 -96 -10c-3 16 -3 27 -3 41c-47 -20 -111 -43 -174 -43c-85 0 -101 63 -101 161c0 102 -1 198 -5 231
c30 1 78 5 102 12z" />
    <glyph glyph-name="v" unicode="v" horiz-adv-x="407" 
d="M139 392c0 -47 38 -165 61 -241c4 -12 8 -24 10 -37c58 115 102 223 110 267c21 2 58 9 87 21c-67 -109 -118 -203 -163 -299c-14 -31 -35 -75 -40 -101c-12 -8 -26 -13 -41 -16c-36 143 -118 376 -143 405c25 -5 99 -1 119 1z" />
    <glyph glyph-name="w" unicode="w" horiz-adv-x="633" 
d="M21 391c24 -5 103 -2 123 1c1 -52 31 -162 55 -247c3 -10 6 -19 7 -29c59 115 103 228 111 272c7 3 36 10 45 12c15 -65 43 -150 76 -246c3 -10 8 -28 11 -36c58 115 88 220 95 264c21 3 60 8 89 20c-65 -113 -104 -199 -148 -295c-14 -31 -34 -79 -39 -105
c-12 -7 -29 -12 -44 -15c-27 87 -52 157 -73 214c-7 18 -16 40 -20 54c-31 -64 -37 -77 -70 -150c-16 -37 -32 -78 -38 -104c-11 -8 -32 -12 -47 -15c-37 143 -108 376 -133 405z" />
    <glyph glyph-name="x" unicode="x" horiz-adv-x="457" 
d="M436 397l1 -5c-61 -50 -122 -117 -160 -161c50 -89 80 -138 163 -233c-28 4 -115 4 -135 1c-35 73 -61 125 -90 171c-57 -70 -80 -102 -117 -168c-29 -4 -68 -6 -97 -13l-1 4c57 53 139 142 194 212c-44 75 -77 128 -129 185c38 -3 105 -5 139 1c8 -44 34 -98 53 -128
c43 47 81 94 93 120c20 2 65 8 86 14z" />
    <glyph glyph-name="y" unicode="y" horiz-adv-x="470" 
d="M467 395l3 -5c-68 -106 -137 -245 -193 -363c-32 -70 -35 -79 -68 -155c-32 -76 -60 -115 -183 -157c-7 10 -12 20 -11 30c99 62 144 123 199 243c-43 104 -142 318 -207 403c33 -8 102 -4 125 -1c6 -30 94 -238 133 -291c50 101 104 232 109 286c20 -1 58 2 93 10z" />
    <glyph glyph-name="z" unicode="z" horiz-adv-x="411" 
d="M64 391c80 -5 192 -6 288 0c6 -5 8 -12 10 -18c-22 -18 -42 -39 -59 -60l-183 -239c70 0 190 1 255 12c-5 -13 -13 -57 -18 -91c-100 11 -290 7 -333 3c-4 4 -7 11 -9 21c21 14 46 40 64 62c72 87 136 175 179 233c-81 3 -155 -2 -211 -9c7 21 14 60 17 86z" />
    <glyph glyph-name="braceleft" unicode="{" horiz-adv-x="270" 
d="M239 -87c-88 70 -136 94 -137 187c-1 41 0 51 -3 78c-7 57 -14 89 -59 109c0 10 -1 19 3 29c39 12 56 44 62 104c2 16 3 45 4 65c4 65 40 77 124 138c7 -6 12 -22 13 -31c-21 -21 -47 -39 -52 -84c-2 -18 -3 -41 -4 -74c-4 -61 -39 -88 -103 -133c64 -45 84 -53 95 -138
c2 -16 4 -43 4 -62c5 -84 27 -115 67 -159c-2 -9 -7 -23 -14 -29z" />
    <glyph glyph-name="bar" unicode="|" horiz-adv-x="242" 
d="M144 602c-2 -226 -2 -462 -1 -687c-11 -3 -34 -9 -45 -7c1 226 3 468 2 693c9 3 39 3 44 1z" />
    <glyph glyph-name="braceright" unicode="}" horiz-adv-x="279" 
d="M36 598c1 5 11 23 19 25c72 -48 121 -75 121 -144c0 -20 1 -52 5 -70c8 -48 15 -78 58 -98c1 -5 1 -13 -1 -22c-40 -24 -56 -61 -62 -122l-5 -74c-5 -86 -58 -120 -128 -176c-7 1 -18 18 -20 24c23 22 52 52 59 102c3 26 9 90 11 115c7 82 51 109 102 142
c-69 44 -96 60 -103 131c-1 19 -1 48 -3 66c-6 61 -20 71 -53 101z" />
    <glyph glyph-name="asciitilde" unicode="~" 
d="M270 215c-24 0 -82 20 -110 21c-24 0 -51 -10 -79 -26c-8 6 -12 19 -14 25c33 27 89 58 112 58c35 0 81 -18 114 -18c22 0 49 8 75 21c6 -6 10 -16 12 -23c-39 -33 -85 -58 -110 -58z" />
    <glyph glyph-name="uni00A0" unicode="&#xa0;" horiz-adv-x="221" 
 />
    <glyph glyph-name="exclamdown" unicode="&#xa1;" horiz-adv-x="195" 
d="M79 221l34 4c2 -140 23 -376 29 -424c-26 -2 -73 -4 -103 -10c12 83 37 359 40 430zM87 304c-40 0 -48 24 -48 38c0 21 30 47 66 47c27 0 47 -12 47 -38c0 -20 -23 -47 -65 -47z" />
    <glyph glyph-name="cent" unicode="&#xa2;" horiz-adv-x="377" 
d="M334 378c-3 -9 -8 -25 -15 -32c-11 4 -41 9 -60 9c-65 0 -139 -53 -139 -186c0 -50 27 -132 101 -132c48 0 76 5 124 20c6 -9 9 -22 11 -32c-43 -15 -76 -25 -114 -30c-3 -27 -6 -91 -6 -106c-6 -2 -25 -3 -33 -1l-4 105h-10c-91 0 -154 60 -154 173
c0 117 73 199 169 222c2 30 4 86 4 103c10 3 29 2 35 1c0 -17 2 -75 3 -97h13c25 0 54 -8 75 -17z" />
    <glyph glyph-name="sterling" unicode="&#xa3;" horiz-adv-x="400" 
d="M319 561c-2 -9 -8 -22 -13 -27c-9 5 -55 13 -80 13c-43 0 -70 -32 -68 -103c1 -44 8 -69 17 -100c33 0 95 1 137 2c0 -13 -2 -26 -7 -38c-33 2 -83 2 -121 1c18 -68 0 -134 -52 -227c79 0 160 0 245 10c-11 -24 -19 -58 -26 -94c-31 4 -267 6 -335 -3c11 30 21 73 24 91
c46 -2 39 -2 59 -2c41 96 32 160 5 225c-18 0 -35 -1 -51 -2c-1 12 -1 27 2 38c17 -1 27 -2 38 -1c-16 40 -24 72 -24 105c0 76 55 143 155 143c21 0 65 -11 95 -31z" />
    <glyph glyph-name="currency" unicode="&#xa4;" 
d="M71 477c0 22 6 43 20 61c-13 15 -26 27 -42 40c3 9 18 25 28 30c16 -14 29 -27 46 -37c18 13 39 19 63 19c25 0 48 -6 67 -21c17 12 30 23 45 38c9 -4 23 -18 27 -28c-14 -15 -29 -29 -42 -45c10 -16 15 -35 15 -57c0 -24 -8 -46 -22 -64c12 -16 25 -27 40 -41
c-3 -9 -17 -24 -27 -29c-16 13 -30 27 -47 38c-17 -11 -36 -16 -57 -16c-25 0 -46 4 -64 16c-16 -12 -29 -25 -43 -40c-9 4 -24 17 -29 27c13 15 28 29 38 44c-10 18 -16 38 -16 65zM113 476c0 -39 28 -71 71 -71c39 0 71 32 71 71c0 42 -32 72 -71 72
c-40 0 -71 -32 -71 -72z" />
    <glyph glyph-name="yen" unicode="&#xa5;" horiz-adv-x="459" 
d="M5 583c49 -4 90 -3 131 0c30 -81 77 -160 128 -233c61 80 108 152 144 227c26 1 56 3 92 11c-96 -107 -136 -161 -222 -284c51 0 95 1 108 1c1 -11 -1 -27 -6 -37l-105 2v-54c52 0 98 1 111 1c1 -11 -1 -26 -6 -36l-105 1c0 -75 3 -133 10 -183c-36 3 -75 4 -105 0
c4 39 7 113 8 184c-43 1 -83 1 -104 0c-3 8 1 30 3 36c18 -2 57 -3 102 -3c0 19 -1 38 -1 55h-104c-3 8 1 30 3 36c18 -2 56 -3 99 -3c-41 79 -138 229 -181 279z" />
    <glyph glyph-name="brokenbar" unicode="&#xa6;" horiz-adv-x="242" 
d="M144 603c-2 -109 -1 -199 0 -308c-11 -2 -34 -1 -45 0c1 109 2 199 1 308c9 1 39 0 44 0zM144 229c-3 -109 -2 -205 -1 -314c-11 -2 -34 -7 -45 -5c1 109 2 210 1 318c9 2 39 2 45 1z" />
    <glyph glyph-name="section" unicode="&#xa7;" horiz-adv-x="409" 
d="M60 -267c-3 10 -2 35 3 46c9 -2 26 -3 40 -3c61 0 114 49 114 118c0 61 -55 122 -108 184c-54 62 -76 110 -77 157c0 42 15 83 45 132c44 76 98 150 167 234c12 -7 25 -20 31 -29c-50 -58 -80 -108 -79 -139c0 -48 43 -95 75 -126c61 -58 96 -125 96 -188
c0 -45 -7 -122 -63 -223c-85 -154 -150 -167 -206 -167c-10 0 -26 1 -38 4zM308 63c0 73 -67 148 -115 198c-31 32 -59 64 -62 107c-24 -37 -35 -64 -35 -98c0 -43 43 -95 83 -139c55 -60 102 -117 109 -165c17 33 20 59 20 97z" />
    <glyph glyph-name="dieresis" unicode="&#xa8;" 
d="M134 527c28 0 42 -13 42 -31c0 -22 -31 -35 -56 -35c-18 0 -35 11 -35 26c0 22 25 40 49 40zM284 527c28 0 41 -13 41 -31c0 -22 -30 -35 -55 -35c-19 0 -35 11 -35 26c0 22 25 40 49 40z" />
    <glyph glyph-name="copyright" unicode="&#xa9;" horiz-adv-x="712" 
d="M23 269c0 184 149 333 333 333s333 -149 333 -333s-149 -333 -333 -333s-333 149 -333 333zM67 268c0 -158 131 -292 289 -292c166 0 292 134 292 292c0 161 -131 295 -292 295c-158 0 -289 -134 -289 -295zM348 37c-143 3 -199 106 -199 199c0 127 90 268 258 268
c22 0 62 -12 87 -29c0 -1 -8 -33 -12 -34c-20 11 -54 17 -80 17c-88 0 -171 -54 -171 -219c0 -79 44 -148 137 -150c35 -1 86 12 131 35c5 -4 10 -23 12 -34c-42 -23 -111 -53 -163 -53z" />
    <glyph glyph-name="ordfeminine" unicode="&#xaa;" horiz-adv-x="360" 
d="M68 567c56 19 106 24 146 24s98 -12 97 -67c-1 -46 -1 -179 1 -229c0 -14 0 -36 6 -58c-31 3 -54 3 -86 -2c-1 10 -1 28 -1 35c-46 -19 -91 -40 -116 -40c-31 0 -51 3 -69 38c-6 11 -12 55 -10 72c7 48 53 73 91 82c35 9 67 15 104 21c2 21 1 53 -1 70
c-4 30 -44 33 -79 33c-29 0 -65 -8 -77 -12c-4 5 -6 22 -6 33zM164 285c14 0 44 10 66 19c-1 34 0 76 1 104c-32 -5 -52 -9 -75 -17c-34 -13 -42 -48 -39 -71c4 -33 18 -37 47 -35z" />
    <glyph glyph-name="guillemotleft" unicode="&#xab;" horiz-adv-x="355" 
d="M164 58c-4 -5 -24 -13 -33 -14c-22 42 -57 92 -98 144c31 39 78 103 102 146c7 -1 23 -6 33 -13c-22 -49 -35 -90 -45 -132c9 -41 19 -79 41 -131zM310 58c-3 -5 -23 -13 -32 -14c-22 42 -57 92 -98 144c31 39 78 103 102 146c7 -1 24 -6 33 -13
c-22 -49 -35 -90 -45 -132c8 -41 19 -79 40 -131z" />
    <glyph glyph-name="logicalnot" unicode="&#xac;" 
d="M38 275c101 -2 242 -1 317 0c-2 -52 -2 -101 -1 -151c-11 -4 -30 -4 -42 -4c1 40 2 75 2 113c-88 2 -165 3 -279 2c-3 8 1 35 3 40z" />
    <glyph glyph-name="uni00AD" unicode="&#xad;" horiz-adv-x="0" 
d="M-85 271c30 3 148 21 169 26c3 -12 6 -34 0 -53c-24 -2 -139 -18 -167 -24c-3 10 -3 40 -2 51z" />
    <glyph glyph-name="registered" unicode="&#xae;" horiz-adv-x="712" 
d="M23 269c0 184 149 333 333 333s333 -149 333 -333s-149 -333 -333 -333s-333 149 -333 333zM67 268c0 -158 131 -292 289 -292c73 0 139 27 190 72c-25 1 -65 2 -82 -4c-34 73 -94 189 -146 261c4 5 9 13 12 13c61 9 102 46 102 85c0 37 -40 48 -88 49h-53
c-6 -75 -3 -261 3 -404c-24 3 -63 4 -87 -6c12 86 7 394 3 450c20 -3 110 -1 135 -1c60 0 172 3 171 -77c0 -37 -35 -79 -108 -107c40 -76 85 -156 153 -247c54 54 87 128 87 208c0 161 -131 295 -292 295c-158 0 -289 -134 -289 -295z" />
    <glyph glyph-name="macron" unicode="&#xaf;" 
d="M92 506c101 -2 158 -2 233 -1c0 -11 -1 -31 -6 -41c-97 2 -105 3 -230 2c-3 8 1 35 3 40z" />
    <glyph glyph-name="degree" unicode="&#xb0;" 
d="M66 477c0 62 57 120 120 120c66 0 119 -44 119 -120c0 -63 -57 -119 -120 -119c-66 0 -119 45 -119 119zM110 476c0 -42 29 -76 75 -76c42 0 75 34 75 76c0 45 -33 77 -75 77s-75 -34 -75 -77z" />
    <glyph glyph-name="plusminus" unicode="&#xb1;" 
d="M38 71c44 -2 87 -2 137 -3c1 43 2 80 2 123c-46 1 -87 1 -142 0c-3 9 1 35 3 41c44 -1 89 -2 139 -2c1 50 1 87 0 135c8 2 37 2 43 1c-2 -49 -2 -86 -2 -136c53 -1 101 -1 136 1c1 -11 -1 -32 -6 -42c-45 2 -83 2 -130 2v-123c54 0 101 0 136 1c1 -11 -1 -32 -6 -42
c-97 2 -188 3 -313 2c-3 8 1 36 3 42z" />
    <glyph glyph-name="twosuperior" unicode="&#xb2;" horiz-adv-x="285" 
d="M48 553c31 16 75 38 119 38c49 0 68 -38 68 -73c0 -45 -33 -90 -56 -123c-4 -5 -46 -54 -72 -86c33 -6 139 -2 149 0c-10 -22 -17 -51 -21 -74c-40 4 -136 7 -202 2c-3 5 -4 16 -5 21c58 61 133 160 133 240c0 28 -18 40 -45 40c-25 0 -37 -5 -58 -11c-6 5 -8 19 -10 26z
" />
    <glyph glyph-name="threesuperior" unicode="&#xb3;" horiz-adv-x="260" 
d="M45 569c13 7 60 24 87 24c59 0 79 -31 79 -62c0 -26 -22 -62 -70 -82c56 -1 92 -30 92 -82c0 -104 -131 -151 -204 -145c0 5 0 28 2 34c66 0 125 30 125 109c0 43 -22 58 -73 49c-5 5 -7 23 -8 29c27 8 60 29 60 75c0 26 -23 30 -40 30c-21 0 -29 -2 -43 -6
c-2 4 -6 21 -7 27z" />
    <glyph glyph-name="acute" unicode="&#xb4;" 
d="M320 570c2 -18 19 -60 28 -78c-69 -10 -120 -19 -185 -38c-5 9 -10 21 -11 29c59 26 125 58 168 87z" />
    <glyph glyph-name="mu" unicode="&#xb5;" horiz-adv-x="476" 
d="M151 397c-9 -69 -13 -131 -12 -201c2 -98 17 -140 74 -140c37 0 78 10 115 20c4 38 4 238 -5 307c17 -1 74 7 101 13c-12 -89 -10 -353 4 -391c-29 0 -65 -5 -97 -10c-3 16 -2 27 -2 41c-48 -20 -111 -43 -174 -43c-27 0 -53 8 -67 20c7 -120 25 -246 34 -281
c-26 -2 -73 -5 -103 -10c20 101 33 346 34 429c2 105 -1 201 -5 234c31 1 79 5 103 12z" />
    <glyph glyph-name="mu" unicode="&#x3bc;" horiz-adv-x="476" 
d="M151 397c-9 -69 -13 -131 -12 -201c2 -98 17 -140 74 -140c37 0 78 10 115 20c4 38 4 238 -5 307c17 -1 74 7 101 13c-12 -89 -10 -353 4 -391c-29 0 -65 -5 -97 -10c-3 16 -2 27 -2 41c-48 -20 -111 -43 -174 -43c-27 0 -53 8 -67 20c7 -120 25 -246 34 -281
c-26 -2 -73 -5 -103 -10c20 101 33 346 34 429c2 105 -1 201 -5 234c31 1 79 5 103 12z" />
    <glyph glyph-name="paragraph" unicode="&#xb6;" horiz-adv-x="513" 
d="M222 329c4 -6 5 -22 6 -32c-36 -11 -63 -14 -82 -14c-91 0 -121 47 -121 112c0 62 62 190 283 189c34 0 88 0 156 -6c-16 -69 -15 -432 -10 -580c-26 3 -72 5 -96 2c7 123 8 378 6 541c-16 3 -29 2 -44 2c-5 -199 -7 -440 -5 -545c-26 4 -22 4 -48 1c8 206 12 357 6 544
c-101 -2 -157 -67 -157 -146c0 -53 29 -72 63 -72c12 0 28 0 43 4z" />
    <glyph glyph-name="periodcentered" unicode="&#xb7;" horiz-adv-x="164" 
d="M91 338c40 0 48 -25 48 -38c0 -15 -18 -47 -67 -47c-26 0 -46 13 -46 39c0 19 23 46 65 46z" />
    <glyph glyph-name="cedilla" unicode="&#xb8;" 
d="M132 -114c17 29 44 93 57 126l35 -10c-11 -21 -21 -47 -28 -70c21 -15 43 -34 43 -73c0 -20 -21 -75 -63 -125c-7 2 -21 10 -26 15c17 28 30 54 30 82c0 17 -16 35 -48 55z" />
    <glyph glyph-name="onesuperior" unicode="&#xb9;" horiz-adv-x="242" 
d="M175 591c5 -2 11 -3 15 -5c-8 -47 -4 -290 1 -353c-17 3 -74 3 -93 1c10 56 13 243 7 293c-28 -1 -49 -3 -75 -7c-2 4 -3 21 -4 25c46 13 114 32 149 46z" />
    <glyph glyph-name="ordmasculine" unicode="&#xba;" horiz-adv-x="419" 
d="M224 593c113 0 169 -77 169 -173c0 -48 -21 -116 -65 -150c-24 -18 -91 -42 -132 -42c-112 0 -163 97 -161 166c0 64 30 126 70 156c24 18 88 43 119 43zM214 548c-33 0 -96 -24 -96 -146c0 -58 25 -130 92 -130c66 0 103 50 99 147c-2 97 -56 129 -95 129z" />
    <glyph glyph-name="guillemotright" unicode="&#xbb;" horiz-adv-x="355" 
d="M44 321c3 5 24 13 33 14c22 -42 57 -92 97 -144c-30 -39 -77 -103 -101 -146c-8 3 -27 6 -33 13c22 49 34 91 44 132c-8 41 -18 79 -40 131zM191 321c3 5 24 13 33 14c22 -42 57 -92 97 -144c-30 -39 -77 -103 -101 -146c-8 3 -27 6 -33 13c21 49 34 91 44 132
c-8 41 -18 79 -40 131z" />
    <glyph glyph-name="onequarter" unicode="&#xbc;" horiz-adv-x="602" 
d="M469 -1c6 28 8 48 7 91c-2 0 -105 2 -139 0c-4 2 -13 26 -14 35c47 63 129 189 162 239c4 -2 28 -10 31 -14c-42 -62 -98 -158 -137 -223c39 -1 66 0 97 -1c1 17 1 45 -1 95c23 3 66 18 82 25c-5 -40 -7 -60 -7 -119h25c2 -9 2 -30 -1 -38c-14 0 -19 1 -25 0
c0 -20 2 -59 7 -89c-15 2 -68 2 -87 -1zM528 581l-435 -594c-11 3 -30 9 -39 18l435 595c10 -2 35 -13 39 -19zM171 592c5 -2 11 -3 15 -5c-7 -46 -4 -284 0 -346c-16 4 -70 4 -89 1c10 56 12 238 7 287c-27 0 -47 -3 -73 -6c-2 3 -3 20 -4 24c45 12 110 31 144 45z" />
    <glyph glyph-name="onehalf" unicode="&#xbd;" horiz-adv-x="585" 
d="M469 -1c6 28 8 48 7 91c-2 0 -105 2 -139 0c-4 2 -13 26 -14 35c47 63 129 189 162 239c4 -2 28 -10 31 -14c-42 -62 -98 -158 -137 -223c39 -1 66 0 97 -1c1 17 1 45 -1 95c23 3 66 18 82 25c-5 -40 -7 -60 -7 -119h25c2 -9 2 -30 -1 -38c-14 0 -19 1 -25 0
c0 -20 2 -59 7 -89c-15 2 -68 2 -87 -1zM45 570c13 7 60 23 87 23c60 0 79 -30 79 -60c0 -25 -22 -61 -70 -81c56 0 92 -29 92 -80c0 -102 -132 -149 -205 -142c0 4 0 26 2 32c67 1 126 31 126 108c0 42 -22 57 -73 48c-5 5 -8 23 -9 29c27 7 61 28 61 73
c0 26 -23 30 -40 30c-22 0 -30 -3 -43 -6c-2 3 -7 20 -7 26zM528 581l-435 -594c-11 3 -30 9 -39 18l435 595c10 -2 35 -13 39 -19z" />
    <glyph glyph-name="threequarters" unicode="&#xbe;" horiz-adv-x="606" 
d="M171 592c5 -2 11 -3 15 -5c-7 -46 -4 -284 0 -346c-16 4 -70 4 -89 1c10 56 12 238 7 287c-27 0 -47 -3 -73 -6c-2 3 -3 20 -4 24c45 12 110 31 144 45zM386 306c31 17 74 37 118 37c48 0 67 -37 67 -71c0 -44 -33 -87 -55 -119c-5 -5 -46 -53 -72 -84
c33 -5 139 -2 148 0c-10 -21 -17 -49 -21 -72c-40 5 -135 8 -200 3c-4 5 -4 15 -5 20c57 59 132 156 132 233c0 27 -19 39 -45 39c-25 0 -36 -5 -57 -11c-6 5 -9 19 -10 25zM528 581l-435 -594c-11 3 -30 9 -39 18l435 595c10 -2 35 -13 39 -19z" />
    <glyph glyph-name="questiondown" unicode="&#xbf;" horiz-adv-x="262" 
d="M161 231c20 -43 33 -75 33 -112c-2 -69 -73 -118 -73 -189c0 -50 30 -86 73 -121c-6 -10 -12 -20 -21 -28c-76 57 -135 116 -135 180c0 85 98 144 99 220c0 11 -3 26 -8 42c10 4 22 7 32 8zM134 307c-40 0 -48 26 -48 39c0 14 18 46 66 46c27 0 47 -12 47 -38
c0 -20 -23 -47 -65 -47z" />
    <glyph glyph-name="Agrave" unicode="&#xc0;" horiz-adv-x="514" 
d="M325 217c-53 -2 -129 -9 -176 -15c-39 -95 -53 -136 -67 -198c-20 1 -65 -5 -90 -11c85 144 149 288 218 448c32 72 41 102 51 147c11 5 19 7 31 10c68 -233 134 -426 205 -600c-42 5 -93 3 -116 0c-11 61 -29 130 -56 219zM254 457l-88 -211c54 -1 101 2 149 6
c-16 58 -30 98 -43 141c-6 17 -13 42 -18 64zM177 748c37 -25 110 -64 169 -91c-1 -9 -7 -20 -12 -29c-65 20 -114 32 -183 43c9 18 23 58 26 77z" />
    <glyph glyph-name="Aacute" unicode="&#xc1;" horiz-adv-x="514" 
d="M325 217c-53 -2 -129 -9 -176 -15c-39 -95 -53 -136 -67 -198c-20 1 -65 -5 -90 -11c85 144 149 288 218 448c32 72 41 102 51 147c11 5 19 7 31 10c68 -233 134 -426 205 -600c-42 5 -93 3 -116 0c-11 61 -29 130 -56 219zM254 457l-88 -211c54 -1 101 2 149 6
c-16 58 -30 98 -43 141c-6 17 -13 42 -18 64zM377 748c2 -18 19 -60 28 -78c-69 -10 -120 -19 -185 -38c-5 9 -10 21 -11 29c59 26 125 58 168 87z" />
    <glyph glyph-name="Acircumflex" unicode="&#xc2;" horiz-adv-x="514" 
d="M325 217c-53 -2 -129 -9 -176 -15c-39 -95 -53 -136 -67 -198c-20 1 -65 -5 -90 -11c85 144 149 288 218 448c32 72 41 102 51 147c11 5 19 7 31 10c68 -233 134 -426 205 -600c-42 5 -93 3 -116 0c-11 61 -29 130 -56 219zM254 457l-88 -211c54 -1 101 2 149 6
c-16 58 -30 98 -43 141c-6 17 -13 42 -18 64zM181 632c-5 4 -13 17 -14 26c34 20 65 45 114 80c33 -28 66 -57 100 -78c-3 -8 -9 -21 -15 -26c-38 17 -54 23 -87 34c-33 -9 -69 -22 -98 -36z" />
    <glyph glyph-name="Atilde" unicode="&#xc3;" horiz-adv-x="514" 
d="M325 217c-53 -2 -129 -9 -176 -15c-39 -95 -53 -136 -67 -198c-20 1 -65 -5 -90 -11c85 144 149 288 218 448c32 72 41 102 51 147c11 5 19 7 31 10c68 -233 134 -426 205 -600c-42 5 -93 3 -116 0c-11 61 -29 130 -56 219zM254 457l-88 -211c54 -1 101 2 149 6
c-16 58 -30 98 -43 141c-6 17 -13 42 -18 64zM312 637c-17 0 -54 18 -70 18c-24 0 -42 -7 -65 -22c-7 6 -14 18 -15 26c25 25 75 63 96 63c24 0 53 -18 74 -18c24 0 41 9 62 20c7 -5 14 -17 16 -25c-31 -31 -78 -62 -98 -62z" />
    <glyph glyph-name="Adieresis" unicode="&#xc4;" horiz-adv-x="514" 
d="M325 217c-53 -2 -129 -9 -176 -15c-39 -95 -53 -136 -67 -198c-20 1 -65 -5 -90 -11c85 144 149 288 218 448c32 72 41 102 51 147c11 5 19 7 31 10c68 -233 134 -426 205 -600c-42 5 -93 3 -116 0c-11 61 -29 130 -56 219zM254 457l-88 -211c54 -1 101 2 149 6
c-16 58 -30 98 -43 141c-6 17 -13 42 -18 64zM214 718c28 0 42 -13 42 -31c0 -22 -31 -35 -56 -35c-18 0 -35 11 -35 26c0 22 25 40 49 40zM364 718c28 0 41 -13 41 -31c0 -22 -30 -35 -55 -35c-19 0 -35 11 -35 26c0 22 25 40 49 40z" />
    <glyph glyph-name="Aring" unicode="&#xc5;" horiz-adv-x="514" 
d="M290 740c44 0 85 -18 85 -52c0 -47 -59 -72 -105 -71c-44 2 -80 22 -80 56c0 37 46 67 100 67zM285 713c-26 0 -41 -17 -41 -36c0 -18 12 -31 33 -31c29 0 43 15 43 39c0 16 -16 28 -35 28zM325 217c-53 -2 -129 -9 -176 -15c-39 -95 -53 -136 -67 -198
c-20 1 -65 -5 -90 -11c85 144 149 288 218 448c32 72 41 102 51 147c11 5 19 7 31 10c68 -233 134 -426 205 -600c-42 5 -93 3 -116 0c-11 61 -29 130 -56 219zM254 457l-88 -211c54 -1 101 2 149 6c-16 58 -30 98 -43 141c-6 17 -13 42 -18 64z" />
    <glyph glyph-name="AE" unicode="&#xc6;" horiz-adv-x="775" 
d="M218 226c-56 -95 -90 -159 -118 -222c-20 1 -78 -5 -104 -11c97 120 309 431 402 593c94 -5 245 -4 358 -2l-3 -36c-100 -3 -153 -4 -245 -8c-4 -39 -5 -167 -5 -190c77 -1 137 -1 214 3l1 -34c-64 -3 -150 -9 -216 -14c-1 -59 1 -196 3 -260c75 -4 151 -8 268 -8l3 -39
c-235 4 -262 4 -376 0c4 37 8 134 10 243c-61 -3 -153 -11 -192 -15zM248 273c43 -1 111 3 163 7c1 94 1 190 -2 249c-48 -72 -95 -148 -161 -256z" />
    <glyph glyph-name="Ccedilla" unicode="&#xc7;" horiz-adv-x="548" 
d="M228 -114c13 22 33 67 47 101c-172 12 -242 141 -242 258c0 177 125 350 339 350c30 0 94 -16 124 -36c-2 -9 -11 -24 -17 -29c-34 15 -81 23 -111 23c-167 0 -240 -153 -240 -302c0 -123 73 -208 192 -209c49 -1 120 11 180 43c9 -8 15 -22 17 -31
c-50 -28 -139 -62 -205 -67c-8 -17 -14 -37 -20 -55c21 -15 43 -34 43 -73c0 -20 -21 -75 -64 -125c-7 2 -20 10 -25 15c17 28 29 54 29 82c0 17 -15 35 -47 55z" />
    <glyph glyph-name="Egrave" unicode="&#xc8;" horiz-adv-x="439" 
d="M55 583c85 -3 235 -1 349 1l-2 -36c-101 -3 -153 -4 -246 -8c-4 -39 -5 -167 -5 -190c78 -1 138 -1 214 3l2 -34c-64 -3 -150 -9 -216 -14c-1 -59 0 -196 3 -260c75 -4 151 -8 268 -8l2 -39c-234 4 -262 4 -376 0c13 86 16 533 7 585zM173 748c37 -25 110 -64 169 -91
c-1 -9 -7 -20 -12 -29c-65 20 -114 32 -183 43c9 18 23 58 26 77z" />
    <glyph glyph-name="Eacute" unicode="&#xc9;" horiz-adv-x="439" 
d="M55 583c85 -3 235 -1 349 1l-2 -36c-101 -3 -153 -4 -246 -8c-4 -39 -5 -167 -5 -190c78 -1 138 -1 214 3l2 -34c-64 -3 -150 -9 -216 -14c-1 -59 0 -196 3 -260c75 -4 151 -8 268 -8l2 -39c-234 4 -262 4 -376 0c13 86 16 533 7 585zM313 749c2 -18 19 -60 28 -78
c-69 -10 -120 -19 -185 -38c-5 9 -10 21 -11 29c59 26 125 58 168 87z" />
    <glyph glyph-name="Ecircumflex" unicode="&#xca;" horiz-adv-x="439" 
d="M55 583c85 -3 235 -1 349 1l-2 -36c-101 -3 -153 -4 -246 -8c-4 -39 -5 -167 -5 -190c78 -1 138 -1 214 3l2 -34c-64 -3 -150 -9 -216 -14c-1 -59 0 -196 3 -260c75 -4 151 -8 268 -8l2 -39c-234 4 -262 4 -376 0c13 86 16 533 7 585zM147 633c-5 4 -13 17 -14 26
c34 20 65 45 114 80c33 -28 66 -57 100 -78c-3 -8 -9 -21 -15 -26c-38 17 -54 23 -87 34c-33 -9 -69 -22 -98 -36z" />
    <glyph glyph-name="Edieresis" unicode="&#xcb;" horiz-adv-x="439" 
d="M55 583c85 -3 235 -1 349 1l-2 -36c-101 -3 -153 -4 -246 -8c-4 -39 -5 -167 -5 -190c78 -1 138 -1 214 3l2 -34c-64 -3 -150 -9 -216 -14c-1 -59 0 -196 3 -260c75 -4 151 -8 268 -8l2 -39c-234 4 -262 4 -376 0c13 86 16 533 7 585zM172 717c28 0 42 -13 42 -31
c0 -22 -31 -35 -56 -35c-18 0 -35 11 -35 26c0 22 25 40 49 40zM322 717c28 0 41 -13 41 -31c0 -22 -30 -35 -55 -35c-19 0 -35 11 -35 26c0 22 25 40 49 40z" />
    <glyph glyph-name="Igrave" unicode="&#xcc;" horiz-adv-x="205" 
d="M55 583c17 -4 80 -2 101 0c-15 -196 -13 -437 -5 -585c-26 3 -79 5 -103 2c13 133 14 424 7 583zM30 748c37 -25 110 -64 169 -91c-1 -9 -7 -20 -12 -29c-65 20 -114 32 -183 43c9 18 23 58 26 77z" />
    <glyph glyph-name="Iacute" unicode="&#xcd;" horiz-adv-x="205" 
d="M55 583c17 -4 80 -2 101 0c-15 -196 -13 -437 -5 -585c-26 3 -79 5 -103 2c13 133 14 424 7 583zM183 749c2 -18 19 -60 28 -78c-69 -10 -120 -19 -185 -38c-5 9 -10 21 -11 29c59 26 125 58 168 87z" />
    <glyph glyph-name="Icircumflex" unicode="&#xce;" horiz-adv-x="205" 
d="M55 583c17 -4 80 -2 101 0c-15 -196 -13 -437 -5 -585c-26 3 -79 5 -103 2c13 133 14 424 7 583zM10 632c-5 4 -13 17 -14 26c34 20 65 45 114 80c33 -28 66 -57 100 -78c-3 -8 -9 -21 -15 -26c-38 17 -54 23 -87 34c-33 -9 -69 -22 -98 -36z" />
    <glyph glyph-name="Idieresis" unicode="&#xcf;" horiz-adv-x="205" 
d="M35 705c25 0 37 -12 37 -28c0 -19 -27 -32 -50 -32c-17 0 -32 10 -32 24c0 19 23 36 45 36zM170 705c25 0 37 -12 37 -28c0 -19 -27 -32 -51 -32c-16 0 -31 10 -31 24c0 19 23 36 45 36zM55 583c17 -4 80 -2 101 0c-15 -196 -13 -437 -5 -585c-26 3 -79 5 -103 2
c13 133 14 424 7 583z" />
    <glyph glyph-name="Eth" unicode="&#xd0;" horiz-adv-x="571" 
d="M274 582c174 -3 269 -87 269 -203c0 -193 -153 -374 -355 -378c-38 -1 -89 -2 -140 2c8 34 14 160 17 297h-60c-3 8 1 30 3 36c19 -1 39 -1 57 -1c2 88 2 178 -1 248c42 -2 182 -1 210 -1zM159 544c-3 -65 -5 -136 -6 -210c46 0 91 1 136 1c1 -10 -1 -27 -6 -37
c-35 0 -68 1 -130 2c-1 -87 0 -176 3 -257c12 -1 23 -1 37 -1c134 0 253 144 253 293s-69 203 -190 209c-35 2 -74 2 -97 0z" />
    <glyph glyph-name="Ntilde" unicode="&#xd1;" horiz-adv-x="614" 
d="M555 3l-25 -10c-134 164 -350 356 -426 439c-2 -134 18 -390 25 -423c-27 -4 -50 -7 -82 -23c16 111 20 414 16 596c9 4 13 5 25 11c109 -142 290 -289 418 -423c0 172 -6 305 -18 405c21 4 59 12 80 21c-15 -38 -22 -283 -20 -493c0 -27 3 -67 7 -100zM348 637
c-17 0 -54 18 -70 18c-24 0 -42 -7 -65 -22c-7 6 -14 18 -15 26c25 25 75 63 96 63c24 0 53 -18 74 -18c24 0 41 9 62 20c7 -5 14 -17 16 -25c-31 -31 -78 -62 -98 -62z" />
    <glyph glyph-name="Ograve" unicode="&#xd2;" horiz-adv-x="662" 
d="M357 594c154 0 268 -112 269 -279c0 -104 -49 -205 -133 -270c-41 -32 -128 -62 -191 -62c-200 0 -267 167 -267 293c2 83 44 204 146 267c38 23 119 51 176 51zM343 548c-82 0 -211 -62 -211 -270c0 -119 68 -248 188 -248c74 0 210 62 210 281c0 138 -81 237 -187 237z
M262 748c37 -25 110 -64 169 -91c-1 -9 -7 -20 -12 -29c-65 20 -114 32 -183 43c9 18 23 58 26 77z" />
    <glyph glyph-name="Oacute" unicode="&#xd3;" horiz-adv-x="662" 
d="M357 594c154 0 268 -112 269 -279c0 -104 -49 -205 -133 -270c-41 -32 -128 -62 -191 -62c-200 0 -267 167 -267 293c2 83 44 204 146 267c38 23 119 51 176 51zM343 548c-82 0 -211 -62 -211 -270c0 -119 68 -248 188 -248c74 0 210 62 210 281c0 138 -81 237 -187 237z
M425 749c2 -18 19 -60 28 -78c-69 -10 -120 -19 -185 -38c-5 9 -10 21 -11 29c59 26 125 58 168 87z" />
    <glyph glyph-name="Ocircumflex" unicode="&#xd4;" horiz-adv-x="662" 
d="M357 594c154 0 268 -112 269 -279c0 -104 -49 -205 -133 -270c-41 -32 -128 -62 -191 -62c-200 0 -267 167 -267 293c2 83 44 204 146 267c38 23 119 51 176 51zM343 548c-82 0 -211 -62 -211 -270c0 -119 68 -248 188 -248c74 0 210 62 210 281c0 138 -81 237 -187 237z
M253 632c-5 4 -13 17 -14 26c34 20 65 45 114 80c33 -28 66 -57 100 -78c-3 -8 -9 -21 -15 -26c-38 17 -54 23 -87 34c-33 -9 -69 -22 -98 -36z" />
    <glyph glyph-name="Otilde" unicode="&#xd5;" horiz-adv-x="662" 
d="M357 594c154 0 268 -112 269 -279c0 -104 -49 -205 -133 -270c-41 -32 -128 -62 -191 -62c-200 0 -267 167 -267 293c2 83 44 204 146 267c38 23 119 51 176 51zM343 548c-82 0 -211 -62 -211 -270c0 -119 68 -248 188 -248c74 0 210 62 210 281c0 138 -81 237 -187 237z
M378 637c-17 0 -54 18 -70 18c-24 0 -42 -7 -65 -22c-7 6 -14 18 -15 26c25 25 75 63 96 63c24 0 53 -18 74 -18c24 0 41 9 62 20c7 -5 14 -17 16 -25c-31 -31 -78 -62 -98 -62z" />
    <glyph glyph-name="Odieresis" unicode="&#xd6;" horiz-adv-x="662" 
d="M357 594c154 0 268 -112 269 -279c0 -104 -49 -205 -133 -270c-41 -32 -128 -62 -191 -62c-200 0 -267 167 -267 293c2 83 44 204 146 267c38 23 119 51 176 51zM343 548c-82 0 -211 -62 -211 -270c0 -119 68 -248 188 -248c74 0 210 62 210 281c0 138 -81 237 -187 237z
M272 713c28 0 42 -13 42 -31c0 -22 -31 -35 -56 -35c-18 0 -35 11 -35 26c0 22 25 40 49 40zM422 713c28 0 41 -13 41 -31c0 -22 -30 -35 -55 -35c-19 0 -35 11 -35 26c0 22 25 40 49 40z" />
    <glyph glyph-name="multiply" unicode="&#xd7;" 
d="M85 364l128 -135l129 134c9 -8 23 -24 26 -33c-33 -32 -95 -94 -128 -128l132 -131c-7 -9 -20 -25 -29 -33l-132 136c-34 -32 -95 -95 -134 -135c-7 4 -23 26 -26 32c33 30 97 95 133 130l-128 132c4 7 25 28 29 31z" />
    <glyph glyph-name="Oslash" unicode="&#xd8;" horiz-adv-x="662" 
d="M357 594c28 0 56 -4 81 -11l24 51c9 -1 31 -5 40 -11l-26 -55c90 -42 149 -133 150 -253c0 -104 -49 -205 -133 -270c-41 -32 -128 -62 -191 -62c-36 0 -67 5 -95 15l-28 -61c-10 2 -29 6 -40 14l30 63c-98 55 -134 170 -134 262c2 83 44 204 146 267
c38 23 119 51 176 51zM530 311c0 86 -32 158 -82 199l-213 -455c24 -16 53 -25 85 -25c74 0 210 62 210 281zM343 548c-82 0 -211 -62 -211 -270c0 -72 24 -146 69 -195l213 449c-22 11 -46 16 -71 16z" />
    <glyph glyph-name="Ugrave" unicode="&#xd9;" horiz-adv-x="579" 
d="M35 582c37 -2 79 -2 108 2c-6 -130 3 -279 21 -402c16 -105 72 -144 131 -144c104 0 149 85 162 154c20 110 22 302 14 381c28 5 58 15 83 28c-16 -114 -30 -274 -48 -386c-20 -129 -84 -229 -222 -229c-130 0 -192 62 -214 218c-18 133 -18 264 -35 378zM224 748
c37 -25 110 -64 169 -91c-1 -9 -7 -20 -12 -29c-65 20 -114 32 -183 43c9 18 23 58 26 77z" />
    <glyph glyph-name="Uacute" unicode="&#xda;" horiz-adv-x="579" 
d="M35 582c37 -2 79 -2 108 2c-6 -130 3 -279 21 -402c16 -105 72 -144 131 -144c104 0 149 85 162 154c20 110 22 302 14 381c28 5 58 15 83 28c-16 -114 -30 -274 -48 -386c-20 -129 -84 -229 -222 -229c-130 0 -192 62 -214 218c-18 133 -18 264 -35 378zM387 749
c2 -18 19 -60 28 -78c-69 -10 -120 -19 -185 -38c-5 9 -10 21 -11 29c59 26 125 58 168 87z" />
    <glyph glyph-name="Ucircumflex" unicode="&#xdb;" horiz-adv-x="579" 
d="M35 582c37 -2 79 -2 108 2c-6 -130 3 -279 21 -402c16 -105 72 -144 131 -144c104 0 149 85 162 154c20 110 22 302 14 381c28 5 58 15 83 28c-16 -114 -30 -274 -48 -386c-20 -129 -84 -229 -222 -229c-130 0 -192 62 -214 218c-18 133 -18 264 -35 378zM217 632
c-5 4 -13 17 -14 26c34 20 65 45 114 80c33 -28 66 -57 100 -78c-3 -8 -9 -21 -15 -26c-38 17 -54 23 -87 34c-33 -9 -69 -22 -98 -36z" />
    <glyph glyph-name="Udieresis" unicode="&#xdc;" horiz-adv-x="579" 
d="M35 582c37 -2 79 -2 108 2c-6 -130 3 -279 21 -402c16 -105 72 -144 131 -144c104 0 149 85 162 154c20 110 22 302 14 381c28 5 58 15 83 28c-16 -114 -30 -274 -48 -386c-20 -129 -84 -229 -222 -229c-130 0 -192 62 -214 218c-18 133 -18 264 -35 378zM236 717
c28 0 42 -13 42 -31c0 -22 -31 -35 -56 -35c-18 0 -35 11 -35 26c0 22 25 40 49 40zM386 717c28 0 41 -13 41 -31c0 -22 -30 -35 -55 -35c-19 0 -35 11 -35 26c0 22 25 40 49 40z" />
    <glyph glyph-name="Yacute" unicode="&#xdd;" horiz-adv-x="479" 
d="M5 583c49 -4 90 -3 131 0c30 -81 77 -160 128 -233c61 80 108 152 144 227c26 1 56 3 92 11c-96 -108 -136 -162 -224 -287c-3 -140 -1 -229 9 -302c-36 3 -75 4 -105 0c6 63 11 219 6 303c-40 79 -138 231 -181 281zM347 749c2 -18 19 -60 28 -78
c-69 -10 -120 -19 -185 -38c-5 9 -10 21 -11 29c59 26 125 58 168 87z" />
    <glyph glyph-name="Thorn" unicode="&#xde;" horiz-adv-x="469" 
d="M55 583c17 -4 80 -2 101 0c-3 -41 -6 -84 -8 -127c26 1 56 1 88 1c123 0 208 -14 208 -128c0 -66 -62 -133 -231 -178c-4 0 -10 29 -10 32c91 28 144 63 144 146c0 66 -59 91 -115 91c-33 0 -68 -1 -85 -4c-6 -165 -2 -314 4 -418c-26 3 -79 5 -103 2
c13 133 14 424 7 583z" />
    <glyph glyph-name="germandbls" unicode="&#xdf;" horiz-adv-x="446" 
d="M39 390h31c1 24 1 75 2 120c2 71 74 182 170 182c111 0 133 -88 133 -129c0 -35 -14 -82 -51 -135c-24 -35 -36 -59 -35 -91c0 -26 31 -68 52 -93c39 -46 68 -100 68 -130c0 -48 -31 -121 -138 -121c-9 0 -43 0 -52 4c-1 10 1 28 3 35c61 -9 100 24 100 65
c0 31 -37 77 -58 105c-28 37 -49 68 -49 97c0 45 16 72 54 131c18 28 26 67 26 108c0 62 -36 94 -68 94c-26 0 -50 -9 -58 -28c-17 -41 -17 -61 -16 -214c0 -107 2 -338 16 -392c-24 4 -86 3 -108 0c11 121 10 238 10 354h-34c0 10 0 25 2 38z" />
    <glyph glyph-name="agrave" unicode="&#xe0;" horiz-adv-x="392" 
d="M66 368c63 22 120 28 164 28c45 0 108 -14 106 -76c-1 -52 -1 -201 1 -256c1 -16 1 -41 7 -65c-35 3 -57 3 -93 -3c-1 11 -1 31 -1 40c-52 -22 -103 -45 -131 -45c-35 0 -57 3 -78 42c-6 13 -13 61 -10 81c7 54 59 79 101 89c40 10 76 18 118 24c2 23 1 64 -1 83
c-4 35 -51 38 -90 38c-32 0 -72 -10 -87 -14c-4 5 -6 22 -6 34zM174 50c15 0 50 11 75 22c-1 37 0 86 1 119c-36 -7 -59 -11 -84 -20c-39 -14 -51 -53 -48 -79c4 -38 23 -44 56 -42zM127 570c37 -25 110 -64 169 -91c-1 -9 -7 -20 -12 -29c-65 20 -114 32 -183 43
c9 18 23 58 26 77z" />
    <glyph glyph-name="aacute" unicode="&#xe1;" horiz-adv-x="392" 
d="M66 368c63 22 120 28 164 28c45 0 108 -14 106 -76c-1 -52 -1 -201 1 -256c1 -16 1 -41 7 -65c-35 3 -57 3 -93 -3c-1 11 -1 31 -1 40c-52 -22 -103 -45 -131 -45c-35 0 -57 3 -78 42c-6 13 -13 61 -10 81c7 54 59 79 101 89c40 10 76 18 118 24c2 23 1 64 -1 83
c-4 35 -51 38 -90 38c-32 0 -72 -10 -87 -14c-4 5 -6 22 -6 34zM174 50c15 0 50 11 75 22c-1 37 0 86 1 119c-36 -7 -59 -11 -84 -20c-39 -14 -51 -53 -48 -79c4 -38 23 -44 56 -42zM283 570c2 -18 19 -60 28 -78c-69 -10 -120 -19 -185 -38c-5 9 -10 21 -11 29
c59 26 125 58 168 87z" />
    <glyph glyph-name="acircumflex" unicode="&#xe2;" horiz-adv-x="392" 
d="M66 368c63 22 120 28 164 28c45 0 108 -14 106 -76c-1 -52 -1 -201 1 -256c1 -16 1 -41 7 -65c-35 3 -57 3 -93 -3c-1 11 -1 31 -1 40c-52 -22 -103 -45 -131 -45c-35 0 -57 3 -78 42c-6 13 -13 61 -10 81c7 54 59 79 101 89c40 10 76 18 118 24c2 23 1 64 -1 83
c-4 35 -51 38 -90 38c-32 0 -72 -10 -87 -14c-4 5 -6 22 -6 34zM174 50c15 0 50 11 75 22c-1 37 0 86 1 119c-36 -7 -59 -11 -84 -20c-39 -14 -51 -53 -48 -79c4 -38 23 -44 56 -42zM110 452c-5 4 -13 17 -14 26c34 20 65 45 114 80c33 -28 66 -57 100 -78
c-3 -8 -9 -21 -15 -26c-38 17 -54 23 -87 34c-33 -9 -69 -22 -98 -36z" />
    <glyph glyph-name="atilde" unicode="&#xe3;" horiz-adv-x="392" 
d="M66 368c63 22 120 28 164 28c45 0 108 -14 106 -76c-1 -52 -1 -201 1 -256c1 -16 1 -41 7 -65c-35 3 -57 3 -93 -3c-1 11 -1 31 -1 40c-52 -22 -103 -45 -131 -45c-35 0 -57 3 -78 42c-6 13 -13 61 -10 81c7 54 59 79 101 89c40 10 76 18 118 24c2 23 1 64 -1 83
c-4 35 -51 38 -90 38c-32 0 -72 -10 -87 -14c-4 5 -6 22 -6 34zM174 50c15 0 50 11 75 22c-1 37 0 86 1 119c-36 -7 -59 -11 -84 -20c-39 -14 -51 -53 -48 -79c4 -38 23 -44 56 -42zM234 471c-17 0 -54 18 -70 18c-24 0 -42 -7 -65 -22c-7 6 -14 18 -15 26
c25 25 75 63 96 63c24 0 53 -18 74 -18c24 0 41 9 62 20c7 -5 14 -17 16 -25c-31 -31 -78 -62 -98 -62z" />
    <glyph glyph-name="adieresis" unicode="&#xe4;" horiz-adv-x="392" 
d="M66 368c63 22 120 28 164 28c45 0 108 -14 106 -76c-1 -52 -1 -201 1 -256c1 -16 1 -41 7 -65c-35 3 -57 3 -93 -3c-1 11 -1 31 -1 40c-52 -22 -103 -45 -131 -45c-35 0 -57 3 -78 42c-6 13 -13 61 -10 81c7 54 59 79 101 89c40 10 76 18 118 24c2 23 1 64 -1 83
c-4 35 -51 38 -90 38c-32 0 -72 -10 -87 -14c-4 5 -6 22 -6 34zM174 50c15 0 50 11 75 22c-1 37 0 86 1 119c-36 -7 -59 -11 -84 -20c-39 -14 -51 -53 -48 -79c4 -38 23 -44 56 -42zM129 527c28 0 42 -13 42 -31c0 -22 -31 -35 -56 -35c-18 0 -35 11 -35 26
c0 22 25 40 49 40zM279 527c28 0 41 -13 41 -31c0 -22 -30 -35 -55 -35c-19 0 -35 11 -35 26c0 22 25 40 49 40z" />
    <glyph glyph-name="aring" unicode="&#xe5;" horiz-adv-x="392" 
d="M66 368c63 22 120 28 164 28c45 0 108 -14 106 -76c-1 -52 -1 -201 1 -256c1 -16 1 -41 7 -65c-35 3 -57 3 -93 -3c-1 11 -1 31 -1 40c-52 -22 -103 -45 -131 -45c-35 0 -57 3 -78 42c-6 13 -13 61 -10 81c7 54 59 79 101 89c40 10 76 18 118 24c2 23 1 64 -1 83
c-4 35 -51 38 -90 38c-32 0 -72 -10 -87 -14c-4 5 -6 22 -6 34zM174 50c15 0 50 11 75 22c-1 37 0 86 1 119c-36 -7 -59 -11 -84 -20c-39 -14 -51 -53 -48 -79c4 -38 23 -44 56 -42zM208 563c44 0 85 -18 85 -52c0 -47 -59 -72 -105 -71c-44 2 -80 22 -80 56
c0 37 46 67 100 67zM203 536c-26 0 -41 -17 -41 -36c0 -18 12 -31 33 -31c29 0 43 15 43 39c0 16 -16 28 -35 28z" />
    <glyph glyph-name="ae" unicode="&#xe6;" horiz-adv-x="618" 
d="M336 199c-2 -67 18 -165 109 -165c55 0 78 6 128 24c5 -7 10 -23 11 -28c-48 -19 -105 -40 -167 -40c-57 0 -102 21 -131 57c-52 -27 -115 -56 -159 -56c-35 -1 -66 3 -86 42c-7 14 -13 61 -10 81c7 54 59 79 101 89c40 10 78 18 119 24c4 24 3 64 0 83
c-6 35 -53 38 -92 38c-32 0 -72 -10 -87 -14c-4 5 -6 22 -6 34c63 22 120 28 164 28c36 0 85 -9 101 -46c38 33 82 47 114 47c73 0 106 -14 119 -37c17 -28 16 -77 -11 -105c-21 -21 -61 -30 -140 -30c-24 0 -49 1 -73 5c-2 -9 -3 -20 -4 -31zM250 191
c-36 -7 -59 -11 -84 -20c-39 -14 -51 -53 -48 -79c4 -38 23 -44 56 -42c24 1 66 14 94 26c-18 38 -19 76 -18 115zM412 260c25 0 47 5 61 19c14 15 18 45 3 63c-9 10 -24 14 -43 14c-45 0 -80 -51 -86 -90c15 -4 31 -6 65 -6z" />
    <glyph glyph-name="ccedilla" unicode="&#xe7;" horiz-adv-x="387" 
d="M132 -114c14 24 35 72 49 107c-86 3 -146 63 -146 173c0 138 102 229 224 229c25 0 54 -8 75 -17c-3 -9 -8 -25 -15 -32c-11 4 -41 9 -60 9c-65 0 -139 -53 -139 -186c0 -50 27 -132 101 -132c48 0 76 5 124 20c6 -9 9 -22 11 -32c-51 -18 -89 -28 -136 -32
c-9 -18 -18 -40 -24 -61c21 -15 43 -34 43 -73c0 -20 -21 -75 -63 -125c-7 2 -21 10 -26 15c17 28 30 54 30 82c0 17 -16 35 -48 55z" />
    <glyph glyph-name="egrave" unicode="&#xe8;" horiz-adv-x="403" 
d="M36 169c4 157 122 228 195 228c72 0 105 -14 119 -37c16 -28 15 -77 -12 -105c-20 -21 -60 -30 -139 -30c-24 0 -50 1 -74 5c-10 -60 -1 -195 106 -195c51 0 78 7 129 23c5 -7 8 -24 10 -29c-49 -18 -104 -39 -167 -39c-106 0 -170 74 -167 179zM198 260c25 0 47 5 60 19
c15 15 19 45 3 63c-8 10 -23 14 -43 14c-44 0 -79 -51 -85 -90c15 -4 31 -6 65 -6zM133 570c37 -25 110 -64 169 -91c-1 -9 -7 -20 -12 -29c-65 20 -114 32 -183 43c9 18 23 58 26 77z" />
    <glyph glyph-name="eacute" unicode="&#xe9;" horiz-adv-x="403" 
d="M36 169c4 157 122 228 195 228c72 0 105 -14 119 -37c16 -28 15 -77 -12 -105c-20 -21 -60 -30 -139 -30c-24 0 -50 1 -74 5c-10 -60 -1 -195 106 -195c51 0 78 7 129 23c5 -7 8 -24 10 -29c-49 -18 -104 -39 -167 -39c-106 0 -170 74 -167 179zM198 260c25 0 47 5 60 19
c15 15 19 45 3 63c-8 10 -23 14 -43 14c-44 0 -79 -51 -85 -90c15 -4 31 -6 65 -6zM293 570c2 -18 19 -60 28 -78c-69 -10 -120 -19 -185 -38c-5 9 -10 21 -11 29c59 26 125 58 168 87z" />
    <glyph glyph-name="ecircumflex" unicode="&#xea;" horiz-adv-x="403" 
d="M36 169c4 157 122 228 195 228c72 0 105 -14 119 -37c16 -28 15 -77 -12 -105c-20 -21 -60 -30 -139 -30c-24 0 -50 1 -74 5c-10 -60 -1 -195 106 -195c51 0 78 7 129 23c5 -7 8 -24 10 -29c-49 -18 -104 -39 -167 -39c-106 0 -170 74 -167 179zM198 260c25 0 47 5 60 19
c15 15 19 45 3 63c-8 10 -23 14 -43 14c-44 0 -79 -51 -85 -90c15 -4 31 -6 65 -6zM125 452c-5 4 -13 17 -14 26c34 20 65 45 114 80c33 -28 66 -57 100 -78c-3 -8 -9 -21 -15 -26c-38 17 -54 23 -87 34c-33 -9 -69 -22 -98 -36z" />
    <glyph glyph-name="edieresis" unicode="&#xeb;" horiz-adv-x="403" 
d="M36 169c4 157 122 228 195 228c72 0 105 -14 119 -37c16 -28 15 -77 -12 -105c-20 -21 -60 -30 -139 -30c-24 0 -50 1 -74 5c-10 -60 -1 -195 106 -195c51 0 78 7 129 23c5 -7 8 -24 10 -29c-49 -18 -104 -39 -167 -39c-106 0 -170 74 -167 179zM198 260c25 0 47 5 60 19
c15 15 19 45 3 63c-8 10 -23 14 -43 14c-44 0 -79 -51 -85 -90c15 -4 31 -6 65 -6zM145 527c28 0 42 -13 42 -31c0 -22 -31 -35 -56 -35c-18 0 -35 11 -35 26c0 22 25 40 49 40zM295 527c28 0 41 -13 41 -31c0 -22 -30 -35 -55 -35c-19 0 -35 11 -35 26c0 22 25 40 49 40z
" />
    <glyph glyph-name="igrave" unicode="&#xec;" horiz-adv-x="203" 
d="M40 620c27 -38 83 -98 130 -142c-4 -7 -13 -16 -20 -23c-55 40 -98 68 -160 101c15 14 42 47 50 64zM49 0c11 92 10 297 -1 377c29 2 73 10 99 17c-10 -64 -6 -320 8 -396c-26 8 -93 3 -106 2z" />
    <glyph glyph-name="iacute" unicode="&#xed;" horiz-adv-x="203" 
d="M157 611c9 -20 36 -52 50 -67c-64 -30 -108 -53 -166 -90c-7 6 -16 18 -19 25c50 40 105 94 135 132zM49 0c11 92 10 297 -1 377c29 2 73 10 99 17c-10 -64 -6 -320 8 -396c-26 8 -93 3 -106 2z" />
    <glyph glyph-name="icircumflex" unicode="&#xee;" horiz-adv-x="203" 
d="M49 0c11 92 10 297 -1 377c29 2 73 10 99 17c-10 -64 -6 -320 8 -396c-26 8 -93 3 -106 2zM-2 452c-5 4 -13 17 -14 26c34 20 65 45 114 80c33 -28 66 -57 100 -78c-3 -8 -9 -21 -15 -26c-38 17 -54 23 -87 34c-33 -9 -69 -22 -98 -36z" />
    <glyph glyph-name="idieresis" unicode="&#xef;" horiz-adv-x="203" 
d="M32 527c28 0 42 -13 42 -31c0 -22 -31 -35 -56 -35c-18 0 -35 11 -35 26c0 22 25 40 49 40zM176 527c28 0 42 -13 42 -31c0 -22 -31 -35 -56 -35c-18 0 -35 11 -35 26c0 22 25 40 49 40zM49 0c11 92 10 297 -1 377c29 2 73 10 99 17c-10 -64 -6 -320 8 -396
c-26 8 -93 3 -106 2z" />
    <glyph glyph-name="eth" unicode="&#xf0;" horiz-adv-x="494" 
d="M87 519c52 17 124 41 189 64c-55 55 -129 69 -197 66c-4 12 -3 32 0 38c106 5 195 -26 259 -83c29 11 55 20 74 28c4 -10 10 -31 9 -41c-17 -6 -35 -12 -52 -17c53 -61 82 -143 82 -237c0 -121 -22 -223 -88 -286c-27 -27 -96 -63 -153 -63c-139 0 -183 113 -176 202
c11 150 126 206 221 204c35 0 73 -6 104 -15c-8 76 -29 132 -58 173c-66 -21 -133 -44 -204 -71c-5 6 -11 33 -10 38zM228 39c102 0 147 150 132 296c-34 10 -90 14 -100 13c-69 -5 -134 -43 -138 -162c-3 -92 47 -147 106 -147z" />
    <glyph glyph-name="ntilde" unicode="&#xf1;" horiz-adv-x="484" 
d="M50 387c23 2 71 6 101 14c-4 -17 -5 -29 -5 -42c40 18 98 38 124 38c79 0 141 -45 149 -148c13 -188 17 -226 20 -251c-29 4 -69 6 -101 0c7 49 -2 205 -4 229c-11 95 -46 114 -92 114c-25 0 -72 -9 -96 -17c-5 -76 -2 -194 5 -326c-28 4 -72 7 -103 0
c13 122 9 297 2 389zM280 471c-17 0 -54 18 -70 18c-24 0 -42 -7 -65 -22c-7 6 -14 18 -15 26c25 25 75 63 96 63c24 0 53 -18 74 -18c24 0 41 9 62 20c7 -5 14 -17 16 -25c-31 -31 -78 -62 -98 -62z" />
    <glyph glyph-name="ograve" unicode="&#xf2;" horiz-adv-x="466" 
d="M244 391c125 0 185 -84 185 -190c0 -53 -23 -127 -71 -165c-26 -20 -100 -46 -145 -46c-124 0 -179 107 -177 183c0 70 33 138 77 171c26 20 97 47 131 47zM233 344c-37 0 -109 -29 -109 -163c0 -64 30 -144 104 -144c73 0 117 56 113 163c-3 107 -65 144 -108 144z
M162 570c37 -25 110 -64 169 -91c-1 -9 -7 -20 -12 -29c-65 20 -114 32 -183 43c9 18 23 58 26 77z" />
    <glyph glyph-name="oacute" unicode="&#xf3;" horiz-adv-x="466" 
d="M244 391c125 0 185 -84 185 -190c0 -53 -23 -127 -71 -165c-26 -20 -100 -46 -145 -46c-124 0 -179 107 -177 183c0 70 33 138 77 171c26 20 97 47 131 47zM233 344c-37 0 -109 -29 -109 -163c0 -64 30 -144 104 -144c73 0 117 56 113 163c-3 107 -65 144 -108 144z
M325 570c2 -18 19 -60 28 -78c-69 -10 -120 -19 -185 -38c-5 9 -10 21 -11 29c59 26 125 58 168 87z" />
    <glyph glyph-name="ocircumflex" unicode="&#xf4;" horiz-adv-x="466" 
d="M244 391c125 0 185 -84 185 -190c0 -53 -23 -127 -71 -165c-26 -20 -100 -46 -145 -46c-124 0 -179 107 -177 183c0 70 33 138 77 171c26 20 97 47 131 47zM233 344c-37 0 -109 -29 -109 -163c0 -64 30 -144 104 -144c73 0 117 56 113 163c-3 107 -65 144 -108 144z
M148 452c-5 4 -13 17 -14 26c34 20 65 45 114 80c33 -28 66 -57 100 -78c-3 -8 -9 -21 -15 -26c-38 17 -54 23 -87 34c-33 -9 -69 -22 -98 -36z" />
    <glyph glyph-name="otilde" unicode="&#xf5;" horiz-adv-x="466" 
d="M244 391c125 0 185 -84 185 -190c0 -53 -23 -127 -71 -165c-26 -20 -100 -46 -145 -46c-124 0 -179 107 -177 183c0 70 33 138 77 171c26 20 97 47 131 47zM233 344c-37 0 -109 -29 -109 -163c0 -64 30 -144 104 -144c73 0 117 56 113 163c-3 107 -65 144 -108 144z
M276 471c-17 0 -54 18 -70 18c-24 0 -42 -7 -65 -22c-7 6 -14 18 -15 26c25 25 75 63 96 63c24 0 53 -18 74 -18c24 0 41 9 62 20c7 -5 14 -17 16 -25c-31 -31 -78 -62 -98 -62z" />
    <glyph glyph-name="odieresis" unicode="&#xf6;" horiz-adv-x="466" 
d="M244 391c125 0 185 -84 185 -190c0 -53 -23 -127 -71 -165c-26 -20 -100 -46 -145 -46c-124 0 -179 107 -177 183c0 70 33 138 77 171c26 20 97 47 131 47zM233 344c-37 0 -109 -29 -109 -163c0 -64 30 -144 104 -144c73 0 117 56 113 163c-3 107 -65 144 -108 144z
M166 527c28 0 42 -13 42 -31c0 -22 -31 -35 -56 -35c-18 0 -35 11 -35 26c0 22 25 40 49 40zM316 527c28 0 41 -13 41 -31c0 -22 -30 -35 -55 -35c-19 0 -35 11 -35 26c0 22 25 40 49 40z" />
    <glyph glyph-name="divide" unicode="&#xf7;" horiz-adv-x="388" 
d="M37 226c100 -3 240 -3 315 -2c1 -11 0 -33 -5 -43c-96 3 -188 3 -313 3c-3 8 0 36 3 42zM199 363c29 0 44 -13 44 -32c0 -23 -34 -37 -60 -37c-20 0 -37 11 -37 27c0 22 28 42 53 42zM199 114c29 0 44 -13 44 -32c0 -23 -34 -37 -60 -37c-20 0 -37 11 -37 27
c0 22 28 42 53 42z" />
    <glyph glyph-name="oslash" unicode="&#xf8;" horiz-adv-x="466" 
d="M240 391c21 0 40 -3 58 -7l23 52c9 -1 29 -8 34 -12l-24 -52c63 -31 94 -95 94 -171c0 -53 -23 -127 -71 -165c-26 -20 -100 -46 -146 -46c-18 0 -35 3 -50 7l-23 -51c-11 2 -25 5 -36 12c9 18 18 36 25 52c-64 35 -94 107 -92 163c0 70 33 138 77 171
c26 20 97 47 131 47zM337 200c-2 50 -16 85 -35 108l-121 -261c13 -7 27 -10 43 -10c73 0 117 56 113 163zM228 344c-36 0 -108 -29 -108 -163c0 -37 10 -81 34 -110c46 95 77 162 121 259c-16 10 -32 14 -47 14z" />
    <glyph glyph-name="ugrave" unicode="&#xf9;" horiz-adv-x="471" 
d="M164 570c37 -25 110 -64 169 -91c-1 -9 -7 -20 -12 -29c-65 20 -114 32 -183 43c9 18 23 58 26 77zM146 397c-8 -69 -12 -131 -12 -201c2 -98 17 -140 75 -140c37 0 77 10 114 20c5 38 5 238 -5 307c18 -1 74 7 101 13c-12 -89 -9 -353 4 -391c-29 0 -65 -5 -96 -10
c-3 16 -3 27 -3 41c-47 -20 -111 -43 -174 -43c-85 0 -101 63 -101 161c0 102 -1 198 -5 231c30 1 78 5 102 12z" />
    <glyph glyph-name="uacute" unicode="&#xfa;" horiz-adv-x="471" 
d="M146 397c-8 -69 -12 -131 -12 -201c2 -98 17 -140 75 -140c37 0 77 10 114 20c5 38 5 238 -5 307c18 -1 74 7 101 13c-12 -89 -9 -353 4 -391c-29 0 -65 -5 -96 -10c-3 16 -3 27 -3 41c-47 -20 -111 -43 -174 -43c-85 0 -101 63 -101 161c0 102 -1 198 -5 231
c30 1 78 5 102 12zM324 570c2 -18 19 -60 28 -78c-69 -10 -120 -19 -185 -38c-5 9 -10 21 -11 29c59 26 125 58 168 87z" />
    <glyph glyph-name="ucircumflex" unicode="&#xfb;" horiz-adv-x="471" 
d="M146 397c-8 -69 -12 -131 -12 -201c2 -98 17 -140 75 -140c37 0 77 10 114 20c5 38 5 238 -5 307c18 -1 74 7 101 13c-12 -89 -9 -353 4 -391c-29 0 -65 -5 -96 -10c-3 16 -3 27 -3 41c-47 -20 -111 -43 -174 -43c-85 0 -101 63 -101 161c0 102 -1 198 -5 231
c30 1 78 5 102 12zM144 452c-5 4 -13 17 -14 26c34 20 65 45 114 80c33 -28 66 -57 100 -78c-3 -8 -9 -21 -15 -26c-38 17 -54 23 -87 34c-33 -9 -69 -22 -98 -36z" />
    <glyph glyph-name="udieresis" unicode="&#xfc;" horiz-adv-x="471" 
d="M146 397c-8 -69 -12 -131 -12 -201c2 -98 17 -140 75 -140c37 0 77 10 114 20c5 38 5 238 -5 307c18 -1 74 7 101 13c-12 -89 -9 -353 4 -391c-29 0 -65 -5 -96 -10c-3 16 -3 27 -3 41c-47 -20 -111 -43 -174 -43c-85 0 -101 63 -101 161c0 102 -1 198 -5 231
c30 1 78 5 102 12zM162 527c28 0 42 -13 42 -31c0 -22 -31 -35 -56 -35c-18 0 -35 11 -35 26c0 22 25 40 49 40zM312 527c28 0 41 -13 41 -31c0 -22 -30 -35 -55 -35c-19 0 -35 11 -35 26c0 22 25 40 49 40z" />
    <glyph glyph-name="yacute" unicode="&#xfd;" horiz-adv-x="470" 
d="M467 395l3 -5c-68 -106 -137 -245 -193 -363c-32 -70 -35 -79 -68 -155c-32 -76 -60 -115 -183 -157c-7 10 -12 20 -11 30c99 62 144 123 199 243c-43 104 -142 318 -207 403c33 -8 102 -4 125 -1c6 -30 94 -238 133 -291c50 101 104 232 109 286c20 -1 58 2 93 10z
M338 570c2 -18 19 -60 28 -78c-69 -10 -120 -19 -185 -38c-5 9 -10 21 -11 29c59 26 125 58 168 87z" />
    <glyph glyph-name="thorn" unicode="&#xfe;" horiz-adv-x="459" 
d="M42 672c28 2 76 15 105 28c-6 -69 -9 -196 -10 -333c36 15 75 29 115 29c125 -1 172 -76 170 -173c-5 -137 -108 -231 -228 -231c-25 0 -38 3 -59 8c3 -136 6 -217 20 -266c-29 0 -98 -8 -118 -11c19 265 26 724 5 949zM136 40c18 -5 36 -7 57 -7c60 0 137 42 137 188
c0 72 -30 127 -103 127c-24 0 -62 -7 -90 -18c-4 -71 -1 -248 -1 -290z" />
    <glyph glyph-name="ydieresis" unicode="&#xff;" horiz-adv-x="470" 
d="M467 395l3 -5c-68 -106 -137 -245 -193 -363c-32 -70 -35 -79 -68 -155c-32 -76 -60 -115 -183 -157c-7 10 -12 20 -11 30c99 62 144 123 199 243c-43 104 -142 318 -207 403c33 -8 102 -4 125 -1c6 -30 94 -238 133 -291c50 101 104 232 109 286c20 -1 58 2 93 10z
M181 527c28 0 42 -13 42 -31c0 -22 -31 -35 -56 -35c-18 0 -35 11 -35 26c0 22 25 40 49 40zM331 527c28 0 41 -13 41 -31c0 -22 -30 -35 -55 -35c-19 0 -35 11 -35 26c0 22 25 40 49 40z" />
    <glyph glyph-name="Amacron" unicode="&#x100;" horiz-adv-x="514" 
d="M325 217c-53 -2 -129 -9 -176 -15c-39 -95 -53 -136 -67 -198c-20 1 -65 -5 -90 -11c85 144 149 288 218 448c32 72 41 102 51 147c11 5 19 7 31 10c68 -233 134 -426 205 -600c-42 5 -93 3 -116 0c-11 61 -29 130 -56 219zM254 457l-88 -211c54 -1 101 2 149 6
c-16 58 -30 98 -43 141c-6 17 -13 42 -18 64zM166 693c101 -2 158 -2 233 -1c0 -11 -1 -31 -6 -41c-97 2 -105 3 -230 2c-3 8 1 35 3 40z" />
    <glyph glyph-name="amacron" unicode="&#x101;" horiz-adv-x="392" 
d="M66 368c63 22 120 28 164 28c45 0 108 -14 106 -76c-1 -52 -1 -201 1 -256c1 -16 1 -41 7 -65c-35 3 -57 3 -93 -3c-1 11 -1 31 -1 40c-52 -22 -103 -45 -131 -45c-35 0 -57 3 -78 42c-6 13 -13 61 -10 81c7 54 59 79 101 89c40 10 76 18 118 24c2 23 1 64 -1 83
c-4 35 -51 38 -90 38c-32 0 -72 -10 -87 -14c-4 5 -6 22 -6 34zM174 50c15 0 50 11 75 22c-1 37 0 86 1 119c-36 -7 -59 -11 -84 -20c-39 -14 -51 -53 -48 -79c4 -38 23 -44 56 -42zM88 506c101 -2 158 -2 233 -1c0 -11 -1 -31 -6 -41c-97 2 -105 3 -230 2c-3 8 1 35 3 40z
" />
    <glyph glyph-name="Abreve" unicode="&#x102;" horiz-adv-x="514" 
d="M325 217c-53 -2 -129 -9 -176 -15c-39 -95 -53 -136 -67 -198c-20 1 -65 -5 -90 -11c85 144 149 288 218 448c32 72 41 102 51 147c11 5 19 7 31 10c68 -233 134 -426 205 -600c-42 5 -93 3 -116 0c-11 61 -29 130 -56 219zM254 457l-88 -211c54 -1 101 2 149 6
c-16 58 -30 98 -43 141c-6 17 -13 42 -18 64zM376 741c6 -2 18 -2 23 -7c-13 -60 -68 -106 -120 -106c-57 0 -96 48 -107 106c4 4 19 6 24 7c18 -31 46 -50 86 -50c37 0 74 19 94 50z" />
    <glyph glyph-name="abreve" unicode="&#x103;" horiz-adv-x="392" 
d="M66 368c63 22 120 28 164 28c45 0 108 -14 106 -76c-1 -52 -1 -201 1 -256c1 -16 1 -41 7 -65c-35 3 -57 3 -93 -3c-1 11 -1 31 -1 40c-52 -22 -103 -45 -131 -45c-35 0 -57 3 -78 42c-6 13 -13 61 -10 81c7 54 59 79 101 89c40 10 76 18 118 24c2 23 1 64 -1 83
c-4 35 -51 38 -90 38c-32 0 -72 -10 -87 -14c-4 5 -6 22 -6 34zM174 50c15 0 50 11 75 22c-1 37 0 86 1 119c-36 -7 -59 -11 -84 -20c-39 -14 -51 -53 -48 -79c4 -38 23 -44 56 -42zM292 555c6 -2 18 -2 23 -7c-13 -60 -68 -106 -120 -106c-57 0 -96 48 -107 106
c4 4 19 6 24 7c18 -31 46 -50 86 -50c37 0 74 19 94 50z" />
    <glyph glyph-name="Aogonek" unicode="&#x104;" horiz-adv-x="514" 
d="M478 -97c2 -7 4 -24 4 -30c-28 -9 -68 -17 -97 -17c-49 0 -58 29 -58 52c0 28 25 65 54 93c-12 60 -29 128 -56 216c-53 -2 -129 -9 -176 -15c-39 -95 -53 -136 -67 -198c-20 1 -65 -5 -90 -11c85 144 149 288 218 448c32 72 41 102 51 147c11 5 19 7 31 10
c68 -233 134 -426 205 -600c-26 3 -55 4 -79 3c-12 -18 -19 -45 -19 -65c0 -28 14 -38 34 -38c15 0 36 3 45 5zM254 457l-88 -211c54 -1 101 2 149 6c-16 58 -30 98 -43 141c-6 17 -13 42 -18 64z" />
    <glyph glyph-name="aogonek" unicode="&#x105;" horiz-adv-x="392" 
d="M353 -97c3 -7 4 -24 4 -30c-28 -9 -68 -17 -96 -17c-49 0 -59 29 -59 52c0 26 23 61 49 88c-1 11 -1 31 -1 40c-52 -22 -103 -45 -131 -45c-35 0 -57 3 -78 42c-6 13 -13 61 -10 81c7 54 59 79 101 89c40 10 76 18 118 24c2 23 1 64 -1 83c-4 35 -51 38 -90 38
c-32 0 -72 -10 -87 -14c-4 5 -6 22 -6 34c63 22 120 28 164 28c45 0 108 -14 106 -76c-1 -52 -1 -201 1 -256c1 -16 1 -41 7 -65c-19 1 -34 2 -50 2c-13 -18 -19 -45 -19 -65c0 -28 14 -38 34 -38c15 0 35 3 44 5zM174 50c15 0 50 11 75 22c-1 37 0 86 1 119
c-36 -7 -59 -11 -84 -20c-39 -14 -51 -53 -48 -79c4 -38 23 -44 56 -42z" />
    <glyph glyph-name="Cacute" unicode="&#x106;" horiz-adv-x="548" 
d="M295 -14c-187 3 -262 138 -262 259c0 177 125 350 339 350c30 0 94 -16 124 -36c-2 -9 -11 -24 -17 -29c-34 15 -81 23 -111 23c-167 0 -240 -153 -240 -302c0 -123 73 -208 192 -209c49 -1 120 11 180 43c9 -8 15 -22 17 -31c-55 -31 -155 -68 -222 -68zM398 749
c2 -18 19 -60 28 -78c-69 -10 -120 -19 -185 -38c-5 9 -10 21 -11 29c59 26 125 58 168 87z" />
    <glyph glyph-name="cacute" unicode="&#x107;" horiz-adv-x="387" 
d="M334 378c-3 -9 -8 -25 -15 -32c-11 4 -41 9 -60 9c-65 0 -139 -53 -139 -186c0 -50 27 -132 101 -132c48 0 76 5 124 20c6 -9 9 -22 11 -32c-61 -22 -104 -32 -167 -32c-91 0 -154 60 -154 173c0 138 102 229 224 229c25 0 54 -8 75 -17zM290 570c2 -18 19 -60 28 -78
c-69 -10 -120 -19 -185 -38c-5 9 -10 21 -11 29c59 26 125 58 168 87z" />
    <glyph glyph-name="Ccircumflex" unicode="&#x108;" horiz-adv-x="548" 
d="M295 -14c-187 3 -262 138 -262 259c0 177 125 350 339 350c30 0 94 -16 124 -36c-2 -9 -11 -24 -17 -29c-34 15 -81 23 -111 23c-167 0 -240 -153 -240 -302c0 -123 73 -208 192 -209c49 -1 120 11 180 43c9 -8 15 -22 17 -31c-55 -31 -155 -68 -222 -68zM234 631
c-5 4 -13 17 -14 26c34 20 65 45 114 80c33 -28 66 -57 100 -78c-3 -8 -9 -21 -15 -26c-38 17 -54 23 -87 34c-33 -9 -69 -22 -98 -36z" />
    <glyph glyph-name="ccircumflex" unicode="&#x109;" horiz-adv-x="387" 
d="M334 378c-3 -9 -8 -25 -15 -32c-11 4 -41 9 -60 9c-65 0 -139 -53 -139 -186c0 -50 27 -132 101 -132c48 0 76 5 124 20c6 -9 9 -22 11 -32c-61 -22 -104 -32 -167 -32c-91 0 -154 60 -154 173c0 138 102 229 224 229c25 0 54 -8 75 -17zM122 452c-5 4 -13 17 -14 26
c34 20 65 45 114 80c33 -28 66 -57 100 -78c-3 -8 -9 -21 -15 -26c-38 17 -54 23 -87 34c-33 -9 -69 -22 -98 -36z" />
    <glyph glyph-name="Cdotaccent" unicode="&#x10a;" horiz-adv-x="548" 
d="M295 -14c-187 3 -262 138 -262 259c0 177 125 350 339 350c30 0 94 -16 124 -36c-2 -9 -11 -24 -17 -29c-34 15 -81 23 -111 23c-167 0 -240 -153 -240 -302c0 -123 73 -208 192 -209c49 -1 120 11 180 43c9 -8 15 -22 17 -31c-55 -31 -155 -68 -222 -68zM342 718
c33 0 40 -20 40 -31c0 -19 -25 -41 -56 -41c-23 0 -40 10 -40 33c0 17 20 39 56 39z" />
    <glyph glyph-name="cdotaccent" unicode="&#x10b;" horiz-adv-x="387" 
d="M334 378c-3 -9 -8 -25 -15 -32c-11 4 -41 9 -60 9c-65 0 -139 -53 -139 -186c0 -50 27 -132 101 -132c48 0 76 5 124 20c6 -9 9 -22 11 -32c-61 -22 -104 -32 -167 -32c-91 0 -154 60 -154 173c0 138 102 229 224 229c25 0 54 -8 75 -17zM227 531c33 0 40 -20 40 -31
c0 -19 -25 -41 -56 -41c-23 0 -40 10 -40 33c0 17 20 39 56 39z" />
    <glyph glyph-name="Ccaron" unicode="&#x10c;" horiz-adv-x="548" 
d="M295 -14c-187 3 -262 138 -262 259c0 177 125 350 339 350c30 0 94 -16 124 -36c-2 -9 -11 -24 -17 -29c-34 15 -81 23 -111 23c-167 0 -240 -153 -240 -302c0 -123 73 -208 192 -209c49 -1 120 11 180 43c9 -8 15 -22 17 -31c-55 -31 -155 -68 -222 -68zM418 728
c4 -4 12 -17 13 -26c-33 -20 -64 -45 -114 -80c-33 28 -65 56 -99 78c2 7 8 20 14 26c38 -17 55 -24 87 -34c33 9 70 22 99 36z" />
    <glyph glyph-name="ccaron" unicode="&#x10d;" horiz-adv-x="387" 
d="M334 378l-3 -8c0 -2 -1 -3 -1 -4s-1 -1 -1 -2s-1 -3 -2 -4l-2 -6c-2 -2 -3 -4 -4 -6l-2 -2h-1c-1 0 -2 1 -2 1c-1 0 -2 0 -3 1c-2 0 -5 1 -7 1l-8 2c-2 0 -5 1 -8 1c-1 0 -2 1 -3 1c-3 0 -6 0 -9 1c-7 0 -14 1 -19 1h-5c-12 -1 -23 -3 -35 -7c-1 0 -3 -1 -5 -2
c-3 -1 -6 -2 -9 -4c-5 -2 -10 -5 -14 -8l-9 -6l-9 -8c-3 -2 -6 -5 -8 -8l-4 -5l-8 -10c-6 -8 -11 -18 -16 -29c-2 -5 -3 -10 -5 -14c-5 -17 -9 -36 -11 -57c-1 -3 -1 -6 -1 -9v-19c0 -5 0 -11 1 -16c1 -10 2 -20 5 -30l3 -9c1 -5 3 -9 5 -13c4 -10 10 -20 16 -29
c6 -7 12 -14 20 -19c6 -5 13 -8 21 -11c7 -3 15 -5 24 -5h6h26l24 2l15 3l14 2l12 3l33 10c2 -4 4 -7 5 -11c1 -1 1 -2 1 -3c1 0 1 -1 1 -2l3 -13c0 -1 1 -2 1 -2v-1c-12 -5 -24 -9 -35 -12l-8 -3l-36 -9c-3 0 -5 -1 -8 -1c-2 0 -5 -1 -8 -1l-16 -3c-5 0 -11 -1 -16 -1
c-13 -1 -26 -2 -40 -2s-27 2 -39 4c-6 2 -13 3 -18 5c-19 6 -36 17 -50 31c-2 1 -3 2 -4 4c-11 11 -20 26 -27 42l-3 6c-4 10 -7 22 -9 34c-1 2 -1 4 -1 7c-2 10 -3 20 -3 31v9c0 10 0 20 1 30c8 65 39 118 84 153c23 17 49 30 77 38c17 4 35 7 53 8h9h7c2 0 4 -1 6 -1h4
c2 0 3 -1 4 -1c2 0 4 0 6 -1c8 -1 16 -3 23 -5l9 -3l13 -5c1 0 2 -1 3 -1zM314 552c4 -4 12 -17 13 -26c-33 -20 -64 -45 -114 -80c-33 28 -65 56 -99 78c2 7 8 20 14 26c38 -17 55 -24 87 -34c33 9 70 22 99 36z" />
    <glyph glyph-name="Dcaron" unicode="&#x10e;" horiz-adv-x="571" 
d="M274 582c174 -3 269 -87 269 -203c0 -193 -153 -374 -355 -378c-38 -1 -89 -2 -140 2c14 58 23 392 16 580c42 -2 182 -1 210 -1zM159 544c-7 -150 -8 -340 -3 -501c12 -1 23 -1 37 -1c134 0 253 144 253 293s-69 203 -190 209c-35 2 -74 2 -97 0zM371 728
c4 -4 12 -17 13 -26c-33 -20 -64 -45 -114 -80c-33 28 -65 56 -99 78c2 7 8 20 14 26c38 -17 55 -24 87 -34c33 9 70 22 99 36z" />
    <glyph glyph-name="dcaron" unicode="&#x10f;" horiz-adv-x="473" 
d="M512 700c25 0 44 -23 44 -63c0 -43 -39 -124 -72 -191c-8 2 -25 8 -32 13c22 52 25 89 25 125c0 29 -16 45 -16 71c0 22 21 45 51 45zM240 396c40 0 60 -11 88 -16c1 78 -5 249 -15 292c45 4 79 10 114 26c-16 -68 -23 -557 0 -650c-60 -23 -148 -60 -216 -60
c-109 0 -179 54 -174 180c5 133 89 228 203 228zM237 353c-50 -1 -112 -65 -113 -187c-2 -99 53 -134 99 -134c40 0 77 13 101 24c4 85 4 222 3 284c-27 8 -47 14 -90 13z" />
    <glyph glyph-name="Dcroat" unicode="&#x110;" horiz-adv-x="571" 
d="M274 582c174 -3 269 -87 269 -203c0 -193 -153 -374 -355 -378c-38 -1 -89 -2 -140 2c8 34 14 160 17 297h-60c-3 8 1 30 3 36c19 -1 39 -1 57 -1c2 88 2 178 -1 248c42 -2 182 -1 210 -1zM159 544c-3 -65 -5 -136 -6 -210c46 0 91 1 136 1c1 -10 -1 -27 -6 -37
c-35 0 -68 1 -130 2c-1 -87 0 -176 3 -257c12 -1 23 -1 37 -1c134 0 253 144 253 293s-69 203 -190 209c-35 2 -74 2 -97 0z" />
    <glyph glyph-name="dcroat" unicode="&#x111;" horiz-adv-x="473" 
d="M240 396c40 0 60 -11 88 -16c0 32 0 80 -2 129h-135c-3 8 1 33 3 39c47 -1 90 -2 130 -2c-2 55 -6 105 -11 126c45 4 79 10 114 26c-5 -20 -9 -78 -11 -152h35c1 -10 -1 -30 -6 -40c-11 0 -21 1 -31 1c-4 -171 -2 -399 13 -459c-60 -23 -148 -60 -216 -60
c-109 0 -179 54 -174 180c5 133 89 228 203 228zM237 353c-50 -1 -112 -65 -113 -187c-2 -99 53 -134 99 -134c40 0 77 13 101 24c4 85 4 222 3 284c-27 8 -47 14 -90 13z" />
    <glyph glyph-name="Emacron" unicode="&#x112;" horiz-adv-x="439" 
d="M55 583c85 -3 235 -1 349 1l-2 -36c-101 -3 -153 -4 -246 -8c-4 -39 -5 -167 -5 -190c78 -1 138 -1 214 3l2 -34c-64 -3 -150 -9 -216 -14c-1 -59 0 -196 3 -260c75 -4 151 -8 268 -8l2 -39c-234 4 -262 4 -376 0c13 86 16 533 7 585zM122 693c101 -2 158 -2 233 -1
c0 -11 -1 -31 -6 -41c-97 2 -105 3 -230 2c-3 8 1 35 3 40z" />
    <glyph glyph-name="emacron" unicode="&#x113;" horiz-adv-x="403" 
d="M36 169c4 157 122 228 195 228c72 0 105 -14 119 -37c16 -28 15 -77 -12 -105c-20 -21 -60 -30 -139 -30c-24 0 -50 1 -74 5c-10 -60 -1 -195 106 -195c51 0 78 7 129 23c5 -7 8 -24 10 -29c-49 -18 -104 -39 -167 -39c-106 0 -170 74 -167 179zM198 260c25 0 47 5 60 19
c15 15 19 45 3 63c-8 10 -23 14 -43 14c-44 0 -79 -51 -85 -90c15 -4 31 -6 65 -6zM103 506c101 -2 158 -2 233 -1c0 -11 -1 -31 -6 -41c-97 2 -105 3 -230 2c-3 8 1 35 3 40z" />
    <glyph glyph-name="Ebreve" unicode="&#x114;" horiz-adv-x="439" 
d="M55 583c85 -3 235 -1 349 1l-2 -36c-101 -3 -153 -4 -246 -8c-4 -39 -5 -167 -5 -190c78 -1 138 -1 214 3l2 -34c-64 -3 -150 -9 -216 -14c-1 -59 0 -196 3 -260c75 -4 151 -8 268 -8l2 -39c-234 4 -262 4 -376 0c13 86 16 533 7 585zM326 739c6 -2 18 -2 23 -7
c-13 -60 -68 -106 -120 -106c-57 0 -96 48 -107 106c4 4 19 6 24 7c18 -31 46 -50 86 -50c37 0 74 19 94 50z" />
    <glyph glyph-name="ebreve" unicode="&#x115;" horiz-adv-x="403" 
d="M36 169c4 157 122 228 195 228c72 0 105 -14 119 -37c16 -28 15 -77 -12 -105c-20 -21 -60 -30 -139 -30c-24 0 -50 1 -74 5c-10 -60 -1 -195 106 -195c51 0 78 7 129 23c5 -7 8 -24 10 -29c-49 -18 -104 -39 -167 -39c-106 0 -170 74 -167 179zM198 260c25 0 47 5 60 19
c15 15 19 45 3 63c-8 10 -23 14 -43 14c-44 0 -79 -51 -85 -90c15 -4 31 -6 65 -6zM313 555c6 -2 18 -2 23 -7c-13 -60 -68 -106 -120 -106c-57 0 -96 48 -107 106c4 4 19 6 24 7c18 -31 46 -50 86 -50c37 0 74 19 94 50z" />
    <glyph glyph-name="Edotaccent" unicode="&#x116;" horiz-adv-x="439" 
d="M55 583c85 -3 235 -1 349 1l-2 -36c-101 -3 -153 -4 -246 -8c-4 -39 -5 -167 -5 -190c78 -1 138 -1 214 3l2 -34c-64 -3 -150 -9 -216 -14c-1 -59 0 -196 3 -260c75 -4 151 -8 268 -8l2 -39c-234 4 -262 4 -376 0c13 86 16 533 7 585zM244 712c33 0 40 -20 40 -31
c0 -19 -25 -41 -56 -41c-23 0 -40 10 -40 33c0 17 20 39 56 39z" />
    <glyph glyph-name="edotaccent" unicode="&#x117;" horiz-adv-x="403" 
d="M36 169c4 157 122 228 195 228c72 0 105 -14 119 -37c16 -28 15 -77 -12 -105c-20 -21 -60 -30 -139 -30c-24 0 -50 1 -74 5c-10 -60 -1 -195 106 -195c51 0 78 7 129 23c5 -7 8 -24 10 -29c-49 -18 -104 -39 -167 -39c-106 0 -170 74 -167 179zM198 260c25 0 47 5 60 19
c15 15 19 45 3 63c-8 10 -23 14 -43 14c-44 0 -79 -51 -85 -90c15 -4 31 -6 65 -6zM227 531c33 0 40 -20 40 -31c0 -19 -25 -41 -56 -41c-23 0 -40 10 -40 33c0 17 20 39 56 39z" />
    <glyph glyph-name="Eogonek" unicode="&#x118;" horiz-adv-x="439" 
d="M413 -97c3 -7 4 -24 4 -30c-28 -9 -68 -17 -96 -17c-49 0 -59 29 -59 52c0 27 26 65 53 92c-137 1 -174 1 -267 -2c13 86 16 533 7 585c85 -3 235 -1 349 1l-2 -36c-101 -3 -153 -4 -246 -8c-4 -39 -5 -167 -5 -190c78 -1 138 -1 214 3l2 -34c-64 -3 -150 -9 -216 -14
c-1 -59 0 -196 3 -260c75 -4 151 -8 268 -8l2 -39l-71 2c-12 -19 -18 -44 -18 -64c0 -28 14 -38 34 -38c15 0 35 3 44 5z" />
    <glyph glyph-name="eogonek" unicode="&#x119;" horiz-adv-x="403" 
d="M345 -96c2 -7 4 -23 4 -30c-29 -8 -69 -17 -97 -17c-49 0 -58 29 -58 53s20 56 44 82c-12 -1 -23 -2 -35 -2c-106 0 -170 74 -167 179c4 157 122 228 195 228c72 0 105 -14 119 -37c16 -28 15 -77 -12 -105c-20 -21 -60 -30 -139 -30c-24 0 -50 1 -74 5
c-10 -60 -1 -195 106 -195c51 0 78 7 129 23c5 -7 8 -24 10 -29c-27 -10 -55 -21 -86 -28c-12 -18 -18 -44 -18 -64c0 -27 14 -38 34 -38c15 0 35 3 45 5zM198 260c25 0 47 5 60 19c15 15 19 45 3 63c-8 10 -23 14 -43 14c-44 0 -79 -51 -85 -90c15 -4 31 -6 65 -6z" />
    <glyph glyph-name="Ecaron" unicode="&#x11a;" horiz-adv-x="439" 
d="M55 583c85 -3 235 -1 349 1l-2 -36c-101 -3 -153 -4 -246 -8c-4 -39 -5 -167 -5 -190c78 -1 138 -1 214 3l2 -34c-64 -3 -150 -9 -216 -14c-1 -59 0 -196 3 -260c75 -4 151 -8 268 -8l2 -39c-234 4 -262 4 -376 0c13 86 16 533 7 585zM333 728c4 -4 12 -17 13 -26
c-33 -20 -64 -45 -114 -80c-33 28 -65 56 -99 78c2 7 8 20 14 26c38 -17 55 -24 87 -34c33 9 70 22 99 36z" />
    <glyph glyph-name="ecaron" unicode="&#x11b;" horiz-adv-x="403" 
d="M36 169c4 157 122 228 195 228c72 0 105 -14 119 -37c16 -28 15 -77 -12 -105c-20 -21 -60 -30 -139 -30c-24 0 -50 1 -74 5c-10 -60 -1 -195 106 -195c51 0 78 7 129 23c5 -7 8 -24 10 -29c-49 -18 -104 -39 -167 -39c-106 0 -170 74 -167 179zM198 260c25 0 47 5 60 19
c15 15 19 45 3 63c-8 10 -23 14 -43 14c-44 0 -79 -51 -85 -90c15 -4 31 -6 65 -6zM317 548c4 -4 12 -17 13 -26c-33 -20 -64 -45 -114 -80c-33 28 -65 56 -99 78c2 7 8 20 14 26c38 -17 55 -24 87 -34c33 9 70 22 99 36z" />
    <glyph glyph-name="Gcircumflex" unicode="&#x11c;" horiz-adv-x="618" 
d="M514 531c-35 13 -95 22 -134 22c-124 0 -248 -98 -248 -303c0 -130 88 -217 188 -217c69 0 103 12 149 26c6 112 5 171 -3 282c31 0 74 4 103 9c-8 -69 -16 -252 -4 -298c-102 -50 -176 -66 -267 -66c-158 0 -263 124 -263 255c0 210 166 354 348 354
c30 0 109 -10 145 -32c-3 -8 -8 -26 -14 -32zM262 632c-5 4 -13 17 -14 26c34 20 65 45 114 80c33 -28 66 -57 100 -78c-3 -8 -9 -21 -15 -26c-38 17 -54 23 -87 34c-33 -9 -69 -22 -98 -36z" />
    <glyph glyph-name="gcircumflex" unicode="&#x11d;" horiz-adv-x="413" 
d="M208 394c41 0 90 -8 106 -19c23 5 45 14 63 22c8 -7 13 -15 15 -25c-21 -11 -38 -20 -53 -30c3 -6 7 -17 7 -28c0 -74 -88 -110 -158 -113c-29 -53 33 -87 86 -121c120 -75 131 -123 131 -181c0 -98 -125 -168 -222 -168c-173 0 -175 113 -175 132c0 69 42 136 131 217
c-35 41 -20 78 13 121c-77 8 -115 37 -117 84c-1 65 85 109 173 109zM162 53c-48 -49 -75 -112 -75 -166c0 -49 36 -108 109 -108c84 0 130 47 130 92c0 65 -52 108 -100 137c-27 17 -46 29 -64 45zM193 361c-32 0 -69 -26 -68 -73c0 -19 17 -51 62 -51c38 0 70 28 69 67
c0 31 -23 57 -63 57zM100 452c-5 4 -13 17 -14 26c34 20 65 45 114 80c33 -28 66 -57 100 -78c-3 -8 -9 -21 -15 -26c-38 17 -54 23 -87 34c-33 -9 -69 -22 -98 -36z" />
    <glyph glyph-name="Gbreve" unicode="&#x11e;" horiz-adv-x="618" 
d="M514 531c-35 13 -95 22 -134 22c-124 0 -248 -98 -248 -303c0 -130 88 -217 188 -217c69 0 103 12 149 26c6 112 5 171 -3 282c31 0 74 4 103 9c-8 -69 -16 -252 -4 -298c-102 -50 -176 -66 -267 -66c-158 0 -263 124 -263 255c0 210 166 354 348 354
c30 0 109 -10 145 -32c-3 -8 -8 -26 -14 -32zM448 743c6 -2 18 -2 23 -7c-13 -60 -68 -106 -120 -106c-57 0 -96 48 -107 106c4 4 19 6 24 7c18 -31 46 -50 86 -50c37 0 74 19 94 50z" />
    <glyph glyph-name="gbreve" unicode="&#x11f;" horiz-adv-x="413" 
d="M208 394c41 0 90 -8 106 -19c23 5 45 14 63 22c8 -7 13 -15 15 -25c-21 -11 -38 -20 -53 -30c3 -6 7 -17 7 -28c0 -74 -88 -110 -158 -113c-29 -53 33 -87 86 -121c120 -75 131 -123 131 -181c0 -98 -125 -168 -222 -168c-173 0 -175 113 -175 132c0 69 42 136 131 217
c-35 41 -20 78 13 121c-77 8 -115 37 -117 84c-1 65 85 109 173 109zM162 53c-48 -49 -75 -112 -75 -166c0 -49 36 -108 109 -108c84 0 130 47 130 92c0 65 -52 108 -100 137c-27 17 -46 29 -64 45zM193 361c-32 0 -69 -26 -68 -73c0 -19 17 -51 62 -51c38 0 70 28 69 67
c0 31 -23 57 -63 57zM288 555c6 -2 18 -2 23 -7c-13 -60 -68 -106 -120 -106c-57 0 -96 48 -107 106c4 4 19 6 24 7c18 -31 46 -50 86 -50c37 0 74 19 94 50z" />
    <glyph glyph-name="Gdotaccent" unicode="&#x120;" horiz-adv-x="618" 
d="M514 531c-35 13 -95 22 -134 22c-124 0 -248 -98 -248 -303c0 -130 88 -217 188 -217c69 0 103 12 149 26c6 112 5 171 -3 282c31 0 74 4 103 9c-8 -69 -16 -252 -4 -298c-102 -50 -176 -66 -267 -66c-158 0 -263 124 -263 255c0 210 166 354 348 354
c30 0 109 -10 145 -32c-3 -8 -8 -26 -14 -32zM367 718c33 0 40 -20 40 -31c0 -19 -25 -41 -56 -41c-23 0 -40 10 -40 33c0 17 20 39 56 39z" />
    <glyph glyph-name="gdotaccent" unicode="&#x121;" horiz-adv-x="413" 
d="M208 394c41 0 90 -8 106 -19c23 5 45 14 63 22c8 -7 13 -15 15 -25c-21 -11 -38 -20 -53 -30c3 -6 7 -17 7 -28c0 -74 -88 -110 -158 -113c-29 -53 33 -87 86 -121c120 -75 131 -123 131 -181c0 -98 -125 -168 -222 -168c-173 0 -175 113 -175 132c0 69 42 136 131 217
c-35 41 -20 78 13 121c-77 8 -115 37 -117 84c-1 65 85 109 173 109zM162 53c-48 -49 -75 -112 -75 -166c0 -49 36 -108 109 -108c84 0 130 47 130 92c0 65 -52 108 -100 137c-27 17 -46 29 -64 45zM193 361c-32 0 -69 -26 -68 -73c0 -19 17 -51 62 -51c38 0 70 28 69 67
c0 31 -23 57 -63 57zM203 531c33 0 40 -20 40 -31c0 -19 -25 -41 -56 -41c-23 0 -40 10 -40 33c0 17 20 39 56 39z" />
    <glyph glyph-name="Gcommaaccent" unicode="&#x122;" horiz-adv-x="618" 
d="M311 -43c18 0 42 -15 42 -54s-43 -118 -76 -174c-9 2 -19 7 -26 13c22 47 29 75 29 107c0 25 -14 40 -14 64s21 44 45 44zM514 531c-35 13 -95 22 -134 22c-124 0 -248 -98 -248 -303c0 -130 88 -217 188 -217c69 0 103 12 149 26c6 112 5 171 -3 282c31 0 74 4 103 9
c-8 -69 -16 -252 -4 -298c-102 -50 -176 -66 -267 -66c-158 0 -263 124 -263 255c0 210 166 354 348 354c30 0 109 -10 145 -32c-3 -8 -8 -26 -14 -32z" />
    <glyph glyph-name="gcommaaccent" unicode="&#x123;" horiz-adv-x="413" 
d="M191 425c-18 0 -42 14 -42 54c0 39 43 117 76 174c9 -2 20 -8 26 -13c-22 -48 -28 -75 -28 -108c0 -24 14 -40 14 -63c0 -24 -21 -44 -46 -44zM208 394c41 0 90 -8 106 -19c23 5 45 14 63 22c8 -7 13 -15 15 -25c-21 -11 -38 -20 -53 -30c3 -6 7 -17 7 -28
c0 -74 -88 -110 -158 -113c-29 -53 33 -87 86 -121c120 -75 131 -123 131 -181c0 -98 -125 -168 -222 -168c-173 0 -175 113 -175 132c0 69 42 136 131 217c-35 41 -20 78 13 121c-77 8 -115 37 -117 84c-1 65 85 109 173 109zM162 53c-48 -49 -75 -112 -75 -166
c0 -49 36 -108 109 -108c84 0 130 47 130 92c0 65 -52 108 -100 137c-27 17 -46 29 -64 45zM193 361c-32 0 -69 -26 -68 -73c0 -19 17 -51 62 -51c38 0 70 28 69 67c0 31 -23 57 -63 57z" />
    <glyph glyph-name="Hcircumflex" unicode="&#x124;" horiz-adv-x="621" 
d="M59 583c18 -1 82 -3 104 0c-8 -76 -11 -193 -11 -244c76 1 239 6 321 14c1 76 1 180 -4 230c26 -3 79 -4 104 0c-15 -127 -15 -437 -5 -585c-18 1 -83 3 -104 0c7 71 7 248 9 317c-47 -1 -259 -19 -322 -25c-2 -59 -5 -228 0 -292c-25 3 -79 5 -103 2
c14 117 19 424 11 583zM226 632c-5 4 -13 17 -14 26c34 20 65 45 114 80c33 -28 66 -57 100 -78c-3 -8 -9 -21 -15 -26c-38 17 -54 23 -87 34c-33 -9 -69 -22 -98 -36z" />
    <glyph glyph-name="hcircumflex" unicode="&#x125;" horiz-adv-x="487" 
d="M52 672c34 5 83 14 118 30c-18 -78 -23 -263 -22 -338c41 17 88 33 127 33c94 0 134 -30 148 -129c5 -35 12 -234 20 -269c-36 2 -73 5 -103 -1c10 68 2 212 -5 261c-6 50 -26 87 -78 88c-43 1 -81 -13 -109 -23c0 -91 1 -214 7 -326c-28 4 -48 6 -107 0
c16 104 19 531 4 674zM29 725c-5 4 -13 17 -14 26c34 20 65 45 114 80c33 -28 66 -57 100 -78c-3 -8 -9 -21 -15 -26c-38 17 -54 23 -87 34c-33 -9 -69 -22 -98 -36z" />
    <glyph glyph-name="Hbar" unicode="&#x126;" horiz-adv-x="621" 
d="M59 583c18 -1 82 -3 104 0c-3 -31 -6 -67 -7 -104c112 -1 206 -2 317 -1c-1 41 -2 80 -4 105c26 -3 79 -4 104 0c-4 -28 -6 -64 -8 -104h43c1 -11 -1 -28 -6 -38h-39c-4 -146 -2 -337 5 -443c-18 1 -83 3 -104 0c7 71 7 248 9 317c-47 -1 -259 -19 -322 -25
c-2 -59 -5 -228 0 -292c-25 3 -79 5 -103 2c11 88 16 284 14 443h-39c-3 9 1 32 3 38c12 -1 24 -1 36 -1zM473 442c-112 1 -207 2 -319 2c-1 -42 -2 -81 -2 -105c76 1 239 6 321 14v89z" />
    <glyph glyph-name="hbar" unicode="&#x127;" horiz-adv-x="487" 
d="M52 672c34 5 83 14 118 30c-9 -37 -14 -99 -18 -161h120c1 -10 -1 -29 -6 -39c-47 1 -80 2 -115 2c-2 -55 -3 -108 -3 -140c41 17 88 33 127 33c94 0 134 -30 148 -129c5 -35 12 -234 20 -269c-36 2 -73 5 -103 -1c10 68 2 212 -5 261c-6 50 -26 87 -78 88
c-43 1 -81 -13 -109 -23c0 -91 1 -214 7 -326c-28 4 -48 6 -107 0c12 76 16 323 12 507c-16 0 -32 -1 -52 -1c-3 9 1 33 4 39l47 -1c-2 53 -4 98 -7 130z" />
    <glyph glyph-name="Itilde" unicode="&#x128;" horiz-adv-x="205" 
d="M55 583c17 -4 80 -2 101 0c-15 -196 -13 -437 -5 -585c-26 3 -79 5 -103 2c13 133 14 424 7 583zM142 637c-17 0 -54 18 -70 18c-24 0 -42 -7 -65 -22c-7 6 -14 18 -15 26c25 25 75 63 96 63c24 0 53 -18 74 -18c24 0 41 9 62 20c7 -5 14 -17 16 -25
c-31 -31 -78 -62 -98 -62z" />
    <glyph glyph-name="itilde" unicode="&#x129;" horiz-adv-x="203" 
d="M49 0c11 92 10 297 -1 377c29 2 73 10 99 17c-10 -64 -6 -320 8 -396c-26 8 -93 3 -106 2zM135 471c-17 0 -54 18 -70 18c-24 0 -42 -7 -65 -22c-7 6 -14 18 -15 26c25 25 75 63 96 63c24 0 53 -18 74 -18c24 0 41 9 62 20c7 -5 14 -17 16 -25c-31 -31 -78 -62 -98 -62z
" />
    <glyph glyph-name="Imacron" unicode="&#x12a;" horiz-adv-x="205" 
d="M19 685c67 -3 124 -3 182 -2c1 -11 1 -26 -4 -36c-62 2 -120 3 -181 2c-4 9 1 30 3 36zM55 583c17 -4 80 -2 101 0c-15 -196 -13 -437 -5 -585c-26 3 -79 5 -103 2c13 133 14 424 7 583z" />
    <glyph glyph-name="imacron" unicode="&#x12b;" horiz-adv-x="203" 
d="M9 498c67 -3 127 -3 185 -2c1 -11 1 -26 -4 -36c-62 2 -123 3 -185 2c-3 9 1 30 4 36zM49 0c11 92 10 297 -1 377c29 2 73 10 99 17c-10 -64 -6 -320 8 -396c-26 8 -93 3 -106 2z" />
    <glyph glyph-name="Ibreve" unicode="&#x12c;" horiz-adv-x="205" 
d="M55 583c17 -4 80 -2 101 0c-15 -196 -13 -437 -5 -585c-26 3 -79 5 -103 2c13 133 14 424 7 583zM201 739c6 -2 18 -2 23 -7c-13 -60 -68 -106 -120 -106c-57 0 -96 48 -107 106c4 4 19 6 24 7c18 -31 46 -50 86 -50c37 0 74 19 94 50z" />
    <glyph glyph-name="ibreve" unicode="&#x12d;" horiz-adv-x="203" 
d="M49 0c11 92 10 297 -1 377c29 2 73 10 99 17c-10 -64 -6 -320 8 -396c-26 8 -93 3 -106 2zM195 555c6 -2 18 -2 23 -7c-13 -60 -68 -106 -120 -106c-57 0 -96 48 -107 106c4 4 19 6 24 7c18 -31 46 -50 86 -50c37 0 74 19 94 50z" />
    <glyph glyph-name="Iogonek" unicode="&#x12e;" horiz-adv-x="205" 
d="M55 583c17 -4 80 -2 101 0c-15 -196 -13 -437 -5 -585c-17 2 -43 3 -67 4c-7 -18 -10 -39 -10 -62c0 -29 27 -40 46 -40c16 0 41 2 54 4c2 -6 4 -24 4 -31c-29 -8 -64 -17 -99 -17c-49 0 -73 29 -73 52c0 38 17 67 42 93c13 133 14 423 7 582z" />
    <glyph glyph-name="iogonek" unicode="&#x12f;" horiz-adv-x="203" 
d="M174 -96c2 -6 4 -24 4 -31c-29 -8 -64 -17 -99 -17c-49 0 -73 29 -73 52c0 38 17 68 43 94c11 92 10 295 -1 375c29 2 73 10 99 17c-10 -64 -6 -320 8 -396c-16 5 -46 4 -71 4c-7 -18 -10 -39 -10 -62c0 -29 27 -40 46 -40c16 0 41 2 54 4zM109 591c36 0 44 -22 44 -33
c0 -20 -27 -43 -60 -43c-25 0 -42 10 -42 34c0 18 21 42 58 42z" />
    <glyph glyph-name="Idotaccent" unicode="&#x130;" horiz-adv-x="205" 
d="M118 719c36 0 43 -22 43 -34c0 -19 -27 -43 -59 -43c-25 0 -43 11 -43 35c0 18 20 42 59 42zM55 583c17 -4 80 -2 101 0c-15 -196 -13 -437 -5 -585c-26 3 -79 5 -103 2c13 133 14 424 7 583z" />
    <glyph glyph-name="dotlessi" unicode="&#x131;" horiz-adv-x="203" 
d="M49 0c11 92 10 297 -1 377c29 2 73 10 99 17c-10 -64 -6 -320 8 -396c-26 8 -93 3 -106 2z" />
    <glyph glyph-name="IJ" unicode="&#x132;" horiz-adv-x="419" 
d="M55 583c17 -4 80 -2 101 0c-15 -196 -13 -437 -5 -585c-26 3 -79 5 -103 2c13 133 14 424 7 583zM272 583c17 -4 77 -2 99 0c-12 -142 -10 -288 -10 -433c0 -153 -15 -215 -69 -298c-39 -58 -137 -118 -231 -78c3 11 7 24 13 35c20 -5 33 -6 57 -6c35 0 141 25 144 330
c1 121 1 340 -3 450z" />
    <glyph glyph-name="ij" unicode="&#x133;" horiz-adv-x="406" 
d="M109 591c36 0 44 -22 44 -33c0 -20 -27 -43 -60 -43c-25 0 -42 10 -42 34c0 18 21 42 58 42zM49 0c11 92 10 297 -1 377c29 2 73 10 99 17c-10 -64 -6 -320 8 -396c-26 8 -93 3 -106 2zM344 45c0 -145 -21 -204 -83 -272c-35 -39 -97 -54 -140 -40c0 9 0 25 2 34
c118 0 134 133 136 213c4 106 2 338 -8 403c23 1 68 6 98 16c-4 -136 -5 -263 -5 -354zM311 593c36 0 44 -22 44 -34c0 -19 -27 -43 -60 -43c-25 0 -42 11 -42 35c0 17 21 42 58 42z" />
    <glyph glyph-name="Jcircumflex" unicode="&#x134;" horiz-adv-x="214" 
d="M67 583c17 -4 77 -2 99 0c-12 -142 -10 -288 -10 -433c0 -153 -15 -215 -69 -298c-39 -58 -137 -118 -231 -78c3 11 7 24 13 35c20 -5 33 -6 57 -6c35 0 141 25 144 330c1 121 1 340 -3 450zM20 632c-5 4 -13 17 -14 26c34 20 65 45 114 80c33 -28 66 -57 100 -78
c-3 -8 -9 -21 -15 -26c-38 17 -54 23 -87 34c-33 -9 -69 -22 -98 -36z" />
    <glyph glyph-name="jcircumflex" unicode="&#x135;" horiz-adv-x="204" 
d="M142 45c0 -145 -21 -204 -83 -272c-35 -39 -97 -54 -140 -40c0 9 0 25 2 34c118 0 134 133 136 213c4 106 2 338 -8 403c23 1 68 6 98 16c-4 -136 -5 -263 -5 -354zM4 452c-5 4 -13 17 -14 26c34 20 65 45 114 80c33 -28 66 -57 100 -78c-3 -8 -9 -21 -15 -26
c-38 17 -54 23 -87 34c-33 -9 -69 -22 -98 -36z" />
    <glyph glyph-name="Kcommaaccent" unicode="&#x136;" horiz-adv-x="588" 
d="M285 -37c18 0 42 -15 42 -55c0 -39 -43 -117 -76 -174c-9 3 -20 8 -26 13c22 48 28 76 28 108c0 25 -14 40 -14 64s22 44 46 44zM156 583c-5 -66 -8 -141 -8 -193c115 50 296 141 401 211c-15 -34 -25 -72 -32 -98c-62 -24 -153 -62 -190 -80c73 -137 177 -321 257 -424
c-41 3 -102 4 -135 -1c-54 124 -148 292 -207 392c-37 -15 -49 -20 -96 -43c-3 -132 0 -256 5 -349c-26 3 -79 5 -103 2c13 133 14 424 7 583c17 -4 80 -2 101 0z" />
    <glyph glyph-name="kcommaaccent" unicode="&#x137;" horiz-adv-x="483" 
d="M246 -37c19 0 42 -15 42 -55c0 -39 -42 -117 -75 -174c-9 3 -20 8 -27 13c23 48 29 76 29 108c0 25 -14 40 -14 64s21 44 45 44zM55 -3c12 93 7 608 -7 674c23 2 81 13 110 23c-16 -129 -12 -251 -8 -422c93 32 203 83 302 132c-10 -20 -23 -61 -25 -79
c-51 -12 -94 -24 -146 -44c30 -63 173 -257 198 -282c-33 5 -101 3 -124 -3c-26 47 -112 188 -156 253c-20 -6 -32 -11 -48 -17c-1 -68 5 -164 11 -234c-34 4 -65 5 -107 -1z" />
    <glyph glyph-name="kgreenlandic" unicode="&#x138;" horiz-adv-x="483" 
d="M48 377c29 2 73 10 99 17c-3 -18 -6 -50 -6 -122c94 32 205 83 304 132c-11 -20 -23 -61 -26 -79c-50 -12 -93 -24 -145 -44c30 -63 173 -257 197 -282c-32 5 -100 3 -123 -3c-26 47 -112 188 -156 253c-21 -6 -33 -11 -50 -17c-1 -68 7 -164 13 -234
c-34 4 -66 5 -107 -1c5 74 12 264 0 380z" />
    <glyph glyph-name="Lacute" unicode="&#x139;" horiz-adv-x="419" 
d="M57 583c18 -4 79 -2 100 0c-11 -173 -12 -360 -7 -536c75 -10 145 -14 262 -16l-4 -33c-235 3 -246 3 -360 0c12 106 17 453 9 585zM221 749c2 -18 19 -60 28 -78c-69 -10 -120 -19 -185 -38c-5 9 -10 21 -11 29c59 26 125 58 168 87z" />
    <glyph glyph-name="lacute" unicode="&#x13a;" horiz-adv-x="209" 
d="M54 -3c12 93 8 609 -6 675c28 2 76 15 105 28c-17 -176 -7 -637 8 -702c-34 4 -65 5 -107 -1zM173 831c2 -18 19 -60 28 -78c-69 -10 -120 -19 -185 -38c-5 9 -10 21 -11 29c59 26 125 58 168 87z" />
    <glyph glyph-name="Lcommaaccent" unicode="&#x13b;" horiz-adv-x="419" 
d="M234 -37c18 0 42 -15 42 -55c0 -39 -43 -117 -76 -174c-9 3 -19 8 -26 13c22 48 29 76 29 108c0 25 -14 40 -14 64s21 44 45 44zM57 583c18 -4 79 -2 100 0c-11 -173 -12 -360 -7 -536c75 -10 145 -14 262 -16l-4 -33c-235 3 -246 3 -360 0c12 106 17 453 9 585z" />
    <glyph glyph-name="lcommaaccent" unicode="&#x13c;" horiz-adv-x="209" 
d="M107 -37c18 0 42 -15 42 -55c0 -39 -43 -117 -76 -174c-8 3 -19 8 -26 13c22 48 29 76 29 108c0 25 -14 40 -14 64s21 44 45 44zM54 -3c12 93 8 609 -6 675c28 2 76 15 105 28c-17 -176 -7 -637 8 -702c-34 4 -65 5 -107 -1z" />
    <glyph glyph-name="Lcaron" unicode="&#x13d;" horiz-adv-x="419" 
d="M57 583c18 -4 79 -2 100 0c-11 -173 -12 -360 -7 -536c75 -10 145 -14 262 -16l-4 -33c-235 3 -246 3 -360 0c12 106 17 453 9 585zM326 595c22 0 46 -18 46 -67c0 -48 -51 -145 -92 -215c-9 4 -19 10 -28 16c29 59 39 98 39 138c0 30 -17 49 -17 78s25 50 52 50z" />
    <glyph glyph-name="lcaron" unicode="&#x13e;" horiz-adv-x="209" 
d="M241 700c25 0 43 -23 43 -63c0 -43 -38 -124 -71 -191c-9 2 -25 8 -32 13c21 52 25 89 25 125c0 29 -16 45 -16 71c0 22 21 45 51 45zM54 -3c12 93 8 609 -6 675c28 2 76 15 105 28c-17 -176 -7 -637 8 -702c-34 4 -65 5 -107 -1z" />
    <glyph glyph-name="Ldot" unicode="&#x13f;" horiz-adv-x="419" 
d="M57 583c18 -4 79 -2 100 0c-11 -173 -12 -360 -7 -536c75 -10 145 -14 262 -16l-4 -33c-235 3 -246 3 -360 0c12 106 17 453 9 585zM323 338c40 0 48 -25 48 -38c0 -15 -18 -47 -67 -47c-26 0 -46 13 -46 39c0 19 23 46 65 46z" />
    <glyph glyph-name="ldot" unicode="&#x140;" horiz-adv-x="312" 
d="M54 -3c12 93 8 609 -6 675c28 2 76 15 105 28c-17 -176 -7 -637 8 -702c-34 4 -65 5 -107 -1zM265 338c40 0 48 -25 48 -38c0 -15 -18 -47 -67 -47c-26 0 -46 13 -46 39c0 19 23 46 65 46z" />
    <glyph glyph-name="Lslash" unicode="&#x141;" horiz-adv-x="419" 
d="M57 583c18 -4 79 -2 100 0c-6 -89 -9 -182 -10 -275c60 22 119 44 150 57c4 -8 9 -28 8 -37l-158 -58c-1 -75 1 -150 3 -223c75 -10 145 -14 262 -16l-4 -33c-235 3 -246 3 -360 0c5 46 9 139 11 240l-40 -15c-4 5 -8 31 -8 36l49 17c2 118 1 240 -3 307z" />
    <glyph glyph-name="lslash" unicode="&#x142;" horiz-adv-x="209" 
d="M54 -3c5 39 7 154 7 279c-14 -10 -28 -20 -40 -30c-5 4 -14 27 -15 32l55 38c-1 158 -6 321 -13 356c28 2 76 15 105 28c-7 -75 -9 -199 -9 -323l45 34c6 -7 13 -25 14 -34l-58 -40c1 -157 8 -304 16 -339c-34 4 -65 5 -107 -1z" />
    <glyph glyph-name="Nacute" unicode="&#x143;" horiz-adv-x="614" 
d="M555 3l-25 -10c-134 164 -350 356 -426 439c-2 -134 18 -390 25 -423c-27 -4 -50 -7 -82 -23c16 111 20 414 16 596c9 4 13 5 25 11c109 -142 290 -289 418 -423c0 172 -6 305 -18 405c21 4 59 12 80 21c-15 -38 -22 -283 -20 -493c0 -27 3 -67 7 -100zM387 749
c2 -18 19 -60 28 -78c-69 -10 -120 -19 -185 -38c-5 9 -10 21 -11 29c59 26 125 58 168 87z" />
    <glyph glyph-name="nacute" unicode="&#x144;" horiz-adv-x="484" 
d="M50 387c23 2 71 6 101 14c-4 -17 -5 -29 -5 -42c40 18 98 38 124 38c79 0 141 -45 149 -148c13 -188 17 -226 20 -251c-29 4 -69 6 -101 0c7 49 -2 205 -4 229c-11 95 -46 114 -92 114c-25 0 -72 -9 -96 -17c-5 -76 -2 -194 5 -326c-28 4 -72 7 -103 0
c13 122 9 297 2 389zM318 571c2 -18 19 -60 28 -78c-69 -10 -120 -19 -185 -38c-5 9 -10 21 -11 29c59 26 125 58 168 87z" />
    <glyph glyph-name="Ncommaaccent" unicode="&#x145;" horiz-adv-x="614" 
d="M308 -37c18 0 42 -15 42 -55c0 -39 -43 -117 -76 -174c-9 3 -20 8 -26 13c22 48 28 76 28 108c0 25 -14 40 -14 64s21 44 46 44zM555 3l-25 -10c-134 164 -350 356 -426 439c-2 -134 18 -390 25 -423c-27 -4 -50 -7 -82 -23c16 111 20 414 16 596c9 4 13 5 25 11
c109 -142 290 -289 418 -423c0 172 -6 305 -18 405c21 4 59 12 80 21c-15 -38 -22 -283 -20 -493c0 -27 3 -67 7 -100z" />
    <glyph glyph-name="ncommaaccent" unicode="&#x146;" horiz-adv-x="484" 
d="M241 -37c18 0 42 -15 42 -55c0 -39 -43 -117 -76 -174c-9 3 -20 8 -26 13c22 48 28 76 28 108c0 25 -14 40 -14 64s21 44 46 44zM50 387c23 2 71 6 101 14c-4 -17 -5 -29 -5 -42c40 18 98 38 124 38c79 0 141 -45 149 -148c13 -188 17 -226 20 -251c-29 4 -69 6 -101 0
c7 49 -2 205 -4 229c-11 95 -46 114 -92 114c-25 0 -72 -9 -96 -17c-5 -76 -2 -194 5 -326c-28 4 -72 7 -103 0c13 122 9 297 2 389z" />
    <glyph glyph-name="Ncaron" unicode="&#x147;" horiz-adv-x="614" 
d="M555 3l-25 -10c-134 164 -350 356 -426 439c-2 -134 18 -390 25 -423c-27 -4 -50 -7 -82 -23c16 111 20 414 16 596c9 4 13 5 25 11c109 -142 290 -289 418 -423c0 172 -6 305 -18 405c21 4 59 12 80 21c-15 -38 -22 -283 -20 -493c0 -27 3 -67 7 -100zM412 728
c4 -4 12 -17 13 -26c-33 -20 -64 -45 -114 -80c-33 28 -65 56 -99 78c2 7 8 20 14 26c38 -17 55 -24 87 -34c33 9 70 22 99 36z" />
    <glyph glyph-name="ncaron" unicode="&#x148;" horiz-adv-x="484" 
d="M50 387c23 2 71 6 101 14c-4 -17 -5 -29 -5 -42c40 18 98 38 124 38c79 0 141 -45 149 -148c13 -188 17 -226 20 -251c-29 4 -69 6 -101 0c7 49 -2 205 -4 229c-11 95 -46 114 -92 114c-25 0 -72 -9 -96 -17c-5 -76 -2 -194 5 -326c-28 4 -72 7 -103 0
c13 122 9 297 2 389zM342 552c4 -4 12 -17 13 -26c-33 -20 -64 -45 -114 -80c-33 28 -65 56 -99 78c2 7 8 20 14 26c38 -17 55 -24 87 -34c33 9 70 22 99 36z" />
    <glyph glyph-name="napostrophe" unicode="&#x149;" horiz-adv-x="638" 
d="M114 595c22 0 47 -18 47 -66c0 -49 -52 -145 -93 -215c-9 3 -19 9 -27 16c28 59 38 97 38 137c0 31 -17 49 -17 78c0 30 25 50 52 50zM204 387c23 2 71 6 101 14c-4 -17 -5 -29 -5 -42c40 18 98 38 124 38c79 0 141 -45 149 -148c13 -188 17 -226 20 -251
c-29 4 -69 6 -101 0c7 49 -2 205 -4 229c-11 95 -46 114 -92 114c-25 0 -72 -9 -96 -17c-5 -76 -2 -194 5 -326c-28 4 -72 7 -103 0c13 122 9 297 2 389z" />
    <glyph glyph-name="Eng" unicode="&#x14a;" horiz-adv-x="578" 
d="M50 583c23 -3 68 -4 98 1c-2 -11 -3 -26 -3 -39c56 24 139 50 195 50c150 0 190 -44 191 -195c1 -77 2 -154 -1 -250c-4 -153 -15 -215 -70 -298c-38 -58 -136 -118 -230 -78c2 11 6 26 13 37c19 -5 32 -7 57 -7c83 0 138 93 144 329c2 105 1 189 -2 268
c-3 83 -5 135 -134 135c-42 0 -112 -14 -163 -34c-4 -85 -1 -375 6 -504c-28 4 -72 7 -103 0c13 122 9 494 2 585z" />
    <glyph glyph-name="eng" unicode="&#x14b;" horiz-adv-x="453" 
d="M334 227c-9 94 -46 114 -92 114c-25 0 -72 -9 -96 -17c-5 -76 -2 -194 5 -326c-28 4 -72 7 -103 0c13 122 9 297 2 389c23 2 71 6 101 14c-4 -17 -5 -29 -5 -42c40 18 98 38 124 38c79 0 140 -45 147 -148c7 -98 4 -157 2 -204c-8 -145 -22 -204 -84 -272
c-35 -39 -97 -54 -140 -40c0 9 0 25 3 34c110 -12 131 133 136 213c3 59 7 164 0 247z" />
    <glyph glyph-name="Omacron" unicode="&#x14c;" horiz-adv-x="662" 
d="M357 594c154 0 268 -112 269 -279c0 -104 -49 -205 -133 -270c-41 -32 -128 -62 -191 -62c-200 0 -267 167 -267 293c2 83 44 204 146 267c38 23 119 51 176 51zM343 548c-82 0 -211 -62 -211 -270c0 -119 68 -248 188 -248c74 0 210 62 210 281c0 138 -81 237 -187 237z
M230 693c101 -2 158 -2 233 -1c0 -11 -1 -31 -6 -41c-97 2 -105 3 -230 2c-3 8 1 35 3 40z" />
    <glyph glyph-name="omacron" unicode="&#x14d;" horiz-adv-x="466" 
d="M244 391c125 0 185 -84 185 -190c0 -53 -23 -127 -71 -165c-26 -20 -100 -46 -145 -46c-124 0 -179 107 -177 183c0 70 33 138 77 171c26 20 97 47 131 47zM233 344c-37 0 -109 -29 -109 -163c0 -64 30 -144 104 -144c73 0 117 56 113 163c-3 107 -65 144 -108 144z
M123 506c101 -2 158 -2 233 -1c0 -11 -1 -31 -6 -41c-97 2 -105 3 -230 2c-3 8 1 35 3 40z" />
    <glyph glyph-name="Obreve" unicode="&#x14e;" horiz-adv-x="662" 
d="M357 594c154 0 268 -112 269 -279c0 -104 -49 -205 -133 -270c-41 -32 -128 -62 -191 -62c-200 0 -267 167 -267 293c2 83 44 204 146 267c38 23 119 51 176 51zM343 548c-82 0 -211 -62 -211 -270c0 -119 68 -248 188 -248c74 0 210 62 210 281c0 138 -81 237 -187 237z
M437 743c6 -2 18 -2 23 -7c-13 -60 -68 -106 -120 -106c-57 0 -96 48 -107 106c4 4 19 6 24 7c18 -31 46 -50 86 -50c37 0 74 19 94 50z" />
    <glyph glyph-name="obreve" unicode="&#x14f;" horiz-adv-x="466" 
d="M244 391c125 0 185 -84 185 -190c0 -53 -23 -127 -71 -165c-26 -20 -100 -46 -145 -46c-124 0 -179 107 -177 183c0 70 33 138 77 171c26 20 97 47 131 47zM233 344c-37 0 -109 -29 -109 -163c0 -64 30 -144 104 -144c73 0 117 56 113 163c-3 107 -65 144 -108 144z
M324 555c6 -2 18 -2 23 -7c-13 -60 -68 -106 -120 -106c-57 0 -96 48 -107 106c4 4 19 6 24 7c18 -31 46 -50 86 -50c37 0 74 19 94 50z" />
    <glyph glyph-name="Ohungarumlaut" unicode="&#x150;" horiz-adv-x="662" 
d="M349 773c26 -19 54 -29 77 -36c-58 -39 -111 -80 -159 -126c-9 5 -19 12 -27 15c42 49 85 102 109 147zM491 773c25 -19 54 -29 76 -36c-57 -39 -110 -80 -158 -126c-9 5 -20 12 -28 15c42 49 86 102 110 147zM357 594c154 0 268 -112 269 -279
c0 -104 -49 -205 -133 -270c-41 -32 -128 -62 -191 -62c-200 0 -267 167 -267 293c2 83 44 204 146 267c38 23 119 51 176 51zM343 548c-82 0 -211 -62 -211 -270c0 -119 68 -248 188 -248c74 0 210 62 210 281c0 138 -81 237 -187 237z" />
    <glyph glyph-name="ohungarumlaut" unicode="&#x151;" horiz-adv-x="466" 
d="M244 391c125 0 185 -84 185 -190c0 -53 -23 -127 -71 -165c-26 -20 -100 -46 -145 -46c-124 0 -179 107 -177 183c0 70 33 138 77 171c26 20 97 47 131 47zM233 344c-37 0 -109 -29 -109 -163c0 -64 30 -144 104 -144c73 0 117 56 113 163c-3 107 -65 144 -108 144z
M207 619c28 -12 61 -16 83 -19c-44 -53 -81 -113 -115 -170c-10 3 -22 7 -27 12c26 59 48 127 59 177zM327 619c29 -12 62 -16 84 -19c-45 -53 -82 -113 -116 -170c-9 3 -21 7 -27 12c27 59 49 127 59 177z" />
    <glyph glyph-name="OE" unicode="&#x152;" horiz-adv-x="739" 
d="M351 -2c-237 -8 -319 153 -316 278c2 83 40 205 146 260c38 20 119 52 185 50c86 -3 225 -4 339 -2l-3 -36c-101 -3 -153 -4 -245 -8c-5 -39 -5 -167 -5 -190c77 -1 137 -1 213 3l2 -34c-64 -3 -150 -9 -216 -14c-1 -59 1 -196 3 -260c75 -4 151 -8 268 -8l3 -39
c-234 4 -263 3 -374 0zM358 538l-2 2c-90 -3 -224 -54 -224 -262c0 -89 35 -230 220 -237c9 79 10 378 6 497z" />
    <glyph glyph-name="oe" unicode="&#x153;" horiz-adv-x="710" 
d="M244 391c71 0 121 -27 151 -71c42 52 101 77 143 77c73 0 106 -14 120 -37c16 -28 15 -77 -12 -105c-21 -21 -60 -30 -140 -30c-24 0 -49 1 -73 5c-10 -60 -2 -195 105 -195c51 0 79 7 129 23c5 -7 8 -24 10 -29c-48 -18 -104 -39 -166 -39c-61 0 -107 24 -135 63
l-18 -17c-26 -20 -100 -46 -145 -46c-124 0 -179 107 -177 183c0 70 33 138 77 171c26 20 97 47 131 47zM233 344c-37 0 -109 -29 -109 -163c0 -64 30 -144 104 -144c73 0 117 56 113 163c-3 107 -65 144 -108 144zM505 260c26 0 48 5 61 19c15 15 19 45 3 63
c-9 10 -24 14 -43 14c-45 0 -80 -51 -86 -90c15 -4 31 -6 65 -6z" />
    <glyph glyph-name="Racute" unicode="&#x154;" horiz-adv-x="538" 
d="M190 582c104 0 260 9 261 -98c0 -47 -40 -104 -139 -140c59 -105 155 -272 226 -345c-38 3 -92 4 -127 -5c-41 72 -145 266 -205 344c5 6 11 16 15 17c74 11 129 54 129 112c0 61 -62 80 -138 79c-21 0 -43 -1 -61 -3c-8 -98 -7 -354 7 -543c-31 3 -80 2 -110 -5
c14 113 9 514 1 588c27 -3 107 -1 141 -1zM319 749c2 -18 19 -60 28 -78c-69 -10 -120 -19 -185 -38c-5 9 -10 21 -11 29c59 26 125 58 168 87z" />
    <glyph glyph-name="racute" unicode="&#x155;" horiz-adv-x="275" 
d="M140 397c-2 -18 -6 -54 -6 -107l3 -1c26 71 44 92 116 119c5 -5 12 -21 12 -31c-68 -47 -120 -105 -125 -219c-2 -40 0 -73 5 -159c-22 2 -64 3 -95 -1c9 97 10 296 -2 387c15 1 79 8 92 12zM225 570c2 -18 19 -60 28 -78c-69 -10 -120 -19 -185 -38c-5 9 -10 21 -11 29
c59 26 125 58 168 87z" />
    <glyph glyph-name="Rcommaaccent" unicode="&#x156;" horiz-adv-x="538" 
d="M273 -37c18 0 42 -15 42 -55c0 -39 -43 -117 -76 -174c-8 3 -19 8 -26 13c23 48 29 76 29 108c0 25 -14 40 -14 64s21 44 45 44zM190 582c104 0 260 9 261 -98c0 -47 -40 -104 -139 -140c59 -105 155 -272 226 -345c-38 3 -92 4 -127 -5c-41 72 -145 266 -205 344
c5 6 11 16 15 17c74 11 129 54 129 112c0 61 -62 80 -138 79c-21 0 -43 -1 -61 -3c-8 -98 -7 -354 7 -543c-31 3 -80 2 -110 -5c14 113 9 514 1 588c27 -3 107 -1 141 -1z" />
    <glyph glyph-name="rcommaaccent" unicode="&#x157;" horiz-adv-x="275" 
d="M98 -37c19 0 42 -15 42 -55c0 -39 -43 -117 -75 -174c-9 3 -20 8 -27 13c23 48 29 76 29 108c0 25 -14 40 -14 64s21 44 45 44zM140 397c-2 -18 -6 -54 -6 -107l3 -1c26 71 44 92 116 119c5 -5 12 -21 12 -31c-68 -47 -120 -105 -125 -219c-2 -40 0 -73 5 -159
c-22 2 -64 3 -95 -1c9 97 10 296 -2 387c15 1 79 8 92 12z" />
    <glyph glyph-name="Rcaron" unicode="&#x158;" horiz-adv-x="538" 
d="M190 582c104 0 260 9 261 -98c0 -47 -40 -104 -139 -140c59 -105 155 -272 226 -345c-38 3 -92 4 -127 -5c-41 72 -145 266 -205 344c5 6 11 16 15 17c74 11 129 54 129 112c0 61 -62 80 -138 79c-21 0 -43 -1 -61 -3c-8 -98 -7 -354 7 -543c-31 3 -80 2 -110 -5
c14 113 9 514 1 588c27 -3 107 -1 141 -1zM343 728c4 -4 12 -17 13 -26c-33 -20 -64 -45 -114 -80c-33 28 -65 56 -99 78c2 7 8 20 14 26c38 -17 55 -24 87 -34c33 9 70 22 99 36z" />
    <glyph glyph-name="rcaron" unicode="&#x159;" horiz-adv-x="275" 
d="M140 397c-2 -18 -6 -54 -6 -107l3 -1c26 71 44 92 116 119c5 -5 12 -21 12 -31c-68 -47 -120 -105 -125 -219c-2 -40 0 -73 5 -159c-22 2 -64 3 -95 -1c9 97 10 296 -2 387c15 1 79 8 92 12zM246 552c4 -4 12 -17 13 -26c-33 -20 -64 -45 -114 -80c-33 28 -65 56 -99 78
c2 7 8 20 14 26c38 -17 55 -24 87 -34c33 9 70 22 99 36z" />
    <glyph glyph-name="Sacute" unicode="&#x15a;" horiz-adv-x="291" 
d="M16 -4c-3 10 -1 26 4 38c98 -15 157 25 157 111c0 61 -33 103 -78 156c-42 49 -55 91 -55 123c0 61 54 125 145 178c8 -7 17 -21 20 -29c-68 -44 -84 -82 -84 -124c-1 -34 33 -78 66 -115c45 -51 74 -108 74 -163c0 -83 -54 -179 -186 -179c-15 0 -47 1 -63 4zM223 749
c2 -18 19 -60 28 -78c-69 -10 -120 -19 -185 -38c-5 9 -10 21 -11 29c59 26 125 58 168 87z" />
    <glyph glyph-name="sacute" unicode="&#x15b;" horiz-adv-x="259" 
d="M32 -3c-1 10 0 28 3 35c61 -9 99 20 99 61c0 31 -19 60 -40 88c-28 37 -42 61 -42 89c0 44 44 99 119 135c7 -5 16 -20 18 -27c-46 -33 -58 -53 -58 -83c0 -25 23 -53 39 -72c38 -47 52 -83 52 -112c0 -49 -31 -118 -138 -118c-10 0 -43 0 -52 4zM206 566
c2 -18 19 -60 28 -78c-69 -10 -120 -19 -185 -38c-5 9 -10 21 -11 29c59 26 125 58 168 87z" />
    <glyph glyph-name="Scircumflex" unicode="&#x15c;" horiz-adv-x="291" 
d="M16 -4c-3 10 -1 26 4 38c98 -15 157 25 157 111c0 61 -33 103 -78 156c-42 49 -55 91 -55 123c0 61 54 125 145 178c8 -7 17 -21 20 -29c-68 -44 -84 -82 -84 -124c-1 -34 33 -78 66 -115c45 -51 74 -108 74 -163c0 -83 -54 -179 -186 -179c-15 0 -47 1 -63 4zM46 632
c-5 4 -13 17 -14 26c34 20 65 45 114 80c33 -28 66 -57 100 -78c-3 -8 -9 -21 -15 -26c-38 17 -54 23 -87 34c-33 -9 -69 -22 -98 -36z" />
    <glyph glyph-name="scircumflex" unicode="&#x15d;" horiz-adv-x="259" 
d="M32 -3c-1 10 0 28 3 35c61 -9 99 20 99 61c0 31 -19 60 -40 88c-28 37 -42 61 -42 89c0 44 44 99 119 135c7 -5 16 -20 18 -27c-46 -33 -58 -53 -58 -83c0 -25 23 -53 39 -72c38 -47 52 -83 52 -112c0 -49 -31 -118 -138 -118c-10 0 -43 0 -52 4zM37 452
c-5 4 -13 17 -14 26c34 20 65 45 114 80c33 -28 66 -57 100 -78c-3 -8 -9 -21 -15 -26c-38 17 -54 23 -87 34c-33 -9 -69 -22 -98 -36z" />
    <glyph glyph-name="Scedilla" unicode="&#x15e;" horiz-adv-x="291" 
d="M51 -111c14 23 34 69 48 104c-6 -1 -13 -1 -20 -1c-15 0 -47 1 -63 4c-3 10 -1 26 4 38c98 -15 157 25 157 111c0 61 -33 103 -78 156c-42 49 -55 91 -55 123c0 61 54 125 145 178c8 -7 17 -21 20 -29c-68 -44 -84 -82 -84 -124c-1 -34 33 -78 66 -115
c45 -51 74 -108 74 -163c0 -69 -37 -146 -124 -171c-10 -20 -19 -43 -26 -65c21 -15 43 -34 43 -74c0 -20 -21 -74 -63 -124c-7 2 -21 10 -26 15c17 28 30 54 30 82c0 17 -15 34 -48 55z" />
    <glyph glyph-name="scedilla" unicode="&#x15f;" horiz-adv-x="259" 
d="M53 -106c14 22 33 66 47 100c-5 -1 -11 -1 -16 -1c-10 0 -43 0 -52 4c-1 10 0 28 3 35c61 -9 99 20 99 61c0 31 -19 60 -40 88c-28 37 -42 61 -42 89c0 44 44 99 119 135c7 -5 16 -20 18 -27c-46 -33 -58 -53 -58 -83c0 -25 23 -53 39 -72c38 -47 52 -83 52 -112
c0 -39 -20 -90 -81 -109c-9 -19 -17 -42 -24 -62c21 -15 43 -34 43 -74c0 -20 -21 -74 -63 -124c-7 2 -21 10 -26 15c17 28 30 54 30 82c0 17 -15 34 -48 55z" />
    <glyph glyph-name="Scaron" unicode="&#x160;" horiz-adv-x="291" 
d="M16 -4c-3 10 -1 26 4 38c98 -15 157 25 157 111c0 61 -33 103 -78 156c-42 49 -55 91 -55 123c0 61 54 125 145 178c8 -7 17 -21 20 -29c-68 -44 -84 -82 -84 -124c-1 -34 33 -78 66 -115c45 -51 74 -108 74 -163c0 -83 -54 -179 -186 -179c-15 0 -47 1 -63 4zM244 738
c4 -4 12 -17 13 -26c-33 -20 -64 -45 -114 -80c-33 28 -65 56 -99 78c2 7 8 20 14 26c38 -17 55 -24 87 -34c33 9 70 22 99 36z" />
    <glyph glyph-name="scaron" unicode="&#x161;" horiz-adv-x="259" 
d="M32 -3c-1 10 0 28 3 35c61 -9 99 20 99 61c0 31 -19 60 -40 88c-28 37 -42 61 -42 89c0 44 44 99 119 135c7 -5 16 -20 18 -27c-46 -33 -58 -53 -58 -83c0 -25 23 -53 39 -72c38 -47 52 -83 52 -112c0 -49 -31 -118 -138 -118c-10 0 -43 0 -52 4zM233 552
c4 -4 12 -17 13 -26c-33 -20 -64 -45 -114 -80c-33 28 -65 56 -99 78c2 7 8 20 14 26c38 -17 55 -24 87 -34c33 9 70 22 99 36z" />
    <glyph glyph-name="uni0162" unicode="&#x162;" horiz-adv-x="441" 
d="M151 -114c15 26 39 81 53 115l-38 -2c8 47 13 483 9 535c-47 8 -88 9 -170 15c-2 8 -3 22 1 34c192 -5 257 -4 429 0c3 -8 2 -21 1 -32c-68 -7 -121 -9 -170 -17c-4 -93 -5 -333 6 -536c-9 2 -19 2 -30 3c-11 -21 -20 -46 -27 -69c21 -15 43 -34 43 -73
c0 -20 -21 -75 -63 -125c-7 2 -21 10 -26 15c17 28 30 54 30 82c0 17 -16 35 -48 55z" />
    <glyph glyph-name="uni0163" unicode="&#x163;" horiz-adv-x="308" 
d="M64 -114c14 24 35 73 49 108c-36 3 -48 28 -49 109c-1 50 3 179 3 249h-35c0 14 0 27 2 38h38c21 38 51 113 61 152c7 1 20 -1 28 -4c-5 -26 -11 -113 -11 -148c19 0 101 -1 132 2c-1 -12 -2 -27 -9 -43c-32 3 -98 3 -124 3c-2 -37 -2 -186 1 -227c4 -63 15 -79 43 -79
c19 0 47 4 76 9c3 -8 6 -22 6 -32c-33 -10 -87 -22 -122 -27c-10 -20 -19 -43 -25 -64c21 -15 43 -34 43 -73c0 -20 -21 -75 -63 -125c-7 2 -21 10 -26 15c17 28 30 54 30 82c0 17 -16 35 -48 55z" />
    <glyph glyph-name="Tcaron" unicode="&#x164;" horiz-adv-x="441" 
d="M6 583c192 -5 257 -4 429 0c3 -8 2 -21 1 -32c-68 -7 -121 -9 -170 -17c-4 -93 -5 -333 6 -536c-26 4 -69 4 -106 1c8 47 13 483 9 535c-47 8 -88 9 -170 15c-2 8 -3 22 1 34zM323 728c4 -4 12 -17 13 -26c-33 -20 -64 -45 -114 -80c-33 28 -65 56 -99 78c2 7 8 20 14 26
c38 -17 55 -24 87 -34c33 9 70 22 99 36z" />
    <glyph glyph-name="tcaron" unicode="&#x165;" horiz-adv-x="308" 
d="M261 700c26 0 44 -23 44 -63c0 -43 -39 -124 -71 -191c-9 2 -25 8 -32 13c21 52 24 89 24 125c0 29 -15 45 -15 71c0 22 21 45 50 45zM133 542c7 1 20 -1 28 -4c-5 -26 -11 -113 -11 -148c19 0 101 -1 132 2c-1 -12 -2 -27 -9 -43c-32 3 -98 3 -124 3
c-2 -37 -2 -186 1 -227c4 -63 15 -79 43 -79c19 0 47 4 76 9c3 -8 6 -22 6 -32c-44 -13 -128 -30 -151 -30c-44 0 -59 22 -60 110c-1 50 3 179 3 249h-35c0 14 0 27 2 38h38c21 38 51 113 61 152z" />
    <glyph glyph-name="Tbar" unicode="&#x166;" horiz-adv-x="441" 
d="M6 583c192 -5 257 -4 429 0c3 -8 2 -21 1 -32c-68 -7 -121 -9 -170 -17c-2 -42 -3 -114 -3 -198h99c1 -11 0 -31 -5 -41c-35 1 -64 2 -94 2c1 -94 3 -201 9 -299c-26 4 -69 4 -106 1c5 26 8 167 9 299h-97c-4 8 1 34 3 40l95 -2c0 94 0 177 -1 198c-47 8 -88 9 -170 15
c-2 8 -3 22 1 34z" />
    <glyph glyph-name="tbar" unicode="&#x167;" horiz-adv-x="308" 
d="M133 542c7 1 20 -1 28 -4c-5 -26 -11 -113 -11 -148c19 0 101 -1 132 2c-1 -12 -2 -27 -9 -43c-32 3 -98 3 -124 3c0 -16 -1 -52 -1 -90c45 0 85 1 128 1c1 -10 -3 -32 -8 -42c-51 2 -80 3 -120 3c0 -41 1 -81 2 -99c4 -63 15 -79 43 -79c19 0 47 4 76 9
c3 -8 6 -22 6 -32c-44 -13 -128 -30 -151 -30c-44 0 -59 22 -60 110c-1 26 0 72 1 121h-32c-1 12 -1 29 2 39c10 0 21 -1 31 -1l1 90h-35c0 14 0 27 2 38h38c21 38 51 113 61 152z" />
    <glyph glyph-name="Utilde" unicode="&#x168;" horiz-adv-x="579" 
d="M35 582c37 -2 79 -2 108 2c-6 -130 3 -279 21 -402c16 -105 72 -144 131 -144c104 0 149 85 162 154c20 110 22 302 14 381c28 5 58 15 83 28c-16 -114 -30 -274 -48 -386c-20 -129 -84 -229 -222 -229c-130 0 -192 62 -214 218c-18 133 -18 264 -35 378zM343 637
c-17 0 -54 18 -70 18c-24 0 -42 -7 -65 -22c-7 6 -14 18 -15 26c25 25 75 63 96 63c24 0 53 -18 74 -18c24 0 41 9 62 20c7 -5 14 -17 16 -25c-31 -31 -78 -62 -98 -62z" />
    <glyph glyph-name="utilde" unicode="&#x169;" horiz-adv-x="471" 
d="M146 397c-8 -69 -12 -131 -12 -201c2 -98 17 -140 75 -140c37 0 77 10 114 20c5 38 5 238 -5 307c18 -1 74 7 101 13c-12 -89 -9 -353 4 -391c-29 0 -65 -5 -96 -10c-3 16 -3 27 -3 41c-47 -20 -111 -43 -174 -43c-85 0 -101 63 -101 161c0 102 -1 198 -5 231
c30 1 78 5 102 12zM273 471c-17 0 -54 18 -70 18c-24 0 -42 -7 -65 -22c-7 6 -14 18 -15 26c25 25 75 63 96 63c24 0 53 -18 74 -18c24 0 41 9 62 20c7 -5 14 -17 16 -25c-31 -31 -78 -62 -98 -62z" />
    <glyph glyph-name="Umacron" unicode="&#x16a;" horiz-adv-x="579" 
d="M35 582c37 -2 79 -2 108 2c-6 -130 3 -279 21 -402c16 -105 72 -144 131 -144c104 0 149 85 162 154c20 110 22 302 14 381c28 5 58 15 83 28c-16 -114 -30 -274 -48 -386c-20 -129 -84 -229 -222 -229c-130 0 -192 62 -214 218c-18 133 -18 264 -35 378zM194 693
c101 -2 158 -2 233 -1c0 -11 -1 -31 -6 -41c-97 2 -105 3 -230 2c-3 8 1 35 3 40z" />
    <glyph glyph-name="umacron" unicode="&#x16b;" horiz-adv-x="471" 
d="M146 397c-8 -69 -12 -131 -12 -201c2 -98 17 -140 75 -140c37 0 77 10 114 20c5 38 5 238 -5 307c18 -1 74 7 101 13c-12 -89 -9 -353 4 -391c-29 0 -65 -5 -96 -10c-3 16 -3 27 -3 41c-47 -20 -111 -43 -174 -43c-85 0 -101 63 -101 161c0 102 -1 198 -5 231
c30 1 78 5 102 12zM122 506c101 -2 158 -2 233 -1c0 -11 -1 -31 -6 -41c-97 2 -105 3 -230 2c-3 8 1 35 3 40z" />
    <glyph glyph-name="Ubreve" unicode="&#x16c;" horiz-adv-x="579" 
d="M35 582c37 -2 79 -2 108 2c-6 -130 3 -279 21 -402c16 -105 72 -144 131 -144c104 0 149 85 162 154c20 110 22 302 14 381c28 5 58 15 83 28c-16 -114 -30 -274 -48 -386c-20 -129 -84 -229 -222 -229c-130 0 -192 62 -214 218c-18 133 -18 264 -35 378zM403 739
c6 -2 18 -2 23 -7c-13 -60 -68 -106 -120 -106c-57 0 -96 48 -107 106c4 4 19 6 24 7c18 -31 46 -50 86 -50c37 0 74 19 94 50z" />
    <glyph glyph-name="ubreve" unicode="&#x16d;" horiz-adv-x="471" 
d="M146 397c-8 -69 -12 -131 -12 -201c2 -98 17 -140 75 -140c37 0 77 10 114 20c5 38 5 238 -5 307c18 -1 74 7 101 13c-12 -89 -9 -353 4 -391c-29 0 -65 -5 -96 -10c-3 16 -3 27 -3 41c-47 -20 -111 -43 -174 -43c-85 0 -101 63 -101 161c0 102 -1 198 -5 231
c30 1 78 5 102 12zM328 555c6 -2 18 -2 23 -7c-13 -60 -68 -106 -120 -106c-57 0 -96 48 -107 106c4 4 19 6 24 7c18 -31 46 -50 86 -50c37 0 74 19 94 50z" />
    <glyph glyph-name="Uring" unicode="&#x16e;" horiz-adv-x="579" 
d="M35 582c37 -2 79 -2 108 2c-6 -130 3 -279 21 -402c16 -105 72 -144 131 -144c104 0 149 85 162 154c20 110 22 302 14 381c28 5 58 15 83 28c-16 -114 -30 -274 -48 -386c-20 -129 -84 -229 -222 -229c-130 0 -192 62 -214 218c-18 133 -18 264 -35 378zM316 742
c44 0 85 -18 85 -52c0 -47 -59 -72 -105 -71c-44 2 -80 22 -80 56c0 37 46 67 100 67zM311 715c-26 0 -41 -17 -41 -36c0 -18 12 -31 33 -31c29 0 43 15 43 39c0 16 -16 28 -35 28z" />
    <glyph glyph-name="uring" unicode="&#x16f;" horiz-adv-x="471" 
d="M146 397c-8 -69 -12 -131 -12 -201c2 -98 17 -140 75 -140c37 0 77 10 114 20c5 38 5 238 -5 307c18 -1 74 7 101 13c-12 -89 -9 -353 4 -391c-29 0 -65 -5 -96 -10c-3 16 -3 27 -3 41c-47 -20 -111 -43 -174 -43c-85 0 -101 63 -101 161c0 102 -1 198 -5 231
c30 1 78 5 102 12zM246 563c44 0 85 -18 85 -52c0 -47 -59 -72 -105 -71c-44 2 -80 22 -80 56c0 37 46 67 100 67zM241 536c-26 0 -41 -17 -41 -36c0 -18 12 -31 33 -31c29 0 43 15 43 39c0 16 -16 28 -35 28z" />
    <glyph glyph-name="Uhungarumlaut" unicode="&#x170;" horiz-adv-x="579" 
d="M300 773c25 -19 54 -29 76 -36c-57 -39 -110 -80 -158 -126c-9 5 -20 12 -28 15c42 49 85 102 110 147zM441 773c26 -19 54 -29 77 -36c-58 -39 -111 -80 -159 -126c-9 5 -19 12 -27 15c42 49 85 102 109 147zM35 582c37 -2 79 -2 108 2c-6 -130 3 -279 21 -402
c16 -105 72 -144 131 -144c104 0 149 85 162 154c20 110 22 302 14 381c28 5 58 15 83 28c-16 -114 -30 -274 -48 -386c-20 -129 -84 -229 -222 -229c-130 0 -192 62 -214 218c-18 133 -18 264 -35 378z" />
    <glyph glyph-name="uhungarumlaut" unicode="&#x171;" horiz-adv-x="471" 
d="M146 397c-8 -69 -12 -131 -12 -201c2 -98 17 -140 75 -140c37 0 77 10 114 20c5 38 5 238 -5 307c18 -1 74 7 101 13c-12 -89 -9 -353 4 -391c-29 0 -65 -5 -96 -10c-3 16 -3 27 -3 41c-47 -20 -111 -43 -174 -43c-85 0 -101 63 -101 161c0 102 -1 198 -5 231
c30 1 78 5 102 12zM209 619c28 -12 61 -16 83 -19c-44 -53 -81 -113 -115 -170c-10 3 -22 7 -27 12c26 59 48 127 59 177zM329 619c29 -12 62 -16 84 -19c-45 -53 -82 -113 -116 -170c-9 3 -21 7 -27 12c27 59 49 127 59 177z" />
    <glyph glyph-name="Uogonek" unicode="&#x172;" horiz-adv-x="579" 
d="M370 -107c2 -7 4 -24 4 -30c-29 -9 -69 -17 -97 -17c-49 0 -59 29 -59 52c0 26 24 61 50 88c-119 5 -177 69 -198 218c-18 133 -18 264 -35 378c37 -2 79 -2 108 2c-6 -130 3 -279 21 -402c16 -105 72 -144 131 -144c104 0 149 85 162 154c20 110 22 302 14 381
c28 5 58 15 83 28c-16 -114 -30 -274 -48 -386c-19 -122 -77 -217 -198 -228c-12 -18 -17 -42 -17 -61c0 -28 14 -38 34 -38c15 0 35 3 45 5z" />
    <glyph glyph-name="uogonek" unicode="&#x173;" horiz-adv-x="471" 
d="M430 -97c2 -7 4 -24 4 -30c-28 -9 -68 -17 -97 -17c-49 0 -58 29 -58 52c0 26 23 60 49 87h-1c-3 16 -3 27 -3 41c-47 -20 -111 -43 -174 -43c-85 0 -101 63 -101 161c0 102 -1 198 -5 231c30 1 78 5 102 12c-8 -69 -12 -131 -12 -201c2 -98 17 -140 75 -140
c37 0 77 10 114 20c5 38 5 238 -5 307c18 -1 74 7 101 13c-12 -89 -9 -353 4 -391c-16 0 -34 -2 -52 -4c-13 -18 -20 -45 -20 -65c0 -28 14 -38 34 -38c15 0 36 3 45 5z" />
    <glyph glyph-name="Wcircumflex" unicode="&#x174;" horiz-adv-x="862" 
d="M26 584c38 -5 82 -4 121 1c18 -127 37 -210 75 -357c4 -17 17 -61 22 -82c58 125 151 311 189 430c11 7 28 14 47 19c28 -125 63 -240 109 -380c7 -20 15 -49 22 -70c57 125 131 311 165 430c25 3 68 9 94 20c-36 -52 -187 -389 -205 -430c-37 -79 -42 -101 -62 -167
c-9 -9 -23 -20 -40 -26c-37 140 -74 263 -111 379c-9 29 -18 65 -25 93c-55 -119 -131 -281 -142 -308c-19 -42 -42 -94 -53 -137c-16 -14 -28 -19 -45 -26c-44 205 -98 428 -161 611zM362 632c-5 4 -13 17 -14 26c34 20 65 45 114 80c33 -28 66 -57 100 -78
c-3 -8 -9 -21 -15 -26c-38 17 -54 23 -87 34c-33 -9 -69 -22 -98 -36z" />
    <glyph glyph-name="wcircumflex" unicode="&#x175;" horiz-adv-x="633" 
d="M21 391c24 -5 103 -2 123 1c1 -52 31 -162 55 -247c3 -10 6 -19 7 -29c59 115 103 228 111 272c7 3 36 10 45 12c15 -65 43 -150 76 -246c3 -10 8 -28 11 -36c58 115 88 220 95 264c21 3 60 8 89 20c-65 -113 -104 -199 -148 -295c-14 -31 -34 -79 -39 -105
c-12 -7 -29 -12 -44 -15c-27 87 -52 157 -73 214c-7 18 -16 40 -20 54c-31 -64 -37 -77 -70 -150c-16 -37 -32 -78 -38 -104c-11 -8 -32 -12 -47 -15c-37 143 -108 376 -133 405zM245 452c-5 4 -13 17 -14 26c34 20 65 45 114 80c33 -28 66 -57 100 -78
c-3 -8 -9 -21 -15 -26c-38 17 -54 23 -87 34c-33 -9 -69 -22 -98 -36z" />
    <glyph glyph-name="Ycircumflex" unicode="&#x176;" horiz-adv-x="479" 
d="M5 583c49 -4 90 -3 131 0c30 -81 77 -160 128 -233c61 80 108 152 144 227c26 1 56 3 92 11c-96 -108 -136 -162 -224 -287c-3 -140 -1 -229 9 -302c-36 3 -75 4 -105 0c6 63 11 219 6 303c-40 79 -138 231 -181 281zM172 632c-5 4 -13 17 -14 26c34 20 65 45 114 80
c33 -28 66 -57 100 -78c-3 -8 -9 -21 -15 -26c-38 17 -54 23 -87 34c-33 -9 -69 -22 -98 -36z" />
    <glyph glyph-name="ycircumflex" unicode="&#x177;" horiz-adv-x="470" 
d="M467 395l3 -5c-68 -106 -137 -245 -193 -363c-32 -70 -35 -79 -68 -155c-32 -76 -60 -115 -183 -157c-7 10 -12 20 -11 30c99 62 144 123 199 243c-43 104 -142 318 -207 403c33 -8 102 -4 125 -1c6 -30 94 -238 133 -291c50 101 104 232 109 286c20 -1 58 2 93 10z
M162 452c-5 4 -13 17 -14 26c34 20 65 45 114 80c33 -28 66 -57 100 -78c-3 -8 -9 -21 -15 -26c-38 17 -54 23 -87 34c-33 -9 -69 -22 -98 -36z" />
    <glyph glyph-name="Ydieresis" unicode="&#x178;" horiz-adv-x="479" 
d="M5 583c49 -4 90 -3 131 0c30 -81 77 -160 128 -233c61 80 108 152 144 227c26 1 56 3 92 11c-96 -108 -136 -162 -224 -287c-3 -140 -1 -229 9 -302c-36 3 -75 4 -105 0c6 63 11 219 6 303c-40 79 -138 231 -181 281zM196 718c28 0 42 -13 42 -31c0 -22 -31 -35 -56 -35
c-18 0 -35 11 -35 26c0 22 25 40 49 40zM346 718c28 0 41 -13 41 -31c0 -22 -30 -35 -55 -35c-19 0 -35 11 -35 26c0 22 25 40 49 40z" />
    <glyph glyph-name="Zacute" unicode="&#x179;" horiz-adv-x="530" 
d="M80 587c128 -6 348 -9 391 0c8 -8 8 -14 8 -24c-20 -15 -42 -37 -60 -61l-296 -419c59 -3 297 -3 376 14c-9 -30 -15 -78 -17 -103c-195 13 -403 9 -459 0c-5 5 -9 19 -8 26c18 15 46 44 64 68c96 127 217 301 293 414c-107 4 -240 -1 -305 -14c9 29 11 71 13 99z
M352 749c2 -18 19 -60 28 -78c-69 -10 -120 -19 -185 -38c-5 9 -10 21 -11 29c59 26 125 58 168 87z" />
    <glyph glyph-name="zacute" unicode="&#x17a;" horiz-adv-x="411" 
d="M64 391c80 -5 192 -6 288 0c6 -5 8 -12 10 -18c-22 -18 -42 -39 -59 -60l-183 -239c70 0 190 1 255 12c-5 -13 -13 -57 -18 -91c-100 11 -290 7 -333 3c-4 4 -7 11 -9 21c21 14 46 40 64 62c72 87 136 175 179 233c-81 3 -155 -2 -211 -9c7 21 14 60 17 86zM282 570
c2 -18 19 -60 28 -78c-69 -10 -120 -19 -185 -38c-5 9 -10 21 -11 29c59 26 125 58 168 87z" />
    <glyph glyph-name="Zdotaccent" unicode="&#x17b;" horiz-adv-x="530" 
d="M80 587c128 -6 348 -9 391 0c8 -8 8 -14 8 -24c-20 -15 -42 -37 -60 -61l-296 -419c59 -3 297 -3 376 14c-9 -30 -15 -78 -17 -103c-195 13 -403 9 -459 0c-5 5 -9 19 -8 26c18 15 46 44 64 68c96 127 217 301 293 414c-107 4 -240 -1 -305 -14c9 29 11 71 13 99z
M287 718c33 0 40 -20 40 -31c0 -19 -25 -41 -56 -41c-23 0 -40 10 -40 33c0 17 20 39 56 39z" />
    <glyph glyph-name="zdotaccent" unicode="&#x17c;" horiz-adv-x="411" 
d="M64 391c80 -5 192 -6 288 0c6 -5 8 -12 10 -18c-22 -18 -42 -39 -59 -60l-183 -239c70 0 190 1 255 12c-5 -13 -13 -57 -18 -91c-100 11 -290 7 -333 3c-4 4 -7 11 -9 21c21 14 46 40 64 62c72 87 136 175 179 233c-81 3 -155 -2 -211 -9c7 21 14 60 17 86zM222 531
c33 0 40 -20 40 -31c0 -19 -25 -41 -56 -41c-23 0 -40 10 -40 33c0 17 20 39 56 39z" />
    <glyph glyph-name="Zcaron" unicode="&#x17d;" horiz-adv-x="530" 
d="M80 587c128 -6 348 -9 391 0c8 -8 8 -14 8 -24c-20 -15 -42 -37 -60 -61l-296 -419c59 -3 297 -3 376 14c-9 -30 -15 -78 -17 -103c-195 13 -403 9 -459 0c-5 5 -9 19 -8 26c18 15 46 44 64 68c96 127 217 301 293 414c-107 4 -240 -1 -305 -14c9 29 11 71 13 99z
M391 739c4 -4 12 -17 13 -26c-33 -20 -64 -45 -114 -80c-33 28 -65 56 -99 78c2 7 8 20 14 26c38 -17 55 -24 87 -34c33 9 70 22 99 36z" />
    <glyph glyph-name="zcaron" unicode="&#x17e;" horiz-adv-x="411" 
d="M64 391c80 -5 192 -6 288 0c6 -5 8 -12 10 -18c-22 -18 -42 -39 -59 -60l-183 -239c70 0 190 1 255 12c-5 -13 -13 -57 -18 -91c-100 11 -290 7 -333 3c-4 4 -7 11 -9 21c21 14 46 40 64 62c72 87 136 175 179 233c-81 3 -155 -2 -211 -9c7 21 14 60 17 86zM316 552
c4 -4 12 -17 13 -26c-33 -20 -64 -45 -114 -80c-33 28 -65 56 -99 78c2 7 8 20 14 26c38 -17 55 -24 87 -34c33 9 70 22 99 36z" />
    <glyph glyph-name="longs" unicode="&#x17f;" horiz-adv-x="224" 
d="M39 390h31c1 24 1 75 2 120c3 71 83 176 146 182c17 1 40 -5 58 -13c-2 -11 -9 -27 -14 -35c-10 4 -23 6 -36 6c-22 0 -45 -25 -54 -52c-14 -40 -20 -55 -19 -208c0 -107 2 -338 16 -392c-24 4 -86 3 -108 0c11 121 10 238 10 354h-34c0 10 0 25 2 38z" />
    <glyph glyph-name="florin" unicode="&#x192;" 
d="M51 288c9 0 56 -1 71 -1c16 74 23 133 99 224c28 35 87 82 148 82c17 0 46 -15 61 -35c-4 -7 -18 -25 -27 -28c-72 49 -143 -32 -171 -128c-14 -52 -19 -69 -25 -116c35 -1 121 0 155 2c0 -4 -7 -35 -10 -41c-21 1 -105 2 -151 2c-12 -74 -28 -142 -39 -191
c-38 -175 -156 -336 -283 -336c-15 0 -33 9 -43 19c1 7 11 27 15 36c70 -29 121 17 147 51c41 53 70 130 89 229c15 84 25 152 28 191h-73z" />
    <glyph glyph-name="Scommaaccent" unicode="&#x218;" horiz-adv-x="291" 
d="M128 -37c18 0 42 -15 42 -55c0 -39 -43 -117 -76 -174c-9 3 -20 8 -26 13c22 48 29 76 29 108c0 25 -15 40 -15 64s22 44 46 44zM16 -4c-3 10 -1 26 4 38c98 -15 157 25 157 111c0 61 -33 103 -78 156c-42 49 -55 91 -55 123c0 61 54 125 145 178c8 -7 17 -21 20 -29
c-68 -44 -84 -82 -84 -124c-1 -34 33 -78 66 -115c45 -51 74 -108 74 -163c0 -83 -54 -179 -186 -179c-15 0 -47 1 -63 4z" />
    <glyph glyph-name="scommaaccent" unicode="&#x219;" horiz-adv-x="259" 
d="M118 -37c18 0 42 -15 42 -55c0 -39 -43 -117 -76 -174c-8 3 -19 8 -26 13c23 48 29 76 29 108c0 25 -14 40 -14 64s21 44 45 44zM32 -3c-1 10 0 28 3 35c61 -9 99 20 99 61c0 31 -19 60 -40 88c-28 37 -42 61 -42 89c0 44 44 99 119 135c7 -5 16 -20 18 -27
c-46 -33 -58 -53 -58 -83c0 -25 23 -53 39 -72c38 -47 52 -83 52 -112c0 -49 -31 -118 -138 -118c-10 0 -43 0 -52 4z" />
    <glyph glyph-name="uni021A" unicode="&#x21a;" horiz-adv-x="441" 
d="M219 -37c19 0 42 -15 42 -55c0 -39 -43 -117 -75 -174c-9 3 -20 8 -27 13c23 48 29 76 29 108c0 25 -14 40 -14 64s21 44 45 44zM6 583c192 -5 257 -4 429 0c3 -8 2 -21 1 -32c-68 -7 -121 -9 -170 -17c-4 -93 -5 -333 6 -536c-26 4 -69 4 -106 1c8 47 13 483 9 535
c-47 8 -88 9 -170 15c-2 8 -3 22 1 34z" />
    <glyph glyph-name="uni021B" unicode="&#x21b;" horiz-adv-x="308" 
d="M146 -37c19 0 43 -15 43 -55c0 -39 -43 -117 -76 -174c-9 3 -20 8 -26 13c22 48 28 76 28 108c0 25 -14 40 -14 64s21 44 45 44zM133 542c7 1 20 -1 28 -4c-5 -26 -11 -113 -11 -148c19 0 101 -1 132 2c-1 -12 -2 -27 -9 -43c-32 3 -98 3 -124 3c-2 -37 -2 -186 1 -227
c4 -63 15 -79 43 -79c19 0 47 4 76 9c3 -8 6 -22 6 -32c-44 -13 -128 -30 -151 -30c-44 0 -59 22 -60 110c-1 50 3 179 3 249h-35c0 14 0 27 2 38h38c21 38 51 113 61 152z" />
    <glyph glyph-name="circumflex" unicode="&#x2c6;" 
d="M102 452c-5 4 -13 17 -14 26c34 20 65 45 114 80c33 -28 66 -57 100 -78c-3 -8 -9 -21 -15 -26c-38 17 -54 23 -87 34c-33 -9 -69 -22 -98 -36z" />
    <glyph glyph-name="caron" unicode="&#x2c7;" 
d="M287 552c4 -4 12 -17 13 -26c-33 -20 -64 -45 -114 -80c-33 28 -65 56 -99 78c2 7 8 20 14 26c38 -17 55 -24 87 -34c33 9 70 22 99 36z" />
    <glyph glyph-name="breve" unicode="&#x2d8;" 
d="M290 555c6 -2 18 -2 23 -7c-13 -60 -68 -106 -120 -106c-57 0 -96 48 -107 106c4 4 19 6 24 7c18 -31 46 -50 86 -50c37 0 74 19 94 50z" />
    <glyph glyph-name="dotaccent" unicode="&#x2d9;" 
d="M220 531c33 0 40 -20 40 -31c0 -19 -25 -41 -56 -41c-23 0 -40 10 -40 33c0 17 20 39 56 39z" />
    <glyph glyph-name="ring" unicode="&#x2da;" 
d="M216 563c44 0 85 -18 85 -52c0 -47 -59 -72 -105 -71c-44 2 -80 22 -80 56c0 37 46 67 100 67zM211 536c-26 0 -41 -17 -41 -36c0 -18 12 -31 33 -31c29 0 43 15 43 39c0 16 -16 28 -35 28z" />
    <glyph glyph-name="ogonek" unicode="&#x2db;" 
d="M345 -97c2 -7 4 -24 4 -30c-29 -9 -69 -17 -97 -17c-49 0 -58 29 -58 52c0 32 35 78 67 105c8 -1 18 -6 25 -11c-13 -18 -20 -45 -20 -66c0 -28 14 -38 34 -38c15 0 35 3 45 5z" />
    <glyph glyph-name="tilde" unicode="&#x2dc;" 
d="M226 471c-17 0 -54 18 -70 18c-24 0 -42 -7 -65 -22c-7 6 -14 18 -15 26c25 25 75 63 96 63c24 0 53 -18 74 -18c24 0 41 9 62 20c7 -5 14 -17 16 -25c-31 -31 -78 -62 -98 -62z" />
    <glyph glyph-name="hungarumlaut" unicode="&#x2dd;" 
d="M141 619c28 -12 61 -16 83 -19c-44 -53 -81 -113 -115 -170c-10 3 -22 7 -27 12c26 59 48 127 59 177zM261 619c29 -12 62 -16 84 -19c-45 -53 -82 -113 -116 -170c-9 3 -21 7 -27 12c27 59 49 127 59 177z" />
    <glyph glyph-name="pi" unicode="&#x3c0;" horiz-adv-x="540" 
d="M479 100c5 -3 15 -13 19 -18c-24 -43 -56 -93 -96 -93c-53 0 -73 46 -74 106c0 72 8 149 12 216c-62 2 -104 1 -158 0c-5 -135 -12 -280 -13 -303c-33 -3 -65 -10 -99 -23c32 80 57 191 73 326c-46 -1 -80 -3 -110 -6c8 20 16 64 21 90c92 -11 346 -7 445 0
c-8 -20 -16 -63 -21 -90c-22 3 -56 5 -96 6c-5 -70 -6 -121 -4 -178c1 -32 9 -71 45 -71c21 0 43 19 56 38z" />
    <glyph glyph-name="endash" unicode="&#x2013;" horiz-adv-x="375" 
d="M28 271c101 -2 247 -2 322 -1c0 -11 -1 -29 -6 -39c-97 2 -194 3 -319 2c-3 8 1 33 3 38z" />
    <glyph glyph-name="emdash" unicode="&#x2014;" horiz-adv-x="595" 
d="M27 272c226 -2 320 -3 545 -2c1 -11 -1 -28 -6 -38c-226 2 -317 2 -542 1c-3 8 1 33 3 39z" />
    <glyph glyph-name="quoteleft" unicode="&#x2018;" horiz-adv-x="191" 
d="M83 316c-22 0 -46 18 -46 67c0 48 51 145 92 215c9 -4 19 -10 27 -16c-28 -59 -38 -98 -38 -138c0 -30 17 -49 17 -78s-25 -50 -52 -50z" />
    <glyph glyph-name="quoteright" unicode="&#x2019;" horiz-adv-x="191" 
d="M114 595c22 0 47 -18 47 -66c0 -49 -52 -145 -93 -215c-9 3 -19 9 -27 16c28 59 38 97 38 137c0 31 -17 49 -17 78c0 30 25 50 52 50z" />
    <glyph glyph-name="quotesinglbase" unicode="&#x201a;" horiz-adv-x="176" 
d="M87 96c22 0 46 -18 46 -67c0 -48 -51 -145 -92 -215c-9 4 -19 10 -28 16c29 59 39 98 39 138c0 30 -17 49 -17 78s25 50 52 50z" />
    <glyph glyph-name="quotedblleft" unicode="&#x201c;" horiz-adv-x="326" 
d="M218 316c-23 0 -47 18 -47 67c0 48 52 145 92 215c10 -4 20 -10 28 -16c-28 -59 -39 -98 -39 -138c0 -30 18 -49 18 -78s-26 -50 -52 -50zM83 316c-22 0 -46 18 -46 67c0 48 51 145 92 215c9 -4 19 -10 27 -16c-28 -59 -38 -98 -38 -138c0 -30 17 -49 17 -78
s-25 -50 -52 -50z" />
    <glyph glyph-name="quotedblright" unicode="&#x201d;" horiz-adv-x="326" 
d="M249 595c22 0 46 -18 46 -66c0 -49 -51 -145 -92 -215c-9 3 -19 9 -27 16c28 59 38 97 38 137c0 31 -17 49 -17 78c0 30 25 50 52 50zM114 595c23 0 47 -18 47 -66c0 -49 -52 -145 -92 -215c-9 3 -19 9 -28 16c28 59 39 97 39 137c0 31 -18 49 -18 78c0 30 26 50 52 50z
" />
    <glyph glyph-name="quotedblbase" unicode="&#x201e;" horiz-adv-x="307" 
d="M87 96c22 0 46 -18 46 -67c0 -48 -51 -145 -92 -215c-9 4 -19 10 -28 16c29 59 39 98 39 138c0 30 -17 49 -17 78s25 50 52 50zM217 96c22 0 46 -18 46 -67c0 -48 -51 -145 -92 -215c-9 4 -19 10 -27 16c28 59 38 98 38 138c0 30 -17 49 -17 78s25 50 52 50z" />
    <glyph glyph-name="dagger" unicode="&#x2020;" horiz-adv-x="220" 
d="M16 448c20 -3 52 -3 76 -3c-1 61 -19 120 -29 141c27 -2 69 -6 99 1c-13 -35 -30 -82 -35 -143c28 0 61 2 80 3c0 -11 -1 -30 -4 -40c-24 3 -53 3 -77 3c-5 -105 18 -224 37 -323c-22 -34 -40 -69 -59 -125c-16 59 -26 81 -50 125c19 96 38 226 37 324
c-27 0 -50 0 -77 -2c-2 8 0 33 2 39z" />
    <glyph glyph-name="daggerdbl" unicode="&#x2021;" horiz-adv-x="213" 
d="M19 501c20 -2 46 -2 69 -2c-6 38 -19 70 -28 86c27 -2 69 -2 99 2c-17 -23 -27 -51 -34 -88h76c0 -5 -1 -31 -5 -38c-24 2 -49 3 -73 3c-2 -65 14 -117 39 -166c-20 -44 -40 -117 -39 -177c24 0 48 0 73 1c0 -10 0 -34 -2 -37c-20 2 -47 2 -70 2c5 -38 20 -71 30 -88
c-27 1 -70 4 -100 0c14 22 27 51 34 88h-76c0 5 1 30 5 37c24 -2 49 -2 73 -2c3 64 -17 129 -39 175c22 51 40 107 38 167c-24 0 -48 0 -72 -1c-1 9 0 35 2 38z" />
    <glyph glyph-name="bullet" unicode="&#x2022;" horiz-adv-x="231" 
d="M122 305c34 0 53 -18 53 -44c0 -34 -39 -54 -73 -54c-25 0 -45 16 -45 39c0 31 32 59 65 59z" />
    <glyph glyph-name="ellipsis" unicode="&#x2026;" horiz-adv-x="649" 
d="M117 75c39 0 47 -25 47 -39s-17 -46 -66 -46c-26 0 -46 12 -46 38c0 20 23 47 65 47zM333 75c40 0 48 -25 48 -39s-18 -46 -66 -46c-27 0 -47 12 -47 38c0 20 23 47 65 47zM549 75c40 0 48 -25 48 -39s-17 -46 -66 -46c-27 0 -47 12 -47 38c0 20 24 47 65 47z" />
    <glyph glyph-name="perthousand" unicode="&#x2030;" horiz-adv-x="1168" 
d="M655 583l-469 -593c-10 3 -31 7 -40 16l470 592c9 -2 33 -9 39 -15zM212 593c103 0 148 -69 148 -156c0 -45 -23 -104 -64 -136c-19 -16 -75 -38 -116 -38c-104 0 -143 90 -143 154c0 57 30 112 70 140c28 17 79 36 105 36zM204 549c-26 0 -81 -30 -81 -131
c0 -46 22 -113 69 -113c52 0 88 58 86 130c-3 75 -37 114 -74 114zM604 320c103 0 148 -69 148 -156c0 -45 -23 -104 -64 -135c-19 -16 -75 -39 -116 -39c-104 0 -143 90 -143 154c0 58 30 113 70 140c28 18 79 36 105 36zM596 277c-26 0 -81 -30 -81 -132
c0 -46 22 -113 69 -113c52 0 88 59 86 131c-3 75 -37 114 -74 114zM972 320c103 0 147 -69 147 -156c0 -45 -22 -104 -63 -135c-19 -16 -76 -39 -116 -39c-104 0 -143 90 -143 154c0 58 30 113 70 140c28 18 78 36 105 36zM964 277c-26 0 -81 -30 -81 -132
c0 -46 22 -113 69 -113c52 0 88 59 86 131c-3 75 -37 114 -74 114z" />
    <glyph glyph-name="guilsinglleft" unicode="&#x2039;" horiz-adv-x="198" 
d="M157 58c-3 -5 -24 -13 -33 -14c-22 42 -57 92 -97 144c30 39 77 103 101 146c8 -3 27 -6 33 -13c-22 -49 -34 -90 -44 -132c8 -41 18 -79 40 -131z" />
    <glyph glyph-name="guilsinglright" unicode="&#x203a;" horiz-adv-x="208" 
d="M44 321c3 5 24 13 33 14c22 -42 57 -92 97 -144c-30 -39 -77 -103 -101 -146c-8 3 -27 6 -33 13c22 49 34 91 44 132c-8 41 -18 79 -40 131z" />
    <glyph glyph-name="fraction" unicode="&#x2044;" horiz-adv-x="583" 
d="M528 581l-435 -594c-11 3 -30 9 -39 18l435 595c10 -2 35 -13 39 -19z" />
    <glyph glyph-name="Euro" unicode="&#x20ac;" 
d="M12 272c8 -1 16 -1 25 -1c0 21 1 40 5 60h-33c-3 9 1 31 3 37c12 -1 24 -1 35 -1c11 52 29 103 50 132c26 37 99 96 146 96c52 0 84 -17 122 -47c-5 -8 -13 -17 -25 -22c-32 19 -60 30 -97 30c-54 0 -93 -78 -111 -191c57 0 114 0 163 1c0 -11 -3 -27 -9 -37
c-64 1 -105 2 -157 2c-2 -21 -4 -41 -3 -61h140c0 -10 -5 -27 -9 -37c-51 2 -88 3 -128 3c7 -115 31 -196 105 -196c27 0 75 18 115 45c9 -5 19 -14 24 -24c-28 -26 -118 -76 -170 -76c-132 0 -163 128 -166 251h-29c-2 8 1 30 4 36z" />
    <glyph glyph-name="trademark" unicode="&#x2122;" horiz-adv-x="732" 
d="M234 230c41 85 74 191 101 277c6 19 16 62 16 80c6 1 19 1 28 5c24 -65 66 -172 105 -251c28 56 73 141 84 168c15 36 20 49 26 77c8 1 22 2 29 4c18 -91 50 -215 91 -358c-16 4 -74 4 -86 1c-9 77 -25 161 -45 230c-39 -77 -76 -150 -103 -227c-5 -3 -21 -5 -29 -10
c-42 119 -53 149 -94 240c-27 -89 -42 -139 -59 -231zM8 583c115 -2 178 -2 282 0c1 -5 0 -20 0 -27c-40 -4 -79 -8 -108 -12c-3 -55 -3 -188 4 -308c-15 1 -54 1 -75 0c4 54 7 277 5 307c-28 5 -59 8 -108 11c-1 5 -1 22 0 29z" />
    <glyph glyph-name="partialdiff" unicode="&#x2202;" horiz-adv-x="410" 
d="M368 340c-31 -190 -139 -312 -281 -358c-42 40 -55 109 -55 161c0 139 102 249 207 249c27 0 42 -2 54 -4c20 139 -48 173 -171 163c0 8 3 28 8 35c212 21 269 -88 238 -246zM288 348c-18 4 -27 5 -52 5c-53 0 -126 -53 -126 -177c0 -42 14 -91 35 -121
c44 25 88 62 119 166c6 20 21 74 24 127z" />
    <glyph glyph-name="increment" unicode="&#x2206;" horiz-adv-x="563" 
d="M546 2l-3 -4c-92 4 -459 4 -539 -1l-2 5c70 103 159 283 229 439c32 72 42 102 52 147c10 5 19 8 31 10c71 -233 154 -423 232 -596zM280 450l-185 -405c144 -7 225 -5 327 -2c-32 110 -89 250 -126 356c-6 18 -12 36 -16 51z" />
    <glyph glyph-name="product" unicode="&#x220f;" horiz-adv-x="599" 
d="M151 -160c-26 3 -79 5 -103 2c12 135 15 619 7 742c131 -3 357 -3 496 1c-17 -148 -13 -597 -6 -745c-26 3 -78 5 -102 2c11 123 14 536 8 699c-140 4 -161 4 -297 2c-13 -189 -11 -565 -3 -703z" />
    <glyph glyph-name="summation" unicode="&#x2211;" horiz-adv-x="500" 
d="M501 -60c-9 -31 -22 -75 -26 -100c-66 6 -280 5 -449 2c-5 5 -9 14 -9 21c59 70 169 251 242 372c-59 96 -172 261 -223 325c1 2 0 12 12 24c138 -2 338 -4 431 15c-11 -17 -18 -43 -24 -65c-98 10 -199 14 -302 14c10 -14 19 -28 28 -42c50 -79 102 -154 160 -234
c-73 -102 -160 -243 -218 -344c59 -2 299 -7 378 12z" />
    <glyph glyph-name="minus" unicode="&#x2212;" 
d="M54 271c101 -2 237 -2 312 -1c1 -11 -1 -29 -6 -39c-96 2 -184 3 -309 2c-4 8 1 33 3 38z" />
    <glyph glyph-name="radical" unicode="&#x221a;" horiz-adv-x="481" 
d="M166 396c5 -46 39 -147 65 -222l9 -32c48 115 178 471 185 538c19 -1 63 5 81 9c-43 -72 -193 -468 -232 -574c-11 -31 -31 -91 -34 -117c-12 -8 -23 -10 -37 -14c-38 128 -88 282 -110 336c-20 -7 -37 -13 -59 -25c-4 7 -14 26 -14 33c37 16 116 52 146 68z" />
    <glyph glyph-name="infinity" unicode="&#x221e;" horiz-adv-x="708" 
d="M199 -10c-135 -1 -160 119 -160 188c0 70 26 134 75 170c32 23 67 43 106 43c72 0 115 -32 144 -101c62 72 112 101 149 101c105 0 152 -72 152 -190c0 -56 -21 -124 -67 -164c-35 -30 -69 -47 -107 -47c-71 0 -116 31 -146 104c-51 -64 -97 -104 -146 -104zM379 251
c29 -87 56 -209 137 -209c34 0 66 47 65 149c-1 100 -31 140 -85 140c-39 0 -91 -44 -117 -80zM199 340c-40 0 -76 -44 -76 -155c0 -73 26 -135 88 -135c40 0 80 34 118 84c-24 67 -53 206 -130 206z" />
    <glyph glyph-name="integral" unicode="&#x222b;" horiz-adv-x="247" 
d="M142 45c0 -145 -21 -204 -83 -272c-35 -39 -97 -54 -140 -40c0 9 0 25 2 34c118 0 134 133 136 213c5 147 -3 287 3 427c2 72 83 177 146 183c16 1 40 -6 58 -13c-3 -11 -9 -27 -14 -36c-10 5 -24 6 -37 6c-22 0 -44 -25 -54 -51c-10 -29 -16 -44 -18 -104
c-3 -118 1 -233 1 -347z" />
    <glyph glyph-name="notequal" unicode="&#x2260;" 
d="M52 302c48 -1 104 -2 159 -2l29 92c9 1 38 -1 43 -5l-32 -87h117c1 -10 -1 -31 -6 -41c-41 1 -81 2 -123 2c-9 -26 -17 -53 -25 -78c59 -1 115 0 154 0c1 -11 -1 -31 -6 -41c-52 2 -104 2 -159 3l-27 -92c-10 0 -33 -1 -44 4l30 88h-113c-3 8 1 34 3 40
c37 -1 80 -2 122 -2c9 26 17 53 25 78c-45 1 -95 1 -150 0c-3 9 1 35 3 41z" />
    <glyph glyph-name="lozenge" unicode="&#x25ca;" horiz-adv-x="433" 
d="M215 611c11 3 19 2 27 1c41 -110 136 -274 167 -306c-46 -65 -146 -214 -186 -309c-11 -4 -22 -3 -29 -1c-42 113 -139 279 -170 309c56 60 149 213 191 306zM211 67c44 90 89 199 100 236c-16 62 -55 172 -85 243c-45 -91 -90 -204 -100 -241c15 -56 55 -168 85 -238z
" />
    </font>
</defs>
</svg>
