<?xml version="1.0" standalone="no"?>
<!DOCTYPE svg PUBLIC "-//W3C//DTD SVG 1.1//EN" "http://www.w3.org/Graphics/SVG/1.1/DTD/svg11.dtd" >
<svg xmlns="http://www.w3.org/2000/svg" xmlns:xlink="http://www.w3.org/1999/xlink" version="1.1">
<metadata>
Created by FontForge 20230101 at Thu Jul 22 12:24:14 2021
 By Glenn Lewis
Copyright 2017 The EB Garamond Project Authors (https://github.com/octaviopardo/EBGaramond12)
</metadata>
<defs>
<font id="EBGaramond-MediumItalic" horiz-adv-x="0" >
  <font-face 
    font-family="EB Garamond Medium"
    font-weight="500"
    font-style="italic"
    font-stretch="normal"
    units-per-em="1000"
    panose-1="0 0 0 0 0 0 0 0 0 0"
    ascent="800"
    descent="-200"
    x-height="421"
    cap-height="654"
    bbox="-328 -352 2567 998.1"
    underline-thickness="50"
    underline-position="-125"
    slope="-17.2"
    unicode-range="U+000D-1F44D"
  />
<missing-glyph horiz-adv-x="505" 
d="M56 0v496h419v-496h-419zM122 69h288v358h-288v-358z" />
    <glyph glyph-name="f_f" unicode="ff" horiz-adv-x="644" 
d="M159 -290q-37 0 -65.5 11.5t-44.5 30.5t-17 41l45 61q17 -54 42.5 -76.5t62.5 -22.5q54 0 88.5 37t57.5 113l156 566q24 85 65 136.5t87.5 75t84.5 23.5q45 0 72 -20t27 -52q0 -25 -13.5 -41t-29.5 -16q-10 0 -17 13t-15 31q-8 20 -21 32t-34 12q-25 0 -43.5 -17.5
t-34 -51.5t-31.5 -84q-6 -20 -10.5 -38t-9.5 -37q-2 -6 -3 -10.5t-1 -9.5q-1 -6 3 -8.5t9 -2.5q29 0 54.5 1.5t50.5 1.5q9 0 9 -12q0 -4 -4 -12t-10.5 -14t-14.5 -6l-87 -2q-13 0 -20 -4t-10 -15l-110 -387q-25 -89 -70.5 -143.5t-98 -79t-99.5 -24.5zM-96 -290
q-49 0 -74.5 16.5t-25.5 42.5q0 18 15 32.5t28 14.5q9 0 17.5 -10.5t18.5 -22.5q9 -12 21.5 -21.5t30.5 -9.5q17 0 30.5 11.5t25.5 39t26 74.5l135 464q5 18 -14 18l-62 -1q-8 0 -11 4t-3 10q0 8 7 18t17 11l67 4q7 1 11 5.5t6 12.5l7 20q21 67 53.5 114.5t70 76.5t75 43
t70.5 14q36 0 64.5 -11.5t45 -30.5t17.5 -42l-45 -61q-17 54 -42.5 76.5t-62.5 22.5q-54 0 -89 -37t-57 -112q-11 -39 -15.5 -54.5t-5.5 -18.5t-1 -6q0 -6 3.5 -8.5t8.5 -2.5l242 3q9 0 9 -12q0 -4 -4 -12t-10.5 -14t-14.5 -6l-224 -2q-12 0 -19.5 -4t-9.5 -15l-127 -448
q-10 -38 -34.5 -72t-55.5 -59.5t-61 -40t-54 -14.5z" />
    <glyph glyph-name="uniFB01" unicode="fi" horiz-adv-x="588" 
d="M-96 -290q-49 0 -74.5 16.5t-25.5 42.5q0 18 15 32.5t28 14.5q9 0 17.5 -10.5t18.5 -22.5q9 -12 21.5 -21.5t30.5 -9.5q17 0 30.5 11.5t25.5 39t26 74.5l135 464q5 18 -14 18l-62 -1q-8 0 -11 4t-3 10q0 8 7 18t17 11l67 4q12 1 17 18l8 30q20 69 53.5 117.5t74 78
t79.5 43t69 13.5q56 0 88.5 -20t32.5 -51q0 -25 -12.5 -41.5t-28.5 -16.5q-12 0 -20.5 13.5t-16.5 30.5q-10 20 -23 32.5t-37 12.5q-21 0 -45 -12t-47 -34t-41 -53t-28 -69l-21 -80q0 -6 3.5 -8.5t8.5 -2.5q15 0 44.5 0.5t64 1t63.5 1t42 0.5q8 0 8 -12q0 -4 -4 -12t-10 -14
t-14 -6l-196 -2q-12 0 -19.5 -4t-9.5 -15q-34 -111 -66 -224t-61 -224q-10 -38 -34.5 -72t-55.5 -59.5t-61 -40t-54 -14.5zM353 -14q-19 0 -32.5 13.5t-13.5 27.5q0 4 0.5 8.5t2.5 9.5l135 331l-35 32q24 1 44.5 2.5t34.5 8.5q11 5 22 -1.5t18 -17t4 -17.5l-119 -285
q-3 -6 -4 -12.5t-1 -11.5q0 -6 4 -8t9 -2q11 0 29.5 12.5t39 31t38.5 35.5q2 3 4 3q3 0 5.5 -2.5t2.5 -6.5q0 -16 -20 -41.5t-49.5 -50.5t-61.5 -42t-57 -17z" />
    <glyph glyph-name="uniFB02" unicode="fl" horiz-adv-x="620" 
d="M-96 -290q-49 0 -74.5 16.5t-25.5 42.5q0 18 15 32.5t28 14.5q9 0 17.5 -10.5t18.5 -22.5q9 -12 21.5 -21.5t30.5 -9.5q17 0 30.5 11.5t25.5 39t26 74.5l135 464q5 18 -14 18l-62 -1q-8 0 -11 4t-3 10q0 8 7 18t17 11l67 4q11 1 17 18l12 35q29 88 76 142.5t99 79.5
t97 25q35 0 62.5 -11.5t44 -30.5t17.5 -41l-42 -58q-17 53 -43 74t-61 21q-53 0 -89.5 -34.5t-60.5 -114.5q-11 -35 -16.5 -54t-8 -27.5t-2.5 -11.5q0 -6 3.5 -8.5t8.5 -2.5l215 3q9 0 9 -12q0 -4 -4 -12t-10.5 -14t-14.5 -6l-197 -2q-12 0 -19.5 -4t-9.5 -15l-127 -448
q-11 -38 -35 -72t-55 -59.5t-61 -40t-54 -14.5zM386 -14q-17 0 -33 15.5t-16 32.5q0 7 3 15l182 527q8 21 8 34.5t-6 23.5q-4 7 -12 14t-17 11q-7 3 -10 7t0 7q8 4 17.5 7.5t19 6.5t16.5 4q14 4 34.5 8t39 6.5t24.5 2.5q5 0 8.5 -4.5t3.5 -12.5q-1 -6 -3.5 -15t-5.5 -18
l-195 -557q-2 -7 -3 -13t-1 -11q0 -15 10 -15q13 0 31.5 13.5t37 33t30.5 35.5q5 6 11 11.5t9 5.5q5 0 6 -4.5t1 -9.5q0 -19 -14 -40.5t-36.5 -43t-48.5 -39t-50 -28t-41 -10.5z" />
    <glyph glyph-name="uniFB03" unicode="ffi" horiz-adv-x="874" 
d="M143 -290q-37 0 -65.5 11.5t-45 30.5t-17.5 41l45 61q18 -54 43.5 -76.5t61.5 -22.5q54 0 89 37t57 113l152 541q19 73 52.5 122.5t74.5 79.5t81 43.5t70 13.5q56 0 88.5 -20t32.5 -51q0 -25 -12.5 -41.5t-28.5 -16.5q-13 0 -21 13.5t-17 30.5q-9 20 -22 32.5t-37 12.5
q-22 0 -45.5 -12t-46.5 -34t-41 -53t-28 -69l-21 -80q-1 -6 3 -8.5t9 -2.5q14 0 44 0.5t64.5 1t63.5 1t42 0.5q8 0 8 -12q0 -4 -4 -12t-10.5 -14t-13.5 -6l-196 -2q-13 0 -20 -4t-10 -15q-17 -56 -31 -102.5t-26.5 -90.5t-25.5 -91t-28 -103q-25 -89 -70.5 -143.5t-98 -79
t-99.5 -24.5zM-96 -290q-49 0 -74.5 16.5t-25.5 42.5q0 18 15 32.5t28 14.5q9 0 17.5 -10.5t18.5 -22.5q9 -12 21.5 -21.5t30.5 -9.5q17 0 30.5 11.5t25.5 39t26 74.5l135 464q5 18 -14 18l-62 -1q-8 0 -11 4t-3 10q0 8 7 18t17 11l67 4q7 1 11 5.5t6 12.5l6 20
q21 67 53.5 114.5t70 77t75.5 43t71 13.5q36 0 64.5 -11.5t45 -30.5t17.5 -42l-42 -58q-12 36 -27.5 56.5t-35 30t-43.5 9.5q-37 0 -64.5 -16.5t-48 -49.5t-35.5 -83q-11 -39 -15.5 -54.5t-5.5 -18.5t-1 -6q0 -6 3.5 -8.5t8.5 -2.5l242 3q9 0 9 -12q0 -4 -4 -12t-10.5 -14
t-14.5 -6l-224 -2q-12 0 -19.5 -4t-9.5 -15l-127 -448q-10 -38 -34.5 -72t-55.5 -59.5t-61 -40t-54 -14.5zM640 -14q-19 0 -32.5 13.5t-13.5 27.5q0 4 0.5 8.5t2.5 9.5l135 331l-35 32q23 1 43.5 2.5t34.5 8.5q11 5 22.5 -1.5t18 -17t3.5 -17.5l-118 -285q-3 -6 -4.5 -12.5
t-1.5 -11.5q0 -6 4.5 -8t8.5 -2q12 0 30.5 12.5t39 31t37.5 35.5q3 3 4 3q3 0 6 -2.5t3 -6.5q0 -16 -20 -41.5t-50 -50.5t-61.5 -42t-56.5 -17z" />
    <glyph glyph-name="uniFB04" unicode="ffl" horiz-adv-x="908" 
d="M143 -290q-37 0 -65.5 11.5t-45 30.5t-17.5 41l45 61q18 -54 43.5 -76.5t61.5 -22.5q54 0 89.5 37t56.5 113l155 546q19 70 51.5 118.5t71 78t78 43.5t72.5 14q35 0 63 -11.5t44 -30.5t17 -41l-42 -58q-16 53 -42 74t-61 21q-53 0 -90 -34.5t-61 -114.5
q-10 -35 -15.5 -54t-8 -27.5t-2.5 -11.5q-1 -6 3 -8.5t9 -2.5l215 3q8 0 8 -12q0 -4 -4 -12t-10 -14t-14 -6l-197 -2q-13 0 -20 -4t-10 -15l-110 -387q-26 -89 -71.5 -143.5t-97.5 -79t-99 -24.5zM-96 -290q-49 0 -74.5 16.5t-25.5 42.5q0 18 15 32.5t28 14.5
q9 0 17.5 -10.5t18.5 -22.5q9 -12 21.5 -21.5t30.5 -9.5q17 0 30.5 11.5t25.5 39t26 74.5l135 464q5 18 -14 18l-62 -1q-8 0 -11 4t-3 10q0 8 7 18t17 11l67 4q7 1 11 5.5t6 12.5l6 20q20 68 52 115.5t70 76.5t76.5 42.5t71.5 13.5q36 0 64.5 -11.5t45 -30.5t17.5 -42
l-42 -58q-12 36 -27.5 56.5t-35 30t-43.5 9.5q-37 0 -64.5 -16.5t-48 -49.5t-35.5 -83q-11 -39 -15.5 -54.5t-5.5 -18.5t-1 -6q0 -6 3.5 -8.5t8.5 -2.5l242 3q9 0 9 -12q0 -4 -4 -12t-10.5 -14t-14.5 -6l-224 -2q-12 0 -19.5 -4t-9.5 -15l-127 -448q-11 -38 -35 -72
t-55 -59.5t-61 -40t-54 -14.5zM673 -14q-16 0 -32.5 15.5t-16.5 32.5q0 7 3 15l183 527q7 21 7 34.5t-5 23.5q-5 7 -12.5 14t-17.5 11q-6 3 -9.5 7t0.5 7q8 4 17.5 7.5t19 6.5t15.5 4q15 4 35.5 8t38.5 6.5t24 2.5t9.5 -4.5t2.5 -12.5q-1 -6 -3.5 -15t-5.5 -18l-195 -557
q-2 -7 -3 -13t-1 -11q0 -15 11 -15q12 0 30.5 13.5t37 33t30.5 35.5q5 6 11 11.5t9 5.5q5 0 6 -4.5t1 -9.5q0 -19 -13.5 -40.5t-36 -43t-48.5 -39t-50 -28t-42 -10.5z" />
    <glyph glyph-name=".notdef" horiz-adv-x="505" 
d="M56 0v496h419v-496h-419zM122 69h288v358h-288v-358z" />
    <glyph glyph-name="A" unicode="A" horiz-adv-x="689" 
d="M-39 -5q-11 0 -16.5 3t-6.5 11q0 9 9 13.5t23 7.5q25 7 49 17.5t45.5 25t37.5 32.5q71 79 133 154t121 149.5t120 149.5q14 17 24 32t17 24t11 9q23 0 35.5 6t26.5 19q15 14 23.5 20.5t14.5 6.5q7 0 9 -10.5t-3 -31.5l-102 -514q-9 -43 1.5 -63t41.5 -28q15 -4 22.5 -7.5
t7.5 -11.5q0 -7 -8 -10t-23 -3t-38 1.5t-47.5 2.5t-46.5 1h-39.5t-42 -1t-34.5 -1q-21 0 -23 13q0 8 8 13.5t20 7.5q30 5 48 12.5t28.5 22t16.5 40.5l31 120q3 12 -4.5 18t-20.5 6l-126 -2q-14 0 -22.5 -4t-15.5 -14l-91 -119q-20 -26 -22.5 -42t7 -24t25.5 -13
q10 -3 17.5 -8.5t7.5 -13.5q0 -7 -8.5 -10t-20.5 -3q-19 0 -41.5 1t-49.5 1q-31 0 -67 -3t-62 -3zM336 288l112 1q10 0 15.5 5t8.5 18l48 219q2 10 2 15.5t-5 5.5q-3 0 -7.5 -2t-9.5 -9l-179 -232q-8 -10 -8 -15.5t23 -5.5z" />
    <glyph glyph-name="Aacute" unicode="&#xc1;" horiz-adv-x="689" 
d="M-39 -5q-11 0 -16.5 3t-6.5 11q0 9 9 13.5t23 7.5q25 7 49 17.5t45.5 25t37.5 32.5q71 79 133 154t121 149.5t120 149.5q14 17 24 32t17 24t11 9q23 0 35.5 6t26.5 19q15 14 23.5 20.5t14.5 6.5q7 0 9 -10.5t-3 -31.5l-102 -514q-9 -43 1.5 -63t41.5 -28q15 -4 22.5 -7.5
t7.5 -11.5q0 -7 -8 -10t-23 -3t-38 1.5t-47.5 2.5t-46.5 1h-39.5t-42 -1t-34.5 -1q-21 0 -23 13q0 8 8 13.5t20 7.5q30 5 48 12.5t28.5 22t16.5 40.5l31 120q3 12 -4.5 18t-20.5 6l-126 -2q-14 0 -22.5 -4t-15.5 -14l-91 -119q-20 -26 -22.5 -42t7 -24t25.5 -13
q10 -3 17.5 -8.5t7.5 -13.5q0 -7 -8.5 -10t-20.5 -3q-19 0 -41.5 1t-49.5 1q-31 0 -67 -3t-62 -3zM336 288l112 1q10 0 15.5 5t8.5 18l48 219q2 10 2 15.5t-5 5.5q-3 0 -7.5 -2t-9.5 -9l-179 -232q-8 -10 -8 -15.5t23 -5.5zM581 692q-7 0 -8 7q0 7 6 17q20 32 40.5 63
t42.5 62q10 13 29 13q8 0 23.5 -3.5t28 -9t12.5 -13.5t-14 -20q-32 -27 -69.5 -54.5t-69.5 -51.5q-8 -6 -13 -8t-8 -2z" />
    <glyph glyph-name="Abreve" unicode="&#x102;" horiz-adv-x="689" 
d="M-39 -5q-11 0 -16.5 3t-6.5 11q0 9 9 13.5t23 7.5q25 7 49 17.5t45.5 25t37.5 32.5q71 79 133 154t121 149.5t120 149.5q14 17 24 32t17 24t11 9q23 0 35.5 6t26.5 19q15 14 23.5 20.5t14.5 6.5q7 0 9 -10.5t-3 -31.5l-102 -514q-9 -43 1.5 -63t41.5 -28q15 -4 22.5 -7.5
t7.5 -11.5q0 -7 -8 -10t-23 -3t-38 1.5t-47.5 2.5t-46.5 1h-39.5t-42 -1t-34.5 -1q-21 0 -23 13q0 8 8 13.5t20 7.5q30 5 48 12.5t28.5 22t16.5 40.5l31 120q3 12 -4.5 18t-20.5 6l-126 -2q-14 0 -22.5 -4t-15.5 -14l-91 -119q-20 -26 -22.5 -42t7 -24t25.5 -13
q10 -3 17.5 -8.5t7.5 -13.5q0 -7 -8.5 -10t-20.5 -3q-19 0 -41.5 1t-49.5 1q-31 0 -67 -3t-62 -3zM336 288l112 1q10 0 15.5 5t8.5 18l48 219q2 10 2 15.5t-5 5.5q-3 0 -7.5 -2t-9.5 -9l-179 -232q-8 -10 -8 -15.5t23 -5.5zM633 700q-43 0 -68.5 13.5t-36.5 33.5t-12 40
q0 15 5 27t17 12q8 0 10.5 -7t5.5 -14q8 -21 28.5 -32t52.5 -11q30 0 57 8t48 37q7 9 13 14t14 5q11 0 12 -20q0 -11 -7.5 -28.5t-24.5 -35t-45 -30t-69 -12.5z" />
    <glyph glyph-name="Acircumflex" unicode="&#xc2;" horiz-adv-x="689" 
d="M-39 -5q-11 0 -16.5 3t-6.5 11q0 9 9 13.5t23 7.5q25 7 49 17.5t45.5 25t37.5 32.5q71 79 133 154t121 149.5t120 149.5q14 17 24 32t17 24t11 9q23 0 35.5 6t26.5 19q15 14 23.5 20.5t14.5 6.5q7 0 9 -10.5t-3 -31.5l-102 -514q-9 -43 1.5 -63t41.5 -28q15 -4 22.5 -7.5
t7.5 -11.5q0 -7 -8 -10t-23 -3t-38 1.5t-47.5 2.5t-46.5 1h-39.5t-42 -1t-34.5 -1q-21 0 -23 13q0 8 8 13.5t20 7.5q30 5 48 12.5t28.5 22t16.5 40.5l31 120q3 12 -4.5 18t-20.5 6l-126 -2q-14 0 -22.5 -4t-15.5 -14l-91 -119q-20 -26 -22.5 -42t7 -24t25.5 -13
q10 -3 17.5 -8.5t7.5 -13.5q0 -7 -8.5 -10t-20.5 -3q-19 0 -41.5 1t-49.5 1q-31 0 -67 -3t-62 -3zM336 288l112 1q10 0 15.5 5t8.5 18l48 219q2 10 2 15.5t-5 5.5q-3 0 -7.5 -2t-9.5 -9l-179 -232q-8 -10 -8 -15.5t23 -5.5zM485 695q-17 0 -15 11q1 6 9 13l127 86
q20 13 30 18.5t19 5.5q12 0 21 -6.5t18 -17.5l74 -86q3 -4 4 -7t1 -6q-1 -12 -16 -12q-7 0 -27 9.5t-41.5 22.5t-34.5 21q-12 9 -26 1q-10 -5 -31 -14t-44.5 -18t-42 -15t-25.5 -6z" />
    <glyph glyph-name="Adieresis" unicode="&#xc4;" horiz-adv-x="689" 
d="M-39 -5q-11 0 -16.5 3t-6.5 11q0 9 9 13.5t23 7.5q25 7 49 17.5t45.5 25t37.5 32.5q71 79 133 154t121 149.5t120 149.5q14 17 24 32t17 24t11 9q23 0 35.5 6t26.5 19q15 14 23.5 20.5t14.5 6.5q7 0 9 -10.5t-3 -31.5l-102 -514q-9 -43 1.5 -63t41.5 -28q15 -4 22.5 -7.5
t7.5 -11.5q0 -7 -8 -10t-23 -3t-38 1.5t-47.5 2.5t-46.5 1h-39.5t-42 -1t-34.5 -1q-21 0 -23 13q0 8 8 13.5t20 7.5q30 5 48 12.5t28.5 22t16.5 40.5l31 120q3 12 -4.5 18t-20.5 6l-126 -2q-14 0 -22.5 -4t-15.5 -14l-91 -119q-20 -26 -22.5 -42t7 -24t25.5 -13
q10 -3 17.5 -8.5t7.5 -13.5q0 -7 -8.5 -10t-20.5 -3q-19 0 -41.5 1t-49.5 1q-31 0 -67 -3t-62 -3zM336 288l112 1q10 0 15.5 5t8.5 18l48 219q2 10 2 15.5t-5 5.5q-3 0 -7.5 -2t-9.5 -9l-179 -232q-8 -10 -8 -15.5t23 -5.5zM721 696q-19 0 -31.5 14t-12.5 31q0 29 20 49.5
t50 20.5q20 0 32 -15t12 -34q0 -18 -10 -33t-25.5 -24t-34.5 -9zM521 696q-19 0 -32 14t-13 31q0 29 20.5 49.5t50.5 20.5q19 0 31 -15t12 -34q0 -26 -20.5 -46t-48.5 -20z" />
    <glyph glyph-name="Agrave" unicode="&#xc0;" horiz-adv-x="689" 
d="M-39 -5q-11 0 -16.5 3t-6.5 11q0 9 9 13.5t23 7.5q25 7 49 17.5t45.5 25t37.5 32.5q71 79 133 154t121 149.5t120 149.5q14 17 24 32t17 24t11 9q23 0 35.5 6t26.5 19q15 14 23.5 20.5t14.5 6.5q7 0 9 -10.5t-3 -31.5l-102 -514q-9 -43 1.5 -63t41.5 -28q15 -4 22.5 -7.5
t7.5 -11.5q0 -7 -8 -10t-23 -3t-38 1.5t-47.5 2.5t-46.5 1h-39.5t-42 -1t-34.5 -1q-21 0 -23 13q0 8 8 13.5t20 7.5q30 5 48 12.5t28.5 22t16.5 40.5l31 120q3 12 -4.5 18t-20.5 6l-126 -2q-14 0 -22.5 -4t-15.5 -14l-91 -119q-20 -26 -22.5 -42t7 -24t25.5 -13
q10 -3 17.5 -8.5t7.5 -13.5q0 -7 -8.5 -10t-20.5 -3q-19 0 -41.5 1t-49.5 1q-31 0 -67 -3t-62 -3zM336 288l112 1q10 0 15.5 5t8.5 18l48 219q2 10 2 15.5t-5 5.5q-3 0 -7.5 -2t-9.5 -9l-179 -232q-8 -10 -8 -15.5t23 -5.5zM653 696q-2 0 -7.5 1.5t-13.5 6.5
q-33 22 -72 47.5t-72 49.5q-14 11 -15 20q-1 7 11.5 13.5t27.5 11t22 4.5q19 2 30 -11q24 -30 45.5 -60t43.5 -59q8 -9 8 -17q0 -7 -8 -7z" />
    <glyph glyph-name="Amacron" unicode="&#x100;" horiz-adv-x="689" 
d="M-39 -5q-11 0 -16.5 3t-6.5 11q0 9 9 13.5t23 7.5q25 7 49 17.5t45.5 25t37.5 32.5q71 79 133 154t121 149.5t120 149.5q14 17 24 32t17 24t11 9q23 0 35.5 6t26.5 19q15 14 23.5 20.5t14.5 6.5q7 0 9 -10.5t-3 -31.5l-102 -514q-9 -43 1.5 -63t41.5 -28q15 -4 22.5 -7.5
t7.5 -11.5q0 -7 -8 -10t-23 -3t-38 1.5t-47.5 2.5t-46.5 1h-39.5t-42 -1t-34.5 -1q-21 0 -23 13q0 8 8 13.5t20 7.5q30 5 48 12.5t28.5 22t16.5 40.5l31 120q3 12 -4.5 18t-20.5 6l-126 -2q-14 0 -22.5 -4t-15.5 -14l-91 -119q-20 -26 -22.5 -42t7 -24t25.5 -13
q10 -3 17.5 -8.5t7.5 -13.5q0 -7 -8.5 -10t-20.5 -3q-19 0 -41.5 1t-49.5 1q-31 0 -67 -3t-62 -3zM336 288l112 1q10 0 15.5 5t8.5 18l48 219q2 10 2 15.5t-5 5.5q-3 0 -7.5 -2t-9.5 -9l-179 -232q-8 -10 -8 -15.5t23 -5.5zM506 721q-7 0 -11.5 4.5t-4.5 9.5q0 14 7 30
t21 16h255q6 0 10.5 -4t4.5 -10q0 -19 -10.5 -32.5t-24.5 -13.5h-247z" />
    <glyph glyph-name="Aogonek" unicode="&#x104;" horiz-adv-x="701" 
d="M-39 -5q-11 0 -16.5 3t-6.5 11q0 9 9 13.5t23 7.5q25 7 49 17.5t45.5 25t37.5 32.5q71 79 133 154t121 149.5t120 149.5q14 17 24 32t17 24t11 9q23 0 35.5 6t26.5 19q15 14 23.5 20.5t14.5 6.5q7 0 9 -10.5t-3 -31.5l-102 -514q-9 -43 1.5 -63t41.5 -28q15 -4 22.5 -7.5
t7.5 -11.5q0 -7 -8 -10t-23 -3t-38 1.5t-47.5 2.5t-46.5 1h-39.5t-42 -1t-34.5 -1q-21 0 -23 13q0 8 8 13.5t20 7.5q30 5 48 12.5t28.5 22t16.5 40.5l31 120q3 12 -4.5 18t-20.5 6l-126 -2q-14 0 -22.5 -4t-15.5 -14l-91 -119q-20 -26 -22.5 -42t7 -24t25.5 -13
q10 -3 17.5 -8.5t7.5 -13.5q0 -7 -8.5 -10t-20.5 -3q-19 0 -41.5 1t-49.5 1q-31 0 -67 -3t-62 -3zM336 288l112 1q10 0 15.5 5t8.5 18l48 219q2 10 2 15.5t-5 5.5q-3 0 -7.5 -2t-9.5 -9l-179 -232q-8 -10 -8 -15.5t23 -5.5zM393 -286q-17 0 -33.5 10.5t-26.5 28t-10 35.5
q0 39 18.5 73t47.5 62.5t63 52t67 42.5h32q-36 -25 -66.5 -55t-49 -65t-18.5 -74q0 -13 8.5 -26t26.5 -13q15 0 33.5 13.5t28.5 25.5q2 2 7 6t10.5 5.5t6.5 -6.5q2 -1 -0.5 -8t-4.5 -11q-9 -18 -24 -35t-33.5 -30.5t-39.5 -22t-43 -8.5z" />
    <glyph glyph-name="Aring" unicode="&#xc5;" horiz-adv-x="689" 
d="M-39 -5q-11 0 -16.5 3t-6.5 11q0 9 9 13.5t23 7.5q25 7 49 17.5t45.5 25t37.5 32.5q71 79 133 154t121 149.5t120 149.5q14 17 24 32t17 24t11 9q23 0 35.5 6t26.5 19q15 14 23.5 20.5t14.5 6.5q7 0 9 -10.5t-3 -31.5l-102 -514q-9 -43 1.5 -63t41.5 -28q15 -4 22.5 -7.5
t7.5 -11.5q0 -7 -8 -10t-23 -3t-38 1.5t-47.5 2.5t-46.5 1h-39.5t-42 -1t-34.5 -1q-21 0 -23 13q0 8 8 13.5t20 7.5q30 5 48 12.5t28.5 22t16.5 40.5l31 120q3 12 -4.5 18t-20.5 6l-126 -2q-14 0 -22.5 -4t-15.5 -14l-91 -119q-20 -26 -22.5 -42t7 -24t25.5 -13
q10 -3 17.5 -8.5t7.5 -13.5q0 -7 -8.5 -10t-20.5 -3q-19 0 -41.5 1t-49.5 1q-31 0 -67 -3t-62 -3zM336 288l112 1q10 0 15.5 5t8.5 18l48 219q2 10 2 15.5t-5 5.5q-3 0 -7.5 -2t-9.5 -9l-179 -232q-8 -10 -8 -15.5t23 -5.5zM623 699q-29 0 -54 15t-25 42q0 42 33 68.5
t77 26.5q19 0 37.5 -7t30 -20.5t11.5 -32.5q0 -43 -32.5 -67.5t-77.5 -24.5zM633 724q25 0 38 18.5t13 44.5q0 16 -11.5 26.5t-26.5 10.5q-25 0 -39 -19t-14 -45q0 -15 12 -25.5t28 -10.5z" />
    <glyph glyph-name="Aringacute" unicode="&#x1fa;" horiz-adv-x="641" 
d="M-39 -5q-11 0 -16.5 3t-6.5 11q0 9 9 13.5t23 7.5q25 7 49 17.5t45.5 25t37.5 32.5q71 79 133 154t121 149.5t120 149.5q14 17 24 32t17 24t11 9q23 0 35.5 6t26.5 19q15 14 23.5 20.5t14.5 6.5q7 0 9 -10.5t-3 -31.5l-102 -514q-9 -43 1.5 -63t41.5 -28q15 -4 22.5 -7.5
t7.5 -11.5q0 -7 -8 -10t-23 -3t-38 1.5t-47.5 2.5t-46.5 1h-39.5t-42 -1t-34.5 -1q-21 0 -23 13q0 8 8 13.5t20 7.5q30 5 48 12.5t28.5 22t16.5 40.5l31 120q3 12 -4.5 18t-20.5 6l-126 -2q-14 0 -22.5 -4t-15.5 -14l-91 -119q-20 -26 -22.5 -42t7 -24t25.5 -13
q10 -3 17.5 -8.5t7.5 -13.5q0 -7 -8.5 -10t-20.5 -3q-19 0 -41.5 1t-49.5 1q-31 0 -67 -3t-62 -3zM336 288l112 1q10 0 15.5 5t8.5 18l48 219q2 10 2 15.5t-5 5.5q-3 0 -7.5 -2t-9.5 -9l-179 -232q-8 -10 -8 -15.5t23 -5.5zM623 699q-29 0 -54 15t-25 42q0 42 33 68.5
t77 26.5q19 0 37.5 -7t30 -20.5t11.5 -32.5q0 -43 -32.5 -67.5t-77.5 -24.5zM633 724q25 0 38 18.5t13 44.5q0 16 -11.5 26.5t-26.5 10.5q-25 0 -39 -19t-14 -45q0 -15 12 -25.5t28 -10.5zM696 870q-6 0 -13 -0.5t-12 1.5q-3 1 -5.5 4t1.5 9q9 8 22.5 18t24.5 18q6 5 21 15
t33 21.5t35 20.5t27 13q8 1 14 -2.5t10 -7.5l6 -6q9 -1 15 -9t9 -17.5t1 -14.5q-13 -5 -26 -11t-27 -9q-7 -4 -24 -10t-38.5 -12.5t-41 -12t-32.5 -8.5z" />
    <glyph glyph-name="Atilde" unicode="&#xc3;" horiz-adv-x="689" 
d="M-39 -5q-11 0 -16.5 3t-6.5 11q0 9 9 13.5t23 7.5q25 7 49 17.5t45.5 25t37.5 32.5q71 79 133 154t121 149.5t120 149.5q14 17 24 32t17 24t11 9q23 0 35.5 6t26.5 19q15 14 23.5 20.5t14.5 6.5q7 0 9 -10.5t-3 -31.5l-102 -514q-9 -43 1.5 -63t41.5 -28q15 -4 22.5 -7.5
t7.5 -11.5q0 -7 -8 -10t-23 -3t-38 1.5t-47.5 2.5t-46.5 1h-39.5t-42 -1t-34.5 -1q-21 0 -23 13q0 8 8 13.5t20 7.5q30 5 48 12.5t28.5 22t16.5 40.5l31 120q3 12 -4.5 18t-20.5 6l-126 -2q-14 0 -22.5 -4t-15.5 -14l-91 -119q-20 -26 -22.5 -42t7 -24t25.5 -13
q10 -3 17.5 -8.5t7.5 -13.5q0 -7 -8.5 -10t-20.5 -3q-19 0 -41.5 1t-49.5 1q-31 0 -67 -3t-62 -3zM336 288l112 1q10 0 15.5 5t8.5 18l48 219q2 10 2 15.5t-5 5.5q-3 0 -7.5 -2t-9.5 -9l-179 -232q-8 -10 -8 -15.5t23 -5.5zM498 692q-5 0 -11 5.5t-6 10.5q0 4 9 18
t22.5 30.5t27 29t21.5 12.5q18 0 37.5 -1t36.5 -3q17 -1 35.5 -2t35.5 -1q11 0 20.5 6t16.5 13q8 7 12.5 13.5t7.5 6.5q7 0 14 -5t7 -12q0 -3 -4.5 -9t-11.5 -13q-11 -13 -23 -29l-21 -28q-6 -8 -16 -11t-14 -3q-7 0 -25.5 1t-42 3t-44.5 3.5t-32 1.5q-7 0 -16.5 -4.5
t-15.5 -10.5q-8 -7 -13 -14.5t-7 -7.5z" />
    <glyph glyph-name="AE" unicode="&#xc6;" horiz-adv-x="833" 
d="M-40 -5q-12 0 -18.5 3t-4.5 10q2 8 11 12.5t24 9.5q28 8 61 32.5t59 55.5l411 477q5 6 2.5 11t-13.5 7l-67 11q-15 4 -15 14q0 5 7 9.5t16 4.5q21 0 49.5 -1t60.5 -1.5t59 -0.5q34 0 73 0.5t75 0.5q47 0 75.5 3t46 6t29.5 3q6 0 11 -3.5t4 -12.5q-2 -26 -8.5 -60
t-13.5 -57q-3 -10 -8 -14t-10 -4t-7 3t-3 9q0 20 -2 38t-8 28q-7 13 -22 20.5t-35 7.5h-109q-16 0 -25.5 -11t-14.5 -24q-12 -29 -26 -68.5t-25.5 -79t-19.5 -66.5q-6 -19 -3 -27.5t12 -8.5h51.5t40.5 2q18 2 30.5 11t22.5 21q8 8 13.5 16t9.5 15q5 5 10 6.5t8 -1.5v-15.5
t-4 -19.5q-14 -33 -20.5 -64t-14.5 -65q-3 -9 -7 -14.5t-9 -5.5q-8 0 -11 8.5t-3 14.5q0 26 -9.5 40t-22.5 14q-27 0 -49 0.5t-47 0.5q-10 0 -18 -7.5t-14 -26.5q-11 -38 -21 -74.5t-23 -79.5q-8 -30 -1 -50t36 -20h94q27 0 47.5 6.5t36.5 18.5q17 13 30.5 30.5t26.5 37.5
q4 7 9.5 10.5t10.5 3.5q6 0 8.5 -5t0.5 -11q-8 -22 -17.5 -43t-19.5 -40t-20 -35q-3 -6 -8.5 -11t-12.5 -5q-29 0 -67.5 1t-80.5 2t-83 2t-76 1q-21 0 -39.5 -1.5t-37.5 -3t-43 -1.5q-11 0 -16 3t-4 9q4 13 33 19q37 8 57.5 22.5t30.5 49.5q12 39 25 85.5t23 78.5
q2 8 0.5 13t-14.5 5h-127q-9 0 -17 -5.5t-16 -15.5q-18 -22 -37 -46t-38.5 -49.5t-40.5 -52.5q-20 -26 -19 -41.5t15.5 -24.5t32.5 -14q13 -3 18.5 -8t3.5 -12t-9.5 -9.5t-19.5 -2.5q-19 0 -45 1t-53 1q-31 0 -62 -3t-56 -3zM340 318h106q10 0 12.5 2.5t6.5 11.5l71 237
q2 4 1.5 7t-3.5 3q-4 0 -10 -8l-191 -237q-8 -11 -6 -13.5t13 -2.5z" />
    <glyph glyph-name="AEacute" unicode="&#x1fc;" horiz-adv-x="833" 
d="M-40 -5q-12 0 -18.5 3t-4.5 10q2 8 11 12.5t24 9.5q28 8 61 32.5t59 55.5l411 477q5 6 2.5 11t-13.5 7l-67 11q-15 4 -15 14q0 5 7 9.5t16 4.5q21 0 49.5 -1t60.5 -1.5t59 -0.5q34 0 73 0.5t75 0.5q47 0 75.5 3t46 6t29.5 3q6 0 11 -3.5t4 -12.5q-2 -26 -8.5 -60
t-13.5 -57q-3 -10 -8 -14t-10 -4t-7 3t-3 9q0 20 -2 38t-8 28q-7 13 -22 20.5t-35 7.5h-109q-16 0 -25.5 -11t-14.5 -24q-12 -29 -26 -68.5t-25.5 -79t-19.5 -66.5q-6 -19 -3 -27.5t12 -8.5h51.5t40.5 2q18 2 30.5 11t22.5 21q8 8 13.5 16t9.5 15q5 5 10 6.5t8 -1.5v-15.5
t-4 -19.5q-14 -33 -20.5 -64t-14.5 -65q-3 -9 -7 -14.5t-9 -5.5q-8 0 -11 8.5t-3 14.5q0 26 -9.5 40t-22.5 14q-27 0 -49 0.5t-47 0.5q-10 0 -18 -7.5t-14 -26.5q-11 -38 -21 -74.5t-23 -79.5q-8 -30 -1 -50t36 -20h94q27 0 47.5 6.5t36.5 18.5q17 13 30.5 30.5t26.5 37.5
q4 7 9.5 10.5t10.5 3.5q6 0 8.5 -5t0.5 -11q-8 -22 -17.5 -43t-19.5 -40t-20 -35q-3 -6 -8.5 -11t-12.5 -5q-29 0 -67.5 1t-80.5 2t-83 2t-76 1q-21 0 -39.5 -1.5t-37.5 -3t-43 -1.5q-11 0 -16 3t-4 9q4 13 33 19q37 8 57.5 22.5t30.5 49.5q12 39 25 85.5t23 78.5
q2 8 0.5 13t-14.5 5h-127q-9 0 -17 -5.5t-16 -15.5q-18 -22 -37 -46t-38.5 -49.5t-40.5 -52.5q-20 -26 -19 -41.5t15.5 -24.5t32.5 -14q13 -3 18.5 -8t3.5 -12t-9.5 -9.5t-19.5 -2.5q-19 0 -45 1t-53 1q-31 0 -62 -3t-56 -3zM340 318h106q10 0 12.5 2.5t6.5 11.5l71 237
q2 4 1.5 7t-3.5 3q-4 0 -10 -8l-191 -237q-8 -11 -6 -13.5t13 -2.5zM664 692q-7 0 -8 7q0 7 6 17q20 32 40.5 63t42.5 62q10 13 29 13q8 0 23.5 -3.5t28 -9t12.5 -13.5t-14 -20q-32 -27 -69.5 -54.5t-69.5 -51.5q-8 -6 -13 -8t-8 -2z" />
    <glyph glyph-name="uni01E2" unicode="&#x1e2;" horiz-adv-x="833" 
d="M-40 -5q-12 0 -18.5 3t-4.5 10q2 8 11 12.5t24 9.5q28 8 61 32.5t59 55.5l411 477q5 6 2.5 11t-13.5 7l-67 11q-15 4 -15 14q0 5 7 9.5t16 4.5q21 0 49.5 -1t60.5 -1.5t59 -0.5q34 0 73 0.5t75 0.5q47 0 75.5 3t46 6t29.5 3q6 0 11 -3.5t4 -12.5q-2 -26 -8.5 -60
t-13.5 -57q-3 -10 -8 -14t-10 -4t-7 3t-3 9q0 20 -2 38t-8 28q-7 13 -22 20.5t-35 7.5h-109q-16 0 -25.5 -11t-14.5 -24q-12 -29 -26 -68.5t-25.5 -79t-19.5 -66.5q-6 -19 -3 -27.5t12 -8.5h51.5t40.5 2q18 2 30.5 11t22.5 21q8 8 13.5 16t9.5 15q5 5 10 6.5t8 -1.5v-15.5
t-4 -19.5q-14 -33 -20.5 -64t-14.5 -65q-3 -9 -7 -14.5t-9 -5.5q-8 0 -11 8.5t-3 14.5q0 26 -9.5 40t-22.5 14q-27 0 -49 0.5t-47 0.5q-10 0 -18 -7.5t-14 -26.5q-11 -38 -21 -74.5t-23 -79.5q-8 -30 -1 -50t36 -20h94q27 0 47.5 6.5t36.5 18.5q17 13 30.5 30.5t26.5 37.5
q4 7 9.5 10.5t10.5 3.5q6 0 8.5 -5t0.5 -11q-8 -22 -17.5 -43t-19.5 -40t-20 -35q-3 -6 -8.5 -11t-12.5 -5q-29 0 -67.5 1t-80.5 2t-83 2t-76 1q-21 0 -39.5 -1.5t-37.5 -3t-43 -1.5q-11 0 -16 3t-4 9q4 13 33 19q37 8 57.5 22.5t30.5 49.5q12 39 25 85.5t23 78.5
q2 8 0.5 13t-14.5 5h-127q-9 0 -17 -5.5t-16 -15.5q-18 -22 -37 -46t-38.5 -49.5t-40.5 -52.5q-20 -26 -19 -41.5t15.5 -24.5t32.5 -14q13 -3 18.5 -8t3.5 -12t-9.5 -9.5t-19.5 -2.5q-19 0 -45 1t-53 1q-31 0 -62 -3t-56 -3zM340 318h106q10 0 12.5 2.5t6.5 11.5l71 237
q2 4 1.5 7t-3.5 3q-4 0 -10 -8l-191 -237q-8 -11 -6 -13.5t13 -2.5zM589 721q-7 0 -11.5 4.5t-4.5 9.5q0 14 7 30t21 16h255q6 0 10.5 -4t4.5 -10q0 -19 -10.5 -32.5t-24.5 -13.5h-247z" />
    <glyph glyph-name="B" unicode="B" horiz-adv-x="591" 
d="M-6 -5q-22 0 -22 11q0 8 9 12.5t25 7.5q36 8 58 22.5t33 49.5l138 452q11 35 2 49.5t-42 20.5q-13 3 -18 6.5t-5 10.5t9.5 10.5t21.5 3.5q21 0 35.5 -1t27.5 -2.5t30 -1.5q18 0 37.5 2t39.5 4.5t39 2.5q66 0 107 -17t60 -46.5t19 -66.5q0 -34 -16 -61t-43 -47.5
t-58.5 -33.5t-62.5 -18q-7 -1 -7 -4.5t4 -5.5q58 -21 92.5 -57.5t34.5 -103.5q0 -48 -22 -84.5t-61.5 -62t-91.5 -38.5t-113 -13q-41 0 -71 3t-61 3q-23 0 -42.5 -1.5t-40 -3.5t-45.5 -2zM256 24q33 1 64.5 16.5t58 41.5t42 59.5t15.5 70.5q0 61 -36 95t-105 34
q-12 0 -19.5 -5t-10.5 -16l-64 -215q-4 -15 -3 -31t10 -26q10 -10 21 -17t27 -7zM304 368q23 0 44.5 4.5t43.5 10.5q45 22 76 58.5t31 87.5q0 39 -28.5 67.5t-79.5 28.5q-20 0 -29.5 -4.5t-12.5 -17.5l-62 -216q-5 -19 17 -19z" />
    <glyph glyph-name="C" unicode="C" horiz-adv-x="643" 
d="M325 -14q-45 0 -89.5 18.5t-82 52.5t-59.5 81.5t-22 105.5q0 90 33.5 166.5t92 133.5t134.5 89t161 32q30 0 57.5 -5t53.5 -15q19 -6 32 -10.5t23 -4.5q6 0 11.5 2t11.5 6q6 3 12.5 5.5t12.5 2.5q9 0 10 -6t-3 -12q-11 -16 -25.5 -43t-26.5 -55.5t-17 -52.5
q-2 -8 -7.5 -14.5t-12.5 -6.5q-9 0 -13 10t-3 24q4 22 1 45.5t-18 44.5q-17 23 -43 37.5t-59 14.5q-45 0 -90 -22.5t-84 -62t-69 -92.5t-47 -114t-17 -125q0 -54 15 -91.5t39.5 -60.5t55.5 -33.5t63 -10.5q47 0 81 16.5t60 46t50 66.5q6 8 11 14.5t13 6.5q5 0 7.5 -6
t1.5 -16q-2 -12 -11.5 -38t-22.5 -53.5t-24.5 -46.5t-17.5 -19q-5 0 -10 3.5t-11 7.5q-4 4 -10.5 6.5t-15.5 2.5q-8 0 -19.5 -3t-25.5 -8q-16 -5 -38 -9.5t-49 -4.5z" />
    <glyph glyph-name="Cacute" unicode="&#x106;" horiz-adv-x="643" 
d="M325 -14q-45 0 -89.5 18.5t-82 52.5t-59.5 81.5t-22 105.5q0 90 33.5 166.5t92 133.5t134.5 89t161 32q30 0 57.5 -5t53.5 -15q19 -6 32 -10.5t23 -4.5q6 0 11.5 2t11.5 6q6 3 12.5 5.5t12.5 2.5q9 0 10 -6t-3 -12q-11 -16 -25.5 -43t-26.5 -55.5t-17 -52.5
q-2 -8 -7.5 -14.5t-12.5 -6.5q-9 0 -13 10t-3 24q4 22 1 45.5t-18 44.5q-17 23 -43 37.5t-59 14.5q-45 0 -90 -22.5t-84 -62t-69 -92.5t-47 -114t-17 -125q0 -54 15 -91.5t39.5 -60.5t55.5 -33.5t63 -10.5q47 0 81 16.5t60 46t50 66.5q6 8 11 14.5t13 6.5q5 0 7.5 -6
t1.5 -16q-2 -12 -11.5 -38t-22.5 -53.5t-24.5 -46.5t-17.5 -19q-5 0 -10 3.5t-11 7.5q-4 4 -10.5 6.5t-15.5 2.5q-8 0 -19.5 -3t-25.5 -8q-16 -5 -38 -9.5t-49 -4.5zM469 692q-7 0 -8 7q0 7 6 17q20 32 40.5 63t42.5 62q10 13 29 13q8 0 23.5 -3.5t28 -9t12.5 -13.5t-14 -20
q-32 -27 -69.5 -54.5t-69.5 -51.5q-8 -6 -13 -8t-8 -2z" />
    <glyph glyph-name="Ccaron" unicode="&#x10c;" horiz-adv-x="643" 
d="M325 -14q-45 0 -89.5 18.5t-82 52.5t-59.5 81.5t-22 105.5q0 90 33.5 166.5t92 133.5t134.5 89t161 32q30 0 57.5 -5t53.5 -15q19 -6 32 -10.5t23 -4.5q6 0 11.5 2t11.5 6q6 3 12.5 5.5t12.5 2.5q9 0 10 -6t-3 -12q-11 -16 -25.5 -43t-26.5 -55.5t-17 -52.5
q-2 -8 -7.5 -14.5t-12.5 -6.5q-9 0 -13 10t-3 24q4 22 1 45.5t-18 44.5q-17 23 -43 37.5t-59 14.5q-45 0 -90 -22.5t-84 -62t-69 -92.5t-47 -114t-17 -125q0 -54 15 -91.5t39.5 -60.5t55.5 -33.5t63 -10.5q47 0 81 16.5t60 46t50 66.5q6 8 11 14.5t13 6.5q5 0 7.5 -6
t1.5 -16q-2 -12 -11.5 -38t-22.5 -53.5t-24.5 -46.5t-17.5 -19q-5 0 -10 3.5t-11 7.5q-4 4 -10.5 6.5t-15.5 2.5q-8 0 -19.5 -3t-25.5 -8q-16 -5 -38 -9.5t-49 -4.5zM507 697q-9 0 -19 7t-19 17l-74 86q-6 8 -5 13q1 12 17 12q7 0 25.5 -9.5t38.5 -22.5t31 -23q6 -4 13 -3.5
t14 3.5q12 5 34.5 14t47 18t43.5 15.5t25 6.5q15 0 15 -11q0 -7 -8 -14l-129 -85q-18 -12 -29 -18t-21 -6z" />
    <glyph glyph-name="Ccedilla" unicode="&#xc7;" horiz-adv-x="643" 
d="M325 -14q-45 0 -89.5 18.5t-82 52.5t-59.5 81.5t-22 105.5q0 90 33.5 166.5t92 133.5t134.5 89t161 32q30 0 57.5 -5t53.5 -15q19 -6 32 -10.5t23 -4.5q6 0 11.5 2t11.5 6q6 3 12.5 5.5t12.5 2.5q9 0 10 -6t-3 -12q-11 -16 -25.5 -43t-26.5 -55.5t-17 -52.5
q-2 -8 -7.5 -14.5t-12.5 -6.5q-9 0 -13 10t-3 24q4 22 1 45.5t-18 44.5q-17 23 -43 37.5t-59 14.5q-45 0 -90 -22.5t-84 -62t-69 -92.5t-47 -114t-17 -125q0 -54 15 -91.5t39.5 -60.5t55.5 -33.5t63 -10.5q47 0 81 16.5t60 46t50 66.5q6 8 11 14.5t13 6.5q5 0 7.5 -6
t1.5 -16q-2 -12 -11.5 -38t-22.5 -53.5t-24.5 -46.5t-17.5 -19q-5 0 -10 3.5t-11 7.5q-4 4 -10.5 6.5t-15.5 2.5q-8 0 -19.5 -3t-25.5 -8q-16 -5 -38 -9.5t-49 -4.5zM248 -281q-23 0 -42 8.5t-29 21.5t-10 29q0 30 23 30q11 0 21 -6t19 -15q12 -10 23 -18.5t26 -8.5
q10 0 17 8t7 18q0 16 -10 26.5t-22 22.5q-10 11 -20 25t-10 31t18 40t44.5 46.5t54.5 39.5h33q-43 -34 -57.5 -58t-14.5 -38q0 -10 9.5 -21.5t20.5 -22.5q12 -11 21 -23t9 -25q0 -16 -14.5 -35t-35.5 -36t-43 -28t-38 -11z" />
    <glyph glyph-name="Ccircumflex" unicode="&#x108;" horiz-adv-x="643" 
d="M325 -14q-45 0 -89.5 18.5t-82 52.5t-59.5 81.5t-22 105.5q0 90 33.5 166.5t92 133.5t134.5 89t161 32q30 0 57.5 -5t53.5 -15q19 -6 32 -10.5t23 -4.5q6 0 11.5 2t11.5 6q6 3 12.5 5.5t12.5 2.5q9 0 10 -6t-3 -12q-11 -16 -25.5 -43t-26.5 -55.5t-17 -52.5
q-2 -8 -7.5 -14.5t-12.5 -6.5q-9 0 -13 10t-3 24q4 22 1 45.5t-18 44.5q-17 23 -43 37.5t-59 14.5q-45 0 -90 -22.5t-84 -62t-69 -92.5t-47 -114t-17 -125q0 -54 15 -91.5t39.5 -60.5t55.5 -33.5t63 -10.5q47 0 81 16.5t60 46t50 66.5q6 8 11 14.5t13 6.5q5 0 7.5 -6
t1.5 -16q-2 -12 -11.5 -38t-22.5 -53.5t-24.5 -46.5t-17.5 -19q-5 0 -10 3.5t-11 7.5q-4 4 -10.5 6.5t-15.5 2.5q-8 0 -19.5 -3t-25.5 -8q-16 -5 -38 -9.5t-49 -4.5zM373 695q-17 0 -15 11q1 6 9 13l127 86q20 13 30 18.5t19 5.5q12 0 21 -6.5t18 -17.5l74 -86q3 -4 4 -7
t1 -6q-1 -12 -16 -12q-7 0 -27 9.5t-41.5 22.5t-34.5 21q-12 9 -26 1q-10 -5 -31 -14t-44.5 -18t-42 -15t-25.5 -6z" />
    <glyph glyph-name="Cdotaccent" unicode="&#x10a;" horiz-adv-x="643" 
d="M325 -14q-45 0 -89.5 18.5t-82 52.5t-59.5 81.5t-22 105.5q0 90 33.5 166.5t92 133.5t134.5 89t161 32q30 0 57.5 -5t53.5 -15q19 -6 32 -10.5t23 -4.5q6 0 11.5 2t11.5 6q6 3 12.5 5.5t12.5 2.5q9 0 10 -6t-3 -12q-11 -16 -25.5 -43t-26.5 -55.5t-17 -52.5
q-2 -8 -7.5 -14.5t-12.5 -6.5q-9 0 -13 10t-3 24q4 22 1 45.5t-18 44.5q-17 23 -43 37.5t-59 14.5q-45 0 -90 -22.5t-84 -62t-69 -92.5t-47 -114t-17 -125q0 -54 15 -91.5t39.5 -60.5t55.5 -33.5t63 -10.5q47 0 81 16.5t60 46t50 66.5q6 8 11 14.5t13 6.5q5 0 7.5 -6
t1.5 -16q-2 -12 -11.5 -38t-22.5 -53.5t-24.5 -46.5t-17.5 -19q-5 0 -10 3.5t-11 7.5q-4 4 -10.5 6.5t-15.5 2.5q-8 0 -19.5 -3t-25.5 -8q-16 -5 -38 -9.5t-49 -4.5zM516 698q-21 0 -35 14.5t-14 33.5q0 30 22 52.5t55 22.5q22 0 35 -16.5t13 -36.5q0 -19 -10.5 -35
t-28 -25.5t-37.5 -9.5z" />
    <glyph glyph-name="D" unicode="D" horiz-adv-x="745" 
d="M313 -7q-18 0 -53 2.5t-73 4t-68 1.5q-19 0 -37 -1t-38 -2.5t-44 -1.5q-10 0 -15.5 2.5t-5.5 9.5q2 16 34 19q30 2 46.5 10t25.5 23.5t17 37.5l147 459q8 24 -2.5 35.5t-30 17.5t-42.5 11q-13 3 -17 8t-3 12q0 7 8.5 10t19.5 3q38 0 73.5 -2.5t66.5 -2.5q20 0 36.5 1.5
t35 3t44.5 1.5q94 0 162.5 -33t106 -94.5t37.5 -148.5q0 -77 -32 -146t-90 -123.5t-137 -85.5t-172 -31zM316 25q68 0 125.5 31.5t100.5 85t67 120t24 135.5q0 78 -23.5 127t-67 72.5t-102.5 23.5q-36 0 -52.5 -5t-23 -16t-12.5 -28l-135 -436q-13 -41 -3 -65t37 -34.5
t65 -10.5z" />
    <glyph glyph-name="Eth" unicode="&#xd0;" horiz-adv-x="745" 
d="M90 313q-8 0 -9.5 8t-0.5 14q3 9 12.5 15.5t18.5 6.5h326q6 0 10 -5t0 -11q-8 -12 -18.5 -20t-22.5 -8h-316zM313 -7q-18 0 -53 2.5t-73 4t-68 1.5q-19 0 -37 -1t-38 -2.5t-44 -1.5q-10 0 -15.5 2.5t-5.5 9.5q2 16 34 19q30 2 46.5 10t25.5 23.5t17 37.5l147 459
q8 24 -2.5 35.5t-30 17.5t-42.5 11q-13 3 -17 8t-3 12q0 7 8.5 10t19.5 3q38 0 73.5 -2.5t66.5 -2.5q20 0 36.5 1.5t35 3t44.5 1.5q94 0 162.5 -33t106 -94.5t37.5 -148.5q0 -77 -32 -146t-90 -123.5t-137 -85.5t-172 -31zM316 25q68 0 125.5 31.5t100.5 85t67 120t24 135.5
q0 78 -23.5 127t-67 72.5t-102.5 23.5q-36 0 -52.5 -5t-23 -16t-12.5 -28l-135 -436q-13 -41 -3 -65t37 -34.5t65 -10.5z" />
    <glyph glyph-name="Dcaron" unicode="&#x10e;" horiz-adv-x="745" 
d="M313 -7q-18 0 -53 2.5t-73 4t-68 1.5q-19 0 -37 -1t-38 -2.5t-44 -1.5q-10 0 -15.5 2.5t-5.5 9.5q2 16 34 19q30 2 46.5 10t25.5 23.5t17 37.5l147 459q8 24 -2.5 35.5t-30 17.5t-42.5 11q-13 3 -17 8t-3 12q0 7 8.5 10t19.5 3q38 0 73.5 -2.5t66.5 -2.5q20 0 36.5 1.5
t35 3t44.5 1.5q94 0 162.5 -33t106 -94.5t37.5 -148.5q0 -77 -32 -146t-90 -123.5t-137 -85.5t-172 -31zM316 25q68 0 125.5 31.5t100.5 85t67 120t24 135.5q0 78 -23.5 127t-67 72.5t-102.5 23.5q-36 0 -52.5 -5t-23 -16t-12.5 -28l-135 -436q-13 -41 -3 -65t37 -34.5
t65 -10.5zM474 697q-9 0 -19 7t-19 17l-74 86q-6 8 -5 13q1 12 17 12q7 0 25.5 -9.5t38.5 -22.5t31 -23q6 -4 13 -3.5t14 3.5q12 5 34.5 14t47 18t43.5 15.5t25 6.5q15 0 15 -11q0 -7 -8 -14l-129 -85q-18 -12 -29 -18t-21 -6z" />
    <glyph glyph-name="Dcroat" unicode="&#x110;" horiz-adv-x="745" 
d="M90 313q-8 0 -9.5 8t-0.5 14q3 9 12.5 15.5t18.5 6.5h326q6 0 10 -5t0 -11q-8 -12 -18.5 -20t-22.5 -8h-316zM313 -7q-18 0 -53 2.5t-73 4t-68 1.5q-19 0 -37 -1t-38 -2.5t-44 -1.5q-10 0 -15.5 2.5t-5.5 9.5q2 16 34 19q30 2 46.5 10t25.5 23.5t17 37.5l147 459
q8 24 -2.5 35.5t-30 17.5t-42.5 11q-13 3 -17 8t-3 12q0 7 8.5 10t19.5 3q38 0 73.5 -2.5t66.5 -2.5q20 0 36.5 1.5t35 3t44.5 1.5q94 0 162.5 -33t106 -94.5t37.5 -148.5q0 -77 -32 -146t-90 -123.5t-137 -85.5t-172 -31zM316 25q68 0 125.5 31.5t100.5 85t67 120t24 135.5
q0 78 -23.5 127t-67 72.5t-102.5 23.5q-36 0 -52.5 -5t-23 -16t-12.5 -28l-135 -436q-13 -41 -3 -65t37 -34.5t65 -10.5z" />
    <glyph glyph-name="E" unicode="E" horiz-adv-x="575" 
d="M-19 -5q-11 0 -16 3t-5 9q1 13 33 19q46 9 66.5 24t30.5 48l138 452q13 39 1 52.5t-52 20.5q-14 2 -19 6.5t-5 11.5q1 6 10.5 9.5t24.5 3.5q10 0 31 -1.5t46 -2t46 -0.5h162q51 0 79.5 3t41 5.5t15.5 2.5q5 0 9.5 -5t4.5 -11q0 -8 -6.5 -25.5t-13 -41.5t-9.5 -51
q-1 -10 -6.5 -14.5t-10.5 -4.5t-8.5 6t-3.5 17q0 49 -12 69t-51 20h-107q-24 0 -36 -9.5t-20 -35.5l-60 -195q-5 -17 -1.5 -23.5t18.5 -5.5l112 2q26 1 42.5 13t29.5 31q7 8 15 17.5t16 9.5t9 -7.5t-4 -18.5q-9 -19 -16 -35.5t-12 -32.5q-6 -17 -11 -35t-10 -40
q-2 -10 -5.5 -17t-8.5 -7q-8 0 -11.5 10t-3.5 17q1 31 -8.5 45t-26.5 14l-110 2q-15 0 -26 -5t-17 -24l-50 -179q-13 -47 -3.5 -64.5t43.5 -17.5h130q24 0 44 8t36 19q17 12 32 31.5t30 42.5q4 6 8 11t10 5q5 0 6.5 -6.5t1.5 -14.5q0 -10 -7.5 -31t-17.5 -43.5t-20 -36.5
q-5 -9 -12.5 -14t-18.5 -5q-30 0 -66 0.5t-73.5 1.5l-75 2t-73 1.5t-65.5 0.5q-23 0 -43.5 -1.5t-40.5 -3t-44 -1.5z" />
    <glyph glyph-name="Eacute" unicode="&#xc9;" horiz-adv-x="575" 
d="M-19 -5q-11 0 -16 3t-5 9q1 13 33 19q46 9 66.5 24t30.5 48l138 452q13 39 1 52.5t-52 20.5q-14 2 -19 6.5t-5 11.5q1 6 10.5 9.5t24.5 3.5q10 0 31 -1.5t46 -2t46 -0.5h162q51 0 79.5 3t41 5.5t15.5 2.5q5 0 9.5 -5t4.5 -11q0 -8 -6.5 -25.5t-13 -41.5t-9.5 -51
q-1 -10 -6.5 -14.5t-10.5 -4.5t-8.5 6t-3.5 17q0 49 -12 69t-51 20h-107q-24 0 -36 -9.5t-20 -35.5l-60 -195q-5 -17 -1.5 -23.5t18.5 -5.5l112 2q26 1 42.5 13t29.5 31q7 8 15 17.5t16 9.5t9 -7.5t-4 -18.5q-9 -19 -16 -35.5t-12 -32.5q-6 -17 -11 -35t-10 -40
q-2 -10 -5.5 -17t-8.5 -7q-8 0 -11.5 10t-3.5 17q1 31 -8.5 45t-26.5 14l-110 2q-15 0 -26 -5t-17 -24l-50 -179q-13 -47 -3.5 -64.5t43.5 -17.5h130q24 0 44 8t36 19q17 12 32 31.5t30 42.5q4 6 8 11t10 5q5 0 6.5 -6.5t1.5 -14.5q0 -10 -7.5 -31t-17.5 -43.5t-20 -36.5
q-5 -9 -12.5 -14t-18.5 -5q-30 0 -66 0.5t-73.5 1.5l-75 2t-73 1.5t-65.5 0.5q-23 0 -43.5 -1.5t-40.5 -3t-44 -1.5zM385 692q-7 0 -8 7q0 7 6 17q20 32 40.5 63t42.5 62q10 13 29 13q8 0 23.5 -3.5t28 -9t12.5 -13.5t-14 -20q-32 -27 -69.5 -54.5t-69.5 -51.5q-8 -6 -13 -8
t-8 -2z" />
    <glyph glyph-name="Ebreve" unicode="&#x114;" horiz-adv-x="575" 
d="M-19 -5q-11 0 -16 3t-5 9q1 13 33 19q46 9 66.5 24t30.5 48l138 452q13 39 1 52.5t-52 20.5q-14 2 -19 6.5t-5 11.5q1 6 10.5 9.5t24.5 3.5q10 0 31 -1.5t46 -2t46 -0.5h162q51 0 79.5 3t41 5.5t15.5 2.5q5 0 9.5 -5t4.5 -11q0 -8 -6.5 -25.5t-13 -41.5t-9.5 -51
q-1 -10 -6.5 -14.5t-10.5 -4.5t-8.5 6t-3.5 17q0 49 -12 69t-51 20h-107q-24 0 -36 -9.5t-20 -35.5l-60 -195q-5 -17 -1.5 -23.5t18.5 -5.5l112 2q26 1 42.5 13t29.5 31q7 8 15 17.5t16 9.5t9 -7.5t-4 -18.5q-9 -19 -16 -35.5t-12 -32.5q-6 -17 -11 -35t-10 -40
q-2 -10 -5.5 -17t-8.5 -7q-8 0 -11.5 10t-3.5 17q1 31 -8.5 45t-26.5 14l-110 2q-15 0 -26 -5t-17 -24l-50 -179q-13 -47 -3.5 -64.5t43.5 -17.5h130q24 0 44 8t36 19q17 12 32 31.5t30 42.5q4 6 8 11t10 5q5 0 6.5 -6.5t1.5 -14.5q0 -10 -7.5 -31t-17.5 -43.5t-20 -36.5
q-5 -9 -12.5 -14t-18.5 -5q-30 0 -66 0.5t-73.5 1.5l-75 2t-73 1.5t-65.5 0.5q-23 0 -43.5 -1.5t-40.5 -3t-44 -1.5zM437 700q-43 0 -68.5 13.5t-36.5 33.5t-12 40q0 15 5 27t17 12q8 0 10.5 -7t5.5 -14q8 -21 28.5 -32t52.5 -11q30 0 57 8t48 37q7 9 13 14t14 5
q11 0 12 -20q0 -11 -7.5 -28.5t-24.5 -35t-45 -30t-69 -12.5z" />
    <glyph glyph-name="Ecaron" unicode="&#x11a;" horiz-adv-x="575" 
d="M-19 -5q-11 0 -16 3t-5 9q1 13 33 19q46 9 66.5 24t30.5 48l138 452q13 39 1 52.5t-52 20.5q-14 2 -19 6.5t-5 11.5q1 6 10.5 9.5t24.5 3.5q10 0 31 -1.5t46 -2t46 -0.5h162q51 0 79.5 3t41 5.5t15.5 2.5q5 0 9.5 -5t4.5 -11q0 -8 -6.5 -25.5t-13 -41.5t-9.5 -51
q-1 -10 -6.5 -14.5t-10.5 -4.5t-8.5 6t-3.5 17q0 49 -12 69t-51 20h-107q-24 0 -36 -9.5t-20 -35.5l-60 -195q-5 -17 -1.5 -23.5t18.5 -5.5l112 2q26 1 42.5 13t29.5 31q7 8 15 17.5t16 9.5t9 -7.5t-4 -18.5q-9 -19 -16 -35.5t-12 -32.5q-6 -17 -11 -35t-10 -40
q-2 -10 -5.5 -17t-8.5 -7q-8 0 -11.5 10t-3.5 17q1 31 -8.5 45t-26.5 14l-110 2q-15 0 -26 -5t-17 -24l-50 -179q-13 -47 -3.5 -64.5t43.5 -17.5h130q24 0 44 8t36 19q17 12 32 31.5t30 42.5q4 6 8 11t10 5q5 0 6.5 -6.5t1.5 -14.5q0 -10 -7.5 -31t-17.5 -43.5t-20 -36.5
q-5 -9 -12.5 -14t-18.5 -5q-30 0 -66 0.5t-73.5 1.5l-75 2t-73 1.5t-65.5 0.5q-23 0 -43.5 -1.5t-40.5 -3t-44 -1.5zM423 697q-9 0 -19 7t-19 17l-74 86q-6 8 -5 13q1 12 17 12q7 0 25.5 -9.5t38.5 -22.5t31 -23q6 -4 13 -3.5t14 3.5q12 5 34.5 14t47 18t43.5 15.5t25 6.5
q15 0 15 -11q0 -7 -8 -14l-129 -85q-18 -12 -29 -18t-21 -6z" />
    <glyph glyph-name="Ecircumflex" unicode="&#xca;" horiz-adv-x="575" 
d="M-19 -5q-11 0 -16 3t-5 9q1 13 33 19q46 9 66.5 24t30.5 48l138 452q13 39 1 52.5t-52 20.5q-14 2 -19 6.5t-5 11.5q1 6 10.5 9.5t24.5 3.5q10 0 31 -1.5t46 -2t46 -0.5h162q51 0 79.5 3t41 5.5t15.5 2.5q5 0 9.5 -5t4.5 -11q0 -8 -6.5 -25.5t-13 -41.5t-9.5 -51
q-1 -10 -6.5 -14.5t-10.5 -4.5t-8.5 6t-3.5 17q0 49 -12 69t-51 20h-107q-24 0 -36 -9.5t-20 -35.5l-60 -195q-5 -17 -1.5 -23.5t18.5 -5.5l112 2q26 1 42.5 13t29.5 31q7 8 15 17.5t16 9.5t9 -7.5t-4 -18.5q-9 -19 -16 -35.5t-12 -32.5q-6 -17 -11 -35t-10 -40
q-2 -10 -5.5 -17t-8.5 -7q-8 0 -11.5 10t-3.5 17q1 31 -8.5 45t-26.5 14l-110 2q-15 0 -26 -5t-17 -24l-50 -179q-13 -47 -3.5 -64.5t43.5 -17.5h130q24 0 44 8t36 19q17 12 32 31.5t30 42.5q4 6 8 11t10 5q5 0 6.5 -6.5t1.5 -14.5q0 -10 -7.5 -31t-17.5 -43.5t-20 -36.5
q-5 -9 -12.5 -14t-18.5 -5q-30 0 -66 0.5t-73.5 1.5l-75 2t-73 1.5t-65.5 0.5q-23 0 -43.5 -1.5t-40.5 -3t-44 -1.5zM289 695q-17 0 -15 11q1 6 9 13l127 86q20 13 30 18.5t19 5.5q12 0 21 -6.5t18 -17.5l74 -86q3 -4 4 -7t1 -6q-1 -12 -16 -12q-7 0 -27 9.5t-41.5 22.5
t-34.5 21q-12 9 -26 1q-10 -5 -31 -14t-44.5 -18t-42 -15t-25.5 -6z" />
    <glyph glyph-name="Edieresis" unicode="&#xcb;" horiz-adv-x="575" 
d="M-19 -5q-11 0 -16 3t-5 9q1 13 33 19q46 9 66.5 24t30.5 48l138 452q13 39 1 52.5t-52 20.5q-14 2 -19 6.5t-5 11.5q1 6 10.5 9.5t24.5 3.5q10 0 31 -1.5t46 -2t46 -0.5h162q51 0 79.5 3t41 5.5t15.5 2.5q5 0 9.5 -5t4.5 -11q0 -8 -6.5 -25.5t-13 -41.5t-9.5 -51
q-1 -10 -6.5 -14.5t-10.5 -4.5t-8.5 6t-3.5 17q0 49 -12 69t-51 20h-107q-24 0 -36 -9.5t-20 -35.5l-60 -195q-5 -17 -1.5 -23.5t18.5 -5.5l112 2q26 1 42.5 13t29.5 31q7 8 15 17.5t16 9.5t9 -7.5t-4 -18.5q-9 -19 -16 -35.5t-12 -32.5q-6 -17 -11 -35t-10 -40
q-2 -10 -5.5 -17t-8.5 -7q-8 0 -11.5 10t-3.5 17q1 31 -8.5 45t-26.5 14l-110 2q-15 0 -26 -5t-17 -24l-50 -179q-13 -47 -3.5 -64.5t43.5 -17.5h130q24 0 44 8t36 19q17 12 32 31.5t30 42.5q4 6 8 11t10 5q5 0 6.5 -6.5t1.5 -14.5q0 -10 -7.5 -31t-17.5 -43.5t-20 -36.5
q-5 -9 -12.5 -14t-18.5 -5q-30 0 -66 0.5t-73.5 1.5l-75 2t-73 1.5t-65.5 0.5q-23 0 -43.5 -1.5t-40.5 -3t-44 -1.5zM525 696q-19 0 -31.5 14t-12.5 31q0 29 20 49.5t50 20.5q20 0 32 -15t12 -34q0 -18 -10 -33t-25.5 -24t-34.5 -9zM325 696q-19 0 -32 14t-13 31
q0 29 20.5 49.5t50.5 20.5q19 0 31 -15t12 -34q0 -26 -20.5 -46t-48.5 -20z" />
    <glyph glyph-name="Edotaccent" unicode="&#x116;" horiz-adv-x="575" 
d="M-19 -5q-11 0 -16 3t-5 9q1 13 33 19q46 9 66.5 24t30.5 48l138 452q13 39 1 52.5t-52 20.5q-14 2 -19 6.5t-5 11.5q1 6 10.5 9.5t24.5 3.5q10 0 31 -1.5t46 -2t46 -0.5h162q51 0 79.5 3t41 5.5t15.5 2.5q5 0 9.5 -5t4.5 -11q0 -8 -6.5 -25.5t-13 -41.5t-9.5 -51
q-1 -10 -6.5 -14.5t-10.5 -4.5t-8.5 6t-3.5 17q0 49 -12 69t-51 20h-107q-24 0 -36 -9.5t-20 -35.5l-60 -195q-5 -17 -1.5 -23.5t18.5 -5.5l112 2q26 1 42.5 13t29.5 31q7 8 15 17.5t16 9.5t9 -7.5t-4 -18.5q-9 -19 -16 -35.5t-12 -32.5q-6 -17 -11 -35t-10 -40
q-2 -10 -5.5 -17t-8.5 -7q-8 0 -11.5 10t-3.5 17q1 31 -8.5 45t-26.5 14l-110 2q-15 0 -26 -5t-17 -24l-50 -179q-13 -47 -3.5 -64.5t43.5 -17.5h130q24 0 44 8t36 19q17 12 32 31.5t30 42.5q4 6 8 11t10 5q5 0 6.5 -6.5t1.5 -14.5q0 -10 -7.5 -31t-17.5 -43.5t-20 -36.5
q-5 -9 -12.5 -14t-18.5 -5q-30 0 -66 0.5t-73.5 1.5l-75 2t-73 1.5t-65.5 0.5q-23 0 -43.5 -1.5t-40.5 -3t-44 -1.5zM432 698q-21 0 -35 14.5t-14 33.5q0 30 22 52.5t55 22.5q22 0 35 -16.5t13 -36.5q0 -19 -10.5 -35t-28 -25.5t-37.5 -9.5z" />
    <glyph glyph-name="Egrave" unicode="&#xc8;" horiz-adv-x="575" 
d="M-19 -5q-11 0 -16 3t-5 9q1 13 33 19q46 9 66.5 24t30.5 48l138 452q13 39 1 52.5t-52 20.5q-14 2 -19 6.5t-5 11.5q1 6 10.5 9.5t24.5 3.5q10 0 31 -1.5t46 -2t46 -0.5h162q51 0 79.5 3t41 5.5t15.5 2.5q5 0 9.5 -5t4.5 -11q0 -8 -6.5 -25.5t-13 -41.5t-9.5 -51
q-1 -10 -6.5 -14.5t-10.5 -4.5t-8.5 6t-3.5 17q0 49 -12 69t-51 20h-107q-24 0 -36 -9.5t-20 -35.5l-60 -195q-5 -17 -1.5 -23.5t18.5 -5.5l112 2q26 1 42.5 13t29.5 31q7 8 15 17.5t16 9.5t9 -7.5t-4 -18.5q-9 -19 -16 -35.5t-12 -32.5q-6 -17 -11 -35t-10 -40
q-2 -10 -5.5 -17t-8.5 -7q-8 0 -11.5 10t-3.5 17q1 31 -8.5 45t-26.5 14l-110 2q-15 0 -26 -5t-17 -24l-50 -179q-13 -47 -3.5 -64.5t43.5 -17.5h130q24 0 44 8t36 19q17 12 32 31.5t30 42.5q4 6 8 11t10 5q5 0 6.5 -6.5t1.5 -14.5q0 -10 -7.5 -31t-17.5 -43.5t-20 -36.5
q-5 -9 -12.5 -14t-18.5 -5q-30 0 -66 0.5t-73.5 1.5l-75 2t-73 1.5t-65.5 0.5q-23 0 -43.5 -1.5t-40.5 -3t-44 -1.5zM457 696q-2 0 -7.5 1.5t-13.5 6.5q-33 22 -72 47.5t-72 49.5q-14 11 -15 20q-1 7 11.5 13.5t27.5 11t22 4.5q19 2 30 -11q24 -30 45.5 -60t43.5 -59
q8 -9 8 -17q0 -7 -8 -7z" />
    <glyph glyph-name="Emacron" unicode="&#x112;" horiz-adv-x="575" 
d="M-19 -5q-11 0 -16 3t-5 9q1 13 33 19q46 9 66.5 24t30.5 48l138 452q13 39 1 52.5t-52 20.5q-14 2 -19 6.5t-5 11.5q1 6 10.5 9.5t24.5 3.5q10 0 31 -1.5t46 -2t46 -0.5h162q51 0 79.5 3t41 5.5t15.5 2.5q5 0 9.5 -5t4.5 -11q0 -8 -6.5 -25.5t-13 -41.5t-9.5 -51
q-1 -10 -6.5 -14.5t-10.5 -4.5t-8.5 6t-3.5 17q0 49 -12 69t-51 20h-107q-24 0 -36 -9.5t-20 -35.5l-60 -195q-5 -17 -1.5 -23.5t18.5 -5.5l112 2q26 1 42.5 13t29.5 31q7 8 15 17.5t16 9.5t9 -7.5t-4 -18.5q-9 -19 -16 -35.5t-12 -32.5q-6 -17 -11 -35t-10 -40
q-2 -10 -5.5 -17t-8.5 -7q-8 0 -11.5 10t-3.5 17q1 31 -8.5 45t-26.5 14l-110 2q-15 0 -26 -5t-17 -24l-50 -179q-13 -47 -3.5 -64.5t43.5 -17.5h130q24 0 44 8t36 19q17 12 32 31.5t30 42.5q4 6 8 11t10 5q5 0 6.5 -6.5t1.5 -14.5q0 -10 -7.5 -31t-17.5 -43.5t-20 -36.5
q-5 -9 -12.5 -14t-18.5 -5q-30 0 -66 0.5t-73.5 1.5l-75 2t-73 1.5t-65.5 0.5q-23 0 -43.5 -1.5t-40.5 -3t-44 -1.5zM309 721q-7 0 -11.5 4.5t-4.5 9.5q0 14 7 30t21 16h255q6 0 10.5 -4t4.5 -10q0 -19 -10.5 -32.5t-24.5 -13.5h-247z" />
    <glyph glyph-name="Eogonek" unicode="&#x118;" horiz-adv-x="583" 
d="M-19 -5q-11 0 -16 3t-5 9q1 13 33 19q46 9 66.5 24t30.5 48l138 452q13 39 1 52.5t-52 20.5q-14 2 -19 6.5t-5 11.5q1 6 10.5 9.5t24.5 3.5q10 0 31 -1.5t46 -2t46 -0.5h162q51 0 79.5 3t41 5.5t15.5 2.5q5 0 9.5 -5t4.5 -11q0 -8 -6.5 -25.5t-13 -41.5t-9.5 -51
q-1 -10 -6.5 -14.5t-10.5 -4.5t-8.5 6t-3.5 17q0 49 -12 69t-51 20h-107q-24 0 -36 -9.5t-20 -35.5l-60 -195q-5 -17 -1.5 -23.5t18.5 -5.5l112 2q26 1 42.5 13t29.5 31q7 8 15 17.5t16 9.5t9 -7.5t-4 -18.5q-9 -19 -16 -35.5t-12 -32.5q-6 -17 -11 -35t-10 -40
q-2 -10 -5.5 -17t-8.5 -7q-8 0 -11.5 10t-3.5 17q1 31 -8.5 45t-26.5 14l-110 2q-15 0 -26 -5t-17 -24l-50 -179q-13 -47 -3.5 -64.5t43.5 -17.5h130q24 0 44 8t36 19q17 12 32 31.5t30 42.5q4 6 8 11t10 5q5 0 6.5 -6.5t1.5 -14.5q0 -10 -7.5 -31t-17.5 -43.5t-20 -36.5
q-5 -9 -12.5 -14t-18.5 -5q-30 0 -66 0.5t-73.5 1.5l-75 2t-73 1.5t-65.5 0.5q-23 0 -43.5 -1.5t-40.5 -3t-44 -1.5zM295 -286q-17 0 -33.5 10.5t-26.5 28t-10 35.5q0 39 18.5 73t47.5 62.5t63 52t67 42.5h32q-36 -25 -66.5 -55t-49 -65t-18.5 -74q0 -13 8.5 -26t26.5 -13
q15 0 33.5 13.5t28.5 25.5q2 2 7 6t10.5 5.5t6.5 -6.5q2 -1 -0.5 -8t-4.5 -11q-9 -18 -24 -35t-33.5 -30.5t-39.5 -22t-43 -8.5z" />
    <glyph glyph-name="F" unicode="F" horiz-adv-x="518" 
d="M0 -4q-10 0 -15.5 2.5t-5.5 9.5q1 8 9.5 12t23.5 7q39 7 56.5 21.5t28.5 49.5l138 452q11 34 0.5 49t-42.5 22q-15 3 -19.5 8t-4.5 12q1 6 10 9.5t22 3.5q16 0 51 -2t65 -2h160q68 0 102.5 6.5t42.5 6.5q6 0 9 -3.5t2 -10.5q0 -4 -1.5 -9.5t-3.5 -12.5
q-5 -18 -13.5 -45.5t-12.5 -53.5q-1 -7 -4.5 -12.5t-12.5 -5.5q-6 0 -8.5 6.5t-2.5 14.5q0 21 -2 38t-11 29q-7 9 -18 14t-28 5l-117 1q-21 0 -32 -10.5t-16 -25.5q-2 -5 -10.5 -31t-19.5 -61t-20.5 -66.5t-14.5 -46.5q-3 -10 0 -18.5t18 -8.5l104 2q48 1 80 43q6 9 13.5 15
t12.5 6t8 -5t0 -14q-17 -38 -27 -68t-20 -68q-2 -9 -5.5 -14.5t-8.5 -5.5q-8 0 -12 8.5t-4 14.5q0 30 -9.5 41t-26.5 12q-10 1 -32.5 1h-44h-30.5q-17 0 -28.5 -5.5t-16.5 -24.5l-52 -179q-9 -31 -5.5 -47t19.5 -23t44 -12q13 -3 17.5 -6.5t3.5 -12.5q-1 -7 -9 -9.5
t-18 -2.5q-24 0 -45.5 1.5t-41.5 3t-40 1.5q-33 0 -62.5 -3t-66.5 -3z" />
    <glyph glyph-name="G" unicode="G" horiz-adv-x="701" 
d="M371 -14q-67 0 -124 19.5t-97.5 57.5t-59.5 94t-12 129q6 79 41 147.5t93.5 120t136 80.5t167.5 29q33 0 57.5 -6t42.5 -13q16 -6 28.5 -10t24.5 -4q5 0 11 2t12 6q6 3 12 5.5t11 2.5q10 0 11 -6.5t-3 -11.5q-12 -16 -26 -42t-26 -54.5t-17 -52.5q-3 -10 -8 -16.5
t-12 -6.5q-21 0 -16 34q3 25 0 49.5t-18 44.5q-13 18 -38 33t-61 15q-61 0 -115.5 -30t-97 -82.5t-70 -121.5t-34.5 -147q-5 -53 9.5 -96t43.5 -74t66.5 -47.5t77.5 -16.5q43 0 69.5 25t36.5 59l29 110q5 16 1 25.5t-18 13.5q-13 5 -26.5 8t-23.5 5q-9 2 -18.5 5.5
t-8.5 11.5q1 7 10 11t20 4q23 0 44.5 -2t42.5 -3.5t43 -1.5q26 0 47.5 3.5t53.5 3.5q20 0 18 -15q-1 -6 -8.5 -11.5t-21.5 -8.5q-25 -5 -38 -15t-23 -30q-8 -18 -17 -42t-14.5 -45t-5.5 -29q0 -9 3.5 -16.5t10.5 -17.5q-6 -15 -30.5 -29.5t-58 -25.5t-67.5 -17.5t-60 -6.5z
" />
    <glyph glyph-name="Gbreve" unicode="&#x11e;" horiz-adv-x="701" 
d="M371 -14q-67 0 -124 19.5t-97.5 57.5t-59.5 94t-12 129q6 79 41 147.5t93.5 120t136 80.5t167.5 29q33 0 57.5 -6t42.5 -13q16 -6 28.5 -10t24.5 -4q5 0 11 2t12 6q6 3 12 5.5t11 2.5q10 0 11 -6.5t-3 -11.5q-12 -16 -26 -42t-26 -54.5t-17 -52.5q-3 -10 -8 -16.5
t-12 -6.5q-21 0 -16 34q3 25 0 49.5t-18 44.5q-13 18 -38 33t-61 15q-61 0 -115.5 -30t-97 -82.5t-70 -121.5t-34.5 -147q-5 -53 9.5 -96t43.5 -74t66.5 -47.5t77.5 -16.5q43 0 69.5 25t36.5 59l29 110q5 16 1 25.5t-18 13.5q-13 5 -26.5 8t-23.5 5q-9 2 -18.5 5.5
t-8.5 11.5q1 7 10 11t20 4q23 0 44.5 -2t42.5 -3.5t43 -1.5q26 0 47.5 3.5t53.5 3.5q20 0 18 -15q-1 -6 -8.5 -11.5t-21.5 -8.5q-25 -5 -38 -15t-23 -30q-8 -18 -17 -42t-14.5 -45t-5.5 -29q0 -9 3.5 -16.5t10.5 -17.5q-6 -15 -30.5 -29.5t-58 -25.5t-67.5 -17.5t-60 -6.5z
M533 700q-43 0 -68.5 13.5t-36.5 33.5t-12 40q0 15 5 27t17 12q8 0 10.5 -7t5.5 -14q8 -21 28.5 -32t52.5 -11q30 0 57 8t48 37q7 9 13 14t14 5q11 0 12 -20q0 -11 -7.5 -28.5t-24.5 -35t-45 -30t-69 -12.5z" />
    <glyph glyph-name="Gcaron" unicode="&#x1e6;" horiz-adv-x="701" 
d="M371 -14q-67 0 -124 19.5t-97.5 57.5t-59.5 94t-12 129q6 79 41 147.5t93.5 120t136 80.5t167.5 29q33 0 57.5 -6t42.5 -13q16 -6 28.5 -10t24.5 -4q5 0 11 2t12 6q6 3 12 5.5t11 2.5q10 0 11 -6.5t-3 -11.5q-12 -16 -26 -42t-26 -54.5t-17 -52.5q-3 -10 -8 -16.5
t-12 -6.5q-21 0 -16 34q3 25 0 49.5t-18 44.5q-13 18 -38 33t-61 15q-61 0 -115.5 -30t-97 -82.5t-70 -121.5t-34.5 -147q-5 -53 9.5 -96t43.5 -74t66.5 -47.5t77.5 -16.5q43 0 69.5 25t36.5 59l29 110q5 16 1 25.5t-18 13.5q-13 5 -26.5 8t-23.5 5q-9 2 -18.5 5.5
t-8.5 11.5q1 7 10 11t20 4q23 0 44.5 -2t42.5 -3.5t43 -1.5q26 0 47.5 3.5t53.5 3.5q20 0 18 -15q-1 -6 -8.5 -11.5t-21.5 -8.5q-25 -5 -38 -15t-23 -30q-8 -18 -17 -42t-14.5 -45t-5.5 -29q0 -9 3.5 -16.5t10.5 -17.5q-6 -15 -30.5 -29.5t-58 -25.5t-67.5 -17.5t-60 -6.5z
M519 697q-9 0 -19 7t-19 17l-74 86q-6 8 -5 13q1 12 17 12q7 0 25.5 -9.5t38.5 -22.5t31 -23q6 -4 13 -3.5t14 3.5q12 5 34.5 14t47 18t43.5 15.5t25 6.5q15 0 15 -11q0 -7 -8 -14l-129 -85q-18 -12 -29 -18t-21 -6z" />
    <glyph glyph-name="Gcircumflex" unicode="&#x11c;" horiz-adv-x="701" 
d="M371 -14q-67 0 -124 19.5t-97.5 57.5t-59.5 94t-12 129q6 79 41 147.5t93.5 120t136 80.5t167.5 29q33 0 57.5 -6t42.5 -13q16 -6 28.5 -10t24.5 -4q5 0 11 2t12 6q6 3 12 5.5t11 2.5q10 0 11 -6.5t-3 -11.5q-12 -16 -26 -42t-26 -54.5t-17 -52.5q-3 -10 -8 -16.5
t-12 -6.5q-21 0 -16 34q3 25 0 49.5t-18 44.5q-13 18 -38 33t-61 15q-61 0 -115.5 -30t-97 -82.5t-70 -121.5t-34.5 -147q-5 -53 9.5 -96t43.5 -74t66.5 -47.5t77.5 -16.5q43 0 69.5 25t36.5 59l29 110q5 16 1 25.5t-18 13.5q-13 5 -26.5 8t-23.5 5q-9 2 -18.5 5.5
t-8.5 11.5q1 7 10 11t20 4q23 0 44.5 -2t42.5 -3.5t43 -1.5q26 0 47.5 3.5t53.5 3.5q20 0 18 -15q-1 -6 -8.5 -11.5t-21.5 -8.5q-25 -5 -38 -15t-23 -30q-8 -18 -17 -42t-14.5 -45t-5.5 -29q0 -9 3.5 -16.5t10.5 -17.5q-6 -15 -30.5 -29.5t-58 -25.5t-67.5 -17.5t-60 -6.5z
M385 695q-17 0 -15 11q1 6 9 13l127 86q20 13 30 18.5t19 5.5q12 0 21 -6.5t18 -17.5l74 -86q3 -4 4 -7t1 -6q-1 -12 -16 -12q-7 0 -27 9.5t-41.5 22.5t-34.5 21q-12 9 -26 1q-10 -5 -31 -14t-44.5 -18t-42 -15t-25.5 -6z" />
    <glyph glyph-name="Gdotaccent" unicode="&#x120;" horiz-adv-x="701" 
d="M371 -14q-67 0 -124 19.5t-97.5 57.5t-59.5 94t-12 129q6 79 41 147.5t93.5 120t136 80.5t167.5 29q33 0 57.5 -6t42.5 -13q16 -6 28.5 -10t24.5 -4q5 0 11 2t12 6q6 3 12 5.5t11 2.5q10 0 11 -6.5t-3 -11.5q-12 -16 -26 -42t-26 -54.5t-17 -52.5q-3 -10 -8 -16.5
t-12 -6.5q-21 0 -16 34q3 25 0 49.5t-18 44.5q-13 18 -38 33t-61 15q-61 0 -115.5 -30t-97 -82.5t-70 -121.5t-34.5 -147q-5 -53 9.5 -96t43.5 -74t66.5 -47.5t77.5 -16.5q43 0 69.5 25t36.5 59l29 110q5 16 1 25.5t-18 13.5q-13 5 -26.5 8t-23.5 5q-9 2 -18.5 5.5
t-8.5 11.5q1 7 10 11t20 4q23 0 44.5 -2t42.5 -3.5t43 -1.5q26 0 47.5 3.5t53.5 3.5q20 0 18 -15q-1 -6 -8.5 -11.5t-21.5 -8.5q-25 -5 -38 -15t-23 -30q-8 -18 -17 -42t-14.5 -45t-5.5 -29q0 -9 3.5 -16.5t10.5 -17.5q-6 -15 -30.5 -29.5t-58 -25.5t-67.5 -17.5t-60 -6.5z
M528 698q-21 0 -35 14.5t-14 33.5q0 30 22 52.5t55 22.5q22 0 35 -16.5t13 -36.5q0 -19 -10.5 -35t-28 -25.5t-37.5 -9.5z" />
    <glyph glyph-name="uni0241" unicode="&#x241;" horiz-adv-x="480" 
d="M28 -4q-11 0 -17 2.5t-5 9.5q5 13 35 19q40 7 63.5 22t33.5 48l45 144q12 40 45 67t75 53q35 22 62.5 47t43 57.5t15.5 76.5q0 40 -23.5 62.5t-62.5 22.5q-44 0 -75 -17.5t-52 -41.5t-34 -45q-7 -11 -20 -24t-22 -20q-5 -4 -9 -1.5t-5.5 9t0.5 14.5q3 10 10 27.5t15.5 37
t16 34t12.5 17.5q17 5 48.5 16t68.5 21t73 10q62 0 100.5 -19.5t57.5 -51.5t19 -69q0 -44 -20 -79t-53 -62t-74 -49q-39 -22 -68.5 -47.5t-43.5 -66.5l-39 -123q-11 -32 2.5 -47t49.5 -23q14 -3 20 -7t4 -12q-2 -6 -10 -9t-19 -3q-26 0 -46 1.5t-39.5 2.5t-41.5 1
q-35 0 -66 -2.5t-70 -2.5z" />
    <glyph glyph-name="uni021C" unicode="&#x21c;" horiz-adv-x="547" 
d="M8 -199q-39 0 -70.5 4t-48.5 12t-15 19q5 22 17 33t26 11q6 0 15.5 -5.5t23.5 -12.5q15 -7 34.5 -13.5t40.5 -6.5q87 0 152.5 27.5t108.5 71.5t64.5 96t21.5 101q0 61 -23.5 90t-74.5 29q-31 0 -58.5 -8.5t-47 -17.5t-27.5 -9t-11 4t-3 9.5t2 11.5q2 9 19 21.5t35 17.5
q72 18 127 55.5t85 86.5t30 101q0 40 -21 68.5t-70 28.5q-35 0 -59.5 -10t-49.5 -29q-19 -16 -36.5 -38.5t-33.5 -50.5q-6 -11 -17 -17t-16 -6t-6.5 7.5t1.5 15.5q7 25 16.5 48.5t23.5 51.5q4 9 9 15t13 7q27 6 59 16.5t66.5 19t67.5 8.5q58 0 94 -18t52 -48.5t16 -70.5
q0 -56 -42.5 -106.5t-129.5 -82.5q-6 -2 -6.5 -6.5t3.5 -5.5q71 -18 104 -63t33 -105q0 -53 -22.5 -105t-65.5 -97.5t-103.5 -80.5t-136.5 -54.5t-166 -19.5z" />
    <glyph glyph-name="H" unicode="H" horiz-adv-x="761" 
d="M-7 -4q-11 0 -16 2.5t-5 9.5q1 7 9 11t23 9q33 8 49 17.5t24 33.5l146 472q11 34 6.5 48t-37.5 22q-13 3 -17 8t-4 12q1 7 9.5 10t18.5 3q25 0 42 -1t32.5 -2t34.5 -1t36.5 0.5t36.5 1.5t43 1q22 0 20 -12q-1 -8 -9.5 -12.5t-24.5 -7.5q-25 -5 -42 -14t-27 -22.5
t-16 -33.5l-59 -193q-3 -10 10 -10h304q8 0 12 12l60 191q8 28 0.5 44.5t-42.5 25.5q-12 3 -16.5 7.5t-3.5 12.5q0 7 8.5 9.5t18.5 2.5q24 0 43.5 -1t38 -1.5t39.5 -0.5q17 0 31 1t30.5 2t40.5 1q11 0 16.5 -3t4.5 -10q-2 -14 -34 -20q-37 -8 -50 -23.5t-23 -45.5l-143 -466
q-8 -26 -0.5 -39.5t36.5 -19.5q13 -3 17.5 -7.5t3.5 -11.5t-9.5 -9.5t-18.5 -2.5q-23 0 -40 1.5t-33 2.5t-36 1q-19 0 -37 -1t-37 -2.5t-43 -1.5q-21 0 -20 12q1 8 9.5 12t23.5 7q35 7 55.5 23t29.5 47l61 194q2 6 3 11t-5 5h-311q-8 0 -12 -13l-59 -192q-11 -38 2 -52.5
t45 -22.5q13 -3 17.5 -7t3.5 -12q0 -6 -8 -9t-19 -3q-24 0 -43.5 1.5t-38.5 2.5t-39 1t-38 -1t-36.5 -2.5t-41.5 -1.5z" />
    <glyph glyph-name="Hbar" unicode="&#x126;" horiz-adv-x="765" 
d="M129 453q-6 0 -9 5t-2 11q1 12 11 20t21 8h661q5 0 9 -3t3 -8q-1 -13 -17.5 -23t-26.5 -10h-650zM-7 -4q-11 0 -16 2.5t-5 9.5q1 7 9 11t23 9q33 8 49 17.5t24 33.5l146 472q11 34 6.5 48t-37.5 22q-13 3 -17 8t-4 12q1 7 9.5 10t18.5 3q25 0 42 -1t32.5 -2t34.5 -1
t36.5 0.5t36.5 1.5t43 1q22 0 20 -12q-1 -8 -9.5 -12.5t-24.5 -7.5q-25 -5 -42 -14t-27 -22.5t-16 -33.5l-59 -193q-3 -10 10 -10h304q8 0 12 12l60 191q8 28 0.5 44.5t-42.5 25.5q-12 3 -16.5 7.5t-3.5 12.5q0 7 8.5 9.5t18.5 2.5q24 0 43.5 -1t38 -1.5t39.5 -0.5
q17 0 31 1t30.5 2t40.5 1q11 0 16.5 -3t4.5 -10q-2 -14 -34 -20q-37 -8 -50 -23.5t-23 -45.5l-143 -466q-8 -26 -0.5 -39.5t36.5 -19.5q13 -3 17.5 -7.5t3.5 -11.5t-9.5 -9.5t-18.5 -2.5q-23 0 -40 1.5t-33 2.5t-36 1q-19 0 -37 -1t-37 -2.5t-43 -1.5q-21 0 -20 12
q1 8 9.5 12t23.5 7q35 7 55.5 23t29.5 47l61 194q2 6 3 11t-5 5h-311q-8 0 -12 -13l-59 -192q-11 -38 2 -52.5t45 -22.5q13 -3 17.5 -7t3.5 -12q0 -6 -8 -9t-19 -3q-24 0 -43.5 1.5t-38.5 2.5t-39 1t-38 -1t-36.5 -2.5t-41.5 -1.5z" />
    <glyph glyph-name="Hcircumflex" unicode="&#x124;" horiz-adv-x="761" 
d="M-7 -4q-11 0 -16 2.5t-5 9.5q1 7 9 11t23 9q33 8 49 17.5t24 33.5l146 472q11 34 6.5 48t-37.5 22q-13 3 -17 8t-4 12q1 7 9.5 10t18.5 3q25 0 42 -1t32.5 -2t34.5 -1t36.5 0.5t36.5 1.5t43 1q22 0 20 -12q-1 -8 -9.5 -12.5t-24.5 -7.5q-25 -5 -42 -14t-27 -22.5
t-16 -33.5l-59 -193q-3 -10 10 -10h304q8 0 12 12l60 191q8 28 0.5 44.5t-42.5 25.5q-12 3 -16.5 7.5t-3.5 12.5q0 7 8.5 9.5t18.5 2.5q24 0 43.5 -1t38 -1.5t39.5 -0.5q17 0 31 1t30.5 2t40.5 1q11 0 16.5 -3t4.5 -10q-2 -14 -34 -20q-37 -8 -50 -23.5t-23 -45.5l-143 -466
q-8 -26 -0.5 -39.5t36.5 -19.5q13 -3 17.5 -7.5t3.5 -11.5t-9.5 -9.5t-18.5 -2.5q-23 0 -40 1.5t-33 2.5t-36 1q-19 0 -37 -1t-37 -2.5t-43 -1.5q-21 0 -20 12q1 8 9.5 12t23.5 7q35 7 55.5 23t29.5 47l61 194q2 6 3 11t-5 5h-311q-8 0 -12 -13l-59 -192q-11 -38 2 -52.5
t45 -22.5q13 -3 17.5 -7t3.5 -12q0 -6 -8 -9t-19 -3q-24 0 -43.5 1.5t-38.5 2.5t-39 1t-38 -1t-36.5 -2.5t-41.5 -1.5zM389 695q-17 0 -15 11q1 6 9 13l127 86q20 13 30 18.5t19 5.5q12 0 21 -6.5t18 -17.5l74 -86q3 -4 4 -7t1 -6q-1 -12 -16 -12q-7 0 -27 9.5t-41.5 22.5
t-34.5 21q-12 9 -26 1q-10 -5 -31 -14t-44.5 -18t-42 -15t-25.5 -6z" />
    <glyph glyph-name="I" unicode="I" horiz-adv-x="368" 
d="M-7 -4q-10 0 -15.5 2.5t-5.5 9.5q2 13 34 19q38 7 60 22t32 49l139 452q11 34 1.5 48.5t-43.5 22.5q-13 3 -17.5 8t-3.5 12t9.5 10t18.5 3q24 0 43.5 -1t37.5 -2t39 -1q20 0 38 0.5t37 1.5t43 1q21 0 20 -12q-1 -8 -10 -12.5t-24 -7.5q-26 -5 -43 -13t-27.5 -21.5
t-16.5 -36.5l-135 -439q-8 -28 -6 -44.5t14.5 -24.5t34.5 -14q17 -4 22.5 -8t4.5 -12q0 -6 -8 -9t-19 -3q-24 0 -44.5 1.5t-39.5 2.5t-40 1q-33 0 -63 -2.5t-67 -2.5z" />
    <glyph glyph-name="IJ" unicode="&#x132;" horiz-adv-x="691" 
d="M-7 -4q-10 0 -15.5 2.5t-5.5 9.5q2 13 34 19q38 7 60 22t32 49l139 452q11 34 1.5 48.5t-43.5 22.5q-13 3 -17.5 8t-3.5 12t9.5 10t18.5 3q24 0 43.5 -1t37.5 -2t39 -1q20 0 38 0.5t37 1.5t43 1q21 0 20 -12q-1 -8 -10 -12.5t-24 -7.5q-26 -5 -43 -13t-27.5 -21.5
t-16.5 -36.5l-135 -439q-8 -28 -6 -44.5t14.5 -24.5t34.5 -14q17 -4 22.5 -8t4.5 -12q0 -6 -8 -9t-19 -3q-24 0 -44.5 1.5t-39.5 2.5t-40 1q-33 0 -63 -2.5t-67 -2.5zM282 -200q-54 0 -78.5 17.5t-25.5 36.5q0 24 7.5 39t21.5 15q10 0 23.5 -12t29.5 -25q14 -11 30 -22
t32 -11q19 0 35 15t32.5 51t35.5 100l167 547q11 34 2.5 48t-42.5 22q-13 3 -17.5 8t-4.5 12q1 7 10 10t19 3q24 0 43 -1t37 -2t39 -1q18 0 33.5 0.5t33.5 1.5t41 1q21 0 20 -12q-1 -8 -9.5 -12.5t-23.5 -7.5q-26 -5 -40.5 -13t-22.5 -21.5t-15 -35.5l-133 -435
q-19 -62 -35.5 -102.5t-32.5 -66.5t-32 -44t-32 -34q-32 -31 -68.5 -50t-79.5 -19z" />
    <glyph glyph-name="Iacute" unicode="&#xcd;" horiz-adv-x="368" 
d="M-7 -4q-10 0 -15.5 2.5t-5.5 9.5q2 13 34 19q38 7 60 22t32 49l139 452q11 34 1.5 48.5t-43.5 22.5q-13 3 -17.5 8t-3.5 12t9.5 10t18.5 3q24 0 43.5 -1t37.5 -2t39 -1q20 0 38 0.5t37 1.5t43 1q21 0 20 -12q-1 -8 -10 -12.5t-24 -7.5q-26 -5 -43 -13t-27.5 -21.5
t-16.5 -36.5l-135 -439q-8 -28 -6 -44.5t14.5 -24.5t34.5 -14q17 -4 22.5 -8t4.5 -12q0 -6 -8 -9t-19 -3q-24 0 -44.5 1.5t-39.5 2.5t-40 1q-33 0 -63 -2.5t-67 -2.5zM296 692q-7 0 -8 7q0 7 6 17q20 32 40.5 63t42.5 62q10 13 29 13q8 0 23.5 -3.5t28 -9t12.5 -13.5
t-14 -20q-32 -27 -69.5 -54.5t-69.5 -51.5q-8 -6 -13 -8t-8 -2z" />
    <glyph glyph-name="Ibreve" unicode="&#x12c;" horiz-adv-x="368" 
d="M-7 -4q-10 0 -15.5 2.5t-5.5 9.5q2 13 34 19q38 7 60 22t32 49l139 452q11 34 1.5 48.5t-43.5 22.5q-13 3 -17.5 8t-3.5 12t9.5 10t18.5 3q24 0 43.5 -1t37.5 -2t39 -1q20 0 38 0.5t37 1.5t43 1q21 0 20 -12q-1 -8 -10 -12.5t-24 -7.5q-26 -5 -43 -13t-27.5 -21.5
t-16.5 -36.5l-135 -439q-8 -28 -6 -44.5t14.5 -24.5t34.5 -14q17 -4 22.5 -8t4.5 -12q0 -6 -8 -9t-19 -3q-24 0 -44.5 1.5t-39.5 2.5t-40 1q-33 0 -63 -2.5t-67 -2.5zM349 700q-43 0 -68.5 13.5t-36.5 33.5t-12 40q0 15 5 27t17 12q8 0 10.5 -7t5.5 -14q8 -21 28.5 -32
t52.5 -11q30 0 57 8t48 37q7 9 13 14t14 5q11 0 12 -20q0 -11 -7.5 -28.5t-24.5 -35t-45 -30t-69 -12.5z" />
    <glyph glyph-name="Icircumflex" unicode="&#xce;" horiz-adv-x="368" 
d="M-7 -4q-10 0 -15.5 2.5t-5.5 9.5q2 13 34 19q38 7 60 22t32 49l139 452q11 34 1.5 48.5t-43.5 22.5q-13 3 -17.5 8t-3.5 12t9.5 10t18.5 3q24 0 43.5 -1t37.5 -2t39 -1q20 0 38 0.5t37 1.5t43 1q21 0 20 -12q-1 -8 -10 -12.5t-24 -7.5q-26 -5 -43 -13t-27.5 -21.5
t-16.5 -36.5l-135 -439q-8 -28 -6 -44.5t14.5 -24.5t34.5 -14q17 -4 22.5 -8t4.5 -12q0 -6 -8 -9t-19 -3q-24 0 -44.5 1.5t-39.5 2.5t-40 1q-33 0 -63 -2.5t-67 -2.5zM200 695q-17 0 -15 11q1 6 9 13l127 86q20 13 30 18.5t19 5.5q12 0 21 -6.5t18 -17.5l74 -86q3 -4 4 -7
t1 -6q-1 -12 -16 -12q-7 0 -27 9.5t-41.5 22.5t-34.5 21q-12 9 -26 1q-10 -5 -31 -14t-44.5 -18t-42 -15t-25.5 -6z" />
    <glyph glyph-name="Idieresis" unicode="&#xcf;" horiz-adv-x="368" 
d="M-7 -4q-10 0 -15.5 2.5t-5.5 9.5q2 13 34 19q38 7 60 22t32 49l139 452q11 34 1.5 48.5t-43.5 22.5q-13 3 -17.5 8t-3.5 12t9.5 10t18.5 3q24 0 43.5 -1t37.5 -2t39 -1q20 0 38 0.5t37 1.5t43 1q21 0 20 -12q-1 -8 -10 -12.5t-24 -7.5q-26 -5 -43 -13t-27.5 -21.5
t-16.5 -36.5l-135 -439q-8 -28 -6 -44.5t14.5 -24.5t34.5 -14q17 -4 22.5 -8t4.5 -12q0 -6 -8 -9t-19 -3q-24 0 -44.5 1.5t-39.5 2.5t-40 1q-33 0 -63 -2.5t-67 -2.5zM436 696q-19 0 -31.5 14t-12.5 31q0 29 20 49.5t50 20.5q20 0 32 -15t12 -34q0 -18 -10 -33t-25.5 -24
t-34.5 -9zM236 696q-19 0 -32 14t-13 31q0 29 20.5 49.5t50.5 20.5q19 0 31 -15t12 -34q0 -26 -20.5 -46t-48.5 -20z" />
    <glyph glyph-name="Idotaccent" unicode="&#x130;" horiz-adv-x="368" 
d="M-7 -4q-10 0 -15.5 2.5t-5.5 9.5q2 13 34 19q38 7 60 22t32 49l139 452q11 34 1.5 48.5t-43.5 22.5q-13 3 -17.5 8t-3.5 12t9.5 10t18.5 3q24 0 43.5 -1t37.5 -2t39 -1q20 0 38 0.5t37 1.5t43 1q21 0 20 -12q-1 -8 -10 -12.5t-24 -7.5q-26 -5 -43 -13t-27.5 -21.5
t-16.5 -36.5l-135 -439q-8 -28 -6 -44.5t14.5 -24.5t34.5 -14q17 -4 22.5 -8t4.5 -12q0 -6 -8 -9t-19 -3q-24 0 -44.5 1.5t-39.5 2.5t-40 1q-33 0 -63 -2.5t-67 -2.5zM343 698q-21 0 -35 14.5t-14 33.5q0 30 22 52.5t55 22.5q22 0 35 -16.5t13 -36.5q0 -19 -10.5 -35
t-28 -25.5t-37.5 -9.5z" />
    <glyph glyph-name="Igrave" unicode="&#xcc;" horiz-adv-x="368" 
d="M-7 -4q-10 0 -15.5 2.5t-5.5 9.5q2 13 34 19q38 7 60 22t32 49l139 452q11 34 1.5 48.5t-43.5 22.5q-13 3 -17.5 8t-3.5 12t9.5 10t18.5 3q24 0 43.5 -1t37.5 -2t39 -1q20 0 38 0.5t37 1.5t43 1q21 0 20 -12q-1 -8 -10 -12.5t-24 -7.5q-26 -5 -43 -13t-27.5 -21.5
t-16.5 -36.5l-135 -439q-8 -28 -6 -44.5t14.5 -24.5t34.5 -14q17 -4 22.5 -8t4.5 -12q0 -6 -8 -9t-19 -3q-24 0 -44.5 1.5t-39.5 2.5t-40 1q-33 0 -63 -2.5t-67 -2.5zM369 696q-2 0 -7.5 1.5t-13.5 6.5q-33 22 -72 47.5t-72 49.5q-14 11 -15 20q-1 7 11.5 13.5t27.5 11
t22 4.5q19 2 30 -11q24 -30 45.5 -60t43.5 -59q8 -9 8 -17q0 -7 -8 -7z" />
    <glyph glyph-name="Imacron" unicode="&#x12a;" horiz-adv-x="368" 
d="M-7 -4q-10 0 -15.5 2.5t-5.5 9.5q2 13 34 19q38 7 60 22t32 49l139 452q11 34 1.5 48.5t-43.5 22.5q-13 3 -17.5 8t-3.5 12t9.5 10t18.5 3q24 0 43.5 -1t37.5 -2t39 -1q20 0 38 0.5t37 1.5t43 1q21 0 20 -12q-1 -8 -10 -12.5t-24 -7.5q-26 -5 -43 -13t-27.5 -21.5
t-16.5 -36.5l-135 -439q-8 -28 -6 -44.5t14.5 -24.5t34.5 -14q17 -4 22.5 -8t4.5 -12q0 -6 -8 -9t-19 -3q-24 0 -44.5 1.5t-39.5 2.5t-40 1q-33 0 -63 -2.5t-67 -2.5zM221 721q-7 0 -11.5 4.5t-4.5 9.5q0 14 7 30t21 16h255q6 0 10.5 -4t4.5 -10q0 -19 -10.5 -32.5
t-24.5 -13.5h-247z" />
    <glyph glyph-name="Iogonek" unicode="&#x12e;" horiz-adv-x="364" 
d="M-7 -4q-10 0 -15.5 2.5t-5.5 9.5q2 13 34 19q38 7 60 22t32 49l139 452q11 34 1.5 48.5t-43.5 22.5q-13 3 -17.5 8t-3.5 12t9.5 10t18.5 3q24 0 43.5 -1t37.5 -2t39 -1q20 0 38 0.5t37 1.5t43 1q21 0 20 -12q-1 -8 -10 -12.5t-24 -7.5q-26 -5 -43 -13t-27.5 -21.5
t-16.5 -36.5l-135 -439q-8 -28 -6 -44.5t14.5 -24.5t34.5 -14q17 -4 22.5 -8t4.5 -12q0 -6 -8 -9t-19 -3q-24 0 -44.5 1.5t-39.5 2.5t-40 1q-33 0 -63 -2.5t-67 -2.5zM43 -286q-17 0 -33.5 10.5t-26.5 28t-10 35.5q0 39 18.5 73t47.5 62.5t63 52t67 42.5h32
q-36 -25 -66.5 -55t-49 -65t-18.5 -74q0 -13 8.5 -26t26.5 -13q15 0 33.5 13.5t28.5 25.5q2 2 7 6t10.5 5.5t6.5 -6.5q2 -1 -0.5 -8t-4.5 -11q-9 -18 -24 -35t-33.5 -30.5t-39.5 -22t-43 -8.5z" />
    <glyph glyph-name="Itilde" unicode="&#x128;" horiz-adv-x="368" 
d="M-7 -4q-10 0 -15.5 2.5t-5.5 9.5q2 13 34 19q38 7 60 22t32 49l139 452q11 34 1.5 48.5t-43.5 22.5q-13 3 -17.5 8t-3.5 12t9.5 10t18.5 3q24 0 43.5 -1t37.5 -2t39 -1q20 0 38 0.5t37 1.5t43 1q21 0 20 -12q-1 -8 -10 -12.5t-24 -7.5q-26 -5 -43 -13t-27.5 -21.5
t-16.5 -36.5l-135 -439q-8 -28 -6 -44.5t14.5 -24.5t34.5 -14q17 -4 22.5 -8t4.5 -12q0 -6 -8 -9t-19 -3q-24 0 -44.5 1.5t-39.5 2.5t-40 1q-33 0 -63 -2.5t-67 -2.5zM214 692q-5 0 -11 5.5t-6 10.5q0 4 9 18t22.5 30.5t27 29t21.5 12.5q18 0 37.5 -1t36.5 -3q17 -1 35.5 -2
t35.5 -1q11 0 20.5 6t16.5 13q8 7 12.5 13.5t7.5 6.5q7 0 14 -5t7 -12q0 -3 -4.5 -9t-11.5 -13q-11 -13 -23 -29l-21 -28q-6 -8 -16 -11t-14 -3q-7 0 -25.5 1t-42 3t-44.5 3.5t-32 1.5q-7 0 -16.5 -4.5t-15.5 -10.5q-8 -7 -13 -14.5t-7 -7.5z" />
    <glyph glyph-name="J" unicode="J" horiz-adv-x="323" 
d="M-86 -200q-54 0 -78.5 17.5t-25.5 36.5q0 24 7.5 39t21.5 15q10 0 23.5 -12t29.5 -25q14 -11 30 -22t32 -11q19 0 35 15t32.5 51t35.5 100l167 547q11 34 2.5 48t-42.5 22q-13 3 -17.5 8t-4.5 12q1 7 10 10t19 3q24 0 43 -1t37 -2t39 -1q18 0 33.5 0.5t33.5 1.5t41 1
q21 0 20 -12q-1 -8 -9.5 -12.5t-23.5 -7.5q-26 -5 -40.5 -13t-22.5 -21.5t-15 -35.5l-133 -435q-19 -62 -35.5 -102.5t-32.5 -66.5t-32 -44t-32 -34q-32 -31 -68.5 -50t-79.5 -19z" />
    <glyph glyph-name="Jcircumflex" unicode="&#x134;" horiz-adv-x="323" 
d="M-86 -200q-54 0 -78.5 17.5t-25.5 36.5q0 24 7.5 39t21.5 15q10 0 23.5 -12t29.5 -25q14 -11 30 -22t32 -11q19 0 35 15t32.5 51t35.5 100l167 547q11 34 2.5 48t-42.5 22q-13 3 -17.5 8t-4.5 12q1 7 10 10t19 3q24 0 43 -1t37 -2t39 -1q18 0 33.5 0.5t33.5 1.5t41 1
q21 0 20 -12q-1 -8 -9.5 -12.5t-23.5 -7.5q-26 -5 -40.5 -13t-22.5 -21.5t-15 -35.5l-133 -435q-19 -62 -35.5 -102.5t-32.5 -66.5t-32 -44t-32 -34q-32 -31 -68.5 -50t-79.5 -19zM181 695q-17 0 -15 11q1 6 9 13l127 86q20 13 30 18.5t19 5.5q12 0 21 -6.5t18 -17.5l74 -86
q3 -4 4 -7t1 -6q-1 -12 -16 -12q-7 0 -27 9.5t-41.5 22.5t-34.5 21q-12 9 -26 1q-10 -5 -31 -14t-44.5 -18t-42 -15t-25.5 -6z" />
    <glyph glyph-name="K" unicode="K" horiz-adv-x="721" 
d="M-2 -5q-11 0 -17.5 3t-6.5 10q2 13 35 19q38 7 56 22.5t28 50.5l139 451q11 34 1.5 48t-43.5 22q-13 3 -17.5 7.5t-4.5 10.5q0 7 9.5 11t22.5 4q23 0 41 -1t35 -1.5t37 -0.5q19 0 34.5 0.5t33.5 1t42 0.5q21 0 21 -11q0 -8 -9.5 -13t-24.5 -8q-26 -5 -40 -12t-21.5 -20
t-14.5 -38l-56 -188q-2 -7 1 -10t11 -3q17 0 35 10.5t39 30.5l193 170q12 11 20.5 20.5t9.5 16.5q1 6 -6 11t-20 9q-11 3 -17 7.5t-6 12.5q0 7 10.5 10t22.5 3h58q44 0 87.5 2t80.5 2q19 0 19 -12q0 -8 -11 -13t-26 -8q-42 -6 -82.5 -21t-78.5 -43q-40 -30 -76.5 -60
t-73.5 -63t-78 -71q-6 -6 -6.5 -11t2.5 -11q56 -105 98 -167.5t75 -96.5q22 -22 43.5 -32t45.5 -18q14 -4 21 -8t7 -12q0 -6 -9 -9.5t-23 -3.5q-28 0 -49 1.5t-45.5 2.5t-64.5 1h-26t-25.5 -0.5t-34.5 -0.5q-11 0 -17 3t-6 9q0 8 8 12t22 7q19 5 25.5 11t4 15.5t-11.5 23.5
l-123 219q-6 13 -17 18t-15 5q-5 0 -7 -6t-4 -11l-57 -198q-10 -39 -1.5 -55.5t41.5 -24.5q13 -3 18.5 -7t5.5 -11t-10 -10.5t-22 -3.5q-27 0 -43.5 2t-31.5 4t-34 2q-33 0 -58.5 -4t-67.5 -4z" />
    <glyph glyph-name="L" unicode="L" horiz-adv-x="582" 
d="M-5 -5q-11 0 -16.5 3t-4.5 9q1 13 33 19q36 8 62.5 23t36.5 49l141 459q11 35 3 45.5t-42 18.5q-13 3 -17.5 8t-4.5 12q1 7 9.5 10t18.5 3q24 0 43 -1t36.5 -2.5t37.5 -1.5q22 0 43 1t43 2t46 1q21 0 19 -12q0 -8 -10 -12t-24 -6q-28 -4 -47 -11t-31.5 -18.5t-18.5 -31.5
l-131 -437q-14 -47 -5.5 -69.5t42.5 -22.5h64q51 0 84.5 11t54.5 29q22 19 37 40.5t31 47.5q5 7 8.5 10t9.5 3q5 0 7 -4t2 -10q0 -10 -5.5 -29.5t-14.5 -42.5t-18 -44t-16 -32q-4 -6 -10 -11.5t-13 -5.5q-45 0 -91 1t-91.5 2t-89 2t-80.5 1q-35 0 -65.5 -3t-65.5 -3z" />
    <glyph glyph-name="Lacute" unicode="&#x139;" horiz-adv-x="582" 
d="M-5 -5q-11 0 -16.5 3t-4.5 9q1 13 33 19q36 8 62.5 23t36.5 49l141 459q11 35 3 45.5t-42 18.5q-13 3 -17.5 8t-4.5 12q1 7 9.5 10t18.5 3q24 0 43 -1t36.5 -2.5t37.5 -1.5q22 0 43 1t43 2t46 1q21 0 19 -12q0 -8 -10 -12t-24 -6q-28 -4 -47 -11t-31.5 -18.5t-18.5 -31.5
l-131 -437q-14 -47 -5.5 -69.5t42.5 -22.5h64q51 0 84.5 11t54.5 29q22 19 37 40.5t31 47.5q5 7 8.5 10t9.5 3q5 0 7 -4t2 -10q0 -10 -5.5 -29.5t-14.5 -42.5t-18 -44t-16 -32q-4 -6 -10 -11.5t-13 -5.5q-45 0 -91 1t-91.5 2t-89 2t-80.5 1q-35 0 -65.5 -3t-65.5 -3z
M317 692q-7 0 -8 7q0 7 6 17q20 32 40.5 63t42.5 62q10 13 29 13q8 0 23.5 -3.5t28 -9t12.5 -13.5t-14 -20q-32 -27 -69.5 -54.5t-69.5 -51.5q-8 -6 -13 -8t-8 -2z" />
    <glyph glyph-name="Lcaron" unicode="&#x13d;" horiz-adv-x="586" 
d="M-5 -5q-11 0 -16.5 3t-4.5 9q1 13 33 19q36 8 62.5 23t36.5 49l141 459q11 35 3 45.5t-42 18.5q-13 3 -17.5 8t-4.5 12q1 7 9.5 10t18.5 3q24 0 43 -1t36.5 -2.5t37.5 -1.5q22 0 43 1t43 2t46 1q21 0 19 -12q0 -8 -10 -12t-24 -6q-28 -4 -47 -11t-31.5 -18.5t-18.5 -31.5
l-131 -437q-14 -47 -5.5 -69.5t42.5 -22.5h64q51 0 84.5 11t54.5 29q22 19 37 40.5t31 47.5q5 7 8.5 10t9.5 3q5 0 7 -4t2 -10q0 -10 -5.5 -29.5t-14.5 -42.5t-18 -44t-16 -32q-4 -6 -10 -11.5t-13 -5.5q-45 0 -91 1t-91.5 2t-89 2t-80.5 1q-35 0 -65.5 -3t-65.5 -3z
M516 460q-6 0 -6 8q0 4 2 8.5t5 9.5q10 24 18 52.5t16 70.5q2 12 15.5 25.5t30.5 23.5t31 10q6 0 8 -6.5t2 -12.5q0 -22 -11 -47.5t-27.5 -50.5t-34 -45.5t-31 -33t-18.5 -12.5z" />
    <glyph glyph-name="Ldot" unicode="&#x13f;" horiz-adv-x="582" 
d="M-5 -5q-11 0 -16.5 3t-4.5 9q1 13 33 19q36 8 62.5 23t36.5 49l141 459q11 35 3 45.5t-42 18.5q-13 3 -17.5 8t-4.5 12q1 7 9.5 10t18.5 3q24 0 43 -1t36.5 -2.5t37.5 -1.5q22 0 43 1t43 2t46 1q21 0 19 -12q0 -8 -10 -12t-24 -6q-28 -4 -47 -11t-31.5 -18.5t-18.5 -31.5
l-131 -437q-14 -47 -5.5 -69.5t42.5 -22.5h64q51 0 84.5 11t54.5 29q22 19 37 40.5t31 47.5q5 7 8.5 10t9.5 3q5 0 7 -4t2 -10q0 -10 -5.5 -29.5t-14.5 -42.5t-18 -44t-16 -32q-4 -6 -10 -11.5t-13 -5.5q-45 0 -91 1t-91.5 2t-89 2t-80.5 1q-35 0 -65.5 -3t-65.5 -3z
M566 303q-18 0 -29.5 13.5t-11.5 31.5q0 27 19 48.5t47 21.5q19 0 29.5 -16t10.5 -34q0 -25 -19 -45t-46 -20z" />
    <glyph glyph-name="Lslash" unicode="&#x141;" horiz-adv-x="582" 
d="M90 253q-8 -2 -15 -0.5t-8 9.5q0 13 7.5 24.5t17.5 14.5l102 34l47 11l210 68q7 3 13.5 1.5t6.5 -9.5q0 -17 -10 -29t-21 -15l-207 -67l-47 -10zM-5 -5q-11 0 -16.5 3t-4.5 9q1 13 33 19q36 8 62.5 23t36.5 49l141 459q11 35 3 45.5t-42 18.5q-13 3 -17.5 8t-4.5 12
q1 7 9.5 10t18.5 3q24 0 43 -1t36.5 -2.5t37.5 -1.5q22 0 43 1t43 2t46 1q21 0 19 -12q0 -8 -10 -12t-24 -6q-28 -4 -47 -11t-31.5 -18.5t-18.5 -31.5l-131 -437q-14 -47 -5.5 -69.5t42.5 -22.5h64q51 0 84.5 11t54.5 29q22 19 37 40.5t31 47.5q5 7 8.5 10t9.5 3q5 0 7 -4
t2 -10q0 -10 -5.5 -29.5t-14.5 -42.5t-18 -44t-16 -32q-4 -6 -10 -11.5t-13 -5.5q-45 0 -91 1t-91.5 2t-89 2t-80.5 1q-35 0 -65.5 -3t-65.5 -3z" />
    <glyph glyph-name="M" unicode="M" horiz-adv-x="990" 
d="M377 -14q-5 0 -8 6.5t-3 17.5q3 122 0 242.5t-9 240.5q-1 19 -9 17.5t-17 -21.5q-43 -84 -82 -168t-74 -169q-18 -45 -22.5 -71t3 -37.5t23.5 -15.5q13 -2 21 -6t7 -12q-1 -6 -11.5 -9.5t-21.5 -3.5q-25 0 -40.5 1t-29.5 1.5t-36 0.5q-19 0 -33.5 -1t-29 -2.5t-32.5 -1.5
q-24 0 -22 11q1 8 10 12t24 7q28 6 48.5 17.5t40 36t43.5 70.5l188 372q15 30 15.5 50.5t-18.5 33.5t-62 20q-19 3 -27 6t-8 11q0 9 11.5 12.5t28.5 3.5q18 0 50 -1t66 -2.5t57 -1.5q17 0 24 -9.5t7.5 -26.5t0.5 -43l10 -392q1 -18 8.5 -17t18.5 13q59 65 115.5 132t111 134
t104.5 130q12 21 19.5 35.5t15.5 26.5q8 14 21 14h41q15 0 35 2t39.5 4t30.5 2q12 0 21 -3.5t9 -11.5t-10 -14t-35 -10q-28 -5 -44 -12.5t-25.5 -24.5t-19.5 -50q-27 -95 -49.5 -195.5t-42.5 -198.5q-10 -55 1.5 -79.5t43.5 -30.5q13 -2 18.5 -6t4.5 -12q-1 -5 -9.5 -9
t-19.5 -4q-23 0 -45 2t-43.5 4.5t-43.5 2.5t-40.5 -2.5t-37.5 -4.5t-43 -2q-10 0 -15.5 3.5t-5.5 9.5q1 7 10 11.5t23 8.5q35 8 52 23.5t27 48.5q23 70 40.5 131.5t33 122t31.5 124.5q2 5 -2 5.5t-9 -4.5l-282 -326l-111 -146q-8 -11 -14.5 -17t-10.5 -6z" />
    <glyph glyph-name="N" unicode="N" horiz-adv-x="774" 
d="M12 -4q-10 0 -16.5 2.5t-5.5 9.5t8 11t22 8q42 10 61 28.5t28 45.5l143 420q11 32 10 54t-18 34t-55 15q-16 2 -26 6.5t-10 12.5q0 9 10.5 12t16.5 3q26 0 52 -1t51 -2.5t46 -1.5q10 0 17.5 -5t11.5 -13l218 -468q2 -4 7.5 -10.5t9.5 -6.5q6 0 13 18q4 10 12.5 35.5
t19.5 61t22.5 75.5t22.5 77t19 66.5t11 44.5q10 45 -9 64.5t-69 27.5q-24 4 -24 18q0 6 10.5 9.5t20.5 3.5q31 0 58 -2.5t51 -2.5q20 0 36 2t35.5 3.5t46.5 1.5q22 0 22 -12q0 -7 -10.5 -12.5t-25.5 -7.5q-25 -3 -40 -9.5t-25.5 -23t-22.5 -47.5q-3 -11 -13 -40t-24 -70
t-29 -87t-29.5 -89t-25.5 -77.5t-16 -51.5q-6 -20 -4.5 -32t9.5 -27q5 -12 13.5 -19.5t16.5 -14.5q8 -6 13.5 -11t5.5 -13q0 -6 -3.5 -7.5t-8.5 -1.5q-21 0 -37 -1.5t-28 -3t-24 -1.5q-20 0 -31 8t-20 28q-15 32 -32.5 72t-36.5 85t-39 90.5t-39 88t-35.5 79t-31.5 62.5
q-4 8 -9.5 14t-9.5 6q-5 0 -11 -8.5t-10 -21.5q-11 -36 -26.5 -83.5t-31.5 -101.5t-31.5 -108.5t-27.5 -102.5q-7 -31 7.5 -48.5t53.5 -26.5q13 -3 20 -6.5t7 -11.5q-1 -6 -10 -9t-20 -3q-26 0 -41.5 1.5t-28 2t-28.5 0.5q-21 0 -39.5 -1t-35 -2t-34.5 -1z" />
    <glyph glyph-name="Nacute" unicode="&#x143;" horiz-adv-x="774" 
d="M12 -4q-10 0 -16.5 2.5t-5.5 9.5t8 11t22 8q42 10 61 28.5t28 45.5l143 420q11 32 10 54t-18 34t-55 15q-16 2 -26 6.5t-10 12.5q0 9 10.5 12t16.5 3q26 0 52 -1t51 -2.5t46 -1.5q10 0 17.5 -5t11.5 -13l218 -468q2 -4 7.5 -10.5t9.5 -6.5q6 0 13 18q4 10 12.5 35.5
t19.5 61t22.5 75.5t22.5 77t19 66.5t11 44.5q10 45 -9 64.5t-69 27.5q-24 4 -24 18q0 6 10.5 9.5t20.5 3.5q31 0 58 -2.5t51 -2.5q20 0 36 2t35.5 3.5t46.5 1.5q22 0 22 -12q0 -7 -10.5 -12.5t-25.5 -7.5q-25 -3 -40 -9.5t-25.5 -23t-22.5 -47.5q-3 -11 -13 -40t-24 -70
t-29 -87t-29.5 -89t-25.5 -77.5t-16 -51.5q-6 -20 -4.5 -32t9.5 -27q5 -12 13.5 -19.5t16.5 -14.5q8 -6 13.5 -11t5.5 -13q0 -6 -3.5 -7.5t-8.5 -1.5q-21 0 -37 -1.5t-28 -3t-24 -1.5q-20 0 -31 8t-20 28q-15 32 -32.5 72t-36.5 85t-39 90.5t-39 88t-35.5 79t-31.5 62.5
q-4 8 -9.5 14t-9.5 6q-5 0 -11 -8.5t-10 -21.5q-11 -36 -26.5 -83.5t-31.5 -101.5t-31.5 -108.5t-27.5 -102.5q-7 -31 7.5 -48.5t53.5 -26.5q13 -3 20 -6.5t7 -11.5q-1 -6 -10 -9t-20 -3q-26 0 -41.5 1.5t-28 2t-28.5 0.5q-21 0 -39.5 -1t-35 -2t-34.5 -1zM499 692
q-7 0 -8 7q0 7 6 17q20 32 40.5 63t42.5 62q10 13 29 13q8 0 23.5 -3.5t28 -9t12.5 -13.5t-14 -20q-32 -27 -69.5 -54.5t-69.5 -51.5q-8 -6 -13 -8t-8 -2z" />
    <glyph glyph-name="Ncaron" unicode="&#x147;" horiz-adv-x="774" 
d="M12 -4q-10 0 -16.5 2.5t-5.5 9.5t8 11t22 8q42 10 61 28.5t28 45.5l143 420q11 32 10 54t-18 34t-55 15q-16 2 -26 6.5t-10 12.5q0 9 10.5 12t16.5 3q26 0 52 -1t51 -2.5t46 -1.5q10 0 17.5 -5t11.5 -13l218 -468q2 -4 7.5 -10.5t9.5 -6.5q6 0 13 18q4 10 12.5 35.5
t19.5 61t22.5 75.5t22.5 77t19 66.5t11 44.5q10 45 -9 64.5t-69 27.5q-24 4 -24 18q0 6 10.5 9.5t20.5 3.5q31 0 58 -2.5t51 -2.5q20 0 36 2t35.5 3.5t46.5 1.5q22 0 22 -12q0 -7 -10.5 -12.5t-25.5 -7.5q-25 -3 -40 -9.5t-25.5 -23t-22.5 -47.5q-3 -11 -13 -40t-24 -70
t-29 -87t-29.5 -89t-25.5 -77.5t-16 -51.5q-6 -20 -4.5 -32t9.5 -27q5 -12 13.5 -19.5t16.5 -14.5q8 -6 13.5 -11t5.5 -13q0 -6 -3.5 -7.5t-8.5 -1.5q-21 0 -37 -1.5t-28 -3t-24 -1.5q-20 0 -31 8t-20 28q-15 32 -32.5 72t-36.5 85t-39 90.5t-39 88t-35.5 79t-31.5 62.5
q-4 8 -9.5 14t-9.5 6q-5 0 -11 -8.5t-10 -21.5q-11 -36 -26.5 -83.5t-31.5 -101.5t-31.5 -108.5t-27.5 -102.5q-7 -31 7.5 -48.5t53.5 -26.5q13 -3 20 -6.5t7 -11.5q-1 -6 -10 -9t-20 -3q-26 0 -41.5 1.5t-28 2t-28.5 0.5q-21 0 -39.5 -1t-35 -2t-34.5 -1zM538 697
q-9 0 -19 7t-19 17l-74 86q-6 8 -5 13q1 12 17 12q7 0 25.5 -9.5t38.5 -22.5t31 -23q6 -4 13 -3.5t14 3.5q12 5 34.5 14t47 18t43.5 15.5t25 6.5q15 0 15 -11q0 -7 -8 -14l-129 -85q-18 -12 -29 -18t-21 -6z" />
    <glyph glyph-name="Eng" unicode="&#x14a;" horiz-adv-x="811" 
d="M413 -267q-29 0 -45 13t-22.5 30.5t-6.5 33.5q0 9 4 12t10 3q70 1 113.5 19.5t68 49.5t35.5 69q7 23 6.5 44t-6.5 35q-12 27 -27.5 58t-33.5 64.5t-37.5 68t-39 68.5t-38 65.5t-34.5 59.5l-28 49q-6 9 -11 14.5t-9 5.5t-9 -4.5t-9 -18.5q-14 -42 -30 -88.5t-32.5 -95.5
t-31.5 -96t-28 -91q-9 -32 4 -49t52 -26q13 -3 20.5 -6.5t6.5 -11.5q-1 -6 -10 -9t-20 -3q-26 0 -41.5 1.5t-27.5 2t-29 0.5q-21 0 -39 -1t-35 -2t-35 -1q-10 0 -16 2.5t-6 9.5q1 7 8 11t22 8q42 10 58.5 26.5t27.5 43.5l152 405q14 38 12 60t-22.5 34.5t-64.5 20.5
q-18 4 -27.5 10.5t-8.5 15.5q1 10 10.5 12.5t16.5 2.5q25 0 51 -1t51 -2.5t47 -1.5q9 0 16.5 -5t11.5 -13l259 -462q2 -4 7.5 -10.5t10.5 -6.5t12 18q4 10 12.5 36.5t20 63.5t23.5 78t23.5 79t19.5 67t11 42q6 23 -0.5 38t-26 25t-54.5 16q-13 2 -18.5 7t-4.5 13q1 6 10 9
t20 3q31 0 57.5 -2.5t51.5 -2.5q29 0 56 3.5t69 3.5q11 0 16.5 -3t5.5 -9q-1 -8 -10.5 -13.5t-25.5 -7.5q-37 -4 -57 -17t-35 -54q-4 -10 -14 -41t-24.5 -74.5t-30.5 -95t-33 -102.5t-32 -96.5t-26 -79t-16 -46.5q-18 -55 -45.5 -105t-59 -89.5t-62 -63t-54.5 -23.5z" />
    <glyph glyph-name="Ntilde" unicode="&#xd1;" horiz-adv-x="774" 
d="M12 -4q-10 0 -16.5 2.5t-5.5 9.5t8 11t22 8q42 10 61 28.5t28 45.5l143 420q11 32 10 54t-18 34t-55 15q-16 2 -26 6.5t-10 12.5q0 9 10.5 12t16.5 3q26 0 52 -1t51 -2.5t46 -1.5q10 0 17.5 -5t11.5 -13l218 -468q2 -4 7.5 -10.5t9.5 -6.5q6 0 13 18q4 10 12.5 35.5
t19.5 61t22.5 75.5t22.5 77t19 66.5t11 44.5q10 45 -9 64.5t-69 27.5q-24 4 -24 18q0 6 10.5 9.5t20.5 3.5q31 0 58 -2.5t51 -2.5q20 0 36 2t35.5 3.5t46.5 1.5q22 0 22 -12q0 -7 -10.5 -12.5t-25.5 -7.5q-25 -3 -40 -9.5t-25.5 -23t-22.5 -47.5q-3 -11 -13 -40t-24 -70
t-29 -87t-29.5 -89t-25.5 -77.5t-16 -51.5q-6 -20 -4.5 -32t9.5 -27q5 -12 13.5 -19.5t16.5 -14.5q8 -6 13.5 -11t5.5 -13q0 -6 -3.5 -7.5t-8.5 -1.5q-21 0 -37 -1.5t-28 -3t-24 -1.5q-20 0 -31 8t-20 28q-15 32 -32.5 72t-36.5 85t-39 90.5t-39 88t-35.5 79t-31.5 62.5
q-4 8 -9.5 14t-9.5 6q-5 0 -11 -8.5t-10 -21.5q-11 -36 -26.5 -83.5t-31.5 -101.5t-31.5 -108.5t-27.5 -102.5q-7 -31 7.5 -48.5t53.5 -26.5q13 -3 20 -6.5t7 -11.5q-1 -6 -10 -9t-20 -3q-26 0 -41.5 1.5t-28 2t-28.5 0.5q-21 0 -39.5 -1t-35 -2t-34.5 -1zM417 692
q-5 0 -11 5.5t-6 10.5q0 4 9 18t22.5 30.5t27 29t21.5 12.5q18 0 37.5 -1t36.5 -3q17 -1 35.5 -2t35.5 -1q11 0 20.5 6t16.5 13q8 7 12.5 13.5t7.5 6.5q7 0 14 -5t7 -12q0 -3 -4.5 -9t-11.5 -13q-11 -13 -23 -29l-21 -28q-6 -8 -16 -11t-14 -3q-7 0 -25.5 1t-42 3t-44.5 3.5
t-32 1.5q-7 0 -16.5 -4.5t-15.5 -10.5q-8 -7 -13 -14.5t-7 -7.5z" />
    <glyph glyph-name="O" unicode="O" horiz-adv-x="693" 
d="M300 -14q-75 0 -126 34.5t-77 93t-26 129.5q0 75 27.5 149.5t79.5 136t125.5 98.5t165.5 37q74 0 125.5 -34.5t77.5 -92.5t26 -130q0 -75 -27.5 -149.5t-80 -136t-126 -98.5t-164.5 -37zM302 19q50 0 94.5 27t81 72.5t62.5 102.5t40 117t14 115q0 46 -13 87.5t-41.5 67.5
t-73.5 26q-49 0 -93 -27.5t-80 -73.5t-62.5 -103t-41 -117.5t-14.5 -115.5q0 -46 12.5 -86.5t40.5 -66t74 -25.5z" />
    <glyph glyph-name="Oacute" unicode="&#xd3;" horiz-adv-x="693" 
d="M300 -14q-75 0 -126 34.5t-77 93t-26 129.5q0 75 27.5 149.5t79.5 136t125.5 98.5t165.5 37q74 0 125.5 -34.5t77.5 -92.5t26 -130q0 -75 -27.5 -149.5t-80 -136t-126 -98.5t-164.5 -37zM302 19q50 0 94.5 27t81 72.5t62.5 102.5t40 117t14 115q0 46 -13 87.5t-41.5 67.5
t-73.5 26q-49 0 -93 -27.5t-80 -73.5t-62.5 -103t-41 -117.5t-14.5 -115.5q0 -46 12.5 -86.5t40.5 -66t74 -25.5zM459 692q-7 0 -8 7q0 7 6 17q20 32 40.5 63t42.5 62q10 13 29 13q8 0 23.5 -3.5t28 -9t12.5 -13.5t-14 -20q-32 -27 -69.5 -54.5t-69.5 -51.5q-8 -6 -13 -8
t-8 -2z" />
    <glyph glyph-name="Obreve" unicode="&#x14e;" horiz-adv-x="693" 
d="M300 -14q-75 0 -126 34.5t-77 93t-26 129.5q0 75 27.5 149.5t79.5 136t125.5 98.5t165.5 37q74 0 125.5 -34.5t77.5 -92.5t26 -130q0 -75 -27.5 -149.5t-80 -136t-126 -98.5t-164.5 -37zM302 19q50 0 94.5 27t81 72.5t62.5 102.5t40 117t14 115q0 46 -13 87.5t-41.5 67.5
t-73.5 26q-49 0 -93 -27.5t-80 -73.5t-62.5 -103t-41 -117.5t-14.5 -115.5q0 -46 12.5 -86.5t40.5 -66t74 -25.5zM512 700q-43 0 -68.5 13.5t-36.5 33.5t-12 40q0 15 5 27t17 12q8 0 10.5 -7t5.5 -14q8 -21 28.5 -32t52.5 -11q30 0 57 8t48 37q7 9 13 14t14 5q11 0 12 -20
q0 -11 -7.5 -28.5t-24.5 -35t-45 -30t-69 -12.5z" />
    <glyph glyph-name="Ocircumflex" unicode="&#xd4;" horiz-adv-x="693" 
d="M300 -14q-75 0 -126 34.5t-77 93t-26 129.5q0 75 27.5 149.5t79.5 136t125.5 98.5t165.5 37q74 0 125.5 -34.5t77.5 -92.5t26 -130q0 -75 -27.5 -149.5t-80 -136t-126 -98.5t-164.5 -37zM302 19q50 0 94.5 27t81 72.5t62.5 102.5t40 117t14 115q0 46 -13 87.5t-41.5 67.5
t-73.5 26q-49 0 -93 -27.5t-80 -73.5t-62.5 -103t-41 -117.5t-14.5 -115.5q0 -46 12.5 -86.5t40.5 -66t74 -25.5zM363 695q-17 0 -15 11q1 6 9 13l127 86q20 13 30 18.5t19 5.5q12 0 21 -6.5t18 -17.5l74 -86q3 -4 4 -7t1 -6q-1 -12 -16 -12q-7 0 -27 9.5t-41.5 22.5
t-34.5 21q-12 9 -26 1q-10 -5 -31 -14t-44.5 -18t-42 -15t-25.5 -6z" />
    <glyph glyph-name="Odieresis" unicode="&#xd6;" horiz-adv-x="693" 
d="M300 -14q-75 0 -126 34.5t-77 93t-26 129.5q0 75 27.5 149.5t79.5 136t125.5 98.5t165.5 37q74 0 125.5 -34.5t77.5 -92.5t26 -130q0 -75 -27.5 -149.5t-80 -136t-126 -98.5t-164.5 -37zM302 19q50 0 94.5 27t81 72.5t62.5 102.5t40 117t14 115q0 46 -13 87.5t-41.5 67.5
t-73.5 26q-49 0 -93 -27.5t-80 -73.5t-62.5 -103t-41 -117.5t-14.5 -115.5q0 -46 12.5 -86.5t40.5 -66t74 -25.5zM599 696q-19 0 -31.5 14t-12.5 31q0 29 20 49.5t50 20.5q20 0 32 -15t12 -34q0 -18 -10 -33t-25.5 -24t-34.5 -9zM399 696q-19 0 -32 14t-13 31
q0 29 20.5 49.5t50.5 20.5q19 0 31 -15t12 -34q0 -26 -20.5 -46t-48.5 -20z" />
    <glyph glyph-name="Ograve" unicode="&#xd2;" horiz-adv-x="693" 
d="M300 -14q-75 0 -126 34.5t-77 93t-26 129.5q0 75 27.5 149.5t79.5 136t125.5 98.5t165.5 37q74 0 125.5 -34.5t77.5 -92.5t26 -130q0 -75 -27.5 -149.5t-80 -136t-126 -98.5t-164.5 -37zM302 19q50 0 94.5 27t81 72.5t62.5 102.5t40 117t14 115q0 46 -13 87.5t-41.5 67.5
t-73.5 26q-49 0 -93 -27.5t-80 -73.5t-62.5 -103t-41 -117.5t-14.5 -115.5q0 -46 12.5 -86.5t40.5 -66t74 -25.5zM531 696q-2 0 -7.5 1.5t-13.5 6.5q-33 22 -72 47.5t-72 49.5q-14 11 -15 20q-1 7 11.5 13.5t27.5 11t22 4.5q19 2 30 -11q24 -30 45.5 -60t43.5 -59
q8 -9 8 -17q0 -7 -8 -7z" />
    <glyph glyph-name="Ohorn" unicode="&#x1a0;" horiz-adv-x="707" 
d="M307 -14q-77 0 -129.5 34.5t-79.5 93t-27 129.5q0 75 28 149.5t81.5 136t128 98.5t167.5 37q48 0 80.5 -12t56.5 -26q25 -14 47.5 -23t48.5 -9q20 0 29.5 7t9.5 22q0 8 -6 15.5t-14 14.5q-8 8 -15.5 16.5t-7.5 17.5q0 14 12.5 24t31 16t34.5 6q18 0 26 -19.5t8 -40.5
q0 -31 -16.5 -57.5t-44 -43.5t-63.5 -20q-6 -1 -10.5 -3t0.5 -12q15 -25 22 -59t7 -71q0 -75 -28.5 -149.5t-81.5 -136t-127.5 -98.5t-167.5 -37zM311 22q52 0 97 27t82 71.5t63 101t40.5 116.5t14.5 115q0 46 -15 86t-45 65t-77 25q-50 0 -94.5 -27t-81.5 -72.5t-64 -101.5
t-41.5 -116t-14.5 -115q0 -46 14.5 -86t44.5 -64.5t77 -24.5z" />
    <glyph glyph-name="Ohungarumlaut" unicode="&#x150;" horiz-adv-x="693" 
d="M300 -14q-75 0 -126 34.5t-77 93t-26 129.5q0 75 27.5 149.5t79.5 136t125.5 98.5t165.5 37q74 0 125.5 -34.5t77.5 -92.5t26 -130q0 -75 -27.5 -149.5t-80 -136t-126 -98.5t-164.5 -37zM302 19q50 0 94.5 27t81 72.5t62.5 102.5t40 117t14 115q0 46 -13 87.5t-41.5 67.5
t-73.5 26q-49 0 -93 -27.5t-80 -73.5t-62.5 -103t-41 -117.5t-14.5 -115.5q0 -46 12.5 -86.5t40.5 -66t74 -25.5zM526 692q-7 0 -8 7q0 7 6 17q20 32 40.5 63t42.5 62q10 13 29 13q8 0 23.5 -3.5t28 -9t12.5 -13.5t-14 -20q-32 -27 -69.5 -54.5t-69.5 -51.5q-8 -6 -13 -8
t-8 -2zM383 692q-7 0 -8 7q0 7 6 17q20 32 40.5 63t42.5 62q10 13 29 13q8 0 23.5 -3.5t28 -9t12.5 -13.5t-14 -20q-32 -27 -69.5 -54.5t-69.5 -51.5q-8 -6 -13 -8t-8 -2z" />
    <glyph glyph-name="Omacron" unicode="&#x14c;" horiz-adv-x="693" 
d="M300 -14q-75 0 -126 34.5t-77 93t-26 129.5q0 75 27.5 149.5t79.5 136t125.5 98.5t165.5 37q74 0 125.5 -34.5t77.5 -92.5t26 -130q0 -75 -27.5 -149.5t-80 -136t-126 -98.5t-164.5 -37zM302 19q50 0 94.5 27t81 72.5t62.5 102.5t40 117t14 115q0 46 -13 87.5t-41.5 67.5
t-73.5 26q-49 0 -93 -27.5t-80 -73.5t-62.5 -103t-41 -117.5t-14.5 -115.5q0 -46 12.5 -86.5t40.5 -66t74 -25.5zM384 721q-7 0 -11.5 4.5t-4.5 9.5q0 14 7 30t21 16h255q6 0 10.5 -4t4.5 -10q0 -19 -10.5 -32.5t-24.5 -13.5h-247z" />
    <glyph glyph-name="Oslash" unicode="&#xd8;" horiz-adv-x="707" 
d="M80 -14q-10 0 -20.5 8t-10.5 17q0 16 16 31l67 58l38 30l433 435l26 19l70 67q6 5 13 9.5t14 4.5q9 0 16 -6t7 -16q0 -19 -19 -38l-68 -65l-40 -32l-430 -433l-32 -27l-53 -44q-6 -5 -13.5 -11.5t-13.5 -6.5zM300 -14q-75 0 -126 34.5t-77 93t-26 129.5q0 75 27.5 149.5
t79.5 136t125.5 98.5t165.5 37q74 0 125.5 -34.5t77.5 -92.5t26 -130q0 -75 -27.5 -149.5t-80 -136t-126 -98.5t-164.5 -37zM302 19q50 0 94.5 27t81 72.5t62.5 102.5t40 117t14 115q0 46 -13 87.5t-41.5 67.5t-73.5 26q-49 0 -93 -27.5t-80 -73.5t-62.5 -103t-41 -117.5
t-14.5 -115.5q0 -46 12.5 -86.5t40.5 -66t74 -25.5z" />
    <glyph glyph-name="Oslashacute" unicode="&#x1fe;" horiz-adv-x="707" 
d="M80 -14q-10 0 -20.5 8t-10.5 17q0 16 16 31l67 58l38 30l433 435l26 19l70 67q6 5 13 9.5t14 4.5q9 0 16 -6t7 -16q0 -19 -19 -38l-68 -65l-40 -32l-430 -433l-32 -27l-53 -44q-6 -5 -13.5 -11.5t-13.5 -6.5zM300 -14q-75 0 -126 34.5t-77 93t-26 129.5q0 75 27.5 149.5
t79.5 136t125.5 98.5t165.5 37q74 0 125.5 -34.5t77.5 -92.5t26 -130q0 -75 -27.5 -149.5t-80 -136t-126 -98.5t-164.5 -37zM302 19q50 0 94.5 27t81 72.5t62.5 102.5t40 117t14 115q0 46 -13 87.5t-41.5 67.5t-73.5 26q-49 0 -93 -27.5t-80 -73.5t-62.5 -103t-41 -117.5
t-14.5 -115.5q0 -46 12.5 -86.5t40.5 -66t74 -25.5zM469 692q-7 0 -8 7q0 7 6 17q20 32 40.5 63t42.5 62q10 13 29 13q8 0 23.5 -3.5t28 -9t12.5 -13.5t-14 -20q-32 -27 -69.5 -54.5t-69.5 -51.5q-8 -6 -13 -8t-8 -2z" />
    <glyph glyph-name="Otilde" unicode="&#xd5;" horiz-adv-x="693" 
d="M300 -14q-75 0 -126 34.5t-77 93t-26 129.5q0 75 27.5 149.5t79.5 136t125.5 98.5t165.5 37q74 0 125.5 -34.5t77.5 -92.5t26 -130q0 -75 -27.5 -149.5t-80 -136t-126 -98.5t-164.5 -37zM302 19q50 0 94.5 27t81 72.5t62.5 102.5t40 117t14 115q0 46 -13 87.5t-41.5 67.5
t-73.5 26q-49 0 -93 -27.5t-80 -73.5t-62.5 -103t-41 -117.5t-14.5 -115.5q0 -46 12.5 -86.5t40.5 -66t74 -25.5zM377 692q-5 0 -11 5.5t-6 10.5q0 4 9 18t22.5 30.5t27 29t21.5 12.5q18 0 37.5 -1t36.5 -3q17 -1 35.5 -2t35.5 -1q11 0 20.5 6t16.5 13q8 7 12.5 13.5
t7.5 6.5q7 0 14 -5t7 -12q0 -3 -4.5 -9t-11.5 -13q-11 -13 -23 -29l-21 -28q-6 -8 -16 -11t-14 -3q-7 0 -25.5 1t-42 3t-44.5 3.5t-32 1.5q-7 0 -16.5 -4.5t-15.5 -10.5q-8 -7 -13 -14.5t-7 -7.5z" />
    <glyph glyph-name="OE" unicode="&#x152;" horiz-adv-x="949" 
d="M307 -14q-77 0 -129.5 34.5t-79.5 93t-27 129.5q0 75 28 149.5t81.5 136t128 98.5t167.5 37q42 0 79 -6.5t66.5 -23t48.5 -44.5l-52 -73q-10 53 -50.5 82.5t-96.5 29.5q-50 0 -94.5 -27t-81.5 -72.5t-64 -101.5t-41.5 -116t-14.5 -115q0 -46 14.5 -86t44.5 -64.5
t77 -24.5q51 0 97.5 26t83.5 70l24 -77q-43 -26 -97.5 -40.5t-111.5 -14.5zM355 -5q-11 0 -16 3t-5 9q1 13 33 19q46 9 66.5 24t30.5 48l138 452q13 39 1 52.5t-52 20.5q-14 2 -19 6.5t-5 11.5q1 6 10.5 9.5t24.5 3.5q10 0 31 -1.5t46 -2t45 -0.5h163q51 0 79.5 3t41 5.5
t15.5 2.5q5 0 9.5 -5t4.5 -11q0 -8 -6.5 -25.5t-13 -41.5t-9.5 -51q-1 -10 -6.5 -14.5t-10.5 -4.5t-8.5 6t-3.5 17q0 49 -12 69t-51 20h-107q-24 0 -36 -9.5t-20 -35.5l-60 -195q-5 -17 -1.5 -23.5t18.5 -5.5l112 2q26 1 42.5 13t29.5 31q7 8 15 17.5t16 9.5t9 -7.5
t-4 -18.5q-9 -19 -16 -35.5t-12 -32.5q-6 -17 -11 -35t-10 -40q-2 -10 -5.5 -17t-8.5 -7q-8 0 -11.5 10t-3.5 17q1 31 -8.5 45t-26.5 14l-110 2q-15 0 -26 -5t-17 -24l-50 -179q-13 -47 -3.5 -64.5t42.5 -17.5h131q24 0 44 8t36 19q17 12 32 31.5t30 42.5q4 6 8 11t10 5
q5 0 6.5 -6.5t1.5 -14.5q0 -10 -7.5 -31t-17.5 -43.5t-20 -36.5q-5 -9 -12.5 -14t-18.5 -5q-31 0 -66.5 0.5t-73 1.5l-75 2t-73 1.5t-66.5 0.5q-22 0 -42.5 -1.5t-40.5 -3t-44 -1.5z" />
    <glyph glyph-name="P" unicode="P" horiz-adv-x="587" 
d="M10 -4q-10 0 -16 2.5t-6 9.5t9.5 11.5t24.5 7.5q38 7 58.5 22t31.5 50l136 442q13 41 1 59.5t-57 23.5q-13 3 -18.5 6.5t-5.5 10.5q1 6 10.5 9.5t21.5 3.5q10 0 29 -0.5t40 -1.5t36 -1q13 1 34 2t43.5 2t39.5 1q66 0 114.5 -22.5t74.5 -64t26 -98.5q-1 -49 -23.5 -90
t-62 -71t-90 -46.5t-106.5 -16.5q-15 0 -29 3t-14 13q0 6 7 9.5t16 4.5q13 2 25 4t25 5q44 10 77 37t52 66.5t19 88.5q0 48 -16.5 80.5t-46.5 49.5t-73 17q-9 0 -15 -4.5t-11 -16t-12 -33.5l-143 -464q-12 -37 0.5 -54.5t51.5 -25.5q13 -3 19 -7t6 -12q0 -6 -10 -9t-22 -3
q-23 0 -44 1.5t-39 3t-37 1.5q-34 0 -64.5 -3t-66.5 -3z" />
    <glyph glyph-name="Thorn" unicode="&#xde;" horiz-adv-x="574" 
d="M-7 -4q-10 0 -15.5 2.5t-5.5 9.5q2 13 34 19q38 7 60 22t32 49l139 452q11 34 1.5 48.5t-43.5 22.5q-13 3 -17.5 8t-3.5 12t9.5 10t18.5 3q24 0 43.5 -1t37.5 -2t39 -1q20 0 38 0.5t37 1.5t43 1q21 0 20 -12q-1 -8 -10 -12.5t-24 -7.5q-26 -5 -42.5 -13t-27 -21.5
t-17.5 -36.5l-14 -43l-27 27q12 1 33 2t41 1q65 0 113 -23.5t74.5 -66t25.5 -100.5q0 -49 -23.5 -89.5t-63 -70t-91.5 -46t-109 -16.5q-15 0 -29 3.5t-14 13.5q0 6 6.5 9.5t15.5 4.5q13 2 26 3t26 4q35 8 62.5 26t48 44.5t31.5 57.5t11 65q0 47 -16.5 80t-45.5 50.5
t-64 17.5q-14 0 -22 -4t-13.5 -16t-12.5 -34l-108 -352q-9 -33 3.5 -47.5t46.5 -23.5q13 -3 17.5 -7t3.5 -12q-1 -6 -9 -9t-18 -3q-24 0 -43.5 1.5t-38 2.5t-39.5 1q-33 0 -63 -2.5t-67 -2.5z" />
    <glyph glyph-name="Q" unicode="Q" horiz-adv-x="697" 
d="M552 -276q-54 0 -106 25t-101 51q-46 26 -91.5 46t-92.5 20q-17 0 -32.5 -2.5t-27.5 -6.5q-14 -6 -26 -12t-21 -6q-8 0 -10.5 2t-2.5 9q0 12 20 25t51.5 27t67.5 27.5t68.5 25.5t53.5 22q95 47 161 117t100.5 161t34.5 198q0 48 -14.5 88t-44.5 65t-79 25
q-48 0 -91 -26.5t-78.5 -71.5t-61 -102t-40 -117.5t-14.5 -116.5q0 -45 17 -87.5t57 -69.5t110 -28q8 0 16 0.5t17 1.5l-35 -24q-7 -1 -20.5 -2.5t-28.5 -1.5q-77 0 -129.5 34.5t-80 93t-27.5 129.5q0 75 27.5 149.5t79 136t125 98.5t166.5 37q75 0 127 -34.5t79 -92.5
t27 -130q0 -70 -27 -139.5t-78.5 -130.5t-125.5 -108q-44 -28 -81 -49t-81 -39.5t-109 -38.5l-15 7q17 7 35.5 10.5t35.5 3.5q41 0 87 -18t88 -41q47 -27 91.5 -49.5t78.5 -22.5q32 0 56.5 14t40.5 37q10 12 17 12.5t9.5 -5.5t-1.5 -15q-8 -18 -25 -37.5t-40.5 -36
t-50.5 -27t-55 -10.5z" />
    <glyph glyph-name="R" unicode="R" horiz-adv-x="712" 
d="M13 -4q-11 0 -16.5 2.5t-5.5 9.5q2 13 34 19q38 7 58.5 22t31.5 50l136 444q10 31 9 46t-16 21.5t-48 10.5q-14 2 -21 6.5t-7 11.5q0 8 12 11.5t23 3.5q13 0 33.5 -1t40 -1.5t30.5 -0.5q21 0 41 1t40.5 2.5t40.5 1.5q56 0 100 -16.5t70 -49.5t26 -83q0 -51 -25.5 -89.5
t-65 -63t-83.5 -36.5q-12 -5 -8 -16q8 -19 19.5 -45t25 -55t25.5 -53.5t20 -40.5q19 -38 39.5 -54t51.5 -20q13 -1 23.5 -4.5t10.5 -12.5q0 -13 -20 -16.5t-58 -3.5q-36 0 -62.5 6t-43.5 18t-26 31q-15 29 -31 64t-30.5 71t-26.5 68q-9 24 -19.5 34t-33.5 10
q-18 0 -24.5 -4.5t-9.5 -14.5l-54 -173q-11 -34 -2 -53.5t44 -26.5q13 -3 17.5 -7t4.5 -12q-1 -6 -9 -9t-19 -3q-24 0 -42.5 1.5t-34.5 3t-34 1.5q-35 0 -65 -3t-66 -3zM342 321q26 0 56.5 10.5t58.5 33t45.5 59.5t17.5 89q0 48 -30.5 81.5t-76.5 33.5q-13 0 -22.5 -5.5
t-17 -22t-18.5 -52.5l-52 -189q-6 -22 2.5 -30t36.5 -8z" />
    <glyph glyph-name="Racute" unicode="&#x154;" horiz-adv-x="712" 
d="M13 -4q-11 0 -16.5 2.5t-5.5 9.5q2 13 34 19q38 7 58.5 22t31.5 50l136 444q10 31 9 46t-16 21.5t-48 10.5q-14 2 -21 6.5t-7 11.5q0 8 12 11.5t23 3.5q13 0 33.5 -1t40 -1.5t30.5 -0.5q21 0 41 1t40.5 2.5t40.5 1.5q56 0 100 -16.5t70 -49.5t26 -83q0 -51 -25.5 -89.5
t-65 -63t-83.5 -36.5q-12 -5 -8 -16q8 -19 19.5 -45t25 -55t25.5 -53.5t20 -40.5q19 -38 39.5 -54t51.5 -20q13 -1 23.5 -4.5t10.5 -12.5q0 -13 -20 -16.5t-58 -3.5q-36 0 -62.5 6t-43.5 18t-26 31q-15 29 -31 64t-30.5 71t-26.5 68q-9 24 -19.5 34t-33.5 10
q-18 0 -24.5 -4.5t-9.5 -14.5l-54 -173q-11 -34 -2 -53.5t44 -26.5q13 -3 17.5 -7t4.5 -12q-1 -6 -9 -9t-19 -3q-24 0 -42.5 1.5t-34.5 3t-34 1.5q-35 0 -65 -3t-66 -3zM342 321q26 0 56.5 10.5t58.5 33t45.5 59.5t17.5 89q0 48 -30.5 81.5t-76.5 33.5q-13 0 -22.5 -5.5
t-17 -22t-18.5 -52.5l-52 -189q-6 -22 2.5 -30t36.5 -8zM396 692q-7 0 -8 7q0 7 6 17q20 32 40.5 63t42.5 62q10 13 29 13q8 0 23.5 -3.5t28 -9t12.5 -13.5t-14 -20q-32 -27 -69.5 -54.5t-69.5 -51.5q-8 -6 -13 -8t-8 -2z" />
    <glyph glyph-name="Rcaron" unicode="&#x158;" horiz-adv-x="712" 
d="M13 -4q-11 0 -16.5 2.5t-5.5 9.5q2 13 34 19q38 7 58.5 22t31.5 50l136 444q10 31 9 46t-16 21.5t-48 10.5q-14 2 -21 6.5t-7 11.5q0 8 12 11.5t23 3.5q13 0 33.5 -1t40 -1.5t30.5 -0.5q21 0 41 1t40.5 2.5t40.5 1.5q56 0 100 -16.5t70 -49.5t26 -83q0 -51 -25.5 -89.5
t-65 -63t-83.5 -36.5q-12 -5 -8 -16q8 -19 19.5 -45t25 -55t25.5 -53.5t20 -40.5q19 -38 39.5 -54t51.5 -20q13 -1 23.5 -4.5t10.5 -12.5q0 -13 -20 -16.5t-58 -3.5q-36 0 -62.5 6t-43.5 18t-26 31q-15 29 -31 64t-30.5 71t-26.5 68q-9 24 -19.5 34t-33.5 10
q-18 0 -24.5 -4.5t-9.5 -14.5l-54 -173q-11 -34 -2 -53.5t44 -26.5q13 -3 17.5 -7t4.5 -12q-1 -6 -9 -9t-19 -3q-24 0 -42.5 1.5t-34.5 3t-34 1.5q-35 0 -65 -3t-66 -3zM342 321q26 0 56.5 10.5t58.5 33t45.5 59.5t17.5 89q0 48 -30.5 81.5t-76.5 33.5q-13 0 -22.5 -5.5
t-17 -22t-18.5 -52.5l-52 -189q-6 -22 2.5 -30t36.5 -8zM435 697q-9 0 -19 7t-19 17l-74 86q-6 8 -5 13q1 12 17 12q7 0 25.5 -9.5t38.5 -22.5t31 -23q6 -4 13 -3.5t14 3.5q12 5 34.5 14t47 18t43.5 15.5t25 6.5q15 0 15 -11q0 -7 -8 -14l-129 -85q-18 -12 -29 -18t-21 -6z
" />
    <glyph glyph-name="S" unicode="S" horiz-adv-x="488" 
d="M195 -15q-29 0 -57 4.5t-54 15.5q-14 5 -23 8.5t-12 3.5q-5 0 -11 -2t-11 -4q-6 -4 -11.5 -7.5t-9.5 -3.5q-5 0 -13 7t-8 13q0 7 10 29t21.5 55.5t16.5 72.5q4 24 20 24q10 0 12.5 -11.5t2.5 -35.5q0 -36 12.5 -67t39 -49.5t68.5 -18.5q62 0 103 35t41 95q0 25 -8 46
t-27 44.5t-54 55.5q-45 41 -73.5 82.5t-28.5 99.5q0 54 29 96t78.5 66.5t111.5 24.5q23 0 44.5 -4.5t40.5 -9.5q20 -6 33 -11t22 -5q12 0 21 5q5 3 10 5t10 2q9 0 11 -6.5t0 -11.5q-4 -6 -12.5 -22.5t-18 -45.5t-17.5 -73q-2 -14 -7.5 -21.5t-11.5 -7.5q-7 0 -10.5 8
t-3.5 23q0 68 -32 105.5t-85 37.5q-35 0 -62.5 -18t-43 -45.5t-15.5 -57.5q0 -25 8.5 -47.5t29.5 -47t57 -57.5q54 -47 78 -86.5t24 -84.5q0 -53 -27 -99.5t-79.5 -75t-128.5 -28.5z" />
    <glyph glyph-name="Sacute" unicode="&#x15a;" horiz-adv-x="488" 
d="M195 -15q-29 0 -57 4.5t-54 15.5q-14 5 -23 8.5t-12 3.5q-5 0 -11 -2t-11 -4q-6 -4 -11.5 -7.5t-9.5 -3.5q-5 0 -13 7t-8 13q0 7 10 29t21.5 55.5t16.5 72.5q4 24 20 24q10 0 12.5 -11.5t2.5 -35.5q0 -36 12.5 -67t39 -49.5t68.5 -18.5q62 0 103 35t41 95q0 25 -8 46
t-27 44.5t-54 55.5q-45 41 -73.5 82.5t-28.5 99.5q0 54 29 96t78.5 66.5t111.5 24.5q23 0 44.5 -4.5t40.5 -9.5q20 -6 33 -11t22 -5q12 0 21 5q5 3 10 5t10 2q9 0 11 -6.5t0 -11.5q-4 -6 -12.5 -22.5t-18 -45.5t-17.5 -73q-2 -14 -7.5 -21.5t-11.5 -7.5q-7 0 -10.5 8
t-3.5 23q0 68 -32 105.5t-85 37.5q-35 0 -62.5 -18t-43 -45.5t-15.5 -57.5q0 -25 8.5 -47.5t29.5 -47t57 -57.5q54 -47 78 -86.5t24 -84.5q0 -53 -27 -99.5t-79.5 -75t-128.5 -28.5zM350 692q-7 0 -8 7q0 7 6 17q20 32 40.5 63t42.5 62q10 13 29 13q8 0 23.5 -3.5t28 -9
t12.5 -13.5t-14 -20q-32 -27 -69.5 -54.5t-69.5 -51.5q-8 -6 -13 -8t-8 -2z" />
    <glyph glyph-name="Scaron" unicode="&#x160;" horiz-adv-x="488" 
d="M195 -15q-29 0 -57 4.5t-54 15.5q-14 5 -23 8.5t-12 3.5q-5 0 -11 -2t-11 -4q-6 -4 -11.5 -7.5t-9.5 -3.5q-5 0 -13 7t-8 13q0 7 10 29t21.5 55.5t16.5 72.5q4 24 20 24q10 0 12.5 -11.5t2.5 -35.5q0 -36 12.5 -67t39 -49.5t68.5 -18.5q62 0 103 35t41 95q0 25 -8 46
t-27 44.5t-54 55.5q-45 41 -73.5 82.5t-28.5 99.5q0 54 29 96t78.5 66.5t111.5 24.5q23 0 44.5 -4.5t40.5 -9.5q20 -6 33 -11t22 -5q12 0 21 5q5 3 10 5t10 2q9 0 11 -6.5t0 -11.5q-4 -6 -12.5 -22.5t-18 -45.5t-17.5 -73q-2 -14 -7.5 -21.5t-11.5 -7.5q-7 0 -10.5 8
t-3.5 23q0 68 -32 105.5t-85 37.5q-35 0 -62.5 -18t-43 -45.5t-15.5 -57.5q0 -25 8.5 -47.5t29.5 -47t57 -57.5q54 -47 78 -86.5t24 -84.5q0 -53 -27 -99.5t-79.5 -75t-128.5 -28.5zM389 697q-9 0 -19 7t-19 17l-74 86q-6 8 -5 13q1 12 17 12q7 0 25.5 -9.5t38.5 -22.5
t31 -23q6 -4 13 -3.5t14 3.5q12 5 34.5 14t47 18t43.5 15.5t25 6.5q15 0 15 -11q0 -7 -8 -14l-129 -85q-18 -12 -29 -18t-21 -6z" />
    <glyph glyph-name="Scedilla" unicode="&#x15e;" horiz-adv-x="474" 
d="M195 -15q-29 0 -57 4.5t-54 15.5q-14 5 -23 8.5t-12 3.5q-5 0 -11 -2t-11 -4q-6 -4 -11.5 -7.5t-9.5 -3.5q-5 0 -13 7t-8 13q0 7 10 29t21.5 55.5t16.5 72.5q4 24 20 24q10 0 12.5 -11.5t2.5 -35.5q0 -36 12.5 -67t39 -49.5t68.5 -18.5q62 0 103 35t41 95q0 25 -8 46
t-27 44.5t-54 55.5q-45 41 -73.5 82.5t-28.5 99.5q0 54 29 96t78.5 66.5t111.5 24.5q23 0 44.5 -4.5t40.5 -9.5q20 -6 33 -11t22 -5q12 0 21 5q5 3 10 5t10 2q9 0 11 -6.5t0 -11.5q-4 -6 -12.5 -22.5t-18 -45.5t-17.5 -73q-2 -14 -7.5 -21.5t-11.5 -7.5q-7 0 -10.5 8
t-3.5 23q0 68 -32 105.5t-85 37.5q-35 0 -62.5 -18t-43 -45.5t-15.5 -57.5q0 -25 8.5 -47.5t29.5 -47t57 -57.5q54 -47 78 -86.5t24 -84.5q0 -53 -27 -99.5t-79.5 -75t-128.5 -28.5zM95 -281q-23 0 -42 8.5t-29 21.5t-10 29q0 30 23 30q11 0 21 -6t19 -15q12 -10 23 -18.5
t26 -8.5q10 0 17 8t7 18q0 16 -10 26.5t-22 22.5q-10 11 -20 25t-10 31t18 40t44.5 46.5t54.5 39.5h33q-43 -34 -57.5 -58t-14.5 -38q0 -10 9.5 -21.5t20.5 -22.5q12 -11 21 -23t9 -25q0 -16 -14.5 -35t-35.5 -36t-43 -28t-38 -11z" />
    <glyph glyph-name="Scircumflex" unicode="&#x15c;" horiz-adv-x="488" 
d="M195 -15q-29 0 -57 4.5t-54 15.5q-14 5 -23 8.5t-12 3.5q-5 0 -11 -2t-11 -4q-6 -4 -11.5 -7.5t-9.5 -3.5q-5 0 -13 7t-8 13q0 7 10 29t21.5 55.5t16.5 72.5q4 24 20 24q10 0 12.5 -11.5t2.5 -35.5q0 -36 12.5 -67t39 -49.5t68.5 -18.5q62 0 103 35t41 95q0 25 -8 46
t-27 44.5t-54 55.5q-45 41 -73.5 82.5t-28.5 99.5q0 54 29 96t78.5 66.5t111.5 24.5q23 0 44.5 -4.5t40.5 -9.5q20 -6 33 -11t22 -5q12 0 21 5q5 3 10 5t10 2q9 0 11 -6.5t0 -11.5q-4 -6 -12.5 -22.5t-18 -45.5t-17.5 -73q-2 -14 -7.5 -21.5t-11.5 -7.5q-7 0 -10.5 8
t-3.5 23q0 68 -32 105.5t-85 37.5q-35 0 -62.5 -18t-43 -45.5t-15.5 -57.5q0 -25 8.5 -47.5t29.5 -47t57 -57.5q54 -47 78 -86.5t24 -84.5q0 -53 -27 -99.5t-79.5 -75t-128.5 -28.5zM254 695q-17 0 -15 11q1 6 9 13l127 86q20 13 30 18.5t19 5.5q12 0 21 -6.5t18 -17.5
l74 -86q3 -4 4 -7t1 -6q-1 -12 -16 -12q-7 0 -27 9.5t-41.5 22.5t-34.5 21q-12 9 -26 1q-10 -5 -31 -14t-44.5 -18t-42 -15t-25.5 -6z" />
    <glyph glyph-name="uni1E9E" unicode="&#x1e9e;" horiz-adv-x="673" 
d="M367 -14q-34 0 -57 4t-40 8q-13 4 -16.5 12.5t-3.5 22.5q0 17 2 39t5.5 43.5t7.5 36.5q2 7 6.5 13t11.5 6q8 0 12 -17t7 -38t11.5 -42.5t26 -36.5t46.5 -15q46 0 80.5 23.5t54 61.5t19.5 83q0 48 -19 79.5t-56 46.5t-90 15q-3 0 -11.5 1.5t-1.5 8.5l230 246q14 14 -2 24
q-8 5 -26 11t-56 6q-56 0 -102.5 -26.5t-85 -84t-70.5 -152.5q-6 -19 -16.5 -54t-22 -75t-22 -76t-17.5 -59q-9 -30 -4 -44.5t25 -23.5q24 -8 24 -20q0 -8 -9.5 -11t-21.5 -3q-17 0 -42 1t-49 1q-28 0 -64 -1.5t-60 -1.5q-10 0 -15.5 3t-4.5 9q2 7 10.5 13.5t23.5 8.5
q36 6 55 19.5t30 50.5l88 293q26 88 78 148t125.5 90.5t163.5 30.5q66 0 116 -13t70 -24q11 -4 12.5 -13t-8.5 -20l-45 -44q-46 -48 -85 -88.5t-83 -88.5q-7 -7 -6 -9.5t5 -3.5q43 -7 76 -29t52.5 -54.5t19.5 -73.5q0 -53 -23 -93.5t-62.5 -68t-90.5 -41.5t-106 -14z" />
    <glyph glyph-name="uni018F" unicode="&#x18f;" horiz-adv-x="665" 
d="M251 -15q-73 0 -124.5 24.5t-78.5 62.5t-28 80q-1 48 21.5 79.5t70.5 31.5h447l-11 -34l-362 -4q-31 0 -50 -25t-19 -70q0 -49 40 -76t104 -27q52 0 98.5 23.5t84 64.5t65 93t41.5 110t13 114q-1 57 -17.5 101t-50.5 69t-88 25q-42 0 -79 -14.5t-68 -37.5t-55.5 -47.5
t-41.5 -44.5q-7 -8 -15 -14.5t-19 -6.5q-10 0 -7 11t8 22q7 14 16 38.5t21 48.5t25 35q6 5 25 3.5t40 5.5q30 12 68 25t97 13q83 0 139 -34t84 -91.5t27 -128.5q0 -60 -20 -121t-57 -115.5t-89 -97t-116.5 -67t-138.5 -24.5z" />
    <glyph glyph-name="T" unicode="T" horiz-adv-x="641" 
d="M141 -4q-10 0 -16 2.5t-5 9.5q0 7 9.5 11t24.5 6q38 8 61 24.5t33 51.5l126 427q15 53 13.5 69.5t-16.5 16.5h-70q-44 0 -73 -19.5t-49 -42.5q-9 -9 -18 -21t-18 -20.5t-16 -8.5t-9 3t-2 11q1 3 3.5 11t7.5 19q17 25 30.5 52t22.5 56q3 9 9 15.5t12 6.5t13 -5.5t13 -10.5
q5 -4 12 -8t23 -6t48 -2l328 1q35 0 53 2t26.5 5.5t11.5 5.5q10 6 17 12t14 6q11 0 10 -13q-1 -6 -4 -13t-6 -12q-10 -18 -22 -50t-21 -72q-2 -11 -6 -15.5t-10 -4.5q-8 0 -11.5 7t-3.5 20q0 44 -15 67.5t-55 23.5h-82q-14 0 -23 -6.5t-17 -25t-19 -56.5l-125 -425
q-9 -34 4 -50.5t47 -25.5q13 -3 18 -6t4 -11q-1 -6 -9 -9t-19 -3q-24 0 -44 1.5t-39 2.5t-39 1q-22 0 -43.5 -1t-43 -2.5t-45.5 -1.5z" />
    <glyph glyph-name="Tbar" unicode="&#x166;" horiz-adv-x="654" 
d="M205 331q-6 0 -9 5t-2 12q2 12 11.5 19t20.5 7h317q6 0 9 -3.5t3 -8.5q-1 -13 -17 -22t-27 -9h-306zM141 -4q-10 0 -16 2.5t-5 9.5q0 7 9.5 11t24.5 6q38 8 61 24.5t33 51.5l126 427q15 53 13.5 69.5t-16.5 16.5h-70q-44 0 -73 -19.5t-49 -42.5q-9 -9 -18 -21t-18 -20.5
t-16 -8.5t-9 3t-2 11q1 3 3.5 11t7.5 19q17 25 30.5 52t22.5 56q3 9 9 15.5t12 6.5t13 -5.5t13 -10.5q5 -4 12 -8t23 -6t48 -2l328 1q35 0 53 2t26.5 5.5t11.5 5.5q10 6 17 12t14 6q11 0 10 -13q-1 -6 -4 -13t-6 -12q-10 -18 -22 -50t-21 -72q-2 -11 -6 -15.5t-10 -4.5
q-8 0 -11.5 7t-3.5 20q0 44 -15 67.5t-55 23.5h-82q-14 0 -23 -6.5t-17 -25t-19 -56.5l-125 -425q-9 -34 4 -50.5t47 -25.5q13 -3 18 -6t4 -11q-1 -6 -9 -9t-19 -3q-24 0 -44 1.5t-39 2.5t-39 1q-22 0 -43.5 -1t-43 -2.5t-45.5 -1.5z" />
    <glyph glyph-name="Tcaron" unicode="&#x164;" horiz-adv-x="641" 
d="M141 -4q-10 0 -16 2.5t-5 9.5q0 7 9.5 11t24.5 6q38 8 61 24.5t33 51.5l126 427q15 53 13.5 69.5t-16.5 16.5h-70q-44 0 -73 -19.5t-49 -42.5q-9 -9 -18 -21t-18 -20.5t-16 -8.5t-9 3t-2 11q1 3 3.5 11t7.5 19q17 25 30.5 52t22.5 56q3 9 9 15.5t12 6.5t13 -5.5t13 -10.5
q5 -4 12 -8t23 -6t48 -2l328 1q35 0 53 2t26.5 5.5t11.5 5.5q10 6 17 12t14 6q11 0 10 -13q-1 -6 -4 -13t-6 -12q-10 -18 -22 -50t-21 -72q-2 -11 -6 -15.5t-10 -4.5q-8 0 -11.5 7t-3.5 20q0 44 -15 67.5t-55 23.5h-82q-14 0 -23 -6.5t-17 -25t-19 -56.5l-125 -425
q-9 -34 4 -50.5t47 -25.5q13 -3 18 -6t4 -11q-1 -6 -9 -9t-19 -3q-24 0 -44 1.5t-39 2.5t-39 1q-22 0 -43.5 -1t-43 -2.5t-45.5 -1.5zM474 697q-9 0 -19 7t-19 17l-74 86q-6 8 -5 13q1 12 17 12q7 0 25.5 -9.5t38.5 -22.5t31 -23q6 -4 13 -3.5t14 3.5q12 5 34.5 14t47 18
t43.5 15.5t25 6.5q15 0 15 -11q0 -7 -8 -14l-129 -85q-18 -12 -29 -18t-21 -6z" />
    <glyph glyph-name="U" unicode="U" horiz-adv-x="704" 
d="M306 -14q-54 0 -97.5 17t-71.5 50t-34.5 83t14.5 116l89 292q10 33 2.5 52t-24.5 23q-29 9 -28 22q0 7 12 10t24 3q24 0 49.5 -2t52.5 -2q24 0 50.5 1.5t45.5 1.5q25 0 23 -13q-2 -8 -14 -12.5t-29 -10.5q-17 -5 -35 -24.5t-30 -58.5l-90 -296q-20 -67 -6.5 -111.5
t49 -66.5t82.5 -22q66 0 114 32.5t80 84.5t50 111q12 40 24.5 79t22.5 71t15 50q18 59 19.5 89.5t-9.5 44t-33 20.5q-9 3 -19 7.5t-9 12.5q0 6 9.5 9t21.5 3q18 0 35.5 -0.5l35 -1t31.5 -0.5q16 0 29 1t25.5 2t25.5 1q12 0 18 -3t5 -10q-2 -12 -37 -20q-18 -5 -31.5 -13
t-25.5 -29t-28 -65q-22 -60 -43 -125t-46 -134q-27 -78 -66.5 -139t-99 -95.5t-148.5 -34.5z" />
    <glyph glyph-name="Uacute" unicode="&#xda;" horiz-adv-x="704" 
d="M306 -14q-54 0 -97.5 17t-71.5 50t-34.5 83t14.5 116l89 292q10 33 2.5 52t-24.5 23q-29 9 -28 22q0 7 12 10t24 3q24 0 49.5 -2t52.5 -2q24 0 50.5 1.5t45.5 1.5q25 0 23 -13q-2 -8 -14 -12.5t-29 -10.5q-17 -5 -35 -24.5t-30 -58.5l-90 -296q-20 -67 -6.5 -111.5
t49 -66.5t82.5 -22q66 0 114 32.5t80 84.5t50 111q12 40 24.5 79t22.5 71t15 50q18 59 19.5 89.5t-9.5 44t-33 20.5q-9 3 -19 7.5t-9 12.5q0 6 9.5 9t21.5 3q18 0 35.5 -0.5l35 -1t31.5 -0.5q16 0 29 1t25.5 2t25.5 1q12 0 18 -3t5 -10q-2 -12 -37 -20q-18 -5 -31.5 -13
t-25.5 -29t-28 -65q-22 -60 -43 -125t-46 -134q-27 -78 -66.5 -139t-99 -95.5t-148.5 -34.5zM482 692q-7 0 -8 7q0 7 6 17q20 32 40.5 63t42.5 62q10 13 29 13q8 0 23.5 -3.5t28 -9t12.5 -13.5t-14 -20q-32 -27 -69.5 -54.5t-69.5 -51.5q-8 -6 -13 -8t-8 -2z" />
    <glyph glyph-name="Ubreve" unicode="&#x16c;" horiz-adv-x="704" 
d="M306 -14q-54 0 -97.5 17t-71.5 50t-34.5 83t14.5 116l89 292q10 33 2.5 52t-24.5 23q-29 9 -28 22q0 7 12 10t24 3q24 0 49.5 -2t52.5 -2q24 0 50.5 1.5t45.5 1.5q25 0 23 -13q-2 -8 -14 -12.5t-29 -10.5q-17 -5 -35 -24.5t-30 -58.5l-90 -296q-20 -67 -6.5 -111.5
t49 -66.5t82.5 -22q66 0 114 32.5t80 84.5t50 111q12 40 24.5 79t22.5 71t15 50q18 59 19.5 89.5t-9.5 44t-33 20.5q-9 3 -19 7.5t-9 12.5q0 6 9.5 9t21.5 3q18 0 35.5 -0.5l35 -1t31.5 -0.5q16 0 29 1t25.5 2t25.5 1q12 0 18 -3t5 -10q-2 -12 -37 -20q-18 -5 -31.5 -13
t-25.5 -29t-28 -65q-22 -60 -43 -125t-46 -134q-27 -78 -66.5 -139t-99 -95.5t-148.5 -34.5zM534 700q-43 0 -68.5 13.5t-36.5 33.5t-12 40q0 15 5 27t17 12q8 0 10.5 -7t5.5 -14q8 -21 28.5 -32t52.5 -11q30 0 57 8t48 37q7 9 13 14t14 5q11 0 12 -20q0 -11 -7.5 -28.5
t-24.5 -35t-45 -30t-69 -12.5z" />
    <glyph glyph-name="Ucircumflex" unicode="&#xdb;" horiz-adv-x="704" 
d="M306 -14q-54 0 -97.5 17t-71.5 50t-34.5 83t14.5 116l89 292q10 33 2.5 52t-24.5 23q-29 9 -28 22q0 7 12 10t24 3q24 0 49.5 -2t52.5 -2q24 0 50.5 1.5t45.5 1.5q25 0 23 -13q-2 -8 -14 -12.5t-29 -10.5q-17 -5 -35 -24.5t-30 -58.5l-90 -296q-20 -67 -6.5 -111.5
t49 -66.5t82.5 -22q66 0 114 32.5t80 84.5t50 111q12 40 24.5 79t22.5 71t15 50q18 59 19.5 89.5t-9.5 44t-33 20.5q-9 3 -19 7.5t-9 12.5q0 6 9.5 9t21.5 3q18 0 35.5 -0.5l35 -1t31.5 -0.5q16 0 29 1t25.5 2t25.5 1q12 0 18 -3t5 -10q-2 -12 -37 -20q-18 -5 -31.5 -13
t-25.5 -29t-28 -65q-22 -60 -43 -125t-46 -134q-27 -78 -66.5 -139t-99 -95.5t-148.5 -34.5zM386 695q-17 0 -15 11q1 6 9 13l127 86q20 13 30 18.5t19 5.5q12 0 21 -6.5t18 -17.5l74 -86q3 -4 4 -7t1 -6q-1 -12 -16 -12q-7 0 -27 9.5t-41.5 22.5t-34.5 21q-12 9 -26 1
q-10 -5 -31 -14t-44.5 -18t-42 -15t-25.5 -6z" />
    <glyph glyph-name="Udieresis" unicode="&#xdc;" horiz-adv-x="704" 
d="M306 -14q-54 0 -97.5 17t-71.5 50t-34.5 83t14.5 116l89 292q10 33 2.5 52t-24.5 23q-29 9 -28 22q0 7 12 10t24 3q24 0 49.5 -2t52.5 -2q24 0 50.5 1.5t45.5 1.5q25 0 23 -13q-2 -8 -14 -12.5t-29 -10.5q-17 -5 -35 -24.5t-30 -58.5l-90 -296q-20 -67 -6.5 -111.5
t49 -66.5t82.5 -22q66 0 114 32.5t80 84.5t50 111q12 40 24.5 79t22.5 71t15 50q18 59 19.5 89.5t-9.5 44t-33 20.5q-9 3 -19 7.5t-9 12.5q0 6 9.5 9t21.5 3q18 0 35.5 -0.5l35 -1t31.5 -0.5q16 0 29 1t25.5 2t25.5 1q12 0 18 -3t5 -10q-2 -12 -37 -20q-18 -5 -31.5 -13
t-25.5 -29t-28 -65q-22 -60 -43 -125t-46 -134q-27 -78 -66.5 -139t-99 -95.5t-148.5 -34.5zM622 696q-19 0 -31.5 14t-12.5 31q0 29 20 49.5t50 20.5q20 0 32 -15t12 -34q0 -18 -10 -33t-25.5 -24t-34.5 -9zM422 696q-19 0 -32 14t-13 31q0 29 20.5 49.5t50.5 20.5
q19 0 31 -15t12 -34q0 -26 -20.5 -46t-48.5 -20z" />
    <glyph glyph-name="Ugrave" unicode="&#xd9;" horiz-adv-x="704" 
d="M306 -14q-54 0 -97.5 17t-71.5 50t-34.5 83t14.5 116l89 292q10 33 2.5 52t-24.5 23q-29 9 -28 22q0 7 12 10t24 3q24 0 49.5 -2t52.5 -2q24 0 50.5 1.5t45.5 1.5q25 0 23 -13q-2 -8 -14 -12.5t-29 -10.5q-17 -5 -35 -24.5t-30 -58.5l-90 -296q-20 -67 -6.5 -111.5
t49 -66.5t82.5 -22q66 0 114 32.5t80 84.5t50 111q12 40 24.5 79t22.5 71t15 50q18 59 19.5 89.5t-9.5 44t-33 20.5q-9 3 -19 7.5t-9 12.5q0 6 9.5 9t21.5 3q18 0 35.5 -0.5l35 -1t31.5 -0.5q16 0 29 1t25.5 2t25.5 1q12 0 18 -3t5 -10q-2 -12 -37 -20q-18 -5 -31.5 -13
t-25.5 -29t-28 -65q-22 -60 -43 -125t-46 -134q-27 -78 -66.5 -139t-99 -95.5t-148.5 -34.5zM554 696q-2 0 -7.5 1.5t-13.5 6.5q-33 22 -72 47.5t-72 49.5q-14 11 -15 20q-1 7 11.5 13.5t27.5 11t22 4.5q19 2 30 -11q24 -30 45.5 -60t43.5 -59q8 -9 8 -17q0 -7 -8 -7z" />
    <glyph glyph-name="Uhorn" unicode="&#x1af;" horiz-adv-x="704" 
d="M306 -14q-54 0 -97.5 17t-71.5 50t-34.5 83t14.5 116l89 292q10 33 2.5 52t-24.5 23q-29 9 -28 22q0 7 12 10t24 3q24 0 49.5 -2t52.5 -2q24 0 50.5 1.5t45.5 1.5q25 0 23 -13q-2 -8 -14 -12.5t-29 -10.5q-14 -5 -33 -23.5t-29 -50.5l-91 -302q-20 -66 -6.5 -110.5
t49.5 -66.5t82 -22q67 0 114 32t79.5 88t54.5 126q9 29 19.5 65t22.5 74t23 74q12 39 14.5 62t-4.5 35.5t-26 19.5q-9 4 -18 9t-9 13q1 6 10.5 9t21.5 3q18 0 32 -0.5t31 -1t42 -0.5q16 0 31.5 1.5t25.5 6t11 15.5q1 8 -5.5 13.5t-14.5 9.5q-9 5 -16 10.5t-7 14.5
q0 14 12 24.5t29 17t33 6.5q12 0 22 -10.5t16 -25.5t6 -28q0 -23 -15 -39.5t-39.5 -29t-53.5 -24.5q-23 -10 -38 -25t-26 -45q-27 -74 -51 -146t-49 -141q-27 -78 -66.5 -139t-99 -95.5t-148.5 -34.5z" />
    <glyph glyph-name="Uhungarumlaut" unicode="&#x170;" horiz-adv-x="704" 
d="M306 -14q-54 0 -97.5 17t-71.5 50t-34.5 83t14.5 116l89 292q10 33 2.5 52t-24.5 23q-29 9 -28 22q0 7 12 10t24 3q24 0 49.5 -2t52.5 -2q24 0 50.5 1.5t45.5 1.5q25 0 23 -13q-2 -8 -14 -12.5t-29 -10.5q-17 -5 -35 -24.5t-30 -58.5l-90 -296q-20 -67 -6.5 -111.5
t49 -66.5t82.5 -22q66 0 114 32.5t80 84.5t50 111q12 40 24.5 79t22.5 71t15 50q18 59 19.5 89.5t-9.5 44t-33 20.5q-9 3 -19 7.5t-9 12.5q0 6 9.5 9t21.5 3q18 0 35.5 -0.5l35 -1t31.5 -0.5q16 0 29 1t25.5 2t25.5 1q12 0 18 -3t5 -10q-2 -12 -37 -20q-18 -5 -31.5 -13
t-25.5 -29t-28 -65q-22 -60 -43 -125t-46 -134q-27 -78 -66.5 -139t-99 -95.5t-148.5 -34.5zM548 692q-7 0 -8 7q0 7 6 17q20 32 40.5 63t42.5 62q10 13 29 13q8 0 23.5 -3.5t28 -9t12.5 -13.5t-14 -20q-32 -27 -69.5 -54.5t-69.5 -51.5q-8 -6 -13 -8t-8 -2zM406 692
q-7 0 -8 7q0 7 6 17q20 32 40.5 63t42.5 62q10 13 29 13q8 0 23.5 -3.5t28 -9t12.5 -13.5t-14 -20q-32 -27 -69.5 -54.5t-69.5 -51.5q-8 -6 -13 -8t-8 -2z" />
    <glyph glyph-name="Umacron" unicode="&#x16a;" horiz-adv-x="704" 
d="M306 -14q-54 0 -97.5 17t-71.5 50t-34.5 83t14.5 116l89 292q10 33 2.5 52t-24.5 23q-29 9 -28 22q0 7 12 10t24 3q24 0 49.5 -2t52.5 -2q24 0 50.5 1.5t45.5 1.5q25 0 23 -13q-2 -8 -14 -12.5t-29 -10.5q-17 -5 -35 -24.5t-30 -58.5l-90 -296q-20 -67 -6.5 -111.5
t49 -66.5t82.5 -22q66 0 114 32.5t80 84.5t50 111q12 40 24.5 79t22.5 71t15 50q18 59 19.5 89.5t-9.5 44t-33 20.5q-9 3 -19 7.5t-9 12.5q0 6 9.5 9t21.5 3q18 0 35.5 -0.5l35 -1t31.5 -0.5q16 0 29 1t25.5 2t25.5 1q12 0 18 -3t5 -10q-2 -12 -37 -20q-18 -5 -31.5 -13
t-25.5 -29t-28 -65q-22 -60 -43 -125t-46 -134q-27 -78 -66.5 -139t-99 -95.5t-148.5 -34.5zM407 721q-7 0 -11.5 4.5t-4.5 9.5q0 14 7 30t21 16h255q6 0 10.5 -4t4.5 -10q0 -19 -10.5 -32.5t-24.5 -13.5h-247z" />
    <glyph glyph-name="Uogonek" unicode="&#x172;" horiz-adv-x="731" 
d="M306 -14q-54 0 -97.5 17t-71.5 50t-34.5 83t14.5 116l89 292q10 33 2.5 52t-24.5 23q-29 9 -28 22q0 7 12 10t24 3q24 0 49.5 -2t52.5 -2q24 0 50.5 1.5t45.5 1.5q25 0 23 -13q-2 -8 -14 -12.5t-29 -10.5q-17 -5 -35 -24.5t-30 -58.5l-90 -296q-20 -67 -6.5 -111.5
t49 -66.5t82.5 -22q66 0 114 32.5t80 84.5t50 111q12 40 24.5 79t22.5 71t15 50q18 59 19.5 89.5t-9.5 44t-33 20.5q-9 3 -19 7.5t-9 12.5q0 6 9.5 9t21.5 3q18 0 35.5 -0.5l35 -1t31.5 -0.5q16 0 29 1t25.5 2t25.5 1q12 0 18 -3t5 -10q-2 -12 -37 -20q-18 -5 -31.5 -13
t-25.5 -29t-28 -65q-22 -60 -43 -125t-46 -134q-27 -78 -66.5 -139t-99 -95.5t-148.5 -34.5zM290 -286q-17 0 -33.5 10.5t-26.5 28t-10 35.5q0 39 18.5 73t47.5 62.5t63 52t67 42.5h32q-36 -25 -66.5 -55t-49 -65t-18.5 -74q0 -13 8.5 -26t26.5 -13q15 0 33.5 13.5
t28.5 25.5q2 2 7 6t10.5 5.5t6.5 -6.5q2 -1 -0.5 -8t-4.5 -11q-9 -18 -24 -35t-33.5 -30.5t-39.5 -22t-43 -8.5z" />
    <glyph glyph-name="Uring" unicode="&#x16e;" horiz-adv-x="704" 
d="M306 -14q-54 0 -97.5 17t-71.5 50t-34.5 83t14.5 116l89 292q10 33 2.5 52t-24.5 23q-29 9 -28 22q0 7 12 10t24 3q24 0 49.5 -2t52.5 -2q24 0 50.5 1.5t45.5 1.5q25 0 23 -13q-2 -8 -14 -12.5t-29 -10.5q-17 -5 -35 -24.5t-30 -58.5l-90 -296q-20 -67 -6.5 -111.5
t49 -66.5t82.5 -22q66 0 114 32.5t80 84.5t50 111q12 40 24.5 79t22.5 71t15 50q18 59 19.5 89.5t-9.5 44t-33 20.5q-9 3 -19 7.5t-9 12.5q0 6 9.5 9t21.5 3q18 0 35.5 -0.5l35 -1t31.5 -0.5q16 0 29 1t25.5 2t25.5 1q12 0 18 -3t5 -10q-2 -12 -37 -20q-18 -5 -31.5 -13
t-25.5 -29t-28 -65q-22 -60 -43 -125t-46 -134q-27 -78 -66.5 -139t-99 -95.5t-148.5 -34.5zM524 699q-29 0 -54 15t-25 42q0 42 33 68.5t77 26.5q19 0 37.5 -7t30 -20.5t11.5 -32.5q0 -43 -32.5 -67.5t-77.5 -24.5zM534 724q25 0 38 18.5t13 44.5q0 16 -11.5 26.5
t-26.5 10.5q-25 0 -39 -19t-14 -45q0 -15 12 -25.5t28 -10.5z" />
    <glyph glyph-name="Utilde" unicode="&#x168;" horiz-adv-x="704" 
d="M306 -14q-54 0 -97.5 17t-71.5 50t-34.5 83t14.5 116l89 292q10 33 2.5 52t-24.5 23q-29 9 -28 22q0 7 12 10t24 3q24 0 49.5 -2t52.5 -2q24 0 50.5 1.5t45.5 1.5q25 0 23 -13q-2 -8 -14 -12.5t-29 -10.5q-17 -5 -35 -24.5t-30 -58.5l-90 -296q-20 -67 -6.5 -111.5
t49 -66.5t82.5 -22q66 0 114 32.5t80 84.5t50 111q12 40 24.5 79t22.5 71t15 50q18 59 19.5 89.5t-9.5 44t-33 20.5q-9 3 -19 7.5t-9 12.5q0 6 9.5 9t21.5 3q18 0 35.5 -0.5l35 -1t31.5 -0.5q16 0 29 1t25.5 2t25.5 1q12 0 18 -3t5 -10q-2 -12 -37 -20q-18 -5 -31.5 -13
t-25.5 -29t-28 -65q-22 -60 -43 -125t-46 -134q-27 -78 -66.5 -139t-99 -95.5t-148.5 -34.5zM399 692q-5 0 -11 5.5t-6 10.5q0 4 9 18t22.5 30.5t27 29t21.5 12.5q18 0 37.5 -1t36.5 -3q17 -1 35.5 -2t35.5 -1q11 0 20.5 6t16.5 13q8 7 12.5 13.5t7.5 6.5q7 0 14 -5t7 -12
q0 -3 -4.5 -9t-11.5 -13q-11 -13 -23 -29l-21 -28q-6 -8 -16 -11t-14 -3q-7 0 -25.5 1t-42 3t-44.5 3.5t-32 1.5q-7 0 -16.5 -4.5t-15.5 -10.5q-8 -7 -13 -14.5t-7 -7.5z" />
    <glyph glyph-name="V" unicode="V" horiz-adv-x="698" 
d="M189 -15q-20 0 -28 22t2 73q27 152 45.5 266.5t26.5 204.5q3 31 -4.5 47t-41.5 23q-16 3 -22 8t-6 13q0 7 9 10t22 3q23 0 55 -2.5t62 -2.5q19 0 40 1t41 1h34q11 0 17.5 -3t6.5 -9q-1 -8 -12 -13t-23 -7q-31 -5 -47 -17.5t-22 -48.5l-68 -401q-3 -14 -1.5 -19t4.5 -5
t8 6.5l15 19.5l269 329q38 46 49 74.5t4 43t-24 18.5q-14 2 -19 7.5t-4 13.5q0 6 9.5 9t21.5 3q19 0 44 -1.5t51 -1.5q31 0 51 3t46 3q11 0 18 -3.5t7 -10.5t-11 -12.5t-26 -9.5q-28 -7 -58.5 -25.5t-58.5 -52.5l-367 -435q-17 -20 -34 -41t-33 -39.5t-28.5 -30t-19.5 -11.5
z" />
    <glyph glyph-name="uni0194" unicode="&#x194;" horiz-adv-x="698" 
d="M88 -288q-41 0 -66.5 23.5t-25.5 59.5q0 32 8 57.5t26 50.5t47 54t69 68q11 11 12.5 21.5t2.5 18.5q20 100 34.5 188t24.5 163t15 135q3 31 -4.5 47t-41.5 23q-16 3 -22 8t-6 13q0 7 9 10t22 3q23 0 55 -2.5t62 -2.5q19 0 40 1t41 1h34q11 0 17.5 -3t6.5 -9
q-1 -8 -12 -13t-23 -7q-31 -5 -47 -17.5t-22 -48.5l-68 -401q-3 -14 -1.5 -15t4.5 -1q8 0 23 18l269 329q38 46 49 74.5t4 43t-24 18.5q-14 2 -19 7.5t-4 13.5q0 6 9.5 9t21.5 3q19 0 44 -1.5t51 -1.5q31 0 51 3t46 3q11 0 18 -3.5t7 -10.5t-11 -12.5t-26 -9.5
q-28 -7 -58.5 -26t-58.5 -52l-395 -466q-14 -18 -17 -30.5t-5 -30.5q-4 -42 -8 -78t-9 -68q-7 -53 -28.5 -88t-52.5 -51.5t-68 -17.5zM78 -233q10 0 20.5 7t19 25t12.5 51q3 26 7.5 55.5t8.5 61.5q1 5 -2 7t-8 -4q-35 -34 -54 -61.5t-26.5 -50.5t-7.5 -44t7 -34t23 -13z" />
    <glyph glyph-name="W" unicode="W" horiz-adv-x="1083" 
d="M204 -15q-14 0 -21 16t-7.5 40.5t3.5 49.5q10 56 20.5 115.5t20 118t17 111.5t12.5 96q4 35 1.5 52t-16 24.5t-41.5 12.5q-15 3 -23.5 7.5t-8.5 13.5q0 8 10.5 10.5t25.5 2.5q23 0 53.5 -2.5t65.5 -2.5q19 0 40.5 1t41.5 1h34q11 0 18.5 -3t6.5 -10t-13 -12.5t-25 -7.5
q-24 -2 -37 -9t-19.5 -22.5t-11.5 -43.5q-14 -91 -29.5 -182.5t-30.5 -183.5q-4 -27 3 -27.5t29 25.5l258 307q25 29 36 49t11 36q0 24 -13 35.5t-46 17.5q-15 3 -23.5 8t-8.5 13t11 10.5t25 2.5q16 0 40 -1t48.5 -2.5t43.5 -1.5t40 1.5t41.5 3t38.5 1.5q23 0 23 -14
q0 -7 -10 -12.5t-25 -7.5q-44 -7 -60 -21.5t-21 -48.5l-59 -374q-4 -27 3.5 -27t27.5 26l243 306q37 47 47.5 75t2 43t-30.5 19q-14 3 -19.5 7.5t-4.5 11.5q0 7 10 10.5t22 3.5t32 -1t42 -1.5t40 -0.5q30 0 50.5 3t45.5 3q12 0 19 -3.5t7 -10.5t-11.5 -13t-26.5 -9
q-31 -6 -60.5 -24.5t-57.5 -53.5l-364 -434q-22 -27 -45 -55.5t-41 -47.5t-27 -19q-15 0 -21 11t-6.5 29.5t3 40.5t7.5 45q10 57 21.5 121.5t22.5 128t20 120.5l-311 -373q-14 -17 -29.5 -38.5t-30.5 -41t-27.5 -32t-21.5 -12.5z" />
    <glyph glyph-name="Wacute" unicode="&#x1e82;" horiz-adv-x="1083" 
d="M204 -15q-14 0 -21 16t-7.5 40.5t3.5 49.5q10 56 20.5 115.5t20 118t17 111.5t12.5 96q4 35 1.5 52t-16 24.5t-41.5 12.5q-15 3 -23.5 7.5t-8.5 13.5q0 8 10.5 10.5t25.5 2.5q23 0 53.5 -2.5t65.5 -2.5q19 0 40.5 1t41.5 1h34q11 0 18.5 -3t6.5 -10t-13 -12.5t-25 -7.5
q-24 -2 -37 -9t-19.5 -22.5t-11.5 -43.5q-14 -91 -29.5 -182.5t-30.5 -183.5q-4 -27 3 -27.5t29 25.5l258 307q25 29 36 49t11 36q0 24 -13 35.5t-46 17.5q-15 3 -23.5 8t-8.5 13t11 10.5t25 2.5q16 0 40 -1t48.5 -2.5t43.5 -1.5t40 1.5t41.5 3t38.5 1.5q23 0 23 -14
q0 -7 -10 -12.5t-25 -7.5q-44 -7 -60 -21.5t-21 -48.5l-59 -374q-4 -27 3.5 -27t27.5 26l243 306q37 47 47.5 75t2 43t-30.5 19q-14 3 -19.5 7.5t-4.5 11.5q0 7 10 10.5t22 3.5t32 -1t42 -1.5t40 -0.5q30 0 50.5 3t45.5 3q12 0 19 -3.5t7 -10.5t-11.5 -13t-26.5 -9
q-31 -6 -60.5 -24.5t-57.5 -53.5l-364 -434q-22 -27 -45 -55.5t-41 -47.5t-27 -19q-15 0 -21 11t-6.5 29.5t3 40.5t7.5 45q10 57 21.5 121.5t22.5 128t20 120.5l-311 -373q-14 -17 -29.5 -38.5t-30.5 -41t-27.5 -32t-21.5 -12.5zM671 692q-7 0 -8 7q0 7 6 17q20 32 40.5 63
t42.5 62q10 13 29 13q8 0 23.5 -3.5t28 -9t12.5 -13.5t-14 -20q-32 -27 -69.5 -54.5t-69.5 -51.5q-8 -6 -13 -8t-8 -2z" />
    <glyph glyph-name="Wcircumflex" unicode="&#x174;" horiz-adv-x="1083" 
d="M204 -15q-14 0 -21 16t-7.5 40.5t3.5 49.5q10 56 20.5 115.5t20 118t17 111.5t12.5 96q4 35 1.5 52t-16 24.5t-41.5 12.5q-15 3 -23.5 7.5t-8.5 13.5q0 8 10.5 10.5t25.5 2.5q23 0 53.5 -2.5t65.5 -2.5q19 0 40.5 1t41.5 1h34q11 0 18.5 -3t6.5 -10t-13 -12.5t-25 -7.5
q-24 -2 -37 -9t-19.5 -22.5t-11.5 -43.5q-14 -91 -29.5 -182.5t-30.5 -183.5q-4 -27 3 -27.5t29 25.5l258 307q25 29 36 49t11 36q0 24 -13 35.5t-46 17.5q-15 3 -23.5 8t-8.5 13t11 10.5t25 2.5q16 0 40 -1t48.5 -2.5t43.5 -1.5t40 1.5t41.5 3t38.5 1.5q23 0 23 -14
q0 -7 -10 -12.5t-25 -7.5q-44 -7 -60 -21.5t-21 -48.5l-59 -374q-4 -27 3.5 -27t27.5 26l243 306q37 47 47.5 75t2 43t-30.5 19q-14 3 -19.5 7.5t-4.5 11.5q0 7 10 10.5t22 3.5t32 -1t42 -1.5t40 -0.5q30 0 50.5 3t45.5 3q12 0 19 -3.5t7 -10.5t-11.5 -13t-26.5 -9
q-31 -6 -60.5 -24.5t-57.5 -53.5l-364 -434q-22 -27 -45 -55.5t-41 -47.5t-27 -19q-15 0 -21 11t-6.5 29.5t3 40.5t7.5 45q10 57 21.5 121.5t22.5 128t20 120.5l-311 -373q-14 -17 -29.5 -38.5t-30.5 -41t-27.5 -32t-21.5 -12.5zM575 695q-17 0 -15 11q1 6 9 13l127 86
q20 13 30 18.5t19 5.5q12 0 21 -6.5t18 -17.5l74 -86q3 -4 4 -7t1 -6q-1 -12 -16 -12q-7 0 -27 9.5t-41.5 22.5t-34.5 21q-12 9 -26 1q-10 -5 -31 -14t-44.5 -18t-42 -15t-25.5 -6z" />
    <glyph glyph-name="Wdieresis" unicode="&#x1e84;" horiz-adv-x="1083" 
d="M204 -15q-14 0 -21 16t-7.5 40.5t3.5 49.5q10 56 20.5 115.5t20 118t17 111.5t12.5 96q4 35 1.5 52t-16 24.5t-41.5 12.5q-15 3 -23.5 7.5t-8.5 13.5q0 8 10.5 10.5t25.5 2.5q23 0 53.5 -2.5t65.5 -2.5q19 0 40.5 1t41.5 1h34q11 0 18.5 -3t6.5 -10t-13 -12.5t-25 -7.5
q-24 -2 -37 -9t-19.5 -22.5t-11.5 -43.5q-14 -91 -29.5 -182.5t-30.5 -183.5q-4 -27 3 -27.5t29 25.5l258 307q25 29 36 49t11 36q0 24 -13 35.5t-46 17.5q-15 3 -23.5 8t-8.5 13t11 10.5t25 2.5q16 0 40 -1t48.5 -2.5t43.5 -1.5t40 1.5t41.5 3t38.5 1.5q23 0 23 -14
q0 -7 -10 -12.5t-25 -7.5q-44 -7 -60 -21.5t-21 -48.5l-59 -374q-4 -27 3.5 -27t27.5 26l243 306q37 47 47.5 75t2 43t-30.5 19q-14 3 -19.5 7.5t-4.5 11.5q0 7 10 10.5t22 3.5t32 -1t42 -1.5t40 -0.5q30 0 50.5 3t45.5 3q12 0 19 -3.5t7 -10.5t-11.5 -13t-26.5 -9
q-31 -6 -60.5 -24.5t-57.5 -53.5l-364 -434q-22 -27 -45 -55.5t-41 -47.5t-27 -19q-15 0 -21 11t-6.5 29.5t3 40.5t7.5 45q10 57 21.5 121.5t22.5 128t20 120.5l-311 -373q-14 -17 -29.5 -38.5t-30.5 -41t-27.5 -32t-21.5 -12.5zM811 696q-19 0 -31.5 14t-12.5 31
q0 29 20 49.5t50 20.5q20 0 32 -15t12 -34q0 -18 -10 -33t-25.5 -24t-34.5 -9zM611 696q-19 0 -32 14t-13 31q0 29 20.5 49.5t50.5 20.5q19 0 31 -15t12 -34q0 -26 -20.5 -46t-48.5 -20z" />
    <glyph glyph-name="Wgrave" unicode="&#x1e80;" horiz-adv-x="1083" 
d="M204 -15q-14 0 -21 16t-7.5 40.5t3.5 49.5q10 56 20.5 115.5t20 118t17 111.5t12.5 96q4 35 1.5 52t-16 24.5t-41.5 12.5q-15 3 -23.5 7.5t-8.5 13.5q0 8 10.5 10.5t25.5 2.5q23 0 53.5 -2.5t65.5 -2.5q19 0 40.5 1t41.5 1h34q11 0 18.5 -3t6.5 -10t-13 -12.5t-25 -7.5
q-24 -2 -37 -9t-19.5 -22.5t-11.5 -43.5q-14 -91 -29.5 -182.5t-30.5 -183.5q-4 -27 3 -27.5t29 25.5l258 307q25 29 36 49t11 36q0 24 -13 35.5t-46 17.5q-15 3 -23.5 8t-8.5 13t11 10.5t25 2.5q16 0 40 -1t48.5 -2.5t43.5 -1.5t40 1.5t41.5 3t38.5 1.5q23 0 23 -14
q0 -7 -10 -12.5t-25 -7.5q-44 -7 -60 -21.5t-21 -48.5l-59 -374q-4 -27 3.5 -27t27.5 26l243 306q37 47 47.5 75t2 43t-30.5 19q-14 3 -19.5 7.5t-4.5 11.5q0 7 10 10.5t22 3.5t32 -1t42 -1.5t40 -0.5q30 0 50.5 3t45.5 3q12 0 19 -3.5t7 -10.5t-11.5 -13t-26.5 -9
q-31 -6 -60.5 -24.5t-57.5 -53.5l-364 -434q-22 -27 -45 -55.5t-41 -47.5t-27 -19q-15 0 -21 11t-6.5 29.5t3 40.5t7.5 45q10 57 21.5 121.5t22.5 128t20 120.5l-311 -373q-14 -17 -29.5 -38.5t-30.5 -41t-27.5 -32t-21.5 -12.5zM743 696q-2 0 -7.5 1.5t-13.5 6.5
q-33 22 -72 47.5t-72 49.5q-14 11 -15 20q-1 7 11.5 13.5t27.5 11t22 4.5q19 2 30 -11q24 -30 45.5 -60t43.5 -59q8 -9 8 -17q0 -7 -8 -7z" />
    <glyph glyph-name="X" unicode="X" horiz-adv-x="661" 
d="M-27 -6q-12 0 -19 3t-7 10q0 8 10 13.5t25 8.5q21 3 42 12t47 29t58 55l154 168q14 16 20.5 29.5t-1.5 37.5l-52 176q-9 35 -23 52t-29.5 23.5t-34.5 9.5q-13 2 -21 7.5t-8 13.5q0 6 11 9.5t21 3.5q31 0 66.5 -3t72.5 -3q30 0 54.5 2t44.5 2q10 0 17 -3t7 -9
q0 -8 -9.5 -13.5t-24.5 -7.5q-35 -4 -43.5 -21t4.5 -65l38 -138q4 -14 11.5 -14t16.5 11l100 121q32 39 41 60t2.5 31.5t-24.5 13.5q-10 2 -18 7.5t-8 13.5q0 6 9 9t21 3q18 0 38 -1t41 -1q28 0 56 3t50 3q12 0 19.5 -2.5t7.5 -9.5q0 -8 -10 -12t-25 -8q-17 -5 -41.5 -19
t-49.5 -33.5t-47 -42.5l-147 -162q-13 -16 -16.5 -25.5t-0.5 -22.5l62 -214q7 -24 17 -38t28.5 -22t47.5 -16q13 -4 20.5 -9t7.5 -13q0 -6 -8 -9t-20 -3q-22 0 -48.5 1.5t-54 3t-52.5 1.5q-29 0 -52.5 -1t-44.5 -1q-11 0 -18 3t-7 10t12.5 12t22.5 8q34 9 44.5 26t1.5 48
l-47 168q-3 11 -9 12t-13 -8l-134 -166q-19 -25 -23 -41.5t5 -25.5t26 -14q14 -4 20 -8t6 -12q0 -6 -9 -9.5t-21 -3.5q-18 0 -40.5 1.5t-49.5 1.5q-30 0 -60 -3.5t-56 -3.5z" />
    <glyph glyph-name="Y" unicode="Y" horiz-adv-x="602" 
d="M122 -5q-12 0 -18 3t-6 9q1 8 11 12.5t25 7.5q38 7 62 27t35 55l48 153q8 23 7 41.5t-8 41.5l-57 205q-8 30 -21.5 47.5t-35.5 20.5q-15 3 -22 9t-6 14q0 7 10.5 9.5t21.5 2.5q28 0 57.5 -2t66.5 -2q24 0 46.5 2t44.5 2q11 0 17 -3t6 -9q-1 -8 -11 -13t-26 -8
q-34 -6 -42.5 -18.5t-0.5 -46.5l42 -167q5 -18 9 -26t8 -8q5 0 13 7.5t19 20.5q33 38 61.5 74.5t63.5 79.5q31 38 29.5 57t-34.5 26q-10 2 -17.5 7.5t-6.5 13.5q0 6 9.5 9t21.5 3q21 0 40.5 -1t43.5 -1q29 0 55.5 2t46.5 2q11 0 18 -2.5t6 -10.5q0 -7 -10 -10.5t-23 -8.5
q-20 -6 -43 -19.5t-44 -29.5t-35 -32q-26 -28 -57 -62.5t-60.5 -67.5t-51.5 -57q-21 -23 -32 -45.5t-20 -51.5l-45 -148q-11 -35 0.5 -54.5t45.5 -27.5q13 -3 19 -7t5 -12q-1 -7 -10 -10t-20 -3q-24 0 -43.5 1.5t-38.5 3t-40 1.5q-22 0 -42.5 -1.5t-41.5 -3t-45 -1.5z" />
    <glyph glyph-name="Yacute" unicode="&#xdd;" horiz-adv-x="602" 
d="M122 -5q-12 0 -18 3t-6 9q1 8 11 12.5t25 7.5q38 7 62 27t35 55l48 153q8 23 7 41.5t-8 41.5l-57 205q-8 30 -21.5 47.5t-35.5 20.5q-15 3 -22 9t-6 14q0 7 10.5 9.5t21.5 2.5q28 0 57.5 -2t66.5 -2q24 0 46.5 2t44.5 2q11 0 17 -3t6 -9q-1 -8 -11 -13t-26 -8
q-34 -6 -42.5 -18.5t-0.5 -46.5l42 -167q5 -18 9 -26t8 -8q5 0 13 7.5t19 20.5q33 38 61.5 74.5t63.5 79.5q31 38 29.5 57t-34.5 26q-10 2 -17.5 7.5t-6.5 13.5q0 6 9.5 9t21.5 3q21 0 40.5 -1t43.5 -1q29 0 55.5 2t46.5 2q11 0 18 -2.5t6 -10.5q0 -7 -10 -10.5t-23 -8.5
q-20 -6 -43 -19.5t-44 -29.5t-35 -32q-26 -28 -57 -62.5t-60.5 -67.5t-51.5 -57q-21 -23 -32 -45.5t-20 -51.5l-45 -148q-11 -35 0.5 -54.5t45.5 -27.5q13 -3 19 -7t5 -12q-1 -7 -10 -10t-20 -3q-24 0 -43.5 1.5t-38.5 3t-40 1.5q-22 0 -42.5 -1.5t-41.5 -3t-45 -1.5z
M424 692q-7 0 -8 7q0 7 6 17q20 32 40.5 63t42.5 62q10 13 29 13q8 0 23.5 -3.5t28 -9t12.5 -13.5t-14 -20q-32 -27 -69.5 -54.5t-69.5 -51.5q-8 -6 -13 -8t-8 -2z" />
    <glyph glyph-name="Ycircumflex" unicode="&#x176;" horiz-adv-x="602" 
d="M122 -5q-12 0 -18 3t-6 9q1 8 11 12.5t25 7.5q38 7 62 27t35 55l48 153q8 23 7 41.5t-8 41.5l-57 205q-8 30 -21.5 47.5t-35.5 20.5q-15 3 -22 9t-6 14q0 7 10.5 9.5t21.5 2.5q28 0 57.5 -2t66.5 -2q24 0 46.5 2t44.5 2q11 0 17 -3t6 -9q-1 -8 -11 -13t-26 -8
q-34 -6 -42.5 -18.5t-0.5 -46.5l42 -167q5 -18 9 -26t8 -8q5 0 13 7.5t19 20.5q33 38 61.5 74.5t63.5 79.5q31 38 29.5 57t-34.5 26q-10 2 -17.5 7.5t-6.5 13.5q0 6 9.5 9t21.5 3q21 0 40.5 -1t43.5 -1q29 0 55.5 2t46.5 2q11 0 18 -2.5t6 -10.5q0 -7 -10 -10.5t-23 -8.5
q-20 -6 -43 -19.5t-44 -29.5t-35 -32q-26 -28 -57 -62.5t-60.5 -67.5t-51.5 -57q-21 -23 -32 -45.5t-20 -51.5l-45 -148q-11 -35 0.5 -54.5t45.5 -27.5q13 -3 19 -7t5 -12q-1 -7 -10 -10t-20 -3q-24 0 -43.5 1.5t-38.5 3t-40 1.5q-22 0 -42.5 -1.5t-41.5 -3t-45 -1.5z
M328 695q-17 0 -15 11q1 6 9 13l127 86q20 13 30 18.5t19 5.5q12 0 21 -6.5t18 -17.5l74 -86q3 -4 4 -7t1 -6q-1 -12 -16 -12q-7 0 -27 9.5t-41.5 22.5t-34.5 21q-12 9 -26 1q-10 -5 -31 -14t-44.5 -18t-42 -15t-25.5 -6z" />
    <glyph glyph-name="Ydieresis" unicode="&#x178;" horiz-adv-x="602" 
d="M122 -5q-12 0 -18 3t-6 9q1 8 11 12.5t25 7.5q38 7 62 27t35 55l48 153q8 23 7 41.5t-8 41.5l-57 205q-8 30 -21.5 47.5t-35.5 20.5q-15 3 -22 9t-6 14q0 7 10.5 9.5t21.5 2.5q28 0 57.5 -2t66.5 -2q24 0 46.5 2t44.5 2q11 0 17 -3t6 -9q-1 -8 -11 -13t-26 -8
q-34 -6 -42.5 -18.5t-0.5 -46.5l42 -167q5 -18 9 -26t8 -8q5 0 13 7.5t19 20.5q33 38 61.5 74.5t63.5 79.5q31 38 29.5 57t-34.5 26q-10 2 -17.5 7.5t-6.5 13.5q0 6 9.5 9t21.5 3q21 0 40.5 -1t43.5 -1q29 0 55.5 2t46.5 2q11 0 18 -2.5t6 -10.5q0 -7 -10 -10.5t-23 -8.5
q-20 -6 -43 -19.5t-44 -29.5t-35 -32q-26 -28 -57 -62.5t-60.5 -67.5t-51.5 -57q-21 -23 -32 -45.5t-20 -51.5l-45 -148q-11 -35 0.5 -54.5t45.5 -27.5q13 -3 19 -7t5 -12q-1 -7 -10 -10t-20 -3q-24 0 -43.5 1.5t-38.5 3t-40 1.5q-22 0 -42.5 -1.5t-41.5 -3t-45 -1.5z
M564 696q-19 0 -31.5 14t-12.5 31q0 29 20 49.5t50 20.5q20 0 32 -15t12 -34q0 -18 -10 -33t-25.5 -24t-34.5 -9zM364 696q-19 0 -32 14t-13 31q0 29 20.5 49.5t50.5 20.5q19 0 31 -15t12 -34q0 -26 -20.5 -46t-48.5 -20z" />
    <glyph glyph-name="Ygrave" unicode="&#x1ef2;" horiz-adv-x="602" 
d="M122 -5q-12 0 -18 3t-6 9q1 8 11 12.5t25 7.5q38 7 62 27t35 55l48 153q8 23 7 41.5t-8 41.5l-57 205q-8 30 -21.5 47.5t-35.5 20.5q-15 3 -22 9t-6 14q0 7 10.5 9.5t21.5 2.5q28 0 57.5 -2t66.5 -2q24 0 46.5 2t44.5 2q11 0 17 -3t6 -9q-1 -8 -11 -13t-26 -8
q-34 -6 -42.5 -18.5t-0.5 -46.5l42 -167q5 -18 9 -26t8 -8q5 0 13 7.5t19 20.5q33 38 61.5 74.5t63.5 79.5q31 38 29.5 57t-34.5 26q-10 2 -17.5 7.5t-6.5 13.5q0 6 9.5 9t21.5 3q21 0 40.5 -1t43.5 -1q29 0 55.5 2t46.5 2q11 0 18 -2.5t6 -10.5q0 -7 -10 -10.5t-23 -8.5
q-20 -6 -43 -19.5t-44 -29.5t-35 -32q-26 -28 -57 -62.5t-60.5 -67.5t-51.5 -57q-21 -23 -32 -45.5t-20 -51.5l-45 -148q-11 -35 0.5 -54.5t45.5 -27.5q13 -3 19 -7t5 -12q-1 -7 -10 -10t-20 -3q-24 0 -43.5 1.5t-38.5 3t-40 1.5q-22 0 -42.5 -1.5t-41.5 -3t-45 -1.5z
M496 696q-2 0 -7.5 1.5t-13.5 6.5q-33 22 -72 47.5t-72 49.5q-14 11 -15 20q-1 7 11.5 13.5t27.5 11t22 4.5q19 2 30 -11q24 -30 45.5 -60t43.5 -59q8 -9 8 -17q0 -7 -8 -7z" />
    <glyph glyph-name="Z" unicode="Z" horiz-adv-x="637" 
d="M502 -5q-26 0 -65 0.5t-83.5 1.5t-89.5 2t-83 1q-28 0 -64.5 -1t-72.5 -2t-64 -1q-6 0 -5 9t2 10q6 9 19.5 25t30.5 35t32 34q64 66 119.5 126t108.5 118.5t109.5 119t120.5 126.5q4 5 5.5 11t-14.5 6q-14 1 -39.5 0.5t-56 -2t-59 -3t-48.5 -3.5q-27 -3 -63.5 -23.5
t-66.5 -65.5q-8 -11 -15.5 -19t-16.5 -8q-7 0 -9.5 5.5t-2.5 12.5q1 4 3 11t6 15q11 23 23.5 49.5t20.5 45.5q5 14 12 20.5t18 6.5q18 0 46.5 -4.5t60.5 -5.5q34 -1 72.5 -1h69.5q36 0 70.5 1t68 1.5t64.5 1.5q6 0 10.5 -10t1.5 -13l-84 -88q-62 -64 -117 -121t-107 -112
t-105 -113.5t-112 -125.5q-23 -26 6 -29q19 -1 47 -2.5t60 -0.5q24 0 54.5 1.5t60 5t50.5 8.5q44 9 82 33.5t67 69.5q5 6 10 11.5t11 5.5q8 0 9.5 -5.5t0.5 -12.5q-1 -10 -10.5 -28t-22 -39.5t-24.5 -41t-20 -31.5q-4 -7 -11.5 -12.5t-20.5 -5.5z" />
    <glyph glyph-name="Zacute" unicode="&#x179;" horiz-adv-x="637" 
d="M502 -5q-26 0 -65 0.5t-83.5 1.5t-89.5 2t-83 1q-28 0 -64.5 -1t-72.5 -2t-64 -1q-6 0 -5 9t2 10q6 9 19.5 25t30.5 35t32 34q64 66 119.5 126t108.5 118.5t109.5 119t120.5 126.5q4 5 5.5 11t-14.5 6q-14 1 -39.5 0.5t-56 -2t-59 -3t-48.5 -3.5q-27 -3 -63.5 -23.5
t-66.5 -65.5q-8 -11 -15.5 -19t-16.5 -8q-7 0 -9.5 5.5t-2.5 12.5q1 4 3 11t6 15q11 23 23.5 49.5t20.5 45.5q5 14 12 20.5t18 6.5q18 0 46.5 -4.5t60.5 -5.5q34 -1 72.5 -1h69.5q36 0 70.5 1t68 1.5t64.5 1.5q6 0 10.5 -10t1.5 -13l-84 -88q-62 -64 -117 -121t-107 -112
t-105 -113.5t-112 -125.5q-23 -26 6 -29q19 -1 47 -2.5t60 -0.5q24 0 54.5 1.5t60 5t50.5 8.5q44 9 82 33.5t67 69.5q5 6 10 11.5t11 5.5q8 0 9.5 -5.5t0.5 -12.5q-1 -10 -10.5 -28t-22 -39.5t-24.5 -41t-20 -31.5q-4 -7 -11.5 -12.5t-20.5 -5.5zM400 692q-7 0 -8 7
q0 7 6 17q20 32 40.5 63t42.5 62q10 13 29 13q8 0 23.5 -3.5t28 -9t12.5 -13.5t-14 -20q-32 -27 -69.5 -54.5t-69.5 -51.5q-8 -6 -13 -8t-8 -2z" />
    <glyph glyph-name="Zcaron" unicode="&#x17d;" horiz-adv-x="637" 
d="M502 -5q-26 0 -65 0.5t-83.5 1.5t-89.5 2t-83 1q-28 0 -64.5 -1t-72.5 -2t-64 -1q-6 0 -5 9t2 10q6 9 19.5 25t30.5 35t32 34q64 66 119.5 126t108.5 118.5t109.5 119t120.5 126.5q4 5 5.5 11t-14.5 6q-14 1 -39.5 0.5t-56 -2t-59 -3t-48.5 -3.5q-27 -3 -63.5 -23.5
t-66.5 -65.5q-8 -11 -15.5 -19t-16.5 -8q-7 0 -9.5 5.5t-2.5 12.5q1 4 3 11t6 15q11 23 23.5 49.5t20.5 45.5q5 14 12 20.5t18 6.5q18 0 46.5 -4.5t60.5 -5.5q34 -1 72.5 -1h69.5q36 0 70.5 1t68 1.5t64.5 1.5q6 0 10.5 -10t1.5 -13l-84 -88q-62 -64 -117 -121t-107 -112
t-105 -113.5t-112 -125.5q-23 -26 6 -29q19 -1 47 -2.5t60 -0.5q24 0 54.5 1.5t60 5t50.5 8.5q44 9 82 33.5t67 69.5q5 6 10 11.5t11 5.5q8 0 9.5 -5.5t0.5 -12.5q-1 -10 -10.5 -28t-22 -39.5t-24.5 -41t-20 -31.5q-4 -7 -11.5 -12.5t-20.5 -5.5zM439 697q-9 0 -19 7t-19 17
l-74 86q-6 8 -5 13q1 12 17 12q7 0 25.5 -9.5t38.5 -22.5t31 -23q6 -4 13 -3.5t14 3.5q12 5 34.5 14t47 18t43.5 15.5t25 6.5q15 0 15 -11q0 -7 -8 -14l-129 -85q-18 -12 -29 -18t-21 -6z" />
    <glyph glyph-name="Zdotaccent" unicode="&#x17b;" horiz-adv-x="637" 
d="M502 -5q-26 0 -65 0.5t-83.5 1.5t-89.5 2t-83 1q-28 0 -64.5 -1t-72.5 -2t-64 -1q-6 0 -5 9t2 10q6 9 19.5 25t30.5 35t32 34q64 66 119.5 126t108.5 118.5t109.5 119t120.5 126.5q4 5 5.5 11t-14.5 6q-14 1 -39.5 0.5t-56 -2t-59 -3t-48.5 -3.5q-27 -3 -63.5 -23.5
t-66.5 -65.5q-8 -11 -15.5 -19t-16.5 -8q-7 0 -9.5 5.5t-2.5 12.5q1 4 3 11t6 15q11 23 23.5 49.5t20.5 45.5q5 14 12 20.5t18 6.5q18 0 46.5 -4.5t60.5 -5.5q34 -1 72.5 -1h69.5q36 0 70.5 1t68 1.5t64.5 1.5q6 0 10.5 -10t1.5 -13l-84 -88q-62 -64 -117 -121t-107 -112
t-105 -113.5t-112 -125.5q-23 -26 6 -29q19 -1 47 -2.5t60 -0.5q24 0 54.5 1.5t60 5t50.5 8.5q44 9 82 33.5t67 69.5q5 6 10 11.5t11 5.5q8 0 9.5 -5.5t0.5 -12.5q-1 -10 -10.5 -28t-22 -39.5t-24.5 -41t-20 -31.5q-4 -7 -11.5 -12.5t-20.5 -5.5zM447 698q-21 0 -35 14.5
t-14 33.5q0 30 22 52.5t55 22.5q22 0 35 -16.5t13 -36.5q0 -19 -10.5 -35t-28 -25.5t-37.5 -9.5z" />
    <glyph glyph-name="uni0122" unicode="&#x122;" horiz-adv-x="701" 
d="M371 -14q-67 0 -124 19.5t-97.5 57.5t-59.5 94t-12 129q6 79 41 147.5t93.5 120t136 80.5t167.5 29q33 0 57.5 -6t42.5 -13q16 -6 28.5 -10t24.5 -4q5 0 11 2t12 6q6 3 12 5.5t11 2.5q10 0 11 -6.5t-3 -11.5q-12 -16 -26 -42t-26 -54.5t-17 -52.5q-3 -10 -8 -16.5
t-12 -6.5q-21 0 -16 34q3 25 0 49.5t-18 44.5q-13 18 -38 33t-61 15q-61 0 -115.5 -30t-97 -82.5t-70 -121.5t-34.5 -147q-5 -53 9.5 -96t43.5 -74t66.5 -47.5t77.5 -16.5q43 0 69.5 25t36.5 59l29 110q5 16 1 25.5t-18 13.5q-13 5 -26.5 8t-23.5 5q-9 2 -18.5 5.5
t-8.5 11.5q1 7 10 11t20 4q23 0 44.5 -2t42.5 -3.5t43 -1.5q26 0 47.5 3.5t53.5 3.5q20 0 18 -15q-1 -6 -8.5 -11.5t-21.5 -8.5q-25 -5 -38 -15t-23 -30q-8 -18 -17 -42t-14.5 -45t-5.5 -29q0 -9 3.5 -16.5t10.5 -17.5q-6 -15 -30.5 -29.5t-58 -25.5t-67.5 -17.5t-60 -6.5z
M232 -280q-17 0 -17 10q0 5 4.5 9.5t14.5 6.5q25 5 47.5 18t36.5 30t14 34q0 12 -8 18t-19 11t-19 12.5t-8 24.5q0 20 17 32t42 12q27 0 46 -18.5t19 -54.5q0 -30 -16.5 -56t-43 -46t-56 -31.5t-54.5 -11.5z" />
    <glyph glyph-name="uni0136" unicode="&#x136;" horiz-adv-x="721" 
d="M-2 -5q-11 0 -17.5 3t-6.5 10q2 13 35 19q38 7 56 22.5t28 50.5l139 451q11 34 1.5 48t-43.5 22q-13 3 -17.5 7.5t-4.5 10.5q0 7 9.5 11t22.5 4q23 0 41 -1t35 -1.5t37 -0.5q19 0 34.5 0.5t33.5 1t42 0.5q21 0 21 -11q0 -8 -9.5 -13t-24.5 -8q-26 -5 -40 -12t-21.5 -20
t-14.5 -38l-56 -188q-2 -7 1 -10t11 -3q17 0 35 10.5t39 30.5l193 170q12 11 20.5 20.5t9.5 16.5q1 6 -6 11t-20 9q-11 3 -17 7.5t-6 12.5q0 7 10.5 10t22.5 3h58q44 0 87.5 2t80.5 2q19 0 19 -12q0 -8 -11 -13t-26 -8q-42 -6 -82.5 -21t-78.5 -43q-40 -30 -76.5 -60
t-73.5 -63t-78 -71q-6 -6 -6.5 -11t2.5 -11q56 -105 98 -167.5t75 -96.5q22 -22 43.5 -32t45.5 -18q14 -4 21 -8t7 -12q0 -6 -9 -9.5t-23 -3.5q-28 0 -49 1.5t-45.5 2.5t-64.5 1h-26t-25.5 -0.5t-34.5 -0.5q-11 0 -17 3t-6 9q0 8 8 12t22 7q19 5 25.5 11t4 15.5t-11.5 23.5
l-123 219q-6 13 -17 18t-15 5q-5 0 -7 -6t-4 -11l-57 -198q-10 -39 -1.5 -55.5t41.5 -24.5q13 -3 18.5 -7t5.5 -11t-10 -10.5t-22 -3.5q-27 0 -43.5 2t-31.5 4t-34 2q-33 0 -58.5 -4t-67.5 -4zM193 -280q-17 0 -17 10q0 5 4.5 9.5t14.5 6.5q25 5 47.5 18t36.5 30t14 34
q0 12 -8 18t-19 11t-19 12.5t-8 24.5q0 20 17 32t42 12q27 0 46 -18.5t19 -54.5q0 -30 -16.5 -56t-43 -46t-56 -31.5t-54.5 -11.5z" />
    <glyph glyph-name="uni013B" unicode="&#x13b;" horiz-adv-x="582" 
d="M-5 -5q-11 0 -16.5 3t-4.5 9q1 13 33 19q36 8 62.5 23t36.5 49l141 459q11 35 3 45.5t-42 18.5q-13 3 -17.5 8t-4.5 12q1 7 9.5 10t18.5 3q24 0 43 -1t36.5 -2.5t37.5 -1.5q22 0 43 1t43 2t46 1q21 0 19 -12q0 -8 -10 -12t-24 -6q-28 -4 -47 -11t-31.5 -18.5t-18.5 -31.5
l-131 -437q-14 -47 -5.5 -69.5t42.5 -22.5h64q51 0 84.5 11t54.5 29q22 19 37 40.5t31 47.5q5 7 8.5 10t9.5 3q5 0 7 -4t2 -10q0 -10 -5.5 -29.5t-14.5 -42.5t-18 -44t-16 -32q-4 -6 -10 -11.5t-13 -5.5q-45 0 -91 1t-91.5 2t-89 2t-80.5 1q-35 0 -65.5 -3t-65.5 -3z
M162 -280q-17 0 -17 10q0 5 4.5 9.5t14.5 6.5q25 5 47.5 18t36.5 30t14 34q0 12 -8 18t-19 11t-19 12.5t-8 24.5q0 20 17 32t42 12q27 0 46 -18.5t19 -54.5q0 -30 -16.5 -56t-43 -46t-56 -31.5t-54.5 -11.5z" />
    <glyph glyph-name="uni0145" unicode="&#x145;" horiz-adv-x="774" 
d="M12 -4q-10 0 -16.5 2.5t-5.5 9.5t8 11t22 8q42 10 61 28.5t28 45.5l143 420q11 32 10 54t-18 34t-55 15q-16 2 -26 6.5t-10 12.5q0 9 10.5 12t16.5 3q26 0 52 -1t51 -2.5t46 -1.5q10 0 17.5 -5t11.5 -13l218 -468q2 -4 7.5 -10.5t9.5 -6.5q6 0 13 18q4 10 12.5 35.5
t19.5 61t22.5 75.5t22.5 77t19 66.5t11 44.5q10 45 -9 64.5t-69 27.5q-24 4 -24 18q0 6 10.5 9.5t20.5 3.5q31 0 58 -2.5t51 -2.5q20 0 36 2t35.5 3.5t46.5 1.5q22 0 22 -12q0 -7 -10.5 -12.5t-25.5 -7.5q-25 -3 -40 -9.5t-25.5 -23t-22.5 -47.5q-3 -11 -13 -40t-24 -70
t-29 -87t-29.5 -89t-25.5 -77.5t-16 -51.5q-6 -20 -4.5 -32t9.5 -27q5 -12 13.5 -19.5t16.5 -14.5q8 -6 13.5 -11t5.5 -13q0 -6 -3.5 -7.5t-8.5 -1.5q-21 0 -37 -1.5t-28 -3t-24 -1.5q-20 0 -31 8t-20 28q-15 32 -32.5 72t-36.5 85t-39 90.5t-39 88t-35.5 79t-31.5 62.5
q-4 8 -9.5 14t-9.5 6q-5 0 -11 -8.5t-10 -21.5q-11 -36 -26.5 -83.5t-31.5 -101.5t-31.5 -108.5t-27.5 -102.5q-7 -31 7.5 -48.5t53.5 -26.5q13 -3 20 -6.5t7 -11.5q-1 -6 -10 -9t-20 -3q-26 0 -41.5 1.5t-28 2t-28.5 0.5q-21 0 -39.5 -1t-35 -2t-34.5 -1zM253 -280
q-17 0 -17 10q0 5 4.5 9.5t14.5 6.5q25 5 47.5 18t36.5 30t14 34q0 12 -8 18t-19 11t-19 12.5t-8 24.5q0 20 17 32t42 12q27 0 46 -18.5t19 -54.5q0 -30 -16.5 -56t-43 -46t-56 -31.5t-54.5 -11.5z" />
    <glyph glyph-name="uni0156" unicode="&#x156;" horiz-adv-x="712" 
d="M13 -4q-11 0 -16.5 2.5t-5.5 9.5q2 13 34 19q38 7 58.5 22t31.5 50l136 444q10 31 9 46t-16 21.5t-48 10.5q-14 2 -21 6.5t-7 11.5q0 8 12 11.5t23 3.5q13 0 33.5 -1t40 -1.5t30.5 -0.5q21 0 41 1t40.5 2.5t40.5 1.5q56 0 100 -16.5t70 -49.5t26 -83q0 -51 -25.5 -89.5
t-65 -63t-83.5 -36.5q-12 -5 -8 -16q8 -19 19.5 -45t25 -55t25.5 -53.5t20 -40.5q19 -38 39.5 -54t51.5 -20q13 -1 23.5 -4.5t10.5 -12.5q0 -13 -20 -16.5t-58 -3.5q-36 0 -62.5 6t-43.5 18t-26 31q-15 29 -31 64t-30.5 71t-26.5 68q-9 24 -19.5 34t-33.5 10
q-18 0 -24.5 -4.5t-9.5 -14.5l-54 -173q-11 -34 -2 -53.5t44 -26.5q13 -3 17.5 -7t4.5 -12q-1 -6 -9 -9t-19 -3q-24 0 -42.5 1.5t-34.5 3t-34 1.5q-35 0 -65 -3t-66 -3zM342 321q26 0 56.5 10.5t58.5 33t45.5 59.5t17.5 89q0 48 -30.5 81.5t-76.5 33.5q-13 0 -22.5 -5.5
t-17 -22t-18.5 -52.5l-52 -189q-6 -22 2.5 -30t36.5 -8zM210 -280q-17 0 -17 10q0 5 4.5 9.5t14.5 6.5q25 5 47.5 18t36.5 30t14 34q0 12 -8 18t-19 11t-19 12.5t-8 24.5q0 20 17 32t42 12q27 0 46 -18.5t19 -54.5q0 -30 -16.5 -56t-43 -46t-56 -31.5t-54.5 -11.5z" />
    <glyph glyph-name="uni0162" unicode="&#x162;" horiz-adv-x="648" 
d="M141 -4q-10 0 -16 2.5t-5 9.5q0 7 9.5 11t24.5 6q38 8 61 24.5t33 51.5l126 427q15 53 13.5 69.5t-16.5 16.5h-70q-44 0 -73 -19.5t-49 -42.5q-9 -9 -18 -21t-18 -20.5t-16 -8.5t-9 3t-2 11q1 3 3.5 11t7.5 19q17 25 30.5 52t22.5 56q3 9 9 15.5t12 6.5t13 -5.5t13 -10.5
q5 -4 12 -8t23 -6t48 -2l328 1q35 0 53 2t26.5 5.5t11.5 5.5q10 6 17 12t14 6q11 0 10 -13q-1 -6 -4 -13t-6 -12q-10 -18 -22 -50t-21 -72q-2 -11 -6 -15.5t-10 -4.5q-8 0 -11.5 7t-3.5 20q0 44 -15 67.5t-55 23.5h-82q-14 0 -23 -6.5t-17 -25t-19 -56.5l-125 -425
q-9 -34 4 -50.5t47 -25.5q13 -3 18 -6t4 -11q-1 -6 -9 -9t-19 -3q-24 0 -44 1.5t-39 2.5t-39 1q-22 0 -43.5 -1t-43 -2.5t-45.5 -1.5zM179 -281q-23 0 -42 8.5t-29 21.5t-10 29q0 30 23 30q11 0 21 -6t19 -15q12 -10 23 -18.5t26 -8.5q10 0 17 8t7 18q0 16 -10 26.5
t-22 22.5q-10 11 -20 25t-10 31t18 40t44.5 46.5t54.5 39.5h33q-43 -34 -57.5 -58t-14.5 -38q0 -10 9.5 -21.5t20.5 -22.5q12 -11 21 -23t9 -25q0 -16 -14.5 -35t-35.5 -36t-43 -28t-38 -11z" />
    <glyph glyph-name="uni0181" unicode="&#x181;" horiz-adv-x="669" 
d="M71 -5q-22 0 -22 11q0 8 9 12.5t25 7.5q37 8 58.5 22.5t32.5 49.5l146 474q6 21 3 32.5t-25 11.5q-42 0 -78 -15t-43 -49q-2 -12 3.5 -20.5t11.5 -16.5q7 -7 11.5 -14.5t2.5 -16.5q-3 -11 -17 -22t-29 -18.5t-22 -7.5q-12 0 -20.5 11t-12 27.5t-0.5 31.5q6 36 26 63
t53.5 45.5t81 28t109.5 9.5q17 0 36 0.5t39 1.5t39 1q66 0 107 -17t60.5 -46.5t19.5 -66.5q0 -34 -16.5 -61t-43 -47.5t-58 -33.5t-63.5 -18q-6 -1 -6.5 -4.5t3.5 -5.5q58 -21 92.5 -57.5t34.5 -103.5q0 -48 -21.5 -84.5t-61 -62t-92 -38.5t-113.5 -13q-40 0 -70 3t-61 3
q-23 0 -43 -1.5t-40.5 -3.5t-45.5 -2zM333 24q33 1 65 16.5t58 41.5t41.5 59.5t15.5 70.5q0 61 -35.5 95t-105.5 34q-12 0 -19.5 -5t-9.5 -16l-64 -215q-5 -15 -4 -31t11 -26q9 -10 20 -17t27 -7zM382 368q23 0 44 4.5t43 10.5q45 22 76.5 58.5t31.5 87.5q0 39 -29 67.5
t-79 28.5q-20 0 -29.5 -4.5t-13.5 -17.5l-61 -216q-6 -19 17 -19z" />
    <glyph glyph-name="uni0182" unicode="&#x182;" horiz-adv-x="603" 
d="M-5 -5q-11 0 -16.5 3t-4.5 9q1 13 33 19q36 8 62.5 22.5t37.5 49.5l138 453q11 35 0.5 49.5t-45.5 21.5q-12 3 -17 8t-4 13q1 6 9.5 9t19.5 3q12 0 40 -1l70 -2.5t93 -1.5q38 0 68.5 1.5t56 3.5t46.5 3t39 1q13 0 12 -11q-3 -17 -13 -47.5t-17 -66.5q-2 -6 -7.5 -12
t-10.5 -6t-8.5 7.5t-3.5 13.5q0 25 -5.5 43t-18.5 28.5t-39 10.5h-114q-15 0 -26.5 -6t-18.5 -29l-52 -185q-4 -15 -1 -24t15 -8q18 1 34 3t37 2q47 0 86.5 -20.5t64 -57t24.5 -84.5q0 -69 -37 -116.5t-102 -72t-150 -24.5q-20 0 -37 1t-40 1.5t-58 0.5q-37 0 -71 -2.5
t-69 -2.5zM280 28q38 0 69 15t53 41.5t34.5 59.5t12.5 67q0 66 -32.5 98t-84.5 32q-25 0 -40.5 -10t-22.5 -31q-9 -30 -20 -65t-21 -68.5t-17 -61.5q-12 -42 9 -59.5t60 -17.5z" />
    <glyph glyph-name="uni0184" unicode="&#x184;" horiz-adv-x="574" 
d="M-29 -5q-11 0 -16 3t-5 9q1 13 33 19q37 8 63 22.5t37 49.5l115 375q11 34 1.5 57.5t-35.5 39.5q-12 8 -17 13.5t-3 12.5q2 6 9 11.5t20 7.5q44 6 79.5 18t60 22t31.5 10q14 0 14.5 -5.5t-2.5 -17.5q-3 -8 -9.5 -23t-13.5 -30t-10 -25l-47 -162q-4 -15 -1 -23.5t14 -8.5
q21 0 38.5 2t40.5 2q39 0 78 -18.5t64.5 -53.5t25.5 -87q0 -69 -37.5 -118t-103 -74.5t-149.5 -25.5q-19 0 -36.5 1t-40 1.5t-58.5 0.5q-37 0 -70.5 -2.5t-69.5 -2.5zM257 31q38 0 68.5 14.5t53 38.5t34.5 55.5t12 66.5q0 60 -30.5 96.5t-85.5 36.5q-24 0 -40 -11t-22 -30
q-15 -46 -30.5 -97t-28.5 -93q-11 -41 9.5 -59t59.5 -18z" />
    <glyph glyph-name="uni0186" unicode="&#x186;" horiz-adv-x="643" 
d="M393 664q45 0 90 -18.5t82 -52.5t59 -81t22 -106q0 -90 -33.5 -166.5t-92 -133.5t-134.5 -89t-161 -32q-30 0 -57.5 5t-52.5 15q-19 6 -32 10.5t-24 4.5q-5 0 -10.5 -2t-12.5 -6q-6 -2 -12.5 -5t-12.5 -3q-9 0 -10 6.5t3 11.5q12 16 26 43t26.5 56t17.5 52q2 9 7.5 15
t11.5 6q10 0 14 -10t2 -24q-3 -22 -0.5 -45t17.5 -45q17 -23 43.5 -37.5t58.5 -14.5q46 0 91 22.5t83.5 62t69 92.5t47 114t16.5 125q0 55 -14.5 92t-39.5 60t-56 33.5t-63 10.5q-47 0 -80.5 -16.5t-59.5 -45.5t-51 -67l-10 -14t-13 -7q-6 0 -8.5 6t-1.5 16q2 13 11.5 38.5
t22.5 53t24.5 46.5t17.5 19q5 0 10 -3.5t11 -7.5q5 -4 11 -6.5t15 -2.5q8 0 19.5 3.5t26.5 7.5q15 5 37 9.5t49 4.5z" />
    <glyph glyph-name="uni0187" unicode="&#x187;" horiz-adv-x="648" 
d="M325 -14q-45 0 -89.5 18.5t-82 52.5t-59.5 81.5t-22 105.5q0 90 33.5 166.5t92 133.5t134.5 89t161 32q30 0 57.5 -5t53.5 -15q19 -6 32 -10.5t23 -4.5q6 0 9 2t7 9q23 43 61 63.5t71 20.5q55 0 70 -16.5t9 -36.5q-5 -17 -23.5 -31.5t-33.5 -14.5q-13 0 -20.5 8t-12.5 18
q-6 11 -12.5 20t-19.5 9q-18 0 -35 -18.5t-32 -49t-29 -66t-23 -70.5q-3 -8 -8 -14.5t-12 -6.5q-9 0 -13 10t-3 24q4 22 1 45t-18 44q-17 24 -43 38.5t-59 14.5q-45 0 -90 -22.5t-84 -62t-69 -92.5t-47 -114t-17 -125q0 -54 15 -91.5t39.5 -60.5t55.5 -33.5t63 -10.5
q47 0 80.5 16.5t59.5 46t51 66.5q6 8 11 14.5t13 6.5q5 0 7.5 -6t1.5 -16q-2 -12 -11.5 -38t-22.5 -53.5t-24.5 -46.5t-17.5 -19q-5 0 -10 3.5t-11 7.5q-4 4 -10.5 6.5t-15.5 2.5q-8 0 -19.5 -3t-25.5 -8q-16 -5 -38 -9.5t-49 -4.5z" />
    <glyph glyph-name="uni0189" unicode="&#x189;" horiz-adv-x="745" 
d="M90 313q-8 0 -9.5 8t-0.5 14q3 9 12.5 15.5t18.5 6.5h326q6 0 10 -5t0 -11q-8 -12 -18.5 -20t-22.5 -8h-316zM313 -7q-18 0 -53 2.5t-73 4t-68 1.5q-19 0 -37 -1t-38 -2.5t-44 -1.5q-10 0 -15.5 2.5t-5.5 9.5q2 16 34 19q30 2 46.5 10t25.5 23.5t17 37.5l147 459
q8 24 -2.5 35.5t-30 17.5t-42.5 11q-13 3 -17 8t-3 12q0 7 8.5 10t19.5 3q38 0 73.5 -2.5t66.5 -2.5q20 0 36.5 1.5t35 3t44.5 1.5q94 0 162.5 -33t106 -94.5t37.5 -148.5q0 -77 -32 -146t-90 -123.5t-137 -85.5t-172 -31zM316 25q68 0 125.5 31.5t100.5 85t67 120t24 135.5
q0 78 -23.5 127t-67 72.5t-102.5 23.5q-36 0 -52.5 -5t-23 -16t-12.5 -28l-135 -436q-13 -41 -3 -65t37 -34.5t65 -10.5z" />
    <glyph glyph-name="uni018A" unicode="&#x18a;" horiz-adv-x="811" 
d="M378 -7q-18 0 -52.5 2.5t-73 4t-68.5 1.5q-18 0 -36.5 -1t-38 -2.5t-43.5 -1.5q-11 0 -16.5 2.5t-4.5 9.5q2 16 33 19q30 2 46.5 10t26 23.5t16.5 37.5l153 474q6 21 3 32.5t-25 11.5q-42 0 -78 -15t-43 -49q-2 -12 3.5 -20.5t11.5 -16.5q7 -7 11.5 -14.5t2.5 -16.5
q-3 -11 -17 -22t-29 -18.5t-22 -7.5q-12 0 -20.5 11t-12 27.5t-0.5 31.5q6 36 26 63t53.5 45.5t81 28t109.5 9.5q30 0 59.5 1.5t69.5 1.5q94 0 162 -33t105.5 -94.5t37.5 -148.5q0 -77 -32 -146t-90 -123.5t-136.5 -85.5t-172.5 -31zM382 25q67 0 124.5 31.5t100.5 85
t67 120t24 135.5q0 78 -23.5 127t-66.5 72.5t-103 23.5q-35 0 -52 -5t-23.5 -16t-11.5 -28l-136 -436q-13 -41 -3 -65t37 -34.5t66 -10.5z" />
    <glyph glyph-name="uni018B" unicode="&#x18b;" horiz-adv-x="603" 
d="M480 -5q-25 0 -43.5 2.5t-35.5 4t-38 1.5q-16 0 -40.5 -0.5t-49.5 -2.5t-46.5 -2.5t-34.5 -0.5q-51 0 -87.5 20t-56.5 55t-20 77q0 53 23.5 95.5t64.5 72.5t93.5 46t109.5 16q27 0 45.5 -4t29.5 -12q2 -1 5 -1.5t4 -0.5q5 0 10.5 13t12.5 37l49 162q4 13 -3 25t-19 12
h-100q-47 0 -74 -20.5t-51 -57.5q-6 -8 -16 -19.5t-19 -11.5q-4 0 -8 6t-1 16q6 17 14.5 37t18.5 41.5t19 44.5q2 5 7 10.5t11 5.5q5 0 11.5 -2.5t15.5 -6t24 -6t36 -2.5h212q34 0 66 4t58 4q22 0 21 -10q-1 -8 -9.5 -13.5t-25.5 -8.5q-27 -5 -44.5 -13t-27.5 -21.5
t-16 -36.5l-140 -452q-10 -33 2 -48t50 -23q23 -5 23 -15q0 -8 -8.5 -12.5t-21.5 -4.5zM236 31q33 0 59.5 22t35.5 54l47 153q14 42 -8 61t-69 19q-23 0 -43 -7t-33 -17q-28 -22 -47.5 -54t-29 -67.5t-9.5 -67.5q0 -49 27 -72.5t70 -23.5z" />
    <glyph glyph-name="uni018E" unicode="&#x18e;" horiz-adv-x="559" 
d="M-16 -5q-6 0 -9 4t-3 11q1 17 2.5 38.5t4.5 42t6 31.5q2 7 6.5 10t10.5 4q9 1 12 -11q3 -15 8.5 -35.5t16.5 -32.5q9 -8 23.5 -13.5t45.5 -5.5h100q32 1 50.5 14.5t29.5 48.5l60 190q4 16 -2 21t-21 5h-93q-19 0 -34 -13t-30 -39q-17 -29 -32 -29q-6 0 -6.5 5.5t3.5 14.5
q3 7 8 22t10 30.5t8 26.5q4 9 7.5 24t7 29t5.5 20q2 9 8 13.5t10 4.5q12 0 13 -20q0 -27 6.5 -40t34.5 -13h95q9 0 17 6t10 16l64 204q5 17 -6.5 26.5t-24.5 9.5h-112q-21 0 -40 -7t-37 -21q-11 -8 -22 -24.5t-24 -36.5q-4 -6 -8 -9t-9 -3q-4 0 -8 3.5t-1 13.5
q7 22 21.5 51.5t28.5 60.5q3 7 11 9.5t13 2.5q4 0 26.5 -1.5t55.5 -1.5q37 -1 81 -1.5t83 -0.5q31 0 57 1t52.5 2t59.5 1q12 0 18 -3.5t4 -9.5q-1 -7 -10 -12t-26 -8q-39 -7 -57.5 -22t-28.5 -49l-141 -452q-10 -34 2.5 -48.5t45.5 -22.5q28 -6 24 -19q-2 -6 -10 -9t-20 -3
q-25 0 -44 1.5t-37.5 2.5t-40.5 1q-39 0 -82.5 -1t-86.5 -2t-83.5 -2t-76.5 -1z" />
    <glyph glyph-name="uni0190" unicode="&#x190;" horiz-adv-x="535" 
d="M214 -14q-63 0 -104.5 22t-62.5 60t-21 82q0 49 24 92.5t72 75t119 42.5q6 1 7 6t-3 6q-38 14 -59.5 46.5t-21.5 65.5q0 42 31.5 83.5t94 69.5t154.5 28q33 0 54.5 -3t40 -8t39.5 -11q8 -2 9 -8t0 -14q-4 -29 -9 -52.5t-12 -48.5q-2 -7 -8 -15t-11 -8t-12 6t-7 17
q1 20 -1.5 35.5t-8.5 29.5q-9 20 -28.5 31.5t-54.5 11.5q-61 0 -98.5 -22.5t-53.5 -59t-14 -80.5q0 -25 7.5 -46t20.5 -33.5t29 -12.5t25 1.5t18 2.5q7 2 16 2.5t21 0.5t25 -6t10 -19q-3 -16 -20.5 -21.5t-31.5 -5.5q-13 0 -22.5 1t-17.5 2q-11 2 -19 3.5t-17 1.5
q-53 0 -91 -24t-57.5 -63.5t-20.5 -85.5q0 -35 10 -66t33.5 -50.5t62.5 -19.5q48 0 89.5 22t79.5 76q16 22 26 34.5t16 12.5q9 0 12.5 -5.5t1.5 -12.5q-7 -25 -17 -46.5t-23 -47.5q-6 -12 -19 -21t-24 -14q-28 -14 -69 -27t-109 -13z" />
    <glyph glyph-name="uni0191" unicode="&#x191;" horiz-adv-x="505" 
d="M-86 -200q-54 0 -79 17.5t-25 36.5q0 24 7.5 39t21.5 15q10 0 23.5 -12t29.5 -25q14 -12 30 -22.5t32 -10.5q19 0 35 15t32 51t35 100l166 546q10 34 0 49t-42 22q-15 3 -19.5 8t-4.5 12q1 6 10 9.5t22 3.5q15 0 50 -2t66 -2h159q69 0 103.5 6.5t42.5 6.5q6 0 9 -3.5
t2 -10.5q0 -4 -1.5 -9.5t-3.5 -12.5q-5 -18 -13.5 -45.5t-12.5 -53.5q-1 -7 -4.5 -12.5t-12.5 -5.5q-6 0 -8.5 6.5t-2.5 14.5q-1 21 -2.5 38t-11.5 29q-6 9 -17.5 14t-27.5 5l-117 1q-21 0 -32 -10.5t-16 -25.5q-2 -5 -10.5 -31t-20 -61t-21 -66.5t-14.5 -46.5
q-2 -10 1 -18.5t18 -8.5l103 2q49 1 80 43q7 9 14.5 15t12.5 6t8 -5t0 -14q-17 -38 -26 -68t-21 -68q-2 -9 -5.5 -14.5t-8.5 -5.5q-8 0 -12 8.5t-4 14.5q0 30 -9.5 41t-26.5 12q-10 1 -32.5 1h-44h-30.5q-17 0 -28.5 -5.5t-16.5 -24.5l-42 -149q-21 -69 -38.5 -113.5
t-33.5 -72.5t-31.5 -47t-31.5 -35q-31 -32 -68.5 -51.5t-83.5 -19.5z" />
    <glyph glyph-name="uni0193" unicode="&#x193;" horiz-adv-x="708" 
d="M371 -14q-67 0 -124 19.5t-97.5 57.5t-59.5 94t-12 129q6 79 41 147.5t93.5 120t136 80.5t167.5 29q33 0 57.5 -6t42.5 -13q16 -6 28 -10t24 -4q5 0 8.5 2t7.5 9q24 43 61.5 63.5t70.5 20.5q54 0 69 -16.5t9 -36.5q-5 -17 -23.5 -31.5t-33.5 -14.5q-13 0 -20 8t-13 18
q-5 11 -11.5 20t-20.5 9q-17 0 -34 -18.5t-32.5 -49t-29 -65.5t-22.5 -69q-3 -10 -8 -16.5t-12 -6.5q-21 0 -16 34q3 25 0 49.5t-18 44.5q-13 18 -38 33t-61 15q-61 0 -115.5 -30t-97 -82.5t-70 -121.5t-34.5 -147q-5 -53 9.5 -96t43.5 -74t66.5 -47.5t77.5 -16.5
q43 0 69.5 25t36.5 59l29 110q5 16 1 25.5t-18 13.5q-13 5 -26.5 8t-23.5 5q-9 2 -18.5 5.5t-8.5 11.5q1 7 10 11t20 4q23 0 44.5 -2t42.5 -3.5t43 -1.5q26 0 47.5 3.5t53.5 3.5q20 0 18 -15q-1 -6 -8.5 -11.5t-21.5 -8.5q-25 -5 -38 -15t-23 -30q-8 -18 -17 -42t-14.5 -45
t-5.5 -29q0 -9 3.5 -16.5t10.5 -17.5q-6 -15 -30.5 -29.5t-58 -25.5t-67.5 -17.5t-60 -6.5z" />
    <glyph glyph-name="uni0196" unicode="&#x196;" horiz-adv-x="382" 
d="M204 -11q-49 0 -75.5 21t-31.5 57.5t9 83.5l124 399q10 34 0 48.5t-45 22.5q-27 5 -23 20q2 7 10.5 10t19.5 3q25 0 45 -1t39 -2t41 -1t40 0.5t38 1.5t46 1q11 0 17 -2.5t4 -9.5q-2 -8 -11 -12.5t-24 -7.5q-28 -5 -45.5 -13t-28 -21.5t-17.5 -36.5l-113 -362
q-13 -44 -15.5 -68t7.5 -35q6 -14 20 -18.5t32 -1.5q18 1 33 8.5t27 16.5q8 3 16 -3t11 -15t-5 -16q-15 -15 -39 -30.5t-51.5 -26t-54.5 -10.5z" />
    <glyph glyph-name="uni0197" unicode="&#x197;" horiz-adv-x="368" 
d="M103 313q-9 0 -12.5 5.5t-3.5 13.5t9.5 16t19.5 8h234q7 0 10.5 -4t3.5 -10q0 -12 -10 -20.5t-23 -8.5h-228zM-7 -4q-10 0 -15.5 2.5t-5.5 9.5q2 13 34 19q38 7 60 22t32 49l139 452q11 34 1.5 48.5t-43.5 22.5q-13 3 -17.5 8t-3.5 12t9.5 10t18.5 3q24 0 43.5 -1
t37.5 -2t39 -1q20 0 38 0.5t37 1.5t43 1q21 0 20 -12q-1 -8 -10 -12.5t-24 -7.5q-26 -5 -43 -13t-27.5 -21.5t-16.5 -36.5l-135 -439q-8 -28 -6 -44.5t14.5 -24.5t34.5 -14q17 -4 22.5 -8t4.5 -12q0 -6 -8 -9t-19 -3q-24 0 -44.5 1.5t-39.5 2.5t-40 1q-33 0 -63 -2.5
t-67 -2.5z" />
    <glyph glyph-name="uni0198" unicode="&#x198;" horiz-adv-x="721" 
d="M-2 -5q-11 0 -17.5 3t-6.5 10q2 13 35 19q38 7 56 22.5t28 50.5l139 451q11 34 1.5 48t-43.5 22q-13 3 -17.5 8t-3.5 12q0 7 9 10t19 3q24 0 43 -1t36 -1.5t37 -0.5q19 0 34.5 0.5t33.5 1t42 0.5q22 0 20 -12q0 -8 -9 -12.5t-24 -7.5q-26 -5 -40 -12t-21.5 -20t-14.5 -38
l-56 -188q-2 -7 1 -10t11 -3q17 0 35 10.5t39 30.5l215 187q52 41 95 62.5t89 21.5q44 0 63 -21.5t19 -48.5q0 -31 -19.5 -53t-53.5 -22q-26 0 -36 10.5t-15 27.5q-4 14 -10.5 24.5t-21.5 10.5q-11 0 -24 -5.5t-36 -20.5q-45 -33 -84 -64.5t-76.5 -64.5t-78.5 -71
q-6 -6 -6.5 -11t2.5 -11q56 -105 98 -167.5t75 -96.5q22 -22 43.5 -32t45.5 -18q14 -4 21 -8t7 -12q0 -6 -9 -9.5t-23 -3.5q-28 0 -48 1.5t-38 2.5t-44 1q-19 0 -44 20.5t-55 76.5l-114 202q-6 13 -17 18t-15 5q-5 0 -7 -6t-4 -11l-57 -198q-10 -39 -1.5 -55.5t41.5 -24.5
q13 -3 18.5 -7t5.5 -12q-1 -6 -10.5 -9.5t-21.5 -3.5q-27 0 -43.5 2t-31.5 4t-34 2q-33 0 -58.5 -4t-67.5 -4z" />
    <glyph glyph-name="uni019C" unicode="&#x19c;" horiz-adv-x="1060" 
d="M227 -13q-93 0 -125 69.5t13 214.5l86 277q11 35 -1 50.5t-32 20.5q-27 8 -23 22q2 7 10.5 10t19.5 3q26 0 55 -2t60 -2q20 0 41.5 0.5t41.5 1.5t33 1q11 0 17.5 -3t4.5 -10t-11 -11t-24 -9q-15 -4 -32.5 -13t-32 -23.5t-20.5 -34.5l-85 -275q-12 -38 -18.5 -77t-3.5 -72
t19 -53.5t50 -20.5q39 0 74.5 25.5t66.5 69.5t57 99t44 113l59 190q10 34 -2 49.5t-33 21.5q-14 5 -19 9.5t-4 12.5q2 7 10 9.5t19 2.5q17 0 36.5 -1t40.5 -1.5t41 -0.5q29 0 61 1.5t52 1.5q11 0 18 -3t5 -9q-3 -8 -11.5 -12.5t-24.5 -8.5q-13 -3 -30 -12t-31.5 -23.5
t-21.5 -34.5l-89 -287q-14 -47 -18 -86t3 -67t25 -43t48 -15q37 0 71 24t64 66t54.5 95t42.5 111l63 202q7 24 2.5 37t-17.5 20.5t-29 12.5q-9 3 -17 8t-6 12q5 13 29 13q14 0 31.5 -0.5l35 -1t33.5 -0.5q40 0 75.5 2t76.5 2q11 0 17.5 -3t4.5 -9q-4 -14 -35 -19
q-38 -8 -60.5 -23t-33.5 -49l-140 -453q-10 -33 -0.5 -47t44.5 -22q14 -3 19.5 -8t3.5 -13q-1 -6 -9 -9t-20 -3q-23 0 -40 1t-31 2t-28 1q-19 0 -39.5 -3.5t-32.5 -3.5q-11 0 -7 13q3 7 8.5 16t9.5 21l9 25q2 9 2 13.5t-5 4.5q-4 0 -9 -4.5t-10 -9.5q-22 -24 -50 -43.5
t-58.5 -31t-64.5 -11.5q-43 0 -70.5 13t-42.5 32.5t-21.5 39.5t-9.5 34q0 7 -6 7q-1 0 -4.5 -2t-10.5 -10q-42 -49 -94 -81.5t-114 -32.5z" />
    <glyph glyph-name="uni019D" unicode="&#x19d;" horiz-adv-x="794" 
d="M-86 -200q-55 0 -79.5 17.5t-24.5 36.5q0 24 7.5 36.5t21.5 12.5q10 0 22.5 -10.5t28.5 -22.5q14 -11 30.5 -21.5t33.5 -10.5q35 0 74 35.5t80 114.5t82.5 210t81.5 323q7 33 6.5 54.5t-16 33.5t-53.5 15q-16 2 -26 6.5t-10 12.5q0 9 10.5 12t16.5 3q26 0 52 -1t51 -2.5
t46 -1.5q10 0 17.5 -5t11.5 -13l218 -468q2 -4 7.5 -10.5t9.5 -6.5q6 0 13 18q4 10 12.5 35.5t19.5 61t22.5 75.5t22.5 77t19 66.5t11 44.5q10 45 -9 64.5t-69 27.5q-24 4 -24 18q0 6 10.5 9.5t20.5 3.5q31 0 58 -2.5t51 -2.5q20 0 36 2t35.5 3.5t46.5 1.5q22 0 22 -12
q0 -7 -10.5 -12.5t-25.5 -7.5q-25 -3 -40 -9.5t-25.5 -23t-22.5 -47.5q-3 -11 -13 -40t-24 -70t-29 -87t-29.5 -89t-25.5 -77.5t-16 -51.5q-6 -20 -4.5 -32t9.5 -27q5 -12 13.5 -19.5t16.5 -14.5q8 -6 13.5 -11t5.5 -13q0 -6 -3.5 -7.5t-8.5 -1.5q-21 0 -37 -1.5t-28 -3
t-24 -1.5q-20 0 -31 8t-20 28q-15 32 -32.5 72t-36.5 85t-39 90.5t-39 88t-35.5 79t-31.5 62.5q-4 8 -9.5 14t-9.5 6q-5 0 -11 -8.5t-10 -21.5q-38 -176 -76 -307t-81.5 -218t-99 -129.5t-127.5 -42.5z" />
    <glyph glyph-name="uni019F" unicode="&#x19f;" horiz-adv-x="693" 
d="M134 313l13 45h521l-25 -45h-509zM300 -14q-75 0 -126 34.5t-77 93t-26 129.5q0 75 27.5 149.5t79.5 136t125.5 98.5t165.5 37q74 0 125.5 -34.5t77.5 -92.5t26 -130q0 -75 -27.5 -149.5t-80 -136t-126 -98.5t-164.5 -37zM302 19q50 0 94.5 27t81 72.5t62.5 102.5t40 117
t14 115q0 46 -13 87.5t-41.5 67.5t-73.5 26q-49 0 -93 -27.5t-80 -73.5t-62.5 -103t-41 -117.5t-14.5 -115.5q0 -46 12.5 -86.5t40.5 -66t74 -25.5z" />
    <glyph glyph-name="uni01A2" unicode="&#x1a2;" horiz-adv-x="939" 
d="M296 -14q-73 0 -123 34.5t-76 93t-26 129.5q0 75 27 149t78 135.5t121.5 98.5t159.5 37q72 0 122.5 -34.5t76.5 -92.5t26 -129q0 -75 -27.5 -149.5t-78.5 -136t-121.5 -98.5t-158.5 -37zM299 19q48 0 90 27t76.5 72.5t59 102.5t38 116.5t13.5 114.5q0 46 -12.5 87.5
t-39.5 67.5t-71 26q-45 0 -86.5 -27.5t-76 -73.5t-59 -103t-38 -117t-13.5 -115q0 -46 11.5 -86.5t38 -66t69.5 -25.5zM491 -283q-11 0 -17.5 3t-5.5 9q5 14 35 20q41 7 63.5 22t33.5 48l186 599q22 71 20 114.5t-23.5 64.5t-59.5 22q-20 1 -50 -5t-70 -30l-24 27
q19 13 43 24.5t54 19.5t66 8q70 0 111.5 -30t49 -93.5t-23.5 -164.5l-173 -555q-10 -33 4 -48t49 -23q14 -3 19.5 -7t3.5 -12q-2 -7 -9.5 -9.5t-19.5 -2.5q-25 0 -45.5 1t-40 2t-41.5 1q-24 0 -45 -1t-43 -2.5t-47 -1.5z" />
    <glyph glyph-name="uni01A4" unicode="&#x1a4;" horiz-adv-x="649" 
d="M73 -4q-11 0 -17 2.5t-6 9.5t10 11.5t25 7.5q38 7 58.5 22t31.5 50l145 473q6 21 3 32.5t-25 11.5q-42 0 -78 -15t-43 -49q-2 -12 3.5 -20.5t11.5 -16.5q7 -7 11.5 -14.5t2.5 -16.5q-3 -11 -17 -22t-29 -18.5t-22 -7.5q-12 0 -20.5 11t-12 27.5t-0.5 31.5q6 36 26 63
t53.5 45.5t81 28t109.5 9.5q8 0 28 1t42.5 2t39.5 1q66 0 114.5 -22.5t74.5 -64t26 -98.5q-1 -49 -24 -90t-62 -71t-89.5 -46.5t-106.5 -16.5q-15 0 -29 3t-14 13q0 6 6.5 9.5t15.5 4.5q13 2 25.5 4t25.5 5q44 10 77 37t52 66.5t19 88.5q0 48 -16.5 80.5t-47 49.5t-72.5 17
q-9 0 -15 -4.5t-11 -16t-12 -33.5l-143 -464q-12 -37 0.5 -54.5t51.5 -25.5q13 -3 18.5 -7t5.5 -12q0 -6 -9.5 -9t-21.5 -3q-24 0 -44.5 1.5t-38.5 3t-37 1.5q-34 0 -64.5 -3t-66.5 -3z" />
    <glyph glyph-name="uni01A6" unicode="&#x1a6;" horiz-adv-x="696" 
d="M530 -111q-36 0 -62 6t-43.5 18.5t-26.5 30.5q-14 30 -30 64.5t-30.5 70.5t-26.5 68q-10 24 -22.5 34t-36.5 10q-9 0 -17 -3t-11 -11l-20 -66q-8 -28 -6 -44.5t14.5 -24.5t34.5 -14q17 -4 22.5 -8t4.5 -12q0 -6 -8 -9t-19 -3q-24 0 -44.5 1.5t-39.5 2.5t-40 1
q-33 0 -63 -2.5t-67 -2.5q-10 0 -15.5 2.5t-5.5 9.5q2 13 34 19q38 7 60 22t32 49l139 452q11 34 1.5 48.5t-43.5 22.5q-13 3 -17.5 8t-3.5 12t9.5 10t18.5 3q24 0 43.5 -1t37.5 -2t39 -1q20 0 38 0.5t37 1.5t43 1q21 0 20 -12q-1 -8 -10 -12.5t-24 -7.5q-24 -5 -40.5 -12.5
t-27 -19.5t-17.5 -33l-3 -9q9 0 19.5 0.5t21.5 0.5q56 0 100.5 -16.5t70 -49.5t25.5 -82q0 -52 -25.5 -90t-65 -62.5t-83.5 -37.5q-12 -5 -7 -16q8 -18 19.5 -44.5t25 -55t25 -53t20.5 -41.5q18 -37 38.5 -53.5t51.5 -20.5q13 -1 24 -4.5t11 -11.5q0 -13 -20 -17t-59 -4z
M293 213q25 0 55.5 10.5t58.5 33.5t45.5 59.5t17.5 88.5q0 48 -30 81.5t-76 33.5q-14 0 -23 -5t-16.5 -22t-18.5 -52l-58 -190q-7 -22 3 -30t42 -8z" />
    <glyph glyph-name="uni01A7" unicode="&#x1a7;" horiz-adv-x="472" 
d="M198 -15q-54 0 -93 17t-61 48t-22 72q0 66 30.5 109.5t82.5 76.5t117 67q48 25 87.5 51t63.5 57.5t24 72.5q0 35 -23.5 51.5t-58.5 16.5q-48 0 -86 -30.5t-73 -84.5q-5 -7 -13 -11.5t-17 -4.5q-6 0 -10.5 5t-3.5 10q10 29 24 57t26 49q7 10 14 17t17 10q21 8 52.5 15.5
t68.5 7.5q55 0 92.5 -16.5t56 -47t18.5 -71.5q0 -47 -18.5 -81.5t-50.5 -60.5t-73.5 -49t-87.5 -47q-33 -17 -63 -36t-54 -42t-38 -51t-14 -62q0 -33 22 -54t61 -21q32 0 66 17t66.5 50t60.5 81q9 12 24 12q8 0 13 -3.5t3 -10.5q-8 -27 -21.5 -61.5t-27.5 -57.5
q-4 -6 -10 -11.5t-12 -9.5q-37 -23 -77 -34.5t-82 -11.5z" />
    <glyph glyph-name="uni01A9" unicode="&#x1a9;" horiz-adv-x="590" 
d="M-15 -6q-10 0 -16 3.5t-5 9.5q1 7 12.5 19.5t33.5 30.5q29 24 71 58t89 72.5t90.5 74t74.5 61.5q9 7 4 15q-14 27 -33 57t-40 60.5t-38.5 56t-26.5 40.5q-16 25 -27.5 43t-18.5 33q0 7 7.5 14t13.5 7q52 -1 108.5 -2t118.5 -1h69.5t73.5 1q23 0 43 2.5t27 5.5q10 6 18 11
t13 5q6 0 9.5 -4t1.5 -15q-5 -33 -10.5 -68.5t-9.5 -54.5q-2 -11 -6 -22t-13 -11t-10.5 9t-2.5 18q-1 21 -5.5 36t-14.5 25q-16 17 -47 20q-21 2 -51.5 3.5t-64.5 3t-66.5 2.5t-55.5 1q-16 0 -18.5 -5.5t1.5 -14.5q5 -11 19.5 -34t33.5 -51t38 -55.5t34.5 -49.5t22.5 -32
q6 -7 2.5 -13.5t-11.5 -13.5l-282 -231q-7 -6 -6 -11t8 -6q22 -4 52.5 -5.5t76 -1.5h110.5q35 0 62 9t55 44q12 13 22 22.5t20 9.5q8 0 8.5 -5.5t-2.5 -11.5q-16 -28 -34 -56.5t-32.5 -51.5t-20.5 -37q-4 -7 -8.5 -12.5t-12.5 -5.5q-21 0 -37 2.5t-36 2.5q-19 0 -49 0.5
t-65 0.5h-68.5t-59 -0.5t-37.5 -0.5q-24 0 -39 -1.5t-29 -3t-34 -1.5z" />
    <glyph glyph-name="uni01AC" unicode="&#x1ac;" horiz-adv-x="647" 
d="M147 -4q-10 0 -16 2.5t-5 9.5q0 7 9.5 11t24.5 6q38 8 61 24.5t33 51.5l126 427q15 53 13.5 69.5t-16.5 16.5h-104q-42 0 -72.5 -18t-30.5 -49q0 -13 8.5 -23t17.5 -18q9 -7 16 -14.5t7 -16.5q0 -10 -10 -21.5t-22.5 -19t-19.5 -7.5q-13 0 -26.5 12t-21.5 30.5t-8 36.5
q0 34 13 60t39 43.5t65.5 26t92.5 8.5l323 1q35 0 53 2t26.5 5.5t11.5 5.5q10 6 17 12t14 6q11 0 9 -13q0 -6 -3 -13t-6 -12q-10 -18 -22 -50t-21 -72q-2 -11 -6 -15.5t-10 -4.5q-8 0 -11.5 7t-3.5 20q0 44 -15 67.5t-55 23.5h-82q-14 0 -23 -6.5t-17 -25t-19 -56.5
l-125 -425q-9 -34 4 -50.5t47 -25.5q13 -3 18 -6t4 -11q-1 -6 -9 -9t-19 -3q-24 0 -44 1.5t-39 2.5t-39 1q-23 0 -44 -1t-42.5 -2.5t-45.5 -1.5z" />
    <glyph glyph-name="uni01AE" unicode="&#x1ae;" horiz-adv-x="641" 
d="M358 -199q-33 0 -63.5 14t-51 45t-24 81t17.5 122l137 465q15 53 13.5 69.5t-16.5 16.5h-70q-44 0 -73 -19.5t-49 -42.5q-9 -9 -18 -21t-18 -20.5t-16 -8.5t-9 3t-2 11q1 3 3.5 11t7.5 19q17 25 30.5 52t22.5 56q3 9 9 15.5t12 6.5t13 -5.5t13 -10.5q5 -4 12 -8t23 -6
t48 -2l328 1q35 0 53 2t26.5 5.5t11.5 5.5q10 6 17 12t14 6q11 0 10 -13q-1 -6 -4 -13t-6 -12q-10 -18 -22 -50t-21 -72q-2 -11 -6 -15.5t-10 -4.5q-8 0 -11.5 7t-3.5 20q0 44 -15 67.5t-55 23.5h-82q-14 0 -23 -6.5t-17 -25t-19 -56.5l-154 -524q-23 -78 -18 -119.5
t38 -41.5q17 0 32.5 10t41.5 35q13 12 24.5 18.5t20.5 6.5q15 0 24 -11t9 -26q0 -20 -18 -36.5t-48.5 -26.5t-68.5 -10z" />
    <glyph glyph-name="uni01B1" unicode="&#x1b1;" horiz-adv-x="802" 
d="M850 655q8 0 10.5 -4.5t1.5 -11.5q-1 -18 0 -41t2 -47.5t-1 -48.5q-2 -14 -15 -14q-8 0 -12 7t-6 18q-3 23 -14 33t-30 12.5t-46 2.5l-87 -1q-6 0 -7.5 -2.5t4.5 -8.5q44 -27 71 -75t27 -109q0 -88 -35 -158.5t-93.5 -119.5t-128.5 -75t-140 -26q-68 0 -123.5 25.5
t-89.5 74.5t-34 119q0 56 21 107.5t57.5 96.5t83 81.5t98.5 60.5q3 2 5.5 5.5t-4.5 4.5h-88q-26 1 -46 -2t-37 -13t-34 -33q-9 -11 -17.5 -18t-16.5 -7q-5 0 -7.5 4.5t1.5 12.5q13 22 28.5 46t30.5 46.5t23 38.5q5 9 11 13.5t16 4.5q16 0 32 -1.5t39 -1.5q21 0 52.5 -0.5
t64 -0.5h54.5q11 0 13 -2.5t0 -8.5q-2 -18 -17 -37t-30 -28q-44 -29 -83 -72t-69 -94.5t-47.5 -105t-18.5 -104.5q0 -84 36 -129t99 -45q59 0 110.5 33.5t91 90t61.5 126t22 142.5q0 48 -13.5 90t-39.5 72q-5 7 -6.5 17.5t-0.5 19.5q1 16 5 25.5t12 9.5h38.5h27h28.5
q14 0 36 0.5t45 0.5q25 0 44 2t35 2z" />
    <glyph glyph-name="uni01B2" unicode="&#x1b2;" horiz-adv-x="748" 
d="M271 -14q-62 0 -100.5 21.5t-56.5 56t-19 76t12 82.5l101 326q11 35 1.5 50.5t-31.5 20.5q-27 8 -22 22q2 7 10.5 10t19.5 3q26 0 54 -2t56 -2q25 0 52 1.5t48 1.5q25 0 21 -13q-2 -7 -10.5 -11t-23.5 -9q-20 -6 -39.5 -23.5t-29.5 -47.5l-95 -307q-31 -102 -6.5 -155.5
t103.5 -53.5q60 0 113.5 30t98.5 81.5t77.5 115t50.5 131t16 129.5q0 37 -7.5 62t-21.5 37.5t-37 12.5q-13 0 -26 -11.5t-25 -24.5q-14 -14 -26.5 -26t-25.5 -12q-16 0 -24.5 10.5t-7.5 26.5t15.5 31.5t45 26t80.5 10.5q77 0 117 -45.5t39 -121.5q0 -78 -26.5 -152.5
t-74.5 -139t-110.5 -114t-135.5 -77t-150 -27.5z" />
    <glyph glyph-name="uni01B3" unicode="&#x1b3;" horiz-adv-x="654" 
d="M122 -5q-12 0 -18 3t-6 9q1 8 11 12.5t25 7.5q38 7 62 27t35 55l48 153q8 23 7 41.5t-8 41.5l-57 205q-8 30 -21.5 47.5t-35.5 20.5q-15 3 -22 9t-6 14q0 7 10.5 9.5t21.5 2.5q28 0 57.5 -2t66.5 -2q24 0 46.5 2t44.5 2q11 0 17 -3t6 -9q-1 -8 -11 -13t-26 -8
q-34 -6 -42.5 -18.5t-0.5 -46.5l42 -167q5 -18 9 -26t8 -8q5 0 13 7.5t19 20.5q48 59 89 109.5t79.5 88.5t77 59t80.5 21q39 0 56.5 -19.5t18.5 -44.5q0 -27 -20 -50.5t-55 -23.5q-21 0 -31 9t-13 24q-3 17 -8.5 26t-20.5 9q-17 0 -40 -16t-52 -46t-66 -74t-82 -100
q-21 -23 -32 -45.5t-20 -51.5l-45 -148q-11 -35 0.5 -54.5t45.5 -27.5q13 -3 19 -7t5 -12q-1 -7 -10 -10t-20 -3q-24 0 -43.5 1.5t-38.5 3t-40 1.5q-22 0 -42.5 -1.5t-41.5 -3t-45 -1.5z" />
    <glyph glyph-name="uni01B5" unicode="&#x1b5;" horiz-adv-x="637" 
d="M150 313q-9 0 -12.5 8t-3.5 13q1 9 9 15.5t18 6.5h352q6 0 11 -3.5t5 -9.5q0 -1 -0.5 -1.5t-1.5 -2.5q-5 -11 -14 -18.5t-22 -7.5h-341zM502 -5q-26 0 -65 0.5t-83.5 1.5t-89.5 2t-83 1q-28 0 -64.5 -1t-72.5 -2t-64 -1q-6 0 -5 9t2 10q6 9 19.5 25t30.5 35t32 34
q64 66 119.5 126t108.5 118.5t109.5 119t120.5 126.5q4 5 5.5 11t-14.5 6q-14 1 -39.5 0.5t-56 -2t-59 -3t-48.5 -3.5q-27 -3 -63.5 -23.5t-66.5 -65.5q-8 -11 -15.5 -19t-16.5 -8q-7 0 -9.5 5.5t-2.5 12.5q1 4 3 11t6 15q11 23 23.5 49.5t20.5 45.5q5 14 12 20.5t18 6.5
q18 0 46.5 -4.5t60.5 -5.5q34 -1 72.5 -1h69.5q36 0 70.5 1t68 1.5t64.5 1.5q6 0 10.5 -10t1.5 -13l-84 -88q-62 -64 -117 -121t-107 -112t-105 -113.5t-112 -125.5q-23 -26 6 -29q19 -1 47 -2.5t60 -0.5q24 0 54.5 1.5t60 5t50.5 8.5q44 9 82 33.5t67 69.5q5 6 10 11.5
t11 5.5q8 0 9.5 -5.5t0.5 -12.5q-1 -10 -10.5 -28t-22 -39.5t-24.5 -41t-20 -31.5q-4 -7 -11.5 -12.5t-20.5 -5.5z" />
    <glyph glyph-name="uni01B7" unicode="&#x1b7;" horiz-adv-x="556" 
d="M195 -14q-44 0 -87 10.5t-71 26t-28 31.5t5.5 52.5t18.5 74.5q4 11 7.5 17t11.5 6t10 -8.5t2 -24.5q0 -72 34.5 -111.5t100.5 -39.5q46 0 82 17.5t61.5 46t39.5 62.5t14 67q1 36 -12.5 65t-40 46.5t-64.5 17.5q-10 0 -18 -1.5t-15 -3.5q-9 -2 -16.5 -5t-14.5 -3
q-10 0 -15 4t-5 13q0 8 3.5 14.5t15.5 17.5l239 220q6 6 3.5 10.5t-11.5 4.5h-149q-28 0 -55.5 -20.5t-55.5 -63.5q-6 -9 -14.5 -19t-17.5 -10q-8 0 -10.5 8t-1.5 13t4.5 14t8.5 18q8 15 12.5 29.5t9.5 30.5t12 37q3 13 12 16.5t15 3.5q8 0 17.5 -4t22.5 -9q11 -4 23.5 -6.5
t29.5 -2.5h175h37.5t23.5 0.5t22 1t33 0.5q5 0 7.5 -8t-3.5 -13l-263 -231q-12 -11 -15 -19t4 -7q10 2 19.5 3t18.5 1q47 0 78 -21t47.5 -55t16.5 -74q0 -43 -19.5 -85t-58.5 -77t-97.5 -56.5t-138.5 -21.5z" />
    <glyph glyph-name="uni01B8" unicode="&#x1b8;" horiz-adv-x="508" 
d="M208 -14q-59 0 -99.5 24.5t-60.5 63.5t-20 83q0 46 22 90.5t67.5 76t114.5 40.5q12 2 24.5 6t22 9t10.5 10q1 2 0 3.5t-2 4.5l-90 206q-3 8 -6.5 17t-3.5 14q1 9 12.5 16t16.5 7q10 0 31 -1.5t41.5 -3.5t27.5 -2h164q11 0 27 0.5t30.5 2t20.5 3.5q12 6 23 12.5t17 6.5
q7 0 10 -4.5t1 -16.5q-4 -23 -8 -43.5t-7 -39t-5 -34.5q0 -7 -1 -13.5t-3 -10.5q-2 -7 -6 -11.5t-11 -4.5q-10 0 -13 8t-3 17q-1 45 -15 68.5t-47 23.5h-154q-11 0 -16.5 -3t-6.5 -7q-1 -3 0.5 -10t8.5 -22l73 -156q16 -33 16 -41q0 -5 -3 -13q-5 -15 -22.5 -19t-35.5 -4
q-8 0 -14 0.5t-11 0.5q-60 0 -99.5 -28t-58.5 -69.5t-19 -85.5q0 -34 12 -63.5t36 -47.5t59 -18q51 0 92.5 22t78.5 75q17 23 27.5 35.5t13.5 12.5q8 0 14 -5t4 -11q-10 -28 -22 -54.5t-22 -49.5q-7 -13 -22 -22.5t-26 -14.5q-29 -12 -75 -21t-110 -9z" />
    <glyph glyph-name="uni01BC" unicode="&#x1bc;" horiz-adv-x="567" 
d="M171 -14q-44 0 -72.5 9.5t-48.5 19.5q-9 6 -18 15.5t-7 23.5q4 21 9 51t13 59q2 6 10.5 10.5t16.5 4.5q9 0 12 -45q3 -49 27.5 -79.5t65.5 -30.5q49 0 86 19.5t61.5 51.5t37 70.5t10.5 74.5q-1 47 -27.5 79.5t-85.5 32.5q-29 0 -55.5 -6t-45 -13t-24.5 -7q-10 0 -9 9
t4 21l83 194q14 34 5.5 49t-43.5 22q-28 6 -24 20q2 7 10.5 10t20.5 3q26 0 45.5 -1t38 -2t40.5 -1l217 -1q16 0 32 3.5t21 3.5q6 0 6.5 -5.5t-0.5 -9.5q-10 -35 -13.5 -59t-11.5 -51q-3 -11 -11 -17t-12 -6q-8 0 -13 8.5t-3 22.5q4 36 -4.5 56t-49.5 20h-75
q-26 0 -39.5 -8.5t-19.5 -25.5l-79 -191q22 5 39 7t37 2q56 0 91.5 -22.5t53 -60t16.5 -83.5q-1 -42 -19.5 -85.5t-57 -80t-98.5 -59t-143 -22.5z" />
    <glyph glyph-name="uni01C4" unicode="&#x1c4;" horiz-adv-x="1382" 
d="M313 -7q-18 0 -53 2.5t-73 4t-68 1.5q-19 0 -37 -1t-38 -2.5t-44 -1.5q-10 0 -15.5 2.5t-5.5 9.5q2 16 34 19q30 2 46.5 10t25.5 23.5t17 37.5l147 459q8 24 -2.5 35.5t-30 17.5t-42.5 11q-13 3 -17 8t-3 12q0 7 8.5 10t19.5 3q38 0 73.5 -2.5t66.5 -2.5q20 0 36.5 1.5
t35 3t44.5 1.5q94 0 162.5 -33t106 -94.5t37.5 -148.5q0 -77 -32 -146t-90 -123.5t-137 -85.5t-172 -31zM316 25q68 0 125.5 31.5t100.5 85t67 120t24 135.5q0 78 -23.5 127t-67 72.5t-102.5 23.5q-36 0 -52.5 -5t-23 -16t-12.5 -28l-135 -436q-13 -41 -3 -65t37 -34.5
t65 -10.5zM1247 -5q-26 0 -65 0.5t-83.5 1.5t-89.5 2t-83 1q-28 0 -64.5 -1t-72.5 -2t-64 -1q-6 0 -5 9t2 10q6 9 19.5 25t30.5 35t32 34q64 66 119.5 126t108.5 118.5t109.5 119t120.5 126.5q4 5 5.5 11t-14.5 6q-14 1 -39.5 0.5t-56 -2t-59 -3t-48.5 -3.5
q-27 -3 -63.5 -23.5t-66.5 -65.5q-8 -11 -15.5 -19t-16.5 -8q-7 0 -9.5 5.5t-2.5 12.5q1 4 3 11t6 15q11 23 23.5 49.5t20.5 45.5q5 14 12 20.5t18 6.5q18 0 46.5 -4.5t60.5 -5.5q34 -1 72.5 -1h69.5q36 0 70.5 1t68 1.5t64.5 1.5q6 0 10.5 -10t1.5 -13l-84 -88
q-62 -64 -117 -121t-107 -112t-105 -113.5t-112 -125.5q-23 -26 6 -29q19 -1 47 -2.5t60 -0.5q24 0 54.5 1.5t60 5t50.5 8.5q44 9 82 33.5t67 69.5q5 6 10 11.5t11 5.5q8 0 9.5 -5.5t0.5 -12.5q-1 -10 -10.5 -28t-22 -39.5t-24.5 -41t-20 -31.5q-4 -7 -11.5 -12.5
t-20.5 -5.5zM1184 697q-9 0 -19 7t-19 17l-74 86q-6 8 -5 13q1 12 17 12q7 0 25.5 -9.5t38.5 -22.5t31 -23q6 -4 13 -3.5t14 3.5q12 5 34.5 14t47 18t43.5 15.5t25 6.5q15 0 15 -11q0 -7 -8 -14l-129 -85q-18 -12 -29 -18t-21 -6z" />
    <glyph glyph-name="uni01C5" unicode="&#x1c5;" horiz-adv-x="1175" 
d="M313 -7q-18 0 -53 2.5t-73 4t-68 1.5q-19 0 -37 -1t-38 -2.5t-44 -1.5q-10 0 -15.5 2.5t-5.5 9.5q2 16 34 19q30 2 46.5 10t25.5 23.5t17 37.5l147 459q8 24 -2.5 35.5t-30 17.5t-42.5 11q-13 3 -17 8t-3 12q0 7 8.5 10t19.5 3q38 0 73.5 -2.5t66.5 -2.5q20 0 36.5 1.5
t35 3t44.5 1.5q94 0 162.5 -33t106 -94.5t37.5 -148.5q0 -77 -32 -146t-90 -123.5t-137 -85.5t-172 -31zM316 25q68 0 125.5 31.5t100.5 85t67 120t24 135.5q0 78 -23.5 127t-67 72.5t-102.5 23.5q-36 0 -52.5 -5t-23 -16t-12.5 -28l-135 -436q-13 -41 -3 -65t37 -34.5
t65 -10.5zM987 -34q-27 0 -49.5 15.5t-41.5 33.5q-17 14 -31.5 26t-26.5 12q-29 0 -45 -18t-16 -41q0 -10 -5.5 -12t-9.5 -2q-5 0 -10.5 9t-6.5 19q-1 11 4.5 25.5t20.5 27.5l290 271l28 4q-12 -14 -26 -21t-28 -7q-17 0 -33.5 8.5t-33.5 19.5q-18 11 -37 19.5t-39 8.5
q-17 0 -29.5 -15t-12.5 -30q0 -10 2.5 -20t7.5 -19q7 -10 0 -18q-7 -7 -22.5 -14.5t-20.5 -7.5q-6 0 -14.5 10t-8.5 28q0 30 14 50t40 43q13 11 32 22.5t38 19.5t31 8q19 0 35.5 -5.5t35.5 -11.5q18 -7 35.5 -13t32.5 -6q16 0 25 5t21 16q5 5 14 11.5t17 6.5q3 0 7.5 -4
t4.5 -9q0 -7 -10 -21.5t-24 -28.5l-288 -277l-19 8q13 11 23 16t23 5q23 0 43 -13t39 -30q18 -14 35.5 -27t35.5 -13q19 0 28 13t12.5 33t3.5 41q0 18 2.5 26.5t11.5 8.5q12 0 24 -13.5t12 -39.5q0 -21 -16 -44t-40 -43t-47 -33t-38 -13zM1026 465q-8 0 -11.5 8t-8.5 26
q-4 16 -8.5 36.5t-8.5 41.5t-6.5 38t-3.5 25q-1 9 1.5 18.5t10.5 9.5q11 0 21 -22q6 -15 16.5 -38.5t20.5 -46.5q3 -7 10 0q23 23 48 46.5t41 39.5q10 8 18.5 14.5t13.5 6.5q10 0 10 -10q0 -5 -2.5 -10.5t-7.5 -11.5q-11 -15 -30 -39t-39 -48.5t-34 -41.5t-28 -29.5
t-23 -12.5z" />
    <glyph glyph-name="uni01C7" unicode="&#x1c7;" horiz-adv-x="905" 
d="M-5 -5q-11 0 -16.5 3t-4.5 9q1 13 33 19q36 8 62.5 23t36.5 49l141 459q11 35 3 45.5t-42 18.5q-13 3 -17.5 8t-4.5 12q1 7 9.5 10t18.5 3q24 0 43 -1t36.5 -2.5t37.5 -1.5q22 0 43 1t43 2t46 1q21 0 19 -12q0 -8 -10 -12t-24 -6q-28 -4 -47 -11t-31.5 -18.5t-18.5 -31.5
l-131 -437q-14 -47 -5.5 -69.5t42.5 -22.5h64q51 0 84.5 11t54.5 29q22 19 37 40.5t31 47.5q5 7 8.5 10t9.5 3q5 0 7 -4t2 -10q0 -10 -5.5 -29.5t-14.5 -42.5t-18 -44t-16 -32q-4 -6 -10 -11.5t-13 -5.5q-45 0 -91 1t-91.5 2t-89 2t-80.5 1q-35 0 -65.5 -3t-65.5 -3z
M496 -200q-54 0 -78.5 17.5t-25.5 36.5q0 24 7.5 39t21.5 15q10 0 23.5 -12t29.5 -25q14 -11 30 -22t32 -11q19 0 35 15t32.5 51t35.5 100l167 547q11 34 2.5 48t-42.5 22q-13 3 -17.5 8t-4.5 12q1 7 10 10t19 3q24 0 43 -1t37 -2t39 -1q18 0 33.5 0.5t33.5 1.5t41 1
q21 0 20 -12q-1 -8 -9.5 -12.5t-23.5 -7.5q-26 -5 -40.5 -13t-22.5 -21.5t-15 -35.5l-133 -435q-19 -62 -35.5 -102.5t-32.5 -66.5t-32 -44t-32 -34q-32 -31 -68.5 -50t-79.5 -19z" />
    <glyph glyph-name="uni01C8" unicode="&#x1c8;" horiz-adv-x="859" 
d="M-5 -5q-11 0 -16.5 3t-4.5 9q1 13 33 19q36 8 62.5 23t36.5 49l141 459q11 35 3 45.5t-42 18.5q-13 3 -17.5 8t-4.5 12q1 7 9.5 10t18.5 3q24 0 43 -1t36.5 -2.5t37.5 -1.5q22 0 43 1t43 2t46 1q21 0 19 -12q0 -8 -10 -12t-24 -6q-28 -4 -47 -11t-31.5 -18.5t-18.5 -31.5
l-131 -437q-14 -47 -5.5 -69.5t42.5 -22.5h64q51 0 84.5 11t54.5 29q22 19 37 40.5t31 47.5q5 7 8.5 10t9.5 3q5 0 7 -4t2 -10q0 -10 -5.5 -29.5t-14.5 -42.5t-18 -44t-16 -32q-4 -6 -10 -11.5t-13 -5.5q-45 0 -91 1t-91.5 2t-89 2t-80.5 1q-35 0 -65.5 -3t-65.5 -3z
M457 -290q-41 0 -62.5 15.5t-21.5 31.5q1 12 8 22.5t17 17t19 6.5q11 0 20 -7.5t16 -16.5q9 -9 19.5 -16.5t26.5 -7.5q26 0 44.5 30t33.5 76l137 419q6 21 3.5 29.5t-11.5 8.5t-24.5 -7t-35.5 -16q-6 -2 -12 -0.5t-6 6.5q0 6 3 9.5t10 9.5q22 19 44 33.5t43.5 26t42 21
t39.5 19.5q13 5 25.5 -6.5t8.5 -22.5q-9 -24 -20 -52.5t-21 -59.5l-126 -384q-12 -35 -38.5 -68t-59.5 -59.5t-65.5 -42t-56.5 -15.5zM834 511q-18 0 -29.5 13.5t-11.5 31.5q0 27 19 48.5t47 21.5q19 0 29.5 -16t10.5 -34q0 -25 -19 -45t-46 -20z" />
    <glyph glyph-name="uni01CA" unicode="&#x1ca;" horiz-adv-x="1098" 
d="M12 -4q-10 0 -16.5 2.5t-5.5 9.5t8 11t22 8q42 10 61 28.5t28 45.5l143 420q11 32 10 54t-18 34t-55 15q-16 2 -26 6.5t-10 12.5q0 9 10.5 12t16.5 3q26 0 52 -1t51 -2.5t46 -1.5q10 0 17.5 -5t11.5 -13l218 -468q2 -4 7.5 -10.5t9.5 -6.5q6 0 13 18q4 10 12.5 35.5
t19.5 61t22.5 75.5t22.5 77t19 66.5t11 44.5q10 45 -9 64.5t-69 27.5q-24 4 -24 18q0 6 10.5 9.5t20.5 3.5q31 0 58 -2.5t51 -2.5q20 0 36 2t35.5 3.5t46.5 1.5q22 0 22 -12q0 -7 -10.5 -12.5t-25.5 -7.5q-25 -3 -40 -9.5t-25.5 -23t-22.5 -47.5q-3 -11 -13 -40t-24 -70
t-29 -87t-29.5 -89t-25.5 -77.5t-16 -51.5q-6 -20 -4.5 -32t9.5 -27q5 -12 13.5 -19.5t16.5 -14.5q8 -6 13.5 -11t5.5 -13q0 -6 -3.5 -7.5t-8.5 -1.5q-21 0 -37 -1.5t-28 -3t-24 -1.5q-20 0 -31 8t-20 28q-15 32 -32.5 72t-36.5 85t-39 90.5t-39 88t-35.5 79t-31.5 62.5
q-4 8 -9.5 14t-9.5 6q-5 0 -11 -8.5t-10 -21.5q-11 -36 -26.5 -83.5t-31.5 -101.5t-31.5 -108.5t-27.5 -102.5q-7 -31 7.5 -48.5t53.5 -26.5q13 -3 20 -6.5t7 -11.5q-1 -6 -10 -9t-20 -3q-26 0 -41.5 1.5t-28 2t-28.5 0.5q-21 0 -39.5 -1t-35 -2t-34.5 -1zM688 -200
q-54 0 -78.5 17.5t-25.5 36.5q0 24 7.5 39t21.5 15q10 0 23.5 -12t29.5 -25q14 -11 30 -22t32 -11q19 0 35 15t32.5 51t35.5 100l167 547q11 34 2.5 48t-42.5 22q-13 3 -17.5 8t-4.5 12q1 7 10 10t19 3q24 0 43 -1t37 -2t39 -1q18 0 33.5 0.5t33.5 1.5t41 1q21 0 20 -12
q-1 -8 -9.5 -12.5t-23.5 -7.5q-26 -5 -40.5 -13t-22.5 -21.5t-15 -35.5l-133 -435q-19 -62 -35.5 -102.5t-32.5 -66.5t-32 -44t-32 -34q-32 -31 -68.5 -50t-79.5 -19z" />
    <glyph glyph-name="uni01CB" unicode="&#x1cb;" horiz-adv-x="1052" 
d="M12 -4q-10 0 -16.5 2.5t-5.5 9.5t8 11t22 8q42 10 61 28.5t28 45.5l143 420q11 32 10 54t-18 34t-55 15q-16 2 -26 6.5t-10 12.5q0 9 10.5 12t16.5 3q26 0 52 -1t51 -2.5t46 -1.5q10 0 17.5 -5t11.5 -13l218 -468q2 -4 7.5 -10.5t9.5 -6.5q6 0 13 18q4 10 12.5 35.5
t19.5 61t22.5 75.5t22.5 77t19 66.5t11 44.5q10 45 -9 64.5t-69 27.5q-24 4 -24 18q0 6 10.5 9.5t20.5 3.5q31 0 58 -2.5t51 -2.5q20 0 36 2t35.5 3.5t46.5 1.5q22 0 22 -12q0 -7 -10.5 -12.5t-25.5 -7.5q-25 -3 -40 -9.5t-25.5 -23t-22.5 -47.5q-3 -11 -13 -40t-24 -70
t-29 -87t-29.5 -89t-25.5 -77.5t-16 -51.5q-6 -20 -4.5 -32t9.5 -27q5 -12 13.5 -19.5t16.5 -14.5q8 -6 13.5 -11t5.5 -13q0 -6 -3.5 -7.5t-8.5 -1.5q-21 0 -37 -1.5t-28 -3t-24 -1.5q-20 0 -31 8t-20 28q-15 32 -32.5 72t-36.5 85t-39 90.5t-39 88t-35.5 79t-31.5 62.5
q-4 8 -9.5 14t-9.5 6q-5 0 -11 -8.5t-10 -21.5q-11 -36 -26.5 -83.5t-31.5 -101.5t-31.5 -108.5t-27.5 -102.5q-7 -31 7.5 -48.5t53.5 -26.5q13 -3 20 -6.5t7 -11.5q-1 -6 -10 -9t-20 -3q-26 0 -41.5 1.5t-28 2t-28.5 0.5q-21 0 -39.5 -1t-35 -2t-34.5 -1zM649 -290
q-41 0 -62.5 15.5t-21.5 31.5q1 12 8 22.5t17 17t19 6.5q11 0 20 -7.5t16 -16.5q9 -9 19.5 -16.5t26.5 -7.5q26 0 44.5 30t33.5 76l137 419q6 21 3.5 29.5t-11.5 8.5t-24.5 -7t-35.5 -16q-6 -2 -12 -0.5t-6 6.5q0 6 3 9.5t10 9.5q22 19 44 33.5t43.5 26t42 21t39.5 19.5
q13 5 25.5 -6.5t8.5 -22.5q-9 -24 -20 -52.5t-21 -59.5l-126 -384q-12 -35 -38.5 -68t-59.5 -59.5t-65.5 -42t-56.5 -15.5zM1027 511q-18 0 -29.5 13.5t-11.5 31.5q0 27 19 48.5t47 21.5q19 0 29.5 -16t10.5 -34q0 -25 -19 -45t-46 -20z" />
    <glyph glyph-name="uni01CD" unicode="&#x1cd;" horiz-adv-x="689" 
d="M-39 -5q-11 0 -16.5 3t-6.5 11q0 9 9 13.5t23 7.5q25 7 49 17.5t45.5 25t37.5 32.5q71 79 133 154t121 149.5t120 149.5q14 17 24 32t17 24t11 9q23 0 35.5 6t26.5 19q15 14 23.5 20.5t14.5 6.5q7 0 9 -10.5t-3 -31.5l-102 -514q-9 -43 1.5 -63t41.5 -28q15 -4 22.5 -7.5
t7.5 -11.5q0 -7 -8 -10t-23 -3t-38 1.5t-47.5 2.5t-46.5 1h-39.5t-42 -1t-34.5 -1q-21 0 -23 13q0 8 8 13.5t20 7.5q30 5 48 12.5t28.5 22t16.5 40.5l31 120q3 12 -4.5 18t-20.5 6l-126 -2q-14 0 -22.5 -4t-15.5 -14l-91 -119q-20 -26 -22.5 -42t7 -24t25.5 -13
q10 -3 17.5 -8.5t7.5 -13.5q0 -7 -8.5 -10t-20.5 -3q-19 0 -41.5 1t-49.5 1q-31 0 -67 -3t-62 -3zM336 288l112 1q10 0 15.5 5t8.5 18l48 219q2 10 2 15.5t-5 5.5q-3 0 -7.5 -2t-9.5 -9l-179 -232q-8 -10 -8 -15.5t23 -5.5zM619 697q-9 0 -19 7t-19 17l-74 86q-6 8 -5 13
q1 12 17 12q7 0 25.5 -9.5t38.5 -22.5t31 -23q6 -4 13 -3.5t14 3.5q12 5 34.5 14t47 18t43.5 15.5t25 6.5q15 0 15 -11q0 -7 -8 -14l-129 -85q-18 -12 -29 -18t-21 -6z" />
    <glyph glyph-name="uni01CF" unicode="&#x1cf;" horiz-adv-x="368" 
d="M-7 -4q-10 0 -15.5 2.5t-5.5 9.5q2 13 34 19q38 7 60 22t32 49l139 452q11 34 1.5 48.5t-43.5 22.5q-13 3 -17.5 8t-3.5 12t9.5 10t18.5 3q24 0 43.5 -1t37.5 -2t39 -1q20 0 38 0.5t37 1.5t43 1q21 0 20 -12q-1 -8 -10 -12.5t-24 -7.5q-26 -5 -43 -13t-27.5 -21.5
t-16.5 -36.5l-135 -439q-8 -28 -6 -44.5t14.5 -24.5t34.5 -14q17 -4 22.5 -8t4.5 -12q0 -6 -8 -9t-19 -3q-24 0 -44.5 1.5t-39.5 2.5t-40 1q-33 0 -63 -2.5t-67 -2.5zM335 697q-9 0 -19 7t-19 17l-74 86q-6 8 -5 13q1 12 17 12q7 0 25.5 -9.5t38.5 -22.5t31 -23
q6 -4 13 -3.5t14 3.5q12 5 34.5 14t47 18t43.5 15.5t25 6.5q15 0 15 -11q0 -7 -8 -14l-129 -85q-18 -12 -29 -18t-21 -6z" />
    <glyph glyph-name="uni01D1" unicode="&#x1d1;" horiz-adv-x="693" 
d="M300 -14q-75 0 -126 34.5t-77 93t-26 129.5q0 75 27.5 149.5t79.5 136t125.5 98.5t165.5 37q74 0 125.5 -34.5t77.5 -92.5t26 -130q0 -75 -27.5 -149.5t-80 -136t-126 -98.5t-164.5 -37zM302 19q50 0 94.5 27t81 72.5t62.5 102.5t40 117t14 115q0 46 -13 87.5t-41.5 67.5
t-73.5 26q-49 0 -93 -27.5t-80 -73.5t-62.5 -103t-41 -117.5t-14.5 -115.5q0 -46 12.5 -86.5t40.5 -66t74 -25.5zM498 697q-9 0 -19 7t-19 17l-74 86q-6 8 -5 13q1 12 17 12q7 0 25.5 -9.5t38.5 -22.5t31 -23q6 -4 13 -3.5t14 3.5q12 5 34.5 14t47 18t43.5 15.5t25 6.5
q15 0 15 -11q0 -7 -8 -14l-129 -85q-18 -12 -29 -18t-21 -6z" />
    <glyph glyph-name="uni01D3" unicode="&#x1d3;" horiz-adv-x="704" 
d="M306 -14q-54 0 -97.5 17t-71.5 50t-34.5 83t14.5 116l89 292q10 33 2.5 52t-24.5 23q-29 9 -28 22q0 7 12 10t24 3q24 0 49.5 -2t52.5 -2q24 0 50.5 1.5t45.5 1.5q25 0 23 -13q-2 -8 -14 -12.5t-29 -10.5q-17 -5 -35 -24.5t-30 -58.5l-90 -296q-20 -67 -6.5 -111.5
t49 -66.5t82.5 -22q66 0 114 32.5t80 84.5t50 111q12 40 24.5 79t22.5 71t15 50q18 59 19.5 89.5t-9.5 44t-33 20.5q-9 3 -19 7.5t-9 12.5q0 6 9.5 9t21.5 3q18 0 35.5 -0.5l35 -1t31.5 -0.5q16 0 29 1t25.5 2t25.5 1q12 0 18 -3t5 -10q-2 -12 -37 -20q-18 -5 -31.5 -13
t-25.5 -29t-28 -65q-22 -60 -43 -125t-46 -134q-27 -78 -66.5 -139t-99 -95.5t-148.5 -34.5zM520 697q-9 0 -19 7t-19 17l-74 86q-6 8 -5 13q1 12 17 12q7 0 25.5 -9.5t38.5 -22.5t31 -23q6 -4 13 -3.5t14 3.5q12 5 34.5 14t47 18t43.5 15.5t25 6.5q15 0 15 -11q0 -7 -8 -14
l-129 -85q-18 -12 -29 -18t-21 -6z" />
    <glyph glyph-name="uni01D5" unicode="&#x1d5;" horiz-adv-x="704" 
d="M306 -14q-54 0 -97.5 17t-71.5 50t-34.5 83t14.5 116l89 292q10 33 2.5 52t-24.5 23q-29 9 -28 22q0 7 12 10t24 3q24 0 49.5 -2t52.5 -2q24 0 50.5 1.5t45.5 1.5q25 0 23 -13q-2 -8 -14 -12.5t-29 -10.5q-17 -5 -35 -24.5t-30 -58.5l-90 -296q-20 -67 -6.5 -111.5
t49 -66.5t82.5 -22q66 0 114 32.5t80 84.5t50 111q12 40 24.5 79t22.5 71t15 50q18 59 19.5 89.5t-9.5 44t-33 20.5q-9 3 -19 7.5t-9 12.5q0 6 9.5 9t21.5 3q18 0 35.5 -0.5l35 -1t31.5 -0.5q16 0 29 1t25.5 2t25.5 1q12 0 18 -3t5 -10q-2 -12 -37 -20q-18 -5 -31.5 -13
t-25.5 -29t-28 -65q-22 -60 -43 -125t-46 -134q-27 -78 -66.5 -139t-99 -95.5t-148.5 -34.5zM622 696q-19 0 -31.5 14t-12.5 31q0 29 20 49.5t50 20.5q20 0 32 -15t12 -34q0 -18 -10 -33t-25.5 -24t-34.5 -9zM422 696q-19 0 -32 14t-13 31q0 29 20.5 49.5t50.5 20.5
q19 0 31 -15t12 -34q0 -26 -20.5 -46t-48.5 -20zM438 850q-7 0 -11.5 4.5t-4.5 9.5q0 14 7 30t21 16h255q6 0 10.5 -4t4.5 -10q0 -19 -10.5 -32.5t-24.5 -13.5h-247z" />
    <glyph glyph-name="uni01D7" unicode="&#x1d7;" horiz-adv-x="733" 
d="M306 -14q-54 0 -97.5 17t-71.5 50t-34.5 83t14.5 116l89 292q10 33 2.5 52t-24.5 23q-29 9 -28 22q0 7 12 10t24 3q24 0 49.5 -2t52.5 -2q24 0 50.5 1.5t45.5 1.5q25 0 23 -13q-2 -8 -14 -12.5t-29 -10.5q-17 -5 -35 -24.5t-30 -58.5l-90 -296q-20 -67 -6.5 -111.5
t49 -66.5t82.5 -22q66 0 114 32.5t80 84.5t50 111q12 40 24.5 79t22.5 71t15 50q18 59 19.5 89.5t-9.5 44t-33 20.5q-9 3 -19 7.5t-9 12.5q0 6 9.5 9t21.5 3q18 0 35.5 -0.5l35 -1t31.5 -0.5q16 0 29 1t25.5 2t25.5 1q12 0 18 -3t5 -10q-2 -12 -37 -20q-18 -5 -31.5 -13
t-25.5 -29t-28 -65q-22 -60 -43 -125t-46 -134q-27 -78 -66.5 -139t-99 -95.5t-148.5 -34.5zM622 696q-19 0 -31.5 14t-12.5 31q0 29 20 49.5t50 20.5q20 0 32 -15t12 -34q0 -18 -10 -33t-25.5 -24t-34.5 -9zM422 696q-19 0 -32 14t-13 31q0 29 20.5 49.5t50.5 20.5
q19 0 31 -15t12 -34q0 -26 -20.5 -46t-48.5 -20zM525 829q-6 0 -13 -0.5t-12 1.5q-3 1 -5.5 4t1.5 9q9 8 22.5 18t24.5 18q6 5 21 15t33 21.5t35 20.5t27 13q8 1 14 -2.5t10 -7.5l6 -6q9 -1 15 -9t9 -17.5t1 -14.5q-13 -5 -26 -11t-27 -9q-7 -4 -24 -10t-38.5 -12.5t-41 -12
t-32.5 -8.5z" />
    <glyph glyph-name="uni01D9" unicode="&#x1d9;" horiz-adv-x="704" 
d="M306 -14q-54 0 -97.5 17t-71.5 50t-34.5 83t14.5 116l89 292q10 33 2.5 52t-24.5 23q-29 9 -28 22q0 7 12 10t24 3q24 0 49.5 -2t52.5 -2q24 0 50.5 1.5t45.5 1.5q25 0 23 -13q-2 -8 -14 -12.5t-29 -10.5q-17 -5 -35 -24.5t-30 -58.5l-90 -296q-20 -67 -6.5 -111.5
t49 -66.5t82.5 -22q66 0 114 32.5t80 84.5t50 111q12 40 24.5 79t22.5 71t15 50q18 59 19.5 89.5t-9.5 44t-33 20.5q-9 3 -19 7.5t-9 12.5q0 6 9.5 9t21.5 3q18 0 35.5 -0.5l35 -1t31.5 -0.5q16 0 29 1t25.5 2t25.5 1q12 0 18 -3t5 -10q-2 -12 -37 -20q-18 -5 -31.5 -13
t-25.5 -29t-28 -65q-22 -60 -43 -125t-46 -134q-27 -78 -66.5 -139t-99 -95.5t-148.5 -34.5zM622 696q-19 0 -31.5 14t-12.5 31q0 29 20 49.5t50 20.5q20 0 32 -15t12 -34q0 -18 -10 -33t-25.5 -24t-34.5 -9zM422 696q-19 0 -32 14t-13 31q0 29 20.5 49.5t50.5 20.5
q19 0 31 -15t12 -34q0 -26 -20.5 -46t-48.5 -20zM539 812q-9 0 -19 7t-19 17l-74 86q-6 8 -5 13q1 12 17 12q7 0 25.5 -9.5t38.5 -22.5t31 -23q6 -4 13 -3.5t14 3.5q12 5 34.5 14t47 18t43.5 15.5t25 6.5q15 0 15 -11q0 -7 -8 -14l-129 -85q-18 -12 -29 -18t-21 -6z" />
    <glyph glyph-name="uni01DB" unicode="&#x1db;" horiz-adv-x="671" 
d="M567 828q-12 3 -32 8.5t-41 12t-38.5 12.5t-23.5 10q-15 3 -28 9t-26 11q-1 5 2 14.5t9 17.5t14 9q3 2 7 6t10 7.5t13 2.5q10 -4 27 -13t35.5 -20.5t33.5 -21.5t20 -15q12 -8 25.5 -18t22.5 -18q3 -6 1 -9t-6 -4q-5 -2 -11.5 -1.5t-13.5 0.5zM306 -14q-54 0 -97.5 17
t-71.5 50t-34.5 83t14.5 116l89 292q10 33 2.5 52t-24.5 23q-29 9 -28 22q0 7 12 10t24 3q24 0 49.5 -2t52.5 -2q24 0 50.5 1.5t45.5 1.5q25 0 23 -13q-2 -8 -14 -12.5t-29 -10.5q-17 -5 -35 -24.5t-30 -58.5l-90 -296q-20 -67 -6.5 -111.5t49 -66.5t82.5 -22q66 0 114 32.5
t80 84.5t50 111q12 40 24.5 79t22.5 71t15 50q18 59 19.5 89.5t-9.5 44t-33 20.5q-9 3 -19 7.5t-9 12.5q0 6 9.5 9t21.5 3q18 0 35.5 -0.5l35 -1t31.5 -0.5q16 0 29 1t25.5 2t25.5 1q12 0 18 -3t5 -10q-2 -12 -37 -20q-18 -5 -31.5 -13t-25.5 -29t-28 -65q-22 -60 -43 -125
t-46 -134q-27 -78 -66.5 -139t-99 -95.5t-148.5 -34.5zM622 696q-19 0 -32 14t-13 31q0 29 20 49.5t51 20.5q19 0 31.5 -15t12.5 -34q0 -18 -10 -33t-25.5 -24t-34.5 -9zM422 696q-19 0 -32 14t-13 31q0 29 20 49.5t51 20.5q19 0 31 -15t12 -34q0 -26 -20.5 -46t-48.5 -20z
" />
    <glyph glyph-name="uni01DE" unicode="&#x1de;" horiz-adv-x="689" 
d="M-39 -5q-11 0 -16.5 3t-6.5 11q0 9 9 13.5t23 7.5q25 7 49 17.5t45.5 25t37.5 32.5q71 79 133 154t121 149.5t120 149.5q14 17 24 32t17 24t11 9q23 0 35.5 6t26.5 19q15 14 23.5 20.5t14.5 6.5q7 0 9 -10.5t-3 -31.5l-102 -514q-9 -43 1.5 -63t41.5 -28q15 -4 22.5 -7.5
t7.5 -11.5q0 -7 -8 -10t-23 -3t-38 1.5t-47.5 2.5t-46.5 1h-39.5t-42 -1t-34.5 -1q-21 0 -23 13q0 8 8 13.5t20 7.5q30 5 48 12.5t28.5 22t16.5 40.5l31 120q3 12 -4.5 18t-20.5 6l-126 -2q-14 0 -22.5 -4t-15.5 -14l-91 -119q-20 -26 -22.5 -42t7 -24t25.5 -13
q10 -3 17.5 -8.5t7.5 -13.5q0 -7 -8.5 -10t-20.5 -3q-19 0 -41.5 1t-49.5 1q-31 0 -67 -3t-62 -3zM336 288l112 1q10 0 15.5 5t8.5 18l48 219q2 10 2 15.5t-5 5.5q-3 0 -7.5 -2t-9.5 -9l-179 -232q-8 -10 -8 -15.5t23 -5.5zM721 696q-19 0 -31.5 14t-12.5 31q0 29 20 49.5
t50 20.5q20 0 32 -15t12 -34q0 -18 -10 -33t-25.5 -24t-34.5 -9zM521 696q-19 0 -32 14t-13 31q0 29 20.5 49.5t50.5 20.5q19 0 31 -15t12 -34q0 -26 -20.5 -46t-48.5 -20zM534 848q-7 0 -11.5 4.5t-4.5 9.5q0 14 7 30t21 16h255q6 0 10.5 -4t4.5 -10q0 -19 -10.5 -32.5
t-24.5 -13.5h-247z" />
    <glyph glyph-name="uni01E0" unicode="&#x1e0;" horiz-adv-x="689" 
d="M-39 -5q-11 0 -16.5 3t-6.5 11q0 9 9 13.5t23 7.5q25 7 49 17.5t45.5 25t37.5 32.5q71 79 133 154t121 149.5t120 149.5q14 17 24 32t17 24t11 9q23 0 35.5 6t26.5 19q15 14 23.5 20.5t14.5 6.5q7 0 9 -10.5t-3 -31.5l-102 -514q-9 -43 1.5 -63t41.5 -28q15 -4 22.5 -7.5
t7.5 -11.5q0 -7 -8 -10t-23 -3t-38 1.5t-47.5 2.5t-46.5 1h-39.5t-42 -1t-34.5 -1q-21 0 -23 13q0 8 8 13.5t20 7.5q30 5 48 12.5t28.5 22t16.5 40.5l31 120q3 12 -4.5 18t-20.5 6l-126 -2q-14 0 -22.5 -4t-15.5 -14l-91 -119q-20 -26 -22.5 -42t7 -24t25.5 -13
q10 -3 17.5 -8.5t7.5 -13.5q0 -7 -8.5 -10t-20.5 -3q-19 0 -41.5 1t-49.5 1q-31 0 -67 -3t-62 -3zM336 288l112 1q10 0 15.5 5t8.5 18l48 219q2 10 2 15.5t-5 5.5q-3 0 -7.5 -2t-9.5 -9l-179 -232q-8 -10 -8 -15.5t23 -5.5zM628 698q-21 0 -35 14.5t-14 33.5q0 30 22 52.5
t55 22.5q22 0 35 -16.5t13 -36.5q0 -19 -10.5 -35t-28 -25.5t-37.5 -9.5zM551 852q-7 0 -11.5 4.5t-4.5 9.5q0 14 7 30t21 16h255q6 0 10.5 -4t4.5 -10q0 -19 -10.5 -32.5t-24.5 -13.5h-247z" />
    <glyph glyph-name="uni01E4" unicode="&#x1e4;" horiz-adv-x="731" 
d="M349 133q-9 0 -13 8t-4 14q0 9 7.5 15.5t17.5 6.5h300q6 0 11 -4t5 -10q0 -1 -0.5 -1.5t-0.5 -1.5q-4 -11 -12.5 -19t-21.5 -8h-289zM371 -14q-67 0 -124 19.5t-97.5 57.5t-59.5 94t-12 129q6 79 41 147.5t93.5 120t136 80.5t167.5 29q33 0 57.5 -6t42.5 -13
q16 -6 28.5 -10t24.5 -4q5 0 11 2t12 6q6 3 12 5.5t11 2.5q10 0 11 -6.5t-3 -11.5q-12 -16 -26 -42t-26 -54.5t-17 -52.5q-3 -10 -8 -16.5t-12 -6.5q-21 0 -16 34q3 25 0 49.5t-18 44.5q-13 18 -38 33t-61 15q-61 0 -115.5 -30t-97 -82.5t-70 -121.5t-34.5 -147
q-5 -53 9.5 -96t43.5 -74t66.5 -47.5t77.5 -16.5q43 0 69.5 25t36.5 59l29 110q5 16 1 25.5t-18 13.5q-13 5 -26.5 8t-23.5 5q-9 2 -18.5 5.5t-8.5 11.5q1 7 10 11t20 4q23 0 44.5 -2t42.5 -3.5t43 -1.5q26 0 47.5 3.5t53.5 3.5q20 0 18 -15q-1 -6 -8.5 -11.5t-21.5 -8.5
q-25 -5 -38 -15t-23 -30q-8 -18 -17 -42t-14.5 -45t-5.5 -29q0 -9 3.5 -16.5t10.5 -17.5q-6 -15 -30.5 -29.5t-58 -25.5t-67.5 -17.5t-60 -6.5z" />
    <glyph glyph-name="uni01E8" unicode="&#x1e8;" horiz-adv-x="721" 
d="M-2 -5q-11 0 -17.5 3t-6.5 10q2 13 35 19q38 7 56 22.5t28 50.5l139 451q11 34 1.5 48t-43.5 22q-13 3 -17.5 7.5t-4.5 10.5q0 7 9.5 11t22.5 4q23 0 41 -1t35 -1.5t37 -0.5q19 0 34.5 0.5t33.5 1t42 0.5q21 0 21 -11q0 -8 -9.5 -13t-24.5 -8q-26 -5 -40 -12t-21.5 -20
t-14.5 -38l-56 -188q-2 -7 1 -10t11 -3q17 0 35 10.5t39 30.5l193 170q12 11 20.5 20.5t9.5 16.5q1 6 -6 11t-20 9q-11 3 -17 7.5t-6 12.5q0 7 10.5 10t22.5 3h58q44 0 87.5 2t80.5 2q19 0 19 -12q0 -8 -11 -13t-26 -8q-42 -6 -82.5 -21t-78.5 -43q-40 -30 -76.5 -60
t-73.5 -63t-78 -71q-6 -6 -6.5 -11t2.5 -11q56 -105 98 -167.5t75 -96.5q22 -22 43.5 -32t45.5 -18q14 -4 21 -8t7 -12q0 -6 -9 -9.5t-23 -3.5q-28 0 -49 1.5t-45.5 2.5t-64.5 1h-26t-25.5 -0.5t-34.5 -0.5q-11 0 -17 3t-6 9q0 8 8 12t22 7q19 5 25.5 11t4 15.5t-11.5 23.5
l-123 219q-6 13 -17 18t-15 5q-5 0 -7 -6t-4 -11l-57 -198q-10 -39 -1.5 -55.5t41.5 -24.5q13 -3 18.5 -7t5.5 -11t-10 -10.5t-22 -3.5q-27 0 -43.5 2t-31.5 4t-34 2q-33 0 -58.5 -4t-67.5 -4zM496 697q-9 0 -19 7t-19 17l-74 86q-6 8 -5 13q1 12 17 12q7 0 25.5 -9.5
t38.5 -22.5t31 -23q6 -4 13 -3.5t14 3.5q12 5 34.5 14t47 18t43.5 15.5t25 6.5q15 0 15 -11q0 -7 -8 -14l-129 -85q-18 -12 -29 -18t-21 -6z" />
    <glyph glyph-name="uni01EA" unicode="&#x1ea;" horiz-adv-x="707" 
d="M320 -286q-17 0 -31 10.5t-22.5 28t-8.5 35.5q0 39 17 73t45 62.5t61 52t66 42.5l7 -4q-33 -13 -70 -20.5t-77 -7.5q-77 0 -129.5 34.5t-79.5 93t-27 129.5q0 75 28 149.5t81.5 136t128 98.5t167.5 37q77 0 129.5 -34.5t79.5 -92.5t27 -130q0 -67 -22.5 -134
t-64.5 -124.5t-100 -95.5q-59 -42 -99.5 -79.5t-61 -74.5t-20.5 -80q0 -13 8 -23.5t26 -10.5q15 0 33 13.5t28 25.5q2 2 6.5 6t9.5 5.5t6 -6.5q2 -1 -0.5 -8t-3.5 -11q-10 -18 -24 -35t-32 -30.5t-38.5 -22t-42.5 -8.5zM312 27q52 0 97 26.5t81.5 70.5t62.5 99.5t40.5 115
t14.5 114.5q0 46 -15 85t-45.5 62.5t-77.5 23.5q-49 0 -94 -26.5t-81.5 -71t-63.5 -100t-41.5 -115t-14.5 -114.5q0 -46 14.5 -84.5t45.5 -62t77 -23.5z" />
    <glyph glyph-name="uni01EC" unicode="&#x1ec;" horiz-adv-x="707" 
d="M320 -286q-17 0 -31 10.5t-22.5 28t-8.5 35.5q0 39 17 73t45 62.5t61 52t66 42.5l7 -4q-33 -13 -70 -20.5t-77 -7.5q-77 0 -129.5 34.5t-79.5 93t-27 129.5q0 75 28 149.5t81.5 136t128 98.5t167.5 37q77 0 129.5 -34.5t79.5 -92.5t27 -130q0 -67 -22.5 -134
t-64.5 -124.5t-100 -95.5q-59 -42 -99.5 -79.5t-61 -74.5t-20.5 -80q0 -13 8 -23.5t26 -10.5q15 0 33 13.5t28 25.5q2 2 6.5 6t9.5 5.5t6 -6.5q2 -1 -0.5 -8t-3.5 -11q-10 -18 -24 -35t-32 -30.5t-38.5 -22t-42.5 -8.5zM312 27q52 0 97 26.5t81.5 70.5t62.5 99.5t40.5 115
t14.5 114.5q0 46 -15 85t-45.5 62.5t-77.5 23.5q-49 0 -94 -26.5t-81.5 -71t-63.5 -100t-41.5 -115t-14.5 -114.5q0 -46 14.5 -84.5t45.5 -62t77 -23.5zM394 721q-7 0 -11.5 4.5t-4.5 9.5q0 14 7 30t21 16h255q6 0 10.5 -4t4.5 -10q0 -19 -10.5 -32.5t-24.5 -13.5h-247z" />
    <glyph glyph-name="uni01EE" unicode="&#x1ee;" horiz-adv-x="556" 
d="M195 -14q-44 0 -87 10.5t-71 26t-28 31.5t5.5 52.5t18.5 74.5q4 11 7.5 17t11.5 6t10 -8.5t2 -24.5q0 -72 34.5 -111.5t100.5 -39.5q46 0 82 17.5t61.5 46t39.5 62.5t14 67q1 36 -12.5 65t-40 46.5t-64.5 17.5q-10 0 -18 -1.5t-15 -3.5q-9 -2 -16.5 -5t-14.5 -3
q-10 0 -15 4t-5 13q0 8 3.5 14.5t15.5 17.5l239 220q6 6 3.5 10.5t-11.5 4.5h-149q-28 0 -55.5 -20.5t-55.5 -63.5q-6 -9 -14.5 -19t-17.5 -10q-8 0 -10.5 8t-1.5 13t4.5 14t8.5 18q8 15 12.5 29.5t9.5 30.5t12 37q3 13 12 16.5t15 3.5q8 0 17.5 -4t22.5 -9q11 -4 23.5 -6.5
t29.5 -2.5h175h37.5t23.5 0.5t22 1t33 0.5q5 0 7.5 -8t-3.5 -13l-263 -231q-12 -11 -15 -19t4 -7q10 2 19.5 3t18.5 1q47 0 78 -21t47.5 -55t16.5 -74q0 -43 -19.5 -85t-58.5 -77t-97.5 -56.5t-138.5 -21.5zM411 697q-9 0 -19 7t-19 17l-74 86q-6 8 -5 13q1 12 17 12
q7 0 25.5 -9.5t38.5 -22.5t31 -23q6 -4 13 -3.5t14 3.5q12 5 34.5 14t47 18t43.5 15.5t25 6.5q15 0 15 -11q0 -7 -8 -14l-129 -85q-18 -12 -29 -18t-21 -6z" />
    <glyph glyph-name="uni01F1" unicode="&#x1f1;" horiz-adv-x="1382" 
d="M313 -7q-18 0 -53 2.5t-73 4t-68 1.5q-19 0 -37 -1t-38 -2.5t-44 -1.5q-10 0 -15.5 2.5t-5.5 9.5q2 16 34 19q30 2 46.5 10t25.5 23.5t17 37.5l147 459q8 24 -2.5 35.5t-30 17.5t-42.5 11q-13 3 -17 8t-3 12q0 7 8.5 10t19.5 3q38 0 73.5 -2.5t66.5 -2.5q20 0 36.5 1.5
t35 3t44.5 1.5q94 0 162.5 -33t106 -94.5t37.5 -148.5q0 -77 -32 -146t-90 -123.5t-137 -85.5t-172 -31zM316 25q68 0 125.5 31.5t100.5 85t67 120t24 135.5q0 78 -23.5 127t-67 72.5t-102.5 23.5q-36 0 -52.5 -5t-23 -16t-12.5 -28l-135 -436q-13 -41 -3 -65t37 -34.5
t65 -10.5zM1247 -5q-26 0 -65 0.5t-83.5 1.5t-89.5 2t-83 1q-28 0 -64.5 -1t-72.5 -2t-64 -1q-6 0 -5 9t2 10q6 9 19.5 25t30.5 35t32 34q64 66 119.5 126t108.5 118.5t109.5 119t120.5 126.5q4 5 5.5 11t-14.5 6q-14 1 -39.5 0.5t-56 -2t-59 -3t-48.5 -3.5
q-27 -3 -63.5 -23.5t-66.5 -65.5q-8 -11 -15.5 -19t-16.5 -8q-7 0 -9.5 5.5t-2.5 12.5q1 4 3 11t6 15q11 23 23.5 49.5t20.5 45.5q5 14 12 20.5t18 6.5q18 0 46.5 -4.5t60.5 -5.5q34 -1 72.5 -1h69.5q36 0 70.5 1t68 1.5t64.5 1.5q6 0 10.5 -10t1.5 -13l-84 -88
q-62 -64 -117 -121t-107 -112t-105 -113.5t-112 -125.5q-23 -26 6 -29q19 -1 47 -2.5t60 -0.5q24 0 54.5 1.5t60 5t50.5 8.5q44 9 82 33.5t67 69.5q5 6 10 11.5t11 5.5q8 0 9.5 -5.5t0.5 -12.5q-1 -10 -10.5 -28t-22 -39.5t-24.5 -41t-20 -31.5q-4 -7 -11.5 -12.5
t-20.5 -5.5z" />
    <glyph glyph-name="uni01F2" unicode="&#x1f2;" horiz-adv-x="1175" 
d="M313 -7q-18 0 -53 2.5t-73 4t-68 1.5q-19 0 -37 -1t-38 -2.5t-44 -1.5q-10 0 -15.5 2.5t-5.5 9.5q2 16 34 19q30 2 46.5 10t25.5 23.5t17 37.5l147 459q8 24 -2.5 35.5t-30 17.5t-42.5 11q-13 3 -17 8t-3 12q0 7 8.5 10t19.5 3q38 0 73.5 -2.5t66.5 -2.5q20 0 36.5 1.5
t35 3t44.5 1.5q94 0 162.5 -33t106 -94.5t37.5 -148.5q0 -77 -32 -146t-90 -123.5t-137 -85.5t-172 -31zM316 25q68 0 125.5 31.5t100.5 85t67 120t24 135.5q0 78 -23.5 127t-67 72.5t-102.5 23.5q-36 0 -52.5 -5t-23 -16t-12.5 -28l-135 -436q-13 -41 -3 -65t37 -34.5
t65 -10.5zM987 -34q-27 0 -49.5 15.5t-41.5 33.5q-17 14 -31.5 26t-26.5 12q-29 0 -45 -18t-16 -41q0 -10 -5.5 -12t-9.5 -2q-5 0 -10.5 9t-6.5 19q-1 11 4.5 25.5t20.5 27.5l290 271l28 4q-12 -14 -26 -21t-28 -7q-17 0 -33.5 8.5t-33.5 19.5q-18 11 -37 19.5t-39 8.5
q-17 0 -29.5 -15t-12.5 -30q0 -10 2.5 -20t7.5 -19q7 -10 0 -18q-7 -7 -22.5 -14.5t-20.5 -7.5q-6 0 -14.5 10t-8.5 28q0 30 14 50t40 43q13 11 32 22.5t38 19.5t31 8q19 0 35.5 -5.5t35.5 -11.5q18 -7 35.5 -13t32.5 -6q16 0 25 5t21 16q5 5 14 11.5t17 6.5q3 0 7.5 -4
t4.5 -9q0 -7 -10 -21.5t-24 -28.5l-288 -277l-19 8q13 11 23 16t23 5q23 0 43 -13t39 -30q18 -14 35.5 -27t35.5 -13q19 0 28 13t12.5 33t3.5 41q0 18 2.5 26.5t11.5 8.5q12 0 24 -13.5t12 -39.5q0 -21 -16 -44t-40 -43t-47 -33t-38 -13z" />
    <glyph glyph-name="uni01F4" unicode="&#x1f4;" horiz-adv-x="701" 
d="M371 -14q-67 0 -124 19.5t-97.5 57.5t-59.5 94t-12 129q6 79 41 147.5t93.5 120t136 80.5t167.5 29q33 0 57.5 -6t42.5 -13q16 -6 28.5 -10t24.5 -4q5 0 11 2t12 6q6 3 12 5.5t11 2.5q10 0 11 -6.5t-3 -11.5q-12 -16 -26 -42t-26 -54.5t-17 -52.5q-3 -10 -8 -16.5
t-12 -6.5q-21 0 -16 34q3 25 0 49.5t-18 44.5q-13 18 -38 33t-61 15q-61 0 -115.5 -30t-97 -82.5t-70 -121.5t-34.5 -147q-5 -53 9.5 -96t43.5 -74t66.5 -47.5t77.5 -16.5q43 0 69.5 25t36.5 59l29 110q5 16 1 25.5t-18 13.5q-13 5 -26.5 8t-23.5 5q-9 2 -18.5 5.5
t-8.5 11.5q1 7 10 11t20 4q23 0 44.5 -2t42.5 -3.5t43 -1.5q26 0 47.5 3.5t53.5 3.5q20 0 18 -15q-1 -6 -8.5 -11.5t-21.5 -8.5q-25 -5 -38 -15t-23 -30q-8 -18 -17 -42t-14.5 -45t-5.5 -29q0 -9 3.5 -16.5t10.5 -17.5q-6 -15 -30.5 -29.5t-58 -25.5t-67.5 -17.5t-60 -6.5z
M480 692q-7 0 -8 7q0 7 6 17q20 32 40.5 63t42.5 62q10 13 29 13q8 0 23.5 -3.5t28 -9t12.5 -13.5t-14 -20q-32 -27 -69.5 -54.5t-69.5 -51.5q-8 -6 -13 -8t-8 -2z" />
    <glyph glyph-name="uni01F6" unicode="&#x1f6;" horiz-adv-x="946" 
d="M659 -14q-33 0 -63.5 11.5t-50.5 36.5t-24 66t15 100l29 91q2 6 3 11t-5 5h-303q-8 0 -12 -13l-60 -190q-10 -30 3 -49.5t45 -27.5q13 -3 17.5 -7t3.5 -12q0 -6 -8 -9t-19 -3q-24 0 -43.5 1.5t-38.5 2.5t-39 1t-38 -1t-36.5 -2.5t-41.5 -1.5q-11 0 -16 2.5t-5 9.5
q2 13 34 19q36 7 52 22t27 49l138 453q11 34 6.5 48t-37.5 22q-13 3 -17 8t-4 12q1 7 9.5 10t18.5 3q25 0 42 -1t32.5 -2t34.5 -1t36.5 0.5t36.5 1.5t43 1q22 0 20 -12q-1 -8 -9.5 -12.5t-24.5 -7.5q-25 -5 -42 -14t-27 -22.5t-16 -33.5l-59 -193q-3 -10 10 -10h296
q8 0 12 12l59 191q9 28 1 44.5t-42 25.5q-12 3 -16.5 7.5t-3.5 12.5q0 7 8.5 9.5t18.5 2.5q24 0 43.5 -1t38 -1.5t38.5 -0.5q18 0 32 1t30.5 2t40.5 1q10 0 16 -3t5 -10q-2 -14 -34 -20q-37 -8 -50 -23.5t-23 -45.5l-115 -373q-16 -53 -9 -85.5t25.5 -48t38.5 -15.5
q37 0 69.5 19t57.5 50.5t39 70t14 76.5q0 31 -10 59.5t-32 51.5q-4 4 -2 12q3 9 12.5 20t21.5 21t23.5 16.5t17.5 6.5q30 0 47.5 -24.5t16.5 -65.5q1 -42 -12 -90.5t-38.5 -95.5t-62.5 -85.5t-84.5 -62t-104.5 -23.5z" />
    <glyph glyph-name="uni01F7" unicode="&#x1f7;" horiz-adv-x="609" 
d="M-65 -180q-11 0 -17.5 3t-4.5 9q5 13 35 19q40 7 63.5 22t33.5 50l194 627q10 29 4.5 46t-41.5 25q-27 5 -23 20q2 7 10.5 10t19.5 3q25 0 38 -1t22 -2t23 -1q13 0 20.5 0.5t18.5 1.5t34 1q13 0 14.5 -3t-0.5 -9q-4 -14 -7.5 -20t-6.5 -11.5t-7 -18.5l-5 -17
q-2 -7 -3 -15.5t3 -4.5q45 47 98 78t113 31q65 0 97 -32.5t33 -83.5q0 -49 -27.5 -105t-82.5 -115.5t-138.5 -116t-195.5 -105.5q-24 -11 -39 -24.5t-23 -39.5l-37 -120q-9 -30 4.5 -46t49.5 -24q13 -3 19 -7t3 -12q-4 -12 -28 -12q-25 0 -45.5 1.5t-40 2.5t-41.5 1
q-35 0 -66.5 -2.5t-70.5 -2.5zM251 147q80 41 140.5 86.5t100.5 93.5t60.5 98t20.5 98q0 30 -19.5 53t-59.5 23q-29 0 -58.5 -16.5t-55 -42t-44.5 -54.5t-26 -53l-82 -265q-9 -28 -3 -30t26 9z" />
    <glyph glyph-name="uni01F8" unicode="&#x1f8;" horiz-adv-x="774" 
d="M12 -4q-10 0 -16.5 2.5t-5.5 9.5t8 11t22 8q42 10 61 28.5t28 45.5l143 420q11 32 10 54t-18 34t-55 15q-16 2 -26 6.5t-10 12.5q0 9 10.5 12t16.5 3q26 0 52 -1t51 -2.5t46 -1.5q10 0 17.5 -5t11.5 -13l218 -468q2 -4 7.5 -10.5t9.5 -6.5q6 0 13 18q4 10 12.5 35.5
t19.5 61t22.5 75.5t22.5 77t19 66.5t11 44.5q10 45 -9 64.5t-69 27.5q-24 4 -24 18q0 6 10.5 9.5t20.5 3.5q31 0 58 -2.5t51 -2.5q20 0 36 2t35.5 3.5t46.5 1.5q22 0 22 -12q0 -7 -10.5 -12.5t-25.5 -7.5q-25 -3 -40 -9.5t-25.5 -23t-22.5 -47.5q-3 -11 -13 -40t-24 -70
t-29 -87t-29.5 -89t-25.5 -77.5t-16 -51.5q-6 -20 -4.5 -32t9.5 -27q5 -12 13.5 -19.5t16.5 -14.5q8 -6 13.5 -11t5.5 -13q0 -6 -3.5 -7.5t-8.5 -1.5q-21 0 -37 -1.5t-28 -3t-24 -1.5q-20 0 -31 8t-20 28q-15 32 -32.5 72t-36.5 85t-39 90.5t-39 88t-35.5 79t-31.5 62.5
q-4 8 -9.5 14t-9.5 6q-5 0 -11 -8.5t-10 -21.5q-11 -36 -26.5 -83.5t-31.5 -101.5t-31.5 -108.5t-27.5 -102.5q-7 -31 7.5 -48.5t53.5 -26.5q13 -3 20 -6.5t7 -11.5q-1 -6 -10 -9t-20 -3q-26 0 -41.5 1.5t-28 2t-28.5 0.5q-21 0 -39.5 -1t-35 -2t-34.5 -1zM572 696
q-2 0 -7.5 1.5t-13.5 6.5q-33 22 -72 47.5t-72 49.5q-14 11 -15 20q-1 7 11.5 13.5t27.5 11t22 4.5q19 2 30 -11q24 -30 45.5 -60t43.5 -59q8 -9 8 -17q0 -7 -8 -7z" />
    <glyph glyph-name="uni0200" unicode="&#x200;" horiz-adv-x="689" 
d="M554 692q-2 0 -7.5 2t-12.5 8q-32 24 -69.5 51.5t-69.5 54.5q-14 12 -15 20q0 8 13 13.5t28.5 9t22.5 3.5q19 0 29 -13q23 -31 43.5 -62t39.5 -63q7 -10 7 -17q-1 -7 -9 -7zM706 692q-3 0 -8 2t-13 8q-31 24 -69 51.5t-70 54.5q-14 12 -14 20t13 13.5t28.5 9t22.5 3.5
q19 0 29 -13q22 -31 42.5 -62t40.5 -63q6 -10 6 -17t-8 -7zM-39 -5q-11 0 -16.5 3t-6.5 11q0 9 9 13.5t23 7.5q25 7 49 17.5t45.5 25t37.5 32.5q71 79 133 154t121 149.5t120 149.5q14 17 24 32t17 24t11 9q23 0 35.5 6t26.5 19q15 14 23.5 20.5t14.5 6.5q7 0 9 -10.5
t-3 -31.5l-102 -514q-9 -43 1.5 -63t41.5 -28q15 -4 22.5 -7.5t7.5 -11.5q0 -7 -8 -10t-23 -3t-38 1.5t-47.5 2.5t-46.5 1h-39.5t-42 -1t-34.5 -1q-21 0 -23 13q0 8 8 13.5t20 7.5q30 5 48 12.5t28.5 22t16.5 40.5l31 120q3 12 -4.5 18t-20.5 6l-126 -2q-14 0 -22.5 -4
t-15.5 -14l-91 -119q-20 -26 -22.5 -42t7 -24t25.5 -13q10 -3 17.5 -8.5t7.5 -13.5q0 -7 -8.5 -10t-20.5 -3q-19 0 -41.5 1t-49.5 1q-31 0 -67 -3t-62 -3zM336 288l112 1q10 0 15.5 5t8.5 18l48 219q2 10 2 15.5t-5 5.5q-3 0 -7.5 -2t-9.5 -9l-179 -232q-8 -10 -8 -15.5
t23 -5.5z" />
    <glyph glyph-name="uni0202" unicode="&#x202;" horiz-adv-x="689" 
d="M647 827q43 0 68.5 -14t37 -33.5t11.5 -39.5q0 -15 -5 -27t-18 -12q-7 0 -9.5 7t-5.5 14q-7 22 -28 32.5t-54 10.5q-29 0 -56 -8t-49 -38q-6 -8 -12 -13t-14 -5q-12 0 -12 20q0 10 7.5 27.5t24.5 35.5t45 30.5t69 12.5zM-39 -5q-11 0 -16.5 3t-6.5 11q0 9 9 13.5t23 7.5
q25 7 49 17.5t45.5 25t37.5 32.5q71 79 133 154t121 149.5t120 149.5q14 17 24 32t17 24t11 9q23 0 35.5 6t26.5 19q15 14 23.5 20.5t14.5 6.5q7 0 9 -10.5t-3 -31.5l-102 -514q-9 -43 1.5 -63t41.5 -28q15 -4 22.5 -7.5t7.5 -11.5q0 -7 -8 -10t-23 -3t-38 1.5t-47.5 2.5
t-46.5 1h-39.5t-42 -1t-34.5 -1q-21 0 -23 13q0 8 8 13.5t20 7.5q30 5 48 12.5t28.5 22t16.5 40.5l31 120q3 12 -4.5 18t-20.5 6l-126 -2q-14 0 -22.5 -4t-15.5 -14l-91 -119q-20 -26 -22.5 -42t7 -24t25.5 -13q10 -3 17.5 -8.5t7.5 -13.5q0 -7 -8.5 -10t-20.5 -3
q-19 0 -41.5 1t-49.5 1q-31 0 -67 -3t-62 -3zM336 288l112 1q10 0 15.5 5t8.5 18l48 219q2 10 2 15.5t-5 5.5q-3 0 -7.5 -2t-9.5 -9l-179 -232q-8 -10 -8 -15.5t23 -5.5z" />
    <glyph glyph-name="uni0204" unicode="&#x204;" horiz-adv-x="575" 
d="M358 692q-2 0 -7.5 2t-12.5 8q-32 24 -70 51.5t-69 54.5q-14 12 -15 20q0 8 13 13.5t28.5 9t22.5 3.5q19 0 29 -13q23 -31 43.5 -62t39.5 -63q7 -10 6 -17q0 -7 -8 -7zM510 692q-3 0 -8 2t-13 8q-32 24 -69.5 51.5t-69.5 54.5q-14 12 -14 20t13 13.5t28 9t23 3.5
q19 0 29 -13q22 -31 42.5 -62t40.5 -63q6 -10 6 -17q-1 -7 -8 -7zM-19 -5q-11 0 -16 3t-5 9q1 13 33 19q46 9 66.5 24t30.5 48l138 452q13 39 1 52.5t-52 20.5q-14 2 -19 6.5t-5 11.5q1 6 10.5 9.5t24.5 3.5q10 0 31 -1.5t46 -2t46 -0.5h162q51 0 79.5 3t41 5.5t15.5 2.5
q5 0 9.5 -5t4.5 -11q0 -8 -6.5 -25.5t-13 -41.5t-9.5 -51q-1 -10 -6.5 -14.5t-10.5 -4.5t-8.5 6t-3.5 17q0 49 -12 69t-51 20h-107q-24 0 -36 -9.5t-20 -35.5l-60 -195q-5 -17 -1.5 -23.5t18.5 -5.5l112 2q26 1 42.5 13t29.5 31q7 8 15 17.5t16 9.5t9 -7.5t-4 -18.5
q-9 -19 -16 -35.5t-12 -32.5q-6 -17 -11 -35t-10 -40q-2 -10 -5.5 -17t-8.5 -7q-8 0 -11.5 10t-3.5 17q1 31 -8.5 45t-26.5 14l-110 2q-15 0 -26 -5t-17 -24l-50 -179q-13 -47 -3.5 -64.5t43.5 -17.5h130q24 0 44 8t36 19q17 12 32 31.5t30 42.5q4 6 8 11t10 5q5 0 6.5 -6.5
t1.5 -14.5q0 -10 -7.5 -31t-17.5 -43.5t-20 -36.5q-5 -9 -12.5 -14t-18.5 -5q-30 0 -66 0.5t-73.5 1.5l-75 2t-73 1.5t-65.5 0.5q-23 0 -43.5 -1.5t-40.5 -3t-44 -1.5z" />
    <glyph glyph-name="uni0206" unicode="&#x206;" horiz-adv-x="575" 
d="M451 827q43 0 68.5 -14t37 -33.5t11.5 -39.5q0 -15 -5 -27t-18 -12q-7 0 -9.5 7t-5.5 14q-7 22 -28 32.5t-54 10.5q-29 0 -56 -8t-49 -38q-7 -8 -12.5 -13t-13.5 -5q-12 0 -12 20q0 10 7.5 27.5t24.5 35.5t45 30.5t69 12.5zM-19 -5q-11 0 -16 3t-5 9q1 13 33 19
q46 9 66.5 24t30.5 48l138 452q13 39 1 52.5t-52 20.5q-14 2 -19 6.5t-5 11.5q1 6 10.5 9.5t24.5 3.5q10 0 31 -1.5t46 -2t46 -0.5h162q51 0 79.5 3t41 5.5t15.5 2.5q5 0 9.5 -5t4.5 -11q0 -8 -6.5 -25.5t-13 -41.5t-9.5 -51q-1 -10 -6.5 -14.5t-10.5 -4.5t-8.5 6t-3.5 17
q0 49 -12 69t-51 20h-107q-24 0 -36 -9.5t-20 -35.5l-60 -195q-5 -17 -1.5 -23.5t18.5 -5.5l112 2q26 1 42.5 13t29.5 31q7 8 15 17.5t16 9.5t9 -7.5t-4 -18.5q-9 -19 -16 -35.5t-12 -32.5q-6 -17 -11 -35t-10 -40q-2 -10 -5.5 -17t-8.5 -7q-8 0 -11.5 10t-3.5 17
q1 31 -8.5 45t-26.5 14l-110 2q-15 0 -26 -5t-17 -24l-50 -179q-13 -47 -3.5 -64.5t43.5 -17.5h130q24 0 44 8t36 19q17 12 32 31.5t30 42.5q4 6 8 11t10 5q5 0 6.5 -6.5t1.5 -14.5q0 -10 -7.5 -31t-17.5 -43.5t-20 -36.5q-5 -9 -12.5 -14t-18.5 -5q-30 0 -66 0.5t-73.5 1.5
l-75 2t-73 1.5t-65.5 0.5q-23 0 -43.5 -1.5t-40.5 -3t-44 -1.5z" />
    <glyph glyph-name="uni0208" unicode="&#x208;" horiz-adv-x="368" 
d="M270 692q-2 0 -7.5 2t-13.5 8q-31 24 -69 51.5t-69 54.5q-15 12 -15 20t13 13.5t28.5 9t22.5 3.5q19 0 29 -13q22 -31 43 -62t40 -63q6 -10 6 -17t-8 -7zM421 692q-2 0 -7 2t-13 8q-32 24 -69.5 51.5t-69.5 54.5q-14 12 -14 20q-1 8 12 13.5t28.5 9t22.5 3.5q20 0 29 -13
q23 -31 43.5 -62t40.5 -63q6 -10 6 -17q-1 -7 -9 -7zM-7 -4q-10 0 -15.5 2.5t-5.5 9.5q2 13 34 19q38 7 60 22t32 49l139 452q11 34 1.5 48.5t-43.5 22.5q-13 3 -17.5 8t-3.5 12t9.5 10t18.5 3q24 0 43.5 -1t37.5 -2t39 -1q20 0 38 0.5t37 1.5t43 1q21 0 20 -12
q-1 -8 -10 -12.5t-24 -7.5q-26 -5 -43 -13t-27.5 -21.5t-16.5 -36.5l-135 -439q-8 -28 -6 -44.5t14.5 -24.5t34.5 -14q17 -4 22.5 -8t4.5 -12q0 -6 -8 -9t-19 -3q-24 0 -44.5 1.5t-39.5 2.5t-40 1q-33 0 -63 -2.5t-67 -2.5z" />
    <glyph glyph-name="uni020A" unicode="&#x20a;" horiz-adv-x="368" 
d="M363 827q43 0 68 -14t36.5 -33.5t11.5 -39.5q0 -15 -5 -27t-17 -12q-8 0 -10 7t-5 14q-8 22 -28.5 32.5t-53.5 10.5q-29 0 -56 -8t-49 -38q-7 -8 -12.5 -13t-13.5 -5q-12 0 -13 20q0 10 7.5 27.5t24.5 35.5t45.5 30.5t69.5 12.5zM-7 -4q-10 0 -15.5 2.5t-5.5 9.5
q2 13 34 19q38 7 60 22t32 49l139 452q11 34 1.5 48.5t-43.5 22.5q-13 3 -17.5 8t-3.5 12t9.5 10t18.5 3q24 0 43.5 -1t37.5 -2t39 -1q20 0 38 0.5t37 1.5t43 1q21 0 20 -12q-1 -8 -10 -12.5t-24 -7.5q-26 -5 -43 -13t-27.5 -21.5t-16.5 -36.5l-135 -439q-8 -28 -6 -44.5
t14.5 -24.5t34.5 -14q17 -4 22.5 -8t4.5 -12q0 -6 -8 -9t-19 -3q-24 0 -44.5 1.5t-39.5 2.5t-40 1q-33 0 -63 -2.5t-67 -2.5z" />
    <glyph glyph-name="uni020C" unicode="&#x20c;" horiz-adv-x="693" 
d="M432 692q-2 0 -7 2t-13 8q-32 24 -69.5 51.5t-69.5 54.5q-14 12 -14 20q-1 8 12 13.5t28.5 9t22.5 3.5q20 0 30 -13q22 -31 42.5 -62t40.5 -63q6 -10 6 -17q-1 -7 -9 -7zM584 692q-2 0 -7.5 2t-12.5 8q-32 24 -70 51.5t-69 54.5q-14 12 -15 20q0 8 13 13.5t28.5 9
t22.5 3.5q19 0 29 -13q22 -31 43 -62t40 -63q7 -10 6 -17q0 -7 -8 -7zM300 -14q-75 0 -126 34.5t-77 93t-26 129.5q0 75 27.5 149.5t79.5 136t125.5 98.5t165.5 37q74 0 125.5 -34.5t77.5 -92.5t26 -130q0 -75 -27.5 -149.5t-80 -136t-126 -98.5t-164.5 -37zM302 19
q50 0 94.5 27t81 72.5t62.5 102.5t40 117t14 115q0 46 -13 87.5t-41.5 67.5t-73.5 26q-49 0 -93 -27.5t-80 -73.5t-62.5 -103t-41 -117.5t-14.5 -115.5q0 -46 12.5 -86.5t40.5 -66t74 -25.5z" />
    <glyph glyph-name="uni020E" unicode="&#x20e;" horiz-adv-x="693" 
d="M525 827q43 0 68.5 -14t37 -33.5t11.5 -39.5q0 -15 -5 -27t-17 -12q-8 0 -10 7t-6 14q-7 22 -28 32.5t-53 10.5q-30 0 -57 -8t-48 -38q-7 -8 -13 -13t-14 -5q-11 0 -12 20q0 10 7.5 27.5t24.5 35.5t45 30.5t69 12.5zM300 -14q-75 0 -126 34.5t-77 93t-26 129.5
q0 75 27.5 149.5t79.5 136t125.5 98.5t165.5 37q74 0 125.5 -34.5t77.5 -92.5t26 -130q0 -75 -27.5 -149.5t-80 -136t-126 -98.5t-164.5 -37zM302 19q50 0 94.5 27t81 72.5t62.5 102.5t40 117t14 115q0 46 -13 87.5t-41.5 67.5t-73.5 26q-49 0 -93 -27.5t-80 -73.5
t-62.5 -103t-41 -117.5t-14.5 -115.5q0 -46 12.5 -86.5t40.5 -66t74 -25.5z" />
    <glyph glyph-name="uni0210" unicode="&#x210;" horiz-adv-x="712" 
d="M370 692q-2 0 -7.5 2t-12.5 8q-32 24 -70 51.5t-69 54.5q-15 12 -15 20t13 13.5t28.5 9t22.5 3.5q19 0 29 -13q22 -31 43 -62t40 -63q6 -10 6 -17t-8 -7zM521 692q-2 0 -7 2t-13 8q-32 24 -69.5 51.5t-69.5 54.5q-14 12 -14 20q-1 8 12 13.5t28.5 9t22.5 3.5q20 0 30 -13
q22 -31 42.5 -62t40.5 -63q6 -10 6 -17q-1 -7 -9 -7zM13 -4q-11 0 -16.5 2.5t-5.5 9.5q2 13 34 19q38 7 58.5 22t31.5 50l136 444q10 31 9 46t-16 21.5t-48 10.5q-14 2 -21 6.5t-7 11.5q0 8 12 11.5t23 3.5q13 0 33.5 -1t40 -1.5t30.5 -0.5q21 0 41 1t40.5 2.5t40.5 1.5
q56 0 100 -16.5t70 -49.5t26 -83q0 -51 -25.5 -89.5t-65 -63t-83.5 -36.5q-12 -5 -8 -16q8 -19 19.5 -45t25 -55t25.5 -53.5t20 -40.5q19 -38 39.5 -54t51.5 -20q13 -1 23.5 -4.5t10.5 -12.5q0 -13 -20 -16.5t-58 -3.5q-36 0 -62.5 6t-43.5 18t-26 31q-15 29 -31 64
t-30.5 71t-26.5 68q-9 24 -19.5 34t-33.5 10q-18 0 -24.5 -4.5t-9.5 -14.5l-54 -173q-11 -34 -2 -53.5t44 -26.5q13 -3 17.5 -7t4.5 -12q-1 -6 -9 -9t-19 -3q-24 0 -42.5 1.5t-34.5 3t-34 1.5q-35 0 -65 -3t-66 -3zM342 321q26 0 56.5 10.5t58.5 33t45.5 59.5t17.5 89
q0 48 -30.5 81.5t-76.5 33.5q-13 0 -22.5 -5.5t-17 -22t-18.5 -52.5l-52 -189q-6 -22 2.5 -30t36.5 -8z" />
    <glyph glyph-name="uni0212" unicode="&#x212;" horiz-adv-x="712" 
d="M463 827q43 0 68.5 -14t37 -33.5t11.5 -39.5q0 -15 -5.5 -27t-17.5 -12q-7 0 -9.5 7t-5.5 14q-8 22 -28.5 32.5t-53.5 10.5q-29 0 -56 -8t-49 -38q-7 -8 -12.5 -13t-13.5 -5q-12 0 -13 20q0 10 7.5 27.5t25 35.5t45.5 30.5t69 12.5zM13 -4q-11 0 -16.5 2.5t-5.5 9.5
q2 13 34 19q38 7 58.5 22t31.5 50l136 444q10 31 9 46t-16 21.5t-48 10.5q-14 2 -21 6.5t-7 11.5q0 8 12 11.5t23 3.5q13 0 33.5 -1t40 -1.5t30.5 -0.5q21 0 41 1t40.5 2.5t40.5 1.5q56 0 100 -16.5t70 -49.5t26 -83q0 -51 -25.5 -89.5t-65 -63t-83.5 -36.5q-12 -5 -8 -16
q8 -19 19.5 -45t25 -55t25.5 -53.5t20 -40.5q19 -38 39.5 -54t51.5 -20q13 -1 23.5 -4.5t10.5 -12.5q0 -13 -20 -16.5t-58 -3.5q-36 0 -62.5 6t-43.5 18t-26 31q-15 29 -31 64t-30.5 71t-26.5 68q-9 24 -19.5 34t-33.5 10q-18 0 -24.5 -4.5t-9.5 -14.5l-54 -173
q-11 -34 -2 -53.5t44 -26.5q13 -3 17.5 -7t4.5 -12q-1 -6 -9 -9t-19 -3q-24 0 -42.5 1.5t-34.5 3t-34 1.5q-35 0 -65 -3t-66 -3zM342 321q26 0 56.5 10.5t58.5 33t45.5 59.5t17.5 89q0 48 -30.5 81.5t-76.5 33.5q-13 0 -22.5 -5.5t-17 -22t-18.5 -52.5l-52 -189
q-6 -22 2.5 -30t36.5 -8z" />
    <glyph glyph-name="uni0214" unicode="&#x214;" horiz-adv-x="704" 
d="M455 692q-2 0 -7 2t-13 8q-32 24 -69.5 51.5t-69.5 54.5q-14 12 -14 20q-1 8 12 13.5t28.5 9t22.5 3.5q19 0 29 -13q23 -31 43.5 -62t39.5 -63q7 -10 7 -17q-1 -7 -9 -7zM607 692q-2 0 -7.5 2t-12.5 8q-32 24 -70 51.5t-69 54.5q-15 12 -15 20t13 13.5t28.5 9t22.5 3.5
q19 0 29 -13q22 -31 43 -62t40 -63q6 -10 6 -17t-8 -7zM306 -14q-54 0 -97.5 17t-71.5 50t-34.5 83t14.5 116l89 292q10 33 2.5 52t-24.5 23q-29 9 -28 22q0 7 12 10t24 3q24 0 49.5 -2t52.5 -2q24 0 50.5 1.5t45.5 1.5q25 0 23 -13q-2 -8 -14 -12.5t-29 -10.5
q-17 -5 -35 -24.5t-30 -58.5l-90 -296q-20 -67 -6.5 -111.5t49 -66.5t82.5 -22q66 0 114 32.5t80 84.5t50 111q12 40 24.5 79t22.5 71t15 50q18 59 19.5 89.5t-9.5 44t-33 20.5q-9 3 -19 7.5t-9 12.5q0 6 9.5 9t21.5 3q18 0 35.5 -0.5l35 -1t31.5 -0.5q16 0 29 1t25.5 2
t25.5 1q12 0 18 -3t5 -10q-2 -12 -37 -20q-18 -5 -31.5 -13t-25.5 -29t-28 -65q-22 -60 -43 -125t-46 -134q-27 -78 -66.5 -139t-99 -95.5t-148.5 -34.5z" />
    <glyph glyph-name="uni0216" unicode="&#x216;" horiz-adv-x="704" 
d="M548 827q43 0 68.5 -14t37 -33.5t11.5 -39.5q0 -15 -5 -27t-18 -12q-7 0 -9.5 7t-5.5 14q-7 22 -28 32.5t-54 10.5q-29 0 -56 -8t-49 -38q-6 -8 -12 -13t-14 -5q-12 0 -12 20q0 10 7.5 27.5t24.5 35.5t45 30.5t69 12.5zM306 -14q-54 0 -97.5 17t-71.5 50t-34.5 83
t14.5 116l89 292q10 33 2.5 52t-24.5 23q-29 9 -28 22q0 7 12 10t24 3q24 0 49.5 -2t52.5 -2q24 0 50.5 1.5t45.5 1.5q25 0 23 -13q-2 -8 -14 -12.5t-29 -10.5q-17 -5 -35 -24.5t-30 -58.5l-90 -296q-20 -67 -6.5 -111.5t49 -66.5t82.5 -22q66 0 114 32.5t80 84.5t50 111
q12 40 24.5 79t22.5 71t15 50q18 59 19.5 89.5t-9.5 44t-33 20.5q-9 3 -19 7.5t-9 12.5q0 6 9.5 9t21.5 3q18 0 35.5 -0.5l35 -1t31.5 -0.5q16 0 29 1t25.5 2t25.5 1q12 0 18 -3t5 -10q-2 -12 -37 -20q-18 -5 -31.5 -13t-25.5 -29t-28 -65q-22 -60 -43 -125t-46 -134
q-27 -78 -66.5 -139t-99 -95.5t-148.5 -34.5z" />
    <glyph glyph-name="uni0218" unicode="&#x218;" horiz-adv-x="488" 
d="M195 -15q-29 0 -57 4.5t-54 15.5q-14 5 -23 8.5t-12 3.5q-5 0 -11 -2t-11 -4q-6 -4 -11.5 -7.5t-9.5 -3.5q-5 0 -13 7t-8 13q0 7 10 29t21.5 55.5t16.5 72.5q4 24 20 24q10 0 12.5 -11.5t2.5 -35.5q0 -36 12.5 -67t39 -49.5t68.5 -18.5q62 0 103 35t41 95q0 25 -8 46
t-27 44.5t-54 55.5q-45 41 -73.5 82.5t-28.5 99.5q0 54 29 96t78.5 66.5t111.5 24.5q23 0 44.5 -4.5t40.5 -9.5q20 -6 33 -11t22 -5q12 0 21 5q5 3 10 5t10 2q9 0 11 -6.5t0 -11.5q-4 -6 -12.5 -22.5t-18 -45.5t-17.5 -73q-2 -14 -7.5 -21.5t-11.5 -7.5q-7 0 -10.5 8
t-3.5 23q0 68 -32 105.5t-85 37.5q-35 0 -62.5 -18t-43 -45.5t-15.5 -57.5q0 -25 8.5 -47.5t29.5 -47t57 -57.5q54 -47 78 -86.5t24 -84.5q0 -53 -27 -99.5t-79.5 -75t-128.5 -28.5zM22 -280q-17 0 -17 10q0 5 4.5 9.5t14.5 6.5q25 5 47.5 18t36.5 30t14 34q0 12 -8 18
t-19 11t-19 12.5t-8 24.5q0 20 17 32t42 12q27 0 46 -18.5t19 -54.5q0 -30 -16.5 -56t-43 -46t-56 -31.5t-54.5 -11.5z" />
    <glyph glyph-name="uni021A" unicode="&#x21a;" horiz-adv-x="641" 
d="M141 -4q-10 0 -16 2.5t-5 9.5q0 7 9.5 11t24.5 6q38 8 61 24.5t33 51.5l126 427q15 53 13.5 69.5t-16.5 16.5h-70q-44 0 -73 -19.5t-49 -42.5q-9 -9 -18 -21t-18 -20.5t-16 -8.5t-9 3t-2 11q1 3 3.5 11t7.5 19q17 25 30.5 52t22.5 56q3 9 9 15.5t12 6.5t13 -5.5t13 -10.5
q5 -4 12 -8t23 -6t48 -2l328 1q35 0 53 2t26.5 5.5t11.5 5.5q10 6 17 12t14 6q11 0 10 -13q-1 -6 -4 -13t-6 -12q-10 -18 -22 -50t-21 -72q-2 -11 -6 -15.5t-10 -4.5q-8 0 -11.5 7t-3.5 20q0 44 -15 67.5t-55 23.5h-82q-14 0 -23 -6.5t-17 -25t-19 -56.5l-125 -425
q-9 -34 4 -50.5t47 -25.5q13 -3 18 -6t4 -11q-1 -6 -9 -9t-19 -3q-24 0 -44 1.5t-39 2.5t-39 1q-22 0 -43.5 -1t-43 -2.5t-45.5 -1.5zM151 -280q-17 0 -17 10q0 5 4.5 9.5t14.5 6.5q25 5 47.5 18t36.5 30t14 34q0 12 -8 18t-19 11t-19 12.5t-8 24.5q0 20 17 32t42 12
q27 0 46 -18.5t19 -54.5q0 -30 -16.5 -56t-43 -46t-56 -31.5t-54.5 -11.5z" />
    <glyph glyph-name="uni021E" unicode="&#x21e;" horiz-adv-x="761" 
d="M-7 -4q-11 0 -16 2.5t-5 9.5q1 7 9 11t23 9q33 8 49 17.5t24 33.5l146 472q11 34 6.5 48t-37.5 22q-13 3 -17 8t-4 12q1 7 9.5 10t18.5 3q25 0 42 -1t32.5 -2t34.5 -1t36.5 0.5t36.5 1.5t43 1q22 0 20 -12q-1 -8 -9.5 -12.5t-24.5 -7.5q-25 -5 -42 -14t-27 -22.5
t-16 -33.5l-59 -193q-3 -10 10 -10h304q8 0 12 12l60 191q8 28 0.5 44.5t-42.5 25.5q-12 3 -16.5 7.5t-3.5 12.5q0 7 8.5 9.5t18.5 2.5q24 0 43.5 -1t38 -1.5t39.5 -0.5q17 0 31 1t30.5 2t40.5 1q11 0 16.5 -3t4.5 -10q-2 -14 -34 -20q-37 -8 -50 -23.5t-23 -45.5l-143 -466
q-8 -26 -0.5 -39.5t36.5 -19.5q13 -3 17.5 -7.5t3.5 -11.5t-9.5 -9.5t-18.5 -2.5q-23 0 -40 1.5t-33 2.5t-36 1q-19 0 -37 -1t-37 -2.5t-43 -1.5q-21 0 -20 12q1 8 9.5 12t23.5 7q35 7 55.5 23t29.5 47l61 194q2 6 3 11t-5 5h-311q-8 0 -12 -13l-59 -192q-11 -38 2 -52.5
t45 -22.5q13 -3 17.5 -7t3.5 -12q0 -6 -8 -9t-19 -3q-24 0 -43.5 1.5t-38.5 2.5t-39 1t-38 -1t-36.5 -2.5t-41.5 -1.5zM524 697q-9 0 -19 7t-19 17l-74 86q-6 8 -5 13q1 12 17 12q7 0 25.5 -9.5t38.5 -22.5t31 -23q6 -4 13 -3.5t14 3.5q12 5 34.5 14t47 18t43.5 15.5t25 6.5
q15 0 15 -11q0 -7 -8 -14l-129 -85q-18 -12 -29 -18t-21 -6z" />
    <glyph glyph-name="uni0220" unicode="&#x220;" horiz-adv-x="806" 
d="M376 -285q-11 0 -17 4t-5 10q4 12 34 18q36 6 58 22t32 48l189 612q25 78 -5 121.5t-101 43.5q-44 0 -83.5 -14t-81.5 -44q-21 -16 -48 -47t-46 -94l-92 -296q-7 -23 -1.5 -36t18 -20t27.5 -13q10 -3 18 -7.5t5 -12.5q-1 -6 -9 -9t-19 -3q-15 0 -32 0.5t-34.5 1
t-33.5 0.5q-40 0 -76.5 -2t-77.5 -2q-11 0 -17.5 2.5t-5.5 9.5q5 13 35 19q41 7 63.5 22t33.5 49l140 452q11 34 1 48.5t-46 22.5q-28 6 -23 20q2 7 10.5 10t19.5 3q22 0 40 -1t35 -2t36 -1q17 0 33 3t26 3q12 0 7 -14q-1 -4 -6.5 -12.5t-9.5 -19.5l-14 -44q-1 -5 -1.5 -11
t0.5 -10q51 40 95.5 66t89.5 39t95 13q37 0 69.5 -16t54 -48t27 -78t-13.5 -107l-184 -595q-10 -34 -4.5 -49t40.5 -23q14 -3 19.5 -6.5t3.5 -11.5q-2 -6 -10 -9.5t-20 -3.5q-25 0 -43.5 1t-35.5 2t-38 1q-20 0 -38 -1t-38 -2.5t-45 -1.5z" />
    <glyph glyph-name="uni0222" unicode="&#x222;" horiz-adv-x="619" 
d="M280 -14q-69 0 -117 14t-78 36t-44 49.5t-14 54.5q0 65 68.5 120t192.5 89q-61 31 -89.5 72t-27.5 82q1 42 26 78t72.5 58t116.5 22q7 0 10.5 -7.5t-0.5 -11.5q-18 -5 -38 -16t-37.5 -25.5t-28.5 -33.5t-11 -42q0 -25 12.5 -48t38 -44t63.5 -42q55 18 91 48.5t52.5 64.5
t14.5 63.5t-24 45.5q-3 10 -9.5 17t-10.5 11.5t-4 7.5q2 8 11.5 17.5t17.5 9.5q65 0 93 -25.5t27 -61.5q-1 -58 -55.5 -115t-163.5 -105q58 -28 87.5 -53t39.5 -51.5t10 -58.5q0 -43 -24.5 -82.5t-66 -70.5t-93.5 -49t-108 -18zM276 28q47 0 85.5 20.5t61.5 55t23 74.5
q0 46 -27 80.5t-93 64.5q-53 -21 -94 -49.5t-64 -61.5t-23 -69q0 -48 33 -81.5t98 -33.5z" />
    <glyph glyph-name="uni0224" unicode="&#x224;" horiz-adv-x="612" 
d="M191 -275q-65 0 -95 12.5t-30 35.5q0 28 17 41t40 13q14 0 27 -8.5t26 -18.5q16 -13 33 -24.5t36 -11.5q72 0 119.5 25.5t71 63.5t23.5 72q0 33 -16.5 54t-54.5 21h-35.5h-52.5h-60h-59t-64.5 -1t-72.5 -2t-64 -1q-6 0 -5 9t2 10q6 9 19.5 25t30.5 35t32 34
q64 66 119.5 126t108.5 118.5t109.5 119t120.5 126.5q4 5 5.5 11t-14.5 6q-14 1 -39.5 0.5t-56 -2t-59 -3t-48.5 -3.5q-27 -3 -63.5 -23.5t-66.5 -65.5q-8 -11 -15.5 -19t-16.5 -8q-7 0 -9.5 5.5t-2.5 12.5q1 4 3 11t6 15q11 23 23.5 49.5t20.5 45.5q5 14 12 20.5t18 6.5
q18 0 46.5 -4.5t60.5 -5.5q34 -1 72.5 -1h69.5q36 0 70.5 1t68 1.5t64.5 1.5q6 0 10.5 -10t1.5 -13l-84 -88q-62 -64 -117 -121t-107 -112t-105 -113.5t-112 -125.5q-23 -26 6 -29q18 -1 41 -2.5t55 -0.5q18 0 45 1t56.5 2.5t55.5 1.5q64 0 92.5 -23.5t28.5 -66.5
q0 -35 -21.5 -74.5t-64.5 -74t-107 -56t-149 -21.5z" />
    <glyph glyph-name="uni0226" unicode="&#x226;" horiz-adv-x="689" 
d="M-39 -5q-11 0 -16.5 3t-6.5 11q0 9 9 13.5t23 7.5q25 7 49 17.5t45.5 25t37.5 32.5q71 79 133 154t121 149.5t120 149.5q14 17 24 32t17 24t11 9q23 0 35.5 6t26.5 19q15 14 23.5 20.5t14.5 6.5q7 0 9 -10.5t-3 -31.5l-102 -514q-9 -43 1.5 -63t41.5 -28q15 -4 22.5 -7.5
t7.5 -11.5q0 -7 -8 -10t-23 -3t-38 1.5t-47.5 2.5t-46.5 1h-39.5t-42 -1t-34.5 -1q-21 0 -23 13q0 8 8 13.5t20 7.5q30 5 48 12.5t28.5 22t16.5 40.5l31 120q3 12 -4.5 18t-20.5 6l-126 -2q-14 0 -22.5 -4t-15.5 -14l-91 -119q-20 -26 -22.5 -42t7 -24t25.5 -13
q10 -3 17.5 -8.5t7.5 -13.5q0 -7 -8.5 -10t-20.5 -3q-19 0 -41.5 1t-49.5 1q-31 0 -67 -3t-62 -3zM336 288l112 1q10 0 15.5 5t8.5 18l48 219q2 10 2 15.5t-5 5.5q-3 0 -7.5 -2t-9.5 -9l-179 -232q-8 -10 -8 -15.5t23 -5.5zM628 698q-21 0 -35 14.5t-14 33.5q0 30 22 52.5
t55 22.5q22 0 35 -16.5t13 -36.5q0 -19 -10.5 -35t-28 -25.5t-37.5 -9.5z" />
    </font>
</defs>
</svg>
