<?xml version="1.0" standalone="no"?>
<!DOCTYPE svg PUBLIC "-//W3C//DTD SVG 1.1//EN" "http://www.w3.org/Graphics/SVG/1.1/DTD/svg11.dtd" >
<svg xmlns="http://www.w3.org/2000/svg" xmlns:xlink="http://www.w3.org/1999/xlink" version="1.1">
<metadata>
Created by FontForge 20230101 at Fri May  5 07:19:03 2017
 By Glenn Lewis
Copyright 2011 Canonical Ltd.  Licensed under the Ubuntu Font Licence 1.0
</metadata>
<defs>
<font id="Ubuntu-LightItalic" horiz-adv-x="522" >
  <font-face 
    font-family="Ubuntu Light"
    font-weight="300"
    font-style="italic"
    font-stretch="normal"
    units-per-em="1000"
    panose-1="2 11 3 4 3 6 2 10 2 4"
    ascent="800"
    descent="-200"
    x-height="517"
    cap-height="693"
    bbox="-140 -195 3591 958"
    underline-thickness="20"
    underline-position="-133"
    slope="-13"
    unicode-range="U+0009-FB04"
  />
<missing-glyph horiz-adv-x="500" 
d="M50 0v750h400v-750h-400zM400 50v650h-300v-650h300z" />
    <glyph glyph-name="f_f" unicode="ff" horiz-adv-x="674" 
d="M171 102q-12 -48 -23.5 -88.5t-26 -75.5t-33.5 -66t-45 -61l-57 9q25 34 42.5 62.5t29.5 56.5t21 56.5t17 62.5l124 515q14 60 37.5 99t53 62t63.5 32.5t69 9.5q23 0 40.5 -2.5t33.5 -7.5l-20 -56q-15 5 -30 7t-34 2q-26 0 -48 -7t-40.5 -24t-33.5 -45.5t-26 -71.5
l-14 -54h173l-12 -56h-175zM490 102q-12 -48 -23.5 -88.5t-26 -75.5t-33.5 -66t-45 -61l-57 9q25 34 42.5 62.5t29.5 56.5t21 56.5t17 62.5l124 515q14 60 37.5 99t53 62t63.5 32.5t69 9.5q34 0 58.5 -6t45.5 -14l-31 -52q-21 7 -39.5 11t-43.5 4q-26 0 -48 -7t-40.5 -24
t-33.5 -45.5t-26 -71.5l-14 -54h173l-12 -56h-175z" />
    <glyph glyph-name="f_i" unicode="fi" horiz-adv-x="566" 
d="M539 517h65l-125 -517h-65zM565 668q0 26 14.5 39.5t31.5 13.5q20 0 31 -12.5t11 -32.5q0 -24 -16 -37t-32 -13q-20 0 -30 11.5t-10 30.5zM171 102q-12 -48 -23.5 -88.5t-26 -75.5t-33.5 -66t-45 -61l-57 9q25 34 42.5 62.5t29.5 56.5t21 56.5t17 62.5l124 515
q14 60 37.5 99t53 62t63.5 32.5t69 9.5q23 0 40.5 -2.5t33.5 -7.5l-20 -56q-15 5 -30 7t-34 2q-26 0 -48 -7t-40.5 -24t-33.5 -45.5t-26 -71.5l-14 -54h173l-12 -56h-175z" />
    <glyph glyph-name="f_l" unicode="fl" horiz-adv-x="614" 
d="M599 764l67 12l-124 -521q-8 -34 -15.5 -64.5t-7.5 -56.5q0 -16 3 -29.5t12 -24t25.5 -18.5t42.5 -14l-15 -57q-73 9 -102 44.5t-29 89.5q0 24 4 50.5t11 55.5zM171 102q-12 -48 -23.5 -88.5t-26 -75.5t-33.5 -66t-45 -61l-57 9q25 34 42.5 62.5t29.5 56.5t21 56.5
t17 62.5l124 515q14 60 37.5 99t53 62t63.5 32.5t69 9.5q23 0 40.5 -2.5t33.5 -7.5l-20 -56q-15 5 -30 7t-34 2q-26 0 -48 -7t-40.5 -24t-33.5 -45.5t-26 -71.5l-14 -54h173l-12 -56h-175z" />
    <glyph glyph-name="f_f_i" unicode="ffi" horiz-adv-x="885" 
d="M490 102q-12 -48 -23.5 -88.5t-26 -75.5t-33.5 -66t-45 -61l-57 9q25 34 42.5 62.5t29.5 56.5t21 56.5t17 62.5l124 515q14 60 37.5 99t53 62t63.5 32.5t69 9.5q23 0 40.5 -2.5t33.5 -7.5l-20 -56q-15 5 -30 7t-34 2q-26 0 -48 -7t-40.5 -24t-33.5 -45.5t-26 -71.5
l-14 -54h173l-12 -56h-175zM858 517h65l-125 -517h-65zM884 668q0 26 14.5 39.5t31.5 13.5q20 0 31 -12.5t11 -32.5q0 -24 -16 -37t-32 -13q-20 0 -30 11.5t-10 30.5zM220 573q14 60 37.5 99t53 62t63.5 32.5t69 9.5q23 0 40.5 -2.5t33.5 -7.5l-20 -56q-15 5 -30 7t-34 2
q-26 0 -48 -7t-40.5 -24t-33.5 -45.5t-26 -71.5l-14 -54h173l-12 -56h-175l-86 -359q-12 -48 -23.5 -88.5t-26 -75.5t-33.5 -66t-45 -61l-57 9q25 34 42.5 62.5t29.5 56.5t21 56.5t17 62.5z" />
    <glyph glyph-name="f_f_l" unicode="ffl" horiz-adv-x="934" 
d="M919 764l67 12l-124 -521q-8 -34 -15.5 -64.5t-7.5 -56.5q0 -16 3 -29.5t12 -24t25.5 -18.5t42.5 -14l-15 -57q-73 9 -102 44.5t-29 89.5q0 24 4 50.5t11 55.5zM490 102q-12 -48 -23.5 -88.5t-26 -75.5t-33.5 -66t-45 -61l-57 9q25 34 42.5 62.5t29.5 56.5t21 56.5
t17 62.5l124 515q14 60 37.5 99t53 62t63.5 32.5t69 9.5q23 0 40.5 -2.5t33.5 -7.5l-20 -56q-15 5 -30 7t-34 2q-26 0 -48 -7t-40.5 -24t-33.5 -45.5t-26 -71.5l-14 -54h173l-12 -56h-175zM220 573q14 60 37.5 99t53 62t63.5 32.5t69 9.5q23 0 40.5 -2.5t33.5 -7.5l-20 -56
q-15 5 -30 7t-34 2q-26 0 -48 -7t-40.5 -24t-33.5 -45.5t-26 -71.5l-14 -54h173l-12 -56h-175l-86 -359q-12 -48 -23.5 -88.5t-26 -75.5t-33.5 -66t-45 -61l-57 9q25 34 42.5 62.5t29.5 56.5t21 56.5t17 62.5z" />
    <glyph glyph-name=".notdef" horiz-adv-x="500" 
d="M50 0v750h400v-750h-400zM400 50v650h-300v-650h300z" />
    <glyph glyph-name=".null" horiz-adv-x="0" 
 />
    <glyph glyph-name=".null" horiz-adv-x="0" 
 />
    <glyph glyph-name=".null" horiz-adv-x="0" 
 />
    <glyph glyph-name=".null" horiz-adv-x="0" 
 />
    <glyph glyph-name=".null" horiz-adv-x="0" 
 />
    <glyph glyph-name="nonmarkingreturn" unicode="&#x9;" horiz-adv-x="232" 
 />
    <glyph glyph-name="nonmarkingreturn" unicode="&#xd;" horiz-adv-x="232" 
 />
    <glyph glyph-name="nonmarkingreturn" unicode="&#xd;" horiz-adv-x="232" 
 />
    <glyph glyph-name="space" unicode=" " horiz-adv-x="232" 
 />
    <glyph glyph-name="exclam" unicode="!" horiz-adv-x="226" 
d="M147 213q8 66 19 134t31 153l46 193h70l-46 -194q-4 -17 -14 -54t-22.5 -80t-25 -85t-22.5 -67h-36zM123 -12q-26 0 -38 14.5t-12 33.5q0 22 15 41.5t42 19.5q26 0 38 -14.5t12 -33.5q0 -22 -15 -41.5t-42 -19.5z" />
    <glyph glyph-name="quotedbl" unicode="&#x22;" horiz-adv-x="356" 
d="M348 518q4 51 11 102.5t20 102.5l9 37h70l-9 -38q-13 -50 -30 -103t-38 -101h-33zM198 518q4 51 11 102.5t20 102.5l9 37h70l-9 -38q-13 -50 -30 -103t-38 -101h-33z" />
    <glyph glyph-name="numbersign" unicode="#" horiz-adv-x="623" 
d="M609 503h86l-14 -54h-95l-88 -206h135l-14 -54h-144l-81 -189h-62l81 189h-175l-81 -189h-62l81 189h-88l13 54h99l89 206h-139l13 54h149l82 190h62l-82 -190h173l82 190h62zM262 243h174l88 206h-174z" />
    <glyph glyph-name="dollar" unicode="$" horiz-adv-x="564" 
d="M258 25q-23 -1 -47.5 3.5t-47 11t-40 14t-25.5 13.5l32 54q8 -5 21 -12t32 -14t43 -11.5t53 -4.5q33 0 66 7t58.5 22.5t41.5 41t16 61.5q0 33 -17.5 53.5t-44 35.5t-57.5 28t-57.5 32t-44 47t-17.5 74q0 75 49 120t138 57l28 118h60l-27 -113q46 -2 81 -15t52 -24
l-32 -55q-12 8 -43 20.5t-85 12.5q-33 0 -61.5 -6.5t-50.5 -20t-34.5 -35t-12.5 -50.5q0 -34 18 -55t44.5 -36.5t57.5 -29t57.5 -32t44.5 -47t18 -72.5q0 -42 -15 -75.5t-42.5 -58t-66 -40t-84.5 -20.5l-32 -133h-59z" />
    <glyph glyph-name="percent" unicode="%" horiz-adv-x="785" 
d="M275 400q36 0 60.5 19t40 45.5t22.5 55t7 48.5q0 19 -2 35t-9 28t-19 18.5t-33 6.5q-36 0 -60.5 -19t-39.5 -45.5t-21.5 -55.5t-6.5 -48q0 -18 2 -34t8 -28t18 -19t33 -7zM709 693h70l-548 -693h-70zM158 480q0 35 11.5 75t34.5 73.5t58 56t83 22.5q57 0 86.5 -33.5
t29.5 -96.5q0 -35 -11.5 -75t-34.5 -74t-58.5 -56.5t-83.5 -22.5q-57 0 -86 34t-29 97zM601 36q36 0 60.5 19t40 45.5t22.5 55t7 48.5q0 19 -2 35t-9 28t-19 18.5t-33 6.5q-36 0 -60.5 -19t-39.5 -45.5t-21.5 -55.5t-6.5 -48q0 -18 2 -34t8 -28t18 -19t33 -7zM484 116
q0 35 11.5 75t34.5 73.5t58 56t83 22.5q57 0 86.5 -33.5t29.5 -96.5q0 -35 -11.5 -75t-34.5 -74t-58.5 -56.5t-83.5 -22.5q-57 0 -86 34t-29 97z" />
    <glyph glyph-name="ampersand" unicode="&#x26;" horiz-adv-x="634" 
d="M555 0q-8 23 -21 45t-29 45q-52 -48 -111.5 -73.5t-122.5 -25.5q-42 0 -74 13.5t-54 36t-33.5 52.5t-11.5 64q0 32 9.5 61.5t32 57.5t60 53.5t92.5 49.5q-23 35 -34 70.5t-11 69.5q0 39 14 73.5t39.5 60t62 40.5t81.5 15q30 0 54.5 -10t42.5 -27t27.5 -40.5t9.5 -50.5
q0 -26 -7.5 -52.5t-28 -53t-57 -53.5t-94.5 -55l-9 -5l131 -180q23 29 44 64.5t39 78.5l60 -7q-20 -54 -48 -99.5t-60 -83.5q22 -32 40.5 -63.5t34.5 -70.5h-68zM276 51q48 0 98 21t97 64l-147 199q-27 -13 -55.5 -28t-52 -35t-38 -46t-14.5 -61q0 -20 5.5 -40t18 -36.5
t34 -27t54.5 -10.5zM310 527q0 -31 10.5 -63.5t30.5 -60.5q53 23 85.5 45t50 43.5t23.5 42.5t6 41q0 38 -23 57.5t-55 19.5q-33 0 -57 -10t-40 -27t-23.5 -40t-7.5 -48z" />
    <glyph glyph-name="quotesingle" unicode="'" horiz-adv-x="206" 
d="M198 518q4 51 11 102.5t20 102.5l9 37h70l-9 -38q-13 -50 -30 -103t-38 -101h-33z" />
    <glyph glyph-name="parenleft" unicode="(" horiz-adv-x="302" 
d="M193 -179q-32 76 -48.5 151.5t-16.5 155.5q0 89 19.5 178t58 173.5t94.5 161.5t129 142l45 -33q-69 -62 -122 -135t-89 -152.5t-54.5 -163t-18.5 -166.5q0 -72 13 -144.5t40 -139.5z" />
    <glyph glyph-name="parenright" unicode=")" horiz-adv-x="302" 
d="M-22 -153q69 62 122 133.5t89 150t54.5 162t18.5 168.5q0 73 -13.5 148t-42.5 144l52 26q33 -77 49.5 -152.5t16.5 -156.5q0 -90 -19.5 -179t-58 -173.5t-94.5 -161.5t-129 -142z" />
    <glyph glyph-name="asterisk" unicode="*" horiz-adv-x="430" 
d="M185 361q14 21 28 37.5t28 31.5t30 30t35 32q-24 2 -45.5 4.5t-42 6t-41.5 9.5t-44 15l22 64q46 -15 80.5 -31.5t77.5 -38.5q-4 24 -7 44.5t-5.5 40.5t-4 41t-1.5 46h70q0 -25 -1.5 -46t-4 -41t-5.5 -40.5t-7 -44.5q43 22 77.5 38.5t80.5 31.5l22 -64q-47 -19 -86 -25
t-88 -10q19 -17 35 -32t30.5 -30t28.5 -31.5t28 -37.5l-57 -39q-14 21 -25 40t-21.5 37t-20.5 36.5t-21 40.5q-12 -22 -22 -40.5t-20.5 -36.5t-22 -37t-24.5 -40l-56 39v0z" />
    <glyph glyph-name="plus" unicode="+" horiz-adv-x="564" 
d="M319 261h-191l14 56h190l53 217h59l-53 -217h190l-14 -56h-189l-53 -218h-58z" />
    <glyph glyph-name="comma" unicode="," horiz-adv-x="238" 
d="M13 -133q20 25 37 56t29.5 62.5t20 60t10.5 49.5h70q-6 -33 -18.5 -68t-30 -68t-37.5 -63t-41 -53z" />
    <glyph glyph-name="hyphen" unicode="-" horiz-adv-x="279" 
d="M94 321h228l-15 -63h-228z" />
    <glyph glyph-name="period" unicode="." horiz-adv-x="243" 
d="M128 -13q-26 0 -38 14.5t-12 33.5q0 22 15 41.5t42 19.5q26 0 38 -14.5t12 -33.5q0 -22 -15 -41.5t-42 -19.5z" />
    <glyph glyph-name="slash" unicode="/" horiz-adv-x="378" 
d="M496 783h64l-559 -968h-63z" />
    <glyph glyph-name="zero" unicode="0" horiz-adv-x="564" 
d="M433 709q84 -1 119.5 -58t35.5 -151q0 -88 -22.5 -179.5t-63.5 -166t-98.5 -122t-127.5 -47.5q-42 0 -72 15t-48.5 42.5t-27 66t-8.5 85.5q0 59 10 120t29 118t47 107.5t62.5 88t76 59.5t88.5 22zM281 45q49 0 92.5 39t76 102.5t51.5 143.5t19 161q0 83 -23.5 120.5
t-69.5 37.5q-49 0 -92.5 -39t-76 -102.5t-51.5 -143.5t-19 -161q0 -83 23.5 -120.5t69.5 -37.5z" />
    <glyph glyph-name="one" unicode="1" horiz-adv-x="564" 
d="M448 592q-32 -32 -80 -58t-99 -42l-12 58q58 21 116 54t115 89h48l-166 -693h-64z" />
    <glyph glyph-name="two" unicode="2" horiz-adv-x="564" 
d="M501 57l-13 -57h-387q12 75 47.5 130t81.5 97t96.5 77t92.5 70t69.5 75t27.5 94q0 56 -30.5 81t-73.5 25q-42 0 -86 -17.5t-76 -44.5l-22 54q38 31 90.5 49t103.5 18q33 0 62.5 -9t52 -28t36 -49t13.5 -71q0 -47 -17.5 -85.5t-45 -71.5t-62.5 -61.5t-71 -54.5
q-44 -33 -80 -60.5t-62.5 -53.5t-43.5 -52t-24 -55h321z" />
    <glyph glyph-name="three" unicode="3" horiz-adv-x="564" 
d="M104 78q28 -17 64.5 -25t75.5 -8q43 0 80 10.5t64.5 31.5t43.5 53.5t16 76.5q0 67 -47.5 96.5t-127.5 29.5l14 54h25q48 0 83 15t57.5 38t33 51t10.5 55q0 25 -8 43t-22 28.5t-32.5 15.5t-39.5 5q-35 0 -70.5 -11t-61.5 -28l-14 52q35 22 75 34.5t83 12.5q31 0 60 -8
t51 -25.5t35.5 -45t13.5 -67.5q0 -30 -9 -59t-27.5 -54.5t-46.5 -46t-65 -33.5q18 -7 35.5 -19t32 -30t23.5 -43t9 -58q0 -59 -23.5 -103t-61.5 -73t-87.5 -43.5t-101.5 -14.5q-44 0 -86.5 9t-79.5 28z" />
    <glyph glyph-name="four" unicode="4" horiz-adv-x="564" 
d="M414 242l88 365q-41 -33 -85 -75t-86.5 -89.5t-81.5 -98.5t-69 -102h234zM105 227q31 54 76.5 115t100 122.5t115.5 120.5t124 108h65l-108 -451h85l-13 -54h-84l-44 -188h-64l44 188h-307z" />
    <glyph glyph-name="five" unicode="5" horiz-adv-x="564" 
d="M107 80q29 -17 63.5 -26t69.5 -9q40 0 78 11t67.5 32.5t47.5 54.5t18 77q0 37 -13.5 62t-34.5 42t-48 26t-53 14t-49.5 6t-38.5 2q16 45 29 84t25 76.5t23.5 76.5t22.5 84h302l-13 -57h-244q-7 -23 -15.5 -51t-17.5 -57t-18.5 -56.5t-16.5 -48.5q51 -5 93.5 -18.5
t73 -37.5t47 -58.5t16.5 -80.5q0 -61 -23 -106.5t-61 -76t-88.5 -45.5t-104.5 -15q-42 0 -83.5 8.5t-80.5 27.5z" />
    <glyph glyph-name="six" unicode="6" horiz-adv-x="564" 
d="M385 414q45 0 77.5 -12.5t53.5 -34.5t31 -52t10 -66q0 -63 -21.5 -112t-56.5 -83t-79.5 -51.5t-90.5 -17.5q-38 0 -71.5 13t-58.5 38.5t-39.5 64t-14.5 90.5q0 102 34.5 193t97.5 159.5t153 109.5t201 43l-7 -59q-73 -2 -133.5 -22.5t-108 -55.5t-82.5 -83t-56 -103
q38 19 78.5 30t82.5 11zM487 237q0 54 -28 85.5t-94 31.5q-41 0 -83 -12t-76 -29q-8 -29 -11 -60t-3 -62q0 -39 9 -67.5t25 -46.5t37 -26.5t44 -8.5q37 0 69.5 14t57 39.5t39 61.5t14.5 80z" />
    <glyph glyph-name="seven" unicode="7" horiz-adv-x="564" 
d="M172 0q17 55 43 115.5t58.5 121t69.5 119t76 110.5t78 95t75 72h-341l13 60h410l-14 -58q-45 -43 -102.5 -112.5t-114 -155t-105.5 -180t-77 -187.5h-69z" />
    <glyph glyph-name="eight" unicode="8" horiz-adv-x="564" 
d="M601 561q0 -29 -7.5 -58.5t-26 -57.5t-49 -54t-76.5 -48q47 -26 70 -62t23 -78q0 -52 -21.5 -92.5t-57.5 -68.5t-83 -42.5t-99 -14.5q-35 0 -66.5 9t-55.5 27t-38.5 46t-14.5 66q0 29 7.5 59.5t27 60.5t53 58.5t84.5 52.5q-31 19 -51.5 51t-20.5 74q0 52 20 93t53 69
t76 42.5t88 14.5q73 0 119 -36.5t46 -110.5zM466 196q0 31 -13 53t-34 38t-47 28t-53 23q-41 -21 -70 -45t-47 -48.5t-26 -49t-8 -45.5q0 -29 9 -49.5t25 -33.5t37 -19.5t44 -6.5q35 0 68 11t58.5 31t41 49t15.5 64zM267 492q0 -26 11 -45t29 -33.5t40.5 -25t46.5 -19.5
q72 38 105.5 84.5t33.5 98.5q0 50 -27.5 75t-78.5 25q-32 0 -60.5 -10t-51 -30.5t-35.5 -50.5t-13 -69z" />
    <glyph glyph-name="nine" unicode="9" horiz-adv-x="564" 
d="M339 279q-47 0 -80.5 12.5t-55 34t-31.5 50.5t-10 62q0 65 21 115t56 84.5t80 52.5t93 18q35 0 67 -10.5t57 -34t39.5 -62t14.5 -94.5q0 -105 -33.5 -198t-95.5 -162t-150 -109t-197 -40h-12t-14 1l12 57q76 -2 139 17t112 54t84 84.5t56 108.5q-47 -22 -88 -31.5
t-64 -9.5zM412 651q-36 0 -69 -13t-57.5 -38.5t-39 -63.5t-14.5 -87q0 -45 27.5 -77.5t90.5 -32.5q33 0 72.5 9t85.5 31q15 61 15 130q0 70 -28.5 106t-82.5 36z" />
    <glyph glyph-name="colon" unicode=":" horiz-adv-x="243" 
d="M128 -13q-26 0 -38 14.5t-12 33.5q0 22 15 41.5t42 19.5q26 0 38 -14.5t12 -33.5q0 -22 -15 -41.5t-42 -19.5zM233 408q-26 0 -38 14.5t-12 33.5q0 22 15 41.5t42 19.5q26 0 38 -14.5t12 -33.5q0 -22 -15 -41.5t-42 -19.5z" />
    <glyph glyph-name="semicolon" unicode=";" horiz-adv-x="238" 
d="M13 -133q20 25 37 56t29.5 62.5t20 60t10.5 49.5h70q-6 -33 -18.5 -68t-30 -68t-37.5 -63t-41 -53zM233 408q-26 0 -38 14.5t-12 33.5q0 22 15 41.5t42 19.5q26 0 38 -14.5t12 -33.5q0 -22 -15 -41.5t-42 -19.5z" />
    <glyph glyph-name="less" unicode="&#x3c;" horiz-adv-x="564" 
d="M133 328l456 177l5 -61l-397 -150l321 -148l-32 -54l-367 178z" />
    <glyph glyph-name="equal" unicode="=" horiz-adv-x="564" 
d="M168 432h438l-13 -56h-439zM118 222h438l-13 -56h-439z" />
    <glyph glyph-name="greater" unicode="&#x3e;" horiz-adv-x="564" 
d="M569 269l-456 -177l-5 61l397 150l-321 148l32 54l367 -178z" />
    <glyph glyph-name="question" unicode="?" horiz-adv-x="365" 
d="M159 213q1 36 11 65t27 53.5t39.5 46t49.5 42.5l12 9q55 41 77 73t22 71q0 43 -27 60t-64 17q-32 0 -64.5 -9t-56.5 -20l-8 55q30 14 67 23t74 9q30 0 57 -7t47.5 -22.5t32.5 -41t12 -62.5q0 -42 -18.5 -74t-47 -59.5t-61 -52.5t-61 -51.5t-47 -56.5t-18.5 -68h-55z
M168 -12q-26 0 -38 14.5t-12 33.5q0 22 15 41.5t42 19.5q26 0 38 -14.5t12 -33.5q0 -22 -15 -41.5t-42 -19.5z" />
    <glyph glyph-name="at" unicode="@" horiz-adv-x="928" 
d="M601 -133q-77 -20 -144 -20q-74 0 -136.5 22t-107.5 64t-70 103.5t-25 140.5q0 129 41.5 228t111.5 166.5t162 102t194 34.5q72 0 131.5 -19.5t102 -59.5t66 -100t23.5 -142q0 -89 -24 -151t-61 -102t-81.5 -58t-84.5 -18q-28 0 -49 9.5t-29 27.5q-23 -16 -56.5 -27.5
t-66.5 -11.5q-36 0 -66 9.5t-51.5 29.5t-34 50.5t-12.5 71.5q0 63 20 116t56 91t86.5 59.5t112.5 21.5q48 0 86 -8t55 -15l-75 -304q-2 -8 -4.5 -17t-2.5 -18q0 -10 6 -19.5t36 -9.5q48 0 82 27.5t55 69t30.5 91t9.5 93.5q0 64 -19 112.5t-54.5 80t-85.5 47.5t-112 16
q-82 0 -159.5 -30.5t-138 -89.5t-97.5 -145.5t-37 -199.5q0 -136 73.5 -209t207.5 -73q64 0 141 18zM676 443q-1 1 -8 2.5t-17.5 2.5t-23 2t-24.5 1q-44 0 -80.5 -17t-63 -47.5t-41.5 -72.5t-15 -91q0 -59 26 -85.5t71 -26.5q44 0 67.5 9t40.5 18q0 21 2.5 34t4.5 23z" />
    <glyph glyph-name="A" unicode="A" horiz-adv-x="622" 
d="M546 0q-5 48 -10.5 95t-11.5 95h-326q-26 -46 -52 -93t-52 -97h-74q103 186 212 362t214 331h73q25 -146 49.5 -315.5t47.5 -377.5h-70zM465 615q-61 -93 -119 -183t-114 -184h285q-11 90 -24 180.5t-28 186.5z" />
    <glyph glyph-name="B" unicode="B" horiz-adv-x="597" 
d="M243 680q32 8 76 14t91 6q43 0 84 -7t73.5 -25t52 -48.5t19.5 -76.5q0 -34 -12 -63t-31.5 -51.5t-45.5 -39t-54 -25.5q23 -6 41.5 -19t31 -30.5t19.5 -39t7 -43.5q0 -71 -29 -117t-76 -73t-107.5 -37.5t-124.5 -10.5q-48 0 -92.5 5.5t-82.5 13.5zM161 59q21 -4 46 -5.5
t53 -1.5q49 0 96.5 7t84.5 26.5t59.5 53.5t22.5 89q0 59 -40 81.5t-131 22.5h-127zM333 390q126 0 180.5 38.5t54.5 102.5q0 60 -42.5 85t-129.5 25q-27 0 -52 -2t-44 -5l-60 -244h93z" />
    <glyph glyph-name="C" unicode="C" horiz-adv-x="610" 
d="M587 31q-41 -22 -93 -34t-103 -12q-56 0 -102.5 15.5t-80 48t-52 83t-18.5 121.5q0 107 33 191.5t89 143t129 89.5t153 31q47 0 87.5 -10t82.5 -33l-31 -62q-72 44 -153 44q-63 0 -120.5 -27.5t-101.5 -78.5t-70 -123.5t-26 -162.5q0 -102 44 -155.5t135 -53.5q40 0 71 5
t53.5 12t38 14.5t26.5 13.5z" />
    <glyph glyph-name="D" unicode="D" horiz-adv-x="679" 
d="M162 60q25 -4 48 -5.5t46 -1.5q94 0 165.5 27.5t119.5 75.5t72.5 113.5t24.5 142.5q0 115 -57.5 172t-179.5 57q-25 0 -50.5 -2t-51.5 -6zM242 680q49 11 89 15t79 4q153 0 227 -74t74 -210q0 -92 -30 -169.5t-88.5 -133.5t-145.5 -87t-201 -31q-20 0 -42.5 1.5t-44 3.5
t-41.5 5.5t-35 8.5z" />
    <glyph glyph-name="E" unicode="E" horiz-adv-x="524" 
d="M249 693h387l-13 -59h-321l-59 -241h286l-13 -58h-284l-69 -276h344l-12 -59h-412z" />
    <glyph glyph-name="F" unicode="F" horiz-adv-x="500" 
d="M249 693h383l-13 -59h-317l-60 -244h283l-14 -59h-280l-80 -331h-68z" />
    <glyph glyph-name="G" unicode="G" horiz-adv-x="640" 
d="M593 324h68l-72 -301q-45 -18 -93 -28t-93 -10q-69 0 -119.5 19t-82.5 55t-47.5 86.5t-15.5 113.5q0 88 28 169t80 143t126.5 99.5t166.5 37.5q45 0 77 -5t54.5 -12t36.5 -15t25 -13l-31 -62q-3 3 -17 10.5t-36.5 15.5t-52 14t-64.5 6q-74 0 -133.5 -32t-101 -85
t-64 -122.5t-22.5 -145.5q0 -104 45 -160t145 -56q32 0 65.5 5.5t68.5 17.5z" />
    <glyph glyph-name="H" unicode="H" horiz-adv-x="655" 
d="M249 693h68l-74 -301h359l72 301h68l-165 -693h-68l80 333h-358l-80 -333h-68z" />
    <glyph glyph-name="I" unicode="I" horiz-adv-x="230" 
d="M249 693h68l-165 -693h-69z" />
    <glyph glyph-name="J" unicode="J" horiz-adv-x="450" 
d="M53 95q15 -15 50 -32t83 -17q27 0 51 5.5t45 21.5t38 45.5t29 77.5l120 497h68l-120 -505q-14 -60 -37 -99t-53 -62.5t-66.5 -32.5t-77.5 -9q-52 0 -93.5 16t-71.5 42z" />
    <glyph glyph-name="K" unicode="K" horiz-adv-x="599" 
d="M249 693h67l-76 -319q49 35 106.5 80t112.5 90t101.5 84.5t73.5 64.5h90q-33 -30 -84 -73t-108 -89t-114.5 -91.5t-103.5 -81.5q36 -27 75 -70.5t75.5 -93.5t67.5 -101t49 -93h-74q-58 112 -124.5 200t-149.5 148l-82 -348h-68z" />
    <glyph glyph-name="L" unicode="L" horiz-adv-x="474" 
d="M248 693h68l-152 -635h307l-13 -58h-375z" />
    <glyph glyph-name="M" unicode="M" horiz-adv-x="831" 
d="M68 0q51 187 106.5 362t106.5 331h68q15 -60 30.5 -128t29.5 -136.5t25.5 -133t19.5 -117.5q37 57 83 126.5t93 139.5t92 135t81 114h70q-9 -91 -21 -177.5t-25.5 -171.5t-29 -170.5t-32.5 -173.5h-70q35 163 60.5 311t44.5 280q-15 -19 -41.5 -56.5t-58.5 -84.5
t-66.5 -99t-66.5 -100.5t-58 -88t-40 -62.5h-60q-4 28 -11 69t-15.5 88t-18 97t-19 95.5t-18 82.5t-14.5 60q-44 -132 -89 -283t-88 -309h-68z" />
    <glyph glyph-name="N" unicode="N" horiz-adv-x="669" 
d="M249 693h67q37 -64 73.5 -143t69 -159.5t57 -154.5t37.5 -127l136 584h67l-164 -693h-67q-18 61 -45 142.5t-58.5 165.5t-64.5 161.5t-63 131.5l-144 -601h-67z" />
    <glyph glyph-name="O" unicode="O" horiz-adv-x="748" 
d="M138 258q0 103 34 186.5t90 142t126.5 90t144.5 31.5q49 0 94 -16.5t79 -50t54 -85t20 -120.5q0 -104 -34 -187.5t-90 -142t-127 -90t-144 -31.5q-50 0 -94.5 16.5t-78.5 50t-54 85t-20 121.5zM210 247q0 -51 14 -89t39 -62.5t57.5 -37t70.5 -12.5q61 0 118 26.5
t101 77.5t71 125.5t27 170.5q0 51 -14 89t-39 62.5t-58 37t-70 12.5q-61 0 -118 -26.5t-101.5 -77.5t-71 -125.5t-26.5 -170.5z" />
    <glyph glyph-name="P" unicode="P" horiz-adv-x="565" 
d="M246 680q38 8 81.5 13.5t88.5 5.5q119 0 175 -45t56 -130q0 -56 -22.5 -103t-65 -81t-105.5 -53t-144 -19h-94l-65 -268h-68zM319 327q122 0 189 50t67 138q0 65 -42 95t-132 30q-26 0 -51.5 -2.5t-46.5 -4.5l-74 -306h90z" />
    <glyph glyph-name="Q" unicode="Q" horiz-adv-x="748" 
d="M138 258q0 103 34 186.5t90 142t126.5 90t144.5 31.5q49 0 94 -16.5t79 -50t54 -85t20 -120.5q0 -98 -30.5 -178t-81 -138t-115.5 -92t-134 -41q-3 -9 -3 -17q0 -20 16 -35.5t43 -27.5t61.5 -20.5t71.5 -14.5l-26 -56q-35 4 -75.5 13t-75 25.5t-57.5 42t-23 64.5v12.5
t2 13.5q-44 5 -83.5 24t-68.5 52.5t-46 82t-17 112.5zM210 247q0 -51 14 -89t39 -62.5t57.5 -37t70.5 -12.5q61 0 118 26.5t101 77.5t71 125.5t27 170.5q0 51 -14 89t-39 62.5t-58 37t-70 12.5q-61 0 -118 -26.5t-101.5 -77.5t-71 -125.5t-26.5 -170.5z" />
    <glyph glyph-name="R" unicode="R" horiz-adv-x="592" 
d="M408 699q118 0 177 -47.5t59 -134.5q0 -78 -50 -136.5t-152 -84.5q12 -22 29 -57.5t34.5 -76.5t34 -83.5t27.5 -78.5h-72q-28 85 -61.5 158.5t-62.5 124.5q-33 -3 -69 -3h-84l-67 -280h-68l163 680q35 7 76.5 13t85.5 6zM314 338q125 0 192 47.5t67 133.5q0 63 -42 92
t-133 29q-26 0 -50.5 -2.5t-44.5 -4.5l-72 -295h83z" />
    <glyph glyph-name="S" unicode="S" horiz-adv-x="487" 
d="M83 93q29 -22 70.5 -35.5t86.5 -13.5q36 0 69.5 8.5t60 27t42.5 47t16 68.5t-19 65t-47.5 43t-62 33.5t-62 37.5t-47.5 53.5t-19 82.5q0 36 15 71.5t46.5 63.5t79 45.5t112.5 17.5q43 0 81.5 -8.5t83.5 -30.5l-35 -57q-35 21 -69.5 29.5t-72.5 8.5q-33 0 -63.5 -7.5
t-54.5 -23t-38.5 -41t-14.5 -61.5q0 -40 19 -65t48 -43t62 -33.5t62 -37t48 -54.5t19 -86q0 -39 -15.5 -77.5t-49 -68.5t-85 -48.5t-123.5 -18.5q-48 0 -93.5 13t-84.5 36z" />
    <glyph glyph-name="T" unicode="T" horiz-adv-x="526" 
d="M382 634h-212l13 59h493l-14 -59h-212l-152 -634h-68z" />
    <glyph glyph-name="U" unicode="U" horiz-adv-x="648" 
d="M250 693h68l-101 -419q-5 -23 -8.5 -45.5t-3.5 -43.5q0 -30 7 -55.5t24 -44.5t44 -30t68 -11q46 0 81 13t61.5 40.5t45.5 70.5t34 103l102 422h68l-104 -432q-18 -73 -43 -125.5t-60.5 -86t-82.5 -49.5t-108 -16q-53 0 -91.5 14.5t-63.5 40.5t-37 62t-12 79q0 44 12 92z
" />
    <glyph glyph-name="V" unicode="V" horiz-adv-x="595" 
d="M330 0h-63q-14 70 -26.5 139t-24 149t-23 178t-23.5 227h66q9 -104 18 -191t18.5 -162t19.5 -140t22 -124q96 131 187.5 287t177.5 330h76q-63 -117 -119 -215.5t-108 -183t-100.5 -157t-97.5 -137.5z" />
    <glyph glyph-name="W" unicode="W" horiz-adv-x="867" 
d="M185 0q-17 170 -14.5 342t13.5 351h66q-10 -151 -13.5 -305.5t2.5 -312.5q42 66 78.5 125t72.5 120.5t74 130t84 153.5h60q5 -75 12 -149t14.5 -142.5t16 -129t16.5 -107.5q33 58 68 130.5t70 152.5t70 165t68 169h74q-81 -202 -161 -372.5t-165 -320.5h-72
q-19 105 -35 229.5t-27 269.5q-74 -135 -147.5 -256t-152.5 -243h-72z" />
    <glyph glyph-name="X" unicode="X" horiz-adv-x="550" 
d="M325 366l-141 327h74l119 -281q65 74 122 144.5t105 136.5h76q-70 -91 -137.5 -171t-139.5 -160q36 -87 75 -178.5t73 -183.5h-74q-10 31 -23.5 67.5t-29.5 77t-34 83t-37 84.5l-261 -312h-82z" />
    <glyph glyph-name="Y" unicode="Y" horiz-adv-x="555" 
d="M310 280q-19 51 -36.5 105t-34 107t-31.5 104.5t-28 96.5h74q20 -86 46 -177.5t58 -170.5q34 38 72 82t75 90t70 91t59 85h81q-69 -92 -156 -199t-181 -214l-66 -280h-68z" />
    <glyph glyph-name="Z" unicode="Z" horiz-adv-x="547" 
d="M51 51q29 41 69.5 90.5t87 103.5t96 109t97.5 106.5t92 96t79 77.5h-363l14 59h444l-14 -62q-29 -26 -69 -66t-86.5 -87.5t-95.5 -101.5t-97.5 -108.5t-92.5 -108t-79 -100.5h387l-13 -59h-467z" />
    <glyph glyph-name="bracketleft" unicode="[" horiz-adv-x="305" 
d="M291 783h196l-11 -50h-136l-210 -868h137l-13 -50h-196z" />
    <glyph glyph-name="backslash" unicode="\" horiz-adv-x="361" 
d="M283 -185l-105 968h60l105 -968h-60z" />
    <glyph glyph-name="bracketright" unicode="]" horiz-adv-x="306" 
d="M-40 -135h136l210 868h-137l13 50h196l-233 -968h-197z" />
    <glyph glyph-name="asciicircum" unicode="^" horiz-adv-x="564" 
d="M412 693h49l105 -340l-49 -22l-93 294l-229 -291l-45 26z" />
    <glyph glyph-name="underscore" unicode="_" horiz-adv-x="549" 
d="M1 -131h500l-13 -54h-500z" />
    <glyph glyph-name="grave" unicode="`" horiz-adv-x="336" 
d="M266 773l146 -155l-35 -35l-164 132z" />
    <glyph glyph-name="a" unicode="a" 
d="M487 461q-18 4 -33 6t-31 2q-62 0 -110 -24t-81 -63t-50.5 -89t-17.5 -102q0 -41 8 -68.5t22 -44t32.5 -24t39.5 -7.5q41 0 77 19.5t68 55.5q0 27 8 62t15 63zM429 -6q-6 12 -10.5 27.5t-6.5 31.5q-35 -34 -73.5 -50t-79.5 -16q-32 0 -61 11t-51 34t-35.5 59.5
t-13.5 86.5q0 80 26 145t72.5 110.5t110 70.5t138.5 25q62 0 119 -21l-77 -311q-6 -25 -10 -47t-4 -42q0 -27 5 -51t18 -53z" />
    <glyph glyph-name="b" unicode="b" horiz-adv-x="523" 
d="M154 59q36 -11 71 -11q65 0 114.5 26t82.5 67t50 91t17 99q0 72 -31.5 105t-79.5 33q-32 0 -68.5 -14.5t-71.5 -41.5zM257 489q30 20 64 30t67 10q85 0 126 -52t41 -141q0 -64 -22 -126.5t-65 -111.5t-107 -79.5t-148 -30.5q-71 0 -135 29l179 747l68 12z" />
    <glyph glyph-name="c" unicode="c" horiz-adv-x="455" 
d="M435 25q-20 -13 -61.5 -25t-92.5 -12q-91 0 -137 52t-46 143q0 68 21 130.5t61.5 110.5t99.5 76.5t134 28.5q52 0 103 -17l-27 -59q-23 9 -45.5 12.5t-43.5 3.5q-53 0 -96.5 -22.5t-74.5 -61t-48 -89t-17 -106.5q0 -66 30.5 -104t97.5 -38q21 0 42.5 4t39.5 9.5t32 11.5
t21 11z" />
    <glyph glyph-name="d" unicode="d" horiz-adv-x="540" 
d="M493 464q-14 2 -31 3.5t-31 1.5q-70 0 -120.5 -25.5t-83 -66t-48 -90t-15.5 -97.5q0 -30 5.5 -55.5t17.5 -45t31 -30.5t46 -11q25 0 47.5 7t42 17.5t35.5 23.5t27 25q0 26 7 58.5t16 67.5zM434 -6q-5 10 -10 26.5t-7 32.5q-9 -10 -23.5 -21.5t-34.5 -21t-45 -16t-55 -6.5
q-43 0 -73.5 15.5t-50 41.5t-28.5 61.5t-9 74.5q0 63 20.5 125t63 111.5t107.5 80.5t153 31q32 0 65 -6l57 241l68 12l-144 -597q-5 -18 -7.5 -35t-2.5 -33q0 -29 5 -55t18 -52z" />
    <glyph glyph-name="e" unicode="e" horiz-adv-x="488" 
d="M540 396q0 -56 -27.5 -91t-77 -55.5t-119 -29.5t-154.5 -13v-21q0 -29 6 -54t22 -43.5t44.5 -29.5t73.5 -11q35 0 70.5 10t67.5 30l7 -60q-34 -19 -75 -29.5t-83 -10.5q-55 0 -92.5 14t-61 39t-33.5 60t-10 77q0 64 19.5 127t57.5 113t93.5 80.5t126.5 30.5
q70 0 107.5 -36.5t37.5 -96.5zM389 470q-40 0 -75 -16.5t-63 -44.5t-48.5 -65t-30.5 -78q85 2 143 11t93.5 25t50.5 38.5t15 51.5q0 39 -23.5 58.5t-61.5 19.5z" />
    <glyph glyph-name="f" unicode="f" horiz-adv-x="355" 
d="M171 102q-12 -48 -23.5 -88.5t-26 -75.5t-33.5 -66t-45 -61l-57 9q25 34 42.5 62.5t29.5 56.5t21 56.5t17 62.5l124 515q14 60 37.5 99t53 62t63.5 32.5t69 9.5q34 0 58.5 -6t45.5 -14l-31 -52q-21 7 -39.5 11t-43.5 4q-26 0 -48 -7t-40.5 -24t-33.5 -45.5t-26 -71.5
l-14 -54h173l-12 -56h-175z" />
    <glyph glyph-name="g" unicode="g" horiz-adv-x="524" 
d="M492 462q-32 8 -62 8q-69 0 -119.5 -24t-83.5 -61.5t-49 -83t-16 -87.5q0 -27 5 -51.5t17 -42.5t33 -28.5t54 -10.5q34 0 70.5 12.5t69.5 33.5zM44 -89q21 -17 60.5 -28t78.5 -11q92 0 141.5 42t64.5 119l5 26q-30 -19 -64 -28.5t-68 -9.5q-43 0 -74.5 14t-51.5 38.5
t-30 57t-10 69.5q0 57 20.5 115.5t63.5 106t107.5 77.5t153.5 30q36 0 68 -7.5t57 -21.5l-112 -466q-10 -42 -26 -82t-47 -71t-82.5 -50t-132.5 -19q-16 0 -36 2.5t-40.5 7.5t-39.5 11.5t-34 15.5z" />
    <glyph glyph-name="h" unicode="h" horiz-adv-x="545" 
d="M148 0h-65l182 764l68 12l-66 -273q63 26 119 26q34 0 63 -10t51 -30t34.5 -50.5t12.5 -72.5q0 -26 -4 -53.5t-11 -55.5l-62 -257h-65l55 230q8 33 15 67t7 65q0 30 -9.5 50.5t-25 33t-36.5 18t-44 5.5q-29 0 -58.5 -6t-55.5 -15z" />
    <glyph glyph-name="i" unicode="i" horiz-adv-x="235" 
d="M208 517h65l-125 -517h-65zM234 668q0 26 14.5 39.5t31.5 13.5q20 0 31 -12.5t11 -32.5q0 -24 -16 -37t-32 -13q-20 0 -30 11.5t-10 30.5z" />
    <glyph glyph-name="j" unicode="j" horiz-adv-x="235" 
d="M-86 -115q16 -8 30.5 -12t33.5 -4q27 0 46 11t33.5 30.5t24 46.5t17.5 59l119 501h65l-117 -489q-13 -54 -28.5 -94.5t-38 -67.5t-54 -40.5t-75.5 -13.5q-25 0 -42.5 5.5t-28.5 12.5zM246 668q0 26 14.5 39.5t31.5 13.5q20 0 31 -12.5t11 -32.5q0 -24 -16 -37t-32 -13
q-20 0 -30 11.5t-10 30.5z" />
    <glyph glyph-name="k" unicode="k" horiz-adv-x="499" 
d="M267 764l68 12l-115 -478q36 24 73.5 54.5t72 61t62.5 58t44 45.5h79q-18 -23 -51.5 -56t-71 -67t-74 -63.5t-60.5 -43.5q34 -26 66.5 -61t59.5 -74t48.5 -78.5t33.5 -73.5h-70q-44 94 -100 161.5t-118 109.5l-66 -271h-65z" />
    <glyph glyph-name="l" unicode="l" horiz-adv-x="266" 
d="M251 764l67 12l-124 -521q-8 -34 -15.5 -64.5t-7.5 -56.5q0 -16 3 -29.5t12 -24t25.5 -18.5t42.5 -14l-15 -57q-73 9 -102 44.5t-29 89.5q0 24 4 50.5t11 55.5z" />
    <glyph glyph-name="m" unicode="m" horiz-adv-x="821" 
d="M202 499q15 5 34 10t40 9t43 6.5t42 2.5q42 0 76.5 -11.5t57.5 -41.5q51 30 89.5 41.5t75.5 11.5q34 0 63.5 -7.5t51.5 -25.5t35 -49t13 -79q0 -26 -4 -53.5t-11 -55.5l-62 -257h-65l55 230q8 33 15 67t7 65t-8 51.5t-22.5 32.5t-33.5 16.5t-41 4.5q-21 0 -54.5 -7.5
t-80.5 -37.5q6 -26 6 -56q0 -26 -4 -53.5t-11 -55.5l-62 -257h-65l55 230q8 33 15 67t7 65t-8 51.5t-22.5 32.5t-33.5 16.5t-41 4.5q-23 0 -49 -4t-48 -10l-109 -453h-65z" />
    <glyph glyph-name="n" unicode="n" horiz-adv-x="546" 
d="M202 499q39 11 83 19.5t87 8.5q36 0 68 -7.5t56 -26.5t38 -50t14 -77q0 -26 -4 -53.5t-11 -55.5l-62 -257h-65l55 230q8 33 14.5 67t7.5 65q0 31 -9.5 51t-26 32t-38.5 17t-46 5q-26 0 -53 -4t-53 -10l-109 -453h-65z" />
    <glyph glyph-name="o" unicode="o" horiz-adv-x="526" 
d="M164 166q0 -59 33 -89t79 -30q36 0 74 18.5t69.5 56t52 94.5t20.5 134q0 59 -33 89t-79 30q-36 0 -74 -18.5t-69.5 -56t-52 -94.5t-20.5 -134zM558 355q0 -94 -26.5 -163t-68 -114.5t-92 -67.5t-99.5 -22q-35 0 -66.5 11t-55.5 33t-38 54.5t-14 75.5q0 94 26.5 163
t68 114t92 67t99.5 22q35 0 66.5 -11t55.5 -33t38 -54.5t14 -74.5z" />
    <glyph glyph-name="p" unicode="p" horiz-adv-x="519" 
d="M164 60q31 -9 63 -9q62 0 110 24.5t81 64t50 89t17 100.5q0 75 -33 109.5t-99 34.5q-23 0 -46.5 -4t-48.5 -11zM202 496q42 15 84 24t83 9q182 0 182 -190q0 -67 -22 -130t-64.5 -111.5t-104 -77.5t-140.5 -29q-39 0 -72 9l-44 -185h-66z" />
    <glyph glyph-name="q" unicode="q" horiz-adv-x="539" 
d="M496 463q-11 2 -23.5 5t-22.5 3q-65 0 -117.5 -21.5t-90 -59.5t-58 -90.5t-20.5 -114.5q0 -21 4 -45.5t16 -45.5t34.5 -35t59.5 -14q35 0 69 12.5t59 32.5zM388 16q-23 -13 -55.5 -20.5t-68.5 -7.5q-45 0 -76.5 15.5t-51.5 41.5t-29 60t-9 71q0 63 20.5 126.5t65 113.5
t115 81.5t171.5 31.5q19 0 49.5 -6t51.5 -20l-166 -688h-65z" />
    <glyph glyph-name="r" unicode="r" horiz-adv-x="366" 
d="M201 494q38 15 83.5 25t89.5 10q23 0 44 -3t40 -10l-17 -59q-39 12 -80 12q-26 0 -52 -4t-52 -12l-109 -453h-65z" />
    <glyph glyph-name="s" unicode="s" horiz-adv-x="400" 
d="M76 82q37 -20 65 -27t63 -7q25 0 48 5.5t40 16.5t27 29t10 42q0 26 -14.5 43t-36 29.5t-46.5 24.5t-46.5 28t-36 40t-14.5 62q0 43 16 73.5t43 50t62 28.5t72 9q32 0 63.5 -5.5t60.5 -16.5l-26 -58q-21 9 -48 14.5t-56 5.5q-24 0 -46.5 -5t-39.5 -16.5t-27.5 -29
t-10.5 -42.5q0 -26 14.5 -43t35.5 -30t46.5 -24.5t46.5 -27.5t35.5 -38.5t14.5 -57.5q0 -44 -16.5 -76t-43.5 -52t-62 -29.5t-72 -9.5q-39 0 -78 8.5t-71 26.5z" />
    <glyph glyph-name="t" unicode="t" horiz-adv-x="377" 
d="M238 669l68 12l-39 -164h182l-13 -56h-183l-61 -253q-5 -18 -8.5 -38.5t-3.5 -40.5q0 -45 22 -63t55 -18q32 0 55.5 7t49.5 19l6 -59q-27 -11 -60.5 -19t-66.5 -8q-26 0 -49 6t-40.5 20t-28 37t-10.5 58q0 43 14 99z" />
    <glyph glyph-name="u" unicode="u" 
d="M248 -12q-43 0 -72 11t-46 30.5t-24.5 46t-7.5 57.5q0 29 5 61.5t13 65.5l62 257h65l-55 -228q-8 -35 -17.5 -73.5t-9.5 -73.5q0 -20 4.5 -37t15.5 -30t29 -20t46 -7q48 0 84.5 19t68.5 55q0 27 8 62t15 63l67 270h65l-79 -320q-6 -25 -10 -47t-4 -42q0 -27 5 -51t18 -53
l-67 -10q-6 12 -10.5 27.5t-6.5 31.5q-35 -34 -74.5 -49.5t-87.5 -15.5z" />
    <glyph glyph-name="v" unicode="v" horiz-adv-x="455" 
d="M197 0q-25 111 -45 244t-22 273h64q1 -54 5 -114t11 -120t16.5 -116t21.5 -100q30 40 65.5 95.5t69.5 117t62.5 123t45.5 114.5h64q-20 -63 -52 -132t-71 -137t-83.5 -132t-87.5 -116h-64z" />
    <glyph glyph-name="w" unicode="w" horiz-adv-x="763" 
d="M246 0h-68q-21 110 -33.5 241t-14.5 276h64q1 -53 4 -115.5t8 -124.5t11 -117t14 -92q32 45 65.5 100t64 114.5t57 119.5t44.5 115h67q0 -49 2.5 -107t6.5 -118t9.5 -118t12.5 -106q24 27 58.5 81.5t69.5 119t65.5 130.5t45.5 118h64q-23 -74 -60 -151.5t-78.5 -147
t-82.5 -127t-72 -91.5h-68q-10 88 -19 190t-11 201q-20 -47 -46.5 -100.5t-56.5 -106t-61.5 -100.5t-61.5 -84z" />
    <glyph glyph-name="x" unicode="x" horiz-adv-x="452" 
d="M254 271l-128 246h76l101 -209q46 56 89.5 111.5t69.5 97.5h72q-44 -66 -97.5 -132t-103.5 -124q13 -25 29 -56t32.5 -65.5t31 -70t25.5 -69.5h-68q-7 23 -18 51.5t-24.5 58.5t-27.5 59.5t-26 53.5l-196 -223h-79z" />
    <glyph glyph-name="y" unicode="y" horiz-adv-x="452" 
d="M-36 -116q27 -15 61 -15q51 0 100 28t91 85q-42 133 -66 270t-28 265h68q2 -48 6.5 -105t13.5 -119t22 -126.5t32 -125.5q45 71 81 143.5t63 136.5t44.5 115.5t25.5 80.5h64q-6 -21 -22 -71.5t-43 -117.5t-65.5 -144.5t-88.5 -151.5q-77 -115 -149 -167.5t-150 -52.5
q-18 0 -39 3t-44 15z" />
    <glyph glyph-name="z" unicode="z" horiz-adv-x="428" 
d="M51 46q20 32 50 70t64.5 77t71.5 78t72.5 74t67 65t55.5 51h-269l12 56h353l-12 -51q-21 -19 -54 -50t-71 -68.5t-78 -79t-76.5 -80.5t-65.5 -73.5t-44 -58.5h295l-12 -56h-370z" />
    <glyph glyph-name="braceleft" unicode="{" horiz-adv-x="305" 
d="M241 -195q-62 0 -96.5 24.5t-34.5 77.5q0 11 3 29.5t8 38.5l38 154q5 18 7.5 34.5t2.5 30.5q0 29 -13.5 48t-47.5 22l12 49q29 0 48.5 14.5t32.5 36.5t21 47t13 46l26 104q14 57 27 97t35 65.5t58 37.5t96 12l-13 -50q-25 0 -45.5 -3.5t-37 -15t-29 -33t-21.5 -56.5
l-29 -118q-12 -47 -23 -82.5t-24 -61.5t-29.5 -43t-39.5 -27q25 -15 32.5 -37t7.5 -47q0 -18 -3.5 -36.5t-7.5 -35.5l-40 -165q-7 -27 -7 -47q0 -32 22 -46t65 -14l-14 -50v0z" />
    <glyph glyph-name="bar" unicode="|" horiz-adv-x="269" 
d="M291 783h60l-233 -968h-60z" />
    <glyph glyph-name="braceright" unicode="}" horiz-adv-x="305" 
d="M218 773q62 0 96.5 -24.5t34.5 -77.5q0 -11 -3 -29.5t-8 -38.5l-38 -154q-5 -18 -7.5 -34.5t-2.5 -30.5q0 -29 13.5 -48t47.5 -22l-12 -49q-29 0 -48.5 -14.5t-32.5 -36.5t-21 -47t-13 -46l-26 -104q-14 -57 -27 -97.5t-35 -66t-58 -37t-96 -11.5l13 50q25 0 45.5 3.5
t37 15t29 33t21.5 56.5l29 118q12 47 23 82.5t24 61.5t29.5 43t39.5 27q-25 15 -32.5 37t-7.5 47q0 18 3.5 36.5t7.5 35.5l40 165q7 27 7 47q0 32 -22 46t-65 14l14 50v0z" />
    <glyph glyph-name="asciitilde" unicode="~" horiz-adv-x="564" 
d="M106 236q7 17 19 39t30.5 41.5t43.5 33t58 13.5q32 0 54.5 -14.5t42 -32t39.5 -32t47 -14.5q21 0 37 10.5t27.5 24.5t18.5 27.5t10 19.5l48 -16q-6 -16 -17.5 -38t-30.5 -41.5t-45 -33t-60 -13.5q-32 0 -54.5 14.5t-42 32t-39 32t-45.5 14.5q-21 0 -37 -11t-27.5 -25
t-18.5 -27.5t-10 -19.5z" />
    <glyph glyph-name="Euro" unicode="&#x20ac;" horiz-adv-x="564" 
d="M255 237q-1 -10 -1 -19v-18q0 -27 4 -54.5t18 -49.5t41 -36t73 -14q45 0 77.5 7.5t55.5 17.5l2 -56q-20 -8 -61 -18t-90 -10q-57 0 -94 18.5t-58.5 48t-30 66t-8.5 71.5v23t1 23h-85l12 53h77q8 62 24 119h-72l12 53h78q21 54 52 99t71 77t89 49.5t107 17.5q28 0 52 -4
t55 -15l-29 -58q-42 19 -95 19q-42 0 -77 -14t-63.5 -38.5t-51.5 -58.5t-39 -74h241l-22 -53h-238q-17 -59 -23 -119h208l-22 -53h-190z" />
    <glyph glyph-name="quotesinglbase" unicode="&#x201a;" horiz-adv-x="227" 
d="M70 -124l-52 21q38 52 59 97.5t31 100.5h81q-12 -57 -42 -111.5t-77 -107.5z" />
    <glyph glyph-name="florin" unicode="&#x192;" horiz-adv-x="367" 
d="M232 573q14 60 37.5 99t53 62t63.5 32.5t69 9.5q34 0 58.5 -6t45.5 -14l-31 -52q-21 7 -39.5 11t-43.5 4q-26 0 -48 -7t-40.5 -24t-33.5 -45.5t-26 -71.5l-14 -54h173l-12 -56h-175l-103 -433q-13 -54 -28.5 -94.5t-38 -67.5t-54 -40.5t-75.5 -13.5q-25 0 -42.5 5.5
t-28.5 12.5l15 55q16 -8 30.5 -12t33.5 -4q27 0 46 11t33 30.5t24 46.5t18 59z" />
    <glyph glyph-name="quotedblbase" unicode="&#x201e;" horiz-adv-x="392" 
d="M70 -124l-52 21q38 52 59 97.5t31 100.5h81q-12 -57 -42 -111.5t-77 -107.5zM235 -124l-52 21q38 52 59 97.5t31 100.5h81q-12 -57 -42 -111.5t-77 -107.5z" />
    <glyph glyph-name="ellipsis" unicode="&#x2026;" horiz-adv-x="894" 
d="M128 -13q-26 0 -38 14.5t-12 33.5q0 22 15 41.5t42 19.5q26 0 38 -14.5t12 -33.5q0 -22 -15 -41.5t-42 -19.5zM453 -13q-26 0 -38 14.5t-12 33.5q0 22 15 41.5t42 19.5q26 0 38 -14.5t12 -33.5q0 -22 -15 -41.5t-42 -19.5zM779 -13q-26 0 -38 14.5t-12 33.5q0 22 15 41.5
t42 19.5q26 0 38 -14.5t12 -33.5q0 -22 -15 -41.5t-42 -19.5z" />
    <glyph glyph-name="dagger" unicode="&#x2020;" horiz-adv-x="449" 
d="M171 -144q7 66 19 134t33 153l64 268h-159l14 57h160l54 225h59l-54 -225h160l-14 -57h-159l-65 -268q-21 -85 -41.5 -153.5t-43.5 -133.5h-27z" />
    <glyph glyph-name="daggerdbl" unicode="&#x2021;" horiz-adv-x="462" 
d="M193 -145q7 68 20 136.5t35 155.5h-160l13 57h160l49 207h-159l14 57h160l54 225h59l-54 -225h160l-14 -57h-160l-50 -207h160l-14 -57h-159q-20 -87 -40 -156t-45 -136h-29z" />
    <glyph glyph-name="circumflex" unicode="&#x2c6;" horiz-adv-x="336" 
d="M186 583l-26 33l169 147l99 -147l-34 -33l-81 96z" />
    <glyph glyph-name="perthousand" unicode="&#x2030;" horiz-adv-x="1130" 
d="M946 36q36 0 60.5 19t40 45.5t22.5 55t7 48.5q0 19 -2 35t-9 28t-19 18.5t-33 6.5q-36 0 -60.5 -19t-39.5 -45.5t-21.5 -55.5t-6.5 -48q0 -18 2 -34t8 -28t18 -19t33 -7zM829 116q0 35 11.5 75t34.5 73.5t58 56t83 22.5q57 0 86.5 -33.5t29.5 -96.5q0 -35 -11.5 -75
t-34.5 -74t-58.5 -56.5t-83.5 -22.5q-57 0 -86 34t-29 97zM275 400q36 0 60.5 19t40 45.5t22.5 55t7 48.5q0 19 -2 35t-9 28t-19 18.5t-33 6.5q-36 0 -60.5 -19t-39.5 -45.5t-21.5 -55.5t-6.5 -48q0 -18 2 -34t8 -28t18 -19t33 -7zM709 693h70l-548 -693h-70zM158 480
q0 35 11.5 75t34.5 73.5t58 56t83 22.5q57 0 86.5 -33.5t29.5 -96.5q0 -35 -11.5 -75t-34.5 -74t-58.5 -56.5t-83.5 -22.5q-57 0 -86 34t-29 97zM601 36q36 0 60.5 19t40 45.5t22.5 55t7 48.5q0 19 -2 35t-9 28t-19 18.5t-33 6.5q-36 0 -60.5 -19t-39.5 -45.5t-21.5 -55.5
t-6.5 -48q0 -18 2 -34t8 -28t18 -19t33 -7zM484 116q0 35 11.5 75t34.5 73.5t58 56t83 22.5q57 0 86.5 -33.5t29.5 -96.5q0 -35 -11.5 -75t-34.5 -74t-58.5 -56.5t-83.5 -22.5q-57 0 -86 34t-29 97z" />
    <glyph glyph-name="Scaron" unicode="&#x160;" horiz-adv-x="487" 
d="M83 93q29 -22 70.5 -35.5t86.5 -13.5q36 0 69.5 8.5t60 27t42.5 47t16 68.5t-19 65t-47.5 43t-62 33.5t-62 37.5t-47.5 53.5t-19 82.5q0 36 15 71.5t46.5 63.5t79 45.5t112.5 17.5q43 0 81.5 -8.5t83.5 -30.5l-35 -57q-35 21 -69.5 29.5t-72.5 8.5q-33 0 -63.5 -7.5
t-54.5 -23t-38.5 -41t-14.5 -61.5q0 -40 19 -65t48 -43t62 -33.5t62 -37t48 -54.5t19 -86q0 -39 -15.5 -77.5t-49 -68.5t-85 -48.5t-123.5 -18.5q-48 0 -93.5 13t-84.5 36zM572 916l26 -33l-169 -147l-99 147l34 33l81 -96z" />
    <glyph glyph-name="guilsinglleft" unicode="&#x2039;" horiz-adv-x="301" 
d="M232 72l-114 212l189 211l36 -30l-148 -185l83 -186z" />
    <glyph glyph-name="OE" unicode="&#x152;" horiz-adv-x="948" 
d="M544 0q-28 -4 -54.5 -6t-52.5 -2q-153 0 -226 70.5t-73 214.5q0 89 30 166t89.5 134t146.5 90t201 33q23 0 46 -2t47 -5h362l-13 -59h-306l-59 -241h271l-13 -58h-269l-69 -276h329l-12 -59h-375zM434 53q25 0 50.5 2t51.5 5l138 576q-18 2 -36 3t-35 1q-96 0 -169.5 -26
t-123 -74t-75 -114.5t-25.5 -147.5q0 -121 54.5 -173t169.5 -52z" />
    <glyph glyph-name="quoteleft" unicode="&#x2018;" horiz-adv-x="236" 
d="M314 751l50 -20q-18 -26 -32 -49.5t-24.5 -47t-17.5 -48.5t-11 -54h-81q6 30 18.5 60.5t28 58.5t33.5 53.5t36 46.5z" />
    <glyph glyph-name="quoteright" unicode="&#x2019;" horiz-adv-x="236" 
d="M237 522l-50 20q18 26 32 49.5t24.5 47t17.5 48.5t11 54h81q-6 -30 -18.5 -60.5t-28 -58.5t-33.5 -53.5t-36 -46.5z" />
    <glyph glyph-name="quotedblleft" unicode="&#x201c;" horiz-adv-x="396" 
d="M478 751l50 -20q-18 -26 -32 -49.5t-24.5 -47t-17.5 -48.5t-11 -54h-81q6 30 18.5 60.5t28 58.5t33.5 53.5t36 46.5zM314 751l50 -20q-18 -26 -32 -49.5t-24.5 -47t-17.5 -48.5t-11 -54h-81q6 30 18.5 60.5t28 58.5t33.5 53.5t36 46.5z" />
    <glyph glyph-name="quotedblright" unicode="&#x201d;" horiz-adv-x="396" 
d="M228 522l-50 20q18 26 32 49.5t24.5 47t17.5 48.5t11 54h81q-6 -30 -18.5 -60.5t-28 -58.5t-33.5 -53.5t-36 -46.5zM391 522l-50 20q18 26 32 49.5t24.5 47t17.5 48.5t11 54h81q-6 -30 -18.5 -60.5t-28 -58.5t-33.5 -53.5t-36 -46.5z" />
    <glyph glyph-name="bullet" unicode="&#x2022;" horiz-adv-x="336" 
d="M388 353q0 -24 -8.5 -46t-24 -38.5t-37.5 -26t-50 -9.5t-50.5 9.5t-38 26t-23.5 38.5t-8 46t8 45.5t23.5 38t38 26.5t50.5 10t50 -10t37.5 -26.5t24 -38t8.5 -45.5z" />
    <glyph glyph-name="endash" unicode="&#x2013;" horiz-adv-x="489" 
d="M72 334h499l-13 -57h-500z" />
    <glyph glyph-name="emdash" unicode="&#x2014;" horiz-adv-x="990" 
d="M72 334h1000l-15 -57h-999z" />
    <glyph glyph-name="tilde" unicode="&#x2dc;" horiz-adv-x="336" 
d="M385 629q-19 0 -33 6t-27 13.5t-26.5 13.5t-31.5 6q-22 0 -36 -11.5t-30 -34.5l-36 22q8 14 18 28t23.5 25t31.5 17.5t43 6.5q18 0 32 -6t27 -13.5t27 -13.5t32 -6q22 0 36 11.5t30 34.5l36 -23q-8 -14 -18 -28t-23.5 -24.5t-31.5 -17t-43 -6.5z" />
    <glyph glyph-name="trademark" unicode="&#x2122;" horiz-adv-x="709" 
d="M396 693v-40h-107v-284h-44v284h-107v40h258zM608 475q14 28 31.5 60.5t34 62.5t31 55.5t23.5 39.5h35q4 -24 8.5 -58.5t8 -77t6.5 -90.5t5 -98h-45q-3 72 -7.5 134t-10.5 107l-28 -49t-31 -56t-27.5 -52.5t-19.5 -38.5h-32q-7 14 -19.5 38.5t-27.5 52.5t-31 56l-28 49
q-6 -45 -10.5 -107t-7.5 -134h-43q1 50 4.5 98t7 90.5t8 77t8.5 58.5h37q9 -14 23.5 -39.5t31 -55.5t34 -62.5t31.5 -60.5z" />
    <glyph glyph-name="scaron" unicode="&#x161;" horiz-adv-x="400" 
d="M76 82q37 -20 65 -27t63 -7q25 0 48 5.5t40 16.5t27 29t10 42q0 26 -14.5 43t-36 29.5t-46.5 24.5t-46.5 28t-36 40t-14.5 62q0 43 16 73.5t43 50t62 28.5t72 9q32 0 63.5 -5.5t60.5 -16.5l-26 -58q-21 9 -48 14.5t-56 5.5q-24 0 -46.5 -5t-39.5 -16.5t-27.5 -29
t-10.5 -42.5q0 -26 14.5 -43t35.5 -30t46.5 -24.5t46.5 -27.5t35.5 -38.5t14.5 -57.5q0 -44 -16.5 -76t-43.5 -52t-62 -29.5t-72 -9.5q-39 0 -78 8.5t-71 26.5zM472 763l26 -33l-169 -147l-99 147l34 33l81 -96z" />
    <glyph glyph-name="guilsinglright" unicode="&#x203a;" horiz-adv-x="301" 
d="M219 495l114 -212l-189 -211l-36 30l148 185l-83 186z" />
    <glyph glyph-name="oe" unicode="&#x153;" horiz-adv-x="846" 
d="M384 529q66 0 103 -28t53 -88q42 58 99 87t117 29q29 0 55 -8.5t45.5 -25t30.5 -41.5t11 -58q0 -59 -24 -95t-70.5 -57t-115 -30.5t-158.5 -13.5q0 -5 -0.5 -9t-0.5 -8q0 -44 11 -71t30 -41t44.5 -18.5t54.5 -4.5q62 0 135 35l7 -60q-30 -14 -73 -24.5t-88 -10.5
q-29 0 -56.5 5.5t-51 19t-41 35.5t-26.5 55q-42 -62 -95 -88.5t-108 -26.5q-46 0 -79 14.5t-54 40.5t-31 61t-10 77q0 65 20.5 127.5t58 111.5t90 79t117.5 30zM380 469q-47 0 -86.5 -25t-68 -65.5t-44.5 -92t-16 -103.5q0 -63 26 -100t85 -37q36 0 72.5 18.5t66 56.5
t48.5 95t19 134q0 59 -28 89t-74 30zM832 392q0 38 -23.5 58t-62.5 20q-30 0 -61 -12t-59 -36.5t-50.5 -61.5t-33.5 -88l-2 -9q85 1 141.5 10t90 25t47 39.5t13.5 54.5z" />
    <glyph glyph-name="Ydieresis" unicode="&#x178;" horiz-adv-x="555" 
d="M310 280q-19 51 -36.5 105t-34 107t-31.5 104.5t-28 96.5h74q20 -86 46 -177.5t58 -170.5q34 38 72 82t75 90t70 91t59 85h81q-69 -92 -156 -199t-181 -214l-66 -280h-68zM550 779q-23 0 -33.5 12.5t-10.5 29.5q0 20 13.5 37t37.5 17q22 0 32.5 -13t10.5 -29
q0 -19 -13 -36.5t-37 -17.5zM377 779q-22 0 -32.5 12.5t-10.5 29.5q0 20 13 37t37 17q23 0 33.5 -13t10.5 -29q0 -19 -13.5 -36.5t-37.5 -17.5z" />
    <glyph glyph-name="uni00A0" unicode="&#xa0;" horiz-adv-x="232" 
 />
    <glyph glyph-name="exclamdown" unicode="&#xa1;" horiz-adv-x="266" 
d="M222 295q-10 -26 -22.5 -67.5t-25 -84.5t-22.5 -80.5t-14 -53.5l-46 -194h70l46 193q20 85 31 153t19 134h-36zM282 520q26 0 38 -14.5t12 -33.5q0 -22 -15 -41.5t-42 -19.5q-26 0 -38 14.5t-12 33.5q0 22 15 41.5t42 19.5z" />
    <glyph glyph-name="cent" unicode="&#xa2;" horiz-adv-x="564" 
d="M291 34q-39 8 -66.5 26t-44 42.5t-24 55t-7.5 63.5q0 56 17.5 110t51 99t83 77t113.5 43l35 143h59l-34 -141q25 0 55 -6.5t55 -17.5l-26 -57q-27 13 -53 18.5t-52 5.5q-50 0 -93 -21t-75.5 -58t-51 -87.5t-18.5 -108.5q0 -35 11.5 -60t31 -41t45.5 -23.5t54 -7.5
q31 0 62.5 8t58.5 23l4 -58q-15 -8 -52 -19t-81 -11l-34 -140h-59z" />
    <glyph glyph-name="sterling" unicode="&#xa3;" horiz-adv-x="564" 
d="M146 364h96l22 92q17 72 42 120t57 77t71 41t85 12q34 0 66 -9t58 -24l-31 -54q-43 26 -105 26q-31 0 -57.5 -8.5t-48.5 -30t-39.5 -58t-30.5 -91.5l-22 -93h196l-14 -55h-195q-11 -53 -31.5 -120.5t-46.5 -131.5h299l-14 -57h-374q26 69 54.5 149t45.5 160h-96z" />
    <glyph glyph-name="currency" unicode="&#xa4;" horiz-adv-x="564" 
d="M183 347q0 33 9 62.5t26 52.5l-74 76l40 41l76 -78q23 17 51 26t59 9t59 -9t51 -26l76 78l40 -41l-74 -76q17 -23 26 -52.5t9 -62.5t-9 -62.5t-26 -52.5l74 -76l-40 -41l-76 78q-23 -17 -51 -26t-59 -9t-59 9t-51 26l-76 -78l-40 41l74 76q-17 23 -26 52.5t-9 62.5z
M499 347q0 30 -10 55t-27.5 43t-41 28t-50.5 10t-50.5 -10t-41 -28t-27.5 -43t-10 -55t10 -55t27.5 -43t41 -28t50.5 -10t50.5 10t41 28t27.5 43t10 55z" />
    <glyph glyph-name="yen" unicode="&#xa5;" horiz-adv-x="564" 
d="M362 372q72 79 136.5 160t123.5 161h66l-64 -86t-66.5 -87t-73 -89t-83.5 -91h156l-13 -53h-168l-28 -119h168l-13 -53h-168l-28 -115h-65l28 115h-167l13 53h167l28 119h-167l13 53h153q-38 93 -67 179.5t-51 173.5h69q18 -85 42.5 -163.5t58.5 -157.5z" />
    <glyph glyph-name="brokenbar" unicode="&#xa6;" horiz-adv-x="263" 
d="M295 783h62l-90 -376h-63zM152 190h62l-90 -375h-62z" />
    <glyph glyph-name="section" unicode="&#xa7;" horiz-adv-x="492" 
d="M131 284q0 57 36 100.5t97 78.5q-15 19 -23 40.5t-8 41.5q0 43 18 74t47.5 50.5t67.5 29t78 9.5q38 0 74.5 -8t65.5 -23l-28 -51q-23 16 -53 23.5t-60 7.5q-28 0 -54 -6.5t-46 -19t-32 -31t-12 -42.5q0 -32 17.5 -50t43 -30t56 -22t56 -25.5t43 -41t17.5 -67.5
q0 -56 -36 -98.5t-93 -74.5q18 -14 29 -35.5t11 -50.5q0 -45 -19 -77.5t-50 -53.5t-71 -31t-83 -10t-85 9t-77 27l31 56q26 -18 62 -27t73 -9q29 0 56.5 6t48.5 19t34 32.5t13 46.5q0 28 -18 45t-45.5 28.5t-59 22t-59 27t-45.5 42.5t-18 68zM197 294q0 -30 17 -49.5
t55 -34.5l80 -33q52 22 84.5 59t32.5 75q0 25 -14 45.5t-58 37.5l-94 37q-20 -11 -38.5 -25t-33 -31.5t-23 -38t-8.5 -42.5z" />
    <glyph glyph-name="dieresis" unicode="&#xa8;" horiz-adv-x="336" 
d="M392 625q-23 0 -33.5 12.5t-10.5 29.5q0 20 13.5 37t37.5 17q22 0 32.5 -13t10.5 -29q0 -19 -13 -36.5t-37 -17.5zM219 625q-22 0 -32.5 12.5t-10.5 29.5q0 20 13 37t37 17q23 0 33.5 -13t10.5 -29q0 -19 -13.5 -36.5t-37.5 -17.5z" />
    <glyph glyph-name="copyright" unicode="&#xa9;" horiz-adv-x="754" 
d="M462 142q-39 0 -72.5 14t-58.5 40t-39 64.5t-14 87.5q0 48 15.5 85.5t41.5 64t60 40t71 13.5q49 0 79.5 -13.5t41.5 -21.5l-19 -45q-15 8 -38.5 17.5t-63.5 9.5q-55 0 -91.5 -39t-36.5 -111q0 -74 35.5 -113.5t96.5 -39.5q43 0 67.5 9.5t35.5 16.5l17 -48
q-13 -8 -46 -19.5t-82 -11.5zM796 347q0 -86 -28 -153t-74.5 -113.5t-108 -71t-128.5 -24.5t-128.5 24.5t-108 71t-74.5 113.5t-28 153q0 85 28 152.5t74.5 113.5t108 70.5t128.5 24.5t128.5 -24.5t108 -70.5t74.5 -113.5t28 -152.5zM737 347q0 69 -21 126t-58 97.5
t-88.5 62.5t-112.5 22t-112.5 -22t-88.5 -62.5t-58 -97.5t-21 -126t21 -126t58 -97.5t88.5 -63t112.5 -22.5t112.5 22.5t88.5 63t58 97.5t21 126z" />
    <glyph glyph-name="ordfeminine" unicode="&#xaa;" horiz-adv-x="434" 
d="M446 652q-5 2 -10 3t-14 1q-42 0 -76 -18t-57 -46.5t-35.5 -64.5t-12.5 -71q0 -42 19 -59t48 -17q20 0 43 8t44 23q-1 5 -1 12v10q0 8 1.5 22t7.5 37zM422 328q-6 9 -9 16.5l-7 17.5q-18 -11 -44 -20.5t-64 -9.5q-57 0 -86 33.5t-29 93.5q0 44 16.5 87.5t49 78.5t80 57
t109.5 22q13 0 37.5 -5t40.5 -13q-9 -34 -21 -72t-22.5 -73.5t-17.5 -66t-7 -50.5q0 -19 7 -41t22 -45z" />
    <glyph glyph-name="guillemotleft" unicode="&#xab;" horiz-adv-x="478" 
d="M232 72l-114 212l189 211l36 -30l-148 -185l83 -186zM409 72l-114 212l189 211l36 -30l-148 -185l83 -186z" />
    <glyph glyph-name="logicalnot" unicode="&#xac;" horiz-adv-x="564" 
d="M497 54h-58l66 276h-374l13 56h432z" />
    <glyph glyph-name="uni00AD" unicode="&#xad;" horiz-adv-x="279" 
d="M94 321h228l-15 -63h-228z" />
    <glyph glyph-name="registered" unicode="&#xae;" horiz-adv-x="754" 
d="M565 149q-26 47 -54 89.5t-49 67.5q-7 -1 -13 -1h-11h-63v-156h-55v387q23 5 51.5 8t53.5 3q85 0 129.5 -31t44.5 -94q0 -36 -20 -64.5t-59 -42.5q8 -9 21.5 -27.5t28.5 -41.5t30 -49t26 -48h-61zM375 350h50q25 0 46 3t36.5 11.5t24 22.5t8.5 36q0 21 -9.5 35.5
t-25 23.5t-35.5 13t-42 4q-15 0 -28.5 -0.5t-24.5 -1.5v-147zM796 347q0 -86 -28 -153t-74.5 -113.5t-108 -71t-128.5 -24.5t-128.5 24.5t-108 71t-74.5 113.5t-28 153q0 85 28 152.5t74.5 113.5t108 70.5t128.5 24.5t128.5 -24.5t108 -70.5t74.5 -113.5t28 -152.5zM737 347
q0 69 -21 126t-58 97.5t-88.5 62.5t-112.5 22t-112.5 -22t-88.5 -62.5t-58 -97.5t-21 -126t21 -126t58 -97.5t88.5 -63t112.5 -22.5t112.5 22.5t88.5 63t58 97.5t21 126z" />
    <glyph glyph-name="macron" unicode="&#xaf;" horiz-adv-x="336" 
d="M176 647l13 57h259l-13 -57h-259z" />
    <glyph glyph-name="degree" unicode="&#xb0;" horiz-adv-x="309" 
d="M298 511q-26 0 -49.5 9t-41.5 25.5t-28.5 41t-10.5 55.5t10.5 55.5t28.5 41t41.5 25.5t49.5 9t49.5 -9t41.5 -25.5t28.5 -41t10.5 -55.5t-10.5 -55.5t-28.5 -41t-41.5 -25.5t-49.5 -9zM298 556q35 0 58.5 23t23.5 63t-23.5 63t-58.5 23t-58.5 -23t-23.5 -63t23.5 -63
t58.5 -23z" />
    <glyph glyph-name="plusminus" unicode="&#xb1;" horiz-adv-x="564" 
d="M336 345h-191l14 56h190l53 217h59l-53 -217h190l-14 -56h-189l-53 -218h-58zM87 57h429l-13 -56h-429z" />
    <glyph glyph-name="twosuperior" unicode="&#xb2;" horiz-adv-x="363" 
d="M135 317q3 45 22.5 76.5t47 54.5t58.5 40.5t57.5 35t44 37.5t17.5 49q0 25 -15.5 37.5t-38.5 12.5q-31 0 -57.5 -10t-44.5 -24l-19 37q29 24 59 34.5t63 10.5q21 0 40.5 -4.5t35 -15t24.5 -29t9 -45.5q0 -32 -16.5 -57t-41 -45t-54.5 -37.5t-56.5 -34.5t-46.5 -35
t-25 -40h190l-12 -48h-241z" />
    <glyph glyph-name="threesuperior" unicode="&#xb3;" horiz-adv-x="363" 
d="M157 377q18 -10 42 -15t49 -5q54 0 85.5 22.5t31.5 58.5q0 32 -25.5 46.5t-85.5 14.5h-6l11 45h22q54 0 82 22t28 51q0 44 -59 44q-26 0 -53 -7.5t-42 -15.5l-11 40q25 14 55.5 22t62.5 8q51 0 76 -25t25 -58q0 -29 -21 -58.5t-63 -45.5q32 -11 46 -32.5t14 -47.5
q0 -23 -10 -46.5t-31 -42.5t-54.5 -31t-80.5 -12q-29 0 -57.5 6t-51.5 18z" />
    <glyph glyph-name="acute" unicode="&#xb4;" horiz-adv-x="336" 
d="M420 711l-175 -128l-29 44l166 146z" />
    <glyph glyph-name="mu" unicode="&#xb5;" horiz-adv-x="561" 
d="M277 -12q-45 0 -74 14t-46 35l-54 -222h-65l169 702h65l-55 -228q-8 -35 -18.5 -74.5t-10.5 -74.5q0 -45 20.5 -68.5t76.5 -23.5q48 0 83.5 15.5t67.5 47.5q1 26 7.5 57.5t17.5 78.5l67 270h65l-79 -320q-5 -19 -8.5 -38.5t-3.5 -35.5q0 -13 2 -24.5t8.5 -21.5t19.5 -17
t34 -11l-16 -58q-10 0 -25.5 3t-30.5 10t-28 18t-19 27q-39 -32 -82 -46.5t-88 -14.5z" />
    <glyph glyph-name="paragraph" unicode="&#xb6;" horiz-adv-x="585" 
d="M341 264q-51 0 -89 14t-63.5 38t-38 55t-12.5 66q0 50 22 97.5t67 84t113 59t159 22.5q20 0 44.5 -1t48.5 -3t45.5 -5t36.5 -8l-208 -868h-58l198 821q-21 2 -40.5 3.5t-40.5 1.5h-16.5t-17.5 -1l-199 -825h-58z" />
    <glyph glyph-name="periodcentered" unicode="&#xb7;" horiz-adv-x="203" 
d="M168 287q-26 0 -38 14.5t-12 33.5q0 22 15 41.5t42 19.5q26 0 38 -14.5t12 -33.5q0 -22 -15 -41.5t-42 -19.5z" />
    <glyph glyph-name="cedilla" unicode="&#xb8;" horiz-adv-x="336" 
d="M53 -132q22 -9 49 -9q23 0 37 7t14 24q0 15 -9.5 24t-37.5 20q5 10 13.5 23t17.5 25.5t17 22.5l12 15h47q-8 -11 -20.5 -28.5t-20.5 -29.5q23 -13 33.5 -26.5t10.5 -37.5q0 -41 -31.5 -63t-79.5 -22q-17 0 -33.5 2t-36.5 10z" />
    <glyph glyph-name="onesuperior" unicode="&#xb9;" horiz-adv-x="363" 
d="M267 317l74 308q-29 -20 -61 -31.5t-46 -15.5l-8 42q49 17 84 35.5t66 43.5h36l-91 -382h-54z" />
    <glyph glyph-name="ordmasculine" unicode="&#xba;" horiz-adv-x="444" 
d="M387 656q-33 0 -60 -17.5t-46 -44.5t-29.5 -60t-10.5 -65q0 -89 71 -89q33 0 60 17.5t46 44.5t29.5 60t10.5 65q0 89 -71 89zM298 331q-30 0 -51.5 10.5t-36 28.5t-21 41t-6.5 49q0 44 14.5 87.5t42 78.5t68 57t93.5 22q30 0 51.5 -10.5t36 -28.5t21 -41.5t6.5 -48.5
q0 -44 -14.5 -87.5t-42 -78.5t-68.5 -57t-93 -22z" />
    <glyph glyph-name="guillemotright" unicode="&#xbb;" horiz-adv-x="478" 
d="M396 495l114 -212l-189 -211l-36 30l148 185l-83 186zM219 495l114 -212l-189 -211l-36 30l148 185l-83 186z" />
    <glyph glyph-name="onequarter" unicode="&#xbc;" horiz-adv-x="878" 
d="M725 693h70l-561 -693h-70zM246 317l74 308q-29 -20 -61 -31.5t-46 -15.5l-8 42q49 17 84 35.5t66 43.5h36l-91 -382h-54zM500 97l8 33q16 25 45 60t64 71t73 68.5t71 53.5h47l-58 -242h48l-11 -44h-47l-23 -96h-53l22 96h-186zM698 141l43 180q-46 -36 -91.5 -83.5
t-82.5 -96.5h131z" />
    <glyph glyph-name="onehalf" unicode="&#xbd;" horiz-adv-x="878" 
d="M735 693h70l-561 -693h-70zM256 317l74 308q-29 -20 -61 -31.5t-46 -15.5l-8 42q49 17 84 35.5t66 43.5h36l-91 -382h-54zM557 1q3 45 22.5 76.5t47 54.5t58.5 40.5t57.5 35t44 37.5t17.5 49q0 25 -15.5 37.5t-38.5 12.5q-31 0 -57.5 -10t-44.5 -24l-19 37q29 24 59 34.5
t63 10.5q21 0 40.5 -4.5t35 -15t24.5 -29t9 -45.5q0 -32 -16.5 -57t-41 -45t-54.5 -37.5t-56.5 -34.5t-46.5 -35t-25 -40h190l-12 -48h-241z" />
    <glyph glyph-name="threequarters" unicode="&#xbe;" horiz-adv-x="878" 
d="M762 693h70l-561 -693h-70zM147 377q18 -10 42 -15t49 -5q54 0 85.5 22.5t31.5 58.5q0 32 -25.5 46.5t-85.5 14.5h-6l11 45h22q54 0 82 22t28 51q0 44 -59 44q-26 0 -53 -7.5t-42 -15.5l-11 40q25 14 55.5 22t62.5 8q51 0 76 -25t25 -58q0 -29 -21 -58.5t-63 -45.5
q32 -11 46 -32.5t14 -47.5q0 -23 -10 -46.5t-31 -42.5t-54.5 -31t-80.5 -12q-29 0 -57.5 6t-51.5 18zM561 97l8 33q16 25 45 60t64 71t73 68.5t71 53.5h47l-58 -242h48l-11 -44h-47l-23 -96h-53l22 96h-186zM759 141l43 180q-46 -36 -91.5 -83.5t-82.5 -96.5h131z" />
    <glyph glyph-name="questiondown" unicode="&#xbf;" horiz-adv-x="385" 
d="M345 307q0 -38 -18.5 -68t-47 -56.5t-61 -51.5t-61 -52.5t-47 -60t-18.5 -73.5q0 -37 12 -62.5t32.5 -41t47.5 -22.5t57 -7q37 0 74 9t67 23l-8 55q-24 -11 -56.5 -20t-64.5 -9q-18 0 -34.5 4t-29 13t-20 23.5t-7.5 36.5q0 39 22 71t77 73l12 9q27 21 49.5 42.5t39.5 46
t27 53.5t11 65h-55zM391 532q26 0 38 -14.5t12 -33.5q0 -22 -15 -41.5t-42 -19.5q-26 0 -38 14.5t-12 33.5q0 22 15 41.5t42 19.5z" />
    <glyph glyph-name="Agrave" unicode="&#xc0;" horiz-adv-x="622" 
d="M546 0q-5 48 -10.5 95t-11.5 95h-326q-26 -46 -52 -93t-52 -97h-74q103 186 212 362t214 331h73q25 -146 49.5 -315.5t47.5 -377.5h-70zM465 615q-61 -93 -119 -183t-114 -184h285q-11 90 -24 180.5t-28 186.5zM442 923l146 -155l-35 -35l-164 132z" />
    <glyph glyph-name="Aacute" unicode="&#xc1;" horiz-adv-x="622" 
d="M546 0q-5 48 -10.5 95t-11.5 95h-326q-26 -46 -52 -93t-52 -97h-74q103 186 212 362t214 331h73q25 -146 49.5 -315.5t47.5 -377.5h-70zM465 615q-61 -93 -119 -183t-114 -184h285q-11 90 -24 180.5t-28 186.5zM635 861l-175 -128l-29 44l166 146z" />
    <glyph glyph-name="Acircumflex" unicode="&#xc2;" horiz-adv-x="622" 
d="M546 0q-5 48 -10.5 95t-11.5 95h-326q-26 -46 -52 -93t-52 -97h-74q103 186 212 362t214 331h73q25 -146 49.5 -315.5t47.5 -377.5h-70zM465 615q-61 -93 -119 -183t-114 -184h285q-11 90 -24 180.5t-28 186.5zM390 734l-26 33l169 147l99 -147l-34 -33l-81 96z" />
    <glyph glyph-name="Atilde" unicode="&#xc3;" horiz-adv-x="622" 
d="M546 0q-5 48 -10.5 95t-11.5 95h-326q-26 -46 -52 -93t-52 -97h-74q103 186 212 362t214 331h73q25 -146 49.5 -315.5t47.5 -377.5h-70zM465 615q-61 -93 -119 -183t-114 -184h285q-11 90 -24 180.5t-28 186.5zM566 781q-19 0 -33 6t-27 13.5t-26.5 13.5t-31.5 6
q-22 0 -36 -11.5t-30 -34.5l-36 22q8 14 18 28t23.5 25t31.5 17.5t43 6.5q18 0 32 -6t27 -13.5t27 -13.5t32 -6q22 0 36 11.5t30 34.5l36 -23q-8 -14 -18 -28t-23.5 -24.5t-31.5 -17t-43 -6.5z" />
    <glyph glyph-name="Adieresis" unicode="&#xc4;" horiz-adv-x="622" 
d="M546 0q-5 48 -10.5 95t-11.5 95h-326q-26 -46 -52 -93t-52 -97h-74q103 186 212 362t214 331h73q25 -146 49.5 -315.5t47.5 -377.5h-70zM465 615q-61 -93 -119 -183t-114 -184h285q-11 90 -24 180.5t-28 186.5zM598 779q-23 0 -33.5 12.5t-10.5 29.5q0 20 13.5 37
t37.5 17q22 0 32.5 -13t10.5 -29q0 -19 -13 -36.5t-37 -17.5zM425 779q-22 0 -32.5 12.5t-10.5 29.5q0 20 13 37t37 17q23 0 33.5 -13t10.5 -29q0 -19 -13.5 -36.5t-37.5 -17.5z" />
    <glyph glyph-name="Aring" unicode="&#xc5;" horiz-adv-x="622" 
d="M586 737q0 -33 -16.5 -56t-42.5 -34q23 -139 45 -296.5t44 -350.5h-70q-5 48 -10.5 95t-11.5 95h-326q-26 -46 -52 -93t-52 -97h-74q97 175 202 345t205 319q-32 27 -32 73q0 43 28.5 69t67.5 26q19 0 36.5 -7t30.5 -19.5t20.5 -30t7.5 -38.5zM465 615q-61 -93 -119 -183
t-114 -184h285q-11 90 -24 180.5t-28 186.5zM548 737q0 28 -16.5 43.5t-40.5 15.5t-40.5 -15.5t-16.5 -43.5q0 -29 16.5 -44t40.5 -15t40.5 15t16.5 44z" />
    <glyph glyph-name="AE" unicode="&#xc6;" horiz-adv-x="891" 
d="M515 190h-285q-37 -48 -71.5 -95.5t-66.5 -94.5h-74q70 100 138.5 189.5t138.5 173.5t143 165t154 165h411l-13 -59h-301l-59 -241h266l-13 -58h-264l-69 -276h324l-12 -59h-392zM624 644q-30 -30 -70 -72t-85.5 -93.5t-94.5 -110t-98 -120.5h253z" />
    <glyph glyph-name="Ccedilla" unicode="&#xc7;" horiz-adv-x="610" 
d="M264 -132q22 -9 49 -9q23 0 37 7t14 24q0 15 -9.5 24t-37.5 20q5 11 14.5 25.5t19.5 27.5q-48 5 -87 23t-67 50.5t-43.5 80t-15.5 112.5q0 107 33 191.5t89 143t129 89.5t153 31q47 0 87.5 -10t82.5 -33l-31 -62q-72 44 -153 44q-63 0 -120.5 -27.5t-101.5 -78.5
t-70 -123.5t-26 -162.5q0 -102 44 -155.5t135 -53.5q40 0 71 5t53.5 12t38 14.5t26.5 13.5l9 -60q-39 -21 -89.5 -33t-99.5 -13q-8 -10 -15 -23q23 -13 33.5 -26.5t10.5 -37.5q0 -41 -31.5 -63t-79.5 -22q-17 0 -33.5 2t-36.5 10z" />
    <glyph glyph-name="Egrave" unicode="&#xc8;" horiz-adv-x="524" 
d="M249 693h387l-13 -59h-321l-59 -241h286l-13 -58h-284l-69 -276h344l-12 -59h-412zM400 923l146 -155l-35 -35l-164 132z" />
    <glyph glyph-name="Eacute" unicode="&#xc9;" horiz-adv-x="524" 
d="M249 693h387l-13 -59h-321l-59 -241h286l-13 -58h-284l-69 -276h344l-12 -59h-412zM576 861l-175 -128l-29 44l166 146z" />
    <glyph glyph-name="Ecircumflex" unicode="&#xca;" horiz-adv-x="524" 
d="M249 693h387l-13 -59h-321l-59 -241h286l-13 -58h-284l-69 -276h344l-12 -59h-412zM346 734l-26 33l169 147l99 -147l-34 -33l-81 96z" />
    <glyph glyph-name="Edieresis" unicode="&#xcb;" horiz-adv-x="524" 
d="M249 693h387l-13 -59h-321l-59 -241h286l-13 -58h-284l-69 -276h344l-12 -59h-412zM556 779q-23 0 -33.5 12.5t-10.5 29.5q0 20 13.5 37t37.5 17q22 0 32.5 -13t10.5 -29q0 -19 -13 -36.5t-37 -17.5zM383 779q-22 0 -32.5 12.5t-10.5 29.5q0 20 13 37t37 17
q23 0 33.5 -13t10.5 -29q0 -19 -13.5 -36.5t-37.5 -17.5z" />
    <glyph glyph-name="Igrave" unicode="&#xcc;" horiz-adv-x="230" 
d="M249 693h68l-165 -693h-69zM218 923l146 -155l-35 -35l-164 132z" />
    <glyph glyph-name="Iacute" unicode="&#xcd;" horiz-adv-x="230" 
d="M249 693h68l-165 -693h-69zM421 861l-175 -128l-29 44l166 146z" />
    <glyph glyph-name="Icircumflex" unicode="&#xce;" horiz-adv-x="230" 
d="M249 693h68l-165 -693h-69zM188 734l-26 33l169 147l99 -147l-34 -33l-81 96z" />
    <glyph glyph-name="Idieresis" unicode="&#xcf;" horiz-adv-x="230" 
d="M249 693h68l-165 -693h-69zM398 779q-23 0 -33.5 12.5t-10.5 29.5q0 20 13.5 37t37.5 17q22 0 32.5 -13t10.5 -29q0 -19 -13 -36.5t-37 -17.5zM225 779q-22 0 -32.5 12.5t-10.5 29.5q0 20 13 37t37 17q23 0 33.5 -13t10.5 -29q0 -19 -13.5 -36.5t-37.5 -17.5z" />
    <glyph glyph-name="Eth" unicode="&#xd0;" horiz-adv-x="692" 
d="M173 335h-80l13 55h80l69 290q49 11 89 15t79 4q144 0 222.5 -67.5t78.5 -205.5q0 -79 -24 -156.5t-79 -138.5t-143.5 -99t-218.5 -38q-20 0 -42.5 1.5t-44 3.5t-41.5 5.5t-35 8.5zM254 390h131l-13 -55h-131l-66 -275q25 -4 48 -5.5t46 -1.5q89 0 160 26.5t120.5 75.5
t76 119t26.5 156q0 58 -19 98.5t-51.5 65.5t-75.5 36t-92 11q-25 0 -50.5 -2t-51.5 -6z" />
    <glyph glyph-name="Ntilde" unicode="&#xd1;" horiz-adv-x="669" 
d="M249 693h67q37 -64 73.5 -143t69 -159.5t57 -154.5t37.5 -127l136 584h67l-164 -693h-67q-18 61 -45 142.5t-58.5 165.5t-64.5 161.5t-63 131.5l-144 -601h-67zM581 781q-19 0 -33 6t-27 13.5t-26.5 13.5t-31.5 6q-22 0 -36 -11.5t-30 -34.5l-36 22q8 14 18 28t23.5 25
t31.5 17.5t43 6.5q18 0 32 -6t27 -13.5t27 -13.5t32 -6q22 0 36 11.5t30 34.5l36 -23q-8 -14 -18 -28t-23.5 -24.5t-31.5 -17t-43 -6.5z" />
    <glyph glyph-name="Ograve" unicode="&#xd2;" horiz-adv-x="748" 
d="M138 258q0 103 34 186.5t90 142t126.5 90t144.5 31.5q49 0 94 -16.5t79 -50t54 -85t20 -120.5q0 -104 -34 -187.5t-90 -142t-127 -90t-144 -31.5q-50 0 -94.5 16.5t-78.5 50t-54 85t-20 121.5zM210 247q0 -51 14 -89t39 -62.5t57.5 -37t70.5 -12.5q61 0 118 26.5
t101 77.5t71 125.5t27 170.5q0 51 -14 89t-39 62.5t-58 37t-70 12.5q-61 0 -118 -26.5t-101.5 -77.5t-71 -125.5t-26.5 -170.5zM480 923l146 -155l-35 -35l-164 132z" />
    <glyph glyph-name="Oacute" unicode="&#xd3;" horiz-adv-x="748" 
d="M138 258q0 103 34 186.5t90 142t126.5 90t144.5 31.5q49 0 94 -16.5t79 -50t54 -85t20 -120.5q0 -104 -34 -187.5t-90 -142t-127 -90t-144 -31.5q-50 0 -94.5 16.5t-78.5 50t-54 85t-20 121.5zM210 247q0 -51 14 -89t39 -62.5t57.5 -37t70.5 -12.5q61 0 118 26.5
t101 77.5t71 125.5t27 170.5q0 51 -14 89t-39 62.5t-58 37t-70 12.5q-61 0 -118 -26.5t-101.5 -77.5t-71 -125.5t-26.5 -170.5zM690 861l-175 -128l-29 44l166 146z" />
    <glyph glyph-name="Ocircumflex" unicode="&#xd4;" horiz-adv-x="748" 
d="M138 258q0 103 34 186.5t90 142t126.5 90t144.5 31.5q49 0 94 -16.5t79 -50t54 -85t20 -120.5q0 -104 -34 -187.5t-90 -142t-127 -90t-144 -31.5q-50 0 -94.5 16.5t-78.5 50t-54 85t-20 121.5zM210 247q0 -51 14 -89t39 -62.5t57.5 -37t70.5 -12.5q61 0 118 26.5
t101 77.5t71 125.5t27 170.5q0 51 -14 89t-39 62.5t-58 37t-70 12.5q-61 0 -118 -26.5t-101.5 -77.5t-71 -125.5t-26.5 -170.5zM445 734l-26 33l169 147l99 -147l-34 -33l-81 96z" />
    <glyph glyph-name="Otilde" unicode="&#xd5;" horiz-adv-x="748" 
d="M138 258q0 103 34 186.5t90 142t126.5 90t144.5 31.5q49 0 94 -16.5t79 -50t54 -85t20 -120.5q0 -104 -34 -187.5t-90 -142t-127 -90t-144 -31.5q-50 0 -94.5 16.5t-78.5 50t-54 85t-20 121.5zM210 247q0 -51 14 -89t39 -62.5t57.5 -37t70.5 -12.5q61 0 118 26.5
t101 77.5t71 125.5t27 170.5q0 51 -14 89t-39 62.5t-58 37t-70 12.5q-61 0 -118 -26.5t-101.5 -77.5t-71 -125.5t-26.5 -170.5zM613 781q-19 0 -33 6t-27 13.5t-26.5 13.5t-31.5 6q-22 0 -36 -11.5t-30 -34.5l-36 22q8 14 18 28t23.5 25t31.5 17.5t43 6.5q18 0 32 -6
t27 -13.5t27 -13.5t32 -6q22 0 36 11.5t30 34.5l36 -23q-8 -14 -18 -28t-23.5 -24.5t-31.5 -17t-43 -6.5z" />
    <glyph glyph-name="Odieresis" unicode="&#xd6;" horiz-adv-x="748" 
d="M138 258q0 103 34 186.5t90 142t126.5 90t144.5 31.5q49 0 94 -16.5t79 -50t54 -85t20 -120.5q0 -104 -34 -187.5t-90 -142t-127 -90t-144 -31.5q-50 0 -94.5 16.5t-78.5 50t-54 85t-20 121.5zM210 247q0 -51 14 -89t39 -62.5t57.5 -37t70.5 -12.5q61 0 118 26.5
t101 77.5t71 125.5t27 170.5q0 51 -14 89t-39 62.5t-58 37t-70 12.5q-61 0 -118 -26.5t-101.5 -77.5t-71 -125.5t-26.5 -170.5zM676 779q-23 0 -33.5 12.5t-10.5 29.5q0 20 13.5 37t37.5 17q22 0 32.5 -13t10.5 -29q0 -19 -13 -36.5t-37 -17.5zM503 779q-22 0 -32.5 12.5
t-10.5 29.5q0 20 13 37t37 17q23 0 33.5 -13t10.5 -29q0 -19 -13.5 -36.5t-37.5 -17.5z" />
    <glyph glyph-name="multiply" unicode="&#xd7;" horiz-adv-x="564" 
d="M166 103l-33 43l178 144l-116 153l43 35l115 -152l189 152l34 -42l-190 -151l113 -148l-43 -34l-111 146z" />
    <glyph glyph-name="Oslash" unicode="&#xd8;" horiz-adv-x="748" 
d="M138 258q0 103 34 186.5t90 142t126.5 90t144.5 31.5q45 0 85.5 -13.5t73.5 -40.5l63 72l42 -36l-67 -77q23 -33 36.5 -76.5t13.5 -100.5q0 -104 -34 -187.5t-90 -142t-127 -90t-144 -31.5q-45 0 -85.5 13t-73.5 40l-59 -67l-43 37l63 72q-23 33 -36 77t-13 101zM708 446
q0 66 -25 113l-413 -471q48 -42 121 -42q61 0 118 26.5t101 77.5t71 125.5t27 170.5zM210 247q0 -68 24 -113l414 470q-24 22 -55 32.5t-66 10.5q-61 0 -118 -26.5t-101.5 -77.5t-71 -125.5t-26.5 -170.5z" />
    <glyph glyph-name="Ugrave" unicode="&#xd9;" horiz-adv-x="648" 
d="M250 693h68l-101 -419q-5 -23 -8.5 -45.5t-3.5 -43.5q0 -30 7 -55.5t24 -44.5t44 -30t68 -11q46 0 81 13t61.5 40.5t45.5 70.5t34 103l102 422h68l-104 -432q-18 -73 -43 -125.5t-60.5 -86t-82.5 -49.5t-108 -16q-53 0 -91.5 14.5t-63.5 40.5t-37 62t-12 79q0 44 12 92z
M443 923l146 -155l-35 -35l-164 132z" />
    <glyph glyph-name="Uacute" unicode="&#xda;" horiz-adv-x="648" 
d="M250 693h68l-101 -419q-5 -23 -8.5 -45.5t-3.5 -43.5q0 -30 7 -55.5t24 -44.5t44 -30t68 -11q46 0 81 13t61.5 40.5t45.5 70.5t34 103l102 422h68l-104 -432q-18 -73 -43 -125.5t-60.5 -86t-82.5 -49.5t-108 -16q-53 0 -91.5 14.5t-63.5 40.5t-37 62t-12 79q0 44 12 92z
M641 861l-175 -128l-29 44l166 146z" />
    <glyph glyph-name="Ucircumflex" unicode="&#xdb;" horiz-adv-x="648" 
d="M250 693h68l-101 -419q-5 -23 -8.5 -45.5t-3.5 -43.5q0 -30 7 -55.5t24 -44.5t44 -30t68 -11q46 0 81 13t61.5 40.5t45.5 70.5t34 103l102 422h68l-104 -432q-18 -73 -43 -125.5t-60.5 -86t-82.5 -49.5t-108 -16q-53 0 -91.5 14.5t-63.5 40.5t-37 62t-12 79q0 44 12 92z
M399 734l-26 33l169 147l99 -147l-34 -33l-81 96z" />
    <glyph glyph-name="Udieresis" unicode="&#xdc;" horiz-adv-x="648" 
d="M250 693h68l-101 -419q-5 -23 -8.5 -45.5t-3.5 -43.5q0 -30 7 -55.5t24 -44.5t44 -30t68 -11q46 0 81 13t61.5 40.5t45.5 70.5t34 103l102 422h68l-104 -432q-18 -73 -43 -125.5t-60.5 -86t-82.5 -49.5t-108 -16q-53 0 -91.5 14.5t-63.5 40.5t-37 62t-12 79q0 44 12 92z
M614 779q-23 0 -33.5 12.5t-10.5 29.5q0 20 13.5 37t37.5 17q22 0 32.5 -13t10.5 -29q0 -19 -13 -36.5t-37 -17.5zM441 779q-22 0 -32.5 12.5t-10.5 29.5q0 20 13 37t37 17q23 0 33.5 -13t10.5 -29q0 -19 -13.5 -36.5t-37.5 -17.5z" />
    <glyph glyph-name="Yacute" unicode="&#xdd;" horiz-adv-x="555" 
d="M310 280q-19 51 -36.5 105t-34 107t-31.5 104.5t-28 96.5h74q20 -86 46 -177.5t58 -170.5q34 38 72 82t75 90t70 91t59 85h81q-69 -92 -156 -199t-181 -214l-66 -280h-68zM595 861l-175 -128l-29 44l166 146z" />
    <glyph glyph-name="Thorn" unicode="&#xde;" horiz-adv-x="528" 
d="M250 693h68l-29 -121q21 2 38.5 2.5t39.5 0.5q122 0 182.5 -42.5t60.5 -139.5q0 -111 -89 -177.5t-266 -66.5h-69l-35 -149h-68zM269 204q73 0 124.5 14t84 39t47.5 59t15 74q0 67 -42 97.5t-127 30.5q-47 0 -70 -2t-27 -3l-74 -309h69z" />
    <glyph glyph-name="germandbls" unicode="&#xdf;" horiz-adv-x="589" 
d="M171 102q-12 -48 -23.5 -88.5t-26 -75.5t-33.5 -66t-45 -61l-57 9q25 34 42.5 62.5t29.5 56.5t21 56.5t17 62.5l118 489q15 63 39 106.5t55.5 70.5t69.5 39.5t80 12.5q72 0 111 -35.5t39 -96.5q0 -35 -13 -63.5t-32 -52.5t-41.5 -43.5t-41.5 -37.5t-32 -34.5t-13 -33.5
q0 -20 11.5 -34t28.5 -25.5t37 -24t37 -30t28.5 -43t11.5 -62.5q0 -44 -17 -76.5t-45 -53.5t-64.5 -31.5t-76.5 -10.5q-36 0 -73 7.5t-69 26.5l28 59q22 -14 53 -23.5t63 -9.5q26 0 50.5 6t43.5 19t30.5 33t11.5 48q0 30 -11.5 50t-28.5 35t-37.5 27.5t-37.5 27t-28.5 32.5
t-11.5 44q0 29 13 51.5t32 42.5t41.5 39t41.5 39.5t32 44.5t13 55q0 37 -21.5 57t-61.5 20q-29 0 -56.5 -9t-51 -29t-42.5 -51.5t-29 -75.5z" />
    <glyph glyph-name="agrave" unicode="&#xe0;" 
d="M487 461q-18 4 -33 6t-31 2q-62 0 -110 -24t-81 -63t-50.5 -89t-17.5 -102q0 -41 8 -68.5t22 -44t32.5 -24t39.5 -7.5q41 0 77 19.5t68 55.5q0 27 8 62t15 63zM429 -6q-6 12 -10.5 27.5t-6.5 31.5q-35 -34 -73.5 -50t-79.5 -16q-32 0 -61 11t-51 34t-35.5 59.5
t-13.5 86.5q0 80 26 145t72.5 110.5t110 70.5t138.5 25q62 0 119 -21l-77 -311q-6 -25 -10 -47t-4 -42q0 -27 5 -51t18 -53zM363 773l146 -155l-35 -35l-164 132z" />
    <glyph glyph-name="aacute" unicode="&#xe1;" 
d="M487 461q-18 4 -33 6t-31 2q-62 0 -110 -24t-81 -63t-50.5 -89t-17.5 -102q0 -41 8 -68.5t22 -44t32.5 -24t39.5 -7.5q41 0 77 19.5t68 55.5q0 27 8 62t15 63zM429 -6q-6 12 -10.5 27.5t-6.5 31.5q-35 -34 -73.5 -50t-79.5 -16q-32 0 -61 11t-51 34t-35.5 59.5
t-13.5 86.5q0 80 26 145t72.5 110.5t110 70.5t138.5 25q62 0 119 -21l-77 -311q-6 -25 -10 -47t-4 -42q0 -27 5 -51t18 -53zM579 711l-175 -128l-29 44l166 146z" />
    <glyph glyph-name="acircumflex" unicode="&#xe2;" 
d="M487 461q-18 4 -33 6t-31 2q-62 0 -110 -24t-81 -63t-50.5 -89t-17.5 -102q0 -41 8 -68.5t22 -44t32.5 -24t39.5 -7.5q41 0 77 19.5t68 55.5q0 27 8 62t15 63zM429 -6q-6 12 -10.5 27.5t-6.5 31.5q-35 -34 -73.5 -50t-79.5 -16q-32 0 -61 11t-51 34t-35.5 59.5
t-13.5 86.5q0 80 26 145t72.5 110.5t110 70.5t138.5 25q62 0 119 -21l-77 -311q-6 -25 -10 -47t-4 -42q0 -27 5 -51t18 -53zM313 583l-26 33l169 147l99 -147l-34 -33l-81 96z" />
    <glyph glyph-name="atilde" unicode="&#xe3;" 
d="M487 461q-18 4 -33 6t-31 2q-62 0 -110 -24t-81 -63t-50.5 -89t-17.5 -102q0 -41 8 -68.5t22 -44t32.5 -24t39.5 -7.5q41 0 77 19.5t68 55.5q0 27 8 62t15 63zM429 -6q-6 12 -10.5 27.5t-6.5 31.5q-35 -34 -73.5 -50t-79.5 -16q-32 0 -61 11t-51 34t-35.5 59.5
t-13.5 86.5q0 80 26 145t72.5 110.5t110 70.5t138.5 25q62 0 119 -21l-77 -311q-6 -25 -10 -47t-4 -42q0 -27 5 -51t18 -53zM484 629q-19 0 -33 6t-27 13.5t-26.5 13.5t-31.5 6q-22 0 -36 -11.5t-30 -34.5l-36 22q8 14 18 28t23.5 25t31.5 17.5t43 6.5q18 0 32 -6t27 -13.5
t27 -13.5t32 -6q22 0 36 11.5t30 34.5l36 -23q-8 -14 -18 -28t-23.5 -24.5t-31.5 -17t-43 -6.5z" />
    <glyph glyph-name="adieresis" unicode="&#xe4;" 
d="M487 461q-18 4 -33 6t-31 2q-62 0 -110 -24t-81 -63t-50.5 -89t-17.5 -102q0 -41 8 -68.5t22 -44t32.5 -24t39.5 -7.5q41 0 77 19.5t68 55.5q0 27 8 62t15 63zM429 -6q-6 12 -10.5 27.5t-6.5 31.5q-35 -34 -73.5 -50t-79.5 -16q-32 0 -61 11t-51 34t-35.5 59.5
t-13.5 86.5q0 80 26 145t72.5 110.5t110 70.5t138.5 25q62 0 119 -21l-77 -311q-6 -25 -10 -47t-4 -42q0 -27 5 -51t18 -53zM525 625q-23 0 -33.5 12.5t-10.5 29.5q0 20 13.5 37t37.5 17q22 0 32.5 -13t10.5 -29q0 -19 -13 -36.5t-37 -17.5zM352 625q-22 0 -32.5 12.5
t-10.5 29.5q0 20 13 37t37 17q23 0 33.5 -13t10.5 -29q0 -19 -13.5 -36.5t-37.5 -17.5z" />
    <glyph glyph-name="aring" unicode="&#xe5;" 
d="M487 461q-18 4 -33 6t-31 2q-62 0 -110 -24t-81 -63t-50.5 -89t-17.5 -102q0 -41 8 -68.5t22 -44t32.5 -24t39.5 -7.5q41 0 77 19.5t68 55.5q0 27 8 62t15 63zM429 -6q-6 12 -10.5 27.5t-6.5 31.5q-35 -34 -73.5 -50t-79.5 -16q-32 0 -61 11t-51 34t-35.5 59.5
t-13.5 86.5q0 80 26 145t72.5 110.5t110 70.5t138.5 25q62 0 119 -21l-77 -311q-6 -25 -10 -47t-4 -42q0 -27 5 -51t18 -53zM542 676q0 -22 -7.5 -39.5t-20.5 -30t-30.5 -19.5t-36.5 -7q-39 0 -67.5 26t-28.5 70q0 43 28.5 69t67.5 26q19 0 36.5 -7t30.5 -19.5t20.5 -30
t7.5 -38.5zM504 676q0 28 -16.5 43.5t-40.5 15.5t-40.5 -15.5t-16.5 -43.5q0 -29 16.5 -44t40.5 -15t40.5 15t16.5 44z" />
    <glyph glyph-name="ae" unicode="&#xe6;" horiz-adv-x="773" 
d="M292 529q74 0 115.5 -30.5t57.5 -81.5q38 56 95 84t114 28q29 0 55 -8t45.5 -24.5t31 -41.5t11.5 -59q0 -59 -22 -95t-67 -57t-112 -30t-157 -12q0 -5 -0.5 -10t-0.5 -9q0 -44 11 -71t30 -41t44.5 -18.5t54.5 -4.5q62 0 135 35l7 -60q-30 -14 -73 -24.5t-88 -10.5
q-75 0 -116 30t-58 81q-35 -50 -87.5 -80.5t-121.5 -30.5q-29 0 -55 8.5t-45.5 25t-30.5 41.5t-11 58q0 58 22.5 94.5t67.5 57.5t112.5 30.5t157.5 13.5q0 5 0.5 9t0.5 8q0 44 -11 71t-30.5 41.5t-45.5 19.5t-55 5q-62 0 -135 -35l-7 58q30 14 73 24.5t88 10.5zM751 392
q0 38 -23.5 58t-62.5 20q-30 0 -60 -12t-57 -37.5t-48 -65t-31 -94.5q85 1 140 10t86.5 25t43.5 40t12 56zM120 125q0 -38 23.5 -58t62.5 -20q30 0 61 12t58 37t47.5 64.5t31.5 93.5q-86 -2 -141.5 -10.5t-87 -24.5t-43.5 -39.5t-12 -54.5z" />
    <glyph glyph-name="ccedilla" unicode="&#xe7;" horiz-adv-x="455" 
d="M154 -132q22 -9 49 -9q23 0 37 7t14 24q0 15 -9.5 24t-37.5 20q6 12 16 27.5t21 29.5q-73 10 -109.5 60.5t-36.5 131.5q0 68 21 130.5t61.5 110.5t99.5 76.5t134 28.5q52 0 103 -17l-27 -59q-23 9 -45.5 12.5t-43.5 3.5q-53 0 -96.5 -22.5t-74.5 -61t-48 -89t-17 -106.5
q0 -66 30.5 -104t97.5 -38q21 0 42.5 4t39.5 9.5t32 11.5t21 11l7 -59q-19 -12 -58 -23.5t-87 -13.5q-5 -7 -9.5 -14t-7.5 -12q23 -13 33.5 -26.5t10.5 -37.5q0 -41 -31.5 -63t-79.5 -22q-17 0 -33.5 2t-36.5 10z" />
    <glyph glyph-name="egrave" unicode="&#xe8;" horiz-adv-x="488" 
d="M540 396q0 -56 -27.5 -91t-77 -55.5t-119 -29.5t-154.5 -13v-21q0 -29 6 -54t22 -43.5t44.5 -29.5t73.5 -11q35 0 70.5 10t67.5 30l7 -60q-34 -19 -75 -29.5t-83 -10.5q-55 0 -92.5 14t-61 39t-33.5 60t-10 77q0 64 19.5 127t57.5 113t93.5 80.5t126.5 30.5
q70 0 107.5 -36.5t37.5 -96.5zM389 470q-40 0 -75 -16.5t-63 -44.5t-48.5 -65t-30.5 -78q85 2 143 11t93.5 25t50.5 38.5t15 51.5q0 39 -23.5 58.5t-61.5 19.5zM352 773l146 -155l-35 -35l-164 132z" />
    <glyph glyph-name="eacute" unicode="&#xe9;" horiz-adv-x="488" 
d="M540 396q0 -56 -27.5 -91t-77 -55.5t-119 -29.5t-154.5 -13v-21q0 -29 6 -54t22 -43.5t44.5 -29.5t73.5 -11q35 0 70.5 10t67.5 30l7 -60q-34 -19 -75 -29.5t-83 -10.5q-55 0 -92.5 14t-61 39t-33.5 60t-10 77q0 64 19.5 127t57.5 113t93.5 80.5t126.5 30.5
q70 0 107.5 -36.5t37.5 -96.5zM389 470q-40 0 -75 -16.5t-63 -44.5t-48.5 -65t-30.5 -78q85 2 143 11t93.5 25t50.5 38.5t15 51.5q0 39 -23.5 58.5t-61.5 19.5zM519 711l-175 -128l-29 44l166 146z" />
    <glyph glyph-name="ecircumflex" unicode="&#xea;" horiz-adv-x="488" 
d="M540 396q0 -56 -27.5 -91t-77 -55.5t-119 -29.5t-154.5 -13v-21q0 -29 6 -54t22 -43.5t44.5 -29.5t73.5 -11q35 0 70.5 10t67.5 30l7 -60q-34 -19 -75 -29.5t-83 -10.5q-55 0 -92.5 14t-61 39t-33.5 60t-10 77q0 64 19.5 127t57.5 113t93.5 80.5t126.5 30.5
q70 0 107.5 -36.5t37.5 -96.5zM389 470q-40 0 -75 -16.5t-63 -44.5t-48.5 -65t-30.5 -78q85 2 143 11t93.5 25t50.5 38.5t15 51.5q0 39 -23.5 58.5t-61.5 19.5zM304 583l-26 33l169 147l99 -147l-34 -33l-81 96z" />
    <glyph glyph-name="edieresis" unicode="&#xeb;" horiz-adv-x="488" 
d="M540 396q0 -56 -27.5 -91t-77 -55.5t-119 -29.5t-154.5 -13v-21q0 -29 6 -54t22 -43.5t44.5 -29.5t73.5 -11q35 0 70.5 10t67.5 30l7 -60q-34 -19 -75 -29.5t-83 -10.5q-55 0 -92.5 14t-61 39t-33.5 60t-10 77q0 64 19.5 127t57.5 113t93.5 80.5t126.5 30.5
q70 0 107.5 -36.5t37.5 -96.5zM389 470q-40 0 -75 -16.5t-63 -44.5t-48.5 -65t-30.5 -78q85 2 143 11t93.5 25t50.5 38.5t15 51.5q0 39 -23.5 58.5t-61.5 19.5zM507 625q-23 0 -33.5 12.5t-10.5 29.5q0 20 13.5 37t37.5 17q22 0 32.5 -13t10.5 -29q0 -19 -13 -36.5
t-37 -17.5zM334 625q-22 0 -32.5 12.5t-10.5 29.5q0 20 13 37t37 17q23 0 33.5 -13t10.5 -29q0 -19 -13.5 -36.5t-37.5 -17.5z" />
    <glyph glyph-name="igrave" unicode="&#xec;" horiz-adv-x="235" 
d="M208 517h65l-125 -517h-65zM187 773l146 -155l-35 -35l-164 132z" />
    <glyph glyph-name="iacute" unicode="&#xed;" horiz-adv-x="235" 
d="M208 517h65l-125 -517h-65zM387 711l-175 -128l-29 44l166 146z" />
    <glyph glyph-name="icircumflex" unicode="&#xee;" horiz-adv-x="235" 
d="M208 517h65l-125 -517h-65zM154 583l-26 33l169 147l99 -147l-34 -33l-81 96z" />
    <glyph glyph-name="idieresis" unicode="&#xef;" horiz-adv-x="235" 
d="M208 517h65l-125 -517h-65zM355 625q-23 0 -33.5 12.5t-10.5 29.5q0 20 13.5 37t37.5 17q22 0 32.5 -13t10.5 -29q0 -19 -13 -36.5t-37 -17.5zM182 625q-22 0 -32.5 12.5t-10.5 29.5q0 20 13 37t37 17q23 0 33.5 -13t10.5 -29q0 -19 -13.5 -36.5t-37.5 -17.5z" />
    <glyph glyph-name="eth" unicode="&#xf0;" horiz-adv-x="562" 
d="M550 627q41 -91 41 -201q0 -37 -6 -83.5t-20 -95.5t-37 -95.5t-57.5 -83t-81.5 -58.5t-109 -22q-45 0 -79 15t-57 42t-34.5 63.5t-11.5 79.5q0 69 23.5 124.5t62 94.5t88 60t102.5 21q46 0 80 -10.5t69 -37.5q-1 41 -9.5 83.5t-26.5 83.5l-132 -42l-7 52l113 36
q-17 25 -38 47t-47 40l54 36q29 -20 53 -45.5t43 -57.5l131 42l7 -52zM290 47q55 0 95.5 27.5t68.5 72.5t43.5 102t21.5 116q-31 34 -63 49t-82 15q-49 0 -87.5 -18t-65.5 -50t-41 -75t-14 -92q0 -31 7.5 -58t22.5 -46.5t38.5 -31t55.5 -11.5z" />
    <glyph glyph-name="ntilde" unicode="&#xf1;" horiz-adv-x="546" 
d="M202 499q39 11 83 19.5t87 8.5q36 0 68 -7.5t56 -26.5t38 -50t14 -77q0 -26 -4 -53.5t-11 -55.5l-62 -257h-65l55 230q8 33 14.5 67t7.5 65q0 31 -9.5 51t-26 32t-38.5 17t-46 5q-26 0 -53 -4t-53 -10l-109 -453h-65zM462 629q-19 0 -33 6t-27 13.5t-26.5 13.5t-31.5 6
q-22 0 -36 -11.5t-30 -34.5l-36 22q8 14 18 28t23.5 25t31.5 17.5t43 6.5q18 0 32 -6t27 -13.5t27 -13.5t32 -6q22 0 36 11.5t30 34.5l36 -23q-8 -14 -18 -28t-23.5 -24.5t-31.5 -17t-43 -6.5z" />
    <glyph glyph-name="ograve" unicode="&#xf2;" horiz-adv-x="526" 
d="M164 166q0 -59 33 -89t79 -30q36 0 74 18.5t69.5 56t52 94.5t20.5 134q0 59 -33 89t-79 30q-36 0 -74 -18.5t-69.5 -56t-52 -94.5t-20.5 -134zM558 355q0 -94 -26.5 -163t-68 -114.5t-92 -67.5t-99.5 -22q-35 0 -66.5 11t-55.5 33t-38 54.5t-14 75.5q0 94 26.5 163
t68 114t92 67t99.5 22q35 0 66.5 -11t55.5 -33t38 -54.5t14 -74.5zM352 773l146 -155l-35 -35l-164 132z" />
    <glyph glyph-name="oacute" unicode="&#xf3;" horiz-adv-x="526" 
d="M164 166q0 -59 33 -89t79 -30q36 0 74 18.5t69.5 56t52 94.5t20.5 134q0 59 -33 89t-79 30q-36 0 -74 -18.5t-69.5 -56t-52 -94.5t-20.5 -134zM558 355q0 -94 -26.5 -163t-68 -114.5t-92 -67.5t-99.5 -22q-35 0 -66.5 11t-55.5 33t-38 54.5t-14 75.5q0 94 26.5 163
t68 114t92 67t99.5 22q35 0 66.5 -11t55.5 -33t38 -54.5t14 -74.5zM542 711l-175 -128l-29 44l166 146z" />
    <glyph glyph-name="ocircumflex" unicode="&#xf4;" horiz-adv-x="526" 
d="M164 166q0 -59 33 -89t79 -30q36 0 74 18.5t69.5 56t52 94.5t20.5 134q0 59 -33 89t-79 30q-36 0 -74 -18.5t-69.5 -56t-52 -94.5t-20.5 -134zM558 355q0 -94 -26.5 -163t-68 -114.5t-92 -67.5t-99.5 -22q-35 0 -66.5 11t-55.5 33t-38 54.5t-14 75.5q0 94 26.5 163
t68 114t92 67t99.5 22q35 0 66.5 -11t55.5 -33t38 -54.5t14 -74.5zM305 583l-26 33l169 147l99 -147l-34 -33l-81 96z" />
    <glyph glyph-name="otilde" unicode="&#xf5;" horiz-adv-x="526" 
d="M164 166q0 -59 33 -89t79 -30q36 0 74 18.5t69.5 56t52 94.5t20.5 134q0 59 -33 89t-79 30q-36 0 -74 -18.5t-69.5 -56t-52 -94.5t-20.5 -134zM558 355q0 -94 -26.5 -163t-68 -114.5t-92 -67.5t-99.5 -22q-35 0 -66.5 11t-55.5 33t-38 54.5t-14 75.5q0 94 26.5 163
t68 114t92 67t99.5 22q35 0 66.5 -11t55.5 -33t38 -54.5t14 -74.5zM476 629q-19 0 -33 6t-27 13.5t-26.5 13.5t-31.5 6q-22 0 -36 -11.5t-30 -34.5l-36 22q8 14 18 28t23.5 25t31.5 17.5t43 6.5q18 0 32 -6t27 -13.5t27 -13.5t32 -6q22 0 36 11.5t30 34.5l36 -23
q-8 -14 -18 -28t-23.5 -24.5t-31.5 -17t-43 -6.5z" />
    <glyph glyph-name="odieresis" unicode="&#xf6;" horiz-adv-x="526" 
d="M164 166q0 -59 33 -89t79 -30q36 0 74 18.5t69.5 56t52 94.5t20.5 134q0 59 -33 89t-79 30q-36 0 -74 -18.5t-69.5 -56t-52 -94.5t-20.5 -134zM558 355q0 -94 -26.5 -163t-68 -114.5t-92 -67.5t-99.5 -22q-35 0 -66.5 11t-55.5 33t-38 54.5t-14 75.5q0 94 26.5 163
t68 114t92 67t99.5 22q35 0 66.5 -11t55.5 -33t38 -54.5t14 -74.5zM509 625q-23 0 -33.5 12.5t-10.5 29.5q0 20 13.5 37t37.5 17q22 0 32.5 -13t10.5 -29q0 -19 -13 -36.5t-37 -17.5zM336 625q-22 0 -32.5 12.5t-10.5 29.5q0 20 13 37t37 17q23 0 33.5 -13t10.5 -29
q0 -19 -13.5 -36.5t-37.5 -17.5z" />
    <glyph glyph-name="divide" unicode="&#xf7;" horiz-adv-x="564" 
d="M295 56q-20 0 -30 14t-5 35q5 22 22 36t37 14q21 0 31 -14t5 -36q-5 -21 -22 -35t-38 -14zM386 432q-20 0 -30 14t-5 36q5 21 22 35t37 14q21 0 31 -14t5 -35q-5 -22 -22 -36t-38 -14zM134 322h452l-13 -56h-452z" />
    <glyph glyph-name="oslash" unicode="&#xf8;" horiz-adv-x="526" 
d="M558 355q0 -94 -26.5 -163t-68 -114.5t-92 -67.5t-99.5 -22q-30 0 -58 8t-51 25l-49 -56l-39 33l53 60q-14 20 -22 46t-8 58q0 94 26.5 163t68 114t92 67t99.5 22q35 0 66 -11t55 -32l54 61l39 -32l-62 -70q22 -38 22 -89zM164 166q0 -17 2.5 -30.5t7.5 -25.5l288 326
q-32 33 -82 33q-36 0 -74 -18.5t-69.5 -56t-52 -94.5t-20.5 -134zM492 350q0 20 -5 38l-281 -319q28 -22 70 -22q36 0 74 18.5t69.5 56t52 94.5t20.5 134z" />
    <glyph glyph-name="ugrave" unicode="&#xf9;" 
d="M248 -12q-43 0 -72 11t-46 30.5t-24.5 46t-7.5 57.5q0 29 5 61.5t13 65.5l62 257h65l-55 -228q-8 -35 -17.5 -73.5t-9.5 -73.5q0 -20 4.5 -37t15.5 -30t29 -20t46 -7q48 0 84.5 19t68.5 55q0 27 8 62t15 63l67 270h65l-79 -320q-6 -25 -10 -47t-4 -42q0 -27 5 -51t18 -53
l-67 -10q-6 12 -10.5 27.5t-6.5 31.5q-35 -34 -74.5 -49.5t-87.5 -15.5zM298 773l146 -155l-35 -35l-164 132z" />
    <glyph glyph-name="uacute" unicode="&#xfa;" 
d="M248 -12q-43 0 -72 11t-46 30.5t-24.5 46t-7.5 57.5q0 29 5 61.5t13 65.5l62 257h65l-55 -228q-8 -35 -17.5 -73.5t-9.5 -73.5q0 -20 4.5 -37t15.5 -30t29 -20t46 -7q48 0 84.5 19t68.5 55q0 27 8 62t15 63l67 270h65l-79 -320q-6 -25 -10 -47t-4 -42q0 -27 5 -51t18 -53
l-67 -10q-6 12 -10.5 27.5t-6.5 31.5q-35 -34 -74.5 -49.5t-87.5 -15.5zM518 711l-175 -128l-29 44l166 146z" />
    <glyph glyph-name="ucircumflex" unicode="&#xfb;" 
d="M248 -12q-43 0 -72 11t-46 30.5t-24.5 46t-7.5 57.5q0 29 5 61.5t13 65.5l62 257h65l-55 -228q-8 -35 -17.5 -73.5t-9.5 -73.5q0 -20 4.5 -37t15.5 -30t29 -20t46 -7q48 0 84.5 19t68.5 55q0 27 8 62t15 63l67 270h65l-79 -320q-6 -25 -10 -47t-4 -42q0 -27 5 -51t18 -53
l-67 -10q-6 12 -10.5 27.5t-6.5 31.5q-35 -34 -74.5 -49.5t-87.5 -15.5zM278 583l-26 33l169 147l99 -147l-34 -33l-81 96z" />
    <glyph glyph-name="udieresis" unicode="&#xfc;" 
d="M248 -12q-43 0 -72 11t-46 30.5t-24.5 46t-7.5 57.5q0 29 5 61.5t13 65.5l62 257h65l-55 -228q-8 -35 -17.5 -73.5t-9.5 -73.5q0 -20 4.5 -37t15.5 -30t29 -20t46 -7q48 0 84.5 19t68.5 55q0 27 8 62t15 63l67 270h65l-79 -320q-6 -25 -10 -47t-4 -42q0 -27 5 -51t18 -53
l-67 -10q-6 12 -10.5 27.5t-6.5 31.5q-35 -34 -74.5 -49.5t-87.5 -15.5zM485 625q-23 0 -33.5 12.5t-10.5 29.5q0 20 13.5 37t37.5 17q22 0 32.5 -13t10.5 -29q0 -19 -13 -36.5t-37 -17.5zM312 625q-22 0 -32.5 12.5t-10.5 29.5q0 20 13 37t37 17q23 0 33.5 -13t10.5 -29
q0 -19 -13.5 -36.5t-37.5 -17.5z" />
    <glyph glyph-name="yacute" unicode="&#xfd;" horiz-adv-x="452" 
d="M-36 -116q27 -15 61 -15q51 0 100 28t91 85q-42 133 -66 270t-28 265h68q2 -48 6.5 -105t13.5 -119t22 -126.5t32 -125.5q45 71 81 143.5t63 136.5t44.5 115.5t25.5 80.5h64q-6 -21 -22 -71.5t-43 -117.5t-65.5 -144.5t-88.5 -151.5q-77 -115 -149 -167.5t-150 -52.5
q-18 0 -39 3t-44 15zM474 711l-175 -128l-29 44l166 146z" />
    <glyph glyph-name="thorn" unicode="&#xfe;" horiz-adv-x="519" 
d="M273 517q48 12 96 12q92 0 137 -48t45 -142q0 -69 -22 -132t-64.5 -111t-104 -76.5t-140.5 -28.5q-39 0 -72 9l-44 -185h-66l138 573l26 108l64 268l68 12zM164 60q31 -9 63 -9q62 0 110 23.5t81 62t50 88.5t17 104q0 75 -33 109.5t-99 34.5q-23 0 -46.5 -4t-48.5 -11z
" />
    <glyph glyph-name="ydieresis" unicode="&#xff;" horiz-adv-x="452" 
d="M-36 -116q27 -15 61 -15q51 0 100 28t91 85q-42 133 -66 270t-28 265h68q2 -48 6.5 -105t13.5 -119t22 -126.5t32 -125.5q45 71 81 143.5t63 136.5t44.5 115.5t25.5 80.5h64q-6 -21 -22 -71.5t-43 -117.5t-65.5 -144.5t-88.5 -151.5q-77 -115 -149 -167.5t-150 -52.5
q-18 0 -39 3t-44 15zM436 625q-23 0 -33.5 12.5t-10.5 29.5q0 20 13.5 37t37.5 17q22 0 32.5 -13t10.5 -29q0 -19 -13 -36.5t-37 -17.5zM263 625q-22 0 -32.5 12.5t-10.5 29.5q0 20 13 37t37 17q23 0 33.5 -13t10.5 -29q0 -19 -13.5 -36.5t-37.5 -17.5z" />
    <glyph glyph-name="Amacron" unicode="&#x100;" horiz-adv-x="622" 
d="M546 0q-5 48 -10.5 95t-11.5 95h-326q-26 -46 -52 -93t-52 -97h-74q103 186 212 362t214 331h73q25 -146 49.5 -315.5t47.5 -377.5h-70zM465 615q-61 -93 -119 -183t-114 -184h285q-11 90 -24 180.5t-28 186.5zM373 787l13 57h259l-13 -57h-259z" />
    <glyph glyph-name="amacron" unicode="&#x101;" 
d="M487 461q-18 4 -33 6t-31 2q-62 0 -110 -24t-81 -63t-50.5 -89t-17.5 -102q0 -41 8 -68.5t22 -44t32.5 -24t39.5 -7.5q41 0 77 19.5t68 55.5q0 27 8 62t15 63zM429 -6q-6 12 -10.5 27.5t-6.5 31.5q-35 -34 -73.5 -50t-79.5 -16q-32 0 -61 11t-51 34t-35.5 59.5
t-13.5 86.5q0 80 26 145t72.5 110.5t110 70.5t138.5 25q62 0 119 -21l-77 -311q-6 -25 -10 -47t-4 -42q0 -27 5 -51t18 -53zM291 647l13 57h259l-13 -57h-259z" />
    <glyph glyph-name="Abreve" unicode="&#x102;" horiz-adv-x="622" 
d="M546 0q-5 48 -10.5 95t-11.5 95h-326q-26 -46 -52 -93t-52 -97h-74q103 186 212 362t214 331h73q25 -146 49.5 -315.5t47.5 -377.5h-70zM465 615q-61 -93 -119 -183t-114 -184h285q-11 90 -24 180.5t-28 186.5zM392 903h42q-1 -5 -1 -9v-8q0 -28 15.5 -44t46.5 -16
q27 0 44.5 9.5t28.5 22t16.5 25.5t7.5 20h42q-8 -69 -47.5 -101t-100.5 -32q-49 0 -73.5 28.5t-24.5 71.5q0 7 1 15.5t3 17.5z" />
    <glyph glyph-name="abreve" unicode="&#x103;" 
d="M487 461q-18 4 -33 6t-31 2q-62 0 -110 -24t-81 -63t-50.5 -89t-17.5 -102q0 -41 8 -68.5t22 -44t32.5 -24t39.5 -7.5q41 0 77 19.5t68 55.5q0 27 8 62t15 63zM429 -6q-6 12 -10.5 27.5t-6.5 31.5q-35 -34 -73.5 -50t-79.5 -16q-32 0 -61 11t-51 34t-35.5 59.5
t-13.5 86.5q0 80 26 145t72.5 110.5t110 70.5t138.5 25q62 0 119 -21l-77 -311q-6 -25 -10 -47t-4 -42q0 -27 5 -51t18 -53zM325 746h42q-1 -5 -1 -9v-8q0 -28 15.5 -44t46.5 -16q27 0 44.5 9.5t28.5 22t16.5 25.5t7.5 20h42q-8 -69 -47.5 -101t-100.5 -32q-49 0 -73.5 28.5
t-24.5 71.5q0 7 1 15.5t3 17.5z" />
    <glyph glyph-name="Aogonek" unicode="&#x104;" horiz-adv-x="622" 
d="M546 0q-5 48 -10.5 95t-11.5 95h-326q-26 -46 -52 -93t-52 -97h-74q103 186 212 362t214 331h73q25 -146 49.5 -315.5t47.5 -377.5q-56 -36 -78 -61.5t-22 -45.5q0 -12 8.5 -18t21 -8t25.5 -0.5t22 3.5l-7 -49q-14 -3 -26.5 -5t-26.5 -2q-16 0 -30 3t-25 10.5t-17.5 19.5
t-6.5 31q0 18 9 35t22.5 32.5t30.5 29.5t33 25h-3zM465 615q-61 -93 -119 -183t-114 -184h285q-11 90 -24 180.5t-28 186.5z" />
    <glyph glyph-name="aogonek" unicode="&#x105;" 
d="M331 -122q0 18 9 35t22.5 32.5t30.5 29.5t33 25q-11 23 -14 53q-35 -34 -73.5 -50t-79.5 -16q-32 0 -61 11t-51 34t-35.5 59.5t-13.5 86.5q0 80 26 145t72.5 110.5t110 70.5t138.5 25q62 0 119 -21l-77 -311q-6 -25 -10 -47t-4 -42q0 -27 5 -51t18 -53
q-56 -36 -79.5 -63.5t-23.5 -47.5q0 -12 8.5 -18t21 -8t25.5 -0.5t22 3.5l-7 -49q-14 -3 -26.5 -5t-26.5 -2q-16 0 -30 3t-25 10.5t-17.5 19.5t-6.5 31zM487 461q-18 4 -33 6t-31 2q-62 0 -110 -24t-81 -63t-50.5 -89t-17.5 -102q0 -41 8 -68.5t22 -44t32.5 -24t39.5 -7.5
q41 0 77 19.5t68 55.5q0 27 8 62t15 63z" />
    <glyph glyph-name="Cacute" unicode="&#x106;" horiz-adv-x="610" 
d="M587 31q-41 -22 -93 -34t-103 -12q-56 0 -102.5 15.5t-80 48t-52 83t-18.5 121.5q0 107 33 191.5t89 143t129 89.5t153 31q47 0 87.5 -10t82.5 -33l-31 -62q-72 44 -153 44q-63 0 -120.5 -27.5t-101.5 -78.5t-70 -123.5t-26 -162.5q0 -102 44 -155.5t135 -53.5q40 0 71 5
t53.5 12t38 14.5t26.5 13.5zM696 861l-175 -128l-29 44l166 146z" />
    <glyph glyph-name="cacute" unicode="&#x107;" horiz-adv-x="455" 
d="M435 25q-20 -13 -61.5 -25t-92.5 -12q-91 0 -137 52t-46 143q0 68 21 130.5t61.5 110.5t99.5 76.5t134 28.5q52 0 103 -17l-27 -59q-23 9 -45.5 12.5t-43.5 3.5q-53 0 -96.5 -22.5t-74.5 -61t-48 -89t-17 -106.5q0 -66 30.5 -104t97.5 -38q21 0 42.5 4t39.5 9.5t32 11.5
t21 11zM543 711l-175 -128l-29 44l166 146z" />
    <glyph glyph-name="Ccircumflex" unicode="&#x108;" horiz-adv-x="610" 
d="M587 31q-41 -22 -93 -34t-103 -12q-56 0 -102.5 15.5t-80 48t-52 83t-18.5 121.5q0 107 33 191.5t89 143t129 89.5t153 31q47 0 87.5 -10t82.5 -33l-31 -62q-72 44 -153 44q-63 0 -120.5 -27.5t-101.5 -78.5t-70 -123.5t-26 -162.5q0 -102 44 -155.5t135 -53.5q40 0 71 5
t53.5 12t38 14.5t26.5 13.5zM434 734l-26 33l169 147l99 -147l-34 -33l-81 96z" />
    <glyph glyph-name="ccircumflex" unicode="&#x109;" horiz-adv-x="455" 
d="M435 25q-20 -13 -61.5 -25t-92.5 -12q-91 0 -137 52t-46 143q0 68 21 130.5t61.5 110.5t99.5 76.5t134 28.5q52 0 103 -17l-27 -59q-23 9 -45.5 12.5t-43.5 3.5q-53 0 -96.5 -22.5t-74.5 -61t-48 -89t-17 -106.5q0 -66 30.5 -104t97.5 -38q21 0 42.5 4t39.5 9.5t32 11.5
t21 11zM293 583l-26 33l169 147l99 -147l-34 -33l-81 96z" />
    <glyph glyph-name="Cdotaccent" unicode="&#x10a;" horiz-adv-x="610" 
d="M587 31q-41 -22 -93 -34t-103 -12q-56 0 -102.5 15.5t-80 48t-52 83t-18.5 121.5q0 107 33 191.5t89 143t129 89.5t153 31q47 0 87.5 -10t82.5 -33l-31 -62q-72 44 -153 44q-63 0 -120.5 -27.5t-101.5 -78.5t-70 -123.5t-26 -162.5q0 -102 44 -155.5t135 -53.5q40 0 71 5
t53.5 12t38 14.5t26.5 13.5zM564 775q-26 0 -37 14t-11 32q0 21 14.5 40t40.5 19t37 -14t11 -32q0 -21 -14.5 -40t-40.5 -19z" />
    <glyph glyph-name="cdotaccent" unicode="&#x10b;" horiz-adv-x="455" 
d="M435 25q-20 -13 -61.5 -25t-92.5 -12q-91 0 -137 52t-46 143q0 68 21 130.5t61.5 110.5t99.5 76.5t134 28.5q52 0 103 -17l-27 -59q-23 9 -45.5 12.5t-43.5 3.5q-53 0 -96.5 -22.5t-74.5 -61t-48 -89t-17 -106.5q0 -66 30.5 -104t97.5 -38q21 0 42.5 4t39.5 9.5t32 11.5
t21 11zM420 621q-26 0 -37 14t-11 32q0 21 14.5 40t40.5 19t37 -14t11 -32q0 -21 -14.5 -40t-40.5 -19z" />
    <glyph glyph-name="Ccaron" unicode="&#x10c;" horiz-adv-x="610" 
d="M587 31q-41 -22 -93 -34t-103 -12q-56 0 -102.5 15.5t-80 48t-52 83t-18.5 121.5q0 107 33 191.5t89 143t129 89.5t153 31q47 0 87.5 -10t82.5 -33l-31 -62q-72 44 -153 44q-63 0 -120.5 -27.5t-101.5 -78.5t-70 -123.5t-26 -162.5q0 -102 44 -155.5t135 -53.5q40 0 71 5
t53.5 12t38 14.5t26.5 13.5zM694 916l26 -33l-169 -147l-99 147l34 33l81 -96z" />
    <glyph glyph-name="ccaron" unicode="&#x10d;" horiz-adv-x="455" 
d="M435 25q-20 -13 -61.5 -25t-92.5 -12q-91 0 -137 52t-46 143q0 68 21 130.5t61.5 110.5t99.5 76.5t134 28.5q52 0 103 -17l-27 -59q-23 9 -45.5 12.5t-43.5 3.5q-53 0 -96.5 -22.5t-74.5 -61t-48 -89t-17 -106.5q0 -66 30.5 -104t97.5 -38q21 0 42.5 4t39.5 9.5t32 11.5
t21 11zM544 763l26 -33l-169 -147l-99 147l34 33l81 -96z" />
    <glyph glyph-name="Dcaron" unicode="&#x10e;" horiz-adv-x="679" 
d="M162 60q25 -4 48 -5.5t46 -1.5q94 0 165.5 27.5t119.5 75.5t72.5 113.5t24.5 142.5q0 115 -57.5 172t-179.5 57q-25 0 -50.5 -2t-51.5 -6zM242 680q49 11 89 15t79 4q153 0 227 -74t74 -210q0 -92 -30 -169.5t-88.5 -133.5t-145.5 -87t-201 -31q-20 0 -42.5 1.5t-44 3.5
t-41.5 5.5t-35 8.5zM606 916l26 -33l-169 -147l-99 147l34 33l81 -96z" />
    <glyph glyph-name="dcaron" unicode="&#x10f;" horiz-adv-x="540" 
d="M493 464q-14 2 -31 3.5t-31 1.5q-70 0 -120.5 -25.5t-83 -66t-48 -90t-15.5 -97.5q0 -30 5.5 -55.5t17.5 -45t31 -30.5t46 -11q25 0 47.5 7t42 17.5t35.5 23.5t27 25q0 26 7 58.5t16 67.5zM434 -6q-5 10 -10 26.5t-7 32.5q-9 -10 -23.5 -21.5t-34.5 -21t-45 -16t-55 -6.5
q-43 0 -73.5 15.5t-50 41.5t-28.5 61.5t-9 74.5q0 63 20.5 125t63 111.5t107.5 80.5t153 31q32 0 65 -6l57 241l68 12l-144 -597q-5 -18 -7.5 -35t-2.5 -33q0 -29 5 -55t18 -52zM771 776l-77 -217h-47l53 217h71z" />
    <glyph glyph-name="Dcroat" unicode="&#x110;" horiz-adv-x="692" 
d="M173 335h-80l13 55h80l69 290q49 11 89 15t79 4q144 0 222.5 -67.5t78.5 -205.5q0 -79 -24 -156.5t-79 -138.5t-143.5 -99t-218.5 -38q-20 0 -42.5 1.5t-44 3.5t-41.5 5.5t-35 8.5zM254 390h131l-13 -55h-131l-66 -275q25 -4 48 -5.5t46 -1.5q89 0 160 26.5t120.5 75.5
t76 119t26.5 156q0 58 -19 98.5t-51.5 65.5t-75.5 36t-92 11q-25 0 -50.5 -2t-51.5 -6z" />
    <glyph glyph-name="dcroat" unicode="&#x111;" horiz-adv-x="540" 
d="M434 -6q-5 10 -10 26.5t-7 32.5q-9 -10 -23.5 -21.5t-34.5 -21t-45 -16t-55 -6.5q-43 0 -73.5 15.5t-50 41.5t-28.5 61.5t-9 74.5q0 63 20.5 125t63 111.5t107.5 80.5t153 31q32 0 65 -6l23 100h-154l12 52h155l21 89l68 12l-25 -101h80l-12 -52h-80l-107 -444
q-5 -18 -7.5 -35t-2.5 -33q0 -29 5 -55t18 -52zM493 464q-14 2 -31 3.5t-31 1.5q-70 0 -120.5 -25.5t-83 -66t-48 -90t-15.5 -97.5q0 -30 5.5 -55.5t17.5 -45t31 -30.5t46 -11q25 0 47.5 7t42 17.5t35.5 23.5t27 25q0 26 7 58.5t16 67.5z" />
    <glyph glyph-name="Emacron" unicode="&#x112;" horiz-adv-x="524" 
d="M249 693h387l-13 -59h-321l-59 -241h286l-13 -58h-284l-69 -276h344l-12 -59h-412zM336 787l13 57h259l-13 -57h-259z" />
    <glyph glyph-name="emacron" unicode="&#x113;" horiz-adv-x="488" 
d="M540 396q0 -56 -27.5 -91t-77 -55.5t-119 -29.5t-154.5 -13v-21q0 -29 6 -54t22 -43.5t44.5 -29.5t73.5 -11q35 0 70.5 10t67.5 30l7 -60q-34 -19 -75 -29.5t-83 -10.5q-55 0 -92.5 14t-61 39t-33.5 60t-10 77q0 64 19.5 127t57.5 113t93.5 80.5t126.5 30.5
q70 0 107.5 -36.5t37.5 -96.5zM389 470q-40 0 -75 -16.5t-63 -44.5t-48.5 -65t-30.5 -78q85 2 143 11t93.5 25t50.5 38.5t15 51.5q0 39 -23.5 58.5t-61.5 19.5zM290 647l13 57h259l-13 -57h-259z" />
    <glyph glyph-name="Ebreve" unicode="&#x114;" horiz-adv-x="524" 
d="M249 693h387l-13 -59h-321l-59 -241h286l-13 -58h-284l-69 -276h344l-12 -59h-412zM369 903h42q-1 -5 -1 -9v-8q0 -28 15.5 -44t46.5 -16q27 0 44.5 9.5t28.5 22t16.5 25.5t7.5 20h42q-8 -69 -47.5 -101t-100.5 -32q-49 0 -73.5 28.5t-24.5 71.5q0 7 1 15.5t3 17.5z" />
    <glyph glyph-name="ebreve" unicode="&#x115;" horiz-adv-x="488" 
d="M540 396q0 -56 -27.5 -91t-77 -55.5t-119 -29.5t-154.5 -13v-21q0 -29 6 -54t22 -43.5t44.5 -29.5t73.5 -11q35 0 70.5 10t67.5 30l7 -60q-34 -19 -75 -29.5t-83 -10.5q-55 0 -92.5 14t-61 39t-33.5 60t-10 77q0 64 19.5 127t57.5 113t93.5 80.5t126.5 30.5
q70 0 107.5 -36.5t37.5 -96.5zM389 470q-40 0 -75 -16.5t-63 -44.5t-48.5 -65t-30.5 -78q85 2 143 11t93.5 25t50.5 38.5t15 51.5q0 39 -23.5 58.5t-61.5 19.5zM311 746h42q-1 -5 -1 -9v-8q0 -28 15.5 -44t46.5 -16q27 0 44.5 9.5t28.5 22t16.5 25.5t7.5 20h42
q-8 -69 -47.5 -101t-100.5 -32q-49 0 -73.5 28.5t-24.5 71.5q0 7 1 15.5t3 17.5z" />
    <glyph glyph-name="Edotaccent" unicode="&#x116;" horiz-adv-x="524" 
d="M249 693h387l-13 -59h-321l-59 -241h286l-13 -58h-284l-69 -276h344l-12 -59h-412zM477 775q-26 0 -37 14t-11 32q0 21 14.5 40t40.5 19t37 -14t11 -32q0 -21 -14.5 -40t-40.5 -19z" />
    <glyph glyph-name="edotaccent" unicode="&#x117;" horiz-adv-x="488" 
d="M540 396q0 -56 -27.5 -91t-77 -55.5t-119 -29.5t-154.5 -13v-21q0 -29 6 -54t22 -43.5t44.5 -29.5t73.5 -11q35 0 70.5 10t67.5 30l7 -60q-34 -19 -75 -29.5t-83 -10.5q-55 0 -92.5 14t-61 39t-33.5 60t-10 77q0 64 19.5 127t57.5 113t93.5 80.5t126.5 30.5
q70 0 107.5 -36.5t37.5 -96.5zM389 470q-40 0 -75 -16.5t-63 -44.5t-48.5 -65t-30.5 -78q85 2 143 11t93.5 25t50.5 38.5t15 51.5q0 39 -23.5 58.5t-61.5 19.5zM427 621q-26 0 -37 14t-11 32q0 21 14.5 40t40.5 19t37 -14t11 -32q0 -21 -14.5 -40t-40.5 -19z" />
    <glyph glyph-name="Eogonek" unicode="&#x118;" horiz-adv-x="524" 
d="M249 693h387l-13 -59h-321l-59 -241h286l-13 -58h-284l-69 -276h344l-12 -59q-56 -36 -78 -61.5t-22 -45.5q0 -12 8.5 -18t21 -8t25.5 -0.5t22 3.5l-7 -49q-14 -3 -26.5 -5t-26.5 -2q-16 0 -30 3t-25 10.5t-17.5 19.5t-6.5 31q0 18 9 35t22.5 32.5t30.5 29.5t33 25h-345z
" />
    <glyph glyph-name="eogonek" unicode="&#x119;" horiz-adv-x="488" 
d="M261 -122q0 16 7.5 32t19 30.5t26.5 27.5t30 24q-12 -2 -24.5 -3t-24.5 -1q-55 0 -92.5 14t-61 39t-33.5 60t-10 77q0 64 19.5 127t57.5 113t93.5 80.5t126.5 30.5q70 0 107.5 -36.5t37.5 -96.5q0 -59 -27.5 -95.5t-77 -57.5t-119 -30t-154.5 -13v-14q0 -29 6 -54
t22 -43.5t44.5 -29.5t73.5 -11q35 0 70.5 10t67.5 30l7 -60q-68 -48 -99 -78.5t-31 -56.5q0 -12 8.5 -18t21 -8t25.5 -0.5t22 3.5l-7 -49q-14 -3 -26.5 -5t-26.5 -2q-16 0 -30 3t-25 10.5t-17.5 19.5t-6.5 31zM389 470q-41 0 -76 -16.5t-63.5 -45t-48.5 -66t-30 -79.5
q86 1 144 10t93.5 24.5t50.5 39t15 55.5q0 39 -23.5 58.5t-61.5 19.5z" />
    <glyph glyph-name="Ecaron" unicode="&#x11a;" horiz-adv-x="524" 
d="M249 693h387l-13 -59h-321l-59 -241h286l-13 -58h-284l-69 -276h344l-12 -59h-412zM598 916l26 -33l-169 -147l-99 147l34 33l81 -96z" />
    <glyph glyph-name="ecaron" unicode="&#x11b;" horiz-adv-x="488" 
d="M540 396q0 -56 -27.5 -91t-77 -55.5t-119 -29.5t-154.5 -13v-21q0 -29 6 -54t22 -43.5t44.5 -29.5t73.5 -11q35 0 70.5 10t67.5 30l7 -60q-34 -19 -75 -29.5t-83 -10.5q-55 0 -92.5 14t-61 39t-33.5 60t-10 77q0 64 19.5 127t57.5 113t93.5 80.5t126.5 30.5
q70 0 107.5 -36.5t37.5 -96.5zM389 470q-40 0 -75 -16.5t-63 -44.5t-48.5 -65t-30.5 -78q85 2 143 11t93.5 25t50.5 38.5t15 51.5q0 39 -23.5 58.5t-61.5 19.5zM527 763l26 -33l-169 -147l-99 147l34 33l81 -96z" />
    <glyph glyph-name="Gcircumflex" unicode="&#x11c;" horiz-adv-x="640" 
d="M593 324h68l-72 -301q-45 -18 -93 -28t-93 -10q-69 0 -119.5 19t-82.5 55t-47.5 86.5t-15.5 113.5q0 88 28 169t80 143t126.5 99.5t166.5 37.5q45 0 77 -5t54.5 -12t36.5 -15t25 -13l-31 -62q-3 3 -17 10.5t-36.5 15.5t-52 14t-64.5 6q-74 0 -133.5 -32t-101 -85
t-64 -122.5t-22.5 -145.5q0 -104 45 -160t145 -56q32 0 65.5 5.5t68.5 17.5zM446 734l-26 33l169 147l99 -147l-34 -33l-81 96z" />
    <glyph glyph-name="gcircumflex" unicode="&#x11d;" horiz-adv-x="524" 
d="M492 462q-32 8 -62 8q-69 0 -119.5 -24t-83.5 -61.5t-49 -83t-16 -87.5q0 -27 5 -51.5t17 -42.5t33 -28.5t54 -10.5q34 0 70.5 12.5t69.5 33.5zM44 -89q21 -17 60.5 -28t78.5 -11q92 0 141.5 42t64.5 119l5 26q-30 -19 -64 -28.5t-68 -9.5q-43 0 -74.5 14t-51.5 38.5
t-30 57t-10 69.5q0 57 20.5 115.5t63.5 106t107.5 77.5t153.5 30q36 0 68 -7.5t57 -21.5l-112 -466q-10 -42 -26 -82t-47 -71t-82.5 -50t-132.5 -19q-16 0 -36 2.5t-40.5 7.5t-39.5 11.5t-34 15.5zM299 583l-26 33l169 147l99 -147l-34 -33l-81 96z" />
    <glyph glyph-name="Gbreve" unicode="&#x11e;" horiz-adv-x="640" 
d="M593 324h68l-72 -301q-45 -18 -93 -28t-93 -10q-69 0 -119.5 19t-82.5 55t-47.5 86.5t-15.5 113.5q0 88 28 169t80 143t126.5 99.5t166.5 37.5q45 0 77 -5t54.5 -12t36.5 -15t25 -13l-31 -62q-3 3 -17 10.5t-36.5 15.5t-52 14t-64.5 6q-74 0 -133.5 -32t-101 -85
t-64 -122.5t-22.5 -145.5q0 -104 45 -160t145 -56q32 0 65.5 5.5t68.5 17.5zM449 903h42q-1 -5 -1 -9v-8q0 -28 15.5 -44t46.5 -16q27 0 44.5 9.5t28.5 22t16.5 25.5t7.5 20h42q-8 -69 -47.5 -101t-100.5 -32q-49 0 -73.5 28.5t-24.5 71.5q0 7 1 15.5t3 17.5z" />
    <glyph glyph-name="gbreve" unicode="&#x11f;" horiz-adv-x="524" 
d="M492 462q-32 8 -62 8q-69 0 -119.5 -24t-83.5 -61.5t-49 -83t-16 -87.5q0 -27 5 -51.5t17 -42.5t33 -28.5t54 -10.5q34 0 70.5 12.5t69.5 33.5zM44 -89q21 -17 60.5 -28t78.5 -11q92 0 141.5 42t64.5 119l5 26q-30 -19 -64 -28.5t-68 -9.5q-43 0 -74.5 14t-51.5 38.5
t-30 57t-10 69.5q0 57 20.5 115.5t63.5 106t107.5 77.5t153.5 30q36 0 68 -7.5t57 -21.5l-112 -466q-10 -42 -26 -82t-47 -71t-82.5 -50t-132.5 -19q-16 0 -36 2.5t-40.5 7.5t-39.5 11.5t-34 15.5zM333 746h42q-1 -5 -1 -9v-8q0 -28 15.5 -44t46.5 -16q27 0 44.5 9.5
t28.5 22t16.5 25.5t7.5 20h42q-8 -69 -47.5 -101t-100.5 -32q-49 0 -73.5 28.5t-24.5 71.5q0 7 1 15.5t3 17.5z" />
    <glyph glyph-name="Gdotaccent" unicode="&#x120;" horiz-adv-x="640" 
d="M593 324h68l-72 -301q-45 -18 -93 -28t-93 -10q-69 0 -119.5 19t-82.5 55t-47.5 86.5t-15.5 113.5q0 88 28 169t80 143t126.5 99.5t166.5 37.5q45 0 77 -5t54.5 -12t36.5 -15t25 -13l-31 -62q-3 3 -17 10.5t-36.5 15.5t-52 14t-64.5 6q-74 0 -133.5 -32t-101 -85
t-64 -122.5t-22.5 -145.5q0 -104 45 -160t145 -56q32 0 65.5 5.5t68.5 17.5zM561 775q-26 0 -37 14t-11 32q0 21 14.5 40t40.5 19t37 -14t11 -32q0 -21 -14.5 -40t-40.5 -19z" />
    <glyph glyph-name="gdotaccent" unicode="&#x121;" horiz-adv-x="524" 
d="M492 462q-32 8 -62 8q-69 0 -119.5 -24t-83.5 -61.5t-49 -83t-16 -87.5q0 -27 5 -51.5t17 -42.5t33 -28.5t54 -10.5q34 0 70.5 12.5t69.5 33.5zM44 -89q21 -17 60.5 -28t78.5 -11q92 0 141.5 42t64.5 119l5 26q-30 -19 -64 -28.5t-68 -9.5q-43 0 -74.5 14t-51.5 38.5
t-30 57t-10 69.5q0 57 20.5 115.5t63.5 106t107.5 77.5t153.5 30q36 0 68 -7.5t57 -21.5l-112 -466q-10 -42 -26 -82t-47 -71t-82.5 -50t-132.5 -19q-16 0 -36 2.5t-40.5 7.5t-39.5 11.5t-34 15.5zM449 621q-26 0 -37 14t-11 32q0 21 14.5 40t40.5 19t37 -14t11 -32
q0 -21 -14.5 -40t-40.5 -19z" />
    <glyph glyph-name="Gcommaaccent" unicode="&#x122;" horiz-adv-x="640" 
d="M593 324h68l-72 -301q-45 -18 -93 -28t-93 -10q-69 0 -119.5 19t-82.5 55t-47.5 86.5t-15.5 113.5q0 88 28 169t80 143t126.5 99.5t166.5 37.5q45 0 77 -5t54.5 -12t36.5 -15t25 -13l-31 -62q-3 3 -17 10.5t-36.5 15.5t-52 14t-64.5 6q-74 0 -133.5 -32t-101 -85
t-64 -122.5t-22.5 -145.5q0 -104 45 -160t145 -56q32 0 65.5 5.5t68.5 17.5zM251 -139q21 -3 36 3.5t24.5 19t15.5 29.5t11 37h72q-4 -29 -17.5 -56t-35.5 -47t-51.5 -29t-65.5 0z" />
    <glyph glyph-name="gcommaaccent" unicode="&#x123;" horiz-adv-x="524" 
d="M492 462q-32 8 -62 8q-69 0 -119.5 -24t-83.5 -61.5t-49 -83t-16 -87.5q0 -27 5 -51.5t17 -42.5t33 -28.5t54 -10.5q34 0 70.5 12.5t69.5 33.5zM44 -89q21 -17 60.5 -28t78.5 -11q92 0 141.5 42t64.5 119l5 26q-30 -19 -64 -28.5t-68 -9.5q-43 0 -74.5 14t-51.5 38.5
t-30 57t-10 69.5q0 57 20.5 115.5t63.5 106t107.5 77.5t153.5 30q36 0 68 -7.5t57 -21.5l-112 -466q-10 -42 -26 -82t-47 -71t-82.5 -50t-132.5 -19q-16 0 -36 2.5t-40.5 7.5t-39.5 11.5t-34 15.5zM376 614q3 32 14 59t29 48t42 34.5t51 18.5l21 -35q-18 -9 -32 -18.5
t-24 -23.5t-18 -33.5t-14 -49.5h-69z" />
    <glyph glyph-name="Hcircumflex" unicode="&#x124;" horiz-adv-x="655" 
d="M249 693h68l-74 -301h359l72 301h68l-165 -693h-68l80 333h-358l-80 -333h-68zM400 734l-26 33l169 147l99 -147l-34 -33l-81 96z" />
    <glyph glyph-name="hcircumflex" unicode="&#x125;" horiz-adv-x="545" 
d="M148 0h-65l182 764l68 12l-66 -273q63 26 119 26q34 0 63 -10t51 -30t34.5 -50.5t12.5 -72.5q0 -26 -4 -53.5t-11 -55.5l-62 -257h-65l55 230q8 33 15 67t7 65q0 30 -9.5 50.5t-25 33t-36.5 18t-44 5.5q-29 0 -58.5 -6t-55.5 -15zM244 863l131 94l91 -100l-30 -33l-72 69
l-98 -68z" />
    <glyph glyph-name="Hbar" unicode="&#x126;" horiz-adv-x="675" 
d="M220 532h-81l13 54h81l26 107h68l-27 -107h358l26 107h68l-26 -107h78l-13 -54h-78l-126 -532h-68l80 333h-358l-80 -333h-68zM612 392l33 140h-358l-34 -140h359z" />
    <glyph glyph-name="hbar" unicode="&#x127;" horiz-adv-x="545" 
d="M465 623h-169l-29 -120q63 26 119 26q34 0 63 -10t51 -30t34.5 -50.5t12.5 -72.5q0 -26 -4 -53.5t-11 -55.5l-62 -257h-65l55 230q8 33 15 67t7 65q0 30 -9.5 50.5t-25 33t-36.5 18t-44 5.5q-29 0 -58.5 -6t-55.5 -15l-105 -448h-65l148 623h-65l12 52h66l21 89l68 12
l-25 -101h169z" />
    <glyph glyph-name="Itilde" unicode="&#x128;" horiz-adv-x="230" 
d="M249 693h68l-165 -693h-69zM362 781q-19 0 -33 6t-27 13.5t-26.5 13.5t-31.5 6q-22 0 -36 -11.5t-30 -34.5l-36 22q8 14 18 28t23.5 25t31.5 17.5t43 6.5q18 0 32 -6t27 -13.5t27 -13.5t32 -6q22 0 36 11.5t30 34.5l36 -23q-8 -14 -18 -28t-23.5 -24.5t-31.5 -17
t-43 -6.5z" />
    <glyph glyph-name="itilde" unicode="&#x129;" horiz-adv-x="235" 
d="M208 517h65l-125 -517h-65zM329 629q-19 0 -33 6t-27 13.5t-26.5 13.5t-31.5 6q-22 0 -36 -11.5t-30 -34.5l-36 22q8 14 18 28t23.5 25t31.5 17.5t43 6.5q18 0 32 -6t27 -13.5t27 -13.5t32 -6q22 0 36 11.5t30 34.5l36 -23q-8 -14 -18 -28t-23.5 -24.5t-31.5 -17
t-43 -6.5z" />
    <glyph glyph-name="Imacron" unicode="&#x12a;" horiz-adv-x="230" 
d="M249 693h68l-165 -693h-69zM173 804l13 57h259l-13 -57h-259z" />
    <glyph glyph-name="imacron" unicode="&#x12b;" horiz-adv-x="235" 
d="M208 517h65l-125 -517h-65zM141 647l13 57h259l-13 -57h-259z" />
    <glyph glyph-name="Ibreve" unicode="&#x12c;" horiz-adv-x="230" 
d="M249 693h68l-165 -693h-69zM191 903h42q-1 -5 -1 -9v-8q0 -28 15.5 -44t46.5 -16q27 0 44.5 9.5t28.5 22t16.5 25.5t7.5 20h42q-8 -69 -47.5 -101t-100.5 -32q-49 0 -73.5 28.5t-24.5 71.5q0 7 1 15.5t3 17.5z" />
    <glyph glyph-name="ibreve" unicode="&#x12d;" horiz-adv-x="235" 
d="M208 517h65l-125 -517h-65zM160 746h42q-1 -5 -1 -9v-8q0 -28 15.5 -44t46.5 -16q27 0 44.5 9.5t28.5 22t16.5 25.5t7.5 20h42q-8 -69 -47.5 -101t-100.5 -32q-49 0 -73.5 28.5t-24.5 71.5q0 7 1 15.5t3 17.5z" />
    <glyph glyph-name="Iogonek" unicode="&#x12e;" horiz-adv-x="230" 
d="M249 693h68l-165 -693q-56 -36 -78 -61.5t-22 -45.5q0 -12 8.5 -18t21 -8t25.5 -0.5t22 3.5l-7 -49q-14 -3 -26.5 -5t-26.5 -2q-16 0 -30 3t-25 10.5t-17.5 19.5t-6.5 31q0 18 9 35t22.5 32.5t30.5 29.5t33 25h-2z" />
    <glyph glyph-name="iogonek" unicode="&#x12f;" horiz-adv-x="235" 
d="M-14 -122q0 18 9 35t23.5 32.5t31.5 29.5t33 25l125 517h65l-125 -517q-56 -36 -78 -61.5t-22 -45.5q0 -12 8.5 -18t21 -8t25.5 -0.5t22 3.5l-7 -49q-14 -3 -26.5 -5t-26.5 -2q-16 0 -30 3t-25 10.5t-17.5 19.5t-6.5 31zM234 668q0 26 14.5 39.5t31.5 13.5q20 0 31 -12.5
t11 -32.5q0 -24 -16 -37t-32 -13q-20 0 -30 11.5t-10 30.5z" />
    <glyph glyph-name="Idotaccent" unicode="&#x130;" horiz-adv-x="230" 
d="M249 693h68l-165 -693h-69zM303 775q-26 0 -37 14t-11 32q0 21 14.5 40t40.5 19t37 -14t11 -32q0 -21 -14.5 -40t-40.5 -19z" />
    <glyph glyph-name="dotlessi" unicode="&#x131;" horiz-adv-x="235" 
d="M208 517h65l-125 -517h-65z" />
    <glyph glyph-name="i.locl" horiz-adv-x="235" 
d="M208 517h65l-125 -517h-65zM234 668q0 26 14.5 39.5t31.5 13.5q20 0 31 -12.5t11 -32.5q0 -24 -16 -37t-32 -13q-20 0 -30 11.5t-10 30.5z" />
    <glyph glyph-name="IJ" unicode="&#x132;" horiz-adv-x="700" 
d="M254 693h68l-165 -693h-69zM303 95q15 -15 50 -32t83 -17q27 0 51 5.5t45 21.5t38 45.5t29 77.5l120 497h68l-120 -505q-14 -60 -37 -99t-53 -62.5t-66.5 -32.5t-77.5 -9q-52 0 -93.5 16t-71.5 42z" />
    <glyph glyph-name="ij" unicode="&#x133;" horiz-adv-x="455" 
d="M206 517h65l-125 -517h-65zM232 668q0 26 14.5 39.5t31.5 13.5q20 0 31 -12.5t11 -32.5q0 -24 -16 -37t-32 -13q-20 0 -30 11.5t-10 30.5zM124 -115q16 -8 30.5 -12t33.5 -4q27 0 46 11t33.5 30.5t24 46.5t17.5 59l119 501h65l-117 -489q-13 -54 -28.5 -94.5t-38 -67.5
t-54 -40.5t-75.5 -13.5q-25 0 -42.5 5.5t-28.5 12.5zM456 668q0 26 14.5 39.5t31.5 13.5q20 0 31 -12.5t11 -32.5q0 -24 -16 -37t-32 -13q-20 0 -30 11.5t-10 30.5z" />
    <glyph glyph-name="Jcircumflex" unicode="&#x134;" horiz-adv-x="450" 
d="M53 95q15 -15 50 -32t83 -17q27 0 51 5.5t45 21.5t38 45.5t29 77.5l120 497h68l-120 -505q-14 -60 -37 -99t-53 -62.5t-66.5 -32.5t-77.5 -9q-52 0 -93.5 16t-71.5 42zM412 734l-26 33l169 147l99 -147l-34 -33l-81 96z" />
    <glyph glyph-name="jcircumflex" unicode="&#x135;" horiz-adv-x="235" 
d="M-86 -115q16 -8 30.5 -12t33.5 -4q27 0 46 11t33.5 30.5t24 46.5t17.5 59l119 501h65l-117 -489q-13 -54 -28.5 -94.5t-38 -67.5t-54 -40.5t-75.5 -13.5q-25 0 -42.5 5.5t-28.5 12.5zM153 583l-26 33l169 147l99 -147l-34 -33l-81 96z" />
    <glyph glyph-name="Kcommaaccent" unicode="&#x136;" horiz-adv-x="599" 
d="M249 693h67l-76 -319q49 35 106.5 80t112.5 90t101.5 84.5t73.5 64.5h90q-33 -30 -84 -73t-108 -89t-114.5 -91.5t-103.5 -81.5q36 -27 75 -70.5t75.5 -93.5t67.5 -101t49 -93h-74q-58 112 -124.5 200t-149.5 148l-82 -348h-68zM206 -139q21 -3 36 3.5t24.5 19t15.5 29.5
t11 37h72q-4 -29 -17.5 -56t-35.5 -47t-51.5 -29t-65.5 0z" />
    <glyph glyph-name="kcommaaccent" unicode="&#x137;" horiz-adv-x="499" 
d="M267 764l68 12l-115 -478q36 24 73.5 54.5t72 61t62.5 58t44 45.5h79q-18 -23 -51.5 -56t-71 -67t-74 -63.5t-60.5 -43.5q34 -26 66.5 -61t59.5 -74t48.5 -78.5t33.5 -73.5h-70q-44 94 -100 161.5t-118 109.5l-66 -271h-65zM153 -139q21 -3 36 3.5t24.5 19t15.5 29.5
t11 37h72q-4 -29 -17.5 -56t-35.5 -47t-51.5 -29t-65.5 0z" />
    <glyph glyph-name="kgreenlandic.case" horiz-adv-x="678" 
d="M249 693h67l-76 -319q49 35 106.5 80t112.5 90t101.5 84.5t73.5 64.5h90q-33 -30 -84 -73t-108 -89t-114.5 -91.5t-103.5 -81.5q36 -27 75 -70.5t75.5 -93.5t67.5 -101t49 -93h-74q-58 112 -124.5 200t-149.5 148l-82 -348h-68zM830 751l50 -20q-18 -26 -32 -49.5
t-24.5 -47t-17.5 -48.5t-11 -54h-81q6 30 18.5 60.5t28 58.5t33.5 53.5t36 46.5z" />
    <glyph glyph-name="kgreenlandic" unicode="&#x138;" horiz-adv-x="504" 
d="M208 517h65l-53 -219q36 24 75 54.5t75 61t65 58t45 45.5h79q-18 -23 -53 -56.5t-75.5 -68t-78.5 -64t-62 -43.5q34 -26 68.5 -61t64 -73.5t52.5 -77.5t35 -73h-70q-44 94 -104 161.5t-122 109.5l-66 -271h-65z" />
    <glyph glyph-name="Lacute" unicode="&#x139;" horiz-adv-x="474" 
d="M248 693h68l-152 -635h307l-13 -58h-375zM449 861l-175 -128l-29 44l166 146z" />
    <glyph glyph-name="lacute" unicode="&#x13a;" horiz-adv-x="266" 
d="M251 764l67 12l-124 -521q-8 -34 -15.5 -64.5t-7.5 -56.5q0 -16 3 -29.5t12 -24t25.5 -18.5t42.5 -14l-15 -57q-73 9 -102 44.5t-29 89.5q0 24 4 50.5t11 55.5zM246 823l-13 39l162 77l17 -59z" />
    <glyph glyph-name="Lcommaaccent" unicode="&#x13b;" horiz-adv-x="474" 
d="M248 693h68l-152 -635h307l-13 -58h-375zM166 -139q21 -3 36 3.5t24.5 19t15.5 29.5t11 37h72q-4 -29 -17.5 -56t-35.5 -47t-51.5 -29t-65.5 0z" />
    <glyph glyph-name="lcommaaccent" unicode="&#x13c;" horiz-adv-x="266" 
d="M251 764l67 12l-124 -521q-8 -34 -15.5 -64.5t-7.5 -56.5q0 -16 3 -29.5t12 -24t25.5 -18.5t42.5 -14l-15 -57q-73 9 -102 44.5t-29 89.5q0 24 4 50.5t11 55.5zM36 -139q21 -3 36 3.5t24.5 19t15.5 29.5t11 37h72q-4 -29 -17.5 -56t-35.5 -47t-51.5 -29t-65.5 0z" />
    <glyph glyph-name="Lcaron" unicode="&#x13d;" horiz-adv-x="474" 
d="M248 693h68l-152 -635h307l-13 -58h-375zM477 694l-77 -217h-47l53 217h71z" />
    <glyph glyph-name="lcaron" unicode="&#x13e;" horiz-adv-x="266" 
d="M251 764l67 12l-124 -521q-8 -34 -15.5 -64.5t-7.5 -56.5q0 -16 3 -29.5t12 -24t25.5 -18.5t42.5 -14l-15 -57q-73 9 -102 44.5t-29 89.5q0 24 4 50.5t11 55.5zM468 776l-77 -217h-47l53 217h71z" />
    <glyph glyph-name="Ldot" unicode="&#x13f;" horiz-adv-x="484" 
d="M248 693h68l-152 -635h307l-13 -58h-375zM434 291q-26 0 -37 14t-11 32q0 21 14.5 40t40.5 19t37 -14t11 -32q0 -21 -14.5 -40t-40.5 -19z" />
    <glyph glyph-name="ldot" unicode="&#x140;" horiz-adv-x="306" 
d="M331 291q-26 0 -37 14t-11 32q0 21 14.5 40t40.5 19t37 -14t11 -32q0 -21 -14.5 -40t-40.5 -19zM251 764l67 12l-124 -521q-8 -34 -15.5 -64.5t-7.5 -56.5q0 -16 3 -29.5t12 -24t25.5 -18.5t42.5 -14l-15 -57q-73 9 -102 44.5t-29 89.5q0 24 4 50.5t11 55.5z" />
    <glyph glyph-name="Lslash" unicode="&#x141;" horiz-adv-x="507" 
d="M187 298l-87 -39l-14 56l117 53l78 325h68l-70 -291l127 57l14 -56l-158 -71l-65 -274h307l-13 -58h-375z" />
    <glyph glyph-name="lslash" unicode="&#x142;" horiz-adv-x="286" 
d="M161 348l-72 -32l-12 47l98 44l86 357l67 12l-80 -337l85 39l11 -47l-110 -50l-30 -126q-8 -34 -15.5 -64.5t-7.5 -56.5q0 -32 17 -53.5t67 -31.5l-16 -58q-38 2 -63.5 13t-40.5 28.5t-21 41t-6 51.5q0 24 4 50.5t11 55.5z" />
    <glyph glyph-name="Nacute" unicode="&#x143;" horiz-adv-x="669" 
d="M249 693h67q37 -64 73.5 -143t69 -159.5t57 -154.5t37.5 -127l136 584h67l-164 -693h-67q-18 61 -45 142.5t-58.5 165.5t-64.5 161.5t-63 131.5l-144 -601h-67zM648 861l-175 -128l-29 44l166 146z" />
    <glyph glyph-name="nacute" unicode="&#x144;" horiz-adv-x="546" 
d="M202 499q39 11 83 19.5t87 8.5q36 0 68 -7.5t56 -26.5t38 -50t14 -77q0 -26 -4 -53.5t-11 -55.5l-62 -257h-65l55 230q8 33 14.5 67t7.5 65q0 31 -9.5 51t-26 32t-38.5 17t-46 5q-26 0 -53 -4t-53 -10l-109 -453h-65zM545 711l-175 -128l-29 44l166 146z" />
    <glyph glyph-name="Ncommaaccent" unicode="&#x145;" horiz-adv-x="669" 
d="M249 693h67q37 -64 73.5 -143t69 -159.5t57 -154.5t37.5 -127l136 584h67l-164 -693h-67q-18 61 -45 142.5t-58.5 165.5t-64.5 161.5t-63 131.5l-144 -601h-67zM211 -139q21 -3 36 3.5t24.5 19t15.5 29.5t11 37h72q-4 -29 -17.5 -56t-35.5 -47t-51.5 -29t-65.5 0z" />
    <glyph glyph-name="ncommaaccent" unicode="&#x146;" horiz-adv-x="546" 
d="M202 499q39 11 83 19.5t87 8.5q36 0 68 -7.5t56 -26.5t38 -50t14 -77q0 -26 -4 -53.5t-11 -55.5l-62 -257h-65l55 230q8 33 14.5 67t7.5 65q0 31 -9.5 51t-26 32t-38.5 17t-46 5q-26 0 -53 -4t-53 -10l-109 -453h-65zM138 -139q21 -3 36 3.5t24.5 19t15.5 29.5t11 37h72
q-4 -29 -17.5 -56t-35.5 -47t-51.5 -29t-65.5 0z" />
    <glyph glyph-name="Ncaron" unicode="&#x147;" horiz-adv-x="669" 
d="M249 693h67q37 -64 73.5 -143t69 -159.5t57 -154.5t37.5 -127l136 584h67l-164 -693h-67q-18 61 -45 142.5t-58.5 165.5t-64.5 161.5t-63 131.5l-144 -601h-67zM651 916l26 -33l-169 -147l-99 147l34 33l81 -96z" />
    <glyph glyph-name="ncaron" unicode="&#x148;" horiz-adv-x="546" 
d="M202 499q39 11 83 19.5t87 8.5q36 0 68 -7.5t56 -26.5t38 -50t14 -77q0 -26 -4 -53.5t-11 -55.5l-62 -257h-65l55 230q8 33 14.5 67t7.5 65q0 31 -9.5 51t-26 32t-38.5 17t-46 5q-26 0 -53 -4t-53 -10l-109 -453h-65zM549 763l26 -33l-169 -147l-99 147l34 33l81 -96z
" />
    <glyph glyph-name="napostrophe.case" horiz-adv-x="726" 
d="M306 693h67q37 -64 73.5 -143t69 -159.5t57 -154.5t37.5 -127l136 584h67l-164 -693h-67q-18 61 -45 142.5t-58.5 165.5t-64.5 161.5t-63 131.5l-144 -601h-67zM109 586q18 23 33.5 48.5t27 51t18 49t7.5 41.5h73q-11 -53 -40.5 -103t-74.5 -104z" />
    <glyph glyph-name="napostrophe" unicode="&#x149;" horiz-adv-x="546" 
d="M202 499q39 11 83 19.5t87 8.5q36 0 68 -7.5t56 -26.5t38 -50t14 -77q0 -26 -4 -53.5t-11 -55.5l-62 -257h-65l55 230q8 33 14.5 67t7.5 65q0 31 -9.5 51t-26 32t-38.5 17t-46 5q-26 0 -53 -4t-53 -10l-109 -453h-65zM123 586q18 23 33.5 48.5t27 51t18 49t7.5 41.5h73
q-11 -53 -40.5 -103t-74.5 -104z" />
    <glyph glyph-name="Eng" unicode="&#x14a;" horiz-adv-x="669" 
d="M525 0q-18 61 -45 142.5t-58.5 165.5t-64.5 161.5t-63 131.5l-144 -601h-67l166 693h67q37 -64 73.5 -143t69 -159.5t57 -154.5t37.5 -127l136 584h67l-167 -702q-11 -45 -20.5 -78.5t-26.5 -55.5t-47 -33t-82 -11q-5 0 -12.5 1.5t-14.5 3t-11.5 3.5t-3.5 3l13 46
q3 -2 14 -5t28 -3q27 0 43.5 9.5t26 27.5t15.5 43.5t14 57.5z" />
    <glyph glyph-name="eng" unicode="&#x14b;" horiz-adv-x="546" 
d="M274 -132q2 -2 11.5 -4.5t22.5 -2.5q22 0 37 8t25 22.5t17 35.5t13 47l61 256q9 35 17 69.5t8 65.5q0 49 -27 77t-97 28q-29 0 -58 -4.5t-46 -9.5l-110 -456h-65l119 499q25 8 53.5 13.5t54.5 8.5t47 4.5t32 1.5q45 0 75.5 -12t49 -33.5t27 -50.5t8.5 -63q0 -26 -4.5 -54
t-11.5 -57l-64 -267q-10 -36 -17 -68t-23.5 -56t-48 -38.5t-91.5 -14.5q-4 0 -17.5 2.5t-14.5 6.5z" />
    <glyph glyph-name="Omacron" unicode="&#x14c;" horiz-adv-x="748" 
d="M138 258q0 103 34 186.5t90 142t126.5 90t144.5 31.5q49 0 94 -16.5t79 -50t54 -85t20 -120.5q0 -104 -34 -187.5t-90 -142t-127 -90t-144 -31.5q-50 0 -94.5 16.5t-78.5 50t-54 85t-20 121.5zM210 247q0 -51 14 -89t39 -62.5t57.5 -37t70.5 -12.5q61 0 118 26.5
t101 77.5t71 125.5t27 170.5q0 51 -14 89t-39 62.5t-58 37t-70 12.5q-61 0 -118 -26.5t-101.5 -77.5t-71 -125.5t-26.5 -170.5zM426 804l13 57h259l-13 -57h-259z" />
    <glyph glyph-name="omacron" unicode="&#x14d;" horiz-adv-x="526" 
d="M164 166q0 -59 33 -89t79 -30q36 0 74 18.5t69.5 56t52 94.5t20.5 134q0 59 -33 89t-79 30q-36 0 -74 -18.5t-69.5 -56t-52 -94.5t-20.5 -134zM558 355q0 -94 -26.5 -163t-68 -114.5t-92 -67.5t-99.5 -22q-35 0 -66.5 11t-55.5 33t-38 54.5t-14 75.5q0 94 26.5 163
t68 114t92 67t99.5 22q35 0 66.5 -11t55.5 -33t38 -54.5t14 -74.5zM288 647l13 57h259l-13 -57h-259z" />
    <glyph glyph-name="Obreve" unicode="&#x14e;" horiz-adv-x="748" 
d="M138 258q0 103 34 186.5t90 142t126.5 90t144.5 31.5q49 0 94 -16.5t79 -50t54 -85t20 -120.5q0 -104 -34 -187.5t-90 -142t-127 -90t-144 -31.5q-50 0 -94.5 16.5t-78.5 50t-54 85t-20 121.5zM210 247q0 -51 14 -89t39 -62.5t57.5 -37t70.5 -12.5q61 0 118 26.5
t101 77.5t71 125.5t27 170.5q0 51 -14 89t-39 62.5t-58 37t-70 12.5q-61 0 -118 -26.5t-101.5 -77.5t-71 -125.5t-26.5 -170.5zM464 903h42q-1 -5 -1 -9v-8q0 -28 15.5 -44t46.5 -16q27 0 44.5 9.5t28.5 22t16.5 25.5t7.5 20h42q-8 -69 -47.5 -101t-100.5 -32
q-49 0 -73.5 28.5t-24.5 71.5q0 7 1 15.5t3 17.5z" />
    <glyph glyph-name="obreve" unicode="&#x14f;" horiz-adv-x="526" 
d="M164 166q0 -59 33 -89t79 -30q36 0 74 18.5t69.5 56t52 94.5t20.5 134q0 59 -33 89t-79 30q-36 0 -74 -18.5t-69.5 -56t-52 -94.5t-20.5 -134zM558 355q0 -94 -26.5 -163t-68 -114.5t-92 -67.5t-99.5 -22q-35 0 -66.5 11t-55.5 33t-38 54.5t-14 75.5q0 94 26.5 163
t68 114t92 67t99.5 22q35 0 66.5 -11t55.5 -33t38 -54.5t14 -74.5zM310 746h42q-1 -5 -1 -9v-8q0 -28 15.5 -44t46.5 -16q27 0 44.5 9.5t28.5 22t16.5 25.5t7.5 20h42q-8 -69 -47.5 -101t-100.5 -32q-49 0 -73.5 28.5t-24.5 71.5q0 7 1 15.5t3 17.5z" />
    <glyph glyph-name="Ohungarumlaut" unicode="&#x150;" horiz-adv-x="748" 
d="M138 258q0 103 34 186.5t90 142t126.5 90t144.5 31.5q49 0 94 -16.5t79 -50t54 -85t20 -120.5q0 -104 -34 -187.5t-90 -142t-127 -90t-144 -31.5q-50 0 -94.5 16.5t-78.5 50t-54 85t-20 121.5zM210 247q0 -51 14 -89t39 -62.5t57.5 -37t70.5 -12.5q61 0 118 26.5
t101 77.5t71 125.5t27 170.5q0 51 -14 89t-39 62.5t-58 37t-70 12.5q-61 0 -118 -26.5t-101.5 -77.5t-71 -125.5t-26.5 -170.5zM469 735l-30 33l143 158l45 -48zM626 735l-30 33l143 158l45 -48z" />
    <glyph glyph-name="ohungarumlaut" unicode="&#x151;" horiz-adv-x="526" 
d="M164 166q0 -59 33 -89t79 -30q36 0 74 18.5t69.5 56t52 94.5t20.5 134q0 59 -33 89t-79 30q-36 0 -74 -18.5t-69.5 -56t-52 -94.5t-20.5 -134zM558 355q0 -94 -26.5 -163t-68 -114.5t-92 -67.5t-99.5 -22q-35 0 -66.5 11t-55.5 33t-38 54.5t-14 75.5q0 94 26.5 163
t68 114t92 67t99.5 22q35 0 66.5 -11t55.5 -33t38 -54.5t14 -74.5zM312 582l-30 33l143 158l45 -48zM469 582l-30 33l143 158l45 -48z" />
    <glyph glyph-name="Racute" unicode="&#x154;" horiz-adv-x="592" 
d="M408 699q118 0 177 -47.5t59 -134.5q0 -78 -50 -136.5t-152 -84.5q12 -22 29 -57.5t34.5 -76.5t34 -83.5t27.5 -78.5h-72q-28 85 -61.5 158.5t-62.5 124.5q-33 -3 -69 -3h-84l-67 -280h-68l163 680q35 7 76.5 13t85.5 6zM314 338q125 0 192 47.5t67 133.5q0 63 -42 92
t-133 29q-26 0 -50.5 -2.5t-44.5 -4.5l-72 -295h83zM586 861l-175 -128l-29 44l166 146z" />
    <glyph glyph-name="racute" unicode="&#x155;" horiz-adv-x="366" 
d="M201 494q38 15 83.5 25t89.5 10q23 0 44 -3t40 -10l-17 -59q-39 12 -80 12q-26 0 -52 -4t-52 -12l-109 -453h-65zM490 711l-175 -128l-29 44l166 146z" />
    <glyph glyph-name="Rcommaaccent" unicode="&#x156;" horiz-adv-x="592" 
d="M408 699q118 0 177 -47.5t59 -134.5q0 -78 -50 -136.5t-152 -84.5q12 -22 29 -57.5t34.5 -76.5t34 -83.5t27.5 -78.5h-72q-28 85 -61.5 158.5t-62.5 124.5q-33 -3 -69 -3h-84l-67 -280h-68l163 680q35 7 76.5 13t85.5 6zM314 338q125 0 192 47.5t67 133.5q0 63 -42 92
t-133 29q-26 0 -50.5 -2.5t-44.5 -4.5l-72 -295h83zM191 -139q21 -3 36 3.5t24.5 19t15.5 29.5t11 37h72q-4 -29 -17.5 -56t-35.5 -47t-51.5 -29t-65.5 0z" />
    <glyph glyph-name="rcommaaccent" unicode="&#x157;" horiz-adv-x="366" 
d="M201 494q38 15 83.5 25t89.5 10q23 0 44 -3t40 -10l-17 -59q-39 12 -80 12q-26 0 -52 -4t-52 -12l-109 -453h-65zM-17 -139q21 -3 36 3.5t24.5 19t15.5 29.5t11 37h72q-4 -29 -17.5 -56t-35.5 -47t-51.5 -29t-65.5 0z" />
    <glyph glyph-name="Rcaron" unicode="&#x158;" horiz-adv-x="592" 
d="M408 699q118 0 177 -47.5t59 -134.5q0 -78 -50 -136.5t-152 -84.5q12 -22 29 -57.5t34.5 -76.5t34 -83.5t27.5 -78.5h-72q-28 85 -61.5 158.5t-62.5 124.5q-33 -3 -69 -3h-84l-67 -280h-68l163 680q35 7 76.5 13t85.5 6zM314 338q125 0 192 47.5t67 133.5q0 63 -42 92
t-133 29q-26 0 -50.5 -2.5t-44.5 -4.5l-72 -295h83zM574 916l26 -33l-169 -147l-99 147l34 33l81 -96z" />
    <glyph glyph-name="rcaron" unicode="&#x159;" horiz-adv-x="366" 
d="M201 494q38 15 83.5 25t89.5 10q23 0 44 -3t40 -10l-17 -59q-39 12 -80 12q-26 0 -52 -4t-52 -12l-109 -453h-65zM500 763l26 -33l-169 -147l-99 147l34 33l81 -96z" />
    <glyph glyph-name="Sacute" unicode="&#x15a;" horiz-adv-x="487" 
d="M83 93q29 -22 70.5 -35.5t86.5 -13.5q36 0 69.5 8.5t60 27t42.5 47t16 68.5t-19 65t-47.5 43t-62 33.5t-62 37.5t-47.5 53.5t-19 82.5q0 36 15 71.5t46.5 63.5t79 45.5t112.5 17.5q43 0 81.5 -8.5t83.5 -30.5l-35 -57q-35 21 -69.5 29.5t-72.5 8.5q-33 0 -63.5 -7.5
t-54.5 -23t-38.5 -41t-14.5 -61.5q0 -40 19 -65t48 -43t62 -33.5t62 -37t48 -54.5t19 -86q0 -39 -15.5 -77.5t-49 -68.5t-85 -48.5t-123.5 -18.5q-48 0 -93.5 13t-84.5 36zM570 861l-175 -128l-29 44l166 146z" />
    <glyph glyph-name="sacute" unicode="&#x15b;" horiz-adv-x="400" 
d="M76 82q37 -20 65 -27t63 -7q25 0 48 5.5t40 16.5t27 29t10 42q0 26 -14.5 43t-36 29.5t-46.5 24.5t-46.5 28t-36 40t-14.5 62q0 43 16 73.5t43 50t62 28.5t72 9q32 0 63.5 -5.5t60.5 -16.5l-26 -58q-21 9 -48 14.5t-56 5.5q-24 0 -46.5 -5t-39.5 -16.5t-27.5 -29
t-10.5 -42.5q0 -26 14.5 -43t35.5 -30t46.5 -24.5t46.5 -27.5t35.5 -38.5t14.5 -57.5q0 -44 -16.5 -76t-43.5 -52t-62 -29.5t-72 -9.5q-39 0 -78 8.5t-71 26.5zM479 711l-175 -128l-29 44l166 146z" />
    <glyph glyph-name="Scircumflex" unicode="&#x15c;" horiz-adv-x="487" 
d="M83 93q29 -22 70.5 -35.5t86.5 -13.5q36 0 69.5 8.5t60 27t42.5 47t16 68.5t-19 65t-47.5 43t-62 33.5t-62 37.5t-47.5 53.5t-19 82.5q0 36 15 71.5t46.5 63.5t79 45.5t112.5 17.5q43 0 81.5 -8.5t83.5 -30.5l-35 -57q-35 21 -69.5 29.5t-72.5 8.5q-33 0 -63.5 -7.5
t-54.5 -23t-38.5 -41t-14.5 -61.5q0 -40 19 -65t48 -43t62 -33.5t62 -37t48 -54.5t19 -86q0 -39 -15.5 -77.5t-49 -68.5t-85 -48.5t-123.5 -18.5q-48 0 -93.5 13t-84.5 36zM326 734l-26 33l169 147l99 -147l-34 -33l-81 96z" />
    <glyph glyph-name="scircumflex" unicode="&#x15d;" horiz-adv-x="400" 
d="M76 82q37 -20 65 -27t63 -7q25 0 48 5.5t40 16.5t27 29t10 42q0 26 -14.5 43t-36 29.5t-46.5 24.5t-46.5 28t-36 40t-14.5 62q0 43 16 73.5t43 50t62 28.5t72 9q32 0 63.5 -5.5t60.5 -16.5l-26 -58q-21 9 -48 14.5t-56 5.5q-24 0 -46.5 -5t-39.5 -16.5t-27.5 -29
t-10.5 -42.5q0 -26 14.5 -43t35.5 -30t46.5 -24.5t46.5 -27.5t35.5 -38.5t14.5 -57.5q0 -44 -16.5 -76t-43.5 -52t-62 -29.5t-72 -9.5q-39 0 -78 8.5t-71 26.5zM232 583l-26 33l169 147l99 -147l-34 -33l-81 96z" />
    <glyph glyph-name="Scedilla" unicode="&#x15e;" horiz-adv-x="487" 
d="M123 -132q22 -9 49 -9q23 0 37 7t14 24q0 15 -9.5 24t-37.5 20q5 11 14.5 24.5t18.5 27.5q-43 2 -84.5 14t-76.5 34l35 59q29 -22 70.5 -35.5t86.5 -13.5q36 0 69.5 8.5t60 27t42.5 47t16 68.5t-19 65t-47.5 43t-62 33.5t-62 37.5t-47.5 53.5t-19 82.5q0 36 15 71.5
t46.5 63.5t79 45.5t112.5 17.5q43 0 81.5 -8.5t83.5 -30.5l-35 -57q-35 21 -69.5 29.5t-72.5 8.5q-33 0 -63.5 -7.5t-54.5 -23t-38.5 -41t-14.5 -61.5q0 -40 19 -65t48 -43t62 -33.5t62 -37t48 -54.5t19 -86q0 -37 -14 -73t-43 -65.5t-75 -49t-109 -23.5q-5 -7 -9 -13.5
t-7 -11.5q23 -13 33.5 -26.5t10.5 -37.5q0 -41 -31.5 -63t-79.5 -22q-17 0 -33.5 2t-36.5 10z" />
    <glyph glyph-name="scedilla" unicode="&#x15f;" horiz-adv-x="400" 
d="M88 -132q22 -9 49 -9q23 0 37 7t14 24q0 15 -9.5 24t-37.5 20q6 11 15.5 26t19.5 29q-34 2 -67 10t-61 24l28 59q37 -20 65 -27t63 -7q25 0 48 5.5t40 16.5t27 29t10 42q0 26 -14.5 42.5t-36 29t-46.5 24t-46.5 28t-36 41t-14.5 62.5q0 43 16 73.5t43 50t62 28.5t72 9
q32 0 63.5 -5.5t60.5 -16.5l-26 -58q-21 9 -48 14.5t-56 5.5q-24 0 -46.5 -5t-40 -16t-28 -28.5t-10.5 -43.5t14.5 -42.5t36 -29t46.5 -24t46.5 -27.5t36 -39t14.5 -59q0 -40 -13.5 -69.5t-36 -50t-53 -31.5t-63.5 -14q-5 -8 -10 -15t-8 -13q23 -13 33.5 -26.5t10.5 -37.5
q0 -41 -31.5 -63t-79.5 -22q-17 0 -33.5 2t-36.5 10z" />
    <glyph glyph-name="uni0162" unicode="&#x162;" 
d="M380 634h-212l13 59h492l-14 -59h-211l-152 -634h-9q-8 -10 -14.5 -20t-11.5 -18q23 -13 33.5 -26.5t10.5 -37.5q0 -41 -31.5 -63t-79.5 -22q-17 0 -33.5 2t-36.5 10l18 43q22 -9 49 -9q23 0 37 7t14 24q0 15 -9.5 24t-37.5 20q7 14 20 33t24 33h-11z" />
    <glyph glyph-name="uni0163" unicode="&#x163;" horiz-adv-x="377" 
d="M123 -132q22 -9 49 -9q23 0 37 7t14 24q0 15 -9.5 24t-37.5 20q6 12 16 27t20 29q-21 3 -39 10.5t-31.5 22t-21 35.5t-7.5 51q0 43 14 99l111 461l68 12l-39 -164h182l-13 -56h-183l-61 -253q-5 -18 -8.5 -38.5t-3.5 -40.5q0 -45 22 -63t55 -18q32 0 55.5 7t49.5 19
l6 -59q-23 -10 -51.5 -17t-57.5 -9q-5 -8 -9.5 -15t-7.5 -12q23 -13 33.5 -26.5t10.5 -37.5q0 -41 -31.5 -63t-79.5 -22q-17 0 -33.5 2t-36.5 10z" />
    <glyph glyph-name="Tcaron" unicode="&#x164;" horiz-adv-x="526" 
d="M382 634h-212l13 59h493l-14 -59h-212l-152 -634h-68zM577 916l26 -33l-169 -147l-99 147l34 33l81 -96z" />
    <glyph glyph-name="tcaron" unicode="&#x165;" horiz-adv-x="377" 
d="M238 669l68 12l-39 -164h182l-13 -56h-183l-61 -253q-5 -18 -8.5 -38.5t-3.5 -40.5q0 -45 22 -63t55 -18q32 0 55.5 7t49.5 19l6 -59q-27 -11 -60.5 -19t-66.5 -8q-26 0 -49 6t-40.5 20t-28 37t-10.5 58q0 43 14 99zM397 776h71l-68 -194h-51z" />
    <glyph glyph-name="Tbar" unicode="&#x166;" horiz-adv-x="526" 
d="M309 331h-123l12 52h124l60 251h-212l13 59h492l-14 -59h-211l-60 -251h134l-12 -52h-135l-79 -331h-68z" />
    <glyph glyph-name="tbar" unicode="&#x167;" horiz-adv-x="377" 
d="M238 669l68 12l-39 -164h182l-13 -56h-183l-40 -164h185l-12 -52h-185l-9 -37q-5 -18 -8.5 -38.5t-3.5 -40.5q0 -45 22 -63t55 -18q32 0 55.5 7t49.5 19l6 -59q-27 -11 -60.5 -19t-66.5 -8q-26 0 -49 6t-40.5 20t-28 37t-10.5 58q0 43 14 99z" />
    <glyph glyph-name="Utilde" unicode="&#x168;" horiz-adv-x="648" 
d="M250 693h68l-101 -419q-5 -23 -8.5 -45.5t-3.5 -43.5q0 -30 7 -55.5t24 -44.5t44 -30t68 -11q46 0 81 13t61.5 40.5t45.5 70.5t34 103l102 422h68l-104 -432q-18 -73 -43 -125.5t-60.5 -86t-82.5 -49.5t-108 -16q-53 0 -91.5 14.5t-63.5 40.5t-37 62t-12 79q0 44 12 92z
M573 781q-19 0 -33 6t-27 13.5t-26.5 13.5t-31.5 6q-22 0 -36 -11.5t-30 -34.5l-36 22q8 14 18 28t23.5 25t31.5 17.5t43 6.5q18 0 32 -6t27 -13.5t27 -13.5t32 -6q22 0 36 11.5t30 34.5l36 -23q-8 -14 -18 -28t-23.5 -24.5t-31.5 -17t-43 -6.5z" />
    <glyph glyph-name="utilde" unicode="&#x169;" 
d="M248 -12q-43 0 -72 11t-46 30.5t-24.5 46t-7.5 57.5q0 29 5 61.5t13 65.5l62 257h65l-55 -228q-8 -35 -17.5 -73.5t-9.5 -73.5q0 -20 4.5 -37t15.5 -30t29 -20t46 -7q48 0 84.5 19t68.5 55q0 27 8 62t15 63l67 270h65l-79 -320q-6 -25 -10 -47t-4 -42q0 -27 5 -51t18 -53
l-67 -10q-6 12 -10.5 27.5t-6.5 31.5q-35 -34 -74.5 -49.5t-87.5 -15.5zM455 629q-19 0 -33 6t-27 13.5t-26.5 13.5t-31.5 6q-22 0 -36 -11.5t-30 -34.5l-36 22q8 14 18 28t23.5 25t31.5 17.5t43 6.5q18 0 32 -6t27 -13.5t27 -13.5t32 -6q22 0 36 11.5t30 34.5l36 -23
q-8 -14 -18 -28t-23.5 -24.5t-31.5 -17t-43 -6.5z" />
    <glyph glyph-name="Umacron" unicode="&#x16a;" horiz-adv-x="648" 
d="M250 693h68l-101 -419q-5 -23 -8.5 -45.5t-3.5 -43.5q0 -30 7 -55.5t24 -44.5t44 -30t68 -11q46 0 81 13t61.5 40.5t45.5 70.5t34 103l102 422h68l-104 -432q-18 -73 -43 -125.5t-60.5 -86t-82.5 -49.5t-108 -16q-53 0 -91.5 14.5t-63.5 40.5t-37 62t-12 79q0 44 12 92z
M386 787l13 57h259l-13 -57h-259z" />
    <glyph glyph-name="umacron" unicode="&#x16b;" 
d="M248 -12q-43 0 -72 11t-46 30.5t-24.5 46t-7.5 57.5q0 29 5 61.5t13 65.5l62 257h65l-55 -228q-8 -35 -17.5 -73.5t-9.5 -73.5q0 -20 4.5 -37t15.5 -30t29 -20t46 -7q48 0 84.5 19t68.5 55q0 27 8 62t15 63l67 270h65l-79 -320q-6 -25 -10 -47t-4 -42q0 -27 5 -51t18 -53
l-67 -10q-6 12 -10.5 27.5t-6.5 31.5q-35 -34 -74.5 -49.5t-87.5 -15.5zM269 647l13 57h259l-13 -57h-259z" />
    <glyph glyph-name="Ubreve" unicode="&#x16c;" horiz-adv-x="648" 
d="M250 693h68l-101 -419q-5 -23 -8.5 -45.5t-3.5 -43.5q0 -30 7 -55.5t24 -44.5t44 -30t68 -11q46 0 81 13t61.5 40.5t45.5 70.5t34 103l102 422h68l-104 -432q-18 -73 -43 -125.5t-60.5 -86t-82.5 -49.5t-108 -16q-53 0 -91.5 14.5t-63.5 40.5t-37 62t-12 79q0 44 12 92z
M409 903h42q-1 -5 -1 -9v-8q0 -28 15.5 -44t46.5 -16q27 0 44.5 9.5t28.5 22t16.5 25.5t7.5 20h42q-8 -69 -47.5 -101t-100.5 -32q-49 0 -73.5 28.5t-24.5 71.5q0 7 1 15.5t3 17.5z" />
    <glyph glyph-name="ubreve" unicode="&#x16d;" 
d="M248 -12q-43 0 -72 11t-46 30.5t-24.5 46t-7.5 57.5q0 29 5 61.5t13 65.5l62 257h65l-55 -228q-8 -35 -17.5 -73.5t-9.5 -73.5q0 -20 4.5 -37t15.5 -30t29 -20t46 -7q48 0 84.5 19t68.5 55q0 27 8 62t15 63l67 270h65l-79 -320q-6 -25 -10 -47t-4 -42q0 -27 5 -51t18 -53
l-67 -10q-6 12 -10.5 27.5t-6.5 31.5q-35 -34 -74.5 -49.5t-87.5 -15.5zM301 746h42q-1 -5 -1 -9v-8q0 -28 15.5 -44t46.5 -16q27 0 44.5 9.5t28.5 22t16.5 25.5t7.5 20h42q-8 -69 -47.5 -101t-100.5 -32q-49 0 -73.5 28.5t-24.5 71.5q0 7 1 15.5t3 17.5z" />
    <glyph glyph-name="Uring" unicode="&#x16e;" horiz-adv-x="648" 
d="M250 693h68l-101 -419q-5 -23 -8.5 -45.5t-3.5 -43.5q0 -30 7 -55.5t24 -44.5t44 -30t68 -11q46 0 81 13t61.5 40.5t45.5 70.5t34 103l102 422h68l-104 -432q-18 -73 -43 -125.5t-60.5 -86t-82.5 -49.5t-108 -16q-53 0 -91.5 14.5t-63.5 40.5t-37 62t-12 79q0 44 12 92z
M609 835q0 -22 -7.5 -39.5t-20.5 -30t-30.5 -19.5t-36.5 -7q-39 0 -67.5 26t-28.5 70q0 43 28.5 69t67.5 26q19 0 36.5 -7t30.5 -19.5t20.5 -30t7.5 -38.5zM571 835q0 28 -16.5 43.5t-40.5 15.5t-40.5 -15.5t-16.5 -43.5q0 -29 16.5 -44t40.5 -15t40.5 15t16.5 44z" />
    <glyph glyph-name="uring" unicode="&#x16f;" 
d="M248 -12q-43 0 -72 11t-46 30.5t-24.5 46t-7.5 57.5q0 29 5 61.5t13 65.5l62 257h65l-55 -228q-8 -35 -17.5 -73.5t-9.5 -73.5q0 -20 4.5 -37t15.5 -30t29 -20t46 -7q48 0 84.5 19t68.5 55q0 27 8 62t15 63l67 270h65l-79 -320q-6 -25 -10 -47t-4 -42q0 -27 5 -51t18 -53
l-67 -10q-6 12 -10.5 27.5t-6.5 31.5q-35 -34 -74.5 -49.5t-87.5 -15.5zM490 676q0 -22 -7.5 -39.5t-20.5 -30t-30.5 -19.5t-36.5 -7q-39 0 -67.5 26t-28.5 70q0 43 28.5 69t67.5 26q19 0 36.5 -7t30.5 -19.5t20.5 -30t7.5 -38.5zM452 676q0 28 -16.5 43.5t-40.5 15.5
t-40.5 -15.5t-16.5 -43.5q0 -29 16.5 -44t40.5 -15t40.5 15t16.5 44z" />
    <glyph glyph-name="Uhungarumlaut" unicode="&#x170;" horiz-adv-x="648" 
d="M250 693h68l-101 -419q-5 -23 -8.5 -45.5t-3.5 -43.5q0 -30 7 -55.5t24 -44.5t44 -30t68 -11q46 0 81 13t61.5 40.5t45.5 70.5t34 103l102 422h68l-104 -432q-18 -73 -43 -125.5t-60.5 -86t-82.5 -49.5t-108 -16q-53 0 -91.5 14.5t-63.5 40.5t-37 62t-12 79q0 44 12 92z
M417 735l-30 33l143 158l45 -48zM574 735l-30 33l143 158l45 -48z" />
    <glyph glyph-name="uhungarumlaut" unicode="&#x171;" 
d="M248 -12q-43 0 -72 11t-46 30.5t-24.5 46t-7.5 57.5q0 29 5 61.5t13 65.5l62 257h65l-55 -228q-8 -35 -17.5 -73.5t-9.5 -73.5q0 -20 4.5 -37t15.5 -30t29 -20t46 -7q48 0 84.5 19t68.5 55q0 27 8 62t15 63l67 270h65l-79 -320q-6 -25 -10 -47t-4 -42q0 -27 5 -51t18 -53
l-67 -10q-6 12 -10.5 27.5t-6.5 31.5q-35 -34 -74.5 -49.5t-87.5 -15.5zM302 582l-30 33l143 158l45 -48zM459 582l-30 33l143 158l45 -48z" />
    <glyph glyph-name="Uogonek" unicode="&#x172;" horiz-adv-x="648" 
d="M250 693h68l-101 -419q-5 -23 -8.5 -45.5t-3.5 -43.5q0 -30 7 -55.5t24 -44.5t44 -30t68 -11q46 0 81 13t61.5 40.5t45.5 70.5t34 103l102 422h68l-104 -432q-29 -121 -80 -185.5t-136 -83.5q-48 -32 -67.5 -56t-19.5 -43q0 -12 8.5 -18t21 -8t25.5 -0.5t22 3.5l-7 -49
q-14 -3 -26.5 -5t-26.5 -2q-16 0 -30 3t-25 10.5t-17.5 19.5t-6.5 31q0 29 22.5 56.5t50.5 49.5h-2q-53 0 -91.5 14.5t-63.5 40.5t-37 62t-12 79q0 44 12 92z" />
    <glyph glyph-name="uogonek" unicode="&#x173;" 
d="M248 -12q-43 0 -72 11t-46 30.5t-24.5 46t-7.5 57.5q0 29 5 61.5t13 65.5l62 257h65l-55 -228q-8 -35 -17.5 -73.5t-9.5 -73.5q0 -20 4.5 -37t15.5 -30t29 -20t46 -7q48 0 84.5 19t68.5 55q0 27 8 62t15 63l67 270h65l-79 -320q-6 -25 -10 -47t-4 -42q0 -27 5 -51t18 -53
q-56 -36 -80.5 -63.5t-24.5 -47.5q0 -12 8.5 -18t21 -8t25.5 -0.5t22 3.5l-7 -49q-14 -3 -26.5 -5t-26.5 -2q-16 0 -30 3t-25 10.5t-17.5 19.5t-6.5 31q0 18 9 35t23 33t31 30t33 25q-10 25 -13 52q-35 -34 -74.5 -49.5t-87.5 -15.5z" />
    <glyph glyph-name="Wcircumflex" unicode="&#x174;" horiz-adv-x="867" 
d="M185 0q-17 170 -14.5 342t13.5 351h66q-10 -151 -13.5 -305.5t2.5 -312.5q42 66 78.5 125t72.5 120.5t74 130t84 153.5h60q5 -75 12 -149t14.5 -142.5t16 -129t16.5 -107.5q33 58 68 130.5t70 152.5t70 165t68 169h74q-81 -202 -161 -372.5t-165 -320.5h-72
q-19 105 -35 229.5t-27 269.5q-74 -135 -147.5 -256t-152.5 -243h-72zM506 723l-26 33l169 147l99 -147l-34 -33l-81 96z" />
    <glyph glyph-name="wcircumflex" unicode="&#x175;" horiz-adv-x="763" 
d="M246 0h-68q-21 110 -33.5 241t-14.5 276h64q1 -53 4 -115.5t8 -124.5t11 -117t14 -92q32 45 65.5 100t64 114.5t57 119.5t44.5 115h67q0 -49 2.5 -107t6.5 -118t9.5 -118t12.5 -106q24 27 58.5 81.5t69.5 119t65.5 130.5t45.5 118h64q-23 -74 -60 -151.5t-78.5 -147
t-82.5 -127t-72 -91.5h-68q-10 88 -19 190t-11 201q-20 -47 -46.5 -100.5t-56.5 -106t-61.5 -100.5t-61.5 -84zM402 583l-26 33l169 147l99 -147l-34 -33l-81 96z" />
    <glyph glyph-name="Ycircumflex" unicode="&#x176;" horiz-adv-x="555" 
d="M310 280q-19 51 -36.5 105t-34 107t-31.5 104.5t-28 96.5h74q20 -86 46 -177.5t58 -170.5q34 38 72 82t75 90t70 91t59 85h81q-69 -92 -156 -199t-181 -214l-66 -280h-68zM342 723l-26 33l169 147l99 -147l-34 -33l-81 96z" />
    <glyph glyph-name="ycircumflex" unicode="&#x177;" horiz-adv-x="452" 
d="M-36 -116q27 -15 61 -15q51 0 100 28t91 85q-42 133 -66 270t-28 265h68q2 -48 6.5 -105t13.5 -119t22 -126.5t32 -125.5q45 71 81 143.5t63 136.5t44.5 115.5t25.5 80.5h64q-6 -21 -22 -71.5t-43 -117.5t-65.5 -144.5t-88.5 -151.5q-77 -115 -149 -167.5t-150 -52.5
q-18 0 -39 3t-44 15zM235 583l-26 33l169 147l99 -147l-34 -33l-81 96z" />
    <glyph glyph-name="Zacute" unicode="&#x179;" horiz-adv-x="547" 
d="M51 51q29 41 69.5 90.5t87 103.5t96 109t97.5 106.5t92 96t79 77.5h-363l14 59h444l-14 -62q-29 -26 -69 -66t-86.5 -87.5t-95.5 -101.5t-97.5 -108.5t-92.5 -108t-79 -100.5h387l-13 -59h-467zM580 861l-175 -128l-29 44l166 146z" />
    <glyph glyph-name="zacute" unicode="&#x17a;" horiz-adv-x="428" 
d="M51 46q20 32 50 70t64.5 77t71.5 78t72.5 74t67 65t55.5 51h-269l12 56h353l-12 -51q-21 -19 -54 -50t-71 -68.5t-78 -79t-76.5 -80.5t-65.5 -73.5t-44 -58.5h295l-12 -56h-370zM494 711l-175 -128l-29 44l166 146z" />
    <glyph glyph-name="Zdotaccent" unicode="&#x17b;" horiz-adv-x="547" 
d="M51 51q29 41 69.5 90.5t87 103.5t96 109t97.5 106.5t92 96t79 77.5h-363l14 59h444l-14 -62q-29 -26 -69 -66t-86.5 -87.5t-95.5 -101.5t-97.5 -108.5t-92.5 -108t-79 -100.5h387l-13 -59h-467zM471 775q-26 0 -37 14t-11 32q0 21 14.5 40t40.5 19t37 -14t11 -32
q0 -21 -14.5 -40t-40.5 -19z" />
    <glyph glyph-name="zdotaccent" unicode="&#x17c;" horiz-adv-x="428" 
d="M51 46q20 32 50 70t64.5 77t71.5 78t72.5 74t67 65t55.5 51h-269l12 56h353l-12 -51q-21 -19 -54 -50t-71 -68.5t-78 -79t-76.5 -80.5t-65.5 -73.5t-44 -58.5h295l-12 -56h-370zM376 621q-26 0 -37 14t-11 32q0 21 14.5 40t40.5 19t37 -14t11 -32q0 -21 -14.5 -40
t-40.5 -19z" />
    <glyph glyph-name="Zcaron" unicode="&#x17d;" horiz-adv-x="547" 
d="M51 51q29 41 69.5 90.5t87 103.5t96 109t97.5 106.5t92 96t79 77.5h-363l14 59h444l-14 -62q-29 -26 -69 -66t-86.5 -87.5t-95.5 -101.5t-97.5 -108.5t-92.5 -108t-79 -100.5h387l-13 -59h-467zM574 914l26 -33l-169 -147l-99 147l34 33l81 -96z" />
    <glyph glyph-name="zcaron" unicode="&#x17e;" horiz-adv-x="428" 
d="M51 46q20 32 50 70t64.5 77t71.5 78t72.5 74t67 65t55.5 51h-269l12 56h353l-12 -51q-21 -19 -54 -50t-71 -68.5t-78 -79t-76.5 -80.5t-65.5 -73.5t-44 -58.5h295l-12 -56h-370zM483 763l26 -33l-169 -147l-99 147l34 33l81 -96z" />
    <glyph glyph-name="longs" unicode="&#x17f;" horiz-adv-x="245" 
d="M171 102q-12 -48 -23.5 -88.5t-26 -75.5t-33.5 -66t-45 -61l-57 9q25 34 42.5 62.5t29.5 56.5t21 56.5t17 62.5l124 515q14 60 37.5 99t53 62t63.5 32.5t69 9.5q34 0 58.5 -6t45.5 -14l-31 -52q-21 7 -39.5 11t-43.5 4q-26 0 -48 -7t-41 -24t-34 -45.5t-25 -71.5z" />
    <glyph glyph-name="Scommaaccent" unicode="&#x218;" horiz-adv-x="487" 
d="M83 93q29 -22 70.5 -35.5t86.5 -13.5q36 0 69.5 8.5t60 27t42.5 47t16 68.5t-19 65t-47.5 43t-62 33.5t-62 37.5t-47.5 53.5t-19 82.5q0 36 15 71.5t46.5 63.5t79 45.5t112.5 17.5q43 0 81.5 -8.5t83.5 -30.5l-35 -57q-35 21 -69.5 29.5t-72.5 8.5q-33 0 -63.5 -7.5
t-54.5 -23t-38.5 -41t-14.5 -61.5q0 -40 19 -65t48 -43t62 -33.5t62 -37t48 -54.5t19 -86q0 -39 -15.5 -77.5t-49 -68.5t-85 -48.5t-123.5 -18.5q-48 0 -93.5 13t-84.5 36zM110 -139q21 -3 36 3.5t24.5 19t15.5 29.5t11 37h72q-4 -29 -17.5 -56t-35.5 -47t-51.5 -29t-65.5 0
z" />
    <glyph glyph-name="scommaaccent" unicode="&#x219;" horiz-adv-x="400" 
d="M76 82q37 -20 65 -27t63 -7q25 0 48 5.5t40 16.5t27 29t10 42q0 26 -14.5 43t-36 29.5t-46.5 24.5t-46.5 28t-36 40t-14.5 62q0 43 16 73.5t43 50t62 28.5t72 9q32 0 63.5 -5.5t60.5 -16.5l-26 -58q-21 9 -48 14.5t-56 5.5q-24 0 -46.5 -5t-39.5 -16.5t-27.5 -29
t-10.5 -42.5q0 -26 14.5 -43t35.5 -30t46.5 -24.5t46.5 -27.5t35.5 -38.5t14.5 -57.5q0 -44 -16.5 -76t-43.5 -52t-62 -29.5t-72 -9.5q-39 0 -78 8.5t-71 26.5zM60 -139q21 -3 36 3.5t24.5 19t15.5 29.5t11 37h72q-4 -29 -17.5 -56t-35.5 -47t-51.5 -29t-65.5 0z" />
    <glyph glyph-name="uni021A" unicode="&#x21a;" horiz-adv-x="526" 
d="M382 634h-212l13 59h493l-14 -59h-212l-152 -634h-68zM130 -139q21 -3 36 3.5t24.5 19t15.5 29.5t11 37h72q-4 -29 -17.5 -56t-35.5 -47t-51.5 -29t-65.5 0z" />
    <glyph glyph-name="uni021B" unicode="&#x21b;" horiz-adv-x="377" 
d="M238 669l68 12l-39 -164h182l-13 -56h-183l-61 -253q-5 -18 -8.5 -38.5t-3.5 -40.5q0 -45 22 -63t55 -18q32 0 55.5 7t49.5 19l6 -59q-27 -11 -60.5 -19t-66.5 -8q-26 0 -49 6t-40.5 20t-28 37t-10.5 58q0 43 14 99zM93 -139q21 -3 36 3.5t24.5 19t15.5 29.5t11 37h72
q-4 -29 -17.5 -56t-35.5 -47t-51.5 -29t-65.5 0z" />
    <glyph glyph-name="dotlessj" unicode="&#x237;" horiz-adv-x="235" 
d="M-86 -115q16 -8 30.5 -12t33.5 -4q27 0 46 11t33.5 30.5t24 46.5t17.5 59l119 501h65l-117 -489q-13 -54 -28.5 -94.5t-38 -67.5t-54 -40.5t-75.5 -13.5q-25 0 -42.5 5.5t-28.5 12.5z" />
    <glyph glyph-name="apostrophe" unicode="&#x2bc;" horiz-adv-x="236" 
d="M188 586q18 23 33.5 48.5t27 51t18 49t7.5 41.5h73q-11 -53 -40.5 -103t-74.5 -104z" />
    <glyph glyph-name="caron" unicode="&#x2c7;" horiz-adv-x="336" 
d="M442 763l26 -33l-169 -147l-99 147l34 33l81 -96z" />
    <glyph glyph-name="uni02C9" unicode="&#x2c9;" horiz-adv-x="336" 
d="M176 647l13 57h259l-13 -57h-259z" />
    <glyph glyph-name="breve" unicode="&#x2d8;" horiz-adv-x="336" 
d="M222 746h42q-1 -5 -1 -9v-8q0 -28 15.5 -44t46.5 -16q27 0 44.5 9.5t28.5 22t16.5 25.5t7.5 20h42q-8 -69 -47.5 -101t-100.5 -32q-49 0 -73.5 28.5t-24.5 71.5q0 7 1 15.5t3 17.5z" />
    <glyph glyph-name="dotaccent" unicode="&#x2d9;" horiz-adv-x="336" 
d="M316 621q-26 0 -37 14t-11 32q0 21 14.5 40t40.5 19t37 -14t11 -32q0 -21 -14.5 -40t-40.5 -19z" />
    <glyph glyph-name="ring" unicode="&#x2da;" horiz-adv-x="336" 
d="M409 676q0 -22 -7.5 -39.5t-20.5 -30t-30.5 -19.5t-36.5 -7q-39 0 -67.5 26t-28.5 70q0 43 28.5 69t67.5 26q19 0 36.5 -7t30.5 -19.5t20.5 -30t7.5 -38.5zM371 676q0 28 -16.5 43.5t-40.5 15.5t-40.5 -15.5t-16.5 -43.5q0 -29 16.5 -44t40.5 -15t40.5 15t16.5 44z" />
    <glyph glyph-name="ogonek" unicode="&#x2db;" horiz-adv-x="336" 
d="M49 -122q0 18 9.5 36t24.5 34t32.5 30.5t34.5 25.5h67q-59 -38 -82.5 -64.5t-23.5 -46.5q0 -12 8.5 -18t21 -8t25.5 -0.5t22 3.5l-7 -49q-14 -3 -26.5 -5t-26.5 -2q-16 0 -30 3t-25 10.5t-17.5 19.5t-6.5 31z" />
    <glyph glyph-name="hungarumlaut" unicode="&#x2dd;" horiz-adv-x="336" 
d="M188 582l-30 33l143 158l45 -48zM345 582l-30 33l143 158l45 -48z" />
    <glyph glyph-name="Wgrave" unicode="&#x1e80;" horiz-adv-x="867" 
d="M185 0q-17 170 -14.5 342t13.5 351h66q-10 -151 -13.5 -305.5t2.5 -312.5q42 66 78.5 125t72.5 120.5t74 130t84 153.5h60q5 -75 12 -149t14.5 -142.5t16 -129t16.5 -107.5q33 58 68 130.5t70 152.5t70 165t68 169h74q-81 -202 -161 -372.5t-165 -320.5h-72
q-19 105 -35 229.5t-27 269.5q-74 -135 -147.5 -256t-152.5 -243h-72zM547 928l146 -155l-35 -35l-164 132z" />
    <glyph glyph-name="wgrave" unicode="&#x1e81;" horiz-adv-x="763" 
d="M246 0h-68q-21 110 -33.5 241t-14.5 276h64q1 -53 4 -115.5t8 -124.5t11 -117t14 -92q32 45 65.5 100t64 114.5t57 119.5t44.5 115h67q0 -49 2.5 -107t6.5 -118t9.5 -118t12.5 -106q24 27 58.5 81.5t69.5 119t65.5 130.5t45.5 118h64q-23 -74 -60 -151.5t-78.5 -147
t-82.5 -127t-72 -91.5h-68q-10 88 -19 190t-11 201q-20 -47 -46.5 -100.5t-56.5 -106t-61.5 -100.5t-61.5 -84zM459 773l146 -155l-35 -35l-164 132z" />
    <glyph glyph-name="Wacute" unicode="&#x1e82;" horiz-adv-x="867" 
d="M185 0q-17 170 -14.5 342t13.5 351h66q-10 -151 -13.5 -305.5t2.5 -312.5q42 66 78.5 125t72.5 120.5t74 130t84 153.5h60q5 -75 12 -149t14.5 -142.5t16 -129t16.5 -107.5q33 58 68 130.5t70 152.5t70 165t68 169h74q-81 -202 -161 -372.5t-165 -320.5h-72
q-19 105 -35 229.5t-27 269.5q-74 -135 -147.5 -256t-152.5 -243h-72zM743 866l-175 -128l-29 44l166 146z" />
    <glyph glyph-name="wacute" unicode="&#x1e83;" horiz-adv-x="763" 
d="M246 0h-68q-21 110 -33.5 241t-14.5 276h64q1 -53 4 -115.5t8 -124.5t11 -117t14 -92q32 45 65.5 100t64 114.5t57 119.5t44.5 115h67q0 -49 2.5 -107t6.5 -118t9.5 -118t12.5 -106q24 27 58.5 81.5t69.5 119t65.5 130.5t45.5 118h64q-23 -74 -60 -151.5t-78.5 -147
t-82.5 -127t-72 -91.5h-68q-10 88 -19 190t-11 201q-20 -47 -46.5 -100.5t-56.5 -106t-61.5 -100.5t-61.5 -84zM647 711l-175 -128l-29 44l166 146z" />
    <glyph glyph-name="Wdieresis" unicode="&#x1e84;" horiz-adv-x="867" 
d="M185 0q-17 170 -14.5 342t13.5 351h66q-10 -151 -13.5 -305.5t2.5 -312.5q42 66 78.5 125t72.5 120.5t74 130t84 153.5h60q5 -75 12 -149t14.5 -142.5t16 -129t16.5 -107.5q33 58 68 130.5t70 152.5t70 165t68 169h74q-81 -202 -161 -372.5t-165 -320.5h-72
q-19 105 -35 229.5t-27 269.5q-74 -135 -147.5 -256t-152.5 -243h-72zM715 784q-23 0 -33.5 12.5t-10.5 29.5q0 20 13.5 37t37.5 17q22 0 32.5 -13t10.5 -29q0 -19 -13 -36.5t-37 -17.5zM542 784q-22 0 -32.5 12.5t-10.5 29.5q0 20 13 37t37 17q23 0 33.5 -13t10.5 -29
q0 -19 -13.5 -36.5t-37.5 -17.5z" />
    <glyph glyph-name="wdieresis" unicode="&#x1e85;" horiz-adv-x="763" 
d="M246 0h-68q-21 110 -33.5 241t-14.5 276h64q1 -53 4 -115.5t8 -124.5t11 -117t14 -92q32 45 65.5 100t64 114.5t57 119.5t44.5 115h67q0 -49 2.5 -107t6.5 -118t9.5 -118t12.5 -106q24 27 58.5 81.5t69.5 119t65.5 130.5t45.5 118h64q-23 -74 -60 -151.5t-78.5 -147
t-82.5 -127t-72 -91.5h-68q-10 88 -19 190t-11 201q-20 -47 -46.5 -100.5t-56.5 -106t-61.5 -100.5t-61.5 -84zM607 625q-23 0 -33.5 12.5t-10.5 29.5q0 20 13.5 37t37.5 17q22 0 32.5 -13t10.5 -29q0 -19 -13 -36.5t-37 -17.5zM434 625q-22 0 -32.5 12.5t-10.5 29.5
q0 20 13 37t37 17q23 0 33.5 -13t10.5 -29q0 -19 -13.5 -36.5t-37.5 -17.5z" />
    <glyph glyph-name="Ygrave" unicode="&#x1ef2;" horiz-adv-x="555" 
d="M310 280q-19 51 -36.5 105t-34 107t-31.5 104.5t-28 96.5h74q20 -86 46 -177.5t58 -170.5q34 38 72 82t75 90t70 91t59 85h81q-69 -92 -156 -199t-181 -214l-66 -280h-68zM382 923l146 -155l-35 -35l-164 132z" />
    <glyph glyph-name="ygrave" unicode="&#x1ef3;" horiz-adv-x="452" 
d="M-36 -116q27 -15 61 -15q51 0 100 28t91 85q-42 133 -66 270t-28 265h68q2 -48 6.5 -105t13.5 -119t22 -126.5t32 -125.5q45 71 81 143.5t63 136.5t44.5 115.5t25.5 80.5h64q-6 -21 -22 -71.5t-43 -117.5t-65.5 -144.5t-88.5 -151.5q-77 -115 -149 -167.5t-150 -52.5
q-18 0 -39 3t-44 15zM271 773l146 -155l-35 -35l-164 132z" />
    <glyph glyph-name="fraction" unicode="&#x2044;" horiz-adv-x="171" 
d="M421 693h70l-561 -693h-70z" />
    <glyph glyph-name="zerosuperior" unicode="&#x2070;" horiz-adv-x="363" 
d="M145 432q0 66 18 117.5t46 86.5t62.5 53.5t67.5 18.5q21 0 41.5 -7.5t36.5 -22.5t26 -38.5t10 -55.5q0 -66 -18 -117.5t-46 -86.5t-62.5 -53.5t-67.5 -18.5q-21 0 -41.5 7.5t-36.5 22.5t-26 38.5t-10 55.5zM396 573q0 42 -14 64t-49 22t-59.5 -24t-40.5 -58.5
t-23.5 -71.5t-7.5 -62q0 -42 14 -64t49 -22q34 0 59 24t41 58.5t23.5 71t7.5 62.5z" />
    <glyph glyph-name="foursuperior" unicode="&#x2074;" horiz-adv-x="363" 
d="M137 413l8 33q16 25 45 60t64 71t73 68.5t71 53.5h47l-58 -242h48l-11 -44h-47l-23 -96h-53l22 96h-186zM335 457l43 180q-46 -36 -91.5 -83.5t-82.5 -96.5h131z" />
    <glyph glyph-name="fivesuperior" unicode="&#x2075;" horiz-adv-x="363" 
d="M151 377q20 -11 45.5 -16.5t51.5 -5.5q22 0 43 4.5t37 14.5t25.5 26t9.5 38q0 15 -5.5 27.5t-22.5 22t-49.5 15t-86.5 6.5q17 45 33 90.5t31 99.5h200l-13 -48h-152q-6 -21 -16 -50t-19 -49q79 -5 116.5 -29t37.5 -81q0 -36 -15 -61.5t-40 -41t-57.5 -23t-66.5 -7.5
q-67 0 -108 22z" />
    <glyph glyph-name="sixsuperior" unicode="&#x2076;" horiz-adv-x="363" 
d="M449 655q-82 -1 -136.5 -34.5t-79.5 -87.5q23 10 48 16t48 6q27 0 46.5 -8.5t32.5 -23t19 -33t6 -38.5q0 -35 -12 -61.5t-32.5 -45t-48 -28t-58.5 -9.5q-25 0 -47.5 7t-39 22.5t-26 39.5t-9.5 59q0 61 23 110t63 83.5t93.5 53t113.5 20.5zM313 511q-26 0 -50.5 -7
t-44.5 -15q-2 -12 -3.5 -25t-1.5 -27t3.5 -29t11.5 -27t21.5 -19.5t33.5 -7.5q23 0 40.5 8t29.5 20.5t18 29t6 34.5q0 65 -64 65z" />
    <glyph glyph-name="sevensuperior" unicode="&#x2077;" horiz-adv-x="363" 
d="M190 317q15 45 38.5 91.5t52.5 90.5t61 82.5t63 67.5h-193l12 50h266l-9 -39q-22 -18 -54 -51.5t-66 -78.5t-65.5 -99t-52.5 -114h-53z" />
    <glyph glyph-name="eightsuperior" unicode="&#x2078;" horiz-adv-x="363" 
d="M151 397q0 32 23.5 65.5t74.5 53.5q-19 11 -31 26t-12 41t12 49t33 40t48.5 26.5t58.5 9.5q51 0 75.5 -23.5t24.5 -55.5t-21.5 -64.5t-62.5 -53.5q21 -11 36 -27.5t15 -44.5q0 -31 -14 -55.5t-37.5 -41t-53 -25.5t-59.5 -9q-56 0 -83 26.5t-27 62.5zM373 430
q0 15 -8 25.5t-20.5 18.5t-29 14t-32.5 12q-14 -6 -28.5 -15t-26 -21t-18.5 -27t-7 -33q0 -9 3 -18.5t11 -16.5t21.5 -11.5t33.5 -4.5q27 0 46 7t31 18.5t18 25t6 26.5zM258 587q0 -13 6.5 -22t17.5 -15.5t25 -12t29 -11.5q12 6 24.5 15.5t23 21t17 25.5t6.5 31
q0 18 -14 31.5t-46 13.5q-41 0 -65 -22t-24 -55z" />
    <glyph glyph-name="ninesuperior" unicode="&#x2079;" horiz-adv-x="363" 
d="M158 363q92 0 148 32.5t80 88.5q-25 -11 -50 -17t-48 -6q-27 0 -46.5 8.5t-32.5 22.5t-19 33t-6 39q0 34 12 61t32.5 45.5t48 28t58.5 9.5q25 0 47.5 -7t39 -22t26 -39.5t9.5 -59.5q0 -62 -22 -111t-62.5 -83t-97 -52.5t-125.5 -18.5zM304 505q26 0 50.5 6.5t44.5 14.5
q3 13 4 26t1 27q0 15 -3.5 30t-11.5 26.5t-21.5 19t-33.5 7.5q-23 0 -40.5 -8t-29.5 -20.5t-18 -29t-6 -34.5q0 -65 64 -65z" />
    <glyph glyph-name="zeroinferior" unicode="&#x2080;" horiz-adv-x="363" 
d="M76 111q0 66 18 117.5t46 86.5t62.5 53.5t67.5 18.5q21 0 41.5 -7.5t36.5 -22.5t26 -38.5t10 -55.5q0 -66 -18 -117.5t-46 -86.5t-62.5 -53.5t-67.5 -18.5q-21 0 -41.5 7.5t-36.5 22.5t-26 38.5t-10 55.5zM327 252q0 42 -14 64t-49 22t-59.5 -24t-40.5 -58.5t-23.5 -71.5
t-7.5 -62q0 -42 14 -64t49 -22q34 0 59 24t41 58.5t23.5 71t7.5 62.5z" />
    <glyph glyph-name="oneinferior" unicode="&#x2081;" horiz-adv-x="363" 
d="M198 -4l74 308q-29 -20 -61 -31.5t-46 -15.5l-8 42q49 17 84 35.5t66 43.5h36l-91 -382h-54z" />
    <glyph glyph-name="twoinferior" unicode="&#x2082;" horiz-adv-x="363" 
d="M81 -4q3 45 22.5 76.5t47 54.5t58.5 40.5t57.5 35t44 37.5t17.5 49q0 25 -15.5 37.5t-38.5 12.5q-31 0 -57.5 -10t-44.5 -24l-19 37q29 24 59 34.5t63 10.5q21 0 40.5 -4.5t35 -15t24.5 -29t9 -45.5q0 -32 -16.5 -57t-41 -45t-54.5 -37.5t-56.5 -34.5t-46.5 -35t-25 -40
h190l-12 -48h-241z" />
    <glyph glyph-name="threeinferior" unicode="&#x2083;" horiz-adv-x="363" 
d="M86 56q18 -10 42 -15t49 -5q54 0 85.5 22.5t31.5 58.5q0 32 -25.5 46.5t-85.5 14.5h-6l11 45h22q54 0 82 22t28 51q0 44 -59 44q-26 0 -53 -7.5t-42 -15.5l-11 40q25 14 55.5 22t62.5 8q51 0 76 -25t25 -58q0 -29 -21 -58.5t-63 -45.5q32 -11 46 -32.5t14 -47.5
q0 -23 -10 -46.5t-31 -42.5t-54.5 -31t-80.5 -12q-29 0 -57.5 6t-51.5 18z" />
    <glyph glyph-name="fourinferior" unicode="&#x2084;" horiz-adv-x="363" 
d="M69 92l8 33q16 25 45 60t64 71t73 68.5t71 53.5h47l-58 -242h48l-11 -44h-47l-23 -96h-53l22 96h-186zM267 136l43 180q-46 -36 -91.5 -83.5t-82.5 -96.5h131z" />
    <glyph glyph-name="fiveinferior" unicode="&#x2085;" horiz-adv-x="363" 
d="M77 56q20 -11 45.5 -16.5t51.5 -5.5q22 0 43 4.5t37 14.5t25.5 26t9.5 38q0 15 -5.5 27.5t-22.5 22t-49.5 15t-86.5 6.5q17 45 33 90.5t31 99.5h200l-13 -48h-152q-6 -21 -16 -50t-19 -49q79 -5 116.5 -29t37.5 -81q0 -36 -15 -61.5t-40 -41t-57.5 -23t-66.5 -7.5
q-67 0 -108 22z" />
    <glyph glyph-name="sixinferior" unicode="&#x2086;" horiz-adv-x="363" 
d="M372 334q-82 -1 -136.5 -34.5t-79.5 -87.5q23 10 48 16t48 6q27 0 46.5 -8.5t32.5 -23t19 -33t6 -38.5q0 -35 -12 -61.5t-32.5 -45t-48 -28t-58.5 -9.5q-25 0 -47.5 7t-39 22.5t-26 39.5t-9.5 59q0 61 23 110t63 83.5t93.5 53t113.5 20.5zM236 190q-26 0 -50.5 -7
t-44.5 -15q-2 -12 -3.5 -25t-1.5 -27t3.5 -29t11.5 -27t21.5 -19.5t33.5 -7.5q23 0 40.5 8t29.5 20.5t18 29t6 34.5q0 65 -64 65z" />
    <glyph glyph-name="seveninferior" unicode="&#x2087;" horiz-adv-x="363" 
d="M124 -4q15 45 38.5 91.5t52.5 90.5t61 82.5t63 67.5h-193l12 50h266l-9 -39q-22 -18 -54 -51.5t-66 -78.5t-65.5 -99t-52.5 -114h-53z" />
    <glyph glyph-name="eightinferior" unicode="&#x2088;" horiz-adv-x="363" 
d="M80 76q0 32 23.5 65.5t74.5 53.5q-19 11 -31 26t-12 41t12 49t33 40t48.5 26.5t58.5 9.5q51 0 75.5 -23.5t24.5 -55.5t-21.5 -64.5t-62.5 -53.5q21 -11 36 -27.5t15 -44.5q0 -31 -14 -55.5t-37.5 -41t-53 -25.5t-59.5 -9q-56 0 -83 26.5t-27 62.5zM302 109q0 15 -8 25.5
t-20.5 18.5t-29 14t-32.5 12q-14 -6 -28.5 -15t-26 -21t-18.5 -27t-7 -33q0 -9 3 -18.5t11 -16.5t21.5 -11.5t33.5 -4.5q27 0 46 7t31 18.5t18 25t6 26.5zM187 266q0 -13 6.5 -22t17.5 -15.5t25 -12t29 -11.5q12 6 24.5 15.5t23 21t17 25.5t6.5 31q0 18 -14 31.5t-46 13.5
q-41 0 -65 -22t-24 -55z" />
    <glyph glyph-name="nineinferior" unicode="&#x2089;" horiz-adv-x="363" 
d="M76 42q92 0 148 32.5t80 88.5q-25 -11 -50 -17t-48 -6q-27 0 -46.5 8.5t-32.5 22.5t-19 33t-6 39q0 34 12 61t32.5 45.5t48 28t58.5 9.5q25 0 47.5 -7t39 -22t26 -39.5t9.5 -59.5q0 -62 -22 -111t-62.5 -83t-97 -52.5t-125.5 -18.5zM222 184q26 0 50.5 6.5t44.5 14.5
q3 13 4 26t1 27q0 15 -3.5 30t-11.5 26.5t-21.5 19t-33.5 7.5q-23 0 -40.5 -8t-29.5 -20.5t-18 -29t-6 -34.5q0 -65 64 -65z" />
    <glyph glyph-name="afii61289" unicode="&#x2113;" horiz-adv-x="418" 
d="M72 174l107 76v227q0 95 9.5 153.5t28 91t47 43.5t66.5 11q43 0 67 -16.5t36 -41t15 -53t3 -52.5q0 -113 -56 -204t-147 -163v-49q0 -80 24.5 -117t80.5 -37q33 0 52 11t33 22l25 -56q-18 -14 -47.5 -25t-71.5 -11q-56 0 -90 18.5t-51.5 48t-22.5 65t-2 69.5l-76 -54z
M248 304q69 59 107.5 132t38.5 176q0 16 -2 34t-9 33t-19.5 25t-34.5 10q-16 0 -30.5 -5.5t-26 -21.5t-18 -46t-6.5 -79v-258z" />
    <glyph glyph-name="estimated" unicode="&#x212e;" horiz-adv-x="932" 
d="M306 136q0 -13 9 -22q48 -51 110 -79t135 -28q79 0 145 32.5t114 86.5h57q-26 -32 -60.5 -57.5t-75.5 -43.5t-87 -28t-94 -10q-83 0 -156 28.5t-127 77t-85.5 114t-31.5 140.5t31.5 140.5t85.5 114.5t127 77.5t156 28.5t156.5 -28.5t128 -77.5t86 -114.5t31.5 -140.5v-10
h-650q-5 0 -5 -4v-197zM809 356q4 0 4 7v197q0 13 -9 24q-48 48 -110 75t-134 27q-71 0 -134 -29t-110 -77q-5 -4 -7.5 -10.5t-2.5 -13.5v-193q0 -7 5 -7h498z" />
    <glyph glyph-name="onethird" unicode="&#x2153;" horiz-adv-x="878" 
d="M725 693h70l-561 -693h-70zM246 317l74 308q-29 -20 -61 -31.5t-46 -15.5l-8 42q49 17 84 35.5t66 43.5h36l-91 -382h-54zM560 61q18 -10 42 -15t49 -5q54 0 85.5 22.5t31.5 58.5q0 32 -25.5 46.5t-85.5 14.5h-6l11 45h22q54 0 82 22t28 51q0 44 -59 44q-26 0 -53 -7.5
t-42 -15.5l-11 40q25 14 55.5 22t62.5 8q51 0 76 -25t25 -58q0 -29 -21 -58.5t-63 -45.5q32 -11 46 -32.5t14 -47.5q0 -23 -10 -46.5t-31 -42.5t-54.5 -31t-80.5 -12q-29 0 -57.5 6t-51.5 18z" />
    <glyph glyph-name="twothirds" unicode="&#x2154;" horiz-adv-x="878" 
d="M767 693h70l-561 -693h-70zM149 317q3 45 22.5 76.5t47 54.5t58.5 40.5t57.5 35t44 37.5t17.5 49q0 25 -15.5 37.5t-38.5 12.5q-31 0 -57.5 -10t-44.5 -24l-19 37q29 24 59 34.5t63 10.5q21 0 40.5 -4.5t35 -15t24.5 -29t9 -45.5q0 -32 -16.5 -57t-41 -45t-54.5 -37.5
t-56.5 -34.5t-46.5 -35t-25 -40h190l-12 -48h-241zM570 61q18 -10 42 -15t49 -5q54 0 85.5 22.5t31.5 58.5q0 32 -25.5 46.5t-85.5 14.5h-6l11 45h22q54 0 82 22t28 51q0 44 -59 44q-26 0 -53 -7.5t-42 -15.5l-11 40q25 14 55.5 22t62.5 8q51 0 76 -25t25 -58
q0 -29 -21 -58.5t-63 -45.5q32 -11 46 -32.5t14 -47.5q0 -23 -10 -46.5t-31 -42.5t-54.5 -31t-80.5 -12q-29 0 -57.5 6t-51.5 18z" />
    <glyph glyph-name="oneeighth" unicode="&#x215b;" horiz-adv-x="878" 
d="M710 693h70l-561 -693h-70zM231 317l74 308q-29 -20 -61 -31.5t-46 -15.5l-8 42q49 17 84 35.5t66 43.5h36l-91 -382h-54zM539 81q0 32 23.5 65.5t74.5 53.5q-19 11 -31 26t-12 41t12 49t33 40t48.5 26.5t58.5 9.5q51 0 75.5 -23.5t24.5 -55.5t-21.5 -64.5t-62.5 -53.5
q21 -11 36 -27.5t15 -44.5q0 -31 -14 -55.5t-37.5 -41t-53 -25.5t-59.5 -9q-56 0 -83 26.5t-27 62.5zM761 114q0 15 -8 25.5t-20.5 18.5t-29 14t-32.5 12q-14 -6 -28.5 -15t-26 -21t-18.5 -27t-7 -33q0 -9 3 -18.5t11 -16.5t21.5 -11.5t33.5 -4.5q27 0 46 7t31 18.5t18 25
t6 26.5zM646 271q0 -13 6.5 -22t17.5 -15.5t25 -12t29 -11.5q12 6 24.5 15.5t23 21t17 25.5t6.5 31q0 18 -14 31.5t-46 13.5q-41 0 -65 -22t-24 -55z" />
    <glyph glyph-name="threeeighths" unicode="&#x215c;" horiz-adv-x="878" 
d="M762 693h70l-561 -693h-70zM559 81q0 32 23.5 65.5t74.5 53.5q-19 11 -31 26t-12 41t12 49t33 40t48.5 26.5t58.5 9.5q51 0 75.5 -23.5t24.5 -55.5t-21.5 -64.5t-62.5 -53.5q21 -11 36 -27.5t15 -44.5q0 -31 -14 -55.5t-37.5 -41t-53 -25.5t-59.5 -9q-56 0 -83 26.5
t-27 62.5zM781 114q0 15 -8 25.5t-20.5 18.5t-29 14t-32.5 12q-14 -6 -28.5 -15t-26 -21t-18.5 -27t-7 -33q0 -9 3 -18.5t11 -16.5t21.5 -11.5t33.5 -4.5q27 0 46 7t31 18.5t18 25t6 26.5zM666 271q0 -13 6.5 -22t17.5 -15.5t25 -12t29 -11.5q12 6 24.5 15.5t23 21t17 25.5
t6.5 31q0 18 -14 31.5t-46 13.5q-41 0 -65 -22t-24 -55zM147 377q18 -10 42 -15t49 -5q54 0 85.5 22.5t31.5 58.5q0 32 -25.5 46.5t-85.5 14.5h-6l11 45h22q54 0 82 22t28 51q0 44 -59 44q-26 0 -53 -7.5t-42 -15.5l-11 40q25 14 55.5 22t62.5 8q51 0 76 -25t25 -58
q0 -29 -21 -58.5t-63 -45.5q32 -11 46 -32.5t14 -47.5q0 -23 -10 -46.5t-31 -42.5t-54.5 -31t-80.5 -12q-29 0 -57.5 6t-51.5 18z" />
    <glyph glyph-name="fiveeighths" unicode="&#x215d;" horiz-adv-x="878" 
d="M767 693h70l-561 -693h-70zM158 377q20 -11 45.5 -16.5t51.5 -5.5q22 0 43 4.5t37 14.5t25.5 26t9.5 38q0 15 -5.5 27.5t-22.5 22t-49.5 15t-86.5 6.5q17 45 33 90.5t31 99.5h200l-13 -48h-152q-6 -21 -16 -50t-19 -49q79 -5 116.5 -29t37.5 -81q0 -36 -15 -61.5t-40 -41
t-57.5 -23t-66.5 -7.5q-67 0 -108 22zM564 81q0 32 23.5 65.5t74.5 53.5q-19 11 -31 26t-12 41t12 49t33 40t48.5 26.5t58.5 9.5q51 0 75.5 -23.5t24.5 -55.5t-21.5 -64.5t-62.5 -53.5q21 -11 36 -27.5t15 -44.5q0 -31 -14 -55.5t-37.5 -41t-53 -25.5t-59.5 -9
q-56 0 -83 26.5t-27 62.5zM786 114q0 15 -8 25.5t-20.5 18.5t-29 14t-32.5 12q-14 -6 -28.5 -15t-26 -21t-18.5 -27t-7 -33q0 -9 3 -18.5t11 -16.5t21.5 -11.5t33.5 -4.5q27 0 46 7t31 18.5t18 25t6 26.5zM671 271q0 -13 6.5 -22t17.5 -15.5t25 -12t29 -11.5q12 6 24.5 15.5
t23 21t17 25.5t6.5 31q0 18 -14 31.5t-46 13.5q-41 0 -65 -22t-24 -55z" />
    <glyph glyph-name="seveneighths" unicode="&#x215e;" horiz-adv-x="878" 
d="M710 693h70l-561 -693h-70zM559 81q0 32 23.5 65.5t74.5 53.5q-19 11 -31 26t-12 41t12 49t33 40t48.5 26.5t58.5 9.5q51 0 75.5 -23.5t24.5 -55.5t-21.5 -64.5t-62.5 -53.5q21 -11 36 -27.5t15 -44.5q0 -31 -14 -55.5t-37.5 -41t-53 -25.5t-59.5 -9q-56 0 -83 26.5
t-27 62.5zM781 114q0 15 -8 25.5t-20.5 18.5t-29 14t-32.5 12q-14 -6 -28.5 -15t-26 -21t-18.5 -27t-7 -33q0 -9 3 -18.5t11 -16.5t21.5 -11.5t33.5 -4.5q27 0 46 7t31 18.5t18 25t6 26.5zM666 271q0 -13 6.5 -22t17.5 -15.5t25 -12t29 -11.5q12 6 24.5 15.5t23 21t17 25.5
t6.5 31q0 18 -14 31.5t-46 13.5q-41 0 -65 -22t-24 -55zM167 317q15 45 38.5 91.5t52.5 90.5t61 82.5t63 67.5h-193l12 50h266l-9 -39q-22 -18 -54 -51.5t-66 -78.5t-65.5 -99t-52.5 -114h-53z" />
    <glyph glyph-name="onefifth" unicode="&#x2155;" horiz-adv-x="878" 
d="M750 693h70l-561 -693h-70zM266 317l74 308q-29 -20 -61 -31.5t-46 -15.5l-8 42q49 17 84 35.5t66 43.5h36l-91 -382h-54zM587 61q20 -11 45.5 -16.5t51.5 -5.5q22 0 43 4.5t37 14.5t25.5 26t9.5 38q0 15 -5.5 27.5t-22.5 22t-49.5 15t-86.5 6.5q17 45 33 90.5t31 99.5
h200l-13 -48h-152q-6 -21 -16 -50t-19 -49q79 -5 116.5 -29t37.5 -81q0 -36 -15 -61.5t-40 -41t-57.5 -23t-66.5 -7.5q-67 0 -108 22z" />
    <glyph glyph-name="twofifths" unicode="&#x2156;" horiz-adv-x="878" 
d="M781 693h70l-561 -693h-70zM139 317q3 45 22.5 76.5t47 54.5t58.5 40.5t57.5 35t44 37.5t17.5 49q0 25 -15.5 37.5t-38.5 12.5q-31 0 -57.5 -10t-44.5 -24l-19 37q29 24 59 34.5t63 10.5q21 0 40.5 -4.5t35 -15t24.5 -29t9 -45.5q0 -32 -16.5 -57t-41 -45t-54.5 -37.5
t-56.5 -34.5t-46.5 -35t-25 -40h190l-12 -48h-241zM592 61q20 -11 45.5 -16.5t51.5 -5.5q22 0 43 4.5t37 14.5t25.5 26t9.5 38q0 15 -5.5 27.5t-22.5 22t-49.5 15t-86.5 6.5q17 45 33 90.5t31 99.5h200l-13 -48h-152q-6 -21 -16 -50t-19 -49q79 -5 116.5 -29t37.5 -81
q0 -36 -15 -61.5t-40 -41t-57.5 -23t-66.5 -7.5q-67 0 -108 22z" />
    <glyph glyph-name="threefifths" unicode="&#x2157;" horiz-adv-x="878" 
d="M762 693h70l-561 -693h-70zM587 61q20 -11 45.5 -16.5t51.5 -5.5q22 0 43 4.5t37 14.5t25.5 26t9.5 38q0 15 -5.5 27.5t-22.5 22t-49.5 15t-86.5 6.5q17 45 33 90.5t31 99.5h200l-13 -48h-152q-6 -21 -16 -50t-19 -49q79 -5 116.5 -29t37.5 -81q0 -36 -15 -61.5t-40 -41
t-57.5 -23t-66.5 -7.5q-67 0 -108 22zM147 377q18 -10 42 -15t49 -5q54 0 85.5 22.5t31.5 58.5q0 32 -25.5 46.5t-85.5 14.5h-6l11 45h22q54 0 82 22t28 51q0 44 -59 44q-26 0 -53 -7.5t-42 -15.5l-11 40q25 14 55.5 22t62.5 8q51 0 76 -25t25 -58q0 -29 -21 -58.5
t-63 -45.5q32 -11 46 -32.5t14 -47.5q0 -23 -10 -46.5t-31 -42.5t-54.5 -31t-80.5 -12q-29 0 -57.5 6t-51.5 18z" />
    <glyph glyph-name="fourfifths" unicode="&#x2158;" horiz-adv-x="878" 
d="M780 693h70l-561 -693h-70zM592 61q20 -11 45.5 -16.5t51.5 -5.5q22 0 43 4.5t37 14.5t25.5 26t9.5 38q0 15 -5.5 27.5t-22.5 22t-49.5 15t-86.5 6.5q17 45 33 90.5t31 99.5h200l-13 -48h-152q-6 -21 -16 -50t-19 -49q79 -5 116.5 -29t37.5 -81q0 -36 -15 -61.5t-40 -41
t-57.5 -23t-66.5 -7.5q-67 0 -108 22zM141 413l8 33q16 25 45 60t64 71t73 68.5t71 53.5h47l-58 -242h48l-11 -44h-47l-23 -96h-53l22 96h-186zM339 457l43 180q-46 -36 -91.5 -83.5t-82.5 -96.5h131z" />
    <glyph glyph-name="onesixth" unicode="&#x2159;" horiz-adv-x="878" 
d="M760 693h70l-561 -693h-70zM261 317l74 308q-29 -20 -61 -31.5t-46 -15.5l-8 42q49 17 84 35.5t66 43.5h36l-91 -382h-54zM886 339q-82 -1 -136.5 -34.5t-79.5 -87.5q23 10 48 16t48 6q27 0 46.5 -8.5t32.5 -23t19 -33t6 -38.5q0 -35 -12 -61.5t-32.5 -45t-48 -28
t-58.5 -9.5q-25 0 -47.5 7t-39 22.5t-26 39.5t-9.5 59q0 61 23 110t63 83.5t93.5 53t113.5 20.5zM750 195q-26 0 -50.5 -7t-44.5 -15q-2 -12 -3.5 -25t-1.5 -27t3.5 -29t11.5 -27t21.5 -19.5t33.5 -7.5q23 0 40.5 8t29.5 20.5t18 29t6 34.5q0 65 -64 65z" />
    <glyph glyph-name="fivesixths" unicode="&#x215a;" horiz-adv-x="878" 
d="M777 693h70l-561 -693h-70zM886 339q-82 -1 -136.5 -34.5t-79.5 -87.5q23 10 48 16t48 6q27 0 46.5 -8.5t32.5 -23t19 -33t6 -38.5q0 -35 -12 -61.5t-32.5 -45t-48 -28t-58.5 -9.5q-25 0 -47.5 7t-39 22.5t-26 39.5t-9.5 59q0 61 23 110t63 83.5t93.5 53t113.5 20.5z
M750 195q-26 0 -50.5 -7t-44.5 -15q-2 -12 -3.5 -25t-1.5 -27t3.5 -29t11.5 -27t21.5 -19.5t33.5 -7.5q23 0 40.5 8t29.5 20.5t18 29t6 34.5q0 65 -64 65zM158 377q20 -11 45.5 -16.5t51.5 -5.5q22 0 43 4.5t37 14.5t25.5 26t9.5 38q0 15 -5.5 27.5t-22.5 22t-49.5 15
t-86.5 6.5q17 45 33 90.5t31 99.5h200l-13 -48h-152q-6 -21 -16 -50t-19 -49q79 -5 116.5 -29t37.5 -81q0 -36 -15 -61.5t-40 -41t-57.5 -23t-66.5 -7.5q-67 0 -108 22z" />
    <glyph glyph-name="oneseventh" unicode="&#xf506;" horiz-adv-x="878" 
d="M748 693h70l-561 -693h-70zM270 317l74 308q-29 -20 -61 -31.5t-46 -15.5l-8 42q49 17 84 35.5t66 43.5h36l-91 -382h-54zM612 1q15 45 38.5 91.5t52.5 90.5t61 82.5t63 67.5h-193l12 50h266l-9 -39q-22 -18 -54 -51.5t-66 -78.5t-65.5 -99t-52.5 -114h-53z" />
    <glyph glyph-name="twosevenths" unicode="&#xf507;" horiz-adv-x="878" 
d="M782 693h70l-561 -693h-70zM154 317q3 45 22.5 76.5t47 54.5t58.5 40.5t57.5 35t44 37.5t17.5 49q0 25 -15.5 37.5t-38.5 12.5q-31 0 -57.5 -10t-44.5 -24l-19 37q29 24 59 34.5t63 10.5q21 0 40.5 -4.5t35 -15t24.5 -29t9 -45.5q0 -32 -16.5 -57t-41 -45t-54.5 -37.5
t-56.5 -34.5t-46.5 -35t-25 -40h190l-12 -48h-241zM612 1q15 45 38.5 91.5t52.5 90.5t61 82.5t63 67.5h-193l12 50h266l-9 -39q-22 -18 -54 -51.5t-66 -78.5t-65.5 -99t-52.5 -114h-53z" />
    <glyph glyph-name="threesevenths" unicode="&#xf508;" horiz-adv-x="878" 
d="M765 693h70l-561 -693h-70zM607 1q15 45 38.5 91.5t52.5 90.5t61 82.5t63 67.5h-193l12 50h266l-9 -39q-22 -18 -54 -51.5t-66 -78.5t-65.5 -99t-52.5 -114h-53zM157 377q18 -10 42 -15t49 -5q54 0 85.5 22.5t31.5 58.5q0 32 -25.5 46.5t-85.5 14.5h-6l11 45h22
q54 0 82 22t28 51q0 44 -59 44q-26 0 -53 -7.5t-42 -15.5l-11 40q25 14 55.5 22t62.5 8q51 0 76 -25t25 -58q0 -29 -21 -58.5t-63 -45.5q32 -11 46 -32.5t14 -47.5q0 -23 -10 -46.5t-31 -42.5t-54.5 -31t-80.5 -12q-29 0 -57.5 6t-51.5 18z" />
    <glyph glyph-name="foursevenths" unicode="&#xf509;" horiz-adv-x="878" 
d="M771 693h70l-561 -693h-70zM156 413l8 33q16 25 45 60t64 71t73 68.5t71 53.5h47l-58 -242h48l-11 -44h-47l-23 -96h-53l22 96h-186zM354 457l43 180q-46 -36 -91.5 -83.5t-82.5 -96.5h131zM612 1q15 45 38.5 91.5t52.5 90.5t61 82.5t63 67.5h-193l12 50h266l-9 -39
q-22 -18 -54 -51.5t-66 -78.5t-65.5 -99t-52.5 -114h-53z" />
    <glyph glyph-name="fivesevenths" unicode="&#xf50a;" horiz-adv-x="878" 
d="M776 693h70l-561 -693h-70zM173 377q20 -11 45.5 -16.5t51.5 -5.5q22 0 43 4.5t37 14.5t25.5 26t9.5 38q0 15 -5.5 27.5t-22.5 22t-49.5 15t-86.5 6.5q17 45 33 90.5t31 99.5h200l-13 -48h-152q-6 -21 -16 -50t-19 -49q79 -5 116.5 -29t37.5 -81q0 -36 -15 -61.5t-40 -41
t-57.5 -23t-66.5 -7.5q-67 0 -108 22zM612 1q15 45 38.5 91.5t52.5 90.5t61 82.5t63 67.5h-193l12 50h266l-9 -39q-22 -18 -54 -51.5t-66 -78.5t-65.5 -99t-52.5 -114h-53z" />
    <glyph glyph-name="sixsevenths" unicode="&#xf50b;" horiz-adv-x="878" 
d="M766 693h70l-561 -693h-70zM465 655q-82 -1 -136.5 -34.5t-79.5 -87.5q23 10 48 16t48 6q27 0 46.5 -8.5t32.5 -23t19 -33t6 -38.5q0 -35 -12 -61.5t-32.5 -45t-48 -28t-58.5 -9.5q-25 0 -47.5 7t-39 22.5t-26 39.5t-9.5 59q0 61 23 110t63 83.5t93.5 53t113.5 20.5z
M329 511q-26 0 -50.5 -7t-44.5 -15q-2 -12 -3.5 -25t-1.5 -27t3.5 -29t11.5 -27t21.5 -19.5t33.5 -7.5q23 0 40.5 8t29.5 20.5t18 29t6 34.5q0 65 -64 65zM602 1q15 45 38.5 91.5t52.5 90.5t61 82.5t63 67.5h-193l12 50h266l-9 -39q-22 -18 -54 -51.5t-66 -78.5t-65.5 -99
t-52.5 -114h-53z" />
    <glyph glyph-name="oneninth" unicode="&#xf50c;" horiz-adv-x="878" 
d="M745 693h70l-561 -693h-70zM270 317l74 308q-29 -20 -61 -31.5t-46 -15.5l-8 42q49 17 84 35.5t66 43.5h36l-91 -382h-54zM590 47q92 0 148 32.5t80 88.5q-25 -11 -50 -17t-48 -6q-27 0 -46.5 8.5t-32.5 22.5t-19 33t-6 39q0 34 12 61t32.5 45.5t48 28t58.5 9.5
q25 0 47.5 -7t39 -22t26 -39.5t9.5 -59.5q0 -62 -22 -111t-62.5 -83t-97 -52.5t-125.5 -18.5zM736 189q26 0 50.5 6.5t44.5 14.5q3 13 4 26t1 27q0 15 -3.5 30t-11.5 26.5t-21.5 19t-33.5 7.5q-23 0 -40.5 -8t-29.5 -20.5t-18 -29t-6 -34.5q0 -65 64 -65z" />
    <glyph glyph-name="twoninths" unicode="&#xf50d;" horiz-adv-x="878" 
d="M769 693h70l-561 -693h-70zM139 317q3 45 22.5 76.5t47 54.5t58.5 40.5t57.5 35t44 37.5t17.5 49q0 25 -15.5 37.5t-38.5 12.5q-31 0 -57.5 -10t-44.5 -24l-19 37q29 24 59 34.5t63 10.5q21 0 40.5 -4.5t35 -15t24.5 -29t9 -45.5q0 -32 -16.5 -57t-41 -45t-54.5 -37.5
t-56.5 -34.5t-46.5 -35t-25 -40h190l-12 -48h-241zM580 47q92 0 148 32.5t80 88.5q-25 -11 -50 -17t-48 -6q-27 0 -46.5 8.5t-32.5 22.5t-19 33t-6 39q0 34 12 61t32.5 45.5t48 28t58.5 9.5q25 0 47.5 -7t39 -22t26 -39.5t9.5 -59.5q0 -62 -22 -111t-62.5 -83t-97 -52.5
t-125.5 -18.5zM726 189q26 0 50.5 6.5t44.5 14.5q3 13 4 26t1 27q0 15 -3.5 30t-11.5 26.5t-21.5 19t-33.5 7.5q-23 0 -40.5 -8t-29.5 -20.5t-18 -29t-6 -34.5q0 -65 64 -65z" />
    <glyph glyph-name="fourninths" unicode="&#xf50e;" horiz-adv-x="878" 
d="M772 693h70l-561 -693h-70zM151 413l8 33q16 25 45 60t64 71t73 68.5t71 53.5h47l-58 -242h48l-11 -44h-47l-23 -96h-53l22 96h-186zM349 457l43 180q-46 -36 -91.5 -83.5t-82.5 -96.5h131zM590 47q92 0 148 32.5t80 88.5q-25 -11 -50 -17t-48 -6q-27 0 -46.5 8.5
t-32.5 22.5t-19 33t-6 39q0 34 12 61t32.5 45.5t48 28t58.5 9.5q25 0 47.5 -7t39 -22t26 -39.5t9.5 -59.5q0 -62 -22 -111t-62.5 -83t-97 -52.5t-125.5 -18.5zM736 189q26 0 50.5 6.5t44.5 14.5q3 13 4 26t1 27q0 15 -3.5 30t-11.5 26.5t-21.5 19t-33.5 7.5q-23 0 -40.5 -8
t-29.5 -20.5t-18 -29t-6 -34.5q0 -65 64 -65z" />
    <glyph glyph-name="fiveninths" unicode="&#xf50f;" horiz-adv-x="878" 
d="M772 693h70l-561 -693h-70zM163 377q20 -11 45.5 -16.5t51.5 -5.5q22 0 43 4.5t37 14.5t25.5 26t9.5 38q0 15 -5.5 27.5t-22.5 22t-49.5 15t-86.5 6.5q17 45 33 90.5t31 99.5h200l-13 -48h-152q-6 -21 -16 -50t-19 -49q79 -5 116.5 -29t37.5 -81q0 -36 -15 -61.5t-40 -41
t-57.5 -23t-66.5 -7.5q-67 0 -108 22zM585 47q92 0 148 32.5t80 88.5q-25 -11 -50 -17t-48 -6q-27 0 -46.5 8.5t-32.5 22.5t-19 33t-6 39q0 34 12 61t32.5 45.5t48 28t58.5 9.5q25 0 47.5 -7t39 -22t26 -39.5t9.5 -59.5q0 -62 -22 -111t-62.5 -83t-97 -52.5t-125.5 -18.5z
M731 189q26 0 50.5 6.5t44.5 14.5q3 13 4 26t1 27q0 15 -3.5 30t-11.5 26.5t-21.5 19t-33.5 7.5q-23 0 -40.5 -8t-29.5 -20.5t-18 -29t-6 -34.5q0 -65 64 -65z" />
    <glyph glyph-name="sevenninths" unicode="&#xf510;" horiz-adv-x="878" 
d="M725 693h70l-561 -693h-70zM585 47q92 0 148 32.5t80 88.5q-25 -11 -50 -17t-48 -6q-27 0 -46.5 8.5t-32.5 22.5t-19 33t-6 39q0 34 12 61t32.5 45.5t48 28t58.5 9.5q25 0 47.5 -7t39 -22t26 -39.5t9.5 -59.5q0 -62 -22 -111t-62.5 -83t-97 -52.5t-125.5 -18.5zM731 189
q26 0 50.5 6.5t44.5 14.5q3 13 4 26t1 27q0 15 -3.5 30t-11.5 26.5t-21.5 19t-33.5 7.5q-23 0 -40.5 -8t-29.5 -20.5t-18 -29t-6 -34.5q0 -65 64 -65zM182 317q15 45 38.5 91.5t52.5 90.5t61 82.5t63 67.5h-193l12 50h266l-9 -39q-22 -18 -54 -51.5t-66 -78.5t-65.5 -99
t-52.5 -114h-53z" />
    <glyph glyph-name="eightninths" unicode="&#xf511;" horiz-adv-x="878" 
d="M772 693h70l-561 -693h-70zM585 47q92 0 148 32.5t80 88.5q-25 -11 -50 -17t-48 -6q-27 0 -46.5 8.5t-32.5 22.5t-19 33t-6 39q0 34 12 61t32.5 45.5t48 28t58.5 9.5q25 0 47.5 -7t39 -22t26 -39.5t9.5 -59.5q0 -62 -22 -111t-62.5 -83t-97 -52.5t-125.5 -18.5zM731 189
q26 0 50.5 6.5t44.5 14.5q3 13 4 26t1 27q0 15 -3.5 30t-11.5 26.5t-21.5 19t-33.5 7.5q-23 0 -40.5 -8t-29.5 -20.5t-18 -29t-6 -34.5q0 -65 64 -65zM144 397q0 32 23.5 65.5t74.5 53.5q-19 11 -31 26t-12 41t12 49t33 40t48.5 26.5t58.5 9.5q51 0 75.5 -23.5t24.5 -55.5
t-21.5 -64.5t-62.5 -53.5q21 -11 36 -27.5t15 -44.5q0 -31 -14 -55.5t-37.5 -41t-53 -25.5t-59.5 -9q-56 0 -83 26.5t-27 62.5zM366 430q0 15 -8 25.5t-20.5 18.5t-29 14t-32.5 12q-14 -6 -28.5 -15t-26 -21t-18.5 -27t-7 -33q0 -9 3 -18.5t11 -16.5t21.5 -11.5t33.5 -4.5
q27 0 46 7t31 18.5t18 25t6 26.5zM251 587q0 -13 6.5 -22t17.5 -15.5t25 -12t29 -11.5q12 6 24.5 15.5t23 21t17 25.5t6.5 31q0 18 -14 31.5t-46 13.5q-41 0 -65 -22t-24 -55z" />
    <glyph glyph-name="partialdiff" unicode="&#x2202;" horiz-adv-x="548" 
d="M509 378q-24 31 -61 43.5t-73 12.5q-52 0 -92 -20.5t-67.5 -55t-42 -81t-14.5 -98.5q0 -62 26 -97t79 -35q61 0 103.5 31.5t71.5 80.5t45.5 107t24.5 112zM224 749q60 27 135 27q112 0 170.5 -67.5t58.5 -198.5q0 -55 -7.5 -115t-24 -118t-41.5 -110.5t-60.5 -92.5
t-82 -63.5t-104.5 -23.5q-47 0 -80 16t-55 43t-32 61t-10 70q0 66 20.5 123.5t58 100.5t91 68t119.5 25q29 0 52 -5.5t40 -13t28 -16t16 -14.5q1 13 2 25.5t1 26.5q0 40 -7.5 79.5t-27 70.5t-53.5 50t-87 19q-35 0 -62 -5.5t-50 -15.5z" />
    <glyph glyph-name="Delta" unicode="&#x2206;" horiz-adv-x="613" 
d="M526 59q-5 58 -11.5 119.5t-15 128.5t-19.5 140t-25 155q-46 -68 -128 -199t-196 -344h395zM26 0q26 52 60.5 113.5t72 126t77.5 130t77.5 125t70.5 110.5t58 88h60q16 -73 29.5 -147.5t25.5 -157.5t23.5 -178.5t22.5 -209.5h-577z" />
    <glyph glyph-name="product" unicode="&#x220f;" horiz-adv-x="677" 
d="M245 693h489l-193 -802h-68l178 743h-352l-178 -743h-68z" />
    <glyph glyph-name="summation" unicode="&#x2211;" horiz-adv-x="466" 
d="M2 -51q69 86 151.5 179.5t173.5 187.5q-26 51 -49.5 100.5t-43 93.5t-34 80t-23.5 61l9 42h442l-16 -59h-361q14 -36 25 -64.5t21.5 -52.5t20.5 -46.5t22 -47t26.5 -53t33.5 -65.5q-83 -87 -164 -172.5t-161 -182.5h376l-14 -59h-449z" />
    <glyph glyph-name="uni2126" unicode="&#x2126;" horiz-adv-x="727" 
d="M48 0l15 58h166q-27 33 -45 65.5t-28 64t-14 63t-4 64.5q0 94 33 167t86.5 123.5t122 76.5t139.5 26q63 0 109 -20t76 -54t45 -80t15 -98q0 -50 -14 -103.5t-42 -106t-70 -100.5t-99 -88h154l-14 -58h-253l13 51q67 41 115 91t79 103t45 106.5t14 101.5q0 40 -10 75.5
t-32 62t-56.5 41.5t-83.5 15q-56 0 -109.5 -22.5t-96 -66t-68.5 -107.5t-26 -146q0 -28 4.5 -59.5t16.5 -64.5t32 -66.5t52 -63.5l-12 -51h-255z" />
    <glyph glyph-name="minus" unicode="&#x2212;" horiz-adv-x="564" 
d="M144 317h429l-13 -56h-429z" />
    <glyph glyph-name="uni2215" unicode="&#x2215;" horiz-adv-x="171" 
d="M421 693h70l-561 -693h-70z" />
    <glyph glyph-name="uni2219" unicode="&#x2219;" horiz-adv-x="203" 
d="M168 238q-26 0 -38 14.5t-12 33.5q0 22 15 41.5t42 19.5q26 0 38 -14.5t12 -33.5q0 -22 -15 -41.5t-42 -19.5z" />
    <glyph glyph-name="radical" unicode="&#x221a;" horiz-adv-x="547" 
d="M101 340l144 42q10 -42 18.5 -81.5t15 -78.5t12.5 -78.5t11 -82.5l383 722h63l-429 -798h-60q-7 44 -14.5 91.5t-15 93t-15.5 85t-16 68.5l-92 -27z" />
    <glyph glyph-name="infinity" unicode="&#x221e;" horiz-adv-x="561" 
d="M487 427q20 0 39 -6t34 -19t24 -34t9 -51q0 -32 -11.5 -60t-31.5 -49.5t-48 -34t-62 -12.5q-25 0 -42.5 7t-29.5 18.5t-20.5 26.5t-14.5 32q-23 -33 -58 -58.5t-82 -25.5q-27 0 -46.5 8.5t-32.5 23.5t-19.5 35t-6.5 42q0 27 10 55t29 50.5t47 37t64 14.5q25 0 43.5 -7.5
t31 -19.5t21.5 -28t15 -34q12 18 27.5 34t33.5 28t37.5 19.5t39.5 7.5zM231 382q-21 0 -37.5 -9.5t-28.5 -24.5t-18.5 -33.5t-6.5 -36.5q0 -29 15 -50.5t47 -21.5q16 0 32.5 7.5t31.5 20t28 27.5t24 30q-5 18 -11.5 34.5t-16.5 29t-24 20t-35 7.5zM445 206q25 0 43 10.5
t30 26t17.5 34t5.5 35.5q0 12 -3.5 24.5t-10.5 22.5t-18.5 16.5t-26.5 6.5q-26 0 -54.5 -19.5t-62.5 -72.5q5 -17 11.5 -32t15.5 -26.5t22 -18.5t31 -7z" />
    <glyph glyph-name="integral" unicode="&#x222b;" horiz-adv-x="344" 
d="M-38 -125q9 -2 18.5 -3t17.5 -1q60 0 93 30.5t47 95.5l134 596q13 56 35 91.5t49.5 56t58.5 28t61 7.5q14 0 27 -2t23 -4l-13 -53q-20 3 -37 3q-33 0 -56.5 -9.5t-40 -27t-26.5 -41t-16 -50.5l-136 -601q-12 -51 -30.5 -85t-43.5 -54t-55.5 -28.5t-64.5 -8.5
q-22 0 -33 1.5t-25 4.5z" />
    <glyph glyph-name="approxequal" unicode="&#x2248;" horiz-adv-x="564" 
d="M89 144q7 17 19 39t30.5 41.5t43.5 33t58 13.5q32 0 54.5 -14.5t42 -32t39.5 -32t47 -14.5q21 0 37 10.5t27.5 24.5t18.5 27.5t10 19.5l48 -16q-6 -16 -17.5 -38t-30.5 -41.5t-45 -33t-60 -13.5q-32 0 -54.5 14.5t-42 32t-39 32t-45.5 14.5q-21 0 -37 -11t-27.5 -25
t-18.5 -27.5t-10 -19.5zM138 335q7 17 19 39t30.5 41.5t43.5 33t58 13.5q32 0 54.5 -14.5t42 -32t39.5 -32t47 -14.5q21 0 37 10.5t27.5 24.5t18.5 27.5t10 19.5l48 -16q-6 -16 -17.5 -38t-30.5 -41.5t-45 -33t-60 -13.5q-32 0 -54.5 14.5t-42 32t-39 32t-45.5 14.5
q-21 0 -37 -11t-27.5 -25t-18.5 -27.5t-10 -19.5z" />
    <glyph glyph-name="notequal" unicode="&#x2260;" horiz-adv-x="564" 
d="M470 427h130l-13 -56h-158l-113 -154h234l-14 -56h-261l-95 -129l-43 25l76 104h-115l14 56h143l113 154h-219l13 56h246l97 130l43 -25z" />
    <glyph glyph-name="lessequal" unicode="&#x2264;" horiz-adv-x="564" 
d="M168 391l456 177l5 -61l-397 -150l321 -148l-32 -54l-367 178zM87 57h429l-13 -56h-429z" />
    <glyph glyph-name="greaterequal" unicode="&#x2265;" horiz-adv-x="564" 
d="M583 332l-456 -177l-5 61l397 150l-321 148l32 54l367 -178zM87 57h429l-13 -56h-429z" />
    <glyph glyph-name="lozenge" unicode="&#x25ca;" horiz-adv-x="519" 
d="M571 338q-92 -105 -170 -190.5t-154 -164.5q-39 82 -78 173.5t-81 199.5q46 52 88 99.5t82 91t78 84t76 80.5q39 -82 78 -173.5t81 -199.5zM154 347q30 -79 56.5 -143.5t52.5 -121.5q34 35 63.5 66.5t58 63t57.5 64.5t62 71q-15 40 -29 74.5t-27 66t-26.5 61.5t-27.5 62
q-33 -34 -62.5 -65t-58 -62.5t-57.5 -65t-62 -71.5z" />
    <glyph glyph-name="fi" unicode="&#xf001;" horiz-adv-x="566" 
d="M539 517h65l-125 -517h-65zM565 668q0 26 14.5 39.5t31.5 13.5q20 0 31 -12.5t11 -32.5q0 -24 -16 -37t-32 -13q-20 0 -30 11.5t-10 30.5zM171 102q-12 -48 -23.5 -88.5t-26 -75.5t-33.5 -66t-45 -61l-57 9q25 34 42.5 62.5t29.5 56.5t21 56.5t17 62.5l124 515
q14 60 37.5 99t53 62t63.5 32.5t69 9.5q23 0 40.5 -2.5t33.5 -7.5l-20 -56q-15 5 -30 7t-34 2q-26 0 -48 -7t-40.5 -24t-33.5 -45.5t-26 -71.5l-14 -54h173l-12 -56h-175z" />
    <glyph glyph-name="fl" unicode="&#xf002;" horiz-adv-x="614" 
d="M599 764l67 12l-124 -521q-8 -34 -15.5 -64.5t-7.5 -56.5q0 -16 3 -29.5t12 -24t25.5 -18.5t42.5 -14l-15 -57q-73 9 -102 44.5t-29 89.5q0 24 4 50.5t11 55.5zM171 102q-12 -48 -23.5 -88.5t-26 -75.5t-33.5 -66t-45 -61l-57 9q25 34 42.5 62.5t29.5 56.5t21 56.5
t17 62.5l124 515q14 60 37.5 99t53 62t63.5 32.5t69 9.5q23 0 40.5 -2.5t33.5 -7.5l-20 -56q-15 5 -30 7t-34 2q-26 0 -48 -7t-40.5 -24t-33.5 -45.5t-26 -71.5l-14 -54h173l-12 -56h-175z" />
    <glyph glyph-name="zero.alt" unicode="&#xf800;" horiz-adv-x="563" 
d="M438 709q84 -1 119.5 -58t35.5 -151q0 -88 -22.5 -179.5t-63.5 -166t-98.5 -122t-127.5 -47.5q-42 0 -72 15t-48.5 42.5t-27 66t-8.5 85.5q0 59 10 120t29 118t47 107.5t62.5 88t76 59.5t88.5 22zM286 45q49 0 92.5 39t76 102.5t51.5 143.5t19 161q0 83 -23.5 120.5
t-69.5 37.5q-49 0 -92.5 -39t-76 -102.5t-51.5 -143.5t-19 -161q0 -83 23.5 -120.5t69.5 -37.5z" />
    <glyph glyph-name="one.alt" unicode="&#xf801;" horiz-adv-x="365" 
d="M345 592q-32 -32 -80 -58t-99 -42l-12 58q58 21 116 54t115 89h48l-166 -693h-64z" />
    <glyph glyph-name="two.alt" unicode="&#xf802;" horiz-adv-x="461" 
d="M454 57l-13 -57h-387q12 75 47.5 130t81.5 97t96.5 77t92.5 70t69.5 75t27.5 94q0 56 -30.5 81t-73.5 25q-42 0 -86 -17.5t-76 -44.5l-22 54q38 31 90.5 49t103.5 18q33 0 62.5 -9t52 -28t36 -49t13.5 -71q0 -47 -17.5 -85.5t-45 -71.5t-62.5 -61.5t-71 -54.5
q-44 -33 -80 -60.5t-62.5 -53.5t-43.5 -52t-24 -55h321z" />
    <glyph glyph-name="three.alt" unicode="&#xf803;" horiz-adv-x="454" 
d="M50 78q28 -17 64.5 -25t75.5 -8q43 0 80 10.5t64.5 31.5t43.5 53.5t16 76.5q0 67 -47.5 96.5t-127.5 29.5l14 54h25q48 0 83 15t57.5 38t33 51t10.5 55q0 25 -8 43t-22 28.5t-32.5 15.5t-39.5 5q-35 0 -70.5 -11t-61.5 -28l-14 52q35 22 75 34.5t83 12.5q31 0 60 -8
t51 -25.5t35.5 -45t13.5 -67.5q0 -30 -9 -59t-27.5 -54.5t-46.5 -46t-65 -33.5q18 -7 35.5 -19t32 -30t23.5 -43t9 -58q0 -59 -23.5 -103t-61.5 -73t-87.5 -43.5t-101.5 -14.5q-44 0 -86.5 9t-79.5 28z" />
    <glyph glyph-name="four.alt" unicode="&#xf804;" horiz-adv-x="507" 
d="M393 242l88 365q-41 -33 -85 -75t-86.5 -89.5t-81.5 -98.5t-69 -102h234zM84 227q31 54 76.5 115t100 122.5t115.5 120.5t124 108h65l-108 -451h85l-13 -54h-84l-44 -188h-64l44 188h-307z" />
    <glyph glyph-name="five.alt" unicode="&#xf805;" horiz-adv-x="462" 
d="M51 80q29 -17 63.5 -26t69.5 -9q40 0 78 11t67.5 32.5t47.5 54.5t18 77q0 37 -13.5 62t-34.5 42t-48 26t-53 14t-49.5 6t-38.5 2q16 45 29 84t25 76.5t23.5 76.5t22.5 84h302l-13 -57h-244q-7 -23 -15.5 -51t-17.5 -57t-18.5 -56.5t-16.5 -48.5q51 -5 93.5 -18.5
t73 -37.5t47 -58.5t16.5 -80.5q0 -61 -23 -106.5t-61 -76t-88.5 -45.5t-104.5 -15q-42 0 -83.5 8.5t-80.5 27.5z" />
    <glyph glyph-name="six.alt" unicode="&#xf806;" 
d="M374 414q45 0 77.5 -12.5t53.5 -34.5t31 -52t10 -66q0 -63 -21.5 -112t-56.5 -83t-79.5 -51.5t-90.5 -17.5q-38 0 -71.5 13t-58.5 38.5t-39.5 64t-14.5 90.5q0 102 34.5 193t97.5 159.5t153 109.5t201 43l-7 -59q-73 -2 -133.5 -22.5t-108 -55.5t-82.5 -83t-56 -103
q38 19 78.5 30t82.5 11zM476 237q0 54 -28 85.5t-94 31.5q-41 0 -83 -12t-76 -29q-8 -29 -11 -60t-3 -62q0 -39 9 -67.5t25 -46.5t37 -26.5t44 -8.5q37 0 69.5 14t57 39.5t39 61.5t14.5 80z" />
    <glyph glyph-name="seven.alt" unicode="&#xf807;" horiz-adv-x="408" 
d="M94 0q17 55 43 115.5t58.5 121t69.5 119t76 110.5t78 95t75 72h-341l13 60h410l-14 -58q-45 -43 -102.5 -112.5t-114 -155t-105.5 -180t-77 -187.5h-69z" />
    <glyph glyph-name="eight.alt" unicode="&#xf808;" horiz-adv-x="543" 
d="M605 561q0 -29 -7.5 -58.5t-26 -57.5t-49 -54t-76.5 -48q47 -26 70 -62t23 -78q0 -52 -21.5 -92.5t-57.5 -68.5t-83 -42.5t-99 -14.5q-35 0 -66.5 9t-55.5 27t-38.5 46t-14.5 66q0 29 7.5 59.5t27 60.5t53 58.5t84.5 52.5q-31 19 -51.5 51t-20.5 74q0 52 20 93t53 69
t76 42.5t88 14.5q73 0 119 -36.5t46 -110.5zM470 196q0 31 -13 53t-34 38t-47 28t-53 23q-41 -21 -70 -45t-47 -48.5t-26 -49t-8 -45.5q0 -29 9 -49.5t25 -33.5t37 -19.5t44 -6.5q35 0 68 11t58.5 31t41 49t15.5 64zM271 492q0 -26 11 -45t29 -33.5t40.5 -25t46.5 -19.5
q72 38 105.5 84.5t33.5 98.5q0 50 -27.5 75t-78.5 25q-32 0 -60.5 -10t-51 -30.5t-35.5 -50.5t-13 -69z" />
    <glyph glyph-name="nine.alt" unicode="&#xf809;" horiz-adv-x="538" 
d="M335 279q-47 0 -80.5 12.5t-55 34t-31.5 50.5t-10 62q0 65 21 115t56 84.5t80 52.5t93 18q35 0 67 -10.5t57 -34t39.5 -62t14.5 -94.5q0 -105 -33.5 -198t-95.5 -162t-150 -109t-197 -40h-12t-14 1l12 57q76 -2 139 17t112 54t84 84.5t56 108.5q-47 -22 -88 -31.5
t-64 -9.5zM408 651q-36 0 -69 -13t-57.5 -38.5t-39 -63.5t-14.5 -87q0 -45 27.5 -77.5t90.5 -32.5q33 0 72.5 9t85.5 31q15 61 15 130q0 70 -28.5 106t-82.5 36z" />
    <glyph glyph-name="zero.sups" unicode="&#xf80a;" horiz-adv-x="363" 
d="M186 552q0 66 18 117.5t46 86.5t62.5 53.5t67.5 18.5q21 0 41.5 -7.5t36.5 -22.5t26 -38.5t10 -55.5q0 -66 -18 -117.5t-46 -86.5t-62.5 -53.5t-67.5 -18.5q-21 0 -41.5 7.5t-36.5 22.5t-26 38.5t-10 55.5zM437 693q0 42 -14 64t-49 22t-59.5 -24t-40.5 -58.5
t-23.5 -71.5t-7.5 -62q0 -42 14 -64t49 -22q34 0 59 24t41 58.5t23.5 71t7.5 62.5z" />
    <glyph glyph-name="one.sups" unicode="&#xf80b;" horiz-adv-x="363" 
d="M284 437l74 308q-29 -20 -61 -31.5t-46 -15.5l-8 42q49 17 84 35.5t66 43.5h36l-91 -382h-54z" />
    <glyph glyph-name="two.sups" unicode="&#xf80c;" horiz-adv-x="363" 
d="M168 437q3 45 22.5 76.5t47 54.5t58.5 40.5t57.5 35t44 37.5t17.5 49q0 25 -15.5 37.5t-38.5 12.5q-31 0 -57.5 -10t-44.5 -24l-19 37q29 24 59 34.5t63 10.5q21 0 40.5 -4.5t35 -15t24.5 -29t9 -45.5q0 -32 -16.5 -57t-41 -45t-54.5 -37.5t-56.5 -34.5t-46.5 -35
t-25 -40h190l-12 -48h-241z" />
    <glyph glyph-name="three.sups" unicode="&#xf80d;" horiz-adv-x="363" 
d="M175 497q18 -10 42 -15t49 -5q54 0 85.5 22.5t31.5 58.5q0 32 -25.5 46.5t-85.5 14.5h-6l11 45h22q54 0 82 22t28 51q0 44 -59 44q-26 0 -53 -7.5t-42 -15.5l-11 40q25 14 55.5 22t62.5 8q51 0 76 -25t25 -58q0 -29 -21 -58.5t-63 -45.5q32 -11 46 -32.5t14 -47.5
q0 -23 -10 -46.5t-31 -42.5t-54.5 -31t-80.5 -12q-29 0 -57.5 6t-51.5 18z" />
    <glyph glyph-name="four.sups" unicode="&#xf80e;" horiz-adv-x="363" 
d="M175 533l8 33q16 25 45 60t64 71t73 68.5t71 53.5h47l-58 -242h48l-11 -44h-47l-23 -96h-53l22 96h-186zM373 577l43 180q-46 -36 -91.5 -83.5t-82.5 -96.5h131z" />
    <glyph glyph-name="five.sups" unicode="&#xf80f;" horiz-adv-x="363" 
d="M193 497q20 -11 45.5 -16.5t51.5 -5.5q22 0 43 4.5t37 14.5t25.5 26t9.5 38q0 15 -5.5 27.5t-22.5 22t-49.5 15t-86.5 6.5q17 45 33 90.5t31 99.5h200l-13 -48h-152q-6 -21 -16 -50t-19 -49q79 -5 116.5 -29t37.5 -81q0 -36 -15 -61.5t-40 -41t-57.5 -23t-66.5 -7.5
q-67 0 -108 22z" />
    <glyph glyph-name="six.sups" unicode="&#xf810;" horiz-adv-x="363" 
d="M493 775q-82 -1 -136.5 -34.5t-79.5 -87.5q23 10 48 16t48 6q27 0 46.5 -8.5t32.5 -23t19 -33t6 -38.5q0 -35 -12 -61.5t-32.5 -45t-48 -28t-58.5 -9.5q-25 0 -47.5 7t-39 22.5t-26 39.5t-9.5 59q0 61 23 110t63 83.5t93.5 53t113.5 20.5zM357 631q-26 0 -50.5 -7
t-44.5 -15q-2 -12 -3.5 -25t-1.5 -27t3.5 -29t11.5 -27t21.5 -19.5t33.5 -7.5q23 0 40.5 8t29.5 20.5t18 29t6 34.5q0 65 -64 65z" />
    <glyph glyph-name="seven.sups" unicode="&#xf811;" horiz-adv-x="363" 
d="M220 437q15 45 38.5 91.5t52.5 90.5t61 82.5t63 67.5h-193l12 50h266l-9 -39q-22 -18 -54 -51.5t-66 -78.5t-65.5 -99t-52.5 -114h-53z" />
    <glyph glyph-name="eight.sups" unicode="&#xf812;" horiz-adv-x="363" 
d="M171 517q0 32 23.5 65.5t74.5 53.5q-19 11 -31 26t-12 41t12 49t33 40t48.5 26.5t58.5 9.5q51 0 75.5 -23.5t24.5 -55.5t-21.5 -64.5t-62.5 -53.5q21 -11 36 -27.5t15 -44.5q0 -31 -14 -55.5t-37.5 -41t-53 -25.5t-59.5 -9q-56 0 -83 26.5t-27 62.5zM393 550
q0 15 -8 25.5t-20.5 18.5t-29 14t-32.5 12q-14 -6 -28.5 -15t-26 -21t-18.5 -27t-7 -33q0 -9 3 -18.5t11 -16.5t21.5 -11.5t33.5 -4.5q27 0 46 7t31 18.5t18 25t6 26.5zM278 707q0 -13 6.5 -22t17.5 -15.5t25 -12t29 -11.5q12 6 24.5 15.5t23 21t17 25.5t6.5 31
q0 18 -14 31.5t-46 13.5q-41 0 -65 -22t-24 -55z" />
    <glyph glyph-name="nine.sups" unicode="&#xf813;" horiz-adv-x="363" 
d="M192 483q92 0 148 32.5t80 88.5q-25 -11 -50 -17t-48 -6q-27 0 -46.5 8.5t-32.5 22.5t-19 33t-6 39q0 34 12 61t32.5 45.5t48 28t58.5 9.5q25 0 47.5 -7t39 -22t26 -39.5t9.5 -59.5q0 -62 -22 -111t-62.5 -83t-97 -52.5t-125.5 -18.5zM338 625q26 0 50.5 6.5t44.5 14.5
q3 13 4 26t1 27q0 15 -3.5 30t-11.5 26.5t-21.5 19t-33.5 7.5q-23 0 -40.5 -8t-29.5 -20.5t-18 -29t-6 -34.5q0 -65 64 -65z" />
    <glyph glyph-name="zero.sinf" unicode="&#xf814;" horiz-adv-x="363" 
d="M60 -9q0 66 18 117.5t46 86.5t62.5 53.5t67.5 18.5q21 0 41.5 -7.5t36.5 -22.5t26 -38.5t10 -55.5q0 -66 -18 -117.5t-46 -86.5t-62.5 -53.5t-67.5 -18.5q-21 0 -41.5 7.5t-36.5 22.5t-26 38.5t-10 55.5zM311 132q0 42 -14 64t-49 22t-59.5 -24t-40.5 -58.5t-23.5 -71.5
t-7.5 -62q0 -42 14 -64t49 -22q34 0 59 24t41 58.5t23.5 71t7.5 62.5z" />
    <glyph glyph-name="one.sinf" unicode="&#xf815;" horiz-adv-x="363" 
d="M188 -124l74 308q-29 -20 -61 -31.5t-46 -15.5l-8 42q49 17 84 35.5t66 43.5h36l-91 -382h-54z" />
    <glyph glyph-name="two.sinf" unicode="&#xf816;" horiz-adv-x="363" 
d="M41 -124q3 45 22.5 76.5t47 54.5t58.5 40.5t57.5 35t44 37.5t17.5 49q0 25 -15.5 37.5t-38.5 12.5q-31 0 -57.5 -10t-44.5 -24l-19 37q29 24 59 34.5t63 10.5q21 0 40.5 -4.5t35 -15t24.5 -29t9 -45.5q0 -32 -16.5 -57t-41 -45t-54.5 -37.5t-56.5 -34.5t-46.5 -35
t-25 -40h190l-12 -48h-241z" />
    <glyph glyph-name="three.sinf" unicode="&#xf817;" horiz-adv-x="363" 
d="M58 -64q18 -10 42 -15t49 -5q54 0 85.5 22.5t31.5 58.5q0 32 -25.5 46.5t-85.5 14.5h-6l11 45h22q54 0 82 22t28 51q0 44 -59 44q-26 0 -53 -7.5t-42 -15.5l-11 40q25 14 55.5 22t62.5 8q51 0 76 -25t25 -58q0 -29 -21 -58.5t-63 -45.5q32 -11 46 -32.5t14 -47.5
q0 -23 -10 -46.5t-31 -42.5t-54.5 -31t-80.5 -12q-29 0 -57.5 6t-51.5 18z" />
    <glyph glyph-name="four.sinf" unicode="&#xf818;" horiz-adv-x="363" 
d="M33 -28l8 33q16 25 45 60t64 71t73 68.5t71 53.5h47l-58 -242h48l-11 -44h-47l-23 -96h-53l22 96h-186zM231 16l43 180q-46 -36 -91.5 -83.5t-82.5 -96.5h131z" />
    <glyph glyph-name="five.sinf" unicode="&#xf819;" horiz-adv-x="363" 
d="M51 -64q20 -11 45.5 -16.5t51.5 -5.5q22 0 43 4.5t37 14.5t25.5 26t9.5 38q0 15 -5.5 27.5t-22.5 22t-49.5 15t-86.5 6.5q17 45 33 90.5t31 99.5h200l-13 -48h-152q-6 -21 -16 -50t-19 -49q79 -5 116.5 -29t37.5 -81q0 -36 -15 -61.5t-40 -41t-57.5 -23t-66.5 -7.5
q-67 0 -108 22z" />
    <glyph glyph-name="six.sinf" unicode="&#xf81a;" horiz-adv-x="363" 
d="M361 214q-82 -1 -136.5 -34.5t-79.5 -87.5q23 10 48 16t48 6q27 0 46.5 -8.5t32.5 -23t19 -33t6 -38.5q0 -35 -12 -61.5t-32.5 -45t-48 -28t-58.5 -9.5q-25 0 -47.5 7t-39 22.5t-26 39.5t-9.5 59q0 61 23 110t63 83.5t93.5 53t113.5 20.5zM225 70q-26 0 -50.5 -7
t-44.5 -15q-2 -12 -3.5 -25t-1.5 -27t3.5 -29t11.5 -27t21.5 -19.5t33.5 -7.5q23 0 40.5 8t29.5 20.5t18 29t6 34.5q0 65 -64 65z" />
    <glyph glyph-name="seven.sinf" unicode="&#xf81b;" horiz-adv-x="363" 
d="M88 -124q15 45 38.5 91.5t52.5 90.5t61 82.5t63 67.5h-193l12 50h266l-9 -39q-22 -18 -54 -51.5t-66 -78.5t-65.5 -99t-52.5 -114h-53z" />
    <glyph glyph-name="eight.sinf" unicode="&#xf81c;" horiz-adv-x="363" 
d="M57 -44q0 32 23.5 65.5t74.5 53.5q-19 11 -31 26t-12 41t12 49t33 40t48.5 26.5t58.5 9.5q51 0 75.5 -23.5t24.5 -55.5t-21.5 -64.5t-62.5 -53.5q21 -11 36 -27.5t15 -44.5q0 -31 -14 -55.5t-37.5 -41t-53 -25.5t-59.5 -9q-56 0 -83 26.5t-27 62.5zM279 -11q0 15 -8 25.5
t-20.5 18.5t-29 14t-32.5 12q-14 -6 -28.5 -15t-26 -21t-18.5 -27t-7 -33q0 -9 3 -18.5t11 -16.5t21.5 -11.5t33.5 -4.5q27 0 46 7t31 18.5t18 25t6 26.5zM164 146q0 -13 6.5 -22t17.5 -15.5t25 -12t29 -11.5q12 6 24.5 15.5t23 21t17 25.5t6.5 31q0 18 -14 31.5t-46 13.5
q-41 0 -65 -22t-24 -55z" />
    <glyph glyph-name="nine.sinf" unicode="&#xf81d;" horiz-adv-x="363" 
d="M45 -78q92 0 148 32.5t80 88.5q-25 -11 -50 -17t-48 -6q-27 0 -46.5 8.5t-32.5 22.5t-19 33t-6 39q0 34 12 61t32.5 45.5t48 28t58.5 9.5q25 0 47.5 -7t39 -22t26 -39.5t9.5 -59.5q0 -62 -22 -111t-62.5 -83t-97 -52.5t-125.5 -18.5zM191 64q26 0 50.5 6.5t44.5 14.5
q3 13 4 26t1 27q0 15 -3.5 30t-11.5 26.5t-21.5 19t-33.5 7.5q-23 0 -40.5 -8t-29.5 -20.5t-18 -29t-6 -34.5q0 -65 64 -65z" />
    <glyph glyph-name="caron.alt" horiz-adv-x="336" 
d="M407 776l-77 -217h-47l53 217h71z" />
    <glyph glyph-name="commaaccent" horiz-adv-x="336" 
d="M39 -139q21 -3 36 3.5t24.5 19t15.5 29.5t11 37h72q-4 -29 -17.5 -56t-35.5 -47t-51.5 -29t-65.5 0z" />
    <glyph glyph-name="revcommaaccent" horiz-adv-x="336" 
d="M256 614q3 32 14 59t29 48t42 34.5t51 18.5l21 -35q-18 -9 -32 -18.5t-24 -23.5t-18 -33.5t-14 -49.5h-69z" />
    <glyph glyph-name="caron.alt.short" horiz-adv-x="336" 
d="M335 776h71l-68 -194h-51z" />
    <glyph glyph-name="Parenleft" horiz-adv-x="302" 
d="M203 -135q-32 76 -48.5 151.5t-16.5 155.5q0 89 19.5 178t58 173.5t94.5 161.5t129 142l45 -33q-69 -62 -122 -135t-89 -152.5t-54.5 -163t-18.5 -166.5q0 -72 13 -144.5t40 -139.5z" />
    <glyph glyph-name="Parenright" horiz-adv-x="302" 
d="M-11 -104q69 62 122 133.5t89 150t54.5 162t18.5 168.5q0 73 -13.5 148t-42.5 144l52 26q33 -77 49.5 -152.5t16.5 -156.5q0 -90 -19.5 -179t-58 -173.5t-94.5 -161.5t-129 -142z" />
    <glyph glyph-name="Hyphen" horiz-adv-x="279" 
d="M107 377h228l-15 -63h-228z" />
    <glyph glyph-name="Slash" horiz-adv-x="378" 
d="M507 830h64l-559 -968h-63z" />
    <glyph glyph-name="At" horiz-adv-x="928" 
d="M617 -65q-77 -20 -144 -20q-74 0 -136.5 22t-107.5 64t-70 103.5t-25 140.5q0 129 41.5 228t111.5 166.5t162 102t194 34.5q72 0 131.5 -19.5t102 -59.5t66 -100t23.5 -142q0 -89 -24 -151t-61 -102t-81.5 -58t-84.5 -18q-28 0 -49 9.5t-29 27.5q-23 -16 -56.5 -27.5
t-66.5 -11.5q-36 0 -66 9.5t-51.5 29.5t-34 50.5t-12.5 71.5q0 63 20 116t56 91t86.5 59.5t112.5 21.5q48 0 86 -8t55 -15l-75 -304q-2 -8 -4.5 -17t-2.5 -18q0 -10 6 -19.5t36 -9.5q48 0 82 27.5t55 69t30.5 91t9.5 93.5q0 64 -19 112.5t-54.5 80t-85.5 47.5t-112 16
q-82 0 -159.5 -30.5t-138 -89.5t-97.5 -145.5t-37 -199.5q0 -136 73.5 -209t207.5 -73q64 0 141 18zM692 511q-1 1 -8 2.5t-17.5 2.5t-23 2t-24.5 1q-44 0 -80.5 -17t-63 -47.5t-41.5 -72.5t-15 -91q0 -59 26 -85.5t71 -26.5q44 0 67.5 9t40.5 18q0 21 2.5 34t4.5 23z" />
    <glyph glyph-name="Bracketleft" horiz-adv-x="305" 
d="M302 830h196l-11 -50h-136l-210 -868h137l-13 -50h-196z" />
    <glyph glyph-name="Backslash" horiz-adv-x="361" 
d="M294 -138l-105 968h60l105 -968h-60z" />
    <glyph glyph-name="Bracketright" horiz-adv-x="306" 
d="M-29 -88h136l210 868h-137l13 50h196l-233 -968h-197z" />
    <glyph glyph-name="Braceleft" horiz-adv-x="305" 
d="M254 -138q-62 0 -96.5 24.5t-34.5 77.5q0 11 3 29.5t8 38.5l38 154q5 18 7.5 34.5t2.5 30.5q0 29 -13.5 48t-47.5 22l12 49q29 0 48.5 14.5t32.5 36.5t21 47t13 46l26 104q14 57 27 97t35 65.5t58 37.5t96 12l-13 -50q-25 0 -45.5 -3.5t-37 -15t-29 -33t-21.5 -56.5
l-29 -118q-12 -47 -23 -82.5t-24 -61.5t-29.5 -43t-39.5 -27q25 -15 32.5 -37t7.5 -47q0 -18 -3.5 -36.5t-7.5 -35.5l-40 -165q-7 -27 -7 -47q0 -32 22 -46t65 -14l-14 -50v0z" />
    <glyph glyph-name="Braceright" horiz-adv-x="305" 
d="M231 830q62 0 96.5 -24.5t34.5 -77.5q0 -11 -3 -29.5t-8 -38.5l-38 -154q-5 -18 -7.5 -34.5t-2.5 -30.5q0 -29 13.5 -48t47.5 -22l-12 -49q-29 0 -48.5 -14.5t-32.5 -36.5t-21 -47t-13 -46l-26 -104q-14 -57 -27 -97.5t-35 -66t-58 -37t-96 -11.5l13 50q25 0 45.5 3.5
t37 15t29 33t21.5 56.5l29 118q12 47 23 82.5t24 61.5t29.5 43t39.5 27q-25 15 -32.5 37t-7.5 47q0 18 3.5 36.5t7.5 35.5l40 165q7 27 7 47q0 32 -22 46t-65 14l14 50v0z" />
    <glyph glyph-name="Guilsinglleft" horiz-adv-x="301" 
d="M247 134l-114 212l189 211l36 -30l-148 -185l83 -186z" />
    <glyph glyph-name="Bullet" horiz-adv-x="336" 
d="M388 347q0 -24 -8.5 -46t-24 -38.5t-37.5 -26t-50 -9.5t-50.5 9.5t-38 26t-23.5 38.5t-8 46t8 45.5t23.5 38t38 26.5t50.5 10t50 -10t37.5 -26.5t24 -38t8.5 -45.5z" />
    <glyph glyph-name="Endash" horiz-adv-x="489" 
d="M81 374h499l-13 -57h-500z" />
    <glyph glyph-name="Emdash" horiz-adv-x="990" 
d="M81 374h1000l-15 -57h-999z" />
    <glyph glyph-name="Guilsinglright" horiz-adv-x="301" 
d="M234 557l114 -212l-189 -211l-36 30l148 185l-83 186z" />
    <glyph glyph-name="Exclamdown" horiz-adv-x="266" 
d="M264 480q-10 -26 -22.5 -67.5t-25 -84.5t-22.5 -80.5t-14 -53.5l-46 -194h70l46 193q20 85 31 153t19 134h-36zM324 705q26 0 38 -14.5t12 -33.5q0 -22 -15 -41.5t-42 -19.5q-26 0 -38 14.5t-12 33.5q0 22 15 41.5t42 19.5z" />
    <glyph glyph-name="Guillemotleft" horiz-adv-x="478" 
d="M247 134l-114 212l189 211l36 -30l-148 -185l83 -186zM424 134l-114 212l189 211l36 -30l-148 -185l83 -186z" />
    <glyph glyph-name="Guillemotright" horiz-adv-x="478" 
d="M234 557l114 -212l-189 -211l-36 30l148 185l-83 186zM411 557l114 -212l-189 -211l-36 30l148 185l-83 186z" />
    <glyph glyph-name="Questiondown" horiz-adv-x="385" 
d="M386 481q0 -38 -18.5 -68t-47 -56.5t-61 -51.5t-61 -52.5t-47 -60t-18.5 -73.5q0 -37 12 -62.5t32.5 -41t47.5 -22.5t57 -7q37 0 74 9t67 23l-8 55q-24 -11 -56.5 -20t-64.5 -9q-18 0 -34.5 4t-29 13t-20 23.5t-7.5 36.5q0 39 22 71t77 73l12 9q27 21 49.5 42.5t39.5 46
t27 53.5t11 65h-55zM432 706q26 0 38 -14.5t12 -33.5q0 -22 -15 -41.5t-42 -19.5q-26 0 -38 14.5t-12 33.5q0 22 15 41.5t42 19.5z" />
    <glyph glyph-name="uni0180" unicode="&#x180;" horiz-adv-x="523" 
d="M257 489q30 20 64 30t67 10q85 0 126 -52t41 -141q0 -64 -22 -126.5t-65 -111.5t-107 -79.5t-148 -30.5q-71 0 -135 29l146 611h-74l12 52h75l20 84l68 12l-23 -96h159l-12 -52h-159zM154 59q36 -11 71 -11q65 0 114.5 26t82.5 67t50 91t17 99q0 72 -31.5 105t-79.5 33
q-32 0 -68.5 -14.5t-71.5 -41.5z" />
    <glyph glyph-name="uni0181" unicode="&#x181;" horiz-adv-x="663" 
d="M298 635q-35 -2 -57 -14.5t-35.5 -31t-20 -41t-9.5 -45.5l-58 -5q4 71 32.5 111.5t76 60.5t111 25t138.5 5q43 0 84 -7t73.5 -25t52 -48.5t19.5 -76.5q0 -34 -12 -63t-31.5 -51.5t-45.5 -39t-54 -25.5q23 -6 41.5 -19t31 -30.5t19.5 -39t7 -43.5q0 -71 -29 -117t-76 -73
t-107.5 -37.5t-124.5 -10.5q-48 0 -92.5 5.5t-82.5 13.5zM227 59q21 -4 46 -5.5t53 -1.5q49 0 96.5 7t84.5 26.5t59.5 53.5t22.5 89q0 59 -40 81.5t-131 22.5h-127zM399 390q126 0 180.5 38.5t54.5 102.5q0 60 -42.5 85t-129.5 25q-27 0 -51.5 -0.5t-44.5 -2.5l-60 -248h93z
" />
    <glyph glyph-name="uni0182" unicode="&#x182;" horiz-adv-x="586" 
d="M246 693h388l-13 -59h-322l-51 -210h97q54 0 98.5 -9t76 -29t49 -51.5t17.5 -77.5q0 -125 -84 -194.5t-241 -69.5q-20 0 -43.5 1.5t-47.5 4t-47 6t-40 8.5zM161 60q3 -1 13.5 -2t23.5 -2t27 -2t24 -1q46 0 94 8t86 30t62.5 61t24.5 101q0 37 -15.5 59t-40.5 34t-57 16
t-64 4h-104z" />
    <glyph glyph-name="uni0183" unicode="&#x183;" horiz-adv-x="523" 
d="M154 59q36 -11 71 -11q65 0 114.5 26t82.5 67t50 91t17 99q0 72 -31.5 105t-79.5 33q-32 0 -68.5 -14.5t-71.5 -41.5zM594 771l-13 -55h-270l-54 -227q30 20 64 30t67 10q85 0 126 -52t41 -141q0 -64 -22 -126.5t-65 -111.5t-107 -79.5t-148 -30.5q-71 0 -135 29l181 754
h335z" />
    <glyph glyph-name="uni0184" unicode="&#x184;" horiz-adv-x="523" 
d="M154 59q36 -11 71 -11q65 0 114.5 26t82.5 67t50 91t17 99q0 72 -31.5 105t-79.5 33q-32 0 -68.5 -14.5t-71.5 -41.5zM184 720q13 7 30.5 15t36.5 16t38.5 14.5t35.5 10.5l-68 -287q30 20 64 30t67 10q85 0 126 -52t41 -141q0 -64 -22 -126.5t-65 -111.5t-107 -79.5
t-148 -30.5q-71 0 -135 29l152 634z" />
    <glyph glyph-name="uni0185" unicode="&#x185;" horiz-adv-x="589" 
d="M162 60q8 -2 35.5 -4.5t57.5 -2.5q44 0 91.5 8t87 31.5t65 65t25.5 107.5q0 34 -15 55.5t-40.5 33.5t-59 16.5t-69.5 4.5q-51 0 -76 -2t-28 -4zM250 428q26 2 51.5 4t46.5 2q117 0 180.5 -40t63.5 -125q0 -133 -88 -204t-245 -71q-19 0 -43 1t-48 3.5t-46.5 6t-38.5 8.5
l134 559l-48 69q13 7 31 15.5t38.5 16t40.5 14.5t36 11z" />
    <glyph glyph-name="uni0186" unicode="&#x186;" horiz-adv-x="577" 
d="M73 86q37 -22 69 -31t73 -9q62 0 120 24.5t103 74t72 123.5t27 174q0 59 -13 98.5t-36.5 63t-56.5 33.5t-73 10q-29 0 -52 -3t-43 -8t-38 -11.5t-37 -13.5l-6 63q93 34 176 34q117 0 184 -63.5t67 -188.5q0 -127 -35.5 -216.5t-92 -146t-127.5 -82.5t-141 -26
q-60 0 -101.5 12t-73.5 31z" />
    <glyph glyph-name="uni0187" unicode="&#x187;" horiz-adv-x="650" 
d="M587 31q-41 -22 -93 -34t-103 -12q-56 0 -102.5 15.5t-80 48t-52 83t-18.5 121.5q0 107 33 191.5t89 143t129 89.5t153 31q34 0 63 -6.5t57 -18.5q49 101 149 101q21 0 32.5 -2t24.5 -7l-22 -48q-16 7 -44 7q-29 0 -50.5 -17.5t-38.5 -49.5l-30 -58q-37 20 -76 29t-79 9
q-63 0 -120.5 -27.5t-101.5 -78.5t-70 -123.5t-26 -162.5q0 -102 44 -155.5t135 -53.5q40 0 71 5t53.5 12t38 14.5t26.5 13.5z" />
    <glyph glyph-name="uni0188" unicode="&#x188;" horiz-adv-x="484" 
d="M435 25q-20 -13 -61.5 -25t-92.5 -12q-91 0 -137 52t-46 143q0 68 21.5 130.5t61.5 110.5t96.5 76.5t126.5 28.5q20 0 35 -2.5t29 -5.5l10 20q19 38 52 59.5t73 21.5q25 0 51 -9l-19 -46q-18 6 -34 6q-29 0 -51.5 -18t-33.5 -46l-24 -58q-23 9 -49 14t-47 5
q-50 0 -92.5 -23t-73.5 -61.5t-48 -89t-17 -106.5q0 -66 30.5 -104t97.5 -38q21 0 42.5 4t39.5 9.5t32 11.5t21 11z" />
    <glyph glyph-name="uni0189" unicode="&#x189;" horiz-adv-x="692" 
d="M173 335h-80l13 55h80l69 290q49 11 89 15t79 4q144 0 222.5 -67.5t78.5 -205.5q0 -79 -24 -156.5t-79 -138.5t-143.5 -99t-218.5 -38q-20 0 -42.5 1.5t-44 3.5t-41.5 5.5t-35 8.5zM254 390h131l-13 -55h-131l-66 -275q25 -4 48 -5.5t46 -1.5q89 0 160 26.5t120.5 75.5
t76 119t26.5 156q0 58 -19 98.5t-51.5 65.5t-75.5 36t-92 11q-25 0 -50.5 -2t-51.5 -6z" />
    <glyph glyph-name="uni018A" unicode="&#x18a;" horiz-adv-x="751" 
d="M479 699q155 0 229.5 -74t74.5 -210q0 -92 -30 -169.5t-88.5 -133.5t-145.5 -87t-201 -31q-20 0 -42.5 1.5t-44 3.5t-41.5 5.5t-35 8.5l148 622q-35 -2 -57 -14.5t-35.5 -31t-20 -41t-9.5 -45.5l-58 -5q4 71 32.5 111.5t75.5 60.5t110.5 24.5t137.5 4.5zM234 60
q25 -4 48 -5.5t46 -1.5q94 0 165.5 27.5t119.5 75.5t72.5 113.5t24.5 142.5q0 115 -57.5 172t-179.5 57q-25 0 -50 -0.5t-51 -2.5z" />
    <glyph glyph-name="uni018B" unicode="&#x18b;" horiz-adv-x="584" 
d="M269 693h402l-164 -681q-18 -4 -40.5 -7.5t-45.5 -6t-45 -4t-39 -1.5q-109 0 -171.5 43t-62.5 135q0 70 28.5 118t75 78t105.5 43.5t121 13.5h105l50 210h-332zM524 366h-89q-46 0 -93 -7t-84.5 -27.5t-61 -58t-23.5 -99.5q0 -35 13 -58.5t36.5 -37.5t55.5 -20t71 -6
q45 0 67.5 3t33.5 4z" />
    <glyph glyph-name="uni018C" unicode="&#x18c;" horiz-adv-x="539" 
d="M493 464q-14 2 -31 3.5t-31 1.5q-70 0 -120.5 -25.5t-83 -66t-48 -90t-15.5 -97.5q0 -30 5.5 -55.5t17.5 -45t31 -30.5t46 -11q25 0 47.5 7t42 17.5t35.5 23.5t27 25q0 26 7 58.5t16 67.5zM552 716h-260l13 55h326l-143 -592q-5 -18 -7.5 -35t-2.5 -33q0 -29 5 -55
t18 -52l-67 -10q-5 10 -10 26.5t-7 32.5q-9 -10 -23.5 -21.5t-34.5 -21t-45 -16t-55 -6.5q-43 0 -73.5 15.5t-50 41.5t-28.5 61.5t-9 74.5q0 63 20.5 125t63 111.5t107.5 80.5t153 31q32 0 65 -6z" />
    <glyph glyph-name="uni018D" unicode="&#x18d;" horiz-adv-x="537" 
d="M589 345q0 -37 -11 -78t-36.5 -80.5t-68.5 -74t-106 -57.5q26 -18 43.5 -42.5t17.5 -64.5q0 -38 -17 -63t-45 -41t-64 -22.5t-73 -6.5q-42 0 -82 8t-69 22l25 53q21 -12 60.5 -20t79.5 -8q23 0 44 4t37.5 12t26.5 21.5t10 32.5q0 29 -16.5 49t-40.5 37t-53 34.5t-53 41.5
t-40.5 57t-16.5 82q0 71 23.5 125t61.5 90t86 54.5t97 18.5q46 0 80 -14.5t56 -39.5t33 -58.5t11 -71.5zM211 247q0 -33 8.5 -57.5t22 -42.5t31.5 -31.5t37 -25.5q62 17 102.5 46.5t64 64t33 71.5t9.5 69q0 58 -28.5 94t-88.5 36q-36 0 -70 -14.5t-61 -42.5t-43.5 -70
t-16.5 -97z" />
    <glyph glyph-name="uni018E" unicode="&#x18e;" horiz-adv-x="526" 
d="M445 0h-402l14 59h335l67 276h-284l14 58h285l58 241h-320l14 59h387z" />
    <glyph glyph-name="uni018F" unicode="&#x18f;" horiz-adv-x="691" 
d="M138 212q0 35 7 72.5t19 76.5h482q2 16 3.5 31.5t1.5 31.5q0 57 -14.5 99t-40.5 69.5t-62 41t-79 13.5q-42 0 -80 -9.5t-81 -27.5l-7 59q48 20 91 29.5t91 9.5q55 0 101.5 -16t80.5 -50.5t53 -88t19 -129.5q0 -77 -24 -155t-71.5 -141t-116.5 -103t-159 -40
q-59 0 -99.5 17.5t-66 48.5t-37 72.5t-11.5 88.5zM356 43q54 0 98.5 21.5t80 57.5t60.5 83t39 98h-415q-8 -26 -10.5 -51t-2.5 -48q0 -73 35 -117t115 -44z" />
    <glyph glyph-name="uni0190" unicode="&#x190;" horiz-adv-x="500" 
d="M515 21q-45 -17 -93.5 -26.5t-96.5 -9.5q-58 0 -100 14.5t-69 39t-40 56.5t-13 66t13 68t37.5 62.5t60.5 49t83 28.5q-48 20 -70.5 53t-22.5 83q0 40 18 77t52 65t83 44.5t112 16.5q44 0 86 -9.5t77 -27.5l-34 -56q-28 17 -62.5 25.5t-71.5 8.5q-89 0 -139 -40.5
t-50 -108.5q0 -49 33.5 -76t106.5 -27h75l-15 -58h-53q-65 0 -111.5 -15t-76.5 -38.5t-44.5 -53t-14.5 -59.5q0 -36 12.5 -60.5t33.5 -40t49 -22t60 -6.5q46 0 94 12t88 29l3 -64v0z" />
    <glyph glyph-name="uni0191" unicode="&#x191;" horiz-adv-x="500" 
d="M-57 -123q22 -7 44 -7q36 0 55 23t29 62l178 738h381l-14 -59h-314l-59 -244h280l-15 -59h-278l-78 -323q-5 -23 -13 -56t-25.5 -64t-47 -53t-78.5 -22q-29 0 -63 9z" />
    <glyph glyph-name="uni0193" unicode="&#x193;" horiz-adv-x="659" 
d="M138 259q0 88 28 169t80 143t126.5 99.5t166.5 37.5q49 0 82.5 -6.5t62.5 -19.5q49 101 149 101q21 0 32.5 -2t24.5 -7l-22 -48q-16 7 -44 7q-29 0 -50.5 -17.5t-38.5 -49.5l-30 -58q-37 20 -78.5 29.5t-95.5 9.5q-74 0 -133.5 -32t-101 -85t-64 -122.5t-22.5 -145.5
q0 -104 45 -160t145 -56q32 0 65.5 5.5t68.5 17.5l59 255h68l-72 -301q-45 -18 -93 -28t-93 -10q-69 0 -119.5 19t-82.5 55t-47.5 86.5t-15.5 113.5z" />
    <glyph glyph-name="uni0194" unicode="&#x194;" horiz-adv-x="610" 
d="M315 171q-44 142 -76.5 270t-65.5 252h66q14 -56 29.5 -117.5t31 -123.5t31.5 -123t31 -116q61 78 147.5 197t181.5 283h76q-39 -68 -86.5 -140.5t-98 -143.5t-101 -137.5t-95.5 -122.5l31 -111q5 -20 8 -41t3 -38q0 -64 -40 -103.5t-106 -39.5q-23 0 -43.5 7.5t-36 22
t-25 36t-9.5 49.5q0 27 14 62t36 61zM289 -124q41 0 57.5 27t16.5 64q0 17 -2.5 33.5t-7.5 33.5l-20 65l-60 -69q-40 -47 -40 -93q0 -29 15.5 -45t40.5 -16z" />
    <glyph glyph-name="uni0195" unicode="&#x195;" horiz-adv-x="801" 
d="M587 -12q-81 0 -119.5 33.5t-38.5 104.5q0 19 2.5 41t8.5 47l21 94q4 18 6.5 35t2.5 34q0 39 -21.5 65.5t-81.5 26.5q-29 0 -58.5 -6t-55.5 -15l-105 -448h-65l182 764l68 12l-66 -273q63 26 119 26q42 0 71 -11t47 -30t25.5 -44.5t7.5 -54.5q0 -30 -8 -65l-30 -137
q-3 -14 -5 -27t-2 -26q0 -37 20 -61t73 -24q31 0 54.5 10t41.5 31.5t31.5 55t25.5 81.5l70 290h65l-72 -299q-7 -30 -17.5 -69.5t-33 -75.5t-61.5 -60.5t-102 -24.5z" />
    <glyph glyph-name="uni0196" unicode="&#x196;" horiz-adv-x="317" 
d="M249 693h68l-124 -519q-3 -14 -5 -28t-2 -26q0 -31 16 -52.5t57 -21.5q29 0 48 4t30 8l2 -58q-24 -8 -47.5 -11.5t-45.5 -3.5q-27 0 -50 7t-40.5 22t-27.5 39t-10 57q0 41 12 88z" />
    <glyph glyph-name="uni0197" unicode="&#x197;" horiz-adv-x="298" 
d="M189 336h-96l13 54h96l73 303h68l-72 -303h104l-13 -54h-104l-80 -336h-69z" />
    <glyph glyph-name="uni0198" unicode="&#x198;" horiz-adv-x="606" 
d="M249 693h67l-76 -319l281 264q44 41 78.5 55t63.5 14q30 0 52 -13t33 -33l-38 -38q-12 15 -26.5 20.5t-26.5 5.5q-29 0 -58.5 -24t-59.5 -53l-228 -211q36 -27 76 -71t77.5 -94.5t68.5 -102t49 -93.5h-77q-58 112 -123.5 199t-148.5 147l-82 -346h-68z" />
    <glyph glyph-name="uni0199" unicode="&#x199;" horiz-adv-x="499" 
d="M220 298q36 24 73.5 54.5t72 61t62.5 58t44 45.5h79q-18 -23 -51.5 -56t-71 -67t-74 -63.5t-60.5 -43.5q34 -26 66.5 -61t59.5 -74t48.5 -78.5t33.5 -73.5h-70q-44 94 -100 161.5t-118 109.5l-66 -271h-65l147 613q13 52 31 84.5t39 49.5t43.5 23t44.5 6q17 0 32.5 -3
t29.5 -7l-18 -56q-11 5 -21.5 7.5t-21.5 2.5q-23 0 -38.5 -8.5t-26 -23.5t-17.5 -34.5t-12 -41.5z" />
    <glyph glyph-name="uni019A" unicode="&#x19a;" horiz-adv-x="304" 
d="M196 377h-78l12 53h78l81 334l67 12l-83 -346h93l-12 -53h-93l-29 -122q-8 -34 -15.5 -64.5t-7.5 -56.5q0 -16 3 -29.5t12 -24t25.5 -18.5t42.5 -14l-15 -57q-73 9 -102 44.5t-29 89.5q0 24 4 50.5t11 55.5z" />
    <glyph glyph-name="uni019B" unicode="&#x19b;" horiz-adv-x="481" 
d="M244 716q-13 0 -27 -2t-25 -7l3 61q12 4 27 6t29 2q29 0 51 -5t38 -17.5t28 -35t21 -56.5l127 41l7 -52l-123 -39q3 -18 6.5 -38.5t6.5 -43.5q8 -60 15.5 -127t13.5 -135.5t10.5 -136.5t7.5 -131h-66l-4 98t-5.5 102t-8.5 112.5t-13 130.5q-48 -61 -85 -116.5t-67 -109
t-55 -107t-47 -110.5h-66q48 126 128 260.5t182 263.5q-3 20 -5.5 37.5t-5.5 32.5l-128 -41l-7 52l124 39q-12 42 -31.5 57t-55.5 15z" />
    <glyph glyph-name="uni019C" unicode="&#x19c;" horiz-adv-x="902" 
d="M239 693h68l-99 -409q-9 -36 -15 -69.5t-6 -58.5q0 -24 5 -44t17.5 -35t34 -23.5t53.5 -8.5q27 0 53.5 6t49 15.5t40 20.5t27.5 21q-6 21 -6 44q0 24 4 50.5t11 55.5l106 435h68l-99 -409q-7 -29 -14 -61t-7 -63q0 -23 4.5 -44t16.5 -37t33 -25t54 -9q44 0 82 4.5t49 9.5
l152 634h68l-165 -684q-33 -8 -81 -16t-98 -8q-51 0 -95 13t-67 49q-18 -14 -40.5 -25t-48.5 -19.5t-54 -13t-56 -4.5q-33 0 -63 7t-53 26t-36.5 51t-13.5 82q0 15 3.5 42t12.5 65z" />
    <glyph glyph-name="uni019D" unicode="&#x19d;" horiz-adv-x="669" 
d="M150 8q-6 -23 -14 -56t-25 -64t-46.5 -53t-78.5 -22q-29 0 -63 9l18 55q22 -7 44 -7q36 0 56.5 23t30.5 62l177 738h67q37 -64 73.5 -143t69 -159.5t57 -154.5t37.5 -127l136 584h67l-164 -693h-67q-18 61 -45 142.5t-58.5 165.5t-64.5 161.5t-63 131.5z" />
    <glyph glyph-name="uni019E" unicode="&#x19e;" horiz-adv-x="536" 
d="M202 499q18 6 40 11t45 8.5t46 6t43 2.5q46 0 78.5 -12t53.5 -33.5t30.5 -50.5t9.5 -63q0 -25 -4 -52t-10 -55l-108 -446h-65l101 419q9 36 15 70.5t6 59.5q0 19 -5 37.5t-18.5 33t-36.5 23.5t-59 9q-29 0 -59.5 -4.5t-47.5 -9.5l-109 -453h-65z" />
    <glyph glyph-name="uni019F" unicode="&#x19f;" horiz-adv-x="748" 
d="M138 258q0 103 34 186.5t90 142t126.5 90t144.5 31.5q49 0 94 -16.5t79 -50t54 -85t20 -120.5q0 -104 -34 -187.5t-90 -142t-127 -90t-144 -31.5q-50 0 -94.5 16.5t-78.5 50t-54 85t-20 121.5zM210 247q0 -51 14 -89t39 -62.5t57.5 -37t70.5 -12.5q50 0 97.5 18t88 53
t71 86t46.5 118h-480q-2 -18 -3 -36t-1 -38zM527 647q-50 0 -97 -17.5t-87.5 -51.5t-71 -84t-46.5 -115h479q2 16 3 32.5t1 34.5q0 51 -14 89t-39 62.5t-58 37t-70 12.5z" />
    <glyph glyph-name="Ohorn" unicode="&#x1a0;" horiz-adv-x="738" 
d="M138 258q0 103 34 186.5t90 142t126.5 90t144.5 31.5q51 0 96 -17.5t80 -52.5q26 16 42.5 38.5t26.5 45t14 43.5t5 36h65q-2 -27 -11.5 -56t-26 -56.5t-38.5 -51t-47 -38.5q19 -32 30 -72t11 -91q0 -104 -34 -187.5t-90 -142t-127 -90t-144 -31.5q-50 0 -94.5 16.5
t-78.5 50t-54 85t-20 121.5zM210 247q0 -51 14 -89t39 -62.5t57.5 -37t70.5 -12.5q61 0 118 26.5t101 77.5t71 125.5t27 170.5q0 51 -14 89t-39 62.5t-58 37t-70 12.5q-61 0 -118 -26.5t-101.5 -77.5t-71 -125.5t-26.5 -170.5z" />
    <glyph glyph-name="ohorn" unicode="&#x1a1;" horiz-adv-x="554" 
d="M558 355q0 -94 -26.5 -163t-68 -114.5t-92 -67.5t-99.5 -22q-35 0 -66.5 11t-55.5 33t-38 54.5t-14 75.5q0 94 26.5 163t68 114t92 67t99.5 22q42 0 79 -16t61 -48q26 20 42.5 41.5t26 43.5t13.5 42t5 37h65q-3 -27 -11.5 -56t-24.5 -56.5t-39 -52t-54 -42.5
q11 -30 11 -66zM164 166q0 -59 33 -89t79 -30q36 0 74 18.5t69.5 56t52 94.5t20.5 134q0 59 -33 89t-79 30q-36 0 -74 -18.5t-69.5 -56t-52 -94.5t-20.5 -134z" />
    <glyph glyph-name="uni01A2" unicode="&#x1a2;" horiz-adv-x="984" 
d="M138 258q0 103 34 186.5t90 142t126.5 90t144.5 31.5q50 0 94 -16.5t79 -50.5q31 23 59 36.5t51 20t39.5 8.5t25.5 2q43 0 71.5 -10.5t46 -29t24.5 -44.5t7 -56q0 -32 -7.5 -70t-16.5 -77l-100 -421h-68l107 442q17 70 17 115q0 44 -18.5 67.5t-71.5 23.5
q-45 0 -77.5 -15t-56.5 -32q20 -32 31 -73t11 -92q0 -104 -34 -187.5t-90 -142t-127 -90t-144 -31.5q-50 0 -94.5 16.5t-78.5 50t-54 85t-20 121.5zM210 247q0 -51 14 -89t39 -62.5t57.5 -37t70.5 -12.5q61 0 118 26.5t101 77.5t71 125.5t27 170.5q0 51 -14 89t-39 62.5
t-58 37t-70 12.5q-61 0 -118 -26.5t-101.5 -77.5t-71 -125.5t-26.5 -170.5z" />
    <glyph glyph-name="uni01A3" unicode="&#x1a3;" horiz-adv-x="773" 
d="M558 355q0 -94 -26.5 -163t-68 -114.5t-92 -67.5t-99.5 -22q-35 0 -66.5 11t-55.5 33t-38 54.5t-14 75.5q0 94 26.5 163t68 114t92 67t99.5 22q36 0 69 -12.5t57 -35.5q39 26 74 36.5t69 10.5q38 0 63.5 -10.5t40.5 -28.5t21.5 -42t6.5 -51q0 -32 -7 -66.5t-15 -67.5
l-108 -446h-65l101 419q8 32 17.5 71.5t9.5 74.5q0 18 -3 34.5t-12.5 29t-26 20t-43.5 7.5q-26 0 -49.5 -9t-44.5 -22q19 -38 19 -85zM164 166q0 -59 33 -89t79 -30q36 0 74 18.5t69.5 56t52 94.5t20.5 134q0 59 -33 89t-79 30q-36 0 -74 -18.5t-69.5 -56t-52 -94.5
t-20.5 -134z" />
    <glyph glyph-name="uni01A4" unicode="&#x1a4;" horiz-adv-x="638" 
d="M489 700q119 0 175 -45.5t56 -130.5q0 -56 -22.5 -103t-65 -81t-105.5 -53t-144 -19h-94l-65 -268h-68l152 635q-35 -2 -57 -14.5t-35.5 -31t-20 -41t-9.5 -45.5l-58 -5q4 71 32.5 111.5t76 60.5t111 25t138.5 5h3zM392 327q122 0 189 50t67 138q0 65 -42 95t-132 30
h-48.5t-48.5 -2l-75 -311h90z" />
    <glyph glyph-name="uni01A5" unicode="&#x1a5;" horiz-adv-x="519" 
d="M230 613q12 52 30 84.5t39 49.5t44 23t45 6q17 0 32.5 -2.5t29.5 -6.5l-18 -54q-21 7 -41 7q-23 0 -39 -8.5t-27 -23.5t-18.5 -34.5t-12.5 -41.5l-22 -95q25 5 49 8.5t48 3.5q182 0 182 -190q0 -67 -22 -130t-64.5 -111.5t-104 -77.5t-140.5 -29q-39 0 -72 9l-44 -185
h-66zM164 60q31 -9 63 -9q62 0 110 24.5t81 64t50 89t17 100.5q0 75 -33 109.5t-99 34.5q-23 0 -46.5 -4t-48.5 -11z" />
    <glyph glyph-name="uni01A6" unicode="&#x1a6;" horiz-adv-x="592" 
d="M316 690q22 3 48.5 4.5t49.5 1.5q118 0 174 -46t56 -133q0 -78 -50 -136.5t-152 -84.5q14 -26 37 -75.5t47.5 -107.5t46 -117.5t33.5 -104.5h-72q-14 50 -35.5 107.5t-44.5 112t-45.5 100.5t-37.5 72q-33 -3 -69 -3h-84l-67 -280h-68l186 776h68zM314 338q125 0 192 47.5
t67 133.5q0 63 -39.5 90.5t-129.5 27.5q-26 0 -54 -2t-48 -4l-71 -293h83z" />
    <glyph glyph-name="uni01A7" unicode="&#x1a7;" horiz-adv-x="491" 
d="M473 83l4 -59q-35 -16 -86 -27.5t-104 -11.5q-38 0 -74 8t-64 26.5t-44.5 49t-16.5 75.5q0 72 31.5 115t79 70.5t102.5 45t102.5 39t79 52t31.5 83.5q0 30 -9.5 49.5t-25.5 30.5t-37 15.5t-44 4.5q-45 0 -90.5 -12.5t-74.5 -26.5l-10 57q44 20 86.5 30.5t88.5 10.5
q39 0 72.5 -9t58.5 -28t39.5 -47t14.5 -67q0 -69 -31.5 -111t-78.5 -68.5t-102 -44.5t-102 -39.5t-78.5 -53.5t-31.5 -87q0 -31 11 -52t29 -33.5t42 -18t51 -5.5q50 0 100 13t81 26z" />
    <glyph glyph-name="uni01A8" unicode="&#x1a8;" horiz-adv-x="400" 
d="M403 18q-31 -13 -71 -21.5t-82 -8.5q-32 0 -61 6t-51.5 20t-36 37t-13.5 56q0 52 23 85t57 55t74 37t74 31t57 36t23 53q0 37 -22 52.5t-60 15.5q-32 0 -67.5 -9.5t-62.5 -23.5l-5 59q29 14 64.5 22.5t70.5 8.5q31 0 58 -7t47 -22t31.5 -38.5t11.5 -56.5
q0 -48 -22.5 -77.5t-57 -49t-74 -33t-74 -30t-57 -39.5t-22.5 -61q0 -20 7.5 -33t20.5 -21t30.5 -11.5t36.5 -3.5q22 0 44.5 3.5t42.5 8.5t36 10.5t25 10.5z" />
    <glyph glyph-name="uni01A9" unicode="&#x1a9;" horiz-adv-x="516" 
d="M52 60q25 33 60 70.5t75 77t82 79.5t82 78q-54 100 -91 168t-54 116l10 44h442l-15 -59h-362q27 -67 62.5 -133t81.5 -147q-42 -41 -79 -76t-73 -68.5t-72 -70t-77 -80.5h381l-14 -59h-453z" />
    <glyph glyph-name="uni01AA" unicode="&#x1aa;" horiz-adv-x="374" 
d="M349 537q-42 -28 -89 -28q-20 0 -38.5 6t-32.5 19.5t-22.5 34t-8.5 49.5q0 28 10 56t29.5 50.5t49 37t69.5 14.5q63 0 91.5 -30.5t28.5 -81.5q0 -16 -2.5 -34t-7.5 -36l-126 -532q-6 -25 -13 -52t-7 -53q0 -34 17 -55.5t67 -31.5l-16 -58q-38 2 -63.5 13t-40.5 28.5
t-21 41t-6 51.5q0 26 3.5 49t11.5 57zM366 605q4 11 6.5 24.5t2.5 27.5q0 26 -15 44.5t-49 18.5q-23 0 -40.5 -9t-29 -22.5t-17 -31t-5.5 -33.5q0 -33 15 -46.5t37 -13.5q24 0 51 12t44 29z" />
    <glyph glyph-name="uni01AB" unicode="&#x1ab;" horiz-adv-x="377" 
d="M238 669l68 12l-40 -164h183l-14 -55h-182l-61 -254q-5 -18 -8.5 -38.5t-3.5 -40.5q0 -45 22 -62.5t55 -17.5q38 0 67 4.5t42 6.5q-4 -75 -18 -123t-36.5 -75t-53.5 -37.5t-68 -10.5q-16 0 -30.5 3.5t-25.5 8.5l20 51q3 -2 14.5 -4.5t26.5 -2.5q29 0 47.5 10.5t29.5 28.5
t16.5 41t10.5 49q-14 -2 -28.5 -4t-28.5 -2q-28 0 -51.5 5t-41 18t-27 35.5t-9.5 57.5q0 43 14 99z" />
    <glyph glyph-name="uni01AC" unicode="&#x1ac;" horiz-adv-x="542" 
d="M400 634h-81q-36 0 -58.5 -12t-35.5 -31t-19 -42.5t-9 -46.5l-58 -5q3 61 20 99t47.5 59.5t74.5 29.5t103 8h309l-14 -59h-211l-152 -634h-68z" />
    <glyph glyph-name="uni01AD" unicode="&#x1ad;" horiz-adv-x="377" 
d="M215 573q12 49 29 87t42.5 64t62 39t87.5 13q31 0 61 -5.5t45 -14.5l-30 -52q-2 1 -20.5 8t-64.5 7q-36 0 -60.5 -10.5t-41 -29.5t-27 -46.5t-18.5 -61.5l-13 -54h182l-13 -56h-183l-61 -253q-5 -18 -8.5 -38.5t-3.5 -40.5q0 -45 22 -63t55 -18q32 0 55.5 7t49.5 19
l6 -59q-27 -11 -60.5 -19t-66.5 -8q-26 0 -49 6t-40.5 20t-28 37t-10.5 58q0 43 14 99l66 274z" />
    <glyph glyph-name="uni01AE" unicode="&#x1ae;" 
d="M319 -187q-31 0 -51.5 6.5t-33 18t-17.5 28t-5 36.5q0 22 5 47.5t12 54.5l151 630h-212l13 59h492l-14 -59h-211l-158 -659q-3 -13 -6.5 -28.5t-3.5 -29.5q0 -20 10.5 -33.5t40.5 -13.5q11 0 22.5 2t18.5 4l-4 -54q-2 -2 -17.5 -5.5t-31.5 -3.5z" />
    <glyph glyph-name="Uhorn" unicode="&#x1af;" horiz-adv-x="695" 
d="M250 693h68l-101 -419q-5 -23 -8.5 -45.5t-3.5 -43.5q0 -30 7 -55.5t24 -44.5t44 -30t68 -11q46 0 81 13t61.5 40.5t45.5 70.5t34 103l102 422h59q25 0 42 9.5t27.5 24.5t15 34.5t6.5 39.5h65q0 -22 -8 -50t-26.5 -53t-49 -42t-76.5 -17l-91 -378q-18 -73 -43 -125.5
t-60.5 -86t-82.5 -49.5t-108 -16q-53 0 -91.5 14.5t-63.5 40.5t-37 62t-12 79q0 44 12 92z" />
    <glyph glyph-name="uhorn" unicode="&#x1b0;" horiz-adv-x="569" 
d="M248 -12q-43 0 -72 11t-46 30.5t-24.5 46t-7.5 57.5q0 29 5 61.5t13 65.5l62 257h65l-55 -228q-8 -35 -17.5 -73.5t-9.5 -73.5q0 -20 4.5 -37t15.5 -30t29 -20t46 -7q48 0 84.5 19t68.5 55q0 27 8 62t15 63l67 270h60q25 0 41 11.5t26 28t14.5 36t5.5 36.5h65
q-4 -30 -14 -58.5t-29 -51.5t-48 -38t-70 -18l-65 -266q-6 -25 -10 -47t-4 -42q0 -27 5 -51t18 -53l-67 -10q-6 12 -10.5 27.5t-6.5 31.5q-35 -34 -74.5 -49.5t-87.5 -15.5z" />
    <glyph glyph-name="uni01B1" unicode="&#x1b1;" horiz-adv-x="727" 
d="M828 693l-15 -58h-166q27 -33 45 -65.5t28 -64t14 -63t4 -64.5q0 -94 -33 -167t-86.5 -123.5t-122 -76.5t-139.5 -26q-63 0 -109 20t-76 54t-45 80t-15 98q0 50 14 103.5t42 106t70 100.5t99 88h-154l14 58h253l-13 -51q-68 -41 -115.5 -91t-78.5 -103.5t-45 -106.5
t-14 -101q0 -41 10 -76t32 -61.5t56.5 -41.5t83.5 -15q55 0 109 22.5t96.5 66t68.5 107t26 146.5q0 28 -4.5 59.5t-16.5 64.5t-32.5 66.5t-51.5 63.5l12 51h255z" />
    <glyph glyph-name="uni01B2" unicode="&#x1b2;" horiz-adv-x="649" 
d="M211 297q-6 -26 -12 -54.5t-6 -57.5q0 -27 6.5 -52.5t22 -44.5t41.5 -30.5t65 -11.5q71 0 126 38.5t93 100.5t58 140.5t20 158.5q0 49 -4.5 79t-16 46.5t-29.5 22t-45 5.5q-14 0 -32 -3l7 54q28 6 53 6q34 0 59 -10t41.5 -33t24.5 -60.5t8 -92.5q0 -93 -22.5 -185
t-69 -165t-116.5 -118t-166 -45q-41 0 -76.5 10.5t-61.5 32.5t-41 56t-15 81q0 44 14 103l101 425h68z" />
    <glyph glyph-name="uni01B3" unicode="&#x1b3;" horiz-adv-x="610" 
d="M366 275l-79 297q-8 32 -18 52t-35 20q-20 0 -37.5 -8t-41.5 -27l-22 47q53 47 107 47q15 0 29 -3.5t27 -14t24 -29t19 -48.5l70 -272q34 38 73 83.5t77 93t72 94t60 86.5h81q-69 -92 -156 -199t-181 -214l-66 -280h-68z" />
    </font>
</defs>
</svg>
