<?xml version="1.0" standalone="no"?>
<!DOCTYPE svg PUBLIC "-//W3C//DTD SVG 1.1//EN" "http://www.w3.org/Graphics/SVG/1.1/DTD/svg11.dtd" >
<svg xmlns="http://www.w3.org/2000/svg" xmlns:xlink="http://www.w3.org/1999/xlink" version="1.1">
<metadata>
Created by FontForge 20230101 at Fri Oct 21 06:11:42 2022
 By Glenn Lewis
Copyright 2019 The Chivo Project Authors (https://github.com/Omnibus-Type/Chivo)
</metadata>
<defs>
<font id="Chivo-BlackItalic" horiz-adv-x="0" >
  <font-face 
    font-family="Chivo Black"
    font-weight="900"
    font-style="italic"
    font-stretch="normal"
    units-per-em="1000"
    panose-1="0 0 0 0 0 0 0 0 0 0"
    ascent="800"
    descent="-200"
    x-height="511"
    cap-height="686"
    bbox="-196 -413 1329 1151"
    underline-thickness="72"
    underline-position="-206"
    slope="-8.05"
    unicode-range="U+000D-1FA9D"
  />
<missing-glyph horiz-adv-x="500" 
d="M0 0v700h500v-700h-500zM80 50h340l-170 255zM50 95l170 255l-170 255v-510zM450 95v510l-170 -255zM250 395l170 255h-340z" />
    <glyph glyph-name="f_f" unicode="ff" horiz-adv-x="816" 
d="M37 -187q-18 0 -42.5 2t-48.5 7t-40 13l16 112q12 -5 29.5 -8.5t30.5 -3.5q33 0 47.5 19.5t19.5 49.5l51 365h-64l20 142h64l9 66q8 56 36.5 89t72.5 47.5t96 14.5q17 0 41.5 -2t49 -7t39.5 -13l-15 -110q-13 4 -30 7t-31 3q-36 0 -48.5 -18t-16.5 -44l-5 -33h200l9 66
q8 56 36.5 89t72.5 47.5t96 14.5q17 0 41.5 -2t49 -7t39.5 -13l-15 -110q-13 4 -30 7t-31 3q-36 0 -48.5 -18t-16.5 -44l-5 -33h120l-20 -142h-120l-55 -395q-11 -82 -68.5 -121.5t-137.5 -39.5q-18 0 -42.5 2t-48.5 7t-40 13l16 112q12 -5 29.5 -8.5t30.5 -3.5
q33 0 48 19.5t19 49.5l51 365h-200l-55 -395q-11 -82 -68.5 -121.5t-137.5 -39.5z" />
    <glyph glyph-name="f_f_i" unicode="ffi" horiz-adv-x="1122" 
d="M37 -187q-18 0 -42.5 2t-48.5 7t-40 13l16 112q12 -5 29.5 -8.5t30.5 -3.5q33 0 47.5 19.5t19.5 49.5l51 365h-64l20 142h64l9 66q8 56 36.5 89t72.5 47.5t96 14.5q17 0 41.5 -2t49 -7t39.5 -13l-15 -110q-13 4 -30 7t-31 3q-36 0 -48.5 -18t-16.5 -44l-5 -33h200l9 66
q8 56 36.5 89t72.5 47.5t96 14.5q17 0 41.5 -2t49 -7t39.5 -13l-15 -110q-13 4 -30 7t-31 3q-36 0 -48.5 -18t-16.5 -44l-5 -33h120l-20 -142h-120l-55 -395q-11 -82 -68.5 -121.5t-137.5 -39.5q-18 0 -42.5 2t-48.5 7t-40 13l16 112q12 -5 29.5 -8.5t30.5 -3.5
q33 0 48 19.5t19 49.5l51 365h-200l-55 -395q-11 -82 -68.5 -121.5t-137.5 -39.5zM835 0l71 511h197l-72 -511h-196zM915 577l20 143h197l-20 -143h-197z" />
    <glyph glyph-name="f_f_l" unicode="ffl" horiz-adv-x="1123" 
d="M37 -187q-18 0 -42.5 2t-48.5 7t-40 13l16 112q12 -5 29.5 -8.5t30.5 -3.5q33 0 47.5 19.5t19.5 49.5l51 365h-64l20 142h64l9 66q8 56 36.5 89t72.5 47.5t96 14.5q17 0 41.5 -2t49 -7t39.5 -13l-15 -110q-13 4 -30 7t-31 3q-36 0 -48.5 -18t-16.5 -44l-5 -33h200l9 66
q8 56 36.5 89t72.5 47.5t96 14.5q17 0 41.5 -2t49 -7t39.5 -13l-15 -110q-13 4 -30 7t-31 3q-36 0 -48.5 -18t-16.5 -44l-5 -33h120l-20 -142h-120l-55 -395q-11 -82 -68.5 -121.5t-137.5 -39.5q-18 0 -42.5 2t-48.5 7t-40 13l16 112q12 -5 29.5 -8.5t30.5 -3.5
q33 0 48 19.5t19 49.5l51 365h-200l-55 -395q-11 -82 -68.5 -121.5t-137.5 -39.5zM835 0l100 720h198l-101 -720h-197z" />
    <glyph glyph-name="fi" unicode="fi" horiz-adv-x="702" 
d="M37 -187q-18 0 -42.5 2t-48.5 7t-40 13l16 112q12 -5 29.5 -8.5t30.5 -3.5q33 0 47.5 19.5t19.5 49.5l51 365h-64l20 142h64l9 66q8 56 36.5 89t72.5 47.5t96 14.5q17 0 41.5 -2t49 -7t39.5 -13l-15 -110q-13 4 -30 7t-31 3q-34 0 -47 -15.5t-17 -39.5l-6 -40h120
l-20 -142h-120l-55 -395q-11 -82 -68.5 -121.5t-137.5 -39.5zM416 0l71 511h197l-72 -511h-196zM496 577l20 143h197l-20 -143h-197z" />
    <glyph glyph-name="fl" unicode="fl" horiz-adv-x="704" 
d="M37 -187q-18 0 -42.5 2t-48.5 7t-40 13l16 112q12 -5 29.5 -8.5t30.5 -3.5q33 0 47.5 19.5t19.5 49.5l51 365h-64l20 142h64l9 66q8 56 36.5 89t72.5 47.5t96 14.5q17 0 41.5 -2t49 -7t39.5 -13l-15 -110q-13 4 -30 7t-31 3q-34 0 -47 -15.5t-17 -39.5l-6 -40h120
l-20 -142h-120l-55 -395q-11 -82 -68.5 -121.5t-137.5 -39.5zM416 0l100 720h198l-101 -720h-197z" />
    <glyph glyph-name=".notdef" horiz-adv-x="500" 
d="M0 0v700h500v-700h-500zM80 50h340l-170 255zM50 95l170 255l-170 255v-510zM450 95v510l-170 -255zM250 395l170 255h-340z" />
    <glyph glyph-name="A" unicode="A" horiz-adv-x="709" 
d="M-44 0l325 686h261l132 -686h-218l-24 122h-218l-57 -122h-201zM283 267h122l-29 208h-5z" />
    <glyph glyph-name="Aacute" unicode="&#xc1;" horiz-adv-x="709" 
d="M-44 0l325 686h261l132 -686h-218l-24 122h-218l-57 -122h-201zM283 267h122l-29 208h-5zM336 742l108 145h174l2 -3l-143 -142h-141z" />
    <glyph glyph-name="Abreve" unicode="&#x102;" horiz-adv-x="709" 
d="M-44 0l325 686h261l132 -686h-218l-24 122h-218l-57 -122h-201zM283 267h122l-29 208h-5zM411 736q-94 0 -134.5 40.5t-31.5 106.5h101q0 -24 17.5 -37.5t57.5 -13.5t61.5 13.5t28.5 37.5h100q-9 -66 -60.5 -106.5t-139.5 -40.5z" />
    <glyph glyph-name="uni1EAE" unicode="&#x1eae;" horiz-adv-x="709" 
d="M-44 0l325 686h261l132 -686h-218l-24 122h-218l-57 -122h-201zM283 267h122l-29 208h-5zM372 919l111 145h151l2 -3l-146 -142h-118zM413 752q-65 0 -106 18.5t-58 51.5t-11 77h101q1 -24 21 -37.5t63 -13.5q44 0 68 13.5t32 37.5h100q-6 -44 -32.5 -77t-71 -51.5
t-106.5 -18.5z" />
    <glyph glyph-name="uni1EB6" unicode="&#x1eb6;" horiz-adv-x="709" 
d="M-44 0l325 686h261l132 -686h-218l-24 122h-218l-57 -122h-201zM283 267h122l-29 208h-5zM205 -225l20 147h152l-20 -147h-152z" />
    <glyph glyph-name="uni1EB0" unicode="&#x1eb0;" horiz-adv-x="709" 
d="M-44 0l325 686h261l132 -686h-218l-24 122h-218l-57 -122h-201zM283 267h122l-29 208h-5zM377 919l-106 142l2 3h151l71 -145h-118zM413 752q-66 0 -106.5 18.5t-57.5 51.5t-11 77h101q1 -24 21 -37.5t63 -13.5q44 0 68 13.5t32 37.5h100q-6 -44 -32.5 -77t-71 -51.5
t-106.5 -18.5z" />
    <glyph glyph-name="uni1EB2" unicode="&#x1eb2;" horiz-adv-x="709" 
d="M-44 0l325 686h261l132 -686h-218l-24 122h-218l-57 -122h-201zM283 267h122l-29 208h-5zM416 919l9 64q23 3 37 13t14 29q0 12 -9 19t-26 7q-11 0 -25.5 -2.5t-32.5 -8.5l12 88q17 5 32.5 6t30.5 1q45 0 74.5 -21.5t29.5 -62.5q0 -38 -22.5 -67t-56 -46t-67.5 -19z
M413 752q-66 0 -106.5 18.5t-57.5 51.5t-11 77h101q1 -24 21 -37.5t63 -13.5q44 0 68 13.5t32 37.5h100q-6 -44 -32.5 -77t-71 -51.5t-106.5 -18.5z" />
    <glyph glyph-name="uni1EB4" unicode="&#x1eb4;" horiz-adv-x="709" 
d="M-44 0l325 686h261l132 -686h-218l-24 122h-218l-57 -122h-201zM283 267h122l-29 208h-5zM245 945q6 42 26 73t49.5 48.5t64.5 17.5q34 0 55.5 -9t40.5 -18t42 -9q17 0 31 10t21 26h74q-5 -42 -25 -73.5t-50 -48.5t-65 -17q-33 0 -55 9t-40.5 18t-42.5 9q-17 0 -31 -10
t-21 -26h-74zM413 752q-65 0 -106 18.5t-58 51.5t-11 77h101q1 -24 21 -37.5t63 -13.5q44 0 68 13.5t32 37.5h100q-6 -44 -32.5 -77t-71 -51.5t-106.5 -18.5z" />
    <glyph glyph-name="uni01CD" unicode="&#x1cd;" horiz-adv-x="709" 
d="M-44 0l325 686h261l132 -686h-218l-24 122h-218l-57 -122h-201zM283 267h122l-29 208h-5zM319 746l-91 139h131l71 -105h-32l101 105h131l-127 -139h-184z" />
    <glyph glyph-name="Acircumflex" unicode="&#xc2;" horiz-adv-x="709" 
d="M-44 0l325 686h261l132 -686h-218l-24 122h-218l-57 -122h-201zM283 267h122l-29 208h-5zM208 746l125 139h184l93 -139h-131l-71 105h32l-101 -105h-131z" />
    <glyph glyph-name="uni1EA4" unicode="&#x1ea4;" horiz-adv-x="709" 
d="M-44 0l325 686h261l132 -686h-218l-24 122h-218l-57 -122h-201zM283 267h122l-29 208h-5zM375 945l102 133h151l1 -3l-136 -130h-118zM202 756l159 139h138l119 -139h-122l-76 56l-92 -56h-126z" />
    <glyph glyph-name="uni1EAC" unicode="&#x1eac;" horiz-adv-x="709" 
d="M-44 0l325 686h261l132 -686h-218l-24 122h-218l-57 -122h-201zM283 267h122l-29 208h-5zM205 -225l20 147h152l-20 -147h-152z" />
    <glyph glyph-name="uni1EA6" unicode="&#x1ea6;" horiz-adv-x="709" 
d="M-44 0l325 686h261l132 -686h-218l-24 122h-218l-57 -122h-201zM283 267h122l-29 208h-5zM380 945l-100 130l3 3h151l64 -133h-118zM202 756l159 139h138l119 -139h-122l-76 56l-92 -56h-126z" />
    <glyph glyph-name="uni1EA8" unicode="&#x1ea8;" horiz-adv-x="709" 
d="M-44 0l325 686h261l132 -686h-218l-24 122h-218l-57 -122h-201zM283 267h122l-29 208h-5zM415 935l9 64q23 3 37.5 13t14.5 29q0 12 -9 19t-26 7q-11 0 -25.5 -2.5t-33.5 -8.5l13 88q17 5 32.5 6t30.5 1q45 0 74.5 -21.5t29.5 -62.5q0 -38 -22.5 -67t-56 -46t-68.5 -19z
M201 756l159 139h138l119 -139h-122l-76 56l-92 -56h-126z" />
    <glyph glyph-name="uni1EAA" unicode="&#x1eaa;" horiz-adv-x="709" 
d="M-44 0l325 686h261l132 -686h-218l-24 122h-218l-57 -122h-201zM283 267h122l-29 208h-5zM244 935q6 42 26 73t49.5 48.5t64.5 17.5q34 0 55.5 -9t40.5 -18t42 -9q17 0 31 10t21 26h74q-5 -42 -25 -73.5t-50 -48.5t-65 -17q-33 0 -55 9t-40.5 18t-42.5 9q-17 0 -31 -10
t-21 -26h-74zM203 756l159 139h138l119 -139h-122l-76 56l-92 -56h-126z" />
    <glyph glyph-name="uni0200" unicode="&#x200;" horiz-adv-x="709" 
d="M-44 0l325 686h261l132 -686h-218l-24 122h-218l-57 -122h-201zM283 267h122l-29 208h-5zM470 753l-106 142l7 3h146l71 -145h-118zM248 753l-106 142l2 3h151l71 -145h-118z" />
    <glyph glyph-name="Adieresis" unicode="&#xc4;" horiz-adv-x="709" 
d="M-44 0l325 686h261l132 -686h-218l-24 122h-218l-57 -122h-201zM283 267h122l-29 208h-5zM210 745l20 140h144l-20 -140h-144zM464 745l20 140h144l-20 -140h-144z" />
    <glyph glyph-name="uni1EA0" unicode="&#x1ea0;" horiz-adv-x="709" 
d="M-44 0l325 686h261l132 -686h-218l-24 122h-218l-57 -122h-201zM283 267h122l-29 208h-5zM205 -225l20 147h152l-20 -147h-152z" />
    <glyph glyph-name="Agrave" unicode="&#xc0;" horiz-adv-x="709" 
d="M-44 0l325 686h261l132 -686h-218l-24 122h-218l-57 -122h-201zM283 267h122l-29 208h-5zM349 742l-106 142l2 3h166l71 -145h-133z" />
    <glyph glyph-name="uni1EA2" unicode="&#x1ea2;" horiz-adv-x="709" 
d="M-44 0l325 686h261l132 -686h-218l-24 122h-218l-57 -122h-201zM283 267h122l-29 208h-5zM380 729l11 81q28 3 44.5 14.5t19.5 33.5q2 16 -9 26t-34 10q-14 0 -32.5 -2.5t-41.5 -10.5l16 110q21 5 40.5 7t38.5 2q57 0 93.5 -27t36.5 -77q0 -48 -27 -85t-69 -58.5
t-87 -23.5z" />
    <glyph glyph-name="uni0202" unicode="&#x202;" horiz-adv-x="709" 
d="M-44 0l325 686h261l132 -686h-218l-24 122h-218l-57 -122h-201zM283 267h122l-29 208h-5zM217 751q6 44 31 77t68.5 51.5t104.5 18.5q66 0 108 -18.5t60.5 -51.5t12.5 -77h-101q-1 24 -20.5 37.5t-63.5 13.5t-68 -13.5t-32 -37.5h-100z" />
    <glyph glyph-name="Amacron" unicode="&#x100;" horiz-adv-x="709" 
d="M-44 0l325 686h261l132 -686h-218l-24 122h-218l-57 -122h-201zM283 267h122l-29 208h-5zM238 765l14 100h348l-14 -100h-348z" />
    <glyph glyph-name="Aogonek" unicode="&#x104;" horiz-adv-x="709" 
d="M-44 0l325 686h261l132 -686h-218l-24 122h-218l-57 -122h-201zM283 267h122l-29 208h-5zM501 -150q-40 0 -68 16t-28 51q0 29 15.5 49.5t35.5 33.5h118q-21 -12 -35.5 -24.5t-14.5 -32.5q0 -13 9 -18.5t22 -5.5t28.5 4t29.5 9l7 -51q-25 -14 -57 -22.5t-62 -8.5z" />
    <glyph glyph-name="Aring" unicode="&#xc5;" horiz-adv-x="709" 
d="M-44 0l325 686h261l132 -686h-218l-24 122h-218l-57 -122h-201zM283 267h122l-29 208h-5zM406 721q-43 0 -70 23.5t-27 64.5q0 37 17 64.5t46 43t64 15.5q43 0 70 -24t27 -65q0 -36 -17 -63.5t-46 -43t-64 -15.5zM416 791q17 0 28.5 12.5t11.5 28.5q0 13 -8.5 21t-21.5 8
q-16 0 -28 -12t-12 -29q0 -13 8.5 -21t21.5 -8z" />
    <glyph glyph-name="Aringacute" unicode="&#x1fa;" horiz-adv-x="709" 
d="M-44 0l325 686h261l132 -686h-218l-24 122h-218l-57 -122h-201zM283 267h122l-29 208h-5zM389 992l78 121h137l1 -3l-109 -118h-107zM400 739q-43 0 -70 23.5t-27 64.5q0 37 17 64.5t46 43t64 15.5q43 0 70 -24t27 -65q0 -36 -17 -63.5t-46 -43t-64 -15.5zM410 809
q17 0 28.5 12.5t11.5 28.5q0 13 -8.5 21t-21.5 8q-16 0 -28 -12t-12 -29q0 -13 8.5 -21t21.5 -8z" />
    <glyph glyph-name="Atilde" unicode="&#xc3;" horiz-adv-x="709" 
d="M-44 0l325 686h261l132 -686h-218l-24 122h-218l-57 -122h-201zM283 267h122l-29 208h-5zM201 739q10 52 30 86t49 51t66 17q34 0 61.5 -10.5t51 -21t44.5 -10.5q20 0 33 11.5t20 29.5h81q-10 -51 -30 -85.5t-49 -51.5t-66 -17q-34 0 -61.5 10.5t-50.5 21t-45 10.5
q-19 0 -32 -11.5t-21 -29.5h-81z" />
    <glyph glyph-name="AE" unicode="&#xc6;" horiz-adv-x="1011" 
d="M-53 0l421 686h671l-42 -158h-355v-100h329l-21 -153h-294v-111h286v-164h-503v122h-218l-75 -122h-199zM311 267h122v208h-5z" />
    <glyph glyph-name="AEacute" unicode="&#x1fc;" horiz-adv-x="1011" 
d="M-53 0l421 686h671l-42 -158h-355v-100h329l-21 -153h-294v-111h286v-164h-503v122h-218l-75 -122h-199zM311 267h122v208h-5zM445 742l108 145h174l2 -3l-143 -142h-141z" />
    <glyph glyph-name="B" unicode="B" horiz-adv-x="656" 
d="M16 0l97 686h376q46 0 81.5 -19.5t55.5 -52.5t20 -74q0 -58 -21 -94.5t-53 -57t-64 -30.5l-1 -4q23 -6 42.5 -17t34.5 -28t23.5 -40.5t8.5 -55.5q0 -58 -30 -106.5t-82.5 -77.5t-120.5 -29h-367zM230 154h122q21 0 36 8.5t22.5 24.5t7.5 39q0 26 -14 38.5t-36 12.5h-120z
M268 423h116q21 0 33 9t18.5 26t7.5 39q0 19 -12 31t-31 12h-115z" />
    <glyph glyph-name="C" unicode="C" horiz-adv-x="684" 
d="M307 -10q-80 0 -143 31t-99 89t-36 138q0 18 5 57.5t12 88.5q9 62 35.5 116.5t69 95.5t101 64.5t133.5 23.5h28q74 0 134 -26t96 -78t36 -130q0 -14 -1 -27.5t-3 -27.5h-197q4 21 5 32t1 20q0 26 -11 44t-32 27.5t-50 9.5q-31 0 -55 -11.5t-39 -34t-20 -54.5
q-9 -61 -14 -99t-8 -59t-4 -32t-1 -18q0 -24 10 -43t29.5 -30t47.5 -11q42 0 68.5 13t41.5 42.5t23 78.5h188q-13 -90 -55 -155t-109.5 -100t-157.5 -35h-29z" />
    <glyph glyph-name="Cacute" unicode="&#x106;" horiz-adv-x="684" 
d="M307 -10q-80 0 -143 31t-99 89t-36 138q0 18 5 57.5t12 88.5q9 62 35.5 116.5t69 95.5t101 64.5t133.5 23.5h28q74 0 134 -26t96 -78t36 -130q0 -14 -1 -27.5t-3 -27.5h-197q4 21 5 32t1 20q0 26 -11 44t-32 27.5t-50 9.5q-31 0 -55 -11.5t-39 -34t-20 -54.5
q-9 -61 -14 -99t-8 -59t-4 -32t-1 -18q0 -24 10 -43t29.5 -30t47.5 -11q42 0 68.5 13t41.5 42.5t23 78.5h188q-13 -90 -55 -155t-109.5 -100t-157.5 -35h-29zM328 742l108 145h174l2 -3l-143 -142h-141z" />
    <glyph glyph-name="Ccaron" unicode="&#x10c;" horiz-adv-x="684" 
d="M307 -10q-80 0 -143 31t-99 89t-36 138q0 18 5 57.5t12 88.5q9 62 35.5 116.5t69 95.5t101 64.5t133.5 23.5h28q74 0 134 -26t96 -78t36 -130q0 -14 -1 -27.5t-3 -27.5h-197q4 21 5 32t1 20q0 26 -11 44t-32 27.5t-50 9.5q-31 0 -55 -11.5t-39 -34t-20 -54.5
q-9 -61 -14 -99t-8 -59t-4 -32t-1 -18q0 -24 10 -43t29.5 -30t47.5 -11q42 0 68.5 13t41.5 42.5t23 78.5h188q-13 -90 -55 -155t-109.5 -100t-157.5 -35h-29zM311 746l-91 139h131l71 -105h-32l101 105h131l-127 -139h-184z" />
    <glyph glyph-name="Ccedilla" unicode="&#xc7;" horiz-adv-x="684" 
d="M307 -10q-80 0 -143 31t-99 89t-36 138q0 18 5 57.5t12 88.5q9 62 35.5 116.5t69 95.5t101 64.5t133.5 23.5h28q74 0 134 -26t96 -78t36 -130q0 -14 -1 -27.5t-3 -27.5h-197q4 21 5 32t1 20q0 26 -11 44t-32 27.5t-50 9.5q-31 0 -55 -11.5t-39 -34t-20 -54.5
q-9 -61 -14 -99t-8 -59t-4 -32t-1 -18q0 -24 10 -43t29.5 -30t47.5 -11q42 0 68.5 13t41.5 42.5t23 78.5h188q-13 -90 -55 -155t-109.5 -100t-157.5 -35h-29zM270 -212q-32 0 -62 9.5t-50 26.5l41 61q15 -11 32.5 -20.5t46.5 -9.5q11 0 19.5 3.5t13.5 10t5 16.5q0 9 -6 13
t-16 4h-24l10 66h38q38 0 67 -16t29 -54t-21.5 -62.5t-54.5 -36t-68 -11.5z" />
    <glyph glyph-name="Ccircumflex" unicode="&#x108;" horiz-adv-x="684" 
d="M307 -10q-80 0 -143 31t-99 89t-36 138q0 18 5 57.5t12 88.5q9 62 35.5 116.5t69 95.5t101 64.5t133.5 23.5h28q74 0 134 -26t96 -78t36 -130q0 -14 -1 -27.5t-3 -27.5h-197q4 21 5 32t1 20q0 26 -11 44t-32 27.5t-50 9.5q-31 0 -55 -11.5t-39 -34t-20 -54.5
q-9 -61 -14 -99t-8 -59t-4 -32t-1 -18q0 -24 10 -43t29.5 -30t47.5 -11q42 0 68.5 13t41.5 42.5t23 78.5h188q-13 -90 -55 -155t-109.5 -100t-157.5 -35h-29zM200 746l125 139h184l93 -139h-131l-71 105h32l-101 -105h-131z" />
    <glyph glyph-name="Cdotaccent" unicode="&#x10a;" horiz-adv-x="684" 
d="M307 -10q-80 0 -143 31t-99 89t-36 138q0 18 5 57.5t12 88.5q9 62 35.5 116.5t69 95.5t101 64.5t133.5 23.5h28q74 0 134 -26t96 -78t36 -130q0 -14 -1 -27.5t-3 -27.5h-197q4 21 5 32t1 20q0 26 -11 44t-32 27.5t-50 9.5q-31 0 -55 -11.5t-39 -34t-20 -54.5
q-9 -61 -14 -99t-8 -59t-4 -32t-1 -18q0 -24 10 -43t29.5 -30t47.5 -11q42 0 68.5 13t41.5 42.5t23 78.5h188q-13 -90 -55 -155t-109.5 -100t-157.5 -35h-29zM328 740l20 140h144l-20 -140h-144z" />
    <glyph glyph-name="D" unicode="D" horiz-adv-x="697" 
d="M16 0l97 686h309q76 0 135 -31.5t92.5 -87.5t33.5 -129q0 -12 -1.5 -29.5t-4.5 -45t-10 -70.5q-9 -62 -36.5 -115.5t-71 -93.5t-102.5 -62t-132 -22h-309zM250 159h78q34 0 56.5 13.5t35.5 36t17 50.5q5 31 10.5 68t9 70.5t3.5 50.5q0 25 -9.5 43t-27 28.5t-43.5 10.5
h-78z" />
    <glyph glyph-name="uni01C4" unicode="&#x1c4;" horiz-adv-x="1304" 
d="M16 0l97 686h309q76 0 135 -31.5t92.5 -87.5t33.5 -129q0 -12 -1.5 -29.5t-4.5 -45t-10 -70.5q-9 -62 -36.5 -115.5t-71 -93.5t-102.5 -62t-132 -22h-309zM250 159h78q34 0 56.5 13.5t35.5 36t17 50.5q5 31 10.5 68t9 70.5t3.5 50.5q0 25 -9.5 43t-27 28.5t-43.5 10.5
h-78zM670 0l9 61l333 465h-245l23 160h539l-9 -61l-329 -464h272l-23 -161h-570zM951 746l-91 139h131l71 -105h-32l101 105h131l-127 -139h-184z" />
    <glyph glyph-name="Eth" unicode="&#xd0;" horiz-adv-x="697" 
d="M16 0l97 686h309q76 0 135 -31.5t92.5 -87.5t33.5 -129q0 -12 -1.5 -29.5t-4.5 -45t-10 -70.5q-9 -62 -36.5 -115.5t-71 -93.5t-102.5 -62t-132 -22h-309zM250 159h78q34 0 56.5 13.5t35.5 36t17 50.5q5 31 10.5 68t9 70.5t3.5 50.5q0 25 -9.5 43t-27 28.5t-43.5 10.5
h-78zM-15 285l18 126h414l-18 -126h-414z" />
    <glyph glyph-name="Dcaron" unicode="&#x10e;" horiz-adv-x="697" 
d="M16 0l97 686h309q76 0 135 -31.5t92.5 -87.5t33.5 -129q0 -12 -1.5 -29.5t-4.5 -45t-10 -70.5q-9 -62 -36.5 -115.5t-71 -93.5t-102.5 -62t-132 -22h-309zM250 159h78q34 0 56.5 13.5t35.5 36t17 50.5q5 31 10.5 68t9 70.5t3.5 50.5q0 25 -9.5 43t-27 28.5t-43.5 10.5
h-78zM301 746l-91 139h131l71 -105h-32l101 105h131l-127 -139h-184z" />
    <glyph glyph-name="Dcroat" unicode="&#x110;" horiz-adv-x="697" 
d="M16 0l97 686h309q76 0 135 -31.5t92.5 -87.5t33.5 -129q0 -12 -1.5 -29.5t-4.5 -45t-10 -70.5q-9 -62 -36.5 -115.5t-71 -93.5t-102.5 -62t-132 -22h-309zM250 159h78q34 0 56.5 13.5t35.5 36t17 50.5q5 31 10.5 68t9 70.5t3.5 50.5q0 25 -9.5 43t-27 28.5t-43.5 10.5
h-78zM-15 285l18 126h414l-18 -126h-414z" />
    <glyph glyph-name="uni01C5" unicode="&#x1c5;" horiz-adv-x="1194" 
d="M16 0l97 686h309q76 0 135 -31.5t92.5 -87.5t33.5 -129q0 -12 -1.5 -29.5t-4.5 -45t-10 -70.5q-9 -62 -36.5 -115.5t-71 -93.5t-102.5 -62t-132 -22h-309zM250 159h78q34 0 56.5 13.5t35.5 36t17 50.5q5 31 10.5 68t9 70.5t3.5 50.5q0 25 -9.5 43t-27 28.5t-43.5 10.5
h-78zM679 0l8 63l233 324h-177l17 124h433l-8 -60l-235 -327h197l-17 -124h-451zM1224 766l-165 -188h-148l-113 188h138l92 -160h-80l136 160h140z" />
    <glyph glyph-name="E" unicode="E" horiz-adv-x="600" 
d="M16 0l97 686h515l-42 -160h-289l-14 -98h277l-21 -153h-278l-16 -115h285l1 -160h-515z" />
    <glyph glyph-name="Eacute" unicode="&#xc9;" horiz-adv-x="600" 
d="M16 0l97 686h515l-42 -160h-289l-14 -98h277l-21 -153h-278l-16 -115h285l1 -160h-515zM298 742l108 145h174l2 -3l-143 -142h-141z" />
    <glyph glyph-name="Ebreve" unicode="&#x114;" horiz-adv-x="600" 
d="M16 0l97 686h515l-42 -160h-289l-14 -98h277l-21 -153h-278l-16 -115h285l1 -160h-515zM373 736q-94 0 -134.5 40.5t-31.5 106.5h101q0 -24 17.5 -37.5t57.5 -13.5t61.5 13.5t28.5 37.5h100q-9 -66 -60.5 -106.5t-139.5 -40.5z" />
    <glyph glyph-name="Ecaron" unicode="&#x11a;" horiz-adv-x="600" 
d="M16 0l97 686h515l-42 -160h-289l-14 -98h277l-21 -153h-278l-16 -115h285l1 -160h-515zM281 746l-91 139h131l71 -105h-32l101 105h131l-127 -139h-184z" />
    <glyph glyph-name="Ecircumflex" unicode="&#xca;" horiz-adv-x="600" 
d="M16 0l97 686h515l-42 -160h-289l-14 -98h277l-21 -153h-278l-16 -115h285l1 -160h-515zM170 746l125 139h184l93 -139h-131l-71 105h32l-101 -105h-131z" />
    <glyph glyph-name="uni1EBE" unicode="&#x1ebe;" horiz-adv-x="600" 
d="M16 0l97 686h515l-42 -160h-289l-14 -98h277l-21 -153h-278l-16 -115h285l1 -160h-515zM337 945l102 133h151l1 -3l-136 -130h-118zM164 756l159 139h138l119 -139h-122l-76 56l-92 -56h-126z" />
    <glyph glyph-name="uni1EC6" unicode="&#x1ec6;" horiz-adv-x="600" 
d="M16 0l97 686h515l-42 -160h-289l-14 -98h277l-21 -153h-278l-16 -115h285l1 -160h-515zM169 -225l20 147h152l-20 -147h-152z" />
    <glyph glyph-name="uni1EC0" unicode="&#x1ec0;" horiz-adv-x="600" 
d="M16 0l97 686h515l-42 -160h-289l-14 -98h277l-21 -153h-278l-16 -115h285l1 -160h-515zM342 945l-100 130l3 3h151l64 -133h-118zM164 756l159 139h138l119 -139h-122l-76 56l-92 -56h-126z" />
    <glyph glyph-name="uni1EC2" unicode="&#x1ec2;" horiz-adv-x="600" 
d="M16 0l97 686h515l-42 -160h-289l-14 -98h277l-21 -153h-278l-16 -115h285l1 -160h-515zM377 935l9 64q23 3 37.5 13t14.5 29q0 12 -9 19t-26 7q-11 0 -25.5 -2.5t-33.5 -8.5l13 88q17 5 32.5 6t30.5 1q45 0 74.5 -21.5t29.5 -62.5q0 -38 -22.5 -67t-56 -46t-68.5 -19z
M163 756l159 139h138l119 -139h-122l-76 56l-92 -56h-126z" />
    <glyph glyph-name="uni1EC4" unicode="&#x1ec4;" horiz-adv-x="600" 
d="M16 0l97 686h515l-42 -160h-289l-14 -98h277l-21 -153h-278l-16 -115h285l1 -160h-515zM206 935q6 42 26 73t49.5 48.5t64.5 17.5q34 0 55.5 -9t40.5 -18t42 -9q17 0 31 10t21 26h74q-5 -42 -25 -73.5t-50 -48.5t-65 -17q-33 0 -55 9t-40.5 18t-42.5 9q-17 0 -31 -10
t-21 -26h-74zM165 756l159 139h138l119 -139h-122l-76 56l-92 -56h-126z" />
    <glyph glyph-name="uni0204" unicode="&#x204;" horiz-adv-x="600" 
d="M16 0l97 686h515l-42 -160h-289l-14 -98h277l-21 -153h-278l-16 -115h285l1 -160h-515zM432 753l-106 142l7 3h146l71 -145h-118zM210 753l-106 142l2 3h151l71 -145h-118z" />
    <glyph glyph-name="Edieresis" unicode="&#xcb;" horiz-adv-x="600" 
d="M16 0l97 686h515l-42 -160h-289l-14 -98h277l-21 -153h-278l-16 -115h285l1 -160h-515zM172 745l20 140h144l-20 -140h-144zM426 745l20 140h144l-20 -140h-144z" />
    <glyph glyph-name="Edotaccent" unicode="&#x116;" horiz-adv-x="600" 
d="M16 0l97 686h515l-42 -160h-289l-14 -98h277l-21 -153h-278l-16 -115h285l1 -160h-515zM298 740l20 140h144l-20 -140h-144z" />
    <glyph glyph-name="uni1EB8" unicode="&#x1eb8;" horiz-adv-x="600" 
d="M16 0l97 686h515l-42 -160h-289l-14 -98h277l-21 -153h-278l-16 -115h285l1 -160h-515zM169 -225l20 147h152l-20 -147h-152z" />
    <glyph glyph-name="Egrave" unicode="&#xc8;" horiz-adv-x="600" 
d="M16 0l97 686h515l-42 -160h-289l-14 -98h277l-21 -153h-278l-16 -115h285l1 -160h-515zM311 742l-106 142l2 3h166l71 -145h-133z" />
    <glyph glyph-name="uni1EBA" unicode="&#x1eba;" horiz-adv-x="600" 
d="M16 0l97 686h515l-42 -160h-289l-14 -98h277l-21 -153h-278l-16 -115h285l1 -160h-515zM342 729l11 81q28 3 44.5 14.5t19.5 33.5q2 16 -9 26t-34 10q-14 0 -32.5 -2.5t-41.5 -10.5l16 110q21 5 40.5 7t38.5 2q57 0 93.5 -27t36.5 -77q0 -48 -27 -85t-69 -58.5t-87 -23.5
z" />
    <glyph glyph-name="uni0206" unicode="&#x206;" horiz-adv-x="600" 
d="M16 0l97 686h515l-42 -160h-289l-14 -98h277l-21 -153h-278l-16 -115h285l1 -160h-515zM179 751q6 44 31 77t68.5 51.5t104.5 18.5q66 0 108 -18.5t60.5 -51.5t12.5 -77h-101q-1 24 -20.5 37.5t-63.5 13.5t-68 -13.5t-32 -37.5h-100z" />
    <glyph glyph-name="Emacron" unicode="&#x112;" horiz-adv-x="600" 
d="M16 0l97 686h515l-42 -160h-289l-14 -98h277l-21 -153h-278l-16 -115h285l1 -160h-515zM200 765l14 100h348l-14 -100h-348z" />
    <glyph glyph-name="Eogonek" unicode="&#x118;" horiz-adv-x="600" 
d="M16 0l97 686h515l-42 -160h-289l-14 -98h277l-21 -153h-278l-16 -115h285l1 -160h-515zM452 -150q-40 0 -68 16t-28 51q0 29 15.5 49.5t35.5 33.5h118q-21 -12 -35.5 -24.5t-14.5 -32.5q0 -13 9 -18.5t22 -5.5t28.5 4t29.5 9l7 -51q-25 -14 -57 -22.5t-62 -8.5z" />
    <glyph glyph-name="uni1EBC" unicode="&#x1ebc;" horiz-adv-x="600" 
d="M16 0l97 686h515l-42 -160h-289l-14 -98h277l-21 -153h-278l-16 -115h285l1 -160h-515zM163 739q10 52 30 86t49 51t66 17q34 0 61.5 -10.5t51 -21t44.5 -10.5q20 0 33 11.5t20 29.5h81q-10 -51 -30 -85.5t-49 -51.5t-66 -17q-34 0 -61.5 10.5t-50.5 21t-45 10.5
q-19 0 -32 -11.5t-21 -29.5h-81z" />
    <glyph glyph-name="uni018F" unicode="&#x18f;" horiz-adv-x="719" 
d="M289 -10q-71 0 -130 30t-94.5 84.5t-35.5 125.5q0 11 1.5 25t5 39.5t9.5 70.5h226q-8 -62 -13 -95t-6.5 -47t-1.5 -19q0 -24 10.5 -40.5t29.5 -25t45 -8.5q23 0 43 5t35.5 16t25.5 27.5t13 39.5q11 84 17 130.5t9 68.5t4 28t1 9q0 23 -11 42t-31.5 30.5t-49.5 11.5
q-28 0 -52 -8.5t-40 -27.5t-21 -51l-2 -14h-216l4 23q9 53 40.5 96t76.5 74t96.5 47.5t102.5 16.5h58q79 0 139 -34t93.5 -92.5t33.5 -131.5q0 -18 -4.5 -57.5t-12.5 -88.5q-9 -62 -37.5 -116.5t-73 -95.5t-103 -64.5t-128.5 -23.5h-56zM79 220l20 145h556l-20 -145h-556z
" />
    <glyph glyph-name="F" unicode="F" horiz-adv-x="563" 
d="M16 0l97 686h496l-42 -160h-271l-17 -116h251l-21 -153h-251l-37 -257h-205z" />
    <glyph glyph-name="uni0191" unicode="&#x191;" horiz-adv-x="563" 
d="M6 -187q-17 0 -41.5 3t-48.5 8t-40 11l16 112q11 -5 30 -8.5t30 -3.5q20 0 39 12t25 53l97 686h496l-42 -160h-271l-17 -116h251l-21 -153h-251l-41 -283q-12 -81 -70.5 -121t-140.5 -40z" />
    <glyph glyph-name="G" unicode="G" horiz-adv-x="699" 
d="M272 -10q-75 0 -129.5 31t-84 89t-29.5 138q0 18 5 57.5t12 88.5q9 62 35.5 116t69 95.5t101 65t133.5 23.5h28q74 0 134 -27t96 -75.5t36 -112.5v-18t-2 -22h-194q1 2 1 6v14q0 25 -11 42.5t-32 27t-50 9.5q-31 0 -55 -11.5t-39 -34t-20 -54.5q-9 -61 -14 -99t-8 -59
t-4 -32t-1 -18q0 -24 10 -43t29.5 -30t47.5 -11q26 0 45.5 5t34 15.5t24 28t13.5 41.5l2 12h-116l19 136h310l-33 -240q-7 -52 -10.5 -87t-3.5 -57h-112l-17 73q-37 -36 -86.5 -59.5t-124.5 -23.5h-10z" />
    <glyph glyph-name="Gbreve" unicode="&#x11e;" horiz-adv-x="699" 
d="M272 -10q-75 0 -129.5 31t-84 89t-29.5 138q0 18 5 57.5t12 88.5q9 62 35.5 116t69 95.5t101 65t133.5 23.5h28q74 0 134 -27t96 -75.5t36 -112.5v-18t-2 -22h-194q1 2 1 6v14q0 25 -11 42.5t-32 27t-50 9.5q-31 0 -55 -11.5t-39 -34t-20 -54.5q-9 -61 -14 -99t-8 -59
t-4 -32t-1 -18q0 -24 10 -43t29.5 -30t47.5 -11q26 0 45.5 5t34 15.5t24 28t13.5 41.5l2 12h-116l19 136h310l-33 -240q-7 -52 -10.5 -87t-3.5 -57h-112l-17 73q-37 -36 -86.5 -59.5t-124.5 -23.5h-10zM403 736q-94 0 -134.5 40.5t-31.5 106.5h101q0 -24 17.5 -37.5
t57.5 -13.5t61.5 13.5t28.5 37.5h100q-9 -66 -60.5 -106.5t-139.5 -40.5z" />
    <glyph glyph-name="Gcaron" unicode="&#x1e6;" horiz-adv-x="699" 
d="M272 -10q-75 0 -129.5 31t-84 89t-29.5 138q0 18 5 57.5t12 88.5q9 62 35.5 116t69 95.5t101 65t133.5 23.5h28q74 0 134 -27t96 -75.5t36 -112.5v-18t-2 -22h-194q1 2 1 6v14q0 25 -11 42.5t-32 27t-50 9.5q-31 0 -55 -11.5t-39 -34t-20 -54.5q-9 -61 -14 -99t-8 -59
t-4 -32t-1 -18q0 -24 10 -43t29.5 -30t47.5 -11q26 0 45.5 5t34 15.5t24 28t13.5 41.5l2 12h-116l19 136h310l-33 -240q-7 -52 -10.5 -87t-3.5 -57h-112l-17 73q-37 -36 -86.5 -59.5t-124.5 -23.5h-10zM311 746l-91 139h131l71 -105h-32l101 105h131l-127 -139h-184z" />
    <glyph glyph-name="Gcircumflex" unicode="&#x11c;" horiz-adv-x="699" 
d="M272 -10q-75 0 -129.5 31t-84 89t-29.5 138q0 18 5 57.5t12 88.5q9 62 35.5 116t69 95.5t101 65t133.5 23.5h28q74 0 134 -27t96 -75.5t36 -112.5v-18t-2 -22h-194q1 2 1 6v14q0 25 -11 42.5t-32 27t-50 9.5q-31 0 -55 -11.5t-39 -34t-20 -54.5q-9 -61 -14 -99t-8 -59
t-4 -32t-1 -18q0 -24 10 -43t29.5 -30t47.5 -11q26 0 45.5 5t34 15.5t24 28t13.5 41.5l2 12h-116l19 136h310l-33 -240q-7 -52 -10.5 -87t-3.5 -57h-112l-17 73q-37 -36 -86.5 -59.5t-124.5 -23.5h-10zM200 746l125 139h184l93 -139h-131l-71 105h32l-101 -105h-131z" />
    <glyph glyph-name="uni0122" unicode="&#x122;" horiz-adv-x="699" 
d="M272 -10q-75 0 -129.5 31t-84 89t-29.5 138q0 18 5 57.5t12 88.5q9 62 35.5 116t69 95.5t101 65t133.5 23.5h28q74 0 134 -27t96 -75.5t36 -112.5v-18t-2 -22h-194q1 2 1 6v14q0 25 -11 42.5t-32 27t-50 9.5q-31 0 -55 -11.5t-39 -34t-20 -54.5q-9 -61 -14 -99t-8 -59
t-4 -32t-1 -18q0 -24 10 -43t29.5 -30t47.5 -11q26 0 45.5 5t34 15.5t24 28t13.5 41.5l2 12h-116l19 136h310l-33 -240q-7 -52 -10.5 -87t-3.5 -57h-112l-17 73q-37 -36 -86.5 -59.5t-124.5 -23.5h-10zM177 -413l3 20q40 35 62.5 73t27.5 78h-73l24 165h159l-20 -139
q-7 -56 -32.5 -107t-68.5 -90h-82z" />
    <glyph glyph-name="Gdotaccent" unicode="&#x120;" horiz-adv-x="699" 
d="M272 -10q-75 0 -129.5 31t-84 89t-29.5 138q0 18 5 57.5t12 88.5q9 62 35.5 116t69 95.5t101 65t133.5 23.5h28q74 0 134 -27t96 -75.5t36 -112.5v-18t-2 -22h-194q1 2 1 6v14q0 25 -11 42.5t-32 27t-50 9.5q-31 0 -55 -11.5t-39 -34t-20 -54.5q-9 -61 -14 -99t-8 -59
t-4 -32t-1 -18q0 -24 10 -43t29.5 -30t47.5 -11q26 0 45.5 5t34 15.5t24 28t13.5 41.5l2 12h-116l19 136h310l-33 -240q-7 -52 -10.5 -87t-3.5 -57h-112l-17 73q-37 -36 -86.5 -59.5t-124.5 -23.5h-10zM328 740l20 140h144l-20 -140h-144z" />
    <glyph glyph-name="uni01E4" unicode="&#x1e4;" horiz-adv-x="699" 
d="M272 -10q-75 0 -129.5 31t-84 89t-29.5 138q0 18 5 57.5t12 88.5q9 62 35.5 116t69 95.5t101 65t133.5 23.5h28q74 0 134 -27t96 -75.5t36 -112.5v-18t-2 -22h-194q1 2 1 6v14q0 25 -11 42.5t-32 27t-50 9.5q-31 0 -55 -11.5t-39 -34t-20 -54.5q-11 -81 -17.5 -127.5
t-9 -68.5t-2.5 -32q0 -24 10 -43t29.5 -30t47.5 -11q26 0 46 5t34.5 15.5t23.5 27.5t13 42l9 62h-116l14 106h310l-33 -240q-7 -52 -10.5 -87t-3.5 -57h-112l-17 73q-37 -36 -86.5 -59.5t-124.5 -23.5h-10zM359 176l9 68h322l-9 -68h-322z" />
    <glyph glyph-name="H" unicode="H" horiz-adv-x="698" 
d="M16 0l97 686h211l-36 -253h164l36 253h209l-97 -686h-209l37 267h-163l-38 -267h-211z" />
    <glyph glyph-name="Hbar" unicode="&#x126;" horiz-adv-x="698" 
d="M16 0l97 686h211l-36 -253h164l36 253h209l-97 -686h-209l37 267h-163l-38 -267h-211zM13 484l18 126h724l-18 -126h-724z" />
    <glyph glyph-name="Hcircumflex" unicode="&#x124;" horiz-adv-x="698" 
d="M16 0l97 686h211l-36 -253h164l36 253h209l-97 -686h-209l37 267h-163l-38 -267h-211zM208 746l125 139h184l93 -139h-131l-71 105h32l-101 -105h-131z" />
    <glyph glyph-name="uni1E24" unicode="&#x1e24;" horiz-adv-x="698" 
d="M16 0l97 686h211l-36 -253h164l36 253h209l-97 -686h-209l37 267h-163l-38 -267h-211zM199 -225l20 147h152l-20 -147h-152z" />
    <glyph glyph-name="I" unicode="I" horiz-adv-x="446" 
d="M-5 0l21 148h82l55 391h-82l21 147h374l-21 -147h-83l-55 -391h83l-21 -148h-374z" />
    <glyph glyph-name="IJ" unicode="&#x132;" horiz-adv-x="989" 
d="M-5 0l21 148h82l55 391h-82l21 147h374l-21 -147h-83l-55 -391h83l-21 -148h-374zM632 -10q-64 0 -107.5 18.5t-65.5 56t-22 93.5q0 9 2.5 27.5t9.5 62.5h192q-4 -28 -7 -47.5t-3 -22.5q0 -17 10.5 -27.5t25.5 -10.5q17 0 31 12.5t17 33.5l70 500h205l-71 -506
q-9 -62 -45 -104.5t-90 -64t-121 -21.5h-31z" />
    <glyph glyph-name="Iacute" unicode="&#xcd;" horiz-adv-x="446" 
d="M-5 0l21 148h82l55 391h-82l21 147h374l-21 -147h-83l-55 -391h83l-21 -148h-374zM205 742l108 145h174l2 -3l-143 -142h-141z" />
    <glyph glyph-name="Ibreve" unicode="&#x12c;" horiz-adv-x="446" 
d="M-5 0l21 148h82l55 391h-82l21 147h374l-21 -147h-83l-55 -391h83l-21 -148h-374zM280 736q-94 0 -134.5 40.5t-31.5 106.5h101q0 -24 17.5 -37.5t57.5 -13.5t61.5 13.5t28.5 37.5h100q-9 -66 -60.5 -106.5t-139.5 -40.5z" />
    <glyph glyph-name="uni01CF" unicode="&#x1cf;" horiz-adv-x="446" 
d="M-5 0l21 148h82l55 391h-82l21 147h374l-21 -147h-83l-55 -391h83l-21 -148h-374zM188 746l-91 139h131l71 -105h-32l101 105h131l-127 -139h-184z" />
    <glyph glyph-name="Icircumflex" unicode="&#xce;" horiz-adv-x="446" 
d="M-5 0l21 148h82l55 391h-82l21 147h374l-21 -147h-83l-55 -391h83l-21 -148h-374zM77 746l125 139h184l93 -139h-131l-71 105h32l-101 -105h-131z" />
    <glyph glyph-name="uni0208" unicode="&#x208;" horiz-adv-x="446" 
d="M-5 0l21 148h82l55 391h-82l21 147h374l-21 -147h-83l-55 -391h83l-21 -148h-374zM339 753l-106 142l7 3h146l71 -145h-118zM117 753l-106 142l2 3h151l71 -145h-118z" />
    <glyph glyph-name="Idieresis" unicode="&#xcf;" horiz-adv-x="446" 
d="M-5 0l21 148h82l55 391h-82l21 147h374l-21 -147h-83l-55 -391h83l-21 -148h-374zM79 745l20 140h144l-20 -140h-144zM333 745l20 140h144l-20 -140h-144z" />
    <glyph glyph-name="Idotaccent" unicode="&#x130;" horiz-adv-x="446" 
d="M-5 0l21 148h82l55 391h-82l21 147h374l-21 -147h-83l-55 -391h83l-21 -148h-374zM205 740l20 140h144l-20 -140h-144z" />
    <glyph glyph-name="uni1ECA" unicode="&#x1eca;" horiz-adv-x="446" 
d="M-5 0l21 148h82l55 391h-82l21 147h374l-21 -147h-83l-55 -391h83l-21 -148h-374zM65 -225l20 147h152l-20 -147h-152z" />
    <glyph glyph-name="Igrave" unicode="&#xcc;" horiz-adv-x="446" 
d="M-5 0l21 148h82l55 391h-82l21 147h374l-21 -147h-83l-55 -391h83l-21 -148h-374zM218 742l-106 142l2 3h166l71 -145h-133z" />
    <glyph glyph-name="uni1EC8" unicode="&#x1ec8;" horiz-adv-x="446" 
d="M-5 0l21 148h82l55 391h-82l21 147h374l-21 -147h-83l-55 -391h83l-21 -148h-374zM249 729l11 81q28 3 44.5 14.5t19.5 33.5q2 16 -9 26t-34 10q-14 0 -32.5 -2.5t-41.5 -10.5l16 110q21 5 40.5 7t38.5 2q57 0 93.5 -27t36.5 -77q0 -48 -27 -85t-69 -58.5t-87 -23.5z" />
    <glyph glyph-name="uni020A" unicode="&#x20a;" horiz-adv-x="446" 
d="M-5 0l21 148h82l55 391h-82l21 147h374l-21 -147h-83l-55 -391h83l-21 -148h-374zM86 751q6 44 31 77t68.5 51.5t104.5 18.5q66 0 108 -18.5t60.5 -51.5t12.5 -77h-101q-1 24 -20.5 37.5t-63.5 13.5t-68 -13.5t-32 -37.5h-100z" />
    <glyph glyph-name="Imacron" unicode="&#x12a;" horiz-adv-x="446" 
d="M-5 0l21 148h82l55 391h-82l21 147h374l-21 -147h-83l-55 -391h83l-21 -148h-374zM107 765l14 100h348l-14 -100h-348z" />
    <glyph glyph-name="Iogonek" unicode="&#x12e;" horiz-adv-x="446" 
d="M-5 0l21 148h82l55 391h-82l21 147h374l-21 -147h-83l-55 -391h83l-21 -148h-374zM290 -150q-40 0 -68 16t-28 51q0 29 15.5 49.5t35.5 33.5h118q-21 -12 -35.5 -24.5t-14.5 -32.5q0 -13 9 -18.5t22 -5.5t28.5 4t29.5 9l7 -51q-25 -14 -57 -22.5t-62 -8.5z" />
    <glyph glyph-name="uni0197" unicode="&#x197;" horiz-adv-x="446" 
d="M62 410h352l-18 -134h-352zM-5 0l21 148h82l55 391h-82l21 147h374l-21 -147h-83l-55 -391h83l-21 -148h-374z" />
    <glyph glyph-name="Itilde" unicode="&#x128;" horiz-adv-x="446" 
d="M-5 0l21 148h82l55 391h-82l21 147h374l-21 -147h-83l-55 -391h83l-21 -148h-374zM70 739q10 52 30 86t49 51t66 17q34 0 61.5 -10.5t51 -21t44.5 -10.5q20 0 33 11.5t20 29.5h81q-10 -51 -30 -85.5t-49 -51.5t-66 -17q-34 0 -61.5 10.5t-50.5 21t-45 10.5
q-19 0 -32 -11.5t-21 -29.5h-81z" />
    <glyph glyph-name="J" unicode="J" horiz-adv-x="543" 
d="M186 -10q-64 0 -107.5 18.5t-65.5 56t-22 93.5q0 9 2.5 27.5t9.5 62.5h192q-4 -28 -7 -47.5t-3 -22.5q0 -17 10.5 -27.5t25.5 -10.5q17 0 31 12.5t17 33.5l70 500h205l-71 -506q-9 -62 -45 -104.5t-90 -64t-121 -21.5h-31z" />
    <glyph glyph-name="Jcircumflex" unicode="&#x134;" horiz-adv-x="543" 
d="M186 -10q-64 0 -107.5 18.5t-65.5 56t-22 93.5q0 9 2.5 27.5t9.5 62.5h192q-4 -28 -7 -47.5t-3 -22.5q0 -17 10.5 -27.5t25.5 -10.5q17 0 31 12.5t17 33.5l70 500h205l-71 -506q-9 -62 -45 -104.5t-90 -64t-121 -21.5h-31z" />
    <glyph glyph-name="K" unicode="K" horiz-adv-x="684" 
d="M16 0l97 686h204l-38 -271l234 271h232l-248 -275l157 -411h-235l-84 248l-93 -96l-22 -152h-204z" />
    <glyph glyph-name="uni0136" unicode="&#x136;" horiz-adv-x="684" 
d="M16 0l97 686h204l-38 -271l234 271h232l-248 -275l157 -411h-235l-84 248l-93 -96l-22 -152h-204zM184 -413l3 20q40 35 62.5 73t27.5 78h-73l24 165h159l-20 -139q-7 -56 -32.5 -107t-68.5 -90h-82z" />
    <glyph glyph-name="L" unicode="L" horiz-adv-x="540" 
d="M16 0l97 686h212l-73 -518h245v-168h-481z" />
    <glyph glyph-name="uni01C7" unicode="&#x1c7;" horiz-adv-x="1083" 
d="M16 0l97 686h212l-73 -518h245v-168h-481zM726 -10q-64 0 -107.5 18.5t-65.5 56t-22 93.5q0 9 2.5 27.5t9.5 62.5h192q-4 -28 -7 -47.5t-3 -22.5q0 -17 10.5 -27.5t25.5 -10.5q17 0 31 12.5t17 33.5l70 500h205l-71 -506q-9 -62 -45 -104.5t-90 -64t-121 -21.5h-31z" />
    <glyph glyph-name="Lacute" unicode="&#x139;" horiz-adv-x="540" 
d="M16 0l97 686h212l-73 -518h245v-168h-481zM148 742l108 145h174l2 -3l-143 -142h-141z" />
    <glyph glyph-name="Lcaron" unicode="&#x13d;" horiz-adv-x="540" 
d="M16 0l97 686h212l-73 -518h245v-168h-481zM392 356l3 19q35 32 56.5 65.5t26.5 71.5h-69l22 152h149l-17 -128q-8 -52 -32 -97.5t-63 -82.5h-76z" />
    <glyph glyph-name="uni013B" unicode="&#x13b;" horiz-adv-x="540" 
d="M16 0l97 686h212l-73 -518h245v-168h-481zM133 -413l3 20q40 35 62.5 73t27.5 78h-73l24 165h159l-20 -139q-7 -56 -32.5 -107t-68.5 -90h-82z" />
    <glyph glyph-name="Ldot" unicode="&#x13f;" horiz-adv-x="540" 
d="M16 0l97 686h212l-73 -518h245v-168h-481zM335 322l26 183h191l-26 -183h-191z" />
    <glyph glyph-name="uni01C8" unicode="&#x1c8;" horiz-adv-x="838" 
d="M16 0l97 686h212l-73 -518h245v-168h-481zM538 -187q-17 0 -41.5 3t-48.5 8t-40 11l16 112q11 -5 30 -8.5t30 -3.5q21 0 40 12.5t25 56.5l71 507h199l-76 -537q-11 -81 -67 -121t-138 -40zM629 577l20 143h199l-20 -143h-199z" />
    <glyph glyph-name="Lslash" unicode="&#x141;" horiz-adv-x="540" 
d="M16 0l97 686h212l-73 -518h245v-168h-481zM-8 260l14 105l395 184l-14 -105z" />
    <glyph glyph-name="M" unicode="M" horiz-adv-x="1004" 
d="M16 0l97 686h344l47 -366h4l149 366h346l-97 -686h-210l62 440h-4l-182 -440h-241l-57 440h-5l-62 -440h-191z" />
    <glyph glyph-name="N" unicode="N" horiz-adv-x="696" 
d="M16 0l97 686h176l140 -255l26 -56l3 1l43 310h194l-97 -686h-180l-136 246l-27 58h-4l-42 -304h-193z" />
    <glyph glyph-name="uni01CA" unicode="&#x1ca;" horiz-adv-x="1239" 
d="M16 0l97 686h176l140 -255l26 -56l3 1l43 310h194l-97 -686h-180l-136 246l-27 58h-4l-42 -304h-193zM882 -10q-64 0 -107.5 18.5t-65.5 56t-22 93.5q0 9 2.5 27.5t9.5 62.5h192q-4 -28 -7 -47.5t-3 -22.5q0 -17 10.5 -27.5t25.5 -10.5q17 0 31 12.5t17 33.5l70 500h205
l-71 -506q-9 -62 -45 -104.5t-90 -64t-121 -21.5h-31z" />
    <glyph glyph-name="Nacute" unicode="&#x143;" horiz-adv-x="696" 
d="M16 0l97 686h176l140 -255l26 -56l3 1l43 310h194l-97 -686h-180l-136 246l-27 58h-4l-42 -304h-193zM327 742l108 145h174l2 -3l-143 -142h-141z" />
    <glyph glyph-name="Ncaron" unicode="&#x147;" horiz-adv-x="696" 
d="M16 0l97 686h176l140 -255l26 -56l3 1l43 310h194l-97 -686h-180l-136 246l-27 58h-4l-42 -304h-193zM310 746l-91 139h131l71 -105h-32l101 105h131l-127 -139h-184z" />
    <glyph glyph-name="uni0145" unicode="&#x145;" horiz-adv-x="696" 
d="M16 0l97 686h176l140 -255l26 -56l3 1l43 310h194l-97 -686h-180l-136 246l-27 58h-4l-42 -304h-193zM161 -413l3 20q40 35 62.5 73t27.5 78h-73l24 165h159l-20 -139q-7 -56 -32.5 -107t-68.5 -90h-82z" />
    <glyph glyph-name="uni019D" unicode="&#x19d;" horiz-adv-x="696" 
d="M6 -187q-17 0 -41.5 3t-48.5 8t-40 11l16 112q11 -5 30 -8.5t30 -3.5q20 0 39 12t25 53l97 686h176l140 -255l26 -56l3 1l43 310h194l-97 -686h-180l-136 246l-27 58h-3l-47 -330q-11 -81 -64 -121t-135 -40z" />
    <glyph glyph-name="uni01CB" unicode="&#x1cb;" horiz-adv-x="994" 
d="M16 0l97 686h176l140 -255l26 -56l3 1l43 310h194l-97 -686h-180l-136 246l-27 58h-4l-42 -304h-193zM694 -187q-17 0 -41.5 3t-48.5 8t-40 11l16 112q11 -5 30 -8.5t30 -3.5q21 0 40 12.5t25 56.5l71 507h199l-76 -537q-11 -81 -67 -121t-138 -40zM785 577l20 143h199
l-20 -143h-199z" />
    <glyph glyph-name="Ntilde" unicode="&#xd1;" horiz-adv-x="696" 
d="M16 0l97 686h176l140 -255l26 -56l3 1l43 310h194l-97 -686h-180l-136 246l-27 58h-4l-42 -304h-193zM192 739q10 52 30 86t49 51t66 17q34 0 61.5 -10.5t51 -21t44.5 -10.5q20 0 33 11.5t20 29.5h81q-10 -51 -30 -85.5t-49 -51.5t-66 -17q-34 0 -61.5 10.5t-50.5 21
t-45 10.5q-19 0 -32 -11.5t-21 -29.5h-81z" />
    <glyph glyph-name="Eng" unicode="&#x14a;" horiz-adv-x="696" 
d="M389 -187q-17 0 -41.5 3t-48.5 8t-40 11l16 112q11 -5 30 -8.5t30 -3.5q21 0 40 12.5t25 56.5l3 23l-121 219l-27 58h-4l-42 -304h-193l97 686h176l140 -255l26 -56l3 1l43 310h194l-101 -712q-11 -81 -67 -121t-138 -40z" />
    <glyph glyph-name="O" unicode="O" horiz-adv-x="719" 
d="M289 -10q-76 0 -134.5 34t-92 92.5t-33.5 131.5q0 18 5 57.5t12 88.5q9 62 37.5 116.5t73 95.5t103 64.5t128.5 23.5h56q76 0 134.5 -34t92 -92.5t33.5 -131.5q0 -19 -4.5 -58t-12.5 -88q-9 -62 -37.5 -116.5t-73 -95.5t-103 -64.5t-128.5 -23.5h-56zM342 146
q23 0 42.5 6.5t34.5 19.5t24.5 31.5t12.5 42.5q9 61 14 99t8 59t4 32t1 18q0 25 -11.5 44t-32 29.5t-48.5 10.5q-23 0 -42.5 -6.5t-34.5 -19.5t-24.5 -31.5t-12.5 -42.5q-9 -61 -14 -99t-8 -59t-4 -32t-1 -18q0 -25 11.5 -44t32 -29.5t48.5 -10.5z" />
    <glyph glyph-name="Oacute" unicode="&#xd3;" horiz-adv-x="719" 
d="M289 -10q-76 0 -134.5 34t-92 92.5t-33.5 131.5q0 18 5 57.5t12 88.5q9 62 37.5 116.5t73 95.5t103 64.5t128.5 23.5h56q76 0 134.5 -34t92 -92.5t33.5 -131.5q0 -19 -4.5 -58t-12.5 -88q-9 -62 -37.5 -116.5t-73 -95.5t-103 -64.5t-128.5 -23.5h-56zM342 146
q23 0 42.5 6.5t34.5 19.5t24.5 31.5t12.5 42.5q9 61 14 99t8 59t4 32t1 18q0 25 -11.5 44t-32 29.5t-48.5 10.5q-23 0 -42.5 -6.5t-34.5 -19.5t-24.5 -31.5t-12.5 -42.5q-9 -61 -14 -99t-8 -59t-4 -32t-1 -18q0 -25 11.5 -44t32 -29.5t48.5 -10.5zM340 742l108 145h174l2 -3
l-143 -142h-141z" />
    <glyph glyph-name="Obreve" unicode="&#x14e;" horiz-adv-x="719" 
d="M289 -10q-76 0 -134.5 34t-92 92.5t-33.5 131.5q0 18 5 57.5t12 88.5q9 62 37.5 116.5t73 95.5t103 64.5t128.5 23.5h56q76 0 134.5 -34t92 -92.5t33.5 -131.5q0 -19 -4.5 -58t-12.5 -88q-9 -62 -37.5 -116.5t-73 -95.5t-103 -64.5t-128.5 -23.5h-56zM342 146
q23 0 42.5 6.5t34.5 19.5t24.5 31.5t12.5 42.5q9 61 14 99t8 59t4 32t1 18q0 25 -11.5 44t-32 29.5t-48.5 10.5q-23 0 -42.5 -6.5t-34.5 -19.5t-24.5 -31.5t-12.5 -42.5q-9 -61 -14 -99t-8 -59t-4 -32t-1 -18q0 -25 11.5 -44t32 -29.5t48.5 -10.5zM415 736
q-94 0 -134.5 40.5t-31.5 106.5h101q0 -24 17.5 -37.5t57.5 -13.5t61.5 13.5t28.5 37.5h100q-9 -66 -60.5 -106.5t-139.5 -40.5z" />
    <glyph glyph-name="uni01D1" unicode="&#x1d1;" horiz-adv-x="719" 
d="M289 -10q-76 0 -134.5 34t-92 92.5t-33.5 131.5q0 18 5 57.5t12 88.5q9 62 37.5 116.5t73 95.5t103 64.5t128.5 23.5h56q76 0 134.5 -34t92 -92.5t33.5 -131.5q0 -19 -4.5 -58t-12.5 -88q-9 -62 -37.5 -116.5t-73 -95.5t-103 -64.5t-128.5 -23.5h-56zM342 146
q23 0 42.5 6.5t34.5 19.5t24.5 31.5t12.5 42.5q9 61 14 99t8 59t4 32t1 18q0 25 -11.5 44t-32 29.5t-48.5 10.5q-23 0 -42.5 -6.5t-34.5 -19.5t-24.5 -31.5t-12.5 -42.5q-9 -61 -14 -99t-8 -59t-4 -32t-1 -18q0 -25 11.5 -44t32 -29.5t48.5 -10.5zM323 746l-91 139h131
l71 -105h-32l101 105h131l-127 -139h-184z" />
    <glyph glyph-name="Ocircumflex" unicode="&#xd4;" horiz-adv-x="719" 
d="M289 -10q-76 0 -134.5 34t-92 92.5t-33.5 131.5q0 18 5 57.5t12 88.5q9 62 37.5 116.5t73 95.5t103 64.5t128.5 23.5h56q76 0 134.5 -34t92 -92.5t33.5 -131.5q0 -19 -4.5 -58t-12.5 -88q-9 -62 -37.5 -116.5t-73 -95.5t-103 -64.5t-128.5 -23.5h-56zM342 146
q23 0 42.5 6.5t34.5 19.5t24.5 31.5t12.5 42.5q9 61 14 99t8 59t4 32t1 18q0 25 -11.5 44t-32 29.5t-48.5 10.5q-23 0 -42.5 -6.5t-34.5 -19.5t-24.5 -31.5t-12.5 -42.5q-9 -61 -14 -99t-8 -59t-4 -32t-1 -18q0 -25 11.5 -44t32 -29.5t48.5 -10.5zM212 746l125 139h184
l93 -139h-131l-71 105h32l-101 -105h-131z" />
    <glyph glyph-name="uni1ED0" unicode="&#x1ed0;" horiz-adv-x="719" 
d="M289 -10q-76 0 -134.5 34t-92 92.5t-33.5 131.5q0 18 5 57.5t12 88.5q9 62 37.5 116.5t73 95.5t103 64.5t128.5 23.5h56q76 0 134.5 -34t92 -92.5t33.5 -131.5q0 -19 -4.5 -58t-12.5 -88q-9 -62 -37.5 -116.5t-73 -95.5t-103 -64.5t-128.5 -23.5h-56zM342 146
q23 0 42.5 6.5t34.5 19.5t24.5 31.5t12.5 42.5q9 61 14 99t8 59t4 32t1 18q0 25 -11.5 44t-32 29.5t-48.5 10.5q-23 0 -42.5 -6.5t-34.5 -19.5t-24.5 -31.5t-12.5 -42.5q-9 -61 -14 -99t-8 -59t-4 -32t-1 -18q0 -25 11.5 -44t32 -29.5t48.5 -10.5zM379 945l102 133h151l1 -3
l-136 -130h-118zM206 756l159 139h138l119 -139h-122l-76 56l-92 -56h-126z" />
    <glyph glyph-name="uni1ED8" unicode="&#x1ed8;" horiz-adv-x="719" 
d="M289 -10q-76 0 -134.5 34t-92 92.5t-33.5 131.5q0 18 5 57.5t12 88.5q9 62 37.5 116.5t73 95.5t103 64.5t128.5 23.5h56q76 0 134.5 -34t92 -92.5t33.5 -131.5q0 -19 -4.5 -58t-12.5 -88q-9 -62 -37.5 -116.5t-73 -95.5t-103 -64.5t-128.5 -23.5h-56zM342 146
q23 0 42.5 6.5t34.5 19.5t24.5 31.5t12.5 42.5q9 61 14 99t8 59t4 32t1 18q0 25 -11.5 44t-32 29.5t-48.5 10.5q-23 0 -42.5 -6.5t-34.5 -19.5t-24.5 -31.5t-12.5 -42.5q-9 -61 -14 -99t-8 -59t-4 -32t-1 -18q0 -25 11.5 -44t32 -29.5t48.5 -10.5zM212 -225l20 147h152
l-20 -147h-152z" />
    <glyph glyph-name="uni1ED2" unicode="&#x1ed2;" horiz-adv-x="719" 
d="M289 -10q-76 0 -134.5 34t-92 92.5t-33.5 131.5q0 18 5 57.5t12 88.5q9 62 37.5 116.5t73 95.5t103 64.5t128.5 23.5h56q76 0 134.5 -34t92 -92.5t33.5 -131.5q0 -19 -4.5 -58t-12.5 -88q-9 -62 -37.5 -116.5t-73 -95.5t-103 -64.5t-128.5 -23.5h-56zM342 146
q23 0 42.5 6.5t34.5 19.5t24.5 31.5t12.5 42.5q9 61 14 99t8 59t4 32t1 18q0 25 -11.5 44t-32 29.5t-48.5 10.5q-23 0 -42.5 -6.5t-34.5 -19.5t-24.5 -31.5t-12.5 -42.5q-9 -61 -14 -99t-8 -59t-4 -32t-1 -18q0 -25 11.5 -44t32 -29.5t48.5 -10.5zM384 945l-100 130l3 3h151
l64 -133h-118zM206 756l159 139h138l119 -139h-122l-76 56l-92 -56h-126z" />
    <glyph glyph-name="uni1ED4" unicode="&#x1ed4;" horiz-adv-x="719" 
d="M289 -10q-76 0 -134.5 34t-92 92.5t-33.5 131.5q0 18 5 57.5t12 88.5q9 62 37.5 116.5t73 95.5t103 64.5t128.5 23.5h56q76 0 134.5 -34t92 -92.5t33.5 -131.5q0 -19 -4.5 -58t-12.5 -88q-9 -62 -37.5 -116.5t-73 -95.5t-103 -64.5t-128.5 -23.5h-56zM342 146
q23 0 42.5 6.5t34.5 19.5t24.5 31.5t12.5 42.5q9 61 14 99t8 59t4 32t1 18q0 25 -11.5 44t-32 29.5t-48.5 10.5q-23 0 -42.5 -6.5t-34.5 -19.5t-24.5 -31.5t-12.5 -42.5q-9 -61 -14 -99t-8 -59t-4 -32t-1 -18q0 -25 11.5 -44t32 -29.5t48.5 -10.5zM419 935l9 64
q23 3 37.5 13t14.5 29q0 12 -9 19t-26 7q-11 0 -25.5 -2.5t-33.5 -8.5l13 88q17 5 32.5 6t30.5 1q45 0 74.5 -21.5t29.5 -62.5q0 -38 -22.5 -67t-56 -46t-68.5 -19zM205 756l159 139h138l119 -139h-122l-76 56l-92 -56h-126z" />
    <glyph glyph-name="uni1ED6" unicode="&#x1ed6;" horiz-adv-x="719" 
d="M289 -10q-76 0 -134.5 34t-92 92.5t-33.5 131.5q0 18 5 57.5t12 88.5q9 62 37.5 116.5t73 95.5t103 64.5t128.5 23.5h56q76 0 134.5 -34t92 -92.5t33.5 -131.5q0 -19 -4.5 -58t-12.5 -88q-9 -62 -37.5 -116.5t-73 -95.5t-103 -64.5t-128.5 -23.5h-56zM342 146
q23 0 42.5 6.5t34.5 19.5t24.5 31.5t12.5 42.5q9 61 14 99t8 59t4 32t1 18q0 25 -11.5 44t-32 29.5t-48.5 10.5q-23 0 -42.5 -6.5t-34.5 -19.5t-24.5 -31.5t-12.5 -42.5q-9 -61 -14 -99t-8 -59t-4 -32t-1 -18q0 -25 11.5 -44t32 -29.5t48.5 -10.5zM248 935q6 42 26 73
t49.5 48.5t64.5 17.5q34 0 55.5 -9t40.5 -18t42 -9q17 0 31 10t21 26h74q-5 -42 -25 -73.5t-50 -48.5t-65 -17q-33 0 -55 9t-40.5 18t-42.5 9q-17 0 -31 -10t-21 -26h-74zM207 756l159 139h138l119 -139h-122l-76 56l-92 -56h-126z" />
    <glyph glyph-name="uni020C" unicode="&#x20c;" horiz-adv-x="719" 
d="M289 -10q-76 0 -134.5 34t-92 92.5t-33.5 131.5q0 18 5 57.5t12 88.5q9 62 37.5 116.5t73 95.5t103 64.5t128.5 23.5h56q76 0 134.5 -34t92 -92.5t33.5 -131.5q0 -19 -4.5 -58t-12.5 -88q-9 -62 -37.5 -116.5t-73 -95.5t-103 -64.5t-128.5 -23.5h-56zM342 146
q23 0 42.5 6.5t34.5 19.5t24.5 31.5t12.5 42.5q9 61 14 99t8 59t4 32t1 18q0 25 -11.5 44t-32 29.5t-48.5 10.5q-23 0 -42.5 -6.5t-34.5 -19.5t-24.5 -31.5t-12.5 -42.5q-9 -61 -14 -99t-8 -59t-4 -32t-1 -18q0 -25 11.5 -44t32 -29.5t48.5 -10.5zM474 753l-106 142l7 3h146
l71 -145h-118zM252 753l-106 142l2 3h151l71 -145h-118z" />
    <glyph glyph-name="Odieresis" unicode="&#xd6;" horiz-adv-x="719" 
d="M289 -10q-76 0 -134.5 34t-92 92.5t-33.5 131.5q0 18 5 57.5t12 88.5q9 62 37.5 116.5t73 95.5t103 64.5t128.5 23.5h56q76 0 134.5 -34t92 -92.5t33.5 -131.5q0 -19 -4.5 -58t-12.5 -88q-9 -62 -37.5 -116.5t-73 -95.5t-103 -64.5t-128.5 -23.5h-56zM342 146
q23 0 42.5 6.5t34.5 19.5t24.5 31.5t12.5 42.5q9 61 14 99t8 59t4 32t1 18q0 25 -11.5 44t-32 29.5t-48.5 10.5q-23 0 -42.5 -6.5t-34.5 -19.5t-24.5 -31.5t-12.5 -42.5q-9 -61 -14 -99t-8 -59t-4 -32t-1 -18q0 -25 11.5 -44t32 -29.5t48.5 -10.5zM214 745l20 140h144
l-20 -140h-144zM468 745l20 140h144l-20 -140h-144z" />
    <glyph glyph-name="uni022A" unicode="&#x22a;" horiz-adv-x="719" 
d="M289 -10q-76 0 -134.5 34t-92 92.5t-33.5 131.5q0 18 5 57.5t12 88.5q9 62 37.5 116.5t73 95.5t103 64.5t128.5 23.5h56q76 0 134.5 -34t92 -92.5t33.5 -131.5q0 -19 -4.5 -58t-12.5 -88q-9 -62 -37.5 -116.5t-73 -95.5t-103 -64.5t-128.5 -23.5h-56zM342 146
q23 0 42.5 6.5t34.5 19.5t24.5 31.5t12.5 42.5q9 61 14 99t8 59t4 32t1 18q0 25 -11.5 44t-32 29.5t-48.5 10.5q-23 0 -42.5 -6.5t-34.5 -19.5t-24.5 -31.5t-12.5 -42.5q-9 -61 -14 -99t-8 -59t-4 -32t-1 -18q0 -25 11.5 -44t32 -29.5t48.5 -10.5zM258 945l15 104h364
l-15 -104h-364zM231 755l20 140h144l-20 -140h-144zM451 755l20 140h144l-20 -140h-144z" />
    <glyph glyph-name="uni0230" unicode="&#x230;" horiz-adv-x="719" 
d="M289 -10q-76 0 -134.5 34t-92 92.5t-33.5 131.5q0 18 5 57.5t12 88.5q9 62 37.5 116.5t73 95.5t103 64.5t128.5 23.5h56q76 0 134.5 -34t92 -92.5t33.5 -131.5q0 -19 -4.5 -58t-12.5 -88q-9 -62 -37.5 -116.5t-73 -95.5t-103 -64.5t-128.5 -23.5h-56zM342 146
q23 0 42.5 6.5t34.5 19.5t24.5 31.5t12.5 42.5q9 61 14 99t8 59t4 32t1 18q0 25 -11.5 44t-32 29.5t-48.5 10.5q-23 0 -42.5 -6.5t-34.5 -19.5t-24.5 -31.5t-12.5 -42.5q-9 -61 -14 -99t-8 -59t-4 -32t-1 -18q0 -25 11.5 -44t32 -29.5t48.5 -10.5zM265 945l15 104h352
l-15 -104h-352zM342 755l20 140h144l-20 -140h-144z" />
    <glyph glyph-name="uni1ECC" unicode="&#x1ecc;" horiz-adv-x="719" 
d="M289 -10q-76 0 -134.5 34t-92 92.5t-33.5 131.5q0 18 5 57.5t12 88.5q9 62 37.5 116.5t73 95.5t103 64.5t128.5 23.5h56q76 0 134.5 -34t92 -92.5t33.5 -131.5q0 -19 -4.5 -58t-12.5 -88q-9 -62 -37.5 -116.5t-73 -95.5t-103 -64.5t-128.5 -23.5h-56zM342 146
q23 0 42.5 6.5t34.5 19.5t24.5 31.5t12.5 42.5q9 61 14 99t8 59t4 32t1 18q0 25 -11.5 44t-32 29.5t-48.5 10.5q-23 0 -42.5 -6.5t-34.5 -19.5t-24.5 -31.5t-12.5 -42.5q-9 -61 -14 -99t-8 -59t-4 -32t-1 -18q0 -25 11.5 -44t32 -29.5t48.5 -10.5zM212 -225l20 147h152
l-20 -147h-152z" />
    <glyph glyph-name="Ograve" unicode="&#xd2;" horiz-adv-x="719" 
d="M289 -10q-76 0 -134.5 34t-92 92.5t-33.5 131.5q0 18 5 57.5t12 88.5q9 62 37.5 116.5t73 95.5t103 64.5t128.5 23.5h56q76 0 134.5 -34t92 -92.5t33.5 -131.5q0 -19 -4.5 -58t-12.5 -88q-9 -62 -37.5 -116.5t-73 -95.5t-103 -64.5t-128.5 -23.5h-56zM342 146
q23 0 42.5 6.5t34.5 19.5t24.5 31.5t12.5 42.5q9 61 14 99t8 59t4 32t1 18q0 25 -11.5 44t-32 29.5t-48.5 10.5q-23 0 -42.5 -6.5t-34.5 -19.5t-24.5 -31.5t-12.5 -42.5q-9 -61 -14 -99t-8 -59t-4 -32t-1 -18q0 -25 11.5 -44t32 -29.5t48.5 -10.5zM353 742l-106 142l2 3h166
l71 -145h-133z" />
    <glyph glyph-name="uni1ECE" unicode="&#x1ece;" horiz-adv-x="719" 
d="M289 -10q-76 0 -134.5 34t-92 92.5t-33.5 131.5q0 18 5 57.5t12 88.5q9 62 37.5 116.5t73 95.5t103 64.5t128.5 23.5h56q76 0 134.5 -34t92 -92.5t33.5 -131.5q0 -19 -4.5 -58t-12.5 -88q-9 -62 -37.5 -116.5t-73 -95.5t-103 -64.5t-128.5 -23.5h-56zM342 146
q23 0 42.5 6.5t34.5 19.5t24.5 31.5t12.5 42.5q9 61 14 99t8 59t4 32t1 18q0 25 -11.5 44t-32 29.5t-48.5 10.5q-23 0 -42.5 -6.5t-34.5 -19.5t-24.5 -31.5t-12.5 -42.5q-9 -61 -14 -99t-8 -59t-4 -32t-1 -18q0 -25 11.5 -44t32 -29.5t48.5 -10.5zM384 729l11 81
q28 3 44.5 14.5t19.5 33.5q2 16 -9 26t-34 10q-14 0 -32.5 -2.5t-41.5 -10.5l16 110q21 5 40.5 7t38.5 2q57 0 93.5 -27t36.5 -77q0 -48 -27 -85t-69 -58.5t-87 -23.5z" />
    <glyph glyph-name="Ohorn" unicode="&#x1a0;" horiz-adv-x="719" 
d="M289 -10q-76 0 -134.5 34t-92 92.5t-33.5 131.5q0 18 5 57.5t12 88.5q9 62 37.5 116.5t73 95.5t103 64.5t128.5 23.5h56q76 0 134.5 -34t92 -92.5t33.5 -131.5q0 -19 -4.5 -58t-12.5 -88q-9 -62 -37.5 -116.5t-73 -95.5t-103 -64.5t-128.5 -23.5h-56zM342 146
q23 0 42.5 6.5t34.5 19.5t24.5 31.5t12.5 42.5q9 61 14 99t8 59t4 32t1 18q0 25 -11.5 44t-32 29.5t-48.5 10.5q-23 0 -42.5 -6.5t-34.5 -19.5t-24.5 -31.5t-12.5 -42.5q-9 -61 -14 -99t-8 -59t-4 -32t-1 -18q0 -25 11.5 -44t32 -29.5t48.5 -10.5zM554 562l14 98
q50 8 70 41.5t29 97.5h164q-8 -60 -47.5 -112t-99.5 -86t-130 -39z" />
    <glyph glyph-name="uni1EDA" unicode="&#x1eda;" horiz-adv-x="719" 
d="M289 -10q-76 0 -134.5 34t-92 92.5t-33.5 131.5q0 18 5 57.5t12 88.5q9 62 37.5 116.5t73 95.5t103 64.5t128.5 23.5h56q76 0 134.5 -34t92 -92.5t33.5 -131.5q0 -19 -4.5 -58t-12.5 -88q-9 -62 -37.5 -116.5t-73 -95.5t-103 -64.5t-128.5 -23.5h-56zM342 146
q23 0 42.5 6.5t34.5 19.5t24.5 31.5t12.5 42.5q9 61 14 99t8 59t4 32t1 18q0 25 -11.5 44t-32 29.5t-48.5 10.5q-23 0 -42.5 -6.5t-34.5 -19.5t-24.5 -31.5t-12.5 -42.5q-9 -61 -14 -99t-8 -59t-4 -32t-1 -18q0 -25 11.5 -44t32 -29.5t48.5 -10.5zM554 562l14 98
q50 8 70 41.5t29 97.5h164q-8 -60 -47.5 -112t-99.5 -86t-130 -39zM340 742l108 145h174l2 -3l-143 -142h-141z" />
    <glyph glyph-name="uni1EE2" unicode="&#x1ee2;" horiz-adv-x="719" 
d="M289 -10q-76 0 -134.5 34t-92 92.5t-33.5 131.5q0 18 5 57.5t12 88.5q9 62 37.5 116.5t73 95.5t103 64.5t128.5 23.5h56q76 0 134.5 -34t92 -92.5t33.5 -131.5q0 -19 -4.5 -58t-12.5 -88q-9 -62 -37.5 -116.5t-73 -95.5t-103 -64.5t-128.5 -23.5h-56zM342 146
q23 0 42.5 6.5t34.5 19.5t24.5 31.5t12.5 42.5q9 61 14 99t8 59t4 32t1 18q0 25 -11.5 44t-32 29.5t-48.5 10.5q-23 0 -42.5 -6.5t-34.5 -19.5t-24.5 -31.5t-12.5 -42.5q-9 -61 -14 -99t-8 -59t-4 -32t-1 -18q0 -25 11.5 -44t32 -29.5t48.5 -10.5zM554 562l14 98
q50 8 70 41.5t29 97.5h164q-8 -60 -47.5 -112t-99.5 -86t-130 -39zM212 -225l20 147h152l-20 -147h-152z" />
    <glyph glyph-name="uni1EDC" unicode="&#x1edc;" horiz-adv-x="719" 
d="M289 -10q-76 0 -134.5 34t-92 92.5t-33.5 131.5q0 18 5 57.5t12 88.5q9 62 37.5 116.5t73 95.5t103 64.5t128.5 23.5h56q76 0 134.5 -34t92 -92.5t33.5 -131.5q0 -19 -4.5 -58t-12.5 -88q-9 -62 -37.5 -116.5t-73 -95.5t-103 -64.5t-128.5 -23.5h-56zM342 146
q23 0 42.5 6.5t34.5 19.5t24.5 31.5t12.5 42.5q9 61 14 99t8 59t4 32t1 18q0 25 -11.5 44t-32 29.5t-48.5 10.5q-23 0 -42.5 -6.5t-34.5 -19.5t-24.5 -31.5t-12.5 -42.5q-9 -61 -14 -99t-8 -59t-4 -32t-1 -18q0 -25 11.5 -44t32 -29.5t48.5 -10.5zM554 562l14 98
q50 8 70 41.5t29 97.5h164q-8 -60 -47.5 -112t-99.5 -86t-130 -39zM353 742l-106 142l2 3h166l71 -145h-133z" />
    <glyph glyph-name="uni1EDE" unicode="&#x1ede;" horiz-adv-x="719" 
d="M289 -10q-76 0 -134.5 34t-92 92.5t-33.5 131.5q0 18 5 57.5t12 88.5q9 62 37.5 116.5t73 95.5t103 64.5t128.5 23.5h56q76 0 134.5 -34t92 -92.5t33.5 -131.5q0 -19 -4.5 -58t-12.5 -88q-9 -62 -37.5 -116.5t-73 -95.5t-103 -64.5t-128.5 -23.5h-56zM342 146
q23 0 42.5 6.5t34.5 19.5t24.5 31.5t12.5 42.5q9 61 14 99t8 59t4 32t1 18q0 25 -11.5 44t-32 29.5t-48.5 10.5q-23 0 -42.5 -6.5t-34.5 -19.5t-24.5 -31.5t-12.5 -42.5q-9 -61 -14 -99t-8 -59t-4 -32t-1 -18q0 -25 11.5 -44t32 -29.5t48.5 -10.5zM554 562l14 98
q50 8 70 41.5t29 97.5h164q-8 -60 -47.5 -112t-99.5 -86t-130 -39zM384 729l11 81q28 3 44.5 14.5t19.5 33.5q2 16 -9 26t-34 10q-14 0 -32.5 -2.5t-41.5 -10.5l16 110q21 5 40.5 7t38.5 2q57 0 93.5 -27t36.5 -77q0 -48 -27 -85t-69 -58.5t-87 -23.5z" />
    <glyph glyph-name="uni1EE0" unicode="&#x1ee0;" horiz-adv-x="719" 
d="M289 -10q-76 0 -134.5 34t-92 92.5t-33.5 131.5q0 18 5 57.5t12 88.5q9 62 37.5 116.5t73 95.5t103 64.5t128.5 23.5h56q76 0 134.5 -34t92 -92.5t33.5 -131.5q0 -19 -4.5 -58t-12.5 -88q-9 -62 -37.5 -116.5t-73 -95.5t-103 -64.5t-128.5 -23.5h-56zM342 146
q23 0 42.5 6.5t34.5 19.5t24.5 31.5t12.5 42.5q9 61 14 99t8 59t4 32t1 18q0 25 -11.5 44t-32 29.5t-48.5 10.5q-23 0 -42.5 -6.5t-34.5 -19.5t-24.5 -31.5t-12.5 -42.5q-9 -61 -14 -99t-8 -59t-4 -32t-1 -18q0 -25 11.5 -44t32 -29.5t48.5 -10.5zM554 562l14 98
q50 8 70 41.5t29 97.5h164q-8 -60 -47.5 -112t-99.5 -86t-130 -39zM205 739q10 52 30 86t49 51t66 17q34 0 61.5 -10.5t51 -21t44.5 -10.5q20 0 33 11.5t20 29.5h81q-10 -51 -30 -85.5t-49 -51.5t-66 -17q-34 0 -61.5 10.5t-50.5 21t-45 10.5q-19 0 -32 -11.5t-21 -29.5h-81
z" />
    <glyph glyph-name="Ohungarumlaut" unicode="&#x150;" horiz-adv-x="719" 
d="M289 -10q-76 0 -134.5 34t-92 92.5t-33.5 131.5q0 18 5 57.5t12 88.5q9 62 37.5 116.5t73 95.5t103 64.5t128.5 23.5h56q76 0 134.5 -34t92 -92.5t33.5 -131.5q0 -19 -4.5 -58t-12.5 -88q-9 -62 -37.5 -116.5t-73 -95.5t-103 -64.5t-128.5 -23.5h-56zM342 146
q23 0 42.5 6.5t34.5 19.5t24.5 31.5t12.5 42.5q9 61 14 99t8 59t4 32t1 18q0 25 -11.5 44t-32 29.5t-48.5 10.5q-23 0 -42.5 -6.5t-34.5 -19.5t-24.5 -31.5t-12.5 -42.5q-9 -61 -14 -99t-8 -59t-4 -32t-1 -18q0 -25 11.5 -44t32 -29.5t48.5 -10.5zM439 743l108 145h159l2 -3
l-143 -142h-126zM218 743l108 145h154l7 -3l-143 -142h-126z" />
    <glyph glyph-name="uni020E" unicode="&#x20e;" horiz-adv-x="719" 
d="M289 -10q-76 0 -134.5 34t-92 92.5t-33.5 131.5q0 18 5 57.5t12 88.5q9 62 37.5 116.5t73 95.5t103 64.5t128.5 23.5h56q76 0 134.5 -34t92 -92.5t33.5 -131.5q0 -19 -4.5 -58t-12.5 -88q-9 -62 -37.5 -116.5t-73 -95.5t-103 -64.5t-128.5 -23.5h-56zM342 146
q23 0 42.5 6.5t34.5 19.5t24.5 31.5t12.5 42.5q9 61 14 99t8 59t4 32t1 18q0 25 -11.5 44t-32 29.5t-48.5 10.5q-23 0 -42.5 -6.5t-34.5 -19.5t-24.5 -31.5t-12.5 -42.5q-9 -61 -14 -99t-8 -59t-4 -32t-1 -18q0 -25 11.5 -44t32 -29.5t48.5 -10.5zM221 751q6 44 31 77
t68.5 51.5t104.5 18.5q66 0 108 -18.5t60.5 -51.5t12.5 -77h-101q-1 24 -20.5 37.5t-63.5 13.5t-68 -13.5t-32 -37.5h-100z" />
    <glyph glyph-name="Omacron" unicode="&#x14c;" horiz-adv-x="719" 
d="M289 -10q-76 0 -134.5 34t-92 92.5t-33.5 131.5q0 18 5 57.5t12 88.5q9 62 37.5 116.5t73 95.5t103 64.5t128.5 23.5h56q76 0 134.5 -34t92 -92.5t33.5 -131.5q0 -19 -4.5 -58t-12.5 -88q-9 -62 -37.5 -116.5t-73 -95.5t-103 -64.5t-128.5 -23.5h-56zM342 146
q23 0 42.5 6.5t34.5 19.5t24.5 31.5t12.5 42.5q9 61 14 99t8 59t4 32t1 18q0 25 -11.5 44t-32 29.5t-48.5 10.5q-23 0 -42.5 -6.5t-34.5 -19.5t-24.5 -31.5t-12.5 -42.5q-9 -61 -14 -99t-8 -59t-4 -32t-1 -18q0 -25 11.5 -44t32 -29.5t48.5 -10.5zM242 765l14 100h348
l-14 -100h-348z" />
    <glyph glyph-name="uni01EA" unicode="&#x1ea;" horiz-adv-x="719" 
d="M289 -10q-76 0 -134.5 34t-92 92.5t-33.5 131.5q0 18 5 57.5t12 88.5q9 62 37.5 116.5t73 95.5t103 64.5t128.5 23.5h56q76 0 134.5 -34t92 -92.5t33.5 -131.5q0 -19 -4.5 -58t-12.5 -88q-9 -62 -37.5 -116.5t-73 -95.5t-103 -64.5t-128.5 -23.5h-56zM342 146
q23 0 42.5 6.5t34.5 19.5t24.5 31.5t12.5 42.5q9 61 14 99t8 59t4 32t1 18q0 25 -11.5 44t-32 29.5t-48.5 10.5q-23 0 -42.5 -6.5t-34.5 -19.5t-24.5 -31.5t-12.5 -42.5q-9 -61 -14 -99t-8 -59t-4 -32t-1 -18q0 -25 11.5 -44t32 -29.5t48.5 -10.5zM356 -150q-40 0 -68 16
t-28 51q0 29 15.5 49.5t35.5 33.5h118q-21 -12 -35.5 -24.5t-14.5 -32.5q0 -13 9 -18.5t22 -5.5t28.5 4t29.5 9l7 -51q-25 -14 -57 -22.5t-62 -8.5z" />
    <glyph glyph-name="Oslash" unicode="&#xd8;" horiz-adv-x="719" 
d="M289 -10q-76 0 -134.5 34t-92 92.5t-33.5 131.5q0 18 5 57.5t12 88.5q9 62 37.5 116.5t73 95.5t103 64.5t128.5 23.5h56q76 0 134.5 -34t92 -92.5t33.5 -131.5q0 -19 -4.5 -58t-12.5 -88q-9 -62 -37.5 -116.5t-73 -95.5t-103 -64.5t-128.5 -23.5h-56zM342 146
q23 0 42.5 6.5t34.5 19.5t24.5 31.5t12.5 42.5q9 61 14 99t8 59t4 32t1 18q0 25 -11.5 44t-32 29.5t-48.5 10.5q-23 0 -42.5 -6.5t-34.5 -19.5t-24.5 -31.5t-12.5 -42.5q-9 -61 -14 -99t-8 -59t-4 -32t-1 -18q0 -25 11.5 -44t32 -29.5t48.5 -10.5zM1 -79l616 819h108
l-616 -819h-108z" />
    <glyph glyph-name="Oslashacute" unicode="&#x1fe;" horiz-adv-x="719" 
d="M289 -10q-76 0 -134.5 34t-92 92.5t-33.5 131.5q0 18 5 57.5t12 88.5q9 62 37.5 116.5t73 95.5t103 64.5t128.5 23.5h56q76 0 134.5 -34t92 -92.5t33.5 -131.5q0 -19 -4.5 -58t-12.5 -88q-9 -62 -37.5 -116.5t-73 -95.5t-103 -64.5t-128.5 -23.5h-56zM342 146
q23 0 42.5 6.5t34.5 19.5t24.5 31.5t12.5 42.5q9 61 14 99t8 59t4 32t1 18q0 25 -11.5 44t-32 29.5t-48.5 10.5q-23 0 -42.5 -6.5t-34.5 -19.5t-24.5 -31.5t-12.5 -42.5q-9 -61 -14 -99t-8 -59t-4 -32t-1 -18q0 -25 11.5 -44t32 -29.5t48.5 -10.5zM1 -79l616 819h108
l-616 -819h-108zM349 752l111 145h171l2 -3l-146 -142h-138z" />
    <glyph glyph-name="Otilde" unicode="&#xd5;" horiz-adv-x="719" 
d="M289 -10q-76 0 -134.5 34t-92 92.5t-33.5 131.5q0 18 5 57.5t12 88.5q9 62 37.5 116.5t73 95.5t103 64.5t128.5 23.5h56q76 0 134.5 -34t92 -92.5t33.5 -131.5q0 -19 -4.5 -58t-12.5 -88q-9 -62 -37.5 -116.5t-73 -95.5t-103 -64.5t-128.5 -23.5h-56zM342 146
q23 0 42.5 6.5t34.5 19.5t24.5 31.5t12.5 42.5q9 61 14 99t8 59t4 32t1 18q0 25 -11.5 44t-32 29.5t-48.5 10.5q-23 0 -42.5 -6.5t-34.5 -19.5t-24.5 -31.5t-12.5 -42.5q-9 -61 -14 -99t-8 -59t-4 -32t-1 -18q0 -25 11.5 -44t32 -29.5t48.5 -10.5zM205 739q10 52 30 86
t49 51t66 17q34 0 61.5 -10.5t51 -21t44.5 -10.5q20 0 33 11.5t20 29.5h81q-10 -51 -30 -85.5t-49 -51.5t-66 -17q-34 0 -61.5 10.5t-50.5 21t-45 10.5q-19 0 -32 -11.5t-21 -29.5h-81z" />
    <glyph glyph-name="uni022C" unicode="&#x22c;" horiz-adv-x="719" 
d="M289 -10q-76 0 -134.5 34t-92 92.5t-33.5 131.5q0 18 5 57.5t12 88.5q9 62 37.5 116.5t73 95.5t103 64.5t128.5 23.5h56q76 0 134.5 -34t92 -92.5t33.5 -131.5q0 -19 -4.5 -58t-12.5 -88q-9 -62 -37.5 -116.5t-73 -95.5t-103 -64.5t-128.5 -23.5h-56zM342 146
q23 0 42.5 6.5t34.5 19.5t24.5 31.5t12.5 42.5q9 61 14 99t8 59t4 32t1 18q0 25 -11.5 44t-32 29.5t-48.5 10.5q-23 0 -42.5 -6.5t-34.5 -19.5t-24.5 -31.5t-12.5 -42.5q-9 -61 -14 -99t-8 -59t-4 -32t-1 -18q0 -25 11.5 -44t32 -29.5t48.5 -10.5zM256 951l14 96h368
l-14 -96h-368zM192 743q7 46 29 80.5t55 53.5t71 19q37 0 63.5 -10t49.5 -20t49 -10q19 0 35 11.5t23 28.5h81q-6 -46 -28.5 -80.5t-55 -53.5t-71.5 -19q-37 0 -63.5 10t-49.5 20t-49 10q-19 0 -34.5 -11.5t-23.5 -28.5h-81z" />
    <glyph glyph-name="OE" unicode="&#x152;" horiz-adv-x="1005" 
d="M289 -10q-85 0 -147.5 40.5t-92.5 108.5t-18 151q3 18 5.5 35t5 34.5t4.5 34.5q9 62 39 116.5t77 95.5t105.5 64.5t124.5 23.5q48 0 75 -7.5t49 -19.5l2 19h504l-62 -158h-255l-15 -109h244l-22 -153h-244l-15 -109h275l8 -157h-515l2 18q-22 -13 -51 -20.5t-83 -7.5z
M337 147q24 0 44.5 8t36 21.5t25.5 31.5t13 39q5 32 9.5 64t9 64.5t8.5 64.5q4 29 -6.5 51.5t-32 35.5t-52.5 13q-21 0 -40 -7.5t-35 -21.5t-26 -32t-13 -39q-4 -32 -8.5 -64.5t-9 -64.5t-9.5 -64q-4 -28 6 -50.5t31 -36t49 -13.5z" />
    <glyph glyph-name="P" unicode="P" horiz-adv-x="645" 
d="M16 0l97 686h362q54 0 95.5 -24t65.5 -65t24 -92q0 -68 -31.5 -128t-88.5 -96.5t-134 -36.5h-145l-35 -244h-210zM282 397h94q24 0 40 11t23.5 29.5t7.5 40.5q0 19 -12.5 35t-39.5 16h-94z" />
    <glyph glyph-name="Thorn" unicode="&#xde;" horiz-adv-x="646" 
d="M16 0l97 686h209l-15 -103h156q54 0 95 -24t64.5 -65t23.5 -92q0 -69 -32.5 -127.5t-88.5 -93.5t-126 -35h-153l-21 -146h-209zM267 294h96q22 0 37.5 10t24 29t8.5 45q0 22 -13 35.5t-35 13.5h-100z" />
    <glyph glyph-name="Q" unicode="Q" horiz-adv-x="719" 
d="M443 -162q-76 0 -121.5 25.5t-66 62t-23.5 70.5q-61 12 -106.5 47.5t-71 88.5t-25.5 116q0 18 5 57.5t12 88.5q9 62 37.5 116.5t73 95.5t103 64.5t128.5 23.5h56q76 0 134.5 -34t92 -92.5t33.5 -131.5q0 -19 -4.5 -58t-12.5 -88q-8 -51 -28 -96.5t-51 -83t-72 -65
t-91 -41.5q4 -11 11.5 -21t22 -16t37.5 -6q26 0 60 7t69 17l-15 -105q-20 -10 -46.5 -19.5t-61 -16t-79.5 -6.5zM342 146q23 0 42.5 6.5t34.5 19.5t24.5 31.5t12.5 42.5q9 61 14 99t8 59t4 32t1 18q0 26 -11.5 44.5t-32 29t-48.5 10.5q-23 0 -42.5 -6.5t-34.5 -19.5
t-24.5 -31.5t-12.5 -42.5q-9 -61 -14 -99t-8 -59t-4 -32t-1 -18q0 -24 11.5 -43t32 -30t48.5 -11z" />
    <glyph glyph-name="R" unicode="R" horiz-adv-x="682" 
d="M508 -10q-40 0 -68 9.5t-43 31t-15 57.5q0 20 4 40t4 43q0 17 -3 30t-11.5 21.5t-22.5 13t-37 4.5h-61l-34 -240h-205l96 686h388q46 0 83 -20.5t59.5 -56t22.5 -80.5q0 -53 -20.5 -94t-54 -68t-72.5 -39l-1 -5q24 -7 40.5 -17.5t27 -25t15.5 -33.5t5 -42q0 -21 -3.5 -39
t-3.5 -44q0 -16 3 -31t11.5 -26t23.5 -15l-6 -41q-29 -11 -61 -15t-61 -4zM277 393h110q21 0 35 12.5t21.5 32t7.5 41.5q0 21 -11.5 35.5t-34.5 14.5h-110z" />
    <glyph glyph-name="Racute" unicode="&#x154;" horiz-adv-x="682" 
d="M508 -10q-40 0 -68 9.5t-43 31t-15 57.5q0 20 4 40t4 43q0 17 -3 30t-11.5 21.5t-22.5 13t-37 4.5h-61l-34 -240h-205l96 686h388q46 0 83 -20.5t59.5 -56t22.5 -80.5q0 -53 -20.5 -94t-54 -68t-72.5 -39l-1 -5q24 -7 40.5 -17.5t27 -25t15.5 -33.5t5 -42q0 -21 -3.5 -39
t-3.5 -44q0 -16 3 -31t11.5 -26t23.5 -15l-6 -41q-29 -11 -61 -15t-61 -4zM277 393h110q21 0 35 12.5t21.5 32t7.5 41.5q0 21 -11.5 35.5t-34.5 14.5h-110zM313 742l108 145h174l2 -3l-143 -142h-141z" />
    <glyph glyph-name="Rcaron" unicode="&#x158;" horiz-adv-x="682" 
d="M508 -10q-40 0 -68 9.5t-43 31t-15 57.5q0 20 4 40t4 43q0 17 -3 30t-11.5 21.5t-22.5 13t-37 4.5h-61l-34 -240h-205l96 686h388q46 0 83 -20.5t59.5 -56t22.5 -80.5q0 -53 -20.5 -94t-54 -68t-72.5 -39l-1 -5q24 -7 40.5 -17.5t27 -25t15.5 -33.5t5 -42q0 -21 -3.5 -39
t-3.5 -44q0 -16 3 -31t11.5 -26t23.5 -15l-6 -41q-29 -11 -61 -15t-61 -4zM277 393h110q21 0 35 12.5t21.5 32t7.5 41.5q0 21 -11.5 35.5t-34.5 14.5h-110zM296 746l-91 139h131l71 -105h-32l101 105h131l-127 -139h-184z" />
    <glyph glyph-name="uni0156" unicode="&#x156;" horiz-adv-x="682" 
d="M508 -10q-40 0 -68 9.5t-43 31t-15 57.5q0 20 4 40t4 43q0 17 -3 30t-11.5 21.5t-22.5 13t-37 4.5h-61l-34 -240h-205l96 686h388q46 0 83 -20.5t59.5 -56t22.5 -80.5q0 -53 -20.5 -94t-54 -68t-72.5 -39l-1 -5q24 -7 40.5 -17.5t27 -25t15.5 -33.5t5 -42q0 -21 -3.5 -39
t-3.5 -44q0 -16 3 -31t11.5 -26t23.5 -15l-6 -41q-29 -11 -61 -15t-61 -4zM277 393h110q21 0 35 12.5t21.5 32t7.5 41.5q0 21 -11.5 35.5t-34.5 14.5h-110zM177 -413l3 20q40 35 62.5 73t27.5 78h-73l24 165h159l-20 -139q-7 -56 -32.5 -107t-68.5 -90h-82z" />
    <glyph glyph-name="uni0210" unicode="&#x210;" horiz-adv-x="682" 
d="M508 -10q-40 0 -68 9.5t-43 31t-15 57.5q0 20 4 40t4 43q0 17 -3 30t-11.5 21.5t-22.5 13t-37 4.5h-61l-34 -240h-205l96 686h388q46 0 83 -20.5t59.5 -56t22.5 -80.5q0 -53 -20.5 -94t-54 -68t-72.5 -39l-1 -5q24 -7 40.5 -17.5t27 -25t15.5 -33.5t5 -42q0 -21 -3.5 -39
t-3.5 -44q0 -16 3 -31t11.5 -26t23.5 -15l-6 -41q-29 -11 -61 -15t-61 -4zM277 393h110q21 0 35 12.5t21.5 32t7.5 41.5q0 21 -11.5 35.5t-34.5 14.5h-110zM447 753l-106 142l7 3h146l71 -145h-118zM225 753l-106 142l2 3h151l71 -145h-118z" />
    <glyph glyph-name="uni0212" unicode="&#x212;" horiz-adv-x="682" 
d="M508 -10q-40 0 -68 9.5t-43 31t-15 57.5q0 20 4 40t4 43q0 17 -3 30t-11.5 21.5t-22.5 13t-37 4.5h-61l-34 -240h-205l96 686h388q46 0 83 -20.5t59.5 -56t22.5 -80.5q0 -53 -20.5 -94t-54 -68t-72.5 -39l-1 -5q24 -7 40.5 -17.5t27 -25t15.5 -33.5t5 -42q0 -21 -3.5 -39
t-3.5 -44q0 -16 3 -31t11.5 -26t23.5 -15l-6 -41q-29 -11 -61 -15t-61 -4zM277 393h110q21 0 35 12.5t21.5 32t7.5 41.5q0 21 -11.5 35.5t-34.5 14.5h-110zM194 751q6 44 31 77t68.5 51.5t104.5 18.5q66 0 108 -18.5t60.5 -51.5t12.5 -77h-101q-1 24 -20.5 37.5t-63.5 13.5
t-68 -13.5t-32 -37.5h-100z" />
    <glyph glyph-name="S" unicode="S" horiz-adv-x="651" 
d="M276 -10q-70 0 -130.5 19.5t-97 61t-36.5 106.5q0 16 1 29.5t5 27.5h194q-2 -5 -3 -10.5t-1 -11.5q0 -16 9 -30t29 -22.5t52 -8.5q42 0 63.5 7t28.5 18t7 23q0 18 -18 29.5t-47.5 19.5t-65 17t-70.5 22.5t-64.5 34.5t-47.5 53t-18 79q0 79 39.5 132.5t110 81.5t164.5 28
q71 0 130 -19t94.5 -58.5t35.5 -101.5q0 -8 -0.5 -18t-3.5 -25h-192q1 5 1 8v7q0 26 -21 40.5t-59 14.5q-30 0 -49.5 -6t-28.5 -16.5t-9 -24.5q0 -19 18 -31t48 -20.5t66 -17t71.5 -21.5t65.5 -33.5t48 -52.5t18 -80q0 -51 -21 -96.5t-63 -80.5t-105.5 -54.5t-147.5 -19.5z
" />
    <glyph glyph-name="Sacute" unicode="&#x15a;" horiz-adv-x="651" 
d="M276 -10q-70 0 -130.5 19.5t-97 61t-36.5 106.5q0 16 1 29.5t5 27.5h194q-2 -5 -3 -10.5t-1 -11.5q0 -16 9 -30t29 -22.5t52 -8.5q42 0 63.5 7t28.5 18t7 23q0 18 -18 29.5t-47.5 19.5t-65 17t-70.5 22.5t-64.5 34.5t-47.5 53t-18 79q0 79 39.5 132.5t110 81.5t164.5 28
q71 0 130 -19t94.5 -58.5t35.5 -101.5q0 -8 -0.5 -18t-3.5 -25h-192q1 5 1 8v7q0 26 -21 40.5t-59 14.5q-30 0 -49.5 -6t-28.5 -16.5t-9 -24.5q0 -19 18 -31t48 -20.5t66 -17t71.5 -21.5t65.5 -33.5t48 -52.5t18 -80q0 -51 -21 -96.5t-63 -80.5t-105.5 -54.5t-147.5 -19.5z
M296 742l108 145h174l2 -3l-143 -142h-141z" />
    <glyph glyph-name="Scaron" unicode="&#x160;" horiz-adv-x="651" 
d="M276 -10q-70 0 -130.5 19.5t-97 61t-36.5 106.5q0 16 1 29.5t5 27.5h194q-2 -5 -3 -10.5t-1 -11.5q0 -16 9 -30t29 -22.5t52 -8.5q42 0 63.5 7t28.5 18t7 23q0 18 -18 29.5t-47.5 19.5t-65 17t-70.5 22.5t-64.5 34.5t-47.5 53t-18 79q0 79 39.5 132.5t110 81.5t164.5 28
q71 0 130 -19t94.5 -58.5t35.5 -101.5q0 -8 -0.5 -18t-3.5 -25h-192q1 5 1 8v7q0 26 -21 40.5t-59 14.5q-30 0 -49.5 -6t-28.5 -16.5t-9 -24.5q0 -19 18 -31t48 -20.5t66 -17t71.5 -21.5t65.5 -33.5t48 -52.5t18 -80q0 -51 -21 -96.5t-63 -80.5t-105.5 -54.5t-147.5 -19.5z
M279 746l-91 139h131l71 -105h-32l101 105h131l-127 -139h-184z" />
    <glyph glyph-name="Scedilla" unicode="&#x15e;" horiz-adv-x="651" 
d="M276 -10q-70 0 -130.5 19.5t-97 61t-36.5 106.5q0 16 1 29.5t5 27.5h194q-2 -5 -3 -10.5t-1 -11.5q0 -16 9 -30t29 -22.5t52 -8.5q42 0 63.5 7t28.5 18t7 23q0 18 -18 29.5t-47.5 19.5t-65 17t-70.5 22.5t-64.5 34.5t-47.5 53t-18 79q0 79 39.5 132.5t110 81.5t164.5 28
q71 0 130 -19t94.5 -58.5t35.5 -101.5q0 -8 -0.5 -18t-3.5 -25h-192q1 5 1 8v7q0 26 -21 40.5t-59 14.5q-30 0 -49.5 -6t-28.5 -16.5t-9 -24.5q0 -19 18 -31t48 -20.5t66 -17t71.5 -21.5t65.5 -33.5t48 -52.5t18 -80q0 -51 -21 -96.5t-63 -80.5t-105.5 -54.5t-147.5 -19.5z
M249 -212q-32 0 -62 9.5t-50 26.5l41 61q15 -11 32.5 -20.5t46.5 -9.5q11 0 19.5 3.5t13.5 10t5 16.5q0 9 -6 13t-16 4h-24l10 66h38q38 0 67 -16t29 -54t-21.5 -62.5t-54.5 -36t-68 -11.5z" />
    <glyph glyph-name="Scircumflex" unicode="&#x15c;" horiz-adv-x="651" 
d="M276 -10q-70 0 -130.5 19.5t-97 61t-36.5 106.5q0 16 1 29.5t5 27.5h194q-2 -5 -3 -10.5t-1 -11.5q0 -16 9 -30t29 -22.5t52 -8.5q42 0 63.5 7t28.5 18t7 23q0 18 -18 29.5t-47.5 19.5t-65 17t-70.5 22.5t-64.5 34.5t-47.5 53t-18 79q0 79 39.5 132.5t110 81.5t164.5 28
q71 0 130 -19t94.5 -58.5t35.5 -101.5q0 -8 -0.5 -18t-3.5 -25h-192q1 5 1 8v7q0 26 -21 40.5t-59 14.5q-30 0 -49.5 -6t-28.5 -16.5t-9 -24.5q0 -19 18 -31t48 -20.5t66 -17t71.5 -21.5t65.5 -33.5t48 -52.5t18 -80q0 -51 -21 -96.5t-63 -80.5t-105.5 -54.5t-147.5 -19.5z
M168 746l125 139h184l93 -139h-131l-71 105h32l-101 -105h-131z" />
    <glyph glyph-name="uni0218" unicode="&#x218;" horiz-adv-x="651" 
d="M276 -10q-70 0 -130.5 19.5t-97 61t-36.5 106.5q0 16 1 29.5t5 27.5h194q-2 -5 -3 -10.5t-1 -11.5q0 -16 9 -30t29 -22.5t52 -8.5q42 0 63.5 7t28.5 18t7 23q0 18 -18 29.5t-47.5 19.5t-65 17t-70.5 22.5t-64.5 34.5t-47.5 53t-18 79q0 79 39.5 132.5t110 81.5t164.5 28
q71 0 130 -19t94.5 -58.5t35.5 -101.5q0 -8 -0.5 -18t-3.5 -25h-192q1 5 1 8v7q0 26 -21 40.5t-59 14.5q-30 0 -49.5 -6t-28.5 -16.5t-9 -24.5q0 -19 18 -31t48 -20.5t66 -17t71.5 -21.5t65.5 -33.5t48 -52.5t18 -80q0 -51 -21 -96.5t-63 -80.5t-105.5 -54.5t-147.5 -19.5z
M155 -413l3 20q40 35 62.5 73t27.5 78h-73l24 165h159l-20 -139q-7 -56 -32.5 -107t-68.5 -90h-82z" />
    <glyph glyph-name="uni1E62" unicode="&#x1e62;" horiz-adv-x="651" 
d="M276 -10q-70 0 -130.5 19.5t-97 61t-36.5 106.5q0 16 1 29.5t5 27.5h194q-2 -5 -3 -10.5t-1 -11.5q0 -16 9 -30t29 -22.5t52 -8.5q42 0 63.5 7t28.5 18t7 23q0 18 -18 29.5t-47.5 19.5t-65 17t-70.5 22.5t-64.5 34.5t-47.5 53t-18 79q0 79 39.5 132.5t110 81.5t164.5 28
q71 0 130 -19t94.5 -58.5t35.5 -101.5q0 -8 -0.5 -18t-3.5 -25h-192q1 5 1 8v7q0 26 -21 40.5t-59 14.5q-30 0 -49.5 -6t-28.5 -16.5t-9 -24.5q0 -19 18 -31t48 -20.5t66 -17t71.5 -21.5t65.5 -33.5t48 -52.5t18 -80q0 -51 -21 -96.5t-63 -80.5t-105.5 -54.5t-147.5 -19.5z
M179 -225l20 147h152l-20 -147h-152z" />
    <glyph glyph-name="uni1E9E" unicode="&#x1e9e;" horiz-adv-x="817" 
d="M500 -10q-109 0 -159 43t-50 127q0 12 1 24t3 25h176q-1 -5 -1 -10v-10q0 -24 9.5 -37t37.5 -13q38 0 50.5 27.5t12.5 64.5q0 30 -17.5 44t-43.5 14h-124l18 123h108q19 0 35.5 7.5t27.5 23.5t11 41q0 38 -39 50.5t-96 12.5q-47 0 -81.5 -11t-55.5 -39.5t-29 -80.5
l-58 -416h-225l51 356q18 126 75.5 200.5t146 107t198.5 32.5q89 0 160 -21.5t112 -62t41 -98.5q0 -38 -16 -68t-42 -51t-56 -33v-4q40 -14 68.5 -50t28.5 -89q0 -72 -35.5 -123.5t-98.5 -78.5t-144 -27z" />
    <glyph glyph-name="T" unicode="T" horiz-adv-x="585" 
d="M145 0l74 521h-172l23 165h556l-23 -165h-174l-73 -521h-211z" />
    <glyph glyph-name="Tbar" unicode="&#x166;" horiz-adv-x="585" 
d="M145 0l74 521h-172l23 165h556l-23 -165h-174l-73 -521h-211zM82 271l18 126h414l-18 -126h-414z" />
    <glyph glyph-name="Tcaron" unicode="&#x164;" horiz-adv-x="585" 
d="M145 0l74 521h-172l23 165h556l-23 -165h-174l-73 -521h-211zM259 746l-91 139h131l71 -105h-32l101 105h131l-127 -139h-184z" />
    <glyph glyph-name="uni0162" unicode="&#x162;" horiz-adv-x="585" 
d="M145 0l74 521h-172l23 165h556l-23 -165h-174l-73 -521h-211zM213 -212q-32 0 -62 9.5t-50 26.5l41 61q15 -11 32.5 -20.5t46.5 -9.5q11 0 19.5 3.5t13.5 10t5 16.5q0 9 -6 13t-16 4h-24l10 66h38q38 0 67 -16t29 -54t-21.5 -62.5t-54.5 -36t-68 -11.5z" />
    <glyph glyph-name="uni021A" unicode="&#x21a;" horiz-adv-x="585" 
d="M145 0l74 521h-172l23 165h556l-23 -165h-174l-73 -521h-211zM119 -413l3 20q40 35 62.5 73t27.5 78h-73l24 165h159l-20 -139q-7 -56 -32.5 -107t-68.5 -90h-82z" />
    <glyph glyph-name="uni1E6C" unicode="&#x1e6c;" horiz-adv-x="585" 
d="M145 0l74 521h-172l23 165h556l-23 -165h-174l-73 -521h-211zM143 -225l20 147h152l-20 -147h-152z" />
    <glyph glyph-name="U" unicode="U" horiz-adv-x="687" 
d="M280 -10q-112 0 -173.5 53t-61.5 138q0 13 1 27.5t2.5 34t5 46t8 62.5t11 84t15 110t19.5 141h211q-15 -112 -25.5 -190.5t-17.5 -130t-11 -83.5t-5.5 -50t-1.5 -29q0 -30 18 -43.5t49 -13.5q41 0 64 21t27 54l65 465h210l-65 -468q-9 -69 -46 -120t-101 -79.5
t-155 -28.5h-43z" />
    <glyph glyph-name="Uacute" unicode="&#xda;" horiz-adv-x="687" 
d="M280 -10q-112 0 -173.5 53t-61.5 138q0 13 1 27.5t2.5 34t5 46t8 62.5t11 84t15 110t19.5 141h211q-15 -112 -25.5 -190.5t-17.5 -130t-11 -83.5t-5.5 -50t-1.5 -29q0 -30 18 -43.5t49 -13.5q41 0 64 21t27 54l65 465h210l-65 -468q-9 -69 -46 -120t-101 -79.5
t-155 -28.5h-43zM330 742l108 145h174l2 -3l-143 -142h-141z" />
    <glyph glyph-name="uni0244" unicode="&#x244;" horiz-adv-x="687" 
d="M26 451h682l-18 -126h-682zM280 -10q-112 0 -173.5 53t-61.5 138q0 13 1 27.5t2.5 34t5 46t8 62.5t11 84t15 110t19.5 141h211q-15 -112 -25.5 -190.5t-17.5 -130t-11 -83.5t-5.5 -50t-1.5 -29q0 -30 18 -43.5t49 -13.5q41 0 64 21t27 54l65 465h210l-65 -468
q-9 -69 -46 -120t-101 -79.5t-155 -28.5h-43z" />
    <glyph glyph-name="Ubreve" unicode="&#x16c;" horiz-adv-x="687" 
d="M280 -10q-112 0 -173.5 53t-61.5 138q0 13 1 27.5t2.5 34t5 46t8 62.5t11 84t15 110t19.5 141h211q-15 -112 -25.5 -190.5t-17.5 -130t-11 -83.5t-5.5 -50t-1.5 -29q0 -30 18 -43.5t49 -13.5q41 0 64 21t27 54l65 465h210l-65 -468q-9 -69 -46 -120t-101 -79.5
t-155 -28.5h-43zM405 736q-94 0 -134.5 40.5t-31.5 106.5h101q0 -24 17.5 -37.5t57.5 -13.5t61.5 13.5t28.5 37.5h100q-9 -66 -60.5 -106.5t-139.5 -40.5z" />
    <glyph glyph-name="uni01D3" unicode="&#x1d3;" horiz-adv-x="687" 
d="M280 -10q-112 0 -173.5 53t-61.5 138q0 13 1 27.5t2.5 34t5 46t8 62.5t11 84t15 110t19.5 141h211q-15 -112 -25.5 -190.5t-17.5 -130t-11 -83.5t-5.5 -50t-1.5 -29q0 -30 18 -43.5t49 -13.5q41 0 64 21t27 54l65 465h210l-65 -468q-9 -69 -46 -120t-101 -79.5
t-155 -28.5h-43zM313 746l-91 139h131l71 -105h-32l101 105h131l-127 -139h-184z" />
    <glyph glyph-name="Ucircumflex" unicode="&#xdb;" horiz-adv-x="687" 
d="M280 -10q-112 0 -173.5 53t-61.5 138q0 13 1 27.5t2.5 34t5 46t8 62.5t11 84t15 110t19.5 141h211q-15 -112 -25.5 -190.5t-17.5 -130t-11 -83.5t-5.5 -50t-1.5 -29q0 -30 18 -43.5t49 -13.5q41 0 64 21t27 54l65 465h210l-65 -468q-9 -69 -46 -120t-101 -79.5
t-155 -28.5h-43zM202 746l125 139h184l93 -139h-131l-71 105h32l-101 -105h-131z" />
    <glyph glyph-name="uni0214" unicode="&#x214;" horiz-adv-x="687" 
d="M280 -10q-112 0 -173.5 53t-61.5 138q0 13 1 27.5t2.5 34t5 46t8 62.5t11 84t15 110t19.5 141h211q-15 -112 -25.5 -190.5t-17.5 -130t-11 -83.5t-5.5 -50t-1.5 -29q0 -30 18 -43.5t49 -13.5q41 0 64 21t27 54l65 465h210l-65 -468q-9 -69 -46 -120t-101 -79.5
t-155 -28.5h-43zM464 753l-106 142l7 3h146l71 -145h-118zM242 753l-106 142l2 3h151l71 -145h-118z" />
    <glyph glyph-name="Udieresis" unicode="&#xdc;" horiz-adv-x="687" 
d="M280 -10q-112 0 -173.5 53t-61.5 138q0 13 1 27.5t2.5 34t5 46t8 62.5t11 84t15 110t19.5 141h211q-15 -112 -25.5 -190.5t-17.5 -130t-11 -83.5t-5.5 -50t-1.5 -29q0 -30 18 -43.5t49 -13.5q41 0 64 21t27 54l65 465h210l-65 -468q-9 -69 -46 -120t-101 -79.5
t-155 -28.5h-43zM204 745l20 140h144l-20 -140h-144zM458 745l20 140h144l-20 -140h-144z" />
    <glyph glyph-name="uni01D7" unicode="&#x1d7;" horiz-adv-x="687" 
d="M280 -10q-112 0 -173.5 53t-61.5 138q0 13 1 27.5t2.5 34t5 46t8 62.5t11 84t15 110t19.5 141h211q-15 -112 -25.5 -190.5t-17.5 -130t-11 -83.5t-5.5 -50t-1.5 -29q0 -30 18 -43.5t49 -13.5q41 0 64 21t27 54l65 465h210l-65 -468q-9 -69 -46 -120t-101 -79.5
t-155 -28.5h-43zM372 945l102 133h151l1 -3l-136 -130h-118zM221 755l20 140h144l-20 -140h-144zM441 755l20 140h144l-20 -140h-144z" />
    <glyph glyph-name="uni01D9" unicode="&#x1d9;" horiz-adv-x="687" 
d="M280 -10q-112 0 -173.5 53t-61.5 138q0 13 1 27.5t2.5 34t5 46t8 62.5t11 84t15 110t19.5 141h211q-15 -112 -25.5 -190.5t-17.5 -130t-11 -83.5t-5.5 -50t-1.5 -29q0 -30 18 -43.5t49 -13.5q41 0 64 21t27 54l65 465h210l-65 -468q-9 -69 -46 -120t-101 -79.5
t-155 -28.5h-43zM367 945l-122 125h130l66 -57l82 57h128l-156 -125h-128zM222 755l20 140h144l-20 -140h-144zM442 755l20 140h144l-20 -140h-144z" />
    <glyph glyph-name="uni01DB" unicode="&#x1db;" horiz-adv-x="687" 
d="M280 -10q-112 0 -173.5 53t-61.5 138q0 13 1 27.5t2.5 34t5 46t8 62.5t11 84t15 110t19.5 141h211q-15 -112 -25.5 -190.5t-17.5 -130t-11 -83.5t-5.5 -50t-1.5 -29q0 -30 18 -43.5t49 -13.5q41 0 64 21t27 54l65 465h210l-65 -468q-9 -69 -46 -120t-101 -79.5
t-155 -28.5h-43zM371 945l-100 130l3 3h151l64 -133h-118zM222 755l20 140h144l-20 -140h-144zM442 755l20 140h144l-20 -140h-144z" />
    <glyph glyph-name="uni01D5" unicode="&#x1d5;" horiz-adv-x="687" 
d="M280 -10q-112 0 -173.5 53t-61.5 138q0 13 1 27.5t2.5 34t5 46t8 62.5t11 84t15 110t19.5 141h211q-15 -112 -25.5 -190.5t-17.5 -130t-11 -83.5t-5.5 -50t-1.5 -29q0 -30 18 -43.5t49 -13.5q41 0 64 21t27 54l65 465h210l-65 -468q-9 -69 -46 -120t-101 -79.5
t-155 -28.5h-43zM248 945l15 104h364l-15 -104h-364zM221 755l20 140h144l-20 -140h-144zM441 755l20 140h144l-20 -140h-144z" />
    <glyph glyph-name="uni1EE4" unicode="&#x1ee4;" horiz-adv-x="687" 
d="M280 -10q-112 0 -173.5 53t-61.5 138q0 13 1 27.5t2.5 34t5 46t8 62.5t11 84t15 110t19.5 141h211q-15 -112 -25.5 -190.5t-17.5 -130t-11 -83.5t-5.5 -50t-1.5 -29q0 -30 18 -43.5t49 -13.5q41 0 64 21t27 54l65 465h210l-65 -468q-9 -69 -46 -120t-101 -79.5
t-155 -28.5h-43zM197 -225l20 147h152l-20 -147h-152z" />
    <glyph glyph-name="Ugrave" unicode="&#xd9;" horiz-adv-x="687" 
d="M280 -10q-112 0 -173.5 53t-61.5 138q0 13 1 27.5t2.5 34t5 46t8 62.5t11 84t15 110t19.5 141h211q-15 -112 -25.5 -190.5t-17.5 -130t-11 -83.5t-5.5 -50t-1.5 -29q0 -30 18 -43.5t49 -13.5q41 0 64 21t27 54l65 465h210l-65 -468q-9 -69 -46 -120t-101 -79.5
t-155 -28.5h-43zM343 742l-106 142l2 3h166l71 -145h-133z" />
    <glyph glyph-name="uni1EE6" unicode="&#x1ee6;" horiz-adv-x="687" 
d="M280 -10q-112 0 -173.5 53t-61.5 138q0 13 1 27.5t2.5 34t5 46t8 62.5t11 84t15 110t19.5 141h211q-15 -112 -25.5 -190.5t-17.5 -130t-11 -83.5t-5.5 -50t-1.5 -29q0 -30 18 -43.5t49 -13.5q41 0 64 21t27 54l65 465h210l-65 -468q-9 -69 -46 -120t-101 -79.5
t-155 -28.5h-43zM374 729l11 81q28 3 44.5 14.5t19.5 33.5q2 16 -9 26t-34 10q-14 0 -32.5 -2.5t-41.5 -10.5l16 110q21 5 40.5 7t38.5 2q57 0 93.5 -27t36.5 -77q0 -48 -27 -85t-69 -58.5t-87 -23.5z" />
    <glyph glyph-name="Uhorn" unicode="&#x1af;" horiz-adv-x="687" 
d="M280 -10q-112 0 -173.5 53t-61.5 138q0 13 1 27.5t2.5 34t5 46t8 62.5t11 84t15 110t19.5 141h211q-15 -112 -25.5 -190.5t-17.5 -130t-11 -83.5t-5.5 -50t-1.5 -29q0 -30 18 -43.5t49 -13.5q41 0 64 21t27 54l65 465h210l-65 -468q-9 -69 -46 -120t-101 -79.5
t-155 -28.5h-43zM559 588l14 98q50 8 70 41.5t29 97.5h164q-8 -60 -47.5 -112t-99.5 -86t-130 -39z" />
    <glyph glyph-name="uni1EE8" unicode="&#x1ee8;" horiz-adv-x="687" 
d="M280 -10q-112 0 -173.5 53t-61.5 138q0 13 1 27.5t2.5 34t5 46t8 62.5t11 84t15 110t19.5 141h211q-15 -112 -25.5 -190.5t-17.5 -130t-11 -83.5t-5.5 -50t-1.5 -29q0 -30 18 -43.5t49 -13.5q41 0 64 21t27 54l65 465h210l-65 -468q-9 -69 -46 -120t-101 -79.5
t-155 -28.5h-43zM559 588l14 98q50 8 70 41.5t29 97.5h164q-8 -60 -47.5 -112t-99.5 -86t-130 -39zM330 742l108 145h174l2 -3l-143 -142h-141z" />
    <glyph glyph-name="uni1EF0" unicode="&#x1ef0;" horiz-adv-x="687" 
d="M280 -10q-112 0 -173.5 53t-61.5 138q0 13 1 27.5t2.5 34t5 46t8 62.5t11 84t15 110t19.5 141h211q-15 -112 -25.5 -190.5t-17.5 -130t-11 -83.5t-5.5 -50t-1.5 -29q0 -30 18 -43.5t49 -13.5q41 0 64 21t27 54l65 465h210l-65 -468q-9 -69 -46 -120t-101 -79.5
t-155 -28.5h-43zM559 588l14 98q50 8 70 41.5t29 97.5h164q-8 -60 -47.5 -112t-99.5 -86t-130 -39zM197 -225l20 147h152l-20 -147h-152z" />
    <glyph glyph-name="uni1EEA" unicode="&#x1eea;" horiz-adv-x="687" 
d="M280 -10q-112 0 -173.5 53t-61.5 138q0 13 1 27.5t2.5 34t5 46t8 62.5t11 84t15 110t19.5 141h211q-15 -112 -25.5 -190.5t-17.5 -130t-11 -83.5t-5.5 -50t-1.5 -29q0 -30 18 -43.5t49 -13.5q41 0 64 21t27 54l65 465h210l-65 -468q-9 -69 -46 -120t-101 -79.5
t-155 -28.5h-43zM559 588l14 98q50 8 70 41.5t29 97.5h164q-8 -60 -47.5 -112t-99.5 -86t-130 -39zM343 742l-106 142l2 3h166l71 -145h-133z" />
    <glyph glyph-name="uni1EEC" unicode="&#x1eec;" horiz-adv-x="687" 
d="M280 -10q-112 0 -173.5 53t-61.5 138q0 13 1 27.5t2.5 34t5 46t8 62.5t11 84t15 110t19.5 141h211q-15 -112 -25.5 -190.5t-17.5 -130t-11 -83.5t-5.5 -50t-1.5 -29q0 -30 18 -43.5t49 -13.5q41 0 64 21t27 54l65 465h210l-65 -468q-9 -69 -46 -120t-101 -79.5
t-155 -28.5h-43zM559 588l14 98q50 8 70 41.5t29 97.5h164q-8 -60 -47.5 -112t-99.5 -86t-130 -39zM374 729l11 81q28 3 44.5 14.5t19.5 33.5q2 16 -9 26t-34 10q-14 0 -32.5 -2.5t-41.5 -10.5l16 110q21 5 40.5 7t38.5 2q57 0 93.5 -27t36.5 -77q0 -48 -27 -85t-69 -58.5
t-87 -23.5z" />
    <glyph glyph-name="uni1EEE" unicode="&#x1eee;" horiz-adv-x="687" 
d="M280 -10q-112 0 -173.5 53t-61.5 138q0 13 1 27.5t2.5 34t5 46t8 62.5t11 84t15 110t19.5 141h211q-15 -112 -25.5 -190.5t-17.5 -130t-11 -83.5t-5.5 -50t-1.5 -29q0 -30 18 -43.5t49 -13.5q41 0 64 21t27 54l65 465h210l-65 -468q-9 -69 -46 -120t-101 -79.5
t-155 -28.5h-43zM559 588l14 98q50 8 70 41.5t29 97.5h164q-8 -60 -47.5 -112t-99.5 -86t-130 -39zM195 739q10 52 30 86t49 51t66 17q34 0 61.5 -10.5t51 -21t44.5 -10.5q20 0 33 11.5t20 29.5h81q-10 -51 -30 -85.5t-49 -51.5t-66 -17q-34 0 -61.5 10.5t-50.5 21t-45 10.5
q-19 0 -32 -11.5t-21 -29.5h-81z" />
    <glyph glyph-name="Uhungarumlaut" unicode="&#x170;" horiz-adv-x="687" 
d="M280 -10q-112 0 -173.5 53t-61.5 138q0 13 1 27.5t2.5 34t5 46t8 62.5t11 84t15 110t19.5 141h211q-15 -112 -25.5 -190.5t-17.5 -130t-11 -83.5t-5.5 -50t-1.5 -29q0 -30 18 -43.5t49 -13.5q41 0 64 21t27 54l65 465h210l-65 -468q-9 -69 -46 -120t-101 -79.5
t-155 -28.5h-43zM429 743l108 145h159l2 -3l-143 -142h-126zM208 743l108 145h154l7 -3l-143 -142h-126z" />
    <glyph glyph-name="uni0216" unicode="&#x216;" horiz-adv-x="687" 
d="M280 -10q-112 0 -173.5 53t-61.5 138q0 13 1 27.5t2.5 34t5 46t8 62.5t11 84t15 110t19.5 141h211q-15 -112 -25.5 -190.5t-17.5 -130t-11 -83.5t-5.5 -50t-1.5 -29q0 -30 18 -43.5t49 -13.5q41 0 64 21t27 54l65 465h210l-65 -468q-9 -69 -46 -120t-101 -79.5
t-155 -28.5h-43zM211 751q6 44 31 77t68.5 51.5t104.5 18.5q66 0 108 -18.5t60.5 -51.5t12.5 -77h-101q-1 24 -20.5 37.5t-63.5 13.5t-68 -13.5t-32 -37.5h-100z" />
    <glyph glyph-name="Umacron" unicode="&#x16a;" horiz-adv-x="687" 
d="M280 -10q-112 0 -173.5 53t-61.5 138q0 13 1 27.5t2.5 34t5 46t8 62.5t11 84t15 110t19.5 141h211q-15 -112 -25.5 -190.5t-17.5 -130t-11 -83.5t-5.5 -50t-1.5 -29q0 -30 18 -43.5t49 -13.5q41 0 64 21t27 54l65 465h210l-65 -468q-9 -69 -46 -120t-101 -79.5
t-155 -28.5h-43zM232 765l14 100h348l-14 -100h-348z" />
    <glyph glyph-name="Uogonek" unicode="&#x172;" horiz-adv-x="687" 
d="M280 -10q-112 0 -173.5 53t-61.5 138q0 13 1 27.5t2.5 34t5 46t8 62.5t11 84t15 110t19.5 141h211q-15 -112 -25.5 -190.5t-17.5 -130t-11 -83.5t-5.5 -50t-1.5 -29q0 -30 18 -43.5t49 -13.5q41 0 64 21t27 54l65 465h210l-65 -468q-9 -69 -46 -120t-101 -79.5
t-155 -28.5h-43zM345 -150q-40 0 -68 16t-28 51q0 29 15.5 49.5t35.5 33.5h118q-21 -12 -35.5 -24.5t-14.5 -32.5q0 -13 9 -18.5t22 -5.5t28.5 4t29.5 9l7 -51q-25 -14 -57 -22.5t-62 -8.5z" />
    <glyph glyph-name="Uring" unicode="&#x16e;" horiz-adv-x="687" 
d="M280 -10q-112 0 -173.5 53t-61.5 138q0 13 1 27.5t2.5 34t5 46t8 62.5t11 84t15 110t19.5 141h211q-15 -112 -25.5 -190.5t-17.5 -130t-11 -83.5t-5.5 -50t-1.5 -29q0 -30 18 -43.5t49 -13.5q41 0 64 21t27 54l65 465h210l-65 -468q-9 -69 -46 -120t-101 -79.5
t-155 -28.5h-43zM400 721q-43 0 -70 23.5t-27 64.5q0 37 17 64.5t46 43t64 15.5q43 0 70 -24t27 -65q0 -36 -17 -63.5t-46 -43t-64 -15.5zM410 791q17 0 28.5 12.5t11.5 28.5q0 13 -8.5 21t-21.5 8q-16 0 -28 -12t-12 -29q0 -13 8.5 -21t21.5 -8z" />
    <glyph glyph-name="Utilde" unicode="&#x168;" horiz-adv-x="687" 
d="M280 -10q-112 0 -173.5 53t-61.5 138q0 13 1 27.5t2.5 34t5 46t8 62.5t11 84t15 110t19.5 141h211q-15 -112 -25.5 -190.5t-17.5 -130t-11 -83.5t-5.5 -50t-1.5 -29q0 -30 18 -43.5t49 -13.5q41 0 64 21t27 54l65 465h210l-65 -468q-9 -69 -46 -120t-101 -79.5
t-155 -28.5h-43zM195 739q10 52 30 86t49 51t66 17q34 0 61.5 -10.5t51 -21t44.5 -10.5q20 0 33 11.5t20 29.5h81q-10 -51 -30 -85.5t-49 -51.5t-66 -17q-34 0 -61.5 10.5t-50.5 21t-45 10.5q-19 0 -32 -11.5t-21 -29.5h-81z" />
    <glyph glyph-name="V" unicode="V" horiz-adv-x="655" 
d="M159 0l-108 686h218l60 -426h4l179 426h202l-305 -686h-250z" />
    <glyph glyph-name="W" unicode="W" horiz-adv-x="1022" 
d="M143 0l-90 686h217l43 -381h4l152 381h215l42 -381h4l151 381h197l-283 -686h-238l-36 329h-6l-130 -329h-242z" />
    <glyph glyph-name="Wacute" unicode="&#x1e82;" horiz-adv-x="1022" 
d="M143 0l-90 686h217l43 -381h4l152 381h215l42 -381h4l151 381h197l-283 -686h-238l-36 329h-6l-130 -329h-242zM503 742l108 145h174l2 -3l-143 -142h-141z" />
    <glyph glyph-name="Wcircumflex" unicode="&#x174;" horiz-adv-x="1022" 
d="M143 0l-90 686h217l43 -381h4l152 381h215l42 -381h4l151 381h197l-283 -686h-238l-36 329h-6l-130 -329h-242zM375 746l125 139h184l93 -139h-131l-71 105h32l-101 -105h-131z" />
    <glyph glyph-name="Wdieresis" unicode="&#x1e84;" horiz-adv-x="1022" 
d="M143 0l-90 686h217l43 -381h4l152 381h215l42 -381h4l151 381h197l-283 -686h-238l-36 329h-6l-130 -329h-242zM377 745l20 140h144l-20 -140h-144zM631 745l20 140h144l-20 -140h-144z" />
    <glyph glyph-name="Wgrave" unicode="&#x1e80;" horiz-adv-x="1022" 
d="M143 0l-90 686h217l43 -381h4l152 381h215l42 -381h4l151 381h197l-283 -686h-238l-36 329h-6l-130 -329h-242zM516 742l-106 142l2 3h166l71 -145h-133z" />
    <glyph glyph-name="X" unicode="X" horiz-adv-x="672" 
d="M-56 0l265 363l-147 323h243l70 -175h4l120 175h225l-240 -324l164 -362h-244l-86 213h-4l-145 -213h-225z" />
    <glyph glyph-name="Y" unicode="Y" horiz-adv-x="644" 
d="M175 0l37 262l-168 424h236l71 -225h5l137 225h215l-287 -424l-37 -262h-209z" />
    <glyph glyph-name="Yacute" unicode="&#xdd;" horiz-adv-x="644" 
d="M175 0l37 262l-168 424h236l71 -225h5l137 225h215l-287 -424l-37 -262h-209zM313 742l108 145h174l2 -3l-143 -142h-141z" />
    <glyph glyph-name="Ycircumflex" unicode="&#x176;" horiz-adv-x="644" 
d="M175 0l37 262l-168 424h236l71 -225h5l137 225h215l-287 -424l-37 -262h-209zM185 746l125 139h184l93 -139h-131l-71 105h32l-101 -105h-131z" />
    <glyph glyph-name="Ydieresis" unicode="&#x178;" horiz-adv-x="644" 
d="M175 0l37 262l-168 424h236l71 -225h5l137 225h215l-287 -424l-37 -262h-209zM187 745l20 140h144l-20 -140h-144zM441 745l20 140h144l-20 -140h-144z" />
    <glyph glyph-name="uni1EF4" unicode="&#x1ef4;" horiz-adv-x="644" 
d="M175 0l37 262l-168 424h236l71 -225h5l137 225h215l-287 -424l-37 -262h-209zM172 -225l20 147h152l-20 -147h-152z" />
    <glyph glyph-name="Ygrave" unicode="&#x1ef2;" horiz-adv-x="644" 
d="M175 0l37 262l-168 424h236l71 -225h5l137 225h215l-287 -424l-37 -262h-209zM326 742l-106 142l2 3h166l71 -145h-133z" />
    <glyph glyph-name="uni1EF6" unicode="&#x1ef6;" horiz-adv-x="644" 
d="M175 0l37 262l-168 424h236l71 -225h5l137 225h215l-287 -424l-37 -262h-209zM357 729l11 81q28 3 44.5 14.5t19.5 33.5q2 16 -9 26t-34 10q-14 0 -32.5 -2.5t-41.5 -10.5l16 110q21 5 40.5 7t38.5 2q57 0 93.5 -27t36.5 -77q0 -48 -27 -85t-69 -58.5t-87 -23.5z" />
    <glyph glyph-name="uni0232" unicode="&#x232;" horiz-adv-x="644" 
d="M175 0l37 262l-168 424h236l71 -225h5l137 225h215l-287 -424l-37 -262h-209zM215 765l14 100h348l-14 -100h-348z" />
    <glyph glyph-name="uni1EF8" unicode="&#x1ef8;" horiz-adv-x="644" 
d="M175 0l37 262l-168 424h236l71 -225h5l137 225h215l-287 -424l-37 -262h-209zM178 739q10 52 30 86t49 51t66 17q34 0 61.5 -10.5t51 -21t44.5 -10.5q20 0 33 11.5t20 29.5h81q-10 -51 -30 -85.5t-49 -51.5t-66 -17q-34 0 -61.5 10.5t-50.5 21t-45 10.5q-19 0 -32 -11.5
t-21 -29.5h-81z" />
    <glyph glyph-name="Z" unicode="Z" horiz-adv-x="607" 
d="M-27 0l9 61l333 465h-245l23 160h539l-9 -61l-329 -464h272l-23 -161h-570z" />
    <glyph glyph-name="Zacute" unicode="&#x179;" horiz-adv-x="607" 
d="M-27 0l9 61l333 465h-245l23 160h539l-9 -61l-329 -464h272l-23 -161h-570zM271 742l108 145h174l2 -3l-143 -142h-141z" />
    <glyph glyph-name="Zcaron" unicode="&#x17d;" horiz-adv-x="607" 
d="M-27 0l9 61l333 465h-245l23 160h539l-9 -61l-329 -464h272l-23 -161h-570zM254 746l-91 139h131l71 -105h-32l101 105h131l-127 -139h-184z" />
    <glyph glyph-name="Zdotaccent" unicode="&#x17b;" horiz-adv-x="607" 
d="M-27 0l9 61l333 465h-245l23 160h539l-9 -61l-329 -464h272l-23 -161h-570zM271 740l20 140h144l-20 -140h-144z" />
    <glyph glyph-name="Cacute.loclPLK" horiz-adv-x="684" 
d="M307 -10q-80 0 -143 31t-99 89t-36 138q0 18 5 57.5t12 88.5q9 62 35.5 116.5t69 95.5t101 64.5t133.5 23.5h28q74 0 134 -26t96 -78t36 -130q0 -14 -1 -27.5t-3 -27.5h-197q4 21 5 32t1 20q0 26 -11 44t-32 27.5t-50 9.5q-31 0 -55 -11.5t-39 -34t-20 -54.5
q-9 -61 -14 -99t-8 -59t-4 -32t-1 -18q0 -24 10 -43t29.5 -30t47.5 -11q42 0 68.5 13t41.5 42.5t23 78.5h188q-13 -90 -55 -155t-109.5 -100t-157.5 -35h-29zM356 751l51 145h151l2 -3l-86 -142h-118z" />
    <glyph glyph-name="Nacute.loclPLK" horiz-adv-x="696" 
d="M16 0l97 686h176l140 -255l26 -56l3 1l43 310h194l-97 -686h-180l-136 246l-27 58h-4l-42 -304h-193zM355 751l51 145h151l2 -3l-86 -142h-118z" />
    <glyph glyph-name="Oacute.loclPLK" horiz-adv-x="719" 
d="M289 -10q-76 0 -134.5 34t-92 92.5t-33.5 131.5q0 18 5 57.5t12 88.5q9 62 37.5 116.5t73 95.5t103 64.5t128.5 23.5h56q76 0 134.5 -34t92 -92.5t33.5 -131.5q0 -19 -4.5 -58t-12.5 -88q-9 -62 -37.5 -116.5t-73 -95.5t-103 -64.5t-128.5 -23.5h-56zM342 146
q23 0 42.5 6.5t34.5 19.5t24.5 31.5t12.5 42.5q9 61 14 99t8 59t4 32t1 18q0 25 -11.5 44t-32 29.5t-48.5 10.5q-23 0 -42.5 -6.5t-34.5 -19.5t-24.5 -31.5t-12.5 -42.5q-9 -61 -14 -99t-8 -59t-4 -32t-1 -18q0 -25 11.5 -44t32 -29.5t48.5 -10.5zM368 751l51 145h151l2 -3
l-86 -142h-118z" />
    <glyph glyph-name="Sacute.loclPLK" horiz-adv-x="651" 
d="M276 -10q-70 0 -130.5 19.5t-97 61t-36.5 106.5q0 16 1 29.5t5 27.5h194q-2 -5 -3 -10.5t-1 -11.5q0 -16 9 -30t29 -22.5t52 -8.5q42 0 63.5 7t28.5 18t7 23q0 18 -18 29.5t-47.5 19.5t-65 17t-70.5 22.5t-64.5 34.5t-47.5 53t-18 79q0 79 39.5 132.5t110 81.5t164.5 28
q71 0 130 -19t94.5 -58.5t35.5 -101.5q0 -8 -0.5 -18t-3.5 -25h-192q1 5 1 8v7q0 26 -21 40.5t-59 14.5q-30 0 -49.5 -6t-28.5 -16.5t-9 -24.5q0 -19 18 -31t48 -20.5t66 -17t71.5 -21.5t65.5 -33.5t48 -52.5t18 -80q0 -51 -21 -96.5t-63 -80.5t-105.5 -54.5t-147.5 -19.5z
M324 751l51 145h151l2 -3l-86 -142h-118z" />
    <glyph glyph-name="Zacute.loclPLK" horiz-adv-x="607" 
d="M-27 0l9 61l333 465h-245l23 160h539l-9 -61l-329 -464h272l-23 -161h-570zM299 751l51 145h151l2 -3l-86 -142h-118z" />
    <glyph glyph-name="uni026A" unicode="&#x26a;" horiz-adv-x="418" 
d="M-26 0l20 142h100l32 227h-100l20 142h398l-20 -142h-100l-32 -227h100l-20 -142h-398z" />
    <glyph glyph-name="Ismallstroke" unicode="&#x1d7b;" horiz-adv-x="296" 
d="M4 326h300l-18 -128h-300zM9 0l71 511h197l-71 -511h-197z" />
    <glyph glyph-name="a" unicode="a" horiz-adv-x="628" 
d="M188 -10q-62 0 -99.5 27.5t-54.5 73.5t-17 102q0 61 13.5 119.5t42.5 105.5t74.5 75t109.5 28q40 0 77 -18t59 -53h5l34 61h149q-8 -50 -16 -99.5t-14.5 -95t-11.5 -82.5t-8 -62t-3 -35q0 -11 6 -19t20 -8q10 0 19.5 4t17.5 9l-15 -110q-22 -11 -50.5 -17t-52.5 -6
q-30 0 -58 5.5t-49 22t-29 50.5q-26 -33 -66 -55.5t-83 -22.5zM266 111q22 0 36.5 9.5t23.5 25.5t12 35q11 82 16 116.5t5 40.5q0 29 -17 43.5t-40 14.5q-18 0 -33 -8t-24.5 -23.5t-12.5 -36.5q-10 -67 -14.5 -108t-4.5 -52q0 -26 15 -41.5t38 -15.5z" />
    <glyph glyph-name="aacute" unicode="&#xe1;" horiz-adv-x="628" 
d="M188 -10q-62 0 -99.5 27.5t-54.5 73.5t-17 102q0 61 13.5 119.5t42.5 105.5t74.5 75t109.5 28q40 0 77 -18t59 -53h5l34 61h149q-8 -50 -16 -99.5t-14.5 -95t-11.5 -82.5t-8 -62t-3 -35q0 -11 6 -19t20 -8q10 0 19.5 4t17.5 9l-15 -110q-22 -11 -50.5 -17t-52.5 -6
q-30 0 -58 5.5t-49 22t-29 50.5q-26 -33 -66 -55.5t-83 -22.5zM266 111q22 0 36.5 9.5t23.5 25.5t12 35q11 82 16 116.5t5 40.5q0 29 -17 43.5t-40 14.5q-18 0 -33 -8t-24.5 -23.5t-12.5 -36.5q-10 -67 -14.5 -108t-4.5 -52q0 -26 15 -41.5t38 -15.5zM269 583l117 178h165
l1 -3l-150 -175h-133z" />
    <glyph glyph-name="abreve" unicode="&#x103;" horiz-adv-x="628" 
d="M188 -10q-62 0 -99.5 27.5t-54.5 73.5t-17 102q0 61 13.5 119.5t42.5 105.5t74.5 75t109.5 28q40 0 77 -18t59 -53h5l34 61h149q-8 -50 -16 -99.5t-14.5 -95t-11.5 -82.5t-8 -62t-3 -35q0 -11 6 -19t20 -8q10 0 19.5 4t17.5 9l-15 -110q-22 -11 -50.5 -17t-52.5 -6
q-30 0 -58 5.5t-49 22t-29 50.5q-26 -33 -66 -55.5t-83 -22.5zM266 111q22 0 36.5 9.5t23.5 25.5t12 35q11 82 16 116.5t5 40.5q0 29 -17 43.5t-40 14.5q-18 0 -33 -8t-24.5 -23.5t-12.5 -36.5q-10 -67 -14.5 -108t-4.5 -52q0 -26 15 -41.5t38 -15.5zM343 588q-66 0 -107 21
t-57.5 58.5t-9.5 87.5h101q-1 -34 18.5 -52.5t63.5 -18.5t68.5 18.5t34.5 52.5h100q-7 -50 -34 -87.5t-71.5 -58.5t-106.5 -21z" />
    <glyph glyph-name="uni1EAF" unicode="&#x1eaf;" horiz-adv-x="628" 
d="M188 -10q-62 0 -99.5 27.5t-54.5 73.5t-17 102q0 61 13.5 119.5t42.5 105.5t74.5 75t109.5 28q40 0 77 -18t59 -53h5l34 61h149q-8 -50 -16 -99.5t-14.5 -95t-11.5 -82.5t-8 -62t-3 -35q0 -11 6 -19t20 -8q10 0 19.5 4t17.5 9l-15 -110q-22 -11 -50.5 -17t-52.5 -6
q-30 0 -58 5.5t-49 22t-29 50.5q-26 -33 -66 -55.5t-83 -22.5zM266 111q22 0 36.5 9.5t23.5 25.5t12 35q11 82 16 116.5t5 40.5q0 29 -17 43.5t-40 14.5q-18 0 -33 -8t-24.5 -23.5t-12.5 -36.5q-10 -67 -14.5 -108t-4.5 -52q0 -26 15 -41.5t38 -15.5zM303 755l111 145h151
l2 -3l-146 -142h-118zM345 588q-66 0 -107.5 18.5t-59 51.5t-11.5 77h101q1 -24 21 -37.5t63 -13.5q44 0 68 13.5t32 37.5h100q-6 -44 -31.5 -77t-69.5 -51.5t-106 -18.5z" />
    <glyph glyph-name="uni1EB7" unicode="&#x1eb7;" horiz-adv-x="628" 
d="M188 -10q-62 0 -99.5 27.5t-54.5 73.5t-17 102q0 61 13.5 119.5t42.5 105.5t74.5 75t109.5 28q40 0 77 -18t59 -53h5l34 61h149q-8 -50 -16 -99.5t-14.5 -95t-11.5 -82.5t-8 -62t-3 -35q0 -11 6 -19t20 -8q10 0 19.5 4t17.5 9l-15 -110q-22 -11 -50.5 -17t-52.5 -6
q-30 0 -58 5.5t-49 22t-29 50.5q-26 -33 -66 -55.5t-83 -22.5zM266 111q22 0 36.5 9.5t23.5 25.5t12 35q11 82 16 116.5t5 40.5q0 29 -17 43.5t-40 14.5q-18 0 -33 -8t-24.5 -23.5t-12.5 -36.5q-10 -67 -14.5 -108t-4.5 -52q0 -26 15 -41.5t38 -15.5zM171 -225l20 147h152
l-20 -147h-152zM343 588q-66 0 -107 21t-57.5 58.5t-9.5 87.5h101q-1 -34 18.5 -52.5t63.5 -18.5t68.5 18.5t34.5 52.5h100q-7 -50 -34 -87.5t-71.5 -58.5t-106.5 -21z" />
    <glyph glyph-name="uni1EB1" unicode="&#x1eb1;" horiz-adv-x="628" 
d="M188 -10q-62 0 -99.5 27.5t-54.5 73.5t-17 102q0 61 13.5 119.5t42.5 105.5t74.5 75t109.5 28q40 0 77 -18t59 -53h5l34 61h149q-8 -50 -16 -99.5t-14.5 -95t-11.5 -82.5t-8 -62t-3 -35q0 -11 6 -19t20 -8q10 0 19.5 4t17.5 9l-15 -110q-22 -11 -50.5 -17t-52.5 -6
q-30 0 -58 5.5t-49 22t-29 50.5q-26 -33 -66 -55.5t-83 -22.5zM266 111q22 0 36.5 9.5t23.5 25.5t12 35q11 82 16 116.5t5 40.5q0 29 -17 43.5t-40 14.5q-18 0 -33 -8t-24.5 -23.5t-12.5 -36.5q-10 -67 -14.5 -108t-4.5 -52q0 -26 15 -41.5t38 -15.5zM304 755l-106 142l2 3
h151l71 -145h-118zM345 588q-65 0 -107 18.5t-59.5 51.5t-11.5 77h101q1 -24 21 -37.5t63 -13.5q44 0 68 13.5t32 37.5h100q-6 -44 -31.5 -77t-69.5 -51.5t-106 -18.5z" />
    <glyph glyph-name="uni1EB3" unicode="&#x1eb3;" horiz-adv-x="628" 
d="M188 -10q-62 0 -99.5 27.5t-54.5 73.5t-17 102q0 61 13.5 119.5t42.5 105.5t74.5 75t109.5 28q40 0 77 -18t59 -53h5l34 61h149q-8 -50 -16 -99.5t-14.5 -95t-11.5 -82.5t-8 -62t-3 -35q0 -11 6 -19t20 -8q10 0 19.5 4t17.5 9l-15 -110q-22 -11 -50.5 -17t-52.5 -6
q-30 0 -58 5.5t-49 22t-29 50.5q-26 -33 -66 -55.5t-83 -22.5zM266 111q22 0 36.5 9.5t23.5 25.5t12 35q11 82 16 116.5t5 40.5q0 29 -17 43.5t-40 14.5q-18 0 -33 -8t-24.5 -23.5t-12.5 -36.5q-10 -67 -14.5 -108t-4.5 -52q0 -26 15 -41.5t38 -15.5zM345 755l9 64
q23 3 37 13t14 29q0 12 -9 19t-26 7q-11 0 -25.5 -2.5t-32.5 -8.5l12 88q17 5 32.5 6t30.5 1q45 0 74.5 -21.5t29.5 -62.5q0 -38 -22.5 -67t-56 -46t-67.5 -19zM345 588q-66 0 -107.5 18.5t-59 51.5t-11.5 77h101q1 -24 21 -37.5t63 -13.5q44 0 68 13.5t32 37.5h100
q-6 -44 -31.5 -77t-69.5 -51.5t-106 -18.5z" />
    <glyph glyph-name="uni1EB5" unicode="&#x1eb5;" horiz-adv-x="628" 
d="M188 -10q-62 0 -99.5 27.5t-54.5 73.5t-17 102q0 61 13.5 119.5t42.5 105.5t74.5 75t109.5 28q40 0 77 -18t59 -53h5l34 61h149q-8 -50 -16 -99.5t-14.5 -95t-11.5 -82.5t-8 -62t-3 -35q0 -11 6 -19t20 -8q10 0 19.5 4t17.5 9l-15 -110q-22 -11 -50.5 -17t-52.5 -6
q-30 0 -58 5.5t-49 22t-29 50.5q-26 -33 -66 -55.5t-83 -22.5zM266 111q22 0 36.5 9.5t23.5 25.5t12 35q11 82 16 116.5t5 40.5q0 29 -17 43.5t-40 14.5q-18 0 -33 -8t-24.5 -23.5t-12.5 -36.5q-10 -67 -14.5 -108t-4.5 -52q0 -26 15 -41.5t38 -15.5zM173 781q6 42 26 73.5
t49.5 48.5t64.5 17q34 0 55.5 -9t40.5 -18t42 -9q17 0 31 10t21 26h74q-5 -42 -25 -73.5t-50 -48.5t-65 -17q-33 0 -55 9t-40.5 18t-42.5 9q-17 0 -31 -10t-21 -26h-74zM344 588q-65 0 -107 18.5t-59.5 51.5t-11.5 77h101q1 -24 21 -37.5t63 -13.5q44 0 68 13.5t32 37.5h100
q-6 -44 -31.5 -77t-69.5 -51.5t-106 -18.5z" />
    <glyph glyph-name="uni01CE" unicode="&#x1ce;" horiz-adv-x="628" 
d="M188 -10q-62 0 -99.5 27.5t-54.5 73.5t-17 102q0 61 13.5 119.5t42.5 105.5t74.5 75t109.5 28q40 0 77 -18t59 -53h5l34 61h149q-8 -50 -16 -99.5t-14.5 -95t-11.5 -82.5t-8 -62t-3 -35q0 -11 6 -19t20 -8q10 0 19.5 4t17.5 9l-15 -110q-22 -11 -50.5 -17t-52.5 -6
q-30 0 -58 5.5t-49 22t-29 50.5q-26 -33 -66 -55.5t-83 -22.5zM266 111q22 0 36.5 9.5t23.5 25.5t12 35q11 82 16 116.5t5 40.5q0 29 -17 43.5t-40 14.5q-18 0 -33 -8t-24.5 -23.5t-12.5 -36.5q-10 -67 -14.5 -108t-4.5 -52q0 -26 15 -41.5t38 -15.5zM575 766l-165 -188
h-148l-113 188h138l92 -160h-80l136 160h140z" />
    <glyph glyph-name="acircumflex" unicode="&#xe2;" horiz-adv-x="628" 
d="M188 -10q-62 0 -99.5 27.5t-54.5 73.5t-17 102q0 61 13.5 119.5t42.5 105.5t74.5 75t109.5 28q40 0 77 -18t59 -53h5l34 61h149q-8 -50 -16 -99.5t-14.5 -95t-11.5 -82.5t-8 -62t-3 -35q0 -11 6 -19t20 -8q10 0 19.5 4t17.5 9l-15 -110q-22 -11 -50.5 -17t-52.5 -6
q-30 0 -58 5.5t-49 22t-29 50.5q-26 -33 -66 -55.5t-83 -22.5zM266 111q22 0 36.5 9.5t23.5 25.5t12 35q11 82 16 116.5t5 40.5q0 29 -17 43.5t-40 14.5q-18 0 -33 -8t-24.5 -23.5t-12.5 -36.5q-10 -67 -14.5 -108t-4.5 -52q0 -26 15 -41.5t38 -15.5zM126 573l165 188h148
l113 -188h-137l-92 160h80l-136 -160h-141z" />
    <glyph glyph-name="uni1EA5" unicode="&#x1ea5;" horiz-adv-x="628" 
d="M188 -10q-62 0 -99.5 27.5t-54.5 73.5t-17 102q0 61 13.5 119.5t42.5 105.5t74.5 75t109.5 28q40 0 77 -18t59 -53h5l34 61h149q-8 -50 -16 -99.5t-14.5 -95t-11.5 -82.5t-8 -62t-3 -35q0 -11 6 -19t20 -8q10 0 19.5 4t17.5 9l-15 -110q-22 -11 -50.5 -17t-52.5 -6
q-30 0 -58 5.5t-49 22t-29 50.5q-26 -33 -66 -55.5t-83 -22.5zM266 111q22 0 36.5 9.5t23.5 25.5t12 35q11 82 16 116.5t5 40.5q0 29 -17 43.5t-40 14.5q-18 0 -33 -8t-24.5 -23.5t-12.5 -36.5q-10 -67 -14.5 -108t-4.5 -52q0 -26 15 -41.5t38 -15.5zM309 786l111 145h151
l2 -3l-146 -142h-118zM137 588l159 148h128l119 -148h-118l-75 65l-93 -65h-120z" />
    <glyph glyph-name="uni1EAD" unicode="&#x1ead;" horiz-adv-x="628" 
d="M188 -10q-62 0 -99.5 27.5t-54.5 73.5t-17 102q0 61 13.5 119.5t42.5 105.5t74.5 75t109.5 28q40 0 77 -18t59 -53h5l34 61h149q-8 -50 -16 -99.5t-14.5 -95t-11.5 -82.5t-8 -62t-3 -35q0 -11 6 -19t20 -8q10 0 19.5 4t17.5 9l-15 -110q-22 -11 -50.5 -17t-52.5 -6
q-30 0 -58 5.5t-49 22t-29 50.5q-26 -33 -66 -55.5t-83 -22.5zM266 111q22 0 36.5 9.5t23.5 25.5t12 35q11 82 16 116.5t5 40.5q0 29 -17 43.5t-40 14.5q-18 0 -33 -8t-24.5 -23.5t-12.5 -36.5q-10 -67 -14.5 -108t-4.5 -52q0 -26 15 -41.5t38 -15.5zM171 -225l20 147h152
l-20 -147h-152zM126 573l165 188h148l113 -188h-137l-92 160h80l-136 -160h-141z" />
    <glyph glyph-name="uni1EA7" unicode="&#x1ea7;" horiz-adv-x="628" 
d="M188 -10q-62 0 -99.5 27.5t-54.5 73.5t-17 102q0 61 13.5 119.5t42.5 105.5t74.5 75t109.5 28q40 0 77 -18t59 -53h5l34 61h149q-8 -50 -16 -99.5t-14.5 -95t-11.5 -82.5t-8 -62t-3 -35q0 -11 6 -19t20 -8q10 0 19.5 4t17.5 9l-15 -110q-22 -11 -50.5 -17t-52.5 -6
q-30 0 -58 5.5t-49 22t-29 50.5q-26 -33 -66 -55.5t-83 -22.5zM266 111q22 0 36.5 9.5t23.5 25.5t12 35q11 82 16 116.5t5 40.5q0 29 -17 43.5t-40 14.5q-18 0 -33 -8t-24.5 -23.5t-12.5 -36.5q-10 -67 -14.5 -108t-4.5 -52q0 -26 15 -41.5t38 -15.5zM311 786l-106 142l2 3
h151l71 -145h-118zM137 588l159 148h128l119 -148h-118l-75 65l-93 -65h-120z" />
    <glyph glyph-name="uni1EA9" unicode="&#x1ea9;" horiz-adv-x="628" 
d="M188 -10q-62 0 -99.5 27.5t-54.5 73.5t-17 102q0 61 13.5 119.5t42.5 105.5t74.5 75t109.5 28q40 0 77 -18t59 -53h5l34 61h149q-8 -50 -16 -99.5t-14.5 -95t-11.5 -82.5t-8 -62t-3 -35q0 -11 6 -19t20 -8q10 0 19.5 4t17.5 9l-15 -110q-22 -11 -50.5 -17t-52.5 -6
q-30 0 -58 5.5t-49 22t-29 50.5q-26 -33 -66 -55.5t-83 -22.5zM266 111q22 0 36.5 9.5t23.5 25.5t12 35q11 82 16 116.5t5 40.5q0 29 -17 43.5t-40 14.5q-18 0 -33 -8t-24.5 -23.5t-12.5 -36.5q-10 -67 -14.5 -108t-4.5 -52q0 -26 15 -41.5t38 -15.5zM343 776l9 64
q23 3 37.5 14t14.5 30q0 13 -8.5 18.5t-26.5 5.5q-11 0 -26 -2.5t-33 -8.5l12 88q17 5 32.5 6t30.5 1q45 0 74.5 -21.5t29.5 -62.5q0 -38 -22.5 -67t-56 -46t-67.5 -19zM137 588l159 148h128l119 -148h-118l-75 65l-93 -65h-120z" />
    <glyph glyph-name="uni1EAB" unicode="&#x1eab;" horiz-adv-x="628" 
d="M188 -10q-62 0 -99.5 27.5t-54.5 73.5t-17 102q0 61 13.5 119.5t42.5 105.5t74.5 75t109.5 28q40 0 77 -18t59 -53h5l34 61h149q-8 -50 -16 -99.5t-14.5 -95t-11.5 -82.5t-8 -62t-3 -35q0 -11 6 -19t20 -8q10 0 19.5 4t17.5 9l-15 -110q-22 -11 -50.5 -17t-52.5 -6
q-30 0 -58 5.5t-49 22t-29 50.5q-26 -33 -66 -55.5t-83 -22.5zM266 111q22 0 36.5 9.5t23.5 25.5t12 35q11 82 16 116.5t5 40.5q0 29 -17 43.5t-40 14.5q-18 0 -33 -8t-24.5 -23.5t-12.5 -36.5q-10 -67 -14.5 -108t-4.5 -52q0 -26 15 -41.5t38 -15.5zM173 776q6 42 26 73.5
t50 48.5t65 17q34 0 55.5 -9t40.5 -18t42 -9q17 0 31 10t21 26h74q-6 -42 -26 -73.5t-50 -48.5t-65 -17q-33 0 -55 9t-40 18t-42 9q-17 0 -31.5 -10t-21.5 -26h-74zM137 588l159 148h128l119 -148h-118l-75 65l-93 -65h-120z" />
    <glyph glyph-name="uni0201" unicode="&#x201;" horiz-adv-x="628" 
d="M188 -10q-62 0 -99.5 27.5t-54.5 73.5t-17 102q0 61 13.5 119.5t42.5 105.5t74.5 75t109.5 28q40 0 77 -18t59 -53h5l34 61h149q-8 -50 -16 -99.5t-14.5 -95t-11.5 -82.5t-8 -62t-3 -35q0 -11 6 -19t20 -8q10 0 19.5 4t17.5 9l-15 -110q-22 -11 -50.5 -17t-52.5 -6
q-30 0 -58 5.5t-49 22t-29 50.5q-26 -33 -66 -55.5t-83 -22.5zM266 111q22 0 36.5 9.5t23.5 25.5t12 35q11 82 16 116.5t5 40.5q0 29 -17 43.5t-40 14.5q-18 0 -33 -8t-24.5 -23.5t-12.5 -36.5q-10 -67 -14.5 -108t-4.5 -52q0 -26 15 -41.5t38 -15.5zM399 590l-106 142l7 3
h151l71 -145h-123zM177 590l-106 142l2 3h156l71 -145h-123z" />
    <glyph glyph-name="adieresis" unicode="&#xe4;" horiz-adv-x="628" 
d="M188 -10q-62 0 -99.5 27.5t-54.5 73.5t-17 102q0 61 13.5 119.5t42.5 105.5t74.5 75t109.5 28q40 0 77 -18t59 -53h5l34 61h149q-8 -50 -16 -99.5t-14.5 -95t-11.5 -82.5t-8 -62t-3 -35q0 -11 6 -19t20 -8q10 0 19.5 4t17.5 9l-15 -110q-22 -11 -50.5 -17t-52.5 -6
q-30 0 -58 5.5t-49 22t-29 50.5q-26 -33 -66 -55.5t-83 -22.5zM266 111q22 0 36.5 9.5t23.5 25.5t12 35q11 82 16 116.5t5 40.5q0 29 -17 43.5t-40 14.5q-18 0 -33 -8t-24.5 -23.5t-12.5 -36.5q-10 -67 -14.5 -108t-4.5 -52q0 -26 15 -41.5t38 -15.5zM114 584l22 152h172
l-22 -152h-172zM394 584l22 152h172l-22 -152h-172z" />
    <glyph glyph-name="uni1EA1" unicode="&#x1ea1;" horiz-adv-x="628" 
d="M188 -10q-62 0 -99.5 27.5t-54.5 73.5t-17 102q0 61 13.5 119.5t42.5 105.5t74.5 75t109.5 28q40 0 77 -18t59 -53h5l34 61h149q-8 -50 -16 -99.5t-14.5 -95t-11.5 -82.5t-8 -62t-3 -35q0 -11 6 -19t20 -8q10 0 19.5 4t17.5 9l-15 -110q-22 -11 -50.5 -17t-52.5 -6
q-30 0 -58 5.5t-49 22t-29 50.5q-26 -33 -66 -55.5t-83 -22.5zM266 111q22 0 36.5 9.5t23.5 25.5t12 35q11 82 16 116.5t5 40.5q0 29 -17 43.5t-40 14.5q-18 0 -33 -8t-24.5 -23.5t-12.5 -36.5q-10 -67 -14.5 -108t-4.5 -52q0 -26 15 -41.5t38 -15.5zM171 -225l20 147h152
l-20 -147h-152z" />
    <glyph glyph-name="agrave" unicode="&#xe0;" horiz-adv-x="628" 
d="M188 -10q-62 0 -99.5 27.5t-54.5 73.5t-17 102q0 61 13.5 119.5t42.5 105.5t74.5 75t109.5 28q40 0 77 -18t59 -53h5l34 61h149q-8 -50 -16 -99.5t-14.5 -95t-11.5 -82.5t-8 -62t-3 -35q0 -11 6 -19t20 -8q10 0 19.5 4t17.5 9l-15 -110q-22 -11 -50.5 -17t-52.5 -6
q-30 0 -58 5.5t-49 22t-29 50.5q-26 -33 -66 -55.5t-83 -22.5zM266 111q22 0 36.5 9.5t23.5 25.5t12 35q11 82 16 116.5t5 40.5q0 29 -17 43.5t-40 14.5q-18 0 -33 -8t-24.5 -23.5t-12.5 -36.5q-10 -67 -14.5 -108t-4.5 -52q0 -26 15 -41.5t38 -15.5zM271 583l-100 175l3 3
h155l65 -178h-123z" />
    <glyph glyph-name="uni1EA3" unicode="&#x1ea3;" horiz-adv-x="628" 
d="M188 -10q-62 0 -99.5 27.5t-54.5 73.5t-17 102q0 61 13.5 119.5t42.5 105.5t74.5 75t109.5 28q40 0 77 -18t59 -53h5l34 61h149q-8 -50 -16 -99.5t-14.5 -95t-11.5 -82.5t-8 -62t-3 -35q0 -11 6 -19t20 -8q10 0 19.5 4t17.5 9l-15 -110q-22 -11 -50.5 -17t-52.5 -6
q-30 0 -58 5.5t-49 22t-29 50.5q-26 -33 -66 -55.5t-83 -22.5zM266 111q22 0 36.5 9.5t23.5 25.5t12 35q11 82 16 116.5t5 40.5q0 29 -17 43.5t-40 14.5q-18 0 -33 -8t-24.5 -23.5t-12.5 -36.5q-10 -67 -14.5 -108t-4.5 -52q0 -26 15 -41.5t38 -15.5zM311 567l11 81
q28 3 46 16.5t18 35.5q0 16 -11 24t-32 8q-14 0 -32.5 -2.5t-41.5 -10.5l16 110q21 5 40.5 7t38.5 2q57 0 93.5 -27t36.5 -77q0 -48 -27 -85t-69 -58.5t-87 -23.5z" />
    <glyph glyph-name="uni0203" unicode="&#x203;" horiz-adv-x="628" 
d="M188 -10q-62 0 -99.5 27.5t-54.5 73.5t-17 102q0 61 13.5 119.5t42.5 105.5t74.5 75t109.5 28q40 0 77 -18t59 -53h5l34 61h149q-8 -50 -16 -99.5t-14.5 -95t-11.5 -82.5t-8 -62t-3 -35q0 -11 6 -19t20 -8q10 0 19.5 4t17.5 9l-15 -110q-22 -11 -50.5 -17t-52.5 -6
q-30 0 -58 5.5t-49 22t-29 50.5q-26 -33 -66 -55.5t-83 -22.5zM266 111q22 0 36.5 9.5t23.5 25.5t12 35q11 82 16 116.5t5 40.5q0 29 -17 43.5t-40 14.5q-18 0 -33 -8t-24.5 -23.5t-12.5 -36.5q-10 -67 -14.5 -108t-4.5 -52q0 -26 15 -41.5t38 -15.5zM146 588q6 44 31 77
t69 51.5t105 18.5q66 0 108 -18.5t60 -51.5t12 -77h-101q-1 24 -20.5 37.5t-63.5 13.5t-68 -13.5t-32 -37.5h-100z" />
    <glyph glyph-name="amacron" unicode="&#x101;" horiz-adv-x="628" 
d="M188 -10q-62 0 -99.5 27.5t-54.5 73.5t-17 102q0 61 13.5 119.5t42.5 105.5t74.5 75t109.5 28q40 0 77 -18t59 -53h5l34 61h149q-8 -50 -16 -99.5t-14.5 -95t-11.5 -82.5t-8 -62t-3 -35q0 -11 6 -19t20 -8q10 0 19.5 4t17.5 9l-15 -110q-22 -11 -50.5 -17t-52.5 -6
q-30 0 -58 5.5t-49 22t-29 50.5q-26 -33 -66 -55.5t-83 -22.5zM266 111q22 0 36.5 9.5t23.5 25.5t12 35q11 82 16 116.5t5 40.5q0 29 -17 43.5t-40 14.5q-18 0 -33 -8t-24.5 -23.5t-12.5 -36.5q-10 -67 -14.5 -108t-4.5 -52q0 -26 15 -41.5t38 -15.5zM157 607l14 100h368
l-14 -100h-368z" />
    <glyph glyph-name="aogonek" unicode="&#x105;" horiz-adv-x="628" 
d="M188 -10q-62 0 -99.5 27.5t-54.5 73.5t-17 102q0 61 13.5 119.5t42.5 105.5t74.5 75t109.5 28q40 0 77 -18t59 -53h5l34 61h149q-8 -50 -16 -99.5t-14.5 -95t-11.5 -82.5t-8 -62t-3 -35q0 -11 6 -19t20 -8q10 0 19.5 4t17.5 9l-15 -110q-22 -11 -50.5 -17t-52.5 -6
q-30 0 -58 5.5t-49 22t-29 50.5q-26 -33 -66 -55.5t-83 -22.5zM266 111q22 0 36.5 9.5t23.5 25.5t12 35q11 82 16 116.5t5 40.5q0 29 -17 43.5t-40 14.5q-18 0 -33 -8t-24.5 -23.5t-12.5 -36.5q-10 -67 -14.5 -108t-4.5 -52q0 -26 15 -41.5t38 -15.5zM483 -145q-40 0 -68 16
t-28 51q0 29 15.5 49.5t35.5 33.5h118q-21 -12 -35.5 -24.5t-14.5 -32.5q0 -13 9 -18.5t22 -5.5t28.5 4t29.5 9l7 -51q-25 -14 -57 -22.5t-62 -8.5z" />
    <glyph glyph-name="aring" unicode="&#xe5;" horiz-adv-x="628" 
d="M188 -10q-62 0 -99.5 27.5t-54.5 73.5t-17 102q0 61 13.5 119.5t42.5 105.5t74.5 75t109.5 28q40 0 77 -18t59 -53h5l34 61h149q-8 -50 -16 -99.5t-14.5 -95t-11.5 -82.5t-8 -62t-3 -35q0 -11 6 -19t20 -8q10 0 19.5 4t17.5 9l-15 -110q-22 -11 -50.5 -17t-52.5 -6
q-30 0 -58 5.5t-49 22t-29 50.5q-26 -33 -66 -55.5t-83 -22.5zM266 111q22 0 36.5 9.5t23.5 25.5t12 35q11 82 16 116.5t5 40.5q0 29 -17 43.5t-40 14.5q-18 0 -33 -8t-24.5 -23.5t-12.5 -36.5q-10 -67 -14.5 -108t-4.5 -52q0 -26 15 -41.5t38 -15.5zM337 577
q-43 0 -70 23.5t-27 64.5q0 37 17 64.5t46 43t64 15.5q43 0 70 -24t27 -65q0 -36 -17 -63.5t-46 -43t-64 -15.5zM347 647q17 0 28.5 12.5t11.5 28.5q0 13 -8.5 21t-21.5 8q-16 0 -28 -12t-12 -29q0 -13 8.5 -21t21.5 -8z" />
    <glyph glyph-name="aringacute" unicode="&#x1fb;" horiz-adv-x="628" 
d="M188 -10q-62 0 -99.5 27.5t-54.5 73.5t-17 102q0 61 13.5 119.5t42.5 105.5t74.5 75t109.5 28q40 0 77 -18t59 -53h5l34 61h149q-8 -50 -16 -99.5t-14.5 -95t-11.5 -82.5t-8 -62t-3 -35q0 -11 6 -19t20 -8q10 0 19.5 4t17.5 9l-15 -110q-22 -11 -50.5 -17t-52.5 -6
q-30 0 -58 5.5t-49 22t-29 50.5q-26 -33 -66 -55.5t-83 -22.5zM266 111q22 0 36.5 9.5t23.5 25.5t12 35q11 82 16 116.5t5 40.5q0 29 -17 43.5t-40 14.5q-18 0 -33 -8t-24.5 -23.5t-12.5 -36.5q-10 -67 -14.5 -108t-4.5 -52q0 -26 15 -41.5t38 -15.5zM323 829l81 131h129
l2 -2l-113 -129h-99zM332 577q-43 0 -70 23.5t-27 64.5q0 37 17 64.5t46 43t64 15.5q43 0 70 -24t27 -65q0 -36 -17 -63.5t-46 -43t-64 -15.5zM342 647q17 0 28.5 12.5t11.5 28.5q0 13 -8.5 21t-21.5 8q-16 0 -28 -12t-12 -29q0 -13 8.5 -21t21.5 -8z" />
    <glyph glyph-name="atilde" unicode="&#xe3;" horiz-adv-x="628" 
d="M188 -10q-62 0 -99.5 27.5t-54.5 73.5t-17 102q0 61 13.5 119.5t42.5 105.5t74.5 75t109.5 28q40 0 77 -18t59 -53h5l34 61h149q-8 -50 -16 -99.5t-14.5 -95t-11.5 -82.5t-8 -62t-3 -35q0 -11 6 -19t20 -8q10 0 19.5 4t17.5 9l-15 -110q-22 -11 -50.5 -17t-52.5 -6
q-30 0 -58 5.5t-49 22t-29 50.5q-26 -33 -66 -55.5t-83 -22.5zM266 111q22 0 36.5 9.5t23.5 25.5t12 35q11 82 16 116.5t5 40.5q0 29 -17 43.5t-40 14.5q-18 0 -33 -8t-24.5 -23.5t-12.5 -36.5q-10 -67 -14.5 -108t-4.5 -52q0 -26 15 -41.5t38 -15.5zM121 581q11 52 32 91
t51 60.5t69 21.5q36 0 64.5 -15t53 -30t47.5 -15q22 0 36.5 17t23.5 43h81q-10 -52 -31.5 -91t-51.5 -60.5t-69 -21.5q-36 0 -64.5 15t-53 30t-47.5 15q-22 0 -36.5 -17t-23.5 -43h-81z" />
    <glyph glyph-name="ae" unicode="&#xe6;" horiz-adv-x="924" 
d="M175 -10q-28 0 -58.5 5.5t-57 20t-42.5 42t-16 71.5q0 57 26 93.5t73.5 57t114 28.5t147.5 8q2 12 3 20.5t1.5 13.5t0.5 6q0 16 -7.5 27t-20.5 16.5t-29 5.5q-25 0 -47 -14t-25 -37h-190q0 46 33.5 83.5t92.5 60.5t137 23h33q52 0 90.5 -9t65.5 -25q69 34 156 34h25
q72 0 120 -24t72.5 -67t24.5 -100q0 -28 -3 -51.5t-8 -49.5h-333q-6 -40 -5.5 -66t15 -39t50.5 -13q18 0 32.5 5.5t25 16.5t17 26t9.5 33h183q-8 -56 -44 -102t-95.5 -73t-138.5 -27h-15q-61 0 -110.5 17.5t-82.5 50.5q-25 -20 -60 -35.5t-75.5 -24t-84.5 -8.5zM265 111
q18 0 34.5 8.5t28.5 24.5t15 37l6 44q-37 0 -63.5 -6t-43 -16t-24 -24t-7.5 -30q0 -23 17 -30.5t37 -7.5zM566 316h138q0 39 -9.5 61.5t-47.5 22.5q-33 0 -54.5 -20.5t-26.5 -63.5z" />
    <glyph glyph-name="aeacute" unicode="&#x1fd;" horiz-adv-x="924" 
d="M175 -10q-28 0 -58.5 5.5t-57 20t-42.5 42t-16 71.5q0 57 26 93.5t73.5 57t114 28.5t147.5 8q2 12 3 20.5t1.5 13.5t0.5 6q0 16 -7.5 27t-20.5 16.5t-29 5.5q-25 0 -47 -14t-25 -37h-190q0 46 33.5 83.5t92.5 60.5t137 23h33q52 0 90.5 -9t65.5 -25q69 34 156 34h25
q72 0 120 -24t72.5 -67t24.5 -100q0 -28 -3 -51.5t-8 -49.5h-333q-6 -40 -5.5 -66t15 -39t50.5 -13q18 0 32.5 5.5t25 16.5t17 26t9.5 33h183q-8 -56 -44 -102t-95.5 -73t-138.5 -27h-15q-61 0 -110.5 17.5t-82.5 50.5q-25 -20 -60 -35.5t-75.5 -24t-84.5 -8.5zM265 111
q18 0 34.5 8.5t28.5 24.5t15 37l6 44q-37 0 -63.5 -6t-43 -16t-24 -24t-7.5 -30q0 -23 17 -30.5t37 -7.5zM566 316h138q0 39 -9.5 61.5t-47.5 22.5q-33 0 -54.5 -20.5t-26.5 -63.5zM444 583l117 178h165l1 -3l-150 -175h-133z" />
    <glyph glyph-name="b" unicode="b" horiz-adv-x="599" 
d="M312 -10q-108 0 -156 85l-78 -75h-69l100 720h198l-37 -262q18 18 53.5 40.5t87.5 22.5q70 0 115.5 -45t45.5 -143q0 -63 -15 -124t-46.5 -110.5t-80.5 -79t-118 -29.5zM283 111q22 0 36.5 9.5t23.5 25.5t12 35q10 68 15.5 108.5t5.5 51.5q0 29 -15 42t-38 13
q-18 0 -33.5 -9.5t-25.5 -25t-13 -35.5q-11 -79 -16 -113.5t-5 -48.5q0 -17 7 -29t19 -18t27 -6z" />
    <glyph glyph-name="c" unicode="c" horiz-adv-x="568" 
d="M246 -10q-68 0 -120 28.5t-81 78.5t-29 113q0 61 20.5 116.5t59 99.5t93.5 69.5t124 25.5h23q69 0 116.5 -23.5t72.5 -64.5t24 -95v-16.5t-2 -17.5h-169q2 9 3 19t1 19q0 26 -17 42t-43 16q-20 0 -37 -9.5t-28 -25t-14 -35.5q-9 -55 -15.5 -98t-6.5 -63q0 -25 16.5 -41.5
t48.5 -16.5q23 0 41.5 8.5t31.5 29.5t16 58h158q-10 -69 -46.5 -117.5t-92.5 -74t-125 -25.5h-23z" />
    <glyph glyph-name="cacute" unicode="&#x107;" horiz-adv-x="568" 
d="M246 -10q-68 0 -120 28.5t-81 78.5t-29 113q0 61 20.5 116.5t59 99.5t93.5 69.5t124 25.5h23q69 0 116.5 -23.5t72.5 -64.5t24 -95v-16.5t-2 -17.5h-169q2 9 3 19t1 19q0 26 -17 42t-43 16q-20 0 -37 -9.5t-28 -25t-14 -35.5q-9 -55 -15.5 -98t-6.5 -63q0 -25 16.5 -41.5
t48.5 -16.5q23 0 41.5 8.5t31.5 29.5t16 58h158q-10 -69 -46.5 -117.5t-92.5 -74t-125 -25.5h-23zM253 583l117 178h165l1 -3l-150 -175h-133z" />
    <glyph glyph-name="ccaron" unicode="&#x10d;" horiz-adv-x="568" 
d="M246 -10q-68 0 -120 28.5t-81 78.5t-29 113q0 61 20.5 116.5t59 99.5t93.5 69.5t124 25.5h23q69 0 116.5 -23.5t72.5 -64.5t24 -95v-16.5t-2 -17.5h-169q2 9 3 19t1 19q0 26 -17 42t-43 16q-20 0 -37 -9.5t-28 -25t-14 -35.5q-9 -55 -15.5 -98t-6.5 -63q0 -25 16.5 -41.5
t48.5 -16.5q23 0 41.5 8.5t31.5 29.5t16 58h158q-10 -69 -46.5 -117.5t-92.5 -74t-125 -25.5h-23zM559 766l-165 -188h-148l-113 188h138l92 -160h-80l136 160h140z" />
    <glyph glyph-name="ccedilla" unicode="&#xe7;" horiz-adv-x="568" 
d="M246 -10q-68 0 -120 28.5t-81 78.5t-29 113q0 61 20.5 116.5t59 99.5t93.5 69.5t124 25.5h23q69 0 116.5 -23.5t72.5 -64.5t24 -95v-16.5t-2 -17.5h-169q2 9 3 19t1 19q0 26 -17 42t-43 16q-20 0 -37 -9.5t-28 -25t-14 -35.5q-9 -55 -15.5 -98t-6.5 -63q0 -25 16.5 -41.5
t48.5 -16.5q23 0 41.5 8.5t31.5 29.5t16 58h158q-10 -69 -46.5 -117.5t-92.5 -74t-125 -25.5h-23zM214 -212q-32 0 -62 9.5t-50 26.5l41 61q15 -11 32.5 -20.5t46.5 -9.5q11 0 19.5 3.5t13.5 10t5 16.5q0 9 -6 13t-16 4h-24l10 66h38q38 0 67 -16t29 -54t-21.5 -62.5
t-54.5 -36t-68 -11.5z" />
    <glyph glyph-name="ccircumflex" unicode="&#x109;" horiz-adv-x="568" 
d="M246 -10q-68 0 -120 28.5t-81 78.5t-29 113q0 61 20.5 116.5t59 99.5t93.5 69.5t124 25.5h23q69 0 116.5 -23.5t72.5 -64.5t24 -95v-16.5t-2 -17.5h-169q2 9 3 19t1 19q0 26 -17 42t-43 16q-20 0 -37 -9.5t-28 -25t-14 -35.5q-9 -55 -15.5 -98t-6.5 -63q0 -25 16.5 -41.5
t48.5 -16.5q23 0 41.5 8.5t31.5 29.5t16 58h158q-10 -69 -46.5 -117.5t-92.5 -74t-125 -25.5h-23zM110 573l165 188h148l113 -188h-137l-92 160h80l-136 -160h-141z" />
    <glyph glyph-name="cdotaccent" unicode="&#x10b;" horiz-adv-x="568" 
d="M246 -10q-68 0 -120 28.5t-81 78.5t-29 113q0 61 20.5 116.5t59 99.5t93.5 69.5t124 25.5h23q69 0 116.5 -23.5t72.5 -64.5t24 -95v-16.5t-2 -17.5h-169q2 9 3 19t1 19q0 26 -17 42t-43 16q-20 0 -37 -9.5t-28 -25t-14 -35.5q-9 -55 -15.5 -98t-6.5 -63q0 -25 16.5 -41.5
t48.5 -16.5q23 0 41.5 8.5t31.5 29.5t16 58h158q-10 -69 -46.5 -117.5t-92.5 -74t-125 -25.5h-23zM233 597l18 128h179l-18 -128h-179z" />
    <glyph glyph-name="d" unicode="d" horiz-adv-x="639" 
d="M184 -10q-79 0 -123 50t-44 153q0 61 13.5 119.5t42 105.5t73 75t107.5 28q53 0 82 -18.5t41 -44.5l37 262h198q-15 -101 -27 -179t-20.5 -137t-15 -101t-10.5 -71t-6 -47.5t-3 -29.5t-1 -18q0 -11 6 -19t20 -8q10 0 19.5 4t17.5 9l-16 -110q-21 -11 -49.5 -17t-52.5 -6
q-30 0 -58 5.5t-49 22t-29 50.5q-26 -33 -63 -55.5t-90 -22.5zM266 111q22 0 36.5 9.5t23.5 25.5t12 35q11 82 16 116.5t5 40.5q0 29 -17 43.5t-40 14.5q-18 0 -33 -8t-24.5 -23.5t-12.5 -36.5q-10 -67 -14.5 -108t-4.5 -52q0 -26 15 -41.5t38 -15.5z" />
    <glyph glyph-name="eth" unicode="&#xf0;" horiz-adv-x="613" 
d="M248 -10q-69 0 -121 27t-81.5 75.5t-29.5 112.5q0 57 18.5 111.5t52.5 98.5t81.5 70.5t105.5 26.5q18 0 33 -2t25 -7q-4 9 -15.5 23.5t-25 29.5t-25.5 24l-70 -31l-52 51l80 35q-15 16 -35 29.5t-40 23.5l123 51q23 -8 44.5 -19t42.5 -25l76 33l48 -51l-63 -28
q49 -43 86.5 -97.5t59 -115.5t21.5 -124q0 -94 -39.5 -167t-109 -114t-158.5 -41h-32zM280 111q29 0 52.5 20.5t27.5 49.5q12 75 17 110t5 50q0 26 -18.5 42.5t-44.5 16.5q-32 0 -51.5 -20.5t-24.5 -49.5q-4 -25 -9 -55t-8.5 -57t-3.5 -42q0 -29 14.5 -47t43.5 -18z" />
    <glyph glyph-name="dcaron" unicode="&#x10f;" horiz-adv-x="729" 
d="M663 385l52 142h-73l22 158h165l-19 -139l-66 -161h-81zM184 -10q-79 0 -123 50t-44 153q0 61 13.5 119.5t42 105.5t73 75t107.5 28q53 0 82 -18.5t41 -44.5l37 262h198q-15 -101 -27 -179t-20.5 -137t-15 -101t-10.5 -71t-6 -47.5t-3 -29.5t-1 -18q0 -11 6 -19t20 -8
q10 0 19.5 4t17.5 9l-16 -110q-21 -11 -49.5 -17t-52.5 -6q-30 0 -58 5.5t-49 22t-29 50.5q-26 -33 -63 -55.5t-90 -22.5zM266 111q22 0 36.5 9.5t23.5 25.5t12 35q11 82 16 116.5t5 40.5q0 29 -17 43.5t-40 14.5q-18 0 -33 -8t-24.5 -23.5t-12.5 -36.5q-10 -67 -14.5 -108
t-4.5 -52q0 -26 15 -41.5t38 -15.5z" />
    <glyph glyph-name="dcroat" unicode="&#x111;" horiz-adv-x="639" 
d="M184 -10q-79 0 -123 50t-44 153q0 61 13.5 119.5t42 105.5t73 75t107.5 28q53 0 82 -18.5t41 -44.5l37 262h198q-15 -101 -27 -179t-20.5 -137t-15 -101t-10.5 -71t-6 -47.5t-3 -29.5t-1 -18q0 -11 6 -19t20 -8q10 0 19.5 4t17.5 9l-16 -110q-21 -11 -49.5 -17t-52.5 -6
q-30 0 -58 5.5t-49 22t-29 50.5q-26 -33 -63 -55.5t-90 -22.5zM266 111q22 0 36.5 9.5t23.5 25.5t12 35q11 82 16 116.5t5 40.5q0 29 -17 43.5t-40 14.5q-18 0 -33 -8t-24.5 -23.5t-12.5 -36.5q-10 -67 -14.5 -108t-4.5 -52q0 -26 15 -41.5t38 -15.5zM234 554l18 126h414
l-18 -126h-414z" />
    <glyph glyph-name="uni01C6" unicode="&#x1c6;" horiz-adv-x="1136" 
d="M184 -10q-79 0 -123 50t-44 153q0 61 13.5 119.5t42 105.5t73 75t107.5 28q53 0 82 -18.5t41 -44.5l37 262h198q-15 -101 -27 -179t-20.5 -137t-15 -101t-10.5 -71t-6 -47.5t-3 -29.5t-1 -18q0 -11 6 -19t20 -8q10 0 19.5 4t17.5 9l-16 -110q-21 -11 -49.5 -17t-52.5 -6
q-30 0 -58 5.5t-49 22t-29 50.5q-26 -33 -63 -55.5t-90 -22.5zM266 111q22 0 36.5 9.5t23.5 25.5t12 35q11 82 16 116.5t5 40.5q0 29 -17 43.5t-40 14.5q-18 0 -33 -8t-24.5 -23.5t-12.5 -36.5q-10 -67 -14.5 -108t-4.5 -52q0 -26 15 -41.5t38 -15.5zM621 0l8 63l233 324
h-177l17 124h433l-8 -60l-235 -327h197l-17 -124h-451zM1166 766l-165 -188h-148l-113 188h138l92 -160h-80l136 160h140z" />
    <glyph glyph-name="e" unicode="e" horiz-adv-x="600" 
d="M265 -10q-81 0 -136.5 28.5t-84 78t-28.5 113.5q0 56 18.5 111t56.5 100.5t97 72.5t140 27h25q72 0 121 -25t74.5 -68.5t25.5 -97.5q0 -18 -1.5 -33t-3.5 -31t-6 -37h-336l-4 -32t-2 -28q0 -29 19.5 -43.5t48.5 -14.5q24 0 42 10t29 28.5t14 42.5h183q-8 -56 -44 -102
t-95 -73t-138 -27h-15zM241 316h139q1 5 1.5 11t0.5 15q0 26 -16.5 42t-42.5 16q-31 0 -54.5 -21.5t-27.5 -62.5z" />
    <glyph glyph-name="eacute" unicode="&#xe9;" horiz-adv-x="600" 
d="M265 -10q-81 0 -136.5 28.5t-84 78t-28.5 113.5q0 56 18.5 111t56.5 100.5t97 72.5t140 27h25q72 0 121 -25t74.5 -68.5t25.5 -97.5q0 -18 -1.5 -33t-3.5 -31t-6 -37h-336l-4 -32t-2 -28q0 -29 19.5 -43.5t48.5 -14.5q24 0 42 10t29 28.5t14 42.5h183q-8 -56 -44 -102
t-95 -73t-138 -27h-15zM241 316h139q1 5 1.5 11t0.5 15q0 26 -16.5 42t-42.5 16q-31 0 -54.5 -21.5t-27.5 -62.5zM268 583l117 178h165l1 -3l-150 -175h-133z" />
    <glyph glyph-name="ebreve" unicode="&#x115;" horiz-adv-x="600" 
d="M265 -10q-81 0 -136.5 28.5t-84 78t-28.5 113.5q0 56 18.5 111t56.5 100.5t97 72.5t140 27h25q72 0 121 -25t74.5 -68.5t25.5 -97.5q0 -18 -1.5 -33t-3.5 -31t-6 -37h-336l-4 -32t-2 -28q0 -29 19.5 -43.5t48.5 -14.5q24 0 42 10t29 28.5t14 42.5h183q-8 -56 -44 -102
t-95 -73t-138 -27h-15zM241 316h139q1 5 1.5 11t0.5 15q0 26 -16.5 42t-42.5 16q-31 0 -54.5 -21.5t-27.5 -62.5zM342 588q-66 0 -107 21t-57.5 58.5t-9.5 87.5h101q-1 -34 18.5 -52.5t63.5 -18.5t68.5 18.5t34.5 52.5h100q-7 -50 -34 -87.5t-71.5 -58.5t-106.5 -21z" />
    <glyph glyph-name="ecaron" unicode="&#x11b;" horiz-adv-x="600" 
d="M265 -10q-81 0 -136.5 28.5t-84 78t-28.5 113.5q0 56 18.5 111t56.5 100.5t97 72.5t140 27h25q72 0 121 -25t74.5 -68.5t25.5 -97.5q0 -18 -1.5 -33t-3.5 -31t-6 -37h-336l-4 -32t-2 -28q0 -29 19.5 -43.5t48.5 -14.5q24 0 42 10t29 28.5t14 42.5h183q-8 -56 -44 -102
t-95 -73t-138 -27h-15zM241 316h139q1 5 1.5 11t0.5 15q0 26 -16.5 42t-42.5 16q-31 0 -54.5 -21.5t-27.5 -62.5zM574 766l-165 -188h-148l-113 188h138l92 -160h-80l136 160h140z" />
    <glyph glyph-name="ecircumflex" unicode="&#xea;" horiz-adv-x="600" 
d="M265 -10q-81 0 -136.5 28.5t-84 78t-28.5 113.5q0 56 18.5 111t56.5 100.5t97 72.5t140 27h25q72 0 121 -25t74.5 -68.5t25.5 -97.5q0 -18 -1.5 -33t-3.5 -31t-6 -37h-336l-4 -32t-2 -28q0 -29 19.5 -43.5t48.5 -14.5q24 0 42 10t29 28.5t14 42.5h183q-8 -56 -44 -102
t-95 -73t-138 -27h-15zM241 316h139q1 5 1.5 11t0.5 15q0 26 -16.5 42t-42.5 16q-31 0 -54.5 -21.5t-27.5 -62.5zM125 573l165 188h148l113 -188h-137l-92 160h80l-136 -160h-141z" />
    <glyph glyph-name="uni1EBF" unicode="&#x1ebf;" horiz-adv-x="600" 
d="M265 -10q-81 0 -136.5 28.5t-84 78t-28.5 113.5q0 56 18.5 111t56.5 100.5t97 72.5t140 27h25q72 0 121 -25t74.5 -68.5t25.5 -97.5q0 -18 -1.5 -33t-3.5 -31t-6 -37h-336l-4 -32t-2 -28q0 -29 19.5 -43.5t48.5 -14.5q24 0 42 10t29 28.5t14 42.5h183q-8 -56 -44 -102
t-95 -73t-138 -27h-15zM241 316h139q1 5 1.5 11t0.5 15q0 26 -16.5 42t-42.5 16q-31 0 -54.5 -21.5t-27.5 -62.5zM308 786l111 145h151l2 -3l-146 -142h-118zM136 588l159 148h128l119 -148h-118l-75 65l-93 -65h-120z" />
    <glyph glyph-name="uni1EC7" unicode="&#x1ec7;" horiz-adv-x="600" 
d="M265 -10q-81 0 -136.5 28.5t-84 78t-28.5 113.5q0 56 18.5 111t56.5 100.5t97 72.5t140 27h25q72 0 121 -25t74.5 -68.5t25.5 -97.5q0 -18 -1.5 -33t-3.5 -31t-6 -37h-336l-4 -32t-2 -28q0 -29 19.5 -43.5t48.5 -14.5q24 0 42 10t29 28.5t14 42.5h183q-8 -56 -44 -102
t-95 -73t-138 -27h-15zM241 316h139q1 5 1.5 11t0.5 15q0 26 -16.5 42t-42.5 16q-31 0 -54.5 -21.5t-27.5 -62.5zM166 -225l20 147h152l-20 -147h-152zM125 573l165 188h148l113 -188h-137l-92 160h80l-136 -160h-141z" />
    <glyph glyph-name="uni1EC1" unicode="&#x1ec1;" horiz-adv-x="600" 
d="M265 -10q-81 0 -136.5 28.5t-84 78t-28.5 113.5q0 56 18.5 111t56.5 100.5t97 72.5t140 27h25q72 0 121 -25t74.5 -68.5t25.5 -97.5q0 -18 -1.5 -33t-3.5 -31t-6 -37h-336l-4 -32t-2 -28q0 -29 19.5 -43.5t48.5 -14.5q24 0 42 10t29 28.5t14 42.5h183q-8 -56 -44 -102
t-95 -73t-138 -27h-15zM241 316h139q1 5 1.5 11t0.5 15q0 26 -16.5 42t-42.5 16q-31 0 -54.5 -21.5t-27.5 -62.5zM310 786l-106 142l2 3h151l71 -145h-118zM136 588l159 148h128l119 -148h-118l-75 65l-93 -65h-120z" />
    <glyph glyph-name="uni1EC3" unicode="&#x1ec3;" horiz-adv-x="600" 
d="M265 -10q-81 0 -136.5 28.5t-84 78t-28.5 113.5q0 56 18.5 111t56.5 100.5t97 72.5t140 27h25q72 0 121 -25t74.5 -68.5t25.5 -97.5q0 -18 -1.5 -33t-3.5 -31t-6 -37h-336l-4 -32t-2 -28q0 -29 19.5 -43.5t48.5 -14.5q24 0 42 10t29 28.5t14 42.5h183q-8 -56 -44 -102
t-95 -73t-138 -27h-15zM241 316h139q1 5 1.5 11t0.5 15q0 26 -16.5 42t-42.5 16q-31 0 -54.5 -21.5t-27.5 -62.5zM342 776l9 64q23 3 37.5 14t14.5 30q0 13 -8.5 18.5t-26.5 5.5q-11 0 -26 -2.5t-33 -8.5l12 88q17 5 32.5 6t30.5 1q45 0 74.5 -21.5t29.5 -62.5
q0 -38 -22.5 -67t-56 -46t-67.5 -19zM136 588l159 148h128l119 -148h-118l-75 65l-93 -65h-120z" />
    <glyph glyph-name="uni1EC5" unicode="&#x1ec5;" horiz-adv-x="600" 
d="M265 -10q-81 0 -136.5 28.5t-84 78t-28.5 113.5q0 56 18.5 111t56.5 100.5t97 72.5t140 27h25q72 0 121 -25t74.5 -68.5t25.5 -97.5q0 -18 -1.5 -33t-3.5 -31t-6 -37h-336l-4 -32t-2 -28q0 -29 19.5 -43.5t48.5 -14.5q24 0 42 10t29 28.5t14 42.5h183q-8 -56 -44 -102
t-95 -73t-138 -27h-15zM241 316h139q1 5 1.5 11t0.5 15q0 26 -16.5 42t-42.5 16q-31 0 -54.5 -21.5t-27.5 -62.5zM172 776q6 42 26 73.5t50 48.5t65 17q34 0 55.5 -9t40.5 -18t42 -9q17 0 31 10t21 26h74q-6 -42 -26 -73.5t-50 -48.5t-65 -17q-33 0 -55 9t-40 18t-42 9
q-17 0 -31.5 -10t-21.5 -26h-74zM136 588l159 148h128l119 -148h-118l-75 65l-93 -65h-120z" />
    <glyph glyph-name="uni0205" unicode="&#x205;" horiz-adv-x="600" 
d="M265 -10q-81 0 -136.5 28.5t-84 78t-28.5 113.5q0 56 18.5 111t56.5 100.5t97 72.5t140 27h25q72 0 121 -25t74.5 -68.5t25.5 -97.5q0 -18 -1.5 -33t-3.5 -31t-6 -37h-336l-4 -32t-2 -28q0 -29 19.5 -43.5t48.5 -14.5q24 0 42 10t29 28.5t14 42.5h183q-8 -56 -44 -102
t-95 -73t-138 -27h-15zM241 316h139q1 5 1.5 11t0.5 15q0 26 -16.5 42t-42.5 16q-31 0 -54.5 -21.5t-27.5 -62.5zM398 590l-106 142l7 3h151l71 -145h-123zM176 590l-106 142l2 3h156l71 -145h-123z" />
    <glyph glyph-name="edieresis" unicode="&#xeb;" horiz-adv-x="600" 
d="M265 -10q-81 0 -136.5 28.5t-84 78t-28.5 113.5q0 56 18.5 111t56.5 100.5t97 72.5t140 27h25q72 0 121 -25t74.5 -68.5t25.5 -97.5q0 -18 -1.5 -33t-3.5 -31t-6 -37h-336l-4 -32t-2 -28q0 -29 19.5 -43.5t48.5 -14.5q24 0 42 10t29 28.5t14 42.5h183q-8 -56 -44 -102
t-95 -73t-138 -27h-15zM241 316h139q1 5 1.5 11t0.5 15q0 26 -16.5 42t-42.5 16q-31 0 -54.5 -21.5t-27.5 -62.5zM113 584l22 152h172l-22 -152h-172zM393 584l22 152h172l-22 -152h-172z" />
    <glyph glyph-name="edotaccent" unicode="&#x117;" horiz-adv-x="600" 
d="M265 -10q-81 0 -136.5 28.5t-84 78t-28.5 113.5q0 56 18.5 111t56.5 100.5t97 72.5t140 27h25q72 0 121 -25t74.5 -68.5t25.5 -97.5q0 -18 -1.5 -33t-3.5 -31t-6 -37h-336l-4 -32t-2 -28q0 -29 19.5 -43.5t48.5 -14.5q24 0 42 10t29 28.5t14 42.5h183q-8 -56 -44 -102
t-95 -73t-138 -27h-15zM241 316h139q1 5 1.5 11t0.5 15q0 26 -16.5 42t-42.5 16q-31 0 -54.5 -21.5t-27.5 -62.5zM248 597l18 128h179l-18 -128h-179z" />
    <glyph glyph-name="uni1EB9" unicode="&#x1eb9;" horiz-adv-x="600" 
d="M265 -10q-81 0 -136.5 28.5t-84 78t-28.5 113.5q0 56 18.5 111t56.5 100.5t97 72.5t140 27h25q72 0 121 -25t74.5 -68.5t25.5 -97.5q0 -18 -1.5 -33t-3.5 -31t-6 -37h-336l-4 -32t-2 -28q0 -29 19.5 -43.5t48.5 -14.5q24 0 42 10t29 28.5t14 42.5h183q-8 -56 -44 -102
t-95 -73t-138 -27h-15zM241 316h139q1 5 1.5 11t0.5 15q0 26 -16.5 42t-42.5 16q-31 0 -54.5 -21.5t-27.5 -62.5zM166 -225l20 147h152l-20 -147h-152z" />
    <glyph glyph-name="egrave" unicode="&#xe8;" horiz-adv-x="600" 
d="M265 -10q-81 0 -136.5 28.5t-84 78t-28.5 113.5q0 56 18.5 111t56.5 100.5t97 72.5t140 27h25q72 0 121 -25t74.5 -68.5t25.5 -97.5q0 -18 -1.5 -33t-3.5 -31t-6 -37h-336l-4 -32t-2 -28q0 -29 19.5 -43.5t48.5 -14.5q24 0 42 10t29 28.5t14 42.5h183q-8 -56 -44 -102
t-95 -73t-138 -27h-15zM241 316h139q1 5 1.5 11t0.5 15q0 26 -16.5 42t-42.5 16q-31 0 -54.5 -21.5t-27.5 -62.5zM270 583l-100 175l3 3h155l65 -178h-123z" />
    <glyph glyph-name="uni1EBB" unicode="&#x1ebb;" horiz-adv-x="600" 
d="M265 -10q-81 0 -136.5 28.5t-84 78t-28.5 113.5q0 56 18.5 111t56.5 100.5t97 72.5t140 27h25q72 0 121 -25t74.5 -68.5t25.5 -97.5q0 -18 -1.5 -33t-3.5 -31t-6 -37h-336l-4 -32t-2 -28q0 -29 19.5 -43.5t48.5 -14.5q24 0 42 10t29 28.5t14 42.5h183q-8 -56 -44 -102
t-95 -73t-138 -27h-15zM241 316h139q1 5 1.5 11t0.5 15q0 26 -16.5 42t-42.5 16q-31 0 -54.5 -21.5t-27.5 -62.5zM310 567l11 81q28 3 46 16.5t18 35.5q0 16 -11 24t-32 8q-14 0 -32.5 -2.5t-41.5 -10.5l16 110q21 5 40.5 7t38.5 2q57 0 93.5 -27t36.5 -77q0 -48 -27 -85
t-69 -58.5t-87 -23.5z" />
    <glyph glyph-name="uni0207" unicode="&#x207;" horiz-adv-x="600" 
d="M265 -10q-81 0 -136.5 28.5t-84 78t-28.5 113.5q0 56 18.5 111t56.5 100.5t97 72.5t140 27h25q72 0 121 -25t74.5 -68.5t25.5 -97.5q0 -18 -1.5 -33t-3.5 -31t-6 -37h-336l-4 -32t-2 -28q0 -29 19.5 -43.5t48.5 -14.5q24 0 42 10t29 28.5t14 42.5h183q-8 -56 -44 -102
t-95 -73t-138 -27h-15zM241 316h139q1 5 1.5 11t0.5 15q0 26 -16.5 42t-42.5 16q-31 0 -54.5 -21.5t-27.5 -62.5zM145 588q6 44 31 77t69 51.5t105 18.5q66 0 108 -18.5t60 -51.5t12 -77h-101q-1 24 -20.5 37.5t-63.5 13.5t-68 -13.5t-32 -37.5h-100z" />
    <glyph glyph-name="emacron" unicode="&#x113;" horiz-adv-x="600" 
d="M265 -10q-81 0 -136.5 28.5t-84 78t-28.5 113.5q0 56 18.5 111t56.5 100.5t97 72.5t140 27h25q72 0 121 -25t74.5 -68.5t25.5 -97.5q0 -18 -1.5 -33t-3.5 -31t-6 -37h-336l-4 -32t-2 -28q0 -29 19.5 -43.5t48.5 -14.5q24 0 42 10t29 28.5t14 42.5h183q-8 -56 -44 -102
t-95 -73t-138 -27h-15zM241 316h139q1 5 1.5 11t0.5 15q0 26 -16.5 42t-42.5 16q-31 0 -54.5 -21.5t-27.5 -62.5zM156 607l14 100h368l-14 -100h-368z" />
    <glyph glyph-name="eogonek" unicode="&#x119;" horiz-adv-x="600" 
d="M265 -10q-81 0 -136.5 28.5t-84 78t-28.5 113.5q0 56 18.5 111t56.5 100.5t97 72.5t140 27h25q72 0 121 -25t74.5 -68.5t25.5 -97.5q0 -18 -1.5 -33t-3.5 -31t-6 -37h-336l-4 -32t-2 -28q0 -29 19.5 -43.5t48.5 -14.5q24 0 42 10t29 28.5t14 42.5h183q-8 -56 -44 -102
t-95 -73t-138 -27h-15zM241 316h139q1 5 1.5 11t0.5 15q0 26 -16.5 42t-42.5 16q-31 0 -54.5 -21.5t-27.5 -62.5zM293 -150q-40 0 -68 16t-28 51q0 29 15.5 49.5t35.5 33.5h118q-21 -12 -35.5 -24.5t-14.5 -32.5q0 -13 9 -18.5t22 -5.5t28.5 4t29.5 9l7 -51
q-25 -14 -57 -22.5t-62 -8.5z" />
    <glyph glyph-name="uni1EBD" unicode="&#x1ebd;" horiz-adv-x="600" 
d="M265 -10q-81 0 -136.5 28.5t-84 78t-28.5 113.5q0 56 18.5 111t56.5 100.5t97 72.5t140 27h25q72 0 121 -25t74.5 -68.5t25.5 -97.5q0 -18 -1.5 -33t-3.5 -31t-6 -37h-336l-4 -32t-2 -28q0 -29 19.5 -43.5t48.5 -14.5q24 0 42 10t29 28.5t14 42.5h183q-8 -56 -44 -102
t-95 -73t-138 -27h-15zM241 316h139q1 5 1.5 11t0.5 15q0 26 -16.5 42t-42.5 16q-31 0 -54.5 -21.5t-27.5 -62.5zM120 581q11 52 32 91t51 60.5t69 21.5q36 0 64.5 -15t53 -30t47.5 -15q22 0 36.5 17t23.5 43h81q-10 -52 -31.5 -91t-51.5 -60.5t-69 -21.5q-36 0 -64.5 15
t-53 30t-47.5 15q-22 0 -36.5 -17t-23.5 -43h-81z" />
    <glyph glyph-name="uni0259" unicode="&#x259;" horiz-adv-x="600" 
d="M335 521q82 0 137 -28.5t83.5 -78t28.5 -113.5q0 -56 -18.5 -111t-56.5 -100.5t-97 -72.5t-140 -27h-25q-71 0 -120.5 25.5t-75 68.5t-25.5 97q0 19 1.5 33.5t4 30.5t5.5 37h336q2 17 4 32.5t2 27.5q0 29 -19.5 43.5t-48.5 14.5q-24 0 -42 -10t-28.5 -28t-14.5 -43h-183
q8 57 44 102.5t95.5 72.5t137.5 27h15zM359 195h-139q-1 -4 -1.5 -10.5t-0.5 -15.5q0 -26 17 -42t42 -16q32 0 55 21.5t27 62.5z" />
    <glyph glyph-name="f" unicode="f" horiz-adv-x="418" 
d="M37 -187q-18 0 -42.5 2t-48.5 7t-40 13l16 112q12 -5 29.5 -8.5t30.5 -3.5q33 0 47.5 19.5t19.5 49.5l51 365h-64l20 142h64l9 66q8 56 36.5 89t72.5 47.5t96 14.5q17 0 41.5 -2t49 -7t39.5 -13l-15 -110q-13 4 -30 7t-31 3q-36 0 -48.5 -18t-16.5 -44l-5 -33h120
l-20 -142h-120l-55 -395q-11 -82 -68.5 -121.5t-137.5 -39.5z" />
    <glyph glyph-name="g" unicode="g" horiz-adv-x="600" 
d="M245 -186q-46 0 -90.5 8t-80 27.5t-56.5 51.5t-21 80h199q0 -8 5.5 -18.5t18 -18t32.5 -7.5q23 0 35.5 11.5t18 28t6.5 30.5l9 75q-28 -29 -64.5 -46t-77.5 -17q-58 0 -93 27.5t-51.5 72.5t-16.5 97t14.5 105.5t45.5 99t79.5 73t117.5 27.5q49 0 90 -20.5t65 -64.5l79 75
h70l-66 -471q-11 -78 -49 -128t-94.5 -74t-124.5 -24zM267 144q32 0 50 20.5t22 49.5q6 42 11.5 78.5t5.5 49.5q0 29 -15 43.5t-38 14.5q-18 0 -33.5 -9t-25.5 -24.5t-13 -36.5q-7 -44 -12 -82.5t-5 -44.5q0 -26 15 -42.5t38 -16.5z" />
    <glyph glyph-name="gbreve" unicode="&#x11f;" horiz-adv-x="600" 
d="M245 -186q-46 0 -90.5 8t-80 27.5t-56.5 51.5t-21 80h199q0 -8 5.5 -18.5t18 -18t32.5 -7.5q23 0 35.5 11.5t18 28t6.5 30.5l9 75q-28 -29 -64.5 -46t-77.5 -17q-58 0 -93 27.5t-51.5 72.5t-16.5 97t14.5 105.5t45.5 99t79.5 73t117.5 27.5q49 0 90 -20.5t65 -64.5l79 75
h70l-66 -471q-11 -78 -49 -128t-94.5 -74t-124.5 -24zM267 144q32 0 50 20.5t22 49.5q6 42 11.5 78.5t5.5 49.5q0 29 -15 43.5t-38 14.5q-18 0 -33.5 -9t-25.5 -24.5t-13 -36.5q-7 -44 -12 -82.5t-5 -44.5q0 -26 15 -42.5t38 -16.5zM349 588q-66 0 -107 21t-57.5 58.5
t-9.5 87.5h101q-1 -34 18.5 -52.5t63.5 -18.5t68.5 18.5t34.5 52.5h100q-7 -50 -34 -87.5t-71.5 -58.5t-106.5 -21z" />
    <glyph glyph-name="gcaron" unicode="&#x1e7;" horiz-adv-x="600" 
d="M245 -186q-46 0 -90.5 8t-80 27.5t-56.5 51.5t-21 80h199q0 -8 5.5 -18.5t18 -18t32.5 -7.5q23 0 35.5 11.5t18 28t6.5 30.5l9 75q-28 -29 -64.5 -46t-77.5 -17q-58 0 -93 27.5t-51.5 72.5t-16.5 97t14.5 105.5t45.5 99t79.5 73t117.5 27.5q49 0 90 -20.5t65 -64.5l79 75
h70l-66 -471q-11 -78 -49 -128t-94.5 -74t-124.5 -24zM267 144q32 0 50 20.5t22 49.5q6 42 11.5 78.5t5.5 49.5q0 29 -15 43.5t-38 14.5q-18 0 -33.5 -9t-25.5 -24.5t-13 -36.5q-7 -44 -12 -82.5t-5 -44.5q0 -26 15 -42.5t38 -16.5zM581 766l-165 -188h-148l-113 188h138
l92 -160h-80l136 160h140z" />
    <glyph glyph-name="gcircumflex" unicode="&#x11d;" horiz-adv-x="600" 
d="M245 -186q-46 0 -90.5 8t-80 27.5t-56.5 51.5t-21 80h199q0 -8 5.5 -18.5t18 -18t32.5 -7.5q23 0 35.5 11.5t18 28t6.5 30.5l9 75q-28 -29 -64.5 -46t-77.5 -17q-58 0 -93 27.5t-51.5 72.5t-16.5 97t14.5 105.5t45.5 99t79.5 73t117.5 27.5q49 0 90 -20.5t65 -64.5l79 75
h70l-66 -471q-11 -78 -49 -128t-94.5 -74t-124.5 -24zM267 144q32 0 50 20.5t22 49.5q6 42 11.5 78.5t5.5 49.5q0 29 -15 43.5t-38 14.5q-18 0 -33.5 -9t-25.5 -24.5t-13 -36.5q-7 -44 -12 -82.5t-5 -44.5q0 -26 15 -42.5t38 -16.5zM132 573l165 188h148l113 -188h-137
l-92 160h80l-136 -160h-141z" />
    <glyph glyph-name="uni0123" unicode="&#x123;" horiz-adv-x="600" 
d="M245 -186q-46 0 -90.5 8t-80 27.5t-56.5 51.5t-21 80h199q0 -8 5.5 -18.5t18 -18t32.5 -7.5q23 0 35.5 11.5t18 28t6.5 30.5l9 75q-28 -29 -64.5 -46t-77.5 -17q-58 0 -93 27.5t-51.5 72.5t-16.5 97t14.5 105.5t45.5 99t79.5 73t117.5 27.5q49 0 90 -20.5t65 -64.5l79 75
h70l-66 -471q-11 -78 -49 -128t-94.5 -74t-124.5 -24zM267 144q32 0 50 20.5t22 49.5q6 42 11.5 78.5t5.5 49.5q0 29 -15 43.5t-38 14.5q-18 0 -33.5 -9t-25.5 -24.5t-13 -36.5q-7 -44 -12 -82.5t-5 -44.5q0 -26 15 -42.5t38 -16.5zM470 939l-3 -20q-40 -34 -62.5 -72
t-27.5 -79h73l-24 -165h-159l20 139q8 56 33 107t68 90h82z" />
    <glyph glyph-name="gdotaccent" unicode="&#x121;" horiz-adv-x="600" 
d="M245 -186q-46 0 -90.5 8t-80 27.5t-56.5 51.5t-21 80h199q0 -8 5.5 -18.5t18 -18t32.5 -7.5q23 0 35.5 11.5t18 28t6.5 30.5l9 75q-28 -29 -64.5 -46t-77.5 -17q-58 0 -93 27.5t-51.5 72.5t-16.5 97t14.5 105.5t45.5 99t79.5 73t117.5 27.5q49 0 90 -20.5t65 -64.5l79 75
h70l-66 -471q-11 -78 -49 -128t-94.5 -74t-124.5 -24zM267 144q32 0 50 20.5t22 49.5q6 42 11.5 78.5t5.5 49.5q0 29 -15 43.5t-38 14.5q-18 0 -33.5 -9t-25.5 -24.5t-13 -36.5q-7 -44 -12 -82.5t-5 -44.5q0 -26 15 -42.5t38 -16.5zM255 597l18 128h179l-18 -128h-179z" />
    <glyph glyph-name="uni01E5" unicode="&#x1e5;" horiz-adv-x="600" 
d="M273 241l9 68h322l-9 -68h-322zM245 -186q-46 0 -90.5 8t-80 27.5t-56.5 51.5t-21 80h199q0 -8 5.5 -18.5t18 -18t32.5 -7.5q23 0 35.5 11.5t18 28t6.5 30.5l9 75q-28 -29 -64.5 -46t-77.5 -17q-58 0 -93 27.5t-51.5 72.5t-16.5 97t14.5 105.5t45.5 99t79.5 73
t117.5 27.5q49 0 90 -20.5t65 -64.5l79 75h70l-66 -471q-11 -78 -49 -128t-94.5 -74t-124.5 -24zM267 144q32 0 50 20.5t22 49.5q6 42 11.5 78.5t5.5 49.5q0 29 -15 43.5t-38 14.5q-18 0 -33.5 -9t-25.5 -24.5t-13 -36.5q-7 -44 -12 -82.5t-5 -44.5q0 -26 15 -42.5t38 -16.5
z" />
    <glyph glyph-name="h" unicode="h" horiz-adv-x="597" 
d="M9 0l100 720h198l-38 -269q10 14 29 30t49.5 28t72.5 12q71 0 107 -37t36 -92q0 -16 -5 -56t-16.5 -120t-31.5 -216h-198q15 104 24 167t13.5 96.5t6 48.5t1.5 24q0 20 -11.5 32t-33.5 12q-17 0 -30 -8t-20.5 -21.5t-10.5 -30.5l-45 -320h-197z" />
    <glyph glyph-name="hbar" unicode="&#x127;" horiz-adv-x="597" 
d="M9 0l100 720h198l-38 -269q10 14 29 30t49.5 28t72.5 12q71 0 107 -37t36 -92q0 -16 -5 -56t-16.5 -120t-31.5 -216h-198q15 104 24 167t13.5 96.5t6 48.5t1.5 24q0 20 -11.5 32t-33.5 12q-17 0 -30 -8t-20.5 -21.5t-10.5 -30.5l-45 -320h-197zM18 544l18 126h414
l-18 -126h-414z" />
    <glyph glyph-name="hcircumflex" unicode="&#x125;" horiz-adv-x="597" 
d="M9 0l100 720h198l-38 -269q10 14 29 30t49.5 28t72.5 12q71 0 107 -37t36 -92q0 -16 -5 -56t-16.5 -120t-31.5 -216h-198q15 104 24 167t13.5 96.5t6 48.5t1.5 24q0 20 -11.5 32t-33.5 12q-17 0 -30 -8t-20.5 -21.5t-10.5 -30.5l-45 -320h-197zM4 746l125 139h184
l93 -139h-131l-71 105h32l-101 -105h-131z" />
    <glyph glyph-name="uni1E25" unicode="&#x1e25;" horiz-adv-x="597" 
d="M9 0l100 720h198l-38 -269q10 14 29 30t49.5 28t72.5 12q71 0 107 -37t36 -92q0 -16 -5 -56t-16.5 -120t-31.5 -216h-198q15 104 24 167t13.5 96.5t6 48.5t1.5 24q0 20 -11.5 32t-33.5 12q-17 0 -30 -8t-20.5 -21.5t-10.5 -30.5l-45 -320h-197zM148 -225l20 147h152
l-20 -147h-152z" />
    <glyph glyph-name="i" unicode="i" horiz-adv-x="296" 
d="M9 0l71 511h197l-72 -511h-196zM89 577l20 143h197l-20 -143h-197z" />
    <glyph glyph-name="dotlessi" unicode="&#x131;" horiz-adv-x="296" 
d="M9 0l71 511h197l-71 -511h-197z" />
    <glyph glyph-name="iacute" unicode="&#xed;" horiz-adv-x="296" 
d="M9 0l71 511h197l-71 -511h-197zM118 583l117 178h165l1 -3l-150 -175h-133z" />
    <glyph glyph-name="ibreve" unicode="&#x12d;" horiz-adv-x="296" 
d="M9 0l71 511h197l-71 -511h-197zM193 588q-55 0 -89.5 18.5t-47.5 55.5t-7 93h101q-5 -41 8 -57.5t43 -16.5t48 16.5t26 57.5h100q-9 -56 -32 -93t-60.5 -55.5t-89.5 -18.5z" />
    <glyph glyph-name="uni01D0" unicode="&#x1d0;" horiz-adv-x="296" 
d="M9 0l71 511h197l-71 -511h-197zM390 761l-136 -188h-129l-91 188h122l71 -157h-74l116 157h121z" />
    <glyph glyph-name="icircumflex" unicode="&#xee;" horiz-adv-x="296" 
d="M9 0l71 511h197l-71 -511h-197zM8 573l137 188h129l90 -188h-122l-71 157h74l-116 -157h-121z" />
    <glyph glyph-name="uni0209" unicode="&#x209;" horiz-adv-x="296" 
d="M9 0l71 511h197l-71 -511h-197zM248 590l-106 142l7 3h151l71 -145h-123zM26 590l-106 142l2 3h156l71 -145h-123z" />
    <glyph glyph-name="idieresis" unicode="&#xef;" horiz-adv-x="296" 
d="M9 0l71 511h197l-71 -511h-197zM13 602l20 140h144l-20 -140h-144zM223 602l20 140h144l-20 -140h-144z" />
    <glyph glyph-name="i.loclTRK" horiz-adv-x="296" 
d="M9 0l71 511h197l-71 -511h-197zM98 597l18 128h179l-18 -128h-179z" />
    <glyph glyph-name="uni1ECB" unicode="&#x1ecb;" horiz-adv-x="296" 
d="M9 0l71 511h197l-72 -511h-196zM89 577l20 143h197l-20 -143h-197zM-3 -225l20 147h152l-20 -147h-152z" />
    <glyph glyph-name="igrave" unicode="&#xec;" horiz-adv-x="296" 
d="M9 0l71 511h197l-71 -511h-197zM120 583l-100 175l3 3h155l65 -178h-123z" />
    <glyph glyph-name="uni1EC9" unicode="&#x1ec9;" horiz-adv-x="296" 
d="M9 0l71 511h197l-71 -511h-197zM160 567l11 81q28 3 46 16.5t18 35.5q0 16 -11 24t-32 8q-14 0 -32.5 -2.5t-41.5 -10.5l16 110q21 5 40.5 7t38.5 2q57 0 93.5 -27t36.5 -77q0 -48 -27 -85t-69 -58.5t-87 -23.5z" />
    <glyph glyph-name="uni020B" unicode="&#x20b;" horiz-adv-x="296" 
d="M9 0l71 511h197l-71 -511h-197zM27 588q9 56 32 93t60.5 55.5t89.5 18.5q56 0 90 -18.5t47.5 -55.5t6.5 -93h-101q5 41 -8 57.5t-43 16.5t-48 -16.5t-26 -57.5h-100z" />
    <glyph glyph-name="ij" unicode="&#x133;" horiz-adv-x="604" 
d="M9 0l71 511h197l-72 -511h-196zM89 577l20 143h197l-20 -143h-197zM304 -187q-17 0 -41.5 3t-48.5 8t-40 11l16 112q11 -5 30 -8.5t30 -3.5q21 0 40 12.5t25 56.5l71 507h199l-76 -537q-11 -81 -67 -121t-138 -40zM395 577l20 143h199l-20 -143h-199z" />
    <glyph glyph-name="imacron" unicode="&#x12b;" horiz-adv-x="296" 
d="M9 0l71 511h197l-71 -511h-197zM44 607l14 100h294l-14 -100h-294z" />
    <glyph glyph-name="iogonek" unicode="&#x12f;" horiz-adv-x="296" 
d="M9 0l71 511h197l-72 -511h-196zM89 577l20 143h197l-20 -143h-197zM54 -150q-40 0 -68 16t-28 51q0 29 15.5 49.5t35.5 33.5h118q-21 -12 -35.5 -24.5t-14.5 -32.5q0 -13 9 -18.5t22 -5.5t28.5 4t29.5 9l7 -51q-25 -14 -57 -22.5t-62 -8.5z" />
    <glyph glyph-name="uni0268" unicode="&#x268;" horiz-adv-x="296" 
d="M-2 326h300l-18 -128h-300zM9 0l71 511h197l-72 -511h-196zM89 577l20 143h197l-20 -143h-197z" />
    <glyph glyph-name="itilde" unicode="&#x129;" horiz-adv-x="296" 
d="M9 0l71 511h197l-71 -511h-197zM0 581q10 60 28.5 98.5t45 56.5t60.5 18q31 0 54 -15t42 -30t37 -15q17 0 29.5 17t20.5 43h81q-9 -60 -27.5 -98.5t-45 -56.5t-60.5 -18q-30 0 -53.5 15t-43 30t-37.5 15q-17 0 -29.5 -17t-20.5 -43h-81z" />
    <glyph glyph-name="j" unicode="j" horiz-adv-x="298" 
d="M-2 -187q-17 0 -41.5 3t-48.5 8t-40 11l16 112q11 -5 30 -8.5t30 -3.5q21 0 40 12.5t25 56.5l71 507h199l-76 -537q-11 -81 -67 -121t-138 -40zM89 577l20 143h199l-20 -143h-199z" />
    <glyph glyph-name="uni0237" unicode="&#x237;" horiz-adv-x="298" 
d="M-2 -187q-17 0 -41.5 3t-48.5 8t-40 11l16 112q11 -5 30 -8.5t30 -3.5q21 0 40 12.5t25 56.5l71 507h199l-76 -537q-11 -81 -67 -121t-138 -40z" />
    <glyph glyph-name="jcircumflex" unicode="&#x135;" horiz-adv-x="298" 
d="M-2 -187q-17 0 -41.5 3t-48.5 8t-40 11l16 112q11 -5 30 -8.5t30 -3.5q21 0 40 12.5t25 56.5l71 507h199l-76 -537q-11 -81 -67 -121t-138 -40zM5 573l137 188h129l90 -188h-122l-71 157h74l-116 -157h-121z" />
    <glyph glyph-name="k" unicode="k" horiz-adv-x="601" 
d="M9 0l100 720h198l-56 -399l157 190h226l-212 -231l143 -280h-233l-70 145l-40 -31l-16 -114h-197z" />
    <glyph glyph-name="uni0137" unicode="&#x137;" horiz-adv-x="601" 
d="M9 0l100 720h198l-56 -399l157 190h226l-212 -231l143 -280h-233l-70 145l-40 -31l-16 -114h-197zM140 -413l3 20q40 35 62.5 73t27.5 78h-73l24 165h159l-20 -139q-7 -56 -32.5 -107t-68.5 -90h-82z" />
    <glyph glyph-name="kgreenlandic" unicode="&#x138;" horiz-adv-x="601" 
d="M9 0l71 511h198l-27 -190l157 190h226l-212 -231l143 -280h-233l-70 145l-40 -31l-16 -114h-197z" />
    <glyph glyph-name="l" unicode="l" horiz-adv-x="297" 
d="M9 0l100 720h198l-101 -720h-197z" />
    <glyph glyph-name="lacute" unicode="&#x13a;" horiz-adv-x="297" 
d="M9 0l100 720h198l-101 -720h-197z" />
    <glyph glyph-name="lcaron" unicode="&#x13e;" horiz-adv-x="467" 
d="M337 378l3 19q35 32 56.5 65.5t26.5 71.5h-69l22 152h149l-17 -128q-8 -52 -32 -97.5t-63 -82.5h-76zM9 0l100 720h198l-101 -720h-197z" />
    <glyph glyph-name="uni013C" unicode="&#x13c;" horiz-adv-x="297" 
d="M9 0l100 720h198l-101 -720h-197zM-26 -413l3 20q40 35 62.5 73t27.5 78h-73l24 165h159l-20 -139q-7 -56 -32.5 -107t-68.5 -90h-82z" />
    <glyph glyph-name="ldot" unicode="&#x140;" horiz-adv-x="453" 
d="M280 286l25 183h191l-25 -183h-191zM9 0l100 720h198l-101 -720h-197z" />
    <glyph glyph-name="uni01C9" unicode="&#x1c9;" horiz-adv-x="595" 
d="M9 0l100 720h198l-101 -720h-197zM295 -187q-17 0 -41.5 3t-48.5 8t-40 11l16 112q11 -5 30 -8.5t30 -3.5q21 0 40 12.5t25 56.5l71 507h199l-76 -537q-11 -81 -67 -121t-138 -40zM386 577l20 143h199l-20 -143h-199z" />
    <glyph glyph-name="lslash" unicode="&#x142;" horiz-adv-x="297" 
d="M9 0l100 720h198l-101 -720h-197zM-19 227l15 105l341 159l-15 -105z" />
    <glyph glyph-name="m" unicode="m" horiz-adv-x="869" 
d="M8 0l72 511h148l10 -74q9 13 30.5 33t55.5 35.5t78 15.5q57 0 88 -21.5t45 -56.5q25 34 61.5 56t95.5 22q72 0 107.5 -37t35.5 -92q0 -9 -7 -63.5t-19 -140t-27 -188.5h-194q8 58 16.5 114t15 102.5t10.5 78t4 39.5q0 20 -12 32.5t-29 12.5q-15 0 -27 -7t-19.5 -19
t-9.5 -29l-45 -324h-194q8 58 16 113.5t14.5 102t11 78t4.5 40.5q0 20 -12 32.5t-29 12.5q-15 0 -27 -7t-19.5 -19t-9.5 -29l-45 -324h-194z" />
    <glyph glyph-name="n" unicode="n" horiz-adv-x="597" 
d="M8 0l72 511h149l9 -74q8 11 28.5 31t57.5 36.5t95 16.5q72 0 108 -37t36 -92q0 -10 -2 -27.5t-5.5 -46.5t-10 -72t-15 -104t-20.5 -142h-198q12 83 20 139.5t13 92t7.5 56t3.5 31t1 17.5q0 20 -11.5 32t-33.5 12q-17 0 -30 -8t-20.5 -21.5t-10.5 -30.5l-45 -320h-198z
" />
    <glyph glyph-name="nacute" unicode="&#x144;" horiz-adv-x="597" 
d="M8 0l72 511h149l9 -74q8 11 28.5 31t57.5 36.5t95 16.5q72 0 108 -37t36 -92q0 -10 -2 -27.5t-5.5 -46.5t-10 -72t-15 -104t-20.5 -142h-198q12 83 20 139.5t13 92t7.5 56t3.5 31t1 17.5q0 20 -11.5 32t-33.5 12q-17 0 -30 -8t-20.5 -21.5t-10.5 -30.5l-45 -320h-198z
M257 583l117 178h165l1 -3l-150 -175h-133z" />
    <glyph glyph-name="napostrophe" unicode="&#x149;" horiz-adv-x="597" 
d="M8 0l72 511h149l9 -74q8 11 28.5 31t57.5 36.5t95 16.5q72 0 108 -37t36 -92q0 -10 -2 -27.5t-5.5 -46.5t-10 -72t-15 -104t-20.5 -142h-198q12 83 20 139.5t13 92t7.5 56t3.5 31t1 17.5q0 20 -11.5 32t-33.5 12q-17 0 -30 -8t-20.5 -21.5t-10.5 -30.5l-45 -320h-198z
M-18 553l3 18q34 31 54 62.5t25 68.5h-66l21 145h143l-17 -122q-7 -50 -30 -93.5t-60 -78.5h-73z" />
    <glyph glyph-name="ncaron" unicode="&#x148;" horiz-adv-x="597" 
d="M8 0l72 511h149l9 -74q8 11 28.5 31t57.5 36.5t95 16.5q72 0 108 -37t36 -92q0 -10 -2 -27.5t-5.5 -46.5t-10 -72t-15 -104t-20.5 -142h-198q12 83 20 139.5t13 92t7.5 56t3.5 31t1 17.5q0 20 -11.5 32t-33.5 12q-17 0 -30 -8t-20.5 -21.5t-10.5 -30.5l-45 -320h-198z
M563 766l-165 -188h-148l-113 188h138l92 -160h-80l136 160h140z" />
    <glyph glyph-name="uni0146" unicode="&#x146;" horiz-adv-x="597" 
d="M8 0l72 511h149l9 -74q8 11 28.5 31t57.5 36.5t95 16.5q72 0 108 -37t36 -92q0 -10 -2 -27.5t-5.5 -46.5t-10 -72t-15 -104t-20.5 -142h-198q12 83 20 139.5t13 92t7.5 56t3.5 31t1 17.5q0 20 -11.5 32t-33.5 12q-17 0 -30 -8t-20.5 -21.5t-10.5 -30.5l-45 -320h-198z
M128 -413l3 20q40 35 62.5 73t27.5 78h-73l24 165h159l-20 -139q-7 -56 -32.5 -107t-68.5 -90h-82z" />
    <glyph glyph-name="uni0272" unicode="&#x272;" horiz-adv-x="597" 
d="M-2 -187q-17 0 -41.5 3t-48.5 8t-40 11l16 112q11 -5 30 -8.5t30 -3.5q20 0 39 12t25 53l72 511h149l9 -74q8 11 28.5 31t57.5 36.5t95 16.5q72 0 108 -37t36 -92q0 -10 -2 -27.5t-5.5 -46.5t-10 -72t-15 -104t-20.5 -142h-198q12 83 20 139.5t13 92t7.5 56t3.5 31
t1 17.5q0 20 -11.5 32t-33.5 12q-17 0 -30 -8t-20.5 -21.5t-10.5 -30.5l-48 -346q-11 -81 -67 -121t-138 -40z" />
    <glyph glyph-name="uni01CC" unicode="&#x1cc;" horiz-adv-x="895" 
d="M8 0l72 511h149l9 -74q8 11 28.5 31t57.5 36.5t95 16.5q72 0 108 -37t36 -92q0 -10 -2 -27.5t-5.5 -46.5t-10 -72t-15 -104t-20.5 -142h-198q12 83 20 139.5t13 92t7.5 56t3.5 31t1 17.5q0 20 -11.5 32t-33.5 12q-17 0 -30 -8t-20.5 -21.5t-10.5 -30.5l-45 -320h-198z
M595 -187q-17 0 -41.5 3t-48.5 8t-40 11l16 112q11 -5 30 -8.5t30 -3.5q21 0 40 12.5t25 56.5l71 507h199l-76 -537q-11 -81 -67 -121t-138 -40zM686 577l20 143h199l-20 -143h-199z" />
    <glyph glyph-name="ntilde" unicode="&#xf1;" horiz-adv-x="597" 
d="M8 0l72 511h149l9 -74q8 11 28.5 31t57.5 36.5t95 16.5q72 0 108 -37t36 -92q0 -10 -2 -27.5t-5.5 -46.5t-10 -72t-15 -104t-20.5 -142h-198q12 83 20 139.5t13 92t7.5 56t3.5 31t1 17.5q0 20 -11.5 32t-33.5 12q-17 0 -30 -8t-20.5 -21.5t-10.5 -30.5l-45 -320h-198z
M109 581q11 52 32 91t51 60.5t69 21.5q36 0 64.5 -15t53 -30t47.5 -15q22 0 36.5 17t23.5 43h81q-10 -52 -31.5 -91t-51.5 -60.5t-69 -21.5q-36 0 -64.5 15t-53 30t-47.5 15q-22 0 -36.5 -17t-23.5 -43h-81z" />
    <glyph glyph-name="eng" unicode="&#x14b;" horiz-adv-x="597" 
d="M302 -187q-17 0 -41.5 3t-48.5 8t-40 11l16 112q11 -5 30 -8.5t30 -3.5q20 0 39 12t25 53q12 83 20 139.5t13 92t7.5 56t3.5 31t1 17.5q0 20 -11.5 32t-33.5 12q-17 0 -30 -8t-20.5 -21.5t-10.5 -30.5l-45 -320h-198l72 511h149l9 -74q8 11 28.5 31t57.5 36.5t95 16.5
q72 0 108 -37t36 -92q0 -10 -2 -27.5t-6 -48t-10.5 -76.5t-16 -111.5t-22.5 -154.5q-11 -81 -66.5 -121t-137.5 -40z" />
    <glyph glyph-name="o" unicode="o" horiz-adv-x="613" 
d="M265 -10q-81 0 -136.5 28.5t-84 78t-28.5 113.5q0 56 18.5 111t56.5 100.5t96 72.5t136 27h17q81 0 136 -28.5t83 -78t28 -113.5q0 -56 -18.5 -111t-56.5 -100.5t-96 -72.5t-136 -27h-15zM281 111q21 0 37.5 9.5t27.5 25.5t14 35q9 56 15.5 99t6.5 62q0 26 -17 42t-43 16
q-20 0 -37 -9.5t-28 -25t-14 -35.5q-9 -55 -15.5 -98t-6.5 -63q0 -26 17 -42t43 -16z" />
    <glyph glyph-name="oacute" unicode="&#xf3;" horiz-adv-x="613" 
d="M265 -10q-81 0 -136.5 28.5t-84 78t-28.5 113.5q0 56 18.5 111t56.5 100.5t96 72.5t136 27h17q81 0 136 -28.5t83 -78t28 -113.5q0 -56 -18.5 -111t-56.5 -100.5t-96 -72.5t-136 -27h-15zM281 111q21 0 37.5 9.5t27.5 25.5t14 35q9 56 15.5 99t6.5 62q0 26 -17 42t-43 16
q-20 0 -37 -9.5t-28 -25t-14 -35.5q-9 -55 -15.5 -98t-6.5 -63q0 -26 17 -42t43 -16zM275 583l117 178h165l1 -3l-150 -175h-133z" />
    <glyph glyph-name="obreve" unicode="&#x14f;" horiz-adv-x="613" 
d="M265 -10q-81 0 -136.5 28.5t-84 78t-28.5 113.5q0 56 18.5 111t56.5 100.5t96 72.5t136 27h17q81 0 136 -28.5t83 -78t28 -113.5q0 -56 -18.5 -111t-56.5 -100.5t-96 -72.5t-136 -27h-15zM281 111q21 0 37.5 9.5t27.5 25.5t14 35q9 56 15.5 99t6.5 62q0 26 -17 42t-43 16
q-20 0 -37 -9.5t-28 -25t-14 -35.5q-9 -55 -15.5 -98t-6.5 -63q0 -26 17 -42t43 -16zM349 588q-66 0 -107 21t-57.5 58.5t-9.5 87.5h101q-1 -34 18.5 -52.5t63.5 -18.5t68.5 18.5t34.5 52.5h100q-7 -50 -34 -87.5t-71.5 -58.5t-106.5 -21z" />
    <glyph glyph-name="uni01D2" unicode="&#x1d2;" horiz-adv-x="613" 
d="M265 -10q-81 0 -136.5 28.5t-84 78t-28.5 113.5q0 56 18.5 111t56.5 100.5t96 72.5t136 27h17q81 0 136 -28.5t83 -78t28 -113.5q0 -56 -18.5 -111t-56.5 -100.5t-96 -72.5t-136 -27h-15zM281 111q21 0 37.5 9.5t27.5 25.5t14 35q9 56 15.5 99t6.5 62q0 26 -17 42t-43 16
q-20 0 -37 -9.5t-28 -25t-14 -35.5q-9 -55 -15.5 -98t-6.5 -63q0 -26 17 -42t43 -16zM581 766l-165 -188h-148l-113 188h138l92 -160h-80l136 160h140z" />
    <glyph glyph-name="ocircumflex" unicode="&#xf4;" horiz-adv-x="613" 
d="M265 -10q-81 0 -136.5 28.5t-84 78t-28.5 113.5q0 56 18.5 111t56.5 100.5t96 72.5t136 27h17q81 0 136 -28.5t83 -78t28 -113.5q0 -56 -18.5 -111t-56.5 -100.5t-96 -72.5t-136 -27h-15zM281 111q21 0 37.5 9.5t27.5 25.5t14 35q9 56 15.5 99t6.5 62q0 26 -17 42t-43 16
q-20 0 -37 -9.5t-28 -25t-14 -35.5q-9 -55 -15.5 -98t-6.5 -63q0 -26 17 -42t43 -16zM132 573l165 188h148l113 -188h-137l-92 160h80l-136 -160h-141z" />
    <glyph glyph-name="uni1ED1" unicode="&#x1ed1;" horiz-adv-x="613" 
d="M265 -10q-81 0 -136.5 28.5t-84 78t-28.5 113.5q0 56 18.5 111t56.5 100.5t96 72.5t136 27h17q81 0 136 -28.5t83 -78t28 -113.5q0 -56 -18.5 -111t-56.5 -100.5t-96 -72.5t-136 -27h-15zM281 111q21 0 37.5 9.5t27.5 25.5t14 35q9 56 15.5 99t6.5 62q0 26 -17 42t-43 16
q-20 0 -37 -9.5t-28 -25t-14 -35.5q-9 -55 -15.5 -98t-6.5 -63q0 -26 17 -42t43 -16zM315 786l111 145h151l2 -3l-146 -142h-118zM143 588l159 148h128l119 -148h-118l-75 65l-93 -65h-120z" />
    <glyph glyph-name="uni1ED9" unicode="&#x1ed9;" horiz-adv-x="613" 
d="M265 -10q-81 0 -136.5 28.5t-84 78t-28.5 113.5q0 56 18.5 111t56.5 100.5t96 72.5t136 27h17q81 0 136 -28.5t83 -78t28 -113.5q0 -56 -18.5 -111t-56.5 -100.5t-96 -72.5t-136 -27h-15zM281 111q21 0 37.5 9.5t27.5 25.5t14 35q9 56 15.5 99t6.5 62q0 26 -17 42t-43 16
q-20 0 -37 -9.5t-28 -25t-14 -35.5q-9 -55 -15.5 -98t-6.5 -63q0 -26 17 -42t43 -16zM164 -225l20 147h152l-20 -147h-152zM132 573l165 188h148l113 -188h-137l-92 160h80l-136 -160h-141z" />
    <glyph glyph-name="uni1ED3" unicode="&#x1ed3;" horiz-adv-x="613" 
d="M265 -10q-81 0 -136.5 28.5t-84 78t-28.5 113.5q0 56 18.5 111t56.5 100.5t96 72.5t136 27h17q81 0 136 -28.5t83 -78t28 -113.5q0 -56 -18.5 -111t-56.5 -100.5t-96 -72.5t-136 -27h-15zM281 111q21 0 37.5 9.5t27.5 25.5t14 35q9 56 15.5 99t6.5 62q0 26 -17 42t-43 16
q-20 0 -37 -9.5t-28 -25t-14 -35.5q-9 -55 -15.5 -98t-6.5 -63q0 -26 17 -42t43 -16zM317 786l-106 142l2 3h151l71 -145h-118zM143 588l159 148h128l119 -148h-118l-75 65l-93 -65h-120z" />
    <glyph glyph-name="uni1ED5" unicode="&#x1ed5;" horiz-adv-x="613" 
d="M265 -10q-81 0 -136.5 28.5t-84 78t-28.5 113.5q0 56 18.5 111t56.5 100.5t96 72.5t136 27h17q81 0 136 -28.5t83 -78t28 -113.5q0 -56 -18.5 -111t-56.5 -100.5t-96 -72.5t-136 -27h-15zM281 111q21 0 37.5 9.5t27.5 25.5t14 35q9 56 15.5 99t6.5 62q0 26 -17 42t-43 16
q-20 0 -37 -9.5t-28 -25t-14 -35.5q-9 -55 -15.5 -98t-6.5 -63q0 -26 17 -42t43 -16zM349 776l9 64q23 3 37.5 14t14.5 30q0 13 -8.5 18.5t-26.5 5.5q-11 0 -26 -2.5t-33 -8.5l12 88q17 5 32.5 6t30.5 1q45 0 74.5 -21.5t29.5 -62.5q0 -38 -22.5 -67t-56 -46t-67.5 -19z
M143 588l159 148h128l119 -148h-118l-75 65l-93 -65h-120z" />
    <glyph glyph-name="uni1ED7" unicode="&#x1ed7;" horiz-adv-x="613" 
d="M265 -10q-81 0 -136.5 28.5t-84 78t-28.5 113.5q0 56 18.5 111t56.5 100.5t96 72.5t136 27h17q81 0 136 -28.5t83 -78t28 -113.5q0 -56 -18.5 -111t-56.5 -100.5t-96 -72.5t-136 -27h-15zM281 111q21 0 37.5 9.5t27.5 25.5t14 35q9 56 15.5 99t6.5 62q0 26 -17 42t-43 16
q-20 0 -37 -9.5t-28 -25t-14 -35.5q-9 -55 -15.5 -98t-6.5 -63q0 -26 17 -42t43 -16zM179 776q6 42 26 73.5t50 48.5t65 17q34 0 55.5 -9t40.5 -18t42 -9q17 0 31 10t21 26h74q-6 -42 -26 -73.5t-50 -48.5t-65 -17q-33 0 -55 9t-40 18t-42 9q-17 0 -31.5 -10t-21.5 -26h-74z
M143 588l159 148h128l119 -148h-118l-75 65l-93 -65h-120z" />
    <glyph glyph-name="uni020D" unicode="&#x20d;" horiz-adv-x="613" 
d="M265 -10q-81 0 -136.5 28.5t-84 78t-28.5 113.5q0 56 18.5 111t56.5 100.5t96 72.5t136 27h17q81 0 136 -28.5t83 -78t28 -113.5q0 -56 -18.5 -111t-56.5 -100.5t-96 -72.5t-136 -27h-15zM281 111q21 0 37.5 9.5t27.5 25.5t14 35q9 56 15.5 99t6.5 62q0 26 -17 42t-43 16
q-20 0 -37 -9.5t-28 -25t-14 -35.5q-9 -55 -15.5 -98t-6.5 -63q0 -26 17 -42t43 -16zM405 590l-106 142l7 3h151l71 -145h-123zM183 590l-106 142l2 3h156l71 -145h-123z" />
    <glyph glyph-name="odieresis" unicode="&#xf6;" horiz-adv-x="613" 
d="M265 -10q-81 0 -136.5 28.5t-84 78t-28.5 113.5q0 56 18.5 111t56.5 100.5t96 72.5t136 27h17q81 0 136 -28.5t83 -78t28 -113.5q0 -56 -18.5 -111t-56.5 -100.5t-96 -72.5t-136 -27h-15zM281 111q21 0 37.5 9.5t27.5 25.5t14 35q9 56 15.5 99t6.5 62q0 26 -17 42t-43 16
q-20 0 -37 -9.5t-28 -25t-14 -35.5q-9 -55 -15.5 -98t-6.5 -63q0 -26 17 -42t43 -16zM120 584l22 152h172l-22 -152h-172zM400 584l22 152h172l-22 -152h-172z" />
    <glyph glyph-name="uni022B" unicode="&#x22b;" horiz-adv-x="613" 
d="M265 -10q-81 0 -136.5 28.5t-84 78t-28.5 113.5q0 56 18.5 111t56.5 100.5t96 72.5t136 27h17q81 0 136 -28.5t83 -78t28 -113.5q0 -56 -18.5 -111t-56.5 -100.5t-96 -72.5t-136 -27h-15zM281 111q21 0 37.5 9.5t27.5 25.5t14 35q9 56 15.5 99t6.5 62q0 26 -17 42t-43 16
q-20 0 -37 -9.5t-28 -25t-14 -35.5q-9 -55 -15.5 -98t-6.5 -63q0 -26 17 -42t43 -16zM189 782l15 104h364l-15 -104h-364zM162 592l20 140h144l-20 -140h-144zM382 592l20 140h144l-20 -140h-144z" />
    <glyph glyph-name="uni0231" unicode="&#x231;" horiz-adv-x="613" 
d="M265 -10q-81 0 -136.5 28.5t-84 78t-28.5 113.5q0 56 18.5 111t56.5 100.5t96 72.5t136 27h17q81 0 136 -28.5t83 -78t28 -113.5q0 -56 -18.5 -111t-56.5 -100.5t-96 -72.5t-136 -27h-15zM281 111q21 0 37.5 9.5t27.5 25.5t14 35q9 56 15.5 99t6.5 62q0 26 -17 42t-43 16
q-20 0 -37 -9.5t-28 -25t-14 -35.5q-9 -55 -15.5 -98t-6.5 -63q0 -26 17 -42t43 -16zM196 780l15 104h352l-15 -104h-352zM272 591l20 140h144l-20 -140h-144z" />
    <glyph glyph-name="uni1ECD" unicode="&#x1ecd;" horiz-adv-x="613" 
d="M265 -10q-81 0 -136.5 28.5t-84 78t-28.5 113.5q0 56 18.5 111t56.5 100.5t96 72.5t136 27h17q81 0 136 -28.5t83 -78t28 -113.5q0 -56 -18.5 -111t-56.5 -100.5t-96 -72.5t-136 -27h-15zM281 111q21 0 37.5 9.5t27.5 25.5t14 35q9 56 15.5 99t6.5 62q0 26 -17 42t-43 16
q-20 0 -37 -9.5t-28 -25t-14 -35.5q-9 -55 -15.5 -98t-6.5 -63q0 -26 17 -42t43 -16zM164 -225l20 147h152l-20 -147h-152z" />
    <glyph glyph-name="ograve" unicode="&#xf2;" horiz-adv-x="613" 
d="M265 -10q-81 0 -136.5 28.5t-84 78t-28.5 113.5q0 56 18.5 111t56.5 100.5t96 72.5t136 27h17q81 0 136 -28.5t83 -78t28 -113.5q0 -56 -18.5 -111t-56.5 -100.5t-96 -72.5t-136 -27h-15zM281 111q21 0 37.5 9.5t27.5 25.5t14 35q9 56 15.5 99t6.5 62q0 26 -17 42t-43 16
q-20 0 -37 -9.5t-28 -25t-14 -35.5q-9 -55 -15.5 -98t-6.5 -63q0 -26 17 -42t43 -16zM277 583l-100 175l3 3h155l65 -178h-123z" />
    <glyph glyph-name="uni1ECF" unicode="&#x1ecf;" horiz-adv-x="613" 
d="M265 -10q-81 0 -136.5 28.5t-84 78t-28.5 113.5q0 56 18.5 111t56.5 100.5t96 72.5t136 27h17q81 0 136 -28.5t83 -78t28 -113.5q0 -56 -18.5 -111t-56.5 -100.5t-96 -72.5t-136 -27h-15zM281 111q21 0 37.5 9.5t27.5 25.5t14 35q9 56 15.5 99t6.5 62q0 26 -17 42t-43 16
q-20 0 -37 -9.5t-28 -25t-14 -35.5q-9 -55 -15.5 -98t-6.5 -63q0 -26 17 -42t43 -16zM317 567l11 81q28 3 46 16.5t18 35.5q0 16 -11 24t-32 8q-14 0 -32.5 -2.5t-41.5 -10.5l16 110q21 5 40.5 7t38.5 2q57 0 93.5 -27t36.5 -77q0 -48 -27 -85t-69 -58.5t-87 -23.5z" />
    <glyph glyph-name="ohorn" unicode="&#x1a1;" horiz-adv-x="613" 
d="M265 -10q-81 0 -136.5 28.5t-84 78t-28.5 113.5q0 56 18.5 111t56.5 100.5t96 72.5t136 27h17q81 0 136 -28.5t83 -78t28 -113.5q0 -56 -18.5 -111t-56.5 -100.5t-96 -72.5t-136 -27h-15zM281 111q21 0 37.5 9.5t27.5 25.5t14 35q9 56 15.5 99t6.5 62q0 26 -17 42t-43 16
q-20 0 -37 -9.5t-28 -25t-14 -35.5q-9 -55 -15.5 -98t-6.5 -63q0 -26 17 -42t43 -16zM457 382l14 98q50 8 70 41.5t29 97.5h164q-8 -60 -47.5 -112t-99.5 -86t-130 -39z" />
    <glyph glyph-name="uni1EDB" unicode="&#x1edb;" horiz-adv-x="613" 
d="M265 -10q-81 0 -136.5 28.5t-84 78t-28.5 113.5q0 56 18.5 111t56.5 100.5t96 72.5t136 27h17q81 0 136 -28.5t83 -78t28 -113.5q0 -56 -18.5 -111t-56.5 -100.5t-96 -72.5t-136 -27h-15zM281 111q21 0 37.5 9.5t27.5 25.5t14 35q9 56 15.5 99t6.5 62q0 26 -17 42t-43 16
q-20 0 -37 -9.5t-28 -25t-14 -35.5q-9 -55 -15.5 -98t-6.5 -63q0 -26 17 -42t43 -16zM457 382l14 98q50 8 70 41.5t29 97.5h164q-8 -60 -47.5 -112t-99.5 -86t-130 -39zM275 583l117 178h165l1 -3l-150 -175h-133z" />
    <glyph glyph-name="uni1EE3" unicode="&#x1ee3;" horiz-adv-x="613" 
d="M265 -10q-81 0 -136.5 28.5t-84 78t-28.5 113.5q0 56 18.5 111t56.5 100.5t96 72.5t136 27h17q81 0 136 -28.5t83 -78t28 -113.5q0 -56 -18.5 -111t-56.5 -100.5t-96 -72.5t-136 -27h-15zM281 111q21 0 37.5 9.5t27.5 25.5t14 35q9 56 15.5 99t6.5 62q0 26 -17 42t-43 16
q-20 0 -37 -9.5t-28 -25t-14 -35.5q-9 -55 -15.5 -98t-6.5 -63q0 -26 17 -42t43 -16zM457 382l14 98q50 8 70 41.5t29 97.5h164q-8 -60 -47.5 -112t-99.5 -86t-130 -39zM164 -225l20 147h152l-20 -147h-152z" />
    <glyph glyph-name="uni1EDD" unicode="&#x1edd;" horiz-adv-x="613" 
d="M265 -10q-81 0 -136.5 28.5t-84 78t-28.5 113.5q0 56 18.5 111t56.5 100.5t96 72.5t136 27h17q81 0 136 -28.5t83 -78t28 -113.5q0 -56 -18.5 -111t-56.5 -100.5t-96 -72.5t-136 -27h-15zM281 111q21 0 37.5 9.5t27.5 25.5t14 35q9 56 15.5 99t6.5 62q0 26 -17 42t-43 16
q-20 0 -37 -9.5t-28 -25t-14 -35.5q-9 -55 -15.5 -98t-6.5 -63q0 -26 17 -42t43 -16zM457 382l14 98q50 8 70 41.5t29 97.5h164q-8 -60 -47.5 -112t-99.5 -86t-130 -39zM277 583l-100 175l3 3h155l65 -178h-123z" />
    <glyph glyph-name="uni1EDF" unicode="&#x1edf;" horiz-adv-x="613" 
d="M265 -10q-81 0 -136.5 28.5t-84 78t-28.5 113.5q0 56 18.5 111t56.5 100.5t96 72.5t136 27h17q81 0 136 -28.5t83 -78t28 -113.5q0 -56 -18.5 -111t-56.5 -100.5t-96 -72.5t-136 -27h-15zM281 111q21 0 37.5 9.5t27.5 25.5t14 35q9 56 15.5 99t6.5 62q0 26 -17 42t-43 16
q-20 0 -37 -9.5t-28 -25t-14 -35.5q-9 -55 -15.5 -98t-6.5 -63q0 -26 17 -42t43 -16zM457 382l14 98q50 8 70 41.5t29 97.5h164q-8 -60 -47.5 -112t-99.5 -86t-130 -39zM317 567l11 81q28 3 46 16.5t18 35.5q0 16 -11 24t-32 8q-14 0 -32.5 -2.5t-41.5 -10.5l16 110
q21 5 40.5 7t38.5 2q57 0 93.5 -27t36.5 -77q0 -48 -27 -85t-69 -58.5t-87 -23.5z" />
    <glyph glyph-name="uni1EE1" unicode="&#x1ee1;" horiz-adv-x="613" 
d="M265 -10q-81 0 -136.5 28.5t-84 78t-28.5 113.5q0 56 18.5 111t56.5 100.5t96 72.5t136 27h17q81 0 136 -28.5t83 -78t28 -113.5q0 -56 -18.5 -111t-56.5 -100.5t-96 -72.5t-136 -27h-15zM281 111q21 0 37.5 9.5t27.5 25.5t14 35q9 56 15.5 99t6.5 62q0 26 -17 42t-43 16
q-20 0 -37 -9.5t-28 -25t-14 -35.5q-9 -55 -15.5 -98t-6.5 -63q0 -26 17 -42t43 -16zM457 382l14 98q50 8 70 41.5t29 97.5h164q-8 -60 -47.5 -112t-99.5 -86t-130 -39zM127 581q11 52 32 91t51 60.5t69 21.5q36 0 64.5 -15t53 -30t47.5 -15q22 0 36.5 17t23.5 43h81
q-10 -52 -31.5 -91t-51.5 -60.5t-69 -21.5q-36 0 -64.5 15t-53 30t-47.5 15q-22 0 -36.5 -17t-23.5 -43h-81z" />
    <glyph glyph-name="ohungarumlaut" unicode="&#x151;" horiz-adv-x="613" 
d="M265 -10q-81 0 -136.5 28.5t-84 78t-28.5 113.5q0 56 18.5 111t56.5 100.5t96 72.5t136 27h17q81 0 136 -28.5t83 -78t28 -113.5q0 -56 -18.5 -111t-56.5 -100.5t-96 -72.5t-136 -27h-15zM281 111q21 0 37.5 9.5t27.5 25.5t14 35q9 56 15.5 99t6.5 62q0 26 -17 42t-43 16
q-20 0 -37 -9.5t-28 -25t-14 -35.5q-9 -55 -15.5 -98t-6.5 -63q0 -26 17 -42t43 -16zM383 590l111 145h156l2 -3l-146 -142h-123zM161 590l111 145h151l7 -3l-146 -142h-123z" />
    <glyph glyph-name="uni020F" unicode="&#x20f;" horiz-adv-x="613" 
d="M265 -10q-81 0 -136.5 28.5t-84 78t-28.5 113.5q0 56 18.5 111t56.5 100.5t96 72.5t136 27h17q81 0 136 -28.5t83 -78t28 -113.5q0 -56 -18.5 -111t-56.5 -100.5t-96 -72.5t-136 -27h-15zM281 111q21 0 37.5 9.5t27.5 25.5t14 35q9 56 15.5 99t6.5 62q0 26 -17 42t-43 16
q-20 0 -37 -9.5t-28 -25t-14 -35.5q-9 -55 -15.5 -98t-6.5 -63q0 -26 17 -42t43 -16zM152 588q6 44 31 77t69 51.5t105 18.5q66 0 108 -18.5t60 -51.5t12 -77h-101q-1 24 -20.5 37.5t-63.5 13.5t-68 -13.5t-32 -37.5h-100z" />
    <glyph glyph-name="omacron" unicode="&#x14d;" horiz-adv-x="613" 
d="M265 -10q-81 0 -136.5 28.5t-84 78t-28.5 113.5q0 56 18.5 111t56.5 100.5t96 72.5t136 27h17q81 0 136 -28.5t83 -78t28 -113.5q0 -56 -18.5 -111t-56.5 -100.5t-96 -72.5t-136 -27h-15zM281 111q21 0 37.5 9.5t27.5 25.5t14 35q9 56 15.5 99t6.5 62q0 26 -17 42t-43 16
q-20 0 -37 -9.5t-28 -25t-14 -35.5q-9 -55 -15.5 -98t-6.5 -63q0 -26 17 -42t43 -16zM163 607l14 100h368l-14 -100h-368z" />
    <glyph glyph-name="uni01EB" unicode="&#x1eb;" horiz-adv-x="613" 
d="M265 -10q-81 0 -136.5 28.5t-84 78t-28.5 113.5q0 56 18.5 111t56.5 100.5t96 72.5t136 27h17q81 0 136 -28.5t83 -78t28 -113.5q0 -56 -18.5 -111t-56.5 -100.5t-96 -72.5t-136 -27h-15zM281 111q21 0 37.5 9.5t27.5 25.5t14 35q9 56 15.5 99t6.5 62q0 26 -17 42t-43 16
q-20 0 -37 -9.5t-28 -25t-14 -35.5q-9 -55 -15.5 -98t-6.5 -63q0 -26 17 -42t43 -16zM292 -150q-40 0 -68 16t-28 51q0 29 15.5 49.5t35.5 33.5h118q-21 -12 -35.5 -24.5t-14.5 -32.5q0 -13 9 -18.5t22 -5.5t28.5 4t29.5 9l7 -51q-25 -14 -57 -22.5t-62 -8.5z" />
    <glyph glyph-name="oslash" unicode="&#xf8;" horiz-adv-x="613" 
d="M265 -10q-81 0 -136.5 28.5t-84 78t-28.5 113.5q0 56 18.5 111t56.5 100.5t96 72.5t136 27h17q81 0 136 -28.5t83 -78t28 -113.5q0 -56 -18.5 -111t-56.5 -100.5t-96 -72.5t-136 -27h-15zM281 111q21 0 37.5 9.5t27.5 25.5t14 35q9 56 15.5 99t6.5 62q0 26 -17 42t-43 16
q-20 0 -37 -9.5t-28 -25t-14 -35.5q-9 -55 -15.5 -98t-6.5 -63q0 -26 17 -42t43 -16zM16 -50l485 624h92l-485 -624h-92z" />
    <glyph glyph-name="oslashacute" unicode="&#x1ff;" horiz-adv-x="613" 
d="M265 -10q-81 0 -136.5 28.5t-84 78t-28.5 113.5q0 56 18.5 111t56.5 100.5t96 72.5t136 27h17q81 0 136 -28.5t83 -78t28 -113.5q0 -56 -18.5 -111t-56.5 -100.5t-96 -72.5t-136 -27h-15zM281 111q21 0 37.5 9.5t27.5 25.5t14 35q9 56 15.5 99t6.5 62q0 26 -17 42t-43 16
q-20 0 -37 -9.5t-28 -25t-14 -35.5q-9 -55 -15.5 -98t-6.5 -63q0 -26 17 -42t43 -16zM16 -50l485 624h92l-485 -624h-92zM275 583l117 178h165l1 -3l-150 -175h-133z" />
    <glyph glyph-name="otilde" unicode="&#xf5;" horiz-adv-x="613" 
d="M265 -10q-81 0 -136.5 28.5t-84 78t-28.5 113.5q0 56 18.5 111t56.5 100.5t96 72.5t136 27h17q81 0 136 -28.5t83 -78t28 -113.5q0 -56 -18.5 -111t-56.5 -100.5t-96 -72.5t-136 -27h-15zM281 111q21 0 37.5 9.5t27.5 25.5t14 35q9 56 15.5 99t6.5 62q0 26 -17 42t-43 16
q-20 0 -37 -9.5t-28 -25t-14 -35.5q-9 -55 -15.5 -98t-6.5 -63q0 -26 17 -42t43 -16zM127 581q11 52 32 91t51 60.5t69 21.5q36 0 64.5 -15t53 -30t47.5 -15q22 0 36.5 17t23.5 43h81q-10 -52 -31.5 -91t-51.5 -60.5t-69 -21.5q-36 0 -64.5 15t-53 30t-47.5 15
q-22 0 -36.5 -17t-23.5 -43h-81z" />
    <glyph glyph-name="uni022D" unicode="&#x22d;" horiz-adv-x="613" 
d="M265 -10q-81 0 -136.5 28.5t-84 78t-28.5 113.5q0 56 18.5 111t56.5 100.5t96 72.5t136 27h17q81 0 136 -28.5t83 -78t28 -113.5q0 -56 -18.5 -111t-56.5 -100.5t-96 -72.5t-136 -27h-15zM281 111q21 0 37.5 9.5t27.5 25.5t14 35q9 56 15.5 99t6.5 62q0 26 -17 42t-43 16
q-20 0 -37 -9.5t-28 -25t-14 -35.5q-9 -55 -15.5 -98t-6.5 -63q0 -26 17 -42t43 -16zM127 586q7 46 29 80.5t55 53.5t71 19q37 0 63.5 -10t49.5 -20t49 -10q19 0 34.5 11.5t23.5 28.5h81q-6 -46 -28.5 -80.5t-55 -53.5t-71.5 -19q-37 0 -63.5 10t-49.5 20t-49 10
q-19 0 -34.5 -11.5t-23.5 -28.5h-81zM188 788l14 96h368l-14 -96h-368z" />
    <glyph glyph-name="oe" unicode="&#x153;" horiz-adv-x="952" 
d="M264 -10q-81 0 -136.5 27t-84 75.5t-28.5 112.5q0 56 18 112t56 102t96 74t137 28h17q53 0 95 -12t73 -34q37 23 82 34.5t95 11.5h25q72 0 120 -25t72.5 -68.5t24.5 -97.5q0 -18 -1.5 -33t-3.5 -31t-6 -37h-333q-3 -16 -5.5 -31.5t-2.5 -27.5q0 -29 19.5 -44t48.5 -15
q24 0 41.5 10t28.5 28.5t14 42.5h183q-8 -56 -44 -102t-95.5 -73t-138.5 -27h-15q-49 0 -92 12t-75 35q-36 -22 -78.5 -34.5t-91.5 -12.5h-15zM280 111q22 0 38.5 9.5t27 25.5t13.5 35q5 28 10 60t8.5 59t3.5 39q0 23 -16 42t-44 19q-20 0 -37 -9.5t-28 -25t-14 -35.5
q-9 -55 -15.5 -98t-6.5 -63q0 -26 17 -42t43 -16zM594 316h138q0 3 1 8.5t1 14.5q0 26 -16.5 43.5t-42.5 17.5q-32 0 -54 -21.5t-27 -62.5z" />
    <glyph glyph-name="p" unicode="p" horiz-adv-x="599" 
d="M-16 -181l96 692h158l10 -59q25 26 58.5 47.5t80.5 21.5q80 0 132.5 -50t52.5 -152q0 -53 -13 -110.5t-41 -107t-72.5 -80.5t-108.5 -31q-46 0 -78.5 18.5t-44.5 44.5l-33 -234h-197zM285 115q22 0 36.5 9.5t23.5 25.5t12 35q9 57 15 102t6 55q0 29 -15 43.5t-38 14.5
q-18 0 -33.5 -9.5t-25.5 -25t-13 -35.5q-8 -55 -14.5 -98.5t-6.5 -61.5q0 -17 7 -29.5t19 -19t27 -6.5z" />
    <glyph glyph-name="thorn" unicode="&#xfe;" horiz-adv-x="599" 
d="M-16 -181l125 901h198l-34 -244q22 19 50 32t64 13q80 0 132.5 -50t52.5 -152q0 -53 -13 -110.5t-41 -107t-72.5 -80.5t-108.5 -31q-46 0 -78.5 18.5t-44.5 44.5l-33 -234h-197zM285 115q22 0 36.5 9.5t23.5 25.5t12 35q9 57 15 102t6 55q0 29 -15 43.5t-38 14.5
q-18 0 -33.5 -9.5t-25.5 -25t-13 -35.5q-8 -55 -14.5 -98.5t-6.5 -61.5q0 -17 7 -29.5t19 -19t27 -6.5z" />
    <glyph glyph-name="q" unicode="q" horiz-adv-x="599" 
d="M285 -180l33 232q-12 -12 -32 -26.5t-47 -25.5t-62 -11q-70 0 -115.5 48.5t-45.5 146.5q0 57 14 116.5t44.5 109t80 80t121.5 30.5q51 0 88.5 -18t60.5 -59l85 68h70l-97 -691h-198zM264 114q22 0 36.5 9.5t23.5 25.5t12 35l10 68t8 59.5t3 32.5q0 29 -16 42t-39 13
q-18 0 -33 -8t-24.5 -23.5t-13.5 -37.5q-10 -67 -15 -106.5t-5 -53.5q0 -26 15 -41t38 -15z" />
    <glyph glyph-name="r" unicode="r" horiz-adv-x="504" 
d="M8 0l72 511h148l11 -74q3 6 15 19.5t31 28.5t45 25.5t56 10.5q60 0 91 -30t31 -81q0 -28 -5 -55.5t-12 -50.5h-162q2 9 2.5 17.5t0.5 14.5q0 16 -4.5 25t-12.5 13t-18 4t-19 -4t-15 -10.5t-10 -15.5t-6 -20l-46 -328h-193z" />
    <glyph glyph-name="racute" unicode="&#x155;" horiz-adv-x="504" 
d="M8 0l72 511h148l11 -74q3 6 15 19.5t31 28.5t45 25.5t56 10.5q60 0 91 -30t31 -81q0 -28 -5 -55.5t-12 -50.5h-162q2 9 2.5 17.5t0.5 14.5q0 16 -4.5 25t-12.5 13t-18 4t-19 -4t-15 -10.5t-10 -15.5t-6 -20l-46 -328h-193zM234 583l117 178h165l1 -3l-150 -175h-133z" />
    <glyph glyph-name="rcaron" unicode="&#x159;" horiz-adv-x="504" 
d="M8 0l72 511h148l11 -74q3 6 15 19.5t31 28.5t45 25.5t56 10.5q60 0 91 -30t31 -81q0 -28 -5 -55.5t-12 -50.5h-162q2 9 2.5 17.5t0.5 14.5q0 16 -4.5 25t-12.5 13t-18 4t-19 -4t-15 -10.5t-10 -15.5t-6 -20l-46 -328h-193zM540 766l-165 -188h-148l-113 188h138l92 -160
h-80l136 160h140z" />
    <glyph glyph-name="uni0157" unicode="&#x157;" horiz-adv-x="504" 
d="M8 0l72 511h148l11 -74q3 6 15 19.5t31 28.5t45 25.5t56 10.5q60 0 91 -30t31 -81q0 -28 -5 -55.5t-12 -50.5h-162q2 9 2.5 17.5t0.5 14.5q0 16 -4.5 25t-12.5 13t-18 4t-19 -4t-15 -10.5t-10 -15.5t-6 -20l-46 -328h-193zM-27 -413l3 20q40 35 62.5 73t27.5 78h-73
l24 165h159l-20 -139q-7 -56 -32.5 -107t-68.5 -90h-82z" />
    <glyph glyph-name="uni0211" unicode="&#x211;" horiz-adv-x="504" 
d="M8 0l72 511h148l11 -74q3 6 15 19.5t31 28.5t45 25.5t56 10.5q60 0 91 -30t31 -81q0 -28 -5 -55.5t-12 -50.5h-162q2 9 2.5 17.5t0.5 14.5q0 16 -4.5 25t-12.5 13t-18 4t-19 -4t-15 -10.5t-10 -15.5t-6 -20l-46 -328h-193zM364 590l-106 142l7 3h151l71 -145h-123z
M142 590l-106 142l2 3h156l71 -145h-123z" />
    <glyph glyph-name="uni0213" unicode="&#x213;" horiz-adv-x="504" 
d="M8 0l72 511h148l11 -74q3 6 15 19.5t31 28.5t45 25.5t56 10.5q60 0 91 -30t31 -81q0 -28 -5 -55.5t-12 -50.5h-162q2 9 2.5 17.5t0.5 14.5q0 16 -4.5 25t-12.5 13t-18 4t-19 -4t-15 -10.5t-10 -15.5t-6 -20l-46 -328h-193zM111 588q6 44 31 77t69 51.5t105 18.5
q66 0 108 -18.5t60 -51.5t12 -77h-101q-1 24 -20.5 37.5t-63.5 13.5t-68 -13.5t-32 -37.5h-100z" />
    <glyph glyph-name="s" unicode="s" horiz-adv-x="559" 
d="M228 -10q-71 0 -122 14.5t-78 45t-27 77.5q0 10 1 20.5t3 19.5h162q-1 -4 -1 -6v-5q0 -18 13 -28t31.5 -13.5t34.5 -3.5q7 0 22.5 1t32 4t28.5 10t12 19q0 17 -21.5 24.5t-55 12.5t-71.5 12t-71.5 22t-55 42.5t-21.5 73.5q0 54 23.5 90t62 58t84.5 31.5t91 9.5h8
q39 0 78.5 -7.5t72 -22.5t52 -38.5t19.5 -55.5q0 -13 -2 -22t-5 -17h-165q1 2 1 5v4q0 11 -8 19t-22 12.5t-34 4.5q-7 0 -20.5 -0.5t-28 -3.5t-24.5 -9.5t-10 -18.5q0 -16 21.5 -23.5t55.5 -12t72.5 -12t72.5 -23t55.5 -44t21.5 -77.5q0 -36 -15.5 -70t-48.5 -60.5
t-86 -42.5t-128 -16h-10z" />
    <glyph glyph-name="sacute" unicode="&#x15b;" horiz-adv-x="559" 
d="M228 -10q-71 0 -122 14.5t-78 45t-27 77.5q0 10 1 20.5t3 19.5h162q-1 -4 -1 -6v-5q0 -18 13 -28t31.5 -13.5t34.5 -3.5q7 0 22.5 1t32 4t28.5 10t12 19q0 17 -21.5 24.5t-55 12.5t-71.5 12t-71.5 22t-55 42.5t-21.5 73.5q0 54 23.5 90t62 58t84.5 31.5t91 9.5h8
q39 0 78.5 -7.5t72 -22.5t52 -38.5t19.5 -55.5q0 -13 -2 -22t-5 -17h-165q1 2 1 5v4q0 11 -8 19t-22 12.5t-34 4.5q-7 0 -20.5 -0.5t-28 -3.5t-24.5 -9.5t-10 -18.5q0 -16 21.5 -23.5t55.5 -12t72.5 -12t72.5 -23t55.5 -44t21.5 -77.5q0 -36 -15.5 -70t-48.5 -60.5
t-86 -42.5t-128 -16h-10zM240 583l117 178h165l1 -3l-150 -175h-133z" />
    <glyph glyph-name="scaron" unicode="&#x161;" horiz-adv-x="559" 
d="M228 -10q-71 0 -122 14.5t-78 45t-27 77.5q0 10 1 20.5t3 19.5h162q-1 -4 -1 -6v-5q0 -18 13 -28t31.5 -13.5t34.5 -3.5q7 0 22.5 1t32 4t28.5 10t12 19q0 17 -21.5 24.5t-55 12.5t-71.5 12t-71.5 22t-55 42.5t-21.5 73.5q0 54 23.5 90t62 58t84.5 31.5t91 9.5h8
q39 0 78.5 -7.5t72 -22.5t52 -38.5t19.5 -55.5q0 -13 -2 -22t-5 -17h-165q1 2 1 5v4q0 11 -8 19t-22 12.5t-34 4.5q-7 0 -20.5 -0.5t-28 -3.5t-24.5 -9.5t-10 -18.5q0 -16 21.5 -23.5t55.5 -12t72.5 -12t72.5 -23t55.5 -44t21.5 -77.5q0 -36 -15.5 -70t-48.5 -60.5
t-86 -42.5t-128 -16h-10zM546 766l-165 -188h-148l-113 188h138l92 -160h-80l136 160h140z" />
    <glyph glyph-name="scedilla" unicode="&#x15f;" horiz-adv-x="559" 
d="M228 -10q-71 0 -122 14.5t-78 45t-27 77.5q0 10 1 20.5t3 19.5h162q-1 -4 -1 -6v-5q0 -18 13 -28t31.5 -13.5t34.5 -3.5q7 0 22.5 1t32 4t28.5 10t12 19q0 17 -21.5 24.5t-55 12.5t-71.5 12t-71.5 22t-55 42.5t-21.5 73.5q0 54 23.5 90t62 58t84.5 31.5t91 9.5h8
q39 0 78.5 -7.5t72 -22.5t52 -38.5t19.5 -55.5q0 -13 -2 -22t-5 -17h-165q1 2 1 5v4q0 11 -8 19t-22 12.5t-34 4.5q-7 0 -20.5 -0.5t-28 -3.5t-24.5 -9.5t-10 -18.5q0 -16 21.5 -23.5t55.5 -12t72.5 -12t72.5 -23t55.5 -44t21.5 -77.5q0 -36 -15.5 -70t-48.5 -60.5
t-86 -42.5t-128 -16h-10zM204 -212q-32 0 -62 9.5t-50 26.5l41 61q15 -11 32.5 -20.5t46.5 -9.5q11 0 19.5 3.5t13.5 10t5 16.5q0 9 -6 13t-16 4h-24l10 66h38q38 0 67 -16t29 -54t-21.5 -62.5t-54.5 -36t-68 -11.5z" />
    <glyph glyph-name="scircumflex" unicode="&#x15d;" horiz-adv-x="559" 
d="M228 -10q-71 0 -122 14.5t-78 45t-27 77.5q0 10 1 20.5t3 19.5h162q-1 -4 -1 -6v-5q0 -18 13 -28t31.5 -13.5t34.5 -3.5q7 0 22.5 1t32 4t28.5 10t12 19q0 17 -21.5 24.5t-55 12.5t-71.5 12t-71.5 22t-55 42.5t-21.5 73.5q0 54 23.5 90t62 58t84.5 31.5t91 9.5h8
q39 0 78.5 -7.5t72 -22.5t52 -38.5t19.5 -55.5q0 -13 -2 -22t-5 -17h-165q1 2 1 5v4q0 11 -8 19t-22 12.5t-34 4.5q-7 0 -20.5 -0.5t-28 -3.5t-24.5 -9.5t-10 -18.5q0 -16 21.5 -23.5t55.5 -12t72.5 -12t72.5 -23t55.5 -44t21.5 -77.5q0 -36 -15.5 -70t-48.5 -60.5
t-86 -42.5t-128 -16h-10zM97 573l165 188h148l113 -188h-137l-92 160h80l-136 -160h-141z" />
    <glyph glyph-name="uni0219" unicode="&#x219;" horiz-adv-x="559" 
d="M228 -10q-71 0 -122 14.5t-78 45t-27 77.5q0 10 1 20.5t3 19.5h162q-1 -4 -1 -6v-5q0 -18 13 -28t31.5 -13.5t34.5 -3.5q7 0 22.5 1t32 4t28.5 10t12 19q0 17 -21.5 24.5t-55 12.5t-71.5 12t-71.5 22t-55 42.5t-21.5 73.5q0 54 23.5 90t62 58t84.5 31.5t91 9.5h8
q39 0 78.5 -7.5t72 -22.5t52 -38.5t19.5 -55.5q0 -13 -2 -22t-5 -17h-165q1 2 1 5v4q0 11 -8 19t-22 12.5t-34 4.5q-7 0 -20.5 -0.5t-28 -3.5t-24.5 -9.5t-10 -18.5q0 -16 21.5 -23.5t55.5 -12t72.5 -12t72.5 -23t55.5 -44t21.5 -77.5q0 -36 -15.5 -70t-48.5 -60.5
t-86 -42.5t-128 -16h-10zM110 -413l3 20q40 35 62.5 73t27.5 78h-73l24 165h159l-20 -139q-7 -56 -32.5 -107t-68.5 -90h-82z" />
    <glyph glyph-name="uni1E63" unicode="&#x1e63;" horiz-adv-x="559" 
d="M228 -10q-71 0 -122 14.5t-78 45t-27 77.5q0 10 1 20.5t3 19.5h162q-1 -4 -1 -6v-5q0 -18 13 -28t31.5 -13.5t34.5 -3.5q7 0 22.5 1t32 4t28.5 10t12 19q0 17 -21.5 24.5t-55 12.5t-71.5 12t-71.5 22t-55 42.5t-21.5 73.5q0 54 23.5 90t62 58t84.5 31.5t91 9.5h8
q39 0 78.5 -7.5t72 -22.5t52 -38.5t19.5 -55.5q0 -13 -2 -22t-5 -17h-165q1 2 1 5v4q0 11 -8 19t-22 12.5t-34 4.5q-7 0 -20.5 -0.5t-28 -3.5t-24.5 -9.5t-10 -18.5q0 -16 21.5 -23.5t55.5 -12t72.5 -12t72.5 -23t55.5 -44t21.5 -77.5q0 -36 -15.5 -70t-48.5 -60.5
t-86 -42.5t-128 -16h-10zM134 -225l20 147h152l-20 -147h-152z" />
    <glyph glyph-name="germandbls" unicode="&#xdf;" horiz-adv-x="652" 
d="M37 -66l61 435h-62l20 142h62q14 76 59 124t107.5 70.5t125.5 22.5q41 0 81 -8.5t73.5 -27t53.5 -49t20 -74.5q0 -36 -14.5 -71t-40.5 -62t-62 -41v-5q45 -17 71 -57.5t26 -90.5q0 -72 -34.5 -126.5t-96.5 -85t-144 -30.5h-63l21 148h28q24 0 45.5 14t35 36.5t13.5 48.5
q0 32 -19.5 53t-50.5 21h-28l17 122h27q19 0 36 10.5t28 28t11 39.5q0 25 -15.5 41.5t-39.5 16.5q-27 0 -48 -19.5t-25 -48.5l-81 -577h-198z" />
    <glyph glyph-name="longs" unicode="&#x17f;" horiz-adv-x="418" 
d="M37 -187q-18 0 -42.5 2t-48.5 7t-40 13l16 112q12 -5 29.5 -8.5t30.5 -3.5q33 0 47.5 19.5t19.5 49.5l51 365h-64l20 142h64l9 66q8 56 36.5 89t72.5 47.5t96 14.5q17 0 41.5 -2t49 -7t39.5 -13l-15 -110q-13 4 -30 7t-31 3q-36 0 -48.5 -18t-16.5 -44l-80 -570
q-11 -82 -68.5 -121.5t-137.5 -39.5z" />
    <glyph glyph-name="t" unicode="t" horiz-adv-x="419" 
d="M219 -11q-74 0 -119.5 24t-45.5 83q0 11 2.5 35t7.5 59.5t11.5 80.5t14.5 98h-56l20 142h56l93 163h139l-34 -163h120l-20 -142h-120q-8 -59 -15 -104.5t-10.5 -74t-3.5 -36.5q0 -28 14 -35.5t36 -7.5q11 0 30.5 3.5t32.5 8.5l-16 -112q-17 -6 -42.5 -11t-51.5 -8t-43 -3
z" />
    <glyph glyph-name="tbar" unicode="&#x167;" horiz-adv-x="419" 
d="M219 -11q-74 0 -119.5 24t-45.5 83q0 11 2.5 35t7.5 59.5t11.5 80.5t14.5 98h-56l20 142h56l93 163h139l-34 -163h120l-20 -142h-120q-8 -59 -15 -104.5t-10.5 -74t-3.5 -36.5q0 -28 14 -35.5t36 -7.5q11 0 30.5 3.5t32.5 8.5l-16 -112q-17 -6 -42.5 -11t-51.5 -8t-43 -3
zM9 195l18 126h374l-18 -126h-374z" />
    <glyph glyph-name="tcaron" unicode="&#x165;" horiz-adv-x="419" 
d="M219 -11q-74 0 -119.5 24t-45.5 83q0 11 2.5 35t7.5 59.5t11.5 80.5t14.5 98h-56l20 142h56l93 163h139l-34 -163h120l-20 -142h-120q-8 -59 -15 -104.5t-10.5 -74t-3.5 -36.5q0 -28 14 -35.5t36 -7.5q11 0 30.5 3.5t32.5 8.5l-16 -112q-17 -6 -42.5 -11t-51.5 -8t-43 -3
zM359 577l3 19q35 32 56.5 65.5t26.5 71.5h-69l22 152h149l-17 -128q-8 -52 -32 -97.5t-63 -82.5h-76z" />
    <glyph glyph-name="uni0163" unicode="&#x163;" horiz-adv-x="419" 
d="M219 -11q-74 0 -119.5 24t-45.5 83q0 11 2.5 35t7.5 59.5t11.5 80.5t14.5 98h-56l20 142h56l93 163h139l-34 -163h120l-20 -142h-120q-8 -59 -15 -104.5t-10.5 -74t-3.5 -36.5q0 -28 14 -35.5t36 -7.5q11 0 30.5 3.5t32.5 8.5l-16 -112q-17 -6 -42.5 -11t-51.5 -8t-43 -3
zM164 -212q-32 0 -62 9.5t-50 26.5l41 61q15 -11 32.5 -20.5t46.5 -9.5q11 0 19.5 3.5t13.5 10t5 16.5q0 9 -6 13t-16 4h-24l10 66h38q38 0 67 -16t29 -54t-21.5 -62.5t-54.5 -36t-68 -11.5z" />
    <glyph glyph-name="uni021B" unicode="&#x21b;" horiz-adv-x="419" 
d="M219 -11q-74 0 -119.5 24t-45.5 83q0 11 2.5 35t7.5 59.5t11.5 80.5t14.5 98h-56l20 142h56l93 163h139l-34 -163h120l-20 -142h-120q-8 -59 -15 -104.5t-10.5 -74t-3.5 -36.5q0 -28 14 -35.5t36 -7.5q11 0 30.5 3.5t32.5 8.5l-16 -112q-17 -6 -42.5 -11t-51.5 -8t-43 -3
zM70 -413l3 20q40 35 62.5 73t27.5 78h-73l24 165h159l-20 -139q-7 -56 -32.5 -107t-68.5 -90h-82z" />
    <glyph glyph-name="uni1E6D" unicode="&#x1e6d;" horiz-adv-x="419" 
d="M219 -11q-74 0 -119.5 24t-45.5 83q0 11 2.5 35t7.5 59.5t11.5 80.5t14.5 98h-56l20 142h56l93 163h139l-34 -163h120l-20 -142h-120q-8 -59 -15 -104.5t-10.5 -74t-3.5 -36.5q0 -28 14 -35.5t36 -7.5q11 0 30.5 3.5t32.5 8.5l-16 -112q-17 -6 -42.5 -11t-51.5 -8t-43 -3
zM94 -225l20 147h152l-20 -147h-152z" />
    <glyph glyph-name="u" unicode="u" horiz-adv-x="627" 
d="M168 -10q-72 0 -108 37t-36 92q0 19 7.5 76t19.5 140t26 176h198q-12 -84 -22.5 -156t-17 -120.5t-6.5 -63.5q0 -19 12 -29.5t34 -10.5q18 0 30.5 8t20.5 22t10 30l45 320h198q-6 -38 -11.5 -75t-10.5 -72t-9.5 -67t-8 -59t-6.5 -47.5t-4.5 -33.5t-1.5 -17q0 -15 8.5 -22
t18.5 -7q9 0 17.5 2.5t18.5 6.5l-15 -107q-16 -10 -41 -16.5t-63 -6.5q-67 0 -97.5 21.5t-38.5 59.5q-9 -11 -30 -30.5t-55 -35t-82 -15.5z" />
    <glyph glyph-name="uacute" unicode="&#xfa;" horiz-adv-x="627" 
d="M168 -10q-72 0 -108 37t-36 92q0 19 7.5 76t19.5 140t26 176h198q-12 -84 -22.5 -156t-17 -120.5t-6.5 -63.5q0 -19 12 -29.5t34 -10.5q18 0 30.5 8t20.5 22t10 30l45 320h198q-6 -38 -11.5 -75t-10.5 -72t-9.5 -67t-8 -59t-6.5 -47.5t-4.5 -33.5t-1.5 -17q0 -15 8.5 -22
t18.5 -7q9 0 17.5 2.5t18.5 6.5l-15 -107q-16 -10 -41 -16.5t-63 -6.5q-67 0 -97.5 21.5t-38.5 59.5q-9 -11 -30 -30.5t-55 -35t-82 -15.5zM262 583l117 178h165l1 -3l-150 -175h-133z" />
    <glyph glyph-name="uni0289" unicode="&#x289;" horiz-adv-x="627" 
d="M7 367h609l-18 -128h-609zM168 -10q-72 0 -108 37t-36 92q0 19 7.5 76t19.5 140t26 176h198q-12 -84 -22.5 -156t-17 -120.5t-6.5 -63.5q0 -19 12 -29.5t34 -10.5q18 0 30.5 8t20.5 22t10 30l45 320h198q-6 -38 -11.5 -75t-10.5 -72t-9.5 -67t-8 -59t-6.5 -47.5
t-4.5 -33.5t-1.5 -17q0 -15 8.5 -22t18.5 -7q9 0 17.5 2.5t18.5 6.5l-15 -107q-16 -10 -41 -16.5t-63 -6.5q-67 0 -97.5 21.5t-38.5 59.5q-9 -11 -30 -30.5t-55 -35t-82 -15.5z" />
    <glyph glyph-name="ubreve" unicode="&#x16d;" horiz-adv-x="627" 
d="M168 -10q-72 0 -108 37t-36 92q0 19 7.5 76t19.5 140t26 176h198q-12 -84 -22.5 -156t-17 -120.5t-6.5 -63.5q0 -19 12 -29.5t34 -10.5q18 0 30.5 8t20.5 22t10 30l45 320h198q-6 -38 -11.5 -75t-10.5 -72t-9.5 -67t-8 -59t-6.5 -47.5t-4.5 -33.5t-1.5 -17q0 -15 8.5 -22
t18.5 -7q9 0 17.5 2.5t18.5 6.5l-15 -107q-16 -10 -41 -16.5t-63 -6.5q-67 0 -97.5 21.5t-38.5 59.5q-9 -11 -30 -30.5t-55 -35t-82 -15.5zM336 588q-66 0 -107 21t-57.5 58.5t-9.5 87.5h101q-1 -34 18.5 -52.5t63.5 -18.5t68.5 18.5t34.5 52.5h100q-7 -50 -34 -87.5
t-71.5 -58.5t-106.5 -21z" />
    <glyph glyph-name="uni01D4" unicode="&#x1d4;" horiz-adv-x="627" 
d="M168 -10q-72 0 -108 37t-36 92q0 19 7.5 76t19.5 140t26 176h198q-12 -84 -22.5 -156t-17 -120.5t-6.5 -63.5q0 -19 12 -29.5t34 -10.5q18 0 30.5 8t20.5 22t10 30l45 320h198q-6 -38 -11.5 -75t-10.5 -72t-9.5 -67t-8 -59t-6.5 -47.5t-4.5 -33.5t-1.5 -17q0 -15 8.5 -22
t18.5 -7q9 0 17.5 2.5t18.5 6.5l-15 -107q-16 -10 -41 -16.5t-63 -6.5q-67 0 -97.5 21.5t-38.5 59.5q-9 -11 -30 -30.5t-55 -35t-82 -15.5zM568 766l-165 -188h-148l-113 188h138l92 -160h-80l136 160h140z" />
    <glyph glyph-name="ucircumflex" unicode="&#xfb;" horiz-adv-x="627" 
d="M168 -10q-72 0 -108 37t-36 92q0 19 7.5 76t19.5 140t26 176h198q-12 -84 -22.5 -156t-17 -120.5t-6.5 -63.5q0 -19 12 -29.5t34 -10.5q18 0 30.5 8t20.5 22t10 30l45 320h198q-6 -38 -11.5 -75t-10.5 -72t-9.5 -67t-8 -59t-6.5 -47.5t-4.5 -33.5t-1.5 -17q0 -15 8.5 -22
t18.5 -7q9 0 17.5 2.5t18.5 6.5l-15 -107q-16 -10 -41 -16.5t-63 -6.5q-67 0 -97.5 21.5t-38.5 59.5q-9 -11 -30 -30.5t-55 -35t-82 -15.5zM119 573l165 188h148l113 -188h-137l-92 160h80l-136 -160h-141z" />
    <glyph glyph-name="uni0215" unicode="&#x215;" horiz-adv-x="627" 
d="M168 -10q-72 0 -108 37t-36 92q0 19 7.5 76t19.5 140t26 176h198q-12 -84 -22.5 -156t-17 -120.5t-6.5 -63.5q0 -19 12 -29.5t34 -10.5q18 0 30.5 8t20.5 22t10 30l45 320h198q-6 -38 -11.5 -75t-10.5 -72t-9.5 -67t-8 -59t-6.5 -47.5t-4.5 -33.5t-1.5 -17q0 -15 8.5 -22
t18.5 -7q9 0 17.5 2.5t18.5 6.5l-15 -107q-16 -10 -41 -16.5t-63 -6.5q-67 0 -97.5 21.5t-38.5 59.5q-9 -11 -30 -30.5t-55 -35t-82 -15.5zM392 590l-106 142l7 3h151l71 -145h-123zM170 590l-106 142l2 3h156l71 -145h-123z" />
    <glyph glyph-name="udieresis" unicode="&#xfc;" horiz-adv-x="627" 
d="M168 -10q-72 0 -108 37t-36 92q0 19 7.5 76t19.5 140t26 176h198q-12 -84 -22.5 -156t-17 -120.5t-6.5 -63.5q0 -19 12 -29.5t34 -10.5q18 0 30.5 8t20.5 22t10 30l45 320h198q-6 -38 -11.5 -75t-10.5 -72t-9.5 -67t-8 -59t-6.5 -47.5t-4.5 -33.5t-1.5 -17q0 -15 8.5 -22
t18.5 -7q9 0 17.5 2.5t18.5 6.5l-15 -107q-16 -10 -41 -16.5t-63 -6.5q-67 0 -97.5 21.5t-38.5 59.5q-9 -11 -30 -30.5t-55 -35t-82 -15.5zM107 584l22 152h172l-22 -152h-172zM387 584l22 152h172l-22 -152h-172z" />
    <glyph glyph-name="uni01D8" unicode="&#x1d8;" horiz-adv-x="627" 
d="M168 -10q-72 0 -108 37t-36 92q0 19 7.5 76t19.5 140t26 176h198q-12 -84 -22.5 -156t-17 -120.5t-6.5 -63.5q0 -19 12 -29.5t34 -10.5q18 0 30.5 8t20.5 22t10 30l45 320h198q-6 -38 -11.5 -75t-10.5 -72t-9.5 -67t-8 -59t-6.5 -47.5t-4.5 -33.5t-1.5 -17q0 -15 8.5 -22
t18.5 -7q9 0 17.5 2.5t18.5 6.5l-15 -107q-16 -10 -41 -16.5t-63 -6.5q-67 0 -97.5 21.5t-38.5 59.5q-9 -11 -30 -30.5t-55 -35t-82 -15.5zM306 783l112 145h151l1 -3l-146 -142h-118zM154 592l20 140h144l-20 -140h-144zM374 592l20 140h144l-20 -140h-144z" />
    <glyph glyph-name="uni01DA" unicode="&#x1da;" horiz-adv-x="627" 
d="M168 -10q-72 0 -108 37t-36 92q0 19 7.5 76t19.5 140t26 176h198q-12 -84 -22.5 -156t-17 -120.5t-6.5 -63.5q0 -19 12 -29.5t34 -10.5q18 0 30.5 8t20.5 22t10 30l45 320h198q-6 -38 -11.5 -75t-10.5 -72t-9.5 -67t-8 -59t-6.5 -47.5t-4.5 -33.5t-1.5 -17q0 -15 8.5 -22
t18.5 -7q9 0 17.5 2.5t18.5 6.5l-15 -107q-16 -10 -41 -16.5t-63 -6.5q-67 0 -97.5 21.5t-38.5 59.5q-9 -11 -30 -30.5t-55 -35t-82 -15.5zM296 782l-118 145h127l63 -77l85 77h131l-160 -145h-128zM150 592l20 140h144l-20 -140h-144zM370 592l20 140h144l-20 -140h-144z
" />
    <glyph glyph-name="uni01DC" unicode="&#x1dc;" horiz-adv-x="627" 
d="M168 -10q-72 0 -108 37t-36 92q0 19 7.5 76t19.5 140t26 176h198q-12 -84 -22.5 -156t-17 -120.5t-6.5 -63.5q0 -19 12 -29.5t34 -10.5q18 0 30.5 8t20.5 22t10 30l45 320h198q-6 -38 -11.5 -75t-10.5 -72t-9.5 -67t-8 -59t-6.5 -47.5t-4.5 -33.5t-1.5 -17q0 -15 8.5 -22
t18.5 -7q9 0 17.5 2.5t18.5 6.5l-15 -107q-16 -10 -41 -16.5t-63 -6.5q-67 0 -97.5 21.5t-38.5 59.5q-9 -11 -30 -30.5t-55 -35t-82 -15.5zM296 782l-106 142l3 3h151l70 -145h-118zM148 592l20 140h144l-20 -140h-144zM368 592l20 140h144l-20 -140h-144z" />
    <glyph glyph-name="uni01D6" unicode="&#x1d6;" horiz-adv-x="627" 
d="M168 -10q-72 0 -108 37t-36 92q0 19 7.5 76t19.5 140t26 176h198q-12 -84 -22.5 -156t-17 -120.5t-6.5 -63.5q0 -19 12 -29.5t34 -10.5q18 0 30.5 8t20.5 22t10 30l45 320h198q-6 -38 -11.5 -75t-10.5 -72t-9.5 -67t-8 -59t-6.5 -47.5t-4.5 -33.5t-1.5 -17q0 -15 8.5 -22
t18.5 -7q9 0 17.5 2.5t18.5 6.5l-15 -107q-16 -10 -41 -16.5t-63 -6.5q-67 0 -97.5 21.5t-38.5 59.5q-9 -11 -30 -30.5t-55 -35t-82 -15.5zM176 782l15 104h364l-15 -104h-364zM149 592l20 140h144l-20 -140h-144zM369 592l20 140h144l-20 -140h-144z" />
    <glyph glyph-name="uni1EE5" unicode="&#x1ee5;" horiz-adv-x="627" 
d="M168 -10q-72 0 -108 37t-36 92q0 19 7.5 76t19.5 140t26 176h198q-12 -84 -22.5 -156t-17 -120.5t-6.5 -63.5q0 -19 12 -29.5t34 -10.5q18 0 30.5 8t20.5 22t10 30l45 320h198q-6 -38 -11.5 -75t-10.5 -72t-9.5 -67t-8 -59t-6.5 -47.5t-4.5 -33.5t-1.5 -17q0 -15 8.5 -22
t18.5 -7q9 0 17.5 2.5t18.5 6.5l-15 -107q-16 -10 -41 -16.5t-63 -6.5q-67 0 -97.5 21.5t-38.5 59.5q-9 -11 -30 -30.5t-55 -35t-82 -15.5zM173 -225l20 147h152l-20 -147h-152z" />
    <glyph glyph-name="ugrave" unicode="&#xf9;" horiz-adv-x="627" 
d="M168 -10q-72 0 -108 37t-36 92q0 19 7.5 76t19.5 140t26 176h198q-12 -84 -22.5 -156t-17 -120.5t-6.5 -63.5q0 -19 12 -29.5t34 -10.5q18 0 30.5 8t20.5 22t10 30l45 320h198q-6 -38 -11.5 -75t-10.5 -72t-9.5 -67t-8 -59t-6.5 -47.5t-4.5 -33.5t-1.5 -17q0 -15 8.5 -22
t18.5 -7q9 0 17.5 2.5t18.5 6.5l-15 -107q-16 -10 -41 -16.5t-63 -6.5q-67 0 -97.5 21.5t-38.5 59.5q-9 -11 -30 -30.5t-55 -35t-82 -15.5zM264 583l-100 175l3 3h155l65 -178h-123z" />
    <glyph glyph-name="uni1EE7" unicode="&#x1ee7;" horiz-adv-x="627" 
d="M168 -10q-72 0 -108 37t-36 92q0 19 7.5 76t19.5 140t26 176h198q-12 -84 -22.5 -156t-17 -120.5t-6.5 -63.5q0 -19 12 -29.5t34 -10.5q18 0 30.5 8t20.5 22t10 30l45 320h198q-6 -38 -11.5 -75t-10.5 -72t-9.5 -67t-8 -59t-6.5 -47.5t-4.5 -33.5t-1.5 -17q0 -15 8.5 -22
t18.5 -7q9 0 17.5 2.5t18.5 6.5l-15 -107q-16 -10 -41 -16.5t-63 -6.5q-67 0 -97.5 21.5t-38.5 59.5q-9 -11 -30 -30.5t-55 -35t-82 -15.5zM304 567l11 81q28 3 46 16.5t18 35.5q0 16 -11 24t-32 8q-14 0 -32.5 -2.5t-41.5 -10.5l16 110q21 5 40.5 7t38.5 2q57 0 93.5 -27
t36.5 -77q0 -48 -27 -85t-69 -58.5t-87 -23.5z" />
    <glyph glyph-name="uhorn" unicode="&#x1b0;" horiz-adv-x="627" 
d="M168 -10q-72 0 -108 37t-36 92q0 19 7.5 76t19.5 140t26 176h198q-12 -84 -22.5 -156t-17 -120.5t-6.5 -63.5q0 -19 12 -29.5t34 -10.5q18 0 30.5 8t20.5 22t10 30l45 320h198q-6 -38 -11.5 -75t-10.5 -72t-9.5 -67t-8 -59t-6.5 -47.5t-4.5 -33.5t-1.5 -17q0 -15 8.5 -22
t18.5 -7q9 0 17.5 2.5t18.5 6.5l-15 -107q-16 -10 -41 -16.5t-63 -6.5q-67 0 -97.5 21.5t-38.5 59.5q-9 -11 -30 -30.5t-55 -35t-82 -15.5zM434 413l14 98q50 8 70 41.5t29 97.5h164q-8 -60 -47.5 -112t-99.5 -86t-130 -39z" />
    <glyph glyph-name="uni1EE9" unicode="&#x1ee9;" horiz-adv-x="627" 
d="M168 -10q-72 0 -108 37t-36 92q0 19 7.5 76t19.5 140t26 176h198q-12 -84 -22.5 -156t-17 -120.5t-6.5 -63.5q0 -19 12 -29.5t34 -10.5q18 0 30.5 8t20.5 22t10 30l45 320h198q-6 -38 -11.5 -75t-10.5 -72t-9.5 -67t-8 -59t-6.5 -47.5t-4.5 -33.5t-1.5 -17q0 -15 8.5 -22
t18.5 -7q9 0 17.5 2.5t18.5 6.5l-15 -107q-16 -10 -41 -16.5t-63 -6.5q-67 0 -97.5 21.5t-38.5 59.5q-9 -11 -30 -30.5t-55 -35t-82 -15.5zM434 413l14 98q50 8 70 41.5t29 97.5h164q-8 -60 -47.5 -112t-99.5 -86t-130 -39zM272 583l117 178h165l1 -3l-150 -175h-133z" />
    <glyph glyph-name="uni1EF1" unicode="&#x1ef1;" horiz-adv-x="627" 
d="M168 -10q-72 0 -108 37t-36 92q0 19 7.5 76t19.5 140t26 176h198q-12 -84 -22.5 -156t-17 -120.5t-6.5 -63.5q0 -19 12 -29.5t34 -10.5q18 0 30.5 8t20.5 22t10 30l45 320h198q-6 -38 -11.5 -75t-10.5 -72t-9.5 -67t-8 -59t-6.5 -47.5t-4.5 -33.5t-1.5 -17q0 -15 8.5 -22
t18.5 -7q9 0 17.5 2.5t18.5 6.5l-15 -107q-16 -10 -41 -16.5t-63 -6.5q-67 0 -97.5 21.5t-38.5 59.5q-9 -11 -30 -30.5t-55 -35t-82 -15.5zM434 413l14 98q50 8 70 41.5t29 97.5h164q-8 -60 -47.5 -112t-99.5 -86t-130 -39zM173 -225l20 147h152l-20 -147h-152z" />
    <glyph glyph-name="uni1EEB" unicode="&#x1eeb;" horiz-adv-x="627" 
d="M168 -10q-72 0 -108 37t-36 92q0 19 7.5 76t19.5 140t26 176h198q-12 -84 -22.5 -156t-17 -120.5t-6.5 -63.5q0 -19 12 -29.5t34 -10.5q18 0 30.5 8t20.5 22t10 30l45 320h198q-6 -38 -11.5 -75t-10.5 -72t-9.5 -67t-8 -59t-6.5 -47.5t-4.5 -33.5t-1.5 -17q0 -15 8.5 -22
t18.5 -7q9 0 17.5 2.5t18.5 6.5l-15 -107q-16 -10 -41 -16.5t-63 -6.5q-67 0 -97.5 21.5t-38.5 59.5q-9 -11 -30 -30.5t-55 -35t-82 -15.5zM434 413l14 98q50 8 70 41.5t29 97.5h164q-8 -60 -47.5 -112t-99.5 -86t-130 -39zM274 583l-100 175l3 3h155l65 -178h-123z" />
    <glyph glyph-name="uni1EED" unicode="&#x1eed;" horiz-adv-x="627" 
d="M168 -10q-72 0 -108 37t-36 92q0 19 7.5 76t19.5 140t26 176h198q-12 -84 -22.5 -156t-17 -120.5t-6.5 -63.5q0 -19 12 -29.5t34 -10.5q18 0 30.5 8t20.5 22t10 30l45 320h198q-6 -38 -11.5 -75t-10.5 -72t-9.5 -67t-8 -59t-6.5 -47.5t-4.5 -33.5t-1.5 -17q0 -15 8.5 -22
t18.5 -7q9 0 17.5 2.5t18.5 6.5l-15 -107q-16 -10 -41 -16.5t-63 -6.5q-67 0 -97.5 21.5t-38.5 59.5q-9 -11 -30 -30.5t-55 -35t-82 -15.5zM434 413l14 98q50 8 70 41.5t29 97.5h164q-8 -60 -47.5 -112t-99.5 -86t-130 -39zM314 567l11 81q28 3 46 16.5t18 35.5q0 16 -11 24
t-32 8q-14 0 -32.5 -2.5t-41.5 -10.5l16 110q21 5 40.5 7t38.5 2q57 0 93.5 -27t36.5 -77q0 -48 -27 -85t-69 -58.5t-87 -23.5z" />
    <glyph glyph-name="uni1EEF" unicode="&#x1eef;" horiz-adv-x="627" 
d="M168 -10q-72 0 -108 37t-36 92q0 19 7.5 76t19.5 140t26 176h198q-12 -84 -22.5 -156t-17 -120.5t-6.5 -63.5q0 -19 12 -29.5t34 -10.5q18 0 30.5 8t20.5 22t10 30l45 320h198q-6 -38 -11.5 -75t-10.5 -72t-9.5 -67t-8 -59t-6.5 -47.5t-4.5 -33.5t-1.5 -17q0 -15 8.5 -22
t18.5 -7q9 0 17.5 2.5t18.5 6.5l-15 -107q-16 -10 -41 -16.5t-63 -6.5q-67 0 -97.5 21.5t-38.5 59.5q-9 -11 -30 -30.5t-55 -35t-82 -15.5zM132 576q5 36 28.5 69t58 53.5t73.5 20.5q32 0 50 -10t34.5 -20t42.5 -10q19 0 34 11.5t22 28.5h81q-5 -36 -28.5 -68.5t-58 -53.5
t-73.5 -21q-23 0 -37 5t-25.5 12.5t-26 14t-38.5 8.5q-19 0 -33.5 -11.5t-22.5 -28.5h-81zM434 413l24 98q50 8 70 41.5t29 97.5h154q-8 -60 -47.5 -112t-99.5 -86t-130 -39z" />
    <glyph glyph-name="uhungarumlaut" unicode="&#x171;" horiz-adv-x="627" 
d="M168 -10q-72 0 -108 37t-36 92q0 19 7.5 76t19.5 140t26 176h198q-12 -84 -22.5 -156t-17 -120.5t-6.5 -63.5q0 -19 12 -29.5t34 -10.5q18 0 30.5 8t20.5 22t10 30l45 320h198q-6 -38 -11.5 -75t-10.5 -72t-9.5 -67t-8 -59t-6.5 -47.5t-4.5 -33.5t-1.5 -17q0 -15 8.5 -22
t18.5 -7q9 0 17.5 2.5t18.5 6.5l-15 -107q-16 -10 -41 -16.5t-63 -6.5q-67 0 -97.5 21.5t-38.5 59.5q-9 -11 -30 -30.5t-55 -35t-82 -15.5zM370 590l111 145h156l2 -3l-146 -142h-123zM148 590l111 145h151l7 -3l-146 -142h-123z" />
    <glyph glyph-name="uni0217" unicode="&#x217;" horiz-adv-x="627" 
d="M168 -10q-72 0 -108 37t-36 92q0 19 7.5 76t19.5 140t26 176h198q-12 -84 -22.5 -156t-17 -120.5t-6.5 -63.5q0 -19 12 -29.5t34 -10.5q18 0 30.5 8t20.5 22t10 30l45 320h198q-6 -38 -11.5 -75t-10.5 -72t-9.5 -67t-8 -59t-6.5 -47.5t-4.5 -33.5t-1.5 -17q0 -15 8.5 -22
t18.5 -7q9 0 17.5 2.5t18.5 6.5l-15 -107q-16 -10 -41 -16.5t-63 -6.5q-67 0 -97.5 21.5t-38.5 59.5q-9 -11 -30 -30.5t-55 -35t-82 -15.5zM139 588q6 44 31 77t69 51.5t105 18.5q66 0 108 -18.5t60 -51.5t12 -77h-101q-1 24 -20.5 37.5t-63.5 13.5t-68 -13.5t-32 -37.5
h-100z" />
    <glyph glyph-name="umacron" unicode="&#x16b;" horiz-adv-x="627" 
d="M168 -10q-72 0 -108 37t-36 92q0 19 7.5 76t19.5 140t26 176h198q-12 -84 -22.5 -156t-17 -120.5t-6.5 -63.5q0 -19 12 -29.5t34 -10.5q18 0 30.5 8t20.5 22t10 30l45 320h198q-6 -38 -11.5 -75t-10.5 -72t-9.5 -67t-8 -59t-6.5 -47.5t-4.5 -33.5t-1.5 -17q0 -15 8.5 -22
t18.5 -7q9 0 17.5 2.5t18.5 6.5l-15 -107q-16 -10 -41 -16.5t-63 -6.5q-67 0 -97.5 21.5t-38.5 59.5q-9 -11 -30 -30.5t-55 -35t-82 -15.5zM150 607l14 100h368l-14 -100h-368z" />
    <glyph glyph-name="uogonek" unicode="&#x173;" horiz-adv-x="627" 
d="M168 -10q-72 0 -108 37t-36 92q0 19 7.5 76t19.5 140t26 176h198q-12 -84 -22.5 -156t-17 -120.5t-6.5 -63.5q0 -19 12 -29.5t34 -10.5q18 0 30.5 8t20.5 22t10 30l45 320h198q-6 -38 -11.5 -75t-10.5 -72t-9.5 -67t-8 -59t-6.5 -47.5t-4.5 -33.5t-1.5 -17q0 -15 8.5 -22
t18.5 -7q9 0 17.5 2.5t18.5 6.5l-15 -107q-16 -10 -41 -16.5t-63 -6.5q-67 0 -97.5 21.5t-38.5 59.5q-9 -11 -30 -30.5t-55 -35t-82 -15.5zM472 -150q-40 0 -68 16t-28 51q0 29 15.5 49.5t35.5 33.5h118q-21 -12 -35.5 -24.5t-14.5 -32.5q0 -13 9 -18.5t22 -5.5t28.5 4
t29.5 9l7 -51q-25 -14 -57 -22.5t-62 -8.5z" />
    <glyph glyph-name="uring" unicode="&#x16f;" horiz-adv-x="627" 
d="M168 -10q-72 0 -108 37t-36 92q0 19 7.5 76t19.5 140t26 176h198q-12 -84 -22.5 -156t-17 -120.5t-6.5 -63.5q0 -19 12 -29.5t34 -10.5q18 0 30.5 8t20.5 22t10 30l45 320h198q-6 -38 -11.5 -75t-10.5 -72t-9.5 -67t-8 -59t-6.5 -47.5t-4.5 -33.5t-1.5 -17q0 -15 8.5 -22
t18.5 -7q9 0 17.5 2.5t18.5 6.5l-15 -107q-16 -10 -41 -16.5t-63 -6.5q-67 0 -97.5 21.5t-38.5 59.5q-9 -11 -30 -30.5t-55 -35t-82 -15.5zM330 577q-43 0 -70 23.5t-27 64.5q0 37 17 64.5t46 43t64 15.5q43 0 70 -24t27 -65q0 -36 -17 -63.5t-46 -43t-64 -15.5zM340 647
q17 0 28.5 12.5t11.5 28.5q0 13 -8.5 21t-21.5 8q-16 0 -28 -12t-12 -29q0 -13 8.5 -21t21.5 -8z" />
    <glyph glyph-name="utilde" unicode="&#x169;" horiz-adv-x="627" 
d="M168 -10q-72 0 -108 37t-36 92q0 19 7.5 76t19.5 140t26 176h198q-12 -84 -22.5 -156t-17 -120.5t-6.5 -63.5q0 -19 12 -29.5t34 -10.5q18 0 30.5 8t20.5 22t10 30l45 320h198q-6 -38 -11.5 -75t-10.5 -72t-9.5 -67t-8 -59t-6.5 -47.5t-4.5 -33.5t-1.5 -17q0 -15 8.5 -22
t18.5 -7q9 0 17.5 2.5t18.5 6.5l-15 -107q-16 -10 -41 -16.5t-63 -6.5q-67 0 -97.5 21.5t-38.5 59.5q-9 -11 -30 -30.5t-55 -35t-82 -15.5zM114 581q11 52 32 91t51 60.5t69 21.5q36 0 64.5 -15t53 -30t47.5 -15q22 0 36.5 17t23.5 43h81q-10 -52 -31.5 -91t-51.5 -60.5
t-69 -21.5q-36 0 -64.5 15t-53 30t-47.5 15q-22 0 -36.5 -17t-23.5 -43h-81z" />
    <glyph glyph-name="v" unicode="v" horiz-adv-x="558" 
d="M121 0l-94 511h206l36 -302h7l119 302h193l-238 -511h-229z" />
    <glyph glyph-name="w" unicode="w" horiz-adv-x="855" 
d="M107 0l-74 511h201l23 -268h7l100 268h195l26 -268h8l96 268h192l-217 -511h-224l-19 213h-8l-78 -213h-228z" />
    <glyph glyph-name="wacute" unicode="&#x1e83;" horiz-adv-x="855" 
d="M107 0l-74 511h201l23 -268h7l100 268h195l26 -268h8l96 268h192l-217 -511h-224l-19 213h-8l-78 -213h-228zM398 583l117 178h165l1 -3l-150 -175h-133z" />
    <glyph glyph-name="wcircumflex" unicode="&#x175;" horiz-adv-x="855" 
d="M107 0l-74 511h201l23 -268h7l100 268h195l26 -268h8l96 268h192l-217 -511h-224l-19 213h-8l-78 -213h-228zM255 573l165 188h148l113 -188h-137l-92 160h80l-136 -160h-141z" />
    <glyph glyph-name="wdieresis" unicode="&#x1e85;" horiz-adv-x="855" 
d="M107 0l-74 511h201l23 -268h7l100 268h195l26 -268h8l96 268h192l-217 -511h-224l-19 213h-8l-78 -213h-228zM243 584l22 152h172l-22 -152h-172zM523 584l22 152h172l-22 -152h-172z" />
    <glyph glyph-name="wgrave" unicode="&#x1e81;" horiz-adv-x="855" 
d="M107 0l-74 511h201l23 -268h7l100 268h195l26 -268h8l96 268h192l-217 -511h-224l-19 213h-8l-78 -213h-228zM400 583l-100 175l3 3h155l65 -178h-123z" />
    <glyph glyph-name="x" unicode="x" horiz-adv-x="583" 
d="M-48 0l207 270l-119 241h227l46 -118h4l78 118h213l-190 -246l130 -265h-227l-56 143h-4l-97 -143h-212z" />
    <glyph glyph-name="y" unicode="y" horiz-adv-x="552" 
d="M61 -187q-32 0 -56.5 3.5t-38.5 11.5l17 129q10 -5 31 -9.5t42 -4.5q31 0 48.5 13t26.5 30t13 29l-118 496h211l41 -265h8l105 265h195l-239 -475q-32 -63 -75.5 -113.5t-96.5 -80t-114 -29.5z" />
    <glyph glyph-name="yacute" unicode="&#xfd;" horiz-adv-x="552" 
d="M61 -187q-32 0 -56.5 3.5t-38.5 11.5l17 129q10 -5 31 -9.5t42 -4.5q31 0 48.5 13t26.5 30t13 29l-118 496h211l41 -265h8l105 265h195l-239 -475q-32 -63 -75.5 -113.5t-96.5 -80t-114 -29.5zM242 583l117 178h165l1 -3l-150 -175h-133z" />
    <glyph glyph-name="ycircumflex" unicode="&#x177;" horiz-adv-x="552" 
d="M61 -187q-32 0 -56.5 3.5t-38.5 11.5l17 129q10 -5 31 -9.5t42 -4.5q31 0 48.5 13t26.5 30t13 29l-118 496h211l41 -265h8l105 265h195l-239 -475q-32 -63 -75.5 -113.5t-96.5 -80t-114 -29.5zM99 573l165 188h148l113 -188h-137l-92 160h80l-136 -160h-141z" />
    <glyph glyph-name="ydieresis" unicode="&#xff;" horiz-adv-x="552" 
d="M61 -187q-32 0 -56.5 3.5t-38.5 11.5l17 129q10 -5 31 -9.5t42 -4.5q31 0 48.5 13t26.5 30t13 29l-118 496h211l41 -265h8l105 265h195l-239 -475q-32 -63 -75.5 -113.5t-96.5 -80t-114 -29.5zM87 584l22 152h172l-22 -152h-172zM367 584l22 152h172l-22 -152h-172z" />
    <glyph glyph-name="uni1EF5" unicode="&#x1ef5;" horiz-adv-x="552" 
d="M61 -187q-32 0 -56.5 3.5t-38.5 11.5l17 129q10 -5 31 -9.5t42 -4.5q31 0 48.5 13t26.5 30t13 29l-118 496h211l41 -265h8l105 265h195l-239 -475q-32 -63 -75.5 -113.5t-96.5 -80t-114 -29.5zM310 -185l20 147h152l-20 -147h-152z" />
    <glyph glyph-name="ygrave" unicode="&#x1ef3;" horiz-adv-x="552" 
d="M61 -187q-32 0 -56.5 3.5t-38.5 11.5l17 129q10 -5 31 -9.5t42 -4.5q31 0 48.5 13t26.5 30t13 29l-118 496h211l41 -265h8l105 265h195l-239 -475q-32 -63 -75.5 -113.5t-96.5 -80t-114 -29.5zM244 583l-100 175l3 3h155l65 -178h-123z" />
    <glyph glyph-name="uni1EF7" unicode="&#x1ef7;" horiz-adv-x="552" 
d="M61 -187q-32 0 -56.5 3.5t-38.5 11.5l17 129q10 -5 31 -9.5t42 -4.5q31 0 48.5 13t26.5 30t13 29l-118 496h211l41 -265h8l105 265h195l-239 -475q-32 -63 -75.5 -113.5t-96.5 -80t-114 -29.5zM284 567l11 81q28 3 46 16.5t18 35.5q0 16 -11 24t-32 8q-14 0 -32.5 -2.5
t-41.5 -10.5l16 110q21 5 40.5 7t38.5 2q57 0 93.5 -27t36.5 -77q0 -48 -27 -85t-69 -58.5t-87 -23.5z" />
    <glyph glyph-name="uni0233" unicode="&#x233;" horiz-adv-x="552" 
d="M61 -187q-32 0 -56.5 3.5t-38.5 11.5l17 129q10 -5 31 -9.5t42 -4.5q31 0 48.5 13t26.5 30t13 29l-118 496h211l41 -265h8l105 265h195l-239 -475q-32 -63 -75.5 -113.5t-96.5 -80t-114 -29.5zM130 607l14 100h368l-14 -100h-368z" />
    <glyph glyph-name="uni1EF9" unicode="&#x1ef9;" horiz-adv-x="552" 
d="M61 -187q-32 0 -56.5 3.5t-38.5 11.5l17 129q10 -5 31 -9.5t42 -4.5q31 0 48.5 13t26.5 30t13 29l-118 496h211l41 -265h8l105 265h195l-239 -475q-32 -63 -75.5 -113.5t-96.5 -80t-114 -29.5zM94 581q11 52 32 91t51 60.5t69 21.5q36 0 64.5 -15t53 -30t47.5 -15
q22 0 36.5 17t23.5 43h81q-10 -52 -31.5 -91t-51.5 -60.5t-69 -21.5q-36 0 -64.5 15t-53 30t-47.5 15q-22 0 -36.5 -17t-23.5 -43h-81z" />
    <glyph glyph-name="z" unicode="z" horiz-adv-x="497" 
d="M-18 0l8 63l233 324h-177l17 124h433l-8 -60l-235 -327h197l-17 -124h-451z" />
    <glyph glyph-name="zacute" unicode="&#x17a;" horiz-adv-x="497" 
d="M-18 0l8 63l233 324h-177l17 124h433l-8 -60l-235 -327h197l-17 -124h-451zM221 583l117 178h165l1 -3l-150 -175h-133z" />
    <glyph glyph-name="zcaron" unicode="&#x17e;" horiz-adv-x="497" 
d="M-18 0l8 63l233 324h-177l17 124h433l-8 -60l-235 -327h197l-17 -124h-451zM527 766l-165 -188h-148l-113 188h138l92 -160h-80l136 160h140z" />
    <glyph glyph-name="zdotaccent" unicode="&#x17c;" horiz-adv-x="497" 
d="M-18 0l8 63l233 324h-177l17 124h433l-8 -60l-235 -327h197l-17 -124h-451zM201 597l18 128h179l-18 -128h-179z" />
    <glyph glyph-name="cacute.loclPLK" horiz-adv-x="568" 
d="M246 -10q-68 0 -120 28.5t-81 78.5t-29 113q0 61 20.5 116.5t59 99.5t93.5 69.5t124 25.5h23q69 0 116.5 -23.5t72.5 -64.5t24 -95v-16.5t-2 -17.5h-169q2 9 3 19t1 19q0 26 -17 42t-43 16q-20 0 -37 -9.5t-28 -25t-14 -35.5q-9 -55 -15.5 -98t-6.5 -63q0 -25 16.5 -41.5
t48.5 -16.5q23 0 41.5 8.5t31.5 29.5t16 58h158q-10 -69 -46.5 -117.5t-92.5 -74t-125 -25.5h-23zM266 575l51 145h151l2 -3l-86 -142h-118z" />
    <glyph glyph-name="nacute.loclPLK" horiz-adv-x="597" 
d="M8 0l72 511h149l9 -74q8 11 28.5 31t57.5 36.5t95 16.5q72 0 108 -37t36 -92q0 -10 -2 -27.5t-5.5 -46.5t-10 -72t-15 -104t-20.5 -142h-198q12 83 20 139.5t13 92t7.5 56t3.5 31t1 17.5q0 20 -11.5 32t-33.5 12q-17 0 -30 -8t-20.5 -21.5t-10.5 -30.5l-45 -320h-198z
M297 575l51 145h151l2 -3l-86 -142h-118z" />
    <glyph glyph-name="oacute.loclPLK" horiz-adv-x="613" 
d="M265 -10q-81 0 -136.5 28.5t-84 78t-28.5 113.5q0 56 18.5 111t56.5 100.5t96 72.5t136 27h17q81 0 136 -28.5t83 -78t28 -113.5q0 -56 -18.5 -111t-56.5 -100.5t-96 -72.5t-136 -27h-15zM281 111q21 0 37.5 9.5t27.5 25.5t14 35q9 56 15.5 99t6.5 62q0 26 -17 42t-43 16
q-20 0 -37 -9.5t-28 -25t-14 -35.5q-9 -55 -15.5 -98t-6.5 -63q0 -26 17 -42t43 -16zM288 575l51 145h151l2 -3l-86 -142h-118z" />
    <glyph glyph-name="sacute.loclPLK" horiz-adv-x="559" 
d="M228 -10q-71 0 -122 14.5t-78 45t-27 77.5q0 10 1 20.5t3 19.5h162q-1 -4 -1 -6v-5q0 -18 13 -28t31.5 -13.5t34.5 -3.5q7 0 22.5 1t32 4t28.5 10t12 19q0 17 -21.5 24.5t-55 12.5t-71.5 12t-71.5 22t-55 42.5t-21.5 73.5q0 54 23.5 90t62 58t84.5 31.5t91 9.5h8
q39 0 78.5 -7.5t72 -22.5t52 -38.5t19.5 -55.5q0 -13 -2 -22t-5 -17h-165q1 2 1 5v4q0 11 -8 19t-22 12.5t-34 4.5q-7 0 -20.5 -0.5t-28 -3.5t-24.5 -9.5t-10 -18.5q0 -16 21.5 -23.5t55.5 -12t72.5 -12t72.5 -23t55.5 -44t21.5 -77.5q0 -36 -15.5 -70t-48.5 -60.5
t-86 -42.5t-128 -16h-10zM253 575l51 145h151l2 -3l-86 -142h-118z" />
    <glyph glyph-name="zacute.loclPLK" horiz-adv-x="497" 
d="M-18 0l8 63l233 324h-177l17 124h433l-8 -60l-235 -327h197l-17 -124h-451zM234 575l51 145h151l2 -3l-86 -142h-118z" />
    <glyph glyph-name="uni207F" unicode="&#x207f;" horiz-adv-x="366" 
d="M55 382l43 308h90l6 -45q23 27 49 39t60 12q41 0 64 -21t23 -54q0 -7 -1.5 -21.5t-5.5 -41t-10 -69.5t-15 -107h-115q8 55 13.5 92.5t8.5 60.5t4.5 35t1.5 16q0 13 -8 21.5t-24 8.5t-28 -10.5t-14 -25.5l-28 -198h-114z" />
    <glyph glyph-name="ordfeminine" unicode="&#xaa;" horiz-adv-x="418" 
d="M166 376q-56 0 -79.5 35.5t-23.5 86.5q0 33 8 67.5t25.5 64.5t45 48t66.5 18q24 0 45.5 -11t35.5 -32h4l20 37h90q-5 -36 -10 -66t-8.5 -54.5t-6 -43t-4 -31.5t-2.5 -20.5t-1 -9.5q0 -17 16 -17q6 0 11.5 2.5t10.5 5.5l-9 -66q-14 -7 -31 -10.5t-31 -3.5q-28 0 -51 8
t-31 39q-16 -20 -40 -33.5t-50 -13.5zM213 449q24 0 36 21t16 52.5t4 60.5q0 17 -8.5 27.5t-23.5 10.5q-18 0 -30.5 -16t-19.5 -46t-7 -71q0 -22 9.5 -30.5t23.5 -8.5z" />
    <glyph glyph-name="ordmasculine" unicode="&#xba;" horiz-adv-x="395" 
d="M214 378q-71 0 -112.5 33t-41.5 96q0 56 23.5 98.5t66 66.5t99.5 24q71 0 112 -33t41 -96q0 -55 -23.5 -98t-66 -67t-98.5 -24zM216 450q23 0 36.5 19.5t19 49t5.5 59.5q0 22 -8 34t-26 12q-22 0 -35.5 -19.5t-19.5 -48.5t-6 -60q0 -23 9 -34.5t25 -11.5z" />
    <glyph glyph-name="uni0394" unicode="&#x394;" horiz-adv-x="635" 
d="M-14 0l13 93l306 593h139l139 -593l-13 -93h-584zM146 109h296l-89 416z" />
    <glyph glyph-name="uni03A9" unicode="&#x3a9;" horiz-adv-x="765" 
d="M-4 0l22 162h11l109 -20q-37 39 -57.5 82.5t-20.5 93.5q0 75 26.5 142.5t74 120t111 83t138.5 30.5h56q76 0 135 -34t92.5 -92.5t33.5 -131.5q0 -49 -8.5 -90t-26.5 -76t-45 -66.5t-64 -61.5l115 20h11l-22 -162h-305l12 85q19 8 35 21t26.5 31.5t13.5 39.5
q11 80 18.5 131t11.5 81t6 44t2 20q0 26 -11.5 45.5t-32 30.5t-48.5 11q-21 0 -40 -8t-35 -21.5t-26 -31.5t-13 -39q-15 -107 -23 -165t-11.5 -82t-3.5 -30q0 -17 6 -32.5t17 -27t26 -18.5l-12 -85h-304z" />
    <glyph glyph-name="uni03BC" unicode="&#x3bc;" horiz-adv-x="650" 
d="M-8 -161l95 672h198q-8 -49 -14.5 -96t-12.5 -87.5t-10 -72t-6.5 -51t-2.5 -23.5q0 -21 11.5 -35.5t34.5 -14.5q18 0 30.5 8t20.5 22t10 30l45 320h198q-10 -66 -19 -129l-16.5 -115.5t-12 -86t-4.5 -40.5q0 -15 8.5 -22t18.5 -7q9 0 17.5 2.5t18.5 6.5l-15 -107
q-16 -10 -41 -16.5t-63 -6.5q-67 0 -97.5 21.5t-38.5 59.5q-10 -23 -36 -47.5t-67 -25.5q-8 0 -17 1t-19 4q0 -27 -1 -43.5t-3 -31.5l-12 -89h-198z" />
    <glyph glyph-name="pi" unicode="&#x3c0;" horiz-adv-x="718" 
d="M31 0q18 39 36.5 89t35.5 102.5t29.5 103t18.5 91.5q-35 0 -64.5 -2.5t-52.5 -7.5v99q23 17 75.5 26.5t139.5 9.5h491l-31 -125h-78q-10 -76 -17.5 -128.5t-12.5 -88t-7.5 -59t-3.5 -40.5t-1 -33q0 -11 0.5 -20t1.5 -17h-187q-5 6 -6.5 19t-1.5 30q0 15 1 32.5t4 42
t7.5 59.5t12 84.5t17.5 118.5h-98q-6 -35 -16 -77t-22 -86t-26 -86t-28.5 -77.5t-28.5 -59.5h-188z" />
    <glyph glyph-name="uni2099" unicode="&#x2099;" horiz-adv-x="367" 
d="M-15 -118l43 308h90l6 -45q23 27 49 39t60 12q41 0 64 -21t23 -54q0 -7 -1.5 -21.5t-5.5 -41t-10 -69.5t-15 -107h-115q8 55 13.5 92.5t8.5 60.5t4.5 35t1.5 16q0 13 -8 21.5t-24 8.5t-28 -10.5t-14 -25.5l-28 -198h-114z" />
    <glyph glyph-name="zero" unicode="0" horiz-adv-x="615" 
d="M243 -10q-62 0 -111.5 28.5t-78 77.5t-28.5 109q0 7 1 19.5t4.5 37.5t10 69.5t16.5 114.5q11 76 52 132t102.5 87t130.5 31h44q63 0 112 -28.5t77.5 -77t28.5 -109.5q0 -7 -1 -19.5t-4.5 -37.5t-10 -69.5t-16.5 -114.5q-11 -76 -52.5 -132t-102 -87t-130.5 -31h-44z
M286 134q22 0 40 8t30 26t16 46q4 27 8.5 60t9.5 67.5t8.5 64t6 50.5t2.5 28q0 29 -18 48.5t-46 19.5q-21 0 -39.5 -8t-30.5 -25.5t-16 -46.5q-4 -27 -8.5 -60t-9 -67.5t-8.5 -64t-6.5 -50.5t-2.5 -28q0 -29 18 -48.5t46 -19.5z" />
    <glyph glyph-name="one" unicode="1" horiz-adv-x="615" 
d="M33 0l21 153h152l45 320h-152l16 115q45 3 98.5 19t105.5 40t92 49h67l-76 -543h146l-21 -153h-494z" />
    <glyph glyph-name="two" unicode="2" horiz-adv-x="615" 
d="M-4 0l5 36q5 38 16 69.5t32 59t55 51.5l205 146q35 25 53 43t24.5 35.5t6.5 38.5q0 18 -8 31.5t-22.5 21.5t-34.5 8q-31 0 -50.5 -14t-29 -36t-12.5 -48h-176q3 46 18 85.5t39.5 70.5t58.5 53t76 33.5t91 11.5h31q68 0 118 -24t77.5 -67t27.5 -99q0 -50 -16.5 -92
t-48.5 -76.5t-78 -64.5l-116 -74q-13 -8 -24.5 -15.5t-23.5 -15.5h263l-23 -168h-534z" />
    <glyph glyph-name="three" unicode="3" horiz-adv-x="615" 
d="M240 -10q-77 0 -129 22.5t-78 61t-26 87.5q0 14 1 24t4 24h175q-1 -2 -1 -5.5v-7.5q0 -37 25 -47t60 -10q33 0 56.5 9.5t36 30t12.5 52.5q0 20 -8 32.5t-21.5 19t-31.5 6.5h-104l17 123h88q19 0 37.5 8.5t30.5 26.5t12 45q0 28 -19 41.5t-51 13.5q-37 0 -60.5 -17.5
t-27.5 -45.5h-167q0 62 38 110t102 75t140 27h30q67 0 115 -22t74 -59t26 -83q0 -38 -16 -71.5t-42.5 -59t-58.5 -39.5v-6q43 -18 68 -51.5t25 -83.5q0 -74 -39.5 -126t-105.5 -78.5t-145 -26.5h-42z" />
    <glyph glyph-name="four" unicode="4" horiz-adv-x="615" 
d="M261 0l21 151h-279l20 149q18 26 41.5 65t49 84t49.5 91t42.5 86.5t28.5 69.5h177q-8 -31 -29 -73t-50 -88.5t-61 -91t-63 -82.5t-56 -63h150l15 102q15 18 35 48t40.5 64t37 65.5t24.5 52.5h83l-47 -332h98l-20 -147h-98l-21 -151h-188z" />
    <glyph glyph-name="five" unicode="5" horiz-adv-x="615" 
d="M261 -10q-73 0 -128 23t-85.5 67.5t-30.5 110.5q0 9 0.5 16.5t1.5 16.5h176q-1 -2 -1 -4.5v-6.5q0 -31 21.5 -50t56.5 -19q33 0 56 13t35 36.5t12 52.5q0 32 -21 50.5t-56 18.5q-25 0 -47 -10.5t-36 -23.5l-154 22l82 383h440l-23 -170h-291l-23 -102q19 14 52 29.5
t82 15.5q60 0 103.5 -22.5t66.5 -65t23 -102.5q0 -85 -40.5 -147.5t-111 -97t-160.5 -34.5z" />
    <glyph glyph-name="six" unicode="6" horiz-adv-x="615" 
d="M255 -10q-66 0 -116.5 27t-79.5 74.5t-29 108.5q0 8 1.5 28.5t5.5 52.5t9.5 73.5t12.5 91.5q11 72 54 128.5t106.5 89t134.5 32.5h28q59 0 107 -21.5t76.5 -64t28.5 -105.5q0 -10 -0.5 -19.5t-2.5 -19.5h-178q1 5 1 10.5v10.5q-1 28 -18.5 43.5t-48.5 15.5
q-20 0 -39.5 -10t-32.5 -27t-16 -38l-12 -86q31 28 68 40t65 12q57 0 101.5 -19.5t70 -57.5t25.5 -95q0 -64 -24 -115t-65.5 -87t-94 -54.5t-110.5 -18.5h-28zM294 130q32 0 52 18t29.5 47.5t9.5 61.5q0 31 -20.5 47.5t-48.5 16.5q-32 0 -53.5 -15.5t-31.5 -43.5t-10 -66
q0 -28 19.5 -47t53.5 -19z" />
    <glyph glyph-name="seven" unicode="7" horiz-adv-x="615" 
d="M87 0q10 72 38.5 140.5t70 133t90 125t98.5 115.5h-292l24 172h509l-13 -91q-76 -88 -128 -160t-86 -139t-55 -138.5t-34 -157.5h-222z" />
    <glyph glyph-name="eight" unicode="8" horiz-adv-x="615" 
d="M264 -10q-109 0 -176 43.5t-67 127.5q0 47 16.5 82.5t45 61t63.5 42.5l1 4q-26 20 -43 46.5t-17 66.5q0 74 39 126t102 79t135 27q63 0 113 -20t79 -58t29 -94q0 -45 -15 -78.5t-38 -56.5t-47 -38l-1 -4q37 -20 59 -51.5t22 -77.5q0 -37 -14.5 -77t-48.5 -74.5t-92 -55.5
t-145 -21zM283 122q33 0 51.5 17t26 43t7.5 52t-16.5 43.5t-44.5 17.5q-30 0 -49 -17t-28 -42.5t-9 -53.5q0 -26 17 -43t45 -17zM323 403q28 0 46.5 13t27.5 36.5t9 52.5q0 26 -16.5 43.5t-44.5 17.5q-26 0 -45 -14t-29 -37.5t-10 -52.5q0 -26 17.5 -42.5t44.5 -16.5z" />
    <glyph glyph-name="nine" unicode="9" horiz-adv-x="615" 
d="M260 -10q-106 0 -166 49t-60 142q0 18 3 39h178q-1 -6 -1 -10.5v-9.5q0 -26 18.5 -43t45.5 -17q25 0 44 9t31 25.5t16 40.5l12 86q-31 -28 -68 -40t-65 -12q-56 0 -101 19.5t-71 57.5t-26 95q0 81 41 143t111 97t157 35q72 0 126.5 -26t84.5 -74t30 -114q0 -4 -0.5 -12.5
t-3 -31t-9 -69.5t-18.5 -129q-11 -78 -53 -134t-107.5 -86t-148.5 -30zM312 365q33 0 54 18t31 47t10 61q0 29 -20 47t-49 18q-33 0 -54 -18.5t-31 -47.5t-10 -61q0 -29 19.5 -46.5t49.5 -17.5z" />
    <glyph glyph-name="zero.zero" horiz-adv-x="600" 
d="M112 144l342 440h92l-342 -440h-92zM243 -10q-62 0 -111.5 28.5t-78 77.5t-28.5 109q0 7 1 19.5t4.5 37.5t10 69.5t16.5 114.5q11 76 52 132t102.5 87t130.5 31h44q63 0 112 -28.5t77.5 -77t28.5 -109.5q0 -7 -1 -19.5t-4.5 -37.5t-10 -69.5t-16.5 -114.5
q-11 -76 -52.5 -132t-102 -87t-130.5 -31h-44zM286 134q22 0 40 8t30 26t16 46q4 27 8.5 60t9.5 67.5t8.5 64t6 50.5t2.5 28q0 29 -18 48.5t-46 19.5q-21 0 -39.5 -8t-30.5 -25.5t-16 -46.5q-4 -27 -8.5 -60t-9 -67.5t-8.5 -64t-6.5 -50.5t-2.5 -28q0 -29 18 -48.5t46 -19.5
z" />
    <glyph glyph-name="zero.lf" horiz-adv-x="615" 
d="M243 -10q-62 0 -111.5 28.5t-78 77.5t-28.5 109q0 7 1 19.5t4.5 37.5t10 69.5t16.5 114.5q11 76 52 132t102.5 87t130.5 31h44q63 0 112 -28.5t77.5 -77t28.5 -109.5q0 -7 -1 -19.5t-4.5 -37.5t-10 -69.5t-16.5 -114.5q-11 -76 -52.5 -132t-102 -87t-130.5 -31h-44z
M286 134q22 0 40 8t30 26t16 46q4 27 8.5 60t9.5 67.5t8.5 64t6 50.5t2.5 28q0 29 -18 48.5t-46 19.5q-21 0 -39.5 -8t-30.5 -25.5t-16 -46.5q-4 -27 -8.5 -60t-9 -67.5t-8.5 -64t-6.5 -50.5t-2.5 -28q0 -29 18 -48.5t46 -19.5z" />
    <glyph glyph-name="one.lf" horiz-adv-x="615" 
d="M33 0l21 153h152l45 320h-152l16 115q45 3 98.5 19t105.5 40t92 49h67l-76 -543h146l-21 -153h-494z" />
    <glyph glyph-name="two.lf" horiz-adv-x="615" 
d="M-4 0l5 36q5 38 16 69.5t32 59t55 51.5l205 146q35 25 53 43t24.5 35.5t6.5 38.5q0 18 -8 31.5t-22.5 21.5t-34.5 8q-31 0 -50.5 -14t-29 -36t-12.5 -48h-176q3 46 18 85.5t39.5 70.5t58.5 53t76 33.5t91 11.5h31q68 0 118 -24t77.5 -67t27.5 -99q0 -50 -16.5 -92
t-48.5 -76.5t-78 -64.5l-116 -74q-13 -8 -24.5 -15.5t-23.5 -15.5h263l-23 -168h-534z" />
    </font>
</defs>
</svg>
