<?xml version="1.0" standalone="no"?>
<!DOCTYPE svg PUBLIC "-//W3C//DTD SVG 1.1//EN" "http://www.w3.org/Graphics/SVG/1.1/DTD/svg11.dtd" >
<svg xmlns="http://www.w3.org/2000/svg" xmlns:xlink="http://www.w3.org/1999/xlink" version="1.1">
<metadata>
Created by FontForge 20230101 at Thu May  9 12:37:35 2013
 By Glenn Lewis
Copyright (c) 2012 by Tyler Finck. All rights reserved.
</metadata>
<defs>
<font id="OstrichSansInline" horiz-adv-x="391" >
  <font-face 
    font-family="Ostrich Sans Inline"
    font-weight="400"
    font-stretch="normal"
    units-per-em="1000"
    panose-1="2 0 5 8 2 0 0 2 0 4"
    ascent="800"
    descent="-200"
    x-height="674"
    cap-height="674"
    bbox="-103 -139 685 847"
    underline-thickness="50"
    underline-position="-50"
    unicode-range="U+000D-FB02"
  />
<missing-glyph horiz-adv-x="248" 
 />
    <glyph glyph-name=".notdef" horiz-adv-x="248" 
 />
    <glyph glyph-name=".null" horiz-adv-x="0" 
 />
    <glyph glyph-name="nonmarkingreturn" horiz-adv-x="333" 
 />
    <glyph glyph-name="NULL" horiz-adv-x="0" 
 />
    <glyph glyph-name="CR" unicode="&#xd;" horiz-adv-x="248" 
 />
    <glyph glyph-name="space" unicode=" " horiz-adv-x="241" 
 />
    <glyph glyph-name="exclam" unicode="!" horiz-adv-x="130" 
d="M25 28h18v30h-18v-30zM25 647v-506h18v506h-18zM-3 675h74v-561h-74v561zM-3 1v84h74v-84h-74z" />
    <glyph glyph-name="quotedbl" unicode="&#x22;" horiz-adv-x="201" 
d="M122 647v-71h18v71h-18zM27 576h18v71h-18v-71zM-1 548v126h74v-126h-74zM95 674h73v-126h-73v126z" />
    <glyph glyph-name="numbersign" unicode="#" horiz-adv-x="562" 
d="M190 416h143l-30 -159h-144zM95 28h17l43 211h144l-41 -211h18l40 211h124v18h-118l30 159h118v18h-114l41 213h-18q-6 -36 -20.5 -107t-21.5 -106h-144l42 213h-18l-42 -213h-142v-18h138l-30 -159h-136v-18h131zM62 0l41 211h-126v74h142l19 103h-132v74h146l43 212h74
l-43 -212h88l17 84q4 19 12.5 66.5t11.5 61.5h75l-41 -212h108v-74h-123q-1 -3 -6 -34q-10 -45 -13 -69h113v-74h-128l-41 -211h-75l42 211h-88l-44 -211h-72zM212 388l-20 -103h88l20 103h-88z" />
    <glyph glyph-name="dollar" unicode="$" horiz-adv-x="340" 
d="M248 201q0 -96 -79 -106v223q79 -65 79 -117zM77 477q0 35 20 64.5t53 37.5v-224q-73 61 -73 122zM150 28h19v48q47 3 72 39t25 85q0 69 -97 140v240q78 -1 78 -129h18v6q0 140 -96 142v48h-19v-49q-41 -7 -66.5 -42.5t-25.5 -77.5q0 -73 92 -145v-238q-79 5 -79 135h-18
v-14q0 -56 22.5 -95t74.5 -45v-48zM122 0v54q-96 26 -96 162v41h72q0 -96 24 -121v183q-92 73 -92 159q0 44 25.5 84t66.5 57v56h74v-51q97 -15 97 -167v-34h-74q0 99 -23 119v-188q98 -77 98 -154q0 -53 -25.5 -94.5t-72.5 -53.5v-52h-74zM105 477q0 -30 17 -54v107
q-17 -26 -17 -53zM220 201q0 26 -24 54v-120q24 21 24 66z" />
    <glyph glyph-name="percent" unicode="%" horiz-adv-x="469" 
d="M320 647l-247 -619h18l248 619h-19zM376 150q0 -26 -14.5 -44.5t-39.5 -18.5t-39 18.5t-14 44.5v81q0 26 14 44t39 18t39.5 -18.5t14.5 -43.5v-81zM322 309q-32 0 -51 -22.5t-19 -55.5v-81q0 -33 19 -57t51 -24t51 24t19 57v81q0 33 -19 55.5t-51 22.5zM40 443v80
q0 26 14 44t39 18q26 0 39.5 -17.5t13.5 -44.5v-80q0 -27 -13.5 -45t-39.5 -18q-25 0 -39 18.5t-14 44.5zM164 443v80q0 34 -19 57.5t-52 23.5q-32 0 -51.5 -24t-19.5 -57v-80q0 -33 19.5 -56.5t51.5 -23.5q33 0 52 23t19 57zM192 443q0 -45 -27 -76.5t-72 -31.5t-72 32
t-27 76v80q0 44 27 76.5t72 32.5t72 -32t27 -77v-80zM68 443q0 -35 25 -35t25 35v80q0 34 -25 34t-25 -34v-80zM322 337q45 0 71.5 -31t26.5 -75v-81q0 -44 -26.5 -76.5t-71.5 -32.5q-44 0 -71 32.5t-27 76.5v81q0 44 26.5 75t71.5 31zM348 150v81q0 14 -7 24t-19 10
t-18.5 -10t-6.5 -24v-81q0 -35 25 -35q26 0 26 35zM301 674h78l-270 -674h-77z" />
    <glyph glyph-name="ampersand" unicode="&#x26;" horiz-adv-x="446" 
d="M291 118q-43 -72 -133 -72q-52 0 -85 38t-33 90q0 38 36.5 81t79.5 74zM93 548q0 35 19.5 57t54.5 22q39 0 52 -26t13 -71q0 -99 -71 -173q-68 103 -68 191zM158 28q90 0 143 73l43 -73h19l-40 68h1l-12 22q30 60 30 191h-18q0 -115 -25 -172l-128 204q80 77 80 189
q0 53 -17.5 85t-66.5 32q-43 0 -68 -28t-25 -71q0 -87 74 -204q-34 -27 -57 -48t-46 -56t-23 -67q0 -61 38 -103t98 -42zM158 0q-73 0 -118.5 50.5t-45.5 122.5q0 82 118 178q-65 105 -65 197q0 55 32 90.5t88 35.5q34 0 57 -12t34.5 -33.5t15.5 -45t4 -53.5
q0 -109 -72 -194l83 -132q7 40 7 132h74q0 -154 -27 -218l4 -8l62 -110h-80l-33 53q-53 -53 -138 -53zM120 548q0 -69 44 -145q41 54 41 127q0 70 -38 70q-22 0 -34.5 -14.5t-12.5 -37.5zM258 119l-109 170q-81 -70 -81 -115q0 -41 25.5 -71t64.5 -30q63 0 100 46z" />
    <glyph glyph-name="quotesingle" unicode="'" horiz-adv-x="101" 
d="M26 576h18v71h-18v-71zM-2 548v126h74v-126h-74z" />
    <glyph glyph-name="parenleft" unicode="(" horiz-adv-x="186" 
d="M120 46q-75 93 -75 293q0 75 17.5 156.5t56.5 129.5l-10 19q-86 -104 -86 -305q0 -205 84 -306zM157 44l-50 -50q-61 60 -84.5 156t-23.5 189q0 94 26 191.5t93 158.5l35 -70q-46 -42 -65.5 -123t-19.5 -157q0 -196 89 -295z" />
    <glyph glyph-name="parenright" unicode=")" horiz-adv-x="178" 
d="M33 46l13 -13q84 101 84 306q0 201 -86 305l-10 -19q39 -48 56.5 -129.5t17.5 -156.5q0 -200 -75 -293zM46 -6l-50 50q89 99 89 295q0 76 -19.5 157t-65.5 123l35 70q67 -61 93 -158.5t26 -191.5q0 -93 -23.5 -189t-84.5 -156z" />
    <glyph glyph-name="asterisk" unicode="*" horiz-adv-x="315" 
d="M247 559l-6 19l-93 -34v99h-19v-99l-91 34l-6 -17l89 -34l-67 -78l15 -12l70 82l71 -83l15 14q-7 8 -31.5 35t-37.5 42zM281 543l-78 -28l19 -21l41 -45l-55 -53l-69 80l-67 -77l-58 47l61 70q-4 2 -16 6l-61 23l24 68l80 -30v87h73v-88l83 31z" />
    <glyph glyph-name="plus" unicode="+" horiz-adv-x="346" 
d="M268 344h-110v118h-18v-118h-108v-18h108v-118h18v118h110v18zM295 372v-74h-109v-117h-74v117h-108v74h108v117h74v-117h109z" />
    <glyph glyph-name="comma" unicode="," horiz-adv-x="99" 
d="M15 -31l30 68h-22l-24 -68h16zM34 -59h-75l45 123h82z" />
    <glyph glyph-name="hyphen" unicode="-" horiz-adv-x="319" 
d="M249 325v18h-216v-18h216zM276 298h-271v73h271v-73z" />
    <glyph glyph-name="period" unicode="." horiz-adv-x="127" 
d="M47 28v21h-19v-21h19zM72 0h-68v76h68v-76z" />
    <glyph glyph-name="slash" unicode="/" horiz-adv-x="388" 
d="M291 647l-247 -619h19l248 619h-20zM272 674h79l-270 -674h-78z" />
    <glyph glyph-name="zero" unicode="0" horiz-adv-x="354" 
d="M151 633q101 0 101 -137v-317q0 -138 -102 -138q-55 0 -79.5 40t-24.5 99v317q0 59 24.5 97.5t80.5 38.5zM150 23q59 0 89.5 41t30.5 103v341q0 61 -30 102t-89 41q-62 0 -92 -39.5t-30 -103.5v-341q0 -61 31 -102.5t90 -41.5zM150 -5q-74 0 -111.5 49.5t-37.5 122.5v341
q0 76 37 123.5t113 47.5q73 0 110 -49t37 -122v-341q0 -74 -37 -123t-111 -49zM151 605q-77 0 -77 -108v-317q0 -111 76 -111q74 0 74 110v317q0 109 -73 109z" />
    <glyph glyph-name="one" unicode="1" horiz-adv-x="214" 
d="M118 647l-89 -119l11 -11l79 101v-590h19v619h-20zM105 674h60v-674h-73v538l-50 -61l-49 48l38 53z" />
    <glyph glyph-name="two" unicode="2" horiz-adv-x="338" 
d="M254 28v17h-203q1 68 22 121t50.5 87.5t59.5 67.5t50.5 80.5t20.5 107.5q0 62 -26.5 102.5t-85.5 40.5q-114 0 -110 -163h18q0 145 92 145q50 0 72 -35.5t22 -87.5q0 -60 -21 -105t-51 -77t-60 -67.5t-51 -94.5t-21 -139h222zM282 0h-277q0 69 9.5 121.5t30 92t36 60
t44.5 52.5q28 32 42 50.5t28 55t14 79.5q0 40 -16 67.5t-51 27.5q-65 0 -65 -145h-71q-6 219 136 219q74 0 107 -48.5t33 -122.5q0 -55 -17 -101.5t-34.5 -70t-52.5 -63.5q-31 -35 -46 -54.5t-32 -60t-21 -86.5h203v-73z" />
    <glyph glyph-name="three" unicode="3" horiz-adv-x="324" 
d="M252 185q0 127 -87 150q45 13 66 57t21 97q0 41 -8.5 74.5t-34.5 60.5t-67 27q-32 0 -55 -16t-34.5 -43t-16.5 -54t-6 -58h18q5 153 95 153q35 0 56.5 -25t27.5 -54.5t6 -64.5q0 -62 -30 -101.5t-89 -44.5v-17q119 -7 119 -141q0 -144 -91 -144q-30 0 -49.5 13.5
t-28.5 39t-12 47t-4 52.5h-18q0 -35 4 -61.5t14.5 -53t34.5 -41t59 -14.5q110 0 110 162zM280 185q0 -190 -138 -190q-44 0 -73.5 19t-43 54.5t-18 70t-4.5 81.5h71q1 -31 3.5 -52.5t9 -46.5t20.5 -38.5t35 -13.5q64 0 64 116q0 108 -120 114v70q60 5 90 37t30 83
q0 116 -63 116q-64 0 -69 -152h-72q1 41 7.5 76t21 71.5t43 57.5t68.5 21q51 0 84 -31.5t43.5 -71.5t10.5 -87q0 -100 -57 -152q57 -50 57 -152z" />
    <glyph glyph-name="four" unicode="4" horiz-adv-x="344" 
d="M250 268h-200l200 342v-342zM250 647l-220 -379v-20h220v-220h18v619h-18zM234 674h62v-674h-73v220h-221v56zM223 296v213l-125 -213h125z" />
    <glyph glyph-name="five" unicode="5" horiz-adv-x="330" 
d="M232 647h-203v-348h17q9 37 33.5 64t59.5 27q55 0 74 -38t19 -100v-78q0 -54 -21.5 -94t-71.5 -40q-26 0 -44 10t-27.5 24.5t-14.5 37.5t-5.5 40.5t-0.5 42.5h-18v-22q0 -150 110 -150q57 0 84.5 44t27.5 105v87q0 150 -112 150q-27 0 -52.5 -15.5t-39.5 -39.5v275h185
v18zM260 674v-72h-186v-184q30 18 65 18q139 0 139 -177v-87q0 -72 -34 -124.5t-105 -52.5q-137 0 -137 178v49h72q0 -32 1.5 -54t7 -47.5t20 -39t36.5 -13.5q35 0 50.5 31.5t15.5 74.5v78q0 111 -66 111q-25 0 -44 -27t-28 -64h-65v402h258z" />
    <glyph glyph-name="six" unicode="6" horiz-adv-x="332" 
d="M47 278q0 48 24.5 84.5t69.5 36.5q91 0 91 -131v-87q0 -54 -22 -97t-70 -43q-49 0 -71 33.5t-22 85.5v118zM140 23q55 0 83 47t28 106v92q0 149 -110 149q-29 0 -55.5 -17t-38.5 -43v107q0 29 4 55t13.5 54t30.5 44.5t51 16.5q24 0 41 -9t26 -21t13.5 -32.5t5 -36.5
t0.5 -39h20v22q0 59 -25 96t-81 37q-35 0 -59.5 -17.5t-36.5 -47.5t-16.5 -59t-4.5 -63v-309q0 -59 27 -95.5t84 -36.5zM140 -5q-72 0 -105 44t-33 116v309q0 39 5.5 72t20 68t44.5 55t74 20q70 0 101.5 -45t31.5 -116v-50h-74q0 30 -1 49.5t-6 42.5t-18 34.5t-34 11.5
q-72 0 -72 -142v-39q33 19 67 19q137 0 137 -176v-92q0 -70 -34.5 -125.5t-103.5 -55.5zM74 278v-118q0 -91 66 -91q34 0 49.5 34.5t15.5 77.5v87q0 104 -64 104q-32 0 -49.5 -28.5t-17.5 -65.5z" />
    <glyph glyph-name="seven" unicode="7" horiz-adv-x="277" 
d="M18 28h18l190 600v19h-201v-19h179v-2zM-20 0l186 601h-168v73h253v-73l-194 -601h-77z" />
    <glyph glyph-name="eight" unicode="8" horiz-adv-x="352" 
d="M148 39q-55 0 -80 40.5t-25 99.5q0 60 25 104t80 44q106 0 106 -148q0 -57 -26 -98.5t-80 -41.5zM50 489q0 144 98 144t98 -144q0 -30 -3.5 -52.5t-13 -45.5t-30 -35.5t-51.5 -12.5q-98 0 -98 146zM265 492q0 68 -27 113.5t-90 45.5q-116 0 -116 -159q0 -121 62 -157
q-36 -20 -52.5 -63t-16.5 -91q0 -69 29 -114.5t94 -45.5q63 0 93.5 47t30.5 113q0 123 -72 154q22 10 36 27t19.5 41t7.5 43t2 46zM292 492q0 -111 -43 -156q51 -49 51 -155q0 -77 -37.5 -132t-114.5 -55q-80 0 -115 53t-35 134q0 101 52 154q-45 46 -45 157q0 187 143 187
q78 0 111 -53.5t33 -133.5zM77 489q0 -118 71 -118t71 118q0 116 -71 116t-71 -116zM148 67q40 0 59 33t19 79q0 120 -78 120q-41 0 -59 -35.5t-18 -84.5q0 -47 18 -79.5t59 -32.5z" />
    <glyph glyph-name="nine" unicode="9" horiz-adv-x="328" 
d="M233 396q0 -48 -24.5 -84.5t-69.5 -36.5q-91 0 -91 131v87q0 54 22 97t70 43q49 0 71 -33.5t22 -85.5v-118zM140 651q-55 0 -82.5 -46.5t-27.5 -106.5v-92q0 -149 109 -149q29 0 55 16.5t39 43.5v-107q0 -29 -4 -55t-13.5 -54t-30.5 -44.5t-51 -16.5q-24 0 -41 9t-26 21
t-13.5 32.5t-5 36.5t-0.5 39h-19v-22q0 -133 105 -133q118 0 118 187v309q0 59 -27.5 95.5t-84.5 36.5zM140 679q72 0 105.5 -44t33.5 -116v-309q0 -215 -145 -215q-70 0 -101 45t-31 116v50h73q0 -30 1 -49.5t6 -42.5t18 -34.5t34 -11.5q72 0 72 142v38q-33 -18 -67 -18
q-136 0 -136 176v92q0 71 34 126t103 55zM206 396v118q0 91 -66 91q-34 0 -49.5 -34.5t-15.5 -77.5v-87q0 -104 64 -104q32 0 49.5 28.5t17.5 65.5z" />
    <glyph glyph-name="colon" unicode=":" horiz-adv-x="133" 
d="M30 161h18v41h-18v-41zM30 478v-41h18v41h-18zM2 505h74v-95h-74v95zM2 133v97h74v-97h-74z" />
    <glyph glyph-name="semicolon" unicode=";" horiz-adv-x="117" 
d="M16 142l29 67h-21l-25 -67h17zM32 478v-41h23v41h-23zM5 505h77v-95h-77v95zM30 115h-66l45 122h74z" />
    <glyph glyph-name="less" unicode="&#x3c;" horiz-adv-x="257" 
d="M164 647l-124 -310l124 -309h20l-124 309l124 310h-20zM146 674h78l-134 -337l134 -337h-78l-135 337z" />
    <glyph glyph-name="equal" unicode="=" horiz-adv-x="332" 
d="M249 261h-216v-18h216v18zM249 457h-216v-17h216v17zM276 485v-73h-271v73h271zM276 288v-72h-271v72h271z" />
    <glyph glyph-name="greater" unicode="&#x3e;" horiz-adv-x="257" 
d="M42 647l125 -310l-125 -309h20l123 309l-123 310h-20zM1 674h80l133 -337l-133 -337h-80l136 337z" />
    <glyph glyph-name="question" unicode="?" horiz-adv-x="346" 
d="M107 124v43q0 43 4 74t13 52.5t16 32.5t22 29t21 26v-1q15 20 22 32t14 35t7 51q0 108 -77 108q-42 0 -60 -49t-18 -114h-73q0 43 7 82t23 75.5t47.5 58t74.5 21.5q78 0 114 -49.5t36 -128.5q0 -94 -83 -197q-24 -32 -30.5 -61.5t-6.5 -80.5v-39h-73zM180 0h-73v84h73
v-84zM153 28v29h-19v-29h19zM134 152h19q0 33 1.5 53t11.5 53.5t30 63.5q40 50 58 88t18 92q0 67 -29 108.5t-93 41.5q-46 0 -75.5 -30t-39 -68t-9.5 -84h17q0 29 4.5 55.5t15.5 52t33 41t53 15.5q105 0 105 -136q0 -41 -12.5 -71.5t-30 -52t-35 -45t-30 -64.5t-12.5 -98
v-15z" />
    <glyph glyph-name="at" unicode="@" horiz-adv-x="667" 
d="M268 180q-37 0 -56 29t-19 68q0 35 16 83.5t47.5 89t67.5 40.5q62 0 62 -71q0 -17 -11 -65q-1 -5 -5 -29t-6.5 -34t-8 -31.5t-12.5 -32t-17.5 -23.5t-25 -18.5t-32.5 -5.5zM524 120q-92 -60 -195 -60q-116 0 -191.5 67.5t-75.5 181.5q0 124 81 211.5t204 87.5
q97 0 152.5 -58t55.5 -156q0 -57 -17.5 -107t-58.5 -85.5t-99 -35.5q-18 0 -18 31q0 20 12 77.5t33 141t21 84.5h-20l-9 -39q-5 20 -21 34t-37 14q-52 0 -92 -39.5t-58 -91.5t-18 -102q0 -51 25 -83t74 -32q48 0 71 28q1 -16 10.5 -28t24.5 -12q94 0 145.5 72t51.5 170
q0 105 -60 169.5t-165 64.5q-134 0 -220 -92t-86 -227q0 -120 81.5 -192t203.5 -72q115 0 214 69zM522 152l74 -37q-142 -100 -267 -100q-133 0 -223 79t-90 212q0 147 93.5 247t240.5 100q117 0 184.5 -72t67.5 -190q0 -70 -23 -129.5t-75.5 -100t-125.5 -40.5
q-29 0 -48 24q-26 -12 -58 -12q-63 0 -94.5 40t-31.5 103q0 56 21 114t67.5 102t106.5 44q25 0 44 -13q1 3 1 4h76l-20 -86q-53 -202 -53 -244q-1 -3 -6 -3q48 1 82 32.5t48.5 75t14.5 92.5q0 85 -48 135.5t-133 50.5q-111 0 -184 -79t-73 -192q0 -101 67.5 -161.5
t171.5 -60.5q96 0 193 65zM268 208q19 0 32.5 11t22 33t12 38.5t8.5 43.5l6 27l3 13q7 33 7 45q0 44 -35 44q-42 0 -73 -67.5t-31 -118.5q0 -28 12 -48.5t36 -20.5z" />
    <glyph glyph-name="A" unicode="A" horiz-adv-x="435" 
d="M193 601l83 -363h-166zM63 28l43 192h174l43 -192h18l-141 619h-14l-142 -619h19zM85 0h-75l154 674h58l153 -674h-75l-42 193h-128zM193 479l-48 -214h96z" />
    <glyph glyph-name="B" unicode="B" horiz-adv-x="349" 
d="M140 46h-91v281h84q67 0 96 -36t29 -105q0 -68 -26 -104t-92 -36zM49 629h69q130 0 130 -141q0 -144 -123 -144h-76v285zM266 488q0 159 -150 159h-86v-619h113q73 0 103.5 41t30.5 117q0 132 -94 152q83 32 83 150zM294 488q0 -102 -53 -146q64 -45 64 -156
q0 -90 -37 -138t-125 -48h-140v674h113q178 0 178 -186zM76 602v-230h49q95 0 95 116q0 114 -102 114h-42zM140 73q50 0 70 29t20 84q0 56 -22.5 84.5t-74.5 28.5h-57v-226h64z" />
    <glyph glyph-name="C" unicode="C" horiz-adv-x="381" 
d="M167 21q41 0 69 14.5t42 41t20 57t6 69.5h-18q0 -34 -4.5 -60.5t-16.5 -51.5t-37 -38.5t-61 -13.5q-60 0 -90 41t-30 103v309q0 62 30.5 103t90.5 41q36 0 60.5 -13.5t36.5 -38t16.5 -51t4.5 -61.5h18q0 181 -136 181q-70 0 -104.5 -44.5t-34.5 -116.5v-309
q0 -73 34.5 -117.5t103.5 -44.5zM167 -6q-83 0 -124.5 52t-41.5 137v309q0 85 42 137t125 52q96 0 130 -56.5t34 -180.5h-74q0 30 -1 49.5t-6 43.5t-14 38t-26.5 23.5t-42.5 9.5q-47 0 -70 -33t-23 -83v-309q0 -51 22.5 -84t69.5 -33q38 0 58.5 23t26.5 56t6 86h74
q0 -43 -2.5 -73.5t-12.5 -63.5t-27 -53.5t-48 -33.5t-75 -13z" />
    <glyph glyph-name="D" unicode="D" horiz-adv-x="378" 
d="M49 45v584h92q129 0 129 -152v-280q0 -152 -129 -152h-92zM148 28q139 0 139 164v290q0 75 -33.5 120t-105.5 45h-116v-619h116zM148 0h-144v674h144q87 0 127 -52.5t40 -139.5v-290q0 -88 -40 -140t-127 -52zM77 73h64q101 0 101 124v280q0 125 -101 125h-64v-529z" />
    <glyph glyph-name="E" unicode="E" horiz-adv-x="323" 
d="M244 629v18h-215l1 -619h214v17h-197v282h132v17h-132v285h197zM272 602h-198v-230h132v-73h-132v-226h198v-73h-269l-1 674h270v-72z" />
    <glyph glyph-name="F" unicode="F" horiz-adv-x="310" 
d="M241 629v18h-215l1 -619h17v299h132v17h-132v285h197zM269 602h-198v-230h133v-73h-133v-299h-71l-1 674h270v-72z" />
    <glyph glyph-name="G" unicode="G" 
d="M169 21q68 0 103 46t35 115v162h-127v-17h109v-145q0 -60 -31 -101.5t-89 -41.5q-60 0 -90 40.5t-30 102.5v302q0 66 29.5 109t92.5 43q61 0 88 -44t27 -111h18q0 78 -32.5 125t-100.5 47t-104 -45t-36 -115v-311q0 -70 35 -115.5t103 -45.5zM169 -6q-82 0 -124 53
t-42 135v311q0 83 43 135.5t125 52.5q89 0 124.5 -56.5t35.5 -167.5h-73q0 44 -6 74.5t-26 53.5t-55 23q-48 0 -71.5 -35t-23.5 -89v-302q0 -51 23.5 -83.5t69.5 -32.5q45 0 68.5 33.5t23.5 82.5v117h-108v73h181v-190q0 -81 -42 -134.5t-123 -53.5z" />
    <glyph glyph-name="H" unicode="H" horiz-adv-x="348" 
d="M260 647v-304h-212v304h-17v-619h17v298h212v-298h19v619h-19zM233 674h73v-674h-73v298h-157v-298h-73v674h73v-303h157v303z" />
    <glyph glyph-name="I" unicode="I" horiz-adv-x="144" 
d="M53 28v619h-19v-619h19zM80 0h-73v674h73v-674z" />
    <glyph glyph-name="J" unicode="J" horiz-adv-x="355" 
d="M144 21q66 0 95.5 43.5t29.5 112.5v473h-18v-464q0 -147 -107 -147q-33 0 -55 13t-32.5 38t-14 49.5t-3.5 58.5h-19q0 -91 29 -134t95 -43zM144 -6q-86 0 -118.5 56t-32.5 176h73q0 -35 2 -57.5t9 -49t23.5 -40t43.5 -13.5q79 0 79 120v492h74v-501q0 -82 -36 -132.5
t-117 -50.5z" />
    <glyph glyph-name="K" unicode="K" horiz-adv-x="334" 
d="M262 647h-22l-190 -340v340h-19v-619h19v247l40 66l167 -313h21l-176 333zM311 675l-178 -315l192 -360h-85l-152 287l-11 -19v-268h-73v675h73v-267l147 267h87z" />
    <glyph glyph-name="L" unicode="L" horiz-adv-x="281" 
d="M195 28v17h-153v602h-18v-619h171zM222 0h-225v674h72v-601h153v-73z" />
    <glyph glyph-name="M" unicode="M" horiz-adv-x="427" 
d="M46 28v534l137 -534h17l135 535v-535h19v619h-17l-147 -573l-146 573h-16v-619h18zM74 0h-74v674h65l125 -488l126 488h65v-674h-73v348l-87 -348h-59l-88 343v-343z" />
    <glyph glyph-name="N" unicode="N" horiz-adv-x="385" 
d="M49 590l225 -562h15v619h-17v-562l-226 562h-16v-619h19v562zM76 446v-446h-73v674h61l180 -446v446h73v-674h-61z" />
    <glyph glyph-name="O" unicode="O" 
d="M169 635q63 0 91 -43t28 -110v-294q0 -148 -119 -148q-63 0 -91.5 42.5t-28.5 108.5v292q0 64 29.5 108t90.5 44zM169 21q71 0 104 44t33 118v309q0 70 -34.5 116.5t-102.5 46.5t-103 -46.5t-35 -116.5v-309q0 -72 34.5 -117t103.5 -45zM169 -6q-83 0 -124.5 52
t-41.5 137v309q0 82 42.5 135.5t123.5 53.5q82 0 123.5 -53.5t41.5 -135.5v-309q0 -86 -40.5 -137.5t-124.5 -51.5zM169 607q-48 0 -70.5 -35.5t-22.5 -88.5v-292q0 -54 22.5 -89t70.5 -35q91 0 91 121v294q0 125 -91 125z" />
    <glyph glyph-name="P" unicode="P" horiz-adv-x="343" 
d="M48 628h80q70 0 101.5 -35t31.5 -105q0 -72 -33 -108t-104 -36h-76v284zM48 326q111 0 148 11q72 23 82 114q2 17 2 37q0 74 -34.5 116.5t-107.5 42.5h-107v-619h17v298zM76 298v-298h-73v674h135q87 0 128 -49.5t41 -136.5q0 -62 -16 -101.5t-50 -58t-70.5 -24.5
t-94.5 -6zM76 601v-229h48q57 0 83.5 29t26.5 87q0 113 -106 113h-52z" />
    <glyph glyph-name="Q" unicode="Q" horiz-adv-x="393" 
d="M165 39q-59 0 -89 46t-30 109v296q0 64 29.5 105t89.5 41t90 -41t30 -104v-304q0 -78 -29 -114l-43 50h-21l52 -62q-36 -22 -79 -22zM322 -8l-55 65q35 37 35 129v309q0 70 -34.5 114t-102.5 44q-67 0 -102 -44.5t-35 -113.5v-309q0 -70 35 -117.5t102 -47.5q51 0 90 27
l45 -56h22zM379 -36h-92l-39 48q-36 -18 -83 -18q-80 0 -122.5 55t-42.5 137v309q0 82 42.5 134t122.5 52q82 0 123.5 -52t41.5 -134v-309q0 -87 -27 -129zM165 66q20 0 34 5l-65 80h93l24 -30q6 24 6 66v304q0 51 -22.5 84t-69.5 33t-69 -33t-22 -85v-296q0 -52 22.5 -90
t68.5 -38z" />
    <glyph glyph-name="R" unicode="R" horiz-adv-x="346" 
d="M124 344h-85v284h94q68 0 92.5 -36t24.5 -107q0 -75 -26.5 -108t-99.5 -33zM268 485q0 79 -28.5 120.5t-102.5 41.5h-117v-619h19v298h96q62 0 86.5 -27t24.5 -89v-182h19v185q0 105 -73 122q76 23 76 150zM296 485q0 -102 -46 -148q42 -39 42 -124v-213h-73v210
q0 47 -18.5 67.5t-65.5 20.5h-69v-298h-73v674h144q91 0 125 -48t34 -141zM124 372q57 0 77.5 26.5t20.5 86.5q0 58 -18.5 87t-70.5 29h-67v-229h58z" />
    <glyph glyph-name="S" unicode="S" horiz-adv-x="363" 
d="M160 22q133 0 133 140q0 40 -24.5 78.5t-60 69t-70.5 61t-59.5 67t-24.5 73.5q0 54 29 89.5t82 35.5q34 0 56.5 -13.5t32 -39.5t12.5 -47.5t3 -54.5h17q0 86 -25.5 129.5t-95.5 43.5q-59 0 -93.5 -39.5t-34.5 -98.5q0 -99 133 -196h-1q106 -88 106 -159q0 -58 -29 -90
t-86 -32q-111 0 -111 163h-19q0 -89 29 -134.5t101 -45.5zM160 -6q-90 0 -123.5 56.5t-33.5 179.5h73q0 -81 16.5 -122t67.5 -41q43 0 65 25t22 69q0 59 -95 138l1 -1q-144 103 -144 218q0 71 42.5 118t113.5 47q39 0 67 -12t44 -31t24.5 -50.5t11 -61t2.5 -72.5h-73
q0 35 -2 58t-9 47.5t-23.5 36.5t-41.5 12q-40 0 -61.5 -27.5t-21.5 -69.5q0 -26 18.5 -54.5t35 -44.5t54.5 -50v1q42 -38 64.5 -61t44 -62t21.5 -78q0 -81 -40 -124.5t-120 -43.5z" />
    <glyph glyph-name="T" unicode="T" horiz-adv-x="347" 
d="M268 647h-242v-18h111v-601h19v601h112v18zM295 675v-73h-112v-601h-73v601h-112v73h297z" />
    <glyph glyph-name="U" unicode="U" horiz-adv-x="387" 
d="M165 22q67 0 103 40.5t36 108.5v476h-18v-471q0 -62 -30.5 -99.5t-90.5 -37.5q-59 0 -89.5 38t-30.5 99v471h-18l1 -476q0 -68 35.5 -108.5t101.5 -40.5zM165 -6q-80 0 -122.5 48t-42.5 129l-1 504h74v-499q0 -49 23.5 -79t68.5 -30q46 0 69.5 30t23.5 79v499h74v-504
q0 -81 -43 -129t-124 -48z" />
    <glyph glyph-name="V" unicode="V" horiz-adv-x="394" 
d="M305 647l-130 -576l-133 576h-19l144 -619h15l142 619h-19zM283 675h75l-154 -674h-59l-157 674h76l111 -480z" />
    <glyph glyph-name="W" unicode="W" horiz-adv-x="588" 
d="M502 647l-121 -565l-99 565h-15l-98 -565l-125 565h-17l135 -619h14l99 555l98 -555h15l133 619h-19zM480 674h75l-145 -674h-61l-74 420l-75 -420h-60l-147 674h73l99 -448l78 448h63l78 -448z" />
    <glyph glyph-name="X" unicode="X" horiz-adv-x="350" 
d="M19 28h19l110 281l111 -281h19l-120 306l117 313h-19l-108 -288l-107 288h-20l117 -313zM-22 0l131 335l-126 339h77l88 -237l88 237h78l-126 -339l130 -335h-78l-92 234l-91 -234h-79z" />
    <glyph glyph-name="Y" unicode="Y" horiz-adv-x="353" 
d="M276 647l-117 -310l-117 310h-19q24 -67 72.5 -194t53.5 -141v-284h19v284l127 335h-19zM257 674h78l-140 -367v-307h-74v307l-138 367h78l98 -258z" />
    <glyph glyph-name="Z" unicode="Z" horiz-adv-x="355" 
d="M45 48l234 576v23h-239v-19h220v-1l-235 -576v-23h257v18h-237v2zM306 618l-221 -545h225v-73h-312v57l222 544h-208v73h294v-56z" />
    <glyph glyph-name="bracketleft" unicode="[" horiz-adv-x="196" 
d="M40 647v-619h96v17h-79v584h79v18h-96zM12 674h152v-72h-79v-529h79v-73h-152v674z" />
    <glyph glyph-name="backslash" unicode="\" horiz-adv-x="400" 
d="M64 647h-19l247 -619h20zM82 674l270 -674h-79l-269 674h78z" />
    <glyph glyph-name="bracketright" unicode="]" horiz-adv-x="196" 
d="M34 647v-18h78v-584h-78v-17h97v619h-97zM7 674h151v-674h-151v73h78v529h-78v72z" />
    <glyph glyph-name="asciicircum" unicode="^" horiz-adv-x="380" 
d="M21 591l141 87l141 -87v18l-141 85l-141 -85v-18zM-7 541v83l169 103l169 -103v-83l-169 105z" />
    <glyph glyph-name="underscore" unicode="_" horiz-adv-x="481" 
d="M408 -2v18h-366v-18h366zM435 -29h-420v72h420v-72z" />
    <glyph glyph-name="grave" unicode="`" horiz-adv-x="166" 
d="M93 571l-47 76h-21l50 -76h18zM142 544h-81l-88 131h88z" />
    <glyph glyph-name="a" unicode="a" horiz-adv-x="435" 
d="M193 601l83 -363h-166zM63 28l43 192h174l43 -192h18l-141 619h-14l-142 -619h19zM85 0h-75l154 674h58l153 -674h-75l-42 193h-128zM193 479l-48 -214h96z" />
    <glyph glyph-name="b" unicode="b" horiz-adv-x="349" 
d="M140 46h-91v281h84q67 0 96 -36t29 -105q0 -68 -26 -104t-92 -36zM49 629h69q130 0 130 -141q0 -144 -123 -144h-76v285zM266 488q0 159 -150 159h-86v-619h113q73 0 103.5 41t30.5 117q0 132 -94 152q83 32 83 150zM294 488q0 -102 -53 -146q64 -45 64 -156
q0 -90 -37 -138t-125 -48h-140v674h113q178 0 178 -186zM76 602v-230h49q95 0 95 116q0 114 -102 114h-42zM140 73q50 0 70 29t20 84q0 56 -22.5 84.5t-74.5 28.5h-57v-226h64z" />
    <glyph glyph-name="c" unicode="c" horiz-adv-x="381" 
d="M167 21q41 0 69 14.5t42 41t20 57t6 69.5h-18q0 -34 -4.5 -60.5t-16.5 -51.5t-37 -38.5t-61 -13.5q-60 0 -90 41t-30 103v309q0 62 30.5 103t90.5 41q36 0 60.5 -13.5t36.5 -38t16.5 -51t4.5 -61.5h18q0 181 -136 181q-70 0 -104.5 -44.5t-34.5 -116.5v-309
q0 -73 34.5 -117.5t103.5 -44.5zM167 -6q-83 0 -124.5 52t-41.5 137v309q0 85 42 137t125 52q96 0 130 -56.5t34 -180.5h-74q0 30 -1 49.5t-6 43.5t-14 38t-26.5 23.5t-42.5 9.5q-47 0 -70 -33t-23 -83v-309q0 -51 22.5 -84t69.5 -33q38 0 58.5 23t26.5 56t6 86h74
q0 -43 -2.5 -73.5t-12.5 -63.5t-27 -53.5t-48 -33.5t-75 -13z" />
    <glyph glyph-name="d" unicode="d" horiz-adv-x="378" 
d="M49 45v584h92q129 0 129 -152v-280q0 -152 -129 -152h-92zM148 28q139 0 139 164v290q0 75 -33.5 120t-105.5 45h-116v-619h116zM148 0h-144v674h144q87 0 127 -52.5t40 -139.5v-290q0 -88 -40 -140t-127 -52zM77 73h64q101 0 101 124v280q0 125 -101 125h-64v-529z" />
    <glyph glyph-name="e" unicode="e" horiz-adv-x="323" 
d="M244 629v18h-215l1 -619h214v17h-197v282h132v17h-132v285h197zM272 602h-198v-230h132v-73h-132v-226h198v-73h-269l-1 674h270v-72z" />
    <glyph glyph-name="f" unicode="f" horiz-adv-x="310" 
d="M241 629v18h-215l1 -619h17v299h132v17h-132v285h197zM269 602h-198v-230h133v-73h-133v-299h-71l-1 674h270v-72z" />
    <glyph glyph-name="g" unicode="g" 
d="M169 21q68 0 103 46t35 115v162h-127v-17h109v-145q0 -60 -31 -101.5t-89 -41.5q-60 0 -90 40.5t-30 102.5v302q0 66 29.5 109t92.5 43q61 0 88 -44t27 -111h18q0 78 -32.5 125t-100.5 47t-104 -45t-36 -115v-311q0 -70 35 -115.5t103 -45.5zM169 -6q-82 0 -124 53
t-42 135v311q0 83 43 135.5t125 52.5q89 0 124.5 -56.5t35.5 -167.5h-73q0 44 -6 74.5t-26 53.5t-55 23q-48 0 -71.5 -35t-23.5 -89v-302q0 -51 23.5 -83.5t69.5 -32.5q45 0 68.5 33.5t23.5 82.5v117h-108v73h181v-190q0 -81 -42 -134.5t-123 -53.5z" />
    <glyph glyph-name="h" unicode="h" horiz-adv-x="348" 
d="M260 647v-304h-212v304h-17v-619h17v298h212v-298h19v619h-19zM233 674h73v-674h-73v298h-157v-298h-73v674h73v-303h157v303z" />
    <glyph glyph-name="i" unicode="i" horiz-adv-x="144" 
d="M53 28v619h-19v-619h19zM80 0h-73v674h73v-674z" />
    <glyph glyph-name="j" unicode="j" horiz-adv-x="355" 
d="M144 21q66 0 95.5 43.5t29.5 112.5v473h-18v-464q0 -147 -107 -147q-33 0 -55 13t-32.5 38t-14 49.5t-3.5 58.5h-19q0 -91 29 -134t95 -43zM144 -6q-86 0 -118.5 56t-32.5 176h73q0 -35 2 -57.5t9 -49t23.5 -40t43.5 -13.5q79 0 79 120v492h74v-501q0 -82 -36 -132.5
t-117 -50.5z" />
    <glyph glyph-name="k" unicode="k" horiz-adv-x="337" 
d="M262 647h-22l-190 -340v340h-19v-619h19v247l40 66l167 -313h21l-176 333zM311 675l-178 -315l192 -360h-85l-152 287l-11 -19v-268h-73v675h73v-267l147 267h87z" />
    <glyph glyph-name="l" unicode="l" horiz-adv-x="281" 
d="M195 28v17h-153v602h-18v-619h171zM222 0h-225v674h72v-601h153v-73z" />
    <glyph glyph-name="m" unicode="m" horiz-adv-x="427" 
d="M46 28v534l137 -534h17l135 535v-535h19v619h-17l-147 -573l-146 573h-16v-619h18zM74 0h-74v674h65l125 -488l126 488h65v-674h-73v348l-87 -348h-59l-88 343v-343z" />
    <glyph glyph-name="n" unicode="n" horiz-adv-x="385" 
d="M49 590l225 -562h15v619h-17v-562l-226 562h-16v-619h19v562zM76 446v-446h-73v674h61l180 -446v446h73v-674h-61z" />
    <glyph glyph-name="o" unicode="o" 
d="M169 635q63 0 91 -43t28 -110v-294q0 -148 -119 -148q-63 0 -91.5 42.5t-28.5 108.5v292q0 64 29.5 108t90.5 44zM169 21q71 0 104 44t33 118v309q0 70 -34.5 116.5t-102.5 46.5t-103 -46.5t-35 -116.5v-309q0 -72 34.5 -117t103.5 -45zM169 -6q-83 0 -124.5 52
t-41.5 137v309q0 82 42.5 135.5t123.5 53.5q82 0 123.5 -53.5t41.5 -135.5v-309q0 -86 -40.5 -137.5t-124.5 -51.5zM169 607q-48 0 -70.5 -35.5t-22.5 -88.5v-292q0 -54 22.5 -89t70.5 -35q91 0 91 121v294q0 125 -91 125z" />
    <glyph glyph-name="p" unicode="p" horiz-adv-x="343" 
d="M48 628h80q70 0 101.5 -35t31.5 -105q0 -72 -33 -108t-104 -36h-76v284zM48 326q111 0 148 11q72 23 82 114q2 17 2 37q0 74 -34.5 116.5t-107.5 42.5h-107v-619h17v298zM76 298v-298h-73v674h135q87 0 128 -49.5t41 -136.5q0 -62 -16 -101.5t-50 -58t-70.5 -24.5
t-94.5 -6zM76 601v-229h48q57 0 83.5 29t26.5 87q0 113 -106 113h-52z" />
    <glyph glyph-name="q" unicode="q" horiz-adv-x="393" 
d="M165 39q-59 0 -89 46t-30 109v296q0 64 29.5 105t89.5 41t90 -41t30 -104v-304q0 -78 -29 -114l-43 50h-21l52 -62q-36 -22 -79 -22zM322 -8l-55 65q35 37 35 129v309q0 70 -34.5 114t-102.5 44q-67 0 -102 -44.5t-35 -113.5v-309q0 -70 35 -117.5t102 -47.5q51 0 90 27
l45 -56h22zM379 -36h-92l-39 48q-36 -18 -83 -18q-80 0 -122.5 55t-42.5 137v309q0 82 42.5 134t122.5 52q82 0 123.5 -52t41.5 -134v-309q0 -87 -27 -129zM165 66q20 0 34 5l-65 80h93l24 -30q6 24 6 66v304q0 51 -22.5 84t-69.5 33t-69 -33t-22 -85v-296q0 -52 22.5 -90
t68.5 -38z" />
    <glyph glyph-name="r" unicode="r" horiz-adv-x="346" 
d="M124 344h-85v284h94q68 0 92.5 -36t24.5 -107q0 -75 -26.5 -108t-99.5 -33zM268 485q0 79 -28.5 120.5t-102.5 41.5h-117v-619h19v298h96q62 0 86.5 -27t24.5 -89v-182h19v185q0 105 -73 122q76 23 76 150zM296 485q0 -102 -46 -148q42 -39 42 -124v-213h-73v210
q0 47 -18.5 67.5t-65.5 20.5h-69v-298h-73v674h144q91 0 125 -48t34 -141zM124 372q57 0 77.5 26.5t20.5 86.5q0 58 -18.5 87t-70.5 29h-67v-229h58z" />
    <glyph glyph-name="s" unicode="s" horiz-adv-x="363" 
d="M160 22q133 0 133 140q0 40 -24.5 78.5t-60 69t-70.5 61t-59.5 67t-24.5 73.5q0 54 29 89.5t82 35.5q34 0 56.5 -13.5t32 -39.5t12.5 -47.5t3 -54.5h17q0 86 -25.5 129.5t-95.5 43.5q-59 0 -93.5 -39.5t-34.5 -98.5q0 -99 133 -196h-1q106 -88 106 -159q0 -58 -29 -90
t-86 -32q-111 0 -111 163h-19q0 -89 29 -134.5t101 -45.5zM160 -6q-90 0 -123.5 56.5t-33.5 179.5h73q0 -81 16.5 -122t67.5 -41q43 0 65 25t22 69q0 59 -95 138l1 -1q-144 103 -144 218q0 71 42.5 118t113.5 47q39 0 67 -12t44 -31t24.5 -50.5t11 -61t2.5 -72.5h-73
q0 35 -2 58t-9 47.5t-23.5 36.5t-41.5 12q-40 0 -61.5 -27.5t-21.5 -69.5q0 -26 18.5 -54.5t35 -44.5t54.5 -50v1q42 -38 64.5 -61t44 -62t21.5 -78q0 -81 -40 -124.5t-120 -43.5z" />
    <glyph glyph-name="t" unicode="t" horiz-adv-x="347" 
d="M268 647h-242v-18h111v-601h19v601h112v18zM295 675v-73h-112v-601h-73v601h-112v73h297z" />
    <glyph glyph-name="u" unicode="u" horiz-adv-x="387" 
d="M165 22q67 0 103 40.5t36 108.5v476h-18v-471q0 -62 -30.5 -99.5t-90.5 -37.5q-59 0 -89.5 38t-30.5 99v471h-18l1 -476q0 -68 35.5 -108.5t101.5 -40.5zM165 -6q-80 0 -122.5 48t-42.5 129l-1 504h74v-499q0 -49 23.5 -79t68.5 -30q46 0 69.5 30t23.5 79v499h74v-504
q0 -81 -43 -129t-124 -48z" />
    <glyph glyph-name="v" unicode="v" horiz-adv-x="394" 
d="M305 647l-130 -576l-133 576h-19l144 -619h15l142 619h-19zM283 675h75l-154 -674h-59l-157 674h76l111 -480z" />
    <glyph glyph-name="w" unicode="w" horiz-adv-x="589" 
d="M502 647l-121 -565l-99 565h-15l-98 -565l-125 565h-17l135 -619h14l99 555l98 -555h15l133 619h-19zM480 674h75l-145 -674h-61l-74 420l-75 -420h-60l-147 674h73l99 -448l78 448h63l78 -448z" />
    <glyph glyph-name="x" unicode="x" horiz-adv-x="350" 
d="M19 28h19l110 281l111 -281h19l-120 306l117 313h-19l-108 -288l-107 288h-20l117 -313zM-22 0l131 335l-126 339h77l88 -237l88 237h78l-126 -339l130 -335h-78l-92 234l-91 -234h-79z" />
    <glyph glyph-name="y" unicode="y" horiz-adv-x="353" 
d="M276 647l-117 -310l-117 310h-19q24 -67 72.5 -194t53.5 -141v-284h19v284l127 335h-19zM257 674h78l-140 -367v-307h-74v307l-138 367h78l98 -258z" />
    <glyph glyph-name="z" unicode="z" horiz-adv-x="355" 
d="M45 48l234 576v23h-239v-19h220v-1l-235 -576v-23h257v18h-237v2zM306 618l-221 -545h225v-73h-312v57l222 544h-208v73h294v-56z" />
    <glyph glyph-name="braceleft" unicode="{" horiz-adv-x="216" 
d="M155 647q-49 0 -72.5 -28t-25 -69.5t1 -84.5t-4 -79t-30.5 -47v-26q24 -12 31 -47t5 -74t0.5 -77t25 -62.5t69.5 -24.5v18q-49 0 -66 37t-12.5 83t-1 93.5t-32.5 63.5v6q24 18 31 56t4 78t-2.5 78t19 62.5t60.5 24.5v19zM182 674v-73q-47 0 -63.5 -20.5t-16.5 -57.5
q0 -13 2 -43t2 -47q0 -71 -26 -106q24 -29 24 -107v-29q0 -5 -0.5 -15t-0.5 -15q0 -42 16 -65t63 -23v-73q-48 -1 -80 11t-46 36t-19 48t-5 59v59q0 65 -35 83v60q35 16 35 77q0 6 -0.5 18t-0.5 19q-1 13 -1 44q0 36 5 61t20 49.5t47 37t80 12.5z" />
    <glyph glyph-name="bar" unicode="|" horiz-adv-x="109" 
d="M57 28v625h-18v-625h18zM84 0h-72v681h72v-681z" />
    <glyph glyph-name="braceright" unicode="}" horiz-adv-x="220" 
d="M36 628q42 0 60.5 -24t19 -61.5t-2 -77.5t4.5 -78.5t30 -57.5v-6q-24 -13 -31 -47t-5 -72t1.5 -74.5t-19 -60t-58.5 -23.5v-18q47 0 69.5 24.5t24.5 62.5t0 77t5 74t31 47v26q-24 11 -30.5 47t-4 79t1 84.5t-24.5 69.5t-72 28v-19zM8 601v73q91 0 122 -42.5t31 -117.5
q0 -30 -1 -44q0 -7 -0.5 -19t-0.5 -18q0 -62 35 -77v-60q-35 -18 -35 -83v-59q0 -35 -5 -59.5t-19.5 -48t-46.5 -35.5t-80 -11v73q47 0 62.5 21.5t15.5 60.5v34q0 6 -0.5 18t-0.5 18q0 72 26 103q-25 36 -25 111v41q1 14 1 40q0 39 -16 60t-63 21z" />
    <glyph glyph-name="asciitilde" unicode="~" horiz-adv-x="320" 
d="M249 346q-27 -9 -30 -9q-21 0 -62 20t-66 20t-64 -28l15 -15q23 23 51 23q21 0 60.5 -19.5t63.5 -19.5q18 0 48 12zM255 381l56 -63q-73 -28 -94 -28q-33 0 -77 23q-36 17 -47 17q-15 0 -51 -34l-57 57q72 51 106 51q30 0 80 -23h-1q36 -16 49 -16q8 0 22 7z" />
    <glyph glyph-name="exclamdown" unicode="&#xa1;" horiz-adv-x="113" 
d="M43 648h-18v-30h18v30zM25 535v-506h18v506h-18zM71 1h-74v561h74v-561zM-3 591v84h74v-84h-74z" />
    <glyph glyph-name="dieresis" unicode="&#xa8;" horiz-adv-x="226" 
d="M193 647h-18v-29h18v29zM48 647h-19v-29h19v29zM75 675v-84h-73v84h73zM221 675v-84h-74v84h74z" />
    <glyph glyph-name="copyright" unicode="&#xa9;" horiz-adv-x="751" 
d="M345 130q90 0 90 117h-17q0 -101 -73 -101q-37 0 -55 25.5t-18 63.5v205q0 38 18 63t55 25q73 0 73 -101h17v13q0 47 -22.5 75.5t-67.5 28.5t-67.5 -28.5t-22.5 -75.5v-205q0 -105 90 -105zM55 340q0 122 85 207.5t207 85.5t208.5 -85.5t86.5 -207.5q0 -123 -86.5 -209
t-208.5 -86q-123 0 -207.5 86t-84.5 209zM38 340q0 -128 91 -219t218 -91q128 0 219 91t91 219t-91 218.5t-219 90.5t-218.5 -90.5t-90.5 -218.5zM11 340q0 140 98 238.5t238 98.5t239 -99t99 -238q0 -140 -99 -238.5t-239 -98.5q-139 0 -237.5 99t-98.5 238zM82 340
q0 -111 77 -189t188 -78t189 78t78 189t-78 188t-189 77q-110 0 -187.5 -77.5t-77.5 -187.5zM345 103q-60 0 -89 36t-29 96v205q0 60 29 95.5t89 35.5q59 0 88 -36t29 -95v-41h-71q0 102 -46 102q-22 0 -33.5 -17.5t-11.5 -43.5v-205q0 -26 11 -43.5t34 -17.5q46 0 46 101
h71q0 -172 -117 -172z" />
    <glyph glyph-name="guillemotleft" unicode="&#xab;" horiz-adv-x="486" 
d="M443 647l-242 -310l243 -309h21l-243 309l243 310h-22zM289 647l-243 -310l244 -309h21l-244 309l244 310h-22zM276 674h92l-266 -337l85 -107l181 -230h-91l-267 337zM429 674h94l-266 -336l108 -139l157 -199h-92l-265 337z" />
    <glyph glyph-name="registered" unicode="&#xae;" horiz-adv-x="751" 
d="M346 358h-47v168h47q36 0 50 -18.5t14 -56.5q0 -93 -64 -93zM425 451q0 44 -16.5 67t-58.5 23h-66v-381h15v183h47q32 0 46.5 -11.5t14.5 -42.5v-129h16v133q0 40 -38 58q40 31 40 100zM55 340q0 122 85 207.5t207 85.5t208.5 -85.5t86.5 -207.5q0 -123 -86.5 -209
t-208.5 -86q-123 0 -207.5 86t-84.5 209zM38 340q0 -128 91 -219t218 -91q128 0 219 91t91 219t-91 218.5t-219 90.5t-218.5 -90.5t-90.5 -218.5zM11 340q0 140 98 238.5t238 98.5t239 -99t99 -238q0 -140 -99 -238.5t-239 -98.5q-139 0 -237.5 99t-98.5 238zM82 340
q0 -111 77 -189t188 -78t189 78t78 189t-78 188t-189 77q-110 0 -187.5 -77.5t-77.5 -187.5zM452 451q0 -56 -26 -96q24 -27 24 -62v-161h-70v157q0 27 -34 27h-19v-184h-70v436h93q58 0 80 -29.5t22 -87.5zM346 386q37 0 37 65q0 48 -37 48h-19v-113h19z" />
    <glyph glyph-name="degree" unicode="&#xb0;" horiz-adv-x="232" 
d="M46 620q0 22 14 36.5t35 14.5q22 0 37.5 -14.5t15.5 -36.5q0 -21 -15.5 -35.5t-37.5 -14.5q-21 0 -35 14.5t-14 35.5zM27 619q0 -27 20 -47.5t48 -20.5q29 0 49.5 20t20.5 48q0 29 -20.5 49t-49.5 20q-28 0 -48 -20.5t-20 -48.5zM0 619q0 39 28 68t67 29q40 0 69 -28
t29 -69q0 -40 -29 -68t-69 -28q-39 0 -67 28.5t-28 67.5zM73 620q0 -10 6.5 -16.5t15.5 -6.5q11 0 18 6.5t7 16.5t-7 16.5t-18 6.5q-9 0 -15.5 -6.5t-6.5 -16.5z" />
    <glyph glyph-name="plusminus" unicode="&#xb1;" horiz-adv-x="346" 
d="M268 419h-110v116h-18v-116h-108v-20h108v-117h18v117h110v20zM295 446v-74h-109v-118h-74v118h-108v74h108v117h74v-117h109zM259 169v17h-226v-17h226zM286 141h-281v73h281v-73z" />
    <glyph glyph-name="acute" unicode="&#xb4;" horiz-adv-x="217" 
d="M109 572l48 75h-19l-42 -75h13zM123 545h-74l73 130h85z" />
    <glyph glyph-name="periodcentered" unicode="&#xb7;" horiz-adv-x="155" 
d="M61 332q0 -15 15 -15q14 0 14 15q0 6 -4 10.5t-10 4.5t-10.5 -4.5t-4.5 -10.5zM33 332q0 17 13 30t30 13q18 0 29.5 -13.5t11.5 -29.5q0 -17 -11.5 -30t-29.5 -13q-17 0 -30 12.5t-13 30.5z" />
    <glyph glyph-name="cedilla" unicode="&#xb8;" horiz-adv-x="184" 
d="M85 -48q0 -19 -25 -33l2 -7q16 4 29 18t13 31q0 26 -24 31q-3 1 -11 1q-6 0 -14 -2q-2 -1 -4.5 -2t-3.5 -1q38 -9 38 -36zM58 -48q0 8 -22 10v53v26h35v-22q23 0 41.5 -16.5t18.5 -41.5q0 -26 -25 -49t-58 -32l-25 51q35 17 35 21z" />
    <glyph glyph-name="ordmasculine" unicode="&#xba;" horiz-adv-x="232" 
d="M45 607q0 21 14.5 36t35.5 15t35.5 -15t14.5 -36t-14.5 -35t-35.5 -14t-35.5 14t-14.5 35zM28 607q0 -27 20 -47t47 -20q28 0 48 20t20 47q0 28 -20 47.5t-48 19.5q-27 0 -47 -19.5t-20 -47.5zM1 607q0 38 28 66t66 28t66.5 -28t28.5 -66t-28.5 -66t-66.5 -28t-66 28
t-28 66zM72 607q0 -9 7 -15.5t16 -6.5q10 0 16.5 6.5t6.5 15.5q0 24 -23 24q-10 0 -16.5 -7t-6.5 -17z" />
    <glyph glyph-name="guillemotright" unicode="&#xbb;" horiz-adv-x="509" 
d="M213 647l244 -310l-244 -309h20l244 309l-244 310h-20zM49 647l244 -310l-244 -309h21l245 309l-245 310h-21zM-7 674h91l266 -337l-266 -337h-93l267 337zM157 674h90l266 -337l-266 -337h-92l266 337z" />
    <glyph glyph-name="questiondown" unicode="&#xbf;" horiz-adv-x="346" 
d="M191 551v-43q0 -43 -4 -74t-13 -52.5t-16 -32.5t-22 -29t-21 -26v1q-15 -20 -22 -32t-14 -35t-7 -51q0 -108 77 -108q42 0 60 49t18 114h73q0 -43 -7 -82t-23 -75.5t-47.5 -58t-74.5 -21.5q-78 0 -114 49.5t-36 128.5q0 94 83 197q24 32 30.5 61.5t6.5 80.5v39h73z
M118 675h73v-84h-73v84zM164 647h-19v-29h19v29zM164 508v15h-19q0 -33 -1.5 -53t-11.5 -53.5t-30 -63.5q-40 -50 -58 -88t-18 -92q0 -67 29 -108.5t93 -41.5q46 0 75.5 30t39 68t9.5 84h-17q0 -29 -4.5 -55.5t-15.5 -52t-33 -41t-53 -15.5q-105 0 -105 136q0 41 12.5 71.5
t30 52t35 45t30 64.5t12.5 98z" />
    <glyph glyph-name="Agrave" unicode="&#xc0;" horiz-adv-x="435" 
d="M193 601l83 -363h-166zM63 28l43 192h174l43 -192h18l-141 619h-14l-142 -619h19zM85 0h-75l154 674h58l153 -674h-75l-42 193h-128zM193 479l-48 -214h96zM235 733l-47 76h-21l50 -76h18zM284 706h-81l-88 131h88z" />
    <glyph glyph-name="Aacute" unicode="&#xc1;" horiz-adv-x="435" 
d="M193 601l83 -363h-166zM63 28l43 192h174l43 -192h18l-141 619h-14l-142 -619h19zM85 0h-75l154 674h58l153 -674h-75l-42 193h-128zM193 479l-48 -214h96zM173 734l48 75h-19l-42 -75h13zM187 707h-74l73 130h85z" />
    <glyph glyph-name="Acircumflex" unicode="&#xc2;" horiz-adv-x="435" 
d="M193 601l83 -363h-166zM63 28l43 192h174l43 -192h18l-141 619h-14l-142 -619h19zM85 0h-75l154 674h58l153 -674h-75l-42 193h-128zM193 479l-48 -214h96zM149 728l39 65h6l42 -65h13l-43 84h-29l-43 -84h15zM164 700h-74l70 140h63l74 -140h-74l-31 44z" />
    <glyph glyph-name="Atilde" unicode="&#xc3;" horiz-adv-x="435" 
d="M193 601l83 -363h-166zM63 28l43 192h174l43 -192h18l-141 619h-14l-142 -619h19zM85 0h-75l154 674h58l153 -674h-75l-42 193h-128zM193 479l-48 -214h96zM297 773q-27 -9 -30 -9q-21 0 -62 20t-66 20t-64 -28l15 -15q23 23 51 23q21 0 60.5 -19.5t63.5 -19.5
q18 0 48 12zM303 808l56 -63q-73 -28 -94 -28q-33 0 -77 23q-36 17 -47 17q-15 0 -51 -34l-57 57q72 51 106 51q30 0 80 -23h-1q36 -16 49 -16q8 0 22 7z" />
    <glyph glyph-name="Adieresis" unicode="&#xc4;" horiz-adv-x="435" 
d="M193 601l83 -363h-166zM63 28l43 192h174l43 -192h18l-141 619h-14l-142 -619h19zM85 0h-75l154 674h58l153 -674h-75l-42 193h-128zM193 479l-48 -214h96zM274 774h-18v-29h18v29zM129 774h-19v-29h19v29zM156 802v-84h-73v84h73zM302 802v-84h-74v84h74z" />
    <glyph glyph-name="Aring" unicode="&#xc5;" horiz-adv-x="435" 
d="M193 601l83 -363h-166zM63 28l43 192h174l43 -192h18l-141 619h-14l-142 -619h19zM85 0h-75l154 674h58l153 -674h-75l-42 193h-128zM193 479l-48 -214h96zM148 750q0 20 12.5 32.5t32.5 12.5q19 0 32.5 -13.5t13.5 -32.5t-13.5 -31.5t-32.5 -12.5q-21 0 -33 12.5
t-12 32.5zM129 749q0 -26 19 -44t45 -18t45 18t19 44t-19 45.5t-45 19.5t-45 -19.5t-19 -45.5zM102 749q0 38 26.5 65t64.5 27q37 0 64.5 -27.5t27.5 -64.5t-27.5 -63.5t-64.5 -26.5q-38 0 -64.5 26t-26.5 64zM175 750q0 -17 18 -17t18 16q0 8 -5.5 13.5t-12.5 5.5t-12.5 -5
t-5.5 -13z" />
    <glyph glyph-name="AE" unicode="&#xc6;" horiz-adv-x="569" 
d="M486 629v18h-225l-234 -619h22l119 301h102v-301h216v17h-198v284h123v17h-123v283h198zM513 602h-197v-228h122v-73h-122v-228h197v-73h-271v301h-56l-118 -301h-82l256 674h271v-72zM259 575l11 30v-76v-183h-101zM209 374h33v83z" />
    <glyph glyph-name="Ccedilla" unicode="&#xc7;" horiz-adv-x="381" 
d="M181 12v9q70 6 96.5 52.5t26.5 129.5h-18q0 -34 -4.5 -60.5t-16.5 -51.5t-37 -38.5t-61 -13.5q-60 0 -90 41t-30 103v309q0 62 30.5 103t90.5 41q36 0 60.5 -13.5t36.5 -38t16.5 -51t4.5 -61.5h18q0 181 -136 181q-70 0 -104.5 -44.5t-34.5 -116.5v-309q0 -71 35 -116.5
t97 -45.5v-9v-52q37 0 39 -17q2 -18 -34 -38l10 -18q17 8 32.5 24.5t15.5 33.5q0 12 -11.5 21.5t-31.5 10.5v35zM171 -65q0 4 -30 7v54q-70 7 -105 58t-35 129v309q0 85 42 137t125 52q96 0 130 -56.5t34 -180.5h-74q0 30 -1 49.5t-6 43.5t-14 38t-26.5 23.5t-42.5 9.5
q-47 0 -70 -33t-23 -83v-309q0 -51 22.5 -84t69.5 -33q38 0 58.5 23t26.5 56t6 86h74q0 -50 -4 -84.5t-17 -69.5t-40.5 -55t-69.5 -25q44 -13 44 -53q0 -25 -23.5 -47.5t-55.5 -35.5l-26 51l8 3q7 3 15 9t8 11z" />
    <glyph glyph-name="Egrave" unicode="&#xc8;" horiz-adv-x="323" 
d="M244 629v18h-215l1 -619h214v17h-197v282h132v17h-132v285h197zM272 602h-198v-230h132v-73h-132v-226h198v-73h-269l-1 674h270v-72zM169 736l-47 76h-21l50 -76h18zM218 709h-81l-88 131h88z" />
    <glyph glyph-name="Eacute" unicode="&#xc9;" horiz-adv-x="323" 
d="M244 629v18h-215l1 -619h214v17h-197v282h132v17h-132v285h197zM272 602h-198v-230h132v-73h-132v-226h198v-73h-269l-1 674h270v-72zM127 744l48 75h-19l-42 -75h13zM141 717h-74l73 130h85z" />
    <glyph glyph-name="Ecircumflex" unicode="&#xca;" horiz-adv-x="323" 
d="M244 629v18h-215l1 -619h214v17h-197v282h132v17h-132v285h197zM272 602h-198v-230h132v-73h-132v-226h198v-73h-269l-1 674h270v-72zM100 728l39 65h6l42 -65h13l-43 84h-29l-43 -84h15zM115 700h-74l70 140h63l74 -140h-74l-31 44z" />
    <glyph glyph-name="Edieresis" unicode="&#xcb;" horiz-adv-x="323" 
d="M244 629v18h-215l1 -619h214v17h-197v282h132v17h-132v285h197zM272 602h-198v-230h132v-73h-132v-226h198v-73h-269l-1 674h270v-72zM221 777h-18v-29h18v29zM76 777h-19v-29h19v29zM103 805v-84h-73v84h73zM249 805v-84h-74v84h74z" />
    <glyph glyph-name="Igrave" unicode="&#xcc;" horiz-adv-x="144" 
d="M53 28v619h-19v-619h19zM80 0h-73v674h73v-674zM71 740l-47 76h-21l50 -76h18zM120 713h-81l-88 131h88z" />
    <glyph glyph-name="Iacute" unicode="&#xcd;" horiz-adv-x="144" 
d="M53 28v619h-19v-619h19zM80 0h-73v674h73v-674zM24 742l48 75h-19l-42 -75h13zM38 715h-74l73 130h85z" />
    <glyph glyph-name="Icircumflex" unicode="&#xce;" horiz-adv-x="144" 
d="M53 28v619h-19v-619h19zM80 0h-73v674h73v-674zM0 728l39 65h6l42 -65h13l-43 84h-29l-43 -84h15zM15 700h-74l70 140h63l74 -140h-74l-31 44z" />
    <glyph glyph-name="Idieresis" unicode="&#xcf;" horiz-adv-x="144" 
d="M53 28v619h-19v-619h19zM80 0h-73v674h73v-674zM125 777h-18v-29h18v29zM-20 777h-19v-29h19v29zM7 805v-84h-73v84h73zM153 805v-84h-74v84h74z" />
    <glyph glyph-name="Eth" unicode="&#xd0;" horiz-adv-x="375" 
d="M146 0h-144v300h-88v73h88v301h144q87 0 127 -52.5t40 -139.5v-290q0 -88 -40 -140t-127 -52zM75 73h65q100 0 100 124v280q0 125 -100 125h-65v-229h80v-73h-80v-227zM146 28q140 0 140 164v290q0 75 -34 120t-106 45h-116v-302h-89v-17h89v-300h116zM48 45v283h79v17
h-79v284h92q127 0 127 -152v-280q0 -152 -127 -152h-92z" />
    <glyph glyph-name="Ntilde" unicode="&#xd1;" horiz-adv-x="385" 
d="M49 590l225 -562h15v619h-17v-562l-226 562h-16v-619h19v562zM76 446v-446h-73v674h61l180 -446v446h73v-674h-61zM254 766q-27 -9 -30 -9q-21 0 -62 20t-66 20t-64 -28l15 -15q23 23 51 23q21 0 60.5 -19.5t63.5 -19.5q18 0 48 12zM260 801l56 -63q-73 -28 -94 -28
q-33 0 -77 23q-36 17 -47 17q-15 0 -51 -34l-57 57q72 51 106 51q30 0 80 -23h-1q36 -16 49 -16q8 0 22 7z" />
    <glyph glyph-name="Ograve" unicode="&#xd2;" 
d="M169 635q63 0 91 -43t28 -110v-294q0 -148 -119 -148q-63 0 -91.5 42.5t-28.5 108.5v292q0 64 29.5 108t90.5 44zM169 21q71 0 104 44t33 118v309q0 70 -34.5 116.5t-102.5 46.5t-103 -46.5t-35 -116.5v-309q0 -72 34.5 -117t103.5 -45zM169 -6q-83 0 -124.5 52
t-41.5 137v309q0 82 42.5 135.5t123.5 53.5q82 0 123.5 -53.5t41.5 -135.5v-309q0 -86 -40.5 -137.5t-124.5 -51.5zM169 607q-48 0 -70.5 -35.5t-22.5 -88.5v-292q0 -54 22.5 -89t70.5 -35q91 0 91 121v294q0 125 -91 125zM192 733l-47 76h-21l50 -76h18zM241 706h-81
l-88 131h88z" />
    <glyph glyph-name="Oacute" unicode="&#xd3;" 
d="M169 635q63 0 91 -43t28 -110v-294q0 -148 -119 -148q-63 0 -91.5 42.5t-28.5 108.5v292q0 64 29.5 108t90.5 44zM169 21q71 0 104 44t33 118v309q0 70 -34.5 116.5t-102.5 46.5t-103 -46.5t-35 -116.5v-309q0 -72 34.5 -117t103.5 -45zM169 -6q-83 0 -124.5 52
t-41.5 137v309q0 82 42.5 135.5t123.5 53.5q82 0 123.5 -53.5t41.5 -135.5v-309q0 -86 -40.5 -137.5t-124.5 -51.5zM169 607q-48 0 -70.5 -35.5t-22.5 -88.5v-292q0 -54 22.5 -89t70.5 -35q91 0 91 121v294q0 125 -91 125zM173 734l48 75h-19l-42 -75h13zM187 707h-74
l73 130h85z" />
    <glyph glyph-name="Ocircumflex" unicode="&#xd4;" 
d="M169 635q63 0 91 -43t28 -110v-294q0 -148 -119 -148q-63 0 -91.5 42.5t-28.5 108.5v292q0 64 29.5 108t90.5 44zM169 21q71 0 104 44t33 118v309q0 70 -34.5 116.5t-102.5 46.5t-103 -46.5t-35 -116.5v-309q0 -72 34.5 -117t103.5 -45zM169 -6q-83 0 -124.5 52
t-41.5 137v309q0 82 42.5 135.5t123.5 53.5q82 0 123.5 -53.5t41.5 -135.5v-309q0 -86 -40.5 -137.5t-124.5 -51.5zM169 607q-48 0 -70.5 -35.5t-22.5 -88.5v-292q0 -54 22.5 -89t70.5 -35q91 0 91 121v294q0 125 -91 125zM121 728l39 65h6l42 -65h13l-43 84h-29l-43 -84h15
zM136 700h-74l70 140h63l74 -140h-74l-31 44z" />
    <glyph glyph-name="Otilde" unicode="&#xd5;" 
d="M169 635q63 0 91 -43t28 -110v-294q0 -148 -119 -148q-63 0 -91.5 42.5t-28.5 108.5v292q0 64 29.5 108t90.5 44zM169 21q71 0 104 44t33 118v309q0 70 -34.5 116.5t-102.5 46.5t-103 -46.5t-35 -116.5v-309q0 -72 34.5 -117t103.5 -45zM169 -6q-83 0 -124.5 52
t-41.5 137v309q0 82 42.5 135.5t123.5 53.5q82 0 123.5 -53.5t41.5 -135.5v-309q0 -86 -40.5 -137.5t-124.5 -51.5zM169 607q-48 0 -70.5 -35.5t-22.5 -88.5v-292q0 -54 22.5 -89t70.5 -35q91 0 91 121v294q0 125 -91 125zM264 766q-27 -9 -30 -9q-21 0 -62 20t-66 20
t-64 -28l15 -15q23 23 51 23q21 0 60.5 -19.5t63.5 -19.5q18 0 48 12zM270 801l56 -63q-73 -28 -94 -28q-33 0 -77 23q-36 17 -47 17q-15 0 -51 -34l-57 57q72 51 106 51q30 0 80 -23h-1q36 -16 49 -16q8 0 22 7z" />
    <glyph glyph-name="Odieresis" unicode="&#xd6;" 
d="M169 635q63 0 91 -43t28 -110v-294q0 -148 -119 -148q-63 0 -91.5 42.5t-28.5 108.5v292q0 64 29.5 108t90.5 44zM169 21q71 0 104 44t33 118v309q0 70 -34.5 116.5t-102.5 46.5t-103 -46.5t-35 -116.5v-309q0 -72 34.5 -117t103.5 -45zM169 -6q-83 0 -124.5 52
t-41.5 137v309q0 82 42.5 135.5t123.5 53.5q82 0 123.5 -53.5t41.5 -135.5v-309q0 -86 -40.5 -137.5t-124.5 -51.5zM169 607q-48 0 -70.5 -35.5t-22.5 -88.5v-292q0 -54 22.5 -89t70.5 -35q91 0 91 121v294q0 125 -91 125zM249 774h-18v-29h18v29zM104 774h-19v-29h19v29z
M131 802v-84h-73v84h73zM277 802v-84h-74v84h74z" />
    <glyph glyph-name="multiply" unicode="&#xd7;" horiz-adv-x="377" 
d="M71 429l94 -94l-94 -93l15 -12l93 92l93 -93l13 13l-93 93l93 94l-13 13l-93 -94l-93 93zM31 431l57 47l91 -91l93 93l52 -51l-94 -94l94 -93l-52 -52l-93 94l-91 -91l-58 46l96 96z" />
    <glyph glyph-name="Oslash" unicode="&#xd8;" 
d="M288 486v-297q0 -63 -30 -103.5t-90 -40.5q-53 0 -89 39l193 481q16 -50 16 -79zM168 629q60 0 93 -42l-195 -484q-18 49 -18 86v297q0 61 30.5 102t89.5 41zM285 647q-10 -28 -16 -41q-48 41 -101 41q-68 0 -102.5 -45.5t-34.5 -115.5v-297q0 -69 25 -109l-19 -52h19
q2 6 7 17t7 17q41 -34 98 -34q70 0 104 44t34 117v297q0 57 -26 100l25 61h-20zM264 674h83l-36 -86q23 -46 23 -102v-297q0 -85 -41 -137t-125 -52q-46 0 -85 21l-7 -21h-77l27 77q-23 47 -23 112v297q0 82 41.5 135t123.5 53q46 0 88 -25zM168 602q-46 0 -69 -33.5
t-23 -82.5v-287l153 382q-22 21 -61 21zM76 199zM168 73q47 0 69.5 32.5t22.5 83.5v272l-149 -370q26 -18 57 -18zM260 461z" />
    <glyph glyph-name="Ugrave" unicode="&#xd9;" horiz-adv-x="387" 
d="M165 22q67 0 103 40.5t36 108.5v476h-18v-471q0 -62 -30.5 -99.5t-90.5 -37.5q-59 0 -89.5 38t-30.5 99v471h-18l1 -476q0 -68 35.5 -108.5t101.5 -40.5zM165 -6q-80 0 -122.5 48t-42.5 129l-1 504h74v-499q0 -49 23.5 -79t68.5 -30q46 0 69.5 30t23.5 79v499h74v-504
q0 -81 -43 -129t-124 -48zM192 733l-47 76h-21l50 -76h18zM241 706h-81l-88 131h88z" />
    <glyph glyph-name="Uacute" unicode="&#xda;" horiz-adv-x="387" 
d="M165 22q67 0 103 40.5t36 108.5v476h-18v-471q0 -62 -30.5 -99.5t-90.5 -37.5q-59 0 -89.5 38t-30.5 99v471h-18l1 -476q0 -68 35.5 -108.5t101.5 -40.5zM165 -6q-80 0 -122.5 48t-42.5 129l-1 504h74v-499q0 -49 23.5 -79t68.5 -30q46 0 69.5 30t23.5 79v499h74v-504
q0 -81 -43 -129t-124 -48zM163 734l48 75h-19l-42 -75h13zM177 707h-74l73 130h85z" />
    <glyph glyph-name="Ucircumflex" unicode="&#xdb;" horiz-adv-x="387" 
d="M165 22q67 0 103 40.5t36 108.5v476h-18v-471q0 -62 -30.5 -99.5t-90.5 -37.5q-59 0 -89.5 38t-30.5 99v471h-18l1 -476q0 -68 35.5 -108.5t101.5 -40.5zM165 -6q-80 0 -122.5 48t-42.5 129l-1 504h74v-499q0 -49 23.5 -79t68.5 -30q46 0 69.5 30t23.5 79v499h74v-504
q0 -81 -43 -129t-124 -48zM120 728l39 65h6l42 -65h13l-43 84h-29l-43 -84h15zM135 700h-74l70 140h63l74 -140h-74l-31 44z" />
    <glyph glyph-name="Udieresis" unicode="&#xdc;" horiz-adv-x="387" 
d="M165 22q67 0 103 40.5t36 108.5v476h-18v-471q0 -62 -30.5 -99.5t-90.5 -37.5q-59 0 -89.5 38t-30.5 99v471h-18l1 -476q0 -68 35.5 -108.5t101.5 -40.5zM165 -6q-80 0 -122.5 48t-42.5 129l-1 504h74v-499q0 -49 23.5 -79t68.5 -30q46 0 69.5 30t23.5 79v499h74v-504
q0 -81 -43 -129t-124 -48zM250 774h-18v-29h18v29zM105 774h-19v-29h19v29zM132 802v-84h-73v84h73zM278 802v-84h-74v84h74z" />
    <glyph glyph-name="Yacute" unicode="&#xdd;" horiz-adv-x="353" 
d="M276 647l-117 -310l-117 310h-19q24 -67 72.5 -194t53.5 -141v-284h19v284l127 335h-19zM257 674h78l-140 -367v-307h-74v307l-138 367h78l98 -258zM153 734l48 75h-19l-42 -75h13zM167 707h-74l73 130h85z" />
    <glyph glyph-name="Thorn" unicode="&#xde;" horiz-adv-x="348" 
d="M155 501q55 0 79 -38t24 -97v-45q0 -59 -24 -97.5t-79 -38.5t-79 38.5t-24 97.5v45q0 59 24 97t79 38zM155 167q60 0 90.5 41t30.5 103v64q0 61 -31 102.5t-90 41.5q-38 0 -66.5 -18.5t-38.5 -46.5v193h-17v-619h17v203q27 -64 105 -64zM155 140q-43 0 -77 23v-163h-73
v674h73v-152q37 24 77 24q73 0 111 -49t38 -122v-64q0 -74 -37.5 -122.5t-111.5 -48.5zM155 473q-76 0 -76 -107v-45q0 -109 76 -109q75 0 75 109v45q0 107 -75 107z" />
    <glyph glyph-name="germandbls" unicode="&#xdf;" horiz-adv-x="346" 
d="M40 27v409q0 179 92 179q59 0 79 -32.5t20 -95.5q0 -145 -100 -149v-17q62 -5 97.5 -42.5t35.5 -99.5q0 -71 -31 -103t-102 -32v-17q78 0 114 37t36 115q0 57 -27.5 97t-81.5 49v12q40 8 58.5 54.5t18.5 95.5q0 145 -114 145q-113 0 -113 -168v-437h18zM67 0h-72v464
q0 195 140 195q141 0 141 -172q0 -40 -12.5 -83t-39.5 -68q84 -45 84 -157q0 -93 -48.5 -136t-154.5 -43v71q70 0 101 25.5t31 82.5q0 50 -35.5 81t-96.5 36v68q100 4 100 123q0 50 -15 75.5t-58 25.5q-65 0 -65 -152v-436z" />
    <glyph glyph-name="agrave" unicode="&#xe0;" horiz-adv-x="435" 
d="M193 601l83 -363h-166zM63 28l43 192h174l43 -192h18l-141 619h-14l-142 -619h19zM85 0h-75l154 674h58l153 -674h-75l-42 193h-128zM193 479l-48 -214h96zM235 733l-47 76h-21l50 -76h18zM284 706h-81l-88 131h88z" />
    <glyph glyph-name="aacute" unicode="&#xe1;" horiz-adv-x="435" 
d="M193 601l83 -363h-166zM63 28l43 192h174l43 -192h18l-141 619h-14l-142 -619h19zM85 0h-75l154 674h58l153 -674h-75l-42 193h-128zM193 479l-48 -214h96zM173 734l48 75h-19l-42 -75h13zM187 707h-74l73 130h85z" />
    <glyph glyph-name="acircumflex" unicode="&#xe2;" horiz-adv-x="435" 
d="M193 601l83 -363h-166zM63 28l43 192h174l43 -192h18l-141 619h-14l-142 -619h19zM85 0h-75l154 674h58l153 -674h-75l-42 193h-128zM193 479l-48 -214h96zM149 728l39 65h6l42 -65h13l-43 84h-29l-43 -84h15zM164 700h-74l70 140h63l74 -140h-74l-31 44z" />
    <glyph glyph-name="atilde" unicode="&#xe3;" horiz-adv-x="435" 
d="M193 601l83 -363h-166zM63 28l43 192h174l43 -192h18l-141 619h-14l-142 -619h19zM85 0h-75l154 674h58l153 -674h-75l-42 193h-128zM193 479l-48 -214h96zM297 773q-27 -9 -30 -9q-21 0 -62 20t-66 20t-64 -28l15 -15q23 23 51 23q21 0 60.5 -19.5t63.5 -19.5
q18 0 48 12zM303 808l56 -63q-73 -28 -94 -28q-33 0 -77 23q-36 17 -47 17q-15 0 -51 -34l-57 57q72 51 106 51q30 0 80 -23h-1q36 -16 49 -16q8 0 22 7z" />
    <glyph glyph-name="adieresis" unicode="&#xe4;" horiz-adv-x="435" 
d="M193 601l83 -363h-166zM63 28l43 192h174l43 -192h18l-141 619h-14l-142 -619h19zM85 0h-75l154 674h58l153 -674h-75l-42 193h-128zM193 479l-48 -214h96zM274 774h-18v-29h18v29zM129 774h-19v-29h19v29zM156 802v-84h-73v84h73zM302 802v-84h-74v84h74z" />
    <glyph glyph-name="aring" unicode="&#xe5;" horiz-adv-x="435" 
d="M193 601l83 -363h-166zM63 28l43 192h174l43 -192h18l-141 619h-14l-142 -619h19zM85 0h-75l154 674h58l153 -674h-75l-42 193h-128zM193 479l-48 -214h96zM148 750q0 20 12.5 32.5t32.5 12.5q19 0 32.5 -13.5t13.5 -32.5t-13.5 -31.5t-32.5 -12.5q-21 0 -33 12.5
t-12 32.5zM129 749q0 -26 19 -44t45 -18t45 18t19 44t-19 45.5t-45 19.5t-45 -19.5t-19 -45.5zM102 749q0 38 26.5 65t64.5 27q37 0 64.5 -27.5t27.5 -64.5t-27.5 -63.5t-64.5 -26.5q-38 0 -64.5 26t-26.5 64zM175 750q0 -17 18 -17t18 16q0 8 -5.5 13.5t-12.5 5.5t-12.5 -5
t-5.5 -13z" />
    <glyph glyph-name="ae" unicode="&#xe6;" horiz-adv-x="569" 
d="M486 629v18h-225l-234 -619h22l119 301h102v-301h216v17h-198v284h123v17h-123v283h198zM513 602h-197v-228h122v-73h-122v-228h197v-73h-271v301h-56l-118 -301h-82l256 674h271v-72zM259 575l11 30v-76v-183h-101zM209 374h33v83z" />
    <glyph glyph-name="ccedilla" unicode="&#xe7;" horiz-adv-x="381" 
d="M181 12v9q70 6 96.5 52.5t26.5 129.5h-18q0 -34 -4.5 -60.5t-16.5 -51.5t-37 -38.5t-61 -13.5q-60 0 -90 41t-30 103v309q0 62 30.5 103t90.5 41q36 0 60.5 -13.5t36.5 -38t16.5 -51t4.5 -61.5h18q0 181 -136 181q-70 0 -104.5 -44.5t-34.5 -116.5v-309q0 -71 35 -116.5
t97 -45.5v-9v-52q37 0 39 -17q2 -18 -34 -38l10 -18q17 8 32.5 24.5t15.5 33.5q0 12 -11.5 21.5t-31.5 10.5v35zM171 -65q0 4 -30 7v54q-70 7 -105 58t-35 129v309q0 85 42 137t125 52q96 0 130 -56.5t34 -180.5h-74q0 30 -1 49.5t-6 43.5t-14 38t-26.5 23.5t-42.5 9.5
q-47 0 -70 -33t-23 -83v-309q0 -51 22.5 -84t69.5 -33q38 0 58.5 23t26.5 56t6 86h74q0 -50 -4 -84.5t-17 -69.5t-40.5 -55t-69.5 -25q44 -13 44 -53q0 -25 -23.5 -47.5t-55.5 -35.5l-26 51l8 3q7 3 15 9t8 11z" />
    <glyph glyph-name="egrave" unicode="&#xe8;" horiz-adv-x="323" 
d="M244 629v18h-215l1 -619h214v17h-197v282h132v17h-132v285h197zM272 602h-198v-230h132v-73h-132v-226h198v-73h-269l-1 674h270v-72zM169 736l-47 76h-21l50 -76h18zM218 709h-81l-88 131h88z" />
    <glyph glyph-name="eacute" unicode="&#xe9;" horiz-adv-x="323" 
d="M244 629v18h-215l1 -619h214v17h-197v282h132v17h-132v285h197zM272 602h-198v-230h132v-73h-132v-226h198v-73h-269l-1 674h270v-72zM127 744l48 75h-19l-42 -75h13zM141 717h-74l73 130h85z" />
    <glyph glyph-name="ecircumflex" unicode="&#xea;" horiz-adv-x="323" 
d="M244 629v18h-215l1 -619h214v17h-197v282h132v17h-132v285h197zM272 602h-198v-230h132v-73h-132v-226h198v-73h-269l-1 674h270v-72zM100 728l39 65h6l42 -65h13l-43 84h-29l-43 -84h15zM115 700h-74l70 140h63l74 -140h-74l-31 44z" />
    <glyph glyph-name="edieresis" unicode="&#xeb;" horiz-adv-x="323" 
d="M244 629v18h-215l1 -619h214v17h-197v282h132v17h-132v285h197zM272 602h-198v-230h132v-73h-132v-226h198v-73h-269l-1 674h270v-72zM221 777h-18v-29h18v29zM76 777h-19v-29h19v29zM103 805v-84h-73v84h73zM249 805v-84h-74v84h74z" />
    <glyph glyph-name="igrave" unicode="&#xec;" horiz-adv-x="144" 
d="M53 28v619h-19v-619h19zM80 0h-73v674h73v-674zM71 740l-47 76h-21l50 -76h18zM120 713h-81l-88 131h88z" />
    <glyph glyph-name="iacute" unicode="&#xed;" horiz-adv-x="144" 
d="M53 28v619h-19v-619h19zM80 0h-73v674h73v-674zM24 742l48 75h-19l-42 -75h13zM38 715h-74l73 130h85z" />
    <glyph glyph-name="icircumflex" unicode="&#xee;" horiz-adv-x="144" 
d="M53 28v619h-19v-619h19zM80 0h-73v674h73v-674zM0 728l39 65h6l42 -65h13l-43 84h-29l-43 -84h15zM15 700h-74l70 140h63l74 -140h-74l-31 44z" />
    <glyph glyph-name="idieresis" unicode="&#xef;" horiz-adv-x="144" 
d="M53 28v619h-19v-619h19zM80 0h-73v674h73v-674zM125 777h-18v-29h18v29zM-20 777h-19v-29h19v29zM7 805v-84h-73v84h73zM153 805v-84h-74v84h74z" />
    <glyph glyph-name="eth" unicode="&#xf0;" horiz-adv-x="375" 
d="M146 0h-144v300h-88v73h88v301h144q87 0 127 -52.5t40 -139.5v-290q0 -88 -40 -140t-127 -52zM75 73h65q100 0 100 124v280q0 125 -100 125h-65v-229h80v-73h-80v-227zM146 28q140 0 140 164v290q0 75 -34 120t-106 45h-116v-302h-89v-17h89v-300h116zM48 45v283h79v17
h-79v284h92q127 0 127 -152v-280q0 -152 -127 -152h-92z" />
    <glyph glyph-name="ntilde" unicode="&#xf1;" horiz-adv-x="385" 
d="M49 590l225 -562h15v619h-17v-562l-226 562h-16v-619h19v562zM76 446v-446h-73v674h61l180 -446v446h73v-674h-61zM254 766q-27 -9 -30 -9q-21 0 -62 20t-66 20t-64 -28l15 -15q23 23 51 23q21 0 60.5 -19.5t63.5 -19.5q18 0 48 12zM260 801l56 -63q-73 -28 -94 -28
q-33 0 -77 23q-36 17 -47 17q-15 0 -51 -34l-57 57q72 51 106 51q30 0 80 -23h-1q36 -16 49 -16q8 0 22 7z" />
    <glyph glyph-name="ograve" unicode="&#xf2;" 
d="M169 635q63 0 91 -43t28 -110v-294q0 -148 -119 -148q-63 0 -91.5 42.5t-28.5 108.5v292q0 64 29.5 108t90.5 44zM169 21q71 0 104 44t33 118v309q0 70 -34.5 116.5t-102.5 46.5t-103 -46.5t-35 -116.5v-309q0 -72 34.5 -117t103.5 -45zM169 -6q-83 0 -124.5 52
t-41.5 137v309q0 82 42.5 135.5t123.5 53.5q82 0 123.5 -53.5t41.5 -135.5v-309q0 -86 -40.5 -137.5t-124.5 -51.5zM169 607q-48 0 -70.5 -35.5t-22.5 -88.5v-292q0 -54 22.5 -89t70.5 -35q91 0 91 121v294q0 125 -91 125zM192 733l-47 76h-21l50 -76h18zM241 706h-81
l-88 131h88z" />
    <glyph glyph-name="oacute" unicode="&#xf3;" 
d="M169 635q63 0 91 -43t28 -110v-294q0 -148 -119 -148q-63 0 -91.5 42.5t-28.5 108.5v292q0 64 29.5 108t90.5 44zM169 21q71 0 104 44t33 118v309q0 70 -34.5 116.5t-102.5 46.5t-103 -46.5t-35 -116.5v-309q0 -72 34.5 -117t103.5 -45zM169 -6q-83 0 -124.5 52
t-41.5 137v309q0 82 42.5 135.5t123.5 53.5q82 0 123.5 -53.5t41.5 -135.5v-309q0 -86 -40.5 -137.5t-124.5 -51.5zM169 607q-48 0 -70.5 -35.5t-22.5 -88.5v-292q0 -54 22.5 -89t70.5 -35q91 0 91 121v294q0 125 -91 125zM173 734l48 75h-19l-42 -75h13zM187 707h-74
l73 130h85z" />
    <glyph glyph-name="ocircumflex" unicode="&#xf4;" 
d="M169 635q63 0 91 -43t28 -110v-294q0 -148 -119 -148q-63 0 -91.5 42.5t-28.5 108.5v292q0 64 29.5 108t90.5 44zM169 21q71 0 104 44t33 118v309q0 70 -34.5 116.5t-102.5 46.5t-103 -46.5t-35 -116.5v-309q0 -72 34.5 -117t103.5 -45zM169 -6q-83 0 -124.5 52
t-41.5 137v309q0 82 42.5 135.5t123.5 53.5q82 0 123.5 -53.5t41.5 -135.5v-309q0 -86 -40.5 -137.5t-124.5 -51.5zM169 607q-48 0 -70.5 -35.5t-22.5 -88.5v-292q0 -54 22.5 -89t70.5 -35q91 0 91 121v294q0 125 -91 125zM121 728l39 65h6l42 -65h13l-43 84h-29l-43 -84h15
zM136 700h-74l70 140h63l74 -140h-74l-31 44z" />
    <glyph glyph-name="otilde" unicode="&#xf5;" 
d="M169 635q63 0 91 -43t28 -110v-294q0 -148 -119 -148q-63 0 -91.5 42.5t-28.5 108.5v292q0 64 29.5 108t90.5 44zM169 21q71 0 104 44t33 118v309q0 70 -34.5 116.5t-102.5 46.5t-103 -46.5t-35 -116.5v-309q0 -72 34.5 -117t103.5 -45zM169 -6q-83 0 -124.5 52
t-41.5 137v309q0 82 42.5 135.5t123.5 53.5q82 0 123.5 -53.5t41.5 -135.5v-309q0 -86 -40.5 -137.5t-124.5 -51.5zM169 607q-48 0 -70.5 -35.5t-22.5 -88.5v-292q0 -54 22.5 -89t70.5 -35q91 0 91 121v294q0 125 -91 125zM264 766q-27 -9 -30 -9q-21 0 -62 20t-66 20
t-64 -28l15 -15q23 23 51 23q21 0 60.5 -19.5t63.5 -19.5q18 0 48 12zM270 801l56 -63q-73 -28 -94 -28q-33 0 -77 23q-36 17 -47 17q-15 0 -51 -34l-57 57q72 51 106 51q30 0 80 -23h-1q36 -16 49 -16q8 0 22 7z" />
    <glyph glyph-name="odieresis" unicode="&#xf6;" 
d="M169 635q63 0 91 -43t28 -110v-294q0 -148 -119 -148q-63 0 -91.5 42.5t-28.5 108.5v292q0 64 29.5 108t90.5 44zM169 21q71 0 104 44t33 118v309q0 70 -34.5 116.5t-102.5 46.5t-103 -46.5t-35 -116.5v-309q0 -72 34.5 -117t103.5 -45zM169 -6q-83 0 -124.5 52
t-41.5 137v309q0 82 42.5 135.5t123.5 53.5q82 0 123.5 -53.5t41.5 -135.5v-309q0 -86 -40.5 -137.5t-124.5 -51.5zM169 607q-48 0 -70.5 -35.5t-22.5 -88.5v-292q0 -54 22.5 -89t70.5 -35q91 0 91 121v294q0 125 -91 125zM249 774h-18v-29h18v29zM104 774h-19v-29h19v29z
M131 802v-84h-73v84h73zM277 802v-84h-74v84h74z" />
    <glyph glyph-name="oslash" unicode="&#xf8;" 
d="M288 486v-297q0 -63 -30 -103.5t-90 -40.5q-53 0 -89 39l193 481q16 -50 16 -79zM168 629q60 0 93 -42l-195 -484q-18 49 -18 86v297q0 61 30.5 102t89.5 41zM285 647q-10 -28 -16 -41q-48 41 -101 41q-68 0 -102.5 -45.5t-34.5 -115.5v-297q0 -69 25 -109l-19 -52h19
q2 6 7 17t7 17q41 -34 98 -34q70 0 104 44t34 117v297q0 57 -26 100l25 61h-20zM264 674h83l-36 -86q23 -46 23 -102v-297q0 -85 -41 -137t-125 -52q-46 0 -85 21l-7 -21h-77l27 77q-23 47 -23 112v297q0 82 41.5 135t123.5 53q46 0 88 -25zM168 602q-46 0 -69 -33.5
t-23 -82.5v-287l153 382q-22 21 -61 21zM76 199zM168 73q47 0 69.5 32.5t22.5 83.5v272l-149 -370q26 -18 57 -18zM260 461z" />
    <glyph glyph-name="ugrave" unicode="&#xf9;" horiz-adv-x="387" 
d="M165 22q67 0 103 40.5t36 108.5v476h-18v-471q0 -62 -30.5 -99.5t-90.5 -37.5q-59 0 -89.5 38t-30.5 99v471h-18l1 -476q0 -68 35.5 -108.5t101.5 -40.5zM165 -6q-80 0 -122.5 48t-42.5 129l-1 504h74v-499q0 -49 23.5 -79t68.5 -30q46 0 69.5 30t23.5 79v499h74v-504
q0 -81 -43 -129t-124 -48zM192 733l-47 76h-21l50 -76h18zM241 706h-81l-88 131h88z" />
    <glyph glyph-name="uacute" unicode="&#xfa;" horiz-adv-x="387" 
d="M165 22q67 0 103 40.5t36 108.5v476h-18v-471q0 -62 -30.5 -99.5t-90.5 -37.5q-59 0 -89.5 38t-30.5 99v471h-18l1 -476q0 -68 35.5 -108.5t101.5 -40.5zM165 -6q-80 0 -122.5 48t-42.5 129l-1 504h74v-499q0 -49 23.5 -79t68.5 -30q46 0 69.5 30t23.5 79v499h74v-504
q0 -81 -43 -129t-124 -48zM163 734l48 75h-19l-42 -75h13zM177 707h-74l73 130h85z" />
    <glyph glyph-name="ucircumflex" unicode="&#xfb;" horiz-adv-x="387" 
d="M165 22q67 0 103 40.5t36 108.5v476h-18v-471q0 -62 -30.5 -99.5t-90.5 -37.5q-59 0 -89.5 38t-30.5 99v471h-18l1 -476q0 -68 35.5 -108.5t101.5 -40.5zM165 -6q-80 0 -122.5 48t-42.5 129l-1 504h74v-499q0 -49 23.5 -79t68.5 -30q46 0 69.5 30t23.5 79v499h74v-504
q0 -81 -43 -129t-124 -48zM120 728l39 65h6l42 -65h13l-43 84h-29l-43 -84h15zM135 700h-74l70 140h63l74 -140h-74l-31 44z" />
    <glyph glyph-name="udieresis" unicode="&#xfc;" horiz-adv-x="387" 
d="M165 22q67 0 103 40.5t36 108.5v476h-18v-471q0 -62 -30.5 -99.5t-90.5 -37.5q-59 0 -89.5 38t-30.5 99v471h-18l1 -476q0 -68 35.5 -108.5t101.5 -40.5zM165 -6q-80 0 -122.5 48t-42.5 129l-1 504h74v-499q0 -49 23.5 -79t68.5 -30q46 0 69.5 30t23.5 79v499h74v-504
q0 -81 -43 -129t-124 -48zM250 774h-18v-29h18v29zM105 774h-19v-29h19v29zM132 802v-84h-73v84h73zM278 802v-84h-74v84h74z" />
    <glyph glyph-name="yacute" unicode="&#xfd;" horiz-adv-x="353" 
d="M276 647l-117 -310l-117 310h-19q24 -67 72.5 -194t53.5 -141v-284h19v284l127 335h-19zM257 674h78l-140 -367v-307h-74v307l-138 367h78l98 -258zM153 734l48 75h-19l-42 -75h13zM167 707h-74l73 130h85z" />
    <glyph glyph-name="thorn" unicode="&#xfe;" horiz-adv-x="348" 
d="M155 501q55 0 79 -38t24 -97v-45q0 -59 -24 -97.5t-79 -38.5t-79 38.5t-24 97.5v45q0 59 24 97t79 38zM155 167q60 0 90.5 41t30.5 103v64q0 61 -31 102.5t-90 41.5q-38 0 -66.5 -18.5t-38.5 -46.5v193h-17v-619h17v203q27 -64 105 -64zM155 140q-43 0 -77 23v-163h-73
v674h73v-152q37 24 77 24q73 0 111 -49t38 -122v-64q0 -74 -37.5 -122.5t-111.5 -48.5zM155 473q-76 0 -76 -107v-45q0 -109 76 -109q75 0 75 109v45q0 107 -75 107z" />
    <glyph glyph-name="ydieresis" unicode="&#xff;" horiz-adv-x="353" 
d="M276 647l-117 -310l-117 310h-19q24 -67 72.5 -194t53.5 -141v-284h19v284l127 335h-19zM257 674h78l-140 -367v-307h-74v307l-138 367h78l98 -258zM243 777h-18v-29h18v29zM98 777h-19v-29h19v29zM125 805v-84h-73v84h73zM271 805v-84h-74v84h74z" />
    <glyph glyph-name="dotlessi" unicode="&#x131;" horiz-adv-x="129" 
d="M56 27v605h-17v-605h17zM83 0h-71v659h71v-659z" />
    <glyph glyph-name="Lslash" unicode="&#x141;" horiz-adv-x="303" 
d="M-75 344v-18h69h27v-298h211v17h-192v281h96v18h-96v303h-19v-303h-96zM-6 0v298h-97v74h97v302h73v-302h97v-74h-97v-225h193v-73h-266z" />
    <glyph glyph-name="lslash" unicode="&#x142;" horiz-adv-x="303" 
d="M-75 344v-18h69h27v-298h211v17h-192v281h96v18h-96v303h-19v-303h-96zM-6 0v298h-97v74h97v302h73v-302h97v-74h-97v-225h193v-73h-266z" />
    <glyph glyph-name="OE" unicode="&#x152;" horiz-adv-x="592" 
d="M172 636q62 0 91.5 -40.5t29.5 -105.5v-293q0 -65 -30 -108.5t-91 -43.5q-62 0 -92 41t-30 105v299q0 63 30.5 104.5t91.5 41.5zM511 636v17h-217v-69q-26 69 -122 69q-69 0 -104.5 -46t-35.5 -117v-299q0 -74 34.5 -118.5t105.5 -44.5q91 0 122 80v-80h217v17h-200v287
h124v18h-124v286h200zM538 608h-199v-231h124v-73h-124v-231h199v-73h-272v28q-38 -28 -94 -28q-85 0 -126 52.5t-41 138.5v299q0 83 42 137t125 54q53 0 94 -23v23h272v-73zM172 608q-47 0 -70.5 -33.5t-23.5 -84.5v-299q0 -51 23.5 -84.5t70.5 -33.5t70 35.5t23 88.5v293
q0 53 -22.5 85.5t-70.5 32.5z" />
    <glyph glyph-name="oe" unicode="&#x153;" horiz-adv-x="619" 
d="M172 636q62 0 91.5 -40.5t29.5 -105.5v-293q0 -65 -30 -108.5t-91 -43.5q-62 0 -92 41t-30 105v299q0 63 30.5 104.5t91.5 41.5zM511 636v17h-217v-69q-26 69 -122 69q-69 0 -104.5 -46t-35.5 -117v-299q0 -74 34.5 -118.5t105.5 -44.5q91 0 122 80v-80h217v17h-200v287
h124v18h-124v286h200zM538 608h-199v-231h124v-73h-124v-231h199v-73h-272v28q-38 -28 -94 -28q-85 0 -126 52.5t-41 138.5v299q0 83 42 137t125 54q53 0 94 -23v23h272v-73zM172 608q-47 0 -70.5 -33.5t-23.5 -84.5v-299q0 -51 23.5 -84.5t70.5 -33.5t70 35.5t23 88.5v293
q0 53 -22.5 85.5t-70.5 32.5z" />
    <glyph glyph-name="Scaron" unicode="&#x160;" horiz-adv-x="363" 
d="M160 22q133 0 133 140q0 40 -24.5 78.5t-60 69t-70.5 61t-59.5 67t-24.5 73.5q0 54 29 89.5t82 35.5q34 0 56.5 -13.5t32 -39.5t12.5 -47.5t3 -54.5h17q0 86 -25.5 129.5t-95.5 43.5q-59 0 -93.5 -39.5t-34.5 -98.5q0 -99 133 -196h-1q106 -88 106 -159q0 -58 -29 -90
t-86 -32q-111 0 -111 163h-19q0 -89 29 -134.5t101 -45.5zM160 -6q-90 0 -123.5 56.5t-33.5 179.5h73q0 -81 16.5 -122t67.5 -41q43 0 65 25t22 69q0 59 -95 138l1 -1q-144 103 -144 218q0 71 42.5 118t113.5 47q39 0 67 -12t44 -31t24.5 -50.5t11 -61t2.5 -72.5h-73
q0 35 -2 58t-9 47.5t-23.5 36.5t-41.5 12q-40 0 -61.5 -27.5t-21.5 -69.5q0 -26 18.5 -54.5t35 -44.5t54.5 -50v1q42 -38 64.5 -61t44 -62t21.5 -78q0 -81 -40 -124.5t-120 -43.5zM105 819l44 -84h28l43 84h-14l-39 -65h-7l-40 65h-15zM61 847h75l27 -45l29 45h77l-74 -140
h-62z" />
    <glyph glyph-name="scaron" unicode="&#x161;" horiz-adv-x="363" 
d="M160 22q133 0 133 140q0 40 -24.5 78.5t-60 69t-70.5 61t-59.5 67t-24.5 73.5q0 54 29 89.5t82 35.5q34 0 56.5 -13.5t32 -39.5t12.5 -47.5t3 -54.5h17q0 86 -25.5 129.5t-95.5 43.5q-59 0 -93.5 -39.5t-34.5 -98.5q0 -99 133 -196h-1q106 -88 106 -159q0 -58 -29 -90
t-86 -32q-111 0 -111 163h-19q0 -89 29 -134.5t101 -45.5zM160 -6q-90 0 -123.5 56.5t-33.5 179.5h73q0 -81 16.5 -122t67.5 -41q43 0 65 25t22 69q0 59 -95 138l1 -1q-144 103 -144 218q0 71 42.5 118t113.5 47q39 0 67 -12t44 -31t24.5 -50.5t11 -61t2.5 -72.5h-73
q0 35 -2 58t-9 47.5t-23.5 36.5t-41.5 12q-40 0 -61.5 -27.5t-21.5 -69.5q0 -26 18.5 -54.5t35 -44.5t54.5 -50v1q42 -38 64.5 -61t44 -62t21.5 -78q0 -81 -40 -124.5t-120 -43.5zM108 818l44 -84h28l43 84h-14l-39 -65h-7l-40 65h-15zM64 846h75l27 -45l29 45h77l-74 -140
h-62z" />
    <glyph glyph-name="Ydieresis" unicode="&#x178;" horiz-adv-x="353" 
d="M276 647l-117 -310l-117 310h-19q24 -67 72.5 -194t53.5 -141v-284h19v284l127 335h-19zM257 674h78l-140 -367v-307h-74v307l-138 367h78l98 -258zM244 760h-18v-29h18v29zM99 760h-19v-29h19v29zM126 788v-84h-73v84h73zM272 788v-84h-74v84h74z" />
    <glyph glyph-name="Zcaron" unicode="&#x17d;" horiz-adv-x="355" 
d="M101 797l42 -84h29l42 84h-12l-40 -65h-8l-39 65h-14zM45 48l234 576v23h-239v-19h220v-1l-235 -576v-23h257v18h-237v2zM306 618l-221 -545h225v-73h-312v57l222 544h-208v73h294v-56zM56 824h75l27 -45l31 45h73l-75 -138h-62z" />
    <glyph glyph-name="zcaron" unicode="&#x17e;" horiz-adv-x="355" 
d="M101 797l42 -84h29l42 84h-12l-40 -65h-8l-39 65h-14zM45 48l234 576v23h-239v-19h220v-1l-235 -576v-23h257v18h-237v2zM306 618l-221 -545h225v-73h-312v57l222 544h-208v73h294v-56zM56 824h75l27 -45l31 45h73l-75 -138h-62z" />
    <glyph glyph-name="circumflex" unicode="&#x2c6;" horiz-adv-x="186" 
d="M46 563l39 65h6l42 -65h13l-43 84h-29l-43 -84h15zM61 535h-74l70 140h63l74 -140h-74l-31 44z" />
    <glyph glyph-name="caron" unicode="&#x2c7;" horiz-adv-x="188" 
d="M41 697l44 -84h28l43 84h-14l-39 -65h-7l-40 65h-15zM-3 725h75l27 -45l29 45h77l-74 -140h-62z" />
    <glyph glyph-name="breve" unicode="&#x2d8;" horiz-adv-x="833" 
 />
    <glyph glyph-name="dotaccent" unicode="&#x2d9;" horiz-adv-x="833" 
 />
    <glyph glyph-name="ring" unicode="&#x2da;" horiz-adv-x="190" 
d="M41 570q0 20 12.5 32.5t32.5 12.5q19 0 32.5 -13.5t13.5 -32.5t-13.5 -31.5t-32.5 -12.5q-21 0 -33 12.5t-12 32.5zM22 569q0 -26 19 -44t45 -18t45 18t19 44t-19 45.5t-45 19.5t-45 -19.5t-19 -45.5zM-5 569q0 38 26.5 65t64.5 27q37 0 64.5 -27.5t27.5 -64.5
t-27.5 -63.5t-64.5 -26.5q-38 0 -64.5 26t-26.5 64zM68 570q0 -17 18 -17t18 16q0 8 -5.5 13.5t-12.5 5.5q-8 0 -13 -5t-5 -13z" />
    <glyph glyph-name="ogonek" unicode="&#x2db;" horiz-adv-x="833" 
 />
    <glyph glyph-name="tilde" unicode="&#x2dc;" horiz-adv-x="317" 
d="M249 647q-27 -9 -30 -9q-21 0 -62 20t-66 20t-64 -28l15 -15q23 23 51 23q21 0 60.5 -19.5t63.5 -19.5q18 0 48 12zM255 682l56 -63q-73 -28 -94 -28q-33 0 -77 23q-36 17 -47 17q-15 0 -51 -34l-57 57q72 51 106 51q30 0 80 -23h-1q36 -16 49 -16q8 0 22 7z" />
    <glyph glyph-name="hungarumlaut" unicode="&#x2dd;" horiz-adv-x="833" 
 />
    <glyph glyph-name="endash" unicode="&#x2013;" horiz-adv-x="319" 
d="M249 326v18h-216v-18h216zM276 298h-271v74h271v-74z" />
    <glyph glyph-name="emdash" unicode="&#x2014;" horiz-adv-x="319" 
d="M249 326v18h-216v-18h216zM276 298h-271v74h271v-74z" />
    <glyph glyph-name="quoteleft" unicode="&#x2018;" horiz-adv-x="101" 
d="M26 647v-71h18v71h-18zM-1 674h73v-126h-73v126z" />
    <glyph glyph-name="quoteright" unicode="&#x2019;" horiz-adv-x="101" 
d="M26 647v-71h18v71h-18zM-1 674h73v-126h-73v126z" />
    <glyph glyph-name="quotesinglbase" unicode="&#x201a;" horiz-adv-x="99" 
d="M13 -11l30 68h-22l-24 -68h16zM32 -39h-75l45 123h82z" />
    <glyph glyph-name="quotedblleft" unicode="&#x201c;" horiz-adv-x="212" 
d="M26 647v-71h18v71h-18zM-1 674h73v-126h-73v126zM126 647v-71h18v71h-18zM99 674h73v-126h-73v126z" />
    <glyph glyph-name="quotedblright" unicode="&#x201d;" horiz-adv-x="191" 
d="M36 647v-71h18v71h-18zM9 674h73v-126h-73v126zM136 647v-71h18v71h-18zM109 674h73v-126h-73v126z" />
    <glyph glyph-name="quotedblbase" unicode="&#x201e;" horiz-adv-x="248" 
d="M147 -11l29 68h-21l-24 -68h16zM15 -11l29 68h-21l-25 -68h17zM33 -39h-74l45 123h81zM165 -39h-71l42 123h82z" />
    <glyph glyph-name="bullet" unicode="&#x2022;" horiz-adv-x="180" 
d="M61 332q0 -15 15 -15q14 0 14 15q0 6 -4 10.5t-10 4.5t-10.5 -4.5t-4.5 -10.5zM33 332q0 17 13 30t30 13q18 0 29.5 -13.5t11.5 -29.5q0 -17 -11.5 -30t-29.5 -13q-17 0 -30 12.5t-13 30.5z" />
    <glyph glyph-name="ellipsis" unicode="&#x2026;" horiz-adv-x="335" 
d="M260 28v29h-18v-29h18zM155 28v29h-20v-29h20zM48 28v29h-18v-29h18zM76 0h-73v84h73v-84zM182 0h-74v84h74v-84zM288 0h-74v84h74v-84z" />
    <glyph glyph-name="guilsinglleft" unicode="&#x2039;" horiz-adv-x="395" 
d="M288 647l-244 -310l244 -309h22l-245 309l245 310h-22zM274 674h93l-266 -337l266 -337h-92l-267 337z" />
    <glyph glyph-name="guilsinglright" unicode="&#x203a;" horiz-adv-x="395" 
d="M48 647l244 -310l-244 -309h20l244 309l-244 310h-20zM-10 674h92l266 -337l-266 -337h-92l266 337z" />
    <glyph glyph-name="fraction" unicode="&#x2044;" horiz-adv-x="353" 
d="M291 647l-247 -619h19l248 619h-20zM272 674h79l-270 -674h-78z" />
    <glyph glyph-name="Euro" unicode="&#x20ac;" horiz-adv-x="386" 
d="M216 242h-151v151h151v18h-151v75q0 62 30.5 102.5t90.5 40.5q49 0 87 -33l13 13q-34 38 -100 38q-29 0 -51.5 -7.5t-37 -17.5t-24.5 -30.5t-15 -35.5t-7.5 -43t-3 -43.5t-0.5 -46.5v-12h-56v-18h56v-151h-56v-18h56q0 -44 4.5 -74.5t18.5 -60.5t43 -45.5t73 -15.5
q30 0 60.5 13.5t48.5 36.5q-7 0 -19 6q-27 -38 -90 -38q-39 0 -64.5 15t-37 43t-15.5 55t-4 65h151v18zM244 270v-73h-152q3 -57 23 -90.5t71 -33.5q50 0 82 45q19 -9 44.5 -20t24.5 -10q-67 -88 -151 -88q-49 0 -82.5 15t-51 44.5t-24.5 61.5t-9 76h-56v73h56v96h-56v72h56
q0 43 2 69.5t11 62t25.5 55.5t49.5 34.5t79 14.5q33 0 71.5 -17t66.5 -49l-50 -50q-47 44 -88 44q-46 0 -70 -33t-24 -83v-48h152v-72h-152v-96h152z" />
    <glyph glyph-name="minus" unicode="&#x2212;" horiz-adv-x="319" 
d="M249 328v17h-216v-17h216zM276 300h-271v73h271v-73z" />
    <glyph glyph-name="fi" unicode="&#xfb01;" horiz-adv-x="329" 
d="M247 27v605h-219v-605h17v294h119v17h-119v277h184v-588h18zM273 0h-71v588h-130v-223h119v-70h-119v-295h-71v659h272v-659z" />
    <glyph glyph-name="fl" unicode="&#xfb02;" horiz-adv-x="529" 
d="M247 27v605h-219v-605h17v294h119v17h-119v277h184v-588h18zM273 0h-71v588h-130v-223h119v-70h-119v-295h-71v659h272v-659z" />
    </font>
</defs>
</svg>
