<?xml version="1.0" standalone="no"?>
<!DOCTYPE svg PUBLIC "-//W3C//DTD SVG 1.1//EN" "http://www.w3.org/Graphics/SVG/1.1/DTD/svg11.dtd" >
<svg xmlns="http://www.w3.org/2000/svg" xmlns:xlink="http://www.w3.org/1999/xlink" version="1.1">
<metadata>
Created by FontForge 20230101 at Wed Oct 28 13:53:46 2020
 By Glenn Lewis
Copyright 2020 The Josefin Slab Project Authors (https://github.com/googlefonts/josefinslab/), with Reserved Font Name Josefin.
</metadata>
<defs>
<font id="JosefinSlab-SemiBoldItalic" horiz-adv-x="543" >
  <font-face 
    font-family="Josefin Slab SemiBold"
    font-weight="600"
    font-style="italic"
    font-stretch="normal"
    units-per-em="1000"
    panose-1="2 0 0 0 0 0 0 0 0 0"
    ascent="750"
    descent="-250"
    x-height="375"
    cap-height="700"
    bbox="-54 -250 1257 932"
    underline-thickness="50"
    underline-position="-100"
    slope="-12"
    unicode-range="U+000D-2215"
  />
<missing-glyph horiz-adv-x="300" 
 />
    <glyph glyph-name=".notdef" horiz-adv-x="300" 
 />
    <glyph glyph-name="space" unicode=" " horiz-adv-x="300" 
 />
    <glyph glyph-name="A" unicode="A" horiz-adv-x="800" 
d="M43 60l-8 -60h208l8 60h-65l129 228h249q17 -57 33 -114l32 -114h-64l-8 -60h208l8 60h-80q-48 170 -95.5 336t-95.5 336q-95 -170 -189.5 -336t-189.5 -336h-80zM349 348q27 48 59 105t55 101q4 7 6.5 11t12.5 27l5 -31l61 -213h-199z" />
    <glyph glyph-name="B" unicode="B" horiz-adv-x="534" 
d="M43 60l-8 -60h243q42 0 83.5 11.5t76.5 34.5q33 22 56.5 55.5t29.5 78.5q5 36 -3 65t-24 51q-18 22 -42.5 36t-52.5 20q64 17 100.5 64t44.5 109q7 46 -4 79.5t-36 54.5t-63.5 31t-85.5 10h-225l-8 -60h52l-81 -580h-53zM195 322h106q34 0 65.5 -8t54.5 -23
q23 -17 34.5 -42.5t7.5 -60.5q-5 -32 -21.5 -56t-40.5 -39q-25 -17 -56 -25t-65 -8h-121zM240 640h117q34 0 60.5 -7.5t42.5 -24.5q15 -15 21 -37.5t2 -53.5q-5 -28 -16.5 -52t-29.5 -41q-22 -20 -50.5 -31t-63.5 -11h-119z" />
    <glyph glyph-name="C" unicode="C" horiz-adv-x="610" 
d="M592 546h60l16 112q-37 24 -81 37t-95 13q-74 0 -143 -28.5t-124 -76.5q-55 -49 -92.5 -114.5t-47.5 -139.5q-11 -74 8 -139t61 -113q42 -49 103 -77t135 -28q51 0 98 13.5t91 36.5l-28 50q-36 -19 -75 -29.5t-79 -10.5q-60 0 -110 23.5t-84 63.5q-35 40 -50.5 94.5
t-6.5 115.5t39.5 115.5t76.5 95.5q45 40 102 64t118 24q32 0 62 -7t57 -22z" />
    <glyph glyph-name="D" unicode="D" horiz-adv-x="632" 
d="M43 61l-8 -61h176q106 0 184 32.5t131 83.5q53 50 82 112t38 121q11 81 -8 145.5t-60 110.5q-42 46 -102.5 70.5t-132.5 24.5h-210l-8 -60h54l-81 -579h-55zM242 640h87q62 0 112.5 -20.5t85.5 -57.5q35 -38 50.5 -92t5.5 -120q-8 -61 -36.5 -113t-73.5 -91
q-45 -40 -104.5 -62.5t-129.5 -22.5h-78z" />
    <glyph glyph-name="E" unicode="E" horiz-adv-x="571" 
d="M43 60l-8 -60h501l21 154h-60l-13 -94h-314l36 263h321l10 60h-322l36 257h300l-13 -94h60l22 154h-487l-8 -60h63l-81 -580h-64z" />
    <glyph glyph-name="F" unicode="F" horiz-adv-x="557" 
d="M43 60l-8 -60h222l8 60h-95l36 263h321l10 60h-322l36 257h300l-13 -94h60l22 154h-487l-8 -60h63l-81 -580h-64z" />
    <glyph glyph-name="G" unicode="G" horiz-adv-x="609" 
d="M565 298h-186l-8 -60h123l-23 -162q-30 -13 -60.5 -19.5t-62.5 -6.5q-61 0 -111 23.5t-84 64.5q-35 39 -50.5 93.5t-6.5 115.5t40 115.5t77 95.5q45 41 102 64.5t118 23.5q41 0 76 -11t65 -30l43 51q-38 24 -81.5 37t-94.5 13q-74 0 -143 -28.5t-124 -76.5
q-56 -49 -93.5 -114.5t-47.5 -139.5t9 -139t61 -113q42 -49 103 -77t135 -28q51 0 98 13.5t90 36.5z" />
    <glyph glyph-name="H" unicode="H" horiz-adv-x="756" 
d="M596 700l-8 -60h81l-36 -257h-403l36 257h81l8 60h-222l-8 -60h78l-81 -580h-79l-8 -60h222l8 60h-80l36 263h403l-37 -263h-80l-9 -60h223l8 60h-79l82 580h78l9 60h-223z" />
    <glyph glyph-name="I" unicode="I" horiz-adv-x="292" 
d="M43 60l-8 -60h222l8 60h-80l81 580h81l8 60h-222l-8 -60h78l-81 -580h-79z" />
    <glyph glyph-name="J" unicode="J" horiz-adv-x="295" 
d="M93 700l-8 -60h161l-77 -547q-6 -41 -22.5 -73t-40.5 -54q-25 -23 -56.5 -35t-66.5 -14l-7 -60q47 1 90 17t77 45t57.5 72t31.5 99l86 610h-225z" />
    <glyph glyph-name="K" unicode="K" horiz-adv-x="686" 
d="M451 60l-8 -60h208l8 60h-77q-58 90 -116 179t-117 179l264 222h85l8 60h-208l-9 -60h45l-288 -242l-21 -22q2 8 3.5 15.5t2.5 15.5l34 233h68l8 60h-208l-8 -60h77l-82 -580h-77l-8 -60h222l8 60h-82q9 62 17 123.5t17 123.5l85 71q51 -80 102 -159t103 -159h-56z" />
    <glyph glyph-name="L" unicode="L" horiz-adv-x="570" 
d="M43 60l-8 -60h500l21 154h-61l-13 -94h-314l82 580h83l8 60h-208l-8 -60h62l-82 -580h-62z" />
    <glyph glyph-name="M" unicode="M" horiz-adv-x="972" 
d="M35 0h222l8 60h-75l64 450q1 10 2 24t1 22q6 -10 11 -19t13 -22l225 -360l329 362q8 9 17 19.5t16 19.5q-2 -9 -4.5 -24t-3.5 -25l-64 -447h-74l-8 -60h223l8 60h-86l82 580h84l8 60h-108l-404 -444l-279 444h-109l-8 -60h84l-82 -580h-84z" />
    <glyph glyph-name="N" unicode="N" horiz-adv-x="851" 
d="M730 -32l94 672h85l9 60h-223l-8 -60h74l-70 -500l-2 -32l-15 26l-425 566h-112l-8 -60h84l-82 -580h-84l-8 -60h222l9 60h-76l69 492l2 30l15 -24z" />
    <glyph glyph-name="O" unicode="O" horiz-adv-x="786" 
d="M85 349q-11 -74 8 -139t61 -113q42 -49 103 -77t135 -28t143 28t125 77q55 48 92.5 113t48.5 139q10 74 -9.5 139t-61.5 114t-103 77.5t-135 28.5t-143 -28.5t-124 -77.5q-56 -49 -93 -114t-47 -139zM148 349q9 61 39.5 115.5t76.5 94.5q46 41 102.5 64.5t117.5 23.5
t111.5 -23.5t85.5 -64.5q34 -40 50 -94t7 -116t-40 -116t-76 -94q-46 -40 -103.5 -63.5t-118.5 -23.5t-111 23.5t-84 64.5q-34 40 -50 93.5t-7 115.5z" />
    <glyph glyph-name="P" unicode="P" horiz-adv-x="507" 
d="M43 60l-8 -60h222l8 60h-106l36 260h110q102 0 163.5 52.5t74.5 140.5q7 51 -11 86t-49 58q-31 22 -69 32.5t-71 10.5h-210l-8 -60h52l-81 -580h-53zM204 381l36 259h96q34 0 62.5 -10.5t48.5 -27.5q18 -18 27 -40.5t6 -48.5q-3 -21 -13.5 -44.5t-31.5 -42.5
q-22 -19 -55 -32t-81 -13h-95z" />
    <glyph glyph-name="Q" unicode="Q" horiz-adv-x="808" 
d="M148 349q9 61 39.5 115.5t76.5 95.5q45 41 102 64.5t118 23.5t111.5 -23.5t84.5 -64.5q35 -41 51 -95.5t7 -115.5t-40 -115.5t-77 -93.5q-46 -41 -103.5 -64.5t-118.5 -23.5t-110.5 23.5t-83.5 64.5q-35 39 -50.5 93.5t-6.5 115.5zM85 349q-11 -74 8 -139t61 -114
q42 -48 103 -76t135 -28q18 0 36.5 2t38.5 6h307l8 60h-178q34 20 64 46.5t54 57.5q31 40 51.5 87t27.5 98q10 74 -9 139.5t-61 113.5q-42 49 -103.5 77.5t-135.5 28.5t-143 -28.5t-124 -77.5q-55 -48 -92.5 -113.5t-47.5 -139.5z" />
    <glyph glyph-name="R" unicode="R" horiz-adv-x="574" 
d="M43 60l-8 -60h222l8 60h-106l36 260h62q14 0 22.5 0.5t21.5 0.5l108 -321h130l8 60h-91l-88 266q75 16 119.5 65t55.5 122q7 51 -11 86t-49 58q-31 22 -69 32.5t-71 10.5h-210l-8 -60h52l-81 -580h-53zM204 381l36 259h96q34 0 62.5 -10.5t48.5 -27.5q18 -18 27 -40.5
t6 -48.5q-3 -21 -13.5 -44.5t-31.5 -42.5q-22 -19 -55 -32t-81 -13h-95z" />
    <glyph glyph-name="S" unicode="S" horiz-adv-x="478" 
d="M41 85q10 -17 29 -33.5t46 -29.5q26 -13 59.5 -21.5t71.5 -8.5q43 0 83 13.5t72 38.5q32 26 54 62t27 81q7 50 -3 84t-31 56q-21 23 -49 37t-58 24q-31 10 -60 19.5t-51 23.5q-21 13 -33 33.5t-7 54.5q3 26 14.5 49t30.5 41q18 16 43 25.5t55 9.5q35 0 62 -7.5t45 -17.5
l-11 -73h60l15 103q-19 18 -40.5 29t-42.5 17q-21 5 -41.5 7t-37.5 2q-53 0 -92 -17t-65 -44q-27 -27 -41 -60t-18 -66q-5 -45 6.5 -74t32.5 -48q21 -18 50 -29.5t59 -20.5q30 -10 59 -20t50 -27q21 -18 31.5 -44.5t4.5 -67.5q-4 -32 -20.5 -57t-39.5 -42q-24 -17 -52.5 -26
t-58.5 -9q-50 0 -85.5 16t-59.5 39l13 89h-60z" />
    <glyph glyph-name="T" unicode="T" horiz-adv-x="623" 
d="M205 60l-8 -60h222l8 60h-75l81 580h184l-13 -94h60l22 154h-553l-22 -154h60l14 94h185l-81 -580h-84z" />
    <glyph glyph-name="U" unicode="U" horiz-adv-x="713" 
d="M134 700l-8 -60h77l-59 -414q-8 -57 4.5 -101t41.5 -73q29 -30 71.5 -45t94.5 -15t99 15t84 45q37 29 61.5 73t32.5 101l59 414h77l8 60h-222l-9 -60h83l-58 -411q-7 -43 -24.5 -76t-44.5 -55q-28 -23 -63 -34.5t-75 -11.5q-39 0 -70.5 11.5t-53.5 33.5q-21 22 -30 55.5
t-2 76.5l58 411h82l8 60h-222z" />
    <glyph glyph-name="V" unicode="V" horiz-adv-x="820" 
d="M137 700l-8 -60h85q48 -170 96 -336.5t96 -335.5q94 169 188.5 335.5t189.5 336.5h94l9 60h-222l-9 -60h64q-70 -127 -140.5 -251.5t-141.5 -249.5l-13 -31l-5 31q-36 125 -71 250t-71 251h73l8 60h-222z" />
    <glyph glyph-name="W" unicode="W" horiz-adv-x="1190" 
d="M137 700l-8 -60h85q48 -170 96 -336.5t96 -335.5q60 109 129.5 226.5t118.5 221.5l5 -31l119 -417q95 169 189.5 335.5t189.5 336.5h92l8 60h-222l-9 -60h67q-71 -127 -160 -283.5t-122 -217.5l-14 -31l-4 31q-37 125 -71.5 250t-71.5 251h71l9 60h-223l-8 -60h88
q11 -40 22.5 -79t22.5 -78q-51 -93 -108 -191t-99 -184l-5 31q-37 125 -71.5 250t-70.5 251h73l8 60h-222z" />
    <glyph glyph-name="X" unicode="X" horiz-adv-x="699" 
d="M133 700l-8 -60h89l143 -282l-235 -298h-79l-8 -60h222l8 60h-65q43 56 86 110.5t87 109.5l15 24l8 -20t9 -20l104 -204h-60l-8 -60h223l8 60h-84q-38 74 -75.5 146t-74.5 146q57 72 112.5 143.5t112.5 144.5h90l9 60h-223l-8 -60h56l-165 -211l-15 -23l-9 23
q-26 53 -53 105t-54 106h56l8 60h-222z" />
    <glyph glyph-name="Y" unicode="Y" horiz-adv-x="768" 
d="M284 60l-8 -60h222l8 60h-75l29 207l136 186t137 187h90l8 60h-222l-8 -60h54l-210 -286l-15 -29h-1l-8 29q-32 72 -64.5 143t-65.5 143h56l8 60h-222l-8 -60h89l84 -186t85 -186l-29 -208h-70z" />
    <glyph glyph-name="Z" unicode="Z" horiz-adv-x="629" 
d="M625 222h-60l-23 -161h-421l534 579l8 60h-450l5 35h-64l-13 -95h435l-533 -579l-8 -61h559z" />
    <glyph glyph-name="a" unicode="a" 
d="M62 187q-6 -40 5 -75.5t34 -61.5q22 -27 56.5 -42.5t76.5 -15.5q33 0 61.5 9.5t49.5 24.5q16 9 26.5 19t14.5 17q-1 -8 -2.5 -15.5t-2.5 -16.5l-4 -30h131l9 60h-75l44 315h-52q-3 -17 -7 -33.5t-6 -33.5q-2 10 -12.5 24t-28.5 26q-17 11 -40 18.5t-51 7.5
q-42 0 -80.5 -16t-69.5 -43q-30 -26 -50.5 -62t-26.5 -76zM126 188q3 28 16.5 52.5t34.5 42.5q21 19 47 28.5t56 9.5q28 0 51.5 -9.5t39.5 -27.5t23 -43t3 -54q-4 -28 -17.5 -52t-34.5 -42q-21 -19 -47.5 -29.5t-55.5 -10.5q-27 0 -48.5 9t-36.5 24q-19 18 -27.5 44.5
t-3.5 57.5z" />
    <glyph glyph-name="b" unicode="b" 
d="M167 0l3 26q2 8 3 17.5t2 18.5q5 -20 40 -45t94 -25q41 0 79.5 15.5t69.5 42.5q30 26 50.5 62t26.5 76t-4.5 75.5t-33.5 62.5q-24 27 -58 42.5t-76 15.5q-52 0 -89.5 -20t-56.5 -49q2 9 4 19t3 21l55 395h-131l-8 -60h68l-89 -630h-75l-8 -60h131zM471 188
q-4 -28 -17.5 -52.5t-34.5 -42.5q-21 -19 -47 -29.5t-55 -10.5q-26 0 -47.5 8.5t-36.5 22.5q-20 19 -28.5 45.5t-4.5 58.5q4 28 17.5 52.5t34.5 42.5q21 19 47 29t55 10q28 0 51 -9.5t39 -26.5q16 -18 23.5 -43t3.5 -55z" />
    <glyph glyph-name="c" unicode="c" horiz-adv-x="394" 
d="M364 35l-33 48q-19 -15 -42 -22.5t-48 -7.5q-27 0 -49 9t-37 25q-18 19 -26 45t-4 56q4 28 17.5 52.5t34.5 43.5q21 18 46.5 28t55.5 10q19 0 35.5 -4.5t31.5 -13.5l-10 -71h56l16 108q-23 20 -53.5 31.5t-66.5 11.5q-42 0 -80 -16t-69 -42q-30 -26 -50.5 -62t-26.5 -76
q-6 -41 5 -76.5t34 -61.5q23 -27 56.5 -42.5t75.5 -15.5q36 0 68.5 11.5t62.5 31.5z" />
    <glyph glyph-name="d" unicode="d" 
d="M382 30l-4 -30h130l9 60h-75l97 690h-132l-8 -60h68l-43 -312q-3 -15 -5 -32t-3 -31q-9 25 -45 47t-82 22q-42 0 -80.5 -15.5t-69.5 -42.5q-30 -27 -50.5 -62.5t-26.5 -75.5t5 -76t34 -62q22 -27 56.5 -42.5t76.5 -15.5q59 0 96.5 21.5t56.5 48.5q-1 -8 -2.5 -15.5
t-2.5 -16.5zM126 188q3 28 16.5 52.5t34.5 42.5q21 19 47 29t56 10q29 0 53.5 -10.5t40.5 -30.5q14 -18 20 -41.5t3 -51.5q-4 -28 -17.5 -52.5t-34.5 -42.5q-21 -19 -47.5 -29.5t-55.5 -10.5q-27 0 -49.5 9.5t-38.5 25.5q-17 18 -25 44t-3 56z" />
    <glyph glyph-name="e" unicode="e" horiz-adv-x="446" 
d="M279 322q29 0 51.5 -15.5t34.5 -41.5q-60 -21 -119.5 -43t-120.5 -44q2 29 14 55t33 46q20 19 47.5 31t59.5 12zM440 230q-5 33 -17.5 61t-30.5 48q-20 21 -46.5 33t-57.5 12q-42 0 -80 -15.5t-69 -41.5q-30 -27 -50.5 -63t-26.5 -76q-6 -41 5 -76.5t34 -62.5
q23 -26 57 -41.5t75 -15.5q39 0 73 14t63 39q-8 11 -16 22.5t-17 22.5q-19 -17 -43.5 -27t-51.5 -10q-38 0 -66.5 18t-40.5 48q77 28 153 55.5t153 55.5z" />
    <glyph glyph-name="f" unicode="f" horiz-adv-x="320" 
d="M43 60l-8 -60h208l8 60h-85l36 253h121l9 62h-122l21 141q6 42 23.5 75t44.5 55q24 20 54 31.5t64 13.5l8 60q-48 -2 -91 -17.5t-78 -45.5q-34 -29 -57.5 -72t-31.5 -99l-20 -142h-60l-8 -62h61l-36 -253h-61z" />
    <glyph glyph-name="g" unicode="g" 
d="M468 375q-3 -17 -6.5 -33.5t-6.5 -33.5q-6 15 -16.5 28.5t-26.5 23.5q-16 11 -38 17.5t-51 6.5q-42 0 -80.5 -16t-69.5 -43q-30 -26 -50.5 -62t-26.5 -76t5 -75.5t34 -61.5q22 -27 56.5 -42t76.5 -15q56 0 91.5 18.5t53.5 44.5q-2 -9 -3 -16.5t-3 -16.5l-8 -63
q-4 -32 -17.5 -59.5t-33.5 -46.5q-21 -20 -48.5 -29.5t-55.5 -9.5q-32 0 -59 11t-47 34l-49 -50q25 -29 66 -44.5t88 -15.5q40 0 75.5 14.5t66.5 41.5q30 26 49.5 64t25.5 82l51 363h76l8 60h-127zM160 188q3 28 16.5 52.5t34.5 42.5q21 19 47 29t56 10q29 0 52 -10t39 -28
t23 -43t3 -53t-17.5 -52.5t-34.5 -42.5q-21 -19 -47 -29.5t-56 -10.5q-27 0 -49 9.5t-37 24.5q-18 19 -26.5 44.5t-3.5 56.5z" />
    <glyph glyph-name="h" unicode="h" horiz-adv-x="563" 
d="M328 60l-8 -60h208l8 60h-67l29 211q6 50 -23 81t-87 31q-57 -2 -103 -29t-74 -76l9 45l60 427h-138l-9 -60h75l-88 -630h-77l-8 -60h208l8 60h-68l18 133q5 28 20 51.5t36 40.5q22 17 49 26.5t55 9.5q40 -2 56.5 -23.5t13.5 -51.5l-25 -186h-78z" />
    <glyph glyph-name="i" unicode="i" horiz-adv-x="278" 
d="M43 60l-8 -60h208l8 60h-71l43 315h-136l-8 -60h73l-35 -255h-74zM170 514q-3 -18 8.5 -30.5t28.5 -12.5q15 0 30 12.5t18 30.5q3 19 -8.5 31.5t-27.5 12.5q-17 0 -31.5 -12.5t-17.5 -31.5z" />
    <glyph glyph-name="j" unicode="j" horiz-adv-x="199" 
d="M60 375l-9 -60h66l-45 -316q-5 -45 -24 -78t-48 -55l38 -47q38 29 64 74t34 105l53 377h-129zM136 514q-2 -18 9.5 -30.5t27.5 -12.5t30.5 12.5t17.5 30.5q2 19 -9 31.5t-27 12.5q-17 0 -31.5 -12.5t-17.5 -31.5z" />
    <glyph glyph-name="k" unicode="k" horiz-adv-x="515" 
d="M295 60l-8 -60h193l9 60h-91q-23 40 -47 80t-46 80q29 24 55 47t56 48h67l9 60h-193l-9 -60h48l-138 -114l78 549h-131l-9 -60h68l-88 -630h-75l-8 -60h208l8 60h-70l9 66l64 53q16 -30 34 -59.5t36 -59.5h-29z" />
    <glyph glyph-name="l" unicode="l" horiz-adv-x="278" 
d="M43 60l-8 -60h208l8 60h-70l97 690h-131l-9 -60h68l-88 -630h-75z" />
    <glyph glyph-name="m" unicode="m" horiz-adv-x="850" 
d="M615 60l-8 -60h208l8 60h-68l29 211q5 50 -23.5 81t-86.5 31q-55 -1 -101 -27.5t-74 -72.5q1 45 -28 72.5t-83 27.5q-57 -1 -103.5 -29t-73.5 -76q2 21 2.5 37.5t2.5 37.5l2 22h-123l-8 -60h68l-35 -255h-77l-8 -60h208l8 60h-68l18 133q5 28 20 51.5t36 40.5
q22 17 49 26.5t55 9.5q40 -2 56.5 -23.5t13.5 -51.5l-25 -186h-77l-8 -60h208l8 60h-68l18 135q5 27 20 50.5t37 39.5q22 17 48.5 26.5t54.5 9.5q40 -2 56.5 -23.5t13.5 -51.5l-25 -186h-77z" />
    <glyph glyph-name="n" unicode="n" horiz-adv-x="563" 
d="M328 60l-8 -60h208l8 60h-67l29 211q6 50 -23 81t-87 31q-54 0 -102 -28.5t-75 -76.5q2 21 2.5 37.5t2.5 37.5l2 22h-123l-8 -60h68l-35 -255h-77l-8 -60h208l8 60h-68l18 133q5 28 20 51.5t36 40.5q22 17 49 26.5t55 9.5q40 -2 56.5 -23.5t13.5 -51.5l-25 -186h-78z" />
    <glyph glyph-name="o" unicode="o" horiz-adv-x="468" 
d="M62 188q-6 -41 5 -76.5t35 -61.5q22 -27 56 -42.5t76 -15.5q41 0 79.5 15.5t69.5 42.5q30 26 50.5 61.5t26.5 76.5q6 40 -4.5 76t-33.5 63q-23 26 -57.5 41.5t-75.5 15.5q-42 0 -80 -15.5t-69 -41.5q-31 -27 -51.5 -63t-26.5 -76zM125 187q4 28 18 52.5t35 43.5
q20 18 46 28.5t54 10.5t51 -10.5t39 -28.5q16 -19 23 -43.5t3 -51.5q-4 -29 -18 -53t-35 -42q-20 -19 -46.5 -29.5t-54.5 -10.5t-50.5 10.5t-38.5 29.5q-16 18 -22.5 42t-3.5 52z" />
    <glyph glyph-name="p" unicode="p" 
d="M5 -190l-6 -60h207l7 60h-78l30 211q2 11 2.5 19.5t-0.5 16.5q9 -24 43 -45t86 -21q41 0 80 15.5t69 42.5q31 27 51.5 62.5t26.5 76.5q5 40 -5.5 75.5t-32.5 62.5q-24 26 -58.5 41.5t-75.5 15.5q-27 0 -52.5 -8t-45.5 -19q-22 -12 -36.5 -25.5t-19.5 -23.5q2 17 3 34.5
t3 33.5h-125l-10 -60h75l-71 -505h-67zM459 188q-4 -28 -17.5 -53t-34.5 -43t-47 -28.5t-56 -10.5q-29 0 -52 10.5t-39 28.5t-22.5 43t-2.5 53t17.5 52.5t34.5 42.5t47 28.5t56 10.5q29 0 52.5 -10.5t38.5 -27.5q15 -18 22.5 -43t2.5 -53z" />
    <glyph glyph-name="q" unicode="q" horiz-adv-x="545" 
d="M298 -190l-8 -60h208l8 60h-65l70 505h78l8 60h-129q-3 -17 -6.5 -34t-6.5 -34q-11 29 -44 52.5t-88 23.5q-42 0 -80.5 -15.5t-69.5 -41.5q-30 -27 -50.5 -62.5t-26.5 -75.5q-6 -41 4.5 -76.5t34.5 -62.5q22 -27 56.5 -42.5t75.5 -15.5q53 0 91 19.5t55 45.5
q-2 -10 -4 -21t-3 -20l-29 -205h-79zM160 188q3 28 16.5 52.5t34.5 42.5t47 28.5t56 10.5q28 0 51 -9.5t38 -26.5q17 -18 24.5 -43.5t3.5 -54.5q-4 -28 -17.5 -53t-34.5 -43t-47.5 -28.5t-55.5 -10.5q-27 0 -49 8.5t-37 24.5q-19 19 -27 45t-3 57z" />
    <glyph glyph-name="r" unicode="r" horiz-adv-x="357" 
d="M43 60l-8 -60h208l8 60h-68l18 133q4 27 18 50.5t36 40.5q21 17 49 27t59 10l12 62q-19 0 -41 -7t-44 -20q-23 -14 -44 -33.5t-35 -44.5q2 21 2.5 37.5t2.5 37.5l2 22h-123l-8 -60h68l-35 -255h-77z" />
    <glyph glyph-name="s" unicode="s" horiz-adv-x="327" 
d="M54 31q17 -21 49.5 -30t67.5 -9q37 0 63 12t43 30q16 18 24.5 37t10.5 36q3 32 -6 52t-25 33q-17 12 -37.5 20.5t-38.5 16.5q-18 7 -30.5 17t-10.5 27q1 13 6.5 22t13.5 15q9 6 20 8.5t22 2.5t22 -2.5t21 -7.5l-7 -48h57l11 81q-9 11 -23 19t-29 12q-15 5 -28 6.5
t-20 1.5q-18 0 -39 -6.5t-40 -19.5t-33 -33.5t-18 -49.5q-4 -34 6 -53.5t27 -30.5q18 -11 40 -17.5t39 -14.5q19 -7 28.5 -19t7.5 -33q-2 -14 -8 -23t-17 -16q-10 -7 -21 -10t-23 -3q-20 0 -35 2.5t-28 10.5l6 45h-57z" />
    <glyph glyph-name="t" unicode="t" horiz-adv-x="325" 
d="M206 619l-34 -244h-85l-8 -62h85l-44 -313h142l8 60h-78l35 253h106l9 62h-107l34 244h-63z" />
    <glyph glyph-name="u" unicode="u" horiz-adv-x="555" 
d="M394 0h127l7 54h-66l45 321h-133l-9 -60h70l-18 -133q-4 -28 -19 -51.5t-37 -40.5t-49 -26.5t-55 -9.5q-40 2 -56.5 23.5t-13.5 51.5l34 246h-133l-8 -60h69l-29 -211q-5 -50 24 -81t86 -31q55 0 103 28.5t75 76.5l-8 -45z" />
    <glyph glyph-name="v" unicode="v" horiz-adv-x="586" 
d="M90 375l-8 -60h80q33 -85 66 -169t66 -169q56 85 112.5 168.5t112.5 169.5h78l9 60h-203l-9 -60h60q-39 -58 -77 -115t-67 -112q-15 56 -37 113t-45 114h58l8 60h-204z" />
    <glyph glyph-name="w" unicode="w" horiz-adv-x="839" 
d="M666 375l-8 -60h57q-37 -57 -72 -113.5t-66 -113.5q-16 57 -35.5 113.5t-40.5 113.5h61l9 60h-205l-8 -60h72l12 -31q-34 -45 -73.5 -102t-63.5 -94q-16 57 -35.5 113.5t-40.5 113.5h46l9 60h-194l-8 -60h84q30 -85 61 -169t62 -169l177 261l95 -261q54 85 108.5 168.5
t108.5 169.5h72l9 60h-193z" />
    <glyph glyph-name="x" unicode="x" horiz-adv-x="515" 
d="M87 375l-8 -60h90q17 -30 34.5 -59t35.5 -58q-31 -35 -61 -69t-59 -69h-76l-8 -60h192l8 60h-39q18 22 37 42.5t37 42.5q12 -21 24.5 -42t26.5 -43h-41l-8 -60h208l8 60h-88q-18 29 -35.5 58t-34.5 59l119 138h75l8 60h-192l-8 -60h42l-76 -89l-53 89h42l8 60h-208z" />
    <glyph glyph-name="y" unicode="y" horiz-adv-x="609" 
d="M100 -190l-8 -60h208l8 60h-56q81 127 161.5 252.5t161.5 252.5h78l8 60h-203l-8 -60h60q-43 -65 -85 -130t-76 -128q-17 65 -41 129t-48 129h58l8 60h-204l-8 -60h80q29 -80 57.5 -158.5t57.5 -157.5q-31 -47 -61.5 -94t-60.5 -95h-87z" />
    <glyph glyph-name="z" unicode="z" horiz-adv-x="433" 
d="M414 117h-56l-8 -55h-219l290 251l8 62h-273l5 35h-57l-13 -95h241l-289 -253l-8 -62h363z" />
    <glyph glyph-name="zero" unicode="0" horiz-adv-x="616" 
d="M37 327q-11 -74 2 -135.5t44 -105.5t75.5 -69t96.5 -25q53 0 104.5 24t95.5 68t75 104.5t42 134.5q10 68 0 129t-38 107q-28 45 -73.5 72t-107.5 27q-61 0 -115 -26t-95 -71q-42 -45 -69 -105.5t-37 -128.5zM101 327q6 46 25.5 94.5t51.5 87.5q31 39 73 63t94 24
q51 0 86 -25t55 -64q19 -40 24.5 -88.5t-2.5 -94.5q-9 -59 -32.5 -108.5t-56.5 -85.5q-34 -36 -74 -56t-81 -20t-74.5 21t-55.5 57q-23 36 -32.5 86t-0.5 109z" />
    <glyph glyph-name="one" unicode="1" horiz-adv-x="278" 
d="M-1 60l-9 -60h222l8 60h-79l83 590h-145l-8 -62h81l-75 -528h-78z" />
    <glyph glyph-name="two" unicode="2" horiz-adv-x="512" 
d="M168 62q50 47 99 95t89 96q41 49 69 99t35 102q6 42 -3 79t-31 65q-22 27 -56 43.5t-78 16.5q-49 0 -88.5 -16t-68.5 -43q-30 -27 -48 -63.5t-24 -76.5q-5 -40 6.5 -81.5t38.5 -63.5l44 38q-17 21 -23 47.5t-2 59.5q3 19 12 42.5t28 45.5q18 21 46 35t70 14q20 0 42 -8
t40 -27q17 -18 26.5 -47t3.5 -72q-7 -47 -42 -99t-88 -107q-54 -56 -121 -115t-138 -121h429l23 160h-60l-14 -98h-216z" />
    <glyph glyph-name="three" unicode="3" horiz-adv-x="515" 
d="M162 336q16 10 33 14.5t34 4.5q31 0 57.5 -12t44.5 -32q17 -20 25.5 -47.5t4.5 -58.5q-5 -31 -21 -58.5t-40 -47.5q-23 -21 -52.5 -33t-60.5 -12q-34 0 -60.5 14t-42.5 38l-52 -44q25 -32 62.5 -51t84.5 -19q44 0 85 16.5t75 46.5q33 28 56 67t29 83q5 39 -3 72.5
t-27 60.5q-20 26 -48.5 44t-64.5 26l194 242h-326l-16 -115h60l7 53h158z" />
    <glyph glyph-name="four" unicode="4" horiz-adv-x="522" 
d="M225 60l-8 -60h222l8 60h-83l18 123h97l8 62h-97l59 413l-433 -475h302l-17 -123h-76zM359 472l-32 -227h-175z" />
    <glyph glyph-name="five" unicode="5" 
d="M476 650h-287l-49 -344q21 25 51.5 36.5t65.5 11.5q32 0 58 -11.5t44 -31.5q17 -21 25.5 -48t4.5 -58q-5 -31 -21 -58.5t-39 -47.5q-24 -21 -53 -33t-61 -12q-29 0 -53.5 10.5t-40.5 29.5l-53 -42q25 -29 60 -44.5t79 -15.5t85 17t75 46q33 28 56 67t29 83t-5.5 82.5
t-36.5 67.5q-26 28 -62.5 44.5t-81.5 16.5q-12 0 -24 -2.5t-23 -5.5l25 180h163l-7 -53h60z" />
    <glyph glyph-name="six" unicode="6" horiz-adv-x="520" 
d="M98 204q4 32 19.5 59t38.5 47t51.5 32t59.5 12t57 -12t44 -32t26 -47t4 -59q-5 -31 -21 -58t-39 -47q-24 -22 -53 -33.5t-60 -11.5t-56.5 11.5t-42.5 33.5q-17 20 -25 47t-3 58zM32 196q-5 -43 7 -80t37 -64q25 -28 61 -44t79 -16q44 0 85 16.5t75 46.5q33 28 56 66.5
t29 82.5t-5.5 82.5t-36.5 68.5q-26 28 -62.5 44.5t-80.5 16.5q-19 0 -36 -7t-30 -18q19 21 45 45.5t60 51.5q28 23 64 47.5t79 51.5q-9 12 -17 24.5t-16 24.5q-62 -41 -127.5 -88t-121.5 -101q-55 -54 -94.5 -116.5t-49.5 -134.5z" />
    <glyph glyph-name="seven" unicode="7" horiz-adv-x="469" 
d="M469 650h-410l-16 -115h60l8 53h250l-347 -588h72z" />
    <glyph glyph-name="eight" unicode="8" horiz-adv-x="510" 
d="M188 502q3 19 12.5 36t23.5 30t32 20.5t37 7.5q18 0 33.5 -7.5t25.5 -19.5q11 -12 16 -29.5t2 -37.5q-4 -20 -14 -36.5t-24 -27.5t-30.5 -16.5t-34.5 -5.5q-19 0 -34 6t-26 16q-11 12 -17 28t-2 36zM88 205q5 31 20.5 58t38.5 48q23 20 52 31.5t61 11.5q31 -1 56.5 -13
t42.5 -32q18 -20 26 -47t3 -57q-4 -31 -20 -58.5t-39 -47.5q-25 -21 -54 -33.5t-60 -12.5t-56.5 12.5t-41.5 33.5q-17 20 -25 47.5t-4 58.5zM23 205q-6 -44 5.5 -83t36.5 -67q25 -29 61 -46t81 -17q44 0 85 17t75 46q33 28 55.5 67t28.5 83q5 37 -2 69.5t-25 58.5
q-11 18 -28 33t-37 24q29 19 48.5 48t25.5 65q4 32 -4.5 60t-25.5 49q-19 22 -45.5 34t-58.5 12q-33 0 -62.5 -12t-53.5 -33t-39.5 -49t-19.5 -60q-6 -36 6 -65.5t36 -48.5q-24 -10 -45 -25.5t-39 -34.5q-24 -26 -39 -58t-20 -67z" />
    <glyph glyph-name="nine" unicode="9" horiz-adv-x="525" 
d="M412 423q-4 -31 -19.5 -58.5t-38.5 -47.5q-23 -21 -52 -32.5t-59 -11.5q-31 0 -57 11.5t-44 32.5q-18 20 -26 47.5t-4 58.5t20 58.5t40 47.5q24 21 53 33t60 12t56.5 -12t42.5 -33q18 -21 25.5 -48t2.5 -58zM477 423q6 43 -5.5 81.5t-35.5 67.5q-25 29 -61.5 46t-80.5 17
t-85.5 -16.5t-74.5 -45.5t-56 -67.5t-29 -82.5t5.5 -82.5t37.5 -67.5q25 -29 61.5 -45t80.5 -16q19 0 35.5 6t30.5 18q-18 -20 -41.5 -42.5t-53.5 -46.5q-30 -25 -68.5 -52t-84.5 -54q8 -13 16.5 -25t16.5 -25q60 40 125 86t121 100q57 53 97 114.5t49 131.5z" />
    <glyph glyph-name="uni00B9" unicode="&#xb9;" horiz-adv-x="266" 
d="M37 404l-4 -29h110l4 29h-39l40 295h-72l-4 -31h41l-37 -264h-39z" />
    <glyph glyph-name="uni00B2" unicode="&#xb2;" horiz-adv-x="398" 
d="M160 405q25 24 49 47.5t44 47.5q21 25 34.5 49.5t17.5 49.5q3 21 -2 39t-15 32q-11 14 -28 22t-38 8q-25 0 -44 -7.5t-34 -21.5t-23.5 -32t-11.5 -37q-3 -20 3 -40.5t18 -31.5l22 19q-8 10 -11 23.5t-1 29.5q2 9 6.5 20.5t12.5 22.5q9 10 23.5 17.5t34.5 7.5
q10 0 21 -4.5t20 -13.5q8 -9 12.5 -23t1.5 -36q-3 -23 -20.5 -49t-43.5 -53t-59.5 -56t-68.5 -60h213l11 79h-30l-7 -49h-107z" />
    <glyph glyph-name="uni00B3" unicode="&#xb3;" horiz-adv-x="419" 
d="M129 546q8 4 16 6.5t17 2.5q15 0 28 -6t22 -16q8 -10 12.5 -23.5t1.5 -28.5q-2 -15 -10 -28.5t-19 -23.5q-12 -10 -26.5 -16.5t-29.5 -6.5q-17 0 -30 7t-21 19l-25 -22q12 -15 30 -24.5t42 -9.5q21 0 42 8.5t37 22.5t27 33t14 41q3 19 -1 35.5t-13 29.5q-10 13 -24 22
t-31 13l95 119h-161l-8 -56h30l3 26h78z" />
    <glyph glyph-name="ordfeminine" unicode="&#xaa;" horiz-adv-x="585" 
d="M103 441q-5 -29 3 -54.5t25 -45.5q16 -19 41 -29.5t55 -10.5q22 0 41.5 5.5t34.5 14.5q12 7 21 15.5t12 14.5q-1 -6 -1.5 -11.5t-1.5 -12.5l-2 -21h94l6 43h-55l32 227h-37q-2 -11 -5 -23.5t-4 -23.5q-2 7 -9.5 17t-20.5 18q-13 9 -29.5 14t-36.5 5q-29 0 -57.5 -11.5
t-49.5 -31.5q-22 -19 -37 -45t-19 -54zM149 442q2 20 12 38t25 31t34 20t40 7q20 0 37.5 -7t27.5 -20q12 -13 17 -31t2 -39q-2 -20 -12.5 -38t-25.5 -30q-15 -13 -33.5 -20.5t-39.5 -7.5q-20 0 -35.5 6t-26.5 17q-13 13 -19.5 32t-2.5 42z" />
    <glyph glyph-name="ordmasculine" unicode="&#xba;" horiz-adv-x="469" 
d="M110 442q-5 -30 3 -55.5t25 -44.5q17 -20 41 -30.5t54 -10.5q31 0 58.5 10.5t49.5 30.5q22 19 37 44.5t19 55.5q4 28 -3.5 54t-24.5 45q-17 20 -41.5 31t-54.5 11t-57.5 -11t-49.5 -31q-22 -19 -37 -45t-19 -54zM156 441q2 20 12 37.5t25 31.5t33.5 21.5t38.5 7.5
t37 -7.5t28 -21.5q12 -14 17 -31.5t2 -37.5t-12.5 -38t-24.5 -30q-15 -13 -34.5 -20.5t-39.5 -7.5t-36 7.5t-28 20.5q-11 12 -16 30t-2 38z" />
    <glyph glyph-name="onehalf" unicode="&#xbd;" horiz-adv-x="1069" 
d="M96 277l-6 -43h157l6 43h-56l59 418h-103l-6 -43h58l-53 -375h-56zM657 43q36 34 71 68t63 68q29 36 48.5 71t25.5 72q4 30 -2.5 56t-21.5 46q-16 19 -40.5 30.5t-54.5 11.5q-35 0 -62.5 -11t-48.5 -30q-21 -20 -34 -45.5t-17 -54.5q-4 -27 4.5 -57t26.5 -46l31 28
q-12 14 -16 33t-1 42q2 14 8.5 30.5t19.5 32.5q13 14 33 24t49 10q14 0 30 -5.5t28 -18.5q13 -13 19.5 -34t1.5 -51q-5 -33 -29.5 -70t-62.5 -76q-37 -39 -84.5 -81t-98.5 -86h304l17 113h-43l-9 -70h-155zM214 -19h63q97 190 192.5 377.5t192.5 377.5h-64
q-97 -190 -192 -377.5t-192 -377.5z" />
    <glyph glyph-name="onequarter" unicode="&#xbc;" horiz-adv-x="968" 
d="M214 -19h63q97 190 192.5 377.5t192.5 377.5h-64q-97 -190 -192 -377.5t-192 -377.5zM641 45l-6 -45h165l6 45h-61l13 91h72l6 47h-72l44 307l-322 -354h224l-13 -91h-56zM740 352l-23 -169h-130zM101 277l-6 -43h157l6 43h-56l59 418h-103l-6 -43h58l-53 -375h-56z" />
    <glyph glyph-name="threequarters" unicode="&#xbe;" horiz-adv-x="1276" 
d="M215 465q12 7 25.5 10.5t26.5 3.5q24 0 44 -9t34 -24q14 -16 20.5 -37t2.5 -45q-3 -24 -15.5 -45.5t-30.5 -36.5q-19 -17 -41.5 -26t-46.5 -9q-26 0 -46.5 11t-32.5 29l-41 -34q20 -24 49 -39t65 -15q34 0 66 13t57 35q26 23 44 53t22 64q4 30 -2.5 56t-21.5 46
q-14 20 -36 34t-50 21l150 187h-252l-13 -89h46l6 40h122zM397 -19h63q97 190 192.5 377.5t192.5 377.5h-64q-97 -190 -192 -377.5t-192 -377.5zM840 45l-7 -45h166l6 45h-61l13 91h72l6 47h-72l44 307l-322 -354h224l-13 -91h-56zM939 352l-23 -169h-130z" />
    <glyph glyph-name="AE" unicode="&#xc6;" horiz-adv-x="776" 
d="M743 546h60l22 154h-342q-91 -161 -180.5 -320t-180.5 -320h-79l-8 -60h208l8 60h-65q31 55 62 109.5t62 109.5h124l-39 -279h346l21 154h-60l-13 -94h-223l36 263h231l9 60h-231l37 257h209zM442 339h-99q34 61 69.5 121t64.5 122z" />
    <glyph glyph-name="ae" unicode="&#xe6;" horiz-adv-x="603" 
d="M526 264q-37 -13 -72.5 -26t-72.5 -26l4 30q3 22 3 38.5t-6 28.5q14 6 28.5 9t29.5 3q29 0 51.5 -16t34.5 -41zM308 146l-5 -39q-3 -19 -13.5 -30t-24.5 -16q-15 -6 -31.5 -7.5t-31.5 -1.5q-17 0 -33 2t-29 7q-13 6 -20.5 16t-5.5 26q2 17 17 25.5t35 12.5q19 4 40 4.5
t35 0.5h67zM194 -10q35 0 62 5.5t47 18.5q20 -12 43 -17.5t48 -5.5q39 0 73 14t63 38q-8 12 -16 23.5t-16 22.5q-20 -17 -44 -27t-51 -10q-16 0 -31 3t-27 9q10 13 15.5 28t8.5 35l3 18l229 84q-4 32 -16.5 60t-30.5 48q-20 21 -47 33t-58 12q-24 0 -47 -5t-45 -15
q-15 10 -42 15t-65 5q-18 0 -39 -4t-41 -11q-20 -6 -37.5 -15.5t-29.5 -19.5l29 -41q8 5 20 10t26 10q15 5 31.5 7.5t30.5 2.5q30 0 47.5 -4.5t25.5 -14.5q9 -10 10 -24.5t-1 -33.5l-5 -32h-105q-28 0 -55 -5.5t-50 -18.5q-22 -11 -37.5 -31.5t-19.5 -50.5q-4 -34 4.5 -56
t27.5 -36q19 -13 47.5 -18.5t64.5 -5.5z" />
    <glyph glyph-name="eth" unicode="&#xf0;" horiz-adv-x="468" 
d="M126 188q3 29 16.5 54.5t34.5 42.5q20 18 46 28.5t55 10.5t52.5 -9.5t38.5 -26.5q16 -18 23.5 -42.5t4.5 -53.5q-3 -28 -16.5 -52.5t-34.5 -42.5q-20 -19 -46.5 -30t-55.5 -11q-29 -1 -52.5 9t-39.5 28t-23 42t-3 53zM460 194q7 51 1 105t-22 108q-16 53 -40.5 104
t-51.5 94l34 32l34 32l-19.5 19.5t-18.5 19.5q-16 -15 -30.5 -29t-30.5 -29q-19 24 -39 45.5t-41 39.5q-13 -11 -25.5 -21.5t-24.5 -20.5q22 -21 42 -44t38 -47q-19 -16 -36.5 -33t-35.5 -33q10 -11 19.5 -20.5t18.5 -19.5q16 15 31.5 29.5t31.5 29.5q34 -53 52.5 -104.5
t25.5 -96.5q-17 15 -39.5 23.5t-49.5 7.5q-41 -1 -79 -17t-68 -43q-30 -26 -50 -62.5t-25 -76.5q-5 -41 7 -76t36 -61q23 -26 57.5 -41t75.5 -14q42 1 80 17.5t68 43.5t49.5 62.5t24.5 76.5z" />
    <glyph glyph-name="Thorn" unicode="&#xde;" horiz-adv-x="525" 
d="M43 60l-8 -60h222l8 60h-88l13 95h110q102 0 164 52.5t75 140.5q7 51 -11.5 86t-48.5 58q-31 22 -69.5 32.5t-70.5 10.5h-95l15 105h74l8 60h-208l-8 -60h71l-82 -580h-71zM199 216l37 260h96q34 0 62 -10.5t48 -27.5q19 -18 28 -41t6 -49q-4 -21 -14.5 -44.5
t-31.5 -42.5t-54.5 -32t-81.5 -13h-95z" />
    <glyph glyph-name="thorn" unicode="&#xfe;" horiz-adv-x="507" 
d="M-46 -190l-8 -60h221l9 60h-82l30 212q1 11 1.5 19.5t0.5 15.5q11 -27 43.5 -46.5t85.5 -19.5q41 0 79.5 15.5t69.5 42.5t51.5 62.5t26.5 75.5q5 39 -5.5 74.5t-33.5 62.5q-24 27 -58 42.5t-75 15.5q-28 0 -53 -7.5t-46 -18.5q-20 -12 -31 -22t-16 -20q1 7 2.5 15.5
t2.5 19.5l49 341h68l8 60h-208l-8 -60h77l-125 -880h-76zM418 188q-4 -28 -18 -53t-35 -43q-20 -18 -46.5 -28.5t-55.5 -10.5q-30 0 -53.5 10.5t-38.5 28.5q-15 19 -21.5 43.5t-2.5 52.5t17.5 52.5t34.5 42.5t47 28.5t55 10.5q27 0 49.5 -9.5t37.5 -24.5q19 -19 26.5 -44.5
t3.5 -55.5z" />
    <glyph glyph-name="germandbls" unicode="&#xdf;" horiz-adv-x="554" 
d="M44 60l-8 -60h130l59 421q6 40 20.5 71.5t35.5 53.5q22 23 50 36t59 14q20 0 35.5 -8t25.5 -22q10 -13 14 -30t2 -35q-3 -21 -13.5 -37.5t-26.5 -27.5q-13 -10 -30.5 -15.5t-35.5 -5.5l-4 -31q-2 -9 -2 -16t-2 -15q32 0 58 -11.5t44 -31.5q18 -21 26.5 -48t3.5 -58
q-4 -31 -20 -58t-39 -48q-24 -21 -53.5 -33t-60.5 -12q-18 0 -33.5 4t-30.5 12l-33 -56q19 -11 41.5 -16.5t47.5 -5.5q44 0 85.5 17t74.5 45q33 30 55.5 68.5t28.5 82.5q5 37 -2 70t-25 59q-11 18 -28 32.5t-37 24.5q29 18 49 47t25 65q4 32 -4 60t-26 49q-18 22 -44.5 34
t-58.5 12q-40 0 -79 -16t-71 -46t-54.5 -73.5t-30.5 -97.5l-2 -18h-62l-8 -62h61l-40 -284h-67z" />
    <glyph glyph-name="dollar" unicode="$" horiz-adv-x="567" 
d="M380 546h60l15 103q-15 13 -31 22.5t-32 16.5q-19 7 -37 10t-35 5l9 61h-64l-9 -63q-42 -6 -74.5 -24t-54.5 -44t-34.5 -56.5t-15.5 -59.5q-4 -42 5 -70t28 -46q18 -19 43.5 -30.5t53.5 -20.5l-42 -295q-38 5 -65 19t-46 33l13 89h-60l-15 -111q8 -17 25.5 -32.5
t41.5 -28.5q19 -10 44 -17.5t54 -10.5l-9 -64h64l8 61q39 4 75.5 19t65.5 40q28 25 47.5 59t24.5 76q7 53 -4.5 88t-34.5 58q-23 22 -54 35.5t-63 24.5l34 249q27 -2 46 -8.5t34 -14.5zM370 186q-4 -32 -19.5 -56.5t-38.5 -41.5q-18 -14 -39.5 -22t-43.5 -11l39 275
q23 -9 44 -19.5t35 -26.5q14 -17 21 -40.5t2 -57.5zM141 519q3 21 11.5 40.5t22.5 36.5q13 15 31 26t41 15l-31 -223q-15 6 -28 13t-23 16q-14 13 -21 31t-3 45z" />
    <glyph glyph-name="cent" unicode="&#xa2;" horiz-adv-x="385" 
d="M341 83q-15 -11 -33.5 -18.5t-37.5 -9.5l37 265q14 -1 26 -5t22 -11l-10 -71h56l16 108q-19 17 -44.5 28t-56.5 13l8 56h-64l-8 -60q-34 -8 -64.5 -25t-54.5 -43q-25 -25 -41 -56t-21 -66t2 -66.5t25 -55.5q17 -25 42.5 -42.5t57.5 -24.5l-9 -67h64l8 61q32 4 59 14
t53 28zM134 188q4 23 13.5 43t24.5 37q14 16 32.5 27t38.5 17l-36 -249q-16 4 -29 12.5t-22 21.5q-14 18 -20 41t-2 50z" />
    <glyph glyph-name="sterling" unicode="&#xa3;" horiz-adv-x="574" 
d="M529 0l23 161h-64l-14 -99h-300q17 14 23.5 35t10.5 50l19 137h121l8 62h-120l20 140q3 26 16.5 43t36.5 28q18 7 39 11t53 4q28 0 49.5 -5t33.5 -14q11 -9 18 -20.5t12 -23.5l52 28q-7 20 -19 37.5t-29 31.5q-19 13 -48.5 20.5t-62.5 7.5q-96 0 -149.5 -32.5
t-63.5 -101.5l-22 -154h-65l-8 -62h65l-15 -108q-6 -35 -11 -57.5t-12 -34.5q-8 -13 -18.5 -17.5t-27.5 -4.5h-44l-8 -62h501z" />
    <glyph glyph-name="yen" unicode="&#xa5;" horiz-adv-x="768" 
d="M566 100l8 62h-129l14 101h128l9 62h-94q58 78 115.5 156.5t115.5 158.5h90l8 60h-222l-8 -60h54l-210 -286l-15 -29h-1l-8 29q-31 72 -64 143t-66 143h56l8 60h-222l-8 -60h89l144 -315h-95l-9 -62h128l-13 -101h-128l-9 -62h128l-6 -40h-70l-8 -60h222l8 60h-75l6 40
h129z" />
    <glyph glyph-name="currency" unicode="&#xa4;" horiz-adv-x="500" 
d="M181 360q2 18 11.5 34.5t22.5 27.5q14 13 31 20.5t36 7.5q18 0 33 -6.5t25 -17.5q11 -13 16.5 -29.5t2.5 -36.5q-2 -18 -11.5 -34.5t-23.5 -27.5q-14 -13 -31.5 -20t-35.5 -7q-16 0 -30 5.5t-25 16.5q-12 11 -18 29t-3 38zM117 361q-4 -24 0 -45t14 -40l-33 -29l39 -44
l33 29q17 -11 36 -16.5t41 -5.5q23 0 44.5 6t40.5 17q7 -7 13.5 -14.5t13.5 -14.5l50 44l-25 29q16 18 25.5 39t13.5 45q3 23 -0.5 43.5t-12.5 38.5l30 26l-39 45l-32 -28q-16 12 -36 19t-43 7t-44.5 -7t-41.5 -19l-24 28l-51 -44l12 -14l12 -14q-15 -18 -24 -38t-12 -43z
" />
    <glyph glyph-name="exclam" unicode="!" horiz-adv-x="201" 
d="M48 10q18 0 31.5 12.5t15.5 31.5q3 19 -8 31t-27 12t-31.5 -12t-17.5 -31q-2 -18 7.5 -31t29.5 -13zM120 750l-82 -584h63l82 584h-63z" />
    <glyph glyph-name="exclamdown" unicode="&#xa1;" horiz-adv-x="200" 
d="M206 530q-16 0 -30.5 -12.5t-18.5 -31.5q-3 -19 9 -31t28 -12t30 12t17 31t-8 31.5t-27 12.5zM152 374l-82 -584h63l82 584h-63z" />
    <glyph glyph-name="question" unicode="?" horiz-adv-x="452" 
d="M121 565q10 24 24.5 43.5t33.5 32.5q19 14 43 21.5t54 7.5q29 0 52 -9.5t37 -28.5q15 -18 21 -42.5t3 -52.5q-5 -37 -26 -69t-59 -59q-26 -19 -50 -33t-42 -29q-20 -15 -34 -34.5t-18 -51.5l-14 -97h64l11 78q4 29 15 47.5t27 31.5q15 13 33 23.5t34 21.5q51 33 83 74.5
t40 96.5q6 40 -4.5 75.5t-32.5 61.5q-23 27 -57 42.5t-75 15.5q-45 0 -80.5 -14.5t-62.5 -35.5q-26 -21 -44 -47t-30 -50q13 -5 27 -10t27 -10zM156 7q16 0 30.5 12t17.5 31t-8.5 31t-27.5 12t-31 -12t-18 -31t9 -31t28 -12z" />
    <glyph glyph-name="questiondown" unicode="&#xbf;" horiz-adv-x="440" 
d="M341.015 -25.9307q-9.99902 -23.9971 -24.4971 -43.4951t-33.4961 -32.4961q-18.9971 -13.998 -42.9941 -21.4971t-53.9941 -7.49902q-28.9961 0 -51.9932 9.49902q-22.9971 9.49805 -36.9951 28.4961q-14.998 17.998 -20.998 42.4951q-5.99902 24.4971 -2.99902 52.4932
q4.99902 36.9951 25.9961 68.9912q20.998 31.9961 58.9932 58.9932q25.9971 18.998 49.9941 32.9961t41.9941 28.9961q19.998 14.999 33.9961 34.4961q13.998 19.498 17.998 51.4941l13.998 96.9873h-63.9922l-10.998 -77.9902q-4 -28.9961 -14.998 -47.4941
q-10.999 -18.498 -26.9971 -31.4961q-14.998 -12.998 -32.9961 -23.4971t-33.9961 -21.4971q-50.9932 -32.9961 -82.9893 -74.4912t-39.9951 -96.4883q-6 -39.9951 4.49902 -75.4902q10.499 -35.4961 32.4961 -61.4932q22.9971 -26.9961 56.9932 -42.4941t74.9912 -15.498
q44.9941 0 80.4893 14.498q35.4961 14.498 62.4932 35.4951q25.9961 20.998 43.9941 46.9941q17.998 25.9971 29.9961 49.9941q-12.998 4.99902 -26.9961 9.99902q-13.998 4.99902 -26.9971 9.99902zM306.02 532.001q-15.998 0 -30.4971 -11.999
q-14.498 -11.998 -17.4971 -30.9961q-3 -18.9971 8.49805 -30.9961q11.499 -11.998 27.4971 -11.998t30.9961 11.998q14.998 11.999 17.998 30.9961q2.99902 18.998 -8.99902 30.9961q-11.998 11.999 -27.9961 11.999z" />
    <glyph glyph-name="comma" unicode="," horiz-adv-x="200" 
d="M167 86h-67q-27 -52 -53 -103t-52 -103h57q29 52 57.5 103t57.5 103z" />
    <glyph glyph-name="period" unicode="." horiz-adv-x="163" 
d="M42 43q-3 -19 8.5 -31t28.5 -12q16 0 30.5 12t17.5 31q3 18 -8.5 30.5t-27.5 12.5q-17 0 -31.5 -12.5t-17.5 -30.5z" />
    <glyph glyph-name="colon" unicode=":" horiz-adv-x="175" 
d="M59 293q-2 -19 9.5 -31t27.5 -12t31 12t17 31q3 18 -8.5 30.5t-27.5 12.5q-17 0 -31.5 -12.5t-17.5 -30.5zM24 43q-2 -19 9.5 -31t27.5 -12t30.5 12t17.5 31q2 18 -9 30.5t-27 12.5q-17 0 -31.5 -12.5t-17.5 -30.5z" />
    <glyph glyph-name="semicolon" unicode=";" horiz-adv-x="201" 
d="M96 293q-2 -19 9.5 -31t27.5 -12t30.5 12t17.5 31q3 18 -8.5 30.5t-27.5 12.5t-31 -12.5t-18 -30.5zM135 86h-67q-27 -52 -52.5 -103t-52.5 -103h57q29 52 57.5 103t57.5 103z" />
    <glyph glyph-name="periodcentered" unicode="&#xb7;" horiz-adv-x="167" 
d="M43 281q-3 -18 8.5 -30t27.5 -12t31 12t17 30q3 19 -8.5 31.5t-26.5 12.5q-17 0 -31.5 -12.5t-17.5 -31.5z" />
    <glyph glyph-name="bullet" unicode="&#x2022;" horiz-adv-x="479" 
d="M145 300q-3 -24 3 -43.5t19 -34.5q12 -14 31 -22t41 -8q23 0 44 8t38 22q17 15 28 35t15 43q3 23 -3 42.5t-18 35.5q-13 15 -31.5 23.5t-42.5 8.5q-22 0 -43.5 -8.5t-37.5 -23.5q-17 -15 -28 -35t-15 -43z" />
    <glyph glyph-name="underscore" unicode="_" horiz-adv-x="600" 
d="M495 0l9 62h-400l-9 -62h400z" />
    <glyph glyph-name="hyphen" unicode="-" horiz-adv-x="300" 
d="M48 158h184l9 61h-184z" />
    <glyph glyph-name="hyphen" unicode="&#xad;" horiz-adv-x="300" 
d="M48 158h184l9 61h-184z" />
    <glyph glyph-name="hyphen" unicode="&#xad;" horiz-adv-x="300" 
d="M48 158h184l9 61h-184z" />
    <glyph glyph-name="endash" unicode="&#x2013;" horiz-adv-x="509" 
d="M100 175h301l8 62h-301z" />
    <glyph glyph-name="emdash" unicode="&#x2014;" horiz-adv-x="700" 
d="M99 175h502l8 62h-502z" />
    <glyph glyph-name="quotesingle" unicode="'" horiz-adv-x="158" 
d="M31 472h61q10 63 19.5 124t19.5 124h-65z" />
    <glyph glyph-name="quotedbl" unicode="&#x22;" horiz-adv-x="323" 
d="M178 472h60q10 63 19.5 124t19.5 124h-64zM45 472h60q10 63 19.5 124t19.5 124h-64z" />
    <glyph glyph-name="quoteleft" unicode="&#x2018;" horiz-adv-x="164" 
d="M112 590q-18 20 -23.5 49.5t6.5 64.5q-11 2 -21 3.5t-21 3.5q-14 -41 -6.5 -78.5t31.5 -64.5q9 5 17 10.5t17 11.5z" />
    <glyph glyph-name="quoteright" unicode="&#x2019;" horiz-adv-x="164" 
d="M73 568q32 27 49 64.5t15 78.5q-11 -2 -22 -3.5t-21 -3.5q2 -35 -11.5 -64.5t-37.5 -49.5q7 -6 13.5 -11.5t14.5 -10.5z" />
    <glyph glyph-name="quotesinglbase" unicode="&#x201a;" horiz-adv-x="146" 
d="M50 -51q32 27 49.5 64.5t14.5 78.5q-10 -2 -21 -3.5t-22 -3.5q2 -35 -11.5 -64.5t-37.5 -49.5q7 -6 13.5 -11.5t14.5 -10.5z" />
    <glyph glyph-name="quotedblleft" unicode="&#x201c;" horiz-adv-x="249" 
d="M213 590q-18 20 -23.5 49.5t6.5 64.5q-11 2 -21 3.5t-20 3.5q-14 -41 -7 -78.5t32 -64.5q8 5 16.5 10.5t16.5 11.5zM109 590q-18 20 -23.5 49.5t6.5 64.5q-11 2 -21 3.5t-20 3.5q-14 -41 -7 -78.5t32 -64.5q8 5 16.5 10.5t16.5 11.5z" />
    <glyph glyph-name="quotedblright" unicode="&#x201d;" horiz-adv-x="248" 
d="M51 568q32 27 49.5 64.5t15.5 78.5q-11 -2 -22 -3.5t-22 -3.5q2 -35 -11.5 -64.5t-37.5 -49.5q8 -6 14.5 -11.5t13.5 -10.5zM155 568q32 27 49.5 64.5t15.5 78.5q-11 -2 -22 -3.5t-22 -3.5q2 -35 -11.5 -64.5t-37.5 -49.5q8 -6 14.5 -11.5t13.5 -10.5z" />
    <glyph glyph-name="quotedblbase" unicode="&#x201e;" horiz-adv-x="310" 
d="M50 -51q32 27 49.5 64.5t14.5 78.5q-10 -2 -21 -3.5t-22 -3.5q2 -35 -11.5 -64.5t-37.5 -49.5q7 -6 13.5 -11.5t14.5 -10.5zM154 -51q32 27 49.5 64.5t14.5 78.5q-10 -2 -21 -3.5t-22 -3.5q2 -35 -11.5 -64.5t-37.5 -49.5q7 -6 13.5 -11.5t14.5 -10.5z" />
    <glyph glyph-name="parenleft" unicode="(" horiz-adv-x="415" 
d="M124 291q-11 -75 -6.5 -143t19.5 -126t38 -105.5t50 -80.5l56 23q-24 33 -45.5 78t-35.5 100t-18 119t6 135t32 135t52 119q29 55 63 100t67 78l-50 23q-36 -33 -72 -80.5t-67 -105.5q-32 -58 -55.5 -126t-33.5 -143z" />
    <glyph glyph-name="parenright" unicode=")" horiz-adv-x="400" 
d="M302 289q10 75 5.5 143t-19.5 126t-38 105.5t-50 80.5l-55 -24q24 -33 45.5 -78t35.5 -100t18 -119t-6 -135t-32.5 -135t-50.5 -119q-30 -55 -64 -100t-67 -78l49 -22q36 33 72 80.5t68 105.5q31 58 54.5 126t34.5 143z" />
    <glyph glyph-name="bracketleft" unicode="[" horiz-adv-x="338" 
d="M20 -149h184l8 62h-120l108 771h120l9 62h-184z" />
    <glyph glyph-name="bracketright" unicode="]" horiz-adv-x="342" 
d="M313 746h-184l-8 -62h120l-108 -771h-120l-8 -62h183z" />
    <glyph glyph-name="braceleft" unicode="{" horiz-adv-x="306" 
d="M88 265q22 -1 35.5 -13t19.5 -30q8 -20 8 -45.5t-3 -46.5l-21 -150q-7 -54 -1.5 -80t20.5 -36q13 -10 32 -11.5t40 -1.5h55l9 62h-47q-14 0 -23 3.5t-14 13.5q-6 11 -6 33t5 55l19 136q5 37 2 62t-11 42q-8 15 -17.5 24.5t-18.5 15.5q12 7 25 17t25 27t21.5 41.5
t14.5 60.5l19 135q4 34 10 55t15 33q7 10 17.5 13.5t24.5 3.5h48l8 62h-55q-22 0 -42 -1t-36 -12q-17 -10 -29 -34.5t-18 -70.5l-23 -164q-3 -20 -9.5 -43.5t-17.5 -43.5q-12 -20 -29.5 -33.5t-41.5 -14.5z" />
    <glyph glyph-name="braceright" unicode="}" horiz-adv-x="320" 
d="M358 329q-23 1 -36 13.5t-19 30.5q-9 22 -8 51t4 51l22 153q6 48 0 72.5t-21 34.5q-13 9 -32 10t-40 1h-55l-9 -62h48q14 0 23.5 -4t14.5 -14q4 -13 3.5 -33.5t-4.5 -53.5l-19 -135q-5 -39 -1.5 -64.5t11.5 -41.5q7 -15 16.5 -24.5t18.5 -15.5q-10 -5 -23 -15.5
t-25 -26.5q-12 -15 -22 -38t-14 -54l-21 -146q-5 -32 -10.5 -53.5t-12.5 -33.5q-8 -10 -18.5 -14t-24.5 -4h-48l-9 -62h55q22 0 42 1t36 12q17 10 29.5 34t18.5 71l21 151q3 19 9 43.5t17 46.5q12 23 29.5 38.5t43.5 16.5z" />
    <glyph glyph-name="guilsinglleft" unicode="&#x2039;" horiz-adv-x="392" 
d="M288 77l10 72q-19 23 -38 45t-37 45q25 23 49.5 44.5t50.5 44.5l10 72q-49 -41 -97 -80.5t-97 -80.5z" />
    <glyph glyph-name="guilsinglright" unicode="&#x203a;" horiz-adv-x="392" 
d="M127 149l-10 -72l193 162q-37 41 -74 80.5t-74 80.5l-10 -72q19 -23 37.5 -44.5t36.5 -44.5q-25 -23 -49.5 -45t-49.5 -45z" />
    <glyph glyph-name="plus" unicode="+" 
d="M208 51h64l21 149h148l9 62h-148l21 149h-64l-21 -149h-148l-9 -62h149z" />
    <glyph glyph-name="plusminus" unicode="&#xb1;" horiz-adv-x="524" 
d="M248 211h63l22 149h148l8 62h-148l21 149h-63l-22 -149h-148l-8 -62h148zM446 110l8 62h-360l-8 -62h360z" />
    <glyph glyph-name="multiply" unicode="&#xd7;" horiz-adv-x="500" 
d="M370 0l51 45q-23 27 -45.5 53t-45.5 53l60 52t59 52q-9 11 -18 22.5t-19 21.5q-30 -27 -59.5 -52.5t-59.5 -52.5l-91 106l-52 -45l91 -106q-30 -26 -59.5 -52t-59.5 -53q9 -10 18.5 -21.5t19.5 -21.5q29 26 59 52t59 52l46 -52t46 -53z" />
    <glyph glyph-name="divide" unicode="&#xf7;" horiz-adv-x="501" 
d="M428 207l8 62h-360l-8 -62h360zM225 364q-2 -19 9.5 -31t27.5 -12t31 12t17 31q3 18 -8.5 30.5t-27.5 12.5q-17 0 -31.5 -12.5t-17.5 -30.5zM190 114q-2 -19 9.5 -31t27.5 -12t30.5 12t17.5 31q2 18 -9 30.5t-27 12.5q-17 0 -31.5 -12.5t-17.5 -30.5z" />
    <glyph glyph-name="equal" unicode="=" horiz-adv-x="708" 
d="M597 185h-506l-10 -62h506zM624 379h-506l-10 -62h506z" />
    <glyph glyph-name="less" unicode="&#x3c;" horiz-adv-x="680" 
d="M529 71q-67 42 -133.5 83.5t-133.5 83.5q79 42 157 83.5t157 83.5l12 85q-119 -63 -236.5 -126t-235.5 -126q101 -63 200.5 -126.5t200.5 -125.5z" />
    <glyph glyph-name="greater" unicode="&#x3e;" horiz-adv-x="650" 
d="M80 -14l236 126t237 126q-102 63 -202 126.5t-200 125.5l-12 -85q67 -42 133.5 -83.5t133.5 -83.5q-79 -42 -157.5 -83.5t-156.5 -83.5z" />
    <glyph glyph-name="logicalnot" unicode="&#xac;" horiz-adv-x="559" 
d="M396 148h64l14 98h-360l-7 -47h296z" />
    <glyph glyph-name="slash" unicode="/" horiz-adv-x="363" 
d="M-36 -19h63q97 190 192.5 377.5t192.5 377.5h-64q-97 -190 -192 -377.5t-192 -377.5z" />
    <glyph glyph-name="backslash" unicode="\" horiz-adv-x="366" 
d="M129 736h-71q43 -190 85.5 -377.5t85.5 -377.5h71q-43 190 -85.5 377.5t-85.5 377.5z" />
    <glyph glyph-name="percent" unicode="%" horiz-adv-x="726" 
d="M443 112q2 12 8 23t14 19q9 8 20.5 12.5t24.5 4.5t23.5 -5t17.5 -13q6 -7 9 -18t1 -24t-8 -24t-15 -19t-20 -12.5t-24 -4.5q-11 0 -20.5 4t-16.5 10q-8 7 -12 19.5t-2 27.5zM485 -10q25 0 48.5 9.5t42.5 25.5t32 38.5t17 48.5q3 24 -3.5 46.5t-20.5 38.5q-15 16 -36 25.5
t-46 9.5t-49 -9.5t-42 -25.5q-19 -16 -32 -38.5t-17 -46.5q-3 -26 3.5 -48.5t20.5 -37.5q15 -17 36 -26.5t46 -9.5zM178 389q2 12 8 23t14 19q9 9 20.5 13t24.5 4q12 0 22.5 -4.5t17.5 -12.5t10 -18.5t1 -23.5t-7.5 -24t-14.5 -19t-20.5 -12.5t-24.5 -4.5q-12 0 -21.5 4
t-16.5 11q-8 8 -11.5 19.5t-1.5 25.5zM220 267q25 0 48.5 9.5t42.5 26.5q19 16 32 38t17 48q3 25 -3.5 47t-20.5 39q-15 15 -36 25t-46 10t-49 -9.5t-42 -25.5q-19 -17 -32 -39t-17 -47q-3 -26 3.5 -48t20.5 -38q15 -17 36 -26.5t46 -9.5zM148 0h69q93 126 184.5 250
t184.5 250h-69q-93 -126 -184.5 -250t-184.5 -250z" />
    <glyph glyph-name="bar" unicode="|" horiz-adv-x="256" 
d="M93 -232h64l130 932h-64z" />
    <glyph glyph-name="brokenbar" unicode="&#xa6;" horiz-adv-x="215" 
d="M142 -233l49 350h-63l-49 -350h63zM223 350l50 350h-63l-50 -350h63z" />
    <glyph glyph-name="copyright" unicode="&#xa9;" horiz-adv-x="793" 
d="M403 143q-47 0 -86 17.5t-66 48.5q-27 30 -39 72t-5 91q7 50 31 91.5t59 72.5t79.5 48.5t91.5 17.5q48 0 87.5 -17.5t65.5 -47.5q26 -31 38 -73t5 -92q-7 -49 -30.5 -91t-58.5 -72q-36 -31 -80 -48.5t-92 -17.5zM400 113q54 0 104 19.5t90 54.5t67 82t35 103t-5.5 104
t-43.5 83q-31 34 -76 53.5t-99 19.5t-104 -19.5t-90 -53.5q-41 -35 -68 -83t-35 -104t6 -103t45 -82t75.5 -54.5t98.5 -19.5zM509 464h27l7 51q-17 11 -37 16.5t-43 5.5q-33 0 -64.5 -12.5t-55.5 -34.5q-25 -22 -42 -51.5t-22 -63.5q-5 -33 4 -62.5t28 -51.5q18 -22 46 -35
t61 -13q23 0 44.5 6t41.5 17l-13 23q-16 -9 -33.5 -13.5t-35.5 -4.5q-28 0 -50.5 10.5t-37.5 28.5q-16 18 -23 42.5t-3 52.5q4 27 17.5 52t34.5 44q21 18 46.5 28.5t52.5 10.5q15 0 28.5 -3t26.5 -9z" />
    <glyph glyph-name="registered" unicode="&#xae;" horiz-adv-x="801" 
d="M404 143q-48 0 -87 17.5t-66 48.5q-27 30 -39 72t-5 91q7 50 31 92t59 72q35 31 79 48.5t92 17.5t87.5 -17.5t65.5 -48.5q26 -30 38 -72t5 -92q-7 -49 -30.5 -91t-58.5 -72q-36 -31 -80 -48.5t-91 -17.5zM400 113q54 0 104 19.5t91 54.5q39 35 66 82t35 103t-5.5 104
t-43.5 83q-31 34 -76 53.5t-99 19.5t-104 -19.5t-90 -53.5q-41 -35 -68 -83t-35 -104t6 -103t45 -82t75.5 -54.5t98.5 -19.5zM314 238l-4 -28h105l4 28h-51l18 124h29h11h10l51 -152h61l4 28h-43l-41 126q35 8 57 30.5t25 58.5q3 23 -5.5 40t-22.5 28q-14 10 -32.5 15
t-33.5 5h-100l-4 -28h25l-39 -275h-24zM390 390l17 123h45q33 0 52.5 -18t16.5 -42q-2 -13 -7 -23t-15 -19t-25.5 -15t-38.5 -6h-45z" />
    <glyph glyph-name="degree" unicode="&#xb0;" horiz-adv-x="282" 
d="M143 507q-21 0 -34.5 15.5t-10.5 36.5q3 22 20.5 37.5t39.5 15.5q21 0 34.5 -15.5t10.5 -37.5q-3 -21 -20.5 -36.5t-39.5 -15.5zM56 560q-6 -39 18 -66t64 -27q20 0 37.5 7t31.5 19q15 12 24.5 29.5t12.5 36.5q5 40 -18 67t-62 27q-19 0 -37.5 -7t-33.5 -19
q-15 -13 -24.5 -30t-12.5 -37z" />
    <glyph glyph-name="asterisk" unicode="*" horiz-adv-x="335" 
d="M229 575q22 11 43 22.5t42 22.5q-5 13 -10.5 26.5t-11.5 26.5l-85 -44l15 91h-65l-14 -91q-17 11 -34.5 22.5t-36.5 22.5l-36 -53q17 -11 34 -22.5t34 -22.5q-21 -10 -41 -21t-40 -21q6 -15 11.5 -28.5t12.5 -28.5q20 11 40.5 21.5t40.5 22.5l-12 -87h61q3 21 6.5 43
t6.5 43q20 -13 35 -23t35 -22q10 14 20.5 28t19.5 28q-17 11 -35 22z" />
    <glyph glyph-name="numbersign" unicode="#" horiz-adv-x="571" 
d="M219 381h120q-7 -30 -15 -60t-16 -61h-120q8 31 15.5 61t15.5 60zM240 0h64q13 51 26 99.5t26 99.5h111l16 61h-111q8 31 15.5 61t15.5 60h113q3 16 7 31.5t7 30.5h-111l26 100t27 100h-64l-26 -100t-27 -100h-120l26 100t27 100h-64l-26 -100t-27 -100h-99
q-4 -15 -8 -30.5t-7 -31.5h98q-7 -30 -15 -60t-16 -61h-100l-15 -61h99q-13 -51 -26 -99.5t-26 -99.5h64q13 51 26 99.5t26 99.5h120q-13 -51 -26 -99.5t-26 -99.5z" />
    <glyph glyph-name="ampersand" unicode="&#x26;" horiz-adv-x="700" 
d="M438 375l-15 -111q-2 -12 -5 -21.5t-8 -20.5l-137 290q-10 20 -12.5 40.5t2.5 39.5q4 19 16.5 38.5t33.5 35.5q17 13 38 17.5t44 2.5q21 -3 40 -12t33 -19l32 50q-19 13 -44.5 25t-55.5 15q-32 4 -63 -3t-59 -27q-32 -22 -51.5 -50.5t-26.5 -58.5q-6 -27 -3 -55t15 -55
l55 -116q-36 -7 -69 -25t-58 -44q-27 -27 -43 -60.5t-19 -71.5q-5 -39 6.5 -73t34.5 -60q23 -25 56 -39.5t74 -14.5q48 0 91 20t75 54l41 -85l54 33l-55 113q8 16 13.5 34t8.5 36t5 34t4 29l7 53h99l8 62h-162zM141 181q3 31 17 58t37 45q20 17 45.5 26.5t54.5 10.5l92 -196
q-20 -32 -54 -52t-75 -20q-26 0 -47 8t-36 22q-19 18 -28 43t-6 55z" />
    <glyph glyph-name="at" unicode="@" horiz-adv-x="990" 
d="M350 188q4 28 18 52.5t35 43.5q21 18 47 28t55 10q28 0 50.5 -9.5t38.5 -25.5q17 -18 24 -43.5t3 -55.5q-4 -28 -17.5 -52.5t-34.5 -42.5q-21 -19 -47 -29.5t-55 -10.5q-27 0 -49 9t-37 25q-19 18 -27 44t-4 57zM902 188q13 86 -9.5 162t-70.5 132t-119 88.5t-156 32.5
q-86 0 -166.5 -32.5t-144.5 -88.5q-65 -56 -108 -131.5t-55 -161.5t10 -161.5t71 -131.5q48 -56 119 -88.5t157 -32.5q78 0 142.5 21.5t119.5 62.5q-8 11 -15.5 22t-16.5 23q-49 -31 -105 -49t-116 -18q-73 0 -133 27.5t-102 74.5q-41 48 -59.5 112t-8.5 137t47 137.5
t92 112.5q54 48 121.5 75.5t141.5 27.5q72 0 132 -27.5t101 -75.5t59.5 -112.5t7.5 -137.5q-6 -36 -19 -60.5t-30 -39.5q-17 -14 -37 -20.5t-42 -6.5h-44l45 314h-52q-4 -18 -7.5 -35t-6.5 -32q-11 27 -44 50.5t-88 23.5q-41 0 -79.5 -15.5t-69.5 -41.5q-31 -27 -51.5 -62.5
t-26.5 -75.5t5 -75.5t34 -62.5q23 -26 57.5 -41.5t75.5 -15.5q56 0 96 22t57 48l-2 -16l-2 -16l-5 -30h98q26 0 57 9t60 31q28 21 51.5 57t33.5 91z" />
    <glyph glyph-name="section" unicode="&#xa7;" horiz-adv-x="500" 
d="M241 346q1 11 4.5 21.5t10.5 19.5q7 13 18 22.5t25 13.5q13 5 26.5 4.5t26.5 -6.5q10 -6 17 -16t9 -22q3 -14 0 -27.5t-11 -26.5q-7 -11 -17.5 -19.5t-23.5 -13.5q-13 -4 -25.5 -4t-24.5 5q-15 5 -24 18t-11 31zM252 150q12 -26 17.5 -43.5t4.5 -28.5q0 -13 -7.5 -22
t-20.5 -16q-11 -7 -23 -13l-24 -12l26 -53q18 9 36.5 18.5t36.5 20.5q17 10 29 23t16 32q4 15 1 38t-17 53l-36 81q10 -1 20.5 -0.5t21.5 2.5q19 4 36 13t30 22q16 17 27.5 37t15.5 40q6 22 5 43.5t-10 40.5l-32.5 70t-33.5 73q-11 24 -15.5 41.5t-3.5 28.5q2 12 10 20.5
t21 16.5l22 12t23 12q-7 13 -13 26.5t-11 26.5q-18 -10 -37.5 -20t-37.5 -21q-17 -10 -29 -22.5t-16 -30.5q-5 -16 -1 -39t17 -54q8 -20 17 -40t18 -39q-10 2 -20 2t-21 -2q-19 -3 -35 -11.5t-30 -23.5q-17 -16 -28 -36.5t-16 -42.5q-7 -25 -3 -52.5t14 -49.5z" />
    <glyph glyph-name="paragraph" unicode="&#xb6;" horiz-adv-x="530" 
d="M264 0l97 696h100l-97 -696h143l7 54h-80l90 642h81l7 54h-306q-34 0 -65.5 -13t-56.5 -35t-42 -52t-22 -64t3.5 -64t27.5 -52t47 -34.5t62 -12.5l-59 -423h63z" />
    <glyph glyph-name="asciicircum" unicode="^" horiz-adv-x="470" 
d="M244 660q-36 -45 -72.5 -90.5t-72.5 -90.5h47q21 24 43 48t43 48q18 -28 30 -48t30 -48h47q-24 45 -47.5 90.5t-47.5 90.5z" />
    <glyph glyph-name="asciitilde" unicode="~" horiz-adv-x="489" 
d="M274 486q13 -16 30.5 -25t39.5 -9q16 0 32.5 5.5t30.5 17.5q13 10 23 25t13 33q-11 1 -17.5 1.5t-17.5 1.5q-4 -15 -11.5 -24.5t-16.5 -14.5q-10 -6 -19 -8t-17 -2q-14 0 -25 5.5t-24 21.5q-14 16 -30.5 25.5t-38.5 9.5q-15 0 -31 -5.5t-30 -16.5q-14 -10 -24.5 -25.5
t-14.5 -34.5q9 -1 17.5 -1.5t17.5 -1.5q3 12 9 20.5t13 13.5q10 9 21.5 12t20.5 3q14 0 24.5 -5.5t24.5 -21.5z" />
    <glyph glyph-name="Aacute" unicode="&#xc1;" horiz-adv-x="800" 
d="M486 750h47q39 41 62.5 66.5t62.5 66.5h-64q-27 -33 -54 -66.5t-54 -66.5zM43 60l-8 -60h208l8 60h-65l129 228h249q17 -57 33 -114l32 -114h-64l-8 -60h208l8 60h-80q-48 170 -95.5 336t-95.5 336q-95 -170 -189.5 -336t-189.5 -336h-80zM349 348q27 48 59 105t55 101
q4 7 6.5 11t12.5 27l5 -31l61 -213h-199z" />
    <glyph glyph-name="Acircumflex" unicode="&#xc2;" horiz-adv-x="800" 
d="M528 931q-36 -45 -72.5 -90.5t-72.5 -90.5h47q21 24 43 48t43 48q18 -28 30 -48t30 -48h47q-24 45 -47.5 90.5t-47.5 90.5zM43 60l-8 -60h208l8 60h-65l129 228h249q17 -57 33 -114l32 -114h-64l-8 -60h208l8 60h-80q-48 170 -95.5 336t-95.5 336q-95 -170 -189.5 -336
t-189.5 -336h-80zM349 348q27 48 59 105t55 101q4 7 6.5 11t12.5 27l5 -31l61 -213h-199z" />
    <glyph glyph-name="Adieresis" unicode="&#xc4;" horiz-adv-x="800" 
d="M545 804q-3 -18 8.5 -30.5t28.5 -12.5q16 0 30 12.5t18 30.5q2 19 -9.5 31.5t-27.5 12.5t-30.5 -12.5t-17.5 -31.5zM379 804q-3 -18 9 -30.5t28 -12.5t30.5 12.5t17.5 30.5q3 19 -9 31.5t-27 12.5q-17 0 -31.5 -12.5t-17.5 -31.5zM43 60l-8 -60h208l8 60h-65l129 228h249
q17 -57 33 -114l32 -114h-64l-8 -60h208l8 60h-80q-48 170 -95.5 336t-95.5 336q-95 -170 -189.5 -336t-189.5 -336h-80zM349 348q27 48 59 105t55 101q4 7 6.5 11t12.5 27l5 -31l61 -213h-199z" />
    <glyph glyph-name="Agrave" unicode="&#xc0;" horiz-adv-x="800" 
d="M43 60l-8 -60h208l8 60h-65l129 228h249q17 -57 33 -114l32 -114h-64l-8 -60h208l8 60h-80q-48 170 -95.5 336t-95.5 336q-95 -170 -189.5 -336t-189.5 -336h-80zM349 348q27 48 59 105t55 101q4 7 6.5 11t12.5 27l5 -31l61 -213h-199zM464 883h-62q19 -33 36.5 -66.5
t36.5 -66.5h47q-15 33 -28.5 66.5t-29.5 66.5z" />
    <glyph glyph-name="Aring" unicode="&#xc5;" horiz-adv-x="800" 
d="M43 60l-8 -60h208l8 60h-65l129 228h249q17 -57 33 -114l32 -114h-64l-8 -60h208l8 60h-80q-48 170 -95.5 336t-95.5 336q-95 -170 -189.5 -336t-189.5 -336h-80zM349 348q27 48 59 105t55 101q4 7 6.5 11t12.5 27l5 -31l61 -213h-199zM471 835q1 18 15 30.5t32 12.5
q17 0 28 -13t10 -30q-3 -17 -17 -29.5t-32 -12.5q-17 0 -28 12.5t-8 29.5zM430 835q-6 -35 15 -59t56 -24q36 0 62 24t33 59q5 35 -16 59t-56 24q-36 0 -62 -24t-32 -59z" />
    <glyph glyph-name="Atilde" unicode="&#xc3;" horiz-adv-x="800" 
d="M492 787q13 -16 30.5 -25t39.5 -9q16 0 32.5 5.5t30.5 17.5q13 10 23 25t13 33q-11 1 -17.5 1.5t-17.5 1.5q-4 -15 -11.5 -24.5t-16.5 -14.5q-10 -6 -19 -8t-17 -2q-14 0 -25 5.5t-24 21.5q-14 16 -30.5 25.5t-38.5 9.5q-15 0 -31 -5.5t-30 -16.5q-14 -10 -24.5 -25.5
t-14.5 -34.5q9 -1 17.5 -1.5t17.5 -1.5q3 12 9 20.5t13 13.5q10 9 21.5 12t20.5 3q14 0 24.5 -5.5t24.5 -21.5zM43 60l-8 -60h208l8 60h-65l129 228h249q17 -57 33 -114l32 -114h-64l-8 -60h208l8 60h-80q-48 170 -95.5 336t-95.5 336q-95 -170 -189.5 -336t-189.5 -336h-80
zM349 348q27 48 59 105t55 101q4 7 6.5 11t12.5 27l5 -31l61 -213h-199z" />
    <glyph glyph-name="Ccedilla" unicode="&#xc7;" horiz-adv-x="610" 
d="M612 450h60l29 208q-37 24 -81 37t-95 13q-74 0 -143 -28.5t-124 -77.5q-55 -48 -92.5 -113.5t-47.5 -139.5q-10 -70 6.5 -132.5t54.5 -110.5q37 -47 92 -76.5t124 -35.5l-4 -23q-2 -18 8 -28t23 -20q12 -9 21.5 -21.5t6.5 -34.5q-3 -14 -8 -25t-14 -19q-8 -9 -19 -13
t-24 -4q-22 0 -34.5 11.5t-15.5 28.5l-39 -18q7 -35 31.5 -52.5t56.5 -17.5q23 0 42.5 8t34.5 22q14 14 23.5 33t12.5 41t-3 41.5t-26 35.5q-10 8 -21 14.5t-13 24.5q-1 1 -0.5 5t1.5 9q47 1 91.5 14.5t87.5 35.5l-28 50q-37 -19 -75 -29.5t-79 -10.5q-60 0 -110 23.5
t-85 63.5q-34 40 -49.5 94.5t-6.5 115.5q8 61 38.5 115.5t77.5 94.5q45 42 101.5 65.5t117.5 23.5q33 0 62.5 -7t56.5 -22z" />
    <glyph glyph-name="Eacute" unicode="&#xc9;" horiz-adv-x="571" 
d="M43 60l-8 -60h501l21 154h-60l-13 -94h-314l36 263h321l10 60h-322l36 257h300l-13 -94h60l22 154h-487l-8 -60h63l-81 -580h-64zM400 750h47q39 41 62.5 66.5t62.5 66.5h-64q-27 -33 -54 -66.5t-54 -66.5z" />
    <glyph glyph-name="Ecircumflex" unicode="&#xca;" horiz-adv-x="571" 
d="M43 60l-8 -60h501l21 154h-60l-13 -94h-314l36 263h321l10 60h-322l36 257h300l-13 -94h60l22 154h-487l-8 -60h63l-81 -580h-64zM423 931q-36 -45 -72.5 -90.5t-72.5 -90.5h47q21 24 43 48t43 48q18 -28 30 -48t30 -48h47q-24 45 -47.5 90.5t-47.5 90.5z" />
    <glyph glyph-name="Edieresis" unicode="&#xcb;" horiz-adv-x="571" 
d="M43 60l-8 -60h501l21 154h-60l-13 -94h-314l36 263h321l10 60h-322l36 257h300l-13 -94h60l22 154h-487l-8 -60h63l-81 -580h-64zM440 804q-3 -18 8.5 -30.5t28.5 -12.5q16 0 30 12.5t18 30.5q2 19 -9.5 31.5t-27.5 12.5t-30.5 -12.5t-17.5 -31.5zM274 804
q-3 -18 9 -30.5t28 -12.5t30.5 12.5t17.5 30.5q3 19 -9 31.5t-27 12.5q-17 0 -31.5 -12.5t-17.5 -31.5z" />
    <glyph glyph-name="Egrave" unicode="&#xc8;" horiz-adv-x="571" 
d="M43 60l-8 -60h501l21 154h-60l-13 -94h-314l36 263h321l10 60h-322l36 257h300l-13 -94h60l22 154h-487l-8 -60h63l-81 -580h-64zM340 883h-62q19 -33 36.5 -66.5t36.5 -66.5h47q-15 33 -28.5 66.5t-29.5 66.5z" />
    <glyph glyph-name="Eth" unicode="&#xd0;" horiz-adv-x="632" 
d="M97 381l-9 -61h46l-36 -260h-55l-8 -60h176q106 0 184 32.5t131 83.5q53 50 82 112t38 121q11 81 -8 145.5t-60 110.5q-42 46 -102.5 70.5t-132.5 24.5h-210l-8 -60h54l-37 -259h-45zM242 640h87q62 0 112.5 -20.5t85.5 -57.5q35 -38 50.5 -92t5.5 -120
q-8 -61 -36.5 -113.5t-72.5 -91.5q-46 -39 -105 -62t-130 -23h-78l36 260h193l9 61h-194z" />
    <glyph glyph-name="Iacute" unicode="&#xcd;" horiz-adv-x="292" 
d="M43 60l-8 -60h222l8 60h-80l81 580h81l8 60h-222l-8 -60h78l-81 -580h-79zM229 750h47q39 41 62.5 66.5t62.5 66.5h-64q-27 -33 -54 -66.5t-54 -66.5z" />
    <glyph glyph-name="Icircumflex" unicode="&#xce;" horiz-adv-x="292" 
d="M43 60l-8 -60h222l8 60h-80l81 580h81l8 60h-222l-8 -60h78l-81 -580h-79zM278 931q-36 -45 -72.5 -90.5t-72.5 -90.5h47q21 24 43 48t43 48q18 -28 30 -48t30 -48h47q-24 45 -47.5 90.5t-47.5 90.5z" />
    <glyph glyph-name="Idieresis" unicode="&#xcf;" horiz-adv-x="292" 
d="M43 60l-8 -60h222l8 60h-80l81 580h81l8 60h-222l-8 -60h78l-81 -580h-79zM300 804q-3 -18 8.5 -30.5t28.5 -12.5q16 0 30 12.5t18 30.5q2 19 -9.5 31.5t-27.5 12.5t-30.5 -12.5t-17.5 -31.5zM134 804q-3 -18 9 -30.5t28 -12.5t30.5 12.5t17.5 30.5q3 19 -9 31.5
t-27 12.5q-17 0 -31.5 -12.5t-17.5 -31.5z" />
    <glyph glyph-name="Igrave" unicode="&#xcc;" horiz-adv-x="292" 
d="M43 60l-8 -60h222l8 60h-80l81 580h81l8 60h-222l-8 -60h78l-81 -580h-79zM204 883h-62q19 -33 36.5 -66.5t36.5 -66.5h47q-15 33 -28.5 66.5t-29.5 66.5z" />
    <glyph glyph-name="Ntilde" unicode="&#xd1;" horiz-adv-x="813" 
d="M730 -32l94 672h85l9 60h-223l-8 -60h74l-70 -500l-2 -32l-15 26l-425 566h-112l-8 -60h84l-82 -580h-84l-8 -60h222l9 60h-76l69 492l2 30l15 -24zM497 778q13 -16 30.5 -25t39.5 -9q16 0 32.5 5.5t30.5 17.5q13 10 23 25t13 33q-11 1 -17.5 1.5t-17.5 1.5
q-4 -15 -11.5 -24.5t-16.5 -14.5q-10 -6 -19 -8t-17 -2q-14 0 -25 5.5t-24 21.5q-14 16 -30.5 25.5t-38.5 9.5q-15 0 -31 -5.5t-30 -16.5q-14 -10 -24.5 -25.5t-14.5 -34.5q9 -1 17.5 -1.5t17.5 -1.5q3 12 9 20.5t13 13.5q10 9 21.5 12t20.5 3q14 0 24.5 -5.5t24.5 -21.5z
" />
    <glyph glyph-name="Oacute" unicode="&#xd3;" horiz-adv-x="786" 
d="M85 349q-11 -74 8 -139t61 -113q42 -49 103 -77t135 -28t143 28t125 77q55 48 92.5 113t48.5 139q10 74 -9.5 139t-61.5 114t-103 77.5t-135 28.5t-143 -28.5t-124 -77.5q-56 -49 -93 -114t-47 -139zM148 349q9 61 39.5 115.5t76.5 94.5q46 41 102.5 64.5t117.5 23.5
t111.5 -23.5t85.5 -64.5q34 -40 50 -94t7 -116t-40 -116t-76 -94q-46 -40 -103.5 -63.5t-118.5 -23.5t-111 23.5t-84 64.5q-34 40 -50 93.5t-7 115.5zM484 750h47q39 41 62.5 66.5t62.5 66.5h-64q-27 -33 -54 -66.5t-54 -66.5z" />
    <glyph glyph-name="Ocircumflex" unicode="&#xd4;" horiz-adv-x="786" 
d="M85 349q-11 -74 8 -139t61 -113q42 -49 103 -77t135 -28t143 28t125 77q55 48 92.5 113t48.5 139q10 74 -9.5 139t-61.5 114t-103 77.5t-135 28.5t-143 -28.5t-124 -77.5q-56 -49 -93 -114t-47 -139zM148 349q9 61 39.5 115.5t76.5 94.5q46 41 102.5 64.5t117.5 23.5
t111.5 -23.5t85.5 -64.5q34 -40 50 -94t7 -116t-40 -116t-76 -94q-46 -40 -103.5 -63.5t-118.5 -23.5t-111 23.5t-84 64.5q-34 40 -50 93.5t-7 115.5zM525 931q-36 -45 -72.5 -90.5t-72.5 -90.5h47q21 24 43 48t43 48q18 -28 30 -48t30 -48h47q-24 45 -47.5 90.5t-47.5 90.5
z" />
    <glyph glyph-name="Odieresis" unicode="&#xd6;" horiz-adv-x="786" 
d="M85 349q-11 -74 8 -139t61 -113q42 -49 103 -77t135 -28t143 28t125 77q55 48 92.5 113t48.5 139q10 74 -9.5 139t-61.5 114t-103 77.5t-135 28.5t-143 -28.5t-124 -77.5q-56 -49 -93 -114t-47 -139zM148 349q9 61 39.5 115.5t76.5 94.5q46 41 102.5 64.5t117.5 23.5
t111.5 -23.5t85.5 -64.5q34 -40 50 -94t7 -116t-40 -116t-76 -94q-46 -40 -103.5 -63.5t-118.5 -23.5t-111 23.5t-84 64.5q-34 40 -50 93.5t-7 115.5zM541 804q-3 -18 8.5 -30.5t28.5 -12.5q16 0 30 12.5t18 30.5q2 19 -9.5 31.5t-27.5 12.5t-30.5 -12.5t-17.5 -31.5z
M375 804q-3 -18 9 -30.5t28 -12.5t30.5 12.5t17.5 30.5q3 19 -9 31.5t-27 12.5q-17 0 -31.5 -12.5t-17.5 -31.5z" />
    <glyph glyph-name="Ograve" unicode="&#xd2;" horiz-adv-x="786" 
d="M85 349q-11 -74 8 -139t61 -113q42 -49 103 -77t135 -28t143 28t125 77q55 48 92.5 113t48.5 139q10 74 -9.5 139t-61.5 114t-103 77.5t-135 28.5t-143 -28.5t-124 -77.5q-56 -49 -93 -114t-47 -139zM148 349q9 61 39.5 115.5t76.5 94.5q46 41 102.5 64.5t117.5 23.5
t111.5 -23.5t85.5 -64.5q34 -40 50 -94t7 -116t-40 -116t-76 -94q-46 -40 -103.5 -63.5t-118.5 -23.5t-111 23.5t-84 64.5q-34 40 -50 93.5t-7 115.5zM453 883h-62q19 -33 36.5 -66.5t36.5 -66.5h47q-15 33 -28.5 66.5t-29.5 66.5z" />
    <glyph glyph-name="Oslash" unicode="&#xd8;" horiz-adv-x="786" 
d="M149 349q8 61 38.5 115.5t77.5 95.5q45 40 101.5 64t117.5 24q48 0 88 -14.5t73 -39.5q-136 -138 -222 -224.5t-223 -224.5q-32 40 -46 92t-5 112zM400 52q-48 0 -88.5 14.5t-72.5 40.5q112 113 222 224t222 224q33 -40 49 -93t7 -113q-9 -61 -40 -115.5t-77 -93.5
q-47 -41 -104 -64.5t-118 -23.5zM86 349q-11 -74 7.5 -138.5t59.5 -112.5q-18 -18 -36 -37t-36 -37q9 -10 18.5 -19.5t19.5 -18.5q18 18 36.5 37t36.5 37q40 -32 90.5 -50t110.5 -18q74 0 143.5 28t125.5 77q55 48 92 113t48 139q10 75 -9.5 140.5t-62.5 113.5l37 37l37 37
l-38 39l-74 -75q-40 31 -90.5 49t-108.5 18q-74 0 -143 -28.5t-124 -76.5q-55 -49 -92.5 -114.5t-47.5 -139.5z" />
    <glyph glyph-name="Otilde" unicode="&#xd5;" horiz-adv-x="786" 
d="M85 349q-11 -74 8 -139t61 -113q42 -49 103 -77t135 -28t143 28t125 77q55 48 92.5 113t48.5 139q10 74 -9.5 139t-61.5 114t-103 77.5t-135 28.5t-143 -28.5t-124 -77.5q-56 -49 -93 -114t-47 -139zM148 349q9 61 39.5 115.5t76.5 94.5q46 41 102.5 64.5t117.5 23.5
t111.5 -23.5t85.5 -64.5q34 -40 50 -94t7 -116t-40 -116t-76 -94q-46 -40 -103.5 -63.5t-118.5 -23.5t-111 23.5t-84 64.5q-34 40 -50 93.5t-7 115.5zM497 803q13 -16 30.5 -25t39.5 -9q16 0 32.5 5.5t30.5 17.5q13 10 23 25t13 33q-11 1 -17.5 1.5t-17.5 1.5
q-4 -15 -11.5 -24.5t-16.5 -14.5q-10 -6 -19 -8t-17 -2q-14 0 -25 5.5t-24 21.5q-14 16 -30.5 25.5t-38.5 9.5q-15 0 -31 -5.5t-30 -16.5q-14 -10 -24.5 -25.5t-14.5 -34.5q9 -1 17.5 -1.5t17.5 -1.5q3 12 9 20.5t13 13.5q10 9 21.5 12t20.5 3q14 0 24.5 -5.5t24.5 -21.5z
" />
    <glyph glyph-name="Uacute" unicode="&#xda;" horiz-adv-x="713" 
d="M134 700l-8 -60h77l-59 -414q-8 -57 4.5 -101t41.5 -73q29 -30 71.5 -45t94.5 -15t99 15t84 45q37 29 61.5 73t32.5 101l59 414h77l8 60h-222l-9 -60h83l-58 -411q-7 -43 -24.5 -76t-44.5 -55q-28 -23 -63 -34.5t-75 -11.5q-39 0 -70.5 11.5t-53.5 33.5q-21 22 -30 55.5
t-2 76.5l58 411h82l8 60h-222zM438 750h47q39 41 62.5 66.5t62.5 66.5h-64q-27 -33 -54 -66.5t-54 -66.5z" />
    <glyph glyph-name="Ucircumflex" unicode="&#xdb;" horiz-adv-x="713" 
d="M134 700l-8 -60h77l-59 -414q-8 -57 4.5 -101t41.5 -73q29 -30 71.5 -45t94.5 -15t99 15t84 45q37 29 61.5 73t32.5 101l59 414h77l8 60h-222l-9 -60h83l-58 -411q-7 -43 -24.5 -76t-44.5 -55q-28 -23 -63 -34.5t-75 -11.5q-39 0 -70.5 11.5t-53.5 33.5q-21 22 -30 55.5
t-2 76.5l58 411h82l8 60h-222zM489 932q-36 -45 -72.5 -90.5t-72.5 -90.5h47q21 24 43 48t43 48q18 -28 30 -48t30 -48h47q-24 45 -47.5 90.5t-47.5 90.5z" />
    <glyph glyph-name="Udieresis" unicode="&#xdc;" horiz-adv-x="713" 
d="M134 700l-8 -60h77l-59 -414q-8 -57 4.5 -101t41.5 -73q29 -30 71.5 -45t94.5 -15t99 15t84 45q37 29 61.5 73t32.5 101l59 414h77l8 60h-222l-9 -60h83l-58 -411q-7 -43 -24.5 -76t-44.5 -55q-28 -23 -63 -34.5t-75 -11.5q-39 0 -70.5 11.5t-53.5 33.5q-21 22 -30 55.5
t-2 76.5l58 411h82l8 60h-222zM511 804q-3 -18 8.5 -30.5t28.5 -12.5q16 0 30 12.5t18 30.5q2 19 -9.5 31.5t-27.5 12.5t-30.5 -12.5t-17.5 -31.5zM345 804q-3 -18 9 -30.5t28 -12.5t30.5 12.5t17.5 30.5q3 19 -9 31.5t-27 12.5q-17 0 -31.5 -12.5t-17.5 -31.5z" />
    <glyph glyph-name="Ugrave" unicode="&#xd9;" horiz-adv-x="713" 
d="M134 700l-8 -60h77l-59 -414q-8 -57 4.5 -101t41.5 -73q29 -30 71.5 -45t94.5 -15t99 15t84 45q37 29 61.5 73t32.5 101l59 414h77l8 60h-222l-9 -60h83l-58 -411q-7 -43 -24.5 -76t-44.5 -55q-28 -23 -63 -34.5t-75 -11.5q-39 0 -70.5 11.5t-53.5 33.5q-21 22 -30 55.5
t-2 76.5l58 411h82l8 60h-222zM428 883h-62q19 -33 36.5 -66.5t36.5 -66.5h47q-15 33 -28.5 66.5t-29.5 66.5z" />
    <glyph glyph-name="Yacute" unicode="&#xdd;" horiz-adv-x="768" 
d="M284 60l-8 -60h222l8 60h-75l29 207l136 186t137 187h90l8 60h-222l-8 -60h54l-210 -286l-15 -29h-1l-8 29q-32 72 -64.5 143t-65.5 143h56l8 60h-222l-8 -60h89l84 -186t85 -186l-29 -208h-70zM474 750h47q39 41 62.5 66.5t62.5 66.5h-64q-27 -33 -54 -66.5t-54 -66.5z
" />
    <glyph glyph-name="aacute" unicode="&#xe1;" 
d="M62 187q-6 -40 5 -75.5t34 -61.5q22 -27 56.5 -42.5t76.5 -15.5q33 0 61.5 9.5t49.5 24.5q16 9 26.5 19t14.5 17q-1 -8 -2.5 -15.5t-2.5 -16.5l-4 -30h131l9 60h-75l44 315h-52q-3 -17 -7 -33.5t-6 -33.5q-2 10 -12.5 24t-28.5 26q-17 11 -40 18.5t-51 7.5
q-42 0 -80.5 -16t-69.5 -43q-30 -26 -50.5 -62t-26.5 -76zM126 188q3 28 16.5 52.5t34.5 42.5q21 19 47 28.5t56 9.5q28 0 51.5 -9.5t39.5 -27.5t23 -43t3 -54q-4 -28 -17.5 -52t-34.5 -42q-21 -19 -47.5 -29.5t-55.5 -10.5q-27 0 -48.5 9t-36.5 24q-19 18 -27.5 44.5
t-3.5 57.5zM294 479h47q39 41 62.5 66.5t62.5 66.5h-64q-27 -33 -54 -66.5t-54 -66.5z" />
    <glyph glyph-name="acircumflex" unicode="&#xe2;" 
d="M62 187q-6 -40 5 -75.5t34 -61.5q22 -27 56.5 -42.5t76.5 -15.5q33 0 61.5 9.5t49.5 24.5q16 9 26.5 19t14.5 17q-1 -8 -2.5 -15.5t-2.5 -16.5l-4 -30h131l9 60h-75l44 315h-52q-3 -17 -7 -33.5t-6 -33.5q-2 10 -12.5 24t-28.5 26q-17 11 -40 18.5t-51 7.5
q-42 0 -80.5 -16t-69.5 -43q-30 -26 -50.5 -62t-26.5 -76zM126 188q3 28 16.5 52.5t34.5 42.5q21 19 47 28.5t56 9.5q28 0 51.5 -9.5t39.5 -27.5t23 -43t3 -54q-4 -28 -17.5 -52t-34.5 -42q-21 -19 -47.5 -29.5t-55.5 -10.5q-27 0 -48.5 9t-36.5 24q-19 18 -27.5 44.5
t-3.5 57.5zM347 660q-36 -45 -72.5 -90.5t-72.5 -90.5h47q21 24 43 48t43 48q18 -28 30 -48t30 -48h47q-24 45 -47.5 90.5t-47.5 90.5z" />
    <glyph glyph-name="adieresis" unicode="&#xe4;" 
d="M62 187q-6 -40 5 -75.5t34 -61.5q22 -27 56.5 -42.5t76.5 -15.5q33 0 61.5 9.5t49.5 24.5q16 9 26.5 19t14.5 17q-1 -8 -2.5 -15.5t-2.5 -16.5l-4 -30h131l9 60h-75l44 315h-52q-3 -17 -7 -33.5t-6 -33.5q-2 10 -12.5 24t-28.5 26q-17 11 -40 18.5t-51 7.5
q-42 0 -80.5 -16t-69.5 -43q-30 -26 -50.5 -62t-26.5 -76zM126 188q3 28 16.5 52.5t34.5 42.5q21 19 47 28.5t56 9.5q28 0 51.5 -9.5t39.5 -27.5t23 -43t3 -54q-4 -28 -17.5 -52t-34.5 -42q-21 -19 -47.5 -29.5t-55.5 -10.5q-27 0 -48.5 9t-36.5 24q-19 18 -27.5 44.5
t-3.5 57.5zM364 514q-3 -18 8.5 -30.5t28.5 -12.5q16 0 30 12.5t18 30.5q2 19 -9.5 31.5t-27.5 12.5t-30.5 -12.5t-17.5 -31.5zM198 514q-3 -18 9 -30.5t28 -12.5t30.5 12.5t17.5 30.5q3 19 -9 31.5t-27 12.5q-17 0 -31.5 -12.5t-17.5 -31.5z" />
    <glyph glyph-name="agrave" unicode="&#xe0;" 
d="M62 187q-6 -40 5 -75.5t34 -61.5q22 -27 56.5 -42.5t76.5 -15.5q33 0 61.5 9.5t49.5 24.5q16 9 26.5 19t14.5 17q-1 -8 -2.5 -15.5t-2.5 -16.5l-4 -30h131l9 60h-75l44 315h-52q-3 -17 -7 -33.5t-6 -33.5q-2 10 -12.5 24t-28.5 26q-17 11 -40 18.5t-51 7.5
q-42 0 -80.5 -16t-69.5 -43q-30 -26 -50.5 -62t-26.5 -76zM126 188q3 28 16.5 52.5t34.5 42.5q21 19 47 28.5t56 9.5q28 0 51.5 -9.5t39.5 -27.5t23 -43t3 -54q-4 -28 -17.5 -52t-34.5 -42q-21 -19 -47.5 -29.5t-55.5 -10.5q-27 0 -48.5 9t-36.5 24q-19 18 -27.5 44.5
t-3.5 57.5zM250 612h-62q19 -33 36.5 -66.5t36.5 -66.5h47q-15 33 -28.5 66.5t-29.5 66.5z" />
    <glyph glyph-name="aring" unicode="&#xe5;" 
d="M62 187q-6 -40 5 -75.5t34 -61.5q22 -27 56.5 -42.5t76.5 -15.5q33 0 61.5 9.5t49.5 24.5q16 9 26.5 19t14.5 17q-1 -8 -2.5 -15.5t-2.5 -16.5l-4 -30h131l9 60h-75l44 315h-52q-3 -17 -7 -33.5t-6 -33.5q-2 10 -12.5 24t-28.5 26q-17 11 -40 18.5t-51 7.5
q-42 0 -80.5 -16t-69.5 -43q-30 -26 -50.5 -62t-26.5 -76zM126 188q3 28 16.5 52.5t34.5 42.5q21 19 47 28.5t56 9.5q28 0 51.5 -9.5t39.5 -27.5t23 -43t3 -54q-4 -28 -17.5 -52t-34.5 -42q-21 -19 -47.5 -29.5t-55.5 -10.5q-27 0 -48.5 9t-36.5 24q-19 18 -27.5 44.5
t-3.5 57.5zM266 554q1 18 15 30.5t32 12.5q17 0 28 -13t10 -30q-3 -17 -17 -29.5t-32 -12.5q-17 0 -28 12.5t-8 29.5zM225 554q-6 -35 15 -59t56 -24q36 0 62 24t33 59q5 35 -16 59t-56 24q-36 0 -62 -24t-32 -59z" />
    <glyph glyph-name="atilde" unicode="&#xe3;" 
d="M62 187q-6 -40 5 -75.5t34 -61.5q22 -27 56.5 -42.5t76.5 -15.5q33 0 61.5 9.5t49.5 24.5q16 9 26.5 19t14.5 17q-1 -8 -2.5 -15.5t-2.5 -16.5l-4 -30h131l9 60h-75l44 315h-52q-3 -17 -7 -33.5t-6 -33.5q-2 10 -12.5 24t-28.5 26q-17 11 -40 18.5t-51 7.5
q-42 0 -80.5 -16t-69.5 -43q-30 -26 -50.5 -62t-26.5 -76zM126 188q3 28 16.5 52.5t34.5 42.5q21 19 47 28.5t56 9.5q28 0 51.5 -9.5t39.5 -27.5t23 -43t3 -54q-4 -28 -17.5 -52t-34.5 -42q-21 -19 -47.5 -29.5t-55.5 -10.5q-27 0 -48.5 9t-36.5 24q-19 18 -27.5 44.5
t-3.5 57.5zM290 486q13 -16 30.5 -25t39.5 -9q16 0 32.5 5.5t30.5 17.5q13 10 23 25t13 33q-11 1 -17.5 1.5t-17.5 1.5q-4 -15 -11.5 -24.5t-16.5 -14.5q-10 -6 -19 -8t-17 -2q-14 0 -25 5.5t-24 21.5q-14 16 -30.5 25.5t-38.5 9.5q-15 0 -31 -5.5t-30 -16.5
q-14 -10 -24.5 -25.5t-14.5 -34.5q9 -1 17.5 -1.5t17.5 -1.5q3 12 9 20.5t13 13.5q10 9 21.5 12t20.5 3q14 0 24.5 -5.5t24.5 -21.5z" />
    <glyph glyph-name="ccedilla" unicode="&#xe7;" horiz-adv-x="395" 
d="M321 83q-20 -15 -42.5 -22.5t-47.5 -7.5q-30 0 -53 10.5t-39 29.5q-15 18 -21.5 42.5t-2.5 52.5t17.5 52.5t34.5 42.5q21 19 47 29t55 10q18 0 34.5 -4.5t31.5 -13.5l-10 -71h57l15 108q-22 20 -52.5 31.5t-67.5 11.5q-41 0 -79 -15.5t-69 -42.5q-30 -26 -50.5 -62
t-26.5 -76q-5 -36 2.5 -68t25.5 -57q18 -26 45 -43t60 -23l-4 -26q-2 -18 8 -28t23 -20q11 -9 21 -21.5t7 -34.5q-2 -13 -7 -24t-13 -18q-8 -9 -19.5 -14t-24.5 -5q-12 0 -21 3.5t-15 9.5q-6 5 -9.5 12t-4.5 15l-40 -18q3 -18 11.5 -31.5t20.5 -21.5q11 -9 25.5 -13t30.5 -4
q19 0 36.5 6t32.5 17q17 14 28.5 35t15.5 46q3 22 -2.5 41.5t-25.5 35.5q-6 5 -14 9t-14 10q-4 5 -6 13t0 21q32 0 65 11t63 32z" />
    <glyph glyph-name="eacute" unicode="&#xe9;" horiz-adv-x="446" 
d="M279 322q29 0 51.5 -15.5t34.5 -41.5q-60 -21 -119.5 -43t-120.5 -44q2 29 14 55t33 46q20 19 47.5 31t59.5 12zM440 230q-5 33 -17.5 61t-30.5 48q-20 21 -46.5 33t-57.5 12q-42 0 -80 -15.5t-69 -41.5q-30 -27 -50.5 -63t-26.5 -76q-6 -41 5 -76.5t34 -62.5
q23 -26 57 -41.5t75 -15.5q39 0 73 14t63 39q-8 11 -16 22.5t-17 22.5q-19 -17 -43.5 -27t-51.5 -10q-38 0 -66.5 18t-40.5 48q77 28 153 55.5t153 55.5zM269 479h47q39 41 62.5 66.5t62.5 66.5h-64q-27 -33 -54 -66.5t-54 -66.5z" />
    <glyph glyph-name="ecircumflex" unicode="&#xea;" horiz-adv-x="446" 
d="M279 322q29 0 51.5 -15.5t34.5 -41.5q-60 -21 -119.5 -43t-120.5 -44q2 29 14 55t33 46q20 19 47.5 31t59.5 12zM440 230q-5 33 -17.5 61t-30.5 48q-20 21 -46.5 33t-57.5 12q-42 0 -80 -15.5t-69 -41.5q-30 -27 -50.5 -63t-26.5 -76q-6 -41 5 -76.5t34 -62.5
q23 -26 57 -41.5t75 -15.5q39 0 73 14t63 39q-8 11 -16 22.5t-17 22.5q-19 -17 -43.5 -27t-51.5 -10q-38 0 -66.5 18t-40.5 48q77 28 153 55.5t153 55.5zM327 660q-36 -45 -72.5 -90.5t-72.5 -90.5h47q21 24 43 48t43 48q18 -28 30 -48t30 -48h47q-24 45 -47.5 90.5
t-47.5 90.5z" />
    <glyph glyph-name="edieresis" unicode="&#xeb;" horiz-adv-x="446" 
d="M279 322q29 0 51.5 -15.5t34.5 -41.5q-60 -21 -119.5 -43t-120.5 -44q2 29 14 55t33 46q20 19 47.5 31t59.5 12zM440 230q-5 33 -17.5 61t-30.5 48q-20 21 -46.5 33t-57.5 12q-42 0 -80 -15.5t-69 -41.5q-30 -27 -50.5 -63t-26.5 -76q-6 -41 5 -76.5t34 -62.5
q23 -26 57 -41.5t75 -15.5q39 0 73 14t63 39q-8 11 -16 22.5t-17 22.5q-19 -17 -43.5 -27t-51.5 -10q-38 0 -66.5 18t-40.5 48q77 28 153 55.5t153 55.5zM317 514q-3 -18 8.5 -30.5t28.5 -12.5q16 0 30 12.5t18 30.5q2 19 -9.5 31.5t-27.5 12.5t-30.5 -12.5t-17.5 -31.5z
M151 514q-3 -18 9 -30.5t28 -12.5t30.5 12.5t17.5 30.5q3 19 -9 31.5t-27 12.5q-17 0 -31.5 -12.5t-17.5 -31.5z" />
    <glyph glyph-name="egrave" unicode="&#xe8;" horiz-adv-x="446" 
d="M279 322q29 0 51.5 -15.5t34.5 -41.5q-60 -21 -119.5 -43t-120.5 -44q2 29 14 55t33 46q20 19 47.5 31t59.5 12zM440 230q-5 33 -17.5 61t-30.5 48q-20 21 -46.5 33t-57.5 12q-42 0 -80 -15.5t-69 -41.5q-30 -27 -50.5 -63t-26.5 -76q-6 -41 5 -76.5t34 -62.5
q23 -26 57 -41.5t75 -15.5q39 0 73 14t63 39q-8 11 -16 22.5t-17 22.5q-19 -17 -43.5 -27t-51.5 -10q-38 0 -66.5 18t-40.5 48q77 28 153 55.5t153 55.5zM229 612h-62q19 -33 36.5 -66.5t36.5 -66.5h47q-15 33 -28.5 66.5t-29.5 66.5z" />
    <glyph glyph-name="iacute" unicode="&#xed;" horiz-adv-x="278" 
d="M43 60l-8 -60h208l8 60h-71l43 315h-136l-8 -60h73l-35 -255h-74zM161 479h47q39 41 62.5 66.5t62.5 66.5h-64q-27 -33 -54 -66.5t-54 -66.5z" />
    <glyph glyph-name="icircumflex" unicode="&#xee;" horiz-adv-x="278" 
d="M43 60l-8 -60h208l8 60h-71l43 315h-136l-8 -60h73l-35 -255h-74zM212 660q-36 -45 -72.5 -90.5t-72.5 -90.5h47q21 24 43 48t43 48q18 -28 30 -48t30 -48h47q-24 45 -47.5 90.5t-47.5 90.5z" />
    <glyph glyph-name="idieresis" unicode="&#xef;" horiz-adv-x="278" 
d="M43 60l-8 -60h208l8 60h-71l43 315h-136l-8 -60h73l-35 -255h-74zM232 514q-3 -18 8.5 -30.5t28.5 -12.5q16 0 30 12.5t18 30.5q2 19 -9.5 31.5t-27.5 12.5t-30.5 -12.5t-17.5 -31.5zM66 514q-3 -18 9 -30.5t28 -12.5t30.5 12.5t17.5 30.5q3 19 -9 31.5t-27 12.5
q-17 0 -31.5 -12.5t-17.5 -31.5z" />
    <glyph glyph-name="igrave" unicode="&#xec;" horiz-adv-x="278" 
d="M43 60l-8 -60h208l8 60h-71l43 315h-136l-8 -60h73l-35 -255h-74zM150 612h-62q19 -33 36.5 -66.5t36.5 -66.5h47q-15 33 -28.5 66.5t-29.5 66.5z" />
    <glyph glyph-name="ntilde" unicode="&#xf1;" horiz-adv-x="563" 
d="M328 60l-8 -60h208l8 60h-67l29 211q6 50 -23 81t-87 31q-54 0 -102 -28.5t-75 -76.5q2 21 2.5 37.5t2.5 37.5l2 22h-123l-8 -60h68l-35 -255h-77l-8 -60h208l8 60h-68l18 133q5 28 20 51.5t36 40.5q22 17 49 26.5t55 9.5q40 -2 56.5 -23.5t13.5 -51.5l-25 -186h-78z
M351 479q13 -16 30.5 -25t39.5 -9q16 0 32.5 5.5t30.5 17.5q13 10 23 25t13 33q-11 1 -17.5 1.5t-17.5 1.5q-4 -15 -11.5 -24.5t-16.5 -14.5q-10 -6 -19 -8t-17 -2q-14 0 -25 5.5t-24 21.5q-14 16 -30.5 25.5t-38.5 9.5q-15 0 -31 -5.5t-30 -16.5q-14 -10 -24.5 -25.5
t-14.5 -34.5q9 -1 17.5 -1.5t17.5 -1.5q3 12 9 20.5t13 13.5q10 9 21.5 12t20.5 3q14 0 24.5 -5.5t24.5 -21.5z" />
    <glyph glyph-name="oacute" unicode="&#xf3;" horiz-adv-x="468" 
d="M62 188q-6 -41 5 -76.5t35 -61.5q22 -27 56 -42.5t76 -15.5q41 0 79.5 15.5t69.5 42.5q30 26 50.5 61.5t26.5 76.5q6 40 -4.5 76t-33.5 63q-23 26 -57.5 41.5t-75.5 15.5q-42 0 -80 -15.5t-69 -41.5q-31 -27 -51.5 -63t-26.5 -76zM125 187q4 28 18 52.5t35 43.5
q20 18 46 28.5t54 10.5t51 -10.5t39 -28.5q16 -19 23 -43.5t3 -51.5q-4 -29 -18 -53t-35 -42q-20 -19 -46.5 -29.5t-54.5 -10.5t-50.5 10.5t-38.5 29.5q-16 18 -22.5 42t-3.5 52zM300 479h47q39 41 62.5 66.5t62.5 66.5h-64q-27 -33 -54 -66.5t-54 -66.5z" />
    <glyph glyph-name="ocircumflex" unicode="&#xf4;" horiz-adv-x="468" 
d="M62 188q-6 -41 5 -76.5t35 -61.5q22 -27 56 -42.5t76 -15.5q41 0 79.5 15.5t69.5 42.5q30 26 50.5 61.5t26.5 76.5q6 40 -4.5 76t-33.5 63q-23 26 -57.5 41.5t-75.5 15.5q-42 0 -80 -15.5t-69 -41.5q-31 -27 -51.5 -63t-26.5 -76zM125 187q4 28 18 52.5t35 43.5
q20 18 46 28.5t54 10.5t51 -10.5t39 -28.5q16 -19 23 -43.5t3 -51.5q-4 -29 -18 -53t-35 -42q-20 -19 -46.5 -29.5t-54.5 -10.5t-50.5 10.5t-38.5 29.5q-16 18 -22.5 42t-3.5 52zM332 660q-36 -45 -72.5 -90.5t-72.5 -90.5h47q21 24 43 48t43 48q18 -28 30 -48t30 -48h47
q-24 45 -47.5 90.5t-47.5 90.5z" />
    <glyph glyph-name="odieresis" unicode="&#xf6;" horiz-adv-x="468" 
d="M62 188q-6 -41 5 -76.5t35 -61.5q22 -27 56 -42.5t76 -15.5q41 0 79.5 15.5t69.5 42.5q30 26 50.5 61.5t26.5 76.5q6 40 -4.5 76t-33.5 63q-23 26 -57.5 41.5t-75.5 15.5q-42 0 -80 -15.5t-69 -41.5q-31 -27 -51.5 -63t-26.5 -76zM125 187q4 28 18 52.5t35 43.5
q20 18 46 28.5t54 10.5t51 -10.5t39 -28.5q16 -19 23 -43.5t3 -51.5q-4 -29 -18 -53t-35 -42q-20 -19 -46.5 -29.5t-54.5 -10.5t-50.5 10.5t-38.5 29.5q-16 18 -22.5 42t-3.5 52zM341 514q-3 -18 8.5 -30.5t28.5 -12.5q16 0 30 12.5t18 30.5q2 19 -9.5 31.5t-27.5 12.5
t-30.5 -12.5t-17.5 -31.5zM175 514q-3 -18 9 -30.5t28 -12.5t30.5 12.5t17.5 30.5q3 19 -9 31.5t-27 12.5q-17 0 -31.5 -12.5t-17.5 -31.5z" />
    <glyph glyph-name="ograve" unicode="&#xf2;" horiz-adv-x="468" 
d="M62 188q-6 -41 5 -76.5t35 -61.5q22 -27 56 -42.5t76 -15.5q41 0 79.5 15.5t69.5 42.5q30 26 50.5 61.5t26.5 76.5q6 40 -4.5 76t-33.5 63q-23 26 -57.5 41.5t-75.5 15.5q-42 0 -80 -15.5t-69 -41.5q-31 -27 -51.5 -63t-26.5 -76zM125 187q4 28 18 52.5t35 43.5
q20 18 46 28.5t54 10.5t51 -10.5t39 -28.5q16 -19 23 -43.5t3 -51.5q-4 -29 -18 -53t-35 -42q-20 -19 -46.5 -29.5t-54.5 -10.5t-50.5 10.5t-38.5 29.5q-16 18 -22.5 42t-3.5 52zM253 612h-62q19 -33 36.5 -66.5t36.5 -66.5h47q-15 33 -28.5 66.5t-29.5 66.5z" />
    <glyph glyph-name="oslash" unicode="&#xf8;" horiz-adv-x="467" 
d="M127 188q4 28 17.5 52.5t34.5 43.5q21 18 47 28t55 10q17 0 32.5 -4t28.5 -11q-60 -61 -99.5 -101t-99.5 -100q-11 17 -15 38t-1 44zM243 53q-20 0 -38 6t-32 16q51 51 101 101.5t101 102.5q14 -18 20.5 -41t2.5 -50q-4 -28 -18 -52.5t-35 -42.5q-20 -19 -46.5 -29.5
t-55.5 -10.5zM64 188q-5 -38 3.5 -71t27.5 -59q-12 -13 -24.5 -25t-23.5 -24q7 -8 15 -15t16 -15q12 12 24 24.5t23 24.5q23 -17 50 -26.5t60 -9.5q41 0 80 15.5t69 42.5q31 26 51.5 61.5t26.5 76.5q5 40 -5.5 76t-34.5 62q12 12 20 19.5t19 19.5q-8 8 -15 15.5t-15 15.5
q-10 -11 -20.5 -21t-21.5 -20q-20 14 -45 21.5t-55 7.5q-41 0 -79 -15.5t-68 -41.5q-31 -27 -51.5 -63t-26.5 -76z" />
    <glyph glyph-name="otilde" unicode="&#xf5;" horiz-adv-x="468" 
d="M62 188q-6 -41 5 -76.5t35 -61.5q22 -27 56 -42.5t76 -15.5q41 0 79.5 15.5t69.5 42.5q30 26 50.5 61.5t26.5 76.5q6 40 -4.5 76t-33.5 63q-23 26 -57.5 41.5t-75.5 15.5q-42 0 -80 -15.5t-69 -41.5q-31 -27 -51.5 -63t-26.5 -76zM125 187q4 28 18 52.5t35 43.5
q20 18 46 28.5t54 10.5t51 -10.5t39 -28.5q16 -19 23 -43.5t3 -51.5q-4 -29 -18 -53t-35 -42q-20 -19 -46.5 -29.5t-54.5 -10.5t-50.5 10.5t-38.5 29.5q-16 18 -22.5 42t-3.5 52zM289 486q13 -16 30.5 -25t39.5 -9q16 0 32.5 5.5t30.5 17.5q13 10 23 25t13 33
q-11 1 -17.5 1.5t-17.5 1.5q-4 -15 -11.5 -24.5t-16.5 -14.5q-10 -6 -19 -8t-17 -2q-14 0 -25 5.5t-24 21.5q-14 16 -30.5 25.5t-38.5 9.5q-15 0 -31 -5.5t-30 -16.5q-14 -10 -24.5 -25.5t-14.5 -34.5q9 -1 17.5 -1.5t17.5 -1.5q3 12 9 20.5t13 13.5q10 9 21.5 12t20.5 3
q14 0 24.5 -5.5t24.5 -21.5z" />
    <glyph glyph-name="uacute" unicode="&#xfa;" horiz-adv-x="555" 
d="M394 0h127l7 54h-66l45 321h-133l-9 -60h70l-18 -133q-4 -28 -19 -51.5t-37 -40.5t-49 -26.5t-55 -9.5q-40 2 -56.5 23.5t-13.5 51.5l34 246h-133l-8 -60h69l-29 -211q-5 -50 24 -81t86 -31q55 0 103 28.5t75 76.5l-8 -45zM309 479h47q39 41 62.5 66.5t62.5 66.5h-64
q-27 -33 -54 -66.5t-54 -66.5z" />
    <glyph glyph-name="ucircumflex" unicode="&#xfb;" horiz-adv-x="555" 
d="M394 0h127l7 54h-66l45 321h-133l-9 -60h70l-18 -133q-4 -28 -19 -51.5t-37 -40.5t-49 -26.5t-55 -9.5q-40 2 -56.5 23.5t-13.5 51.5l34 246h-133l-8 -60h69l-29 -211q-5 -50 24 -81t86 -31q55 0 103 28.5t75 76.5l-8 -45zM352 660q-36 -45 -72.5 -90.5t-72.5 -90.5h47
q21 24 43 48t43 48q18 -28 30 -48t30 -48h47q-24 45 -47.5 90.5t-47.5 90.5z" />
    <glyph glyph-name="udieresis" unicode="&#xfc;" horiz-adv-x="555" 
d="M394 0h127l7 54h-66l45 321h-133l-9 -60h70l-18 -133q-4 -28 -19 -51.5t-37 -40.5t-49 -26.5t-55 -9.5q-40 2 -56.5 23.5t-13.5 51.5l34 246h-133l-8 -60h69l-29 -211q-5 -50 24 -81t86 -31q55 0 103 28.5t75 76.5l-8 -45zM385 514q-3 -18 8.5 -30.5t28.5 -12.5
q16 0 30 12.5t18 30.5q2 19 -9.5 31.5t-27.5 12.5t-30.5 -12.5t-17.5 -31.5zM219 514q-3 -18 9 -30.5t28 -12.5t30.5 12.5t17.5 30.5q3 19 -9 31.5t-27 12.5q-17 0 -31.5 -12.5t-17.5 -31.5z" />
    <glyph glyph-name="ugrave" unicode="&#xf9;" horiz-adv-x="555" 
d="M394 0h127l7 54h-66l45 321h-133l-9 -60h70l-18 -133q-4 -28 -19 -51.5t-37 -40.5t-49 -26.5t-55 -9.5q-40 2 -56.5 23.5t-13.5 51.5l34 246h-133l-8 -60h69l-29 -211q-5 -50 24 -81t86 -31q55 0 103 28.5t75 76.5l-8 -45zM271 612h-62q19 -33 36.5 -66.5t36.5 -66.5h47
q-15 33 -28.5 66.5t-29.5 66.5z" />
    <glyph glyph-name="yacute" unicode="&#xfd;" horiz-adv-x="609" 
d="M100 -190l-8 -60h208l8 60h-56q81 127 161.5 252.5t161.5 252.5h78l8 60h-203l-8 -60h60q-43 -65 -85 -130t-76 -128q-17 65 -41 129t-48 129h58l8 60h-204l-8 -60h80q29 -80 57.5 -158.5t57.5 -157.5q-31 -47 -61.5 -94t-60.5 -95h-87zM392 479h47q39 41 62.5 66.5
t62.5 66.5h-64q-27 -33 -54 -66.5t-54 -66.5z" />
    <glyph glyph-name="ydieresis" unicode="&#xff;" horiz-adv-x="609" 
d="M100 -190l-8 -60h208l8 60h-56q81 127 161.5 252.5t161.5 252.5h78l8 60h-203l-8 -60h60q-43 -65 -85 -130t-76 -128q-17 65 -41 129t-48 129h58l8 60h-204l-8 -60h80q29 -80 57.5 -158.5t57.5 -157.5q-31 -47 -61.5 -94t-60.5 -95h-87zM449 514q-3 -18 8.5 -30.5
t28.5 -12.5q16 0 30 12.5t18 30.5q2 19 -9.5 31.5t-27.5 12.5t-30.5 -12.5t-17.5 -31.5zM283 514q-3 -18 9 -30.5t28 -12.5t30.5 12.5t17.5 30.5q3 19 -9 31.5t-27 12.5q-17 0 -31.5 -12.5t-17.5 -31.5z" />
    <glyph glyph-name="grave" unicode="`" horiz-adv-x="200" 
d="M39 612h-62q19 -33 36.5 -66.5t36.5 -66.5h47q-15 33 -28.5 66.5t-29.5 66.5z" />
    <glyph glyph-name="acute" unicode="&#xb4;" horiz-adv-x="258" 
d="M100 479h47q39 41 62.5 66.5t62.5 66.5h-64q-27 -33 -54 -66.5t-54 -66.5z" />
    <glyph glyph-name="macron" unicode="&#xaf;" horiz-adv-x="399" 
d="M85 482h230l5 42h-230z" />
    <glyph glyph-name="dieresis" unicode="&#xa8;" horiz-adv-x="370" 
d="M230 514q-3 -18 8.5 -30.5t28.5 -12.5q16 0 30 12.5t18 30.5q2 19 -9.5 31.5t-27.5 12.5t-30.5 -12.5t-17.5 -31.5zM64 514q-3 -18 9 -30.5t28 -12.5t30.5 12.5t17.5 30.5q3 19 -9 31.5t-27 12.5q-17 0 -31.5 -12.5t-17.5 -31.5z" />
    <glyph glyph-name="ring" unicode="&#x2da;" horiz-adv-x="200" 
d="M136 561q1 18 15 30.5t32 12.5q17 0 28 -13t10 -30q-3 -17 -17 -29.5t-32 -12.5q-17 0 -28 12.5t-8 29.5zM95 561q-6 -35 15 -59t56 -24q36 0 62 24t33 59q5 35 -16 59t-56 24q-36 0 -62 -24t-32 -59z" />
    <glyph glyph-name="cedilla" unicode="&#xb8;" horiz-adv-x="452" 
d="M220 0l-4 -29q-2 -18 8 -28t23 -20q12 -9 21.5 -21.5t6.5 -34.5q-4 -26 -21.5 -43.5t-43.5 -17.5q-22 0 -34.5 11.5t-15.5 28.5q-10 -4 -19.5 -9t-19.5 -9q7 -35 31.5 -52.5t56.5 -17.5q24 0 43.5 8t34.5 23q14 14 23 33t12 40q3 22 -3 41.5t-26 35.5q-6 5 -12.5 8.5
t-11.5 9.5q-5 5 -8 14t-1 22l1 7h-41z" />
    <glyph glyph-name="guillemotright" unicode="&#xbb;" horiz-adv-x="601" 
d="M127 149l-10 -72l193 162q-37 41 -74 80.5t-74 80.5l-10 -72q19 -22 37.5 -44.5t36.5 -44.5q-25 -23 -49.5 -45t-49.5 -45zM298 149l-10 -72l193 162q-37 41 -74 80.5t-74 80.5l-10 -72q19 -23 37.5 -44.5t36.5 -44.5q-25 -23 -49.5 -45t-49.5 -45z" />
    <glyph glyph-name="nonmarkingreturn" unicode="&#xd;" horiz-adv-x="300" 
 />
    <glyph glyph-name="dotlessi" unicode="&#x131;" horiz-adv-x="278" 
d="M43 60l-8 -60h208l8 60h-71l43 315h-136l-8 -60h73l-35 -255h-74z" />
    <glyph glyph-name="guillemotleft" unicode="&#xab;" horiz-adv-x="601" 
d="M459 77l10 72q-19 23 -38 45t-37 45q25 23 50 45l50 44l10 72q-49 -41 -97 -80.5t-97 -80.5zM288 77l10 72q-19 23 -38 45t-37 45q25 23 49.5 44.5t50.5 44.5l10 72q-49 -41 -97 -80.5t-97 -80.5z" />
    <glyph glyph-name="uni03BC" unicode="&#xb5;" horiz-adv-x="542" 
d="M388 375l-8 -60h70l-18 -133q-5 -28 -20 -51.5t-37 -40.5q-21 -17 -48 -26.5t-56 -9.5q-39 2 -55.5 23.5t-14.5 51.5l34 246h-133l-8 -60h70l-72 -516h63l29 213q11 -10 26 -15t34 -5q54 0 102.5 28.5t75.5 76.5l-8 -45l-6 -52h127l8 54h-66l44 321h-133z" />
    <glyph glyph-name="uni00A0" unicode="&#xa0;" horiz-adv-x="300" 
 />
    <glyph glyph-name="OE" unicode="&#x152;" horiz-adv-x="949" 
d="M80 339q-8 -72 12.5 -135.5t62.5 -109.5q42 -48 102 -74.5t133 -26.5q26 0 47.5 1.5t46.5 5.5h414l18 135h-60l-10 -75h-299l34 263h307l9 60h-307l35 257h285l-11 -75h60l20 135h-393q-28 3 -54.5 5t-45.5 2q-81 0 -149 -28t-123 -78q-56 -51 -91.5 -119t-42.5 -143z
M143 339q6 63 35.5 119t75.5 98t104 66.5t121 24.5q24 0 44.5 -1t36.5 -5l-75 -582q-23 -6 -44.5 -6.5t-42.5 -0.5q-59 0 -108.5 22.5t-83.5 61.5q-35 39 -52 91t-11 112z" />
    <glyph glyph-name="oe" unicode="&#x153;" horiz-adv-x="676" 
d="M593 45l-33 45q-19 -17 -43 -27t-51 -10q-39 0 -67 18t-41 48q34 13 69.5 25.5t70.5 25.5q42 16 83.5 31t81.5 29q-5 34 -18 62.5t-33 48.5q-19 20 -45 31.5t-56 11.5q-33 0 -63.5 -9.5t-57.5 -26.5q-22 17 -50 26.5t-61 9.5q-42 0 -81 -16t-70 -43q-31 -28 -50.5 -65
t-23.5 -78q-5 -40 6.5 -74t35.5 -60q23 -26 56 -41t74 -15q33 0 64 9.5t58 27.5q22 -18 49.5 -27.5t60.5 -9.5q38 0 72 14t63 39zM269 322q21 0 38.5 -5.5t31.5 -15.5q-23 -24 -37 -54.5t-17 -64.5q-3 -31 3.5 -58t21.5 -49q-17 -10 -36.5 -16t-40.5 -6q-27 0 -49.5 10
t-37.5 28q-16 17 -24 40.5t-5 50.5q2 29 15 54.5t35 44.5q20 19 46.5 30t55.5 11zM587 265q-28 -10 -57.5 -21t-59.5 -22q-31 -11 -61.5 -22t-59.5 -22q0 5 1 10.5t2 9.5q3 25 15.5 46.5t30.5 38.5q20 18 46.5 28.5t57.5 10.5q30 0 51.5 -16t33.5 -41z" />
    <glyph glyph-name="circumflex" unicode="&#x2c6;" horiz-adv-x="407" 
d="M262 643l-142 -164h46l84 78l63 -78h47z" />
    <glyph glyph-name="tilde" unicode="&#x2dc;" horiz-adv-x="504" 
d="M265 482q16 -15 33.5 -24.5t40.5 -9.5q14 0 29 5.5t28 15.5t22 25.5t11 35.5l-35 2q-3 -15 -9.5 -24t-14.5 -15q-9 -5 -18.5 -7t-16.5 -2q-14 0 -25 5.5t-27 21.5q-15 16 -33 25t-40 9q-15 0 -31 -5.5t-29 -16.5q-12 -10 -20.5 -25.5t-10.5 -34.5l36 -2q2 12 6.5 20
t11.5 13q9 9 20.5 12t20.5 3q14 0 25 -5.5t26 -21.5z" />
    <glyph glyph-name="ellipsis" unicode="&#x2026;" horiz-adv-x="545" 
d="M61 35q-3 -15 6.5 -25t23.5 -10t27 9.5t16 25.5q2 14 -7 24.5t-23 10.5t-27.5 -10t-15.5 -25zM234 35q-3 -15 6 -25t24 -10q14 0 27 9.5t16 25.5q2 14 -7.5 24.5t-23.5 10.5t-27 -10t-15 -25zM406 35q-3 -15 6 -25t24 -10q14 0 27 9.5t16 25.5q2 14 -7.5 24.5t-22.5 10.5
q-15 0 -28 -10t-15 -25z" />
    <glyph glyph-name="fraction" unicode="&#x2044;" horiz-adv-x="363" 
d="M-47 0h66l409 755h-65z" />
    <glyph glyph-name="uni2074" unicode="&#x2074;" horiz-adv-x="406" 
d="M188 405l-5 -30h111l5 30h-42l8 62h50l3 31h-48l30 207l-217 -238h151l-9 -62h-37zM255 616l-17 -118h-88z" />
    <glyph glyph-name="Euro" unicode="&#x20ac;" horiz-adv-x="581" 
d="M73 429l-9 -62h63q-3 -10 -4.5 -20t-2.5 -20q-2 -9 -2.5 -17.5t-1.5 -16.5h-57l-8 -62h66q4 -44 17.5 -82.5t36.5 -67.5q30 -42 74 -65.5t95 -23.5q34 0 68 10t66 30l-35 47q-24 -14 -45.5 -19.5t-44.5 -5.5q-40 0 -72.5 19.5t-55.5 53.5q-15 21 -24.5 47t-12.5 57h194
l7 62h-205q1 8 1.5 16.5t2.5 17.5q1 9 3 19.5t4 20.5h203l11 62h-191q11 29 28 56t38 48q28 29 65.5 46t80.5 17q22 0 40.5 -4.5t35.5 -12.5l35 54q-17 10 -43.5 17.5t-59.5 7.5q-58 0 -109.5 -23.5t-91.5 -64.5q-29 -29 -51 -65.5t-36 -75.5h-73z" />
    <glyph glyph-name="minus" unicode="&#x2212;" horiz-adv-x="537" 
d="M77 189h360l9 61h-360z" />
    <glyph glyph-name="uni2215" unicode="&#x2215;" horiz-adv-x="311" 
d="M43 -18l303 753h-66l-303 -753h66z" />
  </font>
</defs>
</svg>
