<?xml version="1.0" standalone="no"?>
<!DOCTYPE svg PUBLIC "-//W3C//DTD SVG 1.1//EN" "http://www.w3.org/Graphics/SVG/1.1/DTD/svg11.dtd" >
<svg xmlns="http://www.w3.org/2000/svg" xmlns:xlink="http://www.w3.org/1999/xlink" version="1.1">
<metadata>
Created by FontForge 20170924 at Sun Dec 18 02:53:54 2011
 By Glenn,,,
Copyright (c) 2011 by Juan Pablo del Peral (huertatipografica.com.ar), , with Reserved Font Name "Acme"
</metadata>
<defs>
<font id="Acme-Regular" horiz-adv-x="244" >
  <font-face 
    font-family="Acme"
    font-weight="400"
    font-stretch="normal"
    units-per-em="1000"
    panose-1="2 0 7 6 5 0 0 2 0 4"
    ascent="800"
    descent="-200"
    x-height="509"
    cap-height="695"
    bbox="-79 -307 948 959"
    underline-thickness="33"
    underline-position="-122"
    unicode-range="U+0020-FB02"
  />
<missing-glyph horiz-adv-x="154" 
 />
    <glyph glyph-name=".notdef" horiz-adv-x="154" 
 />
    <glyph glyph-name=".null" horiz-adv-x="0" 
 />
    <glyph glyph-name="nonmarkingreturn" horiz-adv-x="333" 
 />
    <glyph glyph-name="space" unicode=" " horiz-adv-x="154" 
 />
    <glyph glyph-name="exclam" unicode="!" horiz-adv-x="247" 
d="M64 123.5q24 24.5 56 24.5t48.5 -17.5t16.5 -51.5t-23 -59.5t-54.5 -25.5t-49.5 19t-18 52.5t24 58zM227 700l-56 -443l-95 -14v432z" />
    <glyph glyph-name="quotedbl" unicode="&#x22;" horiz-adv-x="348" 
d="M57 624l109 10q-22 -134 -63 -244l-57 3q11 126 11 231zM212 624l109 10q-22 -134 -63 -244l-57 3q11 126 11 231z" />
    <glyph glyph-name="numbersign" unicode="#" horiz-adv-x="425" 
d="M28 301l6 67h83l17 104l75 7l-18 -111h77l17 104l74 7l-18 -111h84l-6 -67h-89l-11 -74h78l-6 -68h-83l-17 -109l-75 -7l18 116h-76l-17 -109l-75 -7l18 116h-84l6 68h89l12 74h-79zM180 301l-11 -74h76l12 74h-77z" />
    <glyph glyph-name="dollar" unicode="$" horiz-adv-x="372" 
d="M33 351q0 67 55.5 115.5t131.5 48.5h11l28 115l47 -6l-27 -115q43 -9 72 -23l-51 -108q-19 14 -46 26l-25 -107q55 -23 78 -43q43 -36 43 -98.5t-55.5 -114.5t-129.5 -52h-9l-29 -122l-47 7l29 123q-29 8 -54.5 25t-36.5 30l-11 12l57 80q28 -31 68 -50l28 119
q-95 39 -116 86q-11 23 -11 52zM137.5 409q-16.5 -13 -16.5 -33.5t16 -34t47 -26.5l25 104q-15 3 -35 3t-36.5 -13zM262 137q0 31 -57 58l-27 -114h12q33 0 52.5 15.5t19.5 40.5z" />
    <glyph glyph-name="percent" unicode="%" horiz-adv-x="975" 
d="M231 695q73 0 118.5 -56.5t45.5 -147.5q0 -115 -54.5 -181.5t-149.5 -66.5q-72 0 -118 57t-46 156t57.5 169t146.5 70zM273 349.5q16 30.5 16 113t-16.5 114t-60 31.5t-61.5 -29t-18 -107t19.5 -115.5t62 -37.5t58.5 30.5zM784 449q73 0 118.5 -56.5t45.5 -147.5
q0 -115 -54.5 -181.5t-149.5 -66.5q-72 0 -118 57t-46 156t57.5 169t146.5 70zM826 103.5q16 30.5 16 113t-16.5 114t-60 31.5t-61.5 -29t-18 -107t19.5 -115.5t62 -37.5t58.5 30.5zM306 -119l-79 32l421 845l79 -32z" />
    <glyph glyph-name="ampersand" unicode="&#x26;" horiz-adv-x="636" 
d="M467 326q13 -81 13 -109.5t-3 -43.5l113 -111l-82 -73q-34 37 -80 85q-33 -39 -80 -62t-98 -23q-91 0 -151 49.5t-60 124.5q0 101 118 170q-80 83 -80 150.5t60 117t145 49.5q52 0 96.5 -11t63.5 -21l18 -11l-62 -118q-26 22 -64.5 39.5t-73 17.5t-54 -16t-19.5 -41
q0 -35 24 -64t115 -109l69 -64q-5 52 -26 152l13 13h210l-8 -91h-117zM202 289q-47 -45 -47 -91t32.5 -77t92.5 -31t92 41q-65 66 -122 117q-24 18 -48 41z" />
    <glyph glyph-name="quotesingle" unicode="'" horiz-adv-x="193" 
d="M57 624l109 10q-22 -134 -63 -244l-57 3q11 126 11 231z" />
    <glyph glyph-name="parenleft" unicode="(" horiz-adv-x="278" 
d="M107 -7.5q-40 93.5 -40 297t40 301.5t146 150l30 -48q-70 -45 -95.5 -127t-25.5 -265.5t25 -268t96 -128.5l-30 -48q-106 43 -146 136.5z" />
    <glyph glyph-name="parenright" unicode=")" horiz-adv-x="278" 
d="M171 604.5q40 -93.5 40 -297t-40 -301.5t-146 -150l-30 48q70 45 95.5 127t25.5 265.5t-25 268t-96 128.5l30 48q106 -43 146 -136.5z" />
    <glyph glyph-name="asterisk" unicode="*" horiz-adv-x="302" 
d="M11 537l15 73l99 -57l5 96l73 8l-23 -113l92 26l30 -67l-113 -13l53 -79l-55 -50l-48 104l-59 -75l-63 36l84 78z" />
    <glyph glyph-name="plus" unicode="+" horiz-adv-x="425" 
d="M162 306v147l100 9v-156h146l-8 -91h-138v-146l-100 -9v155h-145l8 91h137z" />
    <glyph glyph-name="comma" unicode="," horiz-adv-x="205" 
d="M165 67q0 -85 -124 -180l-41 30q59 69 59 119q0 31 -26 79l98 39q34 -43 34 -87z" />
    <glyph glyph-name="hyphen" unicode="-" horiz-adv-x="270" 
d="M21 194l-8 91l236 42l8 -91z" />
    <glyph glyph-name="period" unicode="." horiz-adv-x="205" 
d="M53.5 123.5q23.5 24.5 56.5 24.5q65 0 65 -66q0 -38 -23.5 -63t-55 -25t-49 20.5t-17.5 52.5t23.5 56.5z" />
    <glyph glyph-name="slash" unicode="/" horiz-adv-x="302" 
d="M99 -133l-90 16l217 875l90 -16z" />
    <glyph glyph-name="zero" unicode="0" horiz-adv-x="571" 
d="M313 649q103 0 165.5 -81.5t62.5 -215.5q0 -169 -75.5 -266t-207.5 -97q-101 0 -164.5 82.5t-63.5 215.5q0 159 79.5 260.5t203.5 101.5zM379.5 136q25.5 49 25.5 174t-26 175.5t-91 50.5t-93.5 -47.5t-28.5 -165t30 -177t94 -59.5t89.5 49z" />
    <glyph glyph-name="one" unicode="1" horiz-adv-x="389" 
d="M285 650l-15 -390l12 -260h-140l12 243l-8 249l-140 -1v65z" />
    <glyph glyph-name="two" unicode="2" horiz-adv-x="509" 
d="M311 467q0 56 -68 56q-42 0 -92.5 -17.5t-80.5 -35.5l-29 -17l27 143q39 21 94 37.5t97 16.5q85 0 136.5 -43.5t51.5 -115.5q0 -97 -102 -202l-174 -180l312 18l-17 -133l-208 9l-236 -7l16 105l210 242q63 71 63 124z" />
    <glyph glyph-name="three" unicode="3" horiz-adv-x="488" 
d="M61 620q84 30 167 30t136 -42t53 -106q0 -50 -26 -87.5t-74 -56.5q70 -26 101 -64.5t31 -97.5q0 -90 -69.5 -148.5t-176.5 -58.5q-51 0 -99.5 13.5t-71.5 27.5l-23 14l42 121q9 -8 24 -20t57.5 -32.5t85.5 -20.5t75 23.5t32 66.5t-37.5 71t-103.5 28h-86l18 97h55
q55 0 86 25t31 64t-26 60.5t-62.5 21.5t-75 -12.5t-84.5 -37.5z" />
    <glyph glyph-name="four" unicode="4" horiz-adv-x="536" 
d="M10 248l238 375l165 20l-14 -387l96 4l-10 -101l-80 2l6 -161h-140l10 163l-279 -1zM278 514l-159 -257l164 1z" />
    <glyph glyph-name="five" unicode="5" horiz-adv-x="487" 
d="M457 214q0 -93 -74.5 -159t-181.5 -66q-50 0 -96 12.5t-67 24.5l-21 13l42 117q31 -24 77.5 -44t87 -20t72.5 25.5t32 62.5q0 91 -122 111l-133 22v331l172 -12l203 11l-22 -138l-257 23v-117l109 -19q84 -15 131.5 -63t47.5 -115z" />
    <glyph glyph-name="six" unicode="6" horiz-adv-x="499" 
d="M176 357q62 48 134 48t120.5 -54t48.5 -143t-69 -154t-165.5 -65t-154.5 64t-58 168t59.5 205t187.5 224l139 -59q-190 -123 -242 -234zM266 302q-64 0 -115 -35q-2 -22 -2 -34q0 -64 31 -102.5t77.5 -38.5t73.5 28t27 73.5t-26 77t-66 31.5z" />
    <glyph glyph-name="seven" unicode="7" horiz-adv-x="444" 
d="M55 34l251 494l-301 -23l22 138l211 -11l200 12l-15 -107l-162 -335l-64 -213z" />
    <glyph glyph-name="eight" unicode="8" horiz-adv-x="531" 
d="M40 155q0 53 37 91.5t82 61.5q-96 57 -96 143.5t62 142.5t147 56t138.5 -41t53.5 -102q0 -79 -94 -155q60 -28 94.5 -65t34.5 -93q0 -84 -71.5 -144.5t-166 -60.5t-158 49t-63.5 117zM273 256.5q-42 16.5 -57 23.5q-65 -43 -65 -87t35 -71t87.5 -27t84 19.5t31.5 51
t-37 53t-79 38zM189 443q16 -14 25 -20.5t30 -16.5q37 -17 66 -28q46 58 46 92.5t-26.5 55t-67 20.5t-65 -18t-24.5 -44.5t16 -40.5z" />
    <glyph glyph-name="nine" unicode="9" horiz-adv-x="499" 
d="M323 282q-60 -48 -133 -48t-121.5 54t-48.5 143t69 154t165.5 65t154.5 -64t58 -168t-59.5 -205t-187.5 -224l-139 59q189 123 242 234zM233 337q65 0 115 35q2 22 2 34q0 64 -31 102.5t-77.5 38.5t-73.5 -28t-27 -73.5t26 -77t66 -31.5z" />
    <glyph glyph-name="colon" unicode=":" horiz-adv-x="205" 
d="M53.5 123.5q23.5 24.5 56.5 24.5q65 0 65 -66q0 -38 -23.5 -63t-55 -25t-49 20.5t-17.5 52.5t23.5 56.5zM53.5 386.5q23.5 24.5 56.5 24.5q65 0 65 -66q0 -38 -23.5 -63t-55 -25t-49 20.5t-17.5 52.5t23.5 56.5z" />
    <glyph glyph-name="semicolon" unicode=";" horiz-adv-x="205" 
d="M53.5 386.5q23.5 24.5 56.5 24.5q65 0 65 -66q0 -38 -23.5 -63t-55 -25t-49 20.5t-17.5 52.5t23.5 56.5zM165 67q0 -85 -124 -180l-41 30q59 69 59 119q0 31 -26 79l98 39q34 -43 34 -87z" />
    <glyph glyph-name="less" unicode="&#x3c;" horiz-adv-x="395" 
d="M21 252l247 223l59 -67l-164 -152l172 -149l-64 -71z" />
    <glyph glyph-name="equal" unicode="=" horiz-adv-x="425" 
d="M17 299l8 91h383l-8 -91h-383zM17 129l8 91h383l-8 -91h-383z" />
    <glyph glyph-name="greater" unicode="&#x3e;" horiz-adv-x="395" 
d="M374 259l-247 -223l-59 67l164 152l-172 149l64 71z" />
    <glyph glyph-name="question" unicode="?" horiz-adv-x="354" 
d="M102 123.5q24 24.5 56 24.5t48.5 -17.5t16.5 -51.5t-23 -59.5t-54.5 -25.5t-49.5 19t-18 52.5t24 58zM220 478q0 105 -220 110l50 112q148 -13 226 -63t78 -133q0 -115 -189 -257l-77 69q132 85 132 162z" />
    <glyph glyph-name="at" unicode="@" horiz-adv-x="713" 
d="M260.5 137.5q-37.5 37.5 -37.5 101t58 110t141 46.5h68v18q0 50 -26.5 73.5t-83.5 23.5q-120 0 -189 -70.5t-69 -189t78.5 -198.5t199.5 -80q65 0 134.5 20t105.5 40l37 21l16 -102q-15 -9 -43 -22.5t-110.5 -36t-162.5 -22.5q-156 0 -251.5 101t-95.5 266.5t109 274
t278 108.5q89 0 138 -46t49 -129v-178q0 -70 35 -125l-106 -45q-25 48 -37 86q-55 -83 -139 -83q-59 0 -96.5 37.5zM399 202q40 0 91 41v67q-53 12 -86 12q-63 0 -63 -56q0 -29 16 -46.5t42 -17.5z" />
    <glyph glyph-name="A" unicode="A" horiz-adv-x="643" 
d="M484 -5l-49 195h-239l-53 -190l-128 10l88 243l134 430l179 13l129 -428l83 -251zM326 566h-13l-86 -270h178z" />
    <glyph glyph-name="B" unicode="B" horiz-adv-x="580" 
d="M297 690q96 0 152 -43.5t56 -116.5q0 -117 -96 -163q130 -45 130 -166q0 -91 -78 -151.5t-196 -60.5q-62 0 -185 11l12 243l-12 447h217zM284 297h-81l-1 -37l7 -163q58 -5 89 -5q53 0 82.5 26.5t29.5 77.5t-30 76t-96 25zM261 589h-49l-6 -195h65q51 0 78 27.5t27 78.5
q0 89 -115 89z" />
    <glyph glyph-name="C" unicode="C" horiz-adv-x="551" 
d="M293 -11q-111 0 -187 93t-76 228q0 165 91.5 278t224.5 113q52 0 96.5 -10.5t63.5 -21.5l18 -11l-68 -139q-23 20 -65 37.5t-76 17.5q-69 0 -110.5 -57t-41.5 -162.5t43 -173t117 -67.5q48 0 87 30t55 80l83 -48q-33 -88 -101 -137.5t-154 -49.5z" />
    <glyph glyph-name="D" unicode="D" horiz-adv-x="664" 
d="M285 -11q-71 0 -205 11l12 243l-12 447h267q135 0 211 -81t76 -225q0 -182 -94 -288.5t-255 -106.5zM311 582q-66 0 -93 -1l-10 -321l7 -162q84 -6 113 -6q79 0 124.5 64t45.5 186t-44.5 181t-142.5 59z" />
    <glyph glyph-name="E" unicode="E" horiz-adv-x="492" 
d="M80 0l12 243l-12 447h375l-11 -107h-225l-6 -177h200l-11 -106h-193l-1 -40l7 -154h242l-11 -106h-366z" />
    <glyph glyph-name="F" unicode="F" horiz-adv-x="442" 
d="M431 583h-213l-6 -184h191l-11 -106h-183l-1 -33l12 -260h-140l12 243l-12 447h362z" />
    <glyph glyph-name="G" unicode="G" horiz-adv-x="636" 
d="M321 -11q-131 0 -211 88t-80 233q0 165 100 278t246 113q58 0 107.5 -10.5t70.5 -21.5l20 -11l-58 -139q-30 20 -81 37.5t-90 17.5q-81 0 -130 -57t-49 -151q0 -127 46.5 -198t129.5 -71q54 0 102 15v155h-129l10 101h240l-9 -163l7 -173q-147 -43 -242 -43z" />
    <glyph glyph-name="H" unicode="H" horiz-adv-x="690" 
d="M610 695l-14 -435l12 -260h-140l12 243l-2 53h-269l-1 -36l12 -260h-140l12 243l-12 427l142 25l-10 -293h263l-7 268z" />
    <glyph glyph-name="I" unicode="I" horiz-adv-x="302" 
d="M222 695l-14 -435l12 -260h-140l12 243l-12 427z" />
    <glyph glyph-name="J" unicode="J" horiz-adv-x="353" 
d="M82 -10q-41 0 -82 9l32 120q33 -11 64 -11q61 0 61 101l-14 461l142 25l-14 -451q0 -109 -53 -181.5t-136 -72.5z" />
    <glyph glyph-name="K" unicode="K" horiz-adv-x="578" 
d="M222 695l-11 -326l255 324l102 -68l-230 -267l244 -289l-128 -80l-244 345l-2 -74l12 -260h-140l12 243l-12 427z" />
    <glyph glyph-name="L" unicode="L" horiz-adv-x="426" 
d="M80 0l12 243l-12 427l142 25l-14 -435l7 -162l205 16l-11 -114h-329z" />
    <glyph glyph-name="M" unicode="M" horiz-adv-x="747" 
d="M370 312h10l146 380l138 -4l4 -430l19 -258h-135l5 260l-11 263l-120 -331l-123 -6l-112 337l-9 -263l7 -260h-124l14 243l6 429l159 25z" />
    <glyph glyph-name="N" unicode="N" horiz-adv-x="689" 
d="M609 692l-13 -432l11 -238l-118 -25l-298 482v-219l14 -260h-125l12 243l-12 444l120 6l297 -489l-10 473z" />
    <glyph glyph-name="O" unicode="O" horiz-adv-x="661" 
d="M360 700q118 0 194.5 -90t76.5 -229q0 -176 -91 -284t-239 -108q-115 0 -193 92.5t-78 228.5q0 170 93 280t237 110zM495 325q0 253 -166 253q-76 0 -119.5 -56.5t-43.5 -169t46.5 -185t123 -72.5t118 61.5t41.5 168.5z" />
    <glyph glyph-name="P" unicode="P" horiz-adv-x="509" 
d="M297 690q96 0 153 -54.5t57 -149.5t-72 -162.5t-176 -67.5h-57l12 -256h-134l12 243l-12 447h217zM261 589h-49l-7 -236h68q50 0 77.5 33t27.5 94q0 109 -117 109z" />
    <glyph glyph-name="Q" unicode="Q" horiz-adv-x="680" 
d="M360 700q118 0 194.5 -90t76.5 -229q0 -162 -100 -280l132 -157l-99 -73l-115 160q-70 -42 -148 -42q-115 0 -193 92.5t-78 228.5q0 170 93 280t237 110zM495 325q0 253 -166 253q-76 0 -119.5 -56.5t-43.5 -169t46.5 -185t127.5 -72.5q30 0 56 12l-119 167l69 48
l120 -143q29 61 29 146z" />
    <glyph glyph-name="R" unicode="R" horiz-adv-x="579" 
d="M259 266h-57v-6l12 -260h-134l12 243l-12 447h217q96 0 153 -52t57 -138q0 -65 -33.5 -118.5t-90.5 -84.5l174 -246l-121 -62l-156 278q-7 -1 -21 -1zM261 589h-49l-7 -226h68q50 0 77.5 33t27.5 94q0 99 -117 99z" />
    <glyph glyph-name="S" unicode="S" horiz-adv-x="503" 
d="M91 199q85 -85 170 -85q44 0 70.5 20.5t26.5 53t-32 55t-77.5 39.5t-90.5 38.5t-77 61.5t-32 97q0 90 75 155.5t178 65.5q47 0 91 -10t85 -29l-68 -146q-28 22 -76.5 40.5t-85 18.5t-59 -17.5t-22.5 -46.5t32 -51.5t77.5 -39.5t91 -37.5t77.5 -60.5t32 -97
q0 -94 -75 -164.5t-175 -70.5q-75 0 -133 36q-51 31 -72 55l-9 11z" />
    <glyph glyph-name="T" unicode="T" horiz-adv-x="486" 
d="M0 575l11 115h475l-11 -115l-174 15l-4 -330l12 -260h-140l12 243l-4 346z" />
    <glyph glyph-name="U" unicode="U" horiz-adv-x="651" 
d="M291 -11q-90 0 -151.5 55t-61.5 136l-10 490l144 25l-16 -438q0 -70 32.5 -109t100.5 -39t98 38t30 131l-12 392l140 25l-11 -440q0 -118 -79 -192t-204 -74z" />
    <glyph glyph-name="V" unicode="V" horiz-adv-x="599" 
d="M296 125h12l50 172l105 399l121 -18l-119 -397l-78 -273l-185 -13l-71 267l-116 409l142 25l91 -386z" />
    <glyph glyph-name="W" unicode="W" horiz-adv-x="925" 
d="M641 125h11l47 172l96 399l113 -18l-109 -397l-67 -273l-183 -13l-57 267l-34 132l-30 -113l-67 -273l-180 -13l-60 267l-104 409l130 25l81 -386l45 -185h11l53 185l73 270l-23 91l132 25l79 -386z" />
    <glyph glyph-name="X" unicode="X" horiz-adv-x="598" 
d="M463 -9l-167 259l-161 -260l-108 53l197 300l-212 272l124 81l161 -250l155 254l105 -62l-183 -285l212 -284z" />
    <glyph glyph-name="Y" unicode="Y" horiz-adv-x="569" 
d="M283 395h12l74 136l75 165l122 -18l-92 -167l-130 -254l11 -257h-140l10 240l-126 256l-96 175l141 25l65 -152z" />
    <glyph glyph-name="Z" unicode="Z" horiz-adv-x="542" 
d="M39 102l322 476l-326 -22l24 138l228 -11l229 12l-15 -107l-323 -478l351 22l-20 -138l-241 11l-246 -11z" />
    <glyph glyph-name="bracketleft" unicode="[" horiz-adv-x="278" 
d="M278 -132l-209 -12l9 368l-9 517l208 -12v-57l-112 -14v-719l113 -14v-57z" />
    <glyph glyph-name="backslash" unicode="\" horiz-adv-x="302" 
d="M293 -117l-90 -16l-217 875l90 16z" />
    <glyph glyph-name="bracketright" unicode="]" horiz-adv-x="278" 
d="M209 -144l-209 12v57l113 14v719l-112 14v57l208 12l-9 -517z" />
    <glyph glyph-name="asciicircum" unicode="^" horiz-adv-x="425" 
d="M17 299l8 91h383l-8 -91h-383zM17 129l8 91h383l-8 -91h-383z" />
    <glyph glyph-name="underscore" unicode="_" horiz-adv-x="425" 
d="M-8 -220l8 89h433l-8 -89h-433z" />
    <glyph glyph-name="grave" unicode="`" 
d="M39 623l11 102q128 -48 229 -78l-5 -72z" />
    <glyph glyph-name="a" unicode="a" horiz-adv-x="469" 
d="M61.5 37.5q-37.5 37.5 -37.5 101t58 110t141 46.5h68v17q0 49 -20 67t-75 18q-23 0 -54.5 -9.5t-70.5 -29.5l-29 79q43 30 104.5 54t101.5 24q157 0 157 -152v-196q0 -56 35 -125l-106 -45q-25 48 -37 86q-55 -83 -139 -83q-59 0 -96.5 37.5zM200 102q40 0 91 41v67
q-53 12 -86 12q-63 0 -63 -56q0 -29 16 -46.5t42 -17.5z" />
    <glyph glyph-name="b" unicode="b" horiz-adv-x="499" 
d="M323 505q67 0 109 -58t42 -149q0 -131 -68.5 -214.5t-177.5 -83.5q-50 0 -168 16l10 227l-12 506l137 25l-13 -258v-108q11 16 27 34t50 40.5t64 22.5zM284 375q-46 0 -102 -28v-87l6 -147q42 -5 79 -5q96 0 96 133.5t-79 133.5z" />
    <glyph glyph-name="c" unicode="c" horiz-adv-x="385" 
d="M162 353.5q-24 -31.5 -24 -96.5t24.5 -104.5t71.5 -39.5q24 0 47 15t35 30l11 16l50 -52q-3 -5 -7.5 -14t-22 -32t-37 -40.5t-50.5 -32t-65 -14.5q-75 0 -122 61t-47 159q0 122 71 214t166 92q29 0 58 -8.5t59 -26.5l-70 -123q-36 28 -80 28t-68 -31.5z" />
    <glyph glyph-name="d" unicode="d" horiz-adv-x="502" 
d="M322 98q-78 -98 -135 -98q-71 0 -116.5 58t-45.5 149q0 125 69.5 211t170.5 86l56 -8v19l-12 234l137 25l-13 -514v-88q0 -60 30 -138l-108 -45q-29 60 -33 109zM160.5 159q23.5 -36 68 -36t92.5 36v216q-60 12 -89 12q-45 0 -70 -32t-25 -96t23.5 -100z" />
    <glyph glyph-name="e" unicode="e" horiz-adv-x="446" 
d="M238 102q29 0 61 15t50 30l18 15l46 -56q-10 -17 -31 -39t-42.5 -37.5t-57 -28t-73.5 -12.5q-81 0 -132 61.5t-51 158.5q0 122 71 214t166 92q73 0 113.5 -41t40.5 -115q0 -44 -15 -100l-20 -21l-250 -23q17 -113 106 -113zM238 412q-44 0 -74 -35.5t-35 -90.5l170 21
q3 23 3 38q0 67 -64 67z" />
    <glyph glyph-name="f" unicode="f" horiz-adv-x="303" 
d="M325 651q-37 9 -67 9t-43.5 -18t-13.5 -63l-1 -95h108l-11 -82h-97l-1 -142l11 -235l-135 -25l12 243l-4 159h-66l11 82h53l-1 76q0 89 55 151.5t134 62.5q42 0 87 -9z" />
    <glyph glyph-name="g" unicode="g" horiz-adv-x="508" 
d="M23 -99q0 88 164 138q-39 20 -39 52q0 13 10 26t29 27v8q-72 0 -114.5 40t-42.5 107q0 87 71 151.5t168 64.5q25 0 73 -10t94 -10h77l-10 -87l-75 9q10 -29 10 -66t-17.5 -73.5t-42 -58.5t-49 -38.5t-42 -29t-17.5 -22.5q0 -19 40 -33q106 -43 143.5 -73t37.5 -74
q0 -74 -74.5 -121.5t-177.5 -47.5t-159.5 33t-56.5 88zM325 321q0 49 -22 72t-69 23q-91 0 -91 -89.5t97 -89.5q85 0 85 84zM361 -66q0 18 -19 33.5t-68 36.5q-73 -20 -100.5 -37t-27.5 -42t27.5 -40.5t76.5 -15.5t80 18t31 47z" />
    <glyph glyph-name="h" unicode="h" horiz-adv-x="525" 
d="M338 345q-12 23 -56 23t-100 -35v-73l11 -235l-135 -25l12 243l-12 506l137 25l-13 -259v-117q15 20 34 39t59 43t85.5 24t76.5 -35.5t31 -96.5l-6 -112l11 -240l-135 -25l12 258q0 69 -12 92z" />
    <glyph glyph-name="i" unicode="i" 
d="M192 509l-12 -249l11 -235l-134 -25l12 243l-11 241zM77 715.5q26 26.5 60 26.5t52 -18.5t18 -55.5t-25.5 -63.5t-59 -26.5t-52.5 22t-19 55.5t26 60z" />
    <glyph glyph-name="j" unicode="j" horiz-adv-x="247" 
d="M3 -220q-41 0 -82 9l31 114q34 -9 63.5 -9t42.5 22t13 79l-1 248l-11 241l134 25l-12 -249l11 -226q0 -104 -56 -179t-133 -75zM78 715.5q26 26.5 60.5 26.5t52 -18.5t17.5 -55t-25 -63.5t-58.5 -27t-53 21t-19.5 55.5t26 61z" />
    <glyph glyph-name="k" unicode="k" horiz-adv-x="482" 
d="M370 -10l-188 277v-7l11 -235l-135 -25l12 243l-12 506l137 25l-13 -483l200 219l94 -64l-175 -164l183 -216z" />
    <glyph glyph-name="l" unicode="l" horiz-adv-x="253" 
d="M195 774l-13 -514l11 -235l-135 -25l12 243l-12 506z" />
    <glyph glyph-name="m" unicode="m" horiz-adv-x="803" 
d="M336 345q-12 23 -56 23t-100 -35v-73l11 -235l-134 -25l12 243q-4 134 -22 240l121 26q7 -58 10 -113q15 20 34 39.5t60 44t83 24.5t71 -27t37 -74q83 101 168 101q53 0 84 -35.5t31 -96.5l-6 -112l11 -240l-135 -25l12 258q0 69 -12 92t-55 23t-97 -33l-4 -75l11 -240
l-135 -25l12 258q0 69 -12 92z" />
    <glyph glyph-name="n" unicode="n" horiz-adv-x="523" 
d="M336 345q-12 23 -56 23t-100 -35v-73l11 -235l-134 -25l12 243q-4 134 -22 240l121 26q7 -58 10 -113q15 20 34 39.5t60 44t86.5 24.5t76.5 -35.5t31 -96.5l-6 -112l11 -240l-135 -25l12 258q0 69 -12 92z" />
    <glyph glyph-name="o" unicode="o" horiz-adv-x="482" 
d="M97 426q69 89 161.5 89t144 -60t51.5 -159q0 -132 -66.5 -219.5t-167.5 -87.5q-83 0 -137.5 62.5t-54.5 157.5q0 128 69 217zM342 244q0 145 -99 145q-103 0 -103 -136q0 -71 29 -111t76.5 -40t72 36.5t24.5 105.5z" />
    <glyph glyph-name="p" unicode="p" horiz-adv-x="501" 
d="M325 505q64 0 107.5 -56t43.5 -151q0 -133 -68.5 -215.5t-170.5 -82.5q-21 0 -47 3l5 -191l-137 -25l13 456h1q-4 134 -22 240l121 26q6 -53 10 -105q2 5 20.5 27.5t54.5 48t69 25.5zM286 375q-53 0 -103 -29v-86l4 -143q54 -9 82 -9q96 0 96 133.5t-79 133.5z" />
    <glyph glyph-name="q" unicode="q" horiz-adv-x="503" 
d="M321 96q-74 -96 -138 -96t-111 56t-47 151q0 125 69.5 211t170.5 86l95 -13l85 24l-12 -255l12 -448l-137 -25l13 202v107zM137 263q0 -140 91 -140q45 0 93 36v84l-7 134q-62 10 -82 10q-44 0 -69.5 -30.5t-25.5 -93.5z" />
    <glyph glyph-name="r" unicode="r" horiz-adv-x="356" 
d="M47 483l121 26q9 -77 12 -146q91 141 171 141l-11 -156q-58 0 -91.5 -10.5t-68.5 -41.5v-36l11 -235l-134 -25l12 243q-4 134 -22 240z" />
    <glyph glyph-name="s" unicode="s" horiz-adv-x="394" 
d="M209 93q52 0 52 46q0 16 -22.5 30t-55 28t-65 31.5t-55 48.5t-22.5 71q0 67 59 117t136 50q36 0 70.5 -8.5t66.5 -26.5l-67 -122q-7 6 -18 15t-41.5 23.5t-54 14.5t-36 -10.5t-12.5 -29t34.5 -37t75.5 -34t75.5 -51t34.5 -84.5q0 -70 -57.5 -123t-132.5 -53
q-48 0 -89.5 21t-59.5 42l-18 21l79 92q6 -8 17 -20t43.5 -32t62.5 -20z" />
    <glyph glyph-name="t" unicode="t" horiz-adv-x="355" 
d="M97 484v109l135 26l-13 -135h121l-11 -82h-114l-5 -209q0 -47 9 -62.5t33 -15.5t64 11l6 -71q-66 -55 -116 -55t-82 36.5t-32 95.5l6 112l-1 158h-69l11 82h58z" />
    <glyph glyph-name="u" unicode="u" horiz-adv-x="510" 
d="M178 0q-54 0 -87.5 35.5t-33.5 93.5l6 115l-11 240l134 25l-13 -304q0 -43 15.5 -63t49.5 -20t94 34v60l-11 263l135 25l-12 -250l1 -82q0 -64 33 -129l-104 -46q-33 65 -40 104q-90 -101 -156 -101z" />
    <glyph glyph-name="v" unicode="v" horiz-adv-x="460" 
d="M228 125h13l33 137l54 247l124 -15l-75 -248l-63 -234l-171 -15l-59 243l-72 243l136 25l43 -220z" />
    <glyph glyph-name="w" unicode="w" horiz-adv-x="731" 
d="M504 125h13l32 137l52 247l122 -15l-73 -248l-61 -234l-164 -15l-55 243l-5 16l-67 -244l-159 -15l-58 243l-69 243l131 25l41 -220l36 -163h13l86 285l-21 73l129 25l42 -220z" />
    <glyph glyph-name="x" unicode="x" horiz-adv-x="473" 
d="M353 -10l-119 177l-123 -177l-99 55l157 203l-149 184l111 76l109 -169l118 171l97 -60l-149 -194l158 -190z" />
    <glyph glyph-name="y" unicode="y" horiz-adv-x="465" 
d="M72 -193l103 231l-74 202l-101 243l133 25l64 -213l33 -101h13l24 73l72 242l123 -15l-177 -465l-84 -249z" />
    <glyph glyph-name="z" unicode="z" horiz-adv-x="417" 
d="M41 99l211 301l-221 -15l23 126l171 -11l167 12l-17 -104l-212 -302l243 14l-22 -126l-170 11l-190 -11z" />
    <glyph glyph-name="braceleft" unicode="{" horiz-adv-x="278" 
d="M83 350q14 14 14 39.5t-21.5 97.5t-21.5 96q0 79 51.5 117t157.5 38l-10 -74q-58 0 -78 -14.5t-20 -53.5t17.5 -92.5t17.5 -89t-16.5 -68.5t-42.5 -49q26 -16 42.5 -49t16.5 -68.5t-17.5 -89t-17.5 -92.5t22 -53.5t86 -14.5l-10 -74q-101 0 -150 38t-49 117q0 24 21.5 96
t21.5 97q0 55 -72 62l10 62q34 8 48 22z" />
    <glyph glyph-name="bar" unicode="|" horiz-adv-x="251" 
d="M80 753l91 8v-897l-91 -8v897z" />
    <glyph glyph-name="braceright" unicode="}" horiz-adv-x="278" 
d="M181 204q0 -25 21.5 -97t21.5 -96q0 -79 -51.5 -117t-157.5 -38l10 74q58 0 78 14.5t20 53.5t-17.5 92.5t-17.5 88.5t16.5 68t42.5 50q-26 16 -42.5 48.5t-16.5 68.5t17.5 89.5t17.5 92.5t-22 53.5t-86 14.5l10 74q101 0 150 -38t49 -117q0 -24 -21.5 -96t-21.5 -97
q0 -55 72 -62l-10 -62q-34 -9 -48 -23t-14 -39z" />
    <glyph glyph-name="asciitilde" unicode="~" horiz-adv-x="425" 
d="M131 324l173 -42l76 44l28 -45q-31 -33 -64 -59.5t-51 -26.5l-173 42l-76 -44l-28 45q31 33 64 59.5t51 26.5z" />
    <glyph glyph-name="nbspace" unicode="&#xa0;" horiz-adv-x="154" 
 />
    <glyph glyph-name="exclamdown" unicode="&#xa1;" horiz-adv-x="247" 
d="M183 385.5q-24 -24.5 -56 -24.5t-48.5 17.5t-16.5 51.5t23 59.5t54.5 25.5t49.5 -19t18 -52.5t-24 -58zM20 -191l56 443l95 14v-432z" />
    <glyph glyph-name="cent" unicode="&#xa2;" horiz-adv-x="369" 
d="M28 225q0 107 59.5 191.5t142.5 96.5l19 131l47 -2l-19 -129q47 -6 87 -31l-67 -117q-16 12 -39 20l-36 -252h3q23 0 45.5 14.5t33.5 28.5l10 15l47 -49q-4 -11 -22 -35.5t-35 -40.5q-46 -44 -99 -49l-21 -143l-47 3l21 142q-59 12 -94.5 67.5t-35.5 138.5zM134 280
q0 -98 43 -132l35 243q-37 -3 -57.5 -32.5t-20.5 -78.5z" />
    <glyph glyph-name="sterling" unicode="&#xa3;" horiz-adv-x="469" 
d="M157 109l23 1q37 0 84 -12t66.5 -12t46.5 10.5t59 31.5l33 -75q-50 -50 -102 -68q-23 -8 -51 -8t-82 21t-82 21q-48 0 -136 -30l15 95q36 24 52 47q34 50 34 102l-7 46h-66l11 82h44l-9 65q0 94 63.5 159t155.5 65q50 0 127 -15l-31 -114q-61 15 -107 15t-66.5 -21
t-20.5 -70l8 -84h164l-11 -82h-146l3 -29q0 -81 -72 -141z" />
    <glyph glyph-name="currency" unicode="&#xa4;" horiz-adv-x="468" 
d="M93 186q-18 33 -18 73.5t20 74.5l-86 84l81 58l70 -76q34 18 72.5 18t74.5 -18l80 89l61 -84l-76 -70q21 -36 21 -76t-19 -73l88 -82l-84 -60l-70 76q-34 -20 -74.5 -20t-77.5 21l-80 -89l-60 86zM153 259q0 -33 23.5 -57t56.5 -24t57.5 24t24.5 57t-24.5 57t-57.5 24
t-56.5 -24t-23.5 -57z" />
    <glyph glyph-name="yen" unicode="&#xa5;" horiz-adv-x="569" 
d="M525 198l-4 -47h-173l7 -151h-140l7 151h-180l5 47h177l1 20l-28 57h-155l5 47h126l-61 124l-97 175l141 25l66 -152l61 -121h12l57 108l78 165l122 -18l-95 -167l-70 -139h138l-4 -47h-157l-20 -40l1 -37h180z" />
    <glyph glyph-name="brokenbar" unicode="&#xa6;" horiz-adv-x="251" 
d="M80 753l91 8v-333l-91 -8v333zM80 187l91 8v-331l-91 -8v331z" />
    <glyph glyph-name="section" unicode="&#xa7;" horiz-adv-x="426" 
d="M149 -14q34 -20 60 -20t39.5 10.5t13.5 28.5t-24.5 36t-60 34t-71 35.5t-60 52t-24.5 73.5q0 87 90 149q-52 43 -52 107t53 111t133 47q33 0 66.5 -8.5t68.5 -26.5l-57 -122q-64 53 -118 53q-21 0 -33 -9.5t-12 -25.5t24.5 -33t59.5 -33t70.5 -35.5t60 -52t24.5 -74.5
q0 -83 -86 -152q49 -42 49 -106t-52 -113.5t-126 -49.5q-46 0 -89 21t-63 42l-20 21l71 92q7 -8 19 -20t46 -32zM124 266q0 -24 28 -43q26 -17 58 -31.5t45 -21.5q44 47 44 82q0 25 -28 44q-20 14 -54 30t-46 22q-47 -44 -47 -82z" />
    <glyph glyph-name="dieresis" unicode="&#xa8;" 
d="M-2 706q21 22 49 22t43 -15.5t15 -46t-21 -52.5t-48.5 -22t-43 18t-15.5 46t21 50zM160 706q21 22 50 22q57 0 57 -58q0 -34 -20.5 -56t-48 -22t-43.5 18t-16 46t21 50z" />
    <glyph glyph-name="copyright" unicode="&#xa9;" horiz-adv-x="761" 
d="M380 700q149 0 254.5 -104t105.5 -251t-105.5 -251.5t-254.5 -104.5t-254.5 104.5t-105.5 251.5t105.5 251t254.5 104zM588 135.5q86 86.5 86 209t-86 209t-208 86.5t-208 -86.5t-86 -209t86 -209t208 -86.5t208 86.5zM375 147q-63 0 -106 52t-43 137.5t51.5 149
t126.5 63.5q29 0 54 -6t46 -18l-37 -79q-37 31 -77.5 31t-63.5 -32t-23 -91.5t23.5 -97t64.5 -37.5q26 0 48 16.5t32 43.5l47 -27q-20 -50 -57.5 -77.5t-85.5 -27.5z" />
    <glyph glyph-name="ordfeminine" unicode="&#xaa;" horiz-adv-x="349" 
d="M44 342.5q-28 26.5 -28 72t43.5 78.5t106.5 33h47v9q0 33 -14 44.5t-42 11.5q-44 0 -106 -28l-23 61q88 54 157 54q119 0 119 -108v-135q0 -40 27 -89l-84 -33q-17 31 -27 58q-41 -55 -102 -55q-46 0 -74 26.5zM120.5 404q11.5 -12 33.5 -12t59 28v42q-40 7 -60 7
q-44 0 -44 -35q0 -18 11.5 -30z" />
    <glyph glyph-name="guillemotleft" unicode="&#xab;" horiz-adv-x="437" 
d="M127 265l105 -136l-58 -48l-167 177l167 187l58 -48zM317 265l105 -136l-58 -48l-167 177l167 187l58 -48z" />
    <glyph glyph-name="logicalnot" unicode="&#xac;" horiz-adv-x="425" 
d="M371 336v-247l-100 -9v165h-271l8 91h363z" />
    <glyph glyph-name="registered" unicode="&#xae;" horiz-adv-x="426" 
d="M76.5 641q56.5 56 136 56t136.5 -56t57 -134.5t-57 -135t-136.5 -56.5t-136 56.5t-56.5 135t56.5 134.5zM313 405.5q42 41.5 42 101t-42 101t-100.5 41.5t-100 -41.5t-41.5 -101t41 -101t100 -41.5t101 41.5zM216 620q30 0 49 -17t19 -43q0 -40 -35 -61l52 -71l-45 -23
l-47 82h-16l4 -77h-50l3 75l-3 135h69zM206 581h-9l-3 -56h16q25 0 25 31q0 25 -29 25z" />
    <glyph glyph-name="macron" unicode="&#xaf;" 
d="M0 603l8 85h236l-8 -85h-236z" />
    <glyph glyph-name="degree" unicode="&#xb0;" horiz-adv-x="291" 
d="M57 663.5q37 36.5 88.5 36.5t88.5 -36.5t37 -87.5t-37 -87.5t-88.5 -36.5t-88.5 36.5t-37 87.5t37 87.5zM191 529.5q20 19.5 20 46t-19.5 46t-46 19.5t-46 -19.5t-19.5 -46t19.5 -46t45.5 -19.5t46 19.5z" />
    <glyph glyph-name="plusminus" unicode="&#xb1;" horiz-adv-x="425" 
d="M162 306v147l100 9v-156h146l-8 -91h-138v-146l-100 -9v155h-145l8 91h137zM17 -91l8 91h383l-8 -91h-383z" />
    <glyph glyph-name="twosuperior" unicode="&#xb2;" horiz-adv-x="379" 
d="M219 643q0 16 -8.5 22t-33 6t-58.5 -11.5t-74 -33.5h-6l-9 6l19 100l3 4q76 38 139.5 38t102.5 -31.5t39 -83.5q0 -67 -73 -142l-105 -103l205 11l-14 -108l-155 6l-176 -5l14 84l149 164q41 44 41 77z" />
    <glyph glyph-name="threesuperior" unicode="&#xb3;" horiz-adv-x="364" 
d="M50 754q61 20 121.5 20t101 -30.5t40.5 -77.5q0 -62 -57 -95q78 -36 78 -105t-51.5 -110.5t-129.5 -41.5q-37 0 -72 10t-69 29l-4 8l31 84l10 3l4 -1q53 -46 106 -46q32 0 51.5 13t19.5 33q0 62 -90 62h-71l16 83h46q73 0 73 54q0 20 -15.5 31.5t-38.5 11.5
q-45 0 -92 -24l-15 -8h-5l-8 6l14 85l4 5z" />
    <glyph glyph-name="acute" unicode="&#xb4;" 
d="M198 725l11 -102q-131 -30 -235 -48l-5 72q86 25 229 78z" />
    <glyph glyph-name="mu" unicode="&#xb5;" horiz-adv-x="521" 
d="M200 139q16 -17 49.5 -17t93.5 34v60l-11 263l135 25l-12 -250l1 -82q0 -64 33 -129l-104 -46q-33 65 -40 104q-15 -17 -34.5 -35.5t-59.5 -42t-73 -23.5l10 -189l-122 -24l8 457l-11 240l134 25l-13 -304q0 -49 16 -66z" />
    <glyph glyph-name="mu" unicode="&#x3bc;" horiz-adv-x="521" 
d="M200 139q16 -17 49.5 -17t93.5 34v60l-11 263l135 25l-12 -250l1 -82q0 -64 33 -129l-104 -46q-33 65 -40 104q-15 -17 -34.5 -35.5t-59.5 -42t-73 -23.5l10 -189l-122 -24l8 457l-11 240l134 25l-13 -304q0 -49 16 -66z" />
    <glyph glyph-name="paragraph" unicode="&#xb6;" horiz-adv-x="514" 
d="M79 323.5q-72 67.5 -72 162.5t57 149.5t153 54.5h25l13 -434q-104 0 -176 67.5zM243 -10q-41 0 -82 9l32 120q33 -11 63 -11q62 0 62 101l-14 461l142 25l-14 -451q0 -109 -53 -181.5t-136 -72.5z" />
    <glyph glyph-name="periodcentered" unicode="&#xb7;" horiz-adv-x="205" 
d="M53.5 311.5q23.5 24.5 56.5 24.5q65 0 65 -66q0 -38 -23.5 -63t-55 -25t-49 20.5t-17.5 52.5t23.5 56.5z" />
    <glyph glyph-name="cedilla" unicode="&#xb8;" 
d="M134 -125q0 31 -69 40l21 105h62l-11 -60q40 -10 61.5 -29.5t21.5 -45.5q0 -37 -41 -67t-103 -38l-32 44q90 16 90 51z" />
    <glyph glyph-name="onesuperior" unicode="&#xb9;" horiz-adv-x="295" 
d="M220 778l-10 -274l8 -183h-116l8 172l-6 157l-98 -1v60z" />
    <glyph glyph-name="ordmasculine" unicode="&#xba;" horiz-adv-x="361" 
d="M71 615.5q52 62.5 122 62.5t108.5 -41.5t38.5 -112.5q0 -93 -50 -154.5t-119.5 -61.5t-110.5 44t-41 111q0 90 52 152.5zM181 585q-73 0 -73 -91q0 -47 20.5 -74.5t54.5 -27.5q68 0 68 96.5t-70 96.5z" />
    <glyph glyph-name="guillemotright" unicode="&#xbb;" horiz-adv-x="437" 
d="M120 261l-105 136l58 48l167 -177l-167 -187l-58 48zM310 261l-105 136l58 48l167 -177l-167 -187l-58 48z" />
    <glyph glyph-name="onequarter" unicode="&#xbc;" horiz-adv-x="855" 
d="M223 703l-10 -274l8 -183h-116l8 172l-6 157l-98 -1v60zM464 178l171 257l130 16l-11 -262l69 3l-8 -86l-56 2l4 -108h-116l7 109l-197 -1zM652 324l-86 -134l89 1zM225 -119l-79 32l421 845l79 -32z" />
    <glyph glyph-name="onehalf" unicode="&#xbd;" horiz-adv-x="867" 
d="M223 703l-10 -274l8 -183h-116l8 172l-6 157l-98 -1v60zM704 322q0 16 -8.5 22t-33 6t-58.5 -11t-74 -34h-6l-9 6l19 100l3 4q76 38 139.5 38t102.5 -31.5t39 -83.5q0 -67 -73 -142l-105 -103l205 11l-14 -108l-155 6l-176 -5l14 84l149 164q41 44 41 77zM225 -119
l-79 32l421 845l79 -32z" />
    <glyph glyph-name="threequarters" unicode="&#xbe;" horiz-adv-x="884" 
d="M493 178l171 257l130 16l-11 -262l69 3l-8 -86l-56 2l4 -108h-116l7 109l-197 -1zM53 679q61 20 121.5 20t101 -30.5t40.5 -77.5q0 -62 -57 -95q78 -36 78 -105t-51.5 -110.5t-129.5 -41.5q-37 0 -72 9.5t-69 29.5l-4 8l31 84l10 3l4 -1q53 -46 106 -46q32 0 51.5 13
t19.5 33q0 62 -90 62h-71l16 83h46q73 0 73 54q0 20 -15.5 31.5t-38.5 11.5q-45 0 -91 -24l-16 -8h-5l-8 6l14 85l4 5zM254 -119l-79 32l421 845l79 -32zM681 324l-86 -134l89 1z" />
    <glyph glyph-name="questiondown" unicode="&#xbf;" horiz-adv-x="354" 
d="M252 385.5q-24 -24.5 -56 -24.5t-48.5 17.5t-16.5 51.5t23 59.5t54.5 25.5t49.5 -19t18 -52.5t-24 -58zM134 31q0 -105 220 -110l-50 -112q-148 13 -226 63t-78 133q0 114 189 257l77 -69q-132 -85 -132 -162z" />
    <glyph glyph-name="Agrave" unicode="&#xc0;" horiz-adv-x="643" 
d="M484 -5l-49 195h-239l-53 -190l-128 10l88 243l134 430l179 13l129 -428l83 -251zM326 566h-13l-86 -270h178zM204 808l11 102q128 -48 229 -78l-5 -72z" />
    <glyph glyph-name="Aacute" unicode="&#xc1;" horiz-adv-x="643" 
d="M484 -5l-49 195h-239l-53 -190l-128 10l88 243l134 430l179 13l129 -428l83 -251zM326 566h-13l-86 -270h178zM433 910l11 -102q-131 -30 -235 -48l-5 72q86 25 229 78z" />
    <glyph glyph-name="Acircumflex" unicode="&#xc2;" horiz-adv-x="643" 
d="M484 -5l-49 195h-239l-53 -190l-128 10l88 243l134 430l179 13l129 -428l83 -251zM326 566h-13l-86 -270h178zM322 751l-144 85l15 62l129 -47l131 47l15 -62z" />
    <glyph glyph-name="Atilde" unicode="&#xc3;" horiz-adv-x="643" 
d="M484 -5l-49 195h-239l-53 -190l-128 10l88 243l134 430l179 13l129 -428l83 -251zM460 888l28 -43q-28 -34 -58.5 -60t-46.5 -26q-15 2 -66.5 21t-66.5 21l-66 -42l-28 43q28 34 58.5 60t46.5 26q15 -2 66.5 -21t66.5 -21zM326 566h-13l-86 -270h178z" />
    <glyph glyph-name="Adieresis" unicode="&#xc4;" horiz-adv-x="643" 
d="M484 -5l-49 195h-239l-53 -190l-128 10l88 243l134 430l179 13l129 -428l83 -251zM326 566h-13l-86 -270h178zM360 891q21 22 50 22q57 0 57 -58q0 -34 -20.5 -56t-48 -22t-43.5 18t-16 46t21 50zM198 891q21 22 49 22t43 -15.5t15 -46t-21 -52.5t-48.5 -22t-43 18
t-15.5 46t21 50z" />
    <glyph glyph-name="Aring" unicode="&#xc5;" horiz-adv-x="643" 
d="M484 -5l-49 195h-239l-53 -190l-128 10l88 243l134 430l179 13l129 -428l83 -251zM243 925q33 34 82 34t79 -28t30 -79t-33 -86t-81 -35t-79 31.5t-31 80t33 82.5zM326 566h-13l-86 -270h178zM361 888.5q-14 14.5 -37.5 14.5t-39 -16.5t-15.5 -41.5t14.5 -41.5t37 -16.5
t38.5 18t16 43.5t-14 40z" />
    <glyph glyph-name="AE" unicode="&#xc6;" horiz-adv-x="853" 
d="M462 0l-35 190h-239l-66 -190l-127 10l105 243l167 437h500l-11 -107h-296l41 -177h244l-11 -106h-209l50 -194h235l-11 -106h-337zM345 566h-13l-104 -270h177z" />
    <glyph glyph-name="Ccedilla" unicode="&#xc7;" horiz-adv-x="551" 
d="M321 -125q0 31 -69 40l15 76q-102 11 -169.5 101.5t-67.5 217.5q0 165 91.5 278t224.5 113q52 0 96.5 -10.5t63.5 -21.5l18 -11l-68 -139q-23 20 -65 37.5t-76 17.5q-69 0 -110.5 -57t-41.5 -162.5t43 -173t117 -67.5q48 0 87 30t55 80l83 -48q-30 -79 -87.5 -127
t-131.5 -57l-5 -32q40 -10 61.5 -29.5t21.5 -45.5q0 -37 -41 -67t-103 -38l-32 44q90 16 90 51z" />
    <glyph glyph-name="Egrave" unicode="&#xc8;" horiz-adv-x="492" 
d="M80 0l12 243l-12 447h375l-11 -107h-225l-6 -177h200l-11 -106h-193l-1 -40l7 -154h242l-11 -106h-366zM161 808l11 102q128 -48 229 -78l-5 -72z" />
    <glyph glyph-name="Eacute" unicode="&#xc9;" horiz-adv-x="492" 
d="M80 0l12 243l-12 447h375l-11 -107h-225l-6 -177h200l-11 -106h-193l-1 -40l7 -154h242l-11 -106h-366zM390 910l11 -102q-131 -30 -235 -48l-5 72q85 25 229 78z" />
    <glyph glyph-name="Ecircumflex" unicode="&#xca;" horiz-adv-x="492" 
d="M279 751l-144 85l15 62l129 -47l131 47l15 -62zM80 0l12 243l-12 447h375l-11 -107h-225l-6 -177h200l-11 -106h-193l-1 -40l7 -154h242l-11 -106h-366z" />
    <glyph glyph-name="Edieresis" unicode="&#xcb;" horiz-adv-x="492" 
d="M80 0l12 243l-12 447h375l-11 -107h-225l-6 -177h200l-11 -106h-193l-1 -40l7 -154h242l-11 -106h-366zM155 891q21 22 49 22t43 -15.5t15 -46t-21 -52.5t-48.5 -22t-43 18t-15.5 46t21 50zM317 891q21 22 49 22q58 0 58 -58q0 -34 -20.5 -56t-48 -22t-43.5 18t-16 46
t21 50z" />
    <glyph glyph-name="Igrave" unicode="&#xcc;" horiz-adv-x="302" 
d="M222 695l-14 -435l12 -260h-140l12 243l-12 427zM34 808l11 102q128 -48 229 -78l-5 -72z" />
    <glyph glyph-name="Iacute" unicode="&#xcd;" horiz-adv-x="302" 
d="M222 695l-14 -435l12 -260h-140l12 243l-12 427zM263 910l11 -102q-131 -30 -235 -48l-5 72q86 25 229 78z" />
    <glyph glyph-name="Icircumflex" unicode="&#xce;" horiz-adv-x="302" 
d="M152 751l-144 85l15 62l129 -47l131 47l15 -62zM222 695l-14 -435l12 -260h-140l12 243l-12 427z" />
    <glyph glyph-name="Idieresis" unicode="&#xcf;" horiz-adv-x="302" 
d="M222 695l-14 -435l12 -260h-140l12 243l-12 427zM28 891q21 22 49 22t43 -15.5t15 -46t-21 -52.5t-48.5 -22t-43 18t-15.5 46t21 50zM190 891q21 22 50 22q57 0 57 -58q0 -34 -20.5 -56t-48 -22t-43.5 18t-16 46t21 50z" />
    <glyph glyph-name="Eth" unicode="&#xd0;" horiz-adv-x="679" 
d="M362 690q135 0 211 -81t76 -225q0 -182 -94 -288.5t-255 -106.5q-71 0 -205 11l12 243l-2 76h-101l5 47h94l-8 324h267zM343 92q79 0 124.5 64t45.5 186t-44.5 181t-142.5 59q-66 0 -93 -1l-7 -215h141l-4 -47h-138l-2 -59l7 -162q84 -6 113 -6z" />
    <glyph glyph-name="Ntilde" unicode="&#xd1;" horiz-adv-x="689" 
d="M609 692l-13 -432l11 -238l-118 -25l-298 482v-219l14 -260h-125l12 243l-12 444l120 6l297 -489l-10 473zM483 888l28 -43q-28 -34 -58.5 -60t-46.5 -26q-15 2 -66.5 21t-66.5 21l-66 -42l-28 43q28 34 58.5 60t46.5 26q15 -2 66.5 -21t66.5 -21z" />
    <glyph glyph-name="Ograve" unicode="&#xd2;" horiz-adv-x="661" 
d="M360 700q118 0 194.5 -90t76.5 -229q0 -176 -91 -284t-239 -108q-115 0 -193 92.5t-78 228.5q0 170 93 280t237 110zM495 325q0 253 -166 253q-76 0 -119.5 -56.5t-43.5 -169t46.5 -185t123 -72.5t118 61.5t41.5 168.5zM211 808l11 102q128 -48 229 -78l-5 -72z" />
    <glyph glyph-name="Oacute" unicode="&#xd3;" horiz-adv-x="661" 
d="M360 700q118 0 194.5 -90t76.5 -229q0 -176 -91 -284t-239 -108q-115 0 -193 92.5t-78 228.5q0 170 93 280t237 110zM495 325q0 253 -166 253q-76 0 -119.5 -56.5t-43.5 -169t46.5 -185t123 -72.5t118 61.5t41.5 168.5zM440 910l11 -102q-131 -30 -235 -48l-5 72
q86 25 229 78z" />
    <glyph glyph-name="Ocircumflex" unicode="&#xd4;" horiz-adv-x="661" 
d="M329 751l-144 85l15 62l129 -47l131 47l15 -62zM360 700q118 0 194.5 -90t76.5 -229q0 -176 -91 -284t-239 -108q-115 0 -193 92.5t-78 228.5q0 170 93 280t237 110zM495 325q0 253 -166 253q-76 0 -119.5 -56.5t-43.5 -169t46.5 -185t123 -72.5t118 61.5t41.5 168.5z
" />
    <glyph glyph-name="Otilde" unicode="&#xd5;" horiz-adv-x="661" 
d="M360 700q118 0 194.5 -90t76.5 -229q0 -176 -91 -284t-239 -108q-115 0 -193 92.5t-78 228.5q0 170 93 280t237 110zM495 325q0 253 -166 253q-76 0 -119.5 -56.5t-43.5 -169t46.5 -185t123 -72.5t118 61.5t41.5 168.5zM467 888l28 -43q-28 -34 -58.5 -60t-46.5 -26
q-15 2 -66.5 21t-66.5 21l-66 -42l-28 43q28 34 58.5 60t46.5 26q15 -2 66.5 -21t66.5 -21z" />
    <glyph glyph-name="Odieresis" unicode="&#xd6;" horiz-adv-x="661" 
d="M360 700q118 0 194.5 -90t76.5 -229q0 -176 -91 -284t-239 -108q-115 0 -193 92.5t-78 228.5q0 170 93 280t237 110zM495 325q0 253 -166 253q-76 0 -119.5 -56.5t-43.5 -169t46.5 -185t123 -72.5t118 61.5t41.5 168.5zM205 891q21 22 49 22t43 -15.5t15 -46t-21 -52.5
t-48.5 -22t-43 18t-15.5 46t21 50zM367 891q21 22 49 22q58 0 58 -58q0 -34 -20.5 -56t-48 -22t-43.5 18t-16 46t21 50z" />
    <glyph glyph-name="multiply" unicode="&#xd7;" horiz-adv-x="425" 
d="M107 90l-59 70l97 97l-104 104l64 77l110 -111l104 104l59 -70l-98 -98l103 -103l-64 -77l-110 109z" />
    <glyph glyph-name="Oslash" unicode="&#xd8;" horiz-adv-x="667" 
d="M363 700q64 0 121 -30l61 110l44 -18l-66 -119q52 -43 81.5 -111t29.5 -151q0 -176 -91 -284t-239 -108q-66 0 -124 33l-67 -121l-43 19l72 130q-51 44 -80 112t-29 148q0 170 93 280t237 110zM456.5 156.5q41.5 61.5 41.5 179.5t-44 182l-212 -384q42 -39 107.5 -39
t107 61.5zM212.5 521.5q-43.5 -56.5 -43.5 -165.5t42 -181l209 378q-35 25 -88 25q-76 0 -119.5 -56.5z" />
    <glyph glyph-name="Ugrave" unicode="&#xd9;" horiz-adv-x="651" 
d="M291 -11q-90 0 -151.5 55t-61.5 136l-10 490l144 25l-16 -438q0 -70 32.5 -109t100.5 -39t98 38t30 131l-12 392l140 25l-11 -440q0 -118 -79 -192t-204 -74zM206 808l11 102q128 -48 229 -78l-5 -72z" />
    <glyph glyph-name="Uacute" unicode="&#xda;" horiz-adv-x="651" 
d="M291 -11q-90 0 -151.5 55t-61.5 136l-10 490l144 25l-16 -438q0 -70 32.5 -109t100.5 -39t98 38t30 131l-12 392l140 25l-11 -440q0 -118 -79 -192t-204 -74zM435 910l11 -102q-131 -30 -235 -48l-5 72q85 25 229 78z" />
    <glyph glyph-name="Ucircumflex" unicode="&#xdb;" horiz-adv-x="651" 
d="M324 751l-144 85l15 62l129 -47l131 47l15 -62zM291 -11q-90 0 -151.5 55t-61.5 136l-10 490l144 25l-16 -438q0 -70 32.5 -109t100.5 -39t98 38t30 131l-12 392l140 25l-11 -440q0 -118 -79 -192t-204 -74z" />
    <glyph glyph-name="Udieresis" unicode="&#xdc;" horiz-adv-x="651" 
d="M291 -11q-90 0 -151.5 55t-61.5 136l-10 490l144 25l-16 -438q0 -70 32.5 -109t100.5 -39t98 38t30 131l-12 392l140 25l-11 -440q0 -118 -79 -192t-204 -74zM200 891q21 22 49 22t43 -15.5t15 -46t-21 -52.5t-48.5 -22t-43 18t-15.5 46t21 50zM362 891q21 22 50 22
q57 0 57 -58q0 -34 -20.5 -56t-48 -22t-43.5 18t-16 46t21 50z" />
    <glyph glyph-name="Yacute" unicode="&#xdd;" horiz-adv-x="569" 
d="M283 395h12l74 136l75 165l122 -18l-92 -167l-130 -254l11 -257h-140l10 240l-126 256l-96 175l141 25l65 -152zM398 910l11 -102q-131 -30 -235 -48l-5 72q86 25 229 78z" />
    <glyph glyph-name="Thorn" unicode="&#xde;" horiz-adv-x="509" 
d="M292 568q96 0 153 -54.5t57 -149.5t-72 -162.5t-176 -67.5h-51l6 -134h-134l12 243l-12 447h136l-4 -122h85zM256 467h-53l-6 -207l1 -29h70q50 0 77.5 33t27.5 94q0 109 -117 109z" />
    <glyph glyph-name="germandbls" unicode="&#xdf;" horiz-adv-x="607" 
d="M147.5 712q67.5 62 160 62t145.5 -43.5t53 -118.5q0 -37 -18 -70t-40 -53q-58 -53 -58 -93q0 -21 22.5 -38.5t54 -33t63.5 -34.5t54.5 -51t22.5 -74q0 -70 -57.5 -123t-132.5 -53q-48 0 -89.5 21t-59.5 42l-18 21l79 92q6 -8 17 -20t43.5 -32t62.5 -20q52 0 52 46
q0 18 -22.5 33.5t-54 31t-63.5 35.5t-54.5 54t-22.5 75t18 74t40 53q58 53 58 89t-31 56t-79.5 20t-70 -18.5t-21.5 -62.5l-2 -319l11 -235l-135 -25l12 243l-4 159h-66l11 82h53l-1 76q0 90 67.5 152z" />
    <glyph glyph-name="agrave" unicode="&#xe0;" horiz-adv-x="469" 
d="M61.5 37.5q-37.5 37.5 -37.5 101t58 110t141 46.5h68v17q0 49 -20 67t-75 18q-23 0 -54.5 -9.5t-70.5 -29.5l-29 79q43 30 104.5 54t101.5 24q157 0 157 -152v-196q0 -56 35 -125l-106 -45q-25 48 -37 86q-55 -83 -139 -83q-59 0 -96.5 37.5zM119 623l11 102
q128 -48 229 -78l-5 -72zM200 102q40 0 91 41v67q-53 12 -86 12q-63 0 -63 -56q0 -29 16 -46.5t42 -17.5z" />
    <glyph glyph-name="aacute" unicode="&#xe1;" horiz-adv-x="469" 
d="M61.5 37.5q-37.5 37.5 -37.5 101t58 110t141 46.5h68v17q0 49 -20 67t-75 18q-23 0 -54.5 -9.5t-70.5 -29.5l-29 79q43 30 104.5 54t101.5 24q157 0 157 -152v-196q0 -56 35 -125l-106 -45q-25 48 -37 86q-55 -83 -139 -83q-59 0 -96.5 37.5zM348 725l11 -102
q-131 -30 -235 -48l-5 72q85 25 229 78zM200 102q40 0 91 41v67q-53 12 -86 12q-63 0 -63 -56q0 -29 16 -46.5t42 -17.5z" />
    <glyph glyph-name="acircumflex" unicode="&#xe2;" horiz-adv-x="469" 
d="M61.5 37.5q-37.5 37.5 -37.5 101t58 110t141 46.5h68v17q0 49 -20 67t-75 18q-23 0 -54.5 -9.5t-70.5 -29.5l-29 79q43 30 104.5 54t101.5 24q157 0 157 -152v-196q0 -56 35 -125l-106 -45q-25 48 -37 86q-55 -83 -139 -83q-59 0 -96.5 37.5zM237 566l-144 85l15 62
l129 -47l131 47l15 -62zM200 102q40 0 91 41v67q-53 12 -86 12q-63 0 -63 -56q0 -29 16 -46.5t42 -17.5z" />
    <glyph glyph-name="atilde" unicode="&#xe3;" horiz-adv-x="469" 
d="M61.5 37.5q-37.5 37.5 -37.5 101t58 110t141 46.5h68v17q0 49 -20 67t-75 18q-23 0 -54.5 -9.5t-70.5 -29.5l-29 79q43 30 104.5 54t101.5 24q157 0 157 -152v-196q0 -56 35 -125l-106 -45q-25 48 -37 86q-55 -83 -139 -83q-59 0 -96.5 37.5zM375 703l28 -43
q-28 -34 -58.5 -60t-46.5 -26q-15 2 -66.5 21t-66.5 21l-66 -42l-28 43q28 34 58.5 60t46.5 26q15 -2 66.5 -21t66.5 -21zM200 102q40 0 91 41v67q-53 12 -86 12q-63 0 -63 -56q0 -29 16 -46.5t42 -17.5z" />
    <glyph glyph-name="adieresis" unicode="&#xe4;" horiz-adv-x="469" 
d="M61.5 37.5q-37.5 37.5 -37.5 101t58 110t141 46.5h68v17q0 49 -20 67t-75 18q-23 0 -54.5 -9.5t-70.5 -29.5l-29 79q43 30 104.5 54t101.5 24q157 0 157 -152v-196q0 -56 35 -125l-106 -45q-25 48 -37 86q-55 -83 -139 -83q-59 0 -96.5 37.5zM200 102q40 0 91 41v67
q-53 12 -86 12q-63 0 -63 -56q0 -29 16 -46.5t42 -17.5zM275 706q21 22 49 22q58 0 58 -58q0 -34 -20.5 -56t-48 -22t-43.5 18t-16 46t21 50zM113 706q21 22 49 22t43 -15.5t15 -46t-21 -52.5t-48.5 -22t-43 18t-15.5 46t21 50z" />
    <glyph glyph-name="aring" unicode="&#xe5;" horiz-adv-x="469" 
d="M61.5 37.5q-37.5 37.5 -37.5 101t58 110t141 46.5h68v17q0 49 -20 67t-75 18q-23 0 -54.5 -9.5t-70.5 -29.5l-29 79q43 30 104.5 54t101.5 24q157 0 157 -152v-196q0 -56 35 -125l-106 -45q-25 48 -37 86q-55 -83 -139 -83q-59 0 -96.5 37.5zM158 740q33 34 82 34t79 -28
t30 -79t-33 -86t-81 -35t-79 31.5t-31 80t33 82.5zM200 102q40 0 91 41v67q-53 12 -86 12q-63 0 -63 -56q0 -29 16 -46.5t42 -17.5zM276 703.5q-14 14.5 -37.5 14.5t-39 -16.5t-15.5 -41.5t14.5 -41.5t37 -16.5t38.5 18t16 43.5t-14 40z" />
    <glyph glyph-name="ae" unicode="&#xe6;" horiz-adv-x="699" 
d="M491 102q29 0 61 15t50 30l18 15l46 -56q-10 -17 -31 -39t-42.5 -37.5t-57 -28t-73.5 -12.5q-99 0 -150 88q-58 -88 -144 -88q-64 0 -104 37.5t-40 101t48.5 104.5t135.5 47l73 6v27q0 49 -18 67t-67 18q-23 0 -54.5 -9.5t-70.5 -29.5l-29 79q13 9 34 22t75 34.5t94 21.5
q96 0 123 -71q66 71 143.5 71t118 -41t40.5 -115q0 -36 -15 -98l-20 -21l-251 -18q15 -120 107 -120zM491 412q-41 0 -70.5 -33t-36.5 -85l168 15q3 21 3 36q0 67 -64 67zM281 209v6l-75 -5q-36 -2 -50 -14t-14 -41t18.5 -46.5t52.5 -17.5t78 38q-10 34 -10 80z" />
    <glyph glyph-name="ccedilla" unicode="&#xe7;" horiz-adv-x="385" 
d="M222 -125q0 31 -69 40l15 76q-64 11 -103 70.5t-39 147.5q0 122 71 214t166 92q29 0 58 -8.5t59 -26.5l-70 -123q-36 28 -80 28t-68 -31.5t-24 -96.5t24.5 -104.5t71.5 -39.5q24 0 47 15t35 30l11 16l50 -52q-33 -66 -94 -106q-25 -17 -52 -23l-6 -33q40 -10 61.5 -29.5
t21.5 -45.5q0 -37 -41 -67t-103 -38l-32 44q90 16 90 51z" />
    <glyph glyph-name="egrave" unicode="&#xe8;" horiz-adv-x="446" 
d="M238 102q29 0 61 15t50 30l18 15l46 -56q-10 -17 -31 -39t-42.5 -37.5t-57 -28t-73.5 -12.5q-81 0 -132 61.5t-51 158.5q0 122 71 214t166 92q73 0 113.5 -41t40.5 -115q0 -44 -15 -100l-20 -21l-250 -23q17 -113 106 -113zM128 623l11 102q128 -48 229 -78l-5 -72z
M238 412q-44 0 -74 -35.5t-35 -90.5l170 21q3 23 3 38q0 67 -64 67z" />
    <glyph glyph-name="eacute" unicode="&#xe9;" horiz-adv-x="446" 
d="M238 102q29 0 61 15t50 30l18 15l46 -56q-10 -17 -31 -39t-42.5 -37.5t-57 -28t-73.5 -12.5q-81 0 -132 61.5t-51 158.5q0 122 71 214t166 92q73 0 113.5 -41t40.5 -115q0 -44 -15 -100l-20 -21l-250 -23q17 -113 106 -113zM357 725l11 -102q-131 -30 -235 -48l-5 72
q86 25 229 78zM238 412q-44 0 -74 -35.5t-35 -90.5l170 21q3 23 3 38q0 67 -64 67z" />
    <glyph glyph-name="ecircumflex" unicode="&#xea;" horiz-adv-x="446" 
d="M238 102q29 0 61 15t50 30l18 15l46 -56q-10 -17 -31 -39t-42.5 -37.5t-57 -28t-73.5 -12.5q-81 0 -132 61.5t-51 158.5q0 122 71 214t166 92q73 0 113.5 -41t40.5 -115q0 -44 -15 -100l-20 -21l-250 -23q17 -113 106 -113zM246 566l-144 85l15 62l129 -47l131 47l15 -62
zM238 412q-44 0 -74 -35.5t-35 -90.5l170 21q3 23 3 38q0 67 -64 67z" />
    <glyph glyph-name="edieresis" unicode="&#xeb;" horiz-adv-x="446" 
d="M238 102q29 0 61 15t50 30l18 15l46 -56q-10 -17 -31 -39t-42.5 -37.5t-57 -28t-73.5 -12.5q-81 0 -132 61.5t-51 158.5q0 122 71 214t166 92q73 0 113.5 -41t40.5 -115q0 -44 -15 -100l-20 -21l-250 -23q17 -113 106 -113zM238 412q-44 0 -74 -35.5t-35 -90.5l170 21
q3 23 3 38q0 67 -64 67zM284 706q21 22 50 22q57 0 57 -58q0 -34 -20.5 -56t-48 -22t-43.5 18t-16 46t21 50zM122 706q21 22 49 22t43 -15.5t15 -46t-21 -52.5t-48.5 -22t-43 18t-15.5 46t21 50z" />
    <glyph glyph-name="igrave" unicode="&#xec;" 
d="M192 509l-12 -249l11 -235l-134 -25l12 243l-11 241zM5 623l11 102q128 -48 229 -78l-5 -72z" />
    <glyph glyph-name="iacute" unicode="&#xed;" 
d="M192 509l-12 -249l11 -235l-134 -25l12 243l-11 241zM234 725l11 -102q-131 -30 -235 -48l-5 72q85 25 229 78z" />
    <glyph glyph-name="icircumflex" unicode="&#xee;" 
d="M123 566l-144 85l15 62l129 -47l131 47l15 -62zM192 509l-12 -249l11 -235l-134 -25l12 243l-11 241z" />
    <glyph glyph-name="idieresis" unicode="&#xef;" 
d="M192 509l-12 -249l11 -235l-134 -25l12 243l-11 241zM-1 706q21 22 49 22t43 -15.5t15 -46t-21 -52.5t-48.5 -22t-43 18t-15.5 46t21 50zM161 706q21 22 49 22q58 0 58 -58q0 -34 -20.5 -56t-48 -22t-43.5 18t-16 46t21 50z" />
    <glyph glyph-name="eth" unicode="&#xf0;" horiz-adv-x="514" 
d="M485 261q0 -116 -70 -194t-176 -78q-87 0 -149 65t-62 157q0 115 58 185.5t150 70.5q43 0 80 -22q-38 72 -106 142l-143 -75l-9 45l119 62q-59 54 -122 102l128 59q39 -39 99 -105l135 71l11 -46l-116 -60q91 -109 132 -199.5t41 -179.5zM340.5 127q28.5 33 28.5 96.5
t-15 123.5q-50 24 -97 24q-108 0 -108 -139q0 -62 30 -100t81.5 -38t80 33z" />
    <glyph glyph-name="ntilde" unicode="&#xf1;" horiz-adv-x="523" 
d="M336 345q-12 23 -56 23t-100 -35v-73l11 -235l-134 -25l12 243q-4 134 -22 240l121 26q7 -58 10 -113q15 20 34 39.5t60 44t86.5 24.5t76.5 -35.5t31 -96.5l-6 -112l11 -240l-135 -25l12 258q0 69 -12 92zM414 703l28 -43q-28 -34 -58.5 -60t-46.5 -26q-15 2 -66.5 21
t-66.5 21l-66 -42l-28 43q28 34 58.5 60t46.5 26q15 -2 66.5 -21t66.5 -21z" />
    <glyph glyph-name="ograve" unicode="&#xf2;" horiz-adv-x="482" 
d="M97 426q69 89 161.5 89t144 -60t51.5 -159q0 -132 -66.5 -219.5t-167.5 -87.5q-83 0 -137.5 62.5t-54.5 157.5q0 128 69 217zM342 244q0 145 -99 145q-103 0 -103 -136q0 -71 29 -111t76.5 -40t72 36.5t24.5 105.5zM126 623l11 102q128 -48 229 -78l-5 -72z" />
    <glyph glyph-name="oacute" unicode="&#xf3;" horiz-adv-x="482" 
d="M97 426q69 89 161.5 89t144 -60t51.5 -159q0 -132 -66.5 -219.5t-167.5 -87.5q-83 0 -137.5 62.5t-54.5 157.5q0 128 69 217zM342 244q0 145 -99 145q-103 0 -103 -136q0 -71 29 -111t76.5 -40t72 36.5t24.5 105.5zM355 725l11 -102q-131 -30 -235 -48l-5 72
q86 25 229 78z" />
    <glyph glyph-name="ocircumflex" unicode="&#xf4;" horiz-adv-x="482" 
d="M244 566l-144 85l15 62l129 -47l131 47l15 -62zM97 426q69 89 161.5 89t144 -60t51.5 -159q0 -132 -66.5 -219.5t-167.5 -87.5q-83 0 -137.5 62.5t-54.5 157.5q0 128 69 217zM342 244q0 145 -99 145q-103 0 -103 -136q0 -71 29 -111t76.5 -40t72 36.5t24.5 105.5z" />
    <glyph glyph-name="otilde" unicode="&#xf5;" horiz-adv-x="482" 
d="M97 426q69 89 161.5 89t144 -60t51.5 -159q0 -132 -66.5 -219.5t-167.5 -87.5q-83 0 -137.5 62.5t-54.5 157.5q0 128 69 217zM342 244q0 145 -99 145q-103 0 -103 -136q0 -71 29 -111t76.5 -40t72 36.5t24.5 105.5zM382 703l28 -43q-28 -34 -58.5 -60t-46.5 -26
q-15 2 -66.5 21t-66.5 21l-66 -42l-28 43q28 34 58.5 60t46.5 26q15 -2 66.5 -21t66.5 -21z" />
    <glyph glyph-name="odieresis" unicode="&#xf6;" horiz-adv-x="482" 
d="M97 426q69 89 161.5 89t144 -60t51.5 -159q0 -132 -66.5 -219.5t-167.5 -87.5q-83 0 -137.5 62.5t-54.5 157.5q0 128 69 217zM342 244q0 145 -99 145q-103 0 -103 -136q0 -71 29 -111t76.5 -40t72 36.5t24.5 105.5zM120 706q21 22 49 22t43 -15.5t15 -46t-21 -52.5
t-48.5 -22t-43 18t-15.5 46t21 50zM282 706q21 22 50 22q57 0 57 -58q0 -34 -20.5 -56t-48 -22t-43.5 18t-16 46t21 50z" />
    <glyph glyph-name="divide" unicode="&#xf7;" horiz-adv-x="425" 
d="M17 215l8 91h383l-8 -91h-383zM162.5 478.5q23.5 24.5 55.5 24.5q66 0 66 -66q0 -38 -23.5 -63t-55 -25t-49 20.5t-17.5 52.5t23.5 56.5zM162.5 146.5q23.5 24.5 55.5 24.5q66 0 66 -66q0 -38 -23.5 -63t-55 -25t-49 20.5t-17.5 52.5t23.5 56.5z" />
    <glyph glyph-name="oslash" unicode="&#xf8;" horiz-adv-x="482" 
d="M265 515q46 0 84 -19l64 115l44 -18l-69 -124q66 -60 66 -182.5t-66.5 -210t-167.5 -87.5q-44 0 -86 21l-60 -109l-43 19l65 117q-68 65 -68 172q0 128 69 217t168 89zM317.5 138.5q24.5 36.5 24.5 105t-21 104.5l-127 -231q22 -15 60.5 -15t63 36.5zM140 253
q0 -61 21 -98l125 226q-19 8 -43 8q-103 0 -103 -136z" />
    <glyph glyph-name="ugrave" unicode="&#xf9;" horiz-adv-x="510" 
d="M178 0q-54 0 -87.5 35.5t-33.5 93.5l6 115l-11 240l134 25l-13 -304q0 -43 15.5 -63t49.5 -20t94 34v60l-11 263l135 25l-12 -250l1 -82q0 -64 33 -129l-104 -46q-33 65 -40 104q-90 -101 -156 -101zM140 623l11 102q128 -48 229 -78l-5 -72z" />
    <glyph glyph-name="uacute" unicode="&#xfa;" horiz-adv-x="510" 
d="M178 0q-54 0 -87.5 35.5t-33.5 93.5l6 115l-11 240l134 25l-13 -304q0 -43 15.5 -63t49.5 -20t94 34v60l-11 263l135 25l-12 -250l1 -82q0 -64 33 -129l-104 -46q-33 65 -40 104q-90 -101 -156 -101zM369 725l11 -102q-131 -30 -235 -48l-5 72q85 25 229 78z" />
    <glyph glyph-name="ucircumflex" unicode="&#xfb;" horiz-adv-x="510" 
d="M178 0q-54 0 -87.5 35.5t-33.5 93.5l6 115l-11 240l134 25l-13 -304q0 -43 15.5 -63t49.5 -20t94 34v60l-11 263l135 25l-12 -250l1 -82q0 -64 33 -129l-104 -46q-33 65 -40 104q-90 -101 -156 -101zM258 566l-144 85l15 62l129 -47l131 47l15 -62z" />
    <glyph glyph-name="udieresis" unicode="&#xfc;" horiz-adv-x="510" 
d="M178 0q-54 0 -87.5 35.5t-33.5 93.5l6 115l-11 240l134 25l-13 -304q0 -43 15.5 -63t49.5 -20t94 34v60l-11 263l135 25l-12 -250l1 -82q0 -64 33 -129l-104 -46q-33 65 -40 104q-90 -101 -156 -101zM296 706q21 22 50 22q57 0 57 -58q0 -34 -20.5 -56t-48 -22t-43.5 18
t-16 46t21 50zM134 706q21 22 49 22t43 -15.5t15 -46t-21 -52.5t-48.5 -22t-43 18t-15.5 46t21 50z" />
    <glyph glyph-name="yacute" unicode="&#xfd;" horiz-adv-x="465" 
d="M72 -193l103 231l-74 202l-101 243l133 25l64 -213l33 -101h13l24 73l72 242l123 -15l-177 -465l-84 -249zM344 725l11 -102q-131 -30 -235 -48l-5 72q85 25 229 78z" />
    <glyph glyph-name="thorn" unicode="&#xfe;" horiz-adv-x="499" 
d="M323 505q64 0 107.5 -56t43.5 -151q0 -133 -68.5 -215.5t-170.5 -82.5q-21 0 -47 3l5 -191l-137 -25l13 456l-12 506l137 25l-13 -258v-109q10 14 26 32.5t50.5 42t65.5 23.5zM284 375q-53 0 -103 -29v-86l4 -143q54 -9 82 -9q96 0 96 133.5t-79 133.5zM181 260l-111 -17
z" />
    <glyph glyph-name="ydieresis" unicode="&#xff;" horiz-adv-x="465" 
d="M72 -193l103 231l-74 202l-101 243l133 25l64 -213l33 -101h13l24 73l72 242l123 -15l-177 -465l-84 -249zM109 706q21 22 49 22t43 -15.5t15 -46t-21 -52.5t-48.5 -22t-43 18t-15.5 46t21 50zM271 706q21 22 49 22q58 0 58 -58q0 -34 -20.5 -56t-48 -22t-43.5 18t-16 46
t21 50z" />
    <glyph glyph-name="hbar" unicode="&#x127;" horiz-adv-x="525" 
d="M275 480q40 24 85.5 24t76.5 -35.5t31 -96.5l-6 -112l11 -240l-135 -25l12 258q0 69 -12 92t-56 23t-100 -35v-73l11 -235l-135 -25l12 243l-8 331h-70l5 47h64l-3 128l137 25l-8 -153h118l-4 -47h-116l-3 -59v-117q15 20 34 39t59 43z" />
    <glyph glyph-name="Itilde" unicode="&#x128;" horiz-adv-x="302" 
d="M222 695l-14 -435l12 -260h-140l12 243l-12 427zM290 888l28 -43q-28 -34 -58.5 -60t-46.5 -26q-15 2 -66.5 21t-66.5 21l-66 -42l-28 43q28 34 58.5 60t46.5 26q15 -2 66.5 -21t66.5 -21z" />
    <glyph glyph-name="itilde" unicode="&#x129;" 
d="M192 509l-12 -249l11 -235l-134 -25l12 243l-11 241zM261 703l28 -43q-28 -34 -58.5 -60t-46.5 -26q-15 2 -66.5 21t-66.5 21l-66 -42l-28 43q28 34 58.5 60t46.5 26q15 -2 66.5 -21t66.5 -21z" />
    <glyph glyph-name="dotlessi" unicode="&#x131;" 
d="M192 509l-12 -249l11 -235l-134 -25l12 243l-11 241z" />
    <glyph glyph-name="ij" unicode="&#x133;" horiz-adv-x="491" 
d="M192 509l-12 -249l11 -235l-134 -25l12 243l-11 241zM77 715.5q26 26.5 60 26.5t52 -18.5t18 -55.5t-25.5 -63.5t-59 -26.5t-52.5 22t-19 55.5t26 60zM247 -220q-41 0 -82 9l31 114q34 -9 63.5 -9t42.5 22t13 79l-1 248l-11 241l134 25l-12 -249l11 -226q0 -104 -56 -179
t-133 -75zM322 715.5q26 26.5 60.5 26.5t52 -18.5t17.5 -55t-25 -63.5t-58.5 -27t-53 21t-19.5 55.5t26 61z" />
    <glyph glyph-name="Jcircumflex" unicode="&#x134;" horiz-adv-x="353" 
d="M215 751l-144 85l15 62l129 -47l131 47l15 -62zM82 -10q-41 0 -82 9l32 120q33 -11 64 -11q61 0 61 101l-14 461l142 25l-14 -451q0 -109 -53 -181.5t-136 -72.5z" />
    <glyph glyph-name="jcircumflex" unicode="&#x135;" horiz-adv-x="247" 
d="M3 -220q-41 0 -82 9l31 114q34 -9 63.5 -9t42.5 22t13 79l-1 248l-11 241l134 25l-12 -249l11 -226q0 -104 -56 -179t-133 -75zM122 566l-144 85l15 62l129 -47l131 47l15 -62z" />
    <glyph glyph-name="kcedilla" unicode="&#x137;" horiz-adv-x="482" 
d="M147 -125q0 31 -69 40l18 92l-38 -7l12 243l-12 506l137 25l-13 -483l200 219l94 -64l-175 -164l183 -216l-114 -76l-188 277v-7l11 -235l-32 -6l-11 -59q40 -10 61.5 -29.5t21.5 -45.5q0 -37 -41 -67t-103 -38l-32 44q90 16 90 51z" />
    <glyph glyph-name="kgreenlandic" unicode="&#x138;" horiz-adv-x="482" 
d="M192 509l-11 -219l201 220l94 -64l-175 -164l183 -216l-114 -76l-190 280v-10l11 -235l-134 -25l12 243l-11 241z" />
    <glyph glyph-name="ldot" unicode="&#x140;" horiz-adv-x="377" 
d="M195 774l-13 -514l11 -235l-135 -25l12 243l-12 506zM245.5 351.5q23.5 24.5 56.5 24.5q65 0 65 -66q0 -38 -23.5 -63t-55 -25t-49 20.5t-17.5 52.5t23.5 56.5z" />
    <glyph glyph-name="Lslash" unicode="&#x141;" horiz-adv-x="446" 
d="M242 695l-8 -244l115 64l20 -44l-137 -76l-4 -135l7 -162l205 16l-11 -114h-329l12 243l-3 85l-88 -49l-18 44l105 58l-8 289z" />
    <glyph glyph-name="lslash" unicode="&#x142;" horiz-adv-x="273" 
d="M205 774l-8 -304l81 45l20 -44l-102 -57l-4 -154l11 -235l-135 -25l12 243l-3 106l-78 -43l-18 44l95 53l-8 346z" />
    <glyph glyph-name="Nacute" unicode="&#x143;" horiz-adv-x="689" 
d="M609 692l-13 -432l11 -238l-118 -25l-298 482v-219l14 -260h-125l12 243l-12 444l120 6l297 -489l-10 473zM456 910l11 -102q-131 -30 -235 -48l-5 72q85 25 229 78z" />
    <glyph glyph-name="nacute" unicode="&#x144;" horiz-adv-x="523" 
d="M336 345q-12 23 -56 23t-100 -35v-73l11 -235l-134 -25l12 243q-4 134 -22 240l121 26q7 -58 10 -113q15 20 34 39.5t60 44t86.5 24.5t76.5 -35.5t31 -96.5l-6 -112l11 -240l-135 -25l12 258q0 69 -12 92zM387 725l11 -102q-131 -30 -235 -48l-5 72q86 25 229 78z" />
    <glyph glyph-name="OE" unicode="&#x152;" horiz-adv-x="893" 
d="M301 0q-115 0 -193 89.5t-78 220.5q0 160 95.5 270t234.5 110h477l-11 -107h-260l-6 -177h235l-11 -106h-228l-1 -40l7 -154h277l-11 -106h-527zM339 573q-81 0 -127 -55t-46 -152q0 -127 48 -196t136 -69q51 0 69.5 15t18.5 58l-3 319q0 51 -18 65.5t-78 14.5z" />
    <glyph glyph-name="oe" unicode="&#x153;" horiz-adv-x="777" 
d="M569 102q29 0 61 15t50 30l18 15l46 -56q-10 -17 -31 -39t-42.5 -37.5t-57 -28t-73.5 -12.5q-103 0 -153 98q-64 -98 -167 -98q-83 0 -137.5 62.5t-54.5 157.5q0 128 69 217t168 89q53 0 94 -27.5t63 -76.5q71 104 172 104q73 0 113.5 -41t40.5 -115q0 -36 -15 -100
l-20 -21l-250 -22q17 -114 106 -114zM243 389q-103 0 -103 -136q0 -71 29 -111t77 -40q96 0 96 143.5t-99 143.5zM569 412q-43 0 -73 -35.5t-35 -91.5l169 22q3 23 3 38q0 67 -64 67z" />
    <glyph glyph-name="Racute" unicode="&#x154;" horiz-adv-x="579" 
d="M259 266h-57v-6l12 -260h-134l12 243l-12 447h217q96 0 153 -52t57 -138q0 -65 -33.5 -118.5t-90.5 -84.5l174 -246l-121 -62l-156 278q-7 -1 -21 -1zM261 589h-49l-7 -226h68q50 0 77.5 33t27.5 94q0 99 -117 99zM395 910l11 -102q-131 -30 -235 -48l-5 72q86 25 229 78
z" />
    <glyph glyph-name="Rcommaaccent" unicode="&#x156;" horiz-adv-x="579" 
d="M259 266h-57v-6l12 -260h-134l12 243l-12 447h217q96 0 153 -52t57 -138q0 -65 -33.5 -118.5t-90.5 -84.5l174 -246l-121 -62l-156 278q-7 -1 -21 -1zM261 589h-49l-7 -226h68q50 0 77.5 33t27.5 94q0 99 -117 99z" />
    <glyph glyph-name="rcommaaccent" unicode="&#x157;" horiz-adv-x="356" 
d="M47 483l121 26q9 -77 12 -146q91 141 171 141l-11 -156q-58 0 -91.5 -10.5t-68.5 -41.5v-36l11 -235l-134 -25l12 243q-4 134 -22 240zM200 -127q0 -85 -124 -180l-41 30q59 69 59 119q0 31 -26 79l98 39q34 -43 34 -87z" />
    <glyph glyph-name="Rcaron" unicode="&#x158;" horiz-adv-x="579" 
d="M259 266h-57v-6l12 -260h-134l12 243l-12 447h217q96 0 153 -52t57 -138q0 -65 -33.5 -118.5t-90.5 -84.5l174 -246l-121 -62l-156 278q-7 -1 -21 -1zM261 589h-49l-7 -226h68q50 0 77.5 33t27.5 94q0 99 -117 99zM284 751l-144 85l15 62l129 -47l131 47l15 -62z" />
    <glyph glyph-name="rcaron" unicode="&#x159;" horiz-adv-x="356" 
d="M47 483l121 26q9 -77 12 -146q91 141 171 141l-11 -156q-58 0 -91.5 -10.5t-68.5 -41.5v-36l11 -235l-134 -25l12 243q-4 134 -22 240zM117 566l-115 85l12 62l103 -47l105 47l12 -62z" />
    <glyph glyph-name="circumflex" unicode="&#x2c6;" 
d="M121 566l-144 85l15 62l129 -47l131 47l15 -62z" />
    <glyph glyph-name="tilde" unicode="&#x2dc;" 
d="M260 703l28 -43q-28 -34 -58.5 -60t-46.5 -26q-15 2 -66.5 21t-66.5 21l-66 -42l-28 43q28 34 58.5 60t46.5 26q15 -2 66.5 -21t66.5 -21z" />
    <glyph glyph-name="endash" unicode="&#x2013;" horiz-adv-x="425" 
d="M-8 215l8 91h433l-8 -91h-433z" />
    <glyph glyph-name="emdash" unicode="&#x2014;" horiz-adv-x="551" 
d="M-8 215l8 91h559l-8 -91h-559z" />
    <glyph glyph-name="quoteleft" unicode="&#x2018;" horiz-adv-x="193" 
d="M18 464q0 85 124 180l41 -30q-59 -69 -59 -119q0 -31 26 -79l-98 -39q-34 43 -34 87z" />
    <glyph glyph-name="quoteright" unicode="&#x2019;" horiz-adv-x="193" 
d="M175 557q0 -85 -124 -180l-41 30q59 69 59 119q0 31 -26 79l98 39q34 -43 34 -87z" />
    <glyph glyph-name="quotesinglbase" unicode="&#x201a;" horiz-adv-x="205" 
d="M165 67q0 -85 -124 -180l-41 30q59 69 59 119q0 31 -26 79l98 39q34 -43 34 -87z" />
    <glyph glyph-name="quotedblleft" unicode="&#x201c;" horiz-adv-x="363" 
d="M18 464q0 85 124 180l41 -30q-59 -69 -59 -119q0 -31 26 -79l-98 -39q-34 43 -34 87zM188 464q0 85 124 180l41 -30q-59 -69 -59 -119q0 -31 26 -79l-98 -39q-34 43 -34 87z" />
    <glyph glyph-name="quotedblright" unicode="&#x201d;" horiz-adv-x="363" 
d="M175 557q0 -85 -124 -180l-41 30q59 69 59 119q0 31 -26 79l98 39q34 -43 34 -87zM345 557q0 -85 -124 -180l-41 30q59 69 59 119q0 31 -26 79l98 39q34 -43 34 -87z" />
    <glyph glyph-name="quotedblbase" unicode="&#x201e;" horiz-adv-x="375" 
d="M165 67q0 -85 -124 -180l-41 30q59 69 59 119q0 31 -26 79l98 39q34 -43 34 -87zM335 67q0 -85 -124 -180l-41 30q59 69 59 119q0 31 -26 79l98 39q34 -43 34 -87z" />
    <glyph glyph-name="bullet" unicode="&#x2022;" horiz-adv-x="298" 
d="M75.5 340q35.5 37 83.5 37t73 -26t25 -78t-35 -89.5t-82.5 -37.5t-73.5 30.5t-26 78.5t35.5 85z" />
    <glyph glyph-name="guilsinglleft" unicode="&#x2039;" horiz-adv-x="247" 
d="M127 265l105 -136l-58 -48l-167 177l167 187l58 -48z" />
    <glyph glyph-name="guilsinglright" unicode="&#x203a;" horiz-adv-x="247" 
d="M120 261l-105 136l58 48l167 -177l-167 -187l-58 48z" />
    <glyph glyph-name="Euro" unicode="&#x20ac;" horiz-adv-x="586" 
d="M280 142.5q35 -34.5 83 -34.5t83 27.5t50 73.5l80 -46q-31 -82 -94 -128t-149.5 -46t-154.5 72t-81 182h-84l5 47h77q0 42 7 77h-89l5 47h95q31 106 105.5 171t169.5 65q48 0 89.5 -10t58.5 -20l18 -10l-65 -132q-24 20 -60.5 35.5t-77 15.5t-74 -30t-47.5 -85h226
l-4 -47h-229q-1 -9 -1 -35.5t2 -41.5h232l-4 -47h-221q14 -66 49 -100.5z" />
    <glyph glyph-name="fi" unicode="&#xfb01;" horiz-adv-x="547" 
d="M269 774q42 0 87 -9l-31 -114q-37 9 -67 9t-43.5 -18t-13.5 -63l-1 -94h166l129 24l-12 -249l11 -235l-134 -25l12 243l-8 160h-164l-1 -143l11 -235l-135 -25l12 243l-4 160h-66l11 82h53l-1 75q0 89 55 151.5t134 62.5zM380 715.5q26 26.5 60 26.5t52 -18.5t18 -55.5
t-25.5 -63.5t-59 -26.5t-52.5 22t-19 55.5t26 60z" />
    <glyph glyph-name="fl" unicode="&#xfb02;" horiz-adv-x="564" 
d="M367 646q-77 14 -108 14t-44.5 -17.5t-13.5 -63.5l-1 -95h108l-11 -82h-97l-1 -142l11 -235l-135 -25l12 243l-4 159h-66l11 82h53l-1 76q0 90 55 152t138 62q50 0 137 -17l92 17l-13 -514l11 -235l-135 -25l12 243z" />
    <glyph glyph-name="foundryicon" horiz-adv-x="783" 
d="M265 342v116h-74v-344h74v180q0 12 24 12q43 0 43 -56v-136h74v178q0 32 -22 52.5t-56 20.5q-55 -32 -59 -32t-4 9zM435 323h26q10 0 10 -10v-132q0 -32 22 -52.5t56 -20.5l63 37v25q-12 -4 -26 -4q-41 0 -41 57v90q0 10 10 10h58v36h-58q-10 0 -10 10v28h-21l-89 -56
v-18zM180 -38q-80 0 -80 80v423q0 80 80 80h423q80 0 80 -80v-423q0 -80 -80 -80h-423z" />
  </font>
</defs>
</svg>
