<?xml version="1.0" standalone="no"?>
<!DOCTYPE svg PUBLIC "-//W3C//DTD SVG 1.1//EN" "http://www.w3.org/Graphics/SVG/1.1/DTD/svg11.dtd" >
<svg xmlns="http://www.w3.org/2000/svg" xmlns:xlink="http://www.w3.org/1999/xlink" version="1.1">
<metadata>
Created by FontForge 20170924 at Tue Jul 14 11:00:33 2015
 By Glenn,,,
Copyright (c) 2015 by Hubert &#38; Fischer. All rights reserved.
</metadata>
<defs>
<font id="Rubik-MediumItalic" horiz-adv-x="617" >
  <font-face 
    font-family="Rubik Medium"
    font-weight="500"
    font-style="italic"
    font-stretch="normal"
    units-per-em="1000"
    panose-1="2 0 6 4 0 0 0 2 0 4"
    ascent="800"
    descent="-200"
    x-height="520"
    cap-height="700"
    bbox="-290.562 -250 1194.26 910"
    underline-thickness="50"
    underline-position="-100"
    slope="-12"
    unicode-range="U+000D-FB4A"
  />
<missing-glyph horiz-adv-x="290" 
 />
    <glyph glyph-name="f_f" unicode="ff" horiz-adv-x="763" 
d="M629 520h139q11 0 17 -8t4 -19l-14 -66q-2 -11 -11.5 -19t-20.5 -8h-139l-80 -373q-2 -11 -11.5 -19t-20.5 -8h-76q-11 0 -17.5 8t-4.5 19l80 373h-205l-80 -373q-2 -11 -11.5 -19t-20.5 -8h-76q-11 0 -17.5 8t-4.5 19l80 373h-66q-11 0 -17.5 8t-4.5 19l14 66
q2 11 12 19t21 8h66l10 45q10 48 29.5 81.5t48 54.5t65.5 30t82 9h91q11 0 17 -8t4 -19l-14 -66q-2 -11 -12 -19t-21 -8h-71q-30 0 -57 -14t-35 -51l-7 -35h205l10 45q10 48 29.5 81.5t48 54.5t65.5 30t82 9h91q11 0 17 -8t4 -19l-14 -66q-2 -11 -12 -19t-21 -8h-71
q-30 0 -57 -14t-35 -51z" />
    <glyph glyph-name="f_f_i" unicode="ffi" horiz-adv-x="976" 
d="M850 27q-2 -11 -11.5 -19t-20.5 -8h-76q-11 0 -17.5 8t-4.5 19l79 373h-195l-80 -373q-2 -11 -11.5 -19t-20.5 -8h-76q-11 0 -17.5 8t-4.5 19l80 373h-205l-80 -373q-2 -11 -11.5 -19t-20.5 -8h-76q-11 0 -17.5 8t-4.5 19l80 373h-66q-11 0 -17.5 8t-4.5 19l14 66
q2 11 12 19t21 8h66l10 45q10 48 29.5 81.5t48 54.5t65.5 30t82 9h91q11 0 17 -8t4 -19l-14 -66q-2 -11 -12 -19t-21 -8h-71q-30 0 -57 -14t-35 -51l-7 -35h205l10 45q10 48 29.5 81.5t48 54.5t65.5 30t82 9h241q11 0 17 -8t4 -19l-14 -66q-2 -11 -12 -19t-21 -8h-221
q-30 0 -57 -14t-35 -51l-7 -35h299q11 0 17 -8t4 -19z" />
    <glyph glyph-name="f_f_l" unicode="ffl" horiz-adv-x="985" 
d="M629 520h205l41 193q2 11 11.5 19t20.5 8h76q11 0 17.5 -8t4.5 -19l-146 -686q-2 -11 -11.5 -19t-20.5 -8h-76q-11 0 -17.5 8t-4.5 19l79 373h-204l-80 -373q-2 -11 -11.5 -19t-20.5 -8h-76q-11 0 -17.5 8t-4.5 19l80 373h-205l-80 -373q-2 -11 -11.5 -19t-20.5 -8h-76
q-11 0 -17.5 8t-4.5 19l80 373h-66q-11 0 -17.5 8t-4.5 19l14 66q2 11 12 19t21 8h66l10 45q10 48 29.5 81.5t48 54.5t65.5 30t82 9h91q11 0 17 -8t4 -19l-14 -66q-2 -11 -12 -19t-21 -8h-71q-30 0 -57 -14t-35 -51l-7 -35h205l10 45q10 48 29.5 81.5t48 54.5t65.5 30t82 9
h91q11 0 17 -8t4 -19l-14 -66q-2 -11 -12 -19t-21 -8h-71q-30 0 -57 -14t-35 -51z" />
    <glyph glyph-name="fi" unicode="fi" horiz-adv-x="641" 
d="M515 27q-2 -11 -11.5 -19t-20.5 -8h-76q-11 0 -17.5 8t-4.5 19l79 373h-195l-80 -373q-2 -11 -11.5 -19t-20.5 -8h-76q-11 0 -17.5 8t-4.5 19l80 373h-66q-11 0 -17.5 8t-4.5 19l14 66q2 11 12 19t21 8h66l10 45q10 48 29.5 81.5t48 54.5t65.5 30t82 9h241q11 0 17 -8
t4 -19l-14 -66q-2 -11 -12 -19t-21 -8h-221q-30 0 -57 -14t-35 -51l-7 -35h299q11 0 17 -8t4 -19z" />
    <glyph glyph-name="fl" unicode="fl" horiz-adv-x="650" 
d="M294 520h205l41 193q2 11 11.5 19t20.5 8h76q11 0 17.5 -8t4.5 -19l-146 -686q-2 -11 -11.5 -19t-20.5 -8h-76q-11 0 -17.5 8t-4.5 19l79 373h-204l-80 -373q-2 -11 -11.5 -19t-20.5 -8h-76q-11 0 -17.5 8t-4.5 19l80 373h-66q-11 0 -17.5 8t-4.5 19l14 66q2 11 12 19
t21 8h66l10 45q10 48 29.5 81.5t48 54.5t65.5 30t82 9h91q11 0 17 -8t4 -19l-14 -66q-2 -11 -12 -19t-21 -8h-71q-30 0 -57 -14t-35 -51z" />
    <glyph glyph-name=".notdef" horiz-adv-x="290" 
 />
    <glyph glyph-name=".null" horiz-adv-x="0" 
 />
    <glyph glyph-name=".null" horiz-adv-x="0" 
 />
    <glyph glyph-name="nonmarkingreturn" unicode="&#xd;" horiz-adv-x="290" 
 />
    <glyph glyph-name="space" unicode=" " horiz-adv-x="232" 
 />
    <glyph glyph-name="cedilla" unicode="&#xb8;" horiz-adv-x="254" 
d="M183 27l-56 -83q7 4 16.5 7t20.5 3q33 0 49 -26.5t8 -62.5t-33 -60.5t-74 -24.5q-18 0 -36 5t-30 12.5t-16 16.5t6 17l16 13q10 7 15 7t10.5 -3.5t13.5 -7.5t23 -4q38 0 44 32q6 30 -31 30q-8 0 -16 -3t-15 -5t-13 -2t-11 6l-12 18q-5 8 -5 13.5t10 19.5l55 82h61z" />
    <glyph glyph-name="circumflex" unicode="&#x2c6;" horiz-adv-x="360" 
d="M252 745q11 0 18 -4t15 -15l70 -102q7 -10 0.5 -19.5t-17.5 -9.5h-36q-10 0 -15.5 2.5t-13.5 8.5l-62 47l-86 -47q-10 -6 -16.5 -8.5t-16.5 -2.5h-50q-11 0 -13 10t8 19l114 102q12 11 21 15t20 4h60z" />
    <glyph glyph-name="commaaccent" unicode="&#xf6c3;" horiz-adv-x="234" 
d="M83 -89q5 14 18 26.5t33 12.5h81q13 0 16.5 -10t-1.5 -19l-85 -139q-6 -10 -18 -21t-32 -11h-46q-12 0 -16 7.5t-1 16.5z" />
    <glyph glyph-name="dieresis" unicode="&#xa8;" horiz-adv-x="394" 
d="M165 737q11 0 17 -8t4 -19l-18 -88q-2 -11 -12 -19t-21 -8h-83q-11 0 -17 8t-4 19l18 88q2 11 12 19t21 8h83zM372 737q11 0 17 -8t4 -19l-18 -88q-2 -11 -12 -19t-21 -8h-83q-11 0 -17 8t-4 19l18 88q2 11 12 19t21 8h83z" />
    <glyph glyph-name="dotaccent" unicode="&#x2d9;" horiz-adv-x="193" 
d="M171 742q11 0 17 -8t4 -19l-19 -93q-2 -11 -12 -19t-21 -8h-88q-11 0 -17 8t-4 19l19 93q3 11 12.5 19t20.5 8h88z" />
    <glyph glyph-name="hungarumlaut" unicode="&#x2dd;" horiz-adv-x="456" 
d="M105 726q7 10 16 14.5t25 4.5h93q14 0 15.5 -12t-8.5 -20l-118 -104q-16 -14 -37 -14h-48q-11 0 -12 8.5t4 16.5zM306 726q7 10 16 14.5t25 4.5h93q14 0 15.5 -12t-8.5 -20l-118 -104q-16 -14 -37 -14h-48q-11 0 -12 8.5t4 16.5z" />
    <glyph glyph-name="grave" unicode="`" horiz-adv-x="248" 
d="M245 624q6 -10 0 -19.5t-17 -9.5h-55q-16 0 -23.5 5t-14.5 12l-99 98q-10 10 -3.5 22.5t21.5 12.5h95q11 0 18 -2.5t15 -16.5z" />
    <glyph glyph-name="macron" unicode="&#xaf;" horiz-adv-x="359" 
d="M52 595q-11 0 -17 8t-4 19l14 66q2 11 11.5 19t20.5 8h259q11 0 17.5 -8t4.5 -19l-14 -66q-2 -11 -12 -19t-21 -8h-259z" />
    <glyph glyph-name="ogonek" unicode="&#x2db;" horiz-adv-x="256" 
d="M153 -220q-27 0 -51.5 12.5t-42 35t-25.5 52.5t0 66q15 72 62 109t123 37h19q22 0 17 -22l-10 -48q-5 -22 -26 -22h-15q-26 0 -45.5 -16.5t-26.5 -47.5t5.5 -47.5t38.5 -16.5h15q21 0 18 -22l-11 -48q-2 -10 -9 -16t-17 -6h-19z" />
    <glyph glyph-name="ring" unicode="&#x2da;" horiz-adv-x="216" 
d="M93 675q-3 -13 3 -21.5t19 -8.5t24 8.5t14 21.5t-3 21.5t-19 8.5t-24 -8.5t-14 -21.5zM33 675q9 38 37.5 61.5t70.5 23.5q17 0 32 -6.5t25.5 -17.5t14.5 -26.5t0 -34.5q-9 -38 -37.5 -61.5t-70.5 -23.5q-17 0 -32 6t-25.5 17.5t-15 27t0.5 34.5z" />
    <glyph glyph-name="tilde" unicode="&#x2dc;" horiz-adv-x="390" 
d="M259 590q-22 0 -36 5.5t-24.5 11.5t-20.5 11.5t-24 5.5q-12 0 -18 -4.5t-11 -10t-9.5 -10t-13.5 -4.5h-56q-9 0 -13 5.5t-2 13.5q4 19 15 39.5t27.5 37.5t38.5 28t49 11q22 0 35.5 -5.5t24 -11.5t20.5 -11.5t24 -5.5q12 0 18.5 4.5t11 10t9.5 10t14 4.5h56q9 0 13 -5.5
t2 -13.5q-4 -19 -15 -39.5t-27.5 -37.5t-38.5 -28t-49 -11z" />
    <glyph glyph-name="Acute" unicode="&#xf6c9;" horiz-adv-x="303" 
d="M146 881q14 13 22 16t19 3h100q14 0 15.5 -12.5t-8.5 -19.5l-144 -101q-10 -7 -20 -12t-26 -5h-60q-13 0 -13.5 10.5t8.5 18.5z" />
    <glyph glyph-name="Breve" horiz-adv-x="332" 
d="M163 745q-39 0 -65.5 12.5t-42.5 32t-21.5 43.5t-0.5 48q2 8 8 13.5t15 5.5h57q9 0 12.5 -5.5t2.5 -13.5q-3 -22 6.5 -36t36.5 -14t43.5 14t21.5 36q2 8 8 13.5t15 5.5h57q9 0 13 -5.5t2 -13.5q-5 -24 -14.5 -48t-28.5 -43.5t-49 -32t-76 -12.5z" />
    <glyph glyph-name="Caron" unicode="&#xf6ca;" horiz-adv-x="369" 
d="M137 750q-11 0 -18 4t-15 15l-70 102q-7 10 -1 19.5t18 9.5h35q10 0 15.5 -2.5t13.5 -8.5l70 -47l87 47q10 5 16.5 8t16.5 3h48q14 0 15.5 -11t-9.5 -20l-112 -100q-12 -11 -21 -15t-20 -4h-69z" />
    <glyph glyph-name="Cedilla" horiz-adv-x="254" 
d="M183 27l-56 -83q7 4 16.5 7t20.5 3q33 0 49 -26.5t8 -62.5t-33 -60.5t-74 -24.5q-18 0 -36 5t-30 12.5t-16 16.5t6 17l16 13q10 7 15 7t10.5 -3.5t13.5 -7.5t23 -4q38 0 44 32q6 30 -31 30q-8 0 -16 -3t-15 -5t-13 -2t-11 6l-12 18q-5 8 -5 13.5t10 19.5l55 82h61z" />
    <glyph glyph-name="Circumflex" horiz-adv-x="369" 
d="M262 900q11 0 18 -4t15 -15l70 -102q7 -10 1 -19.5t-18 -9.5h-35q-10 0 -15.5 2.5t-13.5 8.5l-70 47l-87 -47q-10 -5 -16.5 -8t-16.5 -3h-48q-14 0 -15.5 11t9.5 20l112 100q12 11 21 15t20 4h69z" />
    <glyph glyph-name="commaaccent.cap" horiz-adv-x="239" 
d="M83 -89q5 14 18 26.5t33 12.5h87q13 0 16.5 -10t-2.5 -21l-84 -137q-6 -10 -18 -21t-32 -11h-52q-12 0 -16 8t-1 16z" />
    <glyph glyph-name="Dieresis" unicode="&#xf6cb;" horiz-adv-x="424" 
d="M165 892q11 0 17 -8t4 -19l-18 -88q-2 -11 -12 -19t-21 -8h-83q-11 0 -17 8t-4 19l18 88q2 11 12 19t21 8h83zM402 892q11 0 17 -8t4 -19l-18 -88q-2 -11 -12 -19t-21 -8h-83q-11 0 -17 8t-4 19l18 88q2 11 12 19t21 8h83z" />
    <glyph glyph-name="Dotaccent" horiz-adv-x="193" 
d="M171 897q11 0 17 -8t4 -19l-19 -93q-2 -11 -12 -19t-21 -8h-88q-11 0 -17.5 8t-3.5 19l19 93q2 11 12 19t21 8h88z" />
    <glyph glyph-name="Hungarumlaut" unicode="&#xf6cf;" horiz-adv-x="469" 
d="M106 881q7 10 16 14.5t25 4.5h98q15 0 17 -11t-8 -19l-120 -106q-16 -14 -37 -14h-53q-11 0 -13 7.5t4 16.5zM312 881q7 10 16 14.5t25 4.5h98q15 0 17 -11t-8 -19l-120 -106q-16 -14 -37 -14h-53q-11 0 -13 7.5t4 16.5z" />
    <glyph glyph-name="Grave" unicode="&#xf6ce;" horiz-adv-x="252" 
d="M249 779q6 -10 0 -19.5t-17 -9.5h-60q-16 0 -23.5 5t-14.5 12l-98 97q-9 9 -4 22.5t21 13.5h100q11 0 18 -2.5t15 -16.5z" />
    <glyph glyph-name="Macron" unicode="&#xf6d0;" horiz-adv-x="379" 
d="M52 750q-11 0 -17.5 8t-3.5 19l14 66q2 11 11.5 19t20.5 8h279q11 0 17.5 -8t4.5 -19l-14 -66q-2 -11 -12 -19t-21 -8h-279z" />
    <glyph glyph-name="Ogonek" horiz-adv-x="256" 
d="M153 -220q-27 0 -51.5 12.5t-42 35t-25.5 52.5t0 66q15 72 62 109t123 37h19q22 0 17 -22l-10 -48q-5 -22 -26 -22h-15q-26 0 -45.5 -16.5t-26.5 -47.5t5.5 -47.5t38.5 -16.5h15q21 0 18 -22l-11 -48q-2 -10 -9 -16t-17 -6h-19z" />
    <glyph glyph-name="Ring" horiz-adv-x="216" 
d="M93 825q-3 -13 3 -21.5t19 -8.5t24 8.5t14 21.5t-3 21.5t-19 8.5t-24 -8.5t-14 -21.5zM33 825q9 38 37.5 61.5t70.5 23.5q17 0 32 -6.5t25.5 -17.5t14.5 -26.5t0 -34.5q-9 -38 -37.5 -61.5t-70.5 -23.5q-17 0 -32 6t-25.5 17.5t-15 27t0.5 34.5z" />
    <glyph glyph-name="Tilde" horiz-adv-x="400" 
d="M269 745q-22 0 -37.5 5.5t-28 11.5t-24 11.5t-25.5 5.5q-12 0 -18 -4.5t-11 -10t-9.5 -10t-13.5 -4.5h-56q-9 0 -13 5.5t-2 13.5q4 19 15 39.5t27.5 37.5t38.5 28t49 11q22 0 37 -5.5t27.5 -11.5t24 -11.5t25.5 -5.5q12 0 18.5 4.5t11 10t9.5 10t14 4.5h56q9 0 13 -5.5
t2 -13.5q-4 -19 -15 -39.5t-27.5 -37.5t-38.5 -28t-49 -11z" />
    <glyph glyph-name="A" unicode="A" horiz-adv-x="704" 
d="M494 700q16 0 22 -8.5t9 -25.5l111 -632q2 -14 -8.5 -24t-24.5 -10h-67q-20 0 -26 8.5t-8 16.5l-20 111h-316l-66 -111q-5 -8 -14.5 -16.5t-29.5 -8.5h-80q-14 0 -20 11.5t1 22.5l379 632q10 17 19.5 25.5t25.5 8.5h113zM461 261l-49 285l-171 -285h220z" />
    <glyph glyph-name="Aacute" unicode="&#xc1;" horiz-adv-x="704" 
d="M494 700q16 0 22 -8.5t9 -25.5l111 -632q2 -14 -8.5 -24t-24.5 -10h-67q-20 0 -26 8.5t-8 16.5l-20 111h-316l-66 -111q-5 -8 -14.5 -16.5t-29.5 -8.5h-80q-14 0 -20 11.5t1 22.5l379 632q10 17 19.5 25.5t25.5 8.5h113zM461 261l-49 285l-171 -285h220zM519 881
q14 13 22 16t19 3h100q14 0 15.5 -12.5t-8.5 -19.5l-144 -101q-10 -7 -20 -12t-26 -5h-60q-13 0 -13.5 10.5t8.5 18.5z" />
    <glyph glyph-name="Abreve" unicode="&#x102;" horiz-adv-x="704" 
d="M494 700q16 0 22 -8.5t9 -25.5l111 -632q2 -14 -8.5 -24t-24.5 -10h-67q-20 0 -26 8.5t-8 16.5l-20 111h-316l-66 -111q-5 -8 -14.5 -16.5t-29.5 -8.5h-80q-14 0 -20 11.5t1 22.5l379 632q10 17 19.5 25.5t25.5 8.5h113zM461 261l-49 285l-171 -285h220zM445 745
q-39 0 -65.5 12.5t-42.5 32t-21.5 43.5t-0.5 48q2 8 8 13.5t15 5.5h57q9 0 12.5 -5.5t2.5 -13.5q-3 -22 6.5 -36t36.5 -14t43.5 14t21.5 36q2 8 8 13.5t15 5.5h57q9 0 13 -5.5t2 -13.5q-5 -24 -14.5 -48t-28.5 -43.5t-49 -32t-76 -12.5z" />
    <glyph glyph-name="Acircumflex" unicode="&#xc2;" horiz-adv-x="704" 
d="M494 700q16 0 22 -8.5t9 -25.5l111 -632q2 -14 -8.5 -24t-24.5 -10h-67q-20 0 -26 8.5t-8 16.5l-20 111h-316l-66 -111q-5 -8 -14.5 -16.5t-29.5 -8.5h-80q-14 0 -20 11.5t1 22.5l379 632q10 17 19.5 25.5t25.5 8.5h113zM461 261l-49 285l-171 -285h220zM500 900
q11 0 18 -4t15 -15l70 -102q7 -10 1 -19.5t-18 -9.5h-35q-10 0 -15.5 2.5t-13.5 8.5l-70 47l-87 -47q-10 -5 -16.5 -8t-16.5 -3h-48q-14 0 -15.5 11t9.5 20l112 100q12 11 21 15t20 4h69z" />
    <glyph glyph-name="Agrave" unicode="&#xc0;" horiz-adv-x="704" 
d="M494 700q16 0 22 -8.5t9 -25.5l111 -632q2 -14 -8.5 -24t-24.5 -10h-67q-20 0 -26 8.5t-8 16.5l-20 111h-316l-66 -111q-5 -8 -14.5 -16.5t-29.5 -8.5h-80q-14 0 -20 11.5t1 22.5l379 632q10 17 19.5 25.5t25.5 8.5h113zM461 261l-49 285l-171 -285h220zM504 779
q6 -10 0 -19.5t-17 -9.5h-60q-16 0 -23.5 5t-14.5 12l-98 97q-9 9 -4 22.5t21 13.5h100q11 0 18 -2.5t15 -16.5z" />
    <glyph glyph-name="Adieresis" unicode="&#xc4;" horiz-adv-x="704" 
d="M494 700q16 0 22 -8.5t9 -25.5l111 -632q2 -14 -8.5 -24t-24.5 -10h-67q-20 0 -26 8.5t-8 16.5l-20 111h-316l-66 -111q-5 -8 -14.5 -16.5t-29.5 -8.5h-80q-14 0 -20 11.5t1 22.5l379 632q10 17 19.5 25.5t25.5 8.5h113zM461 261l-49 285l-171 -285h220zM398 892
q11 0 17 -8t4 -19l-18 -88q-2 -11 -12 -19t-21 -8h-83q-11 0 -17 8t-4 19l18 88q2 11 12 19t21 8h83zM635 892q11 0 17 -8t4 -19l-18 -88q-2 -11 -12 -19t-21 -8h-83q-11 0 -17 8t-4 19l18 88q2 11 12 19t21 8h83z" />
    <glyph glyph-name="Amacron" unicode="&#x100;" horiz-adv-x="704" 
d="M494 700q16 0 22 -8.5t9 -25.5l111 -632q2 -14 -8.5 -24t-24.5 -10h-67q-20 0 -26 8.5t-8 16.5l-20 111h-316l-66 -111q-5 -8 -14.5 -16.5t-29.5 -8.5h-80q-14 0 -20 11.5t1 22.5l379 632q10 17 19.5 25.5t25.5 8.5h113zM461 261l-49 285l-171 -285h220zM306 750
q-11 0 -17.5 8t-3.5 19l14 66q2 11 11.5 19t20.5 8h279q11 0 17.5 -8t4.5 -19l-14 -66q-2 -11 -12 -19t-21 -8h-279z" />
    <glyph glyph-name="Aogonek" unicode="&#x104;" horiz-adv-x="704" 
d="M494 700q16 0 22 -8.5t9 -25.5l111 -632q2 -14 -8.5 -24t-24.5 -10h-15q-26 0 -45.5 -16.5t-26.5 -47.5t5.5 -47.5t38.5 -16.5h15q21 0 18 -22l-11 -48q-2 -10 -9 -16t-17 -6h-19q-27 0 -51.5 12.5t-42 35t-25.5 52.5t0 66q16 82 77 118l-13 72h-316l-66 -111
q-5 -8 -14.5 -16.5t-29.5 -8.5h-80q-14 0 -20 11.5t1 22.5l379 632q10 17 19.5 25.5t25.5 8.5h113zM461 261l-49 285l-171 -285h220z" />
    <glyph glyph-name="Aring" unicode="&#xc5;" horiz-adv-x="704" 
d="M494 700q16 0 22 -8.5t9 -25.5l111 -632q2 -14 -8.5 -24t-24.5 -10h-67q-20 0 -26 8.5t-8 16.5l-20 111h-316l-66 -111q-5 -8 -14.5 -16.5t-29.5 -8.5h-80q-14 0 -20 11.5t1 22.5l379 632q10 17 19.5 25.5t25.5 8.5h113zM461 261l-49 285l-171 -285h220zM431 825
q-3 -13 3 -21.5t19 -8.5t24 8.5t14 21.5t-3 21.5t-19 8.5t-24 -8.5t-14 -21.5zM371 825q9 38 37.5 61.5t70.5 23.5q17 0 32 -6.5t25.5 -17.5t14.5 -26.5t0 -34.5q-9 -38 -37.5 -61.5t-70.5 -23.5q-17 0 -32 6t-25.5 17.5t-15 27t0.5 34.5z" />
    <glyph glyph-name="Atilde" unicode="&#xc3;" horiz-adv-x="704" 
d="M494 700q16 0 22 -8.5t9 -25.5l111 -632q2 -14 -8.5 -24t-24.5 -10h-67q-20 0 -26 8.5t-8 16.5l-20 111h-316l-66 -111q-5 -8 -14.5 -16.5t-29.5 -8.5h-80q-14 0 -20 11.5t1 22.5l379 632q10 17 19.5 25.5t25.5 8.5h113zM461 261l-49 285l-171 -285h220zM524 745
q-22 0 -37.5 5.5t-28 11.5t-24 11.5t-25.5 5.5q-12 0 -18 -4.5t-11 -10t-9.5 -10t-13.5 -4.5h-56q-9 0 -13 5.5t-2 13.5q4 19 15 39.5t27.5 37.5t38.5 28t49 11q22 0 37 -5.5t27.5 -11.5t24 -11.5t25.5 -5.5q12 0 18.5 4.5t11 10t9.5 10t14 4.5h56q9 0 13 -5.5t2 -13.5
q-4 -19 -15 -39.5t-27.5 -37.5t-38.5 -28t-49 -11z" />
    <glyph glyph-name="AE" unicode="&#xc6;" horiz-adv-x="1011" 
d="M902 125q11 0 17.5 -8t3.5 -19l-15 -71q-2 -11 -11.5 -19t-20.5 -8h-439q-11 0 -17.5 8t-4.5 19l23 109h-261l-88 -111q-6 -8 -16.5 -16.5t-27.5 -8.5h-79q-11 0 -17.5 8t-4.5 19q1 5 7 12l502 628q8 11 20 22t32 11h511q11 0 17.5 -8t4.5 -19l-16 -71q-2 -11 -11.5 -19
t-20.5 -8h-323l-34 -159h301q11 0 17 -8t4 -19l-15 -71q-2 -11 -12 -19t-21 -8h-301l-35 -166h331zM465 261l67 315l-254 -315h187z" />
    <glyph glyph-name="AEacute" unicode="&#x1fc;" horiz-adv-x="1011" 
d="M694 881q14 13 22 16t19 3h100q14 0 15.5 -12.5t-8.5 -19.5l-144 -101q-10 -7 -20 -12t-26 -5h-60q-13 0 -13.5 10.5t8.5 18.5zM902 125q11 0 17.5 -8t3.5 -19l-15 -71q-2 -11 -11.5 -19t-20.5 -8h-439q-11 0 -17.5 8t-4.5 19l23 109h-261l-88 -111q-6 -8 -16.5 -16.5
t-27.5 -8.5h-79q-11 0 -17.5 8t-4.5 19q1 5 7 12l502 628q8 11 20 22t32 11h511q11 0 17.5 -8t4.5 -19l-16 -71q-2 -11 -11.5 -19t-20.5 -8h-323l-34 -159h301q11 0 17 -8t4 -19l-15 -71q-2 -11 -12 -19t-21 -8h-301l-35 -166h331zM465 261l67 315l-254 -315h187z" />
    <glyph glyph-name="B" unicode="B" horiz-adv-x="687" 
d="M43 0q-11 0 -17.5 8t-4.5 19l138 646q2 11 11.5 19t20.5 8h285q64 0 104 -20.5t62 -51t27 -66t-1 -65.5t-19 -53.5t-28 -40t-28.5 -27.5t-21.5 -15q13 -11 24.5 -25.5t19 -34t9.5 -43.5t-4 -54q-8 -38 -27 -74.5t-50.5 -65t-76.5 -46.5t-105 -18h-318zM533 498
q8 38 -11.5 57.5t-71.5 19.5h-177l-33 -154h177q101 0 116 77zM177 125h185q55 0 85.5 23.5t38.5 61.5t-13.5 62t-74.5 24h-185z" />
    <glyph glyph-name="C" unicode="C" horiz-adv-x="682" 
d="M492 222q5 13 14.5 19.5t19.5 6.5h81q11 0 18 -7.5t3 -19.5q-11 -41 -34.5 -82t-63.5 -74t-99 -54t-140 -21q-65 0 -115 20.5t-82 57t-44.5 87.5t-3.5 111q6 38 15.5 84t20.5 84q16 60 44.5 111t70.5 87.5t98 57t129 20.5q74 0 126 -21t83.5 -54t43.5 -74.5t6 -81.5
q-2 -12 -11.5 -19.5t-20.5 -7.5h-81q-10 0 -18 6.5t-7 19.5q1 20 -5.5 39t-22.5 34t-43 24.5t-66 9.5t-70.5 -12t-55.5 -32t-40 -48t-25 -59q-11 -38 -20.5 -84t-15.5 -84q-5 -32 -0.5 -59.5t20 -47.5t42 -32t65.5 -12t70 9.5t53.5 24.5t37.5 34t23 39z" />
    <glyph glyph-name="Cacute" unicode="&#x106;" horiz-adv-x="682" 
d="M492 222q5 13 14.5 19.5t19.5 6.5h81q11 0 18 -7.5t3 -19.5q-11 -41 -34.5 -82t-63.5 -74t-99 -54t-140 -21q-65 0 -115 20.5t-82 57t-44.5 87.5t-3.5 111q6 38 15.5 84t20.5 84q16 60 44.5 111t70.5 87.5t98 57t129 20.5q74 0 126 -21t83.5 -54t43.5 -74.5t6 -81.5
q-2 -12 -11.5 -19.5t-20.5 -7.5h-81q-10 0 -18 6.5t-7 19.5q1 20 -5.5 39t-22.5 34t-43 24.5t-66 9.5t-70.5 -12t-55.5 -32t-40 -48t-25 -59q-11 -38 -20.5 -84t-15.5 -84q-5 -32 -0.5 -59.5t20 -47.5t42 -32t65.5 -12t70 9.5t53.5 24.5t37.5 34t23 39zM506 881q14 13 22 16
t19 3h100q14 0 15.5 -12.5t-8.5 -19.5l-144 -101q-10 -7 -20 -12t-26 -5h-60q-13 0 -13.5 10.5t8.5 18.5z" />
    <glyph glyph-name="Ccaron" unicode="&#x10c;" horiz-adv-x="682" 
d="M492 222q5 13 14.5 19.5t19.5 6.5h81q11 0 18 -7.5t3 -19.5q-11 -41 -34.5 -82t-63.5 -74t-99 -54t-140 -21q-65 0 -115 20.5t-82 57t-44.5 87.5t-3.5 111q6 38 15.5 84t20.5 84q16 60 44.5 111t70.5 87.5t98 57t129 20.5q74 0 126 -21t83.5 -54t43.5 -74.5t6 -81.5
q-2 -12 -11.5 -19.5t-20.5 -7.5h-81q-10 0 -18 6.5t-7 19.5q1 20 -5.5 39t-22.5 34t-43 24.5t-66 9.5t-70.5 -12t-55.5 -32t-40 -48t-25 -59q-11 -38 -20.5 -84t-15.5 -84q-5 -32 -0.5 -59.5t20 -47.5t42 -32t65.5 -12t70 9.5t53.5 24.5t37.5 34t23 39zM414 750q-11 0 -18 4
t-15 15l-70 102q-7 10 -1 19.5t18 9.5h35q10 0 15.5 -2.5t13.5 -8.5l70 -47l87 47q10 5 16.5 8t16.5 3h48q14 0 15.5 -11t-9.5 -20l-112 -100q-12 -11 -21 -15t-20 -4h-69z" />
    <glyph glyph-name="Ccedilla" unicode="&#xc7;" horiz-adv-x="682" 
d="M492 222q5 13 14.5 19.5t19.5 6.5h81q11 0 18 -7.5t3 -19.5q-11 -41 -34.5 -82t-63.5 -74t-99 -54t-140 -21h-2l-31 -46q7 4 16.5 7t20.5 3q33 0 49 -26.5t8 -62.5t-33 -60.5t-74 -24.5q-18 0 -36 5t-30 12.5t-16 16.5t6 17l16 13q10 7 15 7t10.5 -3.5t13.5 -7.5t23 -4
q38 0 44 32q6 30 -31 30q-8 0 -16 -3t-15 -5t-13 -2t-11 6l-12 18q-5 8 -5 13.5t10 19.5l33 50q-51 9 -89 32.5t-62 58.5t-33 81t-1 99q6 38 15.5 84t20.5 84q16 60 44.5 111t70.5 87.5t98 57t129 20.5q74 0 126 -21t83.5 -54t43.5 -74.5t6 -81.5q-2 -12 -11.5 -19.5
t-20.5 -7.5h-81q-10 0 -18 6.5t-7 19.5q1 20 -5.5 39t-22.5 34t-43 24.5t-66 9.5t-70.5 -12t-55.5 -32t-40 -48t-25 -59q-11 -38 -20.5 -84t-15.5 -84q-5 -32 -0.5 -59.5t20 -47.5t42 -32t65.5 -12t70 9.5t53.5 24.5t37.5 34t23 39z" />
    <glyph glyph-name="Ccircumflex" unicode="&#x108;" horiz-adv-x="682" 
d="M492 222q5 13 14.5 19.5t19.5 6.5h81q11 0 18 -7.5t3 -19.5q-11 -41 -34.5 -82t-63.5 -74t-99 -54t-140 -21q-65 0 -115 20.5t-82 57t-44.5 87.5t-3.5 111q6 38 15.5 84t20.5 84q16 60 44.5 111t70.5 87.5t98 57t129 20.5q74 0 126 -21t83.5 -54t43.5 -74.5t6 -81.5
q-2 -12 -11.5 -19.5t-20.5 -7.5h-81q-10 0 -18 6.5t-7 19.5q1 20 -5.5 39t-22.5 34t-43 24.5t-66 9.5t-70.5 -12t-55.5 -32t-40 -48t-25 -59q-11 -38 -20.5 -84t-15.5 -84q-5 -32 -0.5 -59.5t20 -47.5t42 -32t65.5 -12t70 9.5t53.5 24.5t37.5 34t23 39zM505 900q11 0 18 -4
t15 -15l70 -102q7 -10 1 -19.5t-18 -9.5h-35q-10 0 -15.5 2.5t-13.5 8.5l-70 47l-87 -47q-10 -5 -16.5 -8t-16.5 -3h-48q-14 0 -15.5 11t9.5 20l112 100q12 11 21 15t20 4h69z" />
    <glyph glyph-name="Cdotaccent" unicode="&#x10a;" horiz-adv-x="682" 
d="M492 222q5 13 14.5 19.5t19.5 6.5h81q11 0 18 -7.5t3 -19.5q-11 -41 -34.5 -82t-63.5 -74t-99 -54t-140 -21q-65 0 -115 20.5t-82 57t-44.5 87.5t-3.5 111q6 38 15.5 84t20.5 84q16 60 44.5 111t70.5 87.5t98 57t129 20.5q74 0 126 -21t83.5 -54t43.5 -74.5t6 -81.5
q-2 -12 -11.5 -19.5t-20.5 -7.5h-81q-10 0 -18 6.5t-7 19.5q1 20 -5.5 39t-22.5 34t-43 24.5t-66 9.5t-70.5 -12t-55.5 -32t-40 -48t-25 -59q-11 -38 -20.5 -84t-15.5 -84q-5 -32 -0.5 -59.5t20 -47.5t42 -32t65.5 -12t70 9.5t53.5 24.5t37.5 34t23 39zM522 897q11 0 17 -8
t4 -19l-19 -93q-2 -11 -12 -19t-21 -8h-88q-11 0 -17.5 8t-3.5 19l19 93q2 11 12 19t21 8h88z" />
    <glyph glyph-name="D" unicode="D" horiz-adv-x="704" 
d="M438 700q74 0 124.5 -19.5t79.5 -55.5t38 -87t-1 -114q-6 -38 -13.5 -74t-18.5 -74q-17 -63 -47.5 -114t-74 -87t-101 -55.5t-129.5 -19.5h-252q-11 0 -17.5 8t-4.5 19l138 646q2 11 11.5 19t20.5 8h247zM544 424q5 32 0.5 59.5t-21 48t-45 32t-71.5 11.5h-134l-96 -450
h139q41 0 73.5 11.5t57 31.5t40.5 48t25 60q11 38 18.5 74t13.5 74z" />
    <glyph glyph-name="Dcaron" unicode="&#x10e;" horiz-adv-x="704" 
d="M438 700q74 0 124.5 -19.5t79.5 -55.5t38 -87t-1 -114q-6 -38 -13.5 -74t-18.5 -74q-17 -63 -47.5 -114t-74 -87t-101 -55.5t-129.5 -19.5h-252q-11 0 -17.5 8t-4.5 19l138 646q2 11 11.5 19t20.5 8h247zM544 424q5 32 0.5 59.5t-21 48t-45 32t-71.5 11.5h-134l-96 -450
h139q41 0 73.5 11.5t57 31.5t40.5 48t25 60q11 38 18.5 74t13.5 74zM378 750q-11 0 -18 4t-15 15l-70 102q-7 10 -1 19.5t18 9.5h35q10 0 15.5 -2.5t13.5 -8.5l70 -47l87 47q10 5 16.5 8t16.5 3h48q14 0 15.5 -11t-9.5 -20l-112 -100q-12 -11 -21 -15t-20 -4h-69z" />
    <glyph glyph-name="Dcroat" unicode="&#x110;" horiz-adv-x="725" 
d="M459 700q74 0 124.5 -19.5t79.5 -55.5t38 -87t-1 -114q-6 -38 -13.5 -74t-18.5 -74q-17 -63 -47.5 -114t-74 -87t-101 -55.5t-129.5 -19.5h-252q-11 0 -17.5 8t-4.5 19l57 269h-53q-11 0 -17 8t-4 19l14 63q2 11 11.5 19t20.5 8h53l56 260q2 11 11.5 19t20.5 8h247z
M565 424q5 32 0.5 59.5t-21 48t-45 32t-71.5 11.5h-134l-35 -162h107q11 0 17.5 -8t4.5 -19l-14 -63q-2 -11 -12 -19t-21 -8h-107l-36 -171h139q41 0 73.5 11.5t57 31.5t40.5 48t25 60q11 38 18.5 74t13.5 74z" />
    <glyph glyph-name="E" unicode="E" 
d="M508 125q11 0 17.5 -8t3.5 -19l-15 -71q-2 -11 -11.5 -19t-20.5 -8h-439q-11 0 -17.5 8t-4.5 19l138 646q2 11 11.5 19t20.5 8h431q11 0 17.5 -8t4.5 -19l-16 -71q-2 -11 -11.5 -19t-20.5 -8h-323l-34 -159h301q11 0 17 -8t4 -19l-15 -71q-2 -11 -12 -19t-21 -8h-301
l-35 -166h331z" />
    <glyph glyph-name="Eacute" unicode="&#xc9;" 
d="M508 125q11 0 17.5 -8t3.5 -19l-15 -71q-2 -11 -11.5 -19t-20.5 -8h-439q-11 0 -17.5 8t-4.5 19l138 646q2 11 11.5 19t20.5 8h431q11 0 17.5 -8t4.5 -19l-16 -71q-2 -11 -11.5 -19t-20.5 -8h-323l-34 -159h301q11 0 17 -8t4 -19l-15 -71q-2 -11 -12 -19t-21 -8h-301
l-35 -166h331zM469 881q14 13 22 16t19 3h100q14 0 15.5 -12.5t-8.5 -19.5l-144 -101q-10 -7 -20 -12t-26 -5h-60q-13 0 -13.5 10.5t8.5 18.5z" />
    <glyph glyph-name="Ebreve" unicode="&#x114;" 
d="M508 125q11 0 17.5 -8t3.5 -19l-15 -71q-2 -11 -11.5 -19t-20.5 -8h-439q-11 0 -17.5 8t-4.5 19l138 646q2 11 11.5 19t20.5 8h431q11 0 17.5 -8t4.5 -19l-16 -71q-2 -11 -11.5 -19t-20.5 -8h-323l-34 -159h301q11 0 17 -8t4 -19l-15 -71q-2 -11 -12 -19t-21 -8h-301
l-35 -166h331zM416 745q-39 0 -65.5 12.5t-42.5 32t-21.5 43.5t-0.5 48q2 8 8 13.5t15 5.5h57q9 0 12.5 -5.5t2.5 -13.5q-3 -22 6.5 -36t36.5 -14t43.5 14t21.5 36q2 8 8 13.5t15 5.5h57q9 0 13 -5.5t2 -13.5q-5 -24 -14.5 -48t-28.5 -43.5t-49 -32t-76 -12.5z" />
    <glyph glyph-name="Ecaron" unicode="&#x11a;" 
d="M508 125q11 0 17.5 -8t3.5 -19l-15 -71q-2 -11 -11.5 -19t-20.5 -8h-439q-11 0 -17.5 8t-4.5 19l138 646q2 11 11.5 19t20.5 8h431q11 0 17.5 -8t4.5 -19l-16 -71q-2 -11 -11.5 -19t-20.5 -8h-323l-34 -159h301q11 0 17 -8t4 -19l-15 -71q-2 -11 -12 -19t-21 -8h-301
l-35 -166h331zM379 750q-11 0 -18 4t-15 15l-70 102q-7 10 -1 19.5t18 9.5h35q10 0 15.5 -2.5t13.5 -8.5l70 -47l87 47q10 5 16.5 8t16.5 3h48q14 0 15.5 -11t-9.5 -20l-112 -100q-12 -11 -21 -15t-20 -4h-69z" />
    <glyph glyph-name="Ecircumflex" unicode="&#xca;" 
d="M508 125q11 0 17.5 -8t3.5 -19l-15 -71q-2 -11 -11.5 -19t-20.5 -8h-439q-11 0 -17.5 8t-4.5 19l138 646q2 11 11.5 19t20.5 8h431q11 0 17.5 -8t4.5 -19l-16 -71q-2 -11 -11.5 -19t-20.5 -8h-323l-34 -159h301q11 0 17 -8t4 -19l-15 -71q-2 -11 -12 -19t-21 -8h-301
l-35 -166h331zM470 900q11 0 18 -4t15 -15l70 -102q7 -10 1 -19.5t-18 -9.5h-35q-10 0 -15.5 2.5t-13.5 8.5l-70 47l-87 -47q-10 -5 -16.5 -8t-16.5 -3h-48q-14 0 -15.5 11t9.5 20l112 100q12 11 21 15t20 4h69z" />
    <glyph glyph-name="Edieresis" unicode="&#xcb;" 
d="M508 125q11 0 17.5 -8t3.5 -19l-15 -71q-2 -11 -11.5 -19t-20.5 -8h-439q-11 0 -17.5 8t-4.5 19l138 646q2 11 11.5 19t20.5 8h431q11 0 17.5 -8t4.5 -19l-16 -71q-2 -11 -11.5 -19t-20.5 -8h-323l-34 -159h301q11 0 17 -8t4 -19l-15 -71q-2 -11 -12 -19t-21 -8h-301
l-35 -166h331zM370 892q11 0 17 -8t4 -19l-18 -88q-2 -11 -12 -19t-21 -8h-83q-11 0 -17 8t-4 19l18 88q2 11 12 19t21 8h83zM607 892q11 0 17 -8t4 -19l-18 -88q-2 -11 -12 -19t-21 -8h-83q-11 0 -17 8t-4 19l18 88q2 11 12 19t21 8h83z" />
    <glyph glyph-name="Edotaccent" unicode="&#x116;" 
d="M508 125q11 0 17.5 -8t3.5 -19l-15 -71q-2 -11 -11.5 -19t-20.5 -8h-439q-11 0 -17.5 8t-4.5 19l138 646q2 11 11.5 19t20.5 8h431q11 0 17.5 -8t4.5 -19l-16 -71q-2 -11 -11.5 -19t-20.5 -8h-323l-34 -159h301q11 0 17 -8t4 -19l-15 -71q-2 -11 -12 -19t-21 -8h-301
l-35 -166h331zM493 897q11 0 17 -8t4 -19l-19 -93q-2 -11 -12 -19t-21 -8h-88q-11 0 -17.5 8t-3.5 19l19 93q2 11 12 19t21 8h88z" />
    <glyph glyph-name="Egrave" unicode="&#xc8;" 
d="M508 125q11 0 17.5 -8t3.5 -19l-15 -71q-2 -11 -11.5 -19t-20.5 -8h-439q-11 0 -17.5 8t-4.5 19l138 646q2 11 11.5 19t20.5 8h431q11 0 17.5 -8t4.5 -19l-16 -71q-2 -11 -11.5 -19t-20.5 -8h-323l-34 -159h301q11 0 17 -8t4 -19l-15 -71q-2 -11 -12 -19t-21 -8h-301
l-35 -166h331zM478 779q6 -10 0 -19.5t-17 -9.5h-60q-16 0 -23.5 5t-14.5 12l-98 97q-9 9 -4 22.5t21 13.5h100q11 0 18 -2.5t15 -16.5z" />
    <glyph glyph-name="Emacron" unicode="&#x112;" 
d="M508 125q11 0 17.5 -8t3.5 -19l-15 -71q-2 -11 -11.5 -19t-20.5 -8h-439q-11 0 -17.5 8t-4.5 19l138 646q2 11 11.5 19t20.5 8h431q11 0 17.5 -8t4.5 -19l-16 -71q-2 -11 -11.5 -19t-20.5 -8h-323l-34 -159h301q11 0 17 -8t4 -19l-15 -71q-2 -11 -12 -19t-21 -8h-301
l-35 -166h331zM279 750q-11 0 -17.5 8t-3.5 19l14 66q2 11 11.5 19t20.5 8h279q11 0 17.5 -8t4.5 -19l-14 -66q-2 -11 -12 -19t-21 -8h-279z" />
    <glyph glyph-name="Eogonek" unicode="&#x118;" 
d="M421 -220q-27 0 -51.5 12.5t-42 35t-25.5 52.5t0 66q6 30 18 54h-277q-11 0 -17.5 8t-4.5 19l138 646q2 11 11.5 19t20.5 8h431q11 0 17.5 -8t4.5 -19l-16 -71q-2 -11 -11.5 -19t-20.5 -8h-323l-34 -159h301q11 0 17 -8t4 -19l-15 -71q-2 -11 -12 -19t-21 -8h-301
l-35 -166h331q11 0 17.5 -8t3.5 -19l-15 -71q-2 -11 -11.5 -19t-20.5 -8h-10q-26 0 -45.5 -16.5t-26.5 -47.5t5.5 -47.5t38.5 -16.5h15q21 0 18 -22l-11 -48q-2 -10 -9 -16t-17 -6h-19z" />
    <glyph glyph-name="F" unicode="F" horiz-adv-x="599" 
d="M618 700q11 0 17.5 -8t4.5 -19l-16 -71q-2 -11 -11.5 -19t-20.5 -8h-319l-42 -194h299q11 0 17.5 -8t4.5 -19l-15 -71q-3 -11 -12.5 -19t-20.5 -8h-299l-49 -229q-2 -11 -11.5 -19t-20.5 -8h-81q-11 0 -17.5 8t-4.5 19l138 646q2 11 11.5 19t20.5 8h427z" />
    <glyph glyph-name="G" unicode="G" horiz-adv-x="707" 
d="M83 441q15 60 42.5 109.5t70 85t101 55t136.5 19.5q83 0 136 -22.5t82.5 -54t39 -65t6.5 -56.5q-2 -12 -11.5 -19.5t-20.5 -7.5h-81q-11 0 -16.5 5.5t-7.5 11.5q-1 4 -6.5 17.5t-20.5 28t-43 26t-73 11.5q-37 0 -69.5 -10.5t-59 -30t-44.5 -47t-27 -61.5
q-9 -38 -18.5 -81.5t-15.5 -81.5q-15 -83 22 -120.5t112 -37.5q37 0 69.5 8t59 26t45.5 47.5t28 72.5l1 8h-122q-11 0 -17 8t-4 19l15 71q2 11 12 19t21 8h230q11 0 17 -8t4 -19l-23 -110q-13 -60 -38.5 -110.5t-67.5 -87t-103 -57t-144 -20.5q-68 0 -120.5 20t-86 56
t-46.5 86.5t-2 110.5q3 19 8 42t10 47t10 47t10 42z" />
    <glyph glyph-name="Gbreve" unicode="&#x11e;" horiz-adv-x="707" 
d="M83 441q15 60 42.5 109.5t70 85t101 55t136.5 19.5q83 0 136 -22.5t82.5 -54t39 -65t6.5 -56.5q-2 -12 -11.5 -19.5t-20.5 -7.5h-81q-11 0 -16.5 5.5t-7.5 11.5q-1 4 -6.5 17.5t-20.5 28t-43 26t-73 11.5q-37 0 -69.5 -10.5t-59 -30t-44.5 -47t-27 -61.5
q-9 -38 -18.5 -81.5t-15.5 -81.5q-15 -83 22 -120.5t112 -37.5q37 0 69.5 8t59 26t45.5 47.5t28 72.5l1 8h-122q-11 0 -17 8t-4 19l15 71q2 11 12 19t21 8h230q11 0 17 -8t4 -19l-23 -110q-13 -60 -38.5 -110.5t-67.5 -87t-103 -57t-144 -20.5q-68 0 -120.5 20t-86 56
t-46.5 86.5t-2 110.5q3 19 8 42t10 47t10 47t10 42zM443 745q-39 0 -65.5 12.5t-42.5 32t-21.5 43.5t-0.5 48q2 8 8 13.5t15 5.5h57q9 0 12.5 -5.5t2.5 -13.5q-3 -22 6.5 -36t36.5 -14t43.5 14t21.5 36q2 8 8 13.5t15 5.5h57q9 0 13 -5.5t2 -13.5q-5 -24 -14.5 -48
t-28.5 -43.5t-49 -32t-76 -12.5z" />
    <glyph glyph-name="Gcircumflex" unicode="&#x11c;" horiz-adv-x="707" 
d="M83 441q15 60 42.5 109.5t70 85t101 55t136.5 19.5q83 0 136 -22.5t82.5 -54t39 -65t6.5 -56.5q-2 -12 -11.5 -19.5t-20.5 -7.5h-81q-11 0 -16.5 5.5t-7.5 11.5q-1 4 -6.5 17.5t-20.5 28t-43 26t-73 11.5q-37 0 -69.5 -10.5t-59 -30t-44.5 -47t-27 -61.5
q-9 -38 -18.5 -81.5t-15.5 -81.5q-15 -83 22 -120.5t112 -37.5q37 0 69.5 8t59 26t45.5 47.5t28 72.5l1 8h-122q-11 0 -17 8t-4 19l15 71q2 11 12 19t21 8h230q11 0 17 -8t4 -19l-23 -110q-13 -60 -38.5 -110.5t-67.5 -87t-103 -57t-144 -20.5q-68 0 -120.5 20t-86 56
t-46.5 86.5t-2 110.5q3 19 8 42t10 47t10 47t10 42zM498 900q11 0 18 -4t15 -15l70 -102q7 -10 1 -19.5t-18 -9.5h-35q-10 0 -15.5 2.5t-13.5 8.5l-70 47l-87 -47q-10 -5 -16.5 -8t-16.5 -3h-48q-14 0 -15.5 11t9.5 20l112 100q12 11 21 15t20 4h69z" />
    <glyph glyph-name="Gcommaaccent" unicode="&#x122;" horiz-adv-x="707" 
d="M83 441q15 60 42.5 109.5t70 85t101 55t136.5 19.5q83 0 136 -22.5t82.5 -54t39 -65t6.5 -56.5q-2 -12 -11.5 -19.5t-20.5 -7.5h-81q-11 0 -16.5 5.5t-7.5 11.5q-1 4 -6.5 17.5t-20.5 28t-43 26t-73 11.5q-37 0 -69.5 -10.5t-59 -30t-44.5 -47t-27 -61.5
q-9 -38 -18.5 -81.5t-15.5 -81.5q-15 -83 22 -120.5t112 -37.5q37 0 69.5 8t59 26t45.5 47.5t28 72.5l1 8h-122q-11 0 -17 8t-4 19l15 71q2 11 12 19t21 8h230q11 0 17 -8t4 -19l-23 -110q-13 -60 -38.5 -110.5t-67.5 -87t-103 -57t-144 -20.5q-68 0 -120.5 20t-86 56
t-46.5 86.5t-2 110.5q3 19 8 42t10 47t10 47t10 42zM191 -89q5 14 18 26.5t33 12.5h87q13 0 16.5 -10t-2.5 -21l-84 -137q-6 -10 -18 -21t-32 -11h-52q-12 0 -16 8t-1 16z" />
    <glyph glyph-name="Gdotaccent" unicode="&#x120;" horiz-adv-x="707" 
d="M83 441q15 60 42.5 109.5t70 85t101 55t136.5 19.5q83 0 136 -22.5t82.5 -54t39 -65t6.5 -56.5q-2 -12 -11.5 -19.5t-20.5 -7.5h-81q-11 0 -16.5 5.5t-7.5 11.5q-1 4 -6.5 17.5t-20.5 28t-43 26t-73 11.5q-37 0 -69.5 -10.5t-59 -30t-44.5 -47t-27 -61.5
q-9 -38 -18.5 -81.5t-15.5 -81.5q-15 -83 22 -120.5t112 -37.5q37 0 69.5 8t59 26t45.5 47.5t28 72.5l1 8h-122q-11 0 -17 8t-4 19l15 71q2 11 12 19t21 8h230q11 0 17 -8t4 -19l-23 -110q-13 -60 -38.5 -110.5t-67.5 -87t-103 -57t-144 -20.5q-68 0 -120.5 20t-86 56
t-46.5 86.5t-2 110.5q3 19 8 42t10 47t10 47t10 42zM512 897q11 0 17 -8t4 -19l-19 -93q-2 -11 -12 -19t-21 -8h-88q-11 0 -17.5 8t-3.5 19l19 93q2 11 12 19t21 8h88z" />
    <glyph glyph-name="H" unicode="H" horiz-adv-x="730" 
d="M709 700q11 0 17.5 -8t4.5 -19l-138 -646q-2 -11 -11.5 -19t-20.5 -8h-81q-11 0 -17.5 8t-4.5 19l56 264h-302l-56 -264q-2 -11 -11.5 -19t-20.5 -8h-81q-11 0 -17.5 7.5t-4.5 19.5l138 646q2 11 11.5 19t20.5 8h81q11 0 17.5 -8t4.5 -19l-55 -257h302l55 257
q2 11 11.5 19t20.5 8h81z" />
    <glyph glyph-name="Hbar" unicode="&#x126;" horiz-adv-x="730" 
d="M709 700q11 0 17.5 -8t4.5 -19l-138 -646q-2 -11 -11.5 -19t-20.5 -8h-81q-11 0 -17.5 8t-4.5 19l56 264h-302l-56 -264q-2 -11 -11.5 -19t-20.5 -8h-81q-11 0 -17.5 7.5t-4.5 19.5l138 646q2 11 11.5 19t20.5 8h81q11 0 17.5 -8t4.5 -19l-12 -53h302l12 53q2 11 11.5 19
t20.5 8h81zM541 416l17 79h-302l-17 -79h302z" />
    <glyph glyph-name="Hcircumflex" unicode="&#x124;" horiz-adv-x="730" 
d="M709 700q11 0 17.5 -8t4.5 -19l-138 -646q-2 -11 -11.5 -19t-20.5 -8h-81q-11 0 -17.5 8t-4.5 19l56 264h-302l-56 -264q-2 -11 -11.5 -19t-20.5 -8h-81q-11 0 -17.5 7.5t-4.5 19.5l138 646q2 11 11.5 19t20.5 8h81q11 0 17.5 -8t4.5 -19l-55 -257h302l55 257
q2 11 11.5 19t20.5 8h81zM506 900q11 0 18 -4t15 -15l70 -102q7 -10 1 -19.5t-18 -9.5h-35q-10 0 -15.5 2.5t-13.5 8.5l-70 47l-87 -47q-10 -5 -16.5 -8t-16.5 -3h-48q-14 0 -15.5 11t9.5 20l112 100q12 11 21 15t20 4h69z" />
    <glyph glyph-name="I" unicode="I" horiz-adv-x="293" 
d="M43 0q-11 0 -17.5 8t-4.5 19l138 646q2 11 11.5 19t20.5 8h81q11 0 17.5 -8t4.5 -19l-138 -646q-2 -11 -11.5 -19t-20.5 -8h-81z" />
    <glyph glyph-name="Iacute" unicode="&#xcd;" horiz-adv-x="293" 
d="M43 0q-11 0 -17.5 8t-4.5 19l138 646q2 11 11.5 19t20.5 8h81q11 0 17.5 -8t4.5 -19l-138 -646q-2 -11 -11.5 -19t-20.5 -8h-81zM307 881q14 13 22 16t19 3h100q14 0 15.5 -12.5t-8.5 -19.5l-144 -101q-10 -7 -20 -12t-26 -5h-60q-13 0 -13.5 10.5t8.5 18.5z" />
    <glyph glyph-name="Ibreve" unicode="&#x12c;" horiz-adv-x="293" 
d="M43 0q-11 0 -17.5 8t-4.5 19l138 646q2 11 11.5 19t20.5 8h81q11 0 17.5 -8t4.5 -19l-138 -646q-2 -11 -11.5 -19t-20.5 -8h-81zM249 745q-39 0 -65.5 12.5t-42.5 32t-21.5 43.5t-0.5 48q2 8 8 13.5t15 5.5h57q9 0 12.5 -5.5t2.5 -13.5q-3 -22 6.5 -36t36.5 -14t43.5 14
t21.5 36q2 8 8 13.5t15 5.5h57q9 0 13 -5.5t2 -13.5q-5 -24 -14.5 -48t-28.5 -43.5t-49 -32t-76 -12.5z" />
    <glyph glyph-name="Icircumflex" unicode="&#xce;" horiz-adv-x="293" 
d="M43 0q-11 0 -17.5 8t-4.5 19l138 646q2 11 11.5 19t20.5 8h81q11 0 17.5 -8t4.5 -19l-138 -646q-2 -11 -11.5 -19t-20.5 -8h-81zM303 900q11 0 18 -4t15 -15l70 -102q7 -10 1 -19.5t-18 -9.5h-35q-10 0 -15.5 2.5t-13.5 8.5l-70 47l-87 -47q-10 -5 -16.5 -8t-16.5 -3h-48
q-14 0 -15.5 11t9.5 20l112 100q12 11 21 15t20 4h69z" />
    <glyph glyph-name="Idieresis" unicode="&#xcf;" horiz-adv-x="293" 
d="M43 0q-11 0 -17.5 8t-4.5 19l138 646q2 11 11.5 19t20.5 8h81q11 0 17.5 -8t4.5 -19l-138 -646q-2 -11 -11.5 -19t-20.5 -8h-81zM195 892q11 0 17 -8t4 -19l-18 -88q-2 -11 -12 -19t-21 -8h-83q-11 0 -17 8t-4 19l18 88q2 11 12 19t21 8h83zM432 892q11 0 17 -8t4 -19
l-18 -88q-2 -11 -12 -19t-21 -8h-83q-11 0 -17 8t-4 19l18 88q2 11 12 19t21 8h83z" />
    <glyph glyph-name="Idotaccent" unicode="&#x130;" horiz-adv-x="293" 
d="M43 0q-11 0 -17.5 8t-4.5 19l138 646q2 11 11.5 19t20.5 8h81q11 0 17.5 -8t4.5 -19l-138 -646q-2 -11 -11.5 -19t-20.5 -8h-81zM318 897q11 0 17 -8t4 -19l-19 -93q-2 -11 -12 -19t-21 -8h-88q-11 0 -17.5 8t-3.5 19l19 93q2 11 12 19t21 8h88z" />
    <glyph glyph-name="Igrave" unicode="&#xcc;" horiz-adv-x="293" 
d="M43 0q-11 0 -17.5 8t-4.5 19l138 646q2 11 11.5 19t20.5 8h81q11 0 17.5 -8t4.5 -19l-138 -646q-2 -11 -11.5 -19t-20.5 -8h-81zM303 779q6 -10 0 -19.5t-17 -9.5h-60q-16 0 -23.5 5t-14.5 12l-98 97q-9 9 -4 22.5t21 13.5h100q11 0 18 -2.5t15 -16.5z" />
    <glyph glyph-name="Imacron" unicode="&#x12a;" horiz-adv-x="293" 
d="M43 0q-11 0 -17.5 8t-4.5 19l138 646q2 11 11.5 19t20.5 8h81q11 0 17.5 -8t4.5 -19l-138 -646q-2 -11 -11.5 -19t-20.5 -8h-81zM103 750q-11 0 -17.5 8t-3.5 19l14 66q2 11 11.5 19t20.5 8h279q11 0 17.5 -8t4.5 -19l-14 -66q-2 -11 -12 -19t-21 -8h-279z" />
    <glyph glyph-name="Iogonek" unicode="&#x12e;" horiz-adv-x="302" 
d="M118 0q-24 0 -42.5 -17.5t-24.5 -46.5q-7 -31 5.5 -47.5t38.5 -16.5h15q21 0 18 -22l-11 -48q-2 -10 -9 -16t-17 -6h-19q-27 0 -51.5 12.5t-42 35t-25.5 52.5t0 66q19 88 86 124l129 603q2 11 11.5 19t20.5 8h81q11 0 17.5 -8t4.5 -19l-138 -646q-2 -11 -11.5 -19
t-20.5 -8h-15z" />
    <glyph glyph-name="Itilde" unicode="&#x128;" horiz-adv-x="293" 
d="M43 0q-11 0 -17.5 8t-4.5 19l138 646q2 11 11.5 19t20.5 8h81q11 0 17.5 -8t4.5 -19l-138 -646q-2 -11 -11.5 -19t-20.5 -8h-81zM310 745q-22 0 -37.5 5.5t-28 11.5t-24 11.5t-25.5 5.5q-12 0 -18 -4.5t-11 -10t-9.5 -10t-13.5 -4.5h-56q-9 0 -13 5.5t-2 13.5
q4 19 15 39.5t27.5 37.5t38.5 28t49 11q22 0 37 -5.5t27.5 -11.5t24 -11.5t25.5 -5.5q12 0 18.5 4.5t11 10t9.5 10t14 4.5h56q9 0 13 -5.5t2 -13.5q-4 -19 -15 -39.5t-27.5 -37.5t-38.5 -28t-49 -11z" />
    <glyph glyph-name="J" unicode="J" horiz-adv-x="652" 
d="M502 575h-328q-11 0 -17.5 8t-4.5 19l16 71q2 11 11.5 19t20.5 8h436q11 0 17.5 -8t4.5 -19l-90 -423q-14 -64 -38.5 -112.5t-63.5 -81.5t-93.5 -49.5t-128.5 -16.5q-64 0 -112 17.5t-79 47.5t-44 70t-6 86q2 12 12 19.5t21 7.5h81q8 0 16 -5t7 -14q0 -20 6 -39t20 -33.5
t37 -23t58 -8.5q69 0 114 36t59 105z" />
    <glyph glyph-name="Jcircumflex" unicode="&#x134;" horiz-adv-x="652" 
d="M502 575h-328q-11 0 -17.5 8t-4.5 19l16 71q2 11 11.5 19t20.5 8h436q11 0 17.5 -8t4.5 -19l-90 -423q-14 -64 -38.5 -112.5t-63.5 -81.5t-93.5 -49.5t-128.5 -16.5q-64 0 -112 17.5t-79 47.5t-44 70t-6 86q2 12 12 19.5t21 7.5h81q8 0 16 -5t7 -14q0 -20 6 -39t20 -33.5
t37 -23t58 -8.5q69 0 114 36t59 105zM482 900q11 0 18 -4t15 -15l70 -102q7 -10 1 -19.5t-18 -9.5h-35q-10 0 -15.5 2.5t-13.5 8.5l-70 47l-87 -47q-10 -5 -16.5 -8t-16.5 -3h-48q-14 0 -15.5 11t9.5 20l112 100q12 11 21 15t20 4h69z" />
    <glyph glyph-name="K" unicode="K" horiz-adv-x="624" 
d="M547 42q6 -9 4 -15q-2 -11 -11.5 -19t-20.5 -8h-79q-20 0 -30 10t-12 13l-184 273l-58 -269q-2 -11 -11.5 -19t-20.5 -8h-81q-11 0 -17.5 8t-4.5 19l138 646q2 11 11.5 19t20.5 8h81q11 0 17.5 -8t4.5 -19l-48 -230l262 235q11 10 22 16t27 6h103q11 0 17.5 -8t4.5 -19
q-2 -7 -10 -15l-337 -302z" />
    <glyph glyph-name="Kcommaaccent" unicode="&#x136;" horiz-adv-x="624" 
d="M547 42q6 -9 4 -15q-2 -11 -11.5 -19t-20.5 -8h-79q-20 0 -30 10t-12 13l-184 273l-58 -269q-2 -11 -11.5 -19t-20.5 -8h-81q-11 0 -17.5 8t-4.5 19l138 646q2 11 11.5 19t20.5 8h81q11 0 17.5 -8t4.5 -19l-48 -230l262 235q11 10 22 16t27 6h103q11 0 17.5 -8t4.5 -19
q-2 -7 -10 -15l-337 -302zM161 -89q5 14 18 26.5t33 12.5h87q13 0 16.5 -10t-2.5 -21l-84 -137q-6 -10 -18 -21t-32 -11h-52q-12 0 -16 8t-1 16z" />
    <glyph glyph-name="L" unicode="L" horiz-adv-x="584" 
d="M507 125q11 0 17.5 -8t3.5 -19l-15 -71q-2 -11 -11.5 -19t-20.5 -8h-438q-11 0 -17.5 8t-4.5 19l138 646q2 11 11.5 19t20.5 8h81q11 0 17.5 -8t4.5 -19l-117 -548h330z" />
    <glyph glyph-name="Lacute" unicode="&#x139;" horiz-adv-x="584" 
d="M507 125q11 0 17.5 -8t3.5 -19l-15 -71q-2 -11 -11.5 -19t-20.5 -8h-438q-11 0 -17.5 8t-4.5 19l138 646q2 11 11.5 19t20.5 8h81q11 0 17.5 -8t4.5 -19l-117 -548h330zM301 881q14 13 22 16t19 3h100q14 0 15.5 -12.5t-8.5 -19.5l-144 -101q-10 -7 -20 -12t-26 -5h-60
q-13 0 -13.5 10.5t8.5 18.5z" />
    <glyph glyph-name="Lcaron" unicode="&#x13d;" horiz-adv-x="584" 
d="M507 125q11 0 17.5 -8t3.5 -19l-15 -71q-2 -11 -11.5 -19t-20.5 -8h-438q-11 0 -17.5 8t-4.5 19l138 646q2 11 11.5 19t20.5 8h81q11 0 17.5 -8t4.5 -19l-117 -548h330zM394 671q5 14 18 26.5t33 12.5h87q13 0 16.5 -10t-2.5 -21l-84 -137q-6 -10 -18 -21t-32 -11h-52
q-12 0 -16 8t-1 16z" />
    <glyph glyph-name="Lcommaaccent" unicode="&#x13b;" horiz-adv-x="584" 
d="M507 125q11 0 17.5 -8t3.5 -19l-15 -71q-2 -11 -11.5 -19t-20.5 -8h-438q-11 0 -17.5 8t-4.5 19l138 646q2 11 11.5 19t20.5 8h81q11 0 17.5 -8t4.5 -19l-117 -548h330zM168 -89q5 14 18 26.5t33 12.5h87q13 0 16.5 -10t-2.5 -21l-84 -137q-6 -10 -18 -21t-32 -11h-52
q-12 0 -16 8t-1 16z" />
    <glyph glyph-name="Ldot" unicode="&#x13f;" horiz-adv-x="584" 
d="M507 125q11 0 17.5 -8t3.5 -19l-15 -71q-2 -11 -11.5 -19t-20.5 -8h-438q-11 0 -17.5 8t-4.5 19l138 646q2 11 11.5 19t20.5 8h81q11 0 17.5 -8t4.5 -19l-117 -548h330zM465 434q11 0 17 -8t4 -19l-21 -98q-2 -11 -11.5 -19t-20.5 -8h-93q-11 0 -17.5 8t-4.5 19l21 98
q2 11 12 19t21 8h93z" />
    <glyph glyph-name="Lslash" unicode="&#x141;" horiz-adv-x="593" 
d="M517 125q11 0 17.5 -8t3.5 -19l-15 -71q-2 -11 -11.5 -19t-20.5 -8h-438q-11 0 -17.5 8t-4.5 19l48 224l-41 -15q-9 -3 -12 -3q-9 0 -14 6t-3 15l11 48q3 14 9 21t20 12l52 19l68 319q2 11 11.5 19t20.5 8h81q11 0 17.5 -8t4.5 -19l-57 -266l158 57q9 3 12 3q9 0 13.5 -6
t2.5 -15l-10 -48q-5 -25 -29 -33l-169 -61l-38 -179h330z" />
    <glyph glyph-name="M" unicode="M" horiz-adv-x="814" 
d="M406 342l258 331q5 5 16.5 16t31.5 11h81q11 0 17.5 -8t4.5 -19l-138 -646q-2 -11 -11.5 -19t-20.5 -8h-81q-11 0 -17.5 8t-4.5 19l83 391l-174 -225q-7 -9 -18 -17t-25 -8h-60q-14 0 -21 8.5t-10 16.5l-78 225l-83 -391q-2 -11 -11.5 -19t-20.5 -8h-81q-11 0 -17.5 8
t-4.5 19l138 646q2 11 11.5 19t20.5 8h63q20 0 28 -10.5t10 -16.5z" />
    <glyph glyph-name="N" unicode="N" horiz-adv-x="709" 
d="M482 0q-17 0 -24.5 9.5t-10.5 14.5l-200 427l-91 -424q-2 -11 -11.5 -19t-20.5 -8h-81q-11 0 -17.5 8t-4.5 19l138 646q2 11 11.5 19t20.5 8h58q17 0 24.5 -9t9.5 -14l203 -429l89 425q2 11 11.5 19t20.5 8h81q11 0 17.5 -8t4.5 -19l-137 -646q-2 -11 -11.5 -19t-20.5 -8
h-59z" />
    <glyph glyph-name="Nacute" unicode="&#x143;" horiz-adv-x="709" 
d="M482 0q-17 0 -24.5 9.5t-10.5 14.5l-200 427l-91 -424q-2 -11 -11.5 -19t-20.5 -8h-81q-11 0 -17.5 8t-4.5 19l138 646q2 11 11.5 19t20.5 8h58q17 0 24.5 -9t9.5 -14l203 -429l89 425q2 11 11.5 19t20.5 8h81q11 0 17.5 -8t4.5 -19l-137 -646q-2 -11 -11.5 -19t-20.5 -8
h-59zM501 881q14 13 22 16t19 3h100q14 0 15.5 -12.5t-8.5 -19.5l-144 -101q-10 -7 -20 -12t-26 -5h-60q-13 0 -13.5 10.5t8.5 18.5z" />
    <glyph glyph-name="Ncaron" unicode="&#x147;" horiz-adv-x="709" 
d="M482 0q-17 0 -24.5 9.5t-10.5 14.5l-200 427l-91 -424q-2 -11 -11.5 -19t-20.5 -8h-81q-11 0 -17.5 8t-4.5 19l138 646q2 11 11.5 19t20.5 8h58q17 0 24.5 -9t9.5 -14l203 -429l89 425q2 11 11.5 19t20.5 8h81q11 0 17.5 -8t4.5 -19l-137 -646q-2 -11 -11.5 -19t-20.5 -8
h-59zM405 750q-11 0 -18 4t-15 15l-70 102q-7 10 -1 19.5t18 9.5h35q10 0 15.5 -2.5t13.5 -8.5l70 -47l87 47q10 5 16.5 8t16.5 3h48q14 0 15.5 -11t-9.5 -20l-112 -100q-12 -11 -21 -15t-20 -4h-69z" />
    <glyph glyph-name="Ncommaaccent" unicode="&#x145;" horiz-adv-x="709" 
d="M482 0q-17 0 -24.5 9.5t-10.5 14.5l-200 427l-91 -424q-2 -11 -11.5 -19t-20.5 -8h-81q-11 0 -17.5 8t-4.5 19l138 646q2 11 11.5 19t20.5 8h58q17 0 24.5 -9t9.5 -14l203 -429l89 425q2 11 11.5 19t20.5 8h81q11 0 17.5 -8t4.5 -19l-137 -646q-2 -11 -11.5 -19t-20.5 -8
h-59zM192 -89q5 14 18 26.5t33 12.5h87q13 0 16.5 -10t-2.5 -21l-84 -137q-6 -10 -18 -21t-32 -11h-52q-12 0 -16 8t-1 16z" />
    <glyph glyph-name="Ntilde" unicode="&#xd1;" horiz-adv-x="709" 
d="M482 0q-17 0 -24.5 9.5t-10.5 14.5l-200 427l-91 -424q-2 -11 -11.5 -19t-20.5 -8h-81q-11 0 -17.5 8t-4.5 19l138 646q2 11 11.5 19t20.5 8h58q17 0 24.5 -9t9.5 -14l203 -429l89 425q2 11 11.5 19t20.5 8h81q11 0 17.5 -8t4.5 -19l-137 -646q-2 -11 -11.5 -19t-20.5 -8
h-59zM514 745q-22 0 -37.5 5.5t-28 11.5t-24 11.5t-25.5 5.5q-12 0 -18 -4.5t-11 -10t-9.5 -10t-13.5 -4.5h-56q-9 0 -13 5.5t-2 13.5q4 19 15 39.5t27.5 37.5t38.5 28t49 11q22 0 37 -5.5t27.5 -11.5t24 -11.5t25.5 -5.5q12 0 18.5 4.5t11 10t9.5 10t14 4.5h56q9 0 13 -5.5
t2 -13.5q-4 -19 -15 -39.5t-27.5 -37.5t-38.5 -28t-49 -11z" />
    <glyph glyph-name="O" unicode="O" horiz-adv-x="695" 
d="M84 439q15 56 41 105.5t67 86t98.5 58t134.5 21.5q66 0 116 -21t82.5 -58t45 -86t3.5 -106q-3 -19 -7.5 -42t-10 -47.5t-11 -47.5t-9.5 -42q-15 -56 -39.5 -105.5t-65 -86t-98.5 -57.5t-139 -21q-66 0 -116 21t-82 57.5t-44.5 86t-3.5 105.5q3 19 7.5 42t9.5 47.5
t10.5 47.5t10.5 42zM536 434q11 72 -23 111.5t-104 39.5t-121 -39.5t-70 -111.5q-11 -38 -21 -84.5t-15 -84.5q-12 -72 22.5 -111t104.5 -39t120.5 39t70.5 111q10 38 20 84.5t16 84.5z" />
    <glyph glyph-name="Oacute" unicode="&#xd3;" horiz-adv-x="695" 
d="M84 439q15 56 41 105.5t67 86t98.5 58t134.5 21.5q66 0 116 -21t82.5 -58t45 -86t3.5 -106q-3 -19 -7.5 -42t-10 -47.5t-11 -47.5t-9.5 -42q-15 -56 -39.5 -105.5t-65 -86t-98.5 -57.5t-139 -21q-66 0 -116 21t-82 57.5t-44.5 86t-3.5 105.5q3 19 7.5 42t9.5 47.5
t10.5 47.5t10.5 42zM536 434q11 72 -23 111.5t-104 39.5t-121 -39.5t-70 -111.5q-11 -38 -21 -84.5t-15 -84.5q-12 -72 22.5 -111t104.5 -39t120.5 39t70.5 111q10 38 20 84.5t16 84.5zM492 881q14 13 22 16t19 3h100q14 0 15.5 -12.5t-8.5 -19.5l-144 -101q-10 -7 -20 -12
t-26 -5h-60q-13 0 -13.5 10.5t8.5 18.5z" />
    <glyph glyph-name="Obreve" unicode="&#x14e;" horiz-adv-x="695" 
d="M84 439q15 56 41 105.5t67 86t98.5 58t134.5 21.5q66 0 116 -21t82.5 -58t45 -86t3.5 -106q-3 -19 -7.5 -42t-10 -47.5t-11 -47.5t-9.5 -42q-15 -56 -39.5 -105.5t-65 -86t-98.5 -57.5t-139 -21q-66 0 -116 21t-82 57.5t-44.5 86t-3.5 105.5q3 19 7.5 42t9.5 47.5
t10.5 47.5t10.5 42zM536 434q11 72 -23 111.5t-104 39.5t-121 -39.5t-70 -111.5q-11 -38 -21 -84.5t-15 -84.5q-12 -72 22.5 -111t104.5 -39t120.5 39t70.5 111q10 38 20 84.5t16 84.5zM441 745q-39 0 -65.5 12.5t-42.5 32t-21.5 43.5t-0.5 48q2 8 8 13.5t15 5.5h57
q9 0 12.5 -5.5t2.5 -13.5q-3 -22 6.5 -36t36.5 -14t43.5 14t21.5 36q2 8 8 13.5t15 5.5h57q9 0 13 -5.5t2 -13.5q-5 -24 -14.5 -48t-28.5 -43.5t-49 -32t-76 -12.5z" />
    <glyph glyph-name="Ocircumflex" unicode="&#xd4;" horiz-adv-x="695" 
d="M84 439q15 56 41 105.5t67 86t98.5 58t134.5 21.5q66 0 116 -21t82.5 -58t45 -86t3.5 -106q-3 -19 -7.5 -42t-10 -47.5t-11 -47.5t-9.5 -42q-15 -56 -39.5 -105.5t-65 -86t-98.5 -57.5t-139 -21q-66 0 -116 21t-82 57.5t-44.5 86t-3.5 105.5q3 19 7.5 42t9.5 47.5
t10.5 47.5t10.5 42zM536 434q11 72 -23 111.5t-104 39.5t-121 -39.5t-70 -111.5q-11 -38 -21 -84.5t-15 -84.5q-12 -72 22.5 -111t104.5 -39t120.5 39t70.5 111q10 38 20 84.5t16 84.5zM493 900q11 0 18 -4t15 -15l70 -102q7 -10 1 -19.5t-18 -9.5h-35q-10 0 -15.5 2.5
t-13.5 8.5l-70 47l-87 -47q-10 -5 -16.5 -8t-16.5 -3h-48q-14 0 -15.5 11t9.5 20l112 100q12 11 21 15t20 4h69z" />
    <glyph glyph-name="Odieresis" unicode="&#xd6;" horiz-adv-x="695" 
d="M84 439q15 56 41 105.5t67 86t98.5 58t134.5 21.5q66 0 116 -21t82.5 -58t45 -86t3.5 -106q-3 -19 -7.5 -42t-10 -47.5t-11 -47.5t-9.5 -42q-15 -56 -39.5 -105.5t-65 -86t-98.5 -57.5t-139 -21q-66 0 -116 21t-82 57.5t-44.5 86t-3.5 105.5q3 19 7.5 42t9.5 47.5
t10.5 47.5t10.5 42zM536 434q11 72 -23 111.5t-104 39.5t-121 -39.5t-70 -111.5q-11 -38 -21 -84.5t-15 -84.5q-12 -72 22.5 -111t104.5 -39t120.5 39t70.5 111q10 38 20 84.5t16 84.5zM382 892q11 0 17 -8t4 -19l-18 -88q-2 -11 -12 -19t-21 -8h-83q-11 0 -17 8t-4 19
l18 88q2 11 12 19t21 8h83zM619 892q11 0 17 -8t4 -19l-18 -88q-2 -11 -12 -19t-21 -8h-83q-11 0 -17 8t-4 19l18 88q2 11 12 19t21 8h83z" />
    <glyph glyph-name="Ograve" unicode="&#xd2;" horiz-adv-x="695" 
d="M84 439q15 56 41 105.5t67 86t98.5 58t134.5 21.5q66 0 116 -21t82.5 -58t45 -86t3.5 -106q-3 -19 -7.5 -42t-10 -47.5t-11 -47.5t-9.5 -42q-15 -56 -39.5 -105.5t-65 -86t-98.5 -57.5t-139 -21q-66 0 -116 21t-82 57.5t-44.5 86t-3.5 105.5q3 19 7.5 42t9.5 47.5
t10.5 47.5t10.5 42zM536 434q11 72 -23 111.5t-104 39.5t-121 -39.5t-70 -111.5q-11 -38 -21 -84.5t-15 -84.5q-12 -72 22.5 -111t104.5 -39t120.5 39t70.5 111q10 38 20 84.5t16 84.5zM476 779q6 -10 0 -19.5t-17 -9.5h-60q-16 0 -23.5 5t-14.5 12l-98 97q-9 9 -4 22.5
t21 13.5h100q11 0 18 -2.5t15 -16.5z" />
    <glyph glyph-name="Ohungarumlaut" unicode="&#x150;" horiz-adv-x="695" 
d="M84 439q15 56 41 105.5t67 86t98.5 58t134.5 21.5q66 0 116 -21t82.5 -58t45 -86t3.5 -106q-3 -19 -7.5 -42t-10 -47.5t-11 -47.5t-9.5 -42q-15 -56 -39.5 -105.5t-65 -86t-98.5 -57.5t-139 -21q-66 0 -116 21t-82 57.5t-44.5 86t-3.5 105.5q3 19 7.5 42t9.5 47.5
t10.5 47.5t10.5 42zM536 434q11 72 -23 111.5t-104 39.5t-121 -39.5t-70 -111.5q-11 -38 -21 -84.5t-15 -84.5q-12 -72 22.5 -111t104.5 -39t120.5 39t70.5 111q10 38 20 84.5t16 84.5zM357 881q7 10 16 14.5t25 4.5h98q15 0 17 -11t-8 -19l-120 -106q-16 -14 -37 -14h-53
q-11 0 -13 7.5t4 16.5zM563 881q7 10 16 14.5t25 4.5h98q15 0 17 -11t-8 -19l-120 -106q-16 -14 -37 -14h-53q-11 0 -13 7.5t4 16.5z" />
    <glyph glyph-name="Omacron" unicode="&#x14c;" horiz-adv-x="695" 
d="M84 439q15 56 41 105.5t67 86t98.5 58t134.5 21.5q66 0 116 -21t82.5 -58t45 -86t3.5 -106q-3 -19 -7.5 -42t-10 -47.5t-11 -47.5t-9.5 -42q-15 -56 -39.5 -105.5t-65 -86t-98.5 -57.5t-139 -21q-66 0 -116 21t-82 57.5t-44.5 86t-3.5 105.5q3 19 7.5 42t9.5 47.5
t10.5 47.5t10.5 42zM536 434q11 72 -23 111.5t-104 39.5t-121 -39.5t-70 -111.5q-11 -38 -21 -84.5t-15 -84.5q-12 -72 22.5 -111t104.5 -39t120.5 39t70.5 111q10 38 20 84.5t16 84.5zM294 750q-11 0 -17.5 8t-3.5 19l14 66q2 11 11.5 19t20.5 8h279q11 0 17.5 -8t4.5 -19
l-14 -66q-2 -11 -12 -19t-21 -8h-279z" />
    <glyph glyph-name="Oslash" unicode="&#xd8;" horiz-adv-x="729" 
d="M101 439q15 56 41 105.5t67 86t98.5 58t134.5 21.5q55 0 99 -15t75.5 -41t50.5 -62.5t24 -79.5l40 15q7 3 11 3q9 0 14 -6t3 -15l-11 -48q-4 -25 -29 -33l-34 -12q-7 -37 -16.5 -80.5t-17.5 -75.5q-15 -56 -39.5 -105.5t-65 -86t-98.5 -57.5t-139 -21q-56 0 -100 15
t-76 41.5t-50.5 63t-22.5 79.5l-38 -13q-9 -3 -12 -3q-9 0 -13.5 6t-2.5 15l10 48q5 25 29 33l34 12q7 37 16 78.5t18 73.5zM517 265q5 22 11.5 47t11.5 51l-344 -124q-3 -60 32 -92t98 -32q70 0 120.5 39t70.5 111zM235 434q-12 -42 -23 -94l343 123q2 59 -32 90.5
t-97 31.5q-70 0 -121 -39.5t-70 -111.5z" />
    <glyph glyph-name="Oslashacute" unicode="&#x1fe;" horiz-adv-x="729" 
d="M508 881q14 13 22 16t19 3h100q14 0 15.5 -12.5t-8.5 -19.5l-144 -101q-10 -7 -20 -12t-26 -5h-60q-13 0 -13.5 10.5t8.5 18.5zM101 439q15 56 41 105.5t67 86t98.5 58t134.5 21.5q55 0 99 -15t75.5 -41t50.5 -62.5t24 -79.5l40 15q7 3 11 3q9 0 14 -6t3 -15l-11 -48
q-4 -25 -29 -33l-34 -12q-7 -37 -16.5 -80.5t-17.5 -75.5q-15 -56 -39.5 -105.5t-65 -86t-98.5 -57.5t-139 -21q-56 0 -100 15t-76 41.5t-50.5 63t-22.5 79.5l-38 -13q-9 -3 -12 -3q-9 0 -13.5 6t-2.5 15l10 48q5 25 29 33l34 12q7 37 16 78.5t18 73.5zM517 265
q5 22 11.5 47t11.5 51l-344 -124q-3 -60 32 -92t98 -32q70 0 120.5 39t70.5 111zM235 434q-12 -42 -23 -94l343 123q2 59 -32 90.5t-97 31.5q-70 0 -121 -39.5t-70 -111.5z" />
    <glyph glyph-name="Otilde" unicode="&#xd5;" horiz-adv-x="695" 
d="M84 439q15 56 41 105.5t67 86t98.5 58t134.5 21.5q66 0 116 -21t82.5 -58t45 -86t3.5 -106q-3 -19 -7.5 -42t-10 -47.5t-11 -47.5t-9.5 -42q-15 -56 -39.5 -105.5t-65 -86t-98.5 -57.5t-139 -21q-66 0 -116 21t-82 57.5t-44.5 86t-3.5 105.5q3 19 7.5 42t9.5 47.5
t10.5 47.5t10.5 42zM536 434q11 72 -23 111.5t-104 39.5t-121 -39.5t-70 -111.5q-11 -38 -21 -84.5t-15 -84.5q-12 -72 22.5 -111t104.5 -39t120.5 39t70.5 111q10 38 20 84.5t16 84.5zM512 745q-22 0 -37.5 5.5t-28 11.5t-24 11.5t-25.5 5.5q-12 0 -18 -4.5t-11 -10
t-9.5 -10t-13.5 -4.5h-56q-9 0 -13 5.5t-2 13.5q4 19 15 39.5t27.5 37.5t38.5 28t49 11q22 0 37 -5.5t27.5 -11.5t24 -11.5t25.5 -5.5q12 0 18.5 4.5t11 10t9.5 10t14 4.5h56q9 0 13 -5.5t2 -13.5q-4 -19 -15 -39.5t-27.5 -37.5t-38.5 -28t-49 -11z" />
    <glyph glyph-name="OE" unicode="&#x152;" horiz-adv-x="978" 
d="M983 700q11 0 17.5 -8t4.5 -19l-16 -71q-2 -11 -11.5 -19t-20.5 -8h-323l-34 -159h301q11 0 17 -8t4 -19l-15 -71q-2 -11 -12 -19t-21 -8h-301l-35 -166h331q11 0 17.5 -8t3.5 -19l-15 -71q-2 -11 -11.5 -19t-20.5 -8h-549q-65 0 -115 19.5t-82.5 55.5t-45.5 87t-3 114
q6 38 13.5 74t18.5 74q17 63 44.5 114t68.5 87t98.5 55.5t135.5 19.5h556zM215 424q-11 -38 -18.5 -74t-13.5 -74q-5 -32 -0.5 -60t20.5 -48t43.5 -31.5t68.5 -11.5h88l96 450h-83q-43 0 -76.5 -11.5t-58.5 -32t-41 -48t-25 -59.5z" />
    <glyph glyph-name="P" unicode="P" horiz-adv-x="660" 
d="M449 700q56 0 101.5 -14.5t75.5 -43t41.5 -70t-0.5 -96.5t-33.5 -97t-57 -70.5t-85.5 -43.5t-117 -15h-170l-48 -223q-2 -11 -11.5 -19t-20.5 -8h-81q-11 0 -17.5 8t-4.5 19l138 646q2 11 11.5 19t20.5 8h258zM230 375h155q57 0 96 22t51 79q12 56 -17.5 77.5t-86.5 21.5
h-155z" />
    <glyph glyph-name="Q" unicode="Q" horiz-adv-x="695" 
d="M84 439q15 56 41 105.5t67 86t98.5 58t134.5 21.5q66 0 116 -21t82.5 -58t45 -86t3.5 -106q-3 -19 -7.5 -42t-10 -47.5t-11 -47.5t-9.5 -42q-15 -57 -40.5 -107t-67.5 -87l49 -100q3 -5 1 -9q-1 -10 -8.5 -16t-16.5 -6h-95q-18 1 -25 10t-10 15l-20 42q-48 -12 -109 -12
q-66 0 -116 21t-82 57.5t-44.5 86t-3.5 105.5q3 19 7.5 42t9.5 47.5t10.5 47.5t10.5 42zM536 434q11 72 -23 111.5t-104 39.5t-121 -39.5t-70 -111.5q-11 -38 -21 -84.5t-15 -84.5q-12 -72 22.5 -111t104.5 -39t120.5 39t70.5 111q10 38 20 84.5t16 84.5z" />
    <glyph glyph-name="R" unicode="R" horiz-adv-x="669" 
d="M439 700q58 0 103.5 -15t75 -43.5t40.5 -69t0 -91.5q-8 -36 -21 -66.5t-33.5 -55.5t-50 -44.5t-70.5 -34.5l86 -247q3 -12 -5.5 -22.5t-20.5 -10.5h-72q-20 0 -28 9.5t-10 17.5l-81 233h-146l-50 -233q-2 -11 -11.5 -19t-20.5 -8h-81q-11 0 -17.5 8t-4.5 19l138 646
q2 11 11.5 19t20.5 8h248zM232 385h145q57 0 95.5 20t50.5 76q6 28 1 46.5t-19 29t-36.5 14.5t-50.5 4h-145z" />
    <glyph glyph-name="Racute" unicode="&#x154;" horiz-adv-x="669" 
d="M439 700q58 0 103.5 -15t75 -43.5t40.5 -69t0 -91.5q-8 -36 -21 -66.5t-33.5 -55.5t-50 -44.5t-70.5 -34.5l86 -247q3 -12 -5.5 -22.5t-20.5 -10.5h-72q-20 0 -28 9.5t-10 17.5l-81 233h-146l-50 -233q-2 -11 -11.5 -19t-20.5 -8h-81q-11 0 -17.5 8t-4.5 19l138 646
q2 11 11.5 19t20.5 8h248zM232 385h145q57 0 95.5 20t50.5 76q6 28 1 46.5t-19 29t-36.5 14.5t-50.5 4h-145zM461 881q14 13 22 16t19 3h100q14 0 15.5 -12.5t-8.5 -19.5l-144 -101q-10 -7 -20 -12t-26 -5h-60q-13 0 -13.5 10.5t8.5 18.5z" />
    <glyph glyph-name="Rcaron" unicode="&#x158;" horiz-adv-x="669" 
d="M439 700q58 0 103.5 -15t75 -43.5t40.5 -69t0 -91.5q-8 -36 -21 -66.5t-33.5 -55.5t-50 -44.5t-70.5 -34.5l86 -247q3 -12 -5.5 -22.5t-20.5 -10.5h-72q-20 0 -28 9.5t-10 17.5l-81 233h-146l-50 -233q-2 -11 -11.5 -19t-20.5 -8h-81q-11 0 -17.5 8t-4.5 19l138 646
q2 11 11.5 19t20.5 8h248zM232 385h145q57 0 95.5 20t50.5 76q6 28 1 46.5t-19 29t-36.5 14.5t-50.5 4h-145zM364 750q-11 0 -18 4t-15 15l-70 102q-7 10 -1 19.5t18 9.5h35q10 0 15.5 -2.5t13.5 -8.5l70 -47l87 47q10 5 16.5 8t16.5 3h48q14 0 15.5 -11t-9.5 -20l-112 -100
q-12 -11 -21 -15t-20 -4h-69z" />
    <glyph glyph-name="Rcommaaccent" unicode="&#x156;" horiz-adv-x="669" 
d="M439 700q58 0 103.5 -15t75 -43.5t40.5 -69t0 -91.5q-8 -36 -21 -66.5t-33.5 -55.5t-50 -44.5t-70.5 -34.5l86 -247q3 -12 -5.5 -22.5t-20.5 -10.5h-72q-20 0 -28 9.5t-10 17.5l-81 233h-146l-50 -233q-2 -11 -11.5 -19t-20.5 -8h-81q-11 0 -17.5 8t-4.5 19l138 646
q2 11 11.5 19t20.5 8h248zM232 385h145q57 0 95.5 20t50.5 76q6 28 1 46.5t-19 29t-36.5 14.5t-50.5 4h-145zM184 -89q5 14 18 26.5t33 12.5h87q13 0 16.5 -10t-2.5 -21l-84 -137q-6 -10 -18 -21t-32 -11h-52q-12 0 -16 8t-1 16z" />
    <glyph glyph-name="S" unicode="S" horiz-adv-x="647" 
d="M394 710q64 0 112 -18t79 -45t44.5 -59.5t9.5 -61.5q-2 -12 -11.5 -19.5t-20.5 -7.5h-70q-17 0 -24.5 6.5t-11.5 17.5q-10 25 -36.5 43.5t-86.5 18.5q-53 0 -95 -21.5t-50 -59.5q-5 -23 1.5 -37.5t26.5 -26t55 -20.5t88 -21q115 -26 157.5 -79.5t26.5 -130.5
q-9 -45 -31 -81.5t-59.5 -63t-92 -40.5t-129.5 -14q-53 0 -103.5 13.5t-89 39t-59.5 61.5t-14 80q2 12 11.5 19.5t20.5 7.5h70q17 0 25 -6t11 -18q4 -13 11.5 -26t22.5 -23t39 -16.5t62 -6.5q30 0 59 4.5t52.5 15t39.5 26t21 38.5q5 22 -6.5 36t-37.5 24.5t-66 20t-93 23.5
q-96 25 -132 77t-20 134q17 91 91.5 143.5t202.5 52.5z" />
    <glyph glyph-name="Sacute" unicode="&#x15a;" horiz-adv-x="647" 
d="M394 710q64 0 112 -18t79 -45t44.5 -59.5t9.5 -61.5q-2 -12 -11.5 -19.5t-20.5 -7.5h-70q-17 0 -24.5 6.5t-11.5 17.5q-10 25 -36.5 43.5t-86.5 18.5q-53 0 -95 -21.5t-50 -59.5q-5 -23 1.5 -37.5t26.5 -26t55 -20.5t88 -21q115 -26 157.5 -79.5t26.5 -130.5
q-9 -45 -31 -81.5t-59.5 -63t-92 -40.5t-129.5 -14q-53 0 -103.5 13.5t-89 39t-59.5 61.5t-14 80q2 12 11.5 19.5t20.5 7.5h70q17 0 25 -6t11 -18q4 -13 11.5 -26t22.5 -23t39 -16.5t62 -6.5q30 0 59 4.5t52.5 15t39.5 26t21 38.5q5 22 -6.5 36t-37.5 24.5t-66 20t-93 23.5
q-96 25 -132 77t-20 134q17 91 91.5 143.5t202.5 52.5zM472 881q14 13 22 16t19 3h100q14 0 15.5 -12.5t-8.5 -19.5l-144 -101q-10 -7 -20 -12t-26 -5h-60q-13 0 -13.5 10.5t8.5 18.5z" />
    <glyph glyph-name="Scaron" unicode="&#x160;" horiz-adv-x="647" 
d="M394 710q64 0 112 -18t79 -45t44.5 -59.5t9.5 -61.5q-2 -12 -11.5 -19.5t-20.5 -7.5h-70q-17 0 -24.5 6.5t-11.5 17.5q-10 25 -36.5 43.5t-86.5 18.5q-53 0 -95 -21.5t-50 -59.5q-5 -23 1.5 -37.5t26.5 -26t55 -20.5t88 -21q115 -26 157.5 -79.5t26.5 -130.5
q-9 -45 -31 -81.5t-59.5 -63t-92 -40.5t-129.5 -14q-53 0 -103.5 13.5t-89 39t-59.5 61.5t-14 80q2 12 11.5 19.5t20.5 7.5h70q17 0 25 -6t11 -18q4 -13 11.5 -26t22.5 -23t39 -16.5t62 -6.5q30 0 59 4.5t52.5 15t39.5 26t21 38.5q5 22 -6.5 36t-37.5 24.5t-66 20t-93 23.5
q-96 25 -132 77t-20 134q17 91 91.5 143.5t202.5 52.5zM378 750q-11 0 -18 4t-15 15l-70 102q-7 10 -1 19.5t18 9.5h35q10 0 15.5 -2.5t13.5 -8.5l70 -47l87 47q10 5 16.5 8t16.5 3h48q14 0 15.5 -11t-9.5 -20l-112 -100q-12 -11 -21 -15t-20 -4h-69z" />
    <glyph glyph-name="Scedilla" unicode="&#x15e;" horiz-adv-x="647" 
d="M394 710q64 0 112 -18t79 -45t44.5 -59.5t9.5 -61.5q-2 -12 -11.5 -19.5t-20.5 -7.5h-70q-17 0 -24.5 6.5t-11.5 17.5q-10 25 -36.5 43.5t-86.5 18.5q-53 0 -95 -21.5t-50 -59.5q-5 -23 1.5 -37.5t26.5 -26t55 -20.5t88 -21q115 -26 157.5 -79.5t26.5 -130.5
q-9 -45 -31 -81.5t-59.5 -63t-92 -40.5t-129.5 -14h-11l-31 -46q7 4 16.5 7t20.5 3q33 0 49 -26.5t8 -62.5t-33 -60.5t-74 -24.5q-18 0 -36 5t-30 12.5t-16 16.5t6 17l16 13q10 7 15 7t10.5 -3.5t13.5 -7.5t23 -4q38 0 44 32q6 30 -31 30q-8 0 -16 -3t-15 -5t-13 -2t-11 6
l-12 18q-5 8 -5 13.5t10 19.5l34 51q-43 7 -81.5 23.5t-66.5 40.5t-42 55.5t-8 68.5q2 12 11.5 19.5t20.5 7.5h70q17 0 25 -6t11 -18q4 -13 11.5 -26t22.5 -23t39 -16.5t62 -6.5q30 0 59 4.5t52.5 15t39.5 26t21 38.5q5 22 -6.5 36t-37.5 24.5t-66 20t-93 23.5
q-96 25 -132 77t-20 134q17 91 91.5 143.5t202.5 52.5z" />
    <glyph glyph-name="Scircumflex" unicode="&#x15c;" horiz-adv-x="647" 
d="M394 710q64 0 112 -18t79 -45t44.5 -59.5t9.5 -61.5q-2 -12 -11.5 -19.5t-20.5 -7.5h-70q-17 0 -24.5 6.5t-11.5 17.5q-10 25 -36.5 43.5t-86.5 18.5q-53 0 -95 -21.5t-50 -59.5q-5 -23 1.5 -37.5t26.5 -26t55 -20.5t88 -21q115 -26 157.5 -79.5t26.5 -130.5
q-9 -45 -31 -81.5t-59.5 -63t-92 -40.5t-129.5 -14q-53 0 -103.5 13.5t-89 39t-59.5 61.5t-14 80q2 12 11.5 19.5t20.5 7.5h70q17 0 25 -6t11 -18q4 -13 11.5 -26t22.5 -23t39 -16.5t62 -6.5q30 0 59 4.5t52.5 15t39.5 26t21 38.5q5 22 -6.5 36t-37.5 24.5t-66 20t-93 23.5
q-96 25 -132 77t-20 134q17 91 91.5 143.5t202.5 52.5zM470 900q11 0 18 -4t15 -15l70 -102q7 -10 1 -19.5t-18 -9.5h-35q-10 0 -15.5 2.5t-13.5 8.5l-70 47l-87 -47q-10 -5 -16.5 -8t-16.5 -3h-48q-14 0 -15.5 11t9.5 20l112 100q12 11 21 15t20 4h69z" />
    <glyph glyph-name="Scommaaccent" unicode="&#x218;" horiz-adv-x="647" 
d="M394 710q64 0 112 -18t79 -45t44.5 -59.5t9.5 -61.5q-2 -12 -11.5 -19.5t-20.5 -7.5h-70q-17 0 -24.5 6.5t-11.5 17.5q-10 25 -36.5 43.5t-86.5 18.5q-53 0 -95 -21.5t-50 -59.5q-5 -23 1.5 -37.5t26.5 -26t55 -20.5t88 -21q115 -26 157.5 -79.5t26.5 -130.5
q-9 -45 -31 -81.5t-59.5 -63t-92 -40.5t-129.5 -14q-53 0 -103.5 13.5t-89 39t-59.5 61.5t-14 80q2 12 11.5 19.5t20.5 7.5h70q17 0 25 -6t11 -18q4 -13 11.5 -26t22.5 -23t39 -16.5t62 -6.5q30 0 59 4.5t52.5 15t39.5 26t21 38.5q5 22 -6.5 36t-37.5 24.5t-66 20t-93 23.5
q-96 25 -132 77t-20 134q17 91 91.5 143.5t202.5 52.5zM155 -89q5 14 18 26.5t33 12.5h87q13 0 16.5 -10t-2.5 -21l-84 -137q-6 -10 -18 -21t-32 -11h-52q-12 0 -16 8t-1 16z" />
    <glyph glyph-name="T" unicode="T" horiz-adv-x="590" 
d="M628 700q11 0 17.5 -8t4.5 -19l-16 -71q-2 -11 -11.5 -19t-20.5 -8h-180l-117 -548q-2 -11 -11.5 -19t-20.5 -8h-81q-11 0 -17.5 8t-4.5 19l117 548h-180q-11 0 -17.5 8t-4.5 19l16 71q2 11 11.5 19t20.5 8h495z" />
    <glyph glyph-name="Tbar" unicode="&#x166;" horiz-adv-x="601" 
d="M633 700q11 0 17.5 -8t4.5 -19l-16 -71q-2 -11 -11.5 -19t-20.5 -8h-180l-34 -157h104q11 0 17.5 -8t4.5 -19l-14 -63q-2 -11 -12 -19t-21 -8h-104l-58 -274q-2 -11 -11.5 -19t-20.5 -8h-81q-11 0 -17.5 8t-4.5 19l58 274h-106q-11 0 -17 8t-4 19l14 63q2 11 11.5 19
t20.5 8h106l34 157h-180q-11 0 -17.5 8t-4.5 19l16 71q2 11 11.5 19t20.5 8h495z" />
    <glyph glyph-name="Tcaron" unicode="&#x164;" horiz-adv-x="590" 
d="M628 700q11 0 17.5 -8t4.5 -19l-16 -71q-2 -11 -11.5 -19t-20.5 -8h-180l-117 -548q-2 -11 -11.5 -19t-20.5 -8h-81q-11 0 -17.5 8t-4.5 19l117 548h-180q-11 0 -17.5 8t-4.5 19l16 71q2 11 11.5 19t20.5 8h495zM351 750q-11 0 -18 4t-15 15l-70 102q-7 10 -1 19.5
t18 9.5h35q10 0 15.5 -2.5t13.5 -8.5l70 -47l87 47q10 5 16.5 8t16.5 3h48q14 0 15.5 -11t-9.5 -20l-112 -100q-12 -11 -21 -15t-20 -4h-69z" />
    <glyph glyph-name="Tcommaaccent" unicode="&#x162;" horiz-adv-x="590" 
d="M628 700q11 0 17.5 -8t4.5 -19l-16 -71q-2 -11 -11.5 -19t-20.5 -8h-180l-117 -548q-2 -11 -11.5 -19t-20.5 -8h-81q-11 0 -17.5 8t-4.5 19l117 548h-180q-11 0 -17.5 8t-4.5 19l16 71q2 11 11.5 19t20.5 8h495zM129 -89q5 14 18 26.5t33 12.5h87q13 0 16.5 -10t-2.5 -21
l-84 -137q-6 -10 -18 -21t-32 -11h-52q-12 0 -16 8t-1 16z" />
    <glyph glyph-name="U" unicode="U" horiz-adv-x="719" 
d="M704 700q11 0 17.5 -8t4.5 -19l-88 -410q-13 -62 -37.5 -112t-64 -86t-97 -55.5t-136.5 -19.5q-65 0 -115 19.5t-81.5 55.5t-43 86t1.5 112l88 410q2 11 11.5 19t20.5 8h81q11 0 17.5 -8t4.5 -19l-87 -405q-9 -41 -4 -70t21.5 -47.5t42.5 -27t59 -8.5t63 8.5t54 27
t41.5 47.5t26.5 70l87 405q2 11 11.5 19t20.5 8h80z" />
    <glyph glyph-name="Uacute" unicode="&#xda;" horiz-adv-x="719" 
d="M704 700q11 0 17.5 -8t4.5 -19l-88 -410q-13 -62 -37.5 -112t-64 -86t-97 -55.5t-136.5 -19.5q-65 0 -115 19.5t-81.5 55.5t-43 86t1.5 112l88 410q2 11 11.5 19t20.5 8h81q11 0 17.5 -8t4.5 -19l-87 -405q-9 -41 -4 -70t21.5 -47.5t42.5 -27t59 -8.5t63 8.5t54 27
t41.5 47.5t26.5 70l87 405q2 11 11.5 19t20.5 8h80zM500 881q14 13 22 16t19 3h100q14 0 15.5 -12.5t-8.5 -19.5l-144 -101q-10 -7 -20 -12t-26 -5h-60q-13 0 -13.5 10.5t8.5 18.5z" />
    <glyph glyph-name="Ubreve" unicode="&#x16c;" horiz-adv-x="719" 
d="M704 700q11 0 17.5 -8t4.5 -19l-88 -410q-13 -62 -37.5 -112t-64 -86t-97 -55.5t-136.5 -19.5q-65 0 -115 19.5t-81.5 55.5t-43 86t1.5 112l88 410q2 11 11.5 19t20.5 8h81q11 0 17.5 -8t4.5 -19l-87 -405q-9 -41 -4 -70t21.5 -47.5t42.5 -27t59 -8.5t63 8.5t54 27
t41.5 47.5t26.5 70l87 405q2 11 11.5 19t20.5 8h80zM447 745q-39 0 -65.5 12.5t-42.5 32t-21.5 43.5t-0.5 48q2 8 8 13.5t15 5.5h57q9 0 12.5 -5.5t2.5 -13.5q-3 -22 6.5 -36t36.5 -14t43.5 14t21.5 36q2 8 8 13.5t15 5.5h57q9 0 13 -5.5t2 -13.5q-5 -24 -14.5 -48
t-28.5 -43.5t-49 -32t-76 -12.5z" />
    <glyph glyph-name="Ucircumflex" unicode="&#xdb;" horiz-adv-x="719" 
d="M704 700q11 0 17.5 -8t4.5 -19l-88 -410q-13 -62 -37.5 -112t-64 -86t-97 -55.5t-136.5 -19.5q-65 0 -115 19.5t-81.5 55.5t-43 86t1.5 112l88 410q2 11 11.5 19t20.5 8h81q11 0 17.5 -8t4.5 -19l-87 -405q-9 -41 -4 -70t21.5 -47.5t42.5 -27t59 -8.5t63 8.5t54 27
t41.5 47.5t26.5 70l87 405q2 11 11.5 19t20.5 8h80zM503 900q11 0 18 -4t15 -15l70 -102q7 -10 1 -19.5t-18 -9.5h-35q-10 0 -15.5 2.5t-13.5 8.5l-70 47l-87 -47q-10 -5 -16.5 -8t-16.5 -3h-48q-14 0 -15.5 11t9.5 20l112 100q12 11 21 15t20 4h69z" />
    <glyph glyph-name="Udieresis" unicode="&#xdc;" horiz-adv-x="719" 
d="M704 700q11 0 17.5 -8t4.5 -19l-88 -410q-13 -62 -37.5 -112t-64 -86t-97 -55.5t-136.5 -19.5q-65 0 -115 19.5t-81.5 55.5t-43 86t1.5 112l88 410q2 11 11.5 19t20.5 8h81q11 0 17.5 -8t4.5 -19l-87 -405q-9 -41 -4 -70t21.5 -47.5t42.5 -27t59 -8.5t63 8.5t54 27
t41.5 47.5t26.5 70l87 405q2 11 11.5 19t20.5 8h80zM393 892q11 0 17 -8t4 -19l-18 -88q-2 -11 -12 -19t-21 -8h-83q-11 0 -17 8t-4 19l18 88q2 11 12 19t21 8h83zM630 892q11 0 17 -8t4 -19l-18 -88q-2 -11 -12 -19t-21 -8h-83q-11 0 -17 8t-4 19l18 88q2 11 12 19t21 8h83
z" />
    <glyph glyph-name="Ugrave" unicode="&#xd9;" horiz-adv-x="719" 
d="M704 700q11 0 17.5 -8t4.5 -19l-88 -410q-13 -62 -37.5 -112t-64 -86t-97 -55.5t-136.5 -19.5q-65 0 -115 19.5t-81.5 55.5t-43 86t1.5 112l88 410q2 11 11.5 19t20.5 8h81q11 0 17.5 -8t4.5 -19l-87 -405q-9 -41 -4 -70t21.5 -47.5t42.5 -27t59 -8.5t63 8.5t54 27
t41.5 47.5t26.5 70l87 405q2 11 11.5 19t20.5 8h80zM510 779q6 -10 0 -19.5t-17 -9.5h-60q-16 0 -23.5 5t-14.5 12l-98 97q-9 9 -4 22.5t21 13.5h100q11 0 18 -2.5t15 -16.5z" />
    <glyph glyph-name="Uhungarumlaut" unicode="&#x170;" horiz-adv-x="719" 
d="M704 700q11 0 17.5 -8t4.5 -19l-88 -410q-13 -62 -37.5 -112t-64 -86t-97 -55.5t-136.5 -19.5q-65 0 -115 19.5t-81.5 55.5t-43 86t1.5 112l88 410q2 11 11.5 19t20.5 8h81q11 0 17.5 -8t4.5 -19l-87 -405q-9 -41 -4 -70t21.5 -47.5t42.5 -27t59 -8.5t63 8.5t54 27
t41.5 47.5t26.5 70l87 405q2 11 11.5 19t20.5 8h80zM361 881q7 10 16 14.5t25 4.5h98q15 0 17 -11t-8 -19l-120 -106q-16 -14 -37 -14h-53q-11 0 -13 7.5t4 16.5zM567 881q7 10 16 14.5t25 4.5h98q15 0 17 -11t-8 -19l-120 -106q-16 -14 -37 -14h-53q-11 0 -13 7.5t4 16.5z
" />
    <glyph glyph-name="Umacron" unicode="&#x16a;" horiz-adv-x="719" 
d="M704 700q11 0 17.5 -8t4.5 -19l-88 -410q-13 -62 -37.5 -112t-64 -86t-97 -55.5t-136.5 -19.5q-65 0 -115 19.5t-81.5 55.5t-43 86t1.5 112l88 410q2 11 11.5 19t20.5 8h81q11 0 17.5 -8t4.5 -19l-87 -405q-9 -41 -4 -70t21.5 -47.5t42.5 -27t59 -8.5t63 8.5t54 27
t41.5 47.5t26.5 70l87 405q2 11 11.5 19t20.5 8h80zM301 750q-11 0 -17.5 8t-3.5 19l14 66q2 11 11.5 19t20.5 8h279q11 0 17.5 -8t4.5 -19l-14 -66q-2 -11 -12 -19t-21 -8h-279z" />
    <glyph glyph-name="Uogonek" unicode="&#x172;" horiz-adv-x="719" 
d="M704 700q11 0 17.5 -8t4.5 -19l-88 -410q-12 -56 -33 -103t-55 -82t-82 -57t-112 -28q-26 -2 -45.5 -14t-26.5 -43t5.5 -47.5t38.5 -16.5h15q21 0 18 -22l-11 -48q-2 -10 -9 -16t-17 -6h-19q-27 0 -51.5 12.5t-42 35t-25.5 52.5t0 66q6 32 20 57q-84 26 -122.5 94
t-18.5 166l88 410q2 11 11.5 19t20.5 8h81q11 0 17.5 -8t4.5 -19l-87 -405q-9 -41 -4 -70t21.5 -47.5t42.5 -27t59 -8.5t63 8.5t54 27t41.5 47.5t26.5 70l87 405q2 11 11.5 19t20.5 8h80z" />
    <glyph glyph-name="Uring" unicode="&#x16e;" horiz-adv-x="719" 
d="M704 700q11 0 17.5 -8t4.5 -19l-88 -410q-13 -62 -37.5 -112t-64 -86t-97 -55.5t-136.5 -19.5q-65 0 -115 19.5t-81.5 55.5t-43 86t1.5 112l88 410q2 11 11.5 19t20.5 8h81q11 0 17.5 -8t4.5 -19l-87 -405q-9 -41 -4 -70t21.5 -47.5t42.5 -27t59 -8.5t63 8.5t54 27
t41.5 47.5t26.5 70l87 405q2 11 11.5 19t20.5 8h80zM432 825q-3 -13 3 -21.5t19 -8.5t24 8.5t14 21.5t-3 21.5t-19 8.5t-24 -8.5t-14 -21.5zM372 825q9 38 37.5 61.5t70.5 23.5q17 0 32 -6.5t25.5 -17.5t14.5 -26.5t0 -34.5q-9 -38 -37.5 -61.5t-70.5 -23.5q-17 0 -32 6
t-25.5 17.5t-15 27t0.5 34.5z" />
    <glyph glyph-name="Utilde" unicode="&#x168;" horiz-adv-x="719" 
d="M704 700q11 0 17.5 -8t4.5 -19l-88 -410q-13 -62 -37.5 -112t-64 -86t-97 -55.5t-136.5 -19.5q-65 0 -115 19.5t-81.5 55.5t-43 86t1.5 112l88 410q2 11 11.5 19t20.5 8h81q11 0 17.5 -8t4.5 -19l-87 -405q-9 -41 -4 -70t21.5 -47.5t42.5 -27t59 -8.5t63 8.5t54 27
t41.5 47.5t26.5 70l87 405q2 11 11.5 19t20.5 8h80zM523 745q-22 0 -37.5 5.5t-28 11.5t-24 11.5t-25.5 5.5q-12 0 -18 -4.5t-11 -10t-9.5 -10t-13.5 -4.5h-56q-9 0 -13 5.5t-2 13.5q4 19 15 39.5t27.5 37.5t38.5 28t49 11q22 0 37 -5.5t27.5 -11.5t24 -11.5t25.5 -5.5
q12 0 18.5 4.5t11 10t9.5 10t14 4.5h56q9 0 13 -5.5t2 -13.5q-4 -19 -15 -39.5t-27.5 -37.5t-38.5 -28t-49 -11z" />
    <glyph glyph-name="V" unicode="V" horiz-adv-x="664" 
d="M303 198l269 477q5 8 14 16.5t24 8.5h86q17 0 21 -12t-4 -25l-355 -629q-10 -17 -19.5 -25.5t-25.5 -8.5h-86q-16 0 -22.5 8.5t-8.5 25.5l-90 629q-2 14 8.5 25.5t24.5 11.5h69q15 0 20.5 -8.5t7.5 -16.5z" />
    <glyph glyph-name="W" unicode="W" horiz-adv-x="803" 
d="M408 317l-151 -283q-8 -15 -17.5 -24.5t-24.5 -9.5h-80q-15 0 -22 9.5t-6 24.5l6 631q0 7 1 8q2 11 11.5 19t20.5 8h74q10 0 18 -6t8 -21l-4 -405l132 248q3 7 13 18t28 11h71q18 0 23.5 -11t5.5 -18l28 -252l168 409q6 15 16 21t20 6h80q11 0 17.5 -8t4.5 -19l-3 -8
l-260 -631q-7 -15 -17 -24.5t-25 -9.5h-78q-15 0 -21 9.5t-7 24.5z" />
    <glyph glyph-name="Wacute" unicode="&#x1e82;" horiz-adv-x="803" 
d="M408 317l-151 -283q-8 -15 -17.5 -24.5t-24.5 -9.5h-80q-15 0 -22 9.5t-6 24.5l6 631q0 7 1 8q2 11 11.5 19t20.5 8h74q10 0 18 -6t8 -21l-4 -405l132 248q3 7 13 18t28 11h71q18 0 23.5 -11t5.5 -18l28 -252l168 409q6 15 16 21t20 6h80q11 0 17.5 -8t4.5 -19l-3 -8
l-260 -631q-7 -15 -17 -24.5t-25 -9.5h-78q-15 0 -21 9.5t-7 24.5zM552 881q14 13 22 16t19 3h100q14 0 15.5 -12.5t-8.5 -19.5l-144 -101q-10 -7 -20 -12t-26 -5h-60q-13 0 -13.5 10.5t8.5 18.5z" />
    <glyph glyph-name="Wcircumflex" unicode="&#x174;" horiz-adv-x="803" 
d="M408 317l-151 -283q-8 -15 -17.5 -24.5t-24.5 -9.5h-80q-15 0 -22 9.5t-6 24.5l6 631q0 7 1 8q2 11 11.5 19t20.5 8h74q10 0 18 -6t8 -21l-4 -405l132 248q3 7 13 18t28 11h71q18 0 23.5 -11t5.5 -18l28 -252l168 409q6 15 16 21t20 6h80q11 0 17.5 -8t4.5 -19l-3 -8
l-260 -631q-7 -15 -17 -24.5t-25 -9.5h-78q-15 0 -21 9.5t-7 24.5zM544 900q11 0 18 -4t15 -15l70 -102q7 -10 1 -19.5t-18 -9.5h-35q-10 0 -15.5 2.5t-13.5 8.5l-70 47l-87 -47q-10 -5 -16.5 -8t-16.5 -3h-48q-14 0 -15.5 11t9.5 20l112 100q12 11 21 15t20 4h69z" />
    <glyph glyph-name="Wdieresis" unicode="&#x1e84;" horiz-adv-x="803" 
d="M408 317l-151 -283q-8 -15 -17.5 -24.5t-24.5 -9.5h-80q-15 0 -22 9.5t-6 24.5l6 631q0 7 1 8q2 11 11.5 19t20.5 8h74q10 0 18 -6t8 -21l-4 -405l132 248q3 7 13 18t28 11h71q18 0 23.5 -11t5.5 -18l28 -252l168 409q6 15 16 21t20 6h80q11 0 17.5 -8t4.5 -19l-3 -8
l-260 -631q-7 -15 -17 -24.5t-25 -9.5h-78q-15 0 -21 9.5t-7 24.5zM441 892q11 0 17 -8t4 -19l-18 -88q-2 -11 -12 -19t-21 -8h-83q-11 0 -17 8t-4 19l18 88q2 11 12 19t21 8h83zM678 892q11 0 17 -8t4 -19l-18 -88q-2 -11 -12 -19t-21 -8h-83q-11 0 -17 8t-4 19l18 88
q2 11 12 19t21 8h83z" />
    <glyph glyph-name="Wgrave" unicode="&#x1e80;" horiz-adv-x="803" 
d="M408 317l-151 -283q-8 -15 -17.5 -24.5t-24.5 -9.5h-80q-15 0 -22 9.5t-6 24.5l6 631q0 7 1 8q2 11 11.5 19t20.5 8h74q10 0 18 -6t8 -21l-4 -405l132 248q3 7 13 18t28 11h71q18 0 23.5 -11t5.5 -18l28 -252l168 409q6 15 16 21t20 6h80q11 0 17.5 -8t4.5 -19l-3 -8
l-260 -631q-7 -15 -17 -24.5t-25 -9.5h-78q-15 0 -21 9.5t-7 24.5zM536 779q6 -10 0 -19.5t-17 -9.5h-60q-16 0 -23.5 5t-14.5 12l-98 97q-9 9 -4 22.5t21 13.5h100q11 0 18 -2.5t15 -16.5z" />
    <glyph glyph-name="X" unicode="X" horiz-adv-x="667" 
d="M478 0q-19 0 -26.5 10t-10.5 15l-112 219l-203 -219q-5 -5 -16 -15t-31 -10h-101q-17 0 -21.5 13.5t5.5 24.5l306 329l-147 293q-7 14 3 27t28 13h71q20 0 27 -10t10 -15l106 -209l193 209q5 5 16 15t31 10h100q16 0 21 -13.5t-5 -24.5l-296 -319l153 -301
q4 -8 2.5 -15.5t-6.5 -13.5t-12 -9.5t-14 -3.5h-71z" />
    <glyph glyph-name="Y" unicode="Y" horiz-adv-x="659" 
d="M694 700q14 0 20 -12.5t-2 -23.5l-327 -417l-47 -220q-2 -11 -11.5 -19t-20.5 -8h-79q-11 0 -17.5 8t-4.5 19l47 220l-147 414q-5 16 6 27.5t25 11.5h68q20 0 27.5 -10t9.5 -15l99 -279l218 279q8 10 17.5 17.5t29.5 7.5h89z" />
    <glyph glyph-name="Yacute" unicode="&#xdd;" horiz-adv-x="659" 
d="M694 700q14 0 20 -12.5t-2 -23.5l-327 -417l-47 -220q-2 -11 -11.5 -19t-20.5 -8h-79q-11 0 -17.5 8t-4.5 19l47 220l-147 414q-5 16 6 27.5t25 11.5h68q20 0 27.5 -10t9.5 -15l99 -279l218 279q8 10 17.5 17.5t29.5 7.5h89zM458 881q14 13 22 16t19 3h100
q14 0 15.5 -12.5t-8.5 -19.5l-144 -101q-10 -7 -20 -12t-26 -5h-60q-13 0 -13.5 10.5t8.5 18.5z" />
    <glyph glyph-name="Ycircumflex" unicode="&#x176;" horiz-adv-x="659" 
d="M694 700q14 0 20 -12.5t-2 -23.5l-327 -417l-47 -220q-2 -11 -11.5 -19t-20.5 -8h-79q-11 0 -17.5 8t-4.5 19l47 220l-147 414q-5 16 6 27.5t25 11.5h68q20 0 27.5 -10t9.5 -15l99 -279l218 279q8 10 17.5 17.5t29.5 7.5h89zM460 900q11 0 18 -4t15 -15l70 -102
q7 -10 1 -19.5t-18 -9.5h-35q-10 0 -15.5 2.5t-13.5 8.5l-70 47l-87 -47q-10 -5 -16.5 -8t-16.5 -3h-48q-14 0 -15.5 11t9.5 20l112 100q12 11 21 15t20 4h69z" />
    <glyph glyph-name="Ydieresis" unicode="&#x178;" horiz-adv-x="659" 
d="M694 700q14 0 20 -12.5t-2 -23.5l-327 -417l-47 -220q-2 -11 -11.5 -19t-20.5 -8h-79q-11 0 -17.5 8t-4.5 19l47 220l-147 414q-5 16 6 27.5t25 11.5h68q20 0 27.5 -10t9.5 -15l99 -279l218 279q8 10 17.5 17.5t29.5 7.5h89zM352 892q11 0 17 -8t4 -19l-18 -88
q-2 -11 -12 -19t-21 -8h-83q-11 0 -17 8t-4 19l18 88q2 11 12 19t21 8h83zM589 892q11 0 17 -8t4 -19l-18 -88q-2 -11 -12 -19t-21 -8h-83q-11 0 -17 8t-4 19l18 88q2 11 12 19t21 8h83z" />
    <glyph glyph-name="Ygrave" unicode="&#x1ef2;" horiz-adv-x="659" 
d="M694 700q14 0 20 -12.5t-2 -23.5l-327 -417l-47 -220q-2 -11 -11.5 -19t-20.5 -8h-79q-11 0 -17.5 8t-4.5 19l47 220l-147 414q-5 16 6 27.5t25 11.5h68q20 0 27.5 -10t9.5 -15l99 -279l218 279q8 10 17.5 17.5t29.5 7.5h89zM463 779q6 -10 0 -19.5t-17 -9.5h-60
q-16 0 -23.5 5t-14.5 12l-98 97q-9 9 -4 22.5t21 13.5h100q11 0 18 -2.5t15 -16.5z" />
    <glyph glyph-name="Z" unicode="Z" horiz-adv-x="633" 
d="M531 125q11 0 17.5 -8t3.5 -19l-15 -71q-2 -11 -11.5 -19t-20.5 -8h-501q-11 0 -17.5 8t-4.5 19l15 71q3 13 10.5 21.5t12.5 13.5l437 442h-321q-11 0 -17.5 8t-4.5 19l16 71q2 11 11.5 19t20.5 8h481q11 0 17.5 -8t4.5 -19l-16 -71q-2 -11 -7.5 -18.5t-12.5 -14.5
l-440 -444h342z" />
    <glyph glyph-name="Zacute" unicode="&#x179;" horiz-adv-x="633" 
d="M531 125q11 0 17.5 -8t3.5 -19l-15 -71q-2 -11 -11.5 -19t-20.5 -8h-501q-11 0 -17.5 8t-4.5 19l15 71q3 13 10.5 21.5t12.5 13.5l437 442h-321q-11 0 -17.5 8t-4.5 19l16 71q2 11 11.5 19t20.5 8h481q11 0 17.5 -8t4.5 -19l-16 -71q-2 -11 -7.5 -18.5t-12.5 -14.5
l-440 -444h342zM474 881q14 13 22 16t19 3h100q14 0 15.5 -12.5t-8.5 -19.5l-144 -101q-10 -7 -20 -12t-26 -5h-60q-13 0 -13.5 10.5t8.5 18.5z" />
    <glyph glyph-name="Zcaron" unicode="&#x17d;" horiz-adv-x="633" 
d="M531 125q11 0 17.5 -8t3.5 -19l-15 -71q-2 -11 -11.5 -19t-20.5 -8h-501q-11 0 -17.5 8t-4.5 19l15 71q3 13 10.5 21.5t12.5 13.5l437 442h-321q-11 0 -17.5 8t-4.5 19l16 71q2 11 11.5 19t20.5 8h481q11 0 17.5 -8t4.5 -19l-16 -71q-2 -11 -7.5 -18.5t-12.5 -14.5
l-440 -444h342zM371 750q-11 0 -18 4t-15 15l-70 102q-7 10 -1 19.5t18 9.5h35q10 0 15.5 -2.5t13.5 -8.5l70 -47l87 47q10 5 16.5 8t16.5 3h48q14 0 15.5 -11t-9.5 -20l-112 -100q-12 -11 -21 -15t-20 -4h-69z" />
    <glyph glyph-name="Zdotaccent" unicode="&#x17b;" horiz-adv-x="633" 
d="M531 125q11 0 17.5 -8t3.5 -19l-15 -71q-2 -11 -11.5 -19t-20.5 -8h-501q-11 0 -17.5 8t-4.5 19l15 71q3 13 10.5 21.5t12.5 13.5l437 442h-321q-11 0 -17.5 8t-4.5 19l16 71q2 11 11.5 19t20.5 8h481q11 0 17.5 -8t4.5 -19l-16 -71q-2 -11 -7.5 -18.5t-12.5 -14.5
l-440 -444h342zM488 897q11 0 17 -8t4 -19l-19 -93q-2 -11 -12 -19t-21 -8h-88q-11 0 -17.5 8t-3.5 19l19 93q2 11 12 19t21 8h88z" />
    <glyph glyph-name="a" unicode="a" 
d="M307 530q31 0 56 -6t43.5 -15t30.5 -19.5t18 -19.5l5 23q2 11 11.5 19t20.5 8h76q11 0 17.5 -8t4.5 -19l-99 -466q-2 -11 -11.5 -19t-20.5 -8h-76q-11 0 -17.5 8t-4.5 19l5 23q-10 -12 -22 -23t-30 -19t-42.5 -13t-59.5 -5q-47 0 -84 20t-61 53.5t-34.5 77t-2.5 89.5
l7 35t8 35q12 46 34 88t55 73.5t76 50t97 18.5zM173 288q-5 -15 -7.5 -28t-4.5 -28q-4 -32 1.5 -55t18.5 -38t33 -22t44 -7q49 0 88.5 29t56.5 83q5 15 9.5 38t6.5 38q6 52 -21 82t-76 30t-89 -28.5t-60 -93.5z" />
    <glyph glyph-name="aacute" unicode="&#xe1;" 
d="M307 530q31 0 56 -6t43.5 -15t30.5 -19.5t18 -19.5l5 23q2 11 11.5 19t20.5 8h76q11 0 17.5 -8t4.5 -19l-99 -466q-2 -11 -11.5 -19t-20.5 -8h-76q-11 0 -17.5 8t-4.5 19l5 23q-10 -12 -22 -23t-30 -19t-42.5 -13t-59.5 -5q-47 0 -84 20t-61 53.5t-34.5 77t-2.5 89.5
l7 35t8 35q12 46 34 88t55 73.5t76 50t97 18.5zM173 288q-5 -15 -7.5 -28t-4.5 -28q-4 -32 1.5 -55t18.5 -38t33 -22t44 -7q49 0 88.5 29t56.5 83q5 15 9.5 38t6.5 38q6 52 -21 82t-76 30t-89 -28.5t-60 -93.5zM432 726q14 13 22 16t19 3h95q14 0 15.5 -12.5t-8.5 -19.5
l-144 -101q-10 -7 -20 -12t-26 -5h-55q-13 0 -13.5 10.5t8.5 18.5z" />
    <glyph glyph-name="abreve" unicode="&#x103;" 
d="M307 530q31 0 56 -6t43.5 -15t30.5 -19.5t18 -19.5l5 23q2 11 11.5 19t20.5 8h76q11 0 17.5 -8t4.5 -19l-99 -466q-2 -11 -11.5 -19t-20.5 -8h-76q-11 0 -17.5 8t-4.5 19l5 23q-10 -12 -22 -23t-30 -19t-42.5 -13t-59.5 -5q-47 0 -84 20t-61 53.5t-34.5 77t-2.5 89.5
l7 35t8 35q12 46 34 88t55 73.5t76 50t97 18.5zM173 288q-5 -15 -7.5 -28t-4.5 -28q-4 -32 1.5 -55t18.5 -38t33 -22t44 -7q49 0 88.5 29t56.5 83q5 15 9.5 38t6.5 38q6 52 -21 82t-76 30t-89 -28.5t-60 -93.5zM358 590q-39 0 -65 12.5t-41 32t-19.5 43.5t0.5 48q2 8 8 13.5
t15 5.5h57q9 0 12.5 -5.5t2.5 -13.5q-3 -22 4 -36t34 -14t41 14t19 36q2 8 8 13.5t15 5.5h57q9 0 13 -5.5t2 -13.5q-5 -24 -14 -48t-26.5 -43.5t-47 -32t-75.5 -12.5z" />
    <glyph glyph-name="acircumflex" unicode="&#xe2;" 
d="M307 530q31 0 56 -6t43.5 -15t30.5 -19.5t18 -19.5l5 23q2 11 11.5 19t20.5 8h76q11 0 17.5 -8t4.5 -19l-99 -466q-2 -11 -11.5 -19t-20.5 -8h-76q-11 0 -17.5 8t-4.5 19l5 23q-10 -12 -22 -23t-30 -19t-42.5 -13t-59.5 -5q-47 0 -84 20t-61 53.5t-34.5 77t-2.5 89.5
l7 35t8 35q12 46 34 88t55 73.5t76 50t97 18.5zM173 288q-5 -15 -7.5 -28t-4.5 -28q-4 -32 1.5 -55t18.5 -38t33 -22t44 -7q49 0 88.5 29t56.5 83q5 15 9.5 38t6.5 38q6 52 -21 82t-76 30t-89 -28.5t-60 -93.5zM416 745q11 0 18 -4t15 -15l70 -102q7 -10 0.5 -19.5
t-17.5 -9.5h-36q-10 0 -15.5 2.5t-13.5 8.5l-62 47l-86 -47q-10 -6 -16.5 -8.5t-16.5 -2.5h-50q-11 0 -13 10t8 19l114 102q12 11 21 15t20 4h60z" />
    <glyph glyph-name="adieresis" unicode="&#xe4;" 
d="M307 530q31 0 56 -6t43.5 -15t30.5 -19.5t18 -19.5l5 23q2 11 11.5 19t20.5 8h76q11 0 17.5 -8t4.5 -19l-99 -466q-2 -11 -11.5 -19t-20.5 -8h-76q-11 0 -17.5 8t-4.5 19l5 23q-10 -12 -22 -23t-30 -19t-42.5 -13t-59.5 -5q-47 0 -84 20t-61 53.5t-34.5 77t-2.5 89.5
l7 35t8 35q12 46 34 88t55 73.5t76 50t97 18.5zM173 288q-5 -15 -7.5 -28t-4.5 -28q-4 -32 1.5 -55t18.5 -38t33 -22t44 -7q49 0 88.5 29t56.5 83q5 15 9.5 38t6.5 38q6 52 -21 82t-76 30t-89 -28.5t-60 -93.5zM331 737q11 0 17 -8t4 -19l-18 -88q-2 -11 -12 -19t-21 -8h-83
q-11 0 -17 8t-4 19l18 88q2 11 12 19t21 8h83zM538 737q11 0 17 -8t4 -19l-18 -88q-2 -11 -12 -19t-21 -8h-83q-11 0 -17 8t-4 19l18 88q2 11 12 19t21 8h83z" />
    <glyph glyph-name="agrave" unicode="&#xe0;" 
d="M307 530q31 0 56 -6t43.5 -15t30.5 -19.5t18 -19.5l5 23q2 11 11.5 19t20.5 8h76q11 0 17.5 -8t4.5 -19l-99 -466q-2 -11 -11.5 -19t-20.5 -8h-76q-11 0 -17.5 8t-4.5 19l5 23q-10 -12 -22 -23t-30 -19t-42.5 -13t-59.5 -5q-47 0 -84 20t-61 53.5t-34.5 77t-2.5 89.5
l7 35t8 35q12 46 34 88t55 73.5t76 50t97 18.5zM173 288q-5 -15 -7.5 -28t-4.5 -28q-4 -32 1.5 -55t18.5 -38t33 -22t44 -7q49 0 88.5 29t56.5 83q5 15 9.5 38t6.5 38q6 52 -21 82t-76 30t-89 -28.5t-60 -93.5zM404 624q6 -10 0 -19.5t-17 -9.5h-55q-16 0 -23.5 5t-14.5 12
l-99 98q-10 10 -3.5 22.5t21.5 12.5h95q11 0 18 -2.5t15 -16.5z" />
    <glyph glyph-name="amacron" unicode="&#x101;" 
d="M307 530q31 0 56 -6t43.5 -15t30.5 -19.5t18 -19.5l5 23q2 11 11.5 19t20.5 8h76q11 0 17.5 -8t4.5 -19l-99 -466q-2 -11 -11.5 -19t-20.5 -8h-76q-11 0 -17.5 8t-4.5 19l5 23q-10 -12 -22 -23t-30 -19t-42.5 -13t-59.5 -5q-47 0 -84 20t-61 53.5t-34.5 77t-2.5 89.5
l7 35t8 35q12 46 34 88t55 73.5t76 50t97 18.5zM173 288q-5 -15 -7.5 -28t-4.5 -28q-4 -32 1.5 -55t18.5 -38t33 -22t44 -7q49 0 88.5 29t56.5 83q5 15 9.5 38t6.5 38q6 52 -21 82t-76 30t-89 -28.5t-60 -93.5zM223 595q-11 0 -17 8t-4 19l14 66q2 11 11.5 19t20.5 8h259
q11 0 17.5 -8t4.5 -19l-14 -66q-2 -11 -12 -19t-21 -8h-259z" />
    <glyph glyph-name="aogonek" unicode="&#x105;" 
d="M307 530q31 0 56 -6t43.5 -15t30.5 -19.5t18 -19.5l5 23q2 11 11.5 19t20.5 8h76q11 0 17.5 -8t4.5 -19l-99 -466q-2 -11 -11.5 -19t-20.5 -8h-10q-26 0 -45.5 -16.5t-26.5 -47.5t5.5 -47.5t38.5 -16.5h15q21 0 18 -22l-11 -48q-2 -10 -9 -16t-17 -6h-19q-24 0 -48 8.5
t-42 26t-27 43.5t-1 62q8 41 31 65.5t50 39.5l5 25q-10 -12 -22 -23t-30 -19t-42.5 -13t-59.5 -5q-47 0 -84 20t-61 53.5t-34.5 77t-2.5 89.5l7 35t8 35q12 46 34 88t55 73.5t76 50t97 18.5zM173 288q-5 -15 -7.5 -28t-4.5 -28q-4 -32 1.5 -55t18.5 -38t33 -22t44 -7
q49 0 88.5 29t56.5 83q5 15 9.5 38t6.5 38q6 52 -21 82t-76 30t-89 -28.5t-60 -93.5z" />
    <glyph glyph-name="aring" unicode="&#xe5;" 
d="M307 530q31 0 56 -6t43.5 -15t30.5 -19.5t18 -19.5l5 23q2 11 11.5 19t20.5 8h76q11 0 17.5 -8t4.5 -19l-99 -466q-2 -11 -11.5 -19t-20.5 -8h-76q-11 0 -17.5 8t-4.5 19l5 23q-10 -12 -22 -23t-30 -19t-42.5 -13t-59.5 -5q-47 0 -84 20t-61 53.5t-34.5 77t-2.5 89.5
l7 35t8 35q12 46 34 88t55 73.5t76 50t97 18.5zM173 288q-5 -15 -7.5 -28t-4.5 -28q-4 -32 1.5 -55t18.5 -38t33 -22t44 -7q49 0 88.5 29t56.5 83q5 15 9.5 38t6.5 38q6 52 -21 82t-76 30t-89 -28.5t-60 -93.5zM359 675q-3 -13 3 -21.5t19 -8.5t24 8.5t14 21.5t-3 21.5
t-19 8.5t-24 -8.5t-14 -21.5zM299 675q9 38 37.5 61.5t70.5 23.5q17 0 32 -6.5t25.5 -17.5t14.5 -26.5t0 -34.5q-9 -38 -37.5 -61.5t-70.5 -23.5q-17 0 -32 6t-25.5 17.5t-15 27t0.5 34.5z" />
    <glyph glyph-name="atilde" unicode="&#xe3;" 
d="M307 530q31 0 56 -6t43.5 -15t30.5 -19.5t18 -19.5l5 23q2 11 11.5 19t20.5 8h76q11 0 17.5 -8t4.5 -19l-99 -466q-2 -11 -11.5 -19t-20.5 -8h-76q-11 0 -17.5 8t-4.5 19l5 23q-10 -12 -22 -23t-30 -19t-42.5 -13t-59.5 -5q-47 0 -84 20t-61 53.5t-34.5 77t-2.5 89.5
l7 35t8 35q12 46 34 88t55 73.5t76 50t97 18.5zM173 288q-5 -15 -7.5 -28t-4.5 -28q-4 -32 1.5 -55t18.5 -38t33 -22t44 -7q49 0 88.5 29t56.5 83q5 15 9.5 38t6.5 38q6 52 -21 82t-76 30t-89 -28.5t-60 -93.5zM416 590q-22 0 -36 5.5t-24.5 11.5t-20.5 11.5t-24 5.5
q-12 0 -18 -4.5t-11 -10t-9.5 -10t-13.5 -4.5h-56q-9 0 -13 5.5t-2 13.5q4 19 15 39.5t27.5 37.5t38.5 28t49 11q22 0 35.5 -5.5t24 -11.5t20.5 -11.5t24 -5.5q12 0 18.5 4.5t11 10t9.5 10t14 4.5h56q9 0 13 -5.5t2 -13.5q-4 -19 -15 -39.5t-27.5 -37.5t-38.5 -28t-49 -11z
" />
    <glyph glyph-name="ae" unicode="&#xe6;" horiz-adv-x="904" 
d="M89 392q4 21 19.5 45t43 45t69.5 34.5t101 13.5q50 0 91.5 -15.5t67.5 -44.5q35 28 78.5 44t100.5 16q52 0 94.5 -20.5t70 -55t38 -81t-0.5 -97.5l-9 -45q-3 -11 -12.5 -19t-20.5 -8h-334q-5 -23 1 -40.5t19.5 -29.5t33 -18t41.5 -6q32 0 53.5 6.5t36.5 16.5q12 8 20 11
t20 3h80q11 0 17.5 -8t3.5 -19q-4 -14 -20.5 -36t-47 -43t-75 -36t-104.5 -15q-56 0 -97 23t-71 66q-18 -18 -38 -34.5t-46.5 -28.5t-61 -19t-81.5 -7t-81.5 12.5t-56 34t-29.5 51t0 63.5q14 69 71 105.5t142 50.5l169 28q8 41 -15 58t-63 17q-25 0 -40.5 -7t-31.5 -19
q-11 -8 -19 -11t-17 -3h-93q-22 0 -17 22zM196 110q34 0 62.5 9.5t50 25.5t34.5 36t18 41l2 10l-141 -24q-42 -7 -63 -20.5t-26 -36.5q-5 -21 14.5 -31t48.5 -10zM645 410q-27 0 -48.5 -7.5t-38 -19.5t-28 -27t-17.5 -30q-1 -2 -1 -5l-2 -2v-1h226q1 15 -1 31.5t-11.5 30
t-28 22t-50.5 8.5z" />
    <glyph glyph-name="aeacute" unicode="&#x1fd;" horiz-adv-x="904" 
d="M568 726q14 13 22 16t19 3h95q14 0 15.5 -12.5t-8.5 -19.5l-144 -101q-10 -7 -20 -12t-26 -5h-55q-13 0 -13.5 10.5t8.5 18.5zM89 392q4 21 19.5 45t43 45t69.5 34.5t101 13.5q50 0 91.5 -15.5t67.5 -44.5q35 28 78.5 44t100.5 16q52 0 94.5 -20.5t70 -55t38 -81
t-0.5 -97.5l-9 -45q-3 -11 -12.5 -19t-20.5 -8h-334q-5 -23 1 -40.5t19.5 -29.5t33 -18t41.5 -6q32 0 53.5 6.5t36.5 16.5q12 8 20 11t20 3h80q11 0 17.5 -8t3.5 -19q-4 -14 -20.5 -36t-47 -43t-75 -36t-104.5 -15q-56 0 -97 23t-71 66q-18 -18 -38 -34.5t-46.5 -28.5
t-61 -19t-81.5 -7t-81.5 12.5t-56 34t-29.5 51t0 63.5q14 69 71 105.5t142 50.5l169 28q8 41 -15 58t-63 17q-25 0 -40.5 -7t-31.5 -19q-11 -8 -19 -11t-17 -3h-93q-22 0 -17 22zM196 110q34 0 62.5 9.5t50 25.5t34.5 36t18 41l2 10l-141 -24q-42 -7 -63 -20.5t-26 -36.5
q-5 -21 14.5 -31t48.5 -10zM645 410q-27 0 -48.5 -7.5t-38 -19.5t-28 -27t-17.5 -30q-1 -2 -1 -5l-2 -2v-1h226q1 15 -1 31.5t-11.5 30t-28 22t-50.5 8.5z" />
    <glyph glyph-name="b" unicode="b" 
d="M390 530q46 0 83 -20.5t61.5 -54.5t34 -77.5t2.5 -89.5q-2 -15 -6 -35t-9 -35q-12 -46 -34 -87.5t-54.5 -72.5t-75.5 -49.5t-97 -18.5q-31 0 -55.5 6t-43 15t-31 19.5t-18.5 19.5l-5 -23q-2 -11 -11.5 -19t-20.5 -8h-76q-11 0 -17.5 8t-4.5 19l140 656q2 11 11.5 19
t20.5 8h76q11 0 17.5 -8t4.5 -19l-46 -213q10 9 24 19.5t32.5 19.5t42.5 15t55 6zM442 288q7 64 -20.5 93t-76.5 29t-88.5 -30t-56.5 -82q-5 -15 -9.5 -38t-6.5 -38q-7 -54 20.5 -83t76.5 -29t89 28.5t60 93.5q5 15 7.5 28t4.5 28z" />
    <glyph glyph-name="c" unicode="c" horiz-adv-x="575" 
d="M174 295q-5 -15 -9 -35t-6 -35q-3 -31 3.5 -53t20 -35.5t32 -20t39.5 -6.5q49 0 74 15.5t45 38.5q8 9 18 18t21 9h77q11 0 18 -8t3 -19q-6 -21 -22 -51t-47.5 -57.5t-81 -46.5t-121.5 -19q-51 0 -92.5 18.5t-69.5 50t-41 73t-7 87.5q2 18 7 40t10 41q13 46 36.5 88
t58.5 73.5t83 50t110 18.5q61 0 103.5 -19t69 -46.5t37 -57.5t7.5 -51q-2 -11 -12 -19t-21 -8h-73q-11 0 -16.5 9t-10.5 18q-5 12 -12 21.5t-18 17t-27.5 11.5t-41.5 4q-21 0 -42 -6.5t-40.5 -20t-35.5 -35.5t-26 -53z" />
    <glyph glyph-name="cacute" unicode="&#x107;" horiz-adv-x="575" 
d="M174 295q-5 -15 -9 -35t-6 -35q-3 -31 3.5 -53t20 -35.5t32 -20t39.5 -6.5q49 0 74 15.5t45 38.5q8 9 18 18t21 9h77q11 0 18 -8t3 -19q-6 -21 -22 -51t-47.5 -57.5t-81 -46.5t-121.5 -19q-51 0 -92.5 18.5t-69.5 50t-41 73t-7 87.5q2 18 7 40t10 41q13 46 36.5 88
t58.5 73.5t83 50t110 18.5q61 0 103.5 -19t69 -46.5t37 -57.5t7.5 -51q-2 -11 -12 -19t-21 -8h-73q-11 0 -16.5 9t-10.5 18q-5 12 -12 21.5t-18 17t-27.5 11.5t-41.5 4q-21 0 -42 -6.5t-40.5 -20t-35.5 -35.5t-26 -53zM423 726q14 13 22 16t19 3h95q14 0 15.5 -12.5
t-8.5 -19.5l-144 -101q-10 -7 -20 -12t-26 -5h-55q-13 0 -13.5 10.5t8.5 18.5z" />
    <glyph glyph-name="ccaron" unicode="&#x10d;" horiz-adv-x="575" 
d="M174 295q-5 -15 -9 -35t-6 -35q-3 -31 3.5 -53t20 -35.5t32 -20t39.5 -6.5q49 0 74 15.5t45 38.5q8 9 18 18t21 9h77q11 0 18 -8t3 -19q-6 -21 -22 -51t-47.5 -57.5t-81 -46.5t-121.5 -19q-51 0 -92.5 18.5t-69.5 50t-41 73t-7 87.5q2 18 7 40t10 41q13 46 36.5 88
t58.5 73.5t83 50t110 18.5q61 0 103.5 -19t69 -46.5t37 -57.5t7.5 -51q-2 -11 -12 -19t-21 -8h-73q-11 0 -16.5 9t-10.5 18q-5 12 -12 21.5t-18 17t-27.5 11.5t-41.5 4q-21 0 -42 -6.5t-40.5 -20t-35.5 -35.5t-26 -53zM323 595q-11 0 -18 4t-15 15l-70 102q-7 10 -1 19.5
t18 9.5h35q10 0 15.5 -2.5t13.5 -8.5l65 -47l83 47q10 6 16.5 8.5t16.5 2.5h48q14 0 15.5 -10t-9.5 -21l-112 -100q-12 -11 -21 -15t-20 -4h-60z" />
    <glyph glyph-name="ccedilla" unicode="&#xe7;" horiz-adv-x="575" 
d="M174 295q-5 -15 -9 -35t-6 -35q-3 -31 3.5 -53t20 -35.5t32 -20t39.5 -6.5q49 0 74 15.5t45 38.5q8 9 18 18t21 9h77q11 0 18 -8t3 -19q-6 -21 -22 -51t-47.5 -57.5t-81 -46.5t-121.5 -19h-2l-31 -46q7 4 16.5 7t20.5 3q33 0 49 -26.5t8 -62.5t-33 -60.5t-74 -24.5
q-18 0 -36 5t-30 12.5t-16 16.5t6 17l16 13q10 7 15 7t10.5 -3.5t13.5 -7.5t23 -4q38 0 44 32q6 30 -31 30q-8 0 -16 -3t-15 -5t-13 -2t-11 6l-12 18q-5 8 -5 13.5t10 19.5l35 52q-39 9 -69.5 30.5t-50.5 51t-28.5 65.5t-3.5 75q2 18 7 40t10 41q13 46 36.5 88t58.5 73.5
t83 50t110 18.5q61 0 103.5 -19t69 -46.5t37 -57.5t7.5 -51q-2 -11 -12 -19t-21 -8h-73q-11 0 -16.5 9t-10.5 18q-5 12 -12 21.5t-18 17t-27.5 11.5t-41.5 4q-21 0 -42 -6.5t-40.5 -20t-35.5 -35.5t-26 -53z" />
    <glyph glyph-name="ccircumflex" unicode="&#x109;" horiz-adv-x="575" 
d="M174 295q-5 -15 -9 -35t-6 -35q-3 -31 3.5 -53t20 -35.5t32 -20t39.5 -6.5q49 0 74 15.5t45 38.5q8 9 18 18t21 9h77q11 0 18 -8t3 -19q-6 -21 -22 -51t-47.5 -57.5t-81 -46.5t-121.5 -19q-51 0 -92.5 18.5t-69.5 50t-41 73t-7 87.5q2 18 7 40t10 41q13 46 36.5 88
t58.5 73.5t83 50t110 18.5q61 0 103.5 -19t69 -46.5t37 -57.5t7.5 -51q-2 -11 -12 -19t-21 -8h-73q-11 0 -16.5 9t-10.5 18q-5 12 -12 21.5t-18 17t-27.5 11.5t-41.5 4q-21 0 -42 -6.5t-40.5 -20t-35.5 -35.5t-26 -53zM401 745q11 0 18 -4t15 -15l70 -102q7 -10 0.5 -19.5
t-17.5 -9.5h-36q-10 0 -15.5 2.5t-13.5 8.5l-62 47l-86 -47q-10 -6 -16.5 -8.5t-16.5 -2.5h-50q-11 0 -13 10t8 19l114 102q12 11 21 15t20 4h60z" />
    <glyph glyph-name="cdotaccent" unicode="&#x10b;" horiz-adv-x="575" 
d="M174 295q-5 -15 -9 -35t-6 -35q-3 -31 3.5 -53t20 -35.5t32 -20t39.5 -6.5q49 0 74 15.5t45 38.5q8 9 18 18t21 9h77q11 0 18 -8t3 -19q-6 -21 -22 -51t-47.5 -57.5t-81 -46.5t-121.5 -19q-51 0 -92.5 18.5t-69.5 50t-41 73t-7 87.5q2 18 7 40t10 41q13 46 36.5 88
t58.5 73.5t83 50t110 18.5q61 0 103.5 -19t69 -46.5t37 -57.5t7.5 -51q-2 -11 -12 -19t-21 -8h-73q-11 0 -16.5 9t-10.5 18q-5 12 -12 21.5t-18 17t-27.5 11.5t-41.5 4q-21 0 -42 -6.5t-40.5 -20t-35.5 -35.5t-26 -53zM427 742q11 0 17 -8t4 -19l-19 -93q-2 -11 -12 -19
t-21 -8h-88q-11 0 -17 8t-4 19l19 93q3 11 12.5 19t20.5 8h88z" />
    <glyph glyph-name="d" unicode="d" horiz-adv-x="618" 
d="M307 530q31 0 56 -6t43.5 -15t30.5 -19.5t18 -19.5l46 213q2 11 11.5 19t20.5 8h76q11 0 17.5 -8t4.5 -19l-140 -656q-2 -11 -11.5 -19t-20.5 -8h-76q-11 0 -17.5 8t-4.5 19l5 23q-9 -11 -21.5 -22t-30 -19.5t-42.5 -13.5t-60 -5q-47 0 -83.5 20.5t-61 54t-34.5 77
t-2 89.5l7 35t8 35q12 46 34 87.5t54.5 73t75.5 50t97 18.5zM173 288q-5 -15 -7.5 -28t-4.5 -28q-4 -32 1.5 -55t18.5 -38t33 -22t44 -7q49 0 88.5 29t56.5 83q5 15 9.5 38t6.5 38q6 52 -21 82t-76 30t-89 -28.5t-60 -93.5z" />
    <glyph glyph-name="dcaron" unicode="&#x10f;" horiz-adv-x="701" 
d="M307 530q31 0 56 -6t43.5 -15t30.5 -19.5t18 -19.5l46 213q2 11 11.5 19t20.5 8h76q11 0 17.5 -8t4.5 -19l-140 -656q-2 -11 -11.5 -19t-20.5 -8h-76q-11 0 -17.5 8t-4.5 19l5 23q-9 -11 -21.5 -22t-30 -19.5t-42.5 -13.5t-60 -5q-47 0 -83.5 20.5t-61 54t-34.5 77
t-2 89.5l7 35t8 35q12 46 34 87.5t54.5 73t75.5 50t97 18.5zM173 288q-5 -15 -7.5 -28t-4.5 -28q-4 -32 1.5 -55t18.5 -38t33 -22t44 -7q49 0 88.5 29t56.5 83q5 15 9.5 38t6.5 38q6 52 -21 82t-76 30t-89 -28.5t-60 -93.5zM702 671q5 14 18 26.5t33 12.5h81q13 0 16.5 -10
t-1.5 -19l-85 -139q-6 -10 -18 -21t-32 -11h-46q-12 0 -16 7.5t-1 16.5z" />
    <glyph glyph-name="dcroat" unicode="&#x111;" 
d="M316 530q31 0 54.5 -6t40 -15t27 -19.5t16.5 -19.5l18 84h-53q-11 0 -17 8t-4 19l8 36q2 11 11.5 19t20.5 8h53l9 39q2 11 11.5 19t20.5 8h76q11 0 17.5 -8t4.5 -19l-9 -39h53q11 0 17.5 -8t4.5 -19l-8 -36q-2 -11 -12 -19t-21 -8h-53l-112 -527q-2 -11 -11.5 -19
t-20.5 -8h-76q-11 0 -17.5 8t-4.5 19l5 23q-10 -9 -25.5 -19.5t-35.5 -19.5t-46 -15t-57 -6q-50 0 -86.5 19.5t-58 52t-29 75t0.5 88.5l7 35t8 35q12 46 37.5 88.5t61 75t80 52t94.5 19.5zM172 288q-5 -15 -7.5 -28t-4.5 -28q-4 -32 1.5 -55t18.5 -38t33 -22t44 -7
q49 0 88.5 29t56.5 83q5 15 9.5 38t6.5 38q6 52 -21 82t-76 30t-89 -28.5t-60 -93.5z" />
    <glyph glyph-name="e" unicode="e" horiz-adv-x="569" 
d="M34 264q12 56 35 104.5t58.5 84.5t84.5 56.5t113 20.5q52 0 94.5 -20.5t70 -55t38 -81t-0.5 -97.5l-9 -45q-3 -11 -12.5 -19t-20.5 -8h-334q-5 -23 1 -40.5t19.5 -29.5t33 -18t41.5 -6q32 0 53.5 6.5t36.5 16.5q12 8 20 11t20 3h80q11 0 17.5 -8t3.5 -19
q-4 -14 -20.5 -36t-47 -43t-75 -36t-104.5 -15q-49 0 -90.5 20.5t-69 56.5t-38.5 86.5t2 110.5zM310 410q-29 0 -51.5 -8.5t-39.5 -22t-28 -30t-16 -31.5h226q1 15 -1 31.5t-11.5 30t-28 22t-50.5 8.5z" />
    <glyph glyph-name="eacute" unicode="&#xe9;" horiz-adv-x="569" 
d="M34 264q12 56 35 104.5t58.5 84.5t84.5 56.5t113 20.5q52 0 94.5 -20.5t70 -55t38 -81t-0.5 -97.5l-9 -45q-3 -11 -12.5 -19t-20.5 -8h-334q-5 -23 1 -40.5t19.5 -29.5t33 -18t41.5 -6q32 0 53.5 6.5t36.5 16.5q12 8 20 11t20 3h80q11 0 17.5 -8t3.5 -19
q-4 -14 -20.5 -36t-47 -43t-75 -36t-104.5 -15q-49 0 -90.5 20.5t-69 56.5t-38.5 86.5t2 110.5zM310 410q-29 0 -51.5 -8.5t-39.5 -22t-28 -30t-16 -31.5h226q1 15 -1 31.5t-11.5 30t-28 22t-50.5 8.5zM411 726q14 13 22 16t19 3h95q14 0 15.5 -12.5t-8.5 -19.5l-144 -101
q-10 -7 -20 -12t-26 -5h-55q-13 0 -13.5 10.5t8.5 18.5z" />
    <glyph glyph-name="ebreve" unicode="&#x115;" horiz-adv-x="569" 
d="M34 264q12 56 35 104.5t58.5 84.5t84.5 56.5t113 20.5q52 0 94.5 -20.5t70 -55t38 -81t-0.5 -97.5l-9 -45q-3 -11 -12.5 -19t-20.5 -8h-334q-5 -23 1 -40.5t19.5 -29.5t33 -18t41.5 -6q32 0 53.5 6.5t36.5 16.5q12 8 20 11t20 3h80q11 0 17.5 -8t3.5 -19
q-4 -14 -20.5 -36t-47 -43t-75 -36t-104.5 -15q-49 0 -90.5 20.5t-69 56.5t-38.5 86.5t2 110.5zM310 410q-29 0 -51.5 -8.5t-39.5 -22t-28 -30t-16 -31.5h226q1 15 -1 31.5t-11.5 30t-28 22t-50.5 8.5zM348 590q-39 0 -65 12.5t-41 32t-19.5 43.5t0.5 48q2 8 8 13.5t15 5.5
h57q9 0 12.5 -5.5t2.5 -13.5q-3 -22 4 -36t34 -14t41 14t19 36q2 8 8 13.5t15 5.5h57q9 0 13 -5.5t2 -13.5q-5 -24 -14 -48t-26.5 -43.5t-47 -32t-75.5 -12.5z" />
    <glyph glyph-name="ecaron" unicode="&#x11b;" horiz-adv-x="569" 
d="M34 264q12 56 35 104.5t58.5 84.5t84.5 56.5t113 20.5q52 0 94.5 -20.5t70 -55t38 -81t-0.5 -97.5l-9 -45q-3 -11 -12.5 -19t-20.5 -8h-334q-5 -23 1 -40.5t19.5 -29.5t33 -18t41.5 -6q32 0 53.5 6.5t36.5 16.5q12 8 20 11t20 3h80q11 0 17.5 -8t3.5 -19
q-4 -14 -20.5 -36t-47 -43t-75 -36t-104.5 -15q-49 0 -90.5 20.5t-69 56.5t-38.5 86.5t2 110.5zM310 410q-29 0 -51.5 -8.5t-39.5 -22t-28 -30t-16 -31.5h226q1 15 -1 31.5t-11.5 30t-28 22t-50.5 8.5zM310 595q-11 0 -18 4t-15 15l-70 102q-7 10 -1 19.5t18 9.5h35
q10 0 15.5 -2.5t13.5 -8.5l65 -47l83 47q10 6 16.5 8.5t16.5 2.5h48q14 0 15.5 -10t-9.5 -21l-112 -100q-12 -11 -21 -15t-20 -4h-60z" />
    <glyph glyph-name="ecircumflex" unicode="&#xea;" horiz-adv-x="569" 
d="M34 264q12 56 35 104.5t58.5 84.5t84.5 56.5t113 20.5q52 0 94.5 -20.5t70 -55t38 -81t-0.5 -97.5l-9 -45q-3 -11 -12.5 -19t-20.5 -8h-334q-5 -23 1 -40.5t19.5 -29.5t33 -18t41.5 -6q32 0 53.5 6.5t36.5 16.5q12 8 20 11t20 3h80q11 0 17.5 -8t3.5 -19
q-4 -14 -20.5 -36t-47 -43t-75 -36t-104.5 -15q-49 0 -90.5 20.5t-69 56.5t-38.5 86.5t2 110.5zM310 410q-29 0 -51.5 -8.5t-39.5 -22t-28 -30t-16 -31.5h226q1 15 -1 31.5t-11.5 30t-28 22t-50.5 8.5zM391 745q11 0 18 -4t15 -15l70 -102q7 -10 0.5 -19.5t-17.5 -9.5h-36
q-10 0 -15.5 2.5t-13.5 8.5l-62 47l-86 -47q-10 -6 -16.5 -8.5t-16.5 -2.5h-50q-11 0 -13 10t8 19l114 102q12 11 21 15t20 4h60z" />
    <glyph glyph-name="edieresis" unicode="&#xeb;" horiz-adv-x="569" 
d="M34 264q12 56 35 104.5t58.5 84.5t84.5 56.5t113 20.5q52 0 94.5 -20.5t70 -55t38 -81t-0.5 -97.5l-9 -45q-3 -11 -12.5 -19t-20.5 -8h-334q-5 -23 1 -40.5t19.5 -29.5t33 -18t41.5 -6q32 0 53.5 6.5t36.5 16.5q12 8 20 11t20 3h80q11 0 17.5 -8t3.5 -19
q-4 -14 -20.5 -36t-47 -43t-75 -36t-104.5 -15q-49 0 -90.5 20.5t-69 56.5t-38.5 86.5t2 110.5zM310 410q-29 0 -51.5 -8.5t-39.5 -22t-28 -30t-16 -31.5h226q1 15 -1 31.5t-11.5 30t-28 22t-50.5 8.5zM307 737q11 0 17 -8t4 -19l-18 -88q-2 -11 -12 -19t-21 -8h-83
q-11 0 -17 8t-4 19l18 88q2 11 12 19t21 8h83zM514 737q11 0 17 -8t4 -19l-18 -88q-2 -11 -12 -19t-21 -8h-83q-11 0 -17 8t-4 19l18 88q2 11 12 19t21 8h83z" />
    <glyph glyph-name="edotaccent" unicode="&#x117;" horiz-adv-x="569" 
d="M34 264q12 56 35 104.5t58.5 84.5t84.5 56.5t113 20.5q52 0 94.5 -20.5t70 -55t38 -81t-0.5 -97.5l-9 -45q-3 -11 -12.5 -19t-20.5 -8h-334q-5 -23 1 -40.5t19.5 -29.5t33 -18t41.5 -6q32 0 53.5 6.5t36.5 16.5q12 8 20 11t20 3h80q11 0 17.5 -8t3.5 -19
q-4 -14 -20.5 -36t-47 -43t-75 -36t-104.5 -15q-49 0 -90.5 20.5t-69 56.5t-38.5 86.5t2 110.5zM310 410q-29 0 -51.5 -8.5t-39.5 -22t-28 -30t-16 -31.5h226q1 15 -1 31.5t-11.5 30t-28 22t-50.5 8.5zM414 742q11 0 17 -8t4 -19l-19 -93q-2 -11 -12 -19t-21 -8h-88
q-11 0 -17 8t-4 19l19 93q3 11 12.5 19t20.5 8h88z" />
    <glyph glyph-name="egrave" unicode="&#xe8;" horiz-adv-x="569" 
d="M34 264q12 56 35 104.5t58.5 84.5t84.5 56.5t113 20.5q52 0 94.5 -20.5t70 -55t38 -81t-0.5 -97.5l-9 -45q-3 -11 -12.5 -19t-20.5 -8h-334q-5 -23 1 -40.5t19.5 -29.5t33 -18t41.5 -6q32 0 53.5 6.5t36.5 16.5q12 8 20 11t20 3h80q11 0 17.5 -8t3.5 -19
q-4 -14 -20.5 -36t-47 -43t-75 -36t-104.5 -15q-49 0 -90.5 20.5t-69 56.5t-38.5 86.5t2 110.5zM310 410q-29 0 -51.5 -8.5t-39.5 -22t-28 -30t-16 -31.5h226q1 15 -1 31.5t-11.5 30t-28 22t-50.5 8.5zM397 624q6 -10 0 -19.5t-17 -9.5h-55q-16 0 -23.5 5t-14.5 12l-99 98
q-10 10 -3.5 22.5t21.5 12.5h95q11 0 18 -2.5t15 -16.5z" />
    <glyph glyph-name="emacron" unicode="&#x113;" horiz-adv-x="569" 
d="M34 264q12 56 35 104.5t58.5 84.5t84.5 56.5t113 20.5q52 0 94.5 -20.5t70 -55t38 -81t-0.5 -97.5l-9 -45q-3 -11 -12.5 -19t-20.5 -8h-334q-5 -23 1 -40.5t19.5 -29.5t33 -18t41.5 -6q32 0 53.5 6.5t36.5 16.5q12 8 20 11t20 3h80q11 0 17.5 -8t3.5 -19
q-4 -14 -20.5 -36t-47 -43t-75 -36t-104.5 -15q-49 0 -90.5 20.5t-69 56.5t-38.5 86.5t2 110.5zM310 410q-29 0 -51.5 -8.5t-39.5 -22t-28 -30t-16 -31.5h226q1 15 -1 31.5t-11.5 30t-28 22t-50.5 8.5zM210 595q-11 0 -17 8t-4 19l14 66q2 11 11.5 19t20.5 8h259
q11 0 17.5 -8t4.5 -19l-14 -66q-2 -11 -12 -19t-21 -8h-259z" />
    <glyph glyph-name="eogonek" unicode="&#x119;" horiz-adv-x="569" 
d="M35 264q12 56 35 104.5t58.5 84.5t84.5 56.5t113 20.5q52 0 94.5 -20.5t70 -55t38 -81t-0.5 -97.5l-9 -45q-3 -11 -12.5 -19t-20.5 -8h-334q-5 -23 1 -40.5t19.5 -29.5t33 -18t41.5 -6q32 0 53.5 6.5t36.5 16.5q12 8 20 11t20 3h80q11 0 17.5 -8t3.5 -19
q-3 -13 -17.5 -32.5t-40 -39t-63 -35t-87.5 -21.5q-26 -3 -45.5 -14t-26.5 -42t5.5 -47.5t38.5 -16.5h15q21 0 18 -22l-11 -48q-2 -10 -9 -16t-17 -6h-19q-27 0 -51.5 12.5t-42 35t-25.5 52.5t0 66q9 42 28 71q-56 32 -83.5 96.5t-9.5 150.5zM311 410q-29 0 -51.5 -8.5
t-39.5 -22t-28 -30t-16 -31.5h226q1 15 -1 31.5t-11.5 30t-28 22t-50.5 8.5z" />
    <glyph glyph-name="f" unicode="f" horiz-adv-x="428" 
d="M294 520h139q11 0 17 -8t4 -19l-14 -66q-2 -11 -11.5 -19t-20.5 -8h-139l-80 -373q-2 -11 -11.5 -19t-20.5 -8h-76q-11 0 -17.5 8t-4.5 19l80 373h-66q-11 0 -17.5 8t-4.5 19l14 66q2 11 12 19t21 8h66l10 45q10 48 29.5 81.5t48 54.5t65.5 30t82 9h91q11 0 17 -8t4 -19
l-14 -66q-2 -11 -12 -19t-21 -8h-71q-30 0 -57 -14t-35 -51z" />
    <glyph glyph-name="g" unicode="g" 
d="M209 -100q21 0 44.5 6.5t44.5 20.5t37 35.5t22 50.5l8 37q-9 -11 -21 -21.5t-30 -19t-43 -14t-60 -5.5q-47 0 -83.5 20t-60.5 53.5t-34 77t-2 89.5l7 35t8 35q12 46 34 88t54 73.5t75 50t97 18.5q31 0 56 -6t43.5 -15t30.5 -19.5t18 -19.5l5 23q2 11 12 19t21 8h76
q11 0 17 -8t4 -19l-99 -469q-26 -121 -94.5 -182.5t-201.5 -61.5q-47 0 -88.5 13.5t-71.5 36t-46 51t-12 58.5q2 11 11.5 19t20.5 8h68q14 0 22.5 -9.5t13.5 -17.5q10 -17 29.5 -28t67.5 -11zM172 288q-5 -15 -7.5 -28t-4.5 -28q-4 -32 1.5 -55t18.5 -38t33 -22t44 -7
q49 0 88.5 29t56.5 83q5 15 9.5 38t6.5 38q6 52 -21 82t-76 30t-89 -28.5t-60 -93.5z" />
    <glyph glyph-name="gbreve" unicode="&#x11f;" 
d="M209 -100q21 0 44.5 6.5t44.5 20.5t37 35.5t22 50.5l8 37q-9 -11 -21 -21.5t-30 -19t-43 -14t-60 -5.5q-47 0 -83.5 20t-60.5 53.5t-34 77t-2 89.5l7 35t8 35q12 46 34 88t54 73.5t75 50t97 18.5q31 0 56 -6t43.5 -15t30.5 -19.5t18 -19.5l5 23q2 11 12 19t21 8h76
q11 0 17 -8t4 -19l-99 -469q-26 -121 -94.5 -182.5t-201.5 -61.5q-47 0 -88.5 13.5t-71.5 36t-46 51t-12 58.5q2 11 11.5 19t20.5 8h68q14 0 22.5 -9.5t13.5 -17.5q10 -17 29.5 -28t67.5 -11zM172 288q-5 -15 -7.5 -28t-4.5 -28q-4 -32 1.5 -55t18.5 -38t33 -22t44 -7
q49 0 88.5 29t56.5 83q5 15 9.5 38t6.5 38q6 52 -21 82t-76 30t-89 -28.5t-60 -93.5zM357 590q-39 0 -65 12.5t-41 32t-19.5 43.5t0.5 48q2 8 8 13.5t15 5.5h57q9 0 12.5 -5.5t2.5 -13.5q-3 -22 4 -36t34 -14t41 14t19 36q2 8 8 13.5t15 5.5h57q9 0 13 -5.5t2 -13.5
q-5 -24 -14 -48t-26.5 -43.5t-47 -32t-75.5 -12.5z" />
    <glyph glyph-name="gcircumflex" unicode="&#x11d;" 
d="M209 -100q21 0 44.5 6.5t44.5 20.5t37 35.5t22 50.5l8 37q-9 -11 -21 -21.5t-30 -19t-43 -14t-60 -5.5q-47 0 -83.5 20t-60.5 53.5t-34 77t-2 89.5l7 35t8 35q12 46 34 88t54 73.5t75 50t97 18.5q31 0 56 -6t43.5 -15t30.5 -19.5t18 -19.5l5 23q2 11 12 19t21 8h76
q11 0 17 -8t4 -19l-99 -469q-26 -121 -94.5 -182.5t-201.5 -61.5q-47 0 -88.5 13.5t-71.5 36t-46 51t-12 58.5q2 11 11.5 19t20.5 8h68q14 0 22.5 -9.5t13.5 -17.5q10 -17 29.5 -28t67.5 -11zM172 288q-5 -15 -7.5 -28t-4.5 -28q-4 -32 1.5 -55t18.5 -38t33 -22t44 -7
q49 0 88.5 29t56.5 83q5 15 9.5 38t6.5 38q6 52 -21 82t-76 30t-89 -28.5t-60 -93.5zM406 745q11 0 18 -4t15 -15l70 -102q7 -10 0.5 -19.5t-17.5 -9.5h-36q-10 0 -15.5 2.5t-13.5 8.5l-62 47l-86 -47q-10 -6 -16.5 -8.5t-16.5 -2.5h-50q-11 0 -13 10t8 19l114 102
q12 11 21 15t20 4h60z" />
    <glyph glyph-name="gcommaaccent" unicode="&#x123;" 
d="M209 -100q21 0 44.5 6.5t44.5 20.5t37 35.5t22 50.5l8 37q-9 -11 -21 -21.5t-30 -19t-43 -14t-60 -5.5q-47 0 -83.5 20t-60.5 53.5t-34 77t-2 89.5l7 35t8 35q12 46 34 88t54 73.5t75 50t97 18.5q31 0 56 -6t43.5 -15t30.5 -19.5t18 -19.5l5 23q2 11 12 19t21 8h76
q11 0 17 -8t4 -19l-99 -469q-26 -121 -94.5 -182.5t-201.5 -61.5q-47 0 -88.5 13.5t-71.5 36t-46 51t-12 58.5q2 11 11.5 19t20.5 8h68q14 0 22.5 -9.5t13.5 -17.5q10 -17 29.5 -28t67.5 -11zM172 288q-5 -15 -7.5 -28t-4.5 -28q-4 -32 1.5 -55t18.5 -38t33 -22t44 -7
q49 0 88.5 29t56.5 83q5 15 9.5 38t6.5 38q6 52 -21 82t-76 30t-89 -28.5t-60 -93.5zM448.005 634.994q-4.99902 -13.999 -17.999 -26.498q-12.999 -12.499 -32.998 -12.499h-80.9951q-12.999 0 -16.499 9.99902q-3.49902 10 1.5 18.999l84.9951 138.991q6 10 17.999 20.999
t31.998 10.999h45.9971q11.999 0 15.999 -7.49902q4 -7.5 1 -16.499z" />
    <glyph glyph-name="gdotaccent" unicode="&#x121;" 
d="M209 -100q21 0 44.5 6.5t44.5 20.5t37 35.5t22 50.5l8 37q-9 -11 -21 -21.5t-30 -19t-43 -14t-60 -5.5q-47 0 -83.5 20t-60.5 53.5t-34 77t-2 89.5l7 35t8 35q12 46 34 88t54 73.5t75 50t97 18.5q31 0 56 -6t43.5 -15t30.5 -19.5t18 -19.5l5 23q2 11 12 19t21 8h76
q11 0 17 -8t4 -19l-99 -469q-26 -121 -94.5 -182.5t-201.5 -61.5q-47 0 -88.5 13.5t-71.5 36t-46 51t-12 58.5q2 11 11.5 19t20.5 8h68q14 0 22.5 -9.5t13.5 -17.5q10 -17 29.5 -28t67.5 -11zM172 288q-5 -15 -7.5 -28t-4.5 -28q-4 -32 1.5 -55t18.5 -38t33 -22t44 -7
q49 0 88.5 29t56.5 83q5 15 9.5 38t6.5 38q6 52 -21 82t-76 30t-89 -28.5t-60 -93.5zM429 742q11 0 17 -8t4 -19l-19 -93q-2 -11 -12 -19t-21 -8h-88q-11 0 -17 8t-4 19l19 93q3 11 12.5 19t20.5 8h88z" />
    <glyph glyph-name="h" unicode="h" horiz-adv-x="619" 
d="M500 27q-2 -11 -11.5 -19t-20.5 -8h-76q-11 0 -17.5 8t-4.5 19l54 254q13 60 -7.5 96t-78.5 36q-53 0 -91 -36t-51 -96l-54 -254q-2 -11 -11.5 -19t-20.5 -8h-76q-11 0 -17.5 8t-4.5 19l140 656q2 11 11.5 19t20.5 8h76q11 0 17.5 -8t4.5 -19l-46 -213q26 29 62.5 44.5
t84.5 15.5q53 0 91 -19t59.5 -51t27.5 -74.5t-4 -89.5z" />
    <glyph glyph-name="hbar" unicode="&#x127;" horiz-adv-x="620" 
d="M500 27q-2 -11 -11.5 -19t-20.5 -8h-76q-11 0 -17.5 8t-4.5 19l54 254q13 60 -7.5 96t-78.5 36q-53 0 -91 -36t-51 -96l-54 -254q-2 -11 -11.5 -19t-20.5 -8h-76q-11 0 -17.5 8t-4.5 19l112 527h-53q-11 0 -17 8t-4 19l8 36q2 11 11.5 19t20.5 8h53l9 39q2 11 11.5 19
t20.5 8h76q11 0 17.5 -8t4.5 -19l-9 -39h53q11 0 17.5 -8t4.5 -19l-8 -36q-2 -11 -12 -19t-21 -8h-53l-18 -84q32 26 70.5 43t86.5 17q61 0 98 -19t55 -51t19.5 -74.5t-8.5 -89.5z" />
    <glyph glyph-name="hcircumflex" unicode="&#x125;" horiz-adv-x="619" 
d="M500 27q-2 -11 -11.5 -19t-20.5 -8h-76q-11 0 -17.5 8t-4.5 19l54 254q13 60 -7.5 96t-78.5 36q-53 0 -91 -36t-51 -96l-54 -254q-2 -11 -11.5 -19t-20.5 -8h-76q-11 0 -17.5 8t-4.5 19l140 656q2 11 11.5 19t20.5 8h76q11 0 17.5 -8t4.5 -19l-46 -213q26 29 62.5 44.5
t84.5 15.5q53 0 91 -19t59.5 -51t27.5 -74.5t-4 -89.5zM434 900q11 0 18 -4t15 -15l70 -102q7 -10 0.5 -19.5t-17.5 -9.5h-36q-10 0 -15.5 2.5t-13.5 8.5l-62 47l-86 -47q-10 -6 -16.5 -8.5t-16.5 -2.5h-50q-11 0 -13 10t8 19l114 102q12 11 21 15t20 4h60z" />
    <glyph glyph-name="i" unicode="i" horiz-adv-x="268" 
d="M142 27q-2 -11 -11.5 -19t-20.5 -8h-76q-11 0 -17.5 8t-4.5 19l99 466q2 11 12 19t21 8h76q11 0 17 -8t4 -19zM265 710q11 0 17.5 -8t4.5 -19l-17 -78q-2 -11 -12 -19t-21 -8h-86q-11 0 -17 8t-4 19l17 78q2 11 11.5 19t20.5 8h86z" />
    <glyph glyph-name="iacute" unicode="&#xed;" horiz-adv-x="268" 
d="M142 27q-2 -11 -11.5 -19t-20.5 -8h-76q-11 0 -17.5 8t-4.5 19l99 466q2 11 12 19t21 8h76q11 0 17 -8t4 -19zM259 726q14 13 22 16t19 3h95q14 0 15.5 -12.5t-8.5 -19.5l-144 -101q-10 -7 -20 -12t-26 -5h-55q-13 0 -13.5 10.5t8.5 18.5z" />
    <glyph glyph-name="ibreve" unicode="&#x12d;" horiz-adv-x="268" 
d="M142 27q-2 -11 -11.5 -19t-20.5 -8h-76q-11 0 -17.5 8t-4.5 19l99 466q2 11 12 19t21 8h76q11 0 17 -8t4 -19zM203 590q-39 0 -65 12.5t-41 32t-19.5 43.5t0.5 48q2 8 8 13.5t15 5.5h57q9 0 12.5 -5.5t2.5 -13.5q-3 -22 4 -36t34 -14t41 14t19 36q2 8 8 13.5t15 5.5h57
q9 0 13 -5.5t2 -13.5q-5 -24 -14 -48t-26.5 -43.5t-47 -32t-75.5 -12.5z" />
    <glyph glyph-name="icircumflex" unicode="&#xee;" horiz-adv-x="268" 
d="M142 27q-2 -11 -11.5 -19t-20.5 -8h-76q-11 0 -17.5 8t-4.5 19l99 466q2 11 12 19t21 8h76q11 0 17 -8t4 -19zM252 745q11 0 18 -4t15 -15l70 -102q7 -10 0.5 -19.5t-17.5 -9.5h-36q-10 0 -15.5 2.5t-13.5 8.5l-62 47l-86 -47q-10 -6 -16.5 -8.5t-16.5 -2.5h-50
q-11 0 -13 10t8 19l114 102q12 11 21 15t20 4h60z" />
    <glyph glyph-name="idieresis" unicode="&#xef;" horiz-adv-x="268" 
d="M142 27q-2 -11 -11.5 -19t-20.5 -8h-76q-11 0 -17.5 8t-4.5 19l99 466q2 11 12 19t21 8h76q11 0 17 -8t4 -19zM166 737q11 0 17 -8t4 -19l-18 -88q-2 -11 -12 -19t-21 -8h-83q-11 0 -17 8t-4 19l18 88q2 11 12 19t21 8h83zM373 737q11 0 17 -8t4 -19l-18 -88
q-2 -11 -12 -19t-21 -8h-83q-11 0 -17 8t-4 19l18 88q2 11 12 19t21 8h83z" />
    <glyph glyph-name="igrave" unicode="&#xec;" horiz-adv-x="268" 
d="M142 27q-2 -11 -11.5 -19t-20.5 -8h-76q-11 0 -17.5 8t-4.5 19l99 466q2 11 12 19t21 8h76q11 0 17 -8t4 -19zM260 624q6 -10 0 -19.5t-17 -9.5h-55q-16 0 -23.5 5t-14.5 12l-99 98q-10 10 -3.5 22.5t21.5 12.5h95q11 0 18 -2.5t15 -16.5z" />
    <glyph glyph-name="imacron" unicode="&#x12b;" horiz-adv-x="268" 
d="M142 27q-2 -11 -11.5 -19t-20.5 -8h-76q-11 0 -17.5 8t-4.5 19l99 466q2 11 12 19t21 8h76q11 0 17 -8t4 -19zM69 595q-11 0 -17 8t-4 19l14 66q2 11 11.5 19t20.5 8h259q11 0 17.5 -8t4.5 -19l-14 -66q-2 -11 -12 -19t-21 -8h-259z" />
    <glyph glyph-name="iogonek" unicode="&#x12f;" horiz-adv-x="283" 
d="M157 27q-2 -11 -11.5 -19t-20.5 -8h-10q-26 0 -45.5 -16.5t-26.5 -47.5t5.5 -47.5t38.5 -16.5h15q21 0 18 -22l-11 -48q-2 -10 -9 -16t-17 -6h-19q-27 0 -51.5 12.5t-42 35t-25.5 52.5t0 66q20 93 91 126l90 421q2 11 12 19t21 8h76q11 0 17 -8t4 -19zM280 710
q11 0 17.5 -8t4.5 -19l-17 -78q-2 -11 -12 -19t-21 -8h-86q-11 0 -17 8t-4 19l17 78q2 11 11.5 19t20.5 8h86z" />
    <glyph glyph-name="itilde" unicode="&#x129;" horiz-adv-x="268" 
d="M142 27q-2 -11 -11.5 -19t-20.5 -8h-76q-11 0 -17.5 8t-4.5 19l99 466q2 11 12 19t21 8h76q11 0 17 -8t4 -19zM261 590q-22 0 -36 5.5t-24.5 11.5t-20.5 11.5t-24 5.5q-12 0 -18 -4.5t-11 -10t-9.5 -10t-13.5 -4.5h-56q-9 0 -13 5.5t-2 13.5q4 19 15 39.5t27.5 37.5
t38.5 28t49 11q22 0 35.5 -5.5t24 -11.5t20.5 -11.5t24 -5.5q12 0 18.5 4.5t11 10t9.5 10t14 4.5h56q9 0 13 -5.5t2 -13.5q-4 -19 -15 -39.5t-27.5 -37.5t-38.5 -28t-49 -11z" />
    <glyph glyph-name="dotlessi" unicode="&#x131;" horiz-adv-x="268" 
d="M142 27q-2 -11 -11.5 -19t-20.5 -8h-76q-11 0 -17.5 8t-4.5 19l99 466q2 11 12 19t21 8h76q11 0 17 -8t4 -19z" />
    <glyph glyph-name="j" unicode="j" horiz-adv-x="278" 
d="M121 493q2 11 12 19t21 8h76q11 0 17 -8t4 -19l-107 -503q-19 -90 -72.5 -135t-139.5 -45h-45q-11 0 -17 8t-4 19l14 66q2 11 12 19t21 8h15q37 0 58.5 17t28.5 48zM275 710q11 0 17.5 -8t4.5 -19l-17 -78q-2 -11 -12 -19t-21 -8h-86q-11 0 -17 8t-4 19l17 78
q2 11 11.5 19t20.5 8h86z" />
    <glyph glyph-name="jcircumflex" unicode="&#x135;" horiz-adv-x="323" 
d="M189 -10q-19 -90 -79 -135t-154 -45h-25q-11 0 -17 8t-4 19l14 66q2 11 12 19t21 8h15q45 0 63.5 17t24.5 48l87 408h-80q-11 0 -17 8t-4 19l13 63q2 11 12 19t21 8h183q11 0 17 -8t4 -19zM260 745q11 0 18 -4t15 -15l70 -102q7 -10 0.5 -19.5t-17.5 -9.5h-36
q-10 0 -15.5 2.5t-13.5 8.5l-62 47l-86 -47q-10 -6 -16.5 -8.5t-16.5 -2.5h-50q-11 0 -13 10t8 19l114 102q12 11 21 15t20 4h60z" />
    <glyph glyph-name="dotlessj" unicode="&#x237;" horiz-adv-x="323" 
d="M189 -10q-19 -90 -79 -135t-154 -45h-25q-11 0 -17 8t-4 19l14 66q2 11 12 19t21 8h15q45 0 63.5 17t24.5 48l87 408h-80q-11 0 -17 8t-4 19l13 63q2 11 12 19t21 8h183q11 0 17 -8t4 -19z" />
    <glyph glyph-name="k" unicode="k" horiz-adv-x="574" 
d="M182 216l-40 -189q-2 -11 -11.5 -19t-20.5 -8h-76q-11 0 -17.5 8t-4.5 19l140 656q2 11 11.5 19t20.5 8h76q11 0 17.5 -8t4.5 -19l-70 -328l203 148q7 5 18 11t25 6h117q10 0 15.5 -7t3.5 -17q-1 -5 -4 -9.5t-11 -10.5l-278 -204l198 -229q5 -6 6 -10t0 -9
q-2 -10 -10.5 -17t-18.5 -7h-78q-15 0 -24.5 6t-13.5 11z" />
    <glyph glyph-name="kcommaaccent" unicode="&#x137;" horiz-adv-x="574" 
d="M182 216l-40 -189q-2 -11 -11.5 -19t-20.5 -8h-76q-11 0 -17.5 8t-4.5 19l140 656q2 11 11.5 19t20.5 8h76q11 0 17.5 -8t4.5 -19l-70 -328l203 148q7 5 18 11t25 6h117q10 0 15.5 -7t3.5 -17q-1 -5 -4 -9.5t-11 -10.5l-278 -204l198 -229q5 -6 6 -10t0 -9
q-2 -10 -10.5 -17t-18.5 -7h-78q-15 0 -24.5 6t-13.5 11zM128 -89q5 14 18 26.5t33 12.5h81q13 0 16.5 -10t-1.5 -19l-85 -139q-6 -10 -18 -21t-32 -11h-46q-12 0 -16 7.5t-1 16.5z" />
    <glyph glyph-name="kgreenlandic" unicode="&#x138;" horiz-adv-x="558" 
d="M177 188l-35 -161q-2 -11 -11.5 -19t-20.5 -8h-76q-11 0 -17.5 8t-4.5 19l99 466q2 11 12 19t21 8h76q11 0 17 -8t4 -19l-30 -145l189 155q7 5 18 11t25 6h108q17 0 19 -15t-13 -27l-271 -223l203 -212q6 -7 6 -14.5t-4 -14t-11 -10.5t-14 -4h-86q-15 0 -24 6t-14 11z
" />
    <glyph glyph-name="l" unicode="l" horiz-adv-x="269" 
d="M142 27q-2 -11 -11.5 -19t-20.5 -8h-76q-11 0 -17.5 8t-4.5 19l140 656q2 11 11.5 19t20.5 8h76q11 0 17.5 -8t4.5 -19z" />
    <glyph glyph-name="lacute" unicode="&#x13a;" horiz-adv-x="269" 
d="M142 27q-2 -11 -11.5 -19t-20.5 -8h-76q-11 0 -17.5 8t-4.5 19l140 656q2 11 11.5 19t20.5 8h76q11 0 17.5 -8t4.5 -19zM291 881q14 13 22 16t19 3h95q14 0 15.5 -12.5t-8.5 -19.5l-144 -101q-10 -7 -20 -12t-26 -5h-55q-13 0 -13.5 10.5t8.5 18.5z" />
    <glyph glyph-name="lcaron" unicode="&#x13e;" horiz-adv-x="351" 
d="M142 27q-2 -11 -11.5 -19t-20.5 -8h-76q-11 0 -17.5 8t-4.5 19l140 656q2 11 11.5 19t20.5 8h76q11 0 17.5 -8t4.5 -19zM353 672q5 14 18 26.5t33 12.5h81q13 0 16.5 -10t-1.5 -19l-85 -139q-6 -10 -18 -21t-32 -11h-46q-12 0 -16 7.5t-1 16.5z" />
    <glyph glyph-name="lcommaaccent" unicode="&#x13c;" horiz-adv-x="269" 
d="M142 27q-2 -11 -11.5 -19t-20.5 -8h-76q-11 0 -17.5 8t-4.5 19l140 656q2 11 11.5 19t20.5 8h76q11 0 17.5 -8t4.5 -19zM-26 -89q5 14 18 26.5t33 12.5h81q13 0 16.5 -10t-1.5 -19l-85 -139q-6 -10 -18 -21t-32 -11h-46q-12 0 -16 7.5t-1 16.5z" />
    <glyph glyph-name="ldot" unicode="&#x140;" horiz-adv-x="378" 
d="M142 27q-2 -11 -11.5 -19t-20.5 -8h-76q-11 0 -17.5 8t-4.5 19l140 656q2 11 11.5 19t20.5 8h76q11 0 17.5 -8t4.5 -19zM399 436q11 0 17 -8t4 -19l-21 -98q-2 -11 -11.5 -19t-20.5 -8h-93q-11 0 -17.5 8t-4.5 19l21 98q2 11 12 19t21 8h93z" />
    <glyph glyph-name="lslash" unicode="&#x142;" horiz-adv-x="291" 
d="M239 432l33 12q10 4 19.5 0t6.5 -19l-10 -48q-5 -25 -29 -33l-42 -15l-64 -302q-2 -11 -11.5 -19t-20.5 -8h-76q-11 0 -17.5 8t-4.5 19l54 252l-33 -12q-11 -5 -20 0.5t-6 18.5l10 48q3 14 9.5 21t20.5 12l40 14l65 302q2 11 11.5 19t20.5 8h76q11 0 17.5 -8t4.5 -19z
" />
    <glyph glyph-name="m" unicode="m" horiz-adv-x="918" 
d="M236 470q25 27 56 43.5t76 16.5q56 0 98 -25t60 -60q36 41 77.5 63t92.5 22q53 0 88.5 -19t54.5 -51t22.5 -74.5t-6.5 -89.5l-57 -269q-2 -11 -11.5 -19t-20.5 -8h-76q-11 0 -17.5 8t-4.5 19l56 264q14 68 -6 95t-67 27q-40 0 -74 -26t-50 -91l-57 -269q-2 -11 -11.5 -19
t-20.5 -8h-76q-11 0 -17.5 8t-4.5 19l56 264q14 68 -6 95t-67 27q-41 0 -76 -27.5t-49 -94.5l-56 -264q-2 -11 -11.5 -19t-20.5 -8h-76q-11 0 -17.5 8t-4.5 19l99 466q2 11 12 19t21 8h76q11 0 17 -8t4 -19z" />
    <glyph glyph-name="n" unicode="n" horiz-adv-x="619" 
d="M500 27q-2 -11 -11.5 -19t-20.5 -8h-76q-11 0 -17.5 8t-4.5 19l54 254q13 60 -7.5 96t-78.5 36q-53 0 -91 -36t-51 -96l-54 -254q-2 -11 -11.5 -19t-20.5 -8h-76q-11 0 -17.5 8t-4.5 19l99 466q2 11 12 19t21 8h76q11 0 17 -8t4 -19l-5 -23q26 28 62.5 44t84.5 16
q53 0 91 -19t59.5 -51t27.5 -74.5t-4 -89.5z" />
    <glyph glyph-name="nacute" unicode="&#x144;" horiz-adv-x="619" 
d="M500 27q-2 -11 -11.5 -19t-20.5 -8h-76q-11 0 -17.5 8t-4.5 19l54 254q13 60 -7.5 96t-78.5 36q-53 0 -91 -36t-51 -96l-54 -254q-2 -11 -11.5 -19t-20.5 -8h-76q-11 0 -17.5 8t-4.5 19l99 466q2 11 12 19t21 8h76q11 0 17 -8t4 -19l-5 -23q26 28 62.5 44t84.5 16
q53 0 91 -19t59.5 -51t27.5 -74.5t-4 -89.5zM424 726q14 13 22 16t19 3h95q14 0 15.5 -12.5t-8.5 -19.5l-144 -101q-10 -7 -20 -12t-26 -5h-55q-13 0 -13.5 10.5t8.5 18.5z" />
    <glyph glyph-name="napostrophe" unicode="&#x149;" horiz-adv-x="619" 
d="M500 27q-2 -11 -11.5 -19t-20.5 -8h-76q-11 0 -17.5 8t-4.5 19l54 254q13 60 -7.5 96t-78.5 36q-53 0 -91 -36t-51 -96l-54 -254q-2 -11 -11.5 -19t-20.5 -8h-76q-11 0 -17.5 8t-4.5 19l99 466q2 11 12 19t21 8h76q11 0 17 -8t4 -19l-5 -23q26 28 62.5 44t84.5 16
q53 0 91 -19t59.5 -51t27.5 -74.5t-4 -89.5zM205 756q5 14 18 26.5t33 12.5h81q13 0 16.5 -10t-1.5 -19l-85 -139q-6 -10 -18 -21t-32 -11h-46q-12 0 -16 7.5t-1 16.5z" />
    <glyph glyph-name="ncaron" unicode="&#x148;" horiz-adv-x="619" 
d="M500 27q-2 -11 -11.5 -19t-20.5 -8h-76q-11 0 -17.5 8t-4.5 19l54 254q13 60 -7.5 96t-78.5 36q-53 0 -91 -36t-51 -96l-54 -254q-2 -11 -11.5 -19t-20.5 -8h-76q-11 0 -17.5 8t-4.5 19l99 466q2 11 12 19t21 8h76q11 0 17 -8t4 -19l-5 -23q26 28 62.5 44t84.5 16
q53 0 91 -19t59.5 -51t27.5 -74.5t-4 -89.5zM326 595q-11 0 -18 4t-15 15l-70 102q-7 10 -1 19.5t18 9.5h35q10 0 15.5 -2.5t13.5 -8.5l65 -47l83 47q10 6 16.5 8.5t16.5 2.5h48q14 0 15.5 -10t-9.5 -21l-112 -100q-12 -11 -21 -15t-20 -4h-60z" />
    <glyph glyph-name="ncommaaccent" unicode="&#x146;" horiz-adv-x="619" 
d="M500 27q-2 -11 -11.5 -19t-20.5 -8h-76q-11 0 -17.5 8t-4.5 19l54 254q13 60 -7.5 96t-78.5 36q-53 0 -91 -36t-51 -96l-54 -254q-2 -11 -11.5 -19t-20.5 -8h-76q-11 0 -17.5 8t-4.5 19l99 466q2 11 12 19t21 8h76q11 0 17 -8t4 -19l-5 -23q26 28 62.5 44t84.5 16
q53 0 91 -19t59.5 -51t27.5 -74.5t-4 -89.5zM159 -89q5 14 18 26.5t33 12.5h81q13 0 16.5 -10t-1.5 -19l-85 -139q-6 -10 -18 -21t-32 -11h-46q-12 0 -16 7.5t-1 16.5z" />
    <glyph glyph-name="ntilde" unicode="&#xf1;" horiz-adv-x="619" 
d="M500 27q-2 -11 -11.5 -19t-20.5 -8h-76q-11 0 -17.5 8t-4.5 19l54 254q13 60 -7.5 96t-78.5 36q-53 0 -91 -36t-51 -96l-54 -254q-2 -11 -11.5 -19t-20.5 -8h-76q-11 0 -17.5 8t-4.5 19l99 466q2 11 12 19t21 8h76q11 0 17 -8t4 -19l-5 -23q26 28 62.5 44t84.5 16
q53 0 91 -19t59.5 -51t27.5 -74.5t-4 -89.5zM420 590q-22 0 -36 5.5t-24.5 11.5t-20.5 11.5t-24 5.5q-12 0 -18 -4.5t-11 -10t-9.5 -10t-13.5 -4.5h-56q-9 0 -13 5.5t-2 13.5q4 19 15 39.5t27.5 37.5t38.5 28t49 11q22 0 35.5 -5.5t24 -11.5t20.5 -11.5t24 -5.5
q12 0 18.5 4.5t11 10t9.5 10t14 4.5h56q9 0 13 -5.5t2 -13.5q-4 -19 -15 -39.5t-27.5 -37.5t-38.5 -28t-49 -11z" />
    <glyph glyph-name="o" unicode="o" horiz-adv-x="593" 
d="M336 530q51 0 93 -18t71 -48.5t42.5 -71.5t6.5 -87q-1 -9 -3.5 -23t-5.5 -28t-6 -27.5t-6 -22.5q-14 -46 -35.5 -85t-55.5 -67.5t-82 -45t-114 -16.5q-51 0 -93 18t-70.5 48.5t-42 71t-7.5 86.5q1 9 3.5 22.5t5.5 27.5l6 28t6 23q13 46 36.5 85.5t58.5 68t82.5 45
t109.5 16.5zM419 305q4 31 -3 51.5t-21.5 32.5t-33.5 16.5t-40 4.5t-42 -4.5t-40.5 -16.5t-35.5 -32.5t-26 -51.5l-5 -20t-6 -25t-5 -25.5t-3 -19.5q-3 -31 4 -51.5t21.5 -32.5t33.5 -16.5t40 -4.5t42 4.5t40.5 16.5t35.5 32.5t25 51.5q2 7 5 19.5t6 25.5t5 25t3 20z" />
    <glyph glyph-name="oacute" unicode="&#xf3;" horiz-adv-x="593" 
d="M336 530q51 0 93 -18t71 -48.5t42.5 -71.5t6.5 -87q-1 -9 -3.5 -23t-5.5 -28t-6 -27.5t-6 -22.5q-14 -46 -35.5 -85t-55.5 -67.5t-82 -45t-114 -16.5q-51 0 -93 18t-70.5 48.5t-42 71t-7.5 86.5q1 9 3.5 22.5t5.5 27.5l6 28t6 23q13 46 36.5 85.5t58.5 68t82.5 45
t109.5 16.5zM419 305q4 31 -3 51.5t-21.5 32.5t-33.5 16.5t-40 4.5t-42 -4.5t-40.5 -16.5t-35.5 -32.5t-26 -51.5l-5 -20t-6 -25t-5 -25.5t-3 -19.5q-3 -31 4 -51.5t21.5 -32.5t33.5 -16.5t40 -4.5t42 4.5t40.5 16.5t35.5 32.5t25 51.5q2 7 5 19.5t6 25.5t5 25t3 20z
M421 726q14 13 22 16t19 3h95q14 0 15.5 -12.5t-8.5 -19.5l-144 -101q-10 -7 -20 -12t-26 -5h-55q-13 0 -13.5 10.5t8.5 18.5z" />
    <glyph glyph-name="obreve" unicode="&#x14f;" horiz-adv-x="593" 
d="M336 530q51 0 93 -18t71 -48.5t42.5 -71.5t6.5 -87q-1 -9 -3.5 -23t-5.5 -28t-6 -27.5t-6 -22.5q-14 -46 -35.5 -85t-55.5 -67.5t-82 -45t-114 -16.5q-51 0 -93 18t-70.5 48.5t-42 71t-7.5 86.5q1 9 3.5 22.5t5.5 27.5l6 28t6 23q13 46 36.5 85.5t58.5 68t82.5 45
t109.5 16.5zM419 305q4 31 -3 51.5t-21.5 32.5t-33.5 16.5t-40 4.5t-42 -4.5t-40.5 -16.5t-35.5 -32.5t-26 -51.5l-5 -20t-6 -25t-5 -25.5t-3 -19.5q-3 -31 4 -51.5t21.5 -32.5t33.5 -16.5t40 -4.5t42 4.5t40.5 16.5t35.5 32.5t25 51.5q2 7 5 19.5t6 25.5t5 25t3 20z
M356 590q-39 0 -65 12.5t-41 32t-19.5 43.5t0.5 48q2 8 8 13.5t15 5.5h57q9 0 12.5 -5.5t2.5 -13.5q-3 -22 4 -36t34 -14t41 14t19 36q2 8 8 13.5t15 5.5h57q9 0 13 -5.5t2 -13.5q-5 -24 -14 -48t-26.5 -43.5t-47 -32t-75.5 -12.5z" />
    <glyph glyph-name="ocircumflex" unicode="&#xf4;" horiz-adv-x="593" 
d="M336 530q51 0 93 -18t71 -48.5t42.5 -71.5t6.5 -87q-1 -9 -3.5 -23t-5.5 -28t-6 -27.5t-6 -22.5q-14 -46 -35.5 -85t-55.5 -67.5t-82 -45t-114 -16.5q-51 0 -93 18t-70.5 48.5t-42 71t-7.5 86.5q1 9 3.5 22.5t5.5 27.5l6 28t6 23q13 46 36.5 85.5t58.5 68t82.5 45
t109.5 16.5zM419 305q4 31 -3 51.5t-21.5 32.5t-33.5 16.5t-40 4.5t-42 -4.5t-40.5 -16.5t-35.5 -32.5t-26 -51.5l-5 -20t-6 -25t-5 -25.5t-3 -19.5q-3 -31 4 -51.5t21.5 -32.5t33.5 -16.5t40 -4.5t42 4.5t40.5 16.5t35.5 32.5t25 51.5q2 7 5 19.5t6 25.5t5 25t3 20z
M402 745q11 0 18 -4t15 -15l70 -102q7 -10 0.5 -19.5t-17.5 -9.5h-36q-10 0 -15.5 2.5t-13.5 8.5l-62 47l-86 -47q-10 -6 -16.5 -8.5t-16.5 -2.5h-50q-11 0 -13 10t8 19l114 102q12 11 21 15t20 4h60z" />
    <glyph glyph-name="odieresis" unicode="&#xf6;" horiz-adv-x="593" 
d="M336 530q51 0 93 -18t71 -48.5t42.5 -71.5t6.5 -87q-1 -9 -3.5 -23t-5.5 -28t-6 -27.5t-6 -22.5q-14 -46 -35.5 -85t-55.5 -67.5t-82 -45t-114 -16.5q-51 0 -93 18t-70.5 48.5t-42 71t-7.5 86.5q1 9 3.5 22.5t5.5 27.5l6 28t6 23q13 46 36.5 85.5t58.5 68t82.5 45
t109.5 16.5zM419 305q4 31 -3 51.5t-21.5 32.5t-33.5 16.5t-40 4.5t-42 -4.5t-40.5 -16.5t-35.5 -32.5t-26 -51.5l-5 -20t-6 -25t-5 -25.5t-3 -19.5q-3 -31 4 -51.5t21.5 -32.5t33.5 -16.5t40 -4.5t42 4.5t40.5 16.5t35.5 32.5t25 51.5q2 7 5 19.5t6 25.5t5 25t3 20z
M318 737q11 0 17 -8t4 -19l-18 -88q-2 -11 -12 -19t-21 -8h-83q-11 0 -17 8t-4 19l18 88q2 11 12 19t21 8h83zM525 737q11 0 17 -8t4 -19l-18 -88q-2 -11 -12 -19t-21 -8h-83q-11 0 -17 8t-4 19l18 88q2 11 12 19t21 8h83z" />
    <glyph glyph-name="ograve" unicode="&#xf2;" horiz-adv-x="593" 
d="M336 530q51 0 93 -18t71 -48.5t42.5 -71.5t6.5 -87q-1 -9 -3.5 -23t-5.5 -28t-6 -27.5t-6 -22.5q-14 -46 -35.5 -85t-55.5 -67.5t-82 -45t-114 -16.5q-51 0 -93 18t-70.5 48.5t-42 71t-7.5 86.5q1 9 3.5 22.5t5.5 27.5l6 28t6 23q13 46 36.5 85.5t58.5 68t82.5 45
t109.5 16.5zM419 305q4 31 -3 51.5t-21.5 32.5t-33.5 16.5t-40 4.5t-42 -4.5t-40.5 -16.5t-35.5 -32.5t-26 -51.5l-5 -20t-6 -25t-5 -25.5t-3 -19.5q-3 -31 4 -51.5t21.5 -32.5t33.5 -16.5t40 -4.5t42 4.5t40.5 16.5t35.5 32.5t25 51.5q2 7 5 19.5t6 25.5t5 25t3 20z
M407 624q6 -10 0 -19.5t-17 -9.5h-55q-16 0 -23.5 5t-14.5 12l-99 98q-10 10 -3.5 22.5t21.5 12.5h95q11 0 18 -2.5t15 -16.5z" />
    <glyph glyph-name="ohungarumlaut" unicode="&#x151;" horiz-adv-x="593" 
d="M336 530q51 0 93 -18t71 -48.5t42.5 -71.5t6.5 -87q-1 -9 -3.5 -23t-5.5 -28t-6 -27.5t-6 -22.5q-14 -46 -35.5 -85t-55.5 -67.5t-82 -45t-114 -16.5q-51 0 -93 18t-70.5 48.5t-42 71t-7.5 86.5q1 9 3.5 22.5t5.5 27.5l6 28t6 23q13 46 36.5 85.5t58.5 68t82.5 45
t109.5 16.5zM419 305q4 31 -3 51.5t-21.5 32.5t-33.5 16.5t-40 4.5t-42 -4.5t-40.5 -16.5t-35.5 -32.5t-26 -51.5l-5 -20t-6 -25t-5 -25.5t-3 -19.5q-3 -31 4 -51.5t21.5 -32.5t33.5 -16.5t40 -4.5t42 4.5t40.5 16.5t35.5 32.5t25 51.5q2 7 5 19.5t6 25.5t5 25t3 20z
M277 726q7 10 16 14.5t25 4.5h93q14 0 15.5 -12t-8.5 -20l-118 -104q-16 -14 -37 -14h-48q-11 0 -12 8.5t4 16.5zM478 726q7 10 16 14.5t25 4.5h93q14 0 15.5 -12t-8.5 -20l-118 -104q-16 -14 -37 -14h-48q-11 0 -12 8.5t4 16.5z" />
    <glyph glyph-name="omacron" unicode="&#x14d;" horiz-adv-x="593" 
d="M336 530q51 0 93 -18t71 -48.5t42.5 -71.5t6.5 -87q-1 -9 -3.5 -23t-5.5 -28t-6 -27.5t-6 -22.5q-14 -46 -35.5 -85t-55.5 -67.5t-82 -45t-114 -16.5q-51 0 -93 18t-70.5 48.5t-42 71t-7.5 86.5q1 9 3.5 22.5t5.5 27.5l6 28t6 23q13 46 36.5 85.5t58.5 68t82.5 45
t109.5 16.5zM419 305q4 31 -3 51.5t-21.5 32.5t-33.5 16.5t-40 4.5t-42 -4.5t-40.5 -16.5t-35.5 -32.5t-26 -51.5l-5 -20t-6 -25t-5 -25.5t-3 -19.5q-3 -31 4 -51.5t21.5 -32.5t33.5 -16.5t40 -4.5t42 4.5t40.5 16.5t35.5 32.5t25 51.5q2 7 5 19.5t6 25.5t5 25t3 20z
M220 595q-11 0 -17 8t-4 19l14 66q2 11 11.5 19t20.5 8h259q11 0 17.5 -8t4.5 -19l-14 -66q-2 -11 -12 -19t-21 -8h-259z" />
    <glyph glyph-name="oslash" unicode="&#xf8;" horiz-adv-x="634" 
d="M356 530q75 0 129 -36.5t75 -94.5l50 18q9 3 12 3q9 0 13.5 -6t2.5 -15l-10 -48q-5 -25 -29 -33l-30 -11v-2q-1 -9 -3.5 -23t-5.5 -28t-6 -27.5t-6 -22.5q-14 -46 -35.5 -85t-55.5 -67.5t-82 -45t-114 -16.5q-75 0 -129.5 36.5t-74.5 95.5l-50 -18q-9 -3 -12 -3
q-9 0 -14 6t-3 15l11 48q4 25 29 33l30 11q1 9 3.5 22.5t5.5 27.5l6 28t6 23q13 46 36.5 85.5t58.5 68t82.5 45t109.5 16.5zM420 215q5 16 10 42l-249 -90q9 -33 36.5 -45t59.5 -12q21 0 42 4.5t40.5 16.5t35.5 32.5t25 51.5zM436 354q-9 32 -36 44t-59 12q-62 0 -98.5 -33
t-55.5 -113z" />
    <glyph glyph-name="oslashacute" unicode="&#x1ff;" horiz-adv-x="634" 
d="M436 726q14 13 22 16t19 3h95q14 0 15.5 -12.5t-8.5 -19.5l-144 -101q-10 -7 -20 -12t-26 -5h-55q-13 0 -13.5 10.5t8.5 18.5zM356 530q75 0 129 -36.5t75 -94.5l50 18q9 3 12 3q9 0 13.5 -6t2.5 -15l-10 -48q-5 -25 -29 -33l-30 -11v-2q-1 -9 -3.5 -23t-5.5 -28
t-6 -27.5t-6 -22.5q-14 -46 -35.5 -85t-55.5 -67.5t-82 -45t-114 -16.5q-75 0 -129.5 36.5t-74.5 95.5l-50 -18q-9 -3 -12 -3q-9 0 -14 6t-3 15l11 48q4 25 29 33l30 11q1 9 3.5 22.5t5.5 27.5l6 28t6 23q13 46 36.5 85.5t58.5 68t82.5 45t109.5 16.5zM420 215q5 16 10 42
l-249 -90q9 -33 36.5 -45t59.5 -12q21 0 42 4.5t40.5 16.5t35.5 32.5t25 51.5zM436 354q-9 32 -36 44t-59 12q-62 0 -98.5 -33t-55.5 -113z" />
    <glyph glyph-name="otilde" unicode="&#xf5;" horiz-adv-x="593" 
d="M336 530q51 0 93 -18t71 -48.5t42.5 -71.5t6.5 -87q-1 -9 -3.5 -23t-5.5 -28t-6 -27.5t-6 -22.5q-14 -46 -35.5 -85t-55.5 -67.5t-82 -45t-114 -16.5q-51 0 -93 18t-70.5 48.5t-42 71t-7.5 86.5q1 9 3.5 22.5t5.5 27.5l6 28t6 23q13 46 36.5 85.5t58.5 68t82.5 45
t109.5 16.5zM419 305q4 31 -3 51.5t-21.5 32.5t-33.5 16.5t-40 4.5t-42 -4.5t-40.5 -16.5t-35.5 -32.5t-26 -51.5l-5 -20t-6 -25t-5 -25.5t-3 -19.5q-3 -31 4 -51.5t21.5 -32.5t33.5 -16.5t40 -4.5t42 4.5t40.5 16.5t35.5 32.5t25 51.5q2 7 5 19.5t6 25.5t5 25t3 20z
M422 590q-22 0 -36 5.5t-24.5 11.5t-20.5 11.5t-24 5.5q-12 0 -18 -4.5t-11 -10t-9.5 -10t-13.5 -4.5h-56q-9 0 -13 5.5t-2 13.5q4 19 15 39.5t27.5 37.5t38.5 28t49 11q22 0 35.5 -5.5t24 -11.5t20.5 -11.5t24 -5.5q12 0 18.5 4.5t11 10t9.5 10t14 4.5h56q9 0 13 -5.5
t2 -13.5q-4 -19 -15 -39.5t-27.5 -37.5t-38.5 -28t-49 -11z" />
    <glyph glyph-name="oe" unicode="&#x153;" horiz-adv-x="947" 
d="M336 530q55 0 99 -20.5t73 -55.5q35 35 83.5 55.5t112.5 20.5q52 0 94.5 -20.5t70 -55t38 -81t-0.5 -97.5l-9 -45q-3 -11 -12.5 -19t-20.5 -8h-334q-5 -23 1 -40.5t19.5 -29.5t33 -18t41.5 -6q32 0 53.5 6.5t36.5 16.5q12 8 20 11t20 3h80q11 0 17.5 -8t3.5 -19
q-4 -14 -20.5 -36t-47 -43t-75 -36t-104.5 -15q-48 0 -89 19.5t-69 54.5q-35 -35 -85.5 -54.5t-124.5 -19.5q-51 0 -93 18t-70.5 48.5t-42 71t-7.5 86.5q1 9 3.5 22.5t5.5 27.5l6 28t6 23q13 46 36.5 85.5t58.5 68t82.5 45t109.5 16.5zM419 305q4 31 -3 51.5t-21.5 32.5
t-33.5 16.5t-40 4.5t-42 -4.5t-40.5 -16.5t-35.5 -32.5t-26 -51.5l-5 -20t-6 -25t-5 -25.5t-3 -19.5q-3 -31 4 -51.5t21.5 -32.5t33.5 -16.5t40 -4.5t42 4.5t40.5 16.5t35.5 32.5t25 51.5q2 7 5 19.5t6 25.5t5 25t3 20zM689 410q-29 0 -51.5 -8.5t-39.5 -22t-28 -30
t-16 -31.5h226q1 15 -1 31.5t-11.5 30t-28 22t-50.5 8.5z" />
    <glyph glyph-name="p" unicode="p" horiz-adv-x="619" 
d="M296 -10q-31 0 -56 6t-43.5 15t-30.5 19.5t-18 19.5l-46 -213q-2 -11 -11.5 -19t-20.5 -8h-76q-11 0 -17.5 8t-4.5 19l140 656q2 11 11.5 19t20.5 8h76q11 0 17.5 -8t4.5 -19l-5 -23q10 9 22.5 19.5t30.5 19.5t42.5 15t58.5 6q46 0 83.5 -20.5t61.5 -54.5t34 -78t3 -90
l-7 -35t-8 -35q-12 -46 -34 -87.5t-55 -72.5t-76 -49t-97 -18zM430 232q5 15 7.5 28t4.5 28q7 64 -20.5 93t-76.5 29t-88.5 -29t-56.5 -83q-5 -15 -9.5 -38t-6.5 -38q-6 -52 21 -82t76 -30t89 28.5t60 93.5z" />
    <glyph glyph-name="q" unicode="q" 
d="M212 -10q-47 0 -83.5 20.5t-61 54.5t-34.5 77.5t-2 89.5q2 15 6 35t9 35q12 46 34 87.5t54.5 72.5t75.5 49.5t97 18.5q31 0 55.5 -6t43 -15t31 -19.5t18.5 -19.5l5 23q2 11 11.5 19t20.5 8h76q11 0 17.5 -8t4.5 -19l-140 -656q-2 -11 -11.5 -19t-20.5 -8h-76
q-11 0 -17.5 8t-4.5 19l46 213q-11 -9 -24.5 -19.5t-32 -19.5t-42.5 -15t-55 -6zM160 232q-4 -32 1.5 -55t18.5 -38t33 -22t44 -7q49 0 88.5 30t56.5 82q5 15 9.5 38t6.5 38q7 54 -20.5 83t-76.5 29t-89 -28.5t-60 -93.5q-5 -15 -7.5 -28t-4.5 -28z" />
    <glyph glyph-name="r" unicode="r" horiz-adv-x="418" 
d="M335 400q-60 0 -92 -26.5t-45 -86.5l-56 -260q-2 -11 -11.5 -19t-20.5 -8h-76q-11 0 -17.5 8t-4.5 19l99 466q2 11 12 19t21 8h76q11 0 17 -8t4 -19l-5 -23q12 13 24 22.5t26.5 15.5t32 9t41.5 3h65q11 0 17 -8t4 -19l-14 -66q-2 -11 -11.5 -19t-20.5 -8h-65z" />
    <glyph glyph-name="racute" unicode="&#x155;" horiz-adv-x="418" 
d="M335 400q-60 0 -92 -26.5t-45 -86.5l-56 -260q-2 -11 -11.5 -19t-20.5 -8h-76q-11 0 -17.5 8t-4.5 19l99 466q2 11 12 19t21 8h76q11 0 17 -8t4 -19l-5 -23q12 13 24 22.5t26.5 15.5t32 9t41.5 3h65q11 0 17 -8t4 -19l-14 -66q-2 -11 -11.5 -19t-20.5 -8h-65zM359 726
q14 13 22 16t19 3h95q14 0 15.5 -12.5t-8.5 -19.5l-144 -101q-10 -7 -20 -12t-26 -5h-55q-13 0 -13.5 10.5t8.5 18.5z" />
    <glyph glyph-name="rcaron" unicode="&#x159;" horiz-adv-x="418" 
d="M335 400q-60 0 -92 -26.5t-45 -86.5l-56 -260q-2 -11 -11.5 -19t-20.5 -8h-76q-11 0 -17.5 8t-4.5 19l99 466q2 11 12 19t21 8h76q11 0 17 -8t4 -19l-5 -23q12 13 24 22.5t26.5 15.5t32 9t41.5 3h65q11 0 17 -8t4 -19l-14 -66q-2 -11 -11.5 -19t-20.5 -8h-65zM260 595
q-11 0 -18 4t-15 15l-70 102q-7 10 -1 19.5t18 9.5h35q10 0 15.5 -2.5t13.5 -8.5l65 -47l83 47q10 6 16.5 8.5t16.5 2.5h48q14 0 15.5 -10t-9.5 -21l-112 -100q-12 -11 -21 -15t-20 -4h-60z" />
    <glyph glyph-name="rcommaaccent" unicode="&#x157;" horiz-adv-x="418" 
d="M335 400q-60 0 -92 -26.5t-45 -86.5l-56 -260q-2 -11 -11.5 -19t-20.5 -8h-76q-11 0 -17.5 8t-4.5 19l99 466q2 11 12 19t21 8h76q11 0 17 -8t4 -19l-5 -23q12 13 24 22.5t26.5 15.5t32 9t41.5 3h65q11 0 17 -8t4 -19l-14 -66q-2 -11 -11.5 -19t-20.5 -8h-65zM-26 -89
q5 14 18 26.5t33 12.5h81q13 0 16.5 -10t-1.5 -19l-85 -139q-6 -10 -18 -21t-32 -11h-46q-12 0 -16 7.5t-1 16.5z" />
    <glyph glyph-name="s" unicode="s" horiz-adv-x="519" 
d="M320 149q3 11 -2.5 18t-22 13t-44.5 12t-70 16t-67.5 26.5t-38.5 38.5t-14 49t5 57t21.5 57.5t42.5 48t67.5 33t96.5 12.5q45 0 80.5 -11t60.5 -29t39 -41.5t15 -47.5q1 -11 -10.5 -19t-22.5 -8h-77q-15 0 -21.5 5.5t-14 12.5t-21 12.5t-43.5 5.5t-55 -9t-30 -32
q-2 -11 2 -18.5t18 -13.5t40 -12.5t68 -15.5q43 -9 70.5 -25.5t42 -38.5t17 -49t-3.5 -57t-22.5 -57t-46 -47.5t-72.5 -32.5t-103 -12q-49 0 -87 12.5t-63.5 32t-38.5 44.5t-12 50q1 11 11.5 19t21.5 8h77q15 0 21 -7t14 -16t23 -16t49 -7q15 0 31.5 2t31 6.5t25 12
t12.5 18.5z" />
    <glyph glyph-name="sacute" unicode="&#x15b;" horiz-adv-x="519" 
d="M320 149q3 11 -2.5 18t-22 13t-44.5 12t-70 16t-67.5 26.5t-38.5 38.5t-14 49t5 57t21.5 57.5t42.5 48t67.5 33t96.5 12.5q45 0 80.5 -11t60.5 -29t39 -41.5t15 -47.5q1 -11 -10.5 -19t-22.5 -8h-77q-15 0 -21.5 5.5t-14 12.5t-21 12.5t-43.5 5.5t-55 -9t-30 -32
q-2 -11 2 -18.5t18 -13.5t40 -12.5t68 -15.5q43 -9 70.5 -25.5t42 -38.5t17 -49t-3.5 -57t-22.5 -57t-46 -47.5t-72.5 -32.5t-103 -12q-49 0 -87 12.5t-63.5 32t-38.5 44.5t-12 50q1 11 11.5 19t21.5 8h77q15 0 21 -7t14 -16t23 -16t49 -7q15 0 31.5 2t31 6.5t25 12
t12.5 18.5zM378 726q14 13 22 16t19 3h95q14 0 15.5 -12.5t-8.5 -19.5l-144 -101q-10 -7 -20 -12t-26 -5h-55q-13 0 -13.5 10.5t8.5 18.5z" />
    <glyph glyph-name="scaron" unicode="&#x161;" horiz-adv-x="519" 
d="M320 149q3 11 -2.5 18t-22 13t-44.5 12t-70 16t-67.5 26.5t-38.5 38.5t-14 49t5 57t21.5 57.5t42.5 48t67.5 33t96.5 12.5q45 0 80.5 -11t60.5 -29t39 -41.5t15 -47.5q1 -11 -10.5 -19t-22.5 -8h-77q-15 0 -21.5 5.5t-14 12.5t-21 12.5t-43.5 5.5t-55 -9t-30 -32
q-2 -11 2 -18.5t18 -13.5t40 -12.5t68 -15.5q43 -9 70.5 -25.5t42 -38.5t17 -49t-3.5 -57t-22.5 -57t-46 -47.5t-72.5 -32.5t-103 -12q-49 0 -87 12.5t-63.5 32t-38.5 44.5t-12 50q1 11 11.5 19t21.5 8h77q15 0 21 -7t14 -16t23 -16t49 -7q15 0 31.5 2t31 6.5t25 12
t12.5 18.5zM291 595q-11 0 -18 4t-15 15l-70 102q-7 10 -1 19.5t18 9.5h35q10 0 15.5 -2.5t13.5 -8.5l65 -47l83 47q10 6 16.5 8.5t16.5 2.5h48q14 0 15.5 -10t-9.5 -21l-112 -100q-12 -11 -21 -15t-20 -4h-60z" />
    <glyph glyph-name="scedilla" unicode="&#x15f;" horiz-adv-x="519" 
d="M320 149q3 11 -2.5 18t-22 13t-44.5 12t-70 16t-67.5 26.5t-38.5 38.5t-14 49t5 57t21.5 57.5t42.5 48t67.5 33t96.5 12.5q45 0 80.5 -11t60.5 -29t39 -41.5t15 -47.5q1 -11 -10.5 -19t-22.5 -8h-77q-15 0 -21.5 5.5t-14 12.5t-21 12.5t-43.5 5.5t-55 -9t-30 -32
q-2 -11 2 -18.5t18 -13.5t40 -12.5t68 -15.5q43 -9 70.5 -25.5t42 -38.5t17 -49t-3.5 -57t-22.5 -57t-46 -47.5t-72.5 -32.5t-103 -12q-49 0 -87 12.5t-63.5 32t-38.5 44.5t-12 50q1 11 11.5 19t21.5 8h77q15 0 21 -7t14 -16t23 -16t49 -7q15 0 31.5 2t31 6.5t25 12
t12.5 18.5zM227 27l-56 -83q7 4 16.5 7t20.5 3q33 0 49 -26.5t8 -62.5t-33 -60.5t-74 -24.5q-18 0 -36 5t-30 12.5t-16 16.5t6 17l16 13q10 7 15 7t10.5 -3.5t13.5 -7.5t23 -4q38 0 44 32q6 30 -31 30q-8 0 -16 -3t-15 -5t-13 -2t-11 6l-12 18q-5 8 -5 13.5t10 19.5l55 82
h61z" />
    <glyph glyph-name="scircumflex" unicode="&#x15d;" horiz-adv-x="519" 
d="M320 149q3 11 -2.5 18t-22 13t-44.5 12t-70 16t-67.5 26.5t-38.5 38.5t-14 49t5 57t21.5 57.5t42.5 48t67.5 33t96.5 12.5q45 0 80.5 -11t60.5 -29t39 -41.5t15 -47.5q1 -11 -10.5 -19t-22.5 -8h-77q-15 0 -21.5 5.5t-14 12.5t-21 12.5t-43.5 5.5t-55 -9t-30 -32
q-2 -11 2 -18.5t18 -13.5t40 -12.5t68 -15.5q43 -9 70.5 -25.5t42 -38.5t17 -49t-3.5 -57t-22.5 -57t-46 -47.5t-72.5 -32.5t-103 -12q-49 0 -87 12.5t-63.5 32t-38.5 44.5t-12 50q1 11 11.5 19t21.5 8h77q15 0 21 -7t14 -16t23 -16t49 -7q15 0 31.5 2t31 6.5t25 12
t12.5 18.5zM379 745q11 0 18 -4t15 -15l70 -102q7 -10 0.5 -19.5t-17.5 -9.5h-36q-10 0 -15.5 2.5t-13.5 8.5l-62 47l-86 -47q-10 -6 -16.5 -8.5t-16.5 -2.5h-50q-11 0 -13 10t8 19l114 102q12 11 21 15t20 4h60z" />
    <glyph glyph-name="scommaaccent" unicode="&#x219;" horiz-adv-x="519" 
d="M320 149q3 11 -2.5 18t-22 13t-44.5 12t-70 16t-67.5 26.5t-38.5 38.5t-14 49t5 57t21.5 57.5t42.5 48t67.5 33t96.5 12.5q45 0 80.5 -11t60.5 -29t39 -41.5t15 -47.5q1 -11 -10.5 -19t-22.5 -8h-77q-15 0 -21.5 5.5t-14 12.5t-21 12.5t-43.5 5.5t-55 -9t-30 -32
q-2 -11 2 -18.5t18 -13.5t40 -12.5t68 -15.5q43 -9 70.5 -25.5t42 -38.5t17 -49t-3.5 -57t-22.5 -57t-46 -47.5t-72.5 -32.5t-103 -12q-49 0 -87 12.5t-63.5 32t-38.5 44.5t-12 50q1 11 11.5 19t21.5 8h77q15 0 21 -7t14 -16t23 -16t49 -7q15 0 31.5 2t31 6.5t25 12
t12.5 18.5zM92 -89q5 14 18 26.5t33 12.5h81q13 0 16.5 -10t-1.5 -19l-85 -139q-6 -10 -18 -21t-32 -11h-46q-12 0 -16 7.5t-1 16.5z" />
    <glyph glyph-name="t" unicode="t" horiz-adv-x="433" 
d="M217 188q-6 -31 1.5 -49.5t42.5 -18.5h81q11 0 17 -8t4 -19l-14 -66q-2 -11 -11.5 -19t-20.5 -8h-64q-94 0 -139.5 48.5t-26.5 136.5l46 215h-66q-11 0 -17.5 8t-4.5 19l14 66q2 11 12 19t21 8h66l35 163q2 11 11.5 19t20.5 8h76q11 0 17.5 -8t4.5 -19l-35 -163h129
q11 0 17 -8t4 -19l-14 -66q-2 -11 -11.5 -19t-20.5 -8h-129z" />
    <glyph glyph-name="tbar" unicode="&#x167;" horiz-adv-x="441" 
d="M260 358h129q11 0 17 -8t4 -19l-14 -66q-2 -11 -12 -19t-21 -8h-129l-11 -50q-6 -31 1.5 -49.5t42.5 -18.5h81q11 0 17 -8t4 -19l-14 -66q-2 -11 -11.5 -19t-20.5 -8h-64q-94 0 -139.5 48.5t-26.5 136.5l11 53h-66q-11 0 -17 8t-4 19l14 66q2 11 12 19t21 8h66l9 42h-66
q-11 0 -17.5 8t-4.5 19l14 66q2 11 12 19t21 8h66l35 163q2 11 11.5 19t20.5 8h76q11 0 17.5 -8t4.5 -19l-35 -163h129q11 0 17 -8t4 -19l-14 -66q-2 -11 -11.5 -19t-20.5 -8h-129z" />
    <glyph glyph-name="tcaron" unicode="&#x165;" horiz-adv-x="480" 
d="M217 188q-6 -31 1.5 -49.5t42.5 -18.5h81q11 0 17 -8t4 -19l-14 -66q-2 -11 -11.5 -19t-20.5 -8h-64q-94 0 -139.5 48.5t-26.5 136.5l46 215h-66q-11 0 -17.5 8t-4.5 19l14 66q2 11 12 19t21 8h66l35 163q2 11 11.5 19t20.5 8h76q11 0 17.5 -8t4.5 -19l-35 -163h129
q11 0 17 -8t4 -19l-14 -66q-2 -11 -11.5 -19t-20.5 -8h-129zM517 671q5 14 18 26.5t33 12.5h81q13 0 16.5 -10t-1.5 -19l-85 -139q-6 -10 -18 -21t-32 -11h-46q-12 0 -16 7.5t-1 16.5z" />
    <glyph glyph-name="tcommaaccent" unicode="&#x163;" horiz-adv-x="433" 
d="M217 188q-6 -31 1.5 -49.5t42.5 -18.5h81q11 0 17 -8t4 -19l-14 -66q-2 -11 -11.5 -19t-20.5 -8h-64q-94 0 -139.5 48.5t-26.5 136.5l46 215h-66q-11 0 -17.5 8t-4.5 19l14 66q2 11 12 19t21 8h66l35 163q2 11 11.5 19t20.5 8h76q11 0 17.5 -8t4.5 -19l-35 -163h129
q11 0 17 -8t4 -19l-14 -66q-2 -11 -11.5 -19t-20.5 -8h-129zM97 -89q5 14 18 26.5t33 12.5h81q13 0 16.5 -10t-1.5 -19l-85 -139q-6 -10 -18 -21t-32 -11h-46q-12 0 -16 7.5t-1 16.5z" />
    <glyph glyph-name="u" unicode="u" horiz-adv-x="609" 
d="M104 493q2 11 12 19t21 8h76q11 0 17 -8t4 -19l-54 -254q-13 -60 5 -96t76 -36q53 0 88.5 36t48.5 96l54 254q2 11 12 19t21 8h76q11 0 17 -8t4 -19l-99 -466q-2 -11 -11.5 -19t-20.5 -8h-76q-11 0 -17.5 8t-4.5 19l5 23q-23 -28 -54.5 -44t-87.5 -16q-53 0 -90 19
t-57.5 51t-26 74.5t4.5 89.5z" />
    <glyph glyph-name="uacute" unicode="&#xfa;" horiz-adv-x="609" 
d="M104 493q2 11 12 19t21 8h76q11 0 17 -8t4 -19l-54 -254q-13 -60 5 -96t76 -36q53 0 88.5 36t48.5 96l54 254q2 11 12 19t21 8h76q11 0 17 -8t4 -19l-99 -466q-2 -11 -11.5 -19t-20.5 -8h-76q-11 0 -17.5 8t-4.5 19l5 23q-23 -28 -54.5 -44t-87.5 -16q-53 0 -90 19
t-57.5 51t-26 74.5t4.5 89.5zM414 726q14 13 22 16t19 3h95q14 0 15.5 -12.5t-8.5 -19.5l-144 -101q-10 -7 -20 -12t-26 -5h-55q-13 0 -13.5 10.5t8.5 18.5z" />
    <glyph glyph-name="ubreve" unicode="&#x16d;" horiz-adv-x="609" 
d="M104 493q2 11 12 19t21 8h76q11 0 17 -8t4 -19l-54 -254q-13 -60 5 -96t76 -36q53 0 88.5 36t48.5 96l54 254q2 11 12 19t21 8h76q11 0 17 -8t4 -19l-99 -466q-2 -11 -11.5 -19t-20.5 -8h-76q-11 0 -17.5 8t-4.5 19l5 23q-23 -28 -54.5 -44t-87.5 -16q-53 0 -90 19
t-57.5 51t-26 74.5t4.5 89.5zM359 590q-39 0 -65 12.5t-41 32t-19.5 43.5t0.5 48q2 8 8 13.5t15 5.5h57q9 0 12.5 -5.5t2.5 -13.5q-3 -22 4 -36t34 -14t41 14t19 36q2 8 8 13.5t15 5.5h57q9 0 13 -5.5t2 -13.5q-5 -24 -14 -48t-26.5 -43.5t-47 -32t-75.5 -12.5z" />
    <glyph glyph-name="ucircumflex" unicode="&#xfb;" horiz-adv-x="609" 
d="M104 493q2 11 12 19t21 8h76q11 0 17 -8t4 -19l-54 -254q-13 -60 5 -96t76 -36q53 0 88.5 36t48.5 96l54 254q2 11 12 19t21 8h76q11 0 17 -8t4 -19l-99 -466q-2 -11 -11.5 -19t-20.5 -8h-76q-11 0 -17.5 8t-4.5 19l5 23q-23 -28 -54.5 -44t-87.5 -16q-53 0 -90 19
t-57.5 51t-26 74.5t4.5 89.5zM407 745q11 0 18 -4t15 -15l70 -102q7 -10 0.5 -19.5t-17.5 -9.5h-36q-10 0 -15.5 2.5t-13.5 8.5l-62 47l-86 -47q-10 -6 -16.5 -8.5t-16.5 -2.5h-50q-11 0 -13 10t8 19l114 102q12 11 21 15t20 4h60z" />
    <glyph glyph-name="udieresis" unicode="&#xfc;" horiz-adv-x="609" 
d="M104 493q2 11 12 19t21 8h76q11 0 17 -8t4 -19l-54 -254q-13 -60 5 -96t76 -36q53 0 88.5 36t48.5 96l54 254q2 11 12 19t21 8h76q11 0 17 -8t4 -19l-99 -466q-2 -11 -11.5 -19t-20.5 -8h-76q-11 0 -17.5 8t-4.5 19l5 23q-23 -28 -54.5 -44t-87.5 -16q-53 0 -90 19
t-57.5 51t-26 74.5t4.5 89.5zM330 737q11 0 17 -8t4 -19l-18 -88q-2 -11 -12 -19t-21 -8h-83q-11 0 -17 8t-4 19l18 88q2 11 12 19t21 8h83zM537 737q11 0 17 -8t4 -19l-18 -88q-2 -11 -12 -19t-21 -8h-83q-11 0 -17 8t-4 19l18 88q2 11 12 19t21 8h83z" />
    <glyph glyph-name="uhungarumlaut" unicode="&#x171;" horiz-adv-x="609" 
d="M104 493q2 11 12 19t21 8h76q11 0 17 -8t4 -19l-54 -254q-13 -60 5 -96t76 -36q53 0 88.5 36t48.5 96l54 254q2 11 12 19t21 8h76q11 0 17 -8t4 -19l-99 -466q-2 -11 -11.5 -19t-20.5 -8h-76q-11 0 -17.5 8t-4.5 19l5 23q-23 -28 -54.5 -44t-87.5 -16q-53 0 -90 19
t-57.5 51t-26 74.5t4.5 89.5zM280 726q7 10 16 14.5t25 4.5h93q14 0 15.5 -12t-8.5 -20l-118 -104q-16 -14 -37 -14h-48q-11 0 -12 8.5t4 16.5zM481 726q7 10 16 14.5t25 4.5h93q14 0 15.5 -12t-8.5 -20l-118 -104q-16 -14 -37 -14h-48q-11 0 -12 8.5t4 16.5z" />
    <glyph glyph-name="ugrave" unicode="&#xf9;" horiz-adv-x="609" 
d="M104 493q2 11 12 19t21 8h76q11 0 17 -8t4 -19l-54 -254q-13 -60 5 -96t76 -36q53 0 88.5 36t48.5 96l54 254q2 11 12 19t21 8h76q11 0 17 -8t4 -19l-99 -466q-2 -11 -11.5 -19t-20.5 -8h-76q-11 0 -17.5 8t-4.5 19l5 23q-23 -28 -54.5 -44t-87.5 -16q-53 0 -90 19
t-57.5 51t-26 74.5t4.5 89.5zM416 624q6 -10 0 -19.5t-17 -9.5h-55q-16 0 -23.5 5t-14.5 12l-99 98q-10 10 -3.5 22.5t21.5 12.5h95q11 0 18 -2.5t15 -16.5z" />
    <glyph glyph-name="umacron" unicode="&#x16b;" horiz-adv-x="609" 
d="M104 493q2 11 12 19t21 8h76q11 0 17 -8t4 -19l-54 -254q-13 -60 5 -96t76 -36q53 0 88.5 36t48.5 96l54 254q2 11 12 19t21 8h76q11 0 17 -8t4 -19l-99 -466q-2 -11 -11.5 -19t-20.5 -8h-76q-11 0 -17.5 8t-4.5 19l5 23q-23 -28 -54.5 -44t-87.5 -16q-53 0 -90 19
t-57.5 51t-26 74.5t4.5 89.5zM223 595q-11 0 -17 8t-4 19l14 66q2 11 11.5 19t20.5 8h259q11 0 17.5 -8t4.5 -19l-14 -66q-2 -11 -12 -19t-21 -8h-259z" />
    <glyph glyph-name="uogonek" unicode="&#x173;" horiz-adv-x="609" 
d="M104 493q2 11 12 19t21 8h76q11 0 17 -8t4 -19l-54 -254q-13 -60 5 -96t76 -36q53 0 88.5 36t48.5 96l54 254q2 11 12 19t21 8h76q11 0 17 -8t4 -19l-99 -466q-2 -11 -11.5 -19t-20.5 -8h-23q-24 -2 -42.5 -18.5t-24.5 -45.5q-7 -31 5.5 -47.5t38.5 -16.5h15q21 0 18 -22
l-11 -48q-2 -10 -9 -16t-17 -6h-19q-24 0 -48 8.5t-42 26t-27 43.5t-1 62q9 44 34.5 68t54.5 38v1l5 23q-23 -28 -58.5 -44t-83.5 -16q-53 0 -90 19t-57.5 51t-26 74.5t4.5 89.5z" />
    <glyph glyph-name="uring" unicode="&#x16f;" horiz-adv-x="609" 
d="M104 493q2 11 12 19t21 8h76q11 0 17 -8t4 -19l-54 -254q-13 -60 5 -96t76 -36q53 0 88.5 36t48.5 96l54 254q2 11 12 19t21 8h76q11 0 17 -8t4 -19l-99 -466q-2 -11 -11.5 -19t-20.5 -8h-76q-11 0 -17.5 8t-4.5 19l5 23q-23 -28 -54.5 -44t-87.5 -16q-53 0 -90 19
t-57.5 51t-26 74.5t4.5 89.5zM346 675q-3 -13 3 -21.5t19 -8.5t24 8.5t14 21.5t-3 21.5t-19 8.5t-24 -8.5t-14 -21.5zM286 675q9 38 37.5 61.5t70.5 23.5q17 0 32 -6.5t25.5 -17.5t14.5 -26.5t0 -34.5q-9 -38 -37.5 -61.5t-70.5 -23.5q-17 0 -32 6t-25.5 17.5t-15 27
t0.5 34.5z" />
    <glyph glyph-name="utilde" unicode="&#x169;" horiz-adv-x="609" 
d="M104 493q2 11 12 19t21 8h76q11 0 17 -8t4 -19l-54 -254q-13 -60 5 -96t76 -36q53 0 88.5 36t48.5 96l54 254q2 11 12 19t21 8h76q11 0 17 -8t4 -19l-99 -466q-2 -11 -11.5 -19t-20.5 -8h-76q-11 0 -17.5 8t-4.5 19l5 23q-23 -28 -54.5 -44t-87.5 -16q-53 0 -90 19
t-57.5 51t-26 74.5t4.5 89.5zM430 590q-22 0 -36 5.5t-24.5 11.5t-20.5 11.5t-24 5.5q-12 0 -18 -4.5t-11 -10t-9.5 -10t-13.5 -4.5h-56q-9 0 -13 5.5t-2 13.5q4 19 15 39.5t27.5 37.5t38.5 28t49 11q22 0 35.5 -5.5t24 -11.5t20.5 -11.5t24 -5.5q12 0 18.5 4.5t11 10
t9.5 10t14 4.5h56q9 0 13 -5.5t2 -13.5q-4 -19 -15 -39.5t-27.5 -37.5t-38.5 -28t-49 -11z" />
    <glyph glyph-name="v" unicode="v" horiz-adv-x="591" 
d="M198 0q-15 0 -20.5 7t-7.5 18l-102 457q-4 16 6.5 27t25.5 11h68q15 0 20.5 -8t7.5 -16l69 -306l197 306q5 8 14 16t24 8h86q15 0 20.5 -11.5t-1.5 -22.5l-299 -461q-6 -9 -14.5 -17t-23.5 -8h-70v0z" />
    <glyph glyph-name="w" unicode="w" horiz-adv-x="831" 
d="M551 226l148 270q5 8 12 16t21 8h90q14 0 19 -12t-1 -23l-251 -460q-5 -9 -12.5 -17t-21.5 -8h-74q-14 0 -18 8t-6 17l-42 277l-161 -277q-5 -10 -12.5 -17.5t-21.5 -7.5h-71q-14 0 -18.5 8t-5.5 17l-54 461q-2 14 8.5 24t24.5 10h69q14 0 18 -7.5t5 -15.5l33 -281
l156 280q5 8 13.5 16t19.5 8h72q11 0 16.5 -8t6.5 -16z" />
    <glyph glyph-name="wacute" unicode="&#x1e83;" horiz-adv-x="831" 
d="M551 226l148 270q5 8 12 16t21 8h90q14 0 19 -12t-1 -23l-251 -460q-5 -9 -12.5 -17t-21.5 -8h-74q-14 0 -18 8t-6 17l-42 277l-161 -277q-5 -10 -12.5 -17.5t-21.5 -7.5h-71q-14 0 -18.5 8t-5.5 17l-54 461q-2 14 8.5 24t24.5 10h69q14 0 18 -7.5t5 -15.5l33 -281
l156 280q5 8 13.5 16t19.5 8h72q11 0 16.5 -8t6.5 -16zM539 726q14 13 22 16t19 3h95q14 0 15.5 -12.5t-8.5 -19.5l-144 -101q-10 -7 -20 -12t-26 -5h-55q-13 0 -13.5 10.5t8.5 18.5z" />
    <glyph glyph-name="wcircumflex" unicode="&#x175;" horiz-adv-x="831" 
d="M551 226l148 270q5 8 12 16t21 8h90q14 0 19 -12t-1 -23l-251 -460q-5 -9 -12.5 -17t-21.5 -8h-74q-14 0 -18 8t-6 17l-42 277l-161 -277q-5 -10 -12.5 -17.5t-21.5 -7.5h-71q-14 0 -18.5 8t-5.5 17l-54 461q-2 14 8.5 24t24.5 10h69q14 0 18 -7.5t5 -15.5l33 -281
l156 280q5 8 13.5 16t19.5 8h72q11 0 16.5 -8t6.5 -16zM519 745q11 0 18 -4t15 -15l70 -102q7 -10 0.5 -19.5t-17.5 -9.5h-36q-10 0 -15.5 2.5t-13.5 8.5l-62 47l-86 -47q-10 -6 -16.5 -8.5t-16.5 -2.5h-50q-11 0 -13 10t8 19l114 102q12 11 21 15t20 4h60z" />
    <glyph glyph-name="wdieresis" unicode="&#x1e85;" horiz-adv-x="831" 
d="M551 226l148 270q5 8 12 16t21 8h90q14 0 19 -12t-1 -23l-251 -460q-5 -9 -12.5 -17t-21.5 -8h-74q-14 0 -18 8t-6 17l-42 277l-161 -277q-5 -10 -12.5 -17.5t-21.5 -7.5h-71q-14 0 -18.5 8t-5.5 17l-54 461q-2 14 8.5 24t24.5 10h69q14 0 18 -7.5t5 -15.5l33 -281
l156 280q5 8 13.5 16t19.5 8h72q11 0 16.5 -8t6.5 -16zM434 737q11 0 17 -8t4 -19l-18 -88q-2 -11 -12 -19t-21 -8h-83q-11 0 -17 8t-4 19l18 88q2 11 12 19t21 8h83zM641 737q11 0 17 -8t4 -19l-18 -88q-2 -11 -12 -19t-21 -8h-83q-11 0 -17 8t-4 19l18 88q2 11 12 19t21 8
h83z" />
    <glyph glyph-name="wgrave" unicode="&#x1e81;" horiz-adv-x="831" 
d="M551 226l148 270q5 8 12 16t21 8h90q14 0 19 -12t-1 -23l-251 -460q-5 -9 -12.5 -17t-21.5 -8h-74q-14 0 -18 8t-6 17l-42 277l-161 -277q-5 -10 -12.5 -17.5t-21.5 -7.5h-71q-14 0 -18.5 8t-5.5 17l-54 461q-2 14 8.5 24t24.5 10h69q14 0 18 -7.5t5 -15.5l33 -281
l156 280q5 8 13.5 16t19.5 8h72q11 0 16.5 -8t6.5 -16zM510 624q6 -10 0 -19.5t-17 -9.5h-55q-16 0 -23.5 5t-14.5 12l-99 98q-10 10 -3.5 22.5t21.5 12.5h95q11 0 18 -2.5t15 -16.5z" />
    <glyph glyph-name="x" unicode="x" horiz-adv-x="578" 
d="M267 164l-147 -145q-13 -12 -24 -15.5t-24 -3.5h-89q-8 0 -13 4.5t-6.5 11.5t0 14t6.5 12l234 231l-119 203q-7 12 2.5 28t27.5 16h61q13 0 23 -3.5t17 -15.5l81 -140l142 140q12 12 23.5 15.5t24.5 3.5h90q9 0 14 -5t6.5 -11.5t-0.5 -14t-7 -11.5l-230 -225l123 -211
q8 -14 -3 -28t-27 -14h-62q-13 0 -23 3.5t-17 15.5z" />
    <glyph glyph-name="y" unicode="y" horiz-adv-x="587" 
d="M168 39l-98 447q-3 14 7.5 24t23.5 10h71q23 0 28 -24l66 -305l197 305q5 8 15.5 16t22.5 8h83q14 1 20 -11t-2 -25l-421 -653q-5 -8 -14.5 -14.5t-21.5 -6.5h-84q-14 0 -20 11.5t1 22.5z" />
    <glyph glyph-name="yacute" unicode="&#xfd;" horiz-adv-x="587" 
d="M168 39l-98 447q-3 14 7.5 24t23.5 10h71q23 0 28 -24l66 -305l197 305q5 8 15.5 16t22.5 8h83q14 1 20 -11t-2 -25l-421 -653q-5 -8 -14.5 -14.5t-21.5 -6.5h-84q-14 0 -20 11.5t1 22.5zM408 726q14 13 22 16t19 3h95q14 0 15.5 -12.5t-8.5 -19.5l-144 -101
q-10 -7 -20 -12t-26 -5h-55q-13 0 -13.5 10.5t8.5 18.5z" />
    <glyph glyph-name="ycircumflex" unicode="&#x177;" horiz-adv-x="587" 
d="M168 39l-98 447q-3 14 7.5 24t23.5 10h71q23 0 28 -24l66 -305l197 305q5 8 15.5 16t22.5 8h83q14 1 20 -11t-2 -25l-421 -653q-5 -8 -14.5 -14.5t-21.5 -6.5h-84q-14 0 -20 11.5t1 22.5zM399 745q11 0 18 -4t15 -15l70 -102q7 -10 0.5 -19.5t-17.5 -9.5h-36
q-10 0 -15.5 2.5t-13.5 8.5l-62 47l-86 -47q-10 -6 -16.5 -8.5t-16.5 -2.5h-50q-11 0 -13 10t8 19l114 102q12 11 21 15t20 4h60z" />
    <glyph glyph-name="ydieresis" unicode="&#xff;" horiz-adv-x="587" 
d="M168 39l-98 447q-3 14 7.5 24t23.5 10h71q23 0 28 -24l66 -305l197 305q5 8 15.5 16t22.5 8h83q14 1 20 -11t-2 -25l-421 -653q-5 -8 -14.5 -14.5t-21.5 -6.5h-84q-14 0 -20 11.5t1 22.5zM308 737q11 0 17 -8t4 -19l-18 -88q-2 -11 -12 -19t-21 -8h-83q-11 0 -17 8t-4 19
l18 88q2 11 12 19t21 8h83zM515 737q11 0 17 -8t4 -19l-18 -88q-2 -11 -12 -19t-21 -8h-83q-11 0 -17 8t-4 19l18 88q2 11 12 19t21 8h83z" />
    <glyph glyph-name="ygrave" unicode="&#x1ef3;" horiz-adv-x="587" 
d="M168 39l-98 447q-3 14 7.5 24t23.5 10h71q23 0 28 -24l66 -305l197 305q5 8 15.5 16t22.5 8h83q14 1 20 -11t-2 -25l-421 -653q-5 -8 -14.5 -14.5t-21.5 -6.5h-84q-14 0 -20 11.5t1 22.5zM396 624q6 -10 0 -19.5t-17 -9.5h-55q-16 0 -23.5 5t-14.5 12l-99 98
q-10 10 -3.5 22.5t21.5 12.5h95q11 0 18 -2.5t15 -16.5z" />
    <glyph glyph-name="z" unicode="z" horiz-adv-x="539" 
d="M438 120q11 0 17 -8t4 -19l-14 -66q-2 -11 -11.5 -19t-20.5 -8h-406q-11 0 -17.5 8t-4.5 19l15 68q3 12 8 19.5t13 14.5l299 271h-218q-11 0 -17.5 8t-4.5 19l14 66q2 11 12 19t21 8h376q11 0 17 -8t4 -19l-14 -68q-2 -9 -7.5 -18.5t-13.5 -15.5l-299 -271h248z" />
    <glyph glyph-name="zacute" unicode="&#x17a;" horiz-adv-x="539" 
d="M438 120q11 0 17 -8t4 -19l-14 -66q-2 -11 -11.5 -19t-20.5 -8h-406q-11 0 -17.5 8t-4.5 19l15 68q3 12 8 19.5t13 14.5l299 271h-218q-11 0 -17.5 8t-4.5 19l14 66q2 11 12 19t21 8h376q11 0 17 -8t4 -19l-14 -68q-2 -9 -7.5 -18.5t-13.5 -15.5l-299 -271h248zM400 726
q14 13 22 16t19 3h95q14 0 15.5 -12.5t-8.5 -19.5l-144 -101q-10 -7 -20 -12t-26 -5h-55q-13 0 -13.5 10.5t8.5 18.5z" />
    <glyph glyph-name="zcaron" unicode="&#x17e;" horiz-adv-x="539" 
d="M438 120q11 0 17 -8t4 -19l-14 -66q-2 -11 -11.5 -19t-20.5 -8h-406q-11 0 -17.5 8t-4.5 19l15 68q3 12 8 19.5t13 14.5l299 271h-218q-11 0 -17.5 8t-4.5 19l14 66q2 11 12 19t21 8h376q11 0 17 -8t4 -19l-14 -68q-2 -9 -7.5 -18.5t-13.5 -15.5l-299 -271h248zM303 595
q-11 0 -18 4t-15 15l-70 102q-7 10 -1 19.5t18 9.5h35q10 0 15.5 -2.5t13.5 -8.5l65 -47l83 47q10 6 16.5 8.5t16.5 2.5h48q14 0 15.5 -10t-9.5 -21l-112 -100q-12 -11 -21 -15t-20 -4h-60z" />
    <glyph glyph-name="zdotaccent" unicode="&#x17c;" horiz-adv-x="539" 
d="M438 120q11 0 17 -8t4 -19l-14 -66q-2 -11 -11.5 -19t-20.5 -8h-406q-11 0 -17.5 8t-4.5 19l15 68q3 12 8 19.5t13 14.5l299 271h-218q-11 0 -17.5 8t-4.5 19l14 66q2 11 12 19t21 8h376q11 0 17 -8t4 -19l-14 -68q-2 -9 -7.5 -18.5t-13.5 -15.5l-299 -271h248zM411 742
q11 0 17 -8t4 -19l-19 -93q-2 -11 -12 -19t-21 -8h-88q-11 0 -17 8t-4 19l19 93q3 11 12.5 19t20.5 8h88z" />
    <glyph glyph-name="Eth" unicode="&#xd0;" horiz-adv-x="725" 
d="M459 700q74 0 124.5 -19.5t79.5 -55.5t38 -87t-1 -114q-6 -38 -13.5 -74t-18.5 -74q-17 -63 -47.5 -114t-74 -87t-101 -55.5t-129.5 -19.5h-252q-11 0 -17.5 8t-4.5 19l57 269h-53q-11 0 -17 8t-4 19l14 63q2 11 11.5 19t20.5 8h53l56 260q2 11 11.5 19t20.5 8h247z
M565 424q5 32 0.5 59.5t-21 48t-45 32t-71.5 11.5h-134l-35 -162h107q11 0 17.5 -8t4.5 -19l-14 -63q-2 -11 -12 -19t-21 -8h-107l-36 -171h139q41 0 73.5 11.5t57 31.5t40.5 48t25 60q11 38 18.5 74t13.5 74z" />
    <glyph glyph-name="eth" unicode="&#xf0;" horiz-adv-x="593" 
d="M531 235q-27 -129 -101 -187t-193 -58q-45 0 -88 15.5t-74 46t-45.5 76.5t-1.5 107q26 122 98.5 178.5t192.5 56.5q20 0 43.5 -2t40.5 -7q-9 33 -24 64l-100 -36q-8 -3 -11 -3q-9 0 -14 6t-3 15l10 48q5 25 29 33l36 13q-13 14 -26.5 28.5t-28.5 28.5q-8 8 -10.5 13
t-1.5 9q5 20 24 20h106q12 0 19.5 -3.5t14.5 -9.5q9 -10 17.5 -19.5t16.5 -19.5l100 36q7 3 12 3q9 0 13.5 -6t2.5 -15l-10 -48q-5 -25 -29 -33l-38 -14q16 -31 26 -65.5t13.5 -75t-0.5 -89t-16 -106.5zM157 230q-5 -25 -2 -47t15 -38t32.5 -25.5t50.5 -9.5q60 0 97.5 34.5
t48.5 85.5q6 25 3 47t-15 38t-32.5 25.5t-50.5 9.5t-54.5 -9.5t-43 -25.5t-31 -38t-18.5 -47z" />
    <glyph glyph-name="Thorn" unicode="&#xde;" horiz-adv-x="663" 
d="M273 576h150q56 0 101.5 -14.5t75.5 -43t41.5 -70t-0.5 -96.5t-33.5 -97t-57 -70.5t-85.5 -43.5t-117 -15h-170l-21 -99q-2 -11 -11.5 -19t-20.5 -8h-81q-11 0 -17.5 8t-4.5 19l137 646q2 11 11.5 19t20.5 8h81q11 0 17.5 -8t4.5 -19zM204 251h155q57 0 96 22t51 79
q12 56 -17.5 77.5t-86.5 21.5h-155z" />
    <glyph glyph-name="Eng" unicode="&#x14a;" horiz-adv-x="710" 
d="M440 37l-193 414l-91 -424q-2 -11 -11.5 -19t-20.5 -8h-81q-11 0 -17.5 8t-4.5 19l138 646q2 11 11.5 19t20.5 8h58q17 0 24.5 -9t9.5 -14l202 -429l90 425q2 11 11.5 19t20.5 8h81q11 0 17.5 -8t4.5 -19l-148 -700q-11 -50 -28 -87.5t-43.5 -62t-63 -36.5t-87.5 -12h-48
q-11 0 -17.5 8t-4.5 19l16 71q2 11 11.5 19t20.5 8h15q45 0 65.5 18.5t27.5 49.5z" />
    <glyph glyph-name="eng" unicode="&#x14b;" horiz-adv-x="620" 
d="M267 -105q45 0 63.5 17t25.5 48l68 321q13 60 -7.5 96t-78.5 36q-53 0 -91 -36t-51 -96l-54 -254q-2 -11 -11.5 -19t-20.5 -8h-76q-11 0 -17.5 8t-4.5 19l99 466q2 11 12 19t21 8h76q11 0 17 -8t4 -19l-5 -23q26 28 62.5 44t84.5 16q53 0 91 -19t59.5 -51t27.5 -74.5
t-4 -89.5l-72 -341q-9 -45 -25 -78.5t-41.5 -56t-64 -34t-92.5 -11.5h-35q-11 0 -17.5 8t-4.5 19l14 66q3 11 12.5 19t20.5 8h15v0z" />
    <glyph glyph-name="germandbls" unicode="&#xdf;" horiz-adv-x="620" 
d="M216 93q2 11 12 19t21 8h34q51 0 90.5 22t50.5 71q10 47 -18 70.5t-83 23.5h-39q-21 0 -18 22l17 76q2 10 9 16t17 6h33q53 0 89 17.5t45 63.5q9 40 -18.5 61t-80.5 21q-23 0 -45 -6.5t-41 -22t-34.5 -42.5t-24.5 -68l-90 -424q-2 -11 -11.5 -19t-20.5 -8h-76
q-11 0 -17.5 8t-4.5 19l90 424q13 61 34.5 109.5t56 81.5t83 50.5t116.5 17.5q60 0 104 -18t71.5 -48t37.5 -68t1 -78q-11 -53 -35 -81t-55 -48q9 -9 18.5 -25.5t16 -38.5t8 -48t-4.5 -54q-8 -36 -24.5 -72t-49 -65.5t-84 -47.5t-128.5 -18h-44q-11 0 -17.5 8t-4.5 19l14 66
v0z" />
    <glyph glyph-name="longs" unicode="&#x17f;" horiz-adv-x="314" 
d="M188 27q-2 -11 -11.5 -19t-20.5 -8h-76q-11 0 -17.5 8t-4.5 19l80 373h-66q-11 0 -17.5 8t-4.5 19l14 66q2 11 12 19t21 8h66l10 45q20 97 77 136t158 39h81q11 0 17 -8t4 -19l-14 -66q-2 -11 -12 -19t-21 -8h-71q-30 0 -57 -14t-35 -51z" />
    <glyph glyph-name="zero" unicode="0" horiz-adv-x="652" 
d="M625 439q-3 -19 -7.5 -42t-10 -47t-10.5 -47t-10 -42q-15 -58 -36 -107.5t-56.5 -86t-89.5 -57t-135 -20.5q-66 0 -112.5 20.5t-74 57t-36 86t1.5 107.5q7 38 17 86.5t20 86.5q15 58 37.5 108.5t59 87.5t90 58.5t130.5 21.5q66 0 112.5 -20.5t74 -57t36.5 -86t-1 -107.5z
M185 266q-11 -72 10.5 -111.5t91.5 -39.5t108 39.5t58 111.5q11 38 20.5 84t15.5 84q11 72 -10.5 111.5t-91.5 39.5t-108 -39.5t-58 -111.5q-11 -38 -20.5 -84t-15.5 -84z" />
    <glyph glyph-name="one" unicode="1" horiz-adv-x="453" 
d="M58 474q-5 9 -1.5 20t14.5 18l254 171q9 6 18.5 11.5t19.5 5.5h78q11 0 17.5 -8t4.5 -19l-138 -646q-2 -11 -11.5 -19t-20.5 -8h-81q-11 0 -17.5 8t-4.5 19l101 474l-154 -104q-11 -7 -21.5 -5.5t-15.5 10.5z" />
    <glyph glyph-name="two" unicode="2" horiz-adv-x="612" 
d="M391 396q35 24 48.5 47t18.5 44q3 16 2 33.5t-10 32t-27.5 23.5t-51.5 9q-31 0 -53 -8.5t-38 -22.5t-27 -31t-20 -34q-6 -13 -16 -19.5t-19 -6.5h-79q-11 0 -18 7.5t-3 19.5q12 45 35 85t58 70t83.5 47.5t111.5 17.5q59 0 102 -21.5t69 -55t35.5 -74t0.5 -79.5
q-14 -65 -41 -104.5t-70 -72.5l-246 -178h268q11 0 17.5 -8t3.5 -19l-15 -71q-2 -11 -11.5 -19t-20.5 -8h-467q-11 0 -17.5 8t-4.5 19l13 61q4 17 16.5 33t20.5 21z" />
    <glyph glyph-name="three" unicode="3" horiz-adv-x="634" 
d="M616 700q11 0 17.5 -8t4.5 -19l-16 -71q-2 -11 -11.5 -20.5t-17.5 -16.5l-179 -154q88 -18 130 -69t24 -138q-22 -104 -98.5 -159t-208.5 -55q-66 0 -115.5 16.5t-81 42.5t-45.5 59t-10 65q2 12 12 19.5t21 7.5h79q10 0 15 -6.5t10 -18.5q4 -12 11.5 -22.5t22 -19
t38.5 -13.5t60 -5q61 0 103.5 24.5t52.5 69.5q9 45 -24 64.5t-94 19.5h-83q-11 0 -17.5 8t-3.5 19l15 71q2 11 11.5 20.5t17.5 16.5l172 147h-276q-11 0 -17.5 8t-4.5 19l16 71q2 11 11.5 19t20.5 8h438z" />
    <glyph glyph-name="four" unicode="4" horiz-adv-x="640" 
d="M326 0q-11 0 -17.5 8t-4.5 19l26 121h-305q-11 0 -17 8t-4 19l15 71q3 14 11.5 24.5t20.5 22.5l387 382q25 25 46 25h71q11 0 17.5 -8t4.5 -19l-85 -400h86q11 0 17 -8t4 -19l-15 -71q-2 -11 -12 -19t-21 -8h-86l-26 -121q-2 -11 -11.5 -19t-20.5 -8h-81zM357 273l42 195
l-198 -195h156z" />
    <glyph glyph-name="five" unicode="5" horiz-adv-x="610" 
d="M178 673q3 11 12 19t20 8h376q11 0 17.5 -8t4.5 -19l-16 -71q-2 -11 -11.5 -19t-20.5 -8h-281l-38 -128q29 11 51 13t39 2q52 0 96.5 -15t75.5 -44.5t45 -72.5t6 -99q-9 -65 -36 -110.5t-67 -74.5t-91.5 -42.5t-109.5 -13.5q-65 0 -110.5 16t-74 43.5t-41 63t-10.5 74.5
q1 12 11.5 19.5t21.5 7.5h81q10 0 16.5 -6.5t7.5 -17.5q1 -23 11 -37.5t25.5 -23t35.5 -11.5t43 -3q57 0 99 31t53 85q9 45 -19.5 75t-85.5 31q-30 0 -48.5 -4.5t-30.5 -10.5t-22 -10.5t-24 -4.5h-92q-11 0 -17.5 8t-4.5 19z" />
    <glyph glyph-name="six" unicode="6" horiz-adv-x="618" 
d="M31 242q6 29 17 52.5t24.5 43.5t29 38t32.5 36l247 268q5 6 13 13t22 7h90q11 0 17.5 -8t4.5 -19q-2 -5 -4 -8t-4 -5l-162 -178q55 -1 100 -19.5t74.5 -51.5t41 -79t-0.5 -100q-12 -55 -38.5 -99.5t-66.5 -76t-92.5 -49t-116.5 -17.5q-56 0 -103 19t-78.5 52.5t-45 79.5
t-1.5 101zM438 237q10 51 -20 85.5t-91 34.5q-30 0 -57 -9t-48.5 -25.5t-36 -38.5t-19.5 -47q-11 -51 19 -86.5t91 -35.5q30 0 57 9.5t48.5 26t36 38.5t20.5 48z" />
    <glyph glyph-name="seven" unicode="7" horiz-adv-x="547" 
d="M577 700q11 0 17.5 -8t4.5 -19l-14 -66q-2 -10 -9 -20.5t-18 -27.5l-345 -535q-6 -9 -14 -16.5t-20 -7.5h-97q-17 0 -20.5 13t4.5 26l347 536h-300q-11 0 -17.5 8t-4.5 19l16 71q2 11 11.5 19t20.5 8h438z" />
    <glyph glyph-name="eight" unicode="8" horiz-adv-x="648" 
d="M30 213q11 52 41 92.5t77 68.5q-48 53 -30 136q20 93 93.5 146.5t189.5 53.5q50 0 94 -15.5t74.5 -43.5t44.5 -66.5t4 -84.5q-9 -42 -32 -76t-56 -60q34 -28 47.5 -68.5t2.5 -92.5q-21 -98 -99.5 -155.5t-212.5 -57.5q-59 0 -107.5 16.5t-81 46t-46.5 70.5t-3 90z
M164 208q-5 -23 3 -40.5t25 -29t41.5 -17.5t51.5 -6t54 6t49 17.5t37.5 29t20.5 40.5t-3.5 40t-25.5 28.5t-41.5 17.5t-51.5 6t-54 -6t-48.5 -17.5t-37 -28.5t-20.5 -40zM252 505q-5 -20 1.5 -35t21 -25t34 -15t42.5 -5q22 0 44 5t40.5 15t31 25t17.5 35q4 20 -2.5 35
t-20.5 25t-34 15t-42 5q-23 0 -45 -5t-40 -15t-31 -25t-17 -35z" />
    <glyph glyph-name="nine" unicode="9" horiz-adv-x="602" 
d="M120 0q-15 0 -20 13.5t6 26.5l172 189q-45 6 -88 24.5t-74.5 49.5t-46 74t-2.5 97q12 55 38.5 98.5t66.5 74t91 47t111 16.5q52 0 98.5 -18t78.5 -50.5t46 -77.5t2 -100q-6 -29 -17.5 -53.5t-26.5 -45.5t-32 -40t-33 -37l-245 -268q-5 -6 -13 -13t-22 -7h-90zM202 469
q-6 -28 0 -49.5t21 -36t37 -22t49 -7.5t52 7.5t46 22.5t36 36.5t21 48.5t0 48.5t-20.5 36.5t-36.5 23t-49 8t-52.5 -8t-46.5 -23t-36 -36.5t-21 -48.5z" />
    <glyph glyph-name="comma" unicode="," horiz-adv-x="267" 
d="M28 113q5 14 17 26.5t34 12.5h87q13 0 17 -9.5t-2 -19.5l-106 -173q-6 -10 -15.5 -17.5t-29.5 -7.5h-45q-10 0 -15.5 7t-1.5 17z" />
    <glyph glyph-name="period" unicode="." horiz-adv-x="259" 
d="M148 152q11 0 17 -8t4 -19l-21 -98q-2 -11 -11.5 -19t-20.5 -8h-93q-11 0 -17.5 8t-4.5 19l21 98q2 11 12 19t21 8h93z" />
    <glyph glyph-name="currency" unicode="&#xa4;" horiz-adv-x="601" 
d="M72 305q13 67 55 121l-31 40q-7 8 -4.5 19t12.5 19l42 36q10 8 21 8t18 -8l30 -40q28 14 59 22t66 8q29 0 57 -9t52 -25l54 45q10 8 21 8t18 -8l39 -52q6 -8 4 -19t-13 -19l-52 -43q22 -53 10 -114q-15 -70 -54 -122l30 -39q6 -8 4 -19t-12 -19l-42 -36q-10 -8 -21 -8
t-17 8l-31 39q-56 -28 -125 -28q-61 0 -109 34l-53 -44q-9 -8 -20 -8t-18 8l-39 52q-6 8 -4 19t12 19l50 42q-11 26 -13.5 54t4.5 59zM188 300q-5 -23 -0.5 -43.5t16.5 -36t31 -24.5t42 -9t45.5 9t41.5 24.5t32 36t18 43.5t0.5 43.5t-16.5 36t-31 24.5t-42 9t-45.5 -9
t-41.5 -24.5t-32 -36t-18 -43.5z" />
    <glyph glyph-name="cent" unicode="&#xa2;" horiz-adv-x="582" 
d="M178 295q-5 -15 -9 -35t-6 -35q-3 -31 3.5 -53t20 -35.5t32 -20t39.5 -6.5q49 0 74 15.5t45 38.5q8 9 18 18t21 9h77q11 0 18 -8t3 -19q-5 -19 -19 -45.5t-39.5 -51.5t-64.5 -45.5t-95 -27.5l-14 -67q-2 -11 -12 -19t-21 -8h-76q-11 0 -17 8t-4 19l15 74q-35 12 -62 33.5
t-45 50.5t-25.5 63t-2.5 71q2 18 7 40t10 41q11 40 30.5 77t47.5 67t65.5 51.5t85.5 29.5l13 58q3 11 12.5 19t20.5 8h76q11 0 17.5 -8t3.5 -19l-13 -62q41 -11 70 -31t47 -44t25 -48t4 -42q-2 -11 -12 -19t-21 -8h-73q-11 0 -16.5 9t-10.5 18q-5 12 -12 21.5t-18 17
t-27.5 11.5t-41.5 4q-21 0 -42 -6.5t-40.5 -20t-35.5 -35.5t-26 -53z" />
    <glyph glyph-name="dollar" unicode="$" horiz-adv-x="646" 
d="M195 -100q-11 0 -17 8t-4 19l13 73q-40 9 -75 26t-59.5 40.5t-37 53t-7.5 64.5q2 12 11.5 19.5t20.5 7.5h70q17 0 25 -6t11 -18q4 -13 11.5 -26t22.5 -23t39 -16.5t62 -6.5q30 0 59 4.5t52.5 15t39.5 26t21 38.5q5 22 -6.5 36t-37.5 24t-66 19t-93 23q-95 25 -133.5 74
t-18.5 139q17 81 77 131.5t165 61.5l14 66q2 11 12 19t21 8h81q11 0 17 -8t4 -19l-15 -72q43 -11 75.5 -30.5t53 -44t29.5 -50.5t5 -50q-2 -12 -11.5 -19.5t-20.5 -7.5h-70q-17 0 -24.5 6.5t-11.5 17.5q-10 25 -36.5 43.5t-86.5 18.5q-53 0 -95 -21.5t-50 -59.5
q-5 -23 1.5 -37.5t26.5 -25t55 -19.5t88 -21q115 -26 158 -77.5t26 -134.5q-9 -41 -28 -75.5t-51 -60t-78 -41.5t-109 -20l-11 -65q-2 -11 -12 -19t-21 -8h-81v0z" />
    <glyph glyph-name="Euro" unicode="&#x20ac;" horiz-adv-x="760" 
d="M262 327h182q22 0 17 -22l-7 -36q-5 -22 -27 -22h-181q-4 -23 0 -47t19 -43t42 -31t69 -12q43 0 73 9t51 23.5t34.5 33t24.5 36.5q5 8 13.5 14.5t20.5 6.5h81q11 0 18 -7.5t3 -19.5q-10 -37 -33.5 -76t-63.5 -71.5t-99 -53t-140 -20.5q-61 0 -111 21t-83.5 56t-48 82
t-5.5 99h-65q-22 0 -17 22l7 36q5 22 27 22h64l6 30h-64q-22 0 -17 22l8 36q2 10 9 16t17 6h65q15 60 41.5 110t67.5 86t98.5 56.5t133.5 20.5q70 0 122 -21t85 -53t47 -71t8 -76q-2 -12 -11.5 -19.5t-20.5 -7.5h-81q-12 0 -17.5 6.5t-7.5 14.5q-3 18 -9 36.5t-21 33
t-41 23.5t-69 9q-42 0 -74 -11.5t-55.5 -31.5t-38 -47t-22.5 -58h181q21 0 18 -22l-8 -36q-5 -22 -27 -22h-182z" />
    <glyph glyph-name="sterling" unicode="&#xa3;" horiz-adv-x="716" 
d="M148 395q11 69 34.5 127t62.5 99.5t94 65t128 23.5q63 0 109 -22t75 -56t40.5 -76t4.5 -82q-2 -9 -9.5 -15.5t-16.5 -6.5h-91q-8 0 -13 6.5t-5 15.5q1 20 -3 40t-16 35.5t-34 25.5t-57 10q-32 0 -60 -12.5t-50.5 -36.5t-37.5 -59.5t-20 -81.5h189q10 0 15 -6t3 -16
l-12 -56q-5 -22 -27 -22h-175q-2 -47 -9 -93q36 -7 58 -21.5t38.5 -29.5t31.5 -26t35 -11q28 0 47.5 16t36.5 43q6 10 14.5 16t16.5 6h88q9 0 14 -6.5t3 -15.5q-7 -33 -24 -65.5t-45 -59t-67.5 -43t-90.5 -16.5t-82 14.5t-52.5 31.5t-39.5 31.5t-43 14.5q-28 0 -48 -16
t-37 -43q-6 -10 -14 -16t-16 -6h-88q-9 0 -14.5 6.5t-3.5 15.5q5 24 17 49.5t30 48.5t42.5 40.5t54.5 26.5q5 28 7.5 54.5t4.5 53.5h-71q-22 0 -17 22l12 56q5 22 26 22h57v0z" />
    <glyph glyph-name="yen" unicode="&#xa5;" horiz-adv-x="674" 
d="M238 313l-128 348q-5 16 6 27.5t25 11.5h64q20 0 27.5 -10t9.5 -15l102 -279l223 279q8 10 17.5 17.5t29.5 7.5h86q14 0 20.5 -12.5t-2.5 -23.5l-281 -351h121q22 0 17 -22l-7 -36q-5 -22 -27 -22h-153l-7 -30h154q22 0 17 -22l-8 -36q-2 -10 -9 -16t-17 -6h-154l-20 -96
q-2 -11 -11.5 -19t-20.5 -8h-79q-11 0 -17.5 8t-4.5 19l20 96h-153q-21 0 -18 22l8 36q5 22 27 22h154l6 30h-154q-22 0 -17 22l7 36q5 22 27 22h120z" />
    <glyph glyph-name="florin" unicode="&#x192;" horiz-adv-x="451" 
d="M147 400h-66q-11 0 -17.5 8t-4.5 19l14 66q2 11 12 19t21 8h66l10 45q20 97 77 136t158 39h81q11 0 17 -8t4 -19l-14 -66q-2 -11 -12 -19t-21 -8h-71q-30 0 -57 -14t-35 -51l-7 -35h139q11 0 17 -8t4 -19l-14 -66q-2 -11 -11.5 -19t-20.5 -8h-139l-95 -445
q-9 -45 -26.5 -78.5t-45 -56t-67.5 -34t-94 -11.5h-24q-11 0 -17.5 8t-4.5 19l14 66q3 11 12 19t20 8h15q38 0 60 17t29 48z" />
    <glyph glyph-name="numbersign" unicode="#" horiz-adv-x="684" 
d="M462 162l-37 -102q-3 -9 -11 -15t-18 -6h-79q-9 0 -15 7t-2 17l36 99h-101l-37 -102q-3 -9 -11 -15t-18 -6h-79q-9 0 -15 7t-2 17l36 99h-67q-11 0 -17 8t-4 19l13 63q2 11 12 19t21 8h84l50 137h-79q-12 0 -17.5 7.5t-3.5 19.5l13 63q2 11 12 19t21 8h96l37 101
q3 8 11 14.5t18 6.5h80q9 0 14.5 -7t1.5 -18l-35 -97h100l37 101q3 8 11 14.5t18 6.5h80q9 0 14.5 -7t1.5 -18l-35 -97h67q11 0 17 -8t4 -19l-13 -63q-2 -11 -12 -19t-21 -8h-85l-49 -137h79q11 0 17 -8t4 -19l-13 -63q-2 -11 -12 -19t-21 -8h-97zM278 279h100l50 137h-101z
" />
    <glyph glyph-name="zerosuperior" unicode="&#x2070;" horiz-adv-x="370" 
d="M263 705q33 0 58.5 -11.5t43 -30t25 -42t4.5 -46.5q-3 -26 -9 -55.5t-14 -55.5q-7 -23 -18.5 -44.5t-30.5 -38t-47.5 -26.5t-68.5 -10q-33 0 -59 11.5t-43 30t-24.5 41.5t-4.5 46q3 26 9 55.5t14 55.5q7 23 18.5 45t30.5 38.5t47 26.5t69 10zM278 479q2 6 5 19t6 27
t5.5 27t2.5 19q2 20 -5.5 34t-36.5 14t-43 -14t-21 -34q-2 -6 -5 -19t-6 -27t-5.5 -27t-2.5 -19q-2 -20 6 -34t37 -14t42.5 14t20.5 34z" />
    <glyph glyph-name="onesuperior" unicode="&#xb9;" horiz-adv-x="262" 
d="M236 372q-5 -22 -27 -22h-52q-22 0 -17 22l40 188l-50 -32q-8 -5 -16.5 -4t-13.5 9l-25 42q-5 8 -1.5 16.5t12.5 14.5l135 87q11 7 25 7h38q22 0 17 -22z" />
    <glyph glyph-name="twosuperior" unicode="&#xb2;" horiz-adv-x="350" 
d="M49 402q2 8 7.5 18t22.5 21q50 33 85 53.5t57.5 35.5t33.5 26t14 25q4 14 -1.5 26t-26.5 12q-20 0 -30 -9t-16 -17q-8 -11 -14 -12.5t-14 -1.5h-52q-19 0 -14 19t17 38.5t31 34.5t44 24.5t56 9.5q32 0 56.5 -10t39.5 -26.5t20.5 -38.5t0.5 -47q-5 -24 -12 -41t-22 -32.5
t-40 -32.5t-66 -41h102q22 0 17 -22l-9 -42q-5 -22 -27 -22h-249q-21 0 -16 22z" />
    <glyph glyph-name="threesuperior" unicode="&#xb3;" horiz-adv-x="351" 
d="M375 637q-2 -11 -5.5 -17t-17.5 -16l-65 -44q44 -11 59.5 -41t8.5 -65q-9 -45 -52 -77t-113 -32q-37 0 -64 10t-44 24.5t-25 30.5t-6 28q2 10 9 15t12 5h58q7 0 10 -3.5t8 -8.5q8 -9 18 -12t31 -3q20 0 34 8t17 22q3 16 -5.5 22t-31.5 6h-46q-22 0 -17 22l4 23
q2 11 16 23l79 57h-115q-22 0 -17 22l9 42q5 22 27 22h216q22 0 17 -22z" />
    <glyph glyph-name="foursuperior" unicode="&#x2074;" horiz-adv-x="372" 
d="M248 682q10 11 18.5 14.5t15.5 3.5h75q22 0 17 -22l-39 -185h35q22 0 17 -22l-9 -42q-5 -22 -27 -22h-35l-7 -35q-5 -22 -27 -22h-52q-22 0 -17 22l7 35h-155q-20 0 -17 22l9 43q1 2 4 10t15 20zM170 493h69l20 94z" />
    <glyph glyph-name="fivesuperior" unicode="&#x2075;" horiz-adv-x="344" 
d="M368 636q-5 -22 -27 -22h-131l-13 -42q13 5 22.5 8t28.5 3q23 0 44 -9t36 -24.5t22 -37.5t2 -48q-5 -23 -17 -44.5t-31.5 -38t-47.5 -26.5t-64 -10q-32 0 -58 9.5t-44 24t-27 31.5t-6 33q2 10 9 14.5t12 4.5h58q9 0 12.5 -5t8 -10.5t14 -10.5t30.5 -5q22 0 37.5 11.5
t19.5 29.5q4 17 -7.5 27.5t-33.5 10.5q-12 0 -20 -3t-13.5 -6t-10 -6t-9.5 -3h-57q-11 0 -15.5 7.5t-1.5 18.5l51 155q3 11 11.5 18.5t19.5 8.5h188q22 0 17 -22z" />
    <glyph glyph-name="sixsuperior" unicode="&#x2076;" horiz-adv-x="352" 
d="M65 473q4 20 13.5 37t20.5 30.5t21.5 23.5t17.5 17l107 104q6 6 15 10.5t17 4.5h57q8 0 12.5 -6t2.5 -14q-3 -8 -16 -20l-74 -71q22 -2 44.5 -10.5t39 -24t24 -38.5t0.5 -53q-12 -59 -58 -88.5t-109 -29.5q-32 0 -59 8.5t-46 25t-27.5 40.5t-2.5 54zM159 467
q-3 -16 9.5 -29t38.5 -13t44.5 13t21.5 29q5 19 -8 31.5t-39 12.5t-44 -12.5t-23 -31.5z" />
    <glyph glyph-name="sevensuperior" unicode="&#x2077;" horiz-adv-x="307" 
d="M358 638q-2 -8 -3.5 -12.5t-4.5 -9.5l-156 -242q-6 -9 -13 -16.5t-18 -7.5h-58q-14 0 -16 10t5 21l149 233h-135q-22 0 -17 22l9 42q5 22 27 22h222q22 0 17 -22z" />
    <glyph glyph-name="eightsuperior" unicode="&#x2078;" horiz-adv-x="356" 
d="M359 451q-4 -20 -14.5 -39t-29.5 -34t-47.5 -24t-69.5 -9t-68.5 9t-44 24t-21.5 34t-1 39q5 26 22 49t41 34q-28 21 -19 69q4 18 13.5 36t26.5 32.5t43.5 24t64.5 9.5t63.5 -9.5t40 -24t19.5 -32.5t1 -36q-5 -23 -18 -41t-31 -28q21 -11 27.5 -34t1.5 -49zM265 455
q4 20 -11 27.5t-35 7.5t-38.5 -7.5t-21.5 -27.5q-3 -19 12 -27t33 -8t37.5 7.5t23.5 27.5zM198 599q-3 -16 7.5 -24t29.5 -8t33.5 8t17.5 24q4 15 -7 23t-30 8t-33 -8t-18 -23z" />
    <glyph glyph-name="ninesuperior" unicode="&#x2079;" horiz-adv-x="352" 
d="M384 578q-5 -20 -14 -37t-20 -30.5t-21.5 -23.5t-17.5 -17l-106 -104q-7 -6 -16 -10.5t-17 -4.5h-57q-8 0 -12 6t-2 14q1 8 15 20l74 71q-21 3 -43.5 12t-39 24t-24.5 37.5t-1 52.5q12 59 58 88.5t109 29.5q31 0 58.5 -9t46.5 -25.5t27.5 -40t2.5 -53.5zM290 584
q3 16 -9.5 29t-38.5 13t-44.5 -13t-21.5 -29q-4 -19 9 -31.5t39 -12.5t44 12.5t22 31.5z" />
    <glyph glyph-name="parenleftsuperior" unicode="&#x207d;" horiz-adv-x="246" 
d="M211 386q10 -3 17.5 -6.5t5.5 -14.5l-11 -48q-4 -22 -28 -22t-50.5 11t-45.5 39t-25.5 74t8.5 117q15 70 37 115t49 70t59 34.5t68 9.5q23 0 19 -22l-10 -48q-2 -11 -11.5 -14.5t-20.5 -6.5q-40 -10 -61.5 -48t-33.5 -95t-6.5 -96t40.5 -49z" />
    <glyph glyph-name="parenrightsuperior" unicode="&#x207e;" horiz-adv-x="246" 
d="M72 386q40 10 62 49t34 96t6 95t-41 48q-10 3 -17 6.5t-5 14.5l10 48q4 22 29 22q21 0 46.5 -11t45.5 -38t28 -73.5t-7 -116.5q-15 -71 -34 -115.5t-44.5 -70.5t-58.5 -35.5t-76 -9.5q-23 0 -19 22l11 48q2 11 10.5 14.5t19.5 6.5z" />
    <glyph glyph-name="zeroinferior" unicode="&#x2080;" horiz-adv-x="370" 
d="M153 185q33 0 58.5 -11.5t43 -30t25 -42t4.5 -46.5q-3 -26 -9 -55.5t-14 -55.5q-7 -23 -18.5 -44.5t-30.5 -38t-47.5 -26.5t-68.5 -10q-33 0 -59 11.5t-43 30t-24.5 41.5t-4.5 46q3 26 9 55.5t14 55.5q7 23 18.5 45t30.5 38.5t47 26.5t69 10zM168 -41q2 6 5 19t6 27
t5.5 27t2.5 19q2 20 -5.5 34t-36.5 14t-43 -14t-21 -34q-2 -6 -5 -19t-6 -27t-5.5 -27t-2.5 -19q-2 -20 6 -34t37 -14t42.5 14t20.5 34z" />
    <glyph glyph-name="oneinferior" unicode="&#x2081;" horiz-adv-x="262" 
d="M126 -148q-5 -22 -27 -22h-52q-22 0 -17 22l40 188l-50 -32q-8 -5 -16.5 -4t-13.5 9l-25 42q-5 8 -1.5 16.5t12.5 14.5l135 87q11 7 25 7h38q22 0 17 -22z" />
    <glyph glyph-name="twoinferior" unicode="&#x2082;" horiz-adv-x="350" 
d="M-61 -118q2 8 7.5 18t22.5 21q50 33 85 53.5t57.5 35.5t33.5 26t14 25q4 14 -1.5 26t-26.5 12q-20 0 -30 -9t-16 -17q-8 -11 -14 -12.5t-14 -1.5h-52q-19 0 -14 19t17 38.5t31 34.5t44 24.5t56 9.5q32 0 56.5 -10t39.5 -26.5t20.5 -38.5t0.5 -47q-5 -24 -12 -41
t-22 -32.5t-40 -32.5t-66 -41h102q22 0 17 -22l-9 -42q-5 -22 -27 -22h-249q-21 0 -16 22z" />
    <glyph glyph-name="threeinferior" unicode="&#x2083;" horiz-adv-x="351" 
d="M265 117q-2 -11 -5.5 -17t-17.5 -16l-65 -44q44 -11 59.5 -41t8.5 -65q-9 -45 -52 -77t-113 -32q-37 0 -64 10t-44 24.5t-25 30.5t-6 28q2 10 9 15t12 5h58q7 0 10 -3.5t8 -8.5q8 -9 18 -12t31 -3q20 0 34 8t17 22q3 16 -5.5 22t-31.5 6h-46q-22 0 -17 22l4 23
q2 11 16 23l79 57h-115q-22 0 -17 22l9 42q5 22 27 22h216q22 0 17 -22z" />
    <glyph glyph-name="fourinferior" unicode="&#x2084;" horiz-adv-x="372" 
d="M138 162q10 11 18.5 14.5t15.5 3.5h75q22 0 17 -22l-39 -185h35q22 0 17 -22l-9 -42q-5 -22 -27 -22h-35l-7 -35q-5 -22 -27 -22h-52q-22 0 -17 22l7 35h-155q-20 0 -17 22l9 43q1 2 4 10t15 20zM60 -27h69l20 94z" />
    <glyph glyph-name="fiveinferior" unicode="&#x2085;" horiz-adv-x="344" 
d="M257 116q-5 -22 -27 -22h-131l-13 -42q13 5 22.5 8t28.5 3q23 0 44 -9t36 -24.5t22 -37.5t2 -48q-5 -23 -17 -44.5t-31.5 -38t-47.5 -26.5t-64 -10q-32 0 -58 9.5t-44 24t-27 31.5t-6 33q2 10 9 14.5t12 4.5h58q9 0 12.5 -5t8 -10.5t14 -10.5t30.5 -5q22 0 37.5 11.5
t19.5 29.5q4 17 -7.5 27.5t-33.5 10.5q-12 0 -20 -3t-13.5 -6t-10 -6t-9.5 -3h-57q-11 0 -15.5 7.5t-1.5 18.5l51 155q3 11 11.5 18.5t19.5 8.5h188q22 0 17 -22z" />
    <glyph glyph-name="sixinferior" unicode="&#x2086;" horiz-adv-x="352" 
d="M-46 -47q4 20 13.5 37t20.5 30.5t21.5 23.5t17.5 17l107 104q6 6 15 10.5t17 4.5h57q8 0 12.5 -6t2.5 -14q-3 -8 -16 -20l-74 -71q22 -2 44.5 -10.5t39 -24t24 -38.5t0.5 -53q-12 -59 -58 -88.5t-109 -29.5q-32 0 -59 8.5t-46 25t-27.5 40.5t-2.5 54zM48 -53
q-3 -16 9.5 -29t38.5 -13t44.5 13t21.5 29q5 19 -8 31.5t-39 12.5t-44 -12.5t-23 -31.5z" />
    <glyph glyph-name="seveninferior" unicode="&#x2087;" horiz-adv-x="307" 
d="M248 118q-2 -8 -3.5 -12.5t-4.5 -9.5l-156 -242q-6 -9 -13 -16.5t-18 -7.5h-58q-14 0 -16 10t5 21l149 233h-135q-22 0 -17 22l9 42q5 22 27 22h222q22 0 17 -22z" />
    <glyph glyph-name="eightinferior" unicode="&#x2088;" horiz-adv-x="356" 
d="M248 -69q-4 -20 -14.5 -39t-29.5 -34t-47.5 -24t-69.5 -9t-68.5 9t-44 24t-21.5 34t-1 39q5 26 22 49t41 34q-28 21 -19 69q4 18 13.5 36t26.5 32.5t43.5 24t64.5 9.5t63.5 -9.5t40 -24t19.5 -32.5t1 -36q-5 -23 -18 -41t-31 -28q21 -11 27.5 -34t1.5 -49zM154 -65
q4 20 -11 27.5t-35 7.5t-38.5 -7.5t-21.5 -27.5q-3 -19 12 -27t33 -8t37.5 7.5t23.5 27.5zM87 79q-3 -16 7.5 -24t29.5 -8t33.5 8t17.5 24q4 15 -7 23t-30 8t-33 -8t-18 -23z" />
    <glyph glyph-name="nineinferior" unicode="&#x2089;" horiz-adv-x="352" 
d="M273 57q-5 -20 -14 -37t-20 -30.5t-21.5 -23.5t-17.5 -17l-106 -104q-7 -6 -16 -10.5t-17 -4.5h-57q-8 0 -12 6t-2 14q1 8 15 20l74 71q-21 3 -43.5 12t-39 24t-24.5 37.5t-1 52.5q12 59 58 88.5t109 29.5q31 0 58.5 -9t46.5 -25.5t27.5 -40t2.5 -53.5zM179 63
q3 16 -9.5 29t-38.5 13t-44.5 -13t-21.5 -29q-4 -19 9 -31.5t39 -12.5t44 12.5t22 31.5z" />
    <glyph glyph-name="parenleftinferior" unicode="&#x208d;" horiz-adv-x="246" 
d="M100 -134q10 -3 17.5 -6.5t5.5 -14.5l-11 -48q-4 -22 -28 -22t-50.5 11t-45.5 39t-25.5 74t8.5 117q15 70 37 115t49 70t59 34.5t68 9.5q23 0 19 -22l-10 -48q-2 -11 -11.5 -14.5t-20.5 -6.5q-40 -10 -61.5 -48t-33.5 -95t-6.5 -96t40.5 -49z" />
    <glyph glyph-name="parenrightinferior" unicode="&#x208e;" horiz-adv-x="246" 
d="M-37 -134q40 10 62 49t34 96t6 95t-41 48q-10 3 -17 6.5t-5 14.5l10 48q4 22 29 22q21 0 46.5 -11t45.5 -38t28 -73.5t-7 -116.5q-15 -71 -34 -115.5t-44.5 -70.5t-58.5 -35.5t-76 -9.5q-23 0 -19 22l11 48q2 11 10.5 14.5t19.5 6.5z" />
    <glyph glyph-name="onehalf" unicode="&#xbd;" horiz-adv-x="796" 
d="M666 681q9 9 17.5 14t22.5 5h61q15 0 20 -10t-6 -21l-632 -650q-9 -9 -17.5 -14t-22.5 -5h-61q-15 0 -20 10t6 21zM254 372q-5 -22 -27 -22h-52q-22 0 -17 22l40 188l-50 -32q-8 -5 -16.5 -4t-13.5 9l-25 42q-5 8 -1.5 16.5t12.5 14.5l135 87q11 7 25 7h38q22 0 17 -22z
M412 52q2 8 7.5 18t22.5 21q50 33 85 53.5t57.5 35.5t33.5 26t14 25q4 14 -1.5 26t-26.5 12q-20 0 -30 -9t-16 -17q-8 -11 -14 -12.5t-14 -1.5h-52q-19 0 -14 19t17 38.5t31 34.5t44 24.5t56 9.5q32 0 56.5 -10t39.5 -26.5t20.5 -38.5t0.5 -47q-5 -24 -12 -41t-22 -32.5
t-40 -32.5t-66 -41h102q22 0 17 -22l-9 -42q-5 -22 -27 -22h-249q-21 0 -16 22z" />
    <glyph glyph-name="onethird" unicode="&#x2153;" horiz-adv-x="823" 
d="M666 681q9 9 17.5 14t22.5 5h61q15 0 20 -10t-6 -21l-632 -650q-9 -9 -17.5 -14t-22.5 -5h-61q-15 0 -20 10t6 21zM254 372q-5 -22 -27 -22h-52q-22 0 -17 22l40 188l-50 -32q-8 -5 -16.5 -4t-13.5 9l-25 42q-5 8 -1.5 16.5t12.5 14.5l135 87q11 7 25 7h38q22 0 17 -22z
M763 287q-2 -11 -5.5 -17t-17.5 -16l-65 -44q44 -11 59.5 -41t8.5 -65q-9 -45 -52 -77t-113 -32q-37 0 -64 10t-44 24.5t-25 30.5t-6 28q2 10 9 15t12 5h58q7 0 10 -3.5t8 -8.5q8 -9 18 -12t31 -3q20 0 34 8t17 22q3 16 -5.5 22t-31.5 6h-46q-22 0 -17 22l4 23q2 11 16 23
l79 57h-115q-22 0 -17 22l9 42q5 22 27 22h216q22 0 17 -22z" />
    <glyph glyph-name="onequarter" unicode="&#xbc;" horiz-adv-x="790" 
d="M666 681q9 9 17.5 14t22.5 5h61q15 0 20 -10t-6 -21l-632 -650q-9 -9 -17.5 -14t-22.5 -5h-61q-15 0 -20 10t6 21zM254 372q-5 -22 -27 -22h-52q-22 0 -17 22l40 188l-50 -32q-8 -5 -16.5 -4t-13.5 9l-25 42q-5 8 -1.5 16.5t12.5 14.5l135 87q11 7 25 7h38q22 0 17 -22z
M578 332q10 11 18.5 14.5t15.5 3.5h75q22 0 17 -22l-39 -185h35q22 0 17 -22l-9 -42q-5 -22 -27 -22h-35l-7 -35q-5 -22 -27 -22h-52q-22 0 -17 22l7 35h-155q-20 0 -17 22l9 43q1 2 4 10t15 20zM500 143h69l20 94z" />
    <glyph glyph-name="oneeighth" unicode="&#x215b;" horiz-adv-x="834" 
d="M666 681q9 9 17.5 14t22.5 5h61q15 0 20 -10t-6 -21l-632 -650q-9 -9 -17.5 -14t-22.5 -5h-61q-15 0 -20 10t6 21zM254 372q-5 -22 -27 -22h-52q-22 0 -17 22l40 188l-50 -32q-8 -5 -16.5 -4t-13.5 9l-25 42q-5 8 -1.5 16.5t12.5 14.5l135 87q11 7 25 7h38q22 0 17 -22z
M756 101q-4 -20 -14.5 -39t-29.5 -34t-47.5 -24t-69.5 -9t-68.5 9t-44 24t-21.5 34t-1 39q5 26 22 49t41 34q-28 21 -19 69q4 18 13.5 36t26.5 32.5t43.5 24t64.5 9.5t63.5 -9.5t40 -24t19.5 -32.5t1 -36q-5 -23 -18 -41t-31 -28q21 -11 27.5 -34t1.5 -49zM662 105
q4 20 -11 27.5t-35 7.5t-38.5 -7.5t-21.5 -27.5q-3 -19 12 -27t33 -8t37.5 7.5t23.5 27.5zM595 249q-3 -16 7.5 -24t29.5 -8t33.5 8t17.5 24q4 15 -7 23t-30 8t-33 -8t-18 -23z" />
    <glyph glyph-name="twothirds" unicode="&#x2154;" horiz-adv-x="878" 
d="M60 402q2 8 7.5 18t22.5 21q50 33 85 53.5t57.5 35.5t33.5 26t14 25q4 14 -1.5 26t-26.5 12q-20 0 -30 -9t-16 -17q-8 -11 -14 -12.5t-14 -1.5h-52q-19 0 -14 19t17 38.5t31 34.5t44 24.5t56 9.5q32 0 56.5 -10t39.5 -26.5t20.5 -38.5t0.5 -47q-5 -24 -12 -41t-22 -32.5
t-40 -32.5t-66 -41h102q22 0 17 -22l-9 -42q-5 -22 -27 -22h-249q-21 0 -16 22zM724 681q9 9 17.5 14t22.5 5h61q15 0 20 -10t-6 -21l-632 -650q-9 -9 -17.5 -14t-22.5 -5h-61q-15 0 -20 10t6 21zM821 287q-2 -11 -5.5 -17t-17.5 -16l-65 -44q44 -11 59.5 -41t8.5 -65
q-9 -45 -52 -77t-113 -32q-37 0 -64 10t-44 24.5t-25 30.5t-6 28q2 10 9 15t12 5h58q7 0 10 -3.5t8 -8.5q8 -9 18 -12t31 -3q20 0 34 8t17 22q3 16 -5.5 22t-31.5 6h-46q-22 0 -17 22l4 23q2 11 16 23l79 57h-115q-22 0 -17 22l9 42q5 22 27 22h216q22 0 17 -22z" />
    <glyph glyph-name="threequarters" unicode="&#xbe;" horiz-adv-x="813" 
d="M692 681q9 9 17.5 14t22.5 5h61q15 0 20 -10t-6 -21l-632 -650q-9 -9 -17.5 -14t-22.5 -5h-61q-15 0 -20 10t6 21zM386 637q-2 -11 -5.5 -17t-17.5 -16l-65 -44q44 -11 59.5 -41t8.5 -65q-9 -45 -52 -77t-113 -32q-37 0 -64 10t-44 24.5t-25 30.5t-6 28q2 10 9 15t12 5
h58q7 0 10 -3.5t8 -8.5q8 -9 18 -12t31 -3q20 0 34 8t17 22q3 16 -5.5 22t-31.5 6h-46q-22 0 -17 22l4 23q2 11 16 23l79 57h-115q-22 0 -17 22l9 42q5 22 27 22h216q22 0 17 -22zM604 332q10 11 18.5 14.5t15.5 3.5h75q22 0 17 -22l-39 -185h35q22 0 17 -22l-9 -42
q-5 -22 -27 -22h-35l-7 -35q-5 -22 -27 -22h-52q-22 0 -17 22l7 35h-155q-20 0 -17 22l9 43q1 2 4 10t15 20zM526 143h69l20 94z" />
    <glyph glyph-name="threeeighths" unicode="&#x215c;" horiz-adv-x="857" 
d="M692 681q9 9 17.5 14t22.5 5h61q15 0 20 -10t-6 -21l-632 -650q-9 -9 -17.5 -14t-22.5 -5h-61q-15 0 -20 10t6 21zM386 637q-2 -11 -5.5 -17t-17.5 -16l-65 -44q44 -11 59.5 -41t8.5 -65q-9 -45 -52 -77t-113 -32q-37 0 -64 10t-44 24.5t-25 30.5t-6 28q2 10 9 15t12 5
h58q7 0 10 -3.5t8 -8.5q8 -9 18 -12t31 -3q20 0 34 8t17 22q3 16 -5.5 22t-31.5 6h-46q-22 0 -17 22l4 23q2 11 16 23l79 57h-115q-22 0 -17 22l9 42q5 22 27 22h216q22 0 17 -22zM782 101q-4 -20 -14.5 -39t-29.5 -34t-47.5 -24t-69.5 -9t-68.5 9t-44 24t-21.5 34t-1 39
q5 26 22 49t41 34q-28 21 -19 69q4 18 13.5 36t26.5 32.5t43.5 24t64.5 9.5t63.5 -9.5t40 -24t19.5 -32.5t1 -36q-5 -23 -18 -41t-31 -28q21 -11 27.5 -34t1.5 -49zM688 105q4 20 -11 27.5t-35 7.5t-38.5 -7.5t-21.5 -27.5q-3 -19 12 -27t33 -8t37.5 7.5t23.5 27.5zM621 249
q-3 -16 7.5 -24t29.5 -8t33.5 8t17.5 24q4 15 -7 23t-30 8t-33 -8t-18 -23z" />
    <glyph glyph-name="fiveeighths" unicode="&#x215d;" horiz-adv-x="845" 
d="M680 681q9 9 17.5 14t22.5 5h61q15 0 20 -10t-6 -21l-632 -650q-9 -9 -17.5 -14t-22.5 -5h-61q-15 0 -20 10t6 21zM375 636q-5 -22 -27 -22h-131l-13 -42q13 5 22.5 8t28.5 3q23 0 44 -9t36 -24.5t22 -37.5t2 -48q-5 -23 -17 -44.5t-31.5 -38t-47.5 -26.5t-64 -10
q-32 0 -58 9.5t-44 24t-27 31.5t-6 33q2 10 9 14.5t12 4.5h58q9 0 12.5 -5t8 -10.5t14 -10.5t30.5 -5q22 0 37.5 11.5t19.5 29.5q4 17 -7.5 27.5t-33.5 10.5q-12 0 -20 -3t-13.5 -6t-10 -6t-9.5 -3h-57q-11 0 -15.5 7.5t-1.5 18.5l51 155q3 11 11.5 18.5t19.5 8.5h188
q22 0 17 -22zM770 101q-4 -20 -14.5 -39t-29.5 -34t-47.5 -24t-69.5 -9t-68.5 9t-44 24t-21.5 34t-1 39q5 26 22 49t41 34q-28 21 -19 69q4 18 13.5 36t26.5 32.5t43.5 24t64.5 9.5t63.5 -9.5t40 -24t19.5 -32.5t1 -36q-5 -23 -18 -41t-31 -28q21 -11 27.5 -34t1.5 -49z
M676 105q4 20 -11 27.5t-35 7.5t-38.5 -7.5t-21.5 -27.5q-3 -19 12 -27t33 -8t37.5 7.5t23.5 27.5zM609 249q-3 -16 7.5 -24t29.5 -8t33.5 8t17.5 24q4 15 -7 23t-30 8t-33 -8t-18 -23z" />
    <glyph glyph-name="seveneighths" unicode="&#x215e;" horiz-adv-x="798" 
d="M633 681q9 9 17.5 14t22.5 5h61q15 0 20 -10t-6 -21l-632 -650q-9 -9 -17.5 -14t-22.5 -5h-61q-15 0 -20 10t6 21zM378 638q-2 -8 -3.5 -12.5t-4.5 -9.5l-156 -242q-6 -9 -13 -16.5t-18 -7.5h-58q-14 0 -16 10t5 21l149 233h-135q-22 0 -17 22l9 42q5 22 27 22h222
q22 0 17 -22zM723 101q-4 -20 -14.5 -39t-29.5 -34t-47.5 -24t-69.5 -9t-68.5 9t-44 24t-21.5 34t-1 39q5 26 22 49t41 34q-28 21 -19 69q4 18 13.5 36t26.5 32.5t43.5 24t64.5 9.5t63.5 -9.5t40 -24t19.5 -32.5t1 -36q-5 -23 -18 -41t-31 -28q21 -11 27.5 -34t1.5 -49z
M629 105q4 20 -11 27.5t-35 7.5t-38.5 -7.5t-21.5 -27.5q-3 -19 12 -27t33 -8t37.5 7.5t23.5 27.5zM562 249q-3 -16 7.5 -24t29.5 -8t33.5 8t17.5 24q4 15 -7 23t-30 8t-33 -8t-18 -23z" />
    <glyph glyph-name="exclam" unicode="!" horiz-adv-x="269" 
d="M145 142q11 0 17 -8t4 -19l-19 -88q-2 -11 -11.5 -19t-20.5 -8h-86q-11 0 -17.5 8t-4.5 19l19 88q2 11 12 19t21 8h86zM185 229q-2 -11 -12 -19t-21 -8h-76q-11 0 -17 8t-4 19l95 444q2 11 11.5 19t20.5 8h76q11 0 17.5 -8t4.5 -19z" />
    <glyph glyph-name="quotedbl" unicode="&#x22;" horiz-adv-x="418" 
d="M202 496q-5 -14 -14 -21t-20 -7h-38q-11 0 -17.5 7t-4.5 21l16 178q2 15 10 25.5t24 10.5h84q16 0 20.5 -10.5t-0.5 -25.5zM390 496q-5 -14 -14 -21t-20 -7h-38q-11 0 -17.5 7t-4.5 21l16 178q2 15 10 25.5t24 10.5h84q16 0 20.5 -10.5t-0.5 -25.5z" />
    <glyph glyph-name="quotesingle" unicode="'" horiz-adv-x="230" 
d="M202 496q-5 -14 -14 -21t-20 -7h-38q-11 0 -17.5 7t-4.5 21l16 178q2 15 10 25.5t24 10.5h84q16 0 20.5 -10.5t-0.5 -25.5z" />
    <glyph glyph-name="quotesinglbase" unicode="&#x201a;" horiz-adv-x="267" 
d="M28 113q5 14 16.5 26.5t31.5 12.5h90q13 0 16.5 -10t-1.5 -19l-102 -166q-6 -10 -17.5 -21t-31.5 -11h-45q-8 0 -14.5 7t-2.5 17z" />
    <glyph glyph-name="quotedblbase" unicode="&#x201e;" horiz-adv-x="466" 
d="M28 113q5 14 16.5 26.5t31.5 12.5h90q13 0 16.5 -10t-1.5 -19l-102 -166q-6 -10 -17.5 -21t-31.5 -11h-45q-8 0 -14.5 7t-2.5 17zM227 113q5 14 16.5 26.5t31.5 12.5h90q13 0 16.5 -10t-1.5 -19l-102 -166q-6 -10 -17.5 -21t-31.5 -11h-45q-8 0 -14.5 7t-2.5 17z" />
    <glyph glyph-name="quoteleft" unicode="&#x2018;" horiz-adv-x="260" 
d="M239 522q-5 -14 -16.5 -26.5t-31.5 -12.5h-90q-13 0 -16.5 10t1.5 19l102 166q6 10 17.5 21t31.5 11h45q8 0 14.5 -7t2.5 -17z" />
    <glyph glyph-name="quoteright" unicode="&#x2019;" horiz-adv-x="254" 
d="M152 671q5 14 16.5 26.5t31.5 12.5h90q13 0 16.5 -10t-1.5 -19l-102 -166q-6 -10 -17.5 -21t-31.5 -11h-45q-8 0 -14.5 7t-2.5 17z" />
    <glyph glyph-name="quotedblleft" unicode="&#x201c;" horiz-adv-x="460" 
d="M239 522q-5 -14 -16.5 -26.5t-31.5 -12.5h-90q-13 0 -16.5 10t1.5 19l102 166q6 10 17.5 21t31.5 11h45q8 0 14.5 -7t2.5 -17zM438 522q-5 -14 -16.5 -26.5t-31.5 -12.5h-90q-13 0 -16.5 10t1.5 19l102 166q6 10 17.5 21t31.5 11h45q8 0 14.5 -7t2.5 -17z" />
    <glyph glyph-name="quotedblright" unicode="&#x201d;" horiz-adv-x="453" 
d="M351 671q5 14 16.5 26.5t31.5 12.5h90q13 0 16.5 -10t-1.5 -19l-102 -166q-6 -10 -17.5 -21t-31.5 -11h-45q-8 0 -14.5 7t-2.5 17zM152 671q5 14 16.5 26.5t31.5 12.5h90q13 0 16.5 -10t-1.5 -19l-102 -166q-6 -10 -17.5 -21t-31.5 -11h-45q-8 0 -14.5 7t-2.5 17z" />
    <glyph glyph-name="ampersand" unicode="&#x26;" horiz-adv-x="718" 
d="M557 344q10 22 31 22h76q11 0 18 -8t4 -19q-13 -42 -45.5 -93.5t-81.5 -100.5l80 -96q10 -12 6 -21q-2 -12 -11 -20t-20 -8h-99q-11 0 -15.5 3.5t-7.5 6.5l-41 48q-50 -31 -106.5 -49.5t-118.5 -18.5q-49 0 -89.5 14t-67.5 40t-38 62.5t-1 82.5q7 35 23 61.5t38 47.5
t48 38t55 34q-30 43 -37 87.5t2 84.5q8 36 26 66.5t45.5 53t63 35.5t79.5 13q48 0 84 -15.5t58.5 -42t30 -61t-0.5 -72.5q-6 -30 -19.5 -53t-33 -42.5t-45.5 -37t-57 -36.5l95 -114q23 26 41 54t31 54zM268 280q-43 -23 -73 -46.5t-36 -52.5q-3 -15 3.5 -28t19.5 -22
t31.5 -14t38.5 -5q41 0 69 9.5t57 26.5zM318 438q45 25 68.5 43.5t29.5 47.5q5 20 -7 38t-47 18q-33 0 -53.5 -16.5t-25.5 -39.5q-5 -26 6 -47t29 -44z" />
    <glyph glyph-name="asterisk" unicode="*" horiz-adv-x="445" 
d="M326 610l89 49q10 5 20 3.5t12 -14.5l9 -76q2 -11 -6.5 -19.5t-21.5 -9.5l-93 -7l57 -58q8 -8 6.5 -18.5t-14.5 -18.5l-74 -47q-11 -7 -20.5 -3t-11.5 15l-17 83l-51 -83q-7 -11 -18 -15t-20 3l-54 47q-8 8 -5 19t12 17l82 59l-89 7q-11 1 -16 10t0 19l41 76
q7 13 18 15.5t20 -4.5l67 -49l-3 91q0 11 7 20t19 9h82q14 0 16.5 -10t-2.5 -20z" />
    <glyph glyph-name="plus" unicode="+" horiz-adv-x="609" 
d="M359 241l-39 -182q-2 -11 -12 -19t-21 -8h-76q-11 0 -17 8t-4 19l39 182h-179q-11 0 -17.5 8t-4.5 19l14 66q2 11 12 19t21 8h179l39 181q2 11 11.5 19t20.5 8h76q11 0 17.5 -8t4.5 -19l-39 -181h178q11 0 17 -8t4 -19l-14 -66q-2 -11 -11.5 -19t-20.5 -8h-178z" />
    <glyph glyph-name="plusminus" unicode="&#xb1;" horiz-adv-x="557" 
d="M34 0q-11 0 -17.5 8t-4.5 19l14 66q2 11 12 19t21 8h367q11 0 17 -8t4 -19l-14 -66q-2 -11 -11.5 -19t-20.5 -8h-367zM355 341l-30 -142q-2 -11 -12 -19t-21 -8h-76q-11 0 -17 8t-4 19l30 142h-139q-11 0 -17 8t-4 19l14 66q2 11 11.5 19t20.5 8h139l30 141q2 11 12 19
t21 8h76q11 0 17 -8t4 -19l-30 -141h138q11 0 17.5 -8t4.5 -19l-14 -66q-2 -11 -12 -19t-21 -8h-138z" />
    <glyph glyph-name="slash" unicode="/" horiz-adv-x="541" 
d="M461 758q8 12 19.5 20t30.5 8h87q13 0 17 -9.5t-4 -21.5l-510 -809q-6 -10 -18 -20t-32 -10h-83q-13 0 -17.5 10t2.5 21z" />
    <glyph glyph-name="backslash" unicode="\" horiz-adv-x="515" 
d="M415 -53q2 -11 -6 -21t-20 -10h-63q-20 0 -28 10t-10 20l-166 809q-2 12 6.5 21.5t20.5 9.5h66q19 0 27 -9.5t10 -20.5z" />
    <glyph glyph-name="fraction" unicode="&#x2044;" horiz-adv-x="160" 
d="M349 681q9 9 17.5 14t22.5 5h61q15 0 20 -10t-6 -21l-632 -650q-9 -9 -17.5 -14t-22.5 -5h-61q-15 0 -20 10t6 21z" />
    <glyph glyph-name="at" unicode="@" horiz-adv-x="862" 
d="M793 234q-20 -76 -66.5 -115.5t-111.5 -39.5q-25 0 -44 4.5t-33 11.5t-24.5 15t-17.5 15q-10 -10 -19.5 -20t-23.5 -18t-34.5 -13t-51.5 -5q-37 0 -65.5 14.5t-46 41.5t-22.5 64.5t5 83.5q9 46 26.5 83.5t41.5 64.5t55 42t68 15q42 0 64 -12.5t31 -31.5l2 9q2 11 11.5 19
t20.5 8h52q11 0 17.5 -8t4.5 -19l-46 -213q-5 -24 8 -37t33 -13t37.5 13.5t25.5 45.5q8 27 14.5 56.5t8.5 55.5q6 55 -4 97t-38 69.5t-75.5 41.5t-116.5 14q-58 0 -107.5 -16.5t-89 -46t-68 -70.5t-44.5 -89q-4 -13 -9.5 -34.5t-10.5 -45t-9 -45.5t-5 -36q-5 -48 6.5 -88
t38.5 -69.5t69.5 -46t100.5 -16.5q41 0 72 4t55 11t41.5 15.5t32.5 17.5q12 8 20 11.5t19 3.5h74q11 0 17.5 -7.5t3.5 -20.5q-3 -8 -11 -15q-26 -21 -53.5 -43t-65.5 -39t-90 -28t-126 -11q-83 0 -144.5 25.5t-101 69t-56.5 101t-9 120.5q2 14 6.5 37.5t9.5 49t10.5 48.5
t9.5 36q18 62 53 119.5t87.5 101.5t123.5 70.5t162 26.5q99 0 165.5 -25t105.5 -68t52.5 -101t4.5 -124q-3 -26 -10.5 -60.5t-15.5 -61.5zM343 273q-11 -49 2.5 -76t48.5 -27q37 0 61 26.5t35 76.5q10 49 -2.5 76.5t-49.5 27.5q-35 0 -60 -27.5t-35 -76.5z" />
    <glyph glyph-name="parenleft" unicode="(" horiz-adv-x="369" 
d="M245 -39q11 -1 17.5 -8.5t3.5 -18.5l-14 -66q-2 -11 -11.5 -19.5t-20.5 -7.5q-71 4 -115 38.5t-63 97t-15 151t28 201.5q24 112 54 196t72.5 140t100 83.5t136.5 27.5q11 0 17.5 -8t4.5 -19l-14 -66q-3 -11 -12.5 -18.5t-20.5 -8.5q-38 -4 -68.5 -25t-55.5 -60.5
t-45.5 -99.5t-38.5 -142q-17 -82 -26 -148t-4.5 -114t25.5 -75t65 -31z" />
    <glyph glyph-name="parenright" unicode=")" horiz-adv-x="369" 
d="M129 655q-11 1 -17.5 8.5t-3.5 18.5l14 66q2 11 11.5 19.5t20.5 7.5q71 -4 115 -38.5t63 -97t15 -151.5t-28 -201q-24 -113 -54 -196.5t-72.5 -139.5t-100 -83.5t-136.5 -27.5q-11 0 -17.5 8t-4.5 19l14 66q3 11 12.5 18.5t20.5 8.5q37 4 68 25t56 60.5t45.5 99.5
t38.5 142q17 82 26 148t4.5 114t-26 75t-64.5 31z" />
    <glyph glyph-name="bracketleft" unicode="[" horiz-adv-x="353" 
d="M-2 -159q-11 0 -17.5 8t-4.5 19l188 881q2 11 11.5 19t20.5 8h204q11 0 17.5 -8t4.5 -19l-14 -66q-2 -11 -12 -19t-21 -8h-101l-148 -695h101q11 0 17 -8t4 -19l-14 -66q-2 -11 -11.5 -19t-20.5 -8h-204z" />
    <glyph glyph-name="bracketright" unicode="]" horiz-adv-x="352" 
d="M360 776q11 0 17.5 -8t4.5 -19l-188 -881q-2 -11 -11.5 -19t-20.5 -8h-204q-11 0 -17.5 8t-4.5 19l14 66q2 11 12 19t21 8h101l148 695h-101q-11 0 -17 8t-4 19l14 66q2 11 11.5 19t20.5 8h204z" />
    <glyph glyph-name="braceleft" unicode="{" horiz-adv-x="395" 
d="M276 -132q-2 -11 -11.5 -19t-20.5 -8q-39 0 -74.5 19t-61 54t-37 86t-0.5 114q8 48 2 80t-33 44l-15 7q-27 13 -22 37l11 52q6 24 37 37l19 7q32 12 52.5 44t30.5 80q28 134 95.5 204t193.5 70q11 0 17.5 -8t4.5 -19l-14 -66q-3 -11 -12.5 -19t-20.5 -8q-42 0 -81.5 -47
t-59.5 -140q-8 -36 -20 -62.5t-26.5 -45.5t-31 -31.5t-31.5 -21.5q12 -9 22.5 -21.5t17.5 -31.5t8 -45.5t-7 -62.5q-18 -85 -3 -134t64 -52q11 -1 17.5 -8.5t3.5 -18.5z" />
    <glyph glyph-name="braceright" unicode="}" horiz-adv-x="395" 
d="M124 749q2 11 11.5 19t20.5 8q39 0 74.5 -19t61 -54t36.5 -86t1 -114q-8 -48 -2 -80t33 -44l15 -7q27 -13 22 -37l-11 -52q-6 -24 -37 -37l-19 -7q-32 -12 -52.5 -44t-30.5 -80q-14 -67 -37.5 -118.5t-58.5 -86t-82.5 -52t-110.5 -17.5q-11 0 -17.5 8t-4.5 19l14 66
q3 11 12.5 19t20.5 8q42 0 81.5 47t59.5 140q7 36 19.5 62.5t27 45.5t31 31.5t31.5 21.5q-12 9 -22.5 21.5t-17.5 31.5t-8 45.5t7 62.5q18 85 3 134t-64 52q-11 1 -17.5 8.5t-3.5 18.5z" />
    <glyph glyph-name="exclamdown" unicode="&#xa1;" horiz-adv-x="261" 
d="M105.009 379.009q-10.999 0 -16.999 7.99902q-6 8 -4 18.999l18.999 87.9951q2 10.999 11.499 18.998q9.5 8 20.499 8h85.9951q10.999 0 17.499 -8q6.49902 -7.99902 4.49902 -18.998l-18.998 -87.9951q-2 -10.999 -12 -18.999q-9.99902 -7.99902 -20.998 -7.99902
h-85.9951zM65.0117 292.014q1.99902 11 11.999 18.999q9.99902 8 20.999 8h75.9951q10.999 0 16.999 -8q5.99902 -7.99902 3.99902 -18.999l-94.9941 -443.973q-1.99902 -10.999 -11.499 -18.999q-9.49902 -7.99902 -20.499 -7.99902h-75.9951q-10.999 0 -17.499 7.99902
q-6.49902 8 -4.49902 18.999z" />
    <glyph glyph-name="questiondown" unicode="&#xbf;" horiz-adv-x="560" 
d="M254.018 379.009q-10.999 0 -16.999 7.99902q-5.99902 8 -3.99902 18.999l18.998 87.9951q2 10.999 11.5 18.998q9.49902 8 20.498 8h85.9951q10.999 0 17.499 -8q6.5 -7.99902 4.5 -18.998l-18.999 -87.9951q-2 -10.999 -11.999 -18.999q-10 -7.99902 -20.999 -7.99902
h-85.9951zM184.022 -188.957q-42.998 0 -85.9951 14.499q-42.9971 14.5 -75.4951 40.998t-48.4971 63.4961t-5 81.9951q9 36.998 28.498 65.4961q19.499 28.498 43.998 52.4961q24.498 23.999 51.4961 43.498q26.999 19.498 50.9971 38.4971q23.999 18.999 42.9971 38.498
q18.999 19.499 26.999 41.4971q4 11 12.999 18.999q8.99902 8 19.999 8h75.9951q10.999 0 17.499 -8q6.49902 -7.99902 3.5 -18.999q-10 -38.9971 -30.498 -68.9951q-20.499 -29.999 -45.498 -53.4971q-24.998 -23.499 -51.9961 -42.4971q-26.999 -18.999 -50.9971 -36.498
q-23.999 -17.499 -40.998 -34.998q-16.998 -17.499 -22.998 -37.498q-10 -36.9971 13.999 -61.9961q23.999 -24.998 83.9951 -24.998q48.9971 0 81.4951 21.499q32.498 21.498 61.4961 63.4961q7.99902 10.999 14.499 16.499q6.5 5.49902 19.499 5.49902h80.9951
q8.99902 0 13.999 -5.99902q4.99902 -6 3 -15.999q-7 -34.998 -30.999 -71.4961q-23.998 -36.498 -61.4961 -65.9961q-37.4971 -29.498 -87.4941 -48.4971t-109.993 -18.999z" />
    <glyph glyph-name="guillemotleft" unicode="&#xab;" horiz-adv-x="621" 
d="M327 363q2 9 7.5 16t12.5 12l238 191q11 9 23 3t9 -20l-24 -108q-4 -17 -9.5 -26t-17.5 -19l-124 -100l82 -100q8 -10 10 -19t-2 -26l-15 -72q-3 -14 -17 -20t-24 5l-155 189q-11 12 -8 28zM56 363q2 9 7.5 16t12.5 12l238 191q11 9 23 3t9 -20l-24 -108q-4 -17 -9.5 -26
t-17.5 -19l-124 -100l82 -100q8 -10 10 -19t-2 -26l-15 -72q-3 -14 -17 -20t-24 5l-155 189q-11 12 -8 28z" />
    <glyph glyph-name="guillemotright" unicode="&#xbb;" horiz-adv-x="621" 
d="M308 296q-2 -9 -7.5 -16t-12.5 -12l-238 -191q-11 -9 -23 -3t-9 20l24 108q4 17 9.5 26t17.5 19l124 100l-82 100q-8 10 -10 19t2 26l15 72q3 14 17 20t24 -5l155 -189q11 -12 8 -28zM579 296q-2 -9 -7.5 -16t-12.5 -12l-238 -191q-11 -9 -23 -3t-9 20l24 108
q4 17 9.5 26t17.5 19l124 100l-82 100q-8 10 -10 19t2 26l15 72q3 14 17 20t24 -5l155 -189q11 -12 8 -28z" />
    <glyph glyph-name="guilsinglleft" unicode="&#x2039;" horiz-adv-x="350" 
d="M56 362q2 9 7.5 16t12.5 12l238 191q11 9 23 3t9 -20l-24 -108q-4 -17 -9.5 -26t-17.5 -19l-124 -100l82 -100q8 -10 10 -19t-2 -26l-15 -72q-3 -14 -17 -20t-24 5l-155 189q-11 12 -8 28z" />
    <glyph glyph-name="guilsinglright" unicode="&#x203a;" horiz-adv-x="350" 
d="M308 295q-2 -9 -7.5 -16t-12.5 -12l-238 -191q-11 -9 -23 -3t-9 20l24 108q4 17 9.5 26t17.5 19l124 100l-82 100q-8 10 -10 19t2 26l15 72q3 14 17 20t24 -5l155 -189q11 -12 8 -28z" />
    <glyph glyph-name="hyphen" unicode="-" horiz-adv-x="484" 
d="M78 240q-11 0 -17.5 8t-4.5 19l14 66q2 11 12 19t21 8h305q11 0 17 -8t4 -19l-14 -66q-2 -11 -11.5 -19t-20.5 -8h-305z" />
    <glyph glyph-name="endash" unicode="&#x2013;" horiz-adv-x="574" 
d="M78 240q-11 0 -17.5 8t-4.5 19l14 66q2 11 12 19t21 8h395q11 0 17 -8t4 -19l-14 -66q-2 -11 -11.5 -19t-20.5 -8h-395z" />
    <glyph glyph-name="emdash" unicode="&#x2014;" horiz-adv-x="764" 
d="M78 240q-11 0 -17.5 8t-4.5 19l14 66q2 11 12 19t21 8h585q11 0 17 -8t4 -19l-14 -66q-2 -11 -11.5 -19t-20.5 -8h-585z" />
    <glyph glyph-name="periodcentered" unicode="&#xb7;" horiz-adv-x="330" 
d="M45 300q5 25 19.5 46.5t34 38t43.5 26t49 9.5t44.5 -9.5t32.5 -26t17.5 -38t-0.5 -46.5t-19 -46.5t-34 -38t-43.5 -26t-48.5 -9.5t-45 9.5t-32.5 26t-17.5 38t0 46.5z" />
    <glyph glyph-name="colon" unicode=":" horiz-adv-x="274" 
d="M153 152q11 0 17 -8t4 -19l-21 -98q-2 -11 -11.5 -19t-20.5 -8h-93q-11 0 -17.5 8t-4.5 19l21 98q2 11 12 19t21 8h93zM227 502q11 0 17 -8t4 -19l-20 -98q-2 -11 -12 -19t-21 -8h-93q-11 0 -17 8t-4 19l20 98q2 11 12 19t21 8h93z" />
    <glyph glyph-name="semicolon" unicode=";" horiz-adv-x="291" 
d="M243 502q11 0 17.5 -8t3.5 -19l-20 -98q-3 -11 -12.5 -19t-20.5 -8h-93q-11 0 -17 8t-4 19l20 98q2 11 12 19t21 8h93zM36 113q5 14 18 26.5t33 12.5h87q13 0 16.5 -10t-1.5 -19l-101 -165q-6 -10 -18 -21t-32 -11h-45q-10 0 -15.5 7t-1.5 17z" />
    <glyph glyph-name="less" unicode="&#x3c;" horiz-adv-x="501" 
d="M194 337l192 -153q8 -7 16.5 -18t5.5 -26l-16 -75q-2 -12 -13.5 -16.5t-22.5 3.5l-298 235q-12 9 -18 17.5t-3 24.5l9 42q4 16 13.5 24.5t24.5 17.5l400 236q11 7 21 1.5t8 -19.5l-21 -100q-3 -15 -17 -26t-25 -18z" />
    <glyph glyph-name="lessequal" unicode="&#x2264;" horiz-adv-x="535" 
d="M21 0q-11 0 -17.5 8t-4.5 19l14 66q2 11 12 19t21 8h357q11 0 17 -8t4 -19l-14 -66q-2 -11 -11.5 -19t-20.5 -8h-357zM83 421q3 16 12.5 25.5t25.5 16.5l384 160q13 5 22 0.5t6 -18.5l-18 -81q-3 -15 -15.5 -27t-26.5 -17l-217 -91l179 -90q12 -6 19 -17.5t4 -26.5
l-12 -60q-2 -13 -13.5 -18t-22.5 0l-316 160q-26 12 -20 42z" />
    <glyph glyph-name="equal" unicode="=" horiz-adv-x="572" 
d="M55 117q-11 0 -17 8t-4 19l14 66q2 11 12 19t21 8h385q11 0 17 -8t4 -19l-14 -66q-2 -11 -12 -19t-21 -8h-385zM108 364q-11 0 -17 8t-4 19l14 66q2 11 12 19t21 8h385q11 0 17 -8t4 -19l-14 -66q-2 -11 -12 -19t-21 -8h-385z" />
    <glyph glyph-name="approxequal" unicode="&#x2248;" horiz-adv-x="563" 
d="M216 505q37 0 61 -6.5t45 -14.5t43.5 -14.5t57.5 -6.5q20 0 34 5.5t24.5 12t19 12t16.5 5.5q14 0 16 -9t-2 -28l-8 -40q-7 -33 -41.5 -56.5t-85.5 -23.5q-37 0 -61 6.5t-45 14.5t-43.5 14.5t-57.5 6.5q-19 0 -32.5 -5.5t-23 -12t-17.5 -12t-17 -5.5q-14 0 -16.5 9t2.5 28
l9 40q8 33 39.5 56.5t82.5 23.5zM164 260q37 0 61 -6.5t45 -14.5t43.5 -14.5t57.5 -6.5q20 0 34 5.5t24.5 12t19 12t16.5 5.5q14 0 16 -9t-2 -28l-8 -40q-7 -33 -41.5 -56.5t-85.5 -23.5q-37 0 -61 6.5t-45 14.5t-43.5 14.5t-57.5 6.5q-19 0 -32.5 -5.5t-23 -12t-17.5 -12
t-17 -5.5q-14 0 -16.5 9t2.5 28l9 40q8 33 39.5 56.5t82.5 23.5z" />
    <glyph glyph-name="notequal" unicode="&#x2260;" horiz-adv-x="549" 
d="M237 117l-42 -66q-6 -9 -18 -19.5t-32 -10.5h-86q-12 0 -16.5 10t3.5 21l41 65h-41q-11 0 -17 8t-4 19l14 66q2 11 12 19t21 8h90l80 127h-143q-11 0 -17 8t-4 19l14 66q2 11 11.5 19t20.5 8h193l41 66q7 11 19.5 20.5t31.5 9.5h86q14 0 16.5 -10.5t-3.5 -20.5l-41 -65
h42q11 0 17.5 -8t4.5 -19l-14 -66q-2 -11 -12 -19t-21 -8h-92l-80 -127h145q11 0 17 -8t4 -19l-14 -66q-2 -11 -12 -19t-21 -8h-194z" />
    <glyph glyph-name="logicalnot" unicode="&#xac;" horiz-adv-x="574" 
d="M472 133q-2 -11 -12 -19t-21 -8h-76q-11 0 -17 8t-4 19l20 97h-292q-11 0 -17 8t-4 19l14 66q2 11 12 19t21 8h395q11 0 17 -8t4 -19z" />
    <glyph glyph-name="estimated" unicode="&#x212e;" horiz-adv-x="629" 
d="M52 305q14 66 40.5 122t66 96.5t92.5 63.5t122 23q66 0 112 -27.5t73 -70.5t35 -96.5t-3 -104.5l-10 -45q-2 -11 -12 -19t-21 -8h-378q-3 -23 0 -45.5t15 -41.5t34.5 -30.5t58.5 -11.5q24 0 41 1.5t30 6t24.5 12t23.5 19.5q12 11 18 12.5t18 1.5h88q22 0 17 -22
q-2 -12 -17.5 -37t-47.5 -50.5t-84 -44.5t-127 -19q-55 0 -100 23t-74 64.5t-39.5 99.5t4.5 128zM358 490q-32 0 -59.5 -13t-49 -33t-35.5 -44t-20 -47h270q3 23 0.5 47t-14.5 44t-34 33t-58 13z" />
    <glyph glyph-name="partialdiff" unicode="&#x2202;" horiz-adv-x="595" 
d="M533 235q-27 -129 -101 -187t-193 -58q-45 0 -88 15.5t-74 46t-45.5 76.5t-1.5 107q26 122 98.5 178.5t192.5 56.5q20 0 43.5 -2t40.5 -7q-15 60 -49.5 105.5t-82.5 91.5q-8 8 -10.5 13t-1.5 9q5 20 24 20h106q12 0 19.5 -3.5t14.5 -9.5q39 -42 68 -85t44 -95.5
t14.5 -118.5t-18.5 -153zM159 230q-5 -25 -2 -47t15 -38t32.5 -25.5t50.5 -9.5q60 0 97.5 34.5t48.5 85.5q6 25 3 47t-15 38t-32.5 25.5t-50.5 9.5t-54.5 -9.5t-43 -25.5t-31 -38t-18.5 -47z" />
    <glyph glyph-name="greater" unicode="&#x3e;" horiz-adv-x="500" 
d="M330 362l-192 153q-8 7 -16.5 18t-5.5 26l16 75q2 12 13.5 16.5t22.5 -3.5l298 -235q12 -9 18 -17.5t3 -24.5l-9 -42q-4 -16 -13.5 -24.5t-24.5 -17.5l-400 -236q-11 -7 -21 -1.5t-8 19.5l21 100q3 15 17 26t25 18z" />
    <glyph glyph-name="greaterequal" unicode="&#x2265;" horiz-adv-x="531" 
d="M32 0q-11 0 -17.5 8t-4.5 19l14 66q2 11 12 19t21 8h357q11 0 17 -8t4 -19l-14 -66q-2 -11 -11.5 -19t-20.5 -8h-357zM496 379q-3 -16 -12.5 -25.5t-25.5 -16.5l-384 -160q-13 -5 -22 -0.5t-6 18.5l18 81q3 15 15.5 27t26.5 17l218 90l-180 91q-12 6 -19 17.5t-4 26.5
l12 60q2 13 13.5 18t22.5 0l316 -160q26 -12 20 -42z" />
    <glyph glyph-name="question" unicode="?" horiz-adv-x="564" 
d="M293 142q11 0 17 -8t4 -19l-19 -88q-2 -11 -11.5 -19t-20.5 -8h-86q-11 0 -17.5 8t-4.5 19l19 88q2 11 12 19t21 8h86zM363 710q43 0 86 -14.5t75.5 -41t48.5 -63.5t5 -82q-9 -37 -28.5 -65.5t-44 -52.5t-51.5 -43.5t-51 -38.5t-43 -38.5t-27 -41.5q-4 -11 -13 -19
t-20 -8h-76q-11 0 -17.5 8t-3.5 19q10 39 30.5 69t45.5 53.5t52 42.5t51 36.5t41 35t23 37.5q10 37 -14 62t-84 25q-49 0 -81.5 -21.5t-61.5 -63.5q-8 -11 -14.5 -16.5t-19.5 -5.5h-81q-9 0 -14 6t-3 16q7 35 31 71.5t61.5 66t87.5 48.5t110 19z" />
    <glyph glyph-name="asciicircum" unicode="^" horiz-adv-x="429" 
d="M341 745q11 0 18 -4t15 -15l70 -102q4 -5 2 -13q-3 -16 -19 -16h-31q-10 0 -15.5 2.5t-13.5 8.5l-64 47l-84 -47q-10 -6 -16.5 -8.5t-16.5 -2.5h-55q-16 0 -13 16q2 8 8 13l114 102q12 11 21 15t20 4h60z" />
    <glyph glyph-name="underscore" unicode="_" horiz-adv-x="737" 
d="M3 -60q-11 0 -17.5 8t-4.5 19l15 66q2 11 11.5 19t20.5 8h585q11 0 17.5 -8t4.5 -19l-15 -66q-2 -11 -11.5 -19t-20.5 -8h-585z" />
    <glyph glyph-name="bar" unicode="|" horiz-adv-x="266" 
d="M97 -181q-2 -11 -12 -19t-21 -8h-76q-11 0 -17 8t-4 19l223 1050q2 11 12 19t21 8h76q11 0 17 -8t4 -19z" />
    <glyph glyph-name="brokenbar" unicode="&#xa6;" horiz-adv-x="271" 
d="M244 502q-2 -11 -12 -19t-21 -8h-76q-11 0 -17 8t-4 19l64 300q2 11 12 19t21 8h76q11 0 17 -8t4 -19zM143 27q-2 -11 -11.5 -19t-20.5 -8h-76q-11 0 -17.5 8t-4.5 19l64 300q2 11 12 19t21 8h76q11 0 17 -8t4 -19z" />
    <glyph glyph-name="percent" unicode="%" horiz-adv-x="848" 
d="M265 705q33 0 58.5 -11.5t43 -30t25 -42t4.5 -46.5q-3 -26 -9 -55.5t-14 -55.5q-7 -23 -18.5 -44.5t-30.5 -38t-47.5 -26.5t-68.5 -10q-33 0 -59 11.5t-43 30t-24.5 41.5t-4.5 46q3 26 9 55.5t14 55.5q7 23 18.5 45t30.5 38.5t47 26.5t69 10zM280 479q2 6 5 19t6 27
t5.5 27t2.5 19q2 20 -5.5 34t-36.5 14t-43 -14t-21 -34q-2 -6 -5 -19t-6 -27t-5.5 -27t-2.5 -19q-2 -20 6 -34t37 -14t42.5 14t20.5 34zM662 354q33 0 58.5 -11.5t43 -30t25 -42t4.5 -46.5q-3 -26 -9 -55.5t-14 -55.5q-7 -23 -18.5 -44.5t-30.5 -38t-47.5 -26.5t-68.5 -10
q-33 0 -59 11.5t-43 30t-24.5 41.5t-4.5 46q3 26 9 55.5t14 55.5q7 23 18.5 45t30.5 38.5t47 26.5t69 10zM677 128q2 6 5 19t6 27t5.5 27t2.5 19q2 20 -5.5 34t-36.5 14t-43 -14t-21 -34q-2 -6 -5 -19t-6 -27t-5.5 -27t-2.5 -19q-2 -20 6 -34t37 -14t42.5 14t20.5 34z
M689 681q9 9 17.5 14t22.5 5h71q15 0 20 -10t-6 -21l-632 -650q-9 -9 -17.5 -14t-22.5 -5h-71q-15 0 -20 10t6 21z" />
    <glyph glyph-name="perthousand" unicode="&#x2030;" horiz-adv-x="1184" 
d="M265 705q33 0 58.5 -11.5t43 -30t25 -42t4.5 -46.5q-3 -26 -9 -55.5t-14 -55.5q-7 -23 -18.5 -44.5t-30.5 -38t-47.5 -26.5t-68.5 -10q-33 0 -59 11.5t-43 30t-24.5 41.5t-4.5 46q3 26 9 55.5t14 55.5q7 23 18.5 45t30.5 38.5t47 26.5t69 10zM280 479q2 6 5 19t6 27
t5.5 27t2.5 19q2 20 -5.5 34t-36.5 14t-43 -14t-21 -34q-2 -6 -5 -19t-6 -27t-5.5 -27t-2.5 -19q-2 -20 6 -34t37 -14t42.5 14t20.5 34zM662 354q33 0 58.5 -11.5t43 -30t25 -42t4.5 -46.5q-3 -26 -9 -55.5t-14 -55.5q-7 -23 -18.5 -44.5t-30.5 -38t-47.5 -26.5t-68.5 -10
q-33 0 -59 11.5t-43 30t-24.5 41.5t-4.5 46q3 26 9 55.5t14 55.5q7 23 18.5 45t30.5 38.5t47 26.5t69 10zM677 128q2 6 5 19t6 27t5.5 27t2.5 19q2 20 -5.5 34t-36.5 14t-43 -14t-21 -34q-2 -6 -5 -19t-6 -27t-5.5 -27t-2.5 -19q-2 -20 6 -34t37 -14t42.5 14t20.5 34z
M689 681q9 9 17.5 14t22.5 5h71q15 0 20 -10t-6 -21l-632 -650q-9 -9 -17.5 -14t-22.5 -5h-71q-15 0 -20 10t6 21zM1004 354q33 0 58.5 -11.5t43 -30t25 -42t4.5 -46.5q-3 -26 -9 -55.5t-14 -55.5q-7 -23 -18.5 -44.5t-30.5 -38t-47.5 -26.5t-68.5 -10q-33 0 -59 11.5
t-43 30t-24.5 41.5t-4.5 46q3 26 9 55.5t14 55.5q7 23 18.5 45t30.5 38.5t47 26.5t69 10zM1019 128q2 6 5 19t6 27t5.5 27t2.5 19q2 20 -5.5 34t-36.5 14t-43 -14t-21 -34q-2 -6 -5 -19t-6 -27t-5.5 -27t-2.5 -19q-2 -20 6 -34t37 -14t42.5 14t20.5 34z" />
    <glyph glyph-name="ellipsis" unicode="&#x2026;" horiz-adv-x="693" 
d="M582 152q11 0 17 -8t4 -19l-21 -98q-2 -11 -11.5 -19t-20.5 -8h-93q-11 0 -17.5 8t-4.5 19l21 98q2 11 12 19t21 8h93zM365 152q11 0 17 -8t4 -19l-21 -98q-2 -11 -11.5 -19t-20.5 -8h-93q-11 0 -17.5 8t-4.5 19l21 98q2 11 12 19t21 8h93zM148 152q11 0 17 -8t4 -19
l-21 -98q-2 -11 -11.5 -19t-20.5 -8h-93q-11 0 -17.5 8t-4.5 19l21 98q2 11 12 19t21 8h93z" />
    <glyph glyph-name="asciitilde" unicode="~" horiz-adv-x="557" 
d="M384 219q-37 0 -61 6.5t-45 14.5t-44 14.5t-58 6.5q-12 0 -24.5 -3t-24 -7t-20.5 -8.5t-14 -7.5q-23 -14 -31.5 -6t-2.5 34l9 40q3 16 13.5 31t25.5 25.5t33 17t36 6.5q37 0 61 -6.5t45 -14.5t44 -14.5t58 -6.5q12 0 24.5 3t24 7t20.5 8.5t14 7.5q23 14 31.5 6t2.5 -34
l-9 -40q-3 -17 -13.5 -31.5t-25.5 -25t-33 -17t-36 -6.5z" />
    <glyph glyph-name="dagger" unicode="&#x2020;" horiz-adv-x="467" 
d="M321 404l-80 -377q-2 -11 -11.5 -19t-20.5 -8h-76q-11 0 -17.5 8t-4.5 19l80 377h-112q-11 0 -17 8t-4 19l14 66q2 11 12 19t21 8h112l32 149q2 11 11.5 19t20.5 8h76q11 0 17.5 -8t4.5 -19l-32 -149h112q11 0 17 -8t4 -19l-14 -66q-2 -11 -12 -19t-21 -8h-112z" />
    <glyph glyph-name="daggerdbl" unicode="&#x2021;" horiz-adv-x="509" 
d="M291 161l-29 -134q-2 -11 -11.5 -19t-20.5 -8h-76q-11 0 -17.5 8t-4.5 19l29 134h-112q-11 0 -17.5 8t-4.5 19l14 66q2 11 12 19t21 8h112l32 149h-112q-11 0 -17.5 8t-3.5 19l14 66q2 11 11.5 19t20.5 8h112l27 123q2 11 11.5 19t20.5 8h76q11 0 17.5 -8t4.5 -19
l-27 -123h112q11 0 17.5 -8t4.5 -19l-14 -66q-3 -11 -12.5 -19t-20.5 -8h-112l-32 -149h112q11 0 17.5 -8t3.5 -19l-14 -66q-2 -11 -11.5 -19t-20.5 -8h-112z" />
    <glyph glyph-name="minus" unicode="&#x2212;" horiz-adv-x="651" 
d="M82 240q-11 0 -17.5 8t-4.5 19l14 66q2 11 12 19t21 8h464q11 0 17 -8t4 -19l-14 -66q-2 -11 -11.5 -19t-20.5 -8h-464z" />
    <glyph glyph-name="bullet" unicode="&#x2022;" horiz-adv-x="383" 
d="M72 300q5 25 19.5 46.5t34 38t43.5 26t49 9.5t44.5 -9.5t32.5 -26t17.5 -38t-0.5 -46.5t-19 -46.5t-34 -38t-43.5 -26t-48.5 -9.5t-45 9.5t-32.5 26t-17.5 38t0 46.5z" />
    <glyph glyph-name="trademark" unicode="&#x2122;" horiz-adv-x="643" 
d="M121 678q5 22 26 22h182q10 0 15 -6t3 -16l-7 -32q-5 -22 -27 -22h-52l-36 -168q-2 -10 -9 -16t-17 -6h-34q-21 0 -18 22l36 168h-52q-22 0 -17 22zM561 678q7 9 14.5 15.5t20.5 6.5h41q10 0 15 -6t3 -16l-48 -222q-5 -22 -26 -22h-34q-10 0 -15 6t-3 16l22 102l-29 -40
q-7 -9 -13.5 -14.5t-17.5 -5.5h-28q-11 0 -14.5 6t-6.5 14l-13 40l-22 -102q-5 -22 -26 -22h-34q-10 0 -15 6t-3 16l48 222q5 22 26 22h35q13 0 18.5 -6.5t8.5 -15.5l30 -89z" />
    <glyph glyph-name="section" unicode="&#xa7;" horiz-adv-x="599" 
d="M556 249q-11 -51 -38.5 -80t-68.5 -52q5 -16 6 -34t-4 -41q-18 -88 -81 -135t-163 -47q-54 0 -93.5 15.5t-64.5 38t-35.5 47.5t-7.5 44q2 13 12 20t19 7h77q15 0 21.5 -8t15 -18t23.5 -18t48 -8q35 0 64 14.5t35 43.5q5 26 -24 44t-101 40q-97 29 -135 77.5t-22 121.5
q10 50 37.5 79t67.5 52q-11 33 -1 76q18 88 81 135t163 47q54 0 93.5 -15.5t64.5 -38t36 -47.5t8 -44q-2 -13 -12.5 -20t-19.5 -7h-77q-15 0 -22 8t-15 18t-23 18t-48 8q-35 0 -63.5 -14.5t-34.5 -43.5q-6 -26 23 -44t101 -40q97 -29 135 -77.5t23 -121.5zM167 314
q-3 -14 6 -24.5t27.5 -20.5t45.5 -20t60 -22q34 -14 63 -27q29 13 41.5 26t16.5 30q3 13 -6 24t-27.5 21t-45.5 20t-60 22q-35 12 -63 27q-28 -13 -41 -26t-17 -30z" />
    <glyph glyph-name="copyright" unicode="&#xa9;" horiz-adv-x="813" 
d="M249 385q9 36 24.5 65t39 50t55.5 32.5t75 11.5q37 0 67.5 -13t51 -31.5t30 -40t5.5 -39.5q-5 -22 -27 -22h-59q-12 0 -15.5 7.5t-5.5 13.5q-9 22 -26 26.5t-31 4.5q-33 0 -52.5 -17t-27.5 -48q-4 -15 -8 -34t-6 -34q-5 -31 7 -48t45 -17q14 0 32.5 4.5t37.5 26.5
q5 6 11.5 13.5t18.5 7.5h59q22 0 17 -22q-4 -18 -16.5 -39.5t-35 -40t-56 -31.5t-78.5 -13q-35 0 -64.5 11.5t-50 32.5t-29 50t-2.5 65q2 15 6 34t8 34zM60 360q16 75 54.5 139t94.5 111t126.5 73.5t148.5 26.5q75 0 135.5 -30t100.5 -80.5t56 -117.5t0 -142t-55 -139
t-95 -111t-126.5 -73.5t-148.5 -26.5q-75 0 -135.5 30t-100.5 80.5t-55.5 117.5t0.5 142zM143 350q-12 -58 -2 -109t39 -89t74.5 -60t103.5 -22t113 22t100 60t77.5 89t44.5 109t2 109t-39.5 89t-75 60t-103.5 22t-113 -22t-100 -60t-77 -89t-44 -109z" />
    <glyph glyph-name="ordfeminine" unicode="&#xaa;" horiz-adv-x="358" 
d="M198 493q29 0 47.5 19.5t23.5 39.5l-46 -7q-17 -3 -30.5 -10t-16.5 -22q-2 -9 2.5 -14.5t19.5 -5.5zM268 434q-21 0 -18 22l2 7q-11 -14 -37.5 -24t-53.5 -10q-22 0 -38 7t-25.5 18.5t-13 25.5t-0.5 29q8 36 44.5 60t91.5 32l61 9q2 8 -3 19.5t-27 11.5q-10 0 -18 -3
t-15 -7t-14.5 -7t-15.5 -3h-37q-10 0 -15.5 3.5t-2.5 13.5q2 7 10.5 18.5t23.5 22.5t36.5 18.5t50.5 7.5q28 0 50.5 -7t38 -20t21.5 -33t1 -45l-31 -144q-2 -10 -9 -16t-17 -6h-40z" />
    <glyph glyph-name="registered" unicode="&#xae;" horiz-adv-x="813" 
d="M250 168q-22 0 -17 22l68 322q5 22 27 22h129q40 0 67.5 -9.5t43.5 -26t21 -38.5t0 -47q-7 -32 -26.5 -61t-53.5 -47l34 -101q2 -7 1 -14q-2 -8 -9 -15t-18 -7h-55q-19 0 -25 19l-28 95h-53l-19 -92q-5 -22 -27 -22h-60zM377 377h59q24 0 35 9.5t14 26.5q4 17 -3 26.5
t-31 9.5h-59zM60 360q16 75 54.5 139t94.5 111t126.5 73.5t148.5 26.5q75 0 135.5 -30t100.5 -80.5t56 -117.5t0 -142t-55 -139t-95 -111t-126.5 -73.5t-148.5 -26.5q-75 0 -135.5 30t-100.5 80.5t-55.5 117.5t0.5 142zM143 350q-12 -58 -2 -109t39 -89t74.5 -60t103.5 -22
t113 22t100 60t77.5 89t44.5 109t2 109t-39.5 89t-75 60t-103.5 22t-113 -22t-100 -60t-77 -89t-44 -109z" />
    <glyph glyph-name="degree" unicode="&#xb0;" horiz-adv-x="406" 
d="M180 549q-7 -34 9.5 -55t50.5 -21q13 0 28 5.5t28 15.5t23 24t13 31q8 34 -9 55t-51 21q-13 0 -27.5 -5.5t-27.5 -15.5t-23 -24t-14 -31zM90 549q7 34 25 63.5t44 51.5t59.5 34t71.5 12q31 0 58 -12t46 -34t27 -51.5t1 -63.5q-7 -35 -25 -64t-44 -51t-59.5 -34t-71.5 -12
q-31 0 -58 12t-46 34t-27 51t-1 64z" />
    <glyph glyph-name="mu" unicode="&#xb5;" horiz-adv-x="618" 
d="M96 -173q-2 -11 -12 -19t-21 -8h-76q-11 0 -17 8t-4 19l141 666q2 11 12 19t21 8h76q11 0 17 -8t4 -19l-54 -254q-12 -60 10.5 -96t75.5 -36t91.5 36t50.5 96l54 254q2 11 12 19t21 8h76q11 0 17 -8t4 -19l-99 -466q-2 -11 -11.5 -19t-20.5 -8h-76q-11 0 -17.5 8t-4.5 19
l5 23q-26 -29 -51.5 -44.5t-65.5 -15.5t-68.5 15.5t-42.5 44.5z" />
    <glyph glyph-name="paragraph" unicode="&#xb6;" horiz-adv-x="562" 
d="M75 513q8 39 29.5 73t52.5 59.5t68 40t76 14.5h248q11 0 17.5 -8t4.5 -19l-159 -746q-2 -11 -12 -19t-21 -8h-44q-11 0 -17 8t-4 19l143 675h-79l-143 -675q-2 -11 -12 -19t-21 -8h-44q-11 0 -17 8t-4 19l85 399q-39 0 -69.5 14.5t-50.5 40t-27.5 59.5t0.5 73z" />
    <glyph glyph-name="ordmasculine" unicode="&#xba;" horiz-adv-x="349" 
d="M354 540q-14 -54 -48.5 -82.5t-94.5 -28.5q-26 0 -49 7t-39.5 21.5t-24.5 35t-4 47.5q1 8 5.5 27t6.5 27q14 54 51 82.5t92 28.5q24 0 46.5 -7t39.5 -21.5t26 -35t5 -47.5q-1 -8 -5.5 -27t-6.5 -27zM216 499q20 0 30.5 10.5t17.5 35.5l5.5 22t4.5 22q3 23 -3.5 34.5
t-26.5 11.5t-31 -11.5t-17 -34.5l-5.5 -22t-4.5 -22q-4 -25 3 -35.5t27 -10.5z" />
    <glyph glyph-name="multiply" unicode="&#xd7;" horiz-adv-x="573" 
d="M208 339l-109 139q-6 8 -3.5 19t11.5 19l51 42q11 8 21.5 8t16.5 -8l109 -139l177 146q10 8 21 8t17 -8l43 -55q7 -8 4.5 -19t-12.5 -19l-177 -146l111 -139q6 -8 4 -19t-13 -19l-51 -43q-10 -8 -21 -8t-17 8l-110 140l-176 -145q-10 -8 -20.5 -8t-17.5 8l-44 54
q-6 8 -3.5 19t11.5 19z" />
    <glyph glyph-name="divide" unicode="&#xf7;" horiz-adv-x="521" 
d="M287 201q11 0 17 -8t4 -19l-20 -98q-3 -11 -12.5 -19t-20.5 -8h-93q-11 0 -17 8t-4 19l20 98q2 11 12 19t21 8h93zM57 241q-11 0 -17.5 8t-4.5 19l14 66q2 11 12 19t21 8h385q11 0 17 -8t4 -19l-14 -66q-2 -11 -11.5 -19t-20.5 -8h-385zM361 551q11 0 17 -8t4 -19
l-20 -98q-3 -11 -12.5 -19t-20.5 -8h-93q-11 0 -17 8t-4 19l20 98q2 11 12 19t21 8h93z" />
    <glyph glyph-name="thorn" unicode="&#xfe;" horiz-adv-x="619" 
d="M296 -10q-31 0 -56 6t-43.5 15t-30.5 19.5t-18 19.5l-46 -213q-2 -11 -11.5 -19t-20.5 -8h-76q-11 0 -17.5 8t-4.5 19l181 846q2 11 11.5 19t20.5 8h76q11 0 17.5 -8t4.5 -19l-46 -213q7 7 19 17t30.5 19.5t44 16.5t60.5 7q46 0 83.5 -20.5t61.5 -54.5t34 -78t3 -90
l-7 -35t-8 -35q-12 -46 -34 -87.5t-55 -72.5t-76 -49t-97 -18zM430 232q5 15 7.5 28t4.5 28q7 64 -20.5 93t-76.5 29t-88.5 -29t-56.5 -83q-5 -15 -9.5 -38t-6.5 -38q-6 -52 21 -82t76 -30t89 28.5t60 93.5z" />
    <glyph glyph-name="afii61352" unicode="&#x2116;" horiz-adv-x="1221" 
d="M1188 358q-13 -59 -35 -105.5t-57 -78.5t-85 -49t-119 -17q-54 0 -98 17t-72.5 49t-39.5 78.5t2 105.5q25 118 95 183.5t200 65.5q54 0 98 -17t72.5 -49t39.5 -78t-1 -105zM814 358q-15 -69 12 -99.5t82 -30.5t95 30.5t55 99.5q14 69 -13 99t-82 30t-95 -30t-54 -99z
M1101 78q11 0 17.5 -8t3.5 -19l-5 -24q-2 -11 -11.5 -19t-20.5 -8h-450q-11 0 -17.5 8t-4.5 19l5 24q3 11 12.5 19t20.5 8h450zM473 0q-17 0 -24.5 9.5t-10.5 14.5l-200 427l-91 -424q-2 -11 -11.5 -19t-20.5 -8h-81q-11 0 -17.5 8t-4.5 19l138 646q2 11 11.5 19t20.5 8h58
q17 0 24.5 -9t9.5 -14l203 -429l89 425q2 11 11.5 19t20.5 8h81q11 0 17.5 -8t4.5 -19l-137 -646q-2 -11 -11.5 -19t-20.5 -8h-59z" />
    <glyph glyph-name="uni2206" unicode="&#x2206;" horiz-adv-x="672" 
d="M452 660q22 0 29 -11.5t9 -21.5l106 -525q2 -6 2 -12.5t-2 -17.5l-10 -45q-2 -11 -11.5 -19t-20.5 -8h-558q-11 0 -17.5 8t-4.5 19l10 45q3 14 5.5 19t6.5 11l330 525q7 11 17.5 22t33.5 11h75zM466 120l-75 378l-238 -378h313z" />
    <glyph glyph-name="product" unicode="&#x220f;" horiz-adv-x="642" 
d="M260 580l-160 -753q-2 -11 -12 -19t-21 -8h-76q-11 0 -17 8t-4 19l180 846q2 11 11.5 19t20.5 8h448q11 0 17.5 -8t4.5 -19l-180 -846q-2 -11 -12 -19t-21 -8h-76q-11 0 -17 8t-4 19l160 753h-242z" />
    <glyph glyph-name="summation" unicode="&#x2211;" horiz-adv-x="584" 
d="M420 -80q11 0 17.5 -8t4.5 -19l-14 -66q-2 -11 -12 -19t-21 -8h-434q-11 0 -17 8t-4 19l14 66q2 11 8.5 18.5t15.5 15.5l396 321l-259 325q-6 8 -8.5 15.5t-0.5 18.5l14 66q2 11 11.5 19t20.5 8h434q11 0 17.5 -8t4.5 -19l-14 -66q-2 -11 -12 -19t-21 -8h-292l239 -302
q7 -8 11.5 -15.5t2.5 -18.5l-6 -28q-2 -11 -10 -18.5t-19 -15.5l-340 -262h273z" />
    <glyph glyph-name="radical" unicode="&#x221a;" horiz-adv-x="729" 
d="M803 860q11 0 17.5 -8t4.5 -19l-14 -66q-2 -11 -12 -19t-21 -8h-119l-364 -715q-5 -11 -14 -18t-24 -7h-107q-15 0 -20.5 7t-7.5 18l-63 461q-3 19 9.5 26.5t23.5 7.5h65q15 0 21 -8t7 -16l43 -335l338 675q5 9 14 16.5t24 7.5h199z" />
    <glyph glyph-name="infinity" unicode="&#x221e;" horiz-adv-x="897" 
d="M422 159q-25 -27 -46.5 -48t-44 -35.5t-49.5 -22t-63 -7.5q-48 0 -85 20t-60 52t-31 73.5t1 84.5t28.5 83t50.5 70.5t73.5 48.5t98.5 18q36 0 62 -7.5t45.5 -22t34 -35.5t28.5 -48q25 27 46 48t43.5 35.5t49.5 22t63 7.5q48 0 85 -20t60 -52t31 -73.5t-1 -84.5t-28.5 -83
t-50 -70.5t-73.5 -48.5t-99 -18q-36 0 -62 7.5t-45.5 22t-34 35.5t-27.5 48zM651 376q-20 0 -36.5 -7.5t-32.5 -21t-32.5 -33t-37.5 -43.5q10 -24 19 -43.5t19 -33t23.5 -21t33.5 -7.5q12 0 27.5 5t31 17t28.5 32.5t19 50.5t2 50.5t-14.5 32.5t-24 17t-25.5 5zM279 376
q-12 0 -27.5 -5t-31 -17t-28.5 -32.5t-19 -50.5t-2 -50.5t14.5 -32.5t24 -17t25.5 -5q20 0 36.5 7.5t32 21t32.5 33t38 43.5q-11 24 -19.5 43.5t-18.5 33t-23.5 21t-33.5 7.5z" />
    <glyph glyph-name="integral" unicode="&#x222b;" horiz-adv-x="518" 
d="M36 -80q38 0 61.5 17t31.5 55l122 573q20 97 78.5 136t156.5 39h81q11 0 17 -8t4 -19l-14 -66q-2 -11 -12 -19t-21 -8h-71q-38 0 -61.5 -17t-31.5 -55l-122 -573q-20 -97 -78.5 -136t-156.5 -39h-81q-11 0 -17 8t-4 19l14 66q2 11 12 19t21 8h71v0z" />
    <glyph glyph-name="lozenge" unicode="&#x25ca;" horiz-adv-x="565" 
d="M52 327q-4 14 -2.5 26.5t14.5 29.5l218 294q8 11 22.5 22t34.5 11h62q20 0 30 -11t13 -22l94 -294q9 -29 -12 -56l-218 -294q-8 -11 -22.5 -22t-34.5 -11h-62q-20 0 -30 11t-13 22zM351 558l-170 -223l59 -187l169 231z" />
    <glyph glyph-name="caron" unicode="&#x2c7;" horiz-adv-x="360" 
d="M137 595q-11 0 -18 4t-15 15l-70 102q-7 10 -1 19.5t18 9.5h35q10 0 15.5 -2.5t13.5 -8.5l65 -47l83 47q10 6 16.5 8.5t16.5 2.5h48q14 0 15.5 -10t-9.5 -21l-112 -100q-12 -11 -21 -15t-20 -4h-60z" />
    <glyph glyph-name="alefhebrew" unicode="&#x5d0;" horiz-adv-x="577" 
d="M542 402q-13 -61 -49.5 -115.5t-96.5 -90.5l75 -162q7 -16 -4.5 -25t-23.5 -9h-83q-10 0 -15 7t-9 15l-116 256q-44 -34 -57 -99l-33 -152q-2 -11 -11.5 -19t-20.5 -8h-76q-11 0 -17.5 8t-4.5 19l34 157q13 59 47 111.5t90 89.5l-69 153q-5 12 5 22.5t23 10.5h84
q10 0 14.5 -6.5t7.5 -14.5l113 -248q23 17 39.5 43t24.5 62l29 137q2 11 12 19t21 8h76q11 0 17 -8t4 -19z" />
    </font>
</defs>
</svg>
