<?xml version="1.0" standalone="no"?>
<!DOCTYPE svg PUBLIC "-//W3C//DTD SVG 1.1//EN" "http://www.w3.org/Graphics/SVG/1.1/DTD/svg11.dtd" >
<svg xmlns="http://www.w3.org/2000/svg" xmlns:xlink="http://www.w3.org/1999/xlink" version="1.1">
<metadata>
Created by FontForge 20230101 at Fri Sep  1 09:42:31 2023
 By Glenn Lewis
Copyright 2019 The Karla Project Authors (https://github.com/googlefonts/karla)
</metadata>
<defs>
<font id="Karla-MediumItalic" horiz-adv-x="1200" >
  <font-face 
    font-family="Karla Medium"
    font-weight="500"
    font-style="italic"
    font-stretch="normal"
    units-per-em="2000"
    panose-1="2 11 0 4 3 5 3 3 0 3"
    ascent="1600"
    descent="-400"
    x-height="964"
    cap-height="1277"
    bbox="-232 -497 1843.31 1936"
    underline-thickness="50"
    underline-position="-125"
    slope="-8"
    unicode-range="U+000D-FB02"
  />
<missing-glyph horiz-adv-x="1031" 
d="M10 1645h1011v-1640h-1011v1640zM0 1655v-1660h1031v1660h-1031zM1021 5q-91 132 -179.5 284t-180.5 317.5t-192 339t-213.5 350t-245.5 349.5q139 -228 269 -451.5t254.5 -434.5t246 -401.5t241.5 -352.5zM10 5q120 162 241.5 352.5t246 401.5t254.5 434.5t269 451.5
q-132 -173 -245.5 -349.5t-213.5 -350t-192 -339t-180.5 -317.5t-179.5 -284z" />
    <glyph glyph-name="fi" unicode="fi" horiz-adv-x="1201" 
d="M158 831l13 133h134l14 130q9 102 50 165.5t102.5 93.5t129.5 30q39 0 81.5 -6.5t82.5 -18.5l-48 -152q-24 10 -49.5 16.5t-50.5 6.5q-27 0 -53 -12t-44.5 -41.5t-24.5 -83.5l-13 -128h171l-13 -133h-171l-77 -831h-175l76 831h-135zM1023 1165q-52 0 -78.5 32t-23.5 86
q5 51 37.5 84.5t85.5 33.5t79.5 -32.5t22.5 -85.5q-5 -55 -38.5 -86.5t-84.5 -31.5zM825 0l91 966h176l-91 -966h-176z" />
    <glyph glyph-name="fl" unicode="fl" horiz-adv-x="1163" 
d="M158 831l13 133h134l14 130q9 102 50 165.5t102.5 93.5t129.5 30q39 0 81.5 -6.5t82.5 -18.5l-48 -152q-24 10 -49.5 16.5t-50.5 6.5q-27 0 -53 -12t-44.5 -41.5t-24.5 -83.5l-13 -128h171l-13 -133h-171l-77 -831h-175l76 831h-135zM812 0l128 1367h177l-129 -1367h-176
z" />
    <glyph glyph-name=".notdef" horiz-adv-x="1031" 
d="M10 1645h1011v-1640h-1011v1640zM0 1655v-1660h1031v1660h-1031zM1021 5q-91 132 -179.5 284t-180.5 317.5t-192 339t-213.5 350t-245.5 349.5q139 -228 269 -451.5t254.5 -434.5t246 -401.5t241.5 -352.5zM10 5q120 162 241.5 352.5t246 401.5t254.5 434.5t269 451.5
q-132 -173 -245.5 -349.5t-213.5 -350t-192 -339t-180.5 -317.5t-179.5 -284z" />
    <glyph glyph-name=".null" horiz-adv-x="0" 
 />
    <glyph glyph-name="CR" unicode="&#xd;" 
 />
    <glyph glyph-name="uni00A0" unicode="&#xa0;" horiz-adv-x="442" 
 />
    <glyph glyph-name="space" unicode=" " horiz-adv-x="442" 
 />
    <glyph glyph-name="comma" unicode="," horiz-adv-x="416" 
d="M155 -244l-123 72q58 30 102.5 70t62.5 92q-45 8 -74 38.5t-24 80.5q6 51 44 87t94 36q45 0 75 -25.5t44 -67t9 -91.5q-5 -53 -31 -108t-71 -103.5t-108 -80.5z" />
    <glyph glyph-name="period" unicode="." horiz-adv-x="353" 
d="M172 -18q-55 0 -87.5 39t-26.5 97q7 56 46 95t94 39q54 0 87.5 -37.5t28.5 -96.5t-46 -97.5t-96 -38.5z" />
    <glyph glyph-name="semicolon" unicode=";" horiz-adv-x="512" 
d="M207 -244l-124 72q58 30 102.5 70t62.5 92q-45 7 -73.5 39t-24.5 80q5 51 43.5 87t93.5 36q68 0 102.5 -53t25.5 -131q-8 -83 -63 -164t-145 -128zM336 635q-55 0 -87.5 38t-26.5 96q5 55 42.5 95.5t94.5 40.5q56 0 89 -39.5t28 -96.5q-5 -56 -45 -95t-95 -39z" />
    <glyph glyph-name="colon" unicode=":" horiz-adv-x="450" 
d="M283 629q-55 0 -87 38.5t-27 95.5q6 56 44 96t94 40q55 0 88 -39.5t28 -96.5t-45 -95.5t-95 -38.5zM223 31q-57 0 -87.5 41t-25.5 94q5 56 43.5 95.5t94.5 39.5q57 0 89 -40t27 -95q-5 -57 -45 -96t-96 -39z" />
    <glyph glyph-name="hyphen" unicode="-" horiz-adv-x="649" 
d="M123 507l17 170h497l-16 -170h-498z" />
    <glyph glyph-name="endash" unicode="&#x2013;" horiz-adv-x="898" 
d="M147 507l16 170h700l-17 -170h-699z" />
    <glyph glyph-name="emdash" unicode="&#x2014;" horiz-adv-x="1343" 
d="M147 507l16 170h1146l-16 -170h-1146z" />
    <glyph glyph-name="exclam" unicode="!" horiz-adv-x="514" 
d="M224 394l63 896h189l-104 -896h-148zM259 -18q-56 0 -88 40t-27 94q5 56 44 96t96 40t89.5 -40t26.5 -96q-6 -55 -45 -94.5t-96 -39.5z" />
    <glyph glyph-name="a" unicode="a" horiz-adv-x="1029" 
d="M434 -25q-105 0 -173.5 43t-99 111.5t-22.5 146.5q9 95 58.5 157.5t131 94t183.5 31.5q63 0 124 -12.5t116 -33.5l11 110q13 116 -26.5 169t-132.5 53q-54 0 -97 -17.5t-70 -52.5t-32 -87h-194q11 110 67 176t142 95.5t184 29.5q177 0 264.5 -90t69.5 -282l-58 -617h-152
q-1 37 -0.5 73.5t-0.5 73.5q-50 -86 -123 -129t-170 -43zM477 125q68 0 126.5 33t95.5 92.5t41 138.5q-49 16 -105 26t-105 10q-81 0 -139 -33.5t-66 -115.5q-5 -64 34.5 -107.5t117.5 -43.5z" />
    <glyph glyph-name="b" unicode="b" horiz-adv-x="1078" 
d="M593 -25q-84 0 -148.5 48.5t-95.5 144.5l-56 -168h-118l128 1367h177l-52 -536q48 76 118 117t153 41q96 0 172 -52.5t120 -149t44 -227.5q0 -91 -27 -193t-81.5 -191t-138 -145t-195.5 -56zM584 151q70 0 121 36.5t84.5 95.5t49.5 127.5t16 131.5q0 125 -58.5 198.5
t-149.5 73.5q-57 0 -111 -30.5t-91 -89t-44 -141.5l-11 -122q-7 -81 15.5 -144t69 -99.5t109.5 -36.5z" />
    <glyph glyph-name="c" unicode="c" horiz-adv-x="940" 
d="M490 -25q-108 0 -195 62t-132 176t-31 270q15 162 81.5 274.5t164.5 172t207 59.5q77 0 135.5 -27.5t99 -74t62 -105.5t25.5 -121l-178 -11q-13 73 -54 118.5t-109 45.5q-59 0 -113.5 -36.5t-92.5 -110t-49 -184.5q-9 -105 12.5 -179.5t69 -113.5t113.5 -39
q85 0 135 48.5t58 134.5h178q-8 -101 -58.5 -182.5t-135 -129t-193.5 -47.5z" />
    <glyph glyph-name="d" unicode="d" horiz-adv-x="1087" 
d="M488 -25q-100 0 -178.5 54.5t-124 152.5t-45.5 228q0 105 29 207.5t84.5 186.5t135 134.5t180.5 50.5q86 0 147 -39.5t96 -116.5l51 534h177l-129 -1367h-144l-8 157q-49 -91 -121 -136.5t-150 -45.5zM528 151q53 0 106 30.5t91.5 88t45.5 137.5l15 160q2 9 2 14v13
q1 72 -27 121t-73 74t-98 25q-71 0 -122.5 -36.5t-83.5 -95t-47.5 -125.5t-15.5 -127q0 -127 58 -203t149 -76z" />
    <glyph glyph-name="e" unicode="e" horiz-adv-x="940" 
d="M485 -25q-113 0 -198 62t-127.5 175.5t-27.5 268.5q15 158 78.5 272t159.5 175t209 61q89 0 152.5 -35t102.5 -95.5t55.5 -138t9.5 -163.5q-2 -28 -6.5 -58.5t-11.5 -62.5h-624l49 35q-12 -95 3.5 -172t62.5 -121.5t129 -44.5q70 0 122 38.5t70 113.5h180
q-23 -95 -78.5 -164.5t-135 -107.5t-174.5 -38zM311 531l-39 28h508l-49 -24q11 76 1.5 144t-48 111t-117.5 43q-73 0 -127 -40.5t-86.5 -109t-42.5 -152.5z" />
    <glyph glyph-name="f" unicode="f" horiz-adv-x="637" 
d="M158 831l13 133h134l14 130q9 102 50 165.5t102.5 93.5t129.5 30q39 0 81.5 -6.5t82.5 -18.5l-48 -152q-24 10 -49.5 16.5t-50.5 6.5q-27 0 -53 -12t-44.5 -41.5t-24.5 -83.5l-13 -128h171l-13 -133h-171l-77 -831h-175l76 831h-135z" />
    <glyph glyph-name="g" unicode="g" horiz-adv-x="1031" 
d="M441 -497q-134 0 -231.5 42t-147.5 114t-42 161q8 83 61.5 139.5t133.5 73.5q-49 32 -72 76.5t-19 97.5q6 69 51 116.5t111 65.5q-42 47 -63 110t-14 141q11 106 67 184.5t142 121.5t185 43q63 0 117 -17t95 -49q15 74 54.5 128.5t97.5 85t127 30.5l-31 -190
q-76 0 -120.5 -31t-53.5 -99q26 -42 38.5 -94t7.5 -113q-9 -104 -66 -183t-145 -123t-193 -44q-41 0 -82.5 10t-77.5 28q-33 -8 -60 -35t-33 -71q-5 -44 25.5 -71.5t113.5 -27.5h314q129 0 198.5 -56t60.5 -167q-8 -100 -78 -191t-190.5 -148.5t-280.5 -57.5zM448 -341
q107 0 187.5 33t127 85t50.5 110q3 45 -21 71t-74 26h-329q-85 0 -137 -45t-56 -110q-4 -76 63 -123t189 -47zM553 429q62 0 106.5 28t70.5 76t31 107q9 94 -35.5 152.5t-132.5 58.5q-91 0 -146.5 -59t-63.5 -152q-8 -90 35.5 -150.5t134.5 -60.5z" />
    <glyph glyph-name="h" unicode="h" horiz-adv-x="1105" 
d="M175 0l128 1367h177l-55 -570q53 93 128.5 142.5t168.5 49.5q105 0 173 -52t97 -147t17 -225l-53 -565h-175l52 565q13 123 -34.5 186t-133.5 63q-71 0 -127 -40t-92.5 -117.5t-50.5 -189.5l-44 -467h-176z" />
    <glyph glyph-name="i" unicode="i" horiz-adv-x="563" 
d="M386 1165q-52 0 -78.5 32t-23.5 86q5 51 37.5 84.5t85.5 33.5t79.5 -32.5t22.5 -85.5q-5 -55 -38.5 -86.5t-84.5 -31.5zM188 0l91 966h176l-91 -966h-176z" />
    <glyph glyph-name="j" unicode="j" horiz-adv-x="583" 
d="M404 1165q-49 0 -77 31.5t-23 86.5q5 54 38.5 86t85.5 32t79 -32t21 -86q-4 -53 -37 -85.5t-87 -32.5zM53 -497q-65 0 -122.5 18t-115.5 50l22 170q44 -29 93.5 -48t97.5 -19q72 0 114 46.5t54 156.5l103 1091h176l-104 -1093q-12 -135 -55 -216.5t-110 -118.5t-153 -37z
" />
    <glyph glyph-name="k" unicode="k" horiz-adv-x="1025" 
d="M779 0l-276 491l-115 -97l-37 -394h-176l128 1367h177l-72 -766l416 363h242l-426 -359l355 -605h-216z" />
    <glyph glyph-name="l" unicode="l" horiz-adv-x="525" 
d="M175 0l128 1367h177l-129 -1367h-176z" />
    <glyph glyph-name="m" unicode="m" horiz-adv-x="1695" 
d="M174 0l91 964h152q1 -44 1 -88t1 -89q53 100 130 151t172 51q111 0 180.5 -58t95.5 -162q53 114 135.5 167t183.5 53q105 0 172.5 -51.5t96 -147t16.5 -225.5l-52 -565h-176l52 565q11 121 -35.5 185t-134.5 64q-72 0 -126 -42t-87 -122t-46 -198l-41 -452h-176l52 565
q14 124 -34.5 186.5t-132.5 62.5q-110 0 -183 -96t-90 -275l-41 -443h-176z" />
    <glyph glyph-name="n" unicode="n" horiz-adv-x="1103" 
d="M174 0l91 964h152l2 -177q53 100 130 151t172 51q105 0 173 -51.5t97 -147t16 -225.5l-52 -565h-176l52 565q14 124 -34.5 186.5t-132.5 62.5q-110 0 -183 -96t-90 -275l-41 -443h-176z" />
    <glyph glyph-name="o" unicode="o" horiz-adv-x="999" 
d="M498 -25q-118 0 -207 57t-132 169.5t-27 279.5q16 169 81 282t164.5 169.5t216.5 56.5t205 -57.5t132 -170t28 -280.5q-17 -167 -82 -279.5t-163 -169.5t-216 -57zM507 145q111 0 184 87.5t90 248.5q16 163 -36.5 251t-162.5 88t-182 -87.5t-88 -251.5
q-11 -106 8.5 -181.5t66.5 -115t120 -39.5z" />
    <glyph glyph-name="p" unicode="p" horiz-adv-x="1084" 
d="M129 -472l137 1436h144q1 -35 3 -70t2 -69q51 82 121.5 123t150.5 41q102 0 185.5 -60t129 -173.5t29.5 -272.5q-14 -160 -81 -273.5t-163.5 -174t-202.5 -60.5q-77 0 -134.5 31t-90.5 91l-54 -569h-176zM580 151q58 0 116.5 37t101.5 110.5t54 184.5q10 105 -14.5 178.5
t-74.5 113t-119 39.5q-58 0 -110.5 -30t-87.5 -87t-43 -141l-17 -166q-6 -76 17.5 -129t69.5 -81.5t107 -28.5z" />
    <glyph glyph-name="q" unicode="q" horiz-adv-x="1074" 
d="M923 -497q-133 39 -181 122t-33 233l26 283q-40 -77 -103 -121.5t-149 -44.5q-104 0 -189 61t-130 174.5t-31 272.5q15 159 81 272.5t161.5 173.5t196.5 60q83 0 148.5 -45t98.5 -134l54 154h117l-106 -1120q-6 -63 1 -99t32 -56.5t72 -39.5zM524 151q54 0 105.5 28
t86.5 82t42 129l18 181q0 80 -25 134t-69 81.5t-99 27.5q-68 0 -125 -39t-95.5 -113t-49.5 -179q-11 -112 17.5 -185.5t81 -110t112.5 -36.5z" />
    <glyph glyph-name="r" unicode="r" horiz-adv-x="716" 
d="M174 0l91 966h176l-18 -187q47 104 111.5 153.5t142.5 49.5q20 0 42 -3.5t43 -12.5l-23 -194q-26 7 -53 11.5t-53 4.5q-72 0 -123 -43t-80.5 -123t-39.5 -193l-40 -429h-176z" />
    <glyph glyph-name="s" unicode="s" horiz-adv-x="947" 
d="M475 -25q-111 0 -192.5 38.5t-124 109t-33.5 166.5h166q-6 -77 45.5 -118.5t138.5 -41.5q88 0 142.5 38.5t61.5 96.5q6 51 -29 78.5t-93 47.5l-172 69q-100 38 -151.5 104t-41.5 160q9 81 57.5 141t130 92.5t185.5 32.5q166 0 247 -77t74 -194h-169q-1 57 -43 87t-115 30
q-59 0 -97.5 -17.5t-59.5 -44.5t-26 -58q-5 -47 28.5 -77.5t88.5 -48.5l182 -75q96 -35 151.5 -95.5t46.5 -154.5q-7 -74 -56.5 -140t-135.5 -107.5t-206 -41.5z" />
    <glyph glyph-name="t" unicode="t" horiz-adv-x="693" 
d="M450 -25q-73 0 -130 30.5t-85 93.5t-20 160l56 611l41 -35h-176l15 129h174l-50 -45l30 306h176l-30 -306l-40 45h300l-14 -129h-300l49 35l-57 -607q-6 -67 20.5 -100t83.5 -33q30 0 64.5 8.5t77.5 25.5l12 -138q-50 -23 -97.5 -37t-99.5 -14z" />
    <glyph glyph-name="u" unicode="u" horiz-adv-x="1109" 
d="M479 -18q-95 0 -165.5 38.5t-105.5 120.5t-23 211l59 614h176l-57 -596q-10 -108 32 -162.5t129 -54.5q72 0 131.5 42.5t99 120.5t49.5 185l44 465h176l-90 -966h-177l17 182q-51 -98 -127 -149t-168 -51z" />
    <glyph glyph-name="v" unicode="v" horiz-adv-x="920" 
d="M118 964h201l159 -764l303 764h202l-426 -964h-196z" />
    <glyph glyph-name="w" unicode="w" horiz-adv-x="1333" 
d="M118 964h184l125 -728l249 678h156l121 -686l264 736h176l-375 -964h-173l-122 627l-235 -627h-173z" />
    <glyph glyph-name="x" unicode="x" horiz-adv-x="959" 
d="M37 0l379 481l-288 485h217l198 -337l253 337h214l-379 -485l287 -481h-214l-201 338l-249 -338h-217z" />
    <glyph glyph-name="y" unicode="y" horiz-adv-x="889" 
d="M183 -497q-58 0 -111.5 17t-107.5 50l17 175q44 -37 88 -54t91 -17q48 0 85.5 32t66.5 84t51 114l36 96l-261 964h199l167 -731l263 731h179l-438 -1147q-40 -106 -89 -175.5t-107 -104t-129 -34.5z" />
    <glyph glyph-name="z" unicode="z" horiz-adv-x="871" 
d="M99 0l14 159l541 646h-481l17 159h677l-17 -159l-530 -646h469l-14 -159h-676z" />
    <glyph glyph-name="A" unicode="A" horiz-adv-x="1079" 
d="M43 0l514 1277h218l262 -1277h-186l-62 301h-441l-119 -301h-186zM407 451h353l-119 592z" />
    <glyph glyph-name="B" unicode="B" horiz-adv-x="1142" 
d="M175 0l120 1277h448q129 0 210.5 -45.5t116 -122t25.5 -168.5q-10 -108 -72 -187.5t-168 -109.5q66 -14 114.5 -55t72.5 -102t17 -135q-5 -63 -30.5 -125.5t-76 -113.5t-131.5 -82t-198 -31h-448zM366 171h269q115 0 171 52.5t64 138.5q10 86 -40.5 138t-158.5 52h-269z
M454 1109l-36 -387h265q99 0 159.5 52t68.5 144q8 88 -41 139.5t-151 51.5h-265z" />
    <glyph glyph-name="C" unicode="C" horiz-adv-x="1123" 
d="M579 -25q-152 0 -255.5 82t-149 232.5t-25.5 354.5q20 214 98 360.5t197 221.5t261 75q192 0 295 -105.5t125 -273.5l-194 -40q-20 110 -83.5 176.5t-159.5 66.5q-83 0 -157.5 -54t-126 -161t-66.5 -266q-14 -147 10.5 -257.5t86 -172t161.5 -61.5q125 0 203 73.5
t90 191.5h188q-12 -140 -78 -239t-173.5 -151.5t-246.5 -52.5z" />
    <glyph glyph-name="D" unicode="D" horiz-adv-x="1211" 
d="M293 1277h356q176 0 298 -78.5t180.5 -222t40.5 -337.5t-104 -337.5t-223.5 -222.5t-311.5 -79h-356zM452 1101l-86 -926h179q121 0 213.5 60.5t149.5 165t70 238.5t-24.5 238.5t-119.5 164t-203 59.5h-179z" />
    <glyph glyph-name="E" unicode="E" horiz-adv-x="1032" 
d="M173 0l120 1277h724l-18 -168h-547l-36 -384h514l-15 -168h-515l-36 -386h548l-15 -171h-724z" />
    <glyph glyph-name="F" unicode="F" horiz-adv-x="963" 
d="M175 0l120 1277h712l-18 -168h-535l-36 -382h493l-15 -168h-494l-51 -559h-176z" />
    <glyph glyph-name="G" unicode="G" horiz-adv-x="1188" 
d="M583 -25q-139 0 -244 80.5t-158 227t-34 344.5q16 162 69.5 287t136 211t185 130.5t215.5 44.5q147 0 246.5 -69.5t150.5 -219.5l-181 -54q-44 83 -104.5 124.5t-137.5 41.5q-94 0 -178 -59.5t-141.5 -170.5t-72.5 -266q-13 -140 17 -246t96.5 -166t164.5 -60
q78 0 145.5 37t112 111.5t51.5 184.5q2 16 1 30.5t-6 41.5l52 -54l-318 11l12 127h443l-59 -644h-143q-1 61 -0.5 123t-1.5 122l14 3q-45 -129 -127.5 -201t-205.5 -72z" />
    <glyph glyph-name="H" unicode="H" horiz-adv-x="1236" 
d="M175 0l120 1277h176l-53 -548h534l53 548h177l-121 -1277h-176l51 559h-534l-51 -559h-176z" />
    <glyph glyph-name="I" unicode="I" horiz-adv-x="525" 
d="M175 0l120 1277h176l-120 -1277h-176z" />
    <glyph glyph-name="J" unicode="J" horiz-adv-x="763" 
d="M26 58l19 199q63 -47 127 -69.5t123 -22.5q87 0 130 56t54 162l84 894h178l-85 -894q-14 -146 -64 -236t-126.5 -131t-172.5 -41q-78 0 -143 23.5t-124 59.5z" />
    <glyph glyph-name="K" unicode="K" horiz-adv-x="1136" 
d="M295 1277h178l-52 -558l536 558h242l-557 -573l469 -704h-228l-374 567l-114 -118l-42 -449h-178z" />
    <glyph glyph-name="L" unicode="L" horiz-adv-x="865" 
d="M175 0l120 1277h176l-105 -1106h493l-16 -171h-668z" />
    <glyph glyph-name="M" unicode="M" horiz-adv-x="1549" 
d="M175 0l120 1277h253l273 -813l428 813h246l-121 -1277h-177l97 1054l17 -2l-462 -902h-116l-300 930l18 -2l-100 -1078h-176z" />
    <glyph glyph-name="N" unicode="N" horiz-adv-x="1260" 
d="M171 0l120 1277h198l479 -1020l-35 3l98 1017h176l-120 -1277h-185l-494 1038l37 -3l-97 -1035h-177z" />
    <glyph glyph-name="O" unicode="O" horiz-adv-x="1195" 
d="M593 -25q-148 0 -255.5 74t-158.5 221.5t-30 368.5q21 223 100 370.5t200.5 219.5t269.5 72q149 0 257.5 -73.5t160 -221t31.5 -367.5q-22 -224 -101.5 -371t-201.5 -220t-272 -73zM611 153q150 0 250.5 124.5t123.5 362.5q23 231 -54.5 358t-227.5 127
q-151 0 -250.5 -127t-121.5 -359q-23 -238 53.5 -362t226.5 -124z" />
    <glyph glyph-name="P" unicode="P" horiz-adv-x="1021" 
d="M170 0l120 1277h389q128 0 212.5 -48t123.5 -137.5t26 -215.5q-17 -185 -132 -291t-306 -106h-211l-45 -479h-177zM408 649h211q108 0 170 63t70 164q10 104 -39.5 168.5t-158.5 64.5h-211z" />
    <glyph glyph-name="Q" unicode="Q" horiz-adv-x="1203" 
d="M913 -347q-84 0 -150 49.5t-113 140.5l-68 132q-145 3 -250 78t-154.5 221t-28.5 365q21 223 100 370.5t200.5 219.5t269.5 72q149 0 257.5 -73.5t160 -221t31.5 -367.5q-27 -272 -138 -431t-274 -209l36 -70q25 -43 55.5 -60.5t63.5 -19.5q46 0 88.5 13t90.5 35
l-20 -206q-43 -21 -81 -29.5t-76 -8.5zM611 153q150 0 250.5 124.5t123.5 362.5q23 231 -54.5 358t-227.5 127q-151 0 -250.5 -127t-121.5 -359q-23 -238 53.5 -362t226.5 -124z" />
    <glyph glyph-name="R" unicode="R" horiz-adv-x="1131" 
d="M175 0l120 1277h412q202 0 298.5 -106t79.5 -279q-14 -141 -95.5 -238.5t-223.5 -129.5l270 -524h-228l-229 510h-181l-47 -510h-176zM410 643h221q123 0 192.5 65t78.5 168q10 106 -44 169.5t-167 63.5h-237z" />
    <glyph glyph-name="S" unicode="S" horiz-adv-x="1117" 
d="M555 -25q-117 0 -211 46t-145.5 138.5t-42.5 231.5h174q-8 -81 23 -133.5t88 -77.5t128 -25q74 0 132 24t93 65t40 94q7 72 -28 115t-114 74l-207 92q-132 56 -197.5 130.5t-53.5 209.5q16 152 132 247t309 95q185 0 278 -95t93 -260h-174q-5 82 -57 129.5t-156 47.5
q-102 0 -163.5 -48.5t-69.5 -121.5q-5 -61 27.5 -98t106.5 -66l235 -100q121 -50 183.5 -133t50.5 -212q-10 -109 -68.5 -192t-161.5 -130t-244 -47z" />
    <glyph glyph-name="T" unicode="T" horiz-adv-x="929" 
d="M376 0l104 1109h-365l17 168h907l-17 -168h-366l-104 -1109h-176z" />
    <glyph glyph-name="U" unicode="U" horiz-adv-x="1209" 
d="M601 -25q-210 0 -318.5 128t-86.5 368l78 806h176l-78 -806q-15 -167 54 -241.5t191 -74.5q123 0 206 74.5t99 241.5l78 806h176l-77 -806q-15 -160 -80 -271t-172 -168t-246 -57z" />
    <glyph glyph-name="V" unicode="V" horiz-adv-x="1052" 
d="M155 1277h186l206 -1032l406 1032h185l-521 -1277h-185z" />
    <glyph glyph-name="W" unicode="W" horiz-adv-x="1672" 
d="M151 1277h197l169 -1016l351 908h119l184 -912l394 1020h197l-521 -1277h-186l-160 769l-310 -769h-184z" />
    <glyph glyph-name="X" unicode="X" horiz-adv-x="1193" 
d="M74 0l464 635l-345 642h214l264 -491l325 491h212l-453 -639l362 -638h-221l-273 481l-334 -481h-215z" />
    <glyph glyph-name="Y" unicode="Y" horiz-adv-x="1037" 
d="M425 0l49 526l-330 751h209l229 -548l344 548h207l-482 -751l-49 -526h-177z" />
    <glyph glyph-name="Z" unicode="Z" horiz-adv-x="1098" 
d="M132 0l15 172l724 923l-637 4l18 178h857l-17 -171l-723 -923l635 -4l-16 -179h-856z" />
    <glyph glyph-name="quotesingle" unicode="'" horiz-adv-x="283" 
d="M152 897l20 457h180l-68 -457h-132z" />
    <glyph glyph-name="quoteleft" unicode="&#x2018;" horiz-adv-x="435" 
d="M285 798q-65 0 -100 54.5t-28 131.5q6 56 34 111t75 102.5t108 79.5l117 -74q-59 -31 -103 -71t-63 -92q45 -6 73.5 -36.5t23.5 -80.5q-5 -51 -43 -88t-94 -37z" />
    <glyph glyph-name="quoteright" unicode="&#x2019;" horiz-adv-x="435" 
d="M237 798l-115 75q58 31 102 71.5t62 91.5q-45 7 -73.5 37.5t-23.5 80.5q5 52 43 87.5t94 35.5q44 0 74.5 -24.5t44.5 -66.5t8 -95q-5 -55 -33 -109.5t-75 -102.5t-108 -81z" />
    <glyph glyph-name="parenleft" unicode="(" horiz-adv-x="679" 
d="M637 1481l117 -102q-113 -118 -193.5 -239.5t-128 -250t-60.5 -264.5q-12 -136 10.5 -264t80 -249.5t149.5 -238.5l-137 -104q-111 123 -179.5 261t-95 287.5t-11.5 307.5q24 237 135 455t313 401z" />
    <glyph glyph-name="parenright" unicode=")" horiz-adv-x="679" 
d="M159 -231l-118 104q114 117 195 238.5t128 249.5t60 264q12 136 -10.5 264.5t-80 250t-149.5 239.5l137 102q166 -183 237 -401t48 -455q-15 -158 -70 -307.5t-149 -287.5t-228 -261z" />
    <glyph glyph-name="plus" unicode="+" horiz-adv-x="1000" 
d="M459 985h178l-38 -407h360l-16 -167h-361l-37 -408h-176l37 408h-362l16 167h363z" />
    <glyph glyph-name="minus" unicode="&#x2212;" horiz-adv-x="1000" 
d="M99 408l21 167h783l-21 -167h-783z" />
    <glyph glyph-name="equal" unicode="=" horiz-adv-x="1000" 
d="M188 614l16 170h652l-16 -170h-652zM148 215l16 168h653l-16 -168h-653z" />
    <glyph glyph-name="zero" unicode="0" horiz-adv-x="1104" 
d="M547 -25q-138 0 -235 73t-140.5 220.5t-22.5 370.5q20 223 92 370t183.5 219.5t250.5 72.5q137 0 235 -72.5t142.5 -219.5t23.5 -370t-94 -370.5t-184.5 -220.5t-250.5 -73zM565 155q137 0 221 125.5t107 358.5q22 233 -39 358.5t-197 125.5q-134 0 -219 -125.5
t-107 -358.5q-23 -233 38 -358.5t196 -125.5z" />
    <glyph glyph-name="one" unicode="1" horiz-adv-x="618" 
d="M427 1283h136l-120 -1283h-176l98 1050q-46 -29 -95.5 -44t-94.5 -17l17 190q59 9 118 33t117 71z" />
    <glyph glyph-name="two" unicode="2" horiz-adv-x="1065" 
d="M309 229l-5 -49h662l-16 -180h-838l18 203q11 109 48 184t100.5 125t151.5 86l241 101q85 37 131.5 93t52.5 139q10 86 -40 142t-150 56q-96 0 -163.5 -49.5t-87.5 -145.5h-195q16 121 79 202.5t161.5 123t219.5 41.5q114 0 200.5 -48.5t131.5 -133.5t34 -197
q-14 -149 -96 -242.5t-224 -153.5l-245 -103q-82 -34 -123 -78.5t-48 -115.5z" />
    <glyph glyph-name="three" unicode="3" horiz-adv-x="1091" 
d="M545 -25q-88 0 -168.5 27t-141 80t-91.5 132t-21 183h187q-5 -78 26 -132t89.5 -82t137.5 -28q117 0 189 62t81 154q5 61 -18 106t-78 70.5t-146 25.5h-142l16 155h110q116 0 188.5 53.5t80.5 145.5q7 84 -43 140t-158 56q-85 0 -154.5 -38t-99.5 -137h-185
q38 188 162 270.5t289 82.5q119 0 208.5 -45t135.5 -124t37 -183q-9 -99 -66 -171t-157 -109q103 -37 161.5 -116t47.5 -198q-11 -112 -73.5 -198t-165.5 -134t-238 -48z" />
    <glyph glyph-name="four" unicode="4" horiz-adv-x="1037" 
d="M632 0l26 296h-588l14 149l676 848h166l-77 -829h199l-16 -168h-199l-28 -296h-173zM294 445h386l51 550z" />
    <glyph glyph-name="five" unicode="5" horiz-adv-x="1031" 
d="M518 -25q-117 0 -204.5 45.5t-133.5 133.5t-36 215h179q-9 -107 52 -160.5t160 -53.5q109 0 182.5 75.5t84.5 189.5q10 107 -50.5 162.5t-190.5 55.5h-329l112 639h663l-17 -178h-492l-60 -328q45 8 95 13t89 5q183 0 281.5 -94.5t80.5 -274.5q-11 -126 -73 -227
t-163 -159.5t-230 -58.5z" />
    <glyph glyph-name="six" unicode="6" horiz-adv-x="1061" 
d="M557 -26q-141 0 -239.5 84t-144 229t-28.5 329q21 217 95.5 370.5t192 234t264.5 80.5q109 0 187.5 -45t119.5 -126t38 -189h-188q-4 84 -44.5 133t-122.5 49q-111 0 -196.5 -84.5t-132.5 -238t-43 -359.5q23 127 77.5 200.5t127.5 104.5t151 31q106 0 183.5 -52
t116.5 -143t29 -208q-12 -120 -71.5 -210t-155.5 -140t-216 -50zM574 155q95 0 164.5 61.5t78.5 165.5q10 107 -48 167.5t-152 60.5q-61 0 -114 -29.5t-87 -81t-40 -117.5q-9 -104 48.5 -165.5t149.5 -61.5z" />
    <glyph glyph-name="seven" unicode="7" horiz-adv-x="870" 
d="M92 0l641 1089h-587l18 188h794l-18 -184l-610 -1093h-238z" />
    <glyph glyph-name="eight" unicode="8" horiz-adv-x="1134" 
d="M563 -25q-142 0 -243.5 48t-153 131t-41.5 189q12 122 94 199t201 95q-51 27 -99.5 71t-77.5 106t-22 144q10 103 69 180t160.5 120t238.5 43q124 0 217 -47t142 -128t39 -185q-9 -100 -78 -180t-187 -102l19 -8q121 -53 182 -125t49 -197q-10 -104 -74 -183.5
t-174.5 -125t-260.5 -45.5zM581 155q142 0 222 46t86 120q5 57 -29.5 97t-98.5 68l-188 81q-109 -9 -183 -68.5t-81 -136.5q-9 -98 70.5 -152.5t201.5 -54.5zM655 734q96 2 168.5 55.5t81.5 139.5q8 88 -56.5 141t-177.5 53q-70 0 -129 -23t-95.5 -62.5t-41.5 -87.5
q-6 -59 26.5 -94.5t95.5 -64.5z" />
    <glyph glyph-name="nine" unicode="9" horiz-adv-x="1071" 
d="M519 -25q-117 0 -203.5 51.5t-131 142.5t-33.5 209h185q-7 -103 46 -163t149 -60q153 0 233.5 143.5t104.5 383.5q3 35 4.5 66.5t-0.5 66.5q-25 -109 -77 -178.5t-123.5 -102.5t-154.5 -33q-105 0 -182.5 51.5t-116.5 142t-28 208.5q12 120 71.5 209.5t155 139
t213.5 49.5q135 0 235 -79.5t149 -223.5t31 -337q-20 -211 -85.5 -364.5t-175.5 -237.5t-266 -84zM574 666q60 0 112.5 30t87 81t40.5 117q10 106 -48.5 166.5t-151.5 60.5q-92 0 -160.5 -60.5t-79.5 -166.5q-11 -107 47 -167.5t153 -60.5z" />
    <glyph glyph-name="dollar" unicode="$" horiz-adv-x="1187" 
d="M509 -192l16 172q-112 12 -199.5 61t-134.5 136.5t-35 213.5h174q-10 -106 47 -162t166 -69l40 431l-71 28q-144 54 -216.5 129.5t-60.5 210.5q14 140 120 233t294 106l16 151h131l-15 -153q162 -16 242.5 -109t89.5 -241h-174q-6 68 -49.5 116t-124.5 62l-38 -397
l138 -54q124 -49 185 -127.5t49 -207.5q-9 -87 -61.5 -166t-147.5 -132t-235 -63l-15 -169h-131zM673 157q107 10 163.5 64t64.5 122q6 66 -28.5 113t-102.5 73l-60 24zM601 767l32 360q-95 -8 -148 -57t-58 -115q-6 -63 24 -100.5t100 -66.5z" />
    <glyph glyph-name="question" unicode="?" horiz-adv-x="913" 
d="M349 354l8 85q9 92 32.5 146.5t67 92.5t109.5 77q51 32 88.5 59t59.5 61t25 84q5 77 -41.5 120.5t-139.5 43.5q-100 0 -159.5 -48.5t-75.5 -128.5h-185q25 159 136.5 257t294.5 98q126 0 209 -45.5t122.5 -124t31.5 -175.5q-6 -80 -38 -136t-81.5 -96t-105.5 -73
q-60 -37 -97 -64.5t-55 -64t-24 -100.5l-6 -68h-176zM405 -25q-59 0 -89 40.5t-24 96.5t44.5 92.5t96.5 36.5q60 0 88.5 -38t25.5 -92q-5 -60 -44.5 -98t-97.5 -38z" />
    <glyph glyph-name="sterling" unicode="&#xa3;" horiz-adv-x="1049" 
d="M38 0l16 175h53q68 0 101.5 43.5t41.5 133.5l18 195h-156l12 135h157l18 194q14 137 64.5 232t133.5 144t192 49q137 0 214 -82t82 -242h-172q-5 72 -43 109t-97 37q-79 0 -132 -59t-66 -188l-19 -194h318l-12 -135h-318l-17 -183q-7 -66 -26.5 -113t-58.5 -76h290
q88 0 131.5 39.5t61.5 122.5h190q-21 -157 -111 -247t-288 -90h-578z" />
    <glyph glyph-name="grave" unicode="`" horiz-adv-x="693" 
d="M695 1084l-449 218l84 171l426 -265z" />
    <glyph glyph-name="acute" unicode="&#xb4;" horiz-adv-x="685" 
d="M274 1120l-36 123l476 265l51 -171z" />
    <glyph glyph-name="agrave" unicode="&#xe0;" horiz-adv-x="1029" 
d="M434 -25q-105 0 -173.5 43t-99 111.5t-22.5 146.5q9 95 58.5 157.5t131 94t183.5 31.5q63 0 124 -12.5t116 -33.5l11 110q13 116 -26.5 169t-132.5 53q-54 0 -97 -17.5t-70 -52.5t-32 -87h-194q11 110 67 176t142 95.5t184 29.5q177 0 264.5 -90t69.5 -282l-58 -617h-152
q-1 37 -0.5 73.5t-0.5 73.5q-50 -86 -123 -129t-170 -43zM477 125q68 0 126.5 33t95.5 92.5t41 138.5q-49 16 -105 26t-105 10q-81 0 -139 -33.5t-66 -115.5q-5 -64 34.5 -107.5t117.5 -43.5zM806 1084l-449 218l84 171l426 -265z" />
    <glyph glyph-name="egrave" unicode="&#xe8;" horiz-adv-x="940" 
d="M485 -25q-113 0 -198 62t-127.5 175.5t-27.5 268.5q15 158 78.5 272t159.5 175t209 61q89 0 152.5 -35t102.5 -95.5t55.5 -138t9.5 -163.5q-2 -28 -6.5 -58.5t-11.5 -62.5h-624l49 35q-12 -95 3.5 -172t62.5 -121.5t129 -44.5q70 0 122 38.5t70 113.5h180
q-23 -95 -78.5 -164.5t-135 -107.5t-174.5 -38zM311 531l-39 28h508l-49 -24q11 76 1.5 144t-48 111t-117.5 43q-73 0 -127 -40.5t-86.5 -109t-42.5 -152.5zM762 1084l-449 218l84 171l426 -265z" />
    <glyph glyph-name="ograve" unicode="&#xf2;" horiz-adv-x="999" 
d="M498 -25q-118 0 -207 57t-132 169.5t-27 279.5q16 169 81 282t164.5 169.5t216.5 56.5t205 -57.5t132 -170t28 -280.5q-17 -167 -82 -279.5t-163 -169.5t-216 -57zM507 145q111 0 184 87.5t90 248.5q16 163 -36.5 251t-162.5 88t-182 -87.5t-88 -251.5
q-11 -106 8.5 -181.5t66.5 -115t120 -39.5zM825 1084l-449 218l84 171l426 -265z" />
    <glyph glyph-name="Agrave" unicode="&#xc0;" horiz-adv-x="1079" 
d="M43 0l514 1277h218l262 -1277h-186l-62 301h-441l-119 -301h-186zM407 451h353l-119 592zM875 1398l-449 218l84 171l426 -265z" />
    <glyph glyph-name="Egrave" unicode="&#xc8;" horiz-adv-x="1032" 
d="M173 0l120 1277h724l-18 -168h-547l-36 -384h514l-15 -168h-515l-36 -386h548l-15 -171h-724zM852 1398l-449 218l84 171l426 -265z" />
    <glyph glyph-name="ugrave" unicode="&#xf9;" horiz-adv-x="1109" 
d="M479 -18q-95 0 -165.5 38.5t-105.5 120.5t-23 211l59 614h176l-57 -596q-10 -108 32 -162.5t129 -54.5q72 0 131.5 42.5t99 120.5t49.5 185l44 465h176l-90 -966h-177l17 182q-51 -98 -127 -149t-168 -51zM846 1084l-449 218l84 171l426 -265z" />
    <glyph glyph-name="aacute" unicode="&#xe1;" horiz-adv-x="1029" 
d="M434 -25q-105 0 -173.5 43t-99 111.5t-22.5 146.5q9 95 58.5 157.5t131 94t183.5 31.5q63 0 124 -12.5t116 -33.5l11 110q13 116 -26.5 169t-132.5 53q-54 0 -97 -17.5t-70 -52.5t-32 -87h-194q11 110 67 176t142 95.5t184 29.5q177 0 264.5 -90t69.5 -282l-58 -617h-152
q-1 37 -0.5 73.5t-0.5 73.5q-50 -86 -123 -129t-170 -43zM477 125q68 0 126.5 33t95.5 92.5t41 138.5q-49 16 -105 26t-105 10q-81 0 -139 -33.5t-66 -115.5q-5 -64 34.5 -107.5t117.5 -43.5zM476 1120l-36 123l476 265l51 -171z" />
    <glyph glyph-name="eacute" unicode="&#xe9;" horiz-adv-x="940" 
d="M485 -25q-113 0 -198 62t-127.5 175.5t-27.5 268.5q15 158 78.5 272t159.5 175t209 61q89 0 152.5 -35t102.5 -95.5t55.5 -138t9.5 -163.5q-2 -28 -6.5 -58.5t-11.5 -62.5h-624l49 35q-12 -95 3.5 -172t62.5 -121.5t129 -44.5q70 0 122 38.5t70 113.5h180
q-23 -95 -78.5 -164.5t-135 -107.5t-174.5 -38zM311 531l-39 28h508l-49 -24q11 76 1.5 144t-48 111t-117.5 43q-73 0 -127 -40.5t-86.5 -109t-42.5 -152.5zM432 1120l-36 123l476 265l51 -171z" />
    <glyph glyph-name="oacute" unicode="&#xf3;" horiz-adv-x="999" 
d="M498 -25q-118 0 -207 57t-132 169.5t-27 279.5q16 169 81 282t164.5 169.5t216.5 56.5t205 -57.5t132 -170t28 -280.5q-17 -167 -82 -279.5t-163 -169.5t-216 -57zM507 145q111 0 184 87.5t90 248.5q16 163 -36.5 251t-162.5 88t-182 -87.5t-88 -251.5
q-11 -106 8.5 -181.5t66.5 -115t120 -39.5zM495 1120l-36 123l476 265l51 -171z" />
    <glyph glyph-name="uacute" unicode="&#xfa;" horiz-adv-x="1109" 
d="M479 -18q-95 0 -165.5 38.5t-105.5 120.5t-23 211l59 614h176l-57 -596q-10 -108 32 -162.5t129 -54.5q72 0 131.5 42.5t99 120.5t49.5 185l44 465h176l-90 -966h-177l17 182q-51 -98 -127 -149t-168 -51zM516 1120l-36 123l476 265l51 -171z" />
    <glyph glyph-name="Aacute" unicode="&#xc1;" horiz-adv-x="1079" 
d="M43 0l514 1277h218l262 -1277h-186l-62 301h-441l-119 -301h-186zM407 451h353l-119 592zM545 1434l-36 123l476 265l51 -171z" />
    <glyph glyph-name="Eacute" unicode="&#xc9;" horiz-adv-x="1032" 
d="M173 0l120 1277h724l-18 -168h-547l-36 -384h514l-15 -168h-515l-36 -386h548l-15 -171h-724zM522 1434l-36 123l476 265l51 -171z" />
    <glyph glyph-name="Igrave" unicode="&#xcc;" horiz-adv-x="525" 
d="M175 0l120 1277h176l-120 -1277h-176zM598 1398l-449 218l84 171l426 -265z" />
    <glyph glyph-name="Iacute" unicode="&#xcd;" horiz-adv-x="525" 
d="M175 0l120 1277h176l-120 -1277h-176zM269 1434l-36 123l476 265l51 -171z" />
    <glyph glyph-name="Ograve" unicode="&#xd2;" horiz-adv-x="1195" 
d="M593 -25q-148 0 -255.5 74t-158.5 221.5t-30 368.5q21 223 100 370.5t200.5 219.5t269.5 72q149 0 257.5 -73.5t160 -221t31.5 -367.5q-22 -224 -101.5 -371t-201.5 -220t-272 -73zM611 153q150 0 250.5 124.5t123.5 362.5q23 231 -54.5 358t-227.5 127
q-151 0 -250.5 -127t-121.5 -359q-23 -238 53.5 -362t226.5 -124zM933 1398l-449 218l84 171l426 -265z" />
    <glyph glyph-name="Oacute" unicode="&#xd3;" horiz-adv-x="1195" 
d="M593 -25q-148 0 -255.5 74t-158.5 221.5t-30 368.5q21 223 100 370.5t200.5 219.5t269.5 72q149 0 257.5 -73.5t160 -221t31.5 -367.5q-22 -224 -101.5 -371t-201.5 -220t-272 -73zM611 153q150 0 250.5 124.5t123.5 362.5q23 231 -54.5 358t-227.5 127
q-151 0 -250.5 -127t-121.5 -359q-23 -238 53.5 -362t226.5 -124zM603 1434l-36 123l476 265l51 -171z" />
    <glyph glyph-name="Ugrave" unicode="&#xd9;" horiz-adv-x="1209" 
d="M601 -25q-210 0 -318.5 128t-86.5 368l78 806h176l-78 -806q-15 -167 54 -241.5t191 -74.5q123 0 206 74.5t99 241.5l78 806h176l-77 -806q-15 -160 -80 -271t-172 -168t-246 -57zM941 1398l-449 218l84 171l426 -265z" />
    <glyph glyph-name="Uacute" unicode="&#xda;" horiz-adv-x="1209" 
d="M601 -25q-210 0 -318.5 128t-86.5 368l78 806h176l-78 -806q-15 -167 54 -241.5t191 -74.5q123 0 206 74.5t99 241.5l78 806h176l-77 -806q-15 -160 -80 -271t-172 -168t-246 -57zM611 1434l-36 123l476 265l51 -171z" />
    <glyph glyph-name="circumflex" unicode="&#x2c6;" horiz-adv-x="867" 
d="M335 1122l-100 97l376 317l320 -317l-122 -97l-216 209z" />
    <glyph glyph-name="acircumflex" unicode="&#xe2;" horiz-adv-x="1029" 
d="M434 -25q-105 0 -173.5 43t-99 111.5t-22.5 146.5q9 95 58.5 157.5t131 94t183.5 31.5q63 0 124 -12.5t116 -33.5l11 110q13 116 -26.5 169t-132.5 53q-54 0 -97 -17.5t-70 -52.5t-32 -87h-194q11 110 67 176t142 95.5t184 29.5q177 0 264.5 -90t69.5 -282l-58 -617h-152
q-1 37 -0.5 73.5t-0.5 73.5q-50 -86 -123 -129t-170 -43zM477 125q68 0 126.5 33t95.5 92.5t41 138.5q-49 16 -105 26t-105 10q-81 0 -139 -33.5t-66 -115.5q-5 -64 34.5 -107.5t117.5 -43.5zM361 1122l-100 97l376 317l320 -317l-122 -97l-216 209z" />
    <glyph glyph-name="ecircumflex" unicode="&#xea;" horiz-adv-x="940" 
d="M485 -25q-113 0 -198 62t-127.5 175.5t-27.5 268.5q15 158 78.5 272t159.5 175t209 61q89 0 152.5 -35t102.5 -95.5t55.5 -138t9.5 -163.5q-2 -28 -6.5 -58.5t-11.5 -62.5h-624l49 35q-12 -95 3.5 -172t62.5 -121.5t129 -44.5q70 0 122 38.5t70 113.5h180
q-23 -95 -78.5 -164.5t-135 -107.5t-174.5 -38zM311 531l-39 28h508l-49 -24q11 76 1.5 144t-48 111t-117.5 43q-73 0 -127 -40.5t-86.5 -109t-42.5 -152.5zM317 1122l-100 97l376 317l320 -317l-122 -97l-216 209z" />
    <glyph glyph-name="ocircumflex" unicode="&#xf4;" horiz-adv-x="999" 
d="M498 -25q-118 0 -207 57t-132 169.5t-27 279.5q16 169 81 282t164.5 169.5t216.5 56.5t205 -57.5t132 -170t28 -280.5q-17 -167 -82 -279.5t-163 -169.5t-216 -57zM507 145q111 0 184 87.5t90 248.5q16 163 -36.5 251t-162.5 88t-182 -87.5t-88 -251.5
q-11 -106 8.5 -181.5t66.5 -115t120 -39.5zM380 1122l-100 97l376 317l320 -317l-122 -97l-216 209z" />
    <glyph glyph-name="ucircumflex" unicode="&#xfb;" horiz-adv-x="1109" 
d="M479 -18q-95 0 -165.5 38.5t-105.5 120.5t-23 211l59 614h176l-57 -596q-10 -108 32 -162.5t129 -54.5q72 0 131.5 42.5t99 120.5t49.5 185l44 465h176l-90 -966h-177l17 182q-51 -98 -127 -149t-168 -51zM401 1122l-100 97l376 317l320 -317l-122 -97l-216 209z" />
    <glyph glyph-name="Acircumflex" unicode="&#xc2;" horiz-adv-x="1079" 
d="M43 0l514 1277h218l262 -1277h-186l-62 301h-441l-119 -301h-186zM407 451h353l-119 592zM430 1436l-100 97l376 317l320 -317l-122 -97l-216 209z" />
    <glyph glyph-name="Ecircumflex" unicode="&#xca;" horiz-adv-x="1032" 
d="M173 0l120 1277h724l-18 -168h-547l-36 -384h514l-15 -168h-515l-36 -386h548l-15 -171h-724zM407 1436l-100 97l376 317l320 -317l-122 -97l-216 209z" />
    <glyph glyph-name="Icircumflex" unicode="&#xce;" horiz-adv-x="525" 
d="M175 0l120 1277h176l-120 -1277h-176zM153 1436l-100 97l376 317l320 -317l-122 -97l-216 209z" />
    <glyph glyph-name="Ocircumflex" unicode="&#xd4;" horiz-adv-x="1195" 
d="M593 -25q-148 0 -255.5 74t-158.5 221.5t-30 368.5q21 223 100 370.5t200.5 219.5t269.5 72q149 0 257.5 -73.5t160 -221t31.5 -367.5q-22 -224 -101.5 -371t-201.5 -220t-272 -73zM611 153q150 0 250.5 124.5t123.5 362.5q23 231 -54.5 358t-227.5 127
q-151 0 -250.5 -127t-121.5 -359q-23 -238 53.5 -362t226.5 -124zM488 1436l-100 97l376 317l320 -317l-122 -97l-216 209z" />
    <glyph glyph-name="Ucircumflex" unicode="&#xdb;" horiz-adv-x="1209" 
d="M601 -25q-210 0 -318.5 128t-86.5 368l78 806h176l-78 -806q-15 -167 54 -241.5t191 -74.5q123 0 206 74.5t99 241.5l78 806h176l-77 -806q-15 -160 -80 -271t-172 -168t-246 -57zM496 1436l-100 97l376 317l320 -317l-122 -97l-216 209z" />
    <glyph glyph-name="tilde" unicode="&#x2dc;" horiz-adv-x="756" 
d="M302 1185l-66 46q34 115 86 173.5t113 58.5q25 0 51 -11t75 -39q44 -27 66.5 -39t42.5 -12q29 0 55.5 22.5t51.5 78.5l70 -56q-20 -68 -50.5 -118t-67 -77t-74.5 -27q-24 0 -53.5 13t-83.5 44q-45 26 -63.5 35t-36.5 9q-28 0 -56.5 -21t-59.5 -80z" />
    <glyph glyph-name="ampersand" unicode="&#x26;" horiz-adv-x="1691" 
d="M623 -25q-131 0 -231 50.5t-153 137.5t-43 196q13 135 106.5 211t256.5 106l-25 27q-55 61 -84.5 135t-22.5 156q8 86 59 155t138 109.5t204 40.5q111 0 188 -41t114 -109t29 -152q-11 -118 -92 -207t-242 -159l234 -254q67 80 124.5 179t105.5 212l115 -74
q-49 -123 -110 -232t-133 -197l59 -61q28 -29 54 -43t65 -14q43 0 79.5 36.5t48.5 119.5h162q-20 -153 -93.5 -240.5t-198.5 -87.5q-42 0 -78.5 10.5t-70.5 31.5t-69 53t-76 74q-91 -80 -196.5 -124.5t-223.5 -44.5zM641 151q81 0 155 29t141 82l-284 311
q-128 -18 -191.5 -69t-70.5 -135q-9 -90 55.5 -154t194.5 -64zM735 730q81 39 129 77t71.5 79.5t29.5 90.5q5 66 -36.5 110t-115.5 44q-87 0 -138 -49.5t-57 -116.5q-6 -50 13 -95.5t62 -93.5z" />
    <glyph glyph-name="at" unicode="@" horiz-adv-x="1768" 
d="M963 -398q-200 0 -356 63t-261.5 176.5t-153 264.5t-31.5 329q18 191 95.5 350t201.5 274.5t284 178.5t343 63q160 0 287 -55t213 -152.5t125.5 -226.5t24.5 -278q-12 -131 -56.5 -233.5t-110 -174.5t-142 -109t-153.5 -37q-80 0 -127 36t-55 101l-5 32
q-40 -75 -97.5 -122t-150.5 -47q-74 0 -136 45t-96 126t-24 187q10 103 51.5 190.5t106 153t143 102t161.5 36.5q113 0 173 -75.5t46 -228.5l-29 -283q-4 -55 10.5 -78.5t48.5 -23.5q32 0 73 24t80.5 73.5t70 125.5t39.5 180q14 152 -38 273.5t-166 192t-284 70.5
q-149 0 -276 -54t-223.5 -151t-156 -224.5t-73.5 -274.5q-19 -195 50 -343.5t218 -232t372 -83.5zM886 193q68 0 116.5 43t95.5 127l19 206q8 74 -12.5 114t-79.5 40q-55 0 -116.5 -40t-108 -113t-55.5 -174q-10 -97 30.5 -150t110.5 -53z" />
    <glyph glyph-name="dieresis" unicode="&#xa8;" horiz-adv-x="715" 
d="M349 1218q-49 0 -76 33t-22 80q3 47 36 82.5t84 35.5q44 0 74 -31t27 -82q-5 -54 -42 -86t-81 -32zM673 1219q-47 0 -75 32.5t-23 80.5q4 46 37.5 82t82.5 36q43 0 73 -30t27 -83q-4 -58 -41.5 -88t-80.5 -30z" />
    <glyph glyph-name="adieresis" unicode="&#xe4;" horiz-adv-x="1029" 
d="M434 -25q-105 0 -173.5 43t-99 111.5t-22.5 146.5q9 95 58.5 157.5t131 94t183.5 31.5q63 0 124 -12.5t116 -33.5l11 110q13 116 -26.5 169t-132.5 53q-54 0 -97 -17.5t-70 -52.5t-32 -87h-194q11 110 67 176t142 95.5t184 29.5q177 0 264.5 -90t69.5 -282l-58 -617h-152
q-1 37 -0.5 73.5t-0.5 73.5q-50 -86 -123 -129t-170 -43zM477 125q68 0 126.5 33t95.5 92.5t41 138.5q-49 16 -105 26t-105 10q-81 0 -139 -33.5t-66 -115.5q-5 -64 34.5 -107.5t117.5 -43.5zM461 1218q-49 0 -76 33t-22 80q3 47 36 82.5t84 35.5q44 0 74 -31t27 -82
q-5 -54 -42 -86t-81 -32zM785 1219q-47 0 -75 32.5t-23 80.5q4 46 37.5 82t82.5 36q43 0 73 -30t27 -83q-4 -58 -41.5 -88t-80.5 -30z" />
    <glyph glyph-name="edieresis" unicode="&#xeb;" horiz-adv-x="940" 
d="M485 -25q-113 0 -198 62t-127.5 175.5t-27.5 268.5q15 158 78.5 272t159.5 175t209 61q89 0 152.5 -35t102.5 -95.5t55.5 -138t9.5 -163.5q-2 -28 -6.5 -58.5t-11.5 -62.5h-624l49 35q-12 -95 3.5 -172t62.5 -121.5t129 -44.5q70 0 122 38.5t70 113.5h180
q-23 -95 -78.5 -164.5t-135 -107.5t-174.5 -38zM311 531l-39 28h508l-49 -24q11 76 1.5 144t-48 111t-117.5 43q-73 0 -127 -40.5t-86.5 -109t-42.5 -152.5zM417 1218q-49 0 -76 33t-22 80q3 47 36 82.5t84 35.5q44 0 74 -31t27 -82q-5 -54 -42 -86t-81 -32zM741 1219
q-47 0 -75 32.5t-23 80.5q4 46 37.5 82t82.5 36q43 0 73 -30t27 -83q-4 -58 -41.5 -88t-80.5 -30z" />
    <glyph glyph-name="odieresis" unicode="&#xf6;" horiz-adv-x="999" 
d="M498 -25q-118 0 -207 57t-132 169.5t-27 279.5q16 169 81 282t164.5 169.5t216.5 56.5t205 -57.5t132 -170t28 -280.5q-17 -167 -82 -279.5t-163 -169.5t-216 -57zM507 145q111 0 184 87.5t90 248.5q16 163 -36.5 251t-162.5 88t-182 -87.5t-88 -251.5
q-11 -106 8.5 -181.5t66.5 -115t120 -39.5zM480 1218q-49 0 -76 33t-22 80q3 47 36 82.5t84 35.5q44 0 74 -31t27 -82q-5 -54 -42 -86t-81 -32zM804 1219q-47 0 -75 32.5t-23 80.5q4 46 37.5 82t82.5 36q43 0 73 -30t27 -83q-4 -58 -41.5 -88t-80.5 -30z" />
    <glyph glyph-name="udieresis" unicode="&#xfc;" horiz-adv-x="1109" 
d="M479 -18q-95 0 -165.5 38.5t-105.5 120.5t-23 211l59 614h176l-57 -596q-10 -108 32 -162.5t129 -54.5q72 0 131.5 42.5t99 120.5t49.5 185l44 465h176l-90 -966h-177l17 182q-51 -98 -127 -149t-168 -51zM501 1218q-49 0 -76 33t-22 80q3 47 36 82.5t84 35.5
q44 0 74 -31t27 -82q-5 -54 -42 -86t-81 -32zM825 1219q-47 0 -75 32.5t-23 80.5q4 46 37.5 82t82.5 36q43 0 73 -30t27 -83q-4 -58 -41.5 -88t-80.5 -30z" />
    <glyph glyph-name="Adieresis" unicode="&#xc4;" horiz-adv-x="1079" 
d="M43 0l514 1277h218l262 -1277h-186l-62 301h-441l-119 -301h-186zM407 451h353l-119 592zM530 1532q-49 0 -76 33t-22 80q3 47 36 82.5t84 35.5q44 0 74 -31t27 -82q-5 -54 -42 -86t-81 -32zM854 1533q-47 0 -75 32.5t-23 80.5q4 46 37.5 82t82.5 36q43 0 73 -30t27 -83
q-4 -58 -41.5 -88t-80.5 -30z" />
    <glyph glyph-name="Edieresis" unicode="&#xcb;" horiz-adv-x="1032" 
d="M173 0l120 1277h724l-18 -168h-547l-36 -384h514l-15 -168h-515l-36 -386h548l-15 -171h-724zM507 1532q-49 0 -76 33t-22 80q3 47 36 82.5t84 35.5q44 0 74 -31t27 -82q-5 -54 -42 -86t-81 -32zM831 1533q-47 0 -75 32.5t-23 80.5q4 46 37.5 82t82.5 36q43 0 73 -30
t27 -83q-4 -58 -41.5 -88t-80.5 -30z" />
    <glyph glyph-name="Idieresis" unicode="&#xcf;" horiz-adv-x="525" 
d="M175 0l120 1277h176l-120 -1277h-176zM253 1532q-49 0 -76 33t-22 80q3 47 36 82.5t84 35.5q44 0 74 -31t27 -82q-5 -54 -42 -86t-81 -32zM577 1533q-47 0 -75 32.5t-23 80.5q4 46 37.5 82t82.5 36q43 0 73 -30t27 -83q-4 -58 -41.5 -88t-80.5 -30z" />
    <glyph glyph-name="Odieresis" unicode="&#xd6;" horiz-adv-x="1195" 
d="M593 -25q-148 0 -255.5 74t-158.5 221.5t-30 368.5q21 223 100 370.5t200.5 219.5t269.5 72q149 0 257.5 -73.5t160 -221t31.5 -367.5q-22 -224 -101.5 -371t-201.5 -220t-272 -73zM611 153q150 0 250.5 124.5t123.5 362.5q23 231 -54.5 358t-227.5 127
q-151 0 -250.5 -127t-121.5 -359q-23 -238 53.5 -362t226.5 -124zM588 1532q-49 0 -76 33t-22 80q3 47 36 82.5t84 35.5q44 0 74 -31t27 -82q-5 -54 -42 -86t-81 -32zM912 1533q-47 0 -75 32.5t-23 80.5q4 46 37.5 82t82.5 36q43 0 73 -30t27 -83q-4 -58 -41.5 -88
t-80.5 -30z" />
    <glyph glyph-name="Udieresis" unicode="&#xdc;" horiz-adv-x="1209" 
d="M601 -25q-210 0 -318.5 128t-86.5 368l78 806h176l-78 -806q-15 -167 54 -241.5t191 -74.5q123 0 206 74.5t99 241.5l78 806h176l-77 -806q-15 -160 -80 -271t-172 -168t-246 -57zM596 1532q-49 0 -76 33t-22 80q3 47 36 82.5t84 35.5q44 0 74 -31t27 -82q-5 -54 -42 -86
t-81 -32zM920 1533q-47 0 -75 32.5t-23 80.5q4 46 37.5 82t82.5 36q43 0 73 -30t27 -83q-4 -58 -41.5 -88t-80.5 -30z" />
    <glyph glyph-name="igrave" unicode="&#xec;" horiz-adv-x="563" 
d="M188 0l91 966h176l-91 -966h-176zM573 1084l-449 218l84 171l426 -265z" />
    <glyph glyph-name="iacute" unicode="&#xed;" horiz-adv-x="563" 
d="M188 0l91 966h176l-91 -966h-176zM243 1120l-36 123l476 265l51 -171z" />
    <glyph glyph-name="icircumflex" unicode="&#xee;" horiz-adv-x="563" 
d="M188 0l91 966h176l-91 -966h-176zM128 1122l-100 97l376 317l320 -317l-122 -97l-216 209z" />
    <glyph glyph-name="idieresis" unicode="&#xef;" horiz-adv-x="563" 
d="M188 0l91 966h176l-91 -966h-176zM228 1218q-49 0 -76 33t-22 80q3 47 36 82.5t84 35.5q44 0 74 -31t27 -82q-5 -54 -42 -86t-81 -32zM552 1219q-47 0 -75 32.5t-23 80.5q4 46 37.5 82t82.5 36q43 0 73 -30t27 -83q-4 -58 -41.5 -88t-80.5 -30z" />
    <glyph glyph-name="less" unicode="&#x3c;" horiz-adv-x="1000" 
d="M800 1188l102 -149l-560 -412l482 -408l-130 -151l-540 472l16 175z" />
    <glyph glyph-name="greater" unicode="&#x3e;" horiz-adv-x="1000" 
d="M240 68l-101 151l558 408l-480 412l129 149l540 -473l-16 -175z" />
    <glyph glyph-name="quotedbl" unicode="&#x22;" horiz-adv-x="618" 
d="M493 909l20 458h179l-68 -458h-131zM162 909l20 458h179l-68 -458h-131z" />
    <glyph glyph-name="numbersign" unicode="#" horiz-adv-x="1173" 
d="M251 64l51 270h-172l23 131h173l64 336h-174l25 130h174l51 268h166l-51 -268h260l52 268h164l-50 -268h178l-27 -130h-176l-65 -336h179l-25 -131h-177l-51 -270h-166l50 270h-260l-51 -270h-165zM492 465h261l64 336h-261z" />
    <glyph glyph-name="asterisk" unicode="*" horiz-adv-x="739" 
d="M307 784l-84 89l175 171l-197 77l60 123l175 -104l2 247h128l-43 -247l195 106l37 -124l-210 -77l141 -172l-100 -89l-119 205z" />
    <glyph glyph-name="slash" unicode="/" horiz-adv-x="813" 
d="M84 -154l611 1629h180l-613 -1629h-178z" />
    <glyph glyph-name="percent" unicode="%" horiz-adv-x="1340" 
d="M196 0l897 1277h180l-897 -1277h-180zM995 -25q-94 0 -158 74t-51 222q15 147 93.5 220.5t172.5 73.5q95 0 160 -73.5t51 -220.5q-14 -148 -93 -222t-175 -74zM1008 105q45 0 77.5 38.5t39.5 127.5q11 87 -15 127t-71 40t-77 -40t-41 -127q-7 -89 17.5 -127.5t69.5 -38.5
zM414 712q-63 0 -114 33t-78 98.5t-17 163.5q9 97 48.5 162.5t96 98.5t119.5 33q96 0 161 -74t51 -220q-14 -147 -93 -221t-174 -74zM426 840q44 0 76.5 39t40.5 128q8 87 -16.5 127t-69.5 40q-47 0 -78.5 -40t-40.5 -127q-9 -89 16 -128t72 -39z" />
    <glyph glyph-name="backslash" unicode="\" horiz-adv-x="813" 
d="M782 -153l-610 1630h178l612 -1630h-180z" />
    <glyph glyph-name="bar" unicode="|" horiz-adv-x="525" 
d="M151 -244l167 1765h176l-167 -1765h-176z" />
    <glyph glyph-name="bracketleft" unicode="[" horiz-adv-x="601" 
d="M132 -242l166 1761h399l-17 -175h-222l-134 -1410h222l-15 -176h-399z" />
    <glyph glyph-name="bracketright" unicode="]" horiz-adv-x="557" 
d="M-6 -242l17 176h223l148 1410h-223l18 175h400l-185 -1761h-398z" />
    <glyph glyph-name="asciicircum" unicode="^" horiz-adv-x="875" 
d="M79 464l406 725h140l266 -725h-195l-165 492l-256 -492h-196z" />
    <glyph glyph-name="underscore" unicode="_" horiz-adv-x="1343" 
d="M73 -1l15 170h1146l-16 -170h-1145z" />
    <glyph glyph-name="braceleft" unicode="{" horiz-adv-x="665" 
d="M625 -293q-152 0 -238.5 62.5t-119 172t-18.5 250.5l16 183q9 85 -1.5 118.5t-44.5 33.5h-38l18 194h37q35 0 52 33.5t25 118.5l17 183q13 142 66 251t152 172t251 63l-16 -175q-132 0 -197.5 -78t-81.5 -236l-17 -188q-9 -94 -44.5 -152t-84.5 -84l-1 -10
q45 -24 69.5 -83t13.5 -153l-17 -189q-15 -155 35.5 -234t183.5 -79z" />
    <glyph glyph-name="braceright" unicode="}" horiz-adv-x="715" 
d="M-37 -293l16 174q132 0 199 79t80 235l17 188q9 94 45 152.5t85 85.5v8q-38 22 -61 68t-24 119q0 12 0.5 24.5t1.5 24.5l17 189q3 32 3.5 48t0.5 27q-2 119 -54.5 178.5t-168.5 59.5l17 175q134 0 217.5 -50t122.5 -138t40 -205q0 -22 -0.5 -45t-3.5 -48l-16 -183
q-1 -19 -2.5 -35.5t-1.5 -32.5q0 -44 11.5 -64t38.5 -20h38l-18 -194h-37q-35 0 -52 -33t-25 -119l-17 -183q-13 -141 -66 -250.5t-152 -172t-251 -62.5z" />
    <glyph glyph-name="asciitilde" unicode="~" horiz-adv-x="1000" 
d="M207 427l-90 57q41 118 98.5 184.5t135.5 66.5q36 0 76.5 -13t105.5 -43q66 -30 100.5 -42t60.5 -12q73 0 127 114l89 -68q-45 -118 -107.5 -175t-138.5 -57q-29 0 -70.5 13.5t-105.5 42.5q-66 28 -98.5 40t-59.5 12q-32 0 -62.5 -27t-60.5 -93z" />
    <glyph glyph-name="atilde" unicode="&#xe3;" horiz-adv-x="1029" 
d="M434 -25q-105 0 -173.5 43t-99 111.5t-22.5 146.5q9 95 58.5 157.5t131 94t183.5 31.5q63 0 124 -12.5t116 -33.5l11 110q13 116 -26.5 169t-132.5 53q-54 0 -97 -17.5t-70 -52.5t-32 -87h-194q11 110 67 176t142 95.5t184 29.5q177 0 264.5 -90t69.5 -282l-58 -617h-152
q-1 37 -0.5 73.5t-0.5 73.5q-50 -86 -123 -129t-170 -43zM477 125q68 0 126.5 33t95.5 92.5t41 138.5q-49 16 -105 26t-105 10q-81 0 -139 -33.5t-66 -115.5q-5 -64 34.5 -107.5t117.5 -43.5zM393 1185l-66 46q34 115 86 173.5t113 58.5q25 0 51 -11t75 -39q44 -27 66.5 -39
t42.5 -12q29 0 55.5 22.5t51.5 78.5l70 -56q-20 -68 -50.5 -118t-67 -77t-74.5 -27q-24 0 -53.5 13t-83.5 44q-45 26 -63.5 35t-36.5 9q-28 0 -56.5 -21t-59.5 -80z" />
    <glyph glyph-name="ntilde" unicode="&#xf1;" horiz-adv-x="1103" 
d="M174 0l91 964h152l2 -177q53 100 130 151t172 51q105 0 173 -51.5t97 -147t16 -225.5l-52 -565h-176l52 565q14 124 -34.5 186.5t-132.5 62.5q-110 0 -183 -96t-90 -275l-41 -443h-176zM431 1185l-66 46q34 115 86 173.5t113 58.5q25 0 51 -11t75 -39q44 -27 66.5 -39
t42.5 -12q29 0 55.5 22.5t51.5 78.5l70 -56q-20 -68 -50.5 -118t-67 -77t-74.5 -27q-24 0 -53.5 13t-83.5 44q-45 26 -63.5 35t-36.5 9q-28 0 -56.5 -21t-59.5 -80z" />
    <glyph glyph-name="otilde" unicode="&#xf5;" horiz-adv-x="999" 
d="M498 -25q-118 0 -207 57t-132 169.5t-27 279.5q16 169 81 282t164.5 169.5t216.5 56.5t205 -57.5t132 -170t28 -280.5q-17 -167 -82 -279.5t-163 -169.5t-216 -57zM507 145q111 0 184 87.5t90 248.5q16 163 -36.5 251t-162.5 88t-182 -87.5t-88 -251.5
q-11 -106 8.5 -181.5t66.5 -115t120 -39.5zM413 1185l-66 46q34 115 86 173.5t113 58.5q25 0 51 -11t75 -39q44 -27 66.5 -39t42.5 -12q29 0 55.5 22.5t51.5 78.5l70 -56q-20 -68 -50.5 -118t-67 -77t-74.5 -27q-24 0 -53.5 13t-83.5 44q-45 26 -63.5 35t-36.5 9
q-28 0 -56.5 -21t-59.5 -80z" />
    <glyph glyph-name="Atilde" unicode="&#xc3;" horiz-adv-x="1079" 
d="M43 0l514 1277h218l262 -1277h-186l-62 301h-441l-119 -301h-186zM407 451h353l-119 592zM462 1499l-66 46q34 115 86 173.5t113 58.5q25 0 51 -11t75 -39q44 -27 66.5 -39t42.5 -12q29 0 55.5 22.5t51.5 78.5l70 -56q-20 -68 -50.5 -118t-67 -77t-74.5 -27
q-24 0 -53.5 13t-83.5 44q-45 26 -63.5 35t-36.5 9q-28 0 -56.5 -21t-59.5 -80z" />
    <glyph glyph-name="Ntilde" unicode="&#xd1;" horiz-adv-x="1260" 
d="M171 0l120 1277h198l479 -1020l-35 3l98 1017h176l-120 -1277h-185l-494 1038l37 -3l-97 -1035h-177zM553 1499l-66 46q34 115 86 173.5t113 58.5q25 0 51 -11t75 -39q44 -27 66.5 -39t42.5 -12q29 0 55.5 22.5t51.5 78.5l70 -56q-20 -68 -50.5 -118t-67 -77t-74.5 -27
q-24 0 -53.5 13t-83.5 44q-45 26 -63.5 35t-36.5 9q-28 0 -56.5 -21t-59.5 -80z" />
    <glyph glyph-name="Otilde" unicode="&#xd5;" horiz-adv-x="1195" 
d="M593 -25q-148 0 -255.5 74t-158.5 221.5t-30 368.5q21 223 100 370.5t200.5 219.5t269.5 72q149 0 257.5 -73.5t160 -221t31.5 -367.5q-22 -224 -101.5 -371t-201.5 -220t-272 -73zM611 153q150 0 250.5 124.5t123.5 362.5q23 231 -54.5 358t-227.5 127
q-151 0 -250.5 -127t-121.5 -359q-23 -238 53.5 -362t226.5 -124zM521 1499l-66 46q34 115 86 173.5t113 58.5q25 0 51 -11t75 -39q44 -27 66.5 -39t42.5 -12q29 0 55.5 22.5t51.5 78.5l70 -56q-20 -68 -50.5 -118t-67 -77t-74.5 -27q-24 0 -53.5 13t-83.5 44
q-45 26 -63.5 35t-36.5 9q-28 0 -56.5 -21t-59.5 -80z" />
    <glyph glyph-name="Abreve" unicode="&#x102;" horiz-adv-x="1079" 
d="M43 0l514 1277h218l262 -1277h-186l-62 301h-441l-119 -301h-186zM407 451h353l-119 592zM660 1470q-135 0 -204 76.5t-51 203.5h154q-10 -73 22.5 -112.5t97.5 -39.5t108 39.5t53 112.5h154q-14 -129 -105 -204.5t-229 -75.5z" />
    <glyph glyph-name="Amacron" unicode="&#x100;" horiz-adv-x="1079" 
d="M43 0l514 1277h218l262 -1277h-186l-62 301h-441l-119 -301h-186zM407 451h353l-119 592zM377 1640h654l-24 -158h-654z" />
    <glyph glyph-name="Aogonek" unicode="&#x104;" horiz-adv-x="1079" 
d="M43 0l514 1277h218l262 -1277h-186l-62 301h-441l-119 -301h-186zM407 451h353l-119 592zM1150 -326q-63 -35 -131.5 -53.5t-132.5 -18.5q-102 0 -166 46.5t-64 129.5q0 76 58 147.5t173 116.5l136 -39q-108 -41 -171 -88t-63 -103q0 -42 34.5 -60.5t81.5 -18.5
q44 0 91.5 15t107.5 48z" />
    <glyph glyph-name="Aring" unicode="&#xc5;" horiz-adv-x="1079" 
d="M43 0l514 1277h218l262 -1277h-186l-62 301h-441l-119 -301h-186zM407 451h353l-119 592zM687 1404q-60 0 -109 30t-78.5 79.5t-29.5 107.5q0 60 29.5 109.5t78.5 78.5t109 29t109 -29t78.5 -78.5t29.5 -109.5q0 -58 -29.5 -107.5t-78.5 -79.5t-109 -30zM687 1537
q35 0 60 24.5t25 59.5q0 37 -25 61.5t-60 24.5t-60 -24.5t-25 -61.5q0 -35 25 -59.5t60 -24.5z" />
    <glyph glyph-name="AE" unicode="&#xc6;" horiz-adv-x="1523" 
d="M43 0l517 1277h944l-13 -168h-601l73 52l-45 -495l-66 59h567l-12 -168h-569l74 50l-46 -499l-66 63h605l-17 -171h-714l33 355l42 -26h-435l57 30l-142 -359h-186zM712 406l71 752l40 -49h-191l55 49l-295 -745l-22 67h391z" />
    <glyph glyph-name="Cacute" unicode="&#x106;" horiz-adv-x="1123" 
d="M579 -25q-152 0 -255.5 82t-149 232.5t-25.5 354.5q20 214 98 360.5t197 221.5t261 75q192 0 295 -105.5t125 -273.5l-194 -40q-20 110 -83.5 176.5t-159.5 66.5q-83 0 -157.5 -54t-126 -161t-66.5 -266q-14 -147 10.5 -257.5t86 -172t161.5 -61.5q125 0 203 73.5
t90 191.5h188q-12 -140 -78 -239t-173.5 -151.5t-246.5 -52.5zM594 1434l-36 123l476 265l51 -171z" />
    <glyph glyph-name="Ccaron" unicode="&#x10c;" horiz-adv-x="1123" 
d="M579 -25q-152 0 -255.5 82t-149 232.5t-25.5 354.5q20 214 98 360.5t197 221.5t261 75q192 0 295 -105.5t125 -273.5l-194 -40q-20 110 -83.5 176.5t-159.5 66.5q-83 0 -157.5 -54t-126 -161t-66.5 -266q-14 -147 10.5 -257.5t86 -172t161.5 -61.5q125 0 203 73.5
t90 191.5h188q-12 -140 -78 -239t-173.5 -151.5t-246.5 -52.5zM1002 1859l101 -97l-377 -317l-320 317l122 97l216 -209z" />
    <glyph glyph-name="Ccedilla" unicode="&#xc7;" horiz-adv-x="1123" 
d="M579 -25q-152 0 -255.5 82t-149 232.5t-25.5 354.5q20 214 98 360.5t197 221.5t261 75q192 0 295 -105.5t125 -273.5l-194 -40q-20 110 -83.5 176.5t-159.5 66.5q-83 0 -157.5 -54t-126 -161t-66.5 -266q-14 -147 10.5 -257.5t86 -172t161.5 -61.5q125 0 203 73.5
t90 191.5h188q-12 -140 -78 -239t-173.5 -151.5t-246.5 -52.5zM410 -361l24 74q74 -37 130.5 -41.5t89 14.5t32.5 52q1 32 -27 56t-73.5 41.5t-98.5 29.5l61 201l97 -11l-55 -186l-38 59q94 -18 156.5 -47.5t93.5 -68t31 -84.5q0 -57 -42.5 -92t-108.5 -46.5t-138.5 1
t-133.5 48.5z" />
    <glyph glyph-name="Cdotaccent" unicode="&#x10a;" horiz-adv-x="1123" 
d="M579 -25q-152 0 -255.5 82t-149 232.5t-25.5 354.5q20 214 98 360.5t197 221.5t261 75q192 0 295 -105.5t125 -273.5l-194 -40q-20 110 -83.5 176.5t-159.5 66.5q-83 0 -157.5 -54t-126 -161t-66.5 -266q-14 -147 10.5 -257.5t86 -172t161.5 -61.5q125 0 203 73.5
t90 191.5h188q-12 -140 -78 -239t-173.5 -151.5t-246.5 -52.5zM741 1533q-47 0 -75 32.5t-23 80.5q3 46 37.5 82t88.5 36q42 0 70 -31t24 -82q-6 -55 -40 -86.5t-82 -31.5z" />
    <glyph glyph-name="Dcaron" unicode="&#x10e;" horiz-adv-x="1211" 
d="M293 1277h356q176 0 298 -78.5t180.5 -222t40.5 -337.5t-104 -337.5t-223.5 -222.5t-311.5 -79h-356zM452 1101l-86 -926h179q121 0 213.5 60.5t149.5 165t70 238.5t-24.5 238.5t-119.5 164t-203 59.5h-179zM1020 1859l101 -97l-377 -317l-320 317l122 97l216 -209z" />
    <glyph glyph-name="Dcroat" unicode="&#x110;" horiz-adv-x="1211" 
d="M121 732h555l-20 -176h-556zM293 1277h356q176 0 298 -78.5t180.5 -222t40.5 -337.5t-104 -337.5t-223.5 -222.5t-311.5 -79h-356zM452 1101l-86 -926h179q121 0 213.5 60.5t149.5 165t70 238.5t-24.5 238.5t-119.5 164t-203 59.5h-179z" />
    <glyph glyph-name="Eth" unicode="&#xd0;" horiz-adv-x="1211" 
d="M121 732h555l-20 -176h-556zM293 1277h356q176 0 298 -78.5t180.5 -222t40.5 -337.5t-104 -337.5t-223.5 -222.5t-311.5 -79h-356zM452 1101l-86 -926h179q121 0 213.5 60.5t149.5 165t70 238.5t-24.5 238.5t-119.5 164t-203 59.5h-179z" />
    <glyph glyph-name="Ecaron" unicode="&#x11a;" horiz-adv-x="1032" 
d="M173 0l120 1277h724l-18 -168h-547l-36 -384h514l-15 -168h-515l-36 -386h548l-15 -171h-724zM930 1859l101 -97l-377 -317l-320 317l122 97l216 -209z" />
    <glyph glyph-name="Edotaccent" unicode="&#x116;" horiz-adv-x="1032" 
d="M173 0l120 1277h724l-18 -168h-547l-36 -384h514l-15 -168h-515l-36 -386h548l-15 -171h-724zM669 1533q-47 0 -75 32.5t-23 80.5q3 46 37.5 82t88.5 36q42 0 70 -31t24 -82q-6 -55 -40 -86.5t-82 -31.5z" />
    <glyph glyph-name="Emacron" unicode="&#x112;" horiz-adv-x="1032" 
d="M173 0l120 1277h724l-18 -168h-547l-36 -384h514l-15 -168h-515l-36 -386h548l-15 -171h-724zM354 1640h654l-24 -158h-654z" />
    <glyph glyph-name="Eogonek" unicode="&#x118;" horiz-adv-x="1032" 
d="M173 0l120 1277h724l-18 -168h-547l-36 -384h514l-15 -168h-515l-36 -386h548l-15 -171h-724zM965 -324q-63 -35 -131.5 -53.5t-132.5 -18.5q-102 0 -166 46.5t-64 129.5q0 76 58 147.5t173 116.5l136 -39q-108 -41 -171 -88t-63 -103q0 -42 34.5 -60.5t81.5 -18.5
q44 0 91.5 15t107.5 48z" />
    <glyph glyph-name="Gbreve" unicode="&#x11e;" horiz-adv-x="1188" 
d="M583 -25q-139 0 -244 80.5t-158 227t-34 344.5q16 162 69.5 287t136 211t185 130.5t215.5 44.5q147 0 246.5 -69.5t150.5 -219.5l-181 -54q-44 83 -104.5 124.5t-137.5 41.5q-94 0 -178 -59.5t-141.5 -170.5t-72.5 -266q-13 -140 17 -246t96.5 -166t164.5 -60
q78 0 145.5 37t112 111.5t51.5 184.5q2 16 1 30.5t-6 41.5l52 -54l-318 11l12 127h443l-59 -644h-143q-1 61 -0.5 123t-1.5 122l14 3q-45 -129 -127.5 -201t-205.5 -72zM715 1470q-135 0 -204 76.5t-51 203.5h154q-10 -73 22.5 -112.5t97.5 -39.5t108 39.5t53 112.5h154
q-14 -129 -105 -204.5t-229 -75.5z" />
    <glyph glyph-name="uni0122" unicode="&#x122;" horiz-adv-x="1188" 
d="M583 -25q-139 0 -244 80.5t-158 227t-34 344.5q16 162 69.5 287t136 211t185 130.5t215.5 44.5q147 0 246.5 -69.5t150.5 -219.5l-181 -54q-44 83 -104.5 124.5t-137.5 41.5q-94 0 -178 -59.5t-141.5 -170.5t-72.5 -266q-13 -140 17 -246t96.5 -166t164.5 -60
q78 0 145.5 37t112 111.5t51.5 184.5q2 16 1 30.5t-6 41.5l52 -54l-318 11l12 127h443l-59 -644h-143q-1 61 -0.5 123t-1.5 122l14 3q-45 -129 -127.5 -201t-205.5 -72zM461 -451l-100 59q48 25 84.5 58t51.5 77q-37 6 -61 31t-20 67q5 42 36.5 71t76.5 29q55 0 83 -44.5
t22 -106.5q-7 -65 -51.5 -132t-121.5 -109z" />
    <glyph glyph-name="Gdotaccent" unicode="&#x120;" horiz-adv-x="1188" 
d="M583 -25q-139 0 -244 80.5t-158 227t-34 344.5q16 162 69.5 287t136 211t185 130.5t215.5 44.5q147 0 246.5 -69.5t150.5 -219.5l-181 -54q-44 83 -104.5 124.5t-137.5 41.5q-94 0 -178 -59.5t-141.5 -170.5t-72.5 -266q-13 -140 17 -246t96.5 -166t164.5 -60
q78 0 145.5 37t112 111.5t51.5 184.5q2 16 1 30.5t-6 41.5l52 -54l-318 11l12 127h443l-59 -644h-143q-1 61 -0.5 123t-1.5 122l14 3q-45 -129 -127.5 -201t-205.5 -72zM747 1533q-47 0 -75 32.5t-23 80.5q3 46 37.5 82t88.5 36q42 0 70 -31t24 -82q-6 -55 -40 -86.5
t-82 -31.5z" />
    <glyph glyph-name="Hbar" unicode="&#x126;" horiz-adv-x="1236" 
d="M175 0l120 1277h176l-63 -669l-41 30h625l-50 -28l63 667h177l-121 -1277h-176l49 528l41 -35h-623l49 35l-50 -528h-176zM315 786l27 145h744l-25 -145h-746z" />
    <glyph glyph-name="IJ" unicode="&#x132;" horiz-adv-x="1288" 
d="M175 0l120 1277h176l-120 -1277h-176zM551 58l19 199q63 -47 127 -69.5t123 -22.5q87 0 130 56t54 162l84 894h178l-85 -894q-14 -146 -64 -236t-126.5 -131t-172.5 -41q-78 0 -143 23.5t-124 59.5z" />
    <glyph glyph-name="Idotaccent" unicode="&#x130;" horiz-adv-x="525" 
d="M175 0l120 1277h176l-120 -1277h-176zM416 1533q-47 0 -75 32.5t-23 80.5q3 46 37.5 82t88.5 36q42 0 70 -31t24 -82q-6 -55 -40 -86.5t-82 -31.5z" />
    <glyph glyph-name="Imacron" unicode="&#x12a;" horiz-adv-x="525" 
d="M175 0l120 1277h176l-120 -1277h-176zM169 1640h490l-17 -158h-491z" />
    <glyph glyph-name="Iogonek" unicode="&#x12e;" horiz-adv-x="525" 
d="M175 0l120 1277h176l-120 -1277h-176zM478 -329q-63 -35 -131.5 -53.5t-132.5 -18.5q-102 0 -166 46.5t-64 129.5q0 76 58 147.5t173 116.5l136 -39q-108 -41 -171 -88t-63 -103q0 -42 34.5 -60.5t81.5 -18.5q44 0 91.5 15t107.5 48z" />
    <glyph glyph-name="uni0136" unicode="&#x136;" horiz-adv-x="1136" 
d="M295 1277h178l-52 -558l536 558h242l-557 -573l469 -704h-228l-374 567l-114 -118l-42 -449h-178zM435 -451l-100 59q48 25 84.5 58t51.5 77q-37 6 -61 31t-20 67q5 42 36.5 71t76.5 29q55 0 83 -44.5t22 -106.5q-7 -65 -51.5 -132t-121.5 -109z" />
    <glyph glyph-name="Lacute" unicode="&#x139;" horiz-adv-x="865" 
d="M175 0l120 1277h176l-105 -1106h493l-16 -171h-668zM439 1434l-36 123l476 265l51 -171z" />
    <glyph glyph-name="Lcaron" unicode="&#x13d;" horiz-adv-x="865" 
d="M175 0l120 1277h176l-105 -1106h493l-16 -171h-668zM790 885l-100 59q48 25 84.5 58t51.5 77q-37 6 -61 31t-20 67q5 42 36.5 71t76.5 29q55 0 83 -44.5t22 -106.5q-7 -65 -51 -132t-122 -109z" />
    <glyph glyph-name="uni013B" unicode="&#x13b;" horiz-adv-x="865" 
d="M175 0l120 1277h176l-105 -1106h493l-16 -171h-668zM383 -451l-100 59q48 25 84.5 58t51.5 77q-37 6 -61 31t-20 67q5 42 36.5 71t76.5 29q55 0 83 -44.5t22 -106.5q-7 -65 -51.5 -132t-121.5 -109z" />
    <glyph glyph-name="Lslash" unicode="&#x141;" horiz-adv-x="865" 
d="M90 629l-1 165l530 87l1 -164zM175 0l120 1277h176l-105 -1106h493l-16 -171h-668z" />
    <glyph glyph-name="Nacute" unicode="&#x143;" horiz-adv-x="1260" 
d="M171 0l120 1277h198l479 -1020l-35 3l98 1017h176l-120 -1277h-185l-494 1038l37 -3l-97 -1035h-177zM636 1434l-36 123l476 265l51 -171z" />
    <glyph glyph-name="Ncaron" unicode="&#x147;" horiz-adv-x="1260" 
d="M171 0l120 1277h198l479 -1020l-35 3l98 1017h176l-120 -1277h-185l-494 1038l37 -3l-97 -1035h-177zM1044 1859l101 -97l-377 -317l-320 317l122 97l216 -209z" />
    <glyph glyph-name="uni0145" unicode="&#x145;" horiz-adv-x="1260" 
d="M171 0l120 1277h198l479 -1020l-35 3l98 1017h176l-120 -1277h-185l-494 1038l37 -3l-97 -1035h-177zM567 -451l-100 59q48 25 84.5 58t51.5 77q-37 6 -61 31t-20 67q5 42 36.5 71t76.5 29q55 0 83 -44.5t22 -106.5q-7 -65 -51.5 -132t-121.5 -109z" />
    <glyph glyph-name="Eng" unicode="&#x14a;" horiz-adv-x="1252" 
d="M450 -404l18 200q63 -49 127.5 -71t123.5 -22q87 0 131.5 55.5t54.5 163.5l84 894h173l-82 -894q-14 -147 -63.5 -236.5t-127 -130.5t-173.5 -41q-78 0 -142.5 23t-123.5 59zM171 0l120 1277h198l479 -1020l-35 3l98 1017h176l-120 -1277l-164 -47l-515 1085l37 -3
l-97 -1035h-177z" />
    <glyph glyph-name="Ohungarumlaut" unicode="&#x150;" horiz-adv-x="1195" 
d="M593 -25q-148 0 -255.5 74t-158.5 221.5t-30 368.5q21 223 100 370.5t200.5 219.5t269.5 72q149 0 257.5 -73.5t160 -221t31.5 -367.5q-22 -224 -101.5 -371t-201.5 -220t-272 -73zM611 153q150 0 250.5 124.5t123.5 362.5q23 231 -54.5 358t-227.5 127
q-151 0 -250.5 -127t-121.5 -359q-23 -238 53.5 -362t226.5 -124zM896 1414l-100 17l31 330l141 -28zM645 1425l-103 13l15 335l143 -23z" />
    <glyph glyph-name="Omacron" unicode="&#x14c;" horiz-adv-x="1195" 
d="M593 -25q-148 0 -255.5 74t-158.5 221.5t-30 368.5q21 223 100 370.5t200.5 219.5t269.5 72q149 0 257.5 -73.5t160 -221t31.5 -367.5q-22 -224 -101.5 -371t-201.5 -220t-272 -73zM611 153q150 0 250.5 124.5t123.5 362.5q23 231 -54.5 358t-227.5 127
q-151 0 -250.5 -127t-121.5 -359q-23 -238 53.5 -362t226.5 -124zM435 1640h654l-24 -158h-654z" />
    <glyph glyph-name="Oslash" unicode="&#xd8;" horiz-adv-x="1198" 
d="M-8 0l1145 1277h182l-1149 -1277h-178zM596 -25q-148 0 -256 74t-159 221.5t-29 368.5q20 223 99 370.5t201 219.5t270 72q149 0 257 -73.5t160 -221t32 -367.5q-22 -224 -102 -371t-202 -220t-271 -73zM613 153q151 0 251.5 124.5t123.5 362.5q22 231 -55 358t-228 127
q-150 0 -249.5 -127t-121.5 -359q-24 -238 53 -362t226 -124z" />
    <glyph glyph-name="OE" unicode="&#x152;" horiz-adv-x="1795" 
d="M593 -25q-148 0 -255.5 74t-158.5 221.5t-30 368.5q21 223 100 370.5t200.5 219.5t269.5 72q149 0 257.5 -73.5t160 -221t31.5 -367.5q-22 -224 -101.5 -371t-201.5 -220t-272 -73zM611 153q150 0 250.5 124.5t123.5 362.5q23 231 -54.5 358t-227.5 127
q-151 0 -250.5 -127t-121.5 -359q-23 -238 53.5 -362t226.5 -124zM937 0l120 1277h724l-18 -168h-547l-36 -384h514l-16 -168h-514l-36 -386h548l-16 -171h-723z" />
    <glyph glyph-name="Thorn" unicode="&#xde;" horiz-adv-x="1021" 
d="M170 0l120 1277h176l-24 -255l-41 45h266q128 0 213 -48t123.5 -138t25.5 -215q-16 -186 -131.5 -292t-306.5 -106h-255l40 48l-29 -316h-177zM382 379l-44 59h270q107 0 169 63t71 165q10 103 -41 167.5t-157 64.5h-269l55 64z" />
    <glyph glyph-name="Racute" unicode="&#x154;" horiz-adv-x="1131" 
d="M175 0l120 1277h412q202 0 298.5 -106t79.5 -279q-14 -141 -95.5 -238.5t-223.5 -129.5l270 -524h-228l-229 510h-181l-47 -510h-176zM410 643h221q123 0 192.5 65t78.5 168q10 106 -44 169.5t-167 63.5h-237zM572 1434l-36 123l476 265l51 -171z" />
    <glyph glyph-name="Rcaron" unicode="&#x158;" horiz-adv-x="1131" 
d="M175 0l120 1277h412q202 0 298.5 -106t79.5 -279q-14 -141 -95.5 -238.5t-223.5 -129.5l270 -524h-228l-229 510h-181l-47 -510h-176zM410 643h221q123 0 192.5 65t78.5 168q10 106 -44 169.5t-167 63.5h-237zM980 1859l101 -97l-377 -317l-320 317l122 97l216 -209z" />
    <glyph glyph-name="uni0156" unicode="&#x156;" horiz-adv-x="1131" 
d="M175 0l120 1277h412q202 0 298.5 -106t79.5 -279q-14 -141 -95.5 -238.5t-223.5 -129.5l270 -524h-228l-229 510h-181l-47 -510h-176zM410 643h221q123 0 192.5 65t78.5 168q10 106 -44 169.5t-167 63.5h-237zM432 -451l-100 59q48 25 84.5 58t51.5 77q-37 6 -61 31
t-20 67q5 42 36.5 71t76.5 29q55 0 83 -44.5t22 -106.5q-7 -65 -51.5 -132t-121.5 -109z" />
    <glyph glyph-name="Sacute" unicode="&#x15a;" horiz-adv-x="1117" 
d="M555 -25q-117 0 -211 46t-145.5 138.5t-42.5 231.5h174q-8 -81 23 -133.5t88 -77.5t128 -25q74 0 132 24t93 65t40 94q7 72 -28 115t-114 74l-207 92q-132 56 -197.5 130.5t-53.5 209.5q16 152 132 247t309 95q185 0 278 -95t93 -260h-174q-5 82 -57 129.5t-156 47.5
q-102 0 -163.5 -48.5t-69.5 -121.5q-5 -61 27.5 -98t106.5 -66l235 -100q121 -50 183.5 -133t50.5 -212q-10 -109 -68.5 -192t-161.5 -130t-244 -47zM564 1434l-36 123l476 265l51 -171z" />
    <glyph glyph-name="Scaron" unicode="&#x160;" horiz-adv-x="1117" 
d="M555 -25q-117 0 -211 46t-145.5 138.5t-42.5 231.5h174q-8 -81 23 -133.5t88 -77.5t128 -25q74 0 132 24t93 65t40 94q7 72 -28 115t-114 74l-207 92q-132 56 -197.5 130.5t-53.5 209.5q16 152 132 247t309 95q185 0 278 -95t93 -260h-174q-5 82 -57 129.5t-156 47.5
q-102 0 -163.5 -48.5t-69.5 -121.5q-5 -61 27.5 -98t106.5 -66l235 -100q121 -50 183.5 -133t50.5 -212q-10 -109 -68.5 -192t-161.5 -130t-244 -47zM973 1859l101 -97l-377 -317l-320 317l122 97l216 -209z" />
    <glyph glyph-name="Scedilla" unicode="&#x15e;" horiz-adv-x="1117" 
d="M555 -25q-117 0 -211 46t-145.5 138.5t-42.5 231.5h174q-8 -81 23 -133.5t88 -77.5t128 -25q74 0 132 24t93 65t40 94q7 72 -28 115t-114 74l-207 92q-132 56 -197.5 130.5t-53.5 209.5q16 152 132 247t309 95q185 0 278 -95t93 -260h-174q-5 82 -57 129.5t-156 47.5
q-102 0 -163.5 -48.5t-69.5 -121.5q-5 -61 27.5 -98t106.5 -66l235 -100q121 -50 183.5 -133t50.5 -212q-10 -109 -68.5 -192t-161.5 -130t-244 -47zM385 -361l24 74q74 -37 130.5 -41.5t89 14.5t32.5 52q1 32 -27 56t-73.5 41.5t-98.5 29.5l61 201l97 -11l-55 -186l-38 59
q94 -18 156.5 -47.5t93.5 -68t31 -84.5q0 -57 -42.5 -92t-108.5 -46.5t-138.5 1t-133.5 48.5z" />
    <glyph glyph-name="uni0218" unicode="&#x218;" horiz-adv-x="1117" 
d="M555 -25q-117 0 -211 46t-145.5 138.5t-42.5 231.5h174q-8 -81 23 -133.5t88 -77.5t128 -25q74 0 132 24t93 65t40 94q7 72 -28 115t-114 74l-207 92q-132 56 -197.5 130.5t-53.5 209.5q16 152 132 247t309 95q185 0 278 -95t93 -260h-174q-5 82 -57 129.5t-156 47.5
q-102 0 -163.5 -48.5t-69.5 -121.5q-5 -61 27.5 -98t106.5 -66l235 -100q121 -50 183.5 -133t50.5 -212q-10 -109 -68.5 -192t-161.5 -130t-244 -47zM555 -451l-100 59q48 25 84.5 58t51.5 77q-37 6 -61 31t-20 67q5 42 36.5 71t76.5 29q55 0 83 -44.5t22 -106.5
q-7 -65 -51.5 -132t-121.5 -109z" />
    <glyph glyph-name="uni1E9E" unicode="&#x1e9e;" horiz-adv-x="1291" 
d="M1255 385q0 -103 -48.5 -197.5t-142.5 -154t-233 -59.5q-68 0 -116.5 8.5t-116.5 34.5l14 160q64 -21 112.5 -35t107.5 -14q87 0 138 39t73 93t22 98q0 104 -60.5 158.5t-205.5 54.5h-114l10 111l290 427h-536l-100 -1109h-174l115 1275h916l-13 -143l-290 -416
q94 0 173.5 -34.5t129 -107.5t49.5 -189z" />
    <glyph glyph-name="Tbar" unicode="&#x166;" horiz-adv-x="929" 
d="M208 785h654l-24 -157h-655zM376 0l104 1109h-365l17 168h907l-17 -168h-366l-104 -1109h-176z" />
    <glyph glyph-name="Tcaron" unicode="&#x164;" horiz-adv-x="929" 
d="M376 0l104 1109h-365l17 168h907l-17 -168h-366l-104 -1109h-176zM879 1859l101 -97l-377 -317l-320 317l122 97l216 -209z" />
    <glyph glyph-name="uni0162" unicode="&#x162;" horiz-adv-x="929" 
d="M376 0l104 1109h-365l17 168h907l-17 -168h-366l-104 -1109h-176zM241 -361l24 74q74 -37 130.5 -41.5t89 14.5t32.5 52q1 32 -27 56t-73.5 41.5t-98.5 29.5l61 201l97 -11l-55 -186l-38 59q94 -18 156.5 -47.5t93.5 -68t31 -84.5q0 -57 -42.5 -92t-108.5 -46.5t-138.5 1
t-133.5 48.5z" />
    <glyph glyph-name="uni021A" unicode="&#x21a;" horiz-adv-x="929" 
d="M376 0l104 1109h-365l17 168h907l-17 -168h-366l-104 -1109h-176zM412 -451l-100 59q48 25 84.5 58t51.5 77q-37 6 -61 31t-20 67q5 42 36.5 71t76.5 29q55 0 83 -44.5t22 -106.5q-7 -65 -51.5 -132t-121.5 -109z" />
    <glyph glyph-name="Ubreve" unicode="&#x16c;" horiz-adv-x="1209" 
d="M601 -25q-210 0 -318.5 128t-86.5 368l78 806h176l-78 -806q-15 -167 54 -241.5t191 -74.5q123 0 206 74.5t99 241.5l78 806h176l-77 -806q-15 -160 -80 -271t-172 -168t-246 -57zM726 1470q-135 0 -204 76.5t-51 203.5h154q-10 -73 22.5 -112.5t97.5 -39.5t108 39.5
t53 112.5h154q-14 -129 -105 -204.5t-229 -75.5z" />
    <glyph glyph-name="Uhungarumlaut" unicode="&#x170;" horiz-adv-x="1209" 
d="M601 -25q-210 0 -318.5 128t-86.5 368l78 806h176l-78 -806q-15 -167 54 -241.5t191 -74.5q123 0 206 74.5t99 241.5l78 806h176l-77 -806q-15 -160 -80 -271t-172 -168t-246 -57zM903 1414l-100 17l31 330l141 -28zM652 1425l-103 13l15 335l143 -23z" />
    <glyph glyph-name="Umacron" unicode="&#x16a;" horiz-adv-x="1209" 
d="M601 -25q-210 0 -318.5 128t-86.5 368l78 806h176l-78 -806q-15 -167 54 -241.5t191 -74.5q123 0 206 74.5t99 241.5l78 806h176l-77 -806q-15 -160 -80 -271t-172 -168t-246 -57zM443 1640h654l-24 -158h-654z" />
    <glyph glyph-name="Uogonek" unicode="&#x172;" horiz-adv-x="1209" 
d="M601 -25q-210 0 -318.5 128t-86.5 368l78 806h176l-78 -806q-15 -167 54 -241.5t191 -74.5q123 0 206 74.5t99 241.5l78 806h176l-77 -806q-15 -160 -80 -271t-172 -168t-246 -57zM874 -334q-63 -35 -131.5 -53.5t-132.5 -18.5q-102 0 -166 46.5t-64 129.5q0 76 58 147.5
t173 116.5l136 -39q-108 -41 -171 -88t-63 -103q0 -42 34.5 -60.5t81.5 -18.5q44 0 91.5 15t107.5 48z" />
    <glyph glyph-name="Uring" unicode="&#x16e;" horiz-adv-x="1209" 
d="M601 -25q-210 0 -318.5 128t-86.5 368l78 806h176l-78 -806q-15 -167 54 -241.5t191 -74.5q123 0 206 74.5t99 241.5l78 806h176l-77 -806q-15 -160 -80 -271t-172 -168t-246 -57zM753 1404q-60 0 -109 30t-78.5 79.5t-29.5 107.5q0 60 29.5 109.5t78.5 78.5t109 29
t109 -29t78.5 -78.5t29.5 -109.5q0 -58 -29.5 -107.5t-78.5 -79.5t-109 -30zM753 1537q35 0 60 24.5t25 59.5q0 37 -25 61.5t-60 24.5t-60 -24.5t-25 -61.5q0 -35 25 -59.5t60 -24.5z" />
    <glyph glyph-name="Wacute" unicode="&#x1e82;" horiz-adv-x="1672" 
d="M151 1277h197l169 -1016l351 908h119l184 -912l394 1020h197l-521 -1277h-186l-160 769l-310 -769h-184zM842 1434l-36 123l476 265l51 -171z" />
    <glyph glyph-name="Wcircumflex" unicode="&#x174;" horiz-adv-x="1672" 
d="M151 1277h197l169 -1016l351 908h119l184 -912l394 1020h197l-521 -1277h-186l-160 769l-310 -769h-184zM727 1436l-100 97l376 317l320 -317l-122 -97l-216 209z" />
    <glyph glyph-name="Wdieresis" unicode="&#x1e84;" horiz-adv-x="1672" 
d="M151 1277h197l169 -1016l351 908h119l184 -912l394 1020h197l-521 -1277h-186l-160 769l-310 -769h-184zM827 1532q-49 0 -76 33t-22 80q3 47 36 82.5t84 35.5q44 0 74 -31t27 -82q-5 -54 -42 -86t-81 -32zM1151 1533q-47 0 -75 32.5t-23 80.5q4 46 37.5 82t82.5 36
q43 0 73 -30t27 -83q-4 -58 -41.5 -88t-80.5 -30z" />
    <glyph glyph-name="Wgrave" unicode="&#x1e80;" horiz-adv-x="1672" 
d="M151 1277h197l169 -1016l351 908h119l184 -912l394 1020h197l-521 -1277h-186l-160 769l-310 -769h-184zM1172 1398l-449 218l84 171l426 -265z" />
    <glyph glyph-name="Yacute" unicode="&#xdd;" horiz-adv-x="1037" 
d="M425 0l49 526l-330 751h209l229 -548l344 548h207l-482 -751l-49 -526h-177zM524 1434l-36 123l476 265l51 -171z" />
    <glyph glyph-name="Ycircumflex" unicode="&#x176;" horiz-adv-x="1037" 
d="M425 0l49 526l-330 751h209l229 -548l344 548h207l-482 -751l-49 -526h-177zM409 1436l-100 97l376 317l320 -317l-122 -97l-216 209z" />
    <glyph glyph-name="Ydieresis" unicode="&#x178;" horiz-adv-x="1037" 
d="M425 0l49 526l-330 751h209l229 -548l344 548h207l-482 -751l-49 -526h-177zM509 1532q-49 0 -76 33t-22 80q3 47 36 82.5t84 35.5q44 0 74 -31t27 -82q-5 -54 -42 -86t-81 -32zM833 1533q-47 0 -75 32.5t-23 80.5q4 46 37.5 82t82.5 36q43 0 73 -30t27 -83
q-4 -58 -41.5 -88t-80.5 -30z" />
    <glyph glyph-name="Ygrave" unicode="&#x1ef2;" horiz-adv-x="1037" 
d="M425 0l49 526l-330 751h209l229 -548l344 548h207l-482 -751l-49 -526h-177zM854 1398l-449 218l84 171l426 -265z" />
    <glyph glyph-name="Zacute" unicode="&#x179;" horiz-adv-x="1098" 
d="M132 0l15 172l724 923l-637 4l18 178h857l-17 -171l-723 -923l635 -4l-16 -179h-856zM555 1434l-36 123l476 265l51 -171z" />
    <glyph glyph-name="Zcaron" unicode="&#x17d;" horiz-adv-x="1098" 
d="M132 0l15 172l724 923l-637 4l18 178h857l-17 -171l-723 -923l635 -4l-16 -179h-856zM963 1859l101 -97l-377 -317l-320 317l122 97l216 -209z" />
    <glyph glyph-name="Zdotaccent" unicode="&#x17b;" horiz-adv-x="1098" 
d="M132 0l15 172l724 923l-637 4l18 178h857l-17 -171l-723 -923l635 -4l-16 -179h-856zM702 1533q-47 0 -75 32.5t-23 80.5q3 46 37.5 82t88.5 36q42 0 70 -31t24 -82q-6 -55 -40 -86.5t-82 -31.5z" />
    <glyph glyph-name="abreve" unicode="&#x103;" horiz-adv-x="1029" 
d="M434 -25q-105 0 -173.5 43t-99 111.5t-22.5 146.5q9 95 58.5 157.5t131 94t183.5 31.5q63 0 124 -12.5t116 -33.5l11 110q13 116 -26.5 169t-132.5 53q-54 0 -97 -17.5t-70 -52.5t-32 -87h-194q11 110 67 176t142 95.5t184 29.5q177 0 264.5 -90t69.5 -282l-58 -617h-152
q-1 37 -0.5 73.5t-0.5 73.5q-50 -86 -123 -129t-170 -43zM477 125q68 0 126.5 33t95.5 92.5t41 138.5q-49 16 -105 26t-105 10q-81 0 -139 -33.5t-66 -115.5q-5 -64 34.5 -107.5t117.5 -43.5zM591 1156q-135 0 -204 76.5t-51 203.5h154q-10 -73 22.5 -112.5t97.5 -39.5
t108 39.5t53 112.5h154q-14 -129 -105 -204.5t-229 -75.5z" />
    <glyph glyph-name="amacron" unicode="&#x101;" horiz-adv-x="1029" 
d="M434 -25q-105 0 -173.5 43t-99 111.5t-22.5 146.5q9 95 58.5 157.5t131 94t183.5 31.5q63 0 124 -12.5t116 -33.5l11 110q13 116 -26.5 169t-132.5 53q-54 0 -97 -17.5t-70 -52.5t-32 -87h-194q11 110 67 176t142 95.5t184 29.5q177 0 264.5 -90t69.5 -282l-58 -617h-152
q-1 37 -0.5 73.5t-0.5 73.5q-50 -86 -123 -129t-170 -43zM477 125q68 0 126.5 33t95.5 92.5t41 138.5q-49 16 -105 26t-105 10q-81 0 -139 -33.5t-66 -115.5q-5 -64 34.5 -107.5t117.5 -43.5zM308 1326h654l-24 -158h-654z" />
    <glyph glyph-name="aogonek" unicode="&#x105;" horiz-adv-x="1029" 
d="M434 -25q-105 0 -173.5 43t-99 111.5t-22.5 146.5q9 95 58.5 157.5t131 94t183.5 31.5q63 0 124 -12.5t116 -33.5l11 110q13 116 -26.5 169t-132.5 53q-54 0 -97 -17.5t-70 -52.5t-32 -87h-194q11 110 67 176t142 95.5t184 29.5q177 0 264.5 -90t69.5 -282l-58 -617h-152
q-1 37 -0.5 73.5t-0.5 73.5q-50 -86 -123 -129t-170 -43zM477 125q68 0 126.5 33t95.5 92.5t41 138.5q-49 16 -105 26t-105 10q-81 0 -139 -33.5t-66 -115.5q-5 -64 34.5 -107.5t117.5 -43.5zM1007 -329q-63 -35 -131.5 -53.5t-132.5 -18.5q-102 0 -166 46.5t-64 129.5
q0 76 58 147.5t173 116.5l136 -39q-108 -41 -171 -88t-63 -103q0 -42 34.5 -60.5t81.5 -18.5q44 0 91.5 15t107.5 48z" />
    <glyph glyph-name="aring" unicode="&#xe5;" horiz-adv-x="1029" 
d="M434 -25q-105 0 -173.5 43t-99 111.5t-22.5 146.5q9 95 58.5 157.5t131 94t183.5 31.5q63 0 124 -12.5t116 -33.5l11 110q13 116 -26.5 169t-132.5 53q-54 0 -97 -17.5t-70 -52.5t-32 -87h-194q11 110 67 176t142 95.5t184 29.5q177 0 264.5 -90t69.5 -282l-58 -617h-152
q-1 37 -0.5 73.5t-0.5 73.5q-50 -86 -123 -129t-170 -43zM477 125q68 0 126.5 33t95.5 92.5t41 138.5q-49 16 -105 26t-105 10q-81 0 -139 -33.5t-66 -115.5q-5 -64 34.5 -107.5t117.5 -43.5zM618 1090q-60 0 -109 30t-78.5 79.5t-29.5 107.5q0 60 29.5 109.5t78.5 78.5
t109 29t109 -29t78.5 -78.5t29.5 -109.5q0 -58 -29.5 -107.5t-78.5 -79.5t-109 -30zM618 1223q35 0 60 24.5t25 59.5q0 37 -25 61.5t-60 24.5t-60 -24.5t-25 -61.5q0 -35 25 -59.5t60 -24.5z" />
    <glyph glyph-name="ae" unicode="&#xe6;" horiz-adv-x="1554" 
d="M138 276q8 90 57.5 153t130.5 96.5t183 33.5q67 0 133 -15t130 -41l-33 -35l15 155q13 117 -25 169.5t-125 52.5q-52 0 -94.5 -17.5t-69.5 -52.5t-32 -87h-194q9 110 66 176t142 95.5t180 29.5q120 0 192 -50.5t87 -166.5l-25 6q63 100 154 155.5t195 55.5q85 0 147 -35
t101.5 -95.5t54.5 -138.5t4 -163q-2 -29 -6.5 -59t-11.5 -62h-619l49 39q-12 -97 3 -174.5t61 -122.5t126 -45q71 0 122.5 39t69.5 113h180q-22 -94 -78.5 -164t-135 -108t-166.5 -38q-83 0 -148.5 33t-111.5 88.5t-68 123.5l27 1q-58 -123 -164.5 -184.5t-213.5 -61.5
q-91 0 -158.5 39t-102 107t-28.5 155zM328 276q-5 -64 34 -107.5t114 -43.5q53 0 100 22t83.5 61.5t57 94.5t19.5 119l22 -41q-52 18 -114.5 31t-115.5 13q-49 0 -93 -14t-73 -46.5t-34 -88.5zM928 523l-40 36h459q8 73 -4 135t-50.5 100.5t-110.5 38.5q-74 0 -128 -43
t-85.5 -113.5t-40.5 -153.5z" />
    <glyph glyph-name="cacute" unicode="&#x107;" horiz-adv-x="940" 
d="M490 -25q-108 0 -195 62t-132 176t-31 270q15 162 81.5 274.5t164.5 172t207 59.5q77 0 135.5 -27.5t99 -74t62 -105.5t25.5 -121l-178 -11q-13 73 -54 118.5t-109 45.5q-59 0 -113.5 -36.5t-92.5 -110t-49 -184.5q-9 -105 12.5 -179.5t69 -113.5t113.5 -39
q85 0 135 48.5t58 134.5h178q-8 -101 -58.5 -182.5t-135 -129t-193.5 -47.5zM492 1120l-36 123l476 265l51 -171z" />
    <glyph glyph-name="ccaron" unicode="&#x10d;" horiz-adv-x="940" 
d="M490 -25q-108 0 -195 62t-132 176t-31 270q15 162 81.5 274.5t164.5 172t207 59.5q77 0 135.5 -27.5t99 -74t62 -105.5t25.5 -121l-178 -11q-13 73 -54 118.5t-109 45.5q-59 0 -113.5 -36.5t-92.5 -110t-49 -184.5q-9 -105 12.5 -179.5t69 -113.5t113.5 -39
q85 0 135 48.5t58 134.5h178q-8 -101 -58.5 -182.5t-135 -129t-193.5 -47.5zM900 1545l101 -97l-377 -317l-320 317l122 97l216 -209z" />
    <glyph glyph-name="ccedilla" unicode="&#xe7;" horiz-adv-x="940" 
d="M490 -25q-108 0 -195 62t-132 176t-31 270q15 162 81.5 274.5t164.5 172t207 59.5q77 0 135.5 -27.5t99 -74t62 -105.5t25.5 -121l-178 -11q-13 73 -54 118.5t-109 45.5q-59 0 -113.5 -36.5t-92.5 -110t-49 -184.5q-9 -105 12.5 -179.5t69 -113.5t113.5 -39
q85 0 135 48.5t58 134.5h178q-8 -101 -58.5 -182.5t-135 -129t-193.5 -47.5zM308 -361l24 74q74 -37 130.5 -41.5t89 14.5t32.5 52q1 32 -27 56t-73.5 41.5t-98.5 29.5l61 201l97 -11l-55 -186l-38 59q94 -18 156.5 -47.5t93.5 -68t31 -84.5q0 -57 -42.5 -92t-108.5 -46.5
t-138.5 1t-133.5 48.5z" />
    <glyph glyph-name="cdotaccent" unicode="&#x10b;" horiz-adv-x="940" 
d="M490 -25q-108 0 -195 62t-132 176t-31 270q15 162 81.5 274.5t164.5 172t207 59.5q77 0 135.5 -27.5t99 -74t62 -105.5t25.5 -121l-178 -11q-13 73 -54 118.5t-109 45.5q-59 0 -113.5 -36.5t-92.5 -110t-49 -184.5q-9 -105 12.5 -179.5t69 -113.5t113.5 -39
q85 0 135 48.5t58 134.5h178q-8 -101 -58.5 -182.5t-135 -129t-193.5 -47.5zM639 1219q-47 0 -75 32.5t-23 80.5q3 46 37.5 82t88.5 36q42 0 70 -31t24 -82q-6 -55 -40 -86.5t-82 -31.5z" />
    <glyph glyph-name="dcaron" unicode="&#x10f;" horiz-adv-x="1087" 
d="M488 -25q-100 0 -178.5 54.5t-124 152.5t-45.5 228q0 105 29 207.5t84.5 186.5t135 134.5t180.5 50.5q86 0 147 -39.5t96 -116.5l51 534h177l-129 -1367h-144l-8 157q-49 -91 -121 -136.5t-150 -45.5zM528 151q53 0 106 30.5t91.5 88t45.5 137.5l15 160q2 9 2 14v13
q1 72 -27 121t-73 74t-98 25q-71 0 -122.5 -36.5t-83.5 -95t-47.5 -125.5t-15.5 -127q0 -127 58 -203t149 -76zM1209 996l-100 59q48 25 84.5 58t51.5 77q-37 6 -61 31t-20 67q5 42 36.5 71t76.5 29q55 0 83 -44.5t22 -106.5q-7 -65 -51 -132t-122 -109z" />
    <glyph glyph-name="dcroat" unicode="&#x111;" horiz-adv-x="1071" 
d="M488 -25q-100 0 -178.5 54.5t-124 152.5t-45.5 228q0 105 29 207.5t84.5 186.5t135 134.5t180.5 50.5q88 0 153.5 -40.5t89.5 -115.5l51 534h177l-129 -1367h-144l-8 157q-49 -91 -121 -136.5t-150 -45.5zM528 151q53 0 105.5 30.5t90.5 86.5t46 134l14 145
q3 15 3.5 25.5t0.5 21.5q1 72 -27 121t-73 74t-98 25q-71 0 -122.5 -36.5t-83.5 -95t-47.5 -125.5t-15.5 -127q0 -127 58 -203t149 -76zM606 1102l17 128h511l-17 -128h-511z" />
    <glyph glyph-name="eth" unicode="&#xf0;" horiz-adv-x="1063" 
d="M488 -23q-94 0 -175 42t-131 128.5t-50 221.5q0 122 41.5 219t109 166t149 105t161.5 36q48 0 99.5 -15.5t95.5 -55t72 -109t28 -177.5l-12 2q19 235 -23 414t-132 322t-216 267l159 85q134 -139 211.5 -283t110 -292.5t32.5 -301.5q0 -205 -46.5 -351.5t-124 -240.5
t-171.5 -138t-188 -44zM503 125q86 0 147.5 55t94.5 141t33 178q0 125 -54.5 184.5t-133.5 59.5q-78 0 -140 -50.5t-98 -135t-36 -187.5q0 -111 47.5 -178t139.5 -67zM537 1058l-60 112l592 335l61 -113z" />
    <glyph glyph-name="ecaron" unicode="&#x11b;" horiz-adv-x="940" 
d="M485 -25q-113 0 -198 62t-127.5 175.5t-27.5 268.5q15 158 78.5 272t159.5 175t209 61q89 0 152.5 -35t102.5 -95.5t55.5 -138t9.5 -163.5q-2 -28 -6.5 -58.5t-11.5 -62.5h-624l49 35q-12 -95 3.5 -172t62.5 -121.5t129 -44.5q70 0 122 38.5t70 113.5h180
q-23 -95 -78.5 -164.5t-135 -107.5t-174.5 -38zM311 531l-39 28h508l-49 -24q11 76 1.5 144t-48 111t-117.5 43q-73 0 -127 -40.5t-86.5 -109t-42.5 -152.5zM840 1545l101 -97l-377 -317l-320 317l122 97l216 -209z" />
    <glyph glyph-name="edotaccent" unicode="&#x117;" horiz-adv-x="940" 
d="M485 -25q-113 0 -198 62t-127.5 175.5t-27.5 268.5q15 158 78.5 272t159.5 175t209 61q89 0 152.5 -35t102.5 -95.5t55.5 -138t9.5 -163.5q-2 -28 -6.5 -58.5t-11.5 -62.5h-624l49 35q-12 -95 3.5 -172t62.5 -121.5t129 -44.5q70 0 122 38.5t70 113.5h180
q-23 -95 -78.5 -164.5t-135 -107.5t-174.5 -38zM311 531l-39 28h508l-49 -24q11 76 1.5 144t-48 111t-117.5 43q-73 0 -127 -40.5t-86.5 -109t-42.5 -152.5zM579 1219q-47 0 -75 32.5t-23 80.5q3 46 37.5 82t88.5 36q42 0 70 -31t24 -82q-6 -55 -40 -86.5t-82 -31.5z" />
    <glyph glyph-name="emacron" unicode="&#x113;" horiz-adv-x="940" 
d="M485 -25q-113 0 -198 62t-127.5 175.5t-27.5 268.5q15 158 78.5 272t159.5 175t209 61q89 0 152.5 -35t102.5 -95.5t55.5 -138t9.5 -163.5q-2 -28 -6.5 -58.5t-11.5 -62.5h-624l49 35q-12 -95 3.5 -172t62.5 -121.5t129 -44.5q70 0 122 38.5t70 113.5h180
q-23 -95 -78.5 -164.5t-135 -107.5t-174.5 -38zM311 531l-39 28h508l-49 -24q11 76 1.5 144t-48 111t-117.5 43q-73 0 -127 -40.5t-86.5 -109t-42.5 -152.5zM264 1326h654l-24 -158h-654z" />
    <glyph glyph-name="eogonek" unicode="&#x119;" horiz-adv-x="940" 
d="M820 -333q-63 -35 -131.5 -53.5t-132.5 -18.5q-101 0 -165.5 46t-64.5 128q0 53 25 97.5t67 82.5t92.5 71t100.5 64l104 -36q-60 -38 -118.5 -73.5t-97.5 -74.5t-39 -90q0 -46 34.5 -65t80.5 -19q45 0 92 15t108 48zM485 -25q-113 0 -198 62t-127.5 175.5t-27.5 268.5
q15 158 78.5 272t159.5 175t209 61q89 0 152.5 -35t102.5 -95.5t55.5 -138t9.5 -163.5q-2 -28 -6.5 -58.5t-11.5 -62.5h-624l49 35q-12 -95 3.5 -172t62.5 -121.5t129 -44.5q70 0 122 38.5t70 113.5h180q-23 -95 -78.5 -164.5t-135 -107.5t-174.5 -38zM311 531l-39 28h508
l-49 -24q11 76 1.5 144t-48 111t-117.5 43q-73 0 -127 -40.5t-86.5 -109t-42.5 -152.5z" />
    <glyph glyph-name="gbreve" unicode="&#x11f;" horiz-adv-x="1031" 
d="M441 -497q-134 0 -231.5 42t-147.5 114t-42 161q8 83 61.5 139.5t133.5 73.5q-49 32 -72 76.5t-19 97.5q6 69 51 116.5t111 65.5q-42 47 -63 110t-14 141q11 106 67 184.5t142 121.5t185 43q63 0 117 -17t95 -49q15 74 54.5 128.5t97.5 85t127 30.5l-31 -190
q-76 0 -120.5 -31t-53.5 -99q26 -42 38.5 -94t7.5 -113q-9 -104 -66 -183t-145 -123t-193 -44q-41 0 -82.5 10t-77.5 28q-33 -8 -60 -35t-33 -71q-5 -44 25.5 -71.5t113.5 -27.5h314q129 0 198.5 -56t60.5 -167q-8 -100 -78 -191t-190.5 -148.5t-280.5 -57.5zM448 -341
q107 0 187.5 33t127 85t50.5 110q3 45 -21 71t-74 26h-329q-85 0 -137 -45t-56 -110q-4 -76 63 -123t189 -47zM553 429q62 0 106.5 28t70.5 76t31 107q9 94 -35.5 152.5t-132.5 58.5q-91 0 -146.5 -59t-63.5 -152q-8 -90 35.5 -150.5t134.5 -60.5zM634 1156
q-135 0 -204 76.5t-51 203.5h154q-10 -73 22.5 -112.5t97.5 -39.5t108 39.5t53 112.5h154q-14 -129 -105 -204.5t-229 -75.5z" />
    <glyph glyph-name="uni0123" unicode="&#x123;" horiz-adv-x="1031" 
d="M441 -497q-134 0 -231.5 42t-147.5 114t-42 161q8 83 61.5 139.5t133.5 73.5q-49 32 -72 76.5t-19 97.5q6 69 51 116.5t111 65.5q-42 47 -63 110t-14 141q11 106 67 184.5t142 121.5t185 43q63 0 117 -17t95 -49q15 74 54.5 128.5t97.5 85t127 30.5l-31 -190
q-76 0 -120.5 -31t-53.5 -99q26 -42 38.5 -94t7.5 -113q-9 -104 -66 -183t-145 -123t-193 -44q-41 0 -82.5 10t-77.5 28q-33 -8 -60 -35t-33 -71q-5 -44 25.5 -71.5t113.5 -27.5h314q129 0 198.5 -56t60.5 -167q-8 -100 -78 -191t-190.5 -148.5t-280.5 -57.5zM448 -341
q107 0 187.5 33t127 85t50.5 110q3 45 -21 71t-74 26h-329q-85 0 -137 -45t-56 -110q-4 -76 63 -123t189 -47zM553 429q62 0 106.5 28t70.5 76t31 107q9 94 -35.5 152.5t-132.5 58.5q-91 0 -146.5 -59t-63.5 -152q-8 -90 35.5 -150.5t134.5 -60.5zM689 1492l100 -59
q-48 -24 -85 -57.5t-52 -76.5q37 -6 61.5 -31t19.5 -67q-4 -41 -35.5 -70.5t-76.5 -29.5q-56 0 -83.5 44.5t-22.5 105.5q7 66 51.5 133.5t122.5 107.5z" />
    <glyph glyph-name="gdotaccent" unicode="&#x121;" horiz-adv-x="1031" 
d="M441 -497q-134 0 -231.5 42t-147.5 114t-42 161q8 83 61.5 139.5t133.5 73.5q-49 32 -72 76.5t-19 97.5q6 69 51 116.5t111 65.5q-42 47 -63 110t-14 141q11 106 67 184.5t142 121.5t185 43q63 0 117 -17t95 -49q15 74 54.5 128.5t97.5 85t127 30.5l-31 -190
q-76 0 -120.5 -31t-53.5 -99q26 -42 38.5 -94t7.5 -113q-9 -104 -66 -183t-145 -123t-193 -44q-41 0 -82.5 10t-77.5 28q-33 -8 -60 -35t-33 -71q-5 -44 25.5 -71.5t113.5 -27.5h314q129 0 198.5 -56t60.5 -167q-8 -100 -78 -191t-190.5 -148.5t-280.5 -57.5zM448 -341
q107 0 187.5 33t127 85t50.5 110q3 45 -21 71t-74 26h-329q-85 0 -137 -45t-56 -110q-4 -76 63 -123t189 -47zM553 429q62 0 106.5 28t70.5 76t31 107q9 94 -35.5 152.5t-132.5 58.5q-91 0 -146.5 -59t-63.5 -152q-8 -90 35.5 -150.5t134.5 -60.5zM666 1219q-47 0 -75 32.5
t-23 80.5q3 46 37.5 82t88.5 36q42 0 70 -31t24 -82q-6 -55 -40 -86.5t-82 -31.5z" />
    <glyph glyph-name="hbar" unicode="&#x127;" horiz-adv-x="1105" 
d="M167 1101l14 129h520l-14 -129h-520zM175 0l128 1367h177l-55 -570q53 93 128.5 142.5t168.5 49.5q105 0 173 -52t97 -147t17 -225l-53 -565h-175l52 565q13 123 -34.5 186t-133.5 63q-71 0 -127 -40t-92.5 -117.5t-50.5 -189.5l-44 -467h-176z" />
    <glyph glyph-name="dotlessi" unicode="&#x131;" horiz-adv-x="563" 
d="M188 0l91 966h176l-91 -966h-176z" />
    <glyph glyph-name="i.loclTRK" horiz-adv-x="563" 
d="M188 0l91 966h176l-91 -966h-176zM390 1219q-47 0 -75 32.5t-23 80.5q3 46 37.5 82t88.5 36q42 0 70 -31t24 -82q-6 -55 -40 -86.5t-82 -31.5z" />
    <glyph glyph-name="imacron" unicode="&#x12b;" horiz-adv-x="563" 
d="M188 0l91 966h176l-91 -966h-176zM168 1326h432l-16 -158h-432z" />
    <glyph glyph-name="iogonek" unicode="&#x12f;" horiz-adv-x="563" 
d="M188 0l91 966h176l-91 -966h-176zM390 1219q-47 0 -75 32.5t-23 80.5q3 46 37.5 82t88.5 36q42 0 70 -31t24 -82q-6 -55 -40 -86.5t-82 -31.5zM491 -329q-63 -35 -131.5 -53.5t-132.5 -18.5q-102 0 -166 46.5t-64 129.5q0 76 58 147.5t173 116.5l136 -39
q-108 -41 -171 -88t-63 -103q0 -42 34.5 -60.5t81.5 -18.5q44 0 91.5 15t107.5 48z" />
    <glyph glyph-name="ij" unicode="&#x133;" horiz-adv-x="1147" 
d="M386 1165q-52 0 -78.5 32t-23.5 86q5 51 37.5 84.5t85.5 33.5t79.5 -32.5t22.5 -85.5q-5 -55 -38.5 -86.5t-84.5 -31.5zM188 0l91 966h176l-91 -966h-176zM967 1165q-49 0 -77 31.5t-23 86.5q5 54 38.5 86t85.5 32t79 -32t21 -86q-4 -53 -37 -85.5t-87 -32.5zM616 -497
q-65 0 -122.5 18t-115.5 50l22 170q44 -29 93.5 -48t97.5 -19q72 0 114 46.5t54 156.5l103 1091h176l-104 -1093q-12 -135 -55 -216.5t-110 -118.5t-153 -37z" />
    <glyph glyph-name="uni0237" unicode="&#x237;" horiz-adv-x="583" 
d="M53 -497q-65 0 -122.5 18t-115.5 50l22 170q44 -29 93.5 -48t97.5 -19q72 0 114 46.5t54 156.5l103 1091h176l-104 -1093q-12 -135 -55 -216.5t-110 -118.5t-153 -37z" />
    <glyph glyph-name="uni0137" unicode="&#x137;" horiz-adv-x="1025" 
d="M779 0l-276 491l-115 -97l-37 -394h-176l128 1367h177l-72 -766l416 363h242l-426 -359l355 -605h-216zM379 -451l-100 59q48 25 84.5 58t51.5 77q-37 6 -61 31t-20 67q5 42 36.5 71t76.5 29q55 0 83 -44.5t22 -106.5q-7 -65 -51.5 -132t-121.5 -109z" />
    <glyph glyph-name="lacute" unicode="&#x13a;" horiz-adv-x="525" 
d="M175 0l128 1367h177l-129 -1367h-176zM293 1548l-36 123l476 265l51 -171z" />
    <glyph glyph-name="lcaron" unicode="&#x13e;" horiz-adv-x="525" 
d="M175 0l128 1367h177l-129 -1367h-176zM639 975l-100 59q48 25 84.5 58t51.5 77q-37 6 -61 31t-20 67q5 42 36.5 71t76.5 29q55 0 83 -44.5t22 -106.5q-7 -65 -51 -132t-122 -109z" />
    <glyph glyph-name="uni013C" unicode="&#x13c;" horiz-adv-x="525" 
d="M175 0l128 1367h177l-129 -1367h-176zM130 -451l-100 59q48 25 84.5 58t51.5 77q-37 6 -61 31t-20 67q5 42 36.5 71t76.5 29q55 0 83 -44.5t22 -106.5q-7 -65 -51.5 -132t-121.5 -109z" />
    <glyph glyph-name="lslash" unicode="&#x142;" horiz-adv-x="525" 
d="M175 0l128 1367h177l-129 -1367h-176zM102 939l519 93l3 -130l-518 -93z" />
    <glyph glyph-name="nacute" unicode="&#x144;" horiz-adv-x="1103" 
d="M174 0l91 964h152l2 -177q53 100 130 151t172 51q105 0 173 -51.5t97 -147t16 -225.5l-52 -565h-176l52 565q14 124 -34.5 186.5t-132.5 62.5q-110 0 -183 -96t-90 -275l-41 -443h-176zM514 1120l-36 123l476 265l51 -171z" />
    <glyph glyph-name="ncaron" unicode="&#x148;" horiz-adv-x="1103" 
d="M174 0l91 964h152l2 -177q53 100 130 151t172 51q105 0 173 -51.5t97 -147t16 -225.5l-52 -565h-176l52 565q14 124 -34.5 186.5t-132.5 62.5q-110 0 -183 -96t-90 -275l-41 -443h-176zM922 1545l101 -97l-377 -317l-320 317l122 97l216 -209z" />
    <glyph glyph-name="uni0146" unicode="&#x146;" horiz-adv-x="1103" 
d="M174 0l91 964h152l2 -177q53 100 130 151t172 51q105 0 173 -51.5t97 -147t16 -225.5l-52 -565h-176l52 565q14 124 -34.5 186.5t-132.5 62.5q-110 0 -183 -96t-90 -275l-41 -443h-176zM419 -451l-100 59q48 25 84.5 58t51.5 77q-37 6 -61 31t-20 67q5 42 36.5 71
t76.5 29q55 0 83 -44.5t22 -106.5q-7 -65 -51.5 -132t-121.5 -109z" />
    <glyph glyph-name="eng" unicode="&#x14b;" horiz-adv-x="1156" 
d="M622 -497q-64 0 -121 18t-115 50l22 170q44 -29 93.5 -48t99.5 -19q71 0 115 46t53 157l62 688q12 120 -34 184.5t-135 64.5q-70 0 -127.5 -43t-95 -125t-48.5 -203l-41 -443h-176l91 964h152l2 -177q55 102 132 152t173 50q104 0 171.5 -52.5t96.5 -147.5t17 -224
l-65 -690q-13 -135 -56 -216.5t-110.5 -118.5t-155.5 -37z" />
    <glyph glyph-name="ohungarumlaut" unicode="&#x151;" horiz-adv-x="999" 
d="M498 -25q-118 0 -207 57t-132 169.5t-27 279.5q16 169 81 282t164.5 169.5t216.5 56.5t205 -57.5t132 -170t28 -280.5q-17 -167 -82 -279.5t-163 -169.5t-216 -57zM507 145q111 0 184 87.5t90 248.5q16 163 -36.5 251t-162.5 88t-182 -87.5t-88 -251.5
q-11 -106 8.5 -181.5t66.5 -115t120 -39.5zM787 1100l-100 17l31 330l141 -28zM536 1111l-103 13l15 335l143 -23z" />
    <glyph glyph-name="omacron" unicode="&#x14d;" horiz-adv-x="999" 
d="M498 -25q-118 0 -207 57t-132 169.5t-27 279.5q16 169 81 282t164.5 169.5t216.5 56.5t205 -57.5t132 -170t28 -280.5q-17 -167 -82 -279.5t-163 -169.5t-216 -57zM507 145q111 0 184 87.5t90 248.5q16 163 -36.5 251t-162.5 88t-182 -87.5t-88 -251.5
q-11 -106 8.5 -181.5t66.5 -115t120 -39.5zM327 1326h654l-24 -158h-654z" />
    <glyph glyph-name="oslash" unicode="&#xf8;" horiz-adv-x="999" 
d="M11 0l872 964h160l-876 -964h-156zM498 -25q-118 0 -207 57t-132 169.5t-27 279.5q16 169 81 282t164.5 169.5t216.5 56.5t205 -57.5t132 -170t28 -280.5q-17 -167 -82 -279.5t-163 -169.5t-216 -57zM507 145q111 0 184 87.5t90 248.5q16 163 -36.5 251t-162.5 88
t-182 -87.5t-88 -251.5q-11 -106 8.5 -181.5t66.5 -115t120 -39.5z" />
    <glyph glyph-name="oe" unicode="&#x153;" horiz-adv-x="1552" 
d="M489 -25q-116 0 -202 57t-128 169.5t-27 279.5q15 169 78 282t160 169.5t211 56.5q116 0 201.5 -57.5t128 -170t26.5 -280.5q-15 -167 -78.5 -279.5t-159 -169.5t-210.5 -57zM497 145q108 0 179 87.5t87 248.5q16 163 -34.5 251t-158.5 88q-107 0 -177 -87.5t-85 -251.5
q-11 -106 7.5 -181.5t65 -115t116.5 -39.5zM1107 -25q-110 0 -193 62t-124 175.5t-27 268.5q15 158 76.5 272t155.5 175t203 61q87 0 148.5 -35t100 -95.5t54 -138t9.5 -163.5q-2 -28 -6.5 -58.5t-11.5 -62.5h-607l48 35q-12 -95 3 -172t61 -121.5t125 -44.5
q68 0 118.5 38.5t68.5 113.5h175q-22 -95 -76 -164.5t-131.5 -107.5t-169.5 -38zM938 531l-38 28h494l-48 -24q11 76 1.5 144t-47.5 111t-114 43q-71 0 -123.5 -40.5t-83.5 -109t-41 -152.5z" />
    <glyph glyph-name="thorn" unicode="&#xfe;" horiz-adv-x="1084" 
d="M129 -472l168 1760h177l-48 -495h-28q50 99 126 147.5t163 48.5q102 0 185.5 -60.5t129 -173.5t29.5 -272q-14 -160 -81 -273.5t-163.5 -174t-202.5 -60.5q-77 0 -134.5 31t-90.5 91l-54 -569h-176zM580 151q58 0 116.5 37t101.5 110.5t54 184.5q10 105 -14.5 178.5
t-74.5 113t-119 39.5q-57 0 -110 -29.5t-88 -87t-43 -141.5l-16 -166q-7 -75 16 -128.5t69.5 -82t107.5 -28.5z" />
    <glyph glyph-name="racute" unicode="&#x155;" horiz-adv-x="716" 
d="M174 0l91 966h176l-18 -187q47 104 111.5 153.5t142.5 49.5q20 0 42 -3.5t43 -12.5l-23 -194q-26 7 -53 11.5t-53 4.5q-72 0 -123 -43t-80.5 -123t-39.5 -193l-40 -429h-176zM320 1120l-36 123l476 265l51 -171z" />
    <glyph glyph-name="rcaron" unicode="&#x159;" horiz-adv-x="716" 
d="M174 0l91 966h176l-18 -187q47 104 111.5 153.5t142.5 49.5q20 0 42 -3.5t43 -12.5l-23 -194q-26 7 -53 11.5t-53 4.5q-72 0 -123 -43t-80.5 -123t-39.5 -193l-40 -429h-176zM728 1545l101 -97l-377 -317l-320 317l122 97l216 -209z" />
    <glyph glyph-name="uni0157" unicode="&#x157;" horiz-adv-x="716" 
d="M174 0l91 966h176l-18 -187q47 104 111.5 153.5t142.5 49.5q20 0 42 -3.5t43 -12.5l-23 -194q-26 7 -53 11.5t-53 4.5q-72 0 -123 -43t-80.5 -123t-39.5 -193l-40 -429h-176zM225 -451l-100 59q48 25 84.5 58t51.5 77q-37 6 -61 31t-20 67q5 42 36.5 71t76.5 29
q55 0 83 -44.5t22 -106.5q-7 -65 -51.5 -132t-121.5 -109z" />
    <glyph glyph-name="sacute" unicode="&#x15b;" horiz-adv-x="947" 
d="M475 -25q-111 0 -192.5 38.5t-124 109t-33.5 166.5h166q-6 -77 45.5 -118.5t138.5 -41.5q88 0 142.5 38.5t61.5 96.5q6 51 -29 78.5t-93 47.5l-172 69q-100 38 -151.5 104t-41.5 160q9 81 57.5 141t130 92.5t185.5 32.5q166 0 247 -77t74 -194h-169q-1 57 -43 87t-115 30
q-59 0 -97.5 -17.5t-59.5 -44.5t-26 -58q-5 -47 28.5 -77.5t88.5 -48.5l182 -75q96 -35 151.5 -95.5t46.5 -154.5q-7 -74 -56.5 -140t-135.5 -107.5t-206 -41.5zM450 1120l-36 123l476 265l51 -171z" />
    <glyph glyph-name="scaron" unicode="&#x161;" horiz-adv-x="947" 
d="M475 -25q-111 0 -192.5 38.5t-124 109t-33.5 166.5h166q-6 -77 45.5 -118.5t138.5 -41.5q88 0 142.5 38.5t61.5 96.5q6 51 -29 78.5t-93 47.5l-172 69q-100 38 -151.5 104t-41.5 160q9 81 57.5 141t130 92.5t185.5 32.5q166 0 247 -77t74 -194h-169q-1 57 -43 87t-115 30
q-59 0 -97.5 -17.5t-59.5 -44.5t-26 -58q-5 -47 28.5 -77.5t88.5 -48.5l182 -75q96 -35 151.5 -95.5t46.5 -154.5q-7 -74 -56.5 -140t-135.5 -107.5t-206 -41.5zM859 1545l101 -97l-377 -317l-320 317l122 97l216 -209z" />
    <glyph glyph-name="scedilla" unicode="&#x15f;" horiz-adv-x="947" 
d="M475 -25q-111 0 -192.5 38.5t-124 109t-33.5 166.5h166q-6 -77 45.5 -118.5t138.5 -41.5q88 0 142.5 38.5t61.5 96.5q6 51 -29 78.5t-93 47.5l-172 69q-100 38 -151.5 104t-41.5 160q9 81 57.5 141t130 92.5t185.5 32.5q166 0 247 -77t74 -194h-169q-1 57 -43 87t-115 30
q-59 0 -97.5 -17.5t-59.5 -44.5t-26 -58q-5 -47 28.5 -77.5t88.5 -48.5l182 -75q96 -35 151.5 -95.5t46.5 -154.5q-7 -74 -56.5 -140t-135.5 -107.5t-206 -41.5zM285 -356l24 74q74 -37 130.5 -41.5t89 14.5t32.5 52q1 32 -27 56t-73.5 41.5t-98.5 29.5l61 201l97 -11
l-55 -186l-38 59q94 -18 156.5 -47.5t93.5 -68t31 -84.5q0 -57 -42.5 -92t-108.5 -46.5t-138.5 1t-133.5 48.5z" />
    <glyph glyph-name="uni0219" unicode="&#x219;" horiz-adv-x="947" 
d="M475 -25q-111 0 -192.5 38.5t-124 109t-33.5 166.5h166q-6 -77 45.5 -118.5t138.5 -41.5q88 0 142.5 38.5t61.5 96.5q6 51 -29 78.5t-93 47.5l-172 69q-100 38 -151.5 104t-41.5 160q9 81 57.5 141t130 92.5t185.5 32.5q166 0 247 -77t74 -194h-169q-1 57 -43 87t-115 30
q-59 0 -97.5 -17.5t-59.5 -44.5t-26 -58q-5 -47 28.5 -77.5t88.5 -48.5l182 -75q96 -35 151.5 -95.5t46.5 -154.5q-7 -74 -56.5 -140t-135.5 -107.5t-206 -41.5zM456 -446l-100 59q48 25 84.5 58t51.5 77q-37 6 -61 31t-20 67q5 42 36.5 71t76.5 29q55 0 83 -44.5t22 -106.5
q-7 -65 -51.5 -132t-121.5 -109z" />
    <glyph glyph-name="germandbls" unicode="&#xdf;" horiz-adv-x="1154" 
d="M729 -23q-51 0 -108.5 13t-112.5 41l23 163q45 -22 91 -36.5t93 -14.5q49 0 93 19.5t71.5 57t27.5 92.5q0 51 -26 90t-63.5 70.5t-75 62t-63.5 66t-26 80.5q0 50 29 89.5t66 78t66 82t29 100.5q0 66 -47 110.5t-140 44.5q-66 0 -117 -26t-83 -86.5t-42 -163.5l-88 -910
h-173l91 945q14 132 71 223.5t148.5 140.5t206.5 49q94 0 160 -26t107 -69t60 -94.5t19 -102.5q0 -72 -29 -125t-66 -94t-66 -76t-29 -72q0 -33 26 -62t64 -59.5t75.5 -68.5t63.5 -90t26 -124q0 -91 -45.5 -163t-124.5 -113.5t-182 -41.5z" />
    <glyph glyph-name="tbar" unicode="&#x167;" horiz-adv-x="693" 
d="M106 572l16 133h569l-17 -133h-568zM450 -25q-73 0 -130 30.5t-85 93.5t-20 160l56 611l41 -35h-176l15 129h174l-50 -45l30 306h176l-30 -306l-40 45h300l-14 -129h-300l49 35l-57 -607q-6 -67 20.5 -100t83.5 -33q30 0 64.5 8.5t77.5 25.5l12 -138q-50 -23 -97.5 -37
t-99.5 -14z" />
    <glyph glyph-name="tcaron" unicode="&#x165;" horiz-adv-x="693" 
d="M450 -25q-73 0 -130 30.5t-85 93.5t-20 160l56 611l41 -35h-176l15 129h174l-50 -45l30 306h176l-30 -306l-40 45h300l-14 -129h-300l49 35l-57 -607q-6 -67 20.5 -100t83.5 -33q30 0 64.5 8.5t77.5 25.5l12 -138q-50 -23 -97.5 -37t-99.5 -14zM627 1043l-100 59
q48 25 84.5 58t51.5 77q-37 6 -61 31t-20 67q5 42 36.5 71t76.5 29q55 0 83 -44.5t22 -106.5q-7 -65 -51 -132t-122 -109z" />
    <glyph glyph-name="uni0163" unicode="&#x163;" horiz-adv-x="693" 
d="M450 -25q-73 0 -130 30.5t-85 93.5t-20 160l56 611l41 -35h-176l15 129h174l-50 -45l30 306h176l-30 -306l-40 45h300l-14 -129h-300l49 35l-57 -607q-6 -67 20.5 -100t83.5 -33q30 0 64.5 8.5t77.5 25.5l12 -138q-50 -23 -97.5 -37t-99.5 -14zM249 -361l24 74
q74 -37 130.5 -41.5t89 14.5t32.5 52q1 32 -27 56t-73.5 41.5t-98.5 29.5l61 201l97 -11l-55 -186l-38 59q94 -18 156.5 -47.5t93.5 -68t31 -84.5q0 -57 -42.5 -92t-108.5 -46.5t-138.5 1t-133.5 48.5z" />
    <glyph glyph-name="uni021B" unicode="&#x21b;" horiz-adv-x="693" 
d="M450 -25q-73 0 -130 30.5t-85 93.5t-20 160l56 611l41 -35h-176l15 129h174l-50 -45l30 306h176l-30 -306l-40 45h300l-14 -129h-300l49 35l-57 -607q-6 -67 20.5 -100t83.5 -33q30 0 64.5 8.5t77.5 25.5l12 -138q-50 -23 -97.5 -37t-99.5 -14zM419 -451l-100 59
q48 25 84.5 58t51.5 77q-37 6 -61 31t-20 67q5 42 36.5 71t76.5 29q55 0 83 -44.5t22 -106.5q-7 -65 -51.5 -132t-121.5 -109z" />
    <glyph glyph-name="ubreve" unicode="&#x16d;" horiz-adv-x="1109" 
d="M479 -18q-95 0 -165.5 38.5t-105.5 120.5t-23 211l59 614h176l-57 -596q-10 -108 32 -162.5t129 -54.5q72 0 131.5 42.5t99 120.5t49.5 185l44 465h176l-90 -966h-177l17 182q-51 -98 -127 -149t-168 -51zM631 1156q-135 0 -204 76.5t-51 203.5h154q-10 -73 22.5 -112.5
t97.5 -39.5t108 39.5t53 112.5h154q-14 -129 -105 -204.5t-229 -75.5z" />
    <glyph glyph-name="uhungarumlaut" unicode="&#x171;" horiz-adv-x="1109" 
d="M479 -18q-95 0 -165.5 38.5t-105.5 120.5t-23 211l59 614h176l-57 -596q-10 -108 32 -162.5t129 -54.5q72 0 131.5 42.5t99 120.5t49.5 185l44 465h176l-90 -966h-177l17 182q-51 -98 -127 -149t-168 -51zM809 1100l-100 17l31 330l141 -28zM558 1111l-103 13l15 335
l143 -23z" />
    <glyph glyph-name="umacron" unicode="&#x16b;" horiz-adv-x="1109" 
d="M479 -18q-95 0 -165.5 38.5t-105.5 120.5t-23 211l59 614h176l-57 -596q-10 -108 32 -162.5t129 -54.5q72 0 131.5 42.5t99 120.5t49.5 185l44 465h176l-90 -966h-177l17 182q-51 -98 -127 -149t-168 -51zM348 1326h654l-24 -158h-654z" />
    <glyph glyph-name="uogonek" unicode="&#x173;" horiz-adv-x="1109" 
d="M479 -18q-95 0 -165.5 38.5t-105.5 120.5t-23 211l59 614h176l-57 -596q-10 -108 32 -162.5t129 -54.5q72 0 131.5 42.5t99 120.5t49.5 185l44 465h176l-90 -966h-177l17 182q-51 -98 -127 -149t-168 -51zM1061 -326q-63 -35 -131.5 -53.5t-132.5 -18.5q-102 0 -166 46.5
t-64 129.5q0 76 58 147.5t173 116.5l136 -39q-108 -41 -171 -88t-63 -103q0 -42 34.5 -60.5t81.5 -18.5q44 0 91.5 15t107.5 48z" />
    <glyph glyph-name="uring" unicode="&#x16f;" horiz-adv-x="1109" 
d="M479 -18q-95 0 -165.5 38.5t-105.5 120.5t-23 211l59 614h176l-57 -596q-10 -108 32 -162.5t129 -54.5q72 0 131.5 42.5t99 120.5t49.5 185l44 465h176l-90 -966h-177l17 182q-51 -98 -127 -149t-168 -51zM658 1090q-60 0 -109 30t-78.5 79.5t-29.5 107.5
q0 60 29.5 109.5t78.5 78.5t109 29t109 -29t78.5 -78.5t29.5 -109.5q0 -58 -29.5 -107.5t-78.5 -79.5t-109 -30zM658 1223q35 0 60 24.5t25 59.5q0 37 -25 61.5t-60 24.5t-60 -24.5t-25 -61.5q0 -35 25 -59.5t60 -24.5z" />
    <glyph glyph-name="wacute" unicode="&#x1e83;" horiz-adv-x="1333" 
d="M118 964h184l125 -728l249 678h156l121 -686l264 736h176l-375 -964h-173l-122 627l-235 -627h-173zM629 1120l-36 123l476 265l51 -171z" />
    <glyph glyph-name="wcircumflex" unicode="&#x175;" horiz-adv-x="1333" 
d="M118 964h184l125 -728l249 678h156l121 -686l264 736h176l-375 -964h-173l-122 627l-235 -627h-173zM513 1122l-100 97l376 317l320 -317l-122 -97l-216 209z" />
    <glyph glyph-name="wdieresis" unicode="&#x1e85;" horiz-adv-x="1333" 
d="M118 964h184l125 -728l249 678h156l121 -686l264 736h176l-375 -964h-173l-122 627l-235 -627h-173zM613 1218q-49 0 -76 33t-22 80q3 47 36 82.5t84 35.5q44 0 74 -31t27 -82q-5 -54 -42 -86t-81 -32zM937 1219q-47 0 -75 32.5t-23 80.5q4 46 37.5 82t82.5 36
q43 0 73 -30t27 -83q-4 -58 -41.5 -88t-80.5 -30z" />
    <glyph glyph-name="wgrave" unicode="&#x1e81;" horiz-adv-x="1333" 
d="M118 964h184l125 -728l249 678h156l121 -686l264 736h176l-375 -964h-173l-122 627l-235 -627h-173zM958 1084l-449 218l84 171l426 -265z" />
    <glyph glyph-name="yacute" unicode="&#xfd;" horiz-adv-x="889" 
d="M183 -497q-58 0 -111.5 17t-107.5 50l17 175q44 -37 88 -54t91 -17q48 0 85.5 32t66.5 84t51 114l36 96l-261 964h199l167 -731l263 731h179l-438 -1147q-40 -106 -89 -175.5t-107 -104t-129 -34.5zM407 1120l-36 123l476 265l51 -171z" />
    <glyph glyph-name="ycircumflex" unicode="&#x177;" horiz-adv-x="889" 
d="M183 -497q-58 0 -111.5 17t-107.5 50l17 175q44 -37 88 -54t91 -17q48 0 85.5 32t66.5 84t51 114l36 96l-261 964h199l167 -731l263 731h179l-438 -1147q-40 -106 -89 -175.5t-107 -104t-129 -34.5zM292 1122l-100 97l376 317l320 -317l-122 -97l-216 209z" />
    <glyph glyph-name="ydieresis" unicode="&#xff;" horiz-adv-x="889" 
d="M183 -497q-58 0 -111.5 17t-107.5 50l17 175q44 -37 88 -54t91 -17q48 0 85.5 32t66.5 84t51 114l36 96l-261 964h199l167 -731l263 731h179l-438 -1147q-40 -106 -89 -175.5t-107 -104t-129 -34.5zM392 1218q-49 0 -76 33t-22 80q3 47 36 82.5t84 35.5q44 0 74 -31
t27 -82q-5 -54 -42 -86t-81 -32zM716 1219q-47 0 -75 32.5t-23 80.5q4 46 37.5 82t82.5 36q43 0 73 -30t27 -83q-4 -58 -41.5 -88t-80.5 -30z" />
    <glyph glyph-name="ygrave" unicode="&#x1ef3;" horiz-adv-x="889" 
d="M183 -497q-58 0 -111.5 17t-107.5 50l17 175q44 -37 88 -54t91 -17q48 0 85.5 32t66.5 84t51 114l36 96l-261 964h199l167 -731l263 731h179l-438 -1147q-40 -106 -89 -175.5t-107 -104t-129 -34.5zM737 1084l-449 218l84 171l426 -265z" />
    <glyph glyph-name="zacute" unicode="&#x17a;" horiz-adv-x="871" 
d="M99 0l14 159l541 646h-481l17 159h677l-17 -159l-530 -646h469l-14 -159h-676zM398 1120l-36 123l476 265l51 -171z" />
    <glyph glyph-name="zcaron" unicode="&#x17e;" horiz-adv-x="871" 
d="M99 0l14 159l541 646h-481l17 159h677l-17 -159l-530 -646h469l-14 -159h-676zM806 1545l101 -97l-377 -317l-320 317l122 97l216 -209z" />
    <glyph glyph-name="zdotaccent" unicode="&#x17c;" horiz-adv-x="871" 
d="M99 0l14 159l541 646h-481l17 159h677l-17 -159l-530 -646h469l-14 -159h-676zM545 1219q-47 0 -75 32.5t-23 80.5q3 46 37.5 82t88.5 36q42 0 70 -31t24 -82q-6 -55 -40 -86.5t-82 -31.5z" />
    <glyph glyph-name="ordfeminine" unicode="&#xaa;" horiz-adv-x="1029" 
d="M434 -25q-105 0 -173.5 43t-99 111.5t-22.5 146.5q9 95 58.5 157.5t131 94t183.5 31.5q63 0 124 -12.5t116 -33.5l11 110q13 116 -26.5 169t-132.5 53q-54 0 -97 -17.5t-70 -52.5t-32 -87h-194q11 110 67 176t142 95.5t184 29.5q177 0 264.5 -90t69.5 -282l-58 -617h-152
q-1 37 -0.5 73.5t-0.5 73.5q-50 -86 -123 -129t-170 -43zM477 125q68 0 126.5 33t95.5 92.5t41 138.5q-49 16 -105 26t-105 10q-81 0 -139 -33.5t-66 -115.5q-5 -64 34.5 -107.5t117.5 -43.5z" />
    <glyph glyph-name="ordmasculine" unicode="&#xba;" horiz-adv-x="999" 
d="M498 -25q-118 0 -207 57t-132 169.5t-27 279.5q16 169 81 282t164.5 169.5t216.5 56.5t205 -57.5t132 -170t28 -280.5q-17 -167 -82 -279.5t-163 -169.5t-216 -57zM507 145q111 0 184 87.5t90 248.5q16 163 -36.5 251t-162.5 88t-182 -87.5t-88 -251.5
q-11 -106 8.5 -181.5t66.5 -115t120 -39.5z" />
    <glyph glyph-name="uni0394" unicode="&#x394;" horiz-adv-x="1182" 
d="M43 0l526 1275h236l335 -1275h-202l-270 1043l-422 -1043h-203zM156 0l12 167h856l-11 -167h-857z" />
    <glyph glyph-name="uni03A9" unicode="&#x3a9;" horiz-adv-x="1349" 
d="M574 37q-83 0 -161.5 35t-140.5 107.5t-95 186t-26 270.5q12 217 95 364.5t217 223t298 75.5t287.5 -75.5t186.5 -223.5t44 -364q-17 -207 -94.5 -339.5t-187.5 -196t-224 -63.5l6 93q64 0 130 62.5t114 176.5t58 269q16 240 -75 364.5t-256 124.5q-171 0 -277.5 -131
t-122.5 -360q-11 -157 22 -270.5t90 -174.5t118 -61zM107 -1l9 131h464l-10 -131h-463zM769 -1l10 131h463l-9 -131h-464z" />
    <glyph glyph-name="uni03BC" unicode="&#x3bc;" horiz-adv-x="1109" 
d="M112 -401l132 1367h177l-57 -596q-10 -108 32 -162.5t128 -54.5q72 0 132 42.5t99.5 120.5t49.5 185l44 465h176l-90 -966h-177l17 182q-51 -98 -127.5 -149t-167.5 -51q-92 0 -153 39l-42 -422h-173z" />
    <glyph glyph-name="pi" unicode="&#x3c0;" horiz-adv-x="1231" 
d="M1123 -10q-105 0 -178 47t-108 136.5t-26 218.5l41 572h190l-40 -572q-9 -123 45 -177t138 -54zM324 0l67 962h191l-67 -962h-191zM139 798l12 167h1156l-12 -167h-1156z" />
    <glyph glyph-name="zero.osf" horiz-adv-x="990" 
d="M493 -25q-120 0 -206 66t-126 195t-22 319q19 190 83 318.5t162 194t217 65.5t205 -65.5t126 -194t21 -318.5q-18 -190 -82 -319t-161.5 -195t-216.5 -66zM509 151q117 0 182.5 101.5t84.5 302.5t-28 302.5t-163 101.5q-115 0 -181 -101.5t-86 -302.5q-19 -201 28 -302.5
t163 -101.5z" />
    <glyph glyph-name="one.osf" horiz-adv-x="618" 
d="M267 0l82 877q-47 -29 -96 -44t-94 -17l17 190q59 8 117 32.5t118 72.5h136l-104 -1111h-176z" />
    <glyph glyph-name="two.osf" horiz-adv-x="1051" 
d="M112 0l16 181q17 166 92 250.5t218 119.5l183 48q100 25 147.5 72.5t54.5 123.5q7 68 -41 117t-143 49q-93 0 -156.5 -42.5t-81.5 -130.5h-196q15 113 74.5 190t153.5 116t214 39q116 0 198 -46.5t123 -124.5t32 -173q-13 -133 -89 -210.5t-227 -117.5l-199 -53
q-88 -22 -129 -66t-45 -106l-7 -56h641l-16 -180h-817z" />
    <glyph glyph-name="three.osf" horiz-adv-x="1034" 
d="M455 -233q-116 0 -210.5 45t-146.5 137.5t-39 233.5h179q-7 -129 59 -189t174 -60q76 0 136.5 31t98.5 85t44 123q6 67 -19 122.5t-81 89t-146 33.5h-115l14 155h93q116 0 188.5 51.5t81.5 146.5q9 86 -43.5 141t-151.5 55q-86 0 -150.5 -44.5t-89.5 -134.5h-187
q39 188 157 266.5t282 78.5q120 0 204.5 -44.5t126 -122t31.5 -176.5q-10 -101 -66.5 -167t-151.5 -106q106 -42 159 -138t41 -221q-10 -113 -73 -201t-165.5 -139t-233.5 -51z" />
    <glyph glyph-name="four.osf" horiz-adv-x="1039" 
d="M604 -213l32 316h-589l14 149l677 867h170l-81 -848h199l-15 -168h-199l-31 -316h-177zM257 252h400l53 571z" />
    <glyph glyph-name="five.osf" horiz-adv-x="1041" 
d="M475 -233q-103 0 -187 46t-130 135t-34 219h174q-10 -109 44 -165t151 -56q76 0 138.5 35.5t102.5 97.5t47 142q10 118 -52 185.5t-198 67.5h-312l116 651h653l-19 -178h-490l-62 -336q44 12 86 17.5t87 5.5q125 0 211.5 -50.5t127.5 -143.5t29 -219
q-12 -132 -79.5 -234.5t-172.5 -161t-231 -58.5z" />
    <glyph glyph-name="six.osf" horiz-adv-x="1061" 
d="M557 -26q-141 0 -239.5 84t-144 229t-28.5 329q21 217 95.5 370.5t192 234t264.5 80.5q109 0 187.5 -45t119.5 -126t38 -189h-188q-4 84 -44.5 133t-122.5 49q-111 0 -196.5 -84.5t-132.5 -238t-43 -359.5q23 127 77.5 200.5t127.5 104.5t151 31q106 0 183.5 -52
t116.5 -143t29 -208q-12 -120 -71.5 -210t-155.5 -140t-216 -50zM574 155q95 0 164.5 61.5t78.5 165.5q10 107 -48 167.5t-152 60.5q-61 0 -114 -29.5t-87 -81t-40 -117.5q-9 -104 48.5 -165.5t149.5 -61.5z" />
    <glyph glyph-name="seven.osf" horiz-adv-x="870" 
d="M149 1133h795l-16 -168l-650 -1167h-215l682 1163h-611z" />
    <glyph glyph-name="eight.osf" horiz-adv-x="1134" 
d="M563 -25q-142 0 -243.5 48t-153 131t-41.5 189q12 122 94 199t201 95q-51 27 -99.5 71t-77.5 106t-22 144q10 103 69 180t160.5 120t238.5 43q124 0 217 -47t142 -128t39 -185q-9 -100 -78 -180t-187 -102l19 -8q121 -53 182 -125t49 -197q-10 -104 -74 -183.5
t-174.5 -125t-260.5 -45.5zM581 155q142 0 222 46t86 120q5 57 -29.5 97t-98.5 68l-188 81q-109 -9 -183 -68.5t-81 -136.5q-9 -98 70.5 -152.5t201.5 -54.5zM655 734q96 2 168.5 55.5t81.5 139.5q8 88 -56.5 141t-177.5 53q-70 0 -129 -23t-95.5 -62.5t-41.5 -87.5
q-6 -59 26.5 -94.5t95.5 -64.5z" />
    <glyph glyph-name="nine.osf" horiz-adv-x="1069" 
d="M493 -233q-114 0 -199.5 51.5t-128 142t-31.5 208.5h185q-6 -103 42.5 -163t147.5 -60q151 0 234 145t107 393q3 39 5 76.5t1 74.5q-30 -152 -123.5 -234t-217.5 -82q-105 0 -185.5 52t-123 144t-31.5 210q11 119 70.5 211.5t155 144.5t214.5 52q115 0 198 -54
t134.5 -147.5t71 -214t6.5 -253.5q-20 -218 -90.5 -374t-183 -239.5t-258.5 -83.5zM556 485q66 0 118.5 32.5t85 87t38.5 120.5q10 105 -44 170.5t-155 65.5q-100 0 -165.5 -65.5t-76.5 -170.5q-9 -108 44 -174t155 -66z" />
    <glyph glyph-name="zero.tf" 
d="M535 -25q-138 0 -235 73t-141 220.5t-22 370.5q20 223 91.5 370t183 219.5t250.5 72.5q138 0 236 -72.5t142.5 -219.5t22.5 -370q-20 -223 -93 -370.5t-185 -220.5t-250 -73zM553 155q136 0 220.5 125.5t107.5 358.5q22 233 -39 358.5t-198 125.5q-134 0 -218 -125.5
t-107 -358.5q-24 -233 37.5 -358.5t196.5 -125.5z" />
    <glyph glyph-name="one.tf" 
d="M231 0l16 180h267l81 870q-47 -29 -96 -44t-94 -17l17 190q59 9 118 33t117 71h136l-103 -1103h306l-16 -180h-749z" />
    <glyph glyph-name="two.tf" 
d="M133 0l18 203q9 109 46.5 183.5t101.5 124.5t152 87l240 101q85 36 131.5 92.5t52.5 139.5q10 86 -39.5 142t-149.5 56q-96 0 -163.5 -49.5t-87.5 -145.5h-196q16 121 79 202.5t161.5 123t220.5 41.5q114 0 200.5 -48.5t131 -133.5t33.5 -197q-14 -149 -95 -242.5
t-224 -153.5l-246 -103q-82 -34 -123 -78.5t-48 -115.5l-4 -49h661l-15 -180h-838z" />
    <glyph glyph-name="three.tf" 
d="M566 -25q-88 0 -168.5 27t-141 80t-91.5 132t-21 183h187q-5 -78 25.5 -132t89.5 -82t138 -28q116 0 188.5 62t80.5 154q6 61 -17 106t-78 70.5t-146 25.5h-143l16 155h110q116 0 189 53.5t81 145.5q7 84 -43.5 140t-158.5 56q-85 0 -154 -38t-99 -137h-185
q38 188 161.5 270.5t288.5 82.5q119 0 208.5 -45t136 -124t36.5 -183q-9 -99 -65.5 -171t-157.5 -109q104 -37 162 -116t47 -198q-11 -112 -73.5 -198t-165.5 -134t-237 -48z" />
    <glyph glyph-name="four.tf" 
d="M801 1293h166l-78 -829h199l-15 -168h-200l-28 -296h-172l26 296h-588l14 149zM771 995l-436 -550h385z" />
    <glyph glyph-name="five.tf" 
d="M543 -25q-116 0 -204 45.5t-134 133.5t-36 215h180q-10 -107 51 -160.5t160 -53.5q110 0 184 75.5t83 189.5q11 107 -50 162.5t-190 55.5h-329l111 639h664l-18 -178h-491l-61 -328q45 8 95 13t89 5q183 0 281 -94.5t81 -274.5q-11 -126 -73 -227t-163 -159.5t-230 -58.5
z" />
    <glyph glyph-name="six.tf" 
d="M566 -26q-141 0 -240 84t-144.5 229t-28.5 329q21 217 96 370.5t192 234t265 80.5q109 0 187.5 -45t119.5 -126t38 -189h-188q-5 84 -45 133t-123 49q-111 0 -196 -84.5t-132.5 -238t-43.5 -359.5q23 127 78 200.5t128 104.5t150 31q106 0 184 -52t117 -143t28 -208
q-12 -120 -71.5 -210t-155 -140t-215.5 -50zM583 155q95 0 164 61.5t78 165.5q11 107 -47 167.5t-152 60.5q-62 0 -114.5 -29.5t-86.5 -81t-40 -117.5q-10 -104 47.5 -165.5t150.5 -61.5z" />
    <glyph glyph-name="seven.tf" 
d="M167 0l642 1089h-588l18 188h794l-18 -184l-610 -1093h-238z" />
    <glyph glyph-name="eight.tf" 
d="M557 -25q-141 0 -243 48t-153 131t-42 189q12 122 94.5 199t201.5 95q-52 27 -100.5 71t-77.5 106t-22 144q10 103 69 180t160.5 120t239.5 43q123 0 216.5 -47t142 -128t38.5 -185q-9 -101 -78.5 -181t-187.5 -101l28 -12q78 -35 130.5 -77.5t77 -100.5t16.5 -140
q-10 -104 -74 -183.5t-174.5 -125t-261.5 -45.5zM575 155q143 0 223 46t85 120q5 57 -29 97.5t-98 67.5l-188 81q-110 -9 -183.5 -68.5t-81.5 -136.5q-8 -98 71 -152.5t201 -54.5zM649 734q96 2 169.5 55.5t80.5 139.5q8 88 -56.5 141t-176.5 53q-71 0 -129 -23t-95 -62
t-42 -87q-6 -59 27 -95t101 -68z" />
    <glyph glyph-name="nine.tf" 
d="M519 -25q-116 0 -203 51.5t-131.5 142.5t-33.5 209h186q-8 -103 45.5 -163t148.5 -60q102 0 172 65t111.5 183.5t54.5 278.5q3 35 4.5 66.5t-0.5 66.5q-24 -109 -76.5 -178.5t-124 -102.5t-153.5 -33q-105 0 -183 51.5t-117 142t-27 208.5q11 120 70.5 209.5t155 139
t213.5 49.5q135 0 235 -79.5t149.5 -223.5t31.5 -337q-21 -211 -86.5 -364.5t-175.5 -237.5t-266 -84zM574 666q60 0 113 30t87.5 81t40.5 117q10 106 -49 166.5t-152 60.5q-91 0 -159.5 -60.5t-79.5 -166.5q-12 -107 46.5 -167.5t152.5 -60.5z" />
    <glyph glyph-name="zero.dnom" horiz-adv-x="1104" 
d="M571 -25q-130 0 -199.5 103t-49.5 312q19 209 109 311.5t219 102.5q130 0 200.5 -102.5t50.5 -311.5q-19 -209 -109.5 -312t-220.5 -103zM582 88q86 0 138 78t66 224q15 146 -23 224.5t-124 78.5q-84 0 -137 -78.5t-67 -224.5t24 -224t123 -78z" />
    <glyph glyph-name="one.dnom" horiz-adv-x="618" 
d="M404 802h86l-75 -802h-111l62 656q-29 -17 -60 -26.5t-59 -10.5l11 118q37 6 73.5 20.5t72.5 44.5z" />
    <glyph glyph-name="two.dnom" horiz-adv-x="1065" 
d="M409 144l-3 -32h414l-11 -112h-523l12 127q9 103 56.5 158t130.5 89l151 62q53 22 82 58t33 88q5 53 -26 88.5t-93 35.5q-60 0 -102.5 -31t-54.5 -91h-122q10 76 49 127t101 76.5t138 25.5q71 0 125 -30t82 -83.5t21 -123.5q-9 -92 -60 -151t-140 -96l-156 -66
q-49 -21 -74 -49t-30 -70z" />
    <glyph glyph-name="three.dnom" horiz-adv-x="1091" 
d="M557 -25q-73 0 -136.5 30t-99.5 89t-28 145h117q-5 -72 39.5 -111.5t118.5 -39.5q73 0 117.5 38.5t51.5 96.5q5 57 -30.5 91.5t-121.5 34.5h-89l11 97h69q72 0 117.5 34t49.5 90q5 52 -26.5 87.5t-99.5 35.5q-52 0 -95.5 -24t-61.5 -86h-116q23 118 101 169.5t180 51.5
q112 0 179.5 -61.5t59.5 -158.5q-7 -61 -42.5 -106.5t-97.5 -68.5q65 -23 101.5 -72t29.5 -125q-7 -69 -46 -123t-103.5 -84t-148.5 -30z" />
    <glyph glyph-name="four.dnom" horiz-adv-x="1037" 
d="M604 0l16 185h-368l9 93l423 531h103l-47 -519h124l-11 -105h-124l-18 -185h-107zM392 278h241l32 344z" />
    <glyph glyph-name="five.dnom" horiz-adv-x="1031" 
d="M537 -25q-71 0 -126.5 29t-84 84t-21.5 133h112q-7 -66 31.5 -99.5t99.5 -33.5q69 0 115 47.5t53 117.5q6 68 -32 102.5t-118 34.5h-206l69 399h415l-11 -112h-307l-38 -204q28 5 59 8t56 3q115 0 176 -59t50 -172q-7 -79 -45.5 -142t-101.5 -99.5t-145 -36.5z" />
    <glyph glyph-name="six.dnom" horiz-adv-x="1061" 
d="M569 -26q-88 0 -149.5 52.5t-89.5 143t-18 205.5q20 204 113 316.5t232 112.5q102 0 160.5 -62t55.5 -163h-118q-3 52 -28 82.5t-77 30.5q-68 0 -122 -52.5t-83.5 -148.5t-26.5 -225q22 119 86 164.5t137 45.5q99 0 157 -71t48 -181q-11 -112 -87.5 -181t-189.5 -69z
M580 87q60 0 103 38t49 104q7 67 -29.5 104.5t-95.5 37.5q-58 0 -102 -40t-49 -102q-6 -66 30.5 -104t93.5 -38z" />
    <glyph glyph-name="seven.dnom" horiz-adv-x="870" 
d="M254 0l400 680h-366l10 118h497l-11 -115l-382 -683h-148z" />
    <glyph glyph-name="eight.dnom" horiz-adv-x="1134" 
d="M579 -25q-133 0 -208 65.5t-66 164.5q7 77 58.5 124.5t126.5 59.5q-49 26 -90.5 74.5t-34.5 125.5q9 97 86 156t206 59q78 0 136.5 -29t89 -80t23.5 -116q-5 -63 -48.5 -112.5t-117.5 -63.5l17 -7q74 -34 111 -78t29 -122q-10 -97 -93.5 -159t-224.5 -62zM590 88
q89 0 139 29t53 75q3 36 -18.5 61t-61.5 42l-117 50q-68 -6 -114 -43t-51 -85q-6 -61 43.5 -95t126.5 -34zM636 450q60 1 105.5 35t50.5 86q5 55 -35.5 88.5t-110.5 33.5q-66 0 -114 -31.5t-52 -76.5q-3 -38 17 -60t59 -40z" />
    <glyph glyph-name="nine.dnom" horiz-adv-x="1071" 
d="M549 -25q-73 0 -127.5 32.5t-82 89.5t-20.5 130h116q-5 -63 28 -101t93 -38q95 0 145.5 89.5t65.5 239.5q2 22 3 41.5t0 41.5q-23 -101 -83.5 -148.5t-138.5 -47.5q-98 0 -156 70.5t-48 180.5q11 113 87.5 181t187.5 68q84 0 146.5 -49.5t93.5 -139.5t19 -211
q-19 -197 -101.5 -313t-227.5 -116zM583 408q57 0 100.5 40t49.5 102q7 66 -30 104t-95 38t-100.5 -38t-49.5 -104q-6 -67 30 -104.5t95 -37.5z" />
    <glyph glyph-name="zero.numr" horiz-adv-x="1104" 
d="M655 575q-130 0 -199.5 103t-49.5 312q19 209 109 311.5t219 102.5q130 0 200.5 -102.5t50.5 -311.5q-19 -209 -109.5 -312t-220.5 -103zM666 688q86 0 138 78t66 224q15 146 -23 224.5t-124 78.5q-84 0 -137 -78.5t-67 -224.5t24 -224t123 -78z" />
    <glyph glyph-name="one.numr" horiz-adv-x="618" 
d="M488 1402h86l-75 -802h-111l62 656q-29 -17 -60 -26.5t-59 -10.5l11 118q37 6 73.5 20.5t72.5 44.5z" />
    <glyph glyph-name="two.numr" horiz-adv-x="1065" 
d="M493 744l-3 -32h414l-11 -112h-523l12 127q9 103 56.5 158t130.5 89l151 62q53 22 82 58t33 88q5 53 -26 88.5t-93 35.5q-60 0 -102.5 -31t-54.5 -91h-122q10 76 49 127t101 76.5t138 25.5q71 0 125 -30t82 -83.5t21 -123.5q-9 -92 -60 -151t-140 -96l-156 -66
q-49 -21 -74 -49t-30 -70z" />
    <glyph glyph-name="three.numr" horiz-adv-x="1091" 
d="M641 575q-73 0 -136.5 30t-99.5 89t-28 145h117q-5 -72 39.5 -111.5t118.5 -39.5q73 0 117.5 38.5t51.5 96.5q5 57 -30.5 91.5t-121.5 34.5h-89l11 97h69q72 0 117.5 34t49.5 90q5 52 -26.5 87.5t-99.5 35.5q-52 0 -95.5 -24t-61.5 -86h-116q23 118 101 169.5t180 51.5
q112 0 179.5 -61.5t59.5 -158.5q-7 -61 -42.5 -106.5t-97.5 -68.5q65 -23 101.5 -72t29.5 -125q-7 -69 -46 -123t-103.5 -84t-148.5 -30z" />
    <glyph glyph-name="four.numr" horiz-adv-x="1037" 
d="M688 600l16 185h-368l9 93l423 531h103l-47 -519h124l-11 -105h-124l-18 -185h-107zM476 878h241l32 344z" />
    <glyph glyph-name="five.numr" horiz-adv-x="1031" 
d="M621 575q-71 0 -126.5 29t-84 84t-21.5 133h112q-7 -66 31.5 -99.5t99.5 -33.5q69 0 115 47.5t53 117.5q6 68 -32 102.5t-118 34.5h-206l69 399h415l-11 -112h-307l-38 -204q28 5 59 8t56 3q115 0 176 -59t50 -172q-7 -79 -45.5 -142t-101.5 -99.5t-145 -36.5z" />
    <glyph glyph-name="six.numr" horiz-adv-x="1061" 
d="M653 574q-88 0 -149.5 52.5t-89.5 143t-18 205.5q20 204 113 316.5t232 112.5q102 0 160.5 -62t55.5 -163h-118q-3 52 -28 82.5t-77 30.5q-68 0 -122 -52.5t-83.5 -148.5t-26.5 -225q22 119 86 164.5t137 45.5q99 0 157 -71t48 -181q-11 -112 -87.5 -181t-189.5 -69z
M664 687q60 0 103 38t49 104q7 67 -29.5 104.5t-95.5 37.5q-58 0 -102 -40t-49 -102q-6 -66 30.5 -104t93.5 -38z" />
    <glyph glyph-name="seven.numr" horiz-adv-x="870" 
d="M338 600l400 680h-366l10 118h497l-11 -115l-382 -683h-148z" />
    <glyph glyph-name="eight.numr" horiz-adv-x="1134" 
d="M663 575q-133 0 -208 65.5t-66 164.5q7 77 58.5 124.5t126.5 59.5q-49 26 -90.5 74.5t-34.5 125.5q9 97 86 156t206 59q78 0 136.5 -29t89 -80t23.5 -116q-5 -63 -48.5 -112.5t-117.5 -63.5l17 -7q74 -34 111 -78t29 -122q-10 -97 -93.5 -159t-224.5 -62zM674 688
q89 0 139 29t53 75q3 36 -18.5 61t-61.5 42l-117 50q-68 -6 -114 -43t-51 -85q-6 -61 43.5 -95t126.5 -34zM720 1050q60 1 105.5 35t50.5 86q5 55 -35.5 88.5t-110.5 33.5q-66 0 -114 -31.5t-52 -76.5q-3 -38 17 -60t59 -40z" />
    <glyph glyph-name="nine.numr" horiz-adv-x="1071" 
d="M633 575q-73 0 -127.5 32.5t-82 89.5t-20.5 130h116q-5 -63 28 -101t93 -38q95 0 145.5 89.5t65.5 239.5q2 22 3 41.5t0 41.5q-23 -101 -83.5 -148.5t-138.5 -47.5q-98 0 -156 70.5t-48 180.5q11 113 87.5 181t187.5 68q84 0 146.5 -49.5t93.5 -139.5t19 -211
q-19 -197 -101.5 -313t-227.5 -116zM667 1008q57 0 100.5 40t49.5 102q7 66 -30 104t-95 38t-100.5 -38t-49.5 -104q-6 -67 30 -104.5t95 -37.5z" />
    <glyph glyph-name="fraction" unicode="&#x2044;" horiz-adv-x="568" 
d="M-232 -1l959 1350h136l-961 -1350h-134z" />
    <glyph glyph-name="onehalf" unicode="&#xbd;" horiz-adv-x="1770" 
d="M449 1402h86l-75 -802h-111l62 656q-29 -17 -60 -26.5t-59 -10.5l11 118q37 6 73.5 20.5t72.5 44.5zM276 -1l959 1350h136l-961 -1350h-134zM1195 144l-3 -32h414l-11 -112h-523l12 127q9 103 56.5 158t130.5 89l151 62q53 22 82 58t33 88q5 53 -26 88.5t-93 35.5
q-60 0 -102.5 -31t-54.5 -91h-122q10 76 49 127t101 76.5t138 25.5q71 0 125 -30t82 -83.5t21 -123.5q-9 -92 -60 -151t-140 -96l-156 -66q-49 -21 -74 -49t-30 -70z" />
    <glyph glyph-name="onequarter" unicode="&#xbc;" horiz-adv-x="1745" 
d="M449 1402h86l-75 -802h-111l62 656q-29 -17 -60 -26.5t-59 -10.5l11 118q37 6 73.5 20.5t72.5 44.5zM288 -1l959 1350h136l-961 -1350h-134zM1347 0l16 185h-368l9 93l423 531h103l-47 -519h124l-11 -105h-124l-18 -185h-107zM1135 278h241l32 344z" />
    <glyph glyph-name="threequarters" unicode="&#xbe;" horiz-adv-x="1930" 
d="M498 575q-73 0 -136.5 30t-99.5 89t-28 145h117q-5 -72 39.5 -111.5t118.5 -39.5q73 0 117.5 38.5t51.5 96.5q5 57 -30.5 91.5t-121.5 34.5h-89l11 97h69q72 0 117.5 34t49.5 90q5 52 -26.5 87.5t-99.5 35.5q-52 0 -95.5 -24t-61.5 -86h-116q23 118 101 169.5t180 51.5
q112 0 179.5 -61.5t59.5 -158.5q-7 -61 -42.5 -106.5t-97.5 -68.5q65 -23 101.5 -72t29.5 -125q-7 -69 -46 -123t-103.5 -84t-148.5 -30zM485 -1l959 1350h136l-961 -1350h-134zM1532 0l16 185h-368l9 93l423 531h103l-47 -519h124l-11 -105h-124l-18 -185h-107zM1320 278
h241l32 344z" />
    <glyph glyph-name="oneeighth" unicode="&#x215b;" horiz-adv-x="1797" 
d="M449 1402h86l-75 -802h-111l62 656q-29 -17 -60 -26.5t-59 -10.5l11 118q37 6 73.5 20.5t72.5 44.5zM283 -1l959 1350h136l-961 -1350h-134zM1331 -25q-133 0 -208 65.5t-66 164.5q7 77 58.5 124.5t126.5 59.5q-49 26 -90.5 74.5t-34.5 125.5q9 97 86 156t206 59
q78 0 136.5 -29t89 -80t23.5 -116q-5 -63 -48.5 -112.5t-117.5 -63.5l17 -7q74 -34 111 -78t29 -122q-10 -97 -93.5 -159t-224.5 -62zM1342 88q89 0 139 29t53 75q3 36 -18.5 61t-61.5 42l-117 50q-68 -6 -114 -43t-51 -85q-6 -61 43.5 -95t126.5 -34zM1388 450
q60 1 105.5 35t50.5 86q5 55 -35.5 88.5t-110.5 33.5q-66 0 -114 -31.5t-52 -76.5q-3 -38 17 -60t59 -40z" />
    <glyph glyph-name="threeeighths" unicode="&#x215c;" horiz-adv-x="1981" 
d="M498 575q-73 0 -136.5 30t-99.5 89t-28 145h117q-5 -72 39.5 -111.5t118.5 -39.5q73 0 117.5 38.5t51.5 96.5q5 57 -30.5 91.5t-121.5 34.5h-89l11 97h69q72 0 117.5 34t49.5 90q5 52 -26.5 87.5t-99.5 35.5q-52 0 -95.5 -24t-61.5 -86h-116q23 118 101 169.5t180 51.5
q112 0 179.5 -61.5t59.5 -158.5q-7 -61 -42.5 -106.5t-97.5 -68.5q65 -23 101.5 -72t29.5 -125q-7 -69 -46 -123t-103.5 -84t-148.5 -30zM486 -1l959 1350h136l-961 -1350h-134zM1515 -25q-133 0 -208 65.5t-66 164.5q7 77 58.5 124.5t126.5 59.5q-49 26 -90.5 74.5
t-34.5 125.5q9 97 86 156t206 59q78 0 136.5 -29t89 -80t23.5 -116q-5 -63 -48.5 -112.5t-117.5 -63.5l17 -7q74 -34 111 -78t29 -122q-10 -97 -93.5 -159t-224.5 -62zM1526 88q89 0 139 29t53 75q3 36 -18.5 61t-61.5 42l-117 50q-68 -6 -114 -43t-51 -85q-6 -61 43.5 -95
t126.5 -34zM1572 450q60 1 105.5 35t50.5 86q5 55 -35.5 88.5t-110.5 33.5q-66 0 -114 -31.5t-52 -76.5q-3 -38 17 -60t59 -40z" />
    <glyph glyph-name="fiveeighths" unicode="&#x215d;" horiz-adv-x="1935" 
d="M463 575q-71 0 -126.5 29t-84 84t-21.5 133h112q-7 -66 31.5 -99.5t99.5 -33.5q69 0 115 47.5t53 117.5q6 68 -32 102.5t-118 34.5h-206l69 399h415l-11 -112h-307l-38 -204q28 5 59 8t56 3q115 0 176 -59t50 -172q-7 -79 -45.5 -142t-101.5 -99.5t-145 -36.5zM456 -1
l959 1350h136l-961 -1350h-134zM1469 -25q-133 0 -208 65.5t-66 164.5q7 77 58.5 124.5t126.5 59.5q-49 26 -90.5 74.5t-34.5 125.5q9 97 86 156t206 59q78 0 136.5 -29t89 -80t23.5 -116q-5 -63 -48.5 -112.5t-117.5 -63.5l17 -7q74 -34 111 -78t29 -122
q-10 -97 -93.5 -159t-224.5 -62zM1480 88q89 0 139 29t53 75q3 36 -18.5 61t-61.5 42l-117 50q-68 -6 -114 -43t-51 -85q-6 -61 43.5 -95t126.5 -34zM1526 450q60 1 105.5 35t50.5 86q5 55 -35.5 88.5t-110.5 33.5q-66 0 -114 -31.5t-52 -76.5q-3 -38 17 -60t59 -40z" />
    <glyph glyph-name="seveneighths" unicode="&#x215e;" horiz-adv-x="1944" 
d="M268 600l400 680h-366l10 118h497l-11 -115l-382 -683h-148zM409 -1l959 1350h136l-961 -1350h-134zM1479 -25q-133 0 -208 65.5t-66 164.5q7 77 58.5 124.5t126.5 59.5q-49 26 -90.5 74.5t-34.5 125.5q9 97 86 156t206 59q78 0 136.5 -29t89 -80t23.5 -116
q-5 -63 -48.5 -112.5t-117.5 -63.5l17 -7q74 -34 111 -78t29 -122q-10 -97 -93.5 -159t-224.5 -62zM1490 88q89 0 139 29t53 75q3 36 -18.5 61t-61.5 42l-117 50q-68 -6 -114 -43t-51 -85q-6 -61 43.5 -95t126.5 -34zM1536 450q60 1 105.5 35t50.5 86q5 55 -35.5 88.5
t-110.5 33.5q-66 0 -114 -31.5t-52 -76.5q-3 -38 17 -60t59 -40z" />
    <glyph glyph-name="uni2080" unicode="&#x2080;" horiz-adv-x="747" 
d="M358 -25q-85 0 -144.5 45t-86.5 136t-14 228q12 137 56.5 227.5t113 135.5t153.5 45q86 0 146 -45t87 -135.5t15 -227.5q-14 -137 -58.5 -228t-113 -136t-154.5 -45zM369 86q84 0 136 77t66 221q13 143 -24.5 220.5t-121.5 77.5q-83 0 -135 -77.5t-65 -220.5
q-14 -144 23.5 -221t120.5 -77z" />
    <glyph glyph-name="uni2081" unicode="&#x2081;" horiz-adv-x="458" 
d="M273 790h84l-74 -790h-108l60 646q-29 -17 -59 -26.5t-58 -10.5l11 117q36 5 72 19.5t72 44.5z" />
    <glyph glyph-name="uni2082" unicode="&#x2082;" horiz-adv-x="733" 
d="M224 141l-4 -30h408l-10 -111h-516l11 125q7 68 30 113.5t62 76t93 53.5l148 63q53 22 81 56t33 86t-25.5 87t-91.5 35q-60 0 -101.5 -30.5t-53.5 -90.5h-120q10 76 49 126t99.5 75.5t134.5 25.5q70 0 123.5 -30t81.5 -82.5t21 -121.5q-9 -91 -59.5 -148.5t-137.5 -95.5
l-151 -62q-51 -22 -76.5 -49t-28.5 -71z" />
    <glyph glyph-name="uni2083" unicode="&#x2083;" horiz-adv-x="742" 
d="M359 -25q-54 0 -103.5 17t-86.5 49.5t-56 81t-13 112.5h115q-3 -47 16 -80.5t55 -51t85 -17.5q72 0 116 38t49 95q4 38 -10 65.5t-48 43.5t-90 16h-88l10 95h68q71 0 116 33t49 89q5 51 -26 86t-98 35q-51 0 -94.5 -24t-61.5 -84h-113q23 116 99 167t178 51
q74 0 128.5 -28t83.5 -76.5t22 -112.5q-5 -61 -40 -105.5t-97 -67.5q64 -22 99.5 -70.5t29.5 -122.5q-7 -69 -45.5 -121.5t-102 -82.5t-146.5 -30z" />
    <glyph glyph-name="uni2084" unicode="&#x2084;" horiz-adv-x="665" 
d="M397 0l16 182h-362l9 92l416 522h102l-47 -510h122l-10 -104h-123l-17 -182h-106zM189 274h238l31 338z" />
    <glyph glyph-name="uni2085" unicode="&#x2085;" horiz-adv-x="711" 
d="M353 -25q-71 0 -125.5 28.5t-82.5 82.5t-22 131h111q-7 -65 31 -98t99 -33q67 0 112.5 46.5t51.5 116.5q6 66 -31.5 100.5t-116.5 34.5h-202l69 393h407l-10 -110h-303l-37 -202q28 4 58.5 7.5t54.5 3.5q113 0 173.5 -58t49.5 -169q-7 -78 -45 -139.5t-100 -98
t-142 -36.5z" />
    <glyph glyph-name="uni2086" unicode="&#x2086;" horiz-adv-x="719" 
d="M364 -27q-87 0 -147.5 51.5t-88.5 141t-18 202.5q13 134 59 228.5t118 144t164 49.5q66 0 114.5 -27.5t74 -77.5t22.5 -117h-115q-3 52 -27.5 82.5t-75.5 30.5q-68 0 -120.5 -52t-81.5 -147t-26 -221q13 78 46.5 123t78.5 64t94 19q64 0 112 -32t72 -87.5t18 -128.5
q-8 -73 -44.5 -128.5t-95.5 -86.5t-133 -31zM375 85q58 0 100.5 37.5t48.5 101.5q6 66 -29.5 103.5t-93.5 37.5q-38 0 -70.5 -18.5t-53.5 -50t-24 -72.5q-6 -64 29.5 -101.5t92.5 -37.5z" />
    <glyph glyph-name="uni2087" unicode="&#x2087;" horiz-adv-x="561" 
d="M50 0l395 670h-361l11 116h489l-12 -114l-375 -672h-147z" />
    <glyph glyph-name="uni2088" unicode="&#x2088;" horiz-adv-x="769" 
d="M374 -25q-87 0 -149.5 30t-94 81t-25.5 116q6 75 57 122t124 59q-31 16 -61.5 43.5t-48 65.5t-12.5 88q6 64 42 111.5t99 74t147 26.5q76 0 133.5 -29t87.5 -79t23 -114q-5 -61 -47.5 -110.5t-115.5 -62.5l13 -5q74 -34 111.5 -78t30.5 -121q-6 -63 -45.5 -112.5
t-107.5 -77.5t-161 -28zM385 86q88 0 137 28.5t53 73.5q2 35 -19 60t-60 42l-116 50q-67 -6 -112.5 -42.5t-49.5 -84.5q-5 -60 43.5 -93.5t123.5 -33.5zM431 442q59 2 103.5 35t50.5 85q4 54 -35.5 87t-108.5 33q-44 0 -80 -14.5t-58.5 -38t-25.5 -54.5q-4 -36 16 -58
t59 -39z" />
    <glyph glyph-name="uni2089" unicode="&#x2089;" horiz-adv-x="728" 
d="M343 -25q-72 0 -125.5 32t-81 88t-20.5 128h115q-6 -62 27 -99.5t92 -37.5q95 0 144 88.5t65 236.5q1 21 2 40t0 42q-15 -68 -47.5 -110.5t-76.5 -63t-95 -20.5q-64 0 -112 32t-71.5 87.5t-17.5 127.5q7 75 43.5 129.5t95.5 85.5t132 31q83 0 144.5 -49.5t91.5 -137.5
t19 -208q-13 -129 -53 -223.5t-107.5 -146.5t-163.5 -52zM376 401q38 0 70 18t53.5 49.5t25.5 72.5q5 65 -30.5 102.5t-93.5 37.5q-57 0 -99 -37.5t-49 -102.5q-6 -66 29.5 -103t93.5 -37z" />
    <glyph glyph-name="uni2070" unicode="&#x2070;" horiz-adv-x="746" 
d="M429 485q-85 0 -144.5 45.5t-86.5 136.5t-13 227q11 137 55.5 228t113 135.5t154.5 44.5q85 0 145 -44.5t87 -135.5t15 -228q-13 -136 -58 -227t-113.5 -136.5t-154.5 -45.5zM440 596q85 0 136.5 77t65.5 221q13 144 -24 221t-121 77q-83 0 -135 -77t-66 -221t23.5 -221
t120.5 -77z" />
    <glyph glyph-name="uni00B9" unicode="&#xb9;" horiz-adv-x="458" 
d="M342 1284h84l-74 -790h-108l60 646q-29 -17 -59 -26.5t-58 -10.5l11 117q36 5 72 20t72 44z" />
    <glyph glyph-name="uni00B2" unicode="&#xb2;" horiz-adv-x="734" 
d="M295 643l-4 -31h408l-10 -111h-516l11 125q6 68 29.5 113.5t62.5 76.5t93 53l148 63q53 22 81 56.5t33 85.5q5 52 -25.5 87.5t-91.5 35.5q-60 0 -101.5 -31t-53.5 -90h-120q10 75 49 125t99 75.5t135 25.5q70 0 123.5 -30t81 -82t21.5 -122q-10 -91 -60 -148.5
t-138 -94.5l-150 -63q-51 -21 -76.5 -48.5t-28.5 -70.5z" />
    <glyph glyph-name="uni00B3" unicode="&#xb3;" horiz-adv-x="742" 
d="M431 485q-54 0 -104 17t-87 49.5t-56 81.5t-13 113h115q-3 -48 16 -81.5t55 -51t85 -17.5q72 0 116 38t50 96q4 37 -10.5 64.5t-48.5 43.5t-90 16h-87l9 95h69q70 0 115 33t50 89q5 52 -26.5 86.5t-97.5 34.5q-52 0 -95 -23.5t-61 -83.5h-114q23 115 99 166t179 51
q73 0 127.5 -27.5t83.5 -76.5t23 -113q-6 -61 -41 -105.5t-96 -66.5q63 -23 99 -71.5t30 -121.5q-7 -69 -45.5 -122t-102 -83t-146.5 -30z" />
    <glyph glyph-name="uni2074" unicode="&#x2074;" horiz-adv-x="665" 
d="M467 498l16 182h-362l9 92l416 521h102l-47 -510h122l-9 -103h-123l-17 -182h-107zM259 772h238l31 338z" />
    <glyph glyph-name="uni2075" unicode="&#x2075;" horiz-adv-x="711" 
d="M423 476q-71 0 -125.5 28t-82.5 82t-22 132h111q-7 -65 31 -98t99 -33q67 0 112.5 46.5t51.5 116.5q6 66 -31.5 100.5t-116.5 34.5h-202l69 392h408l-11 -109h-303l-37 -202q28 4 58.5 7.5t54.5 3.5q113 0 173.5 -58.5t49.5 -168.5q-6 -78 -44.5 -139.5t-100.5 -98
t-142 -36.5z" />
    <glyph glyph-name="uni2076" unicode="&#x2076;" horiz-adv-x="719" 
d="M435 485q-87 0 -147 51.5t-88.5 141t-17.5 202.5q12 134 58 228.5t118.5 144t163.5 49.5q66 0 114.5 -27.5t74 -77.5t23.5 -117h-115q-4 52 -28.5 82t-75.5 30q-68 0 -120.5 -51.5t-81.5 -146.5t-26 -222q13 79 46.5 124t79 64t93.5 19q64 0 112.5 -32t72 -87.5
t17.5 -128.5q-7 -73 -44 -128.5t-95.5 -86.5t-133.5 -31zM446 596q58 0 100.5 38t48.5 102q6 66 -29.5 103.5t-93.5 37.5q-37 0 -69.5 -18.5t-54 -50t-24.5 -72.5q-6 -64 29.5 -102t92.5 -38z" />
    <glyph glyph-name="uni2077" unicode="&#x2077;" horiz-adv-x="561" 
d="M119 492l395 670h-361l11 115h489l-12 -113l-375 -672h-147z" />
    <glyph glyph-name="uni2078" unicode="&#x2078;" horiz-adv-x="769" 
d="M446 485q-87 0 -149.5 30t-94 81t-25.5 116q6 75 57 122.5t124 58.5q-31 17 -61 44t-48 65t-13 88q6 64 42 111.5t99 74t147 26.5q76 0 133.5 -29t87.5 -79t24 -114q-6 -61 -48.5 -110.5t-115.5 -62.5l13 -5q74 -33 111.5 -77.5t30.5 -121.5q-6 -63 -45.5 -112
t-107.5 -77.5t-161 -28.5zM457 596q88 0 137 28.5t53 74.5q3 34 -18.5 59.5t-60.5 41.5l-116 51q-67 -7 -112.5 -43.5t-49.5 -84.5q-5 -60 43.5 -93.5t123.5 -33.5zM503 953q59 1 103.5 34t50.5 85q4 55 -35.5 87.5t-108.5 32.5q-44 0 -80 -14t-58.5 -38t-25.5 -55
q-4 -36 16 -58t59 -39z" />
    <glyph glyph-name="uni2079" unicode="&#x2079;" horiz-adv-x="728" 
d="M414 485q-72 0 -125.5 32t-81 88t-20.5 129h115q-5 -63 27.5 -100.5t91.5 -37.5q95 0 144.5 89t64.5 236q1 21 2 40.5t0 41.5q-15 -67 -47.5 -110t-76 -63t-95.5 -20q-64 0 -112 31.5t-71.5 87t-17.5 128.5q8 74 44.5 129t95 85.5t131.5 30.5q83 0 144.5 -49t91.5 -137.5
t19 -207.5q-12 -130 -52.5 -224.5t-108 -146.5t-163.5 -52zM448 911q37 0 69 18t53.5 50t25.5 72q5 65 -30.5 102.5t-93.5 37.5q-56 0 -98.5 -37.5t-48.5 -102.5q-7 -66 28.5 -103t94.5 -37z" />
    <glyph glyph-name="ellipsis" unicode="&#x2026;" horiz-adv-x="1196" 
d="M172 -18q-55 0 -87.5 39t-26.5 97q7 56 46 95t94 39q54 0 87.5 -37.5t28.5 -96.5t-46 -97.5t-96 -38.5zM589 -18q-55 0 -87.5 39t-26.5 97q7 56 46 95t94 39q54 0 87.5 -37.5t28.5 -96.5t-46 -97.5t-96 -38.5zM1014 -18q-55 0 -87.5 39t-26.5 97q7 56 46 95t94 39
q54 0 87.5 -37.5t28.5 -96.5t-46 -97.5t-96 -38.5z" />
    <glyph glyph-name="exclamdown" unicode="&#xa1;" horiz-adv-x="514" 
d="M444 878l-63 -896h-189l104 896h148zM409 1290q56 0 88 -40t27 -94q-5 -56 -43.5 -96t-95.5 -40q-58 0 -90 40t-27 96q6 55 45.5 94.5t95.5 39.5z" />
    <glyph glyph-name="questiondown" unicode="&#xbf;" horiz-adv-x="912" 
d="M630 895l-8 -85q-8 -92 -32 -146.5t-67 -92t-110 -77.5q-51 -31 -88.5 -58.5t-59.5 -60.5t-25 -85q-4 -77 42 -120.5t140 -43.5q99 0 158.5 49.5t75.5 127.5h185q-24 -158 -136 -256.5t-295 -98.5q-125 0 -208.5 45.5t-122.5 124t-32 176.5q6 80 38.5 135.5t82 96
t104.5 72.5q61 37 97.5 64.5t55 64.5t23.5 100l6 68h176zM574 1274q60 0 90 -40t23 -96q-6 -56 -44 -93t-96 -37q-61 0 -89.5 38.5t-24.5 91.5q5 61 44 98.5t97 37.5z" />
    <glyph glyph-name="periodcentered" unicode="&#xb7;" horiz-adv-x="354" 
d="M236 435q-55 0 -87.5 39t-26.5 97q7 56 46 95t94 39q54 0 87.5 -37.5t28.5 -96.5t-46 -97.5t-96 -38.5z" />
    <glyph glyph-name="bullet" unicode="&#x2022;" horiz-adv-x="541" 
d="M320 343q-96 0 -151.5 68t-44.5 167q10 97 78 164.5t164 67.5q93 0 150.5 -65t49.5 -167q-9 -102 -80 -168.5t-166 -66.5z" />
    <glyph glyph-name="quotesinglbase" unicode="&#x201a;" horiz-adv-x="455" 
d="M117 -244l-123 72q58 30 102.5 70t62.5 92q-45 8 -74 38.5t-24 80.5q6 51 44 87t94 36q45 0 75 -25.5t44 -67t9 -91.5q-5 -53 -31 -108t-71 -103.5t-108 -80.5z" />
    <glyph glyph-name="quotedblbase" unicode="&#x201e;" horiz-adv-x="812" 
d="M474 -244l-123 72q58 30 102.5 70t62.5 92q-45 8 -74 38.5t-24 80.5q6 51 44 87t94 36q45 0 75 -25.5t44 -67t9 -91.5q-5 -53 -31 -108t-71 -103.5t-108 -80.5zM117 -244l-123 72q58 30 102.5 70t62.5 92q-45 8 -74 38.5t-24 80.5q6 51 44 87t94 36q45 0 75 -25.5t44 -67
t9 -91.5q-5 -53 -31 -108t-71 -103.5t-108 -80.5z" />
    <glyph glyph-name="quotedblleft" unicode="&#x201c;" horiz-adv-x="806" 
d="M634 798q-65 0 -100 54.5t-28 131.5q6 56 34 111t75 102.5t108 79.5l117 -74q-59 -31 -103 -71t-63 -92q45 -6 73.5 -36.5t23.5 -80.5q-5 -51 -43 -88t-94 -37zM285 798q-65 0 -100 54.5t-28 131.5q6 56 34 111t75 102.5t108 79.5l117 -74q-59 -31 -103 -71t-63 -92
q45 -6 73.5 -36.5t23.5 -80.5q-5 -51 -43 -88t-94 -37z" />
    <glyph glyph-name="quotedblright" unicode="&#x201d;" horiz-adv-x="811" 
d="M614 798l-115 75q58 31 102 71.5t62 91.5q-45 7 -73.5 37.5t-23.5 80.5q5 52 43 87.5t94 35.5q44 0 74.5 -24.5t44.5 -66.5t8 -95q-5 -55 -33 -109.5t-75 -102.5t-108 -81zM256 798l-115 75q58 31 102 71.5t62 91.5q-45 7 -73.5 37.5t-23.5 80.5q5 52 43 87.5t94 35.5
q44 0 74.5 -24.5t44.5 -66.5t8 -95q-5 -55 -33 -109.5t-75 -102.5t-108 -81z" />
    <glyph glyph-name="guillemotleft" unicode="&#xab;" horiz-adv-x="1219" 
d="M489 104l-351 430l472 431l122 -100l-418 -364l3 63l316 -365zM990 104l-351 430l472 431l122 -100l-418 -364l3 63l316 -365z" />
    <glyph glyph-name="guillemotright" unicode="&#xbb;" horiz-adv-x="1215" 
d="M214 104l-123 95l418 365l-2 -59l-317 365l144 95l351 -431zM711 104l-123 95l418 365l-2 -59l-317 365l144 95l351 -431z" />
    <glyph glyph-name="guilsinglleft" unicode="&#x2039;" horiz-adv-x="718" 
d="M489 104l-351 430l472 431l122 -100l-418 -364l3 63l316 -365z" />
    <glyph glyph-name="guilsinglright" unicode="&#x203a;" horiz-adv-x="718" 
d="M214 104l-123 95l418 365l-2 -59l-317 365l144 95l351 -431z" />
    <glyph glyph-name="florin" unicode="&#x192;" horiz-adv-x="515" 
d="M-30 -491q-38 0 -80 6.5t-83 18.5l48 152q24 -10 49.5 -16.5t48.5 -6.5q28 0 54.5 12t45.5 41.5t24 82.5l119 1295q9 102 50 165.5t102.5 93.5t130.5 30q39 0 81 -6.5t82 -18.5l-48 -152q-24 10 -49 16.5t-50 6.5q-27 0 -53.5 -12t-45.5 -41.5t-24 -83.5l-119 -1295
q-9 -100 -50 -164t-102 -94t-131 -30zM36 831l13 133h481l-13 -133h-481z" />
    <glyph glyph-name="paragraph" unicode="&#xb6;" 
d="M534 478q-213 0 -317 105.5t-85 292.5q20 188 147.5 293.5t337.5 105.5h415l-18 -171h-306l-66 -626h-108zM471 -252l159 1527h145l-160 -1527h-144zM759 -252l160 1527h144l-160 -1527h-144z" />
    <glyph glyph-name="section" unicode="&#xa7;" horiz-adv-x="970" 
d="M533 204l2 153q86 4 140 43t60 96q6 50 -27.5 77.5t-94.5 49.5l-173 69q-99 38 -150.5 103.5t-41.5 159.5q8 82 57 141.5t130 92t186 32.5q167 0 247 -77t73 -193h-168q-1 56 -43 86.5t-116 30.5q-57 0 -96.5 -17.5t-60.5 -45t-25 -57.5q-6 -48 27.5 -78t88.5 -49
l183 -75q96 -35 152 -95t45 -155q-7 -74 -56 -140t-135 -108t-204 -44zM448 -215q-110 0 -191.5 38.5t-123.5 109t-34 166.5h166q-6 -77 45.5 -118.5t138.5 -41.5q88 0 142.5 38.5t61.5 96.5q6 51 -29.5 78.5t-92.5 47.5l-173 69q-99 38 -150.5 104t-41.5 160
q12 121 113.5 194.5t259.5 78.5l-3 -153q-88 -6 -134 -43t-52 -85q-6 -47 27.5 -77.5t89.5 -48.5l182 -75q96 -35 151.5 -95.5t45.5 -154.5q-6 -74 -55.5 -140t-136 -107.5t-206.5 -41.5z" />
    <glyph glyph-name="copyright" unicode="&#xa9;" horiz-adv-x="1399" 
d="M653 -12q-135 0 -247.5 50.5t-192.5 140t-118.5 207.5t-23.5 252q14 135 77 253t162 207.5t222 140t257 50.5q135 0 248 -50.5t193 -140t118 -207.5t24 -253q-14 -134 -77 -252t-162 -207.5t-222.5 -140t-257.5 -50.5zM664 86q114 0 218.5 43t188 119t137.5 176.5
t66 213.5q12 115 -21 215t-100.5 176t-163.5 119t-210 43t-218.5 -43t-188.5 -118.5t-137.5 -176t-65.5 -215.5q-12 -113 20.5 -213.5t101 -176.5t164 -119t209.5 -43zM676 242q-93 0 -154.5 49t-89.5 139.5t-16 214.5q13 129 60 217.5t118.5 134t156.5 45.5
q116 0 178.5 -64t74.5 -165l-116 -24q-12 66 -50.5 106t-96.5 40q-50 0 -94.5 -32.5t-76 -97t-40.5 -160.5q-9 -89 6 -155.5t52 -103.5t98 -37q75 0 122.5 44.5t54.5 114.5h113q-7 -84 -46.5 -143.5t-105 -91t-148.5 -31.5z" />
    <glyph glyph-name="registered" unicode="&#xae;" horiz-adv-x="1399" 
d="M653 -12q-135 0 -247.5 50.5t-192.5 140t-118.5 207.5t-23.5 252q14 135 77 253t162 207.5t222 140t257 50.5q135 0 248 -50.5t193 -140t118 -207.5t24 -253q-14 -134 -77 -252t-162 -207.5t-222.5 -140t-257.5 -50.5zM664 86q114 0 218.5 43t188 119t137.5 176.5
t66 213.5q12 115 -21 215t-100.5 176t-163.5 119t-210 43t-218.5 -43t-188.5 -118.5t-137.5 -176t-65.5 -215.5q-12 -113 20.5 -213.5t101 -176.5t164 -119t209.5 -43zM448 241l75 799h258q126 0 186 -66.5t49 -174.5q-8 -88 -59 -149t-141 -81l170 -328h-141l-145 320h-113
l-30 -320h-109zM594 643h139q77 0 120.5 40.5t49.5 105.5q6 67 -27.5 107t-105.5 40h-148z" />
    <glyph glyph-name="trademark" unicode="&#x2122;" horiz-adv-x="1240" 
d="M304 964l52 554h-182l8 84h454l-9 -84h-183l-52 -554h-88zM668 964l60 638h127l137 -406l214 406h122l-60 -638h-89l49 527l9 -1l-231 -451h-59l-149 465l8 -1l-50 -539h-88z" />
    <glyph glyph-name="degree" unicode="&#xb0;" horiz-adv-x="684" 
d="M428 986q-73 0 -131 36t-89 96.5t-24 134.5q6 74 47 134t105.5 96t136.5 36q74 0 131.5 -36t88.5 -96t25 -134q-7 -74 -48.5 -134.5t-104.5 -96.5t-137 -36zM437 1099q63 0 111.5 45t53.5 109q6 64 -34.5 107.5t-104.5 43.5t-111.5 -45t-54.5 -106q-6 -64 36 -109
t104 -45z" />
    <glyph glyph-name="brokenbar" unicode="&#xa6;" horiz-adv-x="525" 
d="M151 -244l74 785h176l-74 -785h-176zM244 736l74 785h176l-74 -785h-176z" />
    <glyph glyph-name="dagger" unicode="&#x2020;" 
d="M430 -252l190 1527h226l-238 -1527h-178zM240 776l18 128l425 15l422 -15l-18 -128l-426 -17z" />
    <glyph glyph-name="daggerdbl" unicode="&#x2021;" 
d="M430 -252l190 1527h226l-238 -1527h-178zM240 776l18 128l425 15l422 -15l-18 -128l-426 -17zM181 452l17 128l425 15l422 -15l-17 -128l-426 -17z" />
    <glyph glyph-name="cent" unicode="&#xa2;" horiz-adv-x="940" 
d="M489 950l41 183h170l-42 -183h-169zM303 -162l41 182h171l-42 -182h-170zM443 -25q-107 0 -194 62t-132.5 176t-31.5 270q15 162 82 274.5t164.5 172t206.5 59.5q77 0 135.5 -27.5t99 -74t62.5 -105.5t26 -121l-179 -11q-12 73 -53.5 118.5t-108.5 45.5q-60 0 -114 -36.5
t-92.5 -110t-49.5 -184.5q-9 -105 12.5 -179.5t69.5 -113.5t114 -39q84 0 134.5 48.5t57.5 134.5h179q-9 -101 -59.5 -182.5t-134.5 -129t-194 -47.5z" />
    <glyph glyph-name="currency" unicode="&#xa4;" 
d="M570 223q-113 0 -203.5 55.5t-140 149.5t-40.5 209q8 113 70 206.5t160 150t213 56.5q114 0 204 -56t139 -149.5t41 -207.5q-8 -115 -70.5 -209t-160.5 -149.5t-212 -55.5zM190 165l-95 105l225 209l97 -105zM932 163l-176 193l111 105l179 -194zM583 397
q67 0 123.5 32.5t92.5 87t40 120.5q5 67 -24 121.5t-81.5 86t-117.5 31.5q-67 0 -123.5 -33t-92 -87t-40.5 -119q-5 -68 24.5 -122.5t81.5 -86t117 -31.5zM346 810l-186 201l112 104l188 -201zM889 804l-99 105l214 196l97 -105z" />
    <glyph glyph-name="Euro" unicode="&#x20ac;" horiz-adv-x="1123" 
d="M579 -25q-152 0 -255.5 82t-149 232.5t-25.5 354.5q20 214 98 360.5t197 221.5t261 75q192 0 295 -105.5t125 -273.5l-194 -40q-20 110 -83.5 176.5t-159.5 66.5q-83 0 -157.5 -54t-126 -161t-66.5 -266q-14 -147 10.5 -257.5t86 -172t161.5 -61.5q125 0 203 73.5
t90 191.5h188q-12 -140 -78 -239t-173.5 -151.5t-246.5 -52.5zM12 478l11 115h648l-10 -115h-649zM43 674l10 115h649l-12 -115h-647z" />
    <glyph glyph-name="uni20A8" unicode="&#x20a8;" horiz-adv-x="1066" 
d="M267 1163l11 114h791l-12 -114h-327q55 -36 85.5 -86t38.5 -111h185l-10 -115h-179q-15 -88 -62 -161.5t-131.5 -122t-211.5 -65.5l435 -502h-249l-428 494l11 115h118q147 0 226 68.5t100 173.5h-421l12 115h414q-12 87 -79.5 142t-199.5 55h-117z" />
    <glyph glyph-name="yen" unicode="&#xa5;" horiz-adv-x="1037" 
d="M902 404h-710l11 114h711zM880 215h-711l14 116h710zM425 0l49 526l-330 751h209l229 -548l344 548h207l-482 -751l-49 -526h-177z" />
    <glyph glyph-name="cent.tf" 
d="M618 950l41 183h170l-42 -183h-169zM432 -162l41 182h171l-42 -182h-170zM572 -25q-107 0 -194 62t-132.5 176t-31.5 270q15 162 82 274.5t164.5 172t206.5 59.5q77 0 135.5 -27.5t99 -74t62.5 -105.5t26 -121l-179 -11q-12 73 -53.5 118.5t-108.5 45.5q-60 0 -114 -36.5
t-92.5 -110t-49.5 -184.5q-9 -105 12.5 -179.5t69.5 -113.5t114 -39q84 0 134.5 48.5t57.5 134.5h179q-9 -101 -59.5 -182.5t-134.5 -129t-194 -47.5z" />
    <glyph glyph-name="currency.tf" 
d="M570 223q-113 0 -203.5 55.5t-140 149.5t-40.5 209q8 113 70 206.5t160 150t213 56.5q114 0 204 -56t139 -149.5t41 -207.5q-8 -115 -70.5 -209t-160.5 -149.5t-212 -55.5zM190 165l-95 105l225 209l97 -105zM932 163l-176 193l111 105l179 -194zM583 397
q67 0 123.5 32.5t92.5 87t40 120.5q5 67 -24 121.5t-81.5 86t-117.5 31.5q-67 0 -123.5 -33t-92 -87t-40.5 -119q-5 -68 24.5 -122.5t81.5 -86t117 -31.5zM346 810l-186 201l112 104l188 -201zM889 804l-99 105l214 196l97 -105z" />
    <glyph glyph-name="dollar.tf" 
d="M476 -192l16 172q-112 12 -199.5 61t-134.5 136.5t-35 213.5h174q-10 -106 47 -162t166 -69l40 431l-71 28q-144 54 -216.5 129.5t-60.5 210.5q14 140 120 233t294 106l16 151h131l-15 -153q162 -16 242.5 -109t89.5 -241h-174q-6 68 -49.5 116t-124.5 62l-38 -397
l138 -54q124 -49 185 -127.5t49 -207.5q-9 -87 -61.5 -166t-147.5 -132t-235 -63l-15 -169h-131zM640 157q107 10 163.5 64t64.5 122q6 66 -28.5 113t-102.5 73l-60 24zM568 767l32 360q-95 -8 -148 -57t-58 -115q-6 -63 24 -100.5t100 -66.5z" />
    <glyph glyph-name="Euro.tf" 
d="M591 -25q-152 0 -255.5 82t-149 232.5t-25.5 354.5q20 214 98 360.5t197 221.5t261 75q192 0 295 -105.5t125 -273.5l-194 -40q-20 110 -83.5 176.5t-159.5 66.5q-83 0 -157.5 -54t-126 -161t-66.5 -266q-14 -147 10.5 -257.5t86 -172t161.5 -61.5q125 0 203 73.5
t90 191.5h188q-12 -140 -78 -239t-173.5 -151.5t-246.5 -52.5zM24 478l11 115h648l-10 -115h-649zM55 674l10 115h649l-12 -115h-647z" />
    <glyph glyph-name="uni20A8.tf" horiz-adv-x="1066" 
d="M164 1163l11 114h791l-12 -114h-327q55 -36 85.5 -86t38.5 -111h185l-10 -115h-179q-15 -88 -62 -161.5t-131.5 -122t-211.5 -65.5l435 -502h-249l-428 494l11 115h118q147 0 226 68.5t100 173.5h-421l12 115h414q-12 87 -79.5 142t-199.5 55h-117z" />
    <glyph glyph-name="sterling.tf" 
d="M111 0l16 175h53q68 0 101.5 43.5t41.5 133.5l18 195h-156l12 135h157l18 194q14 137 64.5 232t133.5 144t192 49q137 0 214 -82t82 -242h-172q-5 72 -43 109t-97 37q-79 0 -132 -59t-66 -188l-19 -194h318l-12 -135h-318l-17 -183q-7 -66 -26.5 -113t-58.5 -76h290
q88 0 131.5 39.5t61.5 122.5h190q-21 -157 -111 -247t-288 -90h-578z" />
    <glyph glyph-name="yen.tf" 
d="M864 404h-710l11 114h711zM842 215h-711l14 116h710zM387 0l49 526l-330 751h209l229 -548l344 548h207l-482 -751l-49 -526h-177z" />
    <glyph glyph-name="uni2215" unicode="&#x2215;" horiz-adv-x="568" 
d="M-232 -1l959 1350h136l-961 -1350h-134z" />
    <glyph glyph-name="multiply" unicode="&#xd7;" horiz-adv-x="1000" 
d="M185 113l-125 125l348 290l-4 -63l-287 287l135 112l287 -287l-68 1l347 290l126 -126l-350 -288l5 63l287 -287l-135 -112l-287 287l69 -1z" />
    <glyph glyph-name="divide" unicode="&#xf7;" horiz-adv-x="1000" 
d="M110 423l21 167h783l-21 -167h-783zM440 51q-55 0 -87 39t-26 96t45.5 95.5t94.5 38.5q54 0 87.5 -37t27.5 -97q-4 -59 -45 -97t-97 -38zM543 702q-55 0 -87 39t-26 96q6 56 45 95t95 39q53 0 86.5 -37t28.5 -97q-5 -59 -46 -97t-96 -38z" />
    <glyph glyph-name="notequal" unicode="&#x2260;" horiz-adv-x="1000" 
d="M253 93l325 827h180l-325 -827h-180zM140 223l16 169h667l-16 -169h-667zM179 589l16 171h667l-16 -171h-667z" />
    <glyph glyph-name="greaterequal" unicode="&#x2265;" horiz-adv-x="1000" 
d="M187 341l-47 147l586 173l-11 -57l-570 215l44 168l634 -277l-17 -177zM62 7l21 167h783l-21 -167h-783z" />
    <glyph glyph-name="lessequal" unicode="&#x2264;" horiz-adv-x="1000" 
d="M766 334l-624 192l-3 176l587 268l80 -139l-565 -235l-14 60l585 -174zM56 7l21 167h783l-21 -167h-783z" />
    <glyph glyph-name="plusminus" unicode="&#xb1;" horiz-adv-x="1000" 
d="M463 1088h176l-25 -283h292l-16 -168h-293l-24 -282h-177l27 282h-292l15 168h292zM65 7l21 167h783l-21 -167h-783z" />
    <glyph glyph-name="approxequal" unicode="&#x2248;" horiz-adv-x="1000" 
d="M208 507l-91 57q43 118 100 184t140 66q35 0 73 -13.5t104 -42.5q67 -29 98.5 -41t56.5 -12q39 0 71 26.5t62 86.5l89 -67q-46 -119 -107 -176t-138 -57q-32 0 -66 12t-111 44q-79 33 -106 43t-46 10q-37 0 -66 -24.5t-63 -95.5zM173 111l-91 57q42 119 99 185t140 66
q35 0 73.5 -14t103.5 -43q67 -29 98.5 -41t56.5 -12q40 0 72 27t61 87l90 -68q-46 -118 -107.5 -175t-137.5 -57q-32 0 -66.5 11.5t-111.5 43.5q-79 33 -105.5 43t-45.5 10q-38 0 -67 -24t-62 -96z" />
    <glyph glyph-name="logicalnot" unicode="&#xac;" horiz-adv-x="1000" 
d="M176 652h696l-49 -357h-134l36 259l36 -48h-605z" />
    <glyph glyph-name="infinity" unicode="&#x221e;" horiz-adv-x="1281" 
d="M323 191q-77 0 -145.5 32.5t-106 100.5t-22.5 174q15 107 71.5 174.5t134.5 100t154 32.5q59 0 118 -20.5t107.5 -70.5t73.5 -139h-41q49 89 112 139t128.5 70.5t123.5 20.5q78 0 145.5 -32.5t105.5 -100t22 -174.5q-15 -106 -71.5 -174t-134 -100.5t-154.5 -32.5
q-58 0 -117.5 20.5t-107.5 70.5t-73 139h41q-50 -89 -112.5 -139t-128 -70.5t-123.5 -20.5zM369 316q80 0 156 52.5t140 164.5l-10 -69q-32 112 -93.5 164t-141.5 52q-47 0 -94.5 -18.5t-81.5 -58.5t-44 -105q-9 -64 14.5 -104t65.5 -59t89 -19zM933 316q47 0 94 19t82 59
t44 104q10 65 -14 105t-66 58.5t-89 18.5q-79 0 -155.5 -52t-140.5 -164l10 69q33 -112 94.5 -164.5t140.5 -52.5z" />
    <glyph glyph-name="emptyset" unicode="&#x2205;" 
d="M154 76l-68 75l982 891l67 -76zM571 152q-113 0 -200.5 55t-133 147.5t-33.5 205.5q11 113 75.5 205t162.5 147t211 55q112 0 199 -55t132.5 -147t34.5 -205q-12 -113 -76 -205.5t-162 -147.5t-210 -55zM581 273q79 0 148 39t114.5 104t54.5 144q8 79 -24 143.5
t-92.5 103.5t-139.5 39t-148.5 -39t-115 -103.5t-53.5 -143.5q-9 -79 23.5 -144t93 -104t139.5 -39z" />
    <glyph glyph-name="integral" unicode="&#x222b;" 
d="M168 -415l47 150q27 -10 54.5 -16t54.5 -6q30 0 60 11.5t51 41.5t25 85l86 1246q7 99 50 162t110 93t144 30q43 0 89.5 -6t90.5 -17l-47 -151q-27 11 -54.5 16.5t-54.5 5.5q-30 0 -60 -11t-50.5 -41t-25.5 -84l-86 -1246q-7 -100 -50 -163t-109.5 -93t-144.5 -30
q-43 0 -89.5 6.5t-90.5 16.5z" />
    <glyph glyph-name="product" unicode="&#x220f;" 
d="M17 -472l243 1747h924l-244 -1747h-191l229 1638l46 -56h-649l61 56l-229 -1638h-190z" />
    <glyph glyph-name="summation" unicode="&#x2211;" 
d="M563 401l-366 709l23 165h923l-22 -165h-863l111 56l402 -765h-208zM563 401h208l-616 -764l-95 56h863l-23 -166h-923l23 166z" />
    <glyph glyph-name="radical" unicode="&#x221a;" 
d="M433 1l-157 468l62 -73l-276 -72l-37 113l405 136l148 -443h-80l654 1553h165l-728 -1682h-156z" />
    <glyph glyph-name="uni00B5" unicode="&#xb5;" horiz-adv-x="1109" 
d="M112 -401l132 1367h177l-57 -596q-10 -108 32 -162.5t128 -54.5q72 0 132 42.5t99.5 120.5t49.5 185l44 465h176l-90 -966h-177l17 182q-51 -98 -127.5 -149t-167.5 -51q-92 0 -153 39l-42 -422h-173z" />
    <glyph glyph-name="partialdiff" unicode="&#x2202;" horiz-adv-x="1043" 
d="M488 -23q-94 0 -175 42t-131 128.5t-50 221.5q0 122 41.5 219t109 166t149 105t161.5 36q48 0 99.5 -15.5t95.5 -55t72 -109t28 -177.5l-12 2q19 235 -23 414t-132 322t-216 267l159 85q134 -139 211.5 -283t110 -292.5t32.5 -301.5q0 -205 -46.5 -351.5t-124 -240.5
t-171.5 -138t-188 -44zM503 125q86 0 147.5 55t94.5 141t33 178q0 125 -54.5 184.5t-133.5 59.5q-78 0 -140 -50.5t-98 -135t-36 -187.5q0 -111 47.5 -178t139.5 -67z" />
    <glyph glyph-name="perthousand" unicode="&#x2030;" horiz-adv-x="1907" 
d="M196 0l897 1277h180l-897 -1277h-180zM995 -25q-94 0 -158 74t-51 222q15 147 93.5 220.5t172.5 73.5q95 0 160 -73.5t51 -220.5q-14 -148 -93 -222t-175 -74zM1008 105q45 0 77.5 38.5t39.5 127.5q11 87 -15 127t-71 40t-77 -40t-41 -127q-7 -89 17.5 -127.5t69.5 -38.5
zM414 712q-63 0 -114 33t-78 98.5t-17 163.5q9 97 48.5 162.5t96 98.5t119.5 33q96 0 161 -74t51 -220q-14 -147 -93 -221t-174 -74zM426 840q44 0 76.5 39t40.5 128q8 87 -16.5 127t-69.5 40q-47 0 -78.5 -40t-40.5 -127q-9 -89 16 -128t72 -39zM1569 -25q-62 0 -113.5 33
t-78.5 98.5t-17 164.5q14 147 92.5 220.5t173.5 73.5q63 0 114.5 -32.5t79 -98t16.5 -163.5q-13 -148 -92 -222t-175 -74zM1582 105q45 0 76.5 39t41.5 127q10 87 -16 127t-71 40q-46 0 -78.5 -39.5t-39.5 -127.5q-7 -89 17 -127.5t70 -38.5z" />
    <glyph glyph-name="plus.tf" 
d="M467 0l36 407h-361l16 168h363l36 407h178l-38 -407h360l-16 -168h-362l-36 -407h-176z" />
    <glyph glyph-name="minus.tf" 
d="M201 306l21 167h783l-21 -167h-783z" />
    <glyph glyph-name="multiply.tf" 
d="M295 113l-125 125l348 290l-4 -63l-287 287l135 112l287 -287l-68 1l347 290l126 -126l-350 -288l5 63l287 -287l-135 -112l-287 287l69 -1z" />
    <glyph glyph-name="divide.tf" 
d="M259 423l21 167h783l-21 -167h-783zM589 51q-55 0 -87 39t-26 96t45.5 95.5t94.5 38.5q54 0 87.5 -37t27.5 -97q-4 -59 -45 -97t-97 -38zM692 702q-55 0 -87 39t-26 96q6 56 45 95t95 39q53 0 86.5 -37t28.5 -97q-5 -59 -46 -97t-96 -38z" />
    <glyph glyph-name="equal.tf" 
d="M295 614l16 170h652l-16 -170h-652zM255 215l16 168h653l-16 -168h-653z" />
    <glyph glyph-name="notequal.tf" 
d="M360 93l325 827h180l-325 -827h-180zM247 223l16 169h667l-16 -169h-667zM286 589l16 171h667l-16 -171h-667z" />
    <glyph glyph-name="greater.tf" 
d="M365 68l-101 151l558 408l-480 412l129 149l540 -473l-16 -175z" />
    <glyph glyph-name="less.tf" 
d="M900 1188l102 -149l-560 -412l482 -408l-130 -151l-540 472l16 175z" />
    <glyph glyph-name="greaterequal.tf" 
d="M336 341l-47 147l586 173l-11 -57l-570 215l44 168l634 -277l-17 -177zM211 7l21 167h783l-21 -167h-783z" />
    <glyph glyph-name="lessequal.tf" 
d="M891 334l-624 192l-3 176l587 268l80 -139l-565 -235l-14 60l585 -174zM181 7l21 167h783l-21 -167h-783z" />
    <glyph glyph-name="plusminus.tf" 
d="M542 1088h176l-25 -283h292l-16 -168h-293l-24 -282h-177l27 282h-292l15 168h292zM144 7l21 167h783l-21 -167h-783z" />
    <glyph glyph-name="approxequal.tf" 
d="M312 507l-91 57q43 118 100 184t140 66q35 0 73 -13.5t104 -42.5q67 -29 98.5 -41t56.5 -12q39 0 71 26.5t62 86.5l89 -67q-46 -119 -107 -176t-138 -57q-32 0 -66 12t-111 44q-79 33 -106 43t-46 10q-37 0 -66 -24.5t-63 -95.5zM277 111l-91 57q42 119 99 185t140 66
q35 0 73.5 -14t103.5 -43q67 -29 98.5 -41t56.5 -12q40 0 72 27t61 87l90 -68q-46 -118 -107.5 -175t-137.5 -57q-32 0 -66.5 11.5t-111.5 43.5q-79 33 -105.5 43t-45.5 10q-38 0 -67 -24t-62 -96z" />
    <glyph glyph-name="asciitilde.tf" 
d="M266 427l-90 57q41 118 98.5 184.5t135.5 66.5q36 0 76.5 -13t105.5 -43q66 -30 100.5 -42t60.5 -12q73 0 127 114l89 -68q-45 -118 -107.5 -175t-138.5 -57q-29 0 -70.5 13.5t-105.5 42.5q-66 28 -98.5 40t-59.5 12q-32 0 -62.5 -27t-60.5 -93z" />
    <glyph glyph-name="asciicircum.tf" 
d="M194 464l406 725h140l266 -725h-195l-165 492l-256 -492h-196z" />
    <glyph glyph-name="percent.tf" 
d="M61 0l897 1277h180l-897 -1277h-180zM860 -25q-94 0 -158 74t-51 222q15 147 93.5 220.5t172.5 73.5q95 0 160 -73.5t51 -220.5q-14 -148 -93 -222t-175 -74zM873 105q45 0 77.5 38.5t39.5 127.5q11 87 -15 127t-71 40t-77 -40t-41 -127q-7 -89 17.5 -127.5t69.5 -38.5z
M279 712q-63 0 -114 33t-78 98.5t-17 163.5q9 97 48.5 162.5t96 98.5t119.5 33q96 0 161 -74t51 -220q-14 -147 -93 -221t-174 -74zM291 840q44 0 76.5 39t40.5 128q8 87 -16.5 127t-69.5 40q-47 0 -78.5 -40t-40.5 -127q-9 -89 16 -128t72 -39z" />
    <glyph glyph-name="lozenge" unicode="&#x25ca;" horiz-adv-x="1069" 
d="M147 637l434 638h152l310 -638l-432 -637h-153zM335 601l7 73l233 -501h-46l325 501l-6 -73l-230 500h45z" />
    <glyph glyph-name="uni0308" unicode="&#x308;" horiz-adv-x="0" 
d="M349 1218q-49 0 -76 33t-22 80q3 47 36 82.5t84 35.5q44 0 74 -31t27 -82q-5 -54 -42 -86t-81 -32zM673 1219q-47 0 -75 32.5t-23 80.5q4 46 37.5 82t82.5 36q43 0 73 -30t27 -83q-4 -58 -41.5 -88t-80.5 -30z" />
    <glyph glyph-name="uni0307" unicode="&#x307;" horiz-adv-x="0" 
d="M349 1219q-47 0 -75 32.5t-23 80.5q3 46 37.5 82t88.5 36q42 0 70 -31t24 -82q-6 -55 -40 -86.5t-82 -31.5z" />
    <glyph glyph-name="gravecomb" unicode="&#x300;" horiz-adv-x="0" 
d="M695 1084l-449 218l84 171l426 -265z" />
    <glyph glyph-name="acutecomb" unicode="&#x301;" horiz-adv-x="0" 
d="M274 1120l-36 123l476 265l51 -171z" />
    <glyph glyph-name="uni030B" unicode="&#x30b;" horiz-adv-x="0" 
d="M607 1100l-100 17l31 330l141 -28zM356 1111l-103 13l15 335l143 -23z" />
    <glyph glyph-name="uni030C.alt" horiz-adv-x="0" 
d="M312 996l-100 59q48 25 84.5 58t51.5 77q-37 6 -61 31t-20 67q5 42 36.5 71t76.5 29q55 0 83 -44.5t22 -106.5q-7 -65 -51 -132t-122 -109z" />
    <glyph glyph-name="uni0302" unicode="&#x302;" horiz-adv-x="0" 
d="M335 1122l-100 97l376 317l320 -317l-122 -97l-216 209z" />
    <glyph glyph-name="uni030C" unicode="&#x30c;" horiz-adv-x="0" 
d="M863 1545l101 -97l-377 -317l-320 317l122 97l216 -209z" />
    <glyph glyph-name="uni0306" unicode="&#x306;" horiz-adv-x="0" 
d="M520 1156q-135 0 -204 76.5t-51 203.5h154q-10 -73 22.5 -112.5t97.5 -39.5t108 39.5t53 112.5h154q-14 -129 -105 -204.5t-229 -75.5z" />
    <glyph glyph-name="uni030A" unicode="&#x30a;" horiz-adv-x="0" 
d="M466 1090q-60 0 -109 30t-78.5 79.5t-29.5 107.5q0 60 29.5 109.5t78.5 78.5t109 29t109 -29t78.5 -78.5t29.5 -109.5q0 -58 -29.5 -107.5t-78.5 -79.5t-109 -30zM466 1223q35 0 60 24.5t25 59.5q0 37 -25 61.5t-60 24.5t-60 -24.5t-25 -61.5q0 -35 25 -59.5t60 -24.5z
" />
    <glyph glyph-name="tildecomb" unicode="&#x303;" horiz-adv-x="0" 
d="M302 1185l-66 46q34 115 86 173.5t113 58.5q25 0 51 -11t75 -39q44 -27 66.5 -39t42.5 -12q29 0 55.5 22.5t51.5 78.5l70 -56q-20 -68 -50.5 -118t-67 -77t-74.5 -27q-24 0 -53.5 13t-83.5 44q-45 26 -63.5 35t-36.5 9q-28 0 -56.5 -21t-59.5 -80z" />
    <glyph glyph-name="uni0304" unicode="&#x304;" horiz-adv-x="0" 
d="M252 1326h654l-24 -158h-654z" />
    <glyph glyph-name="uni0312" unicode="&#x312;" horiz-adv-x="0" 
d="M412 1492l100 -59q-48 -24 -84.5 -57.5t-52.5 -76.5q38 -6 62 -31t20 -67q-4 -41 -36 -70.5t-77 -29.5q-55 0 -82.5 44.5t-22.5 105.5q7 66 51 133.5t122 107.5z" />
    <glyph glyph-name="uni0326" unicode="&#x326;" horiz-adv-x="0" 
d="M109 -451l-100 59q48 25 84.5 58t51.5 77q-37 6 -61 31t-20 67q5 42 36.5 71t76.5 29q55 0 83 -44.5t22 -106.5q-7 -65 -51.5 -132t-121.5 -109z" />
    <glyph glyph-name="uni0327" unicode="&#x327;" horiz-adv-x="0" 
d="M13 -361l24 74q74 -37 130.5 -41.5t89 14.5t32.5 52q1 32 -27 56t-73.5 41.5t-98.5 29.5l61 201l97 -11l-55 -186l-38 59q94 -18 156.5 -47.5t93.5 -68t31 -84.5q0 -57 -42.5 -92t-108.5 -46.5t-138.5 1t-133.5 48.5z" />
    <glyph glyph-name="uni0328" unicode="&#x328;" horiz-adv-x="0" 
d="M527 -334q-63 -35 -131.5 -53.5t-132.5 -18.5q-102 0 -166 46.5t-64 129.5q0 76 58 147.5t173 116.5l136 -39q-108 -41 -171 -88t-63 -103q0 -42 34.5 -60.5t81.5 -18.5q44 0 91.5 15t107.5 48z" />
    <glyph glyph-name="dotaccent" unicode="&#x2d9;" horiz-adv-x="391" 
d="M349 1219q-47 0 -75 32.5t-23 80.5q3 46 37.5 82t88.5 36q42 0 70 -31t24 -82q-6 -55 -40 -86.5t-82 -31.5z" />
    <glyph glyph-name="hungarumlaut" unicode="&#x2dd;" horiz-adv-x="587" 
d="M607 1100l-100 17l31 330l141 -28zM356 1111l-103 13l15 335l143 -23z" />
    <glyph glyph-name="caron" unicode="&#x2c7;" horiz-adv-x="867" 
d="M863 1545l101 -97l-377 -317l-320 317l122 97l216 -209z" />
    <glyph glyph-name="breve" unicode="&#x2d8;" horiz-adv-x="761" 
d="M520 1156q-135 0 -204 76.5t-51 203.5h154q-10 -73 22.5 -112.5t97.5 -39.5t108 39.5t53 112.5h154q-14 -129 -105 -204.5t-229 -75.5z" />
    <glyph glyph-name="ring" unicode="&#x2da;" horiz-adv-x="609" 
d="M466 1090q-60 0 -109 30t-78.5 79.5t-29.5 107.5q0 60 29.5 109.5t78.5 78.5t109 29t109 -29t78.5 -78.5t29.5 -109.5q0 -58 -29.5 -107.5t-78.5 -79.5t-109 -30zM466 1223q35 0 60 24.5t25 59.5q0 37 -25 61.5t-60 24.5t-60 -24.5t-25 -61.5q0 -35 25 -59.5t60 -24.5z
" />
    <glyph glyph-name="macron" unicode="&#xaf;" horiz-adv-x="828" 
d="M252 1326h654l-24 -158h-654z" />
    <glyph glyph-name="cedilla" unicode="&#xb8;" horiz-adv-x="582" 
d="M13 -361l24 74q74 -37 130.5 -41.5t89 14.5t32.5 52q1 32 -27 56t-73.5 41.5t-98.5 29.5l61 201l97 -11l-55 -186l-38 59q94 -18 156.5 -47.5t93.5 -68t31 -84.5q0 -57 -42.5 -92t-108.5 -46.5t-138.5 1t-133.5 48.5z" />
    <glyph glyph-name="ogonek" unicode="&#x2db;" horiz-adv-x="682" 
d="M527 -334q-63 -35 -131.5 -53.5t-132.5 -18.5q-102 0 -166 46.5t-64 129.5q0 76 58 147.5t173 116.5l136 -39q-108 -41 -171 -88t-63 -103q0 -42 34.5 -60.5t81.5 -18.5q44 0 91.5 15t107.5 48z" />
    <glyph glyph-name="uni02BC" unicode="&#x2bc;" horiz-adv-x="378" 
d="M269 804l-123 73q58 30 102.5 69.5t62.5 91.5q-44 8 -73 38.5t-25 81.5q6 51 44 86.5t93 35.5q68 0 102.5 -53.5t26.5 -130.5q-5 -54 -31.5 -109t-71.5 -103t-107 -80z" />
    </font>
</defs>
</svg>
