<?xml version="1.0" standalone="no"?>
<!DOCTYPE svg PUBLIC "-//W3C//DTD SVG 1.1//EN" "http://www.w3.org/Graphics/SVG/1.1/DTD/svg11.dtd" >
<svg xmlns="http://www.w3.org/2000/svg" xmlns:xlink="http://www.w3.org/1999/xlink" version="1.1">
<metadata>
Created by FontForge 20230101 at Fri Mar 25 09:43:38 2022
 By Glenn Lewis
Copyright 2010 The Crimson Text Project Authors (https://github.com/googlefonts/Crimson)
</metadata>
<defs>
<font id="CrimsonText-BoldItalic" horiz-adv-x="0" >
  <font-face 
    font-family="Crimson Text"
    font-weight="700"
    font-style="italic"
    font-stretch="normal"
    units-per-em="1024"
    panose-1="0 0 0 0 0 0 0 0 0 0"
    ascent="819"
    descent="-205"
    x-height="449"
    cap-height="662"
    bbox="-173 -255 1415 1078"
    underline-thickness="50"
    underline-position="-125"
    slope="-11"
    unicode-range="U+000D-FB02"
  />
<missing-glyph horiz-adv-x="374" 
d="M34 682h272v-682h-272v682zM272 34v614h-204v-614h204z" />
    <glyph glyph-name="f_f" unicode="ff" horiz-adv-x="691" 
d="M-83 -218q-36 0 -61 12.5t-29 26.5q0 87 56 87q16 0 24.5 -10.5t14 -25t13.5 -25t23 -10.5q36 0 57 45.5t35 119.5l71 361q1 7 -4 7h-59q-5 0 -5 10q0 8 8.5 19.5t22 20.5t26.5 9h15q6 0 8 4t3 12q15 75 55 129t97.5 83.5t123.5 29.5q55 0 121 -51q70 59 167 59
q65 0 93 -33q0 -100 -59 -100q-17 0 -25 12t-13 27t-13 27t-24 12q-21 0 -46 -25.5t-44.5 -63.5t-26.5 -77l-7 -38q-1 -8 3 -8h128q10 0 10 -15q0 -18 -14 -43h-133q-5 0 -7 -6l-54 -277q-16 -82 -50.5 -136.5t-77.5 -86.5t-85.5 -45.5t-74.5 -13.5q-30 0 -62 10.5t-50 26.5
q-9 -12 -35.5 -26t-58 -24t-57.5 -10zM254 429h158q6 0 9 16q4 24 12 45t14.5 35.5t6.5 16.5q0 32 -16 61t-56 29q-26 0 -52.5 -23t-46 -59t-26.5 -76l-7 -41v-1q0 -3 4 -3zM232 -140q75 0 108 169l66 334q1 7 -4 7h-158q-5 0 -7 -6l-58 -304q-15 -77 -52 -142
q6 -12 23 -25.5t39.5 -23t42.5 -9.5z" />
    <glyph glyph-name="f_f_i" unicode="ffi" horiz-adv-x="882" 
d="M-83 -218q-36 0 -61 12.5t-29 26.5q0 87 56 87q16 0 24.5 -10.5t14 -25t13.5 -25t23 -10.5q36 0 57 45.5t35 119.5l71 363q2 5 -4 5h-59q-5 0 -5 10q0 8 8.5 19.5t22 20.5t26.5 9h17q6 0 9 16q15 75 55 129t98.5 83.5t125.5 29.5q52 0 118 -51q70 59 166 59
q115 0 154 -67q0 -44 -16 -66t-42 -22q-20 0 -28.5 10.5t-13.5 25.5q-10 26 -28 45t-51 19q-28 0 -56 -25.5t-48.5 -63.5t-27.5 -77l-7 -42q0 -4 3 -4l111 1l80 5q37 2 56 3t21 1q4 0 8.5 -8.5t8.5 -18.5t4 -15q0 -14 -3.5 -36.5t-7.5 -42.5t-6 -28q-12 -62 -18.5 -97.5
t-10 -53t-4 -25.5t-0.5 -14q0 -18 10 -18t25 10t29 23t19 20q3 0 11 -10t8 -14q-6 -13 -25.5 -33t-46 -39.5t-54 -32.5t-48.5 -13q-22 0 -37.5 14.5t-15.5 42.5q0 8 2 23.5t4.5 30.5t3.5 20l36 189q1 3 1.5 7t0.5 9q0 42 -55 42h-116q-5 0 -7 -6l-54 -277
q-15 -77 -50 -135.5t-79 -88.5q-43 -30 -83.5 -44t-75.5 -14q-30 0 -62 10.5t-50 26.5q-9 -12 -35.5 -26t-58 -24t-57.5 -10zM254 429h158q6 0 9 16q10 50 27 83q6 12 6 18q0 20 -7 39.5t-23 33t-44 13.5q-25 0 -51 -23t-45.5 -59t-26.5 -76l-7 -41v-1q0 -3 4 -3zM232 -140
q75 0 108 169l66 336q2 5 -4 5h-158q-5 0 -7 -6l-58 -304q-15 -77 -52 -142q6 -12 23 -25.5t39.5 -23t42.5 -9.5z" />
    <glyph glyph-name="f_f_l" unicode="ffl" horiz-adv-x="907" 
d="M-173 -179q0 87 56 87q16 0 24.5 -10.5t14 -25t13.5 -25t23 -10.5q36 0 57 45.5t35 119.5l71 361v2q0 5 -4 5h-59q-5 0 -5 10q0 8 8.5 19.5t22 20.5t26.5 9h17q6 0 9 16q15 75 55 129t97 83.5t122 29.5q57 0 123 -51q70 59 166 59q29 0 57.5 -6.5t42.5 -6.5q54 0 87 13
q3 0 6 -6.5t3 -10.5q-9 -19 -16.5 -42.5t-12.5 -51.5l-89 -456q-1 -5 -1.5 -10.5t-0.5 -12.5q0 -24 10 -24t25 10t29 23t19 20q3 0 11 -10t8 -14q-5 -13 -24.5 -33t-46 -39.5t-54.5 -32.5t-49 -13q-22 0 -37.5 14.5t-15.5 42.5q0 11 5 40.5t9 50.5l78 404q4 17 4 31
q0 27 -18 46t-50 19q-31 0 -59 -23.5t-48.5 -61t-27.5 -80.5l-7 -42q0 -4 3 -4h128q10 0 10 -15q0 -19 -14 -44h-133q-5 0 -7 -6l-55 -277q-13 -63 -39 -113.5t-57 -81.5q-43 -43 -94 -65t-98 -22q-30 0 -62 10.5t-50 26.5q-9 -12 -35.5 -26t-58 -24t-57.5 -10
q-36 0 -61 12.5t-29 26.5zM250 436q-1 -7 4 -7h158q6 0 9 16q7 36 20 65t13 32q0 20 -6.5 40.5t-22.5 35t-45 14.5q-25 0 -50.5 -23t-45 -59t-27.5 -76zM127 -82q6 -12 23 -25.5t39.5 -23t42.5 -9.5q75 0 108 169l66 336q0 5 -4 5h-158q-5 0 -7 -6l-58 -304
q-15 -77 -52 -142z" />
    <glyph glyph-name="fi" unicode="fi" horiz-adv-x="596" 
d="M412 695q55 0 95 -17q41 -17 59 -50q0 -88 -69 -88q-14 0 -21.5 13t-13.5 30.5t-18 30.5q-23 26 -69 26q-22 0 -46.5 -23.5t-43.5 -61t-27 -80.5l-7 -41v-1q0 -4 3 -4h108l80 5q37 2 56.5 3t20.5 1q5 0 13 -13t8 -33q0 -7 -2.5 -23t-5 -30.5t-3.5 -20.5l-16 -85
q-10 -54 -15 -79.5t-6 -35.5t-1 -19q0 -18 10 -18t25 10t29 23t19 20q3 0 11 -10t8 -14q-6 -13 -25.5 -33t-46 -39.5t-54 -32.5t-48.5 -13q-22 0 -37.5 14.5t-15.5 42.5q0 8 2 23.5t4.5 30.5t3.5 20l37 189q1 3 1.5 7t0.5 9q0 42 -57 42h-113q-5 0 -7 -6l-59 -304
q-15 -78 -46.5 -135.5t-69.5 -87.5q-38 -29 -74.5 -42t-71.5 -13q-36 0 -61 12.5t-29 26.5q0 87 56 87q16 0 24.5 -10.5t14 -25t13.5 -25t23 -10.5q36 0 56.5 45.5t35.5 119.5l71 356q2 12 -3 12h-59q-5 0 -5 10q0 8 8.5 19.5t22 21t26.5 9.5h17q6 0 9 16q15 76 54.5 131.5
t97 86.5t123.5 31z" />
    <glyph glyph-name="fl" unicode="fl" horiz-adv-x="622" 
d="M457 544q2 10 3 18t1 13q0 27 -19 46t-60 19q-27 0 -53 -23.5t-44.5 -61t-26.5 -80.5l-7 -42q0 -4 3 -4h128q10 0 10 -15q0 -19 -14 -44h-133q-5 0 -7 -6l-59 -304q-15 -78 -46.5 -135.5t-69.5 -87.5q-38 -29 -74.5 -42t-71.5 -13q-36 0 -61 12.5t-29 26.5q0 87 56 87
q16 0 24.5 -10.5t14 -25t13.5 -25t23 -10.5q36 0 56.5 45.5t35.5 119.5l72 363q0 5 -4 5h-59q-5 0 -5 10q0 8 8.5 19.5t22 21t26.5 9.5h17q6 0 9 16q15 76 54.5 131.5t97 86.5t123.5 31q31 0 56.5 -6.5t41.5 -6.5q60 0 86 13h5q3 0 6 -6.5t3 -10.5q-9 -19 -16.5 -42.5
t-12.5 -51.5l-89 -456q-1 -5 -1.5 -10.5t-0.5 -12.5q0 -24 10 -24t25 10t29 23t19 20q3 0 11 -10t8 -14q-5 -13 -24.5 -33t-46 -39.5t-54.5 -32.5t-49 -13q-22 0 -37.5 14.5t-15.5 42.5q0 11 5 40.5t9 50.5z" />
    <glyph glyph-name=".notdef" horiz-adv-x="374" 
d="M34 682h272v-682h-272v682zM272 34v614h-204v-614h204z" />
    <glyph glyph-name="A" unicode="A" horiz-adv-x="656" 
d="M-32 -4q-1 1 -1 8q0 26 5 26q7 0 25 7t36 16.5t24 17.5q9 14 39 63l296 492q2 4 6 8.5t8 10.5q16 22 28 22q9 0 12 -8l105 -518q2 -13 5.5 -31.5t8.5 -43.5q2 -10 13.5 -18.5t25.5 -13t21 -4.5q2 0 2 -5q0 -21 -7 -29l-50 3q-24 2 -42 3t-30 1q-10 0 -44.5 -1.5
t-93.5 -5.5q-1 1 -1 7q0 18 5 24t13.5 7.5t18.5 4t19 13.5q5 5 6.5 9t1.5 8q0 5 -5.5 39.5t-16.5 98.5q0 4 -6 4q-18 1 -40.5 1.5t-50.5 0.5h-47t-38 -1q-3 0 -9.5 -2t-7.5 -3l-45 -76q-40 -60 -28.5 -80.5t60.5 -20.5q2 0 2 -4q0 -18 -5 -30q-4 1 -25.5 2.5t-44 3
t-30.5 1.5q-6 0 -22.5 -1t-36.5 -2t-36.5 -2.5t-22.5 -1.5zM316 273q19 0 36 0.5t31 1.5q4 0 4 5l-32 178l-108 -178q-1 -1 -0.5 -2.5t1.5 -1.5q27 -3 68 -3z" />
    <glyph glyph-name="Aacute" unicode="&#xc1;" horiz-adv-x="656" 
d="M-32 -4q-1 1 -1 8q0 26 5 26q7 0 25 7t36 16.5t24 17.5q9 14 39 63l296 492q2 4 6 8.5t8 10.5q16 22 28 22q9 0 12 -8l105 -518q2 -13 5.5 -31.5t8.5 -43.5q2 -10 13.5 -18.5t25.5 -13t21 -4.5q2 0 2 -5q0 -21 -7 -29l-50 3q-24 2 -42 3t-30 1q-10 0 -44.5 -1.5
t-93.5 -5.5q-1 1 -1 7q0 18 5 24t13.5 7.5t18.5 4t19 13.5q5 5 6.5 9t1.5 8q0 5 -5.5 39.5t-16.5 98.5q0 4 -6 4q-18 1 -40.5 1.5t-50.5 0.5h-47t-38 -1q-3 0 -9.5 -2t-7.5 -3l-45 -76q-40 -60 -28.5 -80.5t60.5 -20.5q2 0 2 -4q0 -18 -5 -30q-4 1 -25.5 2.5t-44 3
t-30.5 1.5q-6 0 -22.5 -1t-36.5 -2t-36.5 -2.5t-22.5 -1.5zM316 273q19 0 36 0.5t31 1.5q4 0 4 5l-32 178l-108 -178q-1 -1 -0.5 -2.5t1.5 -1.5q27 -3 68 -3zM399 715q-5 0 -9.5 7t-4.5 12q0 4 14 17t33.5 28.5t37.5 28.5t26 17q14 8 32 8q24 0 47 -9t23 -29
q0 -7 -17.5 -17.5t-44.5 -21t-55.5 -20t-51 -15.5t-30.5 -6z" />
    <glyph glyph-name="Abreve" unicode="&#x102;" horiz-adv-x="656" 
d="M-32 -4q-1 1 -1 8q0 26 5 26q7 0 25 7t36 16.5t24 17.5q9 14 39 63l296 492q2 4 6 8.5t8 10.5q16 22 28 22q9 0 12 -8l105 -518q2 -13 5.5 -31.5t8.5 -43.5q2 -10 13.5 -18.5t25.5 -13t21 -4.5q2 0 2 -5q0 -21 -7 -29l-50 3q-24 2 -42 3t-30 1q-10 0 -44.5 -1.5
t-93.5 -5.5q-1 1 -1 7q0 18 5 24t13.5 7.5t18.5 4t19 13.5q5 5 6.5 9t1.5 8q0 5 -5.5 39.5t-16.5 98.5q0 4 -6 4q-18 1 -40.5 1.5t-50.5 0.5h-47t-38 -1q-3 0 -9.5 -2t-7.5 -3l-45 -76q-40 -60 -28.5 -80.5t60.5 -20.5q2 0 2 -4q0 -18 -5 -30q-4 1 -25.5 2.5t-44 3
t-30.5 1.5q-6 0 -22.5 -1t-36.5 -2t-36.5 -2.5t-22.5 -1.5zM316 273q19 0 36 0.5t31 1.5q4 0 4 5l-32 178l-108 -178q-1 -1 -0.5 -2.5t1.5 -1.5q27 -3 68 -3zM443 728q-60 0 -86 72q-4 8 7 20.5t19 15.5q2 2 4 -2q11 -22 28.5 -33.5t38.5 -11.5q46 0 86 45q1 4 5 2t11 -13
t5 -16l-2 -3l-2 -4q-54 -72 -114 -72z" />
    <glyph glyph-name="uni1EAE" unicode="&#x1eae;" horiz-adv-x="656" 
d="M-32 -4q-1 1 -1 8q0 26 5 26q7 0 25 7t36 16.5t24 17.5q9 14 39 63l296 492q2 4 6 8.5t8 10.5q16 22 28 22q9 0 12 -8l105 -518q2 -13 5.5 -31.5t8.5 -43.5q2 -10 13.5 -18.5t25.5 -13t21 -4.5q2 0 2 -5q0 -21 -7 -29l-50 3q-24 2 -42 3t-30 1q-10 0 -44.5 -1.5
t-93.5 -5.5q-1 1 -1 7q0 18 5 24t13.5 7.5t18.5 4t19 13.5q5 5 6.5 9t1.5 8q0 5 -5.5 39.5t-16.5 98.5q0 4 -6 4q-18 1 -40.5 1.5t-50.5 0.5h-47t-38 -1q-3 0 -9.5 -2t-7.5 -3l-45 -76q-40 -60 -28.5 -80.5t60.5 -20.5q2 0 2 -4q0 -18 -5 -30q-4 1 -25.5 2.5t-44 3
t-30.5 1.5q-6 0 -22.5 -1t-36.5 -2t-36.5 -2.5t-22.5 -1.5zM316 273q19 0 36 0.5t31 1.5q4 0 4 5l-32 178l-108 -178q-1 -1 -0.5 -2.5t1.5 -1.5q27 -3 68 -3zM433 860q1 3 16 16.5t38 32.5t47.5 37.5t43.5 30.5q7 4 19 4q18 0 35 -9.5t12 -28.5q-2 -10 -20.5 -23t-45.5 -27
t-55.5 -26t-50.5 -19.5t-29 -7.5q-5 0 -8 7.5t-2 12.5zM379 837q9 -17 30.5 -31.5t42.5 -14.5t48.5 14t43.5 30q3 7 6 4q5 -2 11.5 -13t4.5 -16q0 -2 -1 -3.5t-2 -3.5q-28 -34 -60 -53t-64 -19q-63 0 -92 72q-1 1 -1 7q1 5 12.5 16t15.5 13q3 1 5 -2z" />
    <glyph glyph-name="uni1EB6" unicode="&#x1eb6;" horiz-adv-x="656" 
d="M-32 -4q-1 1 -1 8q0 26 5 26q7 0 25 7t36 16.5t24 17.5q9 14 39 63l296 492q2 4 6 8.5t8 10.5q16 22 28 22q9 0 12 -8l105 -518q2 -13 5.5 -31.5t8.5 -43.5q2 -10 13.5 -18.5t25.5 -13t21 -4.5q2 0 2 -5q0 -21 -7 -29l-50 3q-24 2 -42 3t-30 1q-10 0 -44.5 -1.5
t-93.5 -5.5q-1 1 -1 7q0 18 5 24t13.5 7.5t18.5 4t19 13.5q5 5 6.5 9t1.5 8q0 5 -5.5 39.5t-16.5 98.5q0 4 -6 4q-18 1 -40.5 1.5t-50.5 0.5h-47t-38 -1q-3 0 -9.5 -2t-7.5 -3l-45 -76q-40 -60 -28.5 -80.5t60.5 -20.5q2 0 2 -4q0 -18 -5 -30q-4 1 -25.5 2.5t-44 3
t-30.5 1.5q-6 0 -22.5 -1t-36.5 -2t-36.5 -2.5t-22.5 -1.5zM316 273q19 0 36 0.5t31 1.5q4 0 4 5l-32 178l-108 -178q-1 -1 -0.5 -2.5t1.5 -1.5q27 -3 68 -3zM297 -193q-28 0 -42 17.5t-14 40.5q0 21 10 41.5t29 34t45 13.5q29 0 42.5 -17.5t13.5 -40.5q0 -20 -10 -41
t-28.5 -34.5t-45.5 -13.5zM443 728q-60 0 -86 72q-4 8 7 20.5t19 15.5q2 2 4 -2q11 -22 28.5 -33.5t38.5 -11.5q46 0 86 45q1 4 5 2t11 -13t5 -16l-2 -3l-2 -4q-54 -72 -114 -72z" />
    <glyph glyph-name="uni1EB0" unicode="&#x1eb0;" horiz-adv-x="656" 
d="M-32 -4q-1 1 -1 8q0 26 5 26q7 0 25 7t36 16.5t24 17.5q9 14 39 63l296 492q2 4 6 8.5t8 10.5q16 22 28 22q9 0 12 -8l105 -518q2 -13 5.5 -31.5t8.5 -43.5q2 -10 13.5 -18.5t25.5 -13t21 -4.5q2 0 2 -5q0 -21 -7 -29l-50 3q-24 2 -42 3t-30 1q-10 0 -44.5 -1.5
t-93.5 -5.5q-1 1 -1 7q0 18 5 24t13.5 7.5t18.5 4t19 13.5q5 5 6.5 9t1.5 8q0 5 -5.5 39.5t-16.5 98.5q0 4 -6 4q-18 1 -40.5 1.5t-50.5 0.5h-47t-38 -1q-3 0 -9.5 -2t-7.5 -3l-45 -76q-40 -60 -28.5 -80.5t60.5 -20.5q2 0 2 -4q0 -18 -5 -30q-4 1 -25.5 2.5t-44 3
t-30.5 1.5q-6 0 -22.5 -1t-36.5 -2t-36.5 -2.5t-22.5 -1.5zM316 273q19 0 36 0.5t31 1.5q4 0 4 5l-32 178l-108 -178q-1 -1 -0.5 -2.5t1.5 -1.5q27 -3 68 -3zM514 860q-1 -5 -7 -12.5t-11 -7.5q-7 0 -26 7.5t-42 19.5t-44.5 26t-35 27t-11.5 23q5 19 26 28.5t39 9.5
q10 0 17 -4q14 -12 30.5 -30.5t31.5 -37.5t24.5 -32.5t8.5 -16.5zM382 837q9 -17 30.5 -31.5t42.5 -14.5t48.5 14t43.5 30q3 7 6 4q5 -2 11.5 -13t4.5 -16q0 -2 -1 -3.5t-2 -3.5q-28 -34 -60 -53t-64 -19q-63 0 -92 72q-1 1 -1 7q1 5 12.5 16t15.5 13q3 1 5 -2z" />
    <glyph glyph-name="uni1EB2" unicode="&#x1eb2;" horiz-adv-x="656" 
d="M-32 -4q-1 1 -1 8q0 26 5 26q7 0 25 7t36 16.5t24 17.5q9 14 39 63l296 492q2 4 6 8.5t8 10.5q16 22 28 22q9 0 12 -8l105 -518q2 -13 5.5 -31.5t8.5 -43.5q2 -10 13.5 -18.5t25.5 -13t21 -4.5q2 0 2 -5q0 -21 -7 -29l-50 3q-24 2 -42 3t-30 1q-10 0 -44.5 -1.5
t-93.5 -5.5q-1 1 -1 7q0 18 5 24t13.5 7.5t18.5 4t19 13.5q5 5 6.5 9t1.5 8q0 5 -5.5 39.5t-16.5 98.5q0 4 -6 4q-18 1 -40.5 1.5t-50.5 0.5h-47t-38 -1q-3 0 -9.5 -2t-7.5 -3l-45 -76q-40 -60 -28.5 -80.5t60.5 -20.5q2 0 2 -4q0 -18 -5 -30q-4 1 -25.5 2.5t-44 3
t-30.5 1.5q-6 0 -22.5 -1t-36.5 -2t-36.5 -2.5t-22.5 -1.5zM316 273q19 0 36 0.5t31 1.5q4 0 4 5l-32 178l-108 -178q-1 -1 -0.5 -2.5t1.5 -1.5q27 -3 68 -3zM434 836q-8 5 -6 17q6 27 55 49q41 17 45 42q8 30 -18 30q-33 0 -41 -36q-4 -22 -44 -22q-7 0 -13 4.5t-5 12.5
q8 36 44 57.5t77 21.5q30 0 46 -16.5t11 -41.5q-12 -53 -67 -74q-34 -13 -40 -21q-2 -4 -2 -6q-1 -3 -1 -8q0 -2 -15.5 -5.5t-25.5 -3.5zM379 837q9 -17 30.5 -31.5t42.5 -14.5t48.5 14t42.5 30q4 5 7 4q4 -2 11 -13t5 -16q-1 -4 -4 -7q-27 -34 -59 -53t-64 -19
q-64 0 -93 72v7q0 5 11.5 16t16.5 13q3 2 5 -2z" />
    <glyph glyph-name="uni1EB4" unicode="&#x1eb4;" horiz-adv-x="656" 
d="M-32 -4q-1 1 -1 8q0 26 5 26q7 0 25 7t36 16.5t24 17.5q9 14 39 63l296 492q2 4 6 8.5t8 10.5q16 22 28 22q9 0 12 -8l105 -518q2 -13 5.5 -31.5t8.5 -43.5q2 -10 13.5 -18.5t25.5 -13t21 -4.5q2 0 2 -5q0 -21 -7 -29l-50 3q-24 2 -42 3t-30 1q-10 0 -44.5 -1.5
t-93.5 -5.5q-1 1 -1 7q0 18 5 24t13.5 7.5t18.5 4t19 13.5q5 5 6.5 9t1.5 8q0 5 -5.5 39.5t-16.5 98.5q0 4 -6 4q-18 1 -40.5 1.5t-50.5 0.5h-47t-38 -1q-3 0 -9.5 -2t-7.5 -3l-45 -76q-40 -60 -28.5 -80.5t60.5 -20.5q2 0 2 -4q0 -18 -5 -30q-4 1 -25.5 2.5t-44 3
t-30.5 1.5q-6 0 -22.5 -1t-36.5 -2t-36.5 -2.5t-22.5 -1.5zM316 273q19 0 36 0.5t31 1.5q4 0 4 5l-32 178l-108 -178q-1 -1 -0.5 -2.5t1.5 -1.5q27 -3 68 -3zM540 863q-30 0 -72 30t-74 30q-15 0 -40 -25q-28 -26 -31 -26q-7 0 -2 20q3 18 25 44q40 46 81 46q32 0 72 -30
q41 -31 73 -31q17 0 41 26q25 25 30 25q6 0 1 -20q-1 -10 -7.5 -21t-16.5 -24q-38 -44 -80 -44zM382 837q9 -17 30.5 -31.5t42.5 -14.5t48.5 14t42.5 30q4 5 7 4q5 -2 11.5 -13t4.5 -16q-1 -3 -3 -7q-28 -34 -60 -53t-64 -19q-65 0 -92 72q-1 1 -1 7q1 5 12.5 16t15.5 13
q3 2 5 -2z" />
    <glyph glyph-name="uni01CD" unicode="&#x1cd;" horiz-adv-x="656" 
d="M-32 -4q-1 1 -1 8q0 26 5 26q7 0 25 7t36 16.5t24 17.5q9 14 39 63l296 492q2 4 6 8.5t8 10.5q16 22 28 22q9 0 12 -8l105 -518q2 -13 5.5 -31.5t8.5 -43.5q2 -10 13.5 -18.5t25.5 -13t21 -4.5q2 0 2 -5q0 -21 -7 -29l-50 3q-24 2 -42 3t-30 1q-10 0 -44.5 -1.5
t-93.5 -5.5q-1 1 -1 7q0 18 5 24t13.5 7.5t18.5 4t19 13.5q5 5 6.5 9t1.5 8q0 5 -5.5 39.5t-16.5 98.5q0 4 -6 4q-18 1 -40.5 1.5t-50.5 0.5h-47t-38 -1q-3 0 -9.5 -2t-7.5 -3l-45 -76q-40 -60 -28.5 -80.5t60.5 -20.5q2 0 2 -4q0 -18 -5 -30q-4 1 -25.5 2.5t-44 3
t-30.5 1.5q-6 0 -22.5 -1t-36.5 -2t-36.5 -2.5t-22.5 -1.5zM316 273q19 0 36 0.5t31 1.5q4 0 4 5l-32 178l-108 -178q-1 -1 -0.5 -2.5t1.5 -1.5q27 -3 68 -3zM440 728q-5 0 -10 9q-5 11 -13 22.5t-18 24.5q-17 23 -30.5 39.5t-24.5 26.5q5 17 17 18t28 -9t34 -24.5t34 -27.5
q19 12 45.5 26.5t49.5 25t28 10.5q10 0 6 -19q-12 -8 -33.5 -25t-50.5 -45l-46 -43q-10 -9 -16 -9z" />
    <glyph glyph-name="Acircumflex" unicode="&#xc2;" horiz-adv-x="656" 
d="M-32 -4q-1 1 -1 8q0 26 5 26q7 0 25 7t36 16.5t24 17.5q9 14 39 63l296 492q2 4 6 8.5t8 10.5q16 22 28 22q9 0 12 -8l105 -518q2 -13 5.5 -31.5t8.5 -43.5q2 -10 13.5 -18.5t25.5 -13t21 -4.5q2 0 2 -5q0 -21 -7 -29l-50 3q-24 2 -42 3t-30 1q-10 0 -44.5 -1.5
t-93.5 -5.5q-1 1 -1 7q0 18 5 24t13.5 7.5t18.5 4t19 13.5q5 5 6.5 9t1.5 8q0 5 -5.5 39.5t-16.5 98.5q0 4 -6 4q-18 1 -40.5 1.5t-50.5 0.5h-47t-38 -1q-3 0 -9.5 -2t-7.5 -3l-45 -76q-40 -60 -28.5 -80.5t60.5 -20.5q2 0 2 -4q0 -18 -5 -30q-4 1 -25.5 2.5t-44 3
t-30.5 1.5q-6 0 -22.5 -1t-36.5 -2t-36.5 -2.5t-22.5 -1.5zM316 273q19 0 36 0.5t31 1.5q4 0 4 5l-32 178l-108 -178q-1 -1 -0.5 -2.5t1.5 -1.5q27 -3 68 -3zM316 727q-11 0 -7 19q16 10 39 26t53 39q17 14 31 26t24 22q11 9 16 9q4 0 13 -9l33 -44q20 -24 36 -41t28 -28
q-4 -19 -15 -19q-5 0 -26.5 10.5t-45.5 25.5t-40 26q-15 -9 -37 -19.5t-44 -20t-38 -16t-20 -6.5z" />
    <glyph glyph-name="uni1EA4" unicode="&#x1ea4;" horiz-adv-x="656" 
d="M-32 -4q-1 1 -1 8q0 26 5 26q7 0 25 7t36 16.5t24 17.5q9 14 39 63l296 492q2 4 6 8.5t8 10.5q16 22 28 22q9 0 12 -8l105 -518q2 -13 5.5 -31.5t8.5 -43.5q2 -10 13.5 -18.5t25.5 -13t21 -4.5q2 0 2 -5q0 -21 -7 -29l-50 3q-24 2 -42 3t-30 1q-10 0 -44.5 -1.5
t-93.5 -5.5q-1 1 -1 7q0 18 5 24t13.5 7.5t18.5 4t19 13.5q5 5 6.5 9t1.5 8q0 5 -5.5 39.5t-16.5 98.5q0 4 -6 4q-18 1 -40.5 1.5t-50.5 0.5h-47t-38 -1q-3 0 -9.5 -2t-7.5 -3l-45 -76q-40 -60 -28.5 -80.5t60.5 -20.5q2 0 2 -4q0 -18 -5 -30q-4 1 -25.5 2.5t-44 3
t-30.5 1.5q-6 0 -22.5 -1t-36.5 -2t-36.5 -2.5t-22.5 -1.5zM316 273q19 0 36 0.5t31 1.5q4 0 4 5l-32 178l-108 -178q-1 -1 -0.5 -2.5t1.5 -1.5q27 -3 68 -3zM573 843q-5 0 -8 7.5t-2 12.5q1 3 16 16.5t38 32.5t47.5 37.5t43.5 30.5q8 4 19 4q18 0 35 -9.5t13 -28.5
q-2 -10 -21 -23t-46 -27t-55.5 -26t-50.5 -19.5t-29 -7.5zM320 731q-10 0 -6 19q17 11 38.5 27t48.5 38q13 10 26 22t27 26q9 9 15 9t13 -9l12 -17l10 -14t9 -13q39 -49 61 -69q-4 -19 -14 -19q-5 0 -25.5 10.5t-43.5 25.5t-38 26q-20 -11 -49.5 -26t-53.5 -25.5t-30 -10.5z
" />
    <glyph glyph-name="uni1EAC" unicode="&#x1eac;" horiz-adv-x="656" 
d="M-32 -4q-1 1 -1 8q0 26 5 26q7 0 25 7t36 16.5t24 17.5q9 14 39 63l296 492q2 4 6 8.5t8 10.5q16 22 28 22q9 0 12 -8l105 -518q2 -13 5.5 -31.5t8.5 -43.5q2 -10 13.5 -18.5t25.5 -13t21 -4.5q2 0 2 -5q0 -21 -7 -29l-50 3q-24 2 -42 3t-30 1q-10 0 -44.5 -1.5
t-93.5 -5.5q-1 1 -1 7q0 18 5 24t13.5 7.5t18.5 4t19 13.5q5 5 6.5 9t1.5 8q0 5 -5.5 39.5t-16.5 98.5q0 4 -6 4q-18 1 -40.5 1.5t-50.5 0.5h-47t-38 -1q-3 0 -9.5 -2t-7.5 -3l-45 -76q-40 -60 -28.5 -80.5t60.5 -20.5q2 0 2 -4q0 -18 -5 -30q-4 1 -25.5 2.5t-44 3
t-30.5 1.5q-6 0 -22.5 -1t-36.5 -2t-36.5 -2.5t-22.5 -1.5zM316 273q19 0 36 0.5t31 1.5q4 0 4 5l-32 178l-108 -178q-1 -1 -0.5 -2.5t1.5 -1.5q27 -3 68 -3zM297 -193q-28 0 -42 17.5t-14 40.5q0 21 10 41.5t29 34t45 13.5q29 0 42.5 -17.5t13.5 -40.5q0 -20 -10 -41
t-28.5 -34.5t-45.5 -13.5zM316 727q-11 0 -7 19q16 10 39 26t53 39q17 14 31 26t24 22q11 9 16 9q4 0 13 -9l33 -44q20 -24 36 -41t28 -28q-4 -19 -15 -19q-5 0 -26.5 10.5t-45.5 25.5t-40 26q-15 -9 -37 -19.5t-44 -20t-38 -16t-20 -6.5z" />
    <glyph glyph-name="uni1EA6" unicode="&#x1ea6;" horiz-adv-x="656" 
d="M-32 -4q-1 1 -1 8q0 26 5 26q7 0 25 7t36 16.5t24 17.5q9 14 39 63l296 492q2 4 6 8.5t8 10.5q16 22 28 22q9 0 12 -8l105 -518q2 -13 5.5 -31.5t8.5 -43.5q2 -10 13.5 -18.5t25.5 -13t21 -4.5q2 0 2 -5q0 -21 -7 -29l-50 3q-24 2 -42 3t-30 1q-10 0 -44.5 -1.5
t-93.5 -5.5q-1 1 -1 7q0 18 5 24t13.5 7.5t18.5 4t19 13.5q5 5 6.5 9t1.5 8q0 5 -5.5 39.5t-16.5 98.5q0 4 -6 4q-18 1 -40.5 1.5t-50.5 0.5h-47t-38 -1q-3 0 -9.5 -2t-7.5 -3l-45 -76q-40 -60 -28.5 -80.5t60.5 -20.5q2 0 2 -4q0 -18 -5 -30q-4 1 -25.5 2.5t-44 3
t-30.5 1.5q-6 0 -22.5 -1t-36.5 -2t-36.5 -2.5t-22.5 -1.5zM316 273q19 0 36 0.5t31 1.5q4 0 4 5l-32 178l-108 -178q-1 -1 -0.5 -2.5t1.5 -1.5q27 -3 68 -3zM658 821q-6 0 -28.5 11.5t-47.5 29t-43 35.5t-15 30q2 9 20.5 17.5t31.5 8.5t20.5 -2.5t11.5 -6.5
q25 -18 40.5 -41t23 -41t6.5 -23t-8 -11.5t-12 -6.5zM327 731q-9 0 -6 19q17 11 38.5 27t48.5 38q13 10 26 22t27 26q11 9 15 9q7 0 13 -9l12 -17l10 -14t9 -13q39 -49 61 -69q-3 -19 -14 -19q-5 0 -25 10.5t-43 25.5t-38 26q-20 -11 -49.5 -26t-54 -25.5t-30.5 -10.5z" />
    <glyph glyph-name="uni1EA8" unicode="&#x1ea8;" horiz-adv-x="656" 
d="M-32 -4q-1 1 -1 8q0 26 5 26q7 0 25 7t36 16.5t24 17.5q9 14 39 63l296 492q2 4 6 8.5t8 10.5q16 22 28 22q9 0 12 -8l105 -518q2 -13 5.5 -31.5t8.5 -43.5q2 -10 13.5 -18.5t25.5 -13t21 -4.5q2 0 2 -5q0 -21 -7 -29l-50 3q-24 2 -42 3t-30 1q-10 0 -44.5 -1.5
t-93.5 -5.5q-1 1 -1 7q0 18 5 24t13.5 7.5t18.5 4t19 13.5q5 5 6.5 9t1.5 8q0 5 -5.5 39.5t-16.5 98.5q0 4 -6 4q-18 1 -40.5 1.5t-50.5 0.5h-47t-38 -1q-3 0 -9.5 -2t-7.5 -3l-45 -76q-40 -60 -28.5 -80.5t60.5 -20.5q2 0 2 -4q0 -18 -5 -30q-4 1 -25.5 2.5t-44 3
t-30.5 1.5q-6 0 -22.5 -1t-36.5 -2t-36.5 -2.5t-22.5 -1.5zM316 273q19 0 36 0.5t31 1.5q4 0 4 5l-32 178l-108 -178q-1 -1 -0.5 -2.5t1.5 -1.5q27 -3 68 -3zM316 727q-11 0 -7 19q16 10 39 26t53 39q17 14 31 26t24 22q11 9 16 9q4 0 13 -9l33 -44q20 -24 36 -41t28 -28
q-4 -19 -15 -19q-5 0 -26.5 10.5t-45.5 25.5t-40 26q-15 -9 -37 -19.5t-44 -20t-38 -16t-20 -6.5zM540 833q-9 7 -6 17q5 30 51 49q36 17 42 42q5 30 -17 30q-30 0 -38 -36q-4 -22 -41 -22q-7 0 -12.5 4.5t-4.5 12.5q7 36 40.5 57.5t71.5 21.5q28 0 43 -16.5t10 -41.5
q-5 -26 -22.5 -45.5t-39.5 -28.5q-35 -14 -38 -27v-3q-1 -2 -1 -5q-1 -2 -14.5 -5.5t-23.5 -3.5z" />
    <glyph glyph-name="uni1EAA" unicode="&#x1eaa;" horiz-adv-x="656" 
d="M-32 -4q-1 1 -1 8q0 26 5 26q7 0 25 7t36 16.5t24 17.5q9 14 39 63l296 492q2 4 6 8.5t8 10.5q16 22 28 22q9 0 12 -8l105 -518q2 -13 5.5 -31.5t8.5 -43.5q2 -10 13.5 -18.5t25.5 -13t21 -4.5q2 0 2 -5q0 -21 -7 -29l-50 3q-24 2 -42 3t-30 1q-10 0 -44.5 -1.5
t-93.5 -5.5q-1 1 -1 7q0 18 5 24t13.5 7.5t18.5 4t19 13.5q5 5 6.5 9t1.5 8q0 5 -5.5 39.5t-16.5 98.5q0 4 -6 4q-18 1 -40.5 1.5t-50.5 0.5h-47t-38 -1q-3 0 -9.5 -2t-7.5 -3l-45 -76q-40 -60 -28.5 -80.5t60.5 -20.5q2 0 2 -4q0 -18 -5 -30q-4 1 -25.5 2.5t-44 3
t-30.5 1.5q-6 0 -22.5 -1t-36.5 -2t-36.5 -2.5t-22.5 -1.5zM316 273q19 0 36 0.5t31 1.5q4 0 4 5l-32 178l-108 -178q-1 -1 -0.5 -2.5t1.5 -1.5q27 -3 68 -3zM316 727q-11 0 -7 19q16 10 39 26t53 39q17 14 31 26t24 22q11 9 16 9q4 0 13 -9l33 -44q20 -24 36 -41t28 -28
q-4 -19 -15 -19q-5 0 -26.5 10.5t-45.5 25.5t-40 26q-15 -9 -37 -19.5t-44 -20t-38 -16t-20 -6.5zM585 897q-36 0 -82 34t-83 34q-18 0 -46 -28q-31 -29 -34 -29q-7 0 -3 22q4 25 26 50q45 51 92 51q37 0 83 -34t82 -34q17 0 46 29q27 28 32 28q8 0 4 -22q-4 -25 -27 -51
q-42 -50 -90 -50z" />
    <glyph glyph-name="Adieresis" unicode="&#xc4;" horiz-adv-x="656" 
d="M-32 -4q-1 1 -1 8q0 26 5 26q7 0 25 7t36 16.5t24 17.5q9 14 39 63l296 492q2 4 6 8.5t8 10.5q16 22 28 22q9 0 12 -8l105 -518q2 -13 5.5 -31.5t8.5 -43.5q2 -10 13.5 -18.5t25.5 -13t21 -4.5q2 0 2 -5q0 -21 -7 -29l-50 3q-24 2 -42 3t-30 1q-10 0 -44.5 -1.5
t-93.5 -5.5q-1 1 -1 7q0 18 5 24t13.5 7.5t18.5 4t19 13.5q5 5 6.5 9t1.5 8q0 5 -5.5 39.5t-16.5 98.5q0 4 -6 4q-18 1 -40.5 1.5t-50.5 0.5h-47t-38 -1q-3 0 -9.5 -2t-7.5 -3l-45 -76q-40 -60 -28.5 -80.5t60.5 -20.5q2 0 2 -4q0 -18 -5 -30q-4 1 -25.5 2.5t-44 3
t-30.5 1.5q-6 0 -22.5 -1t-36.5 -2t-36.5 -2.5t-22.5 -1.5zM316 273q19 0 36 0.5t31 1.5q4 0 4 5l-32 178l-108 -178q-1 -1 -0.5 -2.5t1.5 -1.5q27 -3 68 -3zM546 724q-28 0 -42 17.5t-14 41.5q0 21 10 41.5t29 34t45 13.5q29 0 42.5 -17.5t13.5 -41.5q0 -20 -10 -41
t-28.5 -34.5t-45.5 -13.5zM332 724q-28 0 -42 17.5t-14 41.5q0 21 10 41.5t29 34t45 13.5q29 0 42.5 -17.5t13.5 -41.5q0 -20 -10 -41t-28.5 -34.5t-45.5 -13.5z" />
    <glyph glyph-name="uni1EA0" unicode="&#x1ea0;" horiz-adv-x="656" 
d="M-32 -4q-1 1 -1 8q0 26 5 26q7 0 25 7t36 16.5t24 17.5q9 14 39 63l296 492q2 4 6 8.5t8 10.5q16 22 28 22q9 0 12 -8l105 -518q2 -13 5.5 -31.5t8.5 -43.5q2 -10 13.5 -18.5t25.5 -13t21 -4.5q2 0 2 -5q0 -21 -7 -29l-50 3q-24 2 -42 3t-30 1q-10 0 -44.5 -1.5
t-93.5 -5.5q-1 1 -1 7q0 18 5 24t13.5 7.5t18.5 4t19 13.5q5 5 6.5 9t1.5 8q0 5 -5.5 39.5t-16.5 98.5q0 4 -6 4q-18 1 -40.5 1.5t-50.5 0.5h-47t-38 -1q-3 0 -9.5 -2t-7.5 -3l-45 -76q-40 -60 -28.5 -80.5t60.5 -20.5q2 0 2 -4q0 -18 -5 -30q-4 1 -25.5 2.5t-44 3
t-30.5 1.5q-6 0 -22.5 -1t-36.5 -2t-36.5 -2.5t-22.5 -1.5zM316 273q19 0 36 0.5t31 1.5q4 0 4 5l-32 178l-108 -178q-1 -1 -0.5 -2.5t1.5 -1.5q27 -3 68 -3zM297 -193q-28 0 -42 17.5t-14 40.5q0 21 10 41.5t29 34t45 13.5q29 0 42.5 -17.5t13.5 -40.5q0 -20 -10 -41
t-28.5 -34.5t-45.5 -13.5z" />
    <glyph glyph-name="Agrave" unicode="&#xc0;" horiz-adv-x="656" 
d="M-32 -4q-1 1 -1 8q0 26 5 26q7 0 25 7t36 16.5t24 17.5q9 14 39 63l296 492q2 4 6 8.5t8 10.5q16 22 28 22q9 0 12 -8l105 -518q2 -13 5.5 -31.5t8.5 -43.5q2 -10 13.5 -18.5t25.5 -13t21 -4.5q2 0 2 -5q0 -21 -7 -29l-50 3q-24 2 -42 3t-30 1q-10 0 -44.5 -1.5
t-93.5 -5.5q-1 1 -1 7q0 18 5 24t13.5 7.5t18.5 4t19 13.5q5 5 6.5 9t1.5 8q0 5 -5.5 39.5t-16.5 98.5q0 4 -6 4q-18 1 -40.5 1.5t-50.5 0.5h-47t-38 -1q-3 0 -9.5 -2t-7.5 -3l-45 -76q-40 -60 -28.5 -80.5t60.5 -20.5q2 0 2 -4q0 -18 -5 -30q-4 1 -25.5 2.5t-44 3
t-30.5 1.5q-6 0 -22.5 -1t-36.5 -2t-36.5 -2.5t-22.5 -1.5zM316 273q19 0 36 0.5t31 1.5q4 0 4 5l-32 178l-108 -178q-1 -1 -0.5 -2.5t1.5 -1.5q27 -3 68 -3zM538 716q-8 0 -30.5 6t-51 15.5t-55.5 20t-44.5 21t-17.5 17.5q0 20 23 29t47 9q20 0 32 -8q8 -4 26 -17
t37.5 -28.5t33.5 -28t14 -17.5q0 -4 -4.5 -11.5t-9.5 -7.5z" />
    <glyph glyph-name="uni1EA2" unicode="&#x1ea2;" horiz-adv-x="656" 
d="M-32 -4q-1 1 -1 8q0 26 5 26q7 0 25 7t36 16.5t24 17.5q9 14 39 63l296 492q2 4 6 8.5t8 10.5q16 22 28 22q9 0 12 -8l105 -518q2 -13 5.5 -31.5t8.5 -43.5q2 -10 13.5 -18.5t25.5 -13t21 -4.5q2 0 2 -5q0 -21 -7 -29l-50 3q-24 2 -42 3t-30 1q-10 0 -44.5 -1.5
t-93.5 -5.5q-1 1 -1 7q0 18 5 24t13.5 7.5t18.5 4t19 13.5q5 5 6.5 9t1.5 8q0 5 -5.5 39.5t-16.5 98.5q0 4 -6 4q-18 1 -40.5 1.5t-50.5 0.5h-47t-38 -1q-3 0 -9.5 -2t-7.5 -3l-45 -76q-40 -60 -28.5 -80.5t60.5 -20.5q2 0 2 -4q0 -18 -5 -30q-4 1 -25.5 2.5t-44 3
t-30.5 1.5q-6 0 -22.5 -1t-36.5 -2t-36.5 -2.5t-22.5 -1.5zM316 273q19 0 36 0.5t31 1.5q4 0 4 5l-32 178l-108 -178q-1 -1 -0.5 -2.5t1.5 -1.5q27 -3 68 -3zM418 726q-9 7 -6 17q5 30 51 49q36 17 42 42q5 30 -17 30q-30 0 -38 -36q-4 -22 -41 -22q-7 0 -12.5 4.5
t-4.5 12.5q7 36 40.5 57.5t71.5 21.5q28 0 43 -16.5t10 -41.5q-5 -26 -22.5 -45.5t-39.5 -28.5q-35 -14 -38 -27v-3q-1 -2 -1 -5q-1 -2 -14.5 -5.5t-23.5 -3.5z" />
    <glyph glyph-name="Amacron" unicode="&#x100;" horiz-adv-x="656" 
d="M-32 -4q-1 1 -1 8q0 26 5 26q7 0 25 7t36 16.5t24 17.5q9 14 39 63l296 492q2 4 6 8.5t8 10.5q16 22 28 22q9 0 12 -8l105 -518q2 -13 5.5 -31.5t8.5 -43.5q2 -10 13.5 -18.5t25.5 -13t21 -4.5q2 0 2 -5q0 -21 -7 -29l-50 3q-24 2 -42 3t-30 1q-10 0 -44.5 -1.5
t-93.5 -5.5q-1 1 -1 7q0 18 5 24t13.5 7.5t18.5 4t19 13.5q5 5 6.5 9t1.5 8q0 5 -5.5 39.5t-16.5 98.5q0 4 -6 4q-18 1 -40.5 1.5t-50.5 0.5h-47t-38 -1q-3 0 -9.5 -2t-7.5 -3l-45 -76q-40 -60 -28.5 -80.5t60.5 -20.5q2 0 2 -4q0 -18 -5 -30q-4 1 -25.5 2.5t-44 3
t-30.5 1.5q-6 0 -22.5 -1t-36.5 -2t-36.5 -2.5t-22.5 -1.5zM316 273q19 0 36 0.5t31 1.5q4 0 4 5l-32 178l-108 -178q-1 -1 -0.5 -2.5t1.5 -1.5q27 -3 68 -3zM297 739q13 58 25 58h267q7 0 4 -10q-2 -11 -5 -20t-6 -16t-6 -13t-8 -10h-268q-7 0 -3 11z" />
    <glyph glyph-name="Aogonek" unicode="&#x104;" horiz-adv-x="656" 
d="M-32 -4q-1 1 -1 8q0 26 5 26q7 0 25 7t36 16.5t24 17.5q9 14 39 63l296 492q2 4 6 8.5t8 10.5q16 22 28 22q9 0 12 -8l105 -518q2 -13 5.5 -31.5t8.5 -43.5q2 -10 13.5 -18.5t25.5 -13t21 -4.5q2 0 2 -5q0 -21 -7 -29l-50 3q-24 2 -42 3t-30 1q-10 0 -44.5 -1.5
t-93.5 -5.5q-1 1 -1 7q0 18 5 24t13.5 7.5t18.5 4t19 13.5q5 5 6.5 9t1.5 8q0 5 -5.5 39.5t-16.5 98.5q0 4 -6 4q-18 1 -40.5 1.5t-50.5 0.5h-47t-38 -1q-3 0 -9.5 -2t-7.5 -3l-45 -76q-40 -60 -28.5 -80.5t60.5 -20.5q2 0 2 -4q0 -18 -5 -30q-4 1 -25.5 2.5t-44 3
t-30.5 1.5q-6 0 -22.5 -1t-36.5 -2t-36.5 -2.5t-22.5 -1.5zM316 273q19 0 36 0.5t31 1.5q4 0 4 5l-32 178l-108 -178q-1 -1 -0.5 -2.5t1.5 -1.5q27 -3 68 -3zM418 -214q-23 0 -40 17t-17 43q0 20 12.5 44.5t32.5 49t41 42t37 22.5l89 -4q-19 0 -42.5 -11.5t-44.5 -30
t-35 -38.5t-14 -38q0 -9 7 -16.5t21 -7.5q13 0 30 7t31 13.5t16 6.5q4 0 3 -8t-3.5 -16.5t-4.5 -10.5q-22 -25 -56 -44.5t-63 -19.5z" />
    <glyph glyph-name="Aring" unicode="&#xc5;" horiz-adv-x="656" 
d="M-32 -4q-1 1 -1 8q0 26 5 26q7 0 25 7t36 16.5t24 17.5q9 14 39 63l296 492q2 4 6 8.5t8 10.5q16 22 28 22q9 0 12 -8l105 -518q2 -13 5.5 -31.5t8.5 -43.5q2 -10 13.5 -18.5t25.5 -13t21 -4.5q2 0 2 -5q0 -21 -7 -29l-50 3q-24 2 -42 3t-30 1q-10 0 -44.5 -1.5
t-93.5 -5.5q-1 1 -1 7q0 18 5 24t13.5 7.5t18.5 4t19 13.5q5 5 6.5 9t1.5 8q0 5 -5.5 39.5t-16.5 98.5q0 4 -6 4q-18 1 -40.5 1.5t-50.5 0.5h-47t-38 -1q-3 0 -9.5 -2t-7.5 -3l-45 -76q-40 -60 -28.5 -80.5t60.5 -20.5q2 0 2 -4q0 -18 -5 -30q-4 1 -25.5 2.5t-44 3
t-30.5 1.5q-6 0 -22.5 -1t-36.5 -2t-36.5 -2.5t-22.5 -1.5zM316 273q19 0 36 0.5t31 1.5q4 0 4 5l-32 178l-108 -178q-1 -1 -0.5 -2.5t1.5 -1.5q27 -3 68 -3zM440 655q-36 0 -61 23.5t-25 63.5q0 30 16 55t41.5 40t53.5 15q35 0 59.5 -24.5t24.5 -60.5q0 -48 -31.5 -80
t-77.5 -32zM446 701q23 0 39 17.5t16 42.5q0 20 -11 32.5t-31 12.5q-22 0 -39 -18t-17 -41q0 -20 12 -33t31 -13z" />
    <glyph glyph-name="uni1E00" unicode="&#x1e00;" horiz-adv-x="656" 
d="M-32 -4q-1 1 -1 8q0 26 5 26q7 0 25 7t36 16.5t24 17.5q9 14 39 63l296 492q2 4 6 8.5t8 10.5q16 22 28 22q9 0 12 -8l105 -518q2 -13 5.5 -31.5t8.5 -43.5q2 -10 13.5 -18.5t25.5 -13t21 -4.5q2 0 2 -5q0 -21 -7 -29l-50 3q-24 2 -42 3t-30 1q-10 0 -44.5 -1.5
t-93.5 -5.5q-1 1 -1 7q0 18 5 24t13.5 7.5t18.5 4t19 13.5q5 5 6.5 9t1.5 8q0 5 -5.5 39.5t-16.5 98.5q0 4 -6 4q-18 1 -40.5 1.5t-50.5 0.5h-47t-38 -1q-3 0 -9.5 -2t-7.5 -3l-45 -76q-40 -60 -28.5 -80.5t60.5 -20.5q2 0 2 -4q0 -18 -5 -30q-4 1 -25.5 2.5t-44 3
t-30.5 1.5q-6 0 -22.5 -1t-36.5 -2t-36.5 -2.5t-22.5 -1.5zM316 273q19 0 36 0.5t31 1.5q4 0 4 5l-32 178l-108 -178q-1 -1 -0.5 -2.5t1.5 -1.5q27 -3 68 -3zM249 -255q-36 0 -61 23.5t-25 63.5q0 30 16 55t41.5 40t53.5 15q35 0 59.5 -24.5t24.5 -60.5q0 -48 -31.5 -80
t-77.5 -32zM255 -209q23 0 39 17.5t16 42.5q0 20 -11 32.5t-31 12.5q-22 0 -39 -18t-17 -41q0 -20 12 -33t31 -13z" />
    <glyph glyph-name="Atilde" unicode="&#xc3;" horiz-adv-x="656" 
d="M-32 -4q-1 1 -1 8q0 26 5 26q7 0 25 7t36 16.5t24 17.5q9 14 39 63l296 492q2 4 6 8.5t8 10.5q16 22 28 22q9 0 12 -8l105 -518q2 -13 5.5 -31.5t8.5 -43.5q2 -10 13.5 -18.5t25.5 -13t21 -4.5q2 0 2 -5q0 -21 -7 -29l-50 3q-24 2 -42 3t-30 1q-10 0 -44.5 -1.5
t-93.5 -5.5q-1 1 -1 7q0 18 5 24t13.5 7.5t18.5 4t19 13.5q5 5 6.5 9t1.5 8q0 5 -5.5 39.5t-16.5 98.5q0 4 -6 4q-18 1 -40.5 1.5t-50.5 0.5h-47t-38 -1q-3 0 -9.5 -2t-7.5 -3l-45 -76q-40 -60 -28.5 -80.5t60.5 -20.5q2 0 2 -4q0 -18 -5 -30q-4 1 -25.5 2.5t-44 3
t-30.5 1.5q-6 0 -22.5 -1t-36.5 -2t-36.5 -2.5t-22.5 -1.5zM316 273q19 0 36 0.5t31 1.5q4 0 4 5l-32 178l-108 -178q-1 -1 -0.5 -2.5t1.5 -1.5q27 -3 68 -3zM535 729q-36 0 -82 34t-83 34q-18 0 -46 -28q-31 -29 -34 -29q-7 0 -3 22q4 25 26 50q45 51 92 51q37 0 83 -34
t82 -34q17 0 46 29q27 28 32 28q8 0 4 -22q-4 -25 -27 -51q-42 -50 -90 -50z" />
    <glyph glyph-name="AE" unicode="&#xc6;" horiz-adv-x="931" 
d="M-10 -4q-1 1 -1 12q0 5 2.5 13t3.5 8q13 0 40 9.5t43 28.5l373 427q35 41 54.5 66.5t21.5 37.5q3 14 -5.5 18t-18 6.5t-9.5 11.5q0 6 2.5 16t3.5 10l10 -1q11 -1 32.5 -1.5t48.5 -0.5q20 0 59.5 1t97.5 3q116 3 167 3q-2 -44 -3 -81t-1 -67q-5 -5 -22 -5q-11 0 -12 7
q-6 42 -39.5 67t-72.5 25h-51q-59 0 -62 -13q-4 -13 -7 -32.5t-6 -45.5l-16 -151v-1q0 -8 40 -8h49q44 0 53 6q12 8 29 56q3 7 16 7q16 0 19 -5l-19 -189q-4 -4 -20 -4q-12 0 -14 8q-2 16 -5 31t-9 23t-26.5 10t-51.5 2q-66 0 -68 -9l-16 -154q-5 -47 0 -71q3 -16 62 -16h25
q65 0 111 26t77 90q3 6 14 6q23 0 27 -6q-34 -75 -52 -118t-22 -54q-26 0 -67 0.5t-97 1.5t-94.5 2t-58.5 0l-131 -6q-3 8 -2 17q1 19 6 19q7 0 18.5 3.5t22 9t12.5 10.5q3 11 6 31.5t5.5 44t4 44.5t2.5 32q1 4 -6 4q-17 1 -38 1.5t-47 0.5h-54t-40 -1q-5 0 -9 -5l-68 -76
q-5 -5 -17.5 -19t-23 -28.5t-10.5 -23.5q0 -14 13 -18q32 -12 52 -12q2 0 2 -4q0 -9 -8 -30q-9 0 -28.5 1.5t-40 3t-31.5 1.5q-12 0 -36 -1t-49 -2.5t-40 -2.5zM407 273q20 0 37 0.5t32 1.5q3 0 5 5l22 189l-165 -189q-2 -2 -1 -4q26 -3 70 -3z" />
    <glyph glyph-name="AEacute" unicode="&#x1fc;" horiz-adv-x="931" 
d="M-10 -4q-1 1 -1 12q0 5 2.5 13t3.5 8q13 0 40 9.5t43 28.5l373 427q35 41 54.5 66.5t21.5 37.5q3 14 -5.5 18t-18 6.5t-9.5 11.5q0 6 2.5 16t3.5 10l10 -1q11 -1 32.5 -1.5t48.5 -0.5q20 0 59.5 1t97.5 3q116 3 167 3q-2 -44 -3 -81t-1 -67q-5 -5 -22 -5q-11 0 -12 7
q-6 42 -39.5 67t-72.5 25h-51q-59 0 -62 -13q-4 -13 -7 -32.5t-6 -45.5l-16 -151v-1q0 -8 40 -8h49q44 0 53 6q12 8 29 56q3 7 16 7q16 0 19 -5l-19 -189q-4 -4 -20 -4q-12 0 -14 8q-2 16 -5 31t-9 23t-26.5 10t-51.5 2q-66 0 -68 -9l-16 -154q-5 -47 0 -71q3 -16 62 -16h25
q65 0 111 26t77 90q3 6 14 6q23 0 27 -6q-34 -75 -52 -118t-22 -54q-26 0 -67 0.5t-97 1.5t-94.5 2t-58.5 0l-131 -6q-3 8 -2 17q1 19 6 19q7 0 18.5 3.5t22 9t12.5 10.5q3 11 6 31.5t5.5 44t4 44.5t2.5 32q1 4 -6 4q-17 1 -38 1.5t-47 0.5h-54t-40 -1q-5 0 -9 -5l-68 -76
q-5 -5 -17.5 -19t-23 -28.5t-10.5 -23.5q0 -14 13 -18q32 -12 52 -12q2 0 2 -4q0 -9 -8 -30q-9 0 -28.5 1.5t-40 3t-31.5 1.5q-12 0 -36 -1t-49 -2.5t-40 -2.5zM407 273q20 0 37 0.5t32 1.5q3 0 5 5l22 189l-165 -189q-2 -2 -1 -4q26 -3 70 -3zM662 715q-5 0 -9.5 7t-4.5 12
q0 4 14 17t33.5 28.5t37.5 28.5t26 17q14 8 32 8q24 0 47 -9t23 -29q0 -7 -17.5 -17.5t-44.5 -21t-55.5 -20t-51 -15.5t-30.5 -6z" />
    <glyph glyph-name="uni01E2" unicode="&#x1e2;" horiz-adv-x="931" 
d="M-10 -4q-1 1 -1 12q0 5 2.5 13t3.5 8q13 0 40 9.5t43 28.5l373 427q35 41 54.5 66.5t21.5 37.5q3 14 -5.5 18t-18 6.5t-9.5 11.5q0 6 2.5 16t3.5 10l10 -1q11 -1 32.5 -1.5t48.5 -0.5q20 0 59.5 1t97.5 3q116 3 167 3q-2 -44 -3 -81t-1 -67q-5 -5 -22 -5q-11 0 -12 7
q-6 42 -39.5 67t-72.5 25h-51q-59 0 -62 -13q-4 -13 -7 -32.5t-6 -45.5l-16 -151v-1q0 -8 40 -8h49q44 0 53 6q12 8 29 56q3 7 16 7q16 0 19 -5l-19 -189q-4 -4 -20 -4q-12 0 -14 8q-2 16 -5 31t-9 23t-26.5 10t-51.5 2q-66 0 -68 -9l-16 -154q-5 -47 0 -71q3 -16 62 -16h25
q65 0 111 26t77 90q3 6 14 6q23 0 27 -6q-34 -75 -52 -118t-22 -54q-26 0 -67 0.5t-97 1.5t-94.5 2t-58.5 0l-131 -6q-3 8 -2 17q1 19 6 19q7 0 18.5 3.5t22 9t12.5 10.5q3 11 6 31.5t5.5 44t4 44.5t2.5 32q1 4 -6 4q-17 1 -38 1.5t-47 0.5h-54t-40 -1q-5 0 -9 -5l-68 -76
q-5 -5 -17.5 -19t-23 -28.5t-10.5 -23.5q0 -14 13 -18q32 -12 52 -12q2 0 2 -4q0 -9 -8 -30q-9 0 -28.5 1.5t-40 3t-31.5 1.5q-12 0 -36 -1t-49 -2.5t-40 -2.5zM407 273q20 0 37 0.5t32 1.5q3 0 5 5l22 189l-165 -189q-2 -2 -1 -4q26 -3 70 -3zM560 739q13 58 25 58h267
q7 0 4 -10q-2 -11 -5 -20t-6 -16t-6 -13t-8 -10h-268q-7 0 -3 11z" />
    <glyph glyph-name="B" unicode="B" horiz-adv-x="561" 
d="M-11 -4q-2 2 -2 9q0 5 2.5 15t5.5 10q7 0 19.5 4t24.5 9.5t15 11.5q11 20 25 88l73 378q12 63 10 78q0 6 -10.5 12.5t-22.5 11.5t-18 5q-2 0 -2 7q0 20 7 27q69 -3 131 -3q20 0 48.5 0.5t55.5 1t40 0.5q54 0 94 -19.5t61.5 -51t21.5 -69.5q0 -49 -25 -92t-69 -72l-15 -10
q26 -7 50 -38.5t24 -82.5q0 -66 -36 -117t-97 -80t-138 -29q-9 0 -29 0.5t-45 0.5t-47.5 0.5t-36.5 0.5q-16 0 -39 -1.5t-43.5 -3t-32.5 -1.5zM302 371q58 0 92 39t34 119q0 42 -18 59.5t-55 17.5q-13 0 -34 -1t-25 -15l-40 -205q-3 -14 46 -14zM268 55q61 0 92.5 49
t31.5 120q0 91 -92 91q-57 0 -60 -14l-44 -225v-4q0 -13 22 -15t50 -2z" />
    <glyph glyph-name="uni1E02" unicode="&#x1e02;" horiz-adv-x="561" 
d="M-11 -4q-2 2 -2 9q0 5 2.5 15t5.5 10q7 0 19.5 4t24.5 9.5t15 11.5q11 20 25 88l73 378q12 63 10 78q0 6 -10.5 12.5t-22.5 11.5t-18 5q-2 0 -2 7q0 20 7 27q69 -3 131 -3q20 0 48.5 0.5t55.5 1t40 0.5q54 0 94 -19.5t61.5 -51t21.5 -69.5q0 -49 -25 -92t-69 -72l-15 -10
q26 -7 50 -38.5t24 -82.5q0 -66 -36 -117t-97 -80t-138 -29q-9 0 -29 0.5t-45 0.5t-47.5 0.5t-36.5 0.5q-16 0 -39 -1.5t-43.5 -3t-32.5 -1.5zM302 371q58 0 92 39t34 119q0 42 -18 59.5t-55 17.5q-13 0 -34 -1t-25 -15l-40 -205q-3 -14 46 -14zM268 55q61 0 92.5 49
t31.5 120q0 91 -92 91q-57 0 -60 -14l-44 -225v-4q0 -13 22 -15t50 -2zM382 768q-28 0 -42 17.5t-14 40.5q0 21 10 41.5t29 34t45 13.5q29 0 42.5 -17.5t13.5 -40.5q0 -20 -10 -41t-28.5 -34.5t-45.5 -13.5z" />
    <glyph glyph-name="uni1E04" unicode="&#x1e04;" horiz-adv-x="561" 
d="M-11 -4q-2 2 -2 9q0 5 2.5 15t5.5 10q7 0 19.5 4t24.5 9.5t15 11.5q11 20 25 88l73 378q12 63 10 78q0 6 -10.5 12.5t-22.5 11.5t-18 5q-2 0 -2 7q0 20 7 27q69 -3 131 -3q20 0 48.5 0.5t55.5 1t40 0.5q54 0 94 -19.5t61.5 -51t21.5 -69.5q0 -49 -25 -92t-69 -72l-15 -10
q26 -7 50 -38.5t24 -82.5q0 -66 -36 -117t-97 -80t-138 -29q-9 0 -29 0.5t-45 0.5t-47.5 0.5t-36.5 0.5q-16 0 -39 -1.5t-43.5 -3t-32.5 -1.5zM302 371q58 0 92 39t34 119q0 42 -18 59.5t-55 17.5q-13 0 -34 -1t-25 -15l-40 -205q-3 -14 46 -14zM268 55q61 0 92.5 49
t31.5 120q0 91 -92 91q-57 0 -60 -14l-44 -225v-4q0 -13 22 -15t50 -2zM221 -193q-28 0 -42 17.5t-14 40.5q0 21 10 41.5t29 34t45 13.5q29 0 42.5 -17.5t13.5 -40.5q0 -20 -10 -41t-28.5 -34.5t-45.5 -13.5z" />
    <glyph glyph-name="Bmacronbelow" unicode="&#x1e06;" horiz-adv-x="561" 
d="M-11 -4q-2 2 -2 9q0 5 2.5 15t5.5 10q7 0 19.5 4t24.5 9.5t15 11.5q11 20 25 88l73 378q12 63 10 78q0 6 -10.5 12.5t-22.5 11.5t-18 5q-2 0 -2 7q0 20 7 27q69 -3 131 -3q20 0 48.5 0.5t55.5 1t40 0.5q54 0 94 -19.5t61.5 -51t21.5 -69.5q0 -49 -25 -92t-69 -72l-15 -10
q26 -7 50 -38.5t24 -82.5q0 -66 -36 -117t-97 -80t-138 -29q-9 0 -29 0.5t-45 0.5t-47.5 0.5t-36.5 0.5q-16 0 -39 -1.5t-43.5 -3t-32.5 -1.5zM302 371q58 0 92 39t34 119q0 42 -18 59.5t-55 17.5q-13 0 -34 -1t-25 -15l-40 -205q-3 -14 46 -14zM268 55q61 0 92.5 49
t31.5 120q0 91 -92 91q-57 0 -60 -14l-44 -225v-4q0 -13 22 -15t50 -2zM76 -137q13 58 25 58h267q7 0 4 -10q-2 -11 -5 -20t-6 -16t-6 -13t-8 -10h-268q-7 0 -3 11z" />
    <glyph glyph-name="C" unicode="C" horiz-adv-x="587" 
d="M298 -7q-87 0 -151.5 34.5t-100 95t-35.5 136.5q0 81 32.5 154.5t87 130.5t122.5 90t138 33q100 0 207 -29q0 -6 -1.5 -28t-3 -48.5t-3.5 -47.5t-2 -24q-2 -7 -10.5 -11t-17.5 -4l-14 3q-18 133 -161 133q-57 0 -99.5 -33.5t-71.5 -88t-43.5 -118.5t-14.5 -124
q0 -90 37.5 -145t111.5 -55q42 0 83 10t64 26q5 4 15 17.5t21 29t18.5 27t8.5 11.5q26 0 29 -13q-1 -7 -6 -23.5t-11.5 -35.5t-12.5 -34t-10 -18q-57 -51 -206 -51z" />
    <glyph glyph-name="Cacute" unicode="&#x106;" horiz-adv-x="587" 
d="M298 -7q-87 0 -151.5 34.5t-100 95t-35.5 136.5q0 81 32.5 154.5t87 130.5t122.5 90t138 33q100 0 207 -29q0 -6 -1.5 -28t-3 -48.5t-3.5 -47.5t-2 -24q-2 -7 -10.5 -11t-17.5 -4l-14 3q-18 133 -161 133q-57 0 -99.5 -33.5t-71.5 -88t-43.5 -118.5t-14.5 -124
q0 -90 37.5 -145t111.5 -55q42 0 83 10t64 26q5 4 15 17.5t21 29t18.5 27t8.5 11.5q26 0 29 -13q-1 -7 -6 -23.5t-11.5 -35.5t-12.5 -34t-10 -18q-57 -51 -206 -51zM364 715q-5 0 -9.5 7t-4.5 12q0 4 14 17t33.5 28.5t37.5 28.5t26 17q14 8 32 8q24 0 47 -9t23 -29
q0 -7 -17.5 -17.5t-44.5 -21t-55.5 -20t-51 -15.5t-30.5 -6z" />
    <glyph glyph-name="Ccaron" unicode="&#x10c;" horiz-adv-x="587" 
d="M298 -7q-87 0 -151.5 34.5t-100 95t-35.5 136.5q0 81 32.5 154.5t87 130.5t122.5 90t138 33q100 0 207 -29q0 -6 -1.5 -28t-3 -48.5t-3.5 -47.5t-2 -24q-2 -7 -10.5 -11t-17.5 -4l-14 3q-18 133 -161 133q-57 0 -99.5 -33.5t-71.5 -88t-43.5 -118.5t-14.5 -124
q0 -90 37.5 -145t111.5 -55q42 0 83 10t64 26q5 4 15 17.5t21 29t18.5 27t8.5 11.5q26 0 29 -13q-1 -7 -6 -23.5t-11.5 -35.5t-12.5 -34t-10 -18q-57 -51 -206 -51zM405 728q-5 0 -10 9q-5 11 -13 22.5t-18 24.5q-17 23 -30.5 39.5t-24.5 26.5q5 17 17 18t28 -9t34 -24.5
t34 -27.5q19 12 45.5 26.5t49.5 25t28 10.5q10 0 6 -19q-12 -8 -33.5 -25t-50.5 -45l-46 -43q-10 -9 -16 -9z" />
    <glyph glyph-name="Ccedilla" unicode="&#xc7;" horiz-adv-x="587" 
d="M298 -7q-87 0 -151.5 34.5t-100 95t-35.5 136.5q0 81 32.5 154.5t87 130.5t122.5 90t138 33q100 0 207 -29q0 -6 -1.5 -28t-3 -48.5t-3.5 -47.5t-2 -24q-2 -7 -10.5 -11t-17.5 -4l-14 3q-18 133 -161 133q-57 0 -99.5 -33.5t-71.5 -88t-43.5 -118.5t-14.5 -124
q0 -90 37.5 -145t111.5 -55q42 0 83 10t64 26q5 4 15 17.5t21 29t18.5 27t8.5 11.5q26 0 29 -13q-1 -7 -6 -23.5t-11.5 -35.5t-12.5 -34t-10 -18q-57 -51 -206 -51zM271 -1h36l-22 -31q7 1 12.5 1h9.5q21 0 34.5 -14.5t13.5 -35.5q0 -22 -14.5 -46t-42.5 -40t-69 -16
q-40 0 -54 8q-5 12 -5 25q0 10 7.5 18t14.5 8q12 0 23 -10.5t29 -10.5q24 0 37.5 13t13.5 29q0 25 -21 25q-19 0 -34 -7q-2 0 -8.5 7.5t-3.5 10.5l12 18t19.5 30.5t11.5 17.5z" />
    <glyph glyph-name="uni1E08" unicode="&#x1e08;" horiz-adv-x="587" 
d="M298 -7q-87 0 -151.5 34.5t-100 95t-35.5 136.5q0 81 32.5 154.5t87 130.5t122.5 90t138 33q100 0 207 -29q0 -6 -1.5 -28t-3 -48.5t-3.5 -47.5t-2 -24q-2 -7 -10.5 -11t-17.5 -4l-14 3q-18 133 -161 133q-57 0 -99.5 -33.5t-71.5 -88t-43.5 -118.5t-14.5 -124
q0 -90 37.5 -145t111.5 -55q42 0 83 10t64 26q5 4 15 17.5t21 29t18.5 27t8.5 11.5q26 0 29 -13q-1 -7 -6 -23.5t-11.5 -35.5t-12.5 -34t-10 -18q-57 -51 -206 -51zM364 715q-5 0 -9.5 7t-4.5 12q0 4 14 17t33.5 28.5t37.5 28.5t26 17q14 8 32 8q24 0 47 -9t23 -29
q0 -7 -17.5 -17.5t-44.5 -21t-55.5 -20t-51 -15.5t-30.5 -6zM271 -1h36l-22 -31q7 1 12.5 1h9.5q21 0 34.5 -14.5t13.5 -35.5q0 -22 -14.5 -46t-42.5 -40t-69 -16q-40 0 -54 8q-5 12 -5 25q0 10 7.5 18t14.5 8q12 0 23 -10.5t29 -10.5q24 0 37.5 13t13.5 29q0 25 -21 25
q-19 0 -34 -7q-2 0 -8.5 7.5t-3.5 10.5l12 18t19.5 30.5t11.5 17.5z" />
    <glyph glyph-name="Ccircumflex" unicode="&#x108;" horiz-adv-x="587" 
d="M298 -7q-87 0 -151.5 34.5t-100 95t-35.5 136.5q0 81 32.5 154.5t87 130.5t122.5 90t138 33q100 0 207 -29q0 -6 -1.5 -28t-3 -48.5t-3.5 -47.5t-2 -24q-2 -7 -10.5 -11t-17.5 -4l-14 3q-18 133 -161 133q-57 0 -99.5 -33.5t-71.5 -88t-43.5 -118.5t-14.5 -124
q0 -90 37.5 -145t111.5 -55q42 0 83 10t64 26q5 4 15 17.5t21 29t18.5 27t8.5 11.5q26 0 29 -13q-1 -7 -6 -23.5t-11.5 -35.5t-12.5 -34t-10 -18q-57 -51 -206 -51zM281 727q-11 0 -7 19q16 10 39 26t53 39q17 14 31 26t24 22q11 9 16 9q4 0 13 -9l33 -44q20 -24 36 -41
t28 -28q-4 -19 -15 -19q-5 0 -26.5 10.5t-45.5 25.5t-40 26q-15 -9 -37 -19.5t-44 -20t-38 -16t-20 -6.5z" />
    <glyph glyph-name="Cdotaccent" unicode="&#x10a;" horiz-adv-x="587" 
d="M298 -7q-87 0 -151.5 34.5t-100 95t-35.5 136.5q0 81 32.5 154.5t87 130.5t122.5 90t138 33q100 0 207 -29q0 -6 -1.5 -28t-3 -48.5t-3.5 -47.5t-2 -24q-2 -7 -10.5 -11t-17.5 -4l-14 3q-18 133 -161 133q-57 0 -99.5 -33.5t-71.5 -88t-43.5 -118.5t-14.5 -124
q0 -90 37.5 -145t111.5 -55q42 0 83 10t64 26q5 4 15 17.5t21 29t18.5 27t8.5 11.5q26 0 29 -13q-1 -7 -6 -23.5t-11.5 -35.5t-12.5 -34t-10 -18q-57 -51 -206 -51zM408 728q-28 0 -41 17.5t-13 40.5q0 32 21.5 61t61.5 29q29 0 42.5 -17.5t13.5 -41.5q0 -20 -10 -41
t-29 -34.5t-46 -13.5z" />
    <glyph glyph-name="D" unicode="D" horiz-adv-x="678" 
d="M-11 -4q-2 2 -2 9q0 5 2.5 15t5.5 10q7 0 19.5 4t24.5 9.5t15 11.5q11 20 25 88l73 378q12 63 10 78q0 6 -10.5 12.5t-22.5 11.5t-18 5q-2 0 -2 7q0 20 7 27q69 -3 131 -3h151q97 0 158 -34.5t90 -92.5t29 -128q0 -68 -27 -139.5t-78 -132t-124.5 -98t-166.5 -37.5
q-20 0 -52.5 1.5t-65 2.5t-53.5 1q-17 0 -40.5 -1.5t-45 -3t-33.5 -1.5zM305 53q52 0 94 33.5t71.5 87.5t45.5 118.5t16 125.5q0 53 -12.5 95t-40.5 66t-76 24q-83 0 -96 -16q-8 -10 -13.5 -25.5t-10.5 -37.5l-75 -388q-12 -66 -6 -70q16 -13 103 -13z" />
    <glyph glyph-name="Eth" unicode="&#xd0;" horiz-adv-x="678" 
d="M-11 -4q-2 2 -2 9q0 5 2.5 15t5.5 10q7 0 19.5 4t24.5 9.5t15 11.5q11 20 25 88l26 136h-53l-3 10q11 39 18 57q1 5 7 5h45l33 170q12 63 10 78q0 6 -10.5 12.5t-22.5 11.5t-18 5q-2 0 -2 7q0 20 7 27q69 -3 131 -3h151q97 0 158 -34.5t90 -92.5t29 -128
q0 -68 -27 -139.5t-78 -132t-124.5 -98t-166.5 -37.5q-20 0 -52.5 1.5t-65 2.5t-53.5 1q-17 0 -40.5 -1.5t-45 -3t-33.5 -1.5zM305 53q52 0 94 33.5t71.5 87.5t45.5 118.5t16 125.5q0 53 -12.5 95t-40.5 66t-76 24q-83 0 -96 -16q-8 -10 -13.5 -25.5t-10.5 -37.5l-33 -173
h134q7 0 6 -7q-5 -23 -21 -59q-1 -6 -7 -6h-126l-28 -143q-12 -66 -6 -70q16 -13 103 -13z" />
    <glyph glyph-name="Dcaron" unicode="&#x10e;" horiz-adv-x="678" 
d="M-11 -4q-2 2 -2 9q0 5 2.5 15t5.5 10q7 0 19.5 4t24.5 9.5t15 11.5q11 20 25 88l73 378q12 63 10 78q0 6 -10.5 12.5t-22.5 11.5t-18 5q-2 0 -2 7q0 20 7 27q69 -3 131 -3h151q97 0 158 -34.5t90 -92.5t29 -128q0 -68 -27 -139.5t-78 -132t-124.5 -98t-166.5 -37.5
q-20 0 -52.5 1.5t-65 2.5t-53.5 1q-17 0 -40.5 -1.5t-45 -3t-33.5 -1.5zM305 53q52 0 94 33.5t71.5 87.5t45.5 118.5t16 125.5q0 53 -12.5 95t-40.5 66t-76 24q-83 0 -96 -16q-8 -10 -13.5 -25.5t-10.5 -37.5l-75 -388q-12 -66 -6 -70q16 -13 103 -13zM390 728q-5 0 -10 9
q-5 11 -13 22.5t-18 24.5q-17 23 -30.5 39.5t-24.5 26.5q5 17 17 18t28 -9t34 -24.5t34 -27.5q19 12 45.5 26.5t49.5 25t28 10.5q10 0 6 -19q-12 -8 -33.5 -25t-50.5 -45l-46 -43q-10 -9 -16 -9z" />
    <glyph glyph-name="uni1E10" unicode="&#x1e10;" horiz-adv-x="678" 
d="M-11 -4q-2 2 -2 9q0 5 2.5 15t5.5 10q7 0 19.5 4t24.5 9.5t15 11.5q11 20 25 88l73 378q12 63 10 78q0 6 -10.5 12.5t-22.5 11.5t-18 5q-2 0 -2 7q0 20 7 27q69 -3 131 -3h151q97 0 158 -34.5t90 -92.5t29 -128q0 -68 -27 -139.5t-78 -132t-124.5 -98t-166.5 -37.5
q-20 0 -52.5 1.5t-65 2.5t-53.5 1q-17 0 -40.5 -1.5t-45 -3t-33.5 -1.5zM305 53q52 0 94 33.5t71.5 87.5t45.5 118.5t16 125.5q0 53 -12.5 95t-40.5 66t-76 24q-83 0 -96 -16q-8 -10 -13.5 -25.5t-10.5 -37.5l-75 -388q-12 -66 -6 -70q16 -13 103 -13zM190 -101
q0 16 16.5 26t43 14.5t54.5 4.5q12 -13 12 -47q0 -22 -22 -46.5t-52 -43.5t-56 -25h-3q-6 0 -13.5 4.5t-7.5 9.5q0 4 14.5 14t28.5 21t14 18q0 9 -14 23q-15 14 -15 27z" />
    <glyph glyph-name="uni1E12" unicode="&#x1e12;" horiz-adv-x="678" 
d="M-11 -4q-2 2 -2 9q0 5 2.5 15t5.5 10q7 0 19.5 4t24.5 9.5t15 11.5q11 20 25 88l73 378q12 63 10 78q0 6 -10.5 12.5t-22.5 11.5t-18 5q-2 0 -2 7q0 20 7 27q69 -3 131 -3h151q97 0 158 -34.5t90 -92.5t29 -128q0 -68 -27 -139.5t-78 -132t-124.5 -98t-166.5 -37.5
q-20 0 -52.5 1.5t-65 2.5t-53.5 1q-17 0 -40.5 -1.5t-45 -3t-33.5 -1.5zM305 53q52 0 94 33.5t71.5 87.5t45.5 118.5t16 125.5q0 53 -12.5 95t-40.5 66t-76 24q-83 0 -96 -16q-8 -10 -13.5 -25.5t-10.5 -37.5l-75 -388q-12 -66 -6 -70q16 -13 103 -13zM101 -219q-11 0 -7 19
q16 10 39 26t53 39q17 14 31 26t24 22q11 9 16 9q4 0 13 -9l33 -44q20 -24 36 -41t28 -28q-4 -19 -15 -19q-5 0 -26.5 10.5t-45.5 25.5t-40 26q-15 -9 -37 -19.5t-44 -20t-38 -16t-20 -6.5z" />
    <glyph glyph-name="Dcroat" unicode="&#x110;" horiz-adv-x="678" 
d="M-11 -4q-2 2 -2 9q0 5 2.5 15t5.5 10q7 0 19.5 4t24.5 9.5t15 11.5q11 20 25 88l26 136h-53l-3 10q11 39 18 57q1 5 7 5h45l33 170q12 63 10 78q0 6 -10.5 12.5t-22.5 11.5t-18 5q-2 0 -2 7q0 20 7 27q69 -3 131 -3h151q97 0 158 -34.5t90 -92.5t29 -128
q0 -68 -27 -139.5t-78 -132t-124.5 -98t-166.5 -37.5q-20 0 -52.5 1.5t-65 2.5t-53.5 1q-17 0 -40.5 -1.5t-45 -3t-33.5 -1.5zM305 53q52 0 94 33.5t71.5 87.5t45.5 118.5t16 125.5q0 53 -12.5 95t-40.5 66t-76 24q-83 0 -96 -16q-8 -10 -13.5 -25.5t-10.5 -37.5l-33 -173
h134q7 0 6 -7q-5 -23 -21 -59q-1 -6 -7 -6h-126l-28 -143q-12 -66 -6 -70q16 -13 103 -13z" />
    <glyph glyph-name="uni1E0A" unicode="&#x1e0a;" horiz-adv-x="678" 
d="M-11 -4q-2 2 -2 9q0 5 2.5 15t5.5 10q7 0 19.5 4t24.5 9.5t15 11.5q11 20 25 88l73 378q12 63 10 78q0 6 -10.5 12.5t-22.5 11.5t-18 5q-2 0 -2 7q0 20 7 27q69 -3 131 -3h151q97 0 158 -34.5t90 -92.5t29 -128q0 -68 -27 -139.5t-78 -132t-124.5 -98t-166.5 -37.5
q-20 0 -52.5 1.5t-65 2.5t-53.5 1q-17 0 -40.5 -1.5t-45 -3t-33.5 -1.5zM305 53q52 0 94 33.5t71.5 87.5t45.5 118.5t16 125.5q0 53 -12.5 95t-40.5 66t-76 24q-83 0 -96 -16q-8 -10 -13.5 -25.5t-10.5 -37.5l-75 -388q-12 -66 -6 -70q16 -13 103 -13zM400 768
q-28 0 -42 17.5t-14 40.5q0 21 10 41.5t29 34t45 13.5q29 0 42.5 -17.5t13.5 -40.5q0 -20 -10 -41t-28.5 -34.5t-45.5 -13.5z" />
    <glyph glyph-name="uni1E0C" unicode="&#x1e0c;" horiz-adv-x="678" 
d="M-11 -4q-2 2 -2 9q0 5 2.5 15t5.5 10q7 0 19.5 4t24.5 9.5t15 11.5q11 20 25 88l73 378q12 63 10 78q0 6 -10.5 12.5t-22.5 11.5t-18 5q-2 0 -2 7q0 20 7 27q69 -3 131 -3h151q97 0 158 -34.5t90 -92.5t29 -128q0 -68 -27 -139.5t-78 -132t-124.5 -98t-166.5 -37.5
q-20 0 -52.5 1.5t-65 2.5t-53.5 1q-17 0 -40.5 -1.5t-45 -3t-33.5 -1.5zM305 53q52 0 94 33.5t71.5 87.5t45.5 118.5t16 125.5q0 53 -12.5 95t-40.5 66t-76 24q-83 0 -96 -16q-8 -10 -13.5 -25.5t-10.5 -37.5l-75 -388q-12 -66 -6 -70q16 -13 103 -13zM248 -193
q-28 0 -42 17.5t-14 40.5q0 21 10 41.5t29 34t45 13.5q29 0 42.5 -17.5t13.5 -40.5q0 -20 -10 -41t-28.5 -34.5t-45.5 -13.5z" />
    <glyph glyph-name="Dmacronbelow" unicode="&#x1e0e;" horiz-adv-x="678" 
d="M-11 -4q-2 2 -2 9q0 5 2.5 15t5.5 10q7 0 19.5 4t24.5 9.5t15 11.5q11 20 25 88l73 378q12 63 10 78q0 6 -10.5 12.5t-22.5 11.5t-18 5q-2 0 -2 7q0 20 7 27q69 -3 131 -3h151q97 0 158 -34.5t90 -92.5t29 -128q0 -68 -27 -139.5t-78 -132t-124.5 -98t-166.5 -37.5
q-20 0 -52.5 1.5t-65 2.5t-53.5 1q-17 0 -40.5 -1.5t-45 -3t-33.5 -1.5zM305 53q52 0 94 33.5t71.5 87.5t45.5 118.5t16 125.5q0 53 -12.5 95t-40.5 66t-76 24q-83 0 -96 -16q-8 -10 -13.5 -25.5t-10.5 -37.5l-75 -388q-12 -66 -6 -70q16 -13 103 -13zM124 -155q13 58 25 58
h267q7 0 4 -10q-2 -11 -5 -20t-6 -16t-6 -13t-8 -10h-268q-7 0 -3 11z" />
    <glyph glyph-name="Dtail" unicode="&#x189;" horiz-adv-x="678" 
d="M-11 -4q-2 2 -2 9q0 5 2.5 15t5.5 10q7 0 19.5 4t24.5 9.5t15 11.5q11 20 25 88l26 136h-53l-3 10q11 39 18 57q1 5 7 5h45l33 170q12 63 10 78q0 6 -10.5 12.5t-22.5 11.5t-18 5q-2 0 -2 7q0 20 7 27q69 -3 131 -3h151q97 0 158 -34.5t90 -92.5t29 -128
q0 -68 -27 -139.5t-78 -132t-124.5 -98t-166.5 -37.5q-20 0 -52.5 1.5t-65 2.5t-53.5 1q-17 0 -40.5 -1.5t-45 -3t-33.5 -1.5zM305 53q52 0 94 33.5t71.5 87.5t45.5 118.5t16 125.5q0 53 -12.5 95t-40.5 66t-76 24q-83 0 -96 -16q-8 -10 -13.5 -25.5t-10.5 -37.5l-33 -173
h134q7 0 6 -7q-5 -23 -21 -59q-1 -6 -7 -6h-126l-28 -143q-12 -66 -6 -70q16 -13 103 -13z" />
    <glyph glyph-name="Dtail" unicode="&#x256;" horiz-adv-x="678" 
d="M-11 -4q-2 2 -2 9q0 5 2.5 15t5.5 10q7 0 19.5 4t24.5 9.5t15 11.5q11 20 25 88l26 136h-53l-3 10q11 39 18 57q1 5 7 5h45l33 170q12 63 10 78q0 6 -10.5 12.5t-22.5 11.5t-18 5q-2 0 -2 7q0 20 7 27q69 -3 131 -3h151q97 0 158 -34.5t90 -92.5t29 -128
q0 -68 -27 -139.5t-78 -132t-124.5 -98t-166.5 -37.5q-20 0 -52.5 1.5t-65 2.5t-53.5 1q-17 0 -40.5 -1.5t-45 -3t-33.5 -1.5zM305 53q52 0 94 33.5t71.5 87.5t45.5 118.5t16 125.5q0 53 -12.5 95t-40.5 66t-76 24q-83 0 -96 -16q-8 -10 -13.5 -25.5t-10.5 -37.5l-33 -173
h134q7 0 6 -7q-5 -23 -21 -59q-1 -6 -7 -6h-126l-28 -143q-12 -66 -6 -70q16 -13 103 -13z" />
    <glyph glyph-name="Dtail" unicode="&#x256;" horiz-adv-x="678" 
d="M-11 -4q-2 2 -2 9q0 5 2.5 15t5.5 10q7 0 19.5 4t24.5 9.5t15 11.5q11 20 25 88l26 136h-53l-3 10q11 39 18 57q1 5 7 5h45l33 170q12 63 10 78q0 6 -10.5 12.5t-22.5 11.5t-18 5q-2 0 -2 7q0 20 7 27q69 -3 131 -3h151q97 0 158 -34.5t90 -92.5t29 -128
q0 -68 -27 -139.5t-78 -132t-124.5 -98t-166.5 -37.5q-20 0 -52.5 1.5t-65 2.5t-53.5 1q-17 0 -40.5 -1.5t-45 -3t-33.5 -1.5zM305 53q52 0 94 33.5t71.5 87.5t45.5 118.5t16 125.5q0 53 -12.5 95t-40.5 66t-76 24q-83 0 -96 -16q-8 -10 -13.5 -25.5t-10.5 -37.5l-33 -173
h134q7 0 6 -7q-5 -23 -21 -59q-1 -6 -7 -6h-126l-28 -143q-12 -66 -6 -70q16 -13 103 -13z" />
    <glyph glyph-name="E" unicode="E" horiz-adv-x="542" 
d="M-11 -4q-2 2 -2 9q0 5 2.5 15t5.5 10q7 0 19.5 4t24.5 9.5t15 11.5q11 20 25 88l73 378q12 63 10 78q0 6 -10.5 12.5t-22.5 11.5t-18 5q-2 0 -2 7q0 20 7 27q55 -2 98.5 -2.5t87 0.5t95.5 2q49 1 86.5 1.5t64.5 0.5q0 -10 -0.5 -26t-1 -44.5t-0.5 -77.5q-5 -5 -22 -5
q-11 0 -12 7q-11 38 -43.5 65t-68.5 27h-35h-37t-26 -13q-6 -16 -10.5 -35.5t-9.5 -42.5l-30 -154q0 -1 15 -3.5t24 -2.5h79q29 0 37.5 18t20.5 44q3 7 16 7q16 0 19 -5l-36 -189q-4 -4 -21 -4q-11 0 -13 8q1 33 -6 47t-26 16.5t-54 2.5q-67 0 -69 -9l-29 -154
q-4 -20 -6 -34.5t-2 -24.5q0 -24 18.5 -26t42.5 -2h24q131 0 194 116q3 6 14 6q23 0 27 -6q-7 -13 -18.5 -35.5t-25 -48t-24.5 -49t-16 -39.5q-26 0 -69 0.5t-102 1.5q-33 1 -74 1.5t-81 0.5t-74 -3q-37 -3 -48 -3z" />
    <glyph glyph-name="Eacute" unicode="&#xc9;" horiz-adv-x="542" 
d="M-11 -4q-2 2 -2 9q0 5 2.5 15t5.5 10q7 0 19.5 4t24.5 9.5t15 11.5q11 20 25 88l73 378q12 63 10 78q0 6 -10.5 12.5t-22.5 11.5t-18 5q-2 0 -2 7q0 20 7 27q55 -2 98.5 -2.5t87 0.5t95.5 2q49 1 86.5 1.5t64.5 0.5q0 -10 -0.5 -26t-1 -44.5t-0.5 -77.5q-5 -5 -22 -5
q-11 0 -12 7q-11 38 -43.5 65t-68.5 27h-35h-37t-26 -13q-6 -16 -10.5 -35.5t-9.5 -42.5l-30 -154q0 -1 15 -3.5t24 -2.5h79q29 0 37.5 18t20.5 44q3 7 16 7q16 0 19 -5l-36 -189q-4 -4 -21 -4q-11 0 -13 8q1 33 -6 47t-26 16.5t-54 2.5q-67 0 -69 -9l-29 -154
q-4 -20 -6 -34.5t-2 -24.5q0 -24 18.5 -26t42.5 -2h24q131 0 194 116q3 6 14 6q23 0 27 -6q-7 -13 -18.5 -35.5t-25 -48t-24.5 -49t-16 -39.5q-26 0 -69 0.5t-102 1.5q-33 1 -74 1.5t-81 0.5t-74 -3q-37 -3 -48 -3zM318 715q-5 0 -9.5 7t-4.5 12q0 4 14 17t33.5 28.5
t37.5 28.5t26 17q14 8 32 8q24 0 47 -9t23 -29q0 -7 -17.5 -17.5t-44.5 -21t-55.5 -20t-51 -15.5t-30.5 -6z" />
    <glyph glyph-name="Ebreve" unicode="&#x114;" horiz-adv-x="542" 
d="M-11 -4q-2 2 -2 9q0 5 2.5 15t5.5 10q7 0 19.5 4t24.5 9.5t15 11.5q11 20 25 88l73 378q12 63 10 78q0 6 -10.5 12.5t-22.5 11.5t-18 5q-2 0 -2 7q0 20 7 27q55 -2 98.5 -2.5t87 0.5t95.5 2q49 1 86.5 1.5t64.5 0.5q0 -10 -0.5 -26t-1 -44.5t-0.5 -77.5q-5 -5 -22 -5
q-11 0 -12 7q-11 38 -43.5 65t-68.5 27h-35h-37t-26 -13q-6 -16 -10.5 -35.5t-9.5 -42.5l-30 -154q0 -1 15 -3.5t24 -2.5h79q29 0 37.5 18t20.5 44q3 7 16 7q16 0 19 -5l-36 -189q-4 -4 -21 -4q-11 0 -13 8q1 33 -6 47t-26 16.5t-54 2.5q-67 0 -69 -9l-29 -154
q-4 -20 -6 -34.5t-2 -24.5q0 -24 18.5 -26t42.5 -2h24q131 0 194 116q3 6 14 6q23 0 27 -6q-7 -13 -18.5 -35.5t-25 -48t-24.5 -49t-16 -39.5q-26 0 -69 0.5t-102 1.5q-33 1 -74 1.5t-81 0.5t-74 -3q-37 -3 -48 -3zM362 728q-60 0 -86 72q-4 8 7 20.5t19 15.5q2 2 4 -2
q11 -22 28.5 -33.5t38.5 -11.5q46 0 86 45q1 4 5 2t11 -13t5 -16l-2 -3l-2 -4q-54 -72 -114 -72z" />
    <glyph glyph-name="Ecaron" unicode="&#x11a;" horiz-adv-x="542" 
d="M-11 -4q-2 2 -2 9q0 5 2.5 15t5.5 10q7 0 19.5 4t24.5 9.5t15 11.5q11 20 25 88l73 378q12 63 10 78q0 6 -10.5 12.5t-22.5 11.5t-18 5q-2 0 -2 7q0 20 7 27q55 -2 98.5 -2.5t87 0.5t95.5 2q49 1 86.5 1.5t64.5 0.5q0 -10 -0.5 -26t-1 -44.5t-0.5 -77.5q-5 -5 -22 -5
q-11 0 -12 7q-11 38 -43.5 65t-68.5 27h-35h-37t-26 -13q-6 -16 -10.5 -35.5t-9.5 -42.5l-30 -154q0 -1 15 -3.5t24 -2.5h79q29 0 37.5 18t20.5 44q3 7 16 7q16 0 19 -5l-36 -189q-4 -4 -21 -4q-11 0 -13 8q1 33 -6 47t-26 16.5t-54 2.5q-67 0 -69 -9l-29 -154
q-4 -20 -6 -34.5t-2 -24.5q0 -24 18.5 -26t42.5 -2h24q131 0 194 116q3 6 14 6q23 0 27 -6q-7 -13 -18.5 -35.5t-25 -48t-24.5 -49t-16 -39.5q-26 0 -69 0.5t-102 1.5q-33 1 -74 1.5t-81 0.5t-74 -3q-37 -3 -48 -3zM359 728q-5 0 -10 9q-5 11 -13 22.5t-18 24.5
q-17 23 -30.5 39.5t-24.5 26.5q5 17 17 18t28 -9t34 -24.5t34 -27.5q19 12 45.5 26.5t49.5 25t28 10.5q10 0 6 -19q-12 -8 -33.5 -25t-50.5 -45l-46 -43q-10 -9 -16 -9z" />
    <glyph glyph-name="Ecircumflex" unicode="&#xca;" horiz-adv-x="542" 
d="M-11 -4q-2 2 -2 9q0 5 2.5 15t5.5 10q7 0 19.5 4t24.5 9.5t15 11.5q11 20 25 88l73 378q12 63 10 78q0 6 -10.5 12.5t-22.5 11.5t-18 5q-2 0 -2 7q0 20 7 27q55 -2 98.5 -2.5t87 0.5t95.5 2q49 1 86.5 1.5t64.5 0.5q0 -10 -0.5 -26t-1 -44.5t-0.5 -77.5q-5 -5 -22 -5
q-11 0 -12 7q-11 38 -43.5 65t-68.5 27h-35h-37t-26 -13q-6 -16 -10.5 -35.5t-9.5 -42.5l-30 -154q0 -1 15 -3.5t24 -2.5h79q29 0 37.5 18t20.5 44q3 7 16 7q16 0 19 -5l-36 -189q-4 -4 -21 -4q-11 0 -13 8q1 33 -6 47t-26 16.5t-54 2.5q-67 0 -69 -9l-29 -154
q-4 -20 -6 -34.5t-2 -24.5q0 -24 18.5 -26t42.5 -2h24q131 0 194 116q3 6 14 6q23 0 27 -6q-7 -13 -18.5 -35.5t-25 -48t-24.5 -49t-16 -39.5q-26 0 -69 0.5t-102 1.5q-33 1 -74 1.5t-81 0.5t-74 -3q-37 -3 -48 -3zM235 727q-11 0 -7 19q16 10 39 26t53 39q17 14 31 26
t24 22q11 9 16 9q4 0 13 -9l33 -44q20 -24 36 -41t28 -28q-4 -19 -15 -19q-5 0 -26.5 10.5t-45.5 25.5t-40 26q-15 -9 -37 -19.5t-44 -20t-38 -16t-20 -6.5z" />
    <glyph glyph-name="uni1EBE" unicode="&#x1ebe;" horiz-adv-x="542" 
d="M-11 -4q-2 2 -2 9q0 5 2.5 15t5.5 10q7 0 19.5 4t24.5 9.5t15 11.5q11 20 25 88l73 378q12 63 10 78q0 6 -10.5 12.5t-22.5 11.5t-18 5q-2 0 -2 7q0 20 7 27q55 -2 98.5 -2.5t87 0.5t95.5 2q49 1 86.5 1.5t64.5 0.5q0 -10 -0.5 -26t-1 -44.5t-0.5 -77.5q-5 -5 -22 -5
q-11 0 -12 7q-11 38 -43.5 65t-68.5 27h-35h-37t-26 -13q-6 -16 -10.5 -35.5t-9.5 -42.5l-30 -154q0 -1 15 -3.5t24 -2.5h79q29 0 37.5 18t20.5 44q3 7 16 7q16 0 19 -5l-36 -189q-4 -4 -21 -4q-11 0 -13 8q1 33 -6 47t-26 16.5t-54 2.5q-67 0 -69 -9l-29 -154
q-4 -20 -6 -34.5t-2 -24.5q0 -24 18.5 -26t42.5 -2h24q131 0 194 116q3 6 14 6q23 0 27 -6q-7 -13 -18.5 -35.5t-25 -48t-24.5 -49t-16 -39.5q-26 0 -69 0.5t-102 1.5q-33 1 -74 1.5t-81 0.5t-74 -3q-37 -3 -48 -3zM492 843q-5 0 -8 7.5t-2 12.5q1 3 16 16.5t38 32.5
t47.5 37.5t43.5 30.5q8 4 19 4q18 0 35 -9.5t13 -28.5q-2 -10 -21 -23t-46 -27t-55.5 -26t-50.5 -19.5t-29 -7.5zM239 731q-10 0 -6 19q17 11 38.5 27t48.5 38q13 10 26 22t27 26q9 9 15 9t13 -9l12 -17l10 -14t9 -13q39 -49 61 -69q-4 -19 -14 -19q-5 0 -25.5 10.5
t-43.5 25.5t-38 26q-20 -11 -49.5 -26t-53.5 -25.5t-30 -10.5z" />
    <glyph glyph-name="uni1E18" unicode="&#x1e18;" horiz-adv-x="542" 
d="M-11 -4q-2 2 -2 9q0 5 2.5 15t5.5 10q7 0 19.5 4t24.5 9.5t15 11.5q11 20 25 88l73 378q12 63 10 78q0 6 -10.5 12.5t-22.5 11.5t-18 5q-2 0 -2 7q0 20 7 27q55 -2 98.5 -2.5t87 0.5t95.5 2q49 1 86.5 1.5t64.5 0.5q0 -10 -0.5 -26t-1 -44.5t-0.5 -77.5q-5 -5 -22 -5
q-11 0 -12 7q-11 38 -43.5 65t-68.5 27h-35h-37t-26 -13q-6 -16 -10.5 -35.5t-9.5 -42.5l-30 -154q0 -1 15 -3.5t24 -2.5h79q29 0 37.5 18t20.5 44q3 7 16 7q16 0 19 -5l-36 -189q-4 -4 -21 -4q-11 0 -13 8q1 33 -6 47t-26 16.5t-54 2.5q-67 0 -69 -9l-29 -154
q-4 -20 -6 -34.5t-2 -24.5q0 -24 18.5 -26t42.5 -2h24q131 0 194 116q3 6 14 6q23 0 27 -6q-7 -13 -18.5 -35.5t-25 -48t-24.5 -49t-16 -39.5q-26 0 -69 0.5t-102 1.5q-33 1 -74 1.5t-81 0.5t-74 -3q-37 -3 -48 -3zM90 -222q-11 0 -7 19q16 10 39 26t53 39q17 14 31 26
t24 22q11 9 16 9q4 0 13 -9l33 -44q20 -24 36 -41t28 -28q-4 -19 -15 -19q-5 0 -26.5 10.5t-45.5 25.5t-40 26q-15 -9 -37 -19.5t-44 -20t-38 -16t-20 -6.5z" />
    <glyph glyph-name="uni1EC6" unicode="&#x1ec6;" horiz-adv-x="542" 
d="M-11 -4q-2 2 -2 9q0 5 2.5 15t5.5 10q7 0 19.5 4t24.5 9.5t15 11.5q11 20 25 88l73 378q12 63 10 78q0 6 -10.5 12.5t-22.5 11.5t-18 5q-2 0 -2 7q0 20 7 27q55 -2 98.5 -2.5t87 0.5t95.5 2q49 1 86.5 1.5t64.5 0.5q0 -10 -0.5 -26t-1 -44.5t-0.5 -77.5q-5 -5 -22 -5
q-11 0 -12 7q-11 38 -43.5 65t-68.5 27h-35h-37t-26 -13q-6 -16 -10.5 -35.5t-9.5 -42.5l-30 -154q0 -1 15 -3.5t24 -2.5h79q29 0 37.5 18t20.5 44q3 7 16 7q16 0 19 -5l-36 -189q-4 -4 -21 -4q-11 0 -13 8q1 33 -6 47t-26 16.5t-54 2.5q-67 0 -69 -9l-29 -154
q-4 -20 -6 -34.5t-2 -24.5q0 -24 18.5 -26t42.5 -2h24q131 0 194 116q3 6 14 6q23 0 27 -6q-7 -13 -18.5 -35.5t-25 -48t-24.5 -49t-16 -39.5q-26 0 -69 0.5t-102 1.5q-33 1 -74 1.5t-81 0.5t-74 -3q-37 -3 -48 -3zM221 -193q-28 0 -42 17.5t-14 40.5q0 21 10 41.5t29 34
t45 13.5q29 0 42.5 -17.5t13.5 -40.5q0 -20 -10 -41t-28.5 -34.5t-45.5 -13.5zM235 727q-11 0 -7 19q16 10 39 26t53 39q17 14 31 26t24 22q11 9 16 9q4 0 13 -9l33 -44q20 -24 36 -41t28 -28q-4 -19 -15 -19q-5 0 -26.5 10.5t-45.5 25.5t-40 26q-15 -9 -37 -19.5t-44 -20
t-38 -16t-20 -6.5z" />
    <glyph glyph-name="uni1EC0" unicode="&#x1ec0;" horiz-adv-x="542" 
d="M-11 -4q-2 2 -2 9q0 5 2.5 15t5.5 10q7 0 19.5 4t24.5 9.5t15 11.5q11 20 25 88l73 378q12 63 10 78q0 6 -10.5 12.5t-22.5 11.5t-18 5q-2 0 -2 7q0 20 7 27q55 -2 98.5 -2.5t87 0.5t95.5 2q49 1 86.5 1.5t64.5 0.5q0 -10 -0.5 -26t-1 -44.5t-0.5 -77.5q-5 -5 -22 -5
q-11 0 -12 7q-11 38 -43.5 65t-68.5 27h-35h-37t-26 -13q-6 -16 -10.5 -35.5t-9.5 -42.5l-30 -154q0 -1 15 -3.5t24 -2.5h79q29 0 37.5 18t20.5 44q3 7 16 7q16 0 19 -5l-36 -189q-4 -4 -21 -4q-11 0 -13 8q1 33 -6 47t-26 16.5t-54 2.5q-67 0 -69 -9l-29 -154
q-4 -20 -6 -34.5t-2 -24.5q0 -24 18.5 -26t42.5 -2h24q131 0 194 116q3 6 14 6q23 0 27 -6q-7 -13 -18.5 -35.5t-25 -48t-24.5 -49t-16 -39.5q-26 0 -69 0.5t-102 1.5q-33 1 -74 1.5t-81 0.5t-74 -3q-37 -3 -48 -3zM577 821q-6 0 -28.5 11.5t-47.5 29t-43 35.5t-15 30
q2 9 20.5 17.5t31.5 8.5t20.5 -2.5t11.5 -6.5q25 -18 40.5 -41t23 -41t6.5 -23t-8 -11.5t-12 -6.5zM246 731q-9 0 -6 19q17 11 38.5 27t48.5 38q13 10 26 22t27 26q11 9 15 9q7 0 13 -9l12 -17l10 -14t9 -13q39 -49 61 -69q-3 -19 -14 -19q-5 0 -25 10.5t-43 25.5t-38 26
q-20 -11 -49.5 -26t-54 -25.5t-30.5 -10.5z" />
    <glyph glyph-name="uni1EC2" unicode="&#x1ec2;" horiz-adv-x="542" 
d="M-11 -4q-2 2 -2 9q0 5 2.5 15t5.5 10q7 0 19.5 4t24.5 9.5t15 11.5q11 20 25 88l73 378q12 63 10 78q0 6 -10.5 12.5t-22.5 11.5t-18 5q-2 0 -2 7q0 20 7 27q55 -2 98.5 -2.5t87 0.5t95.5 2q49 1 86.5 1.5t64.5 0.5q0 -10 -0.5 -26t-1 -44.5t-0.5 -77.5q-5 -5 -22 -5
q-11 0 -12 7q-11 38 -43.5 65t-68.5 27h-35h-37t-26 -13q-6 -16 -10.5 -35.5t-9.5 -42.5l-30 -154q0 -1 15 -3.5t24 -2.5h79q29 0 37.5 18t20.5 44q3 7 16 7q16 0 19 -5l-36 -189q-4 -4 -21 -4q-11 0 -13 8q1 33 -6 47t-26 16.5t-54 2.5q-67 0 -69 -9l-29 -154
q-4 -20 -6 -34.5t-2 -24.5q0 -24 18.5 -26t42.5 -2h24q131 0 194 116q3 6 14 6q23 0 27 -6q-7 -13 -18.5 -35.5t-25 -48t-24.5 -49t-16 -39.5q-26 0 -69 0.5t-102 1.5q-33 1 -74 1.5t-81 0.5t-74 -3q-37 -3 -48 -3zM235 727q-11 0 -7 19q16 10 39 26t53 39q17 14 31 26
t24 22q11 9 16 9q4 0 13 -9l33 -44q20 -24 36 -41t28 -28q-4 -19 -15 -19q-5 0 -26.5 10.5t-45.5 25.5t-40 26q-15 -9 -37 -19.5t-44 -20t-38 -16t-20 -6.5zM465 840q-9 7 -6 17q5 30 51 49q36 17 42 42q5 30 -17 30q-30 0 -38 -36q-4 -22 -41 -22q-7 0 -12.5 4.5t-4.5 12.5
q7 36 40.5 57.5t71.5 21.5q28 0 43 -16.5t10 -41.5q-5 -26 -22.5 -45.5t-39.5 -28.5q-35 -14 -38 -27v-3q-1 -2 -1 -5q-1 -2 -14.5 -5.5t-23.5 -3.5z" />
    <glyph glyph-name="uni1EC4" unicode="&#x1ec4;" horiz-adv-x="542" 
d="M-11 -4q-2 2 -2 9q0 5 2.5 15t5.5 10q7 0 19.5 4t24.5 9.5t15 11.5q11 20 25 88l73 378q12 63 10 78q0 6 -10.5 12.5t-22.5 11.5t-18 5q-2 0 -2 7q0 20 7 27q55 -2 98.5 -2.5t87 0.5t95.5 2q49 1 86.5 1.5t64.5 0.5q0 -10 -0.5 -26t-1 -44.5t-0.5 -77.5q-5 -5 -22 -5
q-11 0 -12 7q-11 38 -43.5 65t-68.5 27h-35h-37t-26 -13q-6 -16 -10.5 -35.5t-9.5 -42.5l-30 -154q0 -1 15 -3.5t24 -2.5h79q29 0 37.5 18t20.5 44q3 7 16 7q16 0 19 -5l-36 -189q-4 -4 -21 -4q-11 0 -13 8q1 33 -6 47t-26 16.5t-54 2.5q-67 0 -69 -9l-29 -154
q-4 -20 -6 -34.5t-2 -24.5q0 -24 18.5 -26t42.5 -2h24q131 0 194 116q3 6 14 6q23 0 27 -6q-7 -13 -18.5 -35.5t-25 -48t-24.5 -49t-16 -39.5q-26 0 -69 0.5t-102 1.5q-33 1 -74 1.5t-81 0.5t-74 -3q-37 -3 -48 -3zM235 727q-11 0 -7 19q16 10 39 26t53 39q17 14 31 26
t24 22q11 9 16 9q4 0 13 -9l33 -44q20 -24 36 -41t28 -28q-4 -19 -15 -19q-5 0 -26.5 10.5t-45.5 25.5t-40 26q-15 -9 -37 -19.5t-44 -20t-38 -16t-20 -6.5zM475 879q-36 0 -82 34t-83 34q-18 0 -46 -28q-31 -29 -34 -29q-7 0 -3 22q4 25 26 50q45 51 92 51q37 0 83 -34
t82 -34q17 0 46 29q27 28 32 28q8 0 4 -22q-4 -25 -27 -51q-42 -50 -90 -50z" />
    <glyph glyph-name="Edieresis" unicode="&#xcb;" horiz-adv-x="542" 
d="M-11 -4q-2 2 -2 9q0 5 2.5 15t5.5 10q7 0 19.5 4t24.5 9.5t15 11.5q11 20 25 88l73 378q12 63 10 78q0 6 -10.5 12.5t-22.5 11.5t-18 5q-2 0 -2 7q0 20 7 27q55 -2 98.5 -2.5t87 0.5t95.5 2q49 1 86.5 1.5t64.5 0.5q0 -10 -0.5 -26t-1 -44.5t-0.5 -77.5q-5 -5 -22 -5
q-11 0 -12 7q-11 38 -43.5 65t-68.5 27h-35h-37t-26 -13q-6 -16 -10.5 -35.5t-9.5 -42.5l-30 -154q0 -1 15 -3.5t24 -2.5h79q29 0 37.5 18t20.5 44q3 7 16 7q16 0 19 -5l-36 -189q-4 -4 -21 -4q-11 0 -13 8q1 33 -6 47t-26 16.5t-54 2.5q-67 0 -69 -9l-29 -154
q-4 -20 -6 -34.5t-2 -24.5q0 -24 18.5 -26t42.5 -2h24q131 0 194 116q3 6 14 6q23 0 27 -6q-7 -13 -18.5 -35.5t-25 -48t-24.5 -49t-16 -39.5q-26 0 -69 0.5t-102 1.5q-33 1 -74 1.5t-81 0.5t-74 -3q-37 -3 -48 -3zM465 724q-28 0 -42 17.5t-14 41.5q0 21 10 41.5t29 34
t45 13.5q29 0 42.5 -17.5t13.5 -41.5q0 -20 -10 -41t-28.5 -34.5t-45.5 -13.5zM251 724q-28 0 -42 17.5t-14 41.5q0 21 10 41.5t29 34t45 13.5q29 0 42.5 -17.5t13.5 -41.5q0 -20 -10 -41t-28.5 -34.5t-45.5 -13.5z" />
    <glyph glyph-name="Edotaccent" unicode="&#x116;" horiz-adv-x="542" 
d="M-11 -4q-2 2 -2 9q0 5 2.5 15t5.5 10q7 0 19.5 4t24.5 9.5t15 11.5q11 20 25 88l73 378q12 63 10 78q0 6 -10.5 12.5t-22.5 11.5t-18 5q-2 0 -2 7q0 20 7 27q55 -2 98.5 -2.5t87 0.5t95.5 2q49 1 86.5 1.5t64.5 0.5q0 -10 -0.5 -26t-1 -44.5t-0.5 -77.5q-5 -5 -22 -5
q-11 0 -12 7q-11 38 -43.5 65t-68.5 27h-35h-37t-26 -13q-6 -16 -10.5 -35.5t-9.5 -42.5l-30 -154q0 -1 15 -3.5t24 -2.5h79q29 0 37.5 18t20.5 44q3 7 16 7q16 0 19 -5l-36 -189q-4 -4 -21 -4q-11 0 -13 8q1 33 -6 47t-26 16.5t-54 2.5q-67 0 -69 -9l-29 -154
q-4 -20 -6 -34.5t-2 -24.5q0 -24 18.5 -26t42.5 -2h24q131 0 194 116q3 6 14 6q23 0 27 -6q-7 -13 -18.5 -35.5t-25 -48t-24.5 -49t-16 -39.5q-26 0 -69 0.5t-102 1.5q-33 1 -74 1.5t-81 0.5t-74 -3q-37 -3 -48 -3zM362 728q-28 0 -41 17.5t-13 40.5q0 32 21.5 61t61.5 29
q29 0 42.5 -17.5t13.5 -41.5q0 -20 -10 -41t-29 -34.5t-46 -13.5z" />
    <glyph glyph-name="uni1EB8" unicode="&#x1eb8;" horiz-adv-x="542" 
d="M-11 -4q-2 2 -2 9q0 5 2.5 15t5.5 10q7 0 19.5 4t24.5 9.5t15 11.5q11 20 25 88l73 378q12 63 10 78q0 6 -10.5 12.5t-22.5 11.5t-18 5q-2 0 -2 7q0 20 7 27q55 -2 98.5 -2.5t87 0.5t95.5 2q49 1 86.5 1.5t64.5 0.5q0 -10 -0.5 -26t-1 -44.5t-0.5 -77.5q-5 -5 -22 -5
q-11 0 -12 7q-11 38 -43.5 65t-68.5 27h-35h-37t-26 -13q-6 -16 -10.5 -35.5t-9.5 -42.5l-30 -154q0 -1 15 -3.5t24 -2.5h79q29 0 37.5 18t20.5 44q3 7 16 7q16 0 19 -5l-36 -189q-4 -4 -21 -4q-11 0 -13 8q1 33 -6 47t-26 16.5t-54 2.5q-67 0 -69 -9l-29 -154
q-4 -20 -6 -34.5t-2 -24.5q0 -24 18.5 -26t42.5 -2h24q131 0 194 116q3 6 14 6q23 0 27 -6q-7 -13 -18.5 -35.5t-25 -48t-24.5 -49t-16 -39.5q-26 0 -69 0.5t-102 1.5q-33 1 -74 1.5t-81 0.5t-74 -3q-37 -3 -48 -3zM221 -193q-28 0 -42 17.5t-14 40.5q0 21 10 41.5t29 34
t45 13.5q29 0 42.5 -17.5t13.5 -40.5q0 -20 -10 -41t-28.5 -34.5t-45.5 -13.5z" />
    <glyph glyph-name="Egrave" unicode="&#xc8;" horiz-adv-x="542" 
d="M-11 -4q-2 2 -2 9q0 5 2.5 15t5.5 10q7 0 19.5 4t24.5 9.5t15 11.5q11 20 25 88l73 378q12 63 10 78q0 6 -10.5 12.5t-22.5 11.5t-18 5q-2 0 -2 7q0 20 7 27q55 -2 98.5 -2.5t87 0.5t95.5 2q49 1 86.5 1.5t64.5 0.5q0 -10 -0.5 -26t-1 -44.5t-0.5 -77.5q-5 -5 -22 -5
q-11 0 -12 7q-11 38 -43.5 65t-68.5 27h-35h-37t-26 -13q-6 -16 -10.5 -35.5t-9.5 -42.5l-30 -154q0 -1 15 -3.5t24 -2.5h79q29 0 37.5 18t20.5 44q3 7 16 7q16 0 19 -5l-36 -189q-4 -4 -21 -4q-11 0 -13 8q1 33 -6 47t-26 16.5t-54 2.5q-67 0 -69 -9l-29 -154
q-4 -20 -6 -34.5t-2 -24.5q0 -24 18.5 -26t42.5 -2h24q131 0 194 116q3 6 14 6q23 0 27 -6q-7 -13 -18.5 -35.5t-25 -48t-24.5 -49t-16 -39.5q-26 0 -69 0.5t-102 1.5q-33 1 -74 1.5t-81 0.5t-74 -3q-37 -3 -48 -3zM457 716q-8 0 -30.5 6t-51 15.5t-55.5 20t-44.5 21
t-17.5 17.5q0 20 23 29t47 9q20 0 32 -8q8 -4 26 -17t37.5 -28.5t33.5 -28t14 -17.5q0 -4 -4.5 -11.5t-9.5 -7.5z" />
    <glyph glyph-name="uni1EBA" unicode="&#x1eba;" horiz-adv-x="542" 
d="M-11 -4q-2 2 -2 9q0 5 2.5 15t5.5 10q7 0 19.5 4t24.5 9.5t15 11.5q11 20 25 88l73 378q12 63 10 78q0 6 -10.5 12.5t-22.5 11.5t-18 5q-2 0 -2 7q0 20 7 27q55 -2 98.5 -2.5t87 0.5t95.5 2q49 1 86.5 1.5t64.5 0.5q0 -10 -0.5 -26t-1 -44.5t-0.5 -77.5q-5 -5 -22 -5
q-11 0 -12 7q-11 38 -43.5 65t-68.5 27h-35h-37t-26 -13q-6 -16 -10.5 -35.5t-9.5 -42.5l-30 -154q0 -1 15 -3.5t24 -2.5h79q29 0 37.5 18t20.5 44q3 7 16 7q16 0 19 -5l-36 -189q-4 -4 -21 -4q-11 0 -13 8q1 33 -6 47t-26 16.5t-54 2.5q-67 0 -69 -9l-29 -154
q-4 -20 -6 -34.5t-2 -24.5q0 -24 18.5 -26t42.5 -2h24q131 0 194 116q3 6 14 6q23 0 27 -6q-7 -13 -18.5 -35.5t-25 -48t-24.5 -49t-16 -39.5q-26 0 -69 0.5t-102 1.5q-33 1 -74 1.5t-81 0.5t-74 -3q-37 -3 -48 -3zM337 726q-9 7 -6 17q5 30 51 49q36 17 42 42q5 30 -17 30
q-30 0 -38 -36q-4 -22 -41 -22q-7 0 -12.5 4.5t-4.5 12.5q7 36 40.5 57.5t71.5 21.5q28 0 43 -16.5t10 -41.5q-5 -26 -22.5 -45.5t-39.5 -28.5q-35 -14 -38 -27v-3q-1 -2 -1 -5q-1 -2 -14.5 -5.5t-23.5 -3.5z" />
    <glyph glyph-name="Emacron" unicode="&#x112;" horiz-adv-x="542" 
d="M-11 -4q-2 2 -2 9q0 5 2.5 15t5.5 10q7 0 19.5 4t24.5 9.5t15 11.5q11 20 25 88l73 378q12 63 10 78q0 6 -10.5 12.5t-22.5 11.5t-18 5q-2 0 -2 7q0 20 7 27q55 -2 98.5 -2.5t87 0.5t95.5 2q49 1 86.5 1.5t64.5 0.5q0 -10 -0.5 -26t-1 -44.5t-0.5 -77.5q-5 -5 -22 -5
q-11 0 -12 7q-11 38 -43.5 65t-68.5 27h-35h-37t-26 -13q-6 -16 -10.5 -35.5t-9.5 -42.5l-30 -154q0 -1 15 -3.5t24 -2.5h79q29 0 37.5 18t20.5 44q3 7 16 7q16 0 19 -5l-36 -189q-4 -4 -21 -4q-11 0 -13 8q1 33 -6 47t-26 16.5t-54 2.5q-67 0 -69 -9l-29 -154
q-4 -20 -6 -34.5t-2 -24.5q0 -24 18.5 -26t42.5 -2h24q131 0 194 116q3 6 14 6q23 0 27 -6q-7 -13 -18.5 -35.5t-25 -48t-24.5 -49t-16 -39.5q-26 0 -69 0.5t-102 1.5q-33 1 -74 1.5t-81 0.5t-74 -3q-37 -3 -48 -3zM216 739q13 58 25 58h267q7 0 4 -10q-2 -11 -5 -20t-6 -16
t-6 -13t-8 -10h-268q-7 0 -3 11z" />
    <glyph glyph-name="Eogonek" unicode="&#x118;" horiz-adv-x="542" 
d="M-11 -4q-2 2 -2 9q0 5 2.5 15t5.5 10q7 0 19.5 4t24.5 9.5t15 11.5q11 20 25 88l73 378q12 63 10 78q0 6 -10.5 12.5t-22.5 11.5t-18 5q-2 0 -2 7q0 20 7 27q55 -2 98.5 -2.5t87 0.5t95.5 2q49 1 86.5 1.5t64.5 0.5q0 -10 -0.5 -26t-1 -44.5t-0.5 -77.5q-5 -5 -22 -5
q-11 0 -12 7q-11 38 -43.5 65t-68.5 27h-35h-37t-26 -13q-6 -16 -10.5 -35.5t-9.5 -42.5l-30 -154q0 -1 15 -3.5t24 -2.5h79q29 0 37.5 18t20.5 44q3 7 16 7q16 0 19 -5l-36 -189q-4 -4 -21 -4q-11 0 -13 8q1 33 -6 47t-26 16.5t-54 2.5q-67 0 -69 -9l-29 -154
q-4 -20 -6 -34.5t-2 -24.5q0 -24 18.5 -26t42.5 -2h24q131 0 194 116q3 6 14 6q23 0 27 -6q-7 -13 -18.5 -35.5t-25 -48t-24.5 -49t-16 -39.5q-26 0 -69 0.5t-102 1.5q-33 1 -74 1.5t-81 0.5t-74 -3q-37 -3 -48 -3zM283 -216q-23 0 -40 17t-17 43q0 20 12.5 44.5t32.5 49
t41 42t37 22.5l89 -4q-19 0 -42.5 -11.5t-44.5 -30t-35 -38.5t-14 -38q0 -9 7 -16.5t21 -7.5q13 0 30 7t31 13.5t16 6.5q4 0 3 -8t-3.5 -16.5t-4.5 -10.5q-22 -25 -56 -44.5t-63 -19.5z" />
    <glyph glyph-name="uni1EBC" unicode="&#x1ebc;" horiz-adv-x="542" 
d="M-11 -4q-2 2 -2 9q0 5 2.5 15t5.5 10q7 0 19.5 4t24.5 9.5t15 11.5q11 20 25 88l73 378q12 63 10 78q0 6 -10.5 12.5t-22.5 11.5t-18 5q-2 0 -2 7q0 20 7 27q55 -2 98.5 -2.5t87 0.5t95.5 2q49 1 86.5 1.5t64.5 0.5q0 -10 -0.5 -26t-1 -44.5t-0.5 -77.5q-5 -5 -22 -5
q-11 0 -12 7q-11 38 -43.5 65t-68.5 27h-35h-37t-26 -13q-6 -16 -10.5 -35.5t-9.5 -42.5l-30 -154q0 -1 15 -3.5t24 -2.5h79q29 0 37.5 18t20.5 44q3 7 16 7q16 0 19 -5l-36 -189q-4 -4 -21 -4q-11 0 -13 8q1 33 -6 47t-26 16.5t-54 2.5q-67 0 -69 -9l-29 -154
q-4 -20 -6 -34.5t-2 -24.5q0 -24 18.5 -26t42.5 -2h24q131 0 194 116q3 6 14 6q23 0 27 -6q-7 -13 -18.5 -35.5t-25 -48t-24.5 -49t-16 -39.5q-26 0 -69 0.5t-102 1.5q-33 1 -74 1.5t-81 0.5t-74 -3q-37 -3 -48 -3zM454 729q-36 0 -82 34t-83 34q-18 0 -46 -28
q-31 -29 -34 -29q-7 0 -3 22q4 25 26 50q45 51 92 51q37 0 83 -34t82 -34q17 0 46 29q27 28 32 28q8 0 4 -22q-4 -25 -27 -51q-42 -50 -90 -50z" />
    <glyph glyph-name="uni1E1A" unicode="&#x1e1a;" horiz-adv-x="598" 
d="M-11 -4q-2 2 -2 9q0 5 2.5 15t5.5 10q7 0 19.5 4t24.5 9.5t15 11.5q11 20 25 88l73 378q12 63 10 78q0 6 -10.5 12.5t-22.5 11.5t-18 5q-2 0 -2 7q0 20 7 27q55 -2 98.5 -2.5t87 0.5t95.5 2q49 1 86.5 1.5t64.5 0.5q0 -10 -0.5 -26t-1 -44.5t-0.5 -77.5q-5 -5 -22 -5
q-11 0 -12 7q-11 38 -43.5 65t-68.5 27h-35h-37t-26 -13q-6 -16 -10.5 -35.5t-9.5 -42.5l-30 -154q0 -1 15 -3.5t24 -2.5h79q29 0 37.5 18t20.5 44q3 7 16 7q16 0 19 -5l-36 -189q-4 -4 -21 -4q-11 0 -13 8q1 33 -6 47t-26 16.5t-54 2.5q-67 0 -69 -9l-29 -154
q-4 -20 -6 -34.5t-2 -24.5q0 -24 18.5 -26t42.5 -2h24q131 0 194 116q3 6 14 6q23 0 27 -6q-7 -13 -18.5 -35.5t-25 -48t-24.5 -49t-16 -39.5q-26 0 -69 0.5t-102 1.5q-33 1 -74 1.5t-81 0.5t-74 -3q-37 -3 -48 -3zM292 -183q-23 0 -45.5 15t-44.5 30t-46 15q-13 0 -38 -25
q-26 -26 -28 -26q-5 0 -5 19q0 17 17 38t41 37t43 16q23 0 45.5 -15t44.5 -30.5t45 -15.5q15 0 39 25q24 24 25 24q6 -3 6 -16q0 -9 -9.5 -24t-25 -30.5t-32.5 -26t-32 -10.5z" />
    <glyph glyph-name="F" unicode="F" horiz-adv-x="538" 
d="M-10 -4q-2 2 -2 9q0 5 2.5 15t5.5 10q7 0 19.5 4t24.5 9.5t15 11.5q11 20 25 88l73 378q12 63 10 78q0 6 -10.5 12.5t-22.5 11.5t-18 5q-2 0 -2 7q0 20 7 27q80 -3 131 -3q24 0 64 1t86 1.5t86 1.5t64 1q-1 -15 -1.5 -37.5t-0.5 -53.5v-57q-5 -5 -22 -5q-11 0 -12 7
q-11 38 -43.5 65t-68.5 27h-35q-16 0 -36.5 -1t-26.5 -12q-8 -16 -11.5 -35.5t-8.5 -42.5l-30 -154q0 -1 15 -3.5t24 -2.5h79q23 0 30 9q9 9 28 53q3 7 16 7q16 0 19 -5l-36 -189q-4 -4 -21 -4q-11 0 -13 8q-1 44 -11 54q-12 12 -75 12q-67 0 -69 -9l-29 -154q-9 -45 -9 -67
q0 -19 16 -28.5t36 -12.5t31 -3q4 0 1 -16q-3 -13 -5 -18q-65 4 -105 5.5t-54 1.5q-17 0 -41 -1.5l-48 -3t-41 -2.5z" />
    <glyph glyph-name="uni1E1E" unicode="&#x1e1e;" horiz-adv-x="538" 
d="M-10 -4q-2 2 -2 9q0 5 2.5 15t5.5 10q7 0 19.5 4t24.5 9.5t15 11.5q11 20 25 88l73 378q12 63 10 78q0 6 -10.5 12.5t-22.5 11.5t-18 5q-2 0 -2 7q0 20 7 27q80 -3 131 -3q24 0 64 1t86 1.5t86 1.5t64 1q-1 -15 -1.5 -37.5t-0.5 -53.5v-57q-5 -5 -22 -5q-11 0 -12 7
q-11 38 -43.5 65t-68.5 27h-35q-16 0 -36.5 -1t-26.5 -12q-8 -16 -11.5 -35.5t-8.5 -42.5l-30 -154q0 -1 15 -3.5t24 -2.5h79q23 0 30 9q9 9 28 53q3 7 16 7q16 0 19 -5l-36 -189q-4 -4 -21 -4q-11 0 -13 8q-1 44 -11 54q-12 12 -75 12q-67 0 -69 -9l-29 -154q-9 -45 -9 -67
q0 -19 16 -28.5t36 -12.5t31 -3q4 0 1 -16q-3 -13 -5 -18q-65 4 -105 5.5t-54 1.5q-17 0 -41 -1.5l-48 -3t-41 -2.5zM361 768q-28 0 -42 17.5t-14 40.5q0 21 10 41.5t29 34t45 13.5q29 0 42.5 -17.5t13.5 -40.5q0 -20 -10 -41t-28.5 -34.5t-45.5 -13.5z" />
    <glyph glyph-name="G" unicode="G" horiz-adv-x="655" 
d="M303 -8q-84 0 -149 34.5t-102 94t-37 133.5q0 84 32.5 158.5t87 131.5t122.5 90t138 33q100 0 207 -29q0 -8 -1 -30t-3 -48t-3.5 -46t-2.5 -24q-3 -15 -29 -15q-4 0 -13 3q-10 69 -50 101t-111 32q-57 0 -100 -34t-72 -89t-43.5 -118.5t-14.5 -122.5q0 -86 39 -143
t117 -57q43 0 86 12l27 129q6 29 6 51q0 10 -14 16t-30.5 9t-26.5 3q-2 0 -2 7q0 23 7 27l150 -6q17 0 131 6q0 -21 -3 -29t-10.5 -9t-20 -2.5t-30.5 -9.5q-17 -11 -21 -28l-24 -111q-2 -12 -4 -22t-2 -18q0 -7 -12.5 -18.5t-27.5 -19.5q-84 -42 -191 -42z" />
    <glyph glyph-name="Gbreve" unicode="&#x11e;" horiz-adv-x="655" 
d="M303 -8q-84 0 -149 34.5t-102 94t-37 133.5q0 84 32.5 158.5t87 131.5t122.5 90t138 33q100 0 207 -29q0 -8 -1 -30t-3 -48t-3.5 -46t-2.5 -24q-3 -15 -29 -15q-4 0 -13 3q-10 69 -50 101t-111 32q-57 0 -100 -34t-72 -89t-43.5 -118.5t-14.5 -122.5q0 -86 39 -143
t117 -57q43 0 86 12l27 129q6 29 6 51q0 10 -14 16t-30.5 9t-26.5 3q-2 0 -2 7q0 23 7 27l150 -6q17 0 131 6q0 -21 -3 -29t-10.5 -9t-20 -2.5t-30.5 -9.5q-17 -11 -21 -28l-24 -111q-2 -12 -4 -22t-2 -18q0 -7 -12.5 -18.5t-27.5 -19.5q-84 -42 -191 -42zM407 728
q-60 0 -86 72q-4 8 7 20.5t19 15.5q2 2 4 -2q11 -22 28.5 -33.5t38.5 -11.5q46 0 86 45q1 4 5 2t11 -13t5 -16l-2 -3l-2 -4q-54 -72 -114 -72z" />
    <glyph glyph-name="Gcircumflex" unicode="&#x11c;" horiz-adv-x="655" 
d="M303 -8q-84 0 -149 34.5t-102 94t-37 133.5q0 84 32.5 158.5t87 131.5t122.5 90t138 33q100 0 207 -29q0 -8 -1 -30t-3 -48t-3.5 -46t-2.5 -24q-3 -15 -29 -15q-4 0 -13 3q-10 69 -50 101t-111 32q-57 0 -100 -34t-72 -89t-43.5 -118.5t-14.5 -122.5q0 -86 39 -143
t117 -57q43 0 86 12l27 129q6 29 6 51q0 10 -14 16t-30.5 9t-26.5 3q-2 0 -2 7q0 23 7 27l150 -6q17 0 131 6q0 -21 -3 -29t-10.5 -9t-20 -2.5t-30.5 -9.5q-17 -11 -21 -28l-24 -111q-2 -12 -4 -22t-2 -18q0 -7 -12.5 -18.5t-27.5 -19.5q-84 -42 -191 -42zM280 727
q-11 0 -7 19q16 10 39 26t53 39q17 14 31 26t24 22q11 9 16 9q4 0 13 -9l33 -44q20 -24 36 -41t28 -28q-4 -19 -15 -19q-5 0 -26.5 10.5t-45.5 25.5t-40 26q-15 -9 -37 -19.5t-44 -20t-38 -16t-20 -6.5z" />
    <glyph glyph-name="uni0122" unicode="&#x122;" horiz-adv-x="655" 
d="M303 -8q-84 0 -149 34.5t-102 94t-37 133.5q0 84 32.5 158.5t87 131.5t122.5 90t138 33q100 0 207 -29q0 -8 -1 -30t-3 -48t-3.5 -46t-2.5 -24q-3 -15 -29 -15q-4 0 -13 3q-10 69 -50 101t-111 32q-57 0 -100 -34t-72 -89t-43.5 -118.5t-14.5 -122.5q0 -86 39 -143
t117 -57q43 0 86 12l27 129q6 29 6 51q0 10 -14 16t-30.5 9t-26.5 3q-2 0 -2 7q0 23 7 27l150 -6q17 0 131 6q0 -21 -3 -29t-10.5 -9t-20 -2.5t-30.5 -9.5q-17 -11 -21 -28l-24 -111q-2 -12 -4 -22t-2 -18q0 -7 -12.5 -18.5t-27.5 -19.5q-84 -42 -191 -42zM234 -101
q0 16 16.5 26t43 14.5t54.5 4.5q12 -13 12 -47q0 -22 -22 -46.5t-52 -43.5t-56 -25h-3q-6 0 -13.5 4.5t-7.5 9.5q0 4 14.5 14t28.5 21t14 18q0 9 -14 23q-15 14 -15 27z" />
    <glyph glyph-name="Gdotaccent" unicode="&#x120;" horiz-adv-x="655" 
d="M303 -8q-84 0 -149 34.5t-102 94t-37 133.5q0 84 32.5 158.5t87 131.5t122.5 90t138 33q100 0 207 -29q0 -8 -1 -30t-3 -48t-3.5 -46t-2.5 -24q-3 -15 -29 -15q-4 0 -13 3q-10 69 -50 101t-111 32q-57 0 -100 -34t-72 -89t-43.5 -118.5t-14.5 -122.5q0 -86 39 -143
t117 -57q43 0 86 12l27 129q6 29 6 51q0 10 -14 16t-30.5 9t-26.5 3q-2 0 -2 7q0 23 7 27l150 -6q17 0 131 6q0 -21 -3 -29t-10.5 -9t-20 -2.5t-30.5 -9.5q-17 -11 -21 -28l-24 -111q-2 -12 -4 -22t-2 -18q0 -7 -12.5 -18.5t-27.5 -19.5q-84 -42 -191 -42zM407 728
q-28 0 -41 17.5t-13 40.5q0 32 21.5 61t61.5 29q29 0 42.5 -17.5t13.5 -41.5q0 -20 -10 -41t-29 -34.5t-46 -13.5z" />
    <glyph glyph-name="uni1E20" unicode="&#x1e20;" horiz-adv-x="655" 
d="M303 -8q-84 0 -149 34.5t-102 94t-37 133.5q0 84 32.5 158.5t87 131.5t122.5 90t138 33q100 0 207 -29q0 -8 -1 -30t-3 -48t-3.5 -46t-2.5 -24q-3 -15 -29 -15q-4 0 -13 3q-10 69 -50 101t-111 32q-57 0 -100 -34t-72 -89t-43.5 -118.5t-14.5 -122.5q0 -86 39 -143
t117 -57q43 0 86 12l27 129q6 29 6 51q0 10 -14 16t-30.5 9t-26.5 3q-2 0 -2 7q0 23 7 27l150 -6q17 0 131 6q0 -21 -3 -29t-10.5 -9t-20 -2.5t-30.5 -9.5q-17 -11 -21 -28l-24 -111q-2 -12 -4 -22t-2 -18q0 -7 -12.5 -18.5t-27.5 -19.5q-84 -42 -191 -42zM261 739
q13 58 25 58h267q7 0 4 -10q-2 -11 -5 -20t-6 -16t-6 -13t-8 -10h-268q-7 0 -3 11z" />
    <glyph glyph-name="H" unicode="H" horiz-adv-x="714" 
d="M-12 -4q-1 1 -1 6q0 7 2 17.5t4 10.5q11 0 32.5 6.5t26.5 15.5q8 13 14 34t11 49l75 388q9 48 9 73q0 15 -18.5 23.5t-29.5 8.5q-1 0 -1 4q0 24 6 30q15 -1 39 -2.5t47.5 -2.5t35.5 -1q18 0 132 6v-5q0 -8 -2.5 -18.5t-5.5 -10.5q-5 0 -18.5 -4t-25.5 -9.5t-15 -10.5
q-4 -6 -9 -24t-9 -35.5t-6 -25.5l-27 -143q0 -3 21.5 -4.5t48 -2t42.5 -0.5q111 0 112 6l28 148q5 27 7 46.5t2 30.5q0 28 -48 28q-2 0 -2 6q0 20 8 28l132 -6l121 6v-6q0 -9 -2.5 -18.5t-6.5 -9.5t-17 -4t-25 -9.5t-15 -10.5q-12 -23 -24 -85l-74 -380q-5 -28 -8 -48.5
t-3 -31.5q0 -7 10 -14t22 -12t19 -8q0 -16 -8 -29q-4 0 -21 1t-38 2.5t-39 2.5t-25 1q-16 0 -44 -1.5t-52.5 -3t-32.5 -2.5q-1 1 -1 6q0 8 1.5 18t3.5 10q11 0 33 7t27 16q5 8 11 28.5t13 53.5l34 169v1q0 6 -110 6q-112 0 -114 -8l-32 -164q-5 -26 -7.5 -46t-2.5 -34
q0 -6 9.5 -13t21 -11.5t17.5 -4.5q2 0 2 -5q0 -19 -7 -29q-14 1 -39.5 2.5t-50 3t-37.5 1.5q-16 0 -43 -1.5t-51 -3t-32 -2.5z" />
    <glyph glyph-name="Hbar" unicode="&#x126;" horiz-adv-x="714" 
d="M-5 -4q-1 1 -1 6q0 7 2 17.5t4 10.5q11 0 32.5 6.5t26.5 15.5q8 13 14 34t11 49l64 331l-58 -1q-2 0 -5 1.5t-2 5.5q11 40 20 49l11 4q20 0 45 -1q9 47 9 72q0 15 -18.5 23.5t-29.5 8.5q-1 0 -1 4q0 24 6 30q15 -1 39 -2.5t47.5 -2.5t35.5 -1q18 0 132 6v-5
q0 -8 -2.5 -18.5t-5.5 -10.5q-5 0 -18.5 -4t-25.5 -10t-15 -10q-4 -6 -8.5 -22t-8.5 -33t-6 -26q39 -1 70 -1h41l113 1q5 27 7 46.5t2 30.5q0 28 -48 28q-2 0 -2 6q0 20 8 28l132 -6l121 6v-6q0 -9 -2.5 -18.5t-6.5 -9.5t-17 -4t-25 -9.5t-15 -10.5q-12 -23 -23 -80l63 1
q2 0 5.5 -1t1.5 -6q-9 -37 -21 -49l-11 -4q-12 0 -24.5 0.5t-24.5 0.5l-64 -327q-5 -28 -8 -48.5t-3 -31.5q0 -7 10 -14t22 -12t19 -8q0 -16 -8 -29q-4 0 -21 1t-38 2.5t-39 2.5t-25 1q-16 0 -44 -1.5t-52.5 -3t-32.5 -2.5q-1 1 -1 6q0 8 1.5 18t3.5 10q11 0 33 7t27 16
q5 8 11 28.5t13 53.5l34 169v1q0 6 -110 6q-112 0 -114 -8l-32 -164q-5 -26 -7.5 -46t-2.5 -34q0 -6 9.5 -13t21 -11.5t17.5 -4.5q2 0 2 -5q0 -19 -7 -29q-14 1 -39.5 2.5t-50 3t-37.5 1.5q-16 0 -43 -1.5t-51 -3t-32 -2.5zM261 376q0 -3 21.5 -4.5t48 -2t42.5 -0.5
q111 0 112 6l18 93h-56h-55l-114 -1z" />
    <glyph glyph-name="uni1E2A" unicode="&#x1e2a;" horiz-adv-x="714" 
d="M-12 -4q-1 1 -1 6q0 7 2 17.5t4 10.5q11 0 32.5 6.5t26.5 15.5q8 13 14 34t11 49l75 388q9 48 9 73q0 15 -18.5 23.5t-29.5 8.5q-1 0 -1 4q0 24 6 30q15 -1 39 -2.5t47.5 -2.5t35.5 -1q18 0 132 6v-5q0 -8 -2.5 -18.5t-5.5 -10.5q-5 0 -18.5 -4t-25.5 -9.5t-15 -10.5
q-4 -6 -9 -24t-9 -35.5t-6 -25.5l-27 -143q0 -3 21.5 -4.5t48 -2t42.5 -0.5q111 0 112 6l28 148q5 27 7 46.5t2 30.5q0 28 -48 28q-2 0 -2 6q0 20 8 28l132 -6l121 6v-6q0 -9 -2.5 -18.5t-6.5 -9.5t-17 -4t-25 -9.5t-15 -10.5q-12 -23 -24 -85l-74 -380q-5 -28 -8 -48.5
t-3 -31.5q0 -7 10 -14t22 -12t19 -8q0 -16 -8 -29q-4 0 -21 1t-38 2.5t-39 2.5t-25 1q-16 0 -44 -1.5t-52.5 -3t-32.5 -2.5q-1 1 -1 6q0 8 1.5 18t3.5 10q11 0 33 7t27 16q5 8 11 28.5t13 53.5l34 169v1q0 6 -110 6q-112 0 -114 -8l-32 -164q-5 -26 -7.5 -46t-2.5 -34
q0 -6 9.5 -13t21 -11.5t17.5 -4.5q2 0 2 -5q0 -19 -7 -29q-14 1 -39.5 2.5t-50 3t-37.5 1.5q-16 0 -43 -1.5t-51 -3t-32 -2.5zM276 -176q-37 0 -62 26t-28 66v7q1 5 14.5 13.5t18.5 8.5q3 0 3 -3q2 -27 22.5 -42.5t43.5 -15.5q22 0 45 15.5t36 42.5q2 3 4 3q5 0 15 -8.5
t9 -13.5q0 -1 -3 -7q-19 -41 -50.5 -66.5t-67.5 -25.5z" />
    <glyph glyph-name="uni1E28" unicode="&#x1e28;" horiz-adv-x="714" 
d="M-12 -4q-1 1 -1 6q0 7 2 17.5t4 10.5q11 0 32.5 6.5t26.5 15.5q8 13 14 34t11 49l75 388q9 48 9 73q0 15 -18.5 23.5t-29.5 8.5q-1 0 -1 4q0 24 6 30q15 -1 39 -2.5t47.5 -2.5t35.5 -1q18 0 132 6v-5q0 -8 -2.5 -18.5t-5.5 -10.5q-5 0 -18.5 -4t-25.5 -9.5t-15 -10.5
q-4 -6 -9 -24t-9 -35.5t-6 -25.5l-27 -143q0 -3 21.5 -4.5t48 -2t42.5 -0.5q111 0 112 6l28 148q5 27 7 46.5t2 30.5q0 28 -48 28q-2 0 -2 6q0 20 8 28l132 -6l121 6v-6q0 -9 -2.5 -18.5t-6.5 -9.5t-17 -4t-25 -9.5t-15 -10.5q-12 -23 -24 -85l-74 -380q-5 -28 -8 -48.5
t-3 -31.5q0 -7 10 -14t22 -12t19 -8q0 -16 -8 -29q-4 0 -21 1t-38 2.5t-39 2.5t-25 1q-16 0 -44 -1.5t-52.5 -3t-32.5 -2.5q-1 1 -1 6q0 8 1.5 18t3.5 10q11 0 33 7t27 16q5 8 11 28.5t13 53.5l34 169v1q0 6 -110 6q-112 0 -114 -8l-32 -164q-5 -26 -7.5 -46t-2.5 -34
q0 -6 9.5 -13t21 -11.5t17.5 -4.5q2 0 2 -5q0 -19 -7 -29q-14 1 -39.5 2.5t-50 3t-37.5 1.5q-16 0 -43 -1.5t-51 -3t-32 -2.5zM134 4h36l-22 -31q7 1 12.5 1h9.5q21 0 34.5 -14.5t13.5 -35.5q0 -22 -14.5 -46t-42.5 -40t-69 -16q-40 0 -54 8q-5 12 -5 25q0 10 7.5 18t14.5 8
q12 0 23 -10.5t29 -10.5q24 0 37.5 13t13.5 29q0 25 -21 25q-19 0 -34 -7q-2 0 -8.5 7.5t-3.5 10.5l12 18t19.5 30.5t11.5 17.5z" />
    <glyph glyph-name="Hcircumflex" unicode="&#x124;" horiz-adv-x="714" 
d="M-12 -4q-1 1 -1 6q0 7 2 17.5t4 10.5q11 0 32.5 6.5t26.5 15.5q8 13 14 34t11 49l75 388q9 48 9 73q0 15 -18.5 23.5t-29.5 8.5q-1 0 -1 4q0 24 6 30q15 -1 39 -2.5t47.5 -2.5t35.5 -1q18 0 132 6v-5q0 -8 -2.5 -18.5t-5.5 -10.5q-5 0 -18.5 -4t-25.5 -9.5t-15 -10.5
q-4 -6 -9 -24t-9 -35.5t-6 -25.5l-27 -143q0 -3 21.5 -4.5t48 -2t42.5 -0.5q111 0 112 6l28 148q5 27 7 46.5t2 30.5q0 28 -48 28q-2 0 -2 6q0 20 8 28l132 -6l121 6v-6q0 -9 -2.5 -18.5t-6.5 -9.5t-17 -4t-25 -9.5t-15 -10.5q-12 -23 -24 -85l-74 -380q-5 -28 -8 -48.5
t-3 -31.5q0 -7 10 -14t22 -12t19 -8q0 -16 -8 -29q-4 0 -21 1t-38 2.5t-39 2.5t-25 1q-16 0 -44 -1.5t-52.5 -3t-32.5 -2.5q-1 1 -1 6q0 8 1.5 18t3.5 10q11 0 33 7t27 16q5 8 11 28.5t13 53.5l34 169v1q0 6 -110 6q-112 0 -114 -8l-32 -164q-5 -26 -7.5 -46t-2.5 -34
q0 -6 9.5 -13t21 -11.5t17.5 -4.5q2 0 2 -5q0 -19 -7 -29q-14 1 -39.5 2.5t-50 3t-37.5 1.5q-16 0 -43 -1.5t-51 -3t-32 -2.5zM304 727q-11 0 -7 19q16 10 39 26t53 39q17 14 31 26t24 22q11 9 16 9q4 0 13 -9l33 -44q20 -24 36 -41t28 -28q-4 -19 -15 -19q-5 0 -26.5 10.5
t-45.5 25.5t-40 26q-15 -9 -37 -19.5t-44 -20t-38 -16t-20 -6.5z" />
    <glyph glyph-name="uni1E26" unicode="&#x1e26;" horiz-adv-x="714" 
d="M-12 -4q-1 1 -1 6q0 7 2 17.5t4 10.5q11 0 32.5 6.5t26.5 15.5q8 13 14 34t11 49l75 388q9 48 9 73q0 15 -18.5 23.5t-29.5 8.5q-1 0 -1 4q0 24 6 30q15 -1 39 -2.5t47.5 -2.5t35.5 -1q18 0 132 6v-5q0 -8 -2.5 -18.5t-5.5 -10.5q-5 0 -18.5 -4t-25.5 -9.5t-15 -10.5
q-4 -6 -9 -24t-9 -35.5t-6 -25.5l-27 -143q0 -3 21.5 -4.5t48 -2t42.5 -0.5q111 0 112 6l28 148q5 27 7 46.5t2 30.5q0 28 -48 28q-2 0 -2 6q0 20 8 28l132 -6l121 6v-6q0 -9 -2.5 -18.5t-6.5 -9.5t-17 -4t-25 -9.5t-15 -10.5q-12 -23 -24 -85l-74 -380q-5 -28 -8 -48.5
t-3 -31.5q0 -7 10 -14t22 -12t19 -8q0 -16 -8 -29q-4 0 -21 1t-38 2.5t-39 2.5t-25 1q-16 0 -44 -1.5t-52.5 -3t-32.5 -2.5q-1 1 -1 6q0 8 1.5 18t3.5 10q11 0 33 7t27 16q5 8 11 28.5t13 53.5l34 169v1q0 6 -110 6q-112 0 -114 -8l-32 -164q-5 -26 -7.5 -46t-2.5 -34
q0 -6 9.5 -13t21 -11.5t17.5 -4.5q2 0 2 -5q0 -19 -7 -29q-14 1 -39.5 2.5t-50 3t-37.5 1.5q-16 0 -43 -1.5t-51 -3t-32 -2.5zM563 874q25 0 41.5 -18t16.5 -44q0 -33 -23.5 -59t-54.5 -26q-25 0 -41.5 18t-16.5 45q0 33 23.5 58.5t54.5 25.5zM343 874q25 0 41.5 -18
t16.5 -45q0 -33 -23.5 -58.5t-54.5 -25.5q-25 0 -41.5 18t-16.5 44q0 33 23.5 59t54.5 26z" />
    <glyph glyph-name="uni1E22" unicode="&#x1e22;" horiz-adv-x="714" 
d="M-12 -4q-1 1 -1 6q0 7 2 17.5t4 10.5q11 0 32.5 6.5t26.5 15.5q8 13 14 34t11 49l75 388q9 48 9 73q0 15 -18.5 23.5t-29.5 8.5q-1 0 -1 4q0 24 6 30q15 -1 39 -2.5t47.5 -2.5t35.5 -1q18 0 132 6v-5q0 -8 -2.5 -18.5t-5.5 -10.5q-5 0 -18.5 -4t-25.5 -9.5t-15 -10.5
q-4 -6 -9 -24t-9 -35.5t-6 -25.5l-27 -143q0 -3 21.5 -4.5t48 -2t42.5 -0.5q111 0 112 6l28 148q5 27 7 46.5t2 30.5q0 28 -48 28q-2 0 -2 6q0 20 8 28l132 -6l121 6v-6q0 -9 -2.5 -18.5t-6.5 -9.5t-17 -4t-25 -9.5t-15 -10.5q-12 -23 -24 -85l-74 -380q-5 -28 -8 -48.5
t-3 -31.5q0 -7 10 -14t22 -12t19 -8q0 -16 -8 -29q-4 0 -21 1t-38 2.5t-39 2.5t-25 1q-16 0 -44 -1.5t-52.5 -3t-32.5 -2.5q-1 1 -1 6q0 8 1.5 18t3.5 10q11 0 33 7t27 16q5 8 11 28.5t13 53.5l34 169v1q0 6 -110 6q-112 0 -114 -8l-32 -164q-5 -26 -7.5 -46t-2.5 -34
q0 -6 9.5 -13t21 -11.5t17.5 -4.5q2 0 2 -5q0 -19 -7 -29q-14 1 -39.5 2.5t-50 3t-37.5 1.5q-16 0 -43 -1.5t-51 -3t-32 -2.5zM438 768q-28 0 -42 17.5t-14 40.5q0 21 10 41.5t29 34t45 13.5q29 0 42.5 -17.5t13.5 -40.5q0 -20 -10 -41t-28.5 -34.5t-45.5 -13.5z" />
    <glyph glyph-name="uni1E24" unicode="&#x1e24;" horiz-adv-x="714" 
d="M-12 -4q-1 1 -1 6q0 7 2 17.5t4 10.5q11 0 32.5 6.5t26.5 15.5q8 13 14 34t11 49l75 388q9 48 9 73q0 15 -18.5 23.5t-29.5 8.5q-1 0 -1 4q0 24 6 30q15 -1 39 -2.5t47.5 -2.5t35.5 -1q18 0 132 6v-5q0 -8 -2.5 -18.5t-5.5 -10.5q-5 0 -18.5 -4t-25.5 -9.5t-15 -10.5
q-4 -6 -9 -24t-9 -35.5t-6 -25.5l-27 -143q0 -3 21.5 -4.5t48 -2t42.5 -0.5q111 0 112 6l28 148q5 27 7 46.5t2 30.5q0 28 -48 28q-2 0 -2 6q0 20 8 28l132 -6l121 6v-6q0 -9 -2.5 -18.5t-6.5 -9.5t-17 -4t-25 -9.5t-15 -10.5q-12 -23 -24 -85l-74 -380q-5 -28 -8 -48.5
t-3 -31.5q0 -7 10 -14t22 -12t19 -8q0 -16 -8 -29q-4 0 -21 1t-38 2.5t-39 2.5t-25 1q-16 0 -44 -1.5t-52.5 -3t-32.5 -2.5q-1 1 -1 6q0 8 1.5 18t3.5 10q11 0 33 7t27 16q5 8 11 28.5t13 53.5l34 169v1q0 6 -110 6q-112 0 -114 -8l-32 -164q-5 -26 -7.5 -46t-2.5 -34
q0 -6 9.5 -13t21 -11.5t17.5 -4.5q2 0 2 -5q0 -19 -7 -29q-14 1 -39.5 2.5t-50 3t-37.5 1.5q-16 0 -43 -1.5t-51 -3t-32 -2.5zM257 -188q-28 0 -42 17.5t-14 40.5q0 21 10 41.5t29 34t45 13.5q29 0 42.5 -17.5t13.5 -40.5q0 -20 -10 -41t-28.5 -34.5t-45.5 -13.5z" />
    <glyph glyph-name="I" unicode="I" horiz-adv-x="360" 
d="M-12 -4q-1 1 -1 6q0 7 2 17.5t4 10.5q11 0 32.5 6.5t26.5 15.5q8 13 14 34t11 49l75 388q9 48 9 73q0 15 -18.5 23.5t-29.5 8.5q-1 0 -1 4q0 24 6 30q15 -1 39 -2.5t47.5 -2.5t35.5 -1q18 0 132 6v-5q0 -8 -2.5 -18.5t-5.5 -10.5q-5 0 -18.5 -4t-25.5 -9.5t-15 -10.5
q-4 -6 -9 -24t-9 -35.5t-6 -25.5l-73 -380q-5 -26 -7.5 -46t-2.5 -34q0 -6 9.5 -13t21 -11.5t17.5 -4.5q2 0 2 -5q0 -19 -7 -29q-5 0 -21 1t-36.5 2.5t-38 2.5t-24.5 1q-12 0 -39.5 -1.5t-54.5 -3.5t-39 -2z" />
    <glyph glyph-name="IJ" unicode="&#x132;" horiz-adv-x="595" 
d="M-12 -4q-1 1 -1 6q0 7 2 17.5t4 10.5q11 0 32.5 6.5t26.5 15.5q8 13 14 34t11 49l75 388q9 48 9 73q0 15 -18.5 23.5t-29.5 8.5q-1 0 -1 4q0 24 6 30q15 -1 39 -2.5t47.5 -2.5t35.5 -1q18 0 132 6v-5q0 -8 -2.5 -18.5t-5.5 -10.5q-5 0 -18.5 -4t-25.5 -9.5t-15 -10.5
q-4 -6 -9 -24t-9 -35.5t-6 -25.5l-73 -380q-5 -26 -7.5 -46t-2.5 -34q0 -6 9.5 -13t21 -11.5t17.5 -4.5q2 0 2 -5q0 -19 -7 -29q-5 0 -21 1t-36.5 2.5t-38 2.5t-24.5 1q-12 0 -39.5 -1.5t-54.5 -3.5t-39 -2zM206 -218q-14 6 -14 24q0 12 2 18q39 32 67 73t48.5 99t35.5 139
l75 388q9 48 9 73q0 15 -18.5 23.5t-29.5 8.5q-1 0 -1 4q0 24 6 30q15 -1 38.5 -2.5t47 -2.5t36.5 -1q18 0 132 6v-5q0 -8 -2.5 -18.5t-5.5 -10.5q-5 0 -18.5 -4t-25.5 -9.5t-15 -10.5q-4 -6 -9 -24t-9 -35.5t-6 -25.5l-73 -376q-25 -129 -87.5 -220t-182.5 -141z" />
    <glyph glyph-name="Iacute" unicode="&#xcd;" horiz-adv-x="360" 
d="M-12 -4q-1 1 -1 6q0 7 2 17.5t4 10.5q11 0 32.5 6.5t26.5 15.5q8 13 14 34t11 49l75 388q9 48 9 73q0 15 -18.5 23.5t-29.5 8.5q-1 0 -1 4q0 24 6 30q15 -1 39 -2.5t47.5 -2.5t35.5 -1q18 0 132 6v-5q0 -8 -2.5 -18.5t-5.5 -10.5q-5 0 -18.5 -4t-25.5 -9.5t-15 -10.5
q-4 -6 -9 -24t-9 -35.5t-6 -25.5l-73 -380q-5 -26 -7.5 -46t-2.5 -34q0 -6 9.5 -13t21 -11.5t17.5 -4.5q2 0 2 -5q0 -19 -7 -29q-5 0 -21 1t-36.5 2.5t-38 2.5t-24.5 1q-12 0 -39.5 -1.5t-54.5 -3.5t-39 -2zM211 715q-5 0 -9.5 7t-4.5 12q0 4 14 17t33.5 28.5t37.5 28.5
t26 17q14 8 32 8q24 0 47 -9t23 -29q0 -7 -17.5 -17.5t-44.5 -21t-55.5 -20t-51 -15.5t-30.5 -6z" />
    <glyph glyph-name="Ibreve" unicode="&#x12c;" horiz-adv-x="360" 
d="M-12 -4q-1 1 -1 6q0 7 2 17.5t4 10.5q11 0 32.5 6.5t26.5 15.5q8 13 14 34t11 49l75 388q9 48 9 73q0 15 -18.5 23.5t-29.5 8.5q-1 0 -1 4q0 24 6 30q15 -1 39 -2.5t47.5 -2.5t35.5 -1q18 0 132 6v-5q0 -8 -2.5 -18.5t-5.5 -10.5q-5 0 -18.5 -4t-25.5 -9.5t-15 -10.5
q-4 -6 -9 -24t-9 -35.5t-6 -25.5l-73 -380q-5 -26 -7.5 -46t-2.5 -34q0 -6 9.5 -13t21 -11.5t17.5 -4.5q2 0 2 -5q0 -19 -7 -29q-5 0 -21 1t-36.5 2.5t-38 2.5t-24.5 1q-12 0 -39.5 -1.5t-54.5 -3.5t-39 -2zM255 728q-60 0 -86 72q-4 8 7 20.5t19 15.5q2 2 4 -2
q11 -22 28.5 -33.5t38.5 -11.5q46 0 86 45q1 4 5 2t11 -13t5 -16l-2 -3l-2 -4q-54 -72 -114 -72z" />
    <glyph glyph-name="uni01CF" unicode="&#x1cf;" horiz-adv-x="360" 
d="M-12 -4q-1 1 -1 6q0 7 2 17.5t4 10.5q11 0 32.5 6.5t26.5 15.5q8 13 14 34t11 49l75 388q9 48 9 73q0 15 -18.5 23.5t-29.5 8.5q-1 0 -1 4q0 24 6 30q15 -1 39 -2.5t47.5 -2.5t35.5 -1q18 0 132 6v-5q0 -8 -2.5 -18.5t-5.5 -10.5q-5 0 -18.5 -4t-25.5 -9.5t-15 -10.5
q-4 -6 -9 -24t-9 -35.5t-6 -25.5l-73 -380q-5 -26 -7.5 -46t-2.5 -34q0 -6 9.5 -13t21 -11.5t17.5 -4.5q2 0 2 -5q0 -19 -7 -29q-5 0 -21 1t-36.5 2.5t-38 2.5t-24.5 1q-12 0 -39.5 -1.5t-54.5 -3.5t-39 -2zM252 728q-5 0 -10 9q-5 11 -13 22.5t-18 24.5q-17 23 -30.5 39.5
t-24.5 26.5q5 17 17 18t28 -9t34 -24.5t34 -27.5q19 12 45.5 26.5t49.5 25t28 10.5q10 0 6 -19q-12 -8 -33.5 -25t-50.5 -45l-46 -43q-10 -9 -16 -9z" />
    <glyph glyph-name="Icircumflex" unicode="&#xce;" horiz-adv-x="360" 
d="M-12 -4q-1 1 -1 6q0 7 2 17.5t4 10.5q11 0 32.5 6.5t26.5 15.5q8 13 14 34t11 49l75 388q9 48 9 73q0 15 -18.5 23.5t-29.5 8.5q-1 0 -1 4q0 24 6 30q15 -1 39 -2.5t47.5 -2.5t35.5 -1q18 0 132 6v-5q0 -8 -2.5 -18.5t-5.5 -10.5q-5 0 -18.5 -4t-25.5 -9.5t-15 -10.5
q-4 -6 -9 -24t-9 -35.5t-6 -25.5l-73 -380q-5 -26 -7.5 -46t-2.5 -34q0 -6 9.5 -13t21 -11.5t17.5 -4.5q2 0 2 -5q0 -19 -7 -29q-5 0 -21 1t-36.5 2.5t-38 2.5t-24.5 1q-12 0 -39.5 -1.5t-54.5 -3.5t-39 -2zM128 727q-11 0 -7 19q16 10 39 26t53 39q17 14 31 26t24 22
q11 9 16 9q4 0 13 -9l33 -44q20 -24 36 -41t28 -28q-4 -19 -15 -19q-5 0 -26.5 10.5t-45.5 25.5t-40 26q-15 -9 -37 -19.5t-44 -20t-38 -16t-20 -6.5z" />
    <glyph glyph-name="Idieresis" unicode="&#xcf;" horiz-adv-x="360" 
d="M-12 -4q-1 1 -1 6q0 7 2 17.5t4 10.5q11 0 32.5 6.5t26.5 15.5q8 13 14 34t11 49l75 388q9 48 9 73q0 15 -18.5 23.5t-29.5 8.5q-1 0 -1 4q0 24 6 30q15 -1 39 -2.5t47.5 -2.5t35.5 -1q18 0 132 6v-5q0 -8 -2.5 -18.5t-5.5 -10.5q-5 0 -18.5 -4t-25.5 -9.5t-15 -10.5
q-4 -6 -9 -24t-9 -35.5t-6 -25.5l-73 -380q-5 -26 -7.5 -46t-2.5 -34q0 -6 9.5 -13t21 -11.5t17.5 -4.5q2 0 2 -5q0 -19 -7 -29q-5 0 -21 1t-36.5 2.5t-38 2.5t-24.5 1q-12 0 -39.5 -1.5t-54.5 -3.5t-39 -2zM358 724q-28 0 -42 17.5t-14 41.5q0 21 10 41.5t29 34t45 13.5
q29 0 42.5 -17.5t13.5 -41.5q0 -20 -10 -41t-28.5 -34.5t-45.5 -13.5zM144 724q-28 0 -42 17.5t-14 41.5q0 21 10 41.5t29 34t45 13.5q29 0 42.5 -17.5t13.5 -41.5q0 -20 -10 -41t-28.5 -34.5t-45.5 -13.5z" />
    <glyph glyph-name="uni1E2E" unicode="&#x1e2e;" horiz-adv-x="360" 
d="M-12 -4q-1 1 -1 6q0 7 2 17.5t4 10.5q11 0 32.5 6.5t26.5 15.5q8 13 14 34t11 49l75 388q9 48 9 73q0 15 -18.5 23.5t-29.5 8.5q-1 0 -1 4q0 24 6 30q15 -1 39 -2.5t47.5 -2.5t35.5 -1q18 0 132 6v-5q0 -8 -2.5 -18.5t-5.5 -10.5q-5 0 -18.5 -4t-25.5 -9.5t-15 -10.5
q-4 -6 -9 -24t-9 -35.5t-6 -25.5l-73 -380q-5 -26 -7.5 -46t-2.5 -34q0 -6 9.5 -13t21 -11.5t17.5 -4.5q2 0 2 -5q0 -19 -7 -29q-5 0 -21 1t-36.5 2.5t-38 2.5t-24.5 1q-12 0 -39.5 -1.5t-54.5 -3.5t-39 -2zM387 874q25 0 41.5 -18t16.5 -44q0 -33 -23.5 -59t-54.5 -26
q-25 0 -41.5 18t-16.5 45q0 33 23.5 58.5t54.5 25.5zM167 874q25 0 41.5 -18t16.5 -45q0 -33 -23.5 -58.5t-54.5 -25.5q-25 0 -41.5 18t-16.5 44q0 33 23.5 59t54.5 26zM239 903q-5 0 -9.5 7t-4.5 12q0 4 14 17t33.5 28.5t37.5 28.5t26 17q14 8 32 8q24 0 47 -9t23 -29
q0 -7 -17.5 -17.5t-44.5 -21t-55.5 -20t-51 -15.5t-30.5 -6z" />
    <glyph glyph-name="Idotaccent" unicode="&#x130;" horiz-adv-x="360" 
d="M-12 -4q-1 1 -1 6q0 7 2 17.5t4 10.5q11 0 32.5 6.5t26.5 15.5q8 13 14 34t11 49l75 388q9 48 9 73q0 15 -18.5 23.5t-29.5 8.5q-1 0 -1 4q0 24 6 30q15 -1 39 -2.5t47.5 -2.5t35.5 -1q18 0 132 6v-5q0 -8 -2.5 -18.5t-5.5 -10.5q-5 0 -18.5 -4t-25.5 -9.5t-15 -10.5
q-4 -6 -9 -24t-9 -35.5t-6 -25.5l-73 -380q-5 -26 -7.5 -46t-2.5 -34q0 -6 9.5 -13t21 -11.5t17.5 -4.5q2 0 2 -5q0 -19 -7 -29q-5 0 -21 1t-36.5 2.5t-38 2.5t-24.5 1q-12 0 -39.5 -1.5t-54.5 -3.5t-39 -2zM255 728q-28 0 -41 17.5t-13 40.5q0 32 21.5 61t61.5 29
q29 0 42.5 -17.5t13.5 -41.5q0 -20 -10 -41t-29 -34.5t-46 -13.5z" />
    <glyph glyph-name="uni1ECA" unicode="&#x1eca;" horiz-adv-x="360" 
d="M-12 -4q-1 1 -1 6q0 7 2 17.5t4 10.5q11 0 32.5 6.5t26.5 15.5q8 13 14 34t11 49l75 388q9 48 9 73q0 15 -18.5 23.5t-29.5 8.5q-1 0 -1 4q0 24 6 30q15 -1 39 -2.5t47.5 -2.5t35.5 -1q18 0 132 6v-5q0 -8 -2.5 -18.5t-5.5 -10.5q-5 0 -18.5 -4t-25.5 -9.5t-15 -10.5
q-4 -6 -9 -24t-9 -35.5t-6 -25.5l-73 -380q-5 -26 -7.5 -46t-2.5 -34q0 -6 9.5 -13t21 -11.5t17.5 -4.5q2 0 2 -5q0 -19 -7 -29q-5 0 -21 1t-36.5 2.5t-38 2.5t-24.5 1q-12 0 -39.5 -1.5t-54.5 -3.5t-39 -2zM78 -193q-28 0 -42 17.5t-14 40.5q0 21 10 41.5t29 34t45 13.5
q29 0 42.5 -17.5t13.5 -40.5q0 -20 -10 -41t-28.5 -34.5t-45.5 -13.5z" />
    <glyph glyph-name="Igrave" unicode="&#xcc;" horiz-adv-x="360" 
d="M-12 -4q-1 1 -1 6q0 7 2 17.5t4 10.5q11 0 32.5 6.5t26.5 15.5q8 13 14 34t11 49l75 388q9 48 9 73q0 15 -18.5 23.5t-29.5 8.5q-1 0 -1 4q0 24 6 30q15 -1 39 -2.5t47.5 -2.5t35.5 -1q18 0 132 6v-5q0 -8 -2.5 -18.5t-5.5 -10.5q-5 0 -18.5 -4t-25.5 -9.5t-15 -10.5
q-4 -6 -9 -24t-9 -35.5t-6 -25.5l-73 -380q-5 -26 -7.5 -46t-2.5 -34q0 -6 9.5 -13t21 -11.5t17.5 -4.5q2 0 2 -5q0 -19 -7 -29q-5 0 -21 1t-36.5 2.5t-38 2.5t-24.5 1q-12 0 -39.5 -1.5t-54.5 -3.5t-39 -2zM350 716q-8 0 -30.5 6t-51 15.5t-55.5 20t-44.5 21t-17.5 17.5
q0 20 23 29t47 9q20 0 32 -8q8 -4 26 -17t37.5 -28.5t33.5 -28t14 -17.5q0 -4 -4.5 -11.5t-9.5 -7.5z" />
    <glyph glyph-name="uni1EC8" unicode="&#x1ec8;" horiz-adv-x="360" 
d="M-12 -4q-1 1 -1 6q0 7 2 17.5t4 10.5q11 0 32.5 6.5t26.5 15.5q8 13 14 34t11 49l75 388q9 48 9 73q0 15 -18.5 23.5t-29.5 8.5q-1 0 -1 4q0 24 6 30q15 -1 39 -2.5t47.5 -2.5t35.5 -1q18 0 132 6v-5q0 -8 -2.5 -18.5t-5.5 -10.5q-5 0 -18.5 -4t-25.5 -9.5t-15 -10.5
q-4 -6 -9 -24t-9 -35.5t-6 -25.5l-73 -380q-5 -26 -7.5 -46t-2.5 -34q0 -6 9.5 -13t21 -11.5t17.5 -4.5q2 0 2 -5q0 -19 -7 -29q-5 0 -21 1t-36.5 2.5t-38 2.5t-24.5 1q-12 0 -39.5 -1.5t-54.5 -3.5t-39 -2zM230 726q-9 7 -6 17q5 30 51 49q36 17 42 42q5 30 -17 30
q-30 0 -38 -36q-4 -22 -41 -22q-7 0 -12.5 4.5t-4.5 12.5q7 36 40.5 57.5t71.5 21.5q28 0 43 -16.5t10 -41.5q-5 -26 -22.5 -45.5t-39.5 -28.5q-35 -14 -38 -27v-3q-1 -2 -1 -5q-1 -2 -14.5 -5.5t-23.5 -3.5z" />
    <glyph glyph-name="Imacron" unicode="&#x12a;" horiz-adv-x="360" 
d="M-12 -4q-1 1 -1 6q0 7 2 17.5t4 10.5q11 0 32.5 6.5t26.5 15.5q8 13 14 34t11 49l75 388q9 48 9 73q0 15 -18.5 23.5t-29.5 8.5q-1 0 -1 4q0 24 6 30q15 -1 39 -2.5t47.5 -2.5t35.5 -1q18 0 132 6v-5q0 -8 -2.5 -18.5t-5.5 -10.5q-5 0 -18.5 -4t-25.5 -9.5t-15 -10.5
q-4 -6 -9 -24t-9 -35.5t-6 -25.5l-73 -380q-5 -26 -7.5 -46t-2.5 -34q0 -6 9.5 -13t21 -11.5t17.5 -4.5q2 0 2 -5q0 -19 -7 -29q-5 0 -21 1t-36.5 2.5t-38 2.5t-24.5 1q-12 0 -39.5 -1.5t-54.5 -3.5t-39 -2zM109 739q13 58 25 58h267q7 0 4 -10q-2 -11 -5 -20t-6 -16t-6 -13
t-8 -10h-268q-7 0 -3 11z" />
    <glyph glyph-name="Iogonek" unicode="&#x12e;" horiz-adv-x="360" 
d="M-12 -4q-1 1 -1 6q0 7 2 17.5t4 10.5q11 0 32.5 6.5t26.5 15.5q8 13 14 34t11 49l75 388q9 48 9 73q0 15 -18.5 23.5t-29.5 8.5q-1 0 -1 4q0 24 6 30q15 -1 39 -2.5t47.5 -2.5t35.5 -1q18 0 132 6v-5q0 -8 -2.5 -18.5t-5.5 -10.5q-5 0 -18.5 -4t-25.5 -9.5t-15 -10.5
q-4 -6 -9 -24t-9 -35.5t-6 -25.5l-73 -380q-5 -26 -7.5 -46t-2.5 -34q0 -6 9.5 -13t21 -11.5t17.5 -4.5q2 0 2 -5q0 -19 -7 -29q-5 0 -21 1t-36.5 2.5t-38 2.5t-24.5 1q-12 0 -39.5 -1.5t-54.5 -3.5t-39 -2zM40 -214q-23 0 -40 17t-17 43q0 20 12.5 44.5t32.5 49t41 42
t37 22.5l89 -4q-19 0 -42.5 -11.5t-44.5 -30t-35 -38.5t-14 -38q0 -9 7 -16.5t21 -7.5q13 0 30 7t31 13.5t16 6.5q4 0 3 -8t-3.5 -16.5t-4.5 -10.5q-22 -25 -56 -44.5t-63 -19.5z" />
    <glyph glyph-name="Itilde" unicode="&#x128;" horiz-adv-x="360" 
d="M-12 -4q-1 1 -1 6q0 7 2 17.5t4 10.5q11 0 32.5 6.5t26.5 15.5q8 13 14 34t11 49l75 388q9 48 9 73q0 15 -18.5 23.5t-29.5 8.5q-1 0 -1 4q0 24 6 30q15 -1 39 -2.5t47.5 -2.5t35.5 -1q18 0 132 6v-5q0 -8 -2.5 -18.5t-5.5 -10.5q-5 0 -18.5 -4t-25.5 -9.5t-15 -10.5
q-4 -6 -9 -24t-9 -35.5t-6 -25.5l-73 -380q-5 -26 -7.5 -46t-2.5 -34q0 -6 9.5 -13t21 -11.5t17.5 -4.5q2 0 2 -5q0 -19 -7 -29q-5 0 -21 1t-36.5 2.5t-38 2.5t-24.5 1q-12 0 -39.5 -1.5t-54.5 -3.5t-39 -2zM347 729q-36 0 -82 34t-83 34q-18 0 -46 -28q-31 -29 -34 -29
q-7 0 -3 22q4 25 26 50q45 51 92 51q37 0 83 -34t82 -34q17 0 46 29q27 28 32 28q8 0 4 -22q-4 -25 -27 -51q-42 -50 -90 -50z" />
    <glyph glyph-name="J" unicode="J" horiz-adv-x="345" 
d="M-44 -218q-14 6 -14 24q0 12 2 18q39 32 67 73t48.5 99t35.5 139l75 388q9 48 9 73q0 15 -18.5 23.5t-29.5 8.5q-1 0 -1 4q0 24 6 30q15 -1 38.5 -2.5t47 -2.5t36.5 -1q18 0 132 6v-5q0 -8 -2.5 -18.5t-5.5 -10.5q-5 0 -18.5 -4t-25.5 -9.5t-15 -10.5q-4 -6 -9 -24
t-9 -35.5t-6 -25.5l-73 -376q-25 -129 -87.5 -220t-182.5 -141z" />
    <glyph glyph-name="Jcircumflex" unicode="&#x134;" horiz-adv-x="345" 
d="M-44 -218q-14 6 -14 24q0 12 2 18q39 32 67 73t48.5 99t35.5 139l75 388q9 48 9 73q0 15 -18.5 23.5t-29.5 8.5q-1 0 -1 4q0 24 6 30q15 -1 38.5 -2.5t47 -2.5t36.5 -1q18 0 132 6v-5q0 -8 -2.5 -18.5t-5.5 -10.5q-5 0 -18.5 -4t-25.5 -9.5t-15 -10.5q-4 -6 -9 -24
t-9 -35.5t-6 -25.5l-73 -376q-25 -129 -87.5 -220t-182.5 -141zM165 727q-11 0 -7 19q16 10 39 26t53 39q17 14 31 26t24 22q11 9 16 9q4 0 13 -9l33 -44q20 -24 36 -41t28 -28q-4 -19 -15 -19q-5 0 -26.5 10.5t-45.5 25.5t-40 26q-15 -9 -37 -19.5t-44 -20t-38 -16
t-20 -6.5z" />
    <glyph glyph-name="K" unicode="K" horiz-adv-x="687" 
d="M-12 -4q-1 1 -1 6q0 7 2 17.5t4 10.5q11 0 32.5 6.5t26.5 15.5q8 13 14 34t11 49l75 388q9 48 9 73q0 15 -18.5 23.5t-29.5 8.5q-1 0 -1 4q0 24 6 30q15 -1 39 -2.5t47.5 -2.5t35.5 -1q18 0 132 6v-5q0 -8 -2.5 -18.5t-5.5 -10.5q-5 0 -18.5 -4t-25.5 -9.5t-15 -10.5
q-4 -6 -9 -24t-9 -35.5t-6 -25.5l-36 -186q42 27 94 76q26 24 71.5 68.5t109.5 108.5q12 12 12 24q0 6 -10 10.5t-22 7t-20 2.5q-3 0 -3 11q0 14 4 21q51 -3 82 -5t42 -1l118 6q0 -9 -2.5 -20.5t-5.5 -11.5q-75 -7 -111 -45l-213 -222q-10 -10 -10 -20q0 -4 3 -9l155 -222
q33 -47 59.5 -64.5t57.5 -17.5q3 0 3 -8q0 -12 -7 -22q-14 -3 -43 -3.5t-57.5 1.5t-42.5 4q-34 6 -57.5 25.5t-42.5 48.5l-164 257l-37 -194q-5 -26 -7.5 -46t-2.5 -34q0 -6 9.5 -13t21 -11.5t17.5 -4.5q2 0 2 -5q0 -19 -7 -29q-14 1 -39.5 2.5t-50 3t-37.5 1.5
q-16 0 -43 -1.5t-51 -3t-32 -2.5z" />
    <glyph glyph-name="uni1E30" unicode="&#x1e30;" horiz-adv-x="687" 
d="M-12 -4q-1 1 -1 6q0 7 2 17.5t4 10.5q11 0 32.5 6.5t26.5 15.5q8 13 14 34t11 49l75 388q9 48 9 73q0 15 -18.5 23.5t-29.5 8.5q-1 0 -1 4q0 24 6 30q15 -1 39 -2.5t47.5 -2.5t35.5 -1q18 0 132 6v-5q0 -8 -2.5 -18.5t-5.5 -10.5q-5 0 -18.5 -4t-25.5 -9.5t-15 -10.5
q-4 -6 -9 -24t-9 -35.5t-6 -25.5l-36 -186q42 27 94 76q26 24 71.5 68.5t109.5 108.5q12 12 12 24q0 6 -10 10.5t-22 7t-20 2.5q-3 0 -3 11q0 14 4 21q51 -3 82 -5t42 -1l118 6q0 -9 -2.5 -20.5t-5.5 -11.5q-75 -7 -111 -45l-213 -222q-10 -10 -10 -20q0 -4 3 -9l155 -222
q33 -47 59.5 -64.5t57.5 -17.5q3 0 3 -8q0 -12 -7 -22q-14 -3 -43 -3.5t-57.5 1.5t-42.5 4q-34 6 -57.5 25.5t-42.5 48.5l-164 257l-37 -194q-5 -26 -7.5 -46t-2.5 -34q0 -6 9.5 -13t21 -11.5t17.5 -4.5q2 0 2 -5q0 -19 -7 -29q-14 1 -39.5 2.5t-50 3t-37.5 1.5
q-16 0 -43 -1.5t-51 -3t-32 -2.5zM326 715q-5 0 -9.5 7t-4.5 12q0 4 14 17t33.5 28.5t37.5 28.5t26 17q14 8 32 8q24 0 47 -9t23 -29q0 -7 -17.5 -17.5t-44.5 -21t-55.5 -20t-51 -15.5t-30.5 -6z" />
    <glyph glyph-name="uni0136" unicode="&#x136;" horiz-adv-x="687" 
d="M-12 -4q-1 1 -1 6q0 7 2 17.5t4 10.5q11 0 32.5 6.5t26.5 15.5q8 13 14 34t11 49l75 388q9 48 9 73q0 15 -18.5 23.5t-29.5 8.5q-1 0 -1 4q0 24 6 30q15 -1 39 -2.5t47.5 -2.5t35.5 -1q18 0 132 6v-5q0 -8 -2.5 -18.5t-5.5 -10.5q-5 0 -18.5 -4t-25.5 -9.5t-15 -10.5
q-4 -6 -9 -24t-9 -35.5t-6 -25.5l-36 -186q42 27 94 76q26 24 71.5 68.5t109.5 108.5q12 12 12 24q0 6 -10 10.5t-22 7t-20 2.5q-3 0 -3 11q0 14 4 21q51 -3 82 -5t42 -1l118 6q0 -9 -2.5 -20.5t-5.5 -11.5q-75 -7 -111 -45l-213 -222q-10 -10 -10 -20q0 -4 3 -9l155 -222
q33 -47 59.5 -64.5t57.5 -17.5q3 0 3 -8q0 -12 -7 -22q-14 -3 -43 -3.5t-57.5 1.5t-42.5 4q-34 6 -57.5 25.5t-42.5 48.5l-164 257l-37 -194q-5 -26 -7.5 -46t-2.5 -34q0 -6 9.5 -13t21 -11.5t17.5 -4.5q2 0 2 -5q0 -19 -7 -29q-14 1 -39.5 2.5t-50 3t-37.5 1.5
q-16 0 -43 -1.5t-51 -3t-32 -2.5zM218 -101q0 16 16.5 26t43 14.5t54.5 4.5q12 -13 12 -47q0 -22 -22 -46.5t-52 -43.5t-56 -25h-3q-6 0 -13.5 4.5t-7.5 9.5q0 4 14.5 14t28.5 21t14 18q0 9 -14 23q-15 14 -15 27z" />
    <glyph glyph-name="uni1E32" unicode="&#x1e32;" horiz-adv-x="687" 
d="M-12 -4q-1 1 -1 6q0 7 2 17.5t4 10.5q11 0 32.5 6.5t26.5 15.5q8 13 14 34t11 49l75 388q9 48 9 73q0 15 -18.5 23.5t-29.5 8.5q-1 0 -1 4q0 24 6 30q15 -1 39 -2.5t47.5 -2.5t35.5 -1q18 0 132 6v-5q0 -8 -2.5 -18.5t-5.5 -10.5q-5 0 -18.5 -4t-25.5 -9.5t-15 -10.5
q-4 -6 -9 -24t-9 -35.5t-6 -25.5l-36 -186q42 27 94 76q26 24 71.5 68.5t109.5 108.5q12 12 12 24q0 6 -10 10.5t-22 7t-20 2.5q-3 0 -3 11q0 14 4 21q51 -3 82 -5t42 -1l118 6q0 -9 -2.5 -20.5t-5.5 -11.5q-75 -7 -111 -45l-213 -222q-10 -10 -10 -20q0 -4 3 -9l155 -222
q33 -47 59.5 -64.5t57.5 -17.5q3 0 3 -8q0 -12 -7 -22q-14 -3 -43 -3.5t-57.5 1.5t-42.5 4q-34 6 -57.5 25.5t-42.5 48.5l-164 257l-37 -194q-5 -26 -7.5 -46t-2.5 -34q0 -6 9.5 -13t21 -11.5t17.5 -4.5q2 0 2 -5q0 -19 -7 -29q-14 1 -39.5 2.5t-50 3t-37.5 1.5
q-16 0 -43 -1.5t-51 -3t-32 -2.5zM276 -193q-28 0 -42 17.5t-14 40.5q0 21 10 41.5t29 34t45 13.5q29 0 42.5 -17.5t13.5 -40.5q0 -20 -10 -41t-28.5 -34.5t-45.5 -13.5z" />
    <glyph glyph-name="Kmacronbelow" unicode="&#x1e34;" horiz-adv-x="687" 
d="M-12 -4q-1 1 -1 6q0 7 2 17.5t4 10.5q11 0 32.5 6.5t26.5 15.5q8 13 14 34t11 49l75 388q9 48 9 73q0 15 -18.5 23.5t-29.5 8.5q-1 0 -1 4q0 24 6 30q15 -1 39 -2.5t47.5 -2.5t35.5 -1q18 0 132 6v-5q0 -8 -2.5 -18.5t-5.5 -10.5q-5 0 -18.5 -4t-25.5 -9.5t-15 -10.5
q-4 -6 -9 -24t-9 -35.5t-6 -25.5l-36 -186q42 27 94 76q26 24 71.5 68.5t109.5 108.5q12 12 12 24q0 6 -10 10.5t-22 7t-20 2.5q-3 0 -3 11q0 14 4 21q51 -3 82 -5t42 -1l118 6q0 -9 -2.5 -20.5t-5.5 -11.5q-75 -7 -111 -45l-213 -222q-10 -10 -10 -20q0 -4 3 -9l155 -222
q33 -47 59.5 -64.5t57.5 -17.5q3 0 3 -8q0 -12 -7 -22q-14 -3 -43 -3.5t-57.5 1.5t-42.5 4q-34 6 -57.5 25.5t-42.5 48.5l-164 257l-37 -194q-5 -26 -7.5 -46t-2.5 -34q0 -6 9.5 -13t21 -11.5t17.5 -4.5q2 0 2 -5q0 -19 -7 -29q-14 1 -39.5 2.5t-50 3t-37.5 1.5
q-16 0 -43 -1.5t-51 -3t-32 -2.5zM211 -134q13 58 25 58h267q7 0 4 -10q-2 -11 -5 -20t-6 -16t-6 -13t-8 -10h-268q-7 0 -3 11z" />
    <glyph glyph-name="L" unicode="L" horiz-adv-x="522" 
d="M-11 -4q-2 6 -2 9q0 6 2.5 15.5t4.5 9.5q7 0 20.5 4t26.5 10.5t15 11.5q10 22 21 79l75 388q9 48 9 73q0 15 -18.5 23.5t-29.5 8.5q-1 0 -1 4q0 24 6 30q15 -1 39 -2.5t47.5 -2.5t35.5 -1q18 0 132 6v-5q0 -8 -2.5 -18.5t-5.5 -10.5q-5 0 -18.5 -4t-25.5 -9.5t-15 -10.5
q-4 -6 -9 -24t-9 -35.5t-6 -25.5l-73 -380q-4 -21 -6 -45t9 -34q4 -4 20 -5t55 -1q131 0 194 116q3 6 14 6q23 0 27 -6q-7 -13 -18.5 -35.5t-25 -48t-24.5 -49t-16 -39.5q-26 0 -67.5 0.5t-97.5 1.5t-94 1.5t-58 0.5q-24 0 -56.5 -1t-53.5 -3z" />
    <glyph glyph-name="Lacute" unicode="&#x139;" horiz-adv-x="522" 
d="M-11 -4q-2 6 -2 9q0 6 2.5 15.5t4.5 9.5q7 0 20.5 4t26.5 10.5t15 11.5q10 22 21 79l75 388q9 48 9 73q0 15 -18.5 23.5t-29.5 8.5q-1 0 -1 4q0 24 6 30q15 -1 39 -2.5t47.5 -2.5t35.5 -1q18 0 132 6v-5q0 -8 -2.5 -18.5t-5.5 -10.5q-5 0 -18.5 -4t-25.5 -9.5t-15 -10.5
q-4 -6 -9 -24t-9 -35.5t-6 -25.5l-73 -380q-4 -21 -6 -45t9 -34q4 -4 20 -5t55 -1q131 0 194 116q3 6 14 6q23 0 27 -6q-7 -13 -18.5 -35.5t-25 -48t-24.5 -49t-16 -39.5q-26 0 -67.5 0.5t-97.5 1.5t-94 1.5t-58 0.5q-24 0 -56.5 -1t-53.5 -3zM217 715q-5 0 -9.5 7t-4.5 12
q0 4 14 17t33.5 28.5t37.5 28.5t26 17q14 8 32 8q24 0 47 -9t23 -29q0 -7 -17.5 -17.5t-44.5 -21t-55.5 -20t-51 -15.5t-30.5 -6z" />
    <glyph glyph-name="Lcaron" unicode="&#x13d;" horiz-adv-x="522" 
d="M-11 -4q-2 6 -2 9q0 6 2.5 15.5t4.5 9.5q7 0 20.5 4t26.5 10.5t15 11.5q10 22 21 79l75 388q9 48 9 73q0 15 -18.5 23.5t-29.5 8.5q-1 0 -1 4q0 24 6 30q15 -1 39 -2.5t47.5 -2.5t35.5 -1q18 0 132 6v-5q0 -8 -2.5 -18.5t-5.5 -10.5q-5 0 -18.5 -4t-25.5 -9.5t-15 -10.5
q-4 -6 -9 -24t-9 -35.5t-6 -25.5l-73 -380q-4 -21 -6 -45t9 -34q4 -4 20 -5t55 -1q131 0 194 116q3 6 14 6q23 0 27 -6q-7 -13 -18.5 -35.5t-25 -48t-24.5 -49t-16 -39.5q-26 0 -67.5 0.5t-97.5 1.5t-94 1.5t-58 0.5q-24 0 -56.5 -1t-53.5 -3zM504 490l9 9.5t21 23.5
t21 27.5t9 22.5q0 16 -10.5 26t-10.5 31q0 65 94 65q3 -9 3 -27q0 -54 -30.5 -109.5t-85.5 -90.5h-2q-4 0 -11 8.5t-7 13.5z" />
    <glyph glyph-name="uni1E3C" unicode="&#x1e3c;" horiz-adv-x="522" 
d="M-11 -4q-2 6 -2 9q0 6 2.5 15.5t4.5 9.5q7 0 20.5 4t26.5 10.5t15 11.5q10 22 21 79l75 388q9 48 9 73q0 15 -18.5 23.5t-29.5 8.5q-1 0 -1 4q0 24 6 30q15 -1 39 -2.5t47.5 -2.5t35.5 -1q18 0 132 6v-5q0 -8 -2.5 -18.5t-5.5 -10.5q-5 0 -18.5 -4t-25.5 -9.5t-15 -10.5
q-4 -6 -9 -24t-9 -35.5t-6 -25.5l-73 -380q-4 -21 -6 -45t9 -34q4 -4 20 -5t55 -1q131 0 194 116q3 6 14 6q23 0 27 -6q-7 -13 -18.5 -35.5t-25 -48t-24.5 -49t-16 -39.5q-26 0 -67.5 0.5t-97.5 1.5t-94 1.5t-58 0.5q-24 0 -56.5 -1t-53.5 -3zM83 -225q-11 0 -7 19
q16 10 39 26t53 39q17 14 31 26t24 22q11 9 16 9q4 0 13 -9l33 -44q20 -24 36 -41t28 -28q-4 -19 -15 -19q-5 0 -26.5 10.5t-45.5 25.5t-40 26q-15 -9 -37 -19.5t-44 -20t-38 -16t-20 -6.5z" />
    <glyph glyph-name="uni013B" unicode="&#x13b;" horiz-adv-x="522" 
d="M-11 -4q-2 6 -2 9q0 6 2.5 15.5t4.5 9.5q7 0 20.5 4t26.5 10.5t15 11.5q10 22 21 79l75 388q9 48 9 73q0 15 -18.5 23.5t-29.5 8.5q-1 0 -1 4q0 24 6 30q15 -1 39 -2.5t47.5 -2.5t35.5 -1q18 0 132 6v-5q0 -8 -2.5 -18.5t-5.5 -10.5q-5 0 -18.5 -4t-25.5 -9.5t-15 -10.5
q-4 -6 -9 -24t-9 -35.5t-6 -25.5l-73 -380q-4 -21 -6 -45t9 -34q4 -4 20 -5t55 -1q131 0 194 116q3 6 14 6q23 0 27 -6q-7 -13 -18.5 -35.5t-25 -48t-24.5 -49t-16 -39.5q-26 0 -67.5 0.5t-97.5 1.5t-94 1.5t-58 0.5q-24 0 -56.5 -1t-53.5 -3zM193 -101q0 16 16.5 26
t43 14.5t54.5 4.5q12 -13 12 -47q0 -22 -22 -46.5t-52 -43.5t-56 -25h-3q-6 0 -13.5 4.5t-7.5 9.5q0 4 14.5 14t28.5 21t14 18q0 9 -14 23q-15 14 -15 27z" />
    <glyph glyph-name="Ldot" unicode="&#x13f;" horiz-adv-x="522" 
d="M-11 -4q-2 6 -2 9q0 6 2.5 15.5t4.5 9.5q7 0 20.5 4t26.5 10.5t15 11.5q10 22 21 79l75 388q9 48 9 73q0 15 -18.5 23.5t-29.5 8.5q-1 0 -1 4q0 24 6 30q15 -1 39 -2.5t47.5 -2.5t35.5 -1q18 0 132 6v-5q0 -8 -2.5 -18.5t-5.5 -10.5q-5 0 -18.5 -4t-25.5 -9.5t-15 -10.5
q-4 -6 -9 -24t-9 -35.5t-6 -25.5l-73 -380q-4 -21 -6 -45t9 -34q4 -4 20 -5t55 -1q131 0 194 116q3 6 14 6q23 0 27 -6q-7 -13 -18.5 -35.5t-25 -48t-24.5 -49t-16 -39.5q-26 0 -67.5 0.5t-97.5 1.5t-94 1.5t-58 0.5q-24 0 -56.5 -1t-53.5 -3zM430 256q-28 0 -42.5 18.5
t-14.5 42.5q0 35 25.5 62t57.5 27q23 0 40 -15.5t17 -41.5q0 -24 -12 -45.5t-31 -34.5t-40 -13z" />
    <glyph glyph-name="uni1E36" unicode="&#x1e36;" horiz-adv-x="522" 
d="M-11 -4q-2 6 -2 9q0 6 2.5 15.5t4.5 9.5q7 0 20.5 4t26.5 10.5t15 11.5q10 22 21 79l75 388q9 48 9 73q0 15 -18.5 23.5t-29.5 8.5q-1 0 -1 4q0 24 6 30q15 -1 39 -2.5t47.5 -2.5t35.5 -1q18 0 132 6v-5q0 -8 -2.5 -18.5t-5.5 -10.5q-5 0 -18.5 -4t-25.5 -9.5t-15 -10.5
q-4 -6 -9 -24t-9 -35.5t-6 -25.5l-73 -380q-4 -21 -6 -45t9 -34q4 -4 20 -5t55 -1q131 0 194 116q3 6 14 6q23 0 27 -6q-7 -13 -18.5 -35.5t-25 -48t-24.5 -49t-16 -39.5q-26 0 -67.5 0.5t-97.5 1.5t-94 1.5t-58 0.5q-24 0 -56.5 -1t-53.5 -3zM251 -193q-28 0 -42 17.5
t-14 40.5q0 21 10 41.5t29 34t45 13.5q29 0 42.5 -17.5t13.5 -40.5q0 -20 -10 -41t-28.5 -34.5t-45.5 -13.5z" />
    <glyph glyph-name="uni1E38" unicode="&#x1e38;" horiz-adv-x="522" 
d="M-11 -4q-2 6 -2 9q0 6 2.5 15.5t4.5 9.5q7 0 20.5 4t26.5 10.5t15 11.5q10 22 21 79l75 388q9 48 9 73q0 15 -18.5 23.5t-29.5 8.5q-1 0 -1 4q0 24 6 30q15 -1 39 -2.5t47.5 -2.5t35.5 -1q18 0 132 6v-5q0 -8 -2.5 -18.5t-5.5 -10.5q-5 0 -18.5 -4t-25.5 -9.5t-15 -10.5
q-4 -6 -9 -24t-9 -35.5t-6 -25.5l-73 -380q-4 -21 -6 -45t9 -34q4 -4 20 -5t55 -1q131 0 194 116q3 6 14 6q23 0 27 -6q-7 -13 -18.5 -35.5t-25 -48t-24.5 -49t-16 -39.5q-26 0 -67.5 0.5t-97.5 1.5t-94 1.5t-58 0.5q-24 0 -56.5 -1t-53.5 -3zM251 -193q-28 0 -42 17.5
t-14 40.5q0 21 10 41.5t29 34t45 13.5q29 0 42.5 -17.5t13.5 -40.5q0 -20 -10 -41t-28.5 -34.5t-45.5 -13.5zM115 739q13 58 25 58h267q7 0 4 -10q-2 -11 -5 -20t-6 -16t-6 -13t-8 -10h-268q-7 0 -3 11z" />
    <glyph glyph-name="Lmacronbelow" unicode="&#x1e3a;" horiz-adv-x="598" 
d="M-11 -4q-2 6 -2 9q0 6 2.5 15.5t4.5 9.5q7 0 20.5 4t26.5 10.5t15 11.5q10 22 21 79l75 388q9 48 9 73q0 15 -18.5 23.5t-29.5 8.5q-1 0 -1 4q0 24 6 30q15 -1 39 -2.5t47.5 -2.5t35.5 -1q18 0 132 6v-5q0 -8 -2.5 -18.5t-5.5 -10.5q-5 0 -18.5 -4t-25.5 -9.5t-15 -10.5
q-4 -6 -9 -24t-9 -35.5t-6 -25.5l-73 -380q-4 -21 -6 -45t9 -34q4 -4 20 -5t55 -1q131 0 194 116q3 6 14 6q23 0 27 -6q-7 -13 -18.5 -35.5t-25 -48t-24.5 -49t-16 -39.5q-26 0 -67.5 0.5t-97.5 1.5t-94 1.5t-58 0.5q-24 0 -56.5 -1t-53.5 -3zM77 -163q13 58 25 58h267
q7 0 4 -10q-2 -11 -5 -20t-6 -16t-6 -13t-8 -10h-268q-7 0 -3 11z" />
    <glyph glyph-name="Lslash" unicode="&#x141;" horiz-adv-x="533" 
d="M17 -4q-2 6 -2 9q0 6 2.5 15.5t4.5 9.5q7 0 20.5 4t26.5 10.5t15 11.5q10 22 21 79l12 65l-44 -29q-3 0 -8 8.5t-8 19t-3 15.5q1 7 6 10l71 47l49 252q9 48 9 73q0 15 -18.5 23.5t-29.5 8.5q-1 0 -1 4q0 24 6 30q15 -1 39 -2.5t47.5 -2.5t35.5 -1q18 0 132 6v-5
q0 -8 -2.5 -18.5t-5.5 -10.5q-5 0 -18.5 -4t-25.5 -9.5t-15 -10.5q-4 -6 -9 -24t-9 -35.5t-6 -25.5l-29 -151l149 98q4 0 11 -15q10 -25 9 -32t-7 -11l-176 -113l-30 -156q-4 -21 -6 -45t9 -34q4 -4 20 -5t55 -1q131 0 194 116q3 6 14 6q23 0 27 -6q-7 -13 -18.5 -35.5
t-25 -48t-24.5 -49t-16 -39.5q-26 0 -67.5 0.5t-97.5 1.5t-94 1.5t-58 0.5q-24 0 -56.5 -1t-53.5 -3z" />
    <glyph glyph-name="M" unicode="M" horiz-adv-x="861" 
d="M-11 -4q-3 6 -0.5 20t5.5 14q12 0 35 6.5t44 18t25 25.5l6 21l121 465q4 16 5.5 25t1.5 11q0 9 -12 14.5t-27.5 8.5t-26.5 3q-1 0 -1 7q0 19 8 27q42 -2 68.5 -3t37.5 -1t36 1t63 3q3 -30 15 -92q6 -32 14 -78t17.5 -95.5t17.5 -93.5t14 -73q0 -1 2 -1t2 2l167 315
l54 116q16 -2 40 -3t55 -1q11 0 35 1t62 3q0 -34 -7 -34q-33 0 -48 -17q-16 -19 -24 -87q-9 -77 -17 -155.5t-14.5 -144.5t-10 -108t-3.5 -48q0 -13 10 -21.5t22.5 -12.5t20.5 -4q2 0 2 -5q0 -21 -7 -29l-49 3q-22 2 -39.5 3t-29.5 1q-13 0 -31.5 -1t-44.5 -3l-59 -3
q-2 6 -2 11t2.5 14t4.5 9q7 0 20 4.5t26 11t17 12.5q10 17 12.5 33.5t6.5 53.5l27 257q1 9 1.5 21t0.5 27q0 11 -4 11q-2 0 -6 -7l-230 -423q-5 -9 -18.5 -21t-24.5 -12l-8 2l-93 480q-1 4 -3 4t-4 -5q-45 -161 -70.5 -257.5t-32.5 -128.5q-3 -15 -3 -23q0 -9 17.5 -18
t38 -15.5t27.5 -6.5q2 0 2 -6q0 -19 -6 -28q-14 1 -39.5 2.5t-50.5 3t-38 1.5q-16 0 -43 -1.5t-50.5 -3t-31.5 -2.5z" />
    <glyph glyph-name="uni1E3E" unicode="&#x1e3e;" horiz-adv-x="861" 
d="M-11 -4q-3 6 -0.5 20t5.5 14q12 0 35 6.5t44 18t25 25.5l6 21l121 465q4 16 5.5 25t1.5 11q0 9 -12 14.5t-27.5 8.5t-26.5 3q-1 0 -1 7q0 19 8 27q42 -2 68.5 -3t37.5 -1t36 1t63 3q3 -30 15 -92q6 -32 14 -78t17.5 -95.5t17.5 -93.5t14 -73q0 -1 2 -1t2 2l167 315
l54 116q16 -2 40 -3t55 -1q11 0 35 1t62 3q0 -34 -7 -34q-33 0 -48 -17q-16 -19 -24 -87q-9 -77 -17 -155.5t-14.5 -144.5t-10 -108t-3.5 -48q0 -13 10 -21.5t22.5 -12.5t20.5 -4q2 0 2 -5q0 -21 -7 -29l-49 3q-22 2 -39.5 3t-29.5 1q-13 0 -31.5 -1t-44.5 -3l-59 -3
q-2 6 -2 11t2.5 14t4.5 9q7 0 20 4.5t26 11t17 12.5q10 17 12.5 33.5t6.5 53.5l27 257q1 9 1.5 21t0.5 27q0 11 -4 11q-2 0 -6 -7l-230 -423q-5 -9 -18.5 -21t-24.5 -12l-8 2l-93 480q-1 4 -3 4t-4 -5q-45 -161 -70.5 -257.5t-32.5 -128.5q-3 -15 -3 -23q0 -9 17.5 -18
t38 -15.5t27.5 -6.5q2 0 2 -6q0 -19 -6 -28q-14 1 -39.5 2.5t-50.5 3t-38 1.5q-16 0 -43 -1.5t-50.5 -3t-31.5 -2.5zM401 715q-5 0 -9.5 7t-4.5 12q0 4 14 17t33.5 28.5t37.5 28.5t26 17q14 8 32 8q24 0 47 -9t23 -29q0 -7 -17.5 -17.5t-44.5 -21t-55.5 -20t-51 -15.5
t-30.5 -6z" />
    <glyph glyph-name="uni1E40" unicode="&#x1e40;" horiz-adv-x="861" 
d="M-11 -4q-3 6 -0.5 20t5.5 14q12 0 35 6.5t44 18t25 25.5l6 21l121 465q4 16 5.5 25t1.5 11q0 9 -12 14.5t-27.5 8.5t-26.5 3q-1 0 -1 7q0 19 8 27q42 -2 68.5 -3t37.5 -1t36 1t63 3q3 -30 15 -92q6 -32 14 -78t17.5 -95.5t17.5 -93.5t14 -73q0 -1 2 -1t2 2l167 315
l54 116q16 -2 40 -3t55 -1q11 0 35 1t62 3q0 -34 -7 -34q-33 0 -48 -17q-16 -19 -24 -87q-9 -77 -17 -155.5t-14.5 -144.5t-10 -108t-3.5 -48q0 -13 10 -21.5t22.5 -12.5t20.5 -4q2 0 2 -5q0 -21 -7 -29l-49 3q-22 2 -39.5 3t-29.5 1q-13 0 -31.5 -1t-44.5 -3l-59 -3
q-2 6 -2 11t2.5 14t4.5 9q7 0 20 4.5t26 11t17 12.5q10 17 12.5 33.5t6.5 53.5l27 257q1 9 1.5 21t0.5 27q0 11 -4 11q-2 0 -6 -7l-230 -423q-5 -9 -18.5 -21t-24.5 -12l-8 2l-93 480q-1 4 -3 4t-4 -5q-45 -161 -70.5 -257.5t-32.5 -128.5q-3 -15 -3 -23q0 -9 17.5 -18
t38 -15.5t27.5 -6.5q2 0 2 -6q0 -19 -6 -28q-14 1 -39.5 2.5t-50.5 3t-38 1.5q-16 0 -43 -1.5t-50.5 -3t-31.5 -2.5zM452 768q-28 0 -42 17.5t-14 40.5q0 21 10 41.5t29 34t45 13.5q29 0 42.5 -17.5t13.5 -40.5q0 -20 -10 -41t-28.5 -34.5t-45.5 -13.5z" />
    <glyph glyph-name="uni1E42" unicode="&#x1e42;" horiz-adv-x="861" 
d="M-11 -4q-3 6 -0.5 20t5.5 14q12 0 35 6.5t44 18t25 25.5l6 21l121 465q4 16 5.5 25t1.5 11q0 9 -12 14.5t-27.5 8.5t-26.5 3q-1 0 -1 7q0 19 8 27q42 -2 68.5 -3t37.5 -1t36 1t63 3q3 -30 15 -92q6 -32 14 -78t17.5 -95.5t17.5 -93.5t14 -73q0 -1 2 -1t2 2l167 315
l54 116q16 -2 40 -3t55 -1q11 0 35 1t62 3q0 -34 -7 -34q-33 0 -48 -17q-16 -19 -24 -87q-9 -77 -17 -155.5t-14.5 -144.5t-10 -108t-3.5 -48q0 -13 10 -21.5t22.5 -12.5t20.5 -4q2 0 2 -5q0 -21 -7 -29l-49 3q-22 2 -39.5 3t-29.5 1q-13 0 -31.5 -1t-44.5 -3l-59 -3
q-2 6 -2 11t2.5 14t4.5 9q7 0 20 4.5t26 11t17 12.5q10 17 12.5 33.5t6.5 53.5l27 257q1 9 1.5 21t0.5 27q0 11 -4 11q-2 0 -6 -7l-230 -423q-5 -9 -18.5 -21t-24.5 -12l-8 2l-93 480q-1 4 -3 4t-4 -5q-45 -161 -70.5 -257.5t-32.5 -128.5q-3 -15 -3 -23q0 -9 17.5 -18
t38 -15.5t27.5 -6.5q2 0 2 -6q0 -19 -6 -28q-14 1 -39.5 2.5t-50.5 3t-38 1.5q-16 0 -43 -1.5t-50.5 -3t-31.5 -2.5zM351 -193q-28 0 -42 17.5t-14 40.5q0 21 10 41.5t29 34t45 13.5q29 0 42.5 -17.5t13.5 -40.5q0 -20 -10 -41t-28.5 -34.5t-45.5 -13.5z" />
    <glyph glyph-name="N" unicode="N" horiz-adv-x="713" 
d="M550 -5q-12 0 -25 23l-277 506l-74 -383q-4 -20 -6 -33.5t-2 -21.5q0 -20 16 -32.5t35 -18t29 -5.5q2 0 2 -5q0 -17 -6 -29q-14 1 -39.5 2.5t-50 3t-37.5 1.5q-16 0 -43 -1.5t-51 -3t-32 -2.5q-3 6 -0.5 20t4.5 14q12 0 31 4t38 13.5t30 23.5q7 8 12.5 26.5t10.5 46.5
l76 393q6 32 6 59q0 10 -13.5 17t-30.5 11t-29 4q-3 0 -3 8q0 22 7 26q53 -2 83.5 -3.5t40.5 -1.5q27 0 50.5 1.5t42.5 3.5q9 -34 43 -98q24 -45 55 -101.5t62.5 -112t53.5 -99.5q1 3 3.5 13t6.5 28l44 232q11 56 -9.5 80t-64.5 24q-2 0 -2 7q0 21 6 27q53 -2 85 -3.5
t45 -1.5q16 0 47 1.5t77 3.5q0 -34 -8 -34q-10 0 -27.5 -4t-35 -12t-28.5 -20q-17 -17 -27 -73l-74 -380q-4 -20 -9.5 -55t-13.5 -85q-4 -4 -24 -4z" />
    <glyph glyph-name="Nacute" unicode="&#x143;" horiz-adv-x="713" 
d="M550 -5q-12 0 -25 23l-277 506l-74 -383q-4 -20 -6 -33.5t-2 -21.5q0 -20 16 -32.5t35 -18t29 -5.5q2 0 2 -5q0 -17 -6 -29q-14 1 -39.5 2.5t-50 3t-37.5 1.5q-16 0 -43 -1.5t-51 -3t-32 -2.5q-3 6 -0.5 20t4.5 14q12 0 31 4t38 13.5t30 23.5q7 8 12.5 26.5t10.5 46.5
l76 393q6 32 6 59q0 10 -13.5 17t-30.5 11t-29 4q-3 0 -3 8q0 22 7 26q53 -2 83.5 -3.5t40.5 -1.5q27 0 50.5 1.5t42.5 3.5q9 -34 43 -98q24 -45 55 -101.5t62.5 -112t53.5 -99.5q1 3 3.5 13t6.5 28l44 232q11 56 -9.5 80t-64.5 24q-2 0 -2 7q0 21 6 27q53 -2 85 -3.5
t45 -1.5q16 0 47 1.5t77 3.5q0 -34 -8 -34q-10 0 -27.5 -4t-35 -12t-28.5 -20q-17 -17 -27 -73l-74 -380q-4 -20 -9.5 -55t-13.5 -85q-4 -4 -24 -4zM429 715q-5 0 -9.5 7t-4.5 12q0 4 14 17t33.5 28.5t37.5 28.5t26 17q14 8 32 8q24 0 47 -9t23 -29q0 -7 -17.5 -17.5
t-44.5 -21t-55.5 -20t-51 -15.5t-30.5 -6z" />
    <glyph glyph-name="Ncaron" unicode="&#x147;" horiz-adv-x="713" 
d="M550 -5q-12 0 -25 23l-277 506l-74 -383q-4 -20 -6 -33.5t-2 -21.5q0 -20 16 -32.5t35 -18t29 -5.5q2 0 2 -5q0 -17 -6 -29q-14 1 -39.5 2.5t-50 3t-37.5 1.5q-16 0 -43 -1.5t-51 -3t-32 -2.5q-3 6 -0.5 20t4.5 14q12 0 31 4t38 13.5t30 23.5q7 8 12.5 26.5t10.5 46.5
l76 393q6 32 6 59q0 10 -13.5 17t-30.5 11t-29 4q-3 0 -3 8q0 22 7 26q53 -2 83.5 -3.5t40.5 -1.5q27 0 50.5 1.5t42.5 3.5q9 -34 43 -98q24 -45 55 -101.5t62.5 -112t53.5 -99.5q1 3 3.5 13t6.5 28l44 232q11 56 -9.5 80t-64.5 24q-2 0 -2 7q0 21 6 27q53 -2 85 -3.5
t45 -1.5q16 0 47 1.5t77 3.5q0 -34 -8 -34q-10 0 -27.5 -4t-35 -12t-28.5 -20q-17 -17 -27 -73l-74 -380q-4 -20 -9.5 -55t-13.5 -85q-4 -4 -24 -4zM470 728q-5 0 -10 9q-5 11 -13 22.5t-18 24.5q-17 23 -30.5 39.5t-24.5 26.5q5 17 17 18t28 -9t34 -24.5t34 -27.5
q19 12 45.5 26.5t49.5 25t28 10.5q10 0 6 -19q-12 -8 -33.5 -25t-50.5 -45l-46 -43q-10 -9 -16 -9z" />
    <glyph glyph-name="uni1E4A" unicode="&#x1e4a;" horiz-adv-x="713" 
d="M550 -5q-12 0 -25 23l-277 506l-74 -383q-4 -20 -6 -33.5t-2 -21.5q0 -20 16 -32.5t35 -18t29 -5.5q2 0 2 -5q0 -17 -6 -29q-14 1 -39.5 2.5t-50 3t-37.5 1.5q-16 0 -43 -1.5t-51 -3t-32 -2.5q-3 6 -0.5 20t4.5 14q12 0 31 4t38 13.5t30 23.5q7 8 12.5 26.5t10.5 46.5
l76 393q6 32 6 59q0 10 -13.5 17t-30.5 11t-29 4q-3 0 -3 8q0 22 7 26q53 -2 83.5 -3.5t40.5 -1.5q27 0 50.5 1.5t42.5 3.5q9 -34 43 -98q24 -45 55 -101.5t62.5 -112t53.5 -99.5q1 3 3.5 13t6.5 28l44 232q11 56 -9.5 80t-64.5 24q-2 0 -2 7q0 21 6 27q53 -2 85 -3.5
t45 -1.5q16 0 47 1.5t77 3.5q0 -34 -8 -34q-10 0 -27.5 -4t-35 -12t-28.5 -20q-17 -17 -27 -73l-74 -380q-4 -20 -9.5 -55t-13.5 -85q-4 -4 -24 -4zM202 -216q-11 0 -7 19q16 10 39 26t53 39q17 14 31 26t24 22q11 9 16 9q4 0 13 -9l33 -44q20 -24 36 -41t28 -28
q-4 -19 -15 -19q-5 0 -26.5 10.5t-45.5 25.5t-40 26q-15 -9 -37 -19.5t-44 -20t-38 -16t-20 -6.5z" />
    <glyph glyph-name="uni0145" unicode="&#x145;" horiz-adv-x="713" 
d="M550 -5q-12 0 -25 23l-277 506l-74 -383q-4 -20 -6 -33.5t-2 -21.5q0 -20 16 -32.5t35 -18t29 -5.5q2 0 2 -5q0 -17 -6 -29q-14 1 -39.5 2.5t-50 3t-37.5 1.5q-16 0 -43 -1.5t-51 -3t-32 -2.5q-3 6 -0.5 20t4.5 14q12 0 31 4t38 13.5t30 23.5q7 8 12.5 26.5t10.5 46.5
l76 393q6 32 6 59q0 10 -13.5 17t-30.5 11t-29 4q-3 0 -3 8q0 22 7 26q53 -2 83.5 -3.5t40.5 -1.5q27 0 50.5 1.5t42.5 3.5q9 -34 43 -98q24 -45 55 -101.5t62.5 -112t53.5 -99.5q1 3 3.5 13t6.5 28l44 232q11 56 -9.5 80t-64.5 24q-2 0 -2 7q0 21 6 27q53 -2 85 -3.5
t45 -1.5q16 0 47 1.5t77 3.5q0 -34 -8 -34q-10 0 -27.5 -4t-35 -12t-28.5 -20q-17 -17 -27 -73l-74 -380q-4 -20 -9.5 -55t-13.5 -85q-4 -4 -24 -4zM260 -101q0 16 16.5 26t43 14.5t54.5 4.5q12 -13 12 -47q0 -22 -22 -46.5t-52 -43.5t-56 -25h-3q-6 0 -13.5 4.5t-7.5 9.5
q0 4 14.5 14t28.5 21t14 18q0 9 -14 23q-15 14 -15 27z" />
    <glyph glyph-name="uni1E44" unicode="&#x1e44;" horiz-adv-x="713" 
d="M550 -5q-12 0 -25 23l-277 506l-74 -383q-4 -20 -6 -33.5t-2 -21.5q0 -20 16 -32.5t35 -18t29 -5.5q2 0 2 -5q0 -17 -6 -29q-14 1 -39.5 2.5t-50 3t-37.5 1.5q-16 0 -43 -1.5t-51 -3t-32 -2.5q-3 6 -0.5 20t4.5 14q12 0 31 4t38 13.5t30 23.5q7 8 12.5 26.5t10.5 46.5
l76 393q6 32 6 59q0 10 -13.5 17t-30.5 11t-29 4q-3 0 -3 8q0 22 7 26q53 -2 83.5 -3.5t40.5 -1.5q27 0 50.5 1.5t42.5 3.5q9 -34 43 -98q24 -45 55 -101.5t62.5 -112t53.5 -99.5q1 3 3.5 13t6.5 28l44 232q11 56 -9.5 80t-64.5 24q-2 0 -2 7q0 21 6 27q53 -2 85 -3.5
t45 -1.5q16 0 47 1.5t77 3.5q0 -34 -8 -34q-10 0 -27.5 -4t-35 -12t-28.5 -20q-17 -17 -27 -73l-74 -380q-4 -20 -9.5 -55t-13.5 -85q-4 -4 -24 -4zM480 768q-28 0 -42 17.5t-14 40.5q0 21 10 41.5t29 34t45 13.5q29 0 42.5 -17.5t13.5 -40.5q0 -20 -10 -41t-28.5 -34.5
t-45.5 -13.5z" />
    <glyph glyph-name="uni1E46" unicode="&#x1e46;" horiz-adv-x="713" 
d="M550 -5q-12 0 -25 23l-277 506l-74 -383q-4 -20 -6 -33.5t-2 -21.5q0 -20 16 -32.5t35 -18t29 -5.5q2 0 2 -5q0 -17 -6 -29q-14 1 -39.5 2.5t-50 3t-37.5 1.5q-16 0 -43 -1.5t-51 -3t-32 -2.5q-3 6 -0.5 20t4.5 14q12 0 31 4t38 13.5t30 23.5q7 8 12.5 26.5t10.5 46.5
l76 393q6 32 6 59q0 10 -13.5 17t-30.5 11t-29 4q-3 0 -3 8q0 22 7 26q53 -2 83.5 -3.5t40.5 -1.5q27 0 50.5 1.5t42.5 3.5q9 -34 43 -98q24 -45 55 -101.5t62.5 -112t53.5 -99.5q1 3 3.5 13t6.5 28l44 232q11 56 -9.5 80t-64.5 24q-2 0 -2 7q0 21 6 27q53 -2 85 -3.5
t45 -1.5q16 0 47 1.5t77 3.5q0 -34 -8 -34q-10 0 -27.5 -4t-35 -12t-28.5 -20q-17 -17 -27 -73l-74 -380q-4 -20 -9.5 -55t-13.5 -85q-4 -4 -24 -4zM318 -193q-28 0 -42 17.5t-14 40.5q0 21 10 41.5t29 34t45 13.5q29 0 42.5 -17.5t13.5 -40.5q0 -20 -10 -41t-28.5 -34.5
t-45.5 -13.5z" />
    <glyph glyph-name="Nmacronbelow" unicode="&#x1e48;" horiz-adv-x="713" 
d="M550 -5q-12 0 -25 23l-277 506l-74 -383q-4 -20 -6 -33.5t-2 -21.5q0 -20 16 -32.5t35 -18t29 -5.5q2 0 2 -5q0 -17 -6 -29q-14 1 -39.5 2.5t-50 3t-37.5 1.5q-16 0 -43 -1.5t-51 -3t-32 -2.5q-3 6 -0.5 20t4.5 14q12 0 31 4t38 13.5t30 23.5q7 8 12.5 26.5t10.5 46.5
l76 393q6 32 6 59q0 10 -13.5 17t-30.5 11t-29 4q-3 0 -3 8q0 22 7 26q53 -2 83.5 -3.5t40.5 -1.5q27 0 50.5 1.5t42.5 3.5q9 -34 43 -98q24 -45 55 -101.5t62.5 -112t53.5 -99.5q1 3 3.5 13t6.5 28l44 232q11 56 -9.5 80t-64.5 24q-2 0 -2 7q0 21 6 27q53 -2 85 -3.5
t45 -1.5q16 0 47 1.5t77 3.5q0 -34 -8 -34q-10 0 -27.5 -4t-35 -12t-28.5 -20q-17 -17 -27 -73l-74 -380q-4 -20 -9.5 -55t-13.5 -85q-4 -4 -24 -4zM185 -128q13 58 25 58h267q7 0 4 -10q-2 -11 -5 -20t-6 -16t-6 -13t-8 -10h-268q-7 0 -3 11z" />
    <glyph glyph-name="Ntilde" unicode="&#xd1;" horiz-adv-x="713" 
d="M550 -5q-12 0 -25 23l-277 506l-74 -383q-4 -20 -6 -33.5t-2 -21.5q0 -20 16 -32.5t35 -18t29 -5.5q2 0 2 -5q0 -17 -6 -29q-14 1 -39.5 2.5t-50 3t-37.5 1.5q-16 0 -43 -1.5t-51 -3t-32 -2.5q-3 6 -0.5 20t4.5 14q12 0 31 4t38 13.5t30 23.5q7 8 12.5 26.5t10.5 46.5
l76 393q6 32 6 59q0 10 -13.5 17t-30.5 11t-29 4q-3 0 -3 8q0 22 7 26q53 -2 83.5 -3.5t40.5 -1.5q27 0 50.5 1.5t42.5 3.5q9 -34 43 -98q24 -45 55 -101.5t62.5 -112t53.5 -99.5q1 3 3.5 13t6.5 28l44 232q11 56 -9.5 80t-64.5 24q-2 0 -2 7q0 21 6 27q53 -2 85 -3.5
t45 -1.5q16 0 47 1.5t77 3.5q0 -34 -8 -34q-10 0 -27.5 -4t-35 -12t-28.5 -20q-17 -17 -27 -73l-74 -380q-4 -20 -9.5 -55t-13.5 -85q-4 -4 -24 -4zM565 729q-36 0 -82 34t-83 34q-18 0 -46 -28q-31 -29 -34 -29q-7 0 -3 22q4 25 26 50q45 51 92 51q37 0 83 -34t82 -34
q17 0 46 29q27 28 32 28q8 0 4 -22q-4 -25 -27 -51q-42 -50 -90 -50z" />
    <glyph glyph-name="Eng" unicode="&#x14a;" horiz-adv-x="774" 
d="M330 -218q-8 3 -8 20q0 8 6 20q22 11 49 38t52.5 63.5t45 77t26.5 77.5l-247 446l-74 -383q-4 -20 -6 -33.5t-2 -21.5q0 -19 16 -31.5t35 -18.5t29 -6q2 0 2 -5q0 -17 -6 -29q-14 1 -39.5 2.5t-50 3t-37.5 1.5q-16 0 -43 -1.5t-51 -3t-32 -2.5q-3 6 -0.5 20t4.5 14
q12 0 31 4t38 13.5t30 23.5q7 8 12.5 26.5t10.5 46.5l76 393q6 32 6 59q0 10 -13.5 17t-30.5 11t-29 4q-3 0 -3 8q0 22 7 26q53 -2 83.5 -3.5t40.5 -1.5q27 0 50.5 1.5t42.5 3.5q9 -34 43 -98q24 -45 55 -101.5t62.5 -112t53.5 -99.5q1 3 3.5 13.5t6.5 27.5l44 232
q10 56 -10 80t-64 24q-2 0 -2 7q0 21 6 27q53 -2 85 -3.5t45 -1.5q16 0 47 1.5t77 3.5q0 -34 -8 -34q-10 0 -27.5 -4t-35 -12t-28.5 -20q-17 -17 -27 -73l-74 -380q-20 -106 -63 -183t-97.5 -121t-112.5 -53z" />
    <glyph glyph-name="O" unicode="O" horiz-adv-x="649" 
d="M275 -10q-70 0 -124.5 34.5t-85 95t-30.5 136.5q0 77 30 150t82 132t119 94t140 35q71 0 125 -34.5t85 -94.5t31 -138q0 -75 -30 -148t-82 -132t-119 -94.5t-141 -35.5zM297 46q43 0 77 27t58.5 71t40.5 96.5t23.5 103.5t7.5 91q0 176 -122 176q-40 0 -76.5 -28t-65 -79
t-44.5 -118.5t-16 -147.5q0 -52 11 -95.5t37 -70t69 -26.5z" />
    <glyph glyph-name="Oacute" unicode="&#xd3;" horiz-adv-x="649" 
d="M275 -10q-70 0 -124.5 34.5t-85 95t-30.5 136.5q0 77 30 150t82 132t119 94t140 35q71 0 125 -34.5t85 -94.5t31 -138q0 -75 -30 -148t-82 -132t-119 -94.5t-141 -35.5zM297 46q43 0 77 27t58.5 71t40.5 96.5t23.5 103.5t7.5 91q0 176 -122 176q-40 0 -76.5 -28t-65 -79
t-44.5 -118.5t-16 -147.5q0 -52 11 -95.5t37 -70t69 -26.5zM371 715q-5 0 -9.5 7t-4.5 12q0 4 14 17t33.5 28.5t37.5 28.5t26 17q14 8 32 8q24 0 47 -9t23 -29q0 -7 -17.5 -17.5t-44.5 -21t-55.5 -20t-51 -15.5t-30.5 -6z" />
    <glyph glyph-name="Obreve" unicode="&#x14e;" horiz-adv-x="649" 
d="M275 -10q-70 0 -124.5 34.5t-85 95t-30.5 136.5q0 77 30 150t82 132t119 94t140 35q71 0 125 -34.5t85 -94.5t31 -138q0 -75 -30 -148t-82 -132t-119 -94.5t-141 -35.5zM297 46q43 0 77 27t58.5 71t40.5 96.5t23.5 103.5t7.5 91q0 176 -122 176q-40 0 -76.5 -28t-65 -79
t-44.5 -118.5t-16 -147.5q0 -52 11 -95.5t37 -70t69 -26.5zM415 728q-60 0 -86 72q-4 8 7 20.5t19 15.5q2 2 4 -2q11 -22 28.5 -33.5t38.5 -11.5q46 0 86 45q1 4 5 2t11 -13t5 -16l-2 -3l-2 -4q-54 -72 -114 -72z" />
    <glyph glyph-name="uni01D1" unicode="&#x1d1;" horiz-adv-x="649" 
d="M275 -10q-70 0 -124.5 34.5t-85 95t-30.5 136.5q0 77 30 150t82 132t119 94t140 35q71 0 125 -34.5t85 -94.5t31 -138q0 -75 -30 -148t-82 -132t-119 -94.5t-141 -35.5zM297 46q43 0 77 27t58.5 71t40.5 96.5t23.5 103.5t7.5 91q0 176 -122 176q-40 0 -76.5 -28t-65 -79
t-44.5 -118.5t-16 -147.5q0 -52 11 -95.5t37 -70t69 -26.5zM412 728q-5 0 -10 9q-5 11 -13 22.5t-18 24.5q-17 23 -30.5 39.5t-24.5 26.5q5 17 17 18t28 -9t34 -24.5t34 -27.5q19 12 45.5 26.5t49.5 25t28 10.5q10 0 6 -19q-12 -8 -33.5 -25t-50.5 -45l-46 -43
q-10 -9 -16 -9z" />
    <glyph glyph-name="Ocircumflex" unicode="&#xd4;" horiz-adv-x="649" 
d="M275 -10q-70 0 -124.5 34.5t-85 95t-30.5 136.5q0 77 30 150t82 132t119 94t140 35q71 0 125 -34.5t85 -94.5t31 -138q0 -75 -30 -148t-82 -132t-119 -94.5t-141 -35.5zM297 46q43 0 77 27t58.5 71t40.5 96.5t23.5 103.5t7.5 91q0 176 -122 176q-40 0 -76.5 -28t-65 -79
t-44.5 -118.5t-16 -147.5q0 -52 11 -95.5t37 -70t69 -26.5zM288 727q-11 0 -7 19q16 10 39 26t53 39q17 14 31 26t24 22q11 9 16 9q4 0 13 -9l33 -44q20 -24 36 -41t28 -28q-4 -19 -15 -19q-5 0 -26.5 10.5t-45.5 25.5t-40 26q-15 -9 -37 -19.5t-44 -20t-38 -16t-20 -6.5z
" />
    <glyph glyph-name="uni1ED0" unicode="&#x1ed0;" horiz-adv-x="649" 
d="M275 -10q-70 0 -124.5 34.5t-85 95t-30.5 136.5q0 77 30 150t82 132t119 94t140 35q71 0 125 -34.5t85 -94.5t31 -138q0 -75 -30 -148t-82 -132t-119 -94.5t-141 -35.5zM297 46q43 0 77 27t58.5 71t40.5 96.5t23.5 103.5t7.5 91q0 176 -122 176q-40 0 -76.5 -28t-65 -79
t-44.5 -118.5t-16 -147.5q0 -52 11 -95.5t37 -70t69 -26.5zM545 843q-5 0 -8 7.5t-2 12.5q1 3 16 16.5t38 32.5t47.5 37.5t43.5 30.5q8 4 19 4q18 0 35 -9.5t13 -28.5q-2 -10 -21 -23t-46 -27t-55.5 -26t-50.5 -19.5t-29 -7.5zM292 731q-10 0 -6 19q17 11 38.5 27t48.5 38
q13 10 26 22t27 26q9 9 15 9t13 -9l12 -17l10 -14t9 -13q39 -49 61 -69q-4 -19 -14 -19q-5 0 -25.5 10.5t-43.5 25.5t-38 26q-20 -11 -49.5 -26t-53.5 -25.5t-30 -10.5z" />
    <glyph glyph-name="uni1ED8" unicode="&#x1ed8;" horiz-adv-x="649" 
d="M275 -10q-70 0 -124.5 34.5t-85 95t-30.5 136.5q0 77 30 150t82 132t119 94t140 35q71 0 125 -34.5t85 -94.5t31 -138q0 -75 -30 -148t-82 -132t-119 -94.5t-141 -35.5zM297 46q43 0 77 27t58.5 71t40.5 96.5t23.5 103.5t7.5 91q0 176 -122 176q-40 0 -76.5 -28t-65 -79
t-44.5 -118.5t-16 -147.5q0 -52 11 -95.5t37 -70t69 -26.5zM316 -193q-28 0 -42 17.5t-14 40.5q0 21 10 41.5t29 34t45 13.5q29 0 42.5 -17.5t13.5 -40.5q0 -20 -10 -41t-28.5 -34.5t-45.5 -13.5zM288 727q-11 0 -7 19q16 10 39 26t53 39q17 14 31 26t24 22q11 9 16 9
q4 0 13 -9l33 -44q20 -24 36 -41t28 -28q-4 -19 -15 -19q-5 0 -26.5 10.5t-45.5 25.5t-40 26q-15 -9 -37 -19.5t-44 -20t-38 -16t-20 -6.5z" />
    <glyph glyph-name="uni1ED2" unicode="&#x1ed2;" horiz-adv-x="649" 
d="M275 -10q-70 0 -124.5 34.5t-85 95t-30.5 136.5q0 77 30 150t82 132t119 94t140 35q71 0 125 -34.5t85 -94.5t31 -138q0 -75 -30 -148t-82 -132t-119 -94.5t-141 -35.5zM297 46q43 0 77 27t58.5 71t40.5 96.5t23.5 103.5t7.5 91q0 176 -122 176q-40 0 -76.5 -28t-65 -79
t-44.5 -118.5t-16 -147.5q0 -52 11 -95.5t37 -70t69 -26.5zM630 821q-6 0 -28.5 11.5t-47.5 29t-43 35.5t-15 30q2 9 20.5 17.5t31.5 8.5t20.5 -2.5t11.5 -6.5q25 -18 40.5 -41t23 -41t6.5 -23t-8 -11.5t-12 -6.5zM299 731q-9 0 -6 19q17 11 38.5 27t48.5 38q13 10 26 22
t27 26q11 9 15 9q7 0 13 -9l12 -17l10 -14t9 -13q39 -49 61 -69q-3 -19 -14 -19q-5 0 -25 10.5t-43 25.5t-38 26q-20 -11 -49.5 -26t-54 -25.5t-30.5 -10.5z" />
    <glyph glyph-name="uni1ED4" unicode="&#x1ed4;" horiz-adv-x="649" 
d="M275 -10q-70 0 -124.5 34.5t-85 95t-30.5 136.5q0 77 30 150t82 132t119 94t140 35q71 0 125 -34.5t85 -94.5t31 -138q0 -75 -30 -148t-82 -132t-119 -94.5t-141 -35.5zM297 46q43 0 77 27t58.5 71t40.5 96.5t23.5 103.5t7.5 91q0 176 -122 176q-40 0 -76.5 -28t-65 -79
t-44.5 -118.5t-16 -147.5q0 -52 11 -95.5t37 -70t69 -26.5zM288 727q-11 0 -7 19q16 10 39 26t53 39q17 14 31 26t24 22q11 9 16 9q4 0 13 -9l33 -44q20 -24 36 -41t28 -28q-4 -19 -15 -19q-5 0 -26.5 10.5t-45.5 25.5t-40 26q-15 -9 -37 -19.5t-44 -20t-38 -16t-20 -6.5z
M527 894q-9 7 -6 17q5 30 51 49q36 17 42 42q5 30 -17 30q-30 0 -38 -36q-4 -22 -41 -22q-7 0 -12.5 4.5t-4.5 12.5q7 36 40.5 57.5t71.5 21.5q28 0 43 -16.5t10 -41.5q-5 -26 -22.5 -45.5t-39.5 -28.5q-35 -14 -38 -27v-3q-1 -2 -1 -5q-1 -2 -14.5 -5.5t-23.5 -3.5z" />
    <glyph glyph-name="uni1ED6" unicode="&#x1ed6;" horiz-adv-x="649" 
d="M275 -10q-70 0 -124.5 34.5t-85 95t-30.5 136.5q0 77 30 150t82 132t119 94t140 35q71 0 125 -34.5t85 -94.5t31 -138q0 -75 -30 -148t-82 -132t-119 -94.5t-141 -35.5zM297 46q43 0 77 27t58.5 71t40.5 96.5t23.5 103.5t7.5 91q0 176 -122 176q-40 0 -76.5 -28t-65 -79
t-44.5 -118.5t-16 -147.5q0 -52 11 -95.5t37 -70t69 -26.5zM288 727q-11 0 -7 19q16 10 39 26t53 39q17 14 31 26t24 22q11 9 16 9q4 0 13 -9l33 -44q20 -24 36 -41t28 -28q-4 -19 -15 -19q-5 0 -26.5 10.5t-45.5 25.5t-40 26q-15 -9 -37 -19.5t-44 -20t-38 -16t-20 -6.5z
M531 867q-36 0 -82 34t-83 34q-18 0 -46 -28q-31 -29 -34 -29q-7 0 -3 22q4 25 26 50q45 51 92 51q37 0 83 -34t82 -34q17 0 46 29q27 28 32 28q8 0 4 -22q-4 -25 -27 -51q-42 -50 -90 -50z" />
    <glyph glyph-name="Odieresis" unicode="&#xd6;" horiz-adv-x="649" 
d="M275 -10q-70 0 -124.5 34.5t-85 95t-30.5 136.5q0 77 30 150t82 132t119 94t140 35q71 0 125 -34.5t85 -94.5t31 -138q0 -75 -30 -148t-82 -132t-119 -94.5t-141 -35.5zM297 46q43 0 77 27t58.5 71t40.5 96.5t23.5 103.5t7.5 91q0 176 -122 176q-40 0 -76.5 -28t-65 -79
t-44.5 -118.5t-16 -147.5q0 -52 11 -95.5t37 -70t69 -26.5zM518 724q-28 0 -42 17.5t-14 41.5q0 21 10 41.5t29 34t45 13.5q29 0 42.5 -17.5t13.5 -41.5q0 -20 -10 -41t-28.5 -34.5t-45.5 -13.5zM304 724q-28 0 -42 17.5t-14 41.5q0 21 10 41.5t29 34t45 13.5
q29 0 42.5 -17.5t13.5 -41.5q0 -20 -10 -41t-28.5 -34.5t-45.5 -13.5z" />
    <glyph glyph-name="uni1ECC" unicode="&#x1ecc;" horiz-adv-x="649" 
d="M275 -10q-70 0 -124.5 34.5t-85 95t-30.5 136.5q0 77 30 150t82 132t119 94t140 35q71 0 125 -34.5t85 -94.5t31 -138q0 -75 -30 -148t-82 -132t-119 -94.5t-141 -35.5zM297 46q43 0 77 27t58.5 71t40.5 96.5t23.5 103.5t7.5 91q0 176 -122 176q-40 0 -76.5 -28t-65 -79
t-44.5 -118.5t-16 -147.5q0 -52 11 -95.5t37 -70t69 -26.5zM316 -193q-28 0 -42 17.5t-14 40.5q0 21 10 41.5t29 34t45 13.5q29 0 42.5 -17.5t13.5 -40.5q0 -20 -10 -41t-28.5 -34.5t-45.5 -13.5z" />
    <glyph glyph-name="Ograve" unicode="&#xd2;" horiz-adv-x="649" 
d="M275 -10q-70 0 -124.5 34.5t-85 95t-30.5 136.5q0 77 30 150t82 132t119 94t140 35q71 0 125 -34.5t85 -94.5t31 -138q0 -75 -30 -148t-82 -132t-119 -94.5t-141 -35.5zM297 46q43 0 77 27t58.5 71t40.5 96.5t23.5 103.5t7.5 91q0 176 -122 176q-40 0 -76.5 -28t-65 -79
t-44.5 -118.5t-16 -147.5q0 -52 11 -95.5t37 -70t69 -26.5zM510 716q-8 0 -30.5 6t-51 15.5t-55.5 20t-44.5 21t-17.5 17.5q0 20 23 29t47 9q20 0 32 -8q8 -4 26 -17t37.5 -28.5t33.5 -28t14 -17.5q0 -4 -4.5 -11.5t-9.5 -7.5z" />
    <glyph glyph-name="uni1ECE" unicode="&#x1ece;" horiz-adv-x="649" 
d="M275 -10q-70 0 -124.5 34.5t-85 95t-30.5 136.5q0 77 30 150t82 132t119 94t140 35q71 0 125 -34.5t85 -94.5t31 -138q0 -75 -30 -148t-82 -132t-119 -94.5t-141 -35.5zM297 46q43 0 77 27t58.5 71t40.5 96.5t23.5 103.5t7.5 91q0 176 -122 176q-40 0 -76.5 -28t-65 -79
t-44.5 -118.5t-16 -147.5q0 -52 11 -95.5t37 -70t69 -26.5zM390 726q-9 7 -6 17q5 30 51 49q36 17 42 42q5 30 -17 30q-30 0 -38 -36q-4 -22 -41 -22q-7 0 -12.5 4.5t-4.5 12.5q7 36 40.5 57.5t71.5 21.5q28 0 43 -16.5t10 -41.5q-5 -26 -22.5 -45.5t-39.5 -28.5
q-35 -14 -38 -27v-3q-1 -2 -1 -5q-1 -2 -14.5 -5.5t-23.5 -3.5z" />
    <glyph glyph-name="Ohorn" unicode="&#x1a0;" horiz-adv-x="654" 
d="M275 -10q-70 0 -124.5 34.5t-85 95t-30.5 136.5q0 77 30 150t82 132t119 94t140 35q35 0 65 -10t58 -24q37 -18 63 -24t39 -6q37 0 41 19q2 12 -6.5 22.5t-4.5 29.5q5 23 32.5 36.5t70.5 9.5q6 -7 8 -27.5t-3 -40.5q-5 -26 -28 -48t-52.5 -35t-55.5 -13q-18 0 -29 3
q43 -68 43 -159q0 -75 -30 -148t-82 -132t-119 -94.5t-141 -35.5zM180 238q0 -52 11 -95.5t37 -70t69 -26.5t77 27t58.5 71t40.5 96.5t23.5 103.5t7.5 91q0 176 -122 176q-40 0 -76.5 -28t-65 -79t-44.5 -118.5t-16 -147.5z" />
    <glyph glyph-name="uni1EDA" unicode="&#x1eda;" horiz-adv-x="654" 
d="M275 -10q-70 0 -124.5 34.5t-85 95t-30.5 136.5q0 77 30 150t82 132t119 94t140 35q35 0 65 -10t58 -24q37 -18 63 -24t39 -6q37 0 41 19q2 12 -6.5 22.5t-4.5 29.5q5 23 32.5 36.5t70.5 9.5q6 -7 8 -27.5t-3 -40.5q-5 -26 -28 -48t-52.5 -35t-55.5 -13q-18 0 -29 3
q43 -68 43 -159q0 -75 -30 -148t-82 -132t-119 -94.5t-141 -35.5zM180 238q0 -52 11 -95.5t37 -70t69 -26.5t77 27t58.5 71t40.5 96.5t23.5 103.5t7.5 91q0 176 -122 176q-40 0 -76.5 -28t-65 -79t-44.5 -118.5t-16 -147.5zM371 715q-5 0 -9.5 7t-4.5 12q0 4 14 17
t33.5 28.5t37.5 28.5t26 17q14 8 32 8q24 0 47 -9t23 -29q0 -7 -17.5 -17.5t-44.5 -21t-55.5 -20t-51 -15.5t-30.5 -6z" />
    <glyph glyph-name="uni1EE2" unicode="&#x1ee2;" horiz-adv-x="654" 
d="M275 -10q-70 0 -124.5 34.5t-85 95t-30.5 136.5q0 77 30 150t82 132t119 94t140 35q35 0 65 -10t58 -24q37 -18 63 -24t39 -6q37 0 41 19q2 12 -6.5 22.5t-4.5 29.5q5 23 32.5 36.5t70.5 9.5q6 -7 8 -27.5t-3 -40.5q-5 -26 -28 -48t-52.5 -35t-55.5 -13q-18 0 -29 3
q43 -68 43 -159q0 -75 -30 -148t-82 -132t-119 -94.5t-141 -35.5zM180 238q0 -52 11 -95.5t37 -70t69 -26.5t77 27t58.5 71t40.5 96.5t23.5 103.5t7.5 91q0 176 -122 176q-40 0 -76.5 -28t-65 -79t-44.5 -118.5t-16 -147.5zM246 -193q-28 0 -42 17.5t-14 40.5q0 21 10 41.5
t29 34t45 13.5q29 0 42.5 -17.5t13.5 -40.5q0 -20 -10 -41t-28.5 -34.5t-45.5 -13.5z" />
    <glyph glyph-name="uni1EDC" unicode="&#x1edc;" horiz-adv-x="654" 
d="M275 -10q-70 0 -124.5 34.5t-85 95t-30.5 136.5q0 77 30 150t82 132t119 94t140 35q35 0 65 -10t58 -24q37 -18 63 -24t39 -6q37 0 41 19q2 12 -6.5 22.5t-4.5 29.5q5 23 32.5 36.5t70.5 9.5q6 -7 8 -27.5t-3 -40.5q-5 -26 -28 -48t-52.5 -35t-55.5 -13q-18 0 -29 3
q43 -68 43 -159q0 -75 -30 -148t-82 -132t-119 -94.5t-141 -35.5zM180 238q0 -52 11 -95.5t37 -70t69 -26.5t77 27t58.5 71t40.5 96.5t23.5 103.5t7.5 91q0 176 -122 176q-40 0 -76.5 -28t-65 -79t-44.5 -118.5t-16 -147.5zM510 716q-8 0 -30.5 6t-51 15.5t-55.5 20
t-44.5 21t-17.5 17.5q0 20 23 29t47 9q20 0 32 -8q8 -4 26 -17t37.5 -28.5t33.5 -28t14 -17.5q0 -4 -4.5 -11.5t-9.5 -7.5z" />
    <glyph glyph-name="uni1EDE" unicode="&#x1ede;" horiz-adv-x="654" 
d="M275 -10q-70 0 -124.5 34.5t-85 95t-30.5 136.5q0 77 30 150t82 132t119 94t140 35q35 0 65 -10t58 -24q37 -18 63 -24t39 -6q37 0 41 19q2 12 -6.5 22.5t-4.5 29.5q5 23 32.5 36.5t70.5 9.5q6 -7 8 -27.5t-3 -40.5q-5 -26 -28 -48t-52.5 -35t-55.5 -13q-18 0 -29 3
q43 -68 43 -159q0 -75 -30 -148t-82 -132t-119 -94.5t-141 -35.5zM180 238q0 -52 11 -95.5t37 -70t69 -26.5t77 27t58.5 71t40.5 96.5t23.5 103.5t7.5 91q0 176 -122 176q-40 0 -76.5 -28t-65 -79t-44.5 -118.5t-16 -147.5zM390 726q-9 7 -6 17q5 30 51 49q36 17 42 42
q5 30 -17 30q-30 0 -38 -36q-4 -22 -41 -22q-7 0 -12.5 4.5t-4.5 12.5q7 36 40.5 57.5t71.5 21.5q28 0 43 -16.5t10 -41.5q-5 -26 -22.5 -45.5t-39.5 -28.5q-35 -14 -38 -27v-3q-1 -2 -1 -5q-1 -2 -14.5 -5.5t-23.5 -3.5z" />
    <glyph glyph-name="uni1EE0" unicode="&#x1ee0;" horiz-adv-x="654" 
d="M275 -10q-70 0 -124.5 34.5t-85 95t-30.5 136.5q0 77 30 150t82 132t119 94t140 35q35 0 65 -10t58 -24q37 -18 63 -24t39 -6q37 0 41 19q2 12 -6.5 22.5t-4.5 29.5q5 23 32.5 36.5t70.5 9.5q6 -7 8 -27.5t-3 -40.5q-5 -26 -28 -48t-52.5 -35t-55.5 -13q-18 0 -29 3
q43 -68 43 -159q0 -75 -30 -148t-82 -132t-119 -94.5t-141 -35.5zM180 238q0 -52 11 -95.5t37 -70t69 -26.5t77 27t58.5 71t40.5 96.5t23.5 103.5t7.5 91q0 176 -122 176q-40 0 -76.5 -28t-65 -79t-44.5 -118.5t-16 -147.5zM507 729q-36 0 -82 34t-83 34q-18 0 -46 -28
q-31 -29 -34 -29q-7 0 -3 22q4 25 26 50q45 51 92 51q37 0 83 -34t82 -34q17 0 46 29q27 28 32 28q8 0 4 -22q-4 -25 -27 -51q-42 -50 -90 -50z" />
    <glyph glyph-name="Ohungarumlaut" unicode="&#x150;" horiz-adv-x="649" 
d="M275 -10q-70 0 -124.5 34.5t-85 95t-30.5 136.5q0 77 30 150t82 132t119 94t140 35q71 0 125 -34.5t85 -94.5t31 -138q0 -75 -30 -148t-82 -132t-119 -94.5t-141 -35.5zM297 46q43 0 77 27t58.5 71t40.5 96.5t23.5 103.5t7.5 91q0 176 -122 176q-40 0 -76.5 -28t-65 -79
t-44.5 -118.5t-16 -147.5q0 -52 11 -95.5t37 -70t69 -26.5zM516 713q-5 0 -9.5 7t-4.5 12q0 4 14 17t33.5 28.5t37.5 28.5t26 17q14 8 32 8q24 0 47 -9t23 -29q0 -7 -17.5 -17.5t-44.5 -21t-55.5 -20t-51 -15.5t-30.5 -6zM321 713q-5 0 -9.5 7t-4.5 12q0 4 14 17t33.5 28.5
t37.5 28.5t26 17q14 8 32 8q24 0 47 -9t23 -29q0 -7 -17.5 -17.5t-44.5 -21t-55.5 -20t-51 -15.5t-30.5 -6z" />
    <glyph glyph-name="Omacron" unicode="&#x14c;" horiz-adv-x="649" 
d="M275 -10q-70 0 -124.5 34.5t-85 95t-30.5 136.5q0 77 30 150t82 132t119 94t140 35q71 0 125 -34.5t85 -94.5t31 -138q0 -75 -30 -148t-82 -132t-119 -94.5t-141 -35.5zM297 46q43 0 77 27t58.5 71t40.5 96.5t23.5 103.5t7.5 91q0 176 -122 176q-40 0 -76.5 -28t-65 -79
t-44.5 -118.5t-16 -147.5q0 -52 11 -95.5t37 -70t69 -26.5zM269 739q13 58 25 58h267q7 0 4 -10q-2 -11 -5 -20t-6 -16t-6 -13t-8 -10h-268q-7 0 -3 11z" />
    <glyph glyph-name="Oslash" unicode="&#xd8;" horiz-adv-x="649" 
d="M106 0q-8 -1 -22 5.5t-14 13.5q0 5 2 7l29 41q-31 36 -48.5 84t-17.5 105q0 77 30 150t82 132t119 94t140 35q54 0 100 -21l16 23q7 2 22 -6.5t15 -16.5q0 -5 -1 -6l-12 -18q47 -35 74 -92.5t27 -129.5q0 -75 -30 -148t-82 -132t-119 -94.5t-141 -35.5q-41 0 -77 12.5
t-66 34.5zM180 238q0 -29 3 -53l278 397q-30 29 -79 29q-40 0 -76.5 -28t-65 -79t-44.5 -118.5t-16 -147.5zM297 46q43 0 77 27t58.5 71t40.5 96.5t23.5 103.5t7.5 91q0 64 -16 105l-292 -413q12 -37 36.5 -59t64.5 -22z" />
    <glyph glyph-name="Oslashacute" unicode="&#x1fe;" horiz-adv-x="649" 
d="M106 0q-8 -1 -22 5.5t-14 13.5q0 5 2 7l29 41q-31 36 -48.5 84t-17.5 105q0 77 30 150t82 132t119 94t140 35q54 0 100 -21l16 23q7 2 22 -6.5t15 -16.5q0 -5 -1 -6l-12 -18q47 -35 74 -92.5t27 -129.5q0 -75 -30 -148t-82 -132t-119 -94.5t-141 -35.5q-41 0 -77 12.5
t-66 34.5zM180 238q0 -29 3 -53l278 397q-30 29 -79 29q-40 0 -76.5 -28t-65 -79t-44.5 -118.5t-16 -147.5zM297 46q43 0 77 27t58.5 71t40.5 96.5t23.5 103.5t7.5 91q0 64 -16 105l-292 -413q12 -37 36.5 -59t64.5 -22zM272 715q-5 0 -9.5 7t-4.5 12q0 4 14 17t33.5 28.5
t37.5 28.5t26 17q14 8 32 8q24 0 47 -9t23 -29q0 -7 -17.5 -17.5t-44.5 -21t-55.5 -20t-51 -15.5t-30.5 -6z" />
    <glyph glyph-name="Otilde" unicode="&#xd5;" horiz-adv-x="649" 
d="M275 -10q-70 0 -124.5 34.5t-85 95t-30.5 136.5q0 77 30 150t82 132t119 94t140 35q71 0 125 -34.5t85 -94.5t31 -138q0 -75 -30 -148t-82 -132t-119 -94.5t-141 -35.5zM297 46q43 0 77 27t58.5 71t40.5 96.5t23.5 103.5t7.5 91q0 176 -122 176q-40 0 -76.5 -28t-65 -79
t-44.5 -118.5t-16 -147.5q0 -52 11 -95.5t37 -70t69 -26.5zM507 729q-36 0 -82 34t-83 34q-18 0 -46 -28q-31 -29 -34 -29q-7 0 -3 22q4 25 26 50q45 51 92 51q37 0 83 -34t82 -34q17 0 46 29q27 28 32 28q8 0 4 -22q-4 -25 -27 -51q-42 -50 -90 -50z" />
    <glyph glyph-name="uni1E4E" unicode="&#x1e4e;" horiz-adv-x="649" 
d="M275 -10q-70 0 -124.5 34.5t-85 95t-30.5 136.5q0 77 30 150t82 132t119 94t140 35q71 0 125 -34.5t85 -94.5t31 -138q0 -75 -30 -148t-82 -132t-119 -94.5t-141 -35.5zM297 46q43 0 77 27t58.5 71t40.5 96.5t23.5 103.5t7.5 91q0 176 -122 176q-40 0 -76.5 -28t-65 -79
t-44.5 -118.5t-16 -147.5q0 -52 11 -95.5t37 -70t69 -26.5zM507 729q-36 0 -82 34t-83 34q-18 0 -46 -28q-31 -29 -34 -29q-7 0 -3 22q4 25 26 50q45 51 92 51q37 0 83 -34t82 -34q17 0 46 29q27 28 32 28q8 0 4 -22q-4 -25 -27 -51q-42 -50 -90 -50zM611 1058
q25 0 41.5 -18t16.5 -44q0 -33 -23.5 -59t-54.5 -26q-25 0 -41.5 18t-16.5 45q0 33 23.5 58.5t54.5 25.5zM391 1058q25 0 41.5 -18t16.5 -45q0 -33 -23.5 -58.5t-54.5 -25.5q-25 0 -41.5 18t-16.5 44q0 33 23.5 59t54.5 26z" />
    <glyph glyph-name="OE" unicode="&#x152;" horiz-adv-x="942" 
d="M266 -10q-70 0 -124.5 34.5t-85 95t-30.5 136.5q0 75 29 148.5t80.5 133.5t119 96t143.5 36q34 0 77.5 -2.5t85.5 -5.5t71 -3q32 -1 71.5 0t88.5 2q98 3 141 3q-1 -15 -1.5 -37.5t-0.5 -53.5v-57q-5 -5 -22 -5q-11 0 -12 7q-11 38 -43.5 65t-68.5 27h-35q-59 0 -63 -13
q-6 -16 -10.5 -35.5t-9.5 -42.5l-30 -154q0 -4 14.5 -5t24.5 -1h79q23 0 30 9q9 9 28 53q3 7 16 7q16 0 19 -5l-36 -189q-4 -4 -21 -4q-11 0 -13 8q-1 44 -11 54q-12 12 -75 12q-67 0 -69 -9l-29 -154q-4 -20 -6 -34.5t-2 -24.5q0 -24 18.5 -26t42.5 -2h24q131 0 194 116
q3 6 14 6q23 0 27 -6q-37 -71 -58 -114.5t-26 -57.5q-26 0 -68.5 0.5t-101.5 1.5t-99 1.5t-60 0.5q-53 1 -84 -1t-51 -4.5t-40 -4.5t-52 -2zM292 46q45 0 80.5 5.5t59.5 26.5t32 65l73 378q3 17 -3 37t-24 30q-44 23 -137 23q-40 0 -76.5 -28t-64.5 -79t-44.5 -118.5
t-16.5 -147.5q0 -84 28.5 -138t92.5 -54z" />
    <glyph glyph-name="P" unicode="P" horiz-adv-x="525" 
d="M-12 -4q-1 3 -1.5 7t0.5 9q3 18 6 18q49 0 61 25q10 19 22 80l76 388q4 19 6 37t2 35q0 10 -9.5 17t-21 11.5t-17.5 4.5q-2 0 -2 5q0 7 3 17t5 12q53 -2 84.5 -3.5t42.5 -1.5q32 0 66.5 3t65.5 2q86 -1 133.5 -36.5t47.5 -115.5q0 -58 -29 -110.5t-80.5 -85.5t-120.5 -33
q-21 0 -38.5 6.5t-25.5 14.5q-1 1 -1 7q0 7 3 14.5t6 7.5q6 0 16 -1.5t16 -1.5q57 0 85 54t28 138q0 34 -17.5 60.5t-55.5 26.5q-21 0 -34.5 -4.5t-15.5 -14.5l-86 -447q-5 -26 -7 -43t-2 -24q0 -19 16.5 -28.5t36.5 -12.5t30 -3q4 0 1 -16q-3 -13 -5 -18q-64 4 -101.5 5.5
t-47.5 1.5q-13 0 -32.5 -1t-47.5 -3z" />
    <glyph glyph-name="uni1E54" unicode="&#x1e54;" horiz-adv-x="525" 
d="M-12 -4q-1 3 -1.5 7t0.5 9q3 18 6 18q49 0 61 25q10 19 22 80l76 388q4 19 6 37t2 35q0 10 -9.5 17t-21 11.5t-17.5 4.5q-2 0 -2 5q0 7 3 17t5 12q53 -2 84.5 -3.5t42.5 -1.5q32 0 66.5 3t65.5 2q86 -1 133.5 -36.5t47.5 -115.5q0 -58 -29 -110.5t-80.5 -85.5t-120.5 -33
q-21 0 -38.5 6.5t-25.5 14.5q-1 1 -1 7q0 7 3 14.5t6 7.5q6 0 16 -1.5t16 -1.5q57 0 85 54t28 138q0 34 -17.5 60.5t-55.5 26.5q-21 0 -34.5 -4.5t-15.5 -14.5l-86 -447q-5 -26 -7 -43t-2 -24q0 -19 16.5 -28.5t36.5 -12.5t30 -3q4 0 1 -16q-3 -13 -5 -18q-64 4 -101.5 5.5
t-47.5 1.5q-13 0 -32.5 -1t-47.5 -3zM243 715q-5 0 -9.5 7t-4.5 12q0 4 14 17t33.5 28.5t37.5 28.5t26 17q14 8 32 8q24 0 47 -9t23 -29q0 -7 -17.5 -17.5t-44.5 -21t-55.5 -20t-51 -15.5t-30.5 -6z" />
    <glyph glyph-name="uni1E56" unicode="&#x1e56;" horiz-adv-x="525" 
d="M-12 -4q-1 3 -1.5 7t0.5 9q3 18 6 18q49 0 61 25q10 19 22 80l76 388q4 19 6 37t2 35q0 10 -9.5 17t-21 11.5t-17.5 4.5q-2 0 -2 5q0 7 3 17t5 12q53 -2 84.5 -3.5t42.5 -1.5q32 0 66.5 3t65.5 2q86 -1 133.5 -36.5t47.5 -115.5q0 -58 -29 -110.5t-80.5 -85.5t-120.5 -33
q-21 0 -38.5 6.5t-25.5 14.5q-1 1 -1 7q0 7 3 14.5t6 7.5q6 0 16 -1.5t16 -1.5q57 0 85 54t28 138q0 34 -17.5 60.5t-55.5 26.5q-21 0 -34.5 -4.5t-15.5 -14.5l-86 -447q-5 -26 -7 -43t-2 -24q0 -19 16.5 -28.5t36.5 -12.5t30 -3q4 0 1 -16q-3 -13 -5 -18q-64 4 -101.5 5.5
t-47.5 1.5q-13 0 -32.5 -1t-47.5 -3zM294 768q-28 0 -42 17.5t-14 40.5q0 21 10 41.5t29 34t45 13.5q29 0 42.5 -17.5t13.5 -40.5q0 -20 -10 -41t-28.5 -34.5t-45.5 -13.5z" />
    <glyph glyph-name="Thorn" unicode="&#xde;" horiz-adv-x="537" 
d="M-10 -4q-1 1 -1 10q0 24 6 24q49 0 61 25q7 14 12 34t10 46q14 66 28.5 140t27 141t21 115t8.5 63q0 8 -1 9q-3 8 -20.5 16.5t-27.5 8.5q-5 2 -2 17q1 4 3 8.5t4 8.5l128 -6q12 0 126 6q0 -34 -7 -34q-5 0 -19 -4t-26.5 -9.5t-14.5 -10.5q-5 -12 -10.5 -30.5t-9 -34.5
t-3.5 -20q0 -5 2 -5t14 1.5t28 3t27 1.5q50 0 88.5 -20.5t60.5 -56t22 -80.5q0 -71 -35 -121t-90.5 -75.5t-119.5 -25.5q-23 0 -40 2t-24 2q-6 0 -10 -19q-2 -13 -4 -31.5t-2 -39.5q0 -4 10 -10t21.5 -10.5t15.5 -4.5q3 -2 0.5 -16t-4.5 -18q-12 1 -36.5 2.5t-48.5 3.5
t-37 2q-18 0 -46 -2t-52.5 -3.5t-32.5 -2.5zM283 192q28 0 50.5 26.5t36 68t13.5 84.5q0 98 -51 98q-59 0 -67 -39l-37 -190q-2 -10 -2.5 -15t-0.5 -8q0 -25 58 -25z" />
    <glyph glyph-name="Q" unicode="Q" horiz-adv-x="693" 
d="M567 -200q-64 0 -141 23q-37 11 -84 27.5t-97.5 34t-99.5 33.5t-90 26q0 4 8.5 15.5t13.5 13.5q33 7 73.5 12t87.5 8q-60 9 -106 45t-71.5 92.5t-25.5 125.5q0 77 30 150t82 132t119 94t140 35q71 0 125 -34.5t85 -94.5t31 -138q0 -96 -35 -170t-90 -127t-118 -85.5
t-119 -44.5q13 -2 51 -13.5t100 -32.5q126 -41 193 -41q37 0 74 16t57 33q6 -1 15.5 -7t9.5 -13q-10 -14 -33.5 -33.5t-54 -38t-64.5 -31t-66 -12.5zM301 46q49 0 83.5 28t58 73.5t37 98.5t19 103t5.5 86q0 176 -122 176q-40 0 -76.5 -28t-65 -79t-44.5 -118.5t-16 -147.5
q0 -52 11.5 -95.5t38 -70t71.5 -26.5z" />
    <glyph glyph-name="R" unicode="R" horiz-adv-x="632" 
d="M568 -6q-55 0 -107 21t-81 76q-6 10 -19 37.5t-28 59.5t-29 58t-21 33q-14 14 -32 14q-13 0 -16 -16l-27 -138q-5 -26 -7.5 -46t-2.5 -34q0 -6 9.5 -13t21 -11.5t17.5 -4.5q2 0 2 -5q0 -19 -7 -29q-14 1 -39.5 2.5t-50 3t-37.5 1.5q-16 0 -43 -1.5t-51 -3t-32 -2.5
q-1 1 -1 6q0 7 2 17.5t4 10.5q11 0 32.5 6.5t26.5 15.5q8 13 14 34t11 49l76 388q5 26 7 43.5t2 27.5q0 15 -18.5 24.5t-30.5 9.5q-2 0 -2 5q0 7 3 17t5 12q53 -2 84.5 -3.5t42.5 -1.5q29 0 65.5 2.5t65.5 2.5q42 0 85 -14.5t72 -45.5t29 -79q0 -41 -20 -83.5t-54 -75.5
t-76 -47q-5 -2 -2 -10q23 -70 50.5 -124t58.5 -93q48 -61 94 -61q0 -19 -10 -33q-7 -1 -16 -1.5t-20 -0.5zM316 348q21 0 40 19.5t33 48t22 58.5t8 51q0 82 -70 82q-13 0 -24.5 -1t-16.5 -3q-11 -5 -14 -21l-40 -207q0 -1 -0.5 -3t-0.5 -4q0 -11 11 -15.5t26 -4.5h26z" />
    <glyph glyph-name="Racute" unicode="&#x154;" horiz-adv-x="632" 
d="M568 -6q-55 0 -107 21t-81 76q-6 10 -19 37.5t-28 59.5t-29 58t-21 33q-14 14 -32 14q-13 0 -16 -16l-27 -138q-5 -26 -7.5 -46t-2.5 -34q0 -6 9.5 -13t21 -11.5t17.5 -4.5q2 0 2 -5q0 -19 -7 -29q-14 1 -39.5 2.5t-50 3t-37.5 1.5q-16 0 -43 -1.5t-51 -3t-32 -2.5
q-1 1 -1 6q0 7 2 17.5t4 10.5q11 0 32.5 6.5t26.5 15.5q8 13 14 34t11 49l76 388q5 26 7 43.5t2 27.5q0 15 -18.5 24.5t-30.5 9.5q-2 0 -2 5q0 7 3 17t5 12q53 -2 84.5 -3.5t42.5 -1.5q29 0 65.5 2.5t65.5 2.5q42 0 85 -14.5t72 -45.5t29 -79q0 -41 -20 -83.5t-54 -75.5
t-76 -47q-5 -2 -2 -10q23 -70 50.5 -124t58.5 -93q48 -61 94 -61q0 -19 -10 -33q-7 -1 -16 -1.5t-20 -0.5zM316 348q21 0 40 19.5t33 48t22 58.5t8 51q0 82 -70 82q-13 0 -24.5 -1t-16.5 -3q-11 -5 -14 -21l-40 -207q0 -1 -0.5 -3t-0.5 -4q0 -11 11 -15.5t26 -4.5h26z
M277 715q-5 0 -9.5 7t-4.5 12q0 4 14 17t33.5 28.5t37.5 28.5t26 17q14 8 32 8q24 0 47 -9t23 -29q0 -7 -17.5 -17.5t-44.5 -21t-55.5 -20t-51 -15.5t-30.5 -6z" />
    <glyph glyph-name="Rcaron" unicode="&#x158;" horiz-adv-x="632" 
d="M568 -6q-55 0 -107 21t-81 76q-6 10 -19 37.5t-28 59.5t-29 58t-21 33q-14 14 -32 14q-13 0 -16 -16l-27 -138q-5 -26 -7.5 -46t-2.5 -34q0 -6 9.5 -13t21 -11.5t17.5 -4.5q2 0 2 -5q0 -19 -7 -29q-14 1 -39.5 2.5t-50 3t-37.5 1.5q-16 0 -43 -1.5t-51 -3t-32 -2.5
q-1 1 -1 6q0 7 2 17.5t4 10.5q11 0 32.5 6.5t26.5 15.5q8 13 14 34t11 49l76 388q5 26 7 43.5t2 27.5q0 15 -18.5 24.5t-30.5 9.5q-2 0 -2 5q0 7 3 17t5 12q53 -2 84.5 -3.5t42.5 -1.5q29 0 65.5 2.5t65.5 2.5q42 0 85 -14.5t72 -45.5t29 -79q0 -41 -20 -83.5t-54 -75.5
t-76 -47q-5 -2 -2 -10q23 -70 50.5 -124t58.5 -93q48 -61 94 -61q0 -19 -10 -33q-7 -1 -16 -1.5t-20 -0.5zM316 348q21 0 40 19.5t33 48t22 58.5t8 51q0 82 -70 82q-13 0 -24.5 -1t-16.5 -3q-11 -5 -14 -21l-40 -207q0 -1 -0.5 -3t-0.5 -4q0 -11 11 -15.5t26 -4.5h26z
M318 728q-5 0 -10 9q-5 11 -13 22.5t-18 24.5q-17 23 -30.5 39.5t-24.5 26.5q5 17 17 18t28 -9t34 -24.5t34 -27.5q19 12 45.5 26.5t49.5 25t28 10.5q10 0 6 -19q-12 -8 -33.5 -25t-50.5 -45l-46 -43q-10 -9 -16 -9z" />
    <glyph glyph-name="uni0156" unicode="&#x156;" horiz-adv-x="632" 
d="M568 -6q-55 0 -107 21t-81 76q-6 10 -19 37.5t-28 59.5t-29 58t-21 33q-14 14 -32 14q-13 0 -16 -16l-27 -138q-5 -26 -7.5 -46t-2.5 -34q0 -6 9.5 -13t21 -11.5t17.5 -4.5q2 0 2 -5q0 -19 -7 -29q-14 1 -39.5 2.5t-50 3t-37.5 1.5q-16 0 -43 -1.5t-51 -3t-32 -2.5
q-1 1 -1 6q0 7 2 17.5t4 10.5q11 0 32.5 6.5t26.5 15.5q8 13 14 34t11 49l76 388q5 26 7 43.5t2 27.5q0 15 -18.5 24.5t-30.5 9.5q-2 0 -2 5q0 7 3 17t5 12q53 -2 84.5 -3.5t42.5 -1.5q29 0 65.5 2.5t65.5 2.5q42 0 85 -14.5t72 -45.5t29 -79q0 -41 -20 -83.5t-54 -75.5
t-76 -47q-5 -2 -2 -10q23 -70 50.5 -124t58.5 -93q48 -61 94 -61q0 -19 -10 -33q-7 -1 -16 -1.5t-20 -0.5zM316 348q21 0 40 19.5t33 48t22 58.5t8 51q0 82 -70 82q-13 0 -24.5 -1t-16.5 -3q-11 -5 -14 -21l-40 -207q0 -1 -0.5 -3t-0.5 -4q0 -11 11 -15.5t26 -4.5h26z
M238 -101q0 16 16.5 26t43 14.5t54.5 4.5q12 -13 12 -47q0 -22 -22 -46.5t-52 -43.5t-56 -25h-3q-6 0 -13.5 4.5t-7.5 9.5q0 4 14.5 14t28.5 21t14 18q0 9 -14 23q-15 14 -15 27z" />
    <glyph glyph-name="uni1E58" unicode="&#x1e58;" horiz-adv-x="632" 
d="M568 -6q-55 0 -107 21t-81 76q-6 10 -19 37.5t-28 59.5t-29 58t-21 33q-14 14 -32 14q-13 0 -16 -16l-27 -138q-5 -26 -7.5 -46t-2.5 -34q0 -6 9.5 -13t21 -11.5t17.5 -4.5q2 0 2 -5q0 -19 -7 -29q-14 1 -39.5 2.5t-50 3t-37.5 1.5q-16 0 -43 -1.5t-51 -3t-32 -2.5
q-1 1 -1 6q0 7 2 17.5t4 10.5q11 0 32.5 6.5t26.5 15.5q8 13 14 34t11 49l76 388q5 26 7 43.5t2 27.5q0 15 -18.5 24.5t-30.5 9.5q-2 0 -2 5q0 7 3 17t5 12q53 -2 84.5 -3.5t42.5 -1.5q29 0 65.5 2.5t65.5 2.5q42 0 85 -14.5t72 -45.5t29 -79q0 -41 -20 -83.5t-54 -75.5
t-76 -47q-5 -2 -2 -10q23 -70 50.5 -124t58.5 -93q48 -61 94 -61q0 -19 -10 -33q-7 -1 -16 -1.5t-20 -0.5zM316 348q21 0 40 19.5t33 48t22 58.5t8 51q0 82 -70 82q-13 0 -24.5 -1t-16.5 -3q-11 -5 -14 -21l-40 -207q0 -1 -0.5 -3t-0.5 -4q0 -11 11 -15.5t26 -4.5h26z
M328 768q-28 0 -42 17.5t-14 40.5q0 21 10 41.5t29 34t45 13.5q29 0 42.5 -17.5t13.5 -40.5q0 -20 -10 -41t-28.5 -34.5t-45.5 -13.5z" />
    <glyph glyph-name="uni1E5A" unicode="&#x1e5a;" horiz-adv-x="632" 
d="M568 -6q-55 0 -107 21t-81 76q-6 10 -19 37.5t-28 59.5t-29 58t-21 33q-14 14 -32 14q-13 0 -16 -16l-27 -138q-5 -26 -7.5 -46t-2.5 -34q0 -6 9.5 -13t21 -11.5t17.5 -4.5q2 0 2 -5q0 -19 -7 -29q-14 1 -39.5 2.5t-50 3t-37.5 1.5q-16 0 -43 -1.5t-51 -3t-32 -2.5
q-1 1 -1 6q0 7 2 17.5t4 10.5q11 0 32.5 6.5t26.5 15.5q8 13 14 34t11 49l76 388q5 26 7 43.5t2 27.5q0 15 -18.5 24.5t-30.5 9.5q-2 0 -2 5q0 7 3 17t5 12q53 -2 84.5 -3.5t42.5 -1.5q29 0 65.5 2.5t65.5 2.5q42 0 85 -14.5t72 -45.5t29 -79q0 -41 -20 -83.5t-54 -75.5
t-76 -47q-5 -2 -2 -10q23 -70 50.5 -124t58.5 -93q48 -61 94 -61q0 -19 -10 -33q-7 -1 -16 -1.5t-20 -0.5zM316 348q21 0 40 19.5t33 48t22 58.5t8 51q0 82 -70 82q-13 0 -24.5 -1t-16.5 -3q-11 -5 -14 -21l-40 -207q0 -1 -0.5 -3t-0.5 -4q0 -11 11 -15.5t26 -4.5h26z
M296 -193q-28 0 -42 17.5t-14 40.5q0 21 10 41.5t29 34t45 13.5q29 0 42.5 -17.5t13.5 -40.5q0 -20 -10 -41t-28.5 -34.5t-45.5 -13.5z" />
    <glyph glyph-name="Rmacronbelow" unicode="&#x1e5e;" horiz-adv-x="632" 
d="M568 -6q-55 0 -107 21t-81 76q-6 10 -19 37.5t-28 59.5t-29 58t-21 33q-14 14 -32 14q-13 0 -16 -16l-27 -138q-5 -26 -7.5 -46t-2.5 -34q0 -6 9.5 -13t21 -11.5t17.5 -4.5q2 0 2 -5q0 -19 -7 -29q-14 1 -39.5 2.5t-50 3t-37.5 1.5q-16 0 -43 -1.5t-51 -3t-32 -2.5
q-1 1 -1 6q0 7 2 17.5t4 10.5q11 0 32.5 6.5t26.5 15.5q8 13 14 34t11 49l76 388q5 26 7 43.5t2 27.5q0 15 -18.5 24.5t-30.5 9.5q-2 0 -2 5q0 7 3 17t5 12q53 -2 84.5 -3.5t42.5 -1.5q29 0 65.5 2.5t65.5 2.5q42 0 85 -14.5t72 -45.5t29 -79q0 -41 -20 -83.5t-54 -75.5
t-76 -47q-5 -2 -2 -10q23 -70 50.5 -124t58.5 -93q48 -61 94 -61q0 -19 -10 -33q-7 -1 -16 -1.5t-20 -0.5zM316 348q21 0 40 19.5t33 48t22 58.5t8 51q0 82 -70 82q-13 0 -24.5 -1t-16.5 -3q-11 -5 -14 -21l-40 -207q0 -1 -0.5 -3t-0.5 -4q0 -11 11 -15.5t26 -4.5h26z
M156 -155q13 58 25 58h267q7 0 4 -10q-2 -11 -5 -20t-6 -16t-6 -13t-8 -10h-268q-7 0 -3 11z" />
    <glyph glyph-name="S" unicode="S" horiz-adv-x="449" 
d="M167 -10q-64 0 -165 26q2 22 3.5 44t1.5 44l-1 78q0 8 24 8q18 0 24 -8q0 -30 14 -61.5t40.5 -52.5t61.5 -21q26 0 50 15t39 42.5t15 64.5q0 25 -17 47t-41 42t-46 37q-28 24 -51 45.5t-37 47.5t-14 62q0 47 21.5 87t56.5 69.5t76.5 46.5t82.5 17q35 0 74 -10t77 -18
q-25 -177 -29 -177h-14q-9 0 -15.5 3t-6.5 14q0 26 -10.5 57t-32 53t-53.5 22t-53 -17.5t-31 -41.5t-10 -44q0 -44 43 -79l122 -99q20 -16 32.5 -38.5t12.5 -66.5q0 -55 -21 -99t-56 -75t-78.5 -47.5t-88.5 -16.5z" />
    <glyph glyph-name="Sacute" unicode="&#x15a;" horiz-adv-x="449" 
d="M167 -10q-64 0 -165 26q2 22 3.5 44t1.5 44l-1 78q0 8 24 8q18 0 24 -8q0 -30 14 -61.5t40.5 -52.5t61.5 -21q26 0 50 15t39 42.5t15 64.5q0 25 -17 47t-41 42t-46 37q-28 24 -51 45.5t-37 47.5t-14 62q0 47 21.5 87t56.5 69.5t76.5 46.5t82.5 17q35 0 74 -10t77 -18
q-25 -177 -29 -177h-14q-9 0 -15.5 3t-6.5 14q0 26 -10.5 57t-32 53t-53.5 22t-53 -17.5t-31 -41.5t-10 -44q0 -44 43 -79l122 -99q20 -16 32.5 -38.5t12.5 -66.5q0 -55 -21 -99t-56 -75t-78.5 -47.5t-88.5 -16.5zM276 715q-5 0 -9.5 7t-4.5 12q0 4 14 17t33.5 28.5
t37.5 28.5t26 17q14 8 32 8q24 0 47 -9t23 -29q0 -7 -17.5 -17.5t-44.5 -21t-55.5 -20t-51 -15.5t-30.5 -6z" />
    <glyph glyph-name="uni1E64" unicode="&#x1e64;" horiz-adv-x="449" 
d="M167 -10q-64 0 -165 26q2 22 3.5 44t1.5 44l-1 78q0 8 24 8q18 0 24 -8q0 -30 14 -61.5t40.5 -52.5t61.5 -21q26 0 50 15t39 42.5t15 64.5q0 25 -17 47t-41 42t-46 37q-28 24 -51 45.5t-37 47.5t-14 62q0 47 21.5 87t56.5 69.5t76.5 46.5t82.5 17q35 0 74 -10t77 -18
q-25 -177 -29 -177h-14q-9 0 -15.5 3t-6.5 14q0 26 -10.5 57t-32 53t-53.5 22t-53 -17.5t-31 -41.5t-10 -44q0 -44 43 -79l122 -99q20 -16 32.5 -38.5t12.5 -66.5q0 -55 -21 -99t-56 -75t-78.5 -47.5t-88.5 -16.5zM276 715q-5 0 -9.5 7t-4.5 12q0 4 14 17t33.5 28.5
t37.5 28.5t26 17q14 8 32 8q24 0 47 -9t23 -29q0 -7 -17.5 -17.5t-44.5 -21t-55.5 -20t-51 -15.5t-30.5 -6zM301 885q-28 0 -42 17.5t-14 40.5q0 21 10 41.5t29 34t45 13.5q29 0 42.5 -17.5t13.5 -40.5q0 -20 -10 -41t-28.5 -34.5t-45.5 -13.5z" />
    <glyph glyph-name="Scaron" unicode="&#x160;" horiz-adv-x="449" 
d="M167 -10q-64 0 -165 26q2 22 3.5 44t1.5 44l-1 78q0 8 24 8q18 0 24 -8q0 -30 14 -61.5t40.5 -52.5t61.5 -21q26 0 50 15t39 42.5t15 64.5q0 25 -17 47t-41 42t-46 37q-28 24 -51 45.5t-37 47.5t-14 62q0 47 21.5 87t56.5 69.5t76.5 46.5t82.5 17q35 0 74 -10t77 -18
q-25 -177 -29 -177h-14q-9 0 -15.5 3t-6.5 14q0 26 -10.5 57t-32 53t-53.5 22t-53 -17.5t-31 -41.5t-10 -44q0 -44 43 -79l122 -99q20 -16 32.5 -38.5t12.5 -66.5q0 -55 -21 -99t-56 -75t-78.5 -47.5t-88.5 -16.5zM317 728q-5 0 -10 9q-5 11 -13 22.5t-18 24.5
q-17 23 -30.5 39.5t-24.5 26.5q5 17 17 18t28 -9t34 -24.5t34 -27.5q19 12 45.5 26.5t49.5 25t28 10.5q10 0 6 -19q-12 -8 -33.5 -25t-50.5 -45l-46 -43q-10 -9 -16 -9z" />
    <glyph glyph-name="uni1E66" unicode="&#x1e66;" horiz-adv-x="449" 
d="M167 -10q-64 0 -165 26q2 22 3.5 44t1.5 44l-1 78q0 8 24 8q18 0 24 -8q0 -30 14 -61.5t40.5 -52.5t61.5 -21q26 0 50 15t39 42.5t15 64.5q0 25 -17 47t-41 42t-46 37q-28 24 -51 45.5t-37 47.5t-14 62q0 47 21.5 87t56.5 69.5t76.5 46.5t82.5 17q35 0 74 -10t77 -18
q-25 -177 -29 -177h-14q-9 0 -15.5 3t-6.5 14q0 26 -10.5 57t-32 53t-53.5 22t-53 -17.5t-31 -41.5t-10 -44q0 -44 43 -79l122 -99q20 -16 32.5 -38.5t12.5 -66.5q0 -55 -21 -99t-56 -75t-78.5 -47.5t-88.5 -16.5zM317 728q-5 0 -10 9q-5 11 -13 22.5t-18 24.5
q-17 23 -30.5 39.5t-24.5 26.5q5 17 17 18t28 -9t34 -24.5t34 -27.5q19 12 45.5 26.5t49.5 25t28 10.5q10 0 6 -19q-12 -8 -33.5 -25t-50.5 -45l-46 -43q-10 -9 -16 -9zM347 894q-28 0 -41 17.5t-13 40.5q0 32 21.5 61t61.5 29q29 0 42.5 -17.5t13.5 -41.5q0 -20 -10 -41
t-29 -34.5t-46 -13.5z" />
    <glyph glyph-name="Scedilla" unicode="&#x15e;" horiz-adv-x="449" 
d="M167 -10q-64 0 -165 26q2 22 3.5 44t1.5 44l-1 78q0 8 24 8q18 0 24 -8q0 -30 14 -61.5t40.5 -52.5t61.5 -21q26 0 50 15t39 42.5t15 64.5q0 25 -17 47t-41 42t-46 37q-28 24 -51 45.5t-37 47.5t-14 62q0 47 21.5 87t56.5 69.5t76.5 46.5t82.5 17q35 0 74 -10t77 -18
q-25 -177 -29 -177h-14q-9 0 -15.5 3t-6.5 14q0 26 -10.5 57t-32 53t-53.5 22t-53 -17.5t-31 -41.5t-10 -44q0 -44 43 -79l122 -99q20 -16 32.5 -38.5t12.5 -66.5q0 -55 -21 -99t-56 -75t-78.5 -47.5t-88.5 -16.5zM118 -1h36l-22 -31q7 1 12.5 1h9.5q21 0 34.5 -14.5
t13.5 -35.5q0 -22 -14.5 -46t-42.5 -40t-69 -16q-40 0 -54 8q-5 12 -5 25q0 10 7.5 18t14.5 8q12 0 23 -10.5t29 -10.5q24 0 37.5 13t13.5 29q0 25 -21 25q-19 0 -34 -7q-2 0 -8.5 7.5t-3.5 10.5l12 18t19.5 30.5t11.5 17.5z" />
    <glyph glyph-name="Scircumflex" unicode="&#x15c;" horiz-adv-x="449" 
d="M167 -10q-64 0 -165 26q2 22 3.5 44t1.5 44l-1 78q0 8 24 8q18 0 24 -8q0 -30 14 -61.5t40.5 -52.5t61.5 -21q26 0 50 15t39 42.5t15 64.5q0 25 -17 47t-41 42t-46 37q-28 24 -51 45.5t-37 47.5t-14 62q0 47 21.5 87t56.5 69.5t76.5 46.5t82.5 17q35 0 74 -10t77 -18
q-25 -177 -29 -177h-14q-9 0 -15.5 3t-6.5 14q0 26 -10.5 57t-32 53t-53.5 22t-53 -17.5t-31 -41.5t-10 -44q0 -44 43 -79l122 -99q20 -16 32.5 -38.5t12.5 -66.5q0 -55 -21 -99t-56 -75t-78.5 -47.5t-88.5 -16.5zM193 727q-11 0 -7 19q16 10 39 26t53 39q17 14 31 26t24 22
q11 9 16 9q4 0 13 -9l33 -44q20 -24 36 -41t28 -28q-4 -19 -15 -19q-5 0 -26.5 10.5t-45.5 25.5t-40 26q-15 -9 -37 -19.5t-44 -20t-38 -16t-20 -6.5z" />
    <glyph glyph-name="uni0218" unicode="&#x218;" horiz-adv-x="449" 
d="M167 -10q-64 0 -165 26q2 22 3.5 44t1.5 44l-1 78q0 8 24 8q18 0 24 -8q0 -30 14 -61.5t40.5 -52.5t61.5 -21q26 0 50 15t39 42.5t15 64.5q0 25 -17 47t-41 42t-46 37q-28 24 -51 45.5t-37 47.5t-14 62q0 47 21.5 87t56.5 69.5t76.5 46.5t82.5 17q35 0 74 -10t77 -18
q-25 -177 -29 -177h-14q-9 0 -15.5 3t-6.5 14q0 26 -10.5 57t-32 53t-53.5 22t-53 -17.5t-31 -41.5t-10 -44q0 -44 43 -79l122 -99q20 -16 32.5 -38.5t12.5 -66.5q0 -55 -21 -99t-56 -75t-78.5 -47.5t-88.5 -16.5zM63 -101q0 16 16.5 26t43 14.5t54.5 4.5q12 -13 12 -47
q0 -22 -22 -46.5t-52 -43.5t-56 -25h-3q-6 0 -13.5 4.5t-7.5 9.5q0 4 14.5 14t28.5 21t14 18q0 9 -14 23q-15 14 -15 27z" />
    <glyph glyph-name="uni1E60" unicode="&#x1e60;" horiz-adv-x="449" 
d="M167 -10q-64 0 -165 26q2 22 3.5 44t1.5 44l-1 78q0 8 24 8q18 0 24 -8q0 -30 14 -61.5t40.5 -52.5t61.5 -21q26 0 50 15t39 42.5t15 64.5q0 25 -17 47t-41 42t-46 37q-28 24 -51 45.5t-37 47.5t-14 62q0 47 21.5 87t56.5 69.5t76.5 46.5t82.5 17q35 0 74 -10t77 -18
q-25 -177 -29 -177h-14q-9 0 -15.5 3t-6.5 14q0 26 -10.5 57t-32 53t-53.5 22t-53 -17.5t-31 -41.5t-10 -44q0 -44 43 -79l122 -99q20 -16 32.5 -38.5t12.5 -66.5q0 -55 -21 -99t-56 -75t-78.5 -47.5t-88.5 -16.5zM327 768q-28 0 -42 17.5t-14 40.5q0 21 10 41.5t29 34
t45 13.5q29 0 42.5 -17.5t13.5 -40.5q0 -20 -10 -41t-28.5 -34.5t-45.5 -13.5z" />
    <glyph glyph-name="uni1E62" unicode="&#x1e62;" horiz-adv-x="449" 
d="M167 -10q-64 0 -165 26q2 22 3.5 44t1.5 44l-1 78q0 8 24 8q18 0 24 -8q0 -30 14 -61.5t40.5 -52.5t61.5 -21q26 0 50 15t39 42.5t15 64.5q0 25 -17 47t-41 42t-46 37q-28 24 -51 45.5t-37 47.5t-14 62q0 47 21.5 87t56.5 69.5t76.5 46.5t82.5 17q35 0 74 -10t77 -18
q-25 -177 -29 -177h-14q-9 0 -15.5 3t-6.5 14q0 26 -10.5 57t-32 53t-53.5 22t-53 -17.5t-31 -41.5t-10 -44q0 -44 43 -79l122 -99q20 -16 32.5 -38.5t12.5 -66.5q0 -55 -21 -99t-56 -75t-78.5 -47.5t-88.5 -16.5zM121 -193q-28 0 -42 17.5t-14 40.5q0 21 10 41.5t29 34
t45 13.5q29 0 42.5 -17.5t13.5 -40.5q0 -20 -10 -41t-28.5 -34.5t-45.5 -13.5z" />
    <glyph glyph-name="uni1E68" unicode="&#x1e68;" horiz-adv-x="449" 
d="M167 -10q-64 0 -165 26q2 22 3.5 44t1.5 44l-1 78q0 8 24 8q18 0 24 -8q0 -30 14 -61.5t40.5 -52.5t61.5 -21q26 0 50 15t39 42.5t15 64.5q0 25 -17 47t-41 42t-46 37q-28 24 -51 45.5t-37 47.5t-14 62q0 47 21.5 87t56.5 69.5t76.5 46.5t82.5 17q35 0 74 -10t77 -18
q-25 -177 -29 -177h-14q-9 0 -15.5 3t-6.5 14q0 26 -10.5 57t-32 53t-53.5 22t-53 -17.5t-31 -41.5t-10 -44q0 -44 43 -79l122 -99q20 -16 32.5 -38.5t12.5 -66.5q0 -55 -21 -99t-56 -75t-78.5 -47.5t-88.5 -16.5zM121 -193q-28 0 -42 17.5t-14 40.5q0 21 10 41.5t29 34
t45 13.5q29 0 42.5 -17.5t13.5 -40.5q0 -20 -10 -41t-28.5 -34.5t-45.5 -13.5zM327 768q-28 0 -42 17.5t-14 40.5q0 21 10 41.5t29 34t45 13.5q29 0 42.5 -17.5t13.5 -40.5q0 -20 -10 -41t-28.5 -34.5t-45.5 -13.5z" />
    <glyph glyph-name="T" unicode="T" horiz-adv-x="542" 
d="M85 -4q-1 1 -1 6q0 7 2 17.5t4 10.5q11 0 32.5 6.5t26.5 15.5q14 24 25 83l70 362q7 34 10 53.5t3 26.5q0 21 -13 25q-15 5 -62 5q-38 0 -67 -22.5t-52 -75.5q-3 -5 -10 -5q-6 0 -15 2.5t-10 4.5l49 163q39 -11 62 -11q29 0 65 -1.5l72 -3t65 -1.5q30 0 66.5 1.5t73.5 3
t66 1.5q21 0 67 11l-15 -164q-2 -2 -12 -4.5t-16 -2.5q-8 0 -8 5q-2 53 -23 76t-58 23q-31 0 -54 -2.5t-28 -15.5q-13 -30 -25 -89l-70 -361q-5 -26 -7.5 -46t-2.5 -34q0 -6 9.5 -13t21 -11.5t17.5 -4.5q2 0 2 -5q0 -19 -7 -29q-13 1 -38 2.5t-49.5 3t-37.5 1.5
q-16 0 -43.5 -1.5t-52 -3t-32.5 -2.5z" />
    <glyph glyph-name="Tbar" unicode="&#x166;" horiz-adv-x="542" 
d="M85 -4q-1 1 -1 6q0 7 2 17.5t4 10.5q11 0 32.5 6.5t26.5 15.5q14 24 25 83l31 161h-97l-3 10q0 5 4 23.5t10 29.5q1 5 6 5h93l26 133q7 34 10 53.5t3 26.5q0 21 -13 25q-15 5 -62 5q-38 0 -67 -22.5t-52 -75.5q-3 -5 -10 -5q-6 0 -15 2.5t-10 4.5l49 163q39 -11 62 -11
q29 0 65 -1.5l72 -3t65 -1.5q30 0 66.5 1.5t73.5 3t66 1.5q21 0 67 11l-15 -164q-2 -2 -12 -4.5t-16 -2.5q-8 0 -8 5q-2 53 -23 76t-58 23q-31 0 -54 -2.5t-28 -15.5q-13 -30 -25 -89l-26 -136h87q7 0 6 -7q-9 -40 -16 -55q-1 -6 -7 -6h-84l-30 -157q-5 -26 -7.5 -46
t-2.5 -34q0 -6 9.5 -13t21 -11.5t17.5 -4.5q2 0 2 -5q0 -19 -7 -29q-13 1 -38 2.5t-49.5 3t-37.5 1.5q-16 0 -43.5 -1.5t-52 -3t-32.5 -2.5z" />
    <glyph glyph-name="Tcaron" unicode="&#x164;" horiz-adv-x="542" 
d="M85 -4q-1 1 -1 6q0 7 2 17.5t4 10.5q11 0 32.5 6.5t26.5 15.5q14 24 25 83l70 362q7 34 10 53.5t3 26.5q0 21 -13 25q-15 5 -62 5q-38 0 -67 -22.5t-52 -75.5q-3 -5 -10 -5q-6 0 -15 2.5t-10 4.5l49 163q39 -11 62 -11q29 0 65 -1.5l72 -3t65 -1.5q30 0 66.5 1.5t73.5 3
t66 1.5q21 0 67 11l-15 -164q-2 -2 -12 -4.5t-16 -2.5q-8 0 -8 5q-2 53 -23 76t-58 23q-31 0 -54 -2.5t-28 -15.5q-13 -30 -25 -89l-70 -361q-5 -26 -7.5 -46t-2.5 -34q0 -6 9.5 -13t21 -11.5t17.5 -4.5q2 0 2 -5q0 -19 -7 -29q-13 1 -38 2.5t-49.5 3t-37.5 1.5
q-16 0 -43.5 -1.5t-52 -3t-32.5 -2.5zM357 728q-5 0 -10 9q-5 11 -13 22.5t-18 24.5q-17 23 -30.5 39.5t-24.5 26.5q5 17 17 18t28 -9t34 -24.5t34 -27.5q19 12 45.5 26.5t49.5 25t28 10.5q10 0 6 -19q-12 -8 -33.5 -25t-50.5 -45l-46 -43q-10 -9 -16 -9z" />
    <glyph glyph-name="uni0162" unicode="&#x162;" horiz-adv-x="542" 
d="M85 -4q-1 1 -1 6q0 7 2 17.5t4 10.5q11 0 32.5 6.5t26.5 15.5q14 24 25 83l70 362q7 34 10 53.5t3 26.5q0 21 -13 25q-15 5 -62 5q-38 0 -67 -22.5t-52 -75.5q-3 -5 -10 -5q-6 0 -15 2.5t-10 4.5l49 163q39 -11 62 -11q29 0 65 -1.5l72 -3t65 -1.5q30 0 66.5 1.5t73.5 3
t66 1.5q21 0 67 11l-15 -164q-2 -2 -12 -4.5t-16 -2.5q-8 0 -8 5q-2 53 -23 76t-58 23q-31 0 -54 -2.5t-28 -15.5q-13 -30 -25 -89l-70 -361q-5 -26 -7.5 -46t-2.5 -34q0 -6 9.5 -13t21 -11.5t17.5 -4.5q2 0 2 -5q0 -19 -7 -29q-13 1 -38 2.5t-49.5 3t-37.5 1.5
q-16 0 -43.5 -1.5t-52 -3t-32.5 -2.5zM201 4h36l-22 -31q7 1 12.5 1h9.5q21 0 34.5 -14.5t13.5 -35.5q0 -22 -14.5 -46t-42.5 -40t-69 -16q-40 0 -54 8q-5 12 -5 25q0 10 7.5 18t14.5 8q12 0 23 -10.5t29 -10.5q24 0 37.5 13t13.5 29q0 25 -21 25q-19 0 -34 -7
q-2 0 -8.5 7.5t-3.5 10.5l12 18t19.5 30.5t11.5 17.5z" />
    <glyph glyph-name="uni1E70" unicode="&#x1e70;" horiz-adv-x="542" 
d="M85 -4q-1 1 -1 6q0 7 2 17.5t4 10.5q11 0 32.5 6.5t26.5 15.5q14 24 25 83l70 362q7 34 10 53.5t3 26.5q0 21 -13 25q-15 5 -62 5q-38 0 -67 -22.5t-52 -75.5q-3 -5 -10 -5q-6 0 -15 2.5t-10 4.5l49 163q39 -11 62 -11q29 0 65 -1.5l72 -3t65 -1.5q30 0 66.5 1.5t73.5 3
t66 1.5q21 0 67 11l-15 -164q-2 -2 -12 -4.5t-16 -2.5q-8 0 -8 5q-2 53 -23 76t-58 23q-31 0 -54 -2.5t-28 -15.5q-13 -30 -25 -89l-70 -361q-5 -26 -7.5 -46t-2.5 -34q0 -6 9.5 -13t21 -11.5t17.5 -4.5q2 0 2 -5q0 -19 -7 -29q-13 1 -38 2.5t-49.5 3t-37.5 1.5
q-16 0 -43.5 -1.5t-52 -3t-32.5 -2.5zM33 -228q-11 0 -7 19q16 10 39 26t53 39q17 14 31 26t24 22q11 9 16 9q4 0 13 -9l33 -44q20 -24 36 -41t28 -28q-4 -19 -15 -19q-5 0 -26.5 10.5t-45.5 25.5t-40 26q-15 -9 -37 -19.5t-44 -20t-38 -16t-20 -6.5z" />
    <glyph glyph-name="uni021A" unicode="&#x21a;" horiz-adv-x="542" 
d="M85 -4q-1 1 -1 6q0 7 2 17.5t4 10.5q11 0 32.5 6.5t26.5 15.5q14 24 25 83l70 362q7 34 10 53.5t3 26.5q0 21 -13 25q-15 5 -62 5q-38 0 -67 -22.5t-52 -75.5q-3 -5 -10 -5q-6 0 -15 2.5t-10 4.5l49 163q39 -11 62 -11q29 0 65 -1.5l72 -3t65 -1.5q30 0 66.5 1.5t73.5 3
t66 1.5q21 0 67 11l-15 -164q-2 -2 -12 -4.5t-16 -2.5q-8 0 -8 5q-2 53 -23 76t-58 23q-31 0 -54 -2.5t-28 -15.5q-13 -30 -25 -89l-70 -361q-5 -26 -7.5 -46t-2.5 -34q0 -6 9.5 -13t21 -11.5t17.5 -4.5q2 0 2 -5q0 -19 -7 -29q-13 1 -38 2.5t-49.5 3t-37.5 1.5
q-16 0 -43.5 -1.5t-52 -3t-32.5 -2.5zM146 -96q0 16 16.5 26t43 14.5t54.5 4.5q12 -13 12 -47q0 -22 -22 -46.5t-52 -43.5t-56 -25h-3q-6 0 -13.5 4.5t-7.5 9.5q0 4 14.5 14t28.5 21t14 18q0 9 -14 23q-15 14 -15 27z" />
    <glyph glyph-name="uni1E6A" unicode="&#x1e6a;" horiz-adv-x="542" 
d="M85 -4q-1 1 -1 6q0 7 2 17.5t4 10.5q11 0 32.5 6.5t26.5 15.5q14 24 25 83l70 362q7 34 10 53.5t3 26.5q0 21 -13 25q-15 5 -62 5q-38 0 -67 -22.5t-52 -75.5q-3 -5 -10 -5q-6 0 -15 2.5t-10 4.5l49 163q39 -11 62 -11q29 0 65 -1.5l72 -3t65 -1.5q30 0 66.5 1.5t73.5 3
t66 1.5q21 0 67 11l-15 -164q-2 -2 -12 -4.5t-16 -2.5q-8 0 -8 5q-2 53 -23 76t-58 23q-31 0 -54 -2.5t-28 -15.5q-13 -30 -25 -89l-70 -361q-5 -26 -7.5 -46t-2.5 -34q0 -6 9.5 -13t21 -11.5t17.5 -4.5q2 0 2 -5q0 -19 -7 -29q-13 1 -38 2.5t-49.5 3t-37.5 1.5
q-16 0 -43.5 -1.5t-52 -3t-32.5 -2.5zM367 768q-28 0 -42 17.5t-14 40.5q0 21 10 41.5t29 34t45 13.5q29 0 42.5 -17.5t13.5 -40.5q0 -20 -10 -41t-28.5 -34.5t-45.5 -13.5z" />
    <glyph glyph-name="uni1E6C" unicode="&#x1e6c;" horiz-adv-x="542" 
d="M85 -4q-1 1 -1 6q0 7 2 17.5t4 10.5q11 0 32.5 6.5t26.5 15.5q14 24 25 83l70 362q7 34 10 53.5t3 26.5q0 21 -13 25q-15 5 -62 5q-38 0 -67 -22.5t-52 -75.5q-3 -5 -10 -5q-6 0 -15 2.5t-10 4.5l49 163q39 -11 62 -11q29 0 65 -1.5l72 -3t65 -1.5q30 0 66.5 1.5t73.5 3
t66 1.5q21 0 67 11l-15 -164q-2 -2 -12 -4.5t-16 -2.5q-8 0 -8 5q-2 53 -23 76t-58 23q-31 0 -54 -2.5t-28 -15.5q-13 -30 -25 -89l-70 -361q-5 -26 -7.5 -46t-2.5 -34q0 -6 9.5 -13t21 -11.5t17.5 -4.5q2 0 2 -5q0 -19 -7 -29q-13 1 -38 2.5t-49.5 3t-37.5 1.5
q-16 0 -43.5 -1.5t-52 -3t-32.5 -2.5zM204 -188q-28 0 -42 17.5t-14 40.5q0 21 10 41.5t29 34t45 13.5q29 0 42.5 -17.5t13.5 -40.5q0 -20 -10 -41t-28.5 -34.5t-45.5 -13.5z" />
    <glyph glyph-name="Tmacronbelow" unicode="&#x1e6e;" horiz-adv-x="542" 
d="M85 -4q-1 1 -1 6q0 7 2 17.5t4 10.5q11 0 32.5 6.5t26.5 15.5q14 24 25 83l70 362q7 34 10 53.5t3 26.5q0 21 -13 25q-15 5 -62 5q-38 0 -67 -22.5t-52 -75.5q-3 -5 -10 -5q-6 0 -15 2.5t-10 4.5l49 163q39 -11 62 -11q29 0 65 -1.5l72 -3t65 -1.5q30 0 66.5 1.5t73.5 3
t66 1.5q21 0 67 11l-15 -164q-2 -2 -12 -4.5t-16 -2.5q-8 0 -8 5q-2 53 -23 76t-58 23q-31 0 -54 -2.5t-28 -15.5q-13 -30 -25 -89l-70 -361q-5 -26 -7.5 -46t-2.5 -34q0 -6 9.5 -13t21 -11.5t17.5 -4.5q2 0 2 -5q0 -19 -7 -29q-13 1 -38 2.5t-49.5 3t-37.5 1.5
q-16 0 -43.5 -1.5t-52 -3t-32.5 -2.5zM25 -170q13 58 25 58h267q7 0 4 -10q-2 -11 -5 -20t-6 -16t-6 -13t-8 -10h-268q-7 0 -3 11z" />
    <glyph glyph-name="U" unicode="U" horiz-adv-x="644" 
d="M257 -5q-91 0 -138.5 41t-58.5 112.5t7 162.5l41 211q7 34 8.5 53.5t-0.5 24.5q-2 6 -12.5 11.5t-22 9.5t-18.5 4q-3 0 0 17q3 18 5 20l134 -6q17 0 131 6v-18q-3 -19 -8 -19t-20 -4t-29 -9.5t-16 -10.5q-7 -14 -12.5 -35.5t-10.5 -49.5l-46 -237q-18 -92 10 -148t94 -56
q74 0 125.5 52t72.5 159l46 238q2 11 3 18t2 10l2 16q1 17 -5 28q-4 8 -17.5 14.5t-27.5 10.5t-22 4q-3 1 -2.5 9.5t3 17.5t4.5 10q42 -4 72 -6t49 -2q11 0 27.5 1.5t36.5 2.5l53 4q2 -7 0 -18q-1 -5 -4 -12t-5 -7q-15 0 -41 -8t-42 -25q-17 -17 -27 -73l-45 -228
q-19 -97 -62 -163t-103 -99.5t-131 -33.5z" />
    <glyph glyph-name="Uacute" unicode="&#xda;" horiz-adv-x="644" 
d="M257 -5q-91 0 -138.5 41t-58.5 112.5t7 162.5l41 211q7 34 8.5 53.5t-0.5 24.5q-2 6 -12.5 11.5t-22 9.5t-18.5 4q-3 0 0 17q3 18 5 20l134 -6q17 0 131 6v-18q-3 -19 -8 -19t-20 -4t-29 -9.5t-16 -10.5q-7 -14 -12.5 -35.5t-10.5 -49.5l-46 -237q-18 -92 10 -148t94 -56
q74 0 125.5 52t72.5 159l46 238q2 11 3 18t2 10l2 16q1 17 -5 28q-4 8 -17.5 14.5t-27.5 10.5t-22 4q-3 1 -2.5 9.5t3 17.5t4.5 10q42 -4 72 -6t49 -2q11 0 27.5 1.5t36.5 2.5l53 4q2 -7 0 -18q-1 -5 -4 -12t-5 -7q-15 0 -41 -8t-42 -25q-17 -17 -27 -73l-45 -228
q-19 -97 -62 -163t-103 -99.5t-131 -33.5zM373 715q-5 0 -9.5 7t-4.5 12q0 4 14 17t33.5 28.5t37.5 28.5t26 17q14 8 32 8q24 0 47 -9t23 -29q0 -7 -17.5 -17.5t-44.5 -21t-55.5 -20t-51 -15.5t-30.5 -6z" />
    <glyph glyph-name="Ubreve" unicode="&#x16c;" horiz-adv-x="644" 
d="M257 -5q-91 0 -138.5 41t-58.5 112.5t7 162.5l41 211q7 34 8.5 53.5t-0.5 24.5q-2 6 -12.5 11.5t-22 9.5t-18.5 4q-3 0 0 17q3 18 5 20l134 -6q17 0 131 6v-18q-3 -19 -8 -19t-20 -4t-29 -9.5t-16 -10.5q-7 -14 -12.5 -35.5t-10.5 -49.5l-46 -237q-18 -92 10 -148t94 -56
q74 0 125.5 52t72.5 159l46 238q2 11 3 18t2 10l2 16q1 17 -5 28q-4 8 -17.5 14.5t-27.5 10.5t-22 4q-3 1 -2.5 9.5t3 17.5t4.5 10q42 -4 72 -6t49 -2q11 0 27.5 1.5t36.5 2.5l53 4q2 -7 0 -18q-1 -5 -4 -12t-5 -7q-15 0 -41 -8t-42 -25q-17 -17 -27 -73l-45 -228
q-19 -97 -62 -163t-103 -99.5t-131 -33.5zM417 728q-60 0 -86 72q-4 8 7 20.5t19 15.5q2 2 4 -2q11 -22 28.5 -33.5t38.5 -11.5q46 0 86 45q1 4 5 2t11 -13t5 -16l-2 -3l-2 -4q-54 -72 -114 -72z" />
    <glyph glyph-name="uni01D3" unicode="&#x1d3;" horiz-adv-x="644" 
d="M257 -5q-91 0 -138.5 41t-58.5 112.5t7 162.5l41 211q7 34 8.5 53.5t-0.5 24.5q-2 6 -12.5 11.5t-22 9.5t-18.5 4q-3 0 0 17q3 18 5 20l134 -6q17 0 131 6v-18q-3 -19 -8 -19t-20 -4t-29 -9.5t-16 -10.5q-7 -14 -12.5 -35.5t-10.5 -49.5l-46 -237q-18 -92 10 -148t94 -56
q74 0 125.5 52t72.5 159l46 238q2 11 3 18t2 10l2 16q1 17 -5 28q-4 8 -17.5 14.5t-27.5 10.5t-22 4q-3 1 -2.5 9.5t3 17.5t4.5 10q42 -4 72 -6t49 -2q11 0 27.5 1.5t36.5 2.5l53 4q2 -7 0 -18q-1 -5 -4 -12t-5 -7q-15 0 -41 -8t-42 -25q-17 -17 -27 -73l-45 -228
q-19 -97 -62 -163t-103 -99.5t-131 -33.5zM414 728q-5 0 -10 9q-5 11 -13 22.5t-18 24.5q-17 23 -30.5 39.5t-24.5 26.5q5 17 17 18t28 -9t34 -24.5t34 -27.5q19 12 45.5 26.5t49.5 25t28 10.5q10 0 6 -19q-12 -8 -33.5 -25t-50.5 -45l-46 -43q-10 -9 -16 -9z" />
    <glyph glyph-name="Ucircumflex" unicode="&#xdb;" horiz-adv-x="644" 
d="M257 -5q-91 0 -138.5 41t-58.5 112.5t7 162.5l41 211q7 34 8.5 53.5t-0.5 24.5q-2 6 -12.5 11.5t-22 9.5t-18.5 4q-3 0 0 17q3 18 5 20l134 -6q17 0 131 6v-18q-3 -19 -8 -19t-20 -4t-29 -9.5t-16 -10.5q-7 -14 -12.5 -35.5t-10.5 -49.5l-46 -237q-18 -92 10 -148t94 -56
q74 0 125.5 52t72.5 159l46 238q2 11 3 18t2 10l2 16q1 17 -5 28q-4 8 -17.5 14.5t-27.5 10.5t-22 4q-3 1 -2.5 9.5t3 17.5t4.5 10q42 -4 72 -6t49 -2q11 0 27.5 1.5t36.5 2.5l53 4q2 -7 0 -18q-1 -5 -4 -12t-5 -7q-15 0 -41 -8t-42 -25q-17 -17 -27 -73l-45 -228
q-19 -97 -62 -163t-103 -99.5t-131 -33.5zM290 727q-11 0 -7 19q16 10 39 26t53 39q17 14 31 26t24 22q11 9 16 9q4 0 13 -9l33 -44q20 -24 36 -41t28 -28q-4 -19 -15 -19q-5 0 -26.5 10.5t-45.5 25.5t-40 26q-15 -9 -37 -19.5t-44 -20t-38 -16t-20 -6.5z" />
    <glyph glyph-name="uni1E76" unicode="&#x1e76;" horiz-adv-x="644" 
d="M257 -5q-91 0 -138.5 41t-58.5 112.5t7 162.5l41 211q7 34 8.5 53.5t-0.5 24.5q-2 6 -12.5 11.5t-22 9.5t-18.5 4q-3 0 0 17q3 18 5 20l134 -6q17 0 131 6v-18q-3 -19 -8 -19t-20 -4t-29 -9.5t-16 -10.5q-7 -14 -12.5 -35.5t-10.5 -49.5l-46 -237q-18 -92 10 -148t94 -56
q74 0 125.5 52t72.5 159l46 238q2 11 3 18t2 10l2 16q1 17 -5 28q-4 8 -17.5 14.5t-27.5 10.5t-22 4q-3 1 -2.5 9.5t3 17.5t4.5 10q42 -4 72 -6t49 -2q11 0 27.5 1.5t36.5 2.5l53 4q2 -7 0 -18q-1 -5 -4 -12t-5 -7q-15 0 -41 -8t-42 -25q-17 -17 -27 -73l-45 -228
q-19 -97 -62 -163t-103 -99.5t-131 -33.5zM64 -222q-11 0 -7 19q16 10 39 26t53 39q17 14 31 26t24 22q11 9 16 9q4 0 13 -9l33 -44q20 -24 36 -41t28 -28q-4 -19 -15 -19q-5 0 -26.5 10.5t-45.5 25.5t-40 26q-15 -9 -37 -19.5t-44 -20t-38 -16t-20 -6.5z" />
    <glyph glyph-name="Udieresis" unicode="&#xdc;" horiz-adv-x="644" 
d="M257 -5q-91 0 -138.5 41t-58.5 112.5t7 162.5l41 211q7 34 8.5 53.5t-0.5 24.5q-2 6 -12.5 11.5t-22 9.5t-18.5 4q-3 0 0 17q3 18 5 20l134 -6q17 0 131 6v-18q-3 -19 -8 -19t-20 -4t-29 -9.5t-16 -10.5q-7 -14 -12.5 -35.5t-10.5 -49.5l-46 -237q-18 -92 10 -148t94 -56
q74 0 125.5 52t72.5 159l46 238q2 11 3 18t2 10l2 16q1 17 -5 28q-4 8 -17.5 14.5t-27.5 10.5t-22 4q-3 1 -2.5 9.5t3 17.5t4.5 10q42 -4 72 -6t49 -2q11 0 27.5 1.5t36.5 2.5l53 4q2 -7 0 -18q-1 -5 -4 -12t-5 -7q-15 0 -41 -8t-42 -25q-17 -17 -27 -73l-45 -228
q-19 -97 -62 -163t-103 -99.5t-131 -33.5zM520 724q-28 0 -42 17.5t-14 41.5q0 21 10 41.5t29 34t45 13.5q29 0 42.5 -17.5t13.5 -41.5q0 -20 -10 -41t-28.5 -34.5t-45.5 -13.5zM306 724q-28 0 -42 17.5t-14 41.5q0 21 10 41.5t29 34t45 13.5q29 0 42.5 -17.5t13.5 -41.5
q0 -20 -10 -41t-28.5 -34.5t-45.5 -13.5z" />
    <glyph glyph-name="uni01D7" unicode="&#x1d7;" horiz-adv-x="644" 
d="M257 -5q-91 0 -138.5 41t-58.5 112.5t7 162.5l41 211q7 34 8.5 53.5t-0.5 24.5q-2 6 -12.5 11.5t-22 9.5t-18.5 4q-3 0 0 17q3 18 5 20l134 -6q17 0 131 6v-18q-3 -19 -8 -19t-20 -4t-29 -9.5t-16 -10.5q-7 -14 -12.5 -35.5t-10.5 -49.5l-46 -237q-18 -92 10 -148t94 -56
q74 0 125.5 52t72.5 159l46 238q2 11 3 18t2 10l2 16q1 17 -5 28q-4 8 -17.5 14.5t-27.5 10.5t-22 4q-3 1 -2.5 9.5t3 17.5t4.5 10q42 -4 72 -6t49 -2q11 0 27.5 1.5t36.5 2.5l53 4q2 -7 0 -18q-1 -5 -4 -12t-5 -7q-15 0 -41 -8t-42 -25q-17 -17 -27 -73l-45 -228
q-19 -97 -62 -163t-103 -99.5t-131 -33.5zM549 874q25 0 41.5 -18t16.5 -44q0 -33 -23.5 -59t-54.5 -26q-25 0 -41.5 18t-16.5 45q0 33 23.5 58.5t54.5 25.5zM329 874q25 0 41.5 -18t16.5 -45q0 -33 -23.5 -58.5t-54.5 -25.5q-25 0 -41.5 18t-16.5 44q0 33 23.5 59t54.5 26z
M401 903q-5 0 -9.5 7t-4.5 12q0 4 14 17t33.5 28.5t37.5 28.5t26 17q14 8 32 8q24 0 47 -9t23 -29q0 -7 -17.5 -17.5t-44.5 -21t-55.5 -20t-51 -15.5t-30.5 -6z" />
    <glyph glyph-name="uni1E72" unicode="&#x1e72;" horiz-adv-x="618" 
d="M257 -5q-91 0 -138.5 41t-58.5 112.5t7 162.5l41 211q7 34 8.5 53.5t-0.5 24.5q-2 6 -12.5 11.5t-22 9.5t-18.5 4q-3 0 0 17q3 18 5 20l134 -6q17 0 131 6v-18q-3 -19 -8 -19t-20 -4t-29 -9.5t-16 -10.5q-7 -14 -12.5 -35.5t-10.5 -49.5l-46 -237q-18 -92 10 -148t94 -56
q74 0 125.5 52t72.5 159l46 238q2 11 3 18t2 10l2 16q1 17 -5 28q-4 8 -17.5 14.5t-27.5 10.5t-22 4q-3 1 -2.5 9.5t3 17.5t4.5 10q42 -4 72 -6t49 -2q11 0 27.5 1.5t36.5 2.5l53 4q2 -7 0 -18q-1 -5 -4 -12t-5 -7q-15 0 -41 -8t-42 -25q-17 -17 -27 -73l-45 -228
q-19 -97 -62 -163t-103 -99.5t-131 -33.5zM327 -51q25 0 41.5 -18t16.5 -44q0 -33 -23.5 -59t-54.5 -26q-25 0 -41.5 18t-16.5 45q0 33 23.5 58.5t54.5 25.5zM107 -51q25 0 41.5 -18t16.5 -45q0 -33 -23.5 -58.5t-54.5 -25.5q-25 0 -41.5 18t-16.5 44q0 33 23.5 59t54.5 26z
" />
    <glyph glyph-name="uni01D9" unicode="&#x1d9;" horiz-adv-x="644" 
d="M257 -5q-91 0 -138.5 41t-58.5 112.5t7 162.5l41 211q7 34 8.5 53.5t-0.5 24.5q-2 6 -12.5 11.5t-22 9.5t-18.5 4q-3 0 0 17q3 18 5 20l134 -6q17 0 131 6v-18q-3 -19 -8 -19t-20 -4t-29 -9.5t-16 -10.5q-7 -14 -12.5 -35.5t-10.5 -49.5l-46 -237q-18 -92 10 -148t94 -56
q74 0 125.5 52t72.5 159l46 238q2 11 3 18t2 10l2 16q1 17 -5 28q-4 8 -17.5 14.5t-27.5 10.5t-22 4q-3 1 -2.5 9.5t3 17.5t4.5 10q42 -4 72 -6t49 -2q11 0 27.5 1.5t36.5 2.5l53 4q2 -7 0 -18q-1 -5 -4 -12t-5 -7q-15 0 -41 -8t-42 -25q-17 -17 -27 -73l-45 -228
q-19 -97 -62 -163t-103 -99.5t-131 -33.5zM549 874q25 0 41.5 -18t16.5 -44q0 -33 -23.5 -59t-54.5 -26q-25 0 -41.5 18t-16.5 45q0 33 23.5 58.5t54.5 25.5zM329 874q25 0 41.5 -18t16.5 -45q0 -33 -23.5 -58.5t-54.5 -25.5q-25 0 -41.5 18t-16.5 44q0 33 23.5 59t54.5 26z
M464 1004q18 14 43.5 31t47 30t25.5 13q9 0 4 -23q-14 -12 -34.5 -33t-46.5 -50q-12 -13 -26.5 -30.5t-17.5 -21.5q-10 -10 -13 -10q-7 0 -10 10q-7 17 -13 31.5t-12 25.5q-13 25 -24.5 44.5t-22.5 33.5q5 23 13 23q5 0 21.5 -13.5t35.5 -30.5t30 -30z" />
    <glyph glyph-name="uni01DB" unicode="&#x1db;" horiz-adv-x="644" 
d="M257 -5q-91 0 -138.5 41t-58.5 112.5t7 162.5l41 211q7 34 8.5 53.5t-0.5 24.5q-2 6 -12.5 11.5t-22 9.5t-18.5 4q-3 0 0 17q3 18 5 20l134 -6q17 0 131 6v-18q-3 -19 -8 -19t-20 -4t-29 -9.5t-16 -10.5q-7 -14 -12.5 -35.5t-10.5 -49.5l-46 -237q-18 -92 10 -148t94 -56
q74 0 125.5 52t72.5 159l46 238q2 11 3 18t2 10l2 16q1 17 -5 28q-4 8 -17.5 14.5t-27.5 10.5t-22 4q-3 1 -2.5 9.5t3 17.5t4.5 10q42 -4 72 -6t49 -2q11 0 27.5 1.5t36.5 2.5l53 4q2 -7 0 -18q-1 -5 -4 -12t-5 -7q-15 0 -41 -8t-42 -25q-17 -17 -27 -73l-45 -228
q-19 -97 -62 -163t-103 -99.5t-131 -33.5zM549 874q25 0 41.5 -18t16.5 -44q0 -33 -23.5 -59t-54.5 -26q-25 0 -41.5 18t-16.5 45q0 33 23.5 58.5t54.5 25.5zM329 874q25 0 41.5 -18t16.5 -45q0 -33 -23.5 -58.5t-54.5 -25.5q-25 0 -41.5 18t-16.5 44q0 33 23.5 59t54.5 26z
M540 904q-8 0 -30.5 6t-51 15.5t-55.5 20t-44.5 21t-17.5 17.5q0 20 23 29t47 9q20 0 32 -8q8 -4 26 -17t37.5 -28.5t33.5 -28t14 -17.5q0 -4 -4.5 -11.5t-9.5 -7.5z" />
    <glyph glyph-name="uni1EE4" unicode="&#x1ee4;" horiz-adv-x="644" 
d="M257 -5q-91 0 -138.5 41t-58.5 112.5t7 162.5l41 211q7 34 8.5 53.5t-0.5 24.5q-2 6 -12.5 11.5t-22 9.5t-18.5 4q-3 0 0 17q3 18 5 20l134 -6q17 0 131 6v-18q-3 -19 -8 -19t-20 -4t-29 -9.5t-16 -10.5q-7 -14 -12.5 -35.5t-10.5 -49.5l-46 -237q-18 -92 10 -148t94 -56
q74 0 125.5 52t72.5 159l46 238q2 11 3 18t2 10l2 16q1 17 -5 28q-4 8 -17.5 14.5t-27.5 10.5t-22 4q-3 1 -2.5 9.5t3 17.5t4.5 10q42 -4 72 -6t49 -2q11 0 27.5 1.5t36.5 2.5l53 4q2 -7 0 -18q-1 -5 -4 -12t-5 -7q-15 0 -41 -8t-42 -25q-17 -17 -27 -73l-45 -228
q-19 -97 -62 -163t-103 -99.5t-131 -33.5zM203 -193q-28 0 -42 17.5t-14 40.5q0 21 10 41.5t29 34t45 13.5q29 0 42.5 -17.5t13.5 -40.5q0 -20 -10 -41t-28.5 -34.5t-45.5 -13.5z" />
    <glyph glyph-name="Ugrave" unicode="&#xd9;" horiz-adv-x="644" 
d="M257 -5q-91 0 -138.5 41t-58.5 112.5t7 162.5l41 211q7 34 8.5 53.5t-0.5 24.5q-2 6 -12.5 11.5t-22 9.5t-18.5 4q-3 0 0 17q3 18 5 20l134 -6q17 0 131 6v-18q-3 -19 -8 -19t-20 -4t-29 -9.5t-16 -10.5q-7 -14 -12.5 -35.5t-10.5 -49.5l-46 -237q-18 -92 10 -148t94 -56
q74 0 125.5 52t72.5 159l46 238q2 11 3 18t2 10l2 16q1 17 -5 28q-4 8 -17.5 14.5t-27.5 10.5t-22 4q-3 1 -2.5 9.5t3 17.5t4.5 10q42 -4 72 -6t49 -2q11 0 27.5 1.5t36.5 2.5l53 4q2 -7 0 -18q-1 -5 -4 -12t-5 -7q-15 0 -41 -8t-42 -25q-17 -17 -27 -73l-45 -228
q-19 -97 -62 -163t-103 -99.5t-131 -33.5zM512 716q-8 0 -30.5 6t-51 15.5t-55.5 20t-44.5 21t-17.5 17.5q0 20 23 29t47 9q20 0 32 -8q8 -4 26 -17t37.5 -28.5t33.5 -28t14 -17.5q0 -4 -4.5 -11.5t-9.5 -7.5z" />
    <glyph glyph-name="uni1EE6" unicode="&#x1ee6;" horiz-adv-x="644" 
d="M257 -5q-91 0 -138.5 41t-58.5 112.5t7 162.5l41 211q7 34 8.5 53.5t-0.5 24.5q-2 6 -12.5 11.5t-22 9.5t-18.5 4q-3 0 0 17q3 18 5 20l134 -6q17 0 131 6v-18q-3 -19 -8 -19t-20 -4t-29 -9.5t-16 -10.5q-7 -14 -12.5 -35.5t-10.5 -49.5l-46 -237q-18 -92 10 -148t94 -56
q74 0 125.5 52t72.5 159l46 238q2 11 3 18t2 10l2 16q1 17 -5 28q-4 8 -17.5 14.5t-27.5 10.5t-22 4q-3 1 -2.5 9.5t3 17.5t4.5 10q42 -4 72 -6t49 -2q11 0 27.5 1.5t36.5 2.5l53 4q2 -7 0 -18q-1 -5 -4 -12t-5 -7q-15 0 -41 -8t-42 -25q-17 -17 -27 -73l-45 -228
q-19 -97 -62 -163t-103 -99.5t-131 -33.5zM392 726q-9 7 -6 17q5 30 51 49q36 17 42 42q5 30 -17 30q-30 0 -38 -36q-4 -22 -41 -22q-7 0 -12.5 4.5t-4.5 12.5q7 36 40.5 57.5t71.5 21.5q28 0 43 -16.5t10 -41.5q-5 -26 -22.5 -45.5t-39.5 -28.5q-35 -14 -38 -27v-3
q-1 -2 -1 -5q-1 -2 -14.5 -5.5t-23.5 -3.5z" />
    <glyph glyph-name="Uhorn" unicode="&#x1af;" horiz-adv-x="719" 
d="M697 627q-6 -2 -20.5 -7.5t-29 -12.5t-22.5 -15q-17 -17 -27 -73l-45 -228q-19 -97 -62 -163t-103 -99.5t-131 -33.5q-91 0 -138.5 41t-58.5 112.5t7 162.5l41 211q7 34 8.5 53.5t-0.5 24.5q-2 6 -12.5 11.5t-22 9.5t-18.5 4q-3 0 0 17q3 18 5 20l134 -6q17 0 131 6v-18
q-3 -19 -8 -19t-20 -4t-29 -9.5t-16 -10.5q-7 -14 -12.5 -35.5t-10.5 -49.5l-46 -237q-18 -92 10 -148t94 -56q74 0 125.5 52t72.5 159l46 238q2 11 3 18t2 10l2 16q1 17 -5 28q-4 8 -17.5 14.5t-27.5 10.5t-22 4q-3 1 -2.5 9.5t3 17.5t4.5 10q42 -4 72 -6t49 -2h36
t19.5 1.5t24.5 5.5q13 3 26 11t13 18q0 8 -6 21q-8 17 -5 29q10 46 104 46q5 -7 7 -27.5t-2 -40.5q-7 -30 -38.5 -51.5t-81.5 -39.5z" />
    <glyph glyph-name="uni1EE8" unicode="&#x1ee8;" horiz-adv-x="719" 
d="M697 627q-6 -2 -20.5 -7.5t-29 -12.5t-22.5 -15q-17 -17 -27 -73l-45 -228q-19 -97 -62 -163t-103 -99.5t-131 -33.5q-91 0 -138.5 41t-58.5 112.5t7 162.5l41 211q7 34 8.5 53.5t-0.5 24.5q-2 6 -12.5 11.5t-22 9.5t-18.5 4q-3 0 0 17q3 18 5 20l134 -6q17 0 131 6v-18
q-3 -19 -8 -19t-20 -4t-29 -9.5t-16 -10.5q-7 -14 -12.5 -35.5t-10.5 -49.5l-46 -237q-18 -92 10 -148t94 -56q74 0 125.5 52t72.5 159l46 238q2 11 3 18t2 10l2 16q1 17 -5 28q-4 8 -17.5 14.5t-27.5 10.5t-22 4q-3 1 -2.5 9.5t3 17.5t4.5 10q42 -4 72 -6t49 -2h36
t19.5 1.5t24.5 5.5q13 3 26 11t13 18q0 8 -6 21q-8 17 -5 29q10 46 104 46q5 -7 7 -27.5t-2 -40.5q-7 -30 -38.5 -51.5t-81.5 -39.5zM373 715q-5 0 -9.5 7t-4.5 12q0 4 14 17t33.5 28.5t37.5 28.5t26 17q14 8 32 8q24 0 47 -9t23 -29q0 -7 -17.5 -17.5t-44.5 -21t-55.5 -20
t-51 -15.5t-30.5 -6z" />
    <glyph glyph-name="uni1EF0" unicode="&#x1ef0;" horiz-adv-x="719" 
d="M697 627q-6 -2 -20.5 -7.5t-29 -12.5t-22.5 -15q-17 -17 -27 -73l-45 -228q-19 -97 -62 -163t-103 -99.5t-131 -33.5q-91 0 -138.5 41t-58.5 112.5t7 162.5l41 211q7 34 8.5 53.5t-0.5 24.5q-2 6 -12.5 11.5t-22 9.5t-18.5 4q-3 0 0 17q3 18 5 20l134 -6q17 0 131 6v-18
q-3 -19 -8 -19t-20 -4t-29 -9.5t-16 -10.5q-7 -14 -12.5 -35.5t-10.5 -49.5l-46 -237q-18 -92 10 -148t94 -56q74 0 125.5 52t72.5 159l46 238q2 11 3 18t2 10l2 16q1 17 -5 28q-4 8 -17.5 14.5t-27.5 10.5t-22 4q-3 1 -2.5 9.5t3 17.5t4.5 10q42 -4 72 -6t49 -2h36
t19.5 1.5t24.5 5.5q13 3 26 11t13 18q0 8 -6 21q-8 17 -5 29q10 46 104 46q5 -7 7 -27.5t-2 -40.5q-7 -30 -38.5 -51.5t-81.5 -39.5zM203 -193q-28 0 -42 17.5t-14 40.5q0 21 10 41.5t29 34t45 13.5q29 0 42.5 -17.5t13.5 -40.5q0 -20 -10 -41t-28.5 -34.5t-45.5 -13.5z" />
    <glyph glyph-name="uni1EEA" unicode="&#x1eea;" horiz-adv-x="719" 
d="M697 627q-6 -2 -20.5 -7.5t-29 -12.5t-22.5 -15q-17 -17 -27 -73l-45 -228q-19 -97 -62 -163t-103 -99.5t-131 -33.5q-91 0 -138.5 41t-58.5 112.5t7 162.5l41 211q7 34 8.5 53.5t-0.5 24.5q-2 6 -12.5 11.5t-22 9.5t-18.5 4q-3 0 0 17q3 18 5 20l134 -6q17 0 131 6v-18
q-3 -19 -8 -19t-20 -4t-29 -9.5t-16 -10.5q-7 -14 -12.5 -35.5t-10.5 -49.5l-46 -237q-18 -92 10 -148t94 -56q74 0 125.5 52t72.5 159l46 238q2 11 3 18t2 10l2 16q1 17 -5 28q-4 8 -17.5 14.5t-27.5 10.5t-22 4q-3 1 -2.5 9.5t3 17.5t4.5 10q42 -4 72 -6t49 -2h36
t19.5 1.5t24.5 5.5q13 3 26 11t13 18q0 8 -6 21q-8 17 -5 29q10 46 104 46q5 -7 7 -27.5t-2 -40.5q-7 -30 -38.5 -51.5t-81.5 -39.5zM512 716q-8 0 -30.5 6t-51 15.5t-55.5 20t-44.5 21t-17.5 17.5q0 20 23 29t47 9q20 0 32 -8q8 -4 26 -17t37.5 -28.5t33.5 -28t14 -17.5
q0 -4 -4.5 -11.5t-9.5 -7.5z" />
    <glyph glyph-name="uni1EEC" unicode="&#x1eec;" horiz-adv-x="719" 
d="M697 627q-6 -2 -20.5 -7.5t-29 -12.5t-22.5 -15q-17 -17 -27 -73l-45 -228q-19 -97 -62 -163t-103 -99.5t-131 -33.5q-91 0 -138.5 41t-58.5 112.5t7 162.5l41 211q7 34 8.5 53.5t-0.5 24.5q-2 6 -12.5 11.5t-22 9.5t-18.5 4q-3 0 0 17q3 18 5 20l134 -6q17 0 131 6v-18
q-3 -19 -8 -19t-20 -4t-29 -9.5t-16 -10.5q-7 -14 -12.5 -35.5t-10.5 -49.5l-46 -237q-18 -92 10 -148t94 -56q74 0 125.5 52t72.5 159l46 238q2 11 3 18t2 10l2 16q1 17 -5 28q-4 8 -17.5 14.5t-27.5 10.5t-22 4q-3 1 -2.5 9.5t3 17.5t4.5 10q42 -4 72 -6t49 -2h36
t19.5 1.5t24.5 5.5q13 3 26 11t13 18q0 8 -6 21q-8 17 -5 29q10 46 104 46q5 -7 7 -27.5t-2 -40.5q-7 -30 -38.5 -51.5t-81.5 -39.5zM392 726q-9 7 -6 17q5 30 51 49q36 17 42 42q5 30 -17 30q-30 0 -38 -36q-4 -22 -41 -22q-7 0 -12.5 4.5t-4.5 12.5q7 36 40.5 57.5
t71.5 21.5q28 0 43 -16.5t10 -41.5q-5 -26 -22.5 -45.5t-39.5 -28.5q-35 -14 -38 -27v-3q-1 -2 -1 -5q-1 -2 -14.5 -5.5t-23.5 -3.5z" />
    <glyph glyph-name="uni1EEE" unicode="&#x1eee;" horiz-adv-x="719" 
d="M697 627q-6 -2 -20.5 -7.5t-29 -12.5t-22.5 -15q-17 -17 -27 -73l-45 -228q-19 -97 -62 -163t-103 -99.5t-131 -33.5q-91 0 -138.5 41t-58.5 112.5t7 162.5l41 211q7 34 8.5 53.5t-0.5 24.5q-2 6 -12.5 11.5t-22 9.5t-18.5 4q-3 0 0 17q3 18 5 20l134 -6q17 0 131 6v-18
q-3 -19 -8 -19t-20 -4t-29 -9.5t-16 -10.5q-7 -14 -12.5 -35.5t-10.5 -49.5l-46 -237q-18 -92 10 -148t94 -56q74 0 125.5 52t72.5 159l46 238q2 11 3 18t2 10l2 16q1 17 -5 28q-4 8 -17.5 14.5t-27.5 10.5t-22 4q-3 1 -2.5 9.5t3 17.5t4.5 10q42 -4 72 -6t49 -2h36
t19.5 1.5t24.5 5.5q13 3 26 11t13 18q0 8 -6 21q-8 17 -5 29q10 46 104 46q5 -7 7 -27.5t-2 -40.5q-7 -30 -38.5 -51.5t-81.5 -39.5zM509 729q-36 0 -82 34t-83 34q-18 0 -46 -28q-31 -29 -34 -29q-7 0 -3 22q4 25 26 50q45 51 92 51q37 0 83 -34t82 -34q17 0 46 29
q27 28 32 28q8 0 4 -22q-4 -25 -27 -51q-42 -50 -90 -50z" />
    <glyph glyph-name="Uhungarumlaut" unicode="&#x170;" horiz-adv-x="644" 
d="M257 -5q-91 0 -138.5 41t-58.5 112.5t7 162.5l41 211q7 34 8.5 53.5t-0.5 24.5q-2 6 -12.5 11.5t-22 9.5t-18.5 4q-3 0 0 17q3 18 5 20l134 -6q17 0 131 6v-18q-3 -19 -8 -19t-20 -4t-29 -9.5t-16 -10.5q-7 -14 -12.5 -35.5t-10.5 -49.5l-46 -237q-18 -92 10 -148t94 -56
q74 0 125.5 52t72.5 159l46 238q2 11 3 18t2 10l2 16q1 17 -5 28q-4 8 -17.5 14.5t-27.5 10.5t-22 4q-3 1 -2.5 9.5t3 17.5t4.5 10q42 -4 72 -6t49 -2q11 0 27.5 1.5t36.5 2.5l53 4q2 -7 0 -18q-1 -5 -4 -12t-5 -7q-15 0 -41 -8t-42 -25q-17 -17 -27 -73l-45 -228
q-19 -97 -62 -163t-103 -99.5t-131 -33.5zM518 713q-5 0 -9.5 7t-4.5 12q0 4 14 17t33.5 28.5t37.5 28.5t26 17q14 8 32 8q24 0 47 -9t23 -29q0 -7 -17.5 -17.5t-44.5 -21t-55.5 -20t-51 -15.5t-30.5 -6zM323 713q-5 0 -9.5 7t-4.5 12q0 4 14 17t33.5 28.5t37.5 28.5t26 17
q14 8 32 8q24 0 47 -9t23 -29q0 -7 -17.5 -17.5t-44.5 -21t-55.5 -20t-51 -15.5t-30.5 -6z" />
    <glyph glyph-name="Umacron" unicode="&#x16a;" horiz-adv-x="644" 
d="M257 -5q-91 0 -138.5 41t-58.5 112.5t7 162.5l41 211q7 34 8.5 53.5t-0.5 24.5q-2 6 -12.5 11.5t-22 9.5t-18.5 4q-3 0 0 17q3 18 5 20l134 -6q17 0 131 6v-18q-3 -19 -8 -19t-20 -4t-29 -9.5t-16 -10.5q-7 -14 -12.5 -35.5t-10.5 -49.5l-46 -237q-18 -92 10 -148t94 -56
q74 0 125.5 52t72.5 159l46 238q2 11 3 18t2 10l2 16q1 17 -5 28q-4 8 -17.5 14.5t-27.5 10.5t-22 4q-3 1 -2.5 9.5t3 17.5t4.5 10q42 -4 72 -6t49 -2q11 0 27.5 1.5t36.5 2.5l53 4q2 -7 0 -18q-1 -5 -4 -12t-5 -7q-15 0 -41 -8t-42 -25q-17 -17 -27 -73l-45 -228
q-19 -97 -62 -163t-103 -99.5t-131 -33.5zM271 739q13 58 25 58h267q7 0 4 -10q-2 -11 -5 -20t-6 -16t-6 -13t-8 -10h-268q-7 0 -3 11z" />
    <glyph glyph-name="Uogonek" unicode="&#x172;" horiz-adv-x="625" 
d="M274 -118q0 -26 28 -26q13 0 30 7t31 13.5t16 6.5q4 0 3 -8t-3.5 -16.5t-4.5 -10.5q-22 -25 -56 -44.5t-63 -19.5q-23 0 -40 16.5t-17 42.5q0 20 13.5 47.5t35 56t44.5 50.5q-7 -1 -18.5 -1.5t-25.5 -0.5q-93 0 -148 50.5t-55 155.5q0 23 2.5 46.5t7.5 48.5l44 227
q9 48 9 73q0 15 -18 23.5t-29 8.5q-1 0 -1 4q0 24 6 30q15 -1 39 -2.5t47.5 -2.5t35.5 -1q18 0 132 6v-5q0 -8 -2.5 -18.5t-5.5 -10.5q-5 0 -18.5 -4t-25.5 -9.5t-15 -10.5q-14 -26 -24 -85l-44 -223q-12 -60 -12 -104q0 -60 26.5 -88.5t86.5 -28.5q55 0 93 17.5t63 60.5
t39 118l47 242q15 79 13 93q0 7 -14.5 11.5t-31.5 7.5t-28 3q-1 0 -1 6q0 20 8 28q53 -2 82 -3.5t35 -1.5q7 0 34.5 1.5t74.5 3.5q0 -34 -8 -34q-9 0 -28 -2t-35.5 -5.5t-18.5 -8.5q-2 -7 -8 -31t-14 -67l-47 -238q-33 -169 -130 -236q-32 -23 -63.5 -51.5t-52 -56.5
t-20.5 -50z" />
    <glyph glyph-name="Uring" unicode="&#x16e;" horiz-adv-x="644" 
d="M257 -5q-91 0 -138.5 41t-58.5 112.5t7 162.5l41 211q7 34 8.5 53.5t-0.5 24.5q-2 6 -12.5 11.5t-22 9.5t-18.5 4q-3 0 0 17q3 18 5 20l134 -6q17 0 131 6v-18q-3 -19 -8 -19t-20 -4t-29 -9.5t-16 -10.5q-7 -14 -12.5 -35.5t-10.5 -49.5l-46 -237q-18 -92 10 -148t94 -56
q74 0 125.5 52t72.5 159l46 238q2 11 3 18t2 10l2 16q1 17 -5 28q-4 8 -17.5 14.5t-27.5 10.5t-22 4q-3 1 -2.5 9.5t3 17.5t4.5 10q42 -4 72 -6t49 -2q11 0 27.5 1.5t36.5 2.5l53 4q2 -7 0 -18q-1 -5 -4 -12t-5 -7q-15 0 -41 -8t-42 -25q-17 -17 -27 -73l-45 -228
q-19 -97 -62 -163t-103 -99.5t-131 -33.5zM414 730q-36 0 -61 23.5t-25 63.5q0 30 16 55t41.5 40t53.5 15q35 0 59.5 -24.5t24.5 -60.5q0 -48 -31.5 -80t-77.5 -32zM420 776q23 0 39 17.5t16 42.5q0 20 -11 32.5t-31 12.5q-22 0 -39 -18t-17 -41q0 -20 12 -33t31 -13z" />
    <glyph glyph-name="Utilde" unicode="&#x168;" horiz-adv-x="644" 
d="M257 -5q-91 0 -138.5 41t-58.5 112.5t7 162.5l41 211q7 34 8.5 53.5t-0.5 24.5q-2 6 -12.5 11.5t-22 9.5t-18.5 4q-3 0 0 17q3 18 5 20l134 -6q17 0 131 6v-18q-3 -19 -8 -19t-20 -4t-29 -9.5t-16 -10.5q-7 -14 -12.5 -35.5t-10.5 -49.5l-46 -237q-18 -92 10 -148t94 -56
q74 0 125.5 52t72.5 159l46 238q2 11 3 18t2 10l2 16q1 17 -5 28q-4 8 -17.5 14.5t-27.5 10.5t-22 4q-3 1 -2.5 9.5t3 17.5t4.5 10q42 -4 72 -6t49 -2q11 0 27.5 1.5t36.5 2.5l53 4q2 -7 0 -18q-1 -5 -4 -12t-5 -7q-15 0 -41 -8t-42 -25q-17 -17 -27 -73l-45 -228
q-19 -97 -62 -163t-103 -99.5t-131 -33.5zM509 729q-36 0 -82 34t-83 34q-18 0 -46 -28q-31 -29 -34 -29q-7 0 -3 22q4 25 26 50q45 51 92 51q37 0 83 -34t82 -34q17 0 46 29q27 28 32 28q8 0 4 -22q-4 -25 -27 -51q-42 -50 -90 -50z" />
    <glyph glyph-name="uni1E74" unicode="&#x1e74;" horiz-adv-x="644" 
d="M257 -5q-91 0 -138.5 41t-58.5 112.5t7 162.5l41 211q7 34 8.5 53.5t-0.5 24.5q-2 6 -12.5 11.5t-22 9.5t-18.5 4q-3 0 0 17q3 18 5 20l134 -6q17 0 131 6v-18q-3 -19 -8 -19t-20 -4t-29 -9.5t-16 -10.5q-7 -14 -12.5 -35.5t-10.5 -49.5l-46 -237q-18 -92 10 -148t94 -56
q74 0 125.5 52t72.5 159l46 238q2 11 3 18t2 10l2 16q1 17 -5 28q-4 8 -17.5 14.5t-27.5 10.5t-22 4q-3 1 -2.5 9.5t3 17.5t4.5 10q42 -4 72 -6t49 -2q11 0 27.5 1.5t36.5 2.5l53 4q2 -7 0 -18q-1 -5 -4 -12t-5 -7q-15 0 -41 -8t-42 -25q-17 -17 -27 -73l-45 -228
q-19 -97 -62 -163t-103 -99.5t-131 -33.5zM270 -177q-23 0 -45.5 15t-44.5 30t-46 15q-13 0 -38 -25q-26 -26 -28 -26q-5 0 -5 19q0 17 17 38t41 37t43 16q23 0 45.5 -15t44.5 -30.5t45 -15.5q15 0 39 25q24 24 25 24q6 -3 6 -16q0 -9 -9.5 -24t-25 -30.5t-32.5 -26
t-32 -10.5z" />
    <glyph glyph-name="V" unicode="V" horiz-adv-x="608" 
d="M242 -10q-15 0 -19 13l-92 507l-8 41q-3 14 -4.5 24.5t-2.5 16.5q-2 12 -13.5 19t-25 10.5t-22.5 3.5q-3 0 -3 9q0 15 8 28q111 -6 132 -6q40 0 142 6q1 -1 1 -6q0 -9 -2.5 -20t-5.5 -11q-10 0 -25.5 -4t-28 -12t-14.5 -20q-3 -9 8 -66l61 -330l195 329q14 23 22 40
t10 28q3 15 -14 25t-45 10q-2 0 -2 7q0 18 6 30q46 -2 72.5 -3.5t33.5 -1.5l110 5q1 -2 1.5 -6t-0.5 -9q-4 -21 -6 -21q-17 0 -46 -11t-51 -47l-325 -541q-10 -18 -24 -27.5t-23 -9.5z" />
    <glyph glyph-name="uni1E7E" unicode="&#x1e7e;" horiz-adv-x="608" 
d="M242 -10q-15 0 -19 13l-92 507l-8 41q-3 14 -4.5 24.5t-2.5 16.5q-2 12 -13.5 19t-25 10.5t-22.5 3.5q-3 0 -3 9q0 15 8 28q111 -6 132 -6q40 0 142 6q1 -1 1 -6q0 -9 -2.5 -20t-5.5 -11q-10 0 -25.5 -4t-28 -12t-14.5 -20q-3 -9 8 -66l61 -330l195 329q14 23 22 40
t10 28q3 15 -14 25t-45 10q-2 0 -2 7q0 18 6 30q46 -2 72.5 -3.5t33.5 -1.5l110 5q1 -2 1.5 -6t-0.5 -9q-4 -21 -6 -21q-17 0 -46 -11t-51 -47l-325 -541q-10 -18 -24 -27.5t-23 -9.5zM206 -193q-28 0 -42 17.5t-14 40.5q0 21 10 41.5t29 34t45 13.5q29 0 42.5 -17.5
t13.5 -40.5q0 -20 -10 -41t-28.5 -34.5t-45.5 -13.5z" />
    <glyph glyph-name="uni1E7C" unicode="&#x1e7c;" horiz-adv-x="608" 
d="M242 -10q-15 0 -19 13l-92 507l-8 41q-3 14 -4.5 24.5t-2.5 16.5q-2 12 -13.5 19t-25 10.5t-22.5 3.5q-3 0 -3 9q0 15 8 28q111 -6 132 -6q40 0 142 6q1 -1 1 -6q0 -9 -2.5 -20t-5.5 -11q-10 0 -25.5 -4t-28 -12t-14.5 -20q-3 -9 8 -66l61 -330l195 329q14 23 22 40
t10 28q3 15 -14 25t-45 10q-2 0 -2 7q0 18 6 30q46 -2 72.5 -3.5t33.5 -1.5l110 5q1 -2 1.5 -6t-0.5 -9q-4 -21 -6 -21q-17 0 -46 -11t-51 -47l-325 -541q-10 -18 -24 -27.5t-23 -9.5zM422 729q-36 0 -82 34t-83 34q-18 0 -46 -28q-31 -29 -34 -29q-7 0 -3 22q4 25 26 50
q45 51 92 51q37 0 83 -34t82 -34q17 0 46 29q27 28 32 28q8 0 4 -22q-4 -25 -27 -51q-42 -50 -90 -50z" />
    <glyph glyph-name="W" unicode="W" horiz-adv-x="945" 
d="M238 -13q-5 0 -7 5l-148 535q-7 26 -14 45.5t-14 31.5q-5 10 -22.5 15.5t-29.5 5.5q-3 0 0 19q3 16 5 18l131 -6q14 0 128 6v-5q0 -9 -2 -20.5t-5 -11.5q-44 0 -50 -34q-1 -7 5 -31l104 -368l8.5 10.5t20.5 26t23 30t16 21.5l22 30l-60 217q-18 65 -25 73q-18 25 -49 25
q-3 0 0 19q3 16 5 18l128 -6q10 0 124 6v-6q0 -9 -2 -20t-5 -11q-15 0 -30.5 -7.5t-18.5 -24.5q-1 -7 5 -31l32 -115l62 95q28 43 29 52q3 13 -9 20t-28 9.5t-25 2.5q-2 0 -2 11q0 19 8 25q44 -3 71 -5t38 -1l118 6q1 -6 -1.5 -21t-5.5 -15q-14 0 -38.5 -10t-35.5 -20
q-16 -16 -33 -37t-36 -49l-92 -138l52 -175q1 0 14.5 20t35 52t48 70.5t52.5 78t48 72.5l36 54q23 35 26 50q2 12 -9.5 19t-26.5 10t-24 3q-2 0 -2 13q0 17 8 23q87 -6 110 -6q14 0 36.5 1t45 2.5t35.5 2.5q0 -36 -7 -36q-14 0 -37 -9t-34 -19q-16 -14 -33.5 -36t-37.5 -52
l-325 -491q-10 -15 -21 -23.5t-17 -8.5q-7 0 -9 5l-68 241l-153 -214q-10 -14 -21 -23t-17 -9z" />
    <glyph glyph-name="Wacute" unicode="&#x1e82;" horiz-adv-x="945" 
d="M238 -13q-5 0 -7 5l-148 535q-7 26 -14 45.5t-14 31.5q-5 10 -22.5 15.5t-29.5 5.5q-3 0 0 19q3 16 5 18l131 -6q14 0 128 6v-5q0 -9 -2 -20.5t-5 -11.5q-44 0 -50 -34q-1 -7 5 -31l104 -368l8.5 10.5t20.5 26t23 30t16 21.5l22 30l-60 217q-18 65 -25 73q-18 25 -49 25
q-3 0 0 19q3 16 5 18l128 -6q10 0 124 6v-6q0 -9 -2 -20t-5 -11q-15 0 -30.5 -7.5t-18.5 -24.5q-1 -7 5 -31l32 -115l62 95q28 43 29 52q3 13 -9 20t-28 9.5t-25 2.5q-2 0 -2 11q0 19 8 25q44 -3 71 -5t38 -1l118 6q1 -6 -1.5 -21t-5.5 -15q-14 0 -38.5 -10t-35.5 -20
q-16 -16 -33 -37t-36 -49l-92 -138l52 -175q1 0 14.5 20t35 52t48 70.5t52.5 78t48 72.5l36 54q23 35 26 50q2 12 -9.5 19t-26.5 10t-24 3q-2 0 -2 13q0 17 8 23q87 -6 110 -6q14 0 36.5 1t45 2.5t35.5 2.5q0 -36 -7 -36q-14 0 -37 -9t-34 -19q-16 -14 -33.5 -36t-37.5 -52
l-325 -491q-10 -15 -21 -23.5t-17 -8.5q-7 0 -9 5l-68 241l-153 -214q-10 -14 -21 -23t-17 -9zM518 715q-5 0 -9.5 7t-4.5 12q0 4 14 17t33.5 28.5t37.5 28.5t26 17q14 8 32 8q24 0 47 -9t23 -29q0 -7 -17.5 -17.5t-44.5 -21t-55.5 -20t-51 -15.5t-30.5 -6z" />
    <glyph glyph-name="Wcircumflex" unicode="&#x174;" horiz-adv-x="945" 
d="M238 -13q-5 0 -7 5l-148 535q-7 26 -14 45.5t-14 31.5q-5 10 -22.5 15.5t-29.5 5.5q-3 0 0 19q3 16 5 18l131 -6q14 0 128 6v-5q0 -9 -2 -20.5t-5 -11.5q-44 0 -50 -34q-1 -7 5 -31l104 -368l8.5 10.5t20.5 26t23 30t16 21.5l22 30l-60 217q-18 65 -25 73q-18 25 -49 25
q-3 0 0 19q3 16 5 18l128 -6q10 0 124 6v-6q0 -9 -2 -20t-5 -11q-15 0 -30.5 -7.5t-18.5 -24.5q-1 -7 5 -31l32 -115l62 95q28 43 29 52q3 13 -9 20t-28 9.5t-25 2.5q-2 0 -2 11q0 19 8 25q44 -3 71 -5t38 -1l118 6q1 -6 -1.5 -21t-5.5 -15q-14 0 -38.5 -10t-35.5 -20
q-16 -16 -33 -37t-36 -49l-92 -138l52 -175q1 0 14.5 20t35 52t48 70.5t52.5 78t48 72.5l36 54q23 35 26 50q2 12 -9.5 19t-26.5 10t-24 3q-2 0 -2 13q0 17 8 23q87 -6 110 -6q14 0 36.5 1t45 2.5t35.5 2.5q0 -36 -7 -36q-14 0 -37 -9t-34 -19q-16 -14 -33.5 -36t-37.5 -52
l-325 -491q-10 -15 -21 -23.5t-17 -8.5q-7 0 -9 5l-68 241l-153 -214q-10 -14 -21 -23t-17 -9zM435 727q-11 0 -7 19q16 10 39 26t53 39q17 14 31 26t24 22q11 9 16 9q4 0 13 -9l33 -44q20 -24 36 -41t28 -28q-4 -19 -15 -19q-5 0 -26.5 10.5t-45.5 25.5t-40 26
q-15 -9 -37 -19.5t-44 -20t-38 -16t-20 -6.5z" />
    <glyph glyph-name="Wdieresis" unicode="&#x1e84;" horiz-adv-x="945" 
d="M238 -13q-5 0 -7 5l-148 535q-7 26 -14 45.5t-14 31.5q-5 10 -22.5 15.5t-29.5 5.5q-3 0 0 19q3 16 5 18l131 -6q14 0 128 6v-5q0 -9 -2 -20.5t-5 -11.5q-44 0 -50 -34q-1 -7 5 -31l104 -368l8.5 10.5t20.5 26t23 30t16 21.5l22 30l-60 217q-18 65 -25 73q-18 25 -49 25
q-3 0 0 19q3 16 5 18l128 -6q10 0 124 6v-6q0 -9 -2 -20t-5 -11q-15 0 -30.5 -7.5t-18.5 -24.5q-1 -7 5 -31l32 -115l62 95q28 43 29 52q3 13 -9 20t-28 9.5t-25 2.5q-2 0 -2 11q0 19 8 25q44 -3 71 -5t38 -1l118 6q1 -6 -1.5 -21t-5.5 -15q-14 0 -38.5 -10t-35.5 -20
q-16 -16 -33 -37t-36 -49l-92 -138l52 -175q1 0 14.5 20t35 52t48 70.5t52.5 78t48 72.5l36 54q23 35 26 50q2 12 -9.5 19t-26.5 10t-24 3q-2 0 -2 13q0 17 8 23q87 -6 110 -6q14 0 36.5 1t45 2.5t35.5 2.5q0 -36 -7 -36q-14 0 -37 -9t-34 -19q-16 -14 -33.5 -36t-37.5 -52
l-325 -491q-10 -15 -21 -23.5t-17 -8.5q-7 0 -9 5l-68 241l-153 -214q-10 -14 -21 -23t-17 -9zM694 874q25 0 41.5 -18t16.5 -44q0 -33 -23.5 -59t-54.5 -26q-25 0 -41.5 18t-16.5 45q0 33 23.5 58.5t54.5 25.5zM474 874q25 0 41.5 -18t16.5 -45q0 -33 -23.5 -58.5
t-54.5 -25.5q-25 0 -41.5 18t-16.5 44q0 33 23.5 59t54.5 26z" />
    <glyph glyph-name="uni1E86" unicode="&#x1e86;" horiz-adv-x="945" 
d="M238 -13q-5 0 -7 5l-148 535q-7 26 -14 45.5t-14 31.5q-5 10 -22.5 15.5t-29.5 5.5q-3 0 0 19q3 16 5 18l131 -6q14 0 128 6v-5q0 -9 -2 -20.5t-5 -11.5q-44 0 -50 -34q-1 -7 5 -31l104 -368l8.5 10.5t20.5 26t23 30t16 21.5l22 30l-60 217q-18 65 -25 73q-18 25 -49 25
q-3 0 0 19q3 16 5 18l128 -6q10 0 124 6v-6q0 -9 -2 -20t-5 -11q-15 0 -30.5 -7.5t-18.5 -24.5q-1 -7 5 -31l32 -115l62 95q28 43 29 52q3 13 -9 20t-28 9.5t-25 2.5q-2 0 -2 11q0 19 8 25q44 -3 71 -5t38 -1l118 6q1 -6 -1.5 -21t-5.5 -15q-14 0 -38.5 -10t-35.5 -20
q-16 -16 -33 -37t-36 -49l-92 -138l52 -175q1 0 14.5 20t35 52t48 70.5t52.5 78t48 72.5l36 54q23 35 26 50q2 12 -9.5 19t-26.5 10t-24 3q-2 0 -2 13q0 17 8 23q87 -6 110 -6q14 0 36.5 1t45 2.5t35.5 2.5q0 -36 -7 -36q-14 0 -37 -9t-34 -19q-16 -14 -33.5 -36t-37.5 -52
l-325 -491q-10 -15 -21 -23.5t-17 -8.5q-7 0 -9 5l-68 241l-153 -214q-10 -14 -21 -23t-17 -9zM569 768q-28 0 -42 17.5t-14 40.5q0 21 10 41.5t29 34t45 13.5q29 0 42.5 -17.5t13.5 -40.5q0 -20 -10 -41t-28.5 -34.5t-45.5 -13.5z" />
    <glyph glyph-name="uni1E88" unicode="&#x1e88;" horiz-adv-x="945" 
d="M238 -13q-5 0 -7 5l-148 535q-7 26 -14 45.5t-14 31.5q-5 10 -22.5 15.5t-29.5 5.5q-3 0 0 19q3 16 5 18l131 -6q14 0 128 6v-5q0 -9 -2 -20.5t-5 -11.5q-44 0 -50 -34q-1 -7 5 -31l104 -368l8.5 10.5t20.5 26t23 30t16 21.5l22 30l-60 217q-18 65 -25 73q-18 25 -49 25
q-3 0 0 19q3 16 5 18l128 -6q10 0 124 6v-6q0 -9 -2 -20t-5 -11q-15 0 -30.5 -7.5t-18.5 -24.5q-1 -7 5 -31l32 -115l62 95q28 43 29 52q3 13 -9 20t-28 9.5t-25 2.5q-2 0 -2 11q0 19 8 25q44 -3 71 -5t38 -1l118 6q1 -6 -1.5 -21t-5.5 -15q-14 0 -38.5 -10t-35.5 -20
q-16 -16 -33 -37t-36 -49l-92 -138l52 -175q1 0 14.5 20t35 52t48 70.5t52.5 78t48 72.5l36 54q23 35 26 50q2 12 -9.5 19t-26.5 10t-24 3q-2 0 -2 13q0 17 8 23q87 -6 110 -6q14 0 36.5 1t45 2.5t35.5 2.5q0 -36 -7 -36q-14 0 -37 -9t-34 -19q-16 -14 -33.5 -36t-37.5 -52
l-325 -491q-10 -15 -21 -23.5t-17 -8.5q-7 0 -9 5l-68 241l-153 -214q-10 -14 -21 -23t-17 -9zM358 -193q-28 0 -42 17.5t-14 40.5q0 21 10 41.5t29 34t45 13.5q29 0 42.5 -17.5t13.5 -40.5q0 -20 -10 -41t-28.5 -34.5t-45.5 -13.5z" />
    <glyph glyph-name="Wgrave" unicode="&#x1e80;" horiz-adv-x="945" 
d="M238 -13q-5 0 -7 5l-148 535q-7 26 -14 45.5t-14 31.5q-5 10 -22.5 15.5t-29.5 5.5q-3 0 0 19q3 16 5 18l131 -6q14 0 128 6v-5q0 -9 -2 -20.5t-5 -11.5q-44 0 -50 -34q-1 -7 5 -31l104 -368l8.5 10.5t20.5 26t23 30t16 21.5l22 30l-60 217q-18 65 -25 73q-18 25 -49 25
q-3 0 0 19q3 16 5 18l128 -6q10 0 124 6v-6q0 -9 -2 -20t-5 -11q-15 0 -30.5 -7.5t-18.5 -24.5q-1 -7 5 -31l32 -115l62 95q28 43 29 52q3 13 -9 20t-28 9.5t-25 2.5q-2 0 -2 11q0 19 8 25q44 -3 71 -5t38 -1l118 6q1 -6 -1.5 -21t-5.5 -15q-14 0 -38.5 -10t-35.5 -20
q-16 -16 -33 -37t-36 -49l-92 -138l52 -175q1 0 14.5 20t35 52t48 70.5t52.5 78t48 72.5l36 54q23 35 26 50q2 12 -9.5 19t-26.5 10t-24 3q-2 0 -2 13q0 17 8 23q87 -6 110 -6q14 0 36.5 1t45 2.5t35.5 2.5q0 -36 -7 -36q-14 0 -37 -9t-34 -19q-16 -14 -33.5 -36t-37.5 -52
l-325 -491q-10 -15 -21 -23.5t-17 -8.5q-7 0 -9 5l-68 241l-153 -214q-10 -14 -21 -23t-17 -9zM657 716q-8 0 -30.5 6t-51 15.5t-55.5 20t-44.5 21t-17.5 17.5q0 20 23 29t47 9q20 0 32 -8q8 -4 26 -17t37.5 -28.5t33.5 -28t14 -17.5q0 -4 -4.5 -11.5t-9.5 -7.5z" />
    <glyph glyph-name="X" unicode="X" horiz-adv-x="739" 
d="M-12 -4l-1 6v8q5 23 8 23q8 0 26 4.5t36 12t26 17.5l231 265l-85 205q-28 66 -36 73q-16 15 -46 15q-1 0 -1 12q0 17 8 25l54 -3q50 -3 76 -3q21 0 135 6v-8q0 -9 -3 -19t-6 -10q-14 0 -32 -5.5t-21 -15.5q-1 -12 3 -22l71 -168q16 17 39.5 42t47 50.5t40.5 44.5t20 22
q9 12 11 21q2 12 -18 21.5t-45 9.5q-1 0 -1 11q0 18 8 26q102 -6 114 -6q11 0 125 6q1 -1 1 -7q0 -9 -3 -19.5t-6 -10.5q-13 0 -42 -9t-49 -30l-218 -230q56 -131 86.5 -201t35.5 -79q13 -22 36 -32.5t35 -10.5q2 -4 0 -11.5t-2 -10.5l-6 -15q-111 6 -134 6h-23t-24 -1
l-101 -5q-1 1 -1 9t3.5 18t6.5 10q8 0 21 3.5t24 10t12 14.5q2 5 0 11l-83 197q-21 -25 -49 -57t-55.5 -63.5t-48.5 -57.5q-8 -10 -12 -16.5t-5 -8.5q-3 -15 18 -24t45 -9q3 0 0 -21l-2 -8t-3 -8l-75 5t-46 1z" />
    <glyph glyph-name="uni1E8C" unicode="&#x1e8c;" horiz-adv-x="739" 
d="M-12 -4l-1 6v8q5 23 8 23q8 0 26 4.5t36 12t26 17.5l231 265l-85 205q-28 66 -36 73q-16 15 -46 15q-1 0 -1 12q0 17 8 25l54 -3q50 -3 76 -3q21 0 135 6v-8q0 -9 -3 -19t-6 -10q-14 0 -32 -5.5t-21 -15.5q-1 -12 3 -22l71 -168q16 17 39.5 42t47 50.5t40.5 44.5t20 22
q9 12 11 21q2 12 -18 21.5t-45 9.5q-1 0 -1 11q0 18 8 26q102 -6 114 -6q11 0 125 6q1 -1 1 -7q0 -9 -3 -19.5t-6 -10.5q-13 0 -42 -9t-49 -30l-218 -230q56 -131 86.5 -201t35.5 -79q13 -22 36 -32.5t35 -10.5q2 -4 0 -11.5t-2 -10.5l-6 -15q-111 6 -134 6h-23t-24 -1
l-101 -5q-1 1 -1 9t3.5 18t6.5 10q8 0 21 3.5t24 10t12 14.5q2 5 0 11l-83 197q-21 -25 -49 -57t-55.5 -63.5t-48.5 -57.5q-8 -10 -12 -16.5t-5 -8.5q-3 -15 18 -24t45 -9q3 0 0 -21l-2 -8t-3 -8l-75 5t-46 1zM617 874q25 0 41.5 -18t16.5 -44q0 -33 -23.5 -59t-54.5 -26
q-25 0 -41.5 18t-16.5 45q0 33 23.5 58.5t54.5 25.5zM397 874q25 0 41.5 -18t16.5 -45q0 -33 -23.5 -58.5t-54.5 -25.5q-25 0 -41.5 18t-16.5 44q0 33 23.5 59t54.5 26z" />
    <glyph glyph-name="uni1E8A" unicode="&#x1e8a;" horiz-adv-x="739" 
d="M-12 -4l-1 6v8q5 23 8 23q8 0 26 4.5t36 12t26 17.5l231 265l-85 205q-28 66 -36 73q-16 15 -46 15q-1 0 -1 12q0 17 8 25l54 -3q50 -3 76 -3q21 0 135 6v-8q0 -9 -3 -19t-6 -10q-14 0 -32 -5.5t-21 -15.5q-1 -12 3 -22l71 -168q16 17 39.5 42t47 50.5t40.5 44.5t20 22
q9 12 11 21q2 12 -18 21.5t-45 9.5q-1 0 -1 11q0 18 8 26q102 -6 114 -6q11 0 125 6q1 -1 1 -7q0 -9 -3 -19.5t-6 -10.5q-13 0 -42 -9t-49 -30l-218 -230q56 -131 86.5 -201t35.5 -79q13 -22 36 -32.5t35 -10.5q2 -4 0 -11.5t-2 -10.5l-6 -15q-111 6 -134 6h-23t-24 -1
l-101 -5q-1 1 -1 9t3.5 18t6.5 10q8 0 21 3.5t24 10t12 14.5q2 5 0 11l-83 197q-21 -25 -49 -57t-55.5 -63.5t-48.5 -57.5q-8 -10 -12 -16.5t-5 -8.5q-3 -15 18 -24t45 -9q3 0 0 -21l-2 -8t-3 -8l-75 5t-46 1zM492 768q-28 0 -42 17.5t-14 40.5q0 21 10 41.5t29 34t45 13.5
q29 0 42.5 -17.5t13.5 -40.5q0 -20 -10 -41t-28.5 -34.5t-45.5 -13.5z" />
    <glyph glyph-name="Y" unicode="Y" horiz-adv-x="641" 
d="M91 -4q-3 5 -1 16q3 21 7 21q7 0 21 4t28 10t17 11q5 14 11.5 34t11.5 47l33 170q1 6 -17 64q-9 29 -18.5 56t-18.5 54l-18 54q-19 59 -36 73q-9 6 -23.5 10.5t-23.5 4.5q-2 0 -2 9q0 7 3 16t7 12l54 -3q48 -3 76 -3q19 0 133 6q1 -1 1 -9q0 -9 -3 -18q-3 -10 -5 -10
q-14 0 -33 -5.5t-21 -15.5q-1 -10 3 -22l63 -179q70 89 106.5 139t38.5 61q1 10 -12 16q-15 6 -43 6q-2 0 -2 9q0 20 8 28q84 -6 112 -6q25 0 106 6q0 -15 -1 -18q-3 -18 -7 -18q-17 0 -40.5 -9t-39.5 -27q-12 -13 -37.5 -44.5t-55.5 -70.5t-58.5 -76t-47 -63.5t-19.5 -31.5
l-31 -159q-10 -52 -9 -87q0 -4 10.5 -10t23.5 -10.5t18 -4.5q3 0 0 -19q-3 -13 -5 -18q-4 0 -17.5 1t-37.5 3q-25 2 -43 3t-30 1q-16 0 -45.5 -2t-56 -3.5t-34.5 -2.5z" />
    <glyph glyph-name="Yacute" unicode="&#xdd;" horiz-adv-x="641" 
d="M91 -4q-3 5 -1 16q3 21 7 21q7 0 21 4t28 10t17 11q5 14 11.5 34t11.5 47l33 170q1 6 -17 64q-9 29 -18.5 56t-18.5 54l-18 54q-19 59 -36 73q-9 6 -23.5 10.5t-23.5 4.5q-2 0 -2 9q0 7 3 16t7 12l54 -3q48 -3 76 -3q19 0 133 6q1 -1 1 -9q0 -9 -3 -18q-3 -10 -5 -10
q-14 0 -33 -5.5t-21 -15.5q-1 -10 3 -22l63 -179q70 89 106.5 139t38.5 61q1 10 -12 16q-15 6 -43 6q-2 0 -2 9q0 20 8 28q84 -6 112 -6q25 0 106 6q0 -15 -1 -18q-3 -18 -7 -18q-17 0 -40.5 -9t-39.5 -27q-12 -13 -37.5 -44.5t-55.5 -70.5t-58.5 -76t-47 -63.5t-19.5 -31.5
l-31 -159q-10 -52 -9 -87q0 -4 10.5 -10t23.5 -10.5t18 -4.5q3 0 0 -19q-3 -13 -5 -18q-4 0 -17.5 1t-37.5 3q-25 2 -43 3t-30 1q-16 0 -45.5 -2t-56 -3.5t-34.5 -2.5zM356 715q-5 0 -9.5 7t-4.5 12q0 4 14 17t33.5 28.5t37.5 28.5t26 17q14 8 32 8q24 0 47 -9t23 -29
q0 -7 -17.5 -17.5t-44.5 -21t-55.5 -20t-51 -15.5t-30.5 -6z" />
    <glyph glyph-name="Ycircumflex" unicode="&#x176;" horiz-adv-x="641" 
d="M91 -4q-3 5 -1 16q3 21 7 21q7 0 21 4t28 10t17 11q5 14 11.5 34t11.5 47l33 170q1 6 -17 64q-9 29 -18.5 56t-18.5 54l-18 54q-19 59 -36 73q-9 6 -23.5 10.5t-23.5 4.5q-2 0 -2 9q0 7 3 16t7 12l54 -3q48 -3 76 -3q19 0 133 6q1 -1 1 -9q0 -9 -3 -18q-3 -10 -5 -10
q-14 0 -33 -5.5t-21 -15.5q-1 -10 3 -22l63 -179q70 89 106.5 139t38.5 61q1 10 -12 16q-15 6 -43 6q-2 0 -2 9q0 20 8 28q84 -6 112 -6q25 0 106 6q0 -15 -1 -18q-3 -18 -7 -18q-17 0 -40.5 -9t-39.5 -27q-12 -13 -37.5 -44.5t-55.5 -70.5t-58.5 -76t-47 -63.5t-19.5 -31.5
l-31 -159q-10 -52 -9 -87q0 -4 10.5 -10t23.5 -10.5t18 -4.5q3 0 0 -19q-3 -13 -5 -18q-4 0 -17.5 1t-37.5 3q-25 2 -43 3t-30 1q-16 0 -45.5 -2t-56 -3.5t-34.5 -2.5zM273 727q-11 0 -7 19q16 10 39 26t53 39q17 14 31 26t24 22q11 9 16 9q4 0 13 -9l33 -44q20 -24 36 -41
t28 -28q-4 -19 -15 -19q-5 0 -26.5 10.5t-45.5 25.5t-40 26q-15 -9 -37 -19.5t-44 -20t-38 -16t-20 -6.5z" />
    <glyph glyph-name="Ydieresis" unicode="&#x178;" horiz-adv-x="641" 
d="M91 -4q-3 5 -1 16q3 21 7 21q7 0 21 4t28 10t17 11q5 14 11.5 34t11.5 47l33 170q1 6 -17 64q-9 29 -18.5 56t-18.5 54l-18 54q-19 59 -36 73q-9 6 -23.5 10.5t-23.5 4.5q-2 0 -2 9q0 7 3 16t7 12l54 -3q48 -3 76 -3q19 0 133 6q1 -1 1 -9q0 -9 -3 -18q-3 -10 -5 -10
q-14 0 -33 -5.5t-21 -15.5q-1 -10 3 -22l63 -179q70 89 106.5 139t38.5 61q1 10 -12 16q-15 6 -43 6q-2 0 -2 9q0 20 8 28q84 -6 112 -6q25 0 106 6q0 -15 -1 -18q-3 -18 -7 -18q-17 0 -40.5 -9t-39.5 -27q-12 -13 -37.5 -44.5t-55.5 -70.5t-58.5 -76t-47 -63.5t-19.5 -31.5
l-31 -159q-10 -52 -9 -87q0 -4 10.5 -10t23.5 -10.5t18 -4.5q3 0 0 -19q-3 -13 -5 -18q-4 0 -17.5 1t-37.5 3q-25 2 -43 3t-30 1q-16 0 -45.5 -2t-56 -3.5t-34.5 -2.5zM503 724q-28 0 -42 17.5t-14 41.5q0 21 10 41.5t29 34t45 13.5q29 0 42.5 -17.5t13.5 -41.5
q0 -20 -10 -41t-28.5 -34.5t-45.5 -13.5zM289 724q-28 0 -42 17.5t-14 41.5q0 21 10 41.5t29 34t45 13.5q29 0 42.5 -17.5t13.5 -41.5q0 -20 -10 -41t-28.5 -34.5t-45.5 -13.5z" />
    <glyph glyph-name="uni1E8E" unicode="&#x1e8e;" horiz-adv-x="641" 
d="M91 -4q-3 5 -1 16q3 21 7 21q7 0 21 4t28 10t17 11q5 14 11.5 34t11.5 47l33 170q1 6 -17 64q-9 29 -18.5 56t-18.5 54l-18 54q-19 59 -36 73q-9 6 -23.5 10.5t-23.5 4.5q-2 0 -2 9q0 7 3 16t7 12l54 -3q48 -3 76 -3q19 0 133 6q1 -1 1 -9q0 -9 -3 -18q-3 -10 -5 -10
q-14 0 -33 -5.5t-21 -15.5q-1 -10 3 -22l63 -179q70 89 106.5 139t38.5 61q1 10 -12 16q-15 6 -43 6q-2 0 -2 9q0 20 8 28q84 -6 112 -6q25 0 106 6q0 -15 -1 -18q-3 -18 -7 -18q-17 0 -40.5 -9t-39.5 -27q-12 -13 -37.5 -44.5t-55.5 -70.5t-58.5 -76t-47 -63.5t-19.5 -31.5
l-31 -159q-10 -52 -9 -87q0 -4 10.5 -10t23.5 -10.5t18 -4.5q3 0 0 -19q-3 -13 -5 -18q-4 0 -17.5 1t-37.5 3q-25 2 -43 3t-30 1q-16 0 -45.5 -2t-56 -3.5t-34.5 -2.5zM407 768q-28 0 -42 17.5t-14 40.5q0 21 10 41.5t29 34t45 13.5q29 0 42.5 -17.5t13.5 -40.5
q0 -20 -10 -41t-28.5 -34.5t-45.5 -13.5z" />
    <glyph glyph-name="uni1EF4" unicode="&#x1ef4;" horiz-adv-x="641" 
d="M91 -4q-3 5 -1 16q3 21 7 21q7 0 21 4t28 10t17 11q5 14 11.5 34t11.5 47l33 170q1 6 -17 64q-9 29 -18.5 56t-18.5 54l-18 54q-19 59 -36 73q-9 6 -23.5 10.5t-23.5 4.5q-2 0 -2 9q0 7 3 16t7 12l54 -3q48 -3 76 -3q19 0 133 6q1 -1 1 -9q0 -9 -3 -18q-3 -10 -5 -10
q-14 0 -33 -5.5t-21 -15.5q-1 -10 3 -22l63 -179q70 89 106.5 139t38.5 61q1 10 -12 16q-15 6 -43 6q-2 0 -2 9q0 20 8 28q84 -6 112 -6q25 0 106 6q0 -15 -1 -18q-3 -18 -7 -18q-17 0 -40.5 -9t-39.5 -27q-12 -13 -37.5 -44.5t-55.5 -70.5t-58.5 -76t-47 -63.5t-19.5 -31.5
l-31 -159q-10 -52 -9 -87q0 -4 10.5 -10t23.5 -10.5t18 -4.5q3 0 0 -19q-3 -13 -5 -18q-4 0 -17.5 1t-37.5 3q-25 2 -43 3t-30 1q-16 0 -45.5 -2t-56 -3.5t-34.5 -2.5zM196 -193q-28 0 -42 17.5t-14 40.5q0 21 10 41.5t29 34t45 13.5q29 0 42.5 -17.5t13.5 -40.5
q0 -20 -10 -41t-28.5 -34.5t-45.5 -13.5z" />
    <glyph glyph-name="Ygrave" unicode="&#x1ef2;" horiz-adv-x="641" 
d="M91 -4q-3 5 -1 16q3 21 7 21q7 0 21 4t28 10t17 11q5 14 11.5 34t11.5 47l33 170q1 6 -17 64q-9 29 -18.5 56t-18.5 54l-18 54q-19 59 -36 73q-9 6 -23.5 10.5t-23.5 4.5q-2 0 -2 9q0 7 3 16t7 12l54 -3q48 -3 76 -3q19 0 133 6q1 -1 1 -9q0 -9 -3 -18q-3 -10 -5 -10
q-14 0 -33 -5.5t-21 -15.5q-1 -10 3 -22l63 -179q70 89 106.5 139t38.5 61q1 10 -12 16q-15 6 -43 6q-2 0 -2 9q0 20 8 28q84 -6 112 -6q25 0 106 6q0 -15 -1 -18q-3 -18 -7 -18q-17 0 -40.5 -9t-39.5 -27q-12 -13 -37.5 -44.5t-55.5 -70.5t-58.5 -76t-47 -63.5t-19.5 -31.5
l-31 -159q-10 -52 -9 -87q0 -4 10.5 -10t23.5 -10.5t18 -4.5q3 0 0 -19q-3 -13 -5 -18q-4 0 -17.5 1t-37.5 3q-25 2 -43 3t-30 1q-16 0 -45.5 -2t-56 -3.5t-34.5 -2.5zM495 716q-8 0 -30.5 6t-51 15.5t-55.5 20t-44.5 21t-17.5 17.5q0 20 23 29t47 9q20 0 32 -8q8 -4 26 -17
t37.5 -28.5t33.5 -28t14 -17.5q0 -4 -4.5 -11.5t-9.5 -7.5z" />
    <glyph glyph-name="uni1EF6" unicode="&#x1ef6;" horiz-adv-x="641" 
d="M91 -4q-3 5 -1 16q3 21 7 21q7 0 21 4t28 10t17 11q5 14 11.5 34t11.5 47l33 170q1 6 -17 64q-9 29 -18.5 56t-18.5 54l-18 54q-19 59 -36 73q-9 6 -23.5 10.5t-23.5 4.5q-2 0 -2 9q0 7 3 16t7 12l54 -3q48 -3 76 -3q19 0 133 6q1 -1 1 -9q0 -9 -3 -18q-3 -10 -5 -10
q-14 0 -33 -5.5t-21 -15.5q-1 -10 3 -22l63 -179q70 89 106.5 139t38.5 61q1 10 -12 16q-15 6 -43 6q-2 0 -2 9q0 20 8 28q84 -6 112 -6q25 0 106 6q0 -15 -1 -18q-3 -18 -7 -18q-17 0 -40.5 -9t-39.5 -27q-12 -13 -37.5 -44.5t-55.5 -70.5t-58.5 -76t-47 -63.5t-19.5 -31.5
l-31 -159q-10 -52 -9 -87q0 -4 10.5 -10t23.5 -10.5t18 -4.5q3 0 0 -19q-3 -13 -5 -18q-4 0 -17.5 1t-37.5 3q-25 2 -43 3t-30 1q-16 0 -45.5 -2t-56 -3.5t-34.5 -2.5zM375 726q-9 7 -6 17q5 30 51 49q36 17 42 42q5 30 -17 30q-30 0 -38 -36q-4 -22 -41 -22q-7 0 -12.5 4.5
t-4.5 12.5q7 36 40.5 57.5t71.5 21.5q28 0 43 -16.5t10 -41.5q-5 -26 -22.5 -45.5t-39.5 -28.5q-35 -14 -38 -27v-3q-1 -2 -1 -5q-1 -2 -14.5 -5.5t-23.5 -3.5z" />
    </font>
</defs>
</svg>
