<?xml version="1.0" standalone="no"?>
<!DOCTYPE svg PUBLIC "-//W3C//DTD SVG 1.1//EN" "http://www.w3.org/Graphics/SVG/1.1/DTD/svg11.dtd" >
<svg xmlns="http://www.w3.org/2000/svg" xmlns:xlink="http://www.w3.org/1999/xlink" version="1.1">
<metadata>
Created by FontForge 20230101 at Sat Sep 30 05:29:59 2023
 By Glenn Lewis
Copyright 2022 The Noto Project Authors (https://github.com/notofonts/latin-greek-cyrillic)
</metadata>
<defs>
<font id="NotoSansExtraCondensed-ExtraBold" horiz-adv-x="0" >
  <font-face 
    font-family="Noto Sans ExtraCondensed ExtraBold"
    font-weight="800"
    font-stretch="extra-condensed"
    units-per-em="1000"
    panose-1="2 11 5 2 4 5 4 2 2 4"
    ascent="800"
    descent="-200"
    x-height="550"
    cap-height="714"
    bbox="-573 -394 2809 1102"
    underline-thickness="50"
    underline-position="-125"
    unicode-range="U+000D-1DF1E"
  />
<missing-glyph horiz-adv-x="585" 
d="M85 0v714h411v-714h-411zM136 51h309v612h-309v-612z" />
    <glyph glyph-name="f_f" unicode="ff" horiz-adv-x="623" 
d="M303 430h-89v-430h-144v430h-62v78l62 41v13q0 71 15 116t48 66t85 21q30 0 55 -5.5t58 -18.5l-29 -108q-13 5 -26 7.5t-26 2.5q-19 0 -27.5 -16t-8.5 -54v-23h89v-120zM614 430h-89v-430h-144v430h-62v78l62 41v13q0 71 15 116t48 66t85 21q30 0 55 -5.5t58 -18.5
l-29 -108q-13 5 -26 7.5t-26 2.5q-19 0 -27.5 -16t-8.5 -54v-23h89v-120z" />
    <glyph glyph-name="fi" unicode="fi" horiz-adv-x="565" 
d="M303 430h-89v-430h-144v430h-62v78l62 41v13q0 71 15 116t48 66t85 21q30 0 55 -5.5t58 -18.5l-29 -108q-13 5 -26 7.5t-26 2.5q-19 0 -27.5 -16t-8.5 -54v-23h89v-120zM510 550v-550h-145v550h145zM438 768q40 0 59 -20t19 -59t-20 -58.5t-58 -19.5q-39 0 -58.5 19.5
t-19.5 58.5q0 40 18.5 59.5t59.5 19.5z" />
    <glyph glyph-name="fl" unicode="fl" horiz-adv-x="563" 
d="M303 430h-89v-430h-144v430h-62v78l62 41v13q0 71 15 116t48 66t85 21q30 0 55 -5.5t58 -18.5l-29 -108q-13 5 -26 7.5t-26 2.5q-19 0 -27.5 -16t-8.5 -54v-23h89v-120zM509 0h-145v760h145v-760z" />
    <glyph glyph-name="f_f_i" unicode="ffi" horiz-adv-x="876" 
d="M303 430h-89v-430h-144v430h-62v78l62 41v13q0 71 15 116t48 66t85 21q30 0 55 -5.5t58 -18.5l-29 -108q-13 5 -26 7.5t-26 2.5q-19 0 -27.5 -16t-8.5 -54v-23h89v-120zM614 430h-89v-430h-144v430h-62v78l62 41v13q0 71 15 116t48 66t85 21q30 0 55 -5.5t58 -18.5
l-29 -108q-13 5 -26 7.5t-26 2.5q-19 0 -27.5 -16t-8.5 -54v-23h89v-120zM822 550v-550h-145v550h145zM750 768q40 0 59 -20t19 -59t-20 -58.5t-58 -19.5q-39 0 -58.5 19.5t-19.5 58.5q0 40 18.5 59.5t59.5 19.5z" />
    <glyph glyph-name="f_f_l" unicode="ffl" horiz-adv-x="874" 
d="M303 430h-89v-430h-144v430h-62v78l62 41v13q0 71 15 116t48 66t85 21q30 0 55 -5.5t58 -18.5l-29 -108q-13 5 -26 7.5t-26 2.5q-19 0 -27.5 -16t-8.5 -54v-23h89v-120zM614 430h-89v-430h-144v430h-62v78l62 41v13q0 71 15 116t48 66t85 21q30 0 55 -5.5t58 -18.5
l-29 -108q-13 5 -26 7.5t-26 2.5q-19 0 -27.5 -16t-8.5 -54v-23h89v-120zM821 0h-145v760h145v-760z" />
    <glyph glyph-name=".notdef" horiz-adv-x="585" 
d="M85 0v714h411v-714h-411zM136 51h309v612h-309v-612z" />
    <glyph glyph-name="NULL" 
 />
    <glyph glyph-name="CR" unicode="&#xd;" horiz-adv-x="178" 
 />
    <glyph glyph-name="space" unicode=" " horiz-adv-x="178" 
 />
    <glyph glyph-name="exclam" unicode="!" horiz-adv-x="263" 
d="M194 241h-124l-23 473h169zM47 76q0 42 21.5 64.5t63.5 22.5q40 0 61.5 -22.5t21.5 -64.5t-22.5 -64.5t-60.5 -22.5q-40 0 -62.5 22.5t-22.5 64.5z" />
    <glyph glyph-name="quotedbl" unicode="&#x22;" horiz-adv-x="462" 
d="M200 714l-19 -258h-119l-19 258h157zM419 714l-19 -258h-119l-19 258h157z" />
    <glyph glyph-name="numbersign" unicode="#" horiz-adv-x="527" 
d="M414 416l-16 -116h91v-104h-104l-28 -196h-106l28 196h-70l-27 -196h-105l27 196h-84v104h98l16 116h-90v106h105l27 192h105l-28 -192h71l26 192h105l-27 -192h85v-106h-99zM224 300h69l16 116h-69z" />
    <glyph glyph-name="dollar" unicode="$" horiz-adv-x="481" 
d="M211 37q-40 3 -83 13.5t-79 27.5v130q34 -23 78 -41t84 -20v168q-55 23 -92.5 49.5t-56 62.5t-18.5 84q0 52 21.5 89t59 59t86.5 29v71h67v-70q36 -3 74 -14t73 -31l-32 -109q-27 16 -57 25.5t-58 12.5v-157q55 -21 90.5 -45.5t52.5 -58t17 -81.5q0 -73 -41.5 -124
t-118.5 -66v-99h-67v95zM278 156q25 8 35.5 25.5t10.5 39.5q0 15 -5.5 26.5t-15.5 21t-25 17.5v-130zM211 572q-19 -4 -29.5 -12.5t-15 -21.5t-4.5 -30q0 -14 5 -25t15.5 -20.5t28.5 -18.5v128z" />
    <glyph glyph-name="percent" unicode="%" horiz-adv-x="803" 
d="M176 724q69 0 109.5 -60t40.5 -163q0 -107 -39 -166t-111 -59q-69 0 -109 60.5t-40 164.5q0 107 39 165t110 58zM177 623q-19 0 -28.5 -30.5t-9.5 -92.5q0 -64 9.5 -94t28.5 -30t28 29.5t9 94.5q0 63 -9 93t-28 30zM596 714l-283 -714h-109l284 714h108zM625 439
q69 0 109.5 -59.5t40.5 -163.5q0 -107 -39.5 -166t-110.5 -59q-70 0 -109.5 61t-39.5 164q0 109 39 166t110 57zM625 339q-18 0 -27 -31t-9 -93q0 -63 9 -93t28 -30q21 0 28.5 33t7.5 90t-8 90.5t-29 33.5z" />
    <glyph glyph-name="ampersand" unicode="&#x26;" horiz-adv-x="608" 
d="M260 723q56 0 94.5 -20t58 -57t19.5 -89q0 -55 -27.5 -99.5t-76.5 -81.5l74 -103q10 22 17 50.5t12 64.5h153q-8 -61 -29.5 -123.5t-54.5 -117.5l112 -147h-184l-33 48q-25 -18 -51.5 -31t-58 -20t-69.5 -7q-63 0 -106 25.5t-64.5 71.5t-21.5 107q0 43 13 79t39 66t66 53
q-19 27 -32.5 52t-20 53t-6.5 61q0 49 22 86.5t62 58t93 20.5zM212 302q-14 -12 -22.5 -27t-12.5 -32.5t-4 -39.5q0 -34 17.5 -59t49.5 -25q24 0 41.5 9t34.5 27zM259 616q-17 0 -28 -14t-11 -44q0 -21 9 -45.5t26 -47.5q22 19 33 45t11 53t-10.5 40t-29.5 13z" />
    <glyph glyph-name="quotesingle" unicode="'" horiz-adv-x="243" 
d="M200 714l-19 -258h-119l-19 258h157z" />
    <glyph glyph-name="parenleft" unicode="(" horiz-adv-x="318" 
d="M44 282q0 93 17.5 174t48 150t69.5 125h132q-64 -97 -96 -208t-32 -240q0 -82 15 -157t43.5 -145t69.5 -139h-132q-41 58 -71 125t-47 146t-17 169z" />
    <glyph glyph-name="parenright" unicode=")" horiz-adv-x="318" 
d="M275 282q0 -90 -17 -169t-47.5 -146.5t-71.5 -124.5h-131q41 69 69.5 139t43 145t14.5 157q0 86 -14 163.5t-42 148.5t-71 136h131q40 -56 70.5 -125t48 -150t17.5 -174z" />
    <glyph glyph-name="asterisk" unicode="*" horiz-adv-x="459" 
d="M296 762l-18 -145l132 50l31 -126l-134 -16l100 -110l-108 -77l-70 131l-70 -131l-108 77l100 110l-134 15l31 127l132 -50l-18 145h134z" />
    <glyph glyph-name="plus" unicode="+" horiz-adv-x="485" 
d="M303 411h149v-117h-149v-181h-120v181h-150v118h150v183h120v-184z" />
    <glyph glyph-name="comma" unicode="," horiz-adv-x="263" 
d="M218 128q-7 -52 -17.5 -99t-22.5 -88t-27 -78h-119q8 39 16 89t14 100t8 87h143z" />
    <glyph glyph-name="hyphen" unicode="-" horiz-adv-x="314" 
d="M28 200v137h258v-137h-258z" />
    <glyph glyph-name="period" unicode="." horiz-adv-x="263" 
d="M48 76q0 42 22 64.5t63 22.5q40 0 61.5 -22.5t21.5 -64.5t-22 -64.5t-61 -22.5t-62 22.5t-23 64.5z" />
    <glyph glyph-name="slash" unicode="/" horiz-adv-x="414" 
d="M409 722l-275 -730h-128l276 730h127z" />
    <glyph glyph-name="zero" unicode="0" horiz-adv-x="481" 
d="M444 357q0 -80 -9.5 -146.5t-32.5 -116.5t-62.5 -77t-99.5 -27q-67 0 -112.5 39t-68.5 120.5t-23 207.5t22 207t67.5 120.5t114.5 39.5q68 0 113.5 -41t68 -122.5t22.5 -203.5zM186 357q0 -81 4.5 -133t16 -77t33.5 -25t33.5 25t16.5 77t5 133q0 78 -5 130.5t-16.5 78.5
t-33.5 26q-21 0 -33 -26t-16.5 -78t-4.5 -131z" />
    <glyph glyph-name="one" unicode="1" horiz-adv-x="481" 
d="M377 0h-149v398q0 23 0.5 44.5t1 42.5t1.5 41q-7 -10 -15.5 -21.5t-20.5 -24.5l-62 -66l-90 88l201 212h133v-714z" />
    <glyph glyph-name="two" unicode="2" horiz-adv-x="481" 
d="M429 0h-401v107l136 187q44 61 66.5 100t30.5 68t8 57q0 34 -16 54t-48 20q-27 0 -51.5 -15.5t-56.5 -56.5l-73 99q31 38 61.5 61t64 33t73.5 10q57 0 101 -24.5t69.5 -68t25.5 -103.5q0 -44 -11 -85.5t-37.5 -87.5t-75.5 -106l-89 -113v-5h223v-131z" />
    <glyph glyph-name="three" unicode="3" horiz-adv-x="481" 
d="M423 541q0 -37 -14 -69.5t-41 -57t-67 -39.5v-3q68 -14 102.5 -57t34.5 -113q0 -65 -28.5 -112.5t-81.5 -73.5t-126 -26q-48 0 -86.5 7.5t-83.5 27.5v139q37 -23 75 -34t71 -11q53 0 77.5 23t24.5 67q0 34 -13 54.5t-41.5 30.5t-74.5 10h-36v125h37q42 0 69 11t41 32.5
t14 51.5q0 36 -19 53.5t-56 17.5q-18 0 -36.5 -5t-37 -15.5t-38.5 -26.5l-57 110q45 36 92 51t107 15q89 0 140.5 -46.5t51.5 -136.5z" />
    <glyph glyph-name="four" unicode="4" horiz-adv-x="481" 
d="M469 142h-72v-142h-146v142h-234v120l235 453h145v-450h72v-123zM250 398q0 7 0.5 22.5t1 34t1 33t0.5 17.5h-4q-6 -22 -13.5 -40t-16.5 -34l-82 -166h113v133z" />
    <glyph glyph-name="five" unicode="5" horiz-adv-x="481" 
d="M264 462q52 0 90.5 -28.5t60.5 -79.5t22 -118q0 -78 -25.5 -133t-78 -84t-132.5 -29q-45 0 -82.5 8.5t-69.5 26.5v138q33 -19 70.5 -31.5t71.5 -12.5q31 0 52 13.5t31.5 38.5t10.5 60q0 50 -24.5 77.5t-73.5 27.5q-19 0 -39 -4.5t-41 -12.5l-49 34l21 361h322v-132h-196
l-9 -129q22 6 39 7.5t29 1.5z" />
    <glyph glyph-name="six" unicode="6" horiz-adv-x="481" 
d="M35 303q0 67 8 129.5t26.5 115.5t51.5 92.5t81 61.5t115 22q25 0 49 -2t48 -7v-127q-20 5 -40.5 7.5t-43.5 2.5q-37 0 -65.5 -12.5t-48 -38t-30 -65t-12.5 -93.5h4q12 27 28 45t37.5 27.5t47.5 9.5q50 0 85 -28t53.5 -80t18.5 -123q0 -75 -23.5 -131.5t-68 -87.5
t-108.5 -31q-50 0 -89.5 21t-67 61.5t-42 98.5t-14.5 132zM244 119q26 0 41 29t15 89q0 53 -13.5 80.5t-40.5 27.5q-19 0 -32.5 -12.5t-20.5 -33.5t-7 -46q0 -27 3.5 -51t11 -42.5t18.5 -29.5t25 -11z" />
    <glyph glyph-name="seven" unicode="7" horiz-adv-x="481" 
d="M86 0l207 582h-258v132h410v-103l-201 -611h-158z" />
    <glyph glyph-name="eight" unicode="8" horiz-adv-x="481" 
d="M241 724q61 0 104 -20.5t65 -58.5t22 -93q0 -38 -10.5 -70t-32.5 -58.5t-57 -48.5q42 -28 67.5 -57.5t37.5 -61t12 -68.5q0 -63 -25 -106.5t-71.5 -67.5t-112.5 -24q-67 0 -114 23t-71 66.5t-24 105.5q0 39 11 72.5t35.5 62.5t62.5 53q-31 26 -51.5 54t-30 59t-9.5 66
q0 55 23 93t66.5 58.5t102.5 20.5zM173 188q0 -36 16.5 -57.5t49.5 -21.5q34 0 51.5 20.5t17.5 56.5q0 18 -5.5 34.5t-17.5 34t-36 36.5l-12 9q-23 -17 -37 -34.5t-20.5 -36.5t-6.5 -41zM241 605q-23 0 -37 -17.5t-14 -46.5q0 -19 5.5 -34.5t16.5 -29.5t28 -28
q20 16 31.5 30t16 29t4.5 33q0 30 -14.5 47t-36.5 17z" />
    <glyph glyph-name="nine" unicode="9" horiz-adv-x="481" 
d="M446 414q0 -71 -9 -134.5t-29 -116.5t-53.5 -92t-80.5 -60t-111 -21q-25 0 -50 3t-47 7v127q19 -5 40 -8t43 -3q40 0 68.5 13.5t48 40t29.5 65.5t12 90h-5q-11 -26 -27.5 -44.5t-37.5 -28t-47 -9.5q-51 0 -86 28.5t-53.5 80.5t-18.5 122q0 76 23.5 132t68.5 87t110 31
q49 0 88.5 -21t67 -61t42 -97.5t14.5 -130.5zM235 595q-24 0 -40 -28.5t-16 -89.5q0 -53 14 -80.5t42 -27.5q22 0 35 15.5t19 37.5t6 41q0 15 -2.5 37t-8 43.5t-18 36.5t-31.5 15z" />
    <glyph glyph-name="colon" unicode=":" horiz-adv-x="269" 
d="M51 76q0 42 22 64.5t63 22.5q40 0 61 -22.5t21 -64.5t-22 -64.5t-60 -22.5q-40 0 -62.5 22.5t-22.5 64.5zM51 468q0 43 22 66t63 23q40 0 61 -23t21 -65t-22 -64.5t-60 -22.5q-40 0 -62.5 22.5t-22.5 63.5z" />
    <glyph glyph-name="semicolon" unicode=";" horiz-adv-x="269" 
d="M218 128q-7 -52 -17.5 -99t-22.5 -88t-27 -78h-120q7 30 12.5 65.5t11 73.5t9.5 73.5t6 63.5h143zM51 468q0 43 21.5 66t63.5 23q40 0 61 -23t21 -65t-22 -64.5t-60 -22.5q-40 0 -62.5 22.5t-22.5 63.5z" />
    <glyph glyph-name="less" unicode="&#x3c;" horiz-adv-x="485" 
d="M452 116l-423 206v76l423 205v-131l-253 -112l253 -114v-130z" />
    <glyph glyph-name="equal" unicode="=" horiz-adv-x="485" 
d="M33 404v117h419v-117h-419zM33 183v118h419v-118h-419z" />
    <glyph glyph-name="greater" unicode="&#x3e;" horiz-adv-x="485" 
d="M33 246l253 114l-253 112v131l423 -205v-76l-423 -206v130z" />
    <glyph glyph-name="question" unicode="?" horiz-adv-x="384" 
d="M105 281q0 33 6.5 58t21 46.5t37.5 44.5q21 21 33.5 37t18 32.5t5.5 36.5q0 29 -15 44t-45 15q-27 0 -55.5 -12.5t-61.5 -36.5l-47 114q43 32 87.5 48t89.5 16q93 0 141 -47t48 -128q0 -43 -10.5 -74.5t-30.5 -58.5t-50 -55q-24 -23 -35 -38t-14 -27.5t-3 -30.5v-24h-121
v40zM82 76q0 42 22 64.5t63 22.5q40 0 61 -22.5t21 -64.5t-21.5 -64.5t-60.5 -22.5t-62 22.5t-23 64.5z" />
    <glyph glyph-name="at" unicode="@" horiz-adv-x="743" 
d="M706 367q0 -56 -11 -102.5t-32 -80t-48.5 -52t-60.5 -18.5q-40 0 -65.5 19t-35.5 54h-7q-18 -37 -42.5 -55t-54.5 -18q-67 0 -103.5 51t-36.5 143q0 70 23 122t64.5 81t99.5 29q30 0 66 -7.5t65 -20.5l-8 -206q-1 -14 -1.5 -29t-0.5 -29q0 -23 8 -35t23 -12q17 0 29 16.5
t19 53t7 98.5q0 78 -25 138t-73.5 94.5t-119.5 33.5q-60 0 -105.5 -25t-76 -70.5t-46.5 -106.5t-16 -133q0 -88 26.5 -153t79.5 -100.5t131 -35.5q46 0 96.5 12.5t96.5 32.5v-94q-42 -20 -89.5 -29.5t-101.5 -9.5q-109 0 -186 44.5t-117 128t-40 200.5q0 98 25.5 176.5
t71.5 134.5t109.5 85.5t141.5 29.5q73 0 132 -25.5t101.5 -72.5t65 -112.5t22.5 -144.5zM319 307q0 -55 12 -80.5t32 -25.5q23 0 35 34t16 121l4 93q-7 2 -12.5 3t-11.5 1q-23 0 -40 -17t-26 -50t-9 -79z" />
    <glyph glyph-name="A" unicode="A" horiz-adv-x="548" 
d="M386 0l-33 157h-157l-32 -157h-164l173 714h199l176 -714h-162zM295 464q-4 25 -7.5 49t-6.5 45.5t-6 40.5q-2 -18 -5 -39.5t-7 -45t-9 -48.5l-35 -178h111z" />
    <glyph glyph-name="B" unicode="B" horiz-adv-x="541" 
d="M258 714q116 0 172.5 -43.5t56.5 -133.5q0 -41 -11.5 -73.5t-33 -54.5t-50.5 -30v-5q38 -10 61.5 -32.5t34.5 -55.5t11 -78q0 -64 -26.5 -110.5t-75.5 -72t-117 -25.5h-218v714h196zM258 430q37 0 56 21.5t19 63.5q0 37 -19 56t-58 19h-42v-160h44zM214 310v-183h54
q38 0 57 23t19 70q0 30 -9.5 49.5t-27 30t-43.5 10.5h-50z" />
    <glyph glyph-name="C" unicode="C" horiz-adv-x="494" 
d="M314 593q-28 0 -49.5 -17t-36 -49t-22 -75.5t-7.5 -96.5q0 -76 14.5 -128t41.5 -78.5t67 -26.5q33 0 64 12t62 29v-136q-33 -18 -70 -27.5t-80 -9.5q-82 0 -139.5 42.5t-87.5 124t-30 199.5q0 81 18 148t51 116.5t81.5 76.5t110.5 27q45 0 86.5 -11t81.5 -36l-42 -125
q-27 19 -54.5 30t-59.5 11z" />
    <glyph glyph-name="D" unicode="D" horiz-adv-x="572" 
d="M531 371q0 -119 -34.5 -202t-100 -126t-159.5 -43h-175v714h186q91 0 153.5 -39.5t96 -116t33.5 -187.5zM374 364q0 77 -14.5 125t-43 70.5t-70.5 22.5h-32v-449h22q71 0 104.5 56.5t33.5 174.5z" />
    <glyph glyph-name="E" unicode="E" horiz-adv-x="434" 
d="M393 0h-331v714h331v-129h-179v-150h166v-130h-166v-174h179v-131z" />
    <glyph glyph-name="F" unicode="F" horiz-adv-x="424" 
d="M214 0h-152v714h329v-129h-177v-176h165v-129h-165v-280z" />
    <glyph glyph-name="G" unicode="G" horiz-adv-x="583" 
d="M298 409h235v-378q-53 -21 -108 -31t-113 -10q-88 0 -148.5 44t-91.5 127t-31 198q0 113 35 194.5t102.5 126t162.5 44.5q54 0 100 -12.5t81 -32.5l-43 -125q-30 20 -63.5 29.5t-68.5 9.5q-49 0 -82 -27.5t-49.5 -81t-16.5 -129.5q0 -73 13.5 -125.5t40.5 -80t68 -27.5
q17 0 32.5 2.5t29.5 7.5v149h-85v128z" />
    <glyph glyph-name="H" unicode="H" horiz-adv-x="593" 
d="M531 0h-152v306h-165v-306h-152v714h152v-277h165v277h152v-714z" />
    <glyph glyph-name="I" unicode="I" horiz-adv-x="339" 
d="M312 0h-285v82l67 31v488l-67 31v82h285v-82l-66 -31v-488l66 -31v-82z" />
    <glyph glyph-name="J" unicode="J" horiz-adv-x="276" 
d="M21 -218q-21 0 -41 2.5t-38 8.5v129q12 -4 25.5 -7t29.5 -3q25 0 39.5 11.5t21 39t6.5 75.5v676h151v-671q0 -100 -22.5 -156.5t-66 -80.5t-105.5 -24z" />
    <glyph glyph-name="K" unicode="K" horiz-adv-x="530" 
d="M538 0h-169l-113 279l-42 -34v-245h-152v714h152v-320q5 20 15.5 43t24.5 50l121 227h163l-173 -319z" />
    <glyph glyph-name="L" unicode="L" horiz-adv-x="416" 
d="M62 0v714h152v-583h188v-131h-340z" />
    <glyph glyph-name="M" unicode="M" horiz-adv-x="788" 
d="M333 0l-132 505h-4q3 -32 4.5 -61.5t2 -55t0.5 -47.5v-341h-142v714h209l122 -461h3l123 461h207v-714h-145v343q0 24 0.5 49.5t2 53.5t3.5 59h-4l-134 -505h-116z" />
    <glyph glyph-name="N" unicode="N" horiz-adv-x="638" 
d="M576 0h-178l-198 473h-4q3 -37 5 -69t2.5 -57.5t0.5 -46.5v-300h-142v714h177l198 -462h3q-2 35 -3.5 65.5t-2.5 56t-1 45.5v295h143v-714z" />
    <glyph glyph-name="O" unicode="O" horiz-adv-x="606" 
d="M565 358q0 -87 -16.5 -155.5t-49 -116t-82 -72t-114.5 -24.5q-64 0 -113.5 25t-82.5 72.5t-49.5 116t-16.5 155.5q0 120 30 201.5t88.5 123t143.5 41.5q88 0 146 -43t87 -125t29 -199zM199 358q0 -78 11.5 -130t35 -78t57.5 -26q35 0 58 25.5t34.5 77t11.5 131.5
q0 119 -26 177.5t-78 58.5q-34 0 -57.5 -26.5t-35 -79t-11.5 -130.5z" />
    <glyph glyph-name="P" unicode="P" horiz-adv-x="504" 
d="M257 714q109 0 163.5 -57.5t54.5 -166.5q0 -54 -14 -98.5t-41.5 -77.5t-70 -50.5t-99.5 -17.5h-36v-246h-152v714h195zM244 585h-30v-210h20q29 0 48.5 11.5t30 36.5t10.5 66q0 49 -19.5 72.5t-59.5 23.5z" />
    <glyph glyph-name="Q" unicode="Q" horiz-adv-x="606" 
d="M565 358q0 -83 -14.5 -148t-42.5 -111t-69 -73l119 -196h-172l-87 161h-4h-5q-62 0 -109 27t-77.5 76t-46.5 116t-16 149q0 120 30 201.5t88.5 123t143.5 41.5q86 0 144 -41.5t88 -123t30 -202.5zM199 358q0 -78 11.5 -130t35 -78t57.5 -26q35 0 58 25.5t34.5 77
t11.5 131.5q0 119 -26 177.5t-78 58.5q-34 0 -57.5 -26.5t-35 -79t-11.5 -130.5z" />
    <glyph glyph-name="R" unicode="R" horiz-adv-x="527" 
d="M239 714q81 0 134.5 -23t80 -69.5t26.5 -116.5q0 -42 -10.5 -78t-32.5 -64t-56 -50l147 -313h-167l-115 274h-32v-274h-152v714h177zM238 586h-24v-192h25q42 0 63.5 25.5t21.5 77.5q0 31 -9.5 50.5t-28.5 29t-48 9.5z" />
    <glyph glyph-name="S" unicode="S" horiz-adv-x="445" 
d="M418 213q0 -65 -27 -115.5t-75 -79t-115 -28.5q-30 0 -58.5 3.5t-56 13t-56.5 25.5v155q41 -27 83.5 -41.5t79.5 -14.5q24 0 39.5 9t23 24t7.5 33q0 20 -6.5 36t-26 33.5t-59.5 40.5q-31 19 -56.5 39t-43 44t-27 55.5t-9.5 73.5q0 63 24.5 108.5t71 71.5t113.5 25
q44 0 87 -12t86 -36l-42 -134q-35 22 -66.5 33t-58.5 11q-21 0 -34.5 -8t-20.5 -21t-7 -30q0 -22 7 -38t28 -32t62 -40q44 -26 73.5 -55.5t44.5 -65.5t15 -83z" />
    <glyph glyph-name="T" unicode="T" horiz-adv-x="443" 
d="M297 0h-150v582h-132v132h412v-132h-130v-582z" />
    <glyph glyph-name="U" unicode="U" horiz-adv-x="574" 
d="M516 238q0 -82 -26.5 -137.5t-77.5 -83t-126 -27.5q-110 0 -169 61t-59 184v479h152v-473q0 -63 19.5 -90t57.5 -27q27 0 44 11.5t25.5 37.5t8.5 69v472h151v-476z" />
    <glyph glyph-name="V" unicode="V" horiz-adv-x="535" 
d="M535 714l-180 -714h-177l-178 714h159l80 -379q5 -23 10.5 -55t10.5 -63.5t7 -53.5q3 22 7.5 53t10.5 63t11 55l80 380h159z" />
    <glyph glyph-name="W" unicode="W" horiz-adv-x="791" 
d="M790 714l-138 -714h-174l-58 306q-4 21 -7.5 42.5t-6.5 44.5t-6 47.5t-5 49.5q-1 -19 -4 -42t-6 -47.5t-6.5 -48.5t-7.5 -45l-58 -307h-173l-139 714h148l59 -338q3 -20 6.5 -44.5t7.5 -51t7 -53t5 -50.5q3 26 7 53.5t8 54t8.5 49.5t7.5 40l68 340h125l63 -339
q4 -19 8.5 -43.5t8 -51t7 -52.5t6.5 -51q3 30 7 63t9.5 68.5t10.5 67.5l60 338h152z" />
    <glyph glyph-name="X" unicode="X" horiz-adv-x="495" 
d="M495 0h-164l-84 224l-88 -224h-159l160 360l-149 354h158l74 -213l72 213h160l-145 -350z" />
    <glyph glyph-name="Y" unicode="Y" horiz-adv-x="498" 
d="M250 438l91 276h157l-173 -439v-275h-152v270l-173 444h158z" />
    <glyph glyph-name="Z" unicode="Z" horiz-adv-x="448" 
d="M427 0h-405v108l235 476h-230v130h394v-108l-234 -475h240v-131z" />
    <glyph glyph-name="bracketleft" unicode="[" horiz-adv-x="305" 
d="M285 -166h-238v897h238v-112h-103v-673h103v-112z" />
    <glyph glyph-name="backslash" unicode="\" horiz-adv-x="414" 
d="M133 722l275 -730h-128l-275 730h128z" />
    <glyph glyph-name="bracketright" unicode="]" horiz-adv-x="305" 
d="M21 -54h102v673h-102v112h236v-897h-236v112z" />
    <glyph glyph-name="asciicircum" unicode="^" horiz-adv-x="520" 
d="M8 261l214 453h75l215 -453h-132l-120 258l-120 -258h-132z" />
    <glyph glyph-name="underscore" unicode="_" horiz-adv-x="487" 
d="M489 -177h-491v108h491v-108z" />
    <glyph glyph-name="grave" unicode="`" horiz-adv-x="324" 
d="M204 766q9 -20 24 -49t30.5 -55.5t25.5 -42.5v-13h-105l-31.5 31.5t-40.5 42t-39 43t-28 34.5v9h164z" />
    <glyph glyph-name="a" unicode="a" horiz-adv-x="478" 
d="M255 560q82 0 126.5 -49.5t44.5 -148.5v-362h-106l-23 73h-3q-17 -28 -36.5 -46.5t-44 -27.5t-57.5 -9q-46 0 -74.5 25t-41.5 65t-13 85q0 87 47.5 130.5t136.5 47.5l70 3v18q0 40 -13.5 60t-43.5 20q-23 0 -51.5 -9.5t-63.5 -30.5l-39 108q39 23 86 35.5t99 12.5z
M247 249q-37 -2 -56 -21.5t-19 -56.5q0 -33 11.5 -49t33.5 -16q28 0 46 26t18 69v50z" />
    <glyph glyph-name="b" unicode="b" horiz-adv-x="511" 
d="M198 578q0 -16 -1 -40t-3 -59h5q22 42 52 61t67 19q74 0 116.5 -74.5t42.5 -208.5q0 -88 -19.5 -152.5t-55 -99t-87.5 -34.5q-37 0 -63 14t-53 53h-8l-21 -57h-117v760h145v-182zM267 435q-25 0 -40 -16.5t-22 -48t-7 -77.5v-30q0 -79 16.5 -115t53.5 -36q30 0 46 40.5
t16 125.5q0 78 -15.5 117.5t-47.5 39.5z" />
    <glyph glyph-name="c" unicode="c" horiz-adv-x="415" 
d="M247 -10q-71 0 -118.5 30.5t-71 93t-23.5 158.5q0 82 23 147t70.5 103t121.5 38q44 0 78.5 -10t64.5 -29l-39 -116q-23 16 -46 23t-47 7q-25 0 -42.5 -18.5t-27 -54.5t-9.5 -90q0 -52 9.5 -87.5t27.5 -53t45 -17.5q30 0 59 11.5t58 32.5v-123q-28 -23 -62 -34t-71 -11z
" />
    <glyph glyph-name="d" unicode="d" horiz-adv-x="511" 
d="M198 -10q-79 0 -121.5 76.5t-42.5 209.5t42.5 208.5t116.5 75.5q26 0 47.5 -8.5t39.5 -26.5t33 -46h5q-2 35 -3.5 59t-1.5 40v182h145v-760h-116l-20 57h-9q-16 -23 -32.5 -38t-36 -22t-46.5 -7zM243 111q36 0 53 35.5t17 114.5v31q0 74 -16.5 108.5t-53.5 34.5
q-31 0 -46.5 -40t-15.5 -118q0 -84 16 -125t46 -41z" />
    <glyph glyph-name="e" unicode="e" horiz-adv-x="469" 
d="M240 559q63 0 108 -30t68 -85.5t23 -134.5v-78h-263q1 -64 25.5 -94t74.5 -30q36 0 68 9.5t68 31.5v-119q-34 -20 -73 -29.5t-84 -9.5q-77 0 -126 33.5t-72 96.5t-23 152q0 92 23 156t69 97.5t114 33.5zM243 446q-29 0 -47 -25.5t-19 -86.5h127q0 37 -7.5 62t-20.5 37.5
t-33 12.5z" />
    <glyph glyph-name="f" unicode="f" horiz-adv-x="311" 
d="M303 430h-89v-430h-144v430h-62v78l62 41v13q0 71 15 116t48 66t85 21q30 0 55 -5.5t58 -18.5l-29 -108q-13 5 -26 7.5t-26 2.5q-19 0 -27.5 -16t-8.5 -54v-23h89v-120z" />
    <glyph glyph-name="g" unicode="g" horiz-adv-x="511" 
d="M198 560q39 0 65.5 -17.5t49.5 -62.5h8l12 70h125v-512q0 -90 -25.5 -152t-79 -94t-139.5 -32q-46 0 -83.5 10t-71.5 30v126q42 -23 78.5 -32.5t72.5 -9.5q47 0 75 23t28 79v8q0 17 1.5 39t3.5 39h-5q-22 -43 -50 -62.5t-70 -19.5q-74 0 -116.5 74.5t-42.5 206.5
q0 136 43.5 212.5t120.5 76.5zM242 435q-19 0 -33 -18t-21 -55t-7 -93q0 -78 16 -116t47 -38q18 0 31 8.5t21.5 25.5t12.5 43t4 62v28q0 54 -7.5 88t-22.5 49.5t-41 15.5z" />
    <glyph glyph-name="h" unicode="h" horiz-adv-x="514" 
d="M198 605q0 -31 -2.5 -63t-8.5 -61h8q11 26 28 43.5t40 26.5t51 9q47 0 80 -23.5t50.5 -67.5t17.5 -109v-360h-145v317q0 58 -11.5 85.5t-36.5 27.5q-29 0 -44 -18t-21 -56t-6 -98v-258h-145v760h145v-155z" />
    <glyph glyph-name="i" unicode="i" horiz-adv-x="254" 
d="M199 550v-550h-145v550h145zM127 768q40 0 59 -20t19 -59t-20 -58.5t-58 -19.5q-39 0 -58.5 19.5t-19.5 58.5q0 40 18.5 59.5t59.5 19.5z" />
    <glyph glyph-name="j" unicode="j" horiz-adv-x="254" 
d="M44 -240q-19 0 -38.5 2.5t-38.5 8.5v124q12 -4 22.5 -6.5t20.5 -2.5q23 0 33.5 18t10.5 53v593h145v-603q0 -64 -18.5 -105.5t-53 -61t-83.5 -20.5zM49 689q0 40 18.5 59.5t59.5 19.5q40 0 59 -20t19 -59t-20 -58.5t-58 -19.5q-39 0 -58.5 19.5t-19.5 58.5z" />
    <glyph glyph-name="k" unicode="k" horiz-adv-x="495" 
d="M198 442q0 -35 -1 -70.5t-5 -69.5h3q7 15 13.5 28.5t13.5 26t13 22.5l101 171h156l-145 -229l152 -321h-159l-93 214l-49 -45v-169h-145v760h145v-318z" />
    <glyph glyph-name="l" unicode="l" horiz-adv-x="252" 
d="M198 0h-145v760h145v-760z" />
    <glyph glyph-name="m" unicode="m" horiz-adv-x="766" 
d="M572 560q71 0 107 -49.5t36 -150.5v-360h-145v315q0 59 -12 87.5t-38 28.5q-36 0 -49.5 -39t-13.5 -121v-271h-146v316q0 39 -5 64.5t-15.5 38t-27.5 12.5q-25 0 -39 -19t-20 -58t-6 -99v-255h-145v550h114l16 -69h9q11 26 29 43.5t44 26.5t57 9q48 0 76 -21.5t41 -54.5
h10q19 37 49 56.5t74 19.5z" />
    <glyph glyph-name="n" unicode="n" horiz-adv-x="514" 
d="M314 560q70 0 109 -51.5t39 -147.5v-361h-145v317q0 56 -10.5 85t-41.5 29q-38 0 -52.5 -38.5t-14.5 -134.5v-258h-145v550h114l16 -69h9q12 26 30 43.5t41 26.5t51 9z" />
    <glyph glyph-name="o" unicode="o" horiz-adv-x="501" 
d="M466 276q0 -55 -11.5 -106.5t-36.5 -92t-66.5 -64t-101.5 -23.5q-56 0 -97 23t-67 63.5t-39 92t-13 107.5q0 82 22.5 146t70.5 101t124 37q66 0 114 -33t74.5 -96.5t26.5 -154.5zM181 274q0 -53 7.5 -89.5t23 -54.5t38.5 -18q26 0 40.5 18t21.5 55t7 91q0 55 -7 91
t-21.5 53.5t-39.5 17.5q-37 0 -53.5 -40t-16.5 -124z" />
    <glyph glyph-name="p" unicode="p" horiz-adv-x="511" 
d="M315 560q77 0 119.5 -75.5t42.5 -211.5q0 -88 -19.5 -151.5t-54.5 -97.5t-84 -34q-25 0 -47 9t-40.5 27t-32.5 46h-5q2 -34 3 -59t1 -40v-213h-145v790h117l21 -72h8q17 33 34 51t37.5 24.5t44.5 6.5zM268 438q-25 0 -40 -15t-22.5 -48.5t-7.5 -87.5v-29q0 -49 7.5 -81
t22.5 -47t39 -15q22 0 36 17.5t20.5 52.5t6.5 87q0 84 -15.5 125t-46.5 41z" />
    <glyph glyph-name="q" unicode="q" horiz-adv-x="511" 
d="M313 -31q0 16 1.5 41.5t3.5 61.5h-5q-22 -43 -52 -62.5t-68 -19.5q-74 0 -116.5 74.5t-42.5 206.5q0 91 19.5 155.5t56 99t88.5 34.5q39 0 65.5 -17.5t49.5 -62.5h8l12 70h125v-790h-145v209zM244 115q24 0 39 15t22.5 45.5t7.5 78.5v28q0 81 -16.5 117t-53.5 36
q-30 0 -46 -41t-16 -125q0 -78 16 -116t47 -38z" />
    <glyph glyph-name="r" unicode="r" horiz-adv-x="360" 
d="M307 560q10 0 20.5 -1.5t24.5 -5.5l-13 -155q-10 4 -21 5.5t-26 1.5q-24 0 -41 -8.5t-29 -25t-17.5 -40t-5.5 -52.5v-279h-145v550h111l21 -89h7q11 24 27 47t38 37.5t49 14.5z" />
    <glyph glyph-name="s" unicode="s" horiz-adv-x="384" 
d="M359 165q0 -57 -22 -96.5t-62.5 -59t-97.5 -19.5q-40 0 -77.5 7.5t-71.5 23.5v138q27 -18 63 -31t72 -13q25 0 38 10t13 32q0 11 -5 21.5t-22.5 23.5t-54.5 31q-34 18 -57.5 42t-35.5 55.5t-12 70.5q0 74 45.5 116.5t127.5 42.5q42 0 78.5 -11.5t73.5 -33.5l-38 -111
q-24 17 -51 28t-54 11q-21 0 -32 -9t-11 -26q0 -12 5.5 -20.5t22.5 -20.5t52 -33q34 -19 59 -42t39.5 -54t14.5 -73z" />
    <glyph glyph-name="t" unicode="t" horiz-adv-x="334" 
d="M251 116q14 0 31 4.5t35 12.5v-115q-25 -14 -52 -21t-59 -7q-50 0 -81.5 20t-46 60.5t-14.5 101.5v258h-55v78l67 37l34 118h99v-113h101v-120h-101v-255q0 -29 10 -44t32 -15z" />
    <glyph glyph-name="u" unicode="u" horiz-adv-x="514" 
d="M461 550v-550h-113l-17 69h-8q-12 -26 -30 -43.5t-40.5 -26.5t-51.5 -9q-48 0 -81.5 24t-50.5 69t-17 108v359h145v-313q0 -58 11 -88t37 -30q31 0 46 18.5t20 53.5t5 83v276h145z" />
    <glyph glyph-name="v" unicode="v" horiz-adv-x="466" 
d="M155 0l-152 550h150l59 -280q5 -19 8 -38t5.5 -38t4.5 -40h4q1 16 3 34t5.5 37.5t7.5 39.5l63 285h150l-152 -550h-156z" />
    <glyph glyph-name="w" unicode="w" horiz-adv-x="709" 
d="M374 261q-3 17 -5.5 36.5l-5 39t-4.5 38.5t-4 36h-3q-3 -19 -5.5 -39.5t-4.5 -40t-4.5 -37t-5.5 -32.5l-47 -262h-164l-115 550h144l34 -193q5 -27 9.5 -59t7.5 -64.5t5 -64.5h3l4 40t5 42.5t7 46t9 49.5l37 203h167l36 -206q6 -32 10 -63.5t8 -59.5t6 -52h4q2 27 4.5 57
t6.5 60t9 59l38 205h142l-116 -550h-167z" />
    <glyph glyph-name="x" unicode="x" horiz-adv-x="453" 
d="M134 281l-123 269h157l59 -155l58 155h156l-122 -270l128 -280h-157l-66 167l-64 -167h-153z" />
    <glyph glyph-name="y" unicode="y" horiz-adv-x="466" 
d="M3 550h151l61 -254q5 -17 8.5 -34.5t6.5 -34t3 -30.5h4q2 19 7 42.5t12 55.5l57 255h150l-165 -595q-19 -70 -45 -113.5t-61.5 -62.5t-82.5 -19q-17 0 -33.5 2t-32.5 6v127q10 -3 20 -4.5t20 -1.5q20 0 32 7.5t22 28t21 60.5l6 22z" />
    <glyph glyph-name="z" unicode="z" horiz-adv-x="378" 
d="M360 0h-342v89l172 339h-162v122h324v-97l-165 -332h173v-121z" />
    <glyph glyph-name="braceleft" unicode="{" horiz-adv-x="366" 
d="M342 -166q-82 0 -130.5 14t-70 50t-21.5 101v135q0 27 -10.5 46.5t-33 29.5t-57.5 10v115q35 0 57.5 9.5t33 29t10.5 47.5v137q0 60 18.5 95.5t67 52t136.5 16.5v-115q-27 -1 -46 -5.5t-29 -17t-10 -38.5v-141q0 -56 -21 -86t-69 -38v-6q49 -9 69.5 -38.5t20.5 -82.5
v-143q0 -21 8 -34.5t26.5 -20t50.5 -7.5v-115z" />
    <glyph glyph-name="bar" unicode="|" horiz-adv-x="416" 
d="M144 769h127v-1000h-127v1000z" />
    <glyph glyph-name="braceright" unicode="}" horiz-adv-x="366" 
d="M24 -51q32 2 50.5 7.5t26.5 19t8 35.5v143q0 53 20.5 82.5t68.5 38.5v6q-48 8 -68.5 38.5t-20.5 85.5v141q0 26 -11.5 38.5t-30.5 17t-43 5.5v115q82 0 130.5 -14.5t69.5 -50t21 -99.5v-137q0 -27 10.5 -46t33 -29.5t58.5 -10.5v-115q-35 0 -57.5 -10t-33.5 -29t-11 -47
v-135q0 -59 -18.5 -95.5t-66 -53t-136.5 -16.5v115z" />
    <glyph glyph-name="asciitilde" unicode="~" horiz-adv-x="485" 
d="M227 295q-27 14 -52 20.5t-47 6.5q-23 0 -48.5 -15t-51.5 -44v125q22 26 50.5 39.5t61.5 13.5q31 0 60 -8.5t58 -22.5q28 -13 52.5 -20t47.5 -7q22 0 49 15.5t50 43.5v-125q-23 -26 -51 -39t-61 -13q-31 0 -59 8t-59 22z" />
    <glyph glyph-name="uni00A0" unicode="&#xa0;" horiz-adv-x="178" 
 />
    <glyph glyph-name="exclamdown" unicode="&#xa1;" horiz-adv-x="263" 
d="M70 305h124l22 -487h-169zM217 471q0 -42 -22 -64.5t-63 -22.5q-39 0 -60.5 22.5t-21.5 64.5q0 41 21 64t61 23q39 0 62 -22.5t23 -64.5z" />
    <glyph glyph-name="cent" unicode="&#xa2;" horiz-adv-x="481" 
d="M303 647q28 -3 58.5 -12t53.5 -25l-38 -116q-22 15 -46.5 22.5t-43.5 7.5q-27 0 -45 -15.5t-27 -51.5t-9 -95q0 -58 8 -92.5t25 -50.5t45 -16t60 11.5t59 32.5v-123q-20 -15 -46.5 -26t-53.5 -15v-93h-79v93q-57 6 -94 41.5t-54.5 96t-17.5 141.5q0 79 18.5 139.5
t55.5 98t92 44.5v80h79v-77z" />
    <glyph glyph-name="sterling" unicode="&#xa3;" horiz-adv-x="481" 
d="M289 724q39 0 75 -10t72 -31l-39 -119q-28 15 -51 21.5t-44 6.5q-24 0 -35.5 -18.5t-11.5 -58.5v-94h127v-110h-127v-64q0 -25 -7 -46.5t-21.5 -39t-36.5 -30.5h256v-131h-401v125q22 15 36 30.5t20.5 37t6.5 53.5v65h-65v110h65v94q0 68 21 115t62 70.5t98 23.5z" />
    <glyph glyph-name="currency" unicode="&#xa4;" horiz-adv-x="545" 
d="M76 353q0 26 7.5 51t22.5 49l-65 64l67 66l62 -63q23 15 48.5 21.5t53.5 6.5q27 0 52 -7t48 -22l64 64l67 -64l-64 -65q14 -22 21 -47.5t7 -53.5q0 -29 -7 -54.5t-21 -47.5l62 -62l-65 -66l-64 63q-23 -13 -48.5 -20t-51.5 -7q-30 0 -55.5 7t-47.5 20l-61 -62l-66 66
l64 62q-15 23 -22.5 48t-7.5 53zM170 353q0 -28 13.5 -51t37 -37t51.5 -14q29 0 52.5 14t37.5 37t14 51t-14.5 51.5t-38 37.5t-51.5 14t-51 -14t-37 -37t-14 -52z" />
    <glyph glyph-name="yen" unicode="&#xa5;" horiz-adv-x="481" 
d="M241 450l75 264h157l-136 -354h98v-94h-121v-64h121v-93h-121v-109h-147v109h-121v93h121v64h-121v94h95l-133 354h156z" />
    <glyph glyph-name="brokenbar" unicode="&#xa6;" horiz-adv-x="416" 
d="M144 759h127v-396h-127v396zM144 164h127v-396h-127v396z" />
    <glyph glyph-name="section" unicode="&#xa7;" horiz-adv-x="422" 
d="M39 387q0 36 19 66t53 51q-31 24 -46.5 53.5t-15.5 64.5q0 65 47.5 102t122.5 37q40 0 77.5 -10t74.5 -30l-37 -100q-30 19 -58 29.5t-51 10.5q-26 0 -39 -10.5t-13 -30.5q0 -15 9 -26t25.5 -21t40.5 -22q47 -23 76 -45.5t43 -50t14 -65.5q0 -41 -15.5 -71.5t-47.5 -55.5
q28 -23 41.5 -52t13.5 -64q0 -71 -49 -113t-134 -42q-43 0 -80 10.5t-67 30.5v111q20 -14 46 -26t52 -19t44 -7q31 0 47.5 13t16.5 36q0 16 -6 26.5t-22 21.5t-49 28q-49 26 -78.5 49.5t-42 52.5t-12.5 68zM153 405q0 -16 6.5 -29t20.5 -25t36 -26l28 -16q12 11 17.5 25
t5.5 31q0 20 -8 35.5t-26 30t-49 29.5q-16 -8 -23.5 -22.5t-7.5 -32.5z" />
    <glyph glyph-name="dieresis" unicode="&#xa8;" horiz-adv-x="473" 
d="M77 685q0 35 18 53.5t47 18.5q31 0 49 -19t18 -53q0 -32 -18 -51t-49 -19q-29 0 -47 18.5t-18 51.5zM264 685q0 35 18 53.5t48 18.5q31 0 48.5 -19t17.5 -53q0 -32 -17.5 -51t-49.5 -19q-30 0 -47.5 19t-17.5 51z" />
    <glyph glyph-name="copyright" unicode="&#xa9;" horiz-adv-x="825" 
d="M423 129q-101 0 -157 60t-56 168q0 71 24.5 122t71.5 78t114 27q39 0 76.5 -9.5t73.5 -26.5l-41 -83q-25 14 -50.5 20t-48.5 6q-50 0 -78 -33.5t-28 -104.5q0 -68 26.5 -99.5t81.5 -31.5q29 0 60 8t59 23v-94q-30 -15 -62 -22.5t-66 -7.5zM411 -10q-84 0 -152 28.5
t-116 78.5t-74 116.5t-26 143.5q0 81 28 148.5t78.5 116.5t117.5 75.5t146 26.5q80 0 147.5 -27.5t117 -77.5t77 -117.5t27.5 -146.5q0 -80 -27.5 -147t-77.5 -116t-117.5 -75.5t-148.5 -26.5zM415 60q64 0 117 22t90.5 62t58.5 94t21 118q0 67 -22 122t-61.5 94.5
t-92.5 60.5t-115 21q-65 0 -118 -22.5t-91 -63.5t-58.5 -95t-20.5 -119q0 -66 22 -120.5t62 -93.5t93 -59.5t115 -20.5z" />
    <glyph glyph-name="ordfeminine" unicode="&#xaa;" horiz-adv-x="339" 
d="M179 722q57 0 88.5 -34.5t31.5 -100.5v-220h-71l-18 56q-13 -28 -37 -45t-60 -17q-30 0 -50.5 16t-31 42t-10.5 55q0 42 18.5 65.5t50.5 33.5t73 13l35 2v8q0 22 -9 33t-32 11t-44 -8t-43 -20l-29 74q32 18 65 27t73 9zM170 524q-23 -3 -35 -13.5t-12 -31.5
q0 -18 8.5 -27.5t23.5 -9.5q20 0 31.5 20t11.5 51v14z" />
    <glyph glyph-name="guillemotleft" unicode="&#xab;" horiz-adv-x="539" 
d="M25 284l153 224l104 -55l-102 -176l102 -175l-104 -56l-153 224v14zM253 284l153 224l104 -55l-101 -176l101 -175l-104 -56l-153 224v14z" />
    <glyph glyph-name="logicalnot" unicode="&#xac;" horiz-adv-x="485" 
d="M446 412v-295h-120v177h-293v118h413z" />
    <glyph glyph-name="uni00AD" unicode="&#xad;" horiz-adv-x="314" 
d="M28 200v137h258v-137h-258z" />
    <glyph glyph-name="registered" unicode="&#xae;" horiz-adv-x="825" 
d="M256 151v428h142q86 0 130 -33t44 -98q0 -42 -16.5 -71.5t-53.5 -46.5l91 -179h-121l-69 160h-35v-160h-112zM391 390q31 0 48.5 12t17.5 42q0 26 -14.5 36.5t-50.5 10.5h-24v-101h23zM411 -10q-84 0 -152 28.5t-116 78.5t-74 116.5t-26 143.5q0 81 28 148.5t78.5 116.5
t117.5 75.5t146 26.5q80 0 147.5 -27.5t117 -77.5t77 -117.5t27.5 -146.5q0 -80 -27.5 -147t-77.5 -116t-117.5 -75.5t-148.5 -26.5zM415 60q64 0 117 22t90.5 62t58.5 94t21 118q0 67 -22 122t-61.5 94.5t-92.5 60.5t-115 21q-65 0 -118 -22.5t-91 -63.5t-58.5 -95
t-20.5 -119q0 -66 22 -120.5t62 -93.5t93 -59.5t115 -20.5z" />
    <glyph glyph-name="overscore" unicode="&#xaf;" horiz-adv-x="483" 
d="M485 760h-487v108h487v-108z" />
    <glyph glyph-name="degree" unicode="&#xb0;" horiz-adv-x="361" 
d="M180 424q-44 0 -79 19t-55.5 53t-20.5 78q0 45 20.5 78.5t55.5 52.5t79 19t79 -19t55.5 -52.5t20.5 -78.5q0 -44 -20.5 -78t-55.5 -53t-79 -19zM180 509q30 0 47 17.5t17 47.5t-17 47.5t-47 17.5q-31 0 -47.5 -18t-16.5 -47q0 -30 17 -47.5t47 -17.5z" />
    <glyph glyph-name="plusminus" unicode="&#xb1;" horiz-adv-x="485" 
d="M33 0v118h419v-118h-419zM303 463h149v-118h-149v-181h-120v182h-150v117h150v184h120v-184z" />
    <glyph glyph-name="uni00B2" unicode="&#xb2;" horiz-adv-x="341" 
d="M303 415h-273v92l90 105q24 29 38 49t20 35t6 31q0 17 -10 27t-29 10t-36.5 -10.5t-34.5 -31.5l-49 69q18 26 54.5 44.5t80.5 18.5q64 0 97.5 -32.5t33.5 -82.5q0 -36 -12 -66t-41 -64.5t-80 -87.5l-11 -14h156v-92z" />
    <glyph glyph-name="uni00B3" unicode="&#xb3;" horiz-adv-x="341" 
d="M159 853q59 0 96 -28t37 -78q0 -38 -17 -64.5t-49 -41.5v-4q37 -11 57 -37.5t20 -68.5q0 -58 -43.5 -91t-110.5 -33q-35 0 -64 8t-53 25v100q23 -19 52 -28.5t64 -9.5q26 0 39 10.5t13 29.5q0 26 -15.5 37.5t-47.5 11.5h-42v82h34q32 0 47.5 12.5t15.5 35.5
q0 19 -10 30.5t-33 11.5q-21 0 -39 -8t-39 -27l-45 68q30 28 63.5 42.5t69.5 14.5z" />
    <glyph glyph-name="acute" unicode="&#xb4;" horiz-adv-x="324" 
d="M284 757q-10 -14 -26.5 -33t-35.5 -40t-39 -41t-38 -37h-105v13q17 27 31.5 52t26.5 49t22 46h164v-9z" />
    <glyph glyph-name="uni00B5" unicode="&#xb5;" horiz-adv-x="514" 
d="M461 550v-550h-113l-17 70h-6q-8 -25 -19.5 -43t-26 -27.5t-30.5 -9.5q-20 0 -32 10.5t-21 32.5h-3q2 -15 2.5 -33t1 -38t0.5 -41v-161h-145v790h145v-315q0 -57 11 -86.5t37 -29.5q31 0 46 22.5t20 61.5t5 88v259h145z" />
    <glyph glyph-name="paragraph" unicode="&#xb6;" horiz-adv-x="505" 
d="M448 -127h-79v813h-59v-813h-79v400q-9 -4 -20 -6.5t-25 -2.5q-50 0 -83 27t-49 81.5t-16 136.5q0 83 17 139t53 84t92 28h248v-887z" />
    <glyph glyph-name="periodcentered" unicode="&#xb7;" horiz-adv-x="263" 
d="M48 352q0 42 22 64.5t63 22.5q40 0 61.5 -22.5t21.5 -64.5t-22 -64.5t-61 -22.5t-62 22.5t-23 64.5z" />
    <glyph glyph-name="cedilla" unicode="&#xb8;" horiz-adv-x="155" 
d="M180 -128q0 -52 -32.5 -82t-93.5 -30q-24 0 -43.5 2t-36.5 6v83q15 -4 28 -6t24 -2q21 0 31.5 8.5t10.5 24.5q0 18 -18 29t-50 13l34 82h71l-16 -37q29 -5 49 -17t31 -31t11 -43z" />
    <glyph glyph-name="uni00B9" unicode="&#xb9;" horiz-adv-x="341" 
d="M259 843v-428h-107v193v35.5t1 35t2 36.5l-12.5 -12.5t-10.5 -9.5l-48 -39l-51 70l140 119h86z" />
    <glyph glyph-name="ordmasculine" unicode="&#xba;" horiz-adv-x="336" 
d="M312 542q0 -84 -37.5 -132.5t-106.5 -48.5q-68 0 -106.5 49.5t-38.5 131.5q0 85 39 132.5t106 47.5q44 0 76.5 -21.5t50 -61.5t17.5 -97zM126 541q0 -47 10 -70.5t32 -23.5q23 0 33 23.5t10 70.5q0 49 -10.5 73t-32.5 24q-21 0 -31.5 -24t-10.5 -73z" />
    <glyph glyph-name="guillemotright" unicode="&#xbb;" horiz-adv-x="539" 
d="M514 270l-153 -224l-104 56l102 175l-102 176l104 55l153 -224v-14zM286 270l-153 -224l-104 56l101 175l-101 176l104 55l153 -224v-14z" />
    <glyph glyph-name="onequarter" unicode="&#xbc;" horiz-adv-x="822" 
d="M189 0l350 714h115l-350 -714h-115zM150 479v34.5t1 35.5t2 37q-7 -7 -12.5 -13t-10.5 -10l-48 -38l-51 69l140 120h86v-428h-107v193zM653 0v73h-160v79l148 277h116v-271h52v-85h-52v-73h-104zM579 158h74v91q0 19 1 36.5t2 32.5q-8 -22 -14 -37t-12 -25z" />
    <glyph glyph-name="onehalf" unicode="&#xbd;" horiz-adv-x="828" 
d="M173 0l350 714h115l-350 -714h-115zM150 479v25.5t0.5 26l1 27t1.5 28.5q-7 -7 -12.5 -13t-10.5 -10l-48 -38l-51 69l140 120h86v-428h-107v193zM517 0v92l90 101q26 29 40 48t20 35t6 32q0 18 -11 29t-30 11t-36.5 -10t-34.5 -32l-49 69q18 26 54.5 45t80.5 19
q63 0 97 -33t34 -82q0 -36 -10 -64t-27 -50.5t-38 -44.5l-69 -74h156v-91h-273z" />
    <glyph glyph-name="threequarters" unicode="&#xbe;" horiz-adv-x="825" 
d="M188 0l349 714h116l-350 -714h-115zM149 278q-35 0 -64 8t-53 24v100q23 -18 52 -28t64 -10q26 0 39 10.5t13 29.5q0 26 -15.5 38t-47.5 12h-42v82h34q32 0 47.5 12.5t15.5 34.5q0 19 -10 31t-33 12q-21 0 -39 -8.5t-39 -27.5l-45 69q30 28 63.5 42.5t69.5 14.5
q59 0 96 -28.5t37 -78.5q0 -37 -17 -64t-49 -41v-4q37 -12 57 -38t20 -69q0 -57 -43.5 -90t-110.5 -33zM655 0v73h-159v79l148 277h116v-271h52v-85h-52v-73h-105zM581 158h74v91q0 19 1 36.5t2 32.5q-7 -22 -13.5 -37t-11.5 -25z" />
    <glyph glyph-name="questiondown" unicode="&#xbf;" horiz-adv-x="384" 
d="M279 266q0 -32 -6.5 -57.5t-20.5 -47.5t-38 -45q-20 -20 -33 -36t-18.5 -32t-5.5 -38q0 -28 15.5 -43t45.5 -15q26 0 54.5 12.5t61.5 35.5l48 -113q-44 -32 -88.5 -48t-89.5 -16q-92 0 -140.5 47t-48.5 127q0 43 10.5 75t31 59t49.5 55q24 23 35 38t14 28t3 30v23h121
v-39zM302 471q0 -42 -21.5 -64.5t-63.5 -22.5q-39 0 -60.5 22.5t-21.5 64.5t22 64.5t60 22.5q40 0 62.5 -22.5t22.5 -64.5z" />
    <glyph glyph-name="Agrave" unicode="&#xc0;" horiz-adv-x="548" 
d="M386 0l-33 157h-157l-32 -157h-164l173 714h199l176 -714h-162zM295 464q-4 25 -7.5 49t-6.5 45.5t-6 40.5q-2 -18 -5 -39.5t-7 -45t-9 -48.5l-35 -178h111zM296 930q9 -20 24 -49t30.5 -55.5t25.5 -42.5v-13h-105l-31.5 31.5t-40.5 42t-39 43t-28 34.5v9h164z" />
    <glyph glyph-name="Aacute" unicode="&#xc1;" horiz-adv-x="548" 
d="M386 0l-33 157h-157l-32 -157h-164l173 714h199l176 -714h-162zM295 464q-4 25 -7.5 49t-6.5 45.5t-6 40.5q-2 -18 -5 -39.5t-7 -45t-9 -48.5l-35 -178h111zM437 921q-10 -14 -26.5 -33t-35.5 -40t-39 -41t-38 -37h-105v13q17 27 31.5 52t26.5 49t22 46h164v-9z" />
    <glyph glyph-name="Acircumflex" unicode="&#xc2;" horiz-adv-x="548" 
d="M386 0l-33 157h-157l-32 -157h-164l173 714h199l176 -714h-162zM295 464q-4 25 -7.5 49t-6.5 45.5t-6 40.5q-2 -18 -5 -39.5t-7 -45t-9 -48.5l-35 -178h111zM341 930q12 -22 26.5 -46t32 -49.5t36.5 -51.5v-13h-88q-16 14 -34.5 33t-38.5 44q-22 -25 -40 -45t-32 -32h-89
v13q15 19 33.5 46.5t35.5 55t26 45.5h132z" />
    <glyph glyph-name="Atilde" unicode="&#xc3;" horiz-adv-x="548" 
d="M386 0l-33 157h-157l-32 -157h-164l173 714h199l176 -714h-162zM295 464q-4 25 -7.5 49t-6.5 45.5t-6 40.5q-2 -18 -5 -39.5t-7 -45t-9 -48.5l-35 -178h111zM107 769q1 23 4 50t12 51.5t26.5 40t45.5 15.5q20 0 38.5 -7.5t36 -17.5t34 -17t32.5 -7q14 0 20 13t10 37h77
q0 -77 -26 -117t-63 -40q-19 0 -39 7t-38 17t-34 17.5t-28 7.5q-9 0 -18.5 -11.5t-12.5 -38.5h-77z" />
    <glyph glyph-name="Adieresis" unicode="&#xc4;" horiz-adv-x="548" 
d="M386 0l-33 157h-157l-32 -157h-164l173 714h199l176 -714h-162zM295 464q-4 25 -7.5 49t-6.5 45.5t-6 40.5q-2 -18 -5 -39.5t-7 -45t-9 -48.5l-35 -178h111zM115 849q0 35 18 53.5t47 18.5q31 0 49 -19t18 -53q0 -32 -18 -51t-49 -19q-29 0 -47 18.5t-18 51.5zM302 849
q0 35 18 53.5t48 18.5q31 0 48.5 -19t17.5 -53q0 -32 -17.5 -51t-49.5 -19q-30 0 -47.5 19t-17.5 51z" />
    <glyph glyph-name="Aring" unicode="&#xc5;" horiz-adv-x="548" 
d="M386 0l-33 157h-157l-32 -157h-164l173 714h199l176 -714h-162zM295 464q-4 25 -7.5 49t-6.5 45.5t-6 40.5q-2 -18 -5 -39.5t-7 -45t-9 -48.5l-35 -178h111zM274 640q-54 0 -87 33.5t-33 84.5q0 53 33 86t87 33q53 0 86.5 -33.5t33.5 -84.5q0 -50 -33 -84.5t-87 -34.5z
M274 716q19 0 31.5 12t12.5 31t-12.5 31t-31.5 12q-18 0 -30.5 -12t-12.5 -31t11 -31t32 -12z" />
    <glyph glyph-name="AE" unicode="&#xc6;" horiz-adv-x="715" 
d="M674 0h-330v157h-138l-44 -157h-166l219 714h459v-130h-180v-149h166v-130h-166v-174h180v-131zM241 288h103v296h-23z" />
    <glyph glyph-name="Ccedilla" unicode="&#xc7;" horiz-adv-x="494" 
d="M314 593q-28 0 -49.5 -17t-36 -49t-22 -75.5t-7.5 -96.5q0 -76 14.5 -128t41.5 -78.5t67 -26.5q33 0 64 12t62 29v-136q-33 -18 -70 -27.5t-80 -9.5q-82 0 -139.5 42.5t-87.5 124t-30 199.5q0 81 18 148t51 116.5t81.5 76.5t110.5 27q45 0 86.5 -11t81.5 -36l-42 -125
q-27 19 -54.5 30t-59.5 11zM382 -128q0 -52 -32.5 -82t-93.5 -30q-24 0 -43.5 2t-36.5 6v83q15 -4 28 -6t24 -2q21 0 31.5 8.5t10.5 24.5q0 18 -18 29t-50 13l34 82h71l-16 -37q29 -5 49 -17t31 -31t11 -43z" />
    <glyph glyph-name="Egrave" unicode="&#xc8;" horiz-adv-x="434" 
d="M393 0h-331v714h331v-129h-179v-150h166v-130h-166v-174h179v-131zM248 930q9 -20 24 -49t30.5 -55.5t25.5 -42.5v-13h-105l-31.5 31.5t-40.5 42t-39 43t-28 34.5v9h164z" />
    <glyph glyph-name="Eacute" unicode="&#xc9;" horiz-adv-x="434" 
d="M393 0h-331v714h331v-129h-179v-150h166v-130h-166v-174h179v-131zM389 921q-10 -14 -26.5 -33t-35.5 -40t-39 -41t-38 -37h-105v13q17 27 31.5 52t26.5 49t22 46h164v-9z" />
    <glyph glyph-name="Ecircumflex" unicode="&#xca;" horiz-adv-x="434" 
d="M393 0h-331v714h331v-129h-179v-150h166v-130h-166v-174h179v-131zM292 930q12 -22 26.5 -46t32 -49.5t36.5 -51.5v-13h-88q-16 14 -34.5 33t-38.5 44q-22 -25 -40 -45t-32 -32h-89v13q15 19 33.5 46.5t35.5 55t26 45.5h132z" />
    <glyph glyph-name="Edieresis" unicode="&#xcb;" horiz-adv-x="434" 
d="M393 0h-331v714h331v-129h-179v-150h166v-130h-166v-174h179v-131zM66 849q0 35 18 53.5t47 18.5q31 0 49 -19t18 -53q0 -32 -18 -51t-49 -19q-29 0 -47 18.5t-18 51.5zM253 849q0 35 18 53.5t48 18.5q31 0 48.5 -19t17.5 -53q0 -32 -17.5 -51t-49.5 -19q-30 0 -47.5 19
t-17.5 51z" />
    <glyph glyph-name="Igrave" unicode="&#xcc;" horiz-adv-x="339" 
d="M312 0h-285v82l67 31v488l-67 31v82h285v-82l-66 -31v-488l66 -31v-82zM191 930q9 -20 24 -49t30.5 -55.5t25.5 -42.5v-13h-105l-31.5 31.5t-40.5 42t-39 43t-28 34.5v9h164z" />
    <glyph glyph-name="Iacute" unicode="&#xcd;" horiz-adv-x="339" 
d="M312 0h-285v82l67 31v488l-67 31v82h285v-82l-66 -31v-488l66 -31v-82zM332 921q-10 -14 -26.5 -33t-35.5 -40t-39 -41t-38 -37h-105v13q17 27 31.5 52t26.5 49t22 46h164v-9z" />
    <glyph glyph-name="Icircumflex" unicode="&#xce;" horiz-adv-x="339" 
d="M312 0h-285v82l67 31v488l-67 31v82h285v-82l-66 -31v-488l66 -31v-82zM236 930q12 -22 26.5 -46t32 -49.5t36.5 -51.5v-13h-88q-16 14 -34.5 33t-38.5 44q-22 -25 -40 -45t-32 -32h-89v13q15 19 33.5 46.5t35.5 55t26 45.5h132z" />
    <glyph glyph-name="Idieresis" unicode="&#xcf;" horiz-adv-x="339" 
d="M312 0h-285v82l67 31v488l-67 31v82h285v-82l-66 -31v-488l66 -31v-82zM9 849q0 35 18 53.5t47 18.5q31 0 49 -19t18 -53q0 -32 -18 -51t-49 -19q-29 0 -47 18.5t-18 51.5zM196 849q0 35 18 53.5t48 18.5q31 0 48.5 -19t17.5 -53q0 -32 -17.5 -51t-49.5 -19
q-30 0 -47.5 19t-17.5 51z" />
    <glyph glyph-name="Eth" unicode="&#xd0;" horiz-adv-x="572" 
d="M248 714q91 0 154 -39.5t96 -115.5t33 -188q0 -119 -34.5 -202t-99.5 -126t-160 -43h-175v313h-58v113h58v288h186zM246 582h-32v-156h74v-113h-74v-180h22q71 0 104.5 56.5t33.5 175.5q0 76 -14.5 124t-43 70.5t-70.5 22.5z" />
    <glyph glyph-name="Ntilde" unicode="&#xd1;" horiz-adv-x="638" 
d="M576 0h-178l-198 473h-4q3 -37 5 -69t2.5 -57.5t0.5 -46.5v-300h-142v714h177l198 -462h3q-2 35 -3.5 65.5t-2.5 56t-1 45.5v295h143v-714zM151 769q1 23 4 50t12 51.5t26.5 40t45.5 15.5q20 0 38.5 -7.5t36 -17.5t34 -17t32.5 -7q14 0 20 13t10 37h77q0 -77 -26 -117
t-63 -40q-19 0 -39 7t-38 17t-34 17.5t-28 7.5q-9 0 -18.5 -11.5t-12.5 -38.5h-77z" />
    <glyph glyph-name="Ograve" unicode="&#xd2;" horiz-adv-x="606" 
d="M565 358q0 -87 -16.5 -155.5t-49 -116t-82 -72t-114.5 -24.5q-64 0 -113.5 25t-82.5 72.5t-49.5 116t-16.5 155.5q0 120 30 201.5t88.5 123t143.5 41.5q88 0 146 -43t87 -125t29 -199zM199 358q0 -78 11.5 -130t35 -78t57.5 -26q35 0 58 25.5t34.5 77t11.5 131.5
q0 119 -26 177.5t-78 58.5q-34 0 -57.5 -26.5t-35 -79t-11.5 -130.5zM325 930q9 -20 24 -49t30.5 -55.5t25.5 -42.5v-13h-105l-31.5 31.5t-40.5 42t-39 43t-28 34.5v9h164z" />
    <glyph glyph-name="Oacute" unicode="&#xd3;" horiz-adv-x="606" 
d="M565 358q0 -87 -16.5 -155.5t-49 -116t-82 -72t-114.5 -24.5q-64 0 -113.5 25t-82.5 72.5t-49.5 116t-16.5 155.5q0 120 30 201.5t88.5 123t143.5 41.5q88 0 146 -43t87 -125t29 -199zM199 358q0 -78 11.5 -130t35 -78t57.5 -26q35 0 58 25.5t34.5 77t11.5 131.5
q0 119 -26 177.5t-78 58.5q-34 0 -57.5 -26.5t-35 -79t-11.5 -130.5zM466 921q-10 -14 -26.5 -33t-35.5 -40t-39 -41t-38 -37h-105v13q17 27 31.5 52t26.5 49t22 46h164v-9z" />
    <glyph glyph-name="Ocircumflex" unicode="&#xd4;" horiz-adv-x="606" 
d="M565 358q0 -87 -16.5 -155.5t-49 -116t-82 -72t-114.5 -24.5q-64 0 -113.5 25t-82.5 72.5t-49.5 116t-16.5 155.5q0 120 30 201.5t88.5 123t143.5 41.5q88 0 146 -43t87 -125t29 -199zM199 358q0 -78 11.5 -130t35 -78t57.5 -26q35 0 58 25.5t34.5 77t11.5 131.5
q0 119 -26 177.5t-78 58.5q-34 0 -57.5 -26.5t-35 -79t-11.5 -130.5zM370 930q12 -22 26.5 -46t32 -49.5t36.5 -51.5v-13h-88q-16 14 -34.5 33t-38.5 44q-22 -25 -40 -45t-32 -32h-89v13q15 19 33.5 46.5t35.5 55t26 45.5h132z" />
    <glyph glyph-name="Otilde" unicode="&#xd5;" horiz-adv-x="606" 
d="M565 358q0 -87 -16.5 -155.5t-49 -116t-82 -72t-114.5 -24.5q-64 0 -113.5 25t-82.5 72.5t-49.5 116t-16.5 155.5q0 120 30 201.5t88.5 123t143.5 41.5q88 0 146 -43t87 -125t29 -199zM199 358q0 -78 11.5 -130t35 -78t57.5 -26q35 0 58 25.5t34.5 77t11.5 131.5
q0 119 -26 177.5t-78 58.5q-34 0 -57.5 -26.5t-35 -79t-11.5 -130.5zM136 769q1 23 4 50t12 51.5t26.5 40t45.5 15.5q20 0 38.5 -7.5t36 -17.5t34 -17t32.5 -7q14 0 20 13t10 37h77q0 -77 -26 -117t-63 -40q-19 0 -39 7t-38 17t-34 17.5t-28 7.5q-9 0 -18.5 -11.5
t-12.5 -38.5h-77z" />
    <glyph glyph-name="Odieresis" unicode="&#xd6;" horiz-adv-x="606" 
d="M565 358q0 -87 -16.5 -155.5t-49 -116t-82 -72t-114.5 -24.5q-64 0 -113.5 25t-82.5 72.5t-49.5 116t-16.5 155.5q0 120 30 201.5t88.5 123t143.5 41.5q88 0 146 -43t87 -125t29 -199zM199 358q0 -78 11.5 -130t35 -78t57.5 -26q35 0 58 25.5t34.5 77t11.5 131.5
q0 119 -26 177.5t-78 58.5q-34 0 -57.5 -26.5t-35 -79t-11.5 -130.5zM143 849q0 35 18 53.5t47 18.5q31 0 49 -19t18 -53q0 -32 -18 -51t-49 -19q-29 0 -47 18.5t-18 51.5zM330 849q0 35 18 53.5t48 18.5q31 0 48.5 -19t17.5 -53q0 -32 -17.5 -51t-49.5 -19q-30 0 -47.5 19
t-17.5 51z" />
    <glyph glyph-name="multiply" unicode="&#xd7;" horiz-adv-x="485" 
d="M368 560l82 -80l-127 -127l125 -126l-81 -81l-126 125l-126 -124l-79 82l123 124l-123 124l79 83l126 -124z" />
    <glyph glyph-name="Oslash" unicode="&#xd8;" horiz-adv-x="606" 
d="M565 358q0 -90 -17 -158.5t-50 -115t-82 -70.5t-113 -24q-34 0 -63.5 7.5t-55.5 21.5l-34 -71l-73 34l43 88q-43 58 -61 129t-18 160q0 120 30 201.5t88.5 123t143.5 41.5q36 0 67 -8t57 -24l31 62l73 -34l-40 -81q37 -46 55.5 -117t18.5 -165zM411 358q0 63 -9 111
l-160 -324q13 -14 28 -20.5t33 -6.5q36 0 60 26.5t36 80t12 133.5zM195 358q0 -36 2.5 -66.5t8.5 -55.5l163 328q-13 17 -29 25t-36 8q-36 0 -60.5 -26.5t-36.5 -80t-12 -132.5z" />
    <glyph glyph-name="Ugrave" unicode="&#xd9;" horiz-adv-x="574" 
d="M516 238q0 -82 -26.5 -137.5t-77.5 -83t-126 -27.5q-110 0 -169 61t-59 184v479h152v-473q0 -63 19.5 -90t57.5 -27q27 0 44 11.5t25.5 37.5t8.5 69v472h151v-476zM309 930q9 -20 24 -49t30.5 -55.5t25.5 -42.5v-13h-105l-31.5 31.5t-40.5 42t-39 43t-28 34.5v9h164z" />
    <glyph glyph-name="Uacute" unicode="&#xda;" horiz-adv-x="574" 
d="M516 238q0 -82 -26.5 -137.5t-77.5 -83t-126 -27.5q-110 0 -169 61t-59 184v479h152v-473q0 -63 19.5 -90t57.5 -27q27 0 44 11.5t25.5 37.5t8.5 69v472h151v-476zM450 921q-10 -14 -26.5 -33t-35.5 -40t-39 -41t-38 -37h-105v13q17 27 31.5 52t26.5 49t22 46h164v-9z
" />
    <glyph glyph-name="Ucircumflex" unicode="&#xdb;" horiz-adv-x="574" 
d="M516 238q0 -82 -26.5 -137.5t-77.5 -83t-126 -27.5q-110 0 -169 61t-59 184v479h152v-473q0 -63 19.5 -90t57.5 -27q27 0 44 11.5t25.5 37.5t8.5 69v472h151v-476zM353 930q12 -22 26.5 -46t32 -49.5t36.5 -51.5v-13h-88q-16 14 -34.5 33t-38.5 44q-22 -25 -40 -45
t-32 -32h-89v13q15 19 33.5 46.5t35.5 55t26 45.5h132z" />
    <glyph glyph-name="Udieresis" unicode="&#xdc;" horiz-adv-x="574" 
d="M516 238q0 -82 -26.5 -137.5t-77.5 -83t-126 -27.5q-110 0 -169 61t-59 184v479h152v-473q0 -63 19.5 -90t57.5 -27q27 0 44 11.5t25.5 37.5t8.5 69v472h151v-476zM127 849q0 35 18 53.5t47 18.5q31 0 49 -19t18 -53q0 -32 -18 -51t-49 -19q-29 0 -47 18.5t-18 51.5z
M314 849q0 35 18 53.5t48 18.5q31 0 48.5 -19t17.5 -53q0 -32 -17.5 -51t-49.5 -19q-30 0 -47.5 19t-17.5 51z" />
    <glyph glyph-name="Yacute" unicode="&#xdd;" horiz-adv-x="498" 
d="M250 438l91 276h157l-173 -439v-275h-152v270l-173 444h158zM412 921q-10 -14 -26.5 -33t-35.5 -40t-39 -41t-38 -37h-105v13q17 27 31.5 52t26.5 49t22 46h164v-9z" />
    <glyph glyph-name="Thorn" unicode="&#xde;" horiz-adv-x="487" 
d="M466 383q0 -52 -12.5 -96.5t-38 -78t-66.5 -52.5t-98 -19h-37v-137h-152v714h152v-108h41q107 0 159 -57.5t52 -165.5zM236 266q27 0 44.5 11.5t26.5 37.5t9 66q0 48 -17 71.5t-53 23.5h-32v-210h22z" />
    <glyph glyph-name="germandbls" unicode="&#xdf;" horiz-adv-x="559" 
d="M486 591q0 -37 -9.5 -62.5t-24 -43.5t-29 -31.5t-24.5 -26.5t-10 -30q0 -9 6 -19.5t17.5 -22.5t29.5 -26q29 -23 49.5 -46.5t31 -51.5t10.5 -65q0 -57 -20 -96.5t-58.5 -59.5t-94.5 -20q-29 0 -61 6.5t-61 21.5v136q16 -12 33.5 -21t34.5 -13.5t33 -4.5q25 0 36.5 10.5
t11.5 29.5q0 14 -5.5 26t-19.5 25.5t-40 33.5q-34 26 -51 51t-22.5 49t-5.5 47q0 29 9.5 49.5t24.5 36.5t29.5 31.5t24.5 34t10 43.5t-16.5 43t-51.5 18q-24 0 -40.5 -12.5t-25.5 -38t-9 -64.5v-528h-145v545q0 67 26.5 116.5t76.5 76.5t118 27q62 0 110 -20.5t75 -59.5
t27 -94z" />
    <glyph glyph-name="agrave" unicode="&#xe0;" horiz-adv-x="478" 
d="M255 560q82 0 126.5 -49.5t44.5 -148.5v-362h-106l-23 73h-3q-17 -28 -36.5 -46.5t-44 -27.5t-57.5 -9q-46 0 -74.5 25t-41.5 65t-13 85q0 87 47.5 130.5t136.5 47.5l70 3v18q0 40 -13.5 60t-43.5 20q-23 0 -51.5 -9.5t-63.5 -30.5l-39 108q39 23 86 35.5t99 12.5z
M247 249q-37 -2 -56 -21.5t-19 -56.5q0 -33 11.5 -49t33.5 -16q28 0 46 26t18 69v50zM269 766q9 -20 24 -49t30.5 -55.5t25.5 -42.5v-13h-105l-31.5 31.5t-40.5 42t-39 43t-28 34.5v9h164z" />
    <glyph glyph-name="aacute" unicode="&#xe1;" horiz-adv-x="478" 
d="M255 560q82 0 126.5 -49.5t44.5 -148.5v-362h-106l-23 73h-3q-17 -28 -36.5 -46.5t-44 -27.5t-57.5 -9q-46 0 -74.5 25t-41.5 65t-13 85q0 87 47.5 130.5t136.5 47.5l70 3v18q0 40 -13.5 60t-43.5 20q-23 0 -51.5 -9.5t-63.5 -30.5l-39 108q39 23 86 35.5t99 12.5z
M247 249q-37 -2 -56 -21.5t-19 -56.5q0 -33 11.5 -49t33.5 -16q28 0 46 26t18 69v50zM411 757q-10 -14 -26.5 -33t-35.5 -40t-39 -41t-38 -37h-105v13q17 27 31.5 52t26.5 49t22 46h164v-9z" />
    <glyph glyph-name="acircumflex" unicode="&#xe2;" horiz-adv-x="478" 
d="M255 560q82 0 126.5 -49.5t44.5 -148.5v-362h-106l-23 73h-3q-17 -28 -36.5 -46.5t-44 -27.5t-57.5 -9q-46 0 -74.5 25t-41.5 65t-13 85q0 87 47.5 130.5t136.5 47.5l70 3v18q0 40 -13.5 60t-43.5 20q-23 0 -51.5 -9.5t-63.5 -30.5l-39 108q39 23 86 35.5t99 12.5z
M247 249q-37 -2 -56 -21.5t-19 -56.5q0 -33 11.5 -49t33.5 -16q28 0 46 26t18 69v50zM314 766q12 -22 26.5 -46t32 -49.5t36.5 -51.5v-13h-88q-16 14 -34.5 33t-38.5 44q-22 -25 -40 -45t-32 -32h-89v13q15 19 33.5 46.5t35.5 55t26 45.5h132z" />
    <glyph glyph-name="atilde" unicode="&#xe3;" horiz-adv-x="478" 
d="M255 560q82 0 126.5 -49.5t44.5 -148.5v-362h-106l-23 73h-3q-17 -28 -36.5 -46.5t-44 -27.5t-57.5 -9q-46 0 -74.5 25t-41.5 65t-13 85q0 87 47.5 130.5t136.5 47.5l70 3v18q0 40 -13.5 60t-43.5 20q-23 0 -51.5 -9.5t-63.5 -30.5l-39 108q39 23 86 35.5t99 12.5z
M247 249q-37 -2 -56 -21.5t-19 -56.5q0 -33 11.5 -49t33.5 -16q28 0 46 26t18 69v50zM80 605q1 23 4 50t12 51.5t26.5 40t45.5 15.5q20 0 38.5 -7.5t36 -17.5t34 -17t32.5 -7q14 0 20 13t10 37h77q0 -77 -26 -117t-63 -40q-19 0 -39 7t-38 17t-34 17.5t-28 7.5
q-9 0 -18.5 -11.5t-12.5 -38.5h-77z" />
    <glyph glyph-name="adieresis" unicode="&#xe4;" horiz-adv-x="478" 
d="M255 560q82 0 126.5 -49.5t44.5 -148.5v-362h-106l-23 73h-3q-17 -28 -36.5 -46.5t-44 -27.5t-57.5 -9q-46 0 -74.5 25t-41.5 65t-13 85q0 87 47.5 130.5t136.5 47.5l70 3v18q0 40 -13.5 60t-43.5 20q-23 0 -51.5 -9.5t-63.5 -30.5l-39 108q39 23 86 35.5t99 12.5z
M247 249q-37 -2 -56 -21.5t-19 -56.5q0 -33 11.5 -49t33.5 -16q28 0 46 26t18 69v50zM88 685q0 35 18 53.5t47 18.5q31 0 49 -19t18 -53q0 -32 -18 -51t-49 -19q-29 0 -47 18.5t-18 51.5zM275 685q0 35 18 53.5t48 18.5q31 0 48.5 -19t17.5 -53q0 -32 -17.5 -51t-49.5 -19
q-30 0 -47.5 19t-17.5 51z" />
    <glyph glyph-name="aring" unicode="&#xe5;" horiz-adv-x="478" 
d="M255 560q82 0 126.5 -49.5t44.5 -148.5v-362h-106l-23 73h-3q-17 -28 -36.5 -46.5t-44 -27.5t-57.5 -9q-46 0 -74.5 25t-41.5 65t-13 85q0 87 47.5 130.5t136.5 47.5l70 3v18q0 40 -13.5 60t-43.5 20q-23 0 -51.5 -9.5t-63.5 -30.5l-39 108q39 23 86 35.5t99 12.5z
M247 249q-37 -2 -56 -21.5t-19 -56.5q0 -33 11.5 -49t33.5 -16q28 0 46 26t18 69v50zM248 605q-54 0 -87 33.5t-33 84.5q0 53 33 86t87 33q53 0 86.5 -33.5t33.5 -84.5q0 -50 -33 -84.5t-87 -34.5zM248 681q19 0 31.5 12t12.5 31t-12.5 31t-31.5 12q-18 0 -30.5 -12
t-12.5 -31t11 -31t32 -12z" />
    <glyph glyph-name="ae" unicode="&#xe6;" horiz-adv-x="709" 
d="M482 559q65 0 108.5 -30t65.5 -85.5t22 -134.5v-78h-261q0 -64 24 -94.5t74 -30.5q37 0 69 10t68 32v-119q-34 -20 -71 -29.5t-83 -9.5q-36 0 -69.5 10t-60 30t-44.5 51q-20 -30 -44 -50.5t-51.5 -30.5t-59.5 -10q-50 0 -81 25t-46 65t-15 85q0 58 21.5 96.5t62.5 59
t100 22.5l70 3v18q0 40 -14 60t-43 20q-23 0 -51.5 -9.5t-63.5 -30.5l-39 108q37 23 80.5 35.5t87.5 12.5q42 0 71.5 -13.5t48.5 -40.5q22 27 52.5 40t71.5 13zM247 249q-37 -2 -56 -21.5t-19 -56.5q0 -33 11.5 -49t33.5 -16q19 0 33 11.5t22.5 33.5t8.5 50v50zM482 446
q-28 0 -46 -26t-19 -86h127q0 37 -7.5 62t-21.5 37.5t-33 12.5z" />
    <glyph glyph-name="ccedilla" unicode="&#xe7;" horiz-adv-x="415" 
d="M247 -10q-71 0 -118.5 30.5t-71 93t-23.5 158.5q0 82 23 147t70.5 103t121.5 38q44 0 78.5 -10t64.5 -29l-39 -116q-23 16 -46 23t-47 7q-25 0 -42.5 -18.5t-27 -54.5t-9.5 -90q0 -52 9.5 -87.5t27.5 -53t45 -17.5q30 0 59 11.5t58 32.5v-123q-28 -23 -62 -34t-71 -11z
M349 -128q0 -52 -32.5 -82t-93.5 -30q-24 0 -43.5 2t-36.5 6v83q15 -4 28 -6t24 -2q21 0 31.5 8.5t10.5 24.5q0 18 -18 29t-50 13l34 82h71l-16 -37q29 -5 49 -17t31 -31t11 -43z" />
    <glyph glyph-name="egrave" unicode="&#xe8;" horiz-adv-x="469" 
d="M240 559q63 0 108 -30t68 -85.5t23 -134.5v-78h-263q1 -64 25.5 -94t74.5 -30q36 0 68 9.5t68 31.5v-119q-34 -20 -73 -29.5t-84 -9.5q-77 0 -126 33.5t-72 96.5t-23 152q0 92 23 156t69 97.5t114 33.5zM243 446q-29 0 -47 -25.5t-19 -86.5h127q0 37 -7.5 62t-20.5 37.5
t-33 12.5zM261 766q9 -20 24 -49t30.5 -55.5t25.5 -42.5v-13h-105l-31.5 31.5t-40.5 42t-39 43t-28 34.5v9h164z" />
    <glyph glyph-name="eacute" unicode="&#xe9;" horiz-adv-x="469" 
d="M240 559q63 0 108 -30t68 -85.5t23 -134.5v-78h-263q1 -64 25.5 -94t74.5 -30q36 0 68 9.5t68 31.5v-119q-34 -20 -73 -29.5t-84 -9.5q-77 0 -126 33.5t-72 96.5t-23 152q0 92 23 156t69 97.5t114 33.5zM243 446q-29 0 -47 -25.5t-19 -86.5h127q0 37 -7.5 62t-20.5 37.5
t-33 12.5zM402 757q-10 -14 -26.5 -33t-35.5 -40t-39 -41t-38 -37h-105v13q17 27 31.5 52t26.5 49t22 46h164v-9z" />
    <glyph glyph-name="ecircumflex" unicode="&#xea;" horiz-adv-x="469" 
d="M240 559q63 0 108 -30t68 -85.5t23 -134.5v-78h-263q1 -64 25.5 -94t74.5 -30q36 0 68 9.5t68 31.5v-119q-34 -20 -73 -29.5t-84 -9.5q-77 0 -126 33.5t-72 96.5t-23 152q0 92 23 156t69 97.5t114 33.5zM243 446q-29 0 -47 -25.5t-19 -86.5h127q0 37 -7.5 62t-20.5 37.5
t-33 12.5zM305 766q12 -22 26.5 -46t32 -49.5t36.5 -51.5v-13h-88q-16 14 -34.5 33t-38.5 44q-22 -25 -40 -45t-32 -32h-89v13q15 19 33.5 46.5t35.5 55t26 45.5h132z" />
    <glyph glyph-name="edieresis" unicode="&#xeb;" horiz-adv-x="469" 
d="M240 559q63 0 108 -30t68 -85.5t23 -134.5v-78h-263q1 -64 25.5 -94t74.5 -30q36 0 68 9.5t68 31.5v-119q-34 -20 -73 -29.5t-84 -9.5q-77 0 -126 33.5t-72 96.5t-23 152q0 92 23 156t69 97.5t114 33.5zM243 446q-29 0 -47 -25.5t-19 -86.5h127q0 37 -7.5 62t-20.5 37.5
t-33 12.5zM79 685q0 35 18 53.5t47 18.5q31 0 49 -19t18 -53q0 -32 -18 -51t-49 -19q-29 0 -47 18.5t-18 51.5zM266 685q0 35 18 53.5t48 18.5q31 0 48.5 -19t17.5 -53q0 -32 -17.5 -51t-49.5 -19q-30 0 -47.5 19t-17.5 51z" />
    <glyph glyph-name="igrave" unicode="&#xec;" horiz-adv-x="254" 
d="M199 0h-145v550h145v-550zM148 766q9 -20 24 -49t30.5 -55.5t25.5 -42.5v-13h-105l-31.5 31.5t-40.5 42t-39 43t-28 34.5v9h164z" />
    <glyph glyph-name="iacute" unicode="&#xed;" horiz-adv-x="254" 
d="M199 0h-145v550h145v-550zM289 757q-10 -14 -26.5 -33t-35.5 -40t-39 -41t-38 -37h-105v13q17 27 31.5 52t26.5 49t22 46h164v-9z" />
    <glyph glyph-name="icircumflex" unicode="&#xee;" horiz-adv-x="254" 
d="M199 0h-145v550h145v-550zM192 766q12 -22 26.5 -46t32 -49.5t36.5 -51.5v-13h-88q-16 14 -34.5 33t-38.5 44q-22 -25 -40 -45t-32 -32h-89v13q15 19 33.5 46.5t35.5 55t26 45.5h132z" />
    <glyph glyph-name="idieresis" unicode="&#xef;" horiz-adv-x="254" 
d="M199 0h-145v550h145v-550zM-34 685q0 35 18 53.5t47 18.5q31 0 49 -19t18 -53q0 -32 -18 -51t-49 -19q-29 0 -47 18.5t-18 51.5zM153 685q0 35 18 53.5t48 18.5q31 0 48.5 -19t17.5 -53q0 -32 -17.5 -51t-49.5 -19q-30 0 -47.5 19t-17.5 51z" />
    <glyph glyph-name="eth" unicode="&#xf0;" horiz-adv-x="501" 
d="M198 767q19 -10 39 -23.5t41 -30.5l68 54l55 -68l-59 -47q39 -44 66.5 -98t43 -122t15.5 -158q0 -89 -25.5 -153t-74 -97.5t-118.5 -33.5q-66 0 -114.5 31.5t-74.5 88.5t-26 132q0 79 26.5 134.5t70.5 85t96 29.5q13 0 24.5 -2t22 -6t19.5 -10l2 2q-6 25 -19 49.5
t-31 48.5l-61 -49l-55 68l62 49q-13 13 -27.5 24.5t-28.5 21.5zM251 368q-24 0 -39.5 -14t-23 -42.5t-7.5 -72.5q0 -39 7.5 -68t23 -44t39.5 -15q38 0 53.5 32.5t15.5 97.5q0 30 -4 53.5t-12 39.5t-21 24.5t-32 8.5z" />
    <glyph glyph-name="ntilde" unicode="&#xf1;" horiz-adv-x="514" 
d="M314 560q70 0 109 -51.5t39 -147.5v-361h-145v317q0 56 -10.5 85t-41.5 29q-38 0 -52.5 -38.5t-14.5 -134.5v-258h-145v550h114l16 -69h9q12 26 30 43.5t41 26.5t51 9zM99 605q1 23 4 50t12 51.5t26.5 40t45.5 15.5q20 0 38.5 -7.5t36 -17.5t34 -17t32.5 -7q14 0 20 13
t10 37h77q0 -77 -26 -117t-63 -40q-19 0 -39 7t-38 17t-34 17.5t-28 7.5q-9 0 -18.5 -11.5t-12.5 -38.5h-77z" />
    <glyph glyph-name="ograve" unicode="&#xf2;" horiz-adv-x="501" 
d="M466 276q0 -55 -11.5 -106.5t-36.5 -92t-66.5 -64t-101.5 -23.5q-56 0 -97 23t-67 63.5t-39 92t-13 107.5q0 82 22.5 146t70.5 101t124 37q66 0 114 -33t74.5 -96.5t26.5 -154.5zM181 274q0 -53 7.5 -89.5t23 -54.5t38.5 -18q26 0 40.5 18t21.5 55t7 91q0 55 -7 91
t-21.5 53.5t-39.5 17.5q-37 0 -53.5 -40t-16.5 -124zM272 766q9 -20 24 -49t30.5 -55.5t25.5 -42.5v-13h-105l-31.5 31.5t-40.5 42t-39 43t-28 34.5v9h164z" />
    <glyph glyph-name="oacute" unicode="&#xf3;" horiz-adv-x="501" 
d="M466 276q0 -55 -11.5 -106.5t-36.5 -92t-66.5 -64t-101.5 -23.5q-56 0 -97 23t-67 63.5t-39 92t-13 107.5q0 82 22.5 146t70.5 101t124 37q66 0 114 -33t74.5 -96.5t26.5 -154.5zM181 274q0 -53 7.5 -89.5t23 -54.5t38.5 -18q26 0 40.5 18t21.5 55t7 91q0 55 -7 91
t-21.5 53.5t-39.5 17.5q-37 0 -53.5 -40t-16.5 -124zM413 757q-10 -14 -26.5 -33t-35.5 -40t-39 -41t-38 -37h-105v13q17 27 31.5 52t26.5 49t22 46h164v-9z" />
    <glyph glyph-name="ocircumflex" unicode="&#xf4;" horiz-adv-x="501" 
d="M466 276q0 -55 -11.5 -106.5t-36.5 -92t-66.5 -64t-101.5 -23.5q-56 0 -97 23t-67 63.5t-39 92t-13 107.5q0 82 22.5 146t70.5 101t124 37q66 0 114 -33t74.5 -96.5t26.5 -154.5zM181 274q0 -53 7.5 -89.5t23 -54.5t38.5 -18q26 0 40.5 18t21.5 55t7 91q0 55 -7 91
t-21.5 53.5t-39.5 17.5q-37 0 -53.5 -40t-16.5 -124zM317 766q12 -22 26.5 -46t32 -49.5t36.5 -51.5v-13h-88q-16 14 -34.5 33t-38.5 44q-22 -25 -40 -45t-32 -32h-89v13q15 19 33.5 46.5t35.5 55t26 45.5h132z" />
    <glyph glyph-name="otilde" unicode="&#xf5;" horiz-adv-x="501" 
d="M466 276q0 -55 -11.5 -106.5t-36.5 -92t-66.5 -64t-101.5 -23.5q-56 0 -97 23t-67 63.5t-39 92t-13 107.5q0 82 22.5 146t70.5 101t124 37q66 0 114 -33t74.5 -96.5t26.5 -154.5zM181 274q0 -53 7.5 -89.5t23 -54.5t38.5 -18q26 0 40.5 18t21.5 55t7 91q0 55 -7 91
t-21.5 53.5t-39.5 17.5q-37 0 -53.5 -40t-16.5 -124zM83 605q1 23 4 50t12 51.5t26.5 40t45.5 15.5q20 0 38.5 -7.5t36 -17.5t34 -17t32.5 -7q14 0 20 13t10 37h77q0 -77 -26 -117t-63 -40q-19 0 -39 7t-38 17t-34 17.5t-28 7.5q-9 0 -18.5 -11.5t-12.5 -38.5h-77z" />
    <glyph glyph-name="odieresis" unicode="&#xf6;" horiz-adv-x="501" 
d="M466 276q0 -55 -11.5 -106.5t-36.5 -92t-66.5 -64t-101.5 -23.5q-56 0 -97 23t-67 63.5t-39 92t-13 107.5q0 82 22.5 146t70.5 101t124 37q66 0 114 -33t74.5 -96.5t26.5 -154.5zM181 274q0 -53 7.5 -89.5t23 -54.5t38.5 -18q26 0 40.5 18t21.5 55t7 91q0 55 -7 91
t-21.5 53.5t-39.5 17.5q-37 0 -53.5 -40t-16.5 -124zM90 685q0 35 18 53.5t47 18.5q31 0 49 -19t18 -53q0 -32 -18 -51t-49 -19q-29 0 -47 18.5t-18 51.5zM277 685q0 35 18 53.5t48 18.5q31 0 48.5 -19t17.5 -53q0 -32 -17.5 -51t-49.5 -19q-30 0 -47.5 19t-17.5 51z" />
    <glyph glyph-name="divide" unicode="&#xf7;" horiz-adv-x="485" 
d="M33 294v118h419v-118h-419zM243 78q-34 0 -54 21t-20 60t19 60t55 21q35 0 53.5 -21t18.5 -60q0 -38 -19 -59.5t-53 -21.5zM243 465q-34 0 -54 21t-20 60t19 60t55 21q35 0 53.5 -21t18.5 -60t-19 -60t-53 -21z" />
    <glyph glyph-name="oslash" unicode="&#xf8;" horiz-adv-x="501" 
d="M466 276q0 -89 -25.5 -153.5t-73.5 -98.5t-118 -34q-24 0 -45.5 5t-41.5 15l-33 -69l-71 33l42 84q-35 45 -50.5 98t-15.5 120q0 135 57 209.5t160 74.5q26 0 47.5 -5.5t40.5 -16.5l29 57l70 -33l-35 -72q31 -37 47 -92t16 -122zM174 274q0 -20 1 -38.5t3 -33.5l114 227
q-8 9 -18.5 13t-23.5 4q-40 0 -58 -42.5t-18 -129.5zM327 276q0 20 -1 37t-2 31l-113 -226q8 -7 17.5 -11t21.5 -4q29 0 46 19.5t24 58.5t7 95z" />
    <glyph glyph-name="ugrave" unicode="&#xf9;" horiz-adv-x="514" 
d="M461 550v-550h-113l-17 69h-8q-12 -26 -30 -43.5t-40.5 -26.5t-51.5 -9q-48 0 -81.5 24t-50.5 69t-17 108v359h145v-313q0 -58 11 -88t37 -30q31 0 46 18.5t20 53.5t5 83v276h145zM279 766q9 -20 24 -49t30.5 -55.5t25.5 -42.5v-13h-105l-31.5 31.5t-40.5 42t-39 43
t-28 34.5v9h164z" />
    <glyph glyph-name="uacute" unicode="&#xfa;" horiz-adv-x="514" 
d="M461 550v-550h-113l-17 69h-8q-12 -26 -30 -43.5t-40.5 -26.5t-51.5 -9q-48 0 -81.5 24t-50.5 69t-17 108v359h145v-313q0 -58 11 -88t37 -30q31 0 46 18.5t20 53.5t5 83v276h145zM420 757q-10 -14 -26.5 -33t-35.5 -40t-39 -41t-38 -37h-105v13q17 27 31.5 52t26.5 49
t22 46h164v-9z" />
    <glyph glyph-name="ucircumflex" unicode="&#xfb;" horiz-adv-x="514" 
d="M461 550v-550h-113l-17 69h-8q-12 -26 -30 -43.5t-40.5 -26.5t-51.5 -9q-48 0 -81.5 24t-50.5 69t-17 108v359h145v-313q0 -58 11 -88t37 -30q31 0 46 18.5t20 53.5t5 83v276h145zM324 766q12 -22 26.5 -46t32 -49.5t36.5 -51.5v-13h-88q-16 14 -34.5 33t-38.5 44
q-22 -25 -40 -45t-32 -32h-89v13q15 19 33.5 46.5t35.5 55t26 45.5h132z" />
    <glyph glyph-name="udieresis" unicode="&#xfc;" horiz-adv-x="514" 
d="M461 550v-550h-113l-17 69h-8q-12 -26 -30 -43.5t-40.5 -26.5t-51.5 -9q-48 0 -81.5 24t-50.5 69t-17 108v359h145v-313q0 -58 11 -88t37 -30q31 0 46 18.5t20 53.5t5 83v276h145zM97 685q0 35 18 53.5t47 18.5q31 0 49 -19t18 -53q0 -32 -18 -51t-49 -19q-29 0 -47 18.5
t-18 51.5zM284 685q0 35 18 53.5t48 18.5q31 0 48.5 -19t17.5 -53q0 -32 -17.5 -51t-49.5 -19q-30 0 -47.5 19t-17.5 51z" />
    <glyph glyph-name="yacute" unicode="&#xfd;" horiz-adv-x="466" 
d="M3 550h151l61 -254q5 -17 8.5 -34.5t6.5 -34t3 -30.5h4q2 19 7 42.5t12 55.5l57 255h150l-165 -595q-19 -70 -45 -113.5t-61.5 -62.5t-82.5 -19q-17 0 -33.5 2t-32.5 6v127q10 -3 20 -4.5t20 -1.5q20 0 32 7.5t22 28t21 60.5l6 22zM396 757q-10 -14 -26.5 -33t-35.5 -40
t-39 -41t-38 -37h-105v13q17 27 31.5 52t26.5 49t22 46h164v-9z" />
    <glyph glyph-name="thorn" unicode="&#xfe;" horiz-adv-x="511" 
d="M477 273q0 -88 -19.5 -151.5t-55 -97.5t-83.5 -34q-25 0 -47.5 9t-41 27t-32.5 46h-4q2 -23 3 -42t1.5 -33t0.5 -24v-213h-146v1000h145v-176q0 -27 -1 -53t-3 -53h4q18 33 35 51t37.5 24.5t44.5 6.5q77 0 119.5 -75.5t42.5 -211.5zM330 272q0 85 -16 125.5t-46 40.5
q-37 0 -53.5 -35.5t-16.5 -115.5v-29q0 -74 16.5 -108.5t52.5 -34.5q23 0 37 18.5t20 53.5t6 85z" />
    <glyph glyph-name="ydieresis" unicode="&#xff;" horiz-adv-x="466" 
d="M3 550h151l61 -254q5 -17 8.5 -34.5t6.5 -34t3 -30.5h4q2 19 7 42.5t12 55.5l57 255h150l-165 -595q-19 -70 -45 -113.5t-61.5 -62.5t-82.5 -19q-17 0 -33.5 2t-32.5 6v127q10 -3 20 -4.5t20 -1.5q20 0 32 7.5t22 28t21 60.5l6 22zM73 685q0 35 18 53.5t47 18.5
q31 0 49 -19t18 -53q0 -32 -18 -51t-49 -19q-29 0 -47 18.5t-18 51.5zM260 685q0 35 18 53.5t48 18.5q31 0 48.5 -19t17.5 -53q0 -32 -17.5 -51t-49.5 -19q-30 0 -47.5 19t-17.5 51z" />
    <glyph glyph-name="Amacron" unicode="&#x100;" horiz-adv-x="548" 
d="M386 0l-33 157h-157l-32 -157h-164l173 714h199l176 -714h-162zM295 464q-4 25 -7.5 49t-6.5 45.5t-6 40.5q-2 -18 -5 -39.5t-7 -45t-9 -48.5l-35 -178h111zM418 888v-105h-286v105h286z" />
    <glyph glyph-name="amacron" unicode="&#x101;" horiz-adv-x="478" 
d="M255 560q82 0 126.5 -49.5t44.5 -148.5v-362h-106l-23 73h-3q-17 -28 -36.5 -46.5t-44 -27.5t-57.5 -9q-46 0 -74.5 25t-41.5 65t-13 85q0 87 47.5 130.5t136.5 47.5l70 3v18q0 40 -13.5 60t-43.5 20q-23 0 -51.5 -9.5t-63.5 -30.5l-39 108q39 23 86 35.5t99 12.5z
M247 249q-37 -2 -56 -21.5t-19 -56.5q0 -33 11.5 -49t33.5 -16q28 0 46 26t18 69v50zM391 724v-105h-286v105h286z" />
    <glyph glyph-name="Abreve" unicode="&#x102;" horiz-adv-x="548" 
d="M386 0l-33 157h-157l-32 -157h-164l173 714h199l176 -714h-162zM295 464q-4 25 -7.5 49t-6.5 45.5t-6 40.5q-2 -18 -5 -39.5t-7 -45t-9 -48.5l-35 -178h111zM425 941q0 -52 -20 -90.5t-54.5 -59t-77.5 -20.5q-66 0 -107.5 43t-42.5 127h86q2 -24 9.5 -39t21 -22.5
t33.5 -7.5t34.5 6.5t23 22t9.5 40.5h85z" />
    <glyph glyph-name="abreve" unicode="&#x103;" horiz-adv-x="478" 
d="M255 560q82 0 126.5 -49.5t44.5 -148.5v-362h-106l-23 73h-3q-17 -28 -36.5 -46.5t-44 -27.5t-57.5 -9q-46 0 -74.5 25t-41.5 65t-13 85q0 87 47.5 130.5t136.5 47.5l70 3v18q0 40 -13.5 60t-43.5 20q-23 0 -51.5 -9.5t-63.5 -30.5l-39 108q39 23 86 35.5t99 12.5z
M247 249q-37 -2 -56 -21.5t-19 -56.5q0 -33 11.5 -49t33.5 -16q28 0 46 26t18 69v50zM398 777q0 -52 -20 -90.5t-54.5 -59t-77.5 -20.5q-66 0 -107.5 43t-42.5 127h86q2 -24 9.5 -39t21 -22.5t33.5 -7.5t34.5 6.5t23 22t9.5 40.5h85z" />
    <glyph glyph-name="Aogonek" unicode="&#x104;" horiz-adv-x="548" 
d="M386 0l-33 157h-157l-32 -157h-164l173 714h199l176 -714h-162zM295 464q-4 25 -7.5 49t-6.5 45.5t-6 40.5q-2 -18 -5 -39.5t-7 -45t-9 -48.5l-35 -178h111zM431 -98q0 -17 11 -29.5t30 -12.5q14 0 22.5 3t15.5 7v-93q-11 -5 -29 -9.5t-40 -4.5q-61 0 -91 28.5t-30 78.5
q0 24 8.5 48.5t28 49.5t50.5 48l76 -16q-32 -34 -42 -54.5t-10 -43.5z" />
    <glyph glyph-name="aogonek" unicode="&#x105;" horiz-adv-x="478" 
d="M255 560q82 0 126.5 -49.5t44.5 -148.5v-362h-106l-23 73h-3q-17 -28 -36.5 -46.5t-44 -27.5t-57.5 -9q-46 0 -74.5 25t-41.5 65t-13 85q0 87 47.5 130.5t136.5 47.5l70 3v18q0 40 -13.5 60t-43.5 20q-23 0 -51.5 -9.5t-63.5 -30.5l-39 108q39 23 86 35.5t99 12.5z
M247 249q-37 -2 -56 -21.5t-19 -56.5q0 -33 11.5 -49t33.5 -16q28 0 46 26t18 69v50zM361 -98q0 -17 11 -29.5t30 -12.5q14 0 22.5 3t15.5 7v-93q-11 -5 -29 -9.5t-40 -4.5q-61 0 -91 28.5t-30 78.5q0 24 8.5 48.5t28 49.5t50.5 48l76 -16q-32 -34 -42 -54.5t-10 -43.5z" />
    <glyph glyph-name="Cacute" unicode="&#x106;" horiz-adv-x="494" 
d="M314 593q-28 0 -49.5 -17t-36 -49t-22 -75.5t-7.5 -96.5q0 -76 14.5 -128t41.5 -78.5t67 -26.5q33 0 64 12t62 29v-136q-33 -18 -70 -27.5t-80 -9.5q-82 0 -139.5 42.5t-87.5 124t-30 199.5q0 81 18 148t51 116.5t81.5 76.5t110.5 27q45 0 86.5 -11t81.5 -36l-42 -125
q-27 19 -54.5 30t-59.5 11zM453 921q-10 -14 -26.5 -33t-35.5 -40t-39 -41t-38 -37h-105v13q17 27 31.5 52t26.5 49t22 46h164v-9z" />
    <glyph glyph-name="cacute" unicode="&#x107;" horiz-adv-x="415" 
d="M247 -10q-71 0 -118.5 30.5t-71 93t-23.5 158.5q0 82 23 147t70.5 103t121.5 38q44 0 78.5 -10t64.5 -29l-39 -116q-23 16 -46 23t-47 7q-25 0 -42.5 -18.5t-27 -54.5t-9.5 -90q0 -52 9.5 -87.5t27.5 -53t45 -17.5q30 0 59 11.5t58 32.5v-123q-28 -23 -62 -34t-71 -11z
M402 757q-10 -14 -26.5 -33t-35.5 -40t-39 -41t-38 -37h-105v13q17 27 31.5 52t26.5 49t22 46h164v-9z" />
    <glyph glyph-name="Ccircumflex" unicode="&#x108;" horiz-adv-x="494" 
d="M314 593q-28 0 -49.5 -17t-36 -49t-22 -75.5t-7.5 -96.5q0 -76 14.5 -128t41.5 -78.5t67 -26.5q33 0 64 12t62 29v-136q-33 -18 -70 -27.5t-80 -9.5q-82 0 -139.5 42.5t-87.5 124t-30 199.5q0 81 18 148t51 116.5t81.5 76.5t110.5 27q45 0 86.5 -11t81.5 -36l-42 -125
q-27 19 -54.5 30t-59.5 11zM356 930q12 -22 26.5 -46t32 -49.5t36.5 -51.5v-13h-88q-16 14 -34.5 33t-38.5 44q-22 -25 -40 -45t-32 -32h-89v13q15 19 33.5 46.5t35.5 55t26 45.5h132z" />
    <glyph glyph-name="ccircumflex" unicode="&#x109;" horiz-adv-x="415" 
d="M247 -10q-71 0 -118.5 30.5t-71 93t-23.5 158.5q0 82 23 147t70.5 103t121.5 38q44 0 78.5 -10t64.5 -29l-39 -116q-23 16 -46 23t-47 7q-25 0 -42.5 -18.5t-27 -54.5t-9.5 -90q0 -52 9.5 -87.5t27.5 -53t45 -17.5q30 0 59 11.5t58 32.5v-123q-28 -23 -62 -34t-71 -11z
M305 766q12 -22 26.5 -46t32 -49.5t36.5 -51.5v-13h-88q-16 14 -34.5 33t-38.5 44q-22 -25 -40 -45t-32 -32h-89v13q15 19 33.5 46.5t35.5 55t26 45.5h132z" />
    <glyph glyph-name="Cdotaccent" unicode="&#x10a;" horiz-adv-x="494" 
d="M314 593q-28 0 -49.5 -17t-36 -49t-22 -75.5t-7.5 -96.5q0 -76 14.5 -128t41.5 -78.5t67 -26.5q33 0 64 12t62 29v-136q-33 -18 -70 -27.5t-80 -9.5q-82 0 -139.5 42.5t-87.5 124t-30 199.5q0 81 18 148t51 116.5t81.5 76.5t110.5 27q45 0 86.5 -11t81.5 -36l-42 -125
q-27 19 -54.5 30t-59.5 11zM296 932q41 0 59.5 -20t18.5 -59t-19.5 -58.5t-58.5 -19.5q-38 0 -58 19.5t-20 58.5q0 40 18.5 59.5t59.5 19.5z" />
    <glyph glyph-name="cdotaccent" unicode="&#x10b;" horiz-adv-x="415" 
d="M247 -10q-71 0 -118.5 30.5t-71 93t-23.5 158.5q0 82 23 147t70.5 103t121.5 38q44 0 78.5 -10t64.5 -29l-39 -116q-23 16 -46 23t-47 7q-25 0 -42.5 -18.5t-27 -54.5t-9.5 -90q0 -52 9.5 -87.5t27.5 -53t45 -17.5q30 0 59 11.5t58 32.5v-123q-28 -23 -62 -34t-71 -11z
M245 768q41 0 59.5 -20t18.5 -59t-19.5 -58.5t-58.5 -19.5q-38 0 -58 19.5t-20 58.5q0 40 18.5 59.5t59.5 19.5z" />
    <glyph glyph-name="Ccaron" unicode="&#x10c;" horiz-adv-x="494" 
d="M314 593q-28 0 -49.5 -17t-36 -49t-22 -75.5t-7.5 -96.5q0 -76 14.5 -128t41.5 -78.5t67 -26.5q33 0 64 12t62 29v-136q-33 -18 -70 -27.5t-80 -9.5q-82 0 -139.5 42.5t-87.5 124t-30 199.5q0 81 18 148t51 116.5t81.5 76.5t110.5 27q45 0 86.5 -11t81.5 -36l-42 -125
q-27 19 -54.5 30t-59.5 11zM224 770q-9 19 -26 46.5t-36 55t-33 45.5v13h89q16 -14 34 -33.5t38 -43.5q22 26 39 44t34 33h88v-13q-14 -19 -32 -46t-35 -53.5t-28 -47.5h-132z" />
    <glyph glyph-name="ccaron" unicode="&#x10d;" horiz-adv-x="415" 
d="M247 -10q-71 0 -118.5 30.5t-71 93t-23.5 158.5q0 82 23 147t70.5 103t121.5 38q44 0 78.5 -10t64.5 -29l-39 -116q-23 16 -46 23t-47 7q-25 0 -42.5 -18.5t-27 -54.5t-9.5 -90q0 -52 9.5 -87.5t27.5 -53t45 -17.5q30 0 59 11.5t58 32.5v-123q-28 -23 -62 -34t-71 -11z
M173 606q-9 19 -26 46.5t-36 55t-33 45.5v13h89q16 -14 34 -33.5t38 -43.5q22 26 39 44t34 33h88v-13q-14 -19 -32 -46t-35 -53.5t-28 -47.5h-132z" />
    <glyph glyph-name="Dcaron" unicode="&#x10e;" horiz-adv-x="572" 
d="M531 371q0 -119 -34.5 -202t-100 -126t-159.5 -43h-175v714h186q91 0 153.5 -39.5t96 -116t33.5 -187.5zM374 364q0 77 -14.5 125t-43 70.5t-70.5 22.5h-32v-449h22q71 0 104.5 56.5t33.5 174.5zM217 770q-9 19 -26 46.5t-36 55t-33 45.5v13h89q16 -14 34 -33.5t38 -43.5
q22 26 39 44t34 33h88v-13q-14 -19 -32 -46t-35 -53.5t-28 -47.5h-132z" />
    <glyph glyph-name="dcaron" unicode="&#x10f;" horiz-adv-x="511" 
d="M649 749q-7 -25 -16.5 -51.5t-21.5 -51t-25 -46.5h-96v13q3 12 6 31t6 40t5 41.5t2 34.5h140v-11zM198 -10q-79 0 -121.5 76.5t-42.5 209.5t42.5 208.5t116.5 75.5q26 0 47.5 -8.5t39.5 -26.5t33 -46h5q-2 35 -3.5 59t-1.5 40v182h145v-760h-116l-20 57h-9
q-16 -23 -32.5 -38t-36 -22t-46.5 -7zM243 111q36 0 53 35.5t17 114.5v31q0 74 -16.5 108.5t-53.5 34.5q-31 0 -46.5 -40t-15.5 -118q0 -84 16 -125t46 -41z" />
    <glyph glyph-name="Dcroat" unicode="&#x110;" horiz-adv-x="572" 
d="M248 714q91 0 154 -39.5t96 -115.5t33 -188q0 -119 -34.5 -202t-99.5 -126t-160 -43h-175v313h-58v113h58v288h186zM246 582h-32v-156h74v-113h-74v-180h22q71 0 104.5 56.5t33.5 175.5q0 76 -14.5 124t-43 70.5t-70.5 22.5z" />
    <glyph glyph-name="dcroat" unicode="&#x111;" horiz-adv-x="511" 
d="M198 -10q-79 0 -121.5 74.5t-42.5 202.5q0 129 42.5 201t116.5 72q26 0 47.5 -8.5t39.5 -26.5t33 -45h5q-2 34 -3.5 58.5t-1.5 40.5v23h-85v102h85v76h145v-76h60v-102h-60v-582h-116l-21 57h-8q-16 -23 -33 -38t-36 -22t-46 -7zM243 111q36 0 53 34t17 108v28
q0 69 -16.5 101.5t-53.5 32.5q-31 0 -46.5 -37t-15.5 -111q0 -78 16 -117t46 -39z" />
    <glyph glyph-name="Emacron" unicode="&#x112;" horiz-adv-x="434" 
d="M393 0h-331v714h331v-129h-179v-150h166v-130h-166v-174h179v-131zM370 888v-105h-286v105h286z" />
    <glyph glyph-name="emacron" unicode="&#x113;" horiz-adv-x="469" 
d="M240 559q63 0 108 -30t68 -85.5t23 -134.5v-78h-263q1 -64 25.5 -94t74.5 -30q36 0 68 9.5t68 31.5v-119q-34 -20 -73 -29.5t-84 -9.5q-77 0 -126 33.5t-72 96.5t-23 152q0 92 23 156t69 97.5t114 33.5zM243 446q-29 0 -47 -25.5t-19 -86.5h127q0 37 -7.5 62t-20.5 37.5
t-33 12.5zM382 724v-105h-286v105h286z" />
    <glyph glyph-name="Ebreve" unicode="&#x114;" horiz-adv-x="434" 
d="M393 0h-331v714h331v-129h-179v-150h166v-130h-166v-174h179v-131zM377 941q0 -52 -20 -90.5t-54.5 -59t-77.5 -20.5q-66 0 -107.5 43t-42.5 127h86q2 -24 9.5 -39t21 -22.5t33.5 -7.5t34.5 6.5t23 22t9.5 40.5h85z" />
    <glyph glyph-name="ebreve" unicode="&#x115;" horiz-adv-x="469" 
d="M240 559q63 0 108 -30t68 -85.5t23 -134.5v-78h-263q1 -64 25.5 -94t74.5 -30q36 0 68 9.5t68 31.5v-119q-34 -20 -73 -29.5t-84 -9.5q-77 0 -126 33.5t-72 96.5t-23 152q0 92 23 156t69 97.5t114 33.5zM243 446q-29 0 -47 -25.5t-19 -86.5h127q0 37 -7.5 62t-20.5 37.5
t-33 12.5zM390 777q0 -52 -20 -90.5t-54.5 -59t-77.5 -20.5q-66 0 -107.5 43t-42.5 127h86q2 -24 9.5 -39t21 -22.5t33.5 -7.5t34.5 6.5t23 22t9.5 40.5h85z" />
    <glyph glyph-name="Edotaccent" unicode="&#x116;" horiz-adv-x="434" 
d="M393 0h-331v714h331v-129h-179v-150h166v-130h-166v-174h179v-131zM232 932q41 0 59.5 -20t18.5 -59t-19.5 -58.5t-58.5 -19.5q-38 0 -58 19.5t-20 58.5q0 40 18.5 59.5t59.5 19.5z" />
    <glyph glyph-name="edotaccent" unicode="&#x117;" horiz-adv-x="469" 
d="M240 559q63 0 108 -30t68 -85.5t23 -134.5v-78h-263q1 -64 25.5 -94t74.5 -30q36 0 68 9.5t68 31.5v-119q-34 -20 -73 -29.5t-84 -9.5q-77 0 -126 33.5t-72 96.5t-23 152q0 92 23 156t69 97.5t114 33.5zM243 446q-29 0 -47 -25.5t-19 -86.5h127q0 37 -7.5 62t-20.5 37.5
t-33 12.5zM245 768q41 0 59.5 -20t18.5 -59t-19.5 -58.5t-58.5 -19.5q-38 0 -58 19.5t-20 58.5q0 40 18.5 59.5t59.5 19.5z" />
    <glyph glyph-name="Eogonek" unicode="&#x118;" horiz-adv-x="434" 
d="M393 0h-331v714h331v-129h-179v-150h166v-130h-166v-174h179v-131zM318 -98q0 -17 11 -29.5t30 -12.5q14 0 22.5 3t15.5 7v-93q-11 -5 -29 -9.5t-40 -4.5q-61 0 -91 28.5t-30 78.5q0 24 8.5 48.5t28 49.5t50.5 48l76 -16q-32 -34 -42 -54.5t-10 -43.5z" />
    <glyph glyph-name="eogonek" unicode="&#x119;" horiz-adv-x="469" 
d="M336 -101q0 -18 10.5 -27t25.5 -9q10 0 24.5 3t21.5 7v-97q-17 -7 -38.5 -9.5t-39.5 -2.5q-60 0 -87.5 29t-27.5 79q0 24 8 45.5t25 42.5t43 41l111 28q-29 -30 -46 -54t-23.5 -42.5t-6.5 -33.5zM240 559q63 0 108 -30t68 -85.5t23 -134.5v-78h-263q1 -64 25.5 -94
t74.5 -30q36 0 68 9.5t68 31.5v-119q-34 -20 -73 -29.5t-84 -9.5q-77 0 -126 33.5t-72 96.5t-23 152q0 92 23 156t69 97.5t114 33.5zM243 446q-29 0 -47 -25.5t-19 -86.5h127q0 37 -7.5 62t-20.5 37.5t-33 12.5z" />
    <glyph glyph-name="Ecaron" unicode="&#x11a;" horiz-adv-x="434" 
d="M393 0h-331v714h331v-129h-179v-150h166v-130h-166v-174h179v-131zM160 770q-9 19 -26 46.5t-36 55t-33 45.5v13h89q16 -14 34 -33.5t38 -43.5q22 26 39 44t34 33h88v-13q-14 -19 -32 -46t-35 -53.5t-28 -47.5h-132z" />
    <glyph glyph-name="ecaron" unicode="&#x11b;" horiz-adv-x="469" 
d="M240 559q63 0 108 -30t68 -85.5t23 -134.5v-78h-263q1 -64 25.5 -94t74.5 -30q36 0 68 9.5t68 31.5v-119q-34 -20 -73 -29.5t-84 -9.5q-77 0 -126 33.5t-72 96.5t-23 152q0 92 23 156t69 97.5t114 33.5zM243 446q-29 0 -47 -25.5t-19 -86.5h127q0 37 -7.5 62t-20.5 37.5
t-33 12.5zM173 606q-9 19 -26 46.5t-36 55t-33 45.5v13h89q16 -14 34 -33.5t38 -43.5q22 26 39 44t34 33h88v-13q-14 -19 -32 -46t-35 -53.5t-28 -47.5h-132z" />
    <glyph glyph-name="Gcircumflex" unicode="&#x11c;" horiz-adv-x="583" 
d="M298 409h235v-378q-53 -21 -108 -31t-113 -10q-88 0 -148.5 44t-91.5 127t-31 198q0 113 35 194.5t102.5 126t162.5 44.5q54 0 100 -12.5t81 -32.5l-43 -125q-30 20 -63.5 29.5t-68.5 9.5q-49 0 -82 -27.5t-49.5 -81t-16.5 -129.5q0 -73 13.5 -125.5t40.5 -80t68 -27.5
q17 0 32.5 2.5t29.5 7.5v149h-85v128zM391 930q12 -22 26.5 -46t32 -49.5t36.5 -51.5v-13h-88q-16 14 -34.5 33t-38.5 44q-22 -25 -40 -45t-32 -32h-89v13q15 19 33.5 46.5t35.5 55t26 45.5h132z" />
    <glyph glyph-name="gcircumflex" unicode="&#x11d;" horiz-adv-x="511" 
d="M198 560q39 0 65.5 -17.5t49.5 -62.5h8l12 70h125v-512q0 -90 -25.5 -152t-79 -94t-139.5 -32q-46 0 -83.5 10t-71.5 30v126q42 -23 78.5 -32.5t72.5 -9.5q47 0 75 23t28 79v8q0 17 1.5 39t3.5 39h-5q-22 -43 -50 -62.5t-70 -19.5q-74 0 -116.5 74.5t-42.5 206.5
q0 136 43.5 212.5t120.5 76.5zM242 435q-19 0 -33 -18t-21 -55t-7 -93q0 -78 16 -116t47 -38q18 0 31 8.5t21.5 25.5t12.5 43t4 62v28q0 54 -7.5 88t-22.5 49.5t-41 15.5zM330 766q12 -22 26.5 -46t32 -49.5t36.5 -51.5v-13h-88q-16 14 -34.5 33t-38.5 44q-22 -25 -40 -45
t-32 -32h-89v13q15 19 33.5 46.5t35.5 55t26 45.5h132z" />
    <glyph glyph-name="Gbreve" unicode="&#x11e;" horiz-adv-x="583" 
d="M298 409h235v-378q-53 -21 -108 -31t-113 -10q-88 0 -148.5 44t-91.5 127t-31 198q0 113 35 194.5t102.5 126t162.5 44.5q54 0 100 -12.5t81 -32.5l-43 -125q-30 20 -63.5 29.5t-68.5 9.5q-49 0 -82 -27.5t-49.5 -81t-16.5 -129.5q0 -73 13.5 -125.5t40.5 -80t68 -27.5
q17 0 32.5 2.5t29.5 7.5v149h-85v128zM475 941q0 -52 -20 -90.5t-54.5 -59t-77.5 -20.5q-66 0 -107.5 43t-42.5 127h86q2 -24 9.5 -39t21 -22.5t33.5 -7.5t34.5 6.5t23 22t9.5 40.5h85z" />
    <glyph glyph-name="gbreve" unicode="&#x11f;" horiz-adv-x="511" 
d="M198 560q39 0 65.5 -17.5t49.5 -62.5h8l12 70h125v-512q0 -90 -25.5 -152t-79 -94t-139.5 -32q-46 0 -83.5 10t-71.5 30v126q42 -23 78.5 -32.5t72.5 -9.5q47 0 75 23t28 79v8q0 17 1.5 39t3.5 39h-5q-22 -43 -50 -62.5t-70 -19.5q-74 0 -116.5 74.5t-42.5 206.5
q0 136 43.5 212.5t120.5 76.5zM242 435q-19 0 -33 -18t-21 -55t-7 -93q0 -78 16 -116t47 -38q18 0 31 8.5t21.5 25.5t12.5 43t4 62v28q0 54 -7.5 88t-22.5 49.5t-41 15.5zM415 777q0 -52 -20 -90.5t-54.5 -59t-77.5 -20.5q-66 0 -107.5 43t-42.5 127h86q2 -24 9.5 -39
t21 -22.5t33.5 -7.5t34.5 6.5t23 22t9.5 40.5h85z" />
    <glyph glyph-name="Gdotaccent" unicode="&#x120;" horiz-adv-x="583" 
d="M298 409h235v-378q-53 -21 -108 -31t-113 -10q-88 0 -148.5 44t-91.5 127t-31 198q0 113 35 194.5t102.5 126t162.5 44.5q54 0 100 -12.5t81 -32.5l-43 -125q-30 20 -63.5 29.5t-68.5 9.5q-49 0 -82 -27.5t-49.5 -81t-16.5 -129.5q0 -73 13.5 -125.5t40.5 -80t68 -27.5
q17 0 32.5 2.5t29.5 7.5v149h-85v128zM331 932q41 0 59.5 -20t18.5 -59t-19.5 -58.5t-58.5 -19.5q-38 0 -58 19.5t-20 58.5q0 40 18.5 59.5t59.5 19.5z" />
    <glyph glyph-name="gdotaccent" unicode="&#x121;" horiz-adv-x="511" 
d="M198 560q39 0 65.5 -17.5t49.5 -62.5h8l12 70h125v-512q0 -90 -25.5 -152t-79 -94t-139.5 -32q-46 0 -83.5 10t-71.5 30v126q42 -23 78.5 -32.5t72.5 -9.5q47 0 75 23t28 79v8q0 17 1.5 39t3.5 39h-5q-22 -43 -50 -62.5t-70 -19.5q-74 0 -116.5 74.5t-42.5 206.5
q0 136 43.5 212.5t120.5 76.5zM242 435q-19 0 -33 -18t-21 -55t-7 -93q0 -78 16 -116t47 -38q18 0 31 8.5t21.5 25.5t12.5 43t4 62v28q0 54 -7.5 88t-22.5 49.5t-41 15.5zM270 768q41 0 59.5 -20t18.5 -59t-19.5 -58.5t-58.5 -19.5q-38 0 -58 19.5t-20 58.5q0 40 18.5 59.5
t59.5 19.5z" />
    <glyph glyph-name="uni0122" unicode="&#x122;" horiz-adv-x="583" 
d="M298 409h235v-378q-53 -21 -108 -31t-113 -10q-88 0 -148.5 44t-91.5 127t-31 198q0 113 35 194.5t102.5 126t162.5 44.5q54 0 100 -12.5t81 -32.5l-43 -125q-30 20 -63.5 29.5t-68.5 9.5q-49 0 -82 -27.5t-49.5 -81t-16.5 -129.5q0 -73 13.5 -125.5t40.5 -80t68 -27.5
q17 0 32.5 2.5t29.5 7.5v149h-85v128zM402 -72q-7 -25 -17 -51.5t-22 -51t-26 -46.5h-95v13q4 17 8.5 44t8 55t4.5 48h139v-11z" />
    <glyph glyph-name="uni0123" unicode="&#x123;" horiz-adv-x="511" 
d="M332 753q-6 -28 -10.5 -54.5t-7.5 -50t-4 -42.5h-139v11q7 24 16.5 50t22 51t26.5 48h96v-13zM198 560q39 0 65.5 -17.5t49.5 -62.5h8l12 70h125v-512q0 -90 -25.5 -152t-79 -94t-139.5 -32q-46 0 -83.5 10t-71.5 30v126q42 -23 78.5 -32.5t72.5 -9.5q47 0 75 23t28 79v8
q0 17 1.5 39t3.5 39h-5q-22 -43 -50 -62.5t-70 -19.5q-74 0 -116.5 74.5t-42.5 206.5q0 136 43.5 212.5t120.5 76.5zM242 435q-19 0 -33 -18t-21 -55t-7 -93q0 -78 16 -116t47 -38q18 0 31 8.5t21.5 25.5t12.5 43t4 62v28q0 54 -7.5 88t-22.5 49.5t-41 15.5z" />
    <glyph glyph-name="Hcircumflex" unicode="&#x124;" horiz-adv-x="593" 
d="M531 0h-152v306h-165v-306h-152v714h152v-277h165v277h152v-714zM363 930q12 -22 26.5 -46t32 -49.5t36.5 -51.5v-13h-88q-16 14 -34.5 33t-38.5 44q-22 -25 -40 -45t-32 -32h-89v13q15 19 33.5 46.5t35.5 55t26 45.5h132z" />
    <glyph glyph-name="hcircumflex" unicode="&#x125;" horiz-adv-x="514" 
d="M198 605q0 -31 -2.5 -63t-8.5 -61h8q11 26 28 43.5t40 26.5t51 9q47 0 80 -23.5t50.5 -67.5t17.5 -109v-360h-145v317q0 58 -11.5 85.5t-36.5 27.5q-29 0 -44 -18t-21 -56t-6 -98v-258h-145v760h145v-155zM192 976q12 -22 26.5 -46t32 -49.5t36.5 -51.5v-13h-88
q-16 14 -34.5 33t-38.5 44q-22 -25 -40 -45t-32 -32h-89v13q15 19 33.5 46.5t35.5 55t26 45.5h132z" />
    <glyph glyph-name="Hbar" unicode="&#x126;" horiz-adv-x="593" 
d="M62 0v523h-66v103h66v88h152v-88h165v88h153v-88h65v-103h-65v-523h-153v306h-165v-306h-152zM214 437h165v86h-165v-86z" />
    <glyph glyph-name="hbar" unicode="&#x127;" horiz-adv-x="514" 
d="M198 760v-76h94v-103h-94v-22q0 -19 -2.5 -43.5t-8.5 -54.5h8q11 26 28 43.5t40 26.5t50 9q48 0 81 -23t50.5 -67.5t17.5 -108.5v-341h-146v297q0 58 -11.5 86t-36.5 28q-26 0 -41.5 -16t-22 -53.5t-6.5 -102.5v-239h-145v581h-57v103h57v76h145z" />
    <glyph glyph-name="Itilde" unicode="&#x128;" horiz-adv-x="339" 
d="M312 0h-285v82l67 31v488l-67 31v82h285v-82l-66 -31v-488l66 -31v-82zM2 769q1 23 4 50t12 51.5t26.5 40t45.5 15.5q20 0 38.5 -7.5t36 -17.5t34 -17t32.5 -7q14 0 20 13t10 37h77q0 -77 -26 -117t-63 -40q-19 0 -39 7t-38 17t-34 17.5t-28 7.5q-9 0 -18.5 -11.5
t-12.5 -38.5h-77z" />
    <glyph glyph-name="itilde" unicode="&#x129;" horiz-adv-x="254" 
d="M199 0h-145v550h145v-550zM-42 605q1 23 4 50t12 51.5t26.5 40t45.5 15.5q20 0 38.5 -7.5t36 -17.5t34 -17t32.5 -7q14 0 20 13t10 37h77q0 -77 -26 -117t-63 -40q-19 0 -39 7t-38 17t-34 17.5t-28 7.5q-9 0 -18.5 -11.5t-12.5 -38.5h-77z" />
    <glyph glyph-name="Imacron" unicode="&#x12a;" horiz-adv-x="339" 
d="M312 0h-285v82l67 31v488l-67 31v82h285v-82l-66 -31v-488l66 -31v-82zM313 888v-105h-286v105h286z" />
    <glyph glyph-name="imacron" unicode="&#x12b;" horiz-adv-x="254" 
d="M199 0h-145v550h145v-550zM269 724v-105h-286v105h286z" />
    <glyph glyph-name="Ibreve" unicode="&#x12c;" horiz-adv-x="339" 
d="M312 0h-285v82l67 31v488l-67 31v82h285v-82l-66 -31v-488l66 -31v-82zM320 941q0 -52 -20 -90.5t-54.5 -59t-77.5 -20.5q-66 0 -107.5 43t-42.5 127h86q2 -24 9.5 -39t21 -22.5t33.5 -7.5t34.5 6.5t23 22t9.5 40.5h85z" />
    <glyph glyph-name="ibreve" unicode="&#x12d;" horiz-adv-x="254" 
d="M199 0h-145v550h145v-550zM277 777q0 -52 -20 -90.5t-54.5 -59t-77.5 -20.5q-66 0 -107.5 43t-42.5 127h86q2 -24 9.5 -39t21 -22.5t33.5 -7.5t34.5 6.5t23 22t9.5 40.5h85z" />
    <glyph glyph-name="Iogonek" unicode="&#x12e;" horiz-adv-x="339" 
d="M312 0h-285v82l67 31v488l-67 31v82h285v-82l-66 -31v-488l66 -31v-82zM230 -98q0 -17 11 -29.5t30 -12.5q14 0 22.5 3t15.5 7v-93q-11 -5 -29 -9.5t-40 -4.5q-61 0 -91 28.5t-30 78.5q0 24 8.5 48.5t28 49.5t50.5 48l76 -16q-32 -34 -42 -54.5t-10 -43.5z" />
    <glyph glyph-name="iogonek" unicode="&#x12f;" horiz-adv-x="254" 
d="M199 550v-550h-145v550h145zM127 768q40 0 59 -20t19 -59t-20 -58.5t-58 -19.5q-39 0 -58.5 19.5t-19.5 58.5q0 40 18.5 59.5t59.5 19.5zM123 -98q0 -17 11 -29.5t30 -12.5q14 0 22.5 3t15.5 7v-93q-11 -5 -29 -9.5t-40 -4.5q-61 0 -91 28.5t-30 78.5q0 24 8.5 48.5
t28 49.5t50.5 48l76 -16q-32 -34 -42 -54.5t-10 -43.5z" />
    <glyph glyph-name="Idotaccent" unicode="&#x130;" horiz-adv-x="339" 
d="M312 0h-285v82l67 31v488l-67 31v82h285v-82l-66 -31v-488l66 -31v-82zM175 932q41 0 59.5 -20t18.5 -59t-19.5 -58.5t-58.5 -19.5q-38 0 -58 19.5t-20 58.5q0 40 18.5 59.5t59.5 19.5z" />
    <glyph glyph-name="IJ" unicode="&#x132;" horiz-adv-x="612" 
d="M312 0h-285v82l67 31v488l-67 31v82h285v-82l-66 -31v-488l66 -31v-82zM356 -218q-21 0 -41 2.5t-38 8.5v129q12 -4 25.5 -7t29.5 -3q25 0 39.5 11.5t21 39t6.5 75.5v676h151v-671q0 -100 -22.5 -156.5t-66 -80.5t-105.5 -24z" />
    <glyph glyph-name="ij" unicode="&#x133;" horiz-adv-x="507" 
d="M199 550v-550h-145v550h145zM127 768q40 0 59 -20t19 -59t-20 -58.5t-58 -19.5q-39 0 -58.5 19.5t-19.5 58.5q0 40 18.5 59.5t59.5 19.5zM298 -240q-19 0 -38.5 2.5t-38.5 8.5v124q12 -4 22.5 -6.5t20.5 -2.5q23 0 33.5 18t10.5 53v593h145v-603q0 -64 -18.5 -105.5
t-53 -61t-83.5 -20.5zM303 689q0 40 18.5 59.5t59.5 19.5q40 0 59 -20t19 -59t-20 -58.5t-58 -19.5q-39 0 -58.5 19.5t-19.5 58.5z" />
    <glyph glyph-name="Jcircumflex" unicode="&#x134;" horiz-adv-x="276" 
d="M21 -218q-21 0 -41 2.5t-38 8.5v129q12 -4 25.5 -7t29.5 -3q25 0 39.5 11.5t21 39t6.5 75.5v676h151v-671q0 -100 -22.5 -156.5t-66 -80.5t-105.5 -24zM206 930q12 -22 26.5 -46t32 -49.5t36.5 -51.5v-13h-88q-16 14 -34.5 33t-38.5 44q-22 -25 -40 -45t-32 -32h-89v13
q15 19 33.5 46.5t35.5 55t26 45.5h132z" />
    <glyph glyph-name="jcircumflex" unicode="&#x135;" horiz-adv-x="254" 
d="M44 -240q-17 0 -40.5 3.5t-36.5 7.5v124q12 -4 22.5 -6.5t20.5 -2.5q23 0 33.5 17t10.5 50v597h145v-603q0 -58 -18 -100t-52.5 -64.5t-84.5 -22.5zM193 766q12 -22 26.5 -46t32 -49.5t36.5 -51.5v-13h-88q-16 14 -34.5 33t-38.5 44q-22 -25 -40 -45t-32 -32h-89v13
q15 19 33.5 46.5t35.5 55t26 45.5h132z" />
    <glyph glyph-name="uni0136" unicode="&#x136;" horiz-adv-x="530" 
d="M538 0h-169l-113 279l-42 -34v-245h-152v714h152v-320q5 20 15.5 43t24.5 50l121 227h163l-173 -319zM368 -72q-7 -25 -17 -51.5t-22 -51t-26 -46.5h-95v13q4 17 8.5 44t8 55t4.5 48h139v-11z" />
    <glyph glyph-name="uni0137" unicode="&#x137;" horiz-adv-x="495" 
d="M198 442q0 -35 -1 -70.5t-5 -69.5h3q7 15 13.5 28.5t13.5 26t13 22.5l101 171h156l-145 -229l152 -321h-159l-93 214l-49 -45v-169h-145v760h145v-318zM342 -72q-7 -25 -17 -51.5t-22 -51t-26 -46.5h-95v13q4 17 8.5 44t8 55t4.5 48h139v-11z" />
    <glyph glyph-name="kgreenlandic" unicode="&#x138;" horiz-adv-x="495" 
d="M492 550l-145 -229l152 -321h-159l-93 214l-49 -45v-169h-145v550h145v-108q0 -36 -1 -71t-5 -69h3q10 21 20 40.5t19 34.5l102 173h156z" />
    <glyph glyph-name="Lacute" unicode="&#x139;" horiz-adv-x="416" 
d="M62 0v714h152v-583h188v-131h-340zM302 921q-10 -14 -26.5 -33t-35.5 -40t-39 -41t-38 -37h-105v13q17 27 31.5 52t26.5 49t22 46h164v-9z" />
    <glyph glyph-name="lacute" unicode="&#x13a;" horiz-adv-x="252" 
d="M198 0h-145v760h145v-760zM289 967q-10 -14 -26.5 -33t-35.5 -40t-39 -41t-38 -37h-105v13q17 27 31.5 52t26.5 49t22 46h164v-9z" />
    <glyph glyph-name="uni013B" unicode="&#x13b;" horiz-adv-x="416" 
d="M62 0v714h152v-583h188v-131h-340zM313 -72q-7 -25 -17 -51.5t-22 -51t-26 -46.5h-95v13q4 17 8.5 44t8 55t4.5 48h139v-11z" />
    <glyph glyph-name="uni013C" unicode="&#x13c;" horiz-adv-x="252" 
d="M198 0h-145v760h145v-760zM207 -72q-7 -25 -17 -51.5t-22 -51t-26 -46.5h-95v13q4 17 8.5 44t8 55t4.5 48h139v-11z" />
    <glyph glyph-name="Lcaron" unicode="&#x13d;" horiz-adv-x="416" 
d="M450 702q-6 -25 -16 -51.5t-21.5 -51t-25.5 -46.5h-95v14q2 12 5 30.5t6 40t5 41.5t3 34h139v-11zM62 0v714h152v-583h188v-131h-340z" />
    <glyph glyph-name="lcaron" unicode="&#x13e;" horiz-adv-x="252" 
d="M390 749q-7 -25 -16.5 -51.5t-21.5 -51t-25 -46.5h-96v13q3 12 6 31t6 40t5 41.5t2 34.5h140v-11zM198 0h-145v760h145v-760z" />
    <glyph glyph-name="Ldot" unicode="&#x13f;" horiz-adv-x="416" 
d="M62 0v714h152v-583h188v-131h-340zM352 470q41 0 59.5 -20t18.5 -59t-19.5 -58.5t-58.5 -19.5q-38 0 -58 19.5t-20 58.5q0 40 18.5 59.5t59.5 19.5z" />
    <glyph glyph-name="ldot" unicode="&#x140;" horiz-adv-x="360" 
d="M198 0h-145v760h145v-760zM307 464q41 0 59.5 -20t18.5 -59t-19.5 -58.5t-58.5 -19.5q-38 0 -58 19.5t-20 58.5q0 40 18.5 59.5t59.5 19.5z" />
    <glyph glyph-name="Lslash" unicode="&#x141;" horiz-adv-x="437" 
d="M82 0v239l-34 -24l-71 88l105 82v329h152v-217l74 56l70 -90l-144 -111v-221h188v-131h-340z" />
    <glyph glyph-name="lslash" unicode="&#x142;" horiz-adv-x="302" 
d="M79 0v249l-34 -27l-71 90l105 84v364h145v-256l34 27l71 -89l-105 -85v-357h-145z" />
    <glyph glyph-name="Nacute" unicode="&#x143;" horiz-adv-x="638" 
d="M576 0h-178l-198 473h-4q3 -37 5 -69t2.5 -57.5t0.5 -46.5v-300h-142v714h177l198 -462h3q-2 35 -3.5 65.5t-2.5 56t-1 45.5v295h143v-714zM482 921q-10 -14 -26.5 -33t-35.5 -40t-39 -41t-38 -37h-105v13q17 27 31.5 52t26.5 49t22 46h164v-9z" />
    <glyph glyph-name="nacute" unicode="&#x144;" horiz-adv-x="514" 
d="M314 560q70 0 109 -51.5t39 -147.5v-361h-145v317q0 56 -10.5 85t-41.5 29q-38 0 -52.5 -38.5t-14.5 -134.5v-258h-145v550h114l16 -69h9q12 26 30 43.5t41 26.5t51 9zM430 757q-10 -14 -26.5 -33t-35.5 -40t-39 -41t-38 -37h-105v13q17 27 31.5 52t26.5 49t22 46h164v-9
z" />
    <glyph glyph-name="uni0145" unicode="&#x145;" horiz-adv-x="638" 
d="M576 0h-178l-198 473h-4q3 -37 5 -69t2.5 -57.5t0.5 -46.5v-300h-142v714h177l198 -462h3q-2 35 -3.5 65.5t-2.5 56t-1 45.5v295h143v-714zM399 -72q-7 -25 -17 -51.5t-22 -51t-26 -46.5h-95v13q4 17 8.5 44t8 55t4.5 48h139v-11z" />
    <glyph glyph-name="uni0146" unicode="&#x146;" horiz-adv-x="514" 
d="M314 560q70 0 109 -51.5t39 -147.5v-361h-145v317q0 56 -10.5 85t-41.5 29q-38 0 -52.5 -38.5t-14.5 -134.5v-258h-145v550h114l16 -69h9q12 26 30 43.5t41 26.5t51 9zM337 -72q-7 -25 -17 -51.5t-22 -51t-26 -46.5h-95v13q4 17 8.5 44t8 55t4.5 48h139v-11z" />
    <glyph glyph-name="Ncaron" unicode="&#x147;" horiz-adv-x="638" 
d="M576 0h-178l-198 473h-4q3 -37 5 -69t2.5 -57.5t0.5 -46.5v-300h-142v714h177l198 -462h3q-2 35 -3.5 65.5t-2.5 56t-1 45.5v295h143v-714zM253 770q-9 19 -26 46.5t-36 55t-33 45.5v13h89q16 -14 34 -33.5t38 -43.5q22 26 39 44t34 33h88v-13q-14 -19 -32 -46t-35 -53.5
t-28 -47.5h-132z" />
    <glyph glyph-name="ncaron" unicode="&#x148;" horiz-adv-x="514" 
d="M314 560q70 0 109 -51.5t39 -147.5v-361h-145v317q0 56 -10.5 85t-41.5 29q-38 0 -52.5 -38.5t-14.5 -134.5v-258h-145v550h114l16 -69h9q12 26 30 43.5t41 26.5t51 9zM201 606q-9 19 -26 46.5t-36 55t-33 45.5v13h89q16 -14 34 -33.5t38 -43.5q22 26 39 44t34 33h88v-13
q-14 -19 -32 -46t-35 -53.5t-28 -47.5h-132z" />
    <glyph glyph-name="napostrophe" unicode="&#x149;" horiz-adv-x="646" 
d="M446 560q70 0 109 -51.5t39 -147.5v-361h-145v317q0 56 -10.5 85t-41.5 29q-38 0 -52.5 -38.5t-14.5 -134.5v-258h-145v550h114l16 -69h9q12 26 30 43.5t41 26.5t51 9zM188 703q-8 -52 -18 -99t-22 -88.5t-27 -78.5h-119q5 27 11.5 63.5t11.5 76.5t9 76t6 61h142z" />
    <glyph glyph-name="Eng" unicode="&#x14a;" horiz-adv-x="638" 
d="M391 -218q-21 0 -40.5 2.5t-38.5 8.5v130q12 -5 25.5 -8t29.5 -3q24 0 38.5 10.5t21 31t6.5 50.5l-234 489h-3q3 -36 4.5 -68t2 -58t0.5 -47v-320h-141v714h177l197 -412h3q-2 34 -3.5 64t-2 56t-0.5 47v245h143v-683q0 -84 -19.5 -139t-60 -82.5t-105.5 -27.5z" />
    <glyph glyph-name="eng" unicode="&#x14b;" horiz-adv-x="514" 
d="M307 -240q-19 0 -39 2.5t-38 8.5v124q12 -4 22.5 -6.5t20.5 -2.5q23 0 33.5 18t10.5 53v360q0 56 -11 84.5t-38 28.5q-23 0 -38.5 -13.5t-23.5 -50.5t-8 -108v-258h-145v550h114l16 -69h8q13 26 30.5 43.5t41 26.5t51.5 9q49 0 81.5 -24t49.5 -69t17 -109v-411
q0 -50 -16 -93t-50.5 -68.5t-88.5 -25.5z" />
    <glyph glyph-name="Omacron" unicode="&#x14c;" horiz-adv-x="606" 
d="M565 358q0 -87 -16.5 -155.5t-49 -116t-82 -72t-114.5 -24.5q-64 0 -113.5 25t-82.5 72.5t-49.5 116t-16.5 155.5q0 120 30 201.5t88.5 123t143.5 41.5q88 0 146 -43t87 -125t29 -199zM199 358q0 -78 11.5 -130t35 -78t57.5 -26q35 0 58 25.5t34.5 77t11.5 131.5
q0 119 -26 177.5t-78 58.5q-34 0 -57.5 -26.5t-35 -79t-11.5 -130.5zM447 888v-105h-286v105h286z" />
    <glyph glyph-name="omacron" unicode="&#x14d;" horiz-adv-x="501" 
d="M466 276q0 -55 -11.5 -106.5t-36.5 -92t-66.5 -64t-101.5 -23.5q-56 0 -97 23t-67 63.5t-39 92t-13 107.5q0 82 22.5 146t70.5 101t124 37q66 0 114 -33t74.5 -96.5t26.5 -154.5zM181 274q0 -53 7.5 -89.5t23 -54.5t38.5 -18q26 0 40.5 18t21.5 55t7 91q0 55 -7 91
t-21.5 53.5t-39.5 17.5q-37 0 -53.5 -40t-16.5 -124zM394 724v-105h-286v105h286z" />
    <glyph glyph-name="Obreve" unicode="&#x14e;" horiz-adv-x="606" 
d="M565 358q0 -87 -16.5 -155.5t-49 -116t-82 -72t-114.5 -24.5q-64 0 -113.5 25t-82.5 72.5t-49.5 116t-16.5 155.5q0 120 30 201.5t88.5 123t143.5 41.5q88 0 146 -43t87 -125t29 -199zM199 358q0 -78 11.5 -130t35 -78t57.5 -26q35 0 58 25.5t34.5 77t11.5 131.5
q0 119 -26 177.5t-78 58.5q-34 0 -57.5 -26.5t-35 -79t-11.5 -130.5zM454 941q0 -52 -20 -90.5t-54.5 -59t-77.5 -20.5q-66 0 -107.5 43t-42.5 127h86q2 -24 9.5 -39t21 -22.5t33.5 -7.5t34.5 6.5t23 22t9.5 40.5h85z" />
    <glyph glyph-name="obreve" unicode="&#x14f;" horiz-adv-x="501" 
d="M466 276q0 -55 -11.5 -106.5t-36.5 -92t-66.5 -64t-101.5 -23.5q-56 0 -97 23t-67 63.5t-39 92t-13 107.5q0 82 22.5 146t70.5 101t124 37q66 0 114 -33t74.5 -96.5t26.5 -154.5zM181 274q0 -53 7.5 -89.5t23 -54.5t38.5 -18q26 0 40.5 18t21.5 55t7 91q0 55 -7 91
t-21.5 53.5t-39.5 17.5q-37 0 -53.5 -40t-16.5 -124zM401 777q0 -52 -20 -90.5t-54.5 -59t-77.5 -20.5q-66 0 -107.5 43t-42.5 127h86q2 -24 9.5 -39t21 -22.5t33.5 -7.5t34.5 6.5t23 22t9.5 40.5h85z" />
    <glyph glyph-name="Ohungarumlaut" unicode="&#x150;" horiz-adv-x="606" 
d="M565 358q0 -87 -16.5 -155.5t-49 -116t-82 -72t-114.5 -24.5q-64 0 -113.5 25t-82.5 72.5t-49.5 116t-16.5 155.5q0 120 30 201.5t88.5 123t143.5 41.5q88 0 146 -43t87 -125t29 -199zM199 358q0 -78 11.5 -130t35 -78t57.5 -26q35 0 58 25.5t34.5 77t11.5 131.5
q0 119 -26 177.5t-78 58.5q-34 0 -57.5 -26.5t-35 -79t-11.5 -130.5zM491 921q-7 -15 -21.5 -35t-33.5 -41t-39 -41t-37 -34h-74v13q17 34 31.5 62.5t25 50.5t15.5 34h133v-9zM320 921q-7 -16 -21.5 -35.5t-33 -39.5t-39.5 -39.5t-42 -36.5h-68v13q17 35 31.5 63t25 49.5
t15.5 34.5h132v-9z" />
    <glyph glyph-name="ohungarumlaut" unicode="&#x151;" horiz-adv-x="501" 
d="M466 276q0 -55 -11.5 -106.5t-36.5 -92t-66.5 -64t-101.5 -23.5q-56 0 -97 23t-67 63.5t-39 92t-13 107.5q0 82 22.5 146t70.5 101t124 37q66 0 114 -33t74.5 -96.5t26.5 -154.5zM181 274q0 -53 7.5 -89.5t23 -54.5t38.5 -18q26 0 40.5 18t21.5 55t7 91q0 55 -7 91
t-21.5 53.5t-39.5 17.5q-37 0 -53.5 -40t-16.5 -124zM438 757q-7 -15 -21.5 -35t-33.5 -41t-39 -41t-37 -34h-74v13q17 34 31.5 62.5t25 50.5t15.5 34h133v-9zM267 757q-7 -16 -21.5 -35.5t-33 -39.5t-39.5 -39.5t-42 -36.5h-68v13q17 35 31.5 63t25 49.5t15.5 34.5h132v-9z
" />
    <glyph glyph-name="OE" unicode="&#x152;" horiz-adv-x="728" 
d="M297 724q21 0 39 -2.5t32 -7.5h319v-129h-180v-150h167v-130h-167v-174h180v-131h-320q-13 -4 -30 -6.5t-38 -2.5q-90 0 -147 47.5t-84 130.5t-27 190q0 109 27.5 191t84 128t144.5 46zM308 592q-29 0 -49.5 -15t-33.5 -44.5t-19 -73.5t-6 -101q0 -76 11.5 -127.5
t35.5 -78t61 -27.5q17 0 29.5 2t22.5 4v450q-10 6 -23 8.5t-29 2.5z" />
    <glyph glyph-name="oe" unicode="&#x153;" horiz-adv-x="750" 
d="M524 559q64 0 107.5 -30t66 -85.5t22.5 -134.5v-78h-262q0 -64 24.5 -94.5t74.5 -30.5q37 0 68.5 10t67.5 32v-119q-34 -20 -71 -29.5t-82 -9.5q-51 0 -87.5 17t-62.5 52q-24 -35 -59 -52t-82 -17q-70 0 -118 37t-72.5 101.5t-24.5 147.5q0 84 23.5 148t72 100t121.5 36
q45 0 79 -16.5t58 -49.5q17 21 36.5 35.5t44 22t55.5 7.5zM250 438q-36 0 -52.5 -40t-16.5 -124q0 -53 7.5 -89.5t23 -54.5t38.5 -18q26 0 40.5 18t21.5 54.5t7 91.5t-7 91t-21.5 53.5t-40.5 17.5zM523 446q-28 0 -46 -26t-19 -86h128q0 37 -7.5 62t-21.5 37.5t-34 12.5z
" />
    <glyph glyph-name="Racute" unicode="&#x154;" horiz-adv-x="527" 
d="M239 714q81 0 134.5 -23t80 -69.5t26.5 -116.5q0 -42 -10.5 -78t-32.5 -64t-56 -50l147 -313h-167l-115 274h-32v-274h-152v714h177zM238 586h-24v-192h25q42 0 63.5 25.5t21.5 77.5q0 31 -9.5 50.5t-28.5 29t-48 9.5zM433 921q-10 -14 -26.5 -33t-35.5 -40t-39 -41
t-38 -37h-105v13q17 27 31.5 52t26.5 49t22 46h164v-9z" />
    <glyph glyph-name="racute" unicode="&#x155;" horiz-adv-x="360" 
d="M307 560q10 0 20.5 -1.5t24.5 -5.5l-13 -155q-10 4 -21 5.5t-26 1.5q-24 0 -41 -8.5t-29 -25t-17.5 -40t-5.5 -52.5v-279h-145v550h111l21 -89h7q11 24 27 47t38 37.5t49 14.5zM362 757q-10 -14 -26.5 -33t-35.5 -40t-39 -41t-38 -37h-105v13q17 27 31.5 52t26.5 49
t22 46h164v-9z" />
    <glyph glyph-name="uni0156" unicode="&#x156;" horiz-adv-x="527" 
d="M239 714q81 0 134.5 -23t80 -69.5t26.5 -116.5q0 -42 -10.5 -78t-32.5 -64t-56 -50l147 -313h-167l-115 274h-32v-274h-152v714h177zM238 586h-24v-192h25q42 0 63.5 25.5t21.5 77.5q0 31 -9.5 50.5t-28.5 29t-48 9.5zM354 -72q-7 -25 -17 -51.5t-22 -51t-26 -46.5h-95
v13q4 17 8.5 44t8 55t4.5 48h139v-11z" />
    <glyph glyph-name="uni0157" unicode="&#x157;" horiz-adv-x="360" 
d="M307 560q10 0 20.5 -1.5t24.5 -5.5l-13 -155q-10 4 -21 5.5t-26 1.5q-24 0 -41 -8.5t-29 -25t-17.5 -40t-5.5 -52.5v-279h-145v550h111l21 -89h7q11 24 27 47t38 37.5t49 14.5zM213 -72q-7 -25 -17 -51.5t-22 -51t-26 -46.5h-95v13q4 17 8.5 44t8 55t4.5 48h139v-11z" />
    <glyph glyph-name="Rcaron" unicode="&#x158;" horiz-adv-x="527" 
d="M239 714q81 0 134.5 -23t80 -69.5t26.5 -116.5q0 -42 -10.5 -78t-32.5 -64t-56 -50l147 -313h-167l-115 274h-32v-274h-152v714h177zM238 586h-24v-192h25q42 0 63.5 25.5t21.5 77.5q0 31 -9.5 50.5t-28.5 29t-48 9.5zM204 770q-9 19 -26 46.5t-36 55t-33 45.5v13h89
q16 -14 34 -33.5t38 -43.5q22 26 39 44t34 33h88v-13q-14 -19 -32 -46t-35 -53.5t-28 -47.5h-132z" />
    <glyph glyph-name="rcaron" unicode="&#x159;" horiz-adv-x="360" 
d="M307 560q10 0 20.5 -1.5t24.5 -5.5l-13 -155q-10 4 -21 5.5t-26 1.5q-24 0 -41 -8.5t-29 -25t-17.5 -40t-5.5 -52.5v-279h-145v550h111l21 -89h7q11 24 27 47t38 37.5t49 14.5zM133 606q-9 19 -26 46.5t-36 55t-33 45.5v13h89q16 -14 34 -33.5t38 -43.5q22 26 39 44
t34 33h88v-13q-14 -19 -32 -46t-35 -53.5t-28 -47.5h-132z" />
    <glyph glyph-name="Sacute" unicode="&#x15a;" horiz-adv-x="445" 
d="M418 213q0 -65 -27 -115.5t-75 -79t-115 -28.5q-30 0 -58.5 3.5t-56 13t-56.5 25.5v155q41 -27 83.5 -41.5t79.5 -14.5q24 0 39.5 9t23 24t7.5 33q0 20 -6.5 36t-26 33.5t-59.5 40.5q-31 19 -56.5 39t-43 44t-27 55.5t-9.5 73.5q0 63 24.5 108.5t71 71.5t113.5 25
q44 0 87 -12t86 -36l-42 -134q-35 22 -66.5 33t-58.5 11q-21 0 -34.5 -8t-20.5 -21t-7 -30q0 -22 7 -38t28 -32t62 -40q44 -26 73.5 -55.5t44.5 -65.5t15 -83zM399 921q-10 -14 -26.5 -33t-35.5 -40t-39 -41t-38 -37h-105v13q17 27 31.5 52t26.5 49t22 46h164v-9z" />
    <glyph glyph-name="sacute" unicode="&#x15b;" horiz-adv-x="384" 
d="M359 165q0 -57 -22 -96.5t-62.5 -59t-97.5 -19.5q-40 0 -77.5 7.5t-71.5 23.5v138q27 -18 63 -31t72 -13q25 0 38 10t13 32q0 11 -5 21.5t-22.5 23.5t-54.5 31q-34 18 -57.5 42t-35.5 55.5t-12 70.5q0 74 45.5 116.5t127.5 42.5q42 0 78.5 -11.5t73.5 -33.5l-38 -111
q-24 17 -51 28t-54 11q-21 0 -32 -9t-11 -26q0 -12 5.5 -20.5t22.5 -20.5t52 -33q34 -19 59 -42t39.5 -54t14.5 -73zM361 757q-10 -14 -26.5 -33t-35.5 -40t-39 -41t-38 -37h-105v13q17 27 31.5 52t26.5 49t22 46h164v-9z" />
    <glyph glyph-name="Scircumflex" unicode="&#x15c;" horiz-adv-x="445" 
d="M418 213q0 -65 -27 -115.5t-75 -79t-115 -28.5q-30 0 -58.5 3.5t-56 13t-56.5 25.5v155q41 -27 83.5 -41.5t79.5 -14.5q24 0 39.5 9t23 24t7.5 33q0 20 -6.5 36t-26 33.5t-59.5 40.5q-31 19 -56.5 39t-43 44t-27 55.5t-9.5 73.5q0 63 24.5 108.5t71 71.5t113.5 25
q44 0 87 -12t86 -36l-42 -134q-35 22 -66.5 33t-58.5 11q-21 0 -34.5 -8t-20.5 -21t-7 -30q0 -22 7 -38t28 -32t62 -40q44 -26 73.5 -55.5t44.5 -65.5t15 -83zM303 930q12 -22 26.5 -46t32 -49.5t36.5 -51.5v-13h-88q-16 14 -34.5 33t-38.5 44q-22 -25 -40 -45t-32 -32h-89
v13q15 19 33.5 46.5t35.5 55t26 45.5h132z" />
    <glyph glyph-name="scircumflex" unicode="&#x15d;" horiz-adv-x="384" 
d="M359 165q0 -57 -22 -96.5t-62.5 -59t-97.5 -19.5q-40 0 -77.5 7.5t-71.5 23.5v138q27 -18 63 -31t72 -13q25 0 38 10t13 32q0 11 -5 21.5t-22.5 23.5t-54.5 31q-34 18 -57.5 42t-35.5 55.5t-12 70.5q0 74 45.5 116.5t127.5 42.5q42 0 78.5 -11.5t73.5 -33.5l-38 -111
q-24 17 -51 28t-54 11q-21 0 -32 -9t-11 -26q0 -12 5.5 -20.5t22.5 -20.5t52 -33q34 -19 59 -42t39.5 -54t14.5 -73zM265 766q12 -22 26.5 -46t32 -49.5t36.5 -51.5v-13h-88q-16 14 -34.5 33t-38.5 44q-22 -25 -40 -45t-32 -32h-89v13q15 19 33.5 46.5t35.5 55t26 45.5h132z
" />
    <glyph glyph-name="Scedilla" unicode="&#x15e;" horiz-adv-x="445" 
d="M418 213q0 -65 -27 -115.5t-75 -79t-115 -28.5q-30 0 -58.5 3.5t-56 13t-56.5 25.5v155q41 -27 83.5 -41.5t79.5 -14.5q24 0 39.5 9t23 24t7.5 33q0 20 -6.5 36t-26 33.5t-59.5 40.5q-31 19 -56.5 39t-43 44t-27 55.5t-9.5 73.5q0 63 24.5 108.5t71 71.5t113.5 25
q44 0 87 -12t86 -36l-42 -134q-35 22 -66.5 33t-58.5 11q-21 0 -34.5 -8t-20.5 -21t-7 -30q0 -22 7 -38t28 -32t62 -40q44 -26 73.5 -55.5t44.5 -65.5t15 -83zM312 -128q0 -52 -32.5 -82t-93.5 -30q-24 0 -43.5 2t-36.5 6v83q15 -4 28 -6t24 -2q21 0 31.5 8.5t10.5 24.5
q0 18 -18 29t-50 13l34 82h71l-16 -37q29 -5 49 -17t31 -31t11 -43z" />
    <glyph glyph-name="scedilla" unicode="&#x15f;" horiz-adv-x="384" 
d="M359 165q0 -57 -22 -96.5t-62.5 -59t-97.5 -19.5q-40 0 -77.5 7.5t-71.5 23.5v138q27 -18 63 -31t72 -13q25 0 38 10t13 32q0 11 -5 21.5t-22.5 23.5t-54.5 31q-34 18 -57.5 42t-35.5 55.5t-12 70.5q0 74 45.5 116.5t127.5 42.5q42 0 78.5 -11.5t73.5 -33.5l-38 -111
q-24 17 -51 28t-54 11q-21 0 -32 -9t-11 -26q0 -12 5.5 -20.5t22.5 -20.5t52 -33q34 -19 59 -42t39.5 -54t14.5 -73zM282 -128q0 -52 -32.5 -82t-93.5 -30q-24 0 -43.5 2t-36.5 6v83q15 -4 28 -6t24 -2q21 0 31.5 8.5t10.5 24.5q0 18 -18 29t-50 13l34 82h71l-16 -37
q29 -5 49 -17t31 -31t11 -43z" />
    <glyph glyph-name="Scaron" unicode="&#x160;" horiz-adv-x="445" 
d="M418 213q0 -65 -27 -115.5t-75 -79t-115 -28.5q-30 0 -58.5 3.5t-56 13t-56.5 25.5v155q41 -27 83.5 -41.5t79.5 -14.5q24 0 39.5 9t23 24t7.5 33q0 20 -6.5 36t-26 33.5t-59.5 40.5q-31 19 -56.5 39t-43 44t-27 55.5t-9.5 73.5q0 63 24.5 108.5t71 71.5t113.5 25
q44 0 87 -12t86 -36l-42 -134q-35 22 -66.5 33t-58.5 11q-21 0 -34.5 -8t-20.5 -21t-7 -30q0 -22 7 -38t28 -32t62 -40q44 -26 73.5 -55.5t44.5 -65.5t15 -83zM171 770q-9 19 -26 46.5t-36 55t-33 45.5v13h89q16 -14 34 -33.5t38 -43.5q22 26 39 44t34 33h88v-13
q-14 -19 -32 -46t-35 -53.5t-28 -47.5h-132z" />
    <glyph glyph-name="scaron" unicode="&#x161;" horiz-adv-x="384" 
d="M359 165q0 -57 -22 -96.5t-62.5 -59t-97.5 -19.5q-40 0 -77.5 7.5t-71.5 23.5v138q27 -18 63 -31t72 -13q25 0 38 10t13 32q0 11 -5 21.5t-22.5 23.5t-54.5 31q-34 18 -57.5 42t-35.5 55.5t-12 70.5q0 74 45.5 116.5t127.5 42.5q42 0 78.5 -11.5t73.5 -33.5l-38 -111
q-24 17 -51 28t-54 11q-21 0 -32 -9t-11 -26q0 -12 5.5 -20.5t22.5 -20.5t52 -33q34 -19 59 -42t39.5 -54t14.5 -73zM133 606q-9 19 -26 46.5t-36 55t-33 45.5v13h89q16 -14 34 -33.5t38 -43.5q22 26 39 44t34 33h88v-13q-14 -19 -32 -46t-35 -53.5t-28 -47.5h-132z" />
    <glyph glyph-name="uni021A" unicode="&#x21a;" horiz-adv-x="443" 
d="M297 0h-150v582h-132v132h412v-132h-130v-582zM302 -72q-7 -25 -17 -51.5t-22 -51t-26 -46.5h-95v13q4 17 8.5 44t8 55t4.5 48h139v-11z" />
    <glyph glyph-name="uni021B" unicode="&#x21b;" horiz-adv-x="334" 
d="M251 116q14 0 31 4.5t35 12.5v-115q-25 -14 -52 -21t-59 -7q-50 0 -81.5 20t-46 60.5t-14.5 101.5v258h-55v78l67 37l34 118h99v-113h101v-120h-101v-255q0 -29 10 -44t32 -15zM278 -72q-7 -25 -17 -51.5t-22 -51t-26 -46.5h-95v13q4 17 8.5 44t8 55t4.5 48h139v-11z" />
    <glyph glyph-name="Tcaron" unicode="&#x164;" horiz-adv-x="443" 
d="M297 0h-150v582h-132v132h412v-132h-130v-582zM156 770q-9 19 -26 46.5t-36 55t-33 45.5v13h89q16 -14 34 -33.5t38 -43.5q22 26 39 44t34 33h88v-13q-14 -19 -32 -46t-35 -53.5t-28 -47.5h-132z" />
    <glyph glyph-name="tcaron" unicode="&#x165;" horiz-adv-x="334" 
d="M478 749q-6 -25 -16 -51.5t-21.5 -51t-25.5 -46.5h-95v13q2 12 5 31t6 40t5 41.5t3 34.5h139v-11zM251 116q14 0 31 4.5t35 12.5v-115q-25 -14 -52 -21t-59 -7q-50 0 -81.5 20t-46 60.5t-14.5 101.5v258h-55v78l67 37l34 118h99v-113h101v-120h-101v-255q0 -29 10 -44
t32 -15z" />
    <glyph glyph-name="Tbar" unicode="&#x166;" horiz-adv-x="443" 
d="M147 0v293h-86v113h86v176h-132v132h412v-132h-130v-176h86v-113h-86v-293h-150z" />
    <glyph glyph-name="tbar" unicode="&#x167;" horiz-adv-x="334" 
d="M14 231v103h287v-103h-287zM251 116q14 0 31 4.5t35 12.5v-115q-25 -14 -52 -21t-59 -7q-50 0 -81.5 20t-46 60.5t-14.5 101.5v258h-55v78l67 37l34 118h99v-113h101v-120h-101v-255q0 -29 10 -44t32 -15z" />
    <glyph glyph-name="Utilde" unicode="&#x168;" horiz-adv-x="574" 
d="M516 238q0 -82 -26.5 -137.5t-77.5 -83t-126 -27.5q-110 0 -169 61t-59 184v479h152v-473q0 -63 19.5 -90t57.5 -27q27 0 44 11.5t25.5 37.5t8.5 69v472h151v-476zM119 769q1 23 4 50t12 51.5t26.5 40t45.5 15.5q20 0 38.5 -7.5t36 -17.5t34 -17t32.5 -7q14 0 20 13
t10 37h77q0 -77 -26 -117t-63 -40q-19 0 -39 7t-38 17t-34 17.5t-28 7.5q-9 0 -18.5 -11.5t-12.5 -38.5h-77z" />
    <glyph glyph-name="utilde" unicode="&#x169;" horiz-adv-x="514" 
d="M461 550v-550h-113l-17 69h-8q-12 -26 -30 -43.5t-40.5 -26.5t-51.5 -9q-48 0 -81.5 24t-50.5 69t-17 108v359h145v-313q0 -58 11 -88t37 -30q31 0 46 18.5t20 53.5t5 83v276h145zM90 605q1 23 4 50t12 51.5t26.5 40t45.5 15.5q20 0 38.5 -7.5t36 -17.5t34 -17t32.5 -7
q14 0 20 13t10 37h77q0 -77 -26 -117t-63 -40q-19 0 -39 7t-38 17t-34 17.5t-28 7.5q-9 0 -18.5 -11.5t-12.5 -38.5h-77z" />
    <glyph glyph-name="Umacron" unicode="&#x16a;" horiz-adv-x="574" 
d="M516 238q0 -82 -26.5 -137.5t-77.5 -83t-126 -27.5q-110 0 -169 61t-59 184v479h152v-473q0 -63 19.5 -90t57.5 -27q27 0 44 11.5t25.5 37.5t8.5 69v472h151v-476zM430 888v-105h-286v105h286z" />
    <glyph glyph-name="umacron" unicode="&#x16b;" horiz-adv-x="514" 
d="M461 550v-550h-113l-17 69h-8q-12 -26 -30 -43.5t-40.5 -26.5t-51.5 -9q-48 0 -81.5 24t-50.5 69t-17 108v359h145v-313q0 -58 11 -88t37 -30q31 0 46 18.5t20 53.5t5 83v276h145zM401 724v-105h-286v105h286z" />
    <glyph glyph-name="Ubreve" unicode="&#x16c;" horiz-adv-x="574" 
d="M516 238q0 -82 -26.5 -137.5t-77.5 -83t-126 -27.5q-110 0 -169 61t-59 184v479h152v-473q0 -63 19.5 -90t57.5 -27q27 0 44 11.5t25.5 37.5t8.5 69v472h151v-476zM438 941q0 -52 -20 -90.5t-54.5 -59t-77.5 -20.5q-66 0 -107.5 43t-42.5 127h86q2 -24 9.5 -39t21 -22.5
t33.5 -7.5t34.5 6.5t23 22t9.5 40.5h85z" />
    <glyph glyph-name="ubreve" unicode="&#x16d;" horiz-adv-x="514" 
d="M461 550v-550h-113l-17 69h-8q-12 -26 -30 -43.5t-40.5 -26.5t-51.5 -9q-48 0 -81.5 24t-50.5 69t-17 108v359h145v-313q0 -58 11 -88t37 -30q31 0 46 18.5t20 53.5t5 83v276h145zM408 777q0 -52 -20 -90.5t-54.5 -59t-77.5 -20.5q-66 0 -107.5 43t-42.5 127h86
q2 -24 9.5 -39t21 -22.5t33.5 -7.5t34.5 6.5t23 22t9.5 40.5h85z" />
    <glyph glyph-name="Uring" unicode="&#x16e;" horiz-adv-x="574" 
d="M516 238q0 -82 -26.5 -137.5t-77.5 -83t-126 -27.5q-110 0 -169 61t-59 184v479h152v-473q0 -63 19.5 -90t57.5 -27q27 0 44 11.5t25.5 37.5t8.5 69v472h151v-476zM287 769q-54 0 -87 33.5t-33 84.5q0 53 33 86t87 33q53 0 86.5 -33.5t33.5 -84.5q0 -50 -33 -84.5
t-87 -34.5zM287 845q19 0 31.5 12t12.5 31t-12.5 31t-31.5 12q-18 0 -30.5 -12t-12.5 -31t11 -31t32 -12z" />
    <glyph glyph-name="uring" unicode="&#x16f;" horiz-adv-x="514" 
d="M461 550v-550h-113l-17 69h-8q-12 -26 -30 -43.5t-40.5 -26.5t-51.5 -9q-48 0 -81.5 24t-50.5 69t-17 108v359h145v-313q0 -58 11 -88t37 -30q31 0 46 18.5t20 53.5t5 83v276h145zM258 605q-54 0 -87 33.5t-33 84.5q0 53 33 86t87 33q53 0 86.5 -33.5t33.5 -84.5
q0 -50 -33 -84.5t-87 -34.5zM258 681q19 0 31.5 12t12.5 31t-12.5 31t-31.5 12q-18 0 -30.5 -12t-12.5 -31t11 -31t32 -12z" />
    <glyph glyph-name="Uhungarumlaut" unicode="&#x170;" horiz-adv-x="574" 
d="M516 238q0 -82 -26.5 -137.5t-77.5 -83t-126 -27.5q-110 0 -169 61t-59 184v479h152v-473q0 -63 19.5 -90t57.5 -27q27 0 44 11.5t25.5 37.5t8.5 69v472h151v-476zM474 921q-7 -15 -21.5 -35t-33.5 -41t-39 -41t-37 -34h-74v13q17 34 31.5 62.5t25 50.5t15.5 34h133v-9z
M303 921q-7 -16 -21.5 -35.5t-33 -39.5t-39.5 -39.5t-42 -36.5h-68v13q17 35 31.5 63t25 49.5t15.5 34.5h132v-9z" />
    <glyph glyph-name="uhungarumlaut" unicode="&#x171;" horiz-adv-x="514" 
d="M461 550v-550h-113l-17 69h-8q-12 -26 -30 -43.5t-40.5 -26.5t-51.5 -9q-48 0 -81.5 24t-50.5 69t-17 108v359h145v-313q0 -58 11 -88t37 -30q31 0 46 18.5t20 53.5t5 83v276h145zM445 757q-7 -15 -21.5 -35t-33.5 -41t-39 -41t-37 -34h-74v13q17 34 31.5 62.5t25 50.5
t15.5 34h133v-9zM274 757q-7 -16 -21.5 -35.5t-33 -39.5t-39.5 -39.5t-42 -36.5h-68v13q17 35 31.5 63t25 49.5t15.5 34.5h132v-9z" />
    <glyph glyph-name="Uogonek" unicode="&#x172;" horiz-adv-x="574" 
d="M352 -101q0 -18 10.5 -27.5t25.5 -9.5q10 0 24.5 3.5t21.5 6.5v-97q-16 -6 -38 -9t-40 -3q-60 0 -87.5 29.5t-27.5 79.5q0 24 8 45t25 42t43 41l132 45q-36 -35 -57 -61.5t-30.5 -47t-9.5 -37.5zM516 238q0 -82 -26.5 -137.5t-77.5 -83t-126 -27.5q-110 0 -169 61
t-59 184v479h152v-473q0 -63 19.5 -90t57.5 -27q27 0 44 11.5t25.5 37.5t8.5 69v472h151v-476z" />
    <glyph glyph-name="uogonek" unicode="&#x173;" horiz-adv-x="514" 
d="M461 550v-550h-113l-17 69h-8q-12 -26 -30 -43.5t-40.5 -26.5t-51.5 -9q-48 0 -81.5 24t-50.5 69t-17 108v359h145v-313q0 -58 11 -88t37 -30q31 0 46 18.5t20 53.5t5 83v276h145zM386 -98q0 -17 11 -29.5t30 -12.5q14 0 22.5 3t15.5 7v-93q-11 -5 -29 -9.5t-40 -4.5
q-61 0 -91 28.5t-30 78.5q0 24 8.5 48.5t28 49.5t50.5 48l76 -16q-32 -34 -42 -54.5t-10 -43.5z" />
    <glyph glyph-name="Wcircumflex" unicode="&#x174;" horiz-adv-x="791" 
d="M790 714l-138 -714h-174l-58 306q-4 21 -7.5 42.5t-6.5 44.5t-6 47.5t-5 49.5q-1 -19 -4 -42t-6 -47.5t-6.5 -48.5t-7.5 -45l-58 -307h-173l-139 714h148l59 -338q3 -20 6.5 -44.5t7.5 -51t7 -53t5 -50.5q3 26 7 53.5t8 54t8.5 49.5t7.5 40l68 340h125l63 -339
q4 -19 8.5 -43.5t8 -51t7 -52.5t6.5 -51q3 30 7 63t9.5 68.5t10.5 67.5l60 338h152zM461 930q12 -22 26.5 -46t32 -49.5t36.5 -51.5v-13h-88q-16 14 -34.5 33t-38.5 44q-22 -25 -40 -45t-32 -32h-89v13q15 19 33.5 46.5t35.5 55t26 45.5h132z" />
    <glyph glyph-name="wcircumflex" unicode="&#x175;" horiz-adv-x="709" 
d="M374 261q-3 17 -5.5 36.5l-5 39t-4.5 38.5t-4 36h-3q-3 -19 -5.5 -39.5t-4.5 -40t-4.5 -37t-5.5 -32.5l-47 -262h-164l-115 550h144l34 -193q5 -27 9.5 -59t7.5 -64.5t5 -64.5h3l4 40t5 42.5t7 46t9 49.5l37 203h167l36 -206q6 -32 10 -63.5t8 -59.5t6 -52h4q2 27 4.5 57
t6.5 60t9 59l38 205h142l-116 -550h-167zM420 766q12 -22 26.5 -46t32 -49.5t36.5 -51.5v-13h-88q-16 14 -34.5 33t-38.5 44q-22 -25 -40 -45t-32 -32h-89v13q15 19 33.5 46.5t35.5 55t26 45.5h132z" />
    <glyph glyph-name="Ycircumflex" unicode="&#x176;" horiz-adv-x="498" 
d="M250 438l91 276h157l-173 -439v-275h-152v270l-173 444h158zM315 930q12 -22 26.5 -46t32 -49.5t36.5 -51.5v-13h-88q-16 14 -34.5 33t-38.5 44q-22 -25 -40 -45t-32 -32h-89v13q15 19 33.5 46.5t35.5 55t26 45.5h132z" />
    <glyph glyph-name="ycircumflex" unicode="&#x177;" horiz-adv-x="466" 
d="M3 550h151l61 -254q5 -17 8.5 -34.5t6.5 -34t3 -30.5h4q2 19 7 42.5t12 55.5l57 255h150l-165 -595q-19 -70 -45 -113.5t-61.5 -62.5t-82.5 -19q-17 0 -33.5 2t-32.5 6v127q10 -3 20 -4.5t20 -1.5q20 0 32 7.5t22 28t21 60.5l6 22zM299 766q12 -22 26.5 -46t32 -49.5
t36.5 -51.5v-13h-88q-16 14 -34.5 33t-38.5 44q-22 -25 -40 -45t-32 -32h-89v13q15 19 33.5 46.5t35.5 55t26 45.5h132z" />
    <glyph glyph-name="Ydieresis" unicode="&#x178;" horiz-adv-x="498" 
d="M250 438l91 276h157l-173 -439v-275h-152v270l-173 444h158zM89 849q0 35 18 53.5t47 18.5q31 0 49 -19t18 -53q0 -32 -18 -51t-49 -19q-29 0 -47 18.5t-18 51.5zM276 849q0 35 18 53.5t48 18.5q31 0 48.5 -19t17.5 -53q0 -32 -17.5 -51t-49.5 -19q-30 0 -47.5 19
t-17.5 51z" />
    <glyph glyph-name="Zacute" unicode="&#x179;" horiz-adv-x="448" 
d="M427 0h-405v108l235 476h-230v130h394v-108l-234 -475h240v-131zM388 921q-10 -14 -26.5 -33t-35.5 -40t-39 -41t-38 -37h-105v13q17 27 31.5 52t26.5 49t22 46h164v-9z" />
    <glyph glyph-name="zacute" unicode="&#x17a;" horiz-adv-x="378" 
d="M360 0h-342v89l172 339h-162v122h324v-97l-165 -332h173v-121zM357 757q-10 -14 -26.5 -33t-35.5 -40t-39 -41t-38 -37h-105v13q17 27 31.5 52t26.5 49t22 46h164v-9z" />
    <glyph glyph-name="Zdotaccent" unicode="&#x17b;" horiz-adv-x="448" 
d="M427 0h-405v108l235 476h-230v130h394v-108l-234 -475h240v-131zM231 932q41 0 59.5 -20t18.5 -59t-19.5 -58.5t-58.5 -19.5q-38 0 -58 19.5t-20 58.5q0 40 18.5 59.5t59.5 19.5z" />
    <glyph glyph-name="zdotaccent" unicode="&#x17c;" horiz-adv-x="378" 
d="M360 0h-342v89l172 339h-162v122h324v-97l-165 -332h173v-121zM200 768q41 0 59.5 -20t18.5 -59t-19.5 -58.5t-58.5 -19.5q-38 0 -58 19.5t-20 58.5q0 40 18.5 59.5t59.5 19.5z" />
    <glyph glyph-name="Zcaron" unicode="&#x17d;" horiz-adv-x="448" 
d="M427 0h-405v108l235 476h-230v130h394v-108l-234 -475h240v-131zM159 770q-9 19 -26 46.5t-36 55t-33 45.5v13h89q16 -14 34 -33.5t38 -43.5q22 26 39 44t34 33h88v-13q-14 -19 -32 -46t-35 -53.5t-28 -47.5h-132z" />
    <glyph glyph-name="zcaron" unicode="&#x17e;" horiz-adv-x="378" 
d="M360 0h-342v89l172 339h-162v122h324v-97l-165 -332h173v-121zM128 606q-9 19 -26 46.5t-36 55t-33 45.5v13h89q16 -14 34 -33.5t38 -43.5q22 26 39 44t34 33h88v-13q-14 -19 -32 -46t-35 -53.5t-28 -47.5h-132z" />
    <glyph glyph-name="longs" unicode="&#x17f;" horiz-adv-x="297" 
d="M248 643q-20 0 -27.5 -16t-8.5 -54v-573h-145v562q0 71 15.5 116t48.5 66t85 21q29 0 54.5 -5.5t57.5 -18.5l-28 -108q-13 5 -26.5 7.5t-25.5 2.5z" />
    <glyph glyph-name="fhook" unicode="&#x192;" horiz-adv-x="430" 
d="M165 -243q-87 0 -131.5 43.5t-44.5 114.5q0 20 3.5 39.5t8.5 29.5l112 -32q-1 -6 -2 -11.5t-1 -13.5q0 -26 12 -37t29 -11q18 0 27.5 15t9.5 43v493h-62v78l62 41v13q0 71 15.5 116t48 66t84.5 21q31 0 55.5 -5.5t58.5 -18.5l-30 -108q-13 5 -25.5 7.5t-25.5 2.5
q-19 0 -27.5 -16t-8.5 -54v-23h89v-120h-89v-482q0 -58 -20 -101t-58 -66.5t-90 -23.5z" />
    <glyph glyph-name="Aringacute" unicode="&#x1fa;" horiz-adv-x="548" 
d="M170 660q-7 11 -12 24t-5 29q0 52 33 85.5t88 33.5q52 0 86 -34t34 -84q0 -16 -5 -29.5t-13 -24.5l172 -660h-163l-31 149h-159l-30 -149h-165zM218 281h112l-35 165q-4 23 -8.5 50t-7.5 51.5t-5 38.5q-1 -12 -3.5 -28t-5 -34t-5.5 -36t-5 -35zM274 670q18 0 30.5 12.5
t12.5 31.5t-12.5 31t-30.5 12q-19 0 -31.5 -12t-12.5 -31t11 -31.5t33 -12.5zM199 873q28 33 40 48t18 23.5t11 18.5h174v-7q-9 -8 -25.5 -21t-35.5 -26t-35.5 -25.5t-27.5 -18.5h-119v8z" />
    <glyph glyph-name="aringacute" unicode="&#x1fb;" horiz-adv-x="478" 
d="M255 560q82 0 126.5 -49.5t44.5 -148.5v-362h-106l-23 73h-3q-17 -28 -36.5 -46.5t-44 -27.5t-57.5 -9q-46 0 -74.5 25t-41.5 65t-13 85q0 87 47.5 130.5t136.5 47.5l70 3v18q0 40 -13.5 60t-43.5 20q-23 0 -51.5 -9.5t-63.5 -30.5l-39 108q39 23 86 35.5t99 12.5z
M247 249q-37 -2 -56 -21.5t-19 -56.5q0 -33 11.5 -49t33.5 -16q28 0 46 26t18 69v50zM244 751q-18 0 -31 -12t-13 -31t11.5 -31.5t31.5 -12.5q19 0 31.5 12.5t12.5 31.5t-12.5 31t-30.5 12zM243 826q35 0 63 -15t44.5 -41.5t16.5 -60.5q0 -51 -35 -85t-89 -34t-87 33t-33 85
t33 85t87 33zM419 956q-12 -13 -37 -34.5t-49.5 -41.5t-37.5 -29h-120v9q27 35 39 52.5t18.5 28t12.5 21.5h174v-6z" />
    <glyph glyph-name="AEacute" unicode="&#x1fc;" horiz-adv-x="715" 
d="M674 0h-330v157h-138l-44 -157h-166l219 714h459v-130h-180v-149h166v-130h-166v-174h180v-131zM241 288h103v296h-23zM521 921q-10 -14 -26.5 -33t-35.5 -40t-39 -41t-38 -37h-105v13q17 27 31.5 52t26.5 49t22 46h164v-9z" />
    <glyph glyph-name="aeacute" unicode="&#x1fd;" horiz-adv-x="709" 
d="M482 559q65 0 108.5 -30t65.5 -85.5t22 -134.5v-78h-261q0 -64 24 -94.5t74 -30.5q37 0 69 10t68 32v-119q-34 -20 -71 -29.5t-83 -9.5q-36 0 -69.5 10t-60 30t-44.5 51q-20 -30 -44 -50.5t-51.5 -30.5t-59.5 -10q-50 0 -81 25t-46 65t-15 85q0 58 21.5 96.5t62.5 59
t100 22.5l70 3v18q0 40 -14 60t-43 20q-23 0 -51.5 -9.5t-63.5 -30.5l-39 108q37 23 80.5 35.5t87.5 12.5q42 0 71.5 -13.5t48.5 -40.5q22 27 52.5 40t71.5 13zM247 249q-37 -2 -56 -21.5t-19 -56.5q0 -33 11.5 -49t33.5 -16q19 0 33 11.5t22.5 33.5t8.5 50v50zM482 446
q-28 0 -46 -26t-19 -86h127q0 37 -7.5 62t-21.5 37.5t-33 12.5zM524 757q-10 -14 -26.5 -33t-35.5 -40t-39 -41t-38 -37h-105v13q17 27 31.5 52t26.5 49t22 46h164v-9z" />
    <glyph glyph-name="Oslashacute" unicode="&#x1fe;" horiz-adv-x="606" 
d="M565 358q0 -90 -17 -158.5t-50 -115t-82 -70.5t-113 -24q-34 0 -63.5 7.5t-55.5 21.5l-34 -71l-73 34l43 88q-43 58 -61 129t-18 160q0 120 30 201.5t88.5 123t143.5 41.5q36 0 67 -8t57 -24l31 62l73 -34l-40 -81q37 -46 55.5 -117t18.5 -165zM411 358q0 63 -9 111
l-160 -324q13 -14 28 -20.5t33 -6.5q36 0 60 26.5t36 80t12 133.5zM195 358q0 -36 2.5 -66.5t8.5 -55.5l163 328q-13 17 -29 25t-36 8q-36 0 -60.5 -26.5t-36.5 -80t-12 -132.5zM467 921q-10 -14 -26.5 -33t-35.5 -40t-39 -41t-38 -37h-105v13q17 27 31.5 52t26.5 49t22 46
h164v-9z" />
    <glyph glyph-name="oslashacute" unicode="&#x1ff;" horiz-adv-x="501" 
d="M466 276q0 -89 -25.5 -153.5t-73.5 -98.5t-118 -34q-24 0 -45.5 5t-41.5 15l-33 -69l-71 33l42 84q-35 45 -50.5 98t-15.5 120q0 135 57 209.5t160 74.5q26 0 47.5 -5.5t40.5 -16.5l29 57l70 -33l-35 -72q31 -37 47 -92t16 -122zM174 274q0 -20 1 -38.5t3 -33.5l114 227
q-8 9 -18.5 13t-23.5 4q-40 0 -58 -42.5t-18 -129.5zM327 276q0 20 -1 37t-2 31l-113 -226q8 -7 17.5 -11t21.5 -4q29 0 46 19.5t24 58.5t7 95zM415 757q-10 -14 -26.5 -33t-35.5 -40t-39 -41t-38 -37h-105v13q17 27 31.5 52t26.5 49t22 46h164v-9z" />
    <glyph glyph-name="uni0218" unicode="&#x218;" horiz-adv-x="445" 
d="M418 213q0 -65 -27 -115.5t-75 -79t-115 -28.5q-30 0 -58.5 3.5t-56 13t-56.5 25.5v155q41 -27 83.5 -41.5t79.5 -14.5q24 0 39.5 9t23 24t7.5 33q0 20 -6.5 36t-26 33.5t-59.5 40.5q-31 19 -56.5 39t-43 44t-27 55.5t-9.5 73.5q0 63 24.5 108.5t71 71.5t113.5 25
q44 0 87 -12t86 -36l-42 -134q-35 22 -66.5 33t-58.5 11q-21 0 -34.5 -8t-20.5 -21t-7 -30q0 -22 7 -38t28 -32t62 -40q44 -26 73.5 -55.5t44.5 -65.5t15 -83zM289 -72q-7 -25 -17 -51.5t-22 -51t-26 -46.5h-95v13q4 17 8.5 44t8 55t4.5 48h139v-11z" />
    <glyph glyph-name="uni0219" unicode="&#x219;" horiz-adv-x="384" 
d="M359 165q0 -57 -22 -96.5t-62.5 -59t-97.5 -19.5q-40 0 -77.5 7.5t-71.5 23.5v138q27 -18 63 -31t72 -13q25 0 38 10t13 32q0 11 -5 21.5t-22.5 23.5t-54.5 31q-34 18 -57.5 42t-35.5 55.5t-12 70.5q0 74 45.5 116.5t127.5 42.5q42 0 78.5 -11.5t73.5 -33.5l-38 -111
q-24 17 -51 28t-54 11q-21 0 -32 -9t-11 -26q0 -12 5.5 -20.5t22.5 -20.5t52 -33q34 -19 59 -42t39.5 -54t14.5 -73zM259 -72q-7 -25 -17 -51.5t-22 -51t-26 -46.5h-95v13q4 17 8.5 44t8 55t4.5 48h139v-11z" />
    <glyph glyph-name="circumflex" unicode="&#x2c6;" horiz-adv-x="402" 
d="M267 766q12 -22 26.5 -46t32 -49.5t36.5 -51.5v-13h-88q-16 14 -34.5 33t-38.5 44q-22 -25 -40 -45t-32 -32h-89v13q15 19 33.5 46.5t35.5 55t26 45.5h132z" />
    <glyph glyph-name="caron" unicode="&#x2c7;" horiz-adv-x="402" 
d="M135 606q-9 19 -26 46.5t-36 55t-33 45.5v13h89q16 -14 34 -33.5t38 -43.5q22 26 39 44t34 33h88v-13q-14 -19 -32 -46t-35 -53.5t-28 -47.5h-132z" />
    <glyph glyph-name="macronmod" unicode="&#x2c9;" horiz-adv-x="366" 
d="M326 724v-105h-286v105h286z" />
    <glyph glyph-name="breve" unicode="&#x2d8;" horiz-adv-x="382" 
d="M342 777q0 -52 -20 -90.5t-54.5 -59t-77.5 -20.5q-66 0 -107.5 43t-42.5 127h86q2 -24 9.5 -39t21 -22.5t33.5 -7.5t34.5 6.5t23 22t9.5 40.5h85z" />
    <glyph glyph-name="dotaccent" unicode="&#x2d9;" horiz-adv-x="236" 
d="M118 768q41 0 59.5 -20t18.5 -59t-19.5 -58.5t-58.5 -19.5q-38 0 -58 19.5t-20 58.5q0 40 18.5 59.5t59.5 19.5z" />
    <glyph glyph-name="ring" unicode="&#x2da;" horiz-adv-x="320" 
d="M160 605q-54 0 -87 33.5t-33 84.5q0 53 33 86t87 33q53 0 86.5 -33.5t33.5 -84.5q0 -50 -33 -84.5t-87 -34.5zM160 681q19 0 31.5 12t12.5 31t-12.5 31t-31.5 12q-18 0 -30.5 -12t-12.5 -31t11 -31t32 -12z" />
    <glyph glyph-name="ogonek" unicode="&#x2db;" horiz-adv-x="270" 
d="M151 -98q0 -17 11 -29.5t30 -12.5q14 0 22.5 3t15.5 7v-93q-11 -5 -29 -9.5t-40 -4.5q-61 0 -91 28.5t-30 78.5q0 24 8.5 48.5t28 49.5t50.5 48l76 -16q-32 -34 -42 -54.5t-10 -43.5z" />
    <glyph glyph-name="tilde" unicode="&#x2dc;" horiz-adv-x="416" 
d="M40 605q1 23 4 50t12 51.5t26.5 40t45.5 15.5q20 0 38.5 -7.5t36 -17.5t34 -17t32.5 -7q14 0 20 13t10 37h77q0 -77 -26 -117t-63 -40q-19 0 -39 7t-38 17t-34 17.5t-28 7.5q-9 0 -18.5 -11.5t-12.5 -38.5h-77z" />
    <glyph glyph-name="hungarumlaut" unicode="&#x2dd;" horiz-adv-x="455" 
d="M415 757q-7 -15 -21.5 -35t-33.5 -41t-39 -41t-37 -34h-74v13q17 34 31.5 62.5t25 50.5t15.5 34h133v-9zM244 757q-7 -16 -21.5 -35.5t-33 -39.5t-39.5 -39.5t-42 -36.5h-68v13q17 35 31.5 63t25 49.5t15.5 34.5h132v-9z" />
    <glyph glyph-name="tonos" unicode="&#x384;" horiz-adv-x="287" 
d="M40 606v13l47 157h160v-9l-107 -161h-100z" />
    <glyph glyph-name="dieresistonos" unicode="&#x385;" horiz-adv-x="633" 
d="M228 606v13l37 157h160v-9l-96 -161h-101zM142 615q-29 0 -47 18.5t-18 51.5q0 35 18 53.5t47 18.5q31 0 49 -19t18 -53q0 -32 -18 -51t-49 -19zM489 615q-30 0 -48 19t-18 51q0 35 18 53.5t48 18.5q31 0 49 -19t18 -53q0 -32 -18 -51t-49 -19z" />
    <glyph glyph-name="Alphatonos" unicode="&#x386;" horiz-adv-x="659" 
d="M496 0l-33 157h-157l-32 -157h-164l173 714h199l176 -714h-162zM405 464q-4 25 -7.5 49t-6.5 45.5t-6 40.5q-2 -18 -5 -39.5t-7 -45t-9 -48.5l-35 -178h111zM10 544v13l47 157h160v-9l-107 -161h-100z" />
    <glyph glyph-name="anoteleia" unicode="&#x387;" horiz-adv-x="263" 
d="M48 470q0 42 22 64.5t63 22.5q40 0 61.5 -22.5t21.5 -64.5t-22 -64.5t-61 -22.5t-62 22.5t-23 64.5z" />
    <glyph glyph-name="Epsilontonos" unicode="&#x388;" horiz-adv-x="651" 
d="M609 0h-331v714h331v-129h-179v-150h166v-130h-166v-174h179v-131zM10 544v13l47 157h160v-9l-107 -161h-100z" />
    <glyph glyph-name="Etatonos" unicode="&#x389;" horiz-adv-x="809" 
d="M747 0h-152v306h-165v-306h-152v714h152v-277h165v277h152v-714zM10 544v13l47 157h160v-9l-107 -161h-100z" />
    <glyph glyph-name="Iotatonos" unicode="&#x38a;" horiz-adv-x="575" 
d="M548 0h-285v82l67 31v488l-67 31v82h285v-82l-66 -31v-488l66 -31v-82zM10 544v13l47 157h160v-9l-107 -161h-100z" />
    <glyph glyph-name="Omicrontonos" unicode="&#x38c;" horiz-adv-x="772" 
d="M731 358q0 -87 -16.5 -155.5t-49 -116t-82 -72t-114.5 -24.5q-64 0 -113.5 25t-82.5 72.5t-49.5 116t-16.5 155.5q0 120 30 201.5t88.5 123t143.5 41.5q88 0 146 -43t87 -125t29 -199zM365 358q0 -78 11.5 -130t35 -78t57.5 -26q35 0 58 25.5t34.5 77t11.5 131.5
q0 119 -26 177.5t-78 58.5q-34 0 -57.5 -26.5t-35 -79t-11.5 -130.5zM10 544v13l47 157h160v-9l-107 -161h-100z" />
    <glyph glyph-name="Upsilontonos" unicode="&#x38e;" horiz-adv-x="764" 
d="M516 438l91 276h157l-173 -439v-275h-152v270l-173 444h158zM10 544v13l47 157h160v-9l-107 -161h-100z" />
    <glyph glyph-name="Omegatonos" unicode="&#x38f;" horiz-adv-x="732" 
d="M190 0v131h117q-41 26 -66.5 65.5t-37.5 92t-12 114.5q0 100 31 172t90 111t142 39q79 0 137.5 -38.5t91 -110.5t32.5 -173q0 -62 -11.5 -113.5t-37.5 -91t-69 -67.5h120v-131h-232v146q28 25 45 60.5t25 83t8 107.5q0 66 -12 109.5t-36 65.5t-61 22t-61 -22t-36 -66
t-12 -110q0 -61 6.5 -108.5t23.5 -82.5t46 -59v-146h-231zM10 544v13l47 157h160v-9l-107 -161h-100z" />
    <glyph glyph-name="iotadieresistonos" unicode="&#x390;" horiz-adv-x="302" 
d="M208 -10q-48 1 -83 20.5t-53.5 61t-18.5 105.5v373h145v-363q0 -35 11 -53t33 -18q10 0 21 2.5t22 6.5v-124q-18 -6 -38 -8.5t-39 -2.5zM79 606v13l37 157h160v-9l-96 -161h-101zM-7 615q-29 0 -47 18.5t-18 51.5q0 35 18 53.5t47 18.5q31 0 49 -19t18 -53q0 -32 -18 -51
t-49 -19zM340 615q-30 0 -48 19t-18 51q0 35 18 53.5t48 18.5q31 0 49 -19t18 -53q0 -32 -18 -51t-49 -19z" />
    <glyph glyph-name="Alpha" unicode="&#x391;" horiz-adv-x="548" 
d="M386 0l-33 157h-157l-32 -157h-164l173 714h199l176 -714h-162zM295 464q-4 25 -7.5 49t-6.5 45.5t-6 40.5q-2 -18 -5 -39.5t-7 -45t-9 -48.5l-35 -178h111z" />
    <glyph glyph-name="Beta" unicode="&#x392;" horiz-adv-x="541" 
d="M258 714q116 0 172.5 -43.5t56.5 -133.5q0 -41 -11.5 -73.5t-33 -54.5t-50.5 -30v-5q38 -10 61.5 -32.5t34.5 -55.5t11 -78q0 -64 -26.5 -110.5t-75.5 -72t-117 -25.5h-218v714h196zM258 430q37 0 56 21.5t19 63.5q0 37 -19 56t-58 19h-42v-160h44zM214 310v-183h54
q38 0 57 23t19 70q0 30 -9.5 49.5t-27 30t-43.5 10.5h-50z" />
    <glyph glyph-name="Gamma" unicode="&#x393;" horiz-adv-x="414" 
d="M62 0v714h319v-129h-167v-585h-152z" />
    <glyph glyph-name="uni0394" unicode="&#x394;" horiz-adv-x="548" 
d="M10 0v78l163 636h199l166 -637v-77h-528zM181 131h187l-69 333q-5 25 -9.5 49t-8 45.5t-6.5 40.5q-2 -18 -6 -39.5t-8.5 -45t-10.5 -48.5z" />
    <glyph glyph-name="Epsilon" unicode="&#x395;" horiz-adv-x="434" 
d="M393 0h-331v714h331v-129h-179v-150h166v-130h-166v-174h179v-131z" />
    <glyph glyph-name="Zeta" unicode="&#x396;" horiz-adv-x="448" 
d="M427 0h-405v108l235 476h-230v130h394v-108l-234 -475h240v-131z" />
    <glyph glyph-name="Eta" unicode="&#x397;" horiz-adv-x="593" 
d="M531 0h-152v306h-165v-306h-152v714h152v-277h165v277h152v-714z" />
    <glyph glyph-name="Theta" unicode="&#x398;" horiz-adv-x="606" 
d="M233 302v122h140v-122h-140zM565 358q0 -87 -16.5 -155.5t-49 -116t-82 -72t-114.5 -24.5t-114 25t-82 72.5t-49.5 116t-16.5 155.5q0 119 30 201t88.5 123.5t143.5 41.5q88 0 146 -43t87 -125t29 -199zM199 358q0 -78 11.5 -130t35 -78t57.5 -26q35 0 58 25.5t34.5 77
t11.5 131.5q0 119 -26 177.5t-77 58.5q-35 0 -58.5 -26.5t-35 -78.5t-11.5 -131z" />
    <glyph glyph-name="Iota" unicode="&#x399;" horiz-adv-x="339" 
d="M312 0h-285v82l67 31v488l-67 31v82h285v-82l-66 -31v-488l66 -31v-82z" />
    <glyph glyph-name="Kappa" unicode="&#x39a;" horiz-adv-x="530" 
d="M538 0h-169l-113 279l-42 -34v-245h-152v714h152v-320q5 20 15.5 43t24.5 50l121 227h163l-173 -319z" />
    <glyph glyph-name="Lambda" unicode="&#x39b;" horiz-adv-x="548" 
d="M0 0l173 714h199l176 -714h-162l-91 464q-4 25 -7.5 49t-6.5 45.5t-6 40.5q-2 -18 -5 -39.5t-7 -45t-9 -48.5l-90 -466h-164z" />
    <glyph glyph-name="Mu" unicode="&#x39c;" horiz-adv-x="788" 
d="M333 0l-132 505h-4q3 -32 4.5 -61.5t2 -55t0.5 -47.5v-341h-142v714h209l122 -461h3l123 461h207v-714h-145v343q0 24 0.5 49.5t2 53.5t3.5 59h-4l-134 -505h-116z" />
    <glyph glyph-name="Nu" unicode="&#x39d;" horiz-adv-x="638" 
d="M576 0h-178l-198 473h-4q3 -37 5 -69t2.5 -57.5t0.5 -46.5v-300h-142v714h177l198 -462h3q-2 35 -3.5 65.5t-2.5 56t-1 45.5v295h143v-714z" />
    <glyph glyph-name="Xi" unicode="&#x39e;" horiz-adv-x="493" 
d="M41 0v131h411v-131h-411zM84 309v131h325v-131h-325zM56 583v131h382v-131h-382z" />
    <glyph glyph-name="Omicron" unicode="&#x39f;" horiz-adv-x="606" 
d="M565 358q0 -87 -16.5 -155.5t-49 -116t-82 -72t-114.5 -24.5q-64 0 -113.5 25t-82.5 72.5t-49.5 116t-16.5 155.5q0 120 30 201.5t88.5 123t143.5 41.5q88 0 146 -43t87 -125t29 -199zM199 358q0 -78 11.5 -130t35 -78t57.5 -26q35 0 58 25.5t34.5 77t11.5 131.5
q0 119 -26 177.5t-78 58.5q-34 0 -57.5 -26.5t-35 -79t-11.5 -130.5z" />
    <glyph glyph-name="Pi" unicode="&#x3a0;" horiz-adv-x="593" 
d="M62 0v714h469v-714h-152v582h-165v-582h-152z" />
    <glyph glyph-name="Rho" unicode="&#x3a1;" horiz-adv-x="504" 
d="M257 714q109 0 163.5 -57.5t54.5 -166.5q0 -54 -14 -98.5t-41.5 -77.5t-70 -50.5t-99.5 -17.5h-36v-246h-152v714h195zM244 585h-30v-210h20q29 0 48.5 11.5t30 36.5t10.5 66q0 49 -19.5 72.5t-59.5 23.5z" />
    <glyph glyph-name="Sigma" unicode="&#x3a3;" horiz-adv-x="447" 
d="M22 0v124l151 250l-145 220v120h393v-129h-135q-28 0 -52.5 1t-38.5 3l130 -192v-30l-147 -241q25 3 49.5 4t44.5 1h154v-131h-404z" />
    <glyph glyph-name="Tau" unicode="&#x3a4;" horiz-adv-x="443" 
d="M297 0h-150v582h-132v132h412v-132h-130v-582z" />
    <glyph glyph-name="Upsilon" unicode="&#x3a5;" horiz-adv-x="498" 
d="M250 438l91 276h157l-173 -439v-275h-152v270l-173 444h158z" />
    <glyph glyph-name="Phi" unicode="&#x3a6;" horiz-adv-x="755" 
d="M304 -10v100q-71 0 -122.5 20.5t-85 58t-49.5 89t-16 113.5q0 56 14.5 106t46.5 88t84.5 59.5t127.5 21.5v78h147v-78q69 0 120.5 -21.5t85.5 -59.5t50.5 -88t16.5 -107q0 -61 -17 -112t-50.5 -88.5t-85 -58.5t-120.5 -21v-100h-147zM304 216v304q-46 0 -73 -18t-39 -51
t-12 -79q0 -53 12.5 -87.5t39.5 -51.5t72 -17zM450 216q46 0 73 18.5t39 53t12 84.5q0 44 -12.5 77t-39.5 52t-72 19v-304z" />
    <glyph glyph-name="Chi" unicode="&#x3a7;" horiz-adv-x="495" 
d="M495 0h-164l-84 224l-88 -224h-159l160 360l-149 354h158l74 -213l72 213h160l-145 -350z" />
    <glyph glyph-name="Psi" unicode="&#x3a8;" horiz-adv-x="718" 
d="M286 0v168q-53 2 -95 16t-72 42.5t-45.5 73t-15.5 107.5v307h152v-311q0 -38 8 -61t24.5 -33t43.5 -10v415h147v-415q29 0 45.5 10.5t23 33t6.5 58.5v313h153v-296q0 -85 -28.5 -140t-79.5 -81.5t-120 -28.5v-168h-147z" />
    <glyph glyph-name="uni03A9" unicode="&#x3a9;" horiz-adv-x="555" 
d="M14 0v131h117q-41 26 -66.5 65.5t-37.5 92t-12 114.5q0 100 31 172t90 111t142 39q79 0 137.5 -38.5t91 -110.5t32.5 -173q0 -62 -11.5 -113.5t-37.5 -91t-69 -67.5h120v-131h-232v146q28 25 45 60.5t25 83t8 107.5q0 66 -12 109.5t-36 65.5t-61 22t-61 -22t-36 -66
t-12 -110q0 -61 6.5 -108.5t23.5 -82.5t46 -59v-146h-231z" />
    <glyph glyph-name="Iotadieresis" unicode="&#x3aa;" horiz-adv-x="339" 
d="M312 0h-285v82l67 31v488l-67 31v82h285v-82l-66 -31v-488l66 -31v-82zM9 849q0 35 18 53.5t47 18.5q31 0 49 -19t18 -53q0 -32 -18 -51t-49 -19q-29 0 -47 18.5t-18 51.5zM196 849q0 35 18 53.5t48 18.5q31 0 48.5 -19t17.5 -53q0 -32 -17.5 -51t-49.5 -19
q-30 0 -47.5 19t-17.5 51z" />
    <glyph glyph-name="Upsilondieresis" unicode="&#x3ab;" horiz-adv-x="498" 
d="M250 438l91 276h157l-173 -439v-275h-152v270l-173 444h158zM89 849q0 35 18 53.5t47 18.5q31 0 49 -19t18 -53q0 -32 -18 -51t-49 -19q-29 0 -47 18.5t-18 51.5zM276 849q0 35 18 53.5t48 18.5q31 0 48.5 -19t17.5 -53q0 -32 -17.5 -51t-49.5 -19q-30 0 -47.5 19
t-17.5 51z" />
    <glyph glyph-name="alphatonos" unicode="&#x3ac;" horiz-adv-x="536" 
d="M193 -10q-50 0 -85.5 34t-54.5 97.5t-19 150.5q0 135 43 211.5t124 76.5q31 0 51 -10.5t34.5 -28.5t26.5 -41h8l12 70h125v-373q0 -30 9 -46t25 -16q8 0 14.5 1.5t11.5 3.5v-118q-3 -3 -14.5 -5.5t-24.5 -4.5t-21 -2q-55 0 -87 19.5t-49 62.5h-9q-14 -27 -32 -45
t-39.5 -27.5t-48.5 -9.5zM245 115q23 0 38 14t22.5 46t7.5 86v17q0 83 -16.5 120t-54.5 37q-30 0 -45.5 -42.5t-15.5 -121.5q0 -80 15.5 -118t48.5 -38zM184 606v13l47 157h160v-9l-107 -161h-100z" />
    <glyph glyph-name="epsilontonos" unicode="&#x3ad;" horiz-adv-x="392" 
d="M218 -10q-96 0 -145 44.5t-49 119.5q0 38 14 65t38 43.5t52 22.5v5q-41 12 -61.5 44.5t-20.5 76.5q0 46 21.5 79t61.5 51.5t95 18.5q35 0 69.5 -7.5t74.5 -31.5l-37 -108q-23 16 -44.5 23t-41.5 7q-33 0 -48 -15t-15 -37q0 -23 16 -38t49 -15h49v-112h-50q-29 0 -46.5 -7
t-25 -19.5t-7.5 -29.5q0 -30 20.5 -44t55.5 -14q40 0 68 10.5t58 32.5v-124q-36 -23 -73 -32t-78 -9zM164 606v13l47 157h160v-9l-107 -161h-100z" />
    <glyph glyph-name="etatonos" unicode="&#x3ae;" horiz-adv-x="506" 
d="M309 -240v557q0 56 -8.5 85t-40.5 29q-23 0 -36.5 -16.5t-19.5 -54t-6 -102.5v-258h-145v550h114l16 -69h9q12 26 29.5 43.5t40 26.5t46.5 9q49 0 81.5 -23.5t48.5 -67t16 -108.5v-601h-145zM186 606v13l47 157h160v-9l-107 -161h-100z" />
    <glyph glyph-name="iotatonos" unicode="&#x3af;" horiz-adv-x="302" 
d="M208 -10q-48 1 -83 20.5t-53.5 61t-18.5 105.5v373h145v-363q0 -35 11 -53t33 -18q10 0 21 2.5t22 6.5v-124q-18 -6 -38 -8.5t-39 -2.5zM79 606v13l47 157h160v-9l-107 -161h-100z" />
    <glyph glyph-name="upsilondieresistonos" unicode="&#x3b0;" horiz-adv-x="506" 
d="M242 -9q-53 0 -89.5 14.5t-58.5 42.5t-32 68t-10 91v343h145v-334q0 -31 3 -52.5t13 -33t33 -11.5q24 0 38.5 17.5t21 55t6.5 99.5q0 60 -7.5 124t-21.5 135h144q12 -53 18.5 -94.5t9 -80t2.5 -83.5q0 -151 -55 -226t-160 -75zM195 606v13l37 157h160v-9l-96 -161h-101z
M109 615q-29 0 -47 18.5t-18 51.5q0 35 18 53.5t47 18.5q31 0 49 -19t18 -53q0 -32 -18 -51t-49 -19zM456 615q-30 0 -48 19t-18 51q0 35 18 53.5t48 18.5q31 0 49 -19t18 -53q0 -32 -18 -51t-49 -19z" />
    <glyph glyph-name="alpha" unicode="&#x3b1;" horiz-adv-x="536" 
d="M193 -10q-50 0 -85.5 34t-54.5 97.5t-19 150.5q0 135 43 211.5t124 76.5q31 0 51 -10.5t34.5 -28.5t26.5 -41h8l12 70h125v-373q0 -30 9 -46t25 -16q8 0 14.5 1.5t11.5 3.5v-118q-3 -3 -14.5 -5.5t-24.5 -4.5t-21 -2q-55 0 -87 19.5t-49 62.5h-9q-14 -27 -32 -45
t-39.5 -27.5t-48.5 -9.5zM245 115q23 0 38 14t22.5 46t7.5 86v17q0 83 -16.5 120t-54.5 37q-30 0 -45.5 -42.5t-15.5 -121.5q0 -80 15.5 -118t48.5 -38z" />
    <glyph glyph-name="beta" unicode="&#x3b2;" horiz-adv-x="511" 
d="M53 -240v780q0 72 22 122t66.5 76.5t112.5 26.5q60 0 103 -23.5t65.5 -66t22.5 -101.5q0 -49 -13.5 -84t-37 -56t-53.5 -29v-4q47 -8 77 -31.5t44.5 -62t14.5 -93.5q0 -68 -22 -118.5t-62 -78t-97 -27.5q-24 0 -41 4t-29.5 11t-27.5 15v-260h-145zM256 116
q37 0 55.5 27.5t18.5 83.5q0 33 -9 56.5t-26 37t-43 13.5h-27v119h20q20 0 31.5 11.5t17.5 33.5t6 53q0 45 -12 68.5t-39 23.5q-19 0 -30 -10.5t-16 -33t-5 -57.5v-397q12 -14 27 -21.5t31 -7.5z" />
    <glyph glyph-name="gamma" unicode="&#x3b3;" horiz-adv-x="475" 
d="M141 -210v196l-138 564h151l63 -330q3 -14 5.5 -27.5t4 -26.5t2.5 -26h4q23 67 37 132.5t20.5 134t6.5 143.5h145q0 -104 -16.5 -195.5t-51 -177.5t-89.5 -173v-214h-144z" />
    <glyph glyph-name="delta" unicode="&#x3b4;" horiz-adv-x="487" 
d="M236 -10q-71 0 -118 27t-70.5 77.5t-23.5 120.5q0 56 16.5 100t48.5 76t79 51q-30 23 -49.5 48t-28.5 53.5t-9 59.5q0 52 22.5 88t64 54.5t97.5 18.5q33 0 62 -6t54.5 -17.5t47.5 -28.5l-49 -114q-31 25 -56.5 36.5t-49.5 11.5q-17 0 -28 -5.5t-17 -15t-6 -23.5
q0 -11 6.5 -23.5t24 -30t50.5 -43.5q51 -37 83.5 -77.5t48.5 -90t16 -115.5q0 -69 -25 -121t-73.5 -81.5t-117.5 -29.5zM237 112q21 0 36.5 13t23.5 38.5t8 62.5q0 33 -6.5 60t-20.5 49.5t-36 40.5q-16 -7 -29 -22t-22.5 -35t-14.5 -44.5t-5 -51.5q0 -35 8 -60t22.5 -38
t35.5 -13z" />
    <glyph glyph-name="epsilon" unicode="&#x3b5;" horiz-adv-x="392" 
d="M218 -10q-96 0 -145 44.5t-49 119.5q0 38 14 65t38 43.5t52 22.5v5q-41 12 -61.5 44.5t-20.5 76.5q0 46 21.5 79t61.5 51.5t95 18.5q35 0 69.5 -7.5t74.5 -31.5l-37 -108q-23 16 -44.5 23t-41.5 7q-33 0 -48 -15t-15 -37q0 -23 16 -38t49 -15h49v-112h-50q-29 0 -46.5 -7
t-25 -19.5t-7.5 -29.5q0 -30 20.5 -44t55.5 -14q40 0 68 10.5t58 32.5v-124q-36 -23 -73 -32t-78 -9z" />
    <glyph glyph-name="zeta" unicode="&#x3b6;" horiz-adv-x="388" 
d="M206 -202q22 35 34.5 67t12.5 55q0 19 -5.5 31.5t-20.5 21.5t-44 18q-44 15 -78 39.5t-52.5 65t-18.5 99.5q0 56 15 108t44.5 107.5t73.5 124.5l75 116q-10 -3 -22.5 -5.5t-26.5 -3.5t-31 -1h-110v119h339v-94l-111 -185q-33 -55 -55.5 -99t-33.5 -81t-11 -73
q0 -26 7 -47.5t28.5 -38.5t63.5 -31q41 -13 66 -32.5t36.5 -46.5t11.5 -66q0 -29 -7.5 -59t-19.5 -57.5t-27 -51.5h-133z" />
    <glyph glyph-name="eta" unicode="&#x3b7;" horiz-adv-x="506" 
d="M309 -240v557q0 56 -8.5 85t-40.5 29q-23 0 -36.5 -16.5t-19.5 -54t-6 -102.5v-258h-145v550h114l16 -69h9q12 26 29.5 43.5t40 26.5t46.5 9q49 0 81.5 -23.5t48.5 -67t16 -108.5v-601h-145z" />
    <glyph glyph-name="theta" unicode="&#x3b8;" horiz-adv-x="501" 
d="M249 -10q-72 0 -120 40.5t-71.5 126t-23.5 224.5q0 134 24 218.5t71.5 125t119.5 40.5q73 0 121 -40t72 -125t24 -219q0 -137 -24 -223t-72 -127t-121 -41zM248 107q25 0 41 19.5t24 66t9 126.5h-144q1 -79 9 -126t23 -66.5t38 -19.5zM179 439h145q-2 80 -11 126
t-24 64.5t-39 18.5q-23 0 -38 -18.5t-23 -64.5t-10 -126z" />
    <glyph glyph-name="iota" unicode="&#x3b9;" horiz-adv-x="302" 
d="M208 -10q-48 1 -83 20.5t-53.5 61t-18.5 105.5v373h145v-363q0 -35 11 -53t33 -18q10 0 21 2.5t22 6.5v-124q-18 -6 -38 -8.5t-39 -2.5z" />
    <glyph glyph-name="kappa" unicode="&#x3ba;" horiz-adv-x="495" 
d="M492 550l-145 -229l152 -321h-159l-93 214l-49 -45v-169h-145v550h145v-108q0 -36 -1 -71t-5 -69h3q10 21 20 40.5t19 34.5l102 173h156z" />
    <glyph glyph-name="lambda" unicode="&#x3bb;" horiz-adv-x="489" 
d="M425 -10q-44 0 -74 15.5t-50 51.5t-36 97l-26 100q-2 8 -4 16.5t-3 17t-2 17.5l-2 18h-4q-1 -17 -3.5 -32t-5.5 -28l-61 -263h-151l155 518l-16 54q-11 39 -25.5 51.5t-40.5 12.5q-10 0 -19.5 -1.5t-18.5 -4.5v127q9 3 19 4.5t22 2.5t26 1q49 1 82.5 -14.5t56 -49.5
t37.5 -91l118 -437q6 -21 13 -32.5t17 -16.5t23 -5q10 0 18.5 1.5t15.5 4.5v-127q-8 -2 -18 -4t-20.5 -3t-22.5 -1z" />
    <glyph glyph-name="uni03BC" unicode="&#x3bc;" horiz-adv-x="540" 
d="M53 -240v790h145v-315q0 -57 10.5 -86.5t38.5 -29.5q44 0 57 41.5t13 130.5v259h145v-373q0 -30 9 -46t25 -16q8 0 14.5 1.5t11.5 3.5v-118q-3 -3 -15 -5.5t-24.5 -4.5t-20.5 -2q-55 0 -84.5 18.5t-46.5 62.5h-6q-8 -25 -19 -43t-25 -28t-31 -10q-20 0 -32 10.5t-21 32.5
h-3q2 -15 2.5 -33t1 -38t0.5 -41v-161h-145z" />
    <glyph glyph-name="nu" unicode="&#x3bd;" horiz-adv-x="475" 
d="M137 0l-134 550h151l63 -330q3 -14 5 -27.5t4 -26.5t3 -26h4q23 66 37 131.5t20.5 134.5t6.5 144h145q0 -108 -17 -200t-52.5 -177.5t-90.5 -172.5h-145z" />
    <glyph glyph-name="xi" unicode="&#x3be;" horiz-adv-x="423" 
d="M211 -202q22 35 34.5 67t12.5 55q0 20 -5.5 32t-21.5 21t-48 19q-40 12 -74 35.5t-54.5 65.5t-20.5 109q0 48 13 86.5t40 66t69 41.5v4q-31 11 -53.5 28t-33.5 42t-11 56t12 55.5t33 41t46 23.5q-14 -2 -25.5 -3t-22.5 -1.5t-22 -0.5h-27v119h348v-119h-68
q-30 0 -54.5 -5.5t-41.5 -17t-26 -30t-9 -43.5q0 -28 12.5 -48.5t37.5 -32t63 -11.5h60v-119h-65q-42 0 -70.5 -11.5t-43.5 -34.5t-15 -59q0 -31 8 -52.5t29.5 -37t61.5 -28.5q44 -13 70 -32.5t37.5 -46.5t11.5 -66q0 -29 -7.5 -59t-19.5 -57.5t-26 -51.5h-134z" />
    <glyph glyph-name="omicron" unicode="&#x3bf;" horiz-adv-x="501" 
d="M466 276q0 -55 -11.5 -106.5t-36.5 -92t-66.5 -64t-101.5 -23.5q-56 0 -97 23t-67 63.5t-39 92t-13 107.5q0 82 22.5 146t70.5 101t124 37q66 0 114 -33t74.5 -96.5t26.5 -154.5zM181 274q0 -53 7.5 -89.5t23 -54.5t38.5 -18q26 0 40.5 18t21.5 55t7 91q0 55 -7 91
t-21.5 53.5t-39.5 17.5q-37 0 -53.5 -40t-16.5 -124z" />
    <glyph glyph-name="pi" unicode="&#x3c0;" horiz-adv-x="587" 
d="M466 -9q-64 0 -95 42.5t-31 129.5v267h-103v-430h-144v430h-84v120h560v-120h-84v-263q0 -26 8 -38t22 -12q12 0 27 4t27 11v-112q-20 -15 -47.5 -22t-55.5 -7z" />
    <glyph glyph-name="rho" unicode="&#x3c1;" horiz-adv-x="496" 
d="M38 -240v514q0 84 20.5 148.5t67.5 101t126 36.5q60 0 107.5 -28.5t75 -92t27.5 -170.5q0 -76 -19.5 -139.5t-61 -101.5t-108.5 -38q-30 0 -50.5 11t-38.5 27h-6q3 -37 4 -71.5t1 -61.5v-135h-145zM243 111q24 0 40.5 15.5t24 50.5t7.5 92q0 96 -17.5 132.5t-50.5 36.5
t-48.5 -29t-15.5 -98v-173q12 -12 27 -19.5t33 -7.5z" />
    <glyph glyph-name="sigma" unicode="&#x3c3;" horiz-adv-x="528" 
d="M249 -10q-70 0 -118 35.5t-72.5 99t-24.5 146.5q0 96 28.5 157.5t82 91.5t129.5 30h227v-120h-92q21 -21 33 -48t18 -58.5t6 -67.5q0 -59 -15 -108t-43.5 -84.5t-68.5 -54.5t-90 -19zM248 112q24 0 39.5 16.5t23.5 50.5t8 85q0 35 -3.5 66t-11 57t-20.5 43h-13
q-31 0 -51.5 -17t-29.5 -53.5t-9 -95.5q0 -53 7.5 -86.5t22.5 -49.5t37 -16z" />
    <glyph glyph-name="tau" unicode="&#x3c4;" horiz-adv-x="405" 
d="M250 -11q-49 0 -80.5 19.5t-46.5 60t-15 103.5v258h-99v120h369v-120h-125v-251q0 -21 5 -35t14.5 -21.5t24.5 -7.5q14 0 30 4t33 12v-115q-21 -13 -49 -20t-61 -7z" />
    <glyph glyph-name="upsilon" unicode="&#x3c5;" horiz-adv-x="506" 
d="M242 -9q-53 0 -89.5 14.5t-58.5 42.5t-32 68t-10 91v343h145v-334q0 -31 3 -52.5t13 -33t33 -11.5q24 0 38.5 17.5t21 55t6.5 99.5q0 60 -7.5 124t-21.5 135h144q12 -53 18.5 -94.5t9 -80t2.5 -83.5q0 -151 -55 -226t-160 -75z" />
    <glyph glyph-name="phi" unicode="&#x3c6;" horiz-adv-x="670" 
d="M271 -240v238q-74 7 -127.5 43t-81.5 96t-28 137q0 83 26.5 142.5t79 94t130.5 40.5v209h132v-209q76 -6 128 -42.5t78.5 -97t26.5 -137.5q0 -80 -27 -139.5t-79 -94.5t-127 -42v-238h-131zM270 113v324q-27 -1 -47 -23t-31 -58t-11 -82q0 -44 10 -80.5t29.5 -58
t49.5 -22.5zM402 113q29 1 48.5 23t29.5 58t10 80q0 70 -23 115t-65 48v-324z" />
    <glyph glyph-name="chi" unicode="&#x3c7;" horiz-adv-x="548" 
d="M461 -240q-44 0 -71 14t-44.5 42.5t-34.5 68.5l-198 483q-17 41 -28 55.5t-30 14.5q-10 0 -20 -2t-18 -5v119q13 4 31 6.5t39 2.5q41 0 67.5 -12.5t46 -40.5t37.5 -74l199 -487q11 -24 18 -38t17 -19.5t26 -5.5q11 0 20.5 1.5t18.5 3.5v-120q-9 -2 -20.5 -3.5t-25 -2.5
t-30.5 -1zM9 -240l225 440l56 -150l-138 -290h-143zM340 93l-55 167l124 290h143z" />
    <glyph glyph-name="psi" unicode="&#x3c8;" horiz-adv-x="687" 
d="M271 -240v231q-75 3 -123.5 27.5t-72 76.5t-23.5 136v319h140v-312q0 -40 6 -65t23 -38t50 -16v641h140v-641q34 5 51.5 22t23.5 52t6 91q0 63 -8 129.5t-25 136.5h141q21 -82 29.5 -144t8.5 -125q0 -89 -24.5 -152.5t-74.5 -98t-128 -39.5v-231h-140z" />
    <glyph glyph-name="omega" unicode="&#x3c9;" horiz-adv-x="716" 
d="M215 -10q-58 0 -96 33.5t-56.5 96t-18.5 147.5q0 99 21 170.5t51 112.5h139q-25 -39 -39.5 -83.5t-20.5 -93t-6 -99.5q0 -79 10 -115t38 -36q18 0 29 11.5t16 39t5 74.5v133h141v-133q0 -49 4.5 -76t15 -38t28.5 -11t29 16t16 49t5 83q0 47 -6 96.5t-20 96t-40 86.5h138
q25 -38 41 -81.5t24 -93.5t8 -108q0 -87 -19 -149t-57 -95t-96 -33q-50 0 -88 27t-51 95h-4q-10 -45 -30 -72t-48 -38.5t-63 -11.5z" />
    <glyph glyph-name="iotadieresis" unicode="&#x3ca;" horiz-adv-x="302" 
d="M208 -10q-48 1 -83 20.5t-53.5 61t-18.5 105.5v373h145v-363q0 -35 11 -53t33 -18q10 0 21 2.5t22 6.5v-124q-18 -6 -38 -8.5t-39 -2.5zM-31 685q0 35 18 53.5t47 18.5q31 0 49 -19t18 -53q0 -32 -18 -51t-49 -19q-29 0 -47 18.5t-18 51.5zM156 685q0 35 18 53.5t48 18.5
q31 0 48.5 -19t17.5 -53q0 -32 -17.5 -51t-49.5 -19q-30 0 -47.5 19t-17.5 51z" />
    <glyph glyph-name="upsilondieresis" unicode="&#x3cb;" horiz-adv-x="506" 
d="M242 -9q-53 0 -89.5 14.5t-58.5 42.5t-32 68t-10 91v343h145v-334q0 -31 3 -52.5t13 -33t33 -11.5q24 0 38.5 17.5t21 55t6.5 99.5q0 60 -7.5 124t-21.5 135h144q12 -53 18.5 -94.5t9 -80t2.5 -83.5q0 -151 -55 -226t-160 -75zM85 685q0 35 18 53.5t47 18.5q31 0 49 -19
t18 -53q0 -32 -18 -51t-49 -19q-29 0 -47 18.5t-18 51.5zM272 685q0 35 18 53.5t48 18.5q31 0 48.5 -19t17.5 -53q0 -32 -17.5 -51t-49.5 -19q-30 0 -47.5 19t-17.5 51z" />
    <glyph glyph-name="omicrontonos" unicode="&#x3cc;" horiz-adv-x="501" 
d="M466 276q0 -55 -11.5 -106.5t-36.5 -92t-66.5 -64t-101.5 -23.5q-56 0 -97 23t-67 63.5t-39 92t-13 107.5q0 82 22.5 146t70.5 101t124 37q66 0 114 -33t74.5 -96.5t26.5 -154.5zM181 274q0 -53 7.5 -89.5t23 -54.5t38.5 -18q26 0 40.5 18t21.5 55t7 91q0 55 -7 91
t-21.5 53.5t-39.5 17.5q-37 0 -53.5 -40t-16.5 -124zM201 606v13l47 157h160v-9l-107 -161h-100z" />
    <glyph glyph-name="upsilontonos" unicode="&#x3cd;" horiz-adv-x="506" 
d="M242 -9q-53 0 -89.5 14.5t-58.5 42.5t-32 68t-10 91v343h145v-334q0 -31 3 -52.5t13 -33t33 -11.5q24 0 38.5 17.5t21 55t6.5 99.5q0 60 -7.5 124t-21.5 135h144q12 -53 18.5 -94.5t9 -80t2.5 -83.5q0 -151 -55 -226t-160 -75zM195 606v13l47 157h160v-9l-107 -161h-100z
" />
    <glyph glyph-name="omegatonos" unicode="&#x3ce;" horiz-adv-x="716" 
d="M215 -10q-58 0 -96 33.5t-56.5 96t-18.5 147.5q0 99 21 170.5t51 112.5h139q-25 -39 -39.5 -83.5t-20.5 -93t-6 -99.5q0 -79 10 -115t38 -36q18 0 29 11.5t16 39t5 74.5v133h141v-133q0 -49 4.5 -76t15 -38t28.5 -11t29 16t16 49t5 83q0 47 -6 96.5t-20 96t-40 86.5h138
q25 -38 41 -81.5t24 -93.5t8 -108q0 -87 -19 -149t-57 -95t-96 -33q-50 0 -88 27t-51 95h-4q-10 -45 -30 -72t-48 -38.5t-63 -11.5zM308 606v13l47 157h160v-9l-107 -161h-100z" />
    <glyph glyph-name="uni0401" unicode="&#x401;" horiz-adv-x="434" 
d="M62 0v714h331v-129h-179v-150h166v-130h-166v-174h179v-131h-331zM139 777q-29 0 -45.5 19t-16.5 53q0 36 17 55t46 19t46 -19t17 -55q0 -34 -17 -53t-47 -19zM313 777q-30 0 -46.5 19t-16.5 53q0 36 16.5 55t46.5 19q29 0 46.5 -19t17.5 -55q0 -34 -17.5 -53t-46.5 -19z
" />
    <glyph glyph-name="uni0402" unicode="&#x402;" horiz-adv-x="607" 
d="M399 -12q-21 0 -39 3t-31 7v124q10 -2 17.5 -3t14.5 -1q33 0 49 22.5t16 71.5v0q0 46 -19 69t-57 23q-22 0 -44 -7.5t-43 -21.5l29 54v-329h-151v582h-126v132h439v-132h-162v-210l-46 29q33 17 66 25t67 8q97 0 148 -57.5t51 -165.5v0q0 -70 -21 -120t-61 -76.5
t-97 -26.5z" />
    <glyph glyph-name="uni0403" unicode="&#x403;" horiz-adv-x="420" 
d="M62 0v714h323v-132h-171v-582h-152zM165 768v14l81 146h164v-9l-140 -151h-105z" />
    <glyph glyph-name="uni0404" unicode="&#x404;" horiz-adv-x="499" 
d="M302 -10q-84 0 -143.5 42t-90 123t-30.5 198q0 111 33 194.5t96 130t151 46.5q41 0 79.5 -10t74.5 -29l-44 -123q-29 17 -52.5 24t-47.5 7q-44 0 -74.5 -26.5t-45.5 -77.5t-15 -126l-65 68h265v-130l-267 -1l66 70q-1 -82 12.5 -137.5t44.5 -84t81 -28.5q33 0 61.5 9
t56.5 23v-128q-26 -16 -65.5 -25t-80.5 -9z" />
    <glyph glyph-name="uni0405" unicode="&#x405;" horiz-adv-x="445" 
d="M197 -10q-28 0 -55.5 3.5t-55 12t-56.5 22.5v150q37 -23 77.5 -36.5t75.5 -13.5q28 0 45.5 9t26 25t8.5 36t-6.5 35.5t-26 33t-59.5 40.5q-31 19 -56.5 39t-43 44t-27 55t-9.5 74q0 62 24.5 108t71 72t113.5 25q44 0 88 -12t86 -36l-43 -130q-36 22 -65.5 32t-54.5 10
q-21 0 -36 -7t-23 -21t-8 -35q0 -19 8 -35t28.5 -33t60.5 -40q44 -26 73.5 -55.5t44.5 -65.5t15 -83q0 -65 -27 -115.5t-76 -79t-118 -28.5z" />
    <glyph glyph-name="uni0406" unicode="&#x406;" horiz-adv-x="280" 
d="M64 0v714h152v-714h-152z" />
    <glyph glyph-name="uni0407" unicode="&#x407;" horiz-adv-x="296" 
d="M72 0v714h152v-714h-152zM71 777q-29 0 -45.5 19t-16.5 53q0 36 17 55t45 19q29 0 46 -19t17 -55q0 -34 -17 -53t-46 -19zM224 777q-29 0 -45.5 19t-16.5 53q0 37 17 55.5t45 18.5q30 0 46.5 -18.5t16.5 -54.5q0 -35 -16.5 -54t-46.5 -19z" />
    <glyph glyph-name="uni0408" unicode="&#x408;" horiz-adv-x="276" 
d="M21 -218q-21 0 -41 2.5t-38 8.5v129q12 -4 25.5 -7t29.5 -3q25 0 39.5 11.5t21 39t6.5 75.5v676h151v-671q0 -100 -22.5 -156.5t-66 -80.5t-105.5 -24z" />
    <glyph glyph-name="uni0409" unicode="&#x409;" horiz-adv-x="808" 
d="M70 -10q-24 0 -41.5 3t-29.5 7v128q8 -3 16 -4.5t18 -1.5q18 0 31 7.5t21 26t10 51.5q4 52 7.5 107t7 115.5t7 130.5t7.5 154h393v-247h32q115 0 173.5 -57.5t58.5 -169.5q0 -115 -60.5 -177.5t-171.5 -62.5h-182v581h-107q-3 -62 -6 -113.5t-6 -97.5t-6 -90t-6 -89
q-6 -67 -24.5 -112t-53 -67t-88.5 -22zM517 131h27q42 0 63 27.5t21 79.5q0 51 -20.5 75.5t-63.5 24.5h-27v-207z" />
    <glyph glyph-name="uni040A" unicode="&#x40a;" horiz-adv-x="796" 
d="M62 0v714h152v-270h143v270h148v-269h31q115 0 173.5 -56t58.5 -163q0 -106 -60.5 -166t-171.5 -60h-179v315h-143v-315h-152zM505 131h26q42 0 63.5 25t21.5 69t-20.5 67.5t-63.5 23.5h-27v-185z" />
    <glyph glyph-name="uni040B" unicode="&#x40b;" horiz-adv-x="612" 
d="M141 0v582h-126v132h438v-132h-161v-211l-46 30q34 16 67.5 24t69.5 8q92 0 140 -49t48 -145v-239h-152v222q0 42 -16 61t-52 19q-22 0 -43.5 -7.5t-43.5 -19.5l29 40v-315h-152z" />
    <glyph glyph-name="uni040C" unicode="&#x40c;" horiz-adv-x="545" 
d="M384 0l-160 360l-1 17l157 337h161l-177 -353l5 26l183 -387h-168zM62 0v714h152v-714h-152zM171 306v130h119v-130h-119zM216 766v14l81 146h164v-9l-140 -151h-105z" />
    <glyph glyph-name="uni040E" unicode="&#x40e;" horiz-adv-x="512" 
d="M117 -10q-23 0 -43.5 3.5t-38.5 8.5v131q12 -4 26 -7t29 -3q29 0 49.5 13.5t37 48t31.5 96.5l-4 -141l-198 574h162l63 -212q7 -22 12.5 -44.5t10.5 -45t9 -47.5h6q4 25 8 45t9 39t10 42l58 223h158l-158 -491q-26 -85 -59 -136t-76.5 -74t-101.5 -23zM264 764
q-78 0 -119.5 40t-46.5 117h112q2 -36 15 -54.5t39 -18.5q28 0 42 19t15 54h112q-4 -75 -47 -116t-122 -41z" />
    <glyph glyph-name="uni040F" unicode="&#x40f;" horiz-adv-x="583" 
d="M217 -146v146h-155v714h152v-583h155v583h152v-714h-155v-146h-149z" />
    <glyph glyph-name="uni0410" unicode="&#x410;" horiz-adv-x="548" 
d="M386 0l-33 157h-157l-32 -157h-164l173 714h199l176 -714h-162zM295 464q-4 25 -7.5 49t-6.5 45.5t-6 40.5q-2 -18 -5 -39.5t-7 -45t-9 -48.5l-35 -178h111z" />
    <glyph glyph-name="uni0411" unicode="&#x411;" horiz-adv-x="512" 
d="M62 0v714h373v-132h-222v-135h38q115 0 173.5 -55.5t58.5 -161.5q0 -108 -60.5 -169t-171.5 -61h-189zM213 131h33q41 0 62.5 25t21.5 72q0 44 -21 67.5t-63 23.5h-33v-188z" />
    <glyph glyph-name="uni0412" unicode="&#x412;" horiz-adv-x="532" 
d="M62 0v714h202q115 0 169 -44.5t54 -132.5q0 -42 -12 -74.5t-33.5 -54t-53.5 -30.5v-4q38 -10 62.5 -32.5t36.5 -56.5t12 -80q0 -63 -25 -109t-72.5 -71t-116.5 -25h-223zM213 127h55q38 0 57 23t19 68q0 30 -9 50.5t-27 31t-44 10.5h-51v-183zM213 430h45q37 0 56 21
t19 62q0 38 -19 57t-58 19h-43v-159z" />
    <glyph glyph-name="uni0413" unicode="&#x413;" horiz-adv-x="400" 
d="M62 0v714h323v-132h-171v-582h-152z" />
    <glyph glyph-name="uni0414" unicode="&#x414;" horiz-adv-x="653" 
d="M7 -147v278h56q24 37 38.5 71t23.5 74.5t13 96.5q3 26 5.5 60.5t4.5 77.5t4.5 93.5t5.5 109.5h411v-583h78v-278h-150v147h-341v-147h-149zM221 131h196v452h-122q-2 -47 -4.5 -88t-5 -74t-4.5 -58q-4 -53 -11.5 -94t-19.5 -74t-29 -64z" />
    <glyph glyph-name="uni0415" unicode="&#x415;" horiz-adv-x="434" 
d="M62 0v714h331v-129h-179v-150h166v-130h-166v-174h179v-131h-331z" />
    <glyph glyph-name="uni0416" unicode="&#x416;" horiz-adv-x="774" 
d="M615 0l-146 360l-3 17l144 337h160l-163 -355l6 27l168 -386h-166zM-7 0l167 386l8 -27l-164 355h158l145 -337l-1 -17l-146 -360h-167zM313 0v714h147v-714h-147zM246 306v130h287v-130h-287z" />
    <glyph glyph-name="uni0417" unicode="&#x417;" horiz-adv-x="476" 
d="M193 -10q-44 0 -87.5 8t-78.5 23v138q34 -17 72.5 -27t74.5 -10q56 0 85 24.5t29 69.5q0 47 -31 68.5t-91 21.5h-67v129h66q56 0 83 21t27 62q0 38 -23 57t-64 19q-27 0 -55 -8.5t-59 -24.5l-44 121q43 21 88.5 31.5t92.5 10.5q101 0 158.5 -48.5t57.5 -135.5
q0 -64 -30.5 -106t-87.5 -56v-4q64 -12 99 -56t35 -115q0 -68 -29.5 -115.5t-85.5 -72.5t-135 -25z" />
    <glyph glyph-name="uni0418" unicode="&#x418;" horiz-adv-x="605" 
d="M62 0v714h144v-307q0 -22 -1 -49.5t-3 -59.5t-6 -68h4l159 484h185v-714h-144v310q0 16 0.5 36t1.5 43t2.5 48t4.5 51h-4l-160 -488h-183z" />
    <glyph glyph-name="uni0419" unicode="&#x419;" horiz-adv-x="605" 
d="M62 0v714h144v-307q0 -22 -1 -49.5t-3 -59.5t-6 -68h4l159 484h185v-714h-144v310q0 16 0.5 36t1.5 43t2.5 48t4.5 51h-4l-160 -488h-183zM303 769q-78 0 -119.5 40t-46.5 117h112q2 -36 15 -54.5t39 -18.5q28 0 42 19t15 54h112q-4 -75 -47 -116t-122 -41z" />
    <glyph glyph-name="uni041A" unicode="&#x41a;" horiz-adv-x="545" 
d="M384 0l-160 360l-1 17l157 337h161l-177 -353l5 26l183 -387h-168zM62 0v714h152v-714h-152zM171 306v130h119v-130h-119z" />
    <glyph glyph-name="uni041B" unicode="&#x41b;" horiz-adv-x="589" 
d="M70 -10q-24 0 -41.5 3t-29.5 6v131q8 -3 16 -4.5t18 -1.5q18 0 31 7.5t21 26t10 51.5q4 52 7.5 107t7.5 115t7.5 129.5t7.5 153.5h402v-714h-151v581h-116q-4 -62 -7 -113.5t-5.5 -97.5t-5.5 -90t-6 -89q-5 -67 -24 -112t-53.5 -67t-88.5 -22z" />
    <glyph glyph-name="uni041C" unicode="&#x41c;" horiz-adv-x="788" 
d="M62 0v714h209l122 -461h3l123 461h207v-714h-145v343q0 24 0.5 49.5t2 53.5t3.5 59h-4l-134 -505h-116l-132 505h-4q3 -32 4.5 -61.5t2 -55t0.5 -47.5v-341h-142z" />
    <glyph glyph-name="uni041D" unicode="&#x41d;" horiz-adv-x="593" 
d="M62 0v714h152v-277h165v277h152v-714h-152v306h-165v-306h-152z" />
    <glyph glyph-name="uni041E" unicode="&#x41e;" horiz-adv-x="599" 
d="M300 -10q-64 0 -113.5 23.5t-82.5 69.5t-49.5 115t-16.5 160q0 121 29.5 202.5t88.5 122.5t145 41t144 -40.5t87 -122t29 -203.5q0 -91 -16.5 -160t-49 -115.5t-82 -69.5t-113.5 -23zM300 122q52 0 77.5 58.5t25.5 177.5t-25.5 177.5t-77.5 58.5q-51 0 -77.5 -59
t-26.5 -177q0 -78 11.5 -130.5t35 -79t57.5 -26.5z" />
    <glyph glyph-name="uni041F" unicode="&#x41f;" horiz-adv-x="583" 
d="M62 0v714h459v-714h-152v582h-155v-582h-152z" />
    <glyph glyph-name="uni0420" unicode="&#x420;" horiz-adv-x="507" 
d="M62 0v714h193q112 0 167 -57t55 -168q0 -74 -25 -129t-75.5 -84.5t-126.5 -29.5h-36v-246h-152zM214 376h25q28 0 47 11.5t29 35.5t10 64q0 51 -19.5 74t-61.5 23h-30v-208z" />
    <glyph glyph-name="uni0421" unicode="&#x421;" horiz-adv-x="494" 
d="M301 -10q-86 0 -145 42t-88.5 123t-29.5 199q0 110 32.5 193.5t94.5 130t151 46.5q41 0 78 -10t73 -28l-44 -125q-28 16 -50.5 23t-45.5 7q-43 0 -72.5 -27.5t-44 -80t-14.5 -129.5q0 -113 32 -171.5t101 -58.5q32 0 59.5 8.5t54.5 22.5v-131q-25 -16 -63.5 -25t-78.5 -9
z" />
    <glyph glyph-name="uni0422" unicode="&#x422;" horiz-adv-x="443" 
d="M297 0h-150v582h-132v132h412v-132h-130v-582z" />
    <glyph glyph-name="uni0423" unicode="&#x423;" horiz-adv-x="512" 
d="M117 -10q-23 0 -43.5 3.5t-38.5 8.5v131q12 -4 26 -7t29 -3q29 0 49.5 13.5t37 48t31.5 96.5l-4 -141l-198 574h162l63 -212q7 -22 12.5 -44.5t10.5 -45t9 -47.5h6q4 25 8 45t9 39t10 42l58 223h158l-158 -491q-26 -85 -59 -136t-76.5 -74t-101.5 -23z" />
    <glyph glyph-name="uni0424" unicode="&#x424;" horiz-adv-x="717" 
d="M285 -10v98q-83 1 -139.5 33.5t-85.5 94.5t-29 147q0 82 28 143t84 95.5t142 35.5v87h147v-87q82 -1 138 -34.5t85.5 -95t29.5 -144.5q0 -85 -29.5 -146.5t-85.5 -95t-138 -33.5v-98h-147zM285 214v296q-35 -1 -58 -16.5t-34 -47.5t-11 -82q0 -52 11.5 -85t34.5 -48.5
t57 -16.5zM432 214q35 1 57.5 17t34 49t11.5 85q0 48 -11.5 80t-34.5 48t-57 17v-296z" />
    <glyph glyph-name="uni0425" unicode="&#x425;" horiz-adv-x="495" 
d="M0 0l188 423l-1 -126l-176 417h158l97 -277h-45l94 277h160l-171 -413l-3 125l194 -426h-164l-108 288l49 -1l-113 -287h-159z" />
    <glyph glyph-name="uni0426" unicode="&#x426;" horiz-adv-x="604" 
d="M449 -145v145h-387v714h152v-583h155v583h152l-1 -583h78v-276h-149z" />
    <glyph glyph-name="uni0427" unicode="&#x427;" horiz-adv-x="558" 
d="M344 0l-1 304l24 -24q-25 -13 -58 -20.5t-71 -7.5q-93 0 -143.5 51t-50.5 150v261h153v-234q0 -51 18.5 -73t60.5 -22q22 0 42.5 5.5t40.5 15.5l-16 -49l1 357h152v-714h-152z" />
    <glyph glyph-name="uni0428" unicode="&#x428;" horiz-adv-x="859" 
d="M62 0v714h152v-583h139v583h152v-583h140v583h152v-714h-735z" />
    <glyph glyph-name="uni0429" unicode="&#x429;" horiz-adv-x="881" 
d="M726 -145v145h-664v714h152v-583h139v583h152v-583h140v583h152v-583h78v-276h-149z" />
    <glyph glyph-name="uni042A" unicode="&#x42a;" horiz-adv-x="591" 
d="M145 0v582h-130v132h282v-247h34q116 0 174 -58t58 -171q0 -115 -60 -176.5t-172 -61.5h-186zM296 131h29q42 0 63.5 27t21.5 80q0 50 -21 75t-64 25h-29v-207z" />
    <glyph glyph-name="uni042B" unicode="&#x42b;" horiz-adv-x="753" 
d="M62 0v714h151v-247h30q116 0 174 -57.5t58 -169.5q0 -115 -60.5 -177.5t-172.5 -62.5h-180zM213 131h25q41 0 62.5 27t21.5 80q0 51 -20.5 75.5t-62.5 24.5h-26v-207zM539 0v714h152v-714h-152z" />
    <glyph glyph-name="uni042C" unicode="&#x42c;" horiz-adv-x="508" 
d="M63 0v714h152v-247h34q115 0 173.5 -57.5t58.5 -169.5q0 -115 -60 -177.5t-172 -62.5h-186zM214 131h30q41 0 62.5 27t21.5 81q0 50 -21 74.5t-63 24.5h-29z" />
    <glyph glyph-name="uni042D" unicode="&#x42d;" horiz-adv-x="502" 
d="M186 -10q-43 0 -81.5 9.5t-67.5 24.5v131q30 -17 63 -25.5t62 -8.5q51 0 83 26.5t47 79.5t15 133q0 76 -14.5 128t-44.5 78.5t-75 26.5q-28 0 -53.5 -9t-45.5 -20l-42 123q35 17 75.5 27t81.5 10q90 0 151 -43t92 -124.5t31 -198.5q0 -111 -31.5 -194t-93 -128.5
t-152.5 -45.5zM107 301v130h211l1 -130h-212z" />
    <glyph glyph-name="uni042E" unicode="&#x42e;" horiz-adv-x="815" 
d="M529 -10q-113 0 -176.5 79.5t-73.5 235.5h-65v-305h-152v714h152v-278h67q9 94 40 158.5t83.5 97.5t124.5 33q82 0 137.5 -41t83 -122.5t27.5 -203.5q0 -181 -62.5 -274.5t-185.5 -93.5zM526 124q48 0 71 58t23 176q0 119 -23 177.5t-70 58.5q-48 0 -71 -59t-23 -177
q0 -117 22.5 -175.5t70.5 -58.5z" />
    <glyph glyph-name="uni042F" unicode="&#x42f;" horiz-adv-x="529" 
d="M0 0l149 313q-34 19 -56 46t-33 62t-11 77q0 105 62 160.5t180 55.5h177v-714h-152v273h-34l-114 -273h-168zM287 394h29v192h-26q-43 0 -65 -22.5t-22 -70.5q0 -49 22 -74t62 -25z" />
    <glyph glyph-name="uni0430" unicode="&#x430;" horiz-adv-x="475" 
d="M162 -10q-46 0 -76 22t-44.5 60.5t-14.5 87.5q0 92 51.5 135.5t140.5 47.5l62 3v25q0 35 -17 51.5t-53 16.5q-28 0 -57.5 -9t-64.5 -28l-34 113q43 23 87.5 34t92.5 11q97 0 144 -47.5t47 -149.5v-363h-105l-24 73h-3q-17 -28 -36.5 -46.5t-43.5 -27.5t-52 -9zM220 106
q28 0 44.5 24t16.5 67v53l-34 -1q-37 -2 -55.5 -21.5t-18.5 -56.5q0 -33 12 -49t35 -16z" />
    <glyph glyph-name="uni0431" unicode="&#x431;" horiz-adv-x="501" 
d="M253 -10q-67 0 -116 33.5t-75 109t-26 200.5q0 95 14 165.5t41.5 119.5t68.5 79t96 43q26 7 53.5 12t56.5 10t60 9l13 -130l-54 -9t-45.5 -8t-43.5 -10q-44 -13 -68.5 -37t-34.5 -59.5t-13 -80.5h8q12 28 30 46t41 26.5t50 8.5q52 0 87 -29t53.5 -84t18.5 -135
q0 -83 -24.5 -146.5t-72.5 -98.5t-118 -35zM254 112q23 0 37.5 15.5t22 47.5t7.5 82q0 72 -16 107t-50 35t-50.5 -35.5t-16.5 -107.5q0 -49 7 -81t22 -47.5t37 -15.5z" />
    <glyph glyph-name="uni0432" unicode="&#x432;" horiz-adv-x="482" 
d="M53 0v550h201q60 0 101.5 -16t63 -47t21.5 -78q0 -48 -22.5 -78.5t-65.5 -41.5v-5q48 -7 74.5 -39.5t26.5 -85.5q0 -48 -22 -84t-64.5 -55.5t-106.5 -19.5h-207zM196 109h52q30 0 45.5 15.5t15.5 47.5t-15.5 46t-44.5 14h-53v-123zM196 337h50q26 0 39 14t13 39
q0 24 -13.5 37.5t-40.5 13.5h-48v-104z" />
    <glyph glyph-name="uni0433" unicode="&#x433;" horiz-adv-x="375" 
d="M53 0v550h309v-122h-164v-428h-145z" />
    <glyph glyph-name="uni0434" unicode="&#x434;" horiz-adv-x="557" 
d="M8 -123v245h46q18 28 29 55t17 59t9 72q2 22 3 45.5t2.5 51.5t3 63.5t2.5 81.5h367v-428h60v-245h-140v124h-259v-124h-140zM202 122h141v307h-91q-1 -26 -2 -49t-2.5 -46t-3.5 -49q-4 -53 -14.5 -91.5t-27.5 -71.5z" />
    <glyph glyph-name="uni0435" unicode="&#x435;" horiz-adv-x="468" 
d="M261 -10q-77 0 -128 33.5t-75.5 96t-24.5 150.5q0 93 25 158t71.5 99t112.5 34q65 0 108.5 -30t65.5 -86.5t22 -135.5v-79h-261q1 -61 27.5 -90.5t77.5 -29.5q35 0 67.5 10t62.5 30v-121q-30 -19 -69.5 -29t-81.5 -10zM177 332h127q0 38 -7.5 63.5t-21 38.5t-33.5 13
q-29 0 -46.5 -26.5t-18.5 -88.5z" />
    <glyph glyph-name="uni0436" unicode="&#x436;" horiz-adv-x="684" 
d="M529 0l-115 274l-2 8l118 268h147l-133 -281l-6 55l147 -324h-156zM-2 0l148 324l-5 -55l-134 281h145l119 -268l-2 -8l-114 -274h-157zM272 0v550h141v-550h-141zM222 221v121h257v-121h-257z" />
    <glyph glyph-name="uni0437" unicode="&#x437;" horiz-adv-x="413" 
d="M180 -10q-41 0 -81 8.5t-69 22.5v123q31 -16 63 -24.5t65 -8.5q40 0 60.5 15.5t19.5 44.5q1 28 -19 42t-61 14h-59v108h50q40 0 59 14t19 41q0 25 -17 38t-49 13q-23 0 -45.5 -6t-46.5 -19l-40 108q36 18 76 27t81 9q86 0 134.5 -39.5t48.5 -106.5q0 -47 -22 -79.5
t-66 -45.5v-5q50 -10 76.5 -43t26.5 -85q0 -77 -54 -121.5t-150 -44.5z" />
    <glyph glyph-name="uni0438" unicode="&#x438;" horiz-adv-x="519" 
d="M53 0v550h136v-194q0 -25 -1 -49.5t-3 -50.5t-5 -60h2l128 354h156v-550h-135v199q0 25 1 50t3.5 51t4.5 51h-2l-127 -351h-158z" />
    <glyph glyph-name="uni0439" unicode="&#x439;" horiz-adv-x="519" 
d="M53 0v550h136v-194q0 -25 -1 -49.5t-3 -50.5t-5 -60h2l128 354h156v-550h-135v199q0 25 1 50t3.5 51t4.5 51h-2l-127 -351h-158zM259 601q-79 0 -118.5 42.5t-44.5 123.5h111q2 -40 14 -60t38 -20q27 0 40 20t14 60h110q-5 -81 -46 -123.5t-118 -42.5z" />
    <glyph glyph-name="uni043A" unicode="&#x43a;" horiz-adv-x="482" 
d="M327 0l-123 274l-3 8l126 268h148l-140 -281l-6 55l155 -324h-157zM53 0v550h145v-550h-145zM183 220v122h82v-122h-82z" />
    <glyph glyph-name="uni043B" unicode="&#x43b;" horiz-adv-x="515" 
d="M70 -7q-16 0 -31.5 1.5t-30.5 6.5v123q8 -2 13 -3t12 -1q16 0 26 6.5t16.5 25.5t8.5 55q3 38 5 71t4.5 70t4.5 85.5t4 116.5h360v-550h-145v427h-84q-2 -46 -4 -83t-4.5 -69.5t-5 -63t-5.5 -63.5q-8 -80 -44 -117.5t-100 -37.5z" />
    <glyph glyph-name="uni043C" unicode="&#x43c;" horiz-adv-x="684" 
d="M53 0v550h204l102 -384h-35l104 384h203v-550h-136v247q0 33 2 71t6 75h-4l-107 -393h-102l-107 393h-4q4 -37 6 -73.5t2 -72.5v-247h-134z" />
    <glyph glyph-name="uni043D" unicode="&#x43d;" horiz-adv-x="509" 
d="M53 0v550h145v-207h113v207h145v-550h-145v221h-113v-221h-145z" />
    <glyph glyph-name="uni043E" unicode="&#x43e;" horiz-adv-x="498" 
d="M249 -10q-55 0 -95 21t-67 59.5t-40.5 91t-13.5 114.5q0 86 24 149.5t72.5 99t121.5 35.5q67 0 115 -33.5t73.5 -96.5t25.5 -154q0 -61 -12.5 -113.5t-39 -91t-67.5 -60t-97 -21.5zM250 112q36 0 52 40t16 124t-16 123t-52 39t-53 -40t-17 -124q0 -81 17 -121.5t53 -40.5
z" />
    <glyph glyph-name="uni043F" unicode="&#x43f;" horiz-adv-x="502" 
d="M53 0v550h396v-550h-145v428h-106v-428h-145z" />
    <glyph glyph-name="uni0440" unicode="&#x440;" horiz-adv-x="512" 
d="M53 -240v790h117l21 -72h8q17 33 34 51t37.5 24.5t44.5 6.5q77 0 119.5 -75.5t42.5 -211.5q0 -88 -19.5 -151.5t-54.5 -97.5t-84 -34q-25 0 -47 9t-40.5 27t-32.5 46h-5q2 -34 3 -59t1 -40v-213h-145zM267 115q22 0 36 17.5t20.5 52.5t6.5 87q0 84 -15.5 125t-46.5 41
q-25 0 -40 -15t-22.5 -48.5t-7.5 -87.5v-29q0 -49 7.5 -81t22.5 -47t39 -15z" />
    <glyph glyph-name="uni0441" unicode="&#x441;" horiz-adv-x="412" 
d="M249 -10q-104 0 -160 72t-56 205q0 94 26 159.5t76 100t120 34.5q36 0 70.5 -9.5t65.5 -28.5l-39 -113q-22 13 -42.5 20t-38.5 7q-45 0 -68 -41.5t-23 -123.5q0 -81 24.5 -120t75.5 -39q24 -1 49.5 7.5t47.5 21.5v-121q-25 -14 -58 -22.5t-70 -8.5z" />
    <glyph glyph-name="uni0442" unicode="&#x442;" horiz-adv-x="423" 
d="M140 0v428h-126v122h395v-122h-125v-428h-144z" />
    <glyph glyph-name="uni0443" unicode="&#x443;" horiz-adv-x="466" 
d="M108 -240q-19 0 -36 2.5t-31 6.5v125q10 -3 19 -4.5t19 -1.5q19 0 33.5 8t25.5 29t22 60l24 88l-1 -132l-180 609h151l61 -254q5 -17 8.5 -34.5t6.5 -34t3 -30.5h4q2 19 7 42.5t12 55.5l57 255h150l-165 -595q-19 -70 -45 -113.5t-61.5 -62.5t-83.5 -19z" />
    <glyph glyph-name="uni0444" unicode="&#x444;" horiz-adv-x="681" 
d="M310 -7q-86 0 -148 33.5t-95.5 96.5t-33.5 151q0 89 33 151.5t95.5 96.5t148.5 34h61q87 0 149 -34t95 -96.5t33 -151.5q0 -88 -33 -151t-95 -96.5t-149 -33.5h-61zM270 -240v256l1 82v373l-2 41v248h142v-248v-41v-373l1 -82v-256h-142zM301 114h79q59 0 91 42.5
t32 117.5q0 76 -32 118.5t-91 42.5h-79q-58 0 -90.5 -42.5t-32.5 -118.5q0 -75 32.5 -117.5t90.5 -42.5z" />
    <glyph glyph-name="uni0445" unicode="&#x445;" horiz-adv-x="452" 
d="M6 0l156 343v-124l-152 331h157l83 -219l-46 -1l80 220h156l-151 -332l1 124l156 -342h-157l-90 230l49 1l-89 -231h-153z" />
    <glyph glyph-name="uni0446" unicode="&#x446;" horiz-adv-x="519" 
d="M370 -123v123h-317v550h145v-428h106v428h145v-428h60v-245h-139z" />
    <glyph glyph-name="uni0447" unicode="&#x447;" horiz-adv-x="494" 
d="M296 0v223l20 -18q-19 -10 -48 -17t-62 -7q-83 0 -126.5 45.5t-43.5 130.5v193h144v-176q0 -39 14.5 -55t47.5 -16q18 0 34.5 4.5t31.5 12.5l-12 -43v273h145v-550h-145z" />
    <glyph glyph-name="uni0448" unicode="&#x448;" horiz-adv-x="748" 
d="M53 0v550h145v-428h104v428h144v-428h103v428h146v-550h-642z" />
    <glyph glyph-name="uni0449" unicode="&#x449;" horiz-adv-x="765" 
d="M615 -123v123h-562v550h145v-428h104v428h144v-428h103v428h146v-428h60v-245h-140z" />
    <glyph glyph-name="uni044A" unicode="&#x44a;" horiz-adv-x="537" 
d="M129 0v422h-115v128h259v-186h44q95 0 145.5 -46t50.5 -133q0 -88 -52 -136.5t-146 -48.5h-186zM273 116h31q30 0 47 17t17 51q0 33 -16.5 50t-48.5 17h-30v-135z" />
    <glyph glyph-name="uni044B" unicode="&#x44b;" horiz-adv-x="683" 
d="M53 0v550h145l-1 -186h39q95 0 145.5 -45.5t50.5 -132.5q0 -88 -52 -137t-147 -49h-180zM197 116h25q31 0 48 17t17 51t-17 50.5t-49 16.5h-24v-135zM485 0v550h145v-550h-145z" />
    <glyph glyph-name="uni044C" unicode="&#x44c;" horiz-adv-x="461" 
d="M53 0v550h145v-186h43q95 0 145.5 -45.5t50.5 -132.5q0 -88 -51.5 -137t-146.5 -49h-186zM198 116h30q31 0 47.5 18t16.5 51t-16.5 49.5t-48.5 16.5h-29v-135z" />
    <glyph glyph-name="uni044D" unicode="&#x44d;" horiz-adv-x="418" 
d="M162 -10q-36 0 -68.5 8t-58.5 22v120q23 -13 50 -20.5t52 -7.5q56 0 80.5 40.5t24.5 124.5q0 82 -23.5 122t-73.5 40q-20 0 -41.5 -7t-44.5 -21l-37 110q33 19 69 29t74 10q69 0 118 -33.5t75 -97t26 -154.5q0 -136 -58 -210.5t-164 -74.5zM93 222v109h156v-109h-156z
" />
    <glyph glyph-name="uni044E" unicode="&#x44e;" horiz-adv-x="694" 
d="M452 -10q-64 0 -108.5 32t-69 94t-27.5 151l50 -46h-99v-221h-145v550h145v-207h99l-49 -41q3 82 28.5 139.5t70.5 88t109 30.5q65 0 111 -33.5t69.5 -96.5t23.5 -154q0 -90 -24 -154.5t-71 -98t-113 -33.5zM454 112q31 0 45.5 39.5t14.5 124.5t-14.5 123.5t-46.5 38.5
t-46 -40t-14 -124q0 -83 14.5 -122.5t46.5 -39.5z" />
    <glyph glyph-name="uni044F" unicode="&#x44f;" horiz-adv-x="475" 
d="M4 1l139 275l23 -63q-57 6 -93 49.5t-36 113.5q0 82 50 128t138 46h197v-549h-143v197h-30l-90 -197h-155zM246 304h33v137h-34q-30 0 -47 -17.5t-17 -50.5q0 -32 17 -50.5t48 -18.5z" />
    <glyph glyph-name="uni0451" unicode="&#x451;" horiz-adv-x="468" 
d="M261 -10q-77 0 -128 33.5t-75.5 96t-24.5 150.5q0 93 25 158t71.5 99t112.5 34q65 0 108.5 -30t65.5 -86.5t22 -135.5v-79h-261q1 -61 27.5 -90.5t77.5 -29.5q35 0 67.5 10t62.5 30v-121q-30 -19 -69.5 -29t-81.5 -10zM177 332h127q0 38 -7.5 63.5t-21 38.5t-33.5 13
q-29 0 -46.5 -26.5t-18.5 -88.5zM149 609q-29 0 -46.5 18.5t-17.5 53.5q0 37 17 55.5t47 18.5t47.5 -19t17.5 -55q0 -34 -17.5 -53t-47.5 -19zM328 609q-31 0 -48 19t-17 53q0 37 17 55.5t48 18.5t48 -19t17 -55q0 -34 -17.5 -53t-47.5 -19z" />
    <glyph glyph-name="uni0452" unicode="&#x452;" horiz-adv-x="516" 
d="M309 -240q-20 0 -41.5 3t-38.5 8v124q8 -3 18.5 -5t20.5 -2q27 0 39 16.5t12 51.5v336q0 60 -12.5 87t-40.5 27q-22 0 -37 -16t-22 -51.5t-7 -95.5v-243h-145v581h-57v103h57v76h146v-76h108v-103h-108v-27q0 -18 -3 -42.5t-9 -54.5h8q11 26 28 43.5t40 26t51 8.5
q72 0 110 -49t38 -145v-389q0 -95 -38.5 -143.5t-116.5 -48.5z" />
    <glyph glyph-name="uni0453" unicode="&#x453;" horiz-adv-x="375" 
d="M53 0v550h309v-122h-164v-428h-145zM149 604v14l81 146h164v-9l-140 -151h-105z" />
    <glyph glyph-name="uni0454" unicode="&#x454;" horiz-adv-x="415" 
d="M251 -10q-104 0 -161 72.5t-57 204.5q0 92 26.5 157.5t77 100.5t121.5 35q37 0 71 -9.5t65 -28.5l-39 -110q-22 13 -43 19.5t-40 6.5q-46 0 -71 -41t-25 -125t25 -123t78 -39q26 0 52.5 8t48.5 21v-118q-25 -14 -59 -22.5t-70 -8.5zM167 222v109h156v-109h-156z" />
    <glyph glyph-name="uni0455" unicode="&#x455;" horiz-adv-x="384" 
d="M177 -10q-40 0 -77.5 7.5t-71.5 23.5v138q27 -18 63 -31t72 -13q25 0 38 10t13 31q0 12 -5.5 22.5t-23 23t-53.5 31.5q-34 19 -57.5 43t-35.5 55t-12 69q0 75 46 117.5t127 42.5q41 0 77.5 -11t74.5 -34l-38 -111q-24 17 -51 28t-54 11q-21 0 -32 -8.5t-11 -26.5
q0 -11 6.5 -21t24 -22t49.5 -31q34 -19 59 -42.5t39.5 -54.5t14.5 -73q0 -57 -22 -96t-62.5 -58.5t-97.5 -19.5z" />
    <glyph glyph-name="uni0456" unicode="&#x456;" horiz-adv-x="252" 
d="M54 0v550h145v-550h-145zM126 611q-38 0 -58 19.5t-20 57.5q0 39 18.5 59t59.5 20t59.5 -20t18.5 -59q0 -38 -19.5 -57.5t-58.5 -19.5z" />
    <glyph glyph-name="uni0457" unicode="&#x457;" horiz-adv-x="254" 
d="M54 0v550h144v-550h-144zM63 612q-54 0 -54 77t56 77q26 0 39 -20t13 -58q0 -36 -13 -56t-41 -20zM190 612q-54 0 -54 77t54 77q28 0 41 -20t13 -58q0 -36 -13 -56t-41 -20z" />
    <glyph glyph-name="uni0458" unicode="&#x458;" horiz-adv-x="254" 
d="M44 -240q-19 0 -38.5 2.5t-38.5 8.5v124q12 -4 22.5 -6.5t20.5 -2.5q23 0 33.5 18t10.5 53v593h145v-603q0 -64 -18.5 -105.5t-53 -61t-83.5 -20.5zM49 689q0 40 18.5 59.5t59.5 19.5q40 0 59 -20t19 -59t-20 -58.5t-58 -19.5q-39 0 -58.5 19.5t-19.5 58.5z" />
    <glyph glyph-name="uni0459" unicode="&#x459;" horiz-adv-x="711" 
d="M70 -7q-16 0 -31.5 1.5t-30.5 6.5v123q8 -2 13 -3t12 -1q16 0 26.5 6.5t16.5 25.5t8 55q3 36 5 69t4.5 70.5t4.5 86.5t4 117h351v-186h38q95 0 145.5 -45t50.5 -133t-52 -137t-146 -49h-179v425h-77q-2 -46 -4 -83t-4.5 -69.5t-4.5 -63t-5 -61.5q-9 -80 -45 -117.5
t-100 -37.5zM453 116h25q31 0 47.5 17t16.5 51q0 33 -16.5 50t-48.5 17h-24v-135z" />
    <glyph glyph-name="uni045A" unicode="&#x45a;" horiz-adv-x="713" 
d="M53 0v550h145v-201h111v201h141v-201h35q102 0 152.5 -42.5t50.5 -127.5q0 -87 -50.5 -133t-144.5 -46h-184v229h-111v-229h-145zM450 114h30q30 0 46.5 15.5t16.5 44.5q0 31 -15.5 46.5t-48.5 15.5h-29v-122z" />
    <glyph glyph-name="uni045B" unicode="&#x45b;" horiz-adv-x="516" 
d="M55 0v581h-57v103h57v76h146v-76h103v-103h-103v-27q0 -18 -3 -42.5t-9 -54.5h8q11 26 28 43.5t40 26t51 8.5q72 0 110 -50t38 -148v-337h-145v292q0 60 -12.5 87t-39.5 27q-24 0 -39 -16t-21.5 -51.5t-6.5 -95.5v-243h-145z" />
    <glyph glyph-name="uni045C" unicode="&#x45c;" horiz-adv-x="482" 
d="M327 0l-123 274l-3 8l126 268h148l-140 -281l-6 55l155 -324h-157zM53 0v550h145v-550h-145zM183 220v122h82v-122h-82zM206 604v14l81 146h164v-9l-140 -151h-105z" />
    <glyph glyph-name="uni045E" unicode="&#x45e;" horiz-adv-x="466" 
d="M108 -240q-19 0 -36 2.5t-31 6.5v125q10 -3 19 -4.5t19 -1.5q19 0 33.5 8t25.5 29t22 60l24 88l-1 -132l-180 609h151l61 -254q5 -17 8.5 -34.5t6.5 -34t3 -30.5h4q2 19 7 42.5t12 55.5l57 255h150l-165 -595q-19 -70 -45 -113.5t-61.5 -62.5t-83.5 -19zM234 598
q-79 0 -118.5 42.5t-44.5 123.5h111q2 -40 14 -60t38 -20q27 0 40 20t14 60h110q-5 -81 -46 -123.5t-118 -42.5z" />
    <glyph glyph-name="uni045F" unicode="&#x45f;" horiz-adv-x="502" 
d="M181 -122v122h-128v550h145v-428h106v428h145v-550h-128v-122h-140z" />
    <glyph glyph-name="uni0490" unicode="&#x490;" horiz-adv-x="445" 
d="M430 866v-284h-216v-582h-152v714h220v152h148z" />
    <glyph glyph-name="uni0491" unicode="&#x491;" horiz-adv-x="375" 
d="M366 696v-268h-168v-428h-145v550h173v146h140z" />
    <glyph glyph-name="Wgrave" unicode="&#x1e80;" horiz-adv-x="791" 
d="M790 714l-138 -714h-174l-58 306q-4 21 -7.5 42.5t-6.5 44.5t-6 47.5t-5 49.5q-1 -19 -4 -42t-6 -47.5t-6.5 -48.5t-7.5 -45l-58 -307h-173l-139 714h148l59 -338q3 -20 6.5 -44.5t7.5 -51t7 -53t5 -50.5q3 26 7 53.5t8 54t8.5 49.5t7.5 40l68 340h125l63 -339
q4 -19 8.5 -43.5t8 -51t7 -52.5t6.5 -51q3 30 7 63t9.5 68.5t10.5 67.5l60 338h152zM417 930q9 -20 24 -49t30.5 -55.5t25.5 -42.5v-13h-105l-31.5 31.5t-40.5 42t-39 43t-28 34.5v9h164z" />
    <glyph glyph-name="wgrave" unicode="&#x1e81;" horiz-adv-x="709" 
d="M374 261q-3 17 -5.5 36.5l-5 39t-4.5 38.5t-4 36h-3q-3 -19 -5.5 -39.5t-4.5 -40t-4.5 -37t-5.5 -32.5l-47 -262h-164l-115 550h144l34 -193q5 -27 9.5 -59t7.5 -64.5t5 -64.5h3l4 40t5 42.5t7 46t9 49.5l37 203h167l36 -206q6 -32 10 -63.5t8 -59.5t6 -52h4q2 27 4.5 57
t6.5 60t9 59l38 205h142l-116 -550h-167zM376 766q9 -20 24 -49t30.5 -55.5t25.5 -42.5v-13h-105l-31.5 31.5t-40.5 42t-39 43t-28 34.5v9h164z" />
    <glyph glyph-name="Wacute" unicode="&#x1e82;" horiz-adv-x="791" 
d="M790 714l-138 -714h-174l-58 306q-4 21 -7.5 42.5t-6.5 44.5t-6 47.5t-5 49.5q-1 -19 -4 -42t-6 -47.5t-6.5 -48.5t-7.5 -45l-58 -307h-173l-139 714h148l59 -338q3 -20 6.5 -44.5t7.5 -51t7 -53t5 -50.5q3 26 7 53.5t8 54t8.5 49.5t7.5 40l68 340h125l63 -339
q4 -19 8.5 -43.5t8 -51t7 -52.5t6.5 -51q3 30 7 63t9.5 68.5t10.5 67.5l60 338h152zM558 921q-10 -14 -26.5 -33t-35.5 -40t-39 -41t-38 -37h-105v13q17 27 31.5 52t26.5 49t22 46h164v-9z" />
    <glyph glyph-name="wacute" unicode="&#x1e83;" horiz-adv-x="709" 
d="M374 261q-3 17 -5.5 36.5l-5 39t-4.5 38.5t-4 36h-3q-3 -19 -5.5 -39.5t-4.5 -40t-4.5 -37t-5.5 -32.5l-47 -262h-164l-115 550h144l34 -193q5 -27 9.5 -59t7.5 -64.5t5 -64.5h3l4 40t5 42.5t7 46t9 49.5l37 203h167l36 -206q6 -32 10 -63.5t8 -59.5t6 -52h4q2 27 4.5 57
t6.5 60t9 59l38 205h142l-116 -550h-167zM517 757q-10 -14 -26.5 -33t-35.5 -40t-39 -41t-38 -37h-105v13q17 27 31.5 52t26.5 49t22 46h164v-9z" />
    <glyph glyph-name="Wdieresis" unicode="&#x1e84;" horiz-adv-x="791" 
d="M790 714l-138 -714h-174l-58 306q-4 21 -7.5 42.5t-6.5 44.5t-6 47.5t-5 49.5q-1 -19 -4 -42t-6 -47.5t-6.5 -48.5t-7.5 -45l-58 -307h-173l-139 714h148l59 -338q3 -20 6.5 -44.5t7.5 -51t7 -53t5 -50.5q3 26 7 53.5t8 54t8.5 49.5t7.5 40l68 340h125l63 -339
q4 -19 8.5 -43.5t8 -51t7 -52.5t6.5 -51q3 30 7 63t9.5 68.5t10.5 67.5l60 338h152zM235 849q0 35 18 53.5t47 18.5q31 0 49 -19t18 -53q0 -32 -18 -51t-49 -19q-29 0 -47 18.5t-18 51.5zM422 849q0 35 18 53.5t48 18.5q31 0 48.5 -19t17.5 -53q0 -32 -17.5 -51t-49.5 -19
q-30 0 -47.5 19t-17.5 51z" />
    <glyph glyph-name="wdieresis" unicode="&#x1e85;" horiz-adv-x="709" 
d="M374 261q-3 17 -5.5 36.5l-5 39t-4.5 38.5t-4 36h-3q-3 -19 -5.5 -39.5t-4.5 -40t-4.5 -37t-5.5 -32.5l-47 -262h-164l-115 550h144l34 -193q5 -27 9.5 -59t7.5 -64.5t5 -64.5h3l4 40t5 42.5t7 46t9 49.5l37 203h167l36 -206q6 -32 10 -63.5t8 -59.5t6 -52h4q2 27 4.5 57
t6.5 60t9 59l38 205h142l-116 -550h-167zM194 685q0 35 18 53.5t47 18.5q31 0 49 -19t18 -53q0 -32 -18 -51t-49 -19q-29 0 -47 18.5t-18 51.5zM381 685q0 35 18 53.5t48 18.5q31 0 48.5 -19t17.5 -53q0 -32 -17.5 -51t-49.5 -19q-30 0 -47.5 19t-17.5 51z" />
    <glyph glyph-name="Ygrave" unicode="&#x1ef2;" horiz-adv-x="498" 
d="M250 438l91 276h157l-173 -439v-275h-152v270l-173 444h158zM271 930q9 -20 24 -49t30.5 -55.5t25.5 -42.5v-13h-105l-31.5 31.5t-40.5 42t-39 43t-28 34.5v9h164z" />
    <glyph glyph-name="ygrave" unicode="&#x1ef3;" horiz-adv-x="466" 
d="M3 550h151l61 -254q5 -17 8.5 -34.5t6.5 -34t3 -30.5h4q2 19 7 42.5t12 55.5l57 255h150l-165 -595q-19 -70 -45 -113.5t-61.5 -62.5t-82.5 -19q-17 0 -33.5 2t-32.5 6v127q10 -3 20 -4.5t20 -1.5q20 0 32 7.5t22 28t21 60.5l6 22zM255 766q9 -20 24 -49t30.5 -55.5
t25.5 -42.5v-13h-105l-31.5 31.5t-40.5 42t-39 43t-28 34.5v9h164z" />
    <glyph glyph-name="endash" unicode="&#x2013;" horiz-adv-x="500" 
d="M32 209v121h437v-121h-437z" />
    <glyph glyph-name="emdash" unicode="&#x2014;" horiz-adv-x="1000" 
d="M31 209v121h938v-121h-938z" />
    <glyph glyph-name="uni2015" unicode="&#x2015;" horiz-adv-x="1000" 
d="M31 209v121h938v-121h-938z" />
    <glyph glyph-name="underscoredbl" unicode="&#x2017;" horiz-adv-x="487" 
d="M488 -228h-490v74h490v-74zM488 -106h-490v74h490v-74z" />
    <glyph glyph-name="quoteleft" unicode="&#x2018;" horiz-adv-x="255" 
d="M35 448q9 52 19 99t22.5 89t26.5 78h119q-8 -41 -16 -91.5t-13.5 -99.5t-8.5 -86h-143z" />
    <glyph glyph-name="quoteright" unicode="&#x2019;" horiz-adv-x="255" 
d="M220 703q-8 -52 -18 -99t-22 -88.5t-27 -78.5h-119q5 27 11.5 63.5t11.5 76.5t9 76t6 61h142z" />
    <glyph glyph-name="quotesinglbase" unicode="&#x201a;" horiz-adv-x="263" 
d="M222 105q-8 -52 -18 -99t-22 -88.5t-27 -78.5h-119q5 27 11.5 63.5t11.5 76.5t9 76t6 61h142z" />
    <glyph glyph-name="quotereversed" unicode="&#x201b;" horiz-adv-x="255" 
d="M184 714q3 -39 9 -89t13.5 -99t15.5 -89h-119q-14 37 -26.5 78.5t-22.5 88.5t-19 99l6 11h143z" />
    <glyph glyph-name="quotedblleft" unicode="&#x201c;" horiz-adv-x="472" 
d="M438 714q-9 -43 -16.5 -91.5t-13 -96t-8.5 -89.5h-143l-5 11q8 52 18 99t22.5 89t26.5 78h119zM222 714q-8 -41 -16 -91.5t-13.5 -99.5t-8.5 -86h-143l-6 11q9 52 19 99t22.5 89t26.5 78h119z" />
    <glyph glyph-name="quotedblright" unicode="&#x201d;" horiz-adv-x="472" 
d="M436 703q-7 -52 -17.5 -99t-23 -88.5t-27.5 -78.5h-119q10 48 17 95t13 92.5t9 89.5h142zM220 703q-8 -52 -18 -99t-22 -88.5t-27 -78.5h-119q5 27 11 63.5t11.5 76.5t9.5 76t6 61h142z" />
    <glyph glyph-name="quotedblbase" unicode="&#x201e;" horiz-adv-x="472" 
d="M431 128q-7 -52 -17.5 -99t-23 -88.5t-27.5 -78.5h-119q10 48 17 95t13 92.5t9 89.5h142zM215 128q-8 -52 -18 -99t-22 -88.5t-27 -78.5h-119q5 27 11 63.5t11.5 76.5t9.5 76t6 61h142z" />
    <glyph glyph-name="dagger" unicode="&#x2020;" horiz-adv-x="490" 
d="M443 443l-152 17l27 -460h-146l26 460l-152 -17v126l152 -17l-26 208h146l-27 -208l152 17v-126z" />
    <glyph glyph-name="daggerdbl" unicode="&#x2021;" horiz-adv-x="490" 
d="M295 279l148 17v-126l-148 17l27 -187h-144l26 187l-158 -17v126l158 -17l-22 105l22 97l-158 -17v126l158 -16l-26 186h144l-27 -186l148 16v-126l-148 17l22 -97z" />
    <glyph glyph-name="bullet" unicode="&#x2022;" horiz-adv-x="390" 
d="M43 365q0 54 17.5 91.5t52 56.5t82.5 19q49 0 83 -19.5t51.5 -56.5t17.5 -91t-18.5 -91t-52 -56.5t-82.5 -19.5q-47 0 -81 19t-52 56.5t-18 91.5z" />
    <glyph glyph-name="ellipsis" unicode="&#x2026;" horiz-adv-x="793" 
d="M48 76q0 42 22 64.5t63 22.5q40 0 61.5 -22.5t21.5 -64.5t-22 -64.5t-61 -22.5t-62 22.5t-23 64.5zM313 76q0 42 22 64.5t63 22.5q40 0 61.5 -22.5t21.5 -64.5t-22 -64.5t-61 -22.5t-62 22.5t-23 64.5zM578 76q0 42 22 64.5t63 22.5q40 0 61.5 -22.5t21.5 -64.5
t-22 -64.5t-61 -22.5t-62 22.5t-23 64.5z" />
    <glyph glyph-name="perthousand" unicode="&#x2030;" horiz-adv-x="1146" 
d="M176 724q69 0 109.5 -60t40.5 -163q0 -107 -39 -166t-111 -59q-69 0 -109 60.5t-40 164.5q0 107 39 165t110 58zM177 623q-19 0 -28.5 -30.5t-9.5 -92.5q0 -64 9.5 -94t28.5 -30t28 29.5t9 94.5q0 63 -9 93t-28 30zM596 714l-283 -714h-109l284 714h108zM625 439
q69 0 109.5 -59.5t40.5 -163.5q0 -107 -39.5 -166t-110.5 -59q-70 0 -109.5 61t-39.5 164q0 109 39 166t110 57zM625 339q-18 0 -27 -31t-9 -93q0 -63 9 -93t28 -30q21 0 28.5 33t7.5 90t-8 90.5t-29 33.5zM967 439q70 0 110.5 -59.5t40.5 -163.5q0 -107 -39 -166t-111 -59
q-70 0 -109.5 61t-39.5 164q0 108 38.5 165.5t109.5 57.5zM969 339q-20 0 -29 -31t-9 -93q0 -63 9.5 -93t28.5 -30q21 0 29 33t8 90t-8.5 90.5t-28.5 33.5z" />
    <glyph glyph-name="minute" unicode="&#x2032;" horiz-adv-x="255" 
d="M134 714h143l-130 -248h-104z" />
    <glyph glyph-name="second" unicode="&#x2033;" horiz-adv-x="474" 
d="M353 714h143l-130 -248h-104zM134 714h143l-130 -248h-104z" />
    <glyph glyph-name="guilsinglleft" unicode="&#x2039;" horiz-adv-x="311" 
d="M25 284l153 224l104 -55l-102 -176l102 -175l-104 -56l-153 224v14z" />
    <glyph glyph-name="guilsinglright" unicode="&#x203a;" horiz-adv-x="311" 
d="M133 508l153 -224v-14l-153 -224l-104 56l101 175l-101 176z" />
    <glyph glyph-name="exclamdbl" unicode="&#x203c;" horiz-adv-x="508" 
d="M194 241h-124l-23 473h169zM47 76q0 42 21.5 64.5t63.5 22.5q40 0 61.5 -22.5t21.5 -64.5t-22.5 -64.5t-60.5 -22.5q-40 0 -62.5 22.5t-22.5 64.5zM438 241h-124l-23 473h169zM291 76q0 42 21.5 64.5t63.5 22.5q40 0 61.5 -22.5t21.5 -64.5t-22.5 -64.5t-60.5 -22.5
q-40 0 -62.5 22.5t-22.5 64.5z" />
    <glyph glyph-name="fraction" unicode="&#x2044;" horiz-adv-x="89" 
d="M276 714l-349 -714h-115l350 714h114z" />
    <glyph glyph-name="uni207F" unicode="&#x207f;" horiz-adv-x="334" 
d="M204 623q46 0 71 -31t25 -88v-217h-94v190q0 34 -7 51.5t-27 17.5q-25 0 -34 -23.5t-9 -80.5v-155h-94v330h74l10 -42h6q7 16 19 26.5t27 16t33 5.5z" />
    <glyph glyph-name="franc" unicode="&#x20a3;" horiz-adv-x="481" 
d="M105 0v112h-74v111h74v491h326v-129h-177v-147h164v-129h-164v-86h121v-111h-121v-112h-149z" />
    <glyph glyph-name="lira" unicode="&#x20a4;" horiz-adv-x="481" 
d="M289 724q38 0 74.5 -10t71.5 -31l-39 -119q-26 14 -49.5 21t-44.5 7q-24 0 -35.5 -18.5t-11.5 -58.5v-34h119v-94h-119v-63h119v-93h-122q-2 -24 -10 -42t-21 -32t-31 -26h256v-131h-407v125q29 16 42.5 30.5t18.5 32.5t7 43h-69v93h70v63h-70v94h70v33q0 69 21 116
t61.5 70.5t98.5 23.5z" />
    <glyph glyph-name="peseta" unicode="&#x20a7;" horiz-adv-x="775" 
d="M241 714q108 0 162 -57.5t54 -166.5q0 -58 -14.5 -104t-43 -77t-70 -47t-95.5 -16h-27v-246h-145v714h179zM235 585h-28v-210h17q42 0 64.5 26.5t22.5 87.5q0 49 -19 72.5t-57 23.5zM644 536v-123h103v-114h-103v-130q0 -27 9 -42t29 -15t38 5.5t28 13.5v-113
q-18 -12 -40.5 -20t-53.5 -8q-52 0 -84 19t-47.5 58t-15.5 100v132h-55v57l67 53l41 127h84z" />
    <glyph glyph-name="Euro" unicode="&#x20ac;" horiz-adv-x="481" 
d="M296 724q43 0 84 -11.5t80 -36.5l-42 -125q-28 19 -55.5 30.5t-58.5 11.5q-21 0 -36 -11t-24.5 -29t-14.5 -40.5t-8 -46.5h137v-87h-141q-1 -7 -1 -13.5v-14.5v-15t1 -16h118v-87h-112q6 -39 17 -63.5t30 -36t47 -11.5q29 0 59.5 12t66.5 30v-137q-33 -18 -70.5 -27.5
t-79.5 -9.5q-65 0 -109.5 33t-70 88t-33.5 122h-68v87h60q-1 8 -1 16v15v14.5t1 13.5h-60v87h66q8 75 34.5 133t72.5 91.5t111 33.5z" />
    <glyph glyph-name="uni2105" unicode="&#x2105;" horiz-adv-x="699" 
d="M553 714l-329 -714h-114l330 714h113zM672 171q0 -83 -38 -131.5t-106 -48.5q-65 0 -103 49t-38 131q0 84 38 132.5t105 48.5q65 0 103.5 -49.5t38.5 -131.5zM489 171q0 -47 10 -70.5t30 -23.5q21 0 31 24t10 70q0 48 -10 72.5t-31 24.5q-20 0 -30 -24.5t-10 -72.5z
M171 362q-69 0 -107 47.5t-38 129.5q0 59 16.5 100t48.5 62.5t81 21.5q24 0 47.5 -6.5t45.5 -19.5l-21 -81q-17 10 -33.5 14.5t-31.5 4.5q-25 0 -37.5 -23.5t-12.5 -69.5t12.5 -68.5t38.5 -22.5q19 0 38.5 5t37.5 15v-85q-16 -12 -37.5 -18t-47.5 -6z" />
    <glyph glyph-name="uni2113" unicode="&#x2113;" horiz-adv-x="481" 
d="M289 100q24 0 33.5 26t9.5 72h112q0 -74 -19 -119.5t-59 -66t-101 -20.5q-51 0 -86.5 24.5t-54.5 70.5t-19 110v46q-16 -6 -34.5 -11.5t-37.5 -12.5v108q18 5 36.5 11t35.5 12v178q0 64 19.5 107.5t58 65.5t94.5 22q77 0 118.5 -47.5t41.5 -135.5q0 -59 -21 -107.5
t-64 -85t-107 -60.5v-102q0 -46 10.5 -65.5t33.5 -19.5zM315 540q0 40 -9.5 58t-25.5 18q-18 0 -26.5 -14.5t-8.5 -52.5v-151q35 20 52.5 55t17.5 87z" />
    <glyph glyph-name="uni2116" unicode="&#x2116;" horiz-adv-x="880" 
d="M49 0v714h169l150 -443h4q-2 35 -3.5 68t-2 64.5t-0.5 60.5v250h137v-714h-169l-151 445h-4q3 -45 4.5 -82t2.5 -66t1 -51v-246h-138zM571 0v95h266v-95h-266zM704 148q-44 0 -76.5 22.5t-50 63t-17.5 94.5q0 85 38.5 132.5t106.5 47.5q44 0 76 -22t50 -62.5t18 -95.5
q0 -84 -38 -132t-107 -48zM704 234q21 0 32 23t11 71t-11 71t-32 23t-31.5 -23t-10.5 -71t10.5 -71t31.5 -23z" />
    <glyph glyph-name="trademark" unicode="&#x2122;" horiz-adv-x="682" 
d="M273 362v352h123l57 -210l62 210h118v-352h-87v166q0 18 1 33t2 28h-4l-67 -227h-53l-64 227h-3q1 -15 1.5 -30t0.5 -31v-166h-87zM78 362v267h-73v85h240v-85h-74v-267h-93z" />
    <glyph glyph-name="uni2126" unicode="&#x2126;" horiz-adv-x="555" 
d="M14 0v131h117q-41 26 -66.5 65.5t-37.5 92t-12 114.5q0 100 31 172t90 111t142 39q79 0 137.5 -38.5t91 -110.5t32.5 -173q0 -62 -11.5 -113.5t-37.5 -91t-69 -67.5h120v-131h-232v146q28 25 45 60.5t25 83t8 107.5q0 66 -12 109.5t-36 65.5t-61 22t-61 -22t-36 -66
t-12 -110q0 -61 6.5 -108.5t23.5 -82.5t46 -59v-146h-231z" />
    <glyph glyph-name="estimated" unicode="&#x212e;" horiz-adv-x="619" 
d="M309 -17q-84 0 -142 39t-87.5 102t-29.5 135t23 124t60.5 86t83.5 50t92 16q74 0 132.5 -33.5t92.5 -95.5t34 -147h-404v-174q22 -23 61 -41.5t84 -18.5q73 0 116 30t77 84l35 -20q-23 -37 -52.5 -68t-71.5 -49.5t-104 -18.5zM455 436q-19 20 -57 39t-90 19
q-49 0 -85 -17t-59 -40v-136h291v135z" />
    <glyph glyph-name="oneeighth" unicode="&#x215b;" horiz-adv-x="827" 
d="M173 0l350 714h115l-350 -714h-115zM150 479v34.5t1 35.5t2 37q-7 -7 -12.5 -13t-10.5 -10l-48 -38l-51 69l140 120h86v-428h-107v193zM654 69q25 0 37.5 12.5t12.5 35.5q0 19 -10 33.5t-34 22.5l-8 4q-15 -6 -25.5 -14.5t-15.5 -19t-5 -22.5q0 -24 12.5 -38t35.5 -14z
M656 -11q-69 0 -109.5 33.5t-40.5 93.5q0 35 16.5 58t52.5 45q-28 22 -41.5 48t-13.5 58q0 33 17 57.5t48 37.5t71 13q61 0 97.5 -29.5t36.5 -80.5q0 -29 -13.5 -53t-48.5 -45q41 -19 58.5 -45t17.5 -63q0 -57 -41 -92.5t-107 -35.5zM656 259q17 9 28 23t11 31
q0 20 -10.5 30t-28.5 10q-20 0 -30.5 -10.5t-10.5 -29.5q0 -16 10.5 -29.5t30.5 -24.5z" />
    <glyph glyph-name="threeeighths" unicode="&#x215c;" horiz-adv-x="827" 
d="M176 0l350 714h115l-350 -714h-115zM149 278q-35 0 -64 8t-53 24v100q23 -18 52 -28t64 -10q26 0 39 10.5t13 29.5q0 26 -15.5 38t-47.5 12h-42v82h34q32 0 47.5 12.5t15.5 34.5q0 19 -10 31t-33 12q-21 0 -39 -8.5t-39 -27.5l-45 69q30 28 63.5 42.5t69.5 14.5
q59 0 96 -28.5t37 -78.5q0 -37 -17 -64t-49 -41v-4q37 -12 57 -38t20 -69q0 -57 -43.5 -90t-110.5 -33zM654 69q25 0 37.5 12.5t12.5 35.5q0 19 -10 33.5t-34 22.5l-8 4q-15 -6 -25.5 -14.5t-15.5 -19t-5 -22.5q0 -24 12.5 -38t35.5 -14zM656 -11q-69 0 -109.5 33.5
t-40.5 93.5q0 35 16.5 58t52.5 45q-28 22 -41.5 48t-13.5 58q0 33 17 57.5t48 37.5t71 13q61 0 97.5 -29.5t36.5 -80.5q0 -29 -13.5 -53t-48.5 -45q41 -19 58.5 -45t17.5 -63q0 -57 -41 -92.5t-107 -35.5zM656 259q17 9 28 23t11 31q0 20 -10.5 30t-28.5 10
q-20 0 -30.5 -10.5t-10.5 -29.5q0 -16 10.5 -29.5t30.5 -24.5z" />
    <glyph glyph-name="fiveeighths" unicode="&#x215d;" horiz-adv-x="827" 
d="M176 0l349 714h115l-349 -714h-115zM150 276q-31 0 -59 5.5t-53 16.5v99q19 -15 44 -25t51 -10q32 0 48.5 16.5t16.5 47.5q0 28 -14 42t-42 14q-11 0 -21 -4t-19 -9l-59 27l16 218h218v-91h-140l-6 -64q14 2 25 3t19 1q59 0 94 -37.5t35 -99.5q0 -72 -39 -111t-115 -39z
M654 69q25 0 37.5 12.5t12.5 35.5q0 19 -10 33.5t-34 22.5l-8 4q-15 -6 -25.5 -14.5t-15.5 -19t-5 -22.5q0 -24 12.5 -38t35.5 -14zM656 -11q-69 0 -109.5 33.5t-40.5 93.5q0 35 16.5 58t52.5 45q-28 22 -41.5 48t-13.5 58q0 33 17 57.5t48 37.5t71 13q61 0 97.5 -29.5
t36.5 -80.5q0 -29 -13.5 -53t-48.5 -45q41 -19 58.5 -45t17.5 -63q0 -57 -41 -92.5t-107 -35.5zM656 259q17 9 28 23t11 31q0 20 -10.5 30t-28.5 10q-20 0 -30.5 -10.5t-10.5 -29.5q0 -16 10.5 -29.5t30.5 -24.5z" />
    <glyph glyph-name="seveneighths" unicode="&#x215e;" horiz-adv-x="827" 
d="M157 0l349 714h115l-349 -714h-115zM64 286l146 337h-181v91h287v-77l-135 -351h-117zM654 69q25 0 37.5 12.5t12.5 35.5q0 19 -10 33.5t-34 22.5l-8 4q-15 -6 -25.5 -14.5t-15.5 -19t-5 -22.5q0 -24 12.5 -38t35.5 -14zM656 -11q-69 0 -109.5 33.5t-40.5 93.5
q0 35 16.5 58t52.5 45q-28 22 -41.5 48t-13.5 58q0 33 17 57.5t48 37.5t71 13q61 0 97.5 -29.5t36.5 -80.5q0 -29 -13.5 -53t-48.5 -45q41 -19 58.5 -45t17.5 -63q0 -57 -41 -92.5t-107 -35.5zM656 259q17 9 28 23t11 31q0 20 -10.5 30t-28.5 10q-20 0 -30.5 -10.5
t-10.5 -29.5q0 -16 10.5 -29.5t30.5 -24.5z" />
    <glyph glyph-name="cyrillicbreve" 
d="M163 601q-79 0 -118.5 42.5t-44.5 123.5h111q2 -40 14 -60t38 -20q27 0 40 20t14 60h110q-5 -81 -46 -123.5t-118 -42.5z" />
    <glyph glyph-name="uni0326" unicode="&#x326;" 
d="M76 -72q-7 -25 -17 -51.5t-22 -51t-26 -46.5h-95v13q4 17 8.5 44t8 55t4.5 48h139v-11z" />
    <glyph glyph-name="uni2074" unicode="&#x2074;" horiz-adv-x="341" 
d="M328 489h-52v-74h-104v74h-160v79l148 276h116v-270h52v-85zM172 665q0 19 1 36t2 33q-8 -22 -14 -37.5t-12 -24.5l-51 -98h74v91z" />
    <glyph glyph-name="uni2075" unicode="&#x2075;" horiz-adv-x="341" 
d="M277 843v-91h-140l-6 -64q14 2 25 3t19 1q59 0 94 -37.5t35 -98.5q0 -72 -39 -111.5t-115 -39.5q-31 0 -59 6t-53 17v99q19 -16 44 -25.5t51 -9.5q32 0 48.5 16t16.5 48q0 28 -14 42t-42 14q-11 0 -21 -4t-19 -10l-59 28l16 217h218z" />
    <glyph glyph-name="uni2077" unicode="&#x2077;" horiz-adv-x="341" 
d="M61 415l145 337h-180v91h286v-77l-134 -351h-117z" />
    <glyph glyph-name="uni2078" unicode="&#x2078;" horiz-adv-x="341" 
d="M171 851q61 0 97.5 -30t36.5 -80q0 -29 -13.5 -53t-48.5 -46q41 -19 58.5 -44.5t17.5 -63.5q0 -56 -41 -91.5t-107 -35.5q-46 0 -79.5 15t-51.5 43.5t-18 68.5q0 24 7 41.5t22 32.5t39 29q-27 21 -40.5 47.5t-13.5 57.5q0 33 17 57.5t47.5 38t70.5 13.5zM167 594
q-15 -6 -25.5 -14t-15.5 -18.5t-5 -23.5q0 -23 13 -37t35 -14q25 0 38 12t13 36q0 18 -10.5 32.5t-34.5 23.5zM171 770q-19 0 -30 -10t-11 -29q0 -16 10.5 -30t30.5 -24q17 9 28.5 23t11.5 31q0 20 -11 29.5t-29 9.5z" />
    <glyph glyph-name="uni2000" unicode="&#x2000;" horiz-adv-x="500" 
 />
    <glyph glyph-name="uni2001" unicode="&#x2001;" horiz-adv-x="1000" 
 />
    <glyph glyph-name="uni2002" unicode="&#x2002;" horiz-adv-x="500" 
 />
    <glyph glyph-name="uni2003" unicode="&#x2003;" horiz-adv-x="1000" 
 />
    <glyph glyph-name="uni2004" unicode="&#x2004;" horiz-adv-x="333" 
 />
    <glyph glyph-name="uni2005" unicode="&#x2005;" horiz-adv-x="250" 
 />
    <glyph glyph-name="uni2006" unicode="&#x2006;" horiz-adv-x="167" 
 />
    <glyph glyph-name="uni2007" unicode="&#x2007;" horiz-adv-x="481" 
 />
    <glyph glyph-name="uni2008" unicode="&#x2008;" horiz-adv-x="263" 
 />
    <glyph glyph-name="uni2009" unicode="&#x2009;" horiz-adv-x="166" 
 />
    <glyph glyph-name="uni200A" unicode="&#x200a;" horiz-adv-x="100" 
 />
    <glyph glyph-name="uni200B" unicode="&#x200b;" 
 />
    <glyph glyph-name="uniFEFF" unicode="&#xfeff;" 
 />
    <glyph glyph-name="uniFFFC" unicode="&#xfffc;" horiz-adv-x="994" 
d="M38 593v148h148v-52h-97v-96h-51zM818 689v52h148v-148h-51v96h-97zM38 -187v148h51v-97h97v-51h-148zM818 -187v51h97v97h51v-148h-148zM627 -187v51h133v-51h-133zM245 -187v51h132v-51h-132zM245 689v52h132v-52h-132zM966 19h-51v132h51v-132zM966 402h-51v132h51
v-132zM436 -187v51h133v-51h-133zM89 19h-51v132h51v-132zM436 689v52h133v-52h-133zM627 689v52h133v-52h-133zM89 210h-51v133h51v-133zM89 402h-51v132h51v-132zM966 210h-51v133h51v-133zM417 307q0 -70 -32.5 -108.5t-93.5 -38.5t-94 38.5t-33 108.5q0 71 33 109t94 38
q62 0 94 -37.5t32 -109.5zM224 307q0 -49 17 -73.5t49 -24.5q34 0 51 24.5t17 73.5t-17 73.5t-51 24.5q-32 0 -49 -24.5t-17 -73.5zM544 450q53 0 80.5 -16t27.5 -57q0 -24 -11.5 -40t-32.5 -20v-4q29 -6 40.5 -22.5t11.5 -43.5q0 -40 -26.5 -61.5t-72.5 -21.5h-101v286h84z
M552 336q24 0 33 8.5t9 24.5q0 17 -10.5 24.5t-34.5 7.5h-32v-65h35zM517 290v-77h39q25 0 34 11t9 29t-10.5 27.5t-34.5 9.5h-37zM725 161q-24 0 -39 5v49q10 -2 18 -3t14 -1q22 0 32.5 11t10.5 32v196h58v-194q0 -46 -25 -70.5t-69 -24.5z" />
    <glyph glyph-name="uniFFFD" unicode="&#xfffd;" horiz-adv-x="993" 
d="M496 760l459 -458l-459 -458l-458 458zM528 202q0 26 11 41t42 39q33 26 52 48t26.5 45t7.5 52q0 66 -46.5 103.5t-126.5 37.5q-24 0 -54 -6.5t-58.5 -17.5t-50.5 -24l40 -87q39 20 69.5 29.5t52.5 9.5q31 0 46 -14t15 -37q0 -27 -12.5 -44.5t-46.5 -44.5
q-40 -30 -55 -57.5t-15 -66.5v-29h103v23zM412 45q0 -31 17.5 -48.5t51.5 -17.5q32 0 50 17.5t18 48.5t-18 49t-50 18q-35 0 -52 -17.5t-17 -49.5z" />
    <glyph glyph-name="uni01F0" unicode="&#x1f0;" horiz-adv-x="254" 
d="M44 -240q-17 0 -40.5 3.5t-36.5 7.5v124q12 -4 22.5 -6.5t20.5 -2.5q23 0 33.5 17t10.5 50v597h145v-603q0 -58 -18 -100t-52.5 -64.5t-84.5 -22.5zM61 606q-9 19 -26 46.5t-36 55t-33 45.5v13h89q16 -14 34 -33.5t38 -43.5q22 26 39 44t34 33h88v-13q-14 -19 -32 -46
t-35 -53.5t-28 -47.5h-132z" />
    <glyph glyph-name="uni02BC" unicode="&#x2bc;" horiz-adv-x="255" 
d="M216 703q-8 -52 -18 -99t-22 -88.5t-27 -78.5h-119q5 27 11.5 63.5t11.5 76.5t9 76t6 61h142z" />
    <glyph glyph-name="uni1E3E" unicode="&#x1e3e;" horiz-adv-x="788" 
d="M333 0l-132 505h-4q3 -32 4.5 -61.5t2 -55t0.5 -47.5v-341h-142v714h209l122 -461h3l123 461h207v-714h-145v343q0 24 0.5 49.5t2 53.5t3.5 59h-4l-134 -505h-116zM568 919q-10 -14 -26.5 -33t-35.5 -40t-39 -41t-38 -37h-105v13q17 27 31.5 52t26.5 49t22 46h164v-9z
" />
    <glyph glyph-name="uni1E3F" unicode="&#x1e3f;" horiz-adv-x="766" 
d="M572 560q71 0 107 -49.5t36 -150.5v-360h-145v315q0 59 -12 87.5t-38 28.5q-36 0 -49.5 -39t-13.5 -121v-271h-146v316q0 39 -5 64.5t-15.5 38t-27.5 12.5q-25 0 -39 -19t-20 -58t-6 -99v-255h-145v550h114l16 -69h9q11 26 29 43.5t44 26.5t57 9q48 0 76 -21.5t41 -54.5
h10q19 37 49 56.5t74 19.5zM571 757q-10 -14 -26.5 -33t-35.5 -40t-39 -41t-38 -37h-105v13q17 27 31.5 52t26.5 49t22 46h164v-9z" />
    <glyph glyph-name="uni1E00" unicode="&#x1e00;" horiz-adv-x="548" 
d="M386 0l-33 157h-157l-32 -157h-164l173 714h199l176 -714h-162zM295 464q-4 25 -7.5 49t-6.5 45.5t-6 40.5q-2 -18 -5 -39.5t-7 -45t-9 -48.5l-35 -178h111zM273 -287q-55 0 -87.5 33t-32.5 85t32 85.5t87 33.5t88 -34.5t33 -82.5q0 -51 -33 -85.5t-87 -34.5zM272 -212
q20 0 32 12t12 30q0 20 -12.5 32t-30.5 12q-19 0 -31.5 -12t-12.5 -32q0 -18 11 -30t32 -12z" />
    <glyph glyph-name="uni1E01" unicode="&#x1e01;" horiz-adv-x="478" 
d="M255 560q82 0 126.5 -49.5t44.5 -148.5v-362h-106l-23 73h-3q-17 -28 -36.5 -46.5t-44 -27.5t-57.5 -9q-46 0 -74.5 25t-41.5 65t-13 85q0 87 47.5 130.5t136.5 47.5l70 3v18q0 40 -13.5 60t-43.5 20q-23 0 -51.5 -9.5t-63.5 -30.5l-39 108q39 23 86 35.5t99 12.5z
M247 249q-37 -2 -56 -21.5t-19 -56.5q0 -33 11.5 -49t33.5 -16q28 0 46 26t18 69v50zM238 -287q-55 0 -87.5 33t-32.5 85t32 85.5t87 33.5t88 -34.5t33 -82.5q0 -51 -33 -85.5t-87 -34.5zM237 -212q20 0 32 12t12 30q0 20 -12.5 32t-30.5 12q-19 0 -31.5 -12t-12.5 -32
q0 -18 11 -30t32 -12z" />
    <glyph glyph-name="uni02F3" unicode="&#x2f3;" horiz-adv-x="406" 
d="M203 -287q-55 0 -87.5 33t-32.5 85t32 85.5t87 33.5t88 -34.5t33 -82.5q0 -51 -33 -85.5t-87 -34.5zM202 -212q20 0 32 12t12 30q0 20 -12.5 32t-30.5 12q-19 0 -31.5 -12t-12.5 -32q0 -18 11 -30t32 -12z" />
    <glyph glyph-name="Ohorn" unicode="&#x1a0;" horiz-adv-x="627" 
d="M565 358q0 -87 -16.5 -155.5t-49 -116t-82 -72t-114.5 -24.5q-64 0 -113.5 25t-82.5 72.5t-49.5 116t-16.5 155.5q0 120 30 201.5t88.5 123t143.5 41.5q64 0 112 -22.5t81 -68.5q11 21 16.5 40.5t8.5 40.5t3 45h134l5 -12q-8 -93 -37.5 -142t-82.5 -75q11 -36 16.5 -79.5
t5.5 -93.5zM199 358q0 -78 11.5 -130t35 -78t57.5 -26q35 0 58 25.5t34.5 77t11.5 131.5q0 119 -26 177.5t-78 58.5q-34 0 -57.5 -26.5t-35 -79t-11.5 -130.5z" />
    <glyph glyph-name="ohorn" unicode="&#x1a1;" horiz-adv-x="560" 
d="M466 276q0 -88 -25.5 -152.5t-73.5 -99t-118 -34.5q-66 0 -114 35t-74.5 99.5t-26.5 151.5q0 135 57 209.5t160 74.5q48 0 87.5 -18.5t67.5 -54.5q20 6 31 28t15.5 53t4.5 63h133l6 -12q-7 -73 -26 -119.5t-48.5 -71t-69.5 -35.5q7 -26 10.5 -55t3.5 -62zM181 274
q0 -53 7.5 -89.5t23 -54.5t38.5 -18q26 0 40.5 18t21.5 55t7 91q0 55 -7 91t-22 53.5t-40 17.5q-36 0 -52.5 -40t-16.5 -124z" />
    <glyph glyph-name="Uhorn" unicode="&#x1af;" horiz-adv-x="684" 
d="M516 614q27 1 40.5 23t19 55t5.5 68h134l5 -12q-6 -64 -21.5 -108t-40.5 -71t-60.5 -39.5t-81.5 -13.5v-248q0 -91 -26.5 -153.5t-77.5 -93.5t-126 -31q-110 0 -169 69t-59 206v449h152v-444q0 -78 19.5 -112t57.5 -34q27 0 44 15t25.5 47.5t8.5 84.5v443h151v-100z" />
    <glyph glyph-name="uhorn" unicode="&#x1b0;" horiz-adv-x="622" 
d="M658 619q-6 -65 -21.5 -109t-40.5 -70.5t-58.5 -39t-76.5 -14.5v-386h-113l-17 69h-8q-12 -26 -30 -43.5t-40.5 -26.5t-51.5 -9q-48 0 -81.5 24t-50.5 69t-17 108v359h145v-313q0 -58 11 -88t37 -30q39 0 55 37.5t16 134.5v259h145v-66q22 5 35 26t18 52.5t5 67.5h134z
" />
    <glyph glyph-name="uni0400" unicode="&#x400;" horiz-adv-x="434" 
d="M62 0v714h331v-129h-179v-150h166v-130h-166v-174h179v-131h-331zM207 766l-139 150v10h164l80 -147v-13h-105z" />
    <glyph glyph-name="uni040D" unicode="&#x40d;" horiz-adv-x="605" 
d="M297 764l-139 150v10h164l80 -147v-13h-105zM62 0v714h144v-307q0 -22 -1 -49.5t-3 -59.5t-6 -68h4l159 484h185v-714h-144v310q0 16 0.5 36t1.5 43t2.5 48t4.5 51h-4l-160 -488h-183z" />
    <glyph glyph-name="uni0450" unicode="&#x450;" horiz-adv-x="468" 
d="M261 -10q-77 0 -128 33.5t-75.5 96t-24.5 150.5q0 93 25 158t71.5 99t112.5 34q65 0 108.5 -30t65.5 -86.5t22 -135.5v-79h-261q1 -61 27.5 -90.5t77.5 -29.5q35 0 67.5 10t62.5 30v-121q-30 -19 -69.5 -29t-81.5 -10zM177 332h127q0 38 -7.5 63.5t-21 38.5t-33.5 13
q-29 0 -46.5 -26.5t-18.5 -88.5zM220 602l-139 150v10h164l80 -147v-13h-105z" />
    <glyph glyph-name="uni045D" unicode="&#x45d;" horiz-adv-x="519" 
d="M53 0v550h136v-194q0 -25 -1 -49.5t-3 -50.5t-5 -60h2l128 354h156v-550h-135v199q0 25 1 50t3.5 51t4.5 51h-2l-127 -351h-158zM241 602l-139 150v10h164l80 -147v-13h-105z" />
    <glyph glyph-name="uni0460" unicode="&#x460;" horiz-adv-x="834" 
d="M170 0q-37 88 -66 177.5t-49.5 179t-32 179.5t-12.5 178h158q0 -64 5 -132.5t16 -137.5t26.5 -134t34.5 -122h3q6 37 17 74.5t21 73.5l46 157q-5 39 -9.5 74.5t-6.5 72t-2 74.5h155q0 -65 5 -131t15.5 -133t28 -132.5t41.5 -129.5h3q32 77 53.5 166t34 181.5t13.5 178.5
h155q-7 -110 -30 -230.5t-62.5 -243t-100.5 -240.5h-127q-15 34 -30 69.5t-29 72t-26 71t-22 66.5l-77 -279h-149z" />
    <glyph glyph-name="uni0461" unicode="&#x461;" horiz-adv-x="729" 
d="M703 550q-3 -95 -24 -194t-52 -190.5t-65 -165.5h-128q-14 31 -30 73.5t-30 86.5t-21 77l-75 -237h-131q-32 68 -55.5 136.5t-39 138t-25 138.5t-13.5 137h141q3 -61 11 -130.5t22 -137t33 -121.5h3q5 13 10 31t10.5 35.5t9.5 28.5l49 137q-6 43 -9 85t-4 72h137
q3 -63 11.5 -133.5t23 -138t34.5 -120.5h3q18 47 32.5 112.5t23 138t8.5 141.5h140z" />
    <glyph glyph-name="uni0462" unicode="&#x462;" horiz-adv-x="508" 
d="M66 0v553h-65v112h65v95h152v-95h131v-112h-131v-111h14q80 0 134.5 -23t83 -70.5t28.5 -121.5q0 -71 -28 -122t-81 -78t-129 -27h-174zM233 130q47 0 70.5 23.5t23.5 70.5q0 30 -9.5 50t-30 30t-54.5 10h-15v-184h15z" />
    <glyph glyph-name="uni0463" unicode="&#x463;" horiz-adv-x="508" 
d="M245 658v-108h109v-103h-109v-101h28q106 0 158 -39.5t52 -128.5q0 -61 -23 -100.5t-66 -58.5t-106 -19h-188v447h-91v103h91v108h145zM276 237h-31v-128h32q30 0 45.5 16t15.5 46q0 32 -14 49t-48 17z" />
    <glyph glyph-name="uni0464" unicode="&#x464;" horiz-adv-x="744" 
d="M540 -10q-78 0 -133 37t-86.5 107t-38.5 167h-68v-301h-152v714h152v-283h71q8 72 29 126t54.5 91.5t78 56.5t101.5 19q46 0 89 -11.5t83 -36.5l-41 -125q-31 20 -61 31t-66 11q-24 0 -43.5 -11.5t-34.5 -33t-24.5 -51.5t-14.5 -66h193v-130h-195q3 -43 12.5 -76
t25.5 -56t38.5 -35t50.5 -12q36 0 70 12t67 31v-137q-34 -19 -73.5 -28.5t-83.5 -9.5z" />
    <glyph glyph-name="uni0465" unicode="&#x465;" horiz-adv-x="648" 
d="M475 -10q-69 0 -113.5 27t-68 78.5t-31.5 125.5h-64v-221h-145v550h145v-220h65q8 67 33.5 119t72.5 81.5t116 29.5q37 0 72 -10t68 -29l-40 -110q-23 15 -48 23t-52 8q-22 0 -38.5 -12.5t-26.5 -37.5t-15 -62h140v-109h-140q5 -37 15.5 -61.5t28 -36.5t40.5 -12
q31 0 62.5 11t60.5 32v-119q-28 -23 -63 -34t-74 -11z" />
    <glyph glyph-name="uni0466" unicode="&#x466;" horiz-adv-x="665" 
d="M436 714l233 -714h-162l-84 283h-19v-283h-142v283h-21l-82 -283h-163l233 714h207zM332 603q-1 -8 -3 -15.5t-3.5 -15t-3 -14t-3.5 -12.5l-43 -142h112l-43 145q-1 5 -3 11.5t-3.5 13.5t-3 14.5t-3.5 14.5z" />
    <glyph glyph-name="uni0467" unicode="&#x467;" horiz-adv-x="553" 
d="M369 550l186 -550h-145l-54 193h-16v-193h-126v193h-15l-56 -193h-144l187 550h183zM276 457q-2 -12 -4.5 -22t-4.5 -18.5t-5 -17.5l-27 -93h85l-27 93q-2 9 -4.5 17.5t-4.5 18.5t-4 22h-4z" />
    <glyph glyph-name="uni0468" unicode="&#x468;" horiz-adv-x="913" 
d="M685 714l232 -714h-162l-83 283h-20v-283h-142v283h-20l-83 -283h-160l98 305h-131v-305h-152v714h152v-278h175l90 278h206zM581 603q-1 -8 -3 -15.5t-3.5 -15t-3.5 -14t-4 -12.5l-42 -142h112l-43 145q-2 5 -3.5 11.5t-3 13.5t-3 14.5t-3.5 14.5z" />
    <glyph glyph-name="uni0469" unicode="&#x469;" horiz-adv-x="778" 
d="M595 550l185 -550h-145l-54 193h-16v-193h-126v193h-16l-55 -193h-140l75 224h-105v-224h-145v550h145v-204h147l68 204h182zM501 457q-2 -13 -5 -25t-5.5 -22.5t-6.5 -20.5l-24 -83h85l-24 84q-2 9 -5 19.5t-6 23t-5 24.5h-4z" />
    <glyph glyph-name="uni046A" unicode="&#x46a;" horiz-adv-x="680" 
d="M607 714v-79l-130 -219q37 -10 61 -31.5t42 -60.5t35 -102l62 -222h-162l-42 176q-11 50 -19.5 76t-18 37.5t-24.5 14.5v-304h-142v304q-14 -2 -23.5 -12t-17.5 -36t-21 -80l-42 -176h-162l62 222q13 47 25 80.5t26 55.5t34 36t50 22l-125 219v79h532zM420 592h-162
l80 -162z" />
    <glyph glyph-name="uni046B" unicode="&#x46b;" horiz-adv-x="578" 
d="M517 550v-68l-109 -167q34 -8 56.5 -26.5t38.5 -48t26 -70.5l44 -170h-142l-37 175q-3 17 -9 27t-13.5 15.5t-18.5 5.5v-223h-127v222q-11 0 -19 -5t-12.5 -15t-8.5 -27l-39 -175h-141l41 170q10 42 26.5 72.5t40 49t54.5 24.5l-109 166v68h458zM356 447h-137l68 -115z
" />
    <glyph glyph-name="uni046C" unicode="&#x46c;" horiz-adv-x="926" 
d="M854 714v-79l-130 -221q37 -10 61 -32t41.5 -60.5t35.5 -102.5l62 -219h-162l-42 175q-11 49 -20 75.5t-18.5 37.5t-24.5 15v-303h-142v303q-13 -3 -22 -12t-17.5 -35.5t-22.5 -80.5l-41 -175h-159l55 193q9 30 19.5 58t25.5 54h-139v-305h-152v714h152v-278h220
l-113 199v79h533zM668 592h-163l80 -163z" />
    <glyph glyph-name="uni046D" unicode="&#x46d;" horiz-adv-x="811" 
d="M750 550v-68l-109 -168q33 -8 56 -26.5t38.5 -47.5t26.5 -71l44 -169h-142l-38 174q-4 17 -9.5 27t-13 15t-18.5 5v-221h-126v220q-12 0 -19 -5t-12.5 -14.5t-9.5 -26.5l-38 -174h-138l44 178q4 13 8.5 25t10.5 21h-107v-224h-145v550h145v-204h182l-89 136v68h459z
M589 447h-137l68 -116z" />
    <glyph glyph-name="uni046E" unicode="&#x46e;" horiz-adv-x="492" 
d="M353 871q14 0 26 -1.5t23 -5.5v-84q-5 3 -12 4.5t-16 1.5q-18 0 -34 -18t-34 -52q62 -17 96 -61.5t34 -106.5q0 -70 -32 -114t-96 -58v-4q73 -8 110.5 -51.5t37.5 -117.5q0 -50 -17 -89t-46 -66t-66 -41.5t-77 -14.5q-29 0 -48.5 -5t-29.5 -15t-10 -26q0 -24 15.5 -33
t41.5 -9q23 0 41.5 1.5t34 3t27.5 1.5q23 0 39.5 -5t22.5 -14v-119q-7 7 -23.5 11t-41.5 4t-45 -1t-40.5 -2.5t-47.5 -1.5q-57 0 -96 21t-58.5 58.5t-19.5 87.5q0 61 22.5 99.5t62.5 57t95 18.5q54 0 81 21t27 70q0 47 -31.5 69.5t-96.5 22.5h-59v129h54q43 1 68 9t36.5 26
t11.5 50q0 36 -20.5 54t-60.5 18q-35 0 -64.5 -12.5t-54.5 -36.5l-57 112q32 26 64 41t69 22q-10 17 -24.5 39.5t-30.5 47t-32 43.5v13h91q16 -14 33 -33.5t36 -44.5q15 27 33 46.5t40 30t48 10.5z" />
    <glyph glyph-name="uni046F" unicode="&#x46f;" horiz-adv-x="429" 
d="M314 669q13 0 25.5 -1.5t23.5 -5.5v-80q-5 4 -12.5 5t-16.5 1q-16 0 -30 -10.5t-26 -33.5q47 -17 72 -51.5t25 -80.5q0 -44 -22 -76.5t-60 -44.5v-5q33 -6 56.5 -24.5t35.5 -45t12 -60.5q0 -49 -20 -86t-62.5 -57.5t-106.5 -20.5q-24 0 -38.5 -5t-21 -15t-6.5 -25
q0 -23 13.5 -31.5t35.5 -8.5q18 0 33.5 1.5t31 2.5t31.5 1q19 0 32.5 -4.5t23.5 -14.5v-122q-6 8 -22 13.5t-34 5.5q-15 0 -36 -1t-42 -2.5t-37 -1.5q-53 0 -90.5 18.5t-57.5 55t-20 89.5q0 52 20 88.5t57.5 56.5t89.5 20q27 1 44.5 7t26.5 19t9 31q0 19 -9 32t-28.5 20.5
t-52.5 7.5h-48v107h39q43 0 62.5 13t19.5 47q0 22 -14.5 33t-45.5 11q-24 0 -49.5 -8.5t-52.5 -24.5l-48 109q21 11 40 19t36 12q-10 17 -21 34t-22.5 33.5t-23.5 31.5v13h91q15 -14 32.5 -33.5t36.5 -44.5q15 28 32.5 47t39.5 29.5t49 10.5z" />
    <glyph glyph-name="uni0470" unicode="&#x470;" horiz-adv-x="745" 
d="M286 0v168q-53 2 -95 16t-72 42.5t-45.5 73t-15.5 107.5v307h152v-311q0 -38 8 -61t24.5 -33t43.5 -10v415h147v-415q29 0 45.5 10.5t23 33t6.5 58.5v313h153v-296q0 -85 -28.5 -140t-79.5 -81.5t-120 -28.5v-168h-147z" />
    <glyph glyph-name="uni0471" unicode="&#x471;" horiz-adv-x="701" 
d="M271 -240v231q-75 3 -123.5 27.5t-72 76.5t-23.5 136v319h140v-312q0 -40 6 -65t23 -38t50 -16v641h140v-641q34 5 51.5 22t23.5 52t6 91q0 63 -8 129.5t-25 136.5h141q21 -82 29.5 -144t8.5 -125q0 -89 -24.5 -152.5t-74.5 -98t-128 -39.5v-231h-140z" />
    <glyph glyph-name="uni0472" unicode="&#x472;" horiz-adv-x="623" 
d="M582 358q0 -87 -17 -155.5t-51 -116t-84.5 -72t-117.5 -24.5t-117.5 25t-85 72.5t-51.5 116t-17 155.5q0 120 31 201.5t91.5 123t148.5 41.5q90 0 150 -43t90 -125t30 -199zM312 122q34 0 58 20t38 60t18 100h-229q3 -60 17.5 -100t39 -60t58.5 -20zM312 595
q-32 0 -56.5 -19t-39 -56.5t-18.5 -95.5h227q-6 86 -34.5 128.5t-78.5 42.5z" />
    <glyph glyph-name="uni0473" unicode="&#x473;" horiz-adv-x="523" 
d="M489 276q0 -90 -27.5 -154t-78 -98t-123.5 -34q-69 0 -119.5 35t-78.5 99t-28 152q0 135 60.5 209.5t168.5 74.5q70 0 120.5 -35.5t78 -99.5t27.5 -149zM261 112q24 0 41 12.5t27 38t13 62.5h-162q3 -28 11.5 -54.5t25.5 -42.5t44 -16zM261 438q-35 0 -55 -28t-27 -85
h164q-2 28 -10.5 54t-25.5 42.5t-46 16.5z" />
    <glyph glyph-name="uni0474" unicode="&#x474;" horiz-adv-x="568" 
d="M538 589q-12 0 -22 -7.5t-18 -26t-16 -51.5l-127 -504h-177l-178 714h159l81 -374q6 -26 11.5 -58t10.5 -64.5t6 -57.5q2 18 6 43t8 52t7.5 48t5.5 31l45 215q14 61 33.5 98.5t49 55t69.5 17.5q23 0 41.5 -4t33.5 -11v-123q-7 3 -14.5 5t-14.5 2z" />
    <glyph glyph-name="uni0475" unicode="&#x475;" horiz-adv-x="488" 
d="M411 559q26 0 44 -4.5t29 -9.5v-114q-7 3 -14 5t-13 2q-9 0 -16.5 -5.5t-13 -18t-11.5 -33.5l-105 -381h-156l-152 550h150l59 -280q7 -28 11.5 -56.5t6.5 -59.5h4q1 26 5.5 54.5t11.5 61.5l28 124q15 65 32.5 101t41.5 50t58 14z" />
    <glyph glyph-name="uni0476" unicode="&#x476;" horiz-adv-x="568" 
d="M538 589q-12 0 -22 -7.5t-18 -26t-16 -51.5l-127 -504h-177l-178 714h159l81 -374q6 -26 11.5 -58t10.5 -64.5t6 -57.5q2 18 6 43t8 52t7.5 48t5.5 31l45 215q14 61 33.5 98.5t49 55t69.5 17.5q23 0 41.5 -4t33.5 -11v-123q-7 3 -14.5 5t-14.5 2zM335 929q5 -13 15.5 -35
t25 -50t31.5 -62v-13h-69q-20 16 -41.5 36t-40.5 41t-33 40t-20 34v9h132zM164 929q7 -15 17.5 -36.5t24 -49t30.5 -61.5v-13h-74q-16 14 -35.5 34t-39.5 41.5t-34.5 41.5t-21.5 34v9h133z" />
    <glyph glyph-name="uni0477" unicode="&#x477;" horiz-adv-x="488" 
d="M411 559q26 0 44 -4.5t29 -9.5v-114q-7 3 -14 5t-13 2q-9 0 -16.5 -5.5t-13 -18t-11.5 -33.5l-105 -381h-156l-152 550h150l59 -280q7 -28 11.5 -56.5t6.5 -59.5h4q1 26 5.5 54.5t11.5 61.5l28 124q15 65 32.5 101t41.5 50t58 14zM301 766q5 -13 15.5 -35t25 -50
t31.5 -62v-13h-69q-20 16 -41.5 36t-40.5 41t-33 40t-20 34v9h132zM130 766q7 -15 17.5 -36.5t24 -49t30.5 -61.5v-13h-74q-16 14 -35.5 34t-39.5 41.5t-34.5 41.5t-21.5 34v9h133z" />
    <glyph glyph-name="uni0478" unicode="&#x478;" horiz-adv-x="1072" 
d="M565 358q0 -87 -16.5 -155.5t-49 -116t-82 -72t-114.5 -24.5q-64 0 -113.5 25t-82.5 72.5t-49.5 116t-16.5 155.5q0 120 30 201.5t88.5 123t143.5 41.5q88 0 146 -43t87 -125t29 -199zM199 358q0 -78 11.5 -130t35 -78t57.5 -26q35 0 58 25.5t34.5 77t11.5 131.5t-12 132
t-34.5 78t-57.5 26q-34 0 -57.5 -26.5t-35 -79t-11.5 -130.5zM608 550h152l61 -254q4 -17 8 -34.5t6.5 -34t3.5 -30.5h4q2 19 6.5 42.5t12.5 55.5l57 255h150l-165 -595q-20 -70 -46 -113.5t-61 -62.5t-82 -19q-17 0 -33.5 2t-32.5 6v127q10 -3 20 -4.5t20 -1.5q20 0 32 7.5
t22 28t21 60.5l6 22z" />
    <glyph glyph-name="uni0479" unicode="&#x479;" horiz-adv-x="961" 
d="M466 276q0 -55 -11.5 -106.5t-36.5 -92t-66.5 -64t-101.5 -23.5q-56 0 -97 23t-67 63.5t-39 92t-13 107.5q0 82 22.5 146t70.5 101t124 37q66 0 114 -33t74.5 -96.5t26.5 -154.5zM181 274q0 -53 7.5 -89.5t23 -54.5t38.5 -18q26 0 40.5 18t21.5 55t7 91q0 55 -7 91
t-21.5 53.5t-39.5 17.5q-37 0 -53.5 -40t-16.5 -124zM498 550h151l61 -254q5 -17 8.5 -34.5t6.5 -34t3 -30.5h4q2 19 7 42.5t12 55.5l57 255h150l-165 -595q-19 -70 -45 -113.5t-61.5 -62.5t-82.5 -19q-17 0 -33.5 2t-32.5 6v127q10 -3 20 -4.5t20 -1.5q20 0 32 7.5t22 28
t21 60.5l6 22z" />
    <glyph glyph-name="Omegaroundcy" unicode="&#x47a;" horiz-adv-x="631" 
d="M317 -68q-25 0 -45 15t-28 52q-50 11 -87.5 40t-63.5 74.5t-39 107t-13 138.5q0 102 23 176.5t68 120.5t111 61q7 36 27 50.5t47 14.5q24 0 43.5 -14.5t26.5 -50.5q66 -14 111.5 -59.5t68 -121t22.5 -178.5q0 -77 -13 -138.5t-38.5 -107t-63.5 -74.5t-88 -40
q-7 -37 -26 -51.5t-43 -14.5zM250 145q11 30 28.5 42t38.5 12q19 0 37.5 -13t27.5 -44q18 16 29.5 46t17.5 73.5t6 96.5q0 79 -13.5 135.5t-39.5 79.5q-7 -31 -25.5 -44.5t-39.5 -13.5t-41 13t-27 43q-17 -17 -29 -47.5t-18.5 -72.5t-6.5 -93t6.5 -93.5t18.5 -72.5t30 -47z
" />
    <glyph glyph-name="omegaroundcy" unicode="&#x47b;" horiz-adv-x="536" 
d="M502 276q0 -76 -20.5 -134.5t-59 -95.5t-95.5 -49q-7 -31 -22 -45t-35 -14q-21 0 -38 14t-24 45q-55 13 -94 50.5t-59.5 96t-20.5 132.5q0 115 45 187t129 90q6 31 23.5 43.5t38.5 12.5q18 0 35 -13t23 -44q56 -12 94.5 -50t59 -95.5t20.5 -130.5zM362 276
q0 37 -4.5 62.5t-12 44t-19.5 30.5q-7 -25 -22.5 -38t-33.5 -13q-20 0 -36 12t-24 38q-18 -20 -27 -54.5t-9 -83.5q-1 -47 9 -82.5t27 -53.5q6 24 23.5 35.5t36.5 11.5q17 0 32.5 -11.5t23.5 -36.5q19 21 27.5 54.5t8.5 84.5z" />
    </font>
</defs>
</svg>
