<?xml version="1.0" standalone="no"?>
<!DOCTYPE svg PUBLIC "-//W3C//DTD SVG 1.1//EN" "http://www.w3.org/Graphics/SVG/1.1/DTD/svg11.dtd" >
<svg xmlns="http://www.w3.org/2000/svg" xmlns:xlink="http://www.w3.org/1999/xlink" version="1.1">
<metadata>
Created by FontForge 20170924 at Tue May  1 14:25:58 2012
 By Glenn,,,
Copyright 2002, 2003, 2005, 2008, 2009, 2010, 2012 GNU Freefont contributors.
</metadata>
<defs>
<font id="FreeSansBoldOblique" horiz-adv-x="0" >
  <font-face 
    font-family="FreeSans"
    font-weight="600"
    font-style="oblique"
    font-stretch="normal"
    units-per-em="1000"
    panose-1="2 11 7 4 2 2 2 9 2 4"
    ascent="800"
    descent="-200"
    x-height="540"
    cap-height="729"
    bbox="-907 -313 1591 1076"
    underline-thickness="69"
    underline-position="-179"
    slope="-12"
    unicode-range="U+0020-FFFD"
  />
<missing-glyph horiz-adv-x="800" 
d="M526 704q61 0 106 -17.5t67.5 -45.5t32.5 -56.5t10 -58.5q0 -31 -8 -60.5t-16.5 -50t-28 -42.5t-29 -32.5t-34 -27.5t-27.5 -18.5t-24 -14.5q-51 -32 -66 -51t-25 -68h-122q5 53 31.5 94t60 66.5t67 49t56 54t22.5 68.5t-25.5 62.5t-65.5 24.5q-51 0 -86 -36.5
t-48 -102.5h-136q6 29 12.5 51t28.5 65.5t50 72t80 51.5t117 23zM488 106l-31 -146h-150l31 146h150zM-5 -139l200 939h730l-200 -939h-730zM93 -69h564l170 799h-564z" />
    <glyph glyph-name="IJ" unicode="IJ" horiz-adv-x="595" 
d="M368 729l-77 -361h-150l77 361h150zM530 729h150l-115 -539q-25 -118 -100 -167q-71 -46 -179 -46q-88 0 -138 41.5t-50 114.5q0 34 7 65l15 72h150l-16 -77q-4 -17 -4 -34q0 -24 18.5 -39t47.5 -15q80 0 99 85z" />
    <glyph glyph-name="ij" unicode="ij" horiz-adv-x="488" 
d="M535 540l-135 -634q-14 -65 -58.5 -94.5t-129.5 -29.5q-28 0 -45 5l24 111q5 -4 25 -4q23 0 34.5 10t16.5 34l128 602h140zM575 729l-27 -125h-140l27 125h140zM322 540l-115 -540h-140l115 540h140zM362 729l-27 -125h-140l27 125h140z" />
    <glyph glyph-name="Ldot" unicode="L&#xb7;" horiz-adv-x="611" 
d="M613 414l-22 -100h-105l22 100h105zM385 729l-128 -604h349l-27 -125h-499l155 729h150z" />
    <glyph glyph-name="ldot" unicode="l&#xb7;" horiz-adv-x="466" 
d="M508 394l-22 -100h-105l22 100h105zM362 729l-155 -729h-140l155 729h140z" />
    <glyph glyph-name="cyrillic_ukrainian_yi_yi_lig" unicode="&#x457;&#x457;" horiz-adv-x="533" 
d="M312 540l-115 -540h-140l115 540h140zM597 540l-115 -540h-140l115 540h140zM265 741l-26 -120h-110l26 120h110zM688 741l-26 -120h-110l26 120h110zM404 741l-26 -120h-110l26 120h110zM553 741l-26 -120h-110l26 120h110z" />
    <glyph glyph-name="dapostrophe" unicode="d&#x315;" horiz-adv-x="808" 
d="M405 0l12 55q-68 -78 -166 -78q-78 0 -125 57t-47 151q0 64 21.5 128.5t58.5 117t93.5 85.5t119.5 33q99 0 133 -79l55 259h140l-155 -729h-140zM380 437q-62 0 -110 -70t-48 -161q0 -54 23.5 -85.5t63.5 -31.5q64 0 111.5 70t47.5 164q0 52 -23.5 83t-64.5 31zM813 730
h122l-21 -96q-8 -59 -52 -103t-101 -48l10 46q33 6 57 30.5t28 58.5h-67z" />
    <glyph glyph-name="lapostrophe" unicode="l&#x315;" horiz-adv-x="457" 
d="M362 729l-155 -729h-140l155 729h140zM462 730h122l-21 -96q-8 -59 -52 -103t-101 -48l10 46q33 6 57 30.5t28 58.5h-67z" />
    <glyph glyph-name="tapostrophe" unicode="t&#x315;" horiz-adv-x="525" 
d="M414 529l-20 -93h-78l-62 -294q-6 -26 -6 -34q0 -25 38 -25q12 0 33 3l-20 -98q-39 -11 -85 -11q-55 0 -84 22.5t-29 63.5q0 18 5 41l70 332h-69l20 93h69l31 145h140l-31 -145h78zM530 730h122l-21 -96q-8 -59 -52 -103t-101 -48l10 46q33 6 57 30.5t28 58.5h-67z" />
    <glyph glyph-name=".notdef" horiz-adv-x="800" 
d="M526 704q61 0 106 -17.5t67.5 -45.5t32.5 -56.5t10 -58.5q0 -31 -8 -60.5t-16.5 -50t-28 -42.5t-29 -32.5t-34 -27.5t-27.5 -18.5t-24 -14.5q-51 -32 -66 -51t-25 -68h-122q5 53 31.5 94t60 66.5t67 49t56 54t22.5 68.5t-25.5 62.5t-65.5 24.5q-51 0 -86 -36.5
t-48 -102.5h-136q6 29 12.5 51t28.5 65.5t50 72t80 51.5t117 23zM488 106l-31 -146h-150l31 146h150zM-5 -139l200 939h730l-200 -939h-730zM93 -69h564l170 799h-564z" />
    <glyph glyph-name=".null" 
 />
    <glyph glyph-name="nonmarkingreturn" horiz-adv-x="600" 
 />
    <glyph glyph-name="space" unicode=" " horiz-adv-x="278" 
 />
    <glyph glyph-name="exclam" unicode="!" horiz-adv-x="333" 
d="M417 726l-45 -210l-107 -309h-67l24 309l45 210h150zM293 146l-31 -146h-150l31 146h150z" />
    <glyph glyph-name="quotedbl" unicode="&#x22;" horiz-adv-x="474" 
d="M579 729l-28 -130l-70 -129h-55l-13 129l28 130h138zM343 729l-28 -130l-70 -129h-55l-13 129l28 130h138z" />
    <glyph glyph-name="numbersign" unicode="#" horiz-adv-x="556" 
d="M138 -32h-105l83 204h-77l21 100h97l62 152h-99l22 100h118l71 173h106l-72 -173h103l71 173h106l-72 -173h87l-21 -100h-106l-62 -152h99l-21 -100h-119l-84 -204h-105l83 204h-102zM262 272h103l62 152h-102z" />
    <glyph glyph-name="dollar" unicode="$" horiz-adv-x="556" 
d="M461 709q167 -14 167 -162q0 -21 -5 -49h-128q3 28 3 40q0 60 -58 70l-43 -201q37 -11 64.5 -23.5t55 -32.5t42 -49t14.5 -65q0 -24 -5 -50t-22 -61.5t-44.5 -64t-78.5 -52t-117 -30.5l-22 -105h-68l23 105q-87 9 -133.5 52.5t-46.5 116.5q0 26 8 59h130q-1 -19 -1 -33
q0 -75 65 -88l46 213q-165 42 -165 176q0 20 5 44t21.5 56.5t42.5 58.5t73.5 47.5t109.5 27.5l11 54h68zM372 608q-32 -6 -54 -20.5t-31 -32.5t-12 -30.5t-3 -23.5q0 -50 62 -74zM371 282l-42 -196q48 11 74.5 40.5t26.5 71.5q0 60 -59 84z" />
    <glyph glyph-name="percent" unicode="%" horiz-adv-x="889" 
d="M756 709h77l-551 -729h-76zM352 701q67 0 110 -41t43 -103q0 -86 -68.5 -153t-156.5 -67q-65 0 -108 41.5t-43 103.5q0 85 68.5 152t154.5 67zM331 603q-40 0 -71 -31t-31 -71q0 -28 21 -47t52 -19q41 0 72 30.5t31 70.5q0 29 -21.5 48t-52.5 19zM750 344q67 0 110 -41
t43 -103q0 -86 -68.5 -153t-156.5 -67q-65 0 -108 41.5t-43 103.5q0 85 68.5 152t154.5 67zM729 246q-40 0 -71 -31t-31 -71q0 -28 21 -47t52 -19q41 0 72 30.5t31 70.5q0 29 -21.5 48t-52.5 19z" />
    <glyph glyph-name="ampersand" unicode="&#x26;" horiz-adv-x="722" 
d="M624 605q0 -36 -14 -69.5t-29 -53.5t-44.5 -42.5t-38 -28t-33.5 -19.5l82 -137q25 23 38.5 49t21.5 69h113q-8 -55 -41 -114t-77 -99l94 -160h-160l-37 60q-69 -50 -111.5 -66.5t-100.5 -16.5q-93 0 -145.5 47.5t-52.5 131.5q0 77 48.5 135t161.5 110q-53 75 -53 122
q0 80 67.5 140t157.5 60q68 0 110.5 -32.5t42.5 -85.5zM347 319l-52 -29q-69 -39 -69 -103q0 -39 26 -66.5t63 -27.5q25 0 53 12.5t78 46.5zM419 470q80 42 80 104q0 19 -13.5 30t-37.5 11q-29 0 -47 -17.5t-18 -45.5q0 -13 6 -26.5t30 -55.5z" />
    <glyph glyph-name="quotesingle" unicode="'" horiz-adv-x="238" 
d="M343 729l-28 -130l-70 -129h-55l-13 129l28 130h138z" />
    <glyph glyph-name="parenleft" unicode="(" horiz-adv-x="333" 
d="M458 729q-129 -176 -192 -316t-63 -301q0 -69 12.5 -136.5t45.5 -175.5h-100q-77 177 -77 322q0 151 65.5 297t208.5 310h100z" />
    <glyph glyph-name="parenright" unicode=")" horiz-adv-x="333" 
d="M-21 -200q129 176 192 316t63 301q0 69 -12.5 136.5t-45.5 175.5h100q77 -177 77 -322q0 -151 -65.5 -297t-208.5 -310h-100z" />
    <glyph glyph-name="asterisk" unicode="*" horiz-adv-x="389" 
d="M246 544l-101 36l37 69l101 -36l24 116h72l-25 -116l117 36l7 -70l-116 -35l47 -94l-67 -43l-47 94l-87 -94l-49 43z" />
    <glyph glyph-name="plus" unicode="+" horiz-adv-x="584" 
d="M596 292l-25 -120h-183l-39 -182h-119l39 182h-182l25 120h182l39 181h119l-39 -181h183z" />
    <glyph glyph-name="comma" unicode="," horiz-adv-x="278" 
d="M95 146h150l-29 -137q-14 -82 -60 -126.5t-129 -56.5l12 56q92 16 111 118h-86z" />
    <glyph glyph-name="hyphen" unicode="-" horiz-adv-x="333" 
d="M371 342l-29 -135h-272l29 135h272z" />
    <glyph glyph-name="period" unicode="." horiz-adv-x="278" 
d="M245 146l-31 -146h-150l31 146h150z" />
    <glyph glyph-name="slash" unicode="/" horiz-adv-x="278" 
d="M360 714h67l-361 -728h-67z" />
    <glyph glyph-name="zero" unicode="0" horiz-adv-x="556" 
d="M421 724q90 0 141.5 -53t51.5 -145q0 -24 -3 -58t-12 -88t-24 -106.5t-41.5 -107.5t-61 -96t-87 -67t-114.5 -26q-88 0 -139 53.5t-51 145.5q0 23 3 57.5t12 88t24 106t41.5 107.5t60.5 96t85.5 67t113.5 26zM394 612q-52 0 -88 -57q-25 -40 -53.5 -169.5t-28.5 -202.5
q0 -38 20.5 -61t55.5 -23q44 0 72 32t49 106q20 71 35 157.5t15 133.5q0 38 -21 61t-56 23z" />
    <glyph glyph-name="one" unicode="1" horiz-adv-x="556" 
d="M342 489h-170l20 93q184 0 244 127h93l-151 -709h-140z" />
    <glyph glyph-name="two" unicode="2" horiz-adv-x="556" 
d="M628 552q0 -67 -32.5 -124.5t-83.5 -98t-103.5 -73.5t-101.5 -67.5t-69 -63.5h300l-26 -125h-482q21 78 55.5 132.5t77.5 86.5t86 56t94 57t88 72q54 54 54 128q0 38 -23 59t-63 21q-52 0 -84.5 -38.5t-42.5 -111.5h-134q19 126 93 194t190 68q97 0 152 -45.5t55 -126.5z
" />
    <glyph glyph-name="three" unicode="3" horiz-adv-x="556" 
d="M422 230q0 53 -31.5 70t-106.5 17l20 94h12q67 0 108 36t41 95q0 31 -21.5 50.5t-55.5 19.5q-16 0 -29.5 -3t-23.5 -9.5t-18.5 -13.5t-15 -17.5t-10.5 -18t-8 -19.5t-5.5 -17.5t-4 -16t-2.5 -11.5h-129q23 122 89 180t182 58q95 0 147.5 -39.5t52.5 -111.5
q0 -119 -120 -193q72 -44 72 -123q0 -121 -80 -200.5t-213 -79.5q-97 0 -151 45.5t-54 128.5q0 23 6 57h136v-32q1 -37 24.5 -57t66.5 -20q50 0 86 39t36 92z" />
    <glyph glyph-name="four" unicode="4" horiz-adv-x="556" 
d="M580 273l-25 -116h-73l-34 -157h-140l34 157h-285l25 118l352 434h165l-93 -436h74zM366 273l65 304l-249 -304h184z" />
    <glyph glyph-name="five" unicode="5" horiz-adv-x="556" 
d="M572 300q0 -25 -7 -60t-28.5 -82.5t-54 -86.5t-91 -66.5t-132.5 -27.5q-90 0 -145 45t-55 119q0 19 5 44h138q-2 -18 -2 -22q0 -29 24 -46.5t64 -17.5q61 0 101 50.5t40 126.5q0 44 -23.5 67.5t-66.5 23.5q-67 0 -101 -53h-126l146 395h383l-27 -125h-296l-54 -148
q65 43 132 43q82 0 129 -48t47 -131z" />
    <glyph glyph-name="six" unicode="6" horiz-adv-x="556" 
d="M85 171q0 28 3.5 66t14.5 92t27 106.5t44.5 105.5t64.5 93t89 65t115 25q85 0 133.5 -41t48.5 -112q0 -14 -1 -23h-130q-7 34 -25.5 49t-54.5 15q-62 0 -93 -45t-61 -156q74 56 149 56q79 0 123.5 -44.5t44.5 -122.5q0 -27 -7.5 -64t-28.5 -83.5t-52.5 -84.5t-85 -64.5
t-119.5 -26.5q-91 0 -145 53t-54 141zM352 355q-55 0 -96 -49.5t-41 -117.5q0 -39 24 -64t62 -25q55 0 94 50t39 120q0 38 -22.5 62t-59.5 24z" />
    <glyph glyph-name="seven" unicode="7" horiz-adv-x="556" 
d="M679 709l-23 -110q-131 -135 -182 -198q-138 -175 -201 -401h-142q60 182 143.5 312.5t229.5 271.5h-353l27 125h501z" />
    <glyph glyph-name="eight" unicode="8" horiz-adv-x="556" 
d="M620 570q0 -110 -129 -184q46 -28 65 -58t19 -75t-19 -92t-54.5 -89t-94.5 -68.5t-131 -26.5q-100 0 -158 48t-58 130q0 149 161 231q-35 27 -50 52t-15 57q0 94 78.5 161.5t187.5 67.5q88 0 143 -43t55 -111zM398 612q-50 0 -85 -32.5t-35 -79.5q0 -34 23.5 -54.5
t61.5 -20.5q53 0 90 33.5t37 81.5q0 32 -25.5 52t-66.5 20zM342 330q-58 0 -98.5 -43.5t-40.5 -106.5q0 -35 26.5 -58t67.5 -23q59 0 97 41.5t38 106.5q0 38 -24.5 60.5t-65.5 22.5z" />
    <glyph glyph-name="nine" unicode="9" horiz-adv-x="556" 
d="M611 519q0 -31 -6 -76t-19.5 -109t-40.5 -124.5t-65 -114t-98.5 -86t-133.5 -32.5q-80 0 -130 43t-50 112q0 12 4 33h135v-12q0 -24 21.5 -39t56.5 -15q52 0 89 40.5t62 151.5q-42 -36 -73.5 -49.5t-73.5 -13.5q-78 0 -123.5 47t-45.5 128q0 134 85 227.5t208 93.5
q90 0 144 -56t54 -149zM389 612q-55 0 -93.5 -52.5t-38.5 -128.5q0 -40 21.5 -63.5t58.5 -23.5q60 0 102 51t42 124q0 43 -25 68t-67 25z" />
    <glyph glyph-name="colon" unicode=":" horiz-adv-x="333" 
d="M374 520l-31 -146h-150l31 146h150zM294 146l-31 -146h-150l31 146h150z" />
    <glyph glyph-name="semicolon" unicode=";" horiz-adv-x="333" 
d="M144 146h150l-29 -137q-14 -82 -60 -126.5t-129 -56.5l12 56q92 16 111 118h-86zM374 520l-31 -146h-150l31 146h150z" />
    <glyph glyph-name="less" unicode="&#x3c;" horiz-adv-x="584" 
d="M630 474l-27 -129l-340 -113l292 -111l-28 -131l-450 182l26 121z" />
    <glyph glyph-name="equal" unicode="=" horiz-adv-x="584" 
d="M622 412l-25 -120h-485l25 120h485zM571 172l-25 -120h-485l25 120h485z" />
    <glyph glyph-name="greater" unicode="&#x3e;" horiz-adv-x="584" 
d="M38 -10l27 129l340 113l-292 111l28 131l450 -182l-26 -121z" />
    <glyph glyph-name="question" unicode="?" horiz-adv-x="611" 
d="M456 744q61 0 106 -17.5t67.5 -45.5t32.5 -56.5t10 -58.5q0 -31 -8 -60.5t-16.5 -50t-28 -42.5t-29 -32.5t-34 -27.5t-27.5 -18.5t-24 -14.5q-51 -32 -66 -51t-25 -68h-122q5 53 31.5 94t60 66.5t67 49t56 54t22.5 68.5t-25.5 62.5t-65.5 24.5q-51 0 -86 -36.5
t-48 -102.5h-136q6 29 12.5 51t28.5 65.5t50 72t80 51.5t117 23zM418 146l-31 -146h-150l31 146h150z" />
    <glyph glyph-name="at" unicode="@" horiz-adv-x="975" 
d="M624 518q42 0 64 -17t32 -55l29 62h93l-138 -280q-16 -33 -16 -52q0 -34 39 -34q26 0 61 22t68 57.5t56 87.5t23 106q0 101 -83 172t-201 71q-108 0 -217.5 -64t-182 -171t-72.5 -219q0 -115 86.5 -187t208.5 -72q114 0 215 41l12 -78q-111 -46 -246 -46
q-179 0 -280 88.5t-101 229.5q0 113 55.5 220t142 181t193.5 119t209 45q164 0 261 -81t97 -220q0 -82 -32.5 -157t-81.5 -124t-105 -78t-104 -29q-50 0 -78 20.5t-32 52.5q-76 -73 -165 -73q-59 0 -95.5 37.5t-36.5 95.5q0 37 21.5 90t59.5 107.5t102.5 93t138.5 38.5z
M474 140q66 0 130.5 81.5t64.5 157.5q0 65 -64 65q-63 0 -129 -73t-66 -158q0 -33 17 -53t47 -20z" />
    <glyph glyph-name="A" unicode="A" horiz-adv-x="722" 
d="M532 147h-272l-81 -147h-153l407 729h173l97 -729h-153zM518 272l-35 283l-154 -283h189z" />
    <glyph glyph-name="B" unicode="B" horiz-adv-x="722" 
d="M562 729q57 0 98.5 -15t62.5 -39.5t30 -50t9 -53.5q0 -106 -117 -183q38 -30 54.5 -61t16.5 -72q0 -21 -6 -48t-26 -65t-51.5 -68.5t-89.5 -52t-133 -21.5h-328l155 729h325zM489 439q70 0 97 31.5t27 71.5q0 32 -21.5 47t-67.5 15h-164l-35 -165h164zM437 125
q71 0 101 35.5t30 84.5q0 69 -91 69h-178l-40 -189h178z" />
    <glyph glyph-name="C" unicode="C" horiz-adv-x="722" 
d="M107 235q0 139 55 255t153 183.5t218 67.5q116 0 188 -58t72 -151q0 -13 -4 -50h-141q0 131 -132 131q-53 0 -96 -20.5t-70 -54.5t-46.5 -72.5t-29.5 -80t-14 -71t-4 -50.5q0 -159 147 -159q72 0 123 37.5t73 106.5h143q-33 -128 -128 -200t-232 -72q-128 0 -201.5 69
t-73.5 189z" />
    <glyph glyph-name="D" unicode="D" horiz-adv-x="722" 
d="M77 0l155 729h285q136 0 197.5 -59.5t61.5 -190.5q0 -29 -4 -63.5t-15.5 -82t-30 -92t-51 -89t-74.5 -78t-103.5 -54t-135.5 -20.5h-285zM254 125h134q60 0 106 29t70 69t39.5 92t19.5 88t4 66q0 135 -137 135h-135z" />
    <glyph glyph-name="E" unicode="E" horiz-adv-x="667" 
d="M296 314l-40 -189h395l-27 -125h-545l155 729h528l-27 -125h-378l-35 -165h349l-26 -125h-349z" />
    <glyph glyph-name="F" unicode="F" horiz-adv-x="611" 
d="M291 314l-67 -314h-150l155 729h512l-27 -125h-362l-35 -165h320l-27 -125h-319z" />
    <glyph glyph-name="G" unicode="G" horiz-adv-x="778" 
d="M795 392l-84 -394h-90l7 90q-56 -59 -109.5 -85t-123.5 -26q-132 0 -210 77t-78 208q0 80 29 162.5t82.5 154t139.5 117t189 45.5q122 0 197 -58.5t75 -153.5q0 -5 -2 -33h-138q-6 56 -47.5 86.5t-112.5 30.5q-60 0 -108 -25t-76 -62.5t-46.5 -84t-25.5 -85.5t-7 -72
q0 -77 48.5 -128t121.5 -51q48 0 88.5 17.5t66 45.5t40 52.5t21.5 46.5h-166l27 125h292z" />
    <glyph glyph-name="H" unicode="H" horiz-adv-x="722" 
d="M577 331h-289l-70 -331h-150l155 729h150l-58 -273h288l58 273h151l-155 -729h-150z" />
    <glyph glyph-name="I" unicode="I" horiz-adv-x="278" 
d="M368 729l-155 -729h-150l155 729h150z" />
    <glyph glyph-name="J" unicode="J" horiz-adv-x="556" 
d="M491 729h150l-115 -539q-45 -213 -279 -213q-88 0 -138 41.5t-50 114.5q0 34 7 65l15 72h150l-16 -77q-4 -17 -4 -34q0 -24 18.5 -39t47.5 -15q81 0 99 85z" />
    <glyph glyph-name="K" unicode="K" horiz-adv-x="722" 
d="M274 234l-50 -234h-150l155 729h150l-68 -320l354 320h178l-361 -319l235 -410h-179l-173 314z" />
    <glyph glyph-name="L" unicode="L" horiz-adv-x="611" 
d="M385 729l-128 -604h349l-27 -125h-499l155 729h150z" />
    <glyph glyph-name="M" unicode="M" horiz-adv-x="833" 
d="M497 0h-150l-7 619l-132 -619h-142l155 729h217l20 -560l254 560h219l-155 -729h-142l132 619z" />
    <glyph glyph-name="N" unicode="N" horiz-adv-x="722" 
d="M816 729l-155 -729h-148l-192 523l-111 -523h-142l155 729h150l192 -515l109 515h142z" />
    <glyph glyph-name="O" unicode="O" horiz-adv-x="778" 
d="M538 741q137 0 213.5 -75.5t76.5 -210.5q0 -62 -16.5 -126.5t-52.5 -128t-85.5 -113t-122 -80t-156.5 -30.5q-134 0 -211.5 76.5t-77.5 207.5q0 59 16.5 123.5t52.5 128.5t85.5 114.5t122 82t155.5 31.5zM419 105q52 0 95 19.5t70 52t47 69.5t29.5 76t14 67t4.5 48
q0 83 -42.5 129.5t-117.5 46.5q-52 0 -95.5 -19.5t-71 -51.5t-47.5 -68.5t-30.5 -75.5t-15 -67.5t-4.5 -48.5q0 -82 44 -129.5t120 -47.5z" />
    <glyph glyph-name="P" unicode="P" horiz-adv-x="667" 
d="M539 729q59 0 102 -16t65 -42.5t31.5 -53.5t9.5 -57q0 -34 -9.5 -72t-31 -79t-52.5 -74t-79.5 -54t-106.5 -21h-187l-55 -260h-150l155 729h308zM461 385q39 0 67.5 13.5t42.5 36t20.5 45t6.5 45.5q0 35 -25 57t-65 22h-154l-46 -219h153z" />
    <glyph glyph-name="Q" unicode="Q" horiz-adv-x="778" 
d="M686 103l64 -76l-93 -81l-69 81q-90 -50 -191 -50q-133 0 -210.5 77t-77.5 208q0 76 27.5 157.5t78.5 154.5t135.5 120t187.5 47q137 0 215 -77t78 -211q0 -92 -40.5 -190.5t-104.5 -159.5zM539 278l65 -78q35 44 56.5 109.5t21.5 126.5q0 83 -43.5 130t-120.5 47
q-80 0 -141.5 -53.5t-90 -127.5t-28.5 -150q0 -82 43 -129.5t117 -47.5q49 0 89 19l-62 73z" />
    <glyph glyph-name="R" unicode="R" horiz-adv-x="722" 
d="M510 41q0 34 19 106t19 87q0 55 -85 55h-172l-61 -289h-150l155 729h377q49 0 85 -15.5t54 -39.5t26 -48t8 -47q0 -41 -13.5 -77t-30.5 -58.5t-44.5 -43.5t-42 -29t-36.5 -19q78 -26 78 -82q0 -34 -15.5 -113t-15.5 -96q0 -20 18 -34l-6 -27h-159q-8 25 -8 41zM636 534
q0 70 -110 70h-168l-40 -190h181q40 0 68.5 12.5t42.5 32.5t20 38.5t6 36.5z" />
    <glyph glyph-name="S" unicode="S" horiz-adv-x="667" 
d="M151 472q0 115 88 192t234 77q119 0 185.5 -45.5t66.5 -126.5q0 -25 -8 -62h-140q2 18 2 23q0 83 -132 83q-68 0 -107.5 -28t-39.5 -76q0 -28 25 -43.5t96 -29.5l109 -22q77 -15 117 -53t40 -96q0 -36 -9 -72t-33 -76t-61 -70t-99 -50t-140 -20q-77 0 -132.5 18.5
t-83.5 49t-40.5 62.5t-12.5 67q0 17 4 44h146q-2 -18 -2 -23q0 -43 37.5 -66.5t105.5 -23.5q78 0 124.5 30.5t46.5 80.5q0 35 -26 53t-94 32l-98 20q-89 18 -129 53.5t-40 97.5z" />
    <glyph glyph-name="T" unicode="T" horiz-adv-x="611" 
d="M514 604l-129 -604h-150l129 604h-222l27 125h584l-27 -125h-212z" />
    <glyph glyph-name="U" unicode="U" horiz-adv-x="722" 
d="M659 729h150l-105 -494q-29 -133 -122.5 -195.5t-215.5 -62.5q-113 0 -180 51.5t-67 138.5q0 36 11 88l101 474h150l-105 -494q-5 -27 -5 -45q0 -40 32.5 -62.5t90.5 -22.5q68 0 107 31.5t53 98.5z" />
    <glyph glyph-name="V" unicode="V" horiz-adv-x="667" 
d="M400 0h-127l-94 729h151l45 -549l276 549h151z" />
    <glyph glyph-name="W" unicode="W" horiz-adv-x="944" 
d="M730 0h-135l-4 555l-237 -555h-135l-51 729h159l-3 -546l224 546h158l-3 -548l225 548h159z" />
    <glyph glyph-name="X" unicode="X" horiz-adv-x="667" 
d="M499 372l156 -372h-179l-90 249l-189 -249h-175l310 367l-145 362h178l79 -236l183 236h175z" />
    <glyph glyph-name="Y" unicode="Y" horiz-adv-x="667" 
d="M477 270l-58 -270h-150l58 270l-145 459h167l82 -315l207 315h167z" />
    <glyph glyph-name="Z" unicode="Z" horiz-adv-x="611" 
d="M733 729l-27 -125l-474 -479h373l-27 -125h-548l27 125l474 479h-373l27 125h548z" />
    <glyph glyph-name="bracketleft" unicode="[" horiz-adv-x="333" 
d="M463 729l-22 -100h-113l-154 -729h113l-21 -100h-243l197 929h243z" />
    <glyph glyph-name="backslash" unicode="\" horiz-adv-x="278" 
d="M138 709h74l73 -732h-75z" />
    <glyph glyph-name="bracketright" unicode="]" horiz-adv-x="333" 
d="M-25 -200l22 100h113l154 729h-113l21 100h243l-197 -929h-243z" />
    <glyph glyph-name="asciicircum" unicode="^" horiz-adv-x="584" 
d="M580 270h-113l-58 300l-178 -300h-112l255 425h125z" />
    <glyph glyph-name="underscore" unicode="_" horiz-adv-x="556" 
d="M552 -120l-17 -80h-600l17 80h600z" />
    <glyph glyph-name="grave" unicode="`" horiz-adv-x="333" 
d="M175 757h119l45 -150h-63z" />
    <glyph glyph-name="a" unicode="a" horiz-adv-x="556" 
d="M386 549q57 0 97.5 -11.5t59.5 -31t27 -38.5t8 -40q0 -18 -6 -45l-63 -300q-3 -14 -3 -21q0 -21 21 -45l-4 -17h-153q-7 15 -7 27t3 27q-86 -77 -167 -77q-67 0 -108 36t-41 95q0 15 4 34.5t17.5 46.5t34.5 50t59 43.5t87 28.5l58 9q4 1 17 2.5t19 2.5t18.5 3.5t18.5 5
t16 6t15.5 8.5t11 12t8 15.5t2.5 18.5q0 43 -73 43q-48 0 -73.5 -17t-38.5 -58h-131q21 98 84.5 142.5t181.5 44.5zM400 217l8 38q-12 -7 -47 -14l-66 -11q-49 -8 -75.5 -32t-26.5 -59q0 -50 73 -50q51 0 85.5 33t48.5 95z" />
    <glyph glyph-name="b" unicode="b" horiz-adv-x="611" 
d="M214 729h140l-55 -259q66 79 166 79q79 0 127 -56.5t48 -150.5q0 -142 -90.5 -253.5t-206.5 -111.5q-100 0 -132 78l-12 -55h-140zM409 437q-64 0 -112.5 -70.5t-48.5 -164.5q0 -51 24 -82t64 -31q64 0 112.5 69.5t48.5 160.5q0 55 -23.5 86.5t-64.5 31.5z" />
    <glyph glyph-name="c" unicode="c" horiz-adv-x="556" 
d="M398 549q91 0 145 -48t54 -120q0 -11 -4 -43h-134q-1 50 -16 74.5t-66 24.5q-44 0 -77 -27t-49 -68.5t-23.5 -79.5t-7.5 -70q0 -103 89 -103q41 0 68 22.5t50 75.5h134q-31 -100 -101.5 -155t-167.5 -55q-61 0 -105.5 19t-67 50t-32.5 62t-10 64t7 74.5t29 96.5
t55.5 99.5t93.5 75.5t136 31z" />
    <glyph glyph-name="d" unicode="d" horiz-adv-x="611" 
d="M405 0l12 55q-68 -78 -166 -78q-78 0 -125 57t-47 151q0 64 21.5 128.5t58.5 117t93.5 85.5t119.5 33q99 0 133 -79l55 259h140l-155 -729h-140zM380 437q-62 0 -110 -70t-48 -161q0 -54 23.5 -85.5t63.5 -31.5q64 0 111.5 70t47.5 164q0 52 -23.5 83t-64.5 31z" />
    <glyph glyph-name="e" unicode="e" horiz-adv-x="556" 
d="M379 549q95 0 153.5 -55t58.5 -143q0 -57 -18 -125h-363q-3 -28 -3 -45q0 -41 26 -66.5t69 -25.5q36 0 66.5 17t45.5 46h138q-41 -83 -113.5 -129t-163.5 -46q-94 0 -152.5 57.5t-58.5 150.5q0 24 5 55t17 74.5t35.5 83t56.5 74.5t85 56t116 21zM362 437
q-101 0 -134 -118h220q0 28 -2.5 45.5t-10.5 36t-26 27.5t-47 9z" />
    <glyph glyph-name="f" unicode="f" horiz-adv-x="333" 
d="M425 529l-20 -93h-82l-93 -436h-140l93 436h-77l20 93h76l14 65q15 70 56.5 102.5t114.5 32.5q14 0 77 -3l-22 -105q-36 4 -42 4q-36 0 -46 -43l-12 -53h83z" />
    <glyph glyph-name="g" unicode="g" horiz-adv-x="611" 
d="M235 -218q-113 0 -161 36.5t-48 85.5q0 13 3 31h144q-1 -7 -1 -12q0 -22 24.5 -36.5t61.5 -14.5q55 0 95 30.5t51 79.5l16 73q-48 -44 -84 -61t-82 -17q-76 0 -125.5 54t-49.5 136q0 53 13 107.5t39 103.5t61.5 87.5t83.5 61t102 22.5q87 0 127 -92l18 83h133l-119 -558
q-20 -95 -99 -147.5t-203 -52.5zM379 437q-61 0 -109 -72t-48 -164q0 -52 22.5 -82t61.5 -30q67 0 116 67.5t49 158.5q0 56 -25 89t-67 33z" />
    <glyph glyph-name="h" unicode="h" horiz-adv-x="611" 
d="M222 729h140l-58 -271q77 91 180 91q65 0 105 -36.5t40 -95.5q0 -27 -6 -55l-77 -362h-140l67 313q6 31 6 48q0 76 -73 76q-48 0 -84.5 -36t-49.5 -97l-65 -304h-140z" />
    <glyph glyph-name="i" unicode="i" horiz-adv-x="278" 
d="M322 540l-115 -540h-140l115 540h140zM362 729l-27 -125h-140l27 125h140z" />
    <glyph glyph-name="j" unicode="j" horiz-adv-x="278" 
d="M325 540l-135 -634q-14 -65 -58.5 -94.5t-129.5 -29.5q-28 0 -45 5l24 111q5 -4 25 -4q23 0 34.5 10t16.5 34l128 602h140zM365 729l-27 -125h-140l27 125h140z" />
    <glyph glyph-name="k" unicode="k" horiz-adv-x="556" 
d="M354 729l-85 -399l223 210h159l-232 -206l129 -334h-164l-79 239l-68 -62l-38 -177h-140l155 729h140z" />
    <glyph glyph-name="l" unicode="l" horiz-adv-x="278" 
d="M362 729l-155 -729h-140l155 729h140z" />
    <glyph glyph-name="m" unicode="m" horiz-adv-x="889" 
d="M175 540h139l-17 -81q44 49 83 69.5t88 20.5q46 0 79.5 -22t44.5 -60q79 82 177 82q67 0 104.5 -33.5t37.5 -92.5q0 -22 -8 -61l-77 -362h-140l72 340q5 23 5 41q0 56 -58 56q-47 0 -79.5 -29.5t-43.5 -83.5l-69 -324h-140l74 346q3 16 3 33q0 26 -17 42t-46 16
q-44 0 -75.5 -30.5t-42.5 -82.5l-69 -324h-140z" />
    <glyph glyph-name="n" unicode="n" horiz-adv-x="611" 
d="M178 540h140l-18 -82q40 48 83 69.5t99 21.5q67 0 107 -36t40 -96q0 -27 -6 -55l-77 -362h-140l67 313q6 33 6 49q0 75 -74 75q-50 0 -86.5 -35.5t-50.5 -97.5l-65 -304h-140z" />
    <glyph glyph-name="o" unicode="o" horiz-adv-x="611" 
d="M82 177q0 155 91.5 263.5t239.5 108.5q103 0 162 -53.5t59 -146.5q0 -158 -93 -265t-242 -107q-99 0 -158 54.5t-59 145.5zM324 89q47 0 82 27.5t52 68t25 75.5t8 60q0 53 -27 85t-73 32q-68 0 -117 -68.5t-49 -163.5q0 -53 27 -84.5t72 -31.5z" />
    <glyph glyph-name="p" unicode="p" horiz-adv-x="611" 
d="M312 540l-17 -80q69 89 169 89q80 0 126.5 -56t46.5 -151q0 -151 -86 -258.5t-207 -107.5q-102 0 -133 88l-60 -282h-140l161 758h140zM406 437q-64 0 -112 -70.5t-48 -165.5q0 -51 24 -82t64 -31q65 0 112.5 70t47.5 165q0 52 -24 83t-64 31z" />
    <glyph glyph-name="q" unicode="q" horiz-adv-x="611" 
d="M519 540h140l-161 -758h-140l60 282q-67 -88 -170 -88q-80 0 -128 56t-48 148q0 88 35 171.5t105 140.5t157 57q103 0 133 -89zM377 437q-65 0 -113.5 -70.5t-48.5 -164.5q0 -52 24.5 -83t64.5 -31q65 0 113.5 70.5t48.5 165.5q0 52 -24 82.5t-65 30.5z" />
    <glyph glyph-name="r" unicode="r" horiz-adv-x="389" 
d="M178 540h140l-23 -106q35 55 81 85t94 30q9 0 17 -1l-30 -142q-24 4 -43 4q-124 0 -150 -123l-61 -287h-140z" />
    <glyph glyph-name="s" unicode="s" horiz-adv-x="556" 
d="M127 345q0 88 72.5 146t187.5 58q94 0 148 -38.5t54 -106.5q0 -16 -5 -38h-135q3 14 3 19q0 24 -23.5 38t-64.5 14q-40 0 -64 -14.5t-24 -38.5q0 -15 13.5 -24.5t51.5 -20.5l96 -28q122 -37 122 -124q0 -96 -75.5 -153t-202.5 -57q-63 0 -109 15t-68.5 39.5t-33 48
t-10.5 47.5q0 10 4 30h137q4 -68 106 -68q46 0 75 15.5t29 39.5q0 17 -14.5 27t-61.5 25l-79 25q-66 22 -97.5 52t-31.5 72z" />
    <glyph glyph-name="t" unicode="t" horiz-adv-x="333" 
d="M414 529l-20 -93h-78l-62 -294q-6 -26 -6 -34q0 -25 38 -25q12 0 33 3l-20 -98q-39 -11 -85 -11q-55 0 -84 22.5t-29 63.5q0 18 5 41l70 332h-69l20 93h69l31 145h140l-31 -145h78z" />
    <glyph glyph-name="u" unicode="u" horiz-adv-x="611" 
d="M541 0h-140l15 68q-40 -48 -83 -69.5t-99 -21.5q-66 0 -106 36t-40 96q0 27 6 55l80 376h140l-70 -327q-6 -35 -6 -49q0 -75 76 -75q49 0 85 36t49 97l68 318h140z" />
    <glyph glyph-name="v" unicode="v" horiz-adv-x="556" 
d="M350 0h-147l-74 540h148l30 -395l196 395h148z" />
    <glyph glyph-name="w" unicode="w" horiz-adv-x="778" 
d="M617 0h-145l-5 380l-166 -380h-144l-37 540h145l5 -378l159 378h144v-378l163 378h145z" />
    <glyph glyph-name="x" unicode="x" horiz-adv-x="556" 
d="M411 274l123 -274h-168l-59 168l-123 -168h-168l233 274l-111 266h168l51 -163l123 163h168z" />
    <glyph glyph-name="y" unicode="y" horiz-adv-x="556" 
d="M509 540h144l-358 -638q-25 -47 -44 -66q-57 -55 -170 -55q-27 0 -44 4l23 109q11 -2 28 -2q52 0 82.5 25t30.5 68q-13 107 -40.5 299.5l-36.5 255.5h154l36 -393z" />
    <glyph glyph-name="z" unicode="z" horiz-adv-x="500" 
d="M575 540l-24 -113l-332 -314h274l-24 -113h-448l24 113l334 314h-249l24 113h421z" />
    <glyph glyph-name="braceleft" unicode="{" horiz-adv-x="389" 
d="M195 269q23 -4 36.5 -8t28 -19.5t14.5 -41.5q0 -16 -5 -41l-42 -195q-5 -28 -5 -40q0 -25 39 -25h35l-21 -99h-77q-43 0 -70 28t-27 73q0 22 4 39l45 210q5 25 5 34q0 38 -54 38h-13l-4 1l20 92h16q64 0 78 63l45 211q14 67 54 103.5t99 36.5h76l-21 -99h-37
q-28 0 -39 -11t-18 -46l-41 -195q-12 -54 -39 -78.5t-82 -30.5z" />
    <glyph glyph-name="bar" unicode="|" horiz-adv-x="280" 
d="M335 729l-198 -929h-80l198 929h80z" />
    <glyph glyph-name="braceright" unicode="}" horiz-adv-x="389" 
d="M308 260q-23 4 -36.5 8t-28 19.5t-14.5 41.5q0 16 5 41l42 195q5 28 5 40q0 25 -39 25h-35l21 99h77q43 0 70 -28t27 -73q0 -22 -4 -39l-45 -210q-5 -25 -5 -34q0 -38 54 -38h13l4 -1l-20 -92h-16q-64 0 -78 -63l-45 -211q-14 -67 -54 -103.5t-99 -36.5h-76l21 99h37
q28 0 39 11t18 46l41 195q12 54 39 78.5t82 30.5z" />
    <glyph glyph-name="asciitilde" unicode="~" horiz-adv-x="584" 
d="M504 288h77q-17 -71 -57.5 -108.5t-100.5 -37.5q-47 0 -77 26l-48 42q-28 24 -56 24q-29 0 -43 -14t-24 -51h-78q39 145 159 145q47 0 76 -25l49 -42q28 -25 56 -25t42 14t25 52z" />
    <glyph glyph-name="nonbreakingspace" unicode="&#xa0;" horiz-adv-x="278" 
 />
    <glyph glyph-name="exclamdown" unicode="&#xa1;" horiz-adv-x="333" 
d="M26 -186l45 210l107 309h67l-24 -309l-45 -210h-150zM150 394l31 146h150l-31 -146h-150z" />
    <glyph glyph-name="cent" unicode="&#xa2;" horiz-adv-x="556" 
d="M434 547q41 -5 72.5 -21t48.5 -35t27 -42t13 -39t3 -29q0 -11 -4 -43h-134q0 45 -11 66.5t-39 30.5l-73 -346q31 7 52 30t39 68h134q-27 -92 -94 -148.5t-155 -60.5l-21 -102h-66l22 104q-44 7 -77 26t-50 40t-27 48t-12.5 44t-2.5 34q0 22 4.5 52.5t15.5 73.5t32.5 83
t52 76.5t78 61t106.5 29.5l19 86h66zM344 435q-37 -10 -63 -43t-37.5 -74.5t-16.5 -73t-5 -53.5q0 -41 11.5 -63.5t38.5 -34.5z" />
    <glyph glyph-name="sterling" unicode="&#xa3;" horiz-adv-x="556" 
d="M288 496q0 -17 12 -60t16 -65h139l-12 -55h-122q2 -13 2 -26q0 -53 -34.5 -99.5t-116.5 -104.5q48 22 66.5 27.5t41.5 5.5q21 0 63.5 -8.5t67.5 -8.5q49 0 114 29l18 -109q-87 -45 -155 -45q-36 0 -96 15t-95 15q-50 0 -115 -28l-33 101q78 46 111 87.5t33 93.5
q0 20 -5 55h-89l12 55h60q-26 76 -26 107q0 20 7 46.5t27.5 61t50 62.5t81 47.5t114.5 19.5q204 0 204 -176q0 -22 -4 -55h-131q1 10 1 26q0 93 -93 93q-46 0 -80 -32t-34 -75z" />
    <glyph glyph-name="currency" unicode="&#xa4;" horiz-adv-x="556" 
d="M501 528l89 73l54 -69l-91 -75q10 -33 10 -60q0 -79 -56 -151l60 -76l-83 -68l-59 75q-60 -30 -108 -30q-67 0 -103 31l-94 -78l-54 69l94 77q-11 33 -11 64q0 79 55 147l-62 79l83 68l61 -77q55 31 118 31q55 0 97 -30zM377 460q-54 0 -91 -37.5t-37 -92.5
q0 -38 24 -61.5t62 -23.5q53 0 90.5 38t37.5 92q0 37 -24 61t-62 24z" />
    <glyph glyph-name="yen" unicode="&#xa5;" horiz-adv-x="556" 
d="M574 352l-13 -60h-144l-11 -52h144l-13 -60h-144l-38 -180h-140l38 180h-146l13 60h146l11 52h-146l12 60h140l-128 352h139l85 -254l187 254h136l-267 -352h139z" />
    <glyph glyph-name="brokenbar" unicode="&#xa6;" horiz-adv-x="280" 
d="M335 729l-83 -389h-80l83 389h80zM220 189l-83 -389h-80l83 389h80z" />
    <glyph glyph-name="section" unicode="&#xa7;" horiz-adv-x="556" 
d="M496 27q0 -17 -6 -41.5t-24.5 -58.5t-46 -61.5t-76.5 -47t-111 -19.5q-81 0 -128.5 38.5t-47.5 103.5q0 26 9 59h131q-3 -26 -3 -34q0 -55 65 -55q38 0 64 21.5t26 52.5q0 20 -8.5 29t-46.5 35l-150 100q-54 37 -54 98q0 57 27.5 96.5t99.5 84.5q-38 39 -38 96
q0 76 65 135q69 64 182 64q80 0 125.5 -34t45.5 -95q0 -15 -7 -50h-127q1 7 1 18q0 59 -62 59q-32 0 -53.5 -18t-21.5 -44q0 -30 71 -74l112 -70q69 -43 69 -113q0 -73 -34 -113t-96 -63q48 -39 48 -99zM258 247l125 -77q65 30 65 77q0 18 -10 30.5t-36 28.5l-127 76
q-56 -29 -56 -81q0 -31 39 -54z" />
    <glyph glyph-name="dieresis" unicode="&#xa8;" horiz-adv-x="333" 
d="M474 741l-26 -120h-110l26 120h110zM278 741l-26 -120h-110l26 120h110z" />
    <glyph glyph-name="copyright" unicode="&#xa9;" horiz-adv-x="737" 
d="M232 287q0 129 75.5 217t185.5 88q70 0 112 -35t42 -93q0 -8 -3 -33h-90q0 41 -18 59.5t-58 18.5q-45 0 -78 -25t-48 -62t-21 -66t-6 -51q0 -46 22.5 -70t63.5 -24q87 0 115 86h92q-21 -79 -82 -124t-146 -45q-73 0 -115.5 42.5t-42.5 116.5zM530 743q133 0 220 -86
t87 -217q0 -88 -40 -173t-105.5 -148t-153 -102t-178.5 -39q-132 0 -219 86t-87 217q0 88 40 173t105.5 148t153 102t177.5 39zM514 671q-147 0 -263.5 -115.5t-116.5 -260.5q0 -106 69 -175.5t174 -69.5q147 0 263.5 115.5t116.5 261.5q0 106 -69 175t-174 69z" />
    <glyph glyph-name="ordfeminine" unicode="&#xaa;" horiz-adv-x="370" 
d="M396 342l-16 -80h-284l17 80h283zM420 409l-2 -10h-92q-4 8 -4 16q0 6 2 16q-52 -46 -107 -46q-38 0 -60.5 21t-22.5 57q0 47 33.5 81t88.5 42l34 6q55 8 66 19q10 9 10 25q0 25 -44 25q-29 0 -44.5 -10t-22.5 -34h-79q25 112 161 112q53 0 83.5 -19t30.5 -53
q0 -11 -3 -28l-39 -180q-1 -5 -1 -13q0 -12 12 -27zM344 529l5 23q-10 -4 -16 -6l-12 -2l-10 -1l-30 -6q-28 -4 -44 -18.5t-16 -35.5q0 -30 42 -30q31 0 52.5 20t28.5 56z" />
    <glyph glyph-name="guillemotleft" unicode="&#xab;" horiz-adv-x="556" 
d="M135 218l24 114l199 149l-25 -117l-120 -89l82 -89l-24 -114zM348 218l24 114l199 149l-25 -117l-120 -89l82 -89l-24 -114z" />
    <glyph glyph-name="logicalnot" unicode="&#xac;" horiz-adv-x="584" 
d="M128 376h504l-61 -290h-119l36 170h-385z" />
    <glyph glyph-name="softhyphen" unicode="&#xad;" horiz-adv-x="333" 
d="M371 342l-29 -135h-272l29 135h272z" />
    <glyph glyph-name="registered" unicode="&#xae;" horiz-adv-x="737" 
d="M480 168q0 21 10 62.5t10 47.5q0 35 -53 35h-91l-37 -173h-96l94 442h238q99 0 99 -89q0 -96 -97 -140q39 -18 39 -49q0 -20 -15 -109l-1 -13q0 -13 12 -21l-5 -21h-102q-5 16 -5 28zM475 394q37 0 57.5 16t20.5 59q0 18 -12.5 25.5t-42.5 7.5h-102l-23 -108h102z
M530 743q133 0 220 -86t87 -217q0 -117 -67 -224.5t-177.5 -172.5t-231.5 -65q-132 0 -219 86t-87 217q0 117 67 224.5t177.5 172.5t230.5 65zM514 671q-96 0 -184 -53t-141.5 -140.5t-53.5 -182.5q0 -106 68.5 -175.5t173.5 -69.5q96 0 184.5 53t142 140.5t53.5 183.5
q0 106 -69 175t-174 69z" />
    <glyph glyph-name="macron" unicode="&#xaf;" horiz-adv-x="333" 
d="M464 702l-17 -80h-300l17 80h300z" />
    <glyph glyph-name="degree" unicode="&#xb0;" horiz-adv-x="606" 
d="M391 686q63 0 107.5 -44.5t44.5 -106.5q0 -64 -44.5 -108t-108.5 -44q-61 0 -105.5 45t-44.5 107t44.5 106.5t106.5 44.5zM392 623q-37 0 -63 -26t-26 -63q0 -35 26 -61.5t61 -26.5q38 0 64 26t26 63q0 36 -26 62t-62 26z" />
    <glyph glyph-name="plusminus" unicode="&#xb1;" horiz-adv-x="584" 
d="M630 452l-25 -120h-183l-35 -162h-119l35 162h-182l25 120h182l39 181h119l-39 -181h183zM559 119l-25 -119h-484l25 119h484z" />
    <glyph glyph-name="twosuperior" unicode="&#xb2;" horiz-adv-x="350" 
d="M457 719q0 -49 -30.5 -90t-68.5 -64t-80 -49.5t-57 -45.5h184l-17 -80h-306q15 56 49.5 97.5t73 64t75 43t60.5 47.5t24 64q0 46 -52 46q-66 0 -75 -89h-91q12 78 58 119.5t120 41.5q63 0 98 -27.5t35 -77.5z" />
    <glyph glyph-name="threesuperior" unicode="&#xb3;" horiz-adv-x="350" 
d="M250 571l13 63q4 -1 10 -1q40 0 63.5 19.5t23.5 53.5q0 18 -12.5 29t-32.5 11q-29 0 -44 -16.5t-24 -58.5h-87q15 76 56.5 111.5t115.5 35.5q61 0 94.5 -24.5t33.5 -68.5q0 -69 -71 -113q43 -27 43 -73q0 -74 -51 -121t-133 -47q-62 0 -96.5 28t-34.5 79q0 15 4 36h91
q-2 -8 -2 -18q0 -47 56 -47q30 0 51.5 21.5t21.5 51.5q0 25 -17.5 36.5t-58.5 12.5h-13z" />
    <glyph glyph-name="acute" unicode="&#xb4;" horiz-adv-x="333" 
d="M475 757l-158 -150h-70l102 150h126z" />
    <glyph glyph-name="micro" unicode="&#xb5;" horiz-adv-x="667" 
d="M523 118l19 -9l16 -76q-64 -35 -94 -35q-66 0 -77 45q-61 -55 -141 -55q-11 0 -20.5 1t-16.5 2t-15 4l-12 4.5t-10.5 5t-8.5 4.5t-8 5l-6 5l-55 -213h-138l191 737h138l-83 -322q-4 -15 -4 -32q0 -30 19 -56t63 -26q45 0 80.5 30t49.5 84l83 322h136l-97 -376
q-9 -34 -9 -49z" />
    <glyph glyph-name="paragraph" unicode="&#xb6;" horiz-adv-x="556" 
d="M121 435q0 46 18 96t50 95t83 74t110 29h302l-15 -73h-44l-180 -847h-98l180 847h-62l-180 -847h-98l97 458q-75 4 -119 49t-44 119z" />
    <glyph glyph-name="middot" unicode="&#xb7;" horiz-adv-x="278" 
d="M270 282l-22 -100h-105l22 100h105z" />
    <glyph glyph-name="cedilla" unicode="&#xb8;" horiz-adv-x="333" 
d="M154 0h50l-41 -62q24 6 43 6q30 0 47 -15t17 -42q0 -49 -41 -78t-109 -29q-59 0 -133 29l30 51q61 -30 98 -30q28 0 48 13t20 31q0 15 -12 24t-32 9q-22 0 -53 -13z" />
    <glyph glyph-name="onesuperior" unicode="&#xb9;" horiz-adv-x="248" 
d="M271 679h-106l13 61q116 0 152 75h63l-90 -425h-94z" />
    <glyph glyph-name="ordmasculine" unicode="&#xba;" horiz-adv-x="365" 
d="M410 342l-17 -80h-301l17 80h301zM140 506q0 91 55 157t144 66q62 0 97 -32t35 -87q0 -95 -56 -159.5t-146 -64.5q-59 0 -94 32.5t-35 87.5zM326 661q-41 0 -70 -41.5t-29 -99.5q0 -32 16 -51.5t42 -19.5q40 0 69.5 42t29.5 99q0 32 -16 51.5t-42 19.5z" />
    <glyph glyph-name="guillemotright" unicode="&#xbb;" horiz-adv-x="556" 
d="M326 335l-24 -115l-199 -148l25 117l120 89l-82 89l24 114zM533 335l-24 -115l-199 -148l25 117l120 89l-82 89l24 114z" />
    <glyph glyph-name="onequarter" unicode="&#xbc;" horiz-adv-x="869" 
d="M262 607h-106l13 61q116 0 152 75h63l-90 -425h-94zM733 715h85l-581 -735h-85zM881 166l-16 -73h-46l-19 -93h-94l20 93h-177l16 72l217 260h108l-55 -259h46zM742 166l35 166l-140 -166h105z" />
    <glyph glyph-name="onehalf" unicode="&#xbd;" horiz-adv-x="869" 
d="M268 607h-106l13 61q116 0 152 75h63l-90 -425h-94zM738 715h85l-581 -735h-85zM915 329q0 -49 -30.5 -90t-68.5 -64t-80 -49.5t-57 -45.5h184l-17 -80h-306q15 56 49.5 97.5t73 64t75 43t60.5 47.5t24 64q0 46 -52 46q-66 0 -75 -89h-91q12 78 58 119.5t120 41.5
q63 0 98 -27.5t35 -77.5z" />
    <glyph glyph-name="threequarters" unicode="&#xbe;" horiz-adv-x="869" 
d="M257 495l13 63q4 -1 10 -1q40 0 63.5 19.5t23.5 53.5q0 18 -12.5 29t-32.5 11q-29 0 -44 -16.5t-24 -58.5h-87q15 76 56.5 111.5t115.5 35.5q61 0 94.5 -24.5t33.5 -68.5q0 -69 -71 -113q43 -27 43 -73q0 -74 -51 -121t-133 -47q-62 0 -96.5 28t-34.5 79q0 15 4 36h91
q-2 -8 -2 -18q0 -47 56 -47q30 0 51.5 21.5t21.5 51.5q0 25 -17.5 36.5t-58.5 12.5h-13zM775 715h85l-581 -735h-85zM878 166l-16 -73h-46l-19 -93h-94l20 93h-177l16 72l217 260h108l-55 -259h46zM739 166l35 166l-140 -166h105z" />
    <glyph glyph-name="questiondown" unicode="&#xbf;" horiz-adv-x="611" 
d="M268 -204q-61 0 -106 17.5t-67.5 45.5t-32.5 56.5t-10 58.5q0 31 8 60.5t16.5 50t28 42.5t29 32.5t34 27.5t27.5 18.5t24 14.5q51 32 66 51t25 68h122q-5 -53 -31.5 -94t-60 -66.5t-67 -49t-56 -54t-22.5 -68.5t25.5 -62.5t65.5 -24.5q51 0 86 36.5t48 102.5h136
q-6 -29 -12.5 -51t-28.5 -65.5t-50 -72t-80 -51.5t-117 -23zM306 394l31 146h150l-31 -146h-150z" />
    <glyph glyph-name="Agrave" unicode="&#xc0;" horiz-adv-x="722" 
d="M430 924h119l45 -150h-63zM532 147h-272l-81 -147h-153l407 729h173l97 -729h-153zM518 272l-35 283l-154 -283h189z" />
    <glyph glyph-name="Aacute" unicode="&#xc1;" horiz-adv-x="722" 
d="M691 930l-158 -150h-70l102 150h126zM532 147h-272l-81 -147h-153l407 729h173l97 -729h-153zM518 272l-35 283l-154 -283h189z" />
    <glyph glyph-name="Acircumflex" unicode="&#xc2;" horiz-adv-x="722" 
d="M511 936h108l71 -147h-78l-61 97l-103 -97h-76zM532 147h-272l-81 -147h-153l407 729h173l97 -729h-153zM518 272l-35 283l-154 -283h189z" />
    <glyph glyph-name="Atilde" unicode="&#xc3;" horiz-adv-x="722" 
d="M740 923q-18 -63 -53.5 -92.5t-79.5 -29.5q-27 0 -51 11l-50 25q-30 14 -44 14q-26 0 -51 -48h-54q17 56 48.5 86.5t72.5 30.5q32 0 71 -17l50 -21q21 -10 33 -10q33 0 54 51h54zM532 147h-272l-81 -147h-153l407 729h173l97 -729h-153zM518 272l-35 283l-154 -283h189z
" />
    <glyph glyph-name="Adieresis" unicode="&#xc4;" horiz-adv-x="722" 
d="M532 147h-272l-81 -147h-153l407 729h173l97 -729h-153zM518 272l-35 283l-154 -283h189zM714 921l-26 -120h-110l26 120h110zM518 921l-26 -120h-110l26 120h110z" />
    <glyph glyph-name="Aring" unicode="&#xc5;" horiz-adv-x="722" 
d="M532 147h-272l-81 -147h-153l407 729h173l97 -729h-153zM518 272l-35 283l-154 -283h189zM564 953q31 0 51.5 -20t20.5 -51q0 -43 -34 -76t-78 -33q-31 0 -51.5 20t-20.5 51q0 43 34 76t78 33zM554 903q-20 0 -36.5 -14.5t-16.5 -33.5q0 -14 9.5 -23t24.5 -9q20 0 36 15
t16 34q0 13 -9.5 22t-23.5 9z" />
    <glyph glyph-name="AE" unicode="&#xc6;" horiz-adv-x="1000" 
d="M464 152h-219l-85 -152h-159l420 729h683l-26 -125h-367l-36 -165h339l-26 -125h-339l-40 -189h386l-27 -125h-536zM491 277l70 327h-66l-185 -327h181z" />
    <glyph glyph-name="Ccedilla" unicode="&#xc7;" horiz-adv-x="722" 
d="M516 613q-52 0 -95 -20.5t-70 -54.5t-47 -72.5t-29.5 -79.5t-14 -70.5t-4.5 -50.5q0 -160 147 -160q72 0 123 37.5t73 106.5h143q-31 -125 -126 -198t-227 -74l-26 -40q20 7 43 7q30 0 47 -15t17 -42q0 -49 -41.5 -78t-109.5 -29q-58 0 -133 29l30 51q63 -30 99 -30
q28 0 48 13t20 31q0 15 -12 24t-32 9q-21 0 -54 -13l55 84q-106 8 -169.5 78t-63.5 179q0 139 55 255t153 183.5t218 67.5q116 0 188 -58t72 -152q0 -14 -4 -49h-141q0 131 -132 131z" />
    <glyph glyph-name="Egrave" unicode="&#xc8;" horiz-adv-x="667" 
d="M430 923h119l45 -150h-63zM296 314l-40 -189h395l-27 -125h-545l155 729h528l-27 -125h-378l-35 -165h349l-26 -125h-349z" />
    <glyph glyph-name="Eacute" unicode="&#xc9;" horiz-adv-x="667" 
d="M671 930l-158 -150h-70l102 150h126zM296 314l-40 -189h395l-27 -125h-545l155 729h528l-27 -125h-378l-35 -165h349l-26 -125h-349z" />
    <glyph glyph-name="Ecircumflex" unicode="&#xca;" horiz-adv-x="667" 
d="M494 936h108l71 -147h-78l-61 97l-103 -97h-76zM296 314l-40 -189h395l-27 -125h-545l155 729h528l-27 -125h-378l-35 -165h349l-26 -125h-349z" />
    <glyph glyph-name="Edieresis" unicode="&#xcb;" horiz-adv-x="667" 
d="M692 921l-26 -120h-110l26 120h110zM496 921l-26 -120h-110l26 120h110zM296 314l-40 -189h395l-27 -125h-545l155 729h528l-27 -125h-378l-35 -165h349l-26 -125h-349z" />
    <glyph glyph-name="Igrave" unicode="&#xcc;" horiz-adv-x="278" 
d="M204 926h119l45 -150h-63zM368 729l-155 -729h-150l155 729h150z" />
    <glyph glyph-name="Iacute" unicode="&#xcd;" horiz-adv-x="278" 
d="M461 930l-158 -150h-70l102 150h126zM368 729l-155 -729h-150l155 729h150z" />
    <glyph glyph-name="Icircumflex" unicode="&#xce;" horiz-adv-x="278" 
d="M288 936h108l71 -147h-78l-61 97l-103 -97h-76zM368 729l-155 -729h-150l155 729h150z" />
    <glyph glyph-name="Idieresis" unicode="&#xcf;" horiz-adv-x="278" 
d="M487 921l-26 -120h-110l26 120h110zM291 921l-26 -120h-110l26 120h110zM368 729l-155 -729h-150l155 729h150z" />
    <glyph glyph-name="Eth" unicode="&#xd0;" horiz-adv-x="722" 
d="M150 341h-77l17 80h76l66 308h285q136 0 197.5 -59.5t61.5 -190.5q0 -184 -112 -339q-55 -76 -124 -108t-178 -32h-285zM300 341l-46 -216h134q65 0 106 23.5t73 79.5q26 44 43 113t17 128q0 135 -137 135h-135l-39 -183h174l-17 -80h-173z" />
    <glyph glyph-name="Ntilde" unicode="&#xd1;" horiz-adv-x="722" 
d="M740 923q-18 -63 -53.5 -92.5t-79.5 -29.5q-27 0 -51 11l-50 25q-30 14 -44 14q-26 0 -51 -48h-54q17 56 48.5 86.5t72.5 30.5q32 0 71 -17l50 -21q21 -10 33 -10q33 0 54 51h54zM816 729l-155 -729h-148l-192 523l-111 -523h-142l155 729h150l192 -515l109 515h142z" />
    <glyph glyph-name="Ograve" unicode="&#xd2;" horiz-adv-x="778" 
d="M430 926h119l45 -150h-63zM538 741q137 0 213.5 -75.5t76.5 -210.5q0 -62 -16.5 -126.5t-52.5 -128t-85.5 -113t-122 -80t-156.5 -30.5q-134 0 -211.5 76.5t-77.5 207.5q0 59 16.5 123.5t52.5 128.5t85.5 114.5t122 82t155.5 31.5zM419 105q52 0 95 19.5t70 52t47 69.5
t29.5 76t14 67t4.5 48q0 83 -42.5 129.5t-117.5 46.5q-52 0 -95.5 -19.5t-71 -51.5t-47.5 -68.5t-30.5 -75.5t-15 -67.5t-4.5 -48.5q0 -82 44 -129.5t120 -47.5z" />
    <glyph glyph-name="Oacute" unicode="&#xd3;" horiz-adv-x="778" 
d="M716 930l-158 -150h-70l102 150h126zM538 741q137 0 213.5 -75.5t76.5 -210.5q0 -62 -16.5 -126.5t-52.5 -128t-85.5 -113t-122 -80t-156.5 -30.5q-134 0 -211.5 76.5t-77.5 207.5q0 59 16.5 123.5t52.5 128.5t85.5 114.5t122 82t155.5 31.5zM419 105q52 0 95 19.5t70 52
t47 69.5t29.5 76t14 67t4.5 48q0 83 -42.5 129.5t-117.5 46.5q-52 0 -95.5 -19.5t-71 -51.5t-47.5 -68.5t-30.5 -75.5t-15 -67.5t-4.5 -48.5q0 -82 44 -129.5t120 -47.5z" />
    <glyph glyph-name="Ocircumflex" unicode="&#xd4;" horiz-adv-x="778" 
d="M542 937h108l71 -147h-78l-61 97l-103 -97h-76zM538 741q137 0 213.5 -75.5t76.5 -210.5q0 -62 -16.5 -126.5t-52.5 -128t-85.5 -113t-122 -80t-156.5 -30.5q-134 0 -211.5 76.5t-77.5 207.5q0 59 16.5 123.5t52.5 128.5t85.5 114.5t122 82t155.5 31.5zM419 105
q52 0 95 19.5t70 52t47 69.5t29.5 76t14 67t4.5 48q0 83 -42.5 129.5t-117.5 46.5q-52 0 -95.5 -19.5t-71 -51.5t-47.5 -68.5t-30.5 -75.5t-15 -67.5t-4.5 -48.5q0 -82 44 -129.5t120 -47.5z" />
    <glyph glyph-name="Otilde" unicode="&#xd5;" horiz-adv-x="778" 
d="M538 741q137 0 213.5 -75.5t76.5 -210.5q0 -62 -16.5 -126.5t-52.5 -128t-85.5 -113t-122 -80t-156.5 -30.5q-134 0 -211.5 76.5t-77.5 207.5q0 59 16.5 123.5t52.5 128.5t85.5 114.5t122 82t155.5 31.5zM419 105q52 0 95 19.5t70 52t47 69.5t29.5 76t14 67t4.5 48
q0 83 -42.5 129.5t-117.5 46.5q-52 0 -95.5 -19.5t-71 -51.5t-47.5 -68.5t-30.5 -75.5t-15 -67.5t-4.5 -48.5q0 -82 44 -129.5t120 -47.5zM769 923q-18 -63 -53.5 -92.5t-79.5 -29.5q-27 0 -51 11l-50 25q-30 14 -44 14q-26 0 -51 -48h-54q17 56 48.5 86.5t72.5 30.5
q32 0 71 -17l50 -21q21 -10 33 -10q33 0 54 51h54z" />
    <glyph glyph-name="Odieresis" unicode="&#xd6;" horiz-adv-x="778" 
d="M538 741q137 0 213.5 -75.5t76.5 -210.5q0 -62 -16.5 -126.5t-52.5 -128t-85.5 -113t-122 -80t-156.5 -30.5q-134 0 -211.5 76.5t-77.5 207.5q0 59 16.5 123.5t52.5 128.5t85.5 114.5t122 82t155.5 31.5zM419 105q52 0 95 19.5t70 52t47 69.5t29.5 76t14 67t4.5 48
q0 83 -42.5 129.5t-117.5 46.5q-52 0 -95.5 -19.5t-71 -51.5t-47.5 -68.5t-30.5 -75.5t-15 -67.5t-4.5 -48.5q0 -82 44 -129.5t120 -47.5zM741 921l-26 -120h-110l26 120h110zM545 921l-26 -120h-110l26 120h110z" />
    <glyph glyph-name="multiply" unicode="&#xd7;" horiz-adv-x="584" 
d="M516 444l66 -84l-157 -129l101 -129l-102 -84l-101 129l-155 -128l-66 84l155 128l-101 128l102 85l101 -129z" />
    <glyph glyph-name="Oslash" unicode="&#xd8;" horiz-adv-x="778" 
d="M181 56l-106 -95l-41 46l111 99q-36 69 -36 157q0 85 33.5 174t91.5 158q125 146 313 146q141 0 216 -82l101 90l42 -45l-108 -97q34 -69 34 -155q0 -85 -33.5 -172.5t-91.5 -156.5q-125 -146 -312 -146q-143 0 -214 79zM678 500l-384 -343q44 -52 127 -52q115 0 190 105
q72 98 72 229q0 33 -5 61zM521 613q-62 0 -111 -28.5t-76.5 -68.5t-45.5 -89t-24 -85t-6 -61q0 -35 6 -68l386 344q-45 56 -129 56z" />
    <glyph glyph-name="Ugrave" unicode="&#xd9;" horiz-adv-x="722" 
d="M430 925h119l45 -150h-63zM659 729h150l-105 -494q-29 -133 -122.5 -195.5t-215.5 -62.5q-113 0 -180 51.5t-67 138.5q0 36 11 88l101 474h150l-105 -494q-5 -27 -5 -45q0 -40 32.5 -62.5t90.5 -22.5q68 0 107 31.5t53 98.5z" />
    <glyph glyph-name="Uacute" unicode="&#xda;" horiz-adv-x="722" 
d="M685 930l-158 -150h-70l102 150h126zM659 729h150l-105 -494q-29 -133 -122.5 -195.5t-215.5 -62.5q-113 0 -180 51.5t-67 138.5q0 36 11 88l101 474h150l-105 -494q-5 -27 -5 -45q0 -40 32.5 -62.5t90.5 -22.5q68 0 107 31.5t53 98.5z" />
    <glyph glyph-name="Ucircumflex" unicode="&#xdb;" horiz-adv-x="722" 
d="M516 936h108l71 -147h-78l-61 97l-103 -97h-76zM659 729h150l-105 -494q-29 -133 -122.5 -195.5t-215.5 -62.5q-113 0 -180 51.5t-67 138.5q0 36 11 88l101 474h150l-105 -494q-5 -27 -5 -45q0 -40 32.5 -62.5t90.5 -22.5q68 0 107 31.5t53 98.5z" />
    <glyph glyph-name="Udieresis" unicode="&#xdc;" horiz-adv-x="722" 
d="M659 729h150l-105 -494q-29 -133 -122.5 -195.5t-215.5 -62.5q-113 0 -180 51.5t-67 138.5q0 36 11 88l101 474h150l-105 -494q-5 -27 -5 -45q0 -40 32.5 -62.5t90.5 -22.5q68 0 107 31.5t53 98.5zM714 921l-26 -120h-110l26 120h110zM518 921l-26 -120h-110l26 120h110z
" />
    <glyph glyph-name="Yacute" unicode="&#xdd;" horiz-adv-x="667" 
d="M663 930l-158 -150h-70l102 150h126zM477 270l-58 -270h-150l58 270l-145 459h167l82 -315l207 315h167z" />
    <glyph glyph-name="Thorn" unicode="&#xde;" horiz-adv-x="667" 
d="M514 609q60 0 103 -16.5t64 -43t30.5 -53.5t9.5 -56q0 -58 -24 -117t-64 -102q-77 -81 -190 -81h-187l-30 -140h-150l155 729h150l-26 -120h159zM435 265q74 0 105.5 42.5t31.5 97.5q0 35 -25 57t-65 22h-153l-47 -219h153z" />
    <glyph glyph-name="ssharp" unicode="&#xdf;" horiz-adv-x="611" 
d="M540 411q14 -3 27 -8.5t30.5 -18t28 -36.5t10.5 -57q0 -68 -24 -128t-63.5 -100t-88.5 -63t-98 -23q-26 0 -80 12l25 105q17 -7 41 -7q57 0 100 52t43 119q0 91 -125 91l22 95q53 0 91.5 29t38.5 81q0 30 -21.5 46t-60.5 16q-41 0 -68.5 -21t-36.5 -58l-124 -537h-140
l120 518q10 46 29 81.5t51.5 66t84 47t119.5 16.5q88 0 140 -39t52 -104t-34.5 -110.5t-88.5 -64.5z" />
    <glyph glyph-name="agrave" unicode="&#xe0;" horiz-adv-x="556" 
d="M271 757h119l45 -150h-63zM386 549q57 0 97.5 -11.5t59.5 -31t27 -38.5t8 -40q0 -18 -6 -45l-63 -300q-3 -14 -3 -21q0 -21 21 -45l-4 -17h-153q-7 15 -7 27t3 27q-86 -77 -167 -77q-67 0 -108 36t-41 95q0 15 4 34.5t17.5 46.5t34.5 50t59 43.5t87 28.5l58 9q4 1 17 2.5
t19 2.5t18.5 3.5t18.5 5t16 6t15.5 8.5t11 12t8 15.5t2.5 18.5q0 43 -73 43q-48 0 -73.5 -17t-38.5 -58h-131q21 98 84.5 142.5t181.5 44.5zM400 217l8 38q-12 -7 -47 -14l-66 -11q-49 -8 -75.5 -32t-26.5 -59q0 -50 73 -50q51 0 85.5 33t48.5 95z" />
    <glyph glyph-name="aacute" unicode="&#xe1;" horiz-adv-x="556" 
d="M560 757l-158 -150h-70l102 150h126zM386 549q57 0 97.5 -11.5t59.5 -31t27 -38.5t8 -40q0 -18 -6 -45l-63 -300q-3 -14 -3 -21q0 -21 21 -45l-4 -17h-153q-7 15 -7 27t3 27q-86 -77 -167 -77q-67 0 -108 36t-41 95q0 15 4 34.5t17.5 46.5t34.5 50t59 43.5t87 28.5l58 9
q4 1 17 2.5t19 2.5t18.5 3.5t18.5 5t16 6t15.5 8.5t11 12t8 15.5t2.5 18.5q0 43 -73 43q-48 0 -73.5 -17t-38.5 -58h-131q21 98 84.5 142.5t181.5 44.5zM400 217l8 38q-12 -7 -47 -14l-66 -11q-49 -8 -75.5 -32t-26.5 -59q0 -50 73 -50q51 0 85.5 33t48.5 95z" />
    <glyph glyph-name="acircumflex" unicode="&#xe2;" horiz-adv-x="556" 
d="M386 756h108l71 -147h-78l-61 97l-103 -97h-76zM386 549q57 0 97.5 -11.5t59.5 -31t27 -38.5t8 -40q0 -18 -6 -45l-63 -300q-3 -14 -3 -21q0 -21 21 -45l-4 -17h-153q-7 15 -7 27t3 27q-86 -77 -167 -77q-67 0 -108 36t-41 95q0 15 4 34.5t17.5 46.5t34.5 50t59 43.5
t87 28.5l58 9q4 1 17 2.5t19 2.5t18.5 3.5t18.5 5t16 6t15.5 8.5t11 12t8 15.5t2.5 18.5q0 43 -73 43q-48 0 -73.5 -17t-38.5 -58h-131q21 98 84.5 142.5t181.5 44.5zM400 217l8 38q-12 -7 -47 -14l-66 -11q-49 -8 -75.5 -32t-26.5 -59q0 -50 73 -50q51 0 85.5 33t48.5 95z
" />
    <glyph glyph-name="atilde" unicode="&#xe3;" horiz-adv-x="556" 
d="M604 731q-18 -63 -53.5 -92.5t-79.5 -29.5q-27 0 -51 11l-50 25q-30 14 -44 14q-26 0 -51 -48h-54q17 56 48.5 86.5t72.5 30.5q32 0 71 -17l50 -21q21 -10 33 -10q33 0 54 51h54zM386 549q57 0 97.5 -11.5t59.5 -31t27 -38.5t8 -40q0 -18 -6 -45l-63 -300q-3 -14 -3 -21
q0 -21 21 -45l-4 -17h-153q-7 15 -7 27t3 27q-86 -77 -167 -77q-67 0 -108 36t-41 95q0 15 4 34.5t17.5 46.5t34.5 50t59 43.5t87 28.5l58 9q4 1 17 2.5t19 2.5t18.5 3.5t18.5 5t16 6t15.5 8.5t11 12t8 15.5t2.5 18.5q0 43 -73 43q-48 0 -73.5 -17t-38.5 -58h-131
q21 98 84.5 142.5t181.5 44.5zM400 217l8 38q-12 -7 -47 -14l-66 -11q-49 -8 -75.5 -32t-26.5 -59q0 -50 73 -50q51 0 85.5 33t48.5 95z" />
    <glyph glyph-name="adieresis" unicode="&#xe4;" horiz-adv-x="556" 
d="M588 739l-26 -120h-110l26 120h110zM392 739l-26 -120h-110l26 120h110zM386 549q57 0 97.5 -11.5t59.5 -31t27 -38.5t8 -40q0 -18 -6 -45l-63 -300q-3 -14 -3 -21q0 -21 21 -45l-4 -17h-153q-7 15 -7 27t3 27q-86 -77 -167 -77q-67 0 -108 36t-41 95q0 15 4 34.5
t17.5 46.5t34.5 50t59 43.5t87 28.5l58 9q4 1 17 2.5t19 2.5t18.5 3.5t18.5 5t16 6t15.5 8.5t11 12t8 15.5t2.5 18.5q0 43 -73 43q-48 0 -73.5 -17t-38.5 -58h-131q21 98 84.5 142.5t181.5 44.5zM400 217l8 38q-12 -7 -47 -14l-66 -11q-49 -8 -75.5 -32t-26.5 -59
q0 -50 73 -50q51 0 85.5 33t48.5 95z" />
    <glyph glyph-name="aring" unicode="&#xe5;" horiz-adv-x="556" 
d="M441 774q31 0 51.5 -20t20.5 -51q0 -43 -34 -76t-78 -33q-31 0 -51.5 20t-20.5 51q0 43 34 76t78 33zM431 724q-20 0 -36.5 -14.5t-16.5 -33.5q0 -14 9.5 -23t24.5 -9q20 0 36 15t16 34q0 13 -9.5 22t-23.5 9zM386 549q57 0 97.5 -11.5t59.5 -31t27 -38.5t8 -40
q0 -18 -6 -45l-63 -300q-3 -14 -3 -21q0 -21 21 -45l-4 -17h-153q-7 15 -7 27t3 27q-86 -77 -167 -77q-67 0 -108 36t-41 95q0 15 4 34.5t17.5 46.5t34.5 50t59 43.5t87 28.5l58 9q4 1 17 2.5t19 2.5t18.5 3.5t18.5 5t16 6t15.5 8.5t11 12t8 15.5t2.5 18.5q0 43 -73 43
q-48 0 -73.5 -17t-38.5 -58h-131q21 98 84.5 142.5t181.5 44.5zM400 217l8 38q-12 -7 -47 -14l-66 -11q-49 -8 -75.5 -32t-26.5 -59q0 -50 73 -50q51 0 85.5 33t48.5 95z" />
    <glyph glyph-name="ae" unicode="&#xe6;" horiz-adv-x="892" 
d="M718 549q95 0 152 -56.5t57 -141.5q0 -57 -18 -125h-362q-7 -30 -7 -51q0 -38 26.5 -62t69.5 -24q37 0 68 17t46 46h138q-40 -80 -116 -127.5t-166 -47.5q-137 0 -181 100q-53 -56 -100 -78t-116 -22q-73 0 -114 34t-41 95q0 15 3 33t15.5 46t32.5 51.5t59.5 44.5
t91.5 30l57 9q3 0 17 2t19.5 3t18.5 3.5t19 5t16 6t15.5 8.5t11 12t8 15.5t2.5 18.5q0 43 -73 43q-48 0 -73.5 -17t-38.5 -58h-131q18 86 63 126q69 61 205 61q113 0 161 -49q73 49 165 49zM404 216l8 38q-13 -6 -26 -10q-2 0 -9 -1t-12 -2l-66 -11q-49 -8 -75.5 -32
t-26.5 -59q0 -50 71 -50q52 0 87 32.5t49 94.5zM784 319v27q0 43 -22 67t-63 24q-99 0 -131 -118h216z" />
    <glyph glyph-name="ccedilla" unicode="&#xe7;" horiz-adv-x="556" 
d="M561 187q-24 -76 -72.5 -125.5t-95 -67t-92.5 -17.5h-13l-26 -39q22 6 43 6q30 0 47 -15t17 -42q0 -49 -41.5 -78t-109.5 -29q-59 0 -133 29l30 52q61 -31 99 -31q28 0 48 13t20 31q0 15 -12 24t-32 9q-22 0 -54 -13l57 87q-44 8 -76.5 28t-48.5 41t-25.5 47.5
t-11.5 42.5t-2 33q0 70 28 149t72 132q80 95 221 95q91 0 145 -48t54 -120q0 -11 -4 -43h-134q-1 50 -16 74.5t-66 24.5q-80 0 -120 -85q-37 -74 -37 -160q0 -103 89 -103q41 0 68 22.5t50 75.5h134z" />
    <glyph glyph-name="egrave" unicode="&#xe8;" horiz-adv-x="556" 
d="M271 757h119l45 -150h-63zM379 549q95 0 153.5 -55t58.5 -143q0 -57 -18 -125h-363q-3 -28 -3 -45q0 -41 26 -66.5t69 -25.5q36 0 66.5 17t45.5 46h138q-41 -83 -113.5 -129t-163.5 -46q-94 0 -152.5 57.5t-58.5 150.5q0 24 5 55t17 74.5t35.5 83t56.5 74.5t85 56t116 21
zM362 437q-101 0 -134 -118h220q0 28 -2.5 45.5t-10.5 36t-26 27.5t-47 9z" />
    <glyph glyph-name="eacute" unicode="&#xe9;" horiz-adv-x="556" 
d="M555 757l-158 -150h-70l102 150h126zM379 549q95 0 153.5 -55t58.5 -143q0 -57 -18 -125h-363q-3 -28 -3 -45q0 -41 26 -66.5t69 -25.5q36 0 66.5 17t45.5 46h138q-41 -83 -113.5 -129t-163.5 -46q-94 0 -152.5 57.5t-58.5 150.5q0 24 5 55t17 74.5t35.5 83t56.5 74.5
t85 56t116 21zM362 437q-101 0 -134 -118h220q0 28 -2.5 45.5t-10.5 36t-26 27.5t-47 9z" />
    <glyph glyph-name="ecircumflex" unicode="&#xea;" horiz-adv-x="556" 
d="M376 757h108l71 -147h-78l-61 97l-103 -97h-76zM379 549q95 0 153.5 -55t58.5 -143q0 -57 -18 -125h-363q-3 -28 -3 -45q0 -41 26 -66.5t69 -25.5q36 0 66.5 17t45.5 46h138q-41 -83 -113.5 -129t-163.5 -46q-94 0 -152.5 57.5t-58.5 150.5q0 24 5 55t17 74.5t35.5 83
t56.5 74.5t85 56t116 21zM362 437q-101 0 -134 -118h220q0 28 -2.5 45.5t-10.5 36t-26 27.5t-47 9z" />
    <glyph glyph-name="edieresis" unicode="&#xeb;" horiz-adv-x="556" 
d="M581 739l-26 -120h-110l26 120h110zM385 739l-26 -120h-110l26 120h110zM379 549q95 0 153.5 -55t58.5 -143q0 -57 -18 -125h-363q-3 -28 -3 -45q0 -41 26 -66.5t69 -25.5q36 0 66.5 17t45.5 46h138q-41 -83 -113.5 -129t-163.5 -46q-94 0 -152.5 57.5t-58.5 150.5
q0 24 5 55t17 74.5t35.5 83t56.5 74.5t85 56t116 21zM362 437q-101 0 -134 -118h220q0 28 -2.5 45.5t-10.5 36t-26 27.5t-47 9z" />
    <glyph glyph-name="igrave" unicode="&#xec;" horiz-adv-x="278" 
d="M161 757h119l45 -150h-63zM322 540l-115 -540h-140l115 540h140z" />
    <glyph glyph-name="iacute" unicode="&#xed;" horiz-adv-x="278" 
d="M435 757l-158 -150h-70l102 150h126zM322 540l-115 -540h-140l115 540h140z" />
    <glyph glyph-name="icircumflex" unicode="&#xee;" horiz-adv-x="278" 
d="M247 756h108l71 -147h-78l-61 97l-103 -97h-76zM322 540l-115 -540h-140l115 540h140z" />
    <glyph glyph-name="idieresis" unicode="&#xef;" horiz-adv-x="278" 
d="M449 740l-26 -120h-110l26 120h110zM253 740l-26 -120h-110l26 120h110zM322 540l-115 -540h-140l115 540h140z" />
    <glyph glyph-name="eth" unicode="&#xf0;" horiz-adv-x="611" 
d="M83 178q0 28 6 66t24.5 90t47.5 94t81.5 72t119.5 30q41 0 90 -27q-37 63 -97 106l-97 -45l-41 43l88 41q-29 20 -70 46l70 50q57 -26 95 -51l104 45l43 -43l-93 -41q97 -72 138 -142.5t41 -166.5q0 -157 -91.5 -262.5t-236.5 -105.5q-104 0 -163 53.5t-59 147.5z
M491 326q0 57 -31.5 81t-72.5 24q-38 0 -68 -19t-47 -45.5t-27.5 -60t-14 -58t-3.5 -42.5q0 -66 30.5 -91.5t68.5 -25.5q71 0 118 67.5t47 169.5z" />
    <glyph glyph-name="ntilde" unicode="&#xf1;" horiz-adv-x="611" 
d="M639 731q-18 -63 -53.5 -92.5t-79.5 -29.5q-27 0 -51 11l-50 25q-30 14 -44 14q-26 0 -51 -48h-54q17 56 48.5 86.5t72.5 30.5q32 0 71 -17l50 -21q21 -10 33 -10q33 0 54 51h54zM178 540h140l-18 -82q40 48 83 69.5t99 21.5q67 0 107 -36t40 -96q0 -27 -6 -55l-77 -362
h-140l67 313q6 33 6 49q0 75 -74 75q-50 0 -86.5 -35.5t-50.5 -97.5l-65 -304h-140z" />
    <glyph glyph-name="ograve" unicode="&#xf2;" horiz-adv-x="611" 
d="M310 757h119l45 -150h-63zM82 177q0 155 91.5 263.5t239.5 108.5q103 0 162 -53.5t59 -146.5q0 -158 -93 -265t-242 -107q-99 0 -158 54.5t-59 145.5zM324 89q47 0 82 27.5t52 68t25 75.5t8 60q0 53 -27 85t-73 32q-68 0 -117 -68.5t-49 -163.5q0 -53 27 -84.5t72 -31.5z
" />
    <glyph glyph-name="oacute" unicode="&#xf3;" horiz-adv-x="611" 
d="M595 757l-158 -150h-70l102 150h126zM82 177q0 155 91.5 263.5t239.5 108.5q103 0 162 -53.5t59 -146.5q0 -158 -93 -265t-242 -107q-99 0 -158 54.5t-59 145.5zM324 89q47 0 82 27.5t52 68t25 75.5t8 60q0 53 -27 85t-73 32q-68 0 -117 -68.5t-49 -163.5q0 -53 27 -84.5
t72 -31.5z" />
    <glyph glyph-name="ocircumflex" unicode="&#xf4;" horiz-adv-x="611" 
d="M416 757h108l71 -147h-78l-61 97l-103 -97h-76zM82 177q0 155 91.5 263.5t239.5 108.5q103 0 162 -53.5t59 -146.5q0 -158 -93 -265t-242 -107q-99 0 -158 54.5t-59 145.5zM324 89q47 0 82 27.5t52 68t25 75.5t8 60q0 53 -27 85t-73 32q-68 0 -117 -68.5t-49 -163.5
q0 -53 27 -84.5t72 -31.5z" />
    <glyph glyph-name="otilde" unicode="&#xf5;" horiz-adv-x="611" 
d="M631 731q-18 -63 -53.5 -92.5t-79.5 -29.5q-27 0 -51 11l-50 25q-30 14 -44 14q-26 0 -51 -48h-54q17 56 48.5 86.5t72.5 30.5q32 0 71 -17l50 -21q21 -10 33 -10q33 0 54 51h54zM82 177q0 155 91.5 263.5t239.5 108.5q103 0 162 -53.5t59 -146.5q0 -158 -93 -265
t-242 -107q-99 0 -158 54.5t-59 145.5zM324 89q47 0 82 27.5t52 68t25 75.5t8 60q0 53 -27 85t-73 32q-68 0 -117 -68.5t-49 -163.5q0 -53 27 -84.5t72 -31.5z" />
    <glyph glyph-name="odieresis" unicode="&#xf6;" horiz-adv-x="611" 
d="M611 739l-26 -120h-110l26 120h110zM415 739l-26 -120h-110l26 120h110zM82 177q0 155 91.5 263.5t239.5 108.5q103 0 162 -53.5t59 -146.5q0 -158 -93 -265t-242 -107q-99 0 -158 54.5t-59 145.5zM324 89q47 0 82 27.5t52 68t25 75.5t8 60q0 53 -27 85t-73 32
q-68 0 -117 -68.5t-49 -163.5q0 -53 27 -84.5t72 -31.5z" />
    <glyph glyph-name="divide" unicode="&#xf7;" horiz-adv-x="584" 
d="M606 292l-25 -120h-504l25 120h504zM318 124q22 0 36 -14.5t14 -36.5q0 -28 -23.5 -50.5t-52.5 -22.5q-22 0 -36 14t-14 35q0 29 23.5 52t52.5 23zM390 462q22 0 36 -14.5t14 -36.5q0 -28 -23.5 -50.5t-53.5 -22.5q-21 0 -35 14t-14 35q0 29 23.5 52t52.5 23z" />
    <glyph glyph-name="oslash" unicode="&#xf8;" horiz-adv-x="611" 
d="M636 344q0 -150 -93 -258.5t-239 -108.5q-107 0 -169 59l-89 -74l-34 40l93 78q-21 45 -21 98q0 97 39 180.5t116.5 137t177.5 53.5q113 0 173 -63l85 71l34 -41l-91 -76q18 -44 18 -96zM328 89q38 0 68 19t48 46.5t29.5 61t16 60t4.5 45.5q0 8 -1 15l-247 -207
q27 -40 82 -40zM395 437q-38 0 -68.5 -19t-48.5 -46t-30 -60.5t-16.5 -59t-4.5 -44.5q0 -14 1 -25l250 209q-28 45 -83 45z" />
    <glyph glyph-name="ugrave" unicode="&#xf9;" horiz-adv-x="611" 
d="M341 757h119l45 -150h-63zM541 0h-140l15 68q-40 -48 -83 -69.5t-99 -21.5q-66 0 -106 36t-40 96q0 27 6 55l80 376h140l-70 -327q-6 -35 -6 -49q0 -75 76 -75q49 0 85 36t49 97l68 318h140z" />
    <glyph glyph-name="uacute" unicode="&#xfa;" horiz-adv-x="611" 
d="M585 757l-158 -150h-70l102 150h126zM541 0h-140l15 68q-40 -48 -83 -69.5t-99 -21.5q-66 0 -106 36t-40 96q0 27 6 55l80 376h140l-70 -327q-6 -35 -6 -49q0 -75 76 -75q49 0 85 36t49 97l68 318h140z" />
    <glyph glyph-name="ucircumflex" unicode="&#xfb;" horiz-adv-x="611" 
d="M405 757h108l71 -147h-78l-61 97l-103 -97h-76zM541 0h-140l15 68q-40 -48 -83 -69.5t-99 -21.5q-66 0 -106 36t-40 96q0 27 6 55l80 376h140l-70 -327q-6 -35 -6 -49q0 -75 76 -75q49 0 85 36t49 97l68 318h140z" />
    <glyph glyph-name="udieresis" unicode="&#xfc;" horiz-adv-x="611" 
d="M611 739l-26 -120h-110l26 120h110zM415 739l-26 -120h-110l26 120h110zM541 0h-140l15 68q-40 -48 -83 -69.5t-99 -21.5q-66 0 -106 36t-40 96q0 27 6 55l80 376h140l-70 -327q-6 -35 -6 -49q0 -75 76 -75q49 0 85 36t49 97l68 318h140z" />
    <glyph glyph-name="yacute" unicode="&#xfd;" horiz-adv-x="556" 
d="M565 757l-158 -150h-70l102 150h126zM509 540h144l-358 -638q-25 -47 -44 -66q-57 -55 -170 -55q-27 0 -44 4l23 109q11 -2 28 -2q52 0 82.5 25t30.5 68q-13 107 -40.5 299.5l-36.5 255.5h154l36 -393z" />
    <glyph glyph-name="thorn" unicode="&#xfe;" horiz-adv-x="611" 
d="M352 729l-57 -269q69 89 169 89q79 0 126 -56t47 -150q0 -151 -86 -258.5t-207 -107.5q-102 0 -133 87l-60 -282h-140l201 947h140zM406 437q-64 0 -112 -70.5t-48 -164.5q0 -51 24 -82t64 -31q65 0 112.5 70t47.5 164q0 52 -24 83t-64 31z" />
    <glyph glyph-name="ydieresis" unicode="&#xff;" horiz-adv-x="556" 
d="M588 741l-26 -120h-110l26 120h110zM392 741l-26 -120h-110l26 120h110zM509 540h144l-358 -638q-25 -47 -44 -66q-57 -55 -170 -55q-27 0 -44 4l23 109q11 -2 28 -2q52 0 82.5 25t30.5 68q-13 107 -40.5 299.5l-36.5 255.5h154l36 -393z" />
    <glyph glyph-name="Amacron" unicode="&#x100;" horiz-adv-x="722" 
d="M687 881l-17 -80h-300l17 80h300zM532 147h-272l-81 -147h-153l407 729h173l97 -729h-153zM518 272l-35 283l-154 -283h189z" />
    <glyph glyph-name="amacron" unicode="&#x101;" horiz-adv-x="556" 
d="M564 702l-17 -80h-300l17 80h300zM386 549q57 0 97.5 -11.5t59.5 -31t27 -38.5t8 -40q0 -18 -6 -45l-63 -300q-3 -14 -3 -21q0 -21 21 -45l-4 -17h-153q-7 15 -7 27t3 27q-86 -77 -167 -77q-67 0 -108 36t-41 95q0 15 4 34.5t17.5 46.5t34.5 50t59 43.5t87 28.5l58 9
q4 1 17 2.5t19 2.5t18.5 3.5t18.5 5t16 6t15.5 8.5t11 12t8 15.5t2.5 18.5q0 43 -73 43q-48 0 -73.5 -17t-38.5 -58h-131q21 98 84.5 142.5t181.5 44.5zM400 217l8 38q-12 -7 -47 -14l-66 -11q-49 -8 -75.5 -32t-26.5 -59q0 -50 73 -50q51 0 85.5 33t48.5 95z" />
    <glyph glyph-name="Abreve" unicode="&#x102;" horiz-adv-x="722" 
d="M647 927h42q-11 -62 -56.5 -102.5t-104.5 -40.5q-47 0 -76.5 29t-29.5 75q0 17 6 39h42v-8q0 -27 19.5 -42t54.5 -15q77 0 103 65zM532 147h-272l-81 -147h-153l407 729h173l97 -729h-153zM518 272l-35 283l-154 -283h189z" />
    <glyph glyph-name="abreve" unicode="&#x103;" horiz-adv-x="556" 
d="M544 751h42q-11 -62 -56.5 -102.5t-104.5 -40.5q-47 0 -76.5 29t-29.5 75q0 17 6 39h42v-8q0 -27 19.5 -42t54.5 -15q77 0 103 65zM386 549q57 0 97.5 -11.5t59.5 -31t27 -38.5t8 -40q0 -18 -6 -45l-63 -300q-3 -14 -3 -21q0 -21 21 -45l-4 -17h-153q-7 15 -7 27t3 27
q-86 -77 -167 -77q-67 0 -108 36t-41 95q0 15 4 34.5t17.5 46.5t34.5 50t59 43.5t87 28.5l58 9q4 1 17 2.5t19 2.5t18.5 3.5t18.5 5t16 6t15.5 8.5t11 12t8 15.5t2.5 18.5q0 43 -73 43q-48 0 -73.5 -17t-38.5 -58h-131q21 98 84.5 142.5t181.5 44.5zM400 217l8 38
q-12 -7 -47 -14l-66 -11q-49 -8 -75.5 -32t-26.5 -59q0 -50 73 -50q51 0 85.5 33t48.5 95z" />
    <glyph glyph-name="Aogonek" unicode="&#x104;" horiz-adv-x="722" 
d="M469 -155q0 33 17 61t45.5 47t49.5 29t44 18h-75l-18 147h-272l-81 -147h-153l407 729h173l97 -729q-58 -24 -96 -63.5t-38 -76.5q0 -43 55 -43q39 0 72 11l-11 -52q-40 -9 -80 -9q-65 0 -100.5 20.5t-35.5 57.5zM518 272l-35 283l-154 -283h189z" />
    <glyph glyph-name="aogonek" unicode="&#x105;" horiz-adv-x="556" 
d="M386 549q57 0 97.5 -11.5t59.5 -31t27 -38.5t8 -40q0 -18 -6 -45l-63 -300q-3 -12 -3 -21q0 -21 21 -45l-4 -17q-131 -70 -131 -140q0 -43 51 -43q43 0 76 11l-10 -52q-41 -9 -81 -9q-135 0 -135 79q0 95 156 154h-79q-7 15 -7 27t3 27q-86 -77 -167 -77q-67 0 -108 36
t-41 95q0 15 4 34.5t17.5 46.5t34.5 50t59 43.5t87 28.5l58 9q4 1 17 2.5t19 2.5t18.5 3.5t18.5 5t16 6t15.5 8.5t11 12t8 15.5t2.5 18.5q0 43 -73 43q-48 0 -73.5 -17t-38.5 -58h-131q21 98 84.5 142.5t181.5 44.5zM400 217l8 38q-12 -7 -47 -14l-66 -11q-49 -8 -75.5 -32
t-26.5 -59q0 -50 73 -50q51 0 85.5 33t48.5 95z" />
    <glyph glyph-name="Cacute" unicode="&#x106;" horiz-adv-x="722" 
d="M709 930l-158 -150h-70l102 150h126zM107 235q0 139 55 255t153 183.5t218 67.5q116 0 188 -58t72 -151q0 -13 -4 -50h-141q0 131 -132 131q-53 0 -96 -20.5t-70 -54.5t-46.5 -72.5t-29.5 -80t-14 -71t-4 -50.5q0 -159 147 -159q72 0 123 37.5t73 106.5h143
q-33 -128 -128 -200t-232 -72q-128 0 -201.5 69t-73.5 189z" />
    <glyph glyph-name="cacute" unicode="&#x107;" horiz-adv-x="556" 
d="M575 757l-158 -150h-70l102 150h126zM398 549q91 0 145 -48t54 -120q0 -11 -4 -43h-134q-1 50 -16 74.5t-66 24.5q-44 0 -77 -27t-49 -68.5t-23.5 -79.5t-7.5 -70q0 -103 89 -103q41 0 68 22.5t50 75.5h134q-31 -100 -101.5 -155t-167.5 -55q-61 0 -105.5 19t-67 50
t-32.5 62t-10 64t7 74.5t29 96.5t55.5 99.5t93.5 75.5t136 31z" />
    <glyph glyph-name="Ccircumflex" unicode="&#x108;" horiz-adv-x="722" 
d="M525 941h108l71 -147h-78l-61 97l-103 -97h-76zM107 235q0 139 55 255t153 183.5t218 67.5q116 0 188 -58t72 -151q0 -13 -4 -50h-141q0 131 -132 131q-53 0 -96 -20.5t-70 -54.5t-46.5 -72.5t-29.5 -80t-14 -71t-4 -50.5q0 -159 147 -159q72 0 123 37.5t73 106.5h143
q-33 -128 -128 -200t-232 -72q-128 0 -201.5 69t-73.5 189z" />
    <glyph glyph-name="ccircumflex" unicode="&#x109;" horiz-adv-x="556" 
d="M385 757h108l71 -147h-78l-61 97l-103 -97h-76zM398 549q91 0 145 -48t54 -120q0 -11 -4 -43h-134q-1 50 -16 74.5t-66 24.5q-44 0 -77 -27t-49 -68.5t-23.5 -79.5t-7.5 -70q0 -103 89 -103q41 0 68 22.5t50 75.5h134q-31 -100 -101.5 -155t-167.5 -55q-61 0 -105.5 19
t-67 50t-32.5 62t-10 64t7 74.5t29 96.5t55.5 99.5t93.5 75.5t136 31z" />
    <glyph glyph-name="Cdotaccent" unicode="&#x10a;" horiz-adv-x="722" 
d="M626 899l-26 -120h-110l26 120h110zM107 235q0 139 55 255t153 183.5t218 67.5q116 0 188 -58t72 -151q0 -13 -4 -50h-141q0 131 -132 131q-53 0 -96 -20.5t-70 -54.5t-46.5 -72.5t-29.5 -80t-14 -71t-4 -50.5q0 -159 147 -159q72 0 123 37.5t73 106.5h143
q-33 -128 -128 -200t-232 -72q-128 0 -201.5 69t-73.5 189z" />
    <glyph glyph-name="cdotaccent" unicode="&#x10b;" horiz-adv-x="556" 
d="M494 742l-26 -120h-110l26 120h110zM398 549q91 0 145 -48t54 -120q0 -11 -4 -43h-134q-1 50 -16 74.5t-66 24.5q-44 0 -77 -27t-49 -68.5t-23.5 -79.5t-7.5 -70q0 -103 89 -103q41 0 68 22.5t50 75.5h134q-31 -100 -101.5 -155t-167.5 -55q-61 0 -105.5 19t-67 50
t-32.5 62t-10 64t7 74.5t29 96.5t55.5 99.5t93.5 75.5t136 31z" />
    <glyph glyph-name="Ccaron" unicode="&#x10c;" horiz-adv-x="722" 
d="M107 235q0 139 55 255t153 183.5t218 67.5q116 0 188 -58t72 -151q0 -13 -4 -50h-141q0 131 -132 131q-53 0 -96 -20.5t-70 -54.5t-46.5 -72.5t-29.5 -80t-14 -71t-4 -50.5q0 -159 147 -159q72 0 123 37.5t73 106.5h143q-33 -128 -128 -200t-232 -72q-128 0 -201.5 69
t-73.5 189zM604 784h-108l-71 147h78l61 -97l103 97h76z" />
    <glyph glyph-name="ccaron" unicode="&#x10d;" horiz-adv-x="556" 
d="M458 610h-108l-71 147h78l61 -97l103 97h76zM398 549q91 0 145 -48t54 -120q0 -11 -4 -43h-134q-1 50 -16 74.5t-66 24.5q-44 0 -77 -27t-49 -68.5t-23.5 -79.5t-7.5 -70q0 -103 89 -103q41 0 68 22.5t50 75.5h134q-31 -100 -101.5 -155t-167.5 -55q-61 0 -105.5 19
t-67 50t-32.5 62t-10 64t7 74.5t29 96.5t55.5 99.5t93.5 75.5t136 31z" />
    <glyph glyph-name="Dcaron" unicode="&#x10e;" horiz-adv-x="722" 
d="M77 0l155 729h285q136 0 197.5 -59.5t61.5 -190.5q0 -29 -4 -63.5t-15.5 -82t-30 -92t-51 -89t-74.5 -78t-103.5 -54t-135.5 -20.5h-285zM254 125h134q60 0 106 29t70 69t39.5 92t19.5 88t4 66q0 135 -137 135h-135zM552 784h-108l-71 147h78l61 -97l103 97h76z" />
    <glyph glyph-name="dcaron" unicode="&#x10f;" horiz-adv-x="755" 
d="M781 740h107l-15 -69q-9 -41 -45 -64.5t-81 -23.5l9 42h3q12 0 19 1.5t15.5 12t13.5 31.5h-41zM405 0l12 55q-68 -78 -166 -78q-78 0 -125 57t-47 151q0 64 21.5 128.5t58.5 117t93.5 85.5t119.5 33q99 0 133 -79l55 259h140l-155 -729h-140zM380 437q-62 0 -110 -70
t-48 -161q0 -54 23.5 -85.5t63.5 -31.5q64 0 111.5 70t47.5 164q0 52 -23.5 83t-64.5 31z" />
    <glyph glyph-name="Dcroat" unicode="&#x110;" horiz-adv-x="722" 
d="M150 341h-77l17 80h76l66 308h285q136 0 197.5 -59.5t61.5 -190.5q0 -184 -112 -339q-55 -76 -124 -108t-178 -32h-285zM300 341l-46 -216h134q65 0 106 23.5t73 79.5q26 44 43 113t17 128q0 135 -137 135h-135l-39 -183h174l-17 -80h-173z" />
    <glyph glyph-name="dcroat" unicode="&#x111;" horiz-adv-x="611" 
d="M546 663l14 66h140l-14 -66h60l-14 -67h-60l-127 -596h-140l12 55q-68 -78 -166 -78q-78 0 -125 57t-47 151q0 130 78 243q40 56 97 88.5t118 32.5q99 0 133 -79l27 126h-140l14 67h140zM380 437q-62 0 -110 -70t-48 -161q0 -54 23.5 -85.5t63.5 -31.5q64 0 111.5 70
t47.5 164q0 52 -24 83t-64 31z" />
    <glyph glyph-name="Emacron" unicode="&#x112;" horiz-adv-x="667" 
d="M296 314l-40 -189h395l-27 -125h-545l155 729h528l-27 -125h-378l-35 -165h349l-26 -125h-349zM686 881l-17 -80h-300l17 80h300z" />
    <glyph glyph-name="emacron" unicode="&#x113;" horiz-adv-x="556" 
d="M577 702l-17 -80h-300l17 80h300zM379 549q95 0 153.5 -55t58.5 -143q0 -57 -18 -125h-363q-3 -28 -3 -45q0 -41 26 -66.5t69 -25.5q36 0 66.5 17t45.5 46h138q-41 -83 -113.5 -129t-163.5 -46q-94 0 -152.5 57.5t-58.5 150.5q0 24 5 55t17 74.5t35.5 83t56.5 74.5t85 56
t116 21zM362 437q-101 0 -134 -118h220q0 28 -2.5 45.5t-10.5 36t-26 27.5t-47 9z" />
    <glyph glyph-name="Ebreve" unicode="&#x114;" horiz-adv-x="667" 
d="M647 927h42q-11 -62 -56.5 -102.5t-104.5 -40.5q-47 0 -76.5 29t-29.5 75q0 17 6 39h42v-8q0 -27 19.5 -42t54.5 -15q77 0 103 65zM296 314l-40 -189h395l-27 -125h-545l155 729h528l-27 -125h-378l-35 -165h349l-26 -125h-349z" />
    <glyph glyph-name="ebreve" unicode="&#x115;" horiz-adv-x="556" 
d="M524 751h42q-11 -62 -56.5 -102.5t-104.5 -40.5q-47 0 -76.5 29t-29.5 75q0 17 6 39h42v-8q0 -27 19.5 -42t54.5 -15q77 0 103 65zM379 549q95 0 153.5 -55t58.5 -143q0 -57 -18 -125h-363q-3 -28 -3 -45q0 -41 26 -66.5t69 -25.5q36 0 66.5 17t45.5 46h138
q-41 -83 -113.5 -129t-163.5 -46q-94 0 -152.5 57.5t-58.5 150.5q0 24 5 55t17 74.5t35.5 83t56.5 74.5t85 56t116 21zM362 437q-101 0 -134 -118h220q0 28 -2.5 45.5t-10.5 36t-26 27.5t-47 9z" />
    <glyph glyph-name="Edotaccent" unicode="&#x116;" horiz-adv-x="667" 
d="M597 899l-26 -120h-110l26 120h110zM296 314l-40 -189h395l-27 -125h-545l155 729h528l-27 -125h-378l-35 -165h349l-26 -125h-349z" />
    <glyph glyph-name="edotaccent" unicode="&#x117;" horiz-adv-x="556" 
d="M464 742l-26 -120h-110l26 120h110zM379 549q95 0 153.5 -55t58.5 -143q0 -57 -18 -125h-363q-3 -28 -3 -45q0 -41 26 -66.5t69 -25.5q36 0 66.5 17t45.5 46h138q-41 -83 -113.5 -129t-163.5 -46q-94 0 -152.5 57.5t-58.5 150.5q0 24 5 55t17 74.5t35.5 83t56.5 74.5
t85 56t116 21zM362 437q-101 0 -134 -118h220q0 28 -2.5 45.5t-10.5 36t-26 27.5t-47 9z" />
    <glyph glyph-name="Eogonek" unicode="&#x118;" horiz-adv-x="667" 
d="M395 -156q0 46 39 88t117 68h-472l155 729h528l-27 -125h-378l-35 -165h349l-26 -125h-349l-40 -189h395l-27 -125q-68 -38 -98.5 -72t-30.5 -71q0 -40 54 -40q40 0 73 11l-11 -52q-40 -9 -80 -9q-65 0 -100.5 20t-35.5 57z" />
    <glyph glyph-name="eogonek" unicode="&#x119;" horiz-adv-x="556" 
d="M552 152q-21 -44 -62.5 -87t-77.5 -71t-63.5 -63.5t-27.5 -70.5q0 -43 51 -43q40 0 71 11l-11 -52q-46 -9 -76 -9q-64 0 -99 21.5t-35 59.5t24 67t89 68q-38 -7 -59 -7q-94 0 -153 58t-59 150q0 24 5 55.5t17 74.5t35.5 83t56.5 75t85 56t116 21q95 0 153.5 -55
t58.5 -143q0 -57 -18 -125h-363q-3 -28 -3 -45q0 -41 26 -66.5t69 -25.5q36 0 66.5 17t45.5 46h138zM448 334q0 103 -86 103q-101 0 -134 -118h220v15z" />
    <glyph glyph-name="Ecaron" unicode="&#x11a;" horiz-adv-x="667" 
d="M296 314l-40 -189h395l-27 -125h-545l155 729h528l-27 -125h-378l-35 -165h349l-26 -125h-349zM563 784h-108l-71 147h78l61 -97l103 97h76z" />
    <glyph glyph-name="ecaron" unicode="&#x11b;" horiz-adv-x="556" 
d="M458 610h-108l-71 147h78l61 -97l103 97h76zM379 549q95 0 153.5 -55t58.5 -143q0 -57 -18 -125h-363q-3 -28 -3 -45q0 -41 26 -66.5t69 -25.5q36 0 66.5 17t45.5 46h138q-41 -83 -113.5 -129t-163.5 -46q-94 0 -152.5 57.5t-58.5 150.5q0 24 5 55t17 74.5t35.5 83
t56.5 74.5t85 56t116 21zM362 437q-101 0 -134 -118h220q0 28 -2.5 45.5t-10.5 36t-26 27.5t-47 9z" />
    <glyph glyph-name="Gcircumflex" unicode="&#x11c;" horiz-adv-x="778" 
d="M532 939h108l71 -147h-78l-61 97l-103 -97h-76zM795 392l-84 -394h-90l7 90q-56 -59 -109.5 -85t-123.5 -26q-132 0 -210 77t-78 208q0 80 29 162.5t82.5 154t139.5 117t189 45.5q122 0 197 -58.5t75 -153.5q0 -5 -2 -33h-138q-6 56 -47.5 86.5t-112.5 30.5
q-60 0 -108 -25t-76 -62.5t-46.5 -84t-25.5 -85.5t-7 -72q0 -77 48.5 -128t121.5 -51q48 0 88.5 17.5t66 45.5t40 52.5t21.5 46.5h-166l27 125h292z" />
    <glyph glyph-name="gcircumflex" unicode="&#x11d;" horiz-adv-x="611" 
d="M408 787h108l71 -147h-78l-61 97l-103 -97h-76zM235 -218q-113 0 -161 36.5t-48 85.5q0 13 3 31h144q-1 -7 -1 -12q0 -22 24.5 -36.5t61.5 -14.5q55 0 95 30.5t51 79.5l16 73q-48 -44 -84 -61t-82 -17q-76 0 -125.5 54t-49.5 136q0 53 13 107.5t39 103.5t61.5 87.5
t83.5 61t102 22.5q87 0 127 -92l18 83h133l-119 -558q-20 -95 -99 -147.5t-203 -52.5zM379 437q-61 0 -109 -72t-48 -164q0 -52 22.5 -82t61.5 -30q67 0 116 67.5t49 158.5q0 56 -25 89t-67 33z" />
    <glyph glyph-name="Gbreve" unicode="&#x11e;" horiz-adv-x="778" 
d="M795 392l-84 -394h-90l7 90q-56 -59 -109.5 -85t-123.5 -26q-132 0 -210 77t-78 208q0 80 29 162.5t82.5 154t139.5 117t189 45.5q122 0 197 -58.5t75 -153.5q0 -5 -2 -33h-138q-6 56 -47.5 86.5t-112.5 30.5q-60 0 -108 -25t-76 -62.5t-46.5 -84t-25.5 -85.5t-7 -72
q0 -77 48.5 -128t121.5 -51q48 0 88.5 17.5t66 45.5t40 52.5t21.5 46.5h-166l27 125h292zM687 927h42q-11 -62 -56.5 -102.5t-104.5 -40.5q-47 0 -76.5 29t-29.5 75q0 17 6 39h42v-8q0 -27 19.5 -42t54.5 -15q77 0 103 65z" />
    <glyph glyph-name="gbreve" unicode="&#x11f;" horiz-adv-x="611" 
d="M235 -218q-113 0 -161 36.5t-48 85.5q0 13 3 31h144q-1 -7 -1 -12q0 -22 24.5 -36.5t61.5 -14.5q55 0 95 30.5t51 79.5l16 73q-48 -44 -84 -61t-82 -17q-76 0 -125.5 54t-49.5 136q0 53 13 107.5t39 103.5t61.5 87.5t83.5 61t102 22.5q87 0 127 -92l18 83h133l-119 -558
q-20 -95 -99 -147.5t-203 -52.5zM379 437q-61 0 -109 -72t-48 -164q0 -52 22.5 -82t61.5 -30q67 0 116 67.5t49 158.5q0 56 -25 89t-67 33zM544 751h42q-11 -62 -56.5 -102.5t-104.5 -40.5q-47 0 -76.5 29t-29.5 75q0 17 6 39h42v-8q0 -27 19.5 -42t54.5 -15q77 0 103 65z
" />
    <glyph glyph-name="Gdotaccent" unicode="&#x120;" horiz-adv-x="778" 
d="M629 899l-26 -120h-110l26 120h110zM795 392l-84 -394h-90l7 90q-56 -59 -109.5 -85t-123.5 -26q-132 0 -210 77t-78 208q0 80 29 162.5t82.5 154t139.5 117t189 45.5q122 0 197 -58.5t75 -153.5q0 -5 -2 -33h-138q-6 56 -47.5 86.5t-112.5 30.5q-60 0 -108 -25
t-76 -62.5t-46.5 -84t-25.5 -85.5t-7 -72q0 -77 48.5 -128t121.5 -51q48 0 88.5 17.5t66 45.5t40 52.5t21.5 46.5h-166l27 125h292z" />
    <glyph glyph-name="gdotaccent" unicode="&#x121;" horiz-adv-x="611" 
d="M509 742l-26 -120h-110l26 120h110zM235 -218q-113 0 -161 36.5t-48 85.5q0 13 3 31h144q-1 -7 -1 -12q0 -22 24.5 -36.5t61.5 -14.5q55 0 95 30.5t51 79.5l16 73q-48 -44 -84 -61t-82 -17q-76 0 -125.5 54t-49.5 136q0 53 13 107.5t39 103.5t61.5 87.5t83.5 61t102 22.5
q87 0 127 -92l18 83h133l-119 -558q-20 -95 -99 -147.5t-203 -52.5zM379 437q-61 0 -109 -72t-48 -164q0 -52 22.5 -82t61.5 -30q67 0 116 67.5t49 158.5q0 56 -25 89t-67 33z" />
    <glyph glyph-name="Gcommaaccent" unicode="&#x122;" horiz-adv-x="778" 
d="M321 -73h122l-23 -102q-25 -113 -149 -125l10 46q76 14 85 79h-67zM795 392l-84 -394h-90l7 90q-56 -59 -109.5 -85t-123.5 -26q-132 0 -210 77t-78 208q0 80 29 162.5t82.5 154t139.5 117t189 45.5q122 0 197 -58.5t75 -153.5q0 -5 -2 -33h-138q-6 56 -47.5 86.5
t-112.5 30.5q-60 0 -108 -25t-76 -62.5t-46.5 -84t-25.5 -85.5t-7 -72q0 -77 48.5 -128t121.5 -51q48 0 88.5 17.5t66 45.5t40 52.5t21.5 46.5h-166l27 125h292z" />
    <glyph glyph-name="gcommaaccent" unicode="&#x123;" horiz-adv-x="611" 
d="M235 -218q-113 0 -161 36.5t-48 85.5q0 13 3 31h144q-1 -7 -1 -12q0 -22 24.5 -36.5t61.5 -14.5q55 0 95 30.5t51 79.5l16 73q-48 -44 -84 -61t-82 -17q-76 0 -125.5 54t-49.5 136q0 53 13 107.5t39 103.5t61.5 87.5t83.5 61t102 22.5q87 0 127 -92l18 83h133l-119 -558
q-20 -95 -99 -147.5t-203 -52.5zM379 437q-61 0 -109 -72t-48 -164q0 -52 22.5 -82t61.5 -30q67 0 116 67.5t49 158.5q0 56 -25 89t-67 33zM472 606h-122l23 102q25 113 149 125l-10 -46q-76 -14 -85 -79h67z" />
    <glyph glyph-name="Hcircumflex" unicode="&#x124;" horiz-adv-x="722" 
d="M501 936h108l71 -147h-78l-61 97l-103 -97h-76zM577 331h-289l-70 -331h-150l155 729h150l-58 -273h288l58 273h151l-155 -729h-150z" />
    <glyph glyph-name="hcircumflex" unicode="&#x125;" horiz-adv-x="611" 
d="M436 932h108l71 -147h-78l-61 97l-103 -97h-76zM222 729h140l-58 -271q77 91 180 91q65 0 105 -36.5t40 -95.5q0 -27 -6 -55l-77 -362h-140l67 313q6 31 6 48q0 76 -73 76q-48 0 -84.5 -36t-49.5 -97l-65 -304h-140z" />
    <glyph glyph-name="Hbar" unicode="&#x126;" horiz-adv-x="722" 
d="M707 599h60l-14 -67h-60l-113 -532h-150l70 331h-289l-70 -331h-150l113 532h-60l14 67h60l27 130h150l-27 -130h288l27 130h151zM542 532h-288l-17 -76h288z" />
    <glyph glyph-name="hbar" unicode="&#x127;" horiz-adv-x="611" 
d="M482 549q56 0 99.5 -29.5t43.5 -98.5q0 -28 -7 -59l-76 -362h-140l70 330q5 27 5 37q0 30 -19.5 46.5t-50.5 16.5q-47 0 -83.5 -29.5t-47.5 -76.5l-68 -324h-140l126 596h-59l14 67h59l14 66h140l-14 -66h134l-14 -67h-134l-28 -134q75 87 176 87z" />
    <glyph glyph-name="Itilde" unicode="&#x128;" horiz-adv-x="278" 
d="M514 921q-18 -63 -53.5 -92.5t-79.5 -29.5q-27 0 -51 11l-50 25q-30 14 -44 14q-26 0 -51 -48h-54q17 56 48.5 86.5t72.5 30.5q32 0 71 -17l50 -21q21 -10 33 -10q33 0 54 51h54zM368 729l-155 -729h-150l155 729h150z" />
    <glyph glyph-name="itilde" unicode="&#x129;" horiz-adv-x="300" 
d="M489 762q-18 -63 -53.5 -92.5t-79.5 -29.5q-27 0 -51 11l-50 25q-30 14 -44 14q-26 0 -51 -48h-54q17 56 48.5 86.5t72.5 30.5q32 0 71 -17l50 -21q21 -10 33 -10q33 0 54 51h54zM333 540l-115 -540h-140l115 540h140z" />
    <glyph glyph-name="Imacron" unicode="&#x12a;" horiz-adv-x="278" 
d="M476 881l-17 -80h-300l17 80h300zM368 729l-155 -729h-150l155 729h150z" />
    <glyph glyph-name="imacron" unicode="&#x12b;" horiz-adv-x="300" 
d="M333 540l-115 -540h-140l115 540h140zM450 702l-17 -80h-300l17 80h300z" />
    <glyph glyph-name="Ibreve" unicode="&#x12c;" horiz-adv-x="278" 
d="M431 942h42q-11 -62 -56.5 -102.5t-104.5 -40.5q-47 0 -76.5 29t-29.5 75q0 17 6 39h42v-8q0 -27 19.5 -42t54.5 -15q77 0 103 65zM368 729l-155 -729h-150l155 729h150z" />
    <glyph glyph-name="ibreve" unicode="&#x12d;" horiz-adv-x="300" 
d="M403 783h42q-11 -62 -56.5 -102.5t-104.5 -40.5q-47 0 -76.5 29t-29.5 75q0 17 6 39h42v-8q0 -27 19.5 -42t54.5 -15q77 0 103 65zM333 540l-115 -540h-140l115 540h140z" />
    <glyph glyph-name="Iogonek" unicode="&#x12e;" horiz-adv-x="278" 
d="M368 729l-155 -729q-45 -24 -77 -65t-32 -74q0 -44 46 -44q27 0 60 11l-11 -52q-44 -9 -71 -9q-56 0 -88.5 20.5t-32.5 57.5q0 82 132 155h-76l155 729h150z" />
    <glyph glyph-name="iogonek" unicode="&#x12f;" horiz-adv-x="278" 
d="M311 540l-115 -540q-100 -70 -100 -140q0 -42 47 -42q17 0 50 10l-11 -52q-41 -9 -63 -9q-56 0 -87.5 22t-31.5 61t29.5 73.5t99.5 76.5h-73l115 540h140zM351 729l-26 -125h-140l26 125h140z" />
    <glyph glyph-name="Idotaccent" unicode="&#x130;" horiz-adv-x="278" 
d="M387 899l-26 -120h-110l26 120h110zM368 729l-155 -729h-150l155 729h150z" />
    <glyph glyph-name="dotlessi" unicode="&#x131;" horiz-adv-x="278" 
d="M322 540l-115 -540h-140l115 540h140z" />
    <glyph glyph-name="Jcircumflex" unicode="&#x134;" horiz-adv-x="556" 
d="M407 936h108l71 -147h-78l-61 97l-103 -97h-76zM491 729h150l-115 -539q-45 -213 -279 -213q-88 0 -138 41.5t-50 114.5q0 34 7 65l15 72h150l-16 -77q-4 -17 -4 -34q0 -24 18.5 -39t47.5 -15q81 0 99 85z" />
    <glyph glyph-name="jcircumflex" unicode="&#x135;" horiz-adv-x="300" 
d="M261 756h108l71 -147h-78l-61 97l-103 -97h-76zM336 540l-135 -634q-14 -65 -58.5 -94.5t-129.5 -29.5q-28 0 -45 5l24 111q5 -4 25 -4q23 0 34.5 10t16.5 34l128 602h140z" />
    <glyph glyph-name="Kcommaaccent" unicode="&#x136;" horiz-adv-x="722" 
d="M302 -73h122l-23 -102q-25 -113 -149 -125l10 46q76 14 85 79h-67zM274 234l-50 -234h-150l155 729h150l-68 -320l354 320h178l-361 -319l235 -410h-179l-173 314z" />
    <glyph glyph-name="kcommaaccent" unicode="&#x137;" horiz-adv-x="556" 
d="M212 -73h122l-23 -102q-25 -113 -149 -125l10 46q76 14 85 79h-67zM354 729l-85 -399l223 210h159l-232 -206l129 -334h-164l-79 239l-68 -62l-38 -177h-140l155 729h140z" />
    <glyph glyph-name="kgreenlandic" unicode="&#x138;" horiz-adv-x="529" 
d="M274 351l202 189h148l-266 -244l190 -296h-182l-125 198l-42 -198h-140l115 540h140z" />
    <glyph glyph-name="Lacute" unicode="&#x139;" horiz-adv-x="611" 
d="M562 930l-158 -150h-70l102 150h126zM385 729l-128 -604h349l-27 -125h-499l155 729h150z" />
    <glyph glyph-name="lacute" unicode="&#x13a;" horiz-adv-x="278" 
d="M451 930l-158 -150h-70l102 150h126zM362 729l-155 -729h-140l155 729h140z" />
    <glyph glyph-name="Lcommaaccent" unicode="&#x13b;" horiz-adv-x="611" 
d="M260 -73h122l-23 -102q-25 -113 -149 -125l10 46q76 14 85 79h-67zM385 729l-128 -604h349l-27 -125h-499l155 729h150z" />
    <glyph glyph-name="lcommaaccent" unicode="&#x13c;" horiz-adv-x="278" 
d="M59 -73h122l-23 -102q-25 -113 -149 -125l10 46q76 14 85 79h-67zM362 729l-155 -729h-140l155 729h140z" />
    <glyph glyph-name="Lcaron" unicode="&#x13d;" horiz-adv-x="611" 
d="M551 740h107l-15 -69q-9 -41 -45 -64.5t-81 -23.5l9 42h3q12 0 19 1.5t15.5 12t13.5 31.5h-41zM385 729l-128 -604h349l-27 -125h-499l155 729h150z" />
    <glyph glyph-name="lcaron" unicode="&#x13e;" horiz-adv-x="444" 
d="M461 740h107l-15 -69q-9 -41 -45 -64.5t-81 -23.5l9 42h3q12 0 19 1.5t15.5 12t13.5 31.5h-41zM362 729l-155 -729h-140l155 729h140z" />
    <glyph glyph-name="Lslash" unicode="&#x141;" horiz-adv-x="611" 
d="M338 421l187 110l-20 -94l-187 -110l-43 -202h349l-27 -125h-499l56 262l-100 -61l20 94l100 61l79 373h150z" />
    <glyph glyph-name="lslash" unicode="&#x142;" horiz-adv-x="278" 
d="M296 435l76 45l-17 -82l-76 -45l-75 -353h-140l62 294l-76 -48l17 83l76 47l76 353h140z" />
    <glyph glyph-name="Nacute" unicode="&#x143;" horiz-adv-x="722" 
d="M705 930l-158 -150h-70l102 150h126zM816 729l-155 -729h-148l-192 523l-111 -523h-142l155 729h150l192 -515l109 515h142z" />
    <glyph glyph-name="nacute" unicode="&#x144;" horiz-adv-x="611" 
d="M605 757l-158 -150h-70l102 150h126zM178 540h140l-18 -82q40 48 83 69.5t99 21.5q67 0 107 -36t40 -96q0 -27 -6 -55l-77 -362h-140l67 313q6 33 6 49q0 75 -74 75q-50 0 -86.5 -35.5t-50.5 -97.5l-65 -304h-140z" />
    <glyph glyph-name="Ncommaaccent" unicode="&#x145;" horiz-adv-x="722" 
d="M321 -73h122l-23 -102q-25 -113 -149 -125l10 46q76 14 85 79h-67zM816 729l-155 -729h-148l-192 523l-111 -523h-142l155 729h150l192 -515l109 515h142z" />
    <glyph glyph-name="ncommaaccent" unicode="&#x146;" horiz-adv-x="611" 
d="M220 -73h122l-23 -102q-25 -113 -149 -125l10 46q76 14 85 79h-67zM178 540h140l-18 -82q40 48 83 69.5t99 21.5q67 0 107 -36t40 -96q0 -27 -6 -55l-77 -362h-140l67 313q6 33 6 49q0 75 -74 75q-50 0 -86.5 -35.5t-50.5 -97.5l-65 -304h-140z" />
    <glyph glyph-name="Ncaron" unicode="&#x147;" horiz-adv-x="722" 
d="M583 784h-108l-71 147h78l61 -97l103 97h76zM816 729l-155 -729h-148l-192 523l-111 -523h-142l155 729h150l192 -515l109 515h142z" />
    <glyph glyph-name="ncaron" unicode="&#x148;" horiz-adv-x="611" 
d="M178 540h140l-18 -82q40 48 83 69.5t99 21.5q67 0 107 -36t40 -96q0 -27 -6 -55l-77 -362h-140l67 313q6 33 6 49q0 75 -74 75q-50 0 -86.5 -35.5t-50.5 -97.5l-65 -304h-140zM458 610h-108l-71 147h78l61 -97l103 97h76z" />
    <glyph glyph-name="napostrophe" unicode="&#x149;" horiz-adv-x="656" 
d="M190 790h122l-21 -96q-8 -59 -52 -103t-101 -48l10 46q33 6 57 30.5t28 58.5h-67zM223 540h140l-18 -82q40 48 83 69.5t99 21.5q67 0 107 -36t40 -96q0 -27 -6 -55l-77 -362h-140l67 313q6 33 6 49q0 75 -74 75q-50 0 -86.5 -35.5t-50.5 -97.5l-65 -304h-140z" />
    <glyph glyph-name="Eng" unicode="&#x14a;" horiz-adv-x="720" 
d="M425 109q50 0 98.5 64.5t76.5 152t28 160.5q0 45 -13 73.5t-37.5 39.5t-42.5 14t-46 3q-66 0 -122 -49t-73 -128l-93 -439h-150l155 729h150l-16 -77q44 52 90.5 70.5t110.5 18.5q36 0 75.5 -14t77.5 -41.5t62.5 -76.5t24.5 -111q0 -38 -8 -74q-49 -230 -145 -335
t-221 -105q-21 0 -40.5 2.5t-29.5 5t-19.5 5.5t-11.5 3l26 123q3 0 34.5 -7t58.5 -7z" />
    <glyph glyph-name="eng" unicode="&#x14b;" horiz-adv-x="611" 
d="M178 540h140l-18 -82q40 48 83 69.5t99 21.5q67 0 107 -36t40 -96q0 -27 -6 -55l-98 -456q-14 -65 -58.5 -94.5t-129.5 -29.5q-27 0 -45 5l24 111q5 -4 25 -4q23 0 34.5 10t16.5 34l81 375q6 33 6 49q0 75 -74 75q-50 0 -86.5 -35.5t-50.5 -97.5l-65 -304h-140z" />
    <glyph glyph-name="Omacron" unicode="&#x14c;" horiz-adv-x="778" 
d="M712 881l-17 -80h-300l17 80h300zM538 741q137 0 213.5 -75.5t76.5 -210.5q0 -62 -16.5 -126.5t-52.5 -128t-85.5 -113t-122 -80t-156.5 -30.5q-134 0 -211.5 76.5t-77.5 207.5q0 59 16.5 123.5t52.5 128.5t85.5 114.5t122 82t155.5 31.5zM419 105q52 0 95 19.5t70 52
t47 69.5t29.5 76t14 67t4.5 48q0 83 -42.5 129.5t-117.5 46.5q-52 0 -95.5 -19.5t-71 -51.5t-47.5 -68.5t-30.5 -75.5t-15 -67.5t-4.5 -48.5q0 -82 44 -129.5t120 -47.5z" />
    <glyph glyph-name="omacron" unicode="&#x14d;" horiz-adv-x="611" 
d="M592 702l-17 -80h-300l17 80h300zM82 177q0 155 91.5 263.5t239.5 108.5q103 0 162 -53.5t59 -146.5q0 -158 -93 -265t-242 -107q-99 0 -158 54.5t-59 145.5zM324 89q47 0 82 27.5t52 68t25 75.5t8 60q0 53 -27 85t-73 32q-68 0 -117 -68.5t-49 -163.5q0 -53 27 -84.5
t72 -31.5z" />
    <glyph glyph-name="Obreve" unicode="&#x14e;" horiz-adv-x="778" 
d="M683 943h42q-11 -62 -56.5 -102.5t-104.5 -40.5q-47 0 -76.5 29t-29.5 75q0 17 6 39h42v-8q0 -27 19.5 -42t54.5 -15q77 0 103 65zM538 741q137 0 213.5 -75.5t76.5 -210.5q0 -62 -16.5 -126.5t-52.5 -128t-85.5 -113t-122 -80t-156.5 -30.5q-134 0 -211.5 76.5
t-77.5 207.5q0 59 16.5 123.5t52.5 128.5t85.5 114.5t122 82t155.5 31.5zM419 105q52 0 95 19.5t70 52t47 69.5t29.5 76t14 67t4.5 48q0 83 -42.5 129.5t-117.5 46.5q-52 0 -95.5 -19.5t-71 -51.5t-47.5 -68.5t-30.5 -75.5t-15 -67.5t-4.5 -48.5q0 -82 44 -129.5t120 -47.5z
" />
    <glyph glyph-name="obreve" unicode="&#x14f;" horiz-adv-x="611" 
d="M544 751h42q-11 -62 -56.5 -102.5t-104.5 -40.5q-47 0 -76.5 29t-29.5 75q0 17 6 39h42v-8q0 -27 19.5 -42t54.5 -15q77 0 103 65zM82 177q0 155 91.5 263.5t239.5 108.5q103 0 162 -53.5t59 -146.5q0 -158 -93 -265t-242 -107q-99 0 -158 54.5t-59 145.5zM324 89
q47 0 82 27.5t52 68t25 75.5t8 60q0 53 -27 85t-73 32q-68 0 -117 -68.5t-49 -163.5q0 -53 27 -84.5t72 -31.5z" />
    <glyph glyph-name="Ohungarumlaut" unicode="&#x150;" horiz-adv-x="778" 
d="M630 919l-158 -147h-70l102 147h126zM818 919l-158 -147h-70l102 147h126zM538 741q137 0 213.5 -75.5t76.5 -210.5q0 -62 -16.5 -126.5t-52.5 -128t-85.5 -113t-122 -80t-156.5 -30.5q-134 0 -211.5 76.5t-77.5 207.5q0 59 16.5 123.5t52.5 128.5t85.5 114.5t122 82
t155.5 31.5zM419 105q52 0 95 19.5t70 52t47 69.5t29.5 76t14 67t4.5 48q0 83 -42.5 129.5t-117.5 46.5q-52 0 -95.5 -19.5t-71 -51.5t-47.5 -68.5t-30.5 -75.5t-15 -67.5t-4.5 -48.5q0 -82 44 -129.5t120 -47.5z" />
    <glyph glyph-name="ohungarumlaut" unicode="&#x151;" horiz-adv-x="611" 
d="M505 757l-158 -147h-70l102 147h126zM693 757l-158 -147h-70l102 147h126zM82 177q0 155 91.5 263.5t239.5 108.5q103 0 162 -53.5t59 -146.5q0 -158 -93 -265t-242 -107q-99 0 -158 54.5t-59 145.5zM324 89q47 0 82 27.5t52 68t25 75.5t8 60q0 53 -27 85t-73 32
q-68 0 -117 -68.5t-49 -163.5q0 -53 27 -84.5t72 -31.5z" />
    <glyph glyph-name="OE" unicode="&#x152;" horiz-adv-x="1000" 
d="M692 314l-40 -189h345l-26 -125h-490l12 59q-42 -45 -79.5 -63.5t-87.5 -18.5q-106 0 -171 73.5t-65 194.5q0 99 38.5 202t101.5 172q110 122 252 122q49 0 82 -14.5t61 -49.5l11 52h471l-27 -125h-326l-35 -165h298l-27 -125h-298zM482 613q-55 0 -99.5 -28t-70.5 -68
t-43 -89t-23.5 -87.5t-6.5 -66.5q0 -80 38 -124.5t106 -44.5q75 0 130 73l77 362q-27 73 -108 73z" />
    <glyph glyph-name="oe" unicode="&#x153;" horiz-adv-x="962" 
d="M789 549q95 0 151.5 -56.5t56.5 -141.5q0 -57 -18 -125h-362q-7 -30 -7 -52q0 -38 26.5 -61.5t69.5 -23.5q37 0 68 17t46 46h138q-40 -80 -116 -127.5t-165 -47.5q-55 0 -101 20t-67 53q-83 -73 -210 -73q-101 0 -159 53.5t-58 145.5q0 152 92 262.5t240 110.5
q59 0 106.5 -19t73.5 -53q74 72 195 72zM324 89q47 0 82 27.5t52 68t25 75.5t8 60q0 53 -27 85t-73 32q-68 0 -117 -68.5t-49 -163.5q0 -53 27 -84.5t72 -31.5zM854 319v28q0 43 -22.5 66.5t-62.5 23.5q-99 0 -131 -118h216z" />
    <glyph glyph-name="Racute" unicode="&#x154;" horiz-adv-x="722" 
d="M661 930l-158 -150h-70l102 150h126zM510 41q0 34 19 106t19 87q0 55 -85 55h-172l-61 -289h-150l155 729h377q49 0 85 -15.5t54 -39.5t26 -48t8 -47q0 -41 -13.5 -77t-30.5 -58.5t-44.5 -43.5t-42 -29t-36.5 -19q78 -26 78 -82q0 -34 -15.5 -113t-15.5 -96q0 -20 18 -34
l-6 -27h-159q-8 25 -8 41zM636 534q0 70 -110 70h-168l-40 -190h181q40 0 68.5 12.5t42.5 32.5t20 38.5t6 36.5z" />
    <glyph glyph-name="racute" unicode="&#x155;" horiz-adv-x="389" 
d="M515 757l-158 -150h-70l102 150h126zM178 540h140l-23 -106q35 55 81 85t94 30q9 0 17 -1l-30 -142q-24 4 -43 4q-124 0 -150 -123l-61 -287h-140z" />
    <glyph glyph-name="Rcommaaccent" unicode="&#x156;" horiz-adv-x="722" 
d="M302 -73h122l-23 -102q-25 -113 -149 -125l10 46q76 14 85 79h-67zM510 41q0 34 19 106t19 87q0 55 -85 55h-172l-61 -289h-150l155 729h377q49 0 85 -15.5t54 -39.5t26 -48t8 -47q0 -41 -13.5 -77t-30.5 -58.5t-44.5 -43.5t-42 -29t-36.5 -19q78 -26 78 -82
q0 -34 -15.5 -113t-15.5 -96q0 -20 18 -34l-6 -27h-159q-8 25 -8 41zM636 534q0 70 -110 70h-168l-40 -190h181q40 0 68.5 12.5t42.5 32.5t20 38.5t6 36.5z" />
    <glyph glyph-name="rcommaaccent" unicode="&#x157;" horiz-adv-x="389" 
d="M65 -73h122l-23 -102q-25 -113 -149 -125l10 46q76 14 85 79h-67zM178 540h140l-23 -106q35 55 81 85t94 30q9 0 17 -1l-30 -142q-24 4 -43 4q-124 0 -150 -123l-61 -287h-140z" />
    <glyph glyph-name="Rcaron" unicode="&#x158;" horiz-adv-x="722" 
d="M510 41q0 34 19 106t19 87q0 55 -85 55h-172l-61 -289h-150l155 729h377q49 0 85 -15.5t54 -39.5t26 -48t8 -47q0 -41 -13.5 -77t-30.5 -58.5t-44.5 -43.5t-42 -29t-36.5 -19q78 -26 78 -82q0 -34 -15.5 -113t-15.5 -96q0 -20 18 -34l-6 -27h-159q-8 25 -8 41zM636 534
q0 70 -110 70h-168l-40 -190h181q40 0 68.5 12.5t42.5 32.5t20 38.5t6 36.5zM547 784h-108l-71 147h78l61 -97l103 97h76z" />
    <glyph glyph-name="rcaron" unicode="&#x159;" horiz-adv-x="389" 
d="M178 540h140l-23 -106q35 55 81 85t94 30q9 0 17 -1l-30 -142q-24 4 -43 4q-124 0 -150 -123l-61 -287h-140zM395 610h-108l-71 147h78l61 -97l103 97h76z" />
    <glyph glyph-name="Sacute" unicode="&#x15a;" horiz-adv-x="667" 
d="M646 930l-158 -150h-70l102 150h126zM151 472q0 115 88 192t234 77q119 0 185.5 -45.5t66.5 -126.5q0 -25 -8 -62h-140q2 18 2 23q0 83 -132 83q-68 0 -107.5 -28t-39.5 -76q0 -28 25 -43.5t96 -29.5l109 -22q77 -15 117 -53t40 -96q0 -36 -9 -72t-33 -76t-61 -70
t-99 -50t-140 -20q-77 0 -132.5 18.5t-83.5 49t-40.5 62.5t-12.5 67q0 17 4 44h146q-2 -18 -2 -23q0 -43 37.5 -66.5t105.5 -23.5q78 0 124.5 30.5t46.5 80.5q0 35 -26 53t-94 32l-98 20q-89 18 -129 53.5t-40 97.5z" />
    <glyph glyph-name="sacute" unicode="&#x15b;" horiz-adv-x="556" 
d="M127 345q0 88 72.5 146t187.5 58q94 0 148 -38.5t54 -106.5q0 -16 -5 -38h-135q3 14 3 19q0 24 -23.5 38t-64.5 14q-40 0 -64 -14.5t-24 -38.5q0 -15 13.5 -24.5t51.5 -20.5l96 -28q122 -37 122 -124q0 -96 -75.5 -153t-202.5 -57q-63 0 -109 15t-68.5 39.5t-33 48
t-10.5 47.5q0 10 4 30h137q4 -68 106 -68q46 0 75 15.5t29 39.5q0 17 -14.5 27t-61.5 25l-79 25q-66 22 -97.5 52t-31.5 72zM563 757l-158 -150h-70l102 150h126z" />
    <glyph glyph-name="Scircumflex" unicode="&#x15c;" horiz-adv-x="667" 
d="M468 932h108l71 -147h-78l-61 97l-103 -97h-76zM151 472q0 115 88 192t234 77q119 0 185.5 -45.5t66.5 -126.5q0 -25 -8 -62h-140q2 18 2 23q0 83 -132 83q-68 0 -107.5 -28t-39.5 -76q0 -28 25 -43.5t96 -29.5l109 -22q77 -15 117 -53t40 -96q0 -36 -9 -72t-33 -76
t-61 -70t-99 -50t-140 -20q-77 0 -132.5 18.5t-83.5 49t-40.5 62.5t-12.5 67q0 17 4 44h146q-2 -18 -2 -23q0 -43 37.5 -66.5t105.5 -23.5q78 0 124.5 30.5t46.5 80.5q0 35 -26 53t-94 32l-98 20q-89 18 -129 53.5t-40 97.5z" />
    <glyph glyph-name="scircumflex" unicode="&#x15d;" horiz-adv-x="556" 
d="M387 756h108l71 -147h-78l-61 97l-103 -97h-76zM127 345q0 88 72.5 146t187.5 58q94 0 148 -38.5t54 -106.5q0 -16 -5 -38h-135q3 14 3 19q0 24 -23.5 38t-64.5 14q-40 0 -64 -14.5t-24 -38.5q0 -15 13.5 -24.5t51.5 -20.5l96 -28q122 -37 122 -124q0 -96 -75.5 -153
t-202.5 -57q-63 0 -109 15t-68.5 39.5t-33 48t-10.5 47.5q0 10 4 30h137q4 -68 106 -68q46 0 75 15.5t29 39.5q0 17 -14.5 27t-61.5 25l-79 25q-66 22 -97.5 52t-31.5 72z" />
    <glyph glyph-name="Scedilla" unicode="&#x15e;" horiz-adv-x="667" 
d="M151 472q0 115 88 192t234 77q119 0 185.5 -45.5t66.5 -126.5q0 -25 -8 -62h-140q2 18 2 23q0 83 -132 83q-68 0 -107.5 -28t-39.5 -76q0 -28 25 -43.5t96 -29.5l109 -22q77 -15 117 -53t40 -96q0 -37 -8.5 -73t-32.5 -75.5t-60.5 -69.5t-98 -49.5t-140.5 -20.5l-27 -39
q22 6 44 6q29 0 46 -15t17 -42q0 -49 -41 -78t-109 -29q-59 0 -133 29l30 51q61 -30 99 -30q28 0 47.5 13t19.5 31q0 15 -12 24t-32 9q-22 0 -53 -13l55 84q-112 17 -167 63t-55 133q0 17 4 44h146q-2 -18 -2 -22q0 -43 37.5 -67t105.5 -24q78 0 124.5 30.5t46.5 80.5
q0 35 -26 53.5t-94 31.5l-98 20q-89 18 -129 53.5t-40 97.5z" />
    <glyph glyph-name="scedilla" unicode="&#x15f;" horiz-adv-x="556" 
d="M127 345q0 88 72.5 146t187.5 58q94 0 148 -38.5t54 -106.5q0 -16 -5 -38h-135q3 14 3 19q0 24 -23.5 38t-64.5 14q-40 0 -64 -14.5t-24 -38.5q0 -15 13.5 -24.5t51.5 -20.5l96 -28q122 -37 122 -124q0 -95 -73.5 -152t-197.5 -57l-26 -40q22 6 43 6q29 0 46 -15t17 -42
q0 -49 -41 -78t-109 -29q-58 0 -133 29l30 51q61 -30 98 -30q28 0 48 13t20 31q0 15 -12 24t-32 9q-22 0 -53 -13l54 85q-16 0 -43.5 8t-58.5 24t-53.5 46.5t-22.5 69.5q0 11 4 30h137q4 -68 106 -68q46 0 75 15.5t29 39.5q0 17 -14.5 27t-61.5 25l-79 25q-66 22 -97.5 52
t-31.5 72z" />
    <glyph glyph-name="Scaron" unicode="&#x160;" horiz-adv-x="667" 
d="M534 784h-108l-71 147h78l61 -97l103 97h76zM151 472q0 115 88 192t234 77q119 0 185.5 -45.5t66.5 -126.5q0 -25 -8 -62h-140q2 18 2 23q0 83 -132 83q-68 0 -107.5 -28t-39.5 -76q0 -28 25 -43.5t96 -29.5l109 -22q77 -15 117 -53t40 -96q0 -36 -9 -72t-33 -76t-61 -70
t-99 -50t-140 -20q-77 0 -132.5 18.5t-83.5 49t-40.5 62.5t-12.5 67q0 17 4 44h146q-2 -18 -2 -23q0 -43 37.5 -66.5t105.5 -23.5q78 0 124.5 30.5t46.5 80.5q0 35 -26 53t-94 32l-98 20q-89 18 -129 53.5t-40 97.5z" />
    <glyph glyph-name="scaron" unicode="&#x161;" horiz-adv-x="556" 
d="M127 345q0 88 72.5 146t187.5 58q94 0 148 -38.5t54 -106.5q0 -16 -5 -38h-135q3 14 3 19q0 24 -23.5 38t-64.5 14q-40 0 -64 -14.5t-24 -38.5q0 -15 13.5 -24.5t51.5 -20.5l96 -28q122 -37 122 -124q0 -96 -75.5 -153t-202.5 -57q-63 0 -109 15t-68.5 39.5t-33 48
t-10.5 47.5q0 10 4 30h137q4 -68 106 -68q46 0 75 15.5t29 39.5q0 17 -14.5 27t-61.5 25l-79 25q-66 22 -97.5 52t-31.5 72zM458 610h-108l-71 147h78l61 -97l103 97h76z" />
    <glyph glyph-name="Tcedilla" unicode="&#x162;" horiz-adv-x="611" 
d="M514 604l-129 -604h-37l-40 -61q24 6 43 6q30 0 47 -15t17 -42q0 -49 -41 -78t-109 -29q-59 0 -133 29l30 51q61 -30 98 -30q28 0 48 13t20 31q0 15 -12 24t-32 9q-22 0 -53 -13l67 105h-63l129 604h-222l27 125h584l-27 -125h-212z" />
    <glyph glyph-name="tcedilla" unicode="&#x163;" horiz-adv-x="333" 
d="M414 529l-20 -93h-78l-62 -294q-6 -26 -6 -34q0 -25 38 -25q12 0 33 3l-20 -98q-39 -11 -85 -11h-9l-31 -47q24 6 43 6q30 0 47 -15t17 -42q0 -49 -41 -78t-109 -29q-59 0 -133 29l30 51q61 -30 98 -30q28 0 48 13t20 31q0 15 -12 24t-32 9q-22 0 -53 -13l63 98
q-59 19 -59 79q0 17 5 41l70 332h-69l20 93h69l31 145h140l-31 -145h78z" />
    <glyph glyph-name="Tcaron" unicode="&#x164;" horiz-adv-x="611" 
d="M514 604l-129 -604h-150l129 604h-222l27 125h584l-27 -125h-212zM530 775h-108l-71 147h78l61 -97l103 97h76z" />
    <glyph glyph-name="tcaron" unicode="&#x165;" horiz-adv-x="444" 
d="M471 740h107l-15 -69q-9 -41 -45 -64.5t-81 -23.5l9 42h3q12 0 19 1.5t15.5 12t13.5 31.5h-41zM414 529l-20 -93h-78l-62 -294q-6 -26 -6 -34q0 -25 38 -25q12 0 33 3l-20 -98q-39 -11 -85 -11q-55 0 -84 22.5t-29 63.5q0 18 5 41l70 332h-69l20 93h69l31 145h140
l-31 -145h78z" />
    <glyph glyph-name="Tbar" unicode="&#x166;" horiz-adv-x="611" 
d="M534 357l-17 -80h-73l-59 -277h-150l59 277h-77l17 80h77l53 247h-222l27 125h584l-27 -125h-212l-53 -247h73z" />
    <glyph glyph-name="tbar" unicode="&#x167;" horiz-adv-x="404" 
d="M390 357l-17 -80h-91l-28 -135q-6 -26 -6 -34q0 -25 38 -25q12 0 33 3l-20 -98q-39 -11 -85 -11q-55 0 -84 22.5t-29 63.5q0 17 5 41l36 173h-69l17 80h69l17 79h-69l20 93h69l31 145h140l-31 -145h78l-20 -93h-78l-17 -79h91z" />
    <glyph glyph-name="Utilde" unicode="&#x168;" horiz-adv-x="722" 
d="M746 922q-18 -63 -53.5 -92.5t-79.5 -29.5q-27 0 -51 11l-50 25q-30 14 -44 14q-26 0 -51 -48h-54q17 56 48.5 86.5t72.5 30.5q32 0 71 -17l50 -21q21 -10 33 -10q33 0 54 51h54zM659 729h150l-105 -494q-29 -133 -122.5 -195.5t-215.5 -62.5q-113 0 -180 51.5t-67 138.5
q0 36 11 88l101 474h150l-105 -494q-5 -27 -5 -45q0 -40 32.5 -62.5t90.5 -22.5q68 0 107 31.5t53 98.5z" />
    <glyph glyph-name="utilde" unicode="&#x169;" horiz-adv-x="611" 
d="M641 762q-18 -63 -53.5 -92.5t-79.5 -29.5q-27 0 -51 11l-50 25q-30 14 -44 14q-26 0 -51 -48h-54q17 56 48.5 86.5t72.5 30.5q32 0 71 -17l50 -21q21 -10 33 -10q33 0 54 51h54zM541 0h-140l15 68q-40 -48 -83 -69.5t-99 -21.5q-66 0 -106 36t-40 96q0 27 6 55l80 376
h140l-70 -327q-6 -35 -6 -49q0 -75 76 -75q49 0 85 36t49 97l68 318h140z" />
    <glyph glyph-name="Umacron" unicode="&#x16a;" horiz-adv-x="722" 
d="M700 881l-17 -80h-300l17 80h300zM659 729h150l-105 -494q-29 -133 -122.5 -195.5t-215.5 -62.5q-113 0 -180 51.5t-67 138.5q0 36 11 88l101 474h150l-105 -494q-5 -27 -5 -45q0 -40 32.5 -62.5t90.5 -22.5q68 0 107 31.5t53 98.5z" />
    <glyph glyph-name="umacron" unicode="&#x16b;" horiz-adv-x="611" 
d="M596 702l-17 -80h-300l17 80h300zM541 0h-140l15 68q-40 -48 -83 -69.5t-99 -21.5q-66 0 -106 36t-40 96q0 27 6 55l80 376h140l-70 -327q-6 -35 -6 -49q0 -75 76 -75q49 0 85 36t49 97l68 318h140z" />
    <glyph glyph-name="Ubreve" unicode="&#x16c;" horiz-adv-x="722" 
d="M652 928h42q-11 -62 -56.5 -102.5t-104.5 -40.5q-47 0 -76.5 29t-29.5 75q0 17 6 39h42v-8q0 -27 19.5 -42t54.5 -15q77 0 103 65zM659 729h150l-105 -494q-29 -133 -122.5 -195.5t-215.5 -62.5q-113 0 -180 51.5t-67 138.5q0 36 11 88l101 474h150l-105 -494
q-5 -27 -5 -45q0 -40 32.5 -62.5t90.5 -22.5q68 0 107 31.5t53 98.5z" />
    <glyph glyph-name="ubreve" unicode="&#x16d;" horiz-adv-x="611" 
d="M544 751h42q-11 -62 -56.5 -102.5t-104.5 -40.5q-47 0 -76.5 29t-29.5 75q0 17 6 39h42v-8q0 -27 19.5 -42t54.5 -15q77 0 103 65zM541 0h-140l15 68q-40 -48 -83 -69.5t-99 -21.5q-66 0 -106 36t-40 96q0 27 6 55l80 376h140l-70 -327q-6 -35 -6 -49q0 -75 76 -75
q49 0 85 36t49 97l68 318h140z" />
    <glyph glyph-name="Uring" unicode="&#x16e;" horiz-adv-x="722" 
d="M564 953q31 0 51.5 -20t20.5 -51q0 -43 -34 -76t-78 -33q-31 0 -51.5 20t-20.5 51q0 43 34 76t78 33zM554 903q-20 0 -36.5 -14.5t-16.5 -33.5q0 -14 9.5 -23t24.5 -9q20 0 36 15t16 34q0 13 -9.5 22t-23.5 9zM659 729h150l-105 -494q-29 -133 -122.5 -195.5
t-215.5 -62.5q-113 0 -180 51.5t-67 138.5q0 36 11 88l101 474h150l-105 -494q-5 -27 -5 -45q0 -40 32.5 -62.5t90.5 -22.5q68 0 107 31.5t53 98.5z" />
    <glyph glyph-name="uring" unicode="&#x16f;" horiz-adv-x="611" 
d="M463 759q31 0 51.5 -20t20.5 -51q0 -43 -34 -76t-78 -33q-31 0 -51.5 20t-20.5 51q0 43 34 76t78 33zM453 709q-20 0 -36.5 -14.5t-16.5 -33.5q0 -14 9.5 -23t24.5 -9q20 0 36 15t16 34q0 13 -9.5 22t-23.5 9zM541 0h-140l15 68q-40 -48 -83 -69.5t-99 -21.5
q-66 0 -106 36t-40 96q0 27 6 55l80 376h140l-70 -327q-6 -35 -6 -49q0 -75 76 -75q49 0 85 36t49 97l68 318h140z" />
    <glyph glyph-name="Uhungarumlaut" unicode="&#x170;" horiz-adv-x="722" 
d="M659 729h150l-105 -494q-29 -133 -122.5 -195.5t-215.5 -62.5q-113 0 -180 51.5t-67 138.5q0 36 11 88l101 474h150l-105 -494q-5 -27 -5 -45q0 -40 32.5 -62.5t90.5 -22.5q68 0 107 31.5t53 98.5zM633 918l-158 -147h-70l102 147h126zM821 918l-158 -147h-70l102 147
h126z" />
    <glyph glyph-name="uhungarumlaut" unicode="&#x171;" horiz-adv-x="611" 
d="M541 0h-140l15 68q-40 -48 -83 -69.5t-99 -21.5q-66 0 -106 36t-40 96q0 27 6 55l80 376h140l-70 -327q-6 -35 -6 -49q0 -75 76 -75q49 0 85 36t49 97l68 318h140zM523 757l-158 -147h-70l102 147h126zM711 757l-158 -147h-70l102 147h126z" />
    <glyph glyph-name="Uogonek" unicode="&#x172;" horiz-adv-x="722" 
d="M569 -172l-11 -52q-45 -9 -76 -9q-67 0 -103.5 20t-36.5 56q0 31 14 57t39 44t40.5 27t37.5 19q-65 -13 -105 -13q-115 0 -182 51t-67 139q0 36 11 88l101 474h150l-105 -494q-5 -27 -5 -45q0 -40 32.5 -62.5t90.5 -22.5q68 0 107 31.5t53 98.5l105 494h150l-105 -494
q-16 -68 -44.5 -114.5t-57 -67.5t-66.5 -52t-62 -64q-32 -44 -32 -76q0 -44 56 -44q38 0 71 11z" />
    <glyph glyph-name="uogonek" unicode="&#x173;" horiz-adv-x="611" 
d="M656 540l-115 -540q-125 -64 -125 -142q0 -41 53 -41q33 0 68 11l-11 -52q-43 -9 -70 -9q-139 0 -139 79q0 88 149 154h-65l15 68q-40 -48 -83 -69.5t-99 -21.5q-66 0 -106 36t-40 96q0 27 6 55l80 376h140l-70 -327q-6 -35 -6 -49q0 -75 76 -75q49 0 85 36t49 97l68 318
h140z" />
    <glyph glyph-name="Wcircumflex" unicode="&#x174;" horiz-adv-x="944" 
d="M621 938h108l71 -147h-78l-61 97l-103 -97h-76zM730 0h-135l-4 555l-237 -555h-135l-51 729h159l-3 -546l224 546h158l-3 -548l225 548h159z" />
    <glyph glyph-name="wcircumflex" unicode="&#x175;" horiz-adv-x="778" 
d="M502 787h108l71 -147h-78l-61 97l-103 -97h-76zM617 0h-145l-5 380l-166 -380h-144l-37 540h145l5 -378l159 378h144v-378l163 378h145z" />
    <glyph glyph-name="Ycircumflex" unicode="&#x176;" horiz-adv-x="667" 
d="M484 929h108l71 -147h-78l-61 97l-103 -97h-76zM477 270l-58 -270h-150l58 270l-145 459h167l82 -315l207 315h167z" />
    <glyph glyph-name="ycircumflex" unicode="&#x177;" horiz-adv-x="556" 
d="M390 787h108l71 -147h-78l-61 97l-103 -97h-76zM509 540h144l-358 -638q-25 -47 -44 -66q-57 -55 -170 -55q-27 0 -44 4l23 109q11 -2 28 -2q52 0 82.5 25t30.5 68q-13 107 -40.5 299.5l-36.5 255.5h154l36 -393z" />
    <glyph glyph-name="Ydieresis" unicode="&#x178;" horiz-adv-x="667" 
d="M688 921l-26 -120h-110l26 120h110zM492 921l-26 -120h-110l26 120h110zM477 270l-58 -270h-150l58 270l-145 459h167l82 -315l207 315h167z" />
    <glyph glyph-name="Zacute" unicode="&#x179;" horiz-adv-x="611" 
d="M614 930l-158 -150h-70l102 150h126zM733 729l-27 -125l-474 -479h373l-27 -125h-548l27 125l474 479h-373l27 125h548z" />
    <glyph glyph-name="zacute" unicode="&#x17a;" horiz-adv-x="500" 
d="M555 757l-158 -150h-70l102 150h126zM575 540l-24 -113l-332 -314h274l-24 -113h-448l24 113l334 314h-249l24 113h421z" />
    <glyph glyph-name="Zdotaccent" unicode="&#x17b;" horiz-adv-x="611" 
d="M546 899l-26 -120h-110l26 120h110zM733 729l-27 -125l-474 -479h373l-27 -125h-548l27 125l474 479h-373l27 125h548z" />
    <glyph glyph-name="zdotaccent" unicode="&#x17c;" horiz-adv-x="500" 
d="M464 742l-26 -120h-110l26 120h110zM575 540l-24 -113l-332 -314h274l-24 -113h-448l24 113l334 314h-249l24 113h421z" />
    <glyph glyph-name="Zcaron" unicode="&#x17d;" horiz-adv-x="611" 
d="M733 729l-27 -125l-474 -479h373l-27 -125h-548l27 125l474 479h-373l27 125h548zM502 784h-108l-71 147h78l61 -97l103 97h76z" />
    <glyph glyph-name="zcaron" unicode="&#x17e;" horiz-adv-x="500" 
d="M433 607h-108l-71 147h78l61 -97l103 97h76zM575 540l-24 -113l-332 -314h274l-24 -113h-448l24 113l334 314h-249l24 113h421z" />
    <glyph glyph-name="longs" unicode="&#x17f;" horiz-adv-x="333" 
d="M230 0h-140l93 436h-77l20 93h76l14 65q15 70 56.5 102.5t114.5 32.5q14 0 77 -3l-22 -105q-36 4 -42 4q-37 0 -46 -43z" />
    <glyph glyph-name="uni0180" unicode="&#x180;" horiz-adv-x="611" 
d="M338 94q48 0 86 38t56 88t18 98q0 52 -23.5 83t-64.5 31q-44 0 -78 -27.5t-50.5 -67.5t-24 -74t-7.5 -57q0 -52 23 -82t65 -30zM641 345q0 -83 -36 -166.5t-106.5 -142.5t-154.5 -59q-100 0 -132 78l-12 -55h-140l127 596h-60l14 67h60l14 66h140l-14 -66h133l-14 -67
h-133l-27 -126q66 79 166 79q80 0 127.5 -55.5t47.5 -148.5z" />
    <glyph glyph-name="uni0181" unicode="&#x181;" horiz-adv-x="857" 
d="M464 314l-43 -189h166q57 0 93 32.5t36 90.5q0 66 -85 66h-167zM531 604l-38 -165h152q54 0 87 27.5t33 77.5q0 60 -82 60h-152zM273 316q-69 0 -100.5 35.5t-31.5 95.5q0 127 73 204.5t182 77.5h327q52 0 89.5 -13.5t56.5 -37t27.5 -48t8.5 -51.5q0 -68 -31.5 -109
t-101.5 -83q77 -57 77 -134q0 -47 -18 -90.5t-52.5 -80.5t-92 -59.5t-129.5 -22.5h-305l134 579h-33q-41 0 -64 -23t-23 -62q0 -21 10.5 -34.5t26.5 -13.5z" />
    <glyph glyph-name="uni0182" unicode="&#x182;" horiz-adv-x="722" 
d="M488 439q53 0 94.5 -12t66 -31t40 -44.5t21 -49.5t5.5 -50q0 -56 -31.5 -111t-78.5 -88q-74 -53 -195 -53h-328l155 729h512l-27 -125h-362l-35 -165h163zM438 125q72 0 103 37t31 83q0 69 -94 69h-179l-40 -189h179z" />
    <glyph glyph-name="uni0183" unicode="&#x183;" horiz-adv-x="611" 
d="M409 432q-44 0 -78 -27t-50.5 -67t-24 -74t-7.5 -58q0 -52 23 -82t65 -30q48 0 86 38t56 88t18 98q0 52 -23.5 83t-64.5 31zM639 342q0 -78 -28 -148t-71.5 -116.5t-95.5 -73.5t-101 -27q-100 0 -132 78l-12 -55h-140l155 729h379l-27 -125h-239l-28 -134q66 79 166 79
q31 0 59 -9.5t55 -31t43.5 -64.5t16.5 -102z" />
    <glyph glyph-name="uni0184" unicode="&#x184;" horiz-adv-x="667" 
d="M681 295q0 -132 -80 -213.5t-210 -81.5h-322l99 468l-81 75l286 186l-55 -260h187q83 0 129.5 -46.5t46.5 -127.5zM385 125q42 0 72 14t45 36.5t21.5 46t6.5 48.5q0 74 -98 74h-140l-47 -219h140z" />
    <glyph glyph-name="uni0185" unicode="&#x185;" horiz-adv-x="611" 
d="M337 94q48 0 86 38t56 88t18 98q0 52 -23.5 83t-64.5 31q-44 0 -78 -27.5t-50.5 -67.5t-24 -74t-7.5 -57q0 -52 23 -82t65 -30zM640 345q0 -83 -36 -166.5t-106.5 -142.5t-154.5 -59q-100 0 -132 78l-12 -55h-140l105 493l-80 81l270 155l-55 -259q66 79 166 79
q80 0 127.5 -55.5t47.5 -148.5z" />
    <glyph glyph-name="uni0186" unicode="&#x186;" horiz-adv-x="722" 
d="M768 483q0 -139 -55 -255t-153 -183.5t-218 -67.5q-116 0 -188 58t-72 151q0 13 4 50h141q0 -131 132 -131q53 0 96 20.5t70 54.5t46.5 72.5t29.5 80t14 71t4 50.5q0 159 -147 159q-72 0 -123 -37.5t-73 -106.5h-143q33 128 128 200t232 72q128 0 201.5 -69t73.5 -189z
" />
    <glyph glyph-name="uni0187" unicode="&#x187;" horiz-adv-x="752" 
d="M513 613q-61 0 -108.5 -30.5t-74 -73t-43.5 -94.5t-22.5 -88.5t-5.5 -61.5q0 -78 36 -120t105 -42q71 0 124 39t68 107h146q-27 -124 -129.5 -198t-239.5 -74q-125 0 -193.5 70.5t-68.5 195.5q0 56 13 115q38 177 149.5 280t265.5 103q101 0 166 -44q31 51 114 51
q37 0 82 -5l-24 -112q-12 4 -14 4q-42 0 -51 -42l-24 -111h-143q0 131 -128 131z" />
    <glyph glyph-name="uni0188" unicode="&#x188;" horiz-adv-x="586" 
d="M77 172q0 98 39 183.5t115 139.5t173 54q70 0 115 -27q36 36 108 36q29 0 76 -5l-24 -112q-12 4 -24 4q-23 0 -34.5 -9.5t-15.5 -32.5l-13 -65h-134q-1 53 -18.5 75.5t-60.5 22.5q-47 0 -81 -31t-49.5 -75.5t-22 -78t-6.5 -55.5q0 -51 22 -78.5t63 -27.5t68.5 22.5
t52.5 74.5h134q-31 -97 -106.5 -153.5t-173.5 -56.5t-150.5 50.5t-52.5 144.5z" />
    <glyph glyph-name="uni0189" unicode="&#x189;" horiz-adv-x="722" 
d="M150 341h-77l17 80h76l66 308h285q136 0 197.5 -59.5t61.5 -190.5q0 -184 -112 -339q-55 -76 -124 -108t-178 -32h-285zM300 341l-46 -216h134q65 0 106 23.5t73 79.5q26 44 43 113t17 128q0 135 -137 135h-135l-39 -183h174l-17 -80h-173z" />
    <glyph glyph-name="uni018A" unicode="&#x18a;" horiz-adv-x="818" 
d="M371 125h125q62 0 114 46.5t82.5 127t30.5 174.5q0 131 -116 131h-126zM223 316q-69 0 -100.5 35.5t-31.5 95.5q0 127 73 204.5t182 77.5h290q78 0 124 -20t70 -64q34 -61 34 -151q0 -123 -46 -231.5t-117 -177.5q-85 -85 -234 -85h-265l134 579l-34 -1
q-41 0 -63.5 -22.5t-22.5 -61.5q0 -21 10.5 -34.5t26.5 -13.5z" />
    <glyph glyph-name="uni018B" unicode="&#x18b;" horiz-adv-x="722" 
d="M382 439h163l35 165h-362l26 125h512l-155 -729h-328q-215 0 -215 168q0 33 11.5 69t37.5 72.5t63 65t92 46.5t120 18zM298 125h179l40 189h-179q-33 0 -59 -10t-39.5 -23.5t-22 -31.5t-11 -30.5t-2.5 -24.5q0 -69 94 -69z" />
    <glyph glyph-name="uni018C" unicode="&#x18c;" horiz-adv-x="611" 
d="M358 432q-65 0 -112.5 -70t-47.5 -155q0 -50 21.5 -81.5t66.5 -31.5q47 0 84.5 36.5t56.5 89t19 106.5q0 106 -88 106zM351 549q101 0 133 -79l29 134h-239l26 125h379l-155 -729h-140l11 55q-65 -78 -165 -78q-74 0 -125 57t-51 151q0 43 12.5 92.5t38.5 97.5t60.5 87
t83.5 63t102 24z" />
    <glyph glyph-name="uni018d" unicode="&#x18d;" horiz-adv-x="609" 
d="M367 426q-46 0 -81.5 -17t-55 -41t-32.5 -54t-17 -52t-4 -38q0 -92 105 -92q40 0 73 17t52 42t32 55t17.5 53.5t4.5 40.5q0 86 -94 86zM609 378q0 -51 -17.5 -106t-50 -106t-88 -89t-124.5 -50l131 -105l-27 -102h-453l31 113h219l-93 76q-2 1 -13 10.5t-16 14.5
l-16.5 16.5t-18 20.5t-15.5 23.5t-13.5 28t-8 32t-3.5 37.5q0 26 6 58t19.5 74.5t41 80.5t66 71t99.5 53t136 20q62 0 106 -16.5t64.5 -44.5t29 -54.5t8.5 -55.5z" />
    <glyph glyph-name="uni018E" unicode="&#x18e;" horiz-adv-x="667" 
d="M515 314h-349l28 125h349l35 165h-378l26 125h528l-155 -729h-545l26 125h395z" />
    <glyph glyph-name="uni018F" unicode="&#x18f;" horiz-adv-x="778" 
d="M211 293q0 -188 156 -188q76 0 139.5 51t96.5 137h-392zM59 262q0 75 27 156h544q0 27 -1.5 47t-10 50t-24 49.5t-46.5 34t-73 14.5q-117 0 -194 -109h-157q14 26 32 52t52 61.5t73.5 61t97.5 44t122 18.5q80 0 138 -26t87.5 -69.5t42.5 -90t13 -98.5q0 -63 -18 -129
t-55 -129t-88.5 -112.5t-124.5 -79.5t-156 -30q-64 0 -114.5 18t-81.5 46.5t-50.5 67t-27 76t-7.5 77.5z" />
    <glyph glyph-name="uni0190" unicode="&#x190;" horiz-adv-x="672" 
d="M172 178q0 -38 34.5 -59.5t95.5 -21.5q155 0 188 121h146q-30 -117 -120 -179t-229 -62q-124 0 -191 48.5t-67 137.5q0 23 4.5 47.5t16 56.5t38.5 61.5t66 48.5q-40 36 -40 94q0 121 89 195.5t235 74.5q71 0 121.5 -16t76.5 -43t37.5 -55.5t11.5 -60.5q0 -26 -6 -59h-140
q1 6 1 18q0 96 -132 96q-65 0 -105.5 -30.5t-40.5 -83.5q0 -79 120 -79h76l-23 -120h-102q-72 0 -116.5 -37t-44.5 -93z" />
    <glyph glyph-name="uni0191" unicode="&#x191;" horiz-adv-x="611" 
d="M293 439h319l-27 -125h-318l-86 -408q-14 -66 -49.5 -95t-100.5 -29q-35 0 -82 5l24 112q4 -1 5.5 -2t2.5 -1.5t5 -0.5q23 0 34.5 9.5t15.5 32.5l169 792h512l-27 -125h-362z" />
    <glyph glyph-name="florin" unicode="&#x192;" horiz-adv-x="333" 
d="M425 529l-19 -93h-83l-113 -530q-14 -66 -49 -95t-100 -29q-37 0 -82 5l24 112q12 -4 24 -4q22 0 33.5 9.5t16.5 32.5l106 499h-76l19 93h76l14 65q29 135 167 135q41 0 79 -3l-22 -105q-17 3 -39 3q-38 0 -47 -42l-12 -53h83z" />
    <glyph glyph-name="uni0193" unicode="&#x193;" horiz-adv-x="778" 
d="M469 613q-63 0 -113 -28t-77.5 -67t-45.5 -87.5t-23.5 -83t-5.5 -59.5q0 -83 43.5 -133t117.5 -50q80 0 144 52t76 110h-166l26 125h292l-83 -392h-90l2 94q-56 -62 -114 -89.5t-131 -27.5q-124 0 -197.5 78t-73.5 206q0 45 11 98q37 170 157 276t277 106q107 0 177 -45
q32 52 115 52q37 0 82 -5l-24 -112q-12 4 -14 4q-42 0 -51 -42l-21 -97h-141q-16 117 -149 117z" />
    <glyph glyph-name="uni0194" unicode="&#x194;" horiz-adv-x="667" 
d="M372 136q-28 -23 -28 -41q0 -15 16 -15q11 0 18 7.5t7 21.5q0 10 -13 27zM476 270q37 -89 37 -160q0 -37 -18 -64t-46.5 -40.5t-56 -19.5t-53.5 -6q-62 0 -96.5 22t-34.5 60q0 33 33 89t85 119l-144 459h167l81 -322l207 322h168z" />
    <glyph glyph-name="uni0195" unicode="&#x195;" horiz-adv-x="940" 
d="M471 330q5 22 5 36q0 64 -69 64q-47 0 -84 -30t-47 -76l-69 -324h-140l155 729h140l-57 -267q77 87 177 87q59 0 101 -30t42 -100q0 -28 -7 -57l-26 -124q-9 -39 -9 -67q0 -34 17.5 -50t60.5 -16q55 0 82 33.5t42 105.5l63 296h138l-70 -328q-48 -228 -279 -228
q-110 0 -155.5 37.5t-45.5 107.5q0 33 10 83z" />
    <glyph glyph-name="uni0196" unicode="&#x196;" horiz-adv-x="278" 
d="M195 97q-3 -13 -3 -16.5t3 -4.5t16 -1q22 0 34 3l33 9l-26 -124l-21 -4q-43 -7 -74 -7q-51 0 -78.5 21.5t-27.5 60.5q0 12 3 26l147 694h133z" />
    <glyph glyph-name="uni0197" unicode="&#x197;" horiz-adv-x="395" 
d="M177 293h-122l25 125h123l66 311h150l-66 -311h120l-26 -125h-120l-62 -293h-150z" />
    <glyph glyph-name="uni0198" unicode="&#x198;" horiz-adv-x="778" 
d="M728 568q0 12 -10 26.5t-31 14.5q-20 0 -44 -15l-209 -179l234 -415h-179l-171 322l-91 -78l-52 -244h-150l155 729h150l-68 -320l277 248q101 88 176 88q56 0 98.5 -43t42.5 -87q0 -112 -114 -210l-71 82q57 50 57 81z" />
    <glyph glyph-name="uni0199" unicode="&#x199;" horiz-adv-x="556" 
d="M269 330l221 210h159l-227 -204l126 -336h-164l-79 238l-69 -61l-37 -177h-140l128 605q14 66 49 95t100 29q37 0 82 -5l-23 -112q-13 4 -25 4q-23 0 -34 -9.5t-15 -32.5z" />
    <glyph glyph-name="uni019a" unicode="&#x19a;" horiz-adv-x="333" 
d="M166 314h-124l25 117h124l68 323h134l-68 -323h125l-25 -117h-125l-72 -339h-134z" />
    <glyph glyph-name="lambdastroke" unicode="&#x19b;" horiz-adv-x="620" 
d="M354 334l-193 -336h-144l277 464l-165 -91l19 89l172 95q-6 34 -18 44.5t-34 10.5q-16 0 -37.5 -4.5t-44.5 -6.5l41 122q54 18 80 18q59 0 88.5 -31.5t42.5 -88.5l157 86l-19 -88l-125 -69l3 -16l63 -389q4 -19 6 -24.5t6 -5.5q13 0 52 21l10 -112q-75 -35 -115 -35
q-43 0 -58.5 22t-22.5 67q-39 247 -41 258z" />
    <glyph glyph-name="uni019C" unicode="&#x19c;" horiz-adv-x="889" 
d="M817 0h-149l15 67q-44 -41 -81 -58.5t-83 -17.5q-50 0 -84.5 21t-45.5 59q-77 -80 -175 -80q-70 0 -111 33.5t-41 92.5q0 16 5 41l121 571h150l-114 -539q-2 -12 -2 -18q0 -24 16.5 -38t46.5 -14q90 0 114 106l106 503h150l-114 -539q-2 -7 -2 -20q0 -50 58 -50
q45 0 76.5 28t42.5 78l106 503h150z" />
    <glyph glyph-name="uni019D" unicode="&#x19d;" horiz-adv-x="722" 
d="M211 729h152l183 -496l106 496h150l-155 -729h-150l-186 502l-126 -596q-14 -66 -49.5 -95t-100.5 -29q-35 0 -82 5l24 112q13 -4 15 -4q23 0 34.5 9.5t15.5 32.5z" />
    <glyph glyph-name="uni019E" unicode="&#x19e;" horiz-adv-x="611" 
d="M141 540h140l-17 -78q77 87 181 87q72 0 109.5 -34t37.5 -98q0 -25 -6 -55l-120 -563h-140l114 534q4 24 4 32q0 65 -74 65q-51 0 -88 -29t-47 -77l-69 -324h-140z" />
    <glyph glyph-name="uni019F" unicode="&#x19f;" horiz-adv-x="778" 
d="M471 741q80 0 138 -26t87.5 -69.5t42.5 -90t13 -98.5q0 -85 -31 -169.5t-86 -154t-140.5 -113t-184.5 -43.5q-80 0 -138 26.5t-87.5 71t-42.5 90.5t-13 97q0 60 17.5 124.5t54 128t87.5 114t124.5 81.5t158.5 31zM181 293v-13q0 -82 41 -128.5t115 -46.5q76 0 139.5 51
t96.5 137h-392zM600 418q0 4 0.5 11t0.5 10q0 82 -40.5 128t-115.5 46q-78 0 -142 -52.5t-96 -142.5h393z" />
    <glyph glyph-name="Ohorn" unicode="&#x1a0;" horiz-adv-x="788" 
d="M519 613q-60 0 -108 -27.5t-76.5 -67t-47 -87.5t-25.5 -85.5t-7 -65.5q0 -82 41 -128.5t115 -46.5q113 0 188 101.5t75 232.5q0 82 -40.5 128t-114.5 46zM545 741q150 0 225 -96q34 42 38 118h142q-3 -35 -21 -66t-43.5 -51t-46 -31.5t-40.5 -18.5q27 -59 27 -136
q0 -127 -57 -237.5t-160 -178t-226 -67.5q-132 0 -206.5 76.5t-74.5 203.5q0 66 19 134t57 131t90 111.5t124 78t153 29.5z" />
    <glyph glyph-name="ohorn" unicode="&#x1a1;" horiz-adv-x="653" 
d="M395 436q-73 0 -121.5 -72t-48.5 -157q0 -54 25.5 -85.5t70.5 -31.5q68 0 119 68.5t51 161.5q0 55 -25 85.5t-71 30.5zM777 585q-3 -33 -19 -62t-36.5 -47.5t-42.5 -32t-36.5 -19.5t-17.5 -6q9 -33 9 -72q0 -66 -21.5 -130t-61.5 -118t-106.5 -87.5t-147.5 -33.5
q-103 0 -159 53.5t-56 149.5q0 63 20.5 126t60 118.5t106 90t149.5 34.5q128 0 182 -78q31 41 35 114h142z" />
    <glyph glyph-name="uni01A2" unicode="&#x1a2;" horiz-adv-x="973" 
d="M494 613q-65 0 -124 -45.5t-95.5 -125.5t-36.5 -173q0 -77 36.5 -120.5t102.5 -43.5t125 46t95.5 125.5t36.5 172.5q0 77 -36.5 120.5t-103.5 43.5zM523 741q127 0 191 -77q22 22 40.5 36.5t56 29t80.5 14.5q75 0 116 -35.5t41 -104.5q0 -30 -8 -65l-171 -739h-139
l170 739q7 28 7 45q0 40 -41 40q-55 0 -76 -95l-15 -66q0 -131 -59.5 -243.5t-158 -177.5t-209.5 -65q-120 0 -186.5 73t-66.5 194q0 103 36 196.5t95.5 158.5t137 103.5t159.5 38.5z" />
    <glyph glyph-name="uni01a3" unicode="&#x1a3;" horiz-adv-x="739" 
d="M747 319l-124 -537h-119l123 534q4 18 4 36q0 23 -7 37.5t-21 14.5q-22 0 -48 -26q3 -21 3 -44q0 -76 -25 -143.5t-66.5 -114t-97.5 -73t-117 -26.5q-87 0 -134 47.5t-47 134.5q0 78 25 146.5t67 115.5t97.5 74t116.5 27q114 0 157 -81q31 46 66 77.5t60 31.5
q50 0 74.5 -36t24.5 -97q0 -44 -12 -98zM352 409q-58 0 -105.5 -65.5t-47.5 -152.5q0 -47 20.5 -74t58.5 -27q59 0 106 67t47 153q0 47 -20.5 73t-58.5 26z" />
    <glyph glyph-name="uni01A4" unicode="&#x1a4;" horiz-adv-x="756" 
d="M431 385h130q63 0 101 39t38 109q0 71 -89 71h-130zM223 316q-69 0 -100.5 35.5t-31.5 95.5q0 131 74.5 206.5t190.5 75.5h314q86 0 130.5 -39t44.5 -113q0 -67 -22.5 -127t-60 -101t-86 -65t-100.5 -24h-174l-60 -260h-140l134 579h-15q-105 0 -105 -85
q0 -21 10.5 -34.5t26.5 -13.5z" />
    <glyph glyph-name="uni01A5" unicode="&#x1a5;" horiz-adv-x="611" 
d="M371 432q-44 0 -77.5 -27.5t-50 -67.5t-24.5 -74.5t-8 -57.5q0 -52 23.5 -82t64.5 -30q36 0 65.5 19t46.5 46.5t29 60.5t16 58t4 43q0 52 -23.5 82t-65.5 30zM592 258q-25 -121 -107 -201.5t-178 -80.5q-100 0 -132 88l-60 -282h-140l161 758h140l-17 -80q70 89 169 89
q55 0 100 -29q36 40 112 40q35 0 82 -5l-24 -112q-13 4 -24 4q-23 0 -34.5 -9.5t-15.5 -32.5z" />
    <glyph glyph-name="uni01a6" unicode="&#x1a6;" horiz-adv-x="647" 
d="M273 297h122q95 0 95 83q0 50 -67 50h-122zM250 187l-40 -187h-150l155 729h150l-40 -189h151q44 0 76.5 -11t49.5 -30.5t24.5 -40.5t7.5 -46q0 -54 -26.5 -101t-60.5 -73q50 -24 50 -95q0 -29 -8 -66l-36 -169q-3 -17 -3 -29.5t4 -21.5t7.5 -12t10.5 -8l-5 -27h-161
q-9 26 -9 47t8 58l37 174q2 9 2 17q0 35 -28 58t-66 23h-100z" />
    <glyph glyph-name="uni01A7" unicode="&#x1a7;" horiz-adv-x="667" 
d="M481 321l-106 -20q-2 0 -6 -1q-21 -4 -34.5 -7t-39.5 -12t-42 -21t-29 -33t-13 -47q0 -35 34.5 -55t97.5 -20q46 0 81.5 11t54.5 24.5t32 32.5t16 27.5t4 16.5l1 1h146q-30 -107 -123.5 -174t-244.5 -67q-68 0 -117.5 14.5t-76 40.5t-38.5 55.5t-12 65.5q0 22 3.5 45
t18 59t39 64.5t72.5 54.5t112 38l118 22q33 6 53.5 11t43 14t35 19.5t21 27t8.5 38.5q0 32 -29 49.5t-82 17.5q-144 0 -175 -103v-3h-140q13 64 46.5 110.5t81.5 73t101.5 38.5t113.5 12q111 0 170.5 -46.5t59.5 -123.5q0 -42 -12 -78t-30 -60t-44.5 -44t-48 -31t-49 -19.5
t-40 -11.5t-27.5 -5q-3 -1 -5 -1z" />
    <glyph glyph-name="uni01A8" unicode="&#x1a8;" horiz-adv-x="556" 
d="M395 221l-90 -25q-2 -1 -6 -2q-23 -6 -35 -10t-28.5 -12t-24 -18t-7.5 -24q0 -18 22.5 -29.5t61.5 -11.5q102 0 135 68h137q-17 -75 -95.5 -127.5t-198.5 -52.5q-99 0 -152.5 35t-53.5 98q0 19 3.5 37.5t15.5 43t31.5 45.5t56.5 41.5t85 33.5l108 28q22 6 34 10t26.5 11
t21 17t6.5 23q0 17 -18.5 27t-50.5 10q-31 0 -54.5 -7.5t-34.5 -17t-17.5 -21.5t-7.5 -17t-1 -8h-135q17 87 94 135t180 48q90 0 139.5 -36.5t49.5 -96.5q0 -42 -16.5 -75.5t-46.5 -56t-62 -37t-72 -26.5z" />
    <glyph glyph-name="uni01A9" unicode="&#x1a9;" horiz-adv-x="688" 
d="M615 -25h-616l30 123l301 288l-135 239l29 118h562l-33 -134h-368l126 -223l-292 -277h429z" />
    <glyph glyph-name="uni01aa" unicode="&#x1aa;" horiz-adv-x="441" 
d="M317 628q-16 0 -30.5 -12.5t-14.5 -29.5q0 -12 8.5 -20.5t21.5 -8.5q17 0 31.5 13t14.5 30q0 13 -8.5 20.5t-22.5 7.5zM279 445q-53 0 -86.5 33.5t-33.5 84.5q0 67 56 122t126 55q57 0 89 -29.5t32 -81.5q0 -10 -4 -38l-136 -637q-3 -21 -3 -24q0 -10 7.5 -15t30.5 -5
q3 0 19 1l26 2l-25 -118l-21 -5q-20 -3 -33 -3q-70 0 -107 26t-37 76q0 15 3 32l112 525q-5 -1 -15 -1z" />
    <glyph glyph-name="uni01AB" unicode="&#x1ab;" horiz-adv-x="333" 
d="M405 529l-20 -93h-78l-62 -294q-5 -22 -5 -32q0 -15 8.5 -21t29.5 -6q10 0 33 3l-38 -180q-14 -66 -49.5 -95t-100.5 -29q-35 0 -82 5l24 112q12 -4 24 -4q23 0 34.5 9.5t15.5 32.5l10 48q-57 18 -57 80q0 16 5 39l70 332h-69l20 93h69l31 145h140l-31 -145h78z" />
    <glyph glyph-name="uni01AC" unicode="&#x1ac;" horiz-adv-x="605" 
d="M282 604q-72 0 -72 -80q0 -33 55 -33l-29 -125q-69 0 -107.5 32.5t-38.5 94.5q0 100 59.5 168t160.5 68h437l-28 -125h-198l-140 -604h-139l139 604h-99z" />
    <glyph glyph-name="uni01AD" unicode="&#x1ad;" horiz-adv-x="333" 
d="M408 529l-19 -93h-78l-63 -294q-4 -17 -4 -32t8.5 -21t29.5 -6q11 0 32 3l-21 -98q-36 -11 -83 -11q-114 0 -114 88q0 20 4 39l71 332h-69l19 93h69l17 76q13 66 48.5 95t100.5 29q35 0 82 -5l-24 -112q-12 4 -24 4q-22 0 -33.5 -9.5t-16.5 -32.5l-10 -45h78z" />
    <glyph glyph-name="uni01AE" unicode="&#x1ae;" horiz-adv-x="611" 
d="M161 -94l148 698h-221l27 125h584l-27 -125h-213l-142 -667q-1 -6 -1 -15q0 -27 26 -27q7 0 23 4l-24 -112q-47 -5 -84 -5q-53 0 -77.5 18.5t-24.5 60.5q0 19 6 45z" />
    <glyph glyph-name="Uhorn" unicode="&#x1af;" horiz-adv-x="769" 
d="M360 -23q-44 0 -83.5 9t-76.5 29.5t-59 59.5t-22 93q0 33 7 67l105 494h150l-105 -494q-5 -25 -5 -41q0 -89 117 -89q138 0 166 130l105 494h24q126 12 134 166h142q-3 -35 -21 -65.5t-43.5 -50.5t-46 -32t-39.5 -19l-105 -493q-13 -59 -41 -105.5t-63 -74.5t-78.5 -46
t-82.5 -25t-79 -7z" />
    <glyph glyph-name="uhorn" unicode="&#x1b0;" horiz-adv-x="664" 
d="M541 0h-140l14 64q-77 -87 -181 -87q-71 0 -109 34t-38 98q0 25 6 55l80 376h140l-74 -347q-4 -24 -4 -33q0 -64 74 -64q51 0 88 29t47 77l72 338q44 0 74.5 15t45 42t20.5 52.5t8 57.5h142q-3 -35 -21 -65.5t-43.5 -50.5t-46 -32t-39.5 -19z" />
    <glyph glyph-name="uni01B1" unicode="&#x1b1;" horiz-adv-x="780" 
d="M52 239q0 113 53.5 213t146.5 161h-118l31 126h324l-30 -121q-28 -10 -56.5 -25.5t-67.5 -46t-68 -67t-50 -92.5t-21 -119q0 -23 4.5 -46t16 -47t29.5 -41.5t48.5 -29t68.5 -11.5q60 0 114.5 31.5t90.5 81t57 108.5t21 115q0 132 -115 188l30 122h314l-31 -126h-122
q63 -70 63 -170q0 -59 -20.5 -124.5t-60.5 -128t-93.5 -112.5t-126 -80.5t-150.5 -30.5q-80 0 -138 24.5t-88 66.5t-43 86.5t-13 94.5z" />
    <glyph glyph-name="uni01b2" unicode="&#x1b2;" horiz-adv-x="722" 
d="M112 243l103 488h143l-112 -528q-2 -8 -2 -15q0 -32 26.5 -50t59.5 -18q30 0 59 4.5t62.5 19t60.5 37t50 62t34 91.5v2q13 58 13 106q0 59 -16.5 110.5t-56.5 139.5l-17 39h167l5 -10q65 -121 65 -245q0 -61 -14 -130q-40 -184 -145.5 -271t-265.5 -87q-228 0 -228 177
q0 36 9 78z" />
    <glyph glyph-name="uni01B3" unicode="&#x1b3;" horiz-adv-x="762" 
d="M711 557q0 21 -15.5 30t-28.5 9q-37 0 -76 -56l-192 -270l-57 -270h-150l57 270l-145 459h167l81 -322l125 194q87 128 202 128q75 0 127 -45t52 -117q0 -65 -61 -152l-121 65q35 52 35 77z" />
    <glyph glyph-name="yhook" unicode="&#x1b4;" horiz-adv-x="650" 
d="M700 730q31 0 99 -3l-22 -106q-24 4 -43 4q-17 0 -34 -16t-47 -69l-359 -640q-34 -61 -76 -90t-130 -29q-30 0 -51 4l23 109q8 -2 35 -2q41 0 73.5 23t32.5 71l-78 554h155l36 -393l194 391q55 110 93.5 151t98.5 41z" />
    <glyph glyph-name="uni01b5" unicode="&#x1b5;" horiz-adv-x="611" 
d="M733 729l-27 -125l-202 -205h107l-14 -67h-159l-205 -207h372l-27 -125h-548l27 125l205 207h-103l14 67h155l203 205h-373l27 125h548z" />
    <glyph glyph-name="uni01b6" unicode="&#x1b6;" horiz-adv-x="500" 
d="M574 540l-24 -113l-120 -114h51l-15 -67h-108l-140 -133h274l-24 -113h-447l24 113l141 133h-53l15 67h110l121 114h-249l24 113h420z" />
    <glyph glyph-name="Yogh" unicode="&#x1b7;" horiz-adv-x="556" 
d="M257 97q36 0 63.5 16t40.5 39.5t19.5 43.5t6.5 34q0 63 -57 80q-27 7 -81 7l20 94l149 193h-255l27 125h401l-27 -125l-159 -211q16 -5 25.5 -8t30.5 -15t33.5 -27t23 -41.5t10.5 -59.5q0 -21 -4 -38q-22 -104 -102.5 -165.5t-193.5 -61.5q-93 0 -144.5 46t-51.5 127
q0 26 6 58h136q-2 -11 -2 -30q0 -81 85 -81z" />
    <glyph glyph-name="uni01B8" unicode="&#x1b8;" horiz-adv-x="556" 
d="M31 149q0 81 51 150t156 94l-71 211l27 125h401l-27 -125h-255l67 -193l-20 -94q-54 0 -83 -7q-47 -12 -74.5 -50t-27.5 -81q0 -37 23 -59.5t62 -22.5q100 0 129 111h136q-23 -106 -101 -168.5t-187 -62.5q-97 0 -151.5 46t-54.5 126z" />
    <glyph glyph-name="uni01b9" unicode="&#x1b9;" horiz-adv-x="645" 
d="M270 293l-102 132l21 99h491l-26 -123h-296l111 -112l-23 -109h-86q-78 0 -116.5 -26.5t-48.5 -76.5q-2 -10 -2 -19q0 -36 33 -54.5t93 -18.5q69 0 109.5 23t57.5 81l12 47h142l-13 -50q-34 -117 -115 -173t-217 -56q-120 0 -184.5 46.5t-64.5 127.5q0 22 6 47
q18 86 73.5 140.5t144.5 74.5z" />
    <glyph glyph-name="uni01ba" unicode="&#x1ba;" horiz-adv-x="569" 
d="M260 -95q-16 0 -56.5 10.5t-50.5 10.5q-9 0 -9 -4q0 -18 23 -35.5t54 -17.5q82 0 184 36l26 10l14 -117l-24 -8q-41 -14 -59.5 -20t-68.5 -15t-98 -9q-90 0 -136 43t-46 109q0 27 6.5 50.5t22 46t46 36t72.5 13.5q31 0 75.5 -8t50.5 -8q15 0 36 4.5t45 14t40 27.5t16 41
q0 29 -31.5 47t-83.5 18h-73l23 109l144 137h-263l26 123h441l-23 -108l-153 -148q127 -30 127 -140q0 -101 -84 -174.5t-213 -73.5z" />
    <glyph glyph-name="uni01bb" unicode="&#x1bb;" horiz-adv-x="579" 
d="M454 740q96 0 152 -49.5t56 -131.5q0 -25 -5 -52q-25 -116 -145 -197l55 -24l-28 -131l-174 77l-33 -15q-38 -18 -49 -24t-31 -17.5t-29 -21t-17 -22.5h366l-28 -131h-523l7 26q27 104 69.5 157.5t131.5 108.5l-40 17l28 131l159 -70l32 16q93 47 108 118q3 12 3 24
q0 37 -26 60.5t-69 23.5q-35 0 -61.5 -12.5t-43 -35.5t-26 -45t-18.5 -53l-6 -23h-137l6 26q10 41 24.5 76.5t40.5 72.5t59 62.5t82.5 42t109.5 16.5z" />
    <glyph glyph-name="uni01be" unicode="&#x1be;" horiz-adv-x="546" 
d="M43 250h136q-6 -27 -6 -49q0 -49 24 -72.5t61 -23.5q54 0 93 44.5t39 96.5q0 24 -11.5 43t-28.5 34t-34 32t-28.5 45t-11.5 64q0 29 7 64l4 18h-88l20 93h88l19 90h124l-19 -90h87l-20 -93h-87l-4 -18q-6 -32 -6 -47q0 -20 13.5 -38t33 -34t39.5 -34t33.5 -45.5
t13.5 -60.5q0 -49 -20.5 -98t-58 -90.5t-96.5 -67.5t-129 -26q-28 0 -53 4t-52.5 15.5t-47 30.5t-32 52t-12.5 76q0 39 10 85z" />
    <glyph glyph-name="wynn" unicode="&#x1bf;" horiz-adv-x="608" 
d="M279 350l-74 -318q39 23 79.5 50.5t86.5 66.5t81.5 77.5t59 82.5t23.5 82q0 42 -61 42q-93 0 -195 -83zM180 -77l-32 -141h-140l175 758h140l-19 -80q58 46 108 69t122 23q63 0 101.5 -37t38.5 -102q0 -39 -11.5 -77t-28 -70t-46.5 -65.5t-55 -58t-64.5 -53t-65 -45.5
t-68 -41t-60.5 -33t-54.5 -27.5t-40.5 -19.5z" />
    <glyph glyph-name="uni01c0" unicode="&#x1c0;" horiz-adv-x="258" 
d="M348 800l-188 -823h-80l188 823h80z" />
    <glyph glyph-name="uni01c1" unicode="&#x1c1;" horiz-adv-x="443" 
d="M528 800l-188 -823h-80l188 823h80zM348 800l-188 -823h-80l188 823h80z" />
    <glyph glyph-name="uni01c2" unicode="&#x1c2;" horiz-adv-x="584" 
d="M411 801h70l-59 -268h214l-17 -80h-214l-20 -92h214l-17 -80h-214l-65 -306h-70l65 306h-210l17 80h210l20 92h-210l17 80h210z" />
    <glyph glyph-name="uni01c3" unicode="&#x1c3;" horiz-adv-x="278" 
d="M417 726l-45 -210l-107 -309h-67l24 309l45 210h150zM293 146l-31 -146h-150l31 146h150z" />
    <glyph glyph-name="uni01C4" unicode="&#x1c4;" horiz-adv-x="1333" 
d="M77 0l155 729h285q136 0 197.5 -59.5t61.5 -190.5q0 -29 -4 -63.5t-15.5 -82t-30 -92t-51 -89t-74.5 -78t-103.5 -54t-135.5 -20.5h-285zM254 125h134q60 0 106 29t70 69t39.5 92t19.5 88t4 66q0 135 -137 135h-135zM1455 729l-27 -125l-474 -479h373l-27 -125h-548
l27 125l474 479h-373l27 125h548zM1224 784h-108l-71 147h78l61 -97l103 97h76z" />
    <glyph glyph-name="uni01C5" unicode="&#x1c5;" horiz-adv-x="1222" 
d="M77 0l155 729h285q136 0 197.5 -59.5t61.5 -190.5q0 -29 -4 -63.5t-15.5 -82t-30 -92t-51 -89t-74.5 -78t-103.5 -54t-135.5 -20.5h-285zM254 125h134q60 0 106 29t70 69t39.5 92t19.5 88t4 66q0 135 -137 135h-135zM1155 607h-108l-71 147h78l61 -97l103 97h76z
M1297 540l-24 -113l-332 -314h274l-24 -113h-448l24 113l334 314h-249l24 113h421z" />
    <glyph glyph-name="uni01C6" unicode="&#x1c6;" horiz-adv-x="1111" 
d="M405 0l12 55q-68 -78 -166 -78q-78 0 -125 57t-47 151q0 64 21.5 128.5t58.5 117t93.5 85.5t119.5 33q99 0 133 -79l55 259h140l-155 -729h-140zM380 437q-62 0 -110 -70t-48 -161q0 -54 23.5 -85.5t63.5 -31.5q64 0 111.5 70t47.5 164q0 52 -23.5 83t-64.5 31zM1044 607
h-108l-71 147h78l61 -97l103 97h76zM1186 540l-24 -113l-332 -314h274l-24 -113h-448l24 113l334 314h-249l24 113h421z" />
    <glyph glyph-name="uni01C7" unicode="&#x1c7;" horiz-adv-x="1167" 
d="M385 729l-128 -604h349l-27 -125h-499l155 729h150zM1102 729h150l-115 -539q-45 -213 -279 -213q-88 0 -138 41.5t-50 114.5q0 34 7 65l15 72h150l-16 -77q-4 -17 -4 -34q0 -24 18.5 -39t47.5 -15q81 0 99 85z" />
    <glyph glyph-name="uni01C8" unicode="&#x1c8;" horiz-adv-x="889" 
d="M385 729l-128 -604h349l-27 -125h-499l155 729h150zM936 540l-135 -634q-14 -65 -58.5 -94.5t-129.5 -29.5q-28 0 -45 5l24 111q5 -4 25 -4q23 0 34.5 10t16.5 34l128 602h140zM976 729l-27 -125h-140l27 125h140z" />
    <glyph glyph-name="uni01C9" unicode="&#x1c9;" horiz-adv-x="556" 
d="M362 729l-155 -729h-140l155 729h140zM603 540l-135 -634q-14 -65 -58.5 -94.5t-129.5 -29.5q-28 0 -45 5l24 111q5 -4 25 -4q23 0 34.5 10t16.5 34l128 602h140zM643 729l-27 -125h-140l27 125h140z" />
    <glyph glyph-name="uni01CA" unicode="&#x1ca;" horiz-adv-x="1278" 
d="M816 729l-155 -729h-148l-192 523l-111 -523h-142l155 729h150l192 -515l109 515h142zM1213 729h150l-115 -539q-45 -213 -279 -213q-88 0 -138 41.5t-50 114.5q0 34 7 65l15 72h150l-16 -77q-4 -17 -4 -34q0 -24 18.5 -39t47.5 -15q81 0 99 85z" />
    <glyph glyph-name="uni01CB" unicode="&#x1cb;" horiz-adv-x="1000" 
d="M816 729l-155 -729h-148l-192 523l-111 -523h-142l155 729h150l192 -515l109 515h142zM1047 540l-135 -634q-14 -65 -58.5 -94.5t-129.5 -29.5q-28 0 -45 5l24 111q5 -4 25 -4q23 0 34.5 10t16.5 34l128 602h140zM1087 729l-27 -125h-140l27 125h140z" />
    <glyph glyph-name="uni01CC" unicode="&#x1cc;" horiz-adv-x="889" 
d="M178 540h140l-18 -82q40 48 83 69.5t99 21.5q67 0 107 -36t40 -96q0 -27 -6 -55l-77 -362h-140l67 313q6 33 6 49q0 75 -74 75q-50 0 -86.5 -35.5t-50.5 -97.5l-65 -304h-140zM936 540l-135 -634q-14 -65 -58.5 -94.5t-129.5 -29.5q-28 0 -45 5l24 111q5 -4 25 -4
q23 0 34.5 10t16.5 34l128 602h140zM976 729l-27 -125h-140l27 125h140z" />
    <glyph glyph-name="uni01CD" unicode="&#x1cd;" horiz-adv-x="722" 
d="M583 785h-108l-71 147h78l61 -97l103 97h76zM532 147h-272l-81 -147h-153l407 729h173l97 -729h-153zM518 272l-35 283l-154 -283h189z" />
    <glyph glyph-name="uni01CE" unicode="&#x1ce;" horiz-adv-x="556" 
d="M450 609h-108l-71 147h78l61 -97l103 97h76zM386 549q57 0 97.5 -11.5t59.5 -31t27 -38.5t8 -40q0 -18 -6 -45l-63 -300q-3 -14 -3 -21q0 -21 21 -45l-4 -17h-153q-7 15 -7 27t3 27q-86 -77 -167 -77q-67 0 -108 36t-41 95q0 15 4 34.5t17.5 46.5t34.5 50t59 43.5
t87 28.5l58 9q4 1 17 2.5t19 2.5t18.5 3.5t18.5 5t16 6t15.5 8.5t11 12t8 15.5t2.5 18.5q0 43 -73 43q-48 0 -73.5 -17t-38.5 -58h-131q21 98 84.5 142.5t181.5 44.5zM400 217l8 38q-12 -7 -47 -14l-66 -11q-49 -8 -75.5 -32t-26.5 -59q0 -50 73 -50q51 0 85.5 33t48.5 95z
" />
    <glyph glyph-name="uni01CF" unicode="&#x1cf;" horiz-adv-x="278" 
d="M353 782h-108l-71 147h78l61 -97l103 97h76zM368 729l-155 -729h-150l155 729h150z" />
    <glyph glyph-name="icaron" unicode="&#x1d0;" horiz-adv-x="300" 
d="M333 540l-115 -540h-140l115 540h140zM333 609h-108l-71 147h78l61 -97l103 97h76z" />
    <glyph glyph-name="uni01D1" unicode="&#x1d1;" horiz-adv-x="778" 
d="M597 784h-108l-71 147h78l61 -97l103 97h76zM538 741q137 0 213.5 -75.5t76.5 -210.5q0 -62 -16.5 -126.5t-52.5 -128t-85.5 -113t-122 -80t-156.5 -30.5q-134 0 -211.5 76.5t-77.5 207.5q0 59 16.5 123.5t52.5 128.5t85.5 114.5t122 82t155.5 31.5zM419 105
q52 0 95 19.5t70 52t47 69.5t29.5 76t14 67t4.5 48q0 83 -42.5 129.5t-117.5 46.5q-52 0 -95.5 -19.5t-71 -51.5t-47.5 -68.5t-30.5 -75.5t-15 -67.5t-4.5 -48.5q0 -82 44 -129.5t120 -47.5z" />
    <glyph glyph-name="uni01D2" unicode="&#x1d2;" horiz-adv-x="611" 
d="M477 609h-108l-71 147h78l61 -97l103 97h76zM82 177q0 155 91.5 263.5t239.5 108.5q103 0 162 -53.5t59 -146.5q0 -158 -93 -265t-242 -107q-99 0 -158 54.5t-59 145.5zM324 89q47 0 82 27.5t52 68t25 75.5t8 60q0 53 -27 85t-73 32q-68 0 -117 -68.5t-49 -163.5
q0 -53 27 -84.5t72 -31.5z" />
    <glyph glyph-name="uni01D3" unicode="&#x1d3;" horiz-adv-x="722" 
d="M579 783h-108l-71 147h78l61 -97l103 97h76zM659 729h150l-105 -494q-29 -133 -122.5 -195.5t-215.5 -62.5q-113 0 -180 51.5t-67 138.5q0 36 11 88l101 474h150l-105 -494q-5 -27 -5 -45q0 -40 32.5 -62.5t90.5 -22.5q68 0 107 31.5t53 98.5z" />
    <glyph glyph-name="uni01D4" unicode="&#x1d4;" horiz-adv-x="611" 
d="M481 609h-108l-71 147h78l61 -97l103 97h76zM541 0h-140l15 68q-40 -48 -83 -69.5t-99 -21.5q-66 0 -106 36t-40 96q0 27 6 55l80 376h140l-70 -327q-6 -35 -6 -49q0 -75 76 -75q49 0 85 36t49 97l68 318h140z" />
    <glyph glyph-name="uni01d5" unicode="&#x1d5;" horiz-adv-x="722" 
d="M711 883l-26 -120h-110l26 120h110zM515 883l-26 -120h-110l26 120h110zM659 729h150l-105 -494q-29 -133 -122.5 -195.5t-215.5 -62.5q-113 0 -180 51.5t-67 138.5q0 36 11 88l101 474h150l-105 -494q-5 -27 -5 -45q0 -40 32.5 -62.5t90.5 -22.5q68 0 107 31.5t53 98.5z
M731 990l-17 -80h-300l17 80h300z" />
    <glyph glyph-name="uni01d6" unicode="&#x1d6;" horiz-adv-x="611" 
d="M611 739l-26 -120h-110l26 120h110zM415 739l-26 -120h-110l26 120h110zM541 0h-140l15 68q-40 -48 -83 -69.5t-99 -21.5q-66 0 -106 36t-40 96q0 27 6 55l80 376h140l-70 -327q-6 -35 -6 -49q0 -75 76 -75q49 0 85 36t49 97l68 318h140zM639 865l-17 -80h-300l17 80h300
z" />
    <glyph glyph-name="uni01d7" unicode="&#x1d7;" horiz-adv-x="722" 
d="M659 729h150l-105 -494q-29 -133 -122.5 -195.5t-215.5 -62.5q-113 0 -180 51.5t-67 138.5q0 36 11 88l101 474h150l-105 -494q-5 -27 -5 -45q0 -40 32.5 -62.5t90.5 -22.5q68 0 107 31.5t53 98.5zM714 896l-26 -120h-110l26 120h110zM518 896l-26 -120h-110l26 120h110z
M726 1073l-158 -150h-70l102 150h126z" />
    <glyph glyph-name="uni01d8" unicode="&#x1d8;" horiz-adv-x="611" 
d="M611 739l-26 -120h-110l26 120h110zM415 739l-26 -120h-110l26 120h110zM541 0h-140l15 68q-40 -48 -83 -69.5t-99 -21.5q-66 0 -106 36t-40 96q0 27 6 55l80 376h140l-70 -327q-6 -35 -6 -49q0 -75 76 -75q49 0 85 36t49 97l68 318h140zM644 953l-158 -150h-70l102 150
h126z" />
    <glyph glyph-name="uni01d9" unicode="&#x1d9;" horiz-adv-x="722" 
d="M659 729h150l-105 -494q-29 -133 -122.5 -195.5t-215.5 -62.5q-113 0 -180 51.5t-67 138.5q0 36 11 88l101 474h150l-105 -494q-5 -27 -5 -45q0 -40 32.5 -62.5t90.5 -22.5q68 0 107 31.5t53 98.5zM714 892l-26 -120h-110l26 120h110zM518 892l-26 -120h-110l26 120h110z
M609 916h-108l-71 147h78l61 -97l103 97h76z" />
    <glyph glyph-name="uni01da" unicode="&#x1da;" horiz-adv-x="611" 
d="M611 739l-26 -120h-110l26 120h110zM415 739l-26 -120h-110l26 120h110zM541 0h-140l15 68q-40 -48 -83 -69.5t-99 -21.5q-66 0 -106 36t-40 96q0 27 6 55l80 376h140l-70 -327q-6 -35 -6 -49q0 -75 76 -75q49 0 85 36t49 97l68 318h140zM509 801h-108l-71 147h78l61 -97
l103 97h76z" />
    <glyph glyph-name="uni01db" unicode="&#x1db;" horiz-adv-x="722" 
d="M659 729h150l-105 -494q-29 -133 -122.5 -195.5t-215.5 -62.5q-113 0 -180 51.5t-67 138.5q0 36 11 88l101 474h150l-105 -494q-5 -27 -5 -45q0 -40 32.5 -62.5t90.5 -22.5q68 0 107 31.5t53 98.5zM714 892l-26 -120h-110l26 120h110zM518 892l-26 -120h-110l26 120h110z
M446 1063h119l45 -150h-63z" />
    <glyph glyph-name="uni01dc" unicode="&#x1dc;" horiz-adv-x="611" 
d="M611 739l-26 -120h-110l26 120h110zM415 739l-26 -120h-110l26 120h110zM541 0h-140l15 68q-40 -48 -83 -69.5t-99 -21.5q-66 0 -106 36t-40 96q0 27 6 55l80 376h140l-70 -327q-6 -35 -6 -49q0 -75 76 -75q49 0 85 36t49 97l68 318h140zM353 944h119l45 -150h-63z" />
    <glyph glyph-name="uni01DD" unicode="&#x1dd;" horiz-adv-x="556" 
d="M268 -23q-95 0 -153.5 55t-58.5 143q0 57 18 125h363q3 28 3 45q0 41 -26 66.5t-69 25.5q-36 0 -66.5 -17t-45.5 -46h-138q41 83 113.5 129t163.5 46q94 0 152.5 -57.5t58.5 -150.5q0 -24 -5 -55t-17 -74.5t-35.5 -83t-56.5 -74.5t-85 -56t-116 -21zM285 89
q101 0 134 118h-220q0 -28 2.5 -45.5t10.5 -36t26 -27.5t47 -9z" />
    <glyph glyph-name="uni01de" unicode="&#x1de;" horiz-adv-x="722" 
d="M532 147h-272l-81 -147h-153l407 729h173l97 -729h-153zM518 272l-35 283l-154 -283h189zM714 894l-26 -120h-110l26 120h110zM518 894l-26 -120h-110l26 120h110zM734 990l-17 -80h-300l17 80h300z" />
    <glyph glyph-name="uni01df" unicode="&#x1df;" horiz-adv-x="556" 
d="M588 739l-26 -120h-110l26 120h110zM392 739l-26 -120h-110l26 120h110zM386 549q57 0 97.5 -11.5t59.5 -31t27 -38.5t8 -40q0 -18 -6 -45l-63 -300q-3 -14 -3 -21q0 -21 21 -45l-4 -17h-153q-7 15 -7 27t3 27q-86 -77 -167 -77q-67 0 -108 36t-41 95q0 15 4 34.5
t17.5 46.5t34.5 50t59 43.5t87 28.5l58 9q4 1 17 2.5t19 2.5t18.5 3.5t18.5 5t16 6t15.5 8.5t11 12t8 15.5t2.5 18.5q0 43 -73 43q-48 0 -73.5 -17t-38.5 -58h-131q21 98 84.5 142.5t181.5 44.5zM400 217l8 38q-12 -7 -47 -14l-66 -11q-49 -8 -75.5 -32t-26.5 -59
q0 -50 73 -50q51 0 85.5 33t48.5 95zM608 865l-17 -80h-300l17 80h300z" />
    <glyph glyph-name="uni01e0" unicode="&#x1e0;" horiz-adv-x="722" 
d="M730 991l-17 -80h-300l17 80h300zM532 147h-272l-81 -147h-153l407 729h173l97 -729h-153zM518 272l-35 283l-154 -283h189zM616 890l-26 -120h-110l26 120h110z" />
    <glyph glyph-name="uni01e1" unicode="&#x1e1;" horiz-adv-x="556" 
d="M608 861l-17 -80h-300l17 80h300zM480 729l-26 -120h-110l26 120h110zM386 549q57 0 97.5 -11.5t59.5 -31t27 -38.5t8 -40q0 -18 -6 -45l-63 -300q-3 -14 -3 -21q0 -21 21 -45l-4 -17h-153q-7 15 -7 27t3 27q-86 -77 -167 -77q-67 0 -108 36t-41 95q0 15 4 34.5
t17.5 46.5t34.5 50t59 43.5t87 28.5l58 9q4 1 17 2.5t19 2.5t18.5 3.5t18.5 5t16 6t15.5 8.5t11 12t8 15.5t2.5 18.5q0 43 -73 43q-48 0 -73.5 -17t-38.5 -58h-131q21 98 84.5 142.5t181.5 44.5zM400 217l8 38q-12 -7 -47 -14l-66 -11q-49 -8 -75.5 -32t-26.5 -59
q0 -50 73 -50q51 0 85.5 33t48.5 95z" />
    <glyph glyph-name="uni01E2" unicode="&#x1e2;" horiz-adv-x="1000" 
d="M925 881l-17 -80h-300l17 80h300zM464 152h-219l-85 -152h-159l420 729h683l-26 -125h-367l-36 -165h339l-26 -125h-339l-40 -189h386l-27 -125h-536zM491 277l70 327h-66l-185 -327h181z" />
    <glyph glyph-name="uni01E3" unicode="&#x1e3;" horiz-adv-x="892" 
d="M734 702l-17 -80h-300l17 80h300zM718 549q95 0 152 -56.5t57 -141.5q0 -57 -18 -125h-362q-7 -30 -7 -51q0 -38 26.5 -62t69.5 -24q37 0 68 17t46 46h138q-40 -80 -116 -127.5t-166 -47.5q-137 0 -181 100q-53 -56 -100 -78t-116 -22q-73 0 -114 34t-41 95q0 15 3 33
t15.5 46t32.5 51.5t59.5 44.5t91.5 30l57 9q3 0 17 2t19.5 3t18.5 3.5t19 5t16 6t15.5 8.5t11 12t8 15.5t2.5 18.5q0 43 -73 43q-48 0 -73.5 -17t-38.5 -58h-131q18 86 63 126q69 61 205 61q113 0 161 -49q73 49 165 49zM404 216l8 38q-13 -6 -26 -10q-2 0 -9 -1t-12 -2
l-66 -11q-49 -8 -75.5 -32t-26.5 -59q0 -50 71 -50q52 0 87 32.5t49 94.5zM784 319v27q0 43 -22 67t-63 24q-99 0 -131 -118h216z" />
    <glyph glyph-name="uni01e4" unicode="&#x1e4;" horiz-adv-x="811" 
d="M451 149l17 80h159q8 16 15 38h-166l26 125h292l-34 -163h85l-17 -80h-85l-32 -151h-90l2 96q-55 -61 -113 -89t-132 -28q-124 0 -197 78t-73 206q0 66 18.5 133.5t57 129.5t90.5 110.5t124.5 77.5t154.5 29q123 0 194 -58.5t71 -159.5q0 -13 -2 -27h-141q-6 49 -29 73
q-41 44 -120 44q-54 0 -99.5 -22t-75.5 -56.5t-51 -78.5t-30 -86.5t-9 -81.5q0 -83 43.5 -133t117.5 -50q70 0 133 44h-104z" />
    <glyph glyph-name="uni01e5" unicode="&#x1e5;" horiz-adv-x="641" 
d="M380 432q-45 0 -82 -37.5t-56 -89.5t-19 -102t22 -79.5t61 -29.5q47 0 86 34t59 83.5t20 101.5q0 54 -24.5 86.5t-66.5 32.5zM523 540h133l-119 -558q-3 -15 -8 -29h93l-14 -67h-114q-80 -104 -256 -104q-98 0 -153.5 34t-55.5 94q0 12 2 25h145q4 -63 86 -63q34 0 65 14
h-52l14 67h106q6 14 9 29l16 73q-49 -44 -85.5 -61t-84.5 -17q-81 0 -126 52t-45 141.5t38.5 176.5t108 144.5t149.5 57.5q46 0 77.5 -22t52.5 -70z" />
    <glyph glyph-name="Gcaron" unicode="&#x1e6;" horiz-adv-x="778" 
d="M611 778h-108l-71 147h78l61 -97l103 97h76zM795 392l-84 -394h-90l7 90q-56 -59 -109.5 -85t-123.5 -26q-132 0 -210 77t-78 208q0 80 29 162.5t82.5 154t139.5 117t189 45.5q122 0 197 -58.5t75 -153.5q0 -5 -2 -33h-138q-6 56 -47.5 86.5t-112.5 30.5q-60 0 -108 -25
t-76 -62.5t-46.5 -84t-25.5 -85.5t-7 -72q0 -77 48.5 -128t121.5 -51q48 0 88.5 17.5t66 45.5t40 52.5t21.5 46.5h-166l27 125h292z" />
    <glyph glyph-name="gcaron" unicode="&#x1e7;" horiz-adv-x="611" 
d="M442 609h-108l-71 147h78l61 -97l103 97h76zM235 -218q-113 0 -161 36.5t-48 85.5q0 13 3 31h144q-1 -7 -1 -12q0 -22 24.5 -36.5t61.5 -14.5q55 0 95 30.5t51 79.5l16 73q-48 -44 -84 -61t-82 -17q-76 0 -125.5 54t-49.5 136q0 53 13 107.5t39 103.5t61.5 87.5t83.5 61
t102 22.5q87 0 127 -92l18 83h133l-119 -558q-20 -95 -99 -147.5t-203 -52.5zM379 437q-61 0 -109 -72t-48 -164q0 -52 22.5 -82t61.5 -30q67 0 116 67.5t49 158.5q0 56 -25 89t-67 33z" />
    <glyph glyph-name="uni01E8" unicode="&#x1e8;" horiz-adv-x="722" 
d="M585 779h-108l-71 147h78l61 -97l103 97h76zM274 234l-50 -234h-150l155 729h150l-68 -320l354 320h178l-361 -319l235 -410h-179l-173 314z" />
    <glyph glyph-name="uni01E9" unicode="&#x1e9;" horiz-adv-x="556" 
d="M502 740h-108l-71 147h78l61 -97l103 97h76zM354 729l-85 -399l223 210h159l-232 -206l129 -334h-164l-79 239l-68 -62l-38 -177h-140l155 729h140z" />
    <glyph glyph-name="Oogonek" unicode="&#x1ea;" horiz-adv-x="778" 
d="M161 -172q0 50 37 87.5t114 69.5h4q-99 21 -154.5 93.5t-55.5 182.5q0 86 33.5 175t91.5 158q122 147 307 147q137 0 213.5 -75.5t76.5 -210.5q0 -88 -32.5 -175t-90.5 -156q-65 -76 -139.5 -111.5t-170.5 -35.5q-11 0 -22 1q-112 -66 -112 -136q0 -40 50 -40q40 0 71 11
l-10 -52q-48 -9 -77 -9q-62 0 -98 20.5t-36 55.5zM419 105q52 0 95 19.5t70 52t47 69.5t29.5 76t14 67t4.5 48q0 83 -42.5 129.5t-117.5 46.5q-52 0 -95.5 -19.5t-71 -51.5t-47.5 -68.5t-30.5 -75.5t-15 -67.5t-4.5 -48.5q0 -82 44 -129.5t120 -47.5z" />
    <glyph glyph-name="oogonek" unicode="&#x1eb;" horiz-adv-x="611" 
d="M324 89q47 0 82 27.5t52 68t25 75.5t8 60q0 53 -27 85t-73 32q-68 0 -117 -68.5t-49 -163.5q0 -53 27 -84.5t72 -31.5zM82 177q0 155 91.5 263.5t239.5 108.5q103 0 162 -53.5t59 -146.5q0 -137 -71 -237.5t-190 -126.5q-2 -1 -5 -3q-21 -12 -35 -21.5t-37 -28.5
t-35.5 -42t-12.5 -48q0 -40 50 -40q40 0 71 11l-10 -52q-48 -9 -77 -9q-62 0 -98 20.5t-36 55.5q0 47 32.5 83t101.5 66q-92 5 -146 59t-54 141z" />
    <glyph glyph-name="Oogonekmacron" unicode="&#x1ec;" horiz-adv-x="778" 
d="M715 880l-17 -80h-300l17 80h300zM161 -172q0 50 37 87.5t114 69.5h4q-99 21 -154.5 93.5t-55.5 182.5q0 86 33.5 175t91.5 158q122 147 307 147q137 0 213.5 -75.5t76.5 -210.5q0 -88 -32.5 -175t-90.5 -156q-65 -76 -139.5 -111.5t-170.5 -35.5q-11 0 -22 1
q-112 -66 -112 -136q0 -40 50 -40q40 0 71 11l-10 -52q-48 -9 -77 -9q-62 0 -98 20.5t-36 55.5zM419 105q52 0 95 19.5t70 52t47 69.5t29.5 76t14 67t4.5 48q0 83 -42.5 129.5t-117.5 46.5q-52 0 -95.5 -19.5t-71 -51.5t-47.5 -68.5t-30.5 -75.5t-15 -67.5t-4.5 -48.5
q0 -82 44 -129.5t120 -47.5z" />
    <glyph glyph-name="uni01ED" unicode="&#x1ed;" horiz-adv-x="611" 
d="M600 702l-17 -80h-300l17 80h300zM324 89q47 0 82 27.5t52 68t25 75.5t8 60q0 53 -27 85t-73 32q-68 0 -117 -68.5t-49 -163.5q0 -53 27 -84.5t72 -31.5zM82 177q0 155 91.5 263.5t239.5 108.5q103 0 162 -53.5t59 -146.5q0 -137 -71 -237.5t-190 -126.5q-2 -1 -5 -3
q-21 -12 -35 -21.5t-37 -28.5t-35.5 -42t-12.5 -48q0 -40 50 -40q40 0 71 11l-10 -52q-48 -9 -77 -9q-62 0 -98 20.5t-36 55.5q0 47 32.5 83t101.5 66q-92 5 -146 59t-54 141z" />
    <glyph glyph-name="uni01ee" unicode="&#x1ee;" horiz-adv-x="556" 
d="M432 784h-108l-71 147h78l61 -97l103 97h76zM257 97q36 0 63.5 16t40.5 39.5t19.5 43.5t6.5 34q0 63 -57 80q-27 7 -81 7l20 94l149 193h-255l27 125h401l-27 -125l-159 -211q16 -5 25.5 -8t30.5 -15t33.5 -27t23 -41.5t10.5 -59.5q0 -21 -4 -38q-22 -104 -102.5 -165.5
t-193.5 -61.5q-93 0 -144.5 46t-51.5 127q0 26 6 58h136q-2 -11 -2 -30q0 -81 85 -81z" />
    <glyph glyph-name="uni01ef" unicode="&#x1ef;" horiz-adv-x="556" 
d="M448 607h-108l-71 147h78l61 -97l103 97h76zM275 -23q36 0 63.5 16t41 39.5t20 43.5t6.5 34q0 63 -58 80q-27 7 -80 7l20 94l144 136h-249l24 113h420l-24 -113l-166 -155q111 -36 111 -142q0 -21 -6.5 -50t-26.5 -69.5t-51 -73.5t-88 -56.5t-130 -23.5q-93 0 -144.5 46
t-51.5 127q0 29 7 58h136q-3 -16 -3 -30q0 -81 85 -81z" />
    <glyph glyph-name="jcaron" unicode="&#x1f0;" horiz-adv-x="278" 
d="M325 540l-135 -634q-14 -65 -58.5 -94.5t-129.5 -29.5q-28 0 -45 5l24 111q5 -4 25 -4q23 0 34.5 10t16.5 34l128 602h140zM319 600h-108l-71 147h78l61 -97l103 97h76z" />
    <glyph glyph-name="uni01F1" unicode="&#x1f1;" horiz-adv-x="1333" 
d="M77 0l155 729h285q136 0 197.5 -59.5t61.5 -190.5q0 -29 -4 -63.5t-15.5 -82t-30 -92t-51 -89t-74.5 -78t-103.5 -54t-135.5 -20.5h-285zM254 125h134q60 0 106 29t70 69t39.5 92t19.5 88t4 66q0 135 -137 135h-135zM1455 729l-27 -125l-474 -479h373l-27 -125h-548
l27 125l474 479h-373l27 125h548z" />
    <glyph glyph-name="uni01F2" unicode="&#x1f2;" horiz-adv-x="1222" 
d="M77 0l155 729h285q136 0 197.5 -59.5t61.5 -190.5q0 -29 -4 -63.5t-15.5 -82t-30 -92t-51 -89t-74.5 -78t-103.5 -54t-135.5 -20.5h-285zM254 125h134q60 0 106 29t70 69t39.5 92t19.5 88t4 66q0 135 -137 135h-135zM1297 540l-24 -113l-332 -314h274l-24 -113h-448
l24 113l334 314h-249l24 113h421z" />
    <glyph glyph-name="uni01F3" unicode="&#x1f3;" horiz-adv-x="1111" 
d="M405 0l12 55q-68 -78 -166 -78q-78 0 -125 57t-47 151q0 64 21.5 128.5t58.5 117t93.5 85.5t119.5 33q99 0 133 -79l55 259h140l-155 -729h-140zM380 437q-62 0 -110 -70t-48 -161q0 -54 23.5 -85.5t63.5 -31.5q64 0 111.5 70t47.5 164q0 52 -23.5 83t-64.5 31zM1186 540
l-24 -113l-332 -314h274l-24 -113h-448l24 113l334 314h-249l24 113h421z" />
    <glyph glyph-name="uni01F4" unicode="&#x1f4;" horiz-adv-x="778" 
d="M706 930l-158 -150h-70l102 150h126zM795 392l-84 -394h-90l7 90q-56 -59 -109.5 -85t-123.5 -26q-132 0 -210 77t-78 208q0 80 29 162.5t82.5 154t139.5 117t189 45.5q122 0 197 -58.5t75 -153.5q0 -5 -2 -33h-138q-6 56 -47.5 86.5t-112.5 30.5q-60 0 -108 -25
t-76 -62.5t-46.5 -84t-25.5 -85.5t-7 -72q0 -77 48.5 -128t121.5 -51q48 0 88.5 17.5t66 45.5t40 52.5t21.5 46.5h-166l27 125h292z" />
    <glyph glyph-name="uni01F5" unicode="&#x1f5;" horiz-adv-x="611" 
d="M583 757l-158 -150h-70l102 150h126zM235 -218q-113 0 -161 36.5t-48 85.5q0 13 3 31h144q-1 -7 -1 -12q0 -22 24.5 -36.5t61.5 -14.5q55 0 95 30.5t51 79.5l16 73q-48 -44 -84 -61t-82 -17q-76 0 -125.5 54t-49.5 136q0 53 13 107.5t39 103.5t61.5 87.5t83.5 61
t102 22.5q87 0 127 -92l18 83h133l-119 -558q-20 -95 -99 -147.5t-203 -52.5zM379 437q-61 0 -109 -72t-48 -164q0 -52 22.5 -82t61.5 -30q67 0 116 67.5t49 158.5q0 56 -25 89t-67 33z" />
    <glyph glyph-name="Wynn" unicode="&#x1f7;" horiz-adv-x="630" 
d="M321 520l-57 -270q90 53 155 104t98 90.5t47 69t14 51.5q0 18 -19.5 30.5t-42.5 12.5q-34 0 -85 -20t-110 -68zM231 93l-20 -92h-145l155 726h145l-11 -49q55 38 104 51.5t119 13.5q65 0 106.5 -40t41.5 -108q0 -54 -25.5 -110t-62.5 -100.5t-91 -90t-98 -76t-97 -61
t-74.5 -41.5t-43.5 -22z" />
    <glyph glyph-name="uni01F8" unicode="&#x1f8;" horiz-adv-x="722" 
d="M430 924h119l45 -150h-63zM816 729l-155 -729h-148l-192 523l-111 -523h-142l155 729h150l192 -515l109 515h142z" />
    <glyph glyph-name="uni01F9" unicode="&#x1f9;" horiz-adv-x="611" 
d="M321 757h119l45 -150h-63zM178 540h140l-18 -82q40 48 83 69.5t99 21.5q67 0 107 -36t40 -96q0 -27 -6 -55l-77 -362h-140l67 313q6 33 6 49q0 75 -74 75q-50 0 -86.5 -35.5t-50.5 -97.5l-65 -304h-140z" />
    <glyph glyph-name="Aringacute" unicode="&#x1fa;" horiz-adv-x="722" 
d="M734 930l-158 -150h-70l102 150h126zM532 110.25h-272l-81 -110.25h-153l407 546.75h173l97 -546.75h-153zM518 204l-35 212.25l-154 -212.25h189zM564 760q31 0 51.5 -20t20.5 -51q0 -43 -34 -76t-78 -33q-31 0 -51.5 20t-20.5 51q0 43 34 76t78 33zM554 710
q-20 0 -36.5 -14.5t-16.5 -33.5q0 -14 9.5 -23t24.5 -9q20 0 36 15t16 34q0 13 -9.5 22t-23.5 9z" />
    <glyph glyph-name="aringacute" unicode="&#x1fb;" horiz-adv-x="556" 
d="M589 950l-158 -150h-70l102 150h126zM441 774q31 0 51.5 -20t20.5 -51q0 -43 -34 -76t-78 -33q-31 0 -51.5 20t-20.5 51q0 43 34 76t78 33zM431 724q-20 0 -36.5 -14.5t-16.5 -33.5q0 -14 9.5 -23t24.5 -9q20 0 36 15t16 34q0 13 -9.5 22t-23.5 9zM386 549
q57 0 97.5 -11.5t59.5 -31t27 -38.5t8 -40q0 -18 -6 -45l-63 -300q-3 -14 -3 -21q0 -21 21 -45l-4 -17h-153q-7 15 -7 27t3 27q-86 -77 -167 -77q-67 0 -108 36t-41 95q0 15 4 34.5t17.5 46.5t34.5 50t59 43.5t87 28.5l58 9q4 1 17 2.5t19 2.5t18.5 3.5t18.5 5t16 6
t15.5 8.5t11 12t8 15.5t2.5 18.5q0 43 -73 43q-48 0 -73.5 -17t-38.5 -58h-131q21 98 84.5 142.5t181.5 44.5zM400 217l8 38q-12 -7 -47 -14l-66 -11q-49 -8 -75.5 -32t-26.5 -59q0 -50 73 -50q51 0 85.5 33t48.5 95z" />
    <glyph glyph-name="AEacute" unicode="&#x1fc;" horiz-adv-x="1000" 
d="M931 930l-158 -150h-70l102 150h126zM464 152h-219l-85 -152h-159l420 729h683l-26 -125h-367l-36 -165h339l-26 -125h-339l-40 -189h386l-27 -125h-536zM491 277l70 327h-66l-185 -327h181z" />
    <glyph glyph-name="aeacute" unicode="&#x1fd;" horiz-adv-x="892" 
d="M745 757l-158 -150h-70l102 150h126zM718 549q95 0 152 -56.5t57 -141.5q0 -57 -18 -125h-362q-7 -30 -7 -51q0 -38 26.5 -62t69.5 -24q37 0 68 17t46 46h138q-40 -80 -116 -127.5t-166 -47.5q-137 0 -181 100q-53 -56 -100 -78t-116 -22q-73 0 -114 34t-41 95q0 15 3 33
t15.5 46t32.5 51.5t59.5 44.5t91.5 30l57 9q3 0 17 2t19.5 3t18.5 3.5t19 5t16 6t15.5 8.5t11 12t8 15.5t2.5 18.5q0 43 -73 43q-48 0 -73.5 -17t-38.5 -58h-131q18 86 63 126q69 61 205 61q113 0 161 -49q73 49 165 49zM404 216l8 38q-13 -6 -26 -10q-2 0 -9 -1t-12 -2
l-66 -11q-49 -8 -75.5 -32t-26.5 -59q0 -50 71 -50q52 0 87 32.5t49 94.5zM784 319v27q0 43 -22 67t-63 24q-99 0 -131 -118h216z" />
    <glyph glyph-name="Oslashacute" unicode="&#x1fe;" horiz-adv-x="778" 
d="M703 930l-158 -150h-70l102 150h126zM181 56l-106 -95l-41 46l111 99q-36 69 -36 157q0 85 33.5 174t91.5 158q125 146 313 146q141 0 216 -82l101 90l42 -45l-108 -97q34 -69 34 -155q0 -85 -33.5 -172.5t-91.5 -156.5q-125 -146 -312 -146q-143 0 -214 79zM678 500
l-384 -343q44 -52 127 -52q115 0 190 105q72 98 72 229q0 33 -5 61zM521 613q-62 0 -111 -28.5t-76.5 -68.5t-45.5 -89t-24 -85t-6 -61q0 -35 6 -68l386 344q-45 56 -129 56z" />
    <glyph glyph-name="oslashacute" unicode="&#x1ff;" horiz-adv-x="611" 
d="M585 757l-158 -150h-70l102 150h126zM636 344q0 -150 -93 -258.5t-239 -108.5q-107 0 -169 59l-89 -74l-34 40l93 78q-21 45 -21 98q0 97 39 180.5t116.5 137t177.5 53.5q113 0 173 -63l85 71l34 -41l-91 -76q18 -44 18 -96zM328 89q38 0 68 19t48 46.5t29.5 61t16 60
t4.5 45.5q0 8 -1 15l-247 -207q27 -40 82 -40zM395 437q-38 0 -68.5 -19t-48.5 -46t-30 -60.5t-16.5 -59t-4.5 -44.5q0 -14 1 -25l250 209q-28 45 -83 45z" />
    <glyph glyph-name="uni0200" unicode="&#x200;" horiz-adv-x="722" 
d="M479 933h119l45 -150h-63zM291 933h119l45 -150h-63zM532 147h-272l-81 -147h-153l407 729h173l97 -729h-153zM518 272l-35 283l-154 -283h189z" />
    <glyph glyph-name="uni0201" unicode="&#x201;" horiz-adv-x="556" 
d="M360 759h119l45 -150h-63zM172 759h119l45 -150h-63zM386 549q57 0 97.5 -11.5t59.5 -31t27 -38.5t8 -40q0 -18 -6 -45l-63 -300q-3 -14 -3 -21q0 -21 21 -45l-4 -17h-153q-7 15 -7 27t3 27q-86 -77 -167 -77q-67 0 -108 36t-41 95q0 15 4 34.5t17.5 46.5t34.5 50
t59 43.5t87 28.5l58 9q4 1 17 2.5t19 2.5t18.5 3.5t18.5 5t16 6t15.5 8.5t11 12t8 15.5t2.5 18.5q0 43 -73 43q-48 0 -73.5 -17t-38.5 -58h-131q21 98 84.5 142.5t181.5 44.5zM400 217l8 38q-12 -7 -47 -14l-66 -11q-49 -8 -75.5 -32t-26.5 -59q0 -50 73 -50q51 0 85.5 33
t48.5 95z" />
    <glyph glyph-name="uni0202" unicode="&#x202;" horiz-adv-x="722" 
d="M441 779h-42q11 62 56.5 102.5t104.5 40.5q47 0 76.5 -29t29.5 -75q0 -17 -6 -39h-42v8q0 27 -19.5 42t-54.5 15q-77 0 -103 -65zM532 147h-272l-81 -147h-153l407 729h173l97 -729h-153zM518 272l-35 283l-154 -283h189z" />
    <glyph glyph-name="uni0203" unicode="&#x203;" horiz-adv-x="556" 
d="M310 609h-42q11 62 56.5 102.5t104.5 40.5q47 0 76.5 -29t29.5 -75q0 -17 -6 -39h-42v8q0 27 -19.5 42t-54.5 15q-77 0 -103 -65zM386 549q57 0 97.5 -11.5t59.5 -31t27 -38.5t8 -40q0 -18 -6 -45l-63 -300q-3 -14 -3 -21q0 -21 21 -45l-4 -17h-153q-7 15 -7 27t3 27
q-86 -77 -167 -77q-67 0 -108 36t-41 95q0 15 4 34.5t17.5 46.5t34.5 50t59 43.5t87 28.5l58 9q4 1 17 2.5t19 2.5t18.5 3.5t18.5 5t16 6t15.5 8.5t11 12t8 15.5t2.5 18.5q0 43 -73 43q-48 0 -73.5 -17t-38.5 -58h-131q21 98 84.5 142.5t181.5 44.5zM400 217l8 38
q-12 -7 -47 -14l-66 -11q-49 -8 -75.5 -32t-26.5 -59q0 -50 73 -50q51 0 85.5 33t48.5 95z" />
    <glyph glyph-name="uni0204" unicode="&#x204;" horiz-adv-x="667" 
d="M475 937h119l45 -150h-63zM287 937h119l45 -150h-63zM296 314l-40 -189h395l-27 -125h-545l155 729h528l-27 -125h-378l-35 -165h349l-26 -125h-349z" />
    <glyph glyph-name="uni0205" unicode="&#x205;" horiz-adv-x="556" 
d="M353 759h119l45 -150h-63zM165 759h119l45 -150h-63zM379 549q95 0 153.5 -55t58.5 -143q0 -57 -18 -125h-363q-3 -28 -3 -45q0 -41 26 -66.5t69 -25.5q36 0 66.5 17t45.5 46h138q-41 -83 -113.5 -129t-163.5 -46q-94 0 -152.5 57.5t-58.5 150.5q0 24 5 55t17 74.5
t35.5 83t56.5 74.5t85 56t116 21zM362 437q-101 0 -134 -118h220q0 28 -2.5 45.5t-10.5 36t-26 27.5t-47 9z" />
    <glyph glyph-name="uni0206" unicode="&#x206;" horiz-adv-x="667" 
d="M425 789h-42q11 62 56.5 102.5t104.5 40.5q47 0 76.5 -29t29.5 -75q0 -17 -6 -39h-42v8q0 27 -19.5 42t-54.5 15q-77 0 -103 -65zM296 314l-40 -189h395l-27 -125h-545l155 729h528l-27 -125h-378l-35 -165h349l-26 -125h-349z" />
    <glyph glyph-name="uni0207" unicode="&#x207;" horiz-adv-x="556" 
d="M303 609h-42q11 62 56.5 102.5t104.5 40.5q47 0 76.5 -29t29.5 -75q0 -17 -6 -39h-42v8q0 27 -19.5 42t-54.5 15q-77 0 -103 -65zM379 549q95 0 153.5 -55t58.5 -143q0 -57 -18 -125h-363q-3 -28 -3 -45q0 -41 26 -66.5t69 -25.5q36 0 66.5 17t45.5 46h138
q-41 -83 -113.5 -129t-163.5 -46q-94 0 -152.5 57.5t-58.5 150.5q0 24 5 55t17 74.5t35.5 83t56.5 74.5t85 56t116 21zM362 437q-101 0 -134 -118h220q0 28 -2.5 45.5t-10.5 36t-26 27.5t-47 9z" />
    <glyph glyph-name="uni0208" unicode="&#x208;" horiz-adv-x="278" 
d="M270 933h119l45 -150h-63zM82 933h119l45 -150h-63zM368 729l-155 -729h-150l155 729h150z" />
    <glyph glyph-name="idblgrave" unicode="&#x209;" horiz-adv-x="301" 
d="M333 540l-115 -540h-140l115 540h140zM258 759h119l45 -150h-63zM70 759h119l45 -150h-63z" />
    <glyph glyph-name="uni020A" unicode="&#x20a;" horiz-adv-x="278" 
d="M219 785h-42q11 62 56.5 102.5t104.5 40.5q47 0 76.5 -29t29.5 -75q0 -17 -6 -39h-42v8q0 27 -19.5 42t-54.5 15q-77 0 -103 -65zM368 729l-155 -729h-150l155 729h150z" />
    <glyph glyph-name="iinvertedbreve" unicode="&#x20b;" horiz-adv-x="278" 
d="M178 609h-42q11 62 56.5 102.5t104.5 40.5q47 0 76.5 -29t29.5 -75q0 -17 -6 -39h-42v8q0 27 -19.5 42t-54.5 15q-77 0 -103 -65zM322 540l-115 -540h-140l115 540h140z" />
    <glyph glyph-name="uni020C" unicode="&#x20c;" horiz-adv-x="778" 
d="M512 939h119l45 -150h-63zM324 939h119l45 -150h-63zM538 741q137 0 213.5 -75.5t76.5 -210.5q0 -62 -16.5 -126.5t-52.5 -128t-85.5 -113t-122 -80t-156.5 -30.5q-134 0 -211.5 76.5t-77.5 207.5q0 59 16.5 123.5t52.5 128.5t85.5 114.5t122 82t155.5 31.5zM419 105
q52 0 95 19.5t70 52t47 69.5t29.5 76t14 67t4.5 48q0 83 -42.5 129.5t-117.5 46.5q-52 0 -95.5 -19.5t-71 -51.5t-47.5 -68.5t-30.5 -75.5t-15 -67.5t-4.5 -48.5q0 -82 44 -129.5t120 -47.5z" />
    <glyph glyph-name="uni020D" unicode="&#x20d;" horiz-adv-x="611" 
d="M381 759h119l45 -150h-63zM193 759h119l45 -150h-63zM82 177q0 155 91.5 263.5t239.5 108.5q103 0 162 -53.5t59 -146.5q0 -158 -93 -265t-242 -107q-99 0 -158 54.5t-59 145.5zM324 89q47 0 82 27.5t52 68t25 75.5t8 60q0 53 -27 85t-73 32q-68 0 -117 -68.5t-49 -163.5
q0 -53 27 -84.5t72 -31.5z" />
    <glyph glyph-name="uni020E" unicode="&#x20e;" horiz-adv-x="778" 
d="M461 790h-42q11 62 56.5 102.5t104.5 40.5q47 0 76.5 -29t29.5 -75q0 -17 -6 -39h-42v8q0 27 -19.5 42t-54.5 15q-77 0 -103 -65zM538 741q137 0 213.5 -75.5t76.5 -210.5q0 -62 -16.5 -126.5t-52.5 -128t-85.5 -113t-122 -80t-156.5 -30.5q-134 0 -211.5 76.5
t-77.5 207.5q0 59 16.5 123.5t52.5 128.5t85.5 114.5t122 82t155.5 31.5zM419 105q52 0 95 19.5t70 52t47 69.5t29.5 76t14 67t4.5 48q0 83 -42.5 129.5t-117.5 46.5q-52 0 -95.5 -19.5t-71 -51.5t-47.5 -68.5t-30.5 -75.5t-15 -67.5t-4.5 -48.5q0 -82 44 -129.5t120 -47.5z
" />
    <glyph glyph-name="uni020F" unicode="&#x20f;" horiz-adv-x="611" 
d="M337 609h-42q11 62 56.5 102.5t104.5 40.5q47 0 76.5 -29t29.5 -75q0 -17 -6 -39h-42v8q0 27 -19.5 42t-54.5 15q-77 0 -103 -65zM82 177q0 155 91.5 263.5t239.5 108.5q103 0 162 -53.5t59 -146.5q0 -158 -93 -265t-242 -107q-99 0 -158 54.5t-59 145.5zM324 89
q47 0 82 27.5t52 68t25 75.5t8 60q0 53 -27 85t-73 32q-68 0 -117 -68.5t-49 -163.5q0 -53 27 -84.5t72 -31.5z" />
    <glyph glyph-name="uni0210" unicode="&#x210;" horiz-adv-x="722" 
d="M471 936h119l45 -150h-63zM283 936h119l45 -150h-63zM510 41q0 34 19 106t19 87q0 55 -85 55h-172l-61 -289h-150l155 729h377q49 0 85 -15.5t54 -39.5t26 -48t8 -47q0 -41 -13.5 -77t-30.5 -58.5t-44.5 -43.5t-42 -29t-36.5 -19q78 -26 78 -82q0 -34 -15.5 -113
t-15.5 -96q0 -20 18 -34l-6 -27h-159q-8 25 -8 41zM636 534q0 70 -110 70h-168l-40 -190h181q40 0 68.5 12.5t42.5 32.5t20 38.5t6 36.5z" />
    <glyph glyph-name="uni0211" unicode="&#x211;" horiz-adv-x="389" 
d="M308 759h119l45 -150h-63zM120 759h119l45 -150h-63zM178 540h140l-23 -106q35 55 81 85t94 30q9 0 17 -1l-30 -142q-24 4 -43 4q-124 0 -150 -123l-61 -287h-140z" />
    <glyph glyph-name="uni0212" unicode="&#x212;" horiz-adv-x="722" 
d="M406 780h-42q11 62 56.5 102.5t104.5 40.5q47 0 76.5 -29t29.5 -75q0 -17 -6 -39h-42v8q0 27 -19.5 42t-54.5 15q-77 0 -103 -65zM510 41q0 34 19 106t19 87q0 55 -85 55h-172l-61 -289h-150l155 729h377q49 0 85 -15.5t54 -39.5t26 -48t8 -47q0 -41 -13.5 -77
t-30.5 -58.5t-44.5 -43.5t-42 -29t-36.5 -19q78 -26 78 -82q0 -34 -15.5 -113t-15.5 -96q0 -20 18 -34l-6 -27h-159q-8 25 -8 41zM636 534q0 70 -110 70h-168l-40 -190h181q40 0 68.5 12.5t42.5 32.5t20 38.5t6 36.5z" />
    <glyph glyph-name="uni0213" unicode="&#x213;" horiz-adv-x="389" 
d="M258 609h-42q11 62 56.5 102.5t104.5 40.5q47 0 76.5 -29t29.5 -75q0 -17 -6 -39h-42v8q0 27 -19.5 42t-54.5 15q-77 0 -103 -65zM178 540h140l-23 -106q35 55 81 85t94 30q9 0 17 -1l-30 -142q-24 4 -43 4q-124 0 -150 -123l-61 -287h-140z" />
    <glyph glyph-name="uni0214" unicode="&#x214;" horiz-adv-x="722" 
d="M497 932h119l45 -150h-63zM309 932h119l45 -150h-63zM659 729h150l-105 -494q-29 -133 -122.5 -195.5t-215.5 -62.5q-113 0 -180 51.5t-67 138.5q0 36 11 88l101 474h150l-105 -494q-5 -27 -5 -45q0 -40 32.5 -62.5t90.5 -22.5q68 0 107 31.5t53 98.5z" />
    <glyph glyph-name="uni0215" unicode="&#x215;" horiz-adv-x="611" 
d="M391 759h119l45 -150h-63zM203 759h119l45 -150h-63zM541 0h-140l15 68q-40 -48 -83 -69.5t-99 -21.5q-66 0 -106 36t-40 96q0 27 6 55l80 376h140l-70 -327q-6 -35 -6 -49q0 -75 76 -75q49 0 85 36t49 97l68 318h140z" />
    <glyph glyph-name="uni0216" unicode="&#x216;" horiz-adv-x="722" 
d="M440 783h-42q11 62 56.5 102.5t104.5 40.5q47 0 76.5 -29t29.5 -75q0 -17 -6 -39h-42v8q0 27 -19.5 42t-54.5 15q-77 0 -103 -65zM659 729h150l-105 -494q-29 -133 -122.5 -195.5t-215.5 -62.5q-113 0 -180 51.5t-67 138.5q0 36 11 88l101 474h150l-105 -494
q-5 -27 -5 -45q0 -40 32.5 -62.5t90.5 -22.5q68 0 107 31.5t53 98.5z" />
    <glyph glyph-name="uni0217" unicode="&#x217;" horiz-adv-x="611" 
d="M341 609h-42q11 62 56.5 102.5t104.5 40.5q47 0 76.5 -29t29.5 -75q0 -17 -6 -39h-42v8q0 27 -19.5 42t-54.5 15q-77 0 -103 -65zM541 0h-140l15 68q-40 -48 -83 -69.5t-99 -21.5q-66 0 -106 36t-40 96q0 27 6 55l80 376h140l-70 -327q-6 -35 -6 -49q0 -75 76 -75
q49 0 85 36t49 97l68 318h140z" />
    <glyph glyph-name="Scommaaccent" unicode="&#x218;" horiz-adv-x="667" 
d="M151 472q0 115 88 192t234 77q119 0 185.5 -45.5t66.5 -126.5q0 -25 -8 -62h-140q2 18 2 23q0 83 -132 83q-68 0 -107.5 -28t-39.5 -76q0 -28 25 -43.5t96 -29.5l109 -22q77 -15 117 -53t40 -96q0 -36 -9 -72t-33 -76t-61 -70t-99 -50t-140 -20q-77 0 -132.5 18.5
t-83.5 49t-40.5 62.5t-12.5 67q0 17 4 44h146q-2 -18 -2 -23q0 -43 37.5 -66.5t105.5 -23.5q78 0 124.5 30.5t46.5 80.5q0 35 -26 53t-94 32l-98 20q-89 18 -129 53.5t-40 97.5zM273 -66h122l-23 -102q-25 -113 -149 -125l10 46q76 14 85 79h-67z" />
    <glyph glyph-name="scommaaccent" unicode="&#x219;" horiz-adv-x="556" 
d="M127 345q0 88 72.5 146t187.5 58q94 0 148 -38.5t54 -106.5q0 -16 -5 -38h-135q3 14 3 19q0 24 -23.5 38t-64.5 14q-40 0 -64 -14.5t-24 -38.5q0 -15 13.5 -24.5t51.5 -20.5l96 -28q122 -37 122 -124q0 -96 -75.5 -153t-202.5 -57q-63 0 -109 15t-68.5 39.5t-33 48
t-10.5 47.5q0 10 4 30h137q4 -68 106 -68q46 0 75 15.5t29 39.5q0 17 -14.5 27t-61.5 25l-79 25q-66 22 -97.5 52t-31.5 72zM216 -66h122l-23 -102q-25 -113 -149 -125l10 46q76 14 85 79h-67z" />
    <glyph glyph-name="uni021A" unicode="&#x21a;" horiz-adv-x="611" 
d="M233 -66h122l-23 -102q-25 -113 -149 -125l10 46q76 14 85 79h-67zM514 604l-129 -604h-150l129 604h-222l27 125h584l-27 -125h-212z" />
    <glyph glyph-name="uni021B" unicode="&#x21b;" horiz-adv-x="333" 
d="M115 -66h122l-23 -102q-25 -113 -149 -125l10 46q76 14 85 79h-67zM414 529l-20 -93h-78l-62 -294q-6 -26 -6 -34q0 -25 38 -25q12 0 33 3l-20 -98q-39 -11 -85 -11q-55 0 -84 22.5t-29 63.5q0 18 5 41l70 332h-69l20 93h69l31 145h140l-31 -145h78z" />
    <glyph glyph-name="uni021c" unicode="&#x21c;" horiz-adv-x="569" 
d="M268 486l-5 -24h-138l6 25q29 125 106.5 189.5t194.5 64.5q96 0 148 -44t52 -121q0 -117 -95 -196q49 -42 49 -117q0 -39 -11 -74t-27 -63t-46 -55t-55.5 -46.5t-69 -40.5t-73.5 -34t-82 -30.5t-80 -26.5t-82 -25l-27 -8l-6 146l33 -2l22 5.5t53.5 16.5t76 26.5t81 35
t76 43.5t53.5 50.5t22 57.5q0 24 -10 35t-31 21q-65 -30 -161 -58l-27 -7l-6 121l22 8q53 20 80.5 31t63 27.5t51.5 28t33 27.5t23 33.5t6 38.5q0 69 -82 69q-58 0 -90 -29.5t-48 -98.5z" />
    <glyph glyph-name="uni021d" unicode="&#x21d;" horiz-adv-x="486" 
d="M239 344l-5 -25h-136l5 25q19 91 88 149t158 58q74 0 118.5 -39t44.5 -103q0 -45 -19.5 -83.5t-45.5 -62.5q31 -31 31 -83q0 -132 -152 -211q-74 -38 -258 -93l-27 -8v123q11 3 44.5 12.5t55.5 16.5t55 18t55 22.5t44 26t32.5 32t10.5 36.5q0 16 -15 29q-59 -27 -121 -42
l-30 -7v115l21 8q106 40 142 63.5t36 64.5q0 37 -48 37q-29 0 -52.5 -21t-31.5 -58z" />
    <glyph glyph-name="uni021E" unicode="&#x21e;" horiz-adv-x="722" 
d="M572 784h-108l-71 147h78l61 -97l103 97h76zM577 331h-289l-70 -331h-150l155 729h150l-58 -273h288l58 273h151l-155 -729h-150z" />
    <glyph glyph-name="uni021F" unicode="&#x21f;" horiz-adv-x="611" 
d="M525 732h-108l-71 147h78l61 -97l103 97h76zM222 729h140l-58 -271q77 91 180 91q65 0 105 -36.5t40 -95.5q0 -27 -6 -55l-77 -362h-140l67 313q6 31 6 48q0 76 -73 76q-48 0 -84.5 -36t-49.5 -97l-65 -304h-140z" />
    <glyph glyph-name="uni0224" unicode="&#x224;" horiz-adv-x="645" 
d="M778 729l-25 -118l-513 -490h411l-43 -202q-5 -23 -16.5 -44t-33 -42.5t-59.5 -34.5t-89 -13q-15 0 -32 3l-19 5l25 118l26 -2q16 -1 18 -1q24 0 32.5 4.5t13.5 15.5q4 9 7 24l10 49h-458l25 116l515 492h-383l26 120h562z" />
    <glyph glyph-name="uni0225" unicode="&#x225;" horiz-adv-x="500" 
d="M346 0h-325l23 109l349 320h-260l24 112h426l-23 -108l-347 -321h291l-41 -194q-5 -23 -16.5 -44t-33 -42.5t-60 -34.5t-88.5 -13q-15 0 -32 3l-19 5l25 118l26 -2q16 -1 18 -1q24 0 32.5 4.5t13.5 15.5q3 9 7 24z" />
    <glyph glyph-name="uni0226" unicode="&#x226;" horiz-adv-x="722" 
d="M606 899l-26 -120h-110l26 120h110zM532 147h-272l-81 -147h-153l407 729h173l97 -729h-153zM518 272l-35 283l-154 -283h189z" />
    <glyph glyph-name="uni0227" unicode="&#x227;" horiz-adv-x="556" 
d="M480 729l-26 -120h-110l26 120h110zM386 549q57 0 97.5 -11.5t59.5 -31t27 -38.5t8 -40q0 -18 -6 -45l-63 -300q-3 -14 -3 -21q0 -21 21 -45l-4 -17h-153q-7 15 -7 27t3 27q-86 -77 -167 -77q-67 0 -108 36t-41 95q0 15 4 34.5t17.5 46.5t34.5 50t59 43.5t87 28.5l58 9
q4 1 17 2.5t19 2.5t18.5 3.5t18.5 5t16 6t15.5 8.5t11 12t8 15.5t2.5 18.5q0 43 -73 43q-48 0 -73.5 -17t-38.5 -58h-131q21 98 84.5 142.5t181.5 44.5zM400 217l8 38q-12 -7 -47 -14l-66 -11q-49 -8 -75.5 -32t-26.5 -59q0 -50 73 -50q51 0 85.5 33t48.5 95z" />
    <glyph glyph-name="uni0228" unicode="&#x228;" horiz-adv-x="667" 
d="M296 314l-40 -189h395l-27 -125h-296l-36 -55q24 6 43 6q30 0 47 -15t17 -42q0 -49 -41 -78t-109 -29q-59 0 -133 29l30 51q61 -30 98 -30q28 0 48 13t20 31q0 15 -12 24t-32 9q-22 0 -53 -13l64 99h-200l155 729h528l-27 -125h-378l-35 -165h349l-26 -125h-349z" />
    <glyph glyph-name="uni0229" unicode="&#x229;" horiz-adv-x="556" 
d="M448 334q0 103 -86 103q-101 0 -134 -118h220v15zM379 549q95 0 153.5 -55t58.5 -143q0 -57 -18 -125h-363q-3 -28 -3 -45q0 -41 26 -66.5t69 -25.5q36 0 66.5 17t45.5 46h138q-39 -79 -106 -124t-151 -50l-37 -56q24 6 43 6q30 0 47 -15t17 -42q0 -49 -41 -78t-109 -29
q-59 0 -133 29l30 51q61 -30 98 -30q28 0 48 13t20 31q0 15 -12 24t-32 9q-22 0 -53 -13l65 101q-83 9 -132.5 65t-49.5 141q0 24 5 55t17 74.5t35.5 83t56.5 74.5t85 56t116 21z" />
    <glyph glyph-name="uni022a" unicode="&#x22a;" horiz-adv-x="778" 
d="M757 988l-17 -80h-300l17 80h300zM538 741q137 0 213.5 -75.5t76.5 -210.5q0 -62 -16.5 -126.5t-52.5 -128t-85.5 -113t-122 -80t-156.5 -30.5q-134 0 -211.5 76.5t-77.5 207.5q0 59 16.5 123.5t52.5 128.5t85.5 114.5t122 82t155.5 31.5zM419 105q52 0 95 19.5t70 52
t47 69.5t29.5 76t14 67t4.5 48q0 83 -42.5 129.5t-117.5 46.5q-52 0 -95.5 -19.5t-71 -51.5t-47.5 -68.5t-30.5 -75.5t-15 -67.5t-4.5 -48.5q0 -82 44 -129.5t120 -47.5zM731 883l-26 -120h-110l26 120h110zM535 883l-26 -120h-110l26 120h110z" />
    <glyph glyph-name="uni022b" unicode="&#x22b;" horiz-adv-x="611" 
d="M633 861l-17 -80h-300l17 80h300zM611 739l-26 -120h-110l26 120h110zM415 739l-26 -120h-110l26 120h110zM82 177q0 155 91.5 263.5t239.5 108.5q103 0 162 -53.5t59 -146.5q0 -158 -93 -265t-242 -107q-99 0 -158 54.5t-59 145.5zM324 89q47 0 82 27.5t52 68t25 75.5
t8 60q0 53 -27 85t-73 32q-68 0 -117 -68.5t-49 -163.5q0 -53 27 -84.5t72 -31.5z" />
    <glyph glyph-name="uni022c" unicode="&#x22c;" horiz-adv-x="778" 
d="M758 998l-17 -80h-300l17 80h300zM538 741q137 0 213.5 -75.5t76.5 -210.5q0 -62 -16.5 -126.5t-52.5 -128t-85.5 -113t-122 -80t-156.5 -30.5q-134 0 -211.5 76.5t-77.5 207.5q0 59 16.5 123.5t52.5 128.5t85.5 114.5t122 82t155.5 31.5zM419 105q52 0 95 19.5t70 52
t47 69.5t29.5 76t14 67t4.5 48q0 83 -42.5 129.5t-117.5 46.5q-52 0 -95.5 -19.5t-71 -51.5t-47.5 -68.5t-30.5 -75.5t-15 -67.5t-4.5 -48.5q0 -82 44 -129.5t120 -47.5zM769 897q-18 -63 -53.5 -92.5t-79.5 -29.5q-27 0 -51 11l-50 25q-30 14 -44 14q-26 0 -51 -48h-54
q17 56 48.5 86.5t72.5 30.5q32 0 71 -17l50 -21q21 -10 33 -10q33 0 54 51h54z" />
    <glyph glyph-name="uni022d" unicode="&#x22d;" horiz-adv-x="611" 
d="M625 861l-17 -80h-300l17 80h300zM631 731q-18 -63 -53.5 -92.5t-79.5 -29.5q-27 0 -51 11l-50 25q-30 14 -44 14q-26 0 -51 -48h-54q17 56 48.5 86.5t72.5 30.5q32 0 71 -17l50 -21q21 -10 33 -10q33 0 54 51h54zM82 177q0 155 91.5 263.5t239.5 108.5q103 0 162 -53.5
t59 -146.5q0 -158 -93 -265t-242 -107q-99 0 -158 54.5t-59 145.5zM324 89q47 0 82 27.5t52 68t25 75.5t8 60q0 53 -27 85t-73 32q-68 0 -117 -68.5t-49 -163.5q0 -53 27 -84.5t72 -31.5z" />
    <glyph glyph-name="uni022E" unicode="&#x22e;" horiz-adv-x="778" 
d="M626 899l-26 -120h-110l26 120h110zM538 741q137 0 213.5 -75.5t76.5 -210.5q0 -62 -16.5 -126.5t-52.5 -128t-85.5 -113t-122 -80t-156.5 -30.5q-134 0 -211.5 76.5t-77.5 207.5q0 59 16.5 123.5t52.5 128.5t85.5 114.5t122 82t155.5 31.5zM419 105q52 0 95 19.5t70 52
t47 69.5t29.5 76t14 67t4.5 48q0 83 -42.5 129.5t-117.5 46.5q-52 0 -95.5 -19.5t-71 -51.5t-47.5 -68.5t-30.5 -75.5t-15 -67.5t-4.5 -48.5q0 -82 44 -129.5t120 -47.5z" />
    <glyph glyph-name="uni022F" unicode="&#x22f;" horiz-adv-x="611" 
d="M507 729l-26 -120h-110l26 120h110zM82 177q0 155 91.5 263.5t239.5 108.5q103 0 162 -53.5t59 -146.5q0 -158 -93 -265t-242 -107q-99 0 -158 54.5t-59 145.5zM324 89q47 0 82 27.5t52 68t25 75.5t8 60q0 53 -27 85t-73 32q-68 0 -117 -68.5t-49 -163.5q0 -53 27 -84.5
t72 -31.5z" />
    <glyph glyph-name="uni0230" unicode="&#x230;" horiz-adv-x="778" 
d="M738 991l-17 -80h-300l17 80h300zM538 741q137 0 213.5 -75.5t76.5 -210.5q0 -62 -16.5 -126.5t-52.5 -128t-85.5 -113t-122 -80t-156.5 -30.5q-134 0 -211.5 76.5t-77.5 207.5q0 59 16.5 123.5t52.5 128.5t85.5 114.5t122 82t155.5 31.5zM419 105q52 0 95 19.5t70 52
t47 69.5t29.5 76t14 67t4.5 48q0 83 -42.5 129.5t-117.5 46.5q-52 0 -95.5 -19.5t-71 -51.5t-47.5 -68.5t-30.5 -75.5t-15 -67.5t-4.5 -48.5q0 -82 44 -129.5t120 -47.5zM625 893l-26 -120h-110l26 120h110z" />
    <glyph glyph-name="uni0231" unicode="&#x231;" horiz-adv-x="611" 
d="M625 861l-17 -80h-300l17 80h300zM507 729l-26 -120h-110l26 120h110zM82 177q0 155 91.5 263.5t239.5 108.5q103 0 162 -53.5t59 -146.5q0 -158 -93 -265t-242 -107q-99 0 -158 54.5t-59 145.5zM324 89q47 0 82 27.5t52 68t25 75.5t8 60q0 53 -27 85t-73 32
q-68 0 -117 -68.5t-49 -163.5q0 -53 27 -84.5t72 -31.5z" />
    <glyph glyph-name="uni0232" unicode="&#x232;" horiz-adv-x="667" 
d="M665 880l-17 -80h-300l17 80h300zM477 270l-58 -270h-150l58 270l-145 459h167l82 -315l207 315h167z" />
    <glyph glyph-name="uni0233" unicode="&#x233;" horiz-adv-x="556" 
d="M574 702l-17 -80h-300l17 80h300zM509 540h144l-358 -638q-25 -47 -44 -66q-57 -55 -170 -55q-27 0 -44 4l23 109q11 -2 28 -2q52 0 82.5 25t30.5 68q-13 107 -40.5 299.5l-36.5 255.5h154l36 -393z" />
    <glyph glyph-name="dotlessj" unicode="&#x237;" horiz-adv-x="278" 
d="M325 540l-135 -634q-14 -65 -58.5 -94.5t-129.5 -29.5q-28 0 -45 5l24 111q5 -4 25 -4q23 0 34.5 10t16.5 34l128 602h140z" />
    <glyph glyph-name="uni0250" unicode="&#x250;" horiz-adv-x="556" 
d="M242 -23q-57 0 -97.5 11.5t-59.5 31t-27 38.5t-8 40q0 18 6 45l63 300q3 14 3 21q0 21 -21 45l4 17h153q7 -15 7 -27t-3 -27q86 77 167 77q67 0 108 -36t41 -95q0 -15 -4 -34.5t-17.5 -46.5t-34.5 -50t-59 -43.5t-87 -28.5l-58 -9q-4 -1 -17 -2.5t-19 -2.5t-18.5 -3.5
t-18.5 -5t-16 -6t-15.5 -8.5t-11 -12t-8 -15.5t-2.5 -18.5q0 -43 73 -43q48 0 73.5 17t38.5 58h131q-21 -98 -84.5 -142.5t-181.5 -44.5zM228 309l-8 -38q12 7 47 14l66 11q49 8 75.5 32t26.5 59q0 50 -73 50q-51 0 -85.5 -33t-48.5 -95z" />
    <glyph glyph-name="uni0251" unicode="&#x251;" horiz-adv-x="611" 
d="M281 94q36 0 65 18.5t46 45.5t29 60t16 58.5t4 43.5q0 52 -23 82t-65 30q-44 0 -77.5 -27.5t-50 -67t-24.5 -73.5t-8 -57q0 -52 23 -82.5t65 -30.5zM50 183q0 81 36 164.5t106.5 142.5t154.5 59q97 0 132 -79l15 70h140l-97 -457q-3 -12 -3 -21q0 -21 21 -45l-4 -17h-152
q-8 12 -8 27q0 11 4 27l-4 1q-68 -78 -166 -78q-31 0 -59 9.5t-55.5 31t-44 64t-16.5 101.5z" />
    <glyph glyph-name="uni0252" unicode="&#x252;" horiz-adv-x="671" 
d="M403 432q-36 0 -65 -18.5t-46 -45.5t-29 -60t-16 -58.5t-4 -43.5q0 -52 23 -82t65 -30q44 0 77.5 27.5t50 67t24.5 73.5t8 57q0 52 -23 82.5t-65 30.5zM634 343q0 -81 -36 -164.5t-106.5 -142.5t-154.5 -59q-97 0 -132 79l-15 -70h-140l97 457q3 12 3 21q0 21 -21 45
l4 17h152q8 -12 8 -27q0 -11 -4 -27l4 -1q68 78 166 78q31 0 59 -9.5t55.5 -31t44 -64t16.5 -101.5z" />
    <glyph glyph-name="uni0253" unicode="&#x253;" horiz-adv-x="611" 
d="M400 432q-44 0 -78 -27t-50.5 -67t-24 -74t-7.5 -58q0 -52 23 -82t65 -30q48 0 86 38t56 88t18 98q0 52 -23.5 83t-64.5 31zM630 342q0 -78 -28 -148t-71.5 -116.5t-95.5 -73.5t-101 -27q-100 0 -132 78l-12 -55h-140l129 605q13 66 48.5 95t100.5 29q35 0 82 -5
l-24 -112q-12 4 -24 4q-22 0 -33.5 -9.5t-16.5 -32.5l-22 -104q66 79 166 79q31 0 59 -9.5t55 -31t43.5 -64.5t16.5 -102z" />
    <glyph glyph-name="cturn" unicode="&#x254;" horiz-adv-x="556" 
d="M249 -23q-91 0 -145 48t-54 120q0 11 4 43h134q1 -50 16 -74.5t66 -24.5q44 0 77 27t49 68.5t23.5 79.5t7.5 70q0 103 -89 103q-41 0 -68 -22.5t-50 -75.5h-134q31 100 101.5 155t167.5 55q61 0 105.5 -19t67 -50t32.5 -62t10 -64t-7 -74.5t-29 -96.5t-55.5 -99.5
t-93.5 -75.5t-136 -31z" />
    <glyph glyph-name="uni0255" unicode="&#x255;" horiz-adv-x="600" 
d="M118 172q0 38 8.5 83t32 98.5t58.5 96t94.5 71t133.5 28.5q91 0 141 -45.5t50 -126.5q0 -18 -3 -39h-134q-1 53 -18.5 75.5t-60.5 22.5q-70 0 -114.5 -74t-44.5 -184q92 53 148.5 71t108.5 18q35 0 58.5 -22.5t23.5 -48.5t-16.5 -61.5t-47 -71.5t-82.5 -61t-113 -25
q-99 0 -149 33q-14 -9 -48 -29.5t-51 -31.5l-57 90l92 58q-10 37 -10 75zM458 126q-2 23 -21 23q-12 0 -54 -20.5t-63 -34.5q15 -4 25 -4q66 0 113 36z" />
    <glyph glyph-name="uni0256" unicode="&#x256;" horiz-adv-x="595" 
d="M281 94q35 0 64 18.5t46.5 45.5t29 59.5t16 58.5t4.5 44q0 52 -23 82t-65 30q-71 0 -116 -74t-45 -151q0 -52 23.5 -82.5t65.5 -30.5zM50 183q0 153 95.5 259.5t200.5 106.5q98 0 133 -79l55 259h140l-169 -792q-2 -12 -2 -17q0 -25 34 -25q13 0 26 4l-24 -112
q-47 -5 -84 -5q-53 0 -77.5 18.5t-24.5 60.5q0 19 6 45l31 149q-68 -78 -165 -78q-31 0 -59 9.5t-55.5 31t-44 64t-16.5 101.5z" />
    <glyph glyph-name="uni0257" unicode="&#x257;" horiz-adv-x="611" 
d="M281 94q44 0 77.5 27.5t50 67t24.5 73.5t8 58q0 52 -23 82t-65 30q-48 0 -86.5 -38t-56.5 -88.5t-18 -98.5q0 -52 23.5 -82.5t65.5 -30.5zM50 183q0 82 36.5 165.5t106.5 142t154 58.5q97 0 132 -79l29 135q13 66 48.5 95t100.5 29q37 0 82 -5l-24 -112q-12 4 -24 4
q-22 0 -33.5 -9.5t-16.5 -32.5l-122 -574h-140l12 55q-69 -78 -166 -78q-31 0 -59 9.5t-55.5 31t-44 64t-16.5 101.5z" />
    <glyph glyph-name="uni0258" unicode="&#x258;" horiz-adv-x="556" 
d="M377 549q58 0 100 -17.5t63.5 -48t30.5 -64t9 -74.5q0 -167 -97.5 -267.5t-223.5 -100.5q-91 0 -145.5 46t-63.5 129h138q4 -28 28 -45.5t60 -17.5q106 0 145 137h-363q9 80 38.5 141.5t65 95t80 54t76 26.5t59.5 6zM219 319h220q1 8 1 24q0 94 -89 94q-30 0 -53 -10.5
t-39 -32t-23 -35.5t-17 -40z" />
    <glyph glyph-name="schwa" unicode="&#x259;" horiz-adv-x="556" 
d="M282 -23q-95 0 -153.5 55t-58.5 143q0 57 18 125h363q3 28 3 45q0 41 -26 66.5t-69 25.5q-36 0 -66.5 -17t-45.5 -46h-138q41 83 113.5 129t163.5 46q94 0 152.5 -57.5t58.5 -150.5q0 -24 -5 -55t-17 -74.5t-35.5 -83t-56.5 -74.5t-85 -56t-116 -21zM299 89
q101 0 134 118h-220q0 -28 2.5 -45.5t10.5 -36t26 -27.5t47 -9z" />
    <glyph glyph-name="uni025A" unicode="&#x25a;" horiz-adv-x="834" 
d="M193 207q-2 -22 -2 -31q0 -92 85 -92q93 0 132 123h-215zM573 354q0 -45 -11 -94.5t-37 -100.5t-62 -91t-91.5 -65.5t-120.5 -25.5q-37 0 -70 9.5t-64 31t-49 63t-18 98.5q0 62 18 121h362q6 38 6 56q0 86 -88 86q-79 0 -122 -68h-138q41 80 119 127.5t169 47.5t142 -48
l87 69h105q10 -46 17.5 -102t12.5 -87.5t12 -43.5q4 1 7.5 2t8 4.5t8.5 6.5t10.5 9.5l12 12t15 16.5t17.5 20t22.5 25t26.5 30l-42 -195q-38 -30 -65 -42t-59 -12q-92 0 -115 214l-31 -20q5 -27 5 -54z" />
    <glyph glyph-name="uni025B" unicode="&#x25b;" horiz-adv-x="570" 
d="M284 104q122 0 150 72h130q-24 -58 -57.5 -96.5t-75.5 -57t-82 -25.5t-92 -7q-207 0 -207 117q0 105 105 164q-41 30 -41 77q0 35 13.5 68t44 65t91.5 51.5t145 19.5q109 0 159 -31.5t50 -115.5q0 -11 -2 -39h-130q1 4 1 11q0 61 -112 61q-68 0 -94.5 -20t-26.5 -46
q0 -25 19 -37t70 -12h73l-29 -104h-72q-69 0 -95.5 -21.5t-26.5 -50.5q0 -43 92 -43z" />
    <glyph glyph-name="uni025C" unicode="&#x25c;" horiz-adv-x="546" 
d="M286 87q118 0 118 76q0 45 -71 45h-92l24 110h94q44 0 62.5 25.5t18.5 53.5q0 19 -19.5 30.5t-52.5 11.5q-100 0 -116 -73h-135q20 86 92.5 134.5t181.5 48.5q89 0 138.5 -37t49.5 -103q0 -43 -18 -80.5t-51 -57.5q39 -29 39 -75q0 -94 -78 -156.5t-201 -62.5
q-220 0 -220 142q0 19 4 38h137v-8q0 -30 20.5 -46t74.5 -16z" />
    <glyph glyph-name="uni025D" unicode="&#x25d;" horiz-adv-x="820" 
d="M549 195q0 -35 -15.5 -71t-46.5 -70t-87.5 -55.5t-129.5 -21.5q-220 0 -220 143q0 18 3 37h137q0 -17 3 -27t11.5 -21.5t28.5 -16.5t52 -5q119 0 119 77q0 44 -71 44h-92l24 110h94q25 0 42 8t24 21t9.5 23t2.5 20q0 49 -69 49q-100 0 -116 -73h-135q20 86 92.5 134.5
t181.5 48.5q91 0 140 -38l82 59h106q9 -45 16.5 -102.5t12.5 -90t13 -43.5q3 0 6 1.5t6 2.5t7 4.5t7.5 6.5t9.5 9.5t11.5 12.5t14.5 16.5t17.5 20t21.5 25t26 29.5l-42 -197q-39 -31 -65.5 -43.5t-58.5 -12.5q-27 0 -47 15t-32 36.5t-20 55.5t-11.5 61t-6.5 65l-27 -20
q1 -4 1 -13q0 -43 -18 -79.5t-51 -58.5q39 -29 39 -76z" />
    <glyph glyph-name="uni025E" unicode="&#x25e;" horiz-adv-x="570" 
d="M338 319q117 0 117 71q0 44 -94 44q-48 0 -84 -21.5t-54.5 -51t-29.5 -69.5t-13.5 -67t-2.5 -53q0 -38 25 -53.5t89 -15.5q117 0 117 69q0 26 -22.5 35.5t-69.5 9.5h-71l22 102h71zM541 187q0 -36 -13 -68t-42 -62.5t-86 -48.5t-136 -18q-117 0 -165.5 39.5t-48.5 120.5
q0 46 6 91t27 103t55 100.5t97 72.5t147 30q209 -3 209 -122q0 -35 -10.5 -64t-28 -47.5t-30 -28.5t-25.5 -17q44 -33 44 -81z" />
    <glyph glyph-name="uni025F" unicode="&#x25f;" horiz-adv-x="278" 
d="M260 207l-64 -301q-14 -66 -49.5 -95t-100.5 -29q-36 0 -81 5l23 112q13 -4 24 -4q23 0 34.5 9.5t15.5 32.5l58 270h-67l28 135h67l43 198h140l-43 -198h65l-28 -135h-65z" />
    <glyph glyph-name="uni0260" unicode="&#x260;" horiz-adv-x="611" 
d="M350 432q-66 0 -111.5 -74t-45.5 -155q0 -50 22 -79.5t61 -29.5q40 0 71.5 19.5t47.5 47t27 55.5t14 48l3 19q4 19 4 39q0 49 -26 79.5t-67 30.5zM49 170q0 85 36 171.5t106 147t154 60.5q90 0 130 -92l23 107q14 66 49 95t100 29q28 0 73 -5l-24 -112q-12 4 -22 4
q-41 0 -48 -35l-119 -558q-20 -95 -98.5 -147.5t-200.5 -52.5q-113 0 -161.5 39t-48.5 87q0 12 3 27h145q5 -63 86 -63q52 0 91.5 30.5t50.5 79.5l16 73q-49 -44 -86 -61t-84 -17q-80 0 -125.5 52t-45.5 141z" />
    <glyph glyph-name="uni0261" unicode="&#x261;" horiz-adv-x="611" 
d="M235 -218q-113 0 -161 36.5t-48 85.5q0 13 3 31h144q-1 -7 -1 -12q0 -22 24.5 -36.5t61.5 -14.5q55 0 95 30.5t51 79.5l16 73q-48 -44 -84 -61t-82 -17q-76 0 -125.5 54t-49.5 136q0 53 13 107.5t39 103.5t61.5 87.5t83.5 61t102 22.5q87 0 127 -92l18 83h133l-119 -558
q-20 -95 -99 -147.5t-203 -52.5zM379 437q-61 0 -109 -72t-48 -164q0 -52 22.5 -82t61.5 -30q67 0 116 67.5t49 158.5q0 56 -25 89t-67 33z" />
    <glyph glyph-name="uni0262" unicode="&#x262;" horiz-adv-x="556" 
d="M50 172q0 26 4.5 56.5t15 67.5t27 72t42.5 68t58.5 58t79 40t100.5 15q90 0 140.5 -45.5t50.5 -126.5q0 -19 -3 -39h-134q-1 53 -19 75.5t-60 22.5q-36 0 -65.5 -19.5t-46 -48t-28 -63.5t-15.5 -62t-4 -47q0 -51 22 -78.5t63 -27.5q34 0 59 15.5t46 51.5h-88l23 105h232
l-59 -274h-90l2 29q-67 -40 -150 -40q-98 0 -150.5 50.5t-52.5 144.5z" />
    <glyph glyph-name="gammalatin" unicode="&#x263;" horiz-adv-x="556" 
d="M211 -130q17 0 37.5 21t20.5 45q0 9 -3.5 23.5t-9.5 34.5t-8 28q-7 -9 -23 -28t-24 -29t-15 -25t-7 -27q0 -18 9 -30.5t23 -12.5zM187 140l-89 400h155l56 -245l171 245h154l-277 -400q1 -4 5.5 -18t6 -19t5.5 -18t5.5 -19t4 -17.5t4 -18.5t3 -17t2 -18.5t0.5 -16.5
q0 -85 -62 -141t-142 -56q-58 0 -95 33.5t-37 86.5q0 29 13.5 61.5t29 55t45 62t42.5 60.5z" />
    <glyph glyph-name="uni0264" unicode="&#x264;" horiz-adv-x="646" 
d="M341 89q33 0 53.5 39t20.5 75q0 44 -31 119q-82 -97 -82 -170q0 -63 39 -63zM306 550q56 0 113 -61q90 61 141 61q53 0 98.5 -51t45.5 -140q0 -35 -9 -76h-126q4 19 4 41q0 27 -7 50.5t-15 35.5t-14 12t-46 -32q66 -114 66 -197q0 -29 -14.5 -64.5t-41 -70.5t-74.5 -58.5
t-106 -23.5q-42 0 -78 12.5t-63.5 46.5t-27.5 87q0 120 158 280q-2 2 -7.5 10t-10.5 14t-8 6q-1 0 -7.5 -4t-17.5 -13.5t-22.5 -23.5t-23.5 -37t-20 -50h-126q16 58 42.5 104t54 72t57.5 42.5t50.5 22t34.5 5.5z" />
    <glyph glyph-name="uni0265" unicode="&#x265;" horiz-adv-x="619" 
d="M468 -218h-140l60 282q-75 -87 -180 -87q-72 0 -110 34t-38 98q0 27 7 55l80 376h140l-74 -347q-4 -16 -4 -33q0 -64 73 -64q51 0 88.5 29t47.5 77l72 338h140z" />
    <glyph glyph-name="uni0266" unicode="&#x266;" horiz-adv-x="611" 
d="M469 367q0 24 -16 43.5t-54 19.5q-47 0 -83.5 -29.5t-47.5 -76.5l-68 -324h-140l128 605q14 66 49 95t100 29q37 0 82 -5l-23 -112q-13 4 -25 4q-23 0 -34 -9.5t-15 -32.5l-24 -112q75 87 176 87q59 0 101 -30t42 -100q0 -28 -7 -57l-76 -362h-140l70 330q5 27 5 37z" />
    <glyph glyph-name="uni0267" unicode="&#x267;" horiz-adv-x="611" 
d="M462 367q0 24 -16 43.5t-54 19.5q-47 0 -83.5 -30t-46.5 -76l-69 -324h-140l128 605q14 66 49.5 95t100.5 29q35 0 82 -5l-24 -112q-13 4 -24 4q-23 0 -34.5 -9.5t-15.5 -32.5l-24 -112q75 87 176 87q60 0 101.5 -30t41.5 -100q0 -25 -6 -57l-97 -456q-14 -66 -49.5 -95
t-100.5 -29q-35 0 -82 5l24 112q13 -4 24 -4q23 0 34.5 9.5t15.5 32.5l84 393q5 27 5 37z" />
    <glyph glyph-name="uni0268" unicode="&#x268;" horiz-adv-x="278" 
d="M362 729l-27 -125h-140l27 125h140zM348 342l-29 -135h-68l-44 -207h-140l44 207h-64l29 135h64l42 198h140l-42 -198h68z" />
    <glyph glyph-name="uni0269" unicode="&#x269;" horiz-adv-x="326" 
d="M164 540h140l-87 -409q-2 -10 -2 -17q0 -25 34 -25q11 0 26 4l-24 -112q-39 -4 -84 -4q-53 0 -77.5 18.5t-24.5 59.5q0 20 5 45z" />
    <glyph glyph-name="uni026A" unicode="&#x26a;" horiz-adv-x="278" 
d="M118 540h272l-29 -135h-68l-57 -270h68l-29 -135h-272l29 135h64l57 270h-64z" />
    <glyph glyph-name="uni026B" unicode="&#x26b;" horiz-adv-x="473" 
d="M409 346q33 0 45.5 15.5t21.5 50.5h78q-40 -146 -158 -146q-17 0 -32 3l-57 -269h-140l75 353q-15 5 -28 5q-32 0 -44.5 -15t-22.5 -50h-78q39 145 158 145q19 0 32 -3l63 294h140l-80 -378q10 -5 27 -5z" />
    <glyph glyph-name="uni026C" unicode="&#x26c;" horiz-adv-x="527" 
d="M269 435q-49 0 -49 -33q0 -21 37 -21h44l11 54h-43zM339 558l36 171h140l-74 -348h132l-27 -127h-132l-54 -254h-140l54 254h-25q-32 0 -56.5 3.5t-51.5 13t-42 31t-15 54.5q0 32 14 65t40.5 63.5t72 51t102.5 22.5h26z" />
    <glyph glyph-name="uni026D" unicode="&#x26d;" horiz-adv-x="298" 
d="M47 -94l175 823h140l-168 -792q-2 -10 -2 -17q0 -13 8 -19t26 -6q11 0 26 4l-24 -112q-48 -5 -84 -5q-53 0 -77.5 18.5t-24.5 60.5q0 19 5 45z" />
    <glyph glyph-name="uni026E" unicode="&#x26e;" horiz-adv-x="778" 
d="M444 -23q36 0 63.5 16t41 39.5t19.5 43.5t6 34q0 25 -7 41.5t-17.5 25.5t-30.5 13.5t-36.5 5.5t-45.5 1l20 94l143 136h-315l-90 -427h-140l155 729h140l-40 -189h486l-25 -113l-165 -155q48 -16 79.5 -50.5t31.5 -91.5q0 -21 -6.5 -50t-26.5 -69.5t-51.5 -73.5
t-88.5 -56.5t-129 -23.5q-93 0 -144.5 46t-51.5 127q0 26 6 58h136q0 -29 1.5 -44.5t9 -33.5t25.5 -25.5t47 -7.5z" />
    <glyph glyph-name="uni026F" unicode="&#x26f;" horiz-adv-x="889" 
d="M801 3h-139l17 81q-44 -49 -83 -69.5t-88 -20.5q-46 0 -79.5 22t-44.5 60q-79 -82 -177 -82q-67 0 -104.5 33.5t-37.5 92.5q0 22 8 61l77 362h140l-72 -340q-5 -23 -5 -41q0 -56 58 -56q47 0 79.5 29.5t43.5 83.5l69 324h140l-74 -346q-3 -16 -3 -33q0 -26 17 -42t46 -16
q44 0 75.5 30.5t42.5 82.5l69 324h140z" />
    <glyph glyph-name="uni0270" unicode="&#x270;" horiz-adv-x="889" 
d="M754 -218h-140l61 285q-44 -41 -81 -58.5t-83 -17.5q-50 0 -84.5 21t-45.5 59q-77 -80 -175 -80q-68 0 -105 31.5t-37 89.5q0 19 5 46l82 382h140l-77 -360q-2 -12 -2 -18q0 -24 16.5 -38t46.5 -14q45 0 77 28.5t42 77.5l69 324h140l-77 -360q-2 -12 -2 -18
q0 -24 16.5 -38t46.5 -14q45 0 77 28.5t42 77.5l69 324h141z" />
    <glyph glyph-name="uni0271" unicode="&#x271;" horiz-adv-x="889" 
d="M170 540h139l-15 -67q44 41 81.5 58.5t83.5 17.5q105 0 130 -80q76 80 175 80q68 0 104.5 -31.5t36.5 -89.5q0 -19 -5 -46l-101 -476q-14 -66 -49.5 -95t-100.5 -29q-36 0 -81 5l23 112q13 -4 25 -4q23 0 34 9.5t15 32.5l90 423q2 6 2 18q0 24 -16.5 38t-46.5 14
q-45 0 -76 -28t-42 -78l-69 -324h-140l76 360q2 6 2 18q0 24 -16.5 38t-46.5 14q-45 0 -76 -28t-42 -78l-69 -324h-140z" />
    <glyph glyph-name="uni0272" unicode="&#x272;" horiz-adv-x="611" 
d="M193 540h140l-17 -78q73 87 181 87q71 0 109 -34t38 -98q0 -25 -6 -55l-77 -362h-140l71 333q3 18 3 32q0 65 -73 65q-51 0 -88 -29t-47 -77l-89 -418q-14 -66 -49.5 -95t-100.5 -29q-36 0 -81 5l23 112q13 -4 25 -4q23 0 34 9.5t15 32.5z" />
    <glyph glyph-name="uni0273" unicode="&#x273;" horiz-adv-x="611" 
d="M168 540h140l-17 -78q77 87 181 87q71 0 109 -34t38 -98q0 -25 -6 -55l-91 -425q-2 -12 -2 -17q0 -25 35 -25q12 0 25 4l-23 -112q-48 -5 -85 -5q-53 0 -77.5 18.5t-24.5 60.5q0 19 6 45l91 427q3 18 3 32q0 65 -73 65q-51 0 -88 -29t-47 -77l-69 -324h-140z" />
    <glyph glyph-name="uni0274" unicode="&#x274;" horiz-adv-x="615" 
d="M652 540l-115 -540h-155l-115 343l-73 -343h-140l115 540h155l115 -343l73 343h140z" />
    <glyph glyph-name="uni0275" unicode="&#x275;" horiz-adv-x="590" 
d="M51 181q0 97 40.5 180.5t118.5 135.5t177 52q105 0 161 -53t56 -151q0 -150 -93 -259t-244 -109q-104 0 -160 53.5t-56 150.5zM460 302v17q0 55 -25 86t-71 31q-49 0 -90 -36.5t-63 -97.5h249zM443 222h-249v-15q0 -54 26 -85.5t71 -31.5q48 0 89 36t63 96z" />
    <glyph glyph-name="uni0276" unicode="&#x276;" horiz-adv-x="878" 
d="M50 177q0 45 10.5 92t36.5 96t64 87t98.5 62.5t133.5 24.5q65 0 116 -20l1 5h405l-26 -125h-259l-14 -67h225l-27 -126h-225l-17 -80h263l-27 -126h-404q-61 -23 -129 -23q-110 0 -167.5 52t-57.5 148zM367 412q-47 0 -83 -21t-55 -54t-28 -65.5t-9 -61.5q0 -51 29 -78.5
t81 -27.5q82 0 133 67l37 174q-19 67 -105 67z" />
    <glyph glyph-name="uni0277" unicode="&#x277;" horiz-adv-x="822" 
d="M571 113q35 0 61.5 19.5t39.5 49.5t19 57t6 50q0 70 -54 97t-163 27q-68 0 -121 -15t-84 -37.5t-51.5 -53t-27.5 -58.5t-7 -57q0 -79 71 -79q81 0 96 65l32 150h148l-32 -150q-2 -8 -2 -14q0 -51 69 -51zM50 157q0 32 5 65.5t19.5 72t36 73t57.5 67t82.5 56t112.5 37.5
t144 14q93 0 160 -18.5t102.5 -52t51 -71.5t15.5 -85q0 -50 -16.5 -104t-49 -104.5t-90.5 -83t-131 -32.5q-99 0 -144 68q-72 -68 -174 -68q-181 0 -181 166z" />
    <glyph glyph-name="philatin" unicode="&#x278;" horiz-adv-x="778" 
d="M355 434q-59 -9 -104.5 -76.5t-45.5 -151.5q0 -48 20 -78t57 -36zM495 435l-73 -343q68 12 109 82t41 146q0 101 -77 115zM519 548q95 -5 145.5 -57.5t50.5 -144.5q0 -25 -5 -56t-17 -73t-35.5 -81t-57 -74t-86 -57.5t-116.5 -26.5l-38 -179h-140l38 178q-94 5 -145 58
t-51 144q0 24 5 55.5t17 74t36.5 82t57.5 74.5t85.5 58t116.5 26l38 180h140z" />
    <glyph glyph-name="uni0279" unicode="&#x279;" horiz-adv-x="389" 
d="M349 1h-140l23 106q-35 -55 -81 -85t-94 -30q-9 0 -17 1l30 142q24 -4 43 -4q124 0 150 123l61 287h140z" />
    <glyph glyph-name="uni027A" unicode="&#x27a;" horiz-adv-x="389" 
d="M348 0h-140l23 107q-34 -54 -80 -84.5t-94 -30.5q-9 0 -17 1l30 142q24 -4 43 -4q123 0 149 123l101 475h140z" />
    <glyph glyph-name="uni027B" unicode="&#x27b;" horiz-adv-x="406" 
d="M324 541h140l-129 -603q-2 -12 -2 -17q0 -25 34 -25q13 0 26 4l-23 -112q-48 -5 -85 -5q-53 0 -77.5 18.5t-24.5 60.5q0 20 6 45l42 200q-34 -54 -80 -84.5t-94 -30.5q-9 0 -17 1l30 142q25 -4 43 -4q123 0 150 123z" />
    <glyph glyph-name="uni027C" unicode="&#x27c;" horiz-adv-x="419" 
d="M171 540h140l-23 -106q34 55 80.5 85t94.5 30q9 0 16 -1l-30 -142q-24 4 -43 4q-124 0 -149 -123l-104 -487h-140z" />
    <glyph glyph-name="uni027D" unicode="&#x27d;" horiz-adv-x="389" 
d="M168 540h140l-23 -106q34 55 80.5 85t94.5 30q9 0 16 -1l-30 -142q-24 4 -43 4q-123 0 -149 -123l-75 -350q-2 -12 -2 -17q0 -25 35 -25q12 0 25 4l-23 -112q-48 -5 -85 -5q-53 0 -77.5 18.5t-24.5 60.5q0 19 6 45z" />
    <glyph glyph-name="uni027E" unicode="&#x27e;" horiz-adv-x="455" 
d="M503 362l-7 -29h-140q10 43 10 63q0 34 -33 34q-30 0 -44.5 -22.5t-25.5 -74.5l-70 -333h-140l77 362q19 89 76.5 138t143.5 49q159 0 159 -130q0 -27 -6 -57z" />
    <glyph glyph-name="uni027F" unicode="&#x27f;" horiz-adv-x="455" 
d="M91 362q5 26 18 57q55 130 214 130q72 0 109.5 -34t37.5 -97q0 -25 -6 -56l-109 -562h-140l104 533q7 36 7 57q0 40 -36 40q-33 0 -48 -34q-8 -21 -16 -63h-140z" />
    <glyph glyph-name="uni0280" unicode="&#x280;" horiz-adv-x="620" 
d="M452 218l109 -218h-179l-99 207h-44l-44 -207h-140l115 540h291q77 0 119 -32t42 -88q0 -57 -41.5 -118t-128.5 -84zM408 430h-122l-24 -113h122q14 0 22.5 0.5t24 4t24 10.5t15.5 21.5t7 34.5q0 42 -69 42z" />
    <glyph glyph-name="uni0281" unicode="&#x281;" horiz-adv-x="586" 
d="M573 196q0 -86 -62.5 -141t-164.5 -55h-291l115 540h140l-44 -207h44l187 207h179l-202 -218q48 -14 73.5 -47t25.5 -79zM340 110q94 0 94 78q0 21 -16 28t-54 7h-122l-24 -113h122z" />
    <glyph glyph-name="uni0282" unicode="&#x282;" horiz-adv-x="606" 
d="M603 196q0 -93 -77.5 -156t-201.5 -63q-67 0 -115 14l-18 -85q-14 -66 -49.5 -95t-100.5 -29q-36 0 -81 5l23 112q13 -4 25 -4q44 0 52 42l47 220h137v-2q0 -35 19 -51.5t76 -16.5q62 0 89.5 19.5t27.5 43.5q0 21 -39 34l-156 52q-1 0 -12.5 4t-17 6.5t-17.5 8
t-18.5 12.5t-14 16.5t-11 22.5t-3.5 29q0 88 73 151t192 63q95 0 147.5 -38.5t52.5 -106.5q0 -12 -4 -38h-135q1 6 1 17q0 56 -87 56q-39 0 -66 -16.5t-27 -43.5q0 -11 9 -17.5t33 -14.5l166 -51q81 -26 81 -100z" />
    <glyph glyph-name="uni0283" unicode="&#x283;" horiz-adv-x="333" 
d="M349 582l-143 -676q-14 -66 -49.5 -95t-100.5 -29q-35 0 -82 5l24 112q13 -4 24 -4q23 0 34.5 9.5t15.5 32.5l140 657q28 135 167 135q40 0 79 -3l-22 -105q-18 3 -40 3q-38 0 -47 -42z" />
    <glyph glyph-name="uni0284" unicode="&#x284;" horiz-adv-x="302" 
d="M374 343l-20 -93h-83l-74 -344q-14 -66 -49.5 -95t-100.5 -29q-35 0 -82 5l24 112q13 -4 24 -4q22 0 33.5 9.5t16.5 32.5l68 313h-76l20 93h76l52 251q28 135 167 135q40 0 79 -3l-22 -105q-18 3 -40 3q-38 0 -47 -42l-49 -239h83z" />
    <glyph glyph-name="uni0285" unicode="&#x285;" horiz-adv-x="333" 
d="M187 413q2 6 2 15q0 27 -31 27q-22 0 -40 -3l22 105q39 3 81 3q114 0 114 -91q0 -17 -5 -44l-104 -488q-2 -12 -2 -17q0 -25 34 -25q13 0 26 4l-24 -112q-47 -5 -84 -5q-53 0 -77.5 18.5t-24.5 60.5q0 19 6 45z" />
    <glyph glyph-name="uni0286" unicode="&#x286;" horiz-adv-x="556" 
d="M554 12l-65 -113q-10 4 -43 15.5t-45 15.5q-7 -34 -14.5 -54.5t-23.5 -45t-45 -36.5t-71 -12q-76 0 -130 14.5t-80 38.5t-36.5 46.5t-10.5 45.5q0 24 13.5 52t39 56.5t71.5 47t103 18.5q35 0 79 -9l106 502q30 135 167 135q41 0 79 -3l-22 -105q-18 3 -39 3
q-38 0 -47 -42l-112 -525q75 -25 126 -45zM186 -22q-18 0 -37.5 -11.5t-19.5 -28.5q0 -19 32.5 -31t51.5 -12q27 0 36.5 13.5t18.5 58.5q-41 11 -82 11z" />
    <glyph glyph-name="uni0287" unicode="&#x287;" horiz-adv-x="328" 
d="M21 -2l20 93h78l62 294q6 26 6 34q0 25 -38 25q-12 0 -33 -3l20 98q39 11 85 11q55 0 84 -22.5t29 -63.5q0 -18 -5 -41l-70 -332h69l-20 -93h-69l-31 -145h-140l31 145h-78z" />
    <glyph glyph-name="uni0288" unicode="&#x288;" horiz-adv-x="333" 
d="M425 529l-20 -93h-78l-104 -489q-4 -17 -4 -32t8.5 -21t29.5 -6q11 0 32 3l-20 -98q-37 -11 -84 -11q-114 0 -114 88q0 20 4 39l112 527h-69l20 93h69l31 145h140l-31 -145h78z" />
    <glyph glyph-name="uni0289" unicode="&#x289;" horiz-adv-x="623" 
d="M546 0h-140l14 64q-77 -87 -181 -87q-72 0 -109.5 34t-37.5 98q0 25 6 55l9 43h-63l29 135h63l42 198h140l-42 -198h203l42 198h140l-42 -198h67l-29 -135h-67zM247 207l-3 -14q-4 -16 -4 -33q0 -64 73 -64q48 0 86.5 27t50.5 84h-203z" />
    <glyph glyph-name="uni028A" unicode="&#x28a;" horiz-adv-x="686" 
d="M357 100q51 0 94.5 19.5t70 49t41 61.5t14.5 59q0 85 -107 152l22 103h282l-27 -123h-73q42 -60 42 -134q0 -36 -16.5 -78t-50 -83t-78.5 -74.5t-108 -54t-132 -20.5q-65 0 -115 16t-78.5 40.5t-46.5 56.5t-24.5 60t-6.5 56q0 59 35 116t82 99h-74l27 123h282l-22 -103
q-55 -27 -93.5 -57t-56.5 -56.5t-25 -46.5t-7 -37q0 -16 3 -33t13 -37.5t25.5 -36t43.5 -26.5t64 -11z" />
    <glyph glyph-name="uni028B" unicode="&#x28b;" horiz-adv-x="630" 
d="M261 100q56 0 102.5 22t74.5 55.5t43 69t15 65.5q0 27 -10.5 53.5t-24 44.5t-36 38t-36 29t-35.5 22.5t-23 14.5l225 7q36 -27 60 -80.5t24 -112.5q0 -54 -28.5 -114.5t-79 -113.5t-129 -88t-168.5 -35h-67q-52 0 -80 20.5t-28 56.5q0 14 2 22l95 448h136l-86 -404
q0 -1 -1 -3v-2q0 -15 55 -15z" />
    <glyph glyph-name="uni028C" unicode="&#x28c;" horiz-adv-x="556" 
d="M320 540h147l74 -540h-148l-30 395l-196 -395h-148z" />
    <glyph glyph-name="uni028D" unicode="&#x28d;" horiz-adv-x="778" 
d="M271 540h145l5 -380l166 380h144l37 -540h-145l-5 378l-159 -378h-144v378l-163 -378h-145z" />
    <glyph glyph-name="uni028E" unicode="&#x28e;" horiz-adv-x="556" 
d="M151 1h-144l358 638q25 47 44 66q57 55 170 55q27 0 44 -4l-23 -109q-11 2 -28 2q-52 0 -82.5 -25t-30.5 -68q13 -107 40.5 -299.5l36.5 -255.5h-154l-36 393z" />
    <glyph glyph-name="uni028f" unicode="&#x28f;" horiz-adv-x="556" 
d="M386 168l-36 -168h-147l36 168l-110 372h148l69 -227l157 227h148z" />
    <glyph glyph-name="uni0290" unicode="&#x290;" horiz-adv-x="519" 
d="M572 540l-24 -113l-332 -314h274l-38 -176q-1 -6 -1 -15q0 -27 36 -27q13 0 26 4l-24 -112q-47 -5 -84 -5q-53 0 -77.5 18.5t-24.5 60.5q0 19 6 45l20 94h-310l24 113l334 314h-249l24 113h420z" />
    <glyph glyph-name="uni0291" unicode="&#x291;" horiz-adv-x="571" 
d="M399 0l-20 -96h-117l20 96h-261l24 113l334 314h-249l24 113h420l-24 -113l-332 -314h88q13 52 63 92.5t109 40.5q52 0 85.5 -29t33.5 -78q0 -38 -13.5 -65.5t-31.5 -41.5t-48 -21.5t-51.5 -9t-53.5 -1.5zM480 123q0 20 -23 20q-25 0 -32 -30q34 0 44.5 1.5t10.5 8.5z
" />
    <glyph glyph-name="yogh" unicode="&#x292;" horiz-adv-x="556" 
d="M275 -23q36 0 63.5 16t41 39.5t20 43.5t6.5 34q0 63 -58 80q-27 7 -80 7l20 94l144 136h-249l24 113h420l-24 -113l-166 -155q111 -36 111 -142q0 -21 -6.5 -50t-26.5 -69.5t-51 -73.5t-88 -56.5t-130 -23.5q-93 0 -144.5 46t-51.5 127q0 29 7 58h136q-3 -16 -3 -30
q0 -81 85 -81z" />
    <glyph glyph-name="uni0293" unicode="&#x293;" horiz-adv-x="632" 
d="M248 15q-53 0 -53 -17q0 -21 58 -21q44 0 80 27q-41 11 -85 11zM55 -18q0 25 12.5 51t37.5 50t70 39.5t103 15.5q43 0 108 -15q-4 24 -17 39.5t-34.5 22.5t-40.5 9.5t-45 2.5l20 94l144 136h-249l24 113h420l-24 -113l-166 -155q48 -15 79.5 -50.5t31.5 -92.5
q0 -18 -5 -46q65 -22 91 -33l-66 -114q-9 3 -39 11.5t-44 13.5q-1 -1 -8.5 -9t-12.5 -12.5t-16 -14t-21 -16t-25 -15.5t-31 -14.5t-35 -11.5t-42 -8.5t-47 -2.5q-89 0 -131 37.5t-42 87.5z" />
    <glyph glyph-name="uni0294" unicode="&#x294;" horiz-adv-x="563" 
d="M404 626q-47 0 -86.5 -37.5t-54.5 -107.5h-136q15 65 42 114t57 76.5t68 44.5t68.5 22.5t63.5 5.5q95 0 150.5 -48.5t55.5 -129.5q0 -23 -4 -44.5t-9.5 -38.5t-15.5 -34.5t-18 -29.5t-22 -26t-22 -21t-23 -18t-20.5 -14.5t-19 -11.5l-13.5 -8q-52 -32 -67 -51t-25 -68
l-43 -201h-124l43 201q9 45 27.5 80.5t40 57.5t46 40t46.5 33t39.5 31.5t28.5 40.5t11 55q0 38 -23 62.5t-61 24.5z" />
    <glyph glyph-name="uni0295" unicode="&#x295;" horiz-adv-x="563" 
d="M394 626q-55 0 -93.5 -45t-38.5 -95q0 -29 18 -53.5t39 -41t39 -50t18 -77.5q0 -29 -7 -63l-43 -201h-124l43 201q6 30 6 48q0 25 -21 48t-45.5 39.5t-45.5 49t-21 75.5q0 25 6 53q22 102 105 166t193 64q36 0 67 -7.5t62 -25.5t49 -56t18 -92q0 -35 -9 -82h-136
q7 28 7 47q0 44 -23.5 71t-62.5 27z" />
    <glyph glyph-name="uni0296" unicode="&#x296;" horiz-adv-x="563" 
d="M282 118q55 0 93.5 45t38.5 95q0 29 -18 53.5t-39 41t-39 50t-18 77.5q0 29 7 63l43 201h124l-43 -201q-6 -30 -6 -48q0 -25 21 -48t45.5 -39.5t45.5 -49t21 -75.5q0 -25 -6 -53q-22 -102 -105 -166t-193 -64q-36 0 -67 7.5t-62 25.5t-49 56t-18 92q0 35 9 82h136
q-7 -28 -7 -47q0 -44 23.5 -71t62.5 -27z" />
    <glyph glyph-name="cstretch" unicode="&#x297;" horiz-adv-x="556" 
d="M270 450l-79 -369q-7 -34 -7 -63q0 -51 22 -78.5t63 -27.5t68.5 22.5t52.5 74.5h134q-30 -97 -105.5 -153.5t-174 -56.5t-151 50.5t-52.5 144.5q0 40 10 87l78 368q30 138 113 214t204 76q91 0 141 -45.5t50 -126.5q0 -19 -3 -39h-134q0 53 -18 75.5t-61 22.5
q-34 0 -61.5 -16t-44.5 -44t-27.5 -55.5t-17.5 -60.5z" />
    <glyph glyph-name="uni0298" unicode="&#x298;" horiz-adv-x="579" 
d="M50 177q0 155 91.5 263.5t239.5 108.5q103 0 162 -53.5t59 -146.5q0 -158 -93 -265t-242 -107q-99 0 -158 54.5t-59 145.5zM292 89q47 0 82 27.5t52 68t25 75.5t8 60q0 53 -27 85t-73 32q-68 0 -117 -68.5t-49 -163.5q0 -53 27 -84.5t72 -31.5zM389 315l-22 -100h-105
l22 100h105z" />
    <glyph glyph-name="uni0299" unicode="&#x299;" horiz-adv-x="572" 
d="M576 182q0 -76 -62.5 -129t-162.5 -53h-291l115 540h288q84 0 116.5 -35.5t32.5 -81.5q0 -29 -10.5 -53t-30.5 -41.5t-30.5 -25t-28.5 -17.5q64 -43 64 -104zM387 333q43 0 64.5 12.5t21.5 49.5q0 20 -15.5 27.5t-50.5 7.5h-116l-20 -97h116zM345 110q94 0 94 78
q0 21 -16 28t-54 7h-122l-24 -113h122z" />
    <glyph glyph-name="uni029A" unicode="&#x29a;" horiz-adv-x="570" 
d="M303 217q-117 0 -117 -70q0 -44 94 -44q56 0 95 27t57 71.5t25 84t7 80.5q0 39 -24.5 53.5t-89.5 14.5q-66 0 -91.5 -18.5t-25.5 -51.5q0 -26 22.5 -35.5t69.5 -9.5h71l-22 -102h-71zM100 350q0 26 5 50t22.5 52t46.5 48t81 33.5t122 13.5q107 0 160.5 -35t53.5 -126
q0 -44 -5.5 -88t-26.5 -102.5t-55 -101.5t-97.5 -73.5t-147.5 -30.5q-209 0 -209 123q0 102 94 155q-44 31 -44 82z" />
    <glyph glyph-name="uni029b" unicode="&#x29b;" horiz-adv-x="616" 
d="M50 172q0 38 8.5 83t32 98.5t58.5 96t94.5 71t133.5 28.5q76 0 123 -32q40 27 103 27q40 0 79 -3l-22 -105q-18 3 -40 3q-44 0 -53 -41q0 -4 0.5 -11t0.5 -10q0 -18 -3 -39h-134q-1 53 -18.5 75.5t-60.5 22.5q-44 0 -77.5 -28.5t-50 -71t-24 -78.5t-7.5 -62
q0 -51 22 -78.5t63 -27.5q66 0 105 67h-88l23 105h232l-59 -274h-90l2 29q-68 -40 -150 -40q-99 0 -151 50.5t-52 144.5z" />
    <glyph glyph-name="uni029C" unicode="&#x29c;" horiz-adv-x="603" 
d="M174 540h140l-40 -188h203l40 188h140l-115 -540h-140l53 237h-203l-53 -237h-140z" />
    <glyph glyph-name="uni029D" unicode="&#x29d;" horiz-adv-x="552" 
d="M187 -22q-19 0 -38 -11.5t-19 -28.5q0 -19 32.5 -31t50.5 -12q27 0 36.5 13.5t18.5 58.5q-41 11 -81 11zM-10 -72q0 23 13.5 51.5t39 56.5t71.5 46.5t103 18.5q35 0 79 -9l95 448h140l-103 -483q81 -27 126 -45l-66 -113q-8 3 -23 8.5t-34.5 12.5t-29.5 10
q-7 -34 -14.5 -54.5t-23.5 -45t-45 -36.5t-71 -12q-61 0 -108.5 10t-74.5 25.5t-44.5 36t-23.5 38.5t-6 36zM571 729l-27 -125h-140l27 125h140z" />
    <glyph glyph-name="uni029E" unicode="&#x29e;" horiz-adv-x="556" 
d="M323 -191l85 399l-223 -210h-159l232 206l-129 334h164l79 -239l68 62l38 177h140l-155 -729h-140z" />
    <glyph glyph-name="uni029F" unicode="&#x29f;" horiz-adv-x="454" 
d="M408 0h-348l115 540h140l-91 -427h208z" />
    <glyph glyph-name="uni02A0" unicode="&#x2a0;" horiz-adv-x="611" 
d="M281 93q44 0 78 27.5t50.5 67t24 74t7.5 58.5q0 53 -23 82.5t-65 29.5q-36 0 -65 -19t-46.5 -46t-29 -60t-16 -58.5t-4.5 -43.5q0 -52 23.5 -82t65.5 -30zM50 178q0 47 12.5 97.5t38 99.5t60 87.5t83 62.5t102.5 24q99 0 131 -89l22 104q14 66 49 95t100 29q37 0 82 -5
l-24 -112q-12 4 -24 4q-22 0 -33.5 -9.5t-16.5 -32.5l-159 -751h-140l60 282q-69 -88 -170 -88q-30 0 -58 9.5t-55 30.5t-43.5 62.5t-16.5 99.5z" />
    <glyph glyph-name="uni02A1" unicode="&#x2a1;" horiz-adv-x="546" 
d="M404 626q-47 0 -86.5 -37.5t-54.5 -107.5h-136q18 80 53.5 135.5t80 81.5t84 36t81.5 10q95 0 150.5 -48.5t55.5 -129.5q0 -23 -4 -44.5t-9.5 -39t-15.5 -34.5t-18 -29t-22 -26t-22 -21.5t-23 -18t-20.5 -14t-19.5 -11.5l-13 -8q-52 -32 -67 -51t-25 -68l-4 -18h86
l-20 -93h-86l-19 -90h-124l19 90h-89l20 93h89l4 18q11 52 34 91.5t49 61t54 42.5t50.5 37t37 43t14.5 63q0 39 -23 63t-61 24z" />
    <glyph glyph-name="uni02a2" unicode="&#x2a2;" horiz-adv-x="546" 
d="M617 479h-136q6 27 6 49q0 49 -24 72.5t-61 23.5q-54 0 -93 -44.5t-39 -96.5q0 -24 11.5 -43t28.5 -34t34 -32t28.5 -45t11.5 -64q0 -29 -7 -64l-4 -18h88l-20 -93h-88l-19 -90h-124l19 90h-87l20 93h87l4 18q6 32 6 47q0 20 -13.5 38t-33 34t-39.5 34t-33.5 45.5
t-13.5 60.5q0 49 20.5 98t58 90.5t96.5 67.5t129 26q28 0 53 -4t52.5 -15.5t47 -30.5t32 -52t12.5 -76q0 -39 -10 -85z" />
    <glyph glyph-name="uni02a3" unicode="&#x2a3;" horiz-adv-x="1004" 
d="M76 182q0 88 39.5 173t109 139.5t148.5 54.5q97 0 132 -79l55 259h140l-40 -189h418l-24 -113l-332 -314h274l-24 -113h-567l12 55q-68 -78 -166 -78q-82 0 -128.5 57t-46.5 148zM307 94q46 0 83.5 35t57 86t19.5 105q0 52 -23 82t-65 30q-46 0 -84 -36t-57.5 -87.5
t-19.5 -101.5q0 -52 23.5 -82.5t65.5 -30.5zM636 427l-62 -290l309 290h-247z" />
    <glyph glyph-name="uni02a4" unicode="&#x2a4;" horiz-adv-x="1018" 
d="M76 182q0 88 39.5 173t109 139.5t148.5 54.5q97 0 132 -79l55 259h140l-40 -189h420l-24 -113l-166 -155q48 -15 79.5 -50t31.5 -92q0 -34 -11 -70.5t-35 -73t-58.5 -65t-85.5 -46.5t-111 -18q-84 0 -134.5 37.5t-60.5 105.5h-100l12 55q-68 -78 -166 -78
q-82 0 -128.5 57t-46.5 148zM307 94q46 0 83.5 35t57 86t19.5 105q0 52 -23 82t-65 30q-46 0 -84 -36t-57.5 -87.5t-19.5 -101.5q0 -52 23.5 -82.5t65.5 -30.5zM728 -23q53 0 92 39.5t39 93.5q0 30 -15 51t-43 29q-26 7 -80 7l20 94l144 136h-249l-72 -339h82q-3 -16 -3 -30
q0 -81 85 -81z" />
    <glyph glyph-name="uni02a5" unicode="&#x2a5;" horiz-adv-x="1097" 
d="M986 123q0 8 -5.5 14t-17.5 6q-24 0 -32 -30q36 0 45.5 1.5t9.5 8.5zM76 182q0 88 39.5 173t109 139.5t148.5 54.5q97 0 132 -79l55 259h140l-40 -189h420l-24 -113l-332 -314h88q13 52 63 92.5t109 40.5q52 0 85 -30t33 -78q0 -38 -12.5 -65t-30.5 -40.5t-47.5 -21.5
t-51.5 -9.5t-55 -1.5l-20 -96h-117l20 96h-383l12 55q-68 -78 -166 -78q-82 0 -128.5 57t-46.5 148zM307 94q46 0 83.5 35t57 86t19.5 105q0 52 -23 82t-65 30q-46 0 -84 -36t-57.5 -87.5t-19.5 -101.5q0 -52 23.5 -82.5t65.5 -30.5zM636 427l-62 -293l311 293h-249z" />
    <glyph glyph-name="uni02a6" unicode="&#x2a6;" horiz-adv-x="804" 
d="M810 196q0 -27 -8.5 -55t-29.5 -58t-51.5 -53t-80 -38t-109.5 -15h-316q-114 0 -114 88q0 18 4 39l71 332h-69l19 93h69l31 145h140l-31 -145h78l-19 -93h-78l-63 -294q-4 -20 -4 -32q0 -15 8.5 -21t29.5 -6l259 2q53 0 85 17.5t32 47.5q0 11 -9 19t-30 15l-156 52
q-1 0 -11 3.5t-14.5 5t-15 6.5t-16 9.5t-13.5 12t-12.5 16t-7.5 21t-3 25.5q0 25 8 52.5t28 57t49 52t75.5 37.5t103.5 15q95 0 147.5 -38t52.5 -107q0 -18 -4 -38h-135q2 9 2 17q0 56 -88 56q-40 0 -66.5 -16.5t-26.5 -43.5q0 -11 9 -17.5t33 -14.5l166 -51q81 -26 81 -100
z" />
    <glyph glyph-name="uni02a7" unicode="&#x2a7;" horiz-adv-x="593" 
d="M614 582l-144 -676q-14 -66 -49 -95t-100 -29q-37 0 -82 5l24 112q12 -4 24 -4q22 0 33.5 9.5t16.5 32.5l10 50q-41 -10 -132 -10q-114 0 -114 88q0 18 4 39l71 332h-69l19 93h69l31 145h140l-31 -145h127l14 65q29 135 167 135q41 0 79 -3l-22 -105q-17 3 -39 3
q-38 0 -47 -42zM368 86l75 350h-127l-63 -294q-4 -20 -4 -32q0 -15 8.5 -21t29.5 -6q52 0 81 3z" />
    <glyph glyph-name="uni02a8" unicode="&#x2a8;" horiz-adv-x="840" 
d="M681 126q-2 23 -21 23q-13 0 -55 -21t-62 -34q27 -7 41 -7q23 0 60 15t37 24zM341 172q0 26 4.5 56.5t15 67.5t27 72t42.5 68t58.5 58t79 40t100.5 15q90 0 140.5 -45.5t50.5 -126.5q0 -19 -3 -39h-134q-1 53 -19 75.5t-60 22.5q-36 0 -65.5 -19.5t-46 -48t-28 -63.5
t-15.5 -62t-4 -47v-18q92 53 148.5 71t108.5 18q35 0 58.5 -22.5t23.5 -48.5q0 -21 -10 -48.5t-31.5 -57.5t-51 -55t-73.5 -41.5t-93 -16.5t-83.5 6t-65.5 27q-34 -12 -85 -20.5t-78.5 -10.5t-36.5 -2q-114 0 -114 88q0 18 4 39l71 332h-69l19 93h69l31 145h140l-31 -145h78
l-19 -93h-78l-63 -294q-4 -20 -4 -32q0 -15 8.5 -21t29.5 -6q9 0 15.5 0.5t13.5 2t10 2.5t12.5 4.5t12.5 4.5q-10 34 -10 75z" />
    <glyph glyph-name="uni02a9" unicode="&#x2a9;" horiz-adv-x="866" 
d="M438 540h140l-17 -78q40 45 83 66t98 21q71 0 109 -34t38 -98q0 -25 -6 -55l-97 -456q-14 -66 -49 -95t-100 -29q-37 0 -82 5l24 112q12 -4 24 -4q22 0 33.5 9.5t16.5 32.5l84 396q4 18 4 32q0 65 -74 65q-51 0 -88 -29t-47 -77l-69 -324h-140l93 436h-93l-93 -436h-140
l93 436h-76l19 93h76l14 65q29 135 167 135q41 0 79 -3l-22 -105q-17 3 -39 3q-38 0 -47 -42l-12 -53h93z" />
    <glyph glyph-name="uni02aa" unicode="&#x2aa;" horiz-adv-x="752" 
d="M758 196q0 -27 -8.5 -55t-29.5 -58t-51.5 -53t-80 -38t-109.5 -15q-106 0 -154.5 12t-108.5 53l-9 -42h-140l155 729h140l-118 -555q58 -51 117 -69t133 -18q63 0 90 19.5t27 43.5q0 11 -9 19t-30 15l-156 52q-1 0 -11 3.5t-14.5 5t-15 6.5t-16 9.5t-13.5 12t-12.5 16
t-7.5 21t-3 25.5q0 25 8 52.5t28 57t49 52t75.5 37.5t103.5 15q95 0 147.5 -38t52.5 -107q0 -18 -4 -38h-135q2 9 2 17q0 56 -88 56q-40 0 -66.5 -16.5t-26.5 -43.5q0 -11 9 -17.5t33 -14.5l166 -51q81 -26 81 -100z" />
    <glyph glyph-name="uni02ab" unicode="&#x2ab;" horiz-adv-x="668" 
d="M742 540l-24 -113l-332 -314h274l-24 -113h-569l155 729h140l-40 -189h420zM298 427l-62 -293l311 293h-249z" />
    <glyph glyph-name="uni02AC" unicode="&#x2ac;" horiz-adv-x="536" 
d="M404.027 0h-94.2441l-3.25 246.986l-107.895 -246.986h-93.5947l-24.0479 350.98h94.2441l3.25 -245.687l103.344 245.687h93.5947v-245.687l105.944 245.687h94.2451zM492.027 389h-94.2441l-3.25 246.986l-107.895 -246.986h-93.5947l-24.0479 350.98h94.2441
l3.25 -245.687l103.344 245.687h93.5947v-245.687l105.944 245.687h94.2451z" />
    <glyph glyph-name="uni02ad" unicode="&#x2ad;" horiz-adv-x="486" 
d="M155 634h446l-35 -165h-100l14 67h-246l-14 -67h-100zM78 274h446l-35 -165h-100l14 67h-246l-14 -67h-100z" />
    <glyph glyph-name="uni02ae" unicode="&#x2ae;" horiz-adv-x="659" 
d="M535 -218h-140l60 282q-40 -45 -83 -66t-98 -21q-72 0 -109.5 34t-37.5 98q0 25 6 55l87 410q2 10 2 17q0 13 -8 19t-26 6q-12 0 -26 -4l24 112q48 5 84 5q53 0 77.5 -18.5t24.5 -60.5q0 -19 -5 -45l-88 -412q-4 -18 -4 -33q0 -64 73 -64q51 0 88.5 29t47.5 77l72 338
h140z" />
    <glyph glyph-name="uni02af" unicode="&#x2af;" horiz-adv-x="679" 
d="M279 193q-4 -18 -4 -33q0 -64 73 -64q51 0 88.5 29t47.5 77l72 338h140l-147 -685q-2 -10 -2 -17q0 -13 8 -19t26 -6q12 0 26 4l-24 -112q-47 -5 -84 -5q-53 0 -77.5 18.5t-24.5 60.5q0 19 6 45l52 240q-40 -45 -83 -66t-98 -21q-72 0 -109.5 34t-37.5 98q0 25 6 55
l87 410q2 10 2 17q0 13 -8 19t-26 6q-12 0 -26 -4l24 112q48 5 84 5q53 0 77.5 -18.5t24.5 -60.5q0 -19 -5 -45z" />
    <glyph glyph-name="hsuper" unicode="&#x2b0;" horiz-adv-x="377" 
d="M215.292 864.823h90.9951l-37.6982 -176.14q50.0469 59.1465 116.993 59.1465q42.248 0 68.2461 -23.7236q25.999 -23.7236 25.999 -62.0713q0 -17.5498 -3.90039 -35.748l-50.0469 -235.287h-90.9951l43.5479 203.438q3.89941 20.1494 3.89941 31.1982
q0 49.3975 -47.4473 49.3975q-31.1982 0 -54.9219 -23.3984q-23.7236 -23.3994 -32.1729 -63.0469l-42.248 -197.589h-90.9941z" />
    <glyph glyph-name="hhooksuper" unicode="&#x2b1;" horiz-adv-x="377" 
d="M380.833 628.536q0 15.5996 -10.3994 28.2734q-10.3994 12.6748 -35.0986 12.6748q-30.5479 0 -54.2715 -19.1738t-30.873 -49.7227l-44.1982 -210.588h-90.9941l83.1953 393.228q9.09961 42.8975 31.8477 61.7471q22.749 18.8486 64.9971 18.8486
q24.0479 0 53.2969 -3.25l-14.9492 -72.7959q-8.4502 2.59961 -16.249 2.59961q-14.9492 0 -22.0986 -6.17383q-7.15039 -6.1748 -9.75 -21.124l-15.5986 -72.7959q48.7471 56.5469 114.394 56.5469q38.3477 0 65.6455 -19.499q27.2988 -19.499 27.2988 -64.9961
q0 -18.1992 -4.5498 -37.0479l-49.3975 -235.287h-90.9941l45.4971 214.488q3.25 17.5488 3.25 24.0479z" />
    <glyph glyph-name="jsuper" unicode="&#x2b2;" horiz-adv-x="202" 
d="M306.238 727.98l-87.7451 -412.077q-9.09961 -42.2471 -38.0234 -61.4219q-28.9229 -19.1738 -84.1699 -19.1738q-18.1992 0 -29.248 3.25l15.5986 72.1465q3.25 -2.60059 16.249 -2.60059q14.9492 0 22.4238 6.5t10.7246 22.0986l83.1953 391.278h90.9951z
M332.236 850.823l-17.5488 -81.2451h-90.9951l17.5498 81.2451h90.9941z" />
    <glyph glyph-name="rsuper" unicode="&#x2b3;" horiz-adv-x="272" 
d="M201.693 740.98h90.9951l-14.9492 -68.8965q22.749 35.748 52.6475 55.2471q29.8975 19.499 61.0957 19.499q5.84961 0 11.0498 -0.650391l-19.499 -92.2949q-15.5986 2.60059 -27.9482 2.60059q-80.5957 0 -97.4951 -79.9463l-39.6475 -186.539h-90.9951z" />
    <glyph glyph-name="rturnsuper" unicode="&#x2b4;" horiz-adv-x="272" 
d="M295.296 389.986h-91.0039l14.9512 68.9033q-22.751 -35.752 -52.6523 -55.252q-29.9014 -19.501 -61.1025 -19.501q-5.84961 0 -11.0498 0.650391l19.5 92.3027q15.6006 -2.59961 27.9512 -2.59961q80.6035 0 97.5039 79.9531l39.6514 186.557h91.0039z" />
    <glyph glyph-name="rturnrthooksuper" unicode="&#x2b5;" horiz-adv-x="299" 
d="M302.588 742.63h90.9951l-83.8457 -391.928q-1.2998 -7.7998 -1.2998 -11.0488q0 -16.249 22.0986 -16.249q8.4502 0 16.8994 2.59961l-14.9492 -72.7959q-31.1982 -3.25 -55.2471 -3.25q-34.4482 0 -50.3721 12.0244t-15.9238 39.3223q0 13 3.89941 29.249
l27.2988 129.992q-22.0986 -35.0977 -51.9971 -54.9219q-29.8984 -19.8232 -61.0967 -19.8232q-5.84961 0 -11.0498 0.649414l19.499 92.2949q16.249 -2.59961 27.9492 -2.59961q79.9453 0 97.4941 79.9453z" />
    <glyph glyph-name="Rturnsuper" unicode="&#x2b6;" horiz-adv-x="395" 
d="M434.047 517.392q0 -55.9023 -40.626 -91.6533q-40.627 -35.752 -106.93 -35.752h-189.157l74.7529 351.014h91.0039l-28.6016 -134.555h28.6016l121.555 134.555h116.354l-131.306 -141.705q31.2012 -9.10059 47.7773 -30.5518q16.5752 -21.4502 16.5752 -51.3516z
M282.592 461.489q61.1016 0 61.1016 50.7021q0 13.6504 -10.4004 18.2012q-10.4004 4.5498 -35.1016 4.5498h-79.3027l-15.6006 -73.4531h79.3037z" />
    <glyph glyph-name="wsuper" unicode="&#x2b7;" horiz-adv-x="534" 
d="M489.027 390h-94.2441l-3.25 246.986l-107.895 -246.986h-93.5947l-24.0479 350.98h94.2441l3.25 -245.687l103.344 245.687h93.5947v-245.687l105.944 245.687h94.2451z" />
    <glyph glyph-name="ysuper" unicode="&#x2b8;" horiz-adv-x="364" 
d="M414.831 741.98h93.5947l-232.687 -414.677q-16.249 -30.5488 -28.5986 -42.8975q-37.0479 -35.748 -110.493 -35.748q-17.5498 0 -28.5986 2.59961l14.9492 70.8457q7.14941 -1.2998 18.1992 -1.2998q33.7979 0 53.6211 16.249q19.8242 16.249 19.8242 44.1982
q-8.44922 69.5459 -26.3232 194.664q-17.874 125.117 -23.7236 166.065h100.094l23.3994 -255.436z" />
    <glyph glyph-name="primemod" unicode="&#x2b9;" horiz-adv-x="278" 
d="M369 707l-60 -126l-98 -114l-51 15l23 135l61 125z" />
    <glyph glyph-name="primedblmod" unicode="&#x2ba;" horiz-adv-x="454" 
d="M369 707l-60 -126l-98 -114l-51 15l23 135l61 125zM577 707l-60 -126l-98 -114l-51 15l23 135l61 125z" />
    <glyph glyph-name="quoteleftmod" unicode="&#x2bb;" horiz-adv-x="278" 
d="M406 503h-105l51 120q56 131 161 131l-17 -38q-35 -1 -55.5 -20t-42.5 -71l-8 -18h60z" />
    </font>
</defs>
</svg>
