<?xml version="1.0" standalone="no"?>
<!DOCTYPE svg PUBLIC "-//W3C//DTD SVG 1.1//EN" "http://www.w3.org/Graphics/SVG/1.1/DTD/svg11.dtd" >
<svg xmlns="http://www.w3.org/2000/svg" xmlns:xlink="http://www.w3.org/1999/xlink" version="1.1">
<metadata>
Created by FontForge 20170924 at Fri Sep  2 16:00:02 2011
 By Glenn,,,
Copyright (c) 2010, 2011, Natalia Raices &#60;nraices@gmail.com&#62;, with Reserved Font Name "Delius" "Delius Unicase" "Delius Swash Caps".
</metadata>
<defs>
<font id="DeliusSwashCaps-Regular" horiz-adv-x="224" >
  <font-face 
    font-family="Delius Swash Caps"
    font-weight="400"
    font-variant="small-caps"
    font-stretch="normal"
    units-per-em="1000"
    panose-1="2 0 6 3 0 0 0 0 0 0"
    ascent="800"
    descent="-200"
    x-height="505"
    cap-height="760"
    bbox="-66 -270 1187 986"
    underline-thickness="50"
    underline-position="-200"
    unicode-range="U+0020-FB03"
  />
<missing-glyph horiz-adv-x="238" 
 />
    <glyph glyph-name=".notdef" horiz-adv-x="238" 
 />
    <glyph glyph-name=".null" horiz-adv-x="0" 
 />
    <glyph glyph-name="nonmarkingreturn" horiz-adv-x="333" 
 />
    <glyph glyph-name="space" unicode=" " horiz-adv-x="238" 
 />
    <glyph glyph-name="exclam" unicode="!" horiz-adv-x="242" 
d="M89.5 81.5q14.5 18.5 35 18.5t31.5 -14.5t11 -39t-14.5 -43t-34.5 -18.5t-31.5 15.5t-11.5 39t14.5 42zM154 468l3 -212q0 -50 -36 -50t-36 50l3 212q0 68 -3.5 152t-3.5 90q0 50 40 50t40 -50q0 -16 -3.5 -100t-3.5 -142z" />
    <glyph glyph-name="quotedbl" unicode="&#x22;" horiz-adv-x="342" 
d="M247 725q18 0 29 -14t11 -27.5t-4.5 -46.5t-6.5 -58.5t-3 -39t-4 -26.5t-8 -18t-14 -5t-14 5t-7.5 18t-4 26.5t-3.5 39t-6.5 57.5t-4.5 47.5t11 28.5t29 13zM95 725q18 0 29 -14t11 -27.5t-4.5 -46.5t-6.5 -58.5t-3 -39t-4 -26.5t-8 -18t-14 -5t-14 5t-7.5 18t-4 26.5
t-3.5 39t-6.5 57.5t-4.5 47.5t11 28.5t29 13z" />
    <glyph glyph-name="numbersign" unicode="#" horiz-adv-x="803" 
d="M296 274h176l32 167h-176zM665 212l-141 2q-14 -74 -33 -187q-8 -41 -41 -41q-28 0 -28 35q0 14 13.5 79.5t22.5 115.5h-173l-33 -190q-8 -41 -41 -41q-13 0 -21 9t-8 21.5t5 37.5l15 70q14 62 19 92l-127 -3q-46 0 -46 33t46 33l140 -3l32 165l-129 -3q-46 0 -46 33
t46 33l139 -3q13 64 20 106l12 66q8 41 41 41q12 0 20.5 -9.5t8.5 -21t-8 -46t-29 -137.5h173l21 107l12 67q8 41 41 41q12 0 20.5 -9.5t8.5 -21t-8 -46t-29 -137.5l129 3q46 0 46 -33t-46 -33l-142 3l-32 -165l130 3q46 0 46 -33t-46 -33z" />
    <glyph glyph-name="dollar" unicode="$" horiz-adv-x="554" 
d="M503 186q0 -76 -50.5 -130t-133.5 -67q2 -34 2 -48q0 -51 -35 -51t-35 51l1 46q-78 5 -139 39t-61 67q0 22 17 29q4 1 14 1t31 -15q64 -52 140 -57q2 186 2 307q-88 49 -131 95t-43 104t47 101.5t123 51.5v39q0 51 34 51t34 -51v-39q63 -6 106.5 -30t43.5 -53
q0 -12 -8 -20t-22.5 -8t-52 22.5t-69.5 23.5q-2 -160 -2 -241q113 -68 148 -112.5t39 -105.5zM316 323q0 -224 1 -269q47 8 79 44q32 38 32 81.5t-27 75.5t-85 68zM155 555q0 -52 101 -117q0 113 -2 207q-44 -5 -71.5 -28.5t-27.5 -61.5z" />
    <glyph glyph-name="percent" unicode="%" horiz-adv-x="804" 
d="M558 755q28 -14 27.5 -52.5t-56.5 -100.5q-200 -572 -209 -594.5t-35 -22.5q-13 0 -22 9t-9 25t25 76q107 264 178 482q-17 -8 -45.5 -8t-75.5 14q5 -20 5 -41q0 -73 -41 -123t-106 -50t-106 48q-40 49 -40 124t42 124.5t101 49.5t111.5 -43.5t100.5 -43.5t69 18l8 28
q18 66 37 79q7 9 17.5 9t23.5 -7zM134 459q23 -33 61.5 -33t61.5 32t23 83t-22.5 84t-61.5 33t-62 -32t-23 -83t23 -84zM501 33q-40 49 -40 124t42 124.5t107.5 49.5t106 -48t40.5 -123.5t-42 -125t-107.5 -49.5t-106.5 48zM547.5 75q22.5 -33 61 -33t61.5 32t23 83
t-22.5 84t-61 33t-61.5 -32t-23 -83t22.5 -84z" />
    <glyph glyph-name="ampersand" unicode="&#x26;" horiz-adv-x="765" 
d="M410 354l125 -5q52 0 96 26t44 75q0 75 -76 100q-30 10 -42 19t-12 24q0 33 38 33q55 0 107.5 -54.5t52.5 -116t-37 -99.5q-64 -70 -198 -70q27 -45 27 -109t-63.5 -128t-173.5 -64t-180.5 70.5t-70.5 176.5q0 60 34.5 116.5t92.5 95.5q-33 29 -54.5 68t-21.5 78
q0 64 46 109.5t126 45.5q52 0 96 -23t44 -50q0 -15 -9 -24t-21 -9t-42.5 20.5t-72 20.5t-69.5 -24t-28 -60t17 -68.5t43 -50.5q17 7 35.5 7t36.5 -5q40 -10 40 -42.5t-42 -42.5q-15 -4 -35 -4t-41 11q-103 -51 -103 -166q0 -77 50 -130q51 -52 127 -52t122.5 42t46.5 99
q0 87 -50 87q-8 0 -33 -9t-37.5 -9t-22 10.5t-9.5 30t28 35t69 15.5z" />
    <glyph glyph-name="quotesingle" unicode="'" horiz-adv-x="190" 
d="M95 725q18 0 29 -14t11 -27.5t-4.5 -46.5t-6.5 -58.5t-3 -39t-4 -26.5t-8 -18t-14 -5t-14 5t-7.5 18t-4 26.5t-3.5 39t-6.5 57.5t-4.5 47.5t11 28.5t29 13z" />
    <glyph glyph-name="parenleft" unicode="(" horiz-adv-x="302" 
d="M243 654q-122 -160 -122 -415q0 -254 135 -423q12 -15 12 -25q0 -21 -19 -21q-32 0 -73 56q-130 175 -130 458q0 82 21 172t51 154.5t64.5 107t57.5 42.5q42 0 42 -37q0 -15 -6.5 -25t-32.5 -44z" />
    <glyph glyph-name="parenright" unicode=")" horiz-adv-x="303" 
d="M256 284q0 -284 -131 -459q-40 -55 -72 -55q-19 0 -19 21q0 10 12 25q135 170 135 423t-123 417q-27 36 -32.5 45t-5.5 22.5t9 25.5q11 11 33.5 11t56.5 -43q36 -43 65.5 -107t50.5 -154t21 -172z" />
    <glyph glyph-name="asterisk" unicode="*" horiz-adv-x="424" 
d="M234 555l11 -90q0 -27 -21 -38q-7 -4 -16.5 -4t-19 12t-9.5 25.5t5.5 50.5t5.5 44q-12 -8 -39.5 -30t-37 -27.5t-20.5 -5.5t-21 9q-9 9 -9 22q0 23 25 34q49 16 82 34q-33 18 -82 34q-25 10 -25 34q0 12 9 21t21.5 9t21.5 -5.5t36.5 -27.5t38.5 -29q-4 31 -11 92
q0 27 21 38q7 4 16.5 4t19 -11.5t9.5 -23t-5 -45t-6 -54.5q11 7 38.5 29t37.5 27.5t21 5.5t20.5 -8.5t9.5 -21.5q0 -23 -26 -34q-62 -24 -81 -34q19 -10 81 -34q26 -9 26 -34q0 -12 -9.5 -21t-21.5 -9t-20.5 5t-36 27t-39.5 30z" />
    <glyph glyph-name="plus" unicode="+" horiz-adv-x="529" 
d="M296 291l146 3h5q21 0 28.5 -12t7.5 -21t-7.5 -21t-28.5 -12h-28.5t-122.5 3l4 -157q0 -19 -9.5 -30t-25.5 -11q-33 0 -33 41q0 22 4 157q-102 -3 -134 -3t-44 9.5t-12 19t4 17.5q11 20 38 20l148 -3q-4 124 -4 143q0 41 33 41q16 0 25.5 -10.5t9.5 -30t-4 -143.5z" />
    <glyph glyph-name="comma" unicode="," horiz-adv-x="210" 
d="M65 -28l-7 64q0 29 13 47q17 19 31 19t24 -4q26 -13 26 -40q0 -4 -1 -9q0 -67 -34.5 -134.5t-68.5 -67.5q-8 0 -14 5.5t-6 13.5t18.5 38.5t18.5 67.5z" />
    <glyph glyph-name="hyphen" unicode="-" horiz-adv-x="428" 
d="M107 294l107 -3l107 3h5q21 0 28.5 -12t7.5 -21t-7.5 -21t-28.5 -12h-5l-107 3l-107 -3h-5q-21 0 -28.5 12t-7.5 21t7.5 21t28.5 12h5z" />
    <glyph glyph-name="period" unicode="." horiz-adv-x="207" 
d="M106 107q21 0 32.5 -15t11.5 -39.5t-15 -43.5t-35 -19t-32 15.5t-12 39.5t14.5 43t35.5 19z" />
    <glyph glyph-name="slash" unicode="/" horiz-adv-x="363" 
d="M92 -152q-36 0 -36 40q0 17 37 176q56 237 80 361.5t34.5 178.5t15.5 80.5t7 33.5q9 42 40 42q36 0 36 -42q0 -14 -12 -67q-92 -387 -148 -692q-9 -49 -14 -69q-8 -42 -40 -42z" />
    <glyph glyph-name="zero" unicode="0" horiz-adv-x="658" 
d="M329 715q119 0 193 -108.5t74 -256.5t-74 -256.5t-193 -108.5t-193 108.5t-74 256.5t74 256.5t193 108.5zM468 140q56 91 56 210.5t-56 209t-140 89.5t-139 -89t-55 -210t55.5 -210t139 -89t139.5 89z" />
    <glyph glyph-name="one" unicode="1" horiz-adv-x="397" 
d="M295 205l4 -172q0 -16 -11.5 -29.5t-28 -13.5t-27.5 14t-11 36t2.5 81t2.5 230v251l-48 -60q-7 -9 -26 -34q-54 -71 -70 -84t-28 -13t-22 11q-10 18 -10 27.5t14.5 27.5t42 47.5t46.5 53.5q24 27 45 55l36 45q26 33 53 33q16 0 28 -14.5t12 -37t-2.5 -83t-2.5 -192.5
t1 -179z" />
    <glyph glyph-name="two" unicode="2" horiz-adv-x="548" 
d="M128 64h139l190 5q21 0 35.5 -11t14.5 -26q0 -37 -50 -37l-190 5l-171 -5q-50 0 -50 46q0 38 31 76.5t43 51.5l60 65q47 52 56 61.5t38 41.5t37.5 42.5t20.5 24.5t36.5 55.5t24.5 72.5q0 50 -35.5 83.5t-82.5 33.5q-82 0 -115 -53t-59 -53q-14 0 -23.5 9.5t-9.5 23.5
q0 40 58.5 89.5t146 49.5t140 -55.5t52.5 -121.5t-36 -118.5t-68.5 -87.5t-52.5 -58.5t-75 -81.5q-91 -94 -105 -128z" />
    <glyph glyph-name="three" unicode="3" horiz-adv-x="568" 
d="M107 705l160 -5l152 4q60 0 60 -46q0 -22 -22.5 -48.5t-67.5 -72t-86 -94.5q97 -20 150 -80t53 -148.5t-63.5 -159t-174.5 -70.5q-84 0 -148 46q-63 47 -63 86q1 29 28 29q19 0 31 -23q18 -21 53 -46.5t106 -25.5t114 48q45 48 45 120t-50.5 117t-120.5 50
q-51 -54 -91 -54q-18 0 -34 10q-17 15 -9 41q16 51 98 67q83 92 156 182l-116 4l-152 -5h-8q-24 0 -32 13.5t-8 23.5t8 23.5t32 13.5z" />
    <glyph glyph-name="four" unicode="4" horiz-adv-x="578" 
d="M497 226l-65 2l5 -188v-7q0 -26 -18 -37q-11 -6 -21 -6l-21 6q-18 11 -18 37v7l4 190l-74 1l-219 -4h-3q-27 0 -37 21q-6 13 -6 21.5t2.5 16.5t20 35t46 61t105.5 132l117 149q36 47 70 47q52 0 52 -60q0 -21 -2.5 -82.5t-2.5 -270.5l57 3q22 0 36 -10t14 -26.5
t-13.5 -27t-28.5 -10.5zM115 295h249q2 98 2 179l-2 140q-106 -122 -249 -319z" />
    <glyph glyph-name="five" unicode="5" horiz-adv-x="575" 
d="M432 631l-142 5q-43 0 -88 -2t-46 -2q6 -51 6 -100t-6 -103l-2 -18q70 54 147 54q106 0 163.5 -65.5t57.5 -166.5t-65 -174.5t-177 -73.5q-88 0 -153 53.5t-65 100.5q0 15 8.5 24.5t21.5 9.5t19.5 -6t18.5 -24l14 -21q60 -71 136 -71t123 56t47 127.5t-41.5 118
t-111 46.5t-140.5 -55q-23 -19 -37 -19q-39 0 -39 42q0 11 6.5 65.5t6.5 92t-5.5 83.5t-5.5 50q0 47 55 47l152 -5l142 5h8q24 0 32 -13.5t8 -23.5t-8 -23.5t-32 -13.5h-8z" />
    <glyph glyph-name="six" unicode="6" horiz-adv-x="577" 
d="M62 266q0 185 102.5 314.5t259.5 129.5q64 0 64 -35q0 -37 -55 -37q-115 0 -196 -82t-96 -195q26 39 72.5 65.5t100.5 26.5q98 0 154 -68t56 -162t-59 -166t-168.5 -72t-172.5 79q-62 80 -62 202zM186 335q-45 -54 -45 -122.5t46 -116t112.5 -47.5t109.5 49t43 120.5
t-40.5 121t-110.5 49.5t-115 -54z" />
    <glyph glyph-name="seven" unicode="7" horiz-adv-x="490" 
d="M81 705l162 -5l162 5q60 0 60 -47q0 -20 -19 -62t-57.5 -118t-90.5 -196.5t-80 -217.5l-11 -40q-13 -34 -41 -34q-34 0 -34 43q0 7 5 33t21 66l14 35q23 59 31.5 77.5t59.5 137.5l111 250l-131 4l-162 -5q-50 0 -50 37t50 37z" />
    <glyph glyph-name="eight" unicode="8" horiz-adv-x="576" 
d="M223 394q-64 36 -95 75t-31 96t53.5 103.5t136 46.5t137.5 -46.5t55 -102.5t-29 -95t-89 -77q156 -77 156 -214q0 -78 -64.5 -136.5t-164.5 -58.5t-164.5 58.5t-64.5 136.5q0 140 164 214zM445 188q0 100 -157 167q-157 -67 -157 -167q0 -62 44.5 -99.5t112.5 -37.5
t112.5 37.5t44.5 99.5zM290 430q61 33 90 63t29 67.5t-36.5 63t-83.5 25.5t-84.5 -25.5t-37.5 -63t29.5 -66.5t93.5 -64z" />
    <glyph glyph-name="nine" unicode="9" horiz-adv-x="575" 
d="M513 434q0 -190 -101.5 -317t-260.5 -127q-64 0 -64 35q0 37 55 37q118 0 197.5 79.5t94.5 197.5q-26 -39 -72.5 -65.5t-100.5 -26.5q-98 0 -154 71t-56 163.5t62 163.5q63 70 169 70t168.5 -79.5t62.5 -201.5zM278 651q-66 0 -111 -49q-44 -50 -44 -121t40.5 -120.5
t110.5 -49.5t115 54t45 122t-45 116t-111 48z" />
    <glyph glyph-name="colon" unicode=":" horiz-adv-x="226" 
d="M116 510q21 0 32.5 -15t11.5 -39.5t-15 -43.5t-35 -19t-32 15.5t-12 39.5t14.5 43t35.5 19zM116 107q21 0 32.5 -15t11.5 -39.5t-15 -43.5t-35 -19t-32 15.5t-12 39.5t14.5 43t35.5 19z" />
    <glyph glyph-name="semicolon" unicode=";" horiz-adv-x="242" 
d="M84 -28l-7 64q0 29 13 47q17 19 31 19t24 -4q26 -13 26 -40q0 -4 -1 -9q0 -67 -34.5 -134.5t-68.5 -67.5q-8 0 -14 5.5t-6 13.5t18.5 38.5t18.5 67.5zM127 510q21 0 32.5 -15t11.5 -39.5t-14.5 -43.5t-35 -19t-32.5 15.5t-12 39.5t14.5 43t35.5 19z" />
    <glyph glyph-name="less" unicode="&#x3c;" horiz-adv-x="543" 
d="M438 508q34 0 34 -32v-5q0 -14 -15 -24t-68.5 -32t-98 -43t-67 -31t-55.5 -29q-17 -11 -17 -18q0 -16 195 -102q87 -39 94 -43q33 -18 33 -43q0 -14 -10.5 -24t-16 -10h-6.5q-30 0 -92 36q-109 58 -161 82l-71 34q-72 32 -72 71q0 30 62 59q23 12 82 40l119 60
q76 39 94 46.5t37 7.5z" />
    <glyph glyph-name="equal" unicode="=" horiz-adv-x="592" 
d="M296 363l177 3h5q21 0 28.5 -12t7.5 -21t-7.5 -21t-28.5 -12h-5l-177 3l-177 -3h-5q-21 0 -28.5 12t-7.5 21t7.5 21t28.5 12h5zM119 222l177 -3l177 3h5q21 0 28.5 -12t7.5 -21t-7.5 -21t-28.5 -12h-5l-177 3l-177 -3h-5q-21 0 -28.5 12t-7.5 21t7.5 21t28.5 12h5z" />
    <glyph glyph-name="greater" unicode="&#x3e;" horiz-adv-x="543" 
d="M200.5 110.5q-27.5 -14.5 -50 -26t-42.5 -11.5q-38 0 -38 39q0 16 16 26q20 13 68.5 34.5t143 64.5t94.5 57q0 10 -56 39q-5 3 -13.5 6.5t-9.5 4.5l-57 26q-28 14 -58 26l-57 24q-71 24 -71 55q0 11 11 24q5 3 9 5.5t7.5 3.5t8.5 1h8q2 0 8 -2t8.5 -2.5t10.5 -4.5
q33 -14 94 -46l120 -60q79 -36 106 -53q37 -23 37 -43q0 -12 -7 -30q-9 -12 -28 -24t-90.5 -45.5t-108 -53.5t-64 -34.5z" />
    <glyph glyph-name="question" unicode="?" horiz-adv-x="451" 
d="M339 436q-17 -19 -52 -54q-62 -62 -62 -120.5t-35 -58.5q-37 0 -37 56q0 75 62 143q17 19 52 54q62 65 62 119t-34.5 87.5t-71.5 33.5q-65 0 -94.5 -38t-45.5 -38t-25 9t-9 23q0 35 51.5 71.5t114.5 36.5q83 0 134.5 -51.5t51.5 -129.5t-62 -143zM157.5 81.5
q14.5 18.5 35 18.5t31.5 -14.5t11 -39t-14.5 -43t-34.5 -18.5t-31.5 15.5t-11.5 39t14.5 42z" />
    <glyph glyph-name="at" unicode="@" horiz-adv-x="1003" 
d="M710 413q0 -12 -20 -170v-44q0 -141 76 -141q44 0 78.5 51.5t34.5 164.5t-53 199q-51 85 -134 128t-185 43q-154 0 -263.5 -124.5t-109.5 -297t95 -279.5t225 -107q105 0 169.5 39.5t77 39.5t17.5 -8q8 -9 8 -22t-21 -32q-29 -31 -100.5 -57t-155.5 -26q-166 0 -278 125
t-112 323v13q0 123 57.5 234.5t161 178t223.5 66.5h7q193 0 319.5 -119t126.5 -324q0 -119 -54.5 -197.5t-132.5 -78.5q-111 0 -131 126q-24 -53 -68 -89.5t-106 -36.5t-103 40q-74 71 -74 195q0 103 61.5 179.5t158.5 76.5q61 0 124 -45q7 45 42 45q39 0 39 -69zM630 216
v149q-52 51 -118.5 51t-111.5 -53t-45 -128.5t28.5 -128t81 -52.5t96 46.5t69.5 115.5z" />
    <glyph glyph-name="A" unicode="A" horiz-adv-x="817" 
d="M577 338q-95 308 -107.5 308t-84.5 -228l-24 -76q44 7 97.5 7t118.5 -11zM266 259q-70 -23 -119.5 -72t-49.5 -92q0 -21 10.5 -32.5t27.5 -11.5q55 0 131 208zM792 52q0 -30 -16 -48.5t-40 -18.5q-44 0 -67 65q-45 134 -72 222q-76 13 -138.5 13t-114.5 -10
q-65 -163 -96 -212q-50 -78 -116 -78q-46 0 -73 31t-27 77q0 69 70 139t182 96q44 122 82.5 241t43.5 131q21 60 58 60q41 0 61 -52q5 -14 28 -83l99 -300q41 -12 67 -31t26 -33q0 -23 -25 -23q-9 0 -48 14q43 -139 56 -159t21 -24t18 -6q21 -4 21 -11z" />
    <glyph glyph-name="B" unicode="B" horiz-adv-x="742" 
d="M187 165l5 130q-66 3 -102.5 31.5t-36.5 66.5t36.5 66t102.5 38q-9 153 -9 174q0 94 182 94q128 0 198.5 -52.5t70.5 -130.5t-78 -145q133 -73 133 -194q0 -79 -49 -139.5t-127 -89.5t-157 -29q-88 0 -161 21.5t-112 50.5t-39 48.5t10 30t24 10.5h4.5t27 -13.5t51 -31.5
t75 -32t92.5 -14h6q119 0 197 52t78 134q0 47 -28 87t-76 64q-103 -76 -241 -94l4 -128v-7q0 -26 -18 -37q-11 -7 -22 -7l-22 7q-19 12 -19 39zM262 672q0 -35 2 -169q121 0 229 -38q67 51 67 112t-50 89.5t-124.5 28.5t-123.5 -23zM262 435v-69q44 2 97.5 17.5t83.5 35.5
q-55 18 -153 18q-18 0 -28 -2zM193 362v68q-71 -8 -71 -33q0 -33 71 -35z" />
    <glyph glyph-name="C" unicode="C" horiz-adv-x="696" 
d="M383 765q111 0 182 -62t71 -145q0 -65 -41 -107.5t-97 -42.5t-94 36q-38 38 -38 81.5t19 72.5t46 29q15 0 25 -8.5t10 -21t-14 -32t-14 -41t17 -36t44.5 -14.5t46 21.5t18.5 57.5q0 53 -48 97q-46 45 -133 45q-107 0 -176 -94.5t-69 -222.5t72 -225.5t182 -97.5
q49 0 91.5 13t64.5 31q53 44 64.5 44t19.5 -7.5t8 -18.5q0 -39 -74.5 -85.5t-174.5 -46.5q-144 0 -239 113q-95 115 -95 278.5t93 276t233 112.5z" />
    <glyph glyph-name="D" unicode="D" horiz-adv-x="823" 
d="M767 373q0 -104 -47.5 -190t-142 -142t-224 -56t-216.5 75t-87 186q0 81 51.5 138.5t126.5 71.5q0 85 -4 202q-48 0 -48 34t67 51t149 17t157 -33t121 -89q97 -115 97 -265zM225 215l4 123v48q-46 -13 -73.5 -51.5t-27.5 -88.5q0 -78 63 -135q65 -56 166 -56
q139 0 233.5 91.5t94.5 216.5t-74 223q-37 48 -97 76t-133 28q-35 0 -75 -9l-5 -220q67 -4 121 -41.5t54 -78.5q0 -24 -20 -31q-5 -3 -15 -3t-19 7.5t-26 26.5t-26 27q-34 26 -70 26l1 -72l3 -60q2 -26 2 -36.5t-0.5 -21.5t-11.5 -24.5t-22.5 -13.5t-20.5 4q-26 13 -26 45z
" />
    <glyph glyph-name="E" unicode="E" horiz-adv-x="631" 
d="M233 473q73 35 136 35t89 -25q30 -22 30 -55q0 -26 -17 -46q-37 -40 -115 -40q-32 0 -71 14.5t-67 35.5q-85 -58 -85 -157q0 -67 59 -123.5t160.5 -56.5t156.5 43t70 43q28 0 28 -26q0 -22 -32 -52t-92.5 -54t-124.5 -24q-141 0 -224 74q-81 75 -81 167q0 134 117 211
q-55 56 -55 141t67 136q68 51 153 51t149 -31.5t64 -69.5q0 -24 -20 -32q-6 -1 -17.5 -1t-34.5 15q-65 49 -130.5 49t-108.5 -31q-48 -30 -48 -92.5t44 -98.5zM284 433l-11 -5q35 -26 88 -26t53 25q0 21 -49 21t-81 -15z" />
    <glyph glyph-name="F" unicode="F" horiz-adv-x="642" 
d="M170 48l5 295q-66 11 -66 46q0 16 9 25q10 10 19.5 10t37.5 -6l-3 161q-67 8 -107 39.5t-40 78.5q0 31 25 59.5t75.5 28.5t80.5 -37.5t37 -100.5q174 0 319 111q24 16 33 16q24 0 28 -26q0 -42 -60.5 -83t-148.5 -66.5t-167 -25.5v-165q33 -5 78.5 -5t106.5 11.5
t68.5 11.5t17 -7.5t9.5 -20.5q0 -28 -71.5 -46t-155.5 -18q-26 0 -53 2l5 -288q0 -58 -41 -58t-41 58zM170 651q-8 69 -46 69q-12 0 -21 -8t-9 -18q0 -34 76 -43z" />
    <glyph glyph-name="G" unicode="G" horiz-adv-x="781" 
d="M585 341q-16 23 -77 34q-27 5 -48 5t-32 -7q-31 -10 -31 -25q0 -26 65.5 -26t122.5 19zM595 281q-67 -24 -133 -24t-104.5 24.5t-38.5 62t37 70.5q38 33 107 33t118 -25.5t69 -50.5q18 7 49 30t41 23q26 0 26 -30q0 -34 -96 -85q0 -140 -81.5 -232.5t-205.5 -92.5
q-141 0 -234 114q-92 115 -92 278t95 276q96 113 241 113q89 0 162 -34.5t73 -76.5q0 -25 -20 -32q-7 -2 -18 -2q-20 0 -70 37q-44 38 -127 38q-111 0 -183 -94.5t-72 -222.5t69 -225.5t175 -97.5q88 0 150 69.5t63 156.5z" />
    <glyph glyph-name="H" unicode="H" horiz-adv-x="715" 
d="M45 397q3 35 27 35q16 0 41 -16l-6 293q0 22 12 36.5t29 14.5t29 -14t12 -37t-2.5 -86t-2.5 -234q43 -15 115 -15q160 0 238 98l-5 221q0 67 44 67q35 0 42 -31q8 -29 8 -94.5t-19 -197.5l7 -396q1 -31 -20 -44q-10 -7 -21 -7l-21 7q-21 13 -20 44l6 304v32
q-38 -32 -107.5 -51t-133 -19t-113.5 10l5 -276q1 -31 -20 -44q-11 -7 -21 -7l-21 7q-21 13 -20 44l4 293q-66 22 -66 63z" />
    <glyph glyph-name="I" unicode="I" horiz-adv-x="598" 
d="M487 444l-1 -169q0 -148 -70.5 -219t-171 -71t-154.5 58q-53 59 -53 131.5t46 118t106 45.5t95 -38t35 -93t-37 -80q-12 -7 -20 -7q-15 0 -13 15q0 1 3 11q6 28 6 54t-21 48.5t-53 22.5t-53.5 -25.5t-21.5 -69t32 -83.5q33 -38 96 -38q83 0 130 55.5t47 155.5l1 178
q0 139 -2 227q-59 -9 -99 -9q-216 0 -216 63q0 35 38 35q5 0 65.5 -12.5t112.5 -12.5t123.5 12.5t78.5 12.5q42 0 42 -33.5t-69 -45.5q-2 -94 -2 -237z" />
    <glyph glyph-name="J" unicode="J" horiz-adv-x="576" 
d="M460 485l-1 -247v-163q0 -156 -67.5 -233t-169 -77t-158.5 64q-56 65 -56 144t48 131.5t111.5 52.5t100.5 -38t37 -93t-38 -80q-12 -7 -19 -7q-15 0 -13 15q0 1 3 12q6 27 6 53.5t-22 49t-57 22.5t-60 -34.5t-25 -87t37 -94.5t101 -42q81 0 126 64.5t45 178.5
q0 273 -1.5 410t-1.5 186q-58 -9 -99 -9q-216 0 -216 63q0 35 38 35q5 0 65 -12.5t112.5 -12.5t124 12.5t78.5 12.5q42 0 42 -33.5t-69 -45.5v-14z" />
    <glyph glyph-name="K" unicode="K" horiz-adv-x="706" 
d="M238 437l1 -88q64 6 95 28q-33 49 -96 60zM170 355v86q-27 -4 -43 -15.5t-16 -26.5q0 -30 59 -44zM165 34l3 249q-59 12 -92.5 44.5t-33.5 74.5t34 74t92 39l-5 194q0 23 11 37t30 14t30 -14t11 -32.5t-5 -201.5q98 -17 150 -86q48 54 82.5 131.5t46.5 158.5q8 44 41 44
q15 0 24.5 -10t9.5 -27q0 -71 -50 -178t-114 -177q100 -205 161 -303q41 -66 89 -69h8q17 0 17 -5v-5q0 -30 -17.5 -48.5t-41.5 -18.5t-40.5 10t-23 17t-20.5 24q-29 33 -85 139l-108 212q-57 -32 -129 -41l7 -239v-7q0 -26 -19 -38q-11 -6 -22 -6l-22 6q-19 12 -19 38z" />
    <glyph glyph-name="L" unicode="L" horiz-adv-x="621" 
d="M160 13q-47 -22 -70 -22t-39 16.5t-16 40.5t15 40q15 17 34 17t43 -7q20 66 20 284q0 115 -13 223t-13 120.5t11 24.5t28 12q36 0 44 -51q15 -109 15 -326.5t-21 -307.5q69 -22 168 -22q60 0 103.5 28.5t43.5 75.5q0 23 -14.5 39.5t-35.5 16.5q-39 0 -47 -39
q-10 -39 -29 -39q-12 0 -21 16t-9 35q0 37 30.5 65t77.5 28t84.5 -33t37.5 -89q0 -79 -65 -125q-69 -49 -161 -49t-201 28z" />
    <glyph glyph-name="M" unicode="M" horiz-adv-x="989" 
d="M253 626l-2 90q0 16 11 29q9 13 27 13q28 0 44 -35q137 -313 227 -493q98 189 180 390q23 56 46 108q14 30 41 30q41 0 41 -51l-5 -332q0 -250 38 -299q5 -5 15.5 -6t18.5 -2t8 -7q0 -30 -17.5 -49t-42.5 -19q-90 0 -90 240v336l-193 -424q-14 -31 -36 -31q-23 0 -41 34
q-1 2 -45 105t-150 320v-233q0 -159 -27.5 -235.5t-75.5 -100.5q-30 -14 -66 -14q-59 0 -93.5 42.5t-34.5 97.5t37.5 98.5t89.5 43.5q22 0 36.5 -10.5t14.5 -30.5q0 -37 -48 -37q-22 0 -38 -18.5t-16 -46t15 -45t42 -17.5q53 0 72.5 76t19.5 243.5t-3 239.5z" />
    <glyph glyph-name="N" unicode="N" horiz-adv-x="878" 
d="M159 -8q-59 0 -93.5 42.5t-34.5 97.5t37.5 98.5t89.5 43.5q22 0 36.5 -10.5t14.5 -30.5q0 -37 -48 -37q-22 0 -38 -18.5t-16 -46t15 -45t42 -17.5q93 0 93 288q0 79 -16 207t-16 149.5t14 34.5t33 13q28 0 45 -35q54 -105 154 -281t173 -292q-4 0 -9.5 139.5t-5.5 183.5
q0 111 22 189q13 45 42.5 70.5t68 25.5t65.5 -20.5t27 -47.5t-23 -27q-7 0 -29 9t-39 9q-63 0 -63 -289q0 -68 11 -208t11 -156t-13.5 -29t-31.5 -13q-27 0 -47 35q-50 89 -114 199l-127 227q-55 102 -76 134q14 -132 14 -251q0 -341 -168 -341z" />
    <glyph glyph-name="O" unicode="O" horiz-adv-x="811" 
d="M462 695q-68 0 -120 -49.5t-77 -121.5t-25 -123t3 -82t5.5 -48.5t2.5 -20.5q0 -25 -23 -25q-20 0 -37 51.5t-17 107.5q0 153 79 267t207 114t210.5 -110t82.5 -274.5t-94.5 -280t-246 -115.5t-254.5 109t-103 280q0 70 14.5 113.5t43.5 43.5q14 0 23 -9.5t9 -19.5
t-6.5 -52.5t-6.5 -75.5q0 -147 83 -233t195 -86q81 0 143.5 45t92.5 115.5t30 148.5v10q0 132 -58.5 226.5t-155.5 94.5z" />
    <glyph glyph-name="P" unicode="P" horiz-adv-x="691" 
d="M200 318q0 108 -3 183q-41 -5 -64.5 -29.5t-23.5 -53t23.5 -57.5t67.5 -43zM269 238q5 -172 5 -195.5t-12 -38.5t-23.5 -15t-20.5 5q-26 13 -26 47l7 209q-76 16 -119 64q-41 49 -41 104t42.5 97.5t112.5 52.5l-5 119q2 35 32 48q62 25 147 25q124 0 206.5 -71.5
t82.5 -167.5t-49 -161q-92 -123 -293 -123q-36 0 -46 1zM267 501q1 -26 1 -196q6 -1 28 -1q123 0 203 53t80 161q0 74 -62.5 123.5t-149.5 49.5q-61 0 -101 -13q0 -36 2 -110q62 -8 108.5 -45t46.5 -75q0 -16 -9.5 -25t-22.5 -9t-30 20q-55 64 -94 67z" />
    <glyph glyph-name="Q" unicode="Q" horiz-adv-x="829" 
d="M239 404q0 -66 15 -111t15 -52q0 -21 -21 -21q-29 0 -54 60.5t-25 124.5q0 150 85 255t215 105t216 -110t86 -271q0 -106 -44 -196.5t-120 -144.5q77 -105 82 -117t5 -22t-9.5 -21.5t-21.5 -11.5q-23 0 -39 24q-4 5 -44 67l-31 49q-64 -26 -127 -26q-150 0 -258 118
q-107 119 -107 291q0 127 25 156q12 15 29.5 15t26.5 -12q10 -10 10 -22t-8 -36.5t-8 -108.5q0 -136 85 -232.5t205 -96.5q60 0 85 15q-79 112 -79 128.5t9 29t21 13t22 -6.5t15.5 -15t22 -36.5t48.5 -81.5q60 43 95 120.5t35 167.5q0 128 -65 214t-162.5 86t-163.5 -81
t-66 -206z" />
    <glyph glyph-name="R" unicode="R" horiz-adv-x="739" 
d="M236 672q0 -57 4 -197q57 -6 109.5 -39t83.5 -78q49 30 78 77.5t29 97.5q0 75 -58 118.5t-144 43.5q-47 0 -102 -23zM239 410v-94q23 -2 57 -2t68 13q-43 64 -125 83zM170 323v91q-59 -8 -59 -39.5t59 -51.5zM698 -6q17 0 17 -5v-5q0 -26 -17.5 -46.5t-35.5 -20.5t-40 12
t-57.5 61t-72.5 120l-92 161q-62 -22 -127 -22q-26 0 -33 1l6 -209q0 -23 -11 -37t-30 -14t-30 14t-11 50.5t4 203.5q-62 14 -94 45t-32 71t35.5 70t90.5 35l-8 199q0 43 35 60q60 27 144 27q122 0 200.5 -66t78.5 -164q0 -69 -40.5 -132.5t-108.5 -102.5q113 -204 132 -233
q46 -70 89 -73h8z" />
    <glyph glyph-name="S" unicode="S" horiz-adv-x="581" 
d="M222 146q-10 5 -10 13t5 18.5t9 20.5q10 24 -8 37q-21 14 -42 14t-39.5 -17.5t-18.5 -48.5q0 -45 44 -86.5t120 -41.5t126.5 45t50.5 110q0 88 -132 155q-7 4 -31 15.5t-33 16.5t-29.5 16t-32 19t-27.5 19q-24 16 -51 46q-38 46 -38 108.5t61 111t143.5 48.5t140.5 -31
t58 -70q0 -24 -20 -32q-7 -2 -18 -2t-21.5 7t-24 19t-24.5 19q-30 20 -82 20t-92.5 -27t-40.5 -66.5t38 -73.5q34 -30 107 -69.5t97 -54.5q59 -35 95.5 -85.5t36.5 -108.5q0 -92 -71.5 -158.5t-182.5 -66.5t-175 58t-64 128t37 108.5t93 38.5t86 -28t30 -64t-19 -59
q-11 -15 -26 -20.5t-25 -0.5z" />
    <glyph glyph-name="T" unicode="T" horiz-adv-x="629" 
d="M310.5 3.5q-11.5 -13.5 -30 -13.5t-29 13.5t-11 24.5t-0.5 22t2 75.5t2 249.5t11 249q-53 4 -117 23q-118 36 -118 78q-1 23 20 34q10 5 19.5 5t19.5 -8q15 -8 26 -16q39 -27 165 -46q26 53 81 81.5t117.5 28.5t96.5 -28q36 -27 36 -63.5t-41 -67.5t-145 -31q-57 0 -89 3
q-10 -30 -10 -201t3 -274t3 -114t-11.5 -24.5zM461 734q-84 0 -118 -48q26 -5 57 -5t78.5 9t47.5 23q0 21 -65 21z" />
    <glyph glyph-name="U" unicode="U" horiz-adv-x="793" 
d="M152 690q-23 0 -38.5 -18t-15.5 -42t9 -40.5t18 -25.5t9 -14q0 -24 -28 -24t-53 31t-25 73t26 86q32 49 98 49t101 -45.5t35 -101t-25.5 -191t-25.5 -171.5q0 -93 30 -147t89.5 -54t112 71t79.5 157.5t32 168.5q-3 70 -3 242q0 66 43 66q52 0 52 -83q0 -20 -26 -256
q2 -108 22 -219t39 -131q6 -7 27 -8.5t21 -11.5q0 -28 -19 -47q-20 -20 -39.5 -20t-26.5 6q-15 8 -32 36q-15 28 -24 77.5l-10 55t-4.5 33t-5.5 35.5q-24 -93 -83.5 -167.5t-159 -74.5t-149.5 77q-44 71 -44 156.5t27.5 211.5t27.5 179q0 81 -61 81z" />
    <glyph glyph-name="V" unicode="V" horiz-adv-x="737" 
d="M210 358l3 170q0 163 -74 163q-21 0 -34 -12.5t-12 -26t9 -22.5q6 -4 21 -10q32 -13 32 -36q0 -35 -38 -35t-65.5 30.5t-27.5 73.5t30 77.5t80 34.5q96 0 128 -67q28 -55 28 -162q-1 -58 -4 -174q0 -139 27 -220.5t74 -81.5q33 0 59.5 57t65.5 191.5t68 236.5
q45 164 48 172q14 42 44 42q19 0 28.5 -13t9.5 -27t-28.5 -104.5t-85 -282t-85.5 -250.5q-48 -97 -130 -97t-126.5 97.5t-44.5 275.5z" />
    <glyph glyph-name="W" unicode="W" horiz-adv-x="1060" 
d="M209 358l3 170q0 163 -74 163q-21 0 -33.5 -12.5t-11.5 -26.5t9 -23q6 -4 21 -10q32 -13 32 -36q0 -35 -38 -35t-65.5 30.5t-27.5 74t30 78t79 34.5q96 0 128 -67q28 -55 28 -162l-4 -174q0 -140 24.5 -221t66.5 -81q49 0 90 83.5t41 179.5l-2 223q0 66 43 66
q52 0 52 -83q0 -26 -20 -212q1 -92 42 -172.5t89 -80.5q44 0 69 80t25 221l-4 171q0 105 25 162q28 67 119 67q37 0 65.5 -24t28.5 -48t-22 -24q-7 0 -28 11t-37 11q-74 0 -74 -163l3 -167q0 -179 -43.5 -275t-129.5 -96q-55 0 -97 49.5t-67 136.5q-24 -89 -66.5 -140
t-98.5 -51q-85 0 -127.5 96t-42.5 277z" />
    <glyph glyph-name="X" unicode="X" horiz-adv-x="752" 
d="M365 321q-101 -162 -141 -231l-45 -76q-17 -24 -39 -24q-40 0 -40 35q0 17 9 30l44 67q75 109 177 269q-54 144 -104.5 223t-89.5 79q-28 0 -37 -26q-3 -9 -3 -19.5t8 -16t23 -11.5q32 -13 32 -36q0 -35 -37.5 -35t-66.5 30q-27 27 -27 73q0 59 46 92q26 20 61 20h4
q68 0 121 -71q55 -71 116 -230q35 56 95.5 160.5t70.5 120.5q12 16 32 16t28 -10.5t8 -23.5t-7.5 -28.5t-33.5 -58.5l-156 -249q119 -335 198 -335q20 0 31 12.5t11 31t-13 28.5t-30 11q-42 3 -42 21t17 27t38 9q39 0 67.5 -29t28.5 -72.5t-30.5 -76.5t-82.5 -33t-102 56
q-58 69 -139 281z" />
    <glyph glyph-name="Y" unicode="Y" horiz-adv-x="583" 
d="M21 713q0 47 36 47q10 0 20 -9.5t14.5 -23t12.5 -45t20 -71.5q34 -114 94 -189q33 -41 63 -41q15 0 22 4q44 279 115 349q30 30 65.5 30t54 -22.5t18.5 -60.5q0 -83 -57.5 -177.5t-125.5 -161.5q-8 -50 -8 -135t5 -160.5t5 -90.5t-11.5 -28t-29.5 -13q-38 0 -44 93
q-1 24 -1 85t12 217q-12 -2 -26 -2q-51 0 -92.5 38.5t-80 120.5t-60 149.5t-21.5 96.5zM477 692q-21 0 -59 -104t-42 -154q38 44 75 119t37 118q0 21 -11 21z" />
    <glyph glyph-name="Z" unicode="Z" horiz-adv-x="623" 
d="M93 111q46 75 150 248.5t179 326.5q-70 -17 -124.5 -17t-93.5 2.5t-69.5 8.5t-55 19.5t-22.5 32.5q0 33 35 33q4 0 63 -13t121 -13t128 13t76 13q47 0 47 -39q0 -21 -31 -77.5t-85 -148t-93 -156.5q-114 -187 -149 -250q125 -39 197 -39t112.5 26t40.5 71.5t-35 59.5
q-12 6 -27 6t-28 -17q-23 -23 -8 -66q3 -9 3 -10q1 -18 -23 -14t-38 35q-7 16 -7 26.5v13.5q0 34 31 65.5t79 31.5t85.5 -35.5t37.5 -102.5t-59.5 -113.5t-151.5 -46.5t-241 45q-28 -36 -61.5 -36t-46.5 14q-16 17 -16 33.5t5.5 30t25.5 25.5t49 14z" />
    <glyph glyph-name="bracketleft" unicode="[" horiz-adv-x="348" 
d="M150 -160h44l87 3h5q21 0 28.5 -12t7.5 -21t-7.5 -21t-28.5 -12h-5l-87 3l-77 -4q-18 0 -29.5 9t-11.5 21t3 160t3 299t-3 299t-3 160t11.5 21t29.5 9l77 -4l87 3h5q21 0 28.5 -12t7.5 -21t-7.5 -21t-28.5 -12h-5l-87 3h-44q-6 -342 -6 -425t6 -425z" />
    <glyph glyph-name="backslash" unicode="\" horiz-adv-x="363" 
d="M307 -112q0 -40 -36 -40q-33 0 -40 42l-13 69q-77 417 -149 692q-12 53 -12 67q0 42 36 42q31 0 40 -42l13 -69q50 -271 93 -454l56 -239q12 -53 12 -68z" />
    <glyph glyph-name="bracketright" unicode="]" horiz-adv-x="348" 
d="M154 750l77 4q18 0 29.5 -9t11.5 -21t-3 -160.5t-3 -299t3 -299t3 -160t-11.5 -20.5t-29.5 -9l-77 4l-87 -3h-5q-21 0 -28.5 12t-7.5 21t7.5 21t28.5 12h5l87 -3h44q6 342 6 425t-6 425h-44l-87 -3h-5q-21 0 -28.5 12t-7.5 21t7.5 21t28.5 12h5z" />
    <glyph glyph-name="asciicircum" unicode="^" horiz-adv-x="521" 
d="M481 395q2 -8 -8 -17.5t-27.5 -9.5t-30.5 24q0 2 -38 73q-106 207 -117 207q-7 0 -81 -138.5t-74 -141.5q-13 -24 -30 -24q-33 0 -33 29q0 19 54 109l45 76q15 26 33 60l51 95q13 23 36.5 23t36.5 -22q30 -62 101.5 -185t76.5 -136t5 -22z" />
    <glyph glyph-name="underscore" unicode="_" horiz-adv-x="576" 
d="M86 -157l202 -3l197 3h5q21 0 28.5 -12t7.5 -21t-7.5 -21t-28.5 -12h-5l-197 3l-197 -3h-5q-21 0 -28.5 12t-7.5 21t7.5 21t28.5 12z" />
    <glyph glyph-name="grave" unicode="`" horiz-adv-x="285" 
d="M215 614q0 -21 -27 -21t-73 43q-45 44 -45 86q-1 3 -1 6q0 19 22 28q8 4 20 4q23 0 46 -54q14 -31 36 -55.5t22 -36.5z" />
    <glyph glyph-name="a" unicode="a" horiz-adv-x="571" 
d="M467 242q0 -73 10.5 -121.5t26.5 -54.5q6 -3 14.5 -4t12 -3t3.5 -8q0 -28 -15 -44.5t-43.5 -16.5t-44.5 36.5t-16 95.5q-27 -58 -75 -95t-108.5 -37t-103.5 40q-80 74 -80 209q0 109 63 190t162 81q75 0 130 -51q0 51 38 51q46 0 46 -68.5t-20 -199.5zM409 233l-5 154
q-59 58 -125 58t-113 -59t-47 -142.5t31 -136t86 -52.5t101.5 49t71.5 129z" />
    <glyph glyph-name="b" unicode="b" horiz-adv-x="552" 
d="M505 261q0 -109 -63 -190t-162 -81q-74 0 -130 51q0 -51 -38 -51q-46 0 -46 68.5t20 199.5q0 68 -9 256.5t-9 203.5t10.5 29t22 14t21.5 -5q24 -11 24 -39v-7v-316q27 52 73 84t104 32t101 -40q81 -74 81 -209zM144 267l5 -154q59 -58 125 -58t113 59t47 142.5t-31 136
t-86 52.5t-101.5 -49t-71.5 -129z" />
    <glyph glyph-name="c" unicode="c" horiz-adv-x="509" 
d="M446 103q25 0 25 -26.5t-58 -59.5q-59 -32 -122 -32q-104 0 -175 77q-70 77 -70 188t70 188t186 77q62 0 111 -28.5t49 -56.5t-20 -36q-6 -2 -16.5 -2t-26.5 14q-53 44 -106 44q-69 0 -121 -58q-51 -58 -51 -141.5t52.5 -142t128.5 -58.5q60 0 115 40q19 13 29 13z" />
    <glyph glyph-name="d" unicode="d" horiz-adv-x="588" 
d="M424 228v159q-59 58 -142 58q-63 0 -112 -58.5t-49 -138t35 -137.5q35 -56 95 -56q105 0 173 173zM466 760q49 0 49 -81q0 -31 -4 -72l-12 -131q-11 -122 -13 -147q0 -131 9.5 -195.5t34.5 -69.5q26 0 26 -15q0 -22 -14.5 -40.5t-41.5 -18.5q-56 0 -69 134
q-74 -134 -185 -134q-66 0 -112 42q-87 77 -87 207q0 109 66 190t169 81q75 0 142 -49q2 186 2 227t9.5 56.5t30.5 15.5z" />
    <glyph glyph-name="e" unicode="e" horiz-adv-x="539" 
d="M317 450q-66 0 -110.5 -49.5t-58.5 -115.5q54 -16 121.5 -16t108.5 23t41 63t-27.5 67.5t-74.5 27.5zM274 206q-52 0 -127 15q6 -71 52.5 -121t108.5 -50t102 30.5t52.5 30.5t20 -7.5t7.5 -18.5q0 -28 -57.5 -64t-124.5 -36q-104 0 -165.5 73.5t-65.5 175.5
q-53 17 -53 52q0 23 17 30q6 2 15.5 2t26.5 -9q23 91 83.5 148.5t142 57.5t131.5 -45t50 -117.5t-62 -109.5t-154 -37z" />
    <glyph glyph-name="f" unicode="f" horiz-adv-x="327" 
d="M58 502l50 -2v85q0 88 34.5 131.5t83.5 43.5t81.5 -18t32.5 -40q0 -33 -28 -33q-7 0 -33.5 12t-41.5 12q-62 0 -62 -117v-76l97 2q16 0 27 -8.5t11 -23.5q0 -30 -38 -30l-97 2l3 -359q0 -99 -36.5 -152.5t-75 -53.5t-38.5 19q0 8 7.5 15.5t20.5 19.5t22 25q29 41 32 117
t3 178t-4 191l-51 -2q-38 0 -38 30q0 15 11 23.5t27 8.5z" />
    <glyph glyph-name="g" unicode="g" horiz-adv-x="558" 
d="M408 234v153q-55 58 -121.5 58t-116 -59t-49.5 -141.5t31.5 -136t85.5 -53.5t99.5 50.5t70.5 128.5zM406 463q2 47 38 47q46 0 46 -68.5t-20 -199.5q12 -122 12 -182q0 -130 -62 -210t-172 -80q-60 0 -116 25.5t-56 51t23 25.5q9 0 51 -18.5t98 -18.5q80 0 126 59.5
t46 155.5q0 35 -5 72q-23 -54 -72 -93t-102 -39q-96 0 -149 83q-45 75 -45 175t67 181t167 81q69 0 125 -47z" />
    <glyph glyph-name="h" unicode="h" horiz-adv-x="577" 
d="M494 315l-5 -157v-43q2 -41 20 -49q7 -2 16 -3.5t12.5 -3.5t3.5 -8q0 -26 -16.5 -43.5t-38.5 -17.5q-37 0 -52 29t-15 89l4 184q0 69 -29.5 110.5t-80.5 41.5t-98.5 -56.5t-67.5 -129.5l3 -217q0 -51 -38 -51q-46 0 -46 68.5t20 199.5q0 68 -9 256.5t-9 203.5t10.5 29
t22 14t21.5 -5q24 -11 24 -39v-7v-327q73 127 180 127q81 0 124.5 -57.5t43.5 -137.5z" />
    <glyph glyph-name="i" unicode="i" 
d="M117 725q41 0 41 -48q0 -22 -14.5 -41.5t-34.5 -19.5q-42 0 -42 51q0 24 14.5 41t35.5 17zM150 460l-5 -210l5 -210q0 -50 -38 -50t-38 50l5 210l-5 210q0 50 38 50t38 -50z" />
    <glyph glyph-name="j" unicode="j" horiz-adv-x="223" 
d="M117 725q41 0 41 -48q0 -22 -14.5 -41.5t-34.5 -19.5q-42 0 -42 51q0 24 14.5 41t35.5 17zM150 460l-5 -230l-1 -220q0 -86 -43.5 -142.5t-80.5 -56.5q-27 0 -27 19q0 14 43 56q18 17 31 53t13 81l-1 210l-5 230q0 50 38 50t38 -50z" />
    <glyph glyph-name="k" unicode="k" horiz-adv-x="510" 
d="M147 258l3 -217q0 -51 -38 -51q-46 0 -46 68.5t20 199.5q0 68 -9 256.5t-9 203.5t10.5 29t22 14t21.5 -5q24 -11 24 -39v-7v-327q73 127 180 127q57 0 92.5 -33.5t35.5 -83.5q0 -82 -85 -140l-49 -32l74 -114q13 -21 29.5 -32t28 -12.5t18.5 -3.5t6 -8q0 -24 -15 -42.5
t-36 -18.5h-16q-25 0 -62 61q-1 3 -2.5 5t-36.5 58.5t-55 84.5q-26 0 -43 14t-17 40t29 38q8 3 16 3q23 0 49 -25q38 17 67.5 52t29.5 63q0 60 -62 60q-56 0 -106 -56t-69 -130z" />
    <glyph glyph-name="l" unicode="l" 
d="M150 710l-5 -335l5 -335q0 -50 -38 -50t-38 50l5 335l-5 335q0 50 38 50t38 -50z" />
    <glyph glyph-name="m" unicode="m" horiz-adv-x="877" 
d="M794 315l-5 -157v-43q2 -41 20 -49q7 -2 16 -3.5t12.5 -3.5t3.5 -8q0 -26 -16.5 -43.5t-38.5 -17.5q-37 0 -52 29t-15 89l4 184q0 69 -27 110.5t-74 41.5t-92 -57t-63 -129l3 -217q0 -51 -38 -51q-46 0 -46 68.5t20 199.5q0 186 -102 186q-47 0 -92 -57t-63 -129l3 -217
q0 -51 -38 -51q-46 0 -46 68.5t20 199.5q0 42 -8.5 118t-8.5 92t11 29t28 13t28 -13t11 -28t-0.5 -45t-0.5 -41q67 127 170 127q58 0 95.5 -34t52.5 -93q67 127 170 127q76 0 116 -57q42 -57 42 -138z" />
    <glyph glyph-name="n" unicode="n" horiz-adv-x="579" 
d="M496 315l-5 -157v-43q2 -41 20 -49q7 -2 16 -3.5t12.5 -3.5t3.5 -8q0 -26 -16.5 -43.5t-38.5 -17.5q-37 0 -52 29t-15 89l4 184q0 69 -29.5 110.5t-80.5 41.5t-98.5 -56.5t-67.5 -129.5l3 -217q0 -51 -38 -51q-46 0 -46 68.5t20 199.5q0 42 -8.5 118t-8.5 92t11 29t28 13
t28 -13t11 -28t-0.5 -45t-0.5 -41q73 127 180 127q80 0 124 -57.5t44 -137.5z" />
    <glyph glyph-name="o" unicode="o" horiz-adv-x="562" 
d="M163 108q46 -58 115.5 -58t118 58.5t48.5 141.5t-46.5 141.5t-115 58.5t-118.5 -59q-48 -59 -48 -142t46 -141zM46 249q0 111 67 188.5t169 77.5t168 -76.5t66 -188t-67.5 -188.5t-169 -77t-167.5 76.5t-66 187.5z" />
    <glyph glyph-name="p" unicode="p" horiz-adv-x="570" 
d="M319 445q-105 0 -173 -173v-159q59 -58 142 -58q64 0 112.5 58.5t48.5 138.5t-34.5 136.5t-95.5 56.5zM146 39q-2 -76 -2 -126.5t-1 -74.5q-2 -41 -9 -52q-9 -16 -30.5 -16t-34.5 17t-13 56t3 74l12 119q11 115 13 135v19l1 38v16q0 42 -9 123t-9 99t11 31t28 13t28 -13
t11 -28t-0.5 -46t-0.5 -42q35 65 76.5 97t105.5 32t110 -42q87 -77 87 -207q0 -109 -66 -190t-169 -81q-75 0 -142 49z" />
    <glyph glyph-name="q" unicode="q" horiz-adv-x="553" 
d="M48 239q0 109 63 190t162 81q75 0 130 -51q0 51 38 51q46 0 46 -68.5t-20 -199.5q0 -64 9 -239.5t9 -190t-11 -29t-22.5 -14.5t-21.5 5q-24 11 -24 38q0 4 1 8v286q-27 -52 -73 -84t-104.5 -32t-101.5 40q-80 74 -80 209zM409 233l-5 154q-59 58 -125 58t-113 -59
t-47 -142.5t31 -136t86 -52.5t101.5 49t71.5 129z" />
    <glyph glyph-name="r" unicode="r" horiz-adv-x="408" 
d="M149 229l3 -188q0 -51 -38 -51q-46 0 -46 68.5t20 199.5q0 42 -8.5 117.5t-8.5 91.5t11 29.5t28 13.5t28 -13.5t11 -27.5t-0.5 -45t-0.5 -43q19 50 62 90q44 39 87.5 39t69 -17.5t25.5 -39.5t-11 -34t-28.5 -12t-38.5 18q-19 19 -32 19q-33 0 -77 -71.5t-56 -143.5z" />
    <glyph glyph-name="s" unicode="s" horiz-adv-x="455" 
d="M416 144q0 -67 -55.5 -110.5t-132.5 -43.5t-135 35q-57 36 -57 71q0 23 19 31t29 -2q2 -1 40 -39q11 -10 41 -20.5t53 -10.5q56 0 91 23t35 65q0 53 -100 87q-111 38 -142 65q-15 13 -27.5 34.5t-12.5 45.5q0 54 49.5 94.5t118.5 40.5t112 -23.5t43 -52.5q0 -33 -35 -33
q-14 0 -30 11q-48 33 -92.5 33t-67.5 -20q-27 -19 -27 -44.5t26 -41.5t85 -39.5t72 -29.5q44 -19 72 -52t28 -74z" />
    <glyph glyph-name="t" unicode="t" horiz-adv-x="337" 
d="M266 437l-83 2l-2 -237q0 -92 7 -119.5t40 -27.5q16 0 38 10.5t27 10.5q21 0 21 -21t-37 -43t-73 -22q-87 0 -87 128l-1 321q-33 -3 -46 -3q-50 0 -50 33t50 33l44 -2l-2 112q0 50 38 50t38 -50l-3 -113l81 4q50 0 50 -34q0 -32 -50 -32z" />
    <glyph glyph-name="u" unicode="u" horiz-adv-x="584" 
d="M151 428l-8 -220q0 -69 29.5 -111t80.5 -42t99 57q47 58 67 130l-3 217q0 51 38 51q46 0 46 -68.5t-20 -199.5q0 -73 10.5 -121.5t26.5 -54.5q6 -3 14.5 -4t12 -3t3.5 -8q0 -27 -16.5 -44t-41.5 -17q-63 0 -63 128q-74 -128 -186 -128q-80 0 -124 59q-44 61 -44 146
l6 151q0 31 -8 74.5t-8 54.5t12.5 23t30.5 12q46 0 46 -82z" />
    <glyph glyph-name="v" unicode="v" horiz-adv-x="485" 
d="M267 124l52 143q12 32 36 108t33 99q14 36 39 36q15 0 25.5 -9.5t10.5 -23t-5.5 -28.5t-10 -25.5t-11.5 -29t-17 -43.5t-55.5 -152t-66.5 -168t-55.5 -41t-52.5 36q-6 11 -52 132l-60 157q-36 92 -45 117.5t-9 42t10 26t25 9.5q27 0 41 -35q9 -23 29 -88l59 -168
q31 -88 41 -113t14 -26q8 0 25 44z" />
    <glyph glyph-name="w" unicode="w" horiz-adv-x="786" 
d="M229 80q10 0 65 188.5t62 205.5q14 36 44.5 36t42.5 -35l58 -207q56 -188 64 -188q11 0 66 187q13 43 33 117l24 87q12 39 37 39q15 0 25.5 -9t10.5 -24t-18 -71t-25.5 -77t-46 -141t-54 -159t-55.5 -39t-58 52q-36 104 -69 219.5t-40.5 115.5t-19.5 -40l-26 -92
q-52 -183 -72 -220q-17 -35 -55 -35t-57 55q-2 6 -6 17t-10.5 31l-13 40t-34.5 104l-27 79q-9 27 -20 58q-29 79 -29 97.5t10.5 28.5t25.5 10q29 0 40 -35q1 -1 26 -88l32 -106q4 -11 11 -32q24 -79 39 -124t20 -45z" />
    <glyph glyph-name="x" unicode="x" horiz-adv-x="492" 
d="M283 262l102 -153q39 -53 87 -59q4 -1 3 -4q0 -24 -14.5 -42.5t-35.5 -18.5t-40 19t-37 45t-31 44l-75 113q-66 -96 -98.5 -145t-42 -60.5t-21.5 -11.5t-23 10.5t-11 21.5t3 19.5t42 61.5q42 54 114 159l-86 128q-42 54 -66.5 55.5t-24.5 11.5q0 39 31 55q9 5 19 5
q22 0 45 -25t60 -83l63 -95l115 173q19 24 36 24q5 0 9 -2q21 -9 21 -27t-9.5 -33.5t-58.5 -82.5z" />
    <glyph glyph-name="y" unicode="y" horiz-adv-x="568" 
d="M419 242l-3 217q0 51 38 51q46 0 46 -75q0 -59 -21 -193q12 -122 12 -182q0 -131 -64.5 -210.5t-179.5 -79.5q-60 0 -116 25.5t-56 51t23 25.5q10 0 55 -18.5t94 -18.5q83 0 132.5 59.5t49.5 155.5q0 35 -3 68q-74 -128 -186 -128q-80 0 -124 59q-44 61 -44 146l6 151
q0 31 -8 74.5t-8 54.5t12.5 23t30.5 12q46 0 46 -82l-8 -220q0 -69 29.5 -111t80.5 -42t99 57q47 58 67 130z" />
    <glyph glyph-name="z" unicode="z" horiz-adv-x="478" 
d="M245 60l150 5q50 0 50 -35t-50 -35l-150 5q-54 -2 -162 -5q-48 0 -48 35q0 25 35 66q53 60 107 134l107 143q33 47 42 64q-75 3 -85 3l-146 -5q-50 0 -50 35t50 35l146 -5l142 5q48 0 48 -35q0 -27 -51 -86.5t-126.5 -161.5t-114.5 -160q80 -2 106 -2z" />
    <glyph glyph-name="braceleft" unicode="{" horiz-adv-x="307" 
d="M228 -230q-45 0 -76.5 29t-31.5 79q0 30 7.5 96.5t7.5 107.5t-8 83.5t-23 49.5q-17 -9 -32 -9q-58 0 -58 50q-2 25 16 41t39 16t35 -6q11 14 21.5 57t10.5 83t-7.5 106.5t-7.5 96.5q0 50 31.5 80t76.5 30q24 0 33 -18q4 -8 4 -17.5t-6 -18.5q-9 -19 -31 -19
q-38 0 -38 -47q0 -19 7.5 -82t7.5 -110q0 -115 -49 -179q20 -28 26 -39t14 -52t8 -93t-7.5 -115t-7.5 -82q0 -45 38 -45q22 0 32 -19q4 -9 4 -18t-4 -18q-9 -18 -32 -18z" />
    <glyph glyph-name="bar" unicode="|" horiz-adv-x="220" 
d="M144 750l-4 -495q0 -274 2 -351q3 -116 3 -124q0 -50 -35 -50t-35 50q0 36 2.5 129t2.5 346l-4 495q0 50 34 50t34 -50z" />
    <glyph glyph-name="braceright" unicode="}" horiz-adv-x="307" 
d="M203 215q-16 -7 -23.5 -47t-7.5 -87.5t7.5 -114.5t7.5 -88q0 -50 -31.5 -79t-76.5 -29q-23 0 -32 18q-4 9 -4 18t5 18q9 19 31 19q38 0 38 45q0 11 -7.5 74t-7.5 122q0 107 23 148q5 9 25 37q-49 64 -49 179q0 55 7.5 118t7.5 74q0 47 -38 47q-22 0 -32 19q-5 9 -5 18.5
t5 17.5q8 18 32 18q45 0 76.5 -30t31.5 -80q0 -21 -7.5 -88t-7.5 -111t10.5 -87t21.5 -57q12 6 35 6t39 -16t16 -41q0 -36 -31 -46q-12 -4 -27 -4t-32 9z" />
    <glyph glyph-name="asciitilde" unicode="~" horiz-adv-x="552" 
d="M59 238q0 33 43 61q44 30 93 30t105 -29.5t79 -29.5t35.5 9t23.5 19q24 22 33 22q23 0 23 -26t-36 -56t-74.5 -30t-92 29t-83 29t-58.5 -29q-33 -32 -54 -32t-29 10t-8 23z" />
    <glyph glyph-name="nbspace" unicode="&#xa0;" horiz-adv-x="238" 
 />
    <glyph glyph-name="exclamdown" unicode="&#xa1;" horiz-adv-x="220" 
d="M113 545q20 0 31.5 -15.5t11.5 -39t-15 -42t-35 -18.5t-31 14.5t-11 38.5t14.5 43t34.5 19zM146 274l-3 -212q0 -58 3.5 -142t3.5 -100q0 -50 -40 -50t-40 50q0 7 3.5 90.5t3.5 151.5l-3 212q0 50 36 50t36 -50z" />
    <glyph glyph-name="cent" unicode="&#xa2;" horiz-adv-x="534" 
d="M326 594l-2 -80q61 -3 104 -31q45 -27 45 -55q0 -15 -10 -26t-22.5 -11t-47.5 26q-34 28 -70 32q-1 -35 -1 -142t2 -257q44 3 84 28t49 25q25 0 25 -25t-49 -56q-49 -30 -108 -36l2 -70q0 -51 -35 -51t-35 50t1 74q-91 17 -146 90t-55 170t54 170q55 73 148 91
q-1 28 -1 88q0 47 34 47t34 -51zM260 58q2 146 2 202.5t-1 97.5v85q-53 -16 -91 -69t-38 -121t35 -123q36 -52 93 -72z" />
    <glyph glyph-name="sterling" unicode="&#xa3;" horiz-adv-x="536" 
d="M365 321l-150 3q1 -22 1 -62q0 -67 -32 -137q-13 -28 -31 -60q22 -1 88.5 -1t133.5 4l67 3q16 0 29 -10.5t13 -27.5q0 -38 -50 -38l-151 5l-162 -5q-37 0 -47 27q-4 8 -4 24.5t22 52t38.5 72t18.5 65.5t2 48t-3 38l-47 -1q-27 0 -38 21q-4 7 -4 16.5t10.5 18t20.5 10.5
t28 0.5t20 -1.5l-12 54q-17 76 -17 109q0 70 50 118q51 48 142 48q55 0 105 -28t51 -58q-3 -12 -5.5 -17t-11.5 -12q-16 -13 -61 18t-91 31t-76.5 -25.5t-30.5 -71.5t25 -168l159 3h5q21 0 28.5 -12t7.5 -21t-7.5 -21t-28.5 -12h-5z" />
    <glyph glyph-name="currency" unicode="&#xa4;" horiz-adv-x="641" 
d="M498 413q31 -54 31 -120.5t-31 -120.5l60 -57q22 -19 22 -34t-12 -27t-26 -12t-29 13t-60 61q-55 -48 -132.5 -48t-132.5 49l-53 -55q-22 -19 -37 -19t-26 10q-11 13 -11 28t21 34l61 59q-29 52 -29 117t30 119q-60 58 -62 61q-20 21 -20 36t12 27t27 12t34 -22l55 -57
q55 48 129.5 48t132.5 -47l53 56q22 19 37 19t25 -11q12 -8 12 -25.5t-21 -35.5q-39 -39 -60 -58zM320 134q58 0 99.5 47t41.5 113t-40 110q-39 46 -97 46t-99.5 -47t-41.5 -112t39 -112q40 -45 98 -45z" />
    <glyph glyph-name="yen" unicode="&#xa5;" horiz-adv-x="585" 
d="M131 301q-54 0 -54 29q0 7 4 16q10 19 27 19h23t95 -3l-82 145l-58 98q-17 34 -22 39q-11 22 -11 37t12.5 25.5t25.5 10.5t24 -15q20 -20 38 -60l68 -138q43 -86 72 -131q27 41 93.5 175.5t77 150.5t27.5 16t27.5 -9.5t10.5 -18t-0.5 -13t-2.5 -10t-8.5 -17.5t-14.5 -25
q-24 -41 -60 -103l-89 -157q81 3 108 3q51 0 51 -32q0 -15 -11.5 -23.5t-45.5 -8.5t-130 3v-79l146 3q18 0 29.5 -8.5t11.5 -23.5t-11.5 -23.5t-44 -8.5t-131.5 3l3 -127q0 -50 -39 -50t-39 50l4 127q-93 -3 -124 -3q-55 0 -55 30q0 7 4 14q11 20 38 20l137 -3v79
q-93 -3 -124 -3z" />
    <glyph glyph-name="brokenbar" unicode="&#xa6;" horiz-adv-x="232" 
d="M150 684l-4 -151l5 -148q0 -46 -36 -46q-34 0 -34 46l5 148q-1 50 -4 151q0 43 33 43q35 0 35 -43zM150 115l-4 -151l5 -148q0 -46 -36 -46q-34 0 -34 46l5 148l-4 151q0 43 33 43q35 0 35 -43z" />
    <glyph glyph-name="section" unicode="&#xa7;" horiz-adv-x="536" 
d="M383 88q66 -62 66 -137t-61 -130.5t-152 -55.5q-66 0 -124 33t-58 66q0 21 18 28q6 2 15.5 2t23.5 -10l26 -21q34 -32 95 -32t99 34.5t38 87.5q0 34 -19.5 56.5t-29.5 33.5t-35 29l-35 24q-42 30 -78 50q-107 73 -107 158q0 51 37 92t99 55q-100 79 -100 150t52.5 117.5
t123 46.5t119 -22.5t48.5 -54.5q0 -20 -16 -26q-5 -2 -14.5 -2t-25.5 10q-48 30 -97.5 30t-78.5 -27q-31 -25 -31 -64q0 -65 107 -136q97 -60 124 -85t41 -45q32 -42 32 -91q0 -24 -7 -50q-24 -78 -95 -114zM168.5 365.5q-29.5 -25.5 -29.5 -62.5t41 -72q29 -25 71.5 -52.5
t73.5 -48.5q39 14 62.5 48t23.5 78.5t-53 87.5q-56 47 -108 47t-81.5 -25.5z" />
    <glyph glyph-name="dieresis" unicode="&#xa8;" horiz-adv-x="391" 
d="M120 725q41 0 41 -48q0 -22 -14.5 -41.5t-34.5 -19.5q-42 0 -42 51q0 24 14.5 41t35.5 17zM280 725q41 0 41 -48q0 -22 -14.5 -41.5t-34.5 -19.5q-42 0 -42 51q0 24 14.5 41t35.5 17z" />
    <glyph glyph-name="copyright" unicode="&#xa9;" horiz-adv-x="756" 
d="M383 635q41 0 76.5 -17t35.5 -38q0 -28 -27 -28q-7 0 -32.5 14t-47.5 14q-56 0 -89.5 -40.5t-33.5 -98t35 -98.5q36 -40 88 -40q28 0 57.5 12.5t36.5 12.5q22 0 22 -23q0 -16 -35 -36.5t-86 -20.5q-75 0 -128 57q-51 57 -51 137t50 136.5t129 56.5zM378 760
q130 0 222 -93.5t92 -224.5t-92 -224.5t-222 -93.5t-222 93.5t-92 224.5t92 224.5t222 93.5zM377 177q105 0 179.5 77.5t74.5 187.5t-74.5 187.5t-180 77.5t-179 -77.5t-73.5 -187t74 -188.5q74 -77 179 -77z" />
    <glyph glyph-name="ordfeminine" unicode="&#xaa;" horiz-adv-x="410" 
d="M318 546q0 -22 6 -58.5t24 -41.5l7 -2q7 -1 7 -5q0 -21 -12.5 -34t-33.5 -13q-39 0 -47 80q-13 -34 -43 -57t-64 -23q-53 0 -84 46.5t-31 109.5t40.5 112.5t100.5 49.5q44 0 76 -32q5 32 33 32q33 0 33 -57q0 -9 -12 -107zM266 550l-3 73q-30 32 -69 32q-47 0 -74 -47
q-16 -27 -15.5 -66.5t17.5 -68t45.5 -28.5t56.5 31t42 74z" />
    <glyph glyph-name="guillemotleft" unicode="&#xab;" horiz-adv-x="507" 
d="M200 511q11 0 16 -3q20 -8 20 -26t-8.5 -26.5t-32.5 -26.5t-29 -23q-48 -44 -48 -57t48 -57q5 -5 29 -23t32.5 -26.5t8.5 -22t-9 -23.5q-10 -10 -20.5 -10t-21.5 6l-16 12q-32 36 -45 49t-58 54q-22 22 -22 38.5t8 27.5t34 34l37 35q7 6 24.5 25.5t29.5 31t23 11.5z
M409 510q36 0 36 -33q0 -13 -8.5 -21.5t-32.5 -26.5t-29 -23q-48 -44 -48 -57t48 -57q5 -5 29 -23t32.5 -26.5t8.5 -22t-9 -23.5q-10 -10 -20.5 -10t-21.5 6l-16 12q-32 36 -45 49t-58 54q-22 22 -22 38.5t8 27.5t34 34l37 35q8 8 25.5 27t29 29.5t22.5 10.5z" />
    <glyph glyph-name="logicalnot" unicode="&#xac;" horiz-adv-x="634" 
d="M556 251l-2 -60l2 -60q0 -25 -18 -35q-8 -6 -17 -6l-17 6q-18 10 -18 35l3 60v38q-104 2 -173 2l-197 -3q-25 0 -35 16q-6 9 -6 17t5 17q10 16 36 16l197 -3l197 3q43 0 43 -43z" />
    <glyph glyph-name="uni00AD" unicode="&#xad;" horiz-adv-x="428" 
d="M107 294l107 -3l107 3h5q21 0 28.5 -12t7.5 -21t-7.5 -21t-28.5 -12h-5l-107 3l-107 -3h-5q-21 0 -28.5 12t-7.5 21t7.5 21t28.5 12h5z" />
    <glyph glyph-name="registered" unicode="&#xae;" horiz-adv-x="756" 
d="M378 760q130 0 222 -93.5t92 -224.5t-92 -224.5t-222 -93.5t-222 93.5t-92 224.5t92 224.5t222 93.5zM377 177q105 0 179.5 77.5t74.5 187.5t-74.5 187.5t-180 77.5t-179 -77.5t-73.5 -187t74 -188.5q74 -77 179 -77zM242 301l4 158l-5 137q0 47 123 47q69 0 108 -34.5
t39 -82.5q0 -72 -81 -110q12 -19 23 -39.5t24 -36.5q16 -25 42 -25q7 0 7 -5q0 -31 -26 -42q-9 -4 -21 -4q-23 0 -50 43l-26 46q-10 19 -29 50q-18 -3 -36 -3t-37 3q3 -72 3 -95q0 -45 -32 -45q-30 0 -30 38zM301 580l-2 -53q-1 -27 -1 -64q19 9 43.5 9t54.5 -11
q20 0 38 19.5t18 44.5t-20 44.5t-61 19.5t-70 -9z" />
    <glyph glyph-name="overscore" unicode="&#xaf;" horiz-adv-x="436" 
d="M91 703l127 -3l127 3h5q21 0 28.5 -12t7.5 -21t-7.5 -21t-28.5 -12h-5l-127 3l-127 -3h-5q-21 0 -28.5 12t-7.5 21t7.5 21t28.5 12h5z" />
    <glyph glyph-name="degree" unicode="&#xb0;" horiz-adv-x="334" 
d="M167 715q53 0 85.5 -42t32.5 -104t-32.5 -104t-85.5 -42t-86 42q-32 43 -32 104t32 104q33 42 86 42zM167.5 478q27.5 0 42.5 25t15 65t-15 66t-42.5 26t-43 -26t-15.5 -65t15.5 -65t43 -26z" />
    <glyph glyph-name="plusminus" unicode="&#xb1;" horiz-adv-x="570" 
d="M285 60l177 3h5q21 0 28.5 -12t7.5 -21t-7.5 -21t-28.5 -12h-5l-177 3l-177 -3h-5q-21 0 -28.5 12t-7.5 21t7.5 21t28.5 12h5zM316 356l146 3h5q21 0 28.5 -12t7.5 -21t-7.5 -21t-28.5 -12h-28.5t-122.5 3l4 -127q0 -19 -9.5 -30t-25.5 -11q-33 0 -33 41q0 16 4 127
q-102 -3 -134 -3t-44 9.5t-12 19t4 16.5q11 21 38 21l148 -3q-4 96 -4 113q0 41 33 41q16 0 25.5 -10.5t9.5 -29t-4 -114.5z" />
    <glyph glyph-name="twosuperior" unicode="&#xb2;" horiz-adv-x="374" 
d="M130 393h51l103 5q42 0 42 -32t-42 -32l-102 4q-31 -1 -93 -4q-16 0 -28 10t-12 31t29 55q157 175 157 226q2 21 -13.5 35.5t-39.5 14.5q-29 0 -51.5 -21.5t-38.5 -23.5t-23 7.5t-7 21.5q0 22 35 48.5t87 26.5t84 -30t32 -66t-23 -79q-9 -22 -21 -36q-30 -36 -47 -62
l-41 -50q-20 -24 -38 -49z" />
    <glyph glyph-name="threesuperior" unicode="&#xb3;" horiz-adv-x="370" 
d="M95 765l81 -2l73 2q54 0 54 -37q0 -11 -8 -21.5t-40 -44t-48 -53.5q55 -12 86 -48.5t31 -88.5t-40 -95t-108 -43q-48 0 -88 30t-40 55.5t24 25.5q12 0 25 -13q40 -38 81.5 -38t60.5 23q22 22 22 59t-25.5 62t-62.5 27q-31 -33 -55 -33q-36 0 -36 34q0 15 15.5 28t44.5 19
q58 62 83 91q-45 3 -59 3l-71 -3q-39 0 -39 29q0 14 10.5 23t28.5 9z" />
    <glyph glyph-name="acute" unicode="&#xb4;" horiz-adv-x="285" 
d="M215 722q0 -43 -46 -86.5t-72.5 -43.5t-26.5 22q0 13 11 24.5t28 32.5q8 12 19 37.5t22.5 38.5t28.5 13t26.5 -11t9.5 -27z" />
    <glyph glyph-name="mu" unicode="&#xb5;" horiz-adv-x="611" 
d="M372 30q-43 -40 -101 -40t-108 50l7 -219v-7q0 -26 -14 -35t-25 -9l-21 6q-18 12 -18 38v7l6 349q-15 206 -15 264q0 75 46 75q40 0 40 -61q0 -20 -2.5 -62.5t-2.5 -196.5q0 -60 30 -96.5t80 -36.5t97.5 56.5t67.5 129.5l-3 217q0 51 38 51q46 0 46 -68.5t-20 -199.5
q0 -73 10.5 -121.5t26.5 -54.5q6 -3 14.5 -4t12 -3t3.5 -8q0 -27 -16.5 -44t-41.5 -17q-63 0 -63 128q-29 -49 -74 -88z" />
    <glyph glyph-name="paragraph" unicode="&#xb6;" horiz-adv-x="628" 
d="M526 709l-5 -444q0 -180 3 -306t3 -143.5t-10.5 -31.5t-28.5 -14t-28.5 13.5t-10.5 42t3 154.5t3 285l-5 430q-30 2 -59 2l-59 -2q-5 -312 -5 -439.5t3 -274t3 -160.5q0 -51 -39 -51t-39 51q0 33 3 159t3 285v63q-96 5 -156.5 62.5t-60.5 142.5q0 105 65.5 165t180.5 62
l101 -3l87 3q22 0 35 -14t13 -37z" />
    <glyph glyph-name="middot" unicode="&#xb7;" horiz-adv-x="222" 
d="M114 315q21 0 32.5 -15t11.5 -39.5t-15 -43.5t-35 -19t-32 15.5t-12 39.5t14.5 43t35.5 19z" />
    <glyph glyph-name="cedilla" unicode="&#xb8;" horiz-adv-x="331" 
d="M166 -10q0 -30 52.5 -58.5t52.5 -68t-35 -66.5t-82.5 -27t-79 22t-31.5 48q0 7 5 13t13.5 6t35 -13t48 -13t38 10t16.5 21t-16 24q-1 0 -29.5 17.5t-40 32.5t-11.5 36v38h64v-22z" />
    <glyph glyph-name="onesuperior" unicode="&#xb9;" horiz-adv-x="297" 
d="M229 714l-3 -164l3 -172q0 -25 -17 -35q-8 -5 -16 -5t-16 5q-16 10 -16 35q1 57 3 172v120l-31 -35l-23 -29q-36 -47 -56 -47q-31 0 -31 30q0 17 33 50q33 31 64 68.5t42.5 47.5t27.5 10q36 0 36 -51z" />
    <glyph glyph-name="ordmasculine" unicode="&#xba;" horiz-adv-x="358" 
d="M179 715q57 0 94 -46t37 -116t-36.5 -115t-94.5 -45t-94.5 45t-36.5 115t37 116t94 46zM179 448q33 0 52 28.5t19 76.5t-19 77.5t-52 29.5t-52 -29.5t-19 -78t19 -76.5t52 -28z" />
    <glyph glyph-name="guillemotright" unicode="&#xbb;" horiz-adv-x="506" 
d="M306 188q-35 0 -35 32q0 14 8 22.5t32 26.5t30 23q48 44 48 57t-48 57q-6 5 -30 23t-32 26.5t-8 22t9.5 23.5t20 10t20.5 -7q10 -4 13.5 -8.5t28.5 -31t48 -47.5t29 -27q23 -21 23 -38t-8 -28t-34 -35l-37 -34q-8 -8 -25.5 -27t-29.5 -29.5t-23 -10.5zM98 188
q-11 0 -16 2q-20 9 -20 26.5t8 26t32 26.5t30 23q48 44 48 57t-48 57q-6 5 -30 23t-32 26.5t-8 22t9.5 23.5t20 10t20.5 -7q10 -4 13.5 -8.5t28.5 -31t48 -47.5t29 -27q23 -21 23 -38t-8 -28t-34 -35l-37 -34q-7 -7 -24.5 -26t-29.5 -30t-23 -11z" />
    <glyph glyph-name="onequarter" unicode="&#xbc;" horiz-adv-x="844" 
d="M244 714l-3 -164l3 -172q0 -25 -16 -35q-8 -5 -16 -5t-16 5q-17 10 -17 35q1 57 3 172v120l-31 -35l-23 -29q-36 -47 -56 -47q-31 0 -31 30q0 17 33 50q33 31 64 68.5t42.5 47.5t27.5 10q36 0 36 -51zM498 547q-49 -117 -94 -252t-82 -247q-14 -41 -25 -51.5t-21 -10.5
q-36 0 -36 33q0 18 15 59l51 127q36 90 73.5 198t44.5 131l66 190q14 42 45 42q14 -3 21.5 -8t7.5 -27t-15 -57zM734 182l38 2q9 0 17.5 -8.5t8.5 -22t-15 -19.5t-27 -6t-22 2l3 -97q0 -43 -30.5 -43t-30.5 43l3 99l-39 1l-131 -3q-33 0 -33 31q0 15 20 44t66 89l75 97
q32 41 54 41t34 -16t12 -41zM547 182h131q1 26 1 96l-1 78q-20 -22 -131 -174z" />
    <glyph glyph-name="onehalf" unicode="&#xbd;" horiz-adv-x="854" 
d="M244 714l-3 -164l3 -172q0 -25 -16 -35q-8 -5 -16 -5t-16 5q-17 10 -17 35q1 57 3 172v120l-31 -35l-23 -29q-36 -47 -56 -47q-31 0 -31 30q0 17 33 50q33 31 64 68.5t42.5 47.5t27.5 10q36 0 36 -51zM607 56h51l103 5q42 0 42 -32t-42 -32l-102 4l-93 -4q-16 0 -28 10
t-12 25q0 29 29 60q157 176 157 227q2 21 -13.5 35.5t-39.5 14.5q-29 0 -51.5 -21.5t-38.5 -23.5t-23 7.5t-7 21.5q0 22 34.5 48.5t87 26.5t84.5 -30t32 -66t-23 -79q-9 -22 -21 -36q-30 -36 -47 -62l-41 -50q-20 -24 -38 -49zM498 547q-49 -117 -94 -252t-82 -247
q-14 -41 -25 -51.5t-21 -10.5q-36 0 -36 33q0 18 15 59l51 127q36 90 73.5 198t44.5 131l66 190q14 42 45 42q14 -3 21.5 -8t7.5 -27t-15 -57z" />
    <glyph glyph-name="threequarters" unicode="&#xbe;" horiz-adv-x="894" 
d="M550 547q-49 -117 -94 -252t-82 -247q-14 -41 -25 -51.5t-21 -10.5q-36 0 -36 33q0 18 15 59l51 127q36 90 73.5 198t44.5 131l66 190q14 42 45 42q14 -3 21.5 -8t7.5 -27t-15 -57zM786 182l38 2q9 0 17.5 -8.5t8.5 -22t-15 -19.5t-27 -6t-22 2l3 -97q0 -43 -30.5 -43
t-30.5 43l3 99l-39 1l-131 -3q-33 0 -33 31q0 15 20 44t66 89l75 97q32 41 54 41t34 -16t12 -41zM599 182h131q1 26 1 96l-1 78q-20 -22 -131 -174zM101 765l81 -2l73 2q54 0 54 -37q0 -11 -8 -21.5t-40 -44t-48 -53.5q55 -12 86 -48.5t31 -88.5t-40 -95t-108 -43
q-48 0 -88 30t-40 55.5t24 25.5q12 0 25 -13q40 -38 81.5 -38t60.5 23q22 22 22 59t-25.5 62t-62.5 27q-31 -33 -55 -33q-36 0 -36 34q0 15 15.5 28t44.5 19q58 62 83 91q-45 3 -59 3l-71 -3q-39 0 -39 29q0 14 10.5 23t28.5 9z" />
    <glyph glyph-name="questiondown" unicode="&#xbf;" horiz-adv-x="443" 
d="M295 271q0 -75 -62 -143q-17 -19 -52 -54q-62 -65 -62 -119t34 -87.5t71 -33.5q66 0 95.5 38t45.5 38t25 -9t9 -23q0 -35 -52 -71q-50 -37 -114 -37q-83 0 -134.5 51.5t-51.5 129.5t62 143q17 19 52 54q62 62 62 120.5t35 58.5q37 0 37 -56zM262 545q20 0 31.5 -15.5
t11.5 -39t-15 -42t-35 -18.5t-31 14.5t-11 38.5t14.5 43t34.5 19z" />
    <glyph glyph-name="Agrave" unicode="&#xc0;" horiz-adv-x="642" 
d="M510 318l44 1q22 0 36 -11t14 -28q0 -38 -70 -38l23 -72q10 -29 28.5 -80t18.5 -65t-9.5 -24.5t-24.5 -10.5q-29 0 -44 35q-15 41 -34 104.5t-36 116.5q-120 3 -167 3t-112 -3q-61 -208 -66 -219q-13 -37 -39 -37q-15 0 -24 9.5t-9 24.5q0 22 27.5 103t38.5 117h-18
q-48 0 -48 37t48 37q29 0 41 -1l131 383q21 60 58 60q25 0 38.5 -14.5t23.5 -39.5t51 -150.5t80 -237.5zM226 398l-27 -83q61 -3 120 -3t115 3q-103 331 -115.5 331t-92.5 -248zM374 824q0 -21 -27 -21t-73 43q-45 44 -45 86q-1 3 -1 6q0 19 22 28q8 4 20 4q23 0 46 -54
q15 -32 36.5 -56t21.5 -36z" />
    <glyph glyph-name="Aacute" unicode="&#xc1;" horiz-adv-x="817" 
d="M577 338q-95 308 -107.5 308t-84.5 -228l-24 -76q44 7 97.5 7t118.5 -11zM266 259q-70 -23 -119.5 -72t-49.5 -92q0 -21 10.5 -32.5t27.5 -11.5q55 0 131 208zM792 52q0 -30 -16 -48.5t-40 -18.5q-44 0 -67 65q-45 134 -72 222q-76 13 -138.5 13t-114.5 -10
q-65 -163 -96 -212q-50 -78 -116 -78q-46 0 -73 31t-27 77q0 69 70 139t182 96q44 122 82.5 241t43.5 131q21 60 58 60q41 0 61 -52q5 -14 28 -83l99 -300q41 -12 67 -31t26 -33q0 -23 -25 -23q-9 0 -48 14q43 -139 56 -159t21 -24t18 -6q21 -4 21 -11zM567 932
q0 -43 -46 -86.5t-72.5 -43.5t-26.5 22q0 13 11 24.5t28 32.5q8 12 19 37.5t22.5 38.5t28.5 13t26.5 -11t9.5 -27z" />
    <glyph glyph-name="Acircumflex" unicode="&#xc2;" horiz-adv-x="817" 
d="M577 338q-95 308 -107.5 308t-84.5 -228l-24 -76q44 7 97.5 7t118.5 -11zM266 259q-70 -23 -119.5 -72t-49.5 -92q0 -21 10.5 -32.5t27.5 -11.5q55 0 131 208zM792 52q0 -30 -16 -48.5t-40 -18.5q-44 0 -67 65q-45 134 -72 222q-76 13 -138.5 13t-114.5 -10
q-65 -163 -96 -212q-50 -78 -116 -78q-46 0 -73 31t-27 77q0 69 70 139t182 96q44 122 82.5 241t43.5 131q21 60 58 60q41 0 61 -52q5 -14 28 -83l99 -300q41 -12 67 -31t26 -33q0 -23 -25 -23q-9 0 -48 14q43 -139 56 -159t21 -24t18 -6q21 -4 21 -11zM524 863
q-41 48 -55.5 48t-55.5 -48q-3 -2 -20.5 -26t-34 -24t-26.5 8q-10 11 -10 23t9 21t22 20q37 31 56 59q18 23 29 32q12 9 30 9t29.5 -8.5t31 -33t29.5 -34.5t24 -21q24 -20 28 -30q4 -5 4 -12t-3 -16q-7 -17 -28 -17h-7t-16 9t-22.5 24.5t-13.5 16.5z" />
    <glyph glyph-name="Atilde" unicode="&#xc3;" horiz-adv-x="817" 
d="M577 338q-95 308 -107.5 308t-84.5 -228l-24 -76q44 7 97.5 7t118.5 -11zM266 259q-70 -23 -119.5 -72t-49.5 -92q0 -21 10.5 -32.5t27.5 -11.5q55 0 131 208zM792 52q0 -30 -16 -48.5t-40 -18.5q-44 0 -67 65q-45 134 -72 222q-76 13 -138.5 13t-114.5 -10
q-65 -163 -96 -212q-50 -78 -116 -78q-46 0 -73 31t-27 77q0 69 70 139t182 96q44 122 82.5 241t43.5 131q21 60 58 60q41 0 61 -52q5 -14 28 -83l99 -300q41 -12 67 -31t26 -33q0 -23 -25 -23q-9 0 -48 14q43 -139 56 -159t21 -24t18 -6q21 -4 21 -11zM655 902
q0 -34 -25.5 -59.5t-60 -25.5t-82 27.5t-64.5 27.5t-30 -9t-16.5 -13.5t-17.5 -23.5q-13 -15 -23 -15t-17 3q-21 10 -21 39t32 55.5t74 26.5t93 -28t73 -28t38.5 25.5t25.5 25.5t15 -8.5t6 -19.5z" />
    <glyph glyph-name="Adieresis" unicode="&#xc4;" horiz-adv-x="817" 
d="M577 338q-95 308 -107.5 308t-84.5 -228l-24 -76q44 7 97.5 7t118.5 -11zM266 259q-70 -23 -119.5 -72t-49.5 -92q0 -21 10.5 -32.5t27.5 -11.5q55 0 131 208zM792 52q0 -30 -16 -48.5t-40 -18.5q-44 0 -67 65q-45 134 -72 222q-76 13 -138.5 13t-114.5 -10
q-65 -163 -96 -212q-50 -78 -116 -78q-46 0 -73 31t-27 77q0 69 70 139t182 96q44 122 82.5 241t43.5 131q21 60 58 60q41 0 61 -52q5 -14 28 -83l99 -300q41 -12 67 -31t26 -33q0 -23 -25 -23q-9 0 -48 14q43 -139 56 -159t21 -24t18 -6q21 -4 21 -11zM393 954q41 0 41 -48
q0 -22 -14.5 -41.5t-34.5 -19.5q-42 0 -42 51q0 24 14.5 41t35.5 17zM553 954q41 0 41 -48q0 -22 -14.5 -41.5t-34.5 -19.5q-42 0 -42 51q0 24 14.5 41t35.5 17z" />
    <glyph glyph-name="Aring" unicode="&#xc5;" horiz-adv-x="817" 
d="M577 338q-95 308 -107.5 308t-84.5 -228l-24 -76q44 7 97.5 7t118.5 -11zM266 259q-70 -23 -119.5 -72t-49.5 -92q0 -21 10.5 -32.5t27.5 -11.5q55 0 131 208zM792 52q0 -30 -16 -48.5t-40 -18.5q-44 0 -67 65q-45 134 -72 222q-76 13 -138.5 13t-114.5 -10
q-65 -163 -96 -212q-50 -78 -116 -78q-46 0 -73 31t-27 77q0 69 70 139t182 96q44 122 82.5 241t43.5 131q21 60 58 60q41 0 61 -52q5 -14 28 -83l99 -300q41 -12 67 -31t26 -33q0 -23 -25 -23q-9 0 -48 14q43 -139 56 -159t21 -24t18 -6q21 -4 21 -11zM467 986
q39 0 65 -27.5t26 -67.5t-25 -67t-65.5 -27t-66.5 26q-25 27 -25 67.5t26 68t65 27.5zM467 844q18 0 31 14.5t13 33t-13.5 33t-30.5 14.5t-30.5 -14.5t-13.5 -33t13 -33t31 -14.5z" />
    <glyph glyph-name="AE" unicode="&#xc6;" horiz-adv-x="995" 
d="M782 0l-149 -5q-48 0 -55 43q-13 74 -34 212q-54 9 -106.5 9t-100.5 -10q-64 -162 -96 -212q-50 -78 -116 -78q-48 0 -74 32t-26 76q0 69 69.5 139.5t182.5 95.5q11 29 135 393q21 60 59 60l212 -5l140 5q50 0 50 -38t-50 -38l-140 5q-106 0 -140 -4q20 -126 40 -240
q44 -2 73 -2l170 5q23 0 36.5 -10.5t13.5 -28.5q0 -37 -50 -37l-170 5q-24 0 -60 -2q51 -275 58 -300q64 -4 128 -4l152 5q50 0 50 -38t-50 -38zM451 322q43 0 86 -9q-38 240 -64 333q-12 0 -93 -248q-26 -80 -26 -82zM259 233q-70 -23 -119.5 -72t-49.5 -92
q0 -21 10.5 -32.5t27.5 -11.5q55 0 131 208z" />
    <glyph glyph-name="Ccedilla" unicode="&#xc7;" horiz-adv-x="696" 
d="M387 -15q5 -28 55 -55t50 -66.5t-35 -66.5t-82.5 -27t-79 22t-31.5 48q0 7 5 13t13.5 6t35 -13t48 -13t38 10t16.5 21t-15.5 22.5t-33.5 22.5q-48 24 -48 75v8q-101 21 -171 106q-95 115 -95 278.5t93 276t233 112.5q111 0 182 -62t71 -145q0 -65 -41 -107.5t-97 -42.5
t-94 36q-38 38 -38 81.5t19 72.5t46 29q15 0 25 -8.5t10 -21t-14 -32t-14 -41t17 -36t44.5 -14.5t46 21.5t18.5 57.5q0 53 -48 97q-46 45 -133 45q-107 0 -176 -94.5t-69 -222.5t72 -225.5t182 -97.5q49 0 91.5 13t64.5 31q53 44 64.5 44t19.5 -7.5t8 -18.5
q0 -39 -74.5 -85.5t-178.5 -46.5z" />
    <glyph glyph-name="Egrave" unicode="&#xc8;" horiz-adv-x="631" 
d="M233 473q73 35 136 35t89 -25q30 -22 30 -55q0 -26 -17 -46q-37 -40 -115 -40q-32 0 -71 14.5t-67 35.5q-85 -58 -85 -157q0 -67 59 -123.5t160.5 -56.5t156.5 43t70 43q28 0 28 -26q0 -22 -32 -52t-92.5 -54t-124.5 -24q-141 0 -224 74q-81 75 -81 167q0 134 117 211
q-55 56 -55 141t67 136q68 51 153 51t149 -31.5t64 -69.5q0 -24 -20 -32q-6 -1 -17.5 -1t-34.5 15q-65 49 -130.5 49t-108.5 -31q-48 -30 -48 -92.5t44 -98.5zM284 433l-11 -5q35 -26 88 -26t53 25q0 21 -49 21t-81 -15zM378 825q0 -21 -27 -21t-73 43q-45 44 -45 86
q-1 3 -1 6q0 19 22 28q8 4 20 4q23 0 46 -54q14 -31 36 -55.5t22 -36.5z" />
    <glyph glyph-name="Eacute" unicode="&#xc9;" horiz-adv-x="631" 
d="M233 473q73 35 136 35t89 -25q30 -22 30 -55q0 -26 -17 -46q-37 -40 -115 -40q-32 0 -71 14.5t-67 35.5q-85 -58 -85 -157q0 -67 59 -123.5t160.5 -56.5t156.5 43t70 43q28 0 28 -26q0 -22 -32 -52t-92.5 -54t-124.5 -24q-141 0 -224 74q-81 75 -81 167q0 134 117 211
q-55 56 -55 141t67 136q68 51 153 51t149 -31.5t64 -69.5q0 -24 -20 -32q-6 -1 -17.5 -1t-34.5 15q-65 49 -130.5 49t-108.5 -31q-48 -30 -48 -92.5t44 -98.5zM284 433l-11 -5q35 -26 88 -26t53 25q0 21 -49 21t-81 -15zM447 932q0 -43 -46 -86.5t-72.5 -43.5t-26.5 22
q0 13 11 24.5t28 32.5q8 12 19 37.5t22.5 38.5t28.5 13t26.5 -11t9.5 -27z" />
    <glyph glyph-name="Ecircumflex" unicode="&#xca;" horiz-adv-x="631" 
d="M233 473q73 35 136 35t89 -25q30 -22 30 -55q0 -26 -17 -46q-37 -40 -115 -40q-32 0 -71 14.5t-67 35.5q-85 -58 -85 -157q0 -67 59 -123.5t160.5 -56.5t156.5 43t70 43q28 0 28 -26q0 -22 -32 -52t-92.5 -54t-124.5 -24q-141 0 -224 74q-81 75 -81 167q0 134 117 211
q-55 56 -55 141t67 136q68 51 153 51t149 -31.5t64 -69.5q0 -24 -20 -32q-6 -1 -17.5 -1t-34.5 15q-65 49 -130.5 49t-108.5 -31q-48 -30 -48 -92.5t44 -98.5zM284 433l-11 -5q35 -26 88 -26t53 25q0 21 -49 21t-81 -15zM404 863q-41 48 -56 48t-55 -48q-3 -2 -20.5 -26
t-34 -24t-26.5 8q-9 9 -9 20q0 16 8.5 24.5t21.5 19.5q37 31 56 59q18 23 29 32q12 9 30 9t29.5 -8.5t31 -33t29.5 -34.5t24 -22q24 -19 28 -29q4 -6 4 -13t-3 -15q-7 -17 -28 -17h-7t-16 9t-22.5 24.5t-13.5 16.5z" />
    <glyph glyph-name="Edieresis" unicode="&#xcb;" horiz-adv-x="631" 
d="M233 473q73 35 136 35t89 -25q30 -22 30 -55q0 -26 -17 -46q-37 -40 -115 -40q-32 0 -71 14.5t-67 35.5q-85 -58 -85 -157q0 -67 59 -123.5t160.5 -56.5t156.5 43t70 43q28 0 28 -26q0 -22 -32 -52t-92.5 -54t-124.5 -24q-141 0 -224 74q-81 75 -81 167q0 134 117 211
q-55 56 -55 141t67 136q68 51 153 51t149 -31.5t64 -69.5q0 -24 -20 -32q-6 -1 -17.5 -1t-34.5 15q-65 49 -130.5 49t-108.5 -31q-48 -30 -48 -92.5t44 -98.5zM284 433l-11 -5q35 -26 88 -26t53 25q0 21 -49 21t-81 -15zM278 953q41 0 41 -48q0 -22 -14.5 -41.5t-34.5 -19.5
q-42 0 -42 51q0 24 14.5 41t35.5 17zM438 953q41 0 41 -48q0 -22 -14.5 -41.5t-34.5 -19.5q-42 0 -42 51q0 24 14.5 41t35.5 17z" />
    <glyph glyph-name="Igrave" unicode="&#xcc;" horiz-adv-x="598" 
d="M487 444l-1 -169q0 -148 -70.5 -219t-171 -71t-154.5 58q-53 59 -53 131.5t46 118t106 45.5t95 -38t35 -93t-37 -80q-12 -7 -20 -7q-15 0 -13 15q0 1 3 11q6 28 6 54t-21 48.5t-53 22.5t-53.5 -25.5t-21.5 -69t32 -83.5q33 -38 96 -38q83 0 130 55.5t47 155.5l1 178
q0 139 -2 227q-59 -9 -99 -9q-216 0 -216 63q0 35 38 35q5 0 65.5 -12.5t112.5 -12.5t123.5 12.5t78.5 12.5q42 0 42 -33.5t-69 -45.5q-2 -94 -2 -237zM371 824q0 -21 -27 -21t-73 43q-45 44 -45 86q-1 3 -1 6q0 19 22 28q8 4 20 4q23 0 46 -54q14 -31 36 -55.5t22 -36.5z
" />
    <glyph glyph-name="Iacute" unicode="&#xcd;" horiz-adv-x="598" 
d="M487 444l-1 -169q0 -148 -70.5 -219t-171 -71t-154.5 58q-53 59 -53 131.5t46 118t106 45.5t95 -38t35 -93t-37 -80q-12 -7 -20 -7q-15 0 -13 15q0 1 3 11q6 28 6 54t-21 48.5t-53 22.5t-53.5 -25.5t-21.5 -69t32 -83.5q33 -38 96 -38q83 0 130 55.5t47 155.5l1 178
q0 139 -2 227q-59 -9 -99 -9q-216 0 -216 63q0 35 38 35q5 0 65.5 -12.5t112.5 -12.5t123.5 12.5t78.5 12.5q42 0 42 -33.5t-69 -45.5q-2 -94 -2 -237zM427 932q0 -43 -46 -86.5t-72 -43.5t-27 22q0 13 11 24.5t28 32.5q8 12 19 37.5t22.5 38.5t28.5 13t26.5 -11t9.5 -27z
" />
    <glyph glyph-name="Icircumflex" unicode="&#xce;" horiz-adv-x="598" 
d="M487 444l-1 -169q0 -148 -70.5 -219t-171 -71t-154.5 58q-53 59 -53 131.5t46 118t106 45.5t95 -38t35 -93t-37 -80q-12 -7 -20 -7q-15 0 -13 15q0 1 3 11q6 28 6 54t-21 48.5t-53 22.5t-53.5 -25.5t-21.5 -69t32 -83.5q33 -38 96 -38q83 0 130 55.5t47 155.5l1 178
q0 139 -2 227q-59 -9 -99 -9q-216 0 -216 63q0 35 38 35q5 0 65.5 -12.5t112.5 -12.5t123.5 12.5t78.5 12.5q42 0 42 -33.5t-69 -45.5q-2 -94 -2 -237zM374 863q-41 48 -56 48t-55 -48q-3 -2 -20.5 -26t-34 -24t-26.5 8q-9 9 -9 20q0 16 8.5 24.5t21.5 19.5q37 31 56 59
q18 23 29 32q12 9 30 9t29.5 -8.5t31 -33t29.5 -34.5t24 -22q24 -19 28 -29q4 -6 4 -13t-3 -15q-7 -17 -28 -17h-7t-16 9t-22.5 24.5t-13.5 16.5z" />
    <glyph glyph-name="Idieresis" unicode="&#xcf;" horiz-adv-x="598" 
d="M487 444l-1 -169q0 -148 -70.5 -219t-171 -71t-154.5 58q-53 59 -53 131.5t46 118t106 45.5t95 -38t35 -93t-37 -80q-12 -7 -20 -7q-15 0 -13 15q0 1 3 11q6 28 6 54t-21 48.5t-53 22.5t-53.5 -25.5t-21.5 -69t32 -83.5q33 -38 96 -38q83 0 130 55.5t47 155.5l1 178
q0 139 -2 227q-59 -9 -99 -9q-216 0 -216 63q0 35 38 35q5 0 65.5 -12.5t112.5 -12.5t123.5 12.5t78.5 12.5q42 0 42 -33.5t-69 -45.5q-2 -94 -2 -237zM248 953q41 0 41 -48q0 -22 -14.5 -41.5t-34.5 -19.5q-42 0 -42 51q0 24 14.5 41t35.5 17zM408 953q41 0 41 -48
q0 -22 -14.5 -41.5t-34.5 -19.5q-42 0 -42 51q0 24 14.5 41t35.5 17z" />
    <glyph glyph-name="Eth" unicode="&#xd0;" horiz-adv-x="728" 
d="M134 340l-92 -2q-13 0 -24 9.5t-11 24t11 23.5q12 9 32.5 9t83.5 -3l-5 253q-48 0 -48 38q0 34 67 51t148.5 17t156.5 -33.5t123 -90.5q96 -115 96 -268.5t-93 -263.5q-46 -56 -119.5 -87.5t-165.5 -31.5t-155 21q-62 23 -62 56q0 19 17 26q6 2 15 2t22 -7zM373 371
q0 -33 -52 -33q-28 0 -115 3q0 -169 6 -279q28 -6 84 -6q142 0 220 91t78 221t-76 221q-38 46 -98.5 72.5t-133.5 26.5q-38 0 -75 -9q-5 -78 -5 -278l126 3q18 0 29.5 -9t11.5 -24z" />
    <glyph glyph-name="Ntilde" unicode="&#xd1;" horiz-adv-x="878" 
d="M159 -8q-59 0 -93.5 42.5t-34.5 97.5t37.5 98.5t89.5 43.5q22 0 36.5 -10.5t14.5 -30.5q0 -37 -48 -37q-22 0 -38 -18.5t-16 -46t15 -45t42 -17.5q93 0 93 288q0 79 -16 207t-16 149.5t14 34.5t33 13q28 0 45 -35q54 -105 154 -281t173 -292q-4 0 -9.5 139.5t-5.5 183.5
q0 111 22 189q13 45 42.5 70.5t68 25.5t65.5 -20.5t27 -47.5t-23 -27q-7 0 -29 9t-39 9q-63 0 -63 -289q0 -68 11 -208t11 -156t-13.5 -29t-31.5 -13q-27 0 -47 35q-50 89 -114 199l-127 227q-55 102 -76 134q14 -132 14 -251q0 -341 -168 -341zM685 902q0 -34 -25.5 -59.5
t-60 -25.5t-82 27.5t-64.5 27.5t-30 -9t-16.5 -13.5t-17.5 -23.5q-13 -15 -23 -15t-17 3q-21 10 -21 39t32 55.5t74 26.5t93 -28t73 -28t38.5 25.5t25.5 25.5t15 -8.5t6 -19.5z" />
    <glyph glyph-name="Ograve" unicode="&#xd2;" horiz-adv-x="811" 
d="M462 695q-68 0 -120 -49.5t-77 -121.5t-25 -123t3 -82t5.5 -48.5t2.5 -20.5q0 -25 -23 -25q-20 0 -37 51.5t-17 107.5q0 153 79 267t207 114t210.5 -110t82.5 -274.5t-94.5 -280t-246 -115.5t-254.5 109t-103 280q0 70 14.5 113.5t43.5 43.5q14 0 23 -9.5t9 -19.5
t-6.5 -52.5t-6.5 -75.5q0 -147 83 -233t195 -86q81 0 143.5 45t92.5 115.5t30 148.5v10q0 132 -58.5 226.5t-155.5 94.5zM491 824q0 -21 -27 -21t-73 43q-45 44 -45 86q-1 3 -1 6q0 19 22 28q8 4 20 4q23 0 46 -54q14 -31 36 -55.5t22 -36.5z" />
    <glyph glyph-name="Oacute" unicode="&#xd3;" horiz-adv-x="811" 
d="M462 695q-68 0 -120 -49.5t-77 -121.5t-25 -123t3 -82t5.5 -48.5t2.5 -20.5q0 -25 -23 -25q-20 0 -37 51.5t-17 107.5q0 153 79 267t207 114t210.5 -110t82.5 -274.5t-94.5 -280t-246 -115.5t-254.5 109t-103 280q0 70 14.5 113.5t43.5 43.5q14 0 23 -9.5t9 -19.5
t-6.5 -52.5t-6.5 -75.5q0 -147 83 -233t195 -86q81 0 143.5 45t92.5 115.5t30 148.5v10q0 132 -58.5 226.5t-155.5 94.5zM547 932q0 -43 -46 -86.5t-72.5 -43.5t-26.5 22q0 13 11 24.5t28 32.5q8 12 19 37.5t22.5 38.5t28.5 13t26.5 -11t9.5 -27z" />
    <glyph glyph-name="Ocircumflex" unicode="&#xd4;" horiz-adv-x="811" 
d="M462 695q-68 0 -120 -49.5t-77 -121.5t-25 -123t3 -82t5.5 -48.5t2.5 -20.5q0 -25 -23 -25q-20 0 -37 51.5t-17 107.5q0 153 79 267t207 114t210.5 -110t82.5 -274.5t-94.5 -280t-246 -115.5t-254.5 109t-103 280q0 70 14.5 113.5t43.5 43.5q14 0 23 -9.5t9 -19.5
t-6.5 -52.5t-6.5 -75.5q0 -147 83 -233t195 -86q81 0 143.5 45t92.5 115.5t30 148.5v10q0 132 -58.5 226.5t-155.5 94.5zM514 863q-40 48 -55.5 48t-55.5 -48q-3 -2 -20.5 -26t-34 -24t-26.5 8q-10 11 -10 23t9 21t22 20q37 31 56 59q18 23 29 32q12 9 30 9t29.5 -8.5
t31 -33t29.5 -34.5t24 -21q24 -20 28 -30q4 -5 4 -12t-3 -16q-7 -17 -28 -17h-7t-16 9t-22.5 24.5t-13.5 16.5z" />
    <glyph glyph-name="Otilde" unicode="&#xd5;" horiz-adv-x="811" 
d="M462 695q-68 0 -120 -49.5t-77 -121.5t-25 -123t3 -82t5.5 -48.5t2.5 -20.5q0 -25 -23 -25q-20 0 -37 51.5t-17 107.5q0 153 79 267t207 114t210.5 -110t82.5 -274.5t-94.5 -280t-246 -115.5t-254.5 109t-103 280q0 70 14.5 113.5t43.5 43.5q14 0 23 -9.5t9 -19.5
t-6.5 -52.5t-6.5 -75.5q0 -147 83 -233t195 -86q81 0 143.5 45t92.5 115.5t30 148.5v10q0 132 -58.5 226.5t-155.5 94.5zM635 902q0 -34 -25.5 -59.5t-60 -25.5t-82 27.5t-64.5 27.5t-30 -9t-16.5 -13.5t-17.5 -23.5q-13 -15 -23 -15t-17 3q-21 10 -21 39t32 55.5t74 26.5
t93 -28t73 -28t38.5 25.5t25.5 25.5t15 -8.5t6 -19.5z" />
    <glyph glyph-name="Odieresis" unicode="&#xd6;" horiz-adv-x="811" 
d="M462 695q-68 0 -120 -49.5t-77 -121.5t-25 -123t3 -82t5.5 -48.5t2.5 -20.5q0 -25 -23 -25q-20 0 -37 51.5t-17 107.5q0 153 79 267t207 114t210.5 -110t82.5 -274.5t-94.5 -280t-246 -115.5t-254.5 109t-103 280q0 70 14.5 113.5t43.5 43.5q14 0 23 -9.5t9 -19.5
t-6.5 -52.5t-6.5 -75.5q0 -147 83 -233t195 -86q81 0 143.5 45t92.5 115.5t30 148.5v10q0 132 -58.5 226.5t-155.5 94.5zM368 953q41 0 41 -48q0 -22 -14.5 -41.5t-34.5 -19.5q-42 0 -42 51q0 24 14.5 41t35.5 17zM528 953q41 0 41 -48q0 -22 -14.5 -41.5t-34.5 -19.5
q-42 0 -42 51q0 24 14.5 41t35.5 17z" />
    <glyph glyph-name="multiply" unicode="&#xd7;" horiz-adv-x="504" 
d="M421 432q10 -12 10 -27.5t-41 -50.5q-82 -80 -97 -97l131 -131q10 -9 10 -22.5t-9.5 -23.5t-21 -10t-21 6t-15 12t-30 33t-85.5 92l-122 -132q-12 -12 -27 -12t-24 10.5t-9 19t1 12.5t2.5 7t6 8t7.5 8t11 10t21 20l92 92q-16 18 -73 73l-56 55q-10 13 -10 25t10 22
t24.5 10t24 -9.5t53.5 -58.5l68 -72q112 122 115 125q17 17 30 17t24 -11z" />
    <glyph glyph-name="Oslash" unicode="&#xd8;" horiz-adv-x="811" 
d="M339 63q28 -8 66 -8q82 0 144 45.5t92 117t30 156.5t-24 157.5t-70 114.5q-163 -382 -238 -583zM315 -4q-2 -4 -6 -15t-7 -16.5t-8 -13.5q-9 -15 -26.5 -15t-29 9.5t-11.5 22.5t18 56q-91 45 -143 136t-52 214q0 66 14 111.5t44 45.5q14 0 23 -9.5t9 -24t-6.5 -47.5
t-6.5 -76q0 -101 41 -174.5t109 -111.5q29 65 119 294l118 303q-24 10 -57 10q-68 0 -120.5 -50.5t-77 -122t-24.5 -135t5.5 -95.5t5.5 -42q0 -25 -23 -25q-20 0 -37 50.5t-17 108.5q0 152 79.5 266.5t203.5 114.5q45 0 87 -15q20 54 48 54q17 0 27 -10t10 -22.5t-2.5 -20
t-8 -19.5t-7.5 -17q68 -49 105 -138t37 -203q0 -159 -94.5 -274t-248.5 -115q-49 0 -90 11z" />
    <glyph glyph-name="Ugrave" unicode="&#xd9;" horiz-adv-x="793" 
d="M152 690q-23 0 -38.5 -18t-15.5 -42t9 -40.5t18 -25.5t9 -14q0 -24 -28 -24t-53 31t-25 73t26 86q32 49 98 49t101 -45.5t35 -101t-25.5 -191t-25.5 -171.5q0 -93 30 -147t89.5 -54t112 71t79.5 157.5t32 168.5q-3 70 -3 242q0 66 43 66q52 0 52 -83q0 -20 -26 -256
q2 -108 22 -219t39 -131q6 -7 27 -8.5t21 -11.5q0 -28 -19 -47q-20 -20 -39.5 -20t-26.5 6q-15 8 -32 36q-15 28 -24 77.5l-10 55t-4.5 33t-5.5 35.5q-24 -93 -83.5 -167.5t-159 -74.5t-149.5 77q-44 71 -44 156.5t27.5 211.5t27.5 179q0 81 -61 81zM461 824q0 -21 -27 -21
t-73 43q-45 44 -45 86q-1 3 -1 6q0 19 22 28q8 4 20 4q23 0 46 -54q14 -31 36 -55.5t22 -36.5z" />
    <glyph glyph-name="Uacute" unicode="&#xda;" horiz-adv-x="793" 
d="M152 690q-23 0 -38.5 -18t-15.5 -42t9 -40.5t18 -25.5t9 -14q0 -24 -28 -24t-53 31t-25 73t26 86q32 49 98 49t101 -45.5t35 -101t-25.5 -191t-25.5 -171.5q0 -93 30 -147t89.5 -54t112 71t79.5 157.5t32 168.5q-3 70 -3 242q0 66 43 66q52 0 52 -83q0 -20 -26 -256
q2 -108 22 -219t39 -131q6 -7 27 -8.5t21 -11.5q0 -28 -19 -47q-20 -20 -39.5 -20t-26.5 6q-15 8 -32 36q-15 28 -24 77.5l-10 55t-4.5 33t-5.5 35.5q-24 -93 -83.5 -167.5t-159 -74.5t-149.5 77q-44 71 -44 156.5t27.5 211.5t27.5 179q0 81 -61 81zM517 932
q0 -43 -46 -86.5t-72.5 -43.5t-26.5 22q0 13 11 24.5t28 32.5q8 12 19 37.5t22.5 38.5t28.5 13t26.5 -11t9.5 -27z" />
    <glyph glyph-name="Ucircumflex" unicode="&#xdb;" horiz-adv-x="793" 
d="M152 690q-23 0 -38.5 -18t-15.5 -42t9 -40.5t18 -25.5t9 -14q0 -24 -28 -24t-53 31t-25 73t26 86q32 49 98 49t101 -45.5t35 -101t-25.5 -191t-25.5 -171.5q0 -93 30 -147t89.5 -54t112 71t79.5 157.5t32 168.5q-3 70 -3 242q0 66 43 66q52 0 52 -83q0 -20 -26 -256
q2 -108 22 -219t39 -131q6 -7 27 -8.5t21 -11.5q0 -28 -19 -47q-20 -20 -39.5 -20t-26.5 6q-15 8 -32 36q-15 28 -24 77.5l-10 55t-4.5 33t-5.5 35.5q-24 -93 -83.5 -167.5t-159 -74.5t-149.5 77q-44 71 -44 156.5t27.5 211.5t27.5 179q0 81 -61 81zM484 863
q-41 48 -55.5 48t-55.5 -48q-3 -2 -20.5 -26t-34 -24t-26.5 8q-10 11 -10 23t9 21t22 20q37 31 56 59q18 23 29 32q12 9 30 9t29.5 -8.5t31 -33t29.5 -34.5t24 -21q24 -20 28 -30q4 -5 4 -12t-3 -16q-7 -17 -28 -17h-7t-16 9t-22.5 24.5t-13.5 16.5z" />
    <glyph glyph-name="Udieresis" unicode="&#xdc;" horiz-adv-x="793" 
d="M152 690q-23 0 -38.5 -18t-15.5 -42t9 -40.5t18 -25.5t9 -14q0 -24 -28 -24t-53 31t-25 73t26 86q32 49 98 49t101 -45.5t35 -101t-25.5 -191t-25.5 -171.5q0 -93 30 -147t89.5 -54t112 71t79.5 157.5t32 168.5q-3 70 -3 242q0 66 43 66q52 0 52 -83q0 -20 -26 -256
q2 -108 22 -219t39 -131q6 -7 27 -8.5t21 -11.5q0 -28 -19 -47q-20 -20 -39.5 -20t-26.5 6q-15 8 -32 36q-15 28 -24 77.5l-10 55t-4.5 33t-5.5 35.5q-24 -93 -83.5 -167.5t-159 -74.5t-149.5 77q-44 71 -44 156.5t27.5 211.5t27.5 179q0 81 -61 81zM345 954q41 0 41 -48
q0 -22 -14.5 -41.5t-34.5 -19.5q-42 0 -42 51q0 24 14.5 41t35.5 17zM505 954q41 0 41 -48q0 -22 -14.5 -41.5t-34.5 -19.5q-42 0 -42 51q0 24 14.5 41t35.5 17z" />
    <glyph glyph-name="Yacute" unicode="&#xdd;" horiz-adv-x="583" 
d="M21 713q0 47 36 47q10 0 20 -9.5t14.5 -23t12.5 -45t20 -71.5q34 -114 94 -189q33 -41 63 -41q15 0 22 4q44 279 115 349q30 30 65.5 30t54 -22.5t18.5 -60.5q0 -83 -57.5 -177.5t-125.5 -161.5q-8 -50 -8 -135t5 -160.5t5 -90.5t-11.5 -28t-29.5 -13q-38 0 -44 93
q-1 24 -1 85t12 217q-12 -2 -26 -2q-51 0 -92.5 38.5t-80 120.5t-60 149.5t-21.5 96.5zM477 692q-21 0 -59 -104t-42 -154q38 44 75 119t37 118q0 21 -11 21zM388 932q0 -43 -46 -86.5t-72.5 -43.5t-26.5 22q0 13 11 24.5t28 32.5q8 12 19 37.5t22.5 38.5t28.5 13t26.5 -11
t9.5 -27z" />
    <glyph glyph-name="Thorn" unicode="&#xde;" horiz-adv-x="567" 
d="M98 40l5 335l-5 335q0 50 38 50t38 -50q0 -18 -3 -105q49 17 118 17q112 0 181 -60t69 -150.5t-69 -150.5t-182 -60q-69 0 -118 17l4 -178q0 -50 -38 -50t-38 50zM172 543q-2 -56 -2 -145.5t1 -117.5q51 -16 122.5 -16t121 40.5t49.5 107t-49.5 107t-120.5 40.5t-122 -16
z" />
    <glyph glyph-name="germandbls" unicode="&#xdf;" horiz-adv-x="544" 
d="M58 502l50 -2v85q0 89 43.5 132t117 43t115.5 -40.5t42 -104.5q0 -38 -16 -74t-39 -59q-55 -52 -55 -86q0 -54 70 -99q96 -56 118 -109q11 -26 11 -57q0 -61 -41.5 -101t-99.5 -40t-98.5 22.5t-40.5 50.5q0 34 33 34q8 0 39 -21.5t59 -21.5t52 21q24 19 24 50
q0 55 -52 89q-11 8 -35.5 23.5t-39.5 25.5q-74 49 -74 122q0 63 55 116q55 58 55 100.5t-22.5 67t-62.5 24.5q-85 0 -85 -117v-535q0 -23 -10.5 -37t-28.5 -14t-28.5 13.5t-10.5 37.5t3 118t3 216v67l-51 -2q-38 0 -38 30q0 15 11 23.5t27 8.5z" />
    <glyph glyph-name="agrave" unicode="&#xe0;" horiz-adv-x="571" 
d="M467 242q0 -73 10.5 -121.5t26.5 -54.5q6 -3 14.5 -4t12 -3t3.5 -8q0 -28 -15 -44.5t-43.5 -16.5t-44.5 36.5t-16 95.5q-27 -58 -75 -95t-108.5 -37t-103.5 40q-80 74 -80 209q0 109 63 190t162 81q75 0 130 -51q0 51 38 51q46 0 46 -68.5t-20 -199.5zM409 233l-5 154
q-59 58 -125 58t-113 -59t-47 -142.5t31 -136t86 -52.5t101.5 49t71.5 129zM338 614q0 -21 -27 -21t-73 43q-45 44 -45 86q-1 3 -1 6q0 19 22 28q8 4 20 4q23 0 46 -54q14 -31 36 -55.5t22 -36.5z" />
    <glyph glyph-name="aacute" unicode="&#xe1;" horiz-adv-x="571" 
d="M467 242q0 -73 10.5 -121.5t26.5 -54.5q6 -3 14.5 -4t12 -3t3.5 -8q0 -28 -15 -44.5t-43.5 -16.5t-44.5 36.5t-16 95.5q-27 -58 -75 -95t-108.5 -37t-103.5 40q-80 74 -80 209q0 109 63 190t162 81q75 0 130 -51q0 51 38 51q46 0 46 -68.5t-20 -199.5zM409 233l-5 154
q-59 58 -125 58t-113 -59t-47 -142.5t31 -136t86 -52.5t101.5 49t71.5 129zM388 722q0 -43 -46 -86.5t-72.5 -43.5t-26.5 22q0 13 11 24.5t28 32.5q8 12 19 37.5t22.5 38.5t28.5 13t26.5 -11t9.5 -27z" />
    <glyph glyph-name="acircumflex" unicode="&#xe2;" horiz-adv-x="571" 
d="M467 242q0 -73 10.5 -121.5t26.5 -54.5q6 -3 14.5 -4t12 -3t3.5 -8q0 -28 -15 -44.5t-43.5 -16.5t-44.5 36.5t-16 95.5q-27 -58 -75 -95t-108.5 -37t-103.5 40q-80 74 -80 209q0 109 63 190t162 81q75 0 130 -51q0 51 38 51q46 0 46 -68.5t-20 -199.5zM409 233l-5 154
q-59 58 -125 58t-113 -59t-47 -142.5t31 -136t86 -52.5t101.5 49t71.5 129zM341 638q-40 48 -55.5 48t-55.5 -48q-3 -2 -20.5 -26t-34 -24t-26.5 8q-9 9 -9 20q0 16 8.5 24.5t21.5 19.5q37 31 56 59q18 23 29 32q12 9 30 9t29.5 -8.5t31 -33t29.5 -34.5t24 -22
q24 -19 28 -29q4 -6 4 -13t-3 -15q-7 -17 -28 -17h-7t-16 9t-22.5 24.5t-13.5 16.5z" />
    <glyph glyph-name="atilde" unicode="&#xe3;" horiz-adv-x="571" 
d="M467 242q0 -73 10.5 -121.5t26.5 -54.5q6 -3 14.5 -4t12 -3t3.5 -8q0 -28 -15 -44.5t-43.5 -16.5t-44.5 36.5t-16 95.5q-27 -58 -75 -95t-108.5 -37t-103.5 40q-80 74 -80 209q0 109 63 190t162 81q75 0 130 -51q0 51 38 51q46 0 46 -68.5t-20 -199.5zM409 233l-5 154
q-59 58 -125 58t-113 -59t-47 -142.5t31 -136t86 -52.5t101.5 49t71.5 129zM484 682q0 -34 -25.5 -59.5t-60 -25.5t-82 27.5t-64.5 27.5t-30 -9t-16.5 -13.5t-17.5 -23.5q-13 -15 -23 -15t-17 3q-21 10 -21 39t31.5 55.5t74 26.5t93.5 -28t73 -28t38.5 25.5t25.5 25.5
t15 -8.5t6 -19.5z" />
    <glyph glyph-name="adieresis" unicode="&#xe4;" horiz-adv-x="571" 
d="M467 242q0 -73 10.5 -121.5t26.5 -54.5q6 -3 14.5 -4t12 -3t3.5 -8q0 -28 -15 -44.5t-43.5 -16.5t-44.5 36.5t-16 95.5q-27 -58 -75 -95t-108.5 -37t-103.5 40q-80 74 -80 209q0 109 63 190t162 81q75 0 130 -51q0 51 38 51q46 0 46 -68.5t-20 -199.5zM409 233l-5 154
q-59 58 -125 58t-113 -59t-47 -142.5t31 -136t86 -52.5t101.5 49t71.5 129zM210 725q41 0 41 -48q0 -22 -14.5 -41.5t-34.5 -19.5q-42 0 -42 51q0 24 14.5 41t35.5 17zM370 725q41 0 41 -48q0 -22 -14.5 -41.5t-34.5 -19.5q-42 0 -42 51q0 24 14.5 41t35.5 17z" />
    <glyph glyph-name="aring" unicode="&#xe5;" horiz-adv-x="571" 
d="M467 242q0 -73 10.5 -121.5t26.5 -54.5q6 -3 14.5 -4t12 -3t3.5 -8q0 -28 -15 -44.5t-43.5 -16.5t-44.5 36.5t-16 95.5q-27 -58 -75 -95t-108.5 -37t-103.5 40q-80 74 -80 209q0 109 63 190t162 81q75 0 130 -51q0 51 38 51q46 0 46 -68.5t-20 -199.5zM409 233l-5 154
q-59 58 -125 58t-113 -59t-47 -142.5t31 -136t86 -52.5t101.5 49t71.5 129zM281 765q39 0 65 -27.5t26 -67.5t-25 -67t-65.5 -27t-66.5 26q-25 27 -25 67.5t26 68t65 27.5zM281 623q18 0 31 14.5t13 33t-13.5 33t-30.5 14.5t-30.5 -14.5t-13.5 -33t13 -33t31 -14.5z" />
    <glyph glyph-name="ae" unicode="&#xe6;" horiz-adv-x="837" 
d="M368 227q-68 24 -129 24t-95 -29.5t-34 -72t33 -70.5t85 -28t96 46.5t44 129.5zM445 217q6 -69 52 -118t108.5 -49t102.5 30.5t52.5 30.5t20 -7.5t7.5 -18.5q0 -28 -57.5 -64t-124.5 -36q-134 0 -198 121q-61 -121 -191 -121q-75 0 -127 46q-51 47 -51 118t52 117
q56 50 129.5 50t149.5 -25q0 81 -35 119.5t-92.5 38.5t-89 -29.5t-48.5 -29.5q-34 0 -34 31t50.5 62.5t115.5 31.5t112 -29.5t72 -81.5q72 111 194 111q73 0 123 -45t50 -117.5t-62 -109.5t-142.5 -37t-138.5 11zM615 450q-66 0 -110.5 -50t-58.5 -118q51 -13 120 -13
t110 23t41 63t-27.5 67.5t-74.5 27.5z" />
    <glyph glyph-name="ccedilla" unicode="&#xe7;" horiz-adv-x="509" 
d="M293 -15q3 -28 54 -54.5t51 -66.5t-35 -67t-82.5 -27t-79 22t-31.5 48q0 7 5 13t13 6t35 -13t48.5 -13t38 10t16.5 21t-16 24q-2 2 -22.5 16t-29.5 22.5t-19 27t-10 40.5q-81 21 -133 92q-50 71 -50 173t70 179t186 77q62 0 111 -28.5t49 -56.5t-20 -36q-6 -2 -16.5 -2
t-26.5 14q-53 44 -106 44q-69 0 -121 -58q-51 -58 -51 -141.5t52.5 -142t128.5 -58.5q60 0 115 40q19 13 29 13q25 0 25 -26.5t-57 -58.5t-121 -33z" />
    <glyph glyph-name="egrave" unicode="&#xe8;" horiz-adv-x="539" 
d="M317 450q-66 0 -110.5 -49.5t-58.5 -115.5q54 -16 121.5 -16t108.5 23t41 63t-27.5 67.5t-74.5 27.5zM274 206q-52 0 -127 15q6 -71 52.5 -121t108.5 -50t102 30.5t52.5 30.5t20 -7.5t7.5 -18.5q0 -28 -57.5 -64t-124.5 -36q-104 0 -165.5 73.5t-65.5 175.5
q-53 17 -53 52q0 23 17 30q6 2 15.5 2t26.5 -9q23 91 83.5 148.5t142 57.5t131.5 -45t50 -117.5t-62 -109.5t-154 -37zM336 614q0 -21 -27 -21t-73 43q-45 44 -45 86q-1 3 -1 6q0 19 22 28q8 4 20 4q23 0 46 -54q14 -31 36 -55.5t22 -36.5z" />
    <glyph glyph-name="eacute" unicode="&#xe9;" horiz-adv-x="539" 
d="M317 450q-66 0 -110.5 -49.5t-58.5 -115.5q54 -16 121.5 -16t108.5 23t41 63t-27.5 67.5t-74.5 27.5zM274 206q-52 0 -127 15q6 -71 52.5 -121t108.5 -50t102 30.5t52.5 30.5t20 -7.5t7.5 -18.5q0 -28 -57.5 -64t-124.5 -36q-104 0 -165.5 73.5t-65.5 175.5
q-53 17 -53 52q0 23 17 30q6 2 15.5 2t26.5 -9q23 91 83.5 148.5t142 57.5t131.5 -45t50 -117.5t-62 -109.5t-154 -37zM399 722q0 -43 -46 -86.5t-72 -43.5t-27 22q0 13 11 24.5t28 32.5q8 12 19 37.5t22.5 38.5t28.5 13t26.5 -11t9.5 -27z" />
    <glyph glyph-name="ecircumflex" unicode="&#xea;" horiz-adv-x="539" 
d="M317 450q-66 0 -110.5 -49.5t-58.5 -115.5q54 -16 121.5 -16t108.5 23t41 63t-27.5 67.5t-74.5 27.5zM274 206q-52 0 -127 15q6 -71 52.5 -121t108.5 -50t102 30.5t52.5 30.5t20 -7.5t7.5 -18.5q0 -28 -57.5 -64t-124.5 -36q-104 0 -165.5 73.5t-65.5 175.5
q-53 17 -53 52q0 23 17 30q6 2 15.5 2t26.5 -9q23 91 83.5 148.5t142 57.5t131.5 -45t50 -117.5t-62 -109.5t-154 -37zM354 638q-40 48 -55 48t-56 -48q-5 -3 -15 -18q-23 -32 -39.5 -32t-26.5 8q-10 10 -10 22t9 21.5t22 20.5q37 31 56 59q18 23 29 32q12 9 30 9t29.5 -8.5
t31 -33t29.5 -34.5t24 -22q24 -19 28 -29q4 -6 4 -13t-3 -15q-7 -17 -28 -17h-7t-16 9t-22.5 24.5t-13.5 16.5z" />
    <glyph glyph-name="edieresis" unicode="&#xeb;" horiz-adv-x="539" 
d="M317 450q-66 0 -110.5 -49.5t-58.5 -115.5q54 -16 121.5 -16t108.5 23t41 63t-27.5 67.5t-74.5 27.5zM274 206q-52 0 -127 15q6 -71 52.5 -121t108.5 -50t102 30.5t52.5 30.5t20 -7.5t7.5 -18.5q0 -28 -57.5 -64t-124.5 -36q-104 0 -165.5 73.5t-65.5 175.5
q-53 17 -53 52q0 23 17 30q6 2 15.5 2t26.5 -9q23 91 83.5 148.5t142 57.5t131.5 -45t50 -117.5t-62 -109.5t-154 -37zM226 725q41 0 41 -48q0 -22 -14.5 -41.5t-34.5 -19.5q-42 0 -42 51q0 24 14.5 41t35.5 17zM386 725q41 0 41 -48q0 -22 -14.5 -41.5t-34.5 -19.5
q-42 0 -42 51q0 24 14.5 41t35.5 17z" />
    <glyph glyph-name="igrave" unicode="&#xec;" 
d="M150 460l-5 -210l5 -210q0 -50 -38 -50t-38 50l5 210q-2 70 -5 210q0 50 38 50t38 -50zM175 614q0 -21 -27 -21t-73 43q-45 44 -45 86q-1 3 -1 6q0 19 22 28q8 4 20 4q23 0 46 -54q14 -31 36 -55.5t22 -36.5z" />
    <glyph glyph-name="iacute" unicode="&#xed;" 
d="M150 460l-5 -210l5 -210q0 -50 -38 -50t-38 50l5 210q-2 70 -5 210q0 50 38 50t38 -50zM194 722q0 -43 -46 -86.5t-72.5 -43.5t-26.5 22q0 13 11 24.5t28 32.5q8 12 19 37.5t22.5 38.5t28.5 13t26.5 -11t9.5 -27z" />
    <glyph glyph-name="icircumflex" unicode="&#xee;" 
d="M150 460l-5 -210l5 -210q0 -50 -38 -50t-38 50l5 210q-2 70 -5 210q0 50 38 50t38 -50zM168 638q-41 48 -55.5 48t-55.5 -48q-5 -3 -15 -18q-23 -32 -39.5 -32t-26.5 8q-9 12 -9 19q0 19 14 30q2 2 28.5 25.5t43.5 48.5q18 23 29 32q12 9 30 9t29.5 -8.5t31 -33
t29.5 -34.5t24 -22q24 -19 28 -29q4 -6 4 -13t-3 -15q-7 -17 -28 -17h-7t-16 9t-22.5 24.5t-13.5 16.5z" />
    <glyph glyph-name="idieresis" unicode="&#xef;" 
d="M150 460l-5 -210l5 -210q0 -50 -38 -50t-38 50l5 210q-2 70 -5 210q0 50 38 50t38 -50zM37 725q41 0 41 -48q0 -22 -14.5 -41.5t-34.5 -19.5q-42 0 -42 51q0 24 14.5 41t35.5 17zM197 725q41 0 41 -48q0 -22 -14.5 -41.5t-34.5 -19.5q-42 0 -42 51q0 24 14.5 41t35.5 17z
" />
    <glyph glyph-name="eth" unicode="&#xf0;" horiz-adv-x="572" 
d="M510 301q0 -139 -59.5 -225t-177.5 -86q-100 0 -163 76q-62 77 -62 175.5t56 172.5t154 74q54 0 100.5 -23.5t72.5 -58.5q-25 127 -116 206q-8 -7 -59 -58q-19 -18 -33 -18t-23.5 11.5t-9.5 19t4 12.5q5 11 25 26q5 5 24.5 20t25.5 20q-42 25 -95 30q-19 1 -32 5
q-24 6 -24 30q0 13 13 22t35 9q70 0 153 -47q18 15 55 52q19 18 33 18t24 -9.5t10 -19t-3.5 -17.5t-21.5 -24l-48 -39q67 -61 104.5 -155.5t37.5 -198.5zM275 54q66 0 111 53.5t45 128t-45 131.5t-115 57t-110.5 -52.5t-40.5 -130t44 -133.5q45 -54 111 -54z" />
    <glyph glyph-name="ntilde" unicode="&#xf1;" horiz-adv-x="579" 
d="M496 315l-5 -157v-43q2 -41 20 -49q7 -2 16 -3.5t12.5 -3.5t3.5 -8q0 -26 -16.5 -43.5t-38.5 -17.5q-37 0 -52 29t-15 89l4 184q0 69 -29.5 110.5t-80.5 41.5t-98.5 -56.5t-67.5 -129.5l3 -217q0 -51 -38 -51q-46 0 -46 68.5t20 199.5q0 42 -8.5 118t-8.5 92t11 29t28 13
t28 -13t11 -28t-0.5 -45t-0.5 -41q73 127 180 127q80 0 124 -57.5t44 -137.5zM461 682q0 -34 -25.5 -59.5t-60 -25.5t-82 27.5t-64.5 27.5t-30 -9t-16.5 -13.5t-17.5 -23.5q-13 -15 -23 -15t-17 3q-21 10 -21 39t32 55.5t74 26.5t93 -28t73 -28t38.5 25.5t25.5 25.5t15 -8.5
t6 -19.5z" />
    <glyph glyph-name="ograve" unicode="&#xf2;" horiz-adv-x="562" 
d="M163 108q46 -58 115.5 -58t118 58.5t48.5 141.5t-46.5 141.5t-115 58.5t-118.5 -59q-48 -59 -48 -142t46 -141zM46 249q0 111 67 188.5t169 77.5t168 -76.5t66 -188t-67.5 -188.5t-169 -77t-167.5 76.5t-66 187.5zM333 614q0 -21 -27 -21t-73 43q-45 44 -45 86q-1 3 -1 6
q0 19 22 28q8 4 20 4q23 0 46 -54q14 -31 36 -55.5t22 -36.5z" />
    <glyph glyph-name="oacute" unicode="&#xf3;" horiz-adv-x="562" 
d="M163 108q46 -58 115.5 -58t118 58.5t48.5 141.5t-46.5 141.5t-115 58.5t-118.5 -59q-48 -59 -48 -142t46 -141zM46 249q0 111 67 188.5t169 77.5t168 -76.5t66 -188t-67.5 -188.5t-169 -77t-167.5 76.5t-66 187.5zM383 722q0 -43 -46 -86.5t-72.5 -43.5t-26.5 22
q0 13 11 24.5t28 32.5q8 12 19 37.5t22.5 38.5t28.5 13t26.5 -11t9.5 -27z" />
    <glyph glyph-name="ocircumflex" unicode="&#xf4;" horiz-adv-x="562" 
d="M163 108q46 -58 115.5 -58t118 58.5t48.5 141.5t-46.5 141.5t-115 58.5t-118.5 -59q-48 -59 -48 -142t46 -141zM46 249q0 111 67 188.5t169 77.5t168 -76.5t66 -188t-67.5 -188.5t-169 -77t-167.5 76.5t-66 187.5zM336 638q-40 48 -55 48t-56 -48q-3 -2 -20.5 -26
t-34 -24t-26.5 8q-10 10 -10 22t9 21.5t22 20.5q37 31 56 59q18 23 29 32q12 9 30 9t29.5 -8.5t31 -33t29.5 -34.5t24 -22q24 -19 28 -29q4 -6 4 -13t-3 -15q-7 -17 -28 -17h-7t-16 9t-22.5 24.5t-13.5 16.5z" />
    <glyph glyph-name="otilde" unicode="&#xf5;" horiz-adv-x="562" 
d="M163 108q46 -58 115.5 -58t118 58.5t48.5 141.5t-46.5 141.5t-115 58.5t-118.5 -59q-48 -59 -48 -142t46 -141zM46 249q0 111 67 188.5t169 77.5t168 -76.5t66 -188t-67.5 -188.5t-169 -77t-167.5 76.5t-66 187.5zM459 682q0 -34 -25.5 -59.5t-60 -25.5t-82 27.5
t-64.5 27.5t-30 -9t-16.5 -13.5t-17.5 -23.5q-13 -15 -23 -15t-17 3q-21 10 -21 39t32 55.5t74 26.5t93 -28t73 -28t38.5 25.5t25.5 25.5t15 -8.5t6 -19.5z" />
    <glyph glyph-name="odieresis" unicode="&#xf6;" horiz-adv-x="562" 
d="M163 108q46 -58 115.5 -58t118 58.5t48.5 141.5t-46.5 141.5t-115 58.5t-118.5 -59q-48 -59 -48 -142t46 -141zM46 249q0 111 67 188.5t169 77.5t168 -76.5t66 -188t-67.5 -188.5t-169 -77t-167.5 76.5t-66 187.5zM205 725q41 0 41 -48q0 -22 -14.5 -41.5t-34.5 -19.5
q-42 0 -42 51q0 24 14.5 41t35.5 17zM365 725q41 0 41 -48q0 -22 -14.5 -41.5t-34.5 -19.5q-42 0 -42 51q0 24 14.5 41t35.5 17z" />
    <glyph glyph-name="divide" unicode="&#xf7;" horiz-adv-x="558" 
d="M279 291l177 3h5q21 0 28.5 -12t7.5 -21t-7.5 -21t-28.5 -12h-5l-177 3l-177 -3h-5q-21 0 -28.5 12t-7.5 21t7.5 21t28.5 12h5zM282 151q42 0 42 -52q0 -22 -14 -40.5t-34 -18.5t-31 15t-11 37.5t14 40.5t34 18zM282 482q42 0 42 -52q0 -22 -14 -40.5t-34 -18.5t-31 15
t-11 37.5t14 40.5t34 18z" />
    <glyph glyph-name="oslash" unicode="&#xf8;" horiz-adv-x="562" 
d="M516 250q0 -111 -67.5 -188t-167.5 -77q-28 0 -64 9l-18 -50q-14 -35 -41 -35q-14 0 -24.5 10.5t-10.5 26.5t27 80q-49 35 -76.5 94t-27.5 130q0 110 67 187.5t167 77.5q33 0 63 -9l17 46q15 35 41 35q14 0 24.5 -10.5t10.5 -26.5t-26 -76q50 -35 78 -94t28 -130z
M382 410q-59 -136 -142 -355q25 -5 40 -5q68 0 116.5 58.5t48.5 150t-63 151.5zM179 91q82 190 142 353q-18 6 -39 6q-67 0 -117 -59q-48 -59 -48 -151t62 -149z" />
    <glyph glyph-name="ugrave" unicode="&#xf9;" horiz-adv-x="584" 
d="M151 428l-8 -220q0 -69 29.5 -111t80.5 -42t99 57q47 58 67 130l-3 217q0 51 38 51q46 0 46 -68.5t-20 -199.5q0 -73 10.5 -121.5t26.5 -54.5q6 -3 14.5 -4t12 -3t3.5 -8q0 -27 -16.5 -44t-41.5 -17q-63 0 -63 128q-74 -128 -186 -128q-80 0 -124 59q-44 61 -44 146
l6 151q0 31 -8 74.5t-8 54.5t12.5 23t30.5 12q46 0 46 -82zM324 614q0 -21 -27 -21t-73 43q-45 44 -45 86q-1 3 -1 6q0 19 22 28q8 4 20 4q23 0 46 -54q14 -31 36 -55.5t22 -36.5z" />
    <glyph glyph-name="uacute" unicode="&#xfa;" horiz-adv-x="584" 
d="M151 428l-8 -220q0 -69 29.5 -111t80.5 -42t99 57q47 58 67 130l-3 217q0 51 38 51q46 0 46 -68.5t-20 -199.5q0 -73 10.5 -121.5t26.5 -54.5q6 -3 14.5 -4t12 -3t3.5 -8q0 -27 -16.5 -44t-41.5 -17q-63 0 -63 128q-74 -128 -186 -128q-80 0 -124 59q-44 61 -44 146
l6 151q0 31 -8 74.5t-8 54.5t12.5 23t30.5 12q46 0 46 -82zM384 722q0 -43 -46 -86.5t-72.5 -43.5t-26.5 22q0 13 10.5 24.5t28.5 32.5q8 12 19 37.5t22.5 38.5t28.5 13t26.5 -11t9.5 -27z" />
    <glyph glyph-name="ucircumflex" unicode="&#xfb;" horiz-adv-x="584" 
d="M151 428l-8 -220q0 -69 29.5 -111t80.5 -42t99 57q47 58 67 130l-3 217q0 51 38 51q46 0 46 -68.5t-20 -199.5q0 -73 10.5 -121.5t26.5 -54.5q6 -3 14.5 -4t12 -3t3.5 -8q0 -27 -16.5 -44t-41.5 -17q-63 0 -63 128q-74 -128 -186 -128q-80 0 -124 59q-44 61 -44 146
l6 151q0 31 -8 74.5t-8 54.5t12.5 23t30.5 12q46 0 46 -82zM339 638q-40 48 -55.5 48t-55.5 -48q-3 -2 -20.5 -26t-34 -24t-26.5 8q-9 9 -9 20q0 16 8.5 24.5t21.5 19.5q37 31 56 59q18 23 29 32q12 9 30 9t29.5 -8.5t31 -33t29.5 -34.5t24 -22q24 -19 28 -29q4 -6 4 -13
t-3 -15q-7 -17 -28 -17h-7t-16 9t-22.5 24.5t-13.5 16.5z" />
    <glyph glyph-name="udieresis" unicode="&#xfc;" horiz-adv-x="584" 
d="M151 428l-8 -220q0 -69 29.5 -111t80.5 -42t99 57q47 58 67 130l-3 217q0 51 38 51q46 0 46 -68.5t-20 -199.5q0 -73 10.5 -121.5t26.5 -54.5q6 -3 14.5 -4t12 -3t3.5 -8q0 -27 -16.5 -44t-41.5 -17q-63 0 -63 128q-74 -128 -186 -128q-80 0 -124 59q-44 61 -44 146
l6 151q0 31 -8 74.5t-8 54.5t12.5 23t30.5 12q46 0 46 -82zM216 725q41 0 41 -48q0 -22 -14.5 -41.5t-34.5 -19.5q-42 0 -42 51q0 24 14.5 41t35.5 17zM376 725q41 0 41 -48q0 -22 -14.5 -41.5t-34.5 -19.5q-42 0 -42 51q0 24 14.5 41t35.5 17z" />
    <glyph glyph-name="yacute" unicode="&#xfd;" horiz-adv-x="568" 
d="M419 242l-3 217q0 51 38 51q46 0 46 -75q0 -59 -21 -193q12 -122 12 -182q0 -131 -64.5 -210.5t-179.5 -79.5q-60 0 -116 25.5t-56 51t23 25.5q10 0 55 -18.5t94 -18.5q83 0 132.5 59.5t49.5 155.5q0 35 -3 68q-74 -128 -186 -128q-80 0 -124 59q-44 61 -44 146l6 151
q0 31 -8 74.5t-8 54.5t12.5 23t30.5 12q46 0 46 -82l-8 -220q0 -69 29.5 -111t80.5 -42t99 57q47 58 67 130zM390 722q0 -43 -46 -86.5t-72.5 -43.5t-26.5 22q0 13 11 24.5t28 32.5q8 12 19 37.5t22.5 38.5t28.5 13t26.5 -11t9.5 -27z" />
    <glyph glyph-name="thorn" unicode="&#xfe;" horiz-adv-x="568" 
d="M317 445q-105 0 -173 -173v-159q59 -58 142 -58q64 0 112.5 58.5t48.5 138.5t-34.5 136.5t-95.5 56.5zM144 39q-2 -76 -2 -126.5t-1 -74.5q-2 -41 -9 -52q-9 -16 -30.5 -16t-34.5 17t-13 56t3 74l12 119q12 115 13 135v19l1 38v16q0 77 -9.5 268.5t-9.5 206t10.5 28.5
t22 14t21.5 -5q24 -11 24 -39v-7v-329q35 65 76.5 97t105.5 32t110 -42q87 -77 87 -207q0 -109 -66 -190t-169 -81q-75 0 -142 49z" />
    <glyph glyph-name="ydieresis" unicode="&#xff;" horiz-adv-x="568" 
d="M419 242l-3 217q0 51 38 51q46 0 46 -75q0 -59 -21 -193q12 -122 12 -182q0 -131 -64.5 -210.5t-179.5 -79.5q-60 0 -116 25.5t-56 51t23 25.5q10 0 55 -18.5t94 -18.5q83 0 132.5 59.5t49.5 155.5q0 35 -3 68q-74 -128 -186 -128q-80 0 -124 59q-44 61 -44 146l6 151
q0 31 -8 74.5t-8 54.5t12.5 23t30.5 12q46 0 46 -82l-8 -220q0 -69 29.5 -111t80.5 -42t99 57q47 58 67 130zM218 725q41 0 41 -48q0 -22 -14.5 -41.5t-34.5 -19.5q-42 0 -42 51q0 24 14.5 41t35.5 17zM378 725q41 0 41 -48q0 -22 -14.5 -41.5t-34.5 -19.5q-42 0 -42 51
q0 24 14.5 41t35.5 17z" />
    <glyph glyph-name="Hbar" unicode="&#x126;" horiz-adv-x="750" 
d="M375 610l-175 -1q-2 -114 -2 -220q44 -15 115 -15q160 0 238 98l-2 137q-53 1 -174 1zM121 41l4 293q-66 22 -66 63q0 17 9 26t20.5 9t35.5 -16v191h-66q-18 0 -29.5 9.5t-11.5 24t11.5 23.5t38 9t54.5 -1v37q0 22 12 36.5t29 14.5t29 -14.5t12 -36t-1 -38.5
q54 -1 172.5 -1t171.5 1v38q0 23 11 37t29 14t28.5 -8t15.5 -22q7 -25 7 -58q24 1 48.5 1t36 -9t11.5 -24t-11.5 -24t-29.5 -9h-55q-6 -99 -16 -170l7 -396q0 -22 -12 -36.5t-29 -14.5t-29 14.5t-12 36.5l6 304v32q-41 -32 -107.5 -51t-133 -19t-113.5 10l5 -276
q0 -22 -12 -36.5t-29 -14.5t-29 14.5t-12 36.5z" />
    <glyph glyph-name="hbar" unicode="&#x127;" horiz-adv-x="577" 
d="M12 664l57 -2v41t10 44t21.5 14t21.5 -5q24 -11 24 -39v-7v-49l127 3h5q21 0 28.5 -12t7.5 -21t-7.5 -21t-28.5 -12h-5l-127 3v-218q73 127 180 127q81 0 124.5 -57.5t43.5 -137.5l-5 -157v-43q2 -41 20 -49q7 -2 16 -3.5t12.5 -3.5t3.5 -8q0 -26 -16.5 -43.5
t-38.5 -17.5q-37 0 -52 29t-15 89l4 184q0 69 -29.5 110.5t-80.5 41.5t-98.5 -56.5t-67.5 -129.5l3 -217q0 -51 -38 -51q-46 0 -46 68.5t20 199.5q0 81 -14 342l-60 -2q-12 0 -23 9.5t-11 24t11.5 23.5t22.5 9z" />
    <glyph glyph-name="Itilde" unicode="&#x128;" horiz-adv-x="598" 
d="M487 444l-1 -169q0 -148 -70.5 -219t-171 -71t-154.5 58q-53 59 -53 131.5t46 118t106 45.5t95 -38t35 -93t-37 -80q-12 -7 -20 -7q-15 0 -13 15q0 1 3 11q6 28 6 54t-21 48.5t-53 22.5t-53.5 -25.5t-21.5 -69t32 -83.5q33 -38 96 -38q83 0 130 55.5t47 155.5l1 178
q0 139 -2 227q-59 -9 -99 -9q-216 0 -216 63q0 35 38 35q5 0 65.5 -12.5t112.5 -12.5t123.5 12.5t78.5 12.5q42 0 42 -33.5t-69 -45.5q-2 -94 -2 -237zM495 902q0 -34 -25.5 -59.5t-60 -25.5t-82 27.5t-64.5 27.5t-30 -9t-16.5 -13.5t-17.5 -23.5q-13 -15 -23 -15t-17 3
q-21 10 -21 39t32 55.5t74 26.5t93 -28t73 -28t38.5 25.5t25.5 25.5t15 -8.5t6 -19.5z" />
    <glyph glyph-name="itilde" unicode="&#x129;" 
d="M150 460l-5 -210l5 -210q0 -50 -38 -50t-38 50l5 210q-2 70 -5 210q0 50 38 50t38 -50zM291 682q0 -34 -25.5 -59.5t-60 -25.5t-82 27.5t-64.5 27.5t-30 -9t-16.5 -13.5t-17.5 -23.5q-13 -15 -23 -15t-17 3q-21 10 -21 39t32 55.5t74 26.5t93 -28t73 -28t38.5 25.5
t25.5 25.5t15 -8.5t6 -19.5z" />
    <glyph glyph-name="Idot" unicode="&#x130;" horiz-adv-x="598" 
d="M337 955q41 0 41 -48q0 -22 -14.5 -41.5t-34.5 -19.5q-42 0 -42 51q0 24 14.5 41t35.5 17zM487 444l-1 -169q0 -148 -70.5 -219t-171 -71t-154.5 58q-53 59 -53 131.5t46 118t106 45.5t95 -38t35 -93t-37 -80q-12 -7 -20 -7q-15 0 -13 15q0 1 3 11q6 28 6 54t-21 48.5
t-53 22.5t-53.5 -25.5t-21.5 -69t32 -83.5q33 -38 96 -38q83 0 130 55.5t47 155.5l1 178q0 139 -2 227q-59 -9 -99 -9q-216 0 -216 63q0 35 38 35q5 0 65.5 -12.5t112.5 -12.5t123.5 12.5t78.5 12.5q42 0 42 -33.5t-69 -45.5q-2 -94 -2 -237z" />
    <glyph glyph-name="dotlessi" unicode="&#x131;" 
d="M150 460l-5 -210l5 -210q0 -50 -38 -50t-38 50l5 210q-2 70 -5 210q0 50 38 50t38 -50z" />
    <glyph glyph-name="IJ" unicode="&#x132;" horiz-adv-x="1096" 
d="M980 485l-1 -247v-163q0 -156 -67.5 -233t-169 -77t-158.5 64q-56 65 -56 144t48 131.5t111 52.5t100.5 -38t37.5 -93t-38 -80q-12 -7 -19 -7q-15 0 -13 15q0 1 3 12q6 27 6 53.5t-22 49t-57 22.5t-60 -34.5t-25 -87t37 -94.5t101 -42q81 0 126 64.5t45 178.5
q0 273 -1.5 410t-1.5 186q-58 -9 -99 -9q-216 0 -216 63q0 35 38 35q5 0 65.5 -12.5t112.5 -12.5t123.5 12.5t78.5 12.5q42 0 42 -33.5t-69 -45.5v-14zM487 444l-1 -169q0 -148 -70.5 -219t-171 -71t-154.5 58q-53 59 -53 131.5t46 118t106 45.5t95 -38t35 -93t-37 -80
q-12 -7 -20 -7q-15 0 -13 15q0 1 3 11q6 28 6 54t-21 48.5t-53 22.5t-53.5 -25.5t-21.5 -69t32 -83.5q33 -38 96 -38q83 0 130 55.5t47 155.5l1 178q0 139 -2 227q-59 -9 -99 -9q-216 0 -216 63q0 35 38 35q5 0 65.5 -12.5t112.5 -12.5t123.5 12.5t78.5 12.5q42 0 42 -33.5
t-69 -45.5q-2 -94 -2 -237z" />
    <glyph glyph-name="ij" unicode="&#x133;" horiz-adv-x="465" 
d="M117 725q41 0 41 -48q0 -22 -14.5 -41.5t-34.5 -19.5q-42 0 -42 51q0 24 14.5 41t35.5 17zM150 460l-5 -210l5 -210q0 -50 -38 -50t-38 50l5 210l-5 210q0 50 38 50t38 -50zM359 725q41 0 41 -48q0 -22 -14.5 -41.5t-34.5 -19.5q-42 0 -42 51q0 24 14.5 41t35.5 17z
M392 460l-5 -230l-1 -220q0 -86 -43.5 -142.5t-80.5 -56.5q-27 0 -27 19q0 14 43 56q18 17 31 53t13 81l-1 210l-5 230q0 50 38 50t38 -50z" />
    <glyph glyph-name="Jcircumflex" unicode="&#x134;" horiz-adv-x="576" 
d="M460 485l-1 -247v-163q0 -156 -67.5 -233t-169 -77t-158.5 64q-56 65 -56 144t48 131.5t111.5 52.5t100.5 -38t37 -93t-38 -80q-12 -7 -19 -7q-15 0 -13 15q0 1 3 12q6 27 6 53.5t-22 49t-57 22.5t-60 -34.5t-25 -87t37 -94.5t101 -42q81 0 126 64.5t45 178.5
q0 273 -1.5 410t-1.5 186q-58 -9 -99 -9q-216 0 -216 63q0 35 38 35q5 0 65 -12.5t112.5 -12.5t124 12.5t78.5 12.5q42 0 42 -33.5t-69 -45.5v-14zM354 863q-40 48 -55 48t-56 -48q-3 -2 -20.5 -26t-34 -24t-26.5 8q-10 11 -10 23t9 21t22 20q37 31 56 59q18 23 29 32
q12 9 30 9t29.5 -8.5t31 -33t29.5 -34.5t24 -21q24 -20 28 -30q4 -5 4 -12t-3 -16q-7 -17 -28 -17h-7t-16 9t-22.5 24.5t-13.5 16.5z" />
    <glyph glyph-name="jcircumflex" unicode="&#x135;" horiz-adv-x="223" 
d="M150 460l-5 -230l-1 -220q0 -86 -43.5 -142.5t-80.5 -56.5q-27 0 -27 19q0 14 43 56q18 17 31 53t13 81l-1 210l-5 230q0 50 38 50t38 -50zM167 638q-41 48 -56 48t-55 -48q-3 -2 -20.5 -26t-34 -24t-26.5 8q-9 12 -9 19q0 19 14 30q2 2 28.5 25.5t43.5 48.5q18 23 29 32
q12 9 30 9t29.5 -8.5t31 -33t29.5 -34.5t24 -22q24 -19 28 -29q4 -6 4 -13t-3 -15q-7 -17 -28 -17h-7t-16 9t-22.5 24.5t-13.5 16.5z" />
    <glyph glyph-name="Kcommaaccent" unicode="&#x136;" horiz-adv-x="706" 
d="M358 -99q0 -43 -38.5 -89.5t-63.5 -46.5q-10 0 -16.5 6t-7 12.5t3.5 15.5t13 23.5t13.5 24.5t11.5 39.5t17.5 44.5t22.5 15t21 -4q24 -11 24 -34q0 -3 -1 -7zM238 437l1 -88q64 6 95 28q-33 49 -96 60zM170 355v86q-27 -4 -43 -15.5t-16 -26.5q0 -30 59 -44zM165 34
l3 249q-59 12 -92.5 44.5t-33.5 74.5t34 74t92 39l-5 194q0 23 11 37t30 14t30 -14t11 -32.5t-5 -201.5q98 -17 150 -86q48 54 82.5 131.5t46.5 158.5q8 44 41 44q15 0 24.5 -10t9.5 -27q0 -71 -50 -178t-114 -177q100 -205 161 -303q41 -66 89 -69h8q17 0 17 -5v-5
q0 -30 -17.5 -48.5t-41.5 -18.5t-40.5 10t-23 17t-20.5 24q-29 33 -85 139l-108 212q-57 -32 -129 -41l7 -239v-7q0 -26 -19 -38q-11 -6 -22 -6l-22 6q-19 12 -19 38z" />
    <glyph glyph-name="kcedilla" unicode="&#x137;" horiz-adv-x="510" 
d="M284 -99q0 -43 -38.5 -89.5t-63.5 -46.5q-10 0 -16.5 6t-6.5 12.5t4.5 15t12.5 22.5q16 30 23.5 62.5t18 47.5t22.5 15t21 -4q24 -11 24 -34q0 -3 -1 -7zM147 258l3 -217q0 -51 -38 -51q-46 0 -46 68.5t20 199.5q0 68 -9 256.5t-9 203.5t10.5 29t22 14t21.5 -5
q24 -11 24 -39v-7v-327q73 127 180 127q57 0 92.5 -33.5t35.5 -83.5q0 -82 -85 -140l-49 -32l74 -114q13 -21 29.5 -32t28 -12.5t18.5 -3.5t6 -8q0 -24 -15 -42.5t-36 -18.5h-16q-25 0 -62 61q-1 3 -2.5 5t-36.5 58.5t-55 84.5q-26 0 -43 14t-17 40t29 38q8 3 16 3
q23 0 49 -25q38 17 67.5 52t29.5 63q0 60 -62 60q-56 0 -106 -56t-69 -130z" />
    <glyph glyph-name="kgreenlandic" unicode="&#x138;" horiz-adv-x="505" 
d="M145 218l5 -178q0 -50 -38 -50t-38 50l5 210l-5 210q0 50 38 50t38 -50q0 -6 -2.5 -73t-2.5 -90q40 14 69.5 14t45.5 -2q37 24 66.5 73.5t44.5 92.5q11 35 39 35q13 0 22.5 -10t9.5 -23q0 -40 -41.5 -105.5t-91.5 -109.5l91 -154q25 -39 66 -46q9 -2 13 -4t3 -6
q0 -24 -15.5 -42.5t-36 -18.5t-38 10t-57 78.5t-85.5 144.5q-24 -10 -64 -10z" />
    <glyph glyph-name="Ldot" unicode="&#x13f;" horiz-adv-x="621" 
d="M364 490q21 0 32.5 -15t11.5 -39.5t-15 -43.5t-35 -19t-32 15.5t-12 39.5t14.5 43t35.5 19zM160 13q-47 -22 -70 -22t-39 16.5t-16 40.5t15 40q15 17 34 17t43 -7q20 66 20 284q0 115 -13 223t-13 120.5t11 24.5t28 12q36 0 44 -51q15 -109 15 -326.5t-21 -307.5
q69 -22 168 -22q60 0 103.5 28.5t43.5 75.5q0 23 -14.5 39.5t-35.5 16.5q-39 0 -47 -39q-10 -39 -29 -39q-12 0 -21 16t-9 35q0 37 30.5 65t77.5 28t84.5 -33t37.5 -89q0 -79 -65 -125q-69 -49 -161 -49t-201 28z" />
    <glyph glyph-name="ldot" unicode="&#x140;" horiz-adv-x="338" 
d="M150 710l-5 -335l5 -335q0 -50 -38 -50t-38 50l5 335l-5 335q0 50 38 50t38 -50zM280 440q21 0 32.5 -15t11.5 -39.5t-15 -43.5t-35 -19t-32 15.5t-12 39.5t14.5 43t35.5 19z" />
    <glyph glyph-name="Lslash" unicode="&#x141;" horiz-adv-x="621" 
d="M218 450l1 -68q0 -215 -21 -305q70 -22 168 -22q60 0 103.5 28.5t43.5 75.5q0 23 -14.5 39.5t-35.5 16.5t-32.5 -12t-14.5 -27q-10 -39 -29 -39q-13 0 -21.5 16t-8.5 35q0 36 30 64.5t77 28.5t85 -33t38 -89q0 -79 -67.5 -126.5t-153.5 -47.5t-206 28q-48 -22 -70.5 -22
t-38.5 16.5t-16 41t15 40.5t32 16t45 -7q19 62 19 290l-42 -38q-15 -12 -28.5 -12t-22.5 9t-9 24t17 30q5 5 34.5 27.5t50.5 39.5q-3 75 -14 158.5t-11 97.5t11 26t28 12q37 0 45 -56t12 -182l69 66q15 12 28.5 12t22.5 -9t9 -24t-17 -30q-1 0 -42 -32.5t-69 -56.5z" />
    <glyph glyph-name="lslash" unicode="&#x142;" horiz-adv-x="256" 
d="M18 382l80 63l-5 265q0 50 38 50t38 -50q0 -18 -1 -37l-4 -172l47 41q40 36 47 38.5t13 2.5q22 0 30 -20q2 -5 2 -15.5t-17 -27.5l-44 -35q-54 -42 -78 -63v-47q0 -195 2 -249q3 -81 3 -86q0 -50 -38 -50t-38 50q0 23 2.5 86t2.5 238l-37 -33q-13 -12 -22 -12
q-37 0 -37 29q0 16 16 34z" />
    <glyph glyph-name="Nacute" unicode="&#x143;" horiz-adv-x="878" 
d="M159 -8q-59 0 -93.5 42.5t-34.5 97.5t37.5 98.5t89.5 43.5q22 0 36.5 -10.5t14.5 -30.5q0 -37 -48 -37q-22 0 -38 -18.5t-16 -46t15 -45t42 -17.5q93 0 93 288q0 79 -16 207t-16 149.5t14 34.5t33 13q28 0 45 -35q54 -105 154 -281t173 -292q-4 0 -9.5 139.5t-5.5 183.5
q0 111 22 189q13 45 42.5 70.5t68 25.5t65.5 -20.5t27 -47.5t-23 -27q-7 0 -29 9t-39 9q-63 0 -63 -289q0 -68 11 -208t11 -156t-13.5 -29t-31.5 -13q-27 0 -47 35q-50 89 -114 199l-127 227q-55 102 -76 134q14 -132 14 -251q0 -341 -168 -341zM617 932q0 -43 -46 -86.5
t-72 -43.5t-27 22q0 13 10.5 24.5t28.5 32.5q8 12 19 37.5t22.5 38.5t28.5 13t26.5 -11t9.5 -27z" />
    <glyph glyph-name="nacute" unicode="&#x144;" horiz-adv-x="579" 
d="M496 315l-5 -157v-43q2 -41 20 -49q7 -2 16 -3.5t12.5 -3.5t3.5 -8q0 -26 -16.5 -43.5t-38.5 -17.5q-37 0 -52 29t-15 89l4 184q0 69 -29.5 110.5t-80.5 41.5t-98.5 -56.5t-67.5 -129.5l3 -217q0 -51 -38 -51q-46 0 -46 68.5t20 199.5q0 42 -8.5 118t-8.5 92t11 29t28 13
t28 -13t11 -28t-0.5 -45t-0.5 -41q73 127 180 127q80 0 124 -57.5t44 -137.5zM400 722q0 -43 -46 -86.5t-72.5 -43.5t-26.5 22q0 13 11 24.5t28 32.5q8 12 19 37.5t22.5 38.5t28.5 13t26.5 -11t9.5 -27z" />
    <glyph glyph-name="OE" unicode="&#x152;" horiz-adv-x="990" 
d="M558 -5l-168 -8q-140 0 -237.5 109t-97.5 280q0 66 14 111.5t44 45.5q14 0 23 -9.5t9 -24t-6.5 -47.5t-6.5 -76q0 -147 77 -232.5t180 -85.5t171.5 96t68.5 220.5t-60 221t-129.5 96.5t-116.5 -50t-65 -118t-18 -133t5.5 -97t5.5 -42q0 -25 -23 -25q-20 0 -37 50.5
t-17 117.5t15 132.5t45.5 120t83.5 86t123 31.5l111 -10l193 -5l150 5q50 0 50 -38t-50 -38l-150 5q-113 0 -146 -4q90 -93 107 -247q120 5 138.5 5t32 -10.5t13.5 -28.5q0 -37 -50 -37q-2 0 -130 4q-1 -89 -31 -166.5t-81 -130.5q53 -3 135 -3l162 5q50 0 50 -38t-50 -38
l-162 5z" />
    <glyph glyph-name="oe" unicode="&#x153;" horiz-adv-x="908" 
d="M643 206q-52 0 -127 15q6 -71 52.5 -121t108.5 -50t102 30.5t52.5 30.5t20 -7.5t7.5 -18.5q0 -28 -57.5 -64t-124.5 -36q-134 0 -198 121q-31 -57 -83 -89t-115 -32q-103 0 -169 76.5t-66 187.5t67 188.5t167 77.5q66 0 119.5 -33.5t83.5 -92.5q71 126 203 126
q72 0 122.5 -45t50.5 -117.5t-62 -109.5t-154 -37zM163 108q46 -58 115.5 -58t118 58.5t48.5 141.5t-46.5 141.5t-115 58.5t-118.5 -59q-48 -59 -48 -142t46 -141zM686 450q-66 0 -110.5 -49.5t-58.5 -115.5q54 -16 121.5 -16t108.5 23t41 63t-27.5 67.5t-74.5 27.5z" />
    <glyph glyph-name="Racute" unicode="&#x154;" horiz-adv-x="739" 
d="M236 672q0 -57 4 -197q57 -6 109.5 -39t83.5 -78q49 30 78 77.5t29 97.5q0 75 -58 118.5t-144 43.5q-47 0 -102 -23zM239 410v-94q23 -2 57 -2t68 13q-43 64 -125 83zM170 323v91q-59 -8 -59 -39.5t59 -51.5zM698 -6q17 0 17 -5v-5q0 -26 -17.5 -46.5t-35.5 -20.5t-40 12
t-57.5 61t-72.5 120l-92 161q-62 -22 -127 -22q-26 0 -33 1l6 -209q0 -23 -11 -37t-30 -14t-30 14t-11 50.5t4 203.5q-62 14 -94 45t-32 71t35.5 70t90.5 35l-8 199q0 43 35 60q60 27 144 27q122 0 200.5 -66t78.5 -164q0 -69 -40.5 -132.5t-108.5 -102.5q113 -204 132 -233
q46 -70 89 -73h8zM457 932q0 -43 -46 -86.5t-72 -43.5t-27 22q0 13 10.5 24.5t28.5 32.5q8 12 19 37.5t22.5 38.5t28.5 13t26.5 -11t9.5 -27z" />
    <glyph glyph-name="Rcommaaccent" unicode="&#x156;" horiz-adv-x="739" 
d="M236 672q0 -57 4 -197q57 -6 109.5 -39t83.5 -78q49 30 78 77.5t29 97.5q0 75 -58 118.5t-144 43.5q-47 0 -102 -23zM239 410v-94q23 -2 57 -2t68 13q-43 64 -125 83zM170 323v91q-59 -8 -59 -39.5t59 -51.5zM698 -6q17 0 17 -5v-5q0 -26 -17.5 -46.5t-35.5 -20.5t-40 12
t-57.5 61t-72.5 120l-92 161q-62 -22 -127 -22q-26 0 -33 1l6 -209q0 -23 -11 -37t-30 -14t-30 14t-11 50.5t4 203.5q-62 14 -94 45t-32 71t35.5 70t90.5 35l-8 199q0 43 35 60q60 27 144 27q122 0 200.5 -66t78.5 -164q0 -69 -40.5 -132.5t-108.5 -102.5q113 -204 132 -233
q46 -70 89 -73h8zM338 -99q0 -43 -38.5 -89.5t-63.5 -46.5q-10 0 -16.5 6t-6.5 12.5t4.5 15t12.5 22.5q16 30 23.5 62.5t18 47.5t22.5 15t21 -4q24 -11 24 -34q0 -3 -1 -7z" />
    <glyph glyph-name="rcommaaccent" unicode="&#x157;" horiz-adv-x="408" 
d="M143 -99q0 -43 -38.5 -89.5t-63.5 -46.5q-10 0 -16.5 6t-6.5 12.5t4.5 15t11.5 22.5q17 30 24.5 62.5t18 47.5t22.5 15t21 -4q24 -11 24 -34q0 -3 -1 -7zM149 229l3 -188q0 -51 -38 -51q-46 0 -46 68.5t20 199.5q0 42 -8.5 117.5t-8.5 91.5t11 29.5t28 13.5t28 -13.5
t11 -27.5t-0.5 -45t-0.5 -43q19 50 62 90q44 39 87.5 39t69 -17.5t25.5 -39.5t-11 -34t-28.5 -12t-38.5 18q-19 19 -32 19q-33 0 -77 -71.5t-56 -143.5z" />
    <glyph glyph-name="Rcaron" unicode="&#x158;" horiz-adv-x="739" 
d="M236 672q0 -57 4 -197q57 -6 109.5 -39t83.5 -78q49 30 78 77.5t29 97.5q0 75 -58 118.5t-144 43.5q-47 0 -102 -23zM239 410v-94q23 -2 57 -2t68 13q-43 64 -125 83zM170 323v91q-59 -8 -59 -39.5t59 -51.5zM698 -6q17 0 17 -5v-5q0 -26 -17.5 -46.5t-35.5 -20.5t-40 12
t-57.5 61t-72.5 120l-92 161q-62 -22 -127 -22q-26 0 -33 1l6 -209q0 -23 -11 -37t-30 -14t-30 14t-11 50.5t4 203.5q-62 14 -94 45t-32 71t35.5 70t90.5 35l-8 199q0 43 35 60q60 27 144 27q122 0 200.5 -66t78.5 -164q0 -69 -40.5 -132.5t-108.5 -102.5q113 -204 132 -233
q46 -70 89 -73h8zM213 953.5q0 9.5 2 14.5q8 18 24 18t26.5 -7.5t23.5 -25.5l14 -17q45 -48 55.5 -48t55.5 48l13 18q26 32 42.5 32t25.5 -8t9 -22.5t-13 -27.5q-33 -24 -62.5 -60.5t-41 -45t-29.5 -8.5t-30 9q-11 9 -29 32.5t-28 33t-26.5 24t-24 23t-7.5 18z" />
    <glyph glyph-name="rcaron" unicode="&#x159;" horiz-adv-x="408" 
d="M149 229l3 -188q0 -51 -38 -51q-46 0 -46 68.5t20 199.5q0 42 -8.5 117.5t-8.5 91.5t11 29.5t28 13.5t28 -13.5t11 -27.5t-0.5 -45t-0.5 -43q19 50 62 90q44 39 87.5 39t69 -17.5t25.5 -39.5t-11 -34t-28.5 -12t-38.5 18q-19 19 -32 19q-33 0 -77 -71.5t-56 -143.5z
M78 727.5q0 9.5 2 14.5q8 18 24 18t26.5 -7.5t23.5 -25.5l14 -17q45 -48 55.5 -48t55.5 48l13 18q26 32 42.5 32t25.5 -8t9 -22.5t-13 -27.5q-33 -24 -62.5 -60.5t-41 -45t-29.5 -8.5t-30 9q-11 9 -29 32.5t-28 33t-26.5 24t-24 23t-7.5 18z" />
    <glyph glyph-name="Ydieresis" unicode="&#x178;" horiz-adv-x="583" 
d="M21 713q0 47 36 47q10 0 20 -9.5t14.5 -23t12.5 -45t20 -71.5q34 -114 94 -189q33 -41 63 -41q15 0 22 4q44 279 115 349q30 30 65.5 30t54 -22.5t18.5 -60.5q0 -83 -57.5 -177.5t-125.5 -161.5q-8 -50 -8 -135t5 -160.5t5 -90.5t-11.5 -28t-29.5 -13q-38 0 -44 93
q-1 24 -1 85t12 217q-12 -2 -26 -2q-51 0 -92.5 38.5t-80 120.5t-60 149.5t-21.5 96.5zM477 692q-21 0 -59 -104t-42 -154q38 44 75 119t37 118q0 21 -11 21zM213 954q41 0 41 -48q0 -22 -14.5 -41.5t-34.5 -19.5q-42 0 -42 51q0 24 14.5 41t35.5 17zM373 954q41 0 41 -48
q0 -22 -14.5 -41.5t-34.5 -19.5q-42 0 -42 51q0 24 14.5 41t35.5 17z" />
    <glyph glyph-name="circumflex" unicode="&#x2c6;" horiz-adv-x="411" 
d="M261 638q-41 48 -56 48t-55 -48q-3 -2 -20.5 -26t-34 -24t-26.5 8q-9 9 -9 20q0 16 8.5 24.5t21.5 19.5q37 31 56 59q18 23 29 32q12 9 30 9t29.5 -8.5t31 -33t29.5 -34.5t24 -22q24 -19 28 -29q4 -6 4 -13t-3 -15q-7 -17 -28 -17h-7t-16 9t-22.5 24.5t-13.5 16.5z" />
    <glyph glyph-name="caron" unicode="&#x2c7;" horiz-adv-x="411" 
d="M60 727.5q0 9.5 2 14.5q8 18 24 18t26.5 -7.5t23.5 -25.5l14 -17q45 -48 55.5 -48t55.5 48l13 18q26 32 42.5 32t25.5 -8t9 -22.5t-13 -27.5q-33 -24 -62.5 -60.5t-41 -45t-29.5 -8.5t-30 9q-11 9 -29 32.5t-28 33t-26.5 24t-24 23t-7.5 18z" />
    <glyph glyph-name="breve" unicode="&#x2d8;" horiz-adv-x="415" 
d="M325 760q30 0 30 -38t-42 -81t-106 -43t-106 42q-41 44 -41 82t30 38q25 0 46 -50q7 -20 26.5 -34.5t44.5 -14.5t44 14.5t28 34.5q21 50 46 50z" />
    <glyph glyph-name="dotaccent" unicode="&#x2d9;" horiz-adv-x="191" 
d="M100 760q41 0 41 -48q0 -22 -14.5 -41.5t-34.5 -19.5q-42 0 -42 51q0 24 14.5 41t35.5 17z" />
    <glyph glyph-name="ring" unicode="&#x2da;" horiz-adv-x="182" 
d="M91 765q39 0 65 -27.5t26 -67.5t-25 -67t-65.5 -27t-66.5 26q-25 27 -25 67.5t26 68t65 27.5zM91 623q18 0 31 14.5t13 33t-13.5 33t-30.5 14.5t-30.5 -14.5t-13.5 -33t13 -33t31 -14.5z" />
    <glyph glyph-name="ogonek" unicode="&#x2db;" horiz-adv-x="355" 
d="M311 -160q0 -24 -32.5 -47t-79.5 -23t-81.5 28.5t-34.5 74.5q0 74 95 121h74q-102 -51 -102 -113q0 -34 36 -43q12 -4 24 -4l48 13q32 15 38 12.5t8 -4t4 -8t3 -7.5z" />
    <glyph glyph-name="tilde" unicode="&#x2dc;" horiz-adv-x="497" 
d="M427 682q0 -34 -25.5 -59.5t-60 -25.5t-82 27.5t-64.5 27.5t-30 -9t-16.5 -13.5t-17.5 -23.5q-13 -15 -23 -15t-17 3q-21 10 -21 39t32 55.5t74 26.5t93 -28t73 -28t38.5 25.5t25.5 25.5t15 -8.5t6 -19.5z" />
    <glyph glyph-name="Omega" unicode="&#x3a9;" horiz-adv-x="829" 
d="M306 -6l-118 6l-112 -6h-5q-26 0 -37 18q-6 10 -6 20t6 20q11 19 37 19h5l112 -5q36 0 46 1q-136 136 -136 311q0 139 94 238t223.5 99t223 -97.5t93.5 -236.5q0 -178 -136 -315q9 -1 46 -1l112 5q30 0 42 -19q6 -9 6 -19t-6 -20q-12 -19 -42 -19l-112 6l-119 -6
q-3 -1 -9.5 -1t-19 11.5t-12.5 30.5t24 32q64 34 106 126.5t42 195t-67.5 180t-170.5 77.5t-171.5 -79t-68.5 -181t42 -193t106 -125q25 -14 25 -34t-15 -29q-13 -10 -28 -10z" />
    <glyph glyph-name="endash" unicode="&#x2013;" horiz-adv-x="568" 
d="M284 291l177 3h5q21 0 28.5 -12t7.5 -21t-7.5 -21t-28.5 -12h-5l-177 3l-177 -3h-5q-21 0 -28.5 12t-7.5 21t7.5 21t28.5 12h5z" />
    <glyph glyph-name="emdash" unicode="&#x2014;" horiz-adv-x="848" 
d="M102 294l322 -3l317 3h5q21 0 28.5 -12t7.5 -21t-7.5 -21t-28.5 -12h-5l-317 3l-317 -3h-5q-21 0 -28.5 12t-7.5 21t7.5 21t28.5 12z" />
    <glyph glyph-name="quoteleft" unicode="&#x2018;" horiz-adv-x="218" 
d="M138 609l6 -73q0 -23 -14 -41.5t-35.5 -18.5t-33 15t-11.5 35q0 68 35 135q36 67 70 67q8 0 14 -5.5t6 -13t-18.5 -38.5t-18.5 -62z" />
    <glyph glyph-name="quoteright" unicode="&#x2019;" horiz-adv-x="219" 
d="M85 595l-6 73q0 23 14 41.5t35.5 18.5t33 -14.5t11.5 -35.5q0 -68 -35.5 -135t-69.5 -67q-8 0 -14 5.5t-6 12t18.5 38t18.5 63.5z" />
    <glyph glyph-name="quotesinglbase" unicode="&#x201a;" horiz-adv-x="210" 
d="M62 -114l3 80q0 12 -4 34.5t-4 33t0.5 21.5t15.5 29t29 18t24 -4q26 -13 26 -40q0 -4 -1 -9q0 -60 -22.5 -122t-46.5 -62q-20 0 -20 21z" />
    <glyph glyph-name="quotedblleft" unicode="&#x201c;" horiz-adv-x="380" 
d="M300 609l6 -73q0 -23 -14 -41.5t-35.5 -18.5t-33 15t-11.5 35q0 68 35 135q36 67 70 67q8 0 14 -5.5t6 -13t-18.5 -38.5t-18.5 -62zM138 609l6 -73q0 -23 -14 -41.5t-35.5 -18.5t-33 15t-11.5 35q0 68 35 135q36 67 70 67q8 0 14 -5.5t6 -13t-18.5 -38.5t-18.5 -62z" />
    <glyph glyph-name="quotedblright" unicode="&#x201d;" horiz-adv-x="381" 
d="M85 595l-6 73q0 23 14 41.5t35.5 18.5t33 -14.5t11.5 -35.5q0 -68 -35.5 -135t-69.5 -67q-8 0 -14 5.5t-6 12t18.5 38t18.5 63.5zM247 595l-6 73q0 23 14 41.5t35.5 18.5t33 -14.5t11.5 -35.5q0 -68 -35.5 -135t-69.5 -67q-8 0 -14 5.5t-6 12t18.5 38t18.5 63.5z" />
    <glyph glyph-name="quotedblbase" unicode="&#x201e;" horiz-adv-x="390" 
d="M62 -114l3 80q0 12 -4 34.5t-4 33t0.5 21.5t15.5 29t29 18t24 -4q26 -13 26 -40q0 -4 -1 -9q0 -60 -22.5 -122t-46.5 -62q-20 0 -20 21zM242 -114l3 80q0 12 -4 34.5t-4 33t0.5 21.5t15.5 29t29 18t24 -4q26 -13 26 -40q0 -4 -1 -9q0 -60 -22.5 -122t-46.5 -62
q-20 0 -20 21z" />
    <glyph glyph-name="dagger" unicode="&#x2020;" horiz-adv-x="526" 
d="M291 500l154 3h5q21 0 28.5 -12t7.5 -21t-7.5 -21t-28.5 -12h-28.5t-131.5 3v-144q0 -170 2.5 -282t2.5 -129t-10 -30.5t-26 -13.5t-26 13.5t-10 40t2.5 105.5t2.5 245t-1 195q-99 -3 -131.5 -3t-44.5 9.5t-12 19t4 16.5q11 21 38 21l145 -3l-3 209q0 23 10 37t25.5 14
t26 -13.5t10.5 -53.5t-4 -193z" />
    <glyph glyph-name="daggerdbl" unicode="&#x2021;" horiz-adv-x="547" 
d="M496 196q0 -33 -57 -33q-33 0 -138 3l5 -284v-6q0 -26 -13 -35.5t-23 -9.5l-19 7q-17 12 -17 38v6l4 284q-99 -3 -132 -3t-45 9.5t-12 19t4 16.5q11 21 38 21l148 -3v70q0 115 -1 144q-99 -3 -131.5 -3t-44.5 9.5t-12 19t4 16.5q11 21 38 21l145 -3l-3 209q0 23 10 37
t25.5 14t26 -13.5t10.5 -53.5t-4 -193l154 3h5q21 0 28.5 -12t7.5 -21t-7.5 -21t-28.5 -12h-28.5t-131.5 3l-1 -144l1 -70l154 3q18 0 29.5 -9t11.5 -24z" />
    <glyph glyph-name="bullet" unicode="&#x2022;" horiz-adv-x="289" 
d="M80 472q29 38 71.5 38t65 -30t22.5 -78t-29 -88q-29 -38 -70.5 -38t-65 31.5t-23.5 79t29 85.5z" />
    <glyph glyph-name="ellipsis" unicode="&#x2026;" horiz-adv-x="583" 
d="M106 107q21 0 32.5 -15t11.5 -39.5t-15 -43.5t-35 -19t-32 15.5t-12 39.5t14.5 43t35.5 19zM294 107q21 0 32.5 -15t11.5 -39.5t-15 -43.5t-35 -19t-32 15.5t-12 39.5t14.5 43t35.5 19zM482 107q21 0 32.5 -15t11.5 -39.5t-15 -43.5t-35 -19t-32 15.5t-12 39.5t14.5 43
t35.5 19z" />
    <glyph glyph-name="perthousand" unicode="&#x2030;" horiz-adv-x="1154" 
d="M852 33q-40 49 -40 124t42 124.5t107.5 49.5t106 -48t40.5 -123.5t-42 -125t-107.5 -49.5t-106.5 48zM898.5 75q22.5 -33 61 -33t61.5 32t23 83t-22.5 84t-61 33t-61.5 -32t-23 -83t22.5 -84zM559 755q28 -14 27.5 -52.5t-56.5 -100.5q-200 -572 -209 -594.5t-35 -22.5
q-13 0 -22 9t-9 25t25 76q107 264 178 482q-17 -8 -45.5 -8t-75.5 14q5 -20 5 -41q0 -73 -41 -123t-106 -50t-106 48q-40 49 -40 124t42 124.5t101 49.5t111.5 -43.5t100.5 -43.5t69 18l8 28q18 66 37 79q7 9 17.5 9t23.5 -7zM135 459q23 -33 61.5 -33t61.5 32t23 83
t-22.5 84t-61.5 33t-62 -32t-23 -83t23 -84zM608 -15q-66 0 -106 48.5t-40 123.5t42 124.5t107.5 49.5t106 -48t40.5 -123.5t-42 -125t-108 -49.5zM548.5 75q22.5 -33 61 -33t61.5 32t23 83t-22.5 84t-61 33t-61.5 -32t-23 -83t22.5 -84z" />
    <glyph glyph-name="guilsinglleft" unicode="&#x2039;" horiz-adv-x="298" 
d="M200 511q11 0 16 -3q20 -8 20 -26t-8.5 -26.5t-32.5 -26.5t-29 -23q-48 -44 -48 -57t48 -57q5 -5 29 -23t32.5 -26.5t8.5 -22t-9 -23.5q-10 -10 -20.5 -10t-21.5 6l-16 12q-32 36 -45 49t-58 54q-22 22 -22 38.5t8 27.5t34 34l37 35q7 6 24.5 25.5t29.5 31t23 11.5z" />
    <glyph glyph-name="guilsinglright" unicode="&#x203a;" horiz-adv-x="297" 
d="M98 188q-11 0 -16 2q-20 9 -20 26.5t8 26t32 26.5t30 23q48 44 48 57t-48 57q-6 5 -30 23t-32 26.5t-8 22t9.5 23.5t20 10t20.5 -7q10 -4 13.5 -8.5t28.5 -31t48 -47.5t29 -27q23 -21 23 -38t-8 -28t-34 -35l-37 -34q-7 -7 -24.5 -26t-29.5 -30t-23 -11z" />
    <glyph glyph-name="fraction" unicode="&#x2044;" horiz-adv-x="354" 
d="M154 217l-57 -170q-14 -41 -25 -51.5t-21 -10.5q-36 0 -36 33q0 18 15 59l51 127q36 90 73 198t70 204t40 118q14 41 46 41q14 -3 21.5 -8t7.5 -27t-15 -57l-51 -127q-62 -148 -119 -329z" />
    <glyph glyph-name="Euro" unicode="&#x20ac;" horiz-adv-x="643" 
d="M92 318l177 -3l177 3h5q21 0 28.5 -12t7.5 -21t-7.5 -21t-28.5 -12h-5l-177 3q-47 0 -60 -1q18 -95 66 -150t115 -55t107.5 33t54.5 33t22 -8.5t8 -21.5q0 -31 -55.5 -65.5t-130.5 -34.5q-100 0 -168 74q-68 76 -89 194h-38t-39 9t-12 18.5t4 17.5q11 20 38 20zM207 439
h62l177 3h5q21 0 28.5 -12t7.5 -21t-7.5 -21t-28.5 -12h-5l-177 3l-177 -3h-5q-21 0 -28.5 12t-7.5 21t7.5 21t28.5 12h5l46 -1q20 121 87 198q69 76 171 76q71 0 121.5 -31.5t50.5 -66.5q0 -20 -17 -27q-6 -3 -15.5 -3t-18.5 6t-19.5 16t-18 15.5t-20.5 13.5q-25 14 -63 14
q-74 0 -123.5 -57.5t-65.5 -155.5z" />
    <glyph glyph-name="trademark" unicode="&#x2122;" horiz-adv-x="865" 
d="M108 754l103 -3l97 4q20 0 31.5 -8.5t11.5 -21.5q0 -30 -43 -30l-67 2q-3 -69 -3 -150l3 -174q0 -38 -30 -38t-30 38l3 174q0 115 -3 151l-73 -3q-41 0 -41 29.5t41 29.5zM410 545v83l-1 89q0 16 9 27t24 11q34 0 52.5 -38t101.5 -225q21 40 57.5 130.5t51.5 111t32 21
t26.5 -10.5t9.5 -34t-1 -82v-83q1 -58 2 -173q0 -37 -29 -37q-31 0 -31 38l3 172q0 85 -1 104l-99 -230q-7 -17 -22 -17t-24 19q0 3 -44 98.5t-61 129.5q-1 -19 -1 -104l3 -172q0 -38 -31 -38q-29 0 -29 38z" />
    <glyph glyph-name="arrowleft" unicode="&#x2190;" horiz-adv-x="814" 
d="M122 379h283l329 5q22 0 36.5 -10.5t14.5 -27.5t-14.5 -27.5t-36.5 -10.5l-329 5h-283l81 -68q34 -29 74.5 -62.5t54 -47t13.5 -33t-21 -28.5q-6 -2 -18 -2t-33 16q-50 45 -95 90t-92 87l-46 42q-20 19 -20 39t20 39l46 41q37 33 87 83t100 95q21 16 33 16q39 0 39 -35
q0 -17 -21 -37q-7 -6 -24 -20z" />
    <glyph glyph-name="arrowup" unicode="&#x2191;" horiz-adv-x="574" 
d="M259 4q-10 14 -10 37t2.5 86t2.5 243v283l-110 -131q-53 -64 -67 -78t-33.5 -14t-27.5 22q-3 6 -3 18t16 32q45 50 90 95t87 92l42 46q20 19 39 19l39 -19l41 -46q33 -37 83 -87t95 -100q16 -20 16 -32q0 -40 -35 -40q-17 0 -36 21q-7 7 -21 24l-149 178v-283
q0 -143 2.5 -232.5t2.5 -103.5t-10.5 -29t-27.5 -15t-28 14z" />
    <glyph glyph-name="arrowright" unicode="&#x2192;" horiz-adv-x="814" 
d="M80 384l329 -5h283l-81 68q-34 29 -74.5 62.5t-54 47t-13.5 33t21 28.5q6 2 18 2t33 -16q50 -45 100 -95t87 -83l46 -41q20 -19 20 -39t-20 -39l-46 -42q-28 -25 -92.5 -88t-94.5 -89q-21 -16 -33 -16q-39 0 -39 35q0 17 21 37q7 6 24 20l178 149h-283l-329 -5
q-22 0 -36.5 10.5t-14.5 27.5t14.5 27.5t36.5 10.5z" />
    <glyph glyph-name="arrowdown" unicode="&#x2193;" horiz-adv-x="574" 
d="M251 619l-2 92q0 16 10.5 30t27.5 14t27.5 -14.5t10.5 -37t-2.5 -85.5t-2.5 -243v-283l110 130q51 63 66 78t34.5 15t27.5 -21q3 -6 3 -18t-16 -33q-45 -50 -95 -100t-83 -87l-41 -46q-20 -20 -39 -20l-39 20l-42 46q-25 28 -88 92.5t-89 94.5q-16 21 -16 33q0 39 35 39
q17 0 36 -21q7 -7 21 -24l149 -178v283q0 167 -3 244z" />
    <glyph glyph-name="minus" unicode="&#x2212;" horiz-adv-x="632" 
d="M114 294l202 -3l197 3h5q21 0 28.5 -12t7.5 -21t-7.5 -21t-28.5 -12h-5l-197 3l-197 -3h-5q-21 0 -28.5 12t-7.5 21t7.5 21t28.5 12z" />
    <glyph glyph-name="approxequal" unicode="&#x2248;" horiz-adv-x="594" 
d="M78 304q0 33 43 61q43 30 93 30t105.5 -29.5t79 -29.5t35.5 9t24 19q23 22 32 22q23 0 23 -26t-36 -56t-74.5 -30t-92 29t-83 29t-59.5 -29q-32 -32 -53 -32t-29 10t-8 23zM81 150q0 33 43 61q44 30 93 30t105 -29.5t79 -29.5t35.5 9t23.5 19q24 22 33 22q23 0 23 -26
t-36 -56t-74.5 -30t-92 29t-83 29t-58.5 -29q-33 -32 -54 -32t-29 10t-8 23z" />
    <glyph glyph-name="notequal" unicode="&#x2260;" horiz-adv-x="558" 
d="M460 300l-114 2l-58 -83l168 3h5q21 0 28.5 -12t7.5 -21t-7.5 -21t-28.5 -12h-5l-208 3l-59 -93q-14 -23 -32.5 -23t-26.5 9.5t-8 22.5t11 29l41 53l-72 -1q-18 0 -29.5 9t-11.5 24q0 33 48 33q25 0 106 -3l56 84l-169 -3h-5q-21 0 -28.5 12t-7.5 21t7.5 21t28.5 12h5
l208 -3l57 89q18 21 35 21q5 0 10 -2q21 -8 21 -26.5t-6 -27.5l-40 -53l73 2q15 0 26 -9.5t11 -24t-11.5 -23.5t-25.5 -9z" />
    <glyph glyph-name="lessequal" unicode="&#x2264;" horiz-adv-x="563" 
d="M278 60l177 3h5q21 0 28.5 -12t7.5 -21t-7.5 -21t-28.5 -12h-5l-177 3l-177 -3h-5q-21 0 -28.5 12t-7.5 21t7.5 21t28.5 12h5zM219 462l147 75q66 34 78.5 35.5t21 1.5t18 -10t9.5 -26.5t-15 -28t-62 -29.5l-79 -36q-23 -12 -46 -21q-63 -29 -93 -45t-30 -24t13 -15
l43 -24q17 -7 52.5 -24t85.5 -39q60 -24 95 -42.5t35 -38.5q-4 -30 -31 -30q-20 0 -39 10q-45 23 -102 50l-110 53q-26 13 -68.5 33t-61.5 36t-19 32.5t18 30.5t41 26.5t99 49.5z" />
    <glyph glyph-name="greaterequal" unicode="&#x2265;" horiz-adv-x="563" 
d="M285 60l177 3h5q21 0 28.5 -12t7.5 -21t-7.5 -21t-28.5 -12h-5l-177 3l-177 -3h-5q-21 0 -28.5 12t-7.5 21t7.5 21t28.5 12h5zM189.5 175q-28.5 -14 -48 -23t-38.5 -9t-24 7t-8 21t13 25.5t35 20t20.5 9t3.5 1.5l57 25q21 9 41 18q39 19 50 23q33 13 87 44q17 9 17 17
q0 14 -165 88q-31 16 -83 37q-55 26 -67 36q-10 10 -10 24.5t9 24.5q10 10 20.5 10t17.5 -1q15 -2 79 -36l148 -75q76 -37 99 -49.5t41 -26.5t18 -31q0 -30 -68 -62q-9 -4 -22.5 -10.5l-27 -13t-31.5 -15.5l-110 -53q-25 -12 -53.5 -26z" />
    <glyph glyph-name="Th" unicode="&#xe062;" horiz-adv-x="1013" 
d="M75 755l192 -5l291 6q23 0 37 -10.5t14 -27t-2.5 -146.5t-2.5 -190q70 127 180 127q80 0 124 -57.5t44 -137.5l-5 -157v-43q2 -41 20 -49q7 -2 16 -3.5t12.5 -3.5t3.5 -8q0 -26 -16.5 -43.5t-38.5 -17.5q-38 0 -52.5 28t-14 89.5t3.5 184.5q0 68 -30 110t-80.5 42
t-99 -57.5t-66.5 -128.5l3 -217q0 -51 -38 -51q-46 0 -46 68.5t20 199.5q0 104 -5 244q-6 168 -6 177l-225 5q-5 -250 -5 -311l5 -331v-7q0 -26 -19 -38q-11 -6 -22 -6l-22 6q-19 12 -19 38v7l5 331q0 62 -5 312l-151 -5q-48 0 -48 38t48 38z" />
    <glyph glyph-name="f_b" unicode="&#xe092;" horiz-adv-x="889" 
d="M58 502l50 -1v84q0 93 59 134q61 41 147 41t146 -29q28 -16 28 -58q0 -19 -2.5 -95.5t-2.5 -183.5q27 52 73 84t104.5 32t101.5 -40q80 -74 80 -209q0 -109 -63 -190t-162 -81q-75 0 -130 51q0 -51 -38 -51q-46 0 -46 69t20 198q0 104 -5 244q-6 168 -6 177
q-49 15 -95 15q-142 0 -142 -117v-76l97 2q16 0 27 -8.5t11 -23.5q0 -30 -38 -30l-97 2v-67q0 -137 3 -232t3 -110t-10.5 -29t-28.5 -14t-28.5 13.5t-10.5 37.5t3 118t3 216v66l-51 -1q-38 0 -38 30q0 15 11 23.5t27 8.5zM481 267l5 -154q59 -58 125 -58t113 59t47 142.5
t-31 136t-86 52.5t-101.5 -49t-71.5 -129z" />
    <glyph glyph-name="f_f_b" unicode="&#xe093;" horiz-adv-x="1198" 
d="M419 375v65l-89 1q-15 0 -156 -3v-63q0 -137 3 -232t3 -102q0 -51 -38.5 -51t-38.5 51q0 24 2.5 88t2.5 246v61h-40q-48 0 -48 33q0 35 48 35q28 0 39 -1v82q0 88 34.5 131.5t83.5 43.5t81.5 -18t32.5 -40q0 -33 -28 -33q-13 0 -35 12t-40 12q-62 0 -62 -117v-75
q88 -2 146 -2t97 1v89q0 90 59 130.5t146 40.5t147 -29q28 -16 28 -58q0 -19 -2.5 -69t-2.5 -210q27 52 73 84t104 32t101 -40q81 -73 81 -209q0 -109 -63 -190t-162 -81q-74 0 -130 51q0 -51 -38 -51q-46 0 -46 69t20 198q0 104 -5 244q-6 168 -6 177q-49 15 -95 15
q-142 0 -142 -117v-76l85 5q51 0 51 -36q0 -34 -51 -34q-27 0 -84 3v-63q0 -137 3 -232t3 -102q0 -51 -38 -51q-18 0 -28.5 14t-10.5 37zM790 267l5 -154q59 -58 125 -58t113 59t47 142.5t-31 136t-86 52.5t-101.5 -49t-71.5 -129z" />
    <glyph glyph-name="f_f_h" unicode="&#xe094;" horiz-adv-x="1224" 
d="M419 375v65l-89 1q-15 0 -156 -3v-63q0 -137 3 -232t3 -102q0 -51 -38.5 -51t-38.5 51q0 24 2.5 88t2.5 246v61h-40q-48 0 -48 33q0 35 48 35q28 0 39 -1v82q0 88 34.5 131.5t83.5 43.5t81.5 -18t32.5 -40q0 -33 -28 -33q-13 0 -35 12t-40 12q-62 0 -62 -117v-75
q88 -2 146 -2t97 1v89q0 90 59 130.5t146 40.5t147 -29q28 -16 28 -58q0 -20 -2.5 -74t-2.5 -217q73 127 180 127q80 0 124 -57.5t44 -137.5l-5 -157v-43q2 -41 20 -49q7 -2 16 -3.5t12.5 -3.5t3.5 -8q0 -26 -16.5 -43.5t-38.5 -17.5q-37 0 -52 29t-15 89l4 184
q0 69 -29.5 110.5t-80.5 41.5t-98.5 -56.5t-67.5 -129.5l3 -217q0 -51 -38 -51q-46 0 -46 68.5t20 199.5q0 104 -5 244q-6 168 -6 177q-49 15 -95 15q-142 0 -142 -117v-76l85 5q51 0 51 -36q0 -34 -51 -34q-27 0 -84 3v-63q0 -137 3 -232t3 -102q0 -51 -38 -51
q-18 0 -28.5 14t-10.5 37z" />
    <glyph glyph-name="f_f_j" unicode="&#xe095;" horiz-adv-x="864" 
d="M750 619q-44 0 -44 51q0 24 14.5 41t35.5 17q41 0 41 -48q0 -23 -13 -42t-34 -19zM485 500h21l245 6q39 0 39 -49l-5 -230l-1 -220q0 -86 -44 -142.5t-80 -56.5q-27 0 -27 19q0 14 43 56q18 17 31 53t13 81l-1 210q0 8 -5 213q-66 4 -124 4t-106 -2v-67q0 -137 3 -232
t3 -110.5t-11 -29t-28 -13.5q-37 0 -37 51l5 334v65l-89 1q-15 0 -156 -3v-63q0 -137 3 -232t3 -102q0 -51 -38.5 -51t-38.5 51q0 24 2.5 88t2.5 246v61h-40q-48 0 -48 33q0 35 48 35q28 0 39 -1v82q0 88 34.5 131.5t83.5 43.5t81.5 -18t32.5 -40q0 -33 -28 -33
q-13 0 -35 12t-40 12q-62 0 -62 -117v-75q83 -2 142.5 -2t101.5 1v85q0 88 34.5 131.5t83.5 43.5t81.5 -18t32.5 -40q0 -33 -28 -33q-14 0 -36 12t-39 12q-62 0 -62 -117v-76z" />
    <glyph glyph-name="f_f_k" unicode="&#xe096;" horiz-adv-x="1158" 
d="M419 375v65l-89 1q-15 0 -156 -3v-63q0 -137 3 -232t3 -102q0 -51 -38.5 -51t-38.5 51q0 24 2.5 88t2.5 246v61h-40q-48 0 -48 33q0 35 48 35q28 0 39 -1v82q0 88 34.5 131.5t83.5 43.5t81.5 -18t32.5 -40q0 -33 -28 -33q-13 0 -35 12t-40 12q-62 0 -62 -117v-75
q88 -2 146 -2t97 1v89q0 90 59 130.5t146.5 40.5t147.5 -29q28 -16 28 -58q0 -20 -2 -92.5t-2 -197.5q73 127 180 127q57 0 92.5 -33.5t35.5 -83.5q0 -82 -85 -140l-49 -32l74 -114q13 -21 29.5 -32t28 -12.5t18.5 -3.5t6 -8q0 -24 -15 -42.5t-36 -18.5h-16q-25 0 -62 61
q-1 3 -2.5 5t-36.5 58.5t-55 84.5q-26 0 -43 14t-17 40t29 38q8 3 16 3q23 0 49 -25q38 17 67.5 52t29.5 63q0 60 -62 60q-56 0 -106 -56t-69 -130l3 -217q0 -51 -38 -51q-46 0 -46 68.5t20 199.5q0 88 -6 252t-6 168q-50 15 -96 15q-142 0 -142 -117v-76l85 5q51 0 51 -36
q0 -34 -51 -34q-27 0 -84 3v-63q0 -137 3 -232t3 -102q0 -51 -38 -51q-18 0 -28.5 14t-10.5 37z" />
    <glyph glyph-name="fh" unicode="&#xe098;" horiz-adv-x="915" 
d="M484 257l3 -217q0 -51 -38 -51q-46 0 -46 68.5t20 199.5q0 104 -5 244q-6 168 -6 177q-49 15 -95 15q-142 0 -142 -117v-76l97 2q16 0 27 -8.5t11 -23.5q0 -30 -38 -30l-97 2v-67q0 -137 3 -232t3 -110t-10.5 -29t-28.5 -14t-28.5 13.5t-10.5 37.5t3 118t3 216v66l-51 -1
q-38 0 -38 30q0 15 11 23.5t27 8.5l50 -1v84q0 93 59 134q61 41 147 41t146 -29q28 -16 28 -58q0 -20 -2.5 -103.5t-2.5 -187.5q73 127 180 127q81 0 124.5 -57.5t43.5 -137.5l-5 -157v-43q2 -41 20 -49q7 -2 16 -3.5t12.5 -3.5t3.5 -8q0 -26 -16.5 -43.5t-38.5 -17.5
q-37 0 -52 29t-15 89l4 184q0 69 -29.5 110.5t-80.5 41.5t-98.5 -56.5t-67.5 -129.5z" />
    <glyph glyph-name="f_j" unicode="&#xe09a;" horiz-adv-x="555" 
d="M441 619q-44 0 -44 51q0 24 14.5 41t35.5 17q41 0 41 -48q0 -23 -13 -42t-34 -19zM411 17l-1 210q0 8 -5 213q-67 4 -124.5 4t-105.5 -2v-67q0 -137 3 -232t3 -110t-10.5 -29t-28.5 -14t-28.5 13.5t-10.5 37.5t3 118t3 216v67l-51 -2q-38 0 -38 30q0 15 11 23.5t27 8.5
l50 -2v85q0 88 34.5 131.5t83.5 43.5t81.5 -18t32.5 -40q0 -33 -28 -33q-14 0 -36 12t-39 12q-62 0 -62 -117v-76h22l245 6q39 0 39 -49l-5 -230l-1 -220q0 -86 -43.5 -142.5t-80.5 -56.5q-27 0 -27 19q0 14 44 56q17 17 30 53.5t13 80.5z" />
    <glyph glyph-name="f_k" unicode="&#xe09b;" horiz-adv-x="848" 
d="M485 258l3 -217q0 -51 -38 -51q-46 0 -46 68.5t20 199.5q0 88 -6 252t-6 168q-49 15 -95 15q-142 0 -142 -117v-76l97 2q16 0 27 -8.5t11 -23.5q0 -30 -38 -30l-97 2v-67q0 -137 3 -232t3 -110t-10.5 -29t-28.5 -14t-28.5 13.5t-10.5 37.5t3 118t3 216v66l-51 -1
q-38 0 -38 30q0 15 11 23.5t27 8.5l50 -1v84q0 93 59 134q61 41 147 41t146 -29q28 -16 28 -58q0 -20 -2 -92.5t-2 -197.5q73 127 180 127q57 0 92.5 -33.5t35.5 -83.5q0 -82 -85 -140l-49 -32l74 -114q13 -21 29.5 -32t28 -12.5t18.5 -3.5t6 -8q0 -24 -15 -42.5t-36 -18.5
h-16q-25 0 -62 61q-1 3 -2.5 5t-36.5 58.5t-55 84.5q-26 0 -43 14t-17 40t29 38q8 3 16 3q23 0 49 -25q38 17 67.5 52t29.5 63q0 60 -62 60q-56 0 -106 -56t-69 -130z" />
    <glyph glyph-name="f_f_l" unicode="&#xe0b0;" horiz-adv-x="871" 
d="M720 41l2 55q4 125 4 279l-5 303q-49 15 -95 15q-142 0 -142 -117v-76l85 5q51 0 51 -36q0 -34 -51 -34q-27 0 -84 3v-63q0 -137 3 -232t3 -102q0 -51 -38 -51q-18 0 -28.5 14t-10.5 37l5 334v65l-89 1q-15 0 -156 -3v-63q0 -137 3 -232t3 -102q0 -51 -38.5 -51t-38.5 51
q0 24 2.5 88t2.5 246v61h-40q-48 0 -48 33q0 35 48 35q28 0 39 -1v82q0 88 34.5 131.5t83.5 43.5t81.5 -18t32.5 -40q0 -33 -28 -33q-13 0 -35 12t-40 12q-62 0 -62 -117v-75q88 -2 146 -2t97 1v89q0 90 59 130.5t146 40.5t147 -29q28 -16 28 -58q0 -21 -2.5 -77.5
t-2.5 -191t3 -244t3 -119.5q0 -51 -39 -51t-39 51z" />
    <glyph glyph-name="commaaccent" unicode="&#xf6c3;" horiz-adv-x="214" 
d="M160 -99q0 -43 -38.5 -89.5t-63.5 -46.5q-10 0 -16.5 6t-6.5 12.5t4.5 15t12.5 22.5q16 30 23.5 62.5t18 47.5t22.5 15t21 -4q24 -11 24 -34q0 -3 -1 -7z" />
    <glyph glyph-name="f_i" unicode="&#xfb01;" horiz-adv-x="555" 
d="M441 619q-44 0 -44 51q0 24 14.5 41t35.5 17q41 0 41 -48q0 -23 -13 -42t-34 -19zM58 502l50 -2v85q0 88 34.5 131.5t83.5 43.5t81.5 -18t32.5 -40q0 -33 -28 -33q-14 0 -36 12t-39 12q-62 0 -62 -117v-76h22l245 6q39 0 39 -48l-5 -208l6 -209v-6q0 -33 -27 -42
q-8 -3 -20 -3t-21.5 13.5t-9.5 23.5v14l6 209q0 9 -2 72.5t-3 117.5q-67 4 -124.5 4t-105.5 -2v-67q0 -137 3 -232t3 -110t-10.5 -29t-28.5 -14t-28.5 13.5t-10.5 37.5t3 118t3 216v67l-51 -2q-38 0 -38 30q0 15 11 23.5t27 8.5z" />
    <glyph glyph-name="f_l" unicode="&#xfb02;" horiz-adv-x="562" 
d="M488 673l-5 -298q0 -137 3 -232t3 -102q0 -51 -39 -51t-39 51q0 24 3 118t3 216l-5 303q-49 15 -95 15q-142 0 -142 -117v-76l97 2q16 0 27 -8.5t11 -23.5q0 -30 -35 -29.5t-100 1.5v-67q0 -137 3 -232t3 -110t-10.5 -29t-28.5 -14t-28.5 13.5t-10.5 37.5t3 118t3 216v66
l-51 -1q-38 0 -38 30q0 15 11 23.5t27 8.5l50 -1v84q0 93 59 134q61 41 147 41t146 -29q28 -16 28 -58z" />
    <glyph glyph-name="f_f_i" unicode="&#xfb03;" horiz-adv-x="864" 
d="M750 619q-44 0 -44 51q0 24 14.5 41t35.5 17q41 0 41 -48q0 -23 -13 -42t-34 -19zM485 500h21l245 6q39 0 39 -48l-5 -208l6 -209v-6q0 -33 -27 -42q-8 -3 -20 -3t-21.5 13.5t-9.5 23.5v14l6 209q0 9 -2 72.5t-3 117.5q-66 4 -124 4t-106 -2v-67q0 -137 3 -232t3 -110.5
t-11 -29t-28 -13.5q-37 0 -37 51l5 334v65l-89 1q-15 0 -156 -3v-63q0 -137 3 -232t3 -102q0 -51 -38.5 -51t-38.5 51q0 24 2.5 88t2.5 246v61h-40q-48 0 -48 33q0 35 48 35q28 0 39 -1v82q0 88 34.5 131.5t83.5 43.5t81.5 -18t32.5 -40q0 -33 -28 -33q-13 0 -35 12t-40 12
q-62 0 -62 -117v-75q83 -2 142.5 -2t101.5 1v85q0 88 34.5 131.5t83.5 43.5t81.5 -18t32.5 -40q0 -33 -28 -33q-14 0 -36 12t-39 12q-62 0 -62 -117v-76z" />
    <glyph glyph-name="NULL" horiz-adv-x="0" 
 />
    <glyph glyph-name="CR" horiz-adv-x="333" 
 />
    <glyph glyph-name="CR.001" horiz-adv-x="270" 
 />
    <glyph glyph-name=".notdef.001" horiz-adv-x="1000" 
 />
    </font>
</defs>
</svg>
