<?xml version="1.0" standalone="no"?>
<!DOCTYPE svg PUBLIC "-//W3C//DTD SVG 1.1//EN" "http://www.w3.org/Graphics/SVG/1.1/DTD/svg11.dtd" >
<svg xmlns="http://www.w3.org/2000/svg" xmlns:xlink="http://www.w3.org/1999/xlink" version="1.1">
<metadata>
Created by FontForge 20170924 at Tue Jul 14 11:00:22 2015
 By Glenn,,,
Copyright (c) 2015 by Hubert &#38; Fischer. All rights reserved.
</metadata>
<defs>
<font id="Rubik-Bold" horiz-adv-x="718" >
  <font-face 
    font-family="Rubik"
    font-weight="700"
    font-stretch="normal"
    units-per-em="1000"
    panose-1="2 0 6 4 0 0 0 2 0 4"
    ascent="800"
    descent="-200"
    x-height="520"
    cap-height="700"
    bbox="-231 -250 1226 935"
    underline-thickness="50"
    underline-position="-100"
    unicode-range="U+000D-FB4A"
  />
<missing-glyph horiz-adv-x="290" 
 />
    <glyph glyph-name="f_f" unicode="ff" horiz-adv-x="833" 
d="M669 520h123q11 0 19 -8t8 -19v-101q0 -11 -8 -19t-19 -8h-123v-338q0 -11 -8 -19t-19 -8h-126q-11 0 -19 8t-8 19v338h-192v-338q0 -11 -8 -19t-19 -8h-126q-11 0 -19 8t-8 19v338h-69q-11 0 -19 8t-8 19v101q0 11 8 19t19 8h69v27q0 46 16.5 82t45.5 60.5t69 37.5
t87 13h95q11 0 19 -8t8 -19v-101q0 -11 -8 -19t-19 -8h-90q-24 0 -33.5 -12t-9.5 -31v-22h192v27q0 46 16.5 82t45.5 60.5t69 37.5t87 13h95q11 0 19 -8t8 -19v-101q0 -11 -8 -19t-19 -8h-90q-24 0 -33.5 -12t-9.5 -31v-22z" />
    <glyph glyph-name="f_f_i" unicode="ffi" horiz-adv-x="1087" 
d="M1029 27q0 -11 -8 -19t-19 -8h-126q-11 0 -19 8t-8 19v338h-180v-338q0 -11 -8 -19t-19 -8h-126q-11 0 -19 8t-8 19v338h-192v-338q0 -11 -8 -19t-19 -8h-126q-11 0 -19 8t-8 19v338h-69q-11 0 -19 8t-8 19v101q0 11 8 19t19 8h69v27q0 46 16.5 82t45.5 60.5t69 37.5
t87 13h95q11 0 19 -8t8 -19v-101q0 -11 -8 -19t-19 -8h-90q-24 0 -33.5 -12t-9.5 -31v-22h192v27q0 46 16.5 82t45.5 60.5t69 37.5t87 13h295q11 0 19 -8t8 -19v-101q0 -11 -8 -19t-19 -8h-290q-24 0 -33.5 -12t-9.5 -31v-22h333q11 0 19 -8t8 -19v-466z" />
    <glyph glyph-name="f_f_l" unicode="ffl" horiz-adv-x="1099" 
d="M1041 27q0 -11 -8 -19t-19 -8h-126q-11 0 -19 8t-8 19v338h-192v-338q0 -11 -8 -19t-19 -8h-126q-11 0 -19 8t-8 19v338h-192v-338q0 -11 -8 -19t-19 -8h-126q-11 0 -19 8t-8 19v338h-69q-11 0 -19 8t-8 19v101q0 11 8 19t19 8h69v27q0 46 16.5 82t45.5 60.5t69 37.5
t87 13h95q11 0 19 -8t8 -19v-101q0 -11 -8 -19t-19 -8h-90q-24 0 -33.5 -12t-9.5 -31v-22h192v27q0 46 16.5 82t45.5 60.5t69 37.5t87 13h95q11 0 19 -8t8 -19v-101q0 -11 -8 -19t-19 -8h-90q-24 0 -33.5 -12t-9.5 -31v-22h192v193q0 11 8 19t19 8h126q11 0 19 -8t8 -19
v-686z" />
    <glyph glyph-name="fi" unicode="fi" horiz-adv-x="715" 
d="M657 27q0 -11 -8 -19t-19 -8h-126q-11 0 -19 8t-8 19v338h-180v-338q0 -11 -8 -19t-19 -8h-126q-11 0 -19 8t-8 19v338h-69q-11 0 -19 8t-8 19v101q0 11 8 19t19 8h69v27q0 46 16.5 82t45.5 60.5t69 37.5t87 13h295q11 0 19 -8t8 -19v-101q0 -11 -8 -19t-19 -8h-290
q-24 0 -33.5 -12t-9.5 -31v-22h333q11 0 19 -8t8 -19v-466z" />
    <glyph glyph-name="fl" unicode="fl" horiz-adv-x="727" 
d="M669 27q0 -11 -8 -19t-19 -8h-126q-11 0 -19 8t-8 19v338h-192v-338q0 -11 -8 -19t-19 -8h-126q-11 0 -19 8t-8 19v338h-69q-11 0 -19 8t-8 19v101q0 11 8 19t19 8h69v27q0 46 16.5 82t45.5 60.5t69 37.5t87 13h95q11 0 19 -8t8 -19v-101q0 -11 -8 -19t-19 -8h-90
q-24 0 -33.5 -12t-9.5 -31v-22h192v193q0 11 8 19t19 8h126q11 0 19 -8t8 -19v-686z" />
    <glyph glyph-name=".notdef" horiz-adv-x="290" 
 />
    <glyph glyph-name=".null" horiz-adv-x="0" 
 />
    <glyph glyph-name=".null" horiz-adv-x="0" 
 />
    <glyph glyph-name="nonmarkingreturn" unicode="&#xd;" horiz-adv-x="290" 
 />
    <glyph glyph-name="space" unicode=" " horiz-adv-x="212" 
 />
    <glyph glyph-name="cedilla" unicode="&#xb8;" horiz-adv-x="292" 
d="M163 27l-39 -81q6 4 16 7t21 3q38 0 57 -26t19 -62t-27 -62t-72 -26q-16 0 -33.5 5t-30 13t-17.5 16.5t4 16.5l18 16q8 7 13.5 7t11 -3t13.5 -6.5t21 -3.5q14 0 23.5 6t9.5 21q0 14 -9 20.5t-24 6.5q-7 0 -14.5 -2t-14.5 -3.5t-13.5 -1t-11.5 5.5l-18 21q-6 8 -7.5 13.5
t5.5 19.5l38 79h61z" />
    <glyph glyph-name="circumflex" unicode="&#x2c6;" horiz-adv-x="486" 
d="M287 755q11 0 19 -4t18 -15l102 -112q5 -5 5 -13q0 -16 -16 -16h-67q-10 0 -16 3t-15 8l-74 43l-74 -43q-9 -5 -15 -8t-16 -3h-67q-16 0 -16 16q0 8 5 13l102 112q10 11 18 15t19 4h88z" />
    <glyph glyph-name="commaaccent" unicode="&#xf6c3;" horiz-adv-x="320" 
d="M81 -89q2 14 12.5 26.5t30.5 12.5h115q9 0 15.5 -6.5t6.5 -15.5q0 -4 -1 -7l-55 -139q-4 -10 -13.5 -21t-29.5 -11h-81q-9 0 -15.5 6.5t-6.5 15.5v2z" />
    <glyph glyph-name="dieresis" unicode="&#xa8;" horiz-adv-x="490" 
d="M210 622q0 -11 -8 -19t-19 -8h-101q-11 0 -19 8t-8 19v101q0 11 8 19t19 8h101q11 0 19 -8t8 -19v-101zM435 622q0 -11 -8 -19t-19 -8h-101q-11 0 -19 8t-8 19v101q0 11 8 19t19 8h101q11 0 19 -8t8 -19v-101z" />
    <glyph glyph-name="dotaccent" unicode="&#x2d9;" horiz-adv-x="295" 
d="M220 622q0 -11 -8 -19t-19 -8h-111q-11 0 -19 8t-8 19v111q0 11 8 19t19 8h111q11 0 19 -8t8 -19v-111z" />
    <glyph glyph-name="hungarumlaut" unicode="&#x2dd;" horiz-adv-x="554" 
d="M110 736q5 10 13 14.5t24 4.5h112q20 0 20 -19q0 -7 -6 -13l-105 -114q-12 -14 -34 -14h-63q-16 0 -16 16q0 4 1.5 8t3.5 7zM330 736q5 10 13 14.5t24 4.5h112q20 0 20 -19q0 -7 -6 -13l-105 -114q-12 -14 -34 -14h-63q-16 0 -16 16q0 4 1.5 8t3.5 7z" />
    <glyph glyph-name="grave" unicode="`" horiz-adv-x="396" 
d="M336 624q5 -5 5 -13q0 -16 -16 -16h-88q-16 0 -25 5t-17 12l-135 111q-5 5 -5 12q0 20 19 20h133q11 0 18.5 -3t18.5 -16z" />
    <glyph glyph-name="macron" unicode="&#xaf;" horiz-adv-x="453" 
d="M82 595q-11 0 -19 8t-8 19v86q0 11 8 19t19 8h289q11 0 19 -8t8 -19v-86q0 -11 -8 -19t-19 -8h-289z" />
    <glyph glyph-name="ogonek" unicode="&#x2db;" horiz-adv-x="313" 
d="M217 -220q-38 0 -68 12.5t-51 34t-32 51.5t-11 66t11 66t32 51.5t51 34t68 12.5h19q22 0 22 -22v-64q0 -22 -22 -22h-15q-26 0 -40 -16.5t-14 -39.5t14 -39.5t40 -16.5h15q22 0 22 -22v-64q0 -22 -22 -22h-19z" />
    <glyph glyph-name="ring" unicode="&#x2da;" horiz-adv-x="300" 
d="M120 680q0 -13 8.5 -21.5t21.5 -8.5t21.5 8.5t8.5 21.5t-8.5 21.5t-21.5 8.5t-21.5 -8.5t-8.5 -21.5zM55 680q0 39 28 64.5t67 25.5t67 -25.5t28 -64.5t-28 -64.5t-67 -25.5t-67 25.5t-28 64.5z" />
    <glyph glyph-name="tilde" unicode="&#x2dc;" horiz-adv-x="498" 
d="M331 590q-30 0 -48 7t-31.5 15.5t-25 15.5t-27.5 7q-12 0 -18 -6.5t-10.5 -14t-8.5 -13.5t-12 -6h-76q-9 0 -14 5.5t-5 13.5q0 22 6.5 46.5t20.5 44t35 32.5t50 13q30 0 48 -7t31.5 -15.5t25 -15.5t27.5 -7q12 0 18 6t10.5 13.5t8.5 14t12 6.5h76q9 0 14 -5.5t5 -13.5
q0 -23 -8 -47t-23 -43.5t-35.5 -32.5t-45.5 -13z" />
    <glyph glyph-name="Acute" unicode="&#xf6c9;" horiz-adv-x="406" 
d="M152 891q11 13 18.5 16t18.5 3h143q19 0 19 -20q0 -7 -5 -12l-135 -111q-8 -7 -17 -12t-25 -5h-98q-16 0 -16 16q0 8 5 13z" />
    <glyph glyph-name="Breve" horiz-adv-x="448" 
d="M224 745q-46 0 -78 13.5t-52.5 35t-29.5 47.5t-9 50q0 8 5 13.5t14 5.5h84q9 0 14 -5.5t5 -13.5q0 -19 12 -34.5t35 -15.5t35 15.5t12 34.5q0 8 5 13.5t14 5.5h84q9 0 14 -5.5t5 -13.5q0 -24 -9 -50t-29.5 -47.5t-52.5 -35t-78 -13.5z" />
    <glyph glyph-name="Caron" unicode="&#xf6ca;" horiz-adv-x="496" 
d="M199 750q-11 0 -19 4t-18 15l-102 112q-5 5 -5 13q0 16 16 16h72q10 0 16 -3t15 -8l74 -43l74 43q9 5 15 8t16 3h72q16 0 16 -16q0 -8 -5 -13l-102 -112q-10 -11 -18 -15t-19 -4h-98z" />
    <glyph glyph-name="Cedilla" horiz-adv-x="292" 
d="M163 27l-39 -81q6 4 16 7t21 3q38 0 57 -26t19 -62t-27 -62t-72 -26q-16 0 -33.5 5t-30 13t-17.5 16.5t4 16.5l18 16q8 7 13.5 7t11 -3t13.5 -6.5t21 -3.5q14 0 23.5 6t9.5 21q0 14 -9 20.5t-24 6.5q-7 0 -14.5 -2t-14.5 -3.5t-13.5 -1t-11.5 5.5l-18 21q-6 8 -7.5 13.5
t5.5 19.5l38 79h61z" />
    <glyph glyph-name="Circumflex" horiz-adv-x="496" 
d="M297 910q11 0 19 -4t18 -15l102 -112q5 -5 5 -13q0 -16 -16 -16h-72q-10 0 -16 3t-15 8l-74 43l-74 -43q-9 -5 -15 -8t-16 -3h-72q-16 0 -16 16q0 8 5 13l102 112q10 11 18 15t19 4h98z" />
    <glyph glyph-name="commaaccent.cap" horiz-adv-x="314" 
d="M77 -89q2 14 12.5 26.5t30.5 12.5h123q9 0 15.5 -6.5t6.5 -15.5q0 -4 -1 -7l-55 -139q-4 -10 -13.5 -21t-29.5 -11h-89q-9 0 -15.5 6.5t-6.5 15.5v2z" />
    <glyph glyph-name="Dieresis" unicode="&#xf6cb;" horiz-adv-x="520" 
d="M210 777q0 -11 -8 -19t-19 -8h-101q-11 0 -19 8t-8 19v101q0 11 8 19t19 8h101q11 0 19 -8t8 -19v-101zM465 777q0 -11 -8 -19t-19 -8h-101q-11 0 -19 8t-8 19v101q0 11 8 19t19 8h101q11 0 19 -8t8 -19v-101z" />
    <glyph glyph-name="Dotaccent" horiz-adv-x="295" 
d="M230 777q0 -11 -8 -19t-19 -8h-111q-11 0 -19 8t-8 19v111q0 11 8 19t19 8h111q11 0 19 -8t8 -19v-111z" />
    <glyph glyph-name="Hungarumlaut" unicode="&#xf6cf;" horiz-adv-x="575" 
d="M110 891q5 10 13 14.5t24 4.5h122q20 0 20 -19q0 -7 -6 -13l-105 -114q-12 -14 -34 -14h-73q-16 0 -16 16q0 4 1.5 8t3.5 7zM341 891q5 10 13 14.5t24 4.5h122q20 0 20 -19q0 -7 -6 -13l-105 -114q-12 -14 -34 -14h-73q-16 0 -16 16q0 4 1.5 8t3.5 7z" />
    <glyph glyph-name="Grave" unicode="&#xf6ce;" horiz-adv-x="406" 
d="M346 779q5 -5 5 -13q0 -16 -16 -16h-98q-16 0 -25 5t-17 12l-135 111q-5 5 -5 12q0 20 19 20h143q11 0 18.5 -3t18.5 -16z" />
    <glyph glyph-name="Macron" unicode="&#xf6d0;" horiz-adv-x="483" 
d="M82 750q-11 0 -19 8t-8 19v86q0 11 8 19t19 8h319q11 0 19 -8t8 -19v-86q0 -11 -8 -19t-19 -8h-319z" />
    <glyph glyph-name="Ogonek" horiz-adv-x="313" 
d="M217 -220q-38 0 -68 12.5t-51 34t-32 51.5t-11 66t11 66t32 51.5t51 34t68 12.5h19q22 0 22 -22v-64q0 -22 -22 -22h-15q-26 0 -40 -16.5t-14 -39.5t14 -39.5t40 -16.5h15q22 0 22 -22v-64q0 -22 -22 -22h-19z" />
    <glyph glyph-name="Ring" horiz-adv-x="300" 
d="M120 830q0 -13 8.5 -21.5t21.5 -8.5t21.5 8.5t8.5 21.5t-8.5 21.5t-21.5 8.5t-21.5 -8.5t-8.5 -21.5zM55 830q0 39 28 64.5t67 25.5t67 -25.5t28 -64.5t-28 -64.5t-67 -25.5t-67 25.5t-28 64.5z" />
    <glyph glyph-name="Tilde" horiz-adv-x="508" 
d="M341 745q-31 0 -51 7t-35 15.5t-27.5 15.5t-28.5 7q-12 0 -18 -6.5t-10.5 -14t-8.5 -13.5t-12 -6h-76q-9 0 -14 5.5t-5 13.5q0 22 6.5 46.5t20.5 44t35 32.5t50 13q31 0 51 -7t35 -15.5t27.5 -15.5t28.5 -7q12 0 18 6t10.5 13.5t8.5 14t12 6.5h76q9 0 14 -5.5t5 -13.5
q0 -23 -8 -47t-23 -43.5t-35.5 -32.5t-45.5 -13z" />
    <glyph glyph-name="A" unicode="A" 
d="M440 700q20 0 30.5 -11t14.5 -22l218 -630q4 -10 4 -15q0 -9 -6.5 -15.5t-15.5 -6.5h-126q-20 0 -28.5 8.5t-10.5 16.5l-28 83h-266l-28 -83q-2 -8 -10.5 -16.5t-28.5 -8.5h-126q-9 0 -15.5 6.5t-6.5 15.5q0 5 4 15l218 630q4 11 14.5 22t30.5 11h162zM278 263h162
l-81 240z" />
    <glyph glyph-name="Aacute" unicode="&#xc1;" 
d="M440 700q20 0 30.5 -11t14.5 -22l218 -630q4 -10 4 -15q0 -9 -6.5 -15.5t-15.5 -6.5h-126q-20 0 -28.5 8.5t-10.5 16.5l-28 83h-266l-28 -83q-2 -8 -10.5 -16.5t-28.5 -8.5h-126q-9 0 -15.5 6.5t-6.5 15.5q0 5 4 15l218 630q4 11 14.5 22t30.5 11h162zM278 263h162
l-81 240zM377 891q11 13 18.5 16t18.5 3h143q19 0 19 -20q0 -7 -5 -12l-135 -111q-8 -7 -17 -12t-25 -5h-98q-16 0 -16 16q0 8 5 13z" />
    <glyph glyph-name="Abreve" unicode="&#x102;" 
d="M440 700q20 0 30.5 -11t14.5 -22l218 -630q4 -10 4 -15q0 -9 -6.5 -15.5t-15.5 -6.5h-126q-20 0 -28.5 8.5t-10.5 16.5l-28 83h-266l-28 -83q-2 -8 -10.5 -16.5t-28.5 -8.5h-126q-9 0 -15.5 6.5t-6.5 15.5q0 5 4 15l218 630q4 11 14.5 22t30.5 11h162zM278 263h162
l-81 240zM359 745q-46 0 -78 13.5t-52.5 35t-29.5 47.5t-9 50q0 8 5 13.5t14 5.5h84q9 0 14 -5.5t5 -13.5q0 -19 12 -34.5t35 -15.5t35 15.5t12 34.5q0 8 5 13.5t14 5.5h84q9 0 14 -5.5t5 -13.5q0 -24 -9 -50t-29.5 -47.5t-52.5 -35t-78 -13.5z" />
    <glyph glyph-name="Acircumflex" unicode="&#xc2;" 
d="M440 700q20 0 30.5 -11t14.5 -22l218 -630q4 -10 4 -15q0 -9 -6.5 -15.5t-15.5 -6.5h-126q-20 0 -28.5 8.5t-10.5 16.5l-28 83h-266l-28 -83q-2 -8 -10.5 -16.5t-28.5 -8.5h-126q-9 0 -15.5 6.5t-6.5 15.5q0 5 4 15l218 630q4 11 14.5 22t30.5 11h162zM278 263h162
l-81 240zM408 910q11 0 19 -4t18 -15l102 -112q5 -5 5 -13q0 -16 -16 -16h-72q-10 0 -16 3t-15 8l-74 43l-74 -43q-9 -5 -15 -8t-16 -3h-72q-16 0 -16 16q0 8 5 13l102 112q10 11 18 15t19 4h98z" />
    <glyph glyph-name="Agrave" unicode="&#xc0;" 
d="M440 700q20 0 30.5 -11t14.5 -22l218 -630q4 -10 4 -15q0 -9 -6.5 -15.5t-15.5 -6.5h-126q-20 0 -28.5 8.5t-10.5 16.5l-28 83h-266l-28 -83q-2 -8 -10.5 -16.5t-28.5 -8.5h-126q-9 0 -15.5 6.5t-6.5 15.5q0 5 4 15l218 630q4 11 14.5 22t30.5 11h162zM278 263h162
l-81 240zM435 779q5 -5 5 -13q0 -16 -16 -16h-98q-16 0 -25 5t-17 12l-135 111q-5 5 -5 12q0 20 19 20h143q11 0 18.5 -3t18.5 -16z" />
    <glyph glyph-name="Adieresis" unicode="&#xc4;" 
d="M440 700q20 0 30.5 -11t14.5 -22l218 -630q4 -10 4 -15q0 -9 -6.5 -15.5t-15.5 -6.5h-126q-20 0 -28.5 8.5t-10.5 16.5l-28 83h-266l-28 -83q-2 -8 -10.5 -16.5t-28.5 -8.5h-126q-9 0 -15.5 6.5t-6.5 15.5q0 5 4 15l218 630q4 11 14.5 22t30.5 11h162zM278 263h162
l-81 240zM309 777q0 -11 -8 -19t-19 -8h-101q-11 0 -19 8t-8 19v101q0 11 8 19t19 8h101q11 0 19 -8t8 -19v-101zM564 777q0 -11 -8 -19t-19 -8h-101q-11 0 -19 8t-8 19v101q0 11 8 19t19 8h101q11 0 19 -8t8 -19v-101z" />
    <glyph glyph-name="Amacron" unicode="&#x100;" 
d="M440 700q20 0 30.5 -11t14.5 -22l218 -630q4 -10 4 -15q0 -9 -6.5 -15.5t-15.5 -6.5h-126q-20 0 -28.5 8.5t-10.5 16.5l-28 83h-266l-28 -83q-2 -8 -10.5 -16.5t-28.5 -8.5h-126q-9 0 -15.5 6.5t-6.5 15.5q0 5 4 15l218 630q4 11 14.5 22t30.5 11h162zM278 263h162
l-81 240zM200 750q-11 0 -19 8t-8 19v86q0 11 8 19t19 8h319q11 0 19 -8t8 -19v-86q0 -11 -8 -19t-19 -8h-319z" />
    <glyph glyph-name="Aogonek" unicode="&#x104;" 
d="M440 700q20 0 30.5 -11t14.5 -22l218 -630q4 -10 4 -15q0 -9 -6.5 -15.5t-15.5 -6.5h-15q-26 0 -40 -16.5t-14 -39.5t14 -39.5t40 -16.5h15q22 0 22 -22v-64q0 -22 -22 -22h-19q-38 0 -68 12.5t-51 34t-32 51.5t-11 66q0 46 16 79v2l-28 83h-266l-28 -83
q-2 -8 -10.5 -16.5t-28.5 -8.5h-126q-9 0 -15.5 6.5t-6.5 15.5q0 5 4 15l218 630q4 11 14.5 22t30.5 11h162zM278 263h162l-81 240z" />
    <glyph glyph-name="Aring" unicode="&#xc5;" 
d="M440 700q20 0 30.5 -11t14.5 -22l218 -630q4 -10 4 -15q0 -9 -6.5 -15.5t-15.5 -6.5h-126q-20 0 -28.5 8.5t-10.5 16.5l-28 83h-266l-28 -83q-2 -8 -10.5 -16.5t-28.5 -8.5h-126q-9 0 -15.5 6.5t-6.5 15.5q0 5 4 15l218 630q4 11 14.5 22t30.5 11h162zM278 263h162
l-81 240zM329 830q0 -13 8.5 -21.5t21.5 -8.5t21.5 8.5t8.5 21.5t-8.5 21.5t-21.5 8.5t-21.5 -8.5t-8.5 -21.5zM264 830q0 39 28 64.5t67 25.5t67 -25.5t28 -64.5t-28 -64.5t-67 -25.5t-67 25.5t-28 64.5z" />
    <glyph glyph-name="Atilde" unicode="&#xc3;" 
d="M440 700q20 0 30.5 -11t14.5 -22l218 -630q4 -10 4 -15q0 -9 -6.5 -15.5t-15.5 -6.5h-126q-20 0 -28.5 8.5t-10.5 16.5l-28 83h-266l-28 -83q-2 -8 -10.5 -16.5t-28.5 -8.5h-126q-9 0 -15.5 6.5t-6.5 15.5q0 5 4 15l218 630q4 11 14.5 22t30.5 11h162zM278 263h162
l-81 240zM446 745q-31 0 -51 7t-35 15.5t-27.5 15.5t-28.5 7q-12 0 -18 -6.5t-10.5 -14t-8.5 -13.5t-12 -6h-76q-9 0 -14 5.5t-5 13.5q0 22 6.5 46.5t20.5 44t35 32.5t50 13q31 0 51 -7t35 -15.5t27.5 -15.5t28.5 -7q12 0 18 6t10.5 13.5t8.5 14t12 6.5h76q9 0 14 -5.5
t5 -13.5q0 -23 -8 -47t-23 -43.5t-35.5 -32.5t-45.5 -13z" />
    <glyph glyph-name="AE" unicode="&#xc6;" horiz-adv-x="1014" 
d="M934 700q11 0 19 -8t8 -19v-106q0 -11 -8 -19t-19 -8h-308v-108h286q11 0 19 -8t8 -19v-106q0 -11 -8 -19t-19 -8h-286v-112h316q11 0 19 -8t8 -19v-106q0 -11 -8 -19t-19 -8h-474q-11 0 -19 8t-8 19v81h-209l-37 -83q-5 -8 -13.5 -16.5t-25.5 -8.5h-128q-11 0 -19 8
t-8 19q0 5 4 12l281 628q6 11 15.5 22t29.5 11h603zM301 263h140v277h-17z" />
    <glyph glyph-name="AEacute" unicode="&#x1fc;" horiz-adv-x="1014" 
d="M552 891q11 13 18.5 16t18.5 3h143q19 0 19 -20q0 -7 -5 -12l-135 -111q-8 -7 -17 -12t-25 -5h-98q-16 0 -16 16q0 8 5 13zM934 700q11 0 19 -8t8 -19v-106q0 -11 -8 -19t-19 -8h-308v-108h286q11 0 19 -8t8 -19v-106q0 -11 -8 -19t-19 -8h-286v-112h316q11 0 19 -8
t8 -19v-106q0 -11 -8 -19t-19 -8h-474q-11 0 -19 8t-8 19v81h-209l-37 -83q-5 -8 -13.5 -16.5t-25.5 -8.5h-128q-11 0 -19 8t-8 19q0 5 4 12l281 628q6 11 15.5 22t29.5 11h603zM301 263h140v277h-17z" />
    <glyph glyph-name="B" unicode="B" horiz-adv-x="712" 
d="M97 0q-11 0 -19 8t-8 19v646q0 11 8 19t19 8h322q67 0 113 -18.5t73.5 -48t39.5 -67t12 -74.5q0 -29 -6.5 -50.5t-15.5 -37t-18.5 -25t-15.5 -14.5q39 -27 54.5 -62.5t15.5 -85.5q0 -41 -12 -80t-39.5 -69.5t-71.5 -49t-108 -18.5h-343zM471 488q0 26 -15.5 41.5
t-45.5 15.5h-155v-114h155q30 0 45.5 15.5t15.5 41.5zM255 155h165q30 0 48 17.5t18 43.5t-18 43.5t-48 17.5h-165v-122z" />
    <glyph glyph-name="C" unicode="C" horiz-adv-x="702" 
d="M231 434q-1 -13 -1.5 -36t-0.5 -47.5t0.5 -48t1.5 -36.5q2 -23 9 -44t22 -37t38 -25.5t57 -9.5t56 8t36 19.5t21.5 25.5t11.5 26q5 16 11 22.5t23 6.5h131q9 0 15.5 -6.5t6.5 -15.5q-1 -51 -25 -96t-66 -78t-98.5 -52.5t-122.5 -19.5q-72 0 -128.5 21.5t-96.5 58.5
t-61.5 86.5t-24.5 104.5q-2 41 -2 88t2 90q2 55 24 104.5t61.5 86.5t96.5 58.5t129 21.5q66 0 122.5 -19.5t98.5 -52.5t66 -78t25 -96q0 -9 -6.5 -15.5t-15.5 -6.5h-131q-17 0 -23 6.5t-11 22.5q-4 12 -11.5 26t-21.5 25.5t-36 19.5t-56 8t-57 -9.5t-38 -25.5t-22 -37
t-9 -44z" />
    <glyph glyph-name="Cacute" unicode="&#x106;" horiz-adv-x="702" 
d="M231 434q-1 -13 -1.5 -36t-0.5 -47.5t0.5 -48t1.5 -36.5q2 -23 9 -44t22 -37t38 -25.5t57 -9.5t56 8t36 19.5t21.5 25.5t11.5 26q5 16 11 22.5t23 6.5h131q9 0 15.5 -6.5t6.5 -15.5q-1 -51 -25 -96t-66 -78t-98.5 -52.5t-122.5 -19.5q-72 0 -128.5 21.5t-96.5 58.5
t-61.5 86.5t-24.5 104.5q-2 41 -2 88t2 90q2 55 24 104.5t61.5 86.5t96.5 58.5t129 21.5q66 0 122.5 -19.5t98.5 -52.5t66 -78t25 -96q0 -9 -6.5 -15.5t-15.5 -6.5h-131q-17 0 -23 6.5t-11 22.5q-4 12 -11.5 26t-21.5 25.5t-36 19.5t-56 8t-57 -9.5t-38 -25.5t-22 -37
t-9 -44zM372 891q11 13 18.5 16t18.5 3h143q19 0 19 -20q0 -7 -5 -12l-135 -111q-8 -7 -17 -12t-25 -5h-98q-16 0 -16 16q0 8 5 13z" />
    <glyph glyph-name="Ccaron" unicode="&#x10c;" horiz-adv-x="702" 
d="M231 434q-1 -13 -1.5 -36t-0.5 -47.5t0.5 -48t1.5 -36.5q2 -23 9 -44t22 -37t38 -25.5t57 -9.5t56 8t36 19.5t21.5 25.5t11.5 26q5 16 11 22.5t23 6.5h131q9 0 15.5 -6.5t6.5 -15.5q-1 -51 -25 -96t-66 -78t-98.5 -52.5t-122.5 -19.5q-72 0 -128.5 21.5t-96.5 58.5
t-61.5 86.5t-24.5 104.5q-2 41 -2 88t2 90q2 55 24 104.5t61.5 86.5t96.5 58.5t129 21.5q66 0 122.5 -19.5t98.5 -52.5t66 -78t25 -96q0 -9 -6.5 -15.5t-15.5 -6.5h-131q-17 0 -23 6.5t-11 22.5q-4 12 -11.5 26t-21.5 25.5t-36 19.5t-56 8t-57 -9.5t-38 -25.5t-22 -37
t-9 -44zM307 750q-11 0 -19 4t-18 15l-102 112q-5 5 -5 13q0 16 16 16h72q10 0 16 -3t15 -8l74 -43l74 43q9 5 15 8t16 3h72q16 0 16 -16q0 -8 -5 -13l-102 -112q-10 -11 -18 -15t-19 -4h-98z" />
    <glyph glyph-name="Ccedilla" unicode="&#xc7;" horiz-adv-x="702" 
d="M231 434q-1 -13 -1.5 -36t-0.5 -47.5t0.5 -48t1.5 -36.5q2 -23 9 -44t22 -37t38 -25.5t57 -9.5t56 8t36 19.5t21.5 25.5t11.5 26q5 16 11 22.5t23 6.5h131q9 0 15.5 -6.5t6.5 -15.5q-1 -51 -25 -95.5t-65.5 -78t-97.5 -53t-122 -19.5l-21 -44q6 4 16 7t21 3q38 0 57 -26
t19 -62t-27 -62t-72 -26q-16 0 -33.5 5t-30 13t-17.5 16.5t4 16.5l18 16q8 7 13.5 7t11 -3t13.5 -6.5t21 -3.5q14 0 23.5 6t9.5 21q0 14 -9 20.5t-24 6.5q-7 0 -14.5 -2t-14.5 -3.5t-13.5 -1t-11.5 5.5l-18 21q-6 8 -7.5 13.5t5.5 19.5l22 46q-59 8 -105 32.5t-78.5 60
t-50.5 80t-20 94.5q-2 41 -2 88t2 90q2 55 24 104.5t61.5 86.5t96.5 58.5t129 21.5q66 0 122.5 -19.5t98.5 -52.5t66 -78t25 -96q0 -9 -6.5 -15.5t-15.5 -6.5h-131q-17 0 -23 6.5t-11 22.5q-4 12 -11.5 26t-21.5 25.5t-36 19.5t-56 8t-57 -9.5t-38 -25.5t-22 -37t-9 -44z
" />
    <glyph glyph-name="Ccircumflex" unicode="&#x108;" horiz-adv-x="702" 
d="M231 434q-1 -13 -1.5 -36t-0.5 -47.5t0.5 -48t1.5 -36.5q2 -23 9 -44t22 -37t38 -25.5t57 -9.5t56 8t36 19.5t21.5 25.5t11.5 26q5 16 11 22.5t23 6.5h131q9 0 15.5 -6.5t6.5 -15.5q-1 -51 -25 -96t-66 -78t-98.5 -52.5t-122.5 -19.5q-72 0 -128.5 21.5t-96.5 58.5
t-61.5 86.5t-24.5 104.5q-2 41 -2 88t2 90q2 55 24 104.5t61.5 86.5t96.5 58.5t129 21.5q66 0 122.5 -19.5t98.5 -52.5t66 -78t25 -96q0 -9 -6.5 -15.5t-15.5 -6.5h-131q-17 0 -23 6.5t-11 22.5q-4 12 -11.5 26t-21.5 25.5t-36 19.5t-56 8t-57 -9.5t-38 -25.5t-22 -37
t-9 -44zM405 910q11 0 19 -4t18 -15l102 -112q5 -5 5 -13q0 -16 -16 -16h-72q-10 0 -16 3t-15 8l-74 43l-74 -43q-9 -5 -15 -8t-16 -3h-72q-16 0 -16 16q0 8 5 13l102 112q10 11 18 15t19 4h98z" />
    <glyph glyph-name="Cdotaccent" unicode="&#x10a;" horiz-adv-x="702" 
d="M231 434q-1 -13 -1.5 -36t-0.5 -47.5t0.5 -48t1.5 -36.5q2 -23 9 -44t22 -37t38 -25.5t57 -9.5t56 8t36 19.5t21.5 25.5t11.5 26q5 16 11 22.5t23 6.5h131q9 0 15.5 -6.5t6.5 -15.5q-1 -51 -25 -96t-66 -78t-98.5 -52.5t-122.5 -19.5q-72 0 -128.5 21.5t-96.5 58.5
t-61.5 86.5t-24.5 104.5q-2 41 -2 88t2 90q2 55 24 104.5t61.5 86.5t96.5 58.5t129 21.5q66 0 122.5 -19.5t98.5 -52.5t66 -78t25 -96q0 -9 -6.5 -15.5t-15.5 -6.5h-131q-17 0 -23 6.5t-11 22.5q-4 12 -11.5 26t-21.5 25.5t-36 19.5t-56 8t-57 -9.5t-38 -25.5t-22 -37
t-9 -44zM439 777q0 -11 -8 -19t-19 -8h-111q-11 0 -19 8t-8 19v111q0 11 8 19t19 8h111q11 0 19 -8t8 -19v-111z" />
    <glyph glyph-name="D" unicode="D" horiz-adv-x="723" 
d="M362 700q69 0 126 -20.5t98.5 -57.5t65 -88.5t26.5 -112.5q1 -21 1 -38.5v-33.5v-33t-1 -37q-3 -62 -26 -113t-63.5 -88t-96.5 -57.5t-125 -20.5h-270q-11 0 -19 8t-8 19v646q0 11 8 19t19 8h265zM493 425q-6 115 -136 115h-102v-380h107q126 0 131 115q1 21 1 39.5v36
v35.5t-1 39z" />
    <glyph glyph-name="Dcaron" unicode="&#x10e;" horiz-adv-x="723" 
d="M362 700q69 0 126 -20.5t98.5 -57.5t65 -88.5t26.5 -112.5q1 -21 1 -38.5v-33.5v-33t-1 -37q-3 -62 -26 -113t-63.5 -88t-96.5 -57.5t-125 -20.5h-270q-11 0 -19 8t-8 19v646q0 11 8 19t19 8h265zM493 425q-6 115 -136 115h-102v-380h107q126 0 131 115q1 21 1 39.5v36
v35.5t-1 39zM296 750q-11 0 -19 4t-18 15l-102 112q-5 5 -5 13q0 16 16 16h72q10 0 16 -3t15 -8l74 -43l74 43q9 5 15 8t16 3h72q16 0 16 -16q0 -8 -5 -13l-102 -112q-10 -11 -18 -15t-19 -4h-98z" />
    <glyph glyph-name="Dcroat" unicode="&#x110;" horiz-adv-x="755" 
d="M394 700q69 0 126 -20.5t98.5 -57.5t65 -88.5t26.5 -112.5q1 -21 1 -38.5v-33.5v-33t-1 -37q-3 -62 -26 -113t-63.5 -88t-96.5 -57.5t-125 -20.5h-270q-11 0 -19 8t-8 19v257h-53q-11 0 -19 8t-8 19v86q0 11 8 19t19 8h53v249q0 11 8 19t19 8h265zM525 425
q-6 115 -136 115h-102v-116h75q11 0 19 -8t8 -19v-86q0 -11 -8 -19t-19 -8h-75v-124h107q126 0 131 115q1 21 1 39.5v36v35.5t-1 39z" />
    <glyph glyph-name="E" unicode="E" horiz-adv-x="643" 
d="M571 160q11 0 19 -8t8 -19v-106q0 -11 -8 -19t-19 -8h-474q-11 0 -19 8t-8 19v646q0 11 8 19t19 8h466q11 0 19 -8t8 -19v-106q0 -11 -8 -19t-19 -8h-308v-108h286q11 0 19 -8t8 -19v-106q0 -11 -8 -19t-19 -8h-286v-112h316z" />
    <glyph glyph-name="Eacute" unicode="&#xc9;" horiz-adv-x="643" 
d="M571 160q11 0 19 -8t8 -19v-106q0 -11 -8 -19t-19 -8h-474q-11 0 -19 8t-8 19v646q0 11 8 19t19 8h466q11 0 19 -8t8 -19v-106q0 -11 -8 -19t-19 -8h-308v-108h286q11 0 19 -8t8 -19v-106q0 -11 -8 -19t-19 -8h-286v-112h316zM354 891q11 13 18.5 16t18.5 3h143
q19 0 19 -20q0 -7 -5 -12l-135 -111q-8 -7 -17 -12t-25 -5h-98q-16 0 -16 16q0 8 5 13z" />
    <glyph glyph-name="Ebreve" unicode="&#x114;" horiz-adv-x="643" 
d="M571 160q11 0 19 -8t8 -19v-106q0 -11 -8 -19t-19 -8h-474q-11 0 -19 8t-8 19v646q0 11 8 19t19 8h466q11 0 19 -8t8 -19v-106q0 -11 -8 -19t-19 -8h-308v-108h286q11 0 19 -8t8 -19v-106q0 -11 -8 -19t-19 -8h-286v-112h316zM334 745q-46 0 -78 13.5t-52.5 35
t-29.5 47.5t-9 50q0 8 5 13.5t14 5.5h84q9 0 14 -5.5t5 -13.5q0 -19 12 -34.5t35 -15.5t35 15.5t12 34.5q0 8 5 13.5t14 5.5h84q9 0 14 -5.5t5 -13.5q0 -24 -9 -50t-29.5 -47.5t-52.5 -35t-78 -13.5z" />
    <glyph glyph-name="Ecaron" unicode="&#x11a;" horiz-adv-x="643" 
d="M571 160q11 0 19 -8t8 -19v-106q0 -11 -8 -19t-19 -8h-474q-11 0 -19 8t-8 19v646q0 11 8 19t19 8h466q11 0 19 -8t8 -19v-106q0 -11 -8 -19t-19 -8h-308v-108h286q11 0 19 -8t8 -19v-106q0 -11 -8 -19t-19 -8h-286v-112h316zM285 750q-11 0 -19 4t-18 15l-102 112
q-5 5 -5 13q0 16 16 16h72q10 0 16 -3t15 -8l74 -43l74 43q9 5 15 8t16 3h72q16 0 16 -16q0 -8 -5 -13l-102 -112q-10 -11 -18 -15t-19 -4h-98z" />
    <glyph glyph-name="Ecircumflex" unicode="&#xca;" horiz-adv-x="643" 
d="M571 160q11 0 19 -8t8 -19v-106q0 -11 -8 -19t-19 -8h-474q-11 0 -19 8t-8 19v646q0 11 8 19t19 8h466q11 0 19 -8t8 -19v-106q0 -11 -8 -19t-19 -8h-308v-108h286q11 0 19 -8t8 -19v-106q0 -11 -8 -19t-19 -8h-286v-112h316zM383 910q11 0 19 -4t18 -15l102 -112
q5 -5 5 -13q0 -16 -16 -16h-72q-10 0 -16 3t-15 8l-74 43l-74 -43q-9 -5 -15 -8t-16 -3h-72q-16 0 -16 16q0 8 5 13l102 112q10 11 18 15t19 4h98z" />
    <glyph glyph-name="Edieresis" unicode="&#xcb;" horiz-adv-x="643" 
d="M571 160q11 0 19 -8t8 -19v-106q0 -11 -8 -19t-19 -8h-474q-11 0 -19 8t-8 19v646q0 11 8 19t19 8h466q11 0 19 -8t8 -19v-106q0 -11 -8 -19t-19 -8h-308v-108h286q11 0 19 -8t8 -19v-106q0 -11 -8 -19t-19 -8h-286v-112h316zM284 777q0 -11 -8 -19t-19 -8h-101
q-11 0 -19 8t-8 19v101q0 11 8 19t19 8h101q11 0 19 -8t8 -19v-101zM539 777q0 -11 -8 -19t-19 -8h-101q-11 0 -19 8t-8 19v101q0 11 8 19t19 8h101q11 0 19 -8t8 -19v-101z" />
    <glyph glyph-name="Edotaccent" unicode="&#x116;" horiz-adv-x="643" 
d="M571 160q11 0 19 -8t8 -19v-106q0 -11 -8 -19t-19 -8h-474q-11 0 -19 8t-8 19v646q0 11 8 19t19 8h466q11 0 19 -8t8 -19v-106q0 -11 -8 -19t-19 -8h-308v-108h286q11 0 19 -8t8 -19v-106q0 -11 -8 -19t-19 -8h-286v-112h316zM417 777q0 -11 -8 -19t-19 -8h-111
q-11 0 -19 8t-8 19v111q0 11 8 19t19 8h111q11 0 19 -8t8 -19v-111z" />
    <glyph glyph-name="Egrave" unicode="&#xc8;" horiz-adv-x="643" 
d="M571 160q11 0 19 -8t8 -19v-106q0 -11 -8 -19t-19 -8h-474q-11 0 -19 8t-8 19v646q0 11 8 19t19 8h466q11 0 19 -8t8 -19v-106q0 -11 -8 -19t-19 -8h-308v-108h286q11 0 19 -8t8 -19v-106q0 -11 -8 -19t-19 -8h-286v-112h316zM405 779q5 -5 5 -13q0 -16 -16 -16h-98
q-16 0 -25 5t-17 12l-135 111q-5 5 -5 12q0 20 19 20h143q11 0 18.5 -3t18.5 -16z" />
    <glyph glyph-name="Emacron" unicode="&#x112;" horiz-adv-x="643" 
d="M571 160q11 0 19 -8t8 -19v-106q0 -11 -8 -19t-19 -8h-474q-11 0 -19 8t-8 19v646q0 11 8 19t19 8h466q11 0 19 -8t8 -19v-106q0 -11 -8 -19t-19 -8h-308v-108h286q11 0 19 -8t8 -19v-106q0 -11 -8 -19t-19 -8h-286v-112h316zM175 750q-11 0 -19 8t-8 19v86q0 11 8 19
t19 8h319q11 0 19 -8t8 -19v-86q0 -11 -8 -19t-19 -8h-319z" />
    <glyph glyph-name="Eogonek" unicode="&#x118;" horiz-adv-x="643" 
d="M557 -220q-38 0 -68 12.5t-51 34t-32 51.5t-11 66q0 29 8 56h-306q-11 0 -19 8t-8 19v646q0 11 8 19t19 8h466q11 0 19 -8t8 -19v-106q0 -11 -8 -19t-19 -8h-308v-108h286q11 0 19 -8t8 -19v-106q0 -11 -8 -19t-19 -8h-286v-112h316q11 0 19 -8t8 -19v-106q0 -11 -8 -19
t-19 -8h-15q-23 0 -36 -16.5t-13 -39.5t14 -39.5t40 -16.5h15q22 0 22 -22v-64q0 -22 -22 -22h-19z" />
    <glyph glyph-name="F" unicode="F" horiz-adv-x="617" 
d="M554 700q11 0 19 -8t8 -19v-106q0 -11 -8 -19t-19 -8h-299v-137h279q11 0 19 -8t8 -19v-106q0 -11 -8 -19t-19 -8h-279v-216q0 -11 -8 -19t-19 -8h-131q-11 0 -19 8t-8 19v646q0 11 8 19t19 8h457z" />
    <glyph glyph-name="G" unicode="G" horiz-adv-x="711" 
d="M357 550q-34 0 -57 -9.5t-37.5 -25.5t-21.5 -37t-10 -44q-2 -13 -2.5 -36t-0.5 -47.5t1 -48t2 -36.5q2 -23 9.5 -44t22 -37t38 -25.5t56.5 -9.5q26 0 49 6t40 19t27 34t10 51h-84q-11 0 -19 8t-8 19v106q0 11 8 19t19 8h242q11 0 19 -8t8 -19v-128q0 -64 -24 -115
t-66 -86.5t-98.5 -54.5t-122.5 -19q-72 0 -128.5 21.5t-96.5 58.5t-61.5 86.5t-24.5 104.5q-2 41 -2 88t2 90q2 55 24 104.5t61.5 86.5t96.5 58.5t129 21.5q70 0 126 -20.5t95 -52t61 -69t24 -71.5q1 -9 -6 -15.5t-16 -6.5h-133q-15 0 -23.5 9t-16.5 18q-14 18 -38 33
t-73 15z" />
    <glyph glyph-name="Gbreve" unicode="&#x11e;" horiz-adv-x="711" 
d="M357 550q-34 0 -57 -9.5t-37.5 -25.5t-21.5 -37t-10 -44q-2 -13 -2.5 -36t-0.5 -47.5t1 -48t2 -36.5q2 -23 9.5 -44t22 -37t38 -25.5t56.5 -9.5q26 0 49 6t40 19t27 34t10 51h-84q-11 0 -19 8t-8 19v106q0 11 8 19t19 8h242q11 0 19 -8t8 -19v-128q0 -64 -24 -115
t-66 -86.5t-98.5 -54.5t-122.5 -19q-72 0 -128.5 21.5t-96.5 58.5t-61.5 86.5t-24.5 104.5q-2 41 -2 88t2 90q2 55 24 104.5t61.5 86.5t96.5 58.5t129 21.5q70 0 126 -20.5t95 -52t61 -69t24 -71.5q1 -9 -6 -15.5t-16 -6.5h-133q-15 0 -23.5 9t-16.5 18q-14 18 -38 33
t-73 15zM355 745q-46 0 -78 13.5t-52.5 35t-29.5 47.5t-9 50q0 8 5 13.5t14 5.5h84q9 0 14 -5.5t5 -13.5q0 -19 12 -34.5t35 -15.5t35 15.5t12 34.5q0 8 5 13.5t14 5.5h84q9 0 14 -5.5t5 -13.5q0 -24 -9 -50t-29.5 -47.5t-52.5 -35t-78 -13.5z" />
    <glyph glyph-name="Gcircumflex" unicode="&#x11c;" horiz-adv-x="711" 
d="M357 550q-34 0 -57 -9.5t-37.5 -25.5t-21.5 -37t-10 -44q-2 -13 -2.5 -36t-0.5 -47.5t1 -48t2 -36.5q2 -23 9.5 -44t22 -37t38 -25.5t56.5 -9.5q26 0 49 6t40 19t27 34t10 51h-84q-11 0 -19 8t-8 19v106q0 11 8 19t19 8h242q11 0 19 -8t8 -19v-128q0 -64 -24 -115
t-66 -86.5t-98.5 -54.5t-122.5 -19q-72 0 -128.5 21.5t-96.5 58.5t-61.5 86.5t-24.5 104.5q-2 41 -2 88t2 90q2 55 24 104.5t61.5 86.5t96.5 58.5t129 21.5q70 0 126 -20.5t95 -52t61 -69t24 -71.5q1 -9 -6 -15.5t-16 -6.5h-133q-15 0 -23.5 9t-16.5 18q-14 18 -38 33
t-73 15zM404 910q11 0 19 -4t18 -15l102 -112q5 -5 5 -13q0 -16 -16 -16h-72q-10 0 -16 3t-15 8l-74 43l-74 -43q-9 -5 -15 -8t-16 -3h-72q-16 0 -16 16q0 8 5 13l102 112q10 11 18 15t19 4h98z" />
    <glyph glyph-name="Gcommaaccent" unicode="&#x122;" horiz-adv-x="711" 
d="M357 550q-34 0 -57 -9.5t-37.5 -25.5t-21.5 -37t-10 -44q-2 -13 -2.5 -36t-0.5 -47.5t1 -48t2 -36.5q2 -23 9.5 -44t22 -37t38 -25.5t56.5 -9.5q26 0 49 6t40 19t27 34t10 51h-84q-11 0 -19 8t-8 19v106q0 11 8 19t19 8h242q11 0 19 -8t8 -19v-128q0 -64 -24 -115
t-66 -86.5t-98.5 -54.5t-122.5 -19q-72 0 -128.5 21.5t-96.5 58.5t-61.5 86.5t-24.5 104.5q-2 41 -2 88t2 90q2 55 24 104.5t61.5 86.5t96.5 58.5t129 21.5q70 0 126 -20.5t95 -52t61 -69t24 -71.5q1 -9 -6 -15.5t-16 -6.5h-133q-15 0 -23.5 9t-16.5 18q-14 18 -38 33
t-73 15zM263 -89q2 14 12.5 26.5t30.5 12.5h123q9 0 15.5 -6.5t6.5 -15.5q0 -4 -1 -7l-55 -139q-4 -10 -13.5 -21t-29.5 -11h-89q-9 0 -15.5 6.5t-6.5 15.5v2z" />
    <glyph glyph-name="Gdotaccent" unicode="&#x120;" horiz-adv-x="711" 
d="M357 550q-34 0 -57 -9.5t-37.5 -25.5t-21.5 -37t-10 -44q-2 -13 -2.5 -36t-0.5 -47.5t1 -48t2 -36.5q2 -23 9.5 -44t22 -37t38 -25.5t56.5 -9.5q26 0 49 6t40 19t27 34t10 51h-84q-11 0 -19 8t-8 19v106q0 11 8 19t19 8h242q11 0 19 -8t8 -19v-128q0 -64 -24 -115
t-66 -86.5t-98.5 -54.5t-122.5 -19q-72 0 -128.5 21.5t-96.5 58.5t-61.5 86.5t-24.5 104.5q-2 41 -2 88t2 90q2 55 24 104.5t61.5 86.5t96.5 58.5t129 21.5q70 0 126 -20.5t95 -52t61 -69t24 -71.5q1 -9 -6 -15.5t-16 -6.5h-133q-15 0 -23.5 9t-16.5 18q-14 18 -38 33
t-73 15zM438 777q0 -11 -8 -19t-19 -8h-111q-11 0 -19 8t-8 19v111q0 11 8 19t19 8h111q11 0 19 -8t8 -19v-111z" />
    <glyph glyph-name="H" unicode="H" horiz-adv-x="732" 
d="M635 700q11 0 19 -8t8 -19v-646q0 -11 -8 -19t-19 -8h-131q-11 0 -19 8t-8 19v245h-222v-245q0 -11 -8 -19t-19 -8h-131q-11 0 -19 7.5t-8 19.5v646q0 11 8 19t19 8h131q11 0 19 -8t8 -19v-241h222v241q0 11 8 19t19 8h131z" />
    <glyph glyph-name="Hbar" unicode="&#x126;" horiz-adv-x="732" 
d="M635 700q11 0 19 -8t8 -19v-646q0 -11 -8 -19t-19 -8h-131q-11 0 -19 8t-8 19v245h-222v-245q0 -11 -8 -19t-19 -8h-131q-11 0 -19 7.5t-8 19.5v646q0 11 8 19t19 8h131q11 0 19 -8t8 -19v-39h222v39q0 11 8 19t19 8h131zM477 432v67h-222v-67h222z" />
    <glyph glyph-name="Hcircumflex" unicode="&#x124;" horiz-adv-x="732" 
d="M635 700q11 0 19 -8t8 -19v-646q0 -11 -8 -19t-19 -8h-131q-11 0 -19 8t-8 19v245h-222v-245q0 -11 -8 -19t-19 -8h-131q-11 0 -19 7.5t-8 19.5v646q0 11 8 19t19 8h131q11 0 19 -8t8 -19v-241h222v241q0 11 8 19t19 8h131zM415 910q11 0 19 -4t18 -15l102 -112
q5 -5 5 -13q0 -16 -16 -16h-72q-10 0 -16 3t-15 8l-74 43l-74 -43q-9 -5 -15 -8t-16 -3h-72q-16 0 -16 16q0 8 5 13l102 112q10 11 18 15t19 4h98z" />
    <glyph glyph-name="I" unicode="I" horiz-adv-x="325" 
d="M97 0q-11 0 -19 8t-8 19v646q0 11 8 19t19 8h131q11 0 19 -8t8 -19v-646q0 -11 -8 -19t-19 -8h-131z" />
    <glyph glyph-name="Iacute" unicode="&#xcd;" horiz-adv-x="325" 
d="M97 0q-11 0 -19 8t-8 19v646q0 11 8 19t19 8h131q11 0 19 -8t8 -19v-646q0 -11 -8 -19t-19 -8h-131zM182 891q11 13 18.5 16t18.5 3h143q19 0 19 -20q0 -7 -5 -12l-135 -111q-8 -7 -17 -12t-25 -5h-98q-16 0 -16 16q0 8 5 13z" />
    <glyph glyph-name="Ibreve" unicode="&#x12c;" horiz-adv-x="325" 
d="M97 0q-11 0 -19 8t-8 19v646q0 11 8 19t19 8h131q11 0 19 -8t8 -19v-646q0 -11 -8 -19t-19 -8h-131zM162 745q-46 0 -78 13.5t-52.5 35t-29.5 47.5t-9 50q0 8 5 13.5t14 5.5h84q9 0 14 -5.5t5 -13.5q0 -19 12 -34.5t35 -15.5t35 15.5t12 34.5q0 8 5 13.5t14 5.5h84
q9 0 14 -5.5t5 -13.5q0 -24 -9 -50t-29.5 -47.5t-52.5 -35t-78 -13.5z" />
    <glyph glyph-name="Icircumflex" unicode="&#xce;" horiz-adv-x="325" 
d="M97 0q-11 0 -19 8t-8 19v646q0 11 8 19t19 8h131q11 0 19 -8t8 -19v-646q0 -11 -8 -19t-19 -8h-131zM211 910q11 0 19 -4t18 -15l102 -112q5 -5 5 -13q0 -16 -16 -16h-72q-10 0 -16 3t-15 8l-74 43l-74 -43q-9 -5 -15 -8t-16 -3h-72q-16 0 -16 16q0 8 5 13l102 112
q10 11 18 15t19 4h98z" />
    <glyph glyph-name="Idieresis" unicode="&#xcf;" horiz-adv-x="325" 
d="M97 0q-11 0 -19 8t-8 19v646q0 11 8 19t19 8h131q11 0 19 -8t8 -19v-646q0 -11 -8 -19t-19 -8h-131zM112 777q0 -11 -8 -19t-19 -8h-101q-11 0 -19 8t-8 19v101q0 11 8 19t19 8h101q11 0 19 -8t8 -19v-101zM367 777q0 -11 -8 -19t-19 -8h-101q-11 0 -19 8t-8 19v101
q0 11 8 19t19 8h101q11 0 19 -8t8 -19v-101z" />
    <glyph glyph-name="Idotaccent" unicode="&#x130;" horiz-adv-x="325" 
d="M97 0q-11 0 -19 8t-8 19v646q0 11 8 19t19 8h131q11 0 19 -8t8 -19v-646q0 -11 -8 -19t-19 -8h-131zM245 777q0 -11 -8 -19t-19 -8h-111q-11 0 -19 8t-8 19v111q0 11 8 19t19 8h111q11 0 19 -8t8 -19v-111z" />
    <glyph glyph-name="Igrave" unicode="&#xcc;" horiz-adv-x="325" 
d="M97 0q-11 0 -19 8t-8 19v646q0 11 8 19t19 8h131q11 0 19 -8t8 -19v-646q0 -11 -8 -19t-19 -8h-131zM234 779q5 -5 5 -13q0 -16 -16 -16h-98q-16 0 -25 5t-17 12l-135 111q-5 5 -5 12q0 20 19 20h143q11 0 18.5 -3t18.5 -16z" />
    <glyph glyph-name="Imacron" unicode="&#x12a;" horiz-adv-x="325" 
d="M97 0q-11 0 -19 8t-8 19v646q0 11 8 19t19 8h131q11 0 19 -8t8 -19v-646q0 -11 -8 -19t-19 -8h-131zM3 750q-11 0 -19 8t-8 19v86q0 11 8 19t19 8h319q11 0 19 -8t8 -19v-86q0 -11 -8 -19t-19 -8h-319z" />
    <glyph glyph-name="Iogonek" unicode="&#x12e;" horiz-adv-x="325" 
d="M218 0q-26 0 -40 -16.5t-14 -39.5t14 -39.5t40 -16.5h15q22 0 22 -22v-64q0 -22 -22 -22h-19q-38 0 -68 12.5t-51 34t-32 51.5t-11 66q0 46 18 82v647q0 11 8 19t19 8h131q11 0 19 -8t8 -19v-646q0 -11 -8 -19t-19 -8h-10z" />
    <glyph glyph-name="Itilde" unicode="&#x128;" horiz-adv-x="325" 
d="M97 0q-11 0 -19 8t-8 19v646q0 11 8 19t19 8h131q11 0 19 -8t8 -19v-646q0 -11 -8 -19t-19 -8h-131zM249 745q-31 0 -51 7t-35 15.5t-27.5 15.5t-28.5 7q-12 0 -18 -6.5t-10.5 -14t-8.5 -13.5t-12 -6h-76q-9 0 -14 5.5t-5 13.5q0 22 6.5 46.5t20.5 44t35 32.5t50 13
q31 0 51 -7t35 -15.5t27.5 -15.5t28.5 -7q12 0 18 6t10.5 13.5t8.5 14t12 6.5h76q9 0 14 -5.5t5 -13.5q0 -23 -8 -47t-23 -43.5t-35.5 -32.5t-45.5 -13z" />
    <glyph glyph-name="J" unicode="J" horiz-adv-x="685" 
d="M621 255q0 -66 -24 -115.5t-65 -83t-95 -50t-114 -16.5q-65 0 -119 17t-93.5 47.5t-62 74t-23.5 97.5q0 9 6.5 15.5t15.5 6.5h128q19 0 25 -6t12 -23q12 -34 37.5 -51.5t73.5 -17.5q57 0 85.5 28.5t28.5 82.5v279h-342q-11 0 -19 8t-8 19v106q0 11 8 19t19 8h499
q11 0 19 -8t8 -19v-418z" />
    <glyph glyph-name="Jcircumflex" unicode="&#x134;" horiz-adv-x="685" 
d="M621 255q0 -66 -24 -115.5t-65 -83t-95 -50t-114 -16.5q-65 0 -119 17t-93.5 47.5t-62 74t-23.5 97.5q0 9 6.5 15.5t15.5 6.5h128q19 0 25 -6t12 -23q12 -34 37.5 -51.5t73.5 -17.5q57 0 85.5 28.5t28.5 82.5v279h-342q-11 0 -19 8t-8 19v106q0 11 8 19t19 8h499
q11 0 19 -8t8 -19v-418zM402 910q11 0 19 -4t18 -15l102 -112q5 -5 5 -13q0 -16 -16 -16h-72q-10 0 -16 3t-15 8l-74 43l-74 -43q-9 -5 -15 -8t-16 -3h-72q-16 0 -16 16q0 8 5 13l102 112q10 11 18 15t19 4h98z" />
    <glyph glyph-name="K" unicode="K" horiz-adv-x="673" 
d="M663 33q3 -4 3 -11q0 -9 -6.5 -15.5t-15.5 -6.5h-159q-14 0 -23 6t-18 17l-189 238v-234q0 -11 -8 -19t-19 -8h-131q-11 0 -19 8t-8 19v646q0 11 8 19t19 8h131q11 0 19 -8t8 -19v-211l176 216q5 6 13 14t27 8h156q9 0 15.5 -6.5t6.5 -15.5q0 -7 -3 -11l-247 -302z" />
    <glyph glyph-name="Kcommaaccent" unicode="&#x136;" horiz-adv-x="673" 
d="M663 33q3 -4 3 -11q0 -9 -6.5 -15.5t-15.5 -6.5h-159q-14 0 -23 6t-18 17l-189 238v-234q0 -11 -8 -19t-19 -8h-131q-11 0 -19 8t-8 19v646q0 11 8 19t19 8h131q11 0 19 -8t8 -19v-211l176 216q5 6 13 14t27 8h156q9 0 15.5 -6.5t6.5 -15.5q0 -7 -3 -11l-247 -302z
M261 -89q2 14 12.5 26.5t30.5 12.5h123q9 0 15.5 -6.5t6.5 -15.5q0 -4 -1 -7l-55 -139q-4 -10 -13.5 -21t-29.5 -11h-89q-9 0 -15.5 6.5t-6.5 15.5v2z" />
    <glyph glyph-name="L" unicode="L" horiz-adv-x="603" 
d="M560 160q11 0 19 -8t8 -19v-106q0 -11 -8 -19t-19 -8h-463q-11 0 -19 8t-8 19v646q0 11 8 19t19 8h131q11 0 19 -8t8 -19v-513h305z" />
    <glyph glyph-name="Lacute" unicode="&#x139;" horiz-adv-x="603" 
d="M560 160q11 0 19 -8t8 -19v-106q0 -11 -8 -19t-19 -8h-463q-11 0 -19 8t-8 19v646q0 11 8 19t19 8h131q11 0 19 -8t8 -19v-513h305zM184 891q11 13 18.5 16t18.5 3h143q19 0 19 -20q0 -7 -5 -12l-135 -111q-8 -7 -17 -12t-25 -5h-98q-16 0 -16 16q0 8 5 13z" />
    <glyph glyph-name="Lcaron" unicode="&#x13d;" horiz-adv-x="604" 
d="M560 160q11 0 19 -8t8 -19v-106q0 -11 -8 -19t-19 -8h-463q-11 0 -19 8t-8 19v646q0 11 8 19t19 8h131q11 0 19 -8t8 -19v-513h305zM348 671q2 14 12.5 26.5t30.5 12.5h123q9 0 15.5 -6.5t6.5 -15.5q0 -4 -1 -7l-55 -139q-4 -10 -13.5 -21t-29.5 -11h-89q-9 0 -15.5 6.5
t-6.5 15.5v2z" />
    <glyph glyph-name="Lcommaaccent" unicode="&#x13b;" horiz-adv-x="603" 
d="M560 160q11 0 19 -8t8 -19v-106q0 -11 -8 -19t-19 -8h-463q-11 0 -19 8t-8 19v646q0 11 8 19t19 8h131q11 0 19 -8t8 -19v-513h305zM238 -89q2 14 12.5 26.5t30.5 12.5h123q9 0 15.5 -6.5t6.5 -15.5q0 -4 -1 -7l-55 -139q-4 -10 -13.5 -21t-29.5 -11h-89q-9 0 -15.5 6.5
t-6.5 15.5v2z" />
    <glyph glyph-name="Ldot" unicode="&#x13f;" horiz-adv-x="604" 
d="M560 160q11 0 19 -8t8 -19v-106q0 -11 -8 -19t-19 -8h-463q-11 0 -19 8t-8 19v646q0 11 8 19t19 8h131q11 0 19 -8t8 -19v-513h305zM507 334q0 -11 -8 -19t-19 -8h-131q-11 0 -19 8t-8 19v131q0 11 8 19t19 8h131q11 0 19 -8t8 -19v-131z" />
    <glyph glyph-name="Lslash" unicode="&#x141;" horiz-adv-x="610" 
d="M567 160q11 0 19 -8t8 -19v-106q0 -11 -8 -19t-19 -8h-463q-11 0 -19 8t-8 19v225l-28 -11q-8 -3 -11 -3q-9 0 -15 6t-6 15v58q0 25 22 33l38 15v308q0 11 8 19t19 8h131q11 0 19 -8t8 -19v-236l134 53q7 3 11 3q9 0 15 -6t6 -15v-58q0 -25 -22 -33l-144 -57v-164h305z
" />
    <glyph glyph-name="M" unicode="M" horiz-adv-x="836" 
d="M386 168q-15 0 -23.5 8.5t-13.5 16.5l-94 165v-331q0 -11 -8 -19t-19 -8h-131q-11 0 -19 8t-8 19v646q0 11 8 19t19 8h116q20 0 30 -11t13 -16l162 -277l162 277q3 5 13 16t30 11h116q11 0 19 -8t8 -19v-646q0 -11 -8 -19t-19 -8h-131q-11 0 -19 8t-8 19v331l-94 -165
q-5 -8 -13.5 -16.5t-23.5 -8.5h-64v0z" />
    <glyph glyph-name="N" unicode="N" horiz-adv-x="726" 
d="M525 0q-17 0 -27.5 9t-13.5 14l-229 342v-338q0 -11 -8 -19t-19 -8h-131q-11 0 -19 8t-8 19v646q0 11 8 19t19 8h104q17 0 27.5 -9t13.5 -14l229 -342v338q0 11 8 19t19 8h131q11 0 19 -8t8 -19v-646q0 -11 -8 -19t-19 -8h-104z" />
    <glyph glyph-name="Nacute" unicode="&#x143;" horiz-adv-x="726" 
d="M525 0q-17 0 -27.5 9t-13.5 14l-229 342v-338q0 -11 -8 -19t-19 -8h-131q-11 0 -19 8t-8 19v646q0 11 8 19t19 8h104q17 0 27.5 -9t13.5 -14l229 -342v338q0 11 8 19t19 8h131q11 0 19 -8t8 -19v-646q0 -11 -8 -19t-19 -8h-104zM387 891q11 13 18.5 16t18.5 3h143
q19 0 19 -20q0 -7 -5 -12l-135 -111q-8 -7 -17 -12t-25 -5h-98q-16 0 -16 16q0 8 5 13z" />
    <glyph glyph-name="Ncaron" unicode="&#x147;" horiz-adv-x="726" 
d="M525 0q-17 0 -27.5 9t-13.5 14l-229 342v-338q0 -11 -8 -19t-19 -8h-131q-11 0 -19 8t-8 19v646q0 11 8 19t19 8h104q17 0 27.5 -9t13.5 -14l229 -342v338q0 11 8 19t19 8h131q11 0 19 -8t8 -19v-646q0 -11 -8 -19t-19 -8h-104zM314 750q-11 0 -19 4t-18 15l-102 112
q-5 5 -5 13q0 16 16 16h72q10 0 16 -3t15 -8l74 -43l74 43q9 5 15 8t16 3h72q16 0 16 -16q0 -8 -5 -13l-102 -112q-10 -11 -18 -15t-19 -4h-98z" />
    <glyph glyph-name="Ncommaaccent" unicode="&#x145;" horiz-adv-x="726" 
d="M525 0q-17 0 -27.5 9t-13.5 14l-229 342v-338q0 -11 -8 -19t-19 -8h-131q-11 0 -19 8t-8 19v646q0 11 8 19t19 8h104q17 0 27.5 -9t13.5 -14l229 -342v338q0 11 8 19t19 8h131q11 0 19 -8t8 -19v-646q0 -11 -8 -19t-19 -8h-104zM269 -89q2 14 12.5 26.5t30.5 12.5h123
q9 0 15.5 -6.5t6.5 -15.5q0 -4 -1 -7l-55 -139q-4 -10 -13.5 -21t-29.5 -11h-89q-9 0 -15.5 6.5t-6.5 15.5v2z" />
    <glyph glyph-name="Ntilde" unicode="&#xd1;" horiz-adv-x="726" 
d="M525 0q-17 0 -27.5 9t-13.5 14l-229 342v-338q0 -11 -8 -19t-19 -8h-131q-11 0 -19 8t-8 19v646q0 11 8 19t19 8h104q17 0 27.5 -9t13.5 -14l229 -342v338q0 11 8 19t19 8h131q11 0 19 -8t8 -19v-646q0 -11 -8 -19t-19 -8h-104zM450 745q-31 0 -51 7t-35 15.5t-27.5 15.5
t-28.5 7q-12 0 -18 -6.5t-10.5 -14t-8.5 -13.5t-12 -6h-76q-9 0 -14 5.5t-5 13.5q0 22 6.5 46.5t20.5 44t35 32.5t50 13q31 0 51 -7t35 -15.5t27.5 -15.5t28.5 -7q12 0 18 6t10.5 13.5t8.5 14t12 6.5h76q9 0 14 -5.5t5 -13.5q0 -23 -8 -47t-23 -43.5t-35.5 -32.5t-45.5 -13z
" />
    <glyph glyph-name="O" unicode="O" 
d="M47 439q3 56 24.5 105.5t61 86t96 58t130.5 21.5q73 0 130 -21.5t96.5 -58t61 -86t24.5 -105.5q2 -43 2 -90t-2 -88q-3 -56 -24.5 -105.5t-61 -86.5t-96.5 -58t-130 -21q-74 0 -130.5 21t-96 58t-61 86.5t-24.5 105.5q-2 41 -2 88t2 90zM486 266q1 18 2 40t1 45t-1 44.5
t-2 38.5q-2 25 -10.5 46t-24 36.5t-38.5 24.5t-54 9t-54 -9t-38.5 -24.5t-24 -36.5t-10.5 -46q-2 -17 -2.5 -38.5t-0.5 -44.5t0.5 -45t2.5 -40q4 -50 34.5 -83t92.5 -33t92 33t35 83z" />
    <glyph glyph-name="Oacute" unicode="&#xd3;" 
d="M47 439q3 56 24.5 105.5t61 86t96 58t130.5 21.5q73 0 130 -21.5t96.5 -58t61 -86t24.5 -105.5q2 -43 2 -90t-2 -88q-3 -56 -24.5 -105.5t-61 -86.5t-96.5 -58t-130 -21q-74 0 -130.5 21t-96 58t-61 86.5t-24.5 105.5q-2 41 -2 88t2 90zM486 266q1 18 2 40t1 45t-1 44.5
t-2 38.5q-2 25 -10.5 46t-24 36.5t-38.5 24.5t-54 9t-54 -9t-38.5 -24.5t-24 -36.5t-10.5 -46q-2 -17 -2.5 -38.5t-0.5 -44.5t0.5 -45t2.5 -40q4 -50 34.5 -83t92.5 -33t92 33t35 83zM373 891q11 13 18.5 16t18.5 3h143q19 0 19 -20q0 -7 -5 -12l-135 -111q-8 -7 -17 -12
t-25 -5h-98q-16 0 -16 16q0 8 5 13z" />
    <glyph glyph-name="Obreve" unicode="&#x14e;" 
d="M47 439q3 56 24.5 105.5t61 86t96 58t130.5 21.5q73 0 130 -21.5t96.5 -58t61 -86t24.5 -105.5q2 -43 2 -90t-2 -88q-3 -56 -24.5 -105.5t-61 -86.5t-96.5 -58t-130 -21q-74 0 -130.5 21t-96 58t-61 86.5t-24.5 105.5q-2 41 -2 88t2 90zM486 266q1 18 2 40t1 45t-1 44.5
t-2 38.5q-2 25 -10.5 46t-24 36.5t-38.5 24.5t-54 9t-54 -9t-38.5 -24.5t-24 -36.5t-10.5 -46q-2 -17 -2.5 -38.5t-0.5 -44.5t0.5 -45t2.5 -40q4 -50 34.5 -83t92.5 -33t92 33t35 83zM359 745q-46 0 -78 13.5t-52.5 35t-29.5 47.5t-9 50q0 8 5 13.5t14 5.5h84q9 0 14 -5.5
t5 -13.5q0 -19 12 -34.5t35 -15.5t35 15.5t12 34.5q0 8 5 13.5t14 5.5h84q9 0 14 -5.5t5 -13.5q0 -24 -9 -50t-29.5 -47.5t-52.5 -35t-78 -13.5z" />
    <glyph glyph-name="Ocircumflex" unicode="&#xd4;" 
d="M47 439q3 56 24.5 105.5t61 86t96 58t130.5 21.5q73 0 130 -21.5t96.5 -58t61 -86t24.5 -105.5q2 -43 2 -90t-2 -88q-3 -56 -24.5 -105.5t-61 -86.5t-96.5 -58t-130 -21q-74 0 -130.5 21t-96 58t-61 86.5t-24.5 105.5q-2 41 -2 88t2 90zM486 266q1 18 2 40t1 45t-1 44.5
t-2 38.5q-2 25 -10.5 46t-24 36.5t-38.5 24.5t-54 9t-54 -9t-38.5 -24.5t-24 -36.5t-10.5 -46q-2 -17 -2.5 -38.5t-0.5 -44.5t0.5 -45t2.5 -40q4 -50 34.5 -83t92.5 -33t92 33t35 83zM408 910q11 0 19 -4t18 -15l102 -112q5 -5 5 -13q0 -16 -16 -16h-72q-10 0 -16 3t-15 8
l-74 43l-74 -43q-9 -5 -15 -8t-16 -3h-72q-16 0 -16 16q0 8 5 13l102 112q10 11 18 15t19 4h98z" />
    <glyph glyph-name="Odieresis" unicode="&#xd6;" 
d="M47 439q3 56 24.5 105.5t61 86t96 58t130.5 21.5q73 0 130 -21.5t96.5 -58t61 -86t24.5 -105.5q2 -43 2 -90t-2 -88q-3 -56 -24.5 -105.5t-61 -86.5t-96.5 -58t-130 -21q-74 0 -130.5 21t-96 58t-61 86.5t-24.5 105.5q-2 41 -2 88t2 90zM486 266q1 18 2 40t1 45t-1 44.5
t-2 38.5q-2 25 -10.5 46t-24 36.5t-38.5 24.5t-54 9t-54 -9t-38.5 -24.5t-24 -36.5t-10.5 -46q-2 -17 -2.5 -38.5t-0.5 -44.5t0.5 -45t2.5 -40q4 -50 34.5 -83t92.5 -33t92 33t35 83zM309 777q0 -11 -8 -19t-19 -8h-101q-11 0 -19 8t-8 19v101q0 11 8 19t19 8h101
q11 0 19 -8t8 -19v-101zM564 777q0 -11 -8 -19t-19 -8h-101q-11 0 -19 8t-8 19v101q0 11 8 19t19 8h101q11 0 19 -8t8 -19v-101z" />
    <glyph glyph-name="Ograve" unicode="&#xd2;" 
d="M47 439q3 56 24.5 105.5t61 86t96 58t130.5 21.5q73 0 130 -21.5t96.5 -58t61 -86t24.5 -105.5q2 -43 2 -90t-2 -88q-3 -56 -24.5 -105.5t-61 -86.5t-96.5 -58t-130 -21q-74 0 -130.5 21t-96 58t-61 86.5t-24.5 105.5q-2 41 -2 88t2 90zM486 266q1 18 2 40t1 45t-1 44.5
t-2 38.5q-2 25 -10.5 46t-24 36.5t-38.5 24.5t-54 9t-54 -9t-38.5 -24.5t-24 -36.5t-10.5 -46q-2 -17 -2.5 -38.5t-0.5 -44.5t0.5 -45t2.5 -40q4 -50 34.5 -83t92.5 -33t92 33t35 83zM423 779q5 -5 5 -13q0 -16 -16 -16h-98q-16 0 -25 5t-17 12l-135 111q-5 5 -5 12
q0 20 19 20h143q11 0 18.5 -3t18.5 -16z" />
    <glyph glyph-name="Ohungarumlaut" unicode="&#x150;" 
d="M47 439q3 56 24.5 105.5t61 86t96 58t130.5 21.5q73 0 130 -21.5t96.5 -58t61 -86t24.5 -105.5q2 -43 2 -90t-2 -88q-3 -56 -24.5 -105.5t-61 -86.5t-96.5 -58t-130 -21q-74 0 -130.5 21t-96 58t-61 86.5t-24.5 105.5q-2 41 -2 88t2 90zM486 266q1 18 2 40t1 45t-1 44.5
t-2 38.5q-2 25 -10.5 46t-24 36.5t-38.5 24.5t-54 9t-54 -9t-38.5 -24.5t-24 -36.5t-10.5 -46q-2 -17 -2.5 -38.5t-0.5 -44.5t0.5 -45t2.5 -40q4 -50 34.5 -83t92.5 -33t92 33t35 83zM228 891q5 10 13 14.5t24 4.5h122q20 0 20 -19q0 -7 -6 -13l-105 -114q-12 -14 -34 -14
h-73q-16 0 -16 16q0 4 1.5 8t3.5 7zM459 891q5 10 13 14.5t24 4.5h122q20 0 20 -19q0 -7 -6 -13l-105 -114q-12 -14 -34 -14h-73q-16 0 -16 16q0 4 1.5 8t3.5 7z" />
    <glyph glyph-name="Omacron" unicode="&#x14c;" 
d="M47 439q3 56 24.5 105.5t61 86t96 58t130.5 21.5q73 0 130 -21.5t96.5 -58t61 -86t24.5 -105.5q2 -43 2 -90t-2 -88q-3 -56 -24.5 -105.5t-61 -86.5t-96.5 -58t-130 -21q-74 0 -130.5 21t-96 58t-61 86.5t-24.5 105.5q-2 41 -2 88t2 90zM486 266q1 18 2 40t1 45t-1 44.5
t-2 38.5q-2 25 -10.5 46t-24 36.5t-38.5 24.5t-54 9t-54 -9t-38.5 -24.5t-24 -36.5t-10.5 -46q-2 -17 -2.5 -38.5t-0.5 -44.5t0.5 -45t2.5 -40q4 -50 34.5 -83t92.5 -33t92 33t35 83zM200 750q-11 0 -19 8t-8 19v86q0 11 8 19t19 8h319q11 0 19 -8t8 -19v-86q0 -11 -8 -19
t-19 -8h-319z" />
    <glyph glyph-name="Oslash" unicode="&#xd8;" horiz-adv-x="756" 
d="M66 439q3 56 24.5 105.5t61 86t96 58t130.5 21.5q60 0 108.5 -14t86 -39.5t63 -60.5t39.5 -77l35 14q7 3 11 3q9 0 15 -6t6 -15v-58q0 -25 -22 -33l-29 -11q2 -38 1.5 -77.5t-2.5 -74.5q-3 -56 -24.5 -105.5t-61 -86.5t-96.5 -58t-130 -21q-60 0 -108.5 14t-86 39
t-63 59.5t-39.5 75.5l-35 -13q-8 -3 -11 -3q-9 0 -15 6t-6 15v58q0 25 22 33l28 11q-2 37 -1 77t3 77zM251 434q-3 -33 -3 -79l254 98q-8 42 -37.5 69.5t-86.5 27.5q-31 0 -54 -9t-38.5 -24.5t-24 -36.5t-10.5 -46zM505 266q2 16 2.5 36t0.5 40l-254 -97q9 -42 38.5 -68.5
t85.5 -26.5q62 0 92 33t35 83z" />
    <glyph glyph-name="Oslashacute" unicode="&#x1fe;" horiz-adv-x="756" 
d="M399 891q11 13 18.5 16t18.5 3h143q19 0 19 -20q0 -7 -5 -12l-135 -111q-8 -7 -17 -12t-25 -5h-98q-16 0 -16 16q0 8 5 13zM66 439q3 56 24.5 105.5t61 86t96 58t130.5 21.5q60 0 108.5 -14t86 -39.5t63 -60.5t39.5 -77l35 14q7 3 11 3q9 0 15 -6t6 -15v-58
q0 -25 -22 -33l-29 -11q2 -38 1.5 -77.5t-2.5 -74.5q-3 -56 -24.5 -105.5t-61 -86.5t-96.5 -58t-130 -21q-60 0 -108.5 14t-86 39t-63 59.5t-39.5 75.5l-35 -13q-8 -3 -11 -3q-9 0 -15 6t-6 15v58q0 25 22 33l28 11q-2 37 -1 77t3 77zM251 434q-3 -33 -3 -79l254 98
q-8 42 -37.5 69.5t-86.5 27.5q-31 0 -54 -9t-38.5 -24.5t-24 -36.5t-10.5 -46zM505 266q2 16 2.5 36t0.5 40l-254 -97q9 -42 38.5 -68.5t85.5 -26.5q62 0 92 33t35 83z" />
    <glyph glyph-name="Otilde" unicode="&#xd5;" 
d="M47 439q3 56 24.5 105.5t61 86t96 58t130.5 21.5q73 0 130 -21.5t96.5 -58t61 -86t24.5 -105.5q2 -43 2 -90t-2 -88q-3 -56 -24.5 -105.5t-61 -86.5t-96.5 -58t-130 -21q-74 0 -130.5 21t-96 58t-61 86.5t-24.5 105.5q-2 41 -2 88t2 90zM486 266q1 18 2 40t1 45t-1 44.5
t-2 38.5q-2 25 -10.5 46t-24 36.5t-38.5 24.5t-54 9t-54 -9t-38.5 -24.5t-24 -36.5t-10.5 -46q-2 -17 -2.5 -38.5t-0.5 -44.5t0.5 -45t2.5 -40q4 -50 34.5 -83t92.5 -33t92 33t35 83zM446 745q-31 0 -51 7t-35 15.5t-27.5 15.5t-28.5 7q-12 0 -18 -6.5t-10.5 -14t-8.5 -13.5
t-12 -6h-76q-9 0 -14 5.5t-5 13.5q0 22 6.5 46.5t20.5 44t35 32.5t50 13q31 0 51 -7t35 -15.5t27.5 -15.5t28.5 -7q12 0 18 6t10.5 13.5t8.5 14t12 6.5h76q9 0 14 -5.5t5 -13.5q0 -23 -8 -47t-23 -43.5t-35.5 -32.5t-45.5 -13z" />
    <glyph glyph-name="OE" unicode="&#x152;" horiz-adv-x="982" 
d="M909 160q11 0 19 -8t8 -19v-106q0 -11 -8 -19t-19 -8h-553q-69 0 -125 20.5t-96.5 57.5t-63.5 88t-26 113q-1 20 -1.5 37t-0.5 33t0.5 33.5t1.5 38.5q3 61 26.5 112.5t65 88.5t98.5 57.5t126 20.5h540q11 0 19 -8t8 -19v-106q0 -11 -8 -19t-19 -8h-278v-108h256
q11 0 19 -8t8 -19v-106q0 -11 -8 -19t-19 -8h-256v-112h286zM230 425q-1 -21 -1.5 -39t-0.5 -35.5t0.5 -36t1.5 -39.5q5 -115 131 -115h77v380h-72q-130 0 -136 -115z" />
    <glyph glyph-name="P" unicode="P" horiz-adv-x="686" 
d="M383 700q64 0 115 -14.5t87 -44t55.5 -73.5t19.5 -102q0 -59 -19.5 -103t-55.5 -73t-87 -44t-115 -15h-128v-204q0 -11 -8 -19t-19 -8h-131q-11 0 -19 8t-8 19v646q0 11 8 19t19 8h286zM255 387h123q42 0 69.5 18.5t27.5 60.5t-27.5 60.5t-69.5 18.5h-123v-158z" />
    <glyph glyph-name="Q" unicode="Q" 
d="M47 439q3 56 24.5 105.5t61 86t96 58t130.5 21.5q73 0 130 -21.5t96.5 -58t61 -86t24.5 -105.5q2 -43 2 -90t-2 -88q-3 -53 -21.5 -99t-52.5 -82l79 -114q1 -2 2 -4.5t1 -4.5q2 -9 -4.5 -15.5t-15.5 -6.5h-141q-19 0 -28 8.5t-14 14.5l-28 42q-21 -5 -43 -7.5t-46 -2.5
q-74 0 -130.5 21t-96 58t-61 86.5t-24.5 105.5q-2 41 -2 88t2 90zM486 266q1 18 2 40t1 45t-1 44.5t-2 38.5q-2 25 -10.5 46t-24 36.5t-38.5 24.5t-54 9t-54 -9t-38.5 -24.5t-24 -36.5t-10.5 -46q-2 -17 -2.5 -38.5t-0.5 -44.5t0.5 -45t2.5 -40q4 -50 34.5 -83t92.5 -33
t92 33t35 83z" />
    <glyph glyph-name="R" unicode="R" horiz-adv-x="695" 
d="M368 700q66 0 118 -14t88.5 -42t56 -71.5t19.5 -101.5q0 -75 -31 -124.5t-88 -75.5l124 -238q3 -6 3 -11q0 -9 -6.5 -15.5t-15.5 -6.5h-136q-20 0 -28.5 9t-13.5 18l-111 214h-92v-214q0 -11 -8 -19t-19 -8h-131q-11 0 -19 8t-8 19v646q0 11 8 19t19 8h271zM255 397h113
q42 0 69.5 16t27.5 58t-27.5 58t-69.5 16h-113v-148z" />
    <glyph glyph-name="Racute" unicode="&#x154;" horiz-adv-x="695" 
d="M368 700q66 0 118 -14t88.5 -42t56 -71.5t19.5 -101.5q0 -75 -31 -124.5t-88 -75.5l124 -238q3 -6 3 -11q0 -9 -6.5 -15.5t-15.5 -6.5h-136q-20 0 -28.5 9t-13.5 18l-111 214h-92v-214q0 -11 -8 -19t-19 -8h-131q-11 0 -19 8t-8 19v646q0 11 8 19t19 8h271zM255 397h113
q42 0 69.5 16t27.5 58t-27.5 58t-69.5 16h-113v-148zM363 891q11 13 18.5 16t18.5 3h143q19 0 19 -20q0 -7 -5 -12l-135 -111q-8 -7 -17 -12t-25 -5h-98q-16 0 -16 16q0 8 5 13z" />
    <glyph glyph-name="Rcaron" unicode="&#x158;" horiz-adv-x="695" 
d="M368 700q66 0 118 -14t88.5 -42t56 -71.5t19.5 -101.5q0 -75 -31 -124.5t-88 -75.5l124 -238q3 -6 3 -11q0 -9 -6.5 -15.5t-15.5 -6.5h-136q-20 0 -28.5 9t-13.5 18l-111 214h-92v-214q0 -11 -8 -19t-19 -8h-131q-11 0 -19 8t-8 19v646q0 11 8 19t19 8h271zM255 397h113
q42 0 69.5 16t27.5 58t-27.5 58t-69.5 16h-113v-148zM295 750q-11 0 -19 4t-18 15l-102 112q-5 5 -5 13q0 16 16 16h72q10 0 16 -3t15 -8l74 -43l74 43q9 5 15 8t16 3h72q16 0 16 -16q0 -8 -5 -13l-102 -112q-10 -11 -18 -15t-19 -4h-98z" />
    <glyph glyph-name="Rcommaaccent" unicode="&#x156;" horiz-adv-x="695" 
d="M368 700q66 0 118 -14t88.5 -42t56 -71.5t19.5 -101.5q0 -75 -31 -124.5t-88 -75.5l124 -238q3 -6 3 -11q0 -9 -6.5 -15.5t-15.5 -6.5h-136q-20 0 -28.5 9t-13.5 18l-111 214h-92v-214q0 -11 -8 -19t-19 -8h-131q-11 0 -19 8t-8 19v646q0 11 8 19t19 8h271zM255 397h113
q42 0 69.5 16t27.5 58t-27.5 58t-69.5 16h-113v-148zM251 -89q2 14 12.5 26.5t30.5 12.5h123q9 0 15.5 -6.5t6.5 -15.5q0 -4 -1 -7l-55 -139q-4 -10 -13.5 -21t-29.5 -11h-89q-9 0 -15.5 6.5t-6.5 15.5v2z" />
    <glyph glyph-name="S" unicode="S" horiz-adv-x="674" 
d="M330 710q64 0 117.5 -18.5t92.5 -47.5t61 -64t23 -67q0 -9 -6.5 -15.5t-14.5 -6.5h-131q-14 0 -22.5 4t-17.5 12q-3 3 -9.5 10t-18.5 14.5t-30 13t-44 5.5q-19 0 -36.5 -2.5t-31 -8t-22 -15.5t-8.5 -25t9.5 -25t32 -18.5t59.5 -16.5t92 -19t96 -28t68.5 -42.5t41 -60
t13.5 -81.5q0 -51 -23 -91t-64.5 -68.5t-98 -43.5t-123.5 -15q-68 0 -124 18t-96.5 47.5t-63.5 66.5t-24 75q0 9 6.5 15.5t14.5 6.5h131q14 0 22 -3.5t16 -10.5q4 -4 12 -13t21.5 -18.5t34 -16.5t50.5 -7q53 0 88.5 11.5t35.5 41.5q0 15 -13 25t-39 18.5t-66.5 16.5
t-95.5 20q-103 22 -150.5 73.5t-47.5 137.5q0 43 19.5 82t56.5 69t89.5 47.5t117.5 17.5z" />
    <glyph glyph-name="Sacute" unicode="&#x15a;" horiz-adv-x="674" 
d="M330 710q64 0 117.5 -18.5t92.5 -47.5t61 -64t23 -67q0 -9 -6.5 -15.5t-14.5 -6.5h-131q-14 0 -22.5 4t-17.5 12q-3 3 -9.5 10t-18.5 14.5t-30 13t-44 5.5q-19 0 -36.5 -2.5t-31 -8t-22 -15.5t-8.5 -25t9.5 -25t32 -18.5t59.5 -16.5t92 -19t96 -28t68.5 -42.5t41 -60
t13.5 -81.5q0 -51 -23 -91t-64.5 -68.5t-98 -43.5t-123.5 -15q-68 0 -124 18t-96.5 47.5t-63.5 66.5t-24 75q0 9 6.5 15.5t14.5 6.5h131q14 0 22 -3.5t16 -10.5q4 -4 12 -13t21.5 -18.5t34 -16.5t50.5 -7q53 0 88.5 11.5t35.5 41.5q0 15 -13 25t-39 18.5t-66.5 16.5
t-95.5 20q-103 22 -150.5 73.5t-47.5 137.5q0 43 19.5 82t56.5 69t89.5 47.5t117.5 17.5zM358 891q11 13 18.5 16t18.5 3h143q19 0 19 -20q0 -7 -5 -12l-135 -111q-8 -7 -17 -12t-25 -5h-98q-16 0 -16 16q0 8 5 13z" />
    <glyph glyph-name="Scaron" unicode="&#x160;" horiz-adv-x="674" 
d="M330 710q64 0 117.5 -18.5t92.5 -47.5t61 -64t23 -67q0 -9 -6.5 -15.5t-14.5 -6.5h-131q-14 0 -22.5 4t-17.5 12q-3 3 -9.5 10t-18.5 14.5t-30 13t-44 5.5q-19 0 -36.5 -2.5t-31 -8t-22 -15.5t-8.5 -25t9.5 -25t32 -18.5t59.5 -16.5t92 -19t96 -28t68.5 -42.5t41 -60
t13.5 -81.5q0 -51 -23 -91t-64.5 -68.5t-98 -43.5t-123.5 -15q-68 0 -124 18t-96.5 47.5t-63.5 66.5t-24 75q0 9 6.5 15.5t14.5 6.5h131q14 0 22 -3.5t16 -10.5q4 -4 12 -13t21.5 -18.5t34 -16.5t50.5 -7q53 0 88.5 11.5t35.5 41.5q0 15 -13 25t-39 18.5t-66.5 16.5
t-95.5 20q-103 22 -150.5 73.5t-47.5 137.5q0 43 19.5 82t56.5 69t89.5 47.5t117.5 17.5zM286 750q-11 0 -19 4t-18 15l-102 112q-5 5 -5 13q0 16 16 16h72q10 0 16 -3t15 -8l74 -43l74 43q9 5 15 8t16 3h72q16 0 16 -16q0 -8 -5 -13l-102 -112q-10 -11 -18 -15t-19 -4h-98z
" />
    <glyph glyph-name="Scedilla" unicode="&#x15e;" horiz-adv-x="674" 
d="M330 710q64 0 117.5 -18.5t92.5 -47.5t61 -64t23 -67q0 -9 -6.5 -15.5t-14.5 -6.5h-131q-14 0 -22.5 4t-17.5 12q-3 3 -9.5 10t-18.5 14.5t-30 13t-44 5.5q-19 0 -36.5 -2.5t-31 -8t-22 -15.5t-8.5 -25t9.5 -25t32 -18.5t59.5 -16.5t92 -19t96 -28t68.5 -42.5t41 -60
t13.5 -81.5q0 -50 -22.5 -90t-62.5 -68t-95 -43.5t-121 -16.5l-21 -44q6 4 16 7t21 3q38 0 57 -26t19 -62t-27 -62t-72 -26q-16 0 -33.5 5t-30 13t-17.5 16.5t4 16.5l18 16q8 7 13.5 7t11 -3t13.5 -6.5t21 -3.5q14 0 23.5 6t9.5 21q0 14 -9 20.5t-24 6.5q-7 0 -14.5 -2
t-14.5 -3.5t-13.5 -1t-11.5 5.5l-18 21q-6 8 -7.5 13.5t5.5 19.5l21 45q-57 7 -104 27t-80.5 48t-52 61.5t-19.5 67.5q0 9 6.5 15.5t14.5 6.5h131q14 0 22 -3.5t16 -10.5q4 -4 12 -13t21.5 -18.5t34 -16.5t50.5 -7q53 0 88.5 11.5t35.5 41.5q0 15 -13 25t-39 18.5
t-66.5 16.5t-95.5 20q-103 22 -150.5 73.5t-47.5 137.5q0 43 19.5 82t56.5 69t89.5 47.5t117.5 17.5z" />
    <glyph glyph-name="Scircumflex" unicode="&#x15c;" horiz-adv-x="674" 
d="M330 710q64 0 117.5 -18.5t92.5 -47.5t61 -64t23 -67q0 -9 -6.5 -15.5t-14.5 -6.5h-131q-14 0 -22.5 4t-17.5 12q-3 3 -9.5 10t-18.5 14.5t-30 13t-44 5.5q-19 0 -36.5 -2.5t-31 -8t-22 -15.5t-8.5 -25t9.5 -25t32 -18.5t59.5 -16.5t92 -19t96 -28t68.5 -42.5t41 -60
t13.5 -81.5q0 -51 -23 -91t-64.5 -68.5t-98 -43.5t-123.5 -15q-68 0 -124 18t-96.5 47.5t-63.5 66.5t-24 75q0 9 6.5 15.5t14.5 6.5h131q14 0 22 -3.5t16 -10.5q4 -4 12 -13t21.5 -18.5t34 -16.5t50.5 -7q53 0 88.5 11.5t35.5 41.5q0 15 -13 25t-39 18.5t-66.5 16.5
t-95.5 20q-103 22 -150.5 73.5t-47.5 137.5q0 43 19.5 82t56.5 69t89.5 47.5t117.5 17.5zM384 910q11 0 19 -4t18 -15l102 -112q5 -5 5 -13q0 -16 -16 -16h-72q-10 0 -16 3t-15 8l-74 43l-74 -43q-9 -5 -15 -8t-16 -3h-72q-16 0 -16 16q0 8 5 13l102 112q10 11 18 15t19 4
h98z" />
    <glyph glyph-name="Scommaaccent" unicode="&#x218;" horiz-adv-x="674" 
d="M330 710q64 0 117.5 -18.5t92.5 -47.5t61 -64t23 -67q0 -9 -6.5 -15.5t-14.5 -6.5h-131q-14 0 -22.5 4t-17.5 12q-3 3 -9.5 10t-18.5 14.5t-30 13t-44 5.5q-19 0 -36.5 -2.5t-31 -8t-22 -15.5t-8.5 -25t9.5 -25t32 -18.5t59.5 -16.5t92 -19t96 -28t68.5 -42.5t41 -60
t13.5 -81.5q0 -51 -23 -91t-64.5 -68.5t-98 -43.5t-123.5 -15q-68 0 -124 18t-96.5 47.5t-63.5 66.5t-24 75q0 9 6.5 15.5t14.5 6.5h131q14 0 22 -3.5t16 -10.5q4 -4 12 -13t21.5 -18.5t34 -16.5t50.5 -7q53 0 88.5 11.5t35.5 41.5q0 15 -13 25t-39 18.5t-66.5 16.5
t-95.5 20q-103 22 -150.5 73.5t-47.5 137.5q0 43 19.5 82t56.5 69t89.5 47.5t117.5 17.5zM241 -89q2 14 12.5 26.5t30.5 12.5h123q9 0 15.5 -6.5t6.5 -15.5q0 -4 -1 -7l-55 -139q-4 -10 -13.5 -21t-29.5 -11h-89q-9 0 -15.5 6.5t-6.5 15.5v2z" />
    <glyph glyph-name="T" unicode="T" horiz-adv-x="631" 
d="M584 700q11 0 19 -8t8 -19v-106q0 -11 -8 -19t-19 -8h-176v-513q0 -11 -8 -19t-19 -8h-131q-11 0 -19 8t-8 19v513h-176q-11 0 -19 8t-8 19v106q0 11 8 19t19 8h537z" />
    <glyph glyph-name="Tbar" unicode="&#x166;" horiz-adv-x="640" 
d="M412 287v-260q0 -11 -8 -19t-19 -8h-131q-11 0 -19 8t-8 19v260h-93q-11 0 -19 8t-8 19v53q0 11 8 19t19 8h93v146h-176q-11 0 -19 8t-8 19v106q0 11 8 19t19 8h537q11 0 19 -8t8 -19v-106q0 -11 -8 -19t-19 -8h-176v-146h93q11 0 19 -8t8 -19v-53q0 -11 -8 -19t-19 -8
h-93z" />
    <glyph glyph-name="Tcaron" unicode="&#x164;" horiz-adv-x="631" 
d="M584 700q11 0 19 -8t8 -19v-106q0 -11 -8 -19t-19 -8h-176v-513q0 -11 -8 -19t-19 -8h-131q-11 0 -19 8t-8 19v513h-176q-11 0 -19 8t-8 19v106q0 11 8 19t19 8h537zM266 750q-11 0 -19 4t-18 15l-102 112q-5 5 -5 13q0 16 16 16h72q10 0 16 -3t15 -8l74 -43l74 43
q9 5 15 8t16 3h72q16 0 16 -16q0 -8 -5 -13l-102 -112q-10 -11 -18 -15t-19 -4h-98z" />
    <glyph glyph-name="Tcommaaccent" unicode="&#x162;" horiz-adv-x="631" 
d="M584 700q11 0 19 -8t8 -19v-106q0 -11 -8 -19t-19 -8h-176v-513q0 -11 -8 -19t-19 -8h-131q-11 0 -19 8t-8 19v513h-176q-11 0 -19 8t-8 19v106q0 11 8 19t19 8h537zM220 -89q2 14 12.5 26.5t30.5 12.5h123q9 0 15.5 -6.5t6.5 -15.5q0 -4 -1 -7l-55 -139
q-4 -10 -13.5 -21t-29.5 -11h-89q-9 0 -15.5 6.5t-6.5 15.5v2z" />
    <glyph glyph-name="U" unicode="U" horiz-adv-x="734" 
d="M644 700q11 0 19 -8t8 -19v-399q0 -69 -22 -122t-62.5 -89t-96.5 -54.5t-123 -18.5q-68 0 -124 18.5t-96 54.5t-62 89t-22 122v399q0 11 8 19t19 8h131q11 0 19 -8t8 -19v-395q0 -60 29.5 -94t89.5 -34t89.5 34t29.5 94v395q0 11 8 19t19 8h131z" />
    <glyph glyph-name="Uacute" unicode="&#xda;" horiz-adv-x="734" 
d="M644 700q11 0 19 -8t8 -19v-399q0 -69 -22 -122t-62.5 -89t-96.5 -54.5t-123 -18.5q-68 0 -124 18.5t-96 54.5t-62 89t-22 122v399q0 11 8 19t19 8h131q11 0 19 -8t8 -19v-395q0 -60 29.5 -94t89.5 -34t89.5 34t29.5 94v395q0 11 8 19t19 8h131zM381 891q11 13 18.5 16
t18.5 3h143q19 0 19 -20q0 -7 -5 -12l-135 -111q-8 -7 -17 -12t-25 -5h-98q-16 0 -16 16q0 8 5 13z" />
    <glyph glyph-name="Ubreve" unicode="&#x16c;" horiz-adv-x="734" 
d="M644 700q11 0 19 -8t8 -19v-399q0 -69 -22 -122t-62.5 -89t-96.5 -54.5t-123 -18.5q-68 0 -124 18.5t-96 54.5t-62 89t-22 122v399q0 11 8 19t19 8h131q11 0 19 -8t8 -19v-395q0 -60 29.5 -94t89.5 -34t89.5 34t29.5 94v395q0 11 8 19t19 8h131zM367 745q-46 0 -78 13.5
t-52.5 35t-29.5 47.5t-9 50q0 8 5 13.5t14 5.5h84q9 0 14 -5.5t5 -13.5q0 -19 12 -34.5t35 -15.5t35 15.5t12 34.5q0 8 5 13.5t14 5.5h84q9 0 14 -5.5t5 -13.5q0 -24 -9 -50t-29.5 -47.5t-52.5 -35t-78 -13.5z" />
    <glyph glyph-name="Ucircumflex" unicode="&#xdb;" horiz-adv-x="734" 
d="M644 700q11 0 19 -8t8 -19v-399q0 -69 -22 -122t-62.5 -89t-96.5 -54.5t-123 -18.5q-68 0 -124 18.5t-96 54.5t-62 89t-22 122v399q0 11 8 19t19 8h131q11 0 19 -8t8 -19v-395q0 -60 29.5 -94t89.5 -34t89.5 34t29.5 94v395q0 11 8 19t19 8h131zM416 910q11 0 19 -4
t18 -15l102 -112q5 -5 5 -13q0 -16 -16 -16h-72q-10 0 -16 3t-15 8l-74 43l-74 -43q-9 -5 -15 -8t-16 -3h-72q-16 0 -16 16q0 8 5 13l102 112q10 11 18 15t19 4h98z" />
    <glyph glyph-name="Udieresis" unicode="&#xdc;" horiz-adv-x="734" 
d="M644 700q11 0 19 -8t8 -19v-399q0 -69 -22 -122t-62.5 -89t-96.5 -54.5t-123 -18.5q-68 0 -124 18.5t-96 54.5t-62 89t-22 122v399q0 11 8 19t19 8h131q11 0 19 -8t8 -19v-395q0 -60 29.5 -94t89.5 -34t89.5 34t29.5 94v395q0 11 8 19t19 8h131zM317 777q0 -11 -8 -19
t-19 -8h-101q-11 0 -19 8t-8 19v101q0 11 8 19t19 8h101q11 0 19 -8t8 -19v-101zM572 777q0 -11 -8 -19t-19 -8h-101q-11 0 -19 8t-8 19v101q0 11 8 19t19 8h101q11 0 19 -8t8 -19v-101z" />
    <glyph glyph-name="Ugrave" unicode="&#xd9;" horiz-adv-x="734" 
d="M644 700q11 0 19 -8t8 -19v-399q0 -69 -22 -122t-62.5 -89t-96.5 -54.5t-123 -18.5q-68 0 -124 18.5t-96 54.5t-62 89t-22 122v399q0 11 8 19t19 8h131q11 0 19 -8t8 -19v-395q0 -60 29.5 -94t89.5 -34t89.5 34t29.5 94v395q0 11 8 19t19 8h131zM444 779q5 -5 5 -13
q0 -16 -16 -16h-98q-16 0 -25 5t-17 12l-135 111q-5 5 -5 12q0 20 19 20h143q11 0 18.5 -3t18.5 -16z" />
    <glyph glyph-name="Uhungarumlaut" unicode="&#x170;" horiz-adv-x="734" 
d="M644 700q11 0 19 -8t8 -19v-399q0 -69 -22 -122t-62.5 -89t-96.5 -54.5t-123 -18.5q-68 0 -124 18.5t-96 54.5t-62 89t-22 122v399q0 11 8 19t19 8h131q11 0 19 -8t8 -19v-395q0 -60 29.5 -94t89.5 -34t89.5 34t29.5 94v395q0 11 8 19t19 8h131zM232 891q5 10 13 14.5
t24 4.5h122q20 0 20 -19q0 -7 -6 -13l-105 -114q-12 -14 -34 -14h-73q-16 0 -16 16q0 4 1.5 8t3.5 7zM463 891q5 10 13 14.5t24 4.5h122q20 0 20 -19q0 -7 -6 -13l-105 -114q-12 -14 -34 -14h-73q-16 0 -16 16q0 4 1.5 8t3.5 7z" />
    <glyph glyph-name="Umacron" unicode="&#x16a;" horiz-adv-x="734" 
d="M644 700q11 0 19 -8t8 -19v-399q0 -69 -22 -122t-62.5 -89t-96.5 -54.5t-123 -18.5q-68 0 -124 18.5t-96 54.5t-62 89t-22 122v399q0 11 8 19t19 8h131q11 0 19 -8t8 -19v-395q0 -60 29.5 -94t89.5 -34t89.5 34t29.5 94v395q0 11 8 19t19 8h131zM208 750q-11 0 -19 8
t-8 19v86q0 11 8 19t19 8h319q11 0 19 -8t8 -19v-86q0 -11 -8 -19t-19 -8h-319z" />
    <glyph glyph-name="Uogonek" unicode="&#x172;" horiz-adv-x="734" 
d="M644 700q11 0 19 -8t8 -19v-399q0 -68 -20 -117.5t-56 -83.5t-86 -53.5t-111 -28.5q-17 -2 -26.5 -14.5t-9.5 -32.5q0 -23 14 -39.5t40 -16.5h15q22 0 22 -22v-64q0 -22 -22 -22h-19q-38 0 -68 12.5t-51 34t-32 51.5t-11 66q0 17 2.5 32t7.5 27q-91 25 -144 93.5
t-53 177.5v399q0 11 8 19t19 8h131q11 0 19 -8t8 -19v-395q0 -60 29.5 -94t89.5 -34t89.5 34t29.5 94v395q0 11 8 19t19 8h131z" />
    <glyph glyph-name="Uring" unicode="&#x16e;" horiz-adv-x="734" 
d="M644 700q11 0 19 -8t8 -19v-399q0 -69 -22 -122t-62.5 -89t-96.5 -54.5t-123 -18.5q-68 0 -124 18.5t-96 54.5t-62 89t-22 122v399q0 11 8 19t19 8h131q11 0 19 -8t8 -19v-395q0 -60 29.5 -94t89.5 -34t89.5 34t29.5 94v395q0 11 8 19t19 8h131zM337 830q0 -13 8.5 -21.5
t21.5 -8.5t21.5 8.5t8.5 21.5t-8.5 21.5t-21.5 8.5t-21.5 -8.5t-8.5 -21.5zM272 830q0 39 28 64.5t67 25.5t67 -25.5t28 -64.5t-28 -64.5t-67 -25.5t-67 25.5t-28 64.5z" />
    <glyph glyph-name="Utilde" unicode="&#x168;" horiz-adv-x="734" 
d="M644 700q11 0 19 -8t8 -19v-399q0 -69 -22 -122t-62.5 -89t-96.5 -54.5t-123 -18.5q-68 0 -124 18.5t-96 54.5t-62 89t-22 122v399q0 11 8 19t19 8h131q11 0 19 -8t8 -19v-395q0 -60 29.5 -94t89.5 -34t89.5 34t29.5 94v395q0 11 8 19t19 8h131zM454 745q-31 0 -51 7
t-35 15.5t-27.5 15.5t-28.5 7q-12 0 -18 -6.5t-10.5 -14t-8.5 -13.5t-12 -6h-76q-9 0 -14 5.5t-5 13.5q0 22 6.5 46.5t20.5 44t35 32.5t50 13q31 0 51 -7t35 -15.5t27.5 -15.5t28.5 -7q12 0 18 6t10.5 13.5t8.5 14t12 6.5h76q9 0 14 -5.5t5 -13.5q0 -23 -8 -47t-23 -43.5
t-35.5 -32.5t-45.5 -13z" />
    <glyph glyph-name="V" unicode="V" horiz-adv-x="696" 
d="M282 0q-39 0 -53 40l-204 625q-2 7 -2.5 9t-0.5 4q0 9 6.5 15.5t15.5 6.5h126q20 0 28.5 -8.5t10.5 -16.5l139 -440l139 440q2 8 10.5 16.5t28.5 8.5h126q9 0 15.5 -6.5t6.5 -15.5q0 -2 -0.5 -4t-2.5 -9l-204 -625q-14 -40 -53 -40h-132z" />
    <glyph glyph-name="W" unicode="W" horiz-adv-x="832" 
d="M556 335l64 338q3 15 12 21t19 6h131q9 0 15.5 -6.5t6.5 -15.5q0 -3 -1 -8l-129 -632q-2 -14 -16 -26t-34 -12h-83q-20 0 -32.5 12t-17.5 26l-75 226l-75 -226q-5 -14 -17.5 -26t-32.5 -12h-83q-20 0 -34 12t-16 26l-129 632q-1 5 -1 8q0 9 6.5 15.5t15.5 6.5h131
q10 0 19 -6t12 -21l64 -338l59 181q2 7 9 18t25 11h94q18 0 25 -11t9 -18z" />
    <glyph glyph-name="Wacute" unicode="&#x1e82;" horiz-adv-x="832" 
d="M556 335l64 338q3 15 12 21t19 6h131q9 0 15.5 -6.5t6.5 -15.5q0 -3 -1 -8l-129 -632q-2 -14 -16 -26t-34 -12h-83q-20 0 -32.5 12t-17.5 26l-75 226l-75 -226q-5 -14 -17.5 -26t-32.5 -12h-83q-20 0 -34 12t-16 26l-129 632q-1 5 -1 8q0 9 6.5 15.5t15.5 6.5h131
q10 0 19 -6t12 -21l64 -338l59 181q2 7 9 18t25 11h94q18 0 25 -11t9 -18zM440 891q11 13 18.5 16t18.5 3h143q19 0 19 -20q0 -7 -5 -12l-135 -111q-8 -7 -17 -12t-25 -5h-98q-16 0 -16 16q0 8 5 13z" />
    <glyph glyph-name="Wcircumflex" unicode="&#x174;" horiz-adv-x="832" 
d="M556 335l64 338q3 15 12 21t19 6h131q9 0 15.5 -6.5t6.5 -15.5q0 -3 -1 -8l-129 -632q-2 -14 -16 -26t-34 -12h-83q-20 0 -32.5 12t-17.5 26l-75 226l-75 -226q-5 -14 -17.5 -26t-32.5 -12h-83q-20 0 -34 12t-16 26l-129 632q-1 5 -1 8q0 9 6.5 15.5t15.5 6.5h131
q10 0 19 -6t12 -21l64 -338l59 181q2 7 9 18t25 11h94q18 0 25 -11t9 -18zM465 910q11 0 19 -4t18 -15l102 -112q5 -5 5 -13q0 -16 -16 -16h-72q-10 0 -16 3t-15 8l-74 43l-74 -43q-9 -5 -15 -8t-16 -3h-72q-16 0 -16 16q0 8 5 13l102 112q10 11 18 15t19 4h98z" />
    <glyph glyph-name="Wdieresis" unicode="&#x1e84;" horiz-adv-x="832" 
d="M556 335l64 338q3 15 12 21t19 6h131q9 0 15.5 -6.5t6.5 -15.5q0 -3 -1 -8l-129 -632q-2 -14 -16 -26t-34 -12h-83q-20 0 -32.5 12t-17.5 26l-75 226l-75 -226q-5 -14 -17.5 -26t-32.5 -12h-83q-20 0 -34 12t-16 26l-129 632q-1 5 -1 8q0 9 6.5 15.5t15.5 6.5h131
q10 0 19 -6t12 -21l64 -338l59 181q2 7 9 18t25 11h94q18 0 25 -11t9 -18zM366 777q0 -11 -8 -19t-19 -8h-101q-11 0 -19 8t-8 19v101q0 11 8 19t19 8h101q11 0 19 -8t8 -19v-101zM621 777q0 -11 -8 -19t-19 -8h-101q-11 0 -19 8t-8 19v101q0 11 8 19t19 8h101q11 0 19 -8
t8 -19v-101z" />
    <glyph glyph-name="Wgrave" unicode="&#x1e80;" horiz-adv-x="832" 
d="M556 335l64 338q3 15 12 21t19 6h131q9 0 15.5 -6.5t6.5 -15.5q0 -3 -1 -8l-129 -632q-2 -14 -16 -26t-34 -12h-83q-20 0 -32.5 12t-17.5 26l-75 226l-75 -226q-5 -14 -17.5 -26t-32.5 -12h-83q-20 0 -34 12t-16 26l-129 632q-1 5 -1 8q0 9 6.5 15.5t15.5 6.5h131
q10 0 19 -6t12 -21l64 -338l59 181q2 7 9 18t25 11h94q18 0 25 -11t9 -18zM486 779q5 -5 5 -13q0 -16 -16 -16h-98q-16 0 -25 5t-17 12l-135 111q-5 5 -5 12q0 20 19 20h143q11 0 18.5 -3t18.5 -16z" />
    <glyph glyph-name="X" unicode="X" horiz-adv-x="711" 
d="M354 203l-128 -180q-6 -9 -13.5 -16t-27.5 -7h-152q-9 0 -15.5 6.5t-6.5 15.5q0 2 0.5 4.5t2.5 6.5l231 323l-221 311q-3 6 -3 11q0 9 6.5 15.5t15.5 6.5h151q20 0 29 -10t13 -15l121 -169l117 169q4 5 13 15t29 10h153q9 0 15.5 -6.5t6.5 -15.5q0 -5 -3 -11l-222 -315
l229 -319q2 -4 2.5 -6.5t0.5 -4.5q0 -9 -6.5 -15.5t-15.5 -6.5h-152q-20 0 -27.5 7t-13.5 16z" />
    <glyph glyph-name="Y" unicode="Y" horiz-adv-x="687" 
d="M436 27q0 -11 -8 -19t-19 -8h-131q-11 0 -19 8t-8 19v213l-231 425q-4 7 -4 13q0 9 6.5 15.5t15.5 6.5h137q20 0 30 -10t12 -15l126 -246l127 246q2 5 12 15t30 10h137q9 0 15.5 -6.5t6.5 -15.5q0 -6 -4 -13l-231 -425v-213z" />
    <glyph glyph-name="Yacute" unicode="&#xdd;" horiz-adv-x="687" 
d="M436 27q0 -11 -8 -19t-19 -8h-131q-11 0 -19 8t-8 19v213l-231 425q-4 7 -4 13q0 9 6.5 15.5t15.5 6.5h137q20 0 30 -10t12 -15l126 -246l127 246q2 5 12 15t30 10h137q9 0 15.5 -6.5t6.5 -15.5q0 -6 -4 -13l-231 -425v-213zM360 891q11 13 18.5 16t18.5 3h143
q19 0 19 -20q0 -7 -5 -12l-135 -111q-8 -7 -17 -12t-25 -5h-98q-16 0 -16 16q0 8 5 13z" />
    <glyph glyph-name="Ycircumflex" unicode="&#x176;" horiz-adv-x="687" 
d="M436 27q0 -11 -8 -19t-19 -8h-131q-11 0 -19 8t-8 19v213l-231 425q-4 7 -4 13q0 9 6.5 15.5t15.5 6.5h137q20 0 30 -10t12 -15l126 -246l127 246q2 5 12 15t30 10h137q9 0 15.5 -6.5t6.5 -15.5q0 -6 -4 -13l-231 -425v-213zM392 910q11 0 19 -4t18 -15l102 -112
q5 -5 5 -13q0 -16 -16 -16h-72q-10 0 -16 3t-15 8l-74 43l-74 -43q-9 -5 -15 -8t-16 -3h-72q-16 0 -16 16q0 8 5 13l102 112q10 11 18 15t19 4h98z" />
    <glyph glyph-name="Ydieresis" unicode="&#x178;" horiz-adv-x="687" 
d="M436 27q0 -11 -8 -19t-19 -8h-131q-11 0 -19 8t-8 19v213l-231 425q-4 7 -4 13q0 9 6.5 15.5t15.5 6.5h137q20 0 30 -10t12 -15l126 -246l127 246q2 5 12 15t30 10h137q9 0 15.5 -6.5t6.5 -15.5q0 -6 -4 -13l-231 -425v-213zM293 777q0 -11 -8 -19t-19 -8h-101
q-11 0 -19 8t-8 19v101q0 11 8 19t19 8h101q11 0 19 -8t8 -19v-101zM548 777q0 -11 -8 -19t-19 -8h-101q-11 0 -19 8t-8 19v101q0 11 8 19t19 8h101q11 0 19 -8t8 -19v-101z" />
    <glyph glyph-name="Ygrave" unicode="&#x1ef2;" horiz-adv-x="687" 
d="M436 27q0 -11 -8 -19t-19 -8h-131q-11 0 -19 8t-8 19v213l-231 425q-4 7 -4 13q0 9 6.5 15.5t15.5 6.5h137q20 0 30 -10t12 -15l126 -246l127 246q2 5 12 15t30 10h137q9 0 15.5 -6.5t6.5 -15.5q0 -6 -4 -13l-231 -425v-213zM425 779q5 -5 5 -13q0 -16 -16 -16h-98
q-16 0 -25 5t-17 12l-135 111q-5 5 -5 12q0 20 19 20h143q11 0 18.5 -3t18.5 -16z" />
    <glyph glyph-name="Z" unicode="Z" horiz-adv-x="668" 
d="M602 160q11 0 19 -8t8 -19v-106q0 -11 -8 -19t-19 -8h-536q-11 0 -19 8t-8 19v101q0 14 5 22t10 13l320 377h-298q-11 0 -19 8t-8 19v106q0 11 8 19t19 8h516q11 0 19 -8t8 -19v-101q0 -19 -13 -33l-320 -379h316z" />
    <glyph glyph-name="Zacute" unicode="&#x179;" horiz-adv-x="668" 
d="M602 160q11 0 19 -8t8 -19v-106q0 -11 -8 -19t-19 -8h-536q-11 0 -19 8t-8 19v101q0 14 5 22t10 13l320 377h-298q-11 0 -19 8t-8 19v106q0 11 8 19t19 8h516q11 0 19 -8t8 -19v-101q0 -19 -13 -33l-320 -379h316zM352 891q11 13 18.5 16t18.5 3h143q19 0 19 -20
q0 -7 -5 -12l-135 -111q-8 -7 -17 -12t-25 -5h-98q-16 0 -16 16q0 8 5 13z" />
    <glyph glyph-name="Zcaron" unicode="&#x17d;" horiz-adv-x="668" 
d="M602 160q11 0 19 -8t8 -19v-106q0 -11 -8 -19t-19 -8h-536q-11 0 -19 8t-8 19v101q0 14 5 22t10 13l320 377h-298q-11 0 -19 8t-8 19v106q0 11 8 19t19 8h516q11 0 19 -8t8 -19v-101q0 -19 -13 -33l-320 -379h316zM285 750q-11 0 -19 4t-18 15l-102 112q-5 5 -5 13
q0 16 16 16h72q10 0 16 -3t15 -8l74 -43l74 43q9 5 15 8t16 3h72q16 0 16 -16q0 -8 -5 -13l-102 -112q-10 -11 -18 -15t-19 -4h-98z" />
    <glyph glyph-name="Zdotaccent" unicode="&#x17b;" horiz-adv-x="668" 
d="M602 160q11 0 19 -8t8 -19v-106q0 -11 -8 -19t-19 -8h-536q-11 0 -19 8t-8 19v101q0 14 5 22t10 13l320 377h-298q-11 0 -19 8t-8 19v106q0 11 8 19t19 8h516q11 0 19 -8t8 -19v-101q0 -19 -13 -33l-320 -379h316zM417 777q0 -11 -8 -19t-19 -8h-111q-11 0 -19 8t-8 19
v111q0 11 8 19t19 8h111q11 0 19 -8t8 -19v-111z" />
    <glyph glyph-name="a" unicode="a" horiz-adv-x="589" 
d="M24 148q0 66 50.5 109t164.5 63l117 20q0 24 -13 39.5t-45 15.5q-23 0 -35.5 -6.5t-18.5 -11.5q-9 -8 -17 -10t-19 -2h-127q-10 0 -16.5 6t-5.5 16q2 23 20 48t49.5 46t75 35t94.5 14q61 0 106 -15t74.5 -41.5t43.5 -63t14 -80.5v-303q0 -11 -8 -19t-19 -8h-126
q-11 0 -19 8t-8 19v28q-24 -30 -59.5 -47.5t-93.5 -17.5q-43 0 -76.5 12t-56 33t-34.5 50t-12 63zM252 125q22 0 41 7.5t33 20.5t22 30.5t8 37.5l-92 -14q-27 -5 -43.5 -17t-16.5 -31t12.5 -26.5t35.5 -7.5z" />
    <glyph glyph-name="aacute" unicode="&#xe1;" horiz-adv-x="589" 
d="M24 148q0 66 50.5 109t164.5 63l117 20q0 24 -13 39.5t-45 15.5q-23 0 -35.5 -6.5t-18.5 -11.5q-9 -8 -17 -10t-19 -2h-127q-10 0 -16.5 6t-5.5 16q2 23 20 48t49.5 46t75 35t94.5 14q61 0 106 -15t74.5 -41.5t43.5 -63t14 -80.5v-303q0 -11 -8 -19t-19 -8h-126
q-11 0 -19 8t-8 19v28q-24 -30 -59.5 -47.5t-93.5 -17.5q-43 0 -76.5 12t-56 33t-34.5 50t-12 63zM252 125q22 0 41 7.5t33 20.5t22 30.5t8 37.5l-92 -14q-27 -5 -43.5 -17t-16.5 -31t12.5 -26.5t35.5 -7.5zM323 736q11 13 18.5 16t18.5 3h133q19 0 19 -20q0 -7 -5 -12
l-135 -111q-8 -7 -17 -12t-25 -5h-88q-16 0 -16 16q0 8 5 13z" />
    <glyph glyph-name="abreve" unicode="&#x103;" horiz-adv-x="589" 
d="M24 148q0 66 50.5 109t164.5 63l117 20q0 24 -13 39.5t-45 15.5q-23 0 -35.5 -6.5t-18.5 -11.5q-9 -8 -17 -10t-19 -2h-127q-10 0 -16.5 6t-5.5 16q2 23 20 48t49.5 46t75 35t94.5 14q61 0 106 -15t74.5 -41.5t43.5 -63t14 -80.5v-303q0 -11 -8 -19t-19 -8h-126
q-11 0 -19 8t-8 19v28q-24 -30 -59.5 -47.5t-93.5 -17.5q-43 0 -76.5 12t-56 33t-34.5 50t-12 63zM252 125q22 0 41 7.5t33 20.5t22 30.5t8 37.5l-92 -14q-27 -5 -43.5 -17t-16.5 -31t12.5 -26.5t35.5 -7.5zM290 590q-46 0 -77.5 13.5t-50.5 35t-27.5 47.5t-8.5 50
q0 8 5 13.5t14 5.5h84q9 0 14 -5.5t5 -13.5q0 -19 10.5 -34.5t31.5 -15.5t31.5 15.5t10.5 34.5q0 8 5 13.5t14 5.5h84q9 0 14 -5.5t5 -13.5q0 -24 -8.5 -50t-27.5 -47.5t-50.5 -35t-77.5 -13.5z" />
    <glyph glyph-name="acircumflex" unicode="&#xe2;" horiz-adv-x="589" 
d="M24 148q0 66 50.5 109t164.5 63l117 20q0 24 -13 39.5t-45 15.5q-23 0 -35.5 -6.5t-18.5 -11.5q-9 -8 -17 -10t-19 -2h-127q-10 0 -16.5 6t-5.5 16q2 23 20 48t49.5 46t75 35t94.5 14q61 0 106 -15t74.5 -41.5t43.5 -63t14 -80.5v-303q0 -11 -8 -19t-19 -8h-126
q-11 0 -19 8t-8 19v28q-24 -30 -59.5 -47.5t-93.5 -17.5q-43 0 -76.5 12t-56 33t-34.5 50t-12 63zM252 125q22 0 41 7.5t33 20.5t22 30.5t8 37.5l-92 -14q-27 -5 -43.5 -17t-16.5 -31t12.5 -26.5t35.5 -7.5zM334 755q11 0 19 -4t18 -15l102 -112q5 -5 5 -13q0 -16 -16 -16
h-67q-10 0 -16 3t-15 8l-74 43l-74 -43q-9 -5 -15 -8t-16 -3h-67q-16 0 -16 16q0 8 5 13l102 112q10 11 18 15t19 4h88z" />
    <glyph glyph-name="adieresis" unicode="&#xe4;" horiz-adv-x="589" 
d="M24 148q0 66 50.5 109t164.5 63l117 20q0 24 -13 39.5t-45 15.5q-23 0 -35.5 -6.5t-18.5 -11.5q-9 -8 -17 -10t-19 -2h-127q-10 0 -16.5 6t-5.5 16q2 23 20 48t49.5 46t75 35t94.5 14q61 0 106 -15t74.5 -41.5t43.5 -63t14 -80.5v-303q0 -11 -8 -19t-19 -8h-126
q-11 0 -19 8t-8 19v28q-24 -30 -59.5 -47.5t-93.5 -17.5q-43 0 -76.5 12t-56 33t-34.5 50t-12 63zM252 125q22 0 41 7.5t33 20.5t22 30.5t8 37.5l-92 -14q-27 -5 -43.5 -17t-16.5 -31t12.5 -26.5t35.5 -7.5zM255 622q0 -11 -8 -19t-19 -8h-101q-11 0 -19 8t-8 19v101
q0 11 8 19t19 8h101q11 0 19 -8t8 -19v-101zM480 622q0 -11 -8 -19t-19 -8h-101q-11 0 -19 8t-8 19v101q0 11 8 19t19 8h101q11 0 19 -8t8 -19v-101z" />
    <glyph glyph-name="agrave" unicode="&#xe0;" horiz-adv-x="589" 
d="M24 148q0 66 50.5 109t164.5 63l117 20q0 24 -13 39.5t-45 15.5q-23 0 -35.5 -6.5t-18.5 -11.5q-9 -8 -17 -10t-19 -2h-127q-10 0 -16.5 6t-5.5 16q2 23 20 48t49.5 46t75 35t94.5 14q61 0 106 -15t74.5 -41.5t43.5 -63t14 -80.5v-303q0 -11 -8 -19t-19 -8h-126
q-11 0 -19 8t-8 19v28q-24 -30 -59.5 -47.5t-93.5 -17.5q-43 0 -76.5 12t-56 33t-34.5 50t-12 63zM252 125q22 0 41 7.5t33 20.5t22 30.5t8 37.5l-92 -14q-27 -5 -43.5 -17t-16.5 -31t12.5 -26.5t35.5 -7.5zM364 624q5 -5 5 -13q0 -16 -16 -16h-88q-16 0 -25 5t-17 12
l-135 111q-5 5 -5 12q0 20 19 20h133q11 0 18.5 -3t18.5 -16z" />
    <glyph glyph-name="amacron" unicode="&#x101;" horiz-adv-x="589" 
d="M24 148q0 66 50.5 109t164.5 63l117 20q0 24 -13 39.5t-45 15.5q-23 0 -35.5 -6.5t-18.5 -11.5q-9 -8 -17 -10t-19 -2h-127q-10 0 -16.5 6t-5.5 16q2 23 20 48t49.5 46t75 35t94.5 14q61 0 106 -15t74.5 -41.5t43.5 -63t14 -80.5v-303q0 -11 -8 -19t-19 -8h-126
q-11 0 -19 8t-8 19v28q-24 -30 -59.5 -47.5t-93.5 -17.5q-43 0 -76.5 12t-56 33t-34.5 50t-12 63zM252 125q22 0 41 7.5t33 20.5t22 30.5t8 37.5l-92 -14q-27 -5 -43.5 -17t-16.5 -31t12.5 -26.5t35.5 -7.5zM146 595q-11 0 -19 8t-8 19v86q0 11 8 19t19 8h289q11 0 19 -8
t8 -19v-86q0 -11 -8 -19t-19 -8h-289z" />
    <glyph glyph-name="aogonek" unicode="&#x105;" horiz-adv-x="589" 
d="M24 148q0 66 50.5 109t164.5 63l117 20q0 24 -13 39.5t-45 15.5q-23 0 -35.5 -6.5t-18.5 -11.5q-9 -8 -17 -10t-19 -2h-127q-10 0 -16.5 6t-5.5 16q2 23 20 48t49.5 46t75 35t94.5 14q61 0 106 -15t74.5 -41.5t43.5 -63t14 -80.5v-303q0 -11 -8 -19t-19 -8h-23
q-22 -2 -34 -18t-12 -38q0 -23 14 -39.5t40 -16.5h15q22 0 22 -22v-64q0 -22 -22 -22h-19q-38 0 -68 12.5t-51 34t-32 51.5t-11 66q0 46 28 80v31q-24 -30 -59.5 -47.5t-93.5 -17.5q-43 0 -76.5 12t-56 33t-34.5 50t-12 63zM252 125q22 0 41 7.5t33 20.5t22 30.5t8 37.5
l-92 -14q-27 -5 -43.5 -17t-16.5 -31t12.5 -26.5t35.5 -7.5z" />
    <glyph glyph-name="aring" unicode="&#xe5;" horiz-adv-x="589" 
d="M24 148q0 66 50.5 109t164.5 63l117 20q0 24 -13 39.5t-45 15.5q-23 0 -35.5 -6.5t-18.5 -11.5q-9 -8 -17 -10t-19 -2h-127q-10 0 -16.5 6t-5.5 16q2 23 20 48t49.5 46t75 35t94.5 14q61 0 106 -15t74.5 -41.5t43.5 -63t14 -80.5v-303q0 -11 -8 -19t-19 -8h-126
q-11 0 -19 8t-8 19v28q-24 -30 -59.5 -47.5t-93.5 -17.5q-43 0 -76.5 12t-56 33t-34.5 50t-12 63zM252 125q22 0 41 7.5t33 20.5t22 30.5t8 37.5l-92 -14q-27 -5 -43.5 -17t-16.5 -31t12.5 -26.5t35.5 -7.5zM260 680q0 -13 8.5 -21.5t21.5 -8.5t21.5 8.5t8.5 21.5t-8.5 21.5
t-21.5 8.5t-21.5 -8.5t-8.5 -21.5zM195 680q0 39 28 64.5t67 25.5t67 -25.5t28 -64.5t-28 -64.5t-67 -25.5t-67 25.5t-28 64.5z" />
    <glyph glyph-name="atilde" unicode="&#xe3;" horiz-adv-x="589" 
d="M24 148q0 66 50.5 109t164.5 63l117 20q0 24 -13 39.5t-45 15.5q-23 0 -35.5 -6.5t-18.5 -11.5q-9 -8 -17 -10t-19 -2h-127q-10 0 -16.5 6t-5.5 16q2 23 20 48t49.5 46t75 35t94.5 14q61 0 106 -15t74.5 -41.5t43.5 -63t14 -80.5v-303q0 -11 -8 -19t-19 -8h-126
q-11 0 -19 8t-8 19v28q-24 -30 -59.5 -47.5t-93.5 -17.5q-43 0 -76.5 12t-56 33t-34.5 50t-12 63zM252 125q22 0 41 7.5t33 20.5t22 30.5t8 37.5l-92 -14q-27 -5 -43.5 -17t-16.5 -31t12.5 -26.5t35.5 -7.5zM372 590q-30 0 -48 7t-31.5 15.5t-25 15.5t-27.5 7
q-12 0 -18 -6.5t-10.5 -14t-8.5 -13.5t-12 -6h-76q-9 0 -14 5.5t-5 13.5q0 22 6.5 46.5t20.5 44t35 32.5t50 13q30 0 48 -7t31.5 -15.5t25 -15.5t27.5 -7q12 0 18 6t10.5 13.5t8.5 14t12 6.5h76q9 0 14 -5.5t5 -13.5q0 -23 -8 -47t-23 -43.5t-35.5 -32.5t-45.5 -13z" />
    <glyph glyph-name="ae" unicode="&#xe6;" horiz-adv-x="929" 
d="M536 203q0 -23 8.5 -38t21.5 -24t29 -12.5t31 -3.5q30 0 47.5 6t29.5 17q11 9 16 11.5t17 2.5h130q22 0 22 -22q0 -12 -15 -36.5t-46.5 -50t-81.5 -44.5t-119 -19q-67 0 -117.5 19.5t-85.5 55.5q-18 -18 -38 -32t-43.5 -23.5t-52.5 -14.5t-66 -5q-51 0 -88 12t-62 33
t-37 50t-12 63q0 66 50.5 109t164.5 63l117 20q0 24 -13 39.5t-45 15.5q-23 0 -35.5 -6.5t-18.5 -11.5q-9 -8 -17 -10t-19 -2h-127q-10 0 -16.5 6t-5.5 16q2 23 20 48t49.5 46t75 35t94.5 14q54 0 95.5 -12t70.5 -33q65 45 162 45q73 0 124.5 -24.5t84 -63.5t47 -87.5
t14.5 -96.5v-28q0 -11 -8 -19t-19 -8h-333zM626 395q-42 0 -64 -25t-26 -56h180q-4 31 -26 56t-64 25zM252 125q22 0 41 7.5t33 20.5t22 30.5t8 37.5l-92 -14q-27 -5 -43.5 -17t-16.5 -31t12.5 -26.5t35.5 -7.5z" />
    <glyph glyph-name="aeacute" unicode="&#x1fd;" horiz-adv-x="929" 
d="M536 203q0 -23 8.5 -38t21.5 -24t29 -12.5t31 -3.5q30 0 47.5 6t29.5 17q11 9 16 11.5t17 2.5h130q22 0 22 -22q0 -12 -15 -36.5t-46.5 -50t-81.5 -44.5t-119 -19q-67 0 -117.5 19.5t-85.5 55.5q-18 -18 -38 -32t-43.5 -23.5t-52.5 -14.5t-66 -5q-51 0 -88 12t-62 33
t-37 50t-12 63q0 66 50.5 109t164.5 63l117 20q0 24 -13 39.5t-45 15.5q-23 0 -35.5 -6.5t-18.5 -11.5q-9 -8 -17 -10t-19 -2h-127q-10 0 -16.5 6t-5.5 16q2 23 20 48t49.5 46t75 35t94.5 14q54 0 95.5 -12t70.5 -33q65 45 162 45q73 0 124.5 -24.5t84 -63.5t47 -87.5
t14.5 -96.5v-28q0 -11 -8 -19t-19 -8h-333zM626 395q-42 0 -64 -25t-26 -56h180q-4 31 -26 56t-64 25zM252 125q22 0 41 7.5t33 20.5t22 30.5t8 37.5l-92 -14q-27 -5 -43.5 -17t-16.5 -31t12.5 -26.5t35.5 -7.5zM464 736q11 13 18.5 16t18.5 3h133q19 0 19 -20q0 -7 -5 -12
l-135 -111q-8 -7 -17 -12t-25 -5h-88q-16 0 -16 16q0 8 5 13z" />
    <glyph glyph-name="b" unicode="b" horiz-adv-x="634" 
d="M372 530q45 0 85 -14t70 -42.5t48.5 -71.5t20.5 -102q1 -15 1 -40.5t-1 -40.5q-2 -59 -20.5 -102t-48.5 -71.5t-70 -42t-85 -13.5q-33 0 -55.5 5.5t-38 14t-26 19t-19.5 21.5v-23q0 -11 -8 -19t-19 -8h-121q-11 0 -19 8t-8 19v656q0 11 8 19t19 8h126q11 0 19 -8t8 -19
v-213q7 9 18 19.5t27 19.5t38 15t51 6zM417 288q-3 35 -23 61t-67 26q-22 0 -38 -7t-26.5 -18.5t-16.5 -25.5t-8 -29t-2 -35t2 -35t8 -29t16.5 -25.5t26.5 -18.5t38 -7q47 0 67 26t23 61q3 28 0 56z" />
    <glyph glyph-name="c" unicode="c" horiz-adv-x="602" 
d="M217 295q-2 -15 -2 -35t2 -35q3 -36 27 -58t64 -22q33 0 50.5 9.5t28.5 26.5q5 8 11.5 14t17.5 6h131q11 0 19.5 -8t7.5 -19q-1 -16 -13 -47t-42 -61.5t-81 -53t-130 -22.5q-56 0 -104.5 16t-85 46t-58 72.5t-23.5 95.5q-1 15 -1 40t1 40q2 53 23.5 95.5t58 72.5t85 46
t104.5 16q79 0 130 -22.5t81 -53t42 -61.5t13 -47q1 -11 -7.5 -19t-19.5 -8h-131q-11 0 -17.5 6t-11.5 14q-11 17 -28.5 26.5t-50.5 9.5q-40 0 -64 -22t-27 -58z" />
    <glyph glyph-name="cacute" unicode="&#x107;" horiz-adv-x="602" 
d="M217 295q-2 -15 -2 -35t2 -35q3 -36 27 -58t64 -22q33 0 50.5 9.5t28.5 26.5q5 8 11.5 14t17.5 6h131q11 0 19.5 -8t7.5 -19q-1 -16 -13 -47t-42 -61.5t-81 -53t-130 -22.5q-56 0 -104.5 16t-85 46t-58 72.5t-23.5 95.5q-1 15 -1 40t1 40q2 53 23.5 95.5t58 72.5t85 46
t104.5 16q79 0 130 -22.5t81 -53t42 -61.5t13 -47q1 -11 -7.5 -19t-19.5 -8h-131q-11 0 -17.5 6t-11.5 14q-11 17 -28.5 26.5t-50.5 9.5q-40 0 -64 -22t-27 -58zM333 736q11 13 18.5 16t18.5 3h133q19 0 19 -20q0 -7 -5 -12l-135 -111q-8 -7 -17 -12t-25 -5h-88
q-16 0 -16 16q0 8 5 13z" />
    <glyph glyph-name="ccaron" unicode="&#x10d;" horiz-adv-x="602" 
d="M217 295q-2 -15 -2 -35t2 -35q3 -36 27 -58t64 -22q33 0 50.5 9.5t28.5 26.5q5 8 11.5 14t17.5 6h131q11 0 19.5 -8t7.5 -19q-1 -16 -13 -47t-42 -61.5t-81 -53t-130 -22.5q-56 0 -104.5 16t-85 46t-58 72.5t-23.5 95.5q-1 15 -1 40t1 40q2 53 23.5 95.5t58 72.5t85 46
t104.5 16q79 0 130 -22.5t81 -53t42 -61.5t13 -47q1 -11 -7.5 -19t-19.5 -8h-131q-11 0 -17.5 6t-11.5 14q-11 17 -28.5 26.5t-50.5 9.5q-40 0 -64 -22t-27 -58zM261 595q-11 0 -19 4t-18 15l-102 112q-5 5 -5 13q0 16 16 16h67q10 0 16 -3t15 -8l74 -43l74 43q9 5 15 8
t16 3h67q16 0 16 -16q0 -8 -5 -13l-102 -112q-10 -11 -18 -15t-19 -4h-88z" />
    <glyph glyph-name="ccedilla" unicode="&#xe7;" horiz-adv-x="602" 
d="M217 295q-2 -15 -2 -35t2 -35q3 -36 27 -58t64 -22q33 0 50.5 9.5t28.5 26.5q5 8 11.5 14t17.5 6h131q11 0 19.5 -8t7.5 -19q-1 -16 -13 -47t-42 -61.5t-81 -53t-130 -22.5h-3l-21 -44q6 4 16 7t21 3q38 0 57 -26t19 -62t-27 -62t-72 -26q-16 0 -33.5 5t-30 13
t-17.5 16.5t4 16.5l18 16q8 7 13.5 7t11 -3t13.5 -6.5t21 -3.5q14 0 23.5 6t9.5 21q0 14 -9 20.5t-24 6.5q-7 0 -14.5 -2t-14.5 -3.5t-13.5 -1t-11.5 5.5l-18 21q-6 8 -7.5 13.5t5.5 19.5l23 48q-45 7 -82.5 26t-65.5 48t-44.5 67t-17.5 83q-1 15 -1 40t1 40q2 53 23.5 95.5
t58 72.5t85 46t104.5 16q79 0 130 -22.5t81 -53t42 -61.5t13 -47q1 -11 -7.5 -19t-19.5 -8h-131q-11 0 -17.5 6t-11.5 14q-11 17 -28.5 26.5t-50.5 9.5q-40 0 -64 -22t-27 -58z" />
    <glyph glyph-name="ccircumflex" unicode="&#x109;" horiz-adv-x="602" 
d="M217 295q-2 -15 -2 -35t2 -35q3 -36 27 -58t64 -22q33 0 50.5 9.5t28.5 26.5q5 8 11.5 14t17.5 6h131q11 0 19.5 -8t7.5 -19q-1 -16 -13 -47t-42 -61.5t-81 -53t-130 -22.5q-56 0 -104.5 16t-85 46t-58 72.5t-23.5 95.5q-1 15 -1 40t1 40q2 53 23.5 95.5t58 72.5t85 46
t104.5 16q79 0 130 -22.5t81 -53t42 -61.5t13 -47q1 -11 -7.5 -19t-19.5 -8h-131q-11 0 -17.5 6t-11.5 14q-11 17 -28.5 26.5t-50.5 9.5q-40 0 -64 -22t-27 -58zM349 755q11 0 19 -4t18 -15l102 -112q5 -5 5 -13q0 -16 -16 -16h-67q-10 0 -16 3t-15 8l-74 43l-74 -43
q-9 -5 -15 -8t-16 -3h-67q-16 0 -16 16q0 8 5 13l102 112q10 11 18 15t19 4h88z" />
    <glyph glyph-name="cdotaccent" unicode="&#x10b;" horiz-adv-x="602" 
d="M217 295q-2 -15 -2 -35t2 -35q3 -36 27 -58t64 -22q33 0 50.5 9.5t28.5 26.5q5 8 11.5 14t17.5 6h131q11 0 19.5 -8t7.5 -19q-1 -16 -13 -47t-42 -61.5t-81 -53t-130 -22.5q-56 0 -104.5 16t-85 46t-58 72.5t-23.5 95.5q-1 15 -1 40t1 40q2 53 23.5 95.5t58 72.5t85 46
t104.5 16q79 0 130 -22.5t81 -53t42 -61.5t13 -47q1 -11 -7.5 -19t-19.5 -8h-131q-11 0 -17.5 6t-11.5 14q-11 17 -28.5 26.5t-50.5 9.5q-40 0 -64 -22t-27 -58zM388 622q0 -11 -8 -19t-19 -8h-111q-11 0 -19 8t-8 19v111q0 11 8 19t19 8h111q11 0 19 -8t8 -19v-111z" />
    <glyph glyph-name="d" unicode="d" horiz-adv-x="634" 
d="M262 530q29 0 51 -6t38 -15t27 -19.5t18 -19.5v213q0 11 8 19t19 8h126q11 0 19 -8t8 -19v-656q0 -11 -8 -19t-19 -8h-121q-11 0 -19 8t-8 19v23q-9 -11 -19.5 -21.5t-26 -19t-38 -14t-55.5 -5.5q-45 0 -85 13.5t-70 42t-48.5 71.5t-20.5 102q-1 15 -1 40.5t1 40.5
q2 59 20.5 102t48.5 71.5t70 42.5t85 14zM217 288q-3 -28 0 -56q3 -35 23 -61t67 -26q22 0 38 7t26.5 18.5t16.5 25.5t8 29t2 35t-2 35t-8 29t-16.5 25.5t-26.5 18.5t-38 7q-47 0 -67 -26t-23 -61z" />
    <glyph glyph-name="dcaron" unicode="&#x10f;" horiz-adv-x="750" 
d="M262 530q29 0 51 -6t38 -15t27 -19.5t18 -19.5v213q0 11 8 19t19 8h126q11 0 19 -8t8 -19v-656q0 -11 -8 -19t-19 -8h-121q-11 0 -19 8t-8 19v23q-9 -11 -19.5 -21.5t-26 -19t-38 -14t-55.5 -5.5q-45 0 -85 13.5t-70 42t-48.5 71.5t-20.5 102q-1 15 -1 40.5t1 40.5
q2 59 20.5 102t48.5 71.5t70 42.5t85 14zM217 288q-3 -28 0 -56q3 -35 23 -61t67 -26q22 0 38 7t26.5 18.5t16.5 25.5t8 29t2 35t-2 35t-8 29t-16.5 25.5t-26.5 18.5t-38 7q-47 0 -67 -26t-23 -61zM652 671q2 14 12.5 26.5t30.5 12.5h115q9 0 15.5 -6.5t6.5 -15.5
q0 -4 -1 -7l-55 -139q-4 -10 -13.5 -21t-29.5 -11h-81q-9 0 -15.5 6.5t-6.5 15.5v2z" />
    <glyph glyph-name="dcroat" unicode="&#x111;" horiz-adv-x="629" 
d="M260 530q29 0 50.5 -6t37 -15t26 -19.5t17.5 -19.5v82h-53q-11 0 -19 8t-8 19v43q0 11 8 19t19 8h53v34q0 11 8 19t19 8h126q11 0 19 -8t8 -19v-34h53q11 0 19 -8t8 -19v-43q0 -11 -8 -19t-19 -8h-53v-525q0 -11 -8 -19t-19 -8h-121q-11 0 -19 8t-8 19v23
q-9 -11 -19 -21.5t-25 -19t-37 -14t-55 -5.5q-45 0 -84.5 13.5t-69 42t-47.5 71.5t-20 102q-1 15 -1 40.5t1 40.5q2 59 20 102t47.5 71.5t69 42.5t84.5 14zM218 288q-3 -28 0 -56q1 -18 6.5 -33.5t15.5 -27.5t26 -19t39 -7q22 0 37.5 7t25.5 18.5t15.5 25.5t7.5 29t2 35
t-2 35t-7.5 29t-15.5 25.5t-25.5 18.5t-37.5 7q-23 0 -39 -7t-26 -19t-15.5 -27.5t-6.5 -33.5z" />
    <glyph glyph-name="e" unicode="e" horiz-adv-x="607" 
d="M214 203q0 -23 8.5 -38t21.5 -24t29 -12.5t31 -3.5q30 0 47.5 6t29.5 17q11 9 16 11.5t17 2.5h130q22 0 22 -22q0 -12 -15 -36.5t-46.5 -50t-81.5 -44.5t-119 -19q-65 0 -115.5 18.5t-85 53.5t-52 85t-17.5 113q0 58 17.5 107.5t52 85.5t85 56.5t115.5 20.5
q73 0 124.5 -24.5t84 -63.5t47 -87.5t14.5 -96.5v-28q0 -11 -8 -19t-19 -8h-333zM304 395q-42 0 -64 -25t-26 -56h180q-4 31 -26 56t-64 25z" />
    <glyph glyph-name="eacute" unicode="&#xe9;" horiz-adv-x="607" 
d="M214 203q0 -23 8.5 -38t21.5 -24t29 -12.5t31 -3.5q30 0 47.5 6t29.5 17q11 9 16 11.5t17 2.5h130q22 0 22 -22q0 -12 -15 -36.5t-46.5 -50t-81.5 -44.5t-119 -19q-65 0 -115.5 18.5t-85 53.5t-52 85t-17.5 113q0 58 17.5 107.5t52 85.5t85 56.5t115.5 20.5
q73 0 124.5 -24.5t84 -63.5t47 -87.5t14.5 -96.5v-28q0 -11 -8 -19t-19 -8h-333zM304 395q-42 0 -64 -25t-26 -56h180q-4 31 -26 56t-64 25zM325 736q11 13 18.5 16t18.5 3h133q19 0 19 -20q0 -7 -5 -12l-135 -111q-8 -7 -17 -12t-25 -5h-88q-16 0 -16 16q0 8 5 13z" />
    <glyph glyph-name="ebreve" unicode="&#x115;" horiz-adv-x="607" 
d="M214 203q0 -23 8.5 -38t21.5 -24t29 -12.5t31 -3.5q30 0 47.5 6t29.5 17q11 9 16 11.5t17 2.5h130q22 0 22 -22q0 -12 -15 -36.5t-46.5 -50t-81.5 -44.5t-119 -19q-65 0 -115.5 18.5t-85 53.5t-52 85t-17.5 113q0 58 17.5 107.5t52 85.5t85 56.5t115.5 20.5
q73 0 124.5 -24.5t84 -63.5t47 -87.5t14.5 -96.5v-28q0 -11 -8 -19t-19 -8h-333zM304 395q-42 0 -64 -25t-26 -56h180q-4 31 -26 56t-64 25zM304 590q-46 0 -77.5 13.5t-50.5 35t-27.5 47.5t-8.5 50q0 8 5 13.5t14 5.5h84q9 0 14 -5.5t5 -13.5q0 -19 10.5 -34.5t31.5 -15.5
t31.5 15.5t10.5 34.5q0 8 5 13.5t14 5.5h84q9 0 14 -5.5t5 -13.5q0 -24 -8.5 -50t-27.5 -47.5t-50.5 -35t-77.5 -13.5z" />
    <glyph glyph-name="ecaron" unicode="&#x11b;" horiz-adv-x="607" 
d="M214 203q0 -23 8.5 -38t21.5 -24t29 -12.5t31 -3.5q30 0 47.5 6t29.5 17q11 9 16 11.5t17 2.5h130q22 0 22 -22q0 -12 -15 -36.5t-46.5 -50t-81.5 -44.5t-119 -19q-65 0 -115.5 18.5t-85 53.5t-52 85t-17.5 113q0 58 17.5 107.5t52 85.5t85 56.5t115.5 20.5
q73 0 124.5 -24.5t84 -63.5t47 -87.5t14.5 -96.5v-28q0 -11 -8 -19t-19 -8h-333zM304 395q-42 0 -64 -25t-26 -56h180q-4 31 -26 56t-64 25zM260 595q-11 0 -19 4t-18 15l-102 112q-5 5 -5 13q0 16 16 16h67q10 0 16 -3t15 -8l74 -43l74 43q9 5 15 8t16 3h67q16 0 16 -16
q0 -8 -5 -13l-102 -112q-10 -11 -18 -15t-19 -4h-88z" />
    <glyph glyph-name="ecircumflex" unicode="&#xea;" horiz-adv-x="607" 
d="M214 203q0 -23 8.5 -38t21.5 -24t29 -12.5t31 -3.5q30 0 47.5 6t29.5 17q11 9 16 11.5t17 2.5h130q22 0 22 -22q0 -12 -15 -36.5t-46.5 -50t-81.5 -44.5t-119 -19q-65 0 -115.5 18.5t-85 53.5t-52 85t-17.5 113q0 58 17.5 107.5t52 85.5t85 56.5t115.5 20.5
q73 0 124.5 -24.5t84 -63.5t47 -87.5t14.5 -96.5v-28q0 -11 -8 -19t-19 -8h-333zM304 395q-42 0 -64 -25t-26 -56h180q-4 31 -26 56t-64 25zM348 755q11 0 19 -4t18 -15l102 -112q5 -5 5 -13q0 -16 -16 -16h-67q-10 0 -16 3t-15 8l-74 43l-74 -43q-9 -5 -15 -8t-16 -3h-67
q-16 0 -16 16q0 8 5 13l102 112q10 11 18 15t19 4h88z" />
    <glyph glyph-name="edieresis" unicode="&#xeb;" horiz-adv-x="607" 
d="M214 203q0 -23 8.5 -38t21.5 -24t29 -12.5t31 -3.5q30 0 47.5 6t29.5 17q11 9 16 11.5t17 2.5h130q22 0 22 -22q0 -12 -15 -36.5t-46.5 -50t-81.5 -44.5t-119 -19q-65 0 -115.5 18.5t-85 53.5t-52 85t-17.5 113q0 58 17.5 107.5t52 85.5t85 56.5t115.5 20.5
q73 0 124.5 -24.5t84 -63.5t47 -87.5t14.5 -96.5v-28q0 -11 -8 -19t-19 -8h-333zM304 395q-42 0 -64 -25t-26 -56h180q-4 31 -26 56t-64 25zM269 622q0 -11 -8 -19t-19 -8h-101q-11 0 -19 8t-8 19v101q0 11 8 19t19 8h101q11 0 19 -8t8 -19v-101zM494 622q0 -11 -8 -19
t-19 -8h-101q-11 0 -19 8t-8 19v101q0 11 8 19t19 8h101q11 0 19 -8t8 -19v-101z" />
    <glyph glyph-name="edotaccent" unicode="&#x117;" horiz-adv-x="607" 
d="M214 203q0 -23 8.5 -38t21.5 -24t29 -12.5t31 -3.5q30 0 47.5 6t29.5 17q11 9 16 11.5t17 2.5h130q22 0 22 -22q0 -12 -15 -36.5t-46.5 -50t-81.5 -44.5t-119 -19q-65 0 -115.5 18.5t-85 53.5t-52 85t-17.5 113q0 58 17.5 107.5t52 85.5t85 56.5t115.5 20.5
q73 0 124.5 -24.5t84 -63.5t47 -87.5t14.5 -96.5v-28q0 -11 -8 -19t-19 -8h-333zM304 395q-42 0 -64 -25t-26 -56h180q-4 31 -26 56t-64 25zM387 622q0 -11 -8 -19t-19 -8h-111q-11 0 -19 8t-8 19v111q0 11 8 19t19 8h111q11 0 19 -8t8 -19v-111z" />
    <glyph glyph-name="egrave" unicode="&#xe8;" horiz-adv-x="607" 
d="M214 203q0 -23 8.5 -38t21.5 -24t29 -12.5t31 -3.5q30 0 47.5 6t29.5 17q11 9 16 11.5t17 2.5h130q22 0 22 -22q0 -12 -15 -36.5t-46.5 -50t-81.5 -44.5t-119 -19q-65 0 -115.5 18.5t-85 53.5t-52 85t-17.5 113q0 58 17.5 107.5t52 85.5t85 56.5t115.5 20.5
q73 0 124.5 -24.5t84 -63.5t47 -87.5t14.5 -96.5v-28q0 -11 -8 -19t-19 -8h-333zM304 395q-42 0 -64 -25t-26 -56h180q-4 31 -26 56t-64 25zM369 624q5 -5 5 -13q0 -16 -16 -16h-88q-16 0 -25 5t-17 12l-135 111q-5 5 -5 12q0 20 19 20h133q11 0 18.5 -3t18.5 -16z" />
    <glyph glyph-name="emacron" unicode="&#x113;" horiz-adv-x="607" 
d="M214 203q0 -23 8.5 -38t21.5 -24t29 -12.5t31 -3.5q30 0 47.5 6t29.5 17q11 9 16 11.5t17 2.5h130q22 0 22 -22q0 -12 -15 -36.5t-46.5 -50t-81.5 -44.5t-119 -19q-65 0 -115.5 18.5t-85 53.5t-52 85t-17.5 113q0 58 17.5 107.5t52 85.5t85 56.5t115.5 20.5
q73 0 124.5 -24.5t84 -63.5t47 -87.5t14.5 -96.5v-28q0 -11 -8 -19t-19 -8h-333zM304 395q-42 0 -64 -25t-26 -56h180q-4 31 -26 56t-64 25zM160 595q-11 0 -19 8t-8 19v86q0 11 8 19t19 8h289q11 0 19 -8t8 -19v-86q0 -11 -8 -19t-19 -8h-289z" />
    <glyph glyph-name="eogonek" unicode="&#x119;" horiz-adv-x="607" 
d="M214 203q0 -23 8.5 -38t21.5 -24t29 -12.5t31 -3.5q30 0 47.5 6t29.5 17q11 9 16 11.5t17 2.5h130q22 0 22 -22q0 -11 -12 -32t-38 -44t-66 -43t-96 -28q-26 -4 -39.5 -15t-13.5 -34t14 -39.5t40 -16.5h15q22 0 22 -22v-64q0 -22 -22 -22h-19q-38 0 -68 12.5t-51 34
t-32 51.5t-11 66q0 34 9 61q-81 26 -122.5 91.5t-41.5 163.5q0 58 17.5 107.5t52 85.5t85 56.5t115.5 20.5q73 0 124.5 -24.5t84 -63.5t47 -87.5t14.5 -96.5v-28q0 -11 -8 -19t-19 -8h-333zM304 395q-42 0 -64 -25t-26 -56h180q-4 31 -26 56t-64 25z" />
    <glyph glyph-name="f" unicode="f" horiz-adv-x="460" 
d="M297 520h123q11 0 19 -8t8 -19v-101q0 -11 -8 -19t-19 -8h-123v-338q0 -11 -8 -19t-19 -8h-126q-11 0 -19 8t-8 19v338h-69q-11 0 -19 8t-8 19v101q0 11 8 19t19 8h69v27q0 46 16.5 82t45.5 60.5t69 37.5t87 13h95q11 0 19 -8t8 -19v-101q0 -11 -8 -19t-19 -8h-90
q-24 0 -33.5 -12t-9.5 -31v-22z" />
    <glyph glyph-name="g" unicode="g" horiz-adv-x="634" 
d="M305 -70q38 0 67 17.5t29 52.5v70q-9 -11 -19.5 -21.5t-26 -19t-38 -14t-55.5 -5.5q-45 0 -85 13.5t-70 41.5t-48.5 70t-20.5 99q-1 15 -1 35.5t1 35.5q2 57 20.5 99.5t48.5 70t70 41.5t85 14q33 0 57 -6t41 -15t28 -19.5t18 -19.5v23q0 11 8 19t19 8h116q11 0 19 -8
t8 -19v-487q0 -56 -20.5 -98.5t-56.5 -71t-86 -42.5t-110 -14q-78 0 -127.5 19.5t-77.5 47t-39 57.5t-12 52q-1 11 7.5 19t19.5 8h130q21 0 31 -20q7 -13 21.5 -23t48.5 -10zM217 295q-2 -15 -2 -24.5t2 -24.5q3 -35 24.5 -58t65.5 -23q41 0 62.5 22.5t26.5 51.5q5 31 0 63
q-4 29 -26 51t-63 22q-43 0 -65 -22.5t-25 -57.5z" />
    <glyph glyph-name="gbreve" unicode="&#x11f;" horiz-adv-x="634" 
d="M305 -70q38 0 67 17.5t29 52.5v70q-9 -11 -19.5 -21.5t-26 -19t-38 -14t-55.5 -5.5q-45 0 -85 13.5t-70 41.5t-48.5 70t-20.5 99q-1 15 -1 35.5t1 35.5q2 57 20.5 99.5t48.5 70t70 41.5t85 14q33 0 57 -6t41 -15t28 -19.5t18 -19.5v23q0 11 8 19t19 8h116q11 0 19 -8
t8 -19v-487q0 -56 -20.5 -98.5t-56.5 -71t-86 -42.5t-110 -14q-78 0 -127.5 19.5t-77.5 47t-39 57.5t-12 52q-1 11 7.5 19t19.5 8h130q21 0 31 -20q7 -13 21.5 -23t48.5 -10zM217 295q-2 -15 -2 -24.5t2 -24.5q3 -35 24.5 -58t65.5 -23q41 0 62.5 22.5t26.5 51.5q5 31 0 63
q-4 29 -26 51t-63 22q-43 0 -65 -22.5t-25 -57.5zM306 590q-46 0 -77.5 13.5t-50.5 35t-27.5 47.5t-8.5 50q0 8 5 13.5t14 5.5h84q9 0 14 -5.5t5 -13.5q0 -19 10.5 -34.5t31.5 -15.5t31.5 15.5t10.5 34.5q0 8 5 13.5t14 5.5h84q9 0 14 -5.5t5 -13.5q0 -24 -8.5 -50
t-27.5 -47.5t-50.5 -35t-77.5 -13.5z" />
    <glyph glyph-name="gcircumflex" unicode="&#x11d;" horiz-adv-x="634" 
d="M305 -70q38 0 67 17.5t29 52.5v70q-9 -11 -19.5 -21.5t-26 -19t-38 -14t-55.5 -5.5q-45 0 -85 13.5t-70 41.5t-48.5 70t-20.5 99q-1 15 -1 35.5t1 35.5q2 57 20.5 99.5t48.5 70t70 41.5t85 14q33 0 57 -6t41 -15t28 -19.5t18 -19.5v23q0 11 8 19t19 8h116q11 0 19 -8
t8 -19v-487q0 -56 -20.5 -98.5t-56.5 -71t-86 -42.5t-110 -14q-78 0 -127.5 19.5t-77.5 47t-39 57.5t-12 52q-1 11 7.5 19t19.5 8h130q21 0 31 -20q7 -13 21.5 -23t48.5 -10zM217 295q-2 -15 -2 -24.5t2 -24.5q3 -35 24.5 -58t65.5 -23q41 0 62.5 22.5t26.5 51.5q5 31 0 63
q-4 29 -26 51t-63 22q-43 0 -65 -22.5t-25 -57.5zM350 755q11 0 19 -4t18 -15l102 -112q5 -5 5 -13q0 -16 -16 -16h-67q-10 0 -16 3t-15 8l-74 43l-74 -43q-9 -5 -15 -8t-16 -3h-67q-16 0 -16 16q0 8 5 13l102 112q10 11 18 15t19 4h88z" />
    <glyph glyph-name="gcommaaccent" unicode="&#x123;" horiz-adv-x="634" 
d="M305 -70q38 0 67 17.5t29 52.5v70q-9 -11 -19.5 -21.5t-26 -19t-38 -14t-55.5 -5.5q-45 0 -85 13.5t-70 41.5t-48.5 70t-20.5 99q-1 15 -1 35.5t1 35.5q2 57 20.5 99.5t48.5 70t70 41.5t85 14q33 0 57 -6t41 -15t28 -19.5t18 -19.5v23q0 11 8 19t19 8h116q11 0 19 -8
t8 -19v-487q0 -56 -20.5 -98.5t-56.5 -71t-86 -42.5t-110 -14q-78 0 -127.5 19.5t-77.5 47t-39 57.5t-12 52q-1 11 7.5 19t19.5 8h130q21 0 31 -20q7 -13 21.5 -23t48.5 -10zM217 295q-2 -15 -2 -24.5t2 -24.5q3 -35 24.5 -58t65.5 -23q41 0 62.5 22.5t26.5 51.5q5 31 0 63
q-4 29 -26 51t-63 22q-43 0 -65 -22.5t-25 -57.5zM388.005 633.994q-2 -13.999 -12.499 -26.498q-10.5 -12.499 -30.498 -12.499h-114.993q-8.99902 0 -15.499 6.49902q-6.5 6.5 -6.5 15.5q0 3.99902 1 6.99902l54.9971 138.991q4 10 13.499 20.999t29.498 10.999h80.9951
q8.99902 0 15.499 -6.49902q6.5 -6.5 6.5 -15.499v-2z" />
    <glyph glyph-name="gdotaccent" unicode="&#x121;" horiz-adv-x="634" 
d="M305 -70q38 0 67 17.5t29 52.5v70q-9 -11 -19.5 -21.5t-26 -19t-38 -14t-55.5 -5.5q-45 0 -85 13.5t-70 41.5t-48.5 70t-20.5 99q-1 15 -1 35.5t1 35.5q2 57 20.5 99.5t48.5 70t70 41.5t85 14q33 0 57 -6t41 -15t28 -19.5t18 -19.5v23q0 11 8 19t19 8h116q11 0 19 -8
t8 -19v-487q0 -56 -20.5 -98.5t-56.5 -71t-86 -42.5t-110 -14q-78 0 -127.5 19.5t-77.5 47t-39 57.5t-12 52q-1 11 7.5 19t19.5 8h130q21 0 31 -20q7 -13 21.5 -23t48.5 -10zM217 295q-2 -15 -2 -24.5t2 -24.5q3 -35 24.5 -58t65.5 -23q41 0 62.5 22.5t26.5 51.5q5 31 0 63
q-4 29 -26 51t-63 22q-43 0 -65 -22.5t-25 -57.5zM389 622q0 -11 -8 -19t-19 -8h-111q-11 0 -19 8t-8 19v111q0 11 8 19t19 8h111q11 0 19 -8t8 -19v-111z" />
    <glyph glyph-name="h" unicode="h" horiz-adv-x="644" 
d="M591 27q0 -11 -8 -19t-19 -8h-126q-11 0 -19 8t-8 19v253q0 43 -21 69t-66 26t-65.5 -26t-20.5 -69v-253q0 -11 -8 -19t-19 -8h-126q-11 0 -19 8t-8 19v656q0 11 8 19t19 8h126q11 0 19 -8t8 -19v-213q17 21 53 40.5t83 19.5q48 0 88 -13.5t68.5 -41.5t44.5 -71t16 -102
v-275z" />
    <glyph glyph-name="hbar" unicode="&#x127;" horiz-adv-x="644" 
d="M591 27q0 -11 -8 -19t-19 -8h-126q-11 0 -19 8t-8 19v253q0 43 -21 69t-66 26t-65.5 -26t-20.5 -69v-253q0 -11 -8 -19t-19 -8h-126q-11 0 -19 8t-8 19v520h-53q-11 0 -19 8t-8 19v43q0 11 8 19t19 8h53v39q0 11 8 19t19 8h126q11 0 19 -8t8 -19v-39h53q11 0 19 -8t8 -19
v-43q0 -11 -8 -19t-19 -8h-53v-77q17 21 53 40.5t83 19.5q48 0 88 -13.5t68.5 -41.5t44.5 -71t16 -102v-275z" />
    <glyph glyph-name="hcircumflex" unicode="&#x125;" horiz-adv-x="644" 
d="M591 27q0 -11 -8 -19t-19 -8h-126q-11 0 -19 8t-8 19v253q0 43 -21 69t-66 26t-65.5 -26t-20.5 -69v-253q0 -11 -8 -19t-19 -8h-126q-11 0 -19 8t-8 19v656q0 11 8 19t19 8h126q11 0 19 -8t8 -19v-213q17 21 53 40.5t83 19.5q48 0 88 -13.5t68.5 -41.5t44.5 -71t16 -102
v-275zM368 910q11 0 19 -4t18 -15l102 -112q5 -5 5 -13q0 -16 -16 -16h-67q-10 0 -16 3t-15 8l-74 43l-74 -43q-9 -5 -15 -8t-16 -3h-67q-16 0 -16 16q0 8 5 13l102 112q10 11 18 15t19 4h88z" />
    <glyph glyph-name="i" unicode="i" horiz-adv-x="296" 
d="M238 27q0 -11 -8 -19t-19 -8h-126q-11 0 -19 8t-8 19v466q0 11 8 19t19 8h126q11 0 19 -8t8 -19v-466zM238 602q0 -11 -8 -19t-19 -8h-126q-11 0 -19 8t-8 19v101q0 11 8 19t19 8h126q11 0 19 -8t8 -19v-101z" />
    <glyph glyph-name="iacute" unicode="&#xed;" horiz-adv-x="296" 
d="M238 27q0 -11 -8 -19t-19 -8h-126q-11 0 -19 8t-8 19v466q0 11 8 19t19 8h126q11 0 19 -8t8 -19v-466zM172 736q11 13 18.5 16t18.5 3h133q19 0 19 -20q0 -7 -5 -12l-135 -111q-8 -7 -17 -12t-25 -5h-88q-16 0 -16 16q0 8 5 13z" />
    <glyph glyph-name="ibreve" unicode="&#x12d;" horiz-adv-x="296" 
d="M238 27q0 -11 -8 -19t-19 -8h-126q-11 0 -19 8t-8 19v466q0 11 8 19t19 8h126q11 0 19 -8t8 -19v-466zM148 590q-46 0 -77.5 13.5t-50.5 35t-27.5 47.5t-8.5 50q0 8 5 13.5t14 5.5h84q9 0 14 -5.5t5 -13.5q0 -19 10.5 -34.5t31.5 -15.5t31.5 15.5t10.5 34.5q0 8 5 13.5
t14 5.5h84q9 0 14 -5.5t5 -13.5q0 -24 -8.5 -50t-27.5 -47.5t-50.5 -35t-77.5 -13.5z" />
    <glyph glyph-name="icircumflex" unicode="&#xee;" horiz-adv-x="296" 
d="M238 27q0 -11 -8 -19t-19 -8h-126q-11 0 -19 8t-8 19v466q0 11 8 19t19 8h126q11 0 19 -8t8 -19v-466zM192 755q11 0 19 -4t18 -15l102 -112q5 -5 5 -13q0 -16 -16 -16h-67q-10 0 -16 3t-15 8l-74 43l-74 -43q-9 -5 -15 -8t-16 -3h-67q-16 0 -16 16q0 8 5 13l102 112
q10 11 18 15t19 4h88z" />
    <glyph glyph-name="idieresis" unicode="&#xef;" horiz-adv-x="296" 
d="M238 27q0 -11 -8 -19t-19 -8h-126q-11 0 -19 8t-8 19v466q0 11 8 19t19 8h126q11 0 19 -8t8 -19v-466zM113 622q0 -11 -8 -19t-19 -8h-101q-11 0 -19 8t-8 19v101q0 11 8 19t19 8h101q11 0 19 -8t8 -19v-101zM338 622q0 -11 -8 -19t-19 -8h-101q-11 0 -19 8t-8 19v101
q0 11 8 19t19 8h101q11 0 19 -8t8 -19v-101z" />
    <glyph glyph-name="igrave" unicode="&#xec;" horiz-adv-x="296" 
d="M238 27q0 -11 -8 -19t-19 -8h-126q-11 0 -19 8t-8 19v466q0 11 8 19t19 8h126q11 0 19 -8t8 -19v-466zM221 624q5 -5 5 -13q0 -16 -16 -16h-88q-16 0 -25 5t-17 12l-135 111q-5 5 -5 12q0 20 19 20h133q11 0 18.5 -3t18.5 -16z" />
    <glyph glyph-name="imacron" unicode="&#x12b;" horiz-adv-x="296" 
d="M238 27q0 -11 -8 -19t-19 -8h-126q-11 0 -19 8t-8 19v466q0 11 8 19t19 8h126q11 0 19 -8t8 -19v-466zM4 595q-11 0 -19 8t-8 19v86q0 11 8 19t19 8h289q11 0 19 -8t8 -19v-86q0 -11 -8 -19t-19 -8h-289z" />
    <glyph glyph-name="iogonek" unicode="&#x12f;" horiz-adv-x="297" 
d="M239 27q0 -11 -8 -19t-19 -8h-10q-26 0 -40 -16.5t-14 -39.5t14 -39.5t40 -16.5h15q22 0 22 -22v-64q0 -22 -22 -22h-19q-38 0 -68 12.5t-51 34t-32 51.5t-11 66q0 51 23 91v458q0 11 8 19t19 8h126q11 0 19 -8t8 -19v-466zM239 602q0 -11 -8 -19t-19 -8h-126
q-11 0 -19 8t-8 19v101q0 11 8 19t19 8h126q11 0 19 -8t8 -19v-101z" />
    <glyph glyph-name="itilde" unicode="&#x129;" horiz-adv-x="296" 
d="M247 568q-20 0 -36 6t-30.5 12.5t-27 12.5t-24.5 6q-23 0 -29 -8.5t-11 -16.5q-5 -9 -15 -9h-84q-8 0 -13.5 5t-5.5 13q0 17 6.5 42t21.5 48.5t40 40t63 16.5q23 0 39.5 -6t30 -12.5t25 -12.5t23.5 -6q22 0 28.5 9t11.5 16q5 9 15 9h84q9 0 14 -5.5t5 -13.5
q0 -21 -6.5 -46.5t-22 -47.5t-40.5 -37t-62 -15zM238 27q0 -11 -8 -19t-19 -8h-126q-11 0 -19 8t-8 19v466q0 11 8 19t19 8h126q11 0 19 -8t8 -19v-466z" />
    <glyph glyph-name="dotlessi" unicode="&#x131;" horiz-adv-x="296" 
d="M238 27q0 -11 -8 -19t-19 -8h-126q-11 0 -19 8t-8 19v466q0 11 8 19t19 8h126q11 0 19 -8t8 -19v-466z" />
    <glyph glyph-name="j" unicode="j" horiz-adv-x="307" 
d="M249 602q0 -11 -8 -19t-19 -8h-126q-11 0 -19 8t-8 19v101q0 11 8 19t19 8h126q11 0 19 -8t8 -19v-101zM69 493q0 11 8 19t19 8h126q11 0 19 -8t8 -19v-485q0 -46 -15.5 -83t-44 -62.5t-67.5 -39t-86 -13.5h-50q-11 0 -19 8t-8 19v96q0 11 8 21.5t19 10.5h40
q24 0 33.5 14.5t9.5 33.5v480z" />
    <glyph glyph-name="jcircumflex" unicode="&#x135;" horiz-adv-x="357" 
d="M119 365h-73q-11 0 -19 8t-8 19v101q0 11 8 19t19 8h226q11 0 19 -8t8 -19v-485q0 -46 -15.5 -83t-44 -62.5t-67.5 -39t-86 -13.5h-50q-11 0 -19 8t-8 19v96q0 11 8 21.5t19 10.5h40q24 0 33.5 14.5t9.5 33.5v352zM215 755q11 0 19 -4t18 -15l102 -112q5 -5 5 -13
q0 -16 -16 -16h-67q-10 0 -16 3t-15 8l-74 43l-74 -43q-9 -5 -15 -8t-16 -3h-67q-16 0 -16 16q0 8 5 13l102 112q10 11 18 15t19 4h88z" />
    <glyph glyph-name="dotlessj" unicode="&#x237;" horiz-adv-x="357" 
d="M119 365h-73q-11 0 -19 8t-8 19v101q0 11 8 19t19 8h226q11 0 19 -8t8 -19v-485q0 -46 -15.5 -83t-44 -62.5t-67.5 -39t-86 -13.5h-50q-11 0 -19 8t-8 19v96q0 11 8 21.5t19 10.5h40q24 0 33.5 14.5t9.5 33.5v352z" />
    <glyph glyph-name="k" unicode="k" horiz-adv-x="611" 
d="M238 359l132 144q5 5 15 11t24 6h147q10 0 17 -7t7 -17q0 -5 -1.5 -8.5t-9.5 -11.5l-178 -198l210 -235q6 -7 8 -10.5t2 -8.5q0 -10 -7 -17t-17 -7h-149q-15 0 -24.5 4.5t-16.5 12.5l-159 179v-169q0 -11 -8 -19t-19 -8h-126q-11 0 -19 8t-8 19v656q0 11 8 19t19 8h126
q11 0 19 -8t8 -19v-324z" />
    <glyph glyph-name="kcommaaccent" unicode="&#x137;" horiz-adv-x="611" 
d="M238 359l132 144q5 5 15 11t24 6h147q10 0 17 -7t7 -17q0 -5 -1.5 -8.5t-9.5 -11.5l-178 -198l210 -235q6 -7 8 -10.5t2 -8.5q0 -10 -7 -17t-17 -7h-149q-15 0 -24.5 4.5t-16.5 12.5l-159 179v-169q0 -11 -8 -19t-19 -8h-126q-11 0 -19 8t-8 19v656q0 11 8 19t19 8h126
q11 0 19 -8t8 -19v-324zM218 -89q2 14 12.5 26.5t30.5 12.5h115q9 0 15.5 -6.5t6.5 -15.5q0 -4 -1 -7l-55 -139q-4 -10 -13.5 -21t-29.5 -11h-81q-9 0 -15.5 6.5t-6.5 15.5v2z" />
    <glyph glyph-name="kgreenlandic" unicode="&#x138;" horiz-adv-x="607" 
d="M238 349l139 154q5 5 15 11t24 6h143q10 0 17 -7t7 -17q0 -5 -1.5 -8.5t-9.5 -11.5l-182 -211l203 -222q6 -7 8 -10.5t2 -8.5q0 -10 -7 -17t-17 -7h-150q-15 0 -24.5 4.5t-16.5 12.5l-150 164v-154q0 -11 -8 -19t-19 -8h-126q-11 0 -19 8t-8 19v466q0 11 8 19t19 8h126
q11 0 19 -8t8 -19v-144z" />
    <glyph glyph-name="l" unicode="l" horiz-adv-x="296" 
d="M238 27q0 -11 -8 -19t-19 -8h-126q-11 0 -19 8t-8 19v656q0 11 8 19t19 8h126q11 0 19 -8t8 -19v-656z" />
    <glyph glyph-name="lacute" unicode="&#x13a;" horiz-adv-x="296" 
d="M238 27q0 -11 -8 -19t-19 -8h-126q-11 0 -19 8t-8 19v656q0 11 8 19t19 8h126q11 0 19 -8t8 -19v-656zM170 891q11 13 18.5 16t18.5 3h133q19 0 19 -20q0 -7 -5 -12l-135 -111q-8 -7 -17 -12t-25 -5h-88q-16 0 -16 16q0 8 5 13z" />
    <glyph glyph-name="lcaron" unicode="&#x13e;" horiz-adv-x="411" 
d="M238 27q0 -11 -8 -19t-19 -8h-126q-11 0 -19 8t-8 19v656q0 11 8 19t19 8h126q11 0 19 -8t8 -19v-656zM314 672q2 14 12.5 26.5t30.5 12.5h115q9 0 15.5 -6.5t6.5 -15.5q0 -4 -1 -7l-55 -139q-4 -10 -13.5 -21t-29.5 -11h-81q-9 0 -15.5 6.5t-6.5 15.5v2z" />
    <glyph glyph-name="lcommaaccent" unicode="&#x13c;" horiz-adv-x="296" 
d="M238 27q0 -11 -8 -19t-19 -8h-126q-11 0 -19 8t-8 19v656q0 11 8 19t19 8h126q11 0 19 -8t8 -19v-656zM55 -89q2 14 12.5 26.5t30.5 12.5h115q9 0 15.5 -6.5t6.5 -15.5q0 -4 -1 -7l-55 -139q-4 -10 -13.5 -21t-29.5 -11h-81q-9 0 -15.5 6.5t-6.5 15.5v2z" />
    <glyph glyph-name="ldot" unicode="&#x140;" horiz-adv-x="445" 
d="M238 27q0 -11 -8 -19t-19 -8h-126q-11 0 -19 8t-8 19v656q0 11 8 19t19 8h126q11 0 19 -8t8 -19v-656zM453 304q0 -11 -8 -19t-19 -8h-111q-11 0 -19 8t-8 19v111q0 11 8 19t19 8h111q11 0 19 -8t8 -19v-111z" />
    <glyph glyph-name="lslash" unicode="&#x142;" horiz-adv-x="331" 
d="M75 376v307q0 11 8 19t19 8h126q11 0 19 -8t8 -19v-236l28 11q7 3 11 3q9 0 15 -6t6 -15v-58q0 -25 -22 -33l-38 -15v-307q0 -11 -8 -19t-19 -8h-126q-11 0 -19 8t-8 19v236l-28 -11q-8 -3 -11 -3q-9 0 -15 6t-6 15v58q0 25 22 33z" />
    <glyph glyph-name="m" unicode="m" horiz-adv-x="931" 
d="M878 27q0 -11 -8 -19t-19 -8h-121q-11 0 -19 8t-8 19v256q0 50 -18.5 71t-54.5 21q-35 0 -53.5 -21t-18.5 -71v-256q0 -11 -8 -19t-19 -8h-121q-11 0 -19 8t-8 19v256q0 50 -18.5 71t-54.5 21q-35 0 -53.5 -20.5t-18.5 -68.5v-259q0 -11 -8 -19t-19 -8h-126q-11 0 -19 8
t-8 19v466q0 11 8 19t19 8h121q11 0 19 -8t8 -19v-23q22 28 53.5 44t73.5 16q51 0 92.5 -19t67.5 -59q29 38 70.5 58t89.5 20q43 0 79.5 -13.5t63 -41.5t41 -71t14.5 -102v-275z" />
    <glyph glyph-name="n" unicode="n" horiz-adv-x="644" 
d="M591 27q0 -11 -8 -19t-19 -8h-126q-11 0 -19 8t-8 19v253q0 43 -21 69t-66 26t-65.5 -26t-20.5 -69v-253q0 -11 -8 -19t-19 -8h-126q-11 0 -19 8t-8 19v466q0 11 8 19t19 8h121q11 0 19 -8t8 -19v-23q8 10 20 21t29 19.5t39.5 14t52.5 5.5q48 0 88 -13.5t68.5 -41.5
t44.5 -71t16 -102v-275z" />
    <glyph glyph-name="nacute" unicode="&#x144;" horiz-adv-x="644" 
d="M591 27q0 -11 -8 -19t-19 -8h-126q-11 0 -19 8t-8 19v253q0 43 -21 69t-66 26t-65.5 -26t-20.5 -69v-253q0 -11 -8 -19t-19 -8h-126q-11 0 -19 8t-8 19v466q0 11 8 19t19 8h121q11 0 19 -8t8 -19v-23q8 10 20 21t29 19.5t39.5 14t52.5 5.5q48 0 88 -13.5t68.5 -41.5
t44.5 -71t16 -102v-275zM351 736q11 13 18.5 16t18.5 3h133q19 0 19 -20q0 -7 -5 -12l-135 -111q-8 -7 -17 -12t-25 -5h-88q-16 0 -16 16q0 8 5 13z" />
    <glyph glyph-name="napostrophe" unicode="&#x149;" horiz-adv-x="644" 
d="M591 27q0 -11 -8 -19t-19 -8h-126q-11 0 -19 8t-8 19v253q0 43 -21 69t-66 26t-65.5 -26t-20.5 -69v-253q0 -11 -8 -19t-19 -8h-126q-11 0 -19 8t-8 19v466q0 11 8 19t19 8h121q11 0 19 -8t8 -19v-23q8 10 20 21t29 19.5t39.5 14t52.5 5.5q48 0 88 -13.5t68.5 -41.5
t44.5 -71t16 -102v-275zM101 756q2 14 12.5 26.5t30.5 12.5h115q9 0 15.5 -6.5t6.5 -15.5q0 -4 -1 -7l-55 -139q-4 -10 -13.5 -21t-29.5 -11h-81q-9 0 -15.5 6.5t-6.5 15.5v2z" />
    <glyph glyph-name="ncaron" unicode="&#x148;" horiz-adv-x="644" 
d="M591 27q0 -11 -8 -19t-19 -8h-126q-11 0 -19 8t-8 19v253q0 43 -21 69t-66 26t-65.5 -26t-20.5 -69v-253q0 -11 -8 -19t-19 -8h-126q-11 0 -19 8t-8 19v466q0 11 8 19t19 8h121q11 0 19 -8t8 -19v-23q8 10 20 21t29 19.5t39.5 14t52.5 5.5q48 0 88 -13.5t68.5 -41.5
t44.5 -71t16 -102v-275zM280 595q-11 0 -19 4t-18 15l-102 112q-5 5 -5 13q0 16 16 16h67q10 0 16 -3t15 -8l74 -43l74 43q9 5 15 8t16 3h67q16 0 16 -16q0 -8 -5 -13l-102 -112q-10 -11 -18 -15t-19 -4h-88z" />
    <glyph glyph-name="ncommaaccent" unicode="&#x146;" horiz-adv-x="644" 
d="M591 27q0 -11 -8 -19t-19 -8h-126q-11 0 -19 8t-8 19v253q0 43 -21 69t-66 26t-65.5 -26t-20.5 -69v-253q0 -11 -8 -19t-19 -8h-126q-11 0 -19 8t-8 19v466q0 11 8 19t19 8h121q11 0 19 -8t8 -19v-23q8 10 20 21t29 19.5t39.5 14t52.5 5.5q48 0 88 -13.5t68.5 -41.5
t44.5 -71t16 -102v-275zM232 -89q2 14 12.5 26.5t30.5 12.5h115q9 0 15.5 -6.5t6.5 -15.5q0 -4 -1 -7l-55 -139q-4 -10 -13.5 -21t-29.5 -11h-81q-9 0 -15.5 6.5t-6.5 15.5v2z" />
    <glyph glyph-name="ntilde" unicode="&#xf1;" horiz-adv-x="644" 
d="M591 27q0 -11 -8 -19t-19 -8h-126q-11 0 -19 8t-8 19v253q0 43 -21 69t-66 26t-65.5 -26t-20.5 -69v-253q0 -11 -8 -19t-19 -8h-126q-11 0 -19 8t-8 19v466q0 11 8 19t19 8h121q11 0 19 -8t8 -19v-23q8 10 20 21t29 19.5t39.5 14t52.5 5.5q48 0 88 -13.5t68.5 -41.5
t44.5 -71t16 -102v-275zM406 590q-30 0 -48 7t-31.5 15.5t-25 15.5t-27.5 7q-12 0 -18 -6.5t-10.5 -14t-8.5 -13.5t-12 -6h-76q-9 0 -14 5.5t-5 13.5q0 22 6.5 46.5t20.5 44t35 32.5t50 13q30 0 48 -7t31.5 -15.5t25 -15.5t27.5 -7q12 0 18 6t10.5 13.5t8.5 14t12 6.5h76
q9 0 14 -5.5t5 -13.5q0 -23 -8 -47t-23 -43.5t-35.5 -32.5t-45.5 -13z" />
    <glyph glyph-name="o" unicode="o" horiz-adv-x="616" 
d="M580 298q1 -15 1 -38.5t-1 -38.5q-2 -48 -22 -90t-55 -73.5t-84.5 -49.5t-110.5 -18t-110.5 18t-84.5 49.5t-55 73.5t-22 90q-1 15 -1 38.5t1 38.5q1 48 21 90t55.5 73.5t85 50t110.5 18.5t110.5 -18.5t85 -50t55 -73.5t21.5 -90zM216 226q3 -38 27.5 -59.5t64.5 -21.5
t64.5 21.5t27.5 59.5q2 15 2 34t-2 34q-3 38 -27.5 59.5t-64.5 21.5t-64.5 -21.5t-27.5 -59.5q-2 -15 -2 -34t2 -34z" />
    <glyph glyph-name="oacute" unicode="&#xf3;" horiz-adv-x="616" 
d="M580 298q1 -15 1 -38.5t-1 -38.5q-2 -48 -22 -90t-55 -73.5t-84.5 -49.5t-110.5 -18t-110.5 18t-84.5 49.5t-55 73.5t-22 90q-1 15 -1 38.5t1 38.5q1 48 21 90t55.5 73.5t85 50t110.5 18.5t110.5 -18.5t85 -50t55 -73.5t21.5 -90zM216 226q3 -38 27.5 -59.5t64.5 -21.5
t64.5 21.5t27.5 59.5q2 15 2 34t-2 34q-3 38 -27.5 59.5t-64.5 21.5t-64.5 -21.5t-27.5 -59.5q-2 -15 -2 -34t2 -34zM331 736q11 13 18.5 16t18.5 3h133q19 0 19 -20q0 -7 -5 -12l-135 -111q-8 -7 -17 -12t-25 -5h-88q-16 0 -16 16q0 8 5 13z" />
    <glyph glyph-name="obreve" unicode="&#x14f;" horiz-adv-x="616" 
d="M580 298q1 -15 1 -38.5t-1 -38.5q-2 -48 -22 -90t-55 -73.5t-84.5 -49.5t-110.5 -18t-110.5 18t-84.5 49.5t-55 73.5t-22 90q-1 15 -1 38.5t1 38.5q1 48 21 90t55.5 73.5t85 50t110.5 18.5t110.5 -18.5t85 -50t55 -73.5t21.5 -90zM216 226q3 -38 27.5 -59.5t64.5 -21.5
t64.5 21.5t27.5 59.5q2 15 2 34t-2 34q-3 38 -27.5 59.5t-64.5 21.5t-64.5 -21.5t-27.5 -59.5q-2 -15 -2 -34t2 -34zM308 590q-46 0 -77.5 13.5t-50.5 35t-27.5 47.5t-8.5 50q0 8 5 13.5t14 5.5h84q9 0 14 -5.5t5 -13.5q0 -19 10.5 -34.5t31.5 -15.5t31.5 15.5t10.5 34.5
q0 8 5 13.5t14 5.5h84q9 0 14 -5.5t5 -13.5q0 -24 -8.5 -50t-27.5 -47.5t-50.5 -35t-77.5 -13.5z" />
    <glyph glyph-name="ocircumflex" unicode="&#xf4;" horiz-adv-x="616" 
d="M580 298q1 -15 1 -38.5t-1 -38.5q-2 -48 -22 -90t-55 -73.5t-84.5 -49.5t-110.5 -18t-110.5 18t-84.5 49.5t-55 73.5t-22 90q-1 15 -1 38.5t1 38.5q1 48 21 90t55.5 73.5t85 50t110.5 18.5t110.5 -18.5t85 -50t55 -73.5t21.5 -90zM216 226q3 -38 27.5 -59.5t64.5 -21.5
t64.5 21.5t27.5 59.5q2 15 2 34t-2 34q-3 38 -27.5 59.5t-64.5 21.5t-64.5 -21.5t-27.5 -59.5q-2 -15 -2 -34t2 -34zM352 755q11 0 19 -4t18 -15l102 -112q5 -5 5 -13q0 -16 -16 -16h-67q-10 0 -16 3t-15 8l-74 43l-74 -43q-9 -5 -15 -8t-16 -3h-67q-16 0 -16 16q0 8 5 13
l102 112q10 11 18 15t19 4h88z" />
    <glyph glyph-name="odieresis" unicode="&#xf6;" horiz-adv-x="616" 
d="M580 298q1 -15 1 -38.5t-1 -38.5q-2 -48 -22 -90t-55 -73.5t-84.5 -49.5t-110.5 -18t-110.5 18t-84.5 49.5t-55 73.5t-22 90q-1 15 -1 38.5t1 38.5q1 48 21 90t55.5 73.5t85 50t110.5 18.5t110.5 -18.5t85 -50t55 -73.5t21.5 -90zM216 226q3 -38 27.5 -59.5t64.5 -21.5
t64.5 21.5t27.5 59.5q2 15 2 34t-2 34q-3 38 -27.5 59.5t-64.5 21.5t-64.5 -21.5t-27.5 -59.5q-2 -15 -2 -34t2 -34zM273 622q0 -11 -8 -19t-19 -8h-101q-11 0 -19 8t-8 19v101q0 11 8 19t19 8h101q11 0 19 -8t8 -19v-101zM498 622q0 -11 -8 -19t-19 -8h-101q-11 0 -19 8
t-8 19v101q0 11 8 19t19 8h101q11 0 19 -8t8 -19v-101z" />
    <glyph glyph-name="ograve" unicode="&#xf2;" horiz-adv-x="616" 
d="M580 298q1 -15 1 -38.5t-1 -38.5q-2 -48 -22 -90t-55 -73.5t-84.5 -49.5t-110.5 -18t-110.5 18t-84.5 49.5t-55 73.5t-22 90q-1 15 -1 38.5t1 38.5q1 48 21 90t55.5 73.5t85 50t110.5 18.5t110.5 -18.5t85 -50t55 -73.5t21.5 -90zM216 226q3 -38 27.5 -59.5t64.5 -21.5
t64.5 21.5t27.5 59.5q2 15 2 34t-2 34q-3 38 -27.5 59.5t-64.5 21.5t-64.5 -21.5t-27.5 -59.5q-2 -15 -2 -34t2 -34zM383 624q5 -5 5 -13q0 -16 -16 -16h-88q-16 0 -25 5t-17 12l-135 111q-5 5 -5 12q0 20 19 20h133q11 0 18.5 -3t18.5 -16z" />
    <glyph glyph-name="ohungarumlaut" unicode="&#x151;" horiz-adv-x="616" 
d="M580 298q1 -15 1 -38.5t-1 -38.5q-2 -48 -22 -90t-55 -73.5t-84.5 -49.5t-110.5 -18t-110.5 18t-84.5 49.5t-55 73.5t-22 90q-1 15 -1 38.5t1 38.5q1 48 21 90t55.5 73.5t85 50t110.5 18.5t110.5 -18.5t85 -50t55 -73.5t21.5 -90zM216 226q3 -38 27.5 -59.5t64.5 -21.5
t64.5 21.5t27.5 59.5q2 15 2 34t-2 34q-3 38 -27.5 59.5t-64.5 21.5t-64.5 -21.5t-27.5 -59.5q-2 -15 -2 -34t2 -34zM190 736q5 10 13 14.5t24 4.5h112q20 0 20 -19q0 -7 -6 -13l-105 -114q-12 -14 -34 -14h-63q-16 0 -16 16q0 4 1.5 8t3.5 7zM410 736q5 10 13 14.5t24 4.5
h112q20 0 20 -19q0 -7 -6 -13l-105 -114q-12 -14 -34 -14h-63q-16 0 -16 16q0 4 1.5 8t3.5 7z" />
    <glyph glyph-name="omacron" unicode="&#x14d;" horiz-adv-x="616" 
d="M580 298q1 -15 1 -38.5t-1 -38.5q-2 -48 -22 -90t-55 -73.5t-84.5 -49.5t-110.5 -18t-110.5 18t-84.5 49.5t-55 73.5t-22 90q-1 15 -1 38.5t1 38.5q1 48 21 90t55.5 73.5t85 50t110.5 18.5t110.5 -18.5t85 -50t55 -73.5t21.5 -90zM216 226q3 -38 27.5 -59.5t64.5 -21.5
t64.5 21.5t27.5 59.5q2 15 2 34t-2 34q-3 38 -27.5 59.5t-64.5 21.5t-64.5 -21.5t-27.5 -59.5q-2 -15 -2 -34t2 -34zM164 595q-11 0 -19 8t-8 19v86q0 11 8 19t19 8h289q11 0 19 -8t8 -19v-86q0 -11 -8 -19t-19 -8h-289z" />
    <glyph glyph-name="oslash" unicode="&#xf8;" horiz-adv-x="654" 
d="M55 212v9q-1 15 -1 38.5t1 38.5q1 48 21 90t55.5 73.5t85 50t110.5 18.5q84 0 145.5 -33.5t93.5 -87.5l47 18q7 3 11 3q9 0 15 -6t6 -15v-58q0 -25 -22 -33l-25 -10q1 -3 1 -10q1 -15 1 -38.5t-1 -38.5q-2 -48 -22 -90t-55 -73.5t-84.5 -49.5t-110.5 -18
q-85 0 -146.5 33.5t-93.5 88.5l-46 -18q-8 -3 -11 -3q-9 0 -15 6t-6 15v58q0 25 22 33zM399 345q-25 30 -72 30q-40 0 -66 -23t-27 -71zM253 176q25 -31 74 -31q40 0 66.5 23.5t26.5 71.5z" />
    <glyph glyph-name="oslashacute" unicode="&#x1ff;" horiz-adv-x="654" 
d="M346 736q11 13 18.5 16t18.5 3h133q19 0 19 -20q0 -7 -5 -12l-135 -111q-8 -7 -17 -12t-25 -5h-88q-16 0 -16 16q0 8 5 13zM55 212v9q-1 15 -1 38.5t1 38.5q1 48 21 90t55.5 73.5t85 50t110.5 18.5q84 0 145.5 -33.5t93.5 -87.5l47 18q7 3 11 3q9 0 15 -6t6 -15v-58
q0 -25 -22 -33l-25 -10q1 -3 1 -10q1 -15 1 -38.5t-1 -38.5q-2 -48 -22 -90t-55 -73.5t-84.5 -49.5t-110.5 -18q-85 0 -146.5 33.5t-93.5 88.5l-46 -18q-8 -3 -11 -3q-9 0 -15 6t-6 15v58q0 25 22 33zM399 345q-25 30 -72 30q-40 0 -66 -23t-27 -71zM253 176q25 -31 74 -31
q40 0 66.5 23.5t26.5 71.5z" />
    <glyph glyph-name="otilde" unicode="&#xf5;" horiz-adv-x="616" 
d="M580 298q1 -15 1 -38.5t-1 -38.5q-2 -48 -22 -90t-55 -73.5t-84.5 -49.5t-110.5 -18t-110.5 18t-84.5 49.5t-55 73.5t-22 90q-1 15 -1 38.5t1 38.5q1 48 21 90t55.5 73.5t85 50t110.5 18.5t110.5 -18.5t85 -50t55 -73.5t21.5 -90zM216 226q3 -38 27.5 -59.5t64.5 -21.5
t64.5 21.5t27.5 59.5q2 15 2 34t-2 34q-3 38 -27.5 59.5t-64.5 21.5t-64.5 -21.5t-27.5 -59.5q-2 -15 -2 -34t2 -34zM390 590q-30 0 -48 7t-31.5 15.5t-25 15.5t-27.5 7q-12 0 -18 -6.5t-10.5 -14t-8.5 -13.5t-12 -6h-76q-9 0 -14 5.5t-5 13.5q0 22 6.5 46.5t20.5 44
t35 32.5t50 13q30 0 48 -7t31.5 -15.5t25 -15.5t27.5 -7q12 0 18 6t10.5 13.5t8.5 14t12 6.5h76q9 0 14 -5.5t5 -13.5q0 -23 -8 -47t-23 -43.5t-35.5 -32.5t-45.5 -13z" />
    <glyph glyph-name="oe" unicode="&#x153;" horiz-adv-x="975" 
d="M582 203q0 -23 8.5 -38t21.5 -24t29 -12.5t31 -3.5q30 0 47.5 6t29.5 17q11 9 16 11.5t17 2.5h130q22 0 22 -22q0 -12 -15 -36.5t-46.5 -50t-81.5 -44.5t-119 -19q-58 0 -103.5 14.5t-79.5 41.5q-35 -26 -80 -41t-101 -15q-61 0 -110.5 18t-84.5 49.5t-55 73.5t-22 90
q-1 15 -1 38.5t1 38.5q1 48 21 90t55.5 73.5t85 50t110.5 18.5q56 0 102 -15.5t81 -42.5q34 28 79 43t102 15q73 0 124.5 -24.5t84 -63.5t47 -87.5t14.5 -96.5v-28q0 -11 -8 -19t-19 -8h-333zM216 226q3 -38 27.5 -59.5t64.5 -21.5t64.5 21.5t27.5 59.5q2 15 2 34t-2 34
q-3 38 -27.5 59.5t-64.5 21.5t-64.5 -21.5t-27.5 -59.5q-2 -15 -2 -34t2 -34zM672 395q-42 0 -64 -25t-26 -56h180q-4 31 -26 56t-64 25z" />
    <glyph glyph-name="p" unicode="p" horiz-adv-x="634" 
d="M372 -10q-29 0 -51 6t-38 15t-27 19.5t-18 19.5v-213q0 -11 -8 -19t-19 -8h-126q-11 0 -19 8t-8 19v656q0 11 8 19t19 8h121q11 0 19 -8t8 -19v-23q9 10 19.5 21t26 19.5t38 14t55.5 5.5q45 0 85 -13.5t70 -42t48.5 -71.5t20.5 -102q1 -15 1 -40.5t-1 -40.5
q-2 -59 -20.5 -102t-48.5 -71.5t-70 -42.5t-85 -14zM417 232q3 28 0 56q-3 35 -23 61t-67 26q-22 0 -38 -7t-26.5 -18.5t-16.5 -25.5t-8 -29t-2 -35t2 -35t8 -29t16.5 -25.5t26.5 -18.5t38 -7q47 0 67 26t23 61z" />
    <glyph glyph-name="q" unicode="q" horiz-adv-x="634" 
d="M262 -10q-45 0 -85 14t-70 42.5t-48.5 71.5t-20.5 102q-1 15 -1 40.5t1 40.5q2 59 20.5 102t48.5 71.5t70 42t85 13.5q33 0 55.5 -5.5t38 -14t26 -19.5t19.5 -21v23q0 11 8 19t19 8h121q11 0 19 -8t8 -19v-656q0 -11 -8 -19t-19 -8h-126q-11 0 -19 8t-8 19v213
q-7 -9 -18 -19.5t-27 -19.5t-38 -15t-51 -6zM217 232q3 -35 23 -61t67 -26q22 0 38 7t26.5 18.5t16.5 25.5t8 29t2 35t-2 35t-8 29t-16.5 25.5t-26.5 18.5t-38 7q-47 0 -67 -26t-23 -61q-3 -28 0 -56z" />
    <glyph glyph-name="r" unicode="r" horiz-adv-x="459" 
d="M421 520q11 0 19 -8t8 -19v-101q0 -11 -8 -19t-19 -8h-91q-92 0 -92 -92v-246q0 -11 -8 -19t-19 -8h-126q-11 0 -19 8t-8 19v466q0 11 8 19t19 8h116q11 0 19 -8t8 -19v-23q23 22 55.5 36t77.5 14h60z" />
    <glyph glyph-name="racute" unicode="&#x155;" horiz-adv-x="459" 
d="M421 520q11 0 19 -8t8 -19v-101q0 -11 -8 -19t-19 -8h-91q-92 0 -92 -92v-246q0 -11 -8 -19t-19 -8h-126q-11 0 -19 8t-8 19v466q0 11 8 19t19 8h116q11 0 19 -8t8 -19v-23q23 22 55.5 36t77.5 14h60zM279 736q11 13 18.5 16t18.5 3h133q19 0 19 -20q0 -7 -5 -12
l-135 -111q-8 -7 -17 -12t-25 -5h-88q-16 0 -16 16q0 8 5 13z" />
    <glyph glyph-name="rcaron" unicode="&#x159;" horiz-adv-x="459" 
d="M421 520q11 0 19 -8t8 -19v-101q0 -11 -8 -19t-19 -8h-91q-92 0 -92 -92v-246q0 -11 -8 -19t-19 -8h-126q-11 0 -19 8t-8 19v466q0 11 8 19t19 8h116q11 0 19 -8t8 -19v-23q23 22 55.5 36t77.5 14h60zM209 595q-11 0 -19 4t-18 15l-102 112q-5 5 -5 13q0 16 16 16h67
q10 0 16 -3t15 -8l74 -43l74 43q9 5 15 8t16 3h67q16 0 16 -16q0 -8 -5 -13l-102 -112q-10 -11 -18 -15t-19 -4h-88z" />
    <glyph glyph-name="rcommaaccent" unicode="&#x157;" horiz-adv-x="459" 
d="M421 520q11 0 19 -8t8 -19v-101q0 -11 -8 -19t-19 -8h-91q-92 0 -92 -92v-246q0 -11 -8 -19t-19 -8h-126q-11 0 -19 8t-8 19v466q0 11 8 19t19 8h116q11 0 19 -8t8 -19v-23q23 22 55.5 36t77.5 14h60zM53 -89q2 14 12.5 26.5t30.5 12.5h115q9 0 15.5 -6.5t6.5 -15.5
q0 -4 -1 -7l-55 -139q-4 -10 -13.5 -21t-29.5 -11h-81q-9 0 -15.5 6.5t-6.5 15.5v2z" />
    <glyph glyph-name="s" unicode="s" horiz-adv-x="562" 
d="M352 156q0 11 -7.5 17t-25.5 10t-47.5 8t-73.5 12q-76 14 -117 56t-41 110q0 34 17 63t47.5 51t73.5 34.5t96 12.5q52 0 96 -12.5t76 -32t50.5 -45t20.5 -50.5q1 -11 -7.5 -19t-19.5 -8h-119q-11 0 -17.5 5t-15.5 11t-23.5 11t-40.5 5q-23 0 -38.5 -6.5t-15.5 -21.5
q0 -11 5 -17t20 -9.5t42 -7.5t71 -11q91 -15 132.5 -61.5t41.5 -106.5q0 -34 -17 -63.5t-50 -52t-80 -35.5t-107 -13t-105.5 13.5t-76.5 34.5t-47.5 46t-18.5 49q-1 11 7.5 19t19.5 8h124q11 0 16 -5.5t13 -12t23 -12t45 -5.5t52 8t22 23z" />
    <glyph glyph-name="sacute" unicode="&#x15b;" horiz-adv-x="562" 
d="M352 156q0 11 -7.5 17t-25.5 10t-47.5 8t-73.5 12q-76 14 -117 56t-41 110q0 34 17 63t47.5 51t73.5 34.5t96 12.5q52 0 96 -12.5t76 -32t50.5 -45t20.5 -50.5q1 -11 -7.5 -19t-19.5 -8h-119q-11 0 -17.5 5t-15.5 11t-23.5 11t-40.5 5q-23 0 -38.5 -6.5t-15.5 -21.5
q0 -11 5 -17t20 -9.5t42 -7.5t71 -11q91 -15 132.5 -61.5t41.5 -106.5q0 -34 -17 -63.5t-50 -52t-80 -35.5t-107 -13t-105.5 13.5t-76.5 34.5t-47.5 46t-18.5 49q-1 11 7.5 19t19.5 8h124q11 0 16 -5.5t13 -12t23 -12t45 -5.5t52 8t22 23zM309 736q11 13 18.5 16t18.5 3h133
q19 0 19 -20q0 -7 -5 -12l-135 -111q-8 -7 -17 -12t-25 -5h-88q-16 0 -16 16q0 8 5 13z" />
    <glyph glyph-name="scaron" unicode="&#x161;" horiz-adv-x="562" 
d="M352 156q0 11 -7.5 17t-25.5 10t-47.5 8t-73.5 12q-76 14 -117 56t-41 110q0 34 17 63t47.5 51t73.5 34.5t96 12.5q52 0 96 -12.5t76 -32t50.5 -45t20.5 -50.5q1 -11 -7.5 -19t-19.5 -8h-119q-11 0 -17.5 5t-15.5 11t-23.5 11t-40.5 5q-23 0 -38.5 -6.5t-15.5 -21.5
q0 -11 5 -17t20 -9.5t42 -7.5t71 -11q91 -15 132.5 -61.5t41.5 -106.5q0 -34 -17 -63.5t-50 -52t-80 -35.5t-107 -13t-105.5 13.5t-76.5 34.5t-47.5 46t-18.5 49q-1 11 7.5 19t19.5 8h124q11 0 16 -5.5t13 -12t23 -12t45 -5.5t52 8t22 23zM234 595q-11 0 -19 4t-18 15
l-102 112q-5 5 -5 13q0 16 16 16h67q10 0 16 -3t15 -8l74 -43l74 43q9 5 15 8t16 3h67q16 0 16 -16q0 -8 -5 -13l-102 -112q-10 -11 -18 -15t-19 -4h-88z" />
    <glyph glyph-name="scedilla" unicode="&#x15f;" horiz-adv-x="562" 
d="M352 156q0 11 -7.5 17t-25.5 10t-47.5 8t-73.5 12q-76 14 -117 56t-41 110q0 34 17 63t47.5 51t73.5 34.5t96 12.5q52 0 96 -12.5t76 -32t50.5 -45t20.5 -50.5q1 -11 -7.5 -19t-19.5 -8h-119q-11 0 -17.5 5t-15.5 11t-23.5 11t-40.5 5q-23 0 -38.5 -6.5t-15.5 -21.5
q0 -11 5 -17t20 -9.5t42 -7.5t71 -11q91 -15 132.5 -61.5t41.5 -106.5q0 -34 -17 -63.5t-49 -52t-78.5 -35.5t-105.5 -13l-21 -44q6 4 16 7t21 3q38 0 57 -26t19 -62t-27 -62t-72 -26q-16 0 -33.5 5t-30 13t-17.5 16.5t4 16.5l18 16q8 7 13.5 7t11 -3t13.5 -6.5t21 -3.5
q14 0 23.5 6t9.5 21q0 14 -9 20.5t-24 6.5q-7 0 -14.5 -2t-14.5 -3.5t-13.5 -1t-11.5 5.5l-18 21q-6 8 -7.5 13.5t5.5 19.5l22 46q-47 6 -82 20.5t-59 34t-37 41.5t-15 43q-1 11 7.5 19t19.5 8h124q11 0 16 -5.5t13 -12t23 -12t45 -5.5t52 8t22 23z" />
    <glyph glyph-name="scircumflex" unicode="&#x15d;" horiz-adv-x="562" 
d="M352 156q0 11 -7.5 17t-25.5 10t-47.5 8t-73.5 12q-76 14 -117 56t-41 110q0 34 17 63t47.5 51t73.5 34.5t96 12.5q52 0 96 -12.5t76 -32t50.5 -45t20.5 -50.5q1 -11 -7.5 -19t-19.5 -8h-119q-11 0 -17.5 5t-15.5 11t-23.5 11t-40.5 5q-23 0 -38.5 -6.5t-15.5 -21.5
q0 -11 5 -17t20 -9.5t42 -7.5t71 -11q91 -15 132.5 -61.5t41.5 -106.5q0 -34 -17 -63.5t-50 -52t-80 -35.5t-107 -13t-105.5 13.5t-76.5 34.5t-47.5 46t-18.5 49q-1 11 7.5 19t19.5 8h124q11 0 16 -5.5t13 -12t23 -12t45 -5.5t52 8t22 23zM322 755q11 0 19 -4t18 -15
l102 -112q5 -5 5 -13q0 -16 -16 -16h-67q-10 0 -16 3t-15 8l-74 43l-74 -43q-9 -5 -15 -8t-16 -3h-67q-16 0 -16 16q0 8 5 13l102 112q10 11 18 15t19 4h88z" />
    <glyph glyph-name="scommaaccent" unicode="&#x219;" horiz-adv-x="562" 
d="M352 156q0 11 -7.5 17t-25.5 10t-47.5 8t-73.5 12q-76 14 -117 56t-41 110q0 34 17 63t47.5 51t73.5 34.5t96 12.5q52 0 96 -12.5t76 -32t50.5 -45t20.5 -50.5q1 -11 -7.5 -19t-19.5 -8h-119q-11 0 -17.5 5t-15.5 11t-23.5 11t-40.5 5q-23 0 -38.5 -6.5t-15.5 -21.5
q0 -11 5 -17t20 -9.5t42 -7.5t71 -11q91 -15 132.5 -61.5t41.5 -106.5q0 -34 -17 -63.5t-50 -52t-80 -35.5t-107 -13t-105.5 13.5t-76.5 34.5t-47.5 46t-18.5 49q-1 11 7.5 19t19.5 8h124q11 0 16 -5.5t13 -12t23 -12t45 -5.5t52 8t22 23zM183 -89q2 14 12.5 26.5t30.5 12.5
h115q9 0 15.5 -6.5t6.5 -15.5q0 -4 -1 -7l-55 -139q-4 -10 -13.5 -21t-29.5 -11h-81q-9 0 -15.5 6.5t-6.5 15.5v2z" />
    <glyph glyph-name="t" unicode="t" horiz-adv-x="474" 
d="M297 203q0 -23 10 -35.5t33 -12.5h80q11 0 19 -8t8 -19v-101q0 -11 -8 -19t-19 -8h-95q-47 0 -85.5 13.5t-65.5 39t-42 62t-15 82.5v168h-74q-11 0 -19 8t-8 19v101q0 11 8 19t19 8h74v163q0 11 8 19t19 8h126q11 0 19 -8t8 -19v-163h113q11 0 19 -8t8 -19v-101
q0 -11 -8 -19t-19 -8h-113v-162z" />
    <glyph glyph-name="tbar" unicode="&#x167;" horiz-adv-x="475" 
d="M411 370q11 0 19 -8t8 -19v-51q0 -11 -8 -19t-19 -8h-113v-62q0 -23 10 -35.5t33 -12.5h80q11 0 19 -8t8 -19v-101q0 -11 -8 -19t-19 -8h-95q-47 0 -85.5 13.5t-65.5 39t-42 62t-15 82.5v68h-74q-11 0 -19 8t-8 19v51q0 11 8 19t19 8h74v45h-74q-11 0 -19 8t-8 19v51
q0 11 8 19t19 8h74v163q0 11 8 19t19 8h126q11 0 19 -8t8 -19v-163h113q11 0 19 -8t8 -19v-51q0 -11 -8 -19t-19 -8h-113v-45h113v0z" />
    <glyph glyph-name="tcaron" unicode="&#x165;" horiz-adv-x="552" 
d="M297 203q0 -23 10 -35.5t33 -12.5h80q11 0 19 -8t8 -19v-101q0 -11 -8 -19t-19 -8h-95q-47 0 -85.5 13.5t-65.5 39t-42 62t-15 82.5v168h-74q-11 0 -19 8t-8 19v101q0 11 8 19t19 8h74v163q0 11 8 19t19 8h126q11 0 19 -8t8 -19v-163h113q11 0 19 -8t8 -19v-101
q0 -11 -8 -19t-19 -8h-113v-162zM483 671q2 14 12.5 26.5t30.5 12.5h115q9 0 15.5 -6.5t6.5 -15.5q0 -4 -1 -7l-55 -139q-4 -10 -13.5 -21t-29.5 -11h-81q-9 0 -15.5 6.5t-6.5 15.5v2z" />
    <glyph glyph-name="tcommaaccent" unicode="&#x163;" horiz-adv-x="474" 
d="M297 203q0 -23 10 -35.5t33 -12.5h80q11 0 19 -8t8 -19v-101q0 -11 -8 -19t-19 -8h-95q-47 0 -85.5 13.5t-65.5 39t-42 62t-15 82.5v168h-74q-11 0 -19 8t-8 19v101q0 11 8 19t19 8h74v163q0 11 8 19t19 8h126q11 0 19 -8t8 -19v-163h113q11 0 19 -8t8 -19v-101
q0 -11 -8 -19t-19 -8h-113v-162zM134 -89q2 14 12.5 26.5t30.5 12.5h115q9 0 15.5 -6.5t6.5 -15.5q0 -4 -1 -7l-55 -139q-4 -10 -13.5 -21t-29.5 -11h-81q-9 0 -15.5 6.5t-6.5 15.5v2z" />
    <glyph glyph-name="u" unicode="u" horiz-adv-x="634" 
d="M53 493q0 11 8 19t19 8h126q11 0 19 -8t8 -19v-253q0 -43 19 -69t63 -26t62.5 26t18.5 69v253q0 11 8 19t19 8h126q11 0 19 -8t8 -19v-466q0 -11 -8 -19t-19 -8h-116q-11 0 -19 8t-8 19v23q-8 -11 -19.5 -21.5t-28.5 -19t-39.5 -14t-53.5 -5.5q-97 0 -154.5 55t-57.5 173
v275z" />
    <glyph glyph-name="uacute" unicode="&#xfa;" horiz-adv-x="634" 
d="M53 493q0 11 8 19t19 8h126q11 0 19 -8t8 -19v-253q0 -43 19 -69t63 -26t62.5 26t18.5 69v253q0 11 8 19t19 8h126q11 0 19 -8t8 -19v-466q0 -11 -8 -19t-19 -8h-116q-11 0 -19 8t-8 19v23q-8 -11 -19.5 -21.5t-28.5 -19t-39.5 -14t-53.5 -5.5q-97 0 -154.5 55t-57.5 173
v275zM342 736q11 13 18.5 16t18.5 3h133q19 0 19 -20q0 -7 -5 -12l-135 -111q-8 -7 -17 -12t-25 -5h-88q-16 0 -16 16q0 8 5 13z" />
    <glyph glyph-name="ubreve" unicode="&#x16d;" horiz-adv-x="634" 
d="M53 493q0 11 8 19t19 8h126q11 0 19 -8t8 -19v-253q0 -43 19 -69t63 -26t62.5 26t18.5 69v253q0 11 8 19t19 8h126q11 0 19 -8t8 -19v-466q0 -11 -8 -19t-19 -8h-116q-11 0 -19 8t-8 19v23q-8 -11 -19.5 -21.5t-28.5 -19t-39.5 -14t-53.5 -5.5q-97 0 -154.5 55t-57.5 173
v275zM314 590q-46 0 -77.5 13.5t-50.5 35t-27.5 47.5t-8.5 50q0 8 5 13.5t14 5.5h84q9 0 14 -5.5t5 -13.5q0 -19 10.5 -34.5t31.5 -15.5t31.5 15.5t10.5 34.5q0 8 5 13.5t14 5.5h84q9 0 14 -5.5t5 -13.5q0 -24 -8.5 -50t-27.5 -47.5t-50.5 -35t-77.5 -13.5z" />
    <glyph glyph-name="ucircumflex" unicode="&#xfb;" horiz-adv-x="634" 
d="M53 493q0 11 8 19t19 8h126q11 0 19 -8t8 -19v-253q0 -43 19 -69t63 -26t62.5 26t18.5 69v253q0 11 8 19t19 8h126q11 0 19 -8t8 -19v-466q0 -11 -8 -19t-19 -8h-116q-11 0 -19 8t-8 19v23q-8 -11 -19.5 -21.5t-28.5 -19t-39.5 -14t-53.5 -5.5q-97 0 -154.5 55t-57.5 173
v275zM358 755q11 0 19 -4t18 -15l102 -112q5 -5 5 -13q0 -16 -16 -16h-67q-10 0 -16 3t-15 8l-74 43l-74 -43q-9 -5 -15 -8t-16 -3h-67q-16 0 -16 16q0 8 5 13l102 112q10 11 18 15t19 4h88z" />
    <glyph glyph-name="udieresis" unicode="&#xfc;" horiz-adv-x="634" 
d="M53 493q0 11 8 19t19 8h126q11 0 19 -8t8 -19v-253q0 -43 19 -69t63 -26t62.5 26t18.5 69v253q0 11 8 19t19 8h126q11 0 19 -8t8 -19v-466q0 -11 -8 -19t-19 -8h-116q-11 0 -19 8t-8 19v23q-8 -11 -19.5 -21.5t-28.5 -19t-39.5 -14t-53.5 -5.5q-97 0 -154.5 55t-57.5 173
v275zM279 622q0 -11 -8 -19t-19 -8h-101q-11 0 -19 8t-8 19v101q0 11 8 19t19 8h101q11 0 19 -8t8 -19v-101zM504 622q0 -11 -8 -19t-19 -8h-101q-11 0 -19 8t-8 19v101q0 11 8 19t19 8h101q11 0 19 -8t8 -19v-101z" />
    <glyph glyph-name="uhungarumlaut" unicode="&#x171;" horiz-adv-x="634" 
d="M53 493q0 11 8 19t19 8h126q11 0 19 -8t8 -19v-253q0 -43 19 -69t63 -26t62.5 26t18.5 69v253q0 11 8 19t19 8h126q11 0 19 -8t8 -19v-466q0 -11 -8 -19t-19 -8h-116q-11 0 -19 8t-8 19v23q-8 -11 -19.5 -21.5t-28.5 -19t-39.5 -14t-53.5 -5.5q-97 0 -154.5 55t-57.5 173
v275zM195 736q5 10 13 14.5t24 4.5h112q20 0 20 -19q0 -7 -6 -13l-105 -114q-12 -14 -34 -14h-63q-16 0 -16 16q0 4 1.5 8t3.5 7zM415 736q5 10 13 14.5t24 4.5h112q20 0 20 -19q0 -7 -6 -13l-105 -114q-12 -14 -34 -14h-63q-16 0 -16 16q0 4 1.5 8t3.5 7z" />
    <glyph glyph-name="ugrave" unicode="&#xf9;" horiz-adv-x="634" 
d="M53 493q0 11 8 19t19 8h126q11 0 19 -8t8 -19v-253q0 -43 19 -69t63 -26t62.5 26t18.5 69v253q0 11 8 19t19 8h126q11 0 19 -8t8 -19v-466q0 -11 -8 -19t-19 -8h-116q-11 0 -19 8t-8 19v23q-8 -11 -19.5 -21.5t-28.5 -19t-39.5 -14t-53.5 -5.5q-97 0 -154.5 55t-57.5 173
v275zM385 624q5 -5 5 -13q0 -16 -16 -16h-88q-16 0 -25 5t-17 12l-135 111q-5 5 -5 12q0 20 19 20h133q11 0 18.5 -3t18.5 -16z" />
    <glyph glyph-name="umacron" unicode="&#x16b;" horiz-adv-x="634" 
d="M53 493q0 11 8 19t19 8h126q11 0 19 -8t8 -19v-253q0 -43 19 -69t63 -26t62.5 26t18.5 69v253q0 11 8 19t19 8h126q11 0 19 -8t8 -19v-466q0 -11 -8 -19t-19 -8h-116q-11 0 -19 8t-8 19v23q-8 -11 -19.5 -21.5t-28.5 -19t-39.5 -14t-53.5 -5.5q-97 0 -154.5 55t-57.5 173
v275zM170 595q-11 0 -19 8t-8 19v86q0 11 8 19t19 8h289q11 0 19 -8t8 -19v-86q0 -11 -8 -19t-19 -8h-289z" />
    <glyph glyph-name="uogonek" unicode="&#x173;" horiz-adv-x="634" 
d="M53 493q0 11 8 19t19 8h126q11 0 19 -8t8 -19v-253q0 -43 19 -69t63 -26t62.5 26t18.5 69v253q0 11 8 19t19 8h126q11 0 19 -8t8 -19v-466q0 -11 -8 -19t-19 -8h-15q-23 -2 -36 -17.5t-13 -38.5t14 -39.5t40 -16.5h15q22 0 22 -22v-64q0 -22 -22 -22h-19q-38 0 -68 12.5
t-51 34t-32 51.5t-11 66q0 48 33 86v20q-8 -11 -19.5 -21.5t-28.5 -19t-39.5 -14t-53.5 -5.5q-97 0 -154.5 55t-57.5 173v275z" />
    <glyph glyph-name="uring" unicode="&#x16f;" horiz-adv-x="634" 
d="M53 493q0 11 8 19t19 8h126q11 0 19 -8t8 -19v-253q0 -43 19 -69t63 -26t62.5 26t18.5 69v253q0 11 8 19t19 8h126q11 0 19 -8t8 -19v-466q0 -11 -8 -19t-19 -8h-116q-11 0 -19 8t-8 19v23q-8 -11 -19.5 -21.5t-28.5 -19t-39.5 -14t-53.5 -5.5q-97 0 -154.5 55t-57.5 173
v275zM284 680q0 -13 8.5 -21.5t21.5 -8.5t21.5 8.5t8.5 21.5t-8.5 21.5t-21.5 8.5t-21.5 -8.5t-8.5 -21.5zM219 680q0 39 28 64.5t67 25.5t67 -25.5t28 -64.5t-28 -64.5t-67 -25.5t-67 25.5t-28 64.5z" />
    <glyph glyph-name="utilde" unicode="&#x169;" horiz-adv-x="634" 
d="M53 493q0 11 8 19t19 8h126q11 0 19 -8t8 -19v-253q0 -43 19 -69t63 -26t62.5 26t18.5 69v253q0 11 8 19t19 8h126q11 0 19 -8t8 -19v-466q0 -11 -8 -19t-19 -8h-116q-11 0 -19 8t-8 19v23q-8 -11 -19.5 -21.5t-28.5 -19t-39.5 -14t-53.5 -5.5q-97 0 -154.5 55t-57.5 173
v275zM396 590q-30 0 -48 7t-31.5 15.5t-25 15.5t-27.5 7q-12 0 -18 -6.5t-10.5 -14t-8.5 -13.5t-12 -6h-76q-9 0 -14 5.5t-5 13.5q0 22 6.5 46.5t20.5 44t35 32.5t50 13q30 0 48 -7t31.5 -15.5t25 -15.5t27.5 -7q12 0 18 6t10.5 13.5t8.5 14t12 6.5h76q9 0 14 -5.5t5 -13.5
q0 -23 -8 -47t-23 -43.5t-35.5 -32.5t-45.5 -13z" />
    <glyph glyph-name="v" unicode="v" horiz-adv-x="624" 
d="M253 0q-15 0 -21.5 8t-11.5 17l-202 464q-1 3 -1 7q0 10 7 17t17 7h128q15 0 22 -8t11 -16l110 -261l110 261q4 8 11 16t22 8h128q10 0 17 -7t7 -17q0 -4 -1 -7l-202 -464q-5 -9 -11.5 -17t-21.5 -8h-118v0z" />
    <glyph glyph-name="w" unicode="w" horiz-adv-x="866" 
d="M480 520q15 0 23 -8t11 -16l74 -227l74 227q3 8 11 16t23 8h124q10 0 17 -7t7 -17q0 -4 -1 -8l-159 -463q-3 -9 -10.5 -17t-22.5 -8h-114q-15 0 -22 8t-11 17l-71 210l-71 -210q-4 -9 -11 -17t-22 -8h-114q-15 0 -22.5 8t-10.5 17l-159 463q-1 4 -1 8q0 10 7 17t17 7h124
q15 0 23 -8t11 -16l74 -227l74 227q3 8 11 16t23 8h94z" />
    <glyph glyph-name="wacute" unicode="&#x1e83;" horiz-adv-x="866" 
d="M480 520q15 0 23 -8t11 -16l74 -227l74 227q3 8 11 16t23 8h124q10 0 17 -7t7 -17q0 -4 -1 -8l-159 -463q-3 -9 -10.5 -17t-22.5 -8h-114q-15 0 -22 8t-11 17l-71 210l-71 -210q-4 -9 -11 -17t-22 -8h-114q-15 0 -22.5 8t-10.5 17l-159 463q-1 4 -1 8q0 10 7 17t17 7h124
q15 0 23 -8t11 -16l74 -227l74 227q3 8 11 16t23 8h94zM460 736q11 13 18.5 16t18.5 3h133q19 0 19 -20q0 -7 -5 -12l-135 -111q-8 -7 -17 -12t-25 -5h-88q-16 0 -16 16q0 8 5 13z" />
    <glyph glyph-name="wcircumflex" unicode="&#x175;" horiz-adv-x="866" 
d="M480 520q15 0 23 -8t11 -16l74 -227l74 227q3 8 11 16t23 8h124q10 0 17 -7t7 -17q0 -4 -1 -8l-159 -463q-3 -9 -10.5 -17t-22.5 -8h-114q-15 0 -22 8t-11 17l-71 210l-71 -210q-4 -9 -11 -17t-22 -8h-114q-15 0 -22.5 8t-10.5 17l-159 463q-1 4 -1 8q0 10 7 17t17 7h124
q15 0 23 -8t11 -16l74 -227l74 227q3 8 11 16t23 8h94zM477 755q11 0 19 -4t18 -15l102 -112q5 -5 5 -13q0 -16 -16 -16h-67q-10 0 -16 3t-15 8l-74 43l-74 -43q-9 -5 -15 -8t-16 -3h-67q-16 0 -16 16q0 8 5 13l102 112q10 11 18 15t19 4h88z" />
    <glyph glyph-name="wdieresis" unicode="&#x1e85;" horiz-adv-x="866" 
d="M480 520q15 0 23 -8t11 -16l74 -227l74 227q3 8 11 16t23 8h124q10 0 17 -7t7 -17q0 -4 -1 -8l-159 -463q-3 -9 -10.5 -17t-22.5 -8h-114q-15 0 -22 8t-11 17l-71 210l-71 -210q-4 -9 -11 -17t-22 -8h-114q-15 0 -22.5 8t-10.5 17l-159 463q-1 4 -1 8q0 10 7 17t17 7h124
q15 0 23 -8t11 -16l74 -227l74 227q3 8 11 16t23 8h94zM398 622q0 -11 -8 -19t-19 -8h-101q-11 0 -19 8t-8 19v101q0 11 8 19t19 8h101q11 0 19 -8t8 -19v-101zM623 622q0 -11 -8 -19t-19 -8h-101q-11 0 -19 8t-8 19v101q0 11 8 19t19 8h101q11 0 19 -8t8 -19v-101z" />
    <glyph glyph-name="wgrave" unicode="&#x1e81;" horiz-adv-x="866" 
d="M480 520q15 0 23 -8t11 -16l74 -227l74 227q3 8 11 16t23 8h124q10 0 17 -7t7 -17q0 -4 -1 -8l-159 -463q-3 -9 -10.5 -17t-22.5 -8h-114q-15 0 -22 8t-11 17l-71 210l-71 -210q-4 -9 -11 -17t-22 -8h-114q-15 0 -22.5 8t-10.5 17l-159 463q-1 4 -1 8q0 10 7 17t17 7h124
q15 0 23 -8t11 -16l74 -227l74 227q3 8 11 16t23 8h94zM501 624q5 -5 5 -13q0 -16 -16 -16h-88q-16 0 -25 5t-17 12l-135 111q-5 5 -5 12q0 20 19 20h133q11 0 18.5 -3t18.5 -16z" />
    <glyph glyph-name="x" unicode="x" horiz-adv-x="616" 
d="M420 260l175 -223q4 -6 4 -14q0 -9 -7 -16t-17 -7h-153q-13 0 -20.5 7t-11.5 12l-83 105l-82 -105q-4 -5 -11.5 -12t-20.5 -7h-153q-10 0 -17 7t-7 16q0 8 4 14l177 227l-172 219q-4 6 -4 14q0 9 7 16t17 7h155q13 0 20.5 -7t11.5 -12l77 -99l77 99q4 5 11.5 12t20.5 7
h155q10 0 17 -7t7 -16q0 -8 -4 -14z" />
    <glyph glyph-name="y" unicode="y" horiz-adv-x="626" 
d="M329 -166q-3 -8 -10 -16t-19 -8h-131q-10 0 -17 7t-7 17q0 4 1 7l76 179l-202 469q-1 3 -1 7q0 10 7 17t17 7h131q12 0 19 -8t10 -16l111 -260l110 260q3 8 10 16t19 8h132q10 0 17 -7t7 -17q0 -4 -1 -7z" />
    <glyph glyph-name="yacute" unicode="&#xfd;" horiz-adv-x="626" 
d="M329 -166q-3 -8 -10 -16t-19 -8h-131q-10 0 -17 7t-7 17q0 4 1 7l76 179l-202 469q-1 3 -1 7q0 10 7 17t17 7h131q12 0 19 -8t10 -16l111 -260l110 260q3 8 10 16t19 8h132q10 0 17 -7t7 -17q0 -4 -1 -7zM330 736q11 13 18.5 16t18.5 3h133q19 0 19 -20q0 -7 -5 -12
l-135 -111q-8 -7 -17 -12t-25 -5h-88q-16 0 -16 16q0 8 5 13z" />
    <glyph glyph-name="ycircumflex" unicode="&#x177;" horiz-adv-x="626" 
d="M329 -166q-3 -8 -10 -16t-19 -8h-131q-10 0 -17 7t-7 17q0 4 1 7l76 179l-202 469q-1 3 -1 7q0 10 7 17t17 7h131q12 0 19 -8t10 -16l111 -260l110 260q3 8 10 16t19 8h132q10 0 17 -7t7 -17q0 -4 -1 -7zM358 755q11 0 19 -4t18 -15l102 -112q5 -5 5 -13q0 -16 -16 -16
h-67q-10 0 -16 3t-15 8l-74 43l-74 -43q-9 -5 -15 -8t-16 -3h-67q-16 0 -16 16q0 8 5 13l102 112q10 11 18 15t19 4h88z" />
    <glyph glyph-name="ydieresis" unicode="&#xff;" horiz-adv-x="626" 
d="M329 -166q-3 -8 -10 -16t-19 -8h-131q-10 0 -17 7t-7 17q0 4 1 7l76 179l-202 469q-1 3 -1 7q0 10 7 17t17 7h131q12 0 19 -8t10 -16l111 -260l110 260q3 8 10 16t19 8h132q10 0 17 -7t7 -17q0 -4 -1 -7zM279 622q0 -11 -8 -19t-19 -8h-101q-11 0 -19 8t-8 19v101
q0 11 8 19t19 8h101q11 0 19 -8t8 -19v-101zM504 622q0 -11 -8 -19t-19 -8h-101q-11 0 -19 8t-8 19v101q0 11 8 19t19 8h101q11 0 19 -8t8 -19v-101z" />
    <glyph glyph-name="ygrave" unicode="&#x1ef3;" horiz-adv-x="626" 
d="M329 -166q-3 -8 -10 -16t-19 -8h-131q-10 0 -17 7t-7 17q0 4 1 7l76 179l-202 469q-1 3 -1 7q0 10 7 17t17 7h131q12 0 19 -8t10 -16l111 -260l110 260q3 8 10 16t19 8h132q10 0 17 -7t7 -17q0 -4 -1 -7zM385 624q5 -5 5 -13q0 -16 -16 -16h-88q-16 0 -25 5t-17 12
l-135 111q-5 5 -5 12q0 20 19 20h133q11 0 18.5 -3t18.5 -16z" />
    <glyph glyph-name="z" unicode="z" horiz-adv-x="564" 
d="M503 155q11 0 19 -8t8 -19v-101q0 -11 -8 -19t-19 -8h-436q-11 0 -19 8t-8 19v97q0 12 5 20t11 15l198 206h-177q-11 0 -19 8t-8 19v101q0 11 8 19t19 8h406q11 0 19 -8t8 -19v-97q0 -9 -4 -15.5t-10 -13.5l-203 -212h210z" />
    <glyph glyph-name="zacute" unicode="&#x17a;" horiz-adv-x="564" 
d="M503 155q11 0 19 -8t8 -19v-101q0 -11 -8 -19t-19 -8h-436q-11 0 -19 8t-8 19v97q0 12 5 20t11 15l198 206h-177q-11 0 -19 8t-8 19v101q0 11 8 19t19 8h406q11 0 19 -8t8 -19v-97q0 -9 -4 -15.5t-10 -13.5l-203 -212h210zM284 736q11 13 18.5 16t18.5 3h133q19 0 19 -20
q0 -7 -5 -12l-135 -111q-8 -7 -17 -12t-25 -5h-88q-16 0 -16 16q0 8 5 13z" />
    <glyph glyph-name="zcaron" unicode="&#x17e;" horiz-adv-x="564" 
d="M503 155q11 0 19 -8t8 -19v-101q0 -11 -8 -19t-19 -8h-436q-11 0 -19 8t-8 19v97q0 12 5 20t11 15l198 206h-177q-11 0 -19 8t-8 19v101q0 11 8 19t19 8h406q11 0 19 -8t8 -19v-97q0 -9 -4 -15.5t-10 -13.5l-203 -212h210zM233 595q-11 0 -19 4t-18 15l-102 112
q-5 5 -5 13q0 16 16 16h67q10 0 16 -3t15 -8l74 -43l74 43q9 5 15 8t16 3h67q16 0 16 -16q0 -8 -5 -13l-102 -112q-10 -11 -18 -15t-19 -4h-88z" />
    <glyph glyph-name="zdotaccent" unicode="&#x17c;" horiz-adv-x="564" 
d="M503 155q11 0 19 -8t8 -19v-101q0 -11 -8 -19t-19 -8h-436q-11 0 -19 8t-8 19v97q0 12 5 20t11 15l198 206h-177q-11 0 -19 8t-8 19v101q0 11 8 19t19 8h406q11 0 19 -8t8 -19v-97q0 -9 -4 -15.5t-10 -13.5l-203 -212h210zM352 622q0 -11 -8 -19t-19 -8h-111q-11 0 -19 8
t-8 19v111q0 11 8 19t19 8h111q11 0 19 -8t8 -19v-111z" />
    <glyph glyph-name="Eth" unicode="&#xd0;" horiz-adv-x="755" 
d="M394 700q69 0 126 -20.5t98.5 -57.5t65 -88.5t26.5 -112.5q1 -21 1 -38.5v-33.5v-33t-1 -37q-3 -62 -26 -113t-63.5 -88t-96.5 -57.5t-125 -20.5h-270q-11 0 -19 8t-8 19v257h-53q-11 0 -19 8t-8 19v86q0 11 8 19t19 8h53v249q0 11 8 19t19 8h265zM525 425
q-6 115 -136 115h-102v-116h75q11 0 19 -8t8 -19v-86q0 -11 -8 -19t-19 -8h-75v-124h107q126 0 131 115q1 21 1 39.5v36v35.5t-1 39z" />
    <glyph glyph-name="eth" unicode="&#xf0;" horiz-adv-x="592" 
d="M554 230q0 -61 -22 -106t-58.5 -75t-84.5 -44.5t-100 -14.5t-98.5 14.5t-82 44.5t-56 75t-20.5 106t20.5 106t55.5 75t81.5 44.5t98.5 14.5q10 0 20 -0.5t20 -1.5q-14 31 -38 63l-93 -37q-8 -3 -11 -3q-9 0 -15 6t-6 15v48q0 25 22 33l31 12q-15 14 -30.5 26.5
t-32.5 26.5q-11 8 -14 13t-3 9q0 20 20 20h156q12 0 20 -3.5t16 -9.5q6 -5 11.5 -10t11.5 -10l76 30q7 3 11 3q9 0 15 -6t6 -15v-48q0 -25 -22 -33l-13 -5q26 -31 46 -66t34 -78.5t21 -97t7 -121.5zM212 230q0 -35 16 -60t60 -25t60 25t16 60t-16 60t-60 25t-60 -25t-16 -60
z" />
    <glyph glyph-name="Thorn" unicode="&#xde;" horiz-adv-x="688" 
d="M255 585h128q64 0 115 -14.5t87 -44t55.5 -73.5t19.5 -102q0 -59 -19.5 -103t-55.5 -73t-87 -44t-115 -15h-128v-89q0 -11 -8 -19t-19 -8h-131q-11 0 -19 8t-8 19v646q0 11 8 19t19 8h131q11 0 19 -8t8 -19v-88zM255 272h123q42 0 69.5 18.5t27.5 60.5t-27.5 60.5
t-69.5 18.5h-123v-158z" />
    <glyph glyph-name="Eng" unicode="&#x14a;" horiz-adv-x="726" 
d="M471 42l-216 323v-338q0 -11 -8 -19t-19 -8h-131q-11 0 -19 8t-8 19v646q0 11 8 19t19 8h104q17 0 27.5 -9t13.5 -14l229 -342v338q0 11 8 19t19 8h131q11 0 19 -8t8 -19v-690q0 -46 -13.5 -84.5t-39 -66t-62 -42.5t-83.5 -15h-70q-11 0 -19 8t-8 19v106q0 11 8 19t19 8
h40q24 0 33.5 14.5t9.5 33.5v59z" />
    <glyph glyph-name="eng" unicode="&#x14b;" horiz-adv-x="644" 
d="M591 -27q0 -46 -15.5 -83t-44 -62.5t-67.5 -39t-86 -13.5h-50q-11 0 -19 8t-8 19v96q0 11 8 21.5t19 10.5h40q24 0 33.5 14.5t9.5 33.5v302q0 43 -21 69t-66 26t-65.5 -26t-20.5 -69v-253q0 -11 -8 -19t-19 -8h-126q-11 0 -19 8t-8 19v466q0 11 8 19t19 8h121q11 0 19 -8
t8 -19v-23q8 10 20 21t29 19.5t39.5 14t52.5 5.5q48 0 88 -13.5t68.5 -41.5t44.5 -71t16 -102v-329z" />
    <glyph glyph-name="germandbls" unicode="&#xdf;" horiz-adv-x="660" 
d="M293 128q0 11 8 19t19 8h41q38 0 63.5 15t25.5 49t-25.5 49t-63.5 15h-46q-22 0 -22 22v111q0 22 22 22h31q35 0 59.5 14t24.5 44t-26 44.5t-73 14.5q-46 0 -72 -21.5t-26 -82.5v-424q0 -11 -8 -19t-19 -8h-121q-11 0 -19 8t-8 19v424q0 120 69 189.5t204 69.5
q67 0 118 -17.5t85.5 -46.5t51.5 -68t17 -82q0 -28 -5 -48t-13.5 -34.5t-19 -25t-21.5 -18.5q11 -8 25 -21t26.5 -31.5t21 -43t8.5 -55.5q0 -52 -18.5 -93t-52.5 -69t-82 -42.5t-106 -14.5h-46q-11 0 -19 8t-8 19v101z" />
    <glyph glyph-name="longs" unicode="&#x17f;" horiz-adv-x="355" 
d="M297 27q0 -11 -8 -19t-19 -8h-126q-11 0 -19 8t-8 19v338h-69q-11 0 -19 8t-8 19v101q0 11 8 19t19 8h69v27q0 46 16.5 82t45.5 60.5t69 37.5t87 13h95q11 0 19 -8t8 -19v-101q0 -11 -8 -19t-19 -8h-90q-24 0 -33.5 -12t-9.5 -31v-515z" />
    <glyph glyph-name="zero" unicode="0" horiz-adv-x="688" 
d="M344 710q75 0 129 -22t89.5 -59t53 -86.5t20.5 -103.5q2 -43 2 -90t-2 -88q-3 -54 -20.5 -103.5t-53 -86.5t-89.5 -59t-129 -22t-129 22t-89.5 59t-53 86.5t-20.5 103.5q-2 41 -2 88t2 90q3 54 20.5 103.5t53 86.5t89.5 59t129 22zM451 266q4 85 0 168q-2 25 -7.5 46
t-17.5 36.5t-32 24.5t-50 9t-50 -9t-32 -24.5t-18 -36.5t-7 -46q-5 -83 0 -168q1 -25 6.5 -46t18 -36.5t32.5 -24.5t50 -9t50 9t32.5 24.5t18 36.5t6.5 46z" />
    <glyph glyph-name="one" unicode="1" horiz-adv-x="503" 
d="M21 475q-7 9 -5 20t11 18l215 165q8 6 19.5 14t26.5 8h122q11 0 19 -8t8 -19v-646q0 -11 -8 -19t-19 -8h-131q-11 0 -19 8t-8 19v437l-119 -90q-9 -7 -20 -5.5t-18 10.5z" />
    <glyph glyph-name="two" unicode="2" horiz-adv-x="666" 
d="M606 475q0 -29 -6 -56t-20.5 -52.5t-38 -50.5t-57.5 -50l-140 -106h251q11 0 19 -8t8 -19v-106q0 -11 -8 -19t-19 -8h-528q-11 0 -19 8t-8 19v86q0 16 6.5 32t22.5 27l299 214q35 26 44 47.5t9 41.5q0 7 -2.5 19.5t-11.5 25t-25.5 21.5t-44.5 9t-45.5 -9.5t-27 -21.5
t-14 -24.5t-6.5 -18.5q-5 -14 -15.5 -18.5t-24.5 -4.5h-123q-9 0 -15.5 6.5t-6.5 15.5q1 42 18 83.5t51.5 75.5t86 55t121.5 21q66 0 116.5 -19.5t84.5 -52t51.5 -75t17.5 -88.5z" />
    <glyph glyph-name="three" unicode="3" horiz-adv-x="676" 
d="M570 700q11 0 19 -8t8 -19v-106q0 -11 -7 -20t-13 -15l-121 -122q78 -20 127 -67.5t49 -125.5q0 -113 -78 -170t-218 -57q-72 0 -127.5 17t-93.5 45t-58.5 63.5t-21.5 72.5q0 9 6.5 15.5t15.5 6.5h126q21 0 32 -9.5t24.5 -20.5t35 -20.5t61.5 -9.5q48 0 79.5 16t31.5 51
t-31.5 51t-79.5 16h-83q-11 0 -19 8t-8 19v86q0 11 7 20t14 16l106 107h-261q-11 0 -19 8t-8 19v106q0 11 8 19t19 8h478z" />
    <glyph glyph-name="four" unicode="4" horiz-adv-x="703" 
d="M400 0q-11 0 -19 8t-8 19v102h-315q-11 0 -19 8t-8 19v106q0 26 13 43l299 377q9 11 16.5 14.5t20.5 3.5h151q11 0 19 -8t8 -19v-384h86q11 0 19 -8t8 -19v-106q0 -11 -8 -19t-19 -8h-86v-102q0 -11 -8 -19t-19 -8h-131zM378 289v184l-146 -184h146z" />
    <glyph glyph-name="five" unicode="5" horiz-adv-x="654" 
d="M220 208q7 -9 15.5 -19t20.5 -18.5t29 -14.5t40 -6q21 0 40 5.5t34 16.5t23.5 27t8.5 38q0 34 -26.5 55.5t-72.5 21.5q-14 0 -26.5 -4t-23 -8.5t-19.5 -8.5t-15 -4h-156q-12 0 -20 8t-7 19l30 357q1 11 8.5 19t18.5 8h428q11 0 19 -8t8 -19v-106q0 -11 -8 -19t-19 -8
h-291l-7 -89q18 10 41.5 16.5t51.5 6.5q58 0 107.5 -16t86 -46t57 -74t20.5 -101q0 -60 -22.5 -106t-62 -77.5t-92.5 -47.5t-114 -16q-68 0 -121.5 17.5t-90.5 47t-57 68t-21 79.5q0 9 6.5 15.5t15.5 6.5h127q16 0 24.5 -6t11.5 -10z" />
    <glyph glyph-name="six" unicode="6" horiz-adv-x="661" 
d="M632 241q0 -59 -24 -105.5t-65 -78.5t-95 -49.5t-114 -17.5t-114 17.5t-95.5 49.5t-65.5 78.5t-24 105.5q0 31 7.5 56.5t18.5 47.5t24 41t25 36l191 258q5 5 11 12.5t20 7.5h159q9 0 14.5 -6.5t5.5 -15.5q0 -5 -1.5 -8t-3.5 -5l-130 -176q53 -6 99.5 -25.5t81.5 -51
t55 -75t20 -96.5zM220 241q0 -22 10 -39t26 -28.5t36.5 -17.5t41.5 -6t41.5 6t36 17.5t25.5 28.5t10 39t-10 39t-25.5 28.5t-36 17.5t-41.5 6t-41.5 -6t-36.5 -17.5t-26 -28.5t-10 -39z" />
    <glyph glyph-name="seven" unicode="7" horiz-adv-x="589" 
d="M135 24q0 4 3 12l216 504h-298q-11 0 -19 8t-8 19v106q0 11 8 19t19 8h478q11 0 19 -8t8 -19v-93q0 -16 -16 -51l-217 -505q-4 -9 -10.5 -16.5t-18.5 -7.5h-140q-10 0 -17 7t-7 17z" />
    <glyph glyph-name="eight" unicode="8" horiz-adv-x="686" 
d="M62 490q0 49 22.5 89.5t61 69.5t89.5 45t108 16t108 -16t89.5 -45t61 -69.5t22.5 -89.5q0 -40 -14 -73.5t-40 -60.5q32 -28 50.5 -64.5t18.5 -81.5q0 -49 -23 -89.5t-63 -69.5t-94 -45t-116 -16t-116 16t-94 45t-63 69.5t-23 89.5q0 45 18 81.5t50 64.5q-25 27 -39 60.5
t-14 73.5zM232 208q0 -29 27.5 -48.5t83.5 -19.5t83.5 19.5t27.5 48.5t-27.5 48.5t-83.5 19.5t-83.5 -19.5t-27.5 -48.5zM247 492q0 -29 25.5 -48.5t70.5 -19.5t70.5 19.5t25.5 48.5t-25.5 48.5t-70.5 19.5t-70.5 -19.5t-25.5 -48.5z" />
    <glyph glyph-name="nine" unicode="9" horiz-adv-x="647" 
d="M29 461q0 58 24.5 104.5t65.5 78.5t94 49t109 17t109 -17t94 -49t65.5 -78.5t24.5 -104.5q0 -29 -6.5 -53.5t-17 -46t-23.5 -41t-26 -37.5l-190 -263q-5 -5 -11 -12.5t-20 -7.5h-159q-9 0 -14.5 6.5t-5.5 15.5q0 5 1.5 8t3.5 5l128 180q-49 7 -93.5 26.5t-78.5 51
t-54 73.5t-20 95zM430 461q0 20 -9 36.5t-24 28t-34.5 18t-40.5 6.5t-40.5 -6.5t-34.5 -18t-24 -28t-9 -36.5t9 -36.5t24 -28t34.5 -18t40.5 -6.5t40.5 6.5t34.5 18t24 28t9 36.5z" />
    <glyph glyph-name="comma" unicode="," horiz-adv-x="287" 
d="M60 146q2 14 12.5 26.5t30.5 12.5h123q9 0 15.5 -6.5t6.5 -15.5q0 -4 -1 -7l-78 -199q-4 -10 -13.5 -21t-29.5 -11h-75q-9 0 -15.5 6.5t-6.5 15.5v2z" />
    <glyph glyph-name="period" unicode="." horiz-adv-x="287" 
d="M236 27q0 -11 -8 -19t-19 -8h-131q-11 0 -19 8t-8 19v131q0 11 8 19t19 8h131q11 0 19 -8t8 -19v-131z" />
    <glyph glyph-name="currency" unicode="&#xa4;" horiz-adv-x="626" 
d="M73 300q0 61 28 112l-45 46q-8 8 -8 19t8 19l61 61q8 8 19 8t19 -8l45 -46q26 14 54 21.5t59 7.5q30 0 58.5 -7.5t53.5 -21.5l46 46q8 8 19 8t19 -8l61 -61q8 -8 8 -19t-8 -19l-46 -46q14 -25 21.5 -53.5t7.5 -58.5q0 -31 -7.5 -59t-21.5 -54l46 -45q8 -8 8 -19t-8 -19
l-61 -61q-8 -8 -19 -8t-19 8l-46 45q-51 -28 -112 -28q-60 0 -113 28l-45 -45q-8 -8 -19 -8t-19 8l-61 61q-8 8 -8 19t8 19l45 45q-28 53 -28 113zM213 300q0 -42 29 -71t71 -29t71 29t29 71t-29 71t-71 29t-71 -29t-29 -71z" />
    <glyph glyph-name="cent" unicode="&#xa2;" horiz-adv-x="617" 
d="M224 295q-2 -15 -2 -35t2 -35q3 -36 27 -58t64 -22q33 0 50.5 9.5t28.5 26.5q5 8 11.5 14t17.5 6h131q11 0 19.5 -8t7.5 -19q-1 -14 -9.5 -38.5t-29 -51t-54.5 -50t-86 -35.5v-72q0 -11 -8 -19t-19 -8h-126q-11 0 -19 8t-8 19v75q-77 22 -126 78.5t-52 139.5q-1 15 -1 40
t1 40q3 83 52 139t126 78v66q0 11 8 19t19 8h126q11 0 19 -8t8 -19v-62q52 -12 86 -36t54.5 -50t29 -51t9.5 -38q1 -11 -7.5 -19t-19.5 -8h-131q-11 0 -17.5 6t-11.5 14q-11 17 -28.5 26.5t-50.5 9.5q-40 0 -64 -22t-27 -58z" />
    <glyph glyph-name="dollar" unicode="$" horiz-adv-x="675" 
d="M424 698q45 -11 81.5 -31.5t62.5 -46t41 -53.5t16 -54q0 -9 -6.5 -15.5t-14.5 -6.5h-131q-14 0 -22.5 4t-17.5 12q-3 3 -9.5 10t-18.5 14.5t-30 13t-44 5.5q-19 0 -36.5 -2.5t-31 -8t-22 -15.5t-8.5 -25t9.5 -25t32 -18.5t59.5 -16.5t92 -19t96 -28t68.5 -42.5t41 -60
t13.5 -81.5q0 -42 -16 -77t-45 -62t-70 -45t-90 -26v-71q0 -11 -8 -19t-19 -8h-131q-11 0 -19 8t-8 19v74q-48 11 -86.5 31.5t-66 46.5t-42.5 56.5t-16 61.5q0 9 6.5 15.5t14.5 6.5h131q14 0 22 -3.5t16 -10.5q4 -4 12 -13t21.5 -18.5t34 -16.5t50.5 -7q53 0 88.5 11.5
t35.5 41.5q0 15 -13 25t-39 18.5t-66.5 16.5t-95.5 20q-103 22 -150.5 73.5t-47.5 137.5q0 35 13 67.5t37.5 59.5t60 47t80.5 31v74q0 11 8 19t19 8h131q11 0 19 -8t8 -19v-75z" />
    <glyph glyph-name="Euro" unicode="&#x20ac;" horiz-adv-x="790" 
d="M428 -10q-68 0 -125 21.5t-98 60t-64.5 90.5t-25.5 113h-60q-11 0 -19 8t-8 19v96q0 11 8 19t19 8h60q2 61 25.5 113t64.5 90t98 60t125 22q62 0 119.5 -18.5t101.5 -50.5t70.5 -76.5t27.5 -95.5q0 -9 -6.5 -15.5t-15.5 -6.5h-131q-17 0 -21.5 6.5t-12.5 22.5
q-8 15 -17 28.5t-24 23.5t-36.5 16t-54.5 6q-63 0 -94.5 -35.5t-33.5 -89.5h146q11 0 19 -8t8 -19v-96q0 -11 -8 -19t-19 -8h-146q2 -54 33.5 -89.5t94.5 -35.5q33 0 54.5 6t36.5 16t24 23.5t17 28.5q8 16 12.5 22.5t21.5 6.5h131q9 0 15.5 -6.5t6.5 -15.5
q-1 -51 -27.5 -95.5t-70.5 -76.5t-101.5 -50.5t-119.5 -18.5z" />
    <glyph glyph-name="sterling" unicode="&#xa3;" horiz-adv-x="754" 
d="M118 434q0 57 16 107t50 87.5t87.5 59.5t129.5 22q70 0 123.5 -17t90 -48.5t55.5 -75.5t20 -99q0 -9 -6.5 -15.5t-15.5 -6.5h-131q-17 0 -22.5 6t-11.5 23q-6 16 -13.5 29t-18.5 23t-28 15.5t-42 5.5q-24 0 -42.5 -9.5t-30.5 -25.5t-18.5 -37t-6.5 -44v-26h161
q11 0 19 -8t8 -19v-96q0 -11 -8 -19t-19 -8h-141q2 -11 3 -22.5t2 -22.5q28 -8 50 -18.5t40.5 -21t34.5 -17.5t32 -7q20 0 35.5 11t26.5 31q5 9 11.5 15.5t14.5 6.5h126q9 0 15.5 -6.5t6.5 -15.5q-1 -33 -15 -68.5t-41 -65t-67 -49t-93 -19.5q-48 0 -80 11.5t-57 25.5
t-47 25.5t-50 11.5q-40 0 -62 -41q-5 -9 -11.5 -15.5t-14.5 -6.5h-126q-9 0 -16 6.5t-6 15.5q1 23 8 47.5t20.5 48t33.5 44t47 35.5q-1 29 -6 61h-61q-11 0 -19 8t-8 19v96q0 11 8 19t19 8h41v26v0z" />
    <glyph glyph-name="yen" unicode="&#xa5;" horiz-adv-x="706" 
d="M240 293l-210 372q-4 7 -4 13q0 9 6.5 15.5t15.5 6.5h137q20 0 30 -10t12 -15l126 -228l126 228q2 5 12 15t30 10h137q9 0 15.5 -6.5t6.5 -15.5q0 -6 -4 -13l-211 -372h120q11 0 19 -8t8 -19v-96q0 -11 -8 -19t-19 -8h-141v-116q0 -11 -8 -19t-19 -8h-128q-11 0 -19 8
t-8 19v116h-142q-11 0 -19 8t-8 19v96q0 11 8 19t19 8h120z" />
    <glyph glyph-name="florin" unicode="&#x192;" horiz-adv-x="486" 
d="M126 365h-69q-11 0 -19 8t-8 19v101q0 11 8 19t19 8h69v27q0 46 16.5 82t45.5 60.5t69 37.5t87 13h95q11 0 19 -8t8 -19v-101q0 -11 -8 -19t-19 -8h-90q-24 0 -33.5 -12t-9.5 -31v-22h123q11 0 19 -8t8 -19v-101q0 -11 -8 -19t-19 -8h-123v-392q0 -46 -15.5 -83
t-44 -62.5t-67.5 -39t-86 -13.5h-50q-11 0 -19 8t-8 19v96q0 11 8 21.5t19 10.5h40q24 0 33.5 14.5t9.5 33.5v387z" />
    <glyph glyph-name="numbersign" unicode="#" horiz-adv-x="689" 
d="M564 549h52q11 0 19 -8t8 -19v-96q0 -11 -8 -19t-19 -8h-74l-16 -104h64q11 0 19 -8t8 -19v-96q0 -11 -8 -19t-19 -8h-86l-13 -85q-2 -9 -8.5 -15t-16.5 -6h-105q-9 0 -15.5 6.5t-6.5 15.5v2l12 82h-74l-13 -85q-2 -9 -8.5 -15t-16.5 -6h-105q-9 0 -15.5 6.5t-6.5 15.5v2
l12 82h-51q-11 0 -19 8t-8 19v96q0 11 8 19t19 8h74l15 104h-63q-11 0 -19 8t-8 19v96q0 11 8 19t19 8h86l13 85q2 8 8 14.5t16 6.5h106q9 0 15.5 -6.5t6.5 -15.5v-3l-13 -81h75l13 85q2 8 8 14.5t16 6.5h106q9 0 15.5 -6.5t6.5 -15.5v-3zM299 295h75l15 104h-74z" />
    <glyph glyph-name="zerosuperior" unicode="&#x2070;" horiz-adv-x="381" 
d="M347 563q3 -40 0 -76q-2 -30 -11.5 -55.5t-29 -45t-48.5 -30.5t-68 -11t-68 11t-48 30.5t-29 45t-12 55.5q-2 20 -2 37.5t2 38.5q2 30 12 55.5t29 45t48 30.5t68 11t68 -11t48 -30.5t29 -45t12 -55.5zM149 492q2 -26 10.5 -39t30.5 -13t30.5 13t10.5 39q3 33 0 66
q-2 26 -10.5 39t-30.5 13t-30.5 -13t-10.5 -39q-3 -33 0 -66z" />
    <glyph glyph-name="onesuperior" unicode="&#xb9;" horiz-adv-x="284" 
d="M242 372q0 -22 -22 -22h-72q-22 0 -22 22v177l-42 -32q-7 -5 -16 -4t-15 9l-37 45q-6 8 -5 16.5t9 14.5l127 95q10 7 23 7h50q22 0 22 -22v-306z" />
    <glyph glyph-name="twosuperior" unicode="&#xb2;" horiz-adv-x="358" 
d="M27 415q0 8 5 14.5t20 17.5q45 33 74 54t46 35.5t23.5 24.5t6.5 22q0 14 -8.5 20.5t-16.5 6.5q-14 0 -24 -18q-6 -11 -12.5 -14.5t-14.5 -3.5h-71q-20 0 -18 19q3 46 40 79t100 33q65 0 103 -33t38 -84q0 -23 -5 -39.5t-17.5 -32t-33 -32.5t-50.5 -39h91q22 0 22 -22v-51
q0 -22 -22 -22h-254q-22 0 -22 20v45z" />
    <glyph glyph-name="threesuperior" unicode="&#xb3;" horiz-adv-x="360" 
d="M312 634q0 -10 -3 -14.5t-11 -12.5l-44 -43q18 -7 32 -14.5t23.5 -18.5t15 -27t5.5 -39q0 -26 -11.5 -48t-31.5 -38t-47.5 -25t-59.5 -9q-37 0 -65.5 9t-49 23t-31.5 30.5t-12 31.5q-1 10 5.5 14.5t11.5 4.5h85q9 0 15 -3t11 -6t12 -6t18 -3q14 0 24 4t10 21
q0 14 -10 19.5t-24 5.5h-55q-22 0 -22 22v23q0 11 11 22l53 48h-102q-22 0 -22 22v51q0 22 22 22h225q22 0 22 -22v-44z" />
    <glyph glyph-name="foursuperior" unicode="&#x2074;" horiz-adv-x="397" 
d="M167 682q8 11 15.5 14.5t14.5 3.5h98q22 0 22 -22v-176h35q22 0 22 -22v-51q0 -22 -22 -22h-35v-35q0 -22 -22 -22h-72q-22 0 -22 22v35h-158q-22 0 -22 22v50q0 2 1.5 10t10.5 20zM141 502h62v80z" />
    <glyph glyph-name="fivesuperior" unicode="&#x2075;" horiz-adv-x="354" 
d="M306 627q0 -22 -22 -22h-137l-4 -40q13 7 24 10t35 3q25 0 47.5 -8t39.5 -23t27 -35.5t10 -45.5q0 -24 -10 -46t-29 -38.5t-47 -26.5t-65 -10q-45 0 -73.5 10t-45.5 25t-23.5 31t-6.5 28q0 10 6 14.5t11 4.5h77q10 0 14.5 -3l9 -6t11 -6t20.5 -3q18 0 27.5 8.5t9.5 19.5
t-9 19.5t-23 8.5q-9 0 -14.5 -2t-9.5 -4.5t-7 -4.5t-8 -2h-74q-11 0 -17 7.5t-5 18.5l16 164q1 11 7.5 18.5t17.5 8.5h198q22 0 22 -22v-51z" />
    <glyph glyph-name="sixsuperior" unicode="&#x2076;" horiz-adv-x="362" 
d="M27 471q0 19 5.5 35.5t13.5 31t16.5 25.5t14.5 18l81 104q5 6 13 10.5t16 4.5h73q8 0 13.5 -6t5.5 -14t-10 -20l-54 -68q20 -2 42 -9.5t41 -22.5t31 -37t12 -52q0 -29 -12 -52t-33 -39.5t-49.5 -25.5t-61.5 -9t-62 8.5t-50.5 24.5t-33.5 39.5t-12 53.5zM142 471
q0 -20 12 -29t31 -9t31 9t12 29t-12 29t-31 9t-31 -9t-12 -29z" />
    <glyph glyph-name="sevensuperior" unicode="&#x2077;" horiz-adv-x="322" 
d="M300 623q0 -13 -5 -23l-102 -226q-4 -9 -9.5 -16.5t-16.5 -7.5h-72q-10 0 -15 6t-5 15q0 7 4 15l99 219h-135q-22 0 -22 22v51q0 22 22 22h235q22 0 22 -22v-55z" />
    <glyph glyph-name="eightsuperior" unicode="&#x2078;" horiz-adv-x="368" 
d="M338 453q0 -20 -9 -39.5t-27.5 -34.5t-48 -24.5t-69.5 -9.5q-41 0 -70 9.5t-47.5 24.5t-27.5 34.5t-9 39.5q0 26 11.5 46.5t32.5 31.5q-32 21 -32 68q0 19 7.5 38t24 34t44 24.5t66.5 9.5t66.5 -9.5t44 -24.5t24 -34t7.5 -38q0 -47 -32 -68q21 -11 32.5 -31.5t11.5 -46.5
zM229 457q0 16 -12.5 24t-32.5 8t-32.5 -8t-12.5 -24q0 -17 13.5 -24.5t31.5 -7.5t31.5 7.5t13.5 24.5zM220 596q0 14 -10.5 21.5t-25.5 7.5t-26 -7.5t-11 -21.5t11.5 -21.5t25.5 -7.5q15 0 25.5 7.5t10.5 21.5z" />
    <glyph glyph-name="ninesuperior" unicode="&#x2079;" horiz-adv-x="362" 
d="M335 579q0 -19 -5.5 -35.5t-13.5 -31t-16.5 -25.5t-14.5 -18l-81 -104q-5 -6 -13 -10.5t-16 -4.5h-73q-8 0 -13.5 6t-5.5 14t10 20l54 68q-20 1 -42 9t-41 23t-31 37t-12 52q0 29 12 52t33 39.5t49.5 25.5t61.5 9t62 -8.5t50.5 -24.5t33.5 -39.5t12 -53.5zM134 579
q0 -20 12 -29t31 -9t31 9t12 29t-12 29t-31 9t-31 -9t-12 -29z" />
    <glyph glyph-name="parenleftsuperior" unicode="&#x207d;" horiz-adv-x="267" 
d="M211 396q11 -3 19 -6.5t8 -14.5v-58q0 -22 -24 -22q-25 0 -57 10.5t-60 37t-47.5 72t-19.5 116.5q0 70 19.5 115.5t47.5 72t60 36.5t57 10q24 0 24 -22v-58q0 -11 -8 -14.5t-19 -6.5q-38 -10 -54.5 -43t-16.5 -90t16.5 -91t54.5 -44z" />
    <glyph glyph-name="parenrightsuperior" unicode="&#x207e;" horiz-adv-x="267" 
d="M56 396q38 10 54.5 44t16.5 91t-16.5 90t-54.5 43q-11 3 -19 6.5t-8 14.5v58q0 22 24 22q25 0 57 -10t60 -36.5t47.5 -72t19.5 -115.5q0 -71 -19.5 -116.5t-47.5 -72t-60 -37t-57 -10.5q-24 0 -24 22v58q0 11 8 14.5t19 6.5z" />
    <glyph glyph-name="zeroinferior" unicode="&#x2080;" horiz-adv-x="381" 
d="M347 43q3 -40 0 -76q-2 -30 -11.5 -55.5t-29 -45t-48.5 -30.5t-68 -11t-68 11t-48 30.5t-29 45t-12 55.5q-2 20 -2 37.5t2 38.5q2 30 12 55.5t29 45t48 30.5t68 11t68 -11t48 -30.5t29 -45t12 -55.5zM149 -28q2 -26 10.5 -39t30.5 -13t30.5 13t10.5 39q3 33 0 66
q-2 26 -10.5 39t-30.5 13t-30.5 -13t-10.5 -39q-3 -33 0 -66z" />
    <glyph glyph-name="oneinferior" unicode="&#x2081;" horiz-adv-x="284" 
d="M242 -148q0 -22 -22 -22h-72q-22 0 -22 22v177l-42 -32q-7 -5 -16 -4t-15 9l-37 45q-6 8 -5 16.5t9 14.5l127 95q10 7 23 7h50q22 0 22 -22v-306z" />
    <glyph glyph-name="twoinferior" unicode="&#x2082;" horiz-adv-x="358" 
d="M27 -105q0 8 5 14.5t20 17.5q45 33 74 54t46 35.5t23.5 24.5t6.5 22q0 14 -8.5 20.5t-16.5 6.5q-14 0 -24 -18q-6 -11 -12.5 -14.5t-14.5 -3.5h-71q-20 0 -18 19q3 46 40 79t100 33q65 0 103 -33t38 -84q0 -23 -5 -39.5t-17.5 -32t-33 -32.5t-50.5 -39h91q22 0 22 -22
v-51q0 -22 -22 -22h-254q-22 0 -22 20v45z" />
    <glyph glyph-name="threeinferior" unicode="&#x2083;" horiz-adv-x="360" 
d="M312 114q0 -10 -3 -14.5t-11 -12.5l-44 -43q18 -7 32 -14.5t23.5 -18.5t15 -27t5.5 -39q0 -26 -11.5 -48t-31.5 -38t-47.5 -25t-59.5 -9q-37 0 -65.5 9t-49 23t-31.5 30.5t-12 31.5q-1 10 5.5 14.5t11.5 4.5h85q9 0 15 -3t11 -6t12 -6t18 -3q14 0 24 4t10 21
q0 14 -10 19.5t-24 5.5h-55q-22 0 -22 22v23q0 11 11 22l53 48h-102q-22 0 -22 22v51q0 22 22 22h225q22 0 22 -22v-44z" />
    <glyph glyph-name="fourinferior" unicode="&#x2084;" horiz-adv-x="397" 
d="M167 162q8 11 15.5 14.5t14.5 3.5h98q22 0 22 -22v-176h35q22 0 22 -22v-51q0 -22 -22 -22h-35v-35q0 -22 -22 -22h-72q-22 0 -22 22v35h-158q-22 0 -22 22v50q0 2 1.5 10t10.5 20zM141 -18h62v80z" />
    <glyph glyph-name="fiveinferior" unicode="&#x2085;" horiz-adv-x="354" 
d="M306 107q0 -22 -22 -22h-137l-4 -40q13 7 24 10t35 3q25 0 47.5 -8t39.5 -23t27 -35.5t10 -45.5q0 -24 -10 -46t-29 -38.5t-47 -26.5t-65 -10q-45 0 -73.5 10t-45.5 25t-23.5 31t-6.5 28q0 10 6 14.5t11 4.5h77q10 0 14.5 -3l9 -6t11 -6t20.5 -3q18 0 27.5 8.5t9.5 19.5
t-9 19.5t-23 8.5q-9 0 -14.5 -2t-9.5 -4.5t-7 -4.5t-8 -2h-74q-11 0 -17 7.5t-5 18.5l16 164q1 11 7.5 18.5t17.5 8.5h198q22 0 22 -22v-51z" />
    <glyph glyph-name="sixinferior" unicode="&#x2086;" horiz-adv-x="362" 
d="M27 -49q0 19 5.5 35.5t13.5 31t16.5 25.5t14.5 18l81 104q5 6 13 10.5t16 4.5h73q8 0 13.5 -6t5.5 -14t-10 -20l-54 -68q20 -2 42 -9.5t41 -22.5t31 -37t12 -52q0 -29 -12 -52t-33 -39.5t-49.5 -25.5t-61.5 -9t-62 8.5t-50.5 24.5t-33.5 39.5t-12 53.5zM142 -49
q0 -20 12 -29t31 -9t31 9t12 29t-12 29t-31 9t-31 -9t-12 -29z" />
    <glyph glyph-name="seveninferior" unicode="&#x2087;" horiz-adv-x="322" 
d="M300 103q0 -13 -5 -23l-102 -226q-4 -9 -9.5 -16.5t-16.5 -7.5h-72q-10 0 -15 6t-5 15q0 7 4 15l99 219h-135q-22 0 -22 22v51q0 22 22 22h235q22 0 22 -22v-55z" />
    <glyph glyph-name="eightinferior" unicode="&#x2088;" horiz-adv-x="368" 
d="M338 -67q0 -20 -9 -39.5t-27.5 -34.5t-48 -24.5t-69.5 -9.5q-41 0 -70 9.5t-47.5 24.5t-27.5 34.5t-9 39.5q0 26 11.5 46.5t32.5 31.5q-32 21 -32 68q0 19 7.5 38t24 34t44 24.5t66.5 9.5t66.5 -9.5t44 -24.5t24 -34t7.5 -38q0 -47 -32 -68q21 -11 32.5 -31.5t11.5 -46.5
zM229 -63q0 16 -12.5 24t-32.5 8t-32.5 -8t-12.5 -24q0 -17 13.5 -24.5t31.5 -7.5t31.5 7.5t13.5 24.5zM220 76q0 14 -10.5 21.5t-25.5 7.5t-26 -7.5t-11 -21.5t11.5 -21.5t25.5 -7.5q15 0 25.5 7.5t10.5 21.5z" />
    <glyph glyph-name="nineinferior" unicode="&#x2089;" horiz-adv-x="362" 
d="M335 58q0 -19 -5.5 -35.5t-13.5 -31t-16.5 -25.5t-14.5 -18l-81 -104q-5 -6 -13 -10.5t-16 -4.5h-73q-8 0 -13.5 6t-5.5 14t10 20l54 68q-20 1 -42 9t-41 23t-31 37t-12 52q0 29 12 52t33 39.5t49.5 25.5t61.5 9t62 -8.5t50.5 -24.5t33.5 -39.5t12 -53.5zM134 58
q0 -20 12 -29t31 -9t31 9t12 29t-12 29t-31 9t-31 -9t-12 -29z" />
    <glyph glyph-name="parenleftinferior" unicode="&#x208d;" horiz-adv-x="267" 
d="M210 -124q11 -3 19 -6.5t8 -14.5v-58q0 -22 -24 -22q-25 0 -57 10.5t-60 37t-47.5 72t-19.5 116.5q0 70 19.5 115.5t47.5 72t60 36.5t57 10q24 0 24 -22v-58q0 -11 -8 -14.5t-19 -6.5q-38 -10 -54.5 -43t-16.5 -90t16.5 -91t54.5 -44z" />
    <glyph glyph-name="parenrightinferior" unicode="&#x208e;" horiz-adv-x="267" 
d="M57 -124q38 10 54.5 44t16.5 91t-16.5 90t-54.5 43q-11 3 -19 6.5t-8 14.5v58q0 22 24 22q25 0 57 -10t60 -36.5t47.5 -72t19.5 -115.5q0 -71 -19.5 -116.5t-47.5 -72t-60 -37t-57 -10.5q-24 0 -24 22v58q0 11 8 14.5t19 6.5z" />
    <glyph glyph-name="onehalf" unicode="&#xbd;" horiz-adv-x="814" 
d="M585 681q7 9 14.5 14t21.5 5h62q11 0 17.5 -5.5t6.5 -14.5q0 -2 -1 -5t-3 -6l-494 -650q-7 -9 -14.5 -14t-21.5 -5h-62q-11 0 -17.5 5.5t-6.5 14.5q0 2 1 5t3 6zM257 372q0 -22 -22 -22h-72q-22 0 -22 22v177l-42 -32q-7 -5 -16 -4t-15 9l-37 45q-6 8 -5 16.5t9 14.5
l127 95q10 7 23 7h50q22 0 22 -22v-306zM476 65q0 8 5 14.5t20 17.5q45 33 74 54t46 35.5t23.5 24.5t6.5 22q0 14 -8.5 20.5t-16.5 6.5q-14 0 -24 -18q-6 -11 -12.5 -14.5t-14.5 -3.5h-71q-20 0 -18 19q3 46 40 79t100 33q65 0 103 -33t38 -84q0 -23 -5 -39.5t-17.5 -32
t-33 -32.5t-50.5 -39h91q22 0 22 -22v-51q0 -22 -22 -22h-254q-22 0 -22 20v45z" />
    <glyph glyph-name="onethird" unicode="&#x2153;" horiz-adv-x="837" 
d="M585 681q7 9 14.5 14t21.5 5h62q11 0 17.5 -5.5t6.5 -14.5q0 -2 -1 -5t-3 -6l-494 -650q-7 -9 -14.5 -14t-21.5 -5h-62q-11 0 -17.5 5.5t-6.5 14.5q0 2 1 5t3 6zM257 372q0 -22 -22 -22h-72q-22 0 -22 22v177l-42 -32q-7 -5 -16 -4t-15 9l-37 45q-6 8 -5 16.5t9 14.5
l127 95q10 7 23 7h50q22 0 22 -22v-306zM783 284q0 -10 -3 -14.5t-11 -12.5l-44 -43q18 -7 32 -14.5t23.5 -18.5t15 -27t5.5 -39q0 -26 -11.5 -48t-31.5 -38t-47.5 -25t-59.5 -9q-37 0 -65.5 9t-49 23t-31.5 30.5t-12 31.5q-1 10 5.5 14.5t11.5 4.5h85q9 0 15 -3t11 -6
t12 -6t18 -3q14 0 24 4t10 21q0 14 -10 19.5t-24 5.5h-55q-22 0 -22 22v23q0 11 11 22l53 48h-102q-22 0 -22 22v51q0 22 22 22h225q22 0 22 -22v-44z" />
    <glyph glyph-name="onequarter" unicode="&#xbc;" horiz-adv-x="803" 
d="M585 681q7 9 14.5 14t21.5 5h62q11 0 17.5 -5.5t6.5 -14.5q0 -2 -1 -5t-3 -6l-494 -650q-7 -9 -14.5 -14t-21.5 -5h-62q-11 0 -17.5 5.5t-6.5 14.5q0 2 1 5t3 6zM257 372q0 -22 -22 -22h-72q-22 0 -22 22v177l-42 -32q-7 -5 -16 -4t-15 9l-37 45q-6 8 -5 16.5t9 14.5
l127 95q10 7 23 7h50q22 0 22 -22v-306zM563 332q8 11 15.5 14.5t14.5 3.5h98q22 0 22 -22v-176h35q22 0 22 -22v-51q0 -22 -22 -22h-35v-35q0 -22 -22 -22h-72q-22 0 -22 22v35h-158q-22 0 -22 22v50q0 2 1.5 10t10.5 20zM537 152h62v80z" />
    <glyph glyph-name="oneeighth" unicode="&#x215b;" horiz-adv-x="823" 
d="M585 681q7 9 14.5 14t21.5 5h62q11 0 17.5 -5.5t6.5 -14.5q0 -2 -1 -5t-3 -6l-494 -650q-7 -9 -14.5 -14t-21.5 -5h-62q-11 0 -17.5 5.5t-6.5 14.5q0 2 1 5t3 6zM257 372q0 -22 -22 -22h-72q-22 0 -22 22v177l-42 -32q-7 -5 -16 -4t-15 9l-37 45q-6 8 -5 16.5t9 14.5
l127 95q10 7 23 7h50q22 0 22 -22v-306zM788 103q0 -20 -9 -39.5t-27.5 -34.5t-48 -24.5t-69.5 -9.5q-41 0 -70 9.5t-47.5 24.5t-27.5 34.5t-9 39.5q0 26 11.5 46.5t32.5 31.5q-32 21 -32 68q0 19 7.5 38t24 34t44 24.5t66.5 9.5t66.5 -9.5t44 -24.5t24 -34t7.5 -38
q0 -47 -32 -68q21 -11 32.5 -31.5t11.5 -46.5zM679 107q0 16 -12.5 24t-32.5 8t-32.5 -8t-12.5 -24q0 -17 13.5 -24.5t31.5 -7.5t31.5 7.5t13.5 24.5zM670 246q0 14 -10.5 21.5t-25.5 7.5t-26 -7.5t-11 -21.5t11.5 -21.5t25.5 -7.5q15 0 25.5 7.5t10.5 21.5z" />
    <glyph glyph-name="twothirds" unicode="&#x2154;" horiz-adv-x="890" 
d="M641 681q7 9 14.5 14t21.5 5h62q11 0 17.5 -5.5t6.5 -14.5q0 -2 -1 -5t-3 -6l-494 -650q-7 -9 -14.5 -14t-21.5 -5h-62q-11 0 -17.5 5.5t-6.5 14.5q0 2 1 5t3 6zM36 415q0 8 5 14.5t20 17.5q45 33 74 54t46 35.5t23.5 24.5t6.5 22q0 14 -8.5 20.5t-16.5 6.5
q-14 0 -24 -18q-6 -11 -12.5 -14.5t-14.5 -3.5h-71q-20 0 -18 19q3 46 40 79t100 33q65 0 103 -33t38 -84q0 -23 -5 -39.5t-17.5 -32t-33 -32.5t-50.5 -39h91q22 0 22 -22v-51q0 -22 -22 -22h-254q-22 0 -22 20v45zM839 284q0 -10 -3 -14.5t-11 -12.5l-44 -43
q18 -7 32 -14.5t23.5 -18.5t15 -27t5.5 -39q0 -26 -11.5 -48t-31.5 -38t-47.5 -25t-59.5 -9q-37 0 -65.5 9t-49 23t-31.5 30.5t-12 31.5q-1 10 5.5 14.5t11.5 4.5h85q9 0 15 -3t11 -6t12 -6t18 -3q14 0 24 4t10 21q0 14 -10 19.5t-24 5.5h-55q-22 0 -22 22v23q0 11 11 22
l53 48h-102q-22 0 -22 22v51q0 22 22 22h225q22 0 22 -22v-44z" />
    <glyph glyph-name="threequarters" unicode="&#xbe;" horiz-adv-x="825" 
d="M610 681q7 9 14.5 14t21.5 5h62q11 0 17.5 -5.5t6.5 -14.5q0 -2 -1 -5t-3 -6l-494 -650q-7 -9 -14.5 -14t-21.5 -5h-62q-11 0 -17.5 5.5t-6.5 14.5q0 2 1 5t3 6zM320 634q0 -10 -3 -14.5t-11 -12.5l-44 -43q18 -7 32 -14.5t23.5 -18.5t15 -27t5.5 -39q0 -26 -11.5 -48
t-31.5 -38t-47.5 -25t-59.5 -9q-37 0 -65.5 9t-49 23t-31.5 30.5t-12 31.5q-1 10 5.5 14.5t11.5 4.5h85q9 0 15 -3t11 -6t12 -6t18 -3q14 0 24 4t10 21q0 14 -10 19.5t-24 5.5h-55q-22 0 -22 22v23q0 11 11 22l53 48h-102q-22 0 -22 22v51q0 22 22 22h225q22 0 22 -22v-44z
M588 332q8 11 15.5 14.5t14.5 3.5h98q22 0 22 -22v-176h35q22 0 22 -22v-51q0 -22 -22 -22h-35v-35q0 -22 -22 -22h-72q-22 0 -22 22v35h-158q-22 0 -22 22v50q0 2 1.5 10t10.5 20zM562 152h62v80z" />
    <glyph glyph-name="threeeighths" unicode="&#x215c;" horiz-adv-x="845" 
d="M610 681q7 9 14.5 14t21.5 5h62q11 0 17.5 -5.5t6.5 -14.5q0 -2 -1 -5t-3 -6l-494 -650q-7 -9 -14.5 -14t-21.5 -5h-62q-11 0 -17.5 5.5t-6.5 14.5q0 2 1 5t3 6zM320 634q0 -10 -3 -14.5t-11 -12.5l-44 -43q18 -7 32 -14.5t23.5 -18.5t15 -27t5.5 -39q0 -26 -11.5 -48
t-31.5 -38t-47.5 -25t-59.5 -9q-37 0 -65.5 9t-49 23t-31.5 30.5t-12 31.5q-1 10 5.5 14.5t11.5 4.5h85q9 0 15 -3t11 -6t12 -6t18 -3q14 0 24 4t10 21q0 14 -10 19.5t-24 5.5h-55q-22 0 -22 22v23q0 11 11 22l53 48h-102q-22 0 -22 22v51q0 22 22 22h225q22 0 22 -22v-44z
M813 103q0 -20 -9 -39.5t-27.5 -34.5t-48 -24.5t-69.5 -9.5q-41 0 -70 9.5t-47.5 24.5t-27.5 34.5t-9 39.5q0 26 11.5 46.5t32.5 31.5q-32 21 -32 68q0 19 7.5 38t24 34t44 24.5t66.5 9.5t66.5 -9.5t44 -24.5t24 -34t7.5 -38q0 -47 -32 -68q21 -11 32.5 -31.5t11.5 -46.5z
M704 107q0 16 -12.5 24t-32.5 8t-32.5 -8t-12.5 -24q0 -17 13.5 -24.5t31.5 -7.5t31.5 7.5t13.5 24.5zM695 246q0 14 -10.5 21.5t-25.5 7.5t-26 -7.5t-11 -21.5t11.5 -21.5t25.5 -7.5q15 0 25.5 7.5t10.5 21.5z" />
    <glyph glyph-name="fiveeighths" unicode="&#x215d;" horiz-adv-x="831" 
d="M596 681q7 9 14.5 14t21.5 5h62q11 0 17.5 -5.5t6.5 -14.5q0 -2 -1 -5t-3 -6l-494 -650q-7 -9 -14.5 -14t-21.5 -5h-62q-11 0 -17.5 5.5t-6.5 14.5q0 2 1 5t3 6zM309 627q0 -22 -22 -22h-137l-4 -40q13 7 24 10t35 3q25 0 47.5 -8t39.5 -23t27 -35.5t10 -45.5
q0 -24 -10 -46t-29 -38.5t-47 -26.5t-65 -10q-45 0 -73.5 10t-45.5 25t-23.5 31t-6.5 28q0 10 6 14.5t11 4.5h77q10 0 14.5 -3l9 -6t11 -6t20.5 -3q18 0 27.5 8.5t9.5 19.5t-9 19.5t-23 8.5q-9 0 -14.5 -2t-9.5 -4.5t-7 -4.5t-8 -2h-74q-11 0 -17 7.5t-5 18.5l16 164
q1 11 7.5 18.5t17.5 8.5h198q22 0 22 -22v-51zM799 103q0 -20 -9 -39.5t-27.5 -34.5t-48 -24.5t-69.5 -9.5q-41 0 -70 9.5t-47.5 24.5t-27.5 34.5t-9 39.5q0 26 11.5 46.5t32.5 31.5q-32 21 -32 68q0 19 7.5 38t24 34t44 24.5t66.5 9.5t66.5 -9.5t44 -24.5t24 -34t7.5 -38
q0 -47 -32 -68q21 -11 32.5 -31.5t11.5 -46.5zM690 107q0 16 -12.5 24t-32.5 8t-32.5 -8t-12.5 -24q0 -17 13.5 -24.5t31.5 -7.5t31.5 7.5t13.5 24.5zM681 246q0 14 -10.5 21.5t-25.5 7.5t-26 -7.5t-11 -21.5t11.5 -21.5t25.5 -7.5q15 0 25.5 7.5t10.5 21.5z" />
    <glyph glyph-name="seveneighths" unicode="&#x215e;" horiz-adv-x="788" 
d="M553 681q7 9 14.5 14t21.5 5h62q11 0 17.5 -5.5t6.5 -14.5q0 -2 -1 -5t-3 -6l-494 -650q-7 -9 -14.5 -14t-21.5 -5h-62q-11 0 -17.5 5.5t-6.5 14.5q0 2 1 5t3 6zM315 623q0 -13 -5 -23l-102 -226q-4 -9 -9.5 -16.5t-16.5 -7.5h-72q-10 0 -15 6t-5 15q0 7 4 15l99 219
h-135q-22 0 -22 22v51q0 22 22 22h235q22 0 22 -22v-55zM756 103q0 -20 -9 -39.5t-27.5 -34.5t-48 -24.5t-69.5 -9.5q-41 0 -70 9.5t-47.5 24.5t-27.5 34.5t-9 39.5q0 26 11.5 46.5t32.5 31.5q-32 21 -32 68q0 19 7.5 38t24 34t44 24.5t66.5 9.5t66.5 -9.5t44 -24.5t24 -34
t7.5 -38q0 -47 -32 -68q21 -11 32.5 -31.5t11.5 -46.5zM647 107q0 16 -12.5 24t-32.5 8t-32.5 -8t-12.5 -24q0 -17 13.5 -24.5t31.5 -7.5t31.5 7.5t13.5 24.5zM638 246q0 14 -10.5 21.5t-25.5 7.5t-26 -7.5t-11 -21.5t11.5 -21.5t25.5 -7.5q15 0 25.5 7.5t10.5 21.5z" />
    <glyph glyph-name="exclam" unicode="!" horiz-adv-x="302" 
d="M241 242q0 -11 -8 -19t-19 -8h-126q-11 0 -19 8t-8 19v431q0 11 8 19t19 8h126q11 0 19 -8t8 -19v-431zM241 27q0 -11 -8 -19t-19 -8h-126q-11 0 -19 8t-8 19v101q0 11 8 19t19 8h126q11 0 19 -8t8 -19v-101z" />
    <glyph glyph-name="quotedbl" unicode="&#x22;" horiz-adv-x="488" 
d="M425 466q-2 -14 -9.5 -21t-18.5 -7h-78q-11 0 -18.5 7t-9.5 21l-22 208q-2 15 4.5 25.5t22.5 10.5h124q16 0 22.5 -10.5t4.5 -25.5zM197 466q-2 -14 -9.5 -21t-18.5 -7h-78q-11 0 -18.5 7t-9.5 21l-22 208q-2 15 4.5 25.5t22.5 10.5h124q16 0 22.5 -10.5t4.5 -25.5z" />
    <glyph glyph-name="quotesingle" unicode="'" horiz-adv-x="260" 
d="M197 466q-2 -14 -9.5 -21t-18.5 -7h-78q-11 0 -18.5 7t-9.5 21l-22 208q-2 15 4.5 25.5t22.5 10.5h124q16 0 22.5 -10.5t4.5 -25.5z" />
    <glyph glyph-name="quotesinglbase" unicode="&#x201a;" horiz-adv-x="287" 
d="M60 146q2 14 12.5 26.5t30.5 12.5h123q9 0 15.5 -6.5t6.5 -15.5q0 -4 -1 -7l-78 -199q-4 -10 -13.5 -21t-29.5 -11h-75q-9 0 -15.5 6.5t-6.5 15.5v2z" />
    <glyph glyph-name="quotedblbase" unicode="&#x201e;" horiz-adv-x="522" 
d="M60 146q2 14 12.5 26.5t30.5 12.5h123q9 0 15.5 -6.5t6.5 -15.5q0 -4 -1 -7l-78 -199q-4 -10 -13.5 -21t-29.5 -11h-75q-9 0 -15.5 6.5t-6.5 15.5v2zM295 146q2 14 12.5 26.5t30.5 12.5h123q9 0 15.5 -6.5t6.5 -15.5q0 -4 -1 -7l-78 -199q-4 -10 -13.5 -21t-29.5 -11h-75
q-9 0 -15.5 6.5t-6.5 15.5v2z" />
    <glyph glyph-name="quoteleft" unicode="&#x2018;" horiz-adv-x="283" 
d="M218 489q-2 -14 -12.5 -26.5t-30.5 -12.5h-123q-9 0 -15.5 6.5t-6.5 15.5q0 4 1 7l78 199q4 10 13.5 21t29.5 11h75q9 0 15.5 -6.5t6.5 -15.5v-2z" />
    <glyph glyph-name="quoteright" unicode="&#x2019;" horiz-adv-x="277" 
d="M71 671q2 14 12.5 26.5t30.5 12.5h123q9 0 15.5 -6.5t6.5 -15.5q0 -4 -1 -7l-78 -199q-4 -10 -13.5 -21t-29.5 -11h-75q-9 0 -15.5 6.5t-6.5 15.5v2z" />
    <glyph glyph-name="quotedblleft" unicode="&#x201c;" horiz-adv-x="518" 
d="M453 489q-2 -14 -12.5 -26.5t-30.5 -12.5h-123q-9 0 -15.5 6.5t-6.5 15.5q0 4 1 7l78 199q4 10 13.5 21t29.5 11h75q9 0 15.5 -6.5t6.5 -15.5v-2zM218 489q-2 -14 -12.5 -26.5t-30.5 -12.5h-123q-9 0 -15.5 6.5t-6.5 15.5q0 4 1 7l78 199q4 10 13.5 21t29.5 11h75
q9 0 15.5 -6.5t6.5 -15.5v-2z" />
    <glyph glyph-name="quotedblright" unicode="&#x201d;" horiz-adv-x="512" 
d="M71 671q2 14 12.5 26.5t30.5 12.5h123q9 0 15.5 -6.5t6.5 -15.5q0 -4 -1 -7l-78 -199q-4 -10 -13.5 -21t-29.5 -11h-75q-9 0 -15.5 6.5t-6.5 15.5v2zM306 671q2 14 12.5 26.5t30.5 12.5h123q9 0 15.5 -6.5t6.5 -15.5q0 -4 -1 -7l-78 -199q-4 -10 -13.5 -21t-29.5 -11h-75
q-9 0 -15.5 6.5t-6.5 15.5v2z" />
    <glyph glyph-name="ampersand" unicode="&#x26;" horiz-adv-x="765" 
d="M536 337q3 15 14 22t24 7h119q11 0 19 -8t8 -18q0 -18 -4.5 -41.5t-14.5 -50t-26 -54.5t-38 -55l107 -108q6 -6 6 -14q0 -7 -5 -12t-13 -5h-181q-11 0 -16 3t-9 7l-22 22q-41 -20 -89.5 -31t-106.5 -11q-45 0 -91 9.5t-83.5 33t-61 62t-23.5 96.5q0 60 31.5 103t87.5 79
q-18 21 -30.5 40t-20.5 37t-11.5 37t-3.5 41q0 40 18 73.5t49 57.5t73 37.5t89 13.5t89 -14t73.5 -38.5t49.5 -58t18 -71.5q0 -20 -5.5 -43t-19 -47t-37 -49.5t-59.5 -50.5l70 -71q10 19 16.5 37t9.5 33zM308 124q23 0 44 5.5t41 15.5l-107 108q-25 -14 -41.5 -31.5
t-16.5 -37.5q0 -29 20.5 -44.5t59.5 -15.5zM281 528q0 -17 12 -35t28 -35q60 36 60 70q0 26 -16 37t-34 11q-20 0 -35 -12t-15 -36z" />
    <glyph glyph-name="asterisk" unicode="*" horiz-adv-x="450" 
d="M274 620l70 46q2 1 3 1t2 1q1 0 2 1q8 3 16.5 -1.5t11.5 -12.5l31 -95q3 -8 -1.5 -16.5t-12.5 -11.5q-1 0 -2.5 -0.5t-5.5 -0.5l-84 -5l66 -52q1 -2 4 -5l1 -1q5 -7 4 -16.5t-9 -14.5l-80 -59q-8 -5 -17 -3t-14 8l-4 7l-30 78l-30 -78l-4 -7q-5 -6 -14 -8t-17 3l-80 59
q-8 5 -9 14.5t4 16.5l1 1q1 1 1.5 2t2.5 3l66 52l-84 5q-4 0 -5.5 0.5t-2.5 0.5q-8 3 -12.5 11.5t-1.5 16.5l31 95q3 8 11.5 12.5t16.5 1.5q1 -1 2 -1q0 -1 5 -2l70 -46l-22 80q-1 5 -1 8q0 8 6.5 15t15.5 7h100q9 0 15.5 -7t6.5 -15q0 -3 -1 -8z" />
    <glyph glyph-name="plus" unicode="+" horiz-adv-x="613" 
d="M397 223v-165q0 -11 -8 -19t-19 -8h-126q-11 0 -19 8t-8 19v165h-155q-11 0 -19 8t-8 19v101q0 11 8 19t19 8h155v165q0 11 8 19t19 8h126q11 0 19 -8t8 -19v-165h154q11 0 19 -8t8 -19v-101q0 -11 -8 -19t-19 -8h-154z" />
    <glyph glyph-name="plusminus" unicode="&#xb1;" horiz-adv-x="575" 
d="M93 0q-11 0 -19 8t-8 19v101q0 11 8 19t19 8h389q11 0 19 -8t8 -19v-101q0 -11 -8 -19t-19 -8h-389zM377 356v-138q0 -11 -8 -19t-19 -8h-123q-11 0 -19 8t-8 19v138h-127q-11 0 -19 8t-8 19v101q0 11 8 19t19 8h127v132q0 11 8 19t19 8h123q11 0 19 -8t8 -19v-132h125
q11 0 19 -8t8 -19v-101q0 -11 -8 -19t-19 -8h-125z" />
    <glyph glyph-name="slash" unicode="/" horiz-adv-x="574" 
d="M361 756q5 11 15 20.5t29 9.5h124q9 0 15.5 -6.5t6.5 -15.5q0 -4 -2 -9l-337 -809q-4 -10 -14 -20t-30 -10h-122q-9 0 -15.5 6.5t-6.5 15.5q0 4 2 9z" />
    <glyph glyph-name="backslash" unicode="\" horiz-adv-x="574" 
d="M548 -53q2 -5 2 -9q0 -9 -6.5 -15.5t-15.5 -6.5h-122q-20 0 -30 10t-14 20l-337 809q-2 5 -2 9q0 9 6.5 15.5t15.5 6.5h124q19 0 29 -9.5t15 -20.5z" />
    <glyph glyph-name="fraction" unicode="&#x2044;" horiz-adv-x="160" 
d="M267 681q7 9 14.5 14t21.5 5h62q11 0 17.5 -5.5t6.5 -14.5q0 -2 -1 -5t-3 -6l-494 -650q-7 -9 -14.5 -14t-21.5 -5h-62q-11 0 -17.5 5.5t-6.5 14.5q0 2 1 5t3 6z" />
    <glyph glyph-name="at" unicode="@" horiz-adv-x="876" 
d="M824 234q-2 -38 -17 -67t-37.5 -48.5t-51 -29.5t-56.5 -10q-51 0 -82 14.5t-45 31.5q-8 -10 -17 -20t-23 -18t-35 -13t-52 -5q-37 0 -67 14.5t-51.5 41.5t-33 64.5t-11.5 83.5t11 83.5t31 64.5t49.5 42t66.5 15q41 0 61 -12.5t33 -31.5v9q0 11 8 19t19 8h62q11 0 19 -8
t8 -19v-203q0 -24 13.5 -37t35.5 -13q23 0 34.5 13.5t13.5 45.5q2 27 2 51.5t-3 50.5q-6 55 -22 96t-48 68t-83 40t-128 13q-65 0 -112 -16t-78.5 -44.5t-48.5 -68.5t-23 -88q-2 -13 -2.5 -34.5t-0.5 -45t0.5 -45.5t2.5 -36q6 -48 24.5 -87.5t50.5 -68t78.5 -44t108.5 -15.5
q48 0 80 4t54 11t36 15.5t27 17.5q11 8 17.5 11.5t17.5 3.5h88q11 0 19.5 -7.5t7.5 -20.5q0 -8 -7 -15q-20 -22 -49.5 -45t-71 -42t-96 -31.5t-123.5 -12.5q-90 0 -158.5 26.5t-115 70.5t-72.5 102.5t-32 121.5q-1 14 -1.5 37.5t-0.5 49t0.5 48.5t1.5 36q5 62 29 120.5
t70 103.5t115 72t164 27q110 0 183.5 -25.5t119 -70t66.5 -103t27 -124.5q2 -26 2 -60.5t-2 -61.5zM360 273q0 -49 20.5 -71t47.5 -22q29 0 49 21.5t20 71.5q0 49 -20 71.5t-49 22.5q-27 0 -47.5 -22.5t-20.5 -71.5z" />
    <glyph glyph-name="parenleft" unicode="(" horiz-adv-x="408" 
d="M39 309q0 240 81.5 353.5t233.5 113.5q11 0 19 -8t8 -19v-101q0 -11 -8 -18.5t-19 -8.5q-41 -4 -67 -28.5t-41 -66t-21 -97t-6 -120.5t6 -121t21 -97t41 -66t67 -29q11 -1 19 -8.5t8 -18.5v-101q0 -11 -8 -19t-19 -8q-152 0 -233.5 114t-81.5 354z" />
    <glyph glyph-name="parenright" unicode=")" horiz-adv-x="408" 
d="M369 309q0 -240 -82 -354t-233 -114q-11 0 -19 8t-8 19v101q0 11 8 18.5t19 8.5q40 4 66.5 29t41.5 66t21 97t6 121t-6 120.5t-21 97t-41.5 66t-66.5 28.5q-11 1 -19 8.5t-8 18.5v101q0 11 8 19t19 8q151 0 233 -113.5t82 -353.5z" />
    <glyph glyph-name="bracketleft" unicode="[" horiz-adv-x="390" 
d="M87 -159q-11 0 -19 8t-8 19v881q0 11 8 19t19 8h248q11 0 19 -8t8 -19v-101q0 -11 -8 -19t-19 -8h-95v-625h95q11 0 19 -8t8 -19v-101q0 -11 -8 -19t-19 -8h-248z" />
    <glyph glyph-name="bracketright" unicode="]" horiz-adv-x="390" 
d="M55 -159q-11 0 -19 8t-8 19v101q0 11 8 19t19 8h95v625h-95q-11 0 -19 8t-8 19v101q0 11 8 19t19 8h248q11 0 19 -8t8 -19v-881q0 -11 -8 -19t-19 -8h-248z" />
    <glyph glyph-name="braceleft" unicode="{" horiz-adv-x="451" 
d="M424 -133q0 -11 -8 -19t-19 -8q-65 0 -119.5 21t-93.5 58.5t-60.5 88.5t-21.5 111q0 16 -3 33t-9 32.5t-16 27.5t-25 18l-17 7q-29 13 -29 37v68q0 24 29 37l17 7q15 6 25 18t16 27.5t9 32.5t3 33q0 60 21.5 111t60.5 88.5t93.5 58.5t119.5 21q11 0 19 -8t8 -19v-101
q0 -11 -8 -19t-19 -8q-27 -3 -48.5 -10t-36.5 -22.5t-22.5 -40.5t-7.5 -62q0 -40 -8.5 -69.5t-21.5 -50.5t-28.5 -35t-28.5 -23q13 -9 28.5 -23t28.5 -35t21.5 -50.5t8.5 -69.5q0 -38 7.5 -62.5t22.5 -40t36.5 -22.5t48.5 -10q11 0 19 -8t8 -19v-101v0z" />
    <glyph glyph-name="braceright" unicode="}" horiz-adv-x="451" 
d="M27 -32q0 11 8 19t19 8q27 3 48.5 10t36.5 22.5t22.5 40t7.5 62.5q0 40 8.5 69.5t21.5 50.5t28 35t29 23q-14 9 -29 23t-28 35t-21.5 50.5t-8.5 69.5q0 37 -7.5 62t-22.5 40.5t-36.5 22.5t-48.5 10q-11 0 -19 8t-8 19v101q0 11 8 19t19 8q65 0 119.5 -21t93.5 -58.5
t60.5 -88.5t21.5 -111q0 -16 3 -33t9 -32.5t16 -27.5t25 -18l17 -7q29 -13 29 -37v-68q0 -24 -29 -37l-17 -7q-15 -6 -25 -18t-16 -27.5t-9 -32.5t-3 -33q0 -60 -21.5 -111t-60.5 -88.5t-93.5 -58.5t-119.5 -21q-11 0 -19 8t-8 19v101z" />
    <glyph glyph-name="exclamdown" unicode="&#xa1;" horiz-adv-x="294" 
d="M237 278.015q0 10.999 -8 18.999q-8 7.99902 -19 7.99902h-126q-11 0 -19 -7.99902q-8 -8 -8 -18.999v-430.974q0 -10.999 8 -18.999q8 -7.99902 19 -7.99902h126q11 0 19 7.99902q8 8 8 18.999v430.974zM237 493.002q0 10.999 -8 18.998q-8 8 -19 8h-126q-11 0 -19 -8
q-8 -7.99902 -8 -18.998v-100.994q0 -10.999 8 -18.999q8 -7.99902 19 -7.99902h126q11 0 19 7.99902q8 8 8 18.999v100.994z" />
    <glyph glyph-name="questiondown" unicode="&#xbf;" horiz-adv-x="599" 
d="M210.023 493.002q0 10.999 8 18.998q8 8 18.999 8h125.992q10.999 0 18.999 -8q7.99902 -7.99902 7.99902 -18.998v-100.994q0 -10.999 -7.99902 -18.999q-8 -7.99902 -18.999 -7.99902h-125.992q-10.999 0 -18.999 7.99902q-8 8 -8 18.999v100.994zM297.019 -189.957
q-55.9961 0 -105.493 15.499t-85.9951 42.998q-36.498 27.498 -57.4961 64.9961q-20.999 37.4971 -20.999 82.4951q0 35.9971 11.999 62.9961q11.999 26.998 30.498 48.9961q18.499 21.999 40.498 39.498q21.998 17.499 42.4971 34.498t36.998 35.498
q16.499 18.498 22.498 40.4971q3 10.999 9.5 18.999q6.49902 7.99902 17.499 7.99902h121.992q10.999 0 18.999 -7.99902q7.99902 -8 7.99902 -18.999q0 -32.998 -13.499 -58.9961q-13.499 -25.999 -33.498 -47.4971q-19.998 -21.499 -43.4971 -39.498t-43.4971 -34.498
q-19.999 -16.499 -33.498 -33.498q-13.499 -16.998 -13.499 -36.9971q0 -28.998 21.998 -45.4971q21.999 -16.499 67.9961 -16.499q44.9971 0 64.4961 13.499t28.498 29.498q9 15.999 15.499 29.498q6.5 13.499 25.499 13.499h121.992q8.99902 0 15.499 -5.99902
q6.5 -6 6.5 -15.999q-1 -34.998 -19.999 -73.4961q-18.999 -38.4971 -54.4971 -70.9951q-35.4971 -32.498 -86.4941 -53.4971t-116.993 -20.999z" />
    <glyph glyph-name="guillemotleft" unicode="&#xab;" horiz-adv-x="626" 
d="M313 362q0 16 14 28l207 201q5 4 9 4.5t5 0.5q9 0 15.5 -6.5t6.5 -15.5v-113q0 -17 -4 -26t-14 -19l-90 -87l90 -87q10 -10 14 -19t4 -26v-113q0 -9 -6.5 -15.5t-15.5 -6.5q-1 0 -5 0.5t-9 4.5l-207 201q-14 12 -14 28v66zM33 362q0 16 14 28l207 201q5 4 9 4.5t5 0.5
q9 0 15.5 -6.5t6.5 -15.5v-113q0 -17 -4 -26t-14 -19l-90 -87l90 -87q10 -10 14 -19t4 -26v-113q0 -9 -6.5 -15.5t-15.5 -6.5q-1 0 -5 0.5t-9 4.5l-207 201q-14 12 -14 28v66z" />
    <glyph glyph-name="guillemotright" unicode="&#xbb;" horiz-adv-x="626" 
d="M313 296q0 -16 -14 -28l-207 -201q-5 -4 -9 -4.5t-5 -0.5q-9 0 -15.5 6.5t-6.5 15.5v113q0 17 4 26t14 19l90 87l-90 87q-10 10 -14 19t-4 26v113q0 9 6.5 15.5t15.5 6.5q1 0 5 -0.5t9 -4.5l207 -201q14 -12 14 -28v-66zM593 296q0 -16 -14 -28l-207 -201q-5 -4 -9 -4.5
t-5 -0.5q-9 0 -15.5 6.5t-6.5 15.5v113q0 17 4 26t14 19l90 87l-90 87q-10 10 -14 19t-4 26v113q0 9 6.5 15.5t15.5 6.5q1 0 5 -0.5t9 -4.5l207 -201q14 -12 14 -28v-66z" />
    <glyph glyph-name="guilsinglleft" unicode="&#x2039;" horiz-adv-x="346" 
d="M33 362q0 16 14 28l207 201q5 4 9 4.5t5 0.5q9 0 15.5 -6.5t6.5 -15.5v-113q0 -17 -4 -26t-14 -19l-90 -87l90 -87q10 -10 14 -19t4 -26v-113q0 -9 -6.5 -15.5t-15.5 -6.5q-1 0 -5 0.5t-9 4.5l-207 201q-14 12 -14 28v66z" />
    <glyph glyph-name="guilsinglright" unicode="&#x203a;" horiz-adv-x="346" 
d="M313 296q0 -16 -14 -28l-207 -201q-5 -4 -9 -4.5t-5 -0.5q-9 0 -15.5 6.5t-6.5 15.5v113q0 17 4 26t14 19l90 87l-90 87q-10 10 -14 19t-4 26v113q0 9 6.5 15.5t15.5 6.5q1 0 5 -0.5t9 -4.5l207 -201q14 -12 14 -28v-66z" />
    <glyph glyph-name="hyphen" unicode="-" horiz-adv-x="479" 
d="M82 223q-11 0 -19 8t-8 19v101q0 11 8 19t19 8h315q11 0 19 -8t8 -19v-101q0 -11 -8 -19t-19 -8h-315z" />
    <glyph glyph-name="endash" unicode="&#x2013;" horiz-adv-x="569" 
d="M82 223q-11 0 -19 8t-8 19v101q0 11 8 19t19 8h405q11 0 19 -8t8 -19v-101q0 -11 -8 -19t-19 -8h-405z" />
    <glyph glyph-name="emdash" unicode="&#x2014;" horiz-adv-x="759" 
d="M82 223q-11 0 -19 8t-8 19v101q0 11 8 19t19 8h595q11 0 19 -8t8 -19v-101q0 -11 -8 -19t-19 -8h-595z" />
    <glyph glyph-name="periodcentered" unicode="&#xb7;" horiz-adv-x="336" 
d="M38 300q0 27 10 50.5t28 41.5t41.5 28t50.5 10t50.5 -10t41.5 -28t28 -41.5t10 -50.5t-10 -50.5t-28 -41.5t-41.5 -28t-50.5 -10t-50.5 10t-41.5 28t-28 41.5t-10 50.5z" />
    <glyph glyph-name="colon" unicode=":" horiz-adv-x="295" 
d="M240 27q0 -11 -8 -19t-19 -8h-131q-11 0 -19 8t-8 19v131q0 11 8 19t19 8h131q11 0 19 -8t8 -19v-131zM240 377q0 -11 -8 -19t-19 -8h-131q-11 0 -19 8t-8 19v131q0 11 8 19t19 8h131q11 0 19 -8t8 -19v-131z" />
    <glyph glyph-name="semicolon" unicode=";" horiz-adv-x="307" 
d="M66 146q2 14 12.5 26.5t30.5 12.5h123q9 0 15.5 -6.5t6.5 -15.5q0 -4 -1 -7l-78 -198q-4 -10 -13.5 -21t-29.5 -11h-75q-9 0 -15.5 6.5t-6.5 15.5v2zM254 377q0 -11 -8 -19t-19 -8h-131q-11 0 -19 8t-8 19v131q0 11 8 19t19 8h131q11 0 19 -8t8 -19v-131z" />
    <glyph glyph-name="less" unicode="&#x3c;" horiz-adv-x="523" 
d="M27 371q0 16 7.5 24.5t21.5 17.5l375 254q4 2 6.5 2.5t4.5 0.5q9 0 15 -6t6 -15v-137q0 -17 -11 -27t-21 -17l-176 -118l176 -118q10 -7 21 -17t11 -27v-137q0 -9 -6 -15t-15 -6q-2 0 -4.5 0.5t-6.5 2.5l-375 254q-14 9 -21.5 17.5t-7.5 24.5v42z" />
    <glyph glyph-name="lessequal" unicode="&#x2264;" horiz-adv-x="551" 
d="M295 430l160 -64q11 -4 21.5 -15.5t10.5 -28.5v-107q0 -9 -6 -15t-15 -6q-4 0 -11 3l-375 170q-14 7 -21.5 16.5t-7.5 25.5v42q0 16 7.5 25.5t21.5 16.5l375 170q7 3 11 3q9 0 15 -6t6 -15v-107q0 -17 -10.5 -28.5t-21.5 -15.5zM78 0q-11 0 -19 8t-8 19v101q0 11 8 19
t19 8h382q11 0 19 -8t8 -19v-101q0 -11 -8 -19t-19 -8h-382z" />
    <glyph glyph-name="equal" unicode="=" horiz-adv-x="571" 
d="M88 346q-11 0 -19 8t-8 19v101q0 11 8 19t19 8h395q11 0 19 -8t8 -19v-101q0 -11 -8 -19t-19 -8h-395zM88 100q-11 0 -19 8t-8 19v101q0 11 8 19t19 8h395q11 0 19 -8t8 -19v-101q0 -11 -8 -19t-19 -8h-395z" />
    <glyph glyph-name="approxequal" unicode="&#x2248;" horiz-adv-x="564" 
d="M173 521q37 0 63 -6.5t49.5 -14.5t48.5 -14.5t60 -6.5q23 0 41 9.5t26 16.5q4 3 8.5 5.5t11.5 3.5q14 0 18 -9t4 -28v-73q0 -33 -29.5 -56.5t-80.5 -23.5q-37 0 -63 6.5t-49.5 14.5t-48.5 14.5t-60 6.5q-23 0 -41 -9.5t-26 -16.5q-4 -3 -8.5 -5.5t-11.5 -3.5q-14 0 -18 9
t-4 28v73q0 33 29.5 56.5t80.5 23.5zM173 276q37 0 63 -6.5t49.5 -14.5t48.5 -14.5t60 -6.5q23 0 41 9.5t26 16.5q4 3 8.5 5.5t11.5 3.5q14 0 18 -9t4 -28v-73q0 -33 -29.5 -56.5t-80.5 -23.5q-37 0 -63 6.5t-49.5 14.5t-48.5 14.5t-60 6.5q-23 0 -41 -9.5t-26 -16.5
q-4 -3 -8.5 -5.5t-11.5 -3.5q-14 0 -18 9t-4 28v73q0 33 29.5 56.5t80.5 23.5z" />
    <glyph glyph-name="notequal" unicode="&#x2260;" horiz-adv-x="559" 
d="M290 100l-20 -49q-4 -10 -14 -20t-30 -10h-122q-9 0 -15.5 6.5t-6.5 15.5q0 4 2 9l20 48h-20q-11 0 -19 8t-8 19v101q0 11 8 19t19 8h84l38 91h-122q-11 0 -19 8t-8 19v101q0 11 8 19t19 8h186l20 48q5 11 15 20.5t29 9.5h124q9 0 15.5 -6.5t6.5 -15.5q0 -4 -2 -9
l-20 -47h21q11 0 19 -8t8 -19v-101q0 -11 -8 -19t-19 -8h-86l-38 -91h124q11 0 19 -8t8 -19v-101q0 -11 -8 -19t-19 -8h-189z" />
    <glyph glyph-name="logicalnot" unicode="&#xac;" horiz-adv-x="577" 
d="M513 100q0 -11 -8 -19t-19 -8h-126q-11 0 -19 8t-8 19v95h-252q-11 0 -19 8t-8 19v101q0 11 8 19t19 8h405q11 0 19 -8t8 -19v-223z" />
    <glyph glyph-name="estimated" unicode="&#x212e;" horiz-adv-x="663" 
d="M242 243q1 -32 9 -54.5t20.5 -36.5t29 -20.5t33.5 -6.5q32 0 50 11t30 22q11 9 16 11.5t17 2.5h144q10 0 16.5 -6t5.5 -16q-1 -19 -19 -46.5t-52.5 -52.5t-86.5 -43t-121 -18q-62 0 -114.5 18t-91 55t-60 93.5t-21.5 133.5q0 81 22 141t60.5 100t91 59.5t113.5 19.5
q73 0 127.5 -24t89.5 -66t52.5 -99t17.5 -123v-28q0 -11 -8 -19t-19 -8h-352zM334 475q-25 0 -42 -9.5t-28 -25t-16 -35.5t-6 -41h184q-1 19 -6 39t-16 36t-28.5 26t-41.5 10z" />
    <glyph glyph-name="partialdiff" unicode="&#x2202;" horiz-adv-x="592" 
d="M554 230q0 -61 -22 -106t-58.5 -75t-84.5 -44.5t-100 -14.5t-98.5 14.5t-82 44.5t-56 75t-20.5 106t20.5 106t55.5 75t81.5 44.5t98.5 14.5q10 0 20 -0.5t20 -1.5q-26 57 -71.5 101t-101.5 89q-11 8 -14 13t-3 9q0 20 20 20h156q12 0 20 -3.5t16 -9.5q48 -42 86 -83
t64.5 -92.5t40 -119t13.5 -162.5zM212 230q0 -35 16 -60t60 -25t60 25t16 60t-16 60t-60 25t-60 -25t-16 -60z" />
    <glyph glyph-name="greater" unicode="&#x3e;" horiz-adv-x="523" 
d="M496 329q0 -16 -7.5 -24.5t-21.5 -17.5l-375 -254q-4 -2 -6.5 -2.5t-4.5 -0.5q-9 0 -15 6t-6 15v137q0 17 11 27t21 17l176 118l-176 118q-10 7 -21 17t-11 27v137q0 9 6 15t15 6q2 0 4.5 -0.5t6.5 -2.5l375 -254q14 -9 21.5 -17.5t7.5 -24.5v-42z" />
    <glyph glyph-name="greaterequal" unicode="&#x2265;" horiz-adv-x="551" 
d="M96 494q-11 4 -21.5 15.5t-10.5 28.5v107q0 9 6 15t15 6q3 0 11 -3l375 -170q14 -7 21.5 -16.5t7.5 -25.5v-42q0 -16 -7.5 -25.5t-21.5 -16.5l-375 -170q-8 -3 -11 -3q-9 0 -15 6t-6 15v107q0 17 10.5 28.5t21.5 15.5l160 64zM91 0q-11 0 -19 8t-8 19v101q0 11 8 19t19 8
h382q11 0 19 -8t8 -19v-101q0 -11 -8 -19t-19 -8h-382z" />
    <glyph glyph-name="question" unicode="?" horiz-adv-x="604" 
d="M392 27q0 -11 -8 -19t-19 -8h-126q-11 0 -19 8t-8 19v101q0 11 8 19t19 8h126q11 0 19 -8t8 -19v-101zM305 710q56 0 105.5 -15.5t86 -43t57.5 -65t21 -82.5q0 -36 -12 -63t-30.5 -49t-40.5 -39.5t-42.5 -34.5t-37 -35.5t-22.5 -40.5q-3 -11 -9.5 -19t-17.5 -8h-122
q-11 0 -19 8t-8 19q0 33 13.5 59t33.5 47.5t43.5 39.5t43.5 34.5t33.5 33.5t13.5 37q0 29 -22 45.5t-68 16.5q-45 0 -64.5 -13.5t-28.5 -29.5t-15.5 -29.5t-25.5 -13.5h-122q-9 0 -15.5 6t-6.5 16q1 35 20 73.5t54.5 71t86.5 53.5t117 21z" />
    <glyph glyph-name="asciicircum" unicode="^" horiz-adv-x="468" 
d="M278 755q11 0 19 -4t18 -15l102 -112q5 -5 5 -13q0 -16 -16 -16h-67q-10 0 -16 3t-15 8l-74 43l-74 -43q-9 -5 -15 -8t-16 -3h-67q-16 0 -16 16q0 8 5 13l102 112q10 11 18 15t19 4h88z" />
    <glyph glyph-name="underscore" unicode="_" horiz-adv-x="737" 
d="M71 -77q-11 0 -19 8t-8 19v101q0 11 8 19t19 8h595q11 0 19 -8t8 -19v-101q0 -11 -8 -19t-19 -8h-595z" />
    <glyph glyph-name="bar" unicode="|" horiz-adv-x="302" 
d="M241 -181q0 -11 -8 -19t-19 -8h-126q-11 0 -19 8t-8 19v1050q0 11 8 19t19 8h126q11 0 19 -8t8 -19v-1050z" />
    <glyph glyph-name="brokenbar" unicode="&#xa6;" horiz-adv-x="306" 
d="M243 502q0 -11 -8 -19t-19 -8h-126q-11 0 -19 8t-8 19v300q0 11 8 19t19 8h126q11 0 19 -8t8 -19v-300zM243 27q0 -11 -8 -19t-19 -8h-126q-11 0 -19 8t-8 19v300q0 11 8 19t19 8h126q11 0 19 -8t8 -19v-300z" />
    <glyph glyph-name="percent" unicode="%" horiz-adv-x="847" 
d="M348 563q3 -40 0 -76q-2 -30 -11.5 -55.5t-29 -45t-48.5 -30.5t-68 -11t-68 11t-48 30.5t-29 45t-12 55.5q-2 20 -2 37.5t2 38.5q2 30 12 55.5t29 45t48 30.5t68 11t68 -11t48 -30.5t29 -45t12 -55.5zM150 492q2 -26 10.5 -39t30.5 -13t30.5 13t10.5 39q3 33 0 66
q-2 26 -10.5 39t-30.5 13t-30.5 -13t-10.5 -39q-3 -33 0 -66zM812 213q3 -40 0 -76q-2 -30 -11.5 -55.5t-29 -45t-48.5 -30.5t-68 -11t-68 11t-48 30.5t-29 45t-12 55.5q-2 20 -2 37.5t2 38.5q2 30 12 55.5t29 45t48 30.5t68 11t68 -11t48 -30.5t29 -45t12 -55.5zM614 142
q2 -26 10.5 -39t30.5 -13t30.5 13t10.5 39q3 33 0 66q-2 26 -10.5 39t-30.5 13t-30.5 -13t-10.5 -39q-3 -33 0 -66zM598 681q7 9 14.5 14t21.5 5h82q11 0 17.5 -5.5t6.5 -14.5q0 -2 -1 -5t-3 -6l-494 -650q-7 -9 -14.5 -14t-21.5 -5h-82q-11 0 -17.5 5.5t-6.5 14.5q0 2 1 5
t3 6z" />
    <glyph glyph-name="perthousand" unicode="&#x2030;" horiz-adv-x="1201" 
d="M348 563q3 -40 0 -76q-2 -30 -11.5 -55.5t-29 -45t-48.5 -30.5t-68 -11t-68 11t-48 30.5t-29 45t-12 55.5q-2 20 -2 37.5t2 38.5q2 30 12 55.5t29 45t48 30.5t68 11t68 -11t48 -30.5t29 -45t12 -55.5zM150 492q2 -26 10.5 -39t30.5 -13t30.5 13t10.5 39q3 33 0 66
q-2 26 -10.5 39t-30.5 13t-30.5 -13t-10.5 -39q-3 -33 0 -66zM812 213q3 -40 0 -76q-2 -30 -11.5 -55.5t-29 -45t-48.5 -30.5t-68 -11t-68 11t-48 30.5t-29 45t-12 55.5q-2 20 -2 37.5t2 38.5q2 30 12 55.5t29 45t48 30.5t68 11t68 -11t48 -30.5t29 -45t12 -55.5zM614 142
q2 -26 10.5 -39t30.5 -13t30.5 13t10.5 39q3 33 0 66q-2 26 -10.5 39t-30.5 13t-30.5 -13t-10.5 -39q-3 -33 0 -66zM598 681q7 9 14.5 14t21.5 5h82q11 0 17.5 -5.5t6.5 -14.5q0 -2 -1 -5t-3 -6l-494 -650q-7 -9 -14.5 -14t-21.5 -5h-82q-11 0 -17.5 5.5t-6.5 14.5q0 2 1 5
t3 6zM1170 213q3 -40 0 -76q-2 -30 -11.5 -55.5t-29 -45t-48.5 -30.5t-68 -11t-68 11t-48 30.5t-29 45t-12 55.5q-2 20 -2 37.5t2 38.5q2 30 12 55.5t29 45t48 30.5t68 11t68 -11t48 -30.5t29 -45t12 -55.5zM972 142q2 -26 10.5 -39t30.5 -13t30.5 13t10.5 39q3 33 0 66
q-2 26 -10.5 39t-30.5 13t-30.5 -13t-10.5 -39q-3 -33 0 -66z" />
    <glyph glyph-name="ellipsis" unicode="&#x2026;" horiz-adv-x="797" 
d="M491 27q0 -11 -8 -19t-19 -8h-131q-11 0 -19 8t-8 19v131q0 11 8 19t19 8h131q11 0 19 -8t8 -19v-131zM236 27q0 -11 -8 -19t-19 -8h-131q-11 0 -19 8t-8 19v131q0 11 8 19t19 8h131q11 0 19 -8t8 -19v-131zM746 27q0 -11 -8 -19t-19 -8h-131q-11 0 -19 8t-8 19v131
q0 11 8 19t19 8h131q11 0 19 -8t8 -19v-131z" />
    <glyph glyph-name="asciitilde" unicode="~" horiz-adv-x="562" 
d="M172 399q37 0 63 -6.5t49.5 -14.5t48.5 -14.5t60 -6.5q23 0 41 9.5t26 16.5q4 3 8.5 5.5t11.5 3.5q14 0 18 -9t4 -28v-73q0 -33 -29.5 -56.5t-80.5 -23.5q-37 0 -63 6.5t-49.5 14.5t-48.5 14.5t-60 6.5q-23 0 -41 -9.5t-26 -16.5q-4 -3 -8.5 -5.5t-11.5 -3.5q-14 0 -18 9
t-4 28v73q0 33 29.5 56.5t80.5 23.5z" />
    <glyph glyph-name="dagger" unicode="&#x2020;" horiz-adv-x="518" 
d="M349 369v-342q0 -11 -8 -19t-19 -8h-126q-11 0 -19 8t-8 19v342h-112q-11 0 -19 8t-8 19v101q0 11 8 19t19 8h112v149q0 11 8 19t19 8h126q11 0 19 -8t8 -19v-149h112q11 0 19 -8t8 -19v-101q0 -11 -8 -19t-19 -8h-112z" />
    <glyph glyph-name="daggerdbl" unicode="&#x2021;" horiz-adv-x="558" 
d="M369 144v-117q0 -11 -8 -19t-19 -8h-126q-11 0 -19 8t-8 19v117h-112q-11 0 -19 8t-8 19v101q0 11 8 19t19 8h112v112h-112q-11 0 -19 8t-8 19v101q0 11 8 19t19 8h112v107q0 11 8 19t19 8h126q11 0 19 -8t8 -19v-107h112q11 0 19 -8t8 -19v-101q0 -11 -8 -19t-19 -8
h-112v-112h112q11 0 19 -8t8 -19v-101q0 -11 -8 -19t-19 -8h-112z" />
    <glyph glyph-name="minus" unicode="&#x2212;" horiz-adv-x="652" 
d="M89 223q-11 0 -19 8t-8 19v101q0 11 8 19t19 8h474q11 0 19 -8t8 -19v-101q0 -11 -8 -19t-19 -8h-474z" />
    <glyph glyph-name="bullet" unicode="&#x2022;" horiz-adv-x="394" 
d="M67 300q0 27 10 50.5t28 41.5t41.5 28t50.5 10t50.5 -10t41.5 -28t28 -41.5t10 -50.5t-10 -50.5t-28 -41.5t-41.5 -28t-50.5 -10t-50.5 10t-41.5 28t-28 41.5t-10 50.5z" />
    <glyph glyph-name="trademark" unicode="&#x2122;" horiz-adv-x="659" 
d="M41 678q0 22 22 22h192q22 0 22 -22v-42q0 -22 -22 -22h-52v-158q0 -22 -22 -22h-44q-22 0 -22 22v158h-52q-22 0 -22 22v42zM502 679q4 6 10 13.5t17 7.5h44q22 0 22 -22v-222q0 -22 -22 -22h-44q-22 0 -22 22v93l-16 -27q-5 -8 -11 -16t-15 -8h-28q-9 0 -15 8t-11 16
l-16 27v-93q0 -22 -22 -22h-44q-22 0 -22 22v222q0 22 22 22h44q11 0 17 -7.5t10 -13.5l51 -82z" />
    <glyph glyph-name="section" unicode="&#xa7;" horiz-adv-x="618" 
d="M587 265q0 -50 -19.5 -84t-57.5 -60q11 -17 17 -37t6 -43q0 -36 -15 -69t-44 -57.5t-72 -39.5t-100 -15q-64 0 -109 15.5t-74 38t-43 48.5t-15 46q-1 11 6 19t16 8h124q11 0 18 -6.5t16 -14t23 -13.5t38 -6q20 0 35.5 12t15.5 30q0 12 -7.5 21.5t-25 18.5t-46.5 19
t-73 24q-44 13 -76 33.5t-53 45.5t-31 52t-10 54q0 50 19 83.5t57 60.5q-22 35 -22 80q0 36 15 69t44 57.5t72 39.5t100 15q64 0 109 -15.5t74 -38t43 -48.5t15 -46q1 -11 -6 -19t-16 -8h-124q-11 0 -18 6t-16 13.5t-23 14t-38 6.5q-20 0 -35.5 -12t-15.5 -30
q0 -12 7.5 -21.5t25 -18.5t46.5 -19.5t73 -23.5q44 -14 76 -34t53 -45t31 -52t10 -54zM207 311q0 -11 5 -20t18 -18t35.5 -18t57.5 -19q14 -5 28 -9.5t28 -9.5q14 8 23 18.5t9 23.5q0 11 -5 20t-18 18t-35.5 17.5t-57.5 19.5q-14 4 -28 8.5t-28 10.5q-14 -9 -23 -19t-9 -23z
" />
    <glyph glyph-name="copyright" unicode="&#xa9;" horiz-adv-x="806" 
d="M403 445q-27 0 -38 -15.5t-13 -44.5q-1 -15 -1 -34t1 -34q2 -29 13 -44.5t38 -15.5q14 0 26.5 7t20.5 22q3 6 8.5 13.5t17.5 7.5h80q22 0 22 -22q0 -18 -12 -40t-34.5 -41.5t-55 -32.5t-73.5 -13q-39 0 -71 11.5t-54.5 32.5t-35.5 50t-14 65q-1 15 -1 34t1 34q1 36 14 65
t36 50t54.5 32.5t70.5 11.5q41 0 73.5 -13t55 -32.5t34.5 -41.5t12 -40q0 -22 -22 -22h-80q-12 0 -17.5 7.5t-8.5 13.5q-8 15 -20.5 22t-26.5 7zM43 350q0 75 28.5 140.5t77 114t114 77t140.5 28.5t140.5 -28.5t114 -77t77 -114t28.5 -140.5t-28.5 -140.5t-77 -114t-114 -77
t-140.5 -28.5t-140.5 28.5t-114 77t-77 114t-28.5 140.5zM138 350q0 -56 20.5 -105t56 -86t84 -58t104.5 -21t104.5 21t84 58t56 86t20.5 105t-20.5 105t-56 86t-84 58t-104.5 21t-104.5 -21t-84 -58t-56 -86t-20.5 -105z" />
    <glyph glyph-name="ordfeminine" unicode="&#xaa;" horiz-adv-x="356" 
d="M158 499q24 0 35 15t11 29v6l-27 -6q-25 -5 -33 -12t-8 -17q0 -6 5 -10.5t17 -4.5zM231 434q-22 0 -22 22v7q-8 -14 -26 -24t-45 -10q-44 0 -74.5 21.5t-30.5 58.5q0 40 35 61.5t93 31.5l43 7q0 8 -4 17t-23 9q-8 0 -13 -2.5t-9.5 -5.5t-10 -5.5t-13.5 -2.5h-53
q-10 0 -16.5 3.5t-5.5 13.5q1 7 8 19t21.5 23t37 19t55.5 8q69 0 99 -30t30 -78v-141q0 -22 -22 -22h-54z" />
    <glyph glyph-name="registered" unicode="&#xae;" horiz-adv-x="806" 
d="M273 168q-22 0 -22 22v322q0 22 22 22h169q32 0 55.5 -10t38.5 -26.5t22 -38.5t7 -47q0 -32 -11.5 -60t-35.5 -47l53 -101q4 -6 4 -14t-5.5 -15t-16.5 -7h-78q-20 0 -29 19l-46 95h-30v-92q0 -22 -22 -22h-75zM370 376h37q20 0 29.5 9.5t9.5 24.5t-9.5 25t-29.5 10h-37
v-69zM43 350q0 75 28.5 140.5t77 114t114 77t140.5 28.5t140.5 -28.5t114 -77t77 -114t28.5 -140.5t-28.5 -140.5t-77 -114t-114 -77t-140.5 -28.5t-140.5 28.5t-114 77t-77 114t-28.5 140.5zM138 350q0 -56 20.5 -105t56 -86t84 -58t104.5 -21t104.5 21t84 58t56 86
t20.5 105t-20.5 105t-56 86t-84 58t-104.5 21t-104.5 -21t-84 -58t-56 -86t-20.5 -105z" />
    <glyph glyph-name="degree" unicode="&#xb0;" horiz-adv-x="422" 
d="M135 534q0 -34 21 -55t55 -21t55 21t21 55t-21 55t-55 21t-55 -21t-21 -55zM30 534q0 37 14 69.5t39 56t57.5 37t70.5 13.5q37 0 70 -13.5t58 -37t39 -56t14 -69.5q0 -38 -14 -70t-39 -55.5t-58 -37t-70 -13.5q-38 0 -70.5 13.5t-57.5 37t-39 55.5t-14 70z" />
    <glyph glyph-name="mu" unicode="&#xb5;" horiz-adv-x="656" 
d="M62 483v3v7q0 11 8 19t19 8h126q11 0 19 -8t8 -19v-262q1 -39 17.5 -62.5t59.5 -23.5q45 0 70.5 26t25.5 69v253q0 11 8 19t19 8h126q11 0 19 -8t8 -19v-466q0 -11 -8 -19t-19 -8h-121q-11 0 -19 8t-8 19v23q-8 -11 -20 -21.5t-29 -19t-39.5 -14t-52.5 -5.5
q-10 0 -19 0.5t-18 1.5v-165q0 -11 -8 -19t-19 -8h-126q-11 0 -19 8t-8 19v379v12v265z" />
    <glyph glyph-name="paragraph" unicode="&#xb6;" horiz-adv-x="620" 
d="M27 508q0 40 15 75t41 61t61 41t75 15h306q11 0 19 -8t8 -19v-746q0 -11 -8 -19t-19 -8h-73q-11 0 -19 8t-8 19v656h-79v-656q0 -11 -8 -19t-19 -8h-73q-11 0 -19 8t-8 19v389q-40 0 -75 15t-61 41t-41 61t-15 75z" />
    <glyph glyph-name="ordmasculine" unicode="&#xba;" horiz-adv-x="352" 
d="M176 705q25 0 49.5 -7t44 -21.5t32 -35t14.5 -47.5q1 -8 1 -27t-1 -27q-2 -27 -13.5 -47.5t-31 -35t-44 -21.5t-51.5 -7t-51.5 7t-44 21.5t-31.5 35t-13 47.5q-1 8 -1 27t1 27q1 27 14 47.5t32.5 35t44 21.5t49.5 7zM176 629q-13 0 -20 -8.5t-9 -31.5q-1 -8 -1 -22t1 -22
q2 -25 9 -32.5t20 -7.5t20 7.5t9 32.5q1 8 1 22t-1 22q-2 23 -9 31.5t-20 8.5z" />
    <glyph glyph-name="multiply" unicode="&#xd7;" horiz-adv-x="622" 
d="M184 332l-129 130q-8 8 -8 19t8 19l89 89q8 8 19 8t19 -8l129 -130l129 129q8 8 19 8t19 -8l89 -89q8 -8 8 -19t-8 -19l-129 -129l129 -128q8 -8 8 -19t-8 -19l-89 -89q-8 -8 -19 -8t-19 8l-129 128l-129 -129q-8 -8 -19 -8t-19 8l-89 89q-8 8 -8 19t8 19z" />
    <glyph glyph-name="divide" unicode="&#xf7;" horiz-adv-x="527" 
d="M325 586q11 0 19 -8t8 -19v-114q0 -11 -8 -19t-19 -8h-124q-11 0 -19 8t-8 19v114q0 11 8 19t19 8h124zM325 182q11 0 19 -8t8 -19v-114q0 -11 -8 -19t-19 -8h-124q-11 0 -19 8t-8 19v114q0 11 8 19t19 8h124zM66 223q-11 0 -19 8t-8 19v101q0 11 8 19t19 8h395
q11 0 19 -8t8 -19v-101q0 -11 -8 -19t-19 -8h-395z" />
    <glyph glyph-name="thorn" unicode="&#xfe;" horiz-adv-x="635" 
d="M373 -10q-29 0 -51 6t-38 15t-27 19.5t-18 19.5v-213q0 -11 -8 -19t-19 -8h-126q-11 0 -19 8t-8 19v846q0 11 8 19t19 8h126q11 0 19 -8t8 -19v-213q8 10 18.5 20.5t26.5 19.5t37.5 14.5t51.5 5.5q45 0 85 -13.5t70 -42t48.5 -71.5t20.5 -102q1 -15 1 -40.5t-1 -40.5
q-2 -59 -20.5 -102t-48.5 -71.5t-70 -42.5t-85 -14zM418 232q3 28 0 56q-3 35 -23 61t-67 26q-22 0 -38 -7t-26.5 -18.5t-16.5 -25.5t-8 -29t-2 -35t2 -35t8 -29t16.5 -25.5t26.5 -18.5t38 -7q47 0 67 26t23 61z" />
    <glyph glyph-name="afii61352" unicode="&#x2116;" horiz-adv-x="1276" 
d="M682 368q0 59 19.5 105t55.5 78t86 49t111 17t111 -17t86 -49t55.5 -78t19.5 -105t-19.5 -105.5t-55.5 -78.5t-86 -49t-111 -17t-111 17t-86 49t-55.5 78.5t-19.5 105.5zM1199 88q11 0 19 -8t8 -19v-34q0 -11 -8 -19t-19 -8h-490q-11 0 -19 8t-8 19v34q0 11 8 19t19 8
h490zM1046 368q0 50 -27 72t-65 22t-65 -22t-27 -72t27 -73t65 -23t65 23t27 73zM521 0q-17 0 -27.5 9t-13.5 14l-229 342v-338q0 -11 -8 -19t-19 -8h-131q-11 0 -19 8t-8 19v646q0 11 8 19t19 8h104q17 0 27.5 -9t13.5 -14l229 -342v338q0 11 8 19t19 8h131q11 0 19 -8
t8 -19v-646q0 -11 -8 -19t-19 -8h-104z" />
    <glyph glyph-name="uni2206" unicode="&#x2206;" horiz-adv-x="708" 
d="M412 660q20 0 30 -11t15 -22l218 -525q2 -6 4 -11t2 -19v-45q0 -11 -8 -19t-19 -8h-600q-11 0 -19 8t-8 19v45q0 14 2 19t4 11l218 525q5 11 15 22t30 11h116zM481 155l-127 306l-127 -306h254z" />
    <glyph glyph-name="product" unicode="&#x220f;" horiz-adv-x="703" 
d="M637 -173q0 -11 -8 -19t-19 -8h-126q-11 0 -19 8t-8 19v718h-211v-718q0 -11 -8 -19t-19 -8h-126q-11 0 -19 8t-8 19v846q0 11 8 19t19 8h517q11 0 19 -8t8 -19v-846z" />
    <glyph glyph-name="summation" unicode="&#x2211;" horiz-adv-x="635" 
d="M581 237q0 -16 -13 -30.5t-27 -28.5l-244 -224h257q11 0 19 -8t8 -19v-101q0 -11 -8 -19t-19 -8h-484q-11 0 -19 8t-8 19v101q0 14 5 24.5t13 17.5l301 281l-301 280q-8 7 -13 17.5t-5 24.5v101q0 11 8 19t19 8h484q11 0 19 -8t8 -19v-101q0 -11 -8 -19t-19 -8h-257
l244 -224q14 -14 27 -28.5t13 -30.5v-25z" />
    <glyph glyph-name="radical" unicode="&#x221a;" horiz-adv-x="780" 
d="M733 860q11 0 19 -8t8 -19v-101q0 -11 -8 -19t-19 -8h-137l-217 -680q-4 -11 -11 -18t-22 -7h-134q-15 0 -22 7t-11 18l-162 464q-1 3 -1 7q0 10 7 17t17 7h116q15 0 22.5 -8t10.5 -16l88 -251l186 591q3 8 10.5 16t22.5 8h237z" />
    <glyph glyph-name="infinity" unicode="&#x221e;" horiz-adv-x="922" 
d="M461 391q21 23 40 41.5t40.5 32t48 21t62.5 7.5q54 0 96 -18.5t70.5 -49.5t43.5 -71t15 -83t-15 -83t-43.5 -71t-70.5 -49.5t-96 -18.5q-36 0 -62.5 7.5t-48 21t-40.5 32t-40 41.5q-21 -23 -40 -41.5t-40.5 -32t-48 -21t-62.5 -7.5q-54 0 -96 18.5t-70.5 49.5t-43.5 71
t-15 83t15 83t43.5 71t70.5 49.5t96 18.5q36 0 62.5 -7.5t48 -21t40.5 -32t40 -41.5zM270 183q26 0 54 19t62 69q-34 50 -62 69t-54 19q-28 0 -51.5 -21t-23.5 -67t23.5 -67t51.5 -21zM652 183q28 0 51.5 21t23.5 67t-23.5 67t-51.5 21q-26 0 -54 -19t-62 -69q34 -50 62 -69
t54 -19z" />
    <glyph glyph-name="integral" unicode="&#x222b;" horiz-adv-x="531" 
d="M176 542q0 46 15 83t42 62.5t65.5 39t85.5 13.5h100q11 0 19 -8t8 -19v-101q0 -11 -8 -19t-19 -8h-85q-24 0 -33.5 -14.5t-9.5 -33.5v-539q0 -46 -15 -83t-42 -62.5t-65.5 -39t-85.5 -13.5h-100q-11 0 -19 8t-8 19v101q0 11 8 19t19 8h85q24 0 33.5 14.5t9.5 33.5v539z
" />
    <glyph glyph-name="lozenge" unicode="&#x25ca;" horiz-adv-x="608" 
d="M26 355q0 15 8 28l173 294q6 10 18 21.5t32 11.5h94q20 0 32 -11.5t18 -21.5l173 -294q8 -13 8 -28t-8 -28l-173 -294q-6 -10 -18 -21.5t-32 -11.5h-94q-20 0 -32 11.5t-18 21.5l-173 294q-8 13 -8 28zM304 528l-101 -173l101 -173l101 173z" />
    <glyph glyph-name="caron" unicode="&#x2c7;" horiz-adv-x="496" 
d="M204 595q-11 0 -19 4t-18 15l-102 112q-5 5 -5 13q0 16 16 16h67q10 0 16 -3t15 -8l74 -43l74 43q9 5 15 8t16 3h67q16 0 16 -16q0 -8 -5 -13l-102 -112q-10 -11 -18 -15t-19 -4h-88z" />
    <glyph glyph-name="alefhebrew" unicode="&#x5d0;" horiz-adv-x="605" 
d="M556 399q0 -66 -25 -118.5t-70 -85.5l102 -161q3 -5 3 -10q0 -10 -7 -17t-17 -7h-144q-11 0 -19 8t-13 16l-129 203q-8 -24 -8 -52v-148q0 -11 -8 -19t-19 -8h-126q-11 0 -19 8t-8 19v153q0 65 24 117t67 85l-98 155q-2 2 -2.5 5t-0.5 5q0 10 7 17t17 7h146
q12 0 18.5 -7.5t11.5 -15.5l126 -200q11 25 11 57v139q0 11 8 19t19 8h126q11 0 19 -8t8 -19v-145z" />
    <glyph glyph-name="bethebrew" unicode="&#x5d1;" horiz-adv-x="600" 
d="M72 416q-11 0 -19 8t-8 19v101q0 11 8 19t19 8h178q63 0 113 -17t85 -48.5t53.5 -77t18.5 -102.5v-171h14q11 0 19 -8t8 -19v-101q0 -11 -8 -19t-19 -8h-472q-11 0 -19 8t-8 19v101q0 11 8 19t19 8h278v166q0 95 -95 95h-173v0z" />
    <glyph glyph-name="gimelhebrew" unicode="&#x5d2;" horiz-adv-x="563" 
d="M26 39q0 50 15.5 94.5t45.5 78.5t74 53.5t101 19.5h10v46q0 46 -20.5 70.5t-66.5 24.5h-103q-11 0 -19 8t-8 19v101q0 11 8 19t19 8h103q133 0 200 -67.5t67 -182.5v-82l93 -218q1 -3 1 -7q0 -10 -7 -17t-17 -7h-133q-12 0 -19 8t-10 16l-45 106h-23q-38 0 -62 -26.5
t-24 -64.5v-12q0 -11 -8 -19t-19 -8h-126q-11 0 -19 8t-8 19v12v0z" />
    <glyph glyph-name="dalethebrew" unicode="&#x5d3;" horiz-adv-x="529" 
d="M483 571q11 0 19 -8t8 -19v-101q0 -11 -8 -19t-19 -8h-65v-389q0 -11 -8 -19t-19 -8h-126q-11 0 -19 8t-8 19v389h-197q-11 0 -19 8t-8 19v101q0 11 8 19t19 8h442z" />
    <glyph glyph-name="hehebrew" unicode="&#x5d4;" horiz-adv-x="650" 
d="M60 544q0 11 8 19t19 8h236q138 0 205.5 -60t67.5 -188v-296q0 -11 -8 -19t-19 -8h-126q-11 0 -19 8t-8 19v291q0 51 -22.5 74.5t-75.5 23.5h-231q-11 0 -19 8t-8 19v101zM240 27q0 -11 -8 -19t-19 -8h-126q-11 0 -19 8t-8 19v321q0 11 8 19t19 8h126q11 0 19 -8t8 -19
v-321z" />
    <glyph glyph-name="vavhebrew" unicode="&#x5d5;" horiz-adv-x="300" 
d="M240 27q0 -11 -8 -19t-19 -8h-126q-11 0 -19 8t-8 19v517q0 11 8 19t19 8h126q11 0 19 -8t8 -19v-517z" />
    <glyph glyph-name="zayinhebrew" unicode="&#x5d6;" horiz-adv-x="483" 
d="M15 544q0 11 8 19t19 8h395q11 0 19 -8t8 -19v-101q0 -11 -8 -19t-19 -8h-25q-24 0 -33.5 -14.5t-9.5 -33.5v-341q0 -11 -8 -19t-19 -8h-126q-11 0 -19 8t-8 19v314q0 6 0.5 16.5t2.5 21t6 21t11 16.5h-167q-11 0 -19 8t-8 19v101v0z" />
    <glyph glyph-name="hethebrew" unicode="&#x5d7;" horiz-adv-x="661" 
d="M454 0q-11 0 -19 8t-8 19v290q0 49 -22.5 74t-71.5 25h-93v-389q0 -11 -8 -19t-19 -8h-126q-11 0 -19 8t-8 19v517q0 11 8 19t19 8h251q133 0 201 -61t68 -183v-300q0 -11 -8 -19t-19 -8h-126v0z" />
    <glyph glyph-name="tethebrew" unicode="&#x5d8;" horiz-adv-x="649" 
d="M608 342q0 -11 0.5 -27t0.5 -32.5t-0.5 -32t-0.5 -26.5q-2 -54 -19 -97.5t-51 -73.5t-85.5 -46.5t-121.5 -16.5t-122 18t-86.5 50t-51.5 77t-17 99v310q0 11 8 19t19 8h126q11 0 19 -8t8 -19v-305q0 -48 21.5 -71t75.5 -23q53 0 74 18.5t23 65.5q1 23 1 51.5t-1 51.5
q-1 27 -6 45t-16.5 29t-30.5 15.5t-47 4.5h-14q-11 0 -19 8t-8 19v101q0 11 8 19t19 8h14q140 0 207.5 -58t72.5 -181z" />
    <glyph glyph-name="yodhebrew" unicode="&#x5d9;" horiz-adv-x="300" 
d="M240 267q0 -11 -8 -19t-19 -8h-126q-11 0 -19 8t-8 19v277q0 11 8 19t19 8h126q11 0 19 -8t8 -19v-277z" />
    <glyph glyph-name="finalkafhebrew" unicode="&#x5da;" horiz-adv-x="533" 
d="M483 571q11 0 19 -8t8 -19v-101q0 -11 -8 -19t-19 -8h-60v-513q0 -11 -8 -19t-19 -8h-126q-11 0 -19 8t-8 19v513h-202q-11 0 -19 8t-8 19v101q0 11 8 19t19 8h442z" />
    <glyph glyph-name="kafhebrew" unicode="&#x5db;" horiz-adv-x="542" 
d="M235 571q66 0 115 -18t82 -51t50.5 -79t21.5 -101q2 -23 2 -36.5t-2 -36.5q-4 -55 -21.5 -101t-50.5 -79t-82 -51t-115 -18h-168q-11 0 -19 8t-8 19v101q0 11 8 19t19 8h163q49 0 70 22.5t24 71.5q2 23 2 36.5t-2 36.5q-3 49 -24 71.5t-70 22.5h-163q-11 0 -19 8t-8 19
v101q0 11 8 19t19 8h168z" />
    <glyph glyph-name="lamedhebrew" unicode="&#x5dc;" horiz-adv-x="547" 
d="M311 416h-269q-11 0 -19 8t-8 19v240q0 11 8 19t19 8h126q11 0 19 -8t8 -19v-112h269q11 0 19 -8t8 -19v-361q0 -44 -15 -80t-41.5 -61t-64 -38.5t-82.5 -13.5h-45q-11 0 -19 8t-8 19v101q0 11 8 19t19 8h25q24 0 33.5 12t9.5 31v228z" />
    <glyph glyph-name="finalmemhebrew" unicode="&#x5dd;" horiz-adv-x="630" 
d="M307 571q60 0 110 -17t85 -48.5t54.5 -76.5t19.5 -102v-300q0 -11 -8 -19t-19 -8h-462q-11 0 -19 8t-8 19v517q0 11 8 19t19 8h220zM240 155h156v167q0 49 -22.5 71.5t-71.5 22.5h-62v-261z" />
    <glyph glyph-name="memhebrew" unicode="&#x5de;" horiz-adv-x="694" 
d="M460 155v167q0 49 -22.5 71.5t-71.5 22.5h-11l-139 -392q-3 -8 -10 -16t-19 -8h-129q-10 0 -17 7t-7 17q0 4 1 7l136 385h-100q-11 0 -19 8t-8 19v101q0 11 8 19t19 8h300q131 0 200 -62t69 -182v-300q0 -11 -8 -19t-19 -8h-201q-11 0 -19 8t-8 19v101q0 11 8 19t19 8h48
z" />
    <glyph glyph-name="finalnunhebrew" unicode="&#x5df;" horiz-adv-x="300" 
d="M240 -97q0 -11 -8 -19t-19 -8h-126q-11 0 -19 8t-8 19v641q0 11 8 19t19 8h126q11 0 19 -8t8 -19v-641z" />
    <glyph glyph-name="nunhebrew" unicode="&#x5e0;" horiz-adv-x="457" 
d="M122 581q68 0 120.5 -13t88 -42.5t53.5 -76t18 -113.5v-309q0 -11 -8 -19t-19 -8h-312q-11 0 -19 8t-8 19v101q0 11 8 19t19 8h159v176q0 27 -5 45t-17 29t-32.5 16t-50.5 5h-44q-11 0 -19 8t-8 19v101q0 11 8 19t19 8h49v0z" />
    <glyph glyph-name="samekhhebrew" unicode="&#x5e1;" horiz-adv-x="609" 
d="M313 571q66 0 113.5 -15t78 -45.5t46 -76.5t17.5 -107q1 -23 1 -51.5t-1 -51.5q-2 -54 -16 -97.5t-44 -73.5t-78.5 -46.5t-118.5 -16.5t-119 18t-79.5 50t-44.5 77t-14 99v310q0 11 8 19t19 8h232zM388 322q-1 27 -3 45t-9.5 29t-23.5 15.5t-44 4.5h-74v-177
q0 -24 2 -41.5t10 -29t23 -17.5t42 -6t41.5 4.5t22 14t10 25.5t3.5 40q2 46 0 93z" />
    <glyph glyph-name="ayinhebrew" unicode="&#x5e2;" horiz-adv-x="660" 
d="M198 571q12 0 19 -8t10 -16l133 -391q38 6 52 28t14 65v295q0 11 8 19t19 8h126q11 0 19 -8t8 -19v-300q0 -57 -18.5 -102.5t-53.5 -77t-85 -48t-112 -16.5h-276q-11 0 -19 8t-8 19v101q0 11 8 19t19 8h116l-130 384q-1 3 -1 8q0 10 7 17t17 7h128v0z" />
    <glyph glyph-name="finalpehebrew" unicode="&#x5e3;" horiz-adv-x="597" 
d="M283 571q123 0 191 -60t68 -169v-439q0 -11 -8 -19t-19 -8h-126q-11 0 -19 8t-8 19v434q0 42 -18.5 60.5t-60.5 18.5h-67v-79q0 -35 35 -35h19q11 0 19 -8t8 -19v-101q0 -11 -8 -19t-19 -8h-24q-101 0 -155.5 47t-54.5 138v212q0 11 8 19t19 8h220z" />
    <glyph glyph-name="finaltsadihebrew" unicode="&#x5e5;" horiz-adv-x="566" 
d="M540 426q0 -51 -13.5 -94.5t-38.5 -76.5t-61 -53.5t-81 -26.5l104 -268q1 -3 1 -7q0 -10 -7 -17t-17 -7h-131q-12 0 -19 8t-10 16l-249 640q-1 3 -1 7q0 10 7 17t17 7h131q12 0 19 -8t10 -16l85 -217q36 0 55 26.5t19 74.5v113q0 11 8 19t19 8h126q11 0 19 -8t8 -19v-118
z" />
    <glyph glyph-name="pehebrew" unicode="&#x5e4;" horiz-adv-x="615" 
d="M308 571q66 0 115 -18t82 -50.5t50.5 -77.5t21.5 -98q2 -23 2 -41.5t-2 -41.5q-4 -53 -21.5 -98t-50.5 -77.5t-82 -50.5t-115 -18h-168q-11 0 -19 8t-8 19v101q0 11 8 19t19 8h163q49 0 70 22.5t24 71.5q2 23 2 36.5t-2 36.5q-3 49 -24 71.5t-70 22.5h-92v-19
q0 -35 35 -35h19q11 0 19 -8t8 -19v-101q0 -11 -8 -19t-19 -8h-19q-105 0 -160 47t-55 138v152q0 11 8 19t19 8h250v0z" />
    <glyph glyph-name="tsadihebrew" unicode="&#x5e6;" horiz-adv-x="624" 
d="M581 426q0 -64 -18.5 -116t-64.5 -88l47 -58q6 -7 11 -15.5t5 -19.5v-102q0 -11 -8 -19t-19 -8h-467q-11 0 -19 8t-8 19v101q0 11 8 19t19 8h261l-302 377q-6 7 -6 15q0 10 7 17t17 7h160q9 0 14.5 -4.5t11.5 -12.5l151 -187q10 11 15 25t5 39v113q0 11 8 19t19 8h126
q11 0 19 -8t8 -19v-118z" />
    <glyph glyph-name="qofhebrew" unicode="&#x5e7;" horiz-adv-x="682" 
d="M60 544q0 11 8 19t19 8h512q11 0 19 -8t8 -19v-369q0 -91 -54.5 -138t-155.5 -47h-64q-11 0 -19 8t-8 19v101q0 11 8 19t19 8h59q35 0 35 35v236h-359q-11 0 -19 8t-8 19v101zM213 375q11 0 19 -8t8 -19v-512q0 -11 -8 -19t-19 -8h-126q-11 0 -19 8t-8 19v512q0 11 8 19
t19 8h126z" />
    <glyph glyph-name="reshhebrew" unicode="&#x5e8;" horiz-adv-x="524" 
d="M14 544q0 11 8 19t19 8h160q135 0 202 -63.5t67 -180.5v-300q0 -11 -8 -19t-19 -8h-126q-11 0 -19 8t-8 19v295q0 49 -22.5 71.5t-71.5 22.5h-155q-11 0 -19 8t-8 19v101v0z" />
    <glyph glyph-name="shinhebrew" unicode="&#x5e9;" horiz-adv-x="841" 
d="M465 571q11 0 19 -8t8 -19v-264q0 -50 -16 -84.5t-44 -50.5h133q18 0 29 11t11 29v359q0 11 8 19t19 8h126q11 0 19 -8t8 -19v-359q0 -98 -54.5 -146.5t-155.5 -48.5h-309q-101 0 -155.5 47t-54.5 138v369q0 11 8 19t19 8h126q11 0 19 -8t8 -19v-329q42 0 59 21.5
t17 63.5v244q0 11 8 19t19 8h126z" />
    <glyph glyph-name="tavhebrew" unicode="&#x5ea;" horiz-adv-x="725" 
d="M125 155v261h-53q-11 0 -19 8t-8 19v101q0 11 8 19t19 8h330q62 0 112 -17t85 -48.5t53.5 -76.5t18.5 -102v-300q0 -11 -8 -19t-19 -8h-126q-11 0 -19 8t-8 19v295q0 49 -22.5 71.5t-71.5 22.5h-92v-389q0 -11 -8 -19t-19 -8h-206q-11 0 -19 8t-8 19v101q0 11 8 19t19 8
h53z" />
    <glyph glyph-name="afii10017" unicode="&#x410;" 
d="M440 700q20 0 30.5 -11t14.5 -22l218 -630q4 -10 4 -15q0 -9 -6.5 -15.5t-15.5 -6.5h-126q-20 0 -28.5 8.5t-10.5 16.5l-28 83h-266l-28 -83q-2 -8 -10.5 -16.5t-28.5 -8.5h-126q-9 0 -15.5 6.5t-6.5 15.5q0 5 4 15l218 630q4 11 14.5 22t30.5 11h162zM278 263h162
l-81 240z" />
    <glyph glyph-name="afii10018" unicode="&#x411;" horiz-adv-x="665" 
d="M418 436q52 0 93 -17t68.5 -47t42 -69.5t14.5 -84.5t-14.5 -84.5t-42 -69.5t-68.5 -47t-93 -17h-321q-11 0 -19 8t-8 19v646q0 11 8 19t19 8h457q11 0 19 -8t8 -19v-106q0 -11 -8 -19t-19 -8h-299v-104h163zM451 218q0 25 -14.5 41.5t-53.5 16.5h-128v-116h128
q39 0 53.5 17t14.5 41z" />
    <glyph glyph-name="afii10019" unicode="&#x412;" horiz-adv-x="712" 
d="M97 0q-11 0 -19 8t-8 19v646q0 11 8 19t19 8h322q67 0 113 -18.5t73.5 -48t39.5 -67t12 -74.5q0 -29 -6.5 -50.5t-15.5 -37t-18.5 -25t-15.5 -14.5q39 -27 54.5 -62.5t15.5 -85.5q0 -41 -12 -80t-39.5 -69.5t-71.5 -49t-108 -18.5h-343zM471 488q0 26 -15.5 41.5
t-45.5 15.5h-155v-114h155q30 0 45.5 15.5t15.5 41.5zM255 155h165q30 0 48 17.5t18 43.5t-18 43.5t-48 17.5h-165v-122z" />
    <glyph glyph-name="afii10020" unicode="&#x413;" horiz-adv-x="607" 
d="M564 700q11 0 19 -8t8 -19v-106q0 -11 -8 -19t-19 -8h-309v-513q0 -11 -8 -19t-19 -8h-131q-11 0 -19 8t-8 19v646q0 11 8 19t19 8h467z" />
    <glyph glyph-name="afii10021" unicode="&#x414;" horiz-adv-x="785" 
d="M51 -110q-11 0 -19 8t-8 19v216q0 11 8 19t19 8h6q37 0 51.5 25.5t14.5 78.5v409q0 11 8 19t19 8h508q11 0 19 -8t8 -19v-513h32q11 0 19 -8t8 -19v-216q0 -11 -8 -19t-19 -8h-131q-11 0 -19 8t-8 19v83h-350v-83q0 -11 -8 -19t-19 -8h-131zM500 160v380h-192v-287
q0 -10 -0.5 -23t-2.5 -26.5t-5.5 -25t-9.5 -18.5h210z" />
    </font>
</defs>
</svg>
