<?xml version="1.0" standalone="no"?>
<!DOCTYPE svg PUBLIC "-//W3C//DTD SVG 1.1//EN" "http://www.w3.org/Graphics/SVG/1.1/DTD/svg11.dtd" >
<svg xmlns="http://www.w3.org/2000/svg" xmlns:xlink="http://www.w3.org/1999/xlink" version="1.1">
<metadata>
Created by FontForge 20170924 at Mon Mar 19 14:08:07 2012
 By Glenn,,,
Copyright (c) 2012 ProPublica. See LICENSE file for redistribution details.
</metadata>
<defs>
<font id="StateFace-Regular" horiz-adv-x="910" >
  <font-face 
    font-family="StateFace"
    font-weight="400"
    font-stretch="normal"
    units-per-em="1000"
    panose-1="0 0 5 0 0 0 0 0 0 0"
    ascent="800"
    descent="-200"
    x-height="614"
    cap-height="794"
    bbox="-376 -87 1350 813"
    underline-thickness="50"
    underline-position="-100"
    unicode-range="U+0020-007A"
  />
<missing-glyph horiz-adv-x="250" 
 />
    <glyph glyph-name=".notdef" horiz-adv-x="250" 
 />
    <glyph glyph-name="A" unicode="A" horiz-adv-x="1228" 
d="M-183 -27v3v-1v-2zM-180 -25l6 1l-3 2l-3 -2v-1zM-234 16l9 -21l2 -2l-2 4zM-249 29l3 -4h3l-3 2zM-166 -8l2 1l-2 2v-2v-1zM-95 -27h3h-6v-8h6zM-88 -30l-1 -5h3v5h-2zM-84 -30h-4l4 -5v5zM-138 -13l-10 5l4 -16l13 9zM-119 -25v8l-19 -5v-2zM-76 -30v3l-3 -3h6h-3z
M-102 -22l-4 4l-9 -17h13v13zM-81 -25v-2h2zM-238 29h5l-1 4l-4 -1v-3zM-207 16l7 1l-4 8l-8 -5zM-81 -24l-3 6l-2 -4l2 -3zM-259 47l1 3l-14 -3v-4zM-13 -40l-11 2l11 -8l17 -3l-11 3zM-297 80v2l-2 3v-3zM24 -43v3l-7 -3h4h3zM-21 -24l-43 -6l18 -8h17zM-353 117l-4 1h-7
l7 -6zM61 -46v3l-2 1l-3 -1zM78 -43v3l-7 -3h7zM-339 121v3v-3zM94 -42l5 2l-5 2l-3 -4h3zM106 -35l-7 -3l7 -4v7zM-361 152l-15 1l20 -18l-4 10zM107 -35l2 5h-2v-5zM163 -15l-39 -28l10 1l32 17zM218 -13l-5 -2v-3l3 1zM218 -8h3l-3 1v-1zM187 -25l-21 -2h30l20 20l-22 2
l7 -12zM245 -7h-4h-3l4 -1zM255 -7l-7 2l-3 -2l7 -1zM229 0l-4 2v-7h9zM238 2h-4l2 -7l5 2zM327 -5l-4 2v-2h4zM319 0l-3 2l3 -7v5zM408 7v2h-2v-2h2zM1144 101v-4l7 -3l-3 7h-4zM415 16v-6l3 2zM336 20v2v3l-6 -3zM1183 117v1l-6 -6h6v5zM294 32l-23 -5l-12 -18l52 3l-1 5
l-7 3l-2 12h-7zM415 20h-4v-4h4v4zM349 29h-5l2 -4l6 2zM1138 112v-7h1l5 2zM361 32h-4l4 -3v3zM411 25v4l-5 -9zM1131 110v-13l17 -8l-17 16v5zM354 32v1l-2 -1h2zM1177 124l-4 3l-4 1l2 -14zM401 27l-10 -2l-1 -13l14 13zM1122 114l-3 -2l2 -5l5 3zM396 32v1h-1v-1h1z
M388 36h-2l-3 -3l5 -4v7zM379 33v6l-5 -14l9 2zM1156 132l8 -11h2v7zM1114 117l-3 -7l6 -3l2 10h-5zM314 50h-3h3zM391 43l-3 -4l7 -3v3zM1117 118l2 3h-5v-3h3zM1121 121v3h-4zM1109 121v-4l2 1zM421 52v3h-3zM1109 135l2 -4l6 4h-8zM434 60h-5v-5h8zM1117 137l-3 -2h3v5
v-3zM1088 135l-2 -3l5 -1l1 4h-4zM522 50v5h-3l-5 -5h8zM1101 135l-3 2v-2h3zM1166 162l-10 -27l13 -4v14l11 -17v24zM489 62v1v-1zM1109 153l-7 -5v-11l9 8zM489 68v2v-2zM1129 162v5l-3 -10l18 -4l-5 9h-10zM1101 161l1 -8h7l10 -13l-2 -12l10 4l-1 -18l13 3l27 -21
l-10 28l-20 3l2 8l13 -3zM459 79v1l-2 -1h2zM1122 170l-5 -3l-3 -3l8 -2v8zM1136 170l-7 4l15 -12l2 3zM565 85l-4 2l-1 -2l5 -3v3zM481 89h-5l-2 -2h10zM551 89l-8 -10l8 6v2v2zM560 89l-4 -2l-3 -2h5zM149 137l1 -2h6zM1111 187l3 -15h5l3 7zM1084 179l-9 -5l16 -37l1 33z
M1084 192l11 -28l14 3l-11 19l13 -9l-2 15h-25zM585 117l-7 -5l3 -5l11 7zM146 167v3l-10 -3l4 -3zM1037 187h-8l5 -15l7 2zM566 131v1v3v-4zM1041 195l9 -28l13 -2l13 -22l-8 24l-14 25zM601 155l-2 -2l5 -1v1zM582 152l-6 3l-2 -2l8 -5v4zM595 153l1 2h-4v-2h3zM588 153
l-7 4l7 -9l-12 -11l-11 8l6 -24l-2 3l-4 4v7h-5l1 2l-3 3l-15 -13l13 -26l4 13h-11h20l-9 -18l25 31l14 -3l-8 8l18 3zM1007 216l-4 4l4 -14v6v4zM582 162l-4 -1l14 -4h-4l-3 5h-3zM617 165l2 2v3zM1021 230l-8 -10l-6 8l-1 -3l14 -13l-10 4v-10l19 -14l5 3l-10 14l29 -10
l-7 14l-26 7l24 -4v12l-20 -8zM595 170l-3 2h-1l1 -2h3zM1053 242h-3l-4 -2l10 -2zM1041 242l25 -40l-3 -20l16 21l-23 30l23 -17l-20 22zM595 170l-13 -6l13 -9l21 17l-20 7l-4 -5l3 -2v-5v3zM599 179l2 7v1l-5 -5zM406 195v2h-2zM404 197v2v-2zM391 197l5 6l-10 -8z
M604 202v1l-3 -4l6 3h-3zM643 222l3 3l-3 3l-2 -6h2zM578 220v5l-4 -3v-2h4zM654 230h-3v-2h3v2zM626 237v-4v4zM599 259l-3 3zM774 282v6l-5 -6h5zM277 298l-35 -1l29 -30l15 10zM739 284v-9l9 7v2l-4 -2zM609 271l7 6l-4 3l-5 -9h2zM133 327l-14 17l5 -12zM748 288l10 6v3
l-14 -13zM117 349l2 -2v2h-2zM704 297v-6l2 3zM701 291v6h-4v-3zM723 305h-2h-2l4 -3v3zM702 305l-1 -4l1 -3l2 3zM651 310v3v-3zM294 373v3v-3zM221 442v-1v1zM221 442v3l-3 2l3 -2v-3zM211 454l-2 3l-5 4l7 -9v2zM383 441h-4l-3 -4l7 -1v5zM202 472l-11 15l-7 -19l7 -7
l9 7h2l11 -14l-2 -4l10 -5l4 -9l20 9l-29 30zM288 560h1h-1zM294 560h2h-7h5zM303 562l7 3l1 3zM314 570l9 7h-2zM327 577l3 1zM330 578l6 2zM341 582l-4 -2h3zM341 582h3h-3zM344 582l10 4l2 1zM626 237l8 5l-6 -14l-12 -3l3 -12l17 3l7 17l16 5v8l7 -6v15l4 -13l3 22
l4 -15l19 8v15l10 8h-17l5 4l7 4l-15 10l20 24v-21l5 14l8 -10l22 12l-10 -12h15l-10 -7l12 4l-4 -5l17 1l-3 -7l-3 -3l14 -6l13 23l-3 -25l19 -8l61 8l5 8l3 -8l-1 -5l25 -3l18 22l16 -10l-7 -12l-7 19l-5 -24l93 -45l11 16l-19 17l-13 -6v13l25 -12l-4 16l11 -4l3 -25
l11 5l13 -5l-24 54l29 -45h8l9 -6l4 19v-22l8 3l8 -15v7h9h-9l19 -12l-3 -4l-14 6l-2 -2l19 -8v-3l-3 -6l-7 -1v-5l21 2l13 -17l33 -12v-3l-11 -3l4 -29l21 35l22 -35l-5 -8l8 13l-3 -28l15 15l-15 50l-52 9l-63 71l-63 45l-23 -11l-4 -24l-3 -1l-14 -17l-55 49v12l-43 -9
l-89 439l-38 16l-31 -13l-77 19l-27 -6l-24 4l10 2l-4 14l-31 -4l-14 18l-15 -18l-4 5l9 13l-12 11l-24 -25l-39 -7l15 -7l-10 -15l-7 9l5 11l-38 -17l3 9l-34 -54l-49 -3l-10 -22l38 -43l5 -26h27v-4l-2 -8l17 -2l-3 -19l24 2v-12l-27 5l-11 26l4 -34l14 3l3 -11l-52 3
l-9 8l12 18v1h-10l-30 -7l4 -10l-19 3l-25 -16h-15l15 -15l23 -12l-16 2v-2v-4l7 -12l1 -17l62 -17l1 12l5 -17l36 27l7 -14l-16 -13l15 -28l-13 -15l-22 4l-37 -24l3 10l-12 3v-8l-17 -7l4 -20l-11 5l-15 -30h-13l8 -34l10 11l13 7l-5 -5h-3l-1 -2h-4l-1 -7l-4 -1l13 -7
l-9 -9h5l20 -5l7 4l-4 -7l11 -5l-25 -4l2 6l-7 6l-4 5l-16 -16l39 -40l24 4l-1 14l20 18l-15 -18l13 -42l-8 -8l4 -10h6l-3 -14l-16 -7l13 -4l36 21l34 -37l11 37l8 -7l2 -7l-4 7l-6 -3l6 -16l36 23l-4 -18l-16 -21l11 -9l-11 -1l1 -29l-23 -8l-11 -26l-6 6l-43 -27v-25
l-12 7v-7l-8 15l-19 -3l-47 -34l-2 -11l8 3l-1 8l13 -8v18l7 -16h14l10 25l16 -5l-6 -8l40 21l4 -13l4 13l25 2l2 10h3v-9l9 9l-12 5l7 8l50 22v20l57 34l28 36l-25 15l20 30l5 -5l14 12l-10 18h6l5 -3l3 3l42 51l15 -3l17 16l-17 -21l24 -9l-34 4l-21 -14l-9 -49l1 -4z" />
    <glyph glyph-name="B" unicode="B" horiz-adv-x="592" 
d="M101 -17l-5 3l-27 -3h32zM446 743l-344 5l12 -17l-64 -484l4 -242l15 1l24 -13l18 66l13 -23l-3 -17l3 -13h12l9 -20l-38 -8l53 5l14 8h-5v4l7 -2l21 19l-5 17l5 19l-31 32l5 20l357 -2l-1 15l-13 16l9 58l-15 47l15 53l19 17l-14 12l1 17l-16 32l-14 45z" />
    <glyph glyph-name="C" unicode="C" horiz-adv-x="946" 
d="M71 509l-21 235l375 -5h388l15 -25v-18l-39 -37l-14 -27l114 5l7 -22l-12 3l-7 -8l16 -10l-42 -21l7 -17l-5 -11l3 -11l-16 -8l-1 -13l-14 -19l7 -43l-6 -6h-10l-9 -18l-16 -10l6 -19l-31 -19l-2 -19h-14l-8 -20v-47l-15 -9l-11 1v-20h-12l-6 -18l-19 -9l15 -13l-2 -13
l-36 -12l12 -11l-8 -12l6 -13l-31 -28l13 -11l-2 -10l-13 -4l19 -20v-21l-9 -10l12 -11l3 -25l-12 -7v-23h-515v117l-24 9l-36 -5l1 5h-9l-10 15z" />
    <glyph glyph-name="D" unicode="D" horiz-adv-x="737" 
d="M680 626v116l-521 7l-6 -103l-8 -21l-12 -2l-13 14l-20 5l-17 -5l-4 -12l8 -19l-4 -47l9 -40l-8 -10l3 -33l19 -32l4 -23l27 -24l-30 -20l-15 -20l3 -32l-6 -21l-13 -14l-10 -5v-10l4 -17l-1 -15l20 -9l3 -20l-9 -17h-20l-13 -29l412 -162l225 -1z" />
    <glyph glyph-name="E" unicode="E" horiz-adv-x="841" 
d="M484 3l-15 22h-3l10 -21zM396 42h-4l10 -4v3zM484 55l-19 4l13 -12h8zM356 106h-15l7 -12l10 6zM336 108l-6 3l-4 -3l10 -2v2zM372 110l-9 1l11 -9l19 6l-2 3zM345 717l-1 96h-280l-1 -18l5 -9l7 -22l-12 -60l6 7l-12 -12l-7 -24l1 -17l26 -22l12 -26l-4 -28l7 -24v-15
l41 -43l19 -31l-10 9l-2 -21l5 8l29 -22l5 5l-5 22l9 1l16 -10l10 9l8 -9l16 9l-5 -9l11 8l12 -9l-15 9l-3 -9h-33l-5 1l-10 -1l-2 -4l6 -15l9 -7l11 -24h-7l-18 13l-1 18l-9 -3v-23l15 -35l13 -15h16l10 -11l-5 -18l-8 -2l6 -28l26 -26l17 -29l28 -21v-18l19 -5v-54l10 -6
l65 -4l24 -12l13 -15l24 -8l22 2l9 -24l19 1l47 -32l18 -24l6 -36l9 4l2 -6l-8 2l8 -12l194 34l1 21l-15 7l-9 30l15 12l-2 37l28 34l-19 12l-25 44l-399 334z" />
    <glyph glyph-name="F" unicode="F" horiz-adv-x="1142" 
d="M1066 562l-5 184l-496 -8l-486 10l-29 -739l534 -11l508 11z" />
    <glyph glyph-name="G" unicode="G" horiz-adv-x="1176" 
d="M461 744l-270 12l-39 -562l34 -58l-136 -80l42 -70l25 13l10 -10l32 17l4 -6l10 20l17 -1l71 45l33 17l19 -6l18 22l7 -4l25 17l12 -14l16 7l40 31l23 5l54 64l3 -22l11 -14h43l36 7l28 -8l16 10l32 8l35 -14l11 4l7 -8l30 22l47 -7l12 9l-10 7l7 16l-23 31l27 -13v-27
l32 -20l35 21l15 -8l5 20l46 -11l14 31l26 -26l40 19h44l14 -7l-8 -12l17 6l8 50l13 17l5 80l-8 372l-529 2l-1 -16l-23 -2l-3 18z" />
    <glyph glyph-name="H" unicode="H" horiz-adv-x="420" 
d="M204 752l-28 17l-47 1l-43 -19l-36 -46l31 -705h274l3 4l12 -4l-6 90l-15 -26l-13 12l-37 -11l9 11h-9l7 8l31 11l9 7l-22 12h13l-7 22h21l6 -7l1 -27l5 21l-5 59l-3 9l-37 3l-62 67l-3 34l-22 40l-11 7l-6 53l2 48l-12 32l-13 18l-14 3l-40 77l11 31l-3 21l-18 18l6 23
l19 9l25 36l6 22z" />
    <glyph glyph-name="I" unicode="I" 
d="M629 -20l2 1l-4 -1h2zM672 -16l-7 -3l-2 -1h9v4zM682 -16l-6 1l-4 -5zM629 -15h-2l4 -1zM725 -7l2 1l-7 -1h5zM705 -7v4h-3v-3zM694 -3l2 -5l-7 1l-6 -9l14 8zM701 -3l-1 1h-3v-5zM719 -3l-3 1v1v-1zM746 -2l4 1v3l-13 -3zM715 -7l-2 6l-4 4l5 -11zM762 3l1 7l-13 -11z
M776 15v1l-7 -5l7 1v3zM786 16v5l-1 -5h1zM794 25l4 4l-5 -4h1zM749 71l1 4h-4v-4h3zM743 77h-2l4 -2l1 2h-3zM826 56l13 24l-13 -8v-8l-26 -35h3zM842 89l3 4l1 2l-5 -8zM848 121v5h-1l-1 -5h2zM714 135l-5 7l-4 -3v-4h9zM702 143h-2l-3 -1l5 -4v5zM682 144h-6l2 -2z
M696 143v1l-2 3v-5zM631 217l-9 9l5 -9l13 -3zM618 238v6h-1l1 -9v3zM635 222l-4 21l-8 1l9 -19zM617 250l-3 6v2v-13zM580 324l-7 12h-3l10 -13v1zM580 350h-2h2zM846 306l-20 64l-10 18l18 -53zM794 425v3l-1 5zM794 474l-1 6l-11 -11l11 -36v24zM570 498v-2h3v2h-3z
M570 500h3l-3 3v-3zM534 547l-1 4l-2 -3v-1h3zM314 620h-5h-7l8 -6zM327 612l31 18l-34 -17h-10l6 -4zM366 631l5 5l-11 -6zM160 715h4l-18 3l-65 -7h5zM580 350h2l-8 -1l6 -5h-10l3 -3l-8 6l4 -6l13 -9l1 -14l27 -56l17 -5l-13 30l13 -13l22 8l-14 -11l2 -45h13l4 13l12 6
l-23 -28l13 -3v7l3 -7l7 -45v6l6 -15l10 -3l-10 -9l12 4l30 -14l19 -33l4 -22l26 -16l-10 -3h4l-11 7l-5 6l-8 -12l4 -9l9 -8l23 10l17 -4l24 11l1 -6l6 -3l-1 6l-5 2l6 1l5 -7l-3 7l11 15l4 32l14 35v-17l12 128l-12 40l-19 13l13 -4v-2l-16 39l-4 22l-37 86l-16 51l12 -5
l-1 -18h18l-4 -47l22 -44l-17 44v22l7 8l-12 22l-31 50l-35 91l-15 84l-12 8v10l8 -12v22l-59 13l-7 -6v-47l-12 -1l-9 25l-281 25l-13 35l-275 12l-3 -17l23 -23l-5 -20l8 -7l-19 -22l28 7l13 16l-4 13l12 -14l5 18l6 -7l-5 -6l13 -9l-32 -11l46 6l18 -2l10 13l10 -1v-6
l20 6l8 -5l4 -12l-14 7v-7l-5 7l-7 -6l-18 4l48 -17l36 -20l-4 13l-9 2l9 5l7 -6l14 6l3 -5l-20 -9l17 -10l8 4l1 -16l10 3l-7 -4l-24 17l34 -34l4 -9l-4 -16l-9 23l6 -17l3 -6l36 4l16 8l-2 -6l41 19l14 -2l2 2v4l-12 5l1 4l11 -4l-6 7l22 8l4 -6l17 4l36 -22l14 -25l16 -8
l-2 -16l19 -14l19 -31h28l7 -24l9 -11v-13l-8 1l8 -10l-5 -33l-21 -69l13 -26v6l-8 13l16 -15l10 20l-15 8l6 4h-4v6l16 -7l1 -17h8v13h5l4 -13zM775 306l14 -12l5 -15l-9 -36l-18 9l-22 24z" />
    <glyph glyph-name="J" unicode="J" horiz-adv-x="755" 
d="M619 42v11l6 26l-11 -13zM125 326l-3 -14l13 -11l-19 -18l-18 -57l14 -46l-11 -59l11 -16l2 -19l18 -43l374 -29l10 -32l18 1l6 34l-4 25l9 14l67 -18l-4 23l6 -1l-2 11l7 8l-8 5l8 5l-8 11l12 -11l2 18l-5 -9l-6 9l5 -2v15l4 1l7 -12l14 18l-8 11l-22 8l30 -5l-8 15
l8 -6l15 26l-18 -9l3 7l-8 3l18 8l-6 7l11 -12l3 18v5l-1 -5l-13 -3l6 8l-11 9l25 -4l10 15l-16 3l7 5l-4 4l20 -5l6 5l-5 6l5 6l5 -3l9 8l-43 21v31l-8 26l-29 22v21l-17 49l-33 18l-3 13l-11 5l2 9l-12 8v18l-35 22l-12 28l-41 32l-21 34l-21 47l-23 7l-18 18l-23 18l4 18
l28 29l-339 6l46 -341l11 -47z" />
    <glyph glyph-name="K" unicode="K" horiz-adv-x="1367" 
d="M1131 273l-66 29l11 -66l-53 -58l36 -173l55 -36l203 153l-96 112zM905 363l-6 21l-27 -17l10 -6zM826 419l7 32l-48 6l19 -38h22zM896 487l-29 -28l68 -81l97 34l-56 52l-57 -10zM746 535l-13 -31l134 16h-41zM589 627l-14 29l-73 -35l39 -66l26 20l68 -29l-6 43z
M54 680l30 29l3 22l-37 -30zM250 783l-53 1l-49 -49l80 -40z" />
    <glyph glyph-name="L" unicode="L" horiz-adv-x="1022" 
d="M900 473l-10 29l-45 10l-10 12l-16 72l13 30l-16 8l-10 28l-362 -4l-384 5l7 -24l-7 -26l12 -5l5 -17l-27 -72l12 -17l6 -28l11 -5l7 -58l26 -38v-17l10 -17l-5 -52l15 -3v-11l12 -4l-9 -25l15 -4l-9 -20l10 -7l-5 -21l8 -33l-6 -31l12 -14v-12l257 -8l334 10l36 -40
l17 -1l-5 34l36 21l10 34l21 26l-5 27l-21 19l10 38l45 7l39 18l12 13l4 29l17 15l5 40l-3 13l-35 26l-6 23l-28 18v9z" />
    <glyph glyph-name="M" unicode="M" horiz-adv-x="601" 
d="M546 281l-26 29l-10 -13l4 -11l-64 2l-11 -12l-28 4l-9 -14l-11 11l-12 36l-15 1l-9 9v17l-21 33l-7 33l-12 11l-26 -24l-20 11l5 15l-5 8l13 11l-8 32l5 3l11 55l-20 -2l-7 11l-9 -4l-39 64l-30 21l5 5l-5 8l2 17l-25 36l6 110l-74 5l-18 -294l15 -54l19 -19l9 -18
l-36 -64l-2 -16l-31 -43v-21l17 -5l8 -10l-15 -38l-10 -207l250 -10l251 -1z" />
    <glyph glyph-name="N" unicode="N" horiz-adv-x="550" 
d="M463 791l-305 5l21 -22l2 -17l26 -21l-4 -39l-29 -43l-28 -14l-37 -2l-8 -26l13 -17l3 -21l-25 -43l-27 -14l1 -27l-12 -5l-4 -14l2 -37l12 -42l65 -66l12 -54l8 -5l18 11l32 -16l-5 -32l-22 -44l1 -17l27 -30l22 -9l47 -42v-21l6 -20l-6 -18l12 -31l14 -8l-4 9l5 2
l12 -15h5l-6 13l21 23l55 -23l9 3l-4 44l45 15l-8 21l13 19l-6 9h6l-6 10h6v23l11 4l-8 2l11 11l-9 9l7 11l9 -4l12 26l13 6l-2 9l18 30l-3 27l-17 24l10 13l-4 17l11 4l-1 347l-33 74v38z" />
    <glyph glyph-name="O" unicode="O" horiz-adv-x="635" 
d="M578 773v10l-313 1l-30 -16l-37 -10l-20 4l-1 11l-5 -5l-11 11l-11 -483l-14 -7l2 -24l-10 -18l20 -33l-3 -17l6 -25l-26 -37l1 -16l-19 -6l1 -7l-14 -26l-3 4l-6 -8l-6 4l-9 -14l9 -13l-15 -13l10 -4l-11 -5v-30l-13 -3l13 -13l-11 -4l23 -6l7 9l-3 14l3 5l18 -7l20 2
v-14h8l6 12l-1 16l6 -11l24 5l42 -22l6 -10l17 27l32 15l6 -15l20 -5l-1 -6l5 -5l6 13l11 4l1 23l10 5l-1 16l6 -9l16 10l-11 8l17 -7l4 -19l34 -22l19 14l4 31l13 22l10 -4l18 9l10 30l12 2l16 19l-6 33l31 3l13 -8l38 21h22l2 19l-14 4l9 14l-9 17l9 7z" />
    <glyph glyph-name="P" unicode="P" horiz-adv-x="1222" 
d="M1172 90l-13 404l-34 14l-12 31l-29 28l18 37l14 1l-14 31l-18 -8l-32 26l-487 -6l-490 13l-25 -568l563 -12z" />
    <glyph glyph-name="Q" unicode="Q" horiz-adv-x="1162" 
d="M62 171v12h-12v-12h12zM742 598l-12 13l-19 -16l7 -14l-7 -10l13 -4l-6 -20l-16 3l-34 -17l-9 9l-26 -4l4 -29l-23 -16l-11 -26l-25 -6l-14 -43l-17 -9l-27 16l-4 16l-13 7l5 -9h-15l1 -12l-11 -5v-16l-14 -16l-25 25l-29 -12l-14 -21l-38 27l-22 -6l-7 12v-20l-7 -5
l-4 13l-16 -5l-17 11l2 -16l-6 -9l-12 4l-18 -24l9 -30l-58 -15l-2 -15l8 -30l-8 -11l-54 29l-26 -6l-16 -18l6 -20l-3 -38l-12 -27l-21 11l-9 -23l195 -10l-4 34l33 -11l574 -19l85 30l9 18l26 10l26 40l44 26l54 45l-24 6l-38 42l-35 59l9 15l-2 31l-31 26l-9 29l-20 -5
l-16 -17l-22 -3l-30 18l-26 -12l-20 20l-49 11l-12 35l-17 13z" />
    <glyph glyph-name="R" unicode="R" horiz-adv-x="994" 
d="M579 -17l6 -2h6l-5 2h-7zM579 -17h-2h2zM630 -14l-21 -7h3l14 4zM672 -17l-8 3l-10 1l9 -4h9zM693 -13l-5 3l-5 -7zM664 19l3 4h-3l-1 -7zM739 16l13 7l-4 4l-9 -7v-4zM758 31h-1l-4 -2l1 -2zM881 72h4v5l-9 -7zM723 73v-5l18 -6l-2 6zM897 80l3 2l4 8zM919 104v1l-1 -3z
M431 64l14 21l-36 12l-19 -11l34 -22h7zM926 113l5 9l1 4l-10 -15zM838 128l-7 7l-3 -13l5 6l5 -6v6zM854 136l-1 -1l11 -7v11zM864 159h7v4l-7 -1v-3zM855 157l5 6l4 7l-10 -13h1zM943 139l1 20l-1 15l-11 13l11 -24l-7 -33zM837 200v2l-2 -2l2 -1v1zM872 192l-5 3l12 12
l-29 -21l17 1l5 -6l7 5zM122 122l65 1l86 -35l68 -13l44 10l6 8l-13 -3l-6 14l7 6l-13 -5l-5 13l11 2v-7l27 19h22l-1 -21l38 6v-20h14v-22l24 5v-8l23 -8l5 26h4l-4 -28l25 -25v-14l-5 -3l-3 17l-9 1l-1 7l-12 -12l-8 4l3 -10l6 -7l36 -12l11 7l2 -10l22 -9l7 12l10 -4
l-5 -9l8 -3l18 12l1 -6l4 21l7 -3l-3 17l20 -4l6 14l11 -23l8 13l9 -14l6 6l3 -35l22 13l11 16h-6l-2 10l14 4l-6 10l2 -4v19l-31 17l5 13l8 -11l5 3l30 -16l12 -2l1 6h8l-4 -8l12 -2l3 -12l-13 -9h24l11 5l4 -17h26l-6 -2l19 -31l10 8v13l4 -10l4 5l-22 -47l18 25l8 4v8
l22 -20l-2 8l5 10l4 -4l-1 11l4 -8l9 13l-13 1l14 4l-5 7l-19 3l6 8l-15 15l-9 -7l-5 7l-18 3l6 6h-32l1 13l-28 11l-13 21l24 -2l-15 17l37 -15l-6 11h-11l-1 9l9 6l8 14l13 -13l12 5l-6 9l7 10h-11l4 6l-6 -4l-4 6l10 4l-14 6l14 14l-9 -2l-10 6l-15 -13l-5 -23l-12 -4
l-9 10l3 6l-20 -1l-4 12l8 8l13 -3l12 21l-4 4h-7l6 -4l-11 -8v13l-9 -13l-16 8l-18 -19l-27 -6l-41 11l-9 13l5 13l37 35l23 -5l13 -18l41 -6l6 -13l20 4v-5l11 7l-8 5l-19 44l-22 24l-9 22l18 62l-326 -4l14 13l-13 40l20 4l5 24l-5 18l16 14l12 51l43 37v26l11 1l19 30
l-31 32v21l-12 17l17 11l-17 10l15 30l-15 10l-1 8h-477l-4 -199l35 -42l1 -40l16 -14l-4 -8l17 -20l-4 -11l12 -24l9 -3l-2 -17l9 -11l-12 -6l7 -12l-7 -27l-29 -48l6 -19l-8 -20l6 -20l-2 -38l-14 -17l6 -18l-7 -12l-15 -3l-2 -6l8 -16l22 10z" />
    <glyph glyph-name="S" unicode="S" horiz-adv-x="1400" 
d="M1319 14l-11 7l6 -13l-16 -31l22 19l-9 -19l-71 -13l63 -15l36 9zM1162 3l-3 32l-17 -20l17 -15zM1109 56l-24 -9l-34 -41l-31 -9l24 -20l37 20l58 3l-3 26l-22 7l13 8l-6 13l-15 -12zM1325 97l14 39l-6 11l-16 -52zM1003 733l-22 6l-52 -32l-24 -2l-22 -31l-37 -25
l-697 31l-99 -325l11 -12l245 -15v-12l15 2l3 10l493 -10l6 -57l11 -5l6 -54l33 -35l6 11h17l22 34l-28 -60l21 -7l4 -73l8 7l-5 9l14 -5l6 14l7 -14l-13 -10l13 -1l33 11l17 49l22 -19l-2 18l16 14l13 -6l10 21h9v28l22 -15l3 12l8 -7l-11 -23l2 -49l-14 -24l66 15l31 39
l10 -11l47 16l-2 -19l33 25l86 8l3 59h-19l5 30l17 -8l-24 67l-28 34l-37 23h-24l-9 -14l26 -21l6 18l24 -7l14 -75l10 23l18 -12l-12 -3l11 -45l-11 -12l-80 -34l-32 -5l19 8l-46 7l-36 23l-10 10l-6 59l-27 9l-29 27h12l6 26l12 -24l-9 -2l18 2l-55 106l-56 40l12 -28
l-35 -9l-1 17l-14 4l5 13l-17 -3l-3 12l11 4l-14 9l6 6l18 -6l-6 11l15 -11l-1 38l26 -3l-10 18l28 14l-5 13l-13 -7l6 13l64 24l39 26l-10 28l-20 -13v-18l-7 10l-21 3l-4 9l10 2l-31 18v16l21 -16l-13 31l-27 22h19l-1 27z" />
    <glyph glyph-name="T" unicode="T" horiz-adv-x="1256" 
d="M958 86l-10 17l7 -17l-12 -7l11 -6zM954 144l-6 11l-13 -5l6 -6h13zM1154 103l15 12l25 75l-23 -45zM1200 206l6 34h-3l-8 -37zM118 664h-61l-7 -171l52 32l51 53l14 5l21 -9l41 37l10 24l8 -10l-4 -12l44 -16h28l10 10l-6 6l13 5l-7 7l41 5l24 22l11 -1l44 -33l30 1
l4 -8l-11 -6l6 -15l5 7l4 -14h13l-9 -17l15 -9l-2 -21l48 -20l24 -18l3 -11l-14 -18l16 -24l46 -12l10 -21l34 -16l17 20l35 -37l-30 -28l2 -28l-23 -13l-7 -19l-14 -6l3 -9l-16 -6l-8 -30l8 -28l22 2l11 26l7 -17l11 22l38 -63l12 -4l1 8l-10 31l14 -12l14 -40h39l28 -37
l2 11l11 -8l1 24l12 -34l27 -18l-4 35l-17 27l2 21h-20l-13 20l-28 18l-16 40l-2 46l12 -62l50 -49l18 4l-3 20l-31 42v58l-11 14l18 28h-14l-3 14l17 5l-17 21l26 -10l-33 42l7 6l22 -27l15 8l-28 22l25 -7l-11 36l-7 -5l-35 34l11 6l39 -23l10 10l-15 7l-10 18l19 -18
l-7 19l16 -1l10 14l-19 13l23 1l10 -28l9 10l-6 12l7 33l7 -38l38 32l-14 12l10 22l23 2l13 12l-18 -45l45 39l-14 -24l13 -17l-24 5l-21 -27l45 -8l-72 -3l-14 -16l-24 -54l14 -40l10 29l28 6l-27 -28v-18l-18 -2l-20 10l-8 -48l8 -5l-2 17l22 19l17 -10v-14l7 6v-7l11 -6
l-18 -21l8 -8l10 8l-1 -13l-17 -1l-26 22l-18 -52l11 4l7 32v-23l15 17l5 -27l7 10l5 -16l12 3l-11 -11l17 2l4 -12l14 -7l17 19l-3 -15l-20 -13l-30 9v11l-32 -4l8 -9l-9 -12l22 8l6 -4l-18 -17l-3 -18l-7 11l-10 -10l27 -51l4 27l47 -54v26l10 16l8 4l1 -6l-12 -14l11 -20
l28 54l-12 -48l21 -12l-28 -13l-2 -19l37 7l6 -1l-22 -20l28 8l-36 -42l11 2l-3 -21l21 13l36 -1l6 10l63 11l7 20l20 11l8 41l14 6l-4 -10l10 4l14 27l5 9l-12 4l1 14l-12 6h18l-1 8l7 3l-162 -3l-26 421z" />
    <glyph glyph-name="U" unicode="U" horiz-adv-x="702" 
d="M405 141l3 9l-15 6l2 -11zM430 179l-6 8l-5 -22h11l-5 10zM487 194l3 8l-14 17l-12 -4l-9 -21l14 -15l6 4l-4 11h16zM386 744l-11 9l-3 30l-23 5l-102 -141l-7 -53l-15 -13l-14 -26l4 -14l-8 -12l-1 -18l6 -10l-20 -24v-15l-25 -11l-18 -28l11 -19l-10 -3l-13 7l-12 -36
l-12 22l-13 -8l6 -362l19 -29l-2 -15l9 -17l5 5l8 -4l20 48l29 22l-6 3l5 13l18 6v10l-11 6l7 2l8 19l28 17l-4 -5l8 4l-11 -19l13 15l-7 -19l16 13v11l7 -32l6 8l-6 47l-6 -5l-1 4l14 15l1 -56l8 17l-5 -4l-3 11l18 26l-3 -13l3 -6l-3 -12l8 -2v-7l1 25l9 14l-2 -35v12
l5 -12l18 42v-15h11l-4 -6l13 12l-5 -15l10 3v10l19 11l-1 15l17 35l-7 18l25 11v17l7 -6l-9 -25l11 7l6 -6l-15 -8l-2 -10l11 2l28 -16l-5 32l11 2l3 -4l-3 18h7l2 -17l7 13l12 -4l-2 15l11 -11l2 11l3 -13l3 7l6 -4l8 -29l11 15l-8 13l8 5l5 -17l4 16l1 -17l9 34l5 3v-13
l9 13l1 -19l7 13l10 -7l4 22l16 -7l1 10l5 -12l7 7l-7 14l11 3l5 -17l2 5l12 -1l27 33l-12 13l3 -12l-4 11l-12 -14l-6 19l11 -4v11l8 -2l3 6l-17 37l-15 4l-8 -8l-18 19l4 22l-10 21l10 9v10l-23 5l-29 18l5 37l-6 223l-26 26l-39 26l-16 -14l-12 5l-49 -25z" />
    <glyph glyph-name="V" unicode="V" 
d="M786 56v18v-18zM492 461v18h-18v-18h18zM529 534v36v-19v-17zM620 570h-36v-19l-19 -17l19 -19l-36 -17v-37l-19 -37v37v-37l-18 18l18 37l-37 -37v19l-18 -19v-18l-19 -19v-37l-18 -37v-36l-19 -36l37 -56v18v-18v-18v-56l-18 -55l-19 -55l-19 -19h221h131l35 37v19v18
l18 19v17l19 19h19v-19v19l18 56l-37 110v17l-37 19l-18 -19h-17v-36h-20v-17l-36 17v36l36 19v18l20 19v74l-20 19l20 18v-18v37l-56 36h-19l-18 17h-18zM640 570h-20l20 -19v19zM731 608h-17h-19l36 -18v18zM676 626v19h-18zM676 645l-18 19l18 17h-18v-17v-19h18z
M418 664v17v-17zM235 754v19l-39 -19h-17l-19 -36h-54l-56 -37h18l19 -17l92 -38l17 -18h39l36 -18v-20l38 -19l-19 -36h19v-36h17l55 72v39v-39h18v19l19 20v-20v-19v-17l19 36h18v20h37h19l18 18h55l17 -38l19 38v-18l20 18l55 -18v18h-19v18h-18v19l-18 19h-20h-19h-17
v54l-55 -17h-55l-56 -37h-19l-18 17l-18 -17l-17 17l-20 37l-17 18h-38l-19 -18l19 18l-19 -18h-17l17 18zM309 810h-38l-36 -37l17 -19v19v-19h-17l17 -18l19 37l19 19z" />
    <glyph glyph-name="W" unicode="W" horiz-adv-x="803" 
d="M228 744l-3 18l-175 6l10 -50l-5 -16v-54l22 -74l-2 -84l5 -10l-3 -39l18 -68l-4 -43l-28 -33l14 -22l14 -7l8 -12l-10 -250l260 -6l263 1l-6 55l-10 16l-27 8l-44 49l-20 5l-9 14l-19 5l-23 22l6 22l-5 19l5 9v19l8 21l-8 19l-13 1l-3 17l21 29l39 26v80h6l12 20l55 44
l62 70l114 56l-21 3l-12 -4l-20 16l-56 -8l-13 21l-35 -25h-30l-10 5l-4 12l-23 7l-8 15l-19 -3l-2 -11l-6 -3l-12 29l-19 2l5 11l-28 10l-27 3l-18 -5l-5 -8l-24 -1l-11 15l-67 14l-9 8v12h-12l-13 15zM245 810v-28l12 6l4 13l-2 8z" />
    <glyph glyph-name="X" unicode="X" horiz-adv-x="1008" 
d="M636 693l-40 43h-309l-236 17l-1 -9l8 -8l4 -36l24 -15l7 -38l42 -31l20 5l10 -13v-16h-15l-20 -32l28 -29l7 -31l31 -12l-24 -472l639 -13l14 -22l-1 -15l-34 -30l-9 -23l93 1l16 26l-12 21l20 2l-11 12l15 10l-6 30h9l4 -18l14 31l23 -9l11 32l1 39h-8l-11 19l-8 -3
l4 -13l-13 8l-23 38l15 24l-15 27v22l-56 50l-27 11l-33 35l-2 22l33 86l-42 25l-15 -13l-11 -1l-12 20l-11 49l-78 79l-12 27l-9 55z" />
    <glyph glyph-name="Y" unicode="Y" horiz-adv-x="610" 
d="M439 -13l6 3l-7 -3h1zM516 -10l-8 1l2 -4zM425 -7v2l-13 -4l9 -5zM500 -10l-22 5h-9v-2zM525 793l-271 3l5 -15l-25 -16l-5 -16l-11 -1l-4 -50l-13 -8h-12l-2 -14h-5l-9 -13l-10 -9l9 -16l-31 -11l7 -11l-3 -8l2 -12l-26 -22l11 -6l-3 -10l-8 -2l15 -17l-10 -25l10 -7
l4 -19l-12 -9v-21l13 -9l-13 -26l12 -12l-14 -10l10 -13l-3 -17l30 -25l-19 -29l-11 -2l3 -20l-39 -30l-14 -43l-14 -12l6 -14l-6 -21l-18 -5l11 -36l-12 -7l275 -7l-15 -51l7 -20l19 -19l15 -44h17l3 9l16 10l-6 6l5 6l13 -11l54 16l-16 2l8 5l25 -16l22 7l18 -14l10 8
l-12 257l52 508l-12 14h-23z" />
    <glyph glyph-name="Z" unicode="Z" horiz-adv-x="1142" 
d="M1084 277l-29 383l-495 -15l-500 23l-10 -125l25 -40l-1 -18l5 -10l-9 -4l33 -26l45 -74l8 6l8 -12h22l-22 -64l8 -32l-14 -16l-2 -24l20 -13l30 25l17 -12l4 -37l23 -39v-20l24 -14l14 -39l14 -12l6 16l34 -5l16 12l69 -4l-4 12l12 14l28 -34l1 64h318l310 14z" />
    <glyph glyph-name="a" unicode="a" horiz-adv-x="1300" 
d="M919 105l-10 -6l-3 -5l7 -2zM933 147l-3 -2l-4 -12l2 1zM998 204l-15 -3l-16 -13l-8 -9l15 14zM1108 226l-5 6l-11 3l13 -9h3zM1086 235l-7 2l-22 -2l-26 -9l37 9h18zM1110 221l17 29l24 30l-26 -28zM1160 285v4l13 9h-6zM1189 309l19 13l-28 -15l-5 -7zM1239 327l6 19
l5 41l-11 31l7 -35l-3 -44l-30 -19zM1226 425l-5 17l-10 1l10 -16zM1199 506l-12 37l10 -40l18 -45l-4 -1l28 -38l-28 56zM1175 543h-4l4 -8h9l-2 8h-7zM617 535l-199 17l-7 -42l-24 -6l-24 -33l-20 9l-48 -31l-10 17l-23 -23l-11 6l-15 -26l-24 -5l-46 -30l-53 -5l-17 -15
l-9 -24l-30 -5l-7 -41l166 -5l99 31l178 -15v-13l17 8l19 -28l1 -20l153 -7l149 -155l26 15l46 -10l13 19l-4 31l8 -15l-2 -27l26 64l25 24l22 9l-9 15l9 6l-7 18l15 -17l-9 -9l10 -5l24 20v13l6 -13l26 9h27l-11 4l13 7l7 -15l2 19l15 -13l31 38l-12 10l5 -8l-18 -7l1 22
l-5 -17l-11 2l4 -9l-12 9l-16 -14l-28 12l-18 28l42 -26l30 22l-2 10l-15 -2l26 18l-66 24l-13 17l62 -21l-7 21l24 3l-15 -7l13 -17l9 12l8 -19l2 9l27 -9l17 11l18 39l6 -11l14 11v31l-16 24l2 -7h-10l4 -9l-9 7l-7 -6l-4 -40l-15 7l15 2l-13 15h9v31l-31 -2l3 -7l-22 9
l-40 -7l4 9l-10 20l2 32l8 -6l-4 -17l4 -22l14 -7l37 15l-22 20l33 -19l-9 21l17 -15l14 6l-18 25l37 -24l-8 23l24 -37l-18 57v-10l-7 6v4l-8 7v13z" />
    <glyph glyph-name="b" unicode="b" horiz-adv-x="1106" 
d="M1056 96l-9 72l-29 61l2 55l-10 13l-10 117l-38 101l-8 77l5 21l-17 67l-437 -10l-429 12l-26 -588l505 -12z" />
    <glyph glyph-name="c" unicode="c" horiz-adv-x="1122" 
d="M918 532l-15 5l-8 20l-49 14l-19 16l-64 -5l-18 -13l-56 30h-316l-309 11l-14 -305l233 -10l-4 -152l400 -3l393 14l-13 7l-7 31l-21 8l-8 31l-20 31l-3 71l-8 6l6 13l-11 3l3 17l-10 6l1 8l-10 2v37l-34 57l-8 48z" />
    <glyph glyph-name="d" unicode="d" horiz-adv-x="517" 
d="M379 783l-3 16l-16 -18l-33 15l-28 -20l8 -7l-27 -64l5 -32l-27 -48l19 -47l-10 -5l-3 -17l-16 -20l-38 -32l-29 -2l-13 -18l-3 -55l-14 -30l4 -9l-19 -28l-6 -30l-21 -20l-6 -34l-15 -16l-3 -80l-8 -12l-8 -77l-10 -11l-9 -28l1 -14l20 -32l263 -9l23 16l13 19h16l33 22
l26 -2l22 52v5l-11 -2l3 7l-19 24v26l-35 46l6 52z" />
    <glyph glyph-name="e" unicode="e" horiz-adv-x="529" 
d="M360 127l16 18h-16l-8 -18l-20 7l11 -7h17zM395 178l24 35l9 36l-43 -79zM455 599l16 43l8 27l-206 119l-25 -7l-18 -17l-17 -52l-25 -26l-26 -25l16 -36l-8 -26h-16l-9 -16v-60l25 -9l18 -43h9l7 -16l60 -70l-7 -9l-44 -24l-43 -36h-8l8 -17l-16 -17l-45 -9l-25 -8
l-34 -69l7 -18v-17h-7v-7l43 -53l8 9l8 -16h17l19 -27l9 -18l24 9l10 -9h25l8 -26l-17 -26v-34l17 7l27 20v7l25 26l-16 8h16l8 27l26 26h-26l10 10h16l17 24v-8l-8 -16l36 16l-9 17h-11v18h20v9v24h8l16 -17l-8 17l43 51v28l17 42l-9 9l9 8l-9 9l16 7v20l11 -20l-18 -75h7
l11 84v18l16 68v44l-7 17l7 -17l-7 -8l-36 17h-17l-17 8v26l17 33l17 27v-17l27 17z" />
    <glyph glyph-name="f" unicode="f" horiz-adv-x="772" 
d="M331 55l-10 23h401l-2 655h-317l-319 12l-34 -746l92 -4l4 60l193 -7z" />
    <glyph glyph-name="g" unicode="g" horiz-adv-x="623" 
d="M573 102l-10 648l-249 -2l-247 11l-17 -336l474 -454l4 23l-7 35l-9 64l16 6h18l16 -13l6 2z" />
    <glyph glyph-name="h" unicode="h" horiz-adv-x="1152" 
d="M806 -1l-15 -2l-9 -23l24 15v10zM918 4l-13 -3l-31 -7l22 2zM930 1l49 23l-68 -25v-2zM1049 89l-13 2l-37 -30l-66 -4l-14 -10l-25 7l5 -9l-10 9l-5 -10l-18 1l-4 -14l-9 11l-2 -13l-3 3v-8l-23 -2l-16 -23l5 -13l17 4l-3 7l10 4l10 -7l-23 -10l46 6l-18 4l145 37l-12 -7
l116 55l-34 -13l-9 10l-1 -7l-18 1l-18 -23h-23zM1081 112h2l7 7l-12 -5zM174 439l-13 6l-1 -11l6 -5zM526 598l2 1v6l-9 -13zM546 651l-7 -2l-2 -3l12 3zM567 662l-16 -5l2 -8l8 8zM704 774l-51 -25l-57 -48l-20 -37l-65 -43l7 -17l12 8l11 -5l-11 -13l19 4l-21 -27l-2 9
l-8 -9l10 -37l3 3l-1 -13l-11 -12l-20 2l-38 -33l-29 -5l-4 -10l-51 11l-29 -7l-21 18l-81 12l-92 -16l-1 -32l23 -10l-7 -13l5 -35l-21 -11l-16 -24l-84 -50l-3 -47l586 -23l11 -22l24 -10l1 -38l9 -19l33 -13l6 -12l106 -64l-10 48l7 9l8 -52l-17 -55l11 18l16 2l-2 8
l23 22l-11 18l33 21l-10 12l6 143l31 117l-3 142l-5 13l-14 -9l-2 7l7 31l-10 49l14 32l5 37l-10 30l1 60v10h-190z" />
    <glyph glyph-name="i" unicode="i" horiz-adv-x="795" 
d="M745 469l-7 279l-130 -56l-60 -49l-46 2l-66 -24l-15 3l-21 17l12 -13l-29 9l-20 -9l-21 8l56 9l-24 17l-6 -11l-16 1l-15 17l-59 23l-210 -2l-18 -544l17 10l15 -15l28 5l24 -19l15 -41l21 -11l18 2l17 -4l25 -28h11l4 9l17 6l26 -11l9 -12l25 2l20 21l21 7l13 -33
l21 -12l16 -24l44 6l7 30l19 5l-6 36l25 45l9 4l9 -6l8 -24l11 17l11 -2l-3 20l-8 10l11 3v15l12 21h16l4 15l15 13h8l9 -13l23 11l56 49l5 21l-5 11l11 21l-2 11h8l2 32l20 50l-4 13l4 23l-11 21z" />
    <glyph glyph-name="j" unicode="j" horiz-adv-x="1124" 
d="M1044 537l-2 74l-492 -7l-496 15l-4 -73l354 -13l-4 -282h12l27 -30l31 -2l6 14l21 -22l1 -13l56 -15l16 4l12 -13l18 10h30l2 -18l16 -3l4 -19h10l25 19l25 -26l27 12l9 -27l8 22l18 13l21 -15l19 7l1 -7l32 -21l7 8l40 20l20 -3l21 15l13 -13h17l17 15l30 -15l14 -14
l48 -15l-4 253z" />
    <glyph glyph-name="k" unicode="k" horiz-adv-x="784" 
d="M183 626l-10 -4l-8 1l-8 10l-16 -5l-6 2l-7 -1l6 -6l-2 -4l-1 7l-14 7l4 -22l-5 -10l-1 -21l4 -11l5 2l-7 -13l7 -9l-5 -2l-2 8l-2 -12l4 -4l-7 -9l1 -21l-9 -38v-22l4 -3h-4l-4 -19l5 -6l-4 2l-4 -14l-10 -70l6 4l5 -4l-7 3l-5 -10l-11 -30l12 12l3 -13l-6 5l-8 -15
l-1 9l-4 -3l-8 -34l-13 -24l13 -23l-4 -35l5 -27l12 -14l323 -7l307 5l-11 215l7 23l-3 10l7 8l-8 11l-18 1l-2 13l13 41l15 20v13l28 67l-9 21l-17 8l-11 19l-174 -5l-7 -7l-40 -3l-53 -23h-32l-22 -11l-21 -1l-11 9l-42 3l-38 -18l-38 12l-11 48l-18 14h-7z" />
    <glyph glyph-name="l" unicode="l" horiz-adv-x="972" 
d="M919 459l-6 17l-37 11l-11 18l-6 46l-23 10l-3 11l-12 10h-647v52l-53 -27l7 10l-21 -16l-44 -19l-13 -445l663 -3h55l10 17l16 8l25 -5l44 18l3 14l56 42l-38 46h-8l-8 28l-17 2l-1 24v12l13 8l6 15l-12 24l27 27l23 40z" />
    <glyph glyph-name="m" unicode="m" horiz-adv-x="594" 
d="M236 -38l16 11l-12 24v29l-12 4v-23l-17 -9l-6 -20l3 -11l8 -7zM358 244l16 17l9 52v27l-14 8l-11 -46l8 -8l-12 -12l-1 -32zM465 278l3 99l10 48l-33 -28l-8 -33l-20 -24v-19l-11 -23l11 -24l-28 -16l-4 -19l6 -4l17 15l13 -4l25 30l22 -7zM544 291l-4 73l-8 13l8 48
l-44 16l-9 -29l-2 -39l11 -75l-4 -16l10 -31zM371 639l-8 111l-281 -5l1 -451l-8 -91l-8 -4l-9 -20l-8 -66l59 11l116 41l31 2l32 -11l7 3l43 91l1 17l-1 46l-15 33l23 34l4 17l-11 35l-17 9l17 16l15 -5l12 -12l16 32l-6 11l-15 17v69l13 -24l11 -42l14 -12l18 -10l6 30
l10 -5l-16 -59l6 -23l22 5l17 14l3 28l-20 35l-37 29l-14 15l4 84z" />
    <glyph glyph-name="n" unicode="n" horiz-adv-x="1058" 
d="M853 224l4 9v4l-4 -4v-9zM247 752l-3 4l-8 -10l-50 -11l-13 -13l-73 -16l-40 -42l-10 -27l37 -25l24 -28l37 -10l25 -69l23 -29l7 -21l60 -46l19 -40l23 -9l25 -25l2 -27l17 -14l-2 -11l15 -12l2 -13l50 -29l4 -27l19 -44v-28l42 -35l14 -40l-6 -31l17 -25h15l23 -13
l21 52l2 -10l-9 -23l29 25l-23 25l-14 54l15 -12l6 -32l16 -14v38h5l4 -47l35 15l7 21l-23 -15l18 17l-27 8l23 5l-42 4l1 6h29l-2 11l31 -21l6 14l7 -12l25 19l-11 16l17 -14l34 10l-3 9l15 2l15 12l2 9l-21 10h8l-4 17h11l-3 -13l17 -10l48 39l4 5l-8 -5l-4 5l8 19l13 6
l6 -11l21 5l4 12l15 11l-9 12l13 -8v10l10 -6l7 10l-23 28l14 27l7 8l-15 -31l11 -4l6 -19l10 48l38 56l35 32l38 17l-6 8l6 2l-220 216l-225 6l-1 33l-29 36l-23 -11l-2 21z" />
    <glyph glyph-name="o" unicode="o" horiz-adv-x="914" 
d="M834 610l-378 -7l-382 11l-24 -428l295 -9h301l51 -31l17 15l62 2l17 -13l45 -16l10 -17l16 -3l-8 20l-11 12l15 55l-2 13l-10 1l5 23l-8 16l15 1l-12 262l-12 14l-16 3l-15 27l21 24z" />
    <glyph glyph-name="p" unicode="p" horiz-adv-x="1300" 
d="M975 559l-572 6l-31 9l1 -33l-191 6l-8 -10l-9 10l2 -19l-13 -7l9 -14l-19 -1l11 -18l-14 -19l5 -26l-12 5l4 -14l-32 -16l4 -32l-30 -28l6 -39l-36 -22l502 -16l335 3l5 41l29 5l9 28l17 14l56 12l43 34l26 5l9 29l16 -4l24 23l8 -17l49 35l19 -6l23 35l24 5l6 46z" />
    <glyph glyph-name="q" unicode="q" horiz-adv-x="1024" 
d="M711 18l21 -59l-18 88l-3 -1l-2 -2zM722 74l4 10l10 21l-14 -21l-11 -35zM745 125l-7 -20l10 14v7zM758 134l22 11l-25 -11l-7 -11zM788 154l-5 -1l11 5zM894 235h-5v-3l-17 -18zM509 809h-199l-11 -371l-249 10l4 -14l81 -87l30 -19l33 -83l77 -52l17 -4l21 23l12 42
l20 2l6 8l12 -5l52 -3l7 -17l8 2l40 -38l29 -69l15 -15l18 -30l24 -12l5 -45l18 -21l10 -33l20 -2l49 -22l39 -2l23 -18l2 9l14 7l-4 5l-3 -3l2 7l-9 1l-21 58l6 6l-6 8l8 22h-24l9 2l-9 14l11 -14l9 10l-4 -12l8 3l13 32l-21 16l25 -3l12 23l-9 -9l-3 12l12 7l4 -9l3 14
l-3 -14l4 2l9 9l-1 17l10 -10l16 9l-10 1l5 6l-11 16l13 -4l-2 -9l5 5l1 4l-4 8l3 -1l3 -7l13 4l4 -4l-6 -4l16 7l-16 -17l35 22l-15 -5v1l37 18l18 18v10l20 13l-7 6l-10 25l12 -3l9 7l-4 -19l26 5v-2l-18 -7l-3 -12l48 31l14 4l-6 11l15 20l-6 41l15 39l-28 43v17l-17 15
l-8 129l-24 -3l-60 31l-8 -9l-15 3l-14 -6l-9 3l-27 -16l-22 13l-10 -4l-10 7l-15 -19l-4 16l-16 -10l-16 14l-17 -8l-13 20l-27 -9l-6 9l-38 6l-16 17l-3 -4h-15l-26 15z" />
    <glyph glyph-name="r" unicode="r" horiz-adv-x="696" 
d="M236 595l2 3l-2 3l-1 -1zM278 576v15l-8 15v-16zM261 615l-3 8l-5 -2zM113 746l-42 2l-21 -745l298 -5l298 5l-15 595l-226 -3v148zM201 691l10 7l9 -7l-4 -21l10 -10l14 -2l10 -33l8 5l-5 33l13 -2v-8h25l-5 -8l-16 1l-9 -10l7 -1l17 -30l20 -15l-22 -14l-7 -15l-18 -13
l-7 3l-10 35l-6 -16l-9 16l-15 10l-1 27l-7 13l-8 9l-7 -9l-5 2l8 7l-8 30l5 5l-5 6z" />
    <glyph glyph-name="s" unicode="s" horiz-adv-x="1150" 
d="M1023 158l-5 -2l4 -4h1v6zM1034 260l1 3v9l-7 -12h6zM1045 285l4 9l2 1l-7 -8zM1078 367l7 17l-33 -3l-12 -16l9 -10l-15 -5l-2 -20l-14 -11l-10 -46l8 -27l7 12l4 -7l7 43l11 8l-5 2l5 7l6 -9l7 6zM1090 365l10 24l-19 -27h5zM776 555l-58 44l-10 -44l-54 -57l-16 9
l-36 -67l-27 9l-3 15l-14 6l-19 -52l-61 -90l7 -10l-9 -17l-20 -14l-9 7l-27 -12l-14 5l-3 -14l-44 -10l-18 14l-27 -19l-43 27l-3 26l-47 -38l-43 -22l-26 -36l-25 -5l-9 -15l-68 -19l446 -27h258l254 3l-2 7l10 -7v30l16 -30l-19 58l-41 5l2 -15l-10 5l-19 -5l7 15l-23 14
l-3 22l-8 -5l-29 12l-7 9l-7 -4l-24 5l2 7l26 -10l4 7l9 -14l10 14l16 -21l11 5l30 -37l13 5l5 14l-8 1l3 6l-10 13l-19 5l-34 38l2 3l42 -41l11 4l-9 6l4 19l18 -20l2 29l-19 3l12 7l-30 10l-52 68l-24 12l9 2l15 -12l55 -68l5 8l20 -10l-5 34l12 -5v14l-35 17l-9 20
l-17 -1l-26 10l-15 17l7 3l-3 9l-40 -9l9 4l-11 10l7 -5l9 37l8 -1l2 10l12 7v24l-27 23l-28 12l6 15l-14 13l-21 3z" />
    <glyph glyph-name="t" unicode="t" horiz-adv-x="581" 
d="M522 645v7l-23 50l6 22l25 33l-6 27l7 14l-455 -4l2 -22l-11 -30l11 -24l-12 -57l21 -61l-11 -31l2 -41l-14 -16l-14 -48l17 -98l-17 -60l3 -14l16 19h11l16 -25l-13 -259l9 -20l201 -9l-19 36l-3 16l8 34l12 12l11 85l8 17l4 88l13 20l7 38l23 24l9 34l20 32l-5 8l17 38
l2 60l16 22l30 2l45 35l19 25l2 18z" />
    <glyph glyph-name="u" unicode="u" horiz-adv-x="1104" 
d="M135 172l2 6l-4 8l-4 -11zM299 294l4 6l-4 4l-6 -4zM279 304v16l2 6l-10 -12zM335 346l-4 18l-6 -10l-2 -22l8 12l3 -2l-5 -10l14 8zM328 382l-7 20l-4 -20l11 -6v6zM308 466l-5 8l-1 3l1 -18zM319 531l-10 -2l-12 -29l11 -15h7l6 -31h10l10 -15l2 20l-15 13l-5 -16
l-4 36l-17 8l15 15l11 -4zM287 544l-4 19l-7 -16l13 -12zM308 559l1 4l-6 7l-1 -6zM269 555l-12 18l-10 -3l4 -20l20 -7zM287 591h-10l-10 -12l2 -9l2 6l6 -7l8 1l-4 19l10 -19l8 11zM317 579l-3 6l-9 10v-4zM265 643l2 2h-8v-4zM1005 651l-339 -10l-364 2l1 -6l-8 -4l7 -4
l7 -34l12 7l10 -5l6 -33l-3 -3l-13 6l10 -24l-10 6v-6l-7 10l-9 -3l3 -13l3 -5l10 6l4 -12l18 -14v-12h-15l1 -20l18 -14l-13 20l3 14l9 -3l1 -25l20 -12l-15 -15l-12 -27l-5 -26l12 -11l-1 -6l-9 1l10 -40l-13 -18l-13 10l-6 -20l-20 -20l-12 12l-4 -6v6l-6 -20l-4 16
l-10 -10l10 18l-18 -16l8 8h-8l2 2l12 6l22 40l4 -42l6 32l12 12v-6l-7 -14l15 -8l8 48l-6 12l-16 -10l6 10l-7 8l1 6l12 -14l-7 29l7 -9l6 10l10 2l-8 29l-9 7l5 -24l-8 6l-18 -34l-24 -12l-22 -38l8 -4l28 12l-30 -16l-12 2l42 72l-2 14l4 -8l4 12v-30l25 36l-21 38l2 11
l-14 -4l6 -14l-6 -9l-5 21l-15 -11l-16 20l6 6l-18 -12l-84 12l-96 46l8 -12l-11 -32l5 -29l36 -67l3 -54l14 -32v-48l12 22l13 -14l22 -6l-29 -10v-12l-12 14l5 -34l26 1l16 -12l-9 -1l-7 6l-2 -19l-8 5l5 -14l-3 -15l12 -9l-10 3l-6 -9l-10 47l-9 -67l12 6l19 -12l22 9
l11 -8h21l18 -20l24 5l18 -11l22 -30l8 -62l60 -16l63 28l68 -4l16 -16l32 4l36 16l52 2l38 19l37 7l12 10l61 6l12 9l278 11l-12 18l6 12l-6 18l-14 20z" />
    <glyph glyph-name="v" unicode="v" horiz-adv-x="842" 
d="M770 494l-11 -17l-15 -6l-3 -21l-13 -16l-1 -13l9 -12l19 23l-1 7l17 23l-7 7l7 -2l-1 18l8 2l-2 7h-6zM782 515l-4 -12h13l1 11zM316 749l18 10l-2 6l-25 -20zM338 775l3 4l-16 -6l13 -3v5zM306 777l-8 5l-10 -5l-18 -14l-12 5l-24 -18l-46 -14l-21 -2l-16 16l-15 -19
h-8l-2 -102l-9 -8h-9l-36 -20l-22 -36v-23l16 -1l10 -26l-14 -22v-29l-6 -9l6 -26l-9 -31l27 -25l24 -5l13 -19l23 -8l20 -18l16 -32l19 -17l31 -9l14 -16l5 -34v-46l5 -18l14 -10l-10 -27l10 -64l10 -15l40 -10l6 -25h370l1 51l-17 42l-2 42l24 78l-5 41l11 29l18 18l-8 22
l24 84l-14 14l-16 -7l-22 -33l-20 -20l-8 -2l-8 6l24 60l24 14l6 20l-16 14l5 34l-25 -2l9 21l-1 34l-11 11l-27 7l2 14l-12 13l-43 12l-37 2l-34 18l-123 33l-13 31l-19 5l-3 9l-20 2l-22 17l-3 -11l-19 -5l22 50zM320 773v4l-6 4l-3 -4zM290 782l3 4l-3 3l-4 -5zM354 789
v4v7l-8 -14z" />
    <glyph glyph-name="w" unicode="w" horiz-adv-x="1018" 
d="M645 579h-193l3 222l-27 -9l11 -34l-5 -19l5 -16l-25 -58l-4 -35l-9 -2v-13l-13 -24l7 -12l-10 -21l-64 -53l-27 -13l-9 15h-10l-14 -15l-8 -17h-18l-12 -22v-16l-14 -6l9 -35l-11 4l-14 -18l-8 28l-11 8l-10 -5l-30 -52l3 -40l-18 -5l-11 -35l-47 -4l1 -42l-12 -22
l29 -43l-2 -9l33 -62l33 -29l29 -8l-5 -16l27 -43l34 -20l20 -2l39 32l23 -23l67 17l7 23l20 -11l40 22l16 -11l29 21l-2 13l17 12l-14 15l17 31l39 45l17 43l21 21l30 76l19 -6l6 -20l43 -14l53 102l24 -13l22 33h13l18 15l29 41l3 25l15 45l92 -73l17 46l-3 22l-11 6l8 13
l-11 -2l-2 12l-4 -8l-4 13l8 3l-3 8l-24 -4l-38 26l-19 -17l-27 -4l3 -6l-6 -3l3 -7l-5 -6l-41 5l-13 5l2 9l-7 5l-6 -16l-27 -27l-17 6l-11 -3l-33 -38l-37 -24z" />
    <glyph glyph-name="x" unicode="x" horiz-adv-x="1056" 
d="M1002 361l-5 361l-458 4l-440 23l-49 -723l467 -23l489 -4z" />
    <glyph glyph-name="y" unicode="y" horiz-adv-x="825" 
d="M775 425l-533 342l-192 -286l151 -77l41 -35l150 -52l66 -197l28 -142z" />
    <glyph glyph-name="z" unicode="z" horiz-adv-x="1232" 
d="M992 74h-1l-2 -2h3v2zM980 71v-1v1zM989 72h-1v-1zM1005 79v2l-1 -2h1zM1007 81v1l-1 -3zM1010 83h1h-1zM1013 84v1v-1zM1014 85v2v-2zM993 77l1 -2h-1l-1 -1l2 1zM1000 77l1 1zM995 77h-1h1zM1000 78h-2h2zM998 77l-1 1l-2 1l3 -4v2zM1002 94v1v-1zM1021 101v2v1v-3z
M1019 94l2 4l-2 -1v-1l-4 -9zM1021 108v1v-1zM854 209h1h-4l-13 -4h1zM956 147h-1h1zM617 124l4 6v1l-1 -1zM633 139l3 3l-2 -2zM1000 172l-2 1zM631 137v2l-8 -6l-2 -3l4 3zM998 182l-3 -3l3 -6l-1 5zM949 178h1h-1zM949 178l1 1h-1v-1zM758 163h1h-1zM764 165l-3 -2h3v2z
M770 165h-2h2zM773 165h-1h1zM668 165h-1l-7 -6l9 6h-1zM779 170h1v2zM768 169l2 1h-2v-1zM781 172h-1h1zM776 176l3 -1v1h-3zM797 178h1v1zM799 179l1 2zM993 107l-2 1v-1h2zM991 108h-2v-1h2v1zM988 108v-1v1zM985 108h-1l1 -1v1zM972 121l-3 1l2 -1h4h-3zM972 122l-1 4
h-2zM958 142l-3 2zM615 78l-5 22v7v-3v-8zM968 124v2v-2zM967 127v2v-3v1zM614 118l3 5l-3 -5h-2l-2 -11l2 7zM1015 148l-8 12l-2 3l6 -10zM968 235v2v4l-1 -3zM737 173l1 2l-4 3l-2 -3l3 -2h2zM901 199l1 1l-2 -1h1zM890 195h-1h-1l2 -1v1zM893 194l7 4l-10 -4l1 -2z
M803 185v1l-1 -1h1zM794 189h2v2zM793 189l1 2zM812 200h-1v-1zM800 199v-1v1zM798 199h-2l2 -1v1zM796 195v1l-4 -2l4 -2v3zM793 187l1 -1v1h-1zM790 186l-1 -1h3zM805 188v4l-2 3l2 -8v1zM810 199l-4 1h-1zM820 201l-5 -1zM1069 373l2 3l-5 -3v-3zM1075 377l1 4l-1 6l-3 4
l3 -11l-4 -4zM1070 393l-1 2h-2zM1063 368l2 1l1 1h-1zM102 329h-1h-1l2 -1v1zM1057 357l-3 1zM1040 351l-1 -1l-3 -3v-2l1 3zM1032 339v-2v1v1zM1031 332l-1 -1v-1h1v2zM108 326l-4 2l1 -4l4 1zM115 305h-1l4 -2l-1 1zM113 326l-3 2l3 -4l7 1l-2 1h-5zM1005 303v1v-1z
M139 289l-3 6h-1l1 -5zM141 304l-5 2l3 -1v-3h4zM1058 357l1 4l4 6l-4 -6zM1054 358h-1l-4 -1l-4 -2l5 2zM1076 495l2 3v2l-2 -6v1zM1075 490l1 3l-3 -3h2zM1162 646l-2 3l-2 -5l3 -1v3h1zM1156 642h-3v-2l3 1v1zM1153 636v1l-3 1l1 -2h2zM1148 563v-3l-3 -1l5 1zM1140 560
v2l-2 -2h2zM1136 562l-4 -4h2l4 2zM1121 558l1 1l-1 1v-1v-1zM1123 559v3v1l-1 -5zM1148 566v3v-3zM965 564h-3l1 -1l2 -1v2zM1011 599v2v-3v1zM1013 607h-2v-2zM1015 610l-2 -2l1 -1l1 1v2zM637 688l1 -6l3 1v3zM799 601v-3h1v3h-1zM819 594v1l-1 2v-3h1zM822 603h-2v1v-2z
M816 591l2 1h-2v-1zM798 597l-6 -9l2 -4l4 8v3h1zM863 624l-4 3v-2l-2 -2l5 -2zM850 629l-1 1v-1h1zM850 630v6h-2l-2 -2zM802 628l-2 2v-2h3h-1zM825 608l1 4h-1l-1 -4h1zM846 621l2 -1zM848 616l-2 1l-2 -1l2 -1zM826 614l-1 1v-1h1zM94 660v2v1v-1v-2zM724 628l3 1l-2 1
l-3 -3zM727 631v2l-3 -2h3zM126 683l1 3l-1 2l-2 -5h2zM724 631l-2 2v-2h2zM118 675v2h-1zM779 650l-2 1l-9 -2l-5 -6v-2h3l1 1v-2h-1l1 -3l3 6l4 4l-1 2zM729 634v2l-1 -2h1zM121 673v2l-1 -2h1zM719 631l1 2h-1v-2zM127 679v2h-1l-2 -4zM761 667l-10 -7l-1 -3l5 2h-1l6 4z
M126 695l-2 1v-1h2zM128 705l-4 -4l3 -3v-4l3 -2l1 2l-3 2l-1 -2l1 5l-2 2h4zM130 709v2l-2 1zM122 708l-2 3v-3l2 -1v1zM126 712l-2 2l-2 -3l2 -2v3l2 -3l1 2zM123 720h-1h1zM124 707v2l-1 -2l1 -1v1zM127 708h1l-1 1v-1zM1119 549v1v1l-1 -2h1zM1110 550l1 1zM1089 527h-1
l-4 -2l2 1zM1092 527l6 6l-9 -6v-1zM1073 524l-2 -1v-4l2 4v1zM1106 545l-7 -6l-19 -6v-3l-1 2v-3l-4 -2l-2 -3l2 -1l4 2l-1 -2l5 2l-3 -1l21 10l-3 -1l16 13l-4 -4l-1 1v-1h-4l-1 -4l-5 -1zM885 525v1v1v-2zM1067 460l-1 7l-3 -2l2 2l-2 2l2 -1v3l-7 2l-9 17l3 7l4 2l2 4
l-1 -4l-5 -4l-3 -5l1 -3l10 -6l6 1v-7l3 2l3 9h-2l3 2l-1 2v1h1v3h2l3 5v9v-1v-6h1l-1 13l-2 6v-3l-6 2l1 4l2 2l2 7l-4 8l2 -2l2 -4l-2 -9l2 2l3 2l1 5l10 8l3 4l9 1l3 2l-2 1l3 -1l3 2l11 4v11l3 -1v-2v2h1l1 1l-1 -3l1 -4l3 3v-2l3 2v2h1l1 4h3v-5l3 3l10 5l-1 4l-4 4
l-5 -1h5l1 -2h1v-3l-4 -2l-1 -2l1 2h-5l-1 4h-4v2l1 -1l-4 3l-4 2h1l-1 -2l-2 2l1 1v3h1l-1 3l5 3v1l-1 -2l-2 1l-3 3l1 9l1 -1v6l4 6l-1 2l3 1l-3 1l4 7l1 -2l2 4l2 -4l-1 5l-1 1l1 2l2 -7l-1 4l1 3v-3l3 -1l-2 4l2 -4l3 7v-3l2 2v-3l2 1l1 12l-1 1l2 3v2h1v-5l1 2l-1 -3
l7 -1l-3 5h3l-1 3l2 -3l2 3l-2 1l3 -1v1l3 -4v6l2 -3v3l1 -3v5l2 -1v2l1 -2v1h3v2h1v2l1 -2v5l2 -3l2 1l3 6l-3 1l1 -1l-1 1l-2 -3l-1 3l3 2l-4 4l-2 -1l-4 1l-2 9h-7l-11 34l-9 4h-3l-9 -8l-3 2l-1 4h-3l-10 -23l1 -7l-2 -7l2 -6l-1 -6l-3 -5l-2 -2l3 -2l-4 -1v-4l-3 1
l-3 -2h-2l-2 -3l1 -5l-65 -16l-5 -5l-7 -9l-2 -6l-9 -8l2 -3l3 2v-2h2l-4 -4l4 -4l-1 -3l-4 -2l-8 -9l-13 -2l-10 1l-18 -7l1 -4l3 -1l2 -6l-12 -13l-14 -12l-18 -12l-8 -7l-5 -1l-8 -3l-5 1l1 -1h-9l8 2l-4 1l-3 -1l-10 2l5 9l-1 2l1 5l4 4v6l2 2h2v-4l3 1v11l-7 21l-5 5
h-3l-7 -4l1 -1l-3 -6l-4 -2l-5 2l1 7l4 3l2 4l2 3v12l-4 5v2h3l-3 4l-14 5l-4 4h-5l-6 2l-3 -1l1 -1l-2 -7l3 -2l-7 -4v-7l-2 -6v4l-3 -4l-1 1l1 9l-3 -7h-3l-2 -1v-5l-3 -1l1 -8l-4 -10l1 -6l-1 -5l6 -9l1 1v-1l3 -7v-13l-6 -16l-7 -6l-4 -3l-7 5l-6 11v15l-5 5l-1 6l4 12
l-1 5l4 8l-1 3l2 13l-2 2l-5 -2l-4 -8l-2 1v2l3 7l3 3v3l9 15l1 7l1 -7l2 5l6 2l-3 -7l2 -2l6 11h7l5 1l1 4l11 -1l4 -3l2 6l3 -2h1l10 2l-3 4l-4 1h2l-4 6l-5 -3l-2 2l-2 -2l-5 2l1 7l-10 -4l-12 -2l-9 -7l-3 1l-1 -1l-2 2l-9 -1l-4 6l-4 2h-7l-2 -3l2 4l-5 -6v6l-4 4l-2 2
l-4 -6l-7 -4l-9 -3l-12 -7l-7 2v-1l-2 -1l2 7l-1 1l-10 -4l-10 -3l-3 3l23 22l21 11h-4l-3 -1l-3 4l-12 -3l-2 4l-7 -5h-5l-11 7l-3 -2l-2 -2l-2 5h-5v2l-10 1l-10 -2l-1 2l-15 2l-1 4l-5 3l-5 -3l-2 3l-70 -3l-70 1l-69 3l-73 5l-113 14l-111 20l-1 -1l1 -6h5v-4h-3l1 -3
l-3 2l-1 -1l3 -1l3 -4l-2 -2h-1v-3l1 -2l-1 4l1 1l3 -6l-6 -4v-12l-2 -1l-2 1l-1 -2l-3 -3l-2 3l-1 -3l-2 3l-1 -2l3 2h-4l7 5v-5l3 5v-1l-2 -2l2 -1l3 6v1l-4 -1l1 3l1 -2v5v-2l2 2h1l-1 5v-3l-4 -4h-4l-4 -5h6l-6 -1l-1 1l8 8v3v-4l5 4l-3 4l1 2h-2v-3l-1 3l-1 -2l-2 5
l-3 -2l-13 4l-13 9l-1 -10l4 -9v-18l2 2l4 -4l-4 -1l1 -2l-3 3v-5l6 -2h-3v-6h-1v-1l-2 8l-3 -10l8 -1l4 -1l3 -4h3h-3l-3 3h-5h-2l1 -1l-4 2l1 -4l-4 -7l1 -2h2l-3 -2l1 -3h-1v1l-6 -17v-6l-3 -3l2 -1l-3 -3l-4 -16h1l-3 -1l-3 -5l3 2v-3l-1 1l-2 -2l-1 1l-7 -12l2 -5
l-2 -8v-7l2 -3l-2 -5l2 -3v-6l-4 -9v-3l-3 -5l3 1l-3 -4l-1 1l-5 -6v-5l7 -8l1 -10l-1 -7v-7l-1 -5l10 -15l4 -9l-2 3l-3 -6l3 3l7 -10l1 1v7h3l4 -4l4 3l1 -3l6 2l-3 -3l4 1l2 -4l-2 4l-3 -3l-9 3l-1 2l-3 -2l-1 -1l1 -2v-2l2 -1l2 -10h-1l-6 6v5h-2l-2 -6l3 -12l4 -4l4 -2
l1 -3l-1 -5l-4 -2l2 -7l6 -10l2 -9l8 -7l-1 -6l4 -3l-3 -15l4 -4l19 -4l6 -5l2 -5l7 -4h6l2 -8l5 -1l12 -13l3 -8v-9l3 -2v-1l-3 1l2 -3l54 -3l-4 -5l82 -42l64 -5l2 12l40 -3l4 -7l5 -4l13 -15l9 -6l7 -12l-2 -6l4 -8l11 -10l6 -1l9 -6l5 -1l4 4l3 1v3l4 11h8l1 4l5 -3
l15 -1l3 -5l2 1l1 -2l4 -2l8 -10l1 -4l6 -12l1 -6l6 -3l5 -10l8 -5l1 -13l5 -7l4 -11l7 -1l3 -3h6l5 -4l13 -2l8 -5v2l5 2v3l-2 -2l1 2l-3 1l-1 6l-3 4h2l-3 8l-2 1v1l2 -1l-2 4h2l1 7h-7l2 1l-2 4l2 -4l4 2v-1l-2 -1l3 1l4 10l-4 2v1l-3 1l9 -1l3 7l-2 -3l-3 3l2 3l3 1
l1 -3l2 4l-2 -4l2 2l3 1l-2 5h2v1l2 -4l6 4h-3l1 2l-2 1l-2 4l5 -1l-1 -3l1 1l1 2l-1 2h1l2 -2l4 1l-1 -1h2l-2 -2l5 2l-5 -4l11 6l-5 -2v1l8 2l10 8l-1 4h1l7 5l-3 2l2 1l-3 1v3l-1 2l4 -1l2 2l1 -1l-1 -5l7 2v-2l-6 -1l-1 -3l15 9h6l-3 4l3 4h3l-2 -4h-2l1 -3l14 3l13 -4
l9 -1l7 2h-3v3l-1 -1l-1 3l8 1v-3l5 2l2 -6l3 1l3 -2l2 4v-4l4 -5l-1 -1l-3 4l-2 -3l11 -3v2l2 -3l3 1l2 4h2v3l2 -4l1 3l2 -2l1 -4l5 6v3l-6 1l1 3l6 -3h3l1 -2l-1 -1l4 1v-2h5l2 -4l2 2l-3 -7l4 6l2 -3l3 4h-2h2l-3 2l-2 3v-1l-4 1h1h-5v1l-5 5l2 1l-1 1l5 -1l-4 3l3 2
l3 -1h1v2l-3 1l2 2h-2l2 3h-3l-4 -7l-4 4l3 1l1 3l-2 -1v1v-1l-3 1l-3 -3l-4 -1l-5 1l-1 3l5 5l14 -5l3 1l3 5l2 -1l8 4h-3h1l5 -2l4 2l2 -2l2 3l6 -3l1 12l3 -3l1 -4h1l3 -5l-6 -2l9 2h1l-1 3h4v4l2 -1l-4 -4l4 1l4 4l-2 3l3 -3l2 4l1 -1l-1 -1l4 -2l-7 -2l9 2h4l1 4l3 -1
l4 1l2 -2h-2l-7 -2l10 -1l10 -4l-4 4l3 1l1 -1l2 3v-2l-2 -2l3 -3l2 1l1 -3l2 2l-2 -2l-5 3l8 -6l1 -5l-2 4l1 -3l1 -1l8 2l3 3v-3l7 6h3h1v2l-4 1l3 -1l-2 1l5 4h5l8 -4l4 -4l3 -1v-4l11 -8h5l5 -6l2 -12l-2 -17l3 -4v3l-3 1l4 -3l1 6l-3 1l2 2l-1 1l3 -3v-2l3 2l2 -2
l-5 -8h-1l1 -1l-1 1v-3l-1 2v-2l4 -1l8 -13h3l-3 4l3 -1l5 2l-3 -2l3 -11l5 7l-4 -7l4 -1l2 -10l4 -1l-1 -2l3 1l6 -2l7 -11l6 -2l-2 -2l1 2h-3l-1 1l-1 -1v-2l2 -2l5 2h4l3 3h5v12l2 7v-4l-2 27l-4 10l-4 1h3v-1l-6 8l-1 4l-12 16l-3 11h2v-4h4l2 -10l5 -9l-5 10l1 6l-4 4
l-9 11l-12 19l-5 14l-3 3v1l1 -1v4h-1l-1 4l1 2h-2l2 1l-2 3l2 -1v1h-2l1 3l1 -1l3 4l-5 1h3l-1 2l1 -1l3 5l-3 -3l-1 3l3 2l-2 1l3 -3v3h-3v1l-1 2h4l2 2h-3v1h4v3l3 1l-3 2l3 5v-1v-3l2 4l-4 2l-2 6l2 -2l2 -4h1v4l1 -5l4 2v2l-3 -2l3 3h-4l2 2h-3l2 1l6 -1l1 2l-1 2l2 -2
l4 3l2 2l-2 1v3l2 -3l6 6l-1 3l5 1v1l1 1l-1 1l1 -1l1 3l-2 1v3l1 3l-1 -4l2 -2v6l7 10l7 6h9v8l1 -1v-6l2 11l4 5l3 3l-1 1l1 2l-3 2l3 -2l-1 -2h2l3 4v1l1 -1l8 2h-1l1 3l3 -3l-2 3l3 -1l3 4v4h-1v-1l-2 -2v4v-2h-3l2 -2l-3 2l-1 -3h-6l-3 4l7 -3l4 5v1l-2 -1l4 4l-12 2
l-3 2l11 -1l-2 3l4 1l-2 -1l2 -3l2 3l1 -3v1l5 -1l4 9l3 -2v9l-4 2v-2h-3v-7h-3l3 1l-3 2l1 1v4l-4 -1v-2l-3 2l-7 -3l-2 10l1 -1l1 -5l3 -1l5 3l-4 1l6 -1l-2 3l3 -2l2 2l-3 4l6 -3l-2 3l5 -6l-5 10v-3l-1 2l-1 2l-1 1l3 -1l-1 2l-1 -1v4l9 -17l5 -3l-7 10l-5 7l-4 9h-7
l1 -3h-3l-2 -1v2l-4 3l-1 2l-1 -1l-6 1l-1 1h-5l5 2l2 -3l2 3l3 -3l2 1l5 -4l3 1l-3 5h-3l-7 5v2l8 -6h2l-2 4l3 -2v5h-3l2 1l-5 1l-11 10l-4 1h1l3 -1l11 -10v1l4 -1l-1 7l1 -1v2l-6 2l-2 3h-7l-4 4l-3 -3h-3v10l4 2l-1 4h1v-5l-3 -4v-5h2l3 4l4 -6v5l2 -5h4l3 -2v2l4 -2
l-3 5l-6 3l-1 3l-1 3l1 -5l7 -2l-6 10v4l-1 1h3l-4 3h4h-3h1l-1 2l-3 1h4l-2 3l2 -1l-1 1l1 2l-1 1h3v-1l1 4v-3l3 3v2l3 2l-2 -3l3 3v-2l1 -1h-2l-2 -3h4l-6 -2l-2 -5l3 -3l3 3l-2 -3h-4v-4l3 3l3 -2l-2 -1l2 -3l-4 2v-5l1 3l5 -3l1 2l-1 -3h-5l1 -1h2l-2 -2h-1l4 -4v2
l3 -4l2 4v-2l1 4v-4h2l-2 -3h4l-1 -5l5 1l-2 -1l2 -1l-2 -2v-4l-2 -3v-8l2 -3l1 3v-2v8l3 2l2 16l4 7l-1 2l1 1zM1125 560v2v-2zM1122 565h-1h1zM1118 569v-1v1zM1118 568h1h-1zM1119 568v-2v2zM1000 144l4 -1l1 -3l-1 -7h-4l-6 4zM1119 566l2 -1zM1059 433v1v-1zM1058 428
v2l-1 -2h1zM1065 447l2 12l-4 -13zM1050 447h-1v-1zM1049 451l-2 1v-1h2z" />
    <glyph glyph-name="space" unicode=" " horiz-adv-x="600" 
 />
    <glyph glyph-name="newGlyph.001" horiz-adv-x="600" 
 />
  </font>
</defs>
</svg>
