<?xml version="1.0" standalone="no"?>
<!DOCTYPE svg PUBLIC "-//W3C//DTD SVG 1.1//EN" "http://www.w3.org/Graphics/SVG/1.1/DTD/svg11.dtd" >
<svg xmlns="http://www.w3.org/2000/svg" xmlns:xlink="http://www.w3.org/1999/xlink" version="1.1">
<metadata>
Created by FontForge 20201107 at Fri Apr 12 17:43:48 2024
 By Glenn Lewis
Copyright (c) Qwerasd 2024
</metadata>
<defs>
<font id="PixelCode-BlackItalic" horiz-adv-x="672" >
  <font-face 
    font-family="Pixel Code Black"
    font-weight="900"
    font-style="italic"
    font-stretch="normal"
    units-per-em="1008"
    panose-1="2 0 0 9 0 0 0 5 0 3"
    ascent="806"
    descent="-202"
    x-height="605"
    cap-height="829"
    bbox="-56 -224 1584 1165"
    underline-thickness="112"
    underline-position="-280"
    slope="-14"
    unicode-range="U+0020-1FBF9"
  />
<missing-glyph 
d="M431 829h201l-28 -112h112l-28 -112h112l-33 -135l-28 -112l-28 -112l-33 -134h-112l-28 -112h-112l-28 -112h-202l28 112h-112l28 112h-112l33 134l56 224l34 135h112l28 112h112zM462 683l-23 -89h67l23 89h-67zM322 571l-23 -89h67l23 89h-67zM546 571l-26 -101
l-25 -100h68l25 100l25 101h-67zM378 347l-23 -89h68l22 89h-67zM322 123l-22 -89h67l22 89h-67z" />
    <glyph glyph-name="bar_bar" unicode="&#x7c;&#x7c;" 
 />
    <glyph glyph-name="hyphen_bar_equal" unicode="&#x2d;&#x7c;&#x3d;" 
 />
    <glyph glyph-name="colon_slash_slash" unicode="&#x3a;&#x2f;&#x2f;" 
 />
    <glyph glyph-name="equal_equal_equal" unicode="&#x3d;&#x3d;&#x3d;" 
 />
    <glyph glyph-name="hyphen_hyphen_greater" unicode="&#x2d;&#x2d;&#x3e;" 
 />
    <glyph glyph-name="less_exclam_hyphen_hyphen" unicode="&#x3c;&#x21;&#x2d;&#x2d;" 
 />
    <glyph glyph-name="plus_bar_equal" unicode="&#x2b;&#x7c;&#x3d;" 
 />
    <glyph glyph-name="slash_slash_slash" unicode="&#x2f;&#x2f;&#x2f;" 
 />
    <glyph glyph-name="exclam_equal_equal" unicode="&#x21;&#x3d;&#x3d;" 
 />
    <glyph glyph-name="slash_asterisk" unicode="&#x2f;&#x2a;" 
 />
    <glyph glyph-name="equal_greater" unicode="&#x3d;&#x3e;" 
 />
    <glyph glyph-name="asterisk_equal" unicode="&#x2a;&#x3d;" 
 />
    <glyph glyph-name="less_hyphen" unicode="&#x3c;&#x2d;" 
 />
    <glyph glyph-name="equal_equal" unicode="&#x3d;&#x3d;" 
 />
    <glyph glyph-name="less_less_bar_equal" unicode="&#x3c;&#x3c;&#x7c;&#x3d;" 
 />
    <glyph glyph-name="colon_colon" unicode="&#x3a;&#x3a;" 
 />
    <glyph glyph-name="asterisk_slash" unicode="&#x2a;&#x2f;" 
 />
    <glyph glyph-name="asterisk_asterisk" unicode="&#x2a;&#x2a;" 
 />
    <glyph glyph-name="slash_equal" unicode="&#x2f;&#x3d;" 
 />
    <glyph glyph-name="asterisk_bar_equal" unicode="&#x2a;&#x7c;&#x3d;" 
 />
    <glyph glyph-name="question_period" unicode="&#x3f;&#x2e;" 
 />
    <glyph glyph-name="less_less_equal" unicode="&#x3c;&#x3c;&#x3d;" 
 />
    <glyph glyph-name="greater_equal" unicode="&#x3e;&#x3d;" 
 />
    <glyph glyph-name="less_equal" unicode="&#x3c;&#x3d;" 
 />
    <glyph glyph-name="greater_greater_equal" unicode="&#x3e;&#x3e;&#x3d;" 
 />
    <glyph glyph-name="bar_equal" unicode="&#x7c;&#x3d;" 
 />
    <glyph glyph-name="exclam_equal" unicode="&#x21;&#x3d;" 
 />
    <glyph glyph-name="colon_equal" unicode="&#x3a;&#x3d;" 
 />
    <glyph glyph-name="hyphen_greater" unicode="&#x2d;&#x3e;" 
 />
    <glyph glyph-name="slash_slash" unicode="&#x2f;&#x2f;" 
 />
    <glyph glyph-name=".notdef" 
d="M431 829h201l-28 -112h112l-28 -112h112l-33 -135l-28 -112l-28 -112l-33 -134h-112l-28 -112h-112l-28 -112h-202l28 112h-112l28 112h-112l33 134l56 224l34 135h112l28 112h112zM462 683l-23 -89h67l23 89h-67zM322 571l-23 -89h67l23 89h-67zM546 571l-26 -101
l-25 -100h68l25 100l25 101h-67zM378 347l-23 -89h68l22 89h-67zM322 123l-22 -89h67l22 89h-67z" />
    <glyph glyph-name="uni2705" unicode="&#x2705;" horiz-adv-x="1344" 
d="M459 941h873l-28 -112h112l-33 -135l-84 -336l-28 -112l-28 -112l-33 -134h-112l-28 -112h-874l28 112h-112l34 134l139 560l34 135h112zM1049 795l-27 -112h-112l-26 -101l-30 -123h-112l-25 -101l-31 -123h-157l28 112h-67l-25 -101l-25 -100h112l-28 -112h67l28 112
h112l25 100l31 124h112l25 100l30 124h112l26 100l25 101h-68z" />
    <glyph glyph-name="uni270C" unicode="&#x270c;" 
d="M291 717h201l-33 -135l-23 -89h23l22 89l34 135h201l-33 -135l-34 -134h-112l-16 -67h224l-34 -135l-33 -134h-112l-28 -112h-426l28 112h-112l33 134l28 112l34 135h112l22 89zM378 347l-23 -89h68l22 89h-67zM462 235l-22 -89h67l22 89h-67z" />
    <glyph glyph-name="uni2713" unicode="&#x2713;" 
d="M655 829h201l-39 -157h-112l-22 -90l-34 -134h-112l-22 -90l-34 -134h-112l-22 -90l-33 -134h-202l34 134l22 90h-112l39 157h202l-28 -112h22l22 89l34 135h112l22 89l34 135h112z" />
    <glyph glyph-name="uni2714" unicode="&#x2714;" 
d="M655 829h201l-33 -135l-34 -134h-112l-22 -90l-34 -134h-112l-22 -90l-33 -134h-112l-28 -112h-202l28 112h-112l33 134l34 135h202l-28 -112h22l22 89l34 135h112l22 89l34 135h112z" />
    <glyph glyph-name="uni2715" unicode="&#x2715;" 
d="M151 605h201l-28 -112h112l-27 -112h22l28 112h112l28 112h201l-39 -157h-112l-28 -112h-112l-16 -67h112l-28 -112h112l-39 -157h-202l28 112h-112l28 112h-23l-27 -112h-112l-28 -112h-202l39 157h112l28 112h112l17 67h-112l28 112h-112z" />
    <glyph glyph-name="uni2716" unicode="&#x2716;" 
d="M207 829h201l-28 -112h112l-28 -112h23l28 112h112l28 112h201l-33 -135l-34 -134h-112l-28 -112h-112l-16 -67h112l-28 -112h112l-34 -135l-33 -134h-202l28 112h-112l28 112h-23l-27 -112h-112l-28 -112h-202l67 269h112l28 112h112l17 67h-112l28 112h-112l33 134z
" />
    <glyph glyph-name="uni2717" unicode="&#x2717;" 
d="M655 829h201l-39 -157h-112l-22 -90l-34 -134h-112l-16 -67h112l-28 -112h112l-39 -157h-202l28 112h-112l28 112h-23l-22 -90l-33 -134h-112l-28 -112h-202l39 157h112l22 89l34 135h112l17 67h-112l28 112h-112l39 157h201l-28 -112h112l-28 -112h23l22 89l34 135h112z
" />
    <glyph glyph-name="uni2718" unicode="&#x2718;" 
d="M655 829h201l-33 -135l-34 -134h-112l-28 -112h-112l-16 -67h112l-28 -112h112l-39 -157h-314l28 112h-23l-27 -112h-112l-28 -112h-202l67 269h112l28 112h112l17 67h-112l28 112h-112l39 157h313l-28 -112h23l28 112h112z" />
    <glyph glyph-name="uni2728" unicode="&#x2728;" horiz-adv-x="1344" 
d="M571 941h201l-28 -112h112l-39 -157h-112l-28 -112h-201l28 112h-112l39 157h112zM991 829h201l-33 -135l-23 -89h112l-28 -112h224l-39 -157h-224l-28 -112h-112l-22 -90l-33 -134h-202l34 134l22 90h-112l28 112h-224l39 157h224l28 112h112l22 89zM601 795l-22 -89h67
l23 89h-68zM994 571l-28 -112h-112l-23 -89h112l-28 -112h68l28 112h112l22 89h-112l28 112h-67zM319 381h202l-34 -135l-22 -89h224l-39 -157h-224l-23 -90l-33 -134h-202l34 134l22 90h-224l39 157h224l22 89zM322 123l-22 -89h67l22 89h-67z" />
    <glyph glyph-name="uni274C" unicode="&#x274c;" horiz-adv-x="1344" 
d="M347 941h313l-28 -112h112l-28 -112h112l-28 -112h23l28 112h112l28 112h112l28 112h313l-33 -135l-34 -134h-112l-28 -112h-112l-28 -112h-112l-16 -67h112l-28 -112h112l-28 -112h112l-34 -135l-33 -134h-314l28 112h-112l28 112h-112l28 112h-23l-27 -112h-112
l-28 -112h-112l-28 -112h-314l67 269h112l28 112h112l28 112h112l17 67h-112l28 112h-112l28 112h-112l33 134z" />
    <glyph glyph-name="uni274E" unicode="&#x274e;" horiz-adv-x="1344" 
d="M459 941h873l-28 -112h112l-33 -135l-84 -336l-28 -112l-28 -112l-33 -134h-112l-28 -112h-874l28 112h-112l34 134l139 560l34 135h112zM601 795l-25 -101l-25 -100h112l-28 -112h112l-33 -135h-112l-28 -112h-112l-25 -101l-25 -100h67l28 112h112l28 112h156l-27 -112
h112l-28 -112h67l25 100l25 101h-112l28 112h-112l33 135h112l28 112h112l26 100l25 101h-68l-27 -112h-112l-28 -112h-157l28 112h-112l28 112h-68z" />
    <glyph glyph-name="uni274F" unicode="&#x274f;" 
d="M151 605h537l-28 -112h112l-33 -135l-28 -112l-28 -112l-33 -134h-538l28 112h-112l33 134l56 224zM294 459l-25 -101l-26 -100h180l25 100l25 101h-179z" />
    <glyph glyph-name="uni2750" unicode="&#x2750;" 
d="M263 605h537l-33 -135l-28 -112l-28 -112l-33 -134h-112l-28 -112h-538l34 134l55 224l34 135h112zM266 347l-25 -101l-25 -100h179l25 100l25 101h-179z" />
    <glyph glyph-name="uni275B" unicode="&#x275b;" 
d="M431 829h201l-39 -157h-112l-17 -67h224l-33 -135l-34 -134h-313l28 112h-112l33 134l34 135h112z" />
    <glyph glyph-name="uni275C" unicode="&#x275c;" 
d="M319 829h313l-28 -112h112l-33 -135l-34 -134h-112l-28 -112h-201l39 157h112l17 67h-224l33 134z" />
    <glyph glyph-name="uni275D" unicode="&#x275d;" 
d="M319 829h201l-39 -157h-112l-17 -67h112l-33 -135l-34 -134h-313l33 134l28 112l34 135h112zM655 829h201l-39 -157h-112l-17 -67h112l-33 -135l-34 -134h-313l33 134l28 112l34 135h112z" />
    <glyph glyph-name="uni275E" unicode="&#x275e;" 
d="M207 829h313l-33 -135l-28 -112l-34 -134h-112l-28 -112h-201l39 157h112l17 67h-112l33 134zM543 829h313l-33 -135l-28 -112l-34 -134h-112l-28 -112h-201l39 157h112l17 67h-112l33 134z" />
    <glyph glyph-name="uni2762" unicode="&#x2762;" 
d="M431 829h201l-28 -112h112l-33 -135l-28 -112l-34 -134h-112l-28 -112h-201l28 112h-112l33 134l28 112l34 135h112zM263 157h202l-39 -157h-202z" />
    <glyph glyph-name="uni2763" unicode="&#x2763;" 
d="M291 717h201l-28 -112h23l28 112h201l-28 -112h112l-39 -157h-112l-28 -112h-112l-28 -112h-201l28 112h-112l28 112h-112l39 157h112zM263 157h202l-39 -157h-202z" />
    <glyph glyph-name="uni2764" unicode="&#x2764;" 
d="M291 717h201l-28 -112h23l28 112h201l-28 -112h112l-33 -135l-34 -134h-112l-28 -112h-112l-27 -112h-202l28 112h-112l28 112h-112l33 134l34 135h112z" />
    <glyph glyph-name="uni2765" unicode="&#x2765;" 
d="M291 717h313l-28 -112h112l-28 -112h112l-39 -157h-112l-28 -112h-112l-27 -112h-314l28 112h-112l39 157h112l17 67h-112l39 157h112z" />
    <glyph glyph-name="uni2768" unicode="&#x2768;" 
d="M543 829h313l-39 -157h-112l-28 -112h-112l-22 -90l-28 -112l-22 -89h112l-28 -112h112l-39 -157h-314l28 112h-112l28 112h-112l33 134l28 112l34 135h112l28 112h112z" />
    <glyph glyph-name="uni2769" unicode="&#x2769;" 
d="M207 829h313l-28 -112h112l-28 -112h112l-33 -135l-28 -112l-34 -134h-112l-27 -112h-112l-28 -112h-314l39 157h112l28 112h112l22 89l28 112l23 90h-112l28 112h-112z" />
    <glyph glyph-name="uni276A" unicode="&#x276a;" 
d="M543 829h313l-39 -157h-112l-22 -90l-34 -134h-112l-16 -67h112l-34 -135l-22 -89h112l-39 -157h-314l28 112h-112l28 112h-112l33 134l28 112l34 135h112l28 112h112z" />
    <glyph glyph-name="uni276B" unicode="&#x276b;" 
d="M207 829h313l-28 -112h112l-28 -112h112l-33 -135l-28 -112l-34 -134h-112l-27 -112h-112l-28 -112h-314l39 157h112l22 89l34 135h112l17 67h-112l33 134l23 90h-112z" />
    <glyph glyph-name="uni276C" unicode="&#x276c;" 
d="M543 829h201l-39 -157h-112l-22 -90l-34 -134h-112l-16 -67h112l-34 -135l-22 -89h112l-39 -157h-202l28 112h-112l28 112h-112l28 112h-112l39 157h112l28 112h112l28 112h112z" />
    <glyph glyph-name="uni276D" unicode="&#x276d;" 
d="M319 829h201l-28 -112h112l-28 -112h112l-28 -112h112l-39 -157h-112l-28 -112h-112l-27 -112h-112l-28 -112h-202l39 157h112l22 89l34 135h112l17 67h-112l33 134l23 90h-112z" />
    <glyph glyph-name="uni276E" unicode="&#x276e;" 
d="M543 829h313l-39 -157h-112l-28 -112h-112l-28 -112h-112l-16 -67h112l-28 -112h112l-28 -112h112l-39 -157h-314l28 112h-112l28 112h-112l28 112h-112l39 157h112l28 112h112l28 112h112z" />
    <glyph glyph-name="uni276F" unicode="&#x276f;" 
d="M207 829h313l-28 -112h112l-28 -112h112l-28 -112h112l-39 -157h-112l-28 -112h-112l-27 -112h-112l-28 -112h-314l39 157h112l28 112h112l28 112h112l17 67h-112l28 112h-112l28 112h-112z" />
    <glyph glyph-name="uni2770" unicode="&#x2770;" 
d="M543 829h313l-39 -157h-112l-22 -90l-34 -134h-112l-16 -67h112l-34 -135l-22 -89h112l-39 -157h-314l28 112h-112l28 112h-112l28 112h-112l39 157h112l28 112h112l28 112h112z" />
    <glyph glyph-name="uni2771" unicode="&#x2771;" 
d="M207 829h313l-28 -112h112l-28 -112h112l-28 -112h112l-39 -157h-112l-28 -112h-112l-27 -112h-112l-28 -112h-314l39 157h112l22 89l34 135h112l17 67h-112l33 134l23 90h-112z" />
    <glyph glyph-name="uni2772" unicode="&#x2772;" 
d="M543 829h201l-39 -157h-112l-28 -112h-112l-22 -90l-28 -112l-22 -89h112l-28 -112h112l-39 -157h-202l28 112h-112l28 112h-112l33 134l28 112l34 135h112l28 112h112z" />
    <glyph glyph-name="uni2773" unicode="&#x2773;" 
d="M319 829h201l-28 -112h112l-28 -112h112l-33 -135l-28 -112l-34 -134h-112l-27 -112h-112l-28 -112h-202l39 157h112l28 112h112l22 89l28 112l23 90h-112l28 112h-112z" />
    <glyph glyph-name="uni2774" unicode="&#x2774;" 
d="M543 829h313l-39 -157h-112l-22 -90l-56 -224l-28 -112l-22 -89h112l-39 -157h-314l28 112h-112l33 134l23 90h-112l39 157h112l22 89l34 135h112z" />
    <glyph glyph-name="uni2775" unicode="&#x2775;" 
d="M207 829h313l-28 -112h112l-33 -135l-23 -89h112l-39 -157h-112l-22 -90l-33 -134h-112l-28 -112h-314l39 157h112l22 89l84 336l23 90h-112z" />
    <glyph glyph-name="uni2776" unicode="&#x2776;" 
d="M319 829h425l-28 -112h112l-33 -135l-56 -224l-28 -112l-33 -134h-112l-28 -112h-426l28 112h-112l33 134l84 336l34 135h112zM462 683l-28 -112h-112l-23 -89h112l-30 -124l-31 -123h-112l-22 -89h291l22 89h-112l31 123l56 224l25 101h-67z" />
    <glyph glyph-name="uni2777" unicode="&#x2777;" 
d="M319 829h425l-28 -112h112l-33 -135l-56 -224l-28 -112l-33 -134h-112l-28 -112h-426l28 112h-112l33 134l84 336l34 135h112zM350 683l-23 -89h179l23 89h-179zM546 571l-23 -89h67l23 89h-67zM406 459l-23 -89h68l22 89h-67zM266 347l-25 -101l-25 -100h291l22 89h-224
l28 112h-67z" />
    <glyph glyph-name="uni2778" unicode="&#x2778;" 
d="M319 829h425l-28 -112h112l-33 -135l-56 -224l-28 -112l-33 -134h-112l-28 -112h-426l28 112h-112l33 134l84 336l34 135h112zM350 683l-23 -89h179l23 89h-179zM546 571l-23 -89h67l23 89h-67zM406 459l-23 -89h68l22 89h-67zM490 347l-23 -89h68l22 89h-67zM238 235
l-22 -89h179l22 89h-179z" />
    <glyph glyph-name="uni2779" unicode="&#x2779;" 
d="M319 829h425l-28 -112h112l-33 -135l-56 -224l-28 -112l-33 -134h-112l-28 -112h-426l28 112h-112l33 134l84 336l34 135h112zM350 683l-26 -101l-28 -112l-25 -100h224l-30 -124l-25 -100h67l25 100l84 336l25 101h-67l-26 -101l-30 -123h-157l31 123l25 101h-67z" />
    <glyph glyph-name="uni277A" unicode="&#x277a;" 
d="M319 829h425l-28 -112h112l-33 -135l-56 -224l-28 -112l-33 -134h-112l-28 -112h-426l28 112h-112l33 134l84 336l34 135h112zM350 683l-26 -101l-28 -112l-25 -100h224l-28 -112h68l25 100l25 101h-224l33 135h224l23 89h-291zM238 235l-22 -89h179l22 89h-179z" />
    <glyph glyph-name="uni277B" unicode="&#x277b;" 
d="M319 829h425l-28 -112h112l-33 -135l-56 -224l-28 -112l-33 -134h-112l-28 -112h-426l28 112h-112l33 134l84 336l34 135h112zM462 683l-23 -89h179l23 89h-179zM322 571l-26 -101l-27 -112l-26 -100h68l28 112h112l22 89h-112l28 112h-67zM490 347l-23 -89h68l22 89h-67
zM350 235l-22 -89h67l22 89h-67z" />
    <glyph glyph-name="uni277C" unicode="&#x277c;" 
d="M319 829h425l-28 -112h112l-33 -135l-56 -224l-28 -112l-33 -134h-112l-28 -112h-426l28 112h-112l33 134l84 336l34 135h112zM350 683l-23 -89h224l-28 -112h67l26 100l25 101h-291zM406 459l-25 -101l-28 -112l-25 -100h67l25 100l28 112l25 101h-67z" />
    <glyph glyph-name="uni277D" unicode="&#x277d;" 
d="M319 829h425l-28 -112h112l-33 -135l-56 -224l-28 -112l-33 -134h-112l-28 -112h-426l28 112h-112l33 134l84 336l34 135h112zM462 683l-23 -89h67l23 89h-67zM322 571l-23 -89h67l23 89h-67zM546 571l-23 -89h67l23 89h-67zM406 459l-23 -89h68l22 89h-67zM266 347
l-23 -89h68l22 89h-67zM490 347l-23 -89h68l22 89h-67zM350 235l-22 -89h67l22 89h-67z" />
    <glyph glyph-name="uni277E" unicode="&#x277e;" 
d="M319 829h425l-28 -112h112l-33 -135l-56 -224l-28 -112l-33 -134h-112l-28 -112h-426l28 112h-112l33 134l84 336l34 135h112zM462 683l-23 -89h67l23 89h-67zM322 571l-23 -89h67l23 89h-67zM546 571l-28 -112h-112l-23 -89h112l-28 -112h68l25 100l28 112l25 101h-67z
M238 235l-22 -89h179l22 89h-179z" />
    <glyph glyph-name="uni277F" unicode="&#x277f;" 
d="M179 717h201l-33 -135l-56 -224l-28 -112l-33 -134h-202l33 134l84 336zM515 717h201l-28 -112h112l-33 -135l-28 -112l-34 -134h-112l-27 -112h-202l28 112h-112l33 134l28 112l34 135h112zM546 571l-26 -101l-27 -112l-26 -100h68l25 100l28 112l25 101h-67z" />
    <glyph glyph-name="uni2780" unicode="&#x2780;" 
d="M403 717h201l-33 -135l-56 -224l-22 -89h112l-39 -157h-426l39 157h112l45 179h-112l39 157h112z" />
    <glyph glyph-name="uni2781" unicode="&#x2781;" 
d="M291 717h313l-28 -112h112l-39 -157h-112l-28 -112h-112l-16 -67h224l-39 -157h-426l33 134l34 135h112l28 112h112l17 67h-224z" />
    <glyph glyph-name="uni2782" unicode="&#x2782;" 
d="M291 717h313l-28 -112h112l-39 -157h-112l-16 -67h112l-40 -157h-112l-27 -112h-314l39 157h224l17 67h-112l39 157h112l17 67h-224z" />
    <glyph glyph-name="uni2783" unicode="&#x2783;" 
d="M291 717h201l-33 -135l-23 -89h23l22 89l34 135h201l-33 -135l-56 -224l-28 -112l-33 -134h-202l33 134l23 90h-224l33 134l28 112z" />
    <glyph glyph-name="uni2784" unicode="&#x2784;" 
d="M291 717h425l-39 -157h-224l-17 -67h224l-33 -135l-34 -134h-112l-27 -112h-314l39 157h224l17 67h-224l33 134l28 112z" />
    <glyph glyph-name="uni2785" unicode="&#x2785;" 
d="M403 717h313l-39 -157h-224l-17 -67h112l-27 -112h112l-40 -157h-112l-27 -112h-202l28 112h-112l33 134l28 112l34 135h112zM378 347l-23 -89h68l22 89h-67z" />
    <glyph glyph-name="uni2786" unicode="&#x2786;" 
d="M291 717h425l-33 -135l-34 -134h-112l-22 -90l-28 -112l-33 -134h-202l33 134l28 112l34 135h112l17 67h-224z" />
    <glyph glyph-name="uni2787" unicode="&#x2787;" 
d="M403 717h201l-28 -112h112l-39 -157h-112l-16 -67h112l-40 -157h-112l-27 -112h-202l28 112h-112l39 157h112l17 67h-112l39 157h112zM434 571l-23 -89h67l23 89h-67zM378 347l-23 -89h68l22 89h-67z" />
    <glyph glyph-name="uni2788" unicode="&#x2788;" 
d="M403 717h201l-28 -112h112l-33 -135l-28 -112l-34 -134h-112l-27 -112h-314l39 157h224l17 67h-112l28 112h-112l39 157h112zM434 571l-23 -89h67l23 89h-67z" />
    <glyph glyph-name="uni2789" unicode="&#x2789;" 
d="M179 717h201l-33 -135l-56 -224l-28 -112l-33 -134h-202l33 134l84 336zM515 717h201l-28 -112h112l-33 -135l-28 -112l-34 -134h-112l-27 -112h-202l28 112h-112l33 134l28 112l34 135h112zM546 571l-26 -101l-27 -112l-26 -100h68l25 100l28 112l25 101h-67z" />
    <glyph glyph-name="uni278A" unicode="&#x278a;" 
d="M319 829h425l-28 -112h112l-33 -135l-56 -224l-28 -112l-33 -134h-112l-28 -112h-426l28 112h-112l33 134l84 336l34 135h112zM462 683l-28 -112h-112l-23 -89h112l-30 -124l-31 -123h-112l-22 -89h291l22 89h-112l31 123l56 224l25 101h-67z" />
    <glyph glyph-name="uni278B" unicode="&#x278b;" 
d="M319 829h425l-28 -112h112l-33 -135l-56 -224l-28 -112l-33 -134h-112l-28 -112h-426l28 112h-112l33 134l84 336l34 135h112zM350 683l-23 -89h179l23 89h-179zM546 571l-23 -89h67l23 89h-67zM406 459l-23 -89h68l22 89h-67zM266 347l-25 -101l-25 -100h291l22 89h-224
l28 112h-67z" />
    <glyph glyph-name="uni278C" unicode="&#x278c;" 
d="M319 829h425l-28 -112h112l-33 -135l-56 -224l-28 -112l-33 -134h-112l-28 -112h-426l28 112h-112l33 134l84 336l34 135h112zM350 683l-23 -89h179l23 89h-179zM546 571l-23 -89h67l23 89h-67zM406 459l-23 -89h68l22 89h-67zM490 347l-23 -89h68l22 89h-67zM238 235
l-22 -89h179l22 89h-179z" />
    <glyph glyph-name="uni278D" unicode="&#x278d;" 
d="M319 829h425l-28 -112h112l-33 -135l-56 -224l-28 -112l-33 -134h-112l-28 -112h-426l28 112h-112l33 134l84 336l34 135h112zM350 683l-26 -101l-28 -112l-25 -100h224l-30 -124l-25 -100h67l25 100l84 336l25 101h-67l-26 -101l-30 -123h-157l31 123l25 101h-67z" />
    <glyph glyph-name="uni278E" unicode="&#x278e;" 
d="M319 829h425l-28 -112h112l-33 -135l-56 -224l-28 -112l-33 -134h-112l-28 -112h-426l28 112h-112l33 134l84 336l34 135h112zM350 683l-26 -101l-28 -112l-25 -100h224l-28 -112h68l25 100l25 101h-224l33 135h224l23 89h-291zM238 235l-22 -89h179l22 89h-179z" />
    <glyph glyph-name="uni278F" unicode="&#x278f;" 
d="M319 829h425l-28 -112h112l-33 -135l-56 -224l-28 -112l-33 -134h-112l-28 -112h-426l28 112h-112l33 134l84 336l34 135h112zM462 683l-23 -89h179l23 89h-179zM322 571l-26 -101l-27 -112l-26 -100h68l28 112h112l22 89h-112l28 112h-67zM490 347l-23 -89h68l22 89h-67
zM350 235l-22 -89h67l22 89h-67z" />
    <glyph glyph-name="uni2790" unicode="&#x2790;" 
d="M319 829h425l-28 -112h112l-33 -135l-56 -224l-28 -112l-33 -134h-112l-28 -112h-426l28 112h-112l33 134l84 336l34 135h112zM350 683l-23 -89h224l-28 -112h67l26 100l25 101h-291zM406 459l-25 -101l-28 -112l-25 -100h67l25 100l28 112l25 101h-67z" />
    <glyph glyph-name="uni2791" unicode="&#x2791;" 
d="M319 829h425l-28 -112h112l-33 -135l-56 -224l-28 -112l-33 -134h-112l-28 -112h-426l28 112h-112l33 134l84 336l34 135h112zM462 683l-23 -89h67l23 89h-67zM322 571l-23 -89h67l23 89h-67zM546 571l-23 -89h67l23 89h-67zM406 459l-23 -89h68l22 89h-67zM266 347
l-23 -89h68l22 89h-67zM490 347l-23 -89h68l22 89h-67zM350 235l-22 -89h67l22 89h-67z" />
    <glyph glyph-name="uni2792" unicode="&#x2792;" 
d="M319 829h425l-28 -112h112l-33 -135l-56 -224l-28 -112l-33 -134h-112l-28 -112h-426l28 112h-112l33 134l84 336l34 135h112zM462 683l-23 -89h67l23 89h-67zM322 571l-23 -89h67l23 89h-67zM546 571l-28 -112h-112l-23 -89h112l-28 -112h68l25 100l28 112l25 101h-67z
M238 235l-22 -89h179l22 89h-179z" />
    <glyph glyph-name="uni2793" unicode="&#x2793;" 
d="M179 717h201l-33 -135l-56 -224l-28 -112l-33 -134h-202l33 134l84 336zM515 717h201l-28 -112h112l-33 -135l-28 -112l-34 -134h-112l-27 -112h-202l28 112h-112l33 134l28 112l34 135h112zM546 571l-26 -101l-27 -112l-26 -100h68l25 100l28 112l25 101h-67z" />
    <glyph glyph-name="uni27B0" unicode="&#x27b0;" horiz-adv-x="1344" 
d="M431 829h425l-28 -112h23l28 112h425l-28 -112h112l-39 -157h-201l28 112h-247l-17 -67h112l-28 -112h112l-33 -135l-28 -112l-33 -134h-112l-28 -112h-426l28 112h-112l33 134l28 112l34 135h112l28 112h112l17 67h-247l-28 -112h-201l39 157h112zM770 571l-28 -112
h-112l-25 -101l-28 -112l-25 -100h291l25 100l28 112l25 101h-112l28 112h-67z" />
    <glyph glyph-name="uni27BF" unicode="&#x27bf;" horiz-adv-x="1344" 
d="M207 829h313l-28 -112h23l28 112h649l-28 -112h23l28 112h313l-39 -157h-224l-17 -67h112l-28 -112h112l-33 -135l-28 -112l-33 -134h-112l-28 -112h-426l28 112h-112l33 134l28 112l34 135h112l28 112h112l17 67h-471l-17 -67h112l-28 -112h112l-33 -135l-28 -112
l-33 -134h-112l-28 -112h-426l28 112h-112l33 134l28 112l34 135h112l28 112h112l17 67h-224zM434 571l-28 -112h-112l-25 -101l-28 -112l-25 -100h291l25 100l28 112l25 101h-112l28 112h-67zM1106 571l-28 -112h-112l-25 -101l-28 -112l-25 -100h291l25 100l28 112l25 101
h-112l28 112h-67z" />
    <glyph glyph-name="uni2C7C" unicode="&#x2c7c;" 
d="M319 381h202l-40 -157h-201zM263 157h202l-34 -135l-33 -134h-112l-28 -112h-202l39 157h112l23 89z" />
    <glyph glyph-name="uni2C7D" unicode="&#x2c7d;" 
d="M235 941h201l-33 -135l-23 -89h112l-33 -135l-23 -89h23l22 89l34 135h112l22 89l34 135h201l-33 -135l-34 -134h-112l-22 -90l-34 -134h-112l-28 -112h-201l28 112h-112l33 134l23 90h-112l33 134z" />
    <glyph glyph-name="uniEE00" unicode="&#xee00;" 
d="M235 941h761l-39 -157h-560l-22 -90l-84 -336l-28 -112l-28 -112l-22 -89h560l-39 -157h-762l34 134l195 784z" />
    <glyph glyph-name="uniEE01" unicode="&#xee01;" 
d="M235 941h761l-39 -157h-762zM11 45h762l-39 -157h-762z" />
    <glyph glyph-name="uniEE02" unicode="&#xee02;" 
d="M235 941h649l-33 -135l-112 -448l-28 -112l-56 -224l-33 -134h-650l39 157h448l23 89l139 560l22 90h-448z" />
    <glyph glyph-name="uniEE03" unicode="&#xee03;" 
d="M235 941h761l-39 -157h-560l-22 -90l-84 -336l-28 -112l-28 -112l-22 -89h560l-39 -157h-762l34 134l195 784zM403 717h537l-33 -135l-56 -224l-28 -112l-33 -134h-538l33 134l84 336z" />
    <glyph glyph-name="uniEE04" unicode="&#xee04;" 
d="M235 941h761l-39 -157h-762zM179 717h761l-33 -135l-56 -224l-28 -112l-33 -134h-762l33 134l84 336zM11 45h762l-39 -157h-762z" />
    <glyph glyph-name="uniEE05" unicode="&#xee05;" 
d="M235 941h649l-33 -135l-112 -448l-28 -112l-56 -224l-33 -134h-650l39 157h448l23 89l139 560l22 90h-448zM179 717h425l-33 -135l-56 -224l-28 -112l-33 -134h-426l33 134l84 336z" />
    <glyph glyph-name="uniEE06" unicode="&#xee06;" 
d="M291 717h425l-28 -112h112l-39 -157h-201l28 112h-247l-28 -112h-201l39 157h112z" />
    <glyph glyph-name="uniEE07" unicode="&#xee07;" 
d="M403 717h313l-28 -112h112l-33 -135l-28 -112l-34 -134h-201l33 134l28 112l23 90h-224z" />
    <glyph glyph-name="uniEE08" unicode="&#xee08;" 
d="M599 605h201l-33 -135l-28 -112l-34 -134h-112l-27 -112h-314l39 157h224l22 89l28 112z" />
    <glyph glyph-name="uniEE09" unicode="&#xee09;" 
d="M95 381h202l-28 -112h246l28 112h202l-40 -157h-112l-27 -112h-426l28 112h-112z" />
    <glyph glyph-name="uniEE0A" unicode="&#xee0a;" 
d="M151 605h201l-33 -135l-28 -112l-22 -89h224l-39 -157h-314l28 112h-112l33 134l28 112z" />
    <glyph glyph-name="uniEE0B" unicode="&#xee0b;" 
d="M291 717h313l-39 -157h-224l-22 -90l-28 -112l-34 -134h-201l33 134l28 112l34 135h112z" />
    <glyph glyph-name="space" unicode=" " 
 />
    <glyph glyph-name="exclam" unicode="!" 
d="M431 829h201l-33 -135l-84 -336l-34 -134h-201l33 134l84 336zM263 157h202l-39 -157h-202z" />
    <glyph glyph-name="quotedbl" unicode="&#x22;" 
d="M319 829h201l-33 -135l-34 -134h-201l33 134zM543 829h201l-33 -135l-34 -134h-201l33 134z" />
    <glyph glyph-name="numbersign" unicode="#" 
d="M319 829h201l-33 -135l-23 -89h23l22 89l34 135h201l-33 -135l-23 -89h112l-39 -157h-112l-16 -67h112l-40 -157h-112l-22 -90l-33 -134h-202l34 134l22 90h-23l-22 -90l-33 -134h-202l34 134l22 90h-112l39 157h112l17 67h-112l39 157h112l22 89zM406 459l-23 -89h68
l22 89h-67z" />
    <glyph glyph-name="dollar" unicode="$" 
d="M459 941h201l-28 -112h112l-28 -112h112l-39 -157h-201l28 112h-23l-22 -90l-23 -89h112l-27 -112h112l-34 -135l-33 -134h-112l-28 -112h-112l-28 -112h-202l28 112h-112l28 112h-112l39 157h202l-28 -112h22l45 179h-112l28 112h-112l33 134l34 135h112l28 112h112z
M350 683l-26 -101l-25 -100h67l26 100l25 101h-67zM490 347l-25 -101l-25 -100h67l25 100l25 101h-67z" />
    <glyph glyph-name="percent" unicode="%" 
d="M207 829h201l-33 -135l-34 -134h-201l33 134zM655 829h201l-39 -157h-112l-22 -90l-34 -134h-112l-28 -112h-112l-22 -90l-33 -134h-112l-28 -112h-202l39 157h112l22 89l34 135h112l28 112h112l22 89l34 135h112zM515 269h202l-34 -135l-33 -134h-202z" />
    <glyph glyph-name="ampersand" unicode="&#x26;" 
d="M319 829h201l-28 -112h112l-39 -157h-112l-17 -67h112l-27 -112h22l28 112h201l-39 -157h-112l-22 -90l-22 -89h112l-39 -157h-202l28 112h-22l-28 -112h-314l28 112h-112l33 134l28 112l34 135h112l17 67h-112l39 157h112zM350 683l-23 -89h67l23 89h-67zM294 459
l-25 -101l-28 -112l-25 -100h179l25 100l25 101h-112l28 112h-67z" />
    <glyph glyph-name="quotesingle" unicode="'" 
d="M431 829h201l-33 -135l-34 -134h-201l33 134z" />
    <glyph glyph-name="parenleft" unicode="(" 
d="M571 941h201l-39 -157h-112l-28 -112h-112l-22 -90l-56 -224l-28 -112l-22 -89h112l-28 -112h112l-39 -157h-202l28 112h-112l28 112h-112l33 134l84 336l34 135h112l28 112h112z" />
    <glyph glyph-name="parenright" unicode=")" 
d="M347 941h201l-28 -112h112l-28 -112h112l-33 -135l-56 -224l-28 -112l-33 -134h-112l-28 -112h-112l-28 -112h-202l39 157h112l28 112h112l22 89l84 336l23 90h-112l27 112h-112z" />
    <glyph glyph-name="asterisk" unicode="*" 
d="M319 829h201l-28 -112h23l28 112h201l-39 -157h-112l-17 -67h112l-39 -157h-201l28 112h-23l-28 -112h-201l39 157h112l17 67h-112z" />
    <glyph glyph-name="plus" unicode="+" 
d="M403 717h201l-33 -135l-23 -89h224l-39 -157h-224l-22 -90l-33 -134h-202l33 134l23 90h-224l39 157h224l22 89z" />
    <glyph glyph-name="comma" unicode="," 
d="M151 157h202l-39 -157h-112l-28 -112h-202l39 157h112z" />
    <glyph glyph-name="hyphen" unicode="-" 
d="M123 493h649l-39 -157h-649z" />
    <glyph glyph-name="period" unicode="." 
d="M263 157h202l-39 -157h-202z" />
    <glyph glyph-name="slash" unicode="/" 
d="M655 829h201l-39 -157h-112l-22 -90l-34 -134h-112l-28 -112h-112l-22 -90l-33 -134h-112l-28 -112h-202l39 157h112l22 89l34 135h112l28 112h112l22 89l34 135h112z" />
    <glyph glyph-name="zero" unicode="0" 
d="M319 829h425l-28 -112h112l-33 -135l-56 -224l-28 -112l-33 -134h-112l-28 -112h-426l28 112h-112l33 134l84 336l34 135h112zM350 683l-26 -101l-28 -112l-25 -100h68l27 112h112l28 112h112l23 89h-291zM518 459l-28 -112h-112l-28 -112h-112l-22 -89h291l25 100
l28 112l25 101h-67z" />
    <glyph glyph-name="one" unicode="1" 
d="M431 829h201l-33 -135l-84 -336l-28 -112l-22 -89h224l-39 -157h-650l39 157h224l22 89l56 224l23 90h-23l-28 -112h-201l39 157h112l28 112h112z" />
    <glyph glyph-name="two" unicode="2" 
d="M319 829h425l-28 -112h112l-33 -135l-34 -134h-112l-28 -112h-112l-28 -112h-112l-16 -67h336l-39 -157h-650l39 157h112l28 112h112l28 112h112l28 112h112l22 89l23 90h-247l-28 -112h-201l39 157h112z" />
    <glyph glyph-name="three" unicode="3" 
d="M319 829h425l-28 -112h112l-33 -135l-34 -134h-112l-16 -67h112l-34 -135l-33 -134h-112l-28 -112h-426l28 112h-112l39 157h202l-28 -112h246l45 179h-224l39 157h224l22 89l23 90h-247l-28 -112h-201l39 157h112z" />
    <glyph glyph-name="four" unicode="4" 
d="M431 829h313l-33 -135l-28 -112l-23 -89h112l-39 -157h-112l-22 -90l-28 -112l-33 -134h-202l34 134l27 112l23 90h-336l33 134l34 135h112l28 112h112zM462 683l-28 -112h-112l-23 -89h179l26 100l25 101h-67z" />
    <glyph glyph-name="five" unicode="5" 
d="M207 829h649l-39 -157h-448l-17 -67h336l-28 -112h112l-33 -135l-28 -112l-33 -134h-112l-28 -112h-426l28 112h-112l39 157h202l-28 -112h246l22 89l28 112l23 90h-448l33 134l28 112z" />
    <glyph glyph-name="six" unicode="6" 
d="M431 829h313l-39 -157h-224l-28 -112h-112l-17 -67h336l-27 -112h112l-34 -135l-33 -134h-112l-28 -112h-426l28 112h-112l33 134l56 224l34 135h112l28 112h112zM266 347l-25 -101l-25 -100h291l25 100l25 101h-291z" />
    <glyph glyph-name="seven" unicode="7" 
d="M207 829h649l-33 -135l-28 -112l-34 -134h-112l-22 -90l-34 -134h-112l-22 -90l-33 -134h-202l67 269h112l22 89l34 135h112l22 89l23 90h-247l-28 -112h-201l33 134z" />
    <glyph glyph-name="eight" unicode="8" 
d="M319 829h425l-28 -112h112l-33 -135l-34 -134h-112l-16 -67h112l-34 -135l-33 -134h-112l-28 -112h-426l28 112h-112l33 134l34 135h112l17 67h-112l33 134l34 135h112zM350 683l-26 -101l-25 -100h291l26 100l25 101h-291zM266 347l-25 -101l-25 -100h291l25 100l25 101
h-291z" />
    <glyph glyph-name="nine" unicode="9" 
d="M319 829h425l-28 -112h112l-33 -135l-56 -224l-34 -134h-112l-27 -112h-112l-28 -112h-314l39 157h224l28 112h112l17 67h-336l28 112h-112l33 134l34 135h112zM350 683l-26 -101l-25 -100h291l26 100l25 101h-291z" />
    <glyph glyph-name="colon" unicode=":" 
d="M375 605h201l-39 -157h-201zM263 157h202l-39 -157h-202z" />
    <glyph glyph-name="semicolon" unicode=";" 
d="M375 605h201l-39 -157h-201zM263 157h202l-39 -157h-112l-28 -112h-202l39 157h112z" />
    <glyph glyph-name="less" unicode="&#x3c;" 
d="M655 829h201l-39 -157h-112l-28 -112h-112l-28 -112h-112l-16 -67h112l-28 -112h112l-28 -112h112l-39 -157h-202l28 112h-112l28 112h-112l28 112h-112l39 157h112l28 112h112l28 112h112z" />
    <glyph glyph-name="equal" unicode="=" 
d="M151 605h649l-39 -157h-649zM95 381h650l-40 -157h-649z" />
    <glyph glyph-name="greater" unicode="&#x3e;" 
d="M207 829h201l-28 -112h112l-28 -112h112l-28 -112h112l-39 -157h-112l-28 -112h-112l-27 -112h-112l-28 -112h-202l39 157h112l28 112h112l28 112h112l17 67h-112l28 112h-112l28 112h-112z" />
    <glyph glyph-name="question" unicode="?" 
d="M319 829h425l-28 -112h112l-33 -135l-34 -134h-112l-28 -112h-112l-28 -112h-201l39 157h112l28 112h112l22 89l23 90h-247l-28 -112h-201l39 157h112zM263 157h202l-39 -157h-202z" />
    <glyph glyph-name="at" unicode="@" 
d="M319 829h425l-28 -112h112l-33 -135l-56 -224l-34 -134h-425l33 134l28 112l34 135h201l-33 -135l-22 -89h22l22 89l28 112l23 90h-247l-22 -90l-56 -224l-28 -112l-22 -89h448l-39 -157h-538l28 112h-112l33 134l84 336l34 135h112z" />
    <glyph glyph-name="A" unicode="A" 
d="M319 829h425l-28 -112h112l-33 -135l-56 -224l-28 -112l-28 -112l-33 -134h-202l34 134l55 224l23 90h-247l-22 -90l-28 -112l-28 -112l-33 -134h-202l34 134l111 448l34 135h112zM350 683l-23 -89h291l23 89h-291z" />
    <glyph glyph-name="B" unicode="B" 
d="M207 829h537l-28 -112h112l-39 -157h-112l-17 -67h112l-33 -135l-28 -112l-33 -134h-112l-28 -112h-538l34 134l139 560zM350 683l-23 -89h291l23 89h-291zM294 459l-25 -101l-28 -112l-25 -100h291l25 100l28 112l25 101h-291z" />
    <glyph glyph-name="C" unicode="C" 
d="M319 829h425l-28 -112h112l-39 -157h-201l28 112h-247l-22 -90l-56 -224l-28 -112l-22 -89h246l28 112h202l-39 -157h-112l-28 -112h-426l28 112h-112l33 134l84 336l34 135h112z" />
    <glyph glyph-name="D" unicode="D" 
d="M207 829h537l-28 -112h112l-33 -135l-56 -224l-28 -112l-33 -134h-112l-28 -112h-538l34 134l139 560zM350 683l-26 -101l-83 -336l-25 -100h291l25 100l84 336l25 101h-291z" />
    <glyph glyph-name="E" unicode="E" 
d="M207 829h649l-39 -157h-448l-22 -90l-23 -89h224l-39 -157h-224l-22 -90l-22 -89h448l-39 -157h-650l34 134l139 560z" />
    <glyph glyph-name="F" unicode="F" 
d="M207 829h649l-39 -157h-448l-22 -90l-23 -89h336l-39 -157h-336l-22 -90l-28 -112l-33 -134h-202l34 134l139 560z" />
    <glyph glyph-name="G" unicode="G" 
d="M319 829h425l-28 -112h112l-39 -157h-201l28 112h-247l-22 -90l-56 -224l-28 -112l-22 -89h246l45 179h-112l39 157h313l-33 -135l-28 -112l-33 -134h-112l-28 -112h-426l28 112h-112l33 134l84 336l34 135h112z" />
    <glyph glyph-name="H" unicode="H" 
d="M207 829h201l-33 -135l-23 -89h247l22 89l34 135h201l-33 -135l-84 -336l-28 -112l-28 -112l-33 -134h-202l34 134l55 224l23 90h-247l-22 -90l-28 -112l-28 -112l-33 -134h-202l34 134l139 560z" />
    <glyph glyph-name="I" unicode="I" 
d="M319 829h425l-39 -157h-112l-22 -90l-56 -224l-28 -112l-22 -89h112l-39 -157h-426l39 157h112l22 89l84 336l23 90h-112z" />
    <glyph glyph-name="J" unicode="J" 
d="M431 829h425l-39 -157h-112l-22 -90l-56 -224l-28 -112l-33 -134h-112l-28 -112h-314l28 112h-112l39 157h202l-28 -112h134l22 89l84 336l23 90h-112z" />
    <glyph glyph-name="K" unicode="K" 
d="M207 829h201l-33 -135l-23 -89h135l28 112h112l28 112h201l-39 -157h-112l-28 -112h-112l-17 -67h112l-27 -112h112l-34 -135l-28 -112l-33 -134h-202l34 134l27 112l23 90h-112l28 112h-135l-22 -90l-28 -112l-28 -112l-33 -134h-202l34 134l139 560z" />
    <glyph glyph-name="L" unicode="L" 
d="M207 829h201l-33 -135l-84 -336l-28 -112l-22 -89h448l-39 -157h-650l34 134l139 560z" />
    <glyph glyph-name="M" unicode="M" 
d="M207 829h201l-28 -112h112l-28 -112h23l28 112h112l28 112h201l-33 -135l-84 -336l-28 -112l-28 -112l-33 -134h-202l34 134l83 336l23 90h-23l-28 -112h-201l28 112h-23l-22 -90l-28 -112l-28 -112l-28 -112l-33 -134h-202l34 134l139 560z" />
    <glyph glyph-name="N" unicode="N" 
d="M207 829h201l-28 -112h112l-28 -112h112l-28 -112h23l22 89l28 112l34 135h201l-33 -135l-84 -336l-28 -112l-28 -112l-33 -134h-202l34 134l27 112l23 90h-112l28 112h-112l28 112h-23l-22 -90l-28 -112l-28 -112l-28 -112l-33 -134h-202l34 134l139 560z" />
    <glyph glyph-name="O" unicode="O" 
d="M319 829h425l-28 -112h112l-33 -135l-56 -224l-28 -112l-33 -134h-112l-28 -112h-426l28 112h-112l33 134l84 336l34 135h112zM350 683l-26 -101l-83 -336l-25 -100h291l25 100l84 336l25 101h-291z" />
    <glyph glyph-name="P" unicode="P" 
d="M207 829h537l-28 -112h112l-33 -135l-34 -134h-112l-28 -112h-336l-22 -90l-28 -112l-33 -134h-202l34 134l139 560zM350 683l-26 -101l-25 -100h291l26 100l25 101h-291z" />
    <glyph glyph-name="Q" unicode="Q" 
d="M319 829h425l-28 -112h112l-33 -135l-56 -224l-34 -134h-112l-16 -67h112l-39 -157h-202l28 112h-22l-28 -112h-314l28 112h-112l33 134l84 336l34 135h112zM350 683l-26 -101l-83 -336l-25 -100h179l28 112h112l25 100l56 224l25 101h-291z" />
    <glyph glyph-name="R" unicode="R" 
d="M207 829h537l-28 -112h112l-33 -135l-34 -134h-112l-16 -67h112l-34 -135l-28 -112l-33 -134h-202l34 134l27 112l23 90h-247l-22 -90l-28 -112l-33 -134h-202l34 134l139 560zM350 683l-26 -101l-25 -100h291l26 100l25 101h-291z" />
    <glyph glyph-name="S" unicode="S" 
d="M319 829h425l-28 -112h112l-39 -157h-201l28 112h-247l-22 -90l-23 -89h336l-27 -112h112l-34 -135l-33 -134h-112l-28 -112h-426l28 112h-112l39 157h202l-28 -112h246l45 179h-336l28 112h-112l33 134l34 135h112z" />
    <glyph glyph-name="T" unicode="T" 
d="M207 829h649l-39 -157h-224l-22 -90l-56 -224l-28 -112l-28 -112l-33 -134h-202l34 134l111 448l23 90h-224z" />
    <glyph glyph-name="U" unicode="U" 
d="M207 829h201l-33 -135l-84 -336l-28 -112l-22 -89h246l22 89l112 448l34 135h201l-33 -135l-84 -336l-28 -112l-33 -134h-112l-28 -112h-426l28 112h-112l33 134l112 448z" />
    <glyph glyph-name="V" unicode="V" 
d="M207 829h201l-33 -135l-56 -224l-22 -89h112l-34 -135l-22 -89h22l22 89l34 135h112l22 89l56 224l34 135h201l-33 -135l-56 -224l-34 -134h-112l-22 -90l-33 -134h-112l-28 -112h-202l28 112h-112l33 134l23 90h-112l33 134l56 224z" />
    <glyph glyph-name="W" unicode="W" 
d="M207 829h201l-33 -135l-84 -336l-22 -89h22l22 89l34 135h201l-33 -135l-22 -89h22l22 89l84 336l34 135h201l-33 -135l-84 -336l-34 -134h-112l-22 -90l-33 -134h-202l34 134l22 90h-23l-22 -90l-33 -134h-202l34 134l22 90h-112l33 134l84 336z" />
    <glyph glyph-name="X" unicode="X" 
d="M207 829h201l-33 -135l-23 -89h112l-28 -112h23l28 112h112l22 89l34 135h201l-33 -135l-34 -134h-112l-28 -112h-112l-16 -67h112l-28 -112h112l-34 -135l-33 -134h-202l34 134l22 90h-112l28 112h-23l-28 -112h-112l-22 -90l-33 -134h-202l67 269h112l28 112h112l17 67
h-112l28 112h-112l33 134z" />
    <glyph glyph-name="Y" unicode="Y" 
d="M207 829h201l-33 -135l-23 -89h112l-28 -112h23l28 112h112l22 89l34 135h201l-33 -135l-34 -134h-112l-28 -112h-112l-22 -90l-28 -112l-28 -112l-33 -134h-202l34 134l55 224l23 90h-112l28 112h-112l33 134z" />
    <glyph glyph-name="Z" unicode="Z" 
d="M207 829h649l-33 -135l-34 -134h-112l-28 -112h-112l-28 -112h-112l-28 -112h-112l-16 -67h448l-39 -157h-650l67 269h112l28 112h112l28 112h112l28 112h112l17 67h-448z" />
    <glyph glyph-name="bracketleft" unicode="[" 
d="M459 941h313l-39 -157h-112l-22 -90l-84 -336l-28 -112l-28 -112l-22 -89h112l-39 -157h-314l34 134l195 784z" />
    <glyph glyph-name="backslash" unicode="\" 
d="M207 829h201l-28 -112h112l-33 -135l-23 -89h112l-27 -112h112l-34 -135l-22 -89h112l-39 -157h-202l28 112h-112l33 134l23 90h-112l28 112h-112l33 134l23 90h-112z" />
    <glyph glyph-name="bracketright" unicode="]" 
d="M347 941h313l-33 -135l-112 -448l-28 -112l-56 -224l-33 -134h-314l39 157h112l23 89l139 560l22 90h-112z" />
    <glyph glyph-name="asciicircum" unicode="^" 
d="M431 829h201l-28 -112h112l-28 -112h112l-39 -157h-201l28 112h-112l28 112h-23l-28 -112h-112l-28 -112h-201l39 157h112l28 112h112z" />
    <glyph glyph-name="underscore" unicode="_" 
d="M11 45h650l-39 -157h-650z" />
    <glyph glyph-name="grave" unicode="`" 
d="M319 829h201l-28 -112h112l-39 -157h-201l28 112h-112z" />
    <glyph glyph-name="a" unicode="a" 
d="M263 605h425l-28 -112h112l-33 -135l-28 -112l-28 -112l-33 -134h-538l28 112h-112l39 157h112l28 112h336l17 67h-336zM238 235l-22 -89h291l22 89h-291z" />
    <glyph glyph-name="b" unicode="b" 
d="M207 829h201l-33 -135l-28 -112l-23 -89h23l28 112h313l-28 -112h112l-33 -135l-28 -112l-33 -134h-112l-28 -112h-538l34 134l139 560zM406 459l-28 -112h-112l-25 -101l-25 -100h291l25 100l28 112l25 101h-179z" />
    <glyph glyph-name="c" unicode="c" 
d="M263 605h425l-28 -112h112l-39 -157h-201l28 112h-247l-22 -90l-28 -112l-22 -89h246l28 112h202l-39 -157h-112l-28 -112h-426l28 112h-112l33 134l28 112l34 135h112z" />
    <glyph glyph-name="d" unicode="d" 
d="M543 829h201l-33 -135l-84 -336l-28 -112l-22 -89h112l-39 -157h-202l28 112h-22l-28 -112h-314l28 112h-112l33 134l28 112l34 135h112l28 112h224l22 89zM294 459l-25 -101l-28 -112l-25 -100h179l25 100l28 112l25 101h-179z" />
    <glyph glyph-name="e" unicode="e" 
d="M263 605h425l-28 -112h112l-33 -135l-34 -134h-448l-16 -67h448l-39 -157h-538l28 112h-112l33 134l28 112l34 135h112zM294 459l-23 -89h292l22 89h-291z" />
    <glyph glyph-name="f" unicode="f" 
d="M431 829h313l-28 -112h112l-39 -157h-201l28 112h-135l-22 -90l-23 -89h224l-39 -157h-224l-22 -90l-28 -112l-33 -134h-202l34 134l27 112l23 90h-112l39 157h112l22 89l34 135h112z" />
    <glyph glyph-name="g" unicode="g" 
d="M263 605h537l-33 -135l-28 -112l-28 -112l-28 -112l-33 -134h-112l-28 -112h-538l39 157h448l17 67h-336l28 112h-112l33 134l34 135h112zM294 459l-25 -101l-26 -100h292l25 100l25 101h-291z" />
    <glyph glyph-name="h" unicode="h" 
d="M207 829h201l-33 -135l-28 -112l-23 -89h23l28 112h313l-28 -112h112l-33 -135l-28 -112l-28 -112l-33 -134h-202l34 134l55 224l23 90h-135l-28 -112h-112l-22 -90l-28 -112l-33 -134h-202l34 134l139 560z" />
    <glyph glyph-name="i" unicode="i" 
d="M431 829h201l-39 -157h-201zM263 605h313l-33 -135l-28 -112l-28 -112l-22 -89h112l-39 -157h-426l39 157h112l22 89l28 112l23 90h-112z" />
    <glyph glyph-name="j" unicode="j" 
d="M543 829h201l-39 -157h-201zM375 605h313l-33 -135l-28 -112l-28 -112l-28 -112l-33 -134h-112l-28 -112h-314l28 112h-112l39 157h202l-28 -112h134l23 89l55 224l23 90h-112z" />
    <glyph glyph-name="k" unicode="k" 
d="M207 829h201l-33 -135l-56 -224l-22 -89h22l28 112h112l28 112h201l-39 -157h-112l-28 -112h-112l-16 -67h112l-28 -112h224l-39 -157h-314l28 112h-112l28 112h-23l-22 -90l-33 -134h-202l34 134l139 560z" />
    <glyph glyph-name="l" unicode="l" 
d="M319 829h313l-33 -135l-84 -336l-28 -112l-22 -89h224l-39 -157h-314l28 112h-112l33 134l84 336l23 90h-112z" />
    <glyph glyph-name="m" unicode="m" 
d="M151 605h313l-28 -112h23l28 112h201l-28 -112h112l-33 -135l-28 -112l-28 -112l-33 -134h-202l34 134l55 224l23 90h-23l-22 -90l-28 -112l-28 -112l-33 -134h-202l34 134l55 224l23 90h-23l-22 -90l-28 -112l-28 -112l-33 -134h-202l34 134l83 336z" />
    <glyph glyph-name="n" unicode="n" 
d="M151 605h201l-28 -112h23l28 112h313l-28 -112h112l-33 -135l-28 -112l-28 -112l-33 -134h-202l34 134l55 224l23 90h-135l-28 -112h-112l-22 -90l-28 -112l-33 -134h-202l34 134l83 336z" />
    <glyph glyph-name="o" unicode="o" 
d="M263 605h425l-28 -112h112l-33 -135l-28 -112l-33 -134h-112l-28 -112h-426l28 112h-112l33 134l28 112l34 135h112zM294 459l-25 -101l-28 -112l-25 -100h291l25 100l28 112l25 101h-291z" />
    <glyph glyph-name="p" unicode="p" 
d="M151 605h201l-28 -112h23l28 112h313l-28 -112h112l-33 -135l-34 -134h-112l-27 -112h-336l-23 -90l-33 -134h-202l34 134l111 448zM406 459l-28 -112h-112l-23 -89h292l25 100l25 101h-179z" />
    <glyph glyph-name="q" unicode="q" 
d="M263 605h425l-33 -135l-28 -112l-28 -112l-28 -112l-22 -89h112l-39 -157h-314l34 134l22 90h-224l28 112h-112l33 134l34 135h112zM294 459l-25 -101l-26 -100h180l25 100l25 101h-179z" />
    <glyph glyph-name="r" unicode="r" 
d="M151 605h201l-28 -112h23l28 112h313l-28 -112h112l-39 -157h-201l28 112h-135l-28 -112h-112l-22 -90l-28 -112l-33 -134h-202l34 134l83 336z" />
    <glyph glyph-name="s" unicode="s" 
d="M263 605h537l-39 -157h-448l-16 -67h336l-28 -112h112l-39 -157h-112l-28 -112h-538l39 157h448l17 67h-336l28 112h-112l39 157h112z" />
    <glyph glyph-name="t" unicode="t" 
d="M319 829h201l-33 -135l-23 -89h224l-39 -157h-224l-22 -90l-28 -112l-22 -89h336l-39 -157h-426l28 112h-112l33 134l28 112l23 90h-112l39 157h112l22 89z" />
    <glyph glyph-name="u" unicode="u" 
d="M151 605h201l-33 -135l-28 -112l-28 -112l-22 -89h134l22 89l56 224l34 135h201l-33 -135l-28 -112l-28 -112l-22 -89h112l-39 -157h-202l28 112h-22l-28 -112h-314l28 112h-112l33 134l56 224z" />
    <glyph glyph-name="v" unicode="v" 
d="M151 605h201l-33 -135l-28 -112l-22 -89h112l-28 -112h22l28 112h112l22 89l28 112l34 135h201l-33 -135l-28 -112l-34 -134h-112l-27 -112h-112l-28 -112h-202l28 112h-112l28 112h-112l33 134l28 112z" />
    <glyph glyph-name="w" unicode="w" 
d="M151 605h201l-33 -135l-28 -112l-22 -89h22l22 89l34 135h201l-33 -135l-22 -89h22l22 89l28 112l34 135h201l-33 -135l-28 -112l-34 -134h-112l-22 -90l-33 -134h-202l34 134l22 90h-23l-22 -90l-33 -134h-202l34 134l22 90h-112l33 134l28 112z" />
    <glyph glyph-name="x" unicode="x" 
d="M151 605h313l-33 -135l-22 -89h22l22 89l34 135h313l-39 -157h-112l-28 -112h-112l-16 -67h112l-28 -112h112l-39 -157h-314l34 134l22 90h-23l-22 -90l-33 -134h-314l39 157h112l28 112h112l17 67h-112l28 112h-112z" />
    <glyph glyph-name="y" unicode="y" 
d="M151 605h201l-33 -135l-28 -112l-22 -89h246l22 89l28 112l34 135h201l-33 -135l-28 -112l-28 -112l-28 -112l-33 -134h-112l-28 -112h-538l39 157h448l17 67h-336l28 112h-112l33 134l28 112z" />
    <glyph glyph-name="z" unicode="z" 
d="M151 605h649l-39 -157h-112l-28 -112h-112l-28 -112h-112l-16 -67h336l-39 -157h-650l39 157h112l28 112h112l28 112h112l17 67h-336z" />
    <glyph glyph-name="braceleft" unicode="{" 
d="M459 941h313l-39 -157h-224l-22 -90l-23 -89h112l-39 -157h-112l-16 -67h112l-40 -157h-112l-22 -90l-22 -89h224l-39 -157h-314l28 112h-112l67 269h112l17 67h-224l39 157h224l17 67h-112l33 134l34 135h112z" />
    <glyph glyph-name="bar" unicode="|" 
d="M459 941h201l-33 -135l-112 -448l-28 -112l-56 -224l-33 -134h-202l34 134l195 784z" />
    <glyph glyph-name="braceright" unicode="}" 
d="M347 941h313l-28 -112h112l-33 -135l-34 -134h-112l-17 -67h224l-39 -157h-224l-16 -67h112l-34 -135l-33 -134h-112l-28 -112h-314l39 157h224l45 179h-112l39 157h112l17 67h-112l39 157h112l22 89l22 90h-224z" />
    <glyph glyph-name="asciitilde" unicode="~" 
d="M263 605h201l-28 -112h112l-27 -112h22l22 89l34 135h201l-33 -135l-34 -134h-112l-28 -112h-201l28 112h-112l28 112h-23l-22 -90l-34 -134h-201l33 134l34 135h112z" />
    <glyph glyph-name="uniA7F2" unicode="&#xa7f2;" 
d="M431 829h313l-39 -157h-224l-22 -90l-23 -89h224l-39 -157h-313l28 112h-112l33 134l34 135h112z" />
    <glyph glyph-name="uniA7F3" unicode="&#xa7f3;" 
d="M319 829h425l-39 -157h-224l-17 -67h112l-39 -157h-112l-28 -112h-201l33 134l56 224z" />
    <glyph glyph-name="uniA7F4" unicode="&#xa7f4;" 
d="M319 829h313l-28 -112h112l-39 -157h-112l-17 -67h112l-39 -157h-201l28 112h-23l-28 -112h-201l28 112h-112l33 134l34 135h112zM350 683l-26 -101l-25 -100h67l28 112h112l23 89h-179z" />
    <glyph glyph-name="uniA7F9" unicode="&#xa7f9;" 
d="M319 829h201l-28 -112h23l28 112h201l-28 -112h112l-39 -157h-224l-17 -67h224l-39 -157h-313l28 112h-23l-28 -112h-201l28 112h-112l33 134l34 135h112zM350 683l-26 -101l-25 -100h67l26 100l25 101h-67z" />
    <glyph glyph-name="uni400" unicode="&#x400;" 
d="M207 829h649l-39 -157h-448l-22 -90l-23 -89h224l-39 -157h-224l-22 -90l-22 -89h448l-39 -157h-650l34 134l139 560z" />
    <glyph glyph-name="uni401" unicode="&#x401;" 
d="M374 1053h202l-39 -157h-202zM598 1053h202l-39 -157h-202zM207 829h649l-39 -157h-448l-22 -90l-23 -89h224l-39 -157h-224l-22 -90l-22 -89h448l-39 -157h-650l34 134l139 560z" />
    <glyph glyph-name="uni402" unicode="&#x402;" 
d="M207 829h537l-39 -157h-224l-22 -90l-28 -112l-22 -89h22l28 112h201l-27 -112h112l-34 -135l-28 -112l-33 -134h-112l-28 -112h-202l39 157h112l23 89l27 112l23 90h-23l-28 -112h-112l-22 -90l-33 -134h-202l34 134l111 448l23 90h-112z" />
    <glyph glyph-name="uni403" unicode="&#x403;" 
d="M626 1165h202l-39 -157h-112l-28 -112h-202l39 157h112zM207 829h649l-39 -157h-448l-22 -90l-56 -224l-28 -112l-28 -112l-33 -134h-202l34 134l139 560z" />
    <glyph glyph-name="uni404" unicode="&#x404;" 
d="M319 829h425l-28 -112h112l-39 -157h-201l28 112h-247l-22 -90l-23 -89h336l-39 -157h-336l-22 -90l-22 -89h246l28 112h202l-39 -157h-112l-28 -112h-426l28 112h-112l33 134l84 336l34 135h112z" />
    <glyph glyph-name="uni405" unicode="&#x405;" 
d="M319 829h425l-28 -112h112l-39 -157h-201l28 112h-247l-22 -90l-23 -89h336l-27 -112h112l-34 -135l-33 -134h-112l-28 -112h-426l28 112h-112l39 157h202l-28 -112h246l45 179h-336l28 112h-112l33 134l34 135h112z" />
    <glyph glyph-name="uni406" unicode="&#x406;" 
d="M319 829h425l-39 -157h-112l-22 -90l-56 -224l-28 -112l-22 -89h112l-39 -157h-426l39 157h112l22 89l84 336l23 90h-112z" />
    <glyph glyph-name="uni407" unicode="&#x407;" 
d="M374 1053h202l-39 -157h-202zM598 1053h202l-39 -157h-202zM319 829h425l-39 -157h-112l-22 -90l-56 -224l-28 -112l-22 -89h112l-39 -157h-426l39 157h112l22 89l84 336l23 90h-112z" />
    <glyph glyph-name="uni408" unicode="&#x408;" 
d="M431 829h425l-39 -157h-112l-22 -90l-56 -224l-28 -112l-33 -134h-112l-28 -112h-314l28 112h-112l39 157h202l-28 -112h134l22 89l84 336l23 90h-112z" />
    <glyph glyph-name="uni409" unicode="&#x409;" 
d="M319 829h313l-33 -135l-28 -112l-23 -89h112l-27 -112h112l-34 -135l-33 -134h-112l-28 -112h-314l34 134l111 448l23 90h-23l-22 -90l-56 -224l-28 -112l-28 -112l-33 -134h-202l34 134l111 448l34 135h112zM490 347l-25 -101l-25 -100h67l25 100l25 101h-67z" />
    <glyph glyph-name="uni40A" unicode="&#x40a;" 
d="M207 829h201l-33 -135l-28 -112l-23 -89h23l22 89l28 112l34 135h201l-33 -135l-28 -112l-23 -89h112l-27 -112h112l-34 -135l-33 -134h-112l-28 -112h-314l34 134l27 112l23 90h-23l-22 -90l-28 -112l-33 -134h-202l34 134l139 560zM490 347l-25 -101l-25 -100h67
l25 100l25 101h-67z" />
    <glyph glyph-name="uni40B" unicode="&#x40b;" 
d="M207 829h537l-39 -157h-224l-22 -90l-28 -112l-22 -89h22l28 112h201l-27 -112h112l-34 -135l-28 -112l-33 -134h-202l34 134l27 112l23 90h-23l-28 -112h-112l-22 -90l-33 -134h-202l34 134l111 448l23 90h-112z" />
    <glyph glyph-name="uni40C" unicode="&#x40c;" 
d="M626 1165h202l-39 -157h-112l-28 -112h-202l39 157h112zM207 829h201l-33 -135l-23 -89h135l28 112h112l28 112h201l-39 -157h-112l-28 -112h-112l-17 -67h112l-27 -112h112l-34 -135l-28 -112l-33 -134h-202l34 134l27 112l23 90h-112l28 112h-135l-22 -90l-28 -112
l-28 -112l-33 -134h-202l34 134l139 560z" />
    <glyph glyph-name="uni40D" unicode="&#x40d;" 
d="M514 1165h202l-28 -112h112l-39 -157h-202l28 112h-112zM207 829h201l-33 -135l-28 -112l-23 -89h23l28 112h112l28 112h112l28 112h201l-33 -135l-84 -336l-28 -112l-28 -112l-33 -134h-202l34 134l83 336l23 90h-23l-28 -112h-112l-28 -112h-112l-22 -90l-28 -112
l-33 -134h-202l34 134l139 560z" />
    <glyph glyph-name="uni40E" unicode="&#x40e;" 
d="M402 1165h202l-28 -112h22l28 112h202l-39 -157h-112l-28 -112h-202l28 112h-112zM207 829h201l-33 -135l-23 -89h112l-33 -135l-22 -89h22l22 89l34 135h112l22 89l34 135h201l-33 -135l-34 -134h-112l-22 -90l-34 -134h-112l-22 -90l-33 -134h-112l-28 -112h-202
l39 157h112l45 179h-112l33 134l23 90h-112l33 134z" />
    <glyph glyph-name="uni40F" unicode="&#x40f;" 
d="M207 829h201l-33 -135l-84 -336l-28 -112l-22 -89h246l22 89l112 448l34 135h201l-33 -135l-84 -336l-28 -112l-28 -112l-33 -134h-224l-28 -112h-202l28 112h-224l34 134l139 560z" />
    <glyph glyph-name="uni410" unicode="&#x410;" 
d="M319 829h425l-28 -112h112l-33 -135l-56 -224l-28 -112l-28 -112l-33 -134h-202l34 134l55 224l23 90h-247l-22 -90l-28 -112l-28 -112l-33 -134h-202l34 134l111 448l34 135h112zM350 683l-23 -89h291l23 89h-291z" />
    <glyph glyph-name="uni411" unicode="&#x411;" 
d="M207 829h649l-39 -157h-448l-17 -67h336l-28 -112h112l-33 -135l-28 -112l-33 -134h-112l-28 -112h-538l34 134l139 560zM294 459l-25 -101l-28 -112l-25 -100h291l25 100l28 112l25 101h-291z" />
    <glyph glyph-name="uni412" unicode="&#x412;" 
d="M207 829h537l-28 -112h112l-39 -157h-112l-17 -67h112l-33 -135l-28 -112l-33 -134h-112l-28 -112h-538l34 134l139 560zM350 683l-23 -89h291l23 89h-291zM294 459l-25 -101l-28 -112l-25 -100h291l25 100l28 112l25 101h-291z" />
    <glyph glyph-name="uni413" unicode="&#x413;" 
d="M207 829h649l-39 -157h-448l-22 -90l-56 -224l-28 -112l-28 -112l-33 -134h-202l34 134l139 560z" />
    <glyph glyph-name="uni414" unicode="&#x414;" 
d="M431 829h425l-33 -135l-84 -336l-28 -112l-56 -224l-33 -134h-202l28 112h-246l-28 -112h-202l34 134l28 112l33 135h112l22 89l28 112l34 135h112l22 89zM574 683l-28 -112h-112l-26 -101l-27 -112l-31 -123h-112l-22 -89h291l25 100l84 336l25 101h-67z" />
    <glyph glyph-name="uni415" unicode="&#x415;" 
d="M207 829h649l-39 -157h-448l-22 -90l-23 -89h224l-39 -157h-224l-22 -90l-22 -89h448l-39 -157h-650l34 134l139 560z" />
    <glyph glyph-name="uni416" unicode="&#x416;" 
d="M207 829h201l-33 -135l-28 -112l-23 -89h23l22 89l28 112l34 135h201l-33 -135l-28 -112l-23 -89h23l22 89l28 112l34 135h201l-33 -135l-28 -112l-34 -134h-112l-16 -67h112l-34 -135l-28 -112l-33 -134h-202l34 134l27 112l23 90h-23l-22 -90l-28 -112l-33 -134h-202
l34 134l27 112l23 90h-23l-22 -90l-28 -112l-33 -134h-202l34 134l27 112l34 135h112l17 67h-112l33 134l28 112z" />
    <glyph glyph-name="uni417" unicode="&#x417;" 
d="M319 829h425l-28 -112h112l-33 -135l-34 -134h-112l-16 -67h112l-34 -135l-33 -134h-112l-28 -112h-426l28 112h-112l39 157h202l-28 -112h246l45 179h-224l39 157h224l22 89l23 90h-247l-28 -112h-201l39 157h112z" />
    <glyph glyph-name="uni418" unicode="&#x418;" 
d="M207 829h201l-33 -135l-28 -112l-23 -89h23l28 112h112l28 112h112l28 112h201l-33 -135l-84 -336l-28 -112l-28 -112l-33 -134h-202l34 134l83 336l23 90h-23l-28 -112h-112l-28 -112h-112l-22 -90l-28 -112l-33 -134h-202l34 134l139 560z" />
    <glyph glyph-name="uni419" unicode="&#x419;" 
d="M402 1165h202l-28 -112h22l28 112h202l-39 -157h-112l-28 -112h-202l28 112h-112zM207 829h201l-33 -135l-28 -112l-23 -89h23l28 112h112l28 112h112l28 112h201l-33 -135l-84 -336l-28 -112l-28 -112l-33 -134h-202l34 134l83 336l23 90h-23l-28 -112h-112l-28 -112
h-112l-22 -90l-28 -112l-33 -134h-202l34 134l139 560z" />
    <glyph glyph-name="uni41A" unicode="&#x41a;" 
d="M207 829h201l-33 -135l-23 -89h135l28 112h112l28 112h201l-39 -157h-112l-28 -112h-112l-17 -67h112l-27 -112h112l-34 -135l-28 -112l-33 -134h-202l34 134l27 112l23 90h-112l28 112h-135l-22 -90l-28 -112l-28 -112l-33 -134h-202l34 134l139 560z" />
    <glyph glyph-name="uni41B" unicode="&#x41b;" 
d="M431 829h425l-33 -135l-84 -336l-28 -112l-28 -112l-33 -134h-202l34 134l111 448l23 90h-23l-28 -112h-112l-22 -90l-28 -112l-34 -134h-112l-22 -90l-33 -134h-202l67 269h112l22 89l28 112l34 135h112l22 89z" />
    <glyph glyph-name="uni41C" unicode="&#x41c;" 
d="M207 829h201l-28 -112h112l-28 -112h23l28 112h112l28 112h201l-33 -135l-84 -336l-28 -112l-28 -112l-33 -134h-202l34 134l83 336l23 90h-23l-28 -112h-201l28 112h-23l-22 -90l-28 -112l-28 -112l-28 -112l-33 -134h-202l34 134l139 560z" />
    <glyph glyph-name="uni41D" unicode="&#x41d;" 
d="M207 829h201l-33 -135l-23 -89h247l22 89l34 135h201l-33 -135l-84 -336l-28 -112l-28 -112l-33 -134h-202l34 134l55 224l23 90h-247l-22 -90l-28 -112l-28 -112l-33 -134h-202l34 134l139 560z" />
    <glyph glyph-name="uni41E" unicode="&#x41e;" 
d="M319 829h425l-28 -112h112l-33 -135l-56 -224l-28 -112l-33 -134h-112l-28 -112h-426l28 112h-112l33 134l84 336l34 135h112zM350 683l-26 -101l-83 -336l-25 -100h291l25 100l84 336l25 101h-291z" />
    <glyph glyph-name="uni41F" unicode="&#x41f;" 
d="M207 829h649l-33 -135l-84 -336l-28 -112l-28 -112l-33 -134h-202l34 134l111 448l23 90h-247l-22 -90l-56 -224l-28 -112l-28 -112l-33 -134h-202l34 134l139 560z" />
    <glyph glyph-name="uni420" unicode="&#x420;" 
d="M207 829h537l-28 -112h112l-33 -135l-34 -134h-112l-28 -112h-336l-22 -90l-28 -112l-33 -134h-202l34 134l139 560zM350 683l-26 -101l-25 -100h291l26 100l25 101h-291z" />
    <glyph glyph-name="uni421" unicode="&#x421;" 
d="M319 829h425l-28 -112h112l-39 -157h-201l28 112h-247l-22 -90l-56 -224l-28 -112l-22 -89h246l28 112h202l-39 -157h-112l-28 -112h-426l28 112h-112l33 134l84 336l34 135h112z" />
    <glyph glyph-name="uni422" unicode="&#x422;" 
d="M207 829h649l-39 -157h-224l-22 -90l-56 -224l-28 -112l-28 -112l-33 -134h-202l34 134l111 448l23 90h-224z" />
    <glyph glyph-name="uni423" unicode="&#x423;" 
d="M207 829h201l-33 -135l-23 -89h112l-33 -135l-22 -89h22l22 89l34 135h112l22 89l34 135h201l-33 -135l-34 -134h-112l-22 -90l-34 -134h-112l-22 -90l-33 -134h-112l-28 -112h-202l39 157h112l45 179h-112l33 134l23 90h-112l33 134z" />
    <glyph glyph-name="uni424" unicode="&#x424;" 
d="M431 829h201l-28 -112h112l-28 -112h112l-33 -135l-28 -112l-34 -134h-112l-27 -112h-112l-28 -112h-202l28 112h-112l28 112h-112l33 134l28 112l34 135h112l28 112h112zM322 571l-26 -101l-27 -112l-26 -100h68l25 100l28 112l25 101h-67zM546 571l-26 -101l-27 -112
l-26 -100h68l25 100l28 112l25 101h-67z" />
    <glyph glyph-name="uni425" unicode="&#x425;" 
d="M207 829h201l-33 -135l-23 -89h112l-28 -112h23l28 112h112l22 89l34 135h201l-33 -135l-34 -134h-112l-28 -112h-112l-16 -67h112l-28 -112h112l-34 -135l-33 -134h-202l34 134l22 90h-112l28 112h-23l-28 -112h-112l-22 -90l-33 -134h-202l67 269h112l28 112h112l17 67
h-112l28 112h-112l33 134z" />
    <glyph glyph-name="uni426" unicode="&#x426;" 
d="M207 829h201l-33 -135l-84 -336l-28 -112l-22 -89h134l22 89l112 448l34 135h201l-33 -135l-84 -336l-28 -112l-22 -89h112l-34 -135l-33 -134h-202l28 112h-448l34 134l139 560z" />
    <glyph glyph-name="uni427" unicode="&#x427;" 
d="M207 829h201l-33 -135l-56 -224l-22 -89h246l22 89l56 224l34 135h201l-33 -135l-84 -336l-28 -112l-28 -112l-33 -134h-202l34 134l22 90h-336l28 112h-112l33 134l56 224z" />
    <glyph glyph-name="uni428" unicode="&#x428;" 
d="M207 829h201l-33 -135l-84 -336l-28 -112l-22 -89h22l22 89l112 448l34 135h201l-33 -135l-84 -336l-28 -112l-22 -89h22l22 89l112 448l34 135h201l-33 -135l-84 -336l-28 -112l-28 -112l-33 -134h-650l34 134l139 560z" />
    <glyph glyph-name="uni429" unicode="&#x429;" 
d="M207 829h201l-33 -135l-84 -336l-28 -112l-22 -89h22l22 89l112 448l34 135h201l-33 -135l-84 -336l-28 -112l-22 -89h22l22 89l112 448l34 135h201l-33 -135l-84 -336l-28 -112l-56 -224l-33 -134h-202l28 112h-448l34 134l139 560z" />
    <glyph glyph-name="uni42A" unicode="&#x42a;" 
d="M207 829h313l-33 -135l-28 -112l-23 -89h224l-27 -112h112l-34 -135l-33 -134h-112l-28 -112h-426l34 134l111 448l23 90h-112zM378 347l-25 -101l-25 -100h179l25 100l25 101h-179z" />
    <glyph glyph-name="uni42B" unicode="&#x42b;" 
d="M207 829h201l-33 -135l-28 -112l-23 -89h224l-27 -112h22l22 89l56 224l34 135h201l-33 -135l-84 -336l-28 -112l-28 -112l-33 -134h-202l28 112h-22l-28 -112h-426l34 134l139 560zM266 347l-25 -101l-25 -100h179l25 100l25 101h-179z" />
    <glyph glyph-name="uni42C" unicode="&#x42c;" 
d="M207 829h201l-33 -135l-28 -112l-23 -89h336l-27 -112h112l-34 -135l-33 -134h-112l-28 -112h-538l34 134l139 560zM266 347l-25 -101l-25 -100h291l25 100l25 101h-291z" />
    <glyph glyph-name="uni42D" unicode="&#x42d;" 
d="M319 829h425l-28 -112h112l-33 -135l-56 -224l-28 -112l-33 -134h-112l-28 -112h-426l28 112h-112l39 157h202l-28 -112h246l45 179h-336l39 157h336l22 89l23 90h-247l-28 -112h-201l39 157h112z" />
    <glyph glyph-name="uni42E" unicode="&#x42e;" 
d="M207 829h201l-33 -135l-28 -112l-23 -89h23l22 89l34 135h112l28 112h201l-28 -112h112l-33 -135l-56 -224l-28 -112l-33 -134h-112l-28 -112h-202l28 112h-112l33 134l23 90h-23l-22 -90l-28 -112l-33 -134h-202l34 134l139 560zM574 683l-26 -101l-83 -336l-25 -100h67
l25 100l84 336l25 101h-67z" />
    <glyph glyph-name="uni42F" unicode="&#x42f;" 
d="M319 829h537l-33 -135l-84 -336l-28 -112l-28 -112l-33 -134h-202l34 134l27 112l23 90h-247l-22 -90l-28 -112l-33 -134h-202l34 134l27 112l34 135h112l17 67h-112l33 134l34 135h112zM350 683l-26 -101l-25 -100h291l26 100l25 101h-291z" />
    <glyph glyph-name="uni430" unicode="&#x430;" 
d="M263 605h425l-28 -112h112l-33 -135l-28 -112l-28 -112l-33 -134h-538l28 112h-112l39 157h112l28 112h336l17 67h-336zM238 235l-22 -89h291l22 89h-291z" />
    <glyph glyph-name="uni431" unicode="&#x431;" 
d="M319 829h425l-39 -157h-336l-22 -90l-23 -89h23l28 112h313l-28 -112h112l-33 -135l-28 -112l-33 -134h-112l-28 -112h-426l28 112h-112l33 134l84 336l34 135h112zM406 459l-28 -112h-112l-25 -101l-25 -100h291l25 100l28 112l25 101h-179z" />
    <glyph glyph-name="uni432" unicode="&#x432;" 
d="M263 605h425l-28 -112h112l-39 -157h-112l-16 -67h112l-39 -157h-112l-28 -112h-426l34 134l83 336zM406 459l-23 -89h180l22 89h-179zM350 235l-22 -89h179l22 89h-179z" />
    <glyph glyph-name="uni433" unicode="&#x433;" 
d="M263 605h537l-39 -157h-336l-22 -90l-28 -112l-28 -112l-33 -134h-202l34 134l83 336z" />
    <glyph glyph-name="uni434" unicode="&#x434;" 
d="M263 605h537l-33 -135l-28 -112l-28 -112l-56 -224l-33 -134h-202l28 112h-246l-28 -112h-202l34 134l28 112l33 135h112l22 89l28 112zM406 459l-25 -101l-31 -123h-112l-22 -89h291l25 100l28 112l25 101h-179z" />
    <glyph glyph-name="uni435" unicode="&#x435;" 
d="M263 605h425l-28 -112h112l-33 -135l-34 -134h-448l-16 -67h448l-39 -157h-538l28 112h-112l33 134l28 112l34 135h112zM294 459l-23 -89h292l22 89h-291z" />
    <glyph glyph-name="uni436" unicode="&#x436;" 
d="M151 605h201l-33 -135l-22 -89h22l22 89l34 135h201l-33 -135l-22 -89h22l22 89l34 135h201l-33 -135l-34 -134h-112l-16 -67h112l-34 -135l-33 -134h-202l34 134l22 90h-23l-22 -90l-33 -134h-202l34 134l22 90h-23l-22 -90l-33 -134h-202l67 269h112l17 67h-112l33 134
z" />
    <glyph glyph-name="uni437" unicode="&#x437;" 
d="M263 605h425l-28 -112h112l-39 -157h-112l-16 -67h112l-39 -157h-112l-28 -112h-426l28 112h-112l39 157h202l-28 -112h246l17 67h-224l39 157h224l17 67h-247l-28 -112h-201l39 157h112z" />
    <glyph glyph-name="uni438" unicode="&#x438;" 
d="M151 605h201l-33 -135l-28 -112l-22 -89h22l28 112h112l28 112h112l28 112h201l-33 -135l-28 -112l-28 -112l-28 -112l-33 -134h-202l34 134l27 112l23 90h-23l-28 -112h-112l-27 -112h-112l-28 -112h-202l34 134l83 336z" />
    <glyph glyph-name="uni439" unicode="&#x439;" 
d="M347 941h201l-28 -112h23l28 112h201l-39 -157h-112l-28 -112h-201l27 112h-112zM151 605h201l-33 -135l-28 -112l-22 -89h22l28 112h112l28 112h112l28 112h201l-33 -135l-28 -112l-28 -112l-28 -112l-33 -134h-202l34 134l27 112l23 90h-23l-28 -112h-112l-27 -112
h-112l-28 -112h-202l34 134l83 336z" />
    <glyph glyph-name="uni43A" unicode="&#x43a;" 
d="M151 605h201l-33 -135l-22 -89h134l28 112h112l28 112h201l-39 -157h-112l-28 -112h-112l-16 -67h112l-28 -112h112l-39 -157h-202l28 112h-112l28 112h-135l-22 -90l-33 -134h-202l34 134l83 336z" />
    <glyph glyph-name="uni43B" unicode="&#x43b;" 
d="M263 605h537l-33 -135l-28 -112l-28 -112l-28 -112l-33 -134h-202l34 134l55 224l23 90h-135l-22 -90l-34 -134h-112l-22 -90l-33 -134h-202l67 269h112l22 89l28 112z" />
    <glyph glyph-name="uni43C" unicode="&#x43c;" 
d="M151 605h201l-28 -112h112l-27 -112h22l28 112h112l28 112h201l-33 -135l-28 -112l-28 -112l-28 -112l-33 -134h-202l34 134l27 112l23 90h-23l-28 -112h-201l28 112h-23l-22 -90l-28 -112l-33 -134h-202l34 134l83 336z" />
    <glyph glyph-name="uni43D" unicode="&#x43d;" 
d="M151 605h201l-33 -135l-22 -89h246l22 89l34 135h201l-33 -135l-28 -112l-28 -112l-28 -112l-33 -134h-202l34 134l22 90h-247l-22 -90l-33 -134h-202l34 134l83 336z" />
    <glyph glyph-name="uni43E" unicode="&#x43e;" 
d="M263 605h425l-28 -112h112l-33 -135l-28 -112l-33 -134h-112l-28 -112h-426l28 112h-112l33 134l28 112l34 135h112zM294 459l-25 -101l-28 -112l-25 -100h291l25 100l28 112l25 101h-291z" />
    <glyph glyph-name="uni43F" unicode="&#x43f;" 
d="M151 605h649l-33 -135l-28 -112l-28 -112l-28 -112l-33 -134h-202l34 134l55 224l23 90h-247l-22 -90l-28 -112l-28 -112l-33 -134h-202l34 134l83 336z" />
    <glyph glyph-name="uni440" unicode="&#x440;" 
d="M151 605h201l-28 -112h23l28 112h313l-28 -112h112l-33 -135l-34 -134h-112l-27 -112h-336l-23 -90l-33 -134h-202l34 134l111 448zM406 459l-28 -112h-112l-23 -89h292l25 100l25 101h-179z" />
    <glyph glyph-name="uni441" unicode="&#x441;" 
d="M263 605h425l-28 -112h112l-39 -157h-201l28 112h-247l-22 -90l-28 -112l-22 -89h246l28 112h202l-39 -157h-112l-28 -112h-426l28 112h-112l33 134l28 112l34 135h112z" />
    <glyph glyph-name="uni442" unicode="&#x442;" 
d="M151 605h649l-39 -157h-224l-22 -90l-28 -112l-28 -112l-33 -134h-202l34 134l55 224l23 90h-224z" />
    <glyph glyph-name="uni443" unicode="&#x443;" 
d="M151 605h201l-33 -135l-22 -89h112l-34 -135l-22 -89h22l22 89l34 135h112l22 89l34 135h201l-33 -135l-34 -134h-112l-22 -90l-33 -134h-112l-23 -90l-33 -134h-112l-28 -112h-202l39 157h112l45 179h-112l33 134l23 90h-112l33 134z" />
    <glyph glyph-name="uni444" unicode="&#x444;" 
d="M431 829h201l-33 -135l-23 -89h112l-28 -112h112l-33 -135l-28 -112l-33 -134h-112l-28 -112h-112l-23 -90l-33 -134h-202l34 134l22 90h-112l28 112h-112l33 134l28 112l34 135h112l28 112h112l22 89zM294 459l-25 -101l-28 -112l-25 -100h67l25 100l28 112l25 101h-67z
M518 459l-25 -101l-28 -112l-25 -100h67l25 100l28 112l25 101h-67z" />
    <glyph glyph-name="uni445" unicode="&#x445;" 
d="M151 605h313l-33 -135l-22 -89h22l22 89l34 135h313l-39 -157h-112l-28 -112h-112l-16 -67h112l-28 -112h112l-39 -157h-314l34 134l22 90h-23l-22 -90l-33 -134h-314l39 157h112l28 112h112l17 67h-112l28 112h-112z" />
    <glyph glyph-name="uni446" unicode="&#x446;" 
d="M151 605h201l-33 -135l-28 -112l-28 -112l-22 -89h134l22 89l56 224l34 135h201l-33 -135l-28 -112l-28 -112l-22 -89h112l-34 -135l-33 -134h-202l28 112h-448l34 134l83 336z" />
    <glyph glyph-name="uni447" unicode="&#x447;" 
d="M151 605h201l-33 -135l-28 -112l-22 -89h246l22 89l28 112l34 135h201l-33 -135l-28 -112l-28 -112l-28 -112l-33 -134h-202l28 112h-336l28 112h-112l33 134l28 112z" />
    <glyph glyph-name="uni448" unicode="&#x448;" 
d="M151 605h201l-33 -135l-28 -112l-28 -112l-22 -89h22l22 89l56 224l34 135h201l-33 -135l-28 -112l-28 -112l-22 -89h22l22 89l56 224l34 135h201l-33 -135l-28 -112l-28 -112l-28 -112l-33 -134h-650l34 134l83 336z" />
    <glyph glyph-name="uni449" unicode="&#x449;" 
d="M151 605h201l-33 -135l-28 -112l-28 -112l-22 -89h22l22 89l56 224l34 135h201l-33 -135l-28 -112l-28 -112l-22 -89h22l22 89l56 224l34 135h201l-33 -135l-28 -112l-28 -112l-56 -224l-33 -134h-202l28 112h-448l34 134l83 336z" />
    <glyph glyph-name="uni44A" unicode="&#x44a;" 
d="M151 605h313l-28 -112h224l-27 -112h112l-34 -135l-33 -134h-112l-28 -112h-426l34 134l55 224l23 90h-112zM378 347l-25 -101l-25 -100h179l25 100l25 101h-179z" />
    <glyph glyph-name="uni44B" unicode="&#x44b;" 
d="M151 605h201l-28 -112h224l-27 -112h22l22 89l34 135h201l-33 -135l-28 -112l-28 -112l-28 -112l-33 -134h-202l28 112h-22l-28 -112h-426l34 134l83 336zM266 347l-25 -101l-25 -100h179l25 100l25 101h-179z" />
    <glyph glyph-name="uni44C" unicode="&#x44c;" 
d="M151 605h201l-28 -112h336l-27 -112h112l-34 -135l-33 -134h-112l-28 -112h-538l34 134l83 336zM266 347l-25 -101l-25 -100h291l25 100l25 101h-291z" />
    <glyph glyph-name="uni44D" unicode="&#x44d;" 
d="M263 605h425l-28 -112h112l-33 -135l-28 -112l-33 -134h-112l-28 -112h-426l28 112h-112l39 157h202l-28 -112h246l17 67h-224l39 157h224l17 67h-247l-28 -112h-201l39 157h112z" />
    <glyph glyph-name="uni44E" unicode="&#x44e;" 
d="M151 605h201l-33 -135l-22 -89h22l28 112h112l28 112h201l-28 -112h112l-33 -135l-28 -112l-33 -134h-112l-28 -112h-202l28 112h-112l28 112h-23l-22 -90l-33 -134h-202l34 134l83 336zM518 459l-25 -101l-28 -112l-25 -100h67l25 100l28 112l25 101h-67z" />
    <glyph glyph-name="uni44F" unicode="&#x44f;" 
d="M263 605h537l-33 -135l-28 -112l-28 -112l-28 -112l-33 -134h-202l34 134l22 90h-247l-22 -90l-33 -134h-202l67 269h112l17 67h-112l39 157h112zM294 459l-23 -89h292l22 89h-291z" />
    <glyph glyph-name="uni450" unicode="&#x450;" 
d="M459 941h201l-28 -112h112l-39 -157h-201l27 112h-112zM263 605h425l-28 -112h112l-33 -135l-34 -134h-448l-16 -67h448l-39 -157h-538l28 112h-112l33 134l28 112l34 135h112zM294 459l-23 -89h292l22 89h-291z" />
    <glyph glyph-name="uni451" unicode="&#x451;" 
d="M319 829h201l-39 -157h-201zM543 829h201l-39 -157h-201zM263 605h425l-28 -112h112l-33 -135l-34 -134h-448l-16 -67h448l-39 -157h-538l28 112h-112l33 134l28 112l34 135h112zM294 459l-23 -89h292l22 89h-291z" />
    <glyph glyph-name="uni452" unicode="&#x452;" 
d="M319 829h201l-28 -112h112l-39 -157h-112l-22 -90l-22 -89h22l28 112h201l-27 -112h112l-34 -135l-28 -112l-33 -134h-112l-28 -112h-202l39 157h112l23 89l27 112l23 90h-23l-28 -112h-112l-22 -90l-33 -134h-202l34 134l83 336l23 90h-112l39 157h112z" />
    <glyph glyph-name="uni453" unicode="&#x453;" 
d="M571 941h201l-39 -157h-112l-28 -112h-201l39 157h112zM263 605h537l-39 -157h-336l-22 -90l-28 -112l-28 -112l-33 -134h-202l34 134l83 336z" />
    <glyph glyph-name="uni454" unicode="&#x454;" 
d="M263 605h425l-28 -112h112l-39 -157h-201l28 112h-247l-16 -67h224l-40 -157h-224l-16 -67h246l28 112h202l-39 -157h-112l-28 -112h-426l28 112h-112l33 134l28 112l34 135h112z" />
    <glyph glyph-name="uni455" unicode="&#x455;" 
d="M263 605h537l-39 -157h-448l-16 -67h336l-28 -112h112l-39 -157h-112l-28 -112h-538l39 157h448l17 67h-336l28 112h-112l39 157h112z" />
    <glyph glyph-name="uni456" unicode="&#x456;" 
d="M431 829h201l-39 -157h-201zM263 605h313l-33 -135l-28 -112l-28 -112l-22 -89h112l-39 -157h-426l39 157h112l22 89l28 112l23 90h-112z" />
    <glyph glyph-name="uni457" unicode="&#x457;" 
d="M319 829h201l-39 -157h-201zM543 829h201l-39 -157h-201zM263 605h313l-33 -135l-28 -112l-28 -112l-22 -89h112l-39 -157h-426l39 157h112l22 89l28 112l23 90h-112z" />
    <glyph glyph-name="uni458" unicode="&#x458;" 
d="M543 829h201l-39 -157h-201zM375 605h313l-33 -135l-28 -112l-28 -112l-28 -112l-33 -134h-112l-28 -112h-314l28 112h-112l39 157h202l-28 -112h134l23 89l55 224l23 90h-112z" />
    <glyph glyph-name="uni459" unicode="&#x459;" 
d="M263 605h313l-33 -135l-22 -89h112l-28 -112h112l-39 -157h-112l-28 -112h-314l34 134l55 224l23 90h-23l-22 -90l-28 -112l-28 -112l-33 -134h-202l34 134l55 224l34 135h112zM462 235l-22 -89h67l22 89h-67z" />
    <glyph glyph-name="uni45A" unicode="&#x45a;" 
d="M151 605h201l-33 -135l-22 -89h22l22 89l34 135h201l-33 -135l-22 -89h112l-28 -112h112l-39 -157h-112l-28 -112h-314l34 134l22 90h-23l-22 -90l-33 -134h-202l34 134l83 336zM462 235l-22 -89h67l22 89h-67z" />
    <glyph glyph-name="uni45B" unicode="&#x45b;" 
d="M319 829h201l-28 -112h112l-39 -157h-112l-22 -90l-22 -89h22l28 112h201l-27 -112h112l-34 -135l-28 -112l-33 -134h-202l34 134l27 112l23 90h-23l-28 -112h-112l-22 -90l-33 -134h-202l34 134l83 336l23 90h-112l39 157h112z" />
    <glyph glyph-name="uni45C" unicode="&#x45c;" 
d="M571 941h201l-39 -157h-112l-28 -112h-201l39 157h112zM151 605h201l-33 -135l-22 -89h134l28 112h112l28 112h201l-39 -157h-112l-28 -112h-112l-16 -67h112l-28 -112h112l-39 -157h-202l28 112h-112l28 112h-135l-22 -90l-33 -134h-202l34 134l83 336z" />
    <glyph glyph-name="uni45D" unicode="&#x45d;" 
d="M459 941h201l-28 -112h112l-39 -157h-201l27 112h-112zM151 605h201l-33 -135l-28 -112l-22 -89h22l28 112h112l28 112h112l28 112h201l-33 -135l-28 -112l-28 -112l-28 -112l-33 -134h-202l34 134l27 112l23 90h-23l-28 -112h-112l-27 -112h-112l-28 -112h-202l34 134
l83 336z" />
    <glyph glyph-name="uni45E" unicode="&#x45e;" 
d="M347 941h201l-28 -112h23l28 112h201l-39 -157h-112l-28 -112h-201l27 112h-112zM151 605h201l-33 -135l-22 -89h112l-34 -135l-22 -89h22l22 89l34 135h112l22 89l34 135h201l-33 -135l-34 -134h-112l-22 -90l-33 -134h-112l-23 -90l-33 -134h-112l-28 -112h-202l39 157
h112l45 179h-112l33 134l23 90h-112l33 134z" />
    <glyph glyph-name="uni45F" unicode="&#x45f;" 
d="M151 605h201l-33 -135l-28 -112l-28 -112l-22 -89h246l22 89l56 224l34 135h201l-33 -135l-28 -112l-28 -112l-28 -112l-33 -134h-224l-28 -112h-202l28 112h-224l34 134l83 336z" />
    <glyph glyph-name="uni1FB00" unicode="&#x1fb00;" 
d="M290 1165h426l-33 -135l-56 -224l-34 -134h-425l33 134l28 112l28 112z" />
    <glyph glyph-name="uni1FB01" unicode="&#x1fb01;" 
d="M626 1165h426l-33 -135l-56 -224l-34 -134h-425l33 134l28 112l28 112z" />
    <glyph glyph-name="uni1FB02" unicode="&#x1fb02;" 
d="M290 1165h762l-33 -135l-56 -224l-34 -134h-761l33 134l28 112l28 112z" />
    <glyph glyph-name="uni1FB03" unicode="&#x1fb03;" 
d="M179 717h425l-33 -135l-56 -224l-34 -134h-425l33 134l56 224z" />
    <glyph glyph-name="uni1FB04" unicode="&#x1fb04;" 
d="M290 1165h426l-33 -135l-168 -672l-34 -134h-425l33 134l112 448l28 112l28 112z" />
    <glyph glyph-name="uni1FB05" unicode="&#x1fb05;" 
d="M626 1165h426l-33 -135l-56 -224l-34 -134h-336l-22 -90l-56 -224l-34 -134h-425l33 134l56 224l34 135h336l22 89l28 112l28 112z" />
    <glyph glyph-name="uni1FB06" unicode="&#x1fb06;" 
d="M290 1165h762l-33 -135l-56 -224l-34 -134h-336l-22 -90l-56 -224l-34 -134h-425l33 134l112 448l28 112l28 112z" />
    <glyph glyph-name="uni1FB07" unicode="&#x1fb07;" 
d="M515 717h425l-33 -135l-56 -224l-34 -134h-425l33 134l56 224z" />
    <glyph glyph-name="uni1FB08" unicode="&#x1fb08;" 
d="M290 1165h426l-33 -135l-56 -224l-23 -89h336l-33 -135l-56 -224l-34 -134h-425l33 134l56 224l23 90h-336l33 134l28 112l28 112z" />
    <glyph glyph-name="uni1FB09" unicode="&#x1fb09;" 
d="M626 1165h426l-33 -135l-168 -672l-34 -134h-425l33 134l112 448l28 112l28 112z" />
    <glyph glyph-name="uni1FB0A" unicode="&#x1fb0a;" 
d="M290 1165h762l-33 -135l-168 -672l-34 -134h-425l33 134l56 224l23 90h-336l33 134l28 112l28 112z" />
    <glyph glyph-name="uni1FB0B" unicode="&#x1fb0b;" 
d="M179 717h761l-33 -135l-56 -224l-34 -134h-761l33 134l56 224z" />
    <glyph glyph-name="uni1FB0C" unicode="&#x1fb0c;" 
d="M290 1165h426l-33 -135l-56 -224l-23 -89h336l-33 -135l-56 -224l-34 -134h-761l33 134l112 448l28 112l28 112z" />
    <glyph glyph-name="uni1FB0D" unicode="&#x1fb0d;" 
d="M626 1165h426l-33 -135l-168 -672l-34 -134h-761l33 134l56 224l34 135h336l22 89l28 112l28 112z" />
    <glyph glyph-name="uni1FB0E" unicode="&#x1fb0e;" 
d="M290 1165h762l-33 -135l-168 -672l-34 -134h-761l33 134l112 448l28 112l28 112z" />
    <glyph glyph-name="uni1FB0F" unicode="&#x1fb0f;" 
d="M67 269h426l-34 -135l-56 -224l-33 -134h-426l34 134l56 224z" />
    <glyph glyph-name="uni1FB10" unicode="&#x1fb10;" 
d="M290 1165h426l-33 -135l-56 -224l-34 -134h-425l33 134l28 112l28 112zM67 269h426l-34 -135l-56 -224l-33 -134h-426l34 134l56 224z" />
    <glyph glyph-name="uni1FB11" unicode="&#x1fb11;" 
d="M626 1165h426l-33 -135l-56 -224l-34 -134h-425l33 134l28 112l28 112zM67 269h426l-34 -135l-56 -224l-33 -134h-426l34 134l56 224z" />
    <glyph glyph-name="uni1FB12" unicode="&#x1fb12;" 
d="M290 1165h762l-33 -135l-56 -224l-34 -134h-761l33 134l28 112l28 112zM67 269h426l-34 -135l-56 -224l-33 -134h-426l34 134l56 224z" />
    <glyph glyph-name="uni1FB13" unicode="&#x1fb13;" 
d="M179 717h425l-33 -135l-56 -224l-28 -112l-84 -336l-33 -134h-426l34 134l167 672z" />
    <glyph glyph-name="uni1FB14" unicode="&#x1fb14;" 
d="M626 1165h426l-33 -135l-56 -224l-34 -134h-336l-22 -90l-56 -224l-28 -112l-84 -336l-33 -134h-426l34 134l167 672l34 135h336l22 89l28 112l28 112z" />
    <glyph glyph-name="uni1FB15" unicode="&#x1fb15;" 
d="M290 1165h762l-33 -135l-56 -224l-34 -134h-336l-22 -90l-56 -224l-28 -112l-84 -336l-33 -134h-426l34 134l223 896l28 112l28 112z" />
    <glyph glyph-name="uni1FB16" unicode="&#x1fb16;" 
d="M515 717h425l-33 -135l-56 -224l-34 -134h-336l-22 -90l-56 -224l-33 -134h-426l34 134l56 224l33 135h336l22 89l56 224z" />
    <glyph glyph-name="uni1FB17" unicode="&#x1fb17;" 
d="M290 1165h426l-33 -135l-56 -224l-23 -89h336l-33 -135l-56 -224l-34 -134h-336l-22 -90l-56 -224l-33 -134h-426l34 134l56 224l33 135h336l22 89l56 224l23 90h-336l33 134l28 112l28 112z" />
    <glyph glyph-name="uni1FB18" unicode="&#x1fb18;" 
d="M626 1165h426l-33 -135l-168 -672l-34 -134h-336l-22 -90l-56 -224l-33 -134h-426l34 134l56 224l33 135h336l22 89l112 448l28 112l28 112z" />
    <glyph glyph-name="uni1FB19" unicode="&#x1fb19;" 
d="M402 1165h650l-33 -135l-168 -672l-34 -134h-336l-22 -90l-56 -224l-33 -134h-426l34 134l56 224l33 135h336l22 89l56 224l23 90h-224l33 134l28 112l28 112z" />
    <glyph glyph-name="uni1FB1A" unicode="&#x1fb1a;" 
d="M179 717h761l-33 -135l-56 -224l-34 -134h-336l-22 -90l-56 -224l-33 -134h-426l34 134l167 672z" />
    <glyph glyph-name="uni1FB1B" unicode="&#x1fb1b;" 
d="M290 1165h426l-33 -135l-56 -224l-23 -89h336l-33 -135l-56 -224l-34 -134h-336l-22 -90l-56 -224l-33 -134h-426l34 134l223 896l28 112l28 112z" />
    <glyph glyph-name="uni1FB1C" unicode="&#x1fb1c;" 
d="M626 1165h426l-33 -135l-168 -672l-34 -134h-336l-22 -90l-56 -224l-33 -134h-426l34 134l167 672l34 135h336l22 89l28 112l28 112z" />
    <glyph glyph-name="uni1FB1D" unicode="&#x1fb1d;" 
d="M290 1165h762l-33 -135l-168 -672l-34 -134h-336l-22 -90l-56 -224l-33 -134h-426l34 134l223 896l28 112l28 112z" />
    <glyph glyph-name="uni1FB1E" unicode="&#x1fb1e;" 
d="M403 269h426l-34 -135l-56 -224l-33 -134h-426l34 134l56 224z" />
    <glyph glyph-name="uni1FB1F" unicode="&#x1fb1f;" 
d="M290 1165h426l-33 -135l-56 -224l-34 -134h-425l33 134l28 112l28 112zM403 269h426l-34 -135l-56 -224l-33 -134h-426l34 134l56 224z" />
    <glyph glyph-name="uni1FB20" unicode="&#x1fb20;" 
d="M626 1165h426l-33 -135l-56 -224l-34 -134h-425l33 134l28 112l28 112zM403 269h426l-34 -135l-56 -224l-33 -134h-426l34 134l56 224z" />
    <glyph glyph-name="uni1FB21" unicode="&#x1fb21;" 
d="M290 1165h762l-33 -135l-56 -224l-34 -134h-761l33 134l28 112l28 112zM403 269h426l-34 -135l-56 -224l-33 -134h-426l34 134l56 224z" />
    <glyph glyph-name="uni1FB22" unicode="&#x1fb22;" 
d="M179 717h425l-33 -135l-56 -224l-22 -89h336l-34 -135l-56 -224l-33 -134h-426l34 134l56 224l22 90h-336l33 134l56 224z" />
    <glyph glyph-name="uni1FB23" unicode="&#x1fb23;" 
d="M290 1165h426l-33 -135l-168 -672l-22 -89h336l-34 -135l-56 -224l-33 -134h-426l34 134l56 224l22 90h-336l33 134l112 448l28 112l28 112z" />
    <glyph glyph-name="uni1FB24" unicode="&#x1fb24;" 
d="M626 1165h426l-33 -135l-56 -224l-34 -134h-336l-22 -90l-56 -224l-22 -89h336l-34 -135l-56 -224l-33 -134h-426l34 134l56 224l22 90h-336l33 134l56 224l34 135h336l22 89l28 112l28 112z" />
    <glyph glyph-name="uni1FB25" unicode="&#x1fb25;" 
d="M290 1165h762l-33 -135l-56 -224l-34 -134h-336l-22 -90l-56 -224l-22 -89h336l-34 -135l-56 -224l-33 -134h-426l34 134l56 224l22 90h-336l33 134l112 448l28 112l28 112z" />
    <glyph glyph-name="uni1FB26" unicode="&#x1fb26;" 
d="M515 717h425l-33 -135l-56 -224l-28 -112l-84 -336l-33 -134h-426l34 134l167 672z" />
    <glyph glyph-name="uni1FB27" unicode="&#x1fb27;" 
d="M290 1165h426l-33 -135l-56 -224l-23 -89h336l-33 -135l-56 -224l-28 -112l-84 -336l-33 -134h-426l34 134l167 672l23 90h-336l33 134l28 112l28 112z" />
    <glyph glyph-name="uni1FB28" unicode="&#x1fb28;" 
d="M290 1165h762l-33 -135l-168 -672l-28 -112l-84 -336l-33 -134h-426l34 134l167 672l23 90h-336l33 134l28 112l28 112z" />
    <glyph glyph-name="uni1FB29" unicode="&#x1fb29;" 
d="M179 717h761l-33 -135l-56 -224l-28 -112l-84 -336l-33 -134h-426l34 134l56 224l22 90h-336l33 134l56 224z" />
    <glyph glyph-name="uni1FB2A" unicode="&#x1fb2a;" 
d="M290 1165h426l-33 -135l-56 -224l-23 -89h336l-33 -135l-56 -224l-28 -112l-84 -336l-33 -134h-426l34 134l56 224l22 90h-336l33 134l112 448l28 112l28 112z" />
    <glyph glyph-name="uni1FB2B" unicode="&#x1fb2b;" 
d="M626 1165h426l-33 -135l-168 -672l-28 -112l-84 -336l-33 -134h-426l34 134l56 224l22 90h-336l33 134l56 224l34 135h336l22 89l28 112l28 112z" />
    <glyph glyph-name="uni1FB2C" unicode="&#x1fb2c;" 
d="M290 1165h762l-33 -135l-168 -672l-28 -112l-84 -336l-33 -134h-426l34 134l56 224l22 90h-336l33 134l112 448l28 112l28 112z" />
    <glyph glyph-name="uni1FB2D" unicode="&#x1fb2d;" 
d="M67 269h762l-34 -135l-56 -224l-33 -134h-762l34 134l56 224z" />
    <glyph glyph-name="uni1FB2E" unicode="&#x1fb2e;" 
d="M290 1165h426l-33 -135l-56 -224l-34 -134h-425l33 134l28 112l28 112zM67 269h762l-34 -135l-56 -224l-33 -134h-762l34 134l56 224z" />
    <glyph glyph-name="uni1FB2F" unicode="&#x1fb2f;" 
d="M626 1165h426l-33 -135l-56 -224l-34 -134h-425l33 134l28 112l28 112zM67 269h762l-34 -135l-56 -224l-33 -134h-762l34 134l56 224z" />
    <glyph glyph-name="uni1FB30" unicode="&#x1fb30;" 
d="M290 1165h762l-33 -135l-56 -224l-34 -134h-761l33 134l28 112l28 112zM67 269h762l-34 -135l-56 -224l-33 -134h-762l34 134l56 224z" />
    <glyph glyph-name="uni1FB31" unicode="&#x1fb31;" 
d="M179 717h425l-33 -135l-56 -224l-22 -89h336l-34 -135l-56 -224l-33 -134h-762l34 134l167 672z" />
    <glyph glyph-name="uni1FB32" unicode="&#x1fb32;" 
d="M290 1165h426l-33 -135l-168 -672l-22 -89h336l-34 -135l-56 -224l-33 -134h-762l34 134l223 896l28 112l28 112z" />
    <glyph glyph-name="uni1FB33" unicode="&#x1fb33;" 
d="M626 1165h426l-33 -135l-56 -224l-34 -134h-336l-22 -90l-56 -224l-22 -89h336l-34 -135l-56 -224l-33 -134h-762l34 134l167 672l34 135h336l22 89l28 112l28 112z" />
    <glyph glyph-name="uni1FB34" unicode="&#x1fb34;" 
d="M290 1165h762l-33 -135l-56 -224l-34 -134h-336l-22 -90l-56 -224l-22 -89h336l-34 -135l-56 -224l-33 -134h-762l34 134l223 896l28 112l28 112z" />
    <glyph glyph-name="uni1FB35" unicode="&#x1fb35;" 
d="M515 717h425l-33 -135l-56 -224l-28 -112l-84 -336l-33 -134h-762l34 134l56 224l33 135h336l22 89l56 224z" />
    <glyph glyph-name="uni1FB36" unicode="&#x1fb36;" 
d="M290 1165h426l-33 -135l-56 -224l-23 -89h336l-33 -135l-56 -224l-28 -112l-84 -336l-33 -134h-762l34 134l56 224l33 135h336l22 89l56 224l23 90h-336l33 134l28 112l28 112z" />
    <glyph glyph-name="uni1FB37" unicode="&#x1fb37;" 
d="M626 1165h426l-33 -135l-168 -672l-28 -112l-84 -336l-33 -134h-762l34 134l56 224l33 135h336l22 89l112 448l28 112l28 112z" />
    <glyph glyph-name="uni1FB38" unicode="&#x1fb38;" 
d="M290 1165h762l-33 -135l-168 -672l-28 -112l-84 -336l-33 -134h-762l34 134l56 224l33 135h336l22 89l56 224l23 90h-336l33 134l28 112l28 112z" />
    <glyph glyph-name="uni1FB39" unicode="&#x1fb39;" 
d="M179 717h761l-33 -135l-56 -224l-28 -112l-84 -336l-33 -134h-762l34 134l167 672z" />
    <glyph glyph-name="uni1FB3A" unicode="&#x1fb3a;" 
d="M290 1165h426l-33 -135l-56 -224l-23 -89h336l-33 -135l-56 -224l-28 -112l-84 -336l-33 -134h-762l34 134l223 896l28 112l28 112z" />
    <glyph glyph-name="uni1FB3B" unicode="&#x1fb3b;" 
d="M626 1165h426l-33 -135l-168 -672l-28 -112l-84 -336l-33 -134h-762l34 134l167 672l34 135h336l22 89l28 112l28 112z" />
    <glyph glyph-name="uni1FB3C" unicode="&#x1fb3c;" 
d="M67 269h202l-34 -135l-22 -89h112l-28 -112h112l-39 -157h-426l34 134l56 224z" />
    <glyph glyph-name="uni1FB3D" unicode="&#x1fb3d;" 
d="M67 269h202l-28 -112h112l-28 -112h224l-28 -112h224l-39 -157h-762l34 134l56 224z" />
    <glyph glyph-name="uni1FB3E" unicode="&#x1fb3e;" 
d="M179 717h201l-33 -135l-28 -112l-22 -89h112l-34 -135l-28 -112l-22 -89h112l-34 -135l-33 -134h-426l34 134l167 672z" />
    <glyph glyph-name="uni1FB3F" unicode="&#x1fb3f;" 
d="M179 717h201l-33 -135l-23 -89h112l-33 -135l-22 -89h112l-28 -112h112l-28 -112h112l-28 -112h112l-39 -157h-762l34 134l167 672z" />
    <glyph glyph-name="uni1FB40" unicode="&#x1fb40;" 
d="M290 1165h202l-33 -135l-56 -224l-23 -89h112l-33 -135l-56 -224l-22 -89h112l-34 -135l-56 -224l-33 -134h-426l34 134l223 896l28 112l28 112z" />
    <glyph glyph-name="uni1FB41" unicode="&#x1fb41;" 
d="M626 1165h426l-33 -135l-168 -672l-28 -112l-84 -336l-33 -134h-762l34 134l195 784l34 135h112l28 112h112l27 112h112z" />
    <glyph glyph-name="uni1FB42" unicode="&#x1fb42;" 
d="M850 1165h202l-33 -135l-168 -672l-28 -112l-84 -336l-33 -134h-762l34 134l167 672l34 135h112l28 112h224l28 112h112l27 112h112z" />
    <glyph glyph-name="uni1FB43" unicode="&#x1fb43;" 
d="M626 1165h426l-33 -135l-168 -672l-28 -112l-84 -336l-33 -134h-762l34 134l56 224l33 135h112l22 89l28 112l34 135h112l22 89l28 112l34 135h112l22 89z" />
    <glyph glyph-name="uni1FB44" unicode="&#x1fb44;" 
d="M850 1165h202l-33 -135l-168 -672l-28 -112l-84 -336l-33 -134h-762l34 134l56 224l33 135h112l22 89l34 135h112l28 112h112l22 89l34 135h112l28 112h112l22 89z" />
    <glyph glyph-name="uni1FB45" unicode="&#x1fb45;" 
d="M626 1165h426l-33 -135l-168 -672l-28 -112l-84 -336l-33 -134h-762l34 134l28 112l33 135h112l22 89l28 112l34 135h112l22 89l28 112l34 135h112l22 89l28 112z" />
    <glyph glyph-name="uni1FB46" unicode="&#x1fb46;" 
d="M739 717h201l-33 -135l-56 -224l-28 -112l-84 -336l-33 -134h-762l34 134l56 224l33 135h112l28 112h224l28 112h112l28 112h112z" />
    <glyph glyph-name="uni1FB47" unicode="&#x1fb47;" 
d="M627 269h202l-34 -135l-56 -224l-33 -134h-426l39 157h112l28 112h112l23 89z" />
    <glyph glyph-name="uni1FB48" unicode="&#x1fb48;" 
d="M627 269h202l-34 -135l-56 -224l-33 -134h-762l39 157h224l28 112h224l28 112h112z" />
    <glyph glyph-name="uni1FB49" unicode="&#x1fb49;" 
d="M739 717h201l-33 -135l-56 -224l-28 -112l-84 -336l-33 -134h-426l67 269h112l23 89l27 112l34 135h112l22 89l28 112z" />
    <glyph glyph-name="uni1FB4A" unicode="&#x1fb4a;" 
d="M739 717h201l-33 -135l-56 -224l-28 -112l-84 -336l-33 -134h-762l39 157h112l28 112h112l28 112h112l28 112h112l22 89l34 135h112l22 89z" />
    <glyph glyph-name="uni1FB4B" unicode="&#x1fb4b;" 
d="M850 1165h202l-33 -135l-168 -672l-28 -112l-84 -336l-33 -134h-426l34 134l56 224l33 135h112l22 89l56 224l34 135h112l22 89l28 112l28 112z" />
    <glyph glyph-name="uni1FB4C" unicode="&#x1fb4c;" 
d="M290 1165h426l-28 -112h112l-28 -112h112l-28 -112h112l-33 -135l-84 -336l-28 -112l-84 -336l-33 -134h-762l34 134l223 896l28 112l28 112z" />
    <glyph glyph-name="uni1FB4D" unicode="&#x1fb4d;" 
d="M290 1165h202l-28 -112h112l-28 -112h112l-28 -112h224l-28 -112h112l-33 -135l-56 -224l-28 -112l-84 -336l-33 -134h-762l34 134l223 896l28 112l28 112z" />
    <glyph glyph-name="uni1FB4E" unicode="&#x1fb4e;" 
d="M290 1165h426l-33 -135l-23 -89h112l-33 -135l-28 -112l-23 -89h112l-33 -135l-28 -112l-22 -89h112l-34 -135l-56 -224l-33 -134h-762l34 134l223 896l28 112l28 112z" />
    <glyph glyph-name="uni1FB4F" unicode="&#x1fb4f;" 
d="M290 1165h202l-33 -135l-23 -89h112l-28 -112h112l-33 -135l-23 -89h112l-28 -112h112l-33 -135l-22 -89h112l-34 -135l-56 -224l-33 -134h-762l34 134l223 896l28 112l28 112z" />
    <glyph glyph-name="uni1FB50" unicode="&#x1fb50;" 
d="M290 1165h426l-33 -135l-28 -112l-23 -89h112l-33 -135l-28 -112l-23 -89h112l-33 -135l-28 -112l-22 -89h112l-34 -135l-28 -112l-33 -134h-762l34 134l223 896l28 112l28 112z" />
    <glyph glyph-name="uni1FB51" unicode="&#x1fb51;" 
d="M179 717h201l-28 -112h112l-28 -112h112l-27 -112h224l-28 -112h112l-34 -135l-56 -224l-33 -134h-762l34 134l167 672z" />
    <glyph glyph-name="uni1FB52" unicode="&#x1fb52;" 
d="M290 1165h762l-33 -135l-168 -672l-28 -112l-84 -336l-33 -134h-426l28 112h-112l28 112h-112l28 112h-112l33 134l140 560l28 112l28 112z" />
    <glyph glyph-name="uni1FB53" unicode="&#x1fb53;" 
d="M290 1165h762l-33 -135l-168 -672l-28 -112l-84 -336l-33 -134h-202l28 112h-112l28 112h-112l28 112h-224l28 112h-112l33 134l112 448l28 112l28 112z" />
    <glyph glyph-name="uni1FB54" unicode="&#x1fb54;" 
d="M290 1165h762l-33 -135l-168 -672l-28 -112l-84 -336l-33 -134h-426l34 134l22 90h-112l34 134l27 112l23 90h-112l33 134l28 112l23 90h-112l33 134l28 112l28 112z" />
    <glyph glyph-name="uni1FB55" unicode="&#x1fb55;" 
d="M290 1165h762l-33 -135l-168 -672l-28 -112l-84 -336l-33 -134h-202l34 134l22 90h-112l28 112h-112l33 134l23 90h-112l28 112h-112l33 134l23 90h-112l33 134l28 112l28 112z" />
    <glyph glyph-name="uni1FB56" unicode="&#x1fb56;" 
d="M290 1165h762l-33 -135l-168 -672l-28 -112l-84 -336l-33 -134h-426l34 134l28 112l22 90h-112l33 134l28 112l23 90h-112l33 134l28 112l22 90h-112l34 134l28 112z" />
    <glyph glyph-name="uni1FB57" unicode="&#x1fb57;" 
d="M290 1165h426l-39 -157h-112l-28 -112h-112l-22 -90l-34 -134h-201l33 134l28 112l28 112z" />
    <glyph glyph-name="uni1FB58" unicode="&#x1fb58;" 
d="M290 1165h762l-39 -157h-224l-28 -112h-224l-28 -112h-112l-28 -112h-201l33 134l28 112l28 112z" />
    <glyph glyph-name="uni1FB59" unicode="&#x1fb59;" 
d="M290 1165h426l-67 -269h-112l-22 -90l-28 -112l-34 -134h-112l-22 -90l-28 -112l-34 -134h-201l33 134l112 448l28 112l28 112z" />
    <glyph glyph-name="uni1FB5A" unicode="&#x1fb5a;" 
d="M290 1165h762l-39 -157h-112l-28 -112h-112l-28 -112h-112l-28 -112h-112l-22 -90l-34 -134h-112l-22 -90l-34 -134h-201l33 134l112 448l28 112l28 112z" />
    <glyph glyph-name="uni1FB5B" unicode="&#x1fb5b;" 
d="M290 1165h426l-33 -135l-56 -224l-34 -134h-112l-22 -90l-56 -224l-34 -134h-112l-22 -90l-56 -224l-33 -134h-202l34 134l223 896l28 112l28 112z" />
    <glyph glyph-name="uni1FB5C" unicode="&#x1fb5c;" 
d="M290 1165h762l-33 -135l-56 -224l-34 -134h-112l-28 -112h-224l-28 -112h-112l-28 -112h-112l-28 -112h-201l33 134l112 448l28 112l28 112z" />
    <glyph glyph-name="uni1FB5D" unicode="&#x1fb5d;" 
d="M290 1165h762l-33 -135l-168 -672l-28 -112l-33 -134h-112l-28 -112h-112l-28 -112h-112l-28 -112h-426l34 134l223 896l28 112l28 112z" />
    <glyph glyph-name="uni1FB5E" unicode="&#x1fb5e;" 
d="M290 1165h762l-33 -135l-168 -672l-34 -134h-112l-27 -112h-224l-28 -112h-112l-28 -112h-112l-28 -112h-202l34 134l223 896l28 112l28 112z" />
    <glyph glyph-name="uni1FB5F" unicode="&#x1fb5f;" 
d="M290 1165h762l-33 -135l-56 -224l-34 -134h-112l-22 -90l-28 -112l-34 -134h-112l-22 -90l-28 -112l-33 -134h-112l-23 -90l-33 -134h-426l34 134l223 896l28 112l28 112z" />
    <glyph glyph-name="uni1FB60" unicode="&#x1fb60;" 
d="M290 1165h762l-33 -135l-56 -224l-34 -134h-112l-22 -90l-34 -134h-112l-28 -112h-112l-22 -90l-33 -134h-112l-28 -112h-112l-23 -90l-33 -134h-202l34 134l223 896l28 112l28 112z" />
    <glyph glyph-name="uni1FB61" unicode="&#x1fb61;" 
d="M290 1165h762l-33 -135l-28 -112l-34 -134h-112l-22 -90l-28 -112l-34 -134h-112l-22 -90l-28 -112l-33 -134h-112l-23 -90l-28 -112l-33 -134h-426l34 134l223 896l28 112l28 112z" />
    <glyph glyph-name="uni1FB62" unicode="&#x1fb62;" 
d="M626 1165h426l-33 -135l-56 -224l-34 -134h-201l33 134l22 90h-112l28 112h-112z" />
    <glyph glyph-name="uni1FB63" unicode="&#x1fb63;" 
d="M290 1165h762l-33 -135l-56 -224l-34 -134h-201l27 112h-112l28 112h-224l28 112h-224z" />
    <glyph glyph-name="uni1FB64" unicode="&#x1fb64;" 
d="M626 1165h426l-33 -135l-168 -672l-34 -134h-201l33 134l28 112l23 90h-112l33 134l28 112l22 90h-112l34 134z" />
    <glyph glyph-name="uni1FB65" unicode="&#x1fb65;" 
d="M290 1165h762l-33 -135l-168 -672l-34 -134h-201l33 134l23 90h-112l33 134l23 90h-112l27 112h-112l28 112h-112l28 112h-112z" />
    <glyph glyph-name="uni1FB66" unicode="&#x1fb66;" 
d="M626 1165h426l-33 -135l-168 -672l-28 -112l-84 -336l-33 -134h-202l34 134l56 224l22 90h-112l33 134l56 224l23 90h-112l33 134l28 112l28 112z" />
    <glyph glyph-name="uni1FB67" unicode="&#x1fb67;" 
d="M290 1165h762l-33 -135l-168 -672l-34 -134h-201l28 112h-112l28 112h-112l28 112h-224l28 112h-112l33 134l28 112l28 112z" />
    <glyph glyph-name="uni1FB68" unicode="&#x1fb68;" 
d="M290 1165h762l-33 -135l-168 -672l-28 -112l-84 -336l-33 -134h-762l39 157h112l23 89l33 135h112l22 89l34 135h112l22 89l23 90h-112l33 134l22 90h-112l34 134l22 90h-112z" />
    <glyph glyph-name="uni1FB69" unicode="&#x1fb69;" 
d="M262 1053h202l-33 -135l-23 -89h112l-33 -135l-23 -89h135l22 89l34 135h112l22 89l33 135h202l-33 -135l-140 -560l-28 -112l-84 -336l-33 -134h-762l34 134l223 896l28 112z" />
    <glyph glyph-name="uni1FB6A" unicode="&#x1fb6a;" 
d="M290 1165h762l-39 -157h-112l-22 -90l-34 -134h-112l-22 -90l-34 -134h-112l-22 -90l-22 -89h112l-34 -135l-22 -89h112l-34 -135l-22 -89h112l-39 -157h-762l34 134l223 896l28 112l28 112z" />
    <glyph glyph-name="uni1FB6B" unicode="&#x1fb6b;" 
d="M290 1165h762l-33 -135l-168 -672l-28 -112l-56 -224l-33 -134h-202l34 134l22 90h-112l33 134l23 90h-135l-22 -90l-33 -134h-112l-23 -90l-33 -134h-202l34 134l195 784l28 112l28 112z" />
    <glyph glyph-name="uni1FB6C" unicode="&#x1fb6c;" 
d="M262 1053h202l-33 -135l-23 -89h112l-33 -135l-23 -89h112l-33 -135l-34 -134h-112l-22 -90l-33 -134h-112l-23 -90l-33 -134h-202l34 134l195 784l28 112z" />
    <glyph glyph-name="uni1FB6D" unicode="&#x1fb6d;" 
d="M290 1165h762l-39 -157h-112l-22 -90l-34 -134h-112l-22 -90l-34 -134h-313l33 134l22 90h-112l34 134l22 90h-112z" />
    <glyph glyph-name="uni1FB6E" unicode="&#x1fb6e;" 
d="M822 1053h202l-33 -135l-140 -560l-28 -112l-56 -224l-33 -134h-202l34 134l22 90h-112l33 134l23 90h-112l33 134l34 135h112l22 89l34 135h112l22 89z" />
    <glyph glyph-name="uni1FB6F" unicode="&#x1fb6f;" 
d="M319 381h314l-34 -135l-22 -89h112l-34 -135l-22 -89h112l-39 -157h-762l39 157h112l23 89l33 135h112l22 89z" />
    <glyph glyph-name="uni1FB8C" unicode="&#x1fb8c;" 
d="M290 1165h202l-28 -112h22l28 112h202l-39 -157h-112l-17 -67h112l-39 -157h-112l-17 -67h112l-39 -157h-112l-17 -67h112l-39 -157h-112l-16 -67h112l-39 -157h-112l-17 -67h112l-39 -157h-112l-28 -112h-202l28 112h-112l39 157h112l17 67h-112l39 157h112l17 67h-112
l39 157h112l17 67h-112l39 157h112l16 67h-112l40 157h112l16 67h-112zM405 907l-22 -89h67l23 89h-68zM350 683l-23 -89h67l23 89h-67zM294 459l-23 -89h68l22 89h-67zM238 235l-22 -89h67l22 89h-67zM182 11l-22 -89h67l22 89h-67z" />
    <glyph glyph-name="uni1FB8D" unicode="&#x1fb8d;" 
d="M738 1165h202l-28 -112h112l-39 -157h-112l-17 -67h112l-39 -157h-112l-17 -67h112l-39 -157h-112l-16 -67h112l-40 -157h-112l-16 -67h112l-39 -157h-112l-17 -67h112l-39 -157h-202l28 112h-22l-28 -112h-202l39 157h112l17 67h-112l39 157h112l17 67h-112l39 157h112
l17 67h-112l39 157h112l17 67h-112l39 157h112l16 67h-112l39 157h112zM769 1019l-22 -89h67l23 89h-68zM713 795l-22 -89h67l23 89h-68zM658 571l-23 -89h67l23 89h-67zM602 347l-23 -89h68l22 89h-67zM546 123l-22 -89h67l22 89h-67z" />
    <glyph glyph-name="uni1FB8E" unicode="&#x1fb8e;" 
d="M290 1165h202l-28 -112h22l28 112h202l-28 -112h22l28 112h202l-28 -112h112l-39 -157h-112l-17 -67h112l-39 -157h-112l-17 -67h112l-39 -157h-201l28 112h-23l-28 -112h-201l28 112h-23l-28 -112h-201l28 112h-112l39 157h112l16 67h-112l40 157h112l16 67h-112z
M545 1019l-22 -89h67l23 89h-68zM769 1019l-22 -89h67l23 89h-68zM405 907l-22 -89h67l23 89h-68zM629 907l-22 -89h67l23 89h-68zM489 795l-22 -89h67l23 89h-68zM713 795l-22 -89h67l23 89h-68zM350 683l-23 -89h67l23 89h-67zM574 683l-23 -89h67l23 89h-67z" />
    <glyph glyph-name="uni1FB8F" unicode="&#x1fb8f;" 
d="M123 493h201l-27 -112h22l28 112h201l-27 -112h22l28 112h201l-27 -112h112l-40 -157h-112l-16 -67h112l-39 -157h-112l-17 -67h112l-39 -157h-202l28 112h-22l-28 -112h-202l28 112h-22l-28 -112h-202l28 112h-112l39 157h112l17 67h-112l39 157h112l17 67h-112z
M378 347l-23 -89h68l22 89h-67zM602 347l-23 -89h68l22 89h-67zM238 235l-22 -89h67l22 89h-67zM462 235l-22 -89h67l22 89h-67zM322 123l-22 -89h67l22 89h-67zM546 123l-22 -89h67l22 89h-67zM182 11l-22 -89h67l22 89h-67zM406 11l-22 -89h67l22 89h-67z" />
    <glyph glyph-name="uni1FB90" unicode="&#x1fb90;" 
d="M402 1165h202l-28 -112h22l28 112h202l-28 -112h22l28 112h202l-39 -157h-112l-17 -67h112l-39 -157h-112l-17 -67h112l-39 -157h-112l-17 -67h112l-39 -157h-112l-16 -67h112l-39 -157h-112l-17 -67h112l-39 -157h-112l-28 -112h-202l28 112h-22l-28 -112h-202l28 112
h-22l-28 -112h-202l39 157h112l17 67h-112l39 157h112l17 67h-112l39 157h112l17 67h-112l39 157h112l17 67h-112l39 157h112l16 67h-112l39 157h112zM433 1019l-22 -89h67l23 89h-68zM657 1019l-22 -89h67l23 89h-68zM517 907l-22 -89h67l23 89h-68zM741 907l-22 -89h67
l23 89h-68zM377 795l-22 -89h67l23 89h-68zM601 795l-22 -89h67l23 89h-68zM462 683l-23 -89h67l23 89h-67zM686 683l-23 -89h67l23 89h-67zM322 571l-23 -89h67l23 89h-67zM546 571l-23 -89h67l23 89h-67zM406 459l-23 -89h68l22 89h-67zM630 459l-23 -89h68l22 89h-67z
M266 347l-23 -89h68l22 89h-67zM490 347l-23 -89h68l22 89h-67zM350 235l-22 -89h67l22 89h-67zM574 235l-22 -89h67l22 89h-67zM210 123l-22 -89h67l22 89h-67zM434 123l-22 -89h67l22 89h-67zM294 11l-22 -89h67l22 89h-67zM518 11l-22 -89h67l22 89h-67z" />
    <glyph glyph-name="uni1FB91" unicode="&#x1fb91;" 
d="M290 1165h762l-33 -135l-140 -560l-34 -134h-112l-16 -67h112l-39 -157h-112l-17 -67h112l-39 -157h-112l-28 -112h-202l28 112h-22l-28 -112h-202l28 112h-22l-28 -112h-202l39 157h112l17 67h-112l39 157h112l17 67h-112l39 157h112l17 67h-112l33 134l56 224l28 112
l28 112zM406 459l-23 -89h68l22 89h-67zM630 459l-23 -89h68l22 89h-67zM266 347l-23 -89h68l22 89h-67zM490 347l-23 -89h68l22 89h-67zM350 235l-22 -89h67l22 89h-67zM574 235l-22 -89h67l22 89h-67zM210 123l-22 -89h67l22 89h-67zM434 123l-22 -89h67l22 89h-67z
M294 11l-22 -89h67l22 89h-67zM518 11l-22 -89h67l22 89h-67z" />
    <glyph glyph-name="uni1FB92" unicode="&#x1fb92;" 
d="M402 1165h202l-28 -112h22l28 112h202l-28 -112h22l28 112h202l-39 -157h-112l-17 -67h112l-39 -157h-112l-17 -67h112l-39 -157h-112l-17 -67h112l-33 -135l-28 -112l-84 -336l-33 -134h-762l34 134l139 560l34 135h112l17 67h-112l39 157h112l16 67h-112l39 157h112z
M433 1019l-22 -89h67l23 89h-68zM657 1019l-22 -89h67l23 89h-68zM517 907l-22 -89h67l23 89h-68zM741 907l-22 -89h67l23 89h-68zM377 795l-22 -89h67l23 89h-68zM601 795l-22 -89h67l23 89h-68zM462 683l-23 -89h67l23 89h-67zM686 683l-23 -89h67l23 89h-67zM322 571
l-23 -89h67l23 89h-67zM546 571l-23 -89h67l23 89h-67z" />
    <glyph glyph-name="uni1FB94" unicode="&#x1fb94;" 
d="M402 1165h202l-28 -112h22l28 112h426l-33 -135l-168 -672l-28 -112l-84 -336l-33 -134h-538l28 112h-22l-28 -112h-202l39 157h112l17 67h-112l39 157h112l17 67h-112l39 157h112l17 67h-112l39 157h112l17 67h-112l39 157h112l16 67h-112l39 157h112zM433 1019l-22 -89
h67l23 89h-68zM517 907l-22 -89h67l23 89h-68zM377 795l-22 -89h67l23 89h-68zM462 683l-23 -89h67l23 89h-67zM322 571l-23 -89h67l23 89h-67zM406 459l-23 -89h68l22 89h-67zM266 347l-23 -89h68l22 89h-67zM350 235l-22 -89h67l22 89h-67zM210 123l-22 -89h67l22 89h-67z
M294 11l-22 -89h67l22 89h-67z" />
    <glyph glyph-name="uni1FB95" unicode="&#x1fb95;" 
d="M290 1165h202l-33 -135l-28 -112l-23 -89h23l22 89l28 112l33 135h202l-33 -135l-28 -112l-23 -89h23l22 89l28 112l33 135h202l-33 -135l-28 -112l-23 -89h112l-33 -135l-28 -112l-34 -134h-112l-22 -90l-28 -112l-22 -89h112l-34 -135l-28 -112l-33 -134h-202l34 134
l28 112l22 90h-22l-23 -90l-28 -112l-33 -134h-202l34 134l28 112l22 90h-22l-23 -90l-28 -112l-33 -134h-202l34 134l28 112l22 90h-112l33 134l28 112l34 135h112l22 89l28 112l22 90h-112l34 134l28 112zM489 795l-25 -101l-28 -112l-25 -100h67l26 100l28 112l25 101
h-68zM713 795l-25 -101l-28 -112l-25 -100h67l26 100l28 112l25 101h-68zM294 459l-25 -101l-28 -112l-25 -100h67l25 100l28 112l25 101h-67zM518 459l-25 -101l-28 -112l-25 -100h67l25 100l28 112l25 101h-67z" />
    <glyph glyph-name="uni1FB96" unicode="&#x1fb96;" 
d="M402 1165h202l-33 -135l-28 -112l-23 -89h23l22 89l28 112l33 135h202l-33 -135l-28 -112l-23 -89h23l22 89l28 112l33 135h202l-33 -135l-28 -112l-34 -134h-112l-22 -90l-28 -112l-23 -89h112l-33 -135l-28 -112l-33 -134h-112l-23 -90l-28 -112l-33 -134h-202l34 134
l28 112l22 90h-22l-23 -90l-28 -112l-33 -134h-202l34 134l28 112l22 90h-22l-23 -90l-28 -112l-33 -134h-202l34 134l28 112l33 135h112l22 89l28 112l23 90h-112l33 134l28 112l34 135h112l22 89l28 112zM377 795l-25 -101l-28 -112l-25 -100h67l26 100l28 112l25 101h-68
zM601 795l-25 -101l-28 -112l-25 -100h67l26 100l28 112l25 101h-68zM406 459l-25 -101l-28 -112l-25 -100h67l25 100l28 112l25 101h-67zM630 459l-25 -101l-28 -112l-25 -100h67l25 100l28 112l25 101h-67z" />
    <glyph glyph-name="uni1FB97" unicode="&#x1fb97;" 
d="M207 829h761l-33 -135l-28 -112l-34 -134h-761l33 134l28 112zM39 157h762l-34 -135l-28 -112l-33 -134h-762l34 134l28 112z" />
    <glyph glyph-name="uni1FB98" unicode="&#x1fb98;" 
d="M514 1165h202l-28 -112h112l-28 -112h112l-28 -112h112l-39 -157h-201l27 112h-112l28 112h-112l28 112h-112zM850 1165h202l-39 -157h-202zM262 1053h202l-28 -112h112l-28 -112h112l-28 -112h112l-28 -112h112l-28 -112h112l-39 -157h-201l28 112h-112l28 112h-112
l28 112h-112l27 112h-112l28 112h-112zM179 717h201l-28 -112h112l-28 -112h112l-27 -112h112l-28 -112h112l-28 -112h112l-39 -157h-202l28 112h-112l28 112h-112l28 112h-112l28 112h-112l28 112h-112zM95 381h202l-28 -112h112l-28 -112h112l-28 -112h112l-28 -112h112
l-39 -157h-202l28 112h-112l28 112h-112l28 112h-112l28 112h-112zM11 45h202l-28 -112h112l-39 -157h-202l28 112h-112z" />
    <glyph glyph-name="uni1FB99" unicode="&#x1fb99;" 
d="M290 1165h202l-39 -157h-202zM626 1165h202l-39 -157h-112l-28 -112h-112l-28 -112h-112l-28 -112h-201l39 157h112l28 112h112l27 112h112zM822 1053h202l-39 -157h-112l-28 -112h-112l-28 -112h-112l-28 -112h-112l-28 -112h-112l-28 -112h-201l39 157h112l28 112h112
l28 112h112l28 112h112l28 112h112zM739 717h201l-39 -157h-112l-28 -112h-112l-28 -112h-112l-28 -112h-112l-27 -112h-112l-28 -112h-202l39 157h112l28 112h112l28 112h112l28 112h112l28 112h112zM655 381h202l-40 -157h-112l-27 -112h-112l-28 -112h-112l-28 -112h-112
l-28 -112h-202l39 157h112l28 112h112l28 112h112l28 112h112zM571 45h202l-39 -157h-112l-28 -112h-202l39 157h112z" />
    <glyph glyph-name="uni1FB9A" unicode="&#x1fb9a;" 
d="M290 1165h762l-39 -157h-112l-22 -90l-34 -134h-112l-22 -90l-84 -336l-28 -112l-22 -89h112l-34 -135l-22 -89h112l-39 -157h-762l39 157h112l23 89l33 135h112l22 89l112 448l22 90h-112l34 134l22 90h-112z" />
    <glyph glyph-name="uni1FB9B" unicode="&#x1fb9b;" 
d="M262 1053h202l-33 -135l-23 -89h112l-33 -135l-23 -89h135l22 89l34 135h112l22 89l33 135h202l-33 -135l-140 -560l-28 -112l-56 -224l-33 -134h-202l34 134l22 90h-112l33 134l23 90h-135l-22 -90l-33 -134h-112l-23 -90l-33 -134h-202l34 134l195 784l28 112z" />
    <glyph glyph-name="uni1FB9C" unicode="&#x1fb9c;" 
d="M290 1165h202l-28 -112h22l28 112h202l-28 -112h22l28 112h202l-28 -112h112l-39 -157h-112l-28 -112h-112l-28 -112h-112l-17 -67h112l-39 -157h-112l-28 -112h-112l-28 -112h-112l-16 -67h112l-39 -157h-112l-28 -112h-202l39 157h112l17 67h-112l39 157h112l17 67
h-112l39 157h112l17 67h-112l39 157h112l16 67h-112l40 157h112l16 67h-112zM545 1019l-22 -89h67l23 89h-68zM769 1019l-22 -89h67l23 89h-68zM405 907l-22 -89h67l23 89h-68zM629 907l-22 -89h67l23 89h-68zM489 795l-22 -89h67l23 89h-68zM350 683l-23 -89h67l23 89h-67z
M434 571l-23 -89h67l23 89h-67zM294 459l-23 -89h68l22 89h-67z" />
    <glyph glyph-name="uni1FB9D" unicode="&#x1fb9d;" 
d="M290 1165h202l-28 -112h22l28 112h202l-28 -112h22l28 112h202l-28 -112h112l-39 -157h-112l-17 -67h112l-39 -157h-112l-17 -67h112l-39 -157h-112l-16 -67h112l-40 -157h-112l-16 -67h112l-39 -157h-202l28 112h-112l28 112h-112l39 157h112l17 67h-112l28 112h-112
l28 112h-112l27 112h-112l40 157h112l16 67h-112zM545 1019l-22 -89h67l23 89h-68zM769 1019l-22 -89h67l23 89h-68zM405 907l-22 -89h67l23 89h-68zM629 907l-22 -89h67l23 89h-68zM489 795l-22 -89h67l23 89h-68zM713 795l-22 -89h67l23 89h-68zM574 683l-23 -89h67l23 89
h-67zM658 571l-23 -89h67l23 89h-67zM602 347l-23 -89h68l22 89h-67zM543 -67h202l-39 -157h-202z" />
    <glyph glyph-name="uni1FB9E" unicode="&#x1fb9e;" 
d="M822 1053h202l-39 -157h-112l-17 -67h112l-39 -157h-112l-17 -67h112l-39 -157h-112l-16 -67h112l-40 -157h-112l-16 -67h112l-39 -157h-112l-17 -67h112l-39 -157h-202l28 112h-22l-28 -112h-202l28 112h-22l-28 -112h-202l28 112h-112l39 157h112l28 112h112l28 112
h112l17 67h-112l39 157h112l28 112h112l28 112h112l16 67h-112l40 157h112zM658 571l-23 -89h67l23 89h-67zM518 459l-23 -89h68l22 89h-67zM602 347l-23 -89h68l22 89h-67zM462 235l-22 -89h67l22 89h-67zM322 123l-22 -89h67l22 89h-67zM546 123l-22 -89h67l22 89h-67z
M182 11l-22 -89h67l22 89h-67zM406 11l-22 -89h67l22 89h-67z" />
    <glyph glyph-name="uni1FB9F" unicode="&#x1fb9f;" 
d="M290 1165h202l-39 -157h-202zM235 941h201l-28 -112h112l-28 -112h112l-39 -157h-112l-17 -67h112l-27 -112h112l-28 -112h112l-28 -112h112l-39 -157h-112l-17 -67h112l-39 -157h-202l28 112h-22l-28 -112h-202l28 112h-22l-28 -112h-202l28 112h-112l39 157h112l17 67
h-112l39 157h112l17 67h-112l39 157h112l17 67h-112l39 157h112l16 67h-112zM350 683l-23 -89h67l23 89h-67zM294 459l-23 -89h68l22 89h-67zM378 347l-23 -89h68l22 89h-67zM238 235l-22 -89h67l22 89h-67zM462 235l-22 -89h67l22 89h-67zM322 123l-22 -89h67l22 89h-67z
M546 123l-22 -89h67l22 89h-67zM182 11l-22 -89h67l22 89h-67zM406 11l-22 -89h67l22 89h-67z" />
    <glyph glyph-name="uni1FBA0" unicode="&#x1fba0;" 
d="M514 1165h202l-67 -269h-112l-22 -90l-34 -134h-112l-22 -90l-34 -134h-201l33 134l34 135h112l22 89l34 135h112l22 89z" />
    <glyph glyph-name="uni1FBA1" unicode="&#x1fba1;" 
d="M626 1165h202l-33 -135l-23 -89h112l-33 -135l-23 -89h112l-33 -135l-34 -134h-201l33 134l23 90h-112l33 134l22 90h-112l34 134z" />
    <glyph glyph-name="uni1FBA2" unicode="&#x1fba2;" 
d="M123 493h201l-33 -135l-22 -89h112l-34 -135l-22 -89h112l-34 -135l-33 -134h-202l34 134l22 90h-112l34 134l22 90h-112l33 134z" />
    <glyph glyph-name="uni1FBA3" unicode="&#x1fba3;" 
d="M683 493h201l-33 -135l-34 -134h-112l-22 -90l-33 -134h-112l-23 -90l-33 -134h-202l67 269h112l23 89l33 135h112l22 89z" />
    <glyph glyph-name="uni1FBA4" unicode="&#x1fba4;" 
d="M514 1165h202l-67 -269h-112l-22 -90l-34 -134h-112l-22 -90l-56 -224l-22 -89h112l-34 -135l-22 -89h112l-34 -135l-33 -134h-202l34 134l22 90h-112l34 134l22 90h-112l33 134l56 224l34 135h112l22 89l34 135h112l22 89z" />
    <glyph glyph-name="uni1FBA5" unicode="&#x1fba5;" 
d="M626 1165h202l-33 -135l-23 -89h112l-33 -135l-23 -89h112l-33 -135l-56 -224l-34 -134h-112l-22 -90l-33 -134h-112l-23 -90l-33 -134h-202l67 269h112l23 89l33 135h112l22 89l56 224l23 90h-112l33 134l22 90h-112l34 134z" />
    <glyph glyph-name="uni1FBA6" unicode="&#x1fba6;" 
d="M123 493h201l-33 -135l-22 -89h112l-34 -135l-22 -89h134l23 89l33 135h112l22 89l34 135h201l-33 -135l-34 -134h-112l-22 -90l-33 -134h-112l-23 -90l-33 -134h-314l34 134l22 90h-112l34 134l22 90h-112l33 134z" />
    <glyph glyph-name="uni1FBA7" unicode="&#x1fba7;" 
d="M514 1165h314l-33 -135l-23 -89h112l-33 -135l-23 -89h112l-33 -135l-34 -134h-201l33 134l23 90h-112l33 134l22 90h-134l-22 -90l-34 -134h-112l-22 -90l-34 -134h-201l33 134l34 135h112l22 89l34 135h112l22 89z" />
    <glyph glyph-name="uni1FBA8" unicode="&#x1fba8;" 
d="M514 1165h202l-67 -269h-112l-22 -90l-34 -134h-112l-22 -90l-34 -134h-201l33 134l34 135h112l22 89l34 135h112l22 89zM683 493h201l-33 -135l-34 -134h-112l-22 -90l-33 -134h-112l-23 -90l-33 -134h-202l67 269h112l23 89l33 135h112l22 89z" />
    <glyph glyph-name="uni1FBA9" unicode="&#x1fba9;" 
d="M626 1165h202l-33 -135l-23 -89h112l-33 -135l-23 -89h112l-33 -135l-34 -134h-201l33 134l23 90h-112l33 134l22 90h-112l34 134zM123 493h201l-33 -135l-22 -89h112l-34 -135l-22 -89h112l-34 -135l-33 -134h-202l34 134l22 90h-112l34 134l22 90h-112l33 134z" />
    <glyph glyph-name="uni1FBAA" unicode="&#x1fbaa;" 
d="M626 1165h202l-33 -135l-23 -89h112l-33 -135l-23 -89h112l-33 -135l-56 -224l-34 -134h-112l-22 -90l-33 -134h-112l-23 -90l-33 -134h-314l34 134l22 90h-112l34 134l22 90h-112l33 134l34 135h201l-33 -135l-22 -89h112l-34 -135l-22 -89h134l23 89l33 135h112l22 89
l56 224l23 90h-112l33 134l22 90h-112l34 134z" />
    <glyph glyph-name="uni1FBAB" unicode="&#x1fbab;" 
d="M514 1165h202l-67 -269h-112l-22 -90l-34 -134h-112l-22 -90l-56 -224l-22 -89h112l-34 -135l-22 -89h134l23 89l33 135h112l22 89l34 135h201l-33 -135l-34 -134h-112l-22 -90l-33 -134h-112l-23 -90l-33 -134h-314l34 134l22 90h-112l34 134l22 90h-112l33 134l56 224
l34 135h112l22 89l34 135h112l22 89z" />
    <glyph glyph-name="uni1FBAC" unicode="&#x1fbac;" 
d="M514 1165h314l-33 -135l-23 -89h112l-33 -135l-23 -89h112l-33 -135l-56 -224l-34 -134h-112l-22 -90l-33 -134h-112l-23 -90l-33 -134h-202l67 269h112l23 89l33 135h112l22 89l56 224l23 90h-112l33 134l22 90h-134l-22 -90l-34 -134h-112l-22 -90l-34 -134h-201
l33 134l34 135h112l22 89l34 135h112l22 89z" />
    <glyph glyph-name="uni1FBAD" unicode="&#x1fbad;" 
d="M514 1165h314l-33 -135l-23 -89h112l-33 -135l-23 -89h112l-33 -135l-28 -112l-34 -134h-201l33 134l28 112l23 90h-112l33 134l22 90h-134l-22 -90l-34 -134h-112l-22 -90l-56 -224l-22 -89h112l-34 -135l-22 -89h112l-34 -135l-33 -134h-202l34 134l22 90h-112l34 134
l22 90h-112l33 134l56 224l34 135h112l22 89l34 135h112l22 89z" />
    <glyph glyph-name="uni1FBAE" unicode="&#x1fbae;" 
d="M514 1165h314l-33 -135l-23 -89h112l-33 -135l-23 -89h112l-33 -135l-56 -224l-34 -134h-112l-22 -90l-33 -134h-112l-23 -90l-33 -134h-314l34 134l22 90h-112l34 134l22 90h-112l33 134l56 224l34 135h112l22 89l34 135h112l22 89zM517 907l-25 -101l-30 -123h-112
l-26 -101l-55 -224l-26 -100h112l-30 -124l-25 -100h179l25 100l31 124h112l25 100l56 224l25 101h-112l30 123l26 101h-180z" />
    <glyph glyph-name="uni1FBAF" unicode="&#x1fbaf;" 
d="M402 1165h426l-33 -135l-112 -448l-23 -89h224l-39 -157h-224l-22 -90l-84 -336l-33 -134h-426l34 134l83 336l23 90h-112l39 157h112l22 89l56 224l28 112l28 112z" />
    <glyph glyph-name="uni1FBB0" unicode="&#x1fbb0;" 
d="M235 941h201l-28 -112h112l-28 -112h112l-28 -112h112l-28 -112h112l-27 -112h112l-34 -135l-33 -134h-202l28 112h-224l28 112h-23l-22 -90l-33 -134h-112l-23 -90l-33 -134h-202l34 134l195 784z" />
    <glyph glyph-name="uni1FBB1" unicode="&#x1fbb1;" 
d="M290 1165h762l-33 -135l-168 -672l-28 -112l-84 -336l-33 -134h-762l34 134l223 896l28 112l28 112zM713 795l-25 -101l-25 -100h67l26 100l25 101h-68zM546 571l-26 -101l-25 -100h68l25 100l25 101h-67zM294 459l-23 -89h68l22 89h-67zM378 347l-25 -101l-25 -100h67
l25 100l25 101h-67z" />
    <glyph glyph-name="uni1FBB2" unicode="&#x1fbb2;" 
d="M598 1053h314l-33 -135l-23 -89h112l-33 -135l-56 -224l-34 -134h-112l-22 -90l-33 -134h-112l-28 -112h-224l-28 -112h-202l67 269h336l22 89l28 112l23 90h-112l28 112h-23l-22 -90l-34 -134h-201l33 134l34 135h112l28 112h224l16 67h-112l34 134z" />
    <glyph glyph-name="uni1FBB3" unicode="&#x1fbb3;" 
d="M431 829h201l-39 -157h-112l-28 -112h-313l39 157h224zM123 493h201l-33 -135l-22 -89h112l-28 -112h112l-28 -112h112l-39 -157h-314l34 134l22 90h-112l28 112h-112l33 134z" />
    <glyph glyph-name="uni1FBB4" unicode="&#x1fbb4;" 
d="M290 1165h762l-33 -135l-168 -672l-28 -112l-84 -336l-33 -134h-762l34 134l223 896l28 112l28 112zM713 795l-25 -101l-56 -224l-30 -123h-157l28 112h-67l-28 -112h-112l-23 -89h112l-27 -112h67l28 112h224l25 100l84 336l25 101h-68z" />
    <glyph glyph-name="uni1FBB5" unicode="&#x1fbb5;" 
d="M290 1165h762l-67 -269h-762l34 134zM515 717h201l-33 -135l-23 -89h224l-39 -157h-224l-22 -90l-33 -134h-202l28 112h-112l28 112h-112l39 157h112l28 112h112zM11 45h762l-34 -135l-33 -134h-762z" />
    <glyph glyph-name="uni1FBB6" unicode="&#x1fbb6;" 
d="M290 1165h762l-67 -269h-762l34 134zM403 717h201l-28 -112h112l-28 -112h112l-39 -157h-112l-28 -112h-112l-27 -112h-202l33 134l23 90h-224l39 157h224l22 89zM11 45h762l-34 -135l-33 -134h-762z" />
    <glyph glyph-name="uni1FBB7" unicode="&#x1fbb7;" 
d="M850 1165h202l-33 -135l-84 -336l-34 -134h-201l33 134l28 112l28 112l28 112zM431 829h201l-33 -135l-28 -112l-23 -89h224l-39 -157h-112l-28 -112h-112l-27 -112h-202l28 112h-112l28 112h-112l39 157h224l22 89l28 112zM627 269h202l-34 -135l-56 -224l-33 -134h-202
l34 134l56 224z" />
    <glyph glyph-name="uni1FBB8" unicode="&#x1fbb8;" 
d="M850 1165h202l-33 -135l-84 -336l-34 -134h-201l33 134l28 112l28 112l28 112zM403 717h201l-28 -112h112l-28 -112h112l-39 -157h-224l-22 -90l-28 -112l-33 -134h-202l34 134l27 112l23 90h-224l39 157h112l28 112h112zM627 269h202l-34 -135l-56 -224l-33 -134h-202
l34 134l56 224z" />
    <glyph glyph-name="uni1FBB9" unicode="&#x1fbb9;" 
d="M431 829h537l-33 -135l-34 -134h-448l-22 -90l-28 -112l-28 -112l-22 -89h448l-39 -157h-650l34 134l111 448l34 135h112z" />
    <glyph glyph-name="uni1FBBA" unicode="&#x1fbba;" 
d="M179 717h537l-33 -135l-56 -224l-28 -112l-28 -112l-33 -134h-538l39 157h336l22 89l56 224l23 90h-336z" />
    <glyph glyph-name="uni1FBBB" unicode="&#x1fbbb;" 
d="M402 1165h202l-33 -135l-84 -336l-34 -134h-313l39 157h112l22 89l28 112l28 112zM738 1165h202l-33 -135l-56 -224l-23 -89h112l-39 -157h-313l33 134l28 112l28 112l28 112zM95 381h314l-34 -135l-84 -336l-33 -134h-202l34 134l56 224l22 90h-112zM543 381h314
l-40 -157h-112l-22 -90l-56 -224l-33 -134h-202l34 134l83 336z" />
    <glyph glyph-name="uni1FBBC" unicode="&#x1fbbc;" 
d="M290 1165h762l-33 -135l-168 -672l-28 -112l-84 -336l-33 -134h-762l39 157h560l23 89l195 784l28 112l22 90h-560zM375 605h313l-33 -135l-34 -134h-313l33 134z" />
    <glyph glyph-name="uni1FBBD" unicode="&#x1fbbd;" 
d="M402 1165h538l-33 -135l-23 -89h112l-33 -135l-112 -448l-28 -112l-28 -112l-33 -134h-112l-23 -90l-33 -134h-538l34 134l22 90h-112l34 134l167 672l34 135h112l22 89zM405 907l-25 -101l-25 -100h67l25 100l26 101h-68zM741 907l-25 -101l-25 -100h67l25 100l26 101
h-68zM462 683l-26 -101l-55 -224l-26 -100h180l25 100l56 224l25 101h-179zM238 235l-25 -101l-25 -100h67l25 100l25 101h-67zM574 235l-25 -101l-25 -100h67l25 100l25 101h-67z" />
    <glyph glyph-name="uni1FBBE" unicode="&#x1fbbe;" 
d="M290 1165h762l-33 -135l-112 -448l-34 -134h-112l-22 -90l-22 -89h112l-34 -135l-56 -224l-33 -134h-314l34 134l22 90h-22l-23 -90l-33 -134h-426l34 134l223 896l28 112l28 112zM574 235l-25 -101l-25 -100h67l25 100l25 101h-67z" />
    <glyph glyph-name="uni1FBBF" unicode="&#x1fbbf;" 
d="M290 1165h314l-33 -135l-23 -89h135l22 89l33 135h314l-33 -135l-56 -224l-34 -134h-112l-22 -90l-56 -224l-22 -89h112l-34 -135l-56 -224l-33 -134h-314l34 134l22 90h-134l-23 -90l-33 -134h-314l34 134l56 224l33 135h112l22 89l56 224l23 90h-112l33 134l28 112
l28 112zM405 907l-25 -101l-25 -100h67l25 100l26 101h-68zM741 907l-25 -101l-25 -100h67l25 100l26 101h-68zM238 235l-25 -101l-25 -100h67l25 100l25 101h-67zM574 235l-25 -101l-25 -100h67l25 100l25 101h-67z" />
    <glyph glyph-name="uni1FBC0" unicode="&#x1fbc0;" 
d="M319 829h201l-28 -112h23l28 112h201l-28 -112h112l-33 -135l-34 -134h-112l-16 -67h112l-34 -135l-33 -134h-112l-28 -112h-202l28 112h-22l-28 -112h-202l28 112h-112l33 134l34 135h112l17 67h-112l33 134l34 135h112zM350 683l-26 -101l-25 -100h112l-33 -135h-112
l-25 -101l-25 -100h67l28 112h156l-27 -112h67l25 100l25 101h-112l33 135h112l26 100l25 101h-67l-28 -112h-157l28 112h-67z" />
    <glyph glyph-name="uni1FBC1" unicode="&#x1fbc1;" 
d="M235 941h313l-28 -112h135l28 112h313l-39 -157h-224l-28 -112h-112l-22 -90l-28 -112l-22 -89h134l28 112h201l-39 -157h-112l-16 -67h112l-39 -157h-202l28 112h-135l-22 -90l-22 -89h336l-39 -157h-426l28 112h-22l-28 -112h-314l34 134l195 784zM377 795l-25 -101
l-139 -560l-25 -100h67l25 100l140 560l25 101h-68z" />
    <glyph glyph-name="uni1FBC2" unicode="&#x1fbc2;" 
d="M235 941h761l-39 -157h-224l-17 -67h224l-39 -157h-112l-22 -90l-34 -134h-112l-22 -90l-33 -134h-112l-28 -112h-426l39 157h336l17 67h-224l28 112h-112l33 134l34 135h336l17 67h-336l33 134zM546 571l-28 -112h-224l-23 -89h292l25 100l25 101h-67z" />
    <glyph glyph-name="uni1FBC3" unicode="&#x1fbc3;" 
d="M235 941h537l-28 -112h112l-33 -135l-34 -134h-649l39 157h448l16 67h-448z" />
    <glyph glyph-name="uni1FBC4" unicode="&#x1fbc4;" 
d="M290 1165h762l-33 -135l-168 -672l-28 -112l-84 -336l-33 -134h-762l34 134l223 896l28 112l28 112zM489 795l-22 -89h179l23 89h-180zM350 683l-23 -89h67l23 89h-67zM686 683l-26 -101l-25 -100h67l26 100l25 101h-67zM406 459l-25 -101l-26 -100h68l28 112h112l22 89
h-179zM322 123l-22 -89h67l22 89h-67z" />
    <glyph glyph-name="uni1FBC5" unicode="&#x1fbc5;" 
d="M374 1053h426l-28 -112h112l-33 -135l-34 -134h-112l-28 -112h-112l-17 -67h112l-27 -112h112l-40 -157h-201l28 112h-23l-22 -90l-22 -89h112l-28 -112h112l-39 -157h-202l28 112h-112l28 112h-22l-28 -112h-112l-28 -112h-202l39 157h112l28 112h112l45 179h-23
l-28 -112h-201l39 157h112l28 112h112l17 67h-112l28 112h-112l33 134l34 135h112zM405 907l-25 -101l-25 -100h291l25 100l26 101h-292z" />
    <glyph glyph-name="uni1FBC6" unicode="&#x1fbc6;" 
d="M374 1053h426l-28 -112h112l-33 -135l-34 -134h-112l-17 -67h112l-39 -157h-112l-28 -112h-112l-22 -90l-22 -89h112l-28 -112h112l-39 -157h-202l28 112h-112l28 112h-22l-28 -112h-112l-28 -112h-202l39 157h112l28 112h112l45 179h-112l28 112h-112l39 157h112l17 67
h-112l33 134l34 135h112zM405 907l-25 -101l-25 -100h291l25 100l26 101h-292zM322 571l-23 -89h67l23 89h-67zM546 571l-23 -89h67l23 89h-67z" />
    <glyph glyph-name="uni1FBC7" unicode="&#x1fbc7;" 
d="M374 1053h426l-28 -112h112l-33 -135l-34 -134h-112l-17 -67h112l-39 -157h-112l-28 -112h-112l-22 -90l-22 -89h112l-28 -112h112l-39 -157h-202l28 112h-112l28 112h-22l-23 -90l-33 -134h-202l67 269h112l45 179h-23l-28 -112h-201l39 157h112l28 112h112l17 67h-112
l28 112h-112l33 134l34 135h112zM405 907l-25 -101l-25 -100h291l25 100l26 101h-292zM546 571l-23 -89h67l23 89h-67z" />
    <glyph glyph-name="uni1FBC8" unicode="&#x1fbc8;" 
d="M374 1053h426l-28 -112h112l-33 -135l-34 -134h-112l-28 -112h-112l-17 -67h112l-27 -112h112l-40 -157h-201l28 112h-23l-22 -90l-22 -89h112l-34 -135l-33 -134h-202l34 134l22 90h-22l-28 -112h-112l-28 -112h-202l39 157h112l28 112h112l45 179h-112l28 112h-112
l39 157h112l17 67h-112l33 134l34 135h112zM405 907l-25 -101l-25 -100h291l25 100l26 101h-292zM322 571l-23 -89h67l23 89h-67z" />
    <glyph glyph-name="uni1FBC9" unicode="&#x1fbc9;" 
d="M374 1053h426l-28 -112h112l-33 -135l-34 -134h-112l-28 -112h-112l-17 -67h224l-39 -157h-112l-16 -67h112l-34 -135l-33 -134h-112l-28 -112h-202l28 112h-22l-28 -112h-202l28 112h-112l67 269h112l17 67h-112l39 157h224l17 67h-112l28 112h-112l33 134l34 135h112z
M405 907l-25 -101l-25 -100h291l25 100l26 101h-292zM406 459l-25 -101l-31 -123h-112l-22 -89h291l22 89h-112l31 123l25 101h-67z" />
    <glyph glyph-name="uni1FBCA" unicode="&#x1fbca;" 
d="M431 829h201l-28 -112h112l-28 -112h112l-33 -135l-28 -112l-28 -112l-28 -112l-33 -134h-202l28 112h-112l28 112h-23l-27 -112h-112l-28 -112h-202l34 134l83 336l34 135h112l28 112h112zM462 683l-28 -112h-112l-26 -101l-27 -112l-26 -100h68l28 112h156l-28 -112h68
l25 100l28 112l25 101h-112l28 112h-67z" />
    <glyph glyph-name="uni1FBF0" unicode="&#x1fbf0;" 
d="M319 829h425l-28 -112h112l-33 -135l-34 -134h-201l33 134l23 90h-247l-22 -90l-34 -134h-201l33 134l34 135h112zM95 381h202l-34 -135l-22 -89h246l22 89l34 135h202l-34 -135l-33 -134h-112l-28 -112h-426l28 112h-112l33 134z" />
    <glyph glyph-name="uni1FBF1" unicode="&#x1fbf1;" 
d="M627 717h201l-33 -135l-34 -134h-201l33 134zM543 381h202l-34 -135l-33 -134h-202l33 134z" />
    <glyph glyph-name="uni1FBF2" unicode="&#x1fbf2;" 
d="M319 829h425l-28 -112h112l-33 -135l-34 -134h-112l-28 -112h-336l-22 -90l-22 -89h336l-39 -157h-426l28 112h-112l33 134l34 135h112l28 112h336l22 89l23 90h-336z" />
    <glyph glyph-name="uni1FBF3" unicode="&#x1fbf3;" 
d="M319 829h425l-28 -112h112l-33 -135l-34 -134h-112l-16 -67h112l-34 -135l-33 -134h-112l-28 -112h-426l39 157h336l45 179h-336l39 157h336l22 89l23 90h-336z" />
    <glyph glyph-name="uni1FBF4" unicode="&#x1fbf4;" 
d="M179 717h201l-33 -135l-23 -89h247l22 89l34 135h201l-33 -135l-34 -134h-112l-16 -67h112l-34 -135l-33 -134h-202l33 134l23 90h-336l28 112h-112l33 134z" />
    <glyph glyph-name="uni1FBF5" unicode="&#x1fbf5;" 
d="M319 829h425l-39 -157h-336l-22 -90l-23 -89h336l-27 -112h112l-34 -135l-33 -134h-112l-28 -112h-426l39 157h336l45 179h-336l28 112h-112l33 134l34 135h112z" />
    <glyph glyph-name="uni1FBF6" unicode="&#x1fbf6;" 
d="M319 829h425l-39 -157h-336l-22 -90l-23 -89h336l-27 -112h112l-34 -135l-33 -134h-112l-28 -112h-426l28 112h-112l33 134l34 135h112l17 67h-112l33 134l34 135h112zM266 347l-25 -101l-25 -100h291l25 100l25 101h-291z" />
    <glyph glyph-name="uni1FBF7" unicode="&#x1fbf7;" 
d="M319 829h425l-28 -112h112l-33 -135l-34 -134h-201l33 134l23 90h-336zM543 381h202l-34 -135l-33 -134h-202l33 134z" />
    <glyph glyph-name="uni1FBF8" unicode="&#x1fbf8;" 
d="M319 829h425l-28 -112h112l-33 -135l-34 -134h-112l-16 -67h112l-34 -135l-33 -134h-112l-28 -112h-426l28 112h-112l33 134l34 135h112l17 67h-112l33 134l34 135h112zM350 683l-26 -101l-25 -100h291l26 100l25 101h-291zM266 347l-25 -101l-25 -100h291l25 100l25 101
h-291z" />
    <glyph glyph-name="uni1FBF9" unicode="&#x1fbf9;" 
d="M319 829h425l-28 -112h112l-33 -135l-34 -134h-112l-16 -67h112l-34 -135l-33 -134h-112l-28 -112h-426l39 157h336l45 179h-336l28 112h-112l33 134l34 135h112zM350 683l-26 -101l-25 -100h291l26 100l25 101h-291z" />
    <glyph glyph-name="uni2070" unicode="&#x2070;" 
d="M431 829h201l-28 -112h112l-33 -135l-34 -134h-112l-28 -112h-201l28 112h-112l33 134l34 135h112zM462 683l-26 -101l-25 -100h67l26 100l25 101h-67z" />
    <glyph glyph-name="uni2071" unicode="&#x2071;" 
d="M431 829h201l-39 -157h-201zM375 605h201l-33 -135l-34 -134h-201l33 134z" />
    <glyph glyph-name="uni2074" unicode="&#x2074;" 
d="M543 829h201l-33 -135l-56 -224l-34 -134h-201l28 112h-224l33 134l34 135h201l-28 -112h23l22 89z" />
    <glyph glyph-name="uni2075" unicode="&#x2075;" 
d="M319 829h425l-39 -157h-224l-17 -67h224l-39 -157h-112l-28 -112h-313l39 157h112l17 67h-112l33 134z" />
    <glyph glyph-name="uni2076" unicode="&#x2076;" 
d="M431 829h201l-39 -157h-112l-17 -67h224l-39 -157h-112l-28 -112h-201l28 112h-112l33 134l34 135h112z" />
    <glyph glyph-name="uni2077" unicode="&#x2077;" 
d="M319 829h425l-33 -135l-34 -134h-112l-22 -90l-34 -134h-201l33 134l34 135h112l17 67h-224z" />
    <glyph glyph-name="uni2078" unicode="&#x2078;" 
d="M459 941h201l-28 -112h112l-39 -157h-112l-17 -67h112l-39 -157h-112l-28 -112h-201l28 112h-112l39 157h112l17 67h-112l39 157h112zM489 795l-22 -89h67l23 89h-68zM434 571l-23 -89h67l23 89h-67z" />
    <glyph glyph-name="uni2079" unicode="&#x2079;" 
d="M431 829h201l-28 -112h112l-33 -135l-34 -134h-112l-28 -112h-201l39 157h112l17 67h-224l39 157h112z" />
    <glyph glyph-name="uni207A" unicode="&#x207a;" 
d="M431 829h201l-28 -112h112l-39 -157h-112l-28 -112h-201l28 112h-112l39 157h112z" />
    <glyph glyph-name="uni207B" unicode="&#x207b;" 
d="M291 717h425l-39 -157h-425z" />
    <glyph glyph-name="uni207C" unicode="&#x207c;" 
d="M319 829h425l-39 -157h-425zM263 605h425l-39 -157h-425z" />
    <glyph glyph-name="uni207D" unicode="&#x207d;" 
d="M571 941h201l-39 -157h-112l-22 -90l-56 -224l-22 -89h112l-40 -157h-201l28 112h-112l33 134l56 224l34 135h112z" />
    <glyph glyph-name="uni207E" unicode="&#x207e;" 
d="M347 941h201l-28 -112h112l-33 -135l-56 -224l-34 -134h-112l-28 -112h-201l39 157h112l22 89l56 224l22 90h-112z" />
    <glyph glyph-name="uni207F" unicode="&#x207f;" 
d="M207 829h201l-28 -112h23l28 112h201l-28 -112h112l-33 -135l-28 -112l-34 -134h-201l33 134l28 112l23 90h-23l-28 -112h-112l-22 -90l-34 -134h-201l33 134l56 224z" />
    <glyph glyph-name="uni2080" unicode="&#x2080;" 
d="M291 269h202l-28 -112h112l-34 -135l-33 -134h-112l-28 -112h-202l28 112h-112l67 269h112zM322 123l-25 -101l-25 -100h67l25 100l25 101h-67z" />
    <glyph glyph-name="uni2081" unicode="&#x2081;" 
d="M291 269h202l-34 -135l-28 -112l-22 -89h112l-39 -157h-426l39 157h112l17 67h-112l39 157h112z" />
    <glyph glyph-name="uni2082" unicode="&#x2082;" 
d="M179 269h314l-28 -112h112l-39 -157h-112l-17 -67h112l-39 -157h-426l39 157h112l28 112h112l17 67h-224z" />
    <glyph glyph-name="uni2083" unicode="&#x2083;" 
d="M179 269h314l-28 -112h112l-34 -135l-33 -134h-112l-28 -112h-314l39 157h224l17 67h-112l28 112h-112z" />
    <glyph glyph-name="uni2084" unicode="&#x2084;" 
d="M403 269h202l-34 -135l-56 -224l-33 -134h-202l28 112h-224l67 269h202l-28 -112h22l23 89z" />
    <glyph glyph-name="uni2085" unicode="&#x2085;" 
d="M179 269h426l-39 -157h-224l-17 -67h224l-39 -157h-112l-28 -112h-314l39 157h112l17 67h-112z" />
    <glyph glyph-name="uni2086" unicode="&#x2086;" 
d="M291 269h202l-39 -157h-112l-17 -67h224l-39 -157h-112l-28 -112h-202l28 112h-112l67 269h112z" />
    <glyph glyph-name="uni2087" unicode="&#x2087;" 
d="M179 269h426l-34 -135l-33 -134h-112l-23 -90l-33 -134h-202l67 269h112l17 67h-224z" />
    <glyph glyph-name="uni2088" unicode="&#x2088;" 
d="M319 381h202l-28 -112h112l-39 -157h-112l-17 -67h112l-39 -157h-112l-28 -112h-202l28 112h-112l39 157h112l17 67h-112l39 157h112zM350 235l-22 -89h67l22 89h-67zM294 11l-22 -89h67l22 89h-67z" />
    <glyph glyph-name="uni2089" unicode="&#x2089;" 
d="M291 269h202l-28 -112h112l-34 -135l-33 -134h-112l-28 -112h-202l39 157h112l17 67h-224l39 157h112z" />
    <glyph glyph-name="uni208A" unicode="&#x208a;" 
d="M291 269h202l-28 -112h112l-39 -157h-112l-28 -112h-202l28 112h-112l39 157h112z" />
    <glyph glyph-name="uni208B" unicode="&#x208b;" 
d="M151 157h426l-39 -157h-426z" />
    <glyph glyph-name="uni208C" unicode="&#x208c;" 
d="M179 269h426l-39 -157h-426zM123 45h426l-39 -157h-426z" />
    <glyph glyph-name="uni208D" unicode="&#x208d;" 
d="M431 381h202l-40 -157h-112l-22 -90l-28 -112l-22 -89h112l-39 -157h-202l28 112h-112l34 134l28 112l33 135h112z" />
    <glyph glyph-name="uni208E" unicode="&#x208e;" 
d="M207 381h202l-28 -112h112l-34 -135l-28 -112l-33 -134h-112l-28 -112h-202l39 157h112l23 89l28 112l22 90h-112z" />
    <glyph glyph-name="uni2090" unicode="&#x2090;" 
d="M319 381h314l-34 -135l-28 -112l-22 -89h112l-39 -157h-202l28 112h-22l-28 -112h-202l28 112h-112l67 269h112zM350 235l-25 -101l-25 -100h67l25 100l25 101h-67z" />
    <glyph glyph-name="uni2091" unicode="&#x2091;" 
d="M319 381h202l-28 -112h112l-39 -157h-224l-17 -67h224l-39 -157h-314l28 112h-112l67 269h112z" />
    <glyph glyph-name="uni2092" unicode="&#x2092;" 
d="M207 381h314l-28 -112h112l-34 -135l-33 -134h-112l-28 -112h-314l28 112h-112l67 269h112zM238 235l-25 -101l-25 -100h179l25 100l25 101h-179z" />
    <glyph glyph-name="uni2093" unicode="&#x2093;" 
d="M95 381h202l-28 -112h134l28 112h202l-40 -157h-112l-22 -90l-22 -89h112l-39 -157h-202l28 112h-134l-28 -112h-202l39 157h112l45 179h-112z" />
    <glyph glyph-name="uni2095" unicode="&#x2095;" 
d="M123 493h201l-33 -135l-28 -112l-22 -89h22l28 112h202l-28 -112h112l-34 -135l-33 -134h-202l34 134l22 90h-22l-28 -112h-112l-28 -112h-202l34 134l83 336z" />
    <glyph glyph-name="uni2096" unicode="&#x2096;" 
d="M235 493h201l-33 -135l-28 -112l-22 -89h22l28 112h202l-39 -157h-112l-17 -67h112l-39 -157h-202l28 112h-22l-28 -112h-202l34 134l83 336z" />
    <glyph glyph-name="uni2097" unicode="&#x2097;" 
d="M347 493h201l-33 -135l-28 -112l-28 -112l-22 -89h112l-39 -157h-202l28 112h-112l34 134l55 224z" />
    <glyph glyph-name="uni2098" unicode="&#x2098;" 
d="M95 381h314l-28 -112h22l28 112h202l-28 -112h112l-34 -135l-28 -112l-33 -134h-202l34 134l28 112l22 90h-23l-22 -90l-28 -112l-33 -134h-202l34 134l28 112l22 90h-23l-22 -90l-28 -112l-33 -134h-202l34 134l55 224z" />
    <glyph glyph-name="uni2099" unicode="&#x2099;" 
d="M95 381h202l-28 -112h22l28 112h202l-28 -112h112l-34 -135l-28 -112l-33 -134h-202l34 134l28 112l22 90h-23l-27 -112h-112l-23 -90l-33 -134h-202l34 134l55 224z" />
    <glyph glyph-name="uni209A" unicode="&#x209a;" 
d="M95 381h202l-28 -112h22l28 112h202l-28 -112h112l-34 -135l-33 -134h-112l-28 -112h-224l-28 -112h-202l34 134l83 336zM350 235l-28 -112h-112l-22 -89h179l25 100l25 101h-67z" />
    <glyph glyph-name="uni209B" unicode="&#x209b;" 
d="M319 381h314l-40 -157h-224l-16 -67h224l-39 -157h-112l-28 -112h-314l39 157h112l17 67h-112l39 157h112z" />
    <glyph glyph-name="uni209C" unicode="&#x209c;" 
d="M347 493h201l-27 -112h112l-40 -157h-112l-22 -90l-22 -89h112l-39 -157h-202l28 112h-112l34 134l22 90h-112l39 157h112z" />
    <glyph glyph-name="uni2801" unicode="&#x2801;" 
d="M291 717h201l-39 -157h-201z" />
    <glyph glyph-name="uni2802" unicode="&#x2802;" 
d="M235 493h201l-39 -157h-201z" />
    <glyph glyph-name="uni2803" unicode="&#x2803;" 
d="M291 717h201l-39 -157h-201zM235 493h201l-39 -157h-201z" />
    <glyph glyph-name="uni2804" unicode="&#x2804;" 
d="M179 269h202l-39 -157h-202z" />
    <glyph glyph-name="uni2805" unicode="&#x2805;" 
d="M291 717h201l-39 -157h-201zM179 269h202l-39 -157h-202z" />
    <glyph glyph-name="uni2806" unicode="&#x2806;" 
d="M235 493h201l-39 -157h-201zM179 269h202l-39 -157h-202z" />
    <glyph glyph-name="uni2807" unicode="&#x2807;" 
d="M291 717h201l-39 -157h-201zM235 493h201l-39 -157h-201zM179 269h202l-39 -157h-202z" />
    <glyph glyph-name="uni2808" unicode="&#x2808;" 
d="M515 717h201l-39 -157h-201z" />
    <glyph glyph-name="uni2809" unicode="&#x2809;" 
d="M291 717h201l-39 -157h-201zM515 717h201l-39 -157h-201z" />
    <glyph glyph-name="uni280A" unicode="&#x280a;" 
d="M515 717h201l-39 -157h-201zM235 493h201l-39 -157h-201z" />
    <glyph glyph-name="uni280B" unicode="&#x280b;" 
d="M291 717h201l-39 -157h-201zM515 717h201l-39 -157h-201zM235 493h201l-39 -157h-201z" />
    <glyph glyph-name="uni280C" unicode="&#x280c;" 
d="M515 717h201l-39 -157h-201zM179 269h202l-39 -157h-202z" />
    <glyph glyph-name="uni280D" unicode="&#x280d;" 
d="M291 717h201l-39 -157h-201zM515 717h201l-39 -157h-201zM179 269h202l-39 -157h-202z" />
    <glyph glyph-name="uni280E" unicode="&#x280e;" 
d="M515 717h201l-39 -157h-201zM235 493h201l-39 -157h-201zM179 269h202l-39 -157h-202z" />
    <glyph glyph-name="uni280F" unicode="&#x280f;" 
d="M291 717h201l-39 -157h-201zM515 717h201l-39 -157h-201zM235 493h201l-39 -157h-201zM179 269h202l-39 -157h-202z" />
    <glyph glyph-name="uni2810" unicode="&#x2810;" 
d="M459 493h201l-39 -157h-201z" />
    <glyph glyph-name="uni2811" unicode="&#x2811;" 
d="M291 717h201l-39 -157h-201zM459 493h201l-39 -157h-201z" />
    <glyph glyph-name="uni2812" unicode="&#x2812;" 
d="M235 493h201l-39 -157h-201zM459 493h201l-39 -157h-201z" />
    <glyph glyph-name="uni2813" unicode="&#x2813;" 
d="M291 717h201l-39 -157h-201zM235 493h201l-39 -157h-201zM459 493h201l-39 -157h-201z" />
    <glyph glyph-name="uni2814" unicode="&#x2814;" 
d="M459 493h201l-39 -157h-201zM179 269h202l-39 -157h-202z" />
    <glyph glyph-name="uni2815" unicode="&#x2815;" 
d="M291 717h201l-39 -157h-201zM459 493h201l-39 -157h-201zM179 269h202l-39 -157h-202z" />
    <glyph glyph-name="uni2816" unicode="&#x2816;" 
d="M235 493h201l-39 -157h-201zM459 493h201l-39 -157h-201zM179 269h202l-39 -157h-202z" />
    <glyph glyph-name="uni2817" unicode="&#x2817;" 
d="M291 717h201l-39 -157h-201zM235 493h201l-39 -157h-201zM459 493h201l-39 -157h-201zM179 269h202l-39 -157h-202z" />
    <glyph glyph-name="uni2818" unicode="&#x2818;" 
d="M515 717h201l-39 -157h-201zM459 493h201l-39 -157h-201z" />
    <glyph glyph-name="uni2819" unicode="&#x2819;" 
d="M291 717h201l-39 -157h-201zM515 717h201l-39 -157h-201zM459 493h201l-39 -157h-201z" />
    <glyph glyph-name="uni281A" unicode="&#x281a;" 
d="M515 717h201l-39 -157h-201zM235 493h201l-39 -157h-201zM459 493h201l-39 -157h-201z" />
    <glyph glyph-name="uni281B" unicode="&#x281b;" 
d="M291 717h201l-39 -157h-201zM515 717h201l-39 -157h-201zM235 493h201l-39 -157h-201zM459 493h201l-39 -157h-201z" />
    <glyph glyph-name="uni281C" unicode="&#x281c;" 
d="M515 717h201l-39 -157h-201zM459 493h201l-39 -157h-201zM179 269h202l-39 -157h-202z" />
    <glyph glyph-name="uni281D" unicode="&#x281d;" 
d="M291 717h201l-39 -157h-201zM515 717h201l-39 -157h-201zM459 493h201l-39 -157h-201zM179 269h202l-39 -157h-202z" />
    <glyph glyph-name="uni281E" unicode="&#x281e;" 
d="M515 717h201l-39 -157h-201zM235 493h201l-39 -157h-201zM459 493h201l-39 -157h-201zM179 269h202l-39 -157h-202z" />
    <glyph glyph-name="uni281F" unicode="&#x281f;" 
d="M291 717h201l-39 -157h-201zM515 717h201l-39 -157h-201zM235 493h201l-39 -157h-201zM459 493h201l-39 -157h-201zM179 269h202l-39 -157h-202z" />
    <glyph glyph-name="uni2820" unicode="&#x2820;" 
d="M403 269h202l-39 -157h-202z" />
    <glyph glyph-name="uni2821" unicode="&#x2821;" 
d="M291 717h201l-39 -157h-201zM403 269h202l-39 -157h-202z" />
    <glyph glyph-name="uni2822" unicode="&#x2822;" 
d="M235 493h201l-39 -157h-201zM403 269h202l-39 -157h-202z" />
    <glyph glyph-name="uni2823" unicode="&#x2823;" 
d="M291 717h201l-39 -157h-201zM235 493h201l-39 -157h-201zM403 269h202l-39 -157h-202z" />
    <glyph glyph-name="uni2824" unicode="&#x2824;" 
d="M179 269h202l-39 -157h-202zM403 269h202l-39 -157h-202z" />
    <glyph glyph-name="uni2825" unicode="&#x2825;" 
d="M291 717h201l-39 -157h-201zM179 269h202l-39 -157h-202zM403 269h202l-39 -157h-202z" />
    <glyph glyph-name="uni2826" unicode="&#x2826;" 
d="M235 493h201l-39 -157h-201zM179 269h202l-39 -157h-202zM403 269h202l-39 -157h-202z" />
    <glyph glyph-name="uni2827" unicode="&#x2827;" 
d="M291 717h201l-39 -157h-201zM235 493h201l-39 -157h-201zM179 269h202l-39 -157h-202zM403 269h202l-39 -157h-202z" />
    <glyph glyph-name="uni2828" unicode="&#x2828;" 
d="M515 717h201l-39 -157h-201zM403 269h202l-39 -157h-202z" />
    <glyph glyph-name="uni2829" unicode="&#x2829;" 
d="M291 717h201l-39 -157h-201zM515 717h201l-39 -157h-201zM403 269h202l-39 -157h-202z" />
    <glyph glyph-name="uni282A" unicode="&#x282a;" 
d="M515 717h201l-39 -157h-201zM235 493h201l-39 -157h-201zM403 269h202l-39 -157h-202z" />
    <glyph glyph-name="uni282B" unicode="&#x282b;" 
d="M291 717h201l-39 -157h-201zM515 717h201l-39 -157h-201zM235 493h201l-39 -157h-201zM403 269h202l-39 -157h-202z" />
    <glyph glyph-name="uni282C" unicode="&#x282c;" 
d="M515 717h201l-39 -157h-201zM179 269h202l-39 -157h-202zM403 269h202l-39 -157h-202z" />
    <glyph glyph-name="uni282D" unicode="&#x282d;" 
d="M291 717h201l-39 -157h-201zM515 717h201l-39 -157h-201zM179 269h202l-39 -157h-202zM403 269h202l-39 -157h-202z" />
    <glyph glyph-name="uni282E" unicode="&#x282e;" 
d="M515 717h201l-39 -157h-201zM235 493h201l-39 -157h-201zM179 269h202l-39 -157h-202zM403 269h202l-39 -157h-202z" />
    <glyph glyph-name="uni282F" unicode="&#x282f;" 
d="M291 717h201l-39 -157h-201zM515 717h201l-39 -157h-201zM235 493h201l-39 -157h-201zM179 269h202l-39 -157h-202zM403 269h202l-39 -157h-202z" />
    <glyph glyph-name="uni2830" unicode="&#x2830;" 
d="M459 493h201l-39 -157h-201zM403 269h202l-39 -157h-202z" />
    <glyph glyph-name="uni2831" unicode="&#x2831;" 
d="M291 717h201l-39 -157h-201zM459 493h201l-39 -157h-201zM403 269h202l-39 -157h-202z" />
    <glyph glyph-name="uni2832" unicode="&#x2832;" 
d="M235 493h201l-39 -157h-201zM459 493h201l-39 -157h-201zM403 269h202l-39 -157h-202z" />
    <glyph glyph-name="uni2833" unicode="&#x2833;" 
d="M291 717h201l-39 -157h-201zM235 493h201l-39 -157h-201zM459 493h201l-39 -157h-201zM403 269h202l-39 -157h-202z" />
    <glyph glyph-name="uni2834" unicode="&#x2834;" 
d="M459 493h201l-39 -157h-201zM179 269h202l-39 -157h-202zM403 269h202l-39 -157h-202z" />
    <glyph glyph-name="uni2835" unicode="&#x2835;" 
d="M291 717h201l-39 -157h-201zM459 493h201l-39 -157h-201zM179 269h202l-39 -157h-202zM403 269h202l-39 -157h-202z" />
    <glyph glyph-name="uni2836" unicode="&#x2836;" 
d="M235 493h201l-39 -157h-201zM459 493h201l-39 -157h-201zM179 269h202l-39 -157h-202zM403 269h202l-39 -157h-202z" />
    <glyph glyph-name="uni2837" unicode="&#x2837;" 
d="M291 717h201l-39 -157h-201zM235 493h201l-39 -157h-201zM459 493h201l-39 -157h-201zM179 269h202l-39 -157h-202zM403 269h202l-39 -157h-202z" />
    <glyph glyph-name="uni2838" unicode="&#x2838;" 
d="M515 717h201l-39 -157h-201zM459 493h201l-39 -157h-201zM403 269h202l-39 -157h-202z" />
    <glyph glyph-name="uni2839" unicode="&#x2839;" 
d="M291 717h201l-39 -157h-201zM515 717h201l-39 -157h-201zM459 493h201l-39 -157h-201zM403 269h202l-39 -157h-202z" />
    <glyph glyph-name="uni283A" unicode="&#x283a;" 
d="M515 717h201l-39 -157h-201zM235 493h201l-39 -157h-201zM459 493h201l-39 -157h-201zM403 269h202l-39 -157h-202z" />
    <glyph glyph-name="uni283B" unicode="&#x283b;" 
d="M291 717h201l-39 -157h-201zM515 717h201l-39 -157h-201zM235 493h201l-39 -157h-201zM459 493h201l-39 -157h-201zM403 269h202l-39 -157h-202z" />
    <glyph glyph-name="uni283C" unicode="&#x283c;" 
d="M515 717h201l-39 -157h-201zM459 493h201l-39 -157h-201zM179 269h202l-39 -157h-202zM403 269h202l-39 -157h-202z" />
    <glyph glyph-name="uni283D" unicode="&#x283d;" 
d="M291 717h201l-39 -157h-201zM515 717h201l-39 -157h-201zM459 493h201l-39 -157h-201zM179 269h202l-39 -157h-202zM403 269h202l-39 -157h-202z" />
    <glyph glyph-name="uni283E" unicode="&#x283e;" 
d="M515 717h201l-39 -157h-201zM235 493h201l-39 -157h-201zM459 493h201l-39 -157h-201zM179 269h202l-39 -157h-202zM403 269h202l-39 -157h-202z" />
    <glyph glyph-name="uni283F" unicode="&#x283f;" 
d="M291 717h201l-39 -157h-201zM515 717h201l-39 -157h-201zM235 493h201l-39 -157h-201zM459 493h201l-39 -157h-201zM179 269h202l-39 -157h-202zM403 269h202l-39 -157h-202z" />
    <glyph glyph-name="uni2840" unicode="&#x2840;" 
d="M123 45h202l-39 -157h-202z" />
    <glyph glyph-name="uni2841" unicode="&#x2841;" 
d="M291 717h201l-39 -157h-201zM123 45h202l-39 -157h-202z" />
    <glyph glyph-name="uni2842" unicode="&#x2842;" 
d="M235 493h201l-39 -157h-201zM123 45h202l-39 -157h-202z" />
    <glyph glyph-name="uni2843" unicode="&#x2843;" 
d="M291 717h201l-39 -157h-201zM235 493h201l-39 -157h-201zM123 45h202l-39 -157h-202z" />
    <glyph glyph-name="uni2844" unicode="&#x2844;" 
d="M179 269h202l-39 -157h-202zM123 45h202l-39 -157h-202z" />
    <glyph glyph-name="uni2845" unicode="&#x2845;" 
d="M291 717h201l-39 -157h-201zM179 269h202l-39 -157h-202zM123 45h202l-39 -157h-202z" />
    <glyph glyph-name="uni2846" unicode="&#x2846;" 
d="M235 493h201l-39 -157h-201zM179 269h202l-39 -157h-202zM123 45h202l-39 -157h-202z" />
    <glyph glyph-name="uni2847" unicode="&#x2847;" 
d="M291 717h201l-39 -157h-201zM235 493h201l-39 -157h-201zM179 269h202l-39 -157h-202zM123 45h202l-39 -157h-202z" />
    <glyph glyph-name="uni2848" unicode="&#x2848;" 
d="M515 717h201l-39 -157h-201zM123 45h202l-39 -157h-202z" />
    <glyph glyph-name="uni2849" unicode="&#x2849;" 
d="M291 717h201l-39 -157h-201zM515 717h201l-39 -157h-201zM123 45h202l-39 -157h-202z" />
    <glyph glyph-name="uni284A" unicode="&#x284a;" 
d="M515 717h201l-39 -157h-201zM235 493h201l-39 -157h-201zM123 45h202l-39 -157h-202z" />
    <glyph glyph-name="uni284B" unicode="&#x284b;" 
d="M291 717h201l-39 -157h-201zM515 717h201l-39 -157h-201zM235 493h201l-39 -157h-201zM123 45h202l-39 -157h-202z" />
    <glyph glyph-name="uni284C" unicode="&#x284c;" 
d="M515 717h201l-39 -157h-201zM179 269h202l-39 -157h-202zM123 45h202l-39 -157h-202z" />
    <glyph glyph-name="uni284D" unicode="&#x284d;" 
d="M291 717h201l-39 -157h-201zM515 717h201l-39 -157h-201zM179 269h202l-39 -157h-202zM123 45h202l-39 -157h-202z" />
    <glyph glyph-name="uni284E" unicode="&#x284e;" 
d="M515 717h201l-39 -157h-201zM235 493h201l-39 -157h-201zM179 269h202l-39 -157h-202zM123 45h202l-39 -157h-202z" />
    <glyph glyph-name="uni284F" unicode="&#x284f;" 
d="M291 717h201l-39 -157h-201zM515 717h201l-39 -157h-201zM235 493h201l-39 -157h-201zM179 269h202l-39 -157h-202zM123 45h202l-39 -157h-202z" />
    <glyph glyph-name="uni2850" unicode="&#x2850;" 
d="M459 493h201l-39 -157h-201zM123 45h202l-39 -157h-202z" />
    <glyph glyph-name="uni2851" unicode="&#x2851;" 
d="M291 717h201l-39 -157h-201zM459 493h201l-39 -157h-201zM123 45h202l-39 -157h-202z" />
    <glyph glyph-name="uni2852" unicode="&#x2852;" 
d="M235 493h201l-39 -157h-201zM459 493h201l-39 -157h-201zM123 45h202l-39 -157h-202z" />
    <glyph glyph-name="uni2853" unicode="&#x2853;" 
d="M291 717h201l-39 -157h-201zM235 493h201l-39 -157h-201zM459 493h201l-39 -157h-201zM123 45h202l-39 -157h-202z" />
    <glyph glyph-name="uni2854" unicode="&#x2854;" 
d="M459 493h201l-39 -157h-201zM179 269h202l-39 -157h-202zM123 45h202l-39 -157h-202z" />
    <glyph glyph-name="uni2855" unicode="&#x2855;" 
d="M291 717h201l-39 -157h-201zM459 493h201l-39 -157h-201zM179 269h202l-39 -157h-202zM123 45h202l-39 -157h-202z" />
    <glyph glyph-name="uni2856" unicode="&#x2856;" 
d="M235 493h201l-39 -157h-201zM459 493h201l-39 -157h-201zM179 269h202l-39 -157h-202zM123 45h202l-39 -157h-202z" />
    <glyph glyph-name="uni2857" unicode="&#x2857;" 
d="M291 717h201l-39 -157h-201zM235 493h201l-39 -157h-201zM459 493h201l-39 -157h-201zM179 269h202l-39 -157h-202zM123 45h202l-39 -157h-202z" />
    <glyph glyph-name="uni2858" unicode="&#x2858;" 
d="M515 717h201l-39 -157h-201zM459 493h201l-39 -157h-201zM123 45h202l-39 -157h-202z" />
    <glyph glyph-name="uni2859" unicode="&#x2859;" 
d="M291 717h201l-39 -157h-201zM515 717h201l-39 -157h-201zM459 493h201l-39 -157h-201zM123 45h202l-39 -157h-202z" />
    <glyph glyph-name="uni285A" unicode="&#x285a;" 
d="M515 717h201l-39 -157h-201zM235 493h201l-39 -157h-201zM459 493h201l-39 -157h-201zM123 45h202l-39 -157h-202z" />
    <glyph glyph-name="uni285B" unicode="&#x285b;" 
d="M291 717h201l-39 -157h-201zM515 717h201l-39 -157h-201zM235 493h201l-39 -157h-201zM459 493h201l-39 -157h-201zM123 45h202l-39 -157h-202z" />
    <glyph glyph-name="uni285C" unicode="&#x285c;" 
d="M515 717h201l-39 -157h-201zM459 493h201l-39 -157h-201zM179 269h202l-39 -157h-202zM123 45h202l-39 -157h-202z" />
    <glyph glyph-name="uni285D" unicode="&#x285d;" 
d="M291 717h201l-39 -157h-201zM515 717h201l-39 -157h-201zM459 493h201l-39 -157h-201zM179 269h202l-39 -157h-202zM123 45h202l-39 -157h-202z" />
    <glyph glyph-name="uni285E" unicode="&#x285e;" 
d="M515 717h201l-39 -157h-201zM235 493h201l-39 -157h-201zM459 493h201l-39 -157h-201zM179 269h202l-39 -157h-202zM123 45h202l-39 -157h-202z" />
    <glyph glyph-name="uni285F" unicode="&#x285f;" 
d="M291 717h201l-39 -157h-201zM515 717h201l-39 -157h-201zM235 493h201l-39 -157h-201zM459 493h201l-39 -157h-201zM179 269h202l-39 -157h-202zM123 45h202l-39 -157h-202z" />
    <glyph glyph-name="uni2860" unicode="&#x2860;" 
d="M403 269h202l-39 -157h-202zM123 45h202l-39 -157h-202z" />
    <glyph glyph-name="uni2861" unicode="&#x2861;" 
d="M291 717h201l-39 -157h-201zM403 269h202l-39 -157h-202zM123 45h202l-39 -157h-202z" />
    <glyph glyph-name="uni2862" unicode="&#x2862;" 
d="M235 493h201l-39 -157h-201zM403 269h202l-39 -157h-202zM123 45h202l-39 -157h-202z" />
    <glyph glyph-name="uni2863" unicode="&#x2863;" 
d="M291 717h201l-39 -157h-201zM235 493h201l-39 -157h-201zM403 269h202l-39 -157h-202zM123 45h202l-39 -157h-202z" />
    <glyph glyph-name="uni2864" unicode="&#x2864;" 
d="M179 269h202l-39 -157h-202zM403 269h202l-39 -157h-202zM123 45h202l-39 -157h-202z" />
    <glyph glyph-name="uni2865" unicode="&#x2865;" 
d="M291 717h201l-39 -157h-201zM179 269h202l-39 -157h-202zM403 269h202l-39 -157h-202zM123 45h202l-39 -157h-202z" />
    <glyph glyph-name="uni2866" unicode="&#x2866;" 
d="M235 493h201l-39 -157h-201zM179 269h202l-39 -157h-202zM403 269h202l-39 -157h-202zM123 45h202l-39 -157h-202z" />
    <glyph glyph-name="uni2867" unicode="&#x2867;" 
d="M291 717h201l-39 -157h-201zM235 493h201l-39 -157h-201zM179 269h202l-39 -157h-202zM403 269h202l-39 -157h-202zM123 45h202l-39 -157h-202z" />
    <glyph glyph-name="uni2868" unicode="&#x2868;" 
d="M515 717h201l-39 -157h-201zM403 269h202l-39 -157h-202zM123 45h202l-39 -157h-202z" />
    <glyph glyph-name="uni2869" unicode="&#x2869;" 
d="M291 717h201l-39 -157h-201zM515 717h201l-39 -157h-201zM403 269h202l-39 -157h-202zM123 45h202l-39 -157h-202z" />
    <glyph glyph-name="uni286A" unicode="&#x286a;" 
d="M515 717h201l-39 -157h-201zM235 493h201l-39 -157h-201zM403 269h202l-39 -157h-202zM123 45h202l-39 -157h-202z" />
    <glyph glyph-name="uni286B" unicode="&#x286b;" 
d="M291 717h201l-39 -157h-201zM515 717h201l-39 -157h-201zM235 493h201l-39 -157h-201zM403 269h202l-39 -157h-202zM123 45h202l-39 -157h-202z" />
    <glyph glyph-name="uni286C" unicode="&#x286c;" 
d="M515 717h201l-39 -157h-201zM179 269h202l-39 -157h-202zM403 269h202l-39 -157h-202zM123 45h202l-39 -157h-202z" />
    <glyph glyph-name="uni286D" unicode="&#x286d;" 
d="M291 717h201l-39 -157h-201zM515 717h201l-39 -157h-201zM179 269h202l-39 -157h-202zM403 269h202l-39 -157h-202zM123 45h202l-39 -157h-202z" />
    <glyph glyph-name="uni286E" unicode="&#x286e;" 
d="M515 717h201l-39 -157h-201zM235 493h201l-39 -157h-201zM179 269h202l-39 -157h-202zM403 269h202l-39 -157h-202zM123 45h202l-39 -157h-202z" />
    <glyph glyph-name="uni286F" unicode="&#x286f;" 
d="M291 717h201l-39 -157h-201zM515 717h201l-39 -157h-201zM235 493h201l-39 -157h-201zM179 269h202l-39 -157h-202zM403 269h202l-39 -157h-202zM123 45h202l-39 -157h-202z" />
    <glyph glyph-name="uni2870" unicode="&#x2870;" 
d="M459 493h201l-39 -157h-201zM403 269h202l-39 -157h-202zM123 45h202l-39 -157h-202z" />
    <glyph glyph-name="uni2871" unicode="&#x2871;" 
d="M291 717h201l-39 -157h-201zM459 493h201l-39 -157h-201zM403 269h202l-39 -157h-202zM123 45h202l-39 -157h-202z" />
    <glyph glyph-name="uni2872" unicode="&#x2872;" 
d="M235 493h201l-39 -157h-201zM459 493h201l-39 -157h-201zM403 269h202l-39 -157h-202zM123 45h202l-39 -157h-202z" />
    <glyph glyph-name="uni2873" unicode="&#x2873;" 
d="M291 717h201l-39 -157h-201zM235 493h201l-39 -157h-201zM459 493h201l-39 -157h-201zM403 269h202l-39 -157h-202zM123 45h202l-39 -157h-202z" />
    <glyph glyph-name="uni2874" unicode="&#x2874;" 
d="M459 493h201l-39 -157h-201zM179 269h202l-39 -157h-202zM403 269h202l-39 -157h-202zM123 45h202l-39 -157h-202z" />
    <glyph glyph-name="uni2875" unicode="&#x2875;" 
d="M291 717h201l-39 -157h-201zM459 493h201l-39 -157h-201zM179 269h202l-39 -157h-202zM403 269h202l-39 -157h-202zM123 45h202l-39 -157h-202z" />
    <glyph glyph-name="uni2876" unicode="&#x2876;" 
d="M235 493h201l-39 -157h-201zM459 493h201l-39 -157h-201zM179 269h202l-39 -157h-202zM403 269h202l-39 -157h-202zM123 45h202l-39 -157h-202z" />
    <glyph glyph-name="uni2877" unicode="&#x2877;" 
d="M291 717h201l-39 -157h-201zM235 493h201l-39 -157h-201zM459 493h201l-39 -157h-201zM179 269h202l-39 -157h-202zM403 269h202l-39 -157h-202zM123 45h202l-39 -157h-202z" />
    <glyph glyph-name="uni2878" unicode="&#x2878;" 
d="M515 717h201l-39 -157h-201zM459 493h201l-39 -157h-201zM403 269h202l-39 -157h-202zM123 45h202l-39 -157h-202z" />
    <glyph glyph-name="uni2879" unicode="&#x2879;" 
d="M291 717h201l-39 -157h-201zM515 717h201l-39 -157h-201zM459 493h201l-39 -157h-201zM403 269h202l-39 -157h-202zM123 45h202l-39 -157h-202z" />
    <glyph glyph-name="uni287A" unicode="&#x287a;" 
d="M515 717h201l-39 -157h-201zM235 493h201l-39 -157h-201zM459 493h201l-39 -157h-201zM403 269h202l-39 -157h-202zM123 45h202l-39 -157h-202z" />
    <glyph glyph-name="uni287B" unicode="&#x287b;" 
d="M291 717h201l-39 -157h-201zM515 717h201l-39 -157h-201zM235 493h201l-39 -157h-201zM459 493h201l-39 -157h-201zM403 269h202l-39 -157h-202zM123 45h202l-39 -157h-202z" />
    <glyph glyph-name="uni287C" unicode="&#x287c;" 
d="M515 717h201l-39 -157h-201zM459 493h201l-39 -157h-201zM179 269h202l-39 -157h-202zM403 269h202l-39 -157h-202zM123 45h202l-39 -157h-202z" />
    <glyph glyph-name="uni287D" unicode="&#x287d;" 
d="M291 717h201l-39 -157h-201zM515 717h201l-39 -157h-201zM459 493h201l-39 -157h-201zM179 269h202l-39 -157h-202zM403 269h202l-39 -157h-202zM123 45h202l-39 -157h-202z" />
    <glyph glyph-name="uni287E" unicode="&#x287e;" 
d="M515 717h201l-39 -157h-201zM235 493h201l-39 -157h-201zM459 493h201l-39 -157h-201zM179 269h202l-39 -157h-202zM403 269h202l-39 -157h-202zM123 45h202l-39 -157h-202z" />
    <glyph glyph-name="uni287F" unicode="&#x287f;" 
d="M291 717h201l-39 -157h-201zM515 717h201l-39 -157h-201zM235 493h201l-39 -157h-201zM459 493h201l-39 -157h-201zM179 269h202l-39 -157h-202zM403 269h202l-39 -157h-202zM123 45h202l-39 -157h-202z" />
    <glyph glyph-name="uni2880" unicode="&#x2880;" 
d="M347 45h202l-39 -157h-202z" />
    <glyph glyph-name="uni2881" unicode="&#x2881;" 
d="M291 717h201l-39 -157h-201zM347 45h202l-39 -157h-202z" />
    <glyph glyph-name="uni2882" unicode="&#x2882;" 
d="M235 493h201l-39 -157h-201zM347 45h202l-39 -157h-202z" />
    <glyph glyph-name="uni2883" unicode="&#x2883;" 
d="M291 717h201l-39 -157h-201zM235 493h201l-39 -157h-201zM347 45h202l-39 -157h-202z" />
    <glyph glyph-name="uni2884" unicode="&#x2884;" 
d="M179 269h202l-39 -157h-202zM347 45h202l-39 -157h-202z" />
    <glyph glyph-name="uni2885" unicode="&#x2885;" 
d="M291 717h201l-39 -157h-201zM179 269h202l-39 -157h-202zM347 45h202l-39 -157h-202z" />
    <glyph glyph-name="uni2886" unicode="&#x2886;" 
d="M235 493h201l-39 -157h-201zM179 269h202l-39 -157h-202zM347 45h202l-39 -157h-202z" />
    <glyph glyph-name="uni2887" unicode="&#x2887;" 
d="M291 717h201l-39 -157h-201zM235 493h201l-39 -157h-201zM179 269h202l-39 -157h-202zM347 45h202l-39 -157h-202z" />
    <glyph glyph-name="uni2888" unicode="&#x2888;" 
d="M515 717h201l-39 -157h-201zM347 45h202l-39 -157h-202z" />
    <glyph glyph-name="uni2889" unicode="&#x2889;" 
d="M291 717h201l-39 -157h-201zM515 717h201l-39 -157h-201zM347 45h202l-39 -157h-202z" />
    <glyph glyph-name="uni288A" unicode="&#x288a;" 
d="M515 717h201l-39 -157h-201zM235 493h201l-39 -157h-201zM347 45h202l-39 -157h-202z" />
    <glyph glyph-name="uni288B" unicode="&#x288b;" 
d="M291 717h201l-39 -157h-201zM515 717h201l-39 -157h-201zM235 493h201l-39 -157h-201zM347 45h202l-39 -157h-202z" />
    <glyph glyph-name="uni288C" unicode="&#x288c;" 
d="M515 717h201l-39 -157h-201zM179 269h202l-39 -157h-202zM347 45h202l-39 -157h-202z" />
    <glyph glyph-name="uni288D" unicode="&#x288d;" 
d="M291 717h201l-39 -157h-201zM515 717h201l-39 -157h-201zM179 269h202l-39 -157h-202zM347 45h202l-39 -157h-202z" />
    <glyph glyph-name="uni288E" unicode="&#x288e;" 
d="M515 717h201l-39 -157h-201zM235 493h201l-39 -157h-201zM179 269h202l-39 -157h-202zM347 45h202l-39 -157h-202z" />
    <glyph glyph-name="uni288F" unicode="&#x288f;" 
d="M291 717h201l-39 -157h-201zM515 717h201l-39 -157h-201zM235 493h201l-39 -157h-201zM179 269h202l-39 -157h-202zM347 45h202l-39 -157h-202z" />
    <glyph glyph-name="uni2890" unicode="&#x2890;" 
d="M459 493h201l-39 -157h-201zM347 45h202l-39 -157h-202z" />
    <glyph glyph-name="uni2891" unicode="&#x2891;" 
d="M291 717h201l-39 -157h-201zM459 493h201l-39 -157h-201zM347 45h202l-39 -157h-202z" />
    <glyph glyph-name="uni2892" unicode="&#x2892;" 
d="M235 493h201l-39 -157h-201zM459 493h201l-39 -157h-201zM347 45h202l-39 -157h-202z" />
    <glyph glyph-name="uni2893" unicode="&#x2893;" 
d="M291 717h201l-39 -157h-201zM235 493h201l-39 -157h-201zM459 493h201l-39 -157h-201zM347 45h202l-39 -157h-202z" />
    <glyph glyph-name="uni2894" unicode="&#x2894;" 
d="M459 493h201l-39 -157h-201zM179 269h202l-39 -157h-202zM347 45h202l-39 -157h-202z" />
    <glyph glyph-name="uni2895" unicode="&#x2895;" 
d="M291 717h201l-39 -157h-201zM459 493h201l-39 -157h-201zM179 269h202l-39 -157h-202zM347 45h202l-39 -157h-202z" />
    <glyph glyph-name="uni2896" unicode="&#x2896;" 
d="M235 493h201l-39 -157h-201zM459 493h201l-39 -157h-201zM179 269h202l-39 -157h-202zM347 45h202l-39 -157h-202z" />
    <glyph glyph-name="uni2897" unicode="&#x2897;" 
d="M291 717h201l-39 -157h-201zM235 493h201l-39 -157h-201zM459 493h201l-39 -157h-201zM179 269h202l-39 -157h-202zM347 45h202l-39 -157h-202z" />
    <glyph glyph-name="uni2898" unicode="&#x2898;" 
d="M515 717h201l-39 -157h-201zM459 493h201l-39 -157h-201zM347 45h202l-39 -157h-202z" />
    <glyph glyph-name="uni2899" unicode="&#x2899;" 
d="M291 717h201l-39 -157h-201zM515 717h201l-39 -157h-201zM459 493h201l-39 -157h-201zM347 45h202l-39 -157h-202z" />
    <glyph glyph-name="uni289A" unicode="&#x289a;" 
d="M515 717h201l-39 -157h-201zM235 493h201l-39 -157h-201zM459 493h201l-39 -157h-201zM347 45h202l-39 -157h-202z" />
    <glyph glyph-name="uni289B" unicode="&#x289b;" 
d="M291 717h201l-39 -157h-201zM515 717h201l-39 -157h-201zM235 493h201l-39 -157h-201zM459 493h201l-39 -157h-201zM347 45h202l-39 -157h-202z" />
    <glyph glyph-name="uni289C" unicode="&#x289c;" 
d="M515 717h201l-39 -157h-201zM459 493h201l-39 -157h-201zM179 269h202l-39 -157h-202zM347 45h202l-39 -157h-202z" />
    <glyph glyph-name="uni289D" unicode="&#x289d;" 
d="M291 717h201l-39 -157h-201zM515 717h201l-39 -157h-201zM459 493h201l-39 -157h-201zM179 269h202l-39 -157h-202zM347 45h202l-39 -157h-202z" />
    <glyph glyph-name="uni289E" unicode="&#x289e;" 
d="M515 717h201l-39 -157h-201zM235 493h201l-39 -157h-201zM459 493h201l-39 -157h-201zM179 269h202l-39 -157h-202zM347 45h202l-39 -157h-202z" />
    <glyph glyph-name="uni289F" unicode="&#x289f;" 
d="M291 717h201l-39 -157h-201zM515 717h201l-39 -157h-201zM235 493h201l-39 -157h-201zM459 493h201l-39 -157h-201zM179 269h202l-39 -157h-202zM347 45h202l-39 -157h-202z" />
    <glyph glyph-name="uni28A0" unicode="&#x28a0;" 
d="M403 269h202l-39 -157h-202zM347 45h202l-39 -157h-202z" />
    <glyph glyph-name="uni28A1" unicode="&#x28a1;" 
d="M291 717h201l-39 -157h-201zM403 269h202l-39 -157h-202zM347 45h202l-39 -157h-202z" />
    <glyph glyph-name="uni28A2" unicode="&#x28a2;" 
d="M235 493h201l-39 -157h-201zM403 269h202l-39 -157h-202zM347 45h202l-39 -157h-202z" />
    <glyph glyph-name="uni28A3" unicode="&#x28a3;" 
d="M291 717h201l-39 -157h-201zM235 493h201l-39 -157h-201zM403 269h202l-39 -157h-202zM347 45h202l-39 -157h-202z" />
    <glyph glyph-name="uni28A4" unicode="&#x28a4;" 
d="M179 269h202l-39 -157h-202zM403 269h202l-39 -157h-202zM347 45h202l-39 -157h-202z" />
    <glyph glyph-name="uni28A5" unicode="&#x28a5;" 
d="M291 717h201l-39 -157h-201zM179 269h202l-39 -157h-202zM403 269h202l-39 -157h-202zM347 45h202l-39 -157h-202z" />
    <glyph glyph-name="uni28A6" unicode="&#x28a6;" 
d="M235 493h201l-39 -157h-201zM179 269h202l-39 -157h-202zM403 269h202l-39 -157h-202zM347 45h202l-39 -157h-202z" />
    <glyph glyph-name="uni28A7" unicode="&#x28a7;" 
d="M291 717h201l-39 -157h-201zM235 493h201l-39 -157h-201zM179 269h202l-39 -157h-202zM403 269h202l-39 -157h-202zM347 45h202l-39 -157h-202z" />
    <glyph glyph-name="uni28A8" unicode="&#x28a8;" 
d="M515 717h201l-39 -157h-201zM403 269h202l-39 -157h-202zM347 45h202l-39 -157h-202z" />
    <glyph glyph-name="uni28A9" unicode="&#x28a9;" 
d="M291 717h201l-39 -157h-201zM515 717h201l-39 -157h-201zM403 269h202l-39 -157h-202zM347 45h202l-39 -157h-202z" />
    <glyph glyph-name="uni28AA" unicode="&#x28aa;" 
d="M515 717h201l-39 -157h-201zM235 493h201l-39 -157h-201zM403 269h202l-39 -157h-202zM347 45h202l-39 -157h-202z" />
    <glyph glyph-name="uni28AB" unicode="&#x28ab;" 
d="M291 717h201l-39 -157h-201zM515 717h201l-39 -157h-201zM235 493h201l-39 -157h-201zM403 269h202l-39 -157h-202zM347 45h202l-39 -157h-202z" />
    <glyph glyph-name="uni28AC" unicode="&#x28ac;" 
d="M515 717h201l-39 -157h-201zM179 269h202l-39 -157h-202zM403 269h202l-39 -157h-202zM347 45h202l-39 -157h-202z" />
    <glyph glyph-name="uni28AD" unicode="&#x28ad;" 
d="M291 717h201l-39 -157h-201zM515 717h201l-39 -157h-201zM179 269h202l-39 -157h-202zM403 269h202l-39 -157h-202zM347 45h202l-39 -157h-202z" />
    <glyph glyph-name="uni28AE" unicode="&#x28ae;" 
d="M515 717h201l-39 -157h-201zM235 493h201l-39 -157h-201zM179 269h202l-39 -157h-202zM403 269h202l-39 -157h-202zM347 45h202l-39 -157h-202z" />
    <glyph glyph-name="uni28AF" unicode="&#x28af;" 
d="M291 717h201l-39 -157h-201zM515 717h201l-39 -157h-201zM235 493h201l-39 -157h-201zM179 269h202l-39 -157h-202zM403 269h202l-39 -157h-202zM347 45h202l-39 -157h-202z" />
    <glyph glyph-name="uni28B0" unicode="&#x28b0;" 
d="M459 493h201l-39 -157h-201zM403 269h202l-39 -157h-202zM347 45h202l-39 -157h-202z" />
    <glyph glyph-name="uni28B1" unicode="&#x28b1;" 
d="M291 717h201l-39 -157h-201zM459 493h201l-39 -157h-201zM403 269h202l-39 -157h-202zM347 45h202l-39 -157h-202z" />
    <glyph glyph-name="uni28B2" unicode="&#x28b2;" 
d="M235 493h201l-39 -157h-201zM459 493h201l-39 -157h-201zM403 269h202l-39 -157h-202zM347 45h202l-39 -157h-202z" />
    <glyph glyph-name="uni28B3" unicode="&#x28b3;" 
d="M291 717h201l-39 -157h-201zM235 493h201l-39 -157h-201zM459 493h201l-39 -157h-201zM403 269h202l-39 -157h-202zM347 45h202l-39 -157h-202z" />
    <glyph glyph-name="uni28B4" unicode="&#x28b4;" 
d="M459 493h201l-39 -157h-201zM179 269h202l-39 -157h-202zM403 269h202l-39 -157h-202zM347 45h202l-39 -157h-202z" />
    <glyph glyph-name="uni28B5" unicode="&#x28b5;" 
d="M291 717h201l-39 -157h-201zM459 493h201l-39 -157h-201zM179 269h202l-39 -157h-202zM403 269h202l-39 -157h-202zM347 45h202l-39 -157h-202z" />
    <glyph glyph-name="uni28B6" unicode="&#x28b6;" 
d="M235 493h201l-39 -157h-201zM459 493h201l-39 -157h-201zM179 269h202l-39 -157h-202zM403 269h202l-39 -157h-202zM347 45h202l-39 -157h-202z" />
    <glyph glyph-name="uni28B7" unicode="&#x28b7;" 
d="M291 717h201l-39 -157h-201zM235 493h201l-39 -157h-201zM459 493h201l-39 -157h-201zM179 269h202l-39 -157h-202zM403 269h202l-39 -157h-202zM347 45h202l-39 -157h-202z" />
    <glyph glyph-name="uni28B8" unicode="&#x28b8;" 
d="M515 717h201l-39 -157h-201zM459 493h201l-39 -157h-201zM403 269h202l-39 -157h-202zM347 45h202l-39 -157h-202z" />
    <glyph glyph-name="uni28B9" unicode="&#x28b9;" 
d="M291 717h201l-39 -157h-201zM515 717h201l-39 -157h-201zM459 493h201l-39 -157h-201zM403 269h202l-39 -157h-202zM347 45h202l-39 -157h-202z" />
    <glyph glyph-name="uni28BA" unicode="&#x28ba;" 
d="M515 717h201l-39 -157h-201zM235 493h201l-39 -157h-201zM459 493h201l-39 -157h-201zM403 269h202l-39 -157h-202zM347 45h202l-39 -157h-202z" />
    <glyph glyph-name="uni28BB" unicode="&#x28bb;" 
d="M291 717h201l-39 -157h-201zM515 717h201l-39 -157h-201zM235 493h201l-39 -157h-201zM459 493h201l-39 -157h-201zM403 269h202l-39 -157h-202zM347 45h202l-39 -157h-202z" />
    <glyph glyph-name="uni28BC" unicode="&#x28bc;" 
d="M515 717h201l-39 -157h-201zM459 493h201l-39 -157h-201zM179 269h202l-39 -157h-202zM403 269h202l-39 -157h-202zM347 45h202l-39 -157h-202z" />
    <glyph glyph-name="uni28BD" unicode="&#x28bd;" 
d="M291 717h201l-39 -157h-201zM515 717h201l-39 -157h-201zM459 493h201l-39 -157h-201zM179 269h202l-39 -157h-202zM403 269h202l-39 -157h-202zM347 45h202l-39 -157h-202z" />
    <glyph glyph-name="uni28BE" unicode="&#x28be;" 
d="M515 717h201l-39 -157h-201zM235 493h201l-39 -157h-201zM459 493h201l-39 -157h-201zM179 269h202l-39 -157h-202zM403 269h202l-39 -157h-202zM347 45h202l-39 -157h-202z" />
    <glyph glyph-name="uni28BF" unicode="&#x28bf;" 
d="M291 717h201l-39 -157h-201zM515 717h201l-39 -157h-201zM235 493h201l-39 -157h-201zM459 493h201l-39 -157h-201zM179 269h202l-39 -157h-202zM403 269h202l-39 -157h-202zM347 45h202l-39 -157h-202z" />
    <glyph glyph-name="uni28C0" unicode="&#x28c0;" 
d="M123 45h202l-39 -157h-202zM347 45h202l-39 -157h-202z" />
    <glyph glyph-name="uni28C1" unicode="&#x28c1;" 
d="M291 717h201l-39 -157h-201zM123 45h202l-39 -157h-202zM347 45h202l-39 -157h-202z" />
    <glyph glyph-name="uni28C2" unicode="&#x28c2;" 
d="M235 493h201l-39 -157h-201zM123 45h202l-39 -157h-202zM347 45h202l-39 -157h-202z" />
    <glyph glyph-name="uni28C3" unicode="&#x28c3;" 
d="M291 717h201l-39 -157h-201zM235 493h201l-39 -157h-201zM123 45h202l-39 -157h-202zM347 45h202l-39 -157h-202z" />
    <glyph glyph-name="uni28C4" unicode="&#x28c4;" 
d="M179 269h202l-39 -157h-202zM123 45h202l-39 -157h-202zM347 45h202l-39 -157h-202z" />
    <glyph glyph-name="uni28C5" unicode="&#x28c5;" 
d="M291 717h201l-39 -157h-201zM179 269h202l-39 -157h-202zM123 45h202l-39 -157h-202zM347 45h202l-39 -157h-202z" />
    <glyph glyph-name="uni28C6" unicode="&#x28c6;" 
d="M235 493h201l-39 -157h-201zM179 269h202l-39 -157h-202zM123 45h202l-39 -157h-202zM347 45h202l-39 -157h-202z" />
    <glyph glyph-name="uni28C7" unicode="&#x28c7;" 
d="M291 717h201l-39 -157h-201zM235 493h201l-39 -157h-201zM179 269h202l-39 -157h-202zM123 45h202l-39 -157h-202zM347 45h202l-39 -157h-202z" />
    <glyph glyph-name="uni28C8" unicode="&#x28c8;" 
d="M515 717h201l-39 -157h-201zM123 45h202l-39 -157h-202zM347 45h202l-39 -157h-202z" />
    <glyph glyph-name="uni28C9" unicode="&#x28c9;" 
d="M291 717h201l-39 -157h-201zM515 717h201l-39 -157h-201zM123 45h202l-39 -157h-202zM347 45h202l-39 -157h-202z" />
    <glyph glyph-name="uni28CA" unicode="&#x28ca;" 
d="M515 717h201l-39 -157h-201zM235 493h201l-39 -157h-201zM123 45h202l-39 -157h-202zM347 45h202l-39 -157h-202z" />
    <glyph glyph-name="uni28CB" unicode="&#x28cb;" 
d="M291 717h201l-39 -157h-201zM515 717h201l-39 -157h-201zM235 493h201l-39 -157h-201zM123 45h202l-39 -157h-202zM347 45h202l-39 -157h-202z" />
    <glyph glyph-name="uni28CC" unicode="&#x28cc;" 
d="M515 717h201l-39 -157h-201zM179 269h202l-39 -157h-202zM123 45h202l-39 -157h-202zM347 45h202l-39 -157h-202z" />
    <glyph glyph-name="uni28CD" unicode="&#x28cd;" 
d="M291 717h201l-39 -157h-201zM515 717h201l-39 -157h-201zM179 269h202l-39 -157h-202zM123 45h202l-39 -157h-202zM347 45h202l-39 -157h-202z" />
    <glyph glyph-name="uni28CE" unicode="&#x28ce;" 
d="M515 717h201l-39 -157h-201zM235 493h201l-39 -157h-201zM179 269h202l-39 -157h-202zM123 45h202l-39 -157h-202zM347 45h202l-39 -157h-202z" />
    <glyph glyph-name="uni28CF" unicode="&#x28cf;" 
d="M291 717h201l-39 -157h-201zM515 717h201l-39 -157h-201zM235 493h201l-39 -157h-201zM179 269h202l-39 -157h-202zM123 45h202l-39 -157h-202zM347 45h202l-39 -157h-202z" />
    <glyph glyph-name="uni28D0" unicode="&#x28d0;" 
d="M459 493h201l-39 -157h-201zM123 45h202l-39 -157h-202zM347 45h202l-39 -157h-202z" />
    <glyph glyph-name="uni28D1" unicode="&#x28d1;" 
d="M291 717h201l-39 -157h-201zM459 493h201l-39 -157h-201zM123 45h202l-39 -157h-202zM347 45h202l-39 -157h-202z" />
    <glyph glyph-name="uni28D2" unicode="&#x28d2;" 
d="M235 493h201l-39 -157h-201zM459 493h201l-39 -157h-201zM123 45h202l-39 -157h-202zM347 45h202l-39 -157h-202z" />
    <glyph glyph-name="uni28D3" unicode="&#x28d3;" 
d="M291 717h201l-39 -157h-201zM235 493h201l-39 -157h-201zM459 493h201l-39 -157h-201zM123 45h202l-39 -157h-202zM347 45h202l-39 -157h-202z" />
    <glyph glyph-name="uni28D4" unicode="&#x28d4;" 
d="M459 493h201l-39 -157h-201zM179 269h202l-39 -157h-202zM123 45h202l-39 -157h-202zM347 45h202l-39 -157h-202z" />
    <glyph glyph-name="uni28D5" unicode="&#x28d5;" 
d="M291 717h201l-39 -157h-201zM459 493h201l-39 -157h-201zM179 269h202l-39 -157h-202zM123 45h202l-39 -157h-202zM347 45h202l-39 -157h-202z" />
    <glyph glyph-name="uni28D6" unicode="&#x28d6;" 
d="M235 493h201l-39 -157h-201zM459 493h201l-39 -157h-201zM179 269h202l-39 -157h-202zM123 45h202l-39 -157h-202zM347 45h202l-39 -157h-202z" />
    <glyph glyph-name="uni28D7" unicode="&#x28d7;" 
d="M291 717h201l-39 -157h-201zM235 493h201l-39 -157h-201zM459 493h201l-39 -157h-201zM179 269h202l-39 -157h-202zM123 45h202l-39 -157h-202zM347 45h202l-39 -157h-202z" />
    <glyph glyph-name="uni28D8" unicode="&#x28d8;" 
d="M515 717h201l-39 -157h-201zM459 493h201l-39 -157h-201zM123 45h202l-39 -157h-202zM347 45h202l-39 -157h-202z" />
    <glyph glyph-name="uni28D9" unicode="&#x28d9;" 
d="M291 717h201l-39 -157h-201zM515 717h201l-39 -157h-201zM459 493h201l-39 -157h-201zM123 45h202l-39 -157h-202zM347 45h202l-39 -157h-202z" />
    <glyph glyph-name="uni28DA" unicode="&#x28da;" 
d="M515 717h201l-39 -157h-201zM235 493h201l-39 -157h-201zM459 493h201l-39 -157h-201zM123 45h202l-39 -157h-202zM347 45h202l-39 -157h-202z" />
    <glyph glyph-name="uni28DB" unicode="&#x28db;" 
d="M291 717h201l-39 -157h-201zM515 717h201l-39 -157h-201zM235 493h201l-39 -157h-201zM459 493h201l-39 -157h-201zM123 45h202l-39 -157h-202zM347 45h202l-39 -157h-202z" />
    <glyph glyph-name="uni28DC" unicode="&#x28dc;" 
d="M515 717h201l-39 -157h-201zM459 493h201l-39 -157h-201zM179 269h202l-39 -157h-202zM123 45h202l-39 -157h-202zM347 45h202l-39 -157h-202z" />
    <glyph glyph-name="uni28DD" unicode="&#x28dd;" 
d="M291 717h201l-39 -157h-201zM515 717h201l-39 -157h-201zM459 493h201l-39 -157h-201zM179 269h202l-39 -157h-202zM123 45h202l-39 -157h-202zM347 45h202l-39 -157h-202z" />
    <glyph glyph-name="uni28DE" unicode="&#x28de;" 
d="M515 717h201l-39 -157h-201zM235 493h201l-39 -157h-201zM459 493h201l-39 -157h-201zM179 269h202l-39 -157h-202zM123 45h202l-39 -157h-202zM347 45h202l-39 -157h-202z" />
    <glyph glyph-name="uni28DF" unicode="&#x28df;" 
d="M291 717h201l-39 -157h-201zM515 717h201l-39 -157h-201zM235 493h201l-39 -157h-201zM459 493h201l-39 -157h-201zM179 269h202l-39 -157h-202zM123 45h202l-39 -157h-202zM347 45h202l-39 -157h-202z" />
    <glyph glyph-name="uni28E0" unicode="&#x28e0;" 
d="M403 269h202l-39 -157h-202zM123 45h202l-39 -157h-202zM347 45h202l-39 -157h-202z" />
    <glyph glyph-name="uni28E1" unicode="&#x28e1;" 
d="M291 717h201l-39 -157h-201zM403 269h202l-39 -157h-202zM123 45h202l-39 -157h-202zM347 45h202l-39 -157h-202z" />
    <glyph glyph-name="uni28E2" unicode="&#x28e2;" 
d="M235 493h201l-39 -157h-201zM403 269h202l-39 -157h-202zM123 45h202l-39 -157h-202zM347 45h202l-39 -157h-202z" />
    <glyph glyph-name="uni28E3" unicode="&#x28e3;" 
d="M291 717h201l-39 -157h-201zM235 493h201l-39 -157h-201zM403 269h202l-39 -157h-202zM123 45h202l-39 -157h-202zM347 45h202l-39 -157h-202z" />
    <glyph glyph-name="uni28E4" unicode="&#x28e4;" 
d="M179 269h202l-39 -157h-202zM403 269h202l-39 -157h-202zM123 45h202l-39 -157h-202zM347 45h202l-39 -157h-202z" />
    <glyph glyph-name="uni28E5" unicode="&#x28e5;" 
d="M291 717h201l-39 -157h-201zM179 269h202l-39 -157h-202zM403 269h202l-39 -157h-202zM123 45h202l-39 -157h-202zM347 45h202l-39 -157h-202z" />
    <glyph glyph-name="uni28E6" unicode="&#x28e6;" 
d="M235 493h201l-39 -157h-201zM179 269h202l-39 -157h-202zM403 269h202l-39 -157h-202zM123 45h202l-39 -157h-202zM347 45h202l-39 -157h-202z" />
    <glyph glyph-name="uni28E7" unicode="&#x28e7;" 
d="M291 717h201l-39 -157h-201zM235 493h201l-39 -157h-201zM179 269h202l-39 -157h-202zM403 269h202l-39 -157h-202zM123 45h202l-39 -157h-202zM347 45h202l-39 -157h-202z" />
    <glyph glyph-name="uni28E8" unicode="&#x28e8;" 
d="M515 717h201l-39 -157h-201zM403 269h202l-39 -157h-202zM123 45h202l-39 -157h-202zM347 45h202l-39 -157h-202z" />
    <glyph glyph-name="uni28E9" unicode="&#x28e9;" 
d="M291 717h201l-39 -157h-201zM515 717h201l-39 -157h-201zM403 269h202l-39 -157h-202zM123 45h202l-39 -157h-202zM347 45h202l-39 -157h-202z" />
    <glyph glyph-name="uni28EA" unicode="&#x28ea;" 
d="M515 717h201l-39 -157h-201zM235 493h201l-39 -157h-201zM403 269h202l-39 -157h-202zM123 45h202l-39 -157h-202zM347 45h202l-39 -157h-202z" />
    <glyph glyph-name="uni28EB" unicode="&#x28eb;" 
d="M291 717h201l-39 -157h-201zM515 717h201l-39 -157h-201zM235 493h201l-39 -157h-201zM403 269h202l-39 -157h-202zM123 45h202l-39 -157h-202zM347 45h202l-39 -157h-202z" />
    <glyph glyph-name="uni28EC" unicode="&#x28ec;" 
d="M515 717h201l-39 -157h-201zM179 269h202l-39 -157h-202zM403 269h202l-39 -157h-202zM123 45h202l-39 -157h-202zM347 45h202l-39 -157h-202z" />
    <glyph glyph-name="uni28ED" unicode="&#x28ed;" 
d="M291 717h201l-39 -157h-201zM515 717h201l-39 -157h-201zM179 269h202l-39 -157h-202zM403 269h202l-39 -157h-202zM123 45h202l-39 -157h-202zM347 45h202l-39 -157h-202z" />
    <glyph glyph-name="uni28EE" unicode="&#x28ee;" 
d="M515 717h201l-39 -157h-201zM235 493h201l-39 -157h-201zM179 269h202l-39 -157h-202zM403 269h202l-39 -157h-202zM123 45h202l-39 -157h-202zM347 45h202l-39 -157h-202z" />
    <glyph glyph-name="uni28EF" unicode="&#x28ef;" 
d="M291 717h201l-39 -157h-201zM515 717h201l-39 -157h-201zM235 493h201l-39 -157h-201zM179 269h202l-39 -157h-202zM403 269h202l-39 -157h-202zM123 45h202l-39 -157h-202zM347 45h202l-39 -157h-202z" />
    <glyph glyph-name="uni28F0" unicode="&#x28f0;" 
d="M459 493h201l-39 -157h-201zM403 269h202l-39 -157h-202zM123 45h202l-39 -157h-202zM347 45h202l-39 -157h-202z" />
    <glyph glyph-name="uni28F1" unicode="&#x28f1;" 
d="M291 717h201l-39 -157h-201zM459 493h201l-39 -157h-201zM403 269h202l-39 -157h-202zM123 45h202l-39 -157h-202zM347 45h202l-39 -157h-202z" />
    <glyph glyph-name="uni28F2" unicode="&#x28f2;" 
d="M235 493h201l-39 -157h-201zM459 493h201l-39 -157h-201zM403 269h202l-39 -157h-202zM123 45h202l-39 -157h-202zM347 45h202l-39 -157h-202z" />
    <glyph glyph-name="uni28F3" unicode="&#x28f3;" 
d="M291 717h201l-39 -157h-201zM235 493h201l-39 -157h-201zM459 493h201l-39 -157h-201zM403 269h202l-39 -157h-202zM123 45h202l-39 -157h-202zM347 45h202l-39 -157h-202z" />
    <glyph glyph-name="uni28F4" unicode="&#x28f4;" 
d="M459 493h201l-39 -157h-201zM179 269h202l-39 -157h-202zM403 269h202l-39 -157h-202zM123 45h202l-39 -157h-202zM347 45h202l-39 -157h-202z" />
    <glyph glyph-name="uni28F5" unicode="&#x28f5;" 
d="M291 717h201l-39 -157h-201zM459 493h201l-39 -157h-201zM179 269h202l-39 -157h-202zM403 269h202l-39 -157h-202zM123 45h202l-39 -157h-202zM347 45h202l-39 -157h-202z" />
    <glyph glyph-name="uni28F6" unicode="&#x28f6;" 
d="M235 493h201l-39 -157h-201zM459 493h201l-39 -157h-201zM179 269h202l-39 -157h-202zM403 269h202l-39 -157h-202zM123 45h202l-39 -157h-202zM347 45h202l-39 -157h-202z" />
    <glyph glyph-name="uni28F7" unicode="&#x28f7;" 
d="M291 717h201l-39 -157h-201zM235 493h201l-39 -157h-201zM459 493h201l-39 -157h-201zM179 269h202l-39 -157h-202zM403 269h202l-39 -157h-202zM123 45h202l-39 -157h-202zM347 45h202l-39 -157h-202z" />
    <glyph glyph-name="uni28F8" unicode="&#x28f8;" 
d="M515 717h201l-39 -157h-201zM459 493h201l-39 -157h-201zM403 269h202l-39 -157h-202zM123 45h202l-39 -157h-202zM347 45h202l-39 -157h-202z" />
    <glyph glyph-name="uni28F9" unicode="&#x28f9;" 
d="M291 717h201l-39 -157h-201zM515 717h201l-39 -157h-201zM459 493h201l-39 -157h-201zM403 269h202l-39 -157h-202zM123 45h202l-39 -157h-202zM347 45h202l-39 -157h-202z" />
    <glyph glyph-name="uni28FA" unicode="&#x28fa;" 
d="M515 717h201l-39 -157h-201zM235 493h201l-39 -157h-201zM459 493h201l-39 -157h-201zM403 269h202l-39 -157h-202zM123 45h202l-39 -157h-202zM347 45h202l-39 -157h-202z" />
    <glyph glyph-name="uni28FB" unicode="&#x28fb;" 
d="M291 717h201l-39 -157h-201zM515 717h201l-39 -157h-201zM235 493h201l-39 -157h-201zM459 493h201l-39 -157h-201zM403 269h202l-39 -157h-202zM123 45h202l-39 -157h-202zM347 45h202l-39 -157h-202z" />
    <glyph glyph-name="uni28FC" unicode="&#x28fc;" 
d="M515 717h201l-39 -157h-201zM459 493h201l-39 -157h-201zM179 269h202l-39 -157h-202zM403 269h202l-39 -157h-202zM123 45h202l-39 -157h-202zM347 45h202l-39 -157h-202z" />
    <glyph glyph-name="uni28FD" unicode="&#x28fd;" 
d="M291 717h201l-39 -157h-201zM515 717h201l-39 -157h-201zM459 493h201l-39 -157h-201zM179 269h202l-39 -157h-202zM403 269h202l-39 -157h-202zM123 45h202l-39 -157h-202zM347 45h202l-39 -157h-202z" />
    <glyph glyph-name="uni28FE" unicode="&#x28fe;" 
d="M515 717h201l-39 -157h-201zM235 493h201l-39 -157h-201zM459 493h201l-39 -157h-201zM179 269h202l-39 -157h-202zM403 269h202l-39 -157h-202zM123 45h202l-39 -157h-202zM347 45h202l-39 -157h-202z" />
    <glyph glyph-name="uni28FF" unicode="&#x28ff;" 
d="M291 717h201l-39 -157h-201zM515 717h201l-39 -157h-201zM235 493h201l-39 -157h-201zM459 493h201l-39 -157h-201zM179 269h202l-39 -157h-202zM403 269h202l-39 -157h-202zM123 45h202l-39 -157h-202zM347 45h202l-39 -157h-202z" />
    <glyph glyph-name="uni2B00" unicode="&#x2b00;" 
d="M319 829h537l-33 -135l-56 -224l-34 -134h-201l28 112h-23l-28 -112h-112l-28 -112h-201l28 112h-112l39 157h112l28 112h112l17 67h-112zM574 683l-23 -89h67l23 89h-67zM434 571l-23 -89h67l23 89h-67zM294 459l-23 -89h68l22 89h-67z" />
    <glyph glyph-name="uni2B01" unicode="&#x2b01;" 
d="M207 829h537l-39 -157h-112l-17 -67h112l-28 -112h112l-39 -157h-112l-28 -112h-201l28 112h-112l28 112h-23l-28 -112h-201l33 134l56 224zM350 683l-23 -89h67l23 89h-67zM434 571l-23 -89h67l23 89h-67zM518 459l-23 -89h68l22 89h-67z" />
    <glyph glyph-name="uni2B02" unicode="&#x2b02;" 
d="M263 605h201l-28 -112h112l-27 -112h22l28 112h201l-33 -135l-28 -112l-28 -112l-33 -134h-538l39 157h112l17 67h-112l28 112h-112l39 157h112zM294 459l-23 -89h68l22 89h-67zM378 347l-23 -89h68l22 89h-67zM462 235l-22 -89h67l22 89h-67z" />
    <glyph glyph-name="uni2B03" unicode="&#x2b03;" 
d="M487 605h201l-28 -112h112l-39 -157h-112l-28 -112h-112l-16 -67h112l-39 -157h-538l34 134l55 224l34 135h201l-27 -112h22l28 112h112zM518 459l-23 -89h68l22 89h-67zM378 347l-23 -89h68l22 89h-67zM238 235l-22 -89h67l22 89h-67z" />
    <glyph glyph-name="uni2B05" unicode="&#x2b05;" 
d="M403 717h201l-28 -112h224l-33 -135l-28 -112l-34 -134h-224l-27 -112h-202l28 112h-112l28 112h-112l39 157h112l28 112h112z" />
    <glyph glyph-name="uni2B06" unicode="&#x2b06;" 
d="M431 829h201l-28 -112h112l-28 -112h112l-39 -157h-112l-22 -90l-28 -112l-28 -112l-33 -134h-426l34 134l55 224l23 90h-112l39 157h112l28 112h112z" />
    <glyph glyph-name="uni2B07" unicode="&#x2b07;" 
d="M319 829h425l-33 -135l-56 -224l-22 -89h112l-40 -157h-112l-27 -112h-112l-28 -112h-202l28 112h-112l28 112h-112l39 157h112l22 89l56 224z" />
    <glyph glyph-name="uni2B08" unicode="&#x2b08;" 
d="M319 829h537l-33 -135l-56 -224l-34 -134h-201l28 112h-23l-28 -112h-112l-28 -112h-201l28 112h-112l39 157h112l28 112h112l17 67h-112z" />
    <glyph glyph-name="uni2B09" unicode="&#x2b09;" 
d="M207 829h537l-39 -157h-112l-17 -67h112l-28 -112h112l-39 -157h-112l-28 -112h-201l28 112h-112l28 112h-23l-28 -112h-201l33 134l56 224z" />
    <glyph glyph-name="uni2B0A" unicode="&#x2b0a;" 
d="M263 605h201l-28 -112h112l-27 -112h22l28 112h201l-33 -135l-28 -112l-28 -112l-33 -134h-538l39 157h112l17 67h-112l28 112h-112l39 157h112z" />
    <glyph glyph-name="uni2B0B" unicode="&#x2b0b;" 
d="M487 605h201l-28 -112h112l-39 -157h-112l-28 -112h-112l-16 -67h112l-39 -157h-538l34 134l55 224l34 135h201l-27 -112h22l28 112h112z" />
    <glyph glyph-name="uni2B0E" unicode="&#x2b0e;" 
d="M151 605h425l-33 -135l-22 -89h224l-40 -157h-112l-27 -112h-112l-28 -112h-202l28 112h-112l28 112h-112l39 157h224l17 67h-224z" />
    <glyph glyph-name="uni2B0F" unicode="&#x2b0f;" 
d="M375 605h201l-28 -112h112l-27 -112h112l-40 -157h-224l-22 -90l-33 -134h-426l39 157h224l17 67h-224l39 157h112l28 112h112z" />
    <glyph glyph-name="uni2B10" unicode="&#x2b10;" 
d="M375 605h425l-39 -157h-224l-16 -67h224l-40 -157h-112l-27 -112h-112l-28 -112h-202l28 112h-112l28 112h-112l39 157h224l22 89z" />
    <glyph glyph-name="uni2B11" unicode="&#x2b11;" 
d="M375 605h201l-28 -112h112l-27 -112h112l-40 -157h-224l-16 -67h224l-39 -157h-426l34 134l22 90h-224l39 157h112l28 112h112z" />
    <glyph glyph-name="uni2B12" unicode="&#x2b12;" 
d="M151 605h649l-33 -135l-28 -112l-28 -112l-28 -112l-33 -134h-650l34 134l83 336zM266 347l-25 -101l-25 -100h291l25 100l25 101h-291z" />
    <glyph glyph-name="uni2B13" unicode="&#x2b13;" 
d="M151 605h649l-33 -135l-28 -112l-28 -112l-28 -112l-33 -134h-650l34 134l83 336zM294 459l-25 -101l-26 -100h292l25 100l25 101h-291z" />
    <glyph glyph-name="uni2B14" unicode="&#x2b14;" 
d="M151 605h649l-33 -135l-28 -112l-28 -112l-28 -112l-33 -134h-650l34 134l83 336zM294 459l-25 -101l-28 -112l-25 -100h291l22 89h-112l28 112h-112l28 112h-67z" />
    <glyph glyph-name="uni2B15" unicode="&#x2b15;" 
d="M151 605h649l-33 -135l-28 -112l-28 -112l-28 -112l-33 -134h-650l34 134l83 336zM294 459l-23 -89h112l-28 -112h112l-27 -112h67l25 100l28 112l25 101h-291z" />
    <glyph glyph-name="uni2B16" unicode="&#x2b16;" 
d="M375 605h201l-28 -112h112l-27 -112h112l-40 -157h-112l-27 -112h-112l-28 -112h-202l28 112h-112l28 112h-112l39 157h112l28 112h112zM406 459l-25 -101l-28 -112l-25 -100h67l28 112h112l22 89h-112l28 112h-67z" />
    <glyph glyph-name="uni2B17" unicode="&#x2b17;" 
d="M375 605h201l-28 -112h112l-27 -112h112l-40 -157h-112l-27 -112h-112l-28 -112h-202l28 112h-112l28 112h-112l39 157h112l28 112h112zM406 459l-28 -112h-112l-23 -89h112l-27 -112h67l25 100l28 112l25 101h-67z" />
    <glyph glyph-name="uni2B18" unicode="&#x2b18;" 
d="M375 605h201l-28 -112h112l-27 -112h112l-40 -157h-112l-27 -112h-112l-28 -112h-202l28 112h-112l28 112h-112l39 157h112l28 112h112zM266 347l-23 -89h112l-27 -112h67l28 112h112l22 89h-291z" />
    <glyph glyph-name="uni2B19" unicode="&#x2b19;" 
d="M375 605h201l-28 -112h112l-27 -112h112l-40 -157h-112l-27 -112h-112l-28 -112h-202l28 112h-112l28 112h-112l39 157h112l28 112h112zM406 459l-28 -112h-112l-23 -89h292l22 89h-112l28 112h-67z" />
    <glyph glyph-name="uni2B1A" unicode="&#x2b1a;" 
d="M151 605h201l-39 -157h-201zM375 605h201l-39 -157h-201zM599 605h201l-39 -157h-201zM95 381h202l-40 -157h-201zM543 381h202l-40 -157h-201zM39 157h202l-39 -157h-202zM263 157h202l-39 -157h-202zM487 157h202l-39 -157h-202z" />
    <glyph glyph-name="uni2B1B" unicode="&#x2b1b;" horiz-adv-x="1344" 
d="M374 1053h1210l-33 -135l-140 -560l-28 -112l-56 -224l-33 -134h-1210l34 134l195 784l28 112z" />
    <glyph glyph-name="uni2B1C" unicode="&#x2b1c;" horiz-adv-x="1344" 
d="M374 1053h1210l-33 -135l-140 -560l-28 -112l-56 -224l-33 -134h-1210l34 134l195 784l28 112zM517 907l-25 -101l-167 -672l-25 -100h851l25 100l167 672l26 101h-852z" />
    <glyph glyph-name="uni2B1D" unicode="&#x2b1d;" 
d="M263 605h425l-33 -135l-28 -112l-34 -134h-425l33 134l28 112z" />
    <glyph glyph-name="uni2B1E" unicode="&#x2b1e;" 
d="M263 605h425l-33 -135l-28 -112l-34 -134h-425l33 134l28 112zM406 459l-23 -89h68l22 89h-67z" />
    <glyph glyph-name="uni2B25" unicode="&#x2b25;" 
d="M375 605h201l-28 -112h112l-27 -112h112l-40 -157h-112l-27 -112h-112l-28 -112h-202l28 112h-112l28 112h-112l39 157h112l28 112h112z" />
    <glyph glyph-name="uni2B26" unicode="&#x2b26;" 
d="M375 605h201l-28 -112h112l-27 -112h112l-40 -157h-112l-27 -112h-112l-28 -112h-202l28 112h-112l28 112h-112l39 157h112l28 112h112zM406 459l-28 -112h-112l-23 -89h112l-27 -112h67l28 112h112l22 89h-112l28 112h-67z" />
    <glyph glyph-name="uni2B27" unicode="&#x2b27;" 
d="M431 829h201l-28 -112h112l-33 -135l-23 -89h112l-39 -157h-112l-22 -90l-33 -134h-112l-28 -112h-202l28 112h-112l33 134l23 90h-112l39 157h112l22 89l34 135h112z" />
    <glyph glyph-name="uni2B28" unicode="&#x2b28;" 
d="M431 829h201l-28 -112h112l-33 -135l-23 -89h112l-39 -157h-112l-22 -90l-33 -134h-112l-28 -112h-202l28 112h-112l33 134l23 90h-112l39 157h112l22 89l34 135h112zM462 683l-26 -101l-30 -123h-112l-23 -89h112l-30 -124l-25 -100h67l25 100l31 124h112l22 89h-112
l31 123l25 101h-67z" />
    <glyph glyph-name="uni2B55" unicode="&#x2b55;" horiz-adv-x="1344" 
d="M571 941h649l-28 -112h112l-28 -112h112l-33 -135l-56 -224l-28 -112l-33 -134h-112l-28 -112h-112l-28 -112h-650l28 112h-112l28 112h-112l33 134l84 336l34 135h112l28 112h112zM686 683l-28 -112h-112l-26 -101l-27 -112l-26 -100h112l-27 -112h291l28 112h112
l25 100l28 112l25 101h-112l28 112h-291z" />
    <glyph glyph-name="uni2B60" unicode="&#x2b60;" 
d="M403 717h201l-33 -135l-23 -89h224l-39 -157h-224l-22 -90l-33 -134h-202l28 112h-112l28 112h-112l39 157h112l28 112h112z" />
    <glyph glyph-name="uni2B61" unicode="&#x2b61;" 
d="M431 829h201l-28 -112h112l-28 -112h112l-39 -157h-224l-22 -90l-28 -112l-28 -112l-33 -134h-202l34 134l55 224l23 90h-224l39 157h112l28 112h112z" />
    <glyph glyph-name="uni2B62" unicode="&#x2b62;" 
d="M403 717h201l-28 -112h112l-28 -112h112l-39 -157h-112l-28 -112h-112l-27 -112h-202l33 134l23 90h-224l39 157h224l22 89z" />
    <glyph glyph-name="uni2B63" unicode="&#x2b63;" 
d="M431 829h201l-33 -135l-56 -224l-22 -89h224l-40 -157h-112l-27 -112h-112l-28 -112h-202l28 112h-112l28 112h-112l39 157h224l22 89l56 224z" />
    <glyph glyph-name="uni2B65" unicode="&#x2b65;" 
d="M431 829h201l-28 -112h112l-28 -112h112l-39 -157h-224l-16 -67h224l-40 -157h-112l-27 -112h-112l-28 -112h-202l28 112h-112l28 112h-112l39 157h224l17 67h-224l39 157h112l28 112h112z" />
    <glyph glyph-name="uni2B66" unicode="&#x2b66;" 
d="M207 829h425l-39 -157h-112l-17 -67h112l-28 -112h112l-27 -112h112l-40 -157h-201l28 112h-112l28 112h-112l28 112h-23l-28 -112h-201l33 134l28 112z" />
    <glyph glyph-name="uni2B67" unicode="&#x2b67;" 
d="M431 829h425l-33 -135l-28 -112l-34 -134h-201l28 112h-23l-28 -112h-112l-28 -112h-112l-28 -112h-201l39 157h112l28 112h112l28 112h112l17 67h-112z" />
    <glyph glyph-name="uni2B68" unicode="&#x2b68;" 
d="M151 605h201l-28 -112h112l-27 -112h112l-28 -112h22l28 112h202l-34 -135l-28 -112l-33 -134h-426l39 157h112l17 67h-112l28 112h-112l28 112h-112z" />
    <glyph glyph-name="uni2B69" unicode="&#x2b69;" 
d="M599 605h201l-39 -157h-112l-28 -112h-112l-28 -112h-112l-16 -67h112l-39 -157h-426l34 134l27 112l34 135h202l-28 -112h22l28 112h112l28 112h112z" />
    <glyph glyph-name="uni2B6E" unicode="&#x2b6e;" 
d="M179 717h425l-33 -135l-28 -112l-34 -134h-201l28 112h-23l-22 -90l-22 -89h246l22 89l28 112l34 135h201l-33 -135l-28 -112l-34 -134h-112l-27 -112h-426l28 112h-112l33 134l34 135h112l17 67h-112z" />
    <glyph glyph-name="uni2B6F" unicode="&#x2b6f;" 
d="M403 717h425l-39 -157h-112l-17 -67h112l-33 -135l-34 -134h-112l-27 -112h-426l28 112h-112l33 134l28 112l34 135h201l-33 -135l-28 -112l-22 -89h246l45 179h-23l-28 -112h-201l33 134l28 112z" />
    <glyph glyph-name="uni2B8C" unicode="&#x2b8c;" 
d="M431 829h201l-33 -135l-23 -89h112l-28 -112h112l-33 -135l-28 -112l-33 -134h-112l-28 -112h-538l39 157h448l22 89l28 112l23 90h-23l-22 -90l-34 -134h-201l28 112h-112l28 112h-112l39 157h112l28 112h112z" />
    <glyph glyph-name="uni2B8D" unicode="&#x2b8d;" 
d="M431 829h201l-28 -112h112l-28 -112h112l-39 -157h-224l-22 -90l-28 -112l-33 -134h-112l-28 -112h-202l28 112h-112l33 134l34 135h202l-34 -135l-22 -89h22l22 89l28 112l23 90h-224l39 157h112l28 112h112z" />
    <glyph glyph-name="uni2B8E" unicode="&#x2b8e;" 
d="M319 829h537l-39 -157h-448l-22 -90l-28 -112l-22 -89h22l22 89l34 135h201l-28 -112h112l-27 -112h112l-40 -157h-112l-27 -112h-112l-28 -112h-202l34 134l22 90h-112l28 112h-112l33 134l28 112l34 135h112z" />
    <glyph glyph-name="uni2B8F" unicode="&#x2b8f;" 
d="M543 829h201l-28 -112h112l-33 -135l-34 -134h-201l33 134l23 90h-23l-22 -90l-28 -112l-22 -89h224l-40 -157h-112l-27 -112h-112l-28 -112h-202l28 112h-112l28 112h-112l39 157h224l22 89l28 112l34 135h112z" />
    <glyph glyph-name="uni2B90" unicode="&#x2b90;" 
d="M543 829h201l-28 -112h112l-33 -135l-56 -224l-34 -134h-336l-16 -67h112l-39 -157h-202l28 112h-112l28 112h-112l39 157h112l28 112h112l28 112h201l-39 -157h-112l-16 -67h134l22 89l28 112l23 90h-112z" />
    <glyph glyph-name="uni2B91" unicode="&#x2b91;" 
d="M319 829h201l-39 -157h-112l-22 -90l-28 -112l-22 -89h134l17 67h-112l39 157h201l-28 -112h112l-27 -112h112l-40 -157h-112l-27 -112h-112l-28 -112h-202l39 157h112l17 67h-336l33 134l56 224l34 135h112z" />
    <glyph glyph-name="uni2B92" unicode="&#x2b92;" 
d="M207 829h313l-39 -157h-313zM543 829h313l-33 -135l-84 -336l-34 -134h-336l-16 -67h112l-39 -157h-202l28 112h-112l28 112h-112l39 157h112l28 112h112l28 112h201l-39 -157h-112l-16 -67h134l22 89l28 112l23 90h-112z" />
    <glyph glyph-name="uni2B93" unicode="&#x2b93;" 
d="M207 829h313l-39 -157h-112l-22 -90l-28 -112l-22 -89h134l17 67h-112l39 157h201l-28 -112h112l-27 -112h112l-40 -157h-112l-27 -112h-112l-28 -112h-202l39 157h112l17 67h-336l33 134l84 336zM543 829h313l-39 -157h-313z" />
    <glyph glyph-name="uni2B95" unicode="&#x2b95;" 
d="M403 717h201l-28 -112h112l-28 -112h112l-39 -157h-112l-28 -112h-112l-27 -112h-202l28 112h-224l33 134l28 112l34 135h224z" />
    <glyph glyph-name="uni2BAC" unicode="&#x2bac;" 
d="M431 829h201l-28 -112h112l-28 -112h112l-39 -157h-112l-22 -90l-28 -112l-22 -89h112l-39 -157h-426l28 112h-112l33 134l28 112l23 90h-112l39 157h112l28 112h112z" />
    <glyph glyph-name="uni2BAD" unicode="&#x2bad;" 
d="M431 829h201l-28 -112h112l-28 -112h112l-39 -157h-112l-22 -90l-28 -112l-33 -134h-112l-28 -112h-426l39 157h112l22 89l28 112l23 90h-112l39 157h112l28 112h112z" />
    <glyph glyph-name="uni2BAE" unicode="&#x2bae;" 
d="M431 829h425l-39 -157h-112l-22 -90l-28 -112l-22 -89h112l-40 -157h-112l-27 -112h-112l-28 -112h-202l28 112h-112l28 112h-112l39 157h112l22 89l28 112l34 135h112z" />
    <glyph glyph-name="uni2BAF" unicode="&#x2baf;" 
d="M207 829h425l-28 -112h112l-33 -135l-28 -112l-22 -89h112l-40 -157h-112l-27 -112h-112l-28 -112h-202l28 112h-112l28 112h-112l39 157h112l22 89l28 112l23 90h-112z" />
    <glyph glyph-name="uni2BBA" unicode="&#x2bba;" 
d="M291 717h537l-33 -135l-56 -224l-34 -134h-112l-22 -90l-33 -134h-538l34 134l55 224l34 135h112l22 89zM434 571l-23 -89h179l23 89h-179zM238 235l-22 -89h179l22 89h-179z" />
    <glyph glyph-name="uni2BBB" unicode="&#x2bbb;" 
d="M291 717h537l-33 -135l-56 -224l-34 -134h-112l-22 -90l-33 -134h-538l34 134l55 224l34 135h112l22 89zM238 235l-22 -89h179l22 89h-179z" />
    <glyph glyph-name="uni2BBC" unicode="&#x2bbc;" 
d="M291 717h537l-33 -135l-56 -224l-34 -134h-112l-22 -90l-33 -134h-538l34 134l55 224l34 135h112l22 89z" />
    <glyph glyph-name="uni2BC0" unicode="&#x2bc0;" 
d="M179 717h649l-33 -135l-56 -224l-28 -112l-33 -134h-650l33 134l84 336z" />
    <glyph glyph-name="uni2BC1" unicode="&#x2bc1;" 
d="M403 717h201l-28 -112h112l-28 -112h112l-39 -157h-112l-28 -112h-112l-27 -112h-202l28 112h-112l28 112h-112l39 157h112l28 112h112z" />
    <glyph glyph-name="uni2BC5" unicode="&#x2bc5;" 
d="M403 717h201l-33 -135l-23 -89h112l-33 -135l-22 -89h112l-39 -157h-650l39 157h112l22 89l34 135h112l22 89z" />
    <glyph glyph-name="uni2BC6" unicode="&#x2bc6;" 
d="M179 717h649l-39 -157h-112l-22 -90l-34 -134h-112l-22 -90l-33 -134h-202l33 134l23 90h-112l33 134l23 90h-112z" />
    <glyph glyph-name="uni2BC7" unicode="&#x2bc7;" 
d="M627 717h201l-33 -135l-56 -224l-28 -112l-33 -134h-202l28 112h-224l28 112h-224l39 157h224l28 112h224z" />
    <glyph glyph-name="uni2BC8" unicode="&#x2bc8;" 
d="M179 717h201l-28 -112h224l-28 -112h224l-39 -157h-224l-28 -112h-224l-27 -112h-202l33 134l84 336z" />
    <glyph glyph-name="uni2BCA" unicode="&#x2bca;" 
d="M319 829h425l-28 -112h112l-33 -135l-34 -134h-649l33 134l34 135h112z" />
    <glyph glyph-name="uni2BCB" unicode="&#x2bcb;" 
d="M95 381h650l-34 -135l-33 -134h-112l-28 -112h-426l28 112h-112l33 134z" />
    <glyph glyph-name="uni2BD1" unicode="&#x2bd1;" 
d="M431 829h201l-28 -112h112l-28 -112h112l-33 -135l-28 -112l-34 -134h-112l-27 -112h-112l-28 -112h-202l28 112h-112l28 112h-112l33 134l28 112l34 135h112l28 112h112zM462 683l-23 -89h67l23 89h-67zM546 571l-23 -89h67l23 89h-67zM406 459l-23 -89h68l22 89h-67z
M350 235l-22 -89h67l22 89h-67z" />
    <glyph glyph-name="uni2BD2" unicode="&#x2bd2;" 
d="M431 829h201l-28 -112h112l-39 -157h-112l-17 -67h224l-39 -157h-224l-16 -67h112l-39 -157h-112l-28 -112h-202l28 112h-112l39 157h112l17 67h-224l39 157h224l17 67h-112l39 157h112z" />
    <glyph glyph-name="uni2BFE" unicode="&#x2bfe;" 
d="M599 605h201l-33 -135l-28 -112l-28 -112l-28 -112l-33 -134h-650l39 157h448l22 89l56 224z" />
    <glyph glyph-name="uni2BFF" unicode="&#x2bff;" 
d="M319 829h425l-33 -135l-34 -134h-112l-17 -67h112l-39 -157h-112l-16 -67h112l-34 -135l-33 -134h-426l67 269h112l22 89l28 112l23 90h-112l33 134z" />
    <glyph glyph-name="SF100000" unicode="&#x2500;" 
d="M123 493h761l-39 -157h-761z" />
    <glyph glyph-name="uni2501" unicode="&#x2501;" 
d="M151 605h761l-33 -135l-28 -112l-34 -134h-761l33 134l28 112z" />
    <glyph glyph-name="SF110000" unicode="&#x2502;" 
d="M514 1165h202l-33 -135l-168 -672l-28 -112l-84 -336l-33 -134h-202l34 134l223 896l28 112l28 112z" />
    <glyph glyph-name="uni2503" unicode="&#x2503;" 
d="M402 1165h426l-33 -135l-168 -672l-28 -112l-84 -336l-33 -134h-426l34 134l223 896l28 112l28 112z" />
    <glyph glyph-name="uni2504" unicode="&#x2504;" 
d="M123 493h201l-39 -157h-201zM347 493h201l-39 -157h-201zM571 493h201l-39 -157h-201z" />
    <glyph glyph-name="uni2505" unicode="&#x2505;" 
d="M151 605h201l-33 -135l-28 -112l-34 -134h-201l33 134l28 112zM375 605h201l-33 -135l-28 -112l-34 -134h-201l33 134l28 112zM599 605h201l-33 -135l-28 -112l-34 -134h-201l33 134l28 112z" />
    <glyph glyph-name="uni2506" unicode="&#x2506;" 
d="M514 1165h202l-33 -135l-28 -112l-34 -134h-202l34 134l28 112zM403 717h201l-33 -135l-28 -112l-34 -134h-201l33 134l28 112zM291 269h202l-34 -135l-28 -112l-33 -134h-202l34 134l28 112z" />
    <glyph glyph-name="uni2507" unicode="&#x2507;" 
d="M402 1165h426l-33 -135l-28 -112l-34 -134h-426l34 134l28 112zM291 717h425l-33 -135l-28 -112l-34 -134h-425l33 134l28 112zM179 269h426l-34 -135l-28 -112l-33 -134h-426l34 134l28 112z" />
    <glyph glyph-name="uni250A" unicode="&#x250a;" 
d="M514 1165h202l-67 -269h-202l34 134zM431 829h201l-33 -135l-34 -134h-201l33 134zM347 493h201l-33 -135l-34 -134h-201l33 134zM263 157h202l-34 -135l-33 -134h-202z" />
    <glyph glyph-name="uni250B" unicode="&#x250b;" 
d="M402 1165h426l-67 -269h-426l34 134zM319 829h425l-33 -135l-34 -134h-425l33 134zM235 493h425l-33 -135l-34 -134h-425l33 134zM151 157h426l-34 -135l-33 -134h-426z" />
    <glyph glyph-name="SF010000" unicode="&#x250c;" 
d="M347 493h537l-39 -157h-336l-22 -90l-84 -336l-33 -134h-202l34 134l111 448z" />
    <glyph glyph-name="uni250D" unicode="&#x250d;" 
d="M375 605h537l-33 -135l-28 -112l-34 -134h-336l-22 -90l-56 -224l-33 -134h-202l34 134l139 560z" />
    <glyph glyph-name="uni250E" unicode="&#x250e;" 
d="M235 493h649l-39 -157h-224l-22 -90l-84 -336l-33 -134h-426l34 134l111 448z" />
    <glyph glyph-name="uni250F" unicode="&#x250f;" 
d="M263 605h649l-33 -135l-28 -112l-34 -134h-224l-22 -90l-56 -224l-33 -134h-426l34 134l139 560z" />
    <glyph glyph-name="SF030000" unicode="&#x2510;" 
d="M123 493h425l-33 -135l-28 -112l-84 -336l-33 -134h-202l34 134l83 336l23 90h-224z" />
    <glyph glyph-name="uni2511" unicode="&#x2511;" 
d="M151 605h425l-33 -135l-28 -112l-28 -112l-84 -336l-33 -134h-202l34 134l56 224l22 90h-224l33 134l28 112z" />
    <glyph glyph-name="uni2512" unicode="&#x2512;" 
d="M123 493h537l-33 -135l-28 -112l-84 -336l-33 -134h-426l34 134l83 336l23 90h-112z" />
    <glyph glyph-name="uni2513" unicode="&#x2513;" 
d="M151 605h537l-33 -135l-28 -112l-28 -112l-84 -336l-33 -134h-426l34 134l56 224l22 90h-112l33 134l28 112z" />
    <glyph glyph-name="SF020000" unicode="&#x2514;" 
d="M514 1165h202l-33 -135l-112 -448l-23 -89h336l-39 -157h-537l33 134l84 336l28 112l28 112z" />
    <glyph glyph-name="uni2515" unicode="&#x2515;" 
d="M514 1165h202l-33 -135l-84 -336l-23 -89h336l-33 -135l-28 -112l-34 -134h-537l33 134l112 448l28 112l28 112z" />
    <glyph glyph-name="uni2516" unicode="&#x2516;" 
d="M402 1165h426l-33 -135l-112 -448l-23 -89h224l-39 -157h-649l33 134l84 336l28 112l28 112z" />
    <glyph glyph-name="uni2517" unicode="&#x2517;" 
d="M402 1165h426l-33 -135l-84 -336l-23 -89h224l-33 -135l-28 -112l-34 -134h-649l33 134l112 448l28 112l28 112z" />
    <glyph glyph-name="SF040000" unicode="&#x2518;" 
d="M514 1165h202l-33 -135l-140 -560l-34 -134h-425l39 157h224l22 89l56 224l28 112l28 112z" />
    <glyph glyph-name="uni2519" unicode="&#x2519;" 
d="M514 1165h202l-33 -135l-168 -672l-34 -134h-425l33 134l28 112l34 135h224l22 89l28 112l28 112l28 112z" />
    <glyph glyph-name="uni251A" unicode="&#x251a;" 
d="M402 1165h426l-33 -135l-140 -560l-34 -134h-537l39 157h112l22 89l56 224l28 112l28 112z" />
    <glyph glyph-name="uni251B" unicode="&#x251b;" 
d="M402 1165h426l-33 -135l-168 -672l-34 -134h-537l33 134l28 112l34 135h112l22 89l28 112l28 112l28 112z" />
    <glyph glyph-name="SF080000" unicode="&#x251c;" 
d="M514 1165h202l-33 -135l-112 -448l-23 -89h336l-39 -157h-336l-22 -90l-84 -336l-33 -134h-202l34 134l223 896l28 112l28 112z" />
    <glyph glyph-name="uni251D" unicode="&#x251d;" 
d="M514 1165h202l-33 -135l-84 -336l-23 -89h336l-33 -135l-28 -112l-34 -134h-336l-22 -90l-56 -224l-33 -134h-202l34 134l223 896l28 112l28 112z" />
    <glyph glyph-name="uni251E" unicode="&#x251e;" 
d="M402 1165h426l-33 -135l-112 -448l-23 -89h224l-39 -157h-336l-22 -90l-84 -336l-33 -134h-202l34 134l83 336l23 90h-112l33 134l84 336l28 112l28 112z" />
    <glyph glyph-name="uni251F" unicode="&#x251f;" 
d="M514 1165h202l-33 -135l-112 -448l-23 -89h336l-39 -157h-224l-22 -90l-84 -336l-33 -134h-426l34 134l111 448l34 135h112l22 89l56 224l28 112l28 112z" />
    <glyph glyph-name="uni2520" unicode="&#x2520;" 
d="M402 1165h426l-33 -135l-112 -448l-23 -89h224l-39 -157h-224l-22 -90l-84 -336l-33 -134h-426l34 134l223 896l28 112l28 112z" />
    <glyph glyph-name="uni2521" unicode="&#x2521;" 
d="M402 1165h426l-33 -135l-84 -336l-23 -89h224l-33 -135l-28 -112l-34 -134h-336l-22 -90l-56 -224l-33 -134h-202l34 134l56 224l22 90h-112l33 134l112 448l28 112l28 112z" />
    <glyph glyph-name="uni2522" unicode="&#x2522;" 
d="M514 1165h202l-33 -135l-84 -336l-23 -89h336l-33 -135l-28 -112l-34 -134h-224l-22 -90l-56 -224l-33 -134h-426l34 134l139 560l34 135h112l22 89l28 112l28 112l28 112z" />
    <glyph glyph-name="uni2523" unicode="&#x2523;" 
d="M402 1165h426l-33 -135l-84 -336l-23 -89h224l-33 -135l-28 -112l-34 -134h-224l-22 -90l-56 -224l-33 -134h-426l34 134l223 896l28 112l28 112z" />
    <glyph glyph-name="SF090000" unicode="&#x2524;" 
d="M514 1165h202l-33 -135l-168 -672l-28 -112l-84 -336l-33 -134h-202l34 134l83 336l23 90h-224l39 157h224l22 89l56 224l28 112l28 112z" />
    <glyph glyph-name="uni2525" unicode="&#x2525;" 
d="M514 1165h202l-33 -135l-168 -672l-28 -112l-84 -336l-33 -134h-202l34 134l56 224l22 90h-224l33 134l28 112l34 135h224l22 89l28 112l28 112l28 112z" />
    <glyph glyph-name="uni2526" unicode="&#x2526;" 
d="M402 1165h426l-33 -135l-140 -560l-34 -134h-112l-22 -90l-84 -336l-33 -134h-202l34 134l83 336l23 90h-224l39 157h112l22 89l56 224l28 112l28 112z" />
    <glyph glyph-name="uni2527" unicode="&#x2527;" 
d="M514 1165h202l-33 -135l-112 -448l-23 -89h112l-33 -135l-28 -112l-84 -336l-33 -134h-426l34 134l83 336l23 90h-112l39 157h224l22 89l56 224l28 112l28 112z" />
    <glyph glyph-name="uni2528" unicode="&#x2528;" 
d="M402 1165h426l-33 -135l-168 -672l-28 -112l-84 -336l-33 -134h-426l34 134l83 336l23 90h-112l39 157h112l22 89l56 224l28 112l28 112z" />
    <glyph glyph-name="uni2529" unicode="&#x2529;" 
d="M402 1165h426l-33 -135l-168 -672l-34 -134h-112l-22 -90l-56 -224l-33 -134h-202l34 134l56 224l22 90h-224l33 134l28 112l34 135h112l22 89l28 112l28 112l28 112z" />
    <glyph glyph-name="uni252A" unicode="&#x252a;" 
d="M514 1165h202l-33 -135l-84 -336l-23 -89h112l-33 -135l-28 -112l-28 -112l-84 -336l-33 -134h-426l34 134l56 224l22 90h-112l33 134l28 112l34 135h224l22 89l28 112l28 112l28 112z" />
    <glyph glyph-name="uni252B" unicode="&#x252b;" 
d="M402 1165h426l-33 -135l-168 -672l-28 -112l-84 -336l-33 -134h-426l34 134l56 224l22 90h-112l33 134l28 112l34 135h112l22 89l28 112l28 112l28 112z" />
    <glyph glyph-name="SF060000" unicode="&#x252c;" 
d="M123 493h761l-39 -157h-336l-22 -90l-84 -336l-33 -134h-202l34 134l83 336l23 90h-224z" />
    <glyph glyph-name="uni252D" unicode="&#x252d;" 
d="M151 605h425l-28 -112h336l-39 -157h-336l-22 -90l-84 -336l-33 -134h-202l34 134l56 224l22 90h-224l33 134l28 112z" />
    <glyph glyph-name="uni252E" unicode="&#x252e;" 
d="M375 605h537l-33 -135l-28 -112l-34 -134h-336l-22 -90l-56 -224l-33 -134h-202l34 134l83 336l23 90h-224l39 157h224z" />
    <glyph glyph-name="uni252F" unicode="&#x252f;" 
d="M151 605h761l-33 -135l-28 -112l-34 -134h-336l-22 -90l-56 -224l-33 -134h-202l34 134l56 224l22 90h-224l33 134l28 112z" />
    <glyph glyph-name="uni2530" unicode="&#x2530;" 
d="M123 493h761l-39 -157h-224l-22 -90l-84 -336l-33 -134h-426l34 134l83 336l23 90h-112z" />
    <glyph glyph-name="uni2531" unicode="&#x2531;" 
d="M151 605h537l-28 -112h224l-39 -157h-224l-22 -90l-84 -336l-33 -134h-426l34 134l56 224l22 90h-112l33 134l28 112z" />
    <glyph glyph-name="uni2532" unicode="&#x2532;" 
d="M263 605h649l-33 -135l-28 -112l-34 -134h-224l-22 -90l-56 -224l-33 -134h-426l34 134l83 336l23 90h-112l39 157h112z" />
    <glyph glyph-name="uni2533" unicode="&#x2533;" 
d="M151 605h761l-33 -135l-28 -112l-34 -134h-224l-22 -90l-56 -224l-33 -134h-426l34 134l56 224l22 90h-112l33 134l28 112z" />
    <glyph glyph-name="SF070000" unicode="&#x2534;" 
d="M514 1165h202l-33 -135l-112 -448l-23 -89h336l-39 -157h-761l39 157h224l22 89l56 224l28 112l28 112z" />
    <glyph glyph-name="uni2535" unicode="&#x2535;" 
d="M514 1165h202l-33 -135l-112 -448l-23 -89h336l-39 -157h-336l-28 -112h-425l33 134l28 112l34 135h224l22 89l28 112l28 112l28 112z" />
    <glyph glyph-name="uni2536" unicode="&#x2536;" 
d="M514 1165h202l-33 -135l-84 -336l-23 -89h336l-33 -135l-28 -112l-34 -134h-537l28 112h-224l39 157h224l22 89l56 224l28 112l28 112z" />
    <glyph glyph-name="uni2537" unicode="&#x2537;" 
d="M514 1165h202l-33 -135l-84 -336l-23 -89h336l-33 -135l-28 -112l-34 -134h-761l33 134l28 112l34 135h224l22 89l28 112l28 112l28 112z" />
    <glyph glyph-name="uni2538" unicode="&#x2538;" 
d="M402 1165h426l-33 -135l-112 -448l-23 -89h224l-39 -157h-761l39 157h112l22 89l56 224l28 112l28 112z" />
    <glyph glyph-name="uni2539" unicode="&#x2539;" 
d="M402 1165h426l-33 -135l-112 -448l-23 -89h224l-39 -157h-224l-28 -112h-537l33 134l28 112l34 135h112l22 89l28 112l28 112l28 112z" />
    <glyph glyph-name="uni253A" unicode="&#x253a;" 
d="M402 1165h426l-33 -135l-84 -336l-23 -89h224l-33 -135l-28 -112l-34 -134h-649l28 112h-112l39 157h112l22 89l56 224l28 112l28 112z" />
    <glyph glyph-name="uni253B" unicode="&#x253b;" 
d="M402 1165h426l-33 -135l-84 -336l-23 -89h224l-33 -135l-28 -112l-34 -134h-761l33 134l28 112l34 135h112l22 89l28 112l28 112l28 112z" />
    <glyph glyph-name="SF050000" unicode="&#x253c;" 
d="M514 1165h202l-33 -135l-112 -448l-23 -89h336l-39 -157h-336l-22 -90l-84 -336l-33 -134h-202l34 134l83 336l23 90h-224l39 157h224l22 89l56 224l28 112l28 112z" />
    <glyph glyph-name="uni253D" unicode="&#x253d;" 
d="M514 1165h202l-33 -135l-112 -448l-23 -89h336l-39 -157h-336l-22 -90l-84 -336l-33 -134h-202l34 134l56 224l22 90h-224l33 134l28 112l34 135h224l22 89l28 112l28 112l28 112z" />
    <glyph glyph-name="uni253E" unicode="&#x253e;" 
d="M514 1165h202l-33 -135l-84 -336l-23 -89h336l-33 -135l-28 -112l-34 -134h-336l-22 -90l-56 -224l-33 -134h-202l34 134l83 336l23 90h-224l39 157h224l22 89l56 224l28 112l28 112z" />
    <glyph glyph-name="uni253F" unicode="&#x253f;" 
d="M514 1165h202l-33 -135l-84 -336l-23 -89h336l-33 -135l-28 -112l-34 -134h-336l-22 -90l-56 -224l-33 -134h-202l34 134l56 224l22 90h-224l33 134l28 112l34 135h224l22 89l28 112l28 112l28 112z" />
    <glyph glyph-name="uni2540" unicode="&#x2540;" 
d="M402 1165h426l-33 -135l-112 -448l-23 -89h224l-39 -157h-336l-22 -90l-84 -336l-33 -134h-202l34 134l83 336l23 90h-224l39 157h112l22 89l56 224l28 112l28 112z" />
    <glyph glyph-name="uni2541" unicode="&#x2541;" 
d="M514 1165h202l-33 -135l-112 -448l-23 -89h336l-39 -157h-224l-22 -90l-84 -336l-33 -134h-426l34 134l83 336l23 90h-112l39 157h224l22 89l56 224l28 112l28 112z" />
    <glyph glyph-name="uni2542" unicode="&#x2542;" 
d="M402 1165h426l-33 -135l-112 -448l-23 -89h224l-39 -157h-224l-22 -90l-84 -336l-33 -134h-426l34 134l83 336l23 90h-112l39 157h112l22 89l56 224l28 112l28 112z" />
    <glyph glyph-name="uni2543" unicode="&#x2543;" 
d="M402 1165h426l-33 -135l-112 -448l-23 -89h224l-39 -157h-224l-28 -112h-112l-22 -90l-56 -224l-33 -134h-202l34 134l56 224l22 90h-224l33 134l28 112l34 135h112l22 89l28 112l28 112l28 112z" />
    <glyph glyph-name="uni2544" unicode="&#x2544;" 
d="M402 1165h426l-33 -135l-84 -336l-23 -89h224l-33 -135l-28 -112l-34 -134h-336l-22 -90l-56 -224l-33 -134h-202l34 134l56 224l22 90h-112l28 112h-112l39 157h112l22 89l56 224l28 112l28 112z" />
    <glyph glyph-name="uni2545" unicode="&#x2545;" 
d="M514 1165h202l-33 -135l-84 -336l-23 -89h112l-28 -112h224l-39 -157h-224l-22 -90l-84 -336l-33 -134h-426l34 134l56 224l22 90h-112l33 134l28 112l34 135h224l22 89l28 112l28 112l28 112z" />
    <glyph glyph-name="uni2546" unicode="&#x2546;" 
d="M514 1165h202l-33 -135l-84 -336l-23 -89h336l-33 -135l-28 -112l-34 -134h-224l-22 -90l-56 -224l-33 -134h-426l34 134l83 336l23 90h-112l39 157h112l28 112h112l22 89l28 112l28 112l28 112z" />
    <glyph glyph-name="uni2547" unicode="&#x2547;" 
d="M402 1165h426l-33 -135l-84 -336l-23 -89h224l-33 -135l-28 -112l-34 -134h-336l-22 -90l-56 -224l-33 -134h-202l34 134l56 224l22 90h-224l33 134l28 112l34 135h112l22 89l28 112l28 112l28 112z" />
    <glyph glyph-name="uni2548" unicode="&#x2548;" 
d="M514 1165h202l-33 -135l-84 -336l-23 -89h336l-33 -135l-28 -112l-34 -134h-224l-22 -90l-56 -224l-33 -134h-426l34 134l56 224l22 90h-112l33 134l28 112l34 135h224l22 89l28 112l28 112l28 112z" />
    <glyph glyph-name="uni2549" unicode="&#x2549;" 
d="M402 1165h426l-33 -135l-112 -448l-23 -89h224l-39 -157h-224l-22 -90l-84 -336l-33 -134h-426l34 134l56 224l22 90h-112l33 134l28 112l34 135h112l22 89l28 112l28 112l28 112z" />
    <glyph glyph-name="uni254A" unicode="&#x254a;" 
d="M402 1165h426l-33 -135l-84 -336l-23 -89h224l-33 -135l-28 -112l-34 -134h-224l-22 -90l-56 -224l-33 -134h-426l34 134l83 336l23 90h-112l39 157h112l22 89l56 224l28 112l28 112z" />
    <glyph glyph-name="uni254B" unicode="&#x254b;" 
d="M402 1165h426l-33 -135l-84 -336l-23 -89h224l-33 -135l-28 -112l-34 -134h-224l-22 -90l-56 -224l-33 -134h-426l34 134l56 224l22 90h-112l33 134l28 112l34 135h112l22 89l28 112l28 112l28 112z" />
    <glyph glyph-name="uni254C" unicode="&#x254c;" 
d="M123 493h313l-39 -157h-313zM459 493h313l-39 -157h-313z" />
    <glyph glyph-name="uni254D" unicode="&#x254d;" 
d="M151 605h313l-33 -135l-28 -112l-34 -134h-313l33 134l28 112zM487 605h313l-33 -135l-28 -112l-34 -134h-313l33 134l28 112z" />
    <glyph glyph-name="uni254E" unicode="&#x254e;" 
d="M514 1165h202l-33 -135l-84 -336l-34 -134h-201l33 134l28 112l28 112l28 112zM347 493h201l-33 -135l-28 -112l-56 -224l-33 -134h-202l34 134l83 336z" />
    <glyph glyph-name="uni254F" unicode="&#x254f;" 
d="M402 1165h426l-33 -135l-56 -224l-34 -134h-425l33 134l28 112l28 112zM235 493h425l-33 -135l-28 -112l-28 -112l-33 -134h-426l34 134l55 224z" />
    <glyph glyph-name="SF430000" unicode="&#x2550;" 
d="M151 605h761l-39 -157h-761zM95 381h762l-40 -157h-761z" />
    <glyph glyph-name="SF240000" unicode="&#x2551;" 
d="M402 1165h202l-33 -135l-168 -672l-28 -112l-84 -336l-33 -134h-202l34 134l223 896l28 112l28 112zM626 1165h202l-33 -135l-168 -672l-28 -112l-84 -336l-33 -134h-202l34 134l223 896l28 112l28 112z" />
    <glyph glyph-name="SF510000" unicode="&#x2552;" 
d="M375 605h537l-39 -157h-336l-16 -67h336l-40 -157h-336l-22 -90l-56 -224l-33 -134h-202l34 134l139 560z" />
    <glyph glyph-name="SF520000" unicode="&#x2553;" 
d="M235 493h649l-39 -157h-224l-22 -90l-84 -336l-33 -134h-202l34 134l83 336l23 90h-23l-22 -90l-84 -336l-33 -134h-202l34 134l111 448z" />
    <glyph glyph-name="SF390000" unicode="&#x2554;" 
d="M263 605h649l-39 -157h-448l-22 -90l-28 -112l-84 -336l-33 -134h-202l34 134l139 560zM431 381h426l-40 -157h-224l-22 -90l-56 -224l-33 -134h-202l34 134l83 336z" />
    <glyph glyph-name="SF220000" unicode="&#x2555;" 
d="M151 605h425l-33 -135l-28 -112l-28 -112l-84 -336l-33 -134h-202l34 134l56 224l22 90h-224l39 157h224l17 67h-224z" />
    <glyph glyph-name="SF210000" unicode="&#x2556;" 
d="M123 493h537l-33 -135l-28 -112l-84 -336l-33 -134h-202l34 134l83 336l23 90h-23l-22 -90l-84 -336l-33 -134h-202l34 134l83 336l23 90h-112z" />
    <glyph glyph-name="SF250000" unicode="&#x2557;" 
d="M151 605h537l-33 -135l-28 -112l-28 -112l-84 -336l-33 -134h-202l34 134l111 448l23 90h-336zM95 381h314l-34 -135l-84 -336l-33 -134h-202l34 134l56 224l22 90h-112z" />
    <glyph glyph-name="SF500000" unicode="&#x2558;" 
d="M514 1165h202l-33 -135l-84 -336l-23 -89h336l-39 -157h-336l-16 -67h336l-40 -157h-537l33 134l112 448l28 112l28 112z" />
    <glyph glyph-name="SF490000" unicode="&#x2559;" 
d="M402 1165h202l-33 -135l-112 -448l-23 -89h23l22 89l56 224l28 112l28 112l33 135h202l-33 -135l-112 -448l-23 -89h224l-39 -157h-649l33 134l84 336l28 112l28 112z" />
    <glyph glyph-name="SF380000" unicode="&#x255a;" 
d="M402 1165h202l-33 -135l-140 -560l-22 -89h448l-40 -157h-649l33 134l112 448l28 112l28 112zM626 1165h202l-33 -135l-84 -336l-23 -89h224l-39 -157h-425l33 134l56 224l28 112l28 112z" />
    <glyph glyph-name="SF280000" unicode="&#x255b;" 
d="M514 1165h202l-33 -135l-168 -672l-34 -134h-425l39 157h224l17 67h-224l39 157h224l22 89l28 112l28 112l28 112z" />
    <glyph glyph-name="SF270000" unicode="&#x255c;" 
d="M402 1165h202l-33 -135l-112 -448l-23 -89h23l22 89l56 224l28 112l28 112l33 135h202l-33 -135l-140 -560l-34 -134h-537l39 157h112l22 89l56 224l28 112l28 112z" />
    <glyph glyph-name="SF260000" unicode="&#x255d;" 
d="M402 1165h202l-33 -135l-112 -448l-34 -134h-313l39 157h112l22 89l28 112l28 112l28 112zM626 1165h202l-33 -135l-168 -672l-34 -134h-537l39 157h336l22 89l84 336l28 112l28 112z" />
    <glyph glyph-name="SF360000" unicode="&#x255e;" 
d="M514 1165h202l-33 -135l-84 -336l-23 -89h336l-39 -157h-336l-16 -67h336l-40 -157h-336l-22 -90l-56 -224l-33 -134h-202l34 134l223 896l28 112l28 112z" />
    <glyph glyph-name="SF370000" unicode="&#x255f;" 
d="M402 1165h202l-33 -135l-168 -672l-28 -112l-84 -336l-33 -134h-202l34 134l223 896l28 112l28 112zM626 1165h202l-33 -135l-112 -448l-23 -89h224l-39 -157h-224l-22 -90l-84 -336l-33 -134h-202l34 134l223 896l28 112l28 112z" />
    <glyph glyph-name="SF420000" unicode="&#x2560;" 
d="M402 1165h202l-33 -135l-168 -672l-28 -112l-84 -336l-33 -134h-202l34 134l223 896l28 112l28 112zM626 1165h202l-33 -135l-84 -336l-23 -89h224l-39 -157h-425l33 134l56 224l28 112l28 112zM431 381h426l-40 -157h-224l-22 -90l-56 -224l-33 -134h-202l34 134l83 336
z" />
    <glyph glyph-name="SF190000" unicode="&#x2561;" 
d="M514 1165h202l-33 -135l-168 -672l-28 -112l-84 -336l-33 -134h-202l34 134l56 224l22 90h-224l39 157h224l17 67h-224l39 157h224l22 89l28 112l28 112l28 112z" />
    <glyph glyph-name="SF200000" unicode="&#x2562;" 
d="M402 1165h202l-33 -135l-168 -672l-28 -112l-84 -336l-33 -134h-202l34 134l83 336l23 90h-112l39 157h112l22 89l56 224l28 112l28 112zM626 1165h202l-33 -135l-168 -672l-28 -112l-84 -336l-33 -134h-202l34 134l223 896l28 112l28 112z" />
    </font>
</defs>
</svg>
