<?xml version="1.0" standalone="no"?>
<!DOCTYPE svg PUBLIC "-//W3C//DTD SVG 1.1//EN" "http://www.w3.org/Graphics/SVG/1.1/DTD/svg11.dtd" >
<svg xmlns="http://www.w3.org/2000/svg" xmlns:xlink="http://www.w3.org/1999/xlink" version="1.1">
<metadata>
Created by FontForge 20170924 at Tue May  1 14:24:30 2012
 By Glenn,,,
Copyright 2002, 2003, 2005, 2008, 2009, 2010, 2012 GNU Freefont contributors.
</metadata>
<defs>
<font id="FreeSans" horiz-adv-x="0" >
  <font-face 
    font-family="FreeSans"
    font-weight="400"
    font-stretch="normal"
    units-per-em="1000"
    panose-1="2 11 5 4 2 2 2 2 2 4"
    ascent="800"
    descent="-200"
    x-height="524"
    cap-height="729"
    bbox="-1166 -638 2260 1050"
    underline-thickness="50"
    underline-position="-201"
    unicode-range="U+0020-1091F"
  />
<missing-glyph horiz-adv-x="800" 
d="M619 520q0 -46 -18.5 -83t-44.5 -61.5t-52.5 -47t-45 -51t-18.5 -60.5v-47h-90v55q0 37 18.5 70t45 57t52.5 48t44.5 54.5t18.5 65.5q0 51 -35 82.5t-93 31.5q-73 0 -101 -41t-28 -115h-85q0 115 55.5 174.5t163.5 59.5q97 0 155 -52t58 -140zM440 75v-104h-90v104h90z
M35 -139v939h730v-939h-730zM118 -69h564v799h-564v-799z" />
    <glyph glyph-name="IJ" unicode="IJ" horiz-adv-x="759" 
d="M469 55q64 0 88 42t24 119v513h93v-547q0 -95 -55.5 -150t-150.5 -55q-94 0 -148.5 52t-54.5 141v64h95v-47q0 -64 28 -98t81 -34zM194 729v-729h-94v729h94z" />
    <glyph glyph-name="ij" unicode="ij" horiz-adv-x="384" 
d="M250 524h83v-633q0 -109 -143 -109q-13 0 -28 3v71q12 -2 23 -2q36 0 50.5 15.5t14.5 54.5v600zM333 729v-105h-83v105h83zM150 524v-524h-83v524h83zM150 729v-105h-84v105h84z" />
    <glyph glyph-name="Ldot" unicode="L&#xb7;" horiz-adv-x="563" 
d="M527 331v-104h-104v104h104zM173 729v-647h360v-82h-453v729h93z" />
    <glyph glyph-name="ldot" unicode="l&#xb7;" horiz-adv-x="360" 
d="M335 331v-104h-104v104h104zM144 729v-729h-84v729h84z" />
    <glyph glyph-name="ff" unicode="ff" horiz-adv-x="495" 
d="M475 524v-68h-87v-456h-83v456h-134v-456h-83v456h-70v68h70v89q0 56 32.5 87.5t90.5 31.5q23 0 47 -5v-69q-19 1 -29 1q-58 0 -58 -53v-82h134v89q0 56 32.5 87.5t90.5 31.5q23 0 47 -5v-69q-19 1 -29 1q-58 0 -58 -53v-82h87z" />
    <glyph glyph-name="fi" unicode="fi" horiz-adv-x="460" 
d="M388 524v-524h-83v456h-140v-456h-83v456h-70v68h70v89q0 56 32.5 87.5t90.5 31.5h179v-102h-69q-3 8 -40.5 18.5t-51.5 10.5q-58 0 -58 -53v-82h140h8h75z" />
    <glyph glyph-name="fl" unicode="fl" horiz-adv-x="465" 
d="M395 729v-729h-83v456h-141v-456h-83v456h-70v68h70v89q0 56 32.5 87.5t90.5 31.5q77 0 101 -5v2h83zM312 658q-19 1 -83 1q-58 0 -58 -53v-82h141v134z" />
    <glyph glyph-name="ffi" unicode="ffi" horiz-adv-x="652" 
d="M580 729v-105h-83v34q-22 1 -64 1q-58 0 -58 -53v-82h205v-524h-83v456h-122v-456h-83v456h-121v-456h-83v456h-70v68h70v89q0 56 32.5 87.5t90.5 31.5q23 0 47 -5v-69q-19 1 -29 1q-58 0 -58 -53v-82h121v89q0 56 32.5 87.5t90.5 31.5q10 0 49.5 -1.5t40.5 -1.5h75z" />
    <glyph glyph-name="ffl" unicode="ffl" horiz-adv-x="645" 
d="M575 729v-729h-83v456h-117v-456h-83v456h-121v-456h-83v456h-70v68h70v89q0 56 32.5 87.5t90.5 31.5q23 0 47 -5v-69q-19 1 -29 1q-58 0 -58 -53v-82h121v89q0 56 32.5 87.5t90.5 31.5q5 0 28 -1.5t49 -1.5h83zM492 524v134q-41 1 -59 1q-58 0 -58 -53v-82h117z" />
    <glyph glyph-name="cyrillic_ukrainian_yi_yi_lig" unicode="&#x457;&#x457;" horiz-adv-x="526" 
d="M162 524v-524h-83v524h83zM443 524v-524h-83v524h83zM104 708v-104h-104v104h104zM525 708v-104h-104v104h104zM243 708v-104h-104v104h104zM387 708v-104h-104v104h104z" />
    <glyph glyph-name="dapostrophe" unicode="d&#x313;" horiz-adv-x="674" 
d="M561 741h88v-73q0 -43 -23.5 -66.5t-64.5 -23.5v42q25 0 35 10.5t10 36.5h-45v74zM499 729v-729h-74v69q-34 -49 -73.5 -70.5t-93.5 -21.5q-106 0 -167 76.5t-61 209.5q0 125 61.5 200.5t163.5 75.5q108 0 161 -81v271h83zM269 461q-68 0 -110 -56t-42 -147
q0 -92 42 -147.5t111 -55.5q66 0 106 55t40 146q0 94 -40 149.5t-107 55.5z" />
    <glyph glyph-name="lapostrophe" unicode="l&#x313;" horiz-adv-x="329" 
d="M216 741h88v-73q0 -43 -23.5 -66.5t-64.5 -23.5v42q25 0 35 10.5t10 36.5h-45v74zM144 729v-729h-84v729h84z" />
    <glyph glyph-name="tapostrophe" unicode="t&#x313;" horiz-adv-x="393" 
d="M280 741h88v-73q0 -43 -23.5 -66.5t-64.5 -23.5v42q25 0 35 10.5t10 36.5h-45v74zM260 524v-68h-86v-359q0 -28 9.5 -37.5t36.5 -9.5q25 0 40 4v-70q-39 -7 -68 -7q-49 0 -75 21.5t-26 61.5v396h-71v68h71v144h83v-144h86z" />
    <glyph glyph-name=".notdef" horiz-adv-x="800" 
d="M619 520q0 -46 -18.5 -83t-44.5 -61.5t-52.5 -47t-45 -51t-18.5 -60.5v-47h-90v55q0 37 18.5 70t45 57t52.5 48t44.5 54.5t18.5 65.5q0 51 -35 82.5t-93 31.5q-73 0 -101 -41t-28 -115h-85q0 115 55.5 174.5t163.5 59.5q97 0 155 -52t58 -140zM440 75v-104h-90v104h90z
M35 -139v939h730v-939h-730zM118 -69h564v799h-564v-799z" />
    <glyph glyph-name=".null" 
 />
    <glyph glyph-name="nonmarkingreturn" horiz-adv-x="600" 
 />
    <glyph glyph-name="space" unicode=" " horiz-adv-x="250" 
 />
    <glyph glyph-name="exclam" unicode="!" horiz-adv-x="333" 
d="M208 729v-338l-22 -223h-39l-22 223v338h83zM208 104v-104h-84v104h84z" />
    <glyph glyph-name="quotedbl" unicode="&#x22;" horiz-adv-x="333" 
d="M40 709h93v-111l-27 -134h-39l-27 134v111zM200 709h93v-111l-27 -134h-39l-27 134v111z" />
    <glyph glyph-name="numbersign" unicode="#" horiz-adv-x="556" 
d="M485 697l-36 -196h93v-68h-106l-31 -174h105v-68h-117l-39 -211h-76l38 211h-124l-39 -211h-76l38 211h-101v68h114l31 174h-108v68h121l36 196h76l-36 -196h125l35 196h77zM360 433h-124l-32 -174h125z" />
    <glyph glyph-name="dollar" unicode="$" horiz-adv-x="556" 
d="M518 195q0 -96 -55.5 -153.5t-160.5 -64.5v-103h-59v103q-210 14 -210 231h79q2 -20 2.5 -26.5t3.5 -25t6.5 -26t10 -22.5t15.5 -22.5t22 -16.5t31 -14.5t40 -8.5v272q-104 31 -150.5 70.5t-46.5 127.5q0 85 50.5 136.5t146.5 63.5v54h59v-54q91 -7 142.5 -59.5
t51.5 -137.5h-79q-1 55 -33 90t-82 37v-249q4 -1 30 -8t40 -12t39.5 -16t41 -24.5t32.5 -33t25 -47.5t8 -61zM243 405v240q-56 -8 -86 -39t-30 -80q0 -90 116 -121zM302 46q67 8 100.5 45t33.5 92q0 49 -28.5 76t-105.5 50v-263z" />
    <glyph glyph-name="percent" unicode="%" horiz-adv-x="889" 
d="M199 685q72 0 121.5 -50t49.5 -123q0 -69 -50 -119t-120 -50t-120.5 50.5t-50.5 120.5t50 120.5t120 50.5zM199 615q-41 0 -71 -29.5t-30 -71.5q0 -41 30 -71t72 -30q41 0 71 29.5t30 70.5q0 43 -29.5 72.5t-72.5 29.5zM609 709h66l-395 -729h-66zM688 322
q72 0 121.5 -50t49.5 -122q0 -69 -50.5 -119t-119.5 -50q-71 0 -121 50.5t-50 120.5t50 120t120 50zM688 252q-41 0 -71 -29.5t-30 -70.5q0 -42 30 -71.5t72 -29.5q41 0 71 29.5t30 69.5q0 43 -29.5 72.5t-72.5 29.5z" />
    <glyph glyph-name="ampersand" unicode="&#x26;" horiz-adv-x="667" 
d="M466 78q-50 -49 -82 -67q-59 -34 -127 -34q-92 0 -148.5 54.5t-56.5 144.5q0 68 34.5 113.5t127.5 99.5q-47 59 -64 93.5t-17 69.5q0 66 50 111.5t121 45.5t117 -44t46 -113q0 -54 -30 -92t-108 -82l133 -163q31 55 31 115v4h80q0 -94 -58 -183l122 -151h-109zM285 431
q59 37 81 63t22 60q0 37 -24.5 61t-62.5 24q-39 0 -62.5 -23.5t-23.5 -62.5q0 -27 12.5 -48.5t57.5 -73.5zM418 137l-160 200q-68 -43 -95 -77.5t-27 -76.5q0 -53 38.5 -90.5t92.5 -37.5q73 0 151 82z" />
    <glyph glyph-name="quotesingle" unicode="'" horiz-adv-x="200" 
d="M53 709h94v-111l-27 -134h-40l-27 134v111z" />
    <glyph glyph-name="parenleft" unicode="(" horiz-adv-x="333" 
d="M236 729h55q-137 -221 -137 -470q0 -248 137 -471h-55q-75 98 -119 225.5t-44 245.5t44 245t119 225z" />
    <glyph glyph-name="parenright" unicode=")" horiz-adv-x="333" 
d="M93 -212h-55q137 221 137 470q0 248 -137 471h55q75 -98 119 -225.5t44 -245.5t-44 -245t-119 -225z" />
    <glyph glyph-name="asterisk" unicode="*" horiz-adv-x="389" 
d="M160 729h63l-5 -112l106 38l19 -59l-108 -30l70 -89l-51 -36l-62 93l-63 -93l-50 36l69 89l-108 30l19 59l106 -38z" />
    <glyph glyph-name="plus" unicode="+" horiz-adv-x="584" 
d="M534 267v-70h-207v-207h-70v207h-207v70h207v207h70v-207h207z" />
    <glyph glyph-name="comma" unicode="," horiz-adv-x="278" 
d="M87 104h105v-120q0 -131 -105 -131v38q29 2 41 21t12 70v18h-53v104z" />
    <glyph glyph-name="hyphen" unicode="-" horiz-adv-x="333" 
d="M287 312v-72h-241v72h241z" />
    <glyph glyph-name="period" unicode="." horiz-adv-x="250" 
d="M184 104v-104h-104v104h104z" />
    <glyph glyph-name="slash" unicode="/" horiz-adv-x="278" 
d="M229 729h55l-237 -749h-55z" />
    <glyph glyph-name="zero" unicode="0" horiz-adv-x="556" 
d="M43 343q0 89 15 157t38 106.5t55 62.5t61.5 32t62.5 8q232 0 232 -372q0 -175 -59.5 -267.5t-172.5 -92.5q-114 0 -173 93.5t-59 272.5zM275 631q-142 0 -142 -289q0 -292 140 -292q74 0 109 72t35 223q0 286 -142 286z" />
    <glyph glyph-name="one" unicode="1" horiz-adv-x="556" 
d="M259 505h-157v63q102 13 133 36t54 105h58v-709h-88v505z" />
    <glyph glyph-name="two" unicode="2" horiz-adv-x="556" 
d="M50 463q7 246 234 246q101 0 164 -58t63 -150q0 -132 -150 -214l-100 -54q-65 -35 -93 -68t-35 -78h373v-87h-472q6 117 47 180.5t152 126.5l92 52q96 55 96 140q0 57 -40 95t-100 38q-133 0 -143 -169h-88z" />
    <glyph glyph-name="three" unicode="3" horiz-adv-x="556" 
d="M270 632q-76 0 -104.5 -41.5t-30.5 -110.5h-88q5 229 222 229q101 0 158.5 -52t57.5 -143q0 -108 -99 -147q64 -22 92 -61.5t28 -107.5q0 -101 -65.5 -161t-174.5 -60q-218 0 -234 229h88q5 -77 41 -114t108 -37q69 0 108 37.5t39 104.5q0 129 -147 129l-37 -1h-11v75
q95 2 134.5 24t39.5 87q0 56 -33.5 88.5t-91.5 32.5z" />
    <glyph glyph-name="four" unicode="4" horiz-adv-x="556" 
d="M327 170h-299v93l322 446h65v-460h105v-79h-105v-170h-88v170zM327 249v310l-222 -310h222z" />
    <glyph glyph-name="five" unicode="5" horiz-adv-x="556" 
d="M476 709v-87h-295l-28 -198q59 43 131 43q102 0 165.5 -65.5t63.5 -170.5q0 -112 -68 -183t-175 -71q-41 0 -75.5 9t-57 21.5t-41 33t-28 36t-18 39t-10.5 32.5t-5 26h88q31 -119 145 -119q72 0 113.5 44t41.5 120q0 79 -42 124.5t-113 45.5q-41 0 -70 -14.5t-60 -51.5
h-81l53 386h366z" />
    <glyph glyph-name="six" unicode="6" horiz-adv-x="556" 
d="M43 323q0 94 17 165.5t42.5 112.5t61 66.5t67 33.5t66.5 8q81 0 134.5 -49t66.5 -136h-88q-11 51 -42 79t-77 28q-76 0 -116.5 -69.5t-41.5 -199.5q58 79 163 79q95 0 156 -63t61 -162q0 -104 -65.5 -171.5t-166.5 -67.5q-238 0 -238 346zM285 363q-65 0 -106 -41.5
t-41 -107.5q0 -68 41 -113.5t103 -45.5q61 0 101 43.5t40 110.5q0 71 -37 112.5t-101 41.5z" />
    <glyph glyph-name="seven" unicode="7" horiz-adv-x="556" 
d="M520 709v-74q-120 -160 -189.5 -312.5t-98.5 -322.5h-94q40 175 102 308t189 314h-383v87h474z" />
    <glyph glyph-name="eight" unicode="8" horiz-adv-x="556" 
d="M391 373q122 -58 122 -177q0 -97 -66.5 -158t-171.5 -61t-171.5 61.5t-66.5 158.5q0 118 121 176q-54 34 -75 66t-21 81q0 83 59.5 136t153.5 53t153.5 -53t59.5 -136q0 -50 -21 -82t-76 -65zM275 631q-56 0 -89.5 -30.5t-33.5 -81.5q0 -50 33.5 -80.5t89.5 -30.5
q55 0 89 30t34 80q0 52 -33.5 82.5t-89.5 30.5zM275 334q-66 0 -107 -38.5t-41 -100.5t40.5 -101t105.5 -39q67 0 108.5 38.5t41.5 101.5q0 62 -41 100.5t-107 38.5z" />
    <glyph glyph-name="nine" unicode="9" horiz-adv-x="556" 
d="M509 363q0 -94 -17 -165.5t-42.5 -112.5t-61 -66.5t-67.5 -33.5t-67 -8q-81 0 -134.5 49t-66.5 136h88q11 -51 42 -79t77 -28q76 0 116.5 69.5t41.5 199.5q-66 -79 -162 -79t-157 63t-61 162q0 104 65.5 171.5t166.5 67.5q239 0 239 -346zM269 632q-61 0 -101 -44
t-40 -111q0 -71 37 -112.5t101 -41.5t105.5 42t41.5 107q0 69 -41 114.5t-103 45.5z" />
    <glyph glyph-name="colon" unicode=":" horiz-adv-x="250" 
d="M184 104v-104h-104v104h104zM184 524v-104h-104v104h104z" />
    <glyph glyph-name="semicolon" unicode=";" horiz-adv-x="250" 
d="M185 524v-104h-104v104h104zM80 104h105v-120q0 -131 -105 -131v38q29 2 41 21t12 70v18h-53v104z" />
    <glyph glyph-name="less" unicode="&#x3c;" horiz-adv-x="584" 
d="M45 198v69l489 207v-79l-394 -161l394 -164v-79z" />
    <glyph glyph-name="equal" unicode="=" horiz-adv-x="584" 
d="M534 353v-70h-484v70h484zM534 181v-70h-484v70h484z" />
    <glyph glyph-name="greater" unicode="&#x3e;" horiz-adv-x="584" 
d="M539 267v-69l-489 -207v79l394 161l-394 164v79z" />
    <glyph glyph-name="question" unicode="?" horiz-adv-x="556" 
d="M509 549q0 -46 -18.5 -83t-44.5 -61.5t-52.5 -47t-45 -51t-18.5 -60.5v-47h-90v55q0 37 18.5 70t45 57t52.5 48t44.5 54.5t18.5 65.5q0 51 -35 82.5t-93 31.5q-73 0 -101 -41t-28 -115h-85q0 115 55.5 174.5t163.5 59.5q97 0 155 -52t58 -140zM330 104v-104h-90v104h90z
" />
    <glyph glyph-name="at" unicode="@" horiz-adv-x="1015" 
d="M665 501h83l-90 -280q-12 -35 -12 -50q0 -18 15 -31t35 -13q64 0 116 71t52 159q0 125 -104.5 216t-247.5 91q-158 0 -275.5 -117t-117.5 -274q0 -143 108 -240.5t267 -97.5q79 0 193 32l28 -67q-112 -42 -226 -42q-124 0 -229 53.5t-165.5 145.5t-60.5 201
q0 128 66.5 239.5t180 177.5t244.5 66q175 0 300.5 -110t125.5 -262q0 -122 -73 -217t-199 -95q-96 0 -110 77q-66 -72 -142 -72q-70 0 -116.5 52.5t-46.5 130.5q0 109 78 193t179 84q84 0 122 -87zM453 126q65 0 110.5 83t45.5 159q0 38 -27 64t-67 26q-63 0 -112 -65
t-49 -149q0 -49 29 -83.5t70 -34.5z" />
    <glyph glyph-name="A" unicode="A" horiz-adv-x="666" 
d="M472 219h-281l-77 -219h-99l260 729h120l256 -729h-104zM446 297l-112 332l-120 -332h232z" />
    <glyph glyph-name="B" unicode="B" horiz-adv-x="664" 
d="M624 208q0 -94 -59 -151t-156 -57h-329v729h296q61 0 106 -18t67.5 -47.5t32.5 -59t10 -60.5q0 -112 -101 -159q70 -27 101.5 -69t31.5 -108zM499 531q0 116 -146 116h-180v-232h180q146 0 146 116zM400 82q49 0 80 21.5t41 47.5t10 56q0 57 -34 91.5t-97 34.5h-227v-251
h227z" />
    <glyph glyph-name="C" unicode="C" horiz-adv-x="709" 
d="M40 356q0 50 8.5 99t32.5 102t59.5 92.5t96 65.5t136.5 26q238 0 281 -238h-95q-16 78 -63 117t-134 39q-106 0 -167.5 -81t-61.5 -221q0 -137 64 -217.5t173 -80.5q90 0 138 50.5t65 156.5h96q-33 -289 -300 -289q-75 0 -134.5 25.5t-95 64.5t-59 91.5t-32 100.5
t-8.5 97z" />
    <glyph glyph-name="D" unicode="D" horiz-adv-x="698" 
d="M80 0v729h281q139 0 218 -97t79 -267t-79.5 -267.5t-217.5 -97.5h-281zM173 82h172q108 0 164 72t56 210q0 139 -56 211t-164 72h-172v-565z" />
    <glyph glyph-name="E" unicode="E" horiz-adv-x="633" 
d="M173 332v-250h430v-82h-523v729h505v-82h-412v-233h397v-82h-397z" />
    <glyph glyph-name="F" unicode="F" horiz-adv-x="599" 
d="M173 332v-332h-93v729h489v-82h-396v-233h348v-82h-348z" />
    <glyph glyph-name="G" unicode="G" horiz-adv-x="765" 
d="M133 362q0 -38 7 -76.5t25 -80.5t46.5 -73.5t75.5 -52t107 -20.5q100 0 164.5 63t64.5 161v20h-222v82h304v-389h-59l-23 97q-104 -116 -249 -116q-148 0 -241 106t-93 274q0 48 9 96.5t34 101.5t62.5 93t101 66.5t143.5 26.5q125 0 205.5 -61t99.5 -172h-95
q-15 70 -71.5 110.5t-139.5 40.5q-116 0 -186 -81.5t-70 -215.5z" />
    <glyph glyph-name="H" unicode="H" horiz-adv-x="721" 
d="M548 332h-375v-332h-93v729h93v-315h375v315h93v-729h-93v332z" />
    <glyph glyph-name="I" unicode="I" horiz-adv-x="278" 
d="M194 729v-729h-94v729h94z" />
    <glyph glyph-name="J" unicode="J" horiz-adv-x="528" 
d="M239 55q64 0 88 42t24 119v513h93v-547q0 -95 -55.5 -150t-150.5 -55q-94 0 -148.5 52t-54.5 141v64h95v-47q0 -64 28 -98t81 -34z" />
    <glyph glyph-name="K" unicode="K" horiz-adv-x="674" 
d="M173 255v-255h-93v729h93v-369l363 369h120l-297 -297l300 -432h-110l-257 374z" />
    <glyph glyph-name="L" unicode="L" horiz-adv-x="563" 
d="M173 729v-647h360v-82h-453v729h93z" />
    <glyph glyph-name="M" unicode="M" horiz-adv-x="846" 
d="M473 0h-98l-207 611v-611h-88v729h129l216 -635l212 635h129v-729h-88v611z" />
    <glyph glyph-name="N" unicode="N" horiz-adv-x="730" 
d="M650 729v-729h-105l-377 591v-591h-88v729h101l381 -596v596h88z" />
    <glyph glyph-name="O" unicode="O" horiz-adv-x="784" 
d="M744 353q0 -162 -96 -269t-256 -107q-158 0 -255 105.5t-97 276.5t97 276.5t254 105.5q160 0 256.5 -106t96.5 -282zM391 659q-116 0 -187 -82.5t-71 -217.5t71.5 -217.5t187.5 -82.5t187.5 82t71.5 214q0 138 -71 221t-189 83z" />
    <glyph glyph-name="P" unicode="P" horiz-adv-x="656" 
d="M606 515q0 -93 -56.5 -149.5t-147.5 -56.5h-229v-309h-93v729h301q108 0 166.5 -55.5t58.5 -158.5zM173 391h194q67 0 104.5 34t37.5 94t-37.5 94t-104.5 34h-194v-256z" />
    <glyph glyph-name="Q" unicode="Q" horiz-adv-x="784" 
d="M735 -1l-47 -58l-105 87q-86 -51 -191 -51q-158 0 -255 105.5t-97 276.5t97 276.5t255 105.5q157 0 254.5 -105t97.5 -275q0 -172 -103 -285zM483 205l89 -73q79 89 79 228q0 134 -71.5 216.5t-187.5 82.5t-187.5 -82.5t-71.5 -217.5t71 -217.5t187 -82.5q60 0 120 28
l-74 62z" />
    <glyph glyph-name="R" unicode="R" horiz-adv-x="709" 
d="M523 360q32 -14 53.5 -33t31 -43t12.5 -45t3 -50q0 -9 -0.5 -26t-0.5 -25q0 -41 9 -69t35 -46v-23h-113q-20 46 -20 119v65q0 67 -29 98.5t-91 31.5h-240v-314h-93v729h336q107 0 164.5 -50.5t57.5 -144.5q0 -62 -27 -103t-88 -71zM541 521q0 72 -38 99t-105 27h-225
v-251h225q74 0 108.5 30t34.5 95z" />
    <glyph glyph-name="S" unicode="S" horiz-adv-x="667" 
d="M342 59q56 0 95 13t57.5 34t26 41.5t7.5 43.5q0 83 -134 118l-181 48q-143 37 -143 170q0 99 69.5 156.5t189.5 57.5q126 0 196 -59.5t71 -166.5h-88q-1 71 -48 109.5t-134 38.5q-74 0 -118.5 -34t-44.5 -89q0 -42 27 -66t93 -42l183 -49q74 -20 114.5 -68t40.5 -115
q0 -29 -7.5 -57.5t-27.5 -59t-51 -53.5t-82.5 -38t-116.5 -15q-41 0 -78.5 6.5t-76.5 24t-67 45t-46.5 73.5t-19.5 106h88v-5q0 -31 9.5 -58t31 -53t64 -41.5t101.5 -15.5z" />
    <glyph glyph-name="T" unicode="T" horiz-adv-x="632" 
d="M363 647v-647h-93v647h-240v82h572v-82h-239z" />
    <glyph glyph-name="U" unicode="U" horiz-adv-x="720" 
d="M547 729h93v-512q0 -110 -76.5 -175t-204.5 -65q-130 0 -204.5 64.5t-74.5 175.5v512h93v-512q0 -79 50.5 -118.5t135.5 -39.5q88 0 138 42t50 116v512z" />
    <glyph glyph-name="V" unicode="V" horiz-adv-x="645" 
d="M377 0h-100l-262 729h100l214 -617l202 617h99z" />
    <glyph glyph-name="W" unicode="W" horiz-adv-x="937" 
d="M737 0h-102l-168 599l-163 -599h-102l-187 729h104l137 -592l162 592h100l166 -592l134 592h104z" />
    <glyph glyph-name="X" unicode="X" horiz-adv-x="657" 
d="M384 374l258 -374h-115l-199 304l-200 -304h-113l258 374l-242 355h113l187 -286l188 286h111z" />
    <glyph glyph-name="Y" unicode="Y" horiz-adv-x="678" 
d="M389 286v-286h-93v286l-281 443h115l214 -355l208 355h111z" />
    <glyph glyph-name="Z" unicode="Z" horiz-adv-x="615" 
d="M583 729v-84l-436 -563h438v-82h-555v82l438 565h-410v82h525z" />
    <glyph glyph-name="bracketleft" unicode="[" horiz-adv-x="278" 
d="M250 729v-72h-103v-797h103v-72h-186v941h186z" />
    <glyph glyph-name="backslash" unicode="\" horiz-adv-x="278" 
d="M47 729l237 -749h-55l-237 749h55z" />
    <glyph glyph-name="bracketright" unicode="]" horiz-adv-x="277" 
d="M22 -212v72h103v797h-103v72h186v-941h-186z" />
    <glyph glyph-name="asciicircum" unicode="^" horiz-adv-x="469" 
d="M197 709h73l155 -380h-69l-122 300l-121 -300h-69z" />
    <glyph glyph-name="underscore" unicode="_" horiz-adv-x="556" 
d="M578 -126v-50h-600v50h600z" />
    <glyph glyph-name="grave" unicode="`" horiz-adv-x="250" 
d="M135 740l96 -148h-60l-149 148h113z" />
    <glyph glyph-name="a" unicode="a" horiz-adv-x="543" 
d="M53 369q6 170 210 170q97 0 147 -36.5t50 -106.5v-308q0 -41 45 -41q9 0 18 2v-63q-35 -9 -57 -9q-40 0 -60.5 18.5t-25.5 58.5q-84 -77 -178 -77q-79 0 -125.5 42t-46.5 113q0 23 4.5 42t10 33.5t19.5 27t23.5 20.5t32 15.5t34.5 11t42 8.5t44 7t50 7q49 6 68 19t19 39
v22q0 38 -30.5 58t-86.5 20q-58 0 -88 -22.5t-35 -70.5h-84zM220 50q69 0 113 36.5t44 78.5v94q-25 -12 -75.5 -20t-87.5 -14t-67 -28.5t-30 -62.5t27 -62t76 -22z" />
    <glyph glyph-name="b" unicode="b" horiz-adv-x="559" 
d="M60 729h83v-276q57 86 162 86q104 0 164 -74t60 -201q0 -130 -62 -208.5t-166 -78.5q-107 0 -166 90v-67h-75v729zM289 461q-66 0 -106 -55.5t-40 -147.5t40 -147.5t106 -55.5q68 0 110.5 55.5t42.5 144.5q0 94 -41.5 150t-111.5 56z" />
    <glyph glyph-name="c" unicode="c" horiz-adv-x="506" 
d="M470 348h-84q-8 55 -40 84.5t-84 29.5q-68 0 -106.5 -55.5t-38.5 -153.5q0 -93 39 -146t108 -53q107 0 128 126h84q-8 -96 -64 -149.5t-150 -53.5q-107 0 -169.5 74.5t-62.5 201.5q0 130 63.5 208t169.5 78q91 0 145.5 -49t61.5 -142z" />
    <glyph glyph-name="d" unicode="d" horiz-adv-x="559" 
d="M499 729v-729h-74v69q-34 -49 -73.5 -70.5t-93.5 -21.5q-106 0 -167 76.5t-61 209.5q0 125 61.5 200.5t163.5 75.5q108 0 161 -81v271h83zM269 461q-68 0 -110 -56t-42 -147q0 -92 42 -147.5t111 -55.5q66 0 106 55t40 146q0 94 -40 149.5t-107 55.5z" />
    <glyph glyph-name="e" unicode="e" horiz-adv-x="533" 
d="M503 234h-386q2 -82 42.5 -131t111.5 -49q102 0 137 105h84q-16 -86 -75 -134t-149 -48q-110 0 -174 74.5t-64 203.5t65.5 206.5t174.5 77.5q233 0 233 -305zM119 302h295q0 68 -41 114t-104 46t-104 -43.5t-46 -116.5z" />
    <glyph glyph-name="f" unicode="f" horiz-adv-x="280" 
d="M260 524v-68h-87v-456h-83v456h-70v68h70v89q0 56 32.5 87.5t90.5 31.5q23 0 47 -5v-69q-19 1 -29 1q-58 0 -58 -53v-82h87z" />
    <glyph glyph-name="g" unicode="g" horiz-adv-x="550" 
d="M246 -23q-92 0 -154 75.5t-62 200.5q0 128 61.5 207t161.5 79q98 0 160 -91l-10 76h87v-438q0 -75 -9 -125.5t-33 -93.5t-71.5 -64t-120.5 -21q-92 0 -147 42t-62 116h85q14 -88 127 -88q84 0 115 47.5t31 144.5v27q-35 -50 -72.5 -72t-86.5 -22zM262 462q-67 0 -106 -55
t-39 -149q0 -95 39 -149.5t107 -54.5q66 0 104 53.5t38 147.5q0 98 -37.5 152.5t-105.5 54.5z" />
    <glyph glyph-name="h" unicode="h" horiz-adv-x="536" 
d="M393 363q0 55 -33.5 79t-74.5 24q-64 0 -103 -48.5t-39 -128.5v-289h-83v729h83v-277q37 48 74.5 67.5t93.5 19.5q76 0 120.5 -38.5t44.5 -104.5v-396h-83v363z" />
    <glyph glyph-name="i" unicode="i" horiz-adv-x="222" 
d="M150 524v-524h-83v524h83zM150 729v-105h-84v105h84z" />
    <glyph glyph-name="j" unicode="j" horiz-adv-x="243" 
d="M88 524h83v-633q0 -109 -143 -109q-13 0 -28 3v71q12 -2 23 -2q36 0 50.5 15.5t14.5 54.5v600zM171 729v-105h-83v105h83z" />
    <glyph glyph-name="k" unicode="k" horiz-adv-x="514" 
d="M143 729v-427l222 222h107l-182 -181l214 -343h-103l-177 284l-81 -80v-204h-83v729h83z" />
    <glyph glyph-name="l" unicode="l" horiz-adv-x="214" 
d="M144 729v-729h-84v729h84z" />
    <glyph glyph-name="m" unicode="m" horiz-adv-x="812" 
d="M60 524h77v-74q34 47 71.5 68t89.5 21q97 0 141 -80q37 44 73 62t88 18q73 0 112.5 -37.5t39.5 -108.5v-393h-84v361q0 50 -25.5 77.5t-71.5 27.5q-51 0 -87 -40t-36 -97v-329h-84v361q0 50 -25.5 77.5t-71.5 27.5q-51 0 -87 -40t-36 -97v-329h-84v524z" />
    <glyph glyph-name="n" unicode="n" horiz-adv-x="537" 
d="M60 524h77v-88q35 55 75.5 79t98.5 24q76 0 121 -39t45 -104v-396h-83v363q0 47 -29 75t-79 28q-64 0 -103 -48.5t-39 -128.5v-289h-84v524z" />
    <glyph glyph-name="o" unicode="o" horiz-adv-x="534" 
d="M266 539q113 0 175.5 -74.5t62.5 -210.5q0 -129 -63.5 -203t-173.5 -74q-112 0 -174.5 74.5t-62.5 206.5t63 206.5t173 74.5zM267 462q-70 0 -110 -54.5t-40 -149.5t40 -149.5t110 -54.5q69 0 109.5 54.5t40.5 146.5q0 97 -39.5 152t-110.5 55z" />
    <glyph glyph-name="p" unicode="p" horiz-adv-x="559" 
d="M60 -218v742h77v-79q59 94 167 94q104 0 164.5 -77t60.5 -209q0 -125 -61.5 -200.5t-162.5 -75.5q-97 0 -161 78v-273h-84zM290 461q-66 0 -106 -55.5t-40 -147.5t40 -147.5t106 -55.5q68 0 110 55.5t42 144.5q0 94 -41.5 150t-110.5 56z" />
    <glyph glyph-name="q" unicode="q" horiz-adv-x="559" 
d="M499 -218h-83v278q-57 -83 -162 -83q-104 0 -164 74t-60 201q0 130 62 208.5t166 78.5q107 0 167 -85v70h74v-742zM270 461q-69 0 -111 -56t-42 -147q0 -92 42 -147.5t111 -55.5q66 0 106 55t40 145q0 94 -39.5 150t-106.5 56z" />
    <glyph glyph-name="r" unicode="r" horiz-adv-x="332" 
d="M312 451q-84 -2 -126 -39t-42 -140v-272h-84v524h77v-95q36 59 69.5 84.5t73.5 25.5q11 0 32 -3v-85z" />
    <glyph glyph-name="s" unicode="s" horiz-adv-x="493" 
d="M122 156q6 -47 32.5 -74.5t95.5 -27.5q55 0 88.5 22.5t33.5 59.5q0 29 -19 46t-62 27l-78 19q-93 22 -129.5 55.5t-36.5 95.5q0 73 55 116.5t146 43.5t140 -42t50 -119h-88q-3 84 -105 84q-51 0 -81 -21.5t-30 -57.5q0 -28 23 -45.5t74 -29.5l80 -19q78 -19 113 -53.5
t35 -92.5q0 -76 -58.5 -121t-157.5 -45q-203 0 -209 179h88z" />
    <glyph glyph-name="t" unicode="t" horiz-adv-x="280" 
d="M260 524v-68h-86v-359q0 -28 9.5 -37.5t36.5 -9.5q25 0 40 4v-70q-39 -7 -68 -7q-49 0 -75 21.5t-26 61.5v396h-71v68h71v144h83v-144h86z" />
    <glyph glyph-name="u" unicode="u" horiz-adv-x="537" 
d="M477 0h-75v73q-37 -52 -77 -74t-98 -22q-76 0 -121.5 39t-45.5 104v404h83v-371q0 -47 29 -75t79 -28q65 0 104 48.5t39 128.5v297h83v-524z" />
    <glyph glyph-name="v" unicode="v" horiz-adv-x="496" 
d="M285 0h-91l-184 524h94l140 -425l148 425h94z" />
    <glyph glyph-name="w" unicode="w" horiz-adv-x="722" 
d="M558 0h-95l-106 411l-101 -411h-94l-152 524h92l107 -408l100 408h102l103 -408l104 408h94z" />
    <glyph glyph-name="x" unicode="x" horiz-adv-x="476" 
d="M285 271l181 -271h-97l-131 201l-133 -201h-95l185 267l-175 257h95l126 -190l126 190h94z" />
    <glyph glyph-name="y" unicode="y" horiz-adv-x="478" 
d="M378 524h90l-233 -634q-41 -108 -135 -108q-31 0 -56 13v75q27 -6 44 -6q26 0 41 11.5t26 39.5l32 83l-177 526h89l134 -408z" />
    <glyph glyph-name="z" unicode="z" horiz-adv-x="486" 
d="M442 524v-74l-311 -377h325v-73h-426v75l313 376h-292v73h391z" />
    <glyph glyph-name="braceleft" unicode="{" horiz-adv-x="333" 
d="M276 729v-65h-15q-37 0 -50 -14t-13 -53v-181q0 -69 -18 -104t-64 -53q82 -38 82 -158v-181q0 -39 13 -53t50 -14h15v-65h-46q-52 0 -80.5 34.5t-28.5 96.5v167q0 69 -17 99t-61 39v69q44 9 61 38.5t17 99.5v167q0 62 28.5 96.5t80.5 34.5h46z" />
    <glyph glyph-name="bar" unicode="|" horiz-adv-x="250" 
d="M95 729h60v-941h-60v941z" />
    <glyph glyph-name="braceright" unicode="}" horiz-adv-x="333" 
d="M57 -212v65h16q37 0 50.5 14t13.5 53v181q0 120 82 157q-82 38 -82 158v181q0 39 -13.5 53t-50.5 14h-16v65h47q52 0 81 -34.5t29 -96.5v-167q0 -69 16.5 -99t59.5 -39v-69q-43 -9 -59.5 -39t-16.5 -99v-167q0 -62 -29 -96.5t-81 -34.5h-47z" />
    <glyph glyph-name="asciitilde" unicode="~" horiz-adv-x="500" 
d="M139 371q-47 0 -53 -78h-53q4 70 31.5 107.5t76.5 37.5q27 0 54 -16l117 -69q28 -17 50 -17q30 0 40.5 18.5t10.5 56.5h53q0 -143 -105 -143q-39 0 -81 26l-98 63q-23 14 -43 14z" />
    <glyph glyph-name="nonbreakingspace" unicode="&#xa0;" horiz-adv-x="278" 
 />
    <glyph glyph-name="exclamdown" unicode="&#xa1;" horiz-adv-x="333" 
d="M122 -205v338l22 223h39l22 -223v-338h-83zM122 420v104h84v-104h-84z" />
    <glyph glyph-name="cent" unicode="&#xa2;" horiz-adv-x="556" 
d="M312 462v-409q96 11 114 127h84q-5 -90 -58 -144.5t-140 -58.5v-97h-42v98q-101 9 -159.5 82.5t-58.5 192.5q0 122 58.5 198t159.5 87v90h42v-89q88 -6 137.5 -55.5t54.5 -135.5h-84q-5 50 -33.5 80t-74.5 34zM270 55v406q-131 -24 -131 -208q0 -85 34.5 -136.5
t96.5 -61.5z" />
    <glyph glyph-name="sterling" unicode="&#xa3;" horiz-adv-x="556" 
d="M147 523q0 -28 7.5 -50t26.5 -53t25 -44h160v-55h-136q15 -43 15 -71q0 -39 -25.5 -80t-92.5 -109q59 39 122 39q33 0 85 -15.5t76 -15.5q40 0 83 30l42 -66q-57 -56 -131 -56q-43 0 -110 23t-102 23q-53 0 -109 -37l-48 66q69 59 97 102t28 89q0 38 -24 78h-110v55h81
q-34 57 -43.5 81.5t-9.5 57.5q0 91 68.5 152.5t169.5 61.5q29 0 55.5 -4.5t57.5 -19.5t53 -39.5t37.5 -68t16.5 -100.5h-88q-4 154 -136 154q-64 0 -102.5 -35t-38.5 -93z" />
    <glyph glyph-name="currency" unicode="&#xa4;" horiz-adv-x="556" 
d="M485 190l-58 -54l-53 53q-40 -30 -100 -30q-53 0 -94 25l-51 -51l-56 57l48 49q-32 43 -32 102q0 57 32 102l-54 55l56 53l55 -55q44 26 97 26q58 0 98 -28l59 53l57 -58l-55 -55q26 -41 26 -93q0 -50 -29 -97zM274 445q-44 0 -75 -31t-31 -74t31.5 -73.5t75.5 -30.5
q43 0 74.5 30.5t31.5 72.5q0 44 -31 75t-76 31z" />
    <glyph glyph-name="yen" unicode="&#xa5;" horiz-adv-x="556" 
d="M495 354v-51h-170v-77h170v-51h-170v-175h-88v175h-172v51h172v77h-172v51h151l-205 355h85l185 -322l179 322h85l-201 -355h151z" />
    <glyph glyph-name="brokenbar" unicode="&#xa6;" horiz-adv-x="260" 
d="M100 729h60v-401h-60v401zM100 189h60v-401h-60v401z" />
    <glyph glyph-name="section" unicode="&#xa7;" horiz-adv-x="556" 
d="M162 -14q0 -69 30.5 -95.5t71.5 -26.5q43 0 69.5 24t26.5 62q0 50 -55 88l-170 117q-49 34 -70.5 71t-21.5 86q0 50 25 85.5t80 64.5q-44 51 -44 102q0 69 53.5 117t131.5 48t126.5 -49t48.5 -128v-28h-84v26q0 47 -26.5 74.5t-70.5 27.5q-38 0 -63.5 -24t-25.5 -61
q0 -22 12.5 -39t44.5 -38l146 -94q61 -39 85 -76t24 -91q0 -115 -109 -156q30 -34 41.5 -60t11.5 -58q0 -72 -53.5 -120t-133.5 -48q-24 0 -47 4t-49 17.5t-45.5 34.5t-32 58t-12.5 85h85zM188 229l166 -123q73 39 73 102q0 61 -73 112l-161 109q-39 -26 -55 -48.5
t-16 -52.5t13 -50t53 -49z" />
    <glyph glyph-name="dieresis" unicode="&#xa8;" horiz-adv-x="333" 
d="M308 716v-104h-104v104h104zM129 716v-104h-104v104h104z" />
    <glyph glyph-name="copyright" unicode="&#xa9;" horiz-adv-x="800" 
d="M205.059 347.906q0 36.8975 9.83887 74.6152q9.83984 37.7178 31.1582 74.6152t62.7256 60.2656q41.4072 23.3691 97.1641 23.3691q70.5156 0 113.973 -37.3076t56.5762 -108.644h-68.876q-10.6592 43.457 -35.2578 61.9062q-24.5977 18.4492 -72.9746 18.4492
q-59.0361 0 -92.6543 -43.8672t-33.6182 -122.582q0 -75.4355 36.0781 -120.122q36.0781 -44.6875 95.1133 -44.6875q50.8369 0 74.6152 24.5986q23.7793 24.5977 36.8984 86.9141h68.875q-9.83984 -85.2744 -56.166 -130.781q-46.3271 -45.5068 -125.042 -45.5068
q-54.9365 0 -95.9336 22.958q-40.9971 22.959 -61.9062 59.4463q-20.9082 36.4873 -30.748 72.9756q-9.83887 36.4873 -9.83887 73.3848zM405 653q-119 0 -212.5 -92.5t-93.5 -210.5t90.5 -211.5t210.5 -93.5q124 0 212.5 90.5t88.5 211.5t-88.5 213.5t-207.5 92.5zM406 708
q145 0 250 -106.5t105 -254.5q0 -149 -106 -255t-255 -106q-150 0 -255.5 106.5t-105.5 257.5q0 149 107 253.5t260 104.5z" />
    <glyph glyph-name="ordfeminine" unicode="&#xaa;" horiz-adv-x="370" 
d="M320 354v-51h-277v51h277zM333 449v-44q-16 -6 -32 -6q-47 0 -55 43q-49 -43 -105 -43q-48 0 -76 26t-28 70q0 49 34 73.5t123 31.5q28 2 38.5 9t10.5 24v13q0 44 -67 44q-34 0 -48.5 -12t-19.5 -44h-59q3 108 129 108q122 0 122 -94v-179q0 -23 23 -23q4 0 10 3z
M243 568q-19 -8 -60.5 -13t-64.5 -16.5t-23 -40.5q0 -47 57 -47q37 0 64 20t27 46v51z" />
    <glyph glyph-name="guillemotleft" unicode="&#xab;" horiz-adv-x="500" 
d="M71 227v89l152 122v-83l-106 -83l106 -83v-83zM276 227v89l152 122v-83l-106 -83l106 -83v-83z" />
    <glyph glyph-name="logicalnot" unicode="&#xac;" horiz-adv-x="584" 
d="M40 375h504v-289h-70v219h-434v70z" />
    <glyph glyph-name="softhyphen" unicode="&#xad;" horiz-adv-x="333" 
d="M287 312v-72h-241v72h241z" />
    <glyph glyph-name="registered" unicode="&#xae;" horiz-adv-x="800" 
d="M512.239 347.366q46.7363 -23.7783 46.7363 -100.854q0 -5.73926 -0.410156 -15.5791q-0.40918 -9.83887 -0.40918 -14.7588q0 -47.5566 26.2383 -65.5957v-15.5791h-75.4355q-12.2988 30.3379 -12.2988 70.5156v37.7168q0 72.1562 -65.5957 72.1562h-132.832v-180.389
h-63.9551v430.472h198.427q63.1357 0 99.2139 -31.1582q36.0771 -31.1572 36.0771 -86.9141q0 -74.6152 -55.7559 -100.033zM501.58 440.02q0 41.8174 -19.6797 54.9365q-19.6777 13.1191 -59.8555 13.1191h-123.812v-135.291h123.812q39.3574 0 59.4463 15.5791
t20.0889 51.6562zM405 653q-119 0 -212.5 -92.5t-93.5 -210.5t90.5 -211.5t210.5 -93.5q124 0 212.5 90.5t88.5 211.5t-88.5 213.5t-207.5 92.5zM406 708q145 0 250 -106.5t105 -254.5q0 -149 -106 -255t-255 -106q-150 0 -255.5 106.5t-105.5 257.5q0 149 107 253.5
t260 104.5z" />
    <glyph glyph-name="macron" unicode="&#xaf;" horiz-adv-x="333" 
d="M302 701v-70h-274v70h274z" />
    <glyph glyph-name="degree" unicode="&#xb0;" horiz-adv-x="606" 
d="M303 686q62 0 106.5 -44.5t44.5 -106.5q0 -64 -44.5 -108t-108.5 -44q-61 0 -105.5 45t-44.5 107t44.5 106.5t107.5 44.5zM303 629q-39 0 -67 -28t-28 -66q0 -39 27.5 -67t65.5 -28q40 0 68 27.5t28 67.5q0 39 -27.5 66.5t-66.5 27.5z" />
    <glyph glyph-name="plusminus" unicode="&#xb1;" horiz-adv-x="584" 
d="M534 59v-70h-484v70h484zM534 416v-70h-207v-207h-70v207h-207v70h207v207h70v-207h207z" />
    <glyph glyph-name="twosuperior" unicode="&#xb2;" horiz-adv-x="350" 
d="M178 762q-26 0 -44 -9t-26.5 -25t-12 -30.5t-4.5 -34.5h-62q4 152 151 152q64 0 105 -35t41 -91q0 -82 -96 -129l-63 -32q-33 -17 -48.5 -34.5t-24.5 -45.5h229v-58h-304q4 73 29.5 111t97.5 76l58 31q59 32 59 79q0 32 -24.5 53.5t-60.5 21.5z" />
    <glyph glyph-name="threesuperior" unicode="&#xb3;" horiz-adv-x="350" 
d="M169 764q-46 0 -63.5 -22.5t-17.5 -66.5h-63q3 142 144 142q64 0 101.5 -32t37.5 -88q0 -59 -57 -85q71 -24 71 -100q0 -61 -42.5 -97.5t-112.5 -36.5q-72 0 -111.5 37t-39.5 105h62q2 -46 24 -67.5t67 -21.5q42 0 66 21.5t24 59.5q0 27 -16 46.5t-42 23.5q-15 2 -66 2
v51q64 0 87 13t23 48q0 32 -20.5 50t-55.5 18z" />
    <glyph glyph-name="acute" unicode="&#xb4;" horiz-adv-x="333" 
d="M188 740h113l-149 -148h-60z" />
    <glyph glyph-name="micro" unicode="&#xb5;" horiz-adv-x="556" 
d="M544 49v-63q-33 -9 -57 -9q-83 0 -86 83q-59 -83 -163 -83q-54 0 -90 26v-223h-83v744h83v-371q0 -47 29 -75t78 -28q65 0 104 48.5t39 128.5v297h83v-436q0 -41 45 -41q8 0 18 2z" />
    <glyph glyph-name="paragraph" unicode="&#xb6;" horiz-adv-x="537" 
d="M255 259q-97 5 -152 70.5t-55 159.5q0 101 65 170.5t159 69.5h250v-64h-57v-842h-64v842h-82v-842h-64v436z" />
    <glyph glyph-name="middot" unicode="&#xb7;" horiz-adv-x="250" 
d="M191 331v-104h-104v104h104z" />
    <glyph glyph-name="cedilla" unicode="&#xb8;" horiz-adv-x="333" 
d="M60 -140q9 -4 25.5 -12t25 -11.5t21.5 -6.5t26 -3q23 0 38.5 13t15.5 32q0 37 -46 37q-15 0 -31 -8l-12 7l42 92h38l-23 -56q13 2 28 2q38 0 58.5 -17.5t20.5 -49.5q0 -43 -33 -68t-90 -25q-47 0 -125 34z" />
    <glyph glyph-name="onesuperior" unicode="&#xb9;" horiz-adv-x="350" 
d="M168 686h-99v46l15 1q54 5 72 19.5t31 62.5h43v-425h-62v296z" />
    <glyph glyph-name="ordmasculine" unicode="&#xba;" horiz-adv-x="365" 
d="M314 354v-51h-263v51h263zM182 742q68 0 105 -45t37 -129q0 -79 -37.5 -124t-104.5 -45t-104.5 45t-37.5 127q0 81 37.5 126t104.5 45zM182 690q-39 0 -61.5 -32t-22.5 -87q0 -56 22.5 -88t61.5 -32t61.5 31.5t22.5 86.5q0 57 -22 89t-62 32z" />
    <glyph glyph-name="guillemotright" unicode="&#xbb;" horiz-adv-x="500" 
d="M429 317v-89l-152 -122v83l106 83l-106 83v83zM224 317v-89l-152 -122v83l106 83l-106 83v83z" />
    <glyph glyph-name="onequarter" unicode="&#xbc;" horiz-adv-x="869" 
d="M160 597h-99v46l15 1q54 5 72 19.5t31 62.5h43v-425h-62v296zM643 709h58l-452 -729h-58zM720 100h-188v59l204 266h46v-272h67v-53h-67v-100h-62v100zM720 153v170l-129 -170h129z" />
    <glyph glyph-name="onehalf" unicode="&#xbd;" horiz-adv-x="869" 
d="M160 600h-99v46l15 1q54 5 72 19.5t31 62.5h43v-425h-62v296zM619 709h58l-452 -729h-58zM696 372q-26 0 -44 -9t-26.5 -25t-12 -30.5t-4.5 -34.5h-62q4 152 151 152q64 0 105 -35t41 -91q0 -82 -96 -129l-63 -32q-33 -17 -48.5 -34.5t-24.5 -45.5h229v-58h-304
q4 73 29.5 111t97.5 76l58 31q59 32 59 79q0 32 -24.5 53.5t-60.5 21.5z" />
    <glyph glyph-name="threequarters" unicode="&#xbe;" horiz-adv-x="879" 
d="M179 681q-46 0 -63.5 -22.5t-17.5 -66.5h-63q3 142 144 142q64 0 101.5 -32t37.5 -88q0 -59 -57 -85q71 -24 71 -100q0 -61 -42.5 -97.5t-112.5 -36.5q-72 0 -111.5 37t-39.5 105h62q2 -46 24 -67.5t67 -21.5q42 0 66 21.5t24 59.5q0 27 -16 46.5t-42 23.5q-15 2 -66 2
v51q64 0 87 13t23 48q0 32 -20.5 50t-55.5 18zM640 709h58l-452 -729h-58zM707 100h-188v59l204 266h46v-272h67v-53h-67v-100h-62v100zM707 153v170l-129 -170h129z" />
    <glyph glyph-name="questiondown" unicode="&#xbf;" horiz-adv-x="556" 
d="M96 -25q0 46 18.5 83t44.5 61.5t52.5 47t45 51t18.5 60.5v47h90v-55q0 -37 -18.5 -70t-45 -57t-52.5 -48t-44.5 -54.5t-18.5 -65.5q0 -51 35 -82.5t93 -31.5q73 0 101 41t28 115h85q0 -115 -55.5 -174.5t-163.5 -59.5q-97 0 -155 52t-58 140zM275 420v104h90v-104h-90z
" />
    <glyph glyph-name="Agrave" unicode="&#xc0;" horiz-adv-x="666" 
d="M315 900l106 -126h-65l-164 126h123zM472 219h-281l-77 -219h-99l260 729h120l256 -729h-104zM446 297l-112 332l-120 -332h232z" />
    <glyph glyph-name="Aacute" unicode="&#xc1;" horiz-adv-x="666" 
d="M375 900h123l-164 -125h-65zM472 219h-281l-77 -219h-99l260 729h120l256 -729h-104zM446 297l-112 332l-120 -332h232z" />
    <glyph glyph-name="Acircumflex" unicode="&#xc2;" horiz-adv-x="666" 
d="M286 900h95l96 -125h-63l-81 61l-79 -61h-64zM472 219h-281l-77 -219h-99l260 729h120l256 -729h-104zM446 297l-112 332l-120 -332h232z" />
    <glyph glyph-name="Atilde" unicode="&#xc3;" horiz-adv-x="666" 
d="M266 887q25 0 69 -18.5t64 -18.5q25 0 37 37h58q-15 -104 -89 -104q-20 0 -70 19t-64 19q-23 0 -33 -37h-58q8 49 30.5 76t55.5 27zM472 219h-281l-77 -219h-99l260 729h120l256 -729h-104zM446 297l-112 332l-120 -332h232z" />
    <glyph glyph-name="Adieresis" unicode="&#xc4;" horiz-adv-x="666" 
d="M482 881v-104h-104v104h104zM303 881v-104h-104v104h104zM472 220h-281l-77 -219h-99l260 729h120l256 -729h-104zM446 298l-112 332l-120 -332h232z" />
    <glyph glyph-name="Aring" unicode="&#xc5;" horiz-adv-x="666" 
d="M335 966q44 0 75 -31t31 -75q0 -43 -31.5 -73.5t-74.5 -30.5t-74.5 31t-31.5 74q0 42 31.5 73.5t74.5 31.5zM335 904q-18 0 -31 -13t-13 -30q0 -18 13 -31t31 -13t31 13t13 30q0 19 -12.5 31.5t-31.5 12.5zM472 219h-281l-77 -219h-99l260 729h120l256 -729h-104z
M446 297l-112 332l-120 -332h232z" />
    <glyph glyph-name="AE" unicode="&#xc6;" horiz-adv-x="984" 
d="M472 214h-269l-85 -214h-103l299 729h622v-82h-371v-233h352v-82h-352v-250h389v-82h-482v214zM472 296v351h-100l-138 -351h238z" />
    <glyph glyph-name="Ccedilla" unicode="&#xc7;" horiz-adv-x="709" 
d="M370 58q90 0 137.5 50t65.5 158h96q-33 -289 -298 -289l-13 -33q13 2 28 2q38 0 58.5 -17.5t20.5 -49.5q0 -43 -33 -68t-90 -25q-48 0 -125 34l21 40q7 -3 22.5 -10.5t24.5 -11.5t23 -7.5t28 -3.5q23 0 38.5 13t15.5 32q0 37 -46 37q-15 0 -31 -8l-11 7l31 69
q-56 8 -86 18.5t-63 33.5q-68 49 -106 135t-38 192q0 50 8.5 99t32.5 102t59.5 92.5t96 65.5t136.5 26q238 0 281 -238h-95q-16 77 -62 116.5t-134 39.5q-107 0 -168.5 -81t-61.5 -221q0 -137 64 -218t173 -81z" />
    <glyph glyph-name="Egrave" unicode="&#xc8;" horiz-adv-x="633" 
d="M325 900l106 -126h-65l-164 126h123zM173 332v-250h430v-82h-523v729h505v-82h-412v-233h397v-82h-397z" />
    <glyph glyph-name="Eacute" unicode="&#xc9;" horiz-adv-x="633" 
d="M345 900h123l-164 -125h-65zM173 332v-250h430v-82h-523v729h505v-82h-412v-233h397v-82h-397z" />
    <glyph glyph-name="Ecircumflex" unicode="&#xca;" horiz-adv-x="633" 
d="M286 900h95l96 -125h-63l-81 61l-79 -61h-64zM173 332v-250h430v-82h-523v729h505v-82h-412v-233h397v-82h-397z" />
    <glyph glyph-name="Edieresis" unicode="&#xcb;" horiz-adv-x="633" 
d="M478 884v-104h-104v104h104zM299 884v-104h-104v104h104zM173 332v-250h430v-82h-523v729h505v-82h-412v-233h397v-82h-397z" />
    <glyph glyph-name="Igrave" unicode="&#xcc;" horiz-adv-x="278" 
d="M123 900l106 -126h-65l-164 126h123zM194 729v-729h-94v729h94z" />
    <glyph glyph-name="Iacute" unicode="&#xcd;" horiz-adv-x="278" 
d="M155 900h123l-164 -125h-65zM194 729v-729h-94v729h94z" />
    <glyph glyph-name="Icircumflex" unicode="&#xce;" horiz-adv-x="300" 
d="M106 900h95l96 -125h-63l-81 61l-79 -61h-64zM199 729v-729h-94v729h94z" />
    <glyph glyph-name="Idieresis" unicode="&#xcf;" horiz-adv-x="300" 
d="M194 729v-729h-94v729h94zM291 882v-104h-104v104h104zM112 882v-104h-104v104h104z" />
    <glyph glyph-name="Eth" unicode="&#xd0;" horiz-adv-x="707" 
d="M89 339h-69v67h69v323h282q138 0 217 -97t79 -267t-79 -267.5t-217 -97.5h-282v339zM182 339v-257h173q107 0 163 72t56 211t-56 210.5t-163 71.5h-173v-241h171v-67h-171z" />
    <glyph glyph-name="Ntilde" unicode="&#xd1;" horiz-adv-x="730" 
d="M290 870q25 0 69 -18.5t64 -18.5q25 0 37 37h58q-15 -104 -89 -104q-20 0 -70 19t-64 19q-23 0 -33 -37h-58q8 49 30.5 76t55.5 27zM650 729v-729h-105l-377 591v-591h-88v729h101l381 -596v596h88z" />
    <glyph glyph-name="Ograve" unicode="&#xd2;" horiz-adv-x="784" 
d="M365 900l106 -126h-65l-164 126h123zM744 353q0 -162 -96 -269t-256 -107q-158 0 -255 105.5t-97 276.5t97 276.5t254 105.5q160 0 256.5 -106t96.5 -282zM391 659q-116 0 -187 -82.5t-71 -217.5t71.5 -217.5t187.5 -82.5t187.5 82t71.5 214q0 138 -71 221t-189 83z" />
    <glyph glyph-name="Oacute" unicode="&#xd3;" horiz-adv-x="784" 
d="M425 900h123l-164 -125h-65zM744 353q0 -162 -96 -269t-256 -107q-158 0 -255 105.5t-97 276.5t97 276.5t254 105.5q160 0 256.5 -106t96.5 -282zM391 659q-116 0 -187 -82.5t-71 -217.5t71.5 -217.5t187.5 -82.5t187.5 82t71.5 214q0 138 -71 221t-189 83z" />
    <glyph glyph-name="Ocircumflex" unicode="&#xd4;" horiz-adv-x="784" 
d="M346 900h95l96 -125h-63l-81 61l-79 -61h-64zM744 353q0 -162 -96 -269t-256 -107q-158 0 -255 105.5t-97 276.5t97 276.5t254 105.5q160 0 256.5 -106t96.5 -282zM391 659q-116 0 -187 -82.5t-71 -217.5t71.5 -217.5t187.5 -82.5t187.5 82t71.5 214q0 138 -71 221
t-189 83z" />
    <glyph glyph-name="Otilde" unicode="&#xd5;" horiz-adv-x="784" 
d="M318 882q25 0 69 -18.5t64 -18.5q25 0 37 37h58q-15 -104 -89 -104q-20 0 -70 19t-64 19q-23 0 -33 -37h-58q8 49 30.5 76t55.5 27zM744 353q0 -162 -96 -269t-256 -107q-158 0 -255 105.5t-97 276.5t97 276.5t254 105.5q160 0 256.5 -106t96.5 -282zM391 659
q-116 0 -187 -82.5t-71 -217.5t71.5 -217.5t187.5 -82.5t187.5 82t71.5 214q0 138 -71 221t-189 83z" />
    <glyph glyph-name="Odieresis" unicode="&#xd6;" horiz-adv-x="784" 
d="M534 884v-104h-104v104h104zM355 884v-104h-104v104h104zM744 353q0 -162 -96 -269t-256 -107q-158 0 -255 105.5t-97 276.5t97 276.5t254 105.5q160 0 256.5 -106t96.5 -282zM391 659q-116 0 -187 -82.5t-71 -217.5t71.5 -217.5t187.5 -82.5t187.5 82t71.5 214
q0 138 -71 221t-189 83z" />
    <glyph glyph-name="multiply" unicode="&#xd7;" horiz-adv-x="584" 
d="M438 427l49 -50l-146 -146l147 -147l-50 -50l-147 147l-146 -146l-50 49l147 147l-146 146l49 49l146 -145z" />
    <glyph glyph-name="Oslash" unicode="&#xd8;" horiz-adv-x="789" 
d="M35 19l81 89q-76 106 -76 252q0 170 97.5 275.5t254.5 105.5q137 0 230 -81l87 95l40 -36l-89 -97q84 -106 84 -264q0 -170 -97.5 -275.5t-254.5 -105.5q-144 0 -241 90l-77 -84zM179 176l384 419q-73 64 -171 64q-116 0 -187.5 -82.5t-71.5 -216.5q0 -104 46 -184z
M598 554l-387 -421q74 -74 181 -74q116 0 187.5 82.5t71.5 216.5q0 114 -53 196z" />
    <glyph glyph-name="Ugrave" unicode="&#xd9;" horiz-adv-x="720" 
d="M345 900l106 -126h-65l-164 126h123zM547 729h93v-512q0 -110 -76.5 -175t-204.5 -65q-130 0 -204.5 64.5t-74.5 175.5v512h93v-512q0 -79 50.5 -118.5t135.5 -39.5q88 0 138 42t50 116v512z" />
    <glyph glyph-name="Uacute" unicode="&#xda;" horiz-adv-x="720" 
d="M385 900h123l-164 -125h-65zM547 729h93v-512q0 -110 -76.5 -175t-204.5 -65q-130 0 -204.5 64.5t-74.5 175.5v512h93v-512q0 -79 50.5 -118.5t135.5 -39.5q88 0 138 42t50 116v512z" />
    <glyph glyph-name="Ucircumflex" unicode="&#xdb;" horiz-adv-x="720" 
d="M316 900h95l96 -125h-63l-81 61l-79 -61h-64zM547 729h93v-512q0 -110 -76.5 -175t-204.5 -65q-130 0 -204.5 64.5t-74.5 175.5v512h93v-512q0 -79 50.5 -118.5t135.5 -39.5q88 0 138 42t50 116v512z" />
    <glyph glyph-name="Udieresis" unicode="&#xdc;" horiz-adv-x="720" 
d="M547 729h93v-512q0 -110 -76.5 -175t-204.5 -65q-130 0 -204.5 64.5t-74.5 175.5v512h93v-512q0 -79 50.5 -118.5t135.5 -39.5q88 0 138 42t50 116v512zM510 881v-104h-104v104h104zM331 881v-104h-104v104h104z" />
    <glyph glyph-name="Yacute" unicode="&#xdd;" horiz-adv-x="678" 
d="M365 900h123l-164 -125h-65zM389 286v-286h-93v286l-281 443h115l214 -355l208 355h111z" />
    <glyph glyph-name="Thorn" unicode="&#xde;" horiz-adv-x="645" 
d="M173 189v-189h-93v729h93v-120h208q104 0 164 -56.5t60 -155.5q0 -91 -57 -149.5t-146 -58.5h-229zM173 271h194q65 0 101.5 34t36.5 94t-36.5 94t-101.5 34h-194v-256z" />
    <glyph glyph-name="ssharp" unicode="&#xdf;" horiz-adv-x="594" 
d="M277 427q155 0 155 113q0 49 -36.5 80.5t-95.5 31.5q-132 0 -132 -142v-510h-88v532q0 88 58.5 142t162.5 54q102 0 160.5 -49t58.5 -131q0 -34 -8.5 -61t-25 -45t-25 -25t-23.5 -17q52 -14 84 -65t32 -101q0 -126 -65.5 -192t-166.5 -66q-32 0 -73 16v75q31 -11 64 -11
q67 0 108.5 42t41.5 116q0 80 -47 110t-139 30v73z" />
    <glyph glyph-name="agrave" unicode="&#xe0;" horiz-adv-x="543" 
d="M242 740l96 -148h-60l-149 148h113zM53 369q6 170 210 170q97 0 147 -36.5t50 -106.5v-308q0 -41 45 -41q9 0 18 2v-63q-35 -9 -57 -9q-40 0 -60.5 18.5t-25.5 58.5q-84 -77 -178 -77q-79 0 -125.5 42t-46.5 113q0 23 4.5 42t10 33.5t19.5 27t23.5 20.5t32 15.5t34.5 11
t42 8.5t44 7t50 7q49 6 68 19t19 39v22q0 38 -30.5 58t-86.5 20q-58 0 -88 -22.5t-35 -70.5h-84zM220 50q69 0 113 36.5t44 78.5v94q-25 -12 -75.5 -20t-87.5 -14t-67 -28.5t-30 -62.5t27 -62t76 -22z" />
    <glyph glyph-name="aacute" unicode="&#xe1;" horiz-adv-x="543" 
d="M280 740h113l-149 -148h-60zM53 369q6 170 210 170q97 0 147 -36.5t50 -106.5v-308q0 -41 45 -41q9 0 18 2v-63q-35 -9 -57 -9q-40 0 -60.5 18.5t-25.5 58.5q-84 -77 -178 -77q-79 0 -125.5 42t-46.5 113q0 23 4.5 42t10 33.5t19.5 27t23.5 20.5t32 15.5t34.5 11t42 8.5
t44 7t50 7q49 6 68 19t19 39v22q0 38 -30.5 58t-86.5 20q-58 0 -88 -22.5t-35 -70.5h-84zM220 50q69 0 113 36.5t44 78.5v94q-25 -12 -75.5 -20t-87.5 -14t-67 -28.5t-30 -62.5t27 -62t76 -22z" />
    <glyph glyph-name="acircumflex" unicode="&#xe2;" horiz-adv-x="543" 
d="M228 727h95l96 -150h-63l-81 96l-79 -96h-64zM53 369q6 170 210 170q97 0 147 -36.5t50 -106.5v-308q0 -41 45 -41q9 0 18 2v-63q-35 -9 -57 -9q-40 0 -60.5 18.5t-25.5 58.5q-84 -77 -178 -77q-79 0 -125.5 42t-46.5 113q0 23 4.5 42t10 33.5t19.5 27t23.5 20.5t32 15.5
t34.5 11t42 8.5t44 7t50 7q49 6 68 19t19 39v22q0 38 -30.5 58t-86.5 20q-58 0 -88 -22.5t-35 -70.5h-84zM220 50q69 0 113 36.5t44 78.5v94q-25 -12 -75.5 -20t-87.5 -14t-67 -28.5t-30 -62.5t27 -62t76 -22z" />
    <glyph glyph-name="atilde" unicode="&#xe3;" horiz-adv-x="543" 
d="M204 709q25 0 69 -18.5t64 -18.5q25 0 37 37h58q-15 -104 -89 -104q-20 0 -70 19t-64 19q-23 0 -33 -37h-58q8 49 30.5 76t55.5 27zM53 369q6 170 210 170q97 0 147 -36.5t50 -106.5v-308q0 -41 45 -41q9 0 18 2v-63q-35 -9 -57 -9q-40 0 -60.5 18.5t-25.5 58.5
q-84 -77 -178 -77q-79 0 -125.5 42t-46.5 113q0 23 4.5 42t10 33.5t19.5 27t23.5 20.5t32 15.5t34.5 11t42 8.5t44 7t50 7q49 6 68 19t19 39v22q0 38 -30.5 58t-86.5 20q-58 0 -88 -22.5t-35 -70.5h-84zM220 50q69 0 113 36.5t44 78.5v94q-25 -12 -75.5 -20t-87.5 -14
t-67 -28.5t-30 -62.5t27 -62t76 -22z" />
    <glyph glyph-name="adieresis" unicode="&#xe4;" horiz-adv-x="543" 
d="M420 727v-104h-104v104h104zM241 727v-104h-104v104h104zM53 369q6 170 210 170q97 0 147 -36.5t50 -106.5v-308q0 -41 45 -41q9 0 18 2v-63q-35 -9 -57 -9q-40 0 -60.5 18.5t-25.5 58.5q-84 -77 -178 -77q-79 0 -125.5 42t-46.5 113q0 23 4.5 42t10 33.5t19.5 27
t23.5 20.5t32 15.5t34.5 11t42 8.5t44 7t50 7q49 6 68 19t19 39v22q0 38 -30.5 58t-86.5 20q-58 0 -88 -22.5t-35 -70.5h-84zM220 50q69 0 113 36.5t44 78.5v94q-25 -12 -75.5 -20t-87.5 -14t-67 -28.5t-30 -62.5t27 -62t76 -22z" />
    <glyph glyph-name="aring" unicode="&#xe5;" horiz-adv-x="543" 
d="M275 772q44 0 75 -31t31 -75q0 -43 -31.5 -73.5t-74.5 -30.5t-74.5 31t-31.5 74q0 42 31.5 73.5t74.5 31.5zM275 710q-18 0 -31 -13t-13 -30q0 -18 13 -31t31 -13t31 13t13 30q0 19 -12.5 31.5t-31.5 12.5zM53 369q6 170 210 170q97 0 147 -36.5t50 -106.5v-308
q0 -41 45 -41q9 0 18 2v-63q-35 -9 -57 -9q-40 0 -60.5 18.5t-25.5 58.5q-84 -77 -178 -77q-79 0 -125.5 42t-46.5 113q0 23 4.5 42t10 33.5t19.5 27t23.5 20.5t32 15.5t34.5 11t42 8.5t44 7t50 7q49 6 68 19t19 39v22q0 38 -30.5 58t-86.5 20q-58 0 -88 -22.5t-35 -70.5
h-84zM220 50q69 0 113 36.5t44 78.5v94q-25 -12 -75.5 -20t-87.5 -14t-67 -28.5t-30 -62.5t27 -62t76 -22z" />
    <glyph glyph-name="ae" unicode="&#xe6;" horiz-adv-x="871" 
d="M455 234q1 -52 16 -89.5t39 -56t48.5 -26.5t50.5 -8q101 0 138 105h84q-16 -85 -75 -133.5t-148 -48.5q-136 0 -192 107q-2 2 -2 3q-56 -58 -106.5 -84t-109.5 -26q-76 0 -122 42t-46 113q0 38 13 66.5t34 46.5t56 30t70.5 18t86.5 10t69 17t18 42v22q0 78 -118 78
q-112 0 -122 -93h-84q6 170 208 170q128 0 175 -82q27 38 73 60t100 22q73 0 129 -37t82 -101q21 -55 21 -167h-386zM217 50q70 0 115 40.5t45 66.5v101q-30 -13 -81.5 -21.5t-87 -13.5t-63.5 -27t-28 -62q0 -39 27 -61.5t73 -22.5zM457 302h294q0 71 -40 115.5t-104 44.5
q-63 0 -104 -43.5t-46 -116.5z" />
    <glyph glyph-name="ccedilla" unicode="&#xe7;" horiz-adv-x="506" 
d="M224 -21q-53 10 -92 38t-58 58.5t-29.5 70.5t-12.5 62t-2 45q0 130 63.5 208t169.5 78q91 0 145.5 -49t61.5 -142h-84q-8 55 -40 84.5t-84 29.5q-68 0 -106.5 -55.5t-38.5 -154.5q0 -93 39 -146t108 -53q107 0 128 127h84q-5 -94 -63 -148.5t-150 -54.5l-13 -33
q14 2 28 2q37 0 58 -17.5t21 -49.5q0 -43 -33 -68t-90 -25q-47 0 -125 33l21 41q7 -3 22.5 -10.5t24 -11.5t23 -7.5t28.5 -3.5q23 0 38.5 13t15.5 32q0 37 -46 37q-15 0 -31 -8l-12 7z" />
    <glyph glyph-name="egrave" unicode="&#xe8;" horiz-adv-x="533" 
d="M246 740l96 -148h-60l-149 148h113zM503 234h-386q2 -82 42.5 -131t111.5 -49q102 0 137 105h84q-16 -86 -75 -134t-149 -48q-110 0 -174 74.5t-64 203.5t65.5 206.5t174.5 77.5q233 0 233 -305zM119 302h295q0 68 -41 114t-104 46t-104 -43.5t-46 -116.5z" />
    <glyph glyph-name="eacute" unicode="&#xe9;" horiz-adv-x="533" 
d="M294 740h113l-149 -148h-60zM503 234h-386q2 -82 42.5 -131t111.5 -49q102 0 137 105h84q-16 -86 -75 -134t-149 -48q-110 0 -174 74.5t-64 203.5t65.5 206.5t174.5 77.5q233 0 233 -305zM119 302h295q0 68 -41 114t-104 46t-104 -43.5t-46 -116.5z" />
    <glyph glyph-name="ecircumflex" unicode="&#xea;" horiz-adv-x="533" 
d="M229 727h95l96 -150h-63l-81 96l-79 -96h-64zM503 234h-386q2 -82 42.5 -131t111.5 -49q102 0 137 105h84q-16 -86 -75 -134t-149 -48q-110 0 -174 74.5t-64 203.5t65.5 206.5t174.5 77.5q233 0 233 -305zM119 302h295q0 68 -41 114t-104 46t-104 -43.5t-46 -116.5z" />
    <glyph glyph-name="edieresis" unicode="&#xeb;" horiz-adv-x="533" 
d="M415 727v-104h-104v104h104zM236 727v-104h-104v104h104zM503 234h-386q2 -82 42.5 -131t111.5 -49q102 0 137 105h84q-16 -86 -75 -134t-149 -48q-110 0 -174 74.5t-64 203.5t65.5 206.5t174.5 77.5q233 0 233 -305zM119 302h295q0 68 -41 114t-104 46t-104 -43.5
t-46 -116.5z" />
    <glyph glyph-name="igrave" unicode="&#xec;" horiz-adv-x="222" 
d="M113 740l96 -148h-60l-149 148h113zM153 524v-524h-83v524h83z" />
    <glyph glyph-name="iacute" unicode="&#xed;" horiz-adv-x="222" 
d="M109 740h113l-149 -148h-60zM153 524v-524h-83v524h83z" />
    <glyph glyph-name="icircumflex" unicode="&#xee;" horiz-adv-x="262" 
d="M173 524v-524h-83v524h83zM84 727h95l96 -150h-63l-81 96l-79 -96h-64z" />
    <glyph glyph-name="idieresis" unicode="&#xef;" horiz-adv-x="262" 
d="M173 524v-524h-83v524h83zM272 728v-104h-104v104h104zM93 728v-104h-104v104h104z" />
    <glyph glyph-name="eth" unicode="&#xf0;" horiz-adv-x="534" 
d="M30 258q0 64 14.5 114.5t37 80.5t52.5 49.5t58 27t56 7.5q24 0 63 -13q-39 40 -98 89l-97 -45l-36 39l85 40q-30 23 -82 52l44 44q37 -16 111 -63l97 45l40 -37l-90 -41q30 -23 51 -40.5t56 -56t56.5 -76.5t38.5 -95.5t17 -119.5q0 -135 -62 -208.5t-175 -73.5t-175 73.5
t-62 207.5zM267 462q-70 0 -110 -54.5t-40 -149.5t40 -149.5t110 -54.5q69 0 109.5 54.5t40.5 146.5q0 97 -39.5 152t-110.5 55z" />
    <glyph glyph-name="ntilde" unicode="&#xf1;" horiz-adv-x="537" 
d="M207 706q25 0 69 -18.5t64 -18.5q25 0 37 37h58q-15 -104 -89 -104q-20 0 -70 19t-64 19q-23 0 -33 -37h-58q8 49 30.5 76t55.5 27zM60 524h77v-88q35 55 75.5 79t98.5 24q76 0 121 -39t45 -104v-396h-83v363q0 47 -29 75t-79 28q-64 0 -103 -48.5t-39 -128.5v-289h-84
v524z" />
    <glyph glyph-name="ograve" unicode="&#xf2;" horiz-adv-x="534" 
d="M247 740l96 -148h-60l-149 148h113zM266 539q113 0 175.5 -74.5t62.5 -210.5q0 -129 -63.5 -203t-173.5 -74q-112 0 -174.5 74.5t-62.5 206.5t63 206.5t173 74.5zM267 462q-70 0 -110 -54.5t-40 -149.5t40 -149.5t110 -54.5q69 0 109.5 54.5t40.5 146.5q0 97 -39.5 152
t-110.5 55z" />
    <glyph glyph-name="oacute" unicode="&#xf3;" horiz-adv-x="534" 
d="M286 740h113l-149 -148h-60zM266 539q113 0 175.5 -74.5t62.5 -210.5q0 -129 -63.5 -203t-173.5 -74q-112 0 -174.5 74.5t-62.5 206.5t63 206.5t173 74.5zM267 462q-70 0 -110 -54.5t-40 -149.5t40 -149.5t110 -54.5q69 0 109.5 54.5t40.5 146.5q0 97 -39.5 152
t-110.5 55z" />
    <glyph glyph-name="ocircumflex" unicode="&#xf4;" horiz-adv-x="534" 
d="M216 730h95l96 -150h-63l-81 96l-79 -96h-64zM266 539q113 0 175.5 -74.5t62.5 -210.5q0 -129 -63.5 -203t-173.5 -74q-112 0 -174.5 74.5t-62.5 206.5t63 206.5t173 74.5zM267 462q-70 0 -110 -54.5t-40 -149.5t40 -149.5t110 -54.5q69 0 109.5 54.5t40.5 146.5
q0 97 -39.5 152t-110.5 55z" />
    <glyph glyph-name="otilde" unicode="&#xf5;" horiz-adv-x="534" 
d="M201 708q25 0 69 -18.5t64 -18.5q25 0 37 37h58q-15 -104 -89 -104q-20 0 -70 19t-64 19q-23 0 -33 -37h-58q8 49 30.5 76t55.5 27zM266 539q113 0 175.5 -74.5t62.5 -210.5q0 -129 -63.5 -203t-173.5 -74q-112 0 -174.5 74.5t-62.5 206.5t63 206.5t173 74.5zM267 462
q-70 0 -110 -54.5t-40 -149.5t40 -149.5t110 -54.5q69 0 109.5 54.5t40.5 146.5q0 97 -39.5 152t-110.5 55z" />
    <glyph glyph-name="odieresis" unicode="&#xf6;" horiz-adv-x="534" 
d="M407 729v-104h-104v104h104zM228 729v-104h-104v104h104zM266 539q113 0 175.5 -74.5t62.5 -210.5q0 -129 -63.5 -203t-173.5 -74q-112 0 -174.5 74.5t-62.5 206.5t63 206.5t173 74.5zM267 462q-70 0 -110 -54.5t-40 -149.5t40 -149.5t110 -54.5q69 0 109.5 54.5
t40.5 146.5q0 97 -39.5 152t-110.5 55z" />
    <glyph glyph-name="divide" unicode="&#xf7;" horiz-adv-x="584" 
d="M534 271v-70h-484v70h484zM344 104v-104h-104v104h104zM344 472v-104h-104v104h104z" />
    <glyph glyph-name="oslash" unicode="&#xf8;" horiz-adv-x="534" 
d="M521 511l-63 -71q44 -73 44 -182q0 -132 -62.5 -206.5t-173.5 -74.5q-103 0 -163 62l-61 -69l-32 28l66 74q-48 71 -48 186q0 132 63 206.5t174 74.5q101 0 166 -65l58 65zM397 371l-238 -269q43 -48 106 -48q70 0 110 54.5t40 149.5q0 66 -18 113zM136 141l239 269
q-41 52 -110 52q-70 0 -110 -54.5t-40 -149.5q0 -68 21 -117z" />
    <glyph glyph-name="ugrave" unicode="&#xf9;" horiz-adv-x="537" 
d="M236 740l96 -148h-60l-149 148h113zM477 0h-75v73q-37 -52 -77 -74t-98 -22q-76 0 -121.5 39t-45.5 104v404h83v-371q0 -47 29 -75t79 -28q65 0 104 48.5t39 128.5v297h83v-524z" />
    <glyph glyph-name="uacute" unicode="&#xfa;" horiz-adv-x="537" 
d="M303 740h113l-149 -148h-60zM477 0h-75v73q-37 -52 -77 -74t-98 -22q-76 0 -121.5 39t-45.5 104v404h83v-371q0 -47 29 -75t79 -28q65 0 104 48.5t39 128.5v297h83v-524z" />
    <glyph glyph-name="ucircumflex" unicode="&#xfb;" horiz-adv-x="537" 
d="M221 729h95l96 -150h-63l-81 96l-79 -96h-64zM477 0h-75v73q-37 -52 -77 -74t-98 -22q-76 0 -121.5 39t-45.5 104v404h83v-371q0 -47 29 -75t79 -28q65 0 104 48.5t39 128.5v297h83v-524z" />
    <glyph glyph-name="udieresis" unicode="&#xfc;" horiz-adv-x="537" 
d="M412 729v-104h-104v104h104zM233 729v-104h-104v104h104zM477 0h-75v73q-37 -52 -77 -74t-98 -22q-76 0 -121.5 39t-45.5 104v404h83v-371q0 -47 29 -75t79 -28q65 0 104 48.5t39 128.5v297h83v-524z" />
    <glyph glyph-name="yacute" unicode="&#xfd;" horiz-adv-x="478" 
d="M277 740h113l-149 -148h-60zM378 524h90l-233 -634q-41 -108 -135 -108q-31 0 -56 13v75q27 -6 44 -6q26 0 41 11.5t26 39.5l32 83l-177 526h89l134 -408z" />
    <glyph glyph-name="thorn" unicode="&#xfe;" horiz-adv-x="558" 
d="M60 -218v932h83v-255q56 80 161 80q102 0 163 -78t61 -208q0 -125 -61.5 -200.5t-162.5 -75.5q-97 0 -161 78v-273h-83zM289 461q-66 0 -106 -55.5t-40 -147.5t40 -147.5t106 -55.5q68 0 110 55.5t42 144.5q0 94 -41.5 150t-110.5 56z" />
    <glyph glyph-name="ydieresis" unicode="&#xff;" horiz-adv-x="478" 
d="M394 729v-104h-104v104h104zM215 729v-104h-104v104h104zM378 524h90l-233 -634q-41 -108 -135 -108q-31 0 -56 13v75q27 -6 44 -6q26 0 41 11.5t26 39.5l32 83l-177 526h89l134 -408z" />
    <glyph glyph-name="Amacron" unicode="&#x100;" horiz-adv-x="666" 
d="M474 870v-70h-274v70h274zM472 219h-281l-77 -219h-99l260 729h120l256 -729h-104zM446 297l-112 332l-120 -332h232z" />
    <glyph glyph-name="amacron" unicode="&#x101;" horiz-adv-x="543" 
d="M412 681v-70h-274v70h274zM53 369q6 170 210 170q97 0 147 -36.5t50 -106.5v-308q0 -41 45 -41q9 0 18 2v-63q-35 -9 -57 -9q-40 0 -60.5 18.5t-25.5 58.5q-84 -77 -178 -77q-79 0 -125.5 42t-46.5 113q0 23 4.5 42t10 33.5t19.5 27t23.5 20.5t32 15.5t34.5 11t42 8.5
t44 7t50 7q49 6 68 19t19 39v22q0 38 -30.5 58t-86.5 20q-58 0 -88 -22.5t-35 -70.5h-84zM220 50q69 0 113 36.5t44 78.5v94q-25 -12 -75.5 -20t-87.5 -14t-67 -28.5t-30 -62.5t27 -62t76 -22z" />
    <glyph glyph-name="Abreve" unicode="&#x102;" horiz-adv-x="666" 
d="M187 900h59q8 -66 92 -66q40 0 64 17t27 49h59q-11 -135 -152 -135q-36 0 -66 9.5t-56 41.5t-27 84zM472 219h-281l-77 -219h-99l260 729h120l256 -729h-104zM446 297l-112 332l-120 -332h232z" />
    <glyph glyph-name="abreve" unicode="&#x103;" horiz-adv-x="543" 
d="M125 727h59q8 -66 92 -66q40 0 64 17t27 49h59q-11 -135 -152 -135q-36 0 -66 9.5t-56 41.5t-27 84zM53 369q6 170 210 170q97 0 147 -36.5t50 -106.5v-308q0 -41 45 -41q9 0 18 2v-63q-35 -9 -57 -9q-40 0 -60.5 18.5t-25.5 58.5q-84 -77 -178 -77q-79 0 -125.5 42
t-46.5 113q0 23 4.5 42t10 33.5t19.5 27t23.5 20.5t32 15.5t34.5 11t42 8.5t44 7t50 7q49 6 68 19t19 39v22q0 38 -30.5 58t-86.5 20q-58 0 -88 -22.5t-35 -70.5h-84zM220 50q69 0 113 36.5t44 78.5v94q-25 -12 -75.5 -20t-87.5 -14t-67 -28.5t-30 -62.5t27 -62t76 -22z" />
    <glyph glyph-name="Aogonek" unicode="&#x104;" horiz-adv-x="667" 
d="M616 -205q-56 0 -94 26t-38 68q0 36 25.5 65t71.5 46h-32l-75 219h-281l-77 -219h-99l260 729h120l256 -729h-2q-55 -31 -74.5 -53t-19.5 -53q0 -54 72 -54q37 0 63 10v-45q-48 -10 -76 -10zM448 297l-112 332l-120 -332h232z" />
    <glyph glyph-name="aogonek" unicode="&#x105;" horiz-adv-x="543" 
d="M54 369q6 170 209 170q97 0 147 -36.5t50 -106.5v-308q0 -41 45 -41q9 0 18 2v-63q-76 -30 -76 -91q0 -55 72 -55q38 0 64 10v-45q-42 -10 -71 -10q-30 0 -59 8t-53.5 30t-24.5 55q0 29 15.5 49t52.5 40q-57 10 -63 77q-81 -77 -178 -77q-79 0 -125.5 42t-46.5 113
q0 34 8.5 59.5t27 42.5t38.5 28.5t52 19t58.5 12t67.5 9.5q6 1 9 1q49 6 67.5 18.5t18.5 39.5v22q0 78 -117 78q-58 0 -87.5 -22.5t-34.5 -70.5h-84zM219 50q69 0 113 36.5t44 78.5v94q-25 -12 -75.5 -20t-87.5 -14t-67 -28.5t-30 -62.5t27 -62t76 -22z" />
    <glyph glyph-name="Cacute" unicode="&#x106;" horiz-adv-x="709" 
d="M395 900h123l-164 -125h-65zM40 356q0 50 8.5 99t32.5 102t59.5 92.5t96 65.5t136.5 26q238 0 281 -238h-95q-16 78 -63 117t-134 39q-106 0 -167.5 -81t-61.5 -221q0 -137 64 -217.5t173 -80.5q90 0 138 50.5t65 156.5h96q-33 -289 -300 -289q-75 0 -134.5 25.5
t-95 64.5t-59 91.5t-32 100.5t-8.5 97z" />
    <glyph glyph-name="cacute" unicode="&#x107;" horiz-adv-x="506" 
d="M285 740h113l-149 -148h-60zM470 348h-84q-8 55 -40 84.5t-84 29.5q-68 0 -106.5 -55.5t-38.5 -153.5q0 -93 39 -146t108 -53q107 0 128 126h84q-8 -96 -64 -149.5t-150 -53.5q-107 0 -169.5 74.5t-62.5 201.5q0 130 63.5 208t169.5 78q91 0 145.5 -49t61.5 -142z" />
    <glyph glyph-name="Ccircumflex" unicode="&#x108;" horiz-adv-x="709" 
d="M326 900h95l96 -125h-63l-81 61l-79 -61h-64zM40 356q0 50 8.5 99t32.5 102t59.5 92.5t96 65.5t136.5 26q238 0 281 -238h-95q-16 78 -63 117t-134 39q-106 0 -167.5 -81t-61.5 -221q0 -137 64 -217.5t173 -80.5q90 0 138 50.5t65 156.5h96q-33 -289 -300 -289
q-75 0 -134.5 25.5t-95 64.5t-59 91.5t-32 100.5t-8.5 97z" />
    <glyph glyph-name="ccircumflex" unicode="&#x109;" horiz-adv-x="506" 
d="M215 708h95l96 -150h-63l-81 96l-79 -96h-64zM470 348h-84q-8 55 -40 84.5t-84 29.5q-68 0 -106.5 -55.5t-38.5 -153.5q0 -93 39 -146t108 -53q107 0 128 126h84q-8 -96 -64 -149.5t-150 -53.5q-107 0 -169.5 74.5t-62.5 201.5q0 130 63.5 208t169.5 78q91 0 145.5 -49
t61.5 -142z" />
    <glyph glyph-name="Cdotaccent" unicode="&#x10a;" horiz-adv-x="709" 
d="M437 900v-104h-104v104h104zM40 356q0 50 8.5 99t32.5 102t59.5 92.5t96 65.5t136.5 26q238 0 281 -238h-95q-16 78 -63 117t-134 39q-106 0 -167.5 -81t-61.5 -221q0 -137 64 -217.5t173 -80.5q90 0 138 50.5t65 156.5h96q-33 -289 -300 -289q-75 0 -134.5 25.5
t-95 64.5t-59 91.5t-32 100.5t-8.5 97z" />
    <glyph glyph-name="cdotaccent" unicode="&#x10b;" horiz-adv-x="506" 
d="M311 729v-104h-104v104h104zM470 348h-84q-8 55 -40 84.5t-84 29.5q-68 0 -106.5 -55.5t-38.5 -153.5q0 -93 39 -146t108 -53q107 0 128 126h84q-8 -96 -64 -149.5t-150 -53.5q-107 0 -169.5 74.5t-62.5 201.5q0 130 63.5 208t169.5 78q91 0 145.5 -49t61.5 -142z" />
    <glyph glyph-name="Ccaron" unicode="&#x10c;" horiz-adv-x="709" 
d="M425 775h-95l-96 125h63l81 -61l79 61h64zM40 356q0 50 8.5 99t32.5 102t59.5 92.5t96 65.5t136.5 26q238 0 281 -238h-95q-16 78 -63 117t-134 39q-106 0 -167.5 -81t-61.5 -221q0 -137 64 -217.5t173 -80.5q90 0 138 50.5t65 156.5h96q-33 -289 -300 -289
q-75 0 -134.5 25.5t-95 64.5t-59 91.5t-32 100.5t-8.5 97z" />
    <glyph glyph-name="ccaron" unicode="&#x10d;" horiz-adv-x="506" 
d="M313 582h-95l-96 150h63l81 -96l79 96h64zM470 348h-84q-8 55 -40 84.5t-84 29.5q-68 0 -106.5 -55.5t-38.5 -153.5q0 -93 39 -146t108 -53q107 0 128 126h84q-8 -96 -64 -149.5t-150 -53.5q-107 0 -169.5 74.5t-62.5 201.5q0 130 63.5 208t169.5 78q91 0 145.5 -49
t61.5 -142z" />
    <glyph glyph-name="Dcaron" unicode="&#x10e;" horiz-adv-x="698" 
d="M386 775h-95l-96 125h63l81 -61l79 61h64zM80 0v729h281q139 0 218 -97t79 -267t-79.5 -267.5t-217.5 -97.5h-281zM173 82h172q108 0 164 72t56 210q0 139 -56 211t-164 72h-172v-565z" />
    <glyph glyph-name="dcaron" unicode="&#x10f;" horiz-adv-x="745" 
d="M617 740h103l-119 -148h-50zM499 729v-729h-74v69q-34 -49 -73.5 -70.5t-93.5 -21.5q-106 0 -167 76.5t-61 209.5q0 125 61.5 200.5t163.5 75.5q108 0 161 -81v271h83zM269 461q-68 0 -110 -56t-42 -147q0 -92 42 -147.5t111 -55.5q66 0 106 55t40 146q0 94 -40 149.5
t-107 55.5z" />
    <glyph glyph-name="Dcroat" unicode="&#x110;" horiz-adv-x="707" 
d="M89 339h-69v67h69v323h282q138 0 217 -97t79 -267t-79 -267.5t-217 -97.5h-282v339zM182 339v-257h173q107 0 163 72t56 211t-56 210.5t-163 71.5h-173v-241h171v-67h-171z" />
    <glyph glyph-name="dcroat" unicode="&#x111;" horiz-adv-x="576" 
d="M498 653h63v-53h-63v-600h-74v59q-70 -82 -168 -82q-102 0 -164 78.5t-62 208.5q0 124 61.5 199.5t162.5 75.5q97 0 161 -78v139h-150v53h150v76h83v-76zM269 457q-68 0 -110 -55t-42 -144t42 -144t110 -55q66 0 106 54t40 143q0 92 -39.5 146.5t-106.5 54.5z" />
    <glyph glyph-name="Emacron" unicode="&#x112;" horiz-adv-x="633" 
d="M480 870v-70h-274v70h274zM173 332v-250h430v-82h-523v729h505v-82h-412v-233h397v-82h-397z" />
    <glyph glyph-name="emacron" unicode="&#x113;" horiz-adv-x="533" 
d="M416 681v-70h-274v70h274zM503 234h-386q2 -82 42.5 -131t111.5 -49q102 0 137 105h84q-16 -86 -75 -134t-149 -48q-110 0 -174 74.5t-64 203.5t65.5 206.5t174.5 77.5q233 0 233 -305zM119 302h295q0 68 -41 114t-104 46t-104 -43.5t-46 -116.5z" />
    <glyph glyph-name="Ebreve" unicode="&#x114;" horiz-adv-x="633" 
d="M192 900h59q8 -66 92 -66q40 0 64 17t27 49h59q-11 -135 -152 -135q-36 0 -66 9.5t-56 41.5t-27 84zM173 332v-250h430v-82h-523v729h505v-82h-412v-233h397v-82h-397z" />
    <glyph glyph-name="ebreve" unicode="&#x115;" horiz-adv-x="533" 
d="M129 729h59q8 -66 92 -66q40 0 64 17t27 49h59q-11 -135 -152 -135q-36 0 -66 9.5t-56 41.5t-27 84zM503 234h-386q2 -82 42.5 -131t111.5 -49q102 0 137 105h84q-16 -86 -75 -134t-149 -48q-110 0 -174 74.5t-64 203.5t65.5 206.5t174.5 77.5q233 0 233 -305zM119 302
h295q0 68 -41 114t-104 46t-104 -43.5t-46 -116.5z" />
    <glyph glyph-name="Edotaccent" unicode="&#x116;" horiz-adv-x="633" 
d="M395 899v-104h-104v104h104zM173 332v-250h430v-82h-523v729h505v-82h-412v-233h397v-82h-397z" />
    <glyph glyph-name="edotaccent" unicode="&#x117;" horiz-adv-x="533" 
d="M332 729v-104h-104v104h104zM503 234h-386q2 -82 42.5 -131t111.5 -49q102 0 137 105h84q-16 -86 -75 -134t-149 -48q-110 0 -174 74.5t-64 203.5t65.5 206.5t174.5 77.5q233 0 233 -305zM119 302h295q0 68 -41 114t-104 46t-104 -43.5t-46 -116.5z" />
    <glyph glyph-name="Eogonek" unicode="&#x118;" horiz-adv-x="642" 
d="M566 -205q-56 0 -94 26t-38 68q0 36 25.5 65t71.5 46h-451v729h505v-82h-412v-233h397v-82h-397v-250h430v-82h-2q-55 -31 -74.5 -53t-19.5 -53q0 -54 72 -54q37 0 63 10v-45q-48 -10 -76 -10z" />
    <glyph glyph-name="eogonek" unicode="&#x119;" horiz-adv-x="533" 
d="M493 159q-7 -41 -26 -74t-39.5 -55t-40.5 -42t-33 -44t-13 -53q0 -24 19 -37.5t53 -13.5q38 0 64 10v-45q-41 -9 -69 -9q-63 0 -101 24t-38 64q0 12 2.5 23t8 20t10.5 16t13.5 15t12.5 11l12 9l9 7q-40 -8 -68 -8q-112 0 -175.5 73.5t-63.5 203.5t65.5 207.5t174.5 77.5
q233 0 233 -305h-386q1 -52 16.5 -89.5t39.5 -56t48.5 -26.5t49.5 -8q101 0 138 105h84zM414 302q0 68 -41 114t-104 46t-104 -43.5t-45 -116.5h294z" />
    <glyph glyph-name="Ecaron" unicode="&#x11a;" horiz-adv-x="633" 
d="M391 775h-95l-96 125h63l81 -61l79 61h64zM173 332v-250h430v-82h-523v729h505v-82h-412v-233h397v-82h-397z" />
    <glyph glyph-name="ecaron" unicode="&#x11b;" horiz-adv-x="533" 
d="M334 580h-95l-96 150h63l81 -96l79 96h64zM503 234h-386q2 -82 42.5 -131t111.5 -49q102 0 137 105h84q-16 -86 -75 -134t-149 -48q-110 0 -174 74.5t-64 203.5t65.5 206.5t174.5 77.5q233 0 233 -305zM119 302h295q0 68 -41 114t-104 46t-104 -43.5t-46 -116.5z" />
    <glyph glyph-name="Gcircumflex" unicode="&#x11c;" horiz-adv-x="765" 
d="M346 900h95l96 -125h-63l-81 61l-79 -61h-64zM133 362q0 -38 7 -76.5t25 -80.5t46.5 -73.5t75.5 -52t107 -20.5q100 0 164.5 63t64.5 161v20h-222v82h304v-389h-59l-23 97q-104 -116 -249 -116q-148 0 -241 106t-93 274q0 48 9 96.5t34 101.5t62.5 93t101 66.5
t143.5 26.5q125 0 205.5 -61t99.5 -172h-95q-15 70 -71.5 110.5t-139.5 40.5q-116 0 -186 -81.5t-70 -215.5z" />
    <glyph glyph-name="gcircumflex" unicode="&#x11d;" horiz-adv-x="550" 
d="M233 719h95l96 -150h-63l-81 96l-79 -96h-64zM246 -23q-92 0 -154 75.5t-62 200.5q0 128 61.5 207t161.5 79q98 0 160 -91l-10 76h87v-438q0 -75 -9 -125.5t-33 -93.5t-71.5 -64t-120.5 -21q-92 0 -147 42t-62 116h85q14 -88 127 -88q84 0 115 47.5t31 144.5v27
q-35 -50 -72.5 -72t-86.5 -22zM262 462q-67 0 -106 -55t-39 -149q0 -95 39 -149.5t107 -54.5q66 0 104 53.5t38 147.5q0 98 -37.5 152.5t-105.5 54.5z" />
    <glyph glyph-name="Gbreve" unicode="&#x11e;" horiz-adv-x="765" 
d="M237 900h59q8 -66 92 -66q40 0 64 17t27 49h59q-11 -135 -152 -135q-36 0 -66 9.5t-56 41.5t-27 84zM133 362q0 -38 7 -76.5t25 -80.5t46.5 -73.5t75.5 -52t107 -20.5q100 0 164.5 63t64.5 161v20h-222v82h304v-389h-59l-23 97q-104 -116 -249 -116q-148 0 -241 106
t-93 274q0 48 9 96.5t34 101.5t62.5 93t101 66.5t143.5 26.5q125 0 205.5 -61t99.5 -172h-95q-15 70 -71.5 110.5t-139.5 40.5q-116 0 -186 -81.5t-70 -215.5z" />
    <glyph glyph-name="gbreve" unicode="&#x11f;" horiz-adv-x="550" 
d="M112 730h59q8 -66 92 -66q40 0 64 17t27 49h59q-11 -135 -152 -135q-36 0 -66 9.5t-56 41.5t-27 84zM246 -23q-92 0 -154 75.5t-62 200.5q0 128 61.5 207t161.5 79q98 0 160 -91l-10 76h87v-438q0 -75 -9 -125.5t-33 -93.5t-71.5 -64t-120.5 -21q-92 0 -147 42t-62 116
h85q14 -88 127 -88q84 0 115 47.5t31 144.5v27q-35 -50 -72.5 -72t-86.5 -22zM262 462q-67 0 -106 -55t-39 -149q0 -95 39 -149.5t107 -54.5q66 0 104 53.5t38 147.5q0 98 -37.5 152.5t-105.5 54.5z" />
    <glyph glyph-name="Gdotaccent" unicode="&#x120;" horiz-adv-x="765" 
d="M438 900v-104h-104v104h104zM133 362q0 -38 7 -76.5t25 -80.5t46.5 -73.5t75.5 -52t107 -20.5q100 0 164.5 63t64.5 161v20h-222v82h304v-389h-59l-23 97q-104 -116 -249 -116q-148 0 -241 106t-93 274q0 48 9 96.5t34 101.5t62.5 93t101 66.5t143.5 26.5
q125 0 205.5 -61t99.5 -172h-95q-15 70 -71.5 110.5t-139.5 40.5q-116 0 -186 -81.5t-70 -215.5z" />
    <glyph glyph-name="gdotaccent" unicode="&#x121;" horiz-adv-x="550" 
d="M307 729v-104h-104v104h104zM246 -23q-92 0 -154 75.5t-62 200.5q0 128 61.5 207t161.5 79q98 0 160 -91l-10 76h87v-438q0 -75 -9 -125.5t-33 -93.5t-71.5 -64t-120.5 -21q-92 0 -147 42t-62 116h85q14 -88 127 -88q84 0 115 47.5t31 144.5v27q-35 -50 -72.5 -72
t-86.5 -22zM262 462q-67 0 -106 -55t-39 -149q0 -95 39 -149.5t107 -54.5q66 0 104 53.5t38 147.5q0 98 -37.5 152.5t-105.5 54.5z" />
    <glyph glyph-name="Gcommaaccent" unicode="&#x122;" horiz-adv-x="765" 
d="M325 -76h100v-103q0 -56 -26 -88.5t-72 -32.5h-2v38q55 0 55 78v8h-55v100zM133 362q0 -38 7 -76.5t25 -80.5t46.5 -73.5t75.5 -52t107 -20.5q100 0 164.5 63t64.5 161v20h-222v82h304v-389h-59l-23 97q-104 -116 -249 -116q-148 0 -241 106t-93 274q0 48 9 96.5
t34 101.5t62.5 93t101 66.5t143.5 26.5q125 0 205.5 -61t99.5 -172h-95q-15 70 -71.5 110.5t-139.5 40.5q-116 0 -186 -81.5t-70 -215.5z" />
    <glyph glyph-name="gcommaaccent" unicode="&#x123;" horiz-adv-x="550" 
d="M294 583h-88v73q0 43 23.5 66.5t64.5 23.5v-42q-25 0 -35 -10.5t-10 -36.5h45v-74zM246 -23q-92 0 -154 75.5t-62 200.5q0 128 61.5 207t161.5 79q98 0 160 -91l-10 76h87v-438q0 -75 -9 -125.5t-33 -93.5t-71.5 -64t-120.5 -21q-92 0 -147 42t-62 116h85q14 -88 127 -88
q84 0 115 47.5t31 144.5v27q-35 -50 -72.5 -72t-86.5 -22zM262 462q-67 0 -106 -55t-39 -149q0 -95 39 -149.5t107 -54.5q66 0 104 53.5t38 147.5q0 98 -37.5 152.5t-105.5 54.5z" />
    <glyph glyph-name="Hcircumflex" unicode="&#x124;" horiz-adv-x="721" 
d="M316 900h95l96 -125h-63l-81 61l-79 -61h-64zM548 332h-375v-332h-93v729h93v-315h375v315h93v-729h-93v332z" />
    <glyph glyph-name="hcircumflex" unicode="&#x125;" horiz-adv-x="536" 
d="M246 900h95l96 -150h-63l-81 96l-79 -96h-64zM393 363q0 55 -33.5 79t-74.5 24q-64 0 -103 -48.5t-39 -128.5v-289h-83v729h83v-277q37 48 74.5 67.5t93.5 19.5q76 0 120.5 -38.5t44.5 -104.5v-396h-83v363z" />
    <glyph glyph-name="Hbar" unicode="&#x126;" horiz-adv-x="722" 
d="M172 504v-90h375v90h-375zM79 576v153h93v-153h375v153h93v-153h52v-70h-52v-506h-93v332h-374v-332h-94v506h-49v70h49z" />
    <glyph glyph-name="hbar" unicode="&#x127;" horiz-adv-x="554" 
d="M411 363q0 55 -33.5 79t-74.5 24q-64 0 -103 -48.5t-39 -128.5v-289h-83v600h-63v53h63v76h83v-76h150v-53h-150v-148q37 48 74.5 67.5t93.5 19.5q76 0 120.5 -38.5t44.5 -104.5v-396h-83v363z" />
    <glyph glyph-name="Itilde" unicode="&#x128;" horiz-adv-x="300" 
d="M79 873q25 0 69 -18.5t64 -18.5q25 0 37 37h58q-15 -104 -89 -104q-20 0 -70 19t-64 19q-23 0 -33 -37h-58q8 49 30.5 76t55.5 27zM197 729v-729h-94v729h94z" />
    <glyph glyph-name="itilde" unicode="&#x129;" horiz-adv-x="262" 
d="M60 698q25 0 69 -18.5t64 -18.5q25 0 37 37h58q-15 -104 -89 -104q-20 0 -70 19t-64 19q-23 0 -33 -37h-58q8 49 30.5 76t55.5 27zM173 524v-524h-83v524h83z" />
    <glyph glyph-name="Imacron" unicode="&#x12a;" horiz-adv-x="278" 
d="M276 870v-70h-274v70h274zM194 729v-729h-94v729h94z" />
    <glyph glyph-name="imacron" unicode="&#x12b;" horiz-adv-x="262" 
d="M173 524v-524h-83v524h83zM268 681v-70h-274v70h274z" />
    <glyph glyph-name="Ibreve" unicode="&#x12c;" horiz-adv-x="300" 
d="M-3 900h59q8 -66 92 -66q40 0 64 17t27 49h59q-11 -135 -152 -135q-36 0 -66 9.5t-56 41.5t-27 84zM197 729v-729h-94v729h94z" />
    <glyph glyph-name="ibreve" unicode="&#x12d;" horiz-adv-x="262" 
d="M-15 729h59q8 -66 92 -66q40 0 64 17t27 49h59q-11 -135 -152 -135q-36 0 -66 9.5t-56 41.5t-27 84zM173 524v-524h-83v524h83z" />
    <glyph glyph-name="Iogonek" unicode="&#x12e;" horiz-adv-x="278" 
d="M158 -205q-56 0 -94 26t-38 68q0 36 25.5 65t71.5 46h-23v729h94v-729q-55 -31 -75 -53t-20 -53q0 -54 72 -54q37 0 63 10v-45q-48 -10 -76 -10z" />
    <glyph glyph-name="iogonek" unicode="&#x12f;" horiz-adv-x="262" 
d="M134 -205q-56 0 -94 26t-38 68q0 33 22.5 61t62.5 45v523h83v-524h-12q-48 -28 -65.5 -49t-17.5 -51q0 -54 72 -54q37 0 63 10v-45q-48 -10 -76 -10zM170 729v-105h-84v105h84z" />
    <glyph glyph-name="Idotaccent" unicode="&#x130;" horiz-adv-x="278" 
d="M199 883v-104h-104v104h104zM194 729v-729h-94v729h94z" />
    <glyph glyph-name="dotlessi" unicode="&#x131;" horiz-adv-x="222" 
d="M153 524v-524h-83v524h83z" />
    <glyph glyph-name="Jcircumflex" unicode="&#x134;" horiz-adv-x="528" 
d="M337 900h95l96 -125h-63l-81 61l-79 -61h-64zM239 55q64 0 88 42t24 119v513h93v-547q0 -95 -55.5 -150t-150.5 -55q-94 0 -148.5 52t-54.5 141v64h95v-47q0 -64 28 -98t81 -34z" />
    <glyph glyph-name="jcircumflex" unicode="&#x135;" horiz-adv-x="262" 
d="M90 524h83v-633q0 -109 -143 -109q-13 0 -28 3v71q17 -1 20 -1q38 0 53 15t15 54v600zM83 719h95l96 -150h-63l-81 96l-79 -96h-64z" />
    <glyph glyph-name="Kcommaaccent" unicode="&#x136;" horiz-adv-x="674" 
d="M295 -76h100v-103q0 -56 -26 -88.5t-72 -32.5h-2v38q55 0 55 78v8h-55v100zM173 255v-255h-93v729h93v-369l363 369h120l-297 -297l300 -432h-110l-257 374z" />
    <glyph glyph-name="kcommaaccent" unicode="&#x137;" horiz-adv-x="514" 
d="M227 -76h100v-103q0 -56 -26 -88.5t-72 -32.5h-2v38q55 0 55 78v8h-55v100zM143 729v-427l222 222h107l-182 -181l214 -343h-103l-177 284l-81 -80v-204h-83v729h83z" />
    <glyph glyph-name="kgreenlandic" unicode="&#x138;" horiz-adv-x="514" 
d="M143 524v-222l222 222h107l-272 -260l304 -264h-103l-258 216v-216h-83v524h83z" />
    <glyph glyph-name="Lacute" unicode="&#x139;" horiz-adv-x="563" 
d="M225 900h123l-164 -125h-65zM173 729v-647h360v-82h-453v729h93z" />
    <glyph glyph-name="lacute" unicode="&#x13a;" horiz-adv-x="242" 
d="M119 900h123l-164 -125h-65zM144 729v-729h-84v729h84z" />
    <glyph glyph-name="Lcommaaccent" unicode="&#x13b;" horiz-adv-x="563" 
d="M255 -76h100v-103q0 -56 -26 -88.5t-72 -32.5h-2v38q55 0 55 78v8h-55v100zM173 729v-647h360v-82h-453v729h93z" />
    <glyph glyph-name="lcommaaccent" unicode="&#x13c;" horiz-adv-x="214" 
d="M66 -76h100v-103q0 -56 -26 -88.5t-72 -32.5h-2v38q55 0 55 78v8h-55v100zM144 729v-729h-84v729h84z" />
    <glyph glyph-name="Lcaron" unicode="&#x13d;" horiz-adv-x="563" 
d="M347 740h103l-119 -148h-50zM173 729v-647h360v-82h-453v729h93z" />
    <glyph glyph-name="lcaron" unicode="&#x13e;" horiz-adv-x="385" 
d="M257 740h103l-119 -148h-50zM144 729v-729h-84v729h84z" />
    <glyph glyph-name="Lslash" unicode="&#x141;" horiz-adv-x="612" 
d="M203 406l171 121v-76l-171 -122v-247h379v-82h-472v280l-80 -57v77l80 56v373h93v-323z" />
    <glyph glyph-name="lslash" unicode="&#x142;" horiz-adv-x="252" 
d="M166 421l66 51v-64l-66 -51v-357h-83v313l-63 -50v64l63 50v352h83v-308z" />
    <glyph glyph-name="Nacute" unicode="&#x143;" horiz-adv-x="730" 
d="M395 900h123l-164 -125h-65zM650 729v-729h-105l-377 591v-591h-88v729h101l381 -596v596h88z" />
    <glyph glyph-name="nacute" unicode="&#x144;" horiz-adv-x="537" 
d="M313 740h113l-149 -148h-60zM60 524h77v-88q35 55 75.5 79t98.5 24q76 0 121 -39t45 -104v-396h-83v363q0 47 -29 75t-79 28q-64 0 -103 -48.5t-39 -128.5v-289h-84v524z" />
    <glyph glyph-name="Ncommaaccent" unicode="&#x145;" horiz-adv-x="730" 
d="M305 -76h100v-103q0 -56 -26 -88.5t-72 -32.5h-2v38q55 0 55 78v8h-55v100zM650 729v-729h-105l-377 591v-591h-88v729h101l381 -596v596h88z" />
    <glyph glyph-name="ncommaaccent" unicode="&#x146;" horiz-adv-x="537" 
d="M227 -76h100v-103q0 -56 -26 -88.5t-72 -32.5h-2v38q55 0 55 78v8h-55v100zM60 524h77v-88q35 55 75.5 79t98.5 24q76 0 121 -39t45 -104v-396h-83v363q0 47 -29 75t-79 28q-64 0 -103 -48.5t-39 -128.5v-289h-84v524z" />
    <glyph glyph-name="Ncaron" unicode="&#x147;" horiz-adv-x="730" 
d="M408 775h-95l-96 125h63l81 -61l79 61h64zM650 729v-729h-105l-377 591v-591h-88v729h101l381 -596v596h88z" />
    <glyph glyph-name="ncaron" unicode="&#x148;" horiz-adv-x="537" 
d="M326 581h-95l-96 150h63l81 -96l79 96h64zM60 524h77v-88q35 55 75.5 79t98.5 24q76 0 121 -39t45 -104v-396h-83v363q0 47 -29 75t-79 28q-64 0 -103 -48.5t-39 -128.5v-289h-84v524z" />
    <glyph glyph-name="napostrophe" unicode="&#x149;" horiz-adv-x="647" 
d="M39 728h105v-120q0 -131 -105 -131v38q34 1 44.5 19.5t10.5 71.5v18h-55v104zM170 524h77v-88q35 55 75.5 79t98.5 24q76 0 121 -39t45 -104v-396h-83v363q0 47 -29 75t-79 28q-64 0 -103 -48.5t-39 -128.5v-289h-84v524z" />
    <glyph glyph-name="Eng" unicode="&#x14a;" horiz-adv-x="677" 
d="M382 -16q-21 0 -41 2.5t-30.5 5t-21 5.5t-11.5 3v71q3 0 36 -7t60 -7q63 0 117 94.5t54 239.5q0 78 -20.5 136t-52.5 87.5t-63 43t-59 13.5q-68 0 -122.5 -50t-54.5 -127v-494h-93v729h93v-77q58 92 202 92q41 0 84 -18.5t84 -54.5t67.5 -100.5t26.5 -146.5
q0 -116 -22.5 -204.5t-60.5 -138t-81 -73.5t-91 -24z" />
    <glyph glyph-name="eng" unicode="&#x14b;" horiz-adv-x="537" 
d="M477 396v-505q0 -109 -143 -109q-13 0 -28 3v71q17 -1 20 -1q38 0 53 15t15 54v439q0 47 -29 75t-79 28q-64 0 -103 -48.5t-39 -128.5v-289h-84v524h77v-88q35 55 75.5 79t98.5 24q76 0 121 -39t45 -104z" />
    <glyph glyph-name="Omacron" unicode="&#x14c;" horiz-adv-x="784" 
d="M526 870v-70h-274v70h274zM744 353q0 -162 -96 -269t-256 -107q-158 0 -255 105.5t-97 276.5t97 276.5t254 105.5q160 0 256.5 -106t96.5 -282zM391 659q-116 0 -187 -82.5t-71 -217.5t71.5 -217.5t187.5 -82.5t187.5 82t71.5 214q0 138 -71 221t-189 83z" />
    <glyph glyph-name="omacron" unicode="&#x14d;" horiz-adv-x="534" 
d="M408 681v-70h-274v70h274zM266 539q113 0 175.5 -74.5t62.5 -210.5q0 -129 -63.5 -203t-173.5 -74q-112 0 -174.5 74.5t-62.5 206.5t63 206.5t173 74.5zM267 462q-70 0 -110 -54.5t-40 -149.5t40 -149.5t110 -54.5q69 0 109.5 54.5t40.5 146.5q0 97 -39.5 152t-110.5 55z
" />
    <glyph glyph-name="Obreve" unicode="&#x14e;" horiz-adv-x="784" 
d="M239 900h59q8 -66 92 -66q40 0 64 17t27 49h59q-11 -135 -152 -135q-36 0 -66 9.5t-56 41.5t-27 84zM744 353q0 -162 -96 -269t-256 -107q-158 0 -255 105.5t-97 276.5t97 276.5t254 105.5q160 0 256.5 -106t96.5 -282zM391 659q-116 0 -187 -82.5t-71 -217.5
t71.5 -217.5t187.5 -82.5t187.5 82t71.5 214q0 138 -71 221t-189 83z" />
    <glyph glyph-name="obreve" unicode="&#x14f;" horiz-adv-x="534" 
d="M123 729h59q8 -66 92 -66q40 0 64 17t27 49h59q-11 -135 -152 -135q-36 0 -66 9.5t-56 41.5t-27 84zM266 539q113 0 175.5 -74.5t62.5 -210.5q0 -129 -63.5 -203t-173.5 -74q-112 0 -174.5 74.5t-62.5 206.5t63 206.5t173 74.5zM267 462q-70 0 -110 -54.5t-40 -149.5
t40 -149.5t110 -54.5q69 0 109.5 54.5t40.5 146.5q0 97 -39.5 152t-110.5 55z" />
    <glyph glyph-name="Ohungarumlaut" unicode="&#x150;" horiz-adv-x="784" 
d="M316 900h123l-104 -125h-65zM480 900h123l-127 -125h-65zM744 353q0 -162 -96 -269t-256 -107q-158 0 -255 105.5t-97 276.5t97 276.5t254 105.5q160 0 256.5 -106t96.5 -282zM391 659q-116 0 -187 -82.5t-71 -217.5t71.5 -217.5t187.5 -82.5t187.5 82t71.5 214
q0 138 -71 221t-189 83z" />
    <glyph glyph-name="ohungarumlaut" unicode="&#x151;" horiz-adv-x="534" 
d="M207 740h113l-104 -150h-60zM376 740h113l-129 -150h-60zM266 539q113 0 175.5 -74.5t62.5 -210.5q0 -129 -63.5 -203t-173.5 -74q-112 0 -174.5 74.5t-62.5 206.5t63 206.5t173 74.5zM267 462q-70 0 -110 -54.5t-40 -149.5t40 -149.5t110 -54.5q69 0 109.5 54.5
t40.5 146.5q0 97 -39.5 152t-110.5 55z" />
    <glyph glyph-name="OE" unicode="&#x152;" horiz-adv-x="986" 
d="M40 356q0 88 20 157.5t50.5 111.5t71.5 69t79.5 37t77.5 10q121 0 183 -88v76h429v-82h-336v-238h328v-82h-328v-245h341v-82h-434v74q-67 -94 -184 -94q-40 0 -78.5 10t-79.5 36.5t-71 67t-49.5 108.5t-19.5 154zM133 360q0 -73 13 -128t33.5 -86.5t49 -51t54.5 -26
t55 -6.5q125 0 184 120v357q-59 120 -183 120q-31 0 -57.5 -7t-55 -26.5t-48 -51.5t-32.5 -87t-13 -127z" />
    <glyph glyph-name="oe" unicode="&#x153;" horiz-adv-x="919" 
d="M503 234q1 -52 16 -89.5t39 -56t48.5 -26.5t50.5 -8q102 0 137 105h84q-16 -86 -75 -134t-148 -48q-132 0 -194 103q-63 -103 -194 -103q-113 0 -175 73.5t-62 208.5q0 134 62 207t175 73q135 0 196 -106q31 50 81.5 78t111.5 28q74 0 130.5 -37t81.5 -101
q21 -55 21 -167h-386zM267 462q-70 0 -110 -54.5t-40 -148.5q0 -96 40 -150.5t110 -54.5q69 0 109.5 54t40.5 148q0 97 -40 151.5t-110 54.5zM505 302h294q0 71 -40 115.5t-104 44.5q-63 0 -104 -43.5t-46 -116.5z" />
    <glyph glyph-name="Racute" unicode="&#x154;" horiz-adv-x="709" 
d="M375 900h123l-164 -125h-65zM523 360q32 -14 53.5 -33t31 -43t12.5 -45t3 -50q0 -9 -0.5 -26t-0.5 -25q0 -41 9 -69t35 -46v-23h-113q-20 46 -20 119v65q0 67 -29 98.5t-91 31.5h-240v-314h-93v729h336q107 0 164.5 -50.5t57.5 -144.5q0 -62 -27 -103t-88 -71zM541 521
q0 72 -38 99t-105 27h-225v-251h225q74 0 108.5 30t34.5 95z" />
    <glyph glyph-name="racute" unicode="&#x155;" horiz-adv-x="332" 
d="M218 740h113l-149 -148h-60zM312 451q-84 -2 -126 -39t-42 -140v-272h-84v524h77v-95q36 59 69.5 84.5t73.5 25.5q11 0 32 -3v-85z" />
    <glyph glyph-name="Rcommaaccent" unicode="&#x156;" horiz-adv-x="709" 
d="M315 -76h100v-103q0 -56 -26 -88.5t-72 -32.5h-2v38q55 0 55 78v8h-55v100zM523 360q32 -14 53.5 -33t31 -43t12.5 -45t3 -50q0 -9 -0.5 -26t-0.5 -25q0 -41 9 -69t35 -46v-23h-113q-20 46 -20 119v65q0 67 -29 98.5t-91 31.5h-240v-314h-93v729h336q107 0 164.5 -50.5
t57.5 -144.5q0 -62 -27 -103t-88 -71zM541 521q0 72 -38 99t-105 27h-225v-251h225q74 0 108.5 30t34.5 95z" />
    <glyph glyph-name="rcommaaccent" unicode="&#x157;" horiz-adv-x="332" 
d="M70 -76h100v-103q0 -56 -26 -88.5t-72 -32.5h-2v38q55 0 55 78v8h-55v100zM312 451q-84 -2 -126 -39t-42 -140v-272h-84v524h77v-95q36 59 69.5 84.5t73.5 25.5q11 0 32 -3v-85z" />
    <glyph glyph-name="Rcaron" unicode="&#x158;" horiz-adv-x="709" 
d="M404 775h-95l-96 125h63l81 -61l79 61h64zM523 360q32 -14 53.5 -33t31 -43t12.5 -45t3 -50q0 -9 -0.5 -26t-0.5 -25q0 -41 9 -69t35 -46v-23h-113q-20 46 -20 119v65q0 67 -29 98.5t-91 31.5h-240v-314h-93v729h336q107 0 164.5 -50.5t57.5 -144.5q0 -62 -27 -103
t-88 -71zM541 521q0 72 -38 99t-105 27h-225v-251h225q74 0 108.5 30t34.5 95z" />
    <glyph glyph-name="rcaron" unicode="&#x159;" horiz-adv-x="332" 
d="M236 591h-95l-96 150h63l81 -96l79 96h64zM312 451q-84 -2 -126 -39t-42 -140v-272h-84v524h77v-95q36 59 69.5 84.5t73.5 25.5q11 0 32 -3v-85z" />
    <glyph glyph-name="Sacute" unicode="&#x15a;" horiz-adv-x="667" 
d="M365 900h123l-164 -125h-65zM342 59q56 0 95 13t57.5 34t26 41.5t7.5 43.5q0 83 -134 118l-181 48q-143 37 -143 170q0 99 69.5 156.5t189.5 57.5q126 0 196 -59.5t71 -166.5h-88q-1 71 -48 109.5t-134 38.5q-74 0 -118.5 -34t-44.5 -89q0 -42 27 -66t93 -42l183 -49
q74 -20 114.5 -68t40.5 -115q0 -29 -7.5 -57.5t-27.5 -59t-51 -53.5t-82.5 -38t-116.5 -15q-41 0 -78.5 6.5t-76.5 24t-67 45t-46.5 73.5t-19.5 106h88v-5q0 -31 9.5 -58t31 -53t64 -41.5t101.5 -15.5z" />
    <glyph glyph-name="sacute" unicode="&#x15b;" horiz-adv-x="493" 
d="M274 740h113l-149 -148h-60zM122 156q6 -47 32.5 -74.5t95.5 -27.5q55 0 88.5 22.5t33.5 59.5q0 29 -19 46t-62 27l-78 19q-93 22 -129.5 55.5t-36.5 95.5q0 73 55 116.5t146 43.5t140 -42t50 -119h-88q-3 84 -105 84q-51 0 -81 -21.5t-30 -57.5q0 -28 23 -45.5t74 -29.5
l80 -19q78 -19 113 -53.5t35 -92.5q0 -76 -58.5 -121t-157.5 -45q-203 0 -209 179h88z" />
    <glyph glyph-name="Scircumflex" unicode="&#x15c;" horiz-adv-x="667" 
d="M286 900h95l96 -125h-63l-81 61l-79 -61h-64zM342 59q56 0 95 13t57.5 34t26 41.5t7.5 43.5q0 83 -134 118l-181 48q-143 37 -143 170q0 99 69.5 156.5t189.5 57.5q126 0 196 -59.5t71 -166.5h-88q-1 71 -48 109.5t-134 38.5q-74 0 -118.5 -34t-44.5 -89q0 -42 27 -66
t93 -42l183 -49q74 -20 114.5 -68t40.5 -115q0 -29 -7.5 -57.5t-27.5 -59t-51 -53.5t-82.5 -38t-116.5 -15q-41 0 -78.5 6.5t-76.5 24t-67 45t-46.5 73.5t-19.5 106h88v-5q0 -31 9.5 -58t31 -53t64 -41.5t101.5 -15.5z" />
    <glyph glyph-name="scircumflex" unicode="&#x15d;" horiz-adv-x="493" 
d="M202 720h95l96 -150h-63l-81 96l-79 -96h-64zM122 156q6 -47 32.5 -74.5t95.5 -27.5q55 0 88.5 22.5t33.5 59.5q0 29 -19 46t-62 27l-78 19q-93 22 -129.5 55.5t-36.5 95.5q0 73 55 116.5t146 43.5t140 -42t50 -119h-88q-3 84 -105 84q-51 0 -81 -21.5t-30 -57.5
q0 -28 23 -45.5t74 -29.5l80 -19q78 -19 113 -53.5t35 -92.5q0 -76 -58.5 -121t-157.5 -45q-203 0 -209 179h88z" />
    <glyph glyph-name="Scedilla" unicode="&#x15e;" horiz-adv-x="667" 
d="M342 59q56 0 95 13t57.5 34t26 41.5t7.5 43.5q0 83 -134 118l-181 48q-143 37 -143 170q0 99 69.5 156.5t189.5 57.5q126 0 196 -59.5t71 -166.5h-88q-1 71 -48 109.5t-134 38.5q-74 0 -118.5 -34t-44.5 -89q0 -42 27 -66t93 -42l183 -49q74 -20 114.5 -68t40.5 -115
q0 -40 -12 -74.5t-41.5 -68.5t-89 -55.5t-143.5 -25.5l-15 -32q14 2 28 2q38 0 58.5 -17.5t20.5 -49.5q0 -43 -33 -68t-90 -25q-47 0 -125 34l21 40q7 -3 22.5 -10.5t24.5 -11.5t23 -7.5t28 -3.5q23 0 38.5 13t15.5 32q0 37 -46 37q-14 0 -31 -7l-11 6l31 69q-9 3 -11 3
l-44 7q-89 19 -140.5 83t-51.5 155v7h88v-5q0 -31 9.5 -58t31 -53t64 -41.5t101.5 -15.5z" />
    <glyph glyph-name="scedilla" unicode="&#x15f;" horiz-adv-x="493" 
d="M122 156q6 -47 32.5 -74.5t95.5 -27.5q55 0 88.5 22.5t33.5 59.5q0 29 -19 46t-62 27l-78 19q-93 22 -129.5 55.5t-36.5 95.5q0 73 55 116.5t146 43.5t140 -42t50 -119h-88q-3 84 -105 84q-51 0 -81 -21.5t-30 -57.5q0 -28 23 -45.5t74 -29.5l80 -19q78 -19 113 -53.5
t35 -92.5q0 -47 -26 -86t-72 -59q-38 -17 -117 -22l-14 -32q14 2 28 2q38 0 58.5 -17.5t20.5 -49.5q0 -43 -33 -68t-90 -25q-47 0 -125 34l21 40q7 -3 22.5 -10.5t24.5 -11.5t23 -7.5t28 -3.5q23 0 38.5 13t15.5 32q0 37 -46 37q-14 0 -31 -7l-11 6l31 71q-168 17 -171 177
h88z" />
    <glyph glyph-name="Scaron" unicode="&#x160;" horiz-adv-x="667" 
d="M379 775h-95l-96 125h63l81 -61l79 61h64zM342 59q56 0 95 13t57.5 34t26 41.5t7.5 43.5q0 83 -134 118l-181 48q-143 37 -143 170q0 99 69.5 156.5t189.5 57.5q126 0 196 -59.5t71 -166.5h-88q-1 71 -48 109.5t-134 38.5q-74 0 -118.5 -34t-44.5 -89q0 -42 27 -66
t93 -42l183 -49q74 -20 114.5 -68t40.5 -115q0 -29 -7.5 -57.5t-27.5 -59t-51 -53.5t-82.5 -38t-116.5 -15q-41 0 -78.5 6.5t-76.5 24t-67 45t-46.5 73.5t-19.5 106h88v-5q0 -31 9.5 -58t31 -53t64 -41.5t101.5 -15.5z" />
    <glyph glyph-name="scaron" unicode="&#x161;" horiz-adv-x="493" 
d="M294 583h-95l-96 150h63l81 -96l79 96h64zM122 156q6 -47 32.5 -74.5t95.5 -27.5q55 0 88.5 22.5t33.5 59.5q0 29 -19 46t-62 27l-78 19q-93 22 -129.5 55.5t-36.5 95.5q0 73 55 116.5t146 43.5t140 -42t50 -119h-88q-3 84 -105 84q-51 0 -81 -21.5t-30 -57.5
q0 -28 23 -45.5t74 -29.5l80 -19q78 -19 113 -53.5t35 -92.5q0 -76 -58.5 -121t-157.5 -45q-203 0 -209 179h88z" />
    <glyph glyph-name="Tcedilla" unicode="&#x162;" horiz-adv-x="632" 
d="M197 -139q9 -4 25.5 -12t25 -11.5t21.5 -6.5t26 -3q23 0 38.5 13t15.5 32q0 37 -46 37q-15 0 -31 -8l-12 7l42 91h-32v647h-240v82h572v-82h-239v-647h-23l-23 -55q13 2 28 2q38 0 58.5 -17.5t20.5 -49.5q0 -43 -33 -68t-90 -25q-47 0 -125 34z" />
    <glyph glyph-name="tcedilla" unicode="&#x163;" horiz-adv-x="284" 
d="M72 -153q9 -4 25.5 -12t25 -11.5t21.5 -6.5t26 -3q23 0 38.5 13t15.5 32q0 37 -46 37q-15 0 -31 -8l-12 7l38 83q-40 4 -61 25t-21 57v396h-71v68h71v144h83v-144h86v-68h-86v-359q0 -28 9.5 -37.5t36.5 -9.5q25 0 40 4v-70q-28 -5 -49 -6l-19 -47q13 2 28 2
q38 0 58.5 -17.5t20.5 -49.5q0 -43 -33 -68t-90 -25q-47 0 -125 34z" />
    <glyph glyph-name="Tcaron" unicode="&#x164;" horiz-adv-x="632" 
d="M355 775h-95l-96 125h63l81 -61l79 61h64zM363 647v-647h-93v647h-240v82h572v-82h-239z" />
    <glyph glyph-name="tcaron" unicode="&#x165;" horiz-adv-x="440" 
d="M307 740h103l-119 -148h-50zM260 524v-68h-86v-359q0 -28 9.5 -37.5t36.5 -9.5q25 0 40 4v-70q-39 -7 -68 -7q-49 0 -75 21.5t-26 61.5v396h-71v68h71v144h83v-144h86z" />
    <glyph glyph-name="Tbar" unicode="&#x166;" horiz-adv-x="632" 
d="M129 357v72h141v218h-240v82h572v-82h-239v-218h141v-72h-141v-357h-93v357h-141z" />
    <glyph glyph-name="tbar" unicode="&#x167;" horiz-adv-x="285" 
d="M265 524v-68h-86v-144h79v-72h-79v-143q0 -28 9.5 -37.5t36.5 -9.5q25 0 40 4v-70q-39 -7 -68 -7q-49 0 -75 21.5t-26 61.5v180h-76v72h76v144h-71v68h71v144h83v-144h86z" />
    <glyph glyph-name="Utilde" unicode="&#x168;" horiz-adv-x="720" 
d="M294 873q25 0 69 -18.5t64 -18.5q25 0 37 37h58q-15 -104 -89 -104q-20 0 -70 19t-64 19q-23 0 -33 -37h-58q8 49 30.5 76t55.5 27zM547 729h93v-512q0 -110 -76.5 -175t-204.5 -65q-130 0 -204.5 64.5t-74.5 175.5v512h93v-512q0 -79 50.5 -118.5t135.5 -39.5
q88 0 138 42t50 116v512z" />
    <glyph glyph-name="utilde" unicode="&#x169;" horiz-adv-x="537" 
d="M203 703q25 0 69 -18.5t64 -18.5q25 0 37 37h58q-15 -104 -89 -104q-20 0 -70 19t-64 19q-23 0 -33 -37h-58q8 49 30.5 76t55.5 27zM477 0h-75v73q-37 -52 -77 -74t-98 -22q-76 0 -121.5 39t-45.5 104v404h83v-371q0 -47 29 -75t79 -28q65 0 104 48.5t39 128.5v297h83
v-524z" />
    <glyph glyph-name="Umacron" unicode="&#x16a;" horiz-adv-x="720" 
d="M502 870v-70h-274v70h274zM547 729h93v-512q0 -110 -76.5 -175t-204.5 -65q-130 0 -204.5 64.5t-74.5 175.5v512h93v-512q0 -79 50.5 -118.5t135.5 -39.5q88 0 138 42t50 116v512z" />
    <glyph glyph-name="umacron" unicode="&#x16b;" horiz-adv-x="537" 
d="M410 681v-70h-274v70h274zM477 0h-75v73q-37 -52 -77 -74t-98 -22q-76 0 -121.5 39t-45.5 104v404h83v-371q0 -47 29 -75t79 -28q65 0 104 48.5t39 128.5v297h83v-524z" />
    <glyph glyph-name="Ubreve" unicode="&#x16c;" horiz-adv-x="720" 
d="M215 900h59q8 -66 92 -66q40 0 64 17t27 49h59q-11 -135 -152 -135q-36 0 -66 9.5t-56 41.5t-27 84zM547 729h93v-512q0 -110 -76.5 -175t-204.5 -65q-130 0 -204.5 64.5t-74.5 175.5v512h93v-512q0 -79 50.5 -118.5t135.5 -39.5q88 0 138 42t50 116v512z" />
    <glyph glyph-name="ubreve" unicode="&#x16d;" horiz-adv-x="537" 
d="M123 727h59q8 -66 92 -66q40 0 64 17t27 49h59q-11 -135 -152 -135q-36 0 -66 9.5t-56 41.5t-27 84zM477 0h-75v73q-37 -52 -77 -74t-98 -22q-76 0 -121.5 39t-45.5 104v404h83v-371q0 -47 29 -75t79 -28q65 0 104 48.5t39 128.5v297h83v-524z" />
    <glyph glyph-name="Uring" unicode="&#x16e;" horiz-adv-x="720" 
d="M365 965q44 0 75 -31t31 -75q0 -43 -31.5 -73.5t-74.5 -30.5t-74.5 31t-31.5 74q0 42 31.5 73.5t74.5 31.5zM365 903q-18 0 -31 -13t-13 -30q0 -18 13 -31t31 -13t31 13t13 30q0 19 -12.5 31.5t-31.5 12.5zM547 729h93v-512q0 -110 -76.5 -175t-204.5 -65
q-130 0 -204.5 64.5t-74.5 175.5v512h93v-512q0 -79 50.5 -118.5t135.5 -39.5q88 0 138 42t50 116v512z" />
    <glyph glyph-name="uring" unicode="&#x16f;" horiz-adv-x="537" 
d="M273 772q44 0 75 -31t31 -75q0 -43 -31.5 -73.5t-74.5 -30.5t-74.5 31t-31.5 74q0 42 31.5 73.5t74.5 31.5zM273 710q-18 0 -31 -13t-13 -30q0 -18 13 -31t31 -13t31 13t13 30q0 19 -12.5 31.5t-31.5 12.5zM477 0h-75v73q-37 -52 -77 -74t-98 -22q-76 0 -121.5 39
t-45.5 104v404h83v-371q0 -47 29 -75t79 -28q65 0 104 48.5t39 128.5v297h83v-524z" />
    <glyph glyph-name="Uhungarumlaut" unicode="&#x170;" horiz-adv-x="720" 
d="M276 900h123l-104 -125h-65zM440 900h123l-127 -125h-65zM547 729h93v-512q0 -110 -76.5 -175t-204.5 -65q-130 0 -204.5 64.5t-74.5 175.5v512h93v-512q0 -79 50.5 -118.5t135.5 -39.5q88 0 138 42t50 116v512z" />
    <glyph glyph-name="uhungarumlaut" unicode="&#x171;" horiz-adv-x="537" 
d="M183 731h113l-104 -150h-60zM352 731h113l-129 -150h-60zM477 0h-75v73q-37 -52 -77 -74t-98 -22q-76 0 -121.5 39t-45.5 104v404h83v-371q0 -47 29 -75t79 -28q65 0 104 48.5t39 128.5v297h83v-524z" />
    <glyph glyph-name="Uogonek" unicode="&#x172;" horiz-adv-x="720" 
d="M522 -205q-57 0 -95 26t-38 67q0 31 17 54.5t56 47.5q-57 -13 -101 -13q-131 0 -206 64t-75 176v512h93v-512q0 -79 50.5 -118.5t135.5 -39.5q88 0 138 42t50 116v512h93v-512q0 -52 -18.5 -95.5t-44.5 -72t-52 -52.5t-44.5 -50t-18.5 -53q0 -54 72 -54q37 0 63 10v-45
q-48 -10 -75 -10z" />
    <glyph glyph-name="uogonek" unicode="&#x173;" horiz-adv-x="537" 
d="M477 524v-524q-35 -20 -56 -49.5t-21 -58.5q0 -24 18 -38t49 -14q23 0 49 10v-45q-5 -1 -24.5 -5t-27.5 -4q-62 0 -99 25t-37 68q0 62 96 111h-22v73q-37 -52 -77 -74t-98 -22q-76 0 -121.5 39t-45.5 104v404h83v-371q0 -47 29 -75t79 -28q65 0 104 48.5t39 128.5v297h83
z" />
    <glyph glyph-name="Wcircumflex" unicode="&#x174;" horiz-adv-x="937" 
d="M426 900h95l96 -125h-63l-81 61l-79 -61h-64zM737 0h-102l-168 599l-163 -599h-102l-187 729h104l137 -592l162 592h100l166 -592l134 592h104z" />
    <glyph glyph-name="wcircumflex" unicode="&#x175;" horiz-adv-x="722" 
d="M310 721h95l96 -150h-63l-81 96l-79 -96h-64zM558 0h-95l-106 411l-101 -411h-94l-152 524h92l107 -408l100 408h102l103 -408l104 408h94z" />
    <glyph glyph-name="Ycircumflex" unicode="&#x176;" horiz-adv-x="678" 
d="M288 900h95l96 -125h-63l-81 61l-79 -61h-64zM389 286v-286h-93v286l-281 443h115l214 -355l208 355h111z" />
    <glyph glyph-name="ycircumflex" unicode="&#x177;" horiz-adv-x="478" 
d="M202 719h95l96 -150h-63l-81 96l-79 -96h-64zM378 524h90l-233 -634q-41 -108 -135 -108q-31 0 -56 13v75q27 -6 44 -6q26 0 41 11.5t26 39.5l32 83l-177 526h89l134 -408z" />
    <glyph glyph-name="Ydieresis" unicode="&#x178;" horiz-adv-x="678" 
d="M482 881v-104h-104v104h104zM303 881v-104h-104v104h104zM389 286v-286h-93v286l-281 443h115l214 -355l208 355h111z" />
    <glyph glyph-name="Zacute" unicode="&#x179;" horiz-adv-x="615" 
d="M355 900h123l-164 -125h-65zM583 729v-84l-436 -563h438v-82h-555v82l438 565h-410v82h525z" />
    <glyph glyph-name="zacute" unicode="&#x17a;" horiz-adv-x="486" 
d="M283 740h113l-149 -148h-60zM442 524v-74l-311 -377h325v-73h-426v75l313 376h-292v73h391z" />
    <glyph glyph-name="Zdotaccent" unicode="&#x17b;" horiz-adv-x="615" 
d="M371 881v-104h-104v104h104zM583 729v-84l-436 -563h438v-82h-555v82l438 565h-410v82h525z" />
    <glyph glyph-name="zdotaccent" unicode="&#x17c;" horiz-adv-x="486" 
d="M299 729v-104h-104v104h104zM442 524v-74l-311 -377h325v-73h-426v75l313 376h-292v73h391z" />
    <glyph glyph-name="Zcaron" unicode="&#x17d;" horiz-adv-x="615" 
d="M367 775h-95l-96 125h63l81 -61l79 61h64zM583 729v-84l-436 -563h438v-82h-555v82l438 565h-410v82h525z" />
    <glyph glyph-name="zcaron" unicode="&#x17e;" horiz-adv-x="486" 
d="M298 583h-95l-96 150h63l81 -96l79 96h64zM442 524v-74l-311 -377h325v-73h-426v75l313 376h-292v73h391z" />
    <glyph glyph-name="longs" unicode="&#x17f;" horiz-adv-x="280" 
d="M173 0h-83v456h-70v68h70v89q0 56 32.5 87.5t90.5 31.5q23 0 47 -5v-69q-19 1 -29 1q-58 0 -58 -53v-606z" />
    <glyph glyph-name="uni0180" unicode="&#x180;" horiz-adv-x="581" 
d="M83 653v76h83v-76h150v-53h-150v-139q64 78 161 78q101 0 162.5 -75.5t61.5 -199.5q0 -130 -62 -208.5t-164 -78.5q-98 0 -168 82v-59h-74v600h-63v53h63zM312 457q-67 0 -106.5 -54.5t-39.5 -146.5q0 -89 40 -143t106 -54q68 0 110 55t42 144t-42 144t-110 55z" />
    <glyph glyph-name="uni0181" unicode="&#x181;" horiz-adv-x="842" 
d="M578 82q49 0 80 21.5t41 47.5t10 56q0 57 -34 91.5t-97 34.5h-227v-251h227zM677 531q0 116 -146 116h-180v-232h180q146 0 146 116zM163 448q-123 0 -123 154q0 49 30.5 88t101.5 39h382q61 0 106 -18t67.5 -47.5t32.5 -59t10 -60.5q0 -112 -101 -159q70 -27 101.5 -69
t31.5 -108q0 -94 -59 -151t-156 -57h-329v642h-82q-49 0 -49 -58q0 -23 13.5 -38t40.5 -15q2 0 10 0.5t19 0.5v-79q-24 -5 -47 -5z" />
    <glyph glyph-name="uni0182" unicode="&#x182;" horiz-adv-x="664" 
d="M624 218q0 -36 -10 -71t-32.5 -69.5t-67 -56t-105.5 -21.5h-329v729h489v-82h-396v-212h180q271 0 271 -215v-2zM531 217q0 23 -5.5 44t-18 43t-40.5 35.5t-67 13.5h-227v-271h227q39 0 67 13t40.5 35.5t18 43t5.5 43.5z" />
    <glyph glyph-name="uni0183" unicode="&#x183;" horiz-adv-x="559" 
d="M289 461q-66 0 -106 -55.5t-40 -147.5t40 -147.5t106 -55.5q68 0 110.5 55.5t42.5 144.5q0 94 -41.5 150t-111.5 56zM60 0v729h391v-73h-308v-203q57 86 162 86q104 0 164 -74t60 -201q0 -130 -62 -208.5t-166 -78.5q-107 0 -166 90v-67h-75z" />
    <glyph glyph-name="uni0184" unicode="&#x184;" horiz-adv-x="713" 
d="M222 82h212q64 0 105 41t41 102q0 64 -40.5 104t-105.5 40h-212v-287zM129 729h93v-278h165q150 0 218 -60t68 -162v-3q0 -99 -65 -162.5t-165 -63.5h-314v451l-128 139z" />
    <glyph glyph-name="uni0185" unicode="&#x185;" horiz-adv-x="593" 
d="M323 461q-66 0 -106 -55.5t-40 -147.5t40 -147.5t106 -55.5q68 0 110.5 55.5t42.5 144.5q0 94 -41.5 150t-111.5 56zM94 729h83v-276q57 86 162 86q104 0 164 -74t60 -201q0 -130 -62 -208.5t-166 -78.5q-107 0 -166 90v-67h-75v451l-93 139z" />
    <glyph glyph-name="uni0186" unicode="&#x186;" horiz-adv-x="709" 
d="M669 362q0 -50 -8.5 -99t-32.5 -102t-59.5 -92.5t-96 -65.5t-136.5 -26q-238 0 -281 238h95q16 -78 63 -117t134 -39q106 0 167.5 81t61.5 221q0 137 -64 217.5t-173 80.5q-90 0 -138 -50.5t-65 -156.5h-96q33 289 300 289q75 0 134.5 -25.5t95 -64.5t59 -91.5t32 -100.5
t8.5 -97z" />
    <glyph glyph-name="uni0187" unicode="&#x187;" horiz-adv-x="771" 
d="M40 356q0 50 8.5 99t32.5 102t59.5 92.5t96 65.5t136.5 26q138 0 210 -79q31 59 111 59q23 0 47 -5v-79q-19 1 -29 1q-30 0 -44 -12t-14 -41v-82h-95q-16 78 -63 117t-134 39q-106 0 -167.5 -81t-61.5 -221q0 -137 64 -217.5t173 -80.5q90 0 138 50.5t65 156.5h96
q-33 -289 -300 -289q-75 0 -134.5 25.5t-95 64.5t-59 91.5t-32 100.5t-8.5 97z" />
    <glyph glyph-name="uni0188" unicode="&#x188;" horiz-adv-x="577" 
d="M403 494q25 62 107 62q23 0 47 -5v-69q-19 1 -29 1q-30 0 -44 -12t-14 -41v-82h-84q-8 55 -40 84.5t-84 29.5q-68 0 -106.5 -55.5t-38.5 -153.5q0 -93 39 -146t108 -53q107 0 128 126h84q-8 -96 -64 -149.5t-150 -53.5q-107 0 -169.5 74.5t-62.5 201.5q0 130 63.5 208
t169.5 78q84 0 140 -45z" />
    <glyph glyph-name="uni0189" unicode="&#x189;" horiz-adv-x="707" 
d="M89 339h-69v67h69v323h282q138 0 217 -97t79 -267t-79 -267.5t-217 -97.5h-282v339zM182 339v-257h173q107 0 163 72t56 211t-56 210.5t-163 71.5h-173v-241h171v-67h-171z" />
    <glyph glyph-name="uni018A" unicode="&#x18a;" horiz-adv-x="876" 
d="M351 82h172q108 0 164 72t56 210q0 139 -56 211t-164 72h-172v-565zM163 448q-123 0 -123 154q0 49 30.5 88t101.5 39h367q139 0 218 -97t79 -267t-79.5 -267.5t-217.5 -97.5h-281v642h-82q-49 0 -49 -58q0 -23 13.5 -38t40.5 -15q2 0 10 0.5t19 0.5v-79q-24 -5 -47 -5z
" />
    <glyph glyph-name="uni018B" unicode="&#x18b;" horiz-adv-x="664" 
d="M40 218v2q0 215 271 215h180v212h-396v82h489v-729h-329q-61 0 -105.5 21.5t-67 56t-32.5 69.5t-10 71zM133 217q0 -23 5.5 -43.5t18 -43t40.5 -35.5t67 -13h227v271h-227q-39 0 -67 -13.5t-40.5 -35.5t-18 -43t-5.5 -44z" />
    <glyph glyph-name="uni018C" unicode="&#x18c;" horiz-adv-x="559" 
d="M270 461q-70 0 -111.5 -56t-41.5 -150q0 -89 42.5 -144.5t110.5 -55.5q66 0 106 55.5t40 147.5t-40 147.5t-106 55.5zM499 0h-75v67q-59 -90 -166 -90q-104 0 -166 78.5t-62 208.5q0 127 60 201t164 74q105 0 162 -86v203h-308v73h391v-729z" />
    <glyph glyph-name="uni018D" unicode="&#x18d;" horiz-adv-x="552" 
d="M522 290q0 -115 -59 -186t-154 -71q-10 0 -34 4l211 -162v-72h-398v72h269l-175 138q-25 20 -36 29t-37.5 37.5t-40.5 53.5t-26 65t-12 84q0 75 24.5 130t64.5 83t81 40.5t84 12.5q32 0 62.5 -7t63 -25t57 -46t40 -74.5t15.5 -105.5zM278 100q70 0 111 51.5t43 130.5
q0 91 -40 137.5t-108 46.5q-79 0 -122.5 -49.5t-43.5 -136.5q0 -82 41 -131t119 -49z" />
    <glyph glyph-name="uni018E" unicode="&#x18e;" horiz-adv-x="633" 
d="M460 332h-397v82h397v233h-412v82h505v-729h-523v82h430v250z" />
    <glyph glyph-name="uni018F" unicode="&#x18f;" horiz-adv-x="710" 
d="M148 252q5 -33 10 -55.5t18.5 -51t32.5 -45.5t52.5 -29t78.5 -12q86 0 144.5 51t80.5 142h-417zM670 356q0 -49 -8.5 -97t-32 -100.5t-59 -91.5t-95 -64.5t-134.5 -25.5q-300 0 -301 357h536q1 8 1 23q0 140 -61.5 221t-167.5 81q-87 0 -134 -38.5t-63 -117.5h-95
q43 238 281 238q76 0 136.5 -26t96 -65.5t59.5 -92.5t32.5 -102t8.5 -99z" />
    <glyph glyph-name="Epsilonlatin" unicode="&#x190;" horiz-adv-x="653" 
d="M325 -23q-81 0 -140 21.5t-89 57t-43 71t-13 73.5q0 125 130 174q-105 45 -105 153q0 99 69.5 156.5t189.5 57.5q126 0 196 -59.5t71 -166.5h-88q-1 71 -48 109.5t-134 38.5q-74 0 -118.5 -34t-44.5 -89q0 -46 47.5 -91.5t110.5 -45.5h88v-82h-108q-67 0 -115 -42
t-48 -88q0 -22 7.5 -42.5t26 -42t57.5 -34.5t95 -13q59 0 101.5 15t64 41t31 53.5t9.5 58.5v5h88q-1 -74 -28 -126.5t-71.5 -79t-90.5 -38t-98 -11.5z" />
    <glyph glyph-name="uni0191" unicode="&#x191;" horiz-adv-x="609" 
d="M90 -76v805h489v-82h-396v-233h348v-82h-348v-441q0 -53 -40.5 -81t-112.5 -28q-13 0 -28 3v81q17 -1 20 -1q68 0 68 59z" />
    <glyph glyph-name="florin" unicode="&#x192;" horiz-adv-x="278" 
d="M258 524v-68h-87v-565q0 -109 -143 -109q-13 0 -28 3v71q17 -1 20 -1q38 0 53 15t15 54v532h-70v68h70v89q0 56 32.5 87.5t90.5 31.5q23 0 47 -5v-69q-19 1 -29 1q-58 0 -58 -53v-82h87z" />
    <glyph glyph-name="uni0193" unicode="&#x193;" horiz-adv-x="812" 
d="M133 362q0 -38 7 -76.5t25 -80.5t46.5 -73.5t75.5 -52t107 -20.5q100 0 164.5 63t64.5 161v20h-222v82h304v-389h-59l-23 97q-104 -116 -249 -116q-148 0 -241 106t-93 274q0 48 9 96.5t34 101.5t62.5 93t101 66.5t143.5 26.5q146 0 230 -82q28 67 115 67q23 0 47 -5v-79
q-19 1 -29 1q-30 0 -44 -12t-14 -41v-82h-95q-15 70 -71.5 110.5t-139.5 40.5q-116 0 -186 -81.5t-70 -215.5z" />
    <glyph glyph-name="uni0194" unicode="&#x194;" horiz-adv-x="678" 
d="M344 67q29 0 29 36q0 35 -28 91q-32 -59 -32 -91q0 -18 9.5 -27t21.5 -9zM219 102q0 31 12 62t65 122l-281 443h115l214 -355l208 355h111l-274 -443q77 -103 77 -176q0 -62 -36 -99.5t-86 -37.5q-44 0 -74.5 26.5t-40.5 54t-10 48.5z" />
    <glyph glyph-name="uni0195" unicode="&#x195;" horiz-adv-x="853" 
d="M549 -23h-55q-49 0 -75 21.5t-26 61.5v303q0 55 -33.5 79t-74.5 24q-64 0 -103 -48.5t-39 -128.5v-289h-83v729h83v-277q37 48 74.5 67.5t93.5 19.5q76 0 120.5 -38.5t44.5 -104.5v-299q0 -47 73 -47q45 0 80 17.5t54 42t31 55t16 52t4 37.5q0 46 -26.5 104t-98.5 109
l102 4q49 -38 80.5 -100.5t31.5 -121.5q0 -19 -7 -49t-26.5 -70t-49 -73t-79.5 -56.5t-112 -23.5z" />
    <glyph glyph-name="uni0196" unicode="&#x196;" horiz-adv-x="256" 
d="M149 729v-632q0 -28 9.5 -37.5t36.5 -9.5q25 0 40 4v-70q-39 -7 -68 -7q-49 0 -75 21.5t-26 61.5v669h83z" />
    <glyph glyph-name="uni0197" unicode="&#x197;" horiz-adv-x="363" 
d="M134 339h-119v67h119v323h94v-323h120v-67h-120v-339h-94v339z" />
    <glyph glyph-name="uni0198" unicode="&#x198;" horiz-adv-x="673" 
d="M173 255v-255h-93v729h93v-369l288 295q65 61 126 61q52 0 86 -31l-56 -62q-10 10 -26 10q-32 0 -63 -31l-169 -170l300 -432h-110l-257 374z" />
    <glyph glyph-name="uni0199" unicode="&#x199;" horiz-adv-x="514" 
d="M60 0v613q0 56 32.5 87.5t90.5 31.5q23 0 47 -5v-69q-19 1 -29 1q-58 0 -58 -53v-304l222 222h107l-182 -181l214 -343h-103l-177 284l-81 -80v-204h-83z" />
    <glyph glyph-name="lbar" unicode="&#x19a;" horiz-adv-x="345" 
d="M130 339h-124v67h124v323h84v-323h125v-67h-125v-339h-84v339z" />
    <glyph glyph-name="lambdastroke" unicode="&#x19b;" horiz-adv-x="546" 
d="M112 732q42 0 71 -18t59 -71l136 95v-76l-111 -77l187 -493q8 -19 28 -19q5 0 18 4t16 7l20 -70q-48 -24 -81 -24q-25 0 -41.5 12t-23.5 25.5t-16 40.5l-122 354l-146 -420h-96l198 520l-6 18l-168 -116v77q5 0 144 98q-16 29 -34.5 38t-43.5 9l-54 -8l10 82q33 12 56 12
z" />
    <glyph glyph-name="uni019C" unicode="&#x19c;" horiz-adv-x="864" 
d="M784 0h-83v74q-34 -47 -71.5 -68t-89.5 -21q-97 0 -141 80q-37 -44 -73 -62t-88 -18q-74 0 -116 38t-42 108v598h95v-555q0 -50 23.5 -77.5t68.5 -27.5q51 0 84.5 39.5t33.5 97.5v523h95v-555q0 -105 91 -105q51 0 84.5 39.5t33.5 97.5v523h95v-729z" />
    <glyph glyph-name="uni019D" unicode="&#x19d;" horiz-adv-x="730" 
d="M80 -76v805h101l381 -596v596h88v-729h-105l-377 591v-700q0 -53 -38.5 -81t-109.5 -28q-13 0 -28 3v76q17 -1 20 -1q68 0 68 64z" />
    <glyph glyph-name="uni019E" unicode="&#x19e;" horiz-adv-x="537" 
d="M60 524h77v-88q35 55 75.5 79t98.5 24q76 0 121 -39t45 -104v-596h-83v563q0 47 -29 75t-79 28q-64 0 -103 -48.5t-39 -128.5v-289h-84v524z" />
    <glyph glyph-name="Obar" unicode="&#x19f;" horiz-adv-x="782" 
d="M744 353q0 -162 -96 -269t-256 -107q-158 0 -255 105.5t-97 276.5t97 276.5t254 105.5q160 0 256.5 -106t96.5 -282zM650 385q-8 125 -77.5 199.5t-181.5 74.5q-109 0 -179.5 -75t-77.5 -199h516zM649 315h-514q12 -117 81.5 -186.5t175.5 -69.5t176 70t81 186z" />
    <glyph glyph-name="Ohorn" unicode="&#x1a0;" horiz-adv-x="792" 
d="M391 659q-116 0 -187 -82.5t-71 -217.5t71.5 -217.5t187.5 -82.5t187.5 82t71.5 214q0 138 -71 221t-189 83zM744 353q0 -162 -96 -269t-256 -107q-158 0 -255 105.5t-97 276.5t97 276.5t254 105.5q62 0 116 -18t87 -36t45 -18q25 0 37 1.5t21 8t9 20.5q0 23 -17 43
l64 54q37 -43 37 -99q0 -93 -107 -109q61 -97 61 -235z" />
    <glyph glyph-name="ohorn" unicode="&#x1a1;" horiz-adv-x="559" 
d="M267 462q-70 0 -110 -54.5t-40 -149.5t40 -149.5t110 -54.5q69 0 109.5 54.5t40.5 146.5q0 97 -39.5 152t-110.5 55zM522 631q37 -43 37 -99q0 -86 -92 -106q37 -69 37 -172q0 -129 -63.5 -203t-173.5 -74q-112 0 -174.5 74.5t-62.5 206.5t63 206.5t173 74.5
q56 0 97 -17.5t54 -17.5q31 0 44.5 6t13.5 24q0 23 -17 43z" />
    <glyph glyph-name="Oi" unicode="&#x1a2;" horiz-adv-x="1016" 
d="M391 659q-116 0 -187 -82.5t-71 -217.5t71.5 -217.5t187.5 -82.5t187.5 82t71.5 214q0 138 -71 221t-189 83zM744 353q0 -162 -96 -269t-256 -107q-158 0 -255 105.5t-97 276.5t97 276.5t254 105.5q113 0 199 -56q79 57 180 57q84 0 125 -51t41 -132v-559h-94v589
q0 27 -20 53t-58 26q-40 0 -61 -9t-47 -33q88 -105 88 -273z" />
    <glyph glyph-name="oi" unicode="&#x1a3;" horiz-adv-x="726" 
d="M267 462q-70 0 -110 -54.5t-40 -149.5t40 -149.5t110 -54.5q69 0 109.5 54.5t40.5 146.5q0 97 -39.5 152t-110.5 55zM666 369v-569h-84v589q0 39 -11 60t-45 21q-39 0 -74 -19q52 -73 52 -197q0 -129 -63.5 -203t-173.5 -74q-112 0 -174.5 74.5t-62.5 206.5t63 206.5
t173 74.5q84 0 140 -41q64 41 126 41q70 0 102 -36.5t32 -133.5z" />
    <glyph glyph-name="uni01A4" unicode="&#x1a4;" horiz-adv-x="824" 
d="M351 391h194q67 0 104.5 34t37.5 94t-37.5 94t-104.5 34h-194v-256zM784 515q0 -93 -56.5 -149.5t-147.5 -56.5h-229v-309h-93v642h-82q-49 0 -49 -58q0 -23 13.5 -38t40.5 -15q2 0 10 0.5t19 0.5v-79q-24 -5 -47 -5q-123 0 -123 154q0 49 30.5 88t101.5 39h387
q108 0 166.5 -55.5t58.5 -158.5z" />
    <glyph glyph-name="uni01A5" unicode="&#x1a5;" horiz-adv-x="559" 
d="M290 461q-66 0 -106 -55.5t-40 -147.5t40 -147.5t106 -55.5q68 0 110 55.5t42 144.5q0 94 -41.5 150t-110.5 56zM137 606v-161q59 94 167 94q104 0 164.5 -77t60.5 -209q0 -125 -61.5 -200.5t-162.5 -75.5q-97 0 -161 78v-273h-84v831q0 57 31 88t88 31q21 0 45 -5v-69
q-19 1 -29 1q-58 0 -58 -53z" />
    <glyph glyph-name="uni01A6" unicode="&#x1a6;" horiz-adv-x="655" 
d="M173 271h194q65 0 101.5 34t36.5 94t-36.5 94t-101.5 34h-194v-256zM173 189v-189h-93v729h93v-120h208q104 0 164 -56.5t60 -155.5q0 -116 -86 -174q73 -43 73 -187q0 -111 43 -138v-23h-113q-20 46 -20 119v65q0 67 -29.5 98.5t-90.5 31.5h-209z" />
    <glyph glyph-name="uni01A7" unicode="&#x1a7;" horiz-adv-x="667" 
d="M327 59q59 0 101.5 15.5t64 41.5t31 53t9.5 58v5h88q-1 -60 -19.5 -106t-46.5 -73.5t-67 -45t-76.5 -24t-78.5 -6.5q-65 0 -116.5 15t-82.5 38t-51 53.5t-27.5 59t-7.5 57.5q0 67 40.5 115t114.5 68l183 49q66 18 93 42t27 66q0 55 -44.5 89t-118.5 34q-87 0 -134 -38.5
t-48 -109.5h-88q1 107 71 166.5t196 59.5q120 0 189.5 -57.5t69.5 -156.5q0 -133 -143 -170l-181 -48q-134 -35 -134 -118q0 -23 7.5 -43.5t26 -41.5t57.5 -34t95 -13z" />
    <glyph glyph-name="uni01A8" unicode="&#x1a8;" horiz-adv-x="500" 
d="M371 156h88q-6 -179 -209 -179q-99 0 -157.5 45t-58.5 121q0 58 35 92.5t113 53.5l80 19q51 12 74 29.5t23 45.5q0 36 -30 57.5t-81 21.5q-102 0 -105 -84h-88q1 77 50 119t140 42t146 -43.5t55 -116.5q0 -62 -36.5 -95.5t-129.5 -55.5l-78 -19q-43 -10 -62 -27t-19 -46
q0 -37 33.5 -59.5t88.5 -22.5q69 0 95 27.5t33 74.5z" />
    <glyph glyph-name="uni01A9" unicode="&#x1a9;" horiz-adv-x="615" 
d="M249 365l-217 280v84h525v-82h-410l219 -282l-219 -283h438v-82h-555v82z" />
    <glyph glyph-name="uni01AA" unicode="&#x1aa;" horiz-adv-x="350" 
d="M123 670q-25 0 -43.5 -18t-18.5 -42q0 -25 18.5 -43t43.5 -18t43.5 18t18.5 42q0 26 -18 43.5t-44 17.5zM163 494q-18 -7 -40 -7q-50 0 -86.5 36.5t-36.5 86.5t36.5 86t86.5 36q57 0 90 -34t33 -90v-684q0 -39 15.5 -54t53.5 -15q3 0 20 1v-71q-15 -3 -28 -3
q-144 0 -144 109v603z" />
    <glyph glyph-name="uni01AB" unicode="&#x1ab;" horiz-adv-x="280" 
d="M176 -22q-41 3 -63 24.5t-22 57.5v396h-71v68h71v144h83v-144h86v-68h-86v-359q0 -28 9.5 -37.5t36.5 -9.5q25 0 40 4v-163q0 -109 -144 -109q-13 0 -28 3v71q17 -1 20 -1q38 0 53 15t15 54v54z" />
    <glyph glyph-name="uni01AC" unicode="&#x1ac;" horiz-adv-x="638" 
d="M15 602q0 31 9.5 57t41 47.5t81.5 22.5h461v-82h-239v-647h-93v647h-43h-82q-49 0 -49 -58t54 -58q10 0 29 1v-79q-24 -5 -47 -5q-123 0 -123 154z" />
    <glyph glyph-name="uni01AD" unicode="&#x1ad;" horiz-adv-x="281" 
d="M174 606v-82h86v-68h-86v-359q0 -28 9.5 -37.5t36.5 -9.5q25 0 40 4v-70q-39 -7 -68 -7q-49 0 -75 21.5t-26 61.5v396h-71v68h71v89q0 56 32.5 87.5t90.5 31.5q23 0 47 -5v-69q-19 1 -29 1q-58 0 -58 -53z" />
    <glyph glyph-name="uni01AE" unicode="&#x1ae;" horiz-adv-x="632" 
d="M270 -109v756h-240v82h572v-82h-239v-723q0 -59 68 -59q3 0 20 1v-81q-15 -3 -28 -3q-72 0 -112.5 28t-40.5 81z" />
    <glyph glyph-name="Uhorn" unicode="&#x1af;" horiz-adv-x="776" 
d="M734 856q37 -43 37 -99q0 -102 -131 -111v-429q0 -110 -76.5 -175t-204.5 -65q-130 0 -204.5 64.5t-74.5 175.5v512h93v-512q0 -79 50.5 -118.5t135.5 -39.5q88 0 138 42t50 116v512h93q24 1 35.5 6.5t11.5 23.5q0 23 -17 43z" />
    <glyph glyph-name="uhorn" unicode="&#x1b0;" horiz-adv-x="619" 
d="M581 651q37 -43 37 -99q0 -107 -141 -112v-440h-75v73q-37 -52 -77 -74t-98 -22q-76 0 -121.5 39t-45.5 104v404h83v-371q0 -47 29 -75t79 -28q65 0 104 48.5t39 128.5v297h93q24 1 35.5 6.5t11.5 23.5q0 23 -17 43z" />
    <glyph glyph-name="uni01B1" unicode="&#x1b1;" horiz-adv-x="757" 
d="M326 653q-22 -9 -51.5 -32.5t-63.5 -62t-57 -98t-23 -124.5q0 -113 71 -190t184 -77q109 0 176.5 80t67.5 190q0 99 -52.5 189t-129.5 125v76h264v-72h-164q79 -46 124 -132t45 -187q0 -138 -93.5 -240t-235.5 -102q-154 0 -251 97t-97 241q0 105 52 192t136 131h-176v72
h274v-76z" />
    <glyph glyph-name="uni01B2" unicode="&#x1b2;" horiz-adv-x="695" 
d="M329 -23q-55 0 -93.5 7.5t-77 29.5t-58.5 70.5t-20 122.5v522h93v-562q0 -32 12 -54.5t32 -33.5t40 -15.5t42 -4.5q39 0 74.5 7.5t70.5 27t60.5 50t41.5 79t16 111.5v2q0 56 -10.5 105.5t-36.5 102t-46.5 86.5t-63.5 99h108q142 -190 142 -383q0 -175 -89.5 -272
t-236.5 -97z" />
    <glyph glyph-name="uni01B3" unicode="&#x1b3;" horiz-adv-x="728" 
d="M676 617q-21 21 -46 21q-11 0 -22 -8t-16.5 -15.5t-14 -22.5t-9.5 -16l-179 -290v-286h-93v286l-281 443h115l214 -355l173 291q45 64 110 64q10 0 20 -1.5t16.5 -3.5t14.5 -6.5t12 -7l12 -7.5t11 -7z" />
    <glyph glyph-name="yhook" unicode="&#x1b4;" horiz-adv-x="613" 
d="M468 524l-233 -634q-40 -108 -135 -108q-31 0 -56 13v75q27 -6 44 -6q26 0 41.5 11.5t25.5 39.5l32 85l-177 524h89l134 -408l145 408q31 87 60.5 133.5t56 60.5t64.5 14q27 0 49 -5v-69q-22 1 -27 1q-38 0 -61 -27.5t-52 -107.5z" />
    <glyph glyph-name="uni01B5" unicode="&#x1b5;" horiz-adv-x="615" 
d="M583 729v-84l-185 -239h77v-67h-129l-199 -257h438v-82h-555v82l199 257h-87v67h139l187 241h-410v82h525z" />
    <glyph glyph-name="uni01B6" unicode="&#x1b6;" horiz-adv-x="486" 
d="M442 524v-74l-123 -149h83v-67h-138l-133 -161h325v-73h-426v75l132 159h-93v67h149l125 150h-292v73h391z" />
    <glyph glyph-name="Yogh" unicode="&#x1b7;" horiz-adv-x="619" 
d="M333 466l141 181h-410v82h525v-84l-180 -232q30 -7 52 -15t46.5 -24t40 -37.5t26 -56.5t10.5 -79v-3q-1 -100 -78.5 -160.5t-201.5 -60.5q-248 0 -264 229h88q9 -151 179 -151q81 0 134 38.5t53 103.5q0 158 -237 158v75q21 0 36 5.5t21.5 11.5t18.5 19z" />
    <glyph glyph-name="uni01B8" unicode="&#x1b8;" horiz-adv-x="609" 
d="M286 466q12 -13 18.5 -19t21.5 -11.5t36 -5.5v-75q-237 0 -237 -158q0 -65 53 -103.5t134 -38.5q170 0 179 151h88q-16 -229 -264 -229q-124 0 -201.5 60.5t-78.5 160.5v3q0 44 10.5 79t26 56.5t40 37.5t46.5 24t52 15l-180 232v84h525v-82h-410z" />
    <glyph glyph-name="uni01B9" unicode="&#x1b9;" horiz-adv-x="524" 
d="M216 276l-143 174v74h391v-73h-292l143 -171v-75h-48q-147 0 -147 -128q0 -67 39 -104.5t108 -37.5q72 0 108 37t41 114h88q-16 -229 -234 -229q-109 0 -174.5 60t-65.5 161q0 88 48.5 137.5t137.5 60.5z" />
    <glyph glyph-name="uni01BA" unicode="&#x1ba;" horiz-adv-x="509" 
d="M296 276q183 -21 183 -168q0 -80 -63.5 -129t-160.5 -49q-20 0 -63.5 8.5t-57.5 8.5q-25 0 -25 -16q0 -28 30.5 -44t84.5 -16q87 0 185 38l23 -69q-93 -34 -159 -40q-24 -2 -49 -2q-97 0 -145.5 38t-48.5 104q0 79 96 79q29 0 75 -8t54 -8q48 0 96.5 26t48.5 74
q0 43 -41.5 72.5t-113.5 29.5h-48v75l143 171h-292v73h391v-74z" />
    <glyph glyph-name="uni01BB" unicode="&#x1bb;" horiz-adv-x="556" 
d="M50 463q7 246 234 246q101 0 164 -58t63 -150q0 -123 -130 -202l87 -36v-77l-167 68l-40 -21q-65 -35 -93 -68t-35 -78h373v-87h-472q6 111 42.5 173t131.5 119l-83 34v77l161 -66l39 22q96 55 96 140q0 57 -40 95t-100 38q-133 0 -143 -169h-88z" />
    <glyph glyph-name="uni01BE" unicode="&#x1be;" horiz-adv-x="492" 
d="M462 171q0 -93 -60 -142.5t-153 -49.5q-104 0 -161.5 62t-57.5 172h79q0 -68 31.5 -115t103.5 -47q63 0 99 28t36 86q0 41 -19 67.5t-46 41t-54 30t-46 46t-19 76.5v30h-71v68h71v144h83v-144h86v-68h-86v-22q0 -31 19 -53.5t46 -39.5t54 -36t46 -53t19 -81z" />
    <glyph glyph-name="wynn" unicode="&#x1bf;" horiz-adv-x="561" 
d="M144 360v-354q46 30 87.5 62.5t94 83t84.5 110.5t32 118q0 41 -27.5 61.5t-69.5 20.5q-104 0 -201 -102zM144 -63v-155h-84v742h75v-80q60 58 112 77t131 19q66 0 109.5 -47t43.5 -125q0 -49 -18.5 -97.5t-53.5 -90t-70.5 -75.5t-84 -67t-78 -52t-68.5 -41q-10 -6 -14 -8
z" />
    <glyph glyph-name="uni01C0" unicode="&#x1c0;" horiz-adv-x="260" 
d="M95 729h60v-941h-60v941z" />
    <glyph glyph-name="uni01C1" unicode="&#x1c1;" horiz-adv-x="370" 
d="M205 729h60v-941h-60v941zM95 729h60v-941h-60v941z" />
    <glyph glyph-name="uni01C2" unicode="&#x1c2;" horiz-adv-x="584" 
d="M260 729h60v-376h214v-70h-214v-102h214v-70h-214v-323h-60v323h-210v70h210v102h-210v70h210v376z" />
    <glyph glyph-name="uni01C3" unicode="&#x1c3;" horiz-adv-x="278" 
d="M208 729v-338l-22 -223h-39l-22 223v338h83zM208 104v-104h-84v104h84z" />
    <glyph glyph-name="DZcaron" unicode="&#x1c4;" horiz-adv-x="1275" 
d="M1027 775h-95l-96 125h63l81 -61l79 61h64zM1243 729v-84l-436 -563h438v-82h-555v82l438 565h-410v82h525zM80 0v729h281q139 0 218 -97t79 -267t-79.5 -267.5t-217.5 -97.5h-281zM173 82h172q108 0 164 72t56 210q0 139 -56 211t-164 72h-172v-565z" />
    <glyph glyph-name="Dzcaron" unicode="&#x1c5;" horiz-adv-x="1178" 
d="M986 583h-95l-96 150h63l81 -96l79 96h64zM1130 524v-74l-311 -377h325v-73h-426v75l313 376h-292v73h391zM80 0v729h281q139 0 218 -97t79 -267t-79.5 -267.5t-217.5 -97.5h-281zM173 82h172q108 0 164 72t56 210q0 139 -56 211t-164 72h-172v-565z" />
    <glyph glyph-name="dzcaron" unicode="&#x1c6;" horiz-adv-x="1032" 
d="M844 583h-95l-96 150h63l81 -96l79 96h64zM988 524v-74l-311 -377h325v-73h-426v75l313 376h-292v73h391zM499 729v-729h-74v69q-34 -49 -73.5 -70.5t-93.5 -21.5q-106 0 -167 76.5t-61 209.5q0 125 61.5 200.5t163.5 75.5q108 0 161 -81v271h83zM269 461q-68 0 -110 -56
t-42 -147q0 -92 42 -147.5t111 -55.5q66 0 106 55t40 146q0 94 -40 149.5t-107 55.5z" />
    <glyph glyph-name="LJ" unicode="&#x1c7;" horiz-adv-x="1054" 
d="M765 55q64 0 88 42t24 119v513h93v-547q0 -95 -55.5 -150t-150.5 -55q-94 0 -148.5 52t-54.5 141v64h95v-47q0 -64 28 -98t81 -34zM173 729v-647h360v-82h-453v729h93z" />
    <glyph glyph-name="Lj" unicode="&#x1c8;" horiz-adv-x="778" 
d="M644 524h83v-633q0 -109 -143 -109q-13 0 -28 3v71q12 -2 23 -2q36 0 50.5 15.5t14.5 54.5v600zM727 729v-105h-83v105h83zM173 729v-647h360v-82h-453v729h93z" />
    <glyph glyph-name="lj" unicode="&#x1c9;" horiz-adv-x="424" 
d="M290 524h83v-633q0 -109 -143 -109q-13 0 -28 3v71q12 -2 23 -2q36 0 50.5 15.5t14.5 54.5v600zM373 729v-105h-83v105h83zM144 729v-729h-84v729h84z" />
    <glyph glyph-name="NJ" unicode="&#x1ca;" horiz-adv-x="1216" 
d="M927 55q64 0 88 42t24 119v513h93v-547q0 -95 -55.5 -150t-150.5 -55q-94 0 -148.5 52t-54.5 141v64h95v-47q0 -64 28 -98t81 -34zM650 729v-729h-105l-377 591v-591h-88v729h101l381 -596v596h88z" />
    <glyph glyph-name="Nj" unicode="&#x1cb;" horiz-adv-x="924" 
d="M790 524h83v-633q0 -109 -143 -109q-13 0 -28 3v71q12 -2 23 -2q36 0 50.5 15.5t14.5 54.5v600zM873 729v-105h-83v105h83zM650 729v-729h-105l-377 591v-591h-88v729h101l381 -596v596h88z" />
    <glyph glyph-name="nj" unicode="&#x1cc;" horiz-adv-x="758" 
d="M624 524h83v-633q0 -109 -143 -109q-13 0 -28 3v71q12 -2 23 -2q36 0 50.5 15.5t14.5 54.5v600zM707 729v-105h-83v105h83zM60 524h77v-88q35 55 75.5 79t98.5 24q76 0 121 -39t45 -104v-396h-83v363q0 47 -29 75t-79 28q-64 0 -103 -48.5t-39 -128.5v-289h-84v524z" />
    <glyph glyph-name="Acaron" unicode="&#x1cd;" horiz-adv-x="666" 
d="M381 775h-95l-96 125h63l81 -61l79 61h64zM472 219h-281l-77 -219h-99l260 729h120l256 -729h-104zM446 297l-112 332l-120 -332h232z" />
    <glyph glyph-name="acaron" unicode="&#x1ce;" horiz-adv-x="543" 
d="M322 579h-95l-96 150h63l81 -96l79 96h64zM53 369q6 170 210 170q97 0 147 -36.5t50 -106.5v-308q0 -41 45 -41q9 0 18 2v-63q-35 -9 -57 -9q-40 0 -60.5 18.5t-25.5 58.5q-84 -77 -178 -77q-79 0 -125.5 42t-46.5 113q0 23 4.5 42t10 33.5t19.5 27t23.5 20.5t32 15.5
t34.5 11t42 8.5t44 7t50 7q49 6 68 19t19 39v22q0 38 -30.5 58t-86.5 20q-58 0 -88 -22.5t-35 -70.5h-84zM220 50q69 0 113 36.5t44 78.5v94q-25 -12 -75.5 -20t-87.5 -14t-67 -28.5t-30 -62.5t27 -62t76 -22z" />
    <glyph glyph-name="Icaron" unicode="&#x1cf;" horiz-adv-x="300" 
d="M198 775h-95l-96 125h63l81 -61l79 61h64zM197 729v-729h-94v729h94z" />
    <glyph glyph-name="icaron" unicode="&#x1d0;" horiz-adv-x="262" 
d="M178 579h-95l-96 150h63l81 -96l79 96h64zM173 524v-524h-83v524h83z" />
    <glyph glyph-name="Ocaron" unicode="&#x1d1;" horiz-adv-x="784" 
d="M435 775h-95l-96 125h63l81 -61l79 61h64zM744 353q0 -162 -96 -269t-256 -107q-158 0 -255 105.5t-97 276.5t97 276.5t254 105.5q160 0 256.5 -106t96.5 -282zM391 659q-116 0 -187 -82.5t-71 -217.5t71.5 -217.5t187.5 -82.5t187.5 82t71.5 214q0 138 -71 221t-189 83z
" />
    <glyph glyph-name="ocaron" unicode="&#x1d2;" horiz-adv-x="534" 
d="M320 579h-95l-96 150h63l81 -96l79 96h64zM266 539q113 0 175.5 -74.5t62.5 -210.5q0 -129 -63.5 -203t-173.5 -74q-112 0 -174.5 74.5t-62.5 206.5t63 206.5t173 74.5zM267 462q-70 0 -110 -54.5t-40 -149.5t40 -149.5t110 -54.5q69 0 109.5 54.5t40.5 146.5
q0 97 -39.5 152t-110.5 55z" />
    <glyph glyph-name="Ucaron" unicode="&#x1d3;" horiz-adv-x="720" 
d="M413 775h-95l-96 125h63l81 -61l79 61h64zM547 729h93v-512q0 -110 -76.5 -175t-204.5 -65q-130 0 -204.5 64.5t-74.5 175.5v512h93v-512q0 -79 50.5 -118.5t135.5 -39.5q88 0 138 42t50 116v512z" />
    <glyph glyph-name="ucaron" unicode="&#x1d4;" horiz-adv-x="537" 
d="M321 579h-95l-96 150h63l81 -96l79 96h64zM477 0h-75v73q-37 -52 -77 -74t-98 -22q-76 0 -121.5 39t-45.5 104v404h83v-371q0 -47 29 -75t79 -28q65 0 104 48.5t39 128.5v297h83v-524z" />
    <glyph glyph-name="Udieresismacron" unicode="&#x1d5;" horiz-adv-x="720" 
d="M504 864v-104h-104v104h104zM325 864v-104h-104v104h104zM497 965v-70h-274v70h274zM547 729h93v-512q0 -110 -76.5 -175t-204.5 -65q-130 0 -204.5 64.5t-74.5 175.5v512h93v-512q0 -79 50.5 -118.5t135.5 -39.5q88 0 138 42t50 116v512z" />
    <glyph glyph-name="udieresismacron" unicode="&#x1d6;" horiz-adv-x="537" 
d="M418 689v-104h-104v104h104zM239 689v-104h-104v104h104zM477 0h-75v73q-37 -52 -77 -74t-98 -22q-76 0 -121.5 39t-45.5 104v404h83v-371q0 -47 29 -75t79 -28q65 0 104 48.5t39 128.5v297h83v-524zM411 821v-70h-274v70h274z" />
    <glyph glyph-name="Udieresisacute" unicode="&#x1d7;" horiz-adv-x="720" 
d="M405 990h123l-164 -125h-65zM510 843v-104h-104v104h104zM331 843v-104h-104v104h104zM547 729h93v-512q0 -110 -76.5 -175t-204.5 -65q-130 0 -204.5 64.5t-74.5 175.5v512h93v-512q0 -79 50.5 -118.5t135.5 -39.5q88 0 138 42t50 116v512z" />
    <glyph glyph-name="udieresisacute" unicode="&#x1d8;" horiz-adv-x="537" 
d="M418 699v-104h-104v104h104zM239 699v-104h-104v104h104zM477 0h-75v73q-37 -52 -77 -74t-98 -22q-76 0 -121.5 39t-45.5 104v404h83v-371q0 -47 29 -75t79 -28q65 0 104 48.5t39 128.5v297h83v-524zM340 900h113l-149 -148h-60z" />
    <glyph glyph-name="Udieresiscaron" unicode="&#x1d9;" horiz-adv-x="720" 
d="M411 855h-95l-96 125h63l81 -61l79 61h64zM510 828v-104h-104v104h104zM331 828v-104h-104v104h104zM547 729h93v-512q0 -110 -76.5 -175t-204.5 -65q-130 0 -204.5 64.5t-74.5 175.5v512h93v-512q0 -79 50.5 -118.5t135.5 -39.5q88 0 138 42t50 116v512z" />
    <glyph glyph-name="udieresiscaron" unicode="&#x1da;" horiz-adv-x="537" 
d="M418 689v-104h-104v104h104zM239 689v-104h-104v104h104zM477 0h-75v73q-37 -52 -77 -74t-98 -22q-76 0 -121.5 39t-45.5 104v404h83v-371q0 -47 29 -75t79 -28q65 0 104 48.5t39 128.5v297h83v-524zM322 750h-95l-96 150h63l81 -96l79 96h64z" />
    <glyph glyph-name="Udieresisgrave" unicode="&#x1db;" horiz-adv-x="720" 
d="M321 980l106 -126h-65l-164 126h123zM510 843v-104h-104v104h104zM331 843v-104h-104v104h104zM547 729h93v-512q0 -110 -76.5 -175t-204.5 -65q-130 0 -204.5 64.5t-74.5 175.5v512h93v-512q0 -79 50.5 -118.5t135.5 -39.5q88 0 138 42t50 116v512z" />
    <glyph glyph-name="udieresisgrave" unicode="&#x1dc;" horiz-adv-x="537" 
d="M418 689v-104h-104v104h104zM239 689v-104h-104v104h104zM477 0h-75v73q-37 -52 -77 -74t-98 -22q-76 0 -121.5 39t-45.5 104v404h83v-371q0 -47 29 -75t79 -28q65 0 104 48.5t39 128.5v297h83v-524zM208 900l96 -148h-60l-149 148h113z" />
    <glyph glyph-name="eturn" unicode="&#x1dd;" horiz-adv-x="533" 
d="M30 282h386q-2 82 -42.5 131t-111.5 49q-102 0 -137 -105h-84q16 86 75 134t149 48q110 0 174 -74.5t64 -203.5t-65.5 -206.5t-174.5 -77.5q-233 0 -233 305zM414 214h-295q0 -68 41 -114t104 -46t104 43.5t46 116.5z" />
    <glyph glyph-name="uni01DE" unicode="&#x1de;" horiz-adv-x="666" 
d="M484 864v-104h-104v104h104zM305 864v-104h-104v104h104zM477 965v-70h-274v70h274zM472 219h-281l-77 -219h-99l260 729h120l256 -729h-104zM446 297l-112 332l-120 -332h232z" />
    <glyph glyph-name="uni01DF" unicode="&#x1df;" horiz-adv-x="543" 
d="M420 687v-104h-104v104h104zM241 687v-104h-104v104h104zM53 369q6 170 210 170q97 0 147 -36.5t50 -106.5v-308q0 -41 45 -41q9 0 18 2v-63q-35 -9 -57 -9q-40 0 -60.5 18.5t-25.5 58.5q-84 -77 -178 -77q-79 0 -125.5 42t-46.5 113q0 23 4.5 42t10 33.5t19.5 27
t23.5 20.5t32 15.5t34.5 11t42 8.5t44 7t50 7q49 6 68 19t19 39v22q0 38 -30.5 58t-86.5 20q-58 0 -88 -22.5t-35 -70.5h-84zM220 50q69 0 113 36.5t44 78.5v94q-25 -12 -75.5 -20t-87.5 -14t-67 -28.5t-30 -62.5t27 -62t76 -22zM415 800v-70h-274v70h274z" />
    <glyph glyph-name="uni01E0" unicode="&#x1e0;" horiz-adv-x="666" 
d="M389 855v-104h-104v104h104zM472 219h-281l-77 -219h-99l260 729h120l256 -729h-104zM446 297l-112 332l-120 -332h232zM474 952v-70h-274v70h274z" />
    <glyph glyph-name="uni01E1" unicode="&#x1e1;" horiz-adv-x="543" 
d="M327 687v-104h-104v104h104zM53 369q6 170 210 170q97 0 147 -36.5t50 -106.5v-308q0 -41 45 -41q9 0 18 2v-63q-35 -9 -57 -9q-40 0 -60.5 18.5t-25.5 58.5q-84 -77 -178 -77q-79 0 -125.5 42t-46.5 113q0 23 4.5 42t10 33.5t19.5 27t23.5 20.5t32 15.5t34.5 11t42 8.5
t44 7t50 7q49 6 68 19t19 39v22q0 38 -30.5 58t-86.5 20q-58 0 -88 -22.5t-35 -70.5h-84zM220 50q69 0 113 36.5t44 78.5v94q-25 -12 -75.5 -20t-87.5 -14t-67 -28.5t-30 -62.5t27 -62t76 -22zM412 800v-70h-274v70h274z" />
    <glyph glyph-name="uni01E2" unicode="&#x1e2;" horiz-adv-x="984" 
d="M758 871v-70h-274v70h274zM472 214h-269l-85 -214h-103l299 729h622v-82h-371v-233h352v-82h-352v-250h389v-82h-482v214zM472 296v351h-100l-138 -351h238z" />
    <glyph glyph-name="uni01E3" unicode="&#x1e3;" horiz-adv-x="871" 
d="M576 701v-70h-274v70h274zM455 234q1 -52 16 -89.5t39 -56t48.5 -26.5t50.5 -8q101 0 138 105h84q-16 -85 -75 -133.5t-148 -48.5q-136 0 -192 107q-2 2 -2 3q-56 -58 -106.5 -84t-109.5 -26q-76 0 -122 42t-46 113q0 38 13 66.5t34 46.5t56 30t70.5 18t86.5 10t69 17
t18 42v22q0 78 -118 78q-112 0 -122 -93h-84q6 170 208 170q128 0 175 -82q27 38 73 60t100 22q73 0 129 -37t82 -101q21 -55 21 -167h-386zM217 50q70 0 115 40.5t45 66.5v101q-30 -13 -81.5 -21.5t-87 -13.5t-63.5 -27t-28 -62q0 -39 27 -61.5t73 -22.5zM457 302h294
q0 71 -40 115.5t-104 44.5q-63 0 -104 -43.5t-46 -116.5z" />
    <glyph glyph-name="uni01E4" unicode="&#x1e4;" horiz-adv-x="774" 
d="M133 362q0 -38 7 -76.5t25 -80.5t46.5 -73.5t75.5 -52t107 -20.5q70 0 125 33t82 90h-200v58h218q4 19 4 43v20h-222v82h304v-145h53v-58h-53v-186h-59l-23 97q-104 -116 -249 -116q-148 0 -241 106t-93 274q0 48 9 96.5t34 101.5t62.5 93t101 66.5t143.5 26.5
q125 0 205.5 -61t99.5 -172h-95q-15 70 -71.5 110.5t-139.5 40.5q-116 0 -186 -81.5t-70 -215.5z" />
    <glyph glyph-name="uni01E5" unicode="&#x1e5;" horiz-adv-x="555" 
d="M262 462q-67 0 -106 -55t-39 -149q0 -95 39 -149.5t107 -54.5q66 0 104 53.5t38 147.5q0 98 -37.5 152.5t-105.5 54.5zM132 -60q14 -88 127 -88q71 0 109 40h-99v52h126q10 36 10 100v27q-35 -50 -72.5 -72t-86.5 -22q-92 0 -154 75.5t-62 200.5q0 128 61.5 207t161.5 79
q98 0 160 -91v76h77v-438q0 -91 -11 -142h36v-52h-53q-23 -54 -76.5 -82t-129.5 -28q-92 0 -147 42t-62 116h85z" />
    <glyph glyph-name="Gcaron" unicode="&#x1e6;" horiz-adv-x="765" 
d="M431 775h-95l-96 125h63l81 -61l79 61h64zM133 362q0 -38 7 -76.5t25 -80.5t46.5 -73.5t75.5 -52t107 -20.5q100 0 164.5 63t64.5 161v20h-222v82h304v-389h-59l-23 97q-104 -116 -249 -116q-148 0 -241 106t-93 274q0 48 9 96.5t34 101.5t62.5 93t101 66.5t143.5 26.5
q125 0 205.5 -61t99.5 -172h-95q-15 70 -71.5 110.5t-139.5 40.5q-116 0 -186 -81.5t-70 -215.5z" />
    <glyph glyph-name="gcaron" unicode="&#x1e7;" horiz-adv-x="550" 
d="M300 579h-95l-96 150h63l81 -96l79 96h64zM246 -23q-92 0 -154 75.5t-62 200.5q0 128 61.5 207t161.5 79q98 0 160 -91l-10 76h87v-438q0 -75 -9 -125.5t-33 -93.5t-71.5 -64t-120.5 -21q-92 0 -147 42t-62 116h85q14 -88 127 -88q84 0 115 47.5t31 144.5v27
q-35 -50 -72.5 -72t-86.5 -22zM262 462q-67 0 -106 -55t-39 -149q0 -95 39 -149.5t107 -54.5q66 0 104 53.5t38 147.5q0 98 -37.5 152.5t-105.5 54.5z" />
    <glyph glyph-name="uni01E8" unicode="&#x1e8;" horiz-adv-x="674" 
d="M414 775h-95l-96 125h63l81 -61l79 61h64zM173 255v-255h-93v729h93v-369l363 369h120l-297 -297l300 -432h-110l-257 374z" />
    <glyph glyph-name="kcaron" unicode="&#x1e9;" horiz-adv-x="514" 
d="M312 750h-95l-96 150h63l81 -96l79 96h64zM143 729v-427l222 222h107l-182 -181l214 -343h-103l-177 284l-81 -80v-204h-83v729h83z" />
    <glyph glyph-name="Oogonek" unicode="&#x1ea;" horiz-adv-x="784" 
d="M392 -221q-56 0 -94 26t-38 68q0 34 22.5 61.5t63.5 45.5q-139 15 -222.5 118t-83.5 261q0 171 97 276.5t254 105.5q160 0 256.5 -106t96.5 -282q0 -101 -39 -184t-114 -134.5t-175 -56.5q-48 -28 -65.5 -49t-17.5 -51q0 -54 72 -54q37 0 63 10v-45q-48 -10 -76 -10z
M391 659q-116 0 -187 -82.5t-71 -217.5t71.5 -217.5t187.5 -82.5t187.5 82t71.5 214q0 138 -71 221t-189 83z" />
    <glyph glyph-name="oogonek" unicode="&#x1eb;" horiz-adv-x="534" 
d="M267 -221q-56 0 -94 26t-38 68q0 34 23 62t65 45q-92 15 -142.5 87.5t-50.5 190.5q0 132 63 206.5t173 74.5q113 0 175.5 -74.5t62.5 -210.5q0 -121 -56.5 -194.5t-156.5 -81.5q-48 -28 -65.5 -49t-17.5 -51q0 -54 72 -54q37 0 63 10v-45q-48 -10 -76 -10zM267 462
q-70 0 -110 -54.5t-40 -149.5t40 -149.5t110 -54.5q69 0 109.5 54.5t40.5 146.5q0 97 -39.5 152t-110.5 55z" />
    <glyph glyph-name="uni01EC" unicode="&#x1ec;" horiz-adv-x="784" 
d="M526 870v-70h-274v70h274zM392 -221q-56 0 -94 26t-38 68q0 34 22.5 61.5t63.5 45.5q-139 15 -222.5 118t-83.5 261q0 171 97 276.5t254 105.5q160 0 256.5 -106t96.5 -282q0 -101 -39 -184t-114 -134.5t-175 -56.5q-48 -28 -65.5 -49t-17.5 -51q0 -54 72 -54q37 0 63 10
v-45q-48 -10 -76 -10zM391 659q-116 0 -187 -82.5t-71 -217.5t71.5 -217.5t187.5 -82.5t187.5 82t71.5 214q0 138 -71 221t-189 83z" />
    <glyph glyph-name="uni01ED" unicode="&#x1ed;" horiz-adv-x="534" 
d="M409 649v-70h-274v70h274zM267 -221q-56 0 -94 26t-38 68q0 34 23 62t65 45q-92 15 -142.5 87.5t-50.5 190.5q0 132 63 206.5t173 74.5q113 0 175.5 -74.5t62.5 -210.5q0 -121 -56.5 -194.5t-156.5 -81.5q-48 -28 -65.5 -49t-17.5 -51q0 -54 72 -54q37 0 63 10v-45
q-48 -10 -76 -10zM267 462q-70 0 -110 -54.5t-40 -149.5t40 -149.5t110 -54.5q69 0 109.5 54.5t40.5 146.5q0 97 -39.5 152t-110.5 55z" />
    <glyph glyph-name="uni01EE" unicode="&#x1ee;" horiz-adv-x="619" 
d="M366 775h-95l-96 125h63l81 -61l79 61h64zM333 466l141 181h-410v82h525v-84l-180 -232q30 -7 52 -15t46.5 -24t40 -37.5t26 -56.5t10.5 -79v-3q-1 -100 -78.5 -160.5t-201.5 -60.5q-248 0 -264 229h88q9 -151 179 -151q81 0 134 38.5t53 103.5q0 158 -237 158v75
q21 0 36 5.5t21.5 11.5t18.5 19z" />
    <glyph glyph-name="ezhcaron" unicode="&#x1ef;" horiz-adv-x="524" 
d="M305 579h-95l-96 150h63l81 -96l79 96h64zM308 276q89 -11 137.5 -60.5t48.5 -137.5q0 -101 -65.5 -161t-174.5 -60q-218 0 -234 229h88q5 -77 41 -114t108 -37q69 0 108 37.5t39 104.5q0 128 -147 128h-48v75l143 171h-292v73h391v-74z" />
    <glyph glyph-name="jcaron" unicode="&#x1f0;" horiz-adv-x="222" 
d="M70 524h83v-633q0 -109 -143 -109q-13 0 -28 3v71q17 -1 20 -1q38 0 53 15t15 54v600zM158 564h-95l-96 150h63l81 -96l79 96h64z" />
    <glyph glyph-name="DZ" unicode="&#x1f1;" horiz-adv-x="1297" 
d="M1265 729v-84l-436 -563h438v-82h-555v82l438 565h-410v82h525zM80 0v729h281q139 0 218 -97t79 -267t-79.5 -267.5t-217.5 -97.5h-281zM173 82h172q108 0 164 72t56 210q0 139 -56 211t-164 72h-172v-565z" />
    <glyph glyph-name="Dz" unicode="&#x1f2;" horiz-adv-x="1178" 
d="M1134 524v-74l-311 -377h325v-73h-426v75l313 376h-292v73h391zM80 0v729h281q139 0 218 -97t79 -267t-79.5 -267.5t-217.5 -97.5h-281zM173 82h172q108 0 164 72t56 210q0 139 -56 211t-164 72h-172v-565z" />
    <glyph glyph-name="uni01F3" unicode="&#x1f3;" horiz-adv-x="1042" 
d="M998 524v-74l-311 -377h325v-73h-426v75l313 376h-292v73h391zM499 729v-729h-74v69q-34 -49 -73.5 -70.5t-93.5 -21.5q-106 0 -167 76.5t-61 209.5q0 125 61.5 200.5t163.5 75.5q108 0 161 -81v271h83zM269 461q-68 0 -110 -56t-42 -147q0 -92 42 -147.5t111 -55.5
q66 0 106 55t40 146q0 94 -40 149.5t-107 55.5z" />
    <glyph glyph-name="Gacute" unicode="&#x1f4;" horiz-adv-x="765" 
d="M435 900h123l-164 -125h-65zM133 362q0 -38 7 -76.5t25 -80.5t46.5 -73.5t75.5 -52t107 -20.5q100 0 164.5 63t64.5 161v20h-222v82h304v-389h-59l-23 97q-104 -116 -249 -116q-148 0 -241 106t-93 274q0 48 9 96.5t34 101.5t62.5 93t101 66.5t143.5 26.5
q125 0 205.5 -61t99.5 -172h-95q-15 70 -71.5 110.5t-139.5 40.5q-116 0 -186 -81.5t-70 -215.5z" />
    <glyph glyph-name="gacute" unicode="&#x1f5;" horiz-adv-x="550" 
d="M318 727h113l-149 -148h-60zM246 -23q-92 0 -154 75.5t-62 200.5q0 128 61.5 207t161.5 79q98 0 160 -91l-10 76h87v-438q0 -75 -9 -125.5t-33 -93.5t-71.5 -64t-120.5 -21q-92 0 -147 42t-62 116h85q14 -88 127 -88q84 0 115 47.5t31 144.5v27q-35 -50 -72.5 -72
t-86.5 -22zM262 462q-67 0 -106 -55t-39 -149q0 -95 39 -149.5t107 -54.5q66 0 104 53.5t38 147.5q0 98 -37.5 152.5t-105.5 54.5z" />
    <glyph glyph-name="Wynn" unicode="&#x1f7;" horiz-adv-x="609" 
d="M175 555v-326q35 23 47 30.5t51.5 36t59 46.5t51 50.5t47.5 59.5t29 62t13 69q0 33 -31 54t-66 21q-41 0 -94.5 -23.5t-106.5 -79.5zM175 132v-132h-95v727h95v-80q61 59 108.5 77.5t125.5 18.5q66 0 113 -47t47 -125q0 -44 -17.5 -89.5t-40.5 -80t-64.5 -74.5t-69.5 -63
t-78 -56t-67 -42.5t-57 -33.5z" />
    <glyph glyph-name="uni01F8" unicode="&#x1f8;" horiz-adv-x="730" 
d="M365 900l106 -126h-65l-164 126h123zM650 729v-729h-105l-377 591v-591h-88v729h101l381 -596v596h88z" />
    <glyph glyph-name="uni01F9" unicode="&#x1f9;" horiz-adv-x="537" 
d="M245 740l96 -148h-60l-149 148h113zM60 524h77v-88q35 55 75.5 79t98.5 24q76 0 121 -39t45 -104v-396h-83v363q0 47 -29 75t-79 28q-64 0 -103 -48.5t-39 -128.5v-289h-84v524z" />
    <glyph glyph-name="Aringacute" unicode="&#x1fa;" horiz-adv-x="666" 
d="M315 900h123l-164 -125h-65zM335 784q44 0 75 -31t31 -75q0 -43 -31.5 -73.5t-74.5 -30.5t-74.5 31t-31.5 74q0 42 31.5 73.5t74.5 31.5zM335 722q-18 0 -31 -13t-13 -30q0 -18 13 -31t31 -13t31 13t13 30q0 19 -12.5 31.5t-31.5 12.5zM472 164.25h-281l-77 -164.25h-99
l260 546.75h120l256 -546.75h-104zM446 222.75l-112 249l-120 -249h232z" />
    <glyph glyph-name="aringacute" unicode="&#x1fb;" horiz-adv-x="543" 
d="M285 900h123l-164 -125h-65zM275 772q44 0 75 -31t31 -75q0 -43 -31.5 -73.5t-74.5 -30.5t-74.5 31t-31.5 74q0 42 31.5 73.5t74.5 31.5zM275 710q-18 0 -31 -13t-13 -30q0 -18 13 -31t31 -13t31 13t13 30q0 19 -12.5 31.5t-31.5 12.5zM53 369q6 170 210 170
q97 0 147 -36.5t50 -106.5v-308q0 -41 45 -41q9 0 18 2v-63q-35 -9 -57 -9q-40 0 -60.5 18.5t-25.5 58.5q-84 -77 -178 -77q-79 0 -125.5 42t-46.5 113q0 23 4.5 42t10 33.5t19.5 27t23.5 20.5t32 15.5t34.5 11t42 8.5t44 7t50 7q49 6 68 19t19 39v22q0 38 -30.5 58
t-86.5 20q-58 0 -88 -22.5t-35 -70.5h-84zM220 50q69 0 113 36.5t44 78.5v94q-25 -12 -75.5 -20t-87.5 -14t-67 -28.5t-30 -62.5t27 -62t76 -22z" />
    <glyph glyph-name="AEacute" unicode="&#x1fc;" horiz-adv-x="984" 
d="M655 900h123l-164 -125h-65zM472 214h-269l-85 -214h-103l299 729h622v-82h-371v-233h352v-82h-352v-250h389v-82h-482v214zM472 296v351h-100l-138 -351h238z" />
    <glyph glyph-name="aeacute" unicode="&#x1fd;" horiz-adv-x="871" 
d="M505 727h113l-149 -148h-60zM455 234q1 -52 16 -89.5t39 -56t48.5 -26.5t50.5 -8q101 0 138 105h84q-16 -85 -75 -133.5t-148 -48.5q-136 0 -192 107q-2 2 -2 3q-56 -58 -106.5 -84t-109.5 -26q-76 0 -122 42t-46 113q0 38 13 66.5t34 46.5t56 30t70.5 18t86.5 10t69 17
t18 42v22q0 78 -118 78q-112 0 -122 -93h-84q6 170 208 170q128 0 175 -82q27 38 73 60t100 22q73 0 129 -37t82 -101q21 -55 21 -167h-386zM217 50q70 0 115 40.5t45 66.5v101q-30 -13 -81.5 -21.5t-87 -13.5t-63.5 -27t-28 -62q0 -39 27 -61.5t73 -22.5zM457 302h294
q0 71 -40 115.5t-104 44.5q-63 0 -104 -43.5t-46 -116.5z" />
    <glyph glyph-name="Oslashacute" unicode="&#x1fe;" horiz-adv-x="789" 
d="M435 900h123l-164 -125h-65zM35 19l81 89q-76 106 -76 252q0 170 97.5 275.5t254.5 105.5q137 0 230 -81l87 95l40 -36l-89 -97q84 -106 84 -264q0 -170 -97.5 -275.5t-254.5 -105.5q-144 0 -241 90l-77 -84zM179 176l384 419q-73 64 -171 64q-116 0 -187.5 -82.5
t-71.5 -216.5q0 -104 46 -184zM598 554l-387 -421q74 -74 181 -74q116 0 187.5 82.5t71.5 216.5q0 114 -53 196z" />
    <glyph glyph-name="oslashacute" unicode="&#x1ff;" horiz-adv-x="611" 
d="M339 727h113l-149 -148h-60zM521 511l-63 -71q44 -73 44 -182q0 -132 -62.5 -206.5t-173.5 -74.5q-103 0 -163 62l-61 -69l-32 28l66 74q-48 71 -48 186q0 132 63 206.5t174 74.5q101 0 166 -65l58 65zM397 371l-238 -269q43 -48 106 -48q70 0 110 54.5t40 149.5
q0 66 -18 113zM136 141l239 269q-41 52 -110 52q-70 0 -110 -54.5t-40 -149.5q0 -68 21 -117z" />
    <glyph glyph-name="Adblgrave" unicode="&#x200;" horiz-adv-x="666" 
d="M397 900l46 -125h-65l-104 125h123zM233 900l69 -125h-65l-127 125h123zM472 219h-281l-77 -219h-99l260 729h120l256 -729h-104zM446 297l-112 332l-120 -332h232z" />
    <glyph glyph-name="adblgrave" unicode="&#x201;" horiz-adv-x="543" 
d="M333 729l51 -150h-60l-104 150h113zM164 729l76 -150h-60l-129 150h113zM53 369q6 170 210 170q97 0 147 -36.5t50 -106.5v-308q0 -41 45 -41q9 0 18 2v-63q-35 -9 -57 -9q-40 0 -60.5 18.5t-25.5 58.5q-84 -77 -178 -77q-79 0 -125.5 42t-46.5 113q0 23 4.5 42t10 33.5
t19.5 27t23.5 20.5t32 15.5t34.5 11t42 8.5t44 7t50 7q49 6 68 19t19 39v22q0 38 -30.5 58t-86.5 20q-58 0 -88 -22.5t-35 -70.5h-84zM220 50q69 0 113 36.5t44 78.5v94q-25 -12 -75.5 -20t-87.5 -14t-67 -28.5t-30 -62.5t27 -62t76 -22z" />
    <glyph glyph-name="Ainvertedbreve" unicode="&#x202;" horiz-adv-x="666" 
d="M485 765h-59q-8 66 -92 66q-40 0 -64 -17t-27 -49h-59q11 135 152 135q36 0 66 -9.5t56 -41.5t27 -84zM472 219h-281l-77 -219h-99l260 729h120l256 -729h-104zM446 297l-112 332l-120 -332h232z" />
    <glyph glyph-name="ainvertedbreve" unicode="&#x203;" horiz-adv-x="543" 
d="M420 579h-59q-8 66 -92 66q-40 0 -64 -17t-27 -49h-59q11 135 152 135q36 0 66 -9.5t56 -41.5t27 -84zM53 369q6 170 210 170q97 0 147 -36.5t50 -106.5v-308q0 -41 45 -41q9 0 18 2v-63q-35 -9 -57 -9q-40 0 -60.5 18.5t-25.5 58.5q-84 -77 -178 -77q-79 0 -125.5 42
t-46.5 113q0 23 4.5 42t10 33.5t19.5 27t23.5 20.5t32 15.5t34.5 11t42 8.5t44 7t50 7q49 6 68 19t19 39v22q0 38 -30.5 58t-86.5 20q-58 0 -88 -22.5t-35 -70.5h-84zM220 50q69 0 113 36.5t44 78.5v94q-25 -12 -75.5 -20t-87.5 -14t-67 -28.5t-30 -62.5t27 -62t76 -22z" />
    <glyph glyph-name="Edblgrave" unicode="&#x204;" horiz-adv-x="633" 
d="M427 900l46 -125h-65l-104 125h123zM263 900l69 -125h-65l-127 125h123zM173 332v-250h430v-82h-523v729h505v-82h-412v-233h397v-82h-397z" />
    <glyph glyph-name="edblgrave" unicode="&#x205;" horiz-adv-x="533" 
d="M346 729l51 -150h-60l-104 150h113zM177 729l76 -150h-60l-129 150h113zM503 234h-386q2 -82 42.5 -131t111.5 -49q102 0 137 105h84q-16 -86 -75 -134t-149 -48q-110 0 -174 74.5t-64 203.5t65.5 206.5t174.5 77.5q233 0 233 -305zM119 302h295q0 68 -41 114t-104 46
t-104 -43.5t-46 -116.5z" />
    <glyph glyph-name="Einvertedbreve" unicode="&#x206;" horiz-adv-x="633" 
d="M490 765h-59q-8 66 -92 66q-40 0 -64 -17t-27 -49h-59q11 135 152 135q36 0 66 -9.5t56 -41.5t27 -84zM173 332v-250h430v-82h-523v729h505v-82h-412v-233h397v-82h-397z" />
    <glyph glyph-name="einvertedbreve" unicode="&#x207;" horiz-adv-x="533" 
d="M430 579h-59q-8 66 -92 66q-40 0 -64 -17t-27 -49h-59q11 135 152 135q36 0 66 -9.5t56 -41.5t27 -84zM503 234h-386q2 -82 42.5 -131t111.5 -49q102 0 137 105h84q-16 -86 -75 -134t-149 -48q-110 0 -174 74.5t-64 203.5t65.5 206.5t174.5 77.5q233 0 233 -305zM119 302
h295q0 68 -41 114t-104 46t-104 -43.5t-46 -116.5z" />
    <glyph glyph-name="Idblgrave" unicode="&#x208;" horiz-adv-x="300" 
d="M254 900l46 -125h-65l-104 125h123zM90 900l69 -125h-65l-127 125h123zM194 729v-729h-94v729h94z" />
    <glyph glyph-name="idblgrave" unicode="&#x209;" horiz-adv-x="262" 
d="M211 729l51 -150h-60l-104 150h113zM42 729l76 -150h-60l-129 150h113zM173 524v-524h-83v524h83z" />
    <glyph glyph-name="Iinvertedbreve" unicode="&#x20a;" horiz-adv-x="300" 
d="M300 765h-59q-8 66 -92 66q-40 0 -64 -17t-27 -49h-59q11 135 152 135q36 0 66 -9.5t56 -41.5t27 -84zM197 729v-729h-94v729h94z" />
    <glyph glyph-name="iinvertedbreve" unicode="&#x20b;" horiz-adv-x="262" 
d="M282 579h-59q-8 66 -92 66q-40 0 -64 -17t-27 -49h-59q11 135 152 135q36 0 66 -9.5t56 -41.5t27 -84zM173 524v-524h-83v524h83z" />
    <glyph glyph-name="Odblgrave" unicode="&#x20c;" horiz-adv-x="784" 
d="M467 900l46 -125h-65l-104 125h123zM303 900l69 -125h-65l-127 125h123zM744 353q0 -162 -96 -269t-256 -107q-158 0 -255 105.5t-97 276.5t97 276.5t254 105.5q160 0 256.5 -106t96.5 -282zM391 659q-116 0 -187 -82.5t-71 -217.5t71.5 -217.5t187.5 -82.5t187.5 82
t71.5 214q0 138 -71 221t-189 83z" />
    <glyph glyph-name="odblgrave" unicode="&#x20d;" horiz-adv-x="534" 
d="M325 729l51 -150h-60l-104 150h113zM156 729l76 -150h-60l-129 150h113zM266 539q113 0 175.5 -74.5t62.5 -210.5q0 -129 -63.5 -203t-173.5 -74q-112 0 -174.5 74.5t-62.5 206.5t63 206.5t173 74.5zM267 462q-70 0 -110 -54.5t-40 -149.5t40 -149.5t110 -54.5
q69 0 109.5 54.5t40.5 146.5q0 97 -39.5 152t-110.5 55z" />
    <glyph glyph-name="Oinvertedbreve" unicode="&#x20e;" horiz-adv-x="784" 
d="M540 765h-59q-8 66 -92 66q-40 0 -64 -17t-27 -49h-59q11 135 152 135q36 0 66 -9.5t56 -41.5t27 -84zM744 353q0 -162 -96 -269t-256 -107q-158 0 -255 105.5t-97 276.5t97 276.5t254 105.5q160 0 256.5 -106t96.5 -282zM391 659q-116 0 -187 -82.5t-71 -217.5
t71.5 -217.5t187.5 -82.5t187.5 82t71.5 214q0 138 -71 221t-189 83z" />
    <glyph glyph-name="oinvertedbreve" unicode="&#x20f;" horiz-adv-x="534" 
d="M425 579h-59q-8 66 -92 66q-40 0 -64 -17t-27 -49h-59q11 135 152 135q36 0 66 -9.5t56 -41.5t27 -84zM266 539q113 0 175.5 -74.5t62.5 -210.5q0 -129 -63.5 -203t-173.5 -74q-112 0 -174.5 74.5t-62.5 206.5t63 206.5t173 74.5zM267 462q-70 0 -110 -54.5t-40 -149.5
t40 -149.5t110 -54.5q69 0 109.5 54.5t40.5 146.5q0 97 -39.5 152t-110.5 55z" />
    <glyph glyph-name="Rdblgrave" unicode="&#x210;" horiz-adv-x="709" 
d="M407 900l46 -125h-65l-104 125h123zM243 900l69 -125h-65l-127 125h123zM523 360q32 -14 53.5 -33t31 -43t12.5 -45t3 -50q0 -9 -0.5 -26t-0.5 -25q0 -41 9 -69t35 -46v-23h-113q-20 46 -20 119v65q0 67 -29 98.5t-91 31.5h-240v-314h-93v729h336q107 0 164.5 -50.5
t57.5 -144.5q0 -62 -27 -103t-88 -71zM541 521q0 72 -38 99t-105 27h-225v-251h225q74 0 108.5 30t34.5 95z" />
    <glyph glyph-name="rdblgrave" unicode="&#x211;" horiz-adv-x="332" 
d="M261 729l51 -150h-60l-104 150h113zM92 729l76 -150h-60l-129 150h113zM312 451q-84 -2 -126 -39t-42 -140v-272h-84v524h77v-95q36 59 69.5 84.5t73.5 25.5q11 0 32 -3v-85z" />
    <glyph glyph-name="Rinvertedbreve" unicode="&#x212;" horiz-adv-x="709" 
d="M501 765h-59q-8 66 -92 66q-40 0 -64 -17t-27 -49h-59q11 135 152 135q36 0 66 -9.5t56 -41.5t27 -84zM523 360q32 -14 53.5 -33t31 -43t12.5 -45t3 -50q0 -9 -0.5 -26t-0.5 -25q0 -41 9 -69t35 -46v-23h-113q-20 46 -20 119v65q0 67 -29 98.5t-91 31.5h-240v-314h-93
v729h336q107 0 164.5 -50.5t57.5 -144.5q0 -62 -27 -103t-88 -71zM541 521q0 72 -38 99t-105 27h-225v-251h225q74 0 108.5 30t34.5 95z" />
    <glyph glyph-name="rinvertedbreve" unicode="&#x213;" horiz-adv-x="332" 
d="M346 579h-59q-8 66 -92 66q-40 0 -64 -17t-27 -49h-59q11 135 152 135q36 0 66 -9.5t56 -41.5t27 -84zM312 451q-84 -2 -126 -39t-42 -140v-272h-84v524h77v-95q36 59 69.5 84.5t73.5 25.5q11 0 32 -3v-85z" />
    <glyph glyph-name="Udblgrave" unicode="&#x214;" horiz-adv-x="720" 
d="M427 900l46 -125h-65l-104 125h123zM263 900l69 -125h-65l-127 125h123zM547 729h93v-512q0 -110 -76.5 -175t-204.5 -65q-130 0 -204.5 64.5t-74.5 175.5v512h93v-512q0 -79 50.5 -118.5t135.5 -39.5q88 0 138 42t50 116v512z" />
    <glyph glyph-name="udblgrave" unicode="&#x215;" horiz-adv-x="537" 
d="M366 729l51 -150h-60l-104 150h113zM197 729l76 -150h-60l-129 150h113zM477 0h-75v73q-37 -52 -77 -74t-98 -22q-76 0 -121.5 39t-45.5 104v404h83v-371q0 -47 29 -75t79 -28q65 0 104 48.5t39 128.5v297h83v-524z" />
    <glyph glyph-name="Uinvertedbreve" unicode="&#x216;" horiz-adv-x="720" 
d="M516 765h-59q-8 66 -92 66q-40 0 -64 -17t-27 -49h-59q11 135 152 135q36 0 66 -9.5t56 -41.5t27 -84zM547 729h93v-512q0 -110 -76.5 -175t-204.5 -65q-130 0 -204.5 64.5t-74.5 175.5v512h93v-512q0 -79 50.5 -118.5t135.5 -39.5q88 0 138 42t50 116v512z" />
    <glyph glyph-name="uinvertedbreve" unicode="&#x217;" horiz-adv-x="537" 
d="M424 579h-59q-8 66 -92 66q-40 0 -64 -17t-27 -49h-59q11 135 152 135q36 0 66 -9.5t56 -41.5t27 -84zM477 0h-75v73q-37 -52 -77 -74t-98 -22q-76 0 -121.5 39t-45.5 104v404h83v-371q0 -47 29 -75t79 -28q65 0 104 48.5t39 128.5v297h83v-524z" />
    <glyph glyph-name="Scommaaccent" unicode="&#x218;" horiz-adv-x="667" 
d="M285 -76h100v-103q0 -56 -26 -88.5t-72 -32.5h-2v38q55 0 55 78v8h-55v100zM342 59q56 0 95 13t57.5 34t26 41.5t7.5 43.5q0 83 -134 118l-181 48q-143 37 -143 170q0 99 69.5 156.5t189.5 57.5q126 0 196 -59.5t71 -166.5h-88q-1 71 -48 109.5t-134 38.5
q-74 0 -118.5 -34t-44.5 -89q0 -42 27 -66t93 -42l183 -49q74 -20 114.5 -68t40.5 -115q0 -29 -7.5 -57.5t-27.5 -59t-51 -53.5t-82.5 -38t-116.5 -15q-41 0 -78.5 6.5t-76.5 24t-67 45t-46.5 73.5t-19.5 106h88v-5q0 -31 9.5 -58t31 -53t64 -41.5t101.5 -15.5z" />
    <glyph glyph-name="scommaaccent" unicode="&#x219;" horiz-adv-x="493" 
d="M195 -76h100v-103q0 -56 -26 -88.5t-72 -32.5h-2v38q55 0 55 78v8h-55v100zM122 156q6 -47 32.5 -74.5t95.5 -27.5q55 0 88.5 22.5t33.5 59.5q0 29 -19 46t-62 27l-78 19q-93 22 -129.5 55.5t-36.5 95.5q0 73 55 116.5t146 43.5t140 -42t50 -119h-88q-3 84 -105 84
q-51 0 -81 -21.5t-30 -57.5q0 -28 23 -45.5t74 -29.5l80 -19q78 -19 113 -53.5t35 -92.5q0 -76 -58.5 -121t-157.5 -45q-203 0 -209 179h88z" />
    <glyph glyph-name="uni021A" unicode="&#x21a;" horiz-adv-x="632" 
d="M255 -76h100v-103q0 -56 -26 -88.5t-72 -32.5h-2v38q55 0 55 78v8h-55v100zM363 647v-647h-93v647h-240v82h572v-82h-239z" />
    <glyph glyph-name="uni021B" unicode="&#x21b;" horiz-adv-x="280" 
d="M95 -76h100v-103q0 -56 -26 -88.5t-72 -32.5h-2v38q55 0 55 78v8h-55v100zM260 524v-68h-86v-359q0 -28 9.5 -37.5t36.5 -9.5q25 0 40 4v-70q-39 -7 -68 -7q-49 0 -75 21.5t-26 61.5v396h-71v68h71v144h83v-144h86z" />
    <glyph glyph-name="uni021C" unicode="&#x21c;" horiz-adv-x="539" 
d="M263 632q-76 0 -104.5 -41.5t-30.5 -110.5h-88q5 229 222 229q101 0 158.5 -52t57.5 -143q0 -49 -24.5 -88.5t-52.5 -55.5q98 -49 98 -172q0 -47 -24 -86.5t-53.5 -65t-95 -54.5t-105.5 -42.5t-128 -41.5q-17 -5 -25 -8l-22 87q62 16 143.5 49t150.5 79t69 82
q0 31 -5.5 51.5t-20.5 34t-23.5 18t-32.5 15.5q-64 -34 -155 -62l-20 75q123 50 160 74q76 48 76 108q0 56 -33.5 88.5t-91.5 32.5z" />
    <glyph glyph-name="uni021D" unicode="&#x21d;" horiz-adv-x="414" 
d="M198 464q-39 0 -65.5 -28t-26.5 -76h-86q0 80 49 131t128 51q76 0 124 -44t48 -112q0 -40 -17 -69t-38 -41q70 -35 70 -128q0 -31 -11.5 -57t-38 -48t-51.5 -37.5t-71 -33.5t-75 -28t-85 -28l-17 74q11 3 28.5 7.5t62.5 20.5t79.5 33t63 43.5t28.5 53.5q0 31 -9 46.5
t-38 34.5q-46 -25 -120 -47l-17 69q97 39 124 59q44 32 44 73q0 81 -83 81z" />
    <glyph glyph-name="uni021E" unicode="&#x21e;" horiz-adv-x="721" 
d="M411 775h-95l-96 125h63l81 -61l79 61h64zM548 332h-375v-332h-93v729h93v-315h375v315h93v-729h-93v332z" />
    <glyph glyph-name="uni021F" unicode="&#x21f;" horiz-adv-x="536" 
d="M344 750h-95l-96 150h63l81 -96l79 96h64zM393 363q0 55 -33.5 79t-74.5 24q-64 0 -103 -48.5t-39 -128.5v-289h-83v729h83v-277q37 48 74.5 67.5t93.5 19.5q76 0 120.5 -38.5t44.5 -104.5v-396h-83v363z" />
    <glyph glyph-name="uni0220" unicode="&#x220;" horiz-adv-x="720" 
d="M173 0h-93v729h93v-40q74 52 188 52q130 0 204.5 -64.5t74.5 -175.5v-720h-93v720q0 79 -50.5 118.5t-135.5 39.5q-88 0 -138 -42t-50 -116v-501z" />
    <glyph glyph-name="uni0224" unicode="&#x224;" horiz-adv-x="615" 
d="M583 729v-84l-436 -563h438v-189q0 -109 -144 -109q-13 0 -28 3v71q17 -1 20 -1q38 0 53 15t15 54v74h-471v82l438 565h-410v82h525z" />
    <glyph glyph-name="uni0225" unicode="&#x225;" horiz-adv-x="486" 
d="M372 0h-342v75l313 376h-292v73h391v-74l-311 -377h325v-180q0 -109 -144 -109q-13 0 -28 3v71q17 -1 20 -1q38 0 53 15t15 54v74z" />
    <glyph glyph-name="A_dotaccent" unicode="&#x226;" horiz-adv-x="666" 
d="M389 900v-104h-104v104h104zM472 219h-281l-77 -219h-99l260 729h120l256 -729h-104zM446 297l-112 332l-120 -332h232z" />
    <glyph glyph-name="a_dotaccent" unicode="&#x227;" horiz-adv-x="543" 
d="M327 729v-104h-104v104h104zM53 369q6 170 210 170q97 0 147 -36.5t50 -106.5v-308q0 -41 45 -41q9 0 18 2v-63q-35 -9 -57 -9q-40 0 -60.5 18.5t-25.5 58.5q-84 -77 -178 -77q-79 0 -125.5 42t-46.5 113q0 23 4.5 42t10 33.5t19.5 27t23.5 20.5t32 15.5t34.5 11t42 8.5
t44 7t50 7q49 6 68 19t19 39v22q0 38 -30.5 58t-86.5 20q-58 0 -88 -22.5t-35 -70.5h-84zM220 50q69 0 113 36.5t44 78.5v94q-25 -12 -75.5 -20t-87.5 -14t-67 -28.5t-30 -62.5t27 -62t76 -22z" />
    <glyph glyph-name="uni0228" unicode="&#x228;" horiz-adv-x="633" 
d="M218 -133q9 -4 25.5 -12t25 -11.5t21.5 -6.5t26 -3q23 0 38.5 13t15.5 32q0 37 -46 37q-15 0 -31 -8l-12 7l39 85h-240v729h505v-82h-412v-233h397v-82h-397v-250h430v-82h-245l-20 -49q13 2 28 2q38 0 58.5 -17.5t20.5 -49.5q0 -43 -33 -68t-90 -25q-47 0 -125 34z" />
    <glyph glyph-name="uni0229" unicode="&#x229;" horiz-adv-x="533" 
d="M144 -156q9 -4 25.5 -12t25 -11.5t21.5 -6.5t26 -3q23 0 38.5 13t15.5 32q0 37 -46 37q-15 0 -31 -8l-12 7l39 86q-101 7 -158.5 81t-57.5 196q0 129 65.5 206.5t174.5 77.5q74 0 130.5 -37t81.5 -101q21 -55 21 -167h-386q1 -72 28 -112q43 -68 126 -68q102 0 137 105
h84q-15 -82 -69.5 -129.5t-138.5 -52.5l-20 -49q13 2 28 2q38 0 58.5 -17.5t20.5 -49.5q0 -43 -33 -68t-90 -25q-47 0 -125 34zM119 302h294q1 2 1 6q0 65 -42 109.5t-103 44.5q-63 0 -104 -43.5t-46 -116.5z" />
    <glyph glyph-name="uni022A" unicode="&#x22a;" horiz-adv-x="784" 
d="M534 864v-104h-104v104h104zM355 864v-104h-104v104h104zM744 353q0 -162 -96 -269t-256 -107q-158 0 -255 105.5t-97 276.5t97 276.5t254 105.5q160 0 256.5 -106t96.5 -282zM391 659q-116 0 -187 -82.5t-71 -217.5t71.5 -217.5t187.5 -82.5t187.5 82t71.5 214
q0 138 -71 221t-189 83zM528 965v-70h-274v70h274z" />
    <glyph glyph-name="uni022B" unicode="&#x22b;" horiz-adv-x="534" 
d="M417 679v-104h-104v104h104zM238 679v-104h-104v104h104zM266 539q113 0 175.5 -74.5t62.5 -210.5q0 -129 -63.5 -203t-173.5 -74q-112 0 -174.5 74.5t-62.5 206.5t63 206.5t173 74.5zM267 462q-70 0 -110 -54.5t-40 -149.5t40 -149.5t110 -54.5q69 0 109.5 54.5
t40.5 146.5q0 97 -39.5 152t-110.5 55zM415 800v-70h-274v70h274z" />
    <glyph glyph-name="uni022C" unicode="&#x22c;" horiz-adv-x="784" 
d="M533 998v-70h-274v70h274zM318 882q25 0 69 -18.5t64 -18.5q25 0 37 37h58q-15 -104 -89 -104q-20 0 -70 19t-64 19q-23 0 -33 -37h-58q8 49 30.5 76t55.5 27zM744 353q0 -162 -96 -269t-256 -107q-158 0 -255 105.5t-97 276.5t97 276.5t254 105.5q160 0 256.5 -106
t96.5 -282zM391 659q-116 0 -187 -82.5t-71 -217.5t71.5 -217.5t187.5 -82.5t187.5 82t71.5 214q0 138 -71 221t-189 83z" />
    <glyph glyph-name="uni022D" unicode="&#x22d;" horiz-adv-x="534" 
d="M201 678q25 0 69 -18.5t64 -18.5q25 0 37 37h58q-15 -104 -89 -104q-20 0 -70 19t-64 19q-23 0 -33 -37h-58q8 49 30.5 76t55.5 27zM266 539q113 0 175.5 -74.5t62.5 -210.5q0 -129 -63.5 -203t-173.5 -74q-112 0 -174.5 74.5t-62.5 206.5t63 206.5t173 74.5zM267 462
q-70 0 -110 -54.5t-40 -149.5t40 -149.5t110 -54.5q69 0 109.5 54.5t40.5 146.5q0 97 -39.5 152t-110.5 55zM416 800v-70h-274v70h274z" />
    <glyph glyph-name="uni022E" unicode="&#x22e;" horiz-adv-x="784" 
d="M441 900v-104h-104v104h104zM744 353q0 -162 -96 -269t-256 -107q-158 0 -255 105.5t-97 276.5t97 276.5t254 105.5q160 0 256.5 -106t96.5 -282zM391 659q-116 0 -187 -82.5t-71 -217.5t71.5 -217.5t187.5 -82.5t187.5 82t71.5 214q0 138 -71 221t-189 83z" />
    <glyph glyph-name="uni022F" unicode="&#x22f;" horiz-adv-x="534" 
d="M324 701v-104h-104v104h104zM266 539q113 0 175.5 -74.5t62.5 -210.5q0 -129 -63.5 -203t-173.5 -74q-112 0 -174.5 74.5t-62.5 206.5t63 206.5t173 74.5zM267 462q-70 0 -110 -54.5t-40 -149.5t40 -149.5t110 -54.5q69 0 109.5 54.5t40.5 146.5q0 97 -39.5 152
t-110.5 55z" />
    <glyph glyph-name="uni0230" unicode="&#x230;" horiz-adv-x="784" 
d="M441 880v-104h-104v104h104zM744 353q0 -162 -96 -269t-256 -107q-158 0 -255 105.5t-97 276.5t97 276.5t254 105.5q160 0 256.5 -106t96.5 -282zM391 659q-116 0 -187 -82.5t-71 -217.5t71.5 -217.5t187.5 -82.5t187.5 82t71.5 214q0 138 -71 221t-189 83zM526 985v-70
h-274v70h274z" />
    <glyph glyph-name="uni0231" unicode="&#x231;" horiz-adv-x="534" 
d="M324 687v-104h-104v104h104zM266 539q113 0 175.5 -74.5t62.5 -210.5q0 -129 -63.5 -203t-173.5 -74q-112 0 -174.5 74.5t-62.5 206.5t63 206.5t173 74.5zM267 462q-70 0 -110 -54.5t-40 -149.5t40 -149.5t110 -54.5q69 0 109.5 54.5t40.5 146.5q0 97 -39.5 152
t-110.5 55zM409 802v-70h-274v70h274z" />
    <glyph glyph-name="uni0232" unicode="&#x232;" horiz-adv-x="678" 
d="M474 851v-70h-274v70h274zM389 286v-286h-93v286l-281 443h115l214 -355l208 355h111z" />
    <glyph glyph-name="uni0233" unicode="&#x233;" horiz-adv-x="478" 
d="M386 649v-70h-274v70h274zM378 524h90l-233 -634q-41 -108 -135 -108q-31 0 -56 13v75q27 -6 44 -6q26 0 41 11.5t26 39.5l32 83l-177 526h89l134 -408z" />
    <glyph glyph-name="dotlessj" unicode="&#x237;" horiz-adv-x="222" 
d="M70 524h83v-633q0 -109 -143 -109q-13 0 -28 3v71q17 -1 20 -1q38 0 53 15t15 54v600z" />
    <glyph glyph-name="uni0238" unicode="&#x238;" horiz-adv-x="915" 
d="M269 461q-68 0 -110 -56t-42 -147q0 -92 42 -147.5t111 -55.5q66 0 106 55t40 146q0 94 -40 149.5t-107 55.5zM499 258q0 -92 40 -147.5t106 -55.5q68 0 110.5 55.5t42.5 144.5q0 94 -41.5 150t-111.5 56q-66 0 -106 -55.5t-40 -147.5zM416 458v271h83v-276q57 86 162 86
q104 0 164 -74t60 -201q0 -130 -62 -208.5t-166 -78.5q-107 0 -166 90v-67h-66v69q-34 -49 -73.5 -70.5t-93.5 -21.5q-106 0 -167 76.5t-61 209.5q0 125 61.5 200.5t163.5 75.5q108 0 161 -81z" />
    <glyph glyph-name="uni0239" unicode="&#x239;" horiz-adv-x="914" 
d="M270 461q-69 0 -111 -56t-42 -147q0 -92 42 -147.5t111 -55.5q66 0 106 55t40 145q0 94 -39.5 150t-106.5 56zM499 258q0 -92 40 -147.5t106 -55.5q68 0 110 55.5t42 144.5q0 94 -41.5 150t-110.5 56q-66 0 -106 -55.5t-40 -147.5zM499 -218h-84v278q-57 -83 -161 -83
t-164 74t-60 201q0 130 62 208.5t166 78.5q107 0 167 -85v70h67v-79q59 94 167 94q104 0 164.5 -77t60.5 -209q0 -125 -61.5 -200.5t-162.5 -75.5q-97 0 -161 78v-273z" />
    <glyph glyph-name="aturn" unicode="&#x250;" horiz-adv-x="543" 
d="M490 147q-6 -170 -210 -170q-97 0 -147 36.5t-50 106.5v308q0 41 -45 41q-9 0 -18 -2v63q35 9 57 9q40 0 60.5 -18.5t25.5 -58.5q84 77 178 77q79 0 125.5 -42t46.5 -113q0 -23 -4.5 -42t-10 -33.5t-19.5 -27t-23.5 -20.5t-32 -15.5t-34.5 -11t-42 -8.5t-44 -7t-50 -7
q-49 -6 -68 -19t-19 -39v-22q0 -38 30.5 -58t86.5 -20q58 0 88 22.5t35 70.5h84zM323 466q-69 0 -113 -36.5t-44 -78.5v-94q25 12 75.5 20t87.5 14t67 28.5t30 62.5t-27 62t-76 22z" />
    <glyph glyph-name="ascript" unicode="&#x251;" horiz-adv-x="572" 
d="M401 263q0 87 -39.5 147.5t-109.5 60.5q-63 0 -99 -63.5t-36 -146.5q0 -81 42.5 -141t109.5 -60q64 0 98 59.5t34 143.5zM237 -14q-75 0 -141 77t-66 195q0 122 56 201t164 79q90 0 156 -80v66h83v-436q0 -41 45 -41q9 0 18 2v-63q-35 -9 -57 -9q-40 0 -61.5 18.5
t-26.5 61.5q-38 -36 -75 -53t-95 -18z" />
    <glyph glyph-name="ascriptturn" unicode="&#x252;" horiz-adv-x="572" 
d="M171 261q0 -87 39.5 -147.5t109.5 -60.5q63 0 99 63.5t36 146.5q0 81 -42.5 141t-109.5 60q-64 0 -98 -59.5t-34 -143.5zM335 538q75 0 141 -77t66 -195q0 -122 -56 -201t-164 -79q-90 0 -156 80v-66h-83v436q0 41 -45 41q-9 0 -18 -2v63q35 9 57 9q40 0 61.5 -18.5
t26.5 -61.5q38 36 75 53t95 18z" />
    <glyph glyph-name="bhook" unicode="&#x253;" horiz-adv-x="559" 
d="M289 461q-66 0 -106 -55.5t-40 -147.5t40 -147.5t106 -55.5q68 0 110.5 55.5t42.5 144.5q0 94 -41.5 150t-111.5 56zM60 0v613q0 56 32.5 87.5t90.5 31.5q23 0 47 -5v-69q-19 1 -29 1q-58 0 -58 -53v-153q57 86 162 86q104 0 164 -74t60 -201q0 -130 -62 -208.5
t-166 -78.5q-107 0 -166 90v-67h-75z" />
    <glyph glyph-name="cturn" unicode="&#x254;" horiz-adv-x="506" 
d="M36 168h84q8 -55 40 -84.5t84 -29.5q68 0 106.5 55.5t38.5 153.5q0 93 -39 146t-108 53q-107 0 -128 -126h-84q8 96 64 149.5t150 53.5q107 0 169.5 -74.5t62.5 -201.5q0 -130 -63.5 -208t-169.5 -78q-91 0 -145.5 49t-61.5 142z" />
    <glyph glyph-name="ccurl" unicode="&#x255;" horiz-adv-x="501" 
d="M264 54q56 0 90 13t34 35q-2 17 -5 26t-15.5 15.5t-35.5 6.5q-45 0 -138 -77q29 -19 70 -19zM464 98q0 -48 -45.5 -84.5t-154.5 -36.5q-78 0 -134 41q-48 -42 -71 -60l-48 60l68 54q-48 73 -48 181q0 130 63.5 208t169.5 78q91 0 145.5 -49t61.5 -142h-84q-8 55 -40 84.5
t-84 29.5q-68 0 -106.5 -55.5t-38.5 -153.5q0 -78 27 -126q87 72 109 84q30 17 71 17q24 0 45.5 -5t44 -18t36 -40.5t13.5 -66.5z" />
    <glyph glyph-name="dtail" unicode="&#x256;" horiz-adv-x="602" 
d="M269 461q-68 0 -110 -56t-42 -147q0 -92 42 -147.5t111 -55.5q66 0 106 55t40 146q0 94 -40 149.5t-107 55.5zM425 69q-34 -49 -73.5 -70.5t-93.5 -21.5q-106 0 -167 76.5t-61 209.5q0 125 61.5 200.5t163.5 75.5q108 0 161 -81v271h83v-805q0 -38 17 -53.5t56 -15.5
q3 0 20 1v-71q-15 -3 -28 -3q-139 0 -139 109v178z" />
    <glyph glyph-name="dhook" unicode="&#x257;" horiz-adv-x="596" 
d="M269 461q-68 0 -110 -56t-42 -147q0 -92 42 -147.5t111 -55.5q66 0 106 55t40 146q0 94 -40 149.5t-107 55.5zM499 606v-606h-74v69q-34 -49 -73.5 -70.5t-93.5 -21.5q-106 0 -167 76.5t-61 209.5q0 125 61.5 200.5t163.5 75.5q108 0 161 -81v155q0 56 32.5 87.5
t90.5 31.5q23 0 47 -5v-69q-19 1 -29 1q-58 0 -58 -53z" />
    <glyph glyph-name="erev" unicode="&#x258;" horiz-adv-x="533" 
d="M30 234q4 305 233 305q109 0 174.5 -77.5t65.5 -206.5t-64 -203.5t-174 -74.5q-90 0 -149 48t-75 134h84q35 -105 137 -105q23 0 46 7t48.5 24.5t42 55.5t17.5 93h-386zM414 302q-5 73 -46 116.5t-104 43.5q-60 0 -101.5 -44.5t-43.5 -115.5h295z" />
    <glyph glyph-name="schwa" unicode="&#x259;" horiz-adv-x="533" 
d="M30 282h386q-2 82 -42.5 131t-111.5 49q-102 0 -137 -105h-84q16 86 75 134t149 48q110 0 174 -74.5t64 -203.5t-65.5 -206.5t-174.5 -77.5q-233 0 -233 305zM414 214h-295q0 -68 41 -114t104 -46t104 43.5t46 116.5z" />
    <glyph glyph-name="schwahook" unicode="&#x25a;" horiz-adv-x="784" 
d="M414 214h-295q0 -77 44.5 -118.5t100.5 -41.5q63 0 104 43.5t46 116.5zM30 282h386q-1 45 -13 79t-28.5 52.5t-38.5 30t-39.5 15t-34.5 3.5q-102 0 -137 -105h-84q16 86 75 134t149 48q100 0 163 -62l89 93h69q11 -28 30.5 -98t35.5 -112t31 -42q7 0 14 2t12 4.5t11 8
t9.5 9t9.5 12t8 12t8.5 14t8.5 13.5v-114q-45 -45 -87 -45q-79 0 -140 258l-69 -71q35 -66 35 -160q0 -129 -65.5 -206.5t-174.5 -77.5q-48 0 -86 13t-62 32t-41.5 49.5t-25.5 54.5t-12.5 59.5t-5 52.5t-0.5 44z" />
    <glyph glyph-name="epsilonlatin" unicode="&#x25b;" horiz-adv-x="485" 
d="M367 156h88q-6 -179 -209 -179q-99 0 -157.5 45t-58.5 121q0 86 86 124q-65 37 -65 112q0 73 55 116.5t146 43.5t140 -42t50 -119h-88q-3 84 -105 84q-51 0 -81 -21.5t-30 -57.5q0 -33 24.5 -59.5t72.5 -26.5h62v-76h-74q-43 0 -72.5 -27t-29.5 -58q0 -37 32 -59.5
t86 -22.5q69 0 95 27.5t33 74.5z" />
    <glyph glyph-name="epsilonlatinrev" unicode="&#x25c;" horiz-adv-x="485" 
d="M118 156q6 -47 32.5 -74.5t95.5 -27.5q54 0 86 22.5t32 59.5q0 31 -29.5 58t-72.5 27h-74v76h62q48 0 72.5 26.5t24.5 59.5q0 36 -30 57.5t-81 21.5q-102 0 -105 -84h-88q1 77 50 119t140 42t146 -43.5t55 -116.5q0 -75 -65 -112q86 -38 86 -124q0 -76 -58.5 -121
t-157.5 -45q-203 0 -209 179h88z" />
    <glyph glyph-name="epsilonlatinrevhook" unicode="&#x25d;" horiz-adv-x="736" 
d="M118 156q6 -47 32.5 -74.5t95.5 -27.5q54 0 86 22.5t32 59.5q0 31 -29.5 58t-72.5 27h-74v76h62q48 0 72.5 26.5t24.5 59.5q0 36 -30 57.5t-81 21.5q-102 0 -105 -84h-88q1 77 50 119t140 42q96 0 151 -48l85 79h69q10 -27 30 -97.5t36.5 -112.5t32.5 -42q10 0 18.5 3.5
t14 7t13.5 13.5t11 14.5t11.5 18.5t10.5 18v-114q-45 -45 -87 -45q-25 0 -46 20t-38 61.5t-28 76t-26 92.5q-1 5 -2 8q0 -2 -62 -64q7 -23 7 -49q0 -75 -65 -112q86 -38 86 -124q0 -76 -58.5 -121t-157.5 -45q-203 0 -209 179h88z" />
    <glyph glyph-name="epsilonlatinrevclosed" unicode="&#x25e;" horiz-adv-x="505" 
d="M30 270q1 136 49.5 202.5t170.5 66.5q92 0 148 -43.5t56 -116.5q0 -40 -15.5 -66.5t-49.5 -45.5q44 -20 65 -49.5t21 -74.5q0 -76 -57 -121t-156 -45q-121 0 -176.5 66t-55.5 223v4zM253 462q-71 0 -102.5 -44.5t-31.5 -159.5q0 -109 35.5 -156.5t114.5 -47.5
q54 0 84.5 22.5t30.5 59.5q0 31 -29.5 58t-72.5 27h-53v76h41q48 0 72.5 26.5t24.5 59.5q0 36 -31.5 57.5t-82.5 21.5z" />
    <glyph glyph-name="jdotlessbar" unicode="&#x25f;" horiz-adv-x="288" 
d="M108 524h83v-212h77v-72h-77v-349q0 -109 -143 -109q-13 0 -28 3v71q17 -1 20 -1q38 0 53 15t15 54v316h-78v72h78v212z" />
    <glyph glyph-name="ghook" unicode="&#x260;" horiz-adv-x="587" 
d="M262 462q-67 0 -106 -55t-39 -149q0 -95 39 -149.5t107 -54.5q66 0 104 53.5t38 147.5q0 98 -37.5 152.5t-105.5 54.5zM259 -148q84 0 115 47t31 145v27q-35 -50 -72.5 -72t-86.5 -22q-92 0 -154 75.5t-62 200.5q0 128 61.5 207t161.5 79q98 0 160 -91v83q0 57 30 88
t87 31q23 0 47 -5v-69q-19 1 -29 1q-30 0 -44 -12t-14 -41v-438q0 -75 -9 -125.5t-33 -93.5t-71.5 -64t-120.5 -21q-92 0 -147 42t-62 116h85q14 -88 127 -88z" />
    <glyph glyph-name="gscript" unicode="&#x261;" horiz-adv-x="557" 
d="M262 462q-67 0 -106 -55t-39 -149q0 -95 39 -149.5t107 -54.5q66 0 104 53.5t38 147.5q0 98 -37.5 152.5t-105.5 54.5zM246 -23q-92 0 -154 75.5t-62 200.5q0 128 61.5 207t161.5 79q98 0 158 -89q3 35 21 58t49 23t61 -11l-14 -72q-10 3 -16 3q-22 0 -22 -37v-328
q0 -75 -9 -125.5t-33 -93.5t-71.5 -64t-120.5 -21q-92 0 -147 42t-62 116h85q14 -88 127 -88q84 0 115 47.5t31 144.5v27q-35 -50 -72.5 -72t-86.5 -22z" />
    <glyph glyph-name="Gsmallcap" unicode="&#x262;" horiz-adv-x="562" 
d="M117 255q0 -97 38.5 -150t136.5 -53q46 0 94 42.5t48 108.5v15h-137v61h225v-288h-44l-17 72q-76 -86 -184 -86q-110 0 -178.5 77t-68.5 201q0 35 7 71t25 75.5t46 69t75 49t106 19.5q93 0 152 -45t74 -127h-86q-11 51 -44.5 73t-96.5 22q-85 0 -128 -53.5t-43 -153.5z
" />
    <glyph glyph-name="gammalatin" unicode="&#x263;" horiz-adv-x="483" 
d="M241 -160q17 0 30.5 18.5t13.5 41.5q0 12 -15.5 55t-26.5 67q-13 -24 -29.5 -67.5t-16.5 -55.5q0 -23 13.5 -41t30.5 -18zM116 -105q0 16 9 45t19 51t28.5 63t24.5 55l-187 415h92l141 -314l141 314h89l-183 -415q7 -14 25.5 -53t28.5 -61.5t19.5 -50.5t9.5 -44
q0 -62 -45.5 -96t-87.5 -34q-46 0 -85 32t-39 93z" />
    <glyph glyph-name="ramshorn" unicode="&#x264;" horiz-adv-x="552" 
d="M162 542q52 0 110 -63q59 63 112 63q62 0 110 -72t48 -137h-76q0 29 -25 80t-53 51q-11 0 -31 -15.5t-35 -33.5q43 -64 73 -137t30 -110q0 -54 -13.5 -93.5t-36 -60t-45.5 -29.5t-48 -9q-61 0 -108 45t-47 147q0 41 28 113.5t69 135.5q-37 46 -60 46t-49 -44.5t-29 -85.5
h-76q4 84 53 146.5t99 62.5zM273 347q-69 -109 -69 -180q0 -63 22.5 -88.5t51.5 -25.5q27 0 43.5 19.5t21.5 44t5 53.5q0 23 -22 74.5t-53 102.5z" />
    <glyph glyph-name="hturn" unicode="&#x265;" horiz-adv-x="536" 
d="M143 161q0 -55 33.5 -79t74.5 -24q64 0 103 48.5t39 128.5v289h83v-729h-83v277q-37 -48 -74.5 -67.5t-93.5 -19.5q-76 0 -120.5 38.5t-44.5 104.5v396h83v-363z" />
    <glyph glyph-name="hhook" unicode="&#x266;" horiz-adv-x="536" 
d="M393 363q0 55 -33.5 79t-74.5 24q-64 0 -103 -48.5t-39 -128.5v-289h-83v613q0 56 32.5 87.5t90.5 31.5q23 0 47 -5v-69q-21 2 -29 2q-58 0 -58 -54v-154q37 48 74.5 67.5t93.5 19.5q76 0 120.5 -38.5t44.5 -104.5v-396h-83v363z" />
    <glyph glyph-name="henghook" unicode="&#x267;" horiz-adv-x="536" 
d="M393 363q0 55 -33.5 79t-74.5 24q-64 0 -103 -48.5t-39 -128.5v-289h-83v613q0 56 32.5 87.5t90.5 31.5q23 0 47 -5v-69q-19 1 -29 1q-58 0 -58 -53v-154q37 48 74.5 67.5t93.5 19.5q76 0 120.5 -38.5t44.5 -104.5v-505q0 -109 -143 -109q-13 0 -28 3v71q17 -1 20 -1
q38 0 53 15t15 54v439z" />
    <glyph glyph-name="ibar" unicode="&#x268;" horiz-adv-x="268" 
d="M173 729v-105h-84v105h84zM90 312v212h83v-212h80v-72h-80v-240h-83v240h-75v72h75z" />
    <glyph glyph-name="iotalatin" unicode="&#x269;" horiz-adv-x="255" 
d="M149 524v-427q0 -28 9.5 -37.5t36.5 -9.5q25 0 40 4v-70q-39 -7 -68 -7q-49 0 -75 21.5t-26 61.5v464h83z" />
    <glyph glyph-name="Ismallcap" unicode="&#x26a;" horiz-adv-x="278" 
d="M20 524h238v-72h-73v-380h73v-72h-238v72h82v380h-82v72z" />
    <glyph glyph-name="lmidtilde" unicode="&#x26b;" horiz-adv-x="473" 
d="M126 371q-47 0 -53 -78h-53q4 70 31.5 107.5t76.5 37.5q26 0 53 -15v306h84v-356l17.5 -10.5t16.5 -9.5t12.5 -7t13.5 -6t11.5 -2.5t12.5 -1.5q30 0 40.5 18.5t10.5 56.5h53q0 -143 -105 -143q-39 0 -81 26l-2 1v-295h-84v349q-34 22 -55 22z" />
    <glyph glyph-name="lbelt" unicode="&#x26c;" horiz-adv-x="427" 
d="M171 511v218h84v-373h152v-77h-152v-279h-84v279q-151 0 -151 113q0 19 7.5 38t23 37t47 30t73.5 14zM171 356v82q-40 0 -57 -12.5t-17 -29.5q0 -40 74 -40z" />
    <glyph glyph-name="lrthook" unicode="&#x26d;" horiz-adv-x="260" 
d="M68 -109v838h84v-805q0 -39 15 -54t53 -15q3 0 20 1v-71q-15 -3 -28 -3q-144 0 -144 109z" />
    <glyph glyph-name="lezh" unicode="&#x26e;" horiz-adv-x="608" 
d="M392 276q89 -11 137.5 -60.5t48.5 -137.5q0 -101 -65.5 -161t-174.5 -60q-149 0 -202 103l73 46q15 -24 25.5 -36.5t38 -23.5t68.5 -11q69 0 108 37.5t39 104.5q0 130 -147 130q-22 0 -48 -2v75l143 171h-292v-451h-84v729h84v-205h391v-74z" />
    <glyph glyph-name="mturned" unicode="&#x26f;" horiz-adv-x="812" 
d="M752 0h-77v74q-34 -47 -71.5 -68t-89.5 -21q-97 0 -141 80q-37 -44 -73 -62t-88 -18q-73 0 -112.5 37.5t-39.5 108.5v393h84v-361q0 -50 25.5 -77.5t71.5 -27.5q51 0 87 40t36 97v329h84v-361q0 -50 25.5 -77.5t71.5 -27.5q51 0 87 40t36 97v329h84v-524z" />
    <glyph glyph-name="mlonglegturned" unicode="&#x270;" horiz-adv-x="812" 
d="M752 -200h-77v274q-34 -47 -71.5 -68t-89.5 -21q-97 0 -141 80q-37 -44 -73 -62t-88 -18q-73 0 -112.5 37.5t-39.5 108.5v393h84v-361q0 -50 25.5 -77.5t71.5 -27.5q51 0 87 40t36 97v329h84v-361q0 -50 25.5 -77.5t71.5 -27.5q51 0 87 40t36 97v329h84v-724z" />
    <glyph glyph-name="mhook" unicode="&#x271;" horiz-adv-x="812" 
d="M60 524h77v-74q34 47 71.5 68t89.5 21q97 0 141 -80q37 44 73 62t88 18q73 0 112.5 -37.5t39.5 -108.5v-502q0 -109 -144 -109q-13 0 -28 3v71q17 -1 20 -1q38 0 53 15t15 54v437q0 50 -25.5 77.5t-71.5 27.5q-51 0 -87 -40t-36 -97v-329h-84v361q0 50 -25.5 77.5
t-71.5 27.5q-51 0 -87 -40t-36 -97v-329h-84v524z" />
    <glyph glyph-name="nhookleft" unicode="&#x272;" horiz-adv-x="575" 
d="M98 524h77v-88q35 55 75.5 79t98.5 24q76 0 121 -39t45 -104v-396h-83v363q0 47 -29 75t-79 28q-64 0 -103 -48.5t-39 -128.5v-398q0 -109 -144 -109q-13 0 -28 3v71q17 -1 20 -1q38 0 53 15t15 54v600z" />
    <glyph glyph-name="nrthook" unicode="&#x273;" horiz-adv-x="576" 
d="M60 524h77v-88q35 55 75.5 79t98.5 24q76 0 121.5 -39t45.5 -104v-472q0 -39 15 -54t53 -15q3 0 20 1v-71q-15 -3 -28 -3q-144 0 -144 109v472q0 47 -29 75t-79 28q-64 0 -103 -48.5t-39 -128.5v-289h-84v524z" />
    <glyph glyph-name="Nsmallcap" unicode="&#x274;" horiz-adv-x="547" 
d="M487 524v-524h-109l-235 413v-413h-83v524h108l235 -413v413h84z" />
    <glyph glyph-name="obar" unicode="&#x275;" horiz-adv-x="534" 
d="M266 539q113 0 175.5 -74.5t62.5 -210.5q0 -129 -63.5 -203t-173.5 -74q-112 0 -174.5 74.5t-62.5 206.5t63 206.5t173 74.5zM416 290q-8 82 -46.5 127t-102.5 45t-103 -45.5t-46 -126.5h298zM415 220h-296q8 -78 47 -122t101 -44t101 44t47 122z" />
    <glyph glyph-name="OEsmallcap" unicode="&#x276;" horiz-adv-x="754" 
d="M267 462q-70 0 -110 -54.5t-40 -149.5t40 -149.5t110 -54.5q95 0 133 98v212q-36 98 -133 98zM730 449h-246v-142h212v-76h-212v-155h250v-76h-334v15q-55 -38 -133 -38q-112 0 -174.5 74.5t-62.5 206.5t63 206.5t173 74.5q78 0 134 -37v22h330v-75z" />
    <glyph glyph-name="omegaclosed" unicode="&#x277;" horiz-adv-x="728" 
d="M614 235q0 58 -14.5 100t-37 66.5t-57 38.5t-67 18.5t-74.5 4.5q-130 0 -190 -56.5t-60 -171.5q0 -73 25.5 -122.5t83.5 -49.5q55 0 77 28.5t22 61.5v223h84v-223q0 -34 23.5 -62t74.5 -28q40 0 66 26.5t35 62.5t9 83zM30 241q0 41 7 78t29 79.5t57.5 73t97.5 50.5
t143 20t142.5 -19.5t97 -50t57.5 -72t29.5 -79.5t7.5 -80q0 -70 -18 -122t-48 -78t-60.5 -38t-63.5 -12q-96 0 -144 90q-46 -90 -144 -90q-94 0 -142 72t-48 178z" />
    <glyph glyph-name="philatin" unicode="&#x278;" horiz-adv-x="700" 
d="M24 262q0 117 68 193.5t208 76.5v180h88v-180q122 0 199 -75.5t77 -196.5q0 -56 -14.5 -103t-46 -85.5t-86.5 -60t-129 -21.5v-190h-88v190q-122 0 -199 75.5t-77 196.5zM108 261q0 -83 48.5 -136.5t143.5 -53.5v380q-98 0 -145 -55.5t-47 -134.5zM580 261
q0 83 -47.5 136.5t-144.5 53.5v-380q101 0 146.5 52.5t45.5 137.5z" />
    <glyph glyph-name="rturn" unicode="&#x279;" horiz-adv-x="332" 
d="M20 73q84 2 126 39t42 140v272h84v-524h-77v95q-36 -59 -69.5 -84.5t-73.5 -25.5q-11 0 -32 3v85z" />
    <glyph glyph-name="rlonglegturned" unicode="&#x27a;" horiz-adv-x="332" 
d="M20 73q84 2 126 39t42 140v477h84v-729h-77v95q-36 -59 -69.5 -84.5t-73.5 -25.5q-11 0 -32 3v85z" />
    <glyph glyph-name="rhookturned" unicode="&#x27b;" horiz-adv-x="380" 
d="M20 73q84 2 126 39t42 140v272h84v-600q0 -39 15 -54t53 -15q12 0 20 1v-71q-15 -3 -28 -3q-137 0 -137 109v204q-36 -59 -69.5 -84.5t-73.5 -25.5q-11 0 -32 3v85z" />
    <glyph glyph-name="rlongleg" unicode="&#x27c;" horiz-adv-x="332" 
d="M312 451q-84 -2 -126 -39t-42 -140v-472h-84v724h77v-95q36 59 69.5 84.5t73.5 25.5q11 0 32 -3v-85z" />
    <glyph glyph-name="rhook" unicode="&#x27d;" horiz-adv-x="332" 
d="M312 451q-84 -2 -126 -39t-42 -140v-348q0 -39 15 -54t53 -15q3 0 20 1v-71q-15 -3 -28 -3q-144 0 -144 109v633h77v-95q36 59 69.5 84.5t73.5 25.5q11 0 32 -3v-85z" />
    <glyph glyph-name="rfishhook" unicode="&#x27e;" horiz-adv-x="368" 
d="M144 0h-84v430q0 109 144 109t144 -109v-33h-84q0 37 -13 52.5t-47 16.5q-34 -1 -47 -16.5t-13 -52.5v-397z" />
    <glyph glyph-name="rfishhookrev" unicode="&#x27f;" horiz-adv-x="368" 
d="M224 -200v597q0 37 -13 52.5t-47 16.5q-34 -1 -47 -16.5t-13 -52.5h-84v33q0 109 144 109t144 -109v-630h-84z" />
    <glyph glyph-name="Rsmallcap" unicode="&#x280;" horiz-adv-x="529" 
d="M463 375q0 -72 -41 -110t-108 -44l205 -221h-103l-203 218h-69v-218h-84v524h248q44 0 76 -15t48.5 -39t23.5 -47.5t7 -47.5zM372 364q0 46 -27 65.5t-64 19.5h-137v-155h137q91 0 91 70z" />
    <glyph glyph-name="Rsmallcapinv" unicode="&#x281;" horiz-adv-x="536" 
d="M467 149q0 -24 -7 -47.5t-23.5 -47.5t-48.5 -39t-76 -15h-248v524h84v-218h69l203 218h103l-205 -221q67 -6 108 -44t41 -110zM376 160q0 70 -91 70h-137v-155h137q42 0 66.5 21.5t24.5 57.5v6z" />
    <glyph glyph-name="shook" unicode="&#x282;" horiz-adv-x="500" 
d="M34 -107v263h88q6 -47 32.5 -74.5t95.5 -27.5q55 0 88.5 22.5t33.5 59.5q0 29 -19 46t-62 27l-78 19q-93 22 -129.5 55.5t-36.5 95.5q0 73 55 116.5t146 43.5t140 -42t50 -119h-88q-3 84 -105 84q-51 0 -81 -21.5t-30 -57.5q0 -28 23 -45.5t74 -29.5l80 -19
q78 -19 113 -53.5t35 -92.5q0 -76 -58.5 -121t-157.5 -45q-78 0 -125 25v-76q0 -39 15 -54t53 -15q3 0 20 1v-71q-15 -3 -28 -3q-144 0 -144 109z" />
    <glyph glyph-name="esh" unicode="&#x283;" horiz-adv-x="299" 
d="M192 606v-715q0 -109 -144 -109q-13 0 -28 3v71q17 -1 20 -1q38 0 53.5 15t15.5 54v689q0 56 32.5 87.5t90.5 31.5q23 0 47 -5v-69q-19 1 -29 1q-58 0 -58 -53z" />
    <glyph glyph-name="dotlessjstrokehook" unicode="&#x284;" horiz-adv-x="298" 
d="M278 312v-68h-87v-353q0 -109 -143 -109q-13 0 -28 3v71q17 -1 20 -1q38 0 53 15t15 54v320h-70v68h70v301q0 56 32.5 87.5t90.5 31.5q23 0 47 -5v-69q-19 1 -29 1q-58 0 -58 -53v-294h87z" />
    <glyph glyph-name="eshshortrev" unicode="&#x285;" horiz-adv-x="309" 
d="M117 413q0 53 -58 53q-10 0 -29 -1v69q24 5 47 5q58 0 90.5 -31.5t32.5 -87.5v-496q0 -39 15.5 -54t53.5 -15q3 0 20 1v-71q-15 -3 -28 -3q-144 0 -144 109v522z" />
    <glyph glyph-name="eshcurl" unicode="&#x286;" horiz-adv-x="463" 
d="M92 -103q0 -17 17.5 -29.5t57.5 -12.5q48 0 65.5 16t17.5 48q-60 16 -94 16q-35 0 -49.5 -11.5t-14.5 -26.5zM15 -99q0 42 23.5 68.5t51.5 35t60 8.5q51 0 100 -13v613q0 56 32.5 87.5t90.5 31.5q23 0 47 -5v-69q-19 1 -29 1q-58 0 -58 -53v-631q34 -10 117 -41l-26 -72
q-20 7 -91 32q0 -112 -156 -112q-86 0 -124 36.5t-38 82.5z" />
    <glyph glyph-name="tturn" unicode="&#x287;" horiz-adv-x="280" 
d="M20 145v68h86v359q0 28 -9.5 37.5t-36.5 9.5q-25 0 -40 -4v70q39 7 68 7q49 0 75 -21.5t26 -61.5v-396h71v-68h-71v-144h-83v144h-86z" />
    <glyph glyph-name="trthook" unicode="&#x288;" horiz-adv-x="280" 
d="M260 524v-68h-86v-554q0 -28 9.5 -37.5t36.5 -9.5q25 0 40 4v-70q-39 -7 -68 -7q-49 0 -75 21.5t-26 61.5v591h-71v68h71v144h83v-144h86z" />
    <glyph glyph-name="ubar" unicode="&#x289;" horiz-adv-x="596" 
d="M504 0h-75v73q-37 -52 -77 -74t-98 -22q-76 0 -121.5 39t-45.5 104v120h-73v72h73v212h83v-212h251v212h83v-212h78v-72h-78v-240zM170 240v-87q0 -47 29 -75t79 -28q65 0 104 48.5t39 128.5v13h-251z" />
    <glyph glyph-name="upsilonlatin" unicode="&#x28a;" horiz-adv-x="608" 
d="M466 471q49 -38 80.5 -100.5t31.5 -121.5q0 -19 -7 -49t-26.5 -70t-49 -73t-79.5 -56.5t-112 -23.5q-65 0 -116 23.5t-79.5 56.5t-47.5 73.5t-25 69.5t-6 49q0 59 31.5 121.5t80.5 100.5h-110v73h212v-77q-72 -51 -98.5 -109t-26.5 -104q0 -20 9 -50t27.5 -66.5t57.5 -62
t91 -25.5q44 0 78.5 17.5t54 42t32 55t16.5 52.5t4 37q0 46 -26.5 104t-98.5 109v77h212v-73h-110z" />
    <glyph glyph-name="vhook" unicode="&#x28b;" horiz-adv-x="520" 
d="M216 -23h-55q-49 0 -75 21.5t-26 61.5v464h83v-427q0 -47 73 -47q45 0 80 17.5t54 42t31 55t16 52t4 37.5q0 46 -26.5 104t-98.5 109l102 4q49 -38 80.5 -100.5t31.5 -121.5q0 -19 -7 -49t-26.5 -70t-49 -73t-79.5 -56.5t-112 -23.5z" />
    <glyph glyph-name="vturn" unicode="&#x28c;" horiz-adv-x="496" 
d="M211 524h91l184 -524h-94l-140 425l-148 -425h-94z" />
    <glyph glyph-name="wturn" unicode="&#x28d;" horiz-adv-x="722" 
d="M164 524h95l106 -411l101 411h94l152 -524h-92l-107 408l-100 -408h-102l-103 408l-104 -408h-94z" />
    <glyph glyph-name="yturn" unicode="&#x28e;" horiz-adv-x="478" 
d="M100 0h-90l233 634q41 108 135 108q31 0 56 -13v-75q-27 6 -44 6q-26 0 -41 -11.5t-26 -39.5l-32 -83l177 -526h-89l-134 408z" />
    <glyph glyph-name="Ysmallcap" unicode="&#x28f;" horiz-adv-x="506" 
d="M297 202v-202h-83v202l-204 322h97l149 -246l145 246h95z" />
    <glyph glyph-name="zrthook" unicode="&#x290;" horiz-adv-x="564" 
d="M372 -1h-342v75l313 376h-292v73h391v-74l-311 -377h325v-147q0 -39 15 -54t53 -15q3 0 20 1v-71q-15 -3 -28 -3q-144 0 -144 109v107z" />
    <glyph glyph-name="zcurl" unicode="&#x291;" horiz-adv-x="508" 
d="M478 95q0 -54 -41.5 -74.5t-119.5 -20.5v-96h-72v96h-215v75l313 376h-292v73h391v-74l-311 -377h114v29q0 45 33 76t85 31q43 0 79 -26.5t36 -87.5zM362 136q-24 0 -34.5 -10.5t-10.5 -23.5v-29h10q55 0 66.5 6t11.5 25q0 32 -43 32z" />
    <glyph glyph-name="ezh" unicode="&#x292;" horiz-adv-x="524" 
d="M308 276q89 -11 137.5 -60.5t48.5 -137.5q0 -101 -65.5 -161t-174.5 -60q-218 0 -234 229h88q5 -77 41 -114t108 -37q69 0 108 37.5t39 104.5q0 128 -147 128h-48v75l143 171h-292v73h391v-74z" />
    <glyph glyph-name="ezhcurl" unicode="&#x293;" horiz-adv-x="530" 
d="M278 276q89 -11 137.5 -60.5t48.5 -137.5q0 -24 -4 -47q33 -11 50 -17l-26 -72l-51 17q-29 -47 -84 -72t-128 -25q-41 0 -71 12t-45.5 31t-22.5 38t-7 38q0 42 23.5 68.5t51.5 35t60 8.5q14 0 26.5 -0.5t26.5 -3t21.5 -3.5t23.5 -5.5t20 -6t23.5 -7.5t21.5 -7q1 8 1 17
q0 128 -147 128h-48v75l143 171h-292v73h391v-74zM216 15q-35 0 -49.5 -11.5t-14.5 -26.5q0 -17 17.5 -29.5t57.5 -12.5q45 0 80.5 18t46.5 36q-69 26 -138 26z" />
    <glyph glyph-name="glottalstop" unicode="&#x294;" horiz-adv-x="498" 
d="M253 632q-76 0 -104.5 -41.5t-30.5 -110.5h-88q5 229 222 229q101 0 158.5 -52t57.5 -143q0 -57 -33.5 -108t-89.5 -65q-26 -7 -57 -11v-330h-84v400q95 2 134.5 24t39.5 87q0 56 -33.5 88.5t-91.5 32.5z" />
    <glyph glyph-name="glottalstoprevinv" unicode="&#x295;" horiz-adv-x="498" 
d="M380 480q-2 74 -32.5 113t-102.5 39q-58 0 -91.5 -32.5t-33.5 -88.5q0 -65 39.5 -87t134.5 -24v-400h-84v330q-31 4 -57 11q-56 14 -89.5 65t-33.5 108q0 91 57.5 143t158.5 52q217 0 222 -229h-88z" />
    <glyph glyph-name="glottalstopinv" unicode="&#x296;" horiz-adv-x="498" 
d="M245 77q76 0 104.5 41.5t30.5 110.5h88q-5 -229 -222 -229q-101 0 -158.5 52t-57.5 143q0 57 33.5 108t89.5 65q26 7 57 11v330h84v-400q-95 -2 -134.5 -24t-39.5 -87q0 -56 33.5 -88.5t91.5 -32.5z" />
    <glyph glyph-name="cstretch" unicode="&#x297;" horiz-adv-x="699" 
d="M40 356q0 50 8.5 99t32.5 102t59.5 92.5t96 65.5t136.5 26q238 0 281 -238h-95q-16 78 -63 117t-134 39q-106 0 -167.5 -81t-61.5 -221v-191q0 -136 64 -216.5t173 -80.5q90 0 138 50.5t65 156.5h96q-33 -289 -300 -289q-75 0 -134.5 25.5t-95 64.5t-59 91t-32 100
t-8.5 97v191z" />
    <glyph glyph-name="bilabialclick" unicode="&#x298;" horiz-adv-x="784" 
d="M744 353q0 -162 -96 -269t-256 -107q-158 0 -255 105.5t-97 276.5t97 276.5t254 105.5q160 0 256.5 -106t96.5 -282zM391 659q-116 0 -187 -82.5t-71 -217.5t71.5 -217.5t187.5 -82.5t187.5 82t71.5 214q0 138 -71 221t-189 83zM441 414v-104h-104v104h104z" />
    <glyph glyph-name="Bsmallcap" unicode="&#x299;" horiz-adv-x="488" 
d="M347 376q0 29 -23 51t-82 22h-98v-142h98q59 0 82 20.5t23 48.5zM144 231v-155h140q39 0 61.5 21t22.5 59q0 33 -23 54t-61 21h-140zM279 524q82 0 117 -40t35 -92q0 -87 -69 -115q96 -37 96 -127q0 -65 -42 -107.5t-113 -42.5h-243v524h219z" />
    <glyph glyph-name="epsilonclosed" unicode="&#x29a;" horiz-adv-x="505" 
d="M475 262q0 -156 -55 -220.5t-177 -64.5q-99 0 -156 45t-57 121q0 86 86 124q-65 37 -65 112q0 73 56 116.5t148 43.5q126 0 173 -62t47 -215zM252 462q-51 0 -82.5 -21.5t-31.5 -57.5q0 -33 24.5 -59.5t72.5 -26.5h41v-76h-53q-43 0 -72.5 -27t-29.5 -58
q0 -37 30.5 -59.5t84.5 -22.5q79 0 114.5 47.5t35.5 156.5q0 115 -31.5 159.5t-102.5 44.5z" />
    <glyph glyph-name="Gsmallhook" unicode="&#x29b;" horiz-adv-x="622" 
d="M117 255q0 -97 38.5 -150t136.5 -53q46 0 94 42.5t48 108.5v15h-137v61h225v-288h-44l-17 72q-76 -86 -184 -86q-110 0 -178.5 77t-68.5 201q0 35 7 71t25 75.5t46 69t75 49t106 19.5q99 0 158 -50q30 55 108 55q23 0 47 -5v-69q-19 1 -29 1q-58 0 -58 -53v-51h-86
q-11 51 -44.5 73t-96.5 22q-85 0 -128 -53.5t-43 -153.5z" />
    <glyph glyph-name="Hsmallcap" unicode="&#x29c;" horiz-adv-x="538" 
d="M60 524h84v-215h250v215h84v-524h-84v233h-250v-233h-84v524z" />
    <glyph glyph-name="jcrosstail" unicode="&#x29d;" horiz-adv-x="459" 
d="M332 729v-105h-83v105h83zM14 -99q0 42 23.5 68.5t51.5 35t60 8.5q51 0 100 -13v524h83v-549q34 -10 117 -41l-26 -72q-20 7 -91 32q0 -112 -156 -112q-86 0 -124 36.5t-38 82.5zM91 -103q0 -17 17.5 -29.5t57.5 -12.5q48 0 65.5 16t17.5 48q-60 16 -94 16
q-35 0 -49.5 -11.5t-14.5 -26.5z" />
    <glyph glyph-name="kturn" unicode="&#x29e;" horiz-adv-x="514" 
d="M371 -201v427l-222 -222h-107l182 181l-214 343h103l177 -284l81 80v204h83v-729h-83z" />
    <glyph glyph-name="Lsmallcap" unicode="&#x29f;" horiz-adv-x="390" 
d="M60 0v524h84v-448h226v-76h-310z" />
    <glyph glyph-name="qhook" unicode="&#x2a0;" horiz-adv-x="606" 
d="M270 461q-69 0 -111 -56t-42 -147q0 -92 42 -147.5t111 -55.5q66 0 106 55t40 145q0 94 -39.5 150t-106.5 56zM422 458v73q0 57 30 88t87 31q23 0 47 -5v-69q-19 1 -29 1q-30 0 -44 -12t-14 -41v-742h-83v278q-57 -83 -162 -83q-104 0 -164 74t-60 201q0 130 62 208.5
t166 78.5q103 0 164 -81z" />
    <glyph glyph-name="glottalstopbar" unicode="&#x2a1;" horiz-adv-x="498" 
d="M253 632q-76 0 -104.5 -41.5t-30.5 -110.5h-88q5 229 222 229q101 0 158.5 -52t57.5 -143q0 -57 -33.5 -108t-89.5 -65q-26 -7 -57 -11v-18h109v-72h-109v-240h-84v240h-105v72h105v88q95 2 134.5 24t39.5 87q0 56 -33.5 88.5t-91.5 32.5z" />
    <glyph glyph-name="glottalstopbarrev" unicode="&#x2a2;" horiz-adv-x="498" 
d="M380 480q-2 74 -32.5 113t-102.5 39q-58 0 -91.5 -32.5t-33.5 -88.5q0 -65 39.5 -87t134.5 -24v-88h105v-72h-105v-240h-84v240h-109v72h109v18q-31 4 -57 11q-56 14 -89.5 65t-33.5 108q0 91 57.5 143t158.5 52q217 0 222 -229h-88z" />
    <glyph glyph-name="dzaltone" unicode="&#x2a3;" horiz-adv-x="921" 
d="M269 461q-68 0 -110 -56t-42 -147q0 -92 42 -147.5t111 -55.5q66 0 106 55t40 146q0 94 -40 149.5t-107 55.5zM887 524v-74l-311 -377h325v-73h-476v69q-34 -49 -73.5 -70.5t-93.5 -21.5q-106 0 -167 76.5t-61 209.5q0 125 61.5 200.5t163.5 75.5q108 0 161 -81v271h83
v-205h388zM499 451v-347l289 347h-289z" />
    <glyph glyph-name="dezh" unicode="&#x2a4;" horiz-adv-x="960" 
d="M744 276q89 -11 137.5 -60.5t48.5 -137.5q0 -101 -65.5 -161t-174.5 -60q-149 0 -202 103l73 46q15 -24 25.5 -36.5t38 -23.5t68.5 -11q69 0 108 37.5t39 104.5q0 130 -147 130q-22 0 -48 -2v75l143 171h-289v-451h-74v69q-34 -49 -73.5 -70.5t-93.5 -21.5
q-106 0 -167 76.5t-61 209.5q0 125 61.5 200.5t163.5 75.5q108 0 161 -81v271h83v-205h388v-74zM269 461q-68 0 -110 -56t-42 -147q0 -92 42 -147.5t111 -55.5q66 0 106 55t40 146q0 94 -40 149.5t-107 55.5z" />
    <glyph glyph-name="dzcurl" unicode="&#x2a5;" horiz-adv-x="945" 
d="M269 461q-68 0 -110 -56t-42 -147q0 -92 42 -147.5t111 -55.5q66 0 106 55t40 146q0 94 -40 149.5t-107 55.5zM809 136q-24 0 -34.5 -10.5t-10.5 -23.5v-29h10q38 0 55 3.5t20 8.5t3 19q0 32 -43 32zM925 95q0 -54 -41.5 -74.5t-119.5 -20.5v-96h-72v96h-267v69
q-34 -49 -73.5 -70.5t-93.5 -21.5q-106 0 -167 76.5t-61 209.5q0 125 61.5 200.5t163.5 75.5q108 0 161 -81v271h83v-205h390v-74l-311 -377h114v29q0 45 33 76t85 31q43 0 79 -26.5t36 -87.5zM499 451v-350l291 350h-291z" />
    <glyph glyph-name="ts" unicode="&#x2a6;" horiz-adv-x="705" 
d="M220 54h246q50 0 86 23t36 59q0 29 -19 46t-62 27l-78 19q-93 22 -129.5 55.5t-36.5 95.5q0 73 55 116.5t146 43.5t140 -42t50 -119h-88q-3 84 -105 84q-51 0 -81 -21.5t-30 -57.5q0 -28 23 -45.5t74 -29.5l80 -19q78 -19 113 -53.5t35 -92.5q0 -76 -59 -121t-157 -45
h-267q-48 0 -74.5 21.5t-26.5 61.5v396h-71v68h71v144h83v-144h86v-68h-86v-355q0 -29 8.5 -38t37.5 -9z" />
    <glyph glyph-name="tesh" unicode="&#x2a7;" horiz-adv-x="524" 
d="M417 606v-715q0 -109 -144 -109q-13 0 -28 3v71q17 -1 20 -1q38 0 53.5 15t15.5 54v67q-115 -14 -142 -14q-49 0 -75 21.5t-26 61.5v396h-71v68h71v144h83v-144h160v89q0 56 32.5 87.5t90.5 31.5q23 0 47 -5v-69q-19 1 -29 1q-58 0 -58 -53zM334 61v395h-160v-359
q0 -28 9.5 -37.5t36.5 -9.5q20 0 114 11z" />
    <glyph glyph-name="tccurl" unicode="&#x2a8;" horiz-adv-x="770" 
d="M260 524v-68h-86v-359q0 -28 9.5 -37.5t36.5 -9.5q11 0 108 28q-46 70 -46 175q0 130 63.5 208t169.5 78q91 0 145.5 -49t61.5 -142h-84q-8 55 -40 84.5t-84 29.5q-68 0 -106.5 -55.5t-38.5 -153.5q0 -93 39 -146t109 -53v29q0 45 33 76t85 31q43 0 79 -26.5t36 -87.5
q0 -54 -41.5 -74.5t-119.5 -20.5v-96h-72v96q-80 0 -138 42q-13 -3 -57.5 -15t-83 -21.5t-46.5 -9.5q-49 0 -75 21.5t-26 61.5v396h-71v68h71v144h83v-144h86zM634 117q-24 0 -34.5 -10.5t-10.5 -23.5v-29h10q55 0 66.5 6t11.5 25q0 32 -43 32z" />
    <glyph glyph-name="uni02A9" unicode="&#x2a9;" horiz-adv-x="798" 
d="M737 396l1 -486q0 -53 -37 -81t-107 -28q-13 0 -28 3v71q17 -1 20 -1q38 0 53 15t15 54v420q0 47 -29 75t-79 28q-64 0 -103 -48.5t-39 -128.5v-289h-84v456h-147v-456h-83v456h-70v68h70v89q0 56 32.5 87.5t90.5 31.5q23 0 47 -5v-69q-19 1 -29 1q-58 0 -58 -53v-82h224
v-88q35 55 75.5 79t98.5 24q76 0 121 -39t45 -104z" />
    <glyph glyph-name="uni02AA" unicode="&#x2aa;" horiz-adv-x="652" 
d="M144 50v-50h-84v729h84v-584q43 -38 123 -64.5t150 -26.5q55 0 88.5 22.5t33.5 59.5q0 29 -19 45.5t-62 27.5l-78 19q-93 23 -129.5 56t-36.5 95q0 73 55 116.5t146 43.5t140 -42t50 -119h-88q-3 84 -105 84q-51 0 -81 -21.5t-30 -57.5q0 -28 23 -45.5t74 -29.5l80 -19
q78 -19 113 -53.5t35 -92.5q0 -76 -58.5 -121t-157.5 -45q-140 0 -266 73z" />
    <glyph glyph-name="uni02AB" unicode="&#x2ab;" horiz-adv-x="569" 
d="M535 524v-74l-311 -377h325v-73h-489v729h84v-205h391zM144 451v-351l292 351h-292z" />
    <glyph glyph-name="uni02AC" unicode="&#x2ac;" horiz-adv-x="530" 
d="M404.68 389h-61.7471l-68.8955 267.135l-65.6465 -267.135h-61.0967l-98.7939 340.581h59.7959l69.5469 -265.186l64.9961 265.186h66.2959l66.9463 -265.186l67.5967 265.186h61.0957zM404.68 0h-61.7471l-68.8955 267.135l-65.6465 -267.135h-61.0967l-98.7939 340.581
h59.7959l69.5469 -265.186l64.9961 265.186h66.2959l66.9463 -265.186l67.5967 265.186h61.0957z" />
    <glyph glyph-name="uni02AD" unicode="&#x2ad;" horiz-adv-x="486" 
d="M30 616h426v-137h-70v67h-286v-67h-70v137zM30 256h426v-137h-70v67h-286v-67h-70v137z" />
    <glyph glyph-name="uni02AE" unicode="&#x2ae;" horiz-adv-x="574" 
d="M98 590q0 39 -15 54t-53 15q-3 0 -20 -1v71q15 3 28 3q143 0 143 -109v-472q0 -55 33.5 -79t74.5 -24q64 0 103 48.5t39 128.5v299h83v-722h-83v260q-37 -48 -74.5 -67.5t-93.5 -19.5q-76 0 -120.5 38.5t-44.5 104.5v472z" />
    <glyph glyph-name="uni02AF" unicode="&#x2af;" horiz-adv-x="611" 
d="M514 -92q0 -53 58 -53q10 0 29 1v-69q-24 -5 -47 -5q-58 0 -90.5 31.5t-32.5 87.5v161q-37 -48 -74.5 -67.5t-93.5 -19.5q-76 0 -120.5 38.5t-44.5 104.5v472q0 39 -15 54t-53 15q-3 0 -20 -1v71q15 3 28 3q143 0 143 -109v-472q0 -55 33.5 -79t74.5 -24q64 0 103 48.5
t39 128.5v289h83v-606z" />
    <glyph glyph-name="hsuper" unicode="&#x2b0;" horiz-adv-x="333" 
d="M242.436 625.937q0 35.748 -21.7734 51.3477q-21.7744 15.5986 -48.4229 15.5986q-41.5977 0 -66.9463 -31.5234q-25.3486 -31.5225 -25.3486 -83.5195v-187.84h-53.9463v473.823h53.9463v-180.04q24.0488 31.1982 48.4229 43.873q24.373 12.6738 60.7715 12.6738
q49.3975 0 78.3203 -25.0234q28.9238 -25.0234 28.9238 -67.9209v-257.386h-53.9473v235.937z" />
    <glyph glyph-name="hhooksuper" unicode="&#x2b1;" horiz-adv-x="333" 
d="M242.436 625.937q0 35.748 -21.7734 51.3477q-21.7744 15.5986 -48.4229 15.5986q-41.5977 0 -66.9463 -31.5234q-25.3486 -31.5225 -25.3486 -83.5195v-187.84h-53.9463v398.428q0 36.3975 21.124 56.8721q21.123 20.4736 58.8213 20.4736q14.9492 0 30.5479 -3.25
v-44.8477q-13.6484 1.2998 -18.8486 1.2998q-37.6982 0 -37.6982 -35.0977v-100.095q24.0488 31.1982 48.4229 43.873q24.373 12.6738 60.7715 12.6738q49.3975 0 78.3203 -25.0234q28.9238 -25.0234 28.9238 -67.9209v-257.386h-53.9473v235.937z" />
    <glyph glyph-name="jsuper" unicode="&#x2b2;" horiz-adv-x="167" 
d="M81.1973 746.581h53.9463v-411.427q0 -70.8467 -92.9443 -70.8467q-8.4502 0 -18.1992 1.9502v46.1475q7.7998 -1.2998 14.9492 -1.2998q23.3984 0 32.8232 10.0742t9.4248 35.4229v389.979zM135.144 879.823v-68.2461h-53.9463v68.2461h53.9463z" />
    <glyph glyph-name="rsuper" unicode="&#x2b3;" horiz-adv-x="236" 
d="M195.789 682.134q-54.5977 -1.2998 -81.8955 -25.3486q-27.2988 -24.0488 -27.2988 -90.9951v-176.79h-54.5967v340.581h50.0469v-61.7471q23.3984 38.3477 45.1729 54.9219q21.7734 16.5742 47.7725 16.5742q7.14941 0 20.7988 -1.94922v-55.2471z" />
    <glyph glyph-name="rturnsuper" unicode="&#x2b4;" horiz-adv-x="236" 
d="M36.1924 437.839q54.6025 1.2998 81.9033 25.3506q27.3008 24.0518 27.3008 91.0039v176.807h54.6016v-340.613h-50.0518v61.7529q-23.4004 -38.3516 -45.1768 -54.9268q-21.7754 -16.5762 -47.7764 -16.5762q-7.15039 0 -20.8008 1.9502v55.252z" />
    <glyph glyph-name="rturnrthooksuper" unicode="&#x2b5;" horiz-adv-x="276" 
d="M26 437q55 1 82.5 25t27.5 91v177h54v-390q0 -25 9.5 -35t34.5 -10q10 0 14 1v-46q-7 -2 -19 -2q-89 0 -89 71v132q-44 -71 -93 -71q-11 0 -21 2v55z" />
    <glyph glyph-name="Rturnsuper" unicode="&#x2b6;" horiz-adv-x="359" 
d="M305.099 487.241q0 -15.6006 -4.55078 -30.877q-4.5498 -15.2754 -15.2754 -30.876t-31.5264 -25.3506q-20.8008 -9.75098 -49.4014 -9.75098h-161.206v340.613h54.6016v-141.705h44.8516l131.955 141.705h66.9531l-133.255 -143.655q43.5518 -3.90039 70.2021 -28.6016
q26.6514 -24.7002 26.6514 -71.502zM245.946 494.391q0 45.502 -59.1523 45.502h-89.0537v-100.754h89.0537q27.3008 0 43.2266 13.9756t15.9258 37.377v3.89941z" />
    <glyph glyph-name="wsuper" unicode="&#x2b7;" horiz-adv-x="500" 
d="M380.68 391h-61.7471l-68.8955 267.135l-65.6465 -267.135h-61.0967l-98.7939 340.581h59.7959l69.5469 -265.186l64.9961 265.186h66.2959l66.9463 -265.186l67.5967 265.186h61.0957z" />
    <glyph glyph-name="ysuper" unicode="&#x2b8;" horiz-adv-x="330" 
d="M249.687 730.581h58.4961l-151.441 -412.077q-26.6484 -70.1963 -87.7451 -70.1963q-20.1484 0 -36.3975 8.4502v48.7471q17.5488 -3.89941 28.5986 -3.89941q16.8984 0 26.6484 7.47363q9.74902 7.47461 16.8984 25.6738l20.7988 53.9473l-115.043 341.881h57.8467
l87.0947 -265.186z" />
    <glyph glyph-name="primemod" unicode="&#x2b9;" horiz-adv-x="278" 
d="M141 716l85 -40l-56 -118l-85 -120l-36 17l36 142z" />
    <glyph glyph-name="dblprimemod" unicode="&#x2ba;" horiz-adv-x="454" 
d="M349 716l85 -40l-56 -118l-85 -120l-36 17l36 142zM141 716l85 -40l-56 -118l-85 -120l-36 17l36 142z" />
    <glyph glyph-name="quoteleftmod" unicode="&#x2bb;" horiz-adv-x="250" 
d="M190 503h-105v120q0 131 105 131v-38q-34 -1 -44.5 -19.5t-10.5 -71.5v-18h55v-104z" />
    <glyph glyph-name="apostrophe" unicode="&#x2bc;" horiz-adv-x="250" 
d="M80 708h105v-120q0 -131 -105 -131v38q34 1 44.5 19.5t10.5 71.5v18h-55v104z" />
    <glyph glyph-name="apostropherev" unicode="&#x2bd;" horiz-adv-x="250" 
d="M190 708v-104h-55v-18q0 -53 10.5 -71.5t44.5 -19.5v-38q-105 0 -105 131v120h105z" />
    <glyph glyph-name="ringhalfright" unicode="&#x2be;" horiz-adv-x="250" 
d="M89 579v44q18 0 31 13t13 30q0 18 -13 31t-31 13v44q36 0 62 -26t26 -62q0 -35 -26 -61t-62 -26z" />
    <glyph glyph-name="ringhalfleft" unicode="&#x2bf;" horiz-adv-x="250" 
d="M167 754v-44q-18 0 -31 -13t-13 -30q0 -18 13 -31t31 -13v-44q-36 0 -62 26t-26 62q0 35 26 61t62 26z" />
    <glyph glyph-name="glottalstopmod" unicode="&#x2c0;" horiz-adv-x="333" 
d="M169 714q-50 0 -68.5 -27t-19.5 -72h-57q2 74 38.5 111.5t105.5 37.5q66 0 103.5 -33.5t37.5 -93.5q0 -37 -22 -70t-58 -42q-17 -5 -37 -7v-117h-55v162q62 1 87.5 15.5t25.5 56.5q0 37 -21.5 58t-59.5 21z" />
    <glyph glyph-name="glottalstopreversedmod" unicode="&#x2c1;" horiz-adv-x="333" 
d="M252 615q-1 48 -21 73.5t-67 25.5q-38 0 -59.5 -21t-21.5 -58q0 -42 25.5 -56.5t87.5 -15.5v-162h-55v117q-20 2 -37 7q-36 9 -58 42t-22 70q0 60 37.5 93.5t103.5 33.5q69 0 105.5 -37.5t38.5 -111.5h-57z" />
    <glyph glyph-name="fronted" unicode="&#x2c2;" horiz-adv-x="333" 
d="M29 633v29l275 87v-33l-222 -68l222 -69v-34z" />
    <glyph glyph-name="backed" unicode="&#x2c3;" horiz-adv-x="333" 
d="M303 662v-29l-275 -87v33l222 68l-222 69v34z" />
    <glyph glyph-name="raised" unicode="&#x2c4;" horiz-adv-x="333" 
d="M150 750h33l99 -175h-38l-77 141l-78 -141h-38z" />
    <glyph glyph-name="lowered" unicode="&#x2c5;" horiz-adv-x="333" 
d="M183 575h-33l-99 175h38l77 -141l78 141h38z" />
    <glyph glyph-name="circumflex" unicode="&#x2c6;" horiz-adv-x="333" 
d="M116 741h95l96 -150h-63l-81 96l-79 -96h-64z" />
    <glyph glyph-name="caron" unicode="&#x2c7;" horiz-adv-x="333" 
d="M210 591h-95l-96 150h63l81 -96l79 96h64z" />
    <glyph glyph-name="verticallinemod" unicode="&#x2c8;" horiz-adv-x="250" 
d="M161 588h-72v197h72v-197z" />
    <glyph glyph-name="macronmodifier" unicode="&#x2c9;" horiz-adv-x="333" 
d="M302 701v-70h-274v70h274z" />
    <glyph glyph-name="acutemodifier" unicode="&#x2ca;" horiz-adv-x="333" 
d="M188 741h113l-149 -148h-60z" />
    <glyph glyph-name="gravemodifier" unicode="&#x2cb;" horiz-adv-x="333" 
d="M135 740l96 -148h-60l-149 148h113z" />
    <glyph glyph-name="verticallinelowmod" unicode="&#x2cc;" horiz-adv-x="250" 
d="M161 -259h-72v197h72v-197z" />
    <glyph glyph-name="macronlowmod" unicode="&#x2cd;" horiz-adv-x="333" 
d="M303 -70v-70h-274v70h274z" />
    <glyph glyph-name="gravesub" unicode="&#x2ce;" horiz-adv-x="333" 
d="M196 -53l96 -148h-60l-149 148h113z" />
    <glyph glyph-name="acutesub" unicode="&#x2cf;" horiz-adv-x="333" 
d="M131 -52h113l-149 -148h-60z" />
    <glyph glyph-name="colontriangularmod" unicode="&#x2d0;" horiz-adv-x="333" 
d="M229 0h-126l63 114zM103 546h126l-63 -114z" />
    <glyph glyph-name="colontriangularhalfmod" unicode="&#x2d1;" horiz-adv-x="333" 
d="M103 546h126l-63 -114z" />
    <glyph glyph-name="ringhalfrightcentered" unicode="&#x2d2;" horiz-adv-x="250" 
d="M92 -1v44q18 0 31 13t13 30q0 18 -13 31t-31 13v44q36 0 62 -26t26 -62q0 -35 -26 -61t-62 -26z" />
    <glyph glyph-name="ringhalfleftcentered" unicode="&#x2d3;" horiz-adv-x="250" 
d="M171 177v-44q-18 0 -31 -13t-13 -30q0 -18 13 -31t31 -13v-44q-36 0 -62 26t-26 62q0 35 26 61t62 26z" />
    <glyph glyph-name="tackupmid" unicode="&#x2d4;" horiz-adv-x="333" 
d="M132 219v183h70v-183h120v-70h-311v70h121z" />
    <glyph glyph-name="tackdownmid" unicode="&#x2d5;" horiz-adv-x="333" 
d="M201 332v-183h-70v183h-120v70h311v-70h-121z" />
    <glyph glyph-name="plusmod" unicode="&#x2d6;" horiz-adv-x="333" 
d="M322 231h-121v-121h-70v121h-120v70h121v121h70v-121h120v-70z" />
    <glyph glyph-name="minusmod" unicode="&#x2d7;" horiz-adv-x="333" 
d="M322 301v-70h-311v70h311z" />
    <glyph glyph-name="breve" unicode="&#x2d8;" horiz-adv-x="333" 
d="M15 732h59q8 -66 92 -66q40 0 64 17t27 49h59q-11 -135 -152 -135q-36 0 -66 9.5t-56 41.5t-27 84z" />
    <glyph glyph-name="dotaccent" unicode="&#x2d9;" horiz-adv-x="333" 
d="M219 716v-104h-104v104h104z" />
    <glyph glyph-name="ring" unicode="&#x2da;" horiz-adv-x="333" 
d="M167 772q44 0 75 -31t31 -75q0 -43 -31.5 -73.5t-74.5 -30.5t-74.5 31t-31.5 74q0 42 31.5 73.5t74.5 31.5zM167 710q-18 0 -31 -13t-13 -30q0 -18 13 -31t31 -13t31 13t13 30q0 19 -12.5 31.5t-31.5 12.5z" />
    <glyph glyph-name="ogonek" unicode="&#x2db;" horiz-adv-x="333" 
d="M189 -205q-56 0 -94 26t-38 68q0 36 25.5 65t71.5 46h70q-55 -31 -74.5 -53t-19.5 -53q0 -54 72 -54q37 0 63 10v-45q-48 -10 -76 -10z" />
    <glyph glyph-name="tilde" unicode="&#x2dc;" horiz-adv-x="333" 
d="M91 717q25 0 69 -18.5t64 -18.5q25 0 37 37h58q-15 -104 -89 -104q-20 0 -70 19t-64 19q-23 0 -33 -37h-58q8 49 30.5 76t55.5 27z" />
    <glyph glyph-name="hungarumlaut" unicode="&#x2dd;" horiz-adv-x="333" 
d="M51 740h113l-104 -150h-60zM220 740h113l-129 -150h-60z" />
    <glyph glyph-name="uni02DE" unicode="&#x2de;" horiz-adv-x="333" 
d="M0 396v99l74 75h69q7 -19 30.5 -96.5t41 -116.5t33.5 -39q14 0 25.5 7.5t17 15t16 26.5t14.5 26v-114q-45 -45 -87 -45q-45 0 -84 81.5t-56 176.5z" />
    <glyph glyph-name="uni02DF" unicode="&#x2df;" horiz-adv-x="333" 
d="M276.5 793.5l36.75 -25l-109.5 -73l110.25 -73.5l-37.5 -25l-110.25 73.5l-109.5 -73l-37.5 24.5l110.25 73.5l-109.5 73l36.75 24.5l109.5 -72.5z" />
    <glyph glyph-name="gammasuper" unicode="&#x2e0;" horiz-adv-x="333" 
d="M160.642 284.006q11.0488 0 19.8232 12.0244t8.77441 26.9736q0 7.79883 -10.0742 35.748q-10.0742 27.9482 -17.2236 43.5469q-8.4502 -15.5986 -19.1738 -43.8721q-10.7246 -28.2734 -10.7246 -36.0732q0 -14.9492 8.77441 -26.6484t19.8242 -11.6992zM79.3955 319.754
q0 10.3994 5.84961 29.248q5.84961 18.8496 12.3496 33.1484t18.5244 40.9473q12.0234 26.6484 15.9238 35.748l-121.543 269.735h59.7959l91.6455 -204.089l91.6445 204.089h57.8467l-118.943 -269.735q4.5498 -9.09961 16.5742 -34.4473
q12.0244 -25.3486 18.5244 -39.9736q6.49902 -14.624 12.6738 -32.8232q6.1748 -18.1982 6.1748 -28.5977q0 -40.2979 -29.5732 -62.3965t-56.8721 -22.0986q-29.8984 0 -55.2471 20.7988t-25.3486 60.4463z" />
    <glyph glyph-name="lsuper" unicode="&#x2e1;" horiz-adv-x="186" 
d="M107.595 863.823v-473.823h-54.5967v473.823h54.5967z" />
    <glyph glyph-name="ssuper" unicode="&#x2e2;" horiz-adv-x="333" 
d="M85.2959 500.395q3.89941 -30.5488 21.123 -48.4229q17.2246 -17.874 62.0723 -17.874q35.748 0 57.5215 14.625q21.7734 14.624 21.7734 38.6719q0 18.8496 -12.3486 29.8984q-12.3496 11.0498 -40.2979 17.5498l-50.6973 12.3486q-60.4463 14.2998 -84.1709 36.0732
q-23.7236 21.7734 -23.7236 62.0713q0 47.4473 35.748 75.7207t94.8955 28.2734q59.1465 0 90.9941 -27.2979q31.8486 -27.2988 32.498 -77.3457h-57.1963q-1.9502 54.5967 -68.2461 54.5967q-33.1484 0 -52.6475 -13.9746q-19.499 -13.9736 -19.499 -37.373
q0 -18.1982 14.9492 -29.5732q14.9492 -11.374 48.0977 -19.1738l51.9971 -12.3486q50.6973 -12.3496 73.4453 -34.7734q22.749 -22.4238 22.749 -60.1221q0 -49.3965 -38.0225 -78.6455q-38.0234 -29.248 -102.369 -29.248q-131.943 0 -135.843 116.344h57.1973z" />
    <glyph glyph-name="xsuper" unicode="&#x2e3;" horiz-adv-x="333" 
d="M192.239 567.14l117.644 -176.14h-63.0459l-85.1455 130.643l-86.4453 -130.643h-61.7461l120.243 173.54l-113.744 167.041h61.7471l81.8955 -123.493l81.8945 123.493h61.0967z" />
    <glyph glyph-name="glottalrevsuper" unicode="&#x2e4;" horiz-adv-x="334" 
d="M240.986 701.982q-1.2998 48.0977 -21.124 73.4463t-66.6211 25.3486q-37.6982 0 -59.4717 -21.124t-21.7734 -57.5225q0 -42.2471 25.6729 -56.5469q25.6738 -14.2988 87.4199 -15.5986v-259.985h-54.5967v214.488q-20.1484 2.59961 -37.0479 7.14941
q-36.3975 9.09961 -58.1719 42.2471q-21.7734 33.1484 -21.7734 70.1963q0 59.1465 37.373 92.9453q37.373 33.7979 103.019 33.7979q141.042 0 144.292 -148.842h-57.1963z" />
    <glyph glyph-name="toneextrahigh" unicode="&#x2e5;" horiz-adv-x="526" 
d="M454 800v-800h-72v728h-342v72h414z" />
    <glyph glyph-name="tonehigh" unicode="&#x2e6;" horiz-adv-x="526" 
d="M454 800v-800h-72v563h-342v72h342v165h72z" />
    <glyph glyph-name="tonemid" unicode="&#x2e7;" horiz-adv-x="526" 
d="M454 800v-800h-72v366h-342v72h342v362h72z" />
    <glyph glyph-name="tonelow" unicode="&#x2e8;" horiz-adv-x="526" 
d="M454 800v-800h-72v165h-342v72h342v563h72z" />
    <glyph glyph-name="toneextralow" unicode="&#x2e9;" horiz-adv-x="526" 
d="M454 0h-414v72h342v728h72v-800z" />
    <glyph glyph-name="uni02EA" unicode="&#x2ea;" horiz-adv-x="519" 
d="M72 -1v607h72v-535h335v-72h-407z" />
    <glyph glyph-name="uni02EB" unicode="&#x2eb;" horiz-adv-x="519" 
d="M144 273v-273h-72v614h72v-268h335v-73h-335z" />
    <glyph glyph-name="uni02EC" unicode="&#x2ec;" horiz-adv-x="333" 
d="M214 -200h-95l-96 150h63l81 -96l79 96h64z" />
    <glyph glyph-name="uni02ED" unicode="&#x2ed;" horiz-adv-x="333" 
d="M302 800v-70h-274v70h274zM302 663v-70h-274v70h274z" />
    <glyph glyph-name="uni02EE" unicode="&#x2ee;" horiz-adv-x="400" 
d="M240 729h93v-101q0 -123 -93 -131v38q47 7 47 90h-47v104zM80 729h93v-101q0 -123 -93 -131v38q47 7 47 90h-47v104z" />
    <glyph glyph-name="uni02EF" unicode="&#x2ef;" horiz-adv-x="333" 
d="M183 -200h-33l-99 175h38l77 -141l78 141h38z" />
    <glyph glyph-name="uni02F0" unicode="&#x2f0;" horiz-adv-x="333" 
d="M145 -25h33l99 -175h-38l-77 141l-78 -141h-38z" />
    <glyph glyph-name="uni02F1" unicode="&#x2f1;" horiz-adv-x="333" 
d="M27 -133v29l275 87v-33l-222 -68l222 -69v-34z" />
    <glyph glyph-name="uni02F2" unicode="&#x2f2;" horiz-adv-x="333" 
d="M302 -103v-29l-275 -87v33l222 68l-222 69v34z" />
    <glyph glyph-name="uni02F3" unicode="&#x2f3;" horiz-adv-x="333" 
d="M164 -47q44 0 75 -31t31 -75q0 -43 -31.5 -73.5t-74.5 -30.5t-74.5 31t-31.5 74q0 42 31.5 73.5t74.5 31.5zM164 -109q-18 0 -31 -13t-13 -30q0 -18 13 -31t31 -13t31 13t13 30q0 19 -12.5 31.5t-31.5 12.5z" />
    <glyph glyph-name="uni02F4" unicode="&#x2f4;" horiz-adv-x="250" 
d="M135 514l96 -148h-60l-149 148h113z" />
    <glyph glyph-name="uni02F5" unicode="&#x2f5;" horiz-adv-x="333" 
d="M282 516l51 -150h-60l-104 150h113zM113 516l76 -150h-60l-129 150h113z" />
    <glyph glyph-name="uni02F6" unicode="&#x2f6;" horiz-adv-x="333" 
d="M51 518h113l-104 -150h-60zM220 518h113l-129 -150h-60z" />
    <glyph glyph-name="uni02F7" unicode="&#x2f7;" horiz-adv-x="333" 
d="M95 -53q25 0 69 -18.5t64 -18.5q25 0 37 37h58q-15 -104 -89 -104q-20 0 -70 19t-64 19q-23 0 -33 -37h-58q8 49 30.5 76t55.5 27z" />
    <glyph glyph-name="uni02F8" unicode="&#x2f8;" horiz-adv-x="250" 
d="M184 169v-104h-104v104h104zM184 589v-104h-104v104h104z" />
    <glyph glyph-name="uni02F9" unicode="&#x2f9;" horiz-adv-x="200" 
d="M24 749h152v-72h-80v-165h-72v237z" />
    <glyph glyph-name="uni02FA" unicode="&#x2fa;" horiz-adv-x="200" 
d="M178 749v-237h-72v165h-80v72h152z" />
    <glyph glyph-name="uni02FB" unicode="&#x2fb;" horiz-adv-x="200" 
d="M24 -73v237h72v-165h80v-72h-152z" />
    <glyph glyph-name="uni02FC" unicode="&#x2fc;" horiz-adv-x="200" 
d="M176 -72h-152v72h80v165h72v-237z" />
    <glyph glyph-name="uni02FD" unicode="&#x2fd;" horiz-adv-x="333" 
d="M250 -128v100h72v-172h-311v172h72v-100h167z" />
    <glyph glyph-name="uni02FE" unicode="&#x2fe;" horiz-adv-x="333" 
d="M322 -128v-72h-311v172h72v-100h239z" />
    <glyph glyph-name="uni02FF" unicode="&#x2ff;" horiz-adv-x="333" 
d="M333 -104v-31h-270q25 -29 50 -61l4 -4l-21 -20l-4 5q-37 43 -88 91l-4 4l4 5q51 48 88 91l4 5l21 -20l-4 -4q-25 -33 -50 -61h270z" />
    <glyph glyph-name="gravecomb" unicode="&#x300;" 
d="M-198 740l96 -148h-60l-149 148h113z" />
    <glyph glyph-name="acutecomb" unicode="&#x301;" 
d="M-145 740h113l-149 -148h-60z" />
    <glyph glyph-name="circumflexcomb" unicode="&#x302;" 
d="M-217 741h95l96 -150h-63l-81 96l-79 -96h-64z" />
    <glyph glyph-name="tildecomb" unicode="&#x303;" 
d="M-242 717q25 0 69 -18.5t64 -18.5q25 0 37 37h58q-15 -104 -89 -104q-20 0 -70 19t-64 19q-23 0 -33 -37h-58q8 49 30.5 76t55.5 27z" />
    <glyph glyph-name="macroncomb" unicode="&#x304;" 
d="M-31 701v-70h-274v70h274z" />
    <glyph glyph-name="overlinecmb" unicode="&#x305;" 
d="M115 701v-72h-566v72h566z" />
    <glyph glyph-name="brevecomb" unicode="&#x306;" 
d="M-318 732h59q8 -66 92 -66q40 0 64 17t27 49h59q-11 -135 -152 -135q-36 0 -66 9.5t-56 41.5t-27 84z" />
    <glyph glyph-name="dotaccentcmb" unicode="&#x307;" 
d="M-114 716v-104h-104v104h104z" />
    <glyph glyph-name="dieresiscmb" unicode="&#x308;" 
d="M-25 716v-104h-104v104h104zM-204 716v-104h-104v104h104z" />
    <glyph glyph-name="hookabovecomb" unicode="&#x309;" 
d="M-219 582v-18h-44v64h44q18 0 30 12t12 29q0 23 -13.5 33.5t-28.5 10.5q-20 0 -33 -16l-32 32q28 28 65 28q40 0 64 -25t24 -63q0 -36 -26 -61.5t-62 -25.5z" />
    <glyph glyph-name="ringcmb" unicode="&#x30a;" 
d="M-166 772q44 0 75 -31t31 -75q0 -43 -31.5 -73.5t-74.5 -30.5t-74.5 31t-31.5 74q0 42 31.5 73.5t74.5 31.5zM-166 710q-18 0 -31 -13t-13 -30q0 -18 13 -31t31 -13t31 13t13 30q0 19 -12.5 31.5t-31.5 12.5z" />
    <glyph glyph-name="hungarumlautcmb" unicode="&#x30b;" 
d="M-261 741h113l-104 -150h-60zM-92 741h113l-129 -150h-60z" />
    <glyph glyph-name="caroncomb" unicode="&#x30c;" 
d="M-123 591h-95l-96 150h63l81 -96l79 96h64z" />
    <glyph glyph-name="verticallineabovecmb" unicode="&#x30d;" 
d="M-135 588h-72v197h72v-197z" />
    <glyph glyph-name="dblverticallineabovecmb" unicode="&#x30e;" 
d="M-59 588h-72v197h72v-197zM-204 588h-72v197h72v-197z" />
    <glyph glyph-name="gravedblnosp" unicode="&#x30f;" 
d="M-132 740l51 -150h-60l-104 150h113zM-301 740l76 -150h-60l-129 150h113z" />
    <glyph glyph-name="candrabinducmb" unicode="&#x310;" 
d="M-114 815v-104h-104v104h104zM-318 732h59q8 -66 92 -66q40 0 64 17t27 49h59q-11 -135 -152 -135q-36 0 -66 9.5t-56 41.5t-27 84z" />
    <glyph glyph-name="breveinvertedcmb" unicode="&#x311;" 
d="M-17 597h-59q-8 66 -92 66q-40 0 -64 -17t-27 -49h-59q11 135 152 135q36 0 66 -9.5t56 -41.5t27 -84z" />
    <glyph glyph-name="commaturnedabovecmb" unicode="&#x312;" 
d="M-127 583h-88v73q0 43 23.5 66.5t64.5 23.5v-42q-25 0 -35 -10.5t-10 -36.5h45v-74z" />
    <glyph glyph-name="commaabovecmb" unicode="&#x313;" 
d="M-206 740h88v-73q0 -43 -23.5 -66.5t-64.5 -23.5v42q25 0 35 10.5t10 36.5h-45v74z" />
    <glyph glyph-name="commareversedabovecmb" unicode="&#x314;" 
d="M-124 740v-74h-45q0 -26 10 -36.5t35 -10.5v-42q-41 0 -64.5 23.5t-23.5 66.5v73h88z" />
    <glyph glyph-name="commaaboverightcmb" unicode="&#x315;" 
d="M0 741h88v-73q0 -43 -23.5 -66.5t-64.5 -23.5v42q25 0 35 10.5t10 36.5h-45v74z" />
    <glyph glyph-name="gravebelowcmb" unicode="&#x316;" 
d="M-198 -52l96 -148h-60l-149 148h113z" />
    <glyph glyph-name="acutebelowcmb" unicode="&#x317;" 
d="M-162 -52h113l-149 -148h-60z" />
    <glyph glyph-name="lefttackbelowcmb" unicode="&#x318;" 
d="M-147 -51h72v-238h-72v83h-133v72h133v83z" />
    <glyph glyph-name="uni0319" unicode="&#x319;" 
d="M-183 -288h-72v238h72v-83h133v-72h-133v-83z" />
    <glyph glyph-name="uni031A" unicode="&#x31a;" 
d="M-203 701h274v-274h-70v204h-204v70z" />
    <glyph glyph-name="horncmb" unicode="&#x31b;" 
d="M30 651q37 -43 37 -99q0 -112 -159 -112h-45v84h73q24 1 35.5 6.5t11.5 23.5q0 23 -17 43z" />
    <glyph glyph-name="ringlefthalfsubnosp" unicode="&#x31c;" 
d="M-136 -43v-44q-18 0 -31 -13t-13 -30q0 -18 13 -31t31 -13v-44q-36 0 -62 26t-26 62q0 35 26 61t62 26z" />
    <glyph glyph-name="uptackbelowcmb" unicode="&#x31d;" 
d="M-284 -200v72h83v83h72v-83h83v-72h-238z" />
    <glyph glyph-name="uni031E" unicode="&#x31e;" 
d="M-46 -45v-72h-83v-83h-72v83h-83v72h238z" />
    <glyph glyph-name="uni031F" unicode="&#x31f;" 
d="M-46 -133v-72h-83v-83h-72v83h-83v72h83v83h72v-83h83z" />
    <glyph glyph-name="minusbelowcmb" unicode="&#x320;" 
d="M-113 -86v-70h-311v70h311z" />
    <glyph glyph-name="hookpalatalizedbelowcmb" unicode="&#x321;" 
d="M-83 45h83v-154q0 -109 -143 -109q-13 0 -28 3v71q17 -1 20 -1q38 0 53 15t15 54v121z" />
    <glyph glyph-name="hookretroflexbelowcmb" unicode="&#x322;" 
d="M0 45v-121q0 -39 15 -54t53 -15q3 0 20 1v-71q-15 -3 -28 -3q-143 0 -143 109v154h83z" />
    <glyph glyph-name="dotbelowcomb" unicode="&#x323;" 
d="M-166 -61v-104h-104v104h104z" />
    <glyph glyph-name="dieresisbelowcmb" unicode="&#x324;" 
d="M-82 -58v-104h-104v104h104zM-261 -58v-104h-104v104h104z" />
    <glyph glyph-name="ringbelowcmb" unicode="&#x325;" 
d="M-231 -44q44 0 75 -31t31 -75q0 -43 -31.5 -73.5t-74.5 -30.5t-74.5 31t-31.5 74q0 42 31.5 73.5t74.5 31.5zM-231 -106q-18 0 -31 -13t-13 -30q0 -18 13 -31t31 -13t31 13t13 30q0 19 -12.5 31.5t-31.5 12.5z" />
    <glyph glyph-name="commasubnosp" unicode="&#x326;" 
d="M-269 -76h100v-103q0 -56 -26 -88.5t-72 -32.5h-2v38q55 0 55 78v8h-55v100z" />
    <glyph glyph-name="cedillacmb" unicode="&#x327;" 
d="M-347 -140q9 -4 25.5 -12t25 -11.5t21.5 -6.5t26 -3q23 0 38.5 13t15.5 32q0 37 -46 37q-15 0 -31 -8l-12 7l42 92h38l-23 -56q13 2 28 2q38 0 58.5 -17.5t20.5 -49.5q0 -43 -33 -68t-90 -25q-47 0 -125 34z" />
    <glyph glyph-name="ogonekcmb" unicode="&#x328;" 
d="M-144 -205q-56 0 -94 26t-38 68q0 36 25.5 65t71.5 46h70q-55 -31 -74.5 -53t-19.5 -53q0 -54 72 -54q37 0 63 10v-45q-48 -10 -76 -10z" />
    <glyph glyph-name="linevertsubnosp" unicode="&#x329;" 
d="M-187 -243h-72v197h72v-197z" />
    <glyph glyph-name="bridgebelowcmb" unicode="&#x32a;" 
d="M-305 -60h274v-137h-70v67h-134v-67h-70v137z" />
    <glyph glyph-name="dblarchinvertedbelowcmb" unicode="&#x32b;" 
d="M-14 -50v-34q0 -37 -25.5 -62.5t-62.5 -25.5q-38 0 -65 30q-27 -30 -66 -30q-36 0 -61.5 26t-25.5 62v34h44v-34q0 -18 13 -31t30 -13q19 0 31.5 12.5t12.5 31.5v34h44v-34q0 -18 13 -31t30 -13q19 0 31.5 12.5t12.5 31.5v34h44z" />
    <glyph glyph-name="caronbelowcmb" unicode="&#x32c;" 
d="M-123 -200h-95l-96 150h63l81 -96l79 96h64z" />
    <glyph glyph-name="circumflexbelowcmb" unicode="&#x32d;" 
d="M-218 -50h95l96 -150h-63l-81 96l-79 -96h-64z" />
    <glyph glyph-name="brevebelowcmb" unicode="&#x32e;" 
d="M-318 -65h59q8 -66 92 -66q40 0 64 17t27 49h59q-11 -135 -152 -135q-36 0 -66 9.5t-56 41.5t-27 84z" />
    <glyph glyph-name="breveinvertedbelowcmb" unicode="&#x32f;" 
d="M-17 -200h-59q-8 66 -92 66q-40 0 -64 -17t-27 -49h-59q11 135 152 135q36 0 66 -9.5t56 -41.5t27 -84z" />
    <glyph glyph-name="tildebelowcmb" unicode="&#x330;" 
d="M-301 -83q25 0 69 -18.5t64 -18.5q25 0 37 37h58q-15 -104 -89 -104q-20 0 -70 19t-64 19q-23 0 -33 -37h-58q8 49 30.5 76t55.5 27z" />
    <glyph glyph-name="macronbelowcmb" unicode="&#x331;" 
d="M-94 -83v-70h-274v70h274z" />
    <glyph glyph-name="lowlinecmb" unicode="&#x332;" 
d="M-1 -126v-50h-600v50h600z" />
    <glyph glyph-name="dbllowlinecmb" unicode="&#x333;" 
d="M-1 -228v-50h-600v50h600zM-1 -126v-50h-600v50h600z" />
    <glyph glyph-name="tildeoverlaycmb" unicode="&#x334;" 
d="M-364 312q25 0 69 -18.5t64 -18.5q25 0 37 37h58q-15 -104 -89 -104q-20 0 -70 19t-64 19q-23 0 -33 -37h-58q8 49 30.5 76t55.5 27z" />
    <glyph glyph-name="strokeshortoverlaycmb" unicode="&#x335;" 
d="M-137 302v-70h-274v70h274z" />
    <glyph glyph-name="strokelongoverlaycmb" unicode="&#x336;" 
d="M-111 272v-50h-600v50h600z" />
    <glyph glyph-name="solidusshortoverlaycmb" unicode="&#x337;" 
d="M-89 616h76l-612 -613h-76z" />
    <glyph glyph-name="soliduslongoverlaycmb" unicode="&#x338;" 
d="M-89 749h76l-612 -810h-76z" />
    <glyph glyph-name="ringrighthalfsubnosp" unicode="&#x339;" 
d="M-264 -253v44q18 0 31 13t13 30q0 18 -13 31t-31 13v44q36 0 62 -26t26 -62q0 -35 -26 -61t-62 -26z" />
    <glyph glyph-name="bridgeinvertedbelowcmb" unicode="&#x33a;" 
d="M-88 -176h-274v137h70v-67h134v67h70v-137z" />
    <glyph glyph-name="squarebelowcmb" unicode="&#x33b;" 
d="M-364 -39h261v-261h-261v261zM-171 -232v125h-125v-125h125z" />
    <glyph glyph-name="seagullbelowcmb" unicode="&#x33c;" 
d="M-382 -147q0 37 25.5 62.5t62.5 25.5q38 0 65 -30q27 30 66 30q36 0 61.5 -26t25.5 -62h-44q0 18 -13 31t-30 13q-19 0 -31.5 -12.5t-12.5 -31.5v-27h-44v27q0 18 -13 31t-30 13q-19 0 -31.5 -12.5t-12.5 -31.5h-44z" />
    <glyph glyph-name="xabovecmb" unicode="&#x33d;" 
d="M-78 755l32 -24l-95 -71l95 -72l-32 -24l-96 71l-95 -71l-32 24l95 72l-95 71l32 24l95 -71z" />
    <glyph glyph-name="tildeverticalcmb" unicode="&#x33e;" 
d="M-119 646q0 -24 -27 -41t-76 -23v44q37 6 37 24q0 13 -19 64.5t-19 68.5q0 55 104 67v-44q-37 -9 -37 -28q0 -13 18.5 -63.5t18.5 -68.5z" />
    <glyph glyph-name="dbloverlinecmb" unicode="&#x33f;" 
d="M0 639v-50h-600v50h600zM0 741v-50h-600v50h600z" />
    <glyph glyph-name="gravetonecmb" unicode="&#x340;" 
d="M-198 741l96 -148h-60l-149 148h113z" />
    <glyph glyph-name="acutetonecmb" unicode="&#x341;" 
d="M-145 740h113l-149 -148h-60z" />
    <glyph glyph-name="perispomenigreekcmb" unicode="&#x342;" 
d="M-258 708q25 0 69 -18.5t64 -18.5q25 0 37 37h58q-15 -104 -89 -104q-20 0 -70 19t-64 19q-23 0 -33 -37h-58q8 49 30.5 76t55.5 27z" />
    <glyph glyph-name="koroniscmb" unicode="&#x343;" 
d="M-206 740h88v-73q0 -43 -23.5 -66.5t-64.5 -23.5v42q25 0 35 10.5t10 36.5h-45v74z" />
    <glyph glyph-name="diaeresistonosnosp" unicode="&#x344;" 
d="M-183 758h90l-97 -158h-58zM-271 685v-83h-83v83h83zM-29 685v-83h-83v83h83z" />
    </font>
</defs>
</svg>
