<svg xmlns="http://www.w3.org/2000/svg">
<defs>
<font id="Edwin-Italic" horiz-adv-x="1000" >
  <font-face 
    font-family="Edwin"
    font-weight="400"
    font-style="italic"
    font-stretch="normal"
    units-per-em="1000"
    panose-1="0 0 5 0 0 0 0 0 0 0"
    ascent="737"
    descent="-263"
    x-height="470"
    cap-height="722"
    bbox="-306.904 -329 1200 1090"
    underline-thickness="61"
    underline-position="-103"
    slope="-15"
    stemh="48"
    stemv="88"
    unicode-range="U+0020-1D12B"
  />
<missing-glyph horiz-adv-x="500" 
d="M50 0v491h400v-491h-400zM100 50h300v391h-300v-391z" />
    <glyph glyph-name="afii61352" unicode="Nr&#x2e;" horiz-adv-x="1030" 
d="M315 722l253 -552l90 335c22 89 23 93 23 115c0 37 -29 55 -90 55l6 47h262l-5 -47c-84 -3 -104 -26 -142 -170l-139 -519h-39l-278 601l-99 -370c-23 -89 -24 -93 -24 -115c0 -37 29 -55 90 -55h11l-6 -47h-276l5 47c87 2 106 24 145 170l114 426c-8 27 -16 32 -65 32
h-52l5 47h211zM916 514c63 0 114 -55 114 -122c0 -48 -20 -99 -55 -138c-31 -35 -70 -53 -117 -53c-71 0 -115 47 -115 121c0 103 80 192 173 192zM909 473c-20 0 -38 -10 -53 -31c-23 -31 -41 -93 -41 -140c0 -39 16 -60 47 -60c29 0 49 17 67 56c15 31 26 77 26 105
c0 44 -17 70 -46 70zM700 120h263l-13 -64h-263z" />
    <glyph glyph-name="ff" unicode="ff" horiz-adv-x="605" 
d="M218 455h129l-14 -47h-126l-62 -247c-23 -92 -81 -283 -104 -345l-110 -18c63 138 113 288 148 436l41 174h-89l13 47h87c25 92 41 134 70 181c39 65 94 100 157 100c65 0 111 -38 111 -90c0 -30 -23 -53 -54 -53c-29 0 -52 20 -52 45c0 10 2 16 9 28c6 10 7 14 7 18
c0 10 -10 17 -24 17c-37 0 -64 -26 -88 -86c-20 -48 -26 -67 -49 -160zM532 455h128l-13 -47h-127l-61 -247c-24 -93 -79 -278 -104 -345l-110 -18c63 140 114 290 147 436l42 174h-90l14 47h87c25 93 41 135 70 181c39 65 94 100 157 100c64 0 111 -38 111 -90
c0 -30 -23 -53 -54 -53c-29 0 -52 20 -52 45c0 9 2 17 9 28c6 11 7 13 7 18c0 10 -10 17 -24 17c-37 0 -63 -26 -88 -86c-20 -48 -25 -64 -49 -160z" />
    <glyph glyph-name="fi" unicode="fi" horiz-adv-x="611" 
d="M227 455h90c69 0 105 3 196 14l-106 -356c-9 -33 -12 -45 -12 -56c0 -12 7 -21 17 -21c26 0 77 51 121 122l31 -18c-59 -100 -124 -154 -187 -154c-38 0 -68 27 -68 62c0 23 2 31 23 101l54 184c12 43 12 43 12 52c0 17 -14 23 -56 23h-126l-62 -247
c-21 -84 -82 -285 -104 -345l-110 -18c53 112 108 273 148 436l41 174h-89l13 47h87c37 120 43 134 77 181c49 67 114 100 198 100c73 0 124 -35 124 -86c0 -33 -24 -57 -56 -57c-30 0 -53 19 -53 45c0 9 2 16 9 28c6 11 7 13 7 18c0 12 -12 18 -35 18
c-57 0 -97 -28 -128 -87c-21 -41 -32 -73 -56 -160z" />
    <glyph glyph-name="fl" unicode="fl" horiz-adv-x="611" 
d="M485 729l109 8l-185 -624c-13 -44 -13 -45 -13 -57s7 -20 18 -20c28 0 78 50 123 122l31 -18c-60 -102 -124 -155 -187 -155c-40 0 -65 27 -65 70c0 31 4 49 27 128l124 418c-15 8 -23 22 -23 37c0 9 3 17 9 28s7 14 7 19c0 11 -13 16 -43 16c-62 0 -103 -26 -134 -86
c-20 -40 -32 -72 -56 -160h143l-13 -47h-141l-62 -247c-21 -84 -82 -285 -104 -345l-110 -18c55 116 108 275 148 436l41 174h-89l13 47h87c37 121 42 134 78 181c52 70 112 100 202 100c26 0 43 -2 65 -7z" />
    <glyph glyph-name="ffi" unicode="ffi" horiz-adv-x="878" 
d="M494 455h90c68 0 104 3 196 14l-106 -356c-9 -29 -12 -45 -12 -56c0 -12 7 -21 17 -21c27 0 73 47 121 122l31 -18c-62 -103 -124 -154 -187 -154c-39 0 -68 27 -68 62c0 22 3 38 22 101l55 184c12 43 12 43 12 52c0 17 -14 23 -56 23h-127l-61 -247
c-21 -81 -83 -287 -105 -345l-109 -18c53 111 108 275 147 436l41 174h-89l13 47h88c36 120 42 134 77 181c49 67 114 100 198 100c73 0 124 -35 124 -86c0 -33 -24 -57 -56 -57c-30 0 -53 20 -53 45c0 10 2 15 9 28c6 10 7 14 7 18c0 12 -13 18 -36 18
c-56 0 -97 -28 -127 -87c-21 -40 -32 -73 -56 -160zM223 455h129l-14 -47h-126l-62 -247c-23 -92 -81 -283 -104 -345l-110 -18c63 138 113 288 148 436l41 174h-89l13 47h87c25 92 41 134 70 181c39 65 94 100 157 100c65 0 111 -38 111 -90c0 -30 -23 -53 -54 -53
c-29 0 -52 20 -52 45c0 10 2 16 9 28c6 10 7 14 7 18c0 10 -10 17 -24 17c-37 0 -64 -26 -88 -86c-20 -48 -26 -67 -49 -160z" />
    <glyph glyph-name="ffl" unicode="ffl" horiz-adv-x="917" 
d="M249 455h197c37 120 42 134 78 181c52 70 112 100 203 100c26 0 42 -2 64 -7l109 8l-185 -624c-13 -44 -13 -45 -13 -57s7 -20 18 -20c28 0 79 50 123 122l31 -18c-60 -102 -124 -155 -187 -155c-40 0 -65 27 -65 70c0 31 3 45 27 128l124 418c-14 8 -23 22 -23 37
c0 9 2 17 9 28c6 11 7 13 7 19c0 11 -13 16 -43 16c-62 0 -103 -26 -134 -86c-20 -39 -31 -70 -55 -160h142l-13 -47h-141l-62 -247c-20 -81 -82 -287 -104 -345l-110 -18c54 114 109 276 148 436l41 174h-197l-62 -247c-23 -91 -81 -284 -104 -345l-110 -18
c62 138 113 289 148 436l41 174h-89l13 47h87c25 92 41 134 70 181c39 65 94 100 157 100c65 0 111 -38 111 -90c0 -30 -23 -53 -54 -53c-29 0 -52 20 -52 45c0 10 2 16 9 28c6 10 7 14 7 18c0 10 -10 17 -24 17c-37 0 -64 -26 -88 -86c-20 -48 -26 -67 -49 -160z" />
    <glyph glyph-name=".notdef" horiz-adv-x="500" 
d="M50 0v491h400v-491h-400zM100 50h300v391h-300v-391z" />
    <glyph glyph-name="space" unicode=" " horiz-adv-x="278" 
 />
    <glyph glyph-name="exclam" unicode="!" horiz-adv-x="333" 
d="M140 182l-36 10c49 184 70 302 79 434c5 70 33 111 73 111c36 0 60 -23 60 -58c0 -30 -1 -32 -50 -136c-48 -106 -80 -199 -126 -361zM92 109c34 0 62 -28 62 -62c0 -35 -27 -62 -63 -62c-33 0 -61 28 -61 62s28 62 62 62z" />
    <glyph glyph-name="quotedbl" unicode="&#x22;" horiz-adv-x="400" 
d="M100 520l56 175c8 27 20 37 42 37c24 0 45 -20 45 -43c0 -9 -4 -19 -13 -32l-110 -147zM252 520l56 175c8 27 20 37 42 37c24 0 45 -20 45 -43c0 -9 -4 -20 -13 -32l-110 -147z" />
    <glyph glyph-name="numbersign" unicode="#" horiz-adv-x="556" 
d="M134 220h-101v56h109l21 148h-103v56h111l30 206h65l-30 -206h123l30 206h65l-30 -206h100v-56h-108l-21 -148h102v-56h-110l-32 -220h-65l32 220h-123l-32 -220h-65zM228 424l-21 -148h123l21 148h-123z" />
    <glyph glyph-name="dollar" unicode="$" horiz-adv-x="556" 
d="M381 647l-70 -259c5 -2 9 -3 13 -5c97 -38 149 -102 149 -184c0 -88 -62 -165 -160 -198c-31 -10 -58 -14 -97 -15h-12l-33 -121h-43l34 124c-95 16 -159 78 -159 154c0 54 31 91 77 91c36 0 62 -24 62 -59c0 -28 -17 -48 -49 -57c-16 -4 -20 -8 -20 -18
c0 -28 46 -60 99 -70l74 274c-3 2 -7 3 -12 5c-84 35 -131 98 -131 176c0 116 106 208 241 208h6l27 99h43l-28 -103c89 -18 144 -74 144 -148c0 -48 -26 -77 -67 -77c-33 0 -58 23 -58 54c0 25 10 40 34 52c13 6 17 12 17 21c0 22 -36 47 -81 56zM273 404l66 247
c-95 0 -156 -50 -156 -129c0 -53 31 -94 90 -118zM285 289l-70 -263c27 1 46 4 67 10c62 19 103 70 103 127c0 43 -22 84 -56 105c-6 4 -21 11 -44 21z" />
    <glyph glyph-name="percent" unicode="%" horiz-adv-x="833" 
d="M651 722l-414 -722h-50l362 635c-39 -22 -63 -30 -97 -30c-21 0 -38 3 -65 12c3 -16 4 -26 4 -36c0 -61 -27 -132 -71 -184s-90 -76 -146 -76c-75 0 -128 52 -128 124c0 67 46 159 106 211c38 33 84 52 127 52c40 0 65 -13 91 -47c30 -17 48 -22 73 -22
c65 0 122 29 162 83h46zM287 673c-43 -15 -56 -27 -95 -95c-46 -81 -62 -122 -62 -159s24 -62 59 -62c81 0 168 118 168 230c0 15 -2 26 -6 43c-30 11 -44 20 -64 43zM675 401c68 0 117 -50 117 -119c0 -59 -30 -136 -76 -193c-37 -47 -89 -74 -141 -74
c-76 0 -130 50 -130 121c0 56 27 126 69 178c45 56 102 87 161 87zM692 364c-32 0 -60 -23 -91 -74c-53 -88 -74 -139 -74 -179c0 -33 26 -60 59 -60c82 0 171 118 171 229c0 47 -29 84 -65 84z" />
    <glyph glyph-name="ampersand" unicode="&#x26;" horiz-adv-x="852" 
d="M773 397l-5 -43c-66 -7 -90 -26 -161 -130c-36 -50 -61 -80 -100 -116c33 -38 58 -52 91 -52c45 0 73 20 121 90l34 -21c-61 -96 -124 -140 -201 -140c-54 0 -90 16 -130 58c-70 -40 -134 -58 -200 -58c-119 0 -198 74 -198 185c0 66 32 126 93 176c32 25 73 47 146 78
c-6 45 -8 65 -8 92c0 135 73 221 187 221c90 0 152 -53 152 -131c0 -57 -29 -102 -88 -138c-31 -19 -64 -32 -134 -52c28 -118 67 -217 106 -270c68 63 110 124 110 159c0 30 -29 49 -73 49h-8l6 43h260zM364 460c102 31 159 84 159 149c0 47 -34 82 -79 82
c-55 0 -90 -49 -90 -126c0 -32 2 -54 10 -105zM271 379c-40 -20 -58 -32 -76 -50c-34 -34 -56 -86 -56 -133c0 -38 14 -79 37 -110c23 -29 57 -45 98 -45c39 0 74 12 118 39c-58 92 -93 180 -121 299z" />
    <glyph glyph-name="quotesingle" unicode="'" horiz-adv-x="278" 
d="M114 520l58 175c8 27 20 37 43 37c25 0 47 -19 47 -41c0 -10 -5 -22 -14 -34l-114 -147z" />
    <glyph glyph-name="parenleft" unicode="(" horiz-adv-x="333" 
d="M389 736l10 -23c-83 -43 -128 -84 -167 -149c-70 -120 -113 -289 -113 -442c0 -88 14 -143 58 -230l-21 -15c-78 97 -116 208 -116 336c0 227 147 448 349 523z" />
    <glyph glyph-name="parenright" unicode=")" horiz-adv-x="333" 
d="M-83 -123l-10 23c84 45 128 84 166 150c70 120 113 289 113 442c0 88 -14 143 -57 229l21 15c78 -97 115 -207 115 -335c0 -228 -146 -448 -348 -524z" />
    <glyph glyph-name="asterisk" unicode="*" horiz-adv-x="500" 
d="M222 501l-23 24c-24 23 -36 30 -81 46c-27 11 -39 25 -39 47c0 24 17 41 40 41s38 -12 48 -39c17 -47 22 -54 47 -80l23 -24l9 33c4 14 6 28 6 42c0 10 -2 30 -5 50c-1 8 -2 14 -2 19c0 23 21 44 44 44c22 0 40 -19 40 -44c0 -13 -4 -22 -17 -37c-31 -36 -35 -44 -45 -80
l-9 -32l33 9c31 8 43 15 80 45c16 14 24 17 37 17c24 0 44 -18 44 -41s-21 -44 -45 -44c-5 0 -11 1 -19 2c-29 6 -37 7 -47 7c-12 0 -28 -3 -45 -7l-32 -9l24 -24c22 -22 36 -30 79 -46c28 -11 40 -25 40 -47c0 -24 -17 -41 -41 -41c-23 0 -37 12 -47 39
c-16 45 -20 53 -47 80l-23 24l-9 -33c-4 -14 -6 -28 -6 -41c0 -11 1 -25 5 -51c1 -7 2 -14 2 -19c0 -23 -20 -44 -43 -44s-41 19 -41 44c0 13 4 21 17 37c31 37 35 45 45 80l9 32l-33 -8c-31 -9 -43 -16 -80 -46c-16 -13 -24 -17 -37 -17c-25 0 -44 18 -44 41s21 44 44 44
c5 0 12 -1 20 -2c21 -4 40 -6 49 -6c13 0 26 2 43 6z" />
    <glyph glyph-name="plus" unicode="+" horiz-adv-x="606" 
d="M249 213h-212v80h212v212h80v-212h211v-80h-211v-211h-80v211z" />
    <glyph glyph-name="comma" unicode="," horiz-adv-x="278" 
d="M-26 -167l-13 31c74 34 118 80 127 131c-7 -1 -13 -1 -17 -1c-34 0 -56 21 -56 53c0 35 29 62 67 62c40 0 69 -34 69 -80c0 -77 -69 -154 -177 -196z" />
    <glyph glyph-name="hyphen" unicode="-" horiz-adv-x="333" 
d="M54 278h205l-22 -83h-205z" />
    <glyph glyph-name="period" unicode="." horiz-adv-x="278" 
d="M79 109c34 0 62 -28 62 -62c0 -35 -27 -62 -63 -62c-33 0 -61 28 -61 62s28 62 62 62z" />
    <glyph glyph-name="slash" unicode="/" horiz-adv-x="606" 
d="M408 722h58l-268 -830h-58z" />
    <glyph glyph-name="zero" unicode="0" horiz-adv-x="556" 
d="M351 704c105 0 176 -100 176 -249c0 -248 -153 -470 -324 -470c-102 0 -174 102 -174 247c0 140 56 294 139 384c55 58 117 88 183 88zM350 664c-45 0 -85 -30 -116 -86c-64 -116 -110 -290 -110 -420c0 -85 30 -133 84 -133c60 0 108 54 156 179c41 103 66 230 66 328
c0 86 -28 132 -80 132z" />
    <glyph glyph-name="one" unicode="1" horiz-adv-x="556" 
d="M459 708l-157 -585c-5 -19 -9 -42 -9 -49c0 -22 14 -27 79 -27h54l-6 -47h-370l5 47h43c53 1 74 4 84 14c9 9 10 12 23 62l107 400c10 36 10 36 10 45c0 18 -7 20 -68 20h-69l12 44c72 0 178 35 233 76h29z" />
    <glyph glyph-name="two" unicode="2" horiz-adv-x="556" 
d="M435 207l36 -14l-77 -193h-429c9 56 49 98 315 329c90 78 123 133 123 208c0 70 -47 117 -117 117c-68 0 -142 -48 -142 -91c0 -12 4 -17 28 -29c33 -18 46 -35 46 -61c0 -37 -28 -64 -64 -64c-48 0 -78 36 -78 92c0 109 111 203 239 203c115 0 193 -70 193 -175
c0 -79 -33 -138 -113 -200c-28 -22 -37 -28 -169 -119c-80 -56 -124 -93 -148 -125h232c51 1 59 7 99 76z" />
    <glyph glyph-name="three" unicode="3" horiz-adv-x="556" 
d="M340 364c44 -14 64 -26 86 -52c21 -25 32 -56 32 -92c0 -134 -115 -235 -266 -235c-120 0 -194 61 -194 158c0 52 28 86 71 86c36 0 64 -27 64 -62c0 -27 -12 -45 -41 -58c-16 -7 -20 -11 -20 -22c0 -32 48 -60 104 -60c65 0 111 26 141 80c22 38 33 84 33 132
c0 62 -32 104 -79 104c-9 0 -24 -1 -38 -4c-8 -1 -15 -2 -20 -2c-18 0 -29 10 -29 26c0 18 12 28 34 28c6 0 6 0 35 -2c11 -1 20 -2 23 -2c67 0 130 84 130 173c0 62 -40 99 -107 99c-47 0 -97 -25 -97 -49c0 -7 4 -14 14 -23c16 -16 21 -28 21 -45c0 -33 -24 -57 -57 -57
c-38 0 -63 28 -63 69c0 82 92 150 201 150c112 0 188 -64 188 -159c0 -56 -29 -111 -76 -142c-24 -16 -43 -24 -90 -39z" />
    <glyph glyph-name="four" unicode="4" horiz-adv-x="556" 
d="M512 708l-126 -470h115l-15 -54h-114l-17 -61c-8 -31 -10 -41 -10 -49c0 -22 14 -27 80 -27h18l-5 -47h-311l6 47h18c53 0 74 4 84 14c9 9 10 12 23 62l16 61h-282v42l466 482h54zM289 238l85 318l-309 -318h224z" />
    <glyph glyph-name="five" unicode="5" horiz-adv-x="556" 
d="M112 383l91 321c74 -19 145 -29 205 -29c39 0 81 9 114 25c6 3 8 4 11 4c4 0 7 -6 7 -12c0 -13 -10 -30 -27 -50c-33 -35 -92 -56 -158 -56c-36 0 -78 5 -131 16l-56 -189c48 24 83 33 126 33c109 0 186 -71 186 -172c0 -160 -131 -289 -293 -289
c-107 0 -183 64 -183 152c0 48 33 85 77 85c35 0 60 -24 60 -56c0 -21 -9 -39 -25 -51c-7 -5 -7 -5 -33 -17c-5 -3 -6 -5 -6 -11c0 -33 48 -61 107 -61c103 0 187 106 187 236c0 83 -41 129 -115 129c-40 0 -73 -11 -104 -36c-3 -37 -18 -56 -44 -56c-20 0 -36 14 -36 33
c0 20 9 32 40 51z" />
    <glyph glyph-name="six" unicode="6" horiz-adv-x="556" 
d="M158 335c41 64 95 94 165 94c100 0 169 -71 169 -173c0 -66 -27 -138 -71 -188c-48 -53 -115 -83 -190 -83c-122 0 -195 89 -195 236c0 111 42 238 112 337c68 96 152 146 246 146c89 0 153 -50 153 -118c0 -45 -28 -75 -69 -75c-34 0 -58 22 -58 54c0 15 4 27 13 44
c7 13 9 17 9 24c0 19 -19 31 -50 31c-60 0 -114 -40 -159 -119c-38 -67 -58 -122 -75 -210zM291 371c-93 0 -162 -93 -162 -218c0 -80 38 -127 102 -127c89 0 156 97 156 224c0 78 -34 121 -96 121z" />
    <glyph glyph-name="seven" unicode="7" horiz-adv-x="556" 
d="M561 704v-30l-94 -146c-139 -225 -169 -290 -219 -478c-13 -47 -32 -65 -69 -65c-35 0 -57 22 -57 57c0 36 18 80 62 151c49 80 49 80 177 260l109 156h-169c-102 1 -124 -10 -171 -88l-24 -40l-37 12l97 211l25 -1c34 -2 67 -4 100 -6c36 -2 68 -3 96 -3
c56 0 121 4 174 10z" />
    <glyph glyph-name="eight" unicode="8" horiz-adv-x="556" 
d="M376 370c37 -24 55 -39 70 -59c22 -29 34 -65 34 -102c0 -130 -110 -224 -264 -224c-128 0 -208 60 -208 157c0 91 63 164 181 209c-54 39 -75 78 -75 139c0 121 100 214 229 214c107 0 184 -65 184 -156c0 -51 -23 -97 -66 -130c-18 -14 -39 -26 -85 -48zM333 394
c33 13 48 23 67 42c33 32 52 77 52 118c0 63 -48 107 -117 107c-79 0 -141 -54 -141 -123c0 -57 37 -96 139 -144zM227 324c-90 -36 -138 -95 -138 -170c0 -77 53 -125 138 -125c94 0 166 58 166 135c0 45 -27 85 -77 115c-25 15 -41 23 -89 45z" />
    <glyph glyph-name="nine" unicode="9" horiz-adv-x="556" 
d="M393 342c-46 -58 -97 -85 -163 -85c-97 0 -170 72 -170 167c0 65 26 135 71 190c46 57 115 90 189 90c124 0 199 -93 199 -249c0 -123 -57 -268 -144 -365c-61 -70 -135 -105 -215 -105c-89 0 -153 49 -153 117c0 44 28 74 68 74c34 0 60 -25 60 -58
c0 -14 -5 -26 -15 -39c-8 -12 -10 -15 -10 -22c0 -18 19 -30 48 -30c70 0 122 41 171 132c29 56 47 104 64 183zM319 662c-46 0 -82 -23 -112 -71c-27 -45 -41 -98 -41 -157c0 -75 35 -118 98 -118c92 0 160 91 160 215c0 80 -41 131 -105 131z" />
    <glyph glyph-name="colon" unicode=":" horiz-adv-x="278" 
d="M104 109c34 0 62 -28 62 -62c0 -35 -27 -62 -63 -62c-33 0 -61 28 -61 62s28 62 62 62zM192 463c34 0 62 -28 62 -62c0 -35 -27 -62 -63 -62c-33 0 -61 28 -61 62s28 62 62 62z" />
    <glyph glyph-name="semicolon" unicode=";" horiz-adv-x="278" 
d="M-1 -167l-13 32c75 34 118 78 127 130c-7 -1 -14 -1 -17 -1c-34 0 -56 21 -56 53c0 35 29 62 67 62c40 0 69 -34 69 -80c0 -77 -68 -153 -177 -196zM199 463c34 0 62 -28 62 -62c0 -35 -27 -62 -63 -62c-33 0 -61 28 -61 62s28 62 62 62z" />
    <glyph glyph-name="less" unicode="&#x3c;" horiz-adv-x="606" 
d="M599 491l-448 -185l348 -185l-22 -85l-447 232l20 76l571 232z" />
    <glyph glyph-name="equal" unicode="=" horiz-adv-x="606" 
d="M540 192v-80h-504v80h504zM540 394v-80h-504v80h504z" />
    <glyph glyph-name="greater" unicode="&#x3e;" horiz-adv-x="606" 
d="M94 491l23 85l446 -232l-20 -76l-571 -232l23 85l447 185z" />
    <glyph glyph-name="question" unicode="?" horiz-adv-x="444" 
d="M290 310l36 -6c-12 -63 -58 -105 -115 -105s-94 40 -94 100c0 71 42 129 159 218c57 43 78 73 78 112c0 38 -32 67 -75 67c-47 0 -88 -26 -111 -70c-12 -24 -16 -49 -16 -100h-38c-1 11 -1 18 -1 24c0 109 70 187 168 187c80 0 136 -57 136 -139c0 -58 -25 -104 -83 -153
c-27 -24 -27 -24 -100 -71c-48 -31 -67 -57 -67 -88s17 -49 45 -49c24 0 47 12 60 30c7 10 10 19 18 43zM164 109c34 0 62 -28 62 -62c0 -35 -27 -62 -63 -62c-33 0 -61 28 -61 62s28 62 62 62z" />
    <glyph glyph-name="at" unicode="@" horiz-adv-x="747" 
d="M641 188h61c-19 -44 -49 -84 -92 -122c-60 -52 -134 -80 -217 -80c-100 0 -196 41 -265 112c-66 69 -100 156 -100 257c0 217 157 381 365 381c185 0 335 -135 335 -301c0 -92 -45 -182 -118 -237c-43 -33 -89 -51 -129 -51c-41 0 -69 26 -69 65c0 8 0 12 1 20
c-39 -58 -68 -79 -108 -79c-33 0 -70 18 -92 45c-22 25 -33 61 -33 104c0 62 23 122 64 169c39 43 93 72 137 72c38 0 66 -23 78 -65l16 56h88l-73 -289c-2 -11 -4 -22 -4 -30c0 -14 11 -24 27 -24c29 0 69 27 103 69c36 46 60 112 60 169c0 68 -33 138 -89 187
c-52 47 -113 69 -188 69c-183 0 -315 -136 -315 -324s133 -324 317 -324c102 0 184 52 240 151zM395 502c-23 0 -46 -15 -63 -42c-37 -57 -62 -133 -62 -190c0 -49 17 -77 48 -77s62 32 86 87c21 47 36 110 36 150c0 44 -17 72 -45 72z" />
    <glyph glyph-name="A" unicode="A" horiz-adv-x="704" 
d="M442 737l125 -629c11 -53 20 -61 76 -61h25l-6 -47h-300l5 47h16c57 0 72 7 72 35c0 8 -1 21 -4 33l-23 123h-255l-55 -96c-12 -21 -18 -40 -18 -55c0 -30 17 -40 69 -40h24l-6 -47h-269l5 47c54 0 95 33 148 121l330 569h41zM420 285l-57 287l-163 -287h220z" />
    <glyph glyph-name="B" unicode="B" horiz-adv-x="722" 
d="M123 722h301c77 0 122 -9 163 -31c51 -28 81 -78 81 -136c0 -61 -30 -113 -83 -145c-33 -20 -63 -30 -112 -39c53 -16 81 -31 106 -54c35 -32 51 -67 51 -111c0 -78 -47 -146 -124 -179c-40 -18 -101 -27 -174 -27h-363l5 47h15c44 1 65 5 73 14c9 9 10 11 23 62l128 476
c5 21 9 41 9 49c0 22 -14 27 -79 27h-26zM269 394h83c59 0 102 11 134 36c39 30 63 84 63 140c0 73 -36 105 -118 105h-29c-52 -1 -58 -6 -75 -68zM257 347l-64 -238c-4 -15 -6 -27 -6 -35c0 -21 15 -27 70 -27h50c60 0 109 14 139 40c38 33 62 86 62 138
c0 49 -26 88 -72 107c-22 9 -68 15 -116 15h-63z" />
    <glyph glyph-name="C" unicode="C" horiz-adv-x="722" 
d="M617 657l60 58h36l-56 -280h-41c-3 77 -10 121 -26 158c-27 67 -74 101 -140 101c-70 0 -136 -40 -182 -111c-63 -96 -103 -228 -103 -343c0 -129 69 -206 186 -206c75 0 136 29 185 90c18 22 32 46 57 99l41 -18c-27 -62 -49 -99 -80 -130c-57 -60 -132 -90 -220 -90
c-178 0 -294 116 -294 295c0 111 38 215 111 305c81 100 181 152 291 152c76 0 126 -23 175 -80z" />
    <glyph glyph-name="D" unicode="D" horiz-adv-x="778" 
d="M-38 0l5 47h5c52 1 73 4 83 14c9 9 10 11 23 62l128 476c5 21 9 41 9 49c0 22 -14 27 -79 27h-26l6 47h290c112 0 175 -14 225 -52c67 -50 104 -133 104 -235c0 -134 -68 -273 -175 -358c-69 -55 -155 -77 -296 -77h-302zM227 47h32c97 0 161 18 206 57
c81 72 149 248 149 385c0 58 -19 113 -48 142c-29 28 -80 44 -140 44h-30c-52 0 -62 -8 -76 -65l-133 -500c-4 -12 -6 -26 -6 -34c0 -20 15 -29 46 -29z" />
    <glyph glyph-name="E" unicode="E" horiz-adv-x="722" 
d="M701 722l-39 -241h-45v34c0 71 -9 102 -37 127c-25 22 -59 33 -102 33h-58c-76 -1 -84 -6 -100 -69l-55 -205h23c100 2 147 34 178 125l45 -6l-89 -334l-45 8c7 32 9 47 9 68c0 62 -36 91 -111 92h-22l-59 -220c-10 -38 -11 -43 -11 -55c0 -24 18 -32 70 -32h54
c143 2 211 49 294 206l41 -8l-78 -245h-601l5 47h5c52 0 73 4 83 14c9 9 10 13 23 62l128 476c5 21 9 41 9 49c0 22 -14 27 -79 27h-26l6 47h584z" />
    <glyph glyph-name="F" unicode="F" horiz-adv-x="667" 
d="M698 722l-39 -241h-45v35c0 69 -9 101 -37 126c-25 22 -59 33 -102 33h-52c-76 -1 -84 -6 -100 -69l-55 -205h23c100 2 147 34 178 125l45 -6l-89 -334l-45 8c7 32 9 47 9 68c0 62 -36 91 -111 92h-22l-62 -231c-6 -24 -10 -41 -10 -49c0 -22 14 -27 79 -27h26l-5 -47
h-318l5 47h5c52 0 73 4 83 14c9 9 10 13 23 62l128 476c5 21 9 41 9 49c0 22 -14 27 -79 27h-26l6 47h578z" />
    <glyph glyph-name="G" unicode="G" horiz-adv-x="778" 
d="M739 715l-55 -281l-42 7c-1 70 -7 109 -24 147c-29 68 -85 106 -155 106c-90 0 -166 -57 -225 -169c-47 -90 -77 -207 -77 -303c0 -121 67 -194 178 -194c96 0 161 52 188 150l9 31c5 20 9 41 9 49c0 22 -14 27 -79 27h-33l5 47h325l-6 -47h-4c-52 0 -73 -4 -83 -14
c-9 -9 -9 -10 -23 -62l-60 -223h-44l-12 81c-62 -59 -122 -82 -217 -82c-173 0 -275 107 -275 287c0 128 53 250 149 346c79 79 169 119 267 119c81 0 136 -25 188 -84l62 62h34z" />
    <glyph glyph-name="H" unicode="H" horiz-adv-x="833" 
d="M573 354h-321l-62 -231c-6 -24 -10 -41 -10 -49c0 -22 14 -27 79 -27h26l-5 -47h-318l5 47h5c52 1 73 4 83 14c9 9 10 12 23 62l128 476c5 21 9 41 9 49c0 22 -14 27 -79 27h-26l6 47h317l-5 -47h-4c-53 -1 -74 -4 -83 -14c-9 -9 -10 -10 -23 -62l-54 -198h322l53 198
c7 25 10 41 10 49c0 22 -14 27 -79 27h-26l5 47h318l-5 -47h-5c-53 -1 -73 -4 -83 -14c-9 -9 -9 -9 -23 -62l-128 -476c-5 -20 -9 -41 -9 -49c0 -22 14 -27 79 -27h26l-6 -47h-317l5 47h4c53 0 74 4 84 14c8 9 9 12 23 62z" />
    <glyph glyph-name="I" unicode="I" horiz-adv-x="407" 
d="M283 47l-6 -47h-310l5 47c59 1 72 3 84 14c9 9 10 12 23 62l128 476c8 29 10 41 10 49c0 22 -14 27 -80 27h-22l6 47h310l-5 -47c-59 -1 -72 -3 -84 -14c-9 -9 -9 -10 -23 -62l-128 -476c-9 -36 -10 -39 -10 -48c0 -23 14 -28 80 -28h22z" />
    <glyph glyph-name="J" unicode="J" horiz-adv-x="611" 
d="M326 675l6 47h314l-5 -47h-4c-48 -1 -69 -5 -77 -14c-9 -9 -9 -11 -23 -62l-109 -407c-38 -142 -116 -207 -250 -207c-121 0 -191 58 -191 158c0 81 53 145 121 145c47 0 79 -29 79 -71s-27 -70 -66 -70c-19 0 -26 2 -46 14c-4 2 -9 3 -14 3c-15 0 -26 -14 -26 -32
c0 -59 53 -104 122 -104c84 0 129 52 166 191l102 380c6 24 10 41 10 49c0 22 -14 27 -79 27h-30z" />
    <glyph glyph-name="K" unicode="K" horiz-adv-x="741" 
d="M247 342l288 240c39 32 54 51 54 68c0 19 -15 25 -59 25h-22l6 47h300l-5 -47c-80 -6 -122 -26 -201 -98l-188 -157l152 -315c26 -56 30 -59 94 -58h31l-6 -47h-327l5 47h33c53 0 68 4 68 18c0 6 0 6 -16 39l-117 246l-113 -93l-36 -134c-6 -24 -10 -41 -10 -49
c0 -22 14 -27 79 -27h26l-5 -47h-318l5 47h5c52 0 73 4 83 14c9 9 10 12 23 62l128 476c5 21 9 41 9 49c0 22 -14 27 -79 27h-26l6 47h317l-5 -47h-4c-53 -1 -74 -4 -83 -14c-9 -9 -10 -11 -24 -62z" />
    <glyph glyph-name="L" unicode="L" horiz-adv-x="667" 
d="M589 253l41 -8l-78 -245h-589l5 47h5c52 0 73 4 83 14c9 9 10 13 23 62l128 476c5 21 9 41 9 49c0 22 -14 27 -79 27h-26l6 47h336l-6 -47h-22c-53 -1 -74 -4 -83 -14c-9 -9 -10 -11 -23 -62l-125 -465c-10 -37 -11 -42 -11 -55c0 -24 18 -32 70 -32h42
c143 2 211 49 294 206z" />
    <glyph glyph-name="M" unicode="M" horiz-adv-x="944" 
d="M363 722l53 -540l341 540h216l-5 -47h-4c-53 -1 -74 -4 -84 -14c-9 -9 -9 -9 -23 -62l-127 -476c-6 -23 -10 -41 -10 -49c0 -22 14 -27 79 -27h26l-6 -47h-317l5 47h4c53 1 74 4 84 14c8 9 9 10 23 62l132 493l-386 -616h-36l-62 602l-103 -385c-22 -89 -23 -93 -23 -115
c0 -38 28 -55 89 -55l-5 -47h-250l5 47c72 2 92 28 130 170l102 382c7 24 10 41 10 49c0 22 -14 27 -79 27h-26l5 47h242z" />
    <glyph glyph-name="N" unicode="N" horiz-adv-x="815" 
d="M315 722l253 -552l90 335c22 89 23 93 23 115c0 37 -29 55 -90 55l6 47h262l-5 -47c-84 -3 -104 -26 -142 -170l-139 -519h-39l-278 601l-99 -370c-23 -89 -24 -93 -24 -115c0 -37 29 -55 90 -55h11l-6 -47h-276l5 47c87 2 106 24 145 170l114 426c-8 27 -16 32 -65 32
h-52l5 47h211z" />
    <glyph glyph-name="O" unicode="O" horiz-adv-x="778" 
d="M457 737c76 0 147 -28 199 -79c53 -53 79 -121 79 -208c0 -128 -53 -254 -145 -346c-80 -79 -173 -119 -278 -119c-167 0 -272 112 -272 290c0 122 46 239 128 327c85 90 181 135 289 135zM460 694c-69 0 -127 -32 -179 -100c-65 -84 -123 -266 -123 -386
c0 -111 60 -180 156 -180c78 0 151 43 196 116c62 100 108 249 108 352c0 47 -15 108 -34 138c-21 36 -72 60 -124 60z" />
    <glyph glyph-name="P" unicode="P" horiz-adv-x="667" 
d="M247 318l-52 -195c-6 -24 -10 -41 -10 -49c0 -22 14 -27 79 -27h26l-5 -47h-318l5 47h5c52 1 73 4 83 14c9 9 10 11 23 62l128 476c5 21 9 41 9 49c0 22 -14 27 -79 27h-26l6 47h295c83 0 136 -11 173 -36c48 -33 74 -83 74 -145c0 -80 -39 -145 -109 -182
c-67 -36 -103 -41 -289 -41h-18zM260 365h19l90 -1c43 0 88 14 116 34c41 31 66 90 66 154c0 57 -20 95 -58 111c-18 7 -52 12 -87 12h-12c-44 -2 -54 -9 -64 -48z" />
    <glyph glyph-name="Q" unicode="Q" horiz-adv-x="778" 
d="M498 27v-22c1 -66 6 -87 26 -107c6 -5 15 -9 24 -9c26 0 53 27 75 73l35 -22c-19 -36 -36 -60 -53 -79c-27 -30 -68 -49 -105 -49c-67 0 -115 57 -115 137c0 9 1 26 4 43c-25 -5 -41 -7 -66 -7c-176 0 -283 111 -283 293c0 242 194 459 411 459c78 0 148 -26 200 -74
c57 -52 84 -121 84 -216c0 -97 -31 -193 -91 -280c-35 -51 -75 -89 -146 -140zM485 116c80 110 130 259 130 389c0 59 -12 107 -35 135c-25 32 -74 53 -124 53c-74 0 -145 -47 -196 -129c-62 -101 -103 -245 -103 -364c0 -59 10 -93 38 -128c-7 22 -9 33 -9 51
c0 84 61 144 147 144c88 0 142 -54 152 -151zM396 45c7 36 9 51 9 72c0 61 -34 101 -87 101c-55 0 -95 -42 -95 -100c0 -56 36 -89 98 -89c26 0 45 4 75 16z" />
    <glyph glyph-name="R" unicode="R" horiz-adv-x="741" 
d="M248 350l-61 -227c-6 -24 -10 -41 -10 -49c0 -22 14 -27 79 -27h26l-5 -47h-318l5 47h5c52 0 73 4 83 14c9 9 10 13 23 62l128 476c5 21 9 41 9 49c0 22 -14 27 -79 27h-26l6 47h320c84 0 133 -8 172 -28c55 -28 86 -77 86 -136c0 -65 -39 -126 -102 -158
c-37 -18 -75 -27 -153 -36c73 -28 103 -75 103 -162c0 -12 0 -23 -1 -36l-1 -51c0 -43 9 -61 30 -61c28 0 44 21 70 93l36 -15c-39 -106 -79 -147 -143 -147c-63 0 -106 49 -106 121c0 19 0 24 6 100c2 21 3 41 3 54c0 65 -32 90 -116 90h-69zM260 397h78c83 0 114 6 151 27
c54 32 82 80 82 141c0 70 -48 110 -132 110h-49c-48 -1 -59 -10 -71 -60z" />
    <glyph glyph-name="S" unicode="S" horiz-adv-x="667" 
d="M632 715l-54 -261l-42 7c1 9 1 17 1 20c0 132 -65 213 -172 213c-89 0 -156 -56 -156 -131c0 -51 35 -88 114 -119l85 -34c119 -47 161 -98 161 -196c0 -132 -113 -229 -269 -229c-81 0 -150 26 -206 78l-59 -63h-35l55 285l40 -7c-1 -11 -1 -24 -1 -28
c0 -68 16 -116 53 -158c39 -44 87 -64 152 -64c104 0 174 58 174 143c0 37 -15 66 -44 87c-12 8 -22 13 -78 36l-86 36c-52 22 -80 39 -100 61c-30 33 -47 77 -47 122c0 126 105 224 240 224c74 0 130 -23 182 -74l54 52h38z" />
    <glyph glyph-name="T" unicode="T" horiz-adv-x="685" 
d="M726 722l-42 -275l-42 5c2 40 2 48 2 70c0 58 -14 106 -37 128c-18 16 -47 25 -85 25h-14c-33 -1 -35 -3 -50 -56l-133 -496c-5 -21 -9 -41 -9 -49c0 -22 14 -27 79 -27h37l-6 -47h-346l5 47h22c53 0 74 4 84 14c8 9 10 13 23 62l136 510c4 13 5 19 5 25
c0 12 -10 17 -33 17h-14c-89 -2 -140 -52 -227 -217l-41 6l88 258h598z" />
    <glyph glyph-name="U" unicode="U" horiz-adv-x="815" 
d="M100 675l5 47h318l-6 -47h-4c-53 -1 -74 -4 -83 -14c-9 -9 -10 -12 -23 -62l-90 -333c-7 -29 -14 -76 -14 -103c0 -85 59 -135 161 -135c77 0 135 28 174 84c24 34 36 67 65 178l58 215c22 89 23 93 23 115c0 38 -29 56 -93 55l6 47h263l-5 -47c-88 -4 -97 -15 -140 -170
l-56 -211c-27 -102 -27 -102 -41 -137c-31 -81 -70 -124 -135 -149c-39 -15 -89 -23 -140 -23c-163 0 -250 67 -250 191c0 35 4 59 20 118l82 305c5 21 9 41 9 49c0 22 -14 27 -79 27h-25z" />
    <glyph glyph-name="V" unicode="V" horiz-adv-x="704" 
d="M334 155l223 401c20 35 30 61 30 78c0 29 -22 41 -74 41h-18l5 47h272l-5 -47c-71 -7 -96 -30 -174 -162l-297 -528h-37l-117 592c-19 86 -27 96 -78 98h-28l7 47h295l-5 -47h-34c-49 0 -60 -6 -60 -32c0 -10 3 -27 8 -52z" />
    <glyph glyph-name="W" unicode="W" horiz-adv-x="926" 
d="M630 196l163 376c16 38 23 59 23 72c0 21 -21 31 -64 31h-17l5 47h233l-5 -47c-68 -15 -88 -37 -135 -143l-238 -547h-38l-70 505l-227 -505h-35l-79 602c-12 79 -16 84 -67 88h-26l5 47h267l-6 -47h-18c-42 0 -57 -8 -57 -30c0 -7 0 -12 5 -46l54 -403l168 383l-7 50
c-6 42 -12 46 -75 46h-13l5 47h278l-5 -47h-19c-48 0 -61 -6 -61 -27c0 -8 1 -17 2 -27z" />
    <glyph glyph-name="X" unicode="X" horiz-adv-x="704" 
d="M406 392l116 -272c28 -67 36 -73 102 -73h26l-5 -47h-321l6 47h31c49 0 61 5 61 23c0 6 -2 16 -6 25l-90 214l-151 -159c-25 -26 -39 -50 -39 -68c0 -23 24 -35 68 -35h15l-6 -47h-286l5 47c69 9 99 27 174 106l197 207l-104 245c-27 63 -34 68 -103 70h-24l5 47h315
l-5 -47h-18c-46 0 -67 -9 -67 -28c0 -8 0 -8 10 -32l72 -172l122 125c35 36 48 58 48 78s-17 29 -52 29h-20l5 47h283l-5 -47c-70 -2 -100 -19 -177 -97z" />
    <glyph glyph-name="Y" unicode="Y" horiz-adv-x="685" 
d="M362 364l170 218c16 19 26 41 26 54c0 24 -24 39 -64 39h-23l5 47h282l-5 -47c-72 -4 -101 -23 -171 -111l-200 -256l-50 -185c-7 -26 -10 -41 -10 -49c0 -22 14 -27 79 -27h37l-5 -47h-347l6 47h22c52 0 74 4 83 14c9 9 10 13 23 62l50 185l-120 298
c-25 59 -39 68 -101 69h-17l5 47h308l-5 -47h-28c-44 0 -61 -7 -61 -24c0 -8 3 -20 11 -38z" />
    <glyph glyph-name="Z" unicode="Z" horiz-adv-x="667" 
d="M667 722l-6 -39l-534 -636h135c155 1 224 50 307 221l42 -12l-82 -256h-554l6 38l533 637h-96c-163 -4 -196 -27 -294 -203l-41 11l81 239h503z" />
    <glyph glyph-name="bracketleft" unicode="[" horiz-adv-x="333" 
d="M61 -76h146l-9 -32h-231l223 830h220l-9 -33h-135z" />
    <glyph glyph-name="backslash" unicode="\" horiz-adv-x="606" 
d="M143 708l379 -708h-54l-379 708h54z" />
    <glyph glyph-name="bracketright" unicode="]" horiz-adv-x="333" 
d="M265 690h-146l9 32h231l-223 -830h-219l9 33h134z" />
    <glyph glyph-name="asciicircum" unicode="^" horiz-adv-x="606" 
d="M554 318h-87l-163 311l-165 -311h-87l209 404h85z" />
    <glyph glyph-name="underscore" unicode="_" horiz-adv-x="500" 
d="M-27 -73h500v-61h-500v61z" />
    <glyph glyph-name="grave" unicode="`" horiz-adv-x="333" 
d="M351 519h-41l-134 107c-9 7 -15 17 -15 26c0 20 18 39 39 39c15 0 19 -3 38 -28z" />
    <glyph glyph-name="a" unicode="a" horiz-adv-x="574" 
d="M396 455h87l-100 -336c-7 -26 -11 -43 -11 -54c0 -14 9 -25 21 -25c26 0 61 41 99 118l31 -17c-12 -26 -28 -54 -49 -83c-35 -49 -73 -73 -117 -73c-36 0 -61 26 -61 65c0 10 1 17 5 32c-50 -72 -89 -97 -152 -97c-89 0 -148 65 -148 163c0 80 30 164 81 230
c47 61 103 92 165 92c65 0 115 -43 122 -105zM264 415c-30 0 -58 -12 -80 -35c-53 -55 -92 -158 -92 -246c0 -61 30 -98 80 -98s86 28 117 90c31 63 51 142 51 200c0 56 -29 89 -76 89z" />
    <glyph glyph-name="b" unicode="b" horiz-adv-x="556" 
d="M290 737l-106 -358c56 67 99 91 157 91c89 0 147 -67 147 -170c0 -91 -36 -175 -101 -238c-55 -53 -114 -77 -192 -77c-99 0 -163 56 -163 143c0 21 5 47 14 79l120 404c7 23 9 34 9 43c0 23 -16 32 -57 32h-24l4 36zM308 409c-50 0 -94 -31 -132 -91
c-36 -58 -59 -136 -59 -198c0 -61 32 -97 86 -97c52 0 94 29 132 92c35 57 54 125 54 190s-30 104 -81 104z" />
    <glyph glyph-name="c" unicode="c" horiz-adv-x="444" 
d="M341 132l29 -22c-53 -83 -118 -125 -193 -125c-105 0 -172 71 -172 180c0 161 126 305 266 305c72 0 130 -48 130 -108c0 -43 -27 -75 -63 -75c-31 0 -53 20 -53 49c0 24 10 36 37 48c11 4 16 9 16 15c0 17 -32 33 -64 33c-44 0 -80 -23 -115 -74
c-39 -56 -62 -134 -62 -206c0 -76 34 -119 93 -119c48 0 101 34 151 99z" />
    <glyph glyph-name="d" unicode="d" horiz-adv-x="611" 
d="M534 158l30 -18c-57 -106 -112 -155 -175 -155c-44 0 -68 25 -68 71c0 4 0 14 1 22c-44 -65 -94 -93 -162 -93c-94 0 -157 67 -157 165c0 166 134 320 278 320c35 0 69 -14 90 -36c11 -11 17 -22 25 -45l66 222c6 21 9 34 9 44c0 22 -16 31 -57 31h-31l4 36l199 15
l-178 -600c-10 -35 -15 -58 -15 -71c0 -18 9 -28 25 -28c33 0 58 26 116 120zM284 425c-50 0 -93 -33 -131 -99c-32 -56 -53 -129 -53 -186c0 -65 35 -108 89 -108c48 0 89 32 123 97c32 61 57 152 57 206c0 52 -36 90 -85 90z" />
    <glyph glyph-name="e" unicode="e" horiz-adv-x="444" 
d="M339 116l24 -27c-54 -70 -119 -104 -196 -104c-108 0 -173 65 -173 173c0 164 132 312 278 312c71 0 119 -42 119 -103c0 -58 -42 -109 -120 -143c-46 -20 -64 -26 -182 -54c-1 -13 -2 -27 -2 -34c0 -64 37 -104 97 -104c53 0 96 23 155 84zM94 209c66 14 91 22 127 43
c55 30 86 73 86 121c0 34 -22 57 -55 57c-74 0 -135 -86 -158 -221z" />
    <glyph glyph-name="f" unicode="f" horiz-adv-x="333" 
d="M219 455h129l-14 -47h-126l-62 -247c-23 -92 -81 -283 -104 -345l-110 -18c63 138 113 288 148 436l41 174h-89l13 47h87c25 92 41 134 70 181c39 65 94 100 157 100c65 0 111 -38 111 -90c0 -30 -23 -53 -54 -53c-29 0 -52 20 -52 45c0 10 2 16 9 28c6 10 7 14 7 18
c0 10 -10 17 -24 17c-37 0 -64 -26 -88 -86c-20 -48 -26 -67 -49 -160z" />
    <glyph glyph-name="g" unicode="g" horiz-adv-x="537" 
d="M382 432c39 -28 59 -64 59 -111c0 -46 -25 -96 -65 -127c-35 -28 -79 -42 -135 -42c-25 0 -31 1 -72 7c-13 2 -28 3 -41 3c-36 0 -60 -16 -60 -40c0 -17 12 -29 37 -35c14 -3 21 -4 110 -9c68 -4 100 -11 132 -28c33 -19 52 -51 52 -90c0 -47 -25 -90 -68 -118
c-49 -32 -106 -44 -205 -44c-84 0 -129 11 -169 39c-22 17 -36 45 -36 73c0 33 19 65 49 83c21 13 37 19 79 28c-39 19 -55 40 -55 74c0 24 13 51 33 67c23 20 44 27 90 33c-43 23 -62 56 -62 104c0 92 94 171 205 171c32 0 55 -5 86 -19c52 41 79 54 114 54s63 -23 63 -52
c0 -25 -17 -44 -40 -44c-16 0 -22 4 -38 26c-8 11 -16 16 -26 16c-12 0 -21 -5 -37 -19zM267 432c-72 0 -121 -63 -121 -153c0 -56 34 -90 88 -90c31 0 59 13 77 34c25 31 41 82 41 129c0 49 -33 80 -85 80zM145 3c-91 0 -143 -32 -143 -86c0 -53 45 -77 142 -77
c115 0 178 32 178 91c0 25 -12 42 -37 53c-23 9 -95 19 -140 19z" />
    <glyph glyph-name="h" unicode="h" horiz-adv-x="611" 
d="M305 737l-119 -402c68 93 126 135 188 135c58 0 101 -42 101 -98c0 -28 -8 -67 -24 -112l-47 -138c-16 -46 -19 -56 -19 -67s8 -19 18 -19c31 0 71 38 123 118l29 -21c-54 -94 -120 -148 -182 -148c-40 0 -70 32 -70 75c0 21 5 43 18 83l53 156c11 33 15 52 15 69
c0 26 -17 42 -44 42c-47 0 -97 -36 -143 -103c-36 -52 -48 -80 -74 -168l-41 -139h-87l181 611c6 22 9 34 9 44c0 22 -16 31 -57 31h-31l4 36z" />
    <glyph glyph-name="i" unicode="i" horiz-adv-x="333" 
d="M231 470l-106 -357c-8 -28 -12 -46 -12 -56c0 -12 7 -21 17 -21c27 0 69 42 121 121l31 -17c-28 -43 -44 -65 -62 -85c-40 -46 -81 -69 -125 -69c-38 0 -68 27 -68 62c0 23 3 37 22 101l58 195c7 23 9 34 9 44c0 22 -16 31 -57 31h-24l4 36zM213 714c30 0 54 -24 54 -54
s-24 -54 -55 -54c-29 0 -53 25 -53 54c0 30 24 54 54 54z" />
    <glyph glyph-name="j" unicode="j" horiz-adv-x="315" 
d="M279 470l-119 -400c-42 -145 -51 -165 -81 -202c-39 -45 -89 -70 -143 -70c-62 0 -102 31 -102 80c0 36 23 60 56 60c28 0 48 -19 48 -47c0 -10 -1 -13 -8 -27c-3 -5 -5 -10 -5 -14c0 -10 10 -18 21 -18c24 0 54 24 69 55c15 29 28 66 39 108c10 41 19 72 25 92l76 257
c7 24 9 34 9 43c0 23 -16 32 -57 32h-35l4 36zM263 714c30 0 54 -24 54 -54s-24 -54 -55 -54c-29 0 -53 25 -53 54c0 30 24 54 54 54z" />
    <glyph glyph-name="k" unicode="k" horiz-adv-x="556" 
d="M300 737l-124 -418c68 105 128 151 197 151c55 0 98 -40 98 -91c0 -67 -64 -125 -183 -167c32 -26 43 -52 48 -122c3 -40 7 -49 21 -49c24 0 47 25 104 113l31 -20c-63 -106 -112 -149 -167 -149c-50 0 -74 33 -74 99c0 5 0 24 1 51v38c0 17 -5 26 -16 26
c-3 0 -13 -1 -20 -2c-6 -1 -10 -2 -13 -2c-13 0 -23 10 -23 22c0 17 11 27 30 27c9 0 20 -2 28 -4c6 -2 11 -3 14 -3c6 0 20 5 41 16c69 34 97 65 97 106c0 29 -20 51 -46 51c-38 0 -89 -36 -134 -92c-32 -41 -70 -121 -90 -188l-38 -130h-87l181 611c7 23 9 34 9 44
c0 22 -16 31 -57 31h-31l4 36z" />
    <glyph glyph-name="l" unicode="l" horiz-adv-x="333" 
d="M294 737l-185 -625c-13 -42 -13 -43 -13 -55c0 -13 7 -21 18 -21c28 0 71 42 123 121l31 -17c-60 -102 -124 -155 -187 -155c-40 0 -65 27 -65 70c0 32 3 45 27 127l127 429c6 21 9 34 9 44c0 22 -16 31 -57 31h-31l4 36z" />
    <glyph glyph-name="m" unicode="m" horiz-adv-x="889" 
d="M230 470l-29 -135c70 100 116 135 179 135c55 0 97 -40 97 -93c0 -12 -2 -29 -6 -48c58 95 122 141 193 141c54 0 93 -38 93 -91c0 -22 -5 -53 -12 -75l-63 -194c-9 -29 -12 -40 -12 -49c0 -14 10 -25 21 -25c26 0 63 38 115 116l31 -21c-41 -60 -55 -78 -76 -98
c-34 -32 -66 -48 -99 -48c-47 0 -78 28 -78 70c0 28 1 34 28 112l46 142c9 28 14 50 14 64c0 24 -14 37 -39 37c-38 0 -89 -33 -125 -83c-32 -43 -57 -99 -82 -182l-43 -145h-87l80 271c12 38 20 80 20 100c0 25 -16 39 -42 39c-75 0 -166 -116 -211 -269l-41 -141h-87
l102 344c5 19 8 34 8 43c0 23 -16 32 -56 32h-24l3 36z" />
    <glyph glyph-name="n" unicode="n" horiz-adv-x="611" 
d="M229 470l-29 -135c67 92 126 135 185 135c53 0 96 -44 96 -97c0 -29 -8 -67 -24 -113l-47 -138c-16 -44 -19 -56 -19 -67s8 -19 17 -19c32 0 74 40 125 120l29 -21c-54 -96 -120 -150 -184 -150c-39 0 -69 32 -69 75c0 21 5 43 18 83l53 156c11 32 15 52 15 70
c0 23 -17 41 -40 41c-43 0 -96 -39 -139 -103c-36 -53 -48 -81 -74 -168l-41 -139h-87l102 344c7 23 9 34 9 44c0 22 -16 31 -57 31h-24l4 36z" />
    <glyph glyph-name="o" unicode="o" horiz-adv-x="500" 
d="M273 470c97 0 177 -85 177 -189c0 -75 -31 -154 -85 -214c-49 -55 -109 -82 -182 -82c-109 0 -178 72 -178 187c0 84 28 155 84 212c55 56 118 86 184 86zM268 432c-38 0 -70 -18 -98 -54c-41 -55 -75 -166 -75 -250c0 -68 31 -105 89 -105c53 0 90 30 124 99
c27 55 47 135 47 187c0 77 -32 123 -87 123z" />
    <glyph glyph-name="p" unicode="p" horiz-adv-x="574" 
d="M234 470l-15 -85c45 55 98 85 149 85c39 0 79 -20 105 -52c23 -29 33 -62 33 -111c0 -83 -29 -165 -80 -229c-48 -62 -109 -93 -180 -93c-66 0 -92 19 -119 88l-49 -163c-7 -25 -11 -42 -11 -50c0 -20 16 -26 64 -26h12l-4 -36h-240l4 36c68 3 69 4 89 76l128 434
c6 20 9 34 9 44c0 22 -16 31 -57 31h-24l4 36zM337 417c-41 0 -82 -28 -115 -78c-38 -58 -69 -154 -69 -212c0 -53 35 -92 84 -92c53 0 93 34 128 109c30 62 47 130 47 185c0 53 -30 88 -75 88z" />
    <glyph glyph-name="q" unicode="q" horiz-adv-x="556" 
d="M499 470l-166 -560c-6 -21 -11 -42 -11 -50c0 -20 16 -26 64 -26h8l-4 -36h-246l4 36c77 2 78 3 98 76l43 145c-46 -48 -87 -69 -138 -69c-90 0 -151 64 -151 159c0 169 130 325 271 325c52 0 95 -23 128 -69l61 69h39zM276 431c-48 0 -98 -41 -135 -112
c-27 -51 -46 -127 -46 -181c0 -62 32 -104 78 -104c54 0 104 43 139 119c25 53 44 134 44 183c0 56 -33 95 -80 95z" />
    <glyph glyph-name="r" unicode="r" horiz-adv-x="444" 
d="M224 470l-23 -116c53 83 97 116 153 116c46 0 79 -31 79 -74c0 -37 -25 -64 -59 -64c-30 0 -47 16 -47 43s-4 34 -18 34c-46 0 -129 -126 -166 -251l-47 -158h-87l102 344c6 19 10 40 10 47c0 19 -18 28 -58 28h-24l4 36z" />
    <glyph glyph-name="s" unicode="s" horiz-adv-x="444" 
d="M244 470c87 0 148 -43 148 -104c0 -36 -23 -61 -57 -61c-31 0 -52 19 -52 46c0 15 2 20 16 40c3 5 5 10 5 14c0 16 -26 27 -65 27c-58 0 -102 -34 -102 -80c0 -39 17 -55 82 -78c55 -20 65 -24 87 -39c32 -22 50 -56 50 -96c0 -91 -79 -154 -194 -154
c-101 0 -163 43 -163 113c0 39 25 67 58 67c29 0 51 -22 51 -50c0 -18 -2 -23 -21 -43c-4 -4 -7 -10 -7 -15c0 -20 36 -34 87 -34c69 0 114 34 114 88c0 35 -14 49 -71 72c-42 17 -62 26 -78 34c-44 23 -69 59 -69 102c0 87 76 151 181 151z" />
    <glyph glyph-name="t" unicode="t" horiz-adv-x="352" 
d="M269 621l-49 -166h109l-14 -47h-109l-95 -319c-2 -8 -3 -15 -3 -23c0 -17 9 -28 23 -28c33 0 61 27 124 122l30 -20c-26 -42 -36 -58 -50 -77c-35 -47 -91 -78 -138 -78c-41 0 -72 33 -72 76c0 23 4 44 19 95l75 252h-94l14 47h94l49 166h87z" />
    <glyph glyph-name="u" unicode="u" horiz-adv-x="611" 
d="M509 455l-99 -332c-8 -29 -12 -48 -12 -59c0 -13 9 -24 18 -24c22 0 61 40 110 113l30 -18c-71 -109 -120 -150 -181 -150c-37 0 -64 27 -64 66c0 19 2 33 12 68c-59 -92 -116 -133 -186 -133c-57 0 -95 37 -95 92c0 31 0 31 31 131l40 135c5 19 8 33 8 43
c0 23 -15 32 -56 32h-24l3 36l193 15l-98 -328c-8 -28 -11 -44 -11 -57c0 -24 19 -43 43 -43c71 0 163 114 204 253l47 160h87z" />
    <glyph glyph-name="v" unicode="v" horiz-adv-x="519" 
d="M222 470l-68 -231c-16 -53 -23 -93 -23 -125c0 -44 28 -77 66 -77c51 0 107 50 146 131c26 54 44 114 44 149c0 22 -4 30 -28 56c-16 18 -21 30 -21 47c0 28 20 50 45 50c35 0 62 -35 62 -79c0 -78 -37 -196 -87 -277c-54 -86 -116 -130 -185 -130
c-73 0 -128 57 -128 131c0 31 7 73 19 114l34 115c6 18 10 38 10 46c0 20 -18 29 -57 29h-17l3 36z" />
    <glyph glyph-name="w" unicode="w" horiz-adv-x="778" 
d="M225 470l-87 -293c-19 -66 -20 -69 -20 -91c0 -27 22 -48 52 -48c34 0 68 24 104 75c40 55 70 114 87 175l50 167h87l-65 -216c-17 -58 -23 -93 -23 -129c0 -45 21 -72 55 -72c47 0 95 44 139 128c26 51 45 114 45 152c0 21 -4 29 -28 56c-16 18 -21 29 -21 46
c0 28 20 50 46 50c35 0 62 -34 62 -79c0 -82 -40 -205 -95 -289c-53 -82 -106 -117 -174 -117c-66 0 -108 42 -108 108c0 11 1 26 2 41c-36 -54 -51 -72 -76 -97c-34 -34 -74 -52 -118 -52c-65 0 -107 38 -107 97c0 21 5 45 17 85l52 177c5 17 8 33 8 43c0 23 -15 32 -56 32
h-17l4 36z" />
    <glyph glyph-name="x" unicode="x" horiz-adv-x="500" 
d="M201 155l-30 -54c-43 -76 -90 -116 -138 -116c-40 0 -66 24 -66 62c0 34 21 58 51 58c25 0 38 -12 43 -39c2 -13 7 -20 15 -20c17 0 41 27 69 79l45 80l-12 58c-20 99 -20 99 -29 115c-4 9 -14 15 -21 15c-18 0 -29 -12 -82 -88l-29 21c45 66 59 85 75 103
c25 28 47 41 69 41c41 0 63 -33 80 -119l11 -55l29 52c34 63 35 63 55 85c21 23 51 37 78 37c33 0 57 -26 57 -61c0 -33 -19 -54 -50 -54c-18 0 -25 5 -34 25c-4 9 -9 13 -17 13c-18 0 -39 -21 -63 -67l-44 -81l19 -95c18 -82 28 -104 51 -104c18 0 35 15 64 54
c15 21 18 26 28 42l31 -17c-27 -48 -30 -51 -47 -72c-46 -56 -64 -68 -101 -68c-50 0 -75 28 -92 103z" />
    <glyph glyph-name="y" unicode="y" horiz-adv-x="500" 
d="M220 315l44 -211c65 103 104 197 104 248c0 14 0 17 -6 51c-1 6 -2 11 -2 17c0 27 22 50 49 50s45 -20 45 -51c0 -35 -12 -65 -68 -175c-75 -145 -155 -278 -202 -338c-59 -74 -113 -108 -171 -108c-52 0 -92 33 -92 74c0 31 23 54 52 54c19 0 36 -12 43 -31
c3 -8 3 -8 3 -39c0 -10 7 -16 19 -16c27 0 66 28 106 77c17 22 24 32 57 84c-22 125 -41 213 -71 325c-11 42 -24 63 -38 63c-17 0 -27 -14 -65 -96l-31 14c42 108 86 163 130 163c43 0 71 -46 94 -155z" />
    <glyph glyph-name="z" unicode="z" horiz-adv-x="463" 
d="M353 151l35 -12c-31 -94 -94 -154 -162 -154c-35 0 -72 10 -119 32c-61 30 -65 31 -77 31c-9 0 -9 -1 -9 -17c0 -29 -11 -46 -30 -46c-15 0 -24 9 -24 24c0 30 26 77 72 128c57 63 80 80 227 171c38 24 49 34 74 60c-24 -6 -37 -8 -51 -8c-31 0 -38 1 -92 20
c-25 8 -50 14 -60 14c-25 0 -51 -25 -82 -79l-33 16c48 94 101 139 165 139c23 0 39 -5 84 -28c31 -15 55 -23 72 -23c15 0 20 5 26 26c5 17 13 25 24 25c14 0 24 -10 24 -23c0 -26 -32 -81 -79 -134c-49 -56 -88 -87 -167 -132c-80 -47 -98 -59 -121 -89c24 7 35 9 49 9
c28 0 40 -3 101 -24c27 -10 53 -16 67 -16c33 0 59 28 86 90z" />
    <glyph glyph-name="braceleft" unicode="{" horiz-adv-x="333" 
d="M56 293l7 28c65 19 87 46 107 133l32 118c29 111 68 145 169 150h10l-8 -29c-55 -5 -81 -38 -106 -133l-35 -128c-22 -78 -48 -109 -108 -125c37 -14 52 -34 52 -65c0 -15 -3 -31 -13 -67l-29 -111c-10 -37 -15 -64 -15 -84c0 -36 18 -57 50 -59l-8 -29h-21
c-55 0 -88 32 -88 87c0 26 4 48 17 95l23 88c12 44 13 49 13 69c0 30 -16 50 -49 62z" />
    <glyph glyph-name="bar" unicode="|" horiz-adv-x="606" 
d="M337 722v-966h-68v966h68z" />
    <glyph glyph-name="braceright" unicode="}" horiz-adv-x="333" 
d="M227 321l-8 -28c-64 -18 -87 -46 -108 -133l-31 -118c-29 -111 -68 -146 -170 -150h-8l8 29c54 5 80 37 105 133l35 128c21 78 48 109 107 125c-36 14 -51 33 -51 65c0 15 3 33 12 67l30 111c11 38 15 64 15 84c0 35 -19 57 -50 59l8 29h21c53 0 89 -33 89 -83
c0 -24 -5 -52 -18 -99l-23 -88c-12 -44 -13 -50 -13 -69c0 -31 18 -53 50 -62z" />
    <glyph glyph-name="asciitilde" unicode="~" horiz-adv-x="606" 
d="M94 182l-53 38c37 65 92 107 140 107c26 0 45 -6 99 -32l46 -22c56 -27 60 -28 80 -28c28 0 59 23 86 65l53 -38c-37 -65 -92 -107 -140 -107c-26 0 -49 8 -99 31l-46 23c-58 27 -60 28 -80 28c-28 0 -58 -23 -86 -65z" />
    <glyph glyph-name="uni00A0" unicode="&#xa0;" horiz-adv-x="278" 
 />
    <glyph glyph-name="exclamdown" unicode="&#xa1;" horiz-adv-x="333" 
d="M169 351l36 -9c-49 -184 -70 -302 -79 -434c-5 -70 -33 -111 -73 -111c-36 0 -60 23 -60 58c0 29 1 32 50 136c48 105 81 199 126 360zM219 549c33 0 61 -28 61 -62s-28 -62 -62 -62s-62 28 -62 62c0 35 27 62 63 62z" />
    <glyph glyph-name="cent" unicode="&#xa2;" horiz-adv-x="556" 
d="M222 -14l-54 -121h-43l57 127c-75 22 -121 89 -121 175c0 161 127 302 271 302c19 0 34 -3 56 -12l55 124h43l-64 -145c24 -22 35 -44 35 -73c0 -43 -27 -74 -66 -74c-13 0 -21 2 -30 9l-117 -263c65 7 97 28 153 100l31 -22c-58 -86 -131 -131 -206 -127zM205 46
l139 311c8 19 16 26 34 30c13 3 15 4 15 13c0 17 -30 32 -64 32c-52 0 -92 -34 -128 -106c-30 -60 -45 -116 -45 -170c0 -53 16 -90 49 -110z" />
    <glyph glyph-name="sterling" unicode="&#xa3;" horiz-adv-x="556" 
d="M410 368l-5 -43h-132c1 -69 -17 -148 -51 -220c49 -25 86 -36 128 -36c59 0 100 24 137 81l35 -14c-42 -104 -101 -151 -188 -151c-51 0 -83 13 -148 60c-40 -45 -67 -60 -110 -60c-49 0 -84 33 -84 80c0 48 38 85 87 85c25 0 53 -6 90 -21c11 34 15 56 15 93
c0 31 -2 54 -8 103h-126l5 43h117c-2 27 -2 40 -2 56c0 77 17 139 50 186c42 59 109 94 180 94c85 0 145 -49 145 -119c0 -53 -29 -88 -71 -88c-33 0 -56 22 -56 53c0 22 9 37 30 53c20 15 22 17 22 27c0 22 -24 36 -60 36c-59 0 -106 -43 -124 -113
c-8 -30 -13 -83 -13 -139c0 -9 0 -26 1 -46h136zM149 75c-29 24 -50 34 -73 34c-26 0 -45 -19 -45 -44c0 -26 19 -43 47 -43c31 0 54 17 71 53z" />
    <glyph glyph-name="currency" unicode="&#xa4;" horiz-adv-x="556" 
d="M425 545l54 53l51 -52l-53 -52c34 -44 52 -97 52 -152c0 -53 -17 -103 -50 -147l51 -50l-51 -52l-51 51c-44 -33 -94 -50 -147 -50c-54 0 -106 18 -151 52l-53 -53l-52 52l53 53c-34 45 -52 97 -52 151c0 52 18 106 50 147l-51 50l52 52l50 -51c44 33 94 50 147 50
c54 0 106 -18 151 -52zM278 515c-93 0 -169 -76 -169 -169s76 -170 167 -170c96 0 171 75 171 170c0 93 -76 169 -169 169z" />
    <glyph glyph-name="yen" unicode="&#xa5;" horiz-adv-x="556" 
d="M353 368h120l-5 -43h-146l-1 -2l-21 -78h146l-5 -43h-152l-22 -79c-5 -20 -9 -41 -9 -49c0 -22 15 -27 79 -27h27l-5 -47h-317l5 47h13c53 1 74 4 83 14c9 9 11 13 23 62l22 79h-148l5 43h154l21 78l-1 2h-146l5 43h126l-80 220c-20 51 -40 68 -80 69h-4l5 47h256l-5 -47
h-14c-45 0 -62 -7 -62 -24c0 -9 0 -10 11 -38l76 -216l128 185c21 30 26 40 26 55c0 23 -25 38 -65 38h-9l5 47h231l-5 -47c-61 -13 -77 -26 -139 -111z" />
    <glyph glyph-name="brokenbar" unicode="&#xa6;" horiz-adv-x="606" 
d="M337 722v-322h-68v322h68zM337 322v-322h-68v322h68z" />
    <glyph glyph-name="section" unicode="&#xa7;" horiz-adv-x="500" 
d="M325 463l57 -75c37 -49 54 -89 54 -130c0 -76 -59 -134 -135 -134c-17 0 -27 2 -48 7c39 -65 51 -97 51 -138c0 -83 -68 -143 -161 -143c-89 0 -154 50 -154 118c0 37 24 63 58 63c33 0 55 -22 55 -54c0 -18 -6 -31 -21 -46c-8 -7 -9 -10 -9 -15c0 -18 32 -34 67 -34
c49 0 81 34 81 85c0 44 -14 73 -73 150l-61 78c-39 51 -55 91 -55 136c0 75 60 132 138 132c17 0 28 -2 49 -9c-42 61 -55 94 -55 139c0 88 65 144 166 144c87 0 151 -50 151 -117c0 -38 -23 -64 -56 -64s-58 23 -58 54c0 23 6 33 32 54c3 3 5 6 5 9c0 17 -33 32 -68 32
c-56 0 -91 -33 -91 -85c0 -39 19 -76 81 -157zM134 290l48 -66c39 -54 57 -67 95 -67c46 0 83 33 83 73c0 26 -13 58 -38 91l-42 56c-25 33 -61 53 -96 53c-45 0 -76 -29 -76 -72c0 -21 9 -46 26 -68z" />
    <glyph glyph-name="dieresis" unicode="&#xa8;" horiz-adv-x="333" 
d="M220 644c27 0 49 -22 49 -49s-22 -49 -49 -49s-49 22 -49 49s22 49 49 49zM422 644c27 0 49 -22 49 -49s-22 -49 -49 -49s-49 22 -49 49s22 49 49 49z" />
    <glyph glyph-name="copyright" unicode="&#xa9;" horiz-adv-x="747" 
d="M517 541l9 -169h-35c-25 94 -60 135 -117 135c-68 0 -104 -60 -104 -177c0 -110 35 -163 110 -163c65 0 102 39 116 120l38 -6c-14 -99 -69 -152 -160 -152c-109 0 -188 85 -188 203s84 213 188 213c36 0 55 -7 93 -33l20 29h30zM374 685c193 0 350 -157 350 -349
c0 -196 -156 -351 -354 -351c-189 0 -346 159 -346 350c0 193 157 350 350 350zM374 642c-168 0 -304 -137 -304 -307c0 -168 137 -307 300 -307c172 0 308 136 308 307c0 170 -136 307 -304 307z" />
    <glyph glyph-name="ordfeminine" unicode="&#xaa;" horiz-adv-x="422" 
d="M340 722h56l-65 -200c-5 -16 -7 -25 -7 -32c0 -9 6 -15 14 -15c16 0 34 18 65 70l19 -10c-30 -60 -68 -93 -107 -93c-24 0 -40 16 -40 39c0 6 1 10 3 19c-33 -43 -58 -58 -99 -58c-58 0 -96 39 -96 97c0 98 77 192 158 192c44 0 76 -25 81 -63zM254 698
c-20 0 -38 -7 -52 -21c-35 -32 -60 -94 -60 -146c0 -37 20 -59 52 -59s56 17 76 54c19 36 33 85 33 119c0 33 -19 53 -49 53z" />
    <glyph glyph-name="guillemotleft" unicode="&#xab;" horiz-adv-x="426" 
d="M264 138l-36 47c-28 36 -32 41 -45 58c104 80 157 121 186 144c14 11 20 15 24 15c5 0 9 -6 9 -13c0 -9 0 -9 -61 -72l-78 -84l61 -119c1 -3 2 -7 2 -12c0 -10 -7 -17 -16 -17c-5 0 -10 4 -18 15c-5 8 -16 22 -28 38zM-15 243l25 19l52 40c80 62 89 69 109 85
c14 11 20 15 25 15c4 0 8 -6 8 -13c0 -9 0 -9 -61 -72l-78 -84l61 -119c1 -3 2 -7 2 -12c0 -10 -7 -17 -16 -17c-5 0 -10 4 -18 15c-4 6 -15 21 -28 38l-36 47c-21 28 -36 47 -45 58z" />
    <glyph glyph-name="logicalnot" unicode="&#xac;" horiz-adv-x="606" 
d="M41 293h504v-293h-80v213h-424v80z" />
    <glyph glyph-name="uni00AD" unicode="&#xad;" horiz-adv-x="333" 
d="M54 278h205l-22 -83h-205z" />
    <glyph glyph-name="registered" unicode="&#xae;" horiz-adv-x="747" 
d="M321 339v-116c0 -25 0 -26 2 -29s14 -5 40 -5h16v-38h-189v38h16c25 0 38 2 40 5s2 3 2 29v256v18c1 14 -2 15 -42 16h-16v38h192c94 0 148 -37 148 -102c0 -52 -28 -80 -95 -98c31 -16 44 -34 55 -79l9 -34c10 -38 12 -41 21 -41c10 0 15 18 16 53h35v-11
c0 -62 -26 -96 -72 -96c-47 0 -68 26 -75 92l-3 27c-6 56 -25 75 -75 77h-25zM321 377h52c53 0 78 22 78 71c0 47 -20 65 -70 65h-30h-13c-17 0 -17 -1 -17 -25v-111zM373 685c193 0 350 -157 350 -349c0 -196 -156 -351 -354 -351c-189 0 -346 159 -346 350
c0 193 157 350 350 350zM373 642c-168 0 -304 -137 -304 -307c0 -167 137 -307 300 -307c172 0 308 136 308 308c0 168 -137 306 -304 306z" />
    <glyph glyph-name="macron" unicode="&#xaf;" horiz-adv-x="333" 
d="M181 610h301l-11 -51h-301z" />
    <glyph glyph-name="degree" unicode="&#xb0;" horiz-adv-x="400" 
d="M224 686c82 0 146 -67 146 -153s-66 -153 -150 -153s-150 67 -150 154c0 85 67 152 154 152zM222 629c-54 0 -96 -42 -96 -97c0 -52 42 -95 94 -95s93 42 93 96c0 53 -41 96 -91 96z" />
    <glyph glyph-name="plusminus" unicode="&#xb1;" horiz-adv-x="606" 
d="M249 288h-212v80h212v213h80v-213h211v-80h-211v-175h-80v175zM37 0v80h503v-80h-503z" />
    <glyph glyph-name="uni00B2" unicode="&#xb2;" horiz-adv-x="333" 
d="M280 288h-280c5 37 29 61 203 200c56 45 77 77 77 120c0 40 -29 66 -73 66c-40 0 -86 -27 -86 -50c0 -6 2 -8 16 -15c21 -11 30 -22 30 -39c0 -23 -19 -41 -44 -41c-32 0 -52 22 -52 58c0 66 71 123 154 123c76 0 128 -43 128 -107c0 -47 -21 -83 -73 -120
c-17 -12 -19 -14 -108 -71c-46 -29 -74 -51 -89 -67h142c31 1 35 4 59 43l18 30l29 -11z" />
    <glyph glyph-name="uni00B3" unicode="&#xb3;" horiz-adv-x="333" 
d="M231 506c45 -14 70 -44 70 -85c0 -81 -75 -142 -174 -142c-78 0 -126 37 -126 96c0 33 19 54 48 54c25 0 44 -18 44 -40c0 -17 -9 -28 -28 -36c-9 -4 -11 -6 -11 -10c0 -17 30 -32 64 -32c65 0 108 48 108 121c0 35 -20 58 -49 58c-6 0 -15 -1 -24 -2
c-5 -1 -10 -1 -13 -1c-14 0 -22 7 -22 18c0 12 9 20 25 20c1 0 2 0 22 -1c7 -1 13 -1 14 -1c42 0 82 48 82 98c0 36 -24 56 -66 56c-28 0 -59 -14 -59 -26c0 -3 2 -6 8 -11c10 -10 14 -18 14 -29c0 -21 -17 -37 -39 -37c-25 0 -43 18 -43 44c0 50 59 92 130 92
c74 0 125 -40 125 -97c0 -34 -20 -68 -51 -87c-14 -8 -25 -13 -49 -20z" />
    <glyph glyph-name="acute" unicode="&#xb4;" horiz-adv-x="333" 
d="M187 519l138 140c24 23 35 30 50 30c20 0 35 -15 35 -35c0 -14 -10 -29 -25 -39l-159 -96h-39z" />
    <glyph glyph-name="mu" unicode="&#xb5;" horiz-adv-x="611" 
d="M41 419l3 36l193 15l-98 -328c-8 -27 -11 -44 -11 -58c0 -23 19 -42 43 -42c71 0 162 114 204 253l47 160h87l-99 -332c-8 -29 -12 -47 -12 -59c0 -13 9 -24 18 -24c21 0 60 39 110 113l30 -18c-70 -108 -120 -150 -181 -150c-37 0 -64 27 -64 65c0 20 2 33 12 69
c-59 -91 -116 -133 -184 -133c-38 0 -61 14 -79 46c-11 -36 -11 -40 -12 -80c-2 -71 -4 -85 -17 -116c-14 -31 -43 -55 -68 -55c-19 0 -33 16 -33 39c0 30 7 48 52 124c17 30 29 57 35 76l96 324c5 18 8 33 8 43c0 23 -15 32 -56 32h-24z" />
    <glyph glyph-name="paragraph" unicode="&#xb6;" horiz-adv-x="650" 
d="M279 324h-33c-102 0 -151 43 -151 130c0 81 40 170 98 218c32 27 71 42 122 48c15 2 15 2 76 2h254l-3 -36c-38 -2 -52 -5 -62 -14c-6 -5 -9 -11 -13 -26l-3 -8c-3 -13 -6 -26 -10 -39l-166 -620c-15 -57 -15 -57 -15 -65c0 -15 10 -19 57 -22l-3 -36h-339l3 36h5
c38 2 58 6 65 14c6 6 9 12 13 26c1 4 3 11 6 24l7 23zM288 357l88 329c-66 2 -101 -32 -125 -123l-22 -83c-6 -22 -10 -48 -10 -64c0 -37 18 -59 49 -59h20zM512 686h-71l-212 -793h71z" />
    <glyph glyph-name="periodcentered" unicode="&#xb7;" horiz-adv-x="278" 
d="M139 307c34 0 62 -27 62 -62s-27 -62 -63 -62c-33 0 -61 28 -61 62s28 62 62 62z" />
    <glyph glyph-name="cedilla" unicode="&#xb8;" horiz-adv-x="333" 
d="M142 0l-38 -64c14 2 20 3 29 3c49 0 82 -27 82 -68c0 -53 -49 -87 -124 -87c-33 0 -60 5 -88 17l18 33c24 -8 42 -12 62 -12c34 0 56 16 56 40s-19 39 -48 39c-10 0 -20 -2 -33 -6l-9 6l58 99h35z" />
    <glyph glyph-name="uni00B9" unicode="&#xb9;" horiz-adv-x="333" 
d="M309 712l-100 -349c-6 -24 -6 -24 -6 -28c0 -11 7 -13 47 -13h38l-5 -34h-240l4 34h31c31 0 45 2 50 7s5 5 13 35l68 237l4 13c1 5 2 9 2 13c0 7 -3 8 -39 8h-48l9 32c47 0 114 20 148 45h24z" />
    <glyph glyph-name="ordmasculine" unicode="&#xba;" horiz-adv-x="372" 
d="M257 731c63 0 115 -51 115 -112c0 -45 -21 -93 -55 -128c-33 -34 -71 -49 -121 -49c-71 0 -113 42 -113 112c0 95 81 177 174 177zM254 708c-25 0 -45 -10 -63 -32c-27 -32 -49 -99 -49 -148c0 -41 20 -63 58 -63s65 23 87 74c15 33 23 68 23 99c0 44 -21 70 -56 70z" />
    <glyph glyph-name="guillemotright" unicode="&#xbb;" horiz-adv-x="426" 
d="M202 243l-25 -19l-52 -39c-20 -16 -40 -31 -61 -47c-22 -17 -46 -36 -48 -38c-14 -11 -20 -15 -24 -15c-5 0 -9 6 -9 12c0 10 0 10 60 73l79 84l-61 119c-1 3 -2 7 -2 12c0 10 7 17 16 17c5 0 10 -4 18 -15c8 -12 18 -25 28 -38l36 -47c21 -28 36 -48 45 -59zM319 349
l36 -47c10 -13 20 -26 30 -40c5 -6 10 -12 15 -19c-123 -93 -131 -100 -186 -143c-14 -11 -20 -15 -24 -15c-5 0 -9 6 -9 12c0 10 0 10 60 73l79 84l-61 119c-1 3 -2 7 -2 13c0 8 7 16 16 16c5 0 10 -4 18 -15z" />
    <glyph glyph-name="onequarter" unicode="&#xbc;" horiz-adv-x="834" 
d="M606 708h54l-383 -708h-54zM833 424l-79 -276h71l-10 -39h-72l-10 -34c-6 -23 -6 -23 -6 -28c0 -10 8 -12 47 -12h15l-4 -35h-202l4 35h15c31 0 45 2 50 7c3 3 5 6 7 14c1 2 2 6 4 11l2 10l10 32h-177v30l295 285h40zM686 148l49 173l-180 -173h131zM299 712l-100 -349
c-6 -24 -6 -24 -6 -28c0 -11 7 -13 47 -13h38l-5 -34h-240l4 34h31c31 0 45 2 50 7s5 5 13 35l68 237l4 13c1 5 2 9 2 13c0 7 -3 8 -39 8h-48l9 32c47 0 114 20 148 45h24z" />
    <glyph glyph-name="onehalf" unicode="&#xbd;" horiz-adv-x="834" 
d="M599 708h54l-383 -708h-54zM299 712l-100 -349c-6 -24 -6 -24 -6 -28c0 -11 7 -13 47 -13h38l-5 -34h-240l4 34h31c31 0 45 2 50 7s5 5 13 35l68 237l4 13c1 5 2 9 2 13c0 7 -3 8 -39 8h-48l9 32c47 0 114 20 148 45h24zM771 0h-280c5 37 29 61 203 200
c56 45 77 77 77 121c0 39 -29 65 -73 65c-40 0 -86 -27 -86 -50c0 -6 2 -8 16 -15c21 -11 30 -22 30 -39c0 -23 -19 -41 -44 -41c-32 0 -52 22 -52 58c0 66 71 123 154 123c77 0 128 -43 128 -107c0 -47 -21 -82 -73 -120c-17 -12 -19 -14 -108 -71c-45 -28 -75 -51 -89 -67
h142c31 1 35 3 59 43l18 30l29 -11z" />
    <glyph glyph-name="threequarters" unicode="&#xbe;" horiz-adv-x="834" 
d="M618 708h54l-383 -708h-54zM833 424l-79 -276h71l-10 -39h-72l-10 -34c-6 -23 -6 -23 -6 -28c0 -10 8 -12 47 -12h15l-4 -35h-202l4 35h15c31 0 45 2 50 7s5 5 13 35l10 32h-177v30l295 285h40zM686 148l49 173l-180 -173h131zM231 506c45 -14 70 -44 70 -85
c0 -81 -75 -142 -174 -142c-78 0 -126 37 -126 96c0 33 19 54 48 54c25 0 44 -18 44 -40c0 -17 -9 -28 -28 -36c-9 -4 -11 -6 -11 -10c0 -17 30 -32 64 -32c65 0 108 48 108 121c0 35 -20 58 -49 58c-6 0 -15 -1 -24 -2c-5 -1 -10 -1 -13 -1c-14 0 -22 7 -22 18
c0 12 9 20 25 20c1 0 2 0 22 -1c7 -1 13 -1 14 -1c42 0 82 48 82 98c0 36 -24 56 -66 56c-28 0 -59 -14 -59 -26c0 -3 2 -6 8 -11c10 -10 14 -18 14 -29c0 -21 -17 -37 -39 -37c-25 0 -43 18 -43 44c0 50 59 92 130 92c74 0 125 -40 125 -97c0 -34 -20 -68 -51 -87
c-14 -8 -25 -13 -49 -20z" />
    <glyph glyph-name="questiondown" unicode="&#xbf;" horiz-adv-x="444" 
d="M134 223l-36 6c12 63 58 105 115 105c56 0 94 -40 94 -100c0 -71 -42 -129 -159 -218c-57 -44 -78 -74 -78 -113c0 -37 32 -66 75 -66c47 0 88 26 111 70c12 24 16 49 16 100h38c1 -11 1 -18 1 -24c0 -108 -70 -186 -168 -186c-80 0 -136 57 -136 139c0 58 25 103 83 152
c27 24 27 24 100 71c48 31 67 56 67 88c0 31 -17 49 -45 49c-24 0 -47 -12 -60 -30c-7 -10 -10 -18 -18 -43zM262 549c33 0 61 -28 61 -62s-28 -62 -62 -62s-62 28 -62 62c0 35 27 62 63 62z" />
    <glyph glyph-name="Agrave" unicode="&#xc0;" horiz-adv-x="704" 
d="M442 737l125 -629c11 -53 20 -61 76 -61h25l-6 -47h-300l5 47h16c57 0 72 7 72 35c0 8 -1 21 -4 33l-23 123h-255l-55 -96c-12 -21 -18 -40 -18 -55c0 -30 17 -40 69 -40h24l-6 -47h-269l5 47c54 0 95 33 148 121l330 569h41zM420 285l-57 287l-163 -287h220zM462 774
h-40l-135 107c-9 8 -15 17 -15 25c0 21 18 40 39 40c15 0 20 -3 39 -28z" />
    <glyph glyph-name="Aacute" unicode="&#xc1;" horiz-adv-x="704" 
d="M442 737l125 -629c11 -53 20 -61 76 -61h25l-6 -47h-300l5 47h16c57 0 72 7 72 35c0 8 -1 21 -4 33l-23 123h-255l-55 -96c-12 -21 -18 -40 -18 -55c0 -30 17 -40 69 -40h24l-6 -47h-269l5 47c54 0 95 33 148 121l330 569h41zM420 285l-57 287l-163 -287h220zM381 774
l139 143c21 22 34 30 49 30c20 0 35 -15 35 -35c0 -14 -10 -29 -25 -38l-159 -100h-39z" />
    <glyph glyph-name="Acircumflex" unicode="&#xc2;" horiz-adv-x="704" 
d="M442 737l125 -629c11 -53 20 -61 76 -61h25l-6 -47h-300l5 47h16c57 0 72 7 72 35c0 8 -1 21 -4 33l-23 123h-255l-55 -96c-12 -21 -18 -40 -18 -55c0 -30 17 -40 69 -40h24l-6 -47h-269l5 47c54 0 95 33 148 121l330 569h41zM420 285l-57 287l-163 -287h220zM475 940
l91 -166h-36l-86 101l-136 -101h-36l153 166h50z" />
    <glyph glyph-name="Atilde" unicode="&#xc3;" horiz-adv-x="704" 
d="M442 737l125 -629c11 -53 20 -61 76 -61h25l-6 -47h-300l5 47h16c57 0 72 7 72 35c0 8 -1 21 -4 33l-23 123h-255l-55 -96c-12 -21 -18 -40 -18 -55c0 -30 17 -40 69 -40h24l-6 -47h-269l5 47c54 0 95 33 148 121l330 569h41zM420 285l-57 287l-163 -287h220zM568 917h30
c-6 -56 -49 -104 -93 -104c-22 0 -34 3 -86 23c-44 16 -59 20 -74 20c-22 0 -36 -14 -45 -44h-30c12 65 46 104 90 104c18 0 42 -6 100 -26c36 -13 45 -15 59 -15c23 0 37 13 49 42z" />
    <glyph glyph-name="Adieresis" unicode="&#xc4;" horiz-adv-x="704" 
d="M442 737l125 -629c11 -53 20 -61 76 -61h25l-6 -47h-300l5 47h16c57 0 72 7 72 35c0 8 -1 21 -4 33l-23 123h-255l-55 -96c-12 -21 -18 -40 -18 -55c0 -30 17 -40 69 -40h24l-6 -47h-269l5 47c54 0 95 33 148 121l330 569h41zM420 285l-57 287l-163 -287h220zM320 910
c27 0 49 -22 49 -49s-22 -49 -50 -49c-26 0 -48 22 -48 49s22 49 49 49zM522 910c27 0 49 -22 49 -49s-22 -49 -50 -49c-26 0 -48 22 -48 49s22 49 49 49z" />
    <glyph glyph-name="Aring" unicode="&#xc5;" horiz-adv-x="704" 
d="M442 737l125 -629c11 -53 20 -61 76 -61h25l-6 -47h-300l5 47h16c57 0 72 7 72 35c0 8 -1 21 -4 33l-23 123h-255l-55 -96c-12 -21 -18 -40 -18 -55c0 -30 17 -40 69 -40h24l-6 -47h-269l5 47c54 0 95 33 148 121l330 569h41zM420 285l-57 287l-163 -287h220zM431 966
c55 0 100 -45 100 -99c0 -56 -44 -100 -101 -100c-53 0 -98 45 -98 100c0 54 45 99 99 99zM431 930c-35 0 -63 -28 -63 -63s29 -64 63 -64c35 0 64 28 64 64c0 35 -28 63 -64 63z" />
    <glyph glyph-name="AE" unicode="&#xc6;" horiz-adv-x="870" 
d="M831 481h-45v20c1 22 1 38 1 51c0 82 -39 123 -118 123h-27c-54 -2 -61 -8 -77 -70l-55 -204h7c82 0 129 38 157 125l46 -6l-90 -334l-45 8c7 29 9 47 9 70c0 60 -30 90 -90 90h-7l-59 -220c-10 -39 -11 -43 -11 -56c0 -21 20 -31 63 -31h22c120 3 181 45 243 167
c13 25 15 28 22 39l40 -8l-78 -245h-532l6 47h4c53 0 74 4 83 14c9 9 10 11 23 62l42 155h-191l-95 -137c-15 -22 -25 -45 -25 -58c0 -14 10 -25 27 -31c10 -4 20 -5 50 -5l-6 -47h-217l5 47c25 0 45 14 69 46l320 460c28 40 37 60 37 80c0 31 -21 42 -80 42h-27l5 47h633z
M377 325l83 309c6 25 6 25 6 29c0 6 -4 11 -9 11c-6 0 -10 -4 -21 -20l-231 -329h172z" />
    <glyph glyph-name="Ccedilla" unicode="&#xc7;" horiz-adv-x="722" 
d="M321 -15l-29 -49c13 2 19 3 29 3c49 0 82 -28 82 -69c0 -52 -49 -86 -124 -86c-33 0 -60 5 -88 17l18 33c24 -8 42 -12 62 -12c34 0 56 16 56 40s-19 39 -48 39c-10 0 -20 -2 -34 -6l-8 6l50 87c-157 23 -247 129 -247 292c0 111 38 215 111 305c81 100 181 152 291 152
c76 0 126 -23 175 -80l60 58h36l-56 -280h-41c-3 77 -10 121 -26 158c-27 67 -74 101 -140 101c-70 0 -136 -40 -182 -111c-63 -96 -103 -228 -103 -343c0 -129 69 -206 186 -206c75 0 136 29 185 90c18 22 32 46 57 99l41 -18c-27 -62 -49 -99 -80 -130
c-56 -58 -132 -90 -216 -90h-17z" />
    <glyph glyph-name="Egrave" unicode="&#xc8;" horiz-adv-x="722" 
d="M701 722l-39 -241h-45v34c0 71 -9 102 -37 127c-25 22 -59 33 -102 33h-58c-76 -1 -84 -6 -100 -69l-55 -205h23c100 2 147 34 178 125l45 -6l-89 -334l-45 8c7 32 9 47 9 68c0 62 -36 91 -111 92h-22l-59 -220c-10 -38 -11 -43 -11 -55c0 -24 18 -32 70 -32h54
c143 2 211 49 294 206l41 -8l-78 -245h-601l5 47h5c52 0 73 4 83 14c9 9 10 13 23 62l128 476c5 21 9 41 9 49c0 22 -14 27 -79 27h-26l6 47h584zM507 774h-41l-134 107c-9 7 -15 17 -15 26c0 20 18 39 39 39c15 0 20 -3 38 -28z" />
    <glyph glyph-name="Eacute" unicode="&#xc9;" horiz-adv-x="722" 
d="M701 722l-39 -241h-45v34c0 71 -9 102 -37 127c-25 22 -59 33 -102 33h-58c-76 -1 -84 -6 -100 -69l-55 -205h23c100 2 147 34 178 125l45 -6l-89 -334l-45 8c7 32 9 47 9 68c0 62 -36 91 -111 92h-22l-59 -220c-10 -38 -11 -43 -11 -55c0 -24 18 -32 70 -32h54
c143 2 211 49 294 206l41 -8l-78 -245h-601l5 47h5c52 0 73 4 83 14c9 9 10 13 23 62l128 476c5 21 9 41 9 49c0 22 -14 27 -79 27h-26l6 47h584zM389 774l139 143c21 22 35 30 50 30c20 0 35 -15 35 -34c0 -15 -10 -29 -26 -39l-159 -100h-39z" />
    <glyph glyph-name="Ecircumflex" unicode="&#xca;" horiz-adv-x="722" 
d="M701 722l-39 -241h-45v34c0 71 -9 102 -37 127c-25 22 -59 33 -102 33h-58c-76 -1 -84 -6 -100 -69l-55 -205h23c100 2 147 34 178 125l45 -6l-89 -334l-45 8c7 32 9 47 9 68c0 62 -36 91 -111 92h-22l-59 -220c-10 -38 -11 -43 -11 -55c0 -24 18 -32 70 -32h54
c143 2 211 49 294 206l41 -8l-78 -245h-601l5 47h5c52 0 73 4 83 14c9 9 10 13 23 62l128 476c5 21 9 41 9 49c0 22 -14 27 -79 27h-26l6 47h584zM504 940l91 -166h-36l-86 101l-136 -101h-36l153 166h50z" />
    <glyph glyph-name="Edieresis" unicode="&#xcb;" horiz-adv-x="722" 
d="M701 722l-39 -241h-45v34c0 71 -9 102 -37 127c-25 22 -59 33 -102 33h-58c-76 -1 -84 -6 -100 -69l-55 -205h23c100 2 147 34 178 125l45 -6l-89 -334l-45 8c7 32 9 47 9 68c0 62 -36 91 -111 92h-22l-59 -220c-10 -38 -11 -43 -11 -55c0 -24 18 -32 70 -32h54
c143 2 211 49 294 206l41 -8l-78 -245h-601l5 47h5c52 0 73 4 83 14c9 9 10 13 23 62l128 476c5 21 9 41 9 49c0 22 -14 27 -79 27h-26l6 47h584zM356 910c27 0 49 -22 49 -49s-22 -49 -50 -49c-26 0 -48 22 -48 49s22 49 49 49zM558 910c27 0 49 -22 49 -49
s-22 -49 -50 -49c-26 0 -48 22 -48 49s22 49 49 49z" />
    <glyph glyph-name="Igrave" unicode="&#xcc;" horiz-adv-x="407" 
d="M283 47l-6 -47h-310l5 47c59 1 72 3 84 14c9 9 10 12 23 62l128 476c8 29 10 41 10 49c0 22 -14 27 -80 27h-22l6 47h310l-5 -47c-59 -1 -72 -3 -84 -14c-9 -9 -9 -10 -23 -62l-128 -476c-9 -36 -10 -39 -10 -48c0 -23 14 -28 80 -28h22zM369 774h-40l-134 107
c-10 8 -16 17 -16 26c0 20 18 39 39 39c15 0 20 -4 39 -28z" />
    <glyph glyph-name="Iacute" unicode="&#xcd;" horiz-adv-x="407" 
d="M283 47l-6 -47h-310l5 47c59 1 72 3 84 14c9 9 10 12 23 62l128 476c8 29 10 41 10 49c0 22 -14 27 -80 27h-22l6 47h310l-5 -47c-59 -1 -72 -3 -84 -14c-9 -9 -9 -10 -23 -62l-128 -476c-9 -36 -10 -39 -10 -48c0 -23 14 -28 80 -28h22zM185 774l138 143
c22 22 35 30 50 30c20 0 35 -15 35 -34c0 -15 -10 -29 -25 -39l-159 -100h-39z" />
    <glyph glyph-name="Icircumflex" unicode="&#xce;" horiz-adv-x="407" 
d="M283 47l-6 -47h-310l5 47c59 1 72 3 84 14c9 9 10 12 23 62l128 476c8 29 10 41 10 49c0 22 -14 27 -80 27h-22l6 47h310l-5 -47c-59 -1 -72 -3 -84 -14c-9 -9 -9 -10 -23 -62l-128 -476c-9 -36 -10 -39 -10 -48c0 -23 14 -28 80 -28h22zM340 940l91 -166h-36l-86 101
l-136 -101h-36l153 166h50z" />
    <glyph glyph-name="Idieresis" unicode="&#xcf;" horiz-adv-x="407" 
d="M283 47l-6 -47h-310l5 47c59 1 72 3 84 14c9 9 10 12 23 62l128 476c8 29 10 41 10 49c0 22 -14 27 -80 27h-22l6 47h310l-5 -47c-59 -1 -72 -3 -84 -14c-9 -9 -9 -10 -23 -62l-128 -476c-9 -36 -10 -39 -10 -48c0 -23 14 -28 80 -28h22zM195 910c27 0 49 -22 49 -49
s-22 -49 -50 -49c-26 0 -48 22 -48 49s22 49 49 49zM397 910c27 0 49 -22 49 -49s-22 -49 -50 -49c-26 0 -48 22 -48 49s22 49 49 49z" />
    <glyph glyph-name="Eth" unicode="&#xd0;" horiz-adv-x="778" 
d="M138 354h-102l12 47h103l55 198c5 19 9 41 9 49c0 22 -14 27 -79 27h-26l6 47h290c112 0 175 -14 225 -52c67 -50 104 -133 104 -235c0 -134 -68 -273 -175 -358c-68 -53 -156 -77 -289 -77h-309l5 47h5c52 1 73 4 83 14c9 9 10 12 23 62zM250 354l-63 -244
c-4 -13 -6 -26 -6 -35c0 -18 16 -28 46 -28h32c96 0 161 18 205 57c82 73 149 243 149 376c0 64 -18 121 -48 151c-28 28 -79 44 -139 44h-30c-52 0 -61 -8 -76 -65l-57 -209h198l-12 -47h-199z" />
    <glyph glyph-name="Ntilde" unicode="&#xd1;" horiz-adv-x="815" 
d="M315 722l253 -552l90 335c22 89 23 93 23 115c0 37 -29 55 -90 55l6 47h262l-5 -47c-84 -3 -104 -26 -142 -170l-139 -519h-39l-278 601l-99 -370c-23 -89 -24 -93 -24 -115c0 -37 29 -55 90 -55h11l-6 -47h-276l5 47c87 2 106 24 145 170l114 426c-8 27 -16 32 -65 32
h-52l5 47h211zM647 917h30c-7 -58 -49 -104 -94 -104c-21 0 -31 3 -85 23c-46 16 -60 20 -74 20c-22 0 -36 -14 -45 -44h-30c11 65 45 104 90 104c18 0 42 -6 100 -26c36 -13 45 -15 59 -15c22 0 37 13 49 42z" />
    <glyph glyph-name="Ograve" unicode="&#xd2;" horiz-adv-x="778" 
d="M457 737c76 0 147 -28 199 -79c53 -53 79 -121 79 -208c0 -128 -53 -254 -145 -346c-80 -79 -173 -119 -278 -119c-167 0 -272 112 -272 290c0 122 46 239 128 327c85 90 181 135 289 135zM460 694c-69 0 -127 -32 -179 -100c-65 -84 -123 -266 -123 -386
c0 -111 60 -180 156 -180c78 0 151 43 196 116c62 100 108 249 108 352c0 47 -15 108 -34 138c-21 36 -72 60 -124 60zM555 774h-41l-134 107c-9 7 -15 17 -15 26c0 20 18 39 39 39c15 0 19 -3 38 -28z" />
    <glyph glyph-name="Oacute" unicode="&#xd3;" horiz-adv-x="778" 
d="M457 737c76 0 147 -28 199 -79c53 -53 79 -121 79 -208c0 -128 -53 -254 -145 -346c-80 -79 -173 -119 -278 -119c-167 0 -272 112 -272 290c0 122 46 239 128 327c85 90 181 135 289 135zM460 694c-69 0 -127 -32 -179 -100c-65 -84 -123 -266 -123 -386
c0 -111 60 -180 156 -180c78 0 151 43 196 116c62 100 108 249 108 352c0 47 -15 108 -34 138c-21 36 -72 60 -124 60zM431 774l138 143c21 22 35 30 50 30c20 0 35 -15 35 -34c0 -15 -10 -29 -26 -39l-159 -100h-38z" />
    <glyph glyph-name="Ocircumflex" unicode="&#xd4;" horiz-adv-x="778" 
d="M457 737c76 0 147 -28 199 -79c53 -53 79 -121 79 -208c0 -128 -53 -254 -145 -346c-80 -79 -173 -119 -278 -119c-167 0 -272 112 -272 290c0 122 46 239 128 327c85 90 181 135 289 135zM460 694c-69 0 -127 -32 -179 -100c-65 -84 -123 -266 -123 -386
c0 -111 60 -180 156 -180c78 0 151 43 196 116c62 100 108 249 108 352c0 47 -15 108 -34 138c-21 36 -72 60 -124 60zM538 940l92 -166h-36l-86 101l-137 -101h-35l153 166h49z" />
    <glyph glyph-name="Otilde" unicode="&#xd5;" horiz-adv-x="778" 
d="M457 737c76 0 147 -28 199 -79c53 -53 79 -121 79 -208c0 -128 -53 -254 -145 -346c-80 -79 -173 -119 -278 -119c-167 0 -272 112 -272 290c0 122 46 239 128 327c85 90 181 135 289 135zM460 694c-69 0 -127 -32 -179 -100c-65 -84 -123 -266 -123 -386
c0 -111 60 -180 156 -180c78 0 151 43 196 116c62 100 108 249 108 352c0 47 -15 108 -34 138c-21 36 -72 60 -124 60zM648 917h31c-7 -56 -49 -104 -93 -104c-22 0 -35 3 -87 23c-44 16 -59 20 -74 20c-21 0 -36 -14 -44 -44h-30c11 65 45 104 89 104c18 0 43 -6 100 -26
c36 -13 45 -15 59 -15c23 0 37 12 49 42z" />
    <glyph glyph-name="Odieresis" unicode="&#xd6;" horiz-adv-x="778" 
d="M457 737c76 0 147 -28 199 -79c53 -53 79 -121 79 -208c0 -128 -53 -254 -145 -346c-80 -79 -173 -119 -278 -119c-167 0 -272 112 -272 290c0 122 46 239 128 327c85 90 181 135 289 135zM460 694c-69 0 -127 -32 -179 -100c-65 -84 -123 -266 -123 -386
c0 -111 60 -180 156 -180c78 0 151 43 196 116c62 100 108 249 108 352c0 47 -15 108 -34 138c-21 36 -72 60 -124 60zM404 910c27 0 49 -22 49 -49s-22 -49 -50 -49c-26 0 -48 22 -48 49s22 49 49 49zM606 910c27 0 49 -22 49 -49s-22 -49 -50 -49c-26 0 -48 22 -48 49
s22 49 49 49z" />
    <glyph glyph-name="multiply" unicode="&#xd7;" horiz-adv-x="606" 
d="M288 196l-195 -195l-56 57l194 195l-194 194l56 57l195 -195l195 195l57 -56l-195 -195l195 -196l-57 -56z" />
    <glyph glyph-name="Oslash" unicode="&#xd8;" horiz-adv-x="778" 
d="M624 684l53 66h58l-77 -95c52 -54 77 -119 77 -204c0 -129 -53 -255 -145 -347c-80 -79 -173 -119 -277 -119c-63 0 -116 15 -160 44l-94 -116h-58l118 145c-52 51 -79 127 -79 218c0 245 194 461 413 461c64 0 125 -19 171 -53zM172 125l412 509c-25 38 -71 59 -127 59
c-66 0 -125 -33 -176 -99c-65 -85 -123 -266 -123 -385c0 -28 5 -59 14 -84zM604 588l-409 -506c27 -35 68 -53 119 -53c77 0 149 42 196 115c64 101 105 241 105 365c0 29 -4 56 -11 79z" />
    <glyph glyph-name="Ugrave" unicode="&#xd9;" horiz-adv-x="815" 
d="M100 675l5 47h318l-6 -47h-4c-53 -1 -74 -4 -83 -14c-9 -9 -10 -12 -23 -62l-90 -333c-7 -29 -14 -76 -14 -103c0 -85 59 -135 161 -135c77 0 135 28 174 84c24 34 36 67 65 178l58 215c22 89 23 93 23 115c0 38 -29 56 -93 55l6 47h263l-5 -47c-88 -4 -97 -15 -140 -170
l-56 -211c-27 -102 -27 -102 -41 -137c-31 -81 -70 -124 -135 -149c-39 -15 -89 -23 -140 -23c-163 0 -250 67 -250 191c0 35 4 59 20 118l82 305c5 21 9 41 9 49c0 22 -14 27 -79 27h-25zM540 774h-40l-135 107c-9 8 -15 17 -15 26c0 20 18 39 39 39c15 0 20 -3 39 -28z
" />
    <glyph glyph-name="Uacute" unicode="&#xda;" horiz-adv-x="815" 
d="M100 675l5 47h318l-6 -47h-4c-53 -1 -74 -4 -83 -14c-9 -9 -10 -12 -23 -62l-90 -333c-7 -29 -14 -76 -14 -103c0 -85 59 -135 161 -135c77 0 135 28 174 84c24 34 36 67 65 178l58 215c22 89 23 93 23 115c0 38 -29 56 -93 55l6 47h263l-5 -47c-88 -4 -97 -15 -140 -170
l-56 -211c-27 -102 -27 -102 -41 -137c-31 -81 -70 -124 -135 -149c-39 -15 -89 -23 -140 -23c-163 0 -250 67 -250 191c0 35 4 59 20 118l82 305c5 21 9 41 9 49c0 22 -14 27 -79 27h-25zM476 774l138 143c21 22 35 30 50 30c20 0 35 -15 35 -34c0 -14 -10 -29 -26 -39
l-159 -100h-38z" />
    <glyph glyph-name="Ucircumflex" unicode="&#xdb;" horiz-adv-x="815" 
d="M100 675l5 47h318l-6 -47h-4c-53 -1 -74 -4 -83 -14c-9 -9 -10 -12 -23 -62l-90 -333c-7 -29 -14 -76 -14 -103c0 -85 59 -135 161 -135c77 0 135 28 174 84c24 34 36 67 65 178l58 215c22 89 23 93 23 115c0 38 -29 56 -93 55l6 47h263l-5 -47c-88 -4 -97 -15 -140 -170
l-56 -211c-27 -102 -27 -102 -41 -137c-31 -81 -70 -124 -135 -149c-39 -15 -89 -23 -140 -23c-163 0 -250 67 -250 191c0 35 4 59 20 118l82 305c5 21 9 41 9 49c0 22 -14 27 -79 27h-25zM564 940l91 -166h-36l-86 101l-137 -101h-35l153 166h50z" />
    <glyph glyph-name="Udieresis" unicode="&#xdc;" horiz-adv-x="815" 
d="M100 675l5 47h318l-6 -47h-4c-53 -1 -74 -4 -83 -14c-9 -9 -10 -12 -23 -62l-90 -333c-7 -29 -14 -76 -14 -103c0 -85 59 -135 161 -135c77 0 135 28 174 84c24 34 36 67 65 178l58 215c22 89 23 93 23 115c0 38 -29 56 -93 55l6 47h263l-5 -47c-88 -4 -97 -15 -140 -170
l-56 -211c-27 -102 -27 -102 -41 -137c-31 -81 -70 -124 -135 -149c-39 -15 -89 -23 -140 -23c-163 0 -250 67 -250 191c0 35 4 59 20 118l82 305c5 21 9 41 9 49c0 22 -14 27 -79 27h-25zM416 910c27 0 49 -22 49 -49s-22 -49 -50 -49c-26 0 -48 22 -48 49s22 49 49 49z
M618 910c27 0 49 -22 49 -49s-22 -49 -50 -49c-26 0 -48 22 -48 49s22 49 49 49z" />
    <glyph glyph-name="Yacute" unicode="&#xdd;" horiz-adv-x="685" 
d="M362 364l170 218c16 19 26 41 26 54c0 24 -24 39 -64 39h-23l5 47h282l-5 -47c-72 -4 -101 -23 -171 -111l-200 -256l-50 -185c-7 -26 -10 -41 -10 -49c0 -22 14 -27 79 -27h37l-5 -47h-347l6 47h22c52 0 74 4 83 14c9 9 10 13 23 62l50 185l-120 298
c-25 59 -39 68 -101 69h-17l5 47h308l-5 -47h-28c-44 0 -61 -7 -61 -24c0 -8 3 -20 11 -38zM364 774l138 143c22 22 35 30 50 30c20 0 35 -15 35 -34c0 -14 -10 -30 -25 -39l-159 -100h-39z" />
    <glyph glyph-name="Thorn" unicode="&#xde;" horiz-adv-x="667" 
d="M316 591h61c84 0 136 -11 173 -36c49 -33 74 -83 74 -145c0 -80 -39 -145 -109 -182c-67 -36 -103 -42 -289 -42h-18l-17 -63c-10 -36 -10 -39 -10 -48c0 -23 14 -28 80 -28h22l-6 -47h-310l5 47c59 1 72 3 84 14c9 9 10 12 23 62l128 477c8 29 10 40 10 48
c0 23 -14 27 -80 27h-22l6 47h310l-5 -47c-59 -1 -72 -3 -84 -13c-9 -9 -9 -11 -23 -62zM221 233h19h90c42 0 89 14 116 34c41 32 66 90 66 154c0 89 -40 123 -145 123h-12c-44 -2 -54 -9 -64 -48z" />
    <glyph glyph-name="germandbls" unicode="&#xdf;" horiz-adv-x="556" 
d="M53 176l44 175c42 170 70 243 111 300c43 58 93 85 158 85c97 0 159 -56 159 -143c0 -62 -27 -116 -77 -152c-20 -14 -36 -22 -71 -34c64 -43 92 -91 92 -160c0 -66 -22 -135 -60 -186c-34 -47 -87 -75 -141 -75c-62 0 -106 35 -106 86c0 35 21 58 53 58
c28 0 49 -18 49 -42c0 -10 -3 -21 -9 -34c-3 -7 -5 -13 -5 -17c0 -7 10 -14 21 -14c22 0 43 23 66 74c26 56 44 140 44 201c0 42 -16 73 -44 89c-13 8 -17 9 -52 15c-20 3 -29 10 -29 22c0 11 8 19 19 19c4 0 4 0 31 -5c14 -2 25 -3 32 -3c56 0 103 81 103 176
c0 57 -29 90 -79 90c-51 0 -86 -33 -115 -109c-12 -32 -16 -45 -68 -248l-35 -143c-33 -145 -69 -266 -114 -385l-106 -18c31 49 72 168 129 378z" />
    <glyph glyph-name="agrave" unicode="&#xe0;" horiz-adv-x="574" 
d="M396 455h87l-100 -336c-7 -26 -11 -43 -11 -54c0 -14 9 -25 21 -25c26 0 61 41 99 118l31 -17c-12 -26 -28 -54 -49 -83c-35 -49 -73 -73 -117 -73c-36 0 -61 26 -61 65c0 10 1 17 5 32c-50 -72 -89 -97 -152 -97c-89 0 -148 65 -148 163c0 80 30 164 81 230
c47 61 103 92 165 92c65 0 115 -43 122 -105zM264 415c-30 0 -58 -12 -80 -35c-53 -55 -92 -158 -92 -246c0 -61 30 -98 80 -98s86 28 117 90c31 63 51 142 51 200c0 56 -29 89 -76 89zM370 519h-40l-135 107c-8 7 -14 17 -14 26c0 20 18 39 38 39c15 0 20 -3 39 -28z" />
    <glyph glyph-name="aacute" unicode="&#xe1;" horiz-adv-x="574" 
d="M396 455h87l-100 -336c-7 -26 -11 -43 -11 -54c0 -14 9 -25 21 -25c26 0 61 41 99 118l31 -17c-12 -26 -28 -54 -49 -83c-35 -49 -73 -73 -117 -73c-36 0 -61 26 -61 65c0 10 1 17 5 32c-50 -72 -89 -97 -152 -97c-89 0 -148 65 -148 163c0 80 30 164 81 230
c47 61 103 92 165 92c65 0 115 -43 122 -105zM264 415c-30 0 -58 -12 -80 -35c-53 -55 -92 -158 -92 -246c0 -61 30 -98 80 -98s86 28 117 90c31 63 51 142 51 200c0 56 -29 89 -76 89zM253 519l138 140c23 23 35 30 50 30c19 0 35 -15 35 -34c0 -15 -10 -30 -26 -40
l-159 -96h-38z" />
    <glyph glyph-name="acircumflex" unicode="&#xe2;" horiz-adv-x="574" 
d="M396 455h87l-100 -336c-7 -26 -11 -43 -11 -54c0 -14 9 -25 21 -25c26 0 61 41 99 118l31 -17c-12 -26 -28 -54 -49 -83c-35 -49 -73 -73 -117 -73c-36 0 -61 26 -61 65c0 10 1 17 5 32c-50 -72 -89 -97 -152 -97c-89 0 -148 65 -148 163c0 80 30 164 81 230
c47 61 103 92 165 92c65 0 115 -43 122 -105zM264 415c-30 0 -58 -12 -80 -35c-53 -55 -92 -158 -92 -246c0 -61 30 -98 80 -98s86 28 117 90c31 63 51 142 51 200c0 56 -29 89 -76 89zM367 688l91 -169h-36l-86 104l-136 -104h-36l154 169h49z" />
    <glyph glyph-name="atilde" unicode="&#xe3;" horiz-adv-x="574" 
d="M396 455h87l-100 -336c-7 -26 -11 -43 -11 -54c0 -14 9 -25 21 -25c26 0 61 41 99 118l31 -17c-12 -26 -28 -54 -49 -83c-35 -49 -73 -73 -117 -73c-36 0 -61 26 -61 65c0 10 1 17 5 32c-50 -72 -89 -97 -152 -97c-89 0 -148 65 -148 163c0 80 30 164 81 230
c47 61 103 92 165 92c65 0 115 -43 122 -105zM264 415c-30 0 -58 -12 -80 -35c-53 -55 -92 -158 -92 -246c0 -61 30 -98 80 -98s86 28 117 90c31 63 51 142 51 200c0 56 -29 89 -76 89zM477 650h30c-7 -58 -49 -105 -93 -105c-22 0 -32 3 -86 23c-44 16 -60 21 -74 21
c-21 0 -36 -15 -45 -45h-30c12 66 46 105 90 105c17 0 43 -7 100 -26c37 -13 45 -15 59 -15c22 0 37 13 49 42z" />
    <glyph glyph-name="adieresis" unicode="&#xe4;" horiz-adv-x="574" 
d="M396 455h87l-100 -336c-7 -26 -11 -43 -11 -54c0 -14 9 -25 21 -25c26 0 61 41 99 118l31 -17c-12 -26 -28 -54 -49 -83c-35 -49 -73 -73 -117 -73c-36 0 -61 26 -61 65c0 10 1 17 5 32c-50 -72 -89 -97 -152 -97c-89 0 -148 65 -148 163c0 80 30 164 81 230
c47 61 103 92 165 92c65 0 115 -43 122 -105zM264 415c-30 0 -58 -12 -80 -35c-53 -55 -92 -158 -92 -246c0 -61 30 -98 80 -98s86 28 117 90c31 63 51 142 51 200c0 56 -29 89 -76 89zM229 644c27 0 49 -22 49 -49s-22 -49 -49 -49s-49 22 -49 49s22 49 49 49zM431 644
c27 0 49 -22 49 -49s-22 -49 -50 -49c-26 0 -48 22 -48 49s22 49 49 49z" />
    <glyph glyph-name="aring" unicode="&#xe5;" horiz-adv-x="574" 
d="M396 455h87l-100 -336c-7 -26 -11 -43 -11 -54c0 -14 9 -25 21 -25c26 0 61 41 99 118l31 -17c-12 -26 -28 -54 -49 -83c-35 -49 -73 -73 -117 -73c-36 0 -61 26 -61 65c0 10 1 17 5 32c-50 -72 -89 -97 -152 -97c-89 0 -148 65 -148 163c0 80 30 164 81 230
c47 61 103 92 165 92c65 0 115 -43 122 -105zM264 415c-30 0 -58 -12 -80 -35c-53 -55 -92 -158 -92 -246c0 -61 30 -98 80 -98s86 28 117 90c31 63 51 142 51 200c0 56 -29 89 -76 89zM329 712c55 0 100 -44 100 -99c0 -56 -44 -100 -101 -100c-53 0 -98 45 -98 100
c0 54 45 99 99 99zM330 676c-36 0 -64 -28 -64 -63s29 -64 63 -64c36 0 64 28 64 64c0 35 -28 63 -63 63z" />
    <glyph glyph-name="ae" unicode="&#xe6;" horiz-adv-x="722" 
d="M610 117l28 -26c-61 -73 -126 -106 -208 -106c-81 0 -128 36 -142 106c-52 -77 -104 -106 -188 -106c-73 0 -118 38 -118 99c0 66 47 111 148 143c53 16 74 20 173 33c13 51 15 66 15 88c0 50 -39 83 -100 83c-38 0 -71 -14 -71 -31c0 -3 1 -5 8 -10c11 -9 17 -23 17 -41
c0 -30 -21 -50 -53 -50c-33 0 -54 22 -54 56c0 65 71 115 161 115c65 0 114 -24 153 -73c52 48 110 73 173 73c70 0 115 -40 115 -101c0 -60 -44 -108 -126 -138c-34 -13 -82 -24 -171 -39c-7 -25 -9 -37 -9 -55c0 -65 35 -104 95 -104c55 0 107 28 154 84zM378 232
c55 8 91 18 123 32c50 22 80 63 80 111c0 32 -20 52 -51 52c-38 0 -74 -24 -100 -67c-21 -35 -32 -61 -52 -128zM293 220c-80 -11 -113 -19 -146 -35c-49 -23 -72 -52 -72 -90c0 -36 25 -60 61 -60c40 0 84 24 109 61c21 31 31 56 48 124z" />
    <glyph glyph-name="ccedilla" unicode="&#xe7;" horiz-adv-x="444" 
d="M185 -14l-27 -50c14 2 20 3 29 3c49 0 82 -28 82 -68c0 -53 -49 -87 -124 -87c-33 0 -60 5 -88 17l18 33c23 -8 43 -12 63 -12c33 0 55 16 55 40s-19 39 -48 39c-10 0 -18 -1 -33 -6l-9 6l47 85c-93 15 -145 79 -145 179c0 161 126 305 266 305c73 0 130 -48 130 -108
c0 -43 -27 -75 -63 -75c-31 0 -53 20 -53 49c0 24 10 36 37 48c11 4 16 9 16 15c0 17 -32 33 -64 33c-45 0 -84 -24 -116 -74c-34 -52 -61 -145 -61 -213s38 -112 96 -112c49 0 94 30 148 99l29 -22c-47 -76 -114 -121 -185 -124z" />
    <glyph glyph-name="egrave" unicode="&#xe8;" horiz-adv-x="444" 
d="M339 116l24 -27c-54 -70 -119 -104 -196 -104c-108 0 -173 65 -173 173c0 164 132 312 278 312c71 0 119 -42 119 -103c0 -58 -42 -109 -120 -143c-46 -20 -64 -26 -182 -54c-1 -13 -2 -27 -2 -34c0 -64 37 -104 97 -104c53 0 96 23 155 84zM94 209c66 14 91 22 127 43
c55 30 86 73 86 121c0 34 -22 57 -55 57c-74 0 -135 -86 -158 -221zM318 519h-40l-134 107c-9 7 -15 17 -15 26c0 20 18 39 38 39c15 0 20 -3 39 -28z" />
    <glyph glyph-name="eacute" unicode="&#xe9;" horiz-adv-x="444" 
d="M339 116l24 -27c-54 -70 -119 -104 -196 -104c-108 0 -173 65 -173 173c0 164 132 312 278 312c71 0 119 -42 119 -103c0 -58 -42 -109 -120 -143c-46 -20 -65 -26 -182 -54c-1 -13 -2 -27 -2 -34c0 -64 37 -104 97 -104c53 0 96 23 155 84zM94 209c66 14 91 22 127 43
c55 30 86 74 86 121c0 34 -22 57 -54 57c-75 0 -136 -86 -159 -221zM188 519l139 140c23 24 34 30 49 30c20 0 35 -15 35 -35c0 -14 -10 -29 -25 -39l-159 -96h-39z" />
    <glyph glyph-name="ecircumflex" unicode="&#xea;" horiz-adv-x="444" 
d="M339 116l24 -27c-54 -70 -119 -104 -196 -104c-108 0 -173 65 -173 173c0 164 132 312 278 312c71 0 119 -42 119 -103c0 -58 -42 -109 -120 -143c-46 -20 -64 -26 -182 -54c-1 -13 -2 -27 -2 -34c0 -64 37 -104 97 -104c53 0 96 23 155 84zM94 209c66 14 91 22 127 43
c55 30 86 73 86 121c0 34 -22 57 -55 57c-74 0 -135 -86 -158 -221zM300 688l91 -169h-36l-86 104l-136 -104h-36l153 169h50z" />
    <glyph glyph-name="edieresis" unicode="&#xeb;" horiz-adv-x="444" 
d="M339 116l24 -27c-54 -70 -119 -104 -196 -104c-108 0 -173 65 -173 173c0 164 132 312 278 312c71 0 119 -42 119 -103c0 -58 -42 -109 -120 -143c-46 -20 -65 -26 -182 -54c-1 -13 -2 -27 -2 -34c0 -64 37 -104 97 -104c53 0 96 23 155 84zM94 209c66 14 91 22 127 43
c55 30 86 74 86 121c0 34 -22 57 -54 57c-75 0 -136 -86 -159 -221zM154 644c27 0 49 -22 49 -49s-22 -49 -49 -49s-49 22 -49 49s22 49 49 49zM356 644c27 0 49 -22 49 -49s-22 -49 -49 -49s-49 22 -49 49s22 49 49 49z" />
    <glyph glyph-name="igrave" unicode="&#xec;" horiz-adv-x="333" 
d="M231 470l-106 -357c-9 -33 -12 -45 -12 -56c0 -12 7 -21 17 -21c27 0 70 43 122 121l30 -17c-59 -100 -124 -154 -187 -154c-38 0 -68 27 -68 62c0 23 1 29 23 101l57 195c6 20 9 34 9 44c0 22 -16 31 -57 31h-23l3 36zM217 519h-41l-134 107c-9 7 -15 17 -15 26
c0 20 18 39 39 39c15 0 19 -3 38 -28z" />
    <glyph glyph-name="iacute" unicode="&#xed;" horiz-adv-x="333" 
d="M231 470l-106 -357c-8 -28 -12 -46 -12 -56c0 -12 7 -21 17 -21c27 0 69 42 121 121l31 -17c-60 -101 -124 -154 -187 -154c-38 0 -68 27 -68 62c0 23 3 37 22 101l58 195c7 23 9 34 9 44c0 22 -16 31 -57 31h-24l4 36zM132 519l139 140c24 24 34 30 50 30
c19 0 34 -15 34 -35c0 -14 -10 -29 -25 -39l-159 -96h-39z" />
    <glyph glyph-name="icircumflex" unicode="&#xee;" horiz-adv-x="333" 
d="M200 688l91 -169h-36l-86 104l-136 -104h-36l153 169h50zM231 470l-106 -357c-8 -28 -12 -46 -12 -56c0 -12 7 -21 17 -21c27 0 69 42 121 121l31 -17c-28 -43 -44 -65 -62 -85c-40 -46 -81 -69 -125 -69c-38 0 -68 27 -68 62c0 23 3 37 22 101l58 195c7 23 9 34 9 44
c0 22 -16 31 -57 31h-24l4 36z" />
    <glyph glyph-name="idieresis" unicode="&#xef;" horiz-adv-x="333" 
d="M231 470l-106 -357c-8 -28 -12 -46 -12 -56c0 -12 7 -21 17 -21c27 0 69 42 121 121l31 -17c-60 -101 -124 -154 -187 -154c-38 0 -68 27 -68 62c0 23 3 37 22 101l58 195c7 23 9 34 9 44c0 22 -16 31 -57 31h-24l4 36zM98 644c27 0 49 -22 49 -49s-22 -49 -49 -49
s-49 22 -49 49s22 49 49 49zM300 644c27 0 49 -22 49 -49s-22 -49 -49 -49s-49 22 -49 49s22 49 49 49z" />
    <glyph glyph-name="eth" unicode="&#xf0;" horiz-adv-x="500" 
d="M342 456l-3 5l-17 33c-20 36 -43 67 -67 89l-135 -67l-17 35l121 61c-23 21 -25 22 -73 60l38 39c44 -24 66 -39 101 -66l142 71l18 -35l-126 -63c49 -49 75 -88 97 -148c18 -50 29 -118 29 -178c0 -69 -21 -137 -59 -192c-53 -77 -123 -115 -208 -115
c-110 0 -178 72 -178 188c0 83 28 152 84 211c53 55 118 86 185 86c23 0 45 -5 68 -14zM268 432c-38 0 -70 -18 -98 -54c-41 -54 -75 -166 -75 -250c0 -68 31 -105 89 -105s101 39 135 124c21 53 36 119 36 161c0 78 -32 124 -87 124z" />
    <glyph glyph-name="ntilde" unicode="&#xf1;" horiz-adv-x="611" 
d="M475 650h31c-7 -57 -49 -105 -94 -105c-22 0 -32 3 -86 23c-43 16 -59 21 -74 21c-21 0 -36 -15 -44 -45h-30c11 66 45 105 90 105c17 0 43 -7 100 -26c36 -13 44 -15 58 -15c23 0 37 12 49 42zM229 470l-29 -135c67 92 126 135 185 135c53 0 96 -44 96 -97
c0 -29 -8 -67 -24 -113l-47 -138c-16 -44 -19 -56 -19 -67s8 -19 17 -19c32 0 74 40 125 120l29 -21c-54 -96 -120 -150 -184 -150c-39 0 -69 32 -69 75c0 21 5 43 18 83l53 156c11 32 15 52 15 70c0 23 -17 41 -40 41c-43 0 -96 -39 -139 -103c-36 -53 -48 -81 -74 -168
l-41 -139h-87l102 344c7 23 9 34 9 44c0 22 -16 31 -57 31h-24l4 36z" />
    <glyph glyph-name="ograve" unicode="&#xf2;" horiz-adv-x="500" 
d="M348 519h-40l-134 107c-10 8 -16 17 -16 26c0 20 18 39 39 39c15 0 20 -3 39 -28zM273 470c97 0 177 -85 177 -189c0 -75 -31 -154 -85 -214c-49 -55 -109 -82 -182 -82c-109 0 -178 72 -178 187c0 84 28 155 84 212c55 56 118 86 184 86zM268 432c-38 0 -70 -18 -98 -54
c-41 -55 -75 -166 -75 -250c0 -68 31 -105 89 -105c53 0 90 30 124 99c27 55 47 135 47 187c0 77 -32 123 -87 123z" />
    <glyph glyph-name="oacute" unicode="&#xf3;" horiz-adv-x="500" 
d="M227 519l139 140c23 24 34 30 49 30c20 0 35 -15 35 -35c0 -14 -10 -29 -25 -39l-159 -96h-39zM273 470c97 0 177 -85 177 -189c0 -75 -31 -154 -85 -214c-49 -55 -109 -82 -182 -82c-109 0 -178 72 -178 187c0 84 28 155 84 212c55 56 118 86 184 86zM268 432
c-38 0 -70 -18 -98 -54c-41 -55 -75 -166 -75 -250c0 -68 31 -105 89 -105c53 0 90 30 124 99c27 55 47 135 47 187c0 77 -32 123 -87 123z" />
    <glyph glyph-name="ocircumflex" unicode="&#xf4;" horiz-adv-x="500" 
d="M344 688l91 -169h-36l-86 104l-137 -104h-35l153 169h50zM273 470c97 0 177 -85 177 -189c0 -75 -31 -154 -85 -214c-49 -55 -109 -82 -182 -82c-109 0 -178 72 -178 187c0 84 28 155 84 212c55 56 118 86 184 86zM268 432c-38 0 -70 -18 -98 -54
c-41 -55 -75 -166 -75 -250c0 -68 31 -105 89 -105c53 0 90 30 124 99c27 55 47 135 47 187c0 77 -32 123 -87 123z" />
    <glyph glyph-name="otilde" unicode="&#xf5;" horiz-adv-x="500" 
d="M273 470c97 0 177 -85 177 -188c0 -75 -32 -155 -85 -215c-49 -55 -109 -82 -182 -82c-109 0 -178 72 -178 187c0 83 28 155 84 212c54 56 118 86 184 86zM268 432c-38 0 -70 -18 -98 -54c-41 -55 -75 -166 -75 -250c0 -68 31 -105 89 -105c53 0 90 30 124 99
c27 55 47 135 47 187c0 77 -32 123 -87 123zM424 650h30c-6 -57 -49 -105 -93 -105c-22 0 -33 3 -86 23c-44 16 -60 21 -74 21c-22 0 -37 -15 -45 -45h-30c12 66 45 105 90 105c17 0 43 -7 100 -26c36 -13 45 -15 59 -15c22 0 37 12 49 42z" />
    <glyph glyph-name="odieresis" unicode="&#xf6;" horiz-adv-x="500" 
d="M199 644c27 0 49 -22 49 -49s-22 -49 -49 -49s-49 22 -49 49s22 49 49 49zM401 644c27 0 49 -22 49 -49s-22 -49 -49 -49s-49 22 -49 49s22 49 49 49zM273 470c97 0 177 -85 177 -189c0 -75 -31 -154 -85 -214c-49 -55 -109 -82 -182 -82c-109 0 -178 72 -178 187
c0 84 28 155 84 212c55 56 118 86 184 86zM268 432c-38 0 -70 -18 -98 -54c-41 -55 -75 -166 -75 -250c0 -68 31 -105 89 -105c53 0 90 30 124 99c27 55 47 135 47 187c0 77 -32 123 -87 123z" />
    <glyph glyph-name="divide" unicode="&#xf7;" horiz-adv-x="606" 
d="M289 115c33 0 61 -28 61 -62s-28 -62 -61 -62c-35 0 -62 28 -62 62c0 35 28 62 62 62zM289 515c33 0 61 -28 61 -62s-28 -62 -61 -62c-35 0 -62 28 -62 62c0 35 28 62 62 62zM37 213v80h503v-80h-503z" />
    <glyph glyph-name="oslash" unicode="&#xf8;" horiz-adv-x="500" 
d="M326 458l51 90h44l-62 -108c51 -37 81 -96 81 -158c0 -75 -31 -155 -85 -215c-49 -55 -110 -82 -184 -82c-24 0 -43 2 -64 8l-64 -113h-43l72 129c-50 32 -77 89 -77 164c0 83 27 152 83 211c53 55 119 86 184 86c23 0 43 -4 64 -12zM101 59l203 359
c-15 10 -28 14 -47 14c-36 0 -69 -18 -96 -54c-41 -53 -76 -168 -76 -249c0 -25 6 -50 16 -70zM330 388l-201 -355c15 -7 28 -10 45 -10c53 0 90 30 124 99c28 57 47 134 47 190c0 30 -4 51 -15 76z" />
    <glyph glyph-name="ugrave" unicode="&#xf9;" horiz-adv-x="611" 
d="M509 455l-99 -332c-8 -29 -12 -48 -12 -59c0 -13 9 -24 18 -24c22 0 61 40 110 113l30 -18c-71 -109 -120 -150 -181 -150c-37 0 -64 27 -64 66c0 19 2 33 12 68c-59 -92 -116 -133 -186 -133c-57 0 -95 37 -95 92c0 31 0 31 31 131l40 135c5 19 8 33 8 43
c0 23 -15 32 -56 32h-24l3 36l193 15l-98 -328c-8 -28 -11 -44 -11 -57c0 -24 19 -43 43 -43c71 0 163 114 204 253l47 160h87zM395 519h-40l-135 107c-9 8 -15 17 -15 26c0 20 18 39 39 39c15 0 20 -3 38 -28z" />
    <glyph glyph-name="uacute" unicode="&#xfa;" horiz-adv-x="611" 
d="M509 455l-99 -332c-8 -29 -12 -48 -12 -59c0 -13 9 -24 18 -24c22 0 61 40 110 113l30 -18c-71 -109 -120 -150 -181 -150c-37 0 -64 27 -64 66c0 19 2 33 12 68c-59 -92 -116 -133 -186 -133c-57 0 -95 37 -95 92c0 31 0 31 31 131l40 135c5 19 8 33 8 43
c0 23 -15 32 -56 32h-24l3 36l193 15l-98 -328c-8 -28 -11 -44 -11 -57c0 -24 19 -43 43 -43c71 0 163 114 204 253l47 160h87zM289 519l139 140c23 23 35 30 50 30c20 0 35 -15 35 -35c0 -14 -10 -29 -26 -39l-159 -96h-39z" />
    <glyph glyph-name="ucircumflex" unicode="&#xfb;" horiz-adv-x="611" 
d="M509 455l-99 -332c-8 -29 -12 -48 -12 -59c0 -13 9 -24 18 -24c22 0 61 40 110 113l30 -18c-71 -109 -120 -150 -181 -150c-37 0 -64 27 -64 66c0 19 2 33 12 68c-59 -92 -116 -133 -186 -133c-57 0 -95 37 -95 92c0 31 0 31 31 131l40 135c5 19 8 33 8 43
c0 23 -15 32 -56 32h-24l3 36l193 15l-98 -328c-8 -28 -11 -44 -11 -57c0 -24 19 -43 43 -43c71 0 163 114 204 253l47 160h87zM392 688l91 -169h-36l-86 104l-136 -104h-36l153 169h50z" />
    <glyph glyph-name="udieresis" unicode="&#xfc;" horiz-adv-x="611" 
d="M509 455l-99 -332c-8 -29 -12 -48 -12 -59c0 -13 9 -24 18 -24c22 0 61 40 110 113l30 -18c-71 -109 -120 -150 -181 -150c-37 0 -64 27 -64 66c0 19 2 33 12 68c-59 -92 -116 -133 -186 -133c-57 0 -95 37 -95 92c0 31 0 31 31 131l40 135c5 19 8 33 8 43
c0 23 -15 32 -56 32h-24l3 36l193 15l-98 -328c-8 -28 -11 -44 -11 -57c0 -24 19 -43 43 -43c71 0 163 114 204 253l47 160h87zM247 644c27 0 49 -22 49 -49s-22 -49 -49 -49s-49 22 -49 49s22 49 49 49zM449 644c27 0 49 -22 49 -49s-22 -49 -49 -49s-49 22 -49 49
s22 49 49 49z" />
    <glyph glyph-name="yacute" unicode="&#xfd;" horiz-adv-x="500" 
d="M220 315l44 -211c65 103 104 197 104 248c0 14 0 17 -6 51c-1 6 -2 11 -2 17c0 27 22 50 49 50s45 -20 45 -51c0 -35 -12 -65 -68 -175c-75 -145 -155 -278 -202 -338c-59 -74 -113 -108 -171 -108c-52 0 -92 33 -92 74c0 31 23 54 52 54c19 0 36 -12 43 -31
c3 -8 3 -8 3 -39c0 -10 7 -16 19 -16c27 0 66 28 106 77c17 22 24 32 57 84c-22 125 -41 213 -71 325c-11 42 -24 63 -38 63c-17 0 -27 -14 -65 -96l-31 14c42 108 86 163 130 163c43 0 71 -46 94 -155zM231 519l138 140c23 23 35 30 50 30c20 0 35 -15 35 -35
c0 -14 -10 -29 -26 -39l-159 -96h-38z" />
    <glyph glyph-name="thorn" unicode="&#xfe;" horiz-adv-x="574" 
d="M323 737l-104 -352c45 55 98 85 149 85c39 0 79 -20 105 -52c23 -29 33 -62 33 -111c0 -83 -29 -165 -80 -229c-48 -62 -109 -93 -180 -93c-66 0 -91 19 -120 88l-48 -163c-7 -24 -11 -42 -11 -50c0 -20 16 -26 64 -26h12l-4 -36h-240l4 36c68 3 69 4 88 76l209 701
c7 27 9 34 9 44c0 22 -16 31 -57 31h-32l4 36zM337 417c-41 0 -82 -28 -115 -78c-38 -58 -69 -154 -69 -212c0 -53 35 -92 84 -92c53 0 93 34 128 109c30 62 47 130 47 185c0 53 -30 88 -75 88z" />
    <glyph glyph-name="ydieresis" unicode="&#xff;" horiz-adv-x="500" 
d="M220 315l44 -211c65 103 104 197 104 248c0 14 0 17 -6 51c-1 6 -2 11 -2 17c0 27 22 50 49 50s45 -20 45 -51c0 -35 -12 -65 -68 -175c-75 -145 -155 -278 -202 -338c-59 -74 -113 -108 -171 -108c-52 0 -92 33 -92 74c0 31 23 54 52 54c19 0 36 -12 43 -31
c3 -8 3 -8 3 -39c0 -10 7 -16 19 -16c27 0 66 28 106 77c17 22 24 32 57 84c-22 125 -41 213 -71 325c-11 42 -24 63 -38 63c-17 0 -27 -14 -65 -96l-31 14c42 108 86 163 130 163c43 0 71 -46 94 -155zM199 644c27 0 49 -22 49 -49s-22 -49 -49 -49s-49 22 -49 49
s22 49 49 49zM401 644c27 0 49 -22 49 -49s-22 -49 -49 -49s-49 22 -49 49s22 49 49 49z" />
    <glyph glyph-name="Amacron" unicode="&#x100;" horiz-adv-x="704" 
d="M442 737l125 -629c11 -53 20 -61 76 -61h25l-6 -47h-300l5 47h16c57 0 72 7 72 35c0 8 -1 21 -4 33l-23 123h-255l-55 -96c-12 -21 -18 -40 -18 -55c0 -30 17 -40 69 -40h24l-6 -47h-269l5 47c54 0 95 33 148 121l330 569h41zM420 285l-57 287l-163 -287h220zM293 877
h301l-11 -54h-301z" />
    <glyph glyph-name="amacron" unicode="&#x101;" horiz-adv-x="574" 
d="M396 455h87l-100 -336c-7 -26 -11 -43 -11 -54c0 -14 9 -25 21 -25c26 0 61 41 99 118l31 -17c-12 -26 -28 -54 -49 -83c-35 -49 -73 -73 -117 -73c-36 0 -61 26 -61 65c0 10 1 17 5 32c-50 -72 -89 -97 -152 -97c-89 0 -148 65 -148 163c0 80 30 164 81 230
c47 61 103 92 165 92c65 0 115 -43 122 -105zM264 415c-30 0 -58 -12 -80 -35c-53 -55 -92 -158 -92 -246c0 -61 30 -98 80 -98s86 28 117 90c31 63 51 142 51 200c0 56 -29 89 -76 89zM182 610h302l-11 -51h-301z" />
    <glyph glyph-name="Abreve" unicode="&#x102;" horiz-adv-x="704" 
d="M442 737l125 -629c11 -53 20 -61 76 -61h25l-6 -47h-300l5 47h16c57 0 72 7 72 35c0 8 -1 21 -4 33l-23 123h-255l-55 -96c-12 -21 -18 -40 -18 -55c0 -30 17 -40 69 -40h24l-6 -47h-269l5 47c54 0 95 33 148 121l330 569h41zM420 285l-57 287l-163 -287h220zM291 935h30
c3 -61 44 -98 107 -98c60 0 108 35 133 98h31c-20 -100 -84 -161 -168 -161c-81 0 -134 56 -134 140z" />
    <glyph glyph-name="abreve" unicode="&#x103;" horiz-adv-x="574" 
d="M396 455h87l-100 -336c-7 -26 -11 -43 -11 -54c0 -14 9 -25 21 -25c26 0 61 41 99 118l31 -17c-12 -26 -28 -54 -49 -83c-35 -49 -73 -73 -117 -73c-36 0 -61 26 -61 65c0 10 1 17 5 32c-50 -72 -89 -97 -152 -97c-89 0 -148 65 -148 163c0 80 30 164 81 230
c47 61 103 92 165 92c65 0 115 -43 122 -105zM264 415c-30 0 -58 -12 -80 -35c-53 -55 -92 -158 -92 -246c0 -61 30 -98 80 -98s86 28 117 90c31 63 51 142 51 200c0 56 -29 89 -76 89zM191 677h29c3 -60 44 -96 107 -96c61 0 107 34 133 96h31c-19 -97 -84 -159 -167 -159
c-79 0 -134 55 -134 135c0 8 0 14 1 24z" />
    <glyph glyph-name="Aogonek" unicode="&#x104;" horiz-adv-x="704" 
d="M668 47l-6 -47c-27 -33 -37 -52 -37 -75c0 -20 19 -39 40 -39c22 0 43 11 71 37l17 -22c-41 -40 -71 -56 -108 -56c-41 0 -69 28 -69 68c0 33 13 55 51 87h-265l5 47h16c57 0 72 7 72 35c0 8 -1 21 -4 33l-23 123h-255l-55 -96c-12 -21 -18 -40 -18 -55
c0 -30 17 -40 69 -40h24l-6 -47h-269l5 47c54 0 95 33 148 121l330 569h41l125 -629c11 -53 20 -61 76 -61h25zM420 285l-57 287l-163 -287h220z" />
    <glyph glyph-name="aogonek" unicode="&#x105;" horiz-adv-x="574" 
d="M492 158l31 -17c-19 -42 -39 -72 -96 -144c-19 -24 -32 -53 -32 -73c0 -19 20 -38 41 -38s42 11 71 37l16 -22c-39 -39 -70 -56 -107 -56c-41 0 -70 27 -70 67c0 29 10 49 37 76c-11 -2 -17 -3 -24 -3c-38 0 -63 26 -63 65c0 10 1 17 5 32c-50 -72 -89 -97 -152 -97
c-89 0 -148 65 -148 163c0 80 30 164 81 230c47 61 103 92 165 92c65 0 115 -43 122 -105l27 90h87l-100 -336c-7 -26 -11 -43 -11 -54c0 -14 9 -25 21 -25c26 0 61 41 99 118zM264 415c-30 0 -58 -12 -80 -35c-53 -55 -92 -158 -92 -246c0 -61 30 -98 80 -98s86 28 117 90
c31 63 51 142 51 200c0 56 -29 89 -76 89z" />
    <glyph glyph-name="Cacute" unicode="&#x106;" horiz-adv-x="722" 
d="M617 657l60 58h36l-56 -280h-41c-3 77 -10 121 -26 158c-27 67 -74 101 -140 101c-70 0 -136 -40 -182 -111c-63 -96 -103 -228 -103 -343c0 -129 69 -206 186 -206c75 0 136 29 185 90c18 22 32 46 57 99l41 -18c-27 -62 -49 -99 -80 -130c-57 -60 -132 -90 -220 -90
c-178 0 -294 116 -294 295c0 111 38 215 111 305c81 100 181 152 291 152c76 0 126 -23 175 -80zM409 774l139 143c21 22 34 30 49 30c20 0 35 -15 35 -34c0 -14 -10 -30 -25 -39l-159 -100h-39z" />
    <glyph glyph-name="cacute" unicode="&#x107;" horiz-adv-x="444" 
d="M341 132l29 -22c-53 -83 -118 -125 -193 -125c-105 0 -172 71 -172 180c0 161 126 305 266 305c72 0 130 -48 130 -108c0 -43 -27 -75 -63 -75c-31 0 -53 20 -53 49c0 24 10 36 37 48c11 4 16 9 16 15c0 17 -32 33 -64 33c-44 0 -80 -23 -115 -74
c-39 -56 -62 -134 -62 -206c0 -76 34 -119 93 -119c48 0 101 34 151 99zM221 519l138 140c24 23 35 30 50 30c20 0 35 -15 35 -35c0 -14 -10 -29 -25 -39l-159 -96h-39z" />
    <glyph glyph-name="Ccircumflex" unicode="&#x108;" horiz-adv-x="722" 
d="M617 657l60 58h36l-56 -280h-41c-3 77 -10 121 -26 158c-27 67 -74 101 -140 101c-70 0 -136 -40 -182 -111c-63 -96 -103 -228 -103 -343c0 -129 69 -206 186 -206c75 0 136 29 185 90c18 22 32 46 57 99l41 -18c-27 -62 -49 -99 -80 -130c-57 -60 -132 -90 -220 -90
c-178 0 -294 116 -294 295c0 111 38 215 111 305c81 100 181 152 291 152c76 0 126 -23 175 -80zM515 940l91 -166h-35l-86 101l-137 -101h-36l154 166h49z" />
    <glyph glyph-name="ccircumflex" unicode="&#x109;" horiz-adv-x="444" 
d="M341 132l29 -22c-53 -83 -118 -125 -193 -125c-105 0 -172 71 -172 180c0 161 126 305 266 305c72 0 130 -48 130 -108c0 -43 -27 -75 -63 -75c-31 0 -53 20 -53 49c0 24 10 36 37 48c11 4 16 9 16 15c0 17 -32 33 -64 33c-44 0 -80 -23 -115 -74
c-39 -56 -62 -134 -62 -206c0 -76 34 -119 93 -119c48 0 101 34 151 99zM299 688l91 -169h-36l-86 104l-136 -104h-36l153 169h50z" />
    <glyph glyph-name="Cdotaccent" unicode="&#x10a;" horiz-adv-x="722" 
d="M617 657l60 58h36l-56 -280h-41c-3 77 -10 121 -26 158c-27 67 -74 101 -140 101c-70 0 -136 -40 -182 -111c-63 -96 -103 -228 -103 -343c0 -129 69 -206 186 -206c75 0 136 29 185 90c18 22 32 46 57 99l41 -18c-27 -62 -49 -99 -80 -130c-57 -60 -132 -90 -220 -90
c-178 0 -294 116 -294 295c0 111 38 215 111 305c81 100 181 152 291 152c76 0 126 -23 175 -80zM458 910c27 0 49 -22 49 -49s-22 -49 -50 -49c-26 0 -48 22 -48 49s22 49 49 49z" />
    <glyph glyph-name="cdotaccent" unicode="&#x10b;" horiz-adv-x="444" 
d="M341 132l29 -22c-53 -83 -118 -125 -193 -125c-105 0 -172 71 -172 180c0 161 126 305 266 305c72 0 130 -48 130 -108c0 -43 -27 -75 -63 -75c-31 0 -53 20 -53 49c0 24 10 36 37 48c11 4 16 9 16 15c0 17 -32 33 -64 33c-44 0 -80 -23 -115 -74
c-39 -56 -62 -134 -62 -206c0 -76 34 -119 93 -119c48 0 101 34 151 99zM303 644c27 0 49 -22 49 -49s-22 -49 -49 -49s-49 22 -49 49s22 49 49 49z" />
    <glyph glyph-name="Ccaron" unicode="&#x10c;" horiz-adv-x="722" 
d="M617 657l60 58h36l-56 -280h-41c-3 77 -10 121 -26 158c-27 67 -74 101 -140 101c-70 0 -136 -40 -182 -111c-63 -96 -103 -228 -103 -343c0 -129 69 -206 186 -206c75 0 136 29 185 90c18 22 32 46 57 99l41 -18c-27 -62 -49 -99 -80 -130c-57 -60 -132 -90 -220 -90
c-178 0 -294 116 -294 295c0 111 38 215 111 305c81 100 181 152 291 152c76 0 126 -23 175 -80zM439 774l-91 166h35l86 -101l137 101h36l-154 -166h-49z" />
    <glyph glyph-name="ccaron" unicode="&#x10d;" horiz-adv-x="444" 
d="M341 132l29 -22c-53 -83 -118 -125 -193 -125c-105 0 -172 71 -172 180c0 161 126 305 266 305c72 0 130 -48 130 -108c0 -43 -27 -75 -63 -75c-31 0 -53 20 -53 49c0 24 10 36 37 48c11 4 16 9 16 15c0 17 -32 33 -64 33c-44 0 -80 -23 -115 -74
c-39 -56 -62 -134 -62 -206c0 -76 34 -119 93 -119c48 0 101 34 151 99zM264 520l-95 163h37l89 -98l142 98h37l-159 -163h-51z" />
    <glyph glyph-name="Dcaron" unicode="&#x10e;" horiz-adv-x="778" 
d="M-38 0l5 47h5c52 1 73 4 83 14c9 9 10 11 23 62l128 476c5 21 9 41 9 49c0 22 -14 27 -79 27h-26l6 47h290c112 0 175 -14 225 -52c67 -50 104 -133 104 -235c0 -134 -68 -273 -175 -358c-69 -55 -155 -77 -296 -77h-302zM227 47h32c97 0 161 18 206 57
c81 72 149 248 149 385c0 58 -19 113 -48 142c-29 28 -80 44 -140 44h-30c-52 0 -62 -8 -76 -65l-133 -500c-4 -12 -6 -26 -6 -34c0 -20 15 -29 46 -29zM420 774l-91 166h36l86 -101l136 101h36l-153 -166h-50z" />
    <glyph glyph-name="dcaron" unicode="&#x10f;" horiz-adv-x="611" 
d="M536 158l30 -18c-57 -106 -112 -155 -175 -155c-44 0 -68 25 -68 71c0 4 0 14 1 22c-44 -65 -94 -93 -162 -93c-94 0 -157 67 -157 165c0 166 134 320 278 320c35 0 69 -14 90 -36c11 -11 17 -22 25 -45l66 222c6 21 9 34 9 44c0 22 -16 31 -57 31h-31l4 36l199 15
l-178 -600c-10 -35 -15 -58 -15 -71c0 -18 9 -28 25 -28c33 0 58 26 116 120zM286 425c-50 0 -93 -33 -131 -99c-32 -56 -53 -129 -53 -186c0 -65 35 -108 89 -108c48 0 89 32 123 97c32 61 57 152 57 206c0 52 -36 90 -85 90zM553 461l-12 28c67 31 107 72 114 117h-15
c-30 0 -50 18 -50 47c0 32 26 56 60 56c37 0 63 -30 63 -72c0 -69 -63 -138 -160 -176z" />
    <glyph glyph-name="Dcroat" unicode="&#x110;" horiz-adv-x="778" 
d="M138 354h-102l12 47h103l55 198c5 19 9 41 9 49c0 22 -14 27 -79 27h-26l6 47h290c112 0 175 -14 225 -52c67 -50 104 -133 104 -235c0 -134 -68 -273 -175 -358c-68 -53 -156 -77 -289 -77h-309l5 47h5c52 1 73 4 83 14c9 9 10 12 23 62zM250 354l-63 -244
c-4 -13 -6 -26 -6 -35c0 -18 16 -28 46 -28h32c96 0 161 18 205 57c82 73 149 243 149 376c0 64 -18 121 -48 151c-28 28 -79 44 -139 44h-30c-52 0 -61 -8 -76 -65l-57 -209h198l-12 -47h-199z" />
    <glyph glyph-name="dcroat" unicode="&#x111;" horiz-adv-x="611" 
d="M448 563h-124l10 47h128c7 25 9 35 9 44c0 23 -16 32 -57 32h-31l4 36l199 15l-38 -127h87l-10 -47h-90l-127 -426c-10 -35 -15 -58 -15 -71c0 -18 9 -28 25 -28c33 0 58 26 116 120l30 -18c-57 -106 -112 -155 -175 -155c-44 0 -68 25 -68 71c0 4 0 14 1 22
c-44 -65 -94 -93 -162 -93c-94 0 -157 67 -157 165c0 166 134 320 278 320c35 0 69 -14 90 -36c11 -11 17 -22 25 -45zM284 425c-50 0 -93 -33 -131 -99c-32 -56 -53 -129 -53 -186c0 -65 35 -108 89 -108c48 0 89 32 123 97c32 61 57 152 57 206c0 52 -36 90 -85 90z" />
    <glyph glyph-name="Emacron" unicode="&#x112;" horiz-adv-x="722" 
d="M701 722l-39 -241h-45v34c0 71 -9 102 -37 127c-25 22 -59 33 -102 33h-58c-76 -1 -84 -6 -100 -69l-55 -205h23c100 2 147 34 178 125l45 -6l-89 -334l-45 8c7 32 9 47 9 68c0 62 -36 91 -111 92h-22l-59 -220c-10 -38 -11 -43 -11 -55c0 -24 18 -32 70 -32h54
c143 2 211 49 294 206l41 -8l-78 -245h-601l5 47h5c52 0 73 4 83 14c9 9 10 13 23 62l128 476c5 21 9 41 9 49c0 22 -14 27 -79 27h-26l6 47h584zM302 877h301l-11 -54h-301z" />
    <glyph glyph-name="emacron" unicode="&#x113;" horiz-adv-x="444" 
d="M339 116l24 -27c-54 -70 -119 -104 -196 -104c-108 0 -173 65 -173 173c0 164 132 312 278 312c71 0 119 -42 119 -103c0 -58 -42 -109 -120 -143c-46 -20 -64 -26 -182 -54c-1 -13 -2 -27 -2 -34c0 -64 37 -104 97 -104c53 0 96 23 155 84zM94 209c66 14 91 22 127 43
c55 30 86 73 86 121c0 34 -22 57 -55 57c-74 0 -135 -86 -158 -221zM117 610h302l-11 -51h-301z" />
    <glyph glyph-name="Ebreve" unicode="&#x114;" horiz-adv-x="722" 
d="M701 722l-39 -241h-45v34c0 71 -9 102 -37 127c-25 22 -59 33 -102 33h-58c-76 -1 -84 -6 -100 -69l-55 -205h23c100 2 147 34 178 125l45 -6l-89 -334l-45 8c7 32 9 47 9 68c0 62 -36 91 -111 92h-22l-59 -220c-10 -38 -11 -43 -11 -55c0 -24 18 -32 70 -32h54
c143 2 211 49 294 206l41 -8l-78 -245h-601l5 47h5c52 0 73 4 83 14c9 9 10 13 23 62l128 476c5 21 9 41 9 49c0 22 -14 27 -79 27h-26l6 47h584zM306 935h30c3 -61 43 -98 107 -98c60 0 108 35 133 98h30c-18 -99 -83 -161 -167 -161c-81 0 -134 56 -134 140c0 3 0 12 1 21
z" />
    <glyph glyph-name="ebreve" unicode="&#x115;" horiz-adv-x="444" 
d="M339 116l24 -27c-54 -70 -119 -104 -196 -104c-108 0 -173 65 -173 173c0 164 132 312 278 312c71 0 119 -42 119 -103c0 -58 -42 -109 -120 -143c-46 -20 -64 -26 -182 -54c-1 -13 -2 -27 -2 -34c0 -64 37 -104 97 -104c53 0 96 23 155 84zM94 209c66 14 91 22 127 43
c55 30 86 73 86 121c0 34 -22 57 -55 57c-74 0 -135 -86 -158 -221zM132 677h29c3 -60 44 -96 107 -96c60 0 107 34 133 96h30c-18 -97 -83 -159 -167 -159c-79 0 -134 55 -134 135c0 4 1 13 2 24z" />
    <glyph glyph-name="Edotaccent" unicode="&#x116;" horiz-adv-x="722" 
d="M701 722l-39 -241h-45v34c0 71 -9 102 -37 127c-25 22 -59 33 -102 33h-58c-76 -1 -84 -6 -100 -69l-55 -205h23c100 2 147 34 178 125l45 -6l-89 -334l-45 8c7 32 9 47 9 68c0 62 -36 91 -111 92h-22l-59 -220c-10 -38 -11 -43 -11 -55c0 -24 18 -32 70 -32h54
c143 2 211 49 294 206l41 -8l-78 -245h-601l5 47h5c52 0 73 4 83 14c9 9 10 13 23 62l128 476c5 21 9 41 9 49c0 22 -14 27 -79 27h-26l6 47h584zM448 910c27 0 49 -22 49 -49s-22 -49 -50 -49c-26 0 -48 22 -48 49s22 49 49 49z" />
    <glyph glyph-name="edotaccent" unicode="&#x117;" horiz-adv-x="444" 
d="M339 116l24 -27c-54 -70 -119 -104 -196 -104c-108 0 -173 65 -173 173c0 164 132 312 278 312c71 0 119 -42 119 -103c0 -58 -42 -109 -120 -143c-46 -20 -64 -26 -182 -54c-1 -13 -2 -27 -2 -34c0 -64 37 -104 97 -104c53 0 96 23 155 84zM94 209c66 14 91 22 127 43
c55 30 86 73 86 121c0 34 -22 57 -55 57c-74 0 -135 -86 -158 -221zM263 644c27 0 49 -22 49 -49s-22 -49 -49 -49s-49 22 -49 49s22 49 49 49z" />
    <glyph glyph-name="Eogonek" unicode="&#x118;" horiz-adv-x="722" 
d="M253 354l-59 -220c-10 -38 -11 -43 -11 -55c0 -24 18 -32 70 -32h54c143 2 211 49 294 206l41 -8l-78 -245c-28 -32 -38 -52 -38 -75c0 -20 19 -39 40 -39c22 0 43 11 72 37l16 -22c-42 -41 -70 -56 -108 -56c-41 0 -69 28 -69 68c0 33 12 55 51 87h-565l5 47h5
c52 0 73 4 83 14c9 9 10 13 23 62l128 476c5 21 9 41 9 49c0 22 -14 27 -79 27h-26l6 47h584l-39 -241h-45v34c0 71 -9 102 -37 127c-25 22 -59 33 -102 33h-58c-76 -1 -84 -6 -100 -69l-55 -205h23c100 2 147 34 178 125l45 -6l-89 -334l-45 8c7 32 9 47 9 68
c0 62 -36 91 -111 92h-22z" />
    <glyph glyph-name="eogonek" unicode="&#x119;" horiz-adv-x="444" 
d="M339 116l24 -27c-13 -18 -24 -29 -56 -56c-53 -45 -74 -76 -74 -108c0 -20 20 -39 40 -39c22 0 43 11 72 37l16 -22c-40 -40 -70 -56 -108 -56c-40 0 -69 28 -69 67c0 31 12 54 42 80c-24 -5 -38 -7 -59 -7c-108 0 -173 65 -173 173c0 164 132 312 278 312
c71 0 119 -42 119 -103c0 -58 -42 -109 -120 -143c-46 -20 -64 -26 -182 -54c-1 -13 -2 -27 -2 -34c0 -64 37 -104 97 -104c53 0 96 23 155 84zM94 209c66 14 91 22 127 43c55 30 86 73 86 121c0 34 -22 57 -55 57c-74 0 -135 -86 -158 -221z" />
    <glyph glyph-name="Ecaron" unicode="&#x11a;" horiz-adv-x="722" 
d="M701 722l-39 -241h-45v34c0 71 -9 102 -37 127c-25 22 -59 33 -102 33h-58c-76 -1 -84 -6 -100 -69l-55 -205h23c100 2 147 34 178 125l45 -6l-89 -334l-45 8c7 32 9 47 9 68c0 62 -36 91 -111 92h-22l-59 -220c-10 -38 -11 -43 -11 -55c0 -24 18 -32 70 -32h54
c143 2 211 49 294 206l41 -8l-78 -245h-601l5 47h5c52 0 73 4 83 14c9 9 10 13 23 62l128 476c5 21 9 41 9 49c0 22 -14 27 -79 27h-26l6 47h584zM412 774l-91 166h36l86 -101l136 101h36l-153 -166h-50z" />
    <glyph glyph-name="ecaron" unicode="&#x11b;" horiz-adv-x="444" 
d="M339 116l24 -27c-54 -70 -119 -104 -196 -104c-108 0 -173 65 -173 173c0 164 132 312 278 312c71 0 119 -42 119 -103c0 -58 -42 -109 -120 -143c-46 -20 -64 -26 -182 -54c-1 -13 -2 -27 -2 -34c0 -64 37 -104 97 -104c53 0 96 23 155 84zM94 209c66 14 91 22 127 43
c55 30 86 73 86 121c0 34 -22 57 -55 57c-74 0 -135 -86 -158 -221zM223 520l-94 163h37l89 -98l142 98h37l-160 -163h-51z" />
    <glyph glyph-name="Gcircumflex" unicode="&#x11c;" horiz-adv-x="778" 
d="M739 715l-55 -281l-42 7c-1 70 -7 109 -24 147c-29 68 -85 106 -155 106c-90 0 -166 -57 -225 -169c-47 -90 -77 -207 -77 -303c0 -121 67 -194 178 -194c96 0 161 52 188 150l9 31c5 20 9 41 9 49c0 22 -14 27 -79 27h-33l5 47h325l-6 -47h-4c-52 0 -73 -4 -83 -14
c-9 -9 -9 -10 -23 -62l-60 -223h-44l-12 81c-62 -59 -122 -82 -217 -82c-173 0 -275 107 -275 287c0 128 53 250 149 346c79 79 169 119 267 119c81 0 136 -25 188 -84l62 62h34zM514 940l91 -166h-35l-86 101l-137 -101h-36l154 166h49z" />
    <glyph glyph-name="gcircumflex" unicode="&#x11d;" horiz-adv-x="537" 
d="M382 432c39 -28 59 -64 59 -111c0 -46 -25 -96 -65 -127c-35 -28 -79 -42 -135 -42c-25 0 -31 1 -72 7c-13 2 -28 3 -41 3c-36 0 -60 -16 -60 -40c0 -17 12 -29 37 -35c14 -3 21 -4 110 -9c68 -4 100 -11 132 -28c33 -19 52 -51 52 -90c0 -47 -25 -90 -68 -118
c-49 -32 -106 -44 -205 -44c-84 0 -129 11 -169 39c-22 17 -36 45 -36 73c0 33 19 65 49 83c21 13 37 19 79 28c-39 19 -55 40 -55 74c0 24 13 51 33 67c23 20 44 27 90 33c-43 23 -62 56 -62 104c0 92 94 171 205 171c32 0 55 -5 86 -19c52 41 79 54 114 54s63 -23 63 -52
c0 -25 -17 -44 -40 -44c-16 0 -22 4 -38 26c-8 11 -16 16 -26 16c-12 0 -21 -5 -37 -19zM267 432c-72 0 -121 -63 -121 -153c0 -56 34 -90 88 -90c31 0 59 13 77 34c25 31 41 82 41 129c0 49 -33 80 -85 80zM145 3c-91 0 -143 -32 -143 -86c0 -53 45 -77 142 -77
c115 0 178 32 178 91c0 25 -12 42 -37 53c-23 9 -95 19 -140 19zM325 688l91 -169h-36l-86 104l-136 -104h-36l153 169h50z" />
    <glyph glyph-name="Gbreve" unicode="&#x11e;" horiz-adv-x="778" 
d="M739 715l-55 -281l-42 7c-1 70 -7 109 -24 147c-29 68 -85 106 -155 106c-90 0 -166 -57 -225 -169c-47 -90 -77 -207 -77 -303c0 -121 67 -194 178 -194c96 0 161 52 188 150l9 31c5 20 9 41 9 49c0 22 -14 27 -79 27h-33l5 47h325l-6 -47h-4c-52 0 -73 -4 -83 -14
c-9 -9 -9 -10 -23 -62l-60 -223h-44l-12 81c-62 -59 -122 -82 -217 -82c-173 0 -275 107 -275 287c0 128 53 250 149 346c79 79 169 119 267 119c81 0 136 -25 188 -84l62 62h34zM348 935h30c3 -61 44 -98 107 -98c60 0 108 35 133 98h31c-19 -99 -84 -161 -168 -161
c-81 0 -134 56 -134 140z" />
    <glyph glyph-name="gbreve" unicode="&#x11f;" horiz-adv-x="537" 
d="M382 432c39 -28 59 -64 59 -111c0 -46 -25 -96 -65 -127c-35 -28 -79 -42 -135 -42c-25 0 -31 1 -72 7c-13 2 -28 3 -41 3c-36 0 -60 -16 -60 -40c0 -17 12 -29 37 -35c14 -3 21 -4 110 -9c68 -4 100 -11 132 -28c33 -19 52 -51 52 -90c0 -47 -25 -90 -68 -118
c-49 -32 -106 -44 -205 -44c-84 0 -129 11 -169 39c-22 17 -36 45 -36 73c0 33 19 65 49 83c21 13 37 19 79 28c-39 19 -55 40 -55 74c0 24 13 51 33 67c23 20 44 27 90 33c-43 23 -62 56 -62 104c0 92 94 171 205 171c32 0 55 -5 86 -19c52 41 79 54 114 54s63 -23 63 -52
c0 -25 -17 -44 -40 -44c-16 0 -22 4 -38 26c-8 11 -16 16 -26 16c-12 0 -21 -5 -37 -19zM267 432c-72 0 -121 -63 -121 -153c0 -56 34 -90 88 -90c31 0 59 13 77 34c25 31 41 82 41 129c0 49 -33 80 -85 80zM145 3c-91 0 -143 -32 -143 -86c0 -53 45 -77 142 -77
c115 0 178 32 178 91c0 25 -12 42 -37 53c-23 9 -95 19 -140 19zM172 677h30c3 -60 43 -96 107 -96c60 0 107 34 132 96h31c-18 -97 -83 -159 -167 -159c-79 0 -134 55 -134 135c0 5 0 14 1 24z" />
    <glyph glyph-name="Gdotaccent" unicode="&#x120;" horiz-adv-x="778" 
d="M739 715l-55 -281l-42 7c-1 70 -7 109 -24 147c-29 68 -85 106 -155 106c-90 0 -166 -57 -225 -169c-47 -90 -77 -207 -77 -303c0 -121 67 -194 178 -194c96 0 161 52 188 150l9 31c5 20 9 41 9 49c0 22 -14 27 -79 27h-33l5 47h325l-6 -47h-4c-52 0 -73 -4 -83 -14
c-9 -9 -9 -10 -23 -62l-60 -223h-44l-12 81c-62 -59 -122 -82 -217 -82c-173 0 -275 107 -275 287c0 128 53 250 149 346c79 79 169 119 267 119c81 0 136 -25 188 -84l62 62h34zM467 910c27 0 49 -22 49 -49s-22 -49 -50 -49c-26 0 -48 22 -48 49s22 49 49 49z" />
    <glyph glyph-name="gdotaccent" unicode="&#x121;" horiz-adv-x="537" 
d="M382 432c39 -28 59 -64 59 -111c0 -46 -25 -96 -65 -127c-35 -28 -79 -42 -135 -42c-25 0 -31 1 -72 7c-13 2 -28 3 -41 3c-36 0 -60 -16 -60 -40c0 -17 12 -29 37 -35c14 -3 21 -4 110 -9c68 -4 100 -11 132 -28c33 -19 52 -51 52 -90c0 -47 -25 -90 -68 -118
c-49 -32 -106 -44 -205 -44c-84 0 -129 11 -169 39c-22 17 -36 45 -36 73c0 33 19 65 49 83c21 13 37 19 79 28c-39 19 -55 40 -55 74c0 24 13 51 33 67c23 20 44 27 90 33c-43 23 -62 56 -62 104c0 92 94 171 205 171c32 0 55 -5 86 -19c52 41 79 54 114 54s63 -23 63 -52
c0 -25 -17 -44 -40 -44c-16 0 -22 4 -38 26c-8 11 -16 16 -26 16c-12 0 -21 -5 -37 -19zM267 432c-72 0 -121 -63 -121 -153c0 -56 34 -90 88 -90c31 0 59 13 77 34c25 31 41 82 41 129c0 49 -33 80 -85 80zM145 3c-91 0 -143 -32 -143 -86c0 -53 45 -77 142 -77
c115 0 178 32 178 91c0 25 -12 42 -37 53c-23 9 -95 19 -140 19zM263 644c27 0 49 -22 49 -49s-22 -49 -49 -49s-49 22 -49 49s22 49 49 49z" />
    <glyph glyph-name="Gcommaaccent" unicode="&#x122;" horiz-adv-x="778" 
d="M739 715l-55 -281l-42 7c-1 70 -7 109 -24 147c-29 68 -85 106 -155 106c-90 0 -166 -57 -225 -169c-47 -90 -77 -207 -77 -303c0 -121 67 -194 178 -194c96 0 161 52 188 150l9 31c5 20 9 41 9 49c0 22 -14 27 -79 27h-33l5 47h325l-6 -47h-4c-52 0 -73 -4 -83 -14
c-9 -9 -9 -10 -23 -62l-60 -223h-44l-12 81c-62 -59 -122 -82 -217 -82c-173 0 -275 107 -275 287c0 128 53 250 149 346c79 79 169 119 267 119c81 0 136 -25 188 -84l62 62h34zM172 -288l-12 28c67 30 107 72 114 117h-15c-31 0 -51 18 -51 47c0 32 27 56 61 56
c36 0 63 -30 63 -72c0 -69 -63 -138 -160 -176z" />
    <glyph glyph-name="gcommaaccent" unicode="&#x123;" horiz-adv-x="537" 
d="M382 432c39 -28 59 -64 59 -111c0 -46 -25 -96 -65 -127c-35 -28 -79 -42 -135 -42c-25 0 -31 1 -72 7c-13 2 -28 3 -41 3c-36 0 -60 -16 -60 -40c0 -17 12 -29 37 -35c14 -3 21 -4 110 -9c68 -4 100 -11 132 -28c33 -19 52 -51 52 -90c0 -47 -25 -90 -68 -118
c-49 -32 -106 -44 -205 -44c-84 0 -129 11 -169 39c-22 17 -36 45 -36 73c0 33 19 65 49 83c21 13 37 19 79 28c-39 19 -55 40 -55 74c0 24 13 51 33 67c23 20 44 27 90 33c-43 23 -62 56 -62 104c0 92 94 171 205 171c32 0 55 -5 86 -19c52 41 79 54 114 54s63 -23 63 -52
c0 -25 -17 -44 -40 -44c-16 0 -22 4 -38 26c-8 11 -16 16 -26 16c-12 0 -21 -5 -37 -19zM267 432c-72 0 -121 -63 -121 -153c0 -56 34 -90 88 -90c31 0 59 13 77 34c25 31 41 82 41 129c0 49 -33 80 -85 80zM145 3c-91 0 -143 -32 -143 -86c0 -53 45 -77 142 -77
c115 0 178 32 178 91c0 25 -12 42 -37 53c-23 9 -95 19 -140 19zM395 759l12 -28c-67 -31 -106 -71 -114 -117h15c30 0 50 -18 50 -47c0 -32 -26 -56 -60 -56c-37 0 -63 30 -63 72c0 69 63 139 160 176z" />
    <glyph glyph-name="Hcircumflex" unicode="&#x124;" horiz-adv-x="833" 
d="M573 354h-321l-62 -231c-6 -24 -10 -41 -10 -49c0 -22 14 -27 79 -27h26l-5 -47h-318l5 47h5c52 1 73 4 83 14c9 9 10 12 23 62l128 476c5 21 9 41 9 49c0 22 -14 27 -79 27h-26l6 47h317l-5 -47h-4c-53 -1 -74 -4 -83 -14c-9 -9 -10 -10 -23 -62l-54 -198h322l53 198
c7 25 10 41 10 49c0 22 -14 27 -79 27h-26l5 47h318l-5 -47h-5c-53 -1 -73 -4 -83 -14c-9 -9 -9 -9 -23 -62l-128 -476c-5 -20 -9 -41 -9 -49c0 -22 14 -27 79 -27h26l-6 -47h-317l5 47h4c53 0 74 4 84 14c8 9 9 12 23 62zM548 940l92 -166h-36l-86 101l-137 -101h-35
l153 166h49z" />
    <glyph glyph-name="hcircumflex" unicode="&#x125;" horiz-adv-x="611" 
d="M305 737l-119 -402c68 93 126 135 188 135c58 0 101 -42 101 -98c0 -28 -8 -67 -24 -112l-47 -138c-16 -46 -19 -56 -19 -67s8 -19 18 -19c31 0 71 38 123 118l29 -21c-54 -94 -120 -148 -182 -148c-40 0 -70 32 -70 75c0 21 5 43 18 83l53 156c11 33 15 52 15 69
c0 26 -17 42 -44 42c-47 0 -97 -36 -143 -103c-36 -52 -48 -80 -74 -168l-41 -139h-87l181 611c6 22 9 34 9 44c0 22 -16 31 -57 31h-31l4 36zM440 940l91 -166h-36l-86 101l-136 -101h-36l153 166h50z" />
    <glyph glyph-name="Hbar" unicode="&#x126;" horiz-adv-x="833" 
d="M177 494h-69l23 83h69l6 23c5 20 9 40 9 48c0 22 -14 27 -79 27h-26l6 47h317l-5 -47h-4c-54 -1 -74 -4 -83 -14c-9 -9 -10 -10 -23 -61l-7 -23h322l6 23c7 25 10 40 10 48c0 22 -14 27 -79 27h-26l5 47h318l-5 -47h-5c-53 -1 -73 -4 -83 -14c-9 -9 -9 -9 -23 -61l-6 -23
h75l-22 -83h-75l-100 -371c-5 -20 -9 -41 -9 -49c0 -22 14 -27 79 -27h26l-6 -47h-317l5 47h4c53 0 74 4 84 14c8 9 9 12 23 62l61 231h-321l-62 -231c-6 -24 -10 -41 -10 -49c0 -22 14 -27 79 -27h26l-5 -47h-318l5 47h5c52 1 73 4 83 14c9 9 10 12 23 62zM289 494l-25 -93
h322l25 93h-322z" />
    <glyph glyph-name="hbar" unicode="&#x127;" horiz-adv-x="611" 
d="M274 631h143l-22 -83h-146l-63 -213c68 93 126 135 188 135c58 0 101 -42 101 -97c0 -29 -8 -68 -24 -113l-47 -138c-16 -46 -19 -56 -19 -67s8 -19 18 -19c31 0 71 38 123 118l29 -21c-54 -94 -120 -148 -182 -148c-40 0 -70 32 -70 75c0 21 5 43 18 83l53 156
c11 33 15 52 15 69c0 25 -17 42 -44 42c-47 0 -97 -36 -143 -103c-36 -52 -48 -80 -74 -168l-41 -139h-87l162 548h-66l22 83h68c3 13 4 17 4 24c0 22 -16 31 -57 31h-31l4 36l199 15z" />
    <glyph glyph-name="Itilde" unicode="&#x128;" horiz-adv-x="407" 
d="M283 47l-6 -47h-310l5 47c59 1 72 3 84 14c9 9 10 12 23 62l128 476c8 29 10 41 10 49c0 22 -14 27 -80 27h-22l6 47h310l-5 -47c-59 -1 -72 -3 -84 -14c-9 -9 -9 -10 -23 -62l-128 -476c-9 -36 -10 -39 -10 -48c0 -23 14 -28 80 -28h22zM421 917h31
c-6 -56 -49 -104 -93 -104c-22 0 -34 3 -87 23c-44 16 -59 20 -74 20c-21 0 -36 -14 -44 -44h-30c11 65 45 104 89 104c19 0 42 -6 101 -26c35 -13 45 -15 59 -15c22 0 37 13 48 42z" />
    <glyph glyph-name="itilde" unicode="&#x129;" horiz-adv-x="333" 
d="M231 470l-106 -357c-8 -27 -12 -46 -12 -56c0 -12 7 -21 17 -21c27 0 69 42 121 121l31 -17c-28 -43 -45 -65 -62 -85c-40 -46 -81 -69 -125 -69c-38 0 -68 27 -68 62c0 23 3 38 22 101l58 195c7 24 9 34 9 44c0 22 -16 31 -57 31h-24l4 36zM312 650h30
c-7 -58 -49 -105 -93 -105c-22 0 -33 3 -86 23c-44 16 -60 21 -74 21c-22 0 -37 -15 -45 -45h-30c12 66 45 105 90 105c17 0 43 -7 100 -26c36 -13 45 -15 59 -15c22 0 37 12 49 42z" />
    <glyph glyph-name="Imacron" unicode="&#x12a;" horiz-adv-x="407" 
d="M283 47l-6 -47h-310l5 47c59 1 72 3 84 14c9 9 10 12 23 62l128 476c8 29 10 41 10 49c0 22 -14 27 -80 27h-22l6 47h310l-5 -47c-59 -1 -72 -3 -84 -14c-9 -9 -9 -10 -23 -62l-128 -476c-9 -36 -10 -39 -10 -48c0 -23 14 -28 80 -28h22zM164 877h301l-11 -54h-301z" />
    <glyph glyph-name="imacron" unicode="&#x12b;" horiz-adv-x="333" 
d="M231 470l-106 -357c-8 -28 -12 -46 -12 -56c0 -12 7 -21 17 -21c27 0 69 42 121 121l31 -17c-28 -43 -44 -65 -62 -85c-40 -46 -81 -69 -125 -69c-38 0 -68 27 -68 62c0 23 3 37 22 101l58 195c7 23 9 34 9 44c0 22 -16 31 -57 31h-24l4 36zM62 610h301l-11 -51h-301z
" />
    <glyph glyph-name="Ibreve" unicode="&#x12c;" horiz-adv-x="407" 
d="M283 47l-6 -47h-310l5 47c59 1 72 3 84 14c9 9 10 12 23 62l128 476c8 29 10 41 10 49c0 22 -14 27 -80 27h-22l6 47h310l-5 -47c-59 -1 -72 -3 -84 -14c-9 -9 -9 -10 -23 -62l-128 -476c-9 -36 -10 -39 -10 -48c0 -23 14 -28 80 -28h22zM175 935h29
c3 -61 44 -98 107 -98c60 0 108 35 133 98h31c-18 -98 -84 -161 -168 -161c-81 0 -134 55 -134 140c0 3 1 12 2 21z" />
    <glyph glyph-name="ibreve" unicode="&#x12d;" horiz-adv-x="333" 
d="M231 470l-106 -357c-8 -28 -12 -46 -12 -56c0 -12 7 -21 17 -21c27 0 69 42 121 121l31 -17c-32 -47 -46 -68 -62 -85c-40 -46 -81 -69 -125 -69c-38 0 -68 27 -68 62c0 22 3 38 22 101l58 195c6 23 9 35 9 44c0 22 -16 31 -57 31h-24l4 36zM27 677h30
c3 -60 43 -96 107 -96c60 0 107 34 132 96h31c-18 -97 -83 -159 -167 -159c-79 0 -134 55 -134 135c0 5 0 14 1 24z" />
    <glyph glyph-name="Iogonek" unicode="&#x12e;" horiz-adv-x="407" 
d="M121 722h310l-5 -47c-59 -1 -72 -3 -84 -14c-9 -9 -9 -10 -23 -62l-128 -476c-9 -36 -10 -39 -10 -48c0 -23 14 -28 80 -28h22l-6 -47c-28 -32 -38 -52 -38 -75c0 -20 19 -39 40 -39c22 0 44 11 72 37l16 -22c-41 -41 -70 -56 -107 -56c-42 0 -70 28 -70 68
c0 33 13 55 51 87h-274l5 47c59 1 72 3 84 14c9 9 10 12 23 62l128 476c8 29 10 41 10 49c0 22 -14 27 -80 27h-22z" />
    <glyph glyph-name="iogonek" unicode="&#x12f;" horiz-adv-x="333" 
d="M251 157l31 -17c-34 -52 -49 -71 -78 -102c-50 -53 -50 -53 -57 -65c-12 -18 -17 -33 -17 -48c0 -20 19 -39 41 -39c21 0 43 11 71 37l16 -22c-40 -40 -70 -56 -107 -56c-41 0 -70 27 -70 67c0 29 10 50 38 76c-11 -2 -16 -2 -23 -2c-39 0 -69 27 -69 62
c0 23 3 36 22 101l58 195c7 23 9 34 9 44c0 22 -16 31 -57 31h-24l4 36l192 15l-106 -357c-8 -27 -12 -46 -12 -57c0 -12 7 -21 17 -21c27 0 70 43 121 122zM213 714c30 0 54 -24 54 -54s-24 -54 -55 -54c-29 0 -53 25 -53 54c0 30 24 54 54 54z" />
    <glyph glyph-name="Idotaccent" unicode="&#x130;" horiz-adv-x="407" 
d="M283 47l-6 -47h-310l5 47c59 1 72 3 84 14c9 9 10 12 23 62l128 476c8 29 10 41 10 49c0 22 -14 27 -80 27h-22l6 47h310l-5 -47c-59 -1 -72 -3 -84 -14c-9 -9 -9 -10 -23 -62l-128 -476c-9 -36 -10 -39 -10 -48c0 -23 14 -28 80 -28h22zM311 910c27 0 49 -22 49 -49
s-22 -49 -50 -49c-26 0 -48 22 -48 49s22 49 49 49z" />
    <glyph glyph-name="dotlessi" unicode="&#x131;" horiz-adv-x="333" 
d="M231 470l-106 -357c-8 -28 -12 -46 -12 -56c0 -12 7 -21 17 -21c27 0 69 42 121 121l31 -17c-28 -43 -44 -65 -62 -85c-40 -46 -81 -69 -125 -69c-38 0 -68 27 -68 62c0 23 3 37 22 101l58 195c7 23 9 34 9 44c0 22 -16 31 -57 31h-24l4 36z" />
    <glyph glyph-name="IJ" unicode="&#x132;" horiz-adv-x="1018" 
d="M283 47l-6 -47h-310l5 47c59 1 72 3 84 14c9 9 10 12 23 62l128 476c8 29 10 41 10 49c0 22 -14 27 -80 27h-22l6 47h310l-5 -47c-59 -1 -72 -3 -84 -14c-9 -9 -9 -10 -23 -62l-128 -476c-9 -36 -10 -39 -10 -48c0 -23 14 -28 80 -28h22zM733 675l6 47h314l-5 -47h-4
c-48 -1 -69 -5 -77 -14c-9 -9 -9 -10 -23 -62l-109 -407c-38 -142 -116 -207 -250 -207c-121 0 -191 58 -191 158c0 81 53 145 121 145c47 0 79 -29 79 -71s-27 -70 -66 -70c-19 0 -26 2 -46 14c-4 2 -9 3 -14 3c-15 0 -26 -14 -26 -32c0 -59 53 -104 122 -104
c84 0 129 52 166 191l102 380c7 25 10 41 10 49c0 22 -14 27 -79 27h-30z" />
    <glyph glyph-name="ij" unicode="&#x133;" horiz-adv-x="599" 
d="M232 470l-106 -357c-8 -28 -12 -46 -12 -56c0 -12 7 -21 17 -21c27 0 69 42 121 121l31 -17c-28 -43 -44 -65 -62 -85c-40 -46 -81 -69 -125 -69c-38 0 -68 27 -68 62c0 23 3 37 22 101l58 195c7 23 9 34 9 44c0 22 -16 31 -57 31h-24l4 36zM214 714c30 0 54 -24 54 -54
s-24 -54 -55 -54c-29 0 -53 25 -53 54c0 30 24 54 54 54zM613 470l-119 -400c-43 -146 -51 -165 -81 -202c-39 -45 -89 -70 -143 -70c-62 0 -102 31 -102 80c0 36 23 60 56 60c28 0 48 -19 48 -47c0 -10 -1 -13 -8 -27c-3 -5 -5 -10 -5 -14c0 -10 10 -18 21 -18
c24 0 53 24 69 55c15 29 28 66 39 108c10 41 19 72 25 92l76 257c7 24 9 34 9 43c0 23 -16 32 -57 32h-35l4 36zM597 714c30 0 54 -24 54 -54s-24 -54 -55 -54c-29 0 -53 25 -53 54c0 30 24 54 54 54z" />
    <glyph glyph-name="Jcircumflex" unicode="&#x134;" horiz-adv-x="611" 
d="M326 675l6 47h314l-5 -47h-4c-48 -1 -69 -5 -77 -14c-9 -9 -9 -11 -23 -62l-109 -407c-38 -142 -116 -207 -250 -207c-121 0 -191 58 -191 158c0 81 53 145 121 145c47 0 79 -29 79 -71s-27 -70 -66 -70c-19 0 -26 2 -46 14c-4 2 -9 3 -14 3c-15 0 -26 -14 -26 -32
c0 -59 53 -104 122 -104c84 0 129 52 166 191l102 380c6 24 10 41 10 49c0 22 -14 27 -79 27h-30zM549 940l91 -166h-36l-86 101l-137 -101h-35l153 166h50z" />
    <glyph glyph-name="jcircumflex" unicode="&#x135;" horiz-adv-x="315" 
d="M279 470l-119 -400c-42 -145 -51 -165 -81 -202c-39 -45 -89 -70 -143 -70c-62 0 -102 31 -102 80c0 36 23 60 56 60c28 0 48 -19 48 -47c0 -10 -1 -13 -8 -27c-3 -5 -5 -10 -5 -14c0 -10 10 -18 21 -18c24 0 54 24 69 55c15 29 28 66 39 108c10 41 19 72 25 92l76 257
c7 24 9 34 9 43c0 23 -16 32 -57 32h-35l4 36zM260 688l91 -169h-36l-86 104l-136 -104h-36l153 169h50z" />
    <glyph glyph-name="Kcommaaccent" unicode="&#x136;" horiz-adv-x="741" 
d="M247 342l288 240c39 32 54 51 54 68c0 19 -15 25 -59 25h-22l6 47h300l-5 -47c-80 -6 -122 -26 -201 -98l-188 -157l152 -315c26 -56 30 -59 94 -58h31l-6 -47h-327l5 47h33c53 0 68 4 68 18c0 6 0 6 -16 39l-117 246l-113 -93l-36 -134c-6 -24 -10 -41 -10 -49
c0 -22 14 -27 79 -27h26l-5 -47h-318l5 47h5c52 0 73 4 83 14c9 9 10 12 23 62l128 476c5 21 9 41 9 49c0 22 -14 27 -79 27h-26l6 47h317l-5 -47h-4c-53 -1 -74 -4 -83 -14c-9 -9 -10 -11 -24 -62zM193 -288l-12 28c67 30 107 72 114 117h-15c-30 0 -50 18 -50 47
c0 32 26 56 60 56c37 0 63 -30 63 -72c0 -69 -63 -139 -160 -176z" />
    <glyph glyph-name="kcommaaccent" unicode="&#x137;" horiz-adv-x="556" 
d="M300 737l-124 -418c68 105 128 151 197 151c55 0 98 -40 98 -91c0 -67 -64 -125 -183 -167c32 -26 43 -52 48 -122c3 -40 7 -49 21 -49c24 0 47 25 104 113l31 -20c-63 -106 -112 -149 -167 -149c-50 0 -74 33 -74 99c0 5 0 24 1 51v38c0 17 -5 26 -16 26
c-3 0 -13 -1 -20 -2c-6 -1 -10 -2 -13 -2c-13 0 -23 10 -23 22c0 17 11 27 30 27c9 0 20 -2 28 -4c6 -2 11 -3 14 -3c6 0 20 5 41 16c69 34 97 65 97 106c0 29 -20 51 -46 51c-38 0 -89 -36 -134 -92c-32 -41 -70 -121 -90 -188l-38 -130h-87l181 611c7 23 9 34 9 44
c0 22 -16 31 -57 31h-31l4 36zM50 -288l-13 28c67 30 107 72 115 117h-15c-31 0 -51 18 -51 47c0 32 26 56 60 56c37 0 63 -30 63 -72c0 -69 -63 -139 -159 -176z" />
    <glyph glyph-name="kgreenlandic" unicode="&#x138;" horiz-adv-x="610" 
d="M243 163l-11 -40c-15 -57 -15 -57 -15 -64c0 -17 17 -23 68 -23h4l-10 -36h-253l10 36h4c42 1 64 5 72 14c6 6 9 11 13 26l7 23l6 24l59 220c15 57 15 57 15 64c0 17 -9 20 -71 23l10 36h253l-10 -36c-54 -2 -65 -4 -77 -14c-6 -6 -9 -12 -13 -26l-13 -47l-32 -118
l192 148c23 17 34 31 34 41c0 11 -13 16 -42 16h-19l10 36h251l-10 -36c-73 -9 -111 -27 -192 -87l-57 -44l-23 -16l84 -178c26 -52 44 -64 98 -69l-10 -36h-264l10 36h19c35 0 49 6 49 22c0 3 -1 8 -3 13l-67 150z" />
    <glyph glyph-name="Lacute" unicode="&#x139;" horiz-adv-x="667" 
d="M589 253l41 -8l-78 -245h-589l5 47h5c52 0 73 4 83 14c9 9 10 13 23 62l128 476c5 21 9 41 9 49c0 22 -14 27 -79 27h-26l6 47h336l-6 -47h-22c-53 -1 -74 -4 -83 -14c-9 -9 -10 -11 -23 -62l-125 -465c-10 -37 -11 -42 -11 -55c0 -24 18 -32 70 -32h42
c143 2 211 49 294 206zM315 774l138 143c22 22 35 30 50 30c20 0 35 -15 35 -34c0 -14 -10 -30 -25 -39l-159 -100h-39z" />
    <glyph glyph-name="lacute" unicode="&#x13a;" horiz-adv-x="333" 
d="M294 737l-185 -625c-13 -42 -13 -43 -13 -55c0 -13 7 -21 18 -21c28 0 71 42 123 121l31 -17c-60 -102 -124 -155 -187 -155c-40 0 -65 27 -65 70c0 32 3 45 27 127l127 429c6 21 9 34 9 44c0 22 -16 31 -57 31h-31l4 36zM148 774l138 143c22 22 35 30 50 30
c20 0 35 -15 35 -34c0 -15 -10 -29 -25 -39l-159 -100h-39z" />
    <glyph glyph-name="Lcommaaccent" unicode="&#x13b;" horiz-adv-x="667" 
d="M589 253l41 -8l-78 -245h-589l5 47h5c52 0 73 4 83 14c9 9 10 13 23 62l128 476c5 21 9 41 9 49c0 22 -14 27 -79 27h-26l6 47h336l-6 -47h-22c-53 -1 -74 -4 -83 -14c-9 -9 -10 -11 -23 -62l-125 -465c-10 -37 -11 -42 -11 -55c0 -24 18 -32 70 -32h42
c143 2 211 49 294 206zM116 -288l-12 28c67 30 107 72 114 117h-15c-30 0 -50 18 -50 47c0 32 26 56 60 56c37 0 63 -30 63 -72c0 -69 -63 -139 -160 -176z" />
    <glyph glyph-name="lcommaaccent" unicode="&#x13c;" horiz-adv-x="333" 
d="M294 737l-185 -625c-13 -42 -13 -43 -13 -55c0 -13 7 -21 18 -21c28 0 71 42 123 121l31 -17c-60 -102 -124 -155 -187 -155c-40 0 -65 27 -65 70c0 32 3 45 27 127l127 429c6 21 9 34 9 44c0 22 -16 31 -57 31h-31l4 36zM-22 -288l-12 28c67 30 107 72 114 117h-15
c-31 0 -50 18 -50 47c0 32 26 56 60 56c37 0 63 -30 63 -72c0 -69 -63 -139 -160 -176z" />
    <glyph glyph-name="Lcaron" unicode="&#x13d;" horiz-adv-x="667" 
d="M589 253l41 -8l-78 -245h-589l5 47h5c52 0 73 4 83 14c9 9 10 13 23 62l128 476c5 21 9 41 9 49c0 22 -14 27 -79 27h-26l6 47h336l-6 -47h-22c-53 -1 -74 -4 -83 -14c-9 -9 -10 -11 -23 -62l-125 -465c-10 -37 -11 -42 -11 -55c0 -24 18 -32 70 -32h42
c143 2 211 49 294 206zM547 489l-12 28c67 31 106 71 114 117h-15c-31 0 -50 18 -50 47c0 32 26 56 60 56c37 0 63 -30 63 -72c0 -69 -63 -139 -160 -176z" />
    <glyph glyph-name="lcaron" unicode="&#x13e;" horiz-adv-x="434" 
d="M296 737l-185 -625c-13 -42 -13 -43 -13 -55c0 -13 7 -21 18 -21c28 0 71 42 123 121l31 -17c-60 -102 -124 -155 -187 -155c-40 0 -65 27 -65 70c0 32 3 45 27 127l127 429c6 21 9 34 9 44c0 22 -16 31 -57 31h-31l4 36zM313 461l-12 28c67 31 106 72 114 117h-15
c-31 0 -51 18 -51 47c0 32 27 56 61 56c36 0 63 -30 63 -72c0 -69 -63 -138 -160 -176z" />
    <glyph glyph-name="Ldot" unicode="&#x13f;" horiz-adv-x="667" 
d="M589 253l41 -8l-78 -245h-589l5 47h5c52 0 73 4 83 14c9 9 10 13 23 62l128 476c5 21 9 41 9 49c0 22 -14 27 -79 27h-26l6 47h336l-6 -47h-22c-53 -1 -74 -4 -83 -14c-9 -9 -10 -11 -23 -62l-125 -465c-10 -37 -11 -42 -11 -55c0 -24 18 -32 70 -32h42
c143 2 211 49 294 206zM503 382c34 0 62 -27 62 -62s-27 -62 -63 -62c-33 0 -61 28 -61 62s28 62 62 62z" />
    <glyph glyph-name="ldot" unicode="&#x140;" horiz-adv-x="333" 
d="M294 737l-185 -625c-13 -42 -13 -43 -13 -55c0 -13 7 -21 18 -21c28 0 71 42 123 121l31 -17c-60 -102 -124 -155 -187 -155c-40 0 -65 27 -65 70c0 32 3 45 27 127l127 429c6 21 9 34 9 44c0 22 -16 31 -57 31h-31l4 36zM301 382c34 0 62 -27 62 -62s-27 -62 -63 -62
c-33 0 -61 28 -61 62s28 62 62 62z" />
    <glyph glyph-name="Lslash" unicode="&#x141;" horiz-adv-x="667" 
d="M116 258l-120 -69l18 65l119 68l74 277c5 21 9 41 9 49c0 22 -14 27 -79 27h-26l6 47h336l-6 -47h-22c-53 -1 -74 -4 -83 -14c-9 -9 -10 -11 -23 -62l-58 -214l198 114l-19 -64l-196 -114l-50 -187c-10 -37 -11 -42 -11 -55c0 -24 18 -32 70 -32h42c143 2 211 49 294 206
l41 -8l-78 -245h-589l5 47h5c52 0 73 4 83 14c9 9 10 13 23 62z" />
    <glyph glyph-name="lslash" unicode="&#x142;" horiz-adv-x="333" 
d="M229 427l113 48l-16 -55l-113 -48l-75 -255c-14 -42 -14 -43 -14 -55c0 -13 7 -21 18 -21c28 0 72 43 124 121l30 -17c-60 -102 -124 -155 -187 -155c-40 0 -65 27 -65 70c0 32 1 38 28 127l47 160l-103 -45l16 55l103 45l64 214c11 40 11 40 11 47c0 19 -20 28 -59 28
h-32l4 36l200 15z" />
    <glyph glyph-name="Nacute" unicode="&#x143;" horiz-adv-x="815" 
d="M315 722l253 -552l90 335c22 89 23 93 23 115c0 37 -29 55 -90 55l6 47h262l-5 -47c-84 -3 -104 -26 -142 -170l-139 -519h-39l-278 601l-99 -370c-23 -89 -24 -93 -24 -115c0 -37 29 -55 90 -55h11l-6 -47h-276l5 47c87 2 106 24 145 170l114 426c-8 27 -16 32 -65 32
h-52l5 47h211zM469 774l138 143c22 22 35 30 50 30c20 0 35 -15 35 -34c0 -14 -10 -30 -25 -39l-159 -100h-39z" />
    <glyph glyph-name="nacute" unicode="&#x144;" horiz-adv-x="611" 
d="M229 470l-29 -135c67 92 126 135 185 135c53 0 96 -44 96 -97c0 -29 -8 -67 -24 -113l-47 -138c-16 -44 -19 -56 -19 -67s8 -19 17 -19c32 0 74 40 125 120l29 -21c-54 -96 -120 -150 -184 -150c-39 0 -69 32 -69 75c0 21 5 43 18 83l53 156c11 32 15 52 15 70
c0 23 -17 41 -40 41c-43 0 -96 -39 -139 -103c-36 -53 -48 -81 -74 -168l-41 -139h-87l102 344c7 23 9 34 9 44c0 22 -16 31 -57 31h-24l4 36zM271 519l138 140c24 23 35 30 50 30c20 0 35 -15 35 -35c0 -14 -10 -29 -25 -39l-159 -96h-39z" />
    <glyph glyph-name="Ncommaaccent" unicode="&#x145;" horiz-adv-x="815" 
d="M315 722l253 -552l90 335c22 89 23 93 23 115c0 37 -29 55 -90 55l6 47h262l-5 -47c-84 -3 -104 -26 -142 -170l-139 -519h-39l-278 601l-99 -370c-23 -89 -24 -93 -24 -115c0 -37 29 -55 90 -55h11l-6 -47h-276l5 47c87 2 106 24 145 170l114 426c-8 27 -16 32 -65 32
h-52l5 47h211zM190 -288l-12 28c67 30 107 72 114 117h-15c-30 0 -50 18 -50 47c0 32 26 56 60 56c37 0 63 -30 63 -72c0 -69 -63 -139 -160 -176z" />
    <glyph glyph-name="ncommaaccent" unicode="&#x146;" horiz-adv-x="611" 
d="M229 470l-29 -135c67 92 126 135 185 135c53 0 96 -44 96 -97c0 -29 -8 -67 -24 -113l-47 -138c-16 -44 -19 -56 -19 -67s8 -19 17 -19c32 0 74 40 125 120l29 -21c-54 -96 -120 -150 -184 -150c-39 0 -69 32 -69 75c0 21 5 43 18 83l53 156c11 32 15 52 15 70
c0 23 -17 41 -40 41c-43 0 -96 -39 -139 -103c-36 -53 -48 -81 -74 -168l-41 -139h-87l102 344c7 23 9 34 9 44c0 22 -16 31 -57 31h-24l4 36zM117 -288l-12 28c67 30 107 72 114 117h-15c-31 0 -50 18 -50 47c0 32 26 56 60 56c37 0 63 -30 63 -72
c0 -69 -63 -139 -160 -176z" />
    <glyph glyph-name="Ncaron" unicode="&#x147;" horiz-adv-x="815" 
d="M315 722l253 -552l90 335c22 89 23 93 23 115c0 37 -29 55 -90 55l6 47h262l-5 -47c-84 -3 -104 -26 -142 -170l-139 -519h-39l-278 601l-99 -370c-23 -89 -24 -93 -24 -115c0 -37 29 -55 90 -55h11l-6 -47h-276l5 47c87 2 106 24 145 170l114 426c-8 27 -16 32 -65 32
h-52l5 47h211zM465 774l-91 166h36l86 -101l136 101h36l-153 -166h-50z" />
    <glyph glyph-name="ncaron" unicode="&#x148;" horiz-adv-x="611" 
d="M229 470l-29 -135c67 92 126 135 185 135c53 0 96 -44 96 -97c0 -29 -8 -67 -24 -113l-47 -138c-16 -44 -19 -56 -19 -67s8 -19 17 -19c32 0 74 40 125 120l29 -21c-54 -96 -120 -150 -184 -150c-39 0 -69 32 -69 75c0 21 5 43 18 83l53 156c11 32 15 52 15 70
c0 23 -17 41 -40 41c-43 0 -96 -39 -139 -103c-36 -53 -48 -81 -74 -168l-41 -139h-87l102 344c7 23 9 34 9 44c0 22 -16 31 -57 31h-24l4 36zM307 520l-95 163h37l89 -98l142 98h37l-159 -163h-51z" />
    <glyph glyph-name="napostrophe" unicode="&#x149;" horiz-adv-x="713" 
d="M97 433l-13 31c74 34 118 80 127 131c-7 -1 -13 -1 -17 -1c-34 0 -56 21 -56 53c0 35 29 62 67 62c41 0 70 -34 70 -80c0 -77 -70 -154 -178 -196zM379 470l-29 -135c66 92 126 135 185 135c53 0 96 -44 96 -97c0 -29 -8 -69 -24 -113l-47 -138c-16 -47 -19 -56 -19 -67
s8 -19 18 -19c31 0 73 41 124 120l29 -21c-56 -97 -120 -150 -184 -150c-39 0 -69 32 -69 75c0 22 4 41 18 83l53 156c10 31 15 52 15 69c0 24 -17 42 -40 42c-43 0 -95 -39 -139 -103c-36 -53 -48 -79 -74 -168l-41 -139h-87l102 344c6 21 9 34 9 44c0 22 -16 31 -57 31
h-24l4 36z" />
    <glyph glyph-name="Eng" unicode="&#x14a;" horiz-adv-x="815" 
d="M503 52l-247 535l-99 -370c-23 -89 -24 -93 -24 -115c0 -37 29 -55 90 -55h11l-6 -47h-276l5 47c87 2 106 24 145 170l114 426c-8 27 -16 32 -65 32h-52l5 47h211l253 -552l90 335c22 89 23 93 23 115c0 37 -29 55 -90 55l6 47h262l-5 -47c-84 -3 -104 -26 -142 -170
l-130 -487l-22 -59c-19 -51 -28 -65 -61 -93c-36 -30 -76 -46 -119 -46c-62 0 -102 32 -102 81c0 35 23 60 56 60c29 0 49 -19 49 -47c0 -11 -1 -14 -9 -27c-3 -6 -5 -11 -5 -15c0 -10 10 -18 21 -18c36 0 76 49 98 118c1 4 6 30 15 80z" />
    <glyph glyph-name="eng" unicode="&#x14b;" horiz-adv-x="522" 
d="M96 0h-87l102 344c7 24 9 34 9 44c0 23 -16 31 -57 31h-24l4 36l181 15l-29 -135c67 92 126 135 185 135c54 0 96 -44 96 -99c0 -27 -8 -65 -24 -111l-62 -180c-45 -136 -56 -160 -90 -198c-39 -42 -87 -65 -139 -65c-64 0 -105 32 -105 80c0 36 23 61 56 61
c28 0 48 -19 48 -46c0 -11 -1 -15 -9 -28c-3 -6 -5 -11 -5 -15c0 -10 10 -18 21 -18c24 0 54 22 70 52c16 29 30 65 43 106c12 41 21 71 28 91l66 196c11 34 16 56 16 74c0 23 -18 40 -42 40c-41 0 -94 -40 -137 -103c-36 -53 -48 -81 -74 -168z" />
    <glyph glyph-name="Omacron" unicode="&#x14c;" horiz-adv-x="778" 
d="M457 737c76 0 147 -28 199 -79c53 -53 79 -121 79 -208c0 -128 -53 -254 -145 -346c-80 -79 -173 -119 -278 -119c-167 0 -272 112 -272 290c0 122 46 239 128 327c85 90 181 135 289 135zM460 694c-69 0 -127 -32 -179 -100c-65 -84 -123 -266 -123 -386
c0 -111 60 -180 156 -180c78 0 151 43 196 116c62 100 108 249 108 352c0 47 -15 108 -34 138c-21 36 -72 60 -124 60zM370 877h301l-11 -54h-301z" />
    <glyph glyph-name="omacron" unicode="&#x14d;" horiz-adv-x="500" 
d="M273 470c97 0 177 -85 177 -189c0 -75 -31 -154 -85 -214c-49 -55 -109 -82 -182 -82c-109 0 -178 72 -178 187c0 84 28 155 84 212c55 56 118 86 184 86zM268 432c-38 0 -70 -18 -98 -54c-41 -55 -75 -166 -75 -250c0 -68 31 -105 89 -105c53 0 90 30 124 99
c27 55 47 135 47 187c0 77 -32 123 -87 123zM145 610h302l-11 -51h-301z" />
    <glyph glyph-name="Obreve" unicode="&#x14e;" horiz-adv-x="778" 
d="M457 737c76 0 147 -28 199 -79c53 -53 79 -121 79 -208c0 -128 -53 -254 -145 -346c-80 -79 -173 -119 -278 -119c-167 0 -272 112 -272 290c0 122 46 239 128 327c85 90 181 135 289 135zM460 694c-69 0 -127 -32 -179 -100c-65 -84 -123 -266 -123 -386
c0 -111 60 -180 156 -180c78 0 151 43 196 116c62 100 108 249 108 352c0 47 -15 108 -34 138c-21 36 -72 60 -124 60zM341 935h29c4 -61 44 -98 107 -98c61 0 109 36 133 98h31c-18 -98 -83 -161 -167 -161c-81 0 -134 56 -134 140c0 4 0 12 1 21z" />
    <glyph glyph-name="obreve" unicode="&#x14f;" horiz-adv-x="500" 
d="M273 470c97 0 177 -85 177 -189c0 -75 -31 -154 -85 -214c-49 -55 -109 -82 -182 -82c-109 0 -178 72 -178 187c0 84 28 155 84 212c55 56 118 86 184 86zM268 432c-38 0 -70 -18 -98 -54c-41 -55 -75 -166 -75 -250c0 -68 31 -105 89 -105c53 0 90 30 124 99
c27 55 47 135 47 187c0 77 -32 123 -87 123zM156 677h30c3 -60 44 -96 107 -96c60 0 107 34 132 96h31c-18 -97 -83 -159 -167 -159c-79 0 -134 55 -134 135z" />
    <glyph glyph-name="Ohungarumlaut" unicode="&#x150;" horiz-adv-x="778" 
d="M457 737c76 0 147 -28 199 -79c53 -53 79 -121 79 -208c0 -128 -53 -254 -145 -346c-80 -79 -173 -119 -278 -119c-167 0 -272 112 -272 290c0 122 46 239 128 327c85 90 181 135 289 135zM460 694c-69 0 -127 -32 -179 -100c-65 -84 -123 -266 -123 -386
c0 -111 60 -180 156 -180c78 0 151 43 196 116c62 100 108 249 108 352c0 47 -15 108 -34 138c-21 36 -72 60 -124 60zM372 774l140 143c23 23 35 30 50 30c20 0 35 -15 35 -34c0 -14 -10 -30 -25 -39l-159 -100h-41zM533 774l140 143c23 23 35 30 50 30c19 0 35 -15 35 -34
c0 -14 -10 -29 -25 -39l-159 -100h-41z" />
    <glyph glyph-name="ohungarumlaut" unicode="&#x151;" horiz-adv-x="500" 
d="M273 470c97 0 177 -85 177 -189c0 -75 -31 -154 -85 -214c-49 -55 -109 -82 -182 -82c-109 0 -178 72 -178 187c0 84 28 155 84 212c55 56 118 86 184 86zM268 432c-38 0 -70 -18 -98 -54c-41 -55 -75 -166 -75 -250c0 -68 31 -105 89 -105c53 0 90 30 124 99
c27 55 47 135 47 187c0 77 -32 123 -87 123zM174 519l140 139c26 25 34 30 50 30c20 0 35 -15 35 -35c0 -14 -10 -30 -25 -39l-159 -95h-41zM335 519l140 139c26 25 34 30 50 30c19 0 35 -15 35 -34c0 -15 -10 -31 -25 -40l-159 -95h-41z" />
    <glyph glyph-name="OE" unicode="&#x152;" horiz-adv-x="981" 
d="M924 481h-45v20c1 22 1 40 1 51c0 83 -39 123 -118 123h-28c-54 -2 -62 -8 -77 -69l-55 -205h7c82 0 129 38 157 125l45 -6l-89 -334l-45 8c7 30 9 48 9 71c0 59 -30 89 -90 89h-7l-59 -220c-10 -40 -11 -44 -11 -56c0 -21 20 -31 63 -31h22c121 3 181 45 243 167
c13 25 15 28 21 39l41 -8l-78 -245h-509c-86 0 -149 18 -195 57c-59 50 -91 131 -91 227c0 157 84 309 214 386c64 38 133 52 252 52h461zM427 165l101 378c11 43 13 52 13 69c0 43 -32 65 -94 65c-80 0 -147 -48 -204 -143c-49 -84 -84 -213 -84 -311
c0 -105 62 -177 154 -177c36 0 68 15 84 39c10 15 19 39 30 80z" />
    <glyph glyph-name="oe" unicode="&#x153;" horiz-adv-x="778" 
d="M668 116l24 -27c-56 -73 -116 -104 -198 -104c-69 0 -110 20 -143 71c-46 -47 -105 -71 -177 -71c-109 0 -174 72 -174 192c0 79 28 149 84 207c54 55 119 86 184 86c49 0 98 -22 127 -56c6 -8 11 -15 21 -32c15 16 21 22 30 29c42 36 103 59 156 59
c70 0 118 -42 118 -103c0 -58 -42 -109 -120 -143c-46 -20 -65 -26 -182 -54c-1 -13 -2 -27 -2 -34c0 -64 37 -104 97 -104c53 0 95 23 155 84zM264 430c-38 0 -70 -18 -98 -54c-41 -54 -75 -165 -75 -248c0 -69 31 -107 89 -107c53 0 90 29 124 100c30 62 46 131 46 200
c0 68 -33 109 -86 109zM424 209c75 17 90 23 126 43c55 30 86 74 86 121c0 33 -22 55 -54 55c-50 0 -89 -32 -122 -99c-20 -41 -29 -72 -36 -120z" />
    <glyph glyph-name="Racute" unicode="&#x154;" horiz-adv-x="741" 
d="M248 350l-61 -227c-6 -24 -10 -41 -10 -49c0 -22 14 -27 79 -27h26l-5 -47h-318l5 47h5c52 0 73 4 83 14c9 9 10 13 23 62l128 476c5 21 9 41 9 49c0 22 -14 27 -79 27h-26l6 47h320c84 0 133 -8 172 -28c55 -28 86 -77 86 -136c0 -65 -39 -126 -102 -158
c-37 -18 -75 -27 -153 -36c73 -28 103 -75 103 -162c0 -12 0 -23 -1 -36l-1 -51c0 -43 9 -61 30 -61c28 0 44 21 70 93l36 -15c-39 -106 -79 -147 -143 -147c-63 0 -106 49 -106 121c0 19 0 24 6 100c2 21 3 41 3 54c0 65 -32 90 -116 90h-69zM260 397h78c83 0 114 6 151 27
c54 32 82 80 82 141c0 70 -48 110 -132 110h-49c-48 -1 -59 -10 -71 -60zM352 774l138 143c22 22 35 30 50 30c20 0 35 -15 35 -34c0 -14 -10 -30 -25 -39l-159 -100h-39z" />
    <glyph glyph-name="racute" unicode="&#x155;" horiz-adv-x="444" 
d="M224 470l-23 -116c53 83 97 116 153 116c46 0 79 -31 79 -74c0 -37 -25 -64 -59 -64c-30 0 -47 16 -47 43s-4 34 -18 34c-46 0 -129 -126 -166 -251l-47 -158h-87l102 344c6 19 10 40 10 47c0 19 -18 28 -58 28h-24l4 36zM227 519l138 140c24 23 35 30 50 30
c20 0 35 -15 35 -35c0 -14 -10 -29 -25 -39l-159 -96h-39z" />
    <glyph glyph-name="Rcommaaccent" unicode="&#x156;" horiz-adv-x="741" 
d="M248 350l-61 -227c-6 -24 -10 -41 -10 -49c0 -22 14 -27 79 -27h26l-5 -47h-318l5 47h5c52 0 73 4 83 14c9 9 10 13 23 62l128 476c5 21 9 41 9 49c0 22 -14 27 -79 27h-26l6 47h320c84 0 133 -8 172 -28c55 -28 86 -77 86 -136c0 -65 -39 -126 -102 -158
c-37 -18 -75 -27 -153 -36c73 -28 103 -75 103 -162c0 -12 0 -23 -1 -36l-1 -51c0 -43 9 -61 30 -61c28 0 44 21 70 93l36 -15c-39 -106 -79 -147 -143 -147c-63 0 -106 49 -106 121c0 19 0 24 6 100c2 21 3 41 3 54c0 65 -32 90 -116 90h-69zM260 397h78c83 0 114 6 151 27
c54 32 82 80 82 141c0 70 -48 110 -132 110h-49c-48 -1 -59 -10 -71 -60zM153 -288l-12 28c67 30 107 72 114 117h-15c-30 0 -50 18 -50 47c0 32 26 56 60 56c37 0 63 -30 63 -72c0 -69 -63 -139 -160 -176z" />
    <glyph glyph-name="rcommaaccent" unicode="&#x157;" horiz-adv-x="444" 
d="M224 470l-23 -116c53 83 97 116 153 116c46 0 79 -31 79 -74c0 -37 -25 -64 -59 -64c-30 0 -47 16 -47 43s-4 34 -18 34c-46 0 -129 -126 -166 -251l-47 -158h-87l102 344c6 19 10 40 10 47c0 19 -18 28 -58 28h-24l4 36zM34 -288l-13 28c67 30 107 72 115 117h-15
c-31 0 -51 18 -51 47c0 32 26 56 60 56c37 0 63 -30 63 -72c0 -69 -63 -139 -159 -176z" />
    <glyph glyph-name="Rcaron" unicode="&#x158;" horiz-adv-x="741" 
d="M248 350l-61 -227c-6 -24 -10 -41 -10 -49c0 -22 14 -27 79 -27h26l-5 -47h-318l5 47h5c52 0 73 4 83 14c9 9 10 13 23 62l128 476c5 21 9 41 9 49c0 22 -14 27 -79 27h-26l6 47h320c84 0 133 -8 172 -28c55 -28 86 -77 86 -136c0 -65 -39 -126 -102 -158
c-37 -18 -75 -27 -153 -36c73 -28 103 -75 103 -162c0 -12 0 -23 -1 -36l-1 -51c0 -43 9 -61 30 -61c28 0 44 21 70 93l36 -15c-39 -106 -79 -147 -143 -147c-63 0 -106 49 -106 121c0 19 0 24 6 100c2 21 3 41 3 54c0 65 -32 90 -116 90h-69zM260 397h78c83 0 114 6 151 27
c54 32 82 80 82 141c0 70 -48 110 -132 110h-49c-48 -1 -59 -10 -71 -60zM428 774l-91 166h36l86 -101l136 101h36l-153 -166h-50z" />
    <glyph glyph-name="rcaron" unicode="&#x159;" horiz-adv-x="444" 
d="M224 470l-23 -116c53 83 97 116 153 116c46 0 79 -31 79 -74c0 -37 -25 -64 -59 -64c-30 0 -47 16 -47 43s-4 34 -18 34c-46 0 -129 -126 -166 -251l-47 -158h-87l102 344c6 19 10 40 10 47c0 19 -18 28 -58 28h-24l4 36zM223 520l-94 163h37l89 -98l142 98h37l-160 -163
h-51z" />
    <glyph glyph-name="Sacute" unicode="&#x15a;" horiz-adv-x="667" 
d="M632 715l-54 -261l-42 7c1 9 1 17 1 20c0 132 -65 213 -172 213c-89 0 -156 -56 -156 -131c0 -51 35 -88 114 -119l85 -34c119 -47 161 -98 161 -196c0 -132 -113 -229 -269 -229c-81 0 -150 26 -206 78l-59 -63h-35l55 285l40 -7c-1 -11 -1 -24 -1 -28
c0 -68 16 -116 53 -158c39 -44 87 -64 152 -64c104 0 174 58 174 143c0 37 -15 66 -44 87c-12 8 -22 13 -78 36l-86 36c-52 22 -80 39 -100 61c-30 33 -47 77 -47 122c0 126 105 224 240 224c74 0 130 -23 182 -74l54 52h38zM315 774l138 143c22 22 35 30 50 30
c20 0 35 -15 35 -34c0 -14 -10 -30 -25 -39l-159 -100h-39z" />
    <glyph glyph-name="sacute" unicode="&#x15b;" horiz-adv-x="444" 
d="M244 470c87 0 148 -43 148 -104c0 -36 -23 -61 -57 -61c-31 0 -52 19 -52 46c0 15 2 20 16 40c3 5 5 10 5 14c0 16 -26 27 -65 27c-58 0 -102 -34 -102 -80c0 -39 17 -55 82 -78c55 -20 65 -24 87 -39c32 -22 50 -56 50 -96c0 -91 -79 -154 -194 -154
c-101 0 -163 43 -163 113c0 39 25 67 58 67c29 0 51 -22 51 -50c0 -18 -2 -23 -21 -43c-4 -4 -7 -10 -7 -15c0 -20 36 -34 87 -34c69 0 114 34 114 88c0 35 -14 49 -71 72c-42 17 -62 26 -78 34c-44 23 -69 59 -69 102c0 87 76 151 181 151zM201 519l138 140
c24 23 35 30 50 30c20 0 35 -15 35 -35c0 -14 -10 -29 -25 -39l-159 -96h-39z" />
    <glyph glyph-name="Scircumflex" unicode="&#x15c;" horiz-adv-x="667" 
d="M632 715l-54 -261l-42 7c1 9 1 17 1 20c0 132 -65 213 -172 213c-89 0 -156 -56 -156 -131c0 -51 35 -88 114 -119l85 -34c119 -47 161 -98 161 -196c0 -132 -113 -229 -269 -229c-81 0 -150 26 -206 78l-59 -63h-35l55 285l40 -7c-1 -11 -1 -24 -1 -28
c0 -68 16 -116 53 -158c39 -44 87 -64 152 -64c104 0 174 58 174 143c0 37 -15 66 -44 87c-12 8 -22 13 -78 36l-86 36c-52 22 -80 39 -100 61c-30 33 -47 77 -47 122c0 126 105 224 240 224c74 0 130 -23 182 -74l54 52h38zM416 940l91 -166h-35l-86 101l-137 -101h-35
l153 166h49z" />
    <glyph glyph-name="scircumflex" unicode="&#x15d;" horiz-adv-x="444" 
d="M244 470c87 0 148 -43 148 -104c0 -36 -23 -61 -57 -61c-31 0 -52 19 -52 46c0 15 2 20 16 40c3 5 5 10 5 14c0 16 -26 27 -65 27c-58 0 -102 -34 -102 -80c0 -39 17 -55 82 -78c55 -20 65 -24 87 -39c32 -22 50 -56 50 -96c0 -91 -79 -154 -194 -154
c-101 0 -163 43 -163 113c0 39 25 67 58 67c29 0 51 -22 51 -50c0 -18 -2 -23 -21 -43c-4 -4 -7 -10 -7 -15c0 -20 36 -34 87 -34c69 0 114 34 114 88c0 35 -14 49 -71 72c-42 17 -62 26 -78 34c-44 23 -69 59 -69 102c0 87 76 151 181 151zM295 688l92 -169h-36l-86 104
l-137 -104h-35l153 169h49z" />
    <glyph glyph-name="Scedilla" unicode="&#x15e;" horiz-adv-x="667" 
d="M300 -15l-29 -49c14 2 20 3 29 3c49 0 82 -27 82 -68c0 -53 -49 -87 -124 -87c-33 0 -60 5 -88 17l18 33c24 -8 42 -12 62 -12c34 0 56 16 56 40s-19 39 -48 39c-10 0 -20 -2 -33 -6l-9 6l50 86c-62 5 -131 35 -172 76l-59 -63h-35l55 285l40 -7c-1 -11 -1 -24 -1 -28
c0 -68 16 -116 53 -158c39 -44 87 -64 152 -64c104 0 174 58 174 143c0 37 -15 66 -44 87c-12 8 -22 13 -78 36l-86 36c-52 22 -80 39 -100 61c-30 33 -47 77 -47 122c0 126 105 224 240 224c74 0 130 -23 182 -74l54 52h38l-54 -261l-42 7c1 9 1 17 1 20
c0 132 -65 213 -172 213c-89 0 -156 -56 -156 -131c0 -51 35 -88 114 -119l85 -34c119 -47 161 -98 161 -196c0 -133 -111 -228 -269 -229z" />
    <glyph glyph-name="scedilla" unicode="&#x15f;" horiz-adv-x="444" 
d="M169 -15l-29 -49c13 2 19 3 29 3c49 0 82 -27 82 -68c0 -53 -49 -87 -124 -87c-33 0 -60 5 -88 17l18 33c23 -8 42 -12 62 -12c34 0 56 16 56 40s-19 39 -48 39c-11 0 -19 -2 -34 -6l-8 5l49 86c-87 9 -135 49 -135 112c0 39 25 67 58 67c29 0 51 -22 51 -50
c0 -18 -2 -23 -21 -43c-4 -4 -7 -10 -7 -15c0 -20 36 -34 87 -34c69 0 114 34 114 88c0 35 -14 49 -71 72c-42 17 -62 26 -78 34c-44 23 -69 59 -69 102c0 86 77 151 178 151c90 0 151 -42 151 -104c0 -36 -23 -61 -57 -61c-31 0 -52 19 -52 46c0 15 2 20 16 40
c3 5 5 10 5 14c0 16 -26 27 -65 27c-58 0 -102 -34 -102 -80c0 -39 17 -55 82 -78c55 -20 65 -24 87 -39c32 -22 50 -56 50 -96c0 -89 -74 -151 -187 -154z" />
    <glyph glyph-name="Scaron" unicode="&#x160;" horiz-adv-x="667" 
d="M632 715l-54 -261l-42 7c1 9 1 17 1 20c0 132 -65 213 -172 213c-89 0 -156 -56 -156 -131c0 -51 35 -88 114 -119l85 -34c119 -47 161 -98 161 -196c0 -132 -113 -229 -269 -229c-81 0 -150 26 -206 78l-59 -63h-35l55 285l40 -7c-1 -11 -1 -24 -1 -28
c0 -68 16 -116 53 -158c39 -44 87 -64 152 -64c104 0 174 58 174 143c0 37 -15 66 -44 87c-12 8 -22 13 -78 36l-86 36c-52 22 -80 39 -100 61c-30 33 -47 77 -47 122c0 126 105 224 240 224c74 0 130 -23 182 -74l54 52h38zM371 774l-91 166h36l86 -101l136 101h36
l-153 -166h-50z" />
    <glyph glyph-name="scaron" unicode="&#x161;" horiz-adv-x="444" 
d="M244 470c87 0 148 -43 148 -104c0 -36 -23 -61 -57 -61c-31 0 -52 19 -52 46c0 15 2 20 16 40c3 5 5 10 5 14c0 16 -26 27 -65 27c-58 0 -102 -34 -102 -80c0 -39 17 -55 82 -78c55 -20 65 -24 87 -39c32 -22 50 -56 50 -96c0 -91 -79 -154 -194 -154
c-101 0 -163 43 -163 113c0 39 25 67 58 67c29 0 51 -22 51 -50c0 -18 -2 -23 -21 -43c-4 -4 -7 -10 -7 -15c0 -20 36 -34 87 -34c69 0 114 35 114 88c0 35 -14 49 -71 72c-43 17 -62 25 -78 34c-44 23 -69 59 -69 102c0 87 76 151 181 151zM224 520l-95 163h37l89 -98
l142 98h37l-159 -163h-51z" />
    <glyph glyph-name="Tcommaaccent" unicode="&#x162;" horiz-adv-x="685" 
d="M726 722l-42 -275l-42 5c2 40 2 48 2 70c0 58 -14 106 -37 128c-18 16 -47 25 -85 25h-14c-33 -1 -35 -3 -50 -56l-133 -496c-5 -21 -9 -41 -9 -49c0 -22 14 -27 79 -27h37l-6 -47h-346l5 47h22c53 0 74 4 84 14c8 9 10 13 23 62l136 510c4 13 5 19 5 25
c0 12 -10 17 -33 17h-14c-89 -2 -140 -52 -227 -217l-41 6l88 258h598zM125 -288l-12 28c67 30 107 72 114 117h-15c-30 0 -50 18 -50 47c0 32 26 56 60 56c37 0 63 -30 63 -72c0 -69 -63 -139 -160 -176z" />
    <glyph glyph-name="tcommaaccent" unicode="&#x163;" horiz-adv-x="352" 
d="M268 621l-49 -166h110l-14 -47h-110l-94 -319c-3 -8 -3 -12 -3 -23c0 -17 9 -28 23 -28c33 0 61 28 124 122l30 -20c-26 -42 -37 -59 -50 -77c-36 -47 -91 -78 -138 -78c-41 0 -72 33 -72 76c0 23 5 48 19 95l75 252h-94l13 47h95l49 166h86zM7 -288l-12 28
c67 30 107 72 114 117h-15c-31 0 -50 18 -50 47c0 32 26 56 60 56c37 0 63 -30 63 -72c0 -69 -63 -139 -160 -176z" />
    <glyph glyph-name="Tcaron" unicode="&#x164;" horiz-adv-x="685" 
d="M726 722l-42 -275l-42 5c2 40 2 48 2 70c0 58 -14 106 -37 128c-18 16 -47 25 -85 25h-14c-33 -1 -35 -3 -50 -56l-133 -496c-5 -21 -9 -41 -9 -49c0 -22 14 -27 79 -27h37l-6 -47h-346l5 47h22c53 0 74 4 84 14c8 9 10 13 23 62l136 510c4 13 5 19 5 25
c0 12 -10 17 -33 17h-14c-89 -2 -140 -52 -227 -217l-41 6l88 258h598zM400 774l-91 166h36l86 -101l136 101h36l-153 -166h-50z" />
    <glyph glyph-name="tcaron" unicode="&#x165;" horiz-adv-x="352" 
d="M269 621l-49 -166h109l-14 -47h-109l-95 -319c-2 -8 -3 -15 -3 -23c0 -17 9 -28 23 -28c33 0 61 27 124 122l30 -20c-26 -42 -36 -58 -50 -77c-35 -47 -91 -78 -138 -78c-41 0 -72 33 -72 76c0 23 4 44 19 95l75 252h-94l14 47h94l49 166h87zM268 461l-12 28
c67 30 107 72 114 117h-15c-31 0 -50 18 -50 47c0 32 26 56 60 56c37 0 63 -30 63 -72c0 -69 -63 -138 -160 -176z" />
    <glyph glyph-name="Tbar" unicode="&#x166;" horiz-adv-x="685" 
d="M400 401h146l-13 -47h-146l-62 -231c-5 -21 -9 -41 -9 -49c0 -22 14 -27 79 -27h37l-6 -47h-346l5 47h22c53 0 74 4 84 14c8 9 10 13 23 62l61 231h-143l12 47h144l62 232c4 14 5 19 5 25c0 12 -10 17 -33 17h-14c-89 -2 -140 -52 -227 -217l-41 6l88 258h598l-42 -275
l-42 6c1 32 2 49 2 70c0 109 -35 152 -122 152h-14c-33 -1 -35 -3 -50 -56z" />
    <glyph glyph-name="tbar" unicode="&#x167;" horiz-adv-x="352" 
d="M187 345h114l-13 -45h-114l-62 -211c-3 -8 -4 -16 -4 -23c0 -17 9 -28 24 -28c32 0 60 27 123 122l30 -20c-26 -43 -36 -59 -50 -77c-34 -46 -90 -78 -136 -78c-42 0 -73 33 -73 78c0 20 6 48 19 92l43 145h-90l13 45h90l18 63h-94l14 47h94l50 166h86l-49 -166h109
l-14 -47h-109z" />
    <glyph glyph-name="Utilde" unicode="&#x168;" horiz-adv-x="815" 
d="M100 675l5 47h318l-6 -47h-4c-53 -1 -74 -4 -83 -14c-9 -9 -10 -12 -23 -62l-90 -333c-7 -29 -14 -76 -14 -103c0 -85 59 -135 161 -135c77 0 135 28 174 84c24 34 36 67 65 178l58 215c22 89 23 93 23 115c0 38 -29 56 -93 55l6 47h263l-5 -47c-88 -4 -97 -15 -140 -170
l-56 -211c-27 -102 -27 -102 -41 -137c-31 -81 -70 -124 -135 -149c-39 -15 -89 -23 -140 -23c-163 0 -250 67 -250 191c0 35 4 59 20 118l82 305c5 21 9 41 9 49c0 22 -14 27 -79 27h-25zM676 917h30c-6 -56 -49 -104 -93 -104c-22 0 -34 3 -86 23c-45 16 -60 20 -74 20
c-22 0 -36 -14 -45 -44h-30c12 65 45 104 90 104c18 0 42 -6 100 -26c35 -13 45 -15 59 -15c22 0 37 12 49 42z" />
    <glyph glyph-name="utilde" unicode="&#x169;" horiz-adv-x="611" 
d="M509 455l-99 -332c-8 -29 -12 -48 -12 -59c0 -13 9 -24 18 -24c22 0 61 40 110 113l30 -18c-71 -109 -120 -150 -181 -150c-37 0 -64 27 -64 66c0 19 2 33 12 68c-59 -92 -116 -133 -186 -133c-57 0 -95 37 -95 92c0 31 0 31 31 131l40 135c5 19 8 33 8 43
c0 23 -15 32 -56 32h-24l3 36l193 15l-98 -328c-8 -28 -11 -44 -11 -57c0 -24 19 -43 43 -43c71 0 163 114 204 253l47 160h87zM482 650h30c-7 -58 -49 -105 -93 -105c-22 0 -33 3 -87 23c-43 17 -59 21 -73 21c-22 0 -37 -15 -45 -45h-30c12 66 45 105 90 105
c17 0 43 -7 100 -26c36 -13 45 -15 59 -15c22 0 37 12 49 42z" />
    <glyph glyph-name="Umacron" unicode="&#x16a;" horiz-adv-x="815" 
d="M100 675l5 47h318l-6 -47h-4c-53 -1 -74 -4 -83 -14c-9 -9 -10 -12 -23 -62l-90 -333c-7 -29 -14 -76 -14 -103c0 -85 59 -135 161 -135c77 0 135 28 174 84c24 34 36 67 65 178l58 215c22 89 23 93 23 115c0 38 -29 56 -93 55l6 47h263l-5 -47c-88 -4 -97 -15 -140 -170
l-56 -211c-27 -102 -27 -102 -41 -137c-31 -81 -70 -124 -135 -149c-39 -15 -89 -23 -140 -23c-163 0 -250 67 -250 191c0 35 4 59 20 118l82 305c5 21 9 41 9 49c0 22 -14 27 -79 27h-25zM408 877h301l-11 -54h-301z" />
    <glyph glyph-name="umacron" unicode="&#x16b;" horiz-adv-x="611" 
d="M509 455l-99 -332c-8 -29 -12 -48 -12 -59c0 -13 9 -24 18 -24c22 0 61 40 110 113l30 -18c-71 -109 -120 -150 -181 -150c-37 0 -64 27 -64 66c0 19 2 33 12 68c-59 -92 -116 -133 -186 -133c-57 0 -95 37 -95 92c0 31 0 31 31 131l40 135c5 19 8 33 8 43
c0 23 -15 32 -56 32h-24l3 36l193 15l-98 -328c-8 -28 -11 -44 -11 -57c0 -24 19 -43 43 -43c71 0 163 114 204 253l47 160h87zM201 610h301l-11 -51h-301z" />
    <glyph glyph-name="Ubreve" unicode="&#x16c;" horiz-adv-x="815" 
d="M100 675l5 47h318l-6 -47h-4c-53 -1 -74 -4 -83 -14c-9 -9 -10 -12 -23 -62l-90 -333c-7 -29 -14 -76 -14 -103c0 -85 59 -135 161 -135c77 0 135 28 174 84c24 34 36 67 65 178l58 215c22 89 23 93 23 115c0 38 -29 56 -93 55l6 47h263l-5 -47c-88 -4 -97 -15 -140 -170
l-56 -211c-27 -102 -27 -102 -41 -137c-31 -81 -70 -124 -135 -149c-39 -15 -89 -23 -140 -23c-163 0 -250 67 -250 191c0 35 4 59 20 118l82 305c5 21 9 41 9 49c0 22 -14 27 -79 27h-25zM396 935h29c4 -61 44 -98 107 -98c61 0 108 35 133 98h31
c-18 -99 -83 -161 -168 -161c-80 0 -133 56 -133 140c0 4 0 12 1 21z" />
    <glyph glyph-name="ubreve" unicode="&#x16d;" horiz-adv-x="611" 
d="M509 455l-99 -332c-8 -29 -12 -48 -12 -59c0 -13 9 -24 18 -24c22 0 61 40 110 113l30 -18c-71 -109 -120 -150 -181 -150c-37 0 -64 27 -64 66c0 19 2 33 12 68c-59 -92 -116 -133 -186 -133c-57 0 -95 37 -95 92c0 31 0 31 31 131l40 135c5 19 8 33 8 43
c0 23 -15 32 -56 32h-24l3 36l193 15l-98 -328c-8 -28 -11 -44 -11 -57c0 -24 19 -43 43 -43c71 0 163 114 204 253l47 160h87zM224 677h30c3 -60 43 -96 107 -96c60 0 107 34 132 96h31c-17 -96 -83 -159 -167 -159c-79 0 -134 55 -134 135c0 5 0 14 1 24z" />
    <glyph glyph-name="Uring" unicode="&#x16e;" horiz-adv-x="815" 
d="M100 675l5 47h318l-6 -47h-4c-53 -1 -74 -4 -83 -14c-9 -9 -10 -12 -23 -62l-90 -333c-7 -29 -14 -76 -14 -103c0 -85 59 -135 161 -135c77 0 135 28 174 84c24 34 36 67 65 178l58 215c22 89 23 93 23 115c0 38 -29 56 -93 55l6 47h263l-5 -47c-88 -4 -97 -15 -140 -170
l-56 -211c-27 -102 -27 -102 -41 -137c-31 -81 -70 -124 -135 -149c-39 -15 -89 -23 -140 -23c-163 0 -250 67 -250 191c0 35 4 59 20 118l82 305c5 21 9 41 9 49c0 22 -14 27 -79 27h-25zM546 966c55 0 100 -45 100 -99c0 -56 -45 -100 -101 -100c-53 0 -98 45 -98 100
c0 54 45 99 99 99zM546 930c-35 0 -63 -28 -63 -63s29 -64 63 -64c35 0 64 28 64 64c0 35 -28 63 -64 63z" />
    <glyph glyph-name="uring" unicode="&#x16f;" horiz-adv-x="611" 
d="M509 455l-99 -332c-8 -29 -12 -48 -12 -59c0 -13 9 -24 18 -24c22 0 61 40 110 113l30 -18c-71 -109 -120 -150 -181 -150c-37 0 -64 27 -64 66c0 19 2 33 12 68c-59 -92 -116 -133 -186 -133c-57 0 -95 37 -95 92c0 31 0 31 31 131l40 135c5 19 8 33 8 43
c0 23 -15 32 -56 32h-24l3 36l193 15l-98 -328c-8 -28 -11 -44 -11 -57c0 -24 19 -43 43 -43c71 0 163 114 204 253l47 160h87zM368 712c55 0 100 -45 100 -99c0 -56 -44 -100 -101 -100c-53 0 -98 45 -98 100c0 54 45 99 99 99zM369 676c-36 0 -64 -28 -64 -63
s29 -64 63 -64c36 0 64 28 64 64c0 35 -28 63 -63 63z" />
    <glyph glyph-name="Uhungarumlaut" unicode="&#x170;" horiz-adv-x="815" 
d="M100 675l5 47h318l-6 -47h-4c-53 -1 -74 -4 -83 -14c-9 -9 -10 -12 -23 -62l-90 -333c-7 -29 -14 -76 -14 -103c0 -85 59 -135 161 -135c77 0 135 28 174 84c24 34 36 67 65 178l58 215c22 89 23 93 23 115c0 38 -29 56 -93 55l6 47h263l-5 -47c-88 -4 -97 -15 -140 -170
l-56 -211c-27 -102 -27 -102 -41 -137c-31 -81 -70 -124 -135 -149c-39 -15 -89 -23 -140 -23c-163 0 -250 67 -250 191c0 35 4 59 20 118l82 305c5 21 9 41 9 49c0 22 -14 27 -79 27h-25zM391 774l140 143c23 23 35 30 50 30c20 0 35 -15 35 -34c0 -14 -10 -30 -25 -39
l-159 -100h-41zM552 774l141 143c22 23 34 30 49 30c19 0 35 -15 35 -34c0 -14 -10 -30 -25 -39l-159 -100h-41z" />
    <glyph glyph-name="uhungarumlaut" unicode="&#x171;" horiz-adv-x="611" 
d="M509 455l-99 -332c-8 -29 -12 -48 -12 -59c0 -13 9 -24 18 -24c22 0 61 40 110 113l30 -18c-71 -109 -120 -150 -181 -150c-37 0 -64 27 -64 66c0 19 2 33 12 68c-59 -92 -116 -133 -186 -133c-57 0 -95 37 -95 92c0 31 0 31 31 131l40 135c5 19 8 33 8 43
c0 23 -15 32 -56 32h-24l3 36l193 15l-98 -328c-8 -28 -11 -44 -11 -57c0 -24 19 -43 43 -43c71 0 163 114 204 253l47 160h87zM225 519l140 139c26 25 34 30 50 30c20 0 35 -15 35 -35c0 -14 -10 -30 -25 -39l-159 -95h-41zM386 519l140 139c26 25 34 30 50 30
c19 0 35 -15 35 -34c0 -15 -10 -31 -25 -40l-159 -95h-41z" />
    <glyph glyph-name="Uogonek" unicode="&#x172;" horiz-adv-x="815" 
d="M597 722h263l-5 -47c-88 -4 -97 -15 -140 -170l-56 -211c-45 -174 -66 -215 -141 -269c-35 -25 -47 -36 -57 -52c-10 -17 -16 -34 -16 -49c0 -19 20 -38 40 -38c22 0 43 11 72 37l16 -22c-41 -40 -71 -56 -108 -56c-41 0 -69 28 -69 68c0 31 14 56 45 82
c-36 -7 -63 -10 -98 -10c-163 0 -250 66 -250 191c0 35 4 59 20 118l82 305c5 21 9 41 9 49c0 22 -14 27 -79 27h-25l5 47h318l-6 -47h-4c-53 -1 -74 -4 -83 -14c-9 -9 -10 -12 -23 -62l-90 -333c-7 -29 -14 -76 -14 -103c0 -85 59 -135 161 -135c77 0 135 28 174 84
c24 34 36 67 65 178l58 215c22 89 23 93 23 115c0 38 -29 56 -93 55z" />
    <glyph glyph-name="uogonek" unicode="&#x173;" horiz-adv-x="611" 
d="M526 153l30 -18c-38 -59 -52 -77 -93 -115c-46 -42 -60 -65 -60 -95c0 -20 19 -39 40 -39c22 0 43 11 72 37l16 -22c-41 -40 -71 -56 -108 -56c-41 0 -69 28 -69 67c0 28 9 48 34 74c-5 -1 -11 -1 -14 -1c-36 0 -63 28 -63 66c0 19 2 33 12 68
c-59 -92 -116 -133 -186 -133c-57 0 -95 37 -95 92c0 31 0 31 31 131l40 135c5 19 8 33 8 43c0 23 -15 32 -56 32h-24l3 36l193 15l-98 -328c-8 -28 -11 -44 -11 -57c0 -24 19 -43 43 -43c71 0 163 114 204 253l47 160h87l-99 -332c-8 -29 -12 -48 -12 -59
c0 -13 9 -24 18 -24c22 0 61 40 110 113z" />
    <glyph glyph-name="Wcircumflex" unicode="&#x174;" horiz-adv-x="926" 
d="M630 196l163 376c16 38 23 59 23 72c0 21 -21 31 -64 31h-17l5 47h233l-5 -47c-68 -15 -88 -37 -135 -143l-238 -547h-38l-70 505l-227 -505h-35l-79 602c-12 79 -16 84 -67 88h-26l5 47h267l-6 -47h-18c-42 0 -57 -8 -57 -30c0 -7 0 -12 5 -46l54 -403l168 383l-7 50
c-6 42 -12 46 -75 46h-13l5 47h278l-5 -47h-19c-48 0 -61 -6 -61 -27c0 -8 1 -17 2 -27zM585 940l91 -166h-35l-87 101l-136 -101h-36l154 166h49z" />
    <glyph glyph-name="wcircumflex" unicode="&#x175;" horiz-adv-x="778" 
d="M225 470l-87 -293c-19 -66 -20 -69 -20 -91c0 -27 22 -48 52 -48c34 0 68 24 104 75c40 55 70 114 87 175l50 167h87l-65 -216c-17 -58 -23 -93 -23 -129c0 -45 21 -72 55 -72c47 0 95 44 139 128c26 51 45 114 45 152c0 21 -4 29 -28 56c-16 18 -21 29 -21 46
c0 28 20 50 46 50c35 0 62 -34 62 -79c0 -82 -40 -205 -95 -289c-53 -82 -106 -117 -174 -117c-66 0 -108 42 -108 108c0 11 1 26 2 41c-36 -54 -51 -72 -76 -97c-34 -34 -74 -52 -118 -52c-65 0 -107 38 -107 97c0 21 5 45 17 85l52 177c5 17 8 33 8 43c0 23 -15 32 -56 32
h-17l4 36zM519 688l91 -169h-36l-86 104l-136 -104h-36l153 169h50z" />
    <glyph glyph-name="Ycircumflex" unicode="&#x176;" horiz-adv-x="685" 
d="M362 364l170 218c16 19 26 41 26 54c0 24 -24 39 -64 39h-23l5 47h282l-5 -47c-72 -4 -101 -23 -171 -111l-200 -256l-50 -185c-7 -26 -10 -41 -10 -49c0 -22 14 -27 79 -27h37l-5 -47h-347l6 47h22c52 0 74 4 83 14c9 9 10 13 23 62l50 185l-120 298
c-25 59 -39 68 -101 69h-17l5 47h308l-5 -47h-28c-44 0 -61 -7 -61 -24c0 -8 3 -20 11 -38zM474 940l92 -166h-36l-86 101l-137 -101h-35l153 166h49z" />
    <glyph glyph-name="ycircumflex" unicode="&#x177;" horiz-adv-x="500" 
d="M220 315l44 -211c65 103 104 197 104 248c0 14 0 17 -6 51c-1 6 -2 11 -2 17c0 27 22 50 49 50s45 -20 45 -51c0 -35 -12 -65 -68 -175c-75 -145 -155 -278 -202 -338c-59 -74 -113 -108 -171 -108c-52 0 -92 33 -92 74c0 31 23 54 52 54c19 0 36 -12 43 -31
c3 -8 3 -8 3 -39c0 -10 7 -16 19 -16c27 0 66 28 106 77c17 22 24 32 57 84c-22 125 -41 213 -71 325c-11 42 -24 63 -38 63c-17 0 -27 -14 -65 -96l-31 14c42 108 86 163 130 163c43 0 71 -46 94 -155zM349 688l92 -169h-36l-86 104l-137 -104h-35l153 169h49z" />
    <glyph glyph-name="Ydieresis" unicode="&#x178;" horiz-adv-x="685" 
d="M362 364l170 218c16 19 26 41 26 54c0 24 -24 39 -64 39h-23l5 47h282l-5 -47c-72 -4 -101 -23 -171 -111l-200 -256l-50 -185c-7 -26 -10 -41 -10 -49c0 -22 14 -27 79 -27h37l-5 -47h-347l6 47h22c52 0 74 4 83 14c9 9 10 13 23 62l50 185l-120 298
c-25 59 -39 68 -101 69h-17l5 47h308l-5 -47h-28c-44 0 -61 -7 -61 -24c0 -8 3 -20 11 -38zM327 910c27 0 49 -22 49 -49s-22 -49 -50 -49c-26 0 -48 22 -48 49s22 49 49 49zM529 910c27 0 49 -22 49 -49s-22 -49 -50 -49c-26 0 -48 22 -48 49s22 49 49 49z" />
    <glyph glyph-name="Zacute" unicode="&#x179;" horiz-adv-x="667" 
d="M667 722l-6 -39l-534 -636h135c155 1 224 50 307 221l42 -12l-82 -256h-554l6 38l533 637h-96c-163 -4 -196 -27 -294 -203l-41 11l81 239h503zM355 774l138 143c22 22 35 30 50 30c20 0 35 -15 35 -34c0 -14 -10 -30 -25 -39l-159 -100h-39z" />
    <glyph glyph-name="zacute" unicode="&#x17a;" horiz-adv-x="463" 
d="M353 151l35 -12c-31 -94 -94 -154 -162 -154c-35 0 -72 10 -119 32c-61 30 -65 31 -77 31c-9 0 -9 -1 -9 -17c0 -29 -11 -46 -30 -46c-15 0 -24 9 -24 24c0 30 26 77 72 128c57 63 80 80 227 171c38 24 49 34 74 60c-24 -6 -37 -8 -51 -8c-31 0 -38 1 -92 20
c-25 8 -50 14 -60 14c-25 0 -51 -25 -82 -79l-33 16c48 94 101 139 165 139c23 0 39 -5 84 -28c31 -15 55 -23 72 -23c15 0 20 5 26 26c5 17 13 25 24 25c14 0 24 -10 24 -23c0 -26 -32 -81 -79 -134c-49 -56 -88 -87 -167 -132c-80 -47 -98 -59 -121 -89c24 7 35 9 49 9
c28 0 40 -3 101 -24c27 -10 53 -16 67 -16c33 0 59 28 86 90zM197 519l138 140c24 24 35 30 50 30c20 0 35 -15 35 -35c0 -14 -10 -29 -25 -39l-159 -96h-39z" />
    <glyph glyph-name="Zdotaccent" unicode="&#x17b;" horiz-adv-x="667" 
d="M667 722l-6 -39l-534 -636h135c155 1 224 50 307 221l42 -12l-82 -256h-554l6 38l533 637h-96c-163 -4 -196 -27 -294 -203l-41 11l81 239h503zM441 910c27 0 49 -22 49 -49s-22 -49 -50 -49c-26 0 -48 22 -48 49s22 49 49 49z" />
    <glyph glyph-name="zdotaccent" unicode="&#x17c;" horiz-adv-x="463" 
d="M353 151l35 -12c-31 -94 -94 -154 -162 -154c-35 0 -72 10 -119 32c-61 30 -65 31 -77 31c-9 0 -9 -1 -9 -17c0 -29 -11 -46 -30 -46c-15 0 -24 9 -24 24c0 30 26 77 72 128c57 63 80 80 227 171c38 24 49 34 74 60c-24 -6 -37 -8 -51 -8c-31 0 -38 1 -92 20
c-25 8 -50 14 -60 14c-25 0 -51 -25 -82 -79l-33 16c48 94 101 139 165 139c23 0 39 -5 84 -28c31 -15 55 -23 72 -23c15 0 20 5 26 26c5 17 13 25 24 25c14 0 24 -10 24 -23c0 -26 -32 -81 -79 -134c-49 -56 -88 -87 -167 -132c-80 -47 -98 -59 -121 -89c24 7 35 9 49 9
c28 0 40 -3 101 -24c27 -10 53 -16 67 -16c33 0 59 28 86 90zM272 644c27 0 49 -22 49 -49s-22 -49 -49 -49s-49 22 -49 49s22 49 49 49z" />
    <glyph glyph-name="Zcaron" unicode="&#x17d;" horiz-adv-x="667" 
d="M667 722l-6 -39l-534 -636h135c155 1 224 50 307 221l42 -12l-82 -256h-554l6 38l533 637h-96c-163 -4 -196 -27 -294 -203l-41 11l81 239h503zM391 774l-91 166h36l86 -101l136 101h36l-153 -166h-50z" />
    <glyph glyph-name="zcaron" unicode="&#x17e;" horiz-adv-x="463" 
d="M353 151l35 -12c-31 -94 -94 -154 -162 -154c-35 0 -72 10 -119 32c-61 30 -65 31 -77 31c-9 0 -9 -1 -9 -17c0 -29 -11 -46 -30 -46c-15 0 -24 9 -24 24c0 30 26 77 72 128c57 63 80 80 227 171c38 24 49 34 74 60c-24 -6 -37 -8 -51 -8c-31 0 -38 1 -92 20
c-25 8 -50 14 -60 14c-25 0 -51 -25 -82 -79l-33 16c48 94 101 139 165 139c23 0 39 -5 84 -28c31 -15 55 -23 72 -23c15 0 20 5 26 26c5 17 13 25 24 25c14 0 24 -10 24 -23c0 -26 -32 -81 -79 -134c-49 -56 -88 -87 -167 -132c-80 -47 -98 -59 -121 -89c24 7 35 9 49 9
c28 0 40 -3 101 -24c27 -10 53 -16 67 -16c33 0 59 28 86 90zM233 520l-95 163h37l89 -98l142 98h37l-159 -163h-51z" />
    <glyph glyph-name="longs" unicode="&#x17f;" horiz-adv-x="333" 
d="M219 455l-73 -294c-23 -92 -81 -283 -104 -345l-110 -18c63 138 113 288 148 436l41 174h-89l13 47h87c25 92 41 134 70 181c39 65 94 100 157 100c65 0 111 -38 111 -90c0 -30 -23 -53 -54 -53c-29 0 -52 20 -52 45c0 10 2 16 9 28c6 10 7 14 7 18c0 10 -10 17 -24 17
c-37 0 -64 -26 -88 -86c-20 -48 -26 -67 -49 -160z" />
    <glyph glyph-name="florin" unicode="&#x192;" horiz-adv-x="556" 
d="M463 433l-5 -43h-138l-48 -253c-25 -133 -44 -190 -82 -246c-42 -61 -95 -93 -156 -93c-54 0 -91 31 -91 76c0 36 26 63 61 63c29 0 49 -19 49 -45c0 -14 -3 -19 -17 -35c-3 -3 -4 -6 -4 -9c0 -6 5 -10 14 -10c30 0 61 25 78 62c19 42 28 75 52 205l53 285h-120l5 43h122
l10 43c14 68 45 143 75 182c38 50 91 78 150 78c56 0 92 -30 92 -76c0 -37 -25 -64 -61 -64c-29 0 -49 18 -49 43c0 12 4 22 15 36c5 6 6 9 6 12c0 6 -7 10 -15 10c-30 0 -61 -25 -78 -64c-17 -36 -27 -73 -45 -158l-9 -42h136z" />
    <glyph glyph-name="Aringacute" unicode="&#x1fa;" horiz-adv-x="704" 
d="M442 737l125 -629c11 -53 20 -61 76 -61h25l-6 -47h-300l5 47h16c57 0 72 7 72 35c0 8 -1 21 -4 33l-23 123h-255l-55 -96c-12 -21 -18 -40 -18 -55c0 -30 17 -40 69 -40h24l-6 -47h-269l5 47c54 0 95 33 148 121l330 569h41zM420 285l-57 287l-163 -287h220zM431 966
c55 0 100 -45 100 -99c0 -56 -44 -100 -101 -100c-53 0 -98 45 -98 100c0 54 45 99 99 99zM431 930c-35 0 -63 -28 -63 -63s29 -64 63 -64c35 0 64 28 64 64c0 35 -28 63 -64 63zM261 917l138 143c21 22 35 30 50 30c20 0 35 -15 35 -34c0 -15 -10 -29 -26 -39l-159 -100
h-38z" />
    <glyph glyph-name="aringacute" unicode="&#x1fb;" horiz-adv-x="574" 
d="M396 455h87l-100 -336c-7 -26 -11 -43 -11 -54c0 -14 9 -25 21 -25c26 0 61 41 99 118l31 -17c-12 -26 -28 -54 -49 -83c-35 -49 -73 -73 -117 -73c-36 0 -61 26 -61 65c0 10 1 17 5 32c-50 -72 -89 -97 -152 -97c-89 0 -148 65 -148 163c0 80 30 164 81 230
c47 61 103 92 165 92c65 0 115 -43 122 -105zM264 415c-30 0 -58 -12 -80 -35c-53 -55 -92 -158 -92 -246c0 -61 30 -98 80 -98s86 28 117 90c31 63 51 142 51 200c0 56 -29 89 -76 89zM292 712c54 0 99 -44 99 -99c0 -56 -44 -100 -101 -100c-53 0 -98 45 -98 100
c0 54 45 99 100 99zM292 676c-36 0 -64 -28 -64 -63s29 -64 63 -64c36 0 64 28 64 64c0 35 -28 63 -63 63zM170 714l139 140c23 23 34 30 49 30c20 0 35 -15 35 -35c0 -14 -10 -29 -25 -38l-159 -97h-39z" />
    <glyph glyph-name="AEacute" unicode="&#x1fc;" horiz-adv-x="870" 
d="M831 481h-45v20c1 22 1 38 1 51c0 82 -39 123 -118 123h-27c-54 -2 -61 -8 -77 -70l-55 -204h7c82 0 129 38 157 125l46 -6l-90 -334l-45 8c7 29 9 47 9 70c0 60 -30 90 -90 90h-7l-59 -220c-10 -39 -11 -43 -11 -56c0 -21 20 -31 63 -31h22c120 3 181 45 243 167
c13 25 15 28 22 39l40 -8l-78 -245h-532l6 47h4c53 0 74 4 83 14c9 9 10 11 23 62l42 155h-191l-95 -137c-15 -22 -25 -45 -25 -58c0 -14 10 -25 27 -31c10 -4 20 -5 50 -5l-6 -47h-217l5 47c25 0 45 14 69 46l320 460c28 40 37 60 37 80c0 31 -21 42 -80 42h-27l5 47h633z
M377 325l83 309c6 25 6 25 6 29c0 6 -4 11 -9 11c-6 0 -10 -4 -21 -20l-231 -329h172zM497 774l138 143c21 22 35 30 50 30c19 0 35 -15 35 -34c0 -14 -10 -29 -26 -39l-159 -100h-38z" />
    <glyph glyph-name="aeacute" unicode="&#x1fd;" horiz-adv-x="722" 
d="M610 117l28 -26c-61 -73 -126 -106 -208 -106c-81 0 -128 36 -142 106c-52 -77 -104 -106 -188 -106c-73 0 -118 38 -118 99c0 66 47 111 148 143c53 16 74 20 173 33c13 51 15 66 15 88c0 50 -39 83 -100 83c-38 0 -71 -14 -71 -31c0 -3 1 -5 8 -10c11 -9 17 -23 17 -41
c0 -30 -21 -50 -53 -50c-33 0 -54 22 -54 56c0 65 71 115 161 115c65 0 114 -24 153 -73c52 48 110 73 173 73c70 0 115 -40 115 -101c0 -60 -44 -108 -126 -138c-34 -13 -82 -24 -171 -39c-7 -25 -9 -37 -9 -55c0 -65 35 -104 95 -104c55 0 107 28 154 84zM378 232
c55 8 91 18 123 32c50 22 80 63 80 111c0 32 -20 52 -51 52c-38 0 -74 -24 -100 -67c-21 -35 -32 -61 -52 -128zM293 220c-80 -11 -113 -19 -146 -35c-49 -23 -72 -52 -72 -90c0 -36 25 -60 61 -60c40 0 84 24 109 61c21 31 31 56 48 124zM381 519l138 140
c24 24 35 30 50 30c20 0 35 -15 35 -35c0 -14 -10 -29 -25 -39l-159 -96h-39z" />
    <glyph glyph-name="Oslashacute" unicode="&#x1fe;" horiz-adv-x="778" 
d="M624 684l53 66h58l-77 -95c52 -54 77 -119 77 -204c0 -129 -53 -255 -145 -347c-80 -79 -173 -119 -277 -119c-63 0 -116 15 -160 44l-94 -116h-58l118 145c-52 51 -79 127 -79 218c0 245 194 461 413 461c64 0 125 -19 171 -53zM172 125l412 509c-25 37 -71 59 -127 59
c-66 0 -125 -33 -176 -99c-65 -85 -123 -266 -123 -385c0 -28 5 -59 14 -84zM604 588l-409 -506c27 -35 68 -53 119 -53c77 0 149 42 196 115c64 101 105 241 105 365c0 29 -4 56 -11 79zM370 774l139 143c21 22 35 30 50 30c19 0 35 -15 35 -34c0 -15 -10 -29 -26 -39
l-159 -100h-39z" />
    <glyph glyph-name="oslashacute" unicode="&#x1ff;" horiz-adv-x="500" 
d="M326 458l51 90h44l-62 -108c51 -37 81 -96 81 -158c0 -75 -32 -155 -85 -215c-49 -55 -110 -82 -184 -82c-24 0 -43 2 -64 8l-64 -113h-43l72 129c-50 32 -77 89 -77 164c0 83 27 152 83 211c53 55 119 86 184 86c24 0 43 -4 64 -12zM101 59l203 359
c-15 10 -28 14 -47 14c-36 0 -69 -18 -96 -54c-41 -53 -76 -168 -76 -249c0 -25 6 -50 16 -70zM330 388l-201 -355c15 -7 28 -10 45 -10c53 0 90 30 124 99c28 57 47 134 47 190c0 30 -4 51 -15 76zM207 519l138 140c23 23 35 30 50 30c20 0 35 -15 35 -34
c0 -15 -10 -30 -26 -40l-159 -96h-38z" />
    <glyph glyph-name="Scommaaccent" unicode="&#x218;" horiz-adv-x="667" 
d="M632 715l-54 -261l-42 7c1 9 1 17 1 20c0 132 -65 213 -172 213c-89 0 -156 -56 -156 -131c0 -51 35 -88 114 -119l85 -34c119 -47 161 -98 161 -196c0 -132 -113 -229 -269 -229c-81 0 -150 26 -206 78l-59 -63h-35l55 285l40 -7c-1 -11 -1 -24 -1 -28
c0 -68 16 -116 53 -158c39 -44 87 -64 152 -64c104 0 174 58 174 143c0 37 -15 66 -44 87c-12 8 -22 13 -78 36l-86 36c-52 22 -80 39 -100 61c-30 33 -47 77 -47 122c0 126 105 224 240 224c74 0 130 -23 182 -74l54 52h38zM108 -329l-13 31c75 35 118 79 127 130h-16
c-35 0 -57 20 -57 53c0 35 29 62 67 62c40 0 70 -34 70 -80c0 -77 -69 -154 -178 -196z" />
    <glyph glyph-name="scommaaccent" unicode="&#x219;" horiz-adv-x="444" 
d="M244 470c87 0 148 -43 148 -104c0 -36 -23 -61 -57 -61c-31 0 -52 19 -52 46c0 15 2 20 16 40c3 5 5 10 5 14c0 16 -26 27 -65 27c-58 0 -102 -34 -102 -80c0 -39 17 -55 82 -78c55 -20 65 -24 87 -39c32 -22 50 -56 50 -96c0 -91 -79 -154 -194 -154
c-101 0 -163 43 -163 113c0 39 25 67 58 67c29 0 51 -22 51 -50c0 -18 -2 -23 -21 -43c-4 -4 -7 -10 -7 -15c0 -20 36 -34 87 -34c69 0 114 34 114 88c0 35 -14 49 -71 72c-42 17 -62 26 -78 34c-44 23 -69 59 -69 102c0 87 76 151 181 151zM34 -288l-13 28
c67 30 107 72 115 117h-15c-31 0 -51 18 -51 47c0 32 26 56 60 56c37 0 63 -30 63 -72c0 -69 -63 -139 -159 -176z" />
    <glyph glyph-name="uni021A" unicode="&#x21a;" horiz-adv-x="685" 
d="M726 722l-42 -275l-42 5c2 40 2 48 2 70c0 58 -14 106 -37 128c-18 16 -47 25 -85 25h-14c-33 -1 -35 -3 -50 -56l-133 -496c-5 -21 -9 -41 -9 -49c0 -22 14 -27 79 -27h37l-6 -47h-346l5 47h22c53 0 74 4 84 14c8 9 10 13 23 62l136 510c4 13 5 19 5 25
c0 12 -10 17 -33 17h-14c-89 -2 -140 -52 -227 -217l-41 6l88 258h598zM125 -288l-12 28c67 30 107 72 114 117h-15c-30 0 -50 18 -50 47c0 32 26 56 60 56c37 0 63 -30 63 -72c0 -69 -63 -139 -160 -176z" />
    <glyph glyph-name="uni021B" unicode="&#x21b;" horiz-adv-x="352" 
d="M268 621l-49 -166h110l-14 -47h-110l-94 -319c-3 -8 -3 -12 -3 -23c0 -17 9 -28 23 -28c33 0 61 28 124 122l30 -20c-26 -42 -37 -59 -50 -77c-36 -47 -91 -78 -138 -78c-41 0 -72 33 -72 76c0 23 5 48 19 95l75 252h-94l13 47h95l49 166h86zM7 -288l-12 28
c67 30 107 72 114 117h-15c-31 0 -50 18 -50 47c0 32 26 56 60 56c37 0 63 -30 63 -72c0 -69 -63 -139 -160 -176z" />
    <glyph glyph-name="uni02BB" unicode="&#x2bb;" horiz-adv-x="204" 
d="M239 737l13 -31c-74 -34 -118 -80 -127 -130h17c34 0 56 -20 56 -53c0 -35 -29 -62 -67 -62c-40 0 -70 34 -70 80c0 77 69 154 178 196z" />
    <glyph glyph-name="uni02BC" unicode="&#x2bc;" horiz-adv-x="204" 
d="M52 433l-13 31c74 34 118 80 127 131c-7 -1 -13 -1 -17 -1c-34 0 -56 21 -56 53c0 35 29 62 67 62c41 0 70 -34 70 -80c0 -77 -70 -154 -178 -196z" />
    <glyph glyph-name="circumflex" unicode="&#x2c6;" horiz-adv-x="333" 
d="M355 688l91 -169h-36l-86 104l-136 -104h-36l153 169h50z" />
    <glyph glyph-name="caron" unicode="&#x2c7;" horiz-adv-x="333" 
d="M277 520l-95 163h37l89 -98l142 98h37l-159 -163h-51z" />
    <glyph glyph-name="uni02C9" unicode="&#x2c9;" horiz-adv-x="333" 
d="M181 610h301l-11 -51h-301z" />
    <glyph glyph-name="breve" unicode="&#x2d8;" horiz-adv-x="333" 
d="M191 677h30c3 -60 43 -96 107 -96c60 0 107 34 132 96h31c-18 -97 -83 -159 -167 -159c-79 0 -134 55 -134 135c0 5 0 14 1 24z" />
    <glyph glyph-name="dotaccent" unicode="&#x2d9;" horiz-adv-x="333" 
d="M167 644c27 0 49 -22 49 -49s-22 -49 -49 -49s-49 22 -49 49s22 49 49 49z" />
    <glyph glyph-name="ring" unicode="&#x2da;" horiz-adv-x="333" 
d="M329 712c55 0 100 -45 100 -99c0 -56 -44 -100 -101 -100c-53 0 -98 45 -98 100c0 54 45 99 99 99zM330 676c-36 0 -64 -28 -64 -63s29 -64 63 -64c36 0 64 28 64 64c0 35 -28 63 -63 63z" />
    <glyph glyph-name="ogonek" unicode="&#x2db;" horiz-adv-x="333" 
d="M119 0h36c-28 -33 -38 -52 -38 -75c0 -20 19 -39 40 -39c22 0 43 11 72 37l16 -22c-40 -40 -70 -56 -108 -56c-41 0 -69 28 -69 68c0 33 14 57 51 87z" />
    <glyph glyph-name="tilde" unicode="&#x2dc;" horiz-adv-x="333" 
d="M456 650h30c-7 -58 -49 -105 -93 -105c-22 0 -33 3 -86 23c-44 16 -60 21 -74 21c-22 0 -37 -15 -45 -45h-30c12 66 45 105 90 105c17 0 43 -7 100 -26c36 -13 45 -15 59 -15c22 0 37 12 49 42z" />
    <glyph glyph-name="hungarumlaut" unicode="&#x2dd;" horiz-adv-x="333" 
d="M134 519l140 139c26 25 34 30 50 30c20 0 35 -15 35 -35c0 -13 -11 -30 -25 -39l-159 -95h-41zM295 519l140 139c26 25 34 30 50 30c19 0 35 -15 35 -34c0 -15 -10 -31 -25 -40l-159 -95h-41z" />
    <glyph glyph-name="uni035C" unicode="&#x35c;" horiz-adv-x="0" 
d="M265.097 -56c-107.319 -105 -216.546 -139 -315.546 -139c-105 0 -188.411 31 -256.455 139l18.126 10c91.8447 -76 186.782 -81 251.782 -81c73 0 187.614 17 288.219 81z" />
    <glyph glyph-name="uni0361" unicode="&#x361;" horiz-adv-x="0" 
d="M-127.904 534c107.319 105 216.546 139 315.546 139c104.999 0 188.41 -31 256.454 -139l-18.126 -10c-91.8447 76 -186.782 81 -251.781 81c-73 0 -187.614 -17 -288.219 -81z" />
    <glyph glyph-name="tonos" unicode="&#x384;" horiz-adv-x="247" 
d="M133 536l24 183c4 31 18 45 44 45s46 -17 46 -39c0 -8 -3 -18 -8 -29l-84 -166z" />
    <glyph glyph-name="dieresistonos" unicode="&#x385;" horiz-adv-x="278" 
d="M171 540l58 175c9 27 21 37 43 37c25 0 47 -19 47 -41c0 -10 -5 -22 -14 -33l-113 -148zM103 644c27 0 49 -22 49 -49s-22 -49 -49 -49s-49 22 -49 49s22 49 49 49zM336 644c27 0 49 -22 49 -49s-22 -49 -49 -49s-49 22 -49 49s22 49 49 49z" />
    <glyph glyph-name="Alphatonos" unicode="&#x386;" horiz-adv-x="733" 
d="M471 737l125 -629c11 -53 20 -61 76 -61h25l-6 -47h-300l5 47h16c57 0 72 7 72 35c0 8 -1 21 -4 33l-23 123h-255l-55 -96c-12 -21 -18 -40 -18 -55c0 -30 17 -40 69 -40h24l-6 -47h-269l5 47c54 0 95 33 148 121l330 569h41zM449 285l-57 287l-163 -287h220zM166 536
l24 183c4 31 18 45 44 45c25 0 46 -17 46 -39c0 -8 -3 -18 -8 -29l-84 -166z" />
    <glyph glyph-name="uni0387" unicode="&#x387;" horiz-adv-x="278" 
d="M139 307c34 0 62 -27 62 -62s-27 -62 -63 -62c-33 0 -61 28 -61 62s28 62 62 62z" />
    <glyph glyph-name="Epsilontonos" unicode="&#x388;" horiz-adv-x="792" 
d="M771 722l-39 -241h-45v34c0 71 -9 102 -37 127c-25 22 -59 33 -102 33h-58c-76 -1 -84 -6 -100 -69l-55 -205h23c100 2 147 34 178 125l45 -6l-89 -334l-45 8c7 32 9 47 9 69c0 61 -36 90 -111 91h-22l-59 -220c-10 -38 -11 -43 -11 -55c0 -24 18 -32 70 -32h54
c143 2 211 49 294 206l41 -8l-78 -245h-601l5 47h5c52 0 73 4 83 14c9 9 10 13 23 62l128 476c5 22 9 41 9 49c0 22 -14 27 -79 27h-26l6 47h584zM50 536l24 183c4 31 18 45 44 45s46 -17 46 -39c0 -8 -3 -19 -8 -29l-84 -166z" />
    <glyph glyph-name="Etatonos" unicode="&#x389;" horiz-adv-x="904" 
d="M644 354h-321l-62 -231c-6 -24 -10 -41 -10 -49c0 -22 14 -27 79 -27h26l-5 -47h-318l5 47h5c52 1 73 4 83 14c9 9 10 12 23 62l128 476c5 21 9 41 9 49c0 22 -14 27 -79 27h-26l6 47h317l-5 -47h-4c-53 -1 -74 -4 -83 -14c-9 -9 -10 -10 -23 -62l-54 -198h322l53 198
c7 25 10 41 10 49c0 22 -14 27 -79 27h-26l5 47h318l-5 -47h-5c-53 -1 -73 -4 -83 -14c-9 -9 -9 -9 -23 -62l-127 -476c-6 -21 -10 -41 -10 -49c0 -22 14 -27 79 -27h26l-6 -47h-317l5 47h4c53 0 74 4 84 14c8 9 9 12 23 62zM53 536l24 183c4 31 18 45 44 45s46 -17 46 -39
c0 -8 -3 -18 -8 -29l-84 -166z" />
    <glyph glyph-name="Iotatonos" unicode="&#x38a;" horiz-adv-x="473" 
d="M349 47l-6 -47h-310l5 47c59 1 72 3 84 14c9 9 10 12 23 62l128 476c8 29 10 41 10 49c0 22 -14 27 -80 27h-22l6 47h310l-5 -47c-59 -1 -72 -3 -84 -14c-9 -9 -9 -10 -23 -62l-128 -476c-9 -36 -10 -39 -10 -48c0 -23 14 -28 80 -28h22zM50 536l24 183c3 31 18 45 44 45
s46 -17 46 -39c0 -8 -3 -17 -8 -29l-84 -166z" />
    <glyph glyph-name="Omicrontonos" unicode="&#x38c;" horiz-adv-x="805" 
d="M484 737c76 0 147 -28 199 -79c53 -53 79 -121 79 -208c0 -128 -53 -254 -145 -346c-80 -79 -173 -119 -278 -119c-167 0 -272 112 -272 290c0 122 46 239 128 327c85 90 181 135 289 135zM487 694c-69 0 -127 -32 -179 -100c-65 -84 -123 -266 -123 -386
c0 -111 60 -180 156 -180c78 0 151 43 196 116c62 100 108 249 108 352c0 47 -15 108 -34 138c-21 36 -72 60 -124 60zM78 536l24 183c4 31 18 45 44 45s46 -17 46 -39c0 -8 -3 -18 -8 -29l-84 -166z" />
    <glyph glyph-name="Upsilontonos" unicode="&#x38e;" horiz-adv-x="816" 
d="M493 364l170 218c16 20 26 41 26 54c0 24 -24 39 -65 39h-22l5 47h282l-6 -47c-71 -4 -101 -24 -170 -111l-201 -256l-49 -185c-6 -23 -10 -41 -10 -49c0 -22 14 -27 79 -27h37l-6 -47h-346l5 47h22c53 0 74 4 84 14c9 9 10 13 23 62l49 185l-120 298
c-24 59 -38 68 -100 69h-17l5 47h308l-5 -47h-28c-44 0 -61 -7 -61 -24c0 -9 3 -21 10 -38zM33 536l24 183c4 31 18 45 44 45s46 -17 46 -39c0 -8 -3 -18 -8 -29l-84 -166z" />
    <glyph glyph-name="Omegatonos" unicode="&#x38f;" horiz-adv-x="842" 
d="M230 87l5 17c-82 42 -128 127 -128 235c0 226 179 398 414 398c170 0 282 -94 282 -237c0 -130 -64 -265 -161 -336c-35 -27 -87 -52 -133 -65l-5 -12h53c102 -1 162 45 218 166l41 -7l-79 -246h-331l28 105c56 19 95 44 133 86c40 44 66 92 89 164c19 59 30 120 30 167
c0 49 -17 96 -45 127c-27 29 -70 45 -124 45c-87 0 -166 -44 -218 -122c-43 -65 -74 -182 -74 -276c0 -90 25 -147 85 -191l-28 -105h-282l16 246l45 7c-2 -118 36 -166 130 -166h39zM86 536l24 183c4 31 18 45 44 45s46 -17 46 -39c0 -8 -3 -19 -8 -29l-84 -166z" />
    <glyph glyph-name="iotadieresistonos" unicode="&#x390;" horiz-adv-x="333" 
d="M231 470l-106 -357c-8 -28 -12 -46 -12 -56c0 -12 7 -21 17 -21c27 0 69 42 121 121l31 -17c-28 -43 -44 -65 -62 -85c-40 -46 -81 -69 -124 -69c-39 0 -69 27 -69 62c0 23 3 36 22 101l58 195c7 23 9 34 9 44c0 22 -16 31 -57 31h-24l4 36zM174 540l58 175
c9 27 21 37 43 37c25 0 47 -19 47 -41c0 -10 -5 -22 -14 -33l-113 -148zM106 644c27 0 49 -22 49 -49s-22 -49 -49 -49s-49 22 -49 49s22 49 49 49zM339 644c27 0 49 -22 49 -49s-22 -49 -49 -49s-49 22 -49 49s22 49 49 49z" />
    <glyph glyph-name="Alpha" unicode="&#x391;" horiz-adv-x="704" 
d="M442 737l125 -629c11 -53 20 -61 76 -61h25l-6 -47h-300l5 47h16c57 0 72 7 72 35c0 8 -1 21 -4 33l-23 123h-255l-55 -96c-12 -21 -18 -40 -18 -55c0 -30 17 -40 69 -40h24l-6 -47h-269l5 47c54 0 95 33 148 121l330 569h41zM420 285l-57 287l-163 -287h220z" />
    <glyph glyph-name="Beta" unicode="&#x392;" horiz-adv-x="722" 
d="M123 722h301c77 0 122 -9 163 -31c51 -28 81 -78 81 -136c0 -61 -30 -113 -83 -145c-34 -20 -63 -30 -112 -39c53 -16 81 -31 106 -54c35 -32 51 -67 51 -111c0 -78 -47 -146 -124 -179c-40 -18 -101 -27 -174 -27h-363l5 47h15c44 1 65 5 73 14c9 9 10 11 23 62l128 476
c5 21 9 41 9 49c0 22 -14 27 -79 27h-26zM269 394h83c59 0 102 11 134 36c39 30 63 84 63 140c0 73 -36 105 -118 105h-29c-52 -1 -58 -6 -75 -68zM257 347l-64 -238c-4 -14 -6 -27 -6 -35c0 -21 15 -27 70 -27h50c60 0 109 14 139 40c38 33 62 86 62 138
c0 49 -26 88 -72 107c-22 9 -68 15 -116 15h-63z" />
    <glyph glyph-name="Gamma" unicode="&#x393;" horiz-adv-x="667" 
d="M282 47l-5 -47h-314l5 47h5c52 0 73 4 83 14c9 9 10 13 23 62l128 476c5 22 9 41 9 49c0 22 -14 27 -79 27h-26l6 47h584l-39 -241h-45v34c0 71 -9 102 -37 127c-25 22 -59 33 -102 33h-58c-76 -1 -84 -6 -100 -69l-129 -483c-8 -29 -10 -39 -10 -48c0 -23 14 -28 79 -28
h22z" />
    <glyph glyph-name="uni0394" unicode="&#x394;" horiz-adv-x="615" 
d="M-73 0l428 737h41l146 -737h-615zM40 87h301c45 0 60 9 60 35c0 9 -1 16 -4 33l-80 417z" />
    <glyph glyph-name="Epsilon" unicode="&#x395;" horiz-adv-x="722" 
d="M701 722l-39 -241h-45v34c0 71 -9 102 -37 127c-25 22 -59 33 -102 33h-58c-76 -1 -84 -6 -100 -69l-55 -205h23c100 2 147 34 178 125l45 -6l-89 -334l-45 8c7 32 9 47 9 69c0 61 -36 90 -111 91h-22l-59 -220c-10 -38 -11 -43 -11 -55c0 -24 18 -32 70 -32h54
c143 2 211 49 294 206l41 -8l-78 -245h-601l5 47h5c52 0 73 4 83 14c9 9 10 13 23 62l128 476c5 22 9 41 9 49c0 22 -14 27 -79 27h-26l6 47h584z" />
    <glyph glyph-name="Zeta" unicode="&#x396;" horiz-adv-x="667" 
d="M667 722l-6 -39l-534 -636h135c155 1 224 50 307 221l42 -12l-82 -256h-554l6 38l533 637h-96c-163 -4 -196 -27 -294 -203l-41 11l81 239h503z" />
    <glyph glyph-name="Eta" unicode="&#x397;" horiz-adv-x="833" 
d="M573 354h-321l-62 -231c-6 -24 -10 -41 -10 -49c0 -22 14 -27 79 -27h26l-5 -47h-318l5 47h5c52 1 73 4 83 14c9 9 10 12 23 62l128 476c5 21 9 41 9 49c0 22 -14 27 -79 27h-26l6 47h317l-5 -47h-4c-53 -1 -74 -4 -83 -14c-9 -9 -10 -10 -23 -62l-54 -198h322l53 198
c7 25 10 41 10 49c0 22 -14 27 -79 27h-26l5 47h318l-5 -47h-5c-53 -1 -73 -4 -83 -14c-9 -9 -9 -9 -23 -62l-127 -476c-6 -21 -10 -41 -10 -49c0 -22 14 -27 79 -27h26l-6 -47h-317l5 47h4c53 0 74 4 84 14c8 9 9 12 23 62z" />
    <glyph glyph-name="Theta" unicode="&#x398;" horiz-adv-x="778" 
d="M457 737c76 0 147 -28 199 -79c53 -53 79 -121 79 -208c0 -128 -53 -254 -145 -346c-80 -79 -173 -119 -278 -119c-167 0 -272 112 -272 290c0 122 46 239 128 327c85 90 181 135 289 135zM460 694c-69 0 -127 -32 -179 -100c-65 -84 -123 -266 -123 -386
c0 -111 60 -180 156 -180c78 0 151 43 196 116c62 100 108 249 108 352c0 47 -15 108 -34 138c-21 36 -72 60 -124 60zM499 251h-47c1 10 2 16 2 23c0 40 -30 64 -78 64c-54 0 -88 -28 -105 -87h-46l59 220h47c-2 -11 -2 -15 -2 -21c0 -39 31 -65 78 -65c54 0 91 31 104 86
h47z" />
    <glyph glyph-name="Iota" unicode="&#x399;" horiz-adv-x="407" 
d="M283 47l-6 -47h-310l5 47c59 1 72 3 84 14c9 9 10 12 23 62l128 476c8 29 10 41 10 49c0 22 -14 27 -80 27h-22l6 47h310l-5 -47c-59 -1 -72 -3 -84 -14c-9 -9 -9 -10 -23 -62l-128 -476c-9 -36 -10 -39 -10 -48c0 -23 14 -28 80 -28h22z" />
    <glyph glyph-name="Kappa" unicode="&#x39a;" horiz-adv-x="741" 
d="M247 342l288 240c39 32 54 51 54 68c0 19 -15 25 -59 25h-22l6 47h300l-5 -47c-79 -6 -122 -26 -201 -98l-188 -157l152 -315c26 -56 30 -59 94 -58h31l-6 -47h-327l5 47h33c53 0 68 4 68 18c0 6 0 6 -16 39l-117 246l-113 -93l-36 -134c-6 -24 -10 -41 -10 -49
c0 -22 14 -27 79 -27h26l-5 -47h-318l5 47h5c52 0 73 4 83 14c9 9 10 12 23 62l128 476c5 21 9 41 9 49c0 22 -14 27 -79 27h-26l6 47h317l-5 -47h-4c-53 -1 -74 -4 -83 -14c-9 -9 -10 -12 -24 -62z" />
    <glyph glyph-name="Lambda" unicode="&#x39b;" horiz-adv-x="717" 
d="M437 737l125 -629c11 -53 20 -61 76 -61h25l-6 -47h-300l5 47h16c57 0 72 7 72 35c0 8 -2 22 -4 33l-88 457l-245 -430c-12 -21 -18 -40 -18 -55c0 -30 17 -40 69 -40h24l-6 -47h-269l5 47c54 0 95 33 148 121l330 569h41z" />
    <glyph glyph-name="Mu" unicode="&#x39c;" horiz-adv-x="944" 
d="M363 722l53 -540l341 540h216l-5 -47h-4c-53 -1 -74 -4 -84 -14c-9 -9 -9 -9 -23 -62l-127 -476c-7 -24 -10 -40 -10 -49c0 -22 14 -27 79 -27h26l-6 -47h-317l5 47h4c53 1 74 4 84 14c8 9 9 10 23 62l132 493l-386 -616h-36l-62 602l-103 -385c-22 -89 -23 -93 -23 -115
c0 -38 28 -55 89 -55l-5 -47h-250l5 47c72 2 92 28 130 170l102 382c7 24 10 41 10 49c0 22 -14 27 -79 27h-26l5 47h242z" />
    <glyph glyph-name="Nu" unicode="&#x39d;" horiz-adv-x="815" 
d="M315 722l253 -552l90 335c22 89 23 93 23 115c0 37 -29 55 -90 55l6 47h262l-5 -47c-84 -3 -104 -26 -142 -170l-139 -519h-39l-278 601l-99 -370c-23 -89 -24 -93 -24 -115c0 -37 29 -55 90 -55h11l-6 -47h-276l5 47c87 2 106 24 145 170l114 426c-8 27 -16 32 -65 32
h-52l5 47h211z" />
    <glyph glyph-name="Xi" unicode="&#x39e;" horiz-adv-x="722" 
d="M161 722h567l-32 -241h-45c2 17 2 28 2 45c0 88 -26 109 -133 109h-166c-118 1 -155 -26 -215 -154h-44zM-13 0l33 241l46 12c-1 -18 -1 -26 -1 -37c0 -57 7 -85 27 -104c17 -15 56 -25 99 -25h198c113 4 148 32 214 166l41 -7l-74 -246h-583zM484 224h-47
c4 16 5 23 5 32c0 52 -37 81 -101 81c-68 0 -108 -36 -124 -113h-47l73 274h47c-3 -18 -4 -27 -4 -36c0 -48 37 -78 96 -78c65 0 109 39 128 114h47z" />
    <glyph glyph-name="Omicron" unicode="&#x39f;" horiz-adv-x="778" 
d="M457 737c76 0 147 -28 199 -79c53 -53 79 -121 79 -208c0 -128 -53 -254 -145 -346c-80 -79 -173 -119 -278 -119c-167 0 -272 112 -272 290c0 122 46 239 128 327c85 90 181 135 289 135zM460 694c-69 0 -127 -32 -179 -100c-65 -84 -123 -266 -123 -386
c0 -111 60 -180 156 -180c78 0 151 43 196 116c62 100 108 249 108 352c0 47 -15 108 -34 138c-21 36 -72 60 -124 60z" />
    <glyph glyph-name="Pi" unicode="&#x3a0;" horiz-adv-x="833" 
d="M116 722h751l-5 -47h-5c-53 -1 -73 -4 -83 -14c-9 -9 -9 -9 -23 -62l-127 -476c-6 -21 -10 -41 -10 -49c0 -22 14 -27 79 -27h26l-6 -47h-317l5 47h4c53 0 74 4 84 14c8 9 9 12 23 62l127 476c7 25 10 41 10 49c0 22 -14 27 -76 27h-152c-51 -1 -71 -4 -80 -14
c-9 -9 -10 -10 -23 -62l-128 -476c-6 -24 -10 -41 -10 -49c0 -22 14 -27 79 -27h26l-5 -47h-318l5 47h5c52 1 73 4 83 14c9 9 10 12 23 62l128 476c5 21 9 41 9 49c0 22 -14 27 -79 27h-26z" />
    <glyph glyph-name="Rho" unicode="&#x3a1;" horiz-adv-x="667" 
d="M247 318l-52 -195c-6 -24 -10 -41 -10 -49c0 -22 14 -27 79 -27h26l-5 -47h-318l5 47h5c52 1 73 4 83 14c9 9 10 11 23 62l128 476c5 21 9 41 9 49c0 22 -14 27 -79 27h-26l6 47h295c83 0 136 -11 173 -36c48 -33 74 -83 74 -145c0 -80 -39 -145 -109 -182
c-67 -36 -103 -41 -289 -41h-18zM260 365h19l90 -1c43 0 88 14 116 34c41 31 66 90 66 154c0 57 -20 95 -58 111c-18 7 -52 12 -87 12h-12c-44 -2 -54 -9 -64 -48z" />
    <glyph glyph-name="Sigma" unicode="&#x3a3;" horiz-adv-x="646" 
d="M-57 36l318 305l-115 345l9 36h504l-39 -241h-45c1 24 1 45 1 54c0 109 -33 140 -151 140h-150l91 -296l-306 -292h226c124 1 170 36 234 181l42 -12l-82 -256h-547z" />
    <glyph glyph-name="Tau" unicode="&#x3a4;" horiz-adv-x="685" 
d="M726 722l-42 -275l-42 5c2 40 2 48 2 70c0 58 -14 106 -37 128c-18 16 -47 25 -85 25h-14c-33 -1 -35 -3 -50 -56l-133 -496c-5 -21 -9 -41 -9 -49c0 -22 14 -27 79 -27h37l-6 -47h-346l5 47h22c53 0 74 4 84 14c8 9 10 13 23 62l136 510c4 13 5 19 5 25
c0 12 -10 17 -33 17h-14c-89 -2 -140 -52 -227 -217l-41 6l88 258h598z" />
    <glyph glyph-name="Upsilon" unicode="&#x3a5;" horiz-adv-x="685" 
d="M362 364l170 218c16 19 26 41 26 54c0 24 -24 39 -64 39h-23l5 47h282l-5 -47c-72 -4 -101 -23 -171 -111l-200 -256l-50 -185c-7 -26 -10 -41 -10 -49c0 -22 14 -27 79 -27h37l-5 -47h-347l6 47h22c52 0 74 4 83 14c9 9 10 13 23 62l50 185l-120 298
c-25 59 -39 68 -101 69h-17l5 47h308l-5 -47h-28c-44 0 -61 -7 -61 -24c0 -8 3 -20 11 -38z" />
    <glyph glyph-name="Phi" unicode="&#x3a6;" horiz-adv-x="764" 
d="M271 151l113 423c-69 -2 -109 -8 -153 -26c-96 -37 -149 -115 -149 -219c0 -65 25 -111 77 -143c32 -19 71 -32 112 -35zM488 570l-113 -422c77 1 136 13 184 38c75 40 119 115 119 205c0 109 -58 164 -190 179zM151 0l5 47c86 2 89 3 103 61c-191 23 -292 107 -292 241
c0 119 71 203 206 242c58 17 118 24 222 26c4 16 6 25 6 32c0 21 -15 26 -80 26h-22l6 47h303l-5 -47c-81 -1 -88 -5 -99 -48c-2 -6 -3 -8 -5 -15c86 -10 126 -21 175 -45c76 -38 118 -107 118 -193c0 -168 -159 -268 -428 -269c-4 -14 -6 -23 -6 -31c0 -22 14 -27 80 -27
h22l-6 -47h-303z" />
    <glyph glyph-name="Chi" unicode="&#x3a7;" horiz-adv-x="704" 
d="M406 392l116 -272c28 -67 36 -73 102 -73h26l-5 -47h-321l6 47h31c49 0 61 5 61 23c0 6 -2 16 -6 25l-90 214l-151 -159c-25 -26 -39 -50 -39 -68c0 -23 24 -35 68 -35h15l-6 -47h-286l5 47c69 9 99 27 174 106l197 207l-104 245c-27 63 -34 68 -103 70h-24l5 47h315
l-5 -47h-18c-46 0 -67 -9 -67 -28c0 -8 0 -8 10 -32l72 -172l122 125c35 36 48 58 48 78s-17 29 -52 29h-20l5 47h283l-5 -47c-70 -2 -100 -19 -177 -97z" />
    <glyph glyph-name="Psi" unicode="&#x3a8;" horiz-adv-x="921" 
d="M338 123l29 106c-161 7 -241 70 -241 191c0 35 4 60 20 118l16 61c5 18 9 41 9 49c0 22 -14 27 -78 27h-26l5 47h70c92 0 135 -25 135 -80c0 -12 -2 -28 -6 -43l-24 -89c-7 -27 -14 -76 -14 -103c0 -57 28 -101 77 -120c23 -9 45 -13 69 -14l87 326c7 26 10 41 10 49
c0 22 -14 27 -79 27h-22l5 47h304l-6 -47c-59 -1 -71 -3 -84 -14c-8 -9 -9 -10 -23 -62l-87 -327c150 4 221 67 254 225l28 102c24 88 81 123 198 123h38l-13 -47h-12c-61 -1 -89 -22 -103 -76l-23 -88c-35 -138 -60 -180 -133 -226c-62 -36 -134 -52 -246 -56l-28 -106
c-8 -29 -10 -39 -10 -48c0 -23 14 -28 79 -28h22l-5 -47h-304l6 47c58 1 71 3 83 14c9 9 10 12 23 62z" />
    <glyph glyph-name="uni03A9" unicode="&#x3a9;" horiz-adv-x="799" 
d="M187 87l5 17c-82 42 -128 127 -128 235c0 226 179 398 414 398c170 0 282 -94 282 -237c0 -130 -64 -265 -161 -336c-35 -27 -87 -52 -133 -65l-5 -12h53c102 -1 162 45 218 166l41 -7l-79 -246h-331l28 105c56 19 95 44 133 86c40 44 66 92 89 164c19 59 30 120 30 167
c0 49 -17 96 -45 127c-27 29 -70 45 -124 45c-87 0 -166 -44 -218 -122c-43 -65 -74 -182 -74 -276c0 -90 25 -147 85 -191l-28 -105h-282l16 246l45 7c-2 -118 36 -166 130 -166h39z" />
    <glyph glyph-name="Iotadieresis" unicode="&#x3aa;" horiz-adv-x="407" 
d="M283 47l-6 -47h-310l5 47c59 1 72 3 84 14c9 9 10 12 23 62l128 476c8 29 10 41 10 49c0 22 -14 27 -80 27h-22l6 47h310l-5 -47c-59 -1 -72 -3 -84 -14c-9 -9 -9 -10 -23 -62l-128 -476c-9 -36 -10 -39 -10 -48c0 -23 14 -28 80 -28h22zM195 910c27 0 49 -22 49 -49
s-22 -49 -50 -49c-26 0 -48 22 -48 49s22 49 49 49zM397 910c27 0 49 -22 49 -49s-22 -49 -50 -49c-26 0 -48 22 -48 49s22 49 49 49z" />
    <glyph glyph-name="Upsilondieresis" unicode="&#x3ab;" horiz-adv-x="685" 
d="M362 364l170 218c16 19 26 41 26 54c0 24 -24 39 -64 39h-23l5 47h282l-5 -47c-72 -4 -101 -23 -171 -111l-200 -256l-50 -185c-7 -26 -10 -41 -10 -49c0 -22 14 -27 79 -27h37l-5 -47h-347l6 47h22c52 0 74 4 83 14c9 9 10 13 23 62l50 185l-120 298
c-25 59 -39 68 -101 69h-17l5 47h308l-5 -47h-28c-44 0 -61 -7 -61 -24c0 -8 3 -20 11 -38zM327 910c27 0 49 -22 49 -49s-22 -49 -50 -49c-26 0 -48 22 -48 49s22 49 49 49zM529 910c27 0 49 -22 49 -49s-22 -49 -50 -49c-26 0 -48 22 -48 49s22 49 49 49z" />
    <glyph glyph-name="alphatonos" unicode="&#x3ac;" horiz-adv-x="603" 
d="M419 347l69 108h95l-160 -230l-5 -118l-1 -17c0 -28 4 -37 17 -37c23 0 51 34 86 105l30 -17c-12 -26 -28 -54 -49 -83c-35 -49 -73 -73 -117 -73c-32 0 -49 16 -54 52c-2 11 -2 24 -4 71c-60 -89 -109 -123 -178 -123c-89 0 -143 68 -143 179c0 166 124 306 271 306
c85 0 142 -49 143 -123zM335 228c3 32 5 66 5 84c0 77 -24 120 -67 120c-53 0 -106 -49 -139 -131c-23 -54 -38 -127 -38 -181c0 -62 24 -97 65 -97c53 0 90 44 174 205zM302 540l58 175c8 27 20 37 43 37c25 0 47 -19 47 -41c0 -10 -5 -21 -14 -33l-114 -148z" />
    <glyph glyph-name="epsilontonos" unicode="&#x3ad;" horiz-adv-x="444" 
d="M259 252l-14 -47h-48c-61 0 -100 -36 -100 -93c0 -48 35 -79 89 -79c52 0 104 33 155 99l29 -22c-55 -86 -120 -125 -209 -125c-95 0 -155 45 -155 117c0 46 23 86 61 108c22 13 46 19 88 23c-59 9 -96 47 -96 99c0 80 81 138 193 138c91 0 149 -43 149 -109
c0 -42 -27 -74 -63 -74c-31 0 -53 20 -53 49c0 24 10 36 37 48c11 4 16 9 16 15c0 18 -33 33 -73 33c-69 0 -115 -41 -115 -103c0 -47 30 -77 79 -77h30zM255 540l58 175c8 27 20 37 43 37c25 0 47 -19 47 -41c0 -10 -5 -22 -14 -33l-113 -148z" />
    <glyph glyph-name="etatonos" unicode="&#x3ae;" horiz-adv-x="574" 
d="M61 408l-10 -1c-6 0 -12 3 -12 7c0 23 65 56 109 56c41 0 66 -22 66 -58c0 -16 -3 -32 -14 -77c67 92 125 135 185 135c53 0 96 -44 96 -97c0 -29 -7 -63 -24 -113l-59 -177c-44 -130 -70 -183 -114 -230c-29 -31 -67 -55 -88 -55c-6 0 -10 3 -10 9s2 9 11 17
c25 24 44 65 84 180l99 295c11 32 15 52 15 70c0 23 -17 41 -39 41c-44 0 -96 -39 -140 -103c-36 -53 -48 -81 -74 -168l-41 -139h-87l96 323c4 14 8 41 8 54c0 20 -15 33 -40 33c-5 0 -11 -1 -17 -2zM333 540l57 175c9 27 21 37 43 37c26 0 48 -19 48 -41
c0 -10 -5 -20 -14 -33l-114 -148z" />
    <glyph glyph-name="iotatonos" unicode="&#x3af;" horiz-adv-x="333" 
d="M231 470l-106 -357c-8 -28 -12 -46 -12 -56c0 -12 7 -21 17 -21c27 0 69 42 121 121l31 -17c-28 -43 -44 -65 -62 -85c-40 -46 -81 -69 -124 -69c-39 0 -69 27 -69 62c0 23 3 36 22 101l58 195c7 23 9 34 9 44c0 22 -16 31 -57 31h-24l4 36zM190 540l57 175
c9 27 21 37 44 37c25 0 47 -19 47 -41c0 -10 -5 -21 -14 -33l-114 -148z" />
    <glyph glyph-name="upsilondieresistonos" unicode="&#x3b0;" horiz-adv-x="538" 
d="M222 470l-68 -231c-16 -53 -23 -93 -23 -124c0 -44 31 -78 72 -78c58 0 120 50 163 131c28 54 48 115 48 150c0 21 -4 29 -28 56c-16 17 -22 29 -22 46c0 28 20 50 45 50c35 0 63 -35 63 -79c0 -78 -40 -196 -94 -277c-57 -86 -124 -130 -198 -130
c-77 0 -135 56 -135 131c0 31 7 73 19 114l34 115c6 18 10 38 10 46c0 20 -18 29 -57 29h-17l3 36zM316 540l58 175c8 27 20 37 43 37c25 0 47 -19 47 -41c0 -10 -5 -21 -14 -33l-114 -148zM248 644c27 0 49 -22 49 -49s-22 -49 -49 -49s-49 22 -49 49s22 49 49 49zM481 644
c27 0 49 -22 49 -49s-22 -49 -49 -49s-49 22 -49 49s22 49 49 49z" />
    <glyph glyph-name="alpha" unicode="&#x3b1;" horiz-adv-x="603" 
d="M419 347l69 108h95l-160 -230l-5 -118l-1 -17c0 -28 4 -37 17 -37c23 0 51 34 86 105l30 -17c-12 -26 -28 -54 -49 -83c-35 -49 -73 -73 -117 -73c-32 0 -49 16 -54 52c-2 11 -2 24 -4 71c-60 -89 -109 -123 -178 -123c-89 0 -143 68 -143 179c0 166 124 306 271 306
c85 0 142 -49 143 -123zM335 228c3 32 5 66 5 84c0 77 -24 120 -67 120c-53 0 -106 -49 -139 -131c-23 -54 -38 -127 -38 -181c0 -62 24 -97 65 -97c53 0 90 44 174 205z" />
    <glyph glyph-name="beta" unicode="&#x3b2;" horiz-adv-x="560" 
d="M37 -184l-110 -18c19 38 25 58 67 208l135 504c23 87 38 120 70 155c42 47 99 71 167 71c57 0 107 -17 141 -46c27 -25 40 -58 40 -103c0 -108 -61 -180 -168 -201c76 -21 108 -61 108 -134c0 -62 -29 -133 -77 -186s-109 -81 -180 -81c-69 0 -106 24 -126 81zM269 404
h23c43 0 78 14 105 41c33 34 57 98 57 154c0 62 -32 98 -87 98c-42 0 -78 -20 -101 -59c-13 -22 -20 -42 -39 -112l-78 -291c-11 -42 -16 -72 -16 -102c0 -61 32 -98 85 -98c50 0 97 30 131 84c28 44 44 94 44 137c0 74 -35 108 -112 108l-23 -1z" />
    <glyph glyph-name="gamma" unicode="&#x3b3;" horiz-adv-x="500" 
d="M228 45l18 29c52 84 53 86 72 125c34 70 50 119 50 152c0 15 0 18 -6 52c-1 6 -2 12 -2 17c0 27 22 50 49 50s45 -20 45 -51c0 -35 -11 -64 -68 -175c-43 -83 -78 -145 -113 -203c-34 -56 -37 -64 -50 -148c-9 -54 -40 -95 -73 -95c-21 0 -37 16 -37 38c0 23 7 44 47 135
c3 43 4 77 4 98c0 84 -12 174 -33 257c-11 41 -24 63 -38 63c-18 0 -28 -15 -66 -96l-31 14c42 108 86 163 131 163c26 0 46 -17 62 -51c30 -66 44 -147 44 -246c0 -31 -1 -70 -4 -115c-1 -6 -1 -7 -1 -13z" />
    <glyph glyph-name="delta" unicode="&#x3b4;" horiz-adv-x="500" 
d="M238 468l-13 13c-39 42 -54 71 -54 104c0 42 24 85 62 110c42 28 95 41 161 41c88 0 136 -30 136 -84c0 -35 -22 -59 -54 -59c-29 0 -52 20 -52 45c0 9 2 17 10 28c5 8 7 14 7 17c0 9 -23 15 -58 15c-65 0 -111 -33 -111 -78c0 -19 9 -35 39 -74l83 -106
c34 -45 56 -104 56 -155c0 -78 -31 -158 -85 -218c-49 -55 -109 -82 -182 -82c-110 0 -178 72 -178 188c0 102 46 191 129 250c32 23 67 38 104 45zM272 432h-6c-35 0 -68 -19 -96 -54c-41 -55 -75 -166 -75 -250c0 -68 31 -105 89 -105c43 0 75 19 104 64
c35 51 52 112 52 180s-16 106 -68 165z" />
    <glyph glyph-name="epsilon" unicode="&#x3b5;" horiz-adv-x="444" 
d="M259 252l-14 -47h-48c-61 0 -100 -36 -100 -93c0 -48 35 -79 89 -79c52 0 104 33 155 99l29 -22c-55 -86 -120 -125 -209 -125c-95 0 -155 45 -155 117c0 46 23 86 61 108c22 13 46 19 88 23c-59 9 -96 47 -96 99c0 80 81 138 193 138c91 0 149 -43 149 -109
c0 -42 -27 -74 -63 -74c-31 0 -53 20 -53 49c0 24 10 36 37 48c11 4 16 9 16 15c0 18 -33 33 -73 33c-69 0 -115 -41 -115 -103c0 -47 30 -77 79 -77h30z" />
    <glyph glyph-name="zeta" unicode="&#x3b6;" horiz-adv-x="411" 
d="M183 -25l-45 14c-54 17 -65 23 -87 48c-30 33 -44 76 -44 132c0 101 48 200 145 299c55 57 106 97 243 191c-92 0 -100 1 -151 7c-16 2 -30 3 -40 3c-21 0 -28 -7 -55 -59l-15 -27l-32 6l51 150c85 -11 225 -21 283 -21c24 0 53 5 74 12c14 5 17 6 22 6c9 0 13 -3 13 -10
c0 -14 -7 -24 -24 -34c-119 -72 -213 -150 -293 -241c-88 -101 -129 -195 -129 -298c0 -61 22 -94 74 -109l40 -12c63 -19 85 -39 85 -77c0 -74 -110 -157 -206 -157c-43 0 -74 22 -74 52c0 24 21 43 49 43c19 0 23 -2 46 -25c12 -13 22 -17 36 -17c38 0 76 41 76 83
c0 18 -15 33 -42 41z" />
    <glyph glyph-name="eta" unicode="&#x3b7;" horiz-adv-x="574" 
d="M61 408l-10 -1c-6 0 -12 3 -12 7c0 23 65 56 109 56c41 0 66 -22 66 -58c0 -16 -3 -32 -14 -77c67 92 125 135 185 135c53 0 96 -44 96 -97c0 -29 -7 -63 -24 -113l-59 -177c-44 -130 -70 -183 -114 -230c-29 -31 -67 -55 -88 -55c-6 0 -10 3 -10 9s2 9 11 17
c25 24 44 65 84 180l99 295c11 32 15 52 15 70c0 23 -17 41 -39 41c-44 0 -96 -39 -140 -103c-36 -53 -48 -81 -74 -168l-41 -139h-87l96 323c4 14 8 41 8 54c0 20 -15 33 -40 33c-5 0 -11 -1 -17 -2z" />
    <glyph glyph-name="theta" unicode="&#x3b8;" horiz-adv-x="493" 
d="M132 384h237c18 79 23 122 23 180c0 86 -25 134 -69 134c-70 0 -136 -109 -191 -314zM357 337h-236c-19 -84 -27 -141 -27 -197c0 -76 25 -117 73 -117c55 0 94 46 142 164c17 43 31 85 48 150zM325 736c90 0 154 -103 154 -249c0 -100 -33 -222 -87 -323
c-65 -121 -139 -179 -227 -179c-94 0 -152 87 -152 228c0 121 31 245 86 341c64 112 152 182 226 182z" />
    <glyph glyph-name="iota" unicode="&#x3b9;" horiz-adv-x="333" 
d="M231 470l-106 -357c-8 -28 -12 -46 -12 -56c0 -12 7 -21 17 -21c27 0 69 42 121 121l31 -17c-28 -43 -44 -65 -62 -85c-40 -46 -81 -69 -124 -69c-39 0 -69 27 -69 62c0 23 3 36 22 101l58 195c7 23 9 34 9 44c0 22 -16 31 -57 31h-24l4 36z" />
    <glyph glyph-name="kappa" unicode="&#x3ba;" horiz-adv-x="583" 
d="M165 218l-64 -218h-87l102 344c5 18 8 33 8 43c0 23 -15 32 -56 32h-24l4 36l192 15l-61 -205h38c48 2 72 19 101 68l27 49c34 63 68 88 117 88c46 0 74 -24 74 -63c0 -36 -26 -64 -58 -64c-27 0 -42 13 -46 40c-3 13 -6 18 -13 18c-10 0 -15 -6 -40 -49l-30 -51
c-23 -36 -31 -43 -75 -58c61 -14 76 -38 78 -123c4 -60 4 -60 9 -69c3 -7 8 -10 16 -10c24 0 47 25 104 114l31 -20c-20 -33 -41 -65 -64 -91c-36 -43 -66 -59 -108 -59c-51 0 -75 26 -75 81c0 18 1 33 4 61c1 12 2 25 2 31c0 44 -18 60 -67 60h-39z" />
    <glyph glyph-name="lambda" unicode="&#x3bb;" horiz-adv-x="448" 
d="M410 172l31 -14c-42 -108 -86 -163 -130 -163c-45 0 -72 46 -96 164c-16 78 -23 146 -23 235l-1 -2c-81 -128 -122 -222 -122 -279c0 -14 0 -17 6 -51c1 -6 2 -11 2 -17c0 -27 -22 -50 -48 -50c-28 0 -46 20 -46 53c0 30 12 65 47 133c37 73 37 73 153 273
c32 55 54 128 54 179c0 36 -13 61 -32 61c-14 0 -16 -4 -16 -38c0 -27 -21 -48 -46 -48c-29 0 -52 23 -52 54c0 42 40 74 93 74c69 0 105 -51 105 -146c0 -13 -2 -43 -4 -71c-4 -54 -6 -95 -6 -127c0 -144 36 -316 66 -316c17 0 30 18 65 96z" />
    <glyph glyph-name="uni03BC" unicode="&#x3bc;" horiz-adv-x="611" 
d="M526 153l30 -18c-71 -109 -121 -150 -182 -150c-37 0 -64 27 -64 65c0 20 3 34 12 69c-58 -92 -115 -133 -185 -133c-27 0 -49 7 -66 22c-2 -12 -4 -20 -5 -31c-1 -7 -1 -19 -2 -36v-31c-2 -61 -33 -112 -69 -112c-17 0 -27 13 -27 35c0 25 11 61 41 138
c14 37 25 78 33 126c4 23 4 25 7 37c1 4 9 29 23 75l40 135c7 21 9 33 9 43c0 23 -15 32 -57 32h-23l3 36l192 15l-97 -328c-10 -34 -12 -44 -12 -57c0 -24 19 -43 43 -43c71 0 163 114 204 253l48 160h86l-98 -332c-10 -35 -13 -48 -13 -60s9 -23 18 -23
c22 0 61 40 111 113z" />
    <glyph glyph-name="nu" unicode="&#x3bd;" horiz-adv-x="500" 
d="M27 293l-31 14c42 107 86 163 130 163c27 0 49 -23 62 -66c17 -57 24 -101 51 -307c81 107 129 203 129 255c0 14 0 17 -6 51c-1 6 -2 12 -2 17c0 27 22 50 49 50s45 -20 45 -51c0 -34 -11 -58 -77 -176c-47 -84 -81 -138 -164 -258h-38c-17 143 -30 225 -54 341
c-9 43 -18 63 -29 63c-17 0 -28 -17 -65 -96z" />
    <glyph glyph-name="xi" unicode="&#x3be;" horiz-adv-x="443" 
d="M181 -25l-45 14c-49 15 -67 25 -90 49c-27 28 -41 64 -41 107c0 72 35 133 97 169c33 19 62 28 115 36c-60 16 -92 57 -92 118c0 90 69 156 202 192c-32 0 -59 2 -85 6c-16 2 -31 3 -41 3c-20 0 -27 -7 -54 -59l-15 -27l-32 6l51 150c87 -12 224 -22 283 -22
c24 0 53 5 74 13c14 5 17 6 22 6c9 0 13 -3 13 -10c0 -14 -9 -27 -24 -34c-21 -10 -31 -13 -97 -29c-127 -31 -205 -104 -205 -192c0 -68 42 -105 119 -105h30l-13 -47h-37c-142 0 -219 -59 -219 -167c0 -56 26 -94 73 -108l41 -12c63 -18 85 -39 85 -77
c0 -73 -110 -157 -204 -157c-45 0 -76 22 -76 52c0 24 21 43 49 43c19 0 23 -2 46 -25c12 -13 22 -17 36 -17c38 0 76 41 76 82c0 20 -14 34 -42 42z" />
    <glyph glyph-name="omicron" unicode="&#x3bf;" horiz-adv-x="500" 
d="M273 470c97 0 177 -85 177 -188c0 -76 -31 -155 -85 -215c-49 -55 -109 -82 -182 -82c-109 0 -178 72 -178 187c0 84 28 155 84 212c55 56 118 86 184 86zM268 432c-38 0 -70 -18 -98 -54c-41 -55 -75 -166 -75 -250c0 -68 31 -105 89 -105c53 0 90 30 124 99
c27 55 47 135 47 187c0 77 -32 123 -87 123z" />
    <glyph glyph-name="pi" unicode="&#x3c0;" horiz-adv-x="669" 
d="M405 377h-152c-17 -87 -50 -185 -84 -250c-39 -78 -103 -139 -144 -139c-6 0 -10 3 -10 9s2 9 11 17c31 26 71 128 120 307l15 56h-32c-28 1 -61 -14 -87 -39c-17 -16 -23 -20 -31 -20c-6 0 -11 4 -11 10c0 10 35 59 60 82c38 36 69 45 156 45h299c68 0 97 5 129 24
c7 4 11 6 14 6c6 0 11 -5 11 -11c0 -5 -1 -6 -16 -25l-61 -72h-100l-78 -264c-8 -26 -12 -46 -12 -56c0 -12 7 -21 16 -21c28 0 71 43 122 121l31 -17c-29 -44 -45 -65 -62 -85c-40 -46 -81 -69 -125 -69c-38 0 -68 27 -68 62c0 23 4 40 22 101z" />
    <glyph glyph-name="rho" unicode="&#x3c1;" horiz-adv-x="531" 
d="M83 73l-9 -32c-46 -155 -48 -161 -71 -225l-110 -18c40 87 87 214 111 301l34 114c33 113 63 166 116 207c43 34 89 50 142 50c103 0 167 -65 167 -169c0 -76 -30 -161 -80 -223c-49 -62 -110 -93 -180 -93c-66 0 -93 19 -120 88zM294 432c-41 0 -80 -28 -114 -81
c-39 -61 -71 -162 -71 -224c0 -54 35 -92 84 -92c53 0 94 34 129 109c30 62 47 130 47 184c0 63 -30 104 -75 104z" />
    <glyph glyph-name="uni03C2" unicode="&#x3c2;" horiz-adv-x="441" 
d="M170 44l41 -12c63 -19 85 -39 85 -78c0 -28 -18 -62 -47 -88c-23 -21 -43 -35 -63 -44c-30 -14 -71 -24 -94 -24c-45 0 -76 22 -76 52c0 24 21 43 49 43c19 0 23 -2 46 -25c12 -13 22 -17 36 -17c38 0 76 41 76 82c0 19 -15 34 -42 42l-45 14c-54 17 -65 23 -87 48
c-29 32 -44 76 -44 128c0 161 126 305 266 305c73 0 130 -48 130 -108c0 -43 -27 -75 -63 -75c-31 0 -53 20 -53 49c0 24 10 36 37 48c11 4 16 9 16 15c0 17 -32 33 -64 33c-44 0 -80 -23 -115 -74c-39 -57 -62 -134 -62 -208c0 -58 22 -91 73 -106z" />
    <glyph glyph-name="sigma" unicode="&#x3c3;" horiz-adv-x="530" 
d="M412 397c25 -34 38 -75 38 -115c0 -76 -31 -155 -85 -215c-49 -55 -109 -82 -182 -82c-110 0 -178 72 -178 188c0 102 46 191 129 250c45 32 92 47 151 47c40 0 55 -2 126 -18c15 -3 30 -5 47 -5c16 0 32 2 51 7c3 1 6 1 8 1c5 0 7 -3 7 -13c0 -27 -36 -46 -91 -46
c-6 0 -12 0 -21 1zM280 416c-38 0 -75 -18 -103 -51c-46 -52 -82 -157 -82 -237c0 -68 32 -105 89 -105c53 0 90 30 124 99c27 55 47 136 47 187c0 68 -27 107 -75 107z" />
    <glyph glyph-name="tau" unicode="&#x3c4;" horiz-adv-x="482" 
d="M257 377l-78 -264c-9 -30 -12 -45 -12 -56c0 -12 7 -21 17 -21c27 0 71 44 121 121l31 -17c-28 -43 -44 -65 -62 -85c-40 -46 -81 -69 -125 -69c-39 0 -68 27 -68 63c0 22 3 35 22 100l68 228h-95c-29 1 -61 -14 -87 -39c-16 -15 -23 -20 -31 -20c-6 0 -11 4 -11 10
c0 8 30 51 51 74c38 39 76 53 143 53h22h166c68 0 97 5 129 24c7 4 12 6 14 6c6 0 11 -5 11 -11c0 -5 -1 -6 -16 -25l-61 -72h-149z" />
    <glyph glyph-name="upsilon" unicode="&#x3c5;" horiz-adv-x="538" 
d="M222 470l-68 -231c-16 -53 -23 -93 -23 -124c0 -44 31 -78 72 -78c58 0 120 50 163 131c28 54 48 115 48 150c0 21 -4 29 -28 56c-16 17 -22 29 -22 46c0 28 20 50 45 50c35 0 63 -35 63 -79c0 -78 -40 -196 -94 -277c-57 -86 -124 -130 -198 -130
c-77 0 -135 56 -135 131c0 31 7 73 19 114l34 115c6 18 10 38 10 46c0 20 -18 29 -57 29h-17l3 36z" />
    <glyph glyph-name="phi" unicode="&#x3c6;" horiz-adv-x="643" 
d="M163 -90l23 79c-121 15 -181 77 -181 190c0 69 26 138 73 190c37 42 87 72 120 72c7 0 11 -4 11 -12s-4 -13 -16 -23c-60 -46 -101 -140 -101 -232c0 -86 32 -130 106 -146l91 310c28 93 68 132 136 132c94 0 168 -82 168 -187c0 -106 -56 -212 -138 -258
c-43 -24 -109 -38 -187 -40l-22 -75c-8 -26 -11 -42 -11 -51c0 -19 16 -25 64 -25h12l-4 -36h-237l4 36c68 3 69 4 89 76zM378 358l-98 -335c65 2 112 21 149 61c42 44 73 135 73 211c0 75 -32 137 -70 137c-23 0 -38 -21 -54 -74z" />
    <glyph glyph-name="chi" unicode="&#x3c7;" horiz-adv-x="480" 
d="M218 258l48 94c26 50 34 63 53 83c21 23 51 37 78 37c33 0 57 -26 57 -61c0 -33 -19 -54 -50 -54c-19 0 -25 5 -34 25c-4 9 -10 13 -17 13c-15 0 -27 -12 -46 -49l-82 -159l20 -219c4 -66 6 -76 14 -91c6 -12 15 -18 25 -18c18 0 35 15 64 54c16 21 19 26 29 42l31 -17
c-25 -43 -30 -51 -48 -72c-45 -55 -64 -68 -99 -68c-57 0 -79 31 -89 127l-14 134l-72 -139c-28 -55 -39 -71 -61 -92c-21 -21 -50 -33 -76 -33c-42 0 -69 23 -69 59c0 35 23 59 55 59c25 0 38 -11 43 -37c2 -13 7 -19 16 -19c15 0 19 5 66 93l91 178l-19 194
c-5 46 -5 46 -9 56c-4 8 -14 15 -22 15c-17 0 -30 -14 -82 -89l-29 22c48 69 60 85 76 103c25 28 46 41 68 41c24 0 47 -16 58 -41c10 -21 15 -42 18 -85z" />
    <glyph glyph-name="psi" unicode="&#x3c8;" horiz-adv-x="686" 
d="M438 455l-123 -414c79 9 132 39 173 96c39 53 70 135 70 181c0 20 -5 30 -30 54c-17 17 -23 29 -23 48c0 29 21 50 49 50c36 0 65 -35 65 -78c0 -84 -41 -204 -95 -278c-59 -80 -127 -119 -224 -126l-23 -78c-9 -30 -12 -42 -12 -50c0 -20 16 -26 65 -26h11l-3 -36h-237
l3 36c68 3 69 4 89 76l23 76c-107 13 -165 68 -165 155c0 25 6 62 13 88l34 115c6 18 10 38 10 46c0 20 -18 29 -57 29h-17l3 36l185 15l-68 -231c-10 -35 -18 -80 -18 -105c0 -57 33 -90 96 -95l123 416h83z" />
    <glyph glyph-name="omega" unicode="&#x3c9;" horiz-adv-x="682" 
d="M265 169v12c-1 12 -1 21 -1 29c0 45 25 77 59 77c23 0 37 -18 37 -47c0 -23 -4 -33 -27 -68c-17 -26 -27 -57 -27 -83c0 -33 24 -54 62 -54c35 0 66 12 88 35c42 44 68 124 68 210c0 65 -14 127 -37 166c-5 9 -7 13 -7 17c0 3 4 7 9 7c12 0 32 -12 53 -33
c48 -48 74 -111 74 -183c0 -63 -20 -128 -56 -179c-42 -61 -99 -90 -175 -90c-60 0 -97 18 -116 59c-33 -39 -79 -59 -134 -59c-81 0 -130 55 -130 148c0 129 67 243 180 309c30 17 62 28 82 28c8 0 14 -5 14 -11c0 -4 -4 -8 -15 -16c-63 -44 -92 -73 -121 -126
c-30 -54 -48 -120 -48 -180c0 -66 27 -103 74 -103c51 0 94 62 94 135z" />
    <glyph glyph-name="iotadieresis" unicode="&#x3ca;" horiz-adv-x="333" 
d="M231 470l-106 -357c-8 -28 -12 -46 -12 -56c0 -12 7 -21 17 -21c27 0 69 42 121 121l31 -17c-60 -101 -124 -154 -187 -154c-38 0 -68 27 -68 62c0 23 3 36 22 101l58 195c7 23 9 34 9 44c0 22 -16 31 -57 31h-24l4 36zM98 644c27 0 49 -22 49 -49s-22 -49 -49 -49
s-49 22 -49 49s22 49 49 49zM300 644c27 0 49 -22 49 -49s-22 -49 -49 -49s-49 22 -49 49s22 49 49 49z" />
    <glyph glyph-name="upsilondieresis" unicode="&#x3cb;" horiz-adv-x="538" 
d="M222 470l-68 -231c-16 -53 -23 -93 -23 -124c0 -44 31 -78 72 -78c58 0 120 50 163 131c28 54 48 115 48 150c0 21 -4 29 -28 56c-16 17 -22 29 -22 46c0 28 20 50 45 50c35 0 63 -35 63 -79c0 -78 -40 -196 -94 -277c-57 -86 -124 -130 -198 -130
c-77 0 -135 56 -135 131c0 31 7 73 19 114l34 115c6 18 10 38 10 46c0 20 -18 29 -57 29h-17l3 36zM221 644c27 0 49 -22 49 -49s-22 -49 -49 -49s-49 22 -49 49s22 49 49 49zM423 644c27 0 49 -22 49 -49s-22 -49 -49 -49s-49 22 -49 49s22 49 49 49z" />
    <glyph glyph-name="omicrontonos" unicode="&#x3cc;" horiz-adv-x="500" 
d="M273 470c97 0 177 -85 177 -188c0 -76 -31 -155 -85 -215c-49 -55 -109 -82 -182 -82c-109 0 -178 72 -178 187c0 84 28 155 84 212c55 56 118 86 184 86zM268 432c-38 0 -70 -18 -98 -54c-41 -55 -75 -166 -75 -250c0 -68 31 -105 89 -105c53 0 90 30 124 99
c27 55 47 135 47 187c0 77 -32 123 -87 123zM291 540l57 175c9 27 21 37 43 37c26 0 48 -19 48 -41c0 -10 -5 -21 -14 -33l-114 -148z" />
    <glyph glyph-name="upsilontonos" unicode="&#x3cd;" horiz-adv-x="538" 
d="M222 470l-68 -231c-16 -53 -23 -93 -23 -124c0 -44 31 -78 72 -78c58 0 120 50 163 131c28 54 48 115 48 150c0 21 -4 29 -28 56c-16 17 -22 29 -22 46c0 28 20 50 45 50c35 0 63 -35 63 -79c0 -78 -40 -196 -94 -277c-57 -86 -124 -130 -198 -130
c-77 0 -135 56 -135 131c0 31 7 73 19 114l34 115c6 18 10 38 10 46c0 20 -18 29 -57 29h-17l3 36zM314 540l58 175c9 27 21 37 43 37c25 0 47 -19 47 -41c0 -10 -5 -22 -13 -33l-114 -148z" />
    <glyph glyph-name="omegatonos" unicode="&#x3ce;" horiz-adv-x="682" 
d="M265 169v12c-1 12 -1 21 -1 29c0 45 25 77 59 77c23 0 37 -18 37 -47c0 -23 -4 -33 -27 -68c-17 -26 -27 -57 -27 -83c0 -33 24 -54 62 -54c35 0 66 12 88 35c42 44 68 124 68 210c0 65 -14 127 -37 166c-5 9 -7 13 -7 17c0 3 4 7 9 7c12 0 32 -12 53 -33
c48 -48 74 -111 74 -183c0 -63 -20 -128 -56 -179c-42 -61 -99 -90 -175 -90c-60 0 -97 18 -116 59c-33 -39 -79 -59 -134 -59c-81 0 -130 55 -130 148c0 129 67 243 180 309c30 17 62 28 82 28c8 0 14 -5 14 -11c0 -4 -4 -8 -15 -16c-63 -44 -92 -73 -121 -126
c-30 -54 -48 -120 -48 -180c0 -66 27 -103 74 -103c51 0 94 62 94 135zM347 540l57 175c9 27 21 37 43 37c26 0 48 -19 48 -41c0 -10 -5 -21 -14 -33l-114 -148z" />
    <glyph glyph-name="theta1" unicode="&#x3d1;" horiz-adv-x="525" 
d="M469 384h56l-13 -47h-56c-59 -214 -181 -352 -311 -352c-87 0 -152 64 -152 150c0 67 37 130 96 166c19 11 35 18 43 18c3 0 4 -1 4 -6s-2 -9 -6 -17c-34 -57 -49 -107 -49 -168c0 -64 26 -105 67 -105c52 0 99 41 140 121c24 46 43 99 70 193c-56 6 -95 15 -128 29
c-81 34 -127 99 -127 179c0 109 91 191 211 191c112 0 172 -70 172 -201c0 -47 -3 -74 -17 -151zM371 384c20 101 28 156 28 205c0 73 -27 109 -81 109c-68 0 -115 -61 -115 -150c0 -54 20 -99 55 -127c29 -21 57 -31 113 -37z" />
    <glyph glyph-name="phi1" unicode="&#x3d5;" horiz-adv-x="643" 
d="M198 28l119 404c-40 -1 -65 -7 -91 -19c-49 -22 -80 -57 -104 -115c-19 -46 -30 -101 -30 -154c0 -68 32 -103 106 -116zM399 427l-119 -404c74 5 119 23 152 61c39 44 70 139 70 212c0 76 -31 115 -103 131zM328 470l42 141c5 18 8 34 8 44c0 22 -16 31 -56 31h-31l3 36
l196 15l-80 -272c53 -10 71 -15 96 -29c57 -31 87 -84 87 -152c0 -107 -56 -213 -138 -259c-43 -24 -109 -38 -187 -40l-22 -75c-7 -26 -11 -42 -11 -50c0 -20 16 -26 64 -26h12l-4 -36h-237l4 36c68 3 69 4 89 76l23 79c-125 15 -181 71 -181 182c0 180 128 299 323 299z
" />
    <glyph glyph-name="omega1" unicode="&#x3d6;" horiz-adv-x="611" 
d="M251 432l22 -30c-70 -64 -80 -74 -98 -100c-26 -39 -40 -85 -40 -129c0 -51 27 -79 75 -79c25 0 41 6 70 24v14v42c0 69 37 124 84 124c21 0 36 -18 36 -44c0 -33 -10 -53 -67 -136c26 -17 41 -22 63 -22c66 0 131 65 131 131c0 21 0 21 -37 95c-11 23 -15 34 -15 44
c0 33 29 66 59 66c38 0 63 -37 63 -94c0 -159 -123 -350 -226 -350c-36 0 -52 17 -79 81c-61 -63 -94 -82 -144 -82c-66 0 -108 53 -108 135c0 108 72 214 211 310zM282 590h305l-17 -82h-305z" />
    <glyph glyph-name="uni0400" unicode="&#x400;" horiz-adv-x="722" 
d="M701 722l-39 -241h-45v34c0 71 -9 102 -37 127c-25 22 -59 33 -102 33h-58c-76 -1 -84 -6 -100 -69l-55 -205h23c100 2 147 34 178 125l45 -6l-89 -334l-45 8c7 32 9 47 9 69c0 61 -36 90 -111 91h-22l-59 -220c-10 -38 -11 -43 -11 -55c0 -24 18 -32 70 -32h54
c143 2 211 49 294 206l41 -8l-78 -245h-601l5 47h5c52 0 73 4 83 14c9 9 10 13 23 62l128 476c5 22 9 41 9 49c0 22 -14 27 -79 27h-26l6 47h584zM483 774h-41l-134 107c-9 7 -15 17 -15 26c0 20 18 39 39 39c15 0 19 -3 38 -28z" />
    </font>
</defs>
</svg>
