<?xml version="1.0" standalone="no"?>
<!DOCTYPE svg PUBLIC "-//W3C//DTD SVG 1.1//EN" "http://www.w3.org/Graphics/SVG/1.1/DTD/svg11.dtd" >
<svg xmlns="http://www.w3.org/2000/svg" xmlns:xlink="http://www.w3.org/1999/xlink" version="1.1">
<metadata>
Created by FontForge 20230101 at Fri Aug 26 13:30:32 2011
 By Glenn Lewis
Copyright (c) 2011, Copyright (c) 2011, TypeTogether (www.type-together.com), with Reserved Font Names "Abril" and "Abril Fatface"
</metadata>
<defs>
<font id="AbrilFatface-Regular" horiz-adv-x="500" >
  <font-face 
    font-family="Abril Fatface"
    font-weight="400"
    font-stretch="normal"
    units-per-em="1000"
    panose-1="2 0 5 3 0 0 0 2 0 3"
    ascent="800"
    descent="-200"
    x-height="476"
    cap-height="700"
    bbox="-181 -291 1131 1058"
    underline-thickness="50"
    underline-position="-100"
    unicode-range="U+0020-FB04"
  />
<missing-glyph horiz-adv-x="200" 
 />
    <glyph glyph-name="ij" unicode="ij" horiz-adv-x="623" 
d="M81.5 572q-22.5 27 -22.5 67t24.5 66t74.5 26t76 -23.5t26 -67t-25 -69.5t-78 -26t-75.5 27zM6 476h245v-458h56v-18h-297v18h55v440h-59v18zM568 476v-390q0 -164 -56.5 -250t-184.5 -86q-83 0 -121.5 33t-38.5 77t26 67.5t65 23.5t58.5 -21.5t19.5 -47.5t-6 -50h-38
q-16 -27 -4.5 -46t42 -19t41.5 34.5t11 142.5v514h-65v18h251zM397.5 572q-22.5 27 -22.5 67t24.5 66t74.5 26t76 -23.5t26 -67t-25 -69.5t-78 -26t-75.5 27z" />
    <glyph glyph-name="ff" unicode="ff" horiz-adv-x="712" 
d="M642 756q-38 0 -50 -28.5t-12 -91.5v-160h132v-18h-132v-440h122v-18h-363v18h55v440h-143v-440h50v-18h-291v18h55v440h-58v18h58v2q0 272 239 272q101 0 140 -65q64 88 189 88q85 0 122 -33.5t37 -77.5t-23 -66t-61 -22t-58.5 19.5t-20.5 45t6 49.5h38q7 17 7 32
q0 36 -38 36zM313 733q-38 0 -50 -28.5t-12 -91.5v-137h143v4l16 82q-13 -11 -42 -11t-48.5 19.5t-19.5 45t6 49.5h38q7 17 7 32q0 36 -38 36z" />
    <glyph glyph-name="fi" unicode="fi" horiz-adv-x="646" 
d="M364 756q-113 0 -113 -120v-160h329v-458h56v-18h-287v18h45v440h-143v-440h64v-18h-305v18h55v440h-58v18h58v2q0 140 78 217.5t231 77.5q84 0 132.5 -35.5t48.5 -82.5t-24 -69t-62 -22t-60 19.5t-22 45t6 49.5l41 11q13 34 -9 50.5t-61 16.5z" />
    <glyph glyph-name="fl" unicode="fl" horiz-adv-x="645" 
d="M313 756q-38 0 -50 -28.5t-12 -91.5v-160h92v-18h-92v-440h58v-18h-299v18h55v440h-58v18h58v2q0 140 60 217.5t177 77.5t151 -68l105 45h22v-732h56v-18h-287v18h45v511l11 57q-13 -10 -41 -10t-46 19.5t-18 44t6 48.5h38q7 17 7 32q0 36 -38 36z" />
    <glyph glyph-name="ffi" unicode="ffi" horiz-adv-x="977" 
d="M695 756q-113 0 -113 -120v-160h329v-458h56v-18h-287v18h45v440h-143v-440h64v-18h-305v18h55v440h-145v-440h50v-18h-291v18h55v440h-58v18h58v2q0 272 239 272q123 0 152 -75q78 98 249 98q84 0 132.5 -35.5t48.5 -82.5t-24 -69t-62 -22t-60 19.5t-22 45t6 49.5l41 11
q13 34 -9 50.5t-61 16.5zM313 733q-38 0 -50 -28.5t-12 -91.5v-137h145v2l16 85q-13 -12 -43 -12t-49.5 19.5t-19.5 45t6 49.5h38q20 68 -31 68z" />
    <glyph glyph-name="ffl" unicode="ffl" horiz-adv-x="974" 
d="M642 756q-38 0 -50 -28.5t-12 -91.5v-160h92v-18h-92v-440h58v-18h-299v18h55v440h-143v-440h50v-18h-291v18h55v440h-58v18h58v2q0 272 239 272q110 0 145 -61q62 84 180.5 84t152.5 -68l105 45h22v-732h56v-18h-287v18h45v510l11 58q-10 -10 -39 -10t-47.5 19t-18.5 44
t6 49h38q12 37 2 52.5t-33 15.5zM313 733q-38 0 -50 -28.5t-12 -91.5v-137h143v2l17 85q-12 -12 -42.5 -12t-49.5 19.5t-19 45t6 49.5h38q20 68 -31 68z" />
    <glyph glyph-name="t_t" unicode="tt" horiz-adv-x="716" 
d="M50 143v315h-55v18h55v129l186 46v-175h146v129l186 46v-175h130v-18h-130v-337q0 -47 9.5 -69t39.5 -22t52.5 30t29.5 82l17 -2q-8 -69 -44 -109.5t-112 -40.5t-117.5 21.5t-54.5 76.5q-36 -98 -163 -98q-84 0 -129.5 33t-45.5 120zM382 143v315h-146v-337
q0 -48 12 -69.5t45.5 -21.5t57.5 30.5t31 82.5z" />
    <glyph glyph-name=".notdef" horiz-adv-x="200" 
 />
    <glyph glyph-name=".null" horiz-adv-x="0" 
 />
    <glyph glyph-name="nonmarkingreturn" horiz-adv-x="333" 
 />
    <glyph glyph-name="space" unicode=" " horiz-adv-x="180" 
 />
    <glyph glyph-name="exclam" unicode="!" horiz-adv-x="377" 
d="M178 178v86q0 86 -32.5 204.5t-32.5 161.5t23.5 62t57.5 19q76 0 76 -81q0 -47 -35 -164t-35 -203v-85h-22zM129.5 11.5q-18.5 21.5 -18.5 54t20 54t55 21.5t56 -18.5t21 -54.5t-20 -57t-57.5 -21t-56 21.5z" />
    <glyph glyph-name="quotedbl" unicode="&#x22;" horiz-adv-x="334" 
d="M227 481l-29 266q40 20 65 20q34 0 34 -37q0 -23 -9 -66l-40 -183h-21zM79 481l-29 266q40 20 65 20q34 0 34 -37q0 -23 -9 -66l-40 -183h-21z" />
    <glyph glyph-name="numbersign" unicode="#" horiz-adv-x="608" 
d="M163 0h-25l27 169h-120l16 92h117l26 146h-120l15 93h117l21 140h26l-22 -140h172l21 140h26l-22 -140h128l-14 -93h-126l-24 -146h126l-14 -92h-124l-28 -169h-25l28 169h-174zM401 407h-172l-26 -146h174z" />
    <glyph glyph-name="dollar" unicode="$" horiz-adv-x="565" 
d="M258 691l23 1q21 0 39 -3v81h28v-85q19 -4 51 -13.5t46.5 -9.5t23.5 20h10l7 -197h-15q-63 121 -123 161v-206q82 -27 129.5 -75t47.5 -141t-47.5 -154.5t-129.5 -75.5v-65h-28v62q-6 -1 -23.5 -1t-38.5 3v-64h-28v67l-119 23q-16 0 -27 -29h-13l-9 232h16
q62 -135 152 -187v225q-80 28 -122.5 77.5t-42.5 134t43.5 142.5t121.5 73v83h28v-79zM312 11h8v219q-22 9 -61 21h-1v-229q27 -11 54 -11zM258 467q40 -13 62 -18v212q-25 11 -42 11t-20 -1v-204zM430 113q0 67 -82 106v-204q36 9 59 34t23 64zM155 573q0 -63 75 -95v189
q-34 -10 -54.5 -35t-20.5 -59z" />
    <glyph glyph-name="percent" unicode="%" horiz-adv-x="768" 
d="M443.5 36.5q-44.5 46.5 -44.5 120t48 122.5t127.5 49t124 -43t44.5 -122.5t-49 -126t-127.5 -46.5t-123 46.5zM523 225q-1 -21 -1 -68t1 -67t5.5 -43.5t15 -32t28.5 -8.5t28.5 9t14.5 34q6 37 6 97t-1 81.5t-5.5 44.5t-14.5 31.5t-28 8.5t-28.5 -8.5t-15 -33t-5.5 -45.5z
M154 0l421 700h40l-420 -700h-41zM74.5 419.5q-44.5 46.5 -44.5 120t48 122.5t127.5 49t124 -43t44.5 -122.5t-49 -126t-127.5 -46.5t-123 46.5zM154 608q-1 -21 -1 -68t1 -67t5.5 -43.5t15 -32t28.5 -8.5t28.5 9t14.5 34q6 38 6 97.5t-1 81t-5.5 44.5t-14.5 31.5t-28 8.5
t-28.5 -8.5t-15 -33t-5.5 -45.5z" />
    <glyph glyph-name="ampersand" unicode="&#x26;" horiz-adv-x="822" 
d="M515 -226q49 0 75.5 47t26.5 116t-53 140q-76 -87 -209 -87t-211.5 45t-78.5 142q0 67 36 108t121 60q-88 80 -88 174.5t66.5 143t165.5 48.5t148.5 -36t49.5 -97q0 -106 -161 -162q20 -13 73 -46q111 -72 157 -116q15 71 17 146h-79v20h174v-20h-70q-2 -94 -19 -169
q43 -48 65 -92t22 -111q0 -108 -76 -193t-173 -85q-65 0 -101 27t-36 69t23.5 65.5t59.5 23.5q80 0 80 -72q0 -15 -6 -36h-35q-18 -53 36 -53zM379 16q106 0 168 82q-46 48 -129 104q-143 94 -182 128q-15 -32 -15 -130t39 -141t119 -43zM296 666.5q-27 -23.5 -27 -74.5
t24 -84t92 -80q42 22 52.5 53t10.5 91q0 118 -87 118q-38 0 -65 -23.5z" />
    <glyph glyph-name="quotesingle" unicode="'" horiz-adv-x="186" 
d="M79 481l-29 266q40 20 65 20q34 0 34 -37q0 -23 -9 -66l-40 -183h-21z" />
    <glyph glyph-name="parenleft" unicode="(" horiz-adv-x="351" 
d="M70 141q-20 80 -20 180.5t35 204.5t110 176.5t176 75.5v-20q-57 -2 -81 -40q-27 -41 -32 -93q-7 -71 -7 -179v-287q0 -190 31 -243q29 -51 89 -53v-21q-79 1 -142.5 42t-101 109t-57.5 148z" />
    <glyph glyph-name="parenright" unicode=")" horiz-adv-x="351" 
d="M281 478q20 -80 20 -180.5t-35 -204.5t-110 -176.5t-176 -75.5v20q57 2 81 39q27 42 32 94q7 71 7 179v287q0 190 -31 244q-29 50 -89 52v21q79 -1 142.5 -42t101 -109t57.5 -148z" />
    <glyph glyph-name="asterisk" unicode="*" horiz-adv-x="529" 
d="M465 608l-183 -33l132 -35q16 -4 25.5 -8t19 -14.5t9.5 -25.5q0 -47 -68 -74l-129 143l45 -188q-33 -26 -60 -26t-41 11t-14 31t9 47l43 126l-124 -144q-27 10 -47.5 29t-20.5 43t15.5 34t46.5 18l119 33l-178 33q-4 16 -4 38.5t12.5 43t36.5 20.5q16 0 27 -8.5t28 -24.5
l91 -87l-44 175q33 26 60 26t41 -11t14 -31.5t-13 -55.5l-39 -104l89 89q32 32 56.5 32t37 -18.5t12.5 -43t-4 -40.5z" />
    <glyph glyph-name="plus" unicode="+" horiz-adv-x="530" 
d="M492 301h-211v-209h-38v209h-205v33h205v196h38v-196h211v-33z" />
    <glyph glyph-name="comma" unicode="," horiz-adv-x="262" 
d="M86 -156l-12 15q62 53 81 82.5t19 65t-31 39.5l-48 -43q-23 8 -41.5 28.5t-18.5 53t23.5 55.5t65 23t67.5 -32t26 -85t-31 -102t-100 -100z" />
    <glyph glyph-name="hyphen" unicode="-" horiz-adv-x="352" 
d="M50 278v30h252v-30h-252z" />
    <glyph glyph-name="period" unicode="." horiz-adv-x="265" 
d="M66.5 15.5q-21.5 25.5 -21.5 62t22.5 61.5t63.5 25t65 -21t24 -63t-22.5 -66t-66 -24t-65 25.5z" />
    <glyph glyph-name="slash" unicode="/" horiz-adv-x="351" 
d="M8 -97l295 892h40l-294 -892h-41z" />
    <glyph glyph-name="zero" unicode="0" horiz-adv-x="664" 
d="M105.5 88q-75.5 98 -75.5 274t81 262.5t221.5 86.5t221 -86t80.5 -274t-81 -274.5t-226.5 -86.5t-221 98zM235 388v-89q0 -97 1.5 -137t10.5 -83t29 -55.5t47 -12.5t40.5 3t24 12.5t17.5 19t11.5 29.5t7.5 37t4 50q2 64 2 129v88q0 196 -14.5 253.5t-82.5 57.5t-83 -59
t-15 -243z" />
    <glyph glyph-name="one" unicode="1" horiz-adv-x="425" 
d="M127 674l-110 -14l-2 20l226 31h81v-692h78v-19h-378v19h105v655z" />
    <glyph glyph-name="two" unicode="2" horiz-adv-x="552" 
d="M93 668q58 43 174 43t178.5 -43t62.5 -129q0 -28 -5 -50.5t-22.5 -47t-34 -43.5t-56.5 -50q-60 -48 -126 -95.5t-77 -55.5l-61 -44h240q69 0 98 30t41 94h17l-10 -277h-470v116l101 93q103 94 146 167.5t43 162t-19 121t-64 32.5t-63 -23t-18 -44t6 -37h30q8 -21 8 -50.5
t-25 -51t-66 -21.5t-63.5 26.5t-22.5 66.5q0 67 58 110z" />
    <glyph glyph-name="three" unicode="3" horiz-adv-x="573" 
d="M102 667.5q60 43.5 178 43.5q228 0 228 -159q0 -65 -53.5 -107.5t-153.5 -59.5v-2q124 -9 183 -58t59 -127q0 -96 -77.5 -152t-215.5 -56q-54 0 -100.5 12t-83 47.5t-36.5 84.5t23.5 76t64.5 27t65 -21.5t24 -51t-8 -50.5h-31q-6 -16 -6 -33q0 -71 84 -71q59 0 80.5 45
t21.5 130t-20.5 123.5t-60.5 58.5q-36 -8 -87 -13l-3 22q88 9 115.5 42t27.5 117.5t-16.5 121t-55.5 36.5t-55.5 -23.5t-16.5 -44.5t6 -37h29q8 -21 8 -50.5t-25 -51t-66 -21.5t-63.5 26.5t-22.5 66.5q0 66 60 109.5z" />
    <glyph glyph-name="four" unicode="4" horiz-adv-x="603" 
d="M182 0v19h94v160h-271v19l282 502h173v-497h99v87h19v-185h-19v74h-99v-160h69v-19h-347zM37 203h239v421z" />
    <glyph glyph-name="five" unicode="5" horiz-adv-x="540" 
d="M291.5 367q-16.5 38 -74.5 38t-127 -43l-17 8v319l16 12q61 -9 185 -21.5t143.5 -12.5t28 9.5t14.5 32.5l15 -2q-15 -153 -39 -182q-13 -15 -33 -15t-84 17l-218 57l-5 -194q73 39 151 39t130 -17.5t80 -48.5q53 -59 53 -143q0 -107 -76.5 -168.5t-210.5 -61.5
q-72 0 -133 30q-33 17 -53.5 48.5t-20.5 73t23.5 68.5t65 27t65 -20.5t23.5 -53t-9 -55.5h-33q-6 -16 -6 -37.5t17 -41t50 -19.5t50 10.5t26 25.5t14 47q6 46 6 141t-16.5 133z" />
    <glyph glyph-name="six" unicode="6" horiz-adv-x="616" 
d="M34 308q0 193 86.5 298t237.5 105q103 0 158 -41.5t55 -108.5q0 -38 -24.5 -65.5t-64.5 -27.5t-64 21.5t-24 51t8 51.5h32q6 16 6 36q0 63 -71 63t-104 -73.5t-34 -253.5q52 81 151 81t156 -53.5t57 -160.5t-75 -174t-201 -67q-285 0 -285 318zM273.5 386.5
q-23.5 -25.5 -32 -60t-8.5 -90t0.5 -77t3 -51t7.5 -43t14 -28.5q16 -26 51 -26t52.5 13.5t25.5 45.5q12 47 12 117t-0.5 93t-2.5 48.5t-6.5 38.5t-11.5 25q-13 20 -47 20t-57.5 -25.5z" />
    <glyph glyph-name="seven" unicode="7" horiz-adv-x="510" 
d="M150 19.5q-31 29.5 -31 73t29.5 96t128.5 167.5l165 191h-256q-71 0 -93.5 -17.5t-35.5 -83.5h-16l11 254h448v-108l-111 -194q-74 -131 -94.5 -187.5t-20.5 -107.5t30 -94l-7 -12q-28 -7 -62 -7q-54 0 -85 29.5z" />
    <glyph glyph-name="eight" unicode="8" horiz-adv-x="611" 
d="M249 368q-97 5 -151 48.5t-54 112.5q0 84 67 133t196 49t195 -46t66 -123.5t-51 -122t-147 -51.5v-3q216 -18 216 -183q0 -96 -67.5 -144t-210.5 -48q-283 0 -283 191q0 169 224 184v3zM377 315q-18 40 -69.5 40t-69.5 -40.5t-18 -133t17.5 -131.5t70.5 -39t70 39.5
t17 132t-18 132.5zM251.5 654.5q-12.5 -35.5 -12.5 -96t1 -81t4.5 -42.5t11.5 -33q17 -24 55 -24q34 0 51 24q13 19 14 56.5t1 99t-12.5 97t-56.5 35.5t-56.5 -35.5z" />
    <glyph glyph-name="nine" unicode="9" horiz-adv-x="616" 
d="M584 393q0 -194 -84.5 -298.5t-234.5 -104.5q-105 0 -164.5 40t-59.5 104q0 40 24.5 69.5t65 29.5t64 -21.5t23.5 -51t-8 -51.5h-30q-7 -15 -7 -38.5t21.5 -42t63.5 -18.5q67 0 97.5 73t31.5 254q-52 -81 -158 -81q-90 0 -148 58t-58 159q0 120 79.5 179t203.5 59
q278 0 278 -318zM344.5 314.5q23.5 25.5 32 60t8.5 90t-0.5 77t-2.5 51t-7 43t-13 28.5q-15 26 -55 26q-45 0 -67 -36q-17 -29 -20 -100q-1 -25 -1 -67.5t0.5 -65.5t2.5 -48.5t6.5 -38.5t11.5 -25q13 -20 47 -20t57.5 25.5z" />
    <glyph glyph-name="colon" unicode=":" horiz-adv-x="265" 
d="M66.5 346.5q-21.5 25.5 -21.5 62t22.5 61.5t63.5 25t65 -21t24 -63t-22.5 -66t-66 -24t-65 25.5zM66.5 15.5q-21.5 25.5 -21.5 62t22.5 61.5t63.5 25t65 -21t24 -63t-22.5 -66t-66 -24t-65 25.5z" />
    <glyph glyph-name="semicolon" unicode=";" horiz-adv-x="262" 
d="M86 -156l-12 15q62 53 81 82.5t19 65t-31 39.5l-48 -43q-23 8 -41.5 28.5t-18.5 53t23.5 55.5t65 23t67.5 -32t26 -85t-31 -102t-100 -100zM57.5 346.5q-21.5 25.5 -21.5 62t22.5 61.5t63.5 25t65 -21t24 -63t-22.5 -66t-66 -24t-65 25.5z" />
    <glyph glyph-name="less" unicode="&#x3c;" horiz-adv-x="530" 
d="M491 86l-452 194v26l452 191v-35l-398 -168l398 -171v-37z" />
    <glyph glyph-name="equal" unicode="=" horiz-adv-x="530" 
d="M492 190h-454v33h454v-33zM38 379h454v-33h-454v33z" />
    <glyph glyph-name="greater" unicode="&#x3e;" horiz-adv-x="530" 
d="M39 497l452 -194v-26l-452 -191v35l398 170l-398 169v37z" />
    <glyph glyph-name="question" unicode="?" horiz-adv-x="580" 
d="M117 667q59 44 168.5 44t169 -42t59.5 -124q0 -54 -26.5 -95.5t-73.5 -84.5l-151 -134v-58h-25v210q0 17 11 28l62 63q29 29 40 54.5t11 66.5q0 97 -90 97q-43 0 -63 -23t-20 -44t6 -37h32q8 -21 8 -50.5t-25 -51t-66 -21.5t-63.5 26.5t-22.5 66.5q0 65 59 109z
M192.5 11.5q-18.5 21.5 -18.5 54t20 54t55 21.5t56 -18.5t21 -54.5t-20 -57t-57.5 -21t-56 21.5z" />
    <glyph glyph-name="at" unicode="@" horiz-adv-x="879" 
d="M433 395q48 0 87 -37l17 30h109l-32 -182q-12 -72 -12 -109.5t11.5 -56t45.5 -18.5q45 0 84.5 58.5t39.5 156.5q0 146 -85 229.5t-236.5 83.5t-257.5 -102t-106 -274q0 -88 31.5 -154.5t84.5 -104.5q105 -74 245 -74t238 83l16 -18q-44 -41 -112.5 -65t-142.5 -24
t-143.5 21t-125 63t-87.5 111t-32 158q0 175 110.5 288.5t286.5 113.5q153 0 247.5 -86.5t94.5 -241.5q0 -125 -52.5 -188t-152 -63t-127.5 72q-26 -70 -97 -70t-109 44t-38 108q0 121 62 184.5t138 63.5zM481 130l34 214q-29 30 -62 30t-54.5 -31t-31.5 -79
q-18 -86 -18 -167t51 -81q29 0 51 32t30 82z" />
    <glyph glyph-name="A" unicode="A" horiz-adv-x="694" 
d="M432 19l-73 216h-198l-77 -216h75v-19h-153v19h47l255 687h82l252 -687h46v-19h-327v19h71zM264 519l-94 -262h181z" />
    <glyph glyph-name="B" unicode="B" horiz-adv-x="659" 
d="M21 700h299q139 0 208.5 -37.5t69.5 -126.5q0 -137 -165 -164v-2q200 -25 200 -174q0 -109 -82 -152.5t-236 -43.5h-294v19h65v662h-65v19zM281 354v-335h47q55 0 77 38t22 112v53q0 66 -27 99t-96 33h-23zM281 681v-308h26q52 0 72.5 31.5t20.5 96.5v47q0 74 -18 103.5
t-69 29.5h-32z" />
    <glyph glyph-name="C" unicode="C" horiz-adv-x="690" 
d="M400 691q-155 0 -155 -299v-79q0 -142 41 -222.5t121 -80.5q110 0 202 214h18l-7 -223h-11q-6 11 -11 15.5t-14.5 4.5t-72.5 -15.5t-128 -15.5q-163 0 -252.5 88t-89.5 264.5t93.5 272.5t251.5 96q61 0 119.5 -15.5t68.5 -15.5t15 4.5t11 15.5h11l8 -217h-18
q-45 101 -92.5 154.5t-108.5 53.5z" />
    <glyph glyph-name="D" unicode="D" horiz-adv-x="755" 
d="M714 362q0 -206 -116 -287q-107 -75 -294 -75h-283v19h66v662h-66v19h309q192 0 288 -78.5t96 -259.5zM282 19h38q101 0 144.5 71.5t43.5 239.5v58q0 225 -86 271q-41 22 -116 22h-24v-662z" />
    <glyph glyph-name="E" unicode="E" horiz-adv-x="624" 
d="M21 700h520l10 -198h-18q-42 101 -88 138.5t-135 37.5h-35v-309h34q47 0 79 35.5t45 95.5h15v-296h-17q-18 75 -48.5 107t-83.5 32h-24v-321h38q92 0 156.5 55t88.5 141h20l-8 -218h-549v22h59v656h-59v22z" />
    <glyph glyph-name="F" unicode="F" horiz-adv-x="592" 
d="M21 700h520l10 -208h-18q-37 108 -85.5 147t-144.5 39h-28v-325h45q48 0 80 35t44 96h15v-296h-17q-16 75 -44.5 107t-77.5 32h-45v-305h124v-22h-378v22h59v656h-59v22z" />
    <glyph glyph-name="G" unicode="G" horiz-adv-x="723" 
d="M390 10q49 0 62.5 18t13.5 61v194h-64v22h288v-22h-39v-282h-15q-18 25 -51 25q-14 0 -83.5 -18t-118.5 -18q-163 0 -252.5 88t-89.5 264.5t93.5 272.5t251.5 96q61 0 122.5 -15.5t71.5 -15.5t15 4.5t11 15.5h11l8 -217h-18q-49 97 -98.5 152.5t-110.5 55.5
q-153 0 -153 -299v-79q0 -150 37.5 -226.5t107.5 -76.5z" />
    <glyph glyph-name="H" unicode="H" horiz-adv-x="749" 
d="M21 700h312v-19h-58v-310h199v310h-59v19h313v-19h-59v-662h59v-19h-313v19h59v326h-199v-326h58v-19h-312v19h59v662h-59v19z" />
    <glyph glyph-name="I" unicode="I" horiz-adv-x="355" 
d="M25 700h305v-19h-55v-662h55v-19h-305v19h55v662h-55v19z" />
    <glyph glyph-name="J" unicode="J" horiz-adv-x="517" 
d="M176 700h325v-19h-55v-432q0 -135 -61 -196.5t-183 -61.5q-81 0 -128.5 31t-47.5 87q0 43 24 67.5t65.5 24.5t62 -21t20.5 -50.5t-11 -59.5h-39q-9 -15 -9 -28.5t13.5 -23t35.5 -9.5q40 0 51.5 31.5t11.5 136.5v504h-75v19z" />
    <glyph glyph-name="K" unicode="K" horiz-adv-x="734" 
d="M25 700h305v-19h-55v-316l8 2l282 314h-79v19h175v-19h-60l-172 -192l240 -470h54v-19h-321v19h47l-165 319l-9 -2v-317h55v-19h-305v19h55v662h-55v19z" />
    <glyph glyph-name="L" unicode="L" horiz-adv-x="596" 
d="M21 700h360v-22h-106v-656h36q85 0 135.5 52t102.5 160h21l-19 -234h-530v22h59v656h-59v22z" />
    <glyph glyph-name="M" unicode="M" horiz-adv-x="840" 
d="M548 700h267v-19h-55v-662h55v-19h-305v19h55v625h-4l-150 -644h-125l-176 647h-4v-628h55v-19h-136v19h55v662h-55v19h270l133 -515z" />
    <glyph glyph-name="N" unicode="N" horiz-adv-x="670" 
d="M590 681v-681h-140l-343 647v-628h55v-19h-137v19h55v662h-55v19h276l262 -502v483h-55v19h137v-19h-55z" />
    <glyph glyph-name="O" unicode="O" horiz-adv-x="748" 
d="M501 309v74q0 183 -18 231q-20 55 -57 68q-21 8 -51 8t-51.5 -8t-35.5 -28t-22.5 -42t-13.5 -62q-6 -58 -6 -171v-72q0 -122 9.5 -173.5t23.5 -73.5q31 -49 96 -49q79 0 102.5 66.5t23.5 231.5zM123.5 80.5q-82.5 90.5 -82.5 262t88.5 270t250.5 98.5t244.5 -93.5
t82.5 -265.5t-83.5 -267t-250.5 -95t-249.5 90.5z" />
    <glyph glyph-name="P" unicode="P" horiz-adv-x="634" 
d="M15 700h294q151 0 225 -43.5t74 -155.5q0 -124 -90 -171q-84 -43 -235 -43h-8v-268h125v-19h-385v19h65v662h-65v19zM275 681v-375h21q60 0 83 41t23 133v48q0 85 -21.5 119t-78.5 34h-27z" />
    <glyph glyph-name="Q" unicode="Q" horiz-adv-x="748" 
d="M41 339q0 175 88.5 273.5t250.5 98.5t244.5 -93.5t82.5 -265.5q0 -327 -284 -353v-7q57 -6 84.5 -31t41.5 -66.5t25 -56.5t33 -15q38 0 45 80l22 -2q-2 -66 -41 -101t-108.5 -35t-107.5 34.5t-58 101.5q-13 41 -22 53t-23 12q-28 0 -74 -41l-14 16q40 40 91 49v6
q-136 14 -206 103t-70 240zM501 309v74q0 183 -18 231q-20 55 -57 68q-21 8 -51 8t-51.5 -8t-35.5 -28t-22.5 -42t-13.5 -62q-6 -58 -6 -171v-72q0 -122 9.5 -173.5t23.5 -73.5q31 -49 96 -49q79 0 102.5 66.5t23.5 231.5z" />
    <glyph glyph-name="R" unicode="R" horiz-adv-x="716" 
d="M328 354h-53v-335h65v-19h-325v19h65v662h-65v19h302q130 0 184.5 -13.5t76.5 -32.5q48 -39 48 -124t-42 -121.5t-128 -43.5v-3q81 -11 113 -48t32 -124v-53q0 -52 5.5 -70t23.5 -18t28.5 16.5t19.5 69.5l17 -2q-11 -85 -38.5 -114t-109.5 -29t-116.5 38.5t-34.5 144.5
v73q0 56 -14.5 82t-53.5 26zM275 681v-308h32q57 0 84.5 35t27.5 114v29q0 79 -26.5 104.5t-84.5 25.5h-33z" />
    <glyph glyph-name="S" unicode="S" horiz-adv-x="600" 
d="M325 11q50 0 88.5 27t38.5 81.5t-41.5 83.5t-118 50.5t-111 37.5t-65.5 42q-62 52 -62 161q0 89 63.5 153t173.5 64q53 0 110.5 -15.5t71.5 -15.5t25 20h11l7 -202h-16q-48 87 -100.5 139.5t-114 52.5t-95.5 -28.5t-34 -76t40.5 -73t99.5 -41.5t77.5 -22t46 -16.5t45 -22
t37 -29t30.5 -38.5q27 -48 27 -114q0 -108 -67.5 -173.5t-177.5 -65.5q-57 0 -130.5 15t-81.5 15q-14 0 -27 -30h-14l-10 238h17q44 -87 112.5 -152t144.5 -65z" />
    <glyph glyph-name="T" unicode="T" horiz-adv-x="683" 
d="M636 700l10 -251h-19q-44 133 -78 181.5t-98 48.5h-12v-658h85v-21h-365v21h85v658h-13q-64 0 -99 -50.5t-77 -179.5h-19l10 251h590z" />
    <glyph glyph-name="U" unicode="U" horiz-adv-x="683" 
d="M302.5 72q31.5 -49 113.5 -49t126 51t44 155v452h-65v19h146v-19h-55v-445q0 -124 -55 -185t-194.5 -61t-213 58t-73.5 199v434h-55v19h315v-19h-65v-468q0 -92 31.5 -141z" />
    <glyph glyph-name="V" unicode="V" horiz-adv-x="685" 
d="M430 181l174 500h-78v19h153v-19h-47l-241 -691h-84l-255 691h-46v19h327v-19h-71z" />
    <glyph glyph-name="W" unicode="W" horiz-adv-x="1015" 
d="M424 202l83 288l-60 191h-57v19h310v-19h-59l149 -473l120 473h-101v19h200v-19h-66l-184 -691h-89l-148 452l-130 -452h-87l-252 691h-47v19h325v-19h-70z" />
    <glyph glyph-name="X" unicode="X" horiz-adv-x="711" 
d="M700 0h-342v19h66l-149 264l-159 -264h106v-19h-207v19h67l175 294l-209 367h-54v20h337v-20h-68l135 -242l151 242h-104v20h205v-20h-66l-169 -270l227 -391h58v-19z" />
    <glyph glyph-name="Y" unicode="Y" horiz-adv-x="641" 
d="M397 371l142 313h-101v16h197v-16h-66l-151 -334v-331h61v-19h-317v19h61v312l-170 353h-47v16h320v-16h-65z" />
    <glyph glyph-name="Z" unicode="Z" horiz-adv-x="612" 
d="M559 700v-22l-296 -655h34q90 0 158.5 57.5t98.5 163.5h18l-12 -244h-512v19l299 659h-41q-89 0 -135 -39t-104 -160h-18l15 221h495z" />
    <glyph glyph-name="bracketleft" unicode="[" horiz-adv-x="329" 
d="M349 -142v-18h-288v941h288v-18h-45q-37 0 -47.5 -9t-10.5 -43v-800q0 -37 9.5 -45t47.5 -8h46z" />
    <glyph glyph-name="backslash" unicode="\" horiz-adv-x="351" 
d="M49 795l295 -892h-42l-294 892h41z" />
    <glyph glyph-name="bracketright" unicode="]" horiz-adv-x="328" 
d="M-20 -160v18h46q38 0 47.5 8t9.5 45v800q0 34 -10.5 43t-47.5 9h-45v18h288v-941h-288z" />
    <glyph glyph-name="asciicircum" unicode="^" horiz-adv-x="560" 
d="M500 300l-37 -15l-190 336l-175 -337l-38 16l189 364h49z" />
    <glyph glyph-name="underscore" unicode="_" 
d="M500 -106h-500v37h500v-37z" />
    <glyph glyph-name="grave" unicode="`" 
d="M246 723l63 -191l-11 -7l-134 111q-29 26 -29 50.5t16.5 39t47.5 7.5z" />
    <glyph glyph-name="a" unicode="a" horiz-adv-x="549" 
d="M250 235h29v77q0 95 -10.5 127.5t-40.5 32.5q-18 0 -32.5 -9.5t-14.5 -26t6 -33.5h25q8 -21 8 -50.5t-25 -51t-63 -21.5q-86 0 -86 83q0 123 209 123q119 0 164.5 -40.5t45.5 -148.5v-203q0 -52 29 -52q34 0 40 103l15 -1q-4 -88 -33 -121t-95 -33q-120 0 -138 74
q-13 -38 -39 -56t-76 -18q-148 0 -148 121q0 71 56.5 97.5t173.5 26.5zM215.5 45q5.5 -15 21 -15t29 25.5t13.5 70.5v93h-7q-62 0 -62 -91v-16q0 -52 5.5 -67z" />
    <glyph glyph-name="b" unicode="b" horiz-adv-x="588" 
d="M365 407.5q-10 35.5 -39 35.5t-52 -36t-23 -99v-186q0 -43 17.5 -73t50 -30t44.5 44t12 154v52q0 103 -10 138.5zM251 750v-350q38 86 130 86q187 0 187 -249q0 -127 -51.5 -187t-154.5 -60q-52 0 -79.5 16t-37.5 53l-7 -59h-228v18h55v714h-55v18h241z" />
    <glyph glyph-name="c" unicode="c" horiz-adv-x="483" 
d="M290 468q-44 0 -63 -48t-19 -159v-52q0 -99 22 -142t81 -43t94 40t45 91l18 -2q-19 -86 -70 -124q-52 -39 -143 -39q-116 0 -178 62.5t-62 183t70.5 185.5t196.5 65q89 0 136 -34.5t47 -86.5t-22.5 -76t-62 -24t-63.5 21t-24 62q0 18 5 36h33q7 20 7 36q0 48 -48 48z" />
    <glyph glyph-name="d" unicode="d" horiz-adv-x="588" 
d="M224 67.5q11 -34.5 40.5 -34.5t51 26t21.5 77v218q0 43 -17 73t-50 30t-45 -44t-12 -154v-52q0 -105 11 -139.5zM350 0l-11 70q-34 -80 -138 -80q-86 0 -133.5 62t-47.5 185q0 249 198 249q88 0 116 -49v295h-61v18h250v-732h49v-18h-222z" />
    <glyph glyph-name="e" unicode="e" horiz-adv-x="516" 
d="M79.5 56.5q-64.5 66.5 -64.5 185t72.5 181.5t184.5 63q227 0 218 -228h-282v-39q0 -98 25 -148t87 -50q116 0 152 124l18 -3q-19 -72 -68.5 -112t-148.5 -40q-129 0 -193.5 66.5zM209 278h103v49q0 81 -9.5 110.5t-38 29.5t-42 -31.5t-13.5 -108.5v-49z" />
    <glyph glyph-name="f" unicode="f" horiz-adv-x="383" 
d="M313 756q-38 0 -50 -28.5t-12 -91.5v-160h132v-18h-132v-440h122v-18h-363v18h55v440h-58v18h58v4q0 144 55 218.5t184 74.5q85 0 122 -33.5t37 -77.5t-23 -66t-61 -22t-58.5 19.5t-20.5 45t6 49.5h38q20 68 -31 68z" />
    <glyph glyph-name="g" unicode="g" horiz-adv-x="522" 
d="M411 528l28 17q6 31 -24 31q-43 0 -43 -66q0 -26 7 -60q76 -51 76 -130.5t-55 -123.5t-149 -44q-39 0 -81 8q-44 -28 -44 -42t64 -14h102q227 0 227 -163q0 -88 -68.5 -139.5t-213.5 -51.5q-247 0 -247 107q0 58 77 80l60 -27q-8 -29 -8 -55q0 -86 128 -86q78 0 120 29
t42 72t-25.5 57.5t-101.5 14.5h-97q-81 0 -116 27t-35 66.5t25 66t89 65.5q-116 33 -116 152q0 75 54 121t162 46q65 0 111 -25q-6 27 -6 49q0 56 30 81t67 25t59.5 -19.5t22.5 -53.5t-18 -50.5t-43.5 -16.5t-42 13.5t-17.5 38.5zM199 341v-54q0 -67 11.5 -91t35 -24
t34 23.5t10.5 96.5v49q0 78 -10 102.5t-33.5 24.5t-35.5 -25.5t-12 -101.5z" />
    <glyph glyph-name="h" unicode="h" horiz-adv-x="616" 
d="M10 750h241v-366q16 46 49 74t100 28q155 0 155 -167v-301h56v-18h-283v18h41v325q0 60 -8 77.5t-29 17.5q-32 0 -56.5 -42t-24.5 -102v-276h43v-18h-284v18h55v714h-55v18z" />
    <glyph glyph-name="i" unicode="i" horiz-adv-x="317" 
d="M81.5 572q-22.5 27 -22.5 67t24.5 66t74.5 26t76 -23.5t26 -67t-25 -69.5t-78 -26t-75.5 27zM6 476h245v-458h56v-18h-297v18h55v440h-59v18z" />
    <glyph glyph-name="j" unicode="j" horiz-adv-x="311" 
d="M251 476v-390q0 -164 -56.5 -250t-184.5 -86q-83 0 -121.5 33t-38.5 77t26 67.5t65 23.5t58.5 -21.5t19.5 -47.5t-6 -50h-38q-16 -27 -4.5 -46t42 -19t41.5 34.5t11 142.5v514h-65v18h251zM80.5 572q-22.5 27 -22.5 67t24.5 66t74.5 26t76 -23.5t26 -67t-25 -69.5
t-78 -26t-75.5 27z" />
    <glyph glyph-name="k" unicode="k" horiz-adv-x="620" 
d="M337 0v18h46l-113 232l-19 -5v-227h46v-18h-287v18h55v714h-59v18h245v-485l16 6l225 187h-94v18h197v-18h-70l-119 -101l173 -339h36v-18h-278z" />
    <glyph glyph-name="l" unicode="l" horiz-adv-x="316" 
d="M6 750h245v-732h56v-18h-297v18h55v714h-59v18z" />
    <glyph glyph-name="m" unicode="m" horiz-adv-x="888" 
d="M10 476h241v-92q33 102 145.5 102t136.5 -108q35 108 147 108q147 0 147 -167v-301h56v-18h-277v18h35v325q0 76 -13 89q-6 6 -16 6q-29 0 -51 -39t-22 -99v-282h36v-18h-257v18h35v325q0 76 -13 89q-6 6 -16 6q-28 0 -50.5 -42.5t-22.5 -101.5v-276h36v-18h-277v18h55
v440h-55v18z" />
    <glyph glyph-name="n" unicode="n" horiz-adv-x="616" 
d="M12 476h241v-92q16 46 49 74t100 28q155 0 155 -167v-301h56v-18h-283v18h41v325q0 60 -8 77.5t-29 17.5q-32 0 -56.5 -42t-24.5 -102v-276h43v-18h-284v18h55v440h-55v18z" />
    <glyph glyph-name="o" unicode="o" horiz-adv-x="543" 
d="M333 197v85q0 97 -10.5 141.5t-48.5 44.5q-22 0 -35.5 -12.5t-19.5 -41.5q-9 -45 -9 -137v-78q0 -109 6.5 -131t13.5 -36q11 -24 43 -24q39 0 51 45q9 32 9 144zM82 54q-64 64 -64 183.5t68.5 184t192.5 64.5t185 -59.5t61 -181.5q0 -255 -254 -255q-125 0 -189 64z" />
    <glyph glyph-name="p" unicode="p" horiz-adv-x="588" 
d="M365 407.5q-10 35.5 -39 35.5t-52 -37.5t-23 -100.5v-183q0 -43 17 -73t50 -30t45 44t12 154v52q0 103 -10 138.5zM249 476v-79q39 89 138 89q86 0 133.5 -62t47.5 -188t-51.5 -186t-154.5 -60q-48 0 -72 12t-39 37v-259h129v-18h-370v18h55v678h-53v18h237z" />
    <glyph glyph-name="q" unicode="q" horiz-adv-x="588" 
d="M223 68.5q10 -35.5 39 -35.5t52 36t23 99v186q0 43 -17.5 73t-48.5 30q-35 0 -46.5 -44.5t-11.5 -153.5v-52q0 -103 10 -138.5zM337 -220v296q-38 -86 -130 -86q-187 0 -187 249q0 127 51.5 187t154.5 60q83 0 117 -63l7 53h228v-18h-55v-678h49v-18h-337v18h102z" />
    <glyph glyph-name="r" unicode="r" horiz-adv-x="495" 
d="M344 448q-37 0 -65 -48t-28 -114v-268h71v-18h-312v18h55v440h-55v18h241v-96q13 51 50 78.5t84 27.5t76.5 -26.5t29.5 -75t-22 -74.5t-67.5 -26t-67 30t-5.5 83h36q25 51 -21 51z" />
    <glyph glyph-name="s" unicode="s" horiz-adv-x="434" 
d="M33 -10v179h12q26 -87 70 -122t110 -35q102 0 102 65q0 28 -25 42q-39 22 -100 34q-68 18 -114 48q-55 36 -55 114t48 124.5t128 46.5q49 0 101 -23q19 -8 29 -8t17 7t17 26h11v-153h-12q-51 130 -158 130q-47 0 -70 -16.5t-23 -41.5q0 -15 7 -23.5t11 -12.5t13 -8.5
t15 -7t18.5 -6.5t18.5 -5q68 -17 98 -29.5t57 -30.5q55 -38 55 -122.5t-50 -128t-137 -43.5q-62 0 -120 29q-12 8 -19 8q-22 0 -43 -37h-12z" />
    <glyph glyph-name="t" unicode="t" horiz-adv-x="394" 
d="M60 143v315h-55v18h55v129l186 46v-175h130v-18h-130v-337q0 -47 9.5 -69t39.5 -22t52.5 30t29.5 82l17 -2q-8 -69 -44 -109.5t-119 -40.5t-127 33t-44 120z" />
    <glyph glyph-name="u" unicode="u" horiz-adv-x="605" 
d="M595 0h-228l-11 73q-16 -40 -47.5 -61.5t-93.5 -21.5q-155 0 -155 167v301h-56v18h242v-343q0 -60 8.5 -79t34 -19t45.5 31t20 86v306h-46v18h232v-458h55v-18z" />
    <glyph glyph-name="v" unicode="v" horiz-adv-x="532" 
d="M0 458v18h299v-18h-63l120 -332l108 332h-67v18h135v-18h-44l-148 -458h-114l-185 458h-41z" />
    <glyph glyph-name="w" unicode="w" horiz-adv-x="834" 
d="M352 458v18h258v-18h-41l90 -337l89 337h-69v18h135v-18h-42l-120 -458h-137l-87 307l-94 -307h-134l-148 458h-45v18h303v-18h-60l92 -340l72 234l-25 106h-37z" />
    <glyph glyph-name="x" unicode="x" horiz-adv-x="595" 
d="M367 295l118 163h-72v18h149v-18h-52l-130 -184l163 -256h52v-18h-334v18h71l-110 180l-114 -180h66v-18h-157v18h66l127 200l-152 240h-58v18h338v-18h-70z" />
    <glyph glyph-name="y" unicode="y" horiz-adv-x="532" 
d="M5 458v18h290v-18h-54l109 -332l116 332h-67v18h141v-18h-50l-187 -539q-33 -94 -74 -131.5t-100 -37.5t-93 27t-34 69t22 64t58 22q83 0 83 -69q0 -15 -6 -36h-35q-8 -23 -2 -38t27 -15q41 0 73 40.5t61 123.5l22 62h-88l-171 458h-41z" />
    <glyph glyph-name="z" unicode="z" horiz-adv-x="520" 
d="M475 476v-18l-237 -440h13q84 0 132 44t75 143h14l-16 -205h-420v15l241 443h-11q-101 0 -140.5 -33t-70.5 -141h-13l13 192h420z" />
    <glyph glyph-name="braceleft" unicode="{" horiz-adv-x="377" 
d="M24 324q94 2 94 117q0 41 -14.5 111.5t-14.5 90.5q0 137 187 137q57 0 92 -13l-5 -16q-21 7 -40 7q-54 0 -54 -65q0 -30 14 -119.5t14 -123.5q0 -69 -38.5 -97.5t-131.5 -33.5v-2q89 -7 129.5 -36.5t40.5 -100.5q0 -31 -14 -126.5t-14 -128.5q0 -61 59 -61q22 0 44 8
l5 -16q-37 -16 -86 -16q-202 0 -202 145q0 16 14.5 91.5t14.5 115.5q0 114 -94 116v16z" />
    <glyph glyph-name="bar" unicode="|" horiz-adv-x="319" 
d="M140 -127v922h39v-922h-39z" />
    <glyph glyph-name="braceright" unicode="}" horiz-adv-x="377" 
d="M353 324v-16q-94 -2 -94 -116q0 -40 14.5 -115.5t14.5 -91.5q0 -145 -202 -145q-49 0 -86 16l5 16q22 -8 47 -8q56 0 56 67q0 27 -14 122.5t-14 126.5q0 71 40.5 100.5t129.5 36.5v2q-93 5 -131.5 33.5t-38.5 97.5q0 34 14 123.5t14 119.5q0 65 -54 65q-19 0 -40 -7
l-5 16q35 13 92 13q187 0 187 -137q0 -20 -14.5 -90.5t-14.5 -111.5q0 -115 94 -117z" />
    <glyph glyph-name="asciitilde" unicode="~" horiz-adv-x="530" 
d="M179 398q32 0 117 -20t114 -20t42.5 9t25.5 34l12 -3q-26 -99 -49.5 -130t-64.5 -31t-121 20.5t-111 20.5q-50 0 -72 -43l-12 5q18 76 44 117t75 41z" />
    <glyph glyph-name="uni00A0" unicode="&#xa0;" horiz-adv-x="180" 
 />
    <glyph glyph-name="exclamdown" unicode="&#xa1;" horiz-adv-x="377" 
d="M178 212v86h22v-85q0 -86 35 -203t35 -164q0 -81 -76 -81q-34 0 -57.5 19t-23.5 62t32.5 161.5t32.5 204.5zM131 356.5q-20 21.5 -20 54t18.5 54t56 21.5t57.5 -21t20 -57t-21 -54.5t-56 -18.5t-55 21.5z" />
    <glyph glyph-name="cent" unicode="&#xa2;" horiz-adv-x="515" 
d="M312 511q-41 0 -60.5 -44.5t-19.5 -144.5v-47q0 -89 22 -128t77.5 -39t87.5 36.5t41 83.5l19 -4q-12 -54 -45 -94q-43 -55 -155 -55q-33 0 -57 4l-23 -105l-28 6l23 105q-140 40 -140 211q0 113 66.5 172.5t184.5 59.5h9l24 107l28 -5l-23 -104q64 -7 98.5 -38.5
t34.5 -77.5q0 -85 -75 -85t-75 75q0 17 5 33h31q6 18 6 36.5t-17 30t-39 11.5z" />
    <glyph glyph-name="sterling" unicode="&#xa3;" horiz-adv-x="581" 
d="M36 298v28h77q-20 34 -30.5 54t-21.5 55t-11 68q0 99 71.5 153.5t185.5 54.5t170.5 -43t56.5 -110q0 -40 -22.5 -66.5t-63.5 -26.5t-66 21.5t-25 51t8 50.5h31q6 16 6 34q0 70 -73 70q-55 0 -69.5 -35.5t-14.5 -126.5v-204h176v-28h-176v-30q0 -51 -20 -83.5t-72 -83.5
l3 -5q95 64 146 64q35 0 96 -32.5t82.5 -32.5t33.5 19.5t16 72.5l21 -1q-4 -96 -41.5 -150.5t-88.5 -54.5t-106 27l-152 72q-6 -45 -30.5 -68t-55.5 -23t-42.5 13t-11.5 31q0 31 30.5 52.5t77.5 22.5q22 43 22 86.5t-28 103.5h-89z" />
    <glyph glyph-name="currency" unicode="&#xa4;" horiz-adv-x="530" 
d="M127 236q-28 41 -28 98.5t29 101.5l-77 89l19 18l90 -71q46 31 105 31t97 -30l90 69l17 -16l-75 -85q28 -42 28 -96.5t-30 -101.5l75 -98l-18 -17l-94 77q-37 -29 -95.5 -29t-97.5 27l-89 -74l-18 18zM169 436q-31 -38 -31 -97t29.5 -95.5t91 -36.5t93 38t31.5 96.5
t-30.5 95.5t-91.5 37t-92 -38z" />
    <glyph glyph-name="yen" unicode="&#xa5;" horiz-adv-x="609" 
d="M387 391l142 293h-101v16h197v-16h-66l-148 -307h117v-28h-120v-73h120v-28h-120v-229h61v-19h-317v19h61v229h-114v28h114v73h-114v28h100l-156 307h-47v16h320v-16h-65z" />
    <glyph glyph-name="brokenbar" unicode="&#xa6;" horiz-adv-x="319" 
d="M140 412v383h39v-383h-39zM140 -127v437h39v-437h-39z" />
    <glyph glyph-name="section" unicode="&#xa7;" horiz-adv-x="699" 
d="M157 635q87 76 201.5 76t168 -38.5t53.5 -104.5q0 -40 -22.5 -66.5t-63.5 -26.5t-66 21.5t-25 51t8 50.5l36 8q6 16 6 36q0 50 -79 50q-68 0 -94 -58q-21 -50 -25 -144q86 -18 148 -41.5t113 -60.5q103 -75 103 -219t-87 -220t-201.5 -76t-168 38.5t-53.5 104.5
q0 40 22.5 66.5t63.5 26.5t66 -21.5t25 -51t-8 -50.5l-36 -8q-6 -16 -6 -36q0 -50 79 -50q66 0 90.5 51.5t27.5 150.5q-86 18 -148 41.5t-113 60.5q-102 74 -102 218.5t87 220.5zM434 155q0 125 -40.5 198t-138.5 112v-36q0 -125 40 -198.5t139 -112.5v37z" />
    <glyph glyph-name="dieresis" unicode="&#xa8;" 
d="M291 618q0 31 19.5 52t54 21t55 -18.5t20.5 -53.5t-19.5 -55.5t-56.5 -20.5t-55 22t-18 53zM98 618q0 31 19.5 52t54 21t55 -18.5t20.5 -53.5t-19.5 -55.5t-56.5 -20.5t-55 22t-18 53z" />
    <glyph glyph-name="copyright" unicode="&#xa9;" horiz-adv-x="781" 
d="M632.5 550.5q88.5 -85.5 88.5 -234t-91 -238t-245 -89.5t-239.5 87t-85.5 234t95 236.5t242 89.5t235.5 -85.5zM613.5 93q82.5 81 82.5 223t-84 220t-219 78t-221 -82t-86 -223t80.5 -219t222.5 -78t224.5 81zM472.5 466q-28.5 30 -61 30t-46 -35t-13.5 -140.5t13 -143
t50 -37.5t65 31t44 76h12l-4 -119h-10q-2 2 -3.5 6t-2.5 6q-4 3 -8 3l-35 -11q-35 -10 -66 -10q-93 0 -146 48.5t-53 145t55 147.5t148 51q27 0 59.5 -10t35 -10t4.5 1.5t3 3t3 5.5t3 5h9l3 -119h-14q-16 46 -44.5 76z" />
    <glyph glyph-name="ordfeminine" unicode="&#xaa;" horiz-adv-x="454" 
d="M205 568h22v55q0 67 -8 88.5t-31 21.5q-36 0 -36 -25q0 -9 4 -20h20q6 -18 6 -37.5t-19.5 -35t-48.5 -15.5q-67 0 -67 59q0 88 162 88q92 0 127 -29t35 -106v-140q0 -37 22 -37q12 0 19 14t10 56l13 -2q-2 -62 -24.5 -85.5t-73.5 -23.5q-92 0 -107 53q-9 -27 -29 -40
t-59 -13q-115 0 -115 86q0 51 44 69.5t134 18.5zM194 426q12 0 22.5 18t10.5 47v62h-5q-25 0 -36.5 -14t-11.5 -47v-11q0 -34 4 -44.5t16 -10.5z" />
    <glyph glyph-name="guillemotleft" unicode="&#xab;" horiz-adv-x="494" 
d="M239 263l177 138l9 -7l-86 -163l85 -175l-9 -7l-159 130q-30 26 -30 44.5t13 39.5zM63 263l177 138l9 -7l-86 -163l85 -175l-9 -7l-159 130q-30 26 -30 44.5t13 39.5z" />
    <glyph glyph-name="logicalnot" unicode="&#xac;" horiz-adv-x="530" 
d="M457 167v134h-419v33h454v-167h-35z" />
    <glyph glyph-name="uni00AD" unicode="&#xad;" horiz-adv-x="340" 
d="M47 278v30h252v-30h-252z" />
    <glyph glyph-name="registered" unicode="&#xae;" horiz-adv-x="459" 
d="M368 612.5q51 -49.5 51 -133t-53 -135.5t-140.5 -52t-136.5 50.5t-49 133.5t54.5 134.5t138.5 51.5t135 -49.5zM349.5 358q44.5 44 44.5 120t-46 119.5t-118.5 43.5t-118 -45t-45.5 -121t43 -118.5t119.5 -42.5t121 44zM226 482h-3v-87h8v-8h-99v8h22v176h-22v8h104
q39 0 57.5 -9t18.5 -36q0 -42 -64 -47v-1q38 -2 52 -12.5t14 -34.5v-23q0 -16 9 -16q14 0 18 34l8 -1q-3 -26 -14 -37.5t-40 -11.5q-49 0 -49 37v29q0 19 -4 25.5t-16 6.5zM223 571v-79h3q16 0 21 9t5 31t-4.5 30.5t-19.5 8.5h-5z" />
    <glyph glyph-name="macron" unicode="&#xaf;" 
d="M114 552v95h272v-95h-272z" />
    <glyph glyph-name="degree" unicode="&#xb0;" horiz-adv-x="329" 
d="M76 627q0 -41 23 -66.5t65 -25.5t66 26t24 67t-24.5 66t-65.5 25t-64.5 -25.5t-23.5 -66.5zM71.5 539.5q-31.5 33.5 -31.5 86t33.5 87t93 34.5t91 -32t31.5 -85.5t-33 -88.5t-93 -35t-91.5 33.5z" />
    <glyph glyph-name="plusminus" unicode="&#xb1;" horiz-adv-x="530" 
d="M492 301h-212v-189h-38v189h-204v33h204v176h38v-176h212v-33zM492 0h-454v33h454v-33z" />
    <glyph glyph-name="twosuperior" unicode="&#xb2;" horiz-adv-x="417" 
d="M88.5 794.5q38.5 28.5 109.5 28.5t114 -27t43 -82t-42 -93t-168 -105l-38 -20h160q43 0 60.5 18.5t25.5 56.5h15l-7 -177h-304v84l64 51q63 50 86 91.5t23 93.5t-9.5 71.5t-37 19.5t-41 -18t-2.5 -44h20q5 -15 5 -33.5t-15.5 -32t-42 -13.5t-42 17t-15.5 43
q0 42 38.5 70.5z" />
    <glyph glyph-name="threesuperior" unicode="&#xb3;" horiz-adv-x="422" 
d="M203 819q146 0 146 -96q0 -39 -33 -64.5t-95 -35.5v-1q77 -5 113.5 -34.5t36.5 -82t-48.5 -86t-133.5 -33.5q-140 0 -140 88q0 25 16 43t42 18t41.5 -13t15.5 -30t-6 -33h-15q-6 -12 -6 -25t14 -22.5t36 -9.5q36 0 48 26.5t12 76t-11.5 71t-35.5 32.5q-17 -3 -54 -8
l-2 18q54 5 69.5 24.5t15.5 70.5t-8.5 71t-31.5 20q-43 0 -43 -36q0 -11 4 -22h16q6 -16 6 -32.5t-16.5 -30t-42.5 -13.5t-40.5 16.5t-14.5 41.5q0 40 38 65.5t107 25.5z" />
    <glyph glyph-name="acute" unicode="&#xb4;" 
d="M163 532l63 191l47 10q31 7 47.5 -7.5t16.5 -39t-29 -50.5l-134 -111z" />
    <glyph glyph-name="mu" unicode="&#xb5;" horiz-adv-x="673" 
d="M268 501v-343q0 -95 16 -111q9 -8 24 -8q30 0 54 39t24 103v311l177 9v-416q0 -43 29 -43q34 0 40 103l15 -1q-4 -88 -33 -121t-90.5 -33t-94.5 27t-43 72q-16 -44 -49 -72t-72.5 -28t-68 16.5t-52.5 68.5l-4 -3l58 -142q4 -10 12 -29t10.5 -26t6.5 -18q7 -21 7 -38.5
t-20 -31.5t-43 -9l-91 19v696z" />
    <glyph glyph-name="paragraph" unicode="&#xb6;" horiz-adv-x="628" 
d="M377 -82v257h-19q-137 0 -210 68.5t-73 189.5t76.5 194t219.5 73h227v-19h-65v-694q0 -237 -248 -237q-92 0 -130 38.5t-38 85t26.5 72t65 25.5t58 -21.5t19.5 -47.5t-6 -50h-29q-21 -37 -10 -60t51 -23t62.5 33.5t22.5 115.5zM407 -93q0 -91 -38 -125q135 30 135 214
v685h-97v-774z" />
    <glyph glyph-name="periodcentered" unicode="&#xb7;" horiz-adv-x="300" 
d="M91.5 260.5q-21.5 25.5 -21.5 62t22.5 61.5t63.5 25t65 -21t24 -63t-22.5 -66t-66 -24t-65 25.5z" />
    <glyph glyph-name="cedilla" unicode="&#xb8;" 
d="M244 13h26l-40 -68q21 3 33 3q105 0 105 -89q0 -41 -33 -72.5t-103 -31.5q-46 0 -74.5 18.5t-28.5 43.5t12 37t31 12q34 0 46 -38l-26 -20q0 -14 8 -25.5t26.5 -11.5t27 17.5t8.5 54t-2 51.5q-3 36 -30 36q-14 0 -30 -4l-3 9z" />
    <glyph glyph-name="onesuperior" unicode="&#xb9;" horiz-adv-x="425" 
d="M160 791l-72 -8l-2 19l144 19h71v-408h68v-19h-278v19h69v378z" />
    <glyph glyph-name="ordmasculine" unicode="&#xba;" horiz-adv-x="489" 
d="M295 541v60q0 66 -9 97t-40.5 31t-41.5 -31.5t-10 -99.5v-56q0 -70 9.5 -100.5t41.5 -30.5t41 27.5t9 102.5zM96 439.5q-50 45.5 -50 131t52 131t151 45.5q194 0 194 -172q0 -181 -199 -181q-98 0 -148 45.5z" />
    <glyph glyph-name="guillemotright" unicode="&#xbb;" horiz-adv-x="494" 
d="M431 187l-177 -138l-8 7l85 163l-84 174l8 8l159 -130q30 -26 30 -44.5t-13 -39.5zM255 187l-177 -138l-8 7l85 163l-84 174l8 8l159 -130q30 -26 30 -44.5t-13 -39.5z" />
    <glyph glyph-name="onequarter" unicode="&#xbc;" horiz-adv-x="820" 
d="M239 0l321 700h34l-320 -700h-35zM118 671l-72 -8l-2 19l144 19h71v-408h68v-19h-278v19h69v378zM523 0v19h58v79h-168v21l175 301h127v-298h62v52h19v-118h-19v42h-62v-79h43v-19h-235zM442 122h139v238z" />
    <glyph glyph-name="onehalf" unicode="&#xbd;" horiz-adv-x="820" 
d="M228 0l321 700h34l-320 -700h-35zM107 671l-72 -8l-2 19l144 19h71v-408h68v-19h-278v19h69v378zM507.5 400.5q38.5 28.5 109.5 28.5t114 -27t43 -82t-42 -93t-168 -105l-38 -20h160q43 0 60.5 18.5t25.5 56.5h15l-7 -177h-304v84l64 51q63 50 86 91.5t23 93.5t-9.5 71.5
t-37 19.5t-41 -18t-2.5 -44h20q5 -15 5 -33.5t-15.5 -32t-42 -13.5t-42 17t-15.5 43q0 42 38.5 70.5z" />
    <glyph glyph-name="threequarters" unicode="&#xbe;" horiz-adv-x="820" 
d="M254 0l321 700h34l-320 -700h-35zM538 0v19h58v79h-168v21l175 301h127v-298h62v52h19v-118h-19v42h-62v-79h43v-19h-235zM457 122h139v238zM182 699q146 0 146 -96q0 -39 -33 -64.5t-95 -35.5v-1q77 -5 113.5 -34.5t36.5 -82t-48.5 -86t-133.5 -33.5q-140 0 -140 88
q0 25 16 43t42 18t41.5 -13t15.5 -30t-6 -33h-15q-6 -12 -6 -25t14 -22.5t36 -9.5q36 0 48 26.5t12 76t-11.5 71t-35.5 32.5q-17 -3 -54 -8l-2 18q54 5 69.5 24.5t15.5 70.5t-8.5 71t-31.5 20q-43 0 -43 -36q0 -11 4 -22h16q6 -16 6 -32.5t-16.5 -30t-42.5 -13.5t-40.5 16.5
t-14.5 41.5q0 40 38 65.5t107 25.5z" />
    <glyph glyph-name="questiondown" unicode="&#xbf;" horiz-adv-x="580" 
d="M467 -191q-59 -44 -168.5 -44t-169 42t-59.5 124q0 54 26.5 95.5t73.5 84.5l151 134v58h25v-210q0 -17 -11 -28l-62 -63q-29 -29 -40 -54.5t-11 -66.5q0 -97 90 -97q43 0 63 23t20 44t-6 37h-32q-8 21 -8 50.5t25 51t66 21.5t63.5 -26.5t22.5 -66.5q0 -65 -59 -109z
M391.5 464.5q18.5 -21.5 18.5 -54t-20 -54t-55 -21.5t-56 18.5t-21 54.5t20 57t57.5 21t56 -21.5z" />
    <glyph glyph-name="Agrave" unicode="&#xc0;" horiz-adv-x="694" 
d="M432 19l-73 216h-198l-77 -216h75v-19h-153v19h47l255 687h82l252 -687h46v-19h-327v19h71zM264 519l-94 -262h181zM329 905l115 -162l-8 -10l-159 65q-44 18 -44 58q0 17 11.5 30t36.5 15z" />
    <glyph glyph-name="Aacute" unicode="&#xc1;" horiz-adv-x="694" 
d="M432 19l-73 216h-198l-77 -216h75v-19h-153v19h47l255 687h82l252 -687h46v-19h-327v19h71zM264 519l-94 -262h181zM261 743l115 162l48 -4q25 -2 36.5 -15t11.5 -30q0 -40 -44 -58l-159 -65z" />
    <glyph glyph-name="Acircumflex" unicode="&#xc2;" horiz-adv-x="694" 
d="M432 19l-73 216h-198l-77 -216h75v-19h-153v19h47l255 687h82l252 -687h46v-19h-327v19h71zM264 519l-94 -262h181zM197 743l106 148q28 16 55 16q47 0 70 -40l74 -124l-9 -10l-142 68l-146 -68z" />
    <glyph glyph-name="Atilde" unicode="&#xc3;" horiz-adv-x="694" 
d="M432 19l-73 216h-198l-77 -216h75v-19h-153v19h47l255 687h82l252 -687h46v-19h-327v19h71zM264 519l-94 -262h181zM479.5 782q-22.5 -30 -55.5 -30t-86 20t-72 20q-38 0 -55 -41l-12 4q23 72 37.5 97t30.5 33t41 8t75.5 -20t67.5 -20q44 0 58 42l13 -4
q-20 -79 -42.5 -109z" />
    <glyph glyph-name="Adieresis" unicode="&#xc4;" horiz-adv-x="694" 
d="M432 19l-73 216h-198l-77 -216h75v-19h-153v19h47l255 687h82l252 -687h46v-19h-327v19h71zM264 519l-94 -262h181zM371 821q0 31 19.5 52t54 21t55 -18.5t20.5 -53.5t-19.5 -55.5t-56.5 -20.5t-55 22t-18 53zM178 821q0 31 19.5 52t54 21t55 -18.5t20.5 -53.5
t-19.5 -55.5t-56.5 -20.5t-55 22t-18 53z" />
    <glyph glyph-name="Aring" unicode="&#xc5;" horiz-adv-x="694" 
d="M432 19l-73 216h-198l-77 -216h75v-19h-153v19h47l255 687h82l252 -687h46v-19h-327v19h71zM264 519l-94 -262h181zM277 823q0 -73 72 -73q35 0 53 20.5t18 51.5t-18 51.5t-54.5 20.5t-53.5 -20.5t-17 -50.5zM272 752q-25 26 -25 69t26.5 70t75.5 27t74.5 -25.5t25.5 -69
t-26.5 -70.5t-76 -27t-74.5 26z" />
    <glyph glyph-name="AE" unicode="&#xc6;" horiz-adv-x="1033" 
d="M376 678v22h574l10 -198h-18q-42 99 -86.5 137.5t-127.5 38.5h-44v-316h34q47 0 79 35.5t45 95.5h15v-296h-17q-18 75 -48.5 107t-83.5 32h-24v-314h38q92 0 156.5 55t88.5 141h20l-8 -218h-549v22h59v317h-210l-194 -320h75v-19h-154v19h47l399 659h-76zM483 678
l-192 -315h198v315h-6z" />
    <glyph glyph-name="Ccedilla" unicode="&#xc7;" horiz-adv-x="690" 
d="M400 691q-155 0 -155 -299v-79q0 -142 41 -222.5t121 -80.5q110 0 202 214h18l-7 -223h-11q-6 11 -11 15.5t-15.5 4.5t-66.5 -14t-111 -16l-29 -50q21 3 33 3q105 0 105 -89q0 -41 -33 -72.5t-103 -31.5q-46 0 -74.5 18.5t-28.5 43.5t12 37t31 12q34 0 46 -38l-26 -20
q0 -14 8 -25.5t26.5 -11.5t27 17.5t8.5 54t-2 51.5q-3 36 -30 36q-14 0 -30 -4l-3 9l35 59q-161 2 -249 89.5t-88 263.5t93.5 272t251.5 96q61 0 119.5 -15.5t68.5 -15.5t15 4.5t11 15.5h11l8 -217h-18q-45 101 -92.5 154.5t-108.5 53.5z" />
    <glyph glyph-name="Egrave" unicode="&#xc8;" horiz-adv-x="624" 
d="M21 700h520l10 -198h-18q-42 101 -88 138.5t-135 37.5h-35v-309h34q47 0 79 35.5t45 95.5h15v-296h-17q-18 75 -48.5 107t-83.5 32h-24v-321h38q92 0 156.5 55t88.5 141h20l-8 -218h-549v22h59v656h-59v22zM275 905l115 -162l-8 -10l-159 65q-44 18 -44 58q0 17 11.5 30
t36.5 15z" />
    <glyph glyph-name="Eacute" unicode="&#xc9;" horiz-adv-x="624" 
d="M21 700h520l10 -198h-18q-42 101 -88 138.5t-135 37.5h-35v-309h34q47 0 79 35.5t45 95.5h15v-296h-17q-18 75 -48.5 107t-83.5 32h-24v-321h38q92 0 156.5 55t88.5 141h20l-8 -218h-549v22h59v656h-59v22zM207 743l115 162l48 -4q25 -2 36.5 -15t11.5 -30q0 -40 -44 -58
l-159 -65z" />
    <glyph glyph-name="Ecircumflex" unicode="&#xca;" horiz-adv-x="624" 
d="M21 700h520l10 -198h-18q-42 101 -88 138.5t-135 37.5h-35v-309h34q47 0 79 35.5t45 95.5h15v-296h-17q-18 75 -48.5 107t-83.5 32h-24v-321h38q92 0 156.5 55t88.5 141h20l-8 -218h-549v22h59v656h-59v22zM143 743l106 148q28 16 55 16q47 0 70 -40l74 -124l-9 -10
l-142 68l-146 -68z" />
    <glyph glyph-name="Edieresis" unicode="&#xcb;" horiz-adv-x="624" 
d="M21 700h520l10 -198h-18q-42 101 -88 138.5t-135 37.5h-35v-309h34q47 0 79 35.5t45 95.5h15v-296h-17q-18 75 -48.5 107t-83.5 32h-24v-321h38q92 0 156.5 55t88.5 141h20l-8 -218h-549v22h59v656h-59v22zM317 821q0 31 19.5 52t54 21t55 -18.5t20.5 -53.5t-19.5 -55.5
t-56.5 -20.5t-55 22t-18 53zM124 821q0 31 19.5 52t54 21t55 -18.5t20.5 -53.5t-19.5 -55.5t-56.5 -20.5t-55 22t-18 53z" />
    <glyph glyph-name="Igrave" unicode="&#xcc;" horiz-adv-x="355" 
d="M25 700h305v-19h-55v-662h55v-19h-305v19h55v662h-55v19zM157 905l115 -162l-8 -10l-159 65q-44 18 -44 58q0 17 11.5 30t36.5 15z" />
    <glyph glyph-name="Iacute" unicode="&#xcd;" horiz-adv-x="355" 
d="M25 700h305v-19h-55v-662h55v-19h-305v19h55v662h-55v19zM89 743l115 162l48 -4q25 -2 36.5 -15t11.5 -30q0 -40 -44 -58l-159 -65z" />
    <glyph glyph-name="Icircumflex" unicode="&#xce;" horiz-adv-x="355" 
d="M25 700h305v-19h-55v-662h55v-19h-305v19h55v662h-55v19zM25 743l106 148q28 16 55 16q47 0 70 -40l74 -124l-9 -10l-142 68l-146 -68z" />
    <glyph glyph-name="Idieresis" unicode="&#xcf;" horiz-adv-x="355" 
d="M25 700h305v-19h-55v-662h55v-19h-305v19h55v662h-55v19zM199 821q0 31 19.5 52t54 21t55 -18.5t20.5 -53.5t-19.5 -55.5t-56.5 -20.5t-55 22t-18 53zM6 821q0 31 19.5 52t54 21t55 -18.5t20.5 -53.5t-19.5 -55.5t-56.5 -20.5t-55 22t-18 53z" />
    <glyph glyph-name="Eth" unicode="&#xd0;" horiz-adv-x="763" 
d="M19 359v26h76v296h-66v19h309q192 0 288 -78.5t96 -259.5q0 -206 -116 -287q-107 -75 -294 -75h-283v19h66v340h-76zM290 19h38q101 0 144.5 71.5t43.5 239.5v58q0 225 -86 271q-41 22 -116 22h-24v-296h129v-26h-129v-340z" />
    <glyph glyph-name="Ntilde" unicode="&#xd1;" horiz-adv-x="670" 
d="M590 681v-681h-140l-343 647v-628h55v-19h-137v19h55v662h-55v19h276l262 -502v483h-55v19h137v-19h-55zM472.5 782q-22.5 -30 -55.5 -30t-86 20t-72 20q-38 0 -55 -41l-12 4q23 72 37.5 97t30.5 33t41 8t75.5 -20t67.5 -20q44 0 58 42l13 -4q-20 -79 -42.5 -109z" />
    <glyph glyph-name="Ograve" unicode="&#xd2;" horiz-adv-x="748" 
d="M501 309v74q0 183 -18 231q-20 55 -57 68q-21 8 -51 8t-51.5 -8t-35.5 -28t-22.5 -42t-13.5 -62q-6 -58 -6 -171v-72q0 -122 9.5 -173.5t23.5 -73.5q31 -49 96 -49q79 0 102.5 66.5t23.5 231.5zM123.5 80.5q-82.5 90.5 -82.5 262t88.5 270t250.5 98.5t244.5 -93.5
t82.5 -265.5t-83.5 -267t-250.5 -95t-249.5 90.5zM356 905l115 -162l-8 -10l-159 65q-44 18 -44 58q0 17 11.5 30t36.5 15z" />
    <glyph glyph-name="Oacute" unicode="&#xd3;" horiz-adv-x="748" 
d="M501 309v74q0 183 -18 231q-20 55 -57 68q-21 8 -51 8t-51.5 -8t-35.5 -28t-22.5 -42t-13.5 -62q-6 -58 -6 -171v-72q0 -122 9.5 -173.5t23.5 -73.5q31 -49 96 -49q79 0 102.5 66.5t23.5 231.5zM123.5 80.5q-82.5 90.5 -82.5 262t88.5 270t250.5 98.5t244.5 -93.5
t82.5 -265.5t-83.5 -267t-250.5 -95t-249.5 90.5zM288 743l115 162l48 -4q25 -2 36.5 -15t11.5 -30q0 -40 -44 -58l-159 -65z" />
    <glyph glyph-name="Ocircumflex" unicode="&#xd4;" horiz-adv-x="748" 
d="M501 309v74q0 183 -18 231q-20 55 -57 68q-21 8 -51 8t-51.5 -8t-35.5 -28t-22.5 -42t-13.5 -62q-6 -58 -6 -171v-72q0 -122 9.5 -173.5t23.5 -73.5q31 -49 96 -49q79 0 102.5 66.5t23.5 231.5zM123.5 80.5q-82.5 90.5 -82.5 262t88.5 270t250.5 98.5t244.5 -93.5
t82.5 -265.5t-83.5 -267t-250.5 -95t-249.5 90.5zM224 743l106 148q28 16 55 16q47 0 70 -40l74 -124l-9 -10l-142 68l-146 -68z" />
    <glyph glyph-name="Otilde" unicode="&#xd5;" horiz-adv-x="748" 
d="M501 309v74q0 183 -18 231q-20 55 -57 68q-21 8 -51 8t-51.5 -8t-35.5 -28t-22.5 -42t-13.5 -62q-6 -58 -6 -171v-72q0 -122 9.5 -173.5t23.5 -73.5q31 -49 96 -49q79 0 102.5 66.5t23.5 231.5zM123.5 80.5q-82.5 90.5 -82.5 262t88.5 270t250.5 98.5t244.5 -93.5
t82.5 -265.5t-83.5 -267t-250.5 -95t-249.5 90.5zM506.5 782q-22.5 -30 -55.5 -30t-86 20t-72 20q-38 0 -55 -41l-12 4q23 72 37.5 97t30.5 33t41 8t75.5 -20t67.5 -20q44 0 58 42l13 -4q-20 -79 -42.5 -109z" />
    <glyph glyph-name="Odieresis" unicode="&#xd6;" horiz-adv-x="748" 
d="M501 309v74q0 183 -18 231q-20 55 -57 68q-21 8 -51 8t-51.5 -8t-35.5 -28t-22.5 -42t-13.5 -62q-6 -58 -6 -171v-72q0 -122 9.5 -173.5t23.5 -73.5q31 -49 96 -49q79 0 102.5 66.5t23.5 231.5zM123.5 80.5q-82.5 90.5 -82.5 262t88.5 270t250.5 98.5t244.5 -93.5
t82.5 -265.5t-83.5 -267t-250.5 -95t-249.5 90.5zM398 821q0 31 19.5 52t54 21t55 -18.5t20.5 -53.5t-19.5 -55.5t-56.5 -20.5t-55 22t-18 53zM205 821q0 31 19.5 52t54 21t55 -18.5t20.5 -53.5t-19.5 -55.5t-56.5 -20.5t-55 22t-18 53z" />
    <glyph glyph-name="multiply" unicode="&#xd7;" horiz-adv-x="530" 
d="M437 464l-150 -149l148 -148l-24 -23l-147 147l-148 -148l-24 24l148 148l-147 148l23 24l148 -148l149 149z" />
    <glyph glyph-name="Oslash" unicode="&#xd8;" horiz-adv-x="748" 
d="M41 339q0 175 88.5 273.5t253.5 98.5q59 0 105 -13l27 71l25 -10l-26 -69q193 -68 193 -338q0 -172 -83.5 -267t-252.5 -95q-63 0 -117 14l-29 -78l-25 10l29 76q-188 68 -188 327zM501 309v74q0 169 -17 227l-207 -546q29 -53 103 -53t97.5 66.5t23.5 231.5zM246 307
q0 -149 16 -206l206 544q-27 45 -93 45q-62 0 -87 -36q-28 -41 -34 -92q-8 -70 -8 -183v-72z" />
    <glyph glyph-name="Ugrave" unicode="&#xd9;" horiz-adv-x="683" 
d="M302.5 72q31.5 -49 113.5 -49t126 51t44 155v452h-65v19h146v-19h-55v-445q0 -124 -55 -185t-194.5 -61t-213 58t-73.5 199v434h-55v19h315v-19h-65v-468q0 -92 31.5 -141zM350 905l115 -162l-8 -10l-159 65q-44 18 -44 58q0 17 11.5 30t36.5 15z" />
    <glyph glyph-name="Uacute" unicode="&#xda;" horiz-adv-x="683" 
d="M302.5 72q31.5 -49 113.5 -49t126 51t44 155v452h-65v19h146v-19h-55v-445q0 -124 -55 -185t-194.5 -61t-213 58t-73.5 199v434h-55v19h315v-19h-65v-468q0 -92 31.5 -141zM282 743l115 162l48 -4q25 -2 36.5 -15t11.5 -30q0 -40 -44 -58l-159 -65z" />
    <glyph glyph-name="Ucircumflex" unicode="&#xdb;" horiz-adv-x="683" 
d="M302.5 72q31.5 -49 113.5 -49t126 51t44 155v452h-65v19h146v-19h-55v-445q0 -124 -55 -185t-194.5 -61t-213 58t-73.5 199v434h-55v19h315v-19h-65v-468q0 -92 31.5 -141zM218 743l106 148q28 16 55 16q47 0 70 -40l74 -124l-9 -10l-142 68l-146 -68z" />
    <glyph glyph-name="Udieresis" unicode="&#xdc;" horiz-adv-x="683" 
d="M302.5 72q31.5 -49 113.5 -49t126 51t44 155v452h-65v19h146v-19h-55v-445q0 -124 -55 -185t-194.5 -61t-213 58t-73.5 199v434h-55v19h315v-19h-65v-468q0 -92 31.5 -141zM392 821q0 31 19.5 52t54 21t55 -18.5t20.5 -53.5t-19.5 -55.5t-56.5 -20.5t-55 22t-18 53z
M199 821q0 31 19.5 52t54 21t55 -18.5t20.5 -53.5t-19.5 -55.5t-56.5 -20.5t-55 22t-18 53z" />
    <glyph glyph-name="Yacute" unicode="&#xdd;" horiz-adv-x="641" 
d="M397 371l142 313h-101v16h197v-16h-66l-151 -334v-331h61v-19h-317v19h61v312l-170 353h-47v16h320v-16h-65zM261 743l115 162l48 -4q25 -2 36.5 -15t11.5 -30q0 -40 -44 -58l-159 -65z" />
    <glyph glyph-name="Thorn" unicode="&#xde;" horiz-adv-x="634" 
d="M275 681v-115h34q151 0 225 -43.5t74 -155.5q0 -124 -90 -171q-84 -43 -235 -43h-8v-134h125v-19h-385v19h65v662h-65v19h385v-19h-125zM275 547v-375h21q60 0 83 41t23 133v48q0 85 -21.5 119t-78.5 34h-27z" />
    <glyph glyph-name="germandbls" unicode="&#xdf;" horiz-adv-x="674" 
d="M307 -10v179h12q50 -157 161 -157q92 0 92 66q0 31 -26 51t-63.5 33.5t-75 31t-63.5 54.5t-26 85t18.5 83.5t45 61.5t52.5 51q63 61 63 114.5t-34 80.5t-99.5 27t-89 -39t-23.5 -108v-604h-262v18h76v451q0 165 76.5 234.5t211.5 69.5q94 0 133.5 -36t39.5 -88
q0 -36 -18.5 -69.5t-40 -53.5t-40 -46t-18.5 -49t18.5 -40t46.5 -27t60 -26t60 -34.5t46.5 -55.5t18.5 -87q0 -76 -50.5 -123.5t-113.5 -47.5t-114 29q-21 12 -31 12q-22 0 -31 -41h-12z" />
    <glyph glyph-name="agrave" unicode="&#xe0;" horiz-adv-x="549" 
d="M250 235h29v77q0 95 -10.5 127.5t-40.5 32.5q-18 0 -32.5 -9.5t-14.5 -26t6 -33.5h25q8 -21 8 -50.5t-25 -51t-63 -21.5q-86 0 -86 83q0 123 209 123q119 0 164.5 -40.5t45.5 -148.5v-203q0 -52 29 -52q34 0 40 103l15 -1q-4 -88 -33 -121t-95 -33q-120 0 -138 74
q-13 -38 -39 -56t-76 -18q-148 0 -148 121q0 71 56.5 97.5t173.5 26.5zM215.5 45q5.5 -15 21 -15t29 25.5t13.5 70.5v93h-7q-62 0 -62 -91v-16q0 -52 5.5 -67zM263 738l63 -191l-11 -7l-134 111q-29 26 -29 50.5t16.5 39t47.5 7.5z" />
    <glyph glyph-name="aacute" unicode="&#xe1;" horiz-adv-x="549" 
d="M250 235h29v77q0 95 -10.5 127.5t-40.5 32.5q-18 0 -32.5 -9.5t-14.5 -26t6 -33.5h25q8 -21 8 -50.5t-25 -51t-63 -21.5q-86 0 -86 83q0 123 209 123q119 0 164.5 -40.5t45.5 -148.5v-203q0 -52 29 -52q34 0 40 103l15 -1q-4 -88 -33 -121t-95 -33q-120 0 -138 74
q-13 -38 -39 -56t-76 -18q-148 0 -148 121q0 71 56.5 97.5t173.5 26.5zM215.5 45q5.5 -15 21 -15t29 25.5t13.5 70.5v93h-7q-62 0 -62 -91v-16q0 -52 5.5 -67zM188 547l63 191l47 10q31 7 47.5 -7.5t16.5 -39t-29 -50.5l-134 -111z" />
    <glyph glyph-name="acircumflex" unicode="&#xe2;" horiz-adv-x="549" 
d="M250 235h29v77q0 95 -10.5 127.5t-40.5 32.5q-18 0 -32.5 -9.5t-14.5 -26t6 -33.5h25q8 -21 8 -50.5t-25 -51t-63 -21.5q-86 0 -86 83q0 123 209 123q119 0 164.5 -40.5t45.5 -148.5v-203q0 -52 29 -52q34 0 40 103l15 -1q-4 -88 -33 -121t-95 -33q-120 0 -138 74
q-13 -38 -39 -56t-76 -18q-148 0 -148 121q0 71 56.5 97.5t173.5 26.5zM215.5 45q5.5 -15 21 -15t29 25.5t13.5 70.5v93h-7q-62 0 -62 -91v-16q0 -52 5.5 -67zM121 532l89 190q30 16 59 16q45 0 64 -48l61 -159l-11 -7l-125 104l-125 -105z" />
    <glyph glyph-name="atilde" unicode="&#xe3;" horiz-adv-x="549" 
d="M250 235h29v77q0 95 -10.5 127.5t-40.5 32.5q-18 0 -32.5 -9.5t-14.5 -26t6 -33.5h25q8 -21 8 -50.5t-25 -51t-63 -21.5q-86 0 -86 83q0 123 209 123q119 0 164.5 -40.5t45.5 -148.5v-203q0 -52 29 -52q34 0 40 103l15 -1q-4 -88 -33 -121t-95 -33q-120 0 -138 74
q-13 -38 -39 -56t-76 -18q-148 0 -148 121q0 71 56.5 97.5t173.5 26.5zM215.5 45q5.5 -15 21 -15t29 25.5t13.5 70.5v93h-7q-62 0 -62 -91v-16q0 -52 5.5 -67zM433 710q-38 -147 -107 -147q-34 0 -87 20t-72 20q-38 0 -55 -41l-12 4q23 75 48 110.5t69 35.5q27 0 77.5 -20
t67.5 -20q44 0 58 42z" />
    <glyph glyph-name="adieresis" unicode="&#xe4;" horiz-adv-x="549" 
d="M250 235h29v77q0 95 -10.5 127.5t-40.5 32.5q-18 0 -32.5 -9.5t-14.5 -26t6 -33.5h25q8 -21 8 -50.5t-25 -51t-63 -21.5q-86 0 -86 83q0 123 209 123q119 0 164.5 -40.5t45.5 -148.5v-203q0 -52 29 -52q34 0 40 103l15 -1q-4 -88 -33 -121t-95 -33q-120 0 -138 74
q-13 -38 -39 -56t-76 -18q-148 0 -148 121q0 71 56.5 97.5t173.5 26.5zM215.5 45q5.5 -15 21 -15t29 25.5t13.5 70.5v93h-7q-62 0 -62 -91v-16q0 -52 5.5 -67zM279 633q0 31 19.5 52t54 21t55 -18.5t20.5 -53.5t-19.5 -55.5t-56.5 -20.5t-55 22t-18 53zM86 633q0 31 19.5 52
t54 21t55 -18.5t20.5 -53.5t-19.5 -55.5t-56.5 -20.5t-55 22t-18 53z" />
    <glyph glyph-name="aring" unicode="&#xe5;" horiz-adv-x="549" 
d="M250 235h29v77q0 95 -10.5 127.5t-40.5 32.5q-18 0 -32.5 -9.5t-14.5 -26t6 -33.5h25q8 -21 8 -50.5t-25 -51t-63 -21.5q-86 0 -86 83q0 123 209 123q119 0 164.5 -40.5t45.5 -148.5v-203q0 -52 29 -52q34 0 40 103l15 -1q-4 -88 -33 -121t-95 -33q-120 0 -138 74
q-13 -38 -39 -56t-76 -18q-148 0 -148 121q0 71 56.5 97.5t173.5 26.5zM215.5 45q5.5 -15 21 -15t29 25.5t13.5 70.5v93h-7q-62 0 -62 -91v-16q0 -52 5.5 -67zM186 632q0 -73 72 -73q35 0 53 20.5t18 51.5t-18 51.5t-54.5 20.5t-53.5 -20.5t-17 -50.5zM181 561
q-25 26 -25 69t26.5 70t75.5 27t74.5 -25.5t25.5 -69t-26.5 -70.5t-76 -27t-74.5 26z" />
    <glyph glyph-name="ae" unicode="&#xe6;" horiz-adv-x="772" 
d="M279 235v77q0 95 -10.5 127.5t-40.5 32.5q-18 0 -32.5 -9.5t-14.5 -26t6 -33.5h25q8 -21 8 -50.5t-25 -51t-63 -21.5q-86 0 -86 83q0 61 52 92t139 31q109 0 152 -63q47 63 152 63q214 0 205 -228h-282v-39q0 -98 25 -148t87 -50q116 0 152 124l18 -3q-19 -72 -68.5 -112
t-148.5 -40q-139 0 -201 80q-34 -80 -155 -80q-153 0 -153 121q0 71 56.5 97.5t173.5 26.5h29zM465 278h103v49q0 81 -9.5 110.5t-38 29.5t-42 -31.5t-13.5 -108.5v-49zM219.5 46q9.5 -16 28 -16t38 14.5t28.5 44.5q-32 52 -35 129v1h-7q-62 0 -62 -91v-16q0 -50 9.5 -66z
" />
    <glyph glyph-name="ccedilla" unicode="&#xe7;" horiz-adv-x="483" 
d="M290 468q-44 0 -63 -48t-19 -159v-52q0 -99 22 -142t81 -43t94 40t45 91l18 -2q-19 -82 -62 -119q-45 -37 -125 -43l-27 -46q21 3 33 3q105 0 105 -89q0 -41 -33 -72.5t-103 -31.5q-46 0 -74.5 18.5t-28.5 43.5t12 37t31 12q34 0 46 -38l-26 -20q0 -14 8 -25.5
t26.5 -11.5t27 17.5t8.5 54t-2 51.5q-3 36 -30 36q-14 0 -30 -4l-3 9l33 55q-116 1 -177.5 63t-61.5 182.5t70.5 185.5t196.5 65q89 0 136 -34.5t47 -86.5t-22.5 -76t-62 -24t-63.5 21t-24 62q0 18 5 36h33q7 20 7 36q0 48 -48 48z" />
    <glyph glyph-name="egrave" unicode="&#xe8;" horiz-adv-x="516" 
d="M79.5 56.5q-64.5 66.5 -64.5 185t72.5 181.5t184.5 63q227 0 218 -228h-282v-39q0 -98 25 -148t87 -50q116 0 152 124l18 -3q-19 -72 -68.5 -112t-148.5 -40q-129 0 -193.5 66.5zM209 278h103v49q0 81 -9.5 110.5t-38 29.5t-42 -31.5t-13.5 -108.5v-49zM273 738l63 -191
l-11 -7l-134 111q-29 26 -29 50.5t16.5 39t47.5 7.5z" />
    <glyph glyph-name="eacute" unicode="&#xe9;" horiz-adv-x="516" 
d="M79.5 56.5q-64.5 66.5 -64.5 185t72.5 181.5t184.5 63q227 0 218 -228h-282v-39q0 -98 25 -148t87 -50q116 0 152 124l18 -3q-19 -72 -68.5 -112t-148.5 -40q-129 0 -193.5 66.5zM312 278v49q0 81 -9.5 110.5t-38 29.5t-42 -31.5t-13.5 -108.5v-49h103zM198 547l63 191
l47 10q31 7 47.5 -7.5t16.5 -39t-29 -50.5l-134 -111z" />
    <glyph glyph-name="ecircumflex" unicode="&#xea;" horiz-adv-x="516" 
d="M79.5 56.5q-64.5 66.5 -64.5 185t72.5 181.5t184.5 63q227 0 218 -228h-282v-39q0 -98 25 -148t87 -50q116 0 152 124l18 -3q-19 -72 -68.5 -112t-148.5 -40q-129 0 -193.5 66.5zM209 278h103v49q0 81 -9.5 110.5t-38 29.5t-42 -31.5t-13.5 -108.5v-49zM131 532l89 190
q30 16 59 16q45 0 64 -48l61 -159l-11 -7l-125 104l-125 -105z" />
    <glyph glyph-name="edieresis" unicode="&#xeb;" horiz-adv-x="516" 
d="M79.5 56.5q-64.5 66.5 -64.5 185t72.5 181.5t184.5 63q227 0 218 -228h-282v-39q0 -98 25 -148t87 -50q116 0 152 124l18 -3q-19 -72 -68.5 -112t-148.5 -40q-129 0 -193.5 66.5zM209 278h103v49q0 81 -9.5 110.5t-38 29.5t-42 -31.5t-13.5 -108.5v-49zM289 633
q0 31 19.5 52t54 21t55 -18.5t20.5 -53.5t-19.5 -55.5t-56.5 -20.5t-55 22t-18 53zM96 633q0 31 19.5 52t54 21t55 -18.5t20.5 -53.5t-19.5 -55.5t-56.5 -20.5t-55 22t-18 53z" />
    <glyph glyph-name="igrave" unicode="&#xec;" horiz-adv-x="317" 
d="M147 738l63 -191l-11 -7l-134 111q-29 26 -29 50.5t16.5 39t47.5 7.5zM6 476h245v-458h56v-18h-297v18h55v440h-59v18z" />
    <glyph glyph-name="iacute" unicode="&#xed;" horiz-adv-x="317" 
d="M85 547l63 191l47 10q31 7 47.5 -7.5t16.5 -39t-29 -50.5l-134 -111zM6 476h245v-458h56v-18h-297v18h55v440h-59v18z" />
    <glyph glyph-name="icircumflex" unicode="&#xee;" horiz-adv-x="317" 
d="M6 476h245v-458h56v-18h-297v18h55v440h-59v18zM4 532l89 190q30 16 59 16q45 0 64 -48l61 -159l-11 -7l-125 104l-125 -105z" />
    <glyph glyph-name="idieresis" unicode="&#xef;" horiz-adv-x="317" 
d="M169 633q0 31 19.5 52t54 21t55 -18.5t20.5 -53.5t-19.5 -55.5t-56.5 -20.5t-55 22t-18 53zM-24 633q0 31 19.5 52t54 21t55 -18.5t20.5 -53.5t-19.5 -55.5t-56.5 -20.5t-55 22t-18 53zM6 476h245v-458h56v-18h-297v18h55v440h-59v18z" />
    <glyph glyph-name="eth" unicode="&#xf0;" horiz-adv-x="560" 
d="M195 575l-8 25l106 69q-66 81 -204 80l2 16q170 13 276 -47l106 70l8 -25l-91 -60q150 -105 150 -371q0 -190 -74 -272q-28 -31 -76 -50.5t-112 -19.5q-128 0 -193 63.5t-65 184t61 188.5t168 68q83 0 111 -63q-8 148 -53 218zM344 197v85q0 94 -12 140t-52.5 46
t-53.5 -46.5t-13 -144.5v-78q0 -100 12.5 -145.5t53.5 -45.5t53 41.5t12 147.5z" />
    <glyph glyph-name="ntilde" unicode="&#xf1;" horiz-adv-x="616" 
d="M10 476h241v-92q16 46 49 74t100 28q155 0 155 -167v-301h56v-18h-283v18h41v325q0 60 -8 77.5t-29 17.5q-32 0 -56.5 -42t-24.5 -102v-276h43v-18h-284v18h55v440h-55v18zM481 710q-38 -147 -107 -147q-34 0 -87 20t-72 20q-38 0 -55 -41l-12 4q23 75 48 110.5t69 35.5
q27 0 77.5 -20t67.5 -20q44 0 58 42z" />
    <glyph glyph-name="ograve" unicode="&#xf2;" horiz-adv-x="543" 
d="M333 197v85q0 97 -10.5 141.5t-48.5 44.5q-22 0 -35.5 -12.5t-19.5 -41.5q-9 -45 -9 -137v-78q0 -109 6.5 -131t13.5 -36q11 -24 43 -24q39 0 51 45q9 32 9 144zM82 54q-64 64 -64 183.5t68.5 184t192.5 64.5t185 -59.5t61 -181.5q0 -255 -254 -255q-125 0 -189 64z
M280 738l63 -191l-11 -7l-134 111q-29 26 -29 50.5t16.5 39t47.5 7.5z" />
    <glyph glyph-name="oacute" unicode="&#xf3;" horiz-adv-x="543" 
d="M333 197v85q0 97 -10.5 141.5t-48.5 44.5q-22 0 -35.5 -12.5t-19.5 -41.5q-9 -45 -9 -137v-78q0 -109 6.5 -131t13.5 -36q11 -24 43 -24q39 0 51 45q9 32 9 144zM82 54q-64 64 -64 183.5t68.5 184t192.5 64.5t185 -59.5t61 -181.5q0 -255 -254 -255q-125 0 -189 64z
M205 547l63 191l47 10q31 7 47.5 -7.5t16.5 -39t-29 -50.5l-134 -111z" />
    <glyph glyph-name="ocircumflex" unicode="&#xf4;" horiz-adv-x="543" 
d="M333 197v85q0 97 -10.5 141.5t-48.5 44.5q-22 0 -35.5 -12.5t-19.5 -41.5q-9 -45 -9 -137v-78q0 -109 6.5 -131t13.5 -36q11 -24 43 -24q39 0 51 45q9 32 9 144zM82 54q-64 64 -64 183.5t68.5 184t192.5 64.5t185 -59.5t61 -181.5q0 -255 -254 -255q-125 0 -189 64z
M138 532l89 190q30 16 59 16q45 0 64 -48l61 -159l-11 -7l-125 104l-125 -105z" />
    <glyph glyph-name="otilde" unicode="&#xf5;" horiz-adv-x="543" 
d="M333 197v85q0 97 -10.5 141.5t-48.5 44.5q-22 0 -35.5 -12.5t-19.5 -41.5q-9 -45 -9 -137v-78q0 -109 6.5 -131t13.5 -36q11 -24 43 -24q39 0 51 45q9 32 9 144zM82 54q-64 64 -64 183.5t68.5 184t192.5 64.5t185 -59.5t61 -181.5q0 -255 -254 -255q-125 0 -189 64z
M450 710q-38 -147 -108 -147q-33 0 -86 20t-72 20q-38 0 -55 -41l-12 4q23 75 48 110.5t69 35.5q27 0 77.5 -20t67.5 -20q44 0 58 42z" />
    <glyph glyph-name="odieresis" unicode="&#xf6;" horiz-adv-x="543" 
d="M333 197v85q0 97 -10.5 141.5t-48.5 44.5q-22 0 -35.5 -12.5t-19.5 -41.5q-9 -45 -9 -137v-78q0 -109 6.5 -131t13.5 -36q11 -24 43 -24q39 0 51 45q9 32 9 144zM82 54q-64 64 -64 183.5t68.5 184t192.5 64.5t185 -59.5t61 -181.5q0 -255 -254 -255q-125 0 -189 64z
M296 633q0 31 19.5 52t54 21t55 -18.5t20.5 -53.5t-19.5 -55.5t-56.5 -20.5t-55 22t-18 53zM103 633q0 31 19.5 52t54 21t55 -18.5t20.5 -53.5t-19.5 -55.5t-56.5 -20.5t-55 22t-18 53z" />
    <glyph glyph-name="divide" unicode="&#xf7;" horiz-adv-x="530" 
d="M213 446q0 24 14.5 39.5t40.5 15.5t41.5 -13.5t15.5 -40t-14.5 -42t-42.5 -15.5t-41.5 16t-13.5 40zM213 192q0 24 14.5 39.5t40.5 15.5t41.5 -13.5t15.5 -40t-14.5 -42t-42.5 -15.5t-41.5 16t-13.5 40zM492 301h-454v33h454v-33z" />
    <glyph glyph-name="oslash" unicode="&#xf8;" horiz-adv-x="546" 
d="M15 236q0 123 67.5 186.5t196.5 63.5q32 0 65 -5l26 69l22 -8l-25 -65q164 -38 164 -232q0 -255 -258 -255q-48 0 -87 9l-28 -74l-22 8l27 72q-148 48 -148 231zM339 197v85q0 70 -5 107l-119 -314q12 -67 60 -67q40 0 52 41.5t12 147.5zM208 199q0 -51 1 -72l115 302
q-16 39 -48 39q-42 0 -55 -46.5t-13 -144.5v-78z" />
    <glyph glyph-name="ugrave" unicode="&#xf9;" horiz-adv-x="605" 
d="M595 0h-228l-11 73q-16 -40 -47.5 -61.5t-93.5 -21.5q-155 0 -155 167v301h-56v18h242v-343q0 -60 8.5 -79t34 -19t45.5 31t20 86v306h-46v18h232v-458h55v-18zM289 738l63 -191l-11 -7l-134 111q-29 26 -29 50.5t16.5 39t47.5 7.5z" />
    <glyph glyph-name="uacute" unicode="&#xfa;" horiz-adv-x="605" 
d="M595 0h-228l-11 73q-16 -40 -47.5 -61.5t-93.5 -21.5q-155 0 -155 167v301h-56v18h242v-343q0 -60 8.5 -79t34 -19t45.5 31t20 86v306h-46v18h232v-458h55v-18zM223 547l63 191l47 10q31 7 47.5 -7.5t16.5 -39t-29 -50.5l-134 -111z" />
    <glyph glyph-name="ucircumflex" unicode="&#xfb;" horiz-adv-x="605" 
d="M595 0h-228l-11 73q-16 -40 -47.5 -61.5t-93.5 -21.5q-155 0 -155 167v301h-56v18h242v-343q0 -60 8.5 -79t34 -19t45.5 31t20 86v306h-46v18h232v-458h55v-18zM156 532l89 190q30 16 59 16q45 0 64 -48l61 -159l-11 -7l-125 104l-125 -105z" />
    <glyph glyph-name="udieresis" unicode="&#xfc;" horiz-adv-x="605" 
d="M595 0h-228l-11 73q-16 -40 -47.5 -61.5t-93.5 -21.5q-155 0 -155 167v301h-56v18h242v-343q0 -60 8.5 -79t34 -19t45.5 31t20 86v306h-46v18h232v-458h55v-18zM314 633q0 31 19.5 52t54 21t55 -18.5t20.5 -53.5t-19.5 -55.5t-56.5 -20.5t-55 22t-18 53zM121 633
q0 31 19.5 52t54 21t55 -18.5t20.5 -53.5t-19.5 -55.5t-56.5 -20.5t-55 22t-18 53z" />
    <glyph glyph-name="yacute" unicode="&#xfd;" horiz-adv-x="532" 
d="M5 458v18h290v-18h-54l109 -332l116 332h-67v18h141v-18h-50l-187 -539q-33 -94 -74 -131.5t-100 -37.5t-93 27t-34 69t22 64t58 22q83 0 83 -69q0 -15 -6 -36h-35q-8 -23 -2 -38t27 -15q41 0 73 40.5t61 123.5l22 62h-88l-171 458h-41zM231 547l63 191l47 10
q31 7 47.5 -7.5t16.5 -39t-29 -50.5l-134 -111z" />
    <glyph glyph-name="thorn" unicode="&#xfe;" horiz-adv-x="588" 
d="M365 407.5q-10 35.5 -39 35.5t-52 -36t-23 -99v-186q0 -43 17.5 -73t50 -30t44.5 44t12 154v52q0 103 -10 138.5zM65 -220v952h-49v18h235v-350q38 86 130 86q187 0 187 -249q0 -127 -51.5 -187t-154.5 -60q-48 0 -72 12t-39 37v-259h129v-18h-370v18h55z" />
    <glyph glyph-name="ydieresis" unicode="&#xff;" horiz-adv-x="532" 
d="M5 458v18h290v-18h-54l109 -332l116 332h-67v18h141v-18h-50l-187 -539q-33 -94 -74 -131.5t-100 -37.5t-93 27t-34 69t22 64t58 22q83 0 83 -69q0 -15 -6 -36h-35q-8 -23 -2 -38t27 -15q41 0 73 40.5t61 123.5l22 62h-88l-171 458h-41zM322 633q0 31 19.5 52t54 21
t55 -18.5t20.5 -53.5t-19.5 -55.5t-56.5 -20.5t-55 22t-18 53zM129 633q0 31 19.5 52t54 21t55 -18.5t20.5 -53.5t-19.5 -55.5t-56.5 -20.5t-55 22t-18 53z" />
    <glyph glyph-name="Amacron" unicode="&#x100;" horiz-adv-x="694" 
d="M432 19l-73 216h-198l-77 -216h75v-19h-153v19h47l255 687h82l252 -687h46v-19h-327v19h71zM264 519l-94 -262h181zM213 770v97h272v-97h-272z" />
    <glyph glyph-name="amacron" unicode="&#x101;" horiz-adv-x="549" 
d="M250 235h29v77q0 95 -10.5 127.5t-40.5 32.5q-18 0 -32.5 -9.5t-14.5 -26t6 -33.5h25q8 -21 8 -50.5t-25 -51t-63 -21.5q-86 0 -86 83q0 123 209 123q119 0 164.5 -40.5t45.5 -148.5v-203q0 -52 29 -52q34 0 40 103l15 -1q-4 -88 -33 -121t-95 -33q-120 0 -138 74
q-13 -38 -39 -56t-76 -18q-148 0 -148 121q0 71 56.5 97.5t173.5 26.5zM215.5 45q5.5 -15 21 -15t29 25.5t13.5 70.5v93h-7q-62 0 -62 -91v-16q0 -52 5.5 -67zM121 567v95h272v-95h-272z" />
    <glyph glyph-name="Abreve" unicode="&#x102;" horiz-adv-x="694" 
d="M432 19l-73 216h-198l-77 -216h75v-19h-153v19h47l255 687h82l252 -687h46v-19h-327v19h71zM264 519l-94 -262h181zM207 918l16 3q14 -40 42.5 -54t86 -14t85 13t39.5 55l15 -3q-18 -172 -142 -172q-75 0 -105 50q-28 45 -37 122z" />
    <glyph glyph-name="abreve" unicode="&#x103;" horiz-adv-x="549" 
d="M250 235h29v77q0 95 -10.5 127.5t-40.5 32.5q-18 0 -32.5 -9.5t-14.5 -26t6 -33.5h25q8 -21 8 -50.5t-25 -51t-63 -21.5q-86 0 -86 83q0 123 209 123q119 0 164.5 -40.5t45.5 -148.5v-203q0 -52 29 -52q34 0 40 103l15 -1q-4 -88 -33 -121t-95 -33q-120 0 -138 74
q-13 -38 -39 -56t-76 -18q-148 0 -148 121q0 71 56.5 97.5t173.5 26.5zM215.5 45q5.5 -15 21 -15t29 25.5t13.5 70.5v93h-7q-62 0 -62 -91v-16q0 -52 5.5 -67zM115 721l16 3q14 -40 42.5 -54t86 -14t85 13t39.5 55l15 -3q-18 -180 -142 -180q-76 0 -105 53q-26 46 -37 127z
" />
    <glyph glyph-name="Aogonek" unicode="&#x104;" horiz-adv-x="694" 
d="M432 19l-73 216h-198l-77 -216h75v-19h-153v19h47l255 687h82l252 -687h46v-19h-111q-62 -51 -62 -147q0 -37 7 -50t29 -13t51 43l13 -8q-14 -23 -26 -37.5t-37 -26.5t-63 -12t-66 21t-28 62.5t22 71.5t88 70l42 26h-186v19h71zM264 519l-94 -262h181z" />
    <glyph glyph-name="aogonek" unicode="&#x105;" horiz-adv-x="549" 
d="M445 -9l-24 -1q-120 0 -138 74q-13 -38 -39 -56t-76 -18q-148 0 -148 121q0 71 56.5 97.5t173.5 26.5h29v77q0 95 -10.5 127.5t-40.5 32.5q-18 0 -32.5 -9.5t-14.5 -26t6 -33.5h25q8 -21 8 -50.5t-25 -51t-63 -21.5q-86 0 -86 83q0 123 209 123q119 0 164.5 -40.5
t45.5 -148.5v-203q0 -52 29 -52q34 0 40 103l15 -1q-4 -107 -51 -139q-71 -48 -71 -152q0 -37 7 -50t29 -13t51 43l13 -8q-14 -23 -26 -37.5t-37 -26.5t-63 -12t-66 21t-28 62.5t22 71.5t88 70zM215.5 45q5.5 -15 21 -15t29 25.5t13.5 70.5v93h-7q-62 0 -62 -91v-16
q0 -52 5.5 -67z" />
    <glyph glyph-name="Cacute" unicode="&#x106;" horiz-adv-x="690" 
d="M400 691q-155 0 -155 -299v-79q0 -142 41 -222.5t121 -80.5q110 0 202 214h18l-7 -223h-11q-6 11 -11 15.5t-14.5 4.5t-72.5 -15.5t-128 -15.5q-163 0 -252.5 88t-89.5 264.5t93.5 272.5t251.5 96q61 0 119.5 -15.5t68.5 -15.5t15 4.5t11 15.5h11l8 -217h-18
q-45 101 -92.5 154.5t-108.5 53.5zM290 743l115 162l48 -4q25 -2 36.5 -15t11.5 -30q0 -40 -44 -58l-159 -65z" />
    <glyph glyph-name="cacute" unicode="&#x107;" horiz-adv-x="483" 
d="M290 468q-44 0 -63 -48t-19 -159v-52q0 -99 22 -142t81 -43t94 40t45 91l18 -2q-19 -86 -70 -124q-52 -39 -143 -39q-116 0 -178 62.5t-62 183t70.5 185.5t196.5 65q89 0 136 -34.5t47 -86.5t-22.5 -76t-62 -24t-63.5 21t-24 62q0 18 5 36h33q7 20 7 36q0 48 -48 48z
M194 547l63 191l47 10q31 7 47.5 -7.5t16.5 -39t-29 -50.5l-134 -111z" />
    <glyph glyph-name="Ccircumflex" unicode="&#x108;" horiz-adv-x="690" 
d="M400 691q-155 0 -155 -299v-79q0 -142 41 -222.5t121 -80.5q110 0 202 214h18l-7 -223h-11q-6 11 -11 15.5t-14.5 4.5t-72.5 -15.5t-128 -15.5q-163 0 -252.5 88t-89.5 264.5t93.5 272.5t251.5 96q61 0 119.5 -15.5t68.5 -15.5t15 4.5t11 15.5h11l8 -217h-18
q-45 101 -92.5 154.5t-108.5 53.5zM226 743l106 148q28 16 55 16q47 0 70 -40l74 -124l-9 -10l-142 68l-146 -68z" />
    <glyph glyph-name="ccircumflex" unicode="&#x109;" horiz-adv-x="483" 
d="M290 468q-44 0 -63 -48t-19 -159v-52q0 -99 22 -142t81 -43t94 40t45 91l18 -2q-19 -86 -70 -124q-52 -39 -143 -39q-116 0 -178 62.5t-62 183t70.5 185.5t196.5 65q89 0 136 -34.5t47 -86.5t-22.5 -76t-62 -24t-63.5 21t-24 62q0 18 5 36h33q7 20 7 36q0 48 -48 48z
M131 532l89 190q30 16 59 16q45 0 64 -48l61 -159l-11 -7l-125 104l-125 -105z" />
    <glyph glyph-name="Cdotaccent" unicode="&#x10a;" horiz-adv-x="690" 
d="M400 691q-155 0 -155 -299v-79q0 -142 41 -222.5t121 -80.5q110 0 202 214h18l-7 -223h-11q-6 11 -11 15.5t-14.5 4.5t-72.5 -15.5t-128 -15.5q-163 0 -252.5 88t-89.5 264.5t93.5 272.5t251.5 96q61 0 119.5 -15.5t68.5 -15.5t15 4.5t11 15.5h11l8 -217h-18
q-45 101 -92.5 154.5t-108.5 53.5zM300.5 780q-22.5 27 -22.5 67t24.5 66t74.5 26t76 -23.5t26 -67t-25 -69.5t-78 -26t-75.5 27z" />
    <glyph glyph-name="cdotaccent" unicode="&#x10b;" horiz-adv-x="483" 
d="M290 468q-44 0 -63 -48t-19 -159v-52q0 -99 22 -142t81 -43t94 40t45 91l18 -2q-19 -86 -70 -124q-52 -39 -143 -39q-116 0 -178 62.5t-62 183t70.5 185.5t196.5 65q89 0 136 -34.5t47 -86.5t-22.5 -76t-62 -24t-63.5 21t-24 62q0 18 5 36h33q7 20 7 36q0 48 -48 48z
M188.5 572q-22.5 27 -22.5 67t24.5 66t74.5 26t76 -23.5t26 -67t-25 -69.5t-78 -26t-75.5 27z" />
    <glyph glyph-name="Ccaron" unicode="&#x10c;" horiz-adv-x="690" 
d="M400 691q-155 0 -155 -299v-79q0 -142 41 -222.5t121 -80.5q110 0 202 214h18l-7 -223h-11q-6 11 -11 15.5t-14.5 4.5t-72.5 -15.5t-128 -15.5q-163 0 -252.5 88t-89.5 264.5t93.5 272.5t251.5 96q61 0 119.5 -15.5t68.5 -15.5t15 4.5t11 15.5h11l8 -217h-18
q-45 101 -92.5 154.5t-108.5 53.5zM534 909l-106 -148q-28 -16 -55 -16q-47 0 -70 40l-74 124l9 10l142 -68l146 68z" />
    <glyph glyph-name="ccaron" unicode="&#x10d;" horiz-adv-x="483" 
d="M290 468q-44 0 -63 -48t-19 -159v-52q0 -99 22 -142t81 -43t94 40t45 91l18 -2q-19 -86 -70 -124q-52 -39 -143 -39q-116 0 -178 62.5t-62 183t70.5 185.5t196.5 65q89 0 136 -34.5t47 -86.5t-22.5 -76t-62 -24t-63.5 21t-24 62q0 18 5 36h33q7 20 7 36q0 48 -48 48z
M404 734l-86 -190q-27 -16 -54 -16q-49 0 -69 48l-64 159l11 7l126 -106l124 107z" />
    <glyph glyph-name="Dcaron" unicode="&#x10e;" horiz-adv-x="755" 
d="M714 362q0 -206 -116 -287q-107 -75 -294 -75h-283v19h66v662h-66v19h309q192 0 288 -78.5t96 -259.5zM282 19h38q101 0 144.5 71.5t43.5 239.5v58q0 225 -86 271q-41 22 -116 22h-24v-662zM488 909l-106 -148q-28 -16 -55 -16q-47 0 -70 40l-74 124l9 10l142 -68l146 68
z" />
    <glyph glyph-name="dcaron" unicode="&#x10f;" horiz-adv-x="664" 
d="M224 67.5q11 -34.5 40.5 -34.5t51 26t21.5 77v218q0 43 -17 73t-50 30t-45 -44t-12 -154v-52q0 -105 11 -139.5zM339 70q-34 -80 -138 -80q-86 0 -133.5 62t-47.5 185q0 249 198 249q88 0 116 -49v295h-61v18h250v-732h49v-18h-222zM570 520l-12 13q42 46 42 102
q0 34 -45 73l22 22q29 29 57 29t44 -20.5t16 -49.5q0 -81 -124 -169z" />
    <glyph glyph-name="Dcroat" unicode="&#x110;" horiz-adv-x="763" 
d="M19 359v26h76v296h-66v19h309q192 0 288 -78.5t96 -259.5q0 -206 -116 -287q-107 -75 -294 -75h-283v19h66v340h-76zM290 19h38q101 0 144.5 71.5t43.5 239.5v58q0 225 -86 271q-41 22 -116 22h-24v-296h129v-26h-129v-340z" />
    <glyph glyph-name="dcroat" unicode="&#x111;" horiz-adv-x="584" 
d="M350 0l-11 70q-34 -80 -138 -80q-86 0 -133.5 62t-47.5 185q0 249 198 249q88 0 116 -49v148h-164v21h164v126h-61v18h250v-144h56v-21h-56v-567h49v-18h-222zM224 67.5q11 -34.5 40.5 -34.5t51 26t21.5 77v218q0 43 -17 73t-50 30t-45 -44t-12 -154v-52
q0 -105 11 -139.5z" />
    <glyph glyph-name="Emacron" unicode="&#x112;" horiz-adv-x="624" 
d="M21 700h520l10 -198h-18q-42 101 -88 138.5t-135 37.5h-35v-309h34q47 0 79 35.5t45 95.5h15v-296h-17q-18 75 -48.5 107t-83.5 32h-24v-321h38q92 0 156.5 55t88.5 141h20l-8 -218h-549v22h59v656h-59v22zM159 770v97h272v-97h-272z" />
    <glyph glyph-name="emacron" unicode="&#x113;" horiz-adv-x="516" 
d="M79.5 56.5q-64.5 66.5 -64.5 185t72.5 181.5t184.5 63q227 0 218 -228h-282v-39q0 -98 25 -148t87 -50q116 0 152 124l18 -3q-19 -72 -68.5 -112t-148.5 -40q-129 0 -193.5 66.5zM209 278h103v49q0 81 -9.5 110.5t-38 29.5t-42 -31.5t-13.5 -108.5v-49zM131 567v95h272
v-95h-272z" />
    <glyph glyph-name="Ebreve" unicode="&#x114;" horiz-adv-x="624" 
d="M21 700h520l10 -198h-18q-42 101 -88 138.5t-135 37.5h-35v-309h34q47 0 79 35.5t45 95.5h15v-296h-17q-18 75 -48.5 107t-83.5 32h-24v-321h38q92 0 156.5 55t88.5 141h20l-8 -218h-549v22h59v656h-59v22zM157 918l16 3q14 -40 42.5 -54t86 -14t85 13t39.5 55l15 -3
q-18 -172 -142 -172q-75 0 -105 50q-28 45 -37 122z" />
    <glyph glyph-name="ebreve" unicode="&#x115;" horiz-adv-x="516" 
d="M79.5 56.5q-64.5 66.5 -64.5 185t72.5 181.5t184.5 63q227 0 218 -228h-282v-39q0 -98 25 -148t87 -50q116 0 152 124l18 -3q-19 -72 -68.5 -112t-148.5 -40q-129 0 -193.5 66.5zM209 278h103v49q0 81 -9.5 110.5t-38 29.5t-42 -31.5t-13.5 -108.5v-49zM125 721l16 3
q14 -40 42.5 -54t86 -14t85 13t39.5 55l15 -3q-18 -180 -142 -180q-76 0 -105 53q-26 46 -37 127z" />
    <glyph glyph-name="Edotaccent" unicode="&#x116;" horiz-adv-x="624" 
d="M21 700h520l10 -198h-18q-42 101 -88 138.5t-135 37.5h-35v-309h34q47 0 79 35.5t45 95.5h15v-296h-17q-18 75 -48.5 107t-83.5 32h-24v-321h38q92 0 156.5 55t88.5 141h20l-8 -218h-549v22h59v656h-59v22zM222.5 780q-22.5 27 -22.5 67t24.5 66t74.5 26t76 -23.5t26 -67
t-25 -69.5t-78 -26t-75.5 27z" />
    <glyph glyph-name="edotaccent" unicode="&#x117;" horiz-adv-x="516" 
d="M79.5 56.5q-64.5 66.5 -64.5 185t72.5 181.5t184.5 63q227 0 218 -228h-282v-39q0 -98 25 -148t87 -50q116 0 152 124l18 -3q-19 -72 -68.5 -112t-148.5 -40q-129 0 -193.5 66.5zM209 278h103v49q0 81 -9.5 110.5t-38 29.5t-42 -31.5t-13.5 -108.5v-49zM189.5 572
q-22.5 27 -22.5 67t24.5 66t74.5 26t76 -23.5t26 -67t-25 -69.5t-78 -26t-75.5 27z" />
    <glyph glyph-name="Eogonek" unicode="&#x118;" horiz-adv-x="624" 
d="M21 700h520l10 -198h-18q-42 101 -88 138.5t-135 37.5h-35v-309h34q47 0 79 35.5t45 95.5h15v-296h-17q-18 75 -48.5 107t-83.5 32h-24v-321h38q92 0 156.5 55t88.5 141h20l-8 -218h-69q-63 -51 -63 -147q0 -37 7 -50t29 -13t51 43l13 -8q-14 -23 -26 -37.5t-37 -26.5
t-63 -12t-66 21t-28 62.5t22 71.5t88 70l42 26h-449v22h59v656h-59v22z" />
    <glyph glyph-name="eogonek" unicode="&#x119;" horiz-adv-x="516" 
d="M79.5 56.5q-64.5 66.5 -64.5 185t72.5 181.5t184.5 63q227 0 218 -228h-282v-39q0 -98 25 -148t87 -50q116 0 152 124l18 -3q-23 -89 -96 -131q-74 -44 -74 -158q0 -37 7 -50t29 -13t51 43l13 -8q-14 -23 -26 -37.5t-37 -26.5t-63 -12t-66 21t-28 61.5t22 70t84 71.5
l35 24q-35 -7 -68 -7q-129 0 -193.5 66.5zM209 278h103v49q0 81 -9.5 110.5t-38 29.5t-42 -31.5t-13.5 -108.5v-49z" />
    <glyph glyph-name="Ecaron" unicode="&#x11a;" horiz-adv-x="624" 
d="M21 700h520l10 -198h-18q-42 101 -88 138.5t-135 37.5h-35v-309h34q47 0 79 35.5t45 95.5h15v-296h-17q-18 75 -48.5 107t-83.5 32h-24v-321h38q92 0 156.5 55t88.5 141h20l-8 -218h-549v22h59v656h-59v22zM451 909l-106 -148q-28 -16 -55 -16q-47 0 -70 40l-74 124l9 10
l142 -68l146 68z" />
    <glyph glyph-name="ecaron" unicode="&#x11b;" horiz-adv-x="516" 
d="M79.5 56.5q-64.5 66.5 -64.5 185t72.5 181.5t184.5 63q227 0 218 -228h-282v-39q0 -98 25 -148t87 -50q116 0 152 124l18 -3q-19 -72 -68.5 -112t-148.5 -40q-129 0 -193.5 66.5zM209 278h103v49q0 81 -9.5 110.5t-38 29.5t-42 -31.5t-13.5 -108.5v-49zM405 734l-86 -190
q-27 -16 -54 -16q-49 0 -69 48l-64 159l11 7l126 -106l124 107z" />
    <glyph glyph-name="Gcircumflex" unicode="&#x11c;" horiz-adv-x="723" 
d="M390 10q49 0 62.5 18t13.5 61v194h-64v22h288v-22h-39v-282h-15q-18 25 -51 25q-14 0 -83.5 -18t-118.5 -18q-163 0 -252.5 88t-89.5 264.5t93.5 272.5t251.5 96q61 0 122.5 -15.5t71.5 -15.5t15 4.5t11 15.5h11l8 -217h-18q-49 97 -98.5 152.5t-110.5 55.5
q-153 0 -153 -299v-79q0 -150 37.5 -226.5t107.5 -76.5zM227 743l106 148q28 16 55 16q47 0 70 -40l74 -124l-9 -10l-142 68l-146 -68z" />
    <glyph glyph-name="gcircumflex" unicode="&#x11d;" horiz-adv-x="522" 
d="M111 532l92 183q28 16 56 16q41 0 60 -46l38 -95l-11 -7l-98 60l-125 -120zM439 545q6 31 -24 31q-43 0 -43 -66q0 -26 7 -60q76 -51 76 -130.5t-55 -123.5t-149 -44q-39 0 -81 8q-44 -28 -44 -42t64 -14h102q227 0 227 -163q0 -88 -68.5 -139.5t-213.5 -51.5
q-247 0 -247 107q0 58 77 80l60 -27q-8 -29 -8 -55q0 -86 128 -86q78 0 120 29t42 72t-25.5 57.5t-101.5 14.5h-97q-81 0 -116 27t-35 66.5t25 66t89 65.5q-116 33 -116 152q0 75 54 121t162 46q65 0 111 -25q-6 27 -6 49q0 56 30 81t67 25t59.5 -19.5t22.5 -53.5t-18 -50.5
t-43.5 -16.5t-42 13.5t-17.5 38.5zM199 287q0 -67 11.5 -91t35 -24t34 23.5t10.5 96.5v49q0 78 -10 102.5t-33.5 24.5t-35.5 -25.5t-12 -101.5v-54z" />
    <glyph glyph-name="Gbreve" unicode="&#x11e;" horiz-adv-x="723" 
d="M390 10q49 0 62.5 18t13.5 61v194h-64v22h288v-22h-39v-282h-15q-18 25 -51 25q-14 0 -83.5 -18t-118.5 -18q-163 0 -252.5 88t-89.5 264.5t93.5 272.5t251.5 96q61 0 122.5 -15.5t71.5 -15.5t15 4.5t11 15.5h11l8 -217h-18q-49 97 -98.5 152.5t-110.5 55.5
q-153 0 -153 -299v-79q0 -150 37.5 -226.5t107.5 -76.5zM237 918l16 3q14 -40 42.5 -54t86 -14t85 13t39.5 55l15 -3q-18 -172 -142 -172q-75 0 -105 50q-28 45 -37 122z" />
    <glyph glyph-name="gbreve" unicode="&#x11f;" horiz-adv-x="522" 
d="M411 528l28 17q6 31 -24 31q-43 0 -43 -66q0 -26 7 -60q76 -51 76 -130.5t-55 -123.5t-149 -44q-39 0 -81 8q-44 -28 -44 -42t64 -14h102q227 0 227 -163q0 -88 -68.5 -139.5t-213.5 -51.5q-247 0 -247 107q0 58 77 80l60 -27q-8 -29 -8 -55q0 -86 128 -86q78 0 120 29
t42 72t-25.5 57.5t-101.5 14.5h-97q-81 0 -116 27t-35 66.5t25 66t89 65.5q-116 33 -116 152q0 75 54 121t162 46q65 0 111 -25q-6 27 -6 49q0 56 30 81t67 25t59.5 -19.5t22.5 -53.5t-18 -50.5t-43.5 -16.5t-42 13.5t-17.5 38.5zM199 341v-54q0 -67 11.5 -91t35 -24
t34 23.5t10.5 96.5v49q0 78 -10 102.5t-33.5 24.5t-35.5 -25.5t-12 -101.5zM105 721l16 3q14 -40 42.5 -54t86 -14t85 13t39.5 55l15 -3q-18 -180 -142 -180q-76 0 -105 53q-26 46 -37 127z" />
    <glyph glyph-name="Gdotaccent" unicode="&#x120;" horiz-adv-x="723" 
d="M390 10q49 0 62.5 18t13.5 61v194h-64v22h288v-22h-39v-282h-15q-18 25 -51 25q-14 0 -83.5 -18t-118.5 -18q-163 0 -252.5 88t-89.5 264.5t93.5 272.5t251.5 96q61 0 122.5 -15.5t71.5 -15.5t15 4.5t11 15.5h11l8 -217h-18q-49 97 -98.5 152.5t-110.5 55.5
q-153 0 -153 -299v-79q0 -150 37.5 -226.5t107.5 -76.5zM301.5 780q-22.5 27 -22.5 67t24.5 66t74.5 26t76 -23.5t26 -67t-25 -69.5t-78 -26t-75.5 27z" />
    <glyph glyph-name="gdotaccent" unicode="&#x121;" horiz-adv-x="522" 
d="M411 528l28 17q6 31 -24 31q-43 0 -43 -66q0 -26 7 -60q76 -51 76 -130.5t-55 -123.5t-149 -44q-39 0 -81 8q-44 -28 -44 -42t64 -14h102q227 0 227 -163q0 -88 -68.5 -139.5t-213.5 -51.5q-247 0 -247 107q0 58 77 80l60 -27q-8 -29 -8 -55q0 -86 128 -86q78 0 120 29
t42 72t-25.5 57.5t-101.5 14.5h-97q-81 0 -116 27t-35 66.5t25 66t89 65.5q-116 33 -116 152q0 75 54 121t162 46q65 0 111 -25q-6 27 -6 49q0 56 30 81t67 25t59.5 -19.5t22.5 -53.5t-18 -50.5t-43.5 -16.5t-42 13.5t-17.5 38.5zM199 341v-54q0 -67 11.5 -91t35 -24
t34 23.5t10.5 96.5v49q0 78 -10 102.5t-33.5 24.5t-35.5 -25.5t-12 -101.5zM169.5 572q-22.5 27 -22.5 67t24.5 66t74.5 26t76 -23.5t26 -67t-25 -69.5t-78 -26t-75.5 27z" />
    <glyph glyph-name="Gcommaaccent" unicode="&#x122;" horiz-adv-x="723" 
d="M390 10q49 0 62.5 18t13.5 61v194h-64v22h288v-22h-39v-282h-15q-18 25 -51 25q-14 0 -83.5 -18t-118.5 -18q-163 0 -252.5 88t-89.5 264.5t93.5 272.5t251.5 96q61 0 122.5 -15.5t71.5 -15.5t15 4.5t11 15.5h11l8 -217h-18q-49 97 -98.5 152.5t-110.5 55.5
q-153 0 -153 -299v-79q0 -150 37.5 -226.5t107.5 -76.5zM351 -290l-11 15q63 48 63 83q0 25 -18 33l-31 -31q-49 18 -49 67q0 33 19.5 51t54 18t54.5 -24.5t20 -66.5q0 -85 -102 -145z" />
    <glyph glyph-name="gcommaaccent" unicode="&#x123;" horiz-adv-x="522" 
d="M439 545q6 31 -24 31q-43 0 -43 -66q0 -26 7 -60q76 -51 76 -130.5t-55 -123.5t-149 -44q-39 0 -81 8q-44 -28 -44 -42t64 -14h102q227 0 227 -163q0 -88 -68.5 -139.5t-213.5 -51.5q-247 0 -247 107q0 58 77 80l60 -27q-8 -29 -8 -55q0 -86 128 -86q78 0 120 29t42 72
t-25.5 57.5t-101.5 14.5h-97q-81 0 -116 27t-35 66.5t25 66t89 65.5q-116 33 -116 152q0 75 54 121t162 46q65 0 111 -25q-6 27 -6 49q0 56 30 81t67 25t59.5 -19.5t22.5 -53.5t-18 -50.5t-43.5 -16.5t-42 13.5t-17.5 38.5zM199 287q0 -67 11.5 -91t35 -24t34 23.5
t10.5 96.5v49q0 78 -10 102.5t-33.5 24.5t-35.5 -25.5t-12 -101.5v-54zM275 776l11 -15q-63 -48 -63 -83q0 -25 18 -33l31 31q49 -18 49 -67q0 -33 -19.5 -51t-54 -18t-54.5 24.5t-20 66.5q0 85 102 145z" />
    <glyph glyph-name="Hcircumflex" unicode="&#x124;" horiz-adv-x="749" 
d="M21 700h312v-19h-58v-310h199v310h-59v19h313v-19h-59v-662h59v-19h-313v19h59v326h-199v-326h58v-19h-312v19h59v662h-59v19zM222 743l106 148q28 16 55 16q47 0 70 -40l74 -124l-9 -10l-142 68l-146 -68z" />
    <glyph glyph-name="hcircumflex" unicode="&#x125;" horiz-adv-x="616" 
d="M10 750h241v-366q16 46 49 74t100 28q155 0 155 -167v-301h56v-18h-283v18h41v325q0 60 -8 77.5t-29 17.5q-32 0 -56.5 -42t-24.5 -102v-276h43v-18h-284v18h55v714h-55v18zM-13 780l106 148q28 16 55 16q47 0 70 -40l74 -124l-9 -10l-142 68l-146 -68z" />
    <glyph glyph-name="Hbar" unicode="&#x126;" horiz-adv-x="749" 
d="M21 700h312v-19h-58v-147h199v147h-59v19h313v-19h-59v-147h69v-26h-69v-489h59v-19h-313v19h59v326h-199v-326h58v-19h-312v19h59v489h-69v26h69v147h-59v19zM275 371h199v137h-199v-137z" />
    <glyph glyph-name="hbar" unicode="&#x127;" horiz-adv-x="616" 
d="M10 750h241v-144h171v-21h-171v-201q16 46 49 74t100 28q155 0 155 -167v-301h56v-18h-283v18h41v325q0 60 -8 77.5t-29 17.5q-32 0 -56.5 -42t-24.5 -102v-276h43v-18h-284v18h55v567h-62v21h62v126h-55v18z" />
    <glyph glyph-name="Itilde" unicode="&#x128;" horiz-adv-x="355" 
d="M25 700h305v-19h-55v-662h55v-19h-305v19h55v662h-55v19zM307.5 782q-22.5 -30 -55.5 -30t-86 20t-72 20q-38 0 -55 -41l-12 4q23 72 37.5 97t30.5 33t41 8t75.5 -20t67.5 -20q44 0 58 42l13 -4q-20 -79 -42.5 -109z" />
    <glyph glyph-name="itilde" unicode="&#x129;" horiz-adv-x="317" 
d="M317 695q-38 -147 -107 -147q-34 0 -87 20t-72 20q-38 0 -55 -41l-12 4q23 75 48 110.5t69 35.5q27 0 77.5 -20t67.5 -20q44 0 58 42zM6 476h245v-458h56v-18h-297v18h55v440h-59v18z" />
    <glyph glyph-name="Imacron" unicode="&#x12a;" horiz-adv-x="355" 
d="M25 700h305v-19h-55v-662h55v-19h-305v19h55v662h-55v19zM41 770v97h272v-97h-272z" />
    <glyph glyph-name="imacron" unicode="&#x12b;" horiz-adv-x="317" 
d="M0 552v95h272v-95h-272zM6 476h245v-458h56v-18h-297v18h55v440h-59v18z" />
    <glyph glyph-name="Ibreve" unicode="&#x12c;" horiz-adv-x="355" 
d="M25 700h305v-19h-55v-662h55v-19h-305v19h55v662h-55v19zM35 918l16 3q14 -40 42.5 -54t86 -14t85 13t39.5 55l15 -3q-18 -172 -142 -172q-75 0 -105 50q-28 45 -37 122z" />
    <glyph glyph-name="ibreve" unicode="&#x12d;" horiz-adv-x="317" 
d="M1 706l16 3q14 -40 42.5 -54t86 -14t85 13t39.5 55l15 -3q-18 -180 -142 -180q-76 0 -105 53q-26 46 -37 127zM6 476h245v-458h56v-18h-297v18h55v440h-59v18z" />
    <glyph glyph-name="Iogonek" unicode="&#x12e;" horiz-adv-x="355" 
d="M25 700h305v-19h-55v-662h55v-19h-103q-62 -51 -62 -147q0 -37 7 -50t29 -13t51 43l13 -8q-14 -23 -26 -37.5t-37 -26.5t-63 -12t-66 21t-28 62.5t22 71.5t88 70l42 26h-172v19h55v662h-55v19z" />
    <glyph glyph-name="iogonek" unicode="&#x12f;" horiz-adv-x="317" 
d="M6 476h245v-458h56v-18h-99q-62 -51 -62 -147q0 -37 7 -50t29 -13t51 43l13 -8q-14 -23 -26 -37.5t-37 -26.5t-63 -12t-66 21t-28 62.5t22 71.5t88 70l42 26h-168v18h55v440h-59v18zM72.5 572q-22.5 27 -22.5 67t24.5 66t74.5 26t76 -23.5t26 -67t-25 -69.5t-78 -26
t-75.5 27z" />
    <glyph glyph-name="Idotaccent" unicode="&#x130;" horiz-adv-x="355" 
d="M25 700h305v-19h-55v-662h55v-19h-305v19h55v662h-55v19zM99.5 780q-22.5 27 -22.5 67t24.5 66t74.5 26t76 -23.5t26 -67t-25 -69.5t-78 -26t-75.5 27z" />
    <glyph glyph-name="dotlessi" unicode="&#x131;" horiz-adv-x="317" 
d="M6 476h245v-458h56v-18h-297v18h55v440h-59v18z" />
    <glyph glyph-name="IJ" unicode="&#x132;" horiz-adv-x="862" 
d="M25 700h305v-19h-55v-662h55v-19h-305v19h55v662h-55v19zM521 700h325v-19h-55v-432q0 -135 -61 -196.5t-183 -61.5q-81 0 -128.5 31t-47.5 87q0 43 24 67.5t65.5 24.5t62 -21t20.5 -50.5t-11 -59.5h-39q-9 -15 -9 -28.5t13.5 -23t35.5 -9.5q40 0 51.5 31.5t11.5 136.5
v504h-75v19z" />
    <glyph glyph-name="Jcircumflex" unicode="&#x134;" horiz-adv-x="507" 
d="M166 700h325v-19h-55v-432q0 -135 -61 -196.5t-183 -61.5q-81 0 -128.5 31t-47.5 87q0 43 24 67.5t65.5 24.5t62 -21t20.5 -50.5t-11 -59.5h-39q-9 -15 -9 -28.5t13.5 -23t35.5 -9.5q40 0 51.5 31.5t11.5 136.5v504h-75v19zM173 743l106 148q28 16 55 16q47 0 70 -40
l74 -124l-9 -10l-142 68l-146 -68z" />
    <glyph glyph-name="jcircumflex" unicode="&#x135;" horiz-adv-x="306" 
d="M251 476v-390q0 -164 -56.5 -250t-184.5 -86q-83 0 -121.5 33t-38.5 77t26 67.5t65 23.5t58.5 -21.5t19.5 -47.5t-6 -50h-38q-16 -27 -4.5 -46t42 -19t41.5 34.5t11 142.5v514h-65v18h251zM-2 532l89 190q30 16 59 16q45 0 64 -48l61 -159l-11 -7l-125 104l-125 -105z
" />
    <glyph glyph-name="Kcommaaccent" unicode="&#x136;" horiz-adv-x="734" 
d="M25 700h305v-19h-55v-316l8 2l282 314h-79v19h175v-19h-60l-172 -192l240 -470h54v-19h-321v19h47l-165 319l-9 -2v-317h55v-19h-305v19h55v662h-55v19zM315 -290l-11 15q63 48 63 83q0 25 -18 33l-31 -31q-49 18 -49 67q0 33 19.5 51t54 18t54.5 -24.5t20 -66.5
q0 -85 -102 -145z" />
    <glyph glyph-name="kcommaaccent" unicode="&#x137;" horiz-adv-x="620" 
d="M337 0v18h46l-113 232l-19 -5v-227h46v-18h-287v18h55v714h-59v18h245v-485l16 6l225 187h-94v18h197v-18h-70l-119 -101l173 -339h36v-18h-278zM275 -290l-11 15q63 48 63 83q0 25 -18 33l-31 -31q-49 18 -49 67q0 33 19.5 51t54 18t54.5 -24.5t20 -66.5
q0 -85 -102 -145z" />
    <glyph glyph-name="kgreenlandic" unicode="&#x138;" horiz-adv-x="620" 
d="M337 0v18h46l-113 232l-19 -5v-227h46v-18h-287v18h55v440h-59v18h245v-211l16 6l225 187h-94v18h197v-18h-70l-119 -101l173 -339h36v-18h-278z" />
    <glyph glyph-name="Lacute" unicode="&#x139;" horiz-adv-x="596" 
d="M21 700h360v-22h-106v-656h36q85 0 135.5 52t102.5 160h21l-19 -234h-530v22h59v656h-59v22zM92 743l115 162l48 -4q25 -2 36.5 -15t11.5 -30q0 -40 -44 -58l-159 -65z" />
    <glyph glyph-name="lacute" unicode="&#x13a;" horiz-adv-x="316" 
d="M6 750h245v-732h56v-18h-297v18h55v714h-59v18zM51 780l115 162l48 -4q25 -2 36.5 -15t11.5 -30q0 -40 -44 -58l-159 -65z" />
    <glyph glyph-name="Lcommaaccent" unicode="&#x13b;" horiz-adv-x="596" 
d="M21 700h360v-22h-106v-656h36q85 0 135.5 52t102.5 160h21l-19 -234h-530v22h59v656h-59v22zM276 -290l-11 15q63 48 63 83q0 25 -18 33l-31 -31q-49 18 -49 67q0 33 19.5 51t54 18t54.5 -24.5t20 -66.5q0 -85 -102 -145z" />
    <glyph glyph-name="lcommaaccent" unicode="&#x13c;" horiz-adv-x="316" 
d="M6 750h245v-732h56v-18h-297v18h55v714h-59v18zM126 -291l-11 15q63 48 63 83q0 25 -18 33l-31 -31q-49 18 -49 67q0 33 19.5 51t54 18t54.5 -24.5t20 -66.5q0 -85 -102 -145z" />
    <glyph glyph-name="Lcaron" unicode="&#x13d;" horiz-adv-x="596" 
d="M21 700h360v-22h-106v-656h36q85 0 135.5 52t102.5 160h21l-19 -234h-530v22h59v656h-59v22zM424 477l-12 13q42 46 42 102q0 34 -45 73l22 22q29 29 57 29t44 -20.5t16 -49.5q0 -81 -124 -169z" />
    <glyph glyph-name="lcaron" unicode="&#x13e;" horiz-adv-x="385" 
d="M6 750h245v-732h56v-18h-297v18h55v714h-59v18zM294 521l-12 13q42 46 42 102q0 34 -45 73l22 22q29 29 57 29t44 -20.5t16 -49.5q0 -81 -124 -169z" />
    <glyph glyph-name="Ldot" unicode="&#x13f;" horiz-adv-x="596" 
d="M21 700h360v-22h-106v-656h36q85 0 135.5 52t102.5 160h21l-19 -234h-530v22h59v656h-59v22zM383.5 342q-22.5 27 -22.5 67t24.5 66t74.5 26t76 -23.5t26 -67t-25 -69.5t-78 -26t-75.5 27z" />
    <glyph glyph-name="ldot" unicode="&#x140;" horiz-adv-x="437" 
d="M6 750h245v-732h56v-18h-297v18h55v714h-59v18zM298.5 345q-22.5 27 -22.5 67t24.5 66t74.5 26t76 -23.5t26 -67t-25 -69.5t-78 -26t-75.5 27z" />
    <glyph glyph-name="Lslash" unicode="&#x141;" horiz-adv-x="596" 
d="M21 700h360v-22h-106v-271l156 87l13 -22l-169 -95v-355h36q85 0 135.5 52t102.5 160h21l-19 -234h-530v22h59v266l-62 -34l-12 23l74 40v361h-59v22z" />
    <glyph glyph-name="lslash" unicode="&#x142;" horiz-adv-x="322" 
d="M6 750h245v-297l66 34l6 -19l-72 -38v-412h56v-18h-297v18h55v337l-67 -33l-6 20l73 36v354h-59v18z" />
    <glyph glyph-name="Nacute" unicode="&#x143;" horiz-adv-x="670" 
d="M590 681v-681h-140l-343 647v-628h55v-19h-137v19h55v662h-55v19h276l262 -502v483h-55v19h137v-19h-55zM267 743l115 162l48 -4q25 -2 36.5 -15t11.5 -30q0 -40 -44 -58l-159 -65z" />
    <glyph glyph-name="nacute" unicode="&#x144;" horiz-adv-x="616" 
d="M10 476h241v-92q16 46 49 74t100 28q155 0 155 -167v-301h56v-18h-283v18h41v325q0 60 -8 77.5t-29 17.5q-32 0 -56.5 -42t-24.5 -102v-276h43v-18h-284v18h55v440h-55v18zM256 547l63 191l47 10q31 7 47.5 -7.5t16.5 -39t-29 -50.5l-134 -111z" />
    <glyph glyph-name="Ncommaaccent" unicode="&#x145;" horiz-adv-x="670" 
d="M590 681v-681h-140l-343 647v-628h55v-19h-137v19h55v662h-55v19h276l262 -502v483h-55v19h137v-19h-55zM310 -290l-11 15q63 48 63 83q0 25 -18 33l-31 -31q-49 18 -49 67q0 33 19.5 51t54 18t54.5 -24.5t20 -66.5q0 -85 -102 -145z" />
    <glyph glyph-name="ncommaaccent" unicode="&#x146;" horiz-adv-x="616" 
d="M10 476h241v-92q16 46 49 74t100 28q155 0 155 -167v-301h56v-18h-283v18h41v325q0 60 -8 77.5t-29 17.5q-32 0 -56.5 -42t-24.5 -102v-276h43v-18h-284v18h55v440h-55v18zM280 -290l-11 15q63 48 63 83q0 25 -18 33l-31 -31q-49 18 -49 67q0 33 19.5 51t54 18
t54.5 -24.5t20 -66.5q0 -85 -102 -145z" />
    <glyph glyph-name="Ncaron" unicode="&#x147;" horiz-adv-x="670" 
d="M590 681v-681h-140l-343 647v-628h55v-19h-137v19h55v662h-55v19h276l262 -502v483h-55v19h137v-19h-55zM499 909l-106 -148q-28 -16 -55 -16q-47 0 -70 40l-74 124l9 10l142 -68l146 68z" />
    <glyph glyph-name="ncaron" unicode="&#x148;" horiz-adv-x="616" 
d="M10 476h241v-92q16 46 49 74t100 28q155 0 155 -167v-301h56v-18h-283v18h41v325q0 60 -8 77.5t-29 17.5q-32 0 -56.5 -42t-24.5 -102v-276h43v-18h-284v18h55v440h-55v18zM449 734l-86 -190q-27 -16 -54 -16q-49 0 -69 48l-64 159l11 7l126 -106l124 107z" />
    <glyph glyph-name="napostrophe" unicode="&#x149;" horiz-adv-x="667" 
d="M61 476h241v-92q16 46 49 74t100 28q155 0 155 -167v-301h56v-18h-283v18h41v325q0 60 -8 77.5t-29 17.5q-32 0 -56.5 -42t-24.5 -102v-276h43v-18h-284v18h55v440h-55v18zM-11 448l-11 15q63 48 63 81q0 25 -18 33l-29 -29q-45 16 -45 65q0 30 18.5 47.5t49 17.5
t49.5 -24t19 -65q0 -85 -96 -141z" />
    <glyph glyph-name="Eng" unicode="&#x14a;" horiz-adv-x="670" 
d="M590 681v-640q0 -135 -48 -196.5t-137.5 -61.5t-134.5 31t-45 87q0 42 24.5 67t64 25t60.5 -21.5t21 -49.5t-9 -60h-29q-15 -26 -3.5 -43.5t39 -17.5t37.5 32t10 136v50l-333 628v-628h55v-19h-137v19h55v662h-55v19h276l262 -502v483h-55v19h137v-19h-55z" />
    <glyph glyph-name="eng" unicode="&#x14b;" horiz-adv-x="610" 
d="M10 476h241v-92q16 46 49 74t100 28q155 0 155 -167v-233q0 -164 -56.5 -250t-184.5 -86q-82 0 -116.5 32.5t-34.5 77t26 68t65 23.5t58.5 -21.5t19.5 -47.5t-6 -50h-29q-16 -27 -8.5 -46t28.5 -19q31 0 41.5 35t10.5 142v399q0 60 -8 77.5t-29 17.5q-32 0 -56.5 -42
t-24.5 -102v-276h43v-18h-284v18h55v440h-55v18z" />
    <glyph glyph-name="Omacron" unicode="&#x14c;" horiz-adv-x="748" 
d="M501 309v74q0 183 -18 231q-20 55 -57 68q-21 8 -51 8t-51.5 -8t-35.5 -28t-22.5 -42t-13.5 -62q-6 -58 -6 -171v-72q0 -122 9.5 -173.5t23.5 -73.5q31 -49 96 -49q79 0 102.5 66.5t23.5 231.5zM123.5 80.5q-82.5 90.5 -82.5 262t88.5 270t250.5 98.5t244.5 -93.5
t82.5 -265.5t-83.5 -267t-250.5 -95t-249.5 90.5zM240 770v97h272v-97h-272z" />
    <glyph glyph-name="omacron" unicode="&#x14d;" horiz-adv-x="543" 
d="M333 197v85q0 97 -10.5 141.5t-48.5 44.5q-22 0 -35.5 -12.5t-19.5 -41.5q-9 -45 -9 -137v-78q0 -109 6.5 -131t13.5 -36q11 -24 43 -24q39 0 51 45q9 32 9 144zM82 54q-64 64 -64 183.5t68.5 184t192.5 64.5t185 -59.5t61 -181.5q0 -255 -254 -255q-125 0 -189 64z
M138 567v95h272v-95h-272z" />
    <glyph glyph-name="Obreve" unicode="&#x14e;" horiz-adv-x="748" 
d="M501 309v74q0 183 -18 231q-20 55 -57 68q-21 8 -51 8t-51.5 -8t-35.5 -28t-22.5 -42t-13.5 -62q-6 -58 -6 -171v-72q0 -122 9.5 -173.5t23.5 -73.5q31 -49 96 -49q79 0 102.5 66.5t23.5 231.5zM123.5 80.5q-82.5 90.5 -82.5 262t88.5 270t250.5 98.5t244.5 -93.5
t82.5 -265.5t-83.5 -267t-250.5 -95t-249.5 90.5zM234 918l16 3q14 -40 42.5 -54t86 -14t85 13t39.5 55l15 -3q-18 -172 -142 -172q-75 0 -106 50q-27 45 -36 122z" />
    <glyph glyph-name="obreve" unicode="&#x14f;" horiz-adv-x="543" 
d="M333 197v85q0 97 -10.5 141.5t-48.5 44.5q-22 0 -35.5 -12.5t-19.5 -41.5q-9 -45 -9 -137v-78q0 -109 6.5 -131t13.5 -36q11 -24 43 -24q39 0 51 45q9 32 9 144zM82 54q-64 64 -64 183.5t68.5 184t192.5 64.5t185 -59.5t61 -181.5q0 -255 -254 -255q-125 0 -189 64z
M132 721l16 3q14 -40 42.5 -54t86 -14t85 13t39.5 55l15 -3q-18 -180 -142 -180q-76 0 -105 53q-26 46 -37 127z" />
    <glyph glyph-name="Ohungarumlaut" unicode="&#x150;" horiz-adv-x="748" 
d="M501 309v74q0 183 -18 231q-20 55 -57 68q-21 8 -51 8t-51.5 -8t-35.5 -28t-22.5 -42t-13.5 -62q-6 -58 -6 -171v-72q0 -122 9.5 -173.5t23.5 -73.5q31 -49 96 -49q79 0 102.5 66.5t23.5 231.5zM123.5 80.5q-82.5 90.5 -82.5 262t88.5 270t250.5 98.5t244.5 -93.5
t82.5 -265.5t-83.5 -267t-250.5 -95t-249.5 90.5zM406 742l88 174l45 5q28 3 40.5 -9t12.5 -32q0 -33 -35 -55l-141 -91zM265 742l76 180l44 7q28 5 41.5 -6.5t13.5 -31.5q0 -35 -29 -56l-135 -101z" />
    <glyph glyph-name="ohungarumlaut" unicode="&#x151;" horiz-adv-x="543" 
d="M333 197v85q0 97 -10.5 141.5t-48.5 44.5q-22 0 -35.5 -12.5t-19.5 -41.5q-9 -45 -9 -137v-78q0 -109 6.5 -131t13.5 -36q11 -24 43 -24q39 0 51 45q9 32 9 144zM82 54q-64 64 -64 183.5t68.5 184t192.5 64.5t185 -59.5t61 -181.5q0 -255 -254 -255q-125 0 -189 64z
M316 547l63 191l47 10q31 7 47.5 -7.5t16.5 -39t-29 -50.5l-134 -111zM168 546l53 194l46 13q30 8 47.5 -5.5t18.5 -38t-26 -51.5l-128 -118z" />
    <glyph glyph-name="OE" unicode="&#x152;" horiz-adv-x="1045" 
d="M564 700h398l10 -198h-18q-42 101 -88 138.5t-135 37.5h-35v-309h34q47 0 79 35.5t45 95.5h15v-296h-17q-18 75 -48.5 107t-83.5 32h-24v-321h38q92 0 156.5 55t88.5 141h20l-8 -218h-428v73q-80 -83 -206 -83q-151 0 -233.5 91.5t-82.5 261t88 269t244 99.5
q120 0 191 -83v72zM501 309v74q0 183 -18 231q-20 55 -57 68q-21 8 -51 8t-51.5 -8t-35.5 -28t-22.5 -42t-13.5 -62q-6 -58 -6 -171v-72q0 -122 9.5 -173.5t23.5 -73.5q31 -49 96 -49q79 0 102.5 66.5t23.5 231.5z" />
    <glyph glyph-name="oe" unicode="&#x153;" horiz-adv-x="832" 
d="M78 54q-63 64 -63 184t66.5 184t183 64t173.5 -70q65 70 168 70q209 0 200 -228h-282v-39q0 -98 25 -148t87 -50q116 0 152 124l18 -3q-41 -152 -197 -152q-118 0 -177 70q-67 -70 -179 -70t-175 64zM339 197v85q0 94 -12 140t-52.5 46t-53.5 -46.5t-13 -144.5v-78
q0 -100 12.5 -145.5t53.5 -45.5t53 41.5t12 147.5zM525 278h103v49q0 81 -9.5 110.5t-38 29.5t-42 -31.5t-13.5 -108.5v-49z" />
    <glyph glyph-name="Racute" unicode="&#x154;" horiz-adv-x="716" 
d="M328 354h-53v-335h65v-19h-325v19h65v662h-65v19h302q130 0 184.5 -13.5t76.5 -32.5q48 -39 48 -124t-42 -121.5t-128 -43.5v-3q81 -11 113 -48t32 -124v-53q0 -52 5.5 -70t23.5 -18t28.5 16.5t19.5 69.5l17 -2q-11 -85 -38.5 -114t-109.5 -29t-116.5 38.5t-34.5 144.5
v73q0 56 -14.5 82t-53.5 26zM275 681v-308h32q57 0 84.5 35t27.5 114v29q0 79 -26.5 104.5t-84.5 25.5h-33zM234 743l115 162l48 -4q25 -2 36.5 -15t11.5 -30q0 -40 -44 -58l-159 -65z" />
    <glyph glyph-name="racute" unicode="&#x155;" horiz-adv-x="495" 
d="M344 448q-37 0 -65 -48t-28 -114v-268h71v-18h-312v18h55v440h-55v18h241v-96q13 51 50 78.5t84 27.5t76.5 -26.5t29.5 -75t-22 -74.5t-67.5 -26t-67 30t-5.5 83h36q25 51 -21 51zM203 547l63 191l47 10q31 7 47.5 -7.5t16.5 -39t-29 -50.5l-134 -111z" />
    <glyph glyph-name="Rcommaaccent" unicode="&#x156;" horiz-adv-x="716" 
d="M328 354h-53v-335h65v-19h-325v19h65v662h-65v19h302q130 0 184.5 -13.5t76.5 -32.5q48 -39 48 -124t-42 -121.5t-128 -43.5v-3q81 -11 113 -48t32 -124v-53q0 -52 5.5 -70t23.5 -18t28.5 16.5t19.5 69.5l17 -2q-11 -85 -38.5 -114t-109.5 -29t-116.5 38.5t-34.5 144.5
v73q0 56 -14.5 82t-53.5 26zM275 681v-308h32q57 0 84.5 35t27.5 114v29q0 79 -26.5 104.5t-84.5 25.5h-33zM321 -290l-11 15q63 48 63 83q0 25 -18 33l-31 -31q-49 18 -49 67q0 33 19.5 51t54 18t54.5 -24.5t20 -66.5q0 -85 -102 -145z" />
    <glyph glyph-name="rcommaaccent" unicode="&#x157;" horiz-adv-x="495" 
d="M344 448q-37 0 -65 -48t-28 -114v-268h71v-18h-312v18h55v440h-55v18h241v-96q13 51 50 78.5t84 27.5t76.5 -26.5t29.5 -75t-22 -74.5t-67.5 -26t-67 30t-5.5 83h36q25 51 -21 51zM126 -290l-11 15q63 48 63 83q0 25 -18 33l-31 -31q-49 18 -49 67q0 33 19.5 51t54 18
t54.5 -24.5t20 -66.5q0 -85 -102 -145z" />
    <glyph glyph-name="Rcaron" unicode="&#x158;" horiz-adv-x="716" 
d="M328 354h-53v-335h65v-19h-325v19h65v662h-65v19h302q130 0 184.5 -13.5t76.5 -32.5q48 -39 48 -124t-42 -121.5t-128 -43.5v-3q81 -11 113 -48t32 -124v-53q0 -52 5.5 -70t23.5 -18t28.5 16.5t19.5 69.5l17 -2q-11 -85 -38.5 -114t-109.5 -29t-116.5 38.5t-34.5 144.5
v73q0 56 -14.5 82t-53.5 26zM275 681v-308h32q57 0 84.5 35t27.5 114v29q0 79 -26.5 104.5t-84.5 25.5h-33zM478 909l-106 -148q-28 -16 -55 -16q-47 0 -70 40l-74 124l9 10l142 -68l146 68z" />
    <glyph glyph-name="rcaron" unicode="&#x159;" horiz-adv-x="495" 
d="M344 448q-37 0 -65 -48t-28 -114v-268h71v-18h-312v18h55v440h-55v18h241v-96q13 51 50 78.5t84 27.5t76.5 -26.5t29.5 -75t-22 -74.5t-67.5 -26t-67 30t-5.5 83h36q25 51 -21 51zM388 734l-86 -190q-27 -16 -54 -16q-49 0 -69 48l-64 159l11 7l126 -106l124 107z" />
    <glyph glyph-name="Sacute" unicode="&#x15a;" horiz-adv-x="600" 
d="M325 11q50 0 88.5 27t38.5 81.5t-41.5 83.5t-118 50.5t-111 37.5t-65.5 42q-62 52 -62 161q0 89 63.5 153t173.5 64q53 0 110.5 -15.5t71.5 -15.5t25 20h11l7 -202h-16q-48 87 -100.5 139.5t-114 52.5t-95.5 -28.5t-34 -76t40.5 -73t99.5 -41.5t77.5 -22t46 -16.5t45 -22
t37 -29t30.5 -38.5q27 -48 27 -114q0 -108 -67.5 -173.5t-177.5 -65.5q-57 0 -130.5 15t-81.5 15q-14 0 -27 -30h-14l-10 238h17q44 -87 112.5 -152t144.5 -65zM203 743l115 162l48 -4q25 -2 36.5 -15t11.5 -30q0 -40 -44 -58l-159 -65z" />
    <glyph glyph-name="sacute" unicode="&#x15b;" horiz-adv-x="434" 
d="M33 -10v179h12q26 -87 70 -122t110 -35q102 0 102 65q0 28 -25 42q-39 22 -100 34q-68 18 -114 48q-55 36 -55 114t48 124.5t128 46.5q49 0 101 -23q19 -8 29 -8t17 7t17 26h11v-153h-12q-51 130 -158 130q-47 0 -70 -16.5t-23 -41.5q0 -15 7 -23.5t11 -12.5t13 -8.5
t15 -7t18.5 -6.5t18.5 -5q68 -17 98 -29.5t57 -30.5q55 -38 55 -122.5t-50 -128t-137 -43.5q-62 0 -120 29q-12 8 -19 8q-22 0 -43 -37h-12zM160 547l63 191l47 10q31 7 47.5 -7.5t16.5 -39t-29 -50.5l-134 -111z" />
    <glyph glyph-name="Scircumflex" unicode="&#x15c;" horiz-adv-x="600" 
d="M325 11q50 0 88.5 27t38.5 81.5t-41.5 83.5t-118 50.5t-111 37.5t-65.5 42q-62 52 -62 161q0 89 63.5 153t173.5 64q53 0 110.5 -15.5t71.5 -15.5t25 20h11l7 -202h-16q-48 87 -100.5 139.5t-114 52.5t-95.5 -28.5t-34 -76t40.5 -73t99.5 -41.5t77.5 -22t46 -16.5t45 -22
t37 -29t30.5 -38.5q27 -48 27 -114q0 -108 -67.5 -173.5t-177.5 -65.5q-57 0 -130.5 15t-81.5 15q-14 0 -27 -30h-14l-10 238h17q44 -87 112.5 -152t144.5 -65zM139 743l106 148q28 16 55 16q47 0 70 -40l74 -124l-9 -10l-142 68l-146 -68z" />
    <glyph glyph-name="scircumflex" unicode="&#x15d;" horiz-adv-x="434" 
d="M33 -10v179h12q26 -87 70 -122t110 -35q102 0 102 65q0 28 -25 42q-39 22 -100 34q-68 18 -114 48q-55 36 -55 114t48 124.5t128 46.5q49 0 101 -23q19 -8 29 -8t17 7t17 26h11v-153h-12q-51 130 -158 130q-47 0 -70 -16.5t-23 -41.5q0 -15 7 -23.5t11 -12.5t13 -8.5
t15 -7t18.5 -6.5t18.5 -5q68 -17 98 -29.5t57 -30.5q55 -38 55 -122.5t-50 -128t-137 -43.5q-62 0 -120 29q-12 8 -19 8q-22 0 -43 -37h-12zM81 532l89 190q30 16 59 16q45 0 64 -48l61 -159l-11 -7l-125 104l-125 -105z" />
    <glyph glyph-name="Scedilla" unicode="&#x15e;" horiz-adv-x="600" 
d="M325 11q50 0 88.5 27t38.5 81.5t-41.5 83.5t-118 50.5t-111 37.5t-65.5 42q-62 52 -62 161q0 89 63.5 153t173.5 64q53 0 110.5 -15.5t71.5 -15.5t25 20h11l7 -202h-16q-48 87 -100.5 139.5t-114 52.5t-95.5 -28.5t-34 -76t40.5 -73t99.5 -41.5t77.5 -22t46 -16.5t45 -22
t37 -29t30.5 -38.5q27 -48 27 -114q0 -108 -67.5 -173.5t-177.5 -65.5h-13l-29 -49q21 3 33 3q105 0 105 -89q0 -41 -33 -72.5t-103 -31.5q-46 0 -74.5 18.5t-28.5 43.5t12 37t31 12q34 0 46 -38l-26 -20q0 -14 8 -25.5t26.5 -11.5t27 17.5t8.5 54t-2 51.5q-3 36 -30 36
q-14 0 -30 -4l-3 9l36 61q-45 3 -103 15.5t-68 12.5t-16 -7t-13 -23h-14l-10 238h17q44 -87 112.5 -152t144.5 -65z" />
    <glyph glyph-name="scedilla" unicode="&#x15f;" horiz-adv-x="428" 
d="M33 -10v179h12q26 -87 70 -122t110 -35q102 0 102 65q0 28 -25 42q-39 22 -100 34q-68 18 -114 48q-55 36 -55 114t48 124.5t128 46.5q49 0 101 -23q19 -8 29 -8t17 7t17 26h11v-153h-12q-51 130 -158 130q-47 0 -70 -16.5t-23 -41.5q0 -15 7 -23.5t11 -12.5t13 -8.5
t15 -7t18.5 -6.5t18.5 -5q68 -17 98 -29.5t57 -30.5q55 -38 55 -122.5t-50 -128t-137 -43.5q-11 0 -16 1l-28 -49q21 3 33 3q105 0 105 -89q0 -41 -33 -72.5t-103 -31.5q-46 0 -74.5 18.5t-28.5 43.5t12 37t31 12q34 0 46 -38l-26 -20q0 -14 8 -25.5t26.5 -11.5t27 17.5
t8.5 54t-1 50.5q-4 37 -31 37q-14 0 -30 -4l-3 9l36 61q-38 5 -79 26q-12 8 -19 8q-22 0 -43 -37h-12z" />
    <glyph glyph-name="Scaron" unicode="&#x160;" horiz-adv-x="600" 
d="M325 11q50 0 88.5 27t38.5 81.5t-41.5 83.5t-118 50.5t-111 37.5t-65.5 42q-62 52 -62 161q0 89 63.5 153t173.5 64q53 0 110.5 -15.5t71.5 -15.5t25 20h11l7 -202h-16q-48 87 -100.5 139.5t-114 52.5t-95.5 -28.5t-34 -76t40.5 -73t99.5 -41.5t77.5 -22t46 -16.5t45 -22
t37 -29t30.5 -38.5q27 -48 27 -114q0 -108 -67.5 -173.5t-177.5 -65.5q-57 0 -130.5 15t-81.5 15q-14 0 -27 -30h-14l-10 238h17q44 -87 112.5 -152t144.5 -65zM457 909l-106 -148q-28 -16 -55 -16q-47 0 -70 40l-74 124l9 10l142 -68l146 68z" />
    <glyph glyph-name="scaron" unicode="&#x161;" horiz-adv-x="434" 
d="M33 -10v179h12q26 -87 70 -122t110 -35q102 0 102 65q0 28 -25 42q-39 22 -100 34q-68 18 -114 48q-55 36 -55 114t48 124.5t128 46.5q49 0 101 -23q19 -8 29 -8t17 7t17 26h11v-153h-12q-51 130 -158 130q-47 0 -70 -16.5t-23 -41.5q0 -15 7 -23.5t11 -12.5t13 -8.5
t15 -7t18.5 -6.5t18.5 -5q68 -17 98 -29.5t57 -30.5q55 -38 55 -122.5t-50 -128t-137 -43.5q-62 0 -120 29q-12 8 -19 8q-22 0 -43 -37h-12zM358 734l-86 -190q-27 -16 -54 -16q-49 0 -69 48l-64 159l11 7l126 -106l124 107z" />
    <glyph glyph-name="uni0162" unicode="&#x162;" horiz-adv-x="683" 
d="M636 700l10 -251h-19q-44 133 -78 181.5t-98 48.5h-12v-658h85v-21h-168l-32 -55q21 3 33 3q105 0 105 -89q0 -41 -33 -72.5t-103 -31.5q-46 0 -74.5 18.5t-28.5 43.5t12 37t31 12q34 0 46 -38l-26 -20q0 -14 8 -25.5t26.5 -11.5t27 17.5t8.5 54t-2 51.5q-3 36 -30 36
q-14 0 -30 -4l-3 9l39 65h-171v21h85v658h-13q-64 0 -99 -50.5t-77 -179.5h-19l10 251h590z" />
    <glyph glyph-name="uni0163" unicode="&#x163;" horiz-adv-x="384" 
d="M50 143v315h-55v18h55v129l186 46v-175h130v-18h-130v-337q0 -47 9.5 -69t39.5 -22t52.5 30t29.5 82l17 -2q-8 -69 -44 -109.5t-120 -40.5h-7l-26 -45q21 3 33 3q105 0 105 -89q0 -41 -33 -72.5t-103 -31.5q-46 0 -74.5 18.5t-28.5 43.5t12 37t31 12q34 0 46 -38l-26 -20
q0 -14 8 -25.5t26.5 -11.5t27 17.5t8.5 54t-1 51.5q-4 36 -31 36q-14 0 -30 -4l-3 9l34 56q-67 6 -102.5 40t-35.5 112z" />
    <glyph glyph-name="Tcaron" unicode="&#x164;" horiz-adv-x="683" 
d="M636 700l10 -251h-19q-44 133 -78 181.5t-98 48.5h-12v-658h85v-21h-365v21h85v658h-13q-64 0 -99 -50.5t-77 -179.5h-19l10 251h590zM497 909l-106 -148q-28 -16 -55 -16q-47 0 -70 40l-74 124l9 10l142 -68l146 68z" />
    <glyph glyph-name="tcaron" unicode="&#x165;" horiz-adv-x="394" 
d="M60 143v315h-55v18h55v129l186 46v-175h130v-18h-130v-337q0 -47 9.5 -69t39.5 -22t52.5 30t29.5 82l17 -2q-8 -69 -44 -109.5t-119 -40.5t-127 33t-44 120zM285 514l-12 13q42 46 42 102q0 34 -45 73l22 22q29 29 57 29t44 -20.5t16 -49.5q0 -81 -124 -169z" />
    <glyph glyph-name="Tbar" unicode="&#x166;" horiz-adv-x="683" 
d="M636 700l10 -251h-19q-44 133 -78 181.5t-98 48.5h-12v-312h144v-26h-144v-320h85v-21h-365v21h85v320h-144v26h144v312h-13q-64 0 -99 -50.5t-77 -179.5h-19l10 251h590z" />
    <glyph glyph-name="tbar" unicode="&#x167;" horiz-adv-x="384" 
d="M-5 287v21h55v150h-55v18h55v129l186 46v-175h130v-18h-130v-150h130v-21h-130v-166q0 -47 9.5 -69t39.5 -22t52.5 30t29.5 82l17 -2q-8 -69 -44 -109.5t-119 -40.5t-127 33t-44 120v144h-55z" />
    <glyph glyph-name="Utilde" unicode="&#x168;" horiz-adv-x="683" 
d="M302.5 72q31.5 -49 113.5 -49t126 51t44 155v452h-65v19h146v-19h-55v-445q0 -124 -55 -185t-194.5 -61t-213 58t-73.5 199v434h-55v19h315v-19h-65v-468q0 -92 31.5 -141zM500.5 782q-22.5 -30 -55.5 -30t-86 20t-72 20q-38 0 -55 -41l-12 4q23 72 37.5 97t30.5 33t41 8
t75.5 -20t67.5 -20q44 0 58 42l13 -4q-20 -79 -42.5 -109z" />
    <glyph glyph-name="utilde" unicode="&#x169;" horiz-adv-x="605" 
d="M595 0h-228l-11 73q-16 -40 -47.5 -61.5t-93.5 -21.5q-155 0 -155 167v301h-56v18h242v-343q0 -60 8.5 -79t34 -19t45.5 31t20 86v306h-46v18h232v-458h55v-18zM468 710q-38 -147 -108 -147q-33 0 -86 20t-72 20q-38 0 -55 -41l-12 4q23 75 48 110.5t69 35.5
q27 0 77.5 -20t67.5 -20q44 0 58 42z" />
    <glyph glyph-name="Umacron" unicode="&#x16a;" horiz-adv-x="683" 
d="M302.5 72q31.5 -49 113.5 -49t126 51t44 155v452h-65v19h146v-19h-55v-445q0 -124 -55 -185t-194.5 -61t-213 58t-73.5 199v434h-55v19h315v-19h-65v-468q0 -92 31.5 -141zM234 770v97h272v-97h-272z" />
    <glyph glyph-name="umacron" unicode="&#x16b;" horiz-adv-x="605" 
d="M595 0h-228l-11 73q-16 -40 -47.5 -61.5t-93.5 -21.5q-155 0 -155 167v301h-56v18h242v-343q0 -60 8.5 -79t34 -19t45.5 31t20 86v306h-46v18h232v-458h55v-18zM156 567v95h272v-95h-272z" />
    <glyph glyph-name="Ubreve" unicode="&#x16c;" horiz-adv-x="683" 
d="M302.5 72q31.5 -49 113.5 -49t126 51t44 155v452h-65v19h146v-19h-55v-445q0 -124 -55 -185t-194.5 -61t-213 58t-73.5 199v434h-55v19h315v-19h-65v-468q0 -92 31.5 -141zM253 918l16 3q14 -40 42.5 -54t86 -14t85 13t39.5 55l15 -3q-18 -172 -142 -172q-75 0 -105 50
q-28 45 -37 122z" />
    <glyph glyph-name="ubreve" unicode="&#x16d;" horiz-adv-x="605" 
d="M595 0h-228l-11 73q-16 -40 -47.5 -61.5t-93.5 -21.5q-155 0 -155 167v301h-56v18h242v-343q0 -60 8.5 -79t34 -19t45.5 31t20 86v306h-46v18h232v-458h55v-18zM150 721l16 3q14 -40 42.5 -54t86 -14t85 13t39.5 55l15 -3q-18 -180 -142 -180q-76 0 -105 53
q-26 46 -37 127z" />
    <glyph glyph-name="Uring" unicode="&#x16e;" horiz-adv-x="683" 
d="M302.5 72q31.5 -49 113.5 -49t126 51t44 155v452h-65v19h146v-19h-55v-445q0 -124 -55 -185t-194.5 -61t-213 58t-73.5 199v434h-55v19h315v-19h-65v-468q0 -92 31.5 -141zM331 836q0 -73 72 -73q35 0 53 20.5t18 51.5t-18 51.5t-54.5 20.5t-53.5 -20.5t-17 -50.5z
M326 765q-25 26 -25 69t26.5 70t75.5 27t74.5 -25.5t25.5 -69t-26.5 -70.5t-76 -27t-74.5 26z" />
    <glyph glyph-name="uring" unicode="&#x16f;" horiz-adv-x="605" 
d="M595 0h-228l-11 73q-16 -40 -47.5 -61.5t-93.5 -21.5q-155 0 -155 167v301h-56v18h242v-343q0 -60 8.5 -79t34 -19t45.5 31t20 86v306h-46v18h232v-458h55v-18zM221 632q0 -73 72 -73q35 0 53 20.5t18 51.5t-18 51.5t-54.5 20.5t-53.5 -20.5t-17 -50.5zM216 561
q-25 26 -25 69t26.5 70t75.5 27t74.5 -25.5t25.5 -69t-26.5 -70.5t-76 -27t-74.5 26z" />
    <glyph glyph-name="Uhungarumlaut" unicode="&#x170;" horiz-adv-x="683" 
d="M302.5 72q31.5 -49 113.5 -49t126 51t44 155v452h-65v19h146v-19h-55v-445q0 -124 -55 -185t-194.5 -61t-213 58t-73.5 199v434h-55v19h315v-19h-65v-468q0 -92 31.5 -141zM400 742l88 174l45 5q28 3 40.5 -9t12.5 -32q0 -33 -35 -55l-141 -91zM259 742l76 180l44 7
q28 5 41.5 -6.5t13.5 -31.5q0 -35 -29 -56l-135 -101z" />
    <glyph glyph-name="uhungarumlaut" unicode="&#x171;" horiz-adv-x="605" 
d="M595 0h-228l-11 73q-16 -40 -47.5 -61.5t-93.5 -21.5q-155 0 -155 167v301h-56v18h242v-343q0 -60 8.5 -79t34 -19t45.5 31t20 86v306h-46v18h232v-458h55v-18zM334 547l63 191l47 10q31 7 47.5 -7.5t16.5 -39t-29 -50.5l-134 -111zM186 546l53 194l46 13q30 8 47.5 -5.5
t18.5 -38t-26 -51.5l-128 -118z" />
    <glyph glyph-name="Uogonek" unicode="&#x172;" horiz-adv-x="683" 
d="M302.5 72q31.5 -49 113.5 -49t126 51t44 155v452h-65v19h146v-19h-55v-445q0 -85 -24.5 -137.5t-85.5 -86.5q-75 -42 -75 -159q0 -37 7 -50t29 -13t51 43l13 -8q-14 -23 -26 -37.5t-37 -26.5t-63 -12t-66 21t-28 63t19.5 70t84.5 70l41 26q-50 -9 -96 -9
q-133 0 -206.5 58t-73.5 199v434h-55v19h315v-19h-65v-468q0 -92 31.5 -141z" />
    <glyph glyph-name="uogonek" unicode="&#x173;" horiz-adv-x="605" 
d="M595 0h-79q-62 -51 -62 -147q0 -37 7 -50t29 -13t51 43l13 -8q-14 -23 -26 -37.5t-37 -26.5t-63 -12t-66 21t-28 62.5t22 71.5t88 70l42 26h-119l-11 73q-16 -40 -47.5 -61.5t-93.5 -21.5q-155 0 -155 167v301h-56v18h242v-343q0 -60 8.5 -79t34 -19t45.5 31t20 86v306
h-46v18h232v-458h55v-18z" />
    <glyph glyph-name="Wcircumflex" unicode="&#x174;" horiz-adv-x="1015" 
d="M424 202l83 288l-60 191h-57v19h310v-19h-59l149 -473l120 473h-101v19h200v-19h-66l-184 -691h-89l-148 452l-130 -452h-87l-252 691h-47v19h325v-19h-70zM392 743l106 148q28 16 55 16q47 0 70 -40l74 -124l-9 -10l-142 68l-146 -68z" />
    <glyph glyph-name="wcircumflex" unicode="&#x175;" horiz-adv-x="834" 
d="M352 458v18h258v-18h-41l90 -337l89 337h-69v18h135v-18h-42l-120 -458h-137l-87 307l-94 -307h-134l-148 458h-45v18h303v-18h-60l92 -340l72 234l-25 106h-37zM337 532l89 190q30 16 59 16q45 0 64 -48l61 -159l-11 -7l-125 104l-125 -105z" />
    <glyph glyph-name="Ycircumflex" unicode="&#x176;" horiz-adv-x="641" 
d="M397 371l142 313h-101v16h197v-16h-66l-151 -334v-331h61v-19h-317v19h61v312l-170 353h-47v16h320v-16h-65zM190 743l106 148q28 16 55 16q47 0 70 -40l74 -124l-9 -10l-142 68l-146 -68z" />
    <glyph glyph-name="ycircumflex" unicode="&#x177;" horiz-adv-x="532" 
d="M5 458v18h290v-18h-54l109 -332l116 332h-67v18h141v-18h-50l-187 -539q-33 -94 -74 -131.5t-100 -37.5t-93 27t-34 69t22 64t58 22q83 0 83 -69q0 -15 -6 -36h-35q-8 -23 -2 -38t27 -15q41 0 73 40.5t61 123.5l22 62h-88l-171 458h-41zM162 532l89 190q30 16 59 16
q45 0 64 -48l61 -159l-11 -7l-125 104l-125 -105z" />
    <glyph glyph-name="Ydieresis" unicode="&#x178;" horiz-adv-x="641" 
d="M397 371l142 313h-101v16h197v-16h-66l-151 -334v-331h61v-19h-317v19h61v312l-170 353h-47v16h320v-16h-65zM354 821q0 31 19.5 52t54 21t55 -18.5t20.5 -53.5t-19.5 -55.5t-56.5 -20.5t-55 22t-18 53zM161 821q0 31 19.5 52t54 21t55 -18.5t20.5 -53.5t-19.5 -55.5
t-56.5 -20.5t-55 22t-18 53z" />
    <glyph glyph-name="Zacute" unicode="&#x179;" horiz-adv-x="612" 
d="M559 700v-22l-296 -655h34q90 0 158.5 57.5t98.5 163.5h18l-12 -244h-512v19l299 659h-41q-89 0 -135 -39t-104 -160h-18l15 221h495zM218 743l115 162l48 -4q25 -2 36.5 -15t11.5 -30q0 -40 -44 -58l-159 -65z" />
    <glyph glyph-name="zacute" unicode="&#x17a;" 
d="M475 476v-18l-237 -440h13q84 0 132 44t75 143h14l-16 -205h-420v15l241 443h-11q-101 0 -140.5 -33t-70.5 -141h-13l13 192h420zM191 547l63 191l47 10q31 7 47.5 -7.5t16.5 -39t-29 -50.5l-134 -111z" />
    <glyph glyph-name="Zdotaccent" unicode="&#x17b;" horiz-adv-x="612" 
d="M559 700v-22l-296 -655h34q90 0 158.5 57.5t98.5 163.5h18l-12 -244h-512v19l299 659h-41q-89 0 -135 -39t-104 -160h-18l15 221h495zM232.5 780q-22.5 27 -22.5 67t24.5 66t74.5 26t76 -23.5t26 -67t-25 -69.5t-78 -26t-75.5 27z" />
    <glyph glyph-name="zdotaccent" unicode="&#x17c;" 
d="M475 476v-18l-237 -440h13q84 0 132 44t75 143h14l-16 -205h-420v15l241 443h-11q-101 0 -140.5 -33t-70.5 -141h-13l13 192h420zM182.5 572q-22.5 27 -22.5 67t24.5 66t74.5 26t76 -23.5t26 -67t-25 -69.5t-78 -26t-75.5 27z" />
    <glyph glyph-name="Zcaron" unicode="&#x17d;" horiz-adv-x="612" 
d="M559 700v-22l-296 -655h34q90 0 158.5 57.5t98.5 163.5h18l-12 -244h-512v19l299 659h-41q-89 0 -135 -39t-104 -160h-18l15 221h495zM466 909l-106 -148q-28 -16 -55 -16q-47 0 -70 40l-74 124l9 10l142 -68l146 68z" />
    <glyph glyph-name="zcaron" unicode="&#x17e;" 
d="M475 476v-18l-237 -440h13q84 0 132 44t75 143h14l-16 -205h-420v15l241 443h-11q-101 0 -140.5 -33t-70.5 -141h-13l13 192h420zM398 734l-86 -190q-27 -16 -54 -16q-49 0 -69 48l-64 159l11 7l126 -106l124 107z" />
    <glyph glyph-name="longs" unicode="&#x17f;" horiz-adv-x="383" 
d="M313 756q-38 0 -50 -28.5t-12 -91.5v-618h122v-18h-363v18h55v440h-58v18h58v4q0 144 55 218.5t184 74.5q85 0 122 -33.5t37 -77.5t-23 -66t-61 -22t-58.5 19.5t-20.5 45t6 49.5h38q20 68 -31 68z" />
    <glyph glyph-name="florin" unicode="&#x192;" horiz-adv-x="549" 
d="M411 694q-34 0 -50.5 -28.5t-28.5 -91.5l-30 -168h142l-3 -18h-142l-53 -305q-24 -138 -95.5 -216t-186.5 -78q-74 0 -109.5 30t-35.5 72.5t24 69.5t64 27t59 -18t19 -44t-14 -52h-38q-14 -20 -14 -36t13 -24t31 -8q34 0 50.5 28.5t28.5 91.5l81 462h-58l3 18h58
q25 144 96 224.5t188 80.5q74 0 109.5 -30t35.5 -72.5t-24 -69.5t-64 -27t-59 18t-19 44t14 52h38q14 20 14 36t-13 24t-31 8z" />
    <glyph glyph-name="Aringacute" unicode="&#x1fa;" horiz-adv-x="694" 
d="M248 785q0 41 26.5 68t75.5 27t74.5 -25.5t25.5 -67.5q0 -69 -57 -91l249 -677h46v-19h-327v19h71l-73 216h-198l-77 -216h75v-19h-153v19h47l251 676q-56 20 -56 90zM264 519l-94 -262h181zM277 896l115 162l48 -4q25 -2 36.5 -15t11.5 -30q0 -40 -44 -58l-159 -65z
M278 785q0 -73 72 -73q35 0 53 20.5t18 51.5t-18 51.5t-54.5 20.5t-53.5 -20.5t-17 -50.5z" />
    <glyph glyph-name="aringacute" unicode="&#x1fb;" horiz-adv-x="549" 
d="M250 235h29v77q0 95 -10.5 127.5t-40.5 32.5q-18 0 -32.5 -9.5t-14.5 -26t6 -33.5h25q8 -21 8 -50.5t-25 -51t-63 -21.5q-86 0 -86 83q0 123 209 123q119 0 164.5 -40.5t45.5 -148.5v-203q0 -52 29 -52q34 0 40 103l15 -1q-4 -88 -33 -121t-95 -33q-120 0 -138 74
q-13 -38 -39 -56t-76 -18q-148 0 -148 121q0 71 56.5 97.5t173.5 26.5zM215.5 45q5.5 -15 21 -15t29 25.5t13.5 70.5v93h-7q-62 0 -62 -91v-16q0 -52 5.5 -67zM186 607q0 -73 72 -73q35 0 53 20.5t18 51.5t-18 51.5t-54.5 20.5t-53.5 -20.5t-17 -50.5zM181 536
q-25 26 -25 69t26.5 70t75.5 27t74.5 -25.5t25.5 -69t-26.5 -70.5t-76 -27t-74.5 26zM165 713l115 162l48 -4q25 -2 36.5 -15t11.5 -30q0 -40 -44 -58l-159 -65z" />
    <glyph glyph-name="AEacute" unicode="&#x1fc;" horiz-adv-x="1033" 
d="M376 678v22h574l10 -198h-18q-42 99 -86.5 137.5t-127.5 38.5h-44v-316h34q47 0 79 35.5t45 95.5h15v-296h-17q-18 75 -48.5 107t-83.5 32h-24v-314h38q92 0 156.5 55t88.5 141h20l-8 -218h-549v22h59v317h-210l-194 -320h75v-19h-154v19h47l399 659h-76zM483 678
l-192 -315h198v315h-6zM605 743l115 162l48 -4q25 -2 36.5 -15t11.5 -30q0 -40 -44 -58l-159 -65z" />
    <glyph glyph-name="aeacute" unicode="&#x1fd;" horiz-adv-x="772" 
d="M279 235v77q0 95 -10.5 127.5t-40.5 32.5q-18 0 -32.5 -9.5t-14.5 -26t6 -33.5h25q8 -21 8 -50.5t-25 -51t-63 -21.5q-86 0 -86 83q0 61 52 92t139 31q109 0 152 -63q47 63 152 63q214 0 205 -228h-282v-39q0 -98 25 -148t87 -50q116 0 152 124l18 -3q-19 -72 -68.5 -112
t-148.5 -40q-139 0 -201 80q-34 -80 -155 -80q-153 0 -153 121q0 71 56.5 97.5t173.5 26.5h29zM465 278h103v49q0 81 -9.5 110.5t-38 29.5t-42 -31.5t-13.5 -108.5v-49zM219.5 46q9.5 -16 28 -16t38 14.5t28.5 44.5q-32 52 -35 129v1h-7q-62 0 -62 -91v-16q0 -50 9.5 -66z
M360 532l63 191l47 10q31 7 47.5 -7.5t16.5 -39t-29 -50.5l-134 -111z" />
    <glyph glyph-name="Oslashacute" unicode="&#x1fe;" horiz-adv-x="748" 
d="M41 339q0 175 88.5 273.5t253.5 98.5q59 0 105 -13l27 71l25 -10l-26 -69q193 -68 193 -338q0 -172 -83.5 -267t-252.5 -95q-63 0 -117 14l-29 -78l-25 10l29 76q-188 68 -188 327zM501 309v74q0 169 -17 227l-207 -546q29 -53 103 -53t97.5 66.5t23.5 231.5zM246 307
q0 -149 16 -206l206 544q-27 45 -93 45q-62 0 -87 -36q-28 -41 -34 -92q-8 -70 -8 -183v-72zM323 743l115 162l48 -4q25 -2 36.5 -15t11.5 -30q0 -40 -44 -58l-159 -65z" />
    <glyph glyph-name="oslashacute" unicode="&#x1ff;" horiz-adv-x="546" 
d="M15 236q0 123 67.5 186.5t196.5 63.5q32 0 65 -5l26 69l22 -8l-25 -65q164 -38 164 -232q0 -255 -258 -255q-48 0 -87 9l-28 -74l-22 8l27 72q-148 48 -148 231zM339 197v85q0 70 -5 107l-119 -314q12 -67 60 -67q40 0 52 41.5t12 147.5zM208 199q0 -51 1 -72l115 302
q-16 39 -48 39q-42 0 -55 -46.5t-13 -144.5v-78zM205 547l63 191l47 10q31 7 47.5 -7.5t16.5 -39t-29 -50.5l-134 -111z" />
    <glyph glyph-name="Scommaaccent" unicode="&#x218;" horiz-adv-x="600" 
d="M325 11q50 0 88.5 27t38.5 81.5t-41.5 83.5t-118 50.5t-111 37.5t-65.5 42q-62 52 -62 161q0 89 63.5 153t173.5 64q53 0 110.5 -15.5t71.5 -15.5t25 20h11l7 -202h-16q-48 87 -100.5 139.5t-114 52.5t-95.5 -28.5t-34 -76t40.5 -73t99.5 -41.5t77.5 -22t46 -16.5t45 -22
t37 -29t30.5 -38.5q27 -48 27 -114q0 -108 -67.5 -173.5t-177.5 -65.5q-57 0 -130.5 15t-81.5 15q-14 0 -27 -30h-14l-10 238h17q44 -87 112.5 -152t144.5 -65zM268 -290l-11 15q63 48 63 83q0 25 -18 33l-31 -31q-49 18 -49 67q0 33 19.5 51t54 18t54.5 -24.5t20 -66.5
q0 -85 -102 -145z" />
    <glyph glyph-name="scommaaccent" unicode="&#x219;" horiz-adv-x="434" 
d="M33 -10v179h12q26 -87 70 -122t110 -35q102 0 102 65q0 28 -25 42q-39 22 -100 34q-68 18 -114 48q-55 36 -55 114t48 124.5t128 46.5q49 0 101 -23q19 -8 29 -8t17 7t17 26h11v-153h-12q-51 130 -158 130q-47 0 -70 -16.5t-23 -41.5q0 -15 7 -23.5t11 -12.5t13 -8.5
t15 -7t18.5 -6.5t18.5 -5q68 -17 98 -29.5t57 -30.5q55 -38 55 -122.5t-50 -128t-137 -43.5q-62 0 -120 29q-12 8 -19 8q-22 0 -43 -37h-12zM188 -290l-11 15q63 48 63 83q0 25 -18 33l-31 -31q-49 18 -49 67q0 33 19.5 51t54 18t54.5 -24.5t20 -66.5q0 -85 -102 -145z" />
    <glyph glyph-name="uni021A" unicode="&#x21a;" horiz-adv-x="683" 
d="M636 700l10 -251h-19q-44 133 -78 181.5t-98 48.5h-12v-658h85v-21h-365v21h85v658h-13q-64 0 -99 -50.5t-77 -179.5h-19l10 251h590zM313 -290l-11 15q63 48 63 83q0 25 -18 33l-31 -31q-49 18 -49 67q0 33 19.5 51t54 18t54.5 -24.5t20 -66.5q0 -85 -102 -145z" />
    <glyph glyph-name="uni021B" unicode="&#x21b;" horiz-adv-x="394" 
d="M60 143v315h-55v18h55v129l186 46v-175h130v-18h-130v-337q0 -47 9.5 -69t39.5 -22t52.5 30t29.5 82l17 -2q-8 -69 -44 -109.5t-119 -40.5t-127 33t-44 120zM197 -290l-11 15q63 48 63 83q0 25 -18 33l-31 -31q-49 18 -49 67q0 33 19.5 51t54 18t54.5 -24.5t20 -66.5
q0 -85 -102 -145z" />
    <glyph glyph-name="dotlessj" unicode="&#x237;" horiz-adv-x="311" 
d="M251 476v-390q0 -164 -56.5 -250t-184.5 -86q-83 0 -121.5 33t-38.5 77t26 67.5t65 23.5t58.5 -21.5t19.5 -47.5t-6 -50h-38q-16 -27 -4.5 -46t42 -19t41.5 34.5t11 142.5v514h-65v18h251z" />
    <glyph glyph-name="apostrophe" unicode="&#x2bc;" horiz-adv-x="211" 
d="M74 491l-11 15q63 48 63 81q0 25 -18 33l-29 -29q-45 16 -45 65q0 30 18.5 47.5t49 17.5t49.5 -24t19 -65q0 -85 -96 -141z" />
    <glyph glyph-name="circumflex" unicode="&#x2c6;" 
d="M118 532l89 190q30 16 59 16q45 0 64 -48l61 -159l-11 -7l-125 104l-125 -105z" />
    <glyph glyph-name="caron" unicode="&#x2c7;" 
d="M391 719l-86 -190q-27 -16 -54 -16q-49 0 -69 48l-64 159l11 7l126 -106l124 107z" />
    <glyph glyph-name="uni02C9" unicode="&#x2c9;" 
d="M114 552v95h272v-95h-272z" />
    <glyph glyph-name="breve" unicode="&#x2d8;" 
d="M108 706l16 3q14 -40 42.5 -54t86 -14t85 13t39.5 55l15 -3q-18 -180 -142 -180q-76 0 -105 53q-26 46 -37 127z" />
    <glyph glyph-name="dotaccent" unicode="&#x2d9;" 
d="M168.5 557q-22.5 27 -22.5 67t24.5 66t74.5 26t76 -23.5t26 -67t-25 -69.5t-78 -26t-75.5 27z" />
    <glyph glyph-name="ring" unicode="&#x2da;" 
d="M179 617q0 -73 72 -73q35 0 53 20.5t18 51.5t-18 51.5t-54.5 20.5t-53.5 -20.5t-17 -50.5zM174 546q-25 26 -25 69t26.5 70t75.5 27t74.5 -25.5t25.5 -69t-26.5 -70.5t-76 -27t-74.5 26z" />
    <glyph glyph-name="ogonek" unicode="&#x2db;" 
d="M286 10l13 1l7 -6q-69 -52 -69 -152q0 -37 7 -50t29 -13t51 43l13 -8q-14 -23 -26 -37.5t-37 -26.5t-63 -12t-66 21t-28 62.5t22 71.5t88 70z" />
    <glyph glyph-name="tilde" unicode="&#x2dc;" 
d="M422 695q-38 -147 -108 -147q-33 0 -86 20t-72 20q-38 0 -55 -41l-12 4q23 75 48 110.5t69 35.5q27 0 77.5 -20t67.5 -20q44 0 58 42z" />
    <glyph glyph-name="hungarumlaut" unicode="&#x2dd;" 
d="M249 532l63 191l47 10q31 7 47.5 -7.5t16.5 -39t-29 -50.5l-134 -111zM101 531l53 194l46 13q30 8 47.5 -5.5t18.5 -38t-26 -51.5l-128 -118z" />
    <glyph glyph-name="uni0394" unicode="&#x394;" horiz-adv-x="625" 
d="M625 0h-625l283 716h82zM239 529l-192 -484h351z" />
    <glyph glyph-name="uni03A9" unicode="&#x3a9;" horiz-adv-x="852" 
d="M477 0v105q58 49 71.5 93.5t13.5 185.5t-7 185q-27 117 -116 121q-49 0 -84 -30q-20 -17 -38 -81q-10 -36 -10 -83v-72v-38q0 -148 9 -195t47 -85v-106h-306l-12 264h17q17 -88 56 -117t137 -29h70q-116 52 -172 117.5t-56 169.5q0 140 90 223t249.5 83t245 -78
t85.5 -219q0 -83 -44 -140q-23 -29 -43 -50t-56 -44q-50 -32 -107 -62h82q98 0 137 29t56 117h15l-12 -264h-318z" />
    <glyph glyph-name="uni03BC" unicode="&#x3bc;" horiz-adv-x="673" 
d="M268 501v-343q0 -95 16 -111q9 -8 24 -8q30 0 54 39t24 103v311l177 9v-416q0 -43 29 -43q34 0 40 103l15 -1q-4 -88 -33 -121t-90.5 -33t-94.5 27t-43 72q-16 -44 -49 -72t-72.5 -28t-68 16.5t-52.5 68.5l-4 -3l58 -142q4 -10 12 -29t10.5 -26t6.5 -18q7 -21 7 -38.5
t-20 -31.5t-43 -9l-91 19v696z" />
    <glyph glyph-name="pi" unicode="&#x3c0;" horiz-adv-x="627" 
d="M169 521l341 -17q18 0 28.5 9t20.5 34l18 -6q-19 -93 -44 -135.5t-72 -42.5h-44q-10 -81 -10 -133.5t20 -93.5t65 -41q58 0 76 67l15 -4q-10 -67 -43.5 -118t-83.5 -51q-95 0 -95 128q0 49 13.5 122t20.5 126l-171 11q2 -235 -10 -300q-16 -87 -79 -87q-30 0 -47 18
t-17 40.5t8 38t37.5 54t42.5 58.5t26.5 66.5t17.5 113.5l-64 3q-22 0 -34.5 -8.5t-25.5 -35.5l-18 7q32 177 108 177z" />
    <glyph glyph-name="Wgrave" unicode="&#x1e80;" horiz-adv-x="1015" 
d="M424 202l83 288l-60 191h-57v19h310v-19h-59l149 -473l120 473h-101v19h200v-19h-66l-184 -691h-89l-148 452l-130 -452h-87l-252 691h-47v19h325v-19h-70zM524 905l115 -162l-8 -10l-159 65q-44 18 -44 58q0 17 11.5 30t36.5 15z" />
    <glyph glyph-name="wgrave" unicode="&#x1e81;" horiz-adv-x="834" 
d="M352 458v18h258v-18h-41l90 -337l89 337h-69v18h135v-18h-42l-120 -458h-137l-87 307l-94 -307h-134l-148 458h-45v18h303v-18h-60l92 -340l72 234l-25 106h-37zM479 738l63 -191l-11 -7l-134 111q-29 26 -29 50.5t16.5 39t47.5 7.5z" />
    <glyph glyph-name="Wacute" unicode="&#x1e82;" horiz-adv-x="1015" 
d="M424 202l83 288l-60 191h-57v19h310v-19h-59l149 -473l120 473h-101v19h200v-19h-66l-184 -691h-89l-148 452l-130 -452h-87l-252 691h-47v19h325v-19h-70zM456 743l115 162l48 -4q25 -2 36.5 -15t11.5 -30q0 -40 -44 -58l-159 -65z" />
    <glyph glyph-name="wacute" unicode="&#x1e83;" horiz-adv-x="834" 
d="M352 458v18h258v-18h-41l90 -337l89 337h-69v18h135v-18h-42l-120 -458h-137l-87 307l-94 -307h-134l-148 458h-45v18h303v-18h-60l92 -340l72 234l-25 106h-37zM404 547l63 191l47 10q31 7 47.5 -7.5t16.5 -39t-29 -50.5l-134 -111z" />
    <glyph glyph-name="Wdieresis" unicode="&#x1e84;" horiz-adv-x="1015" 
d="M424 202l83 288l-60 191h-57v19h310v-19h-59l149 -473l120 473h-101v19h200v-19h-66l-184 -691h-89l-148 452l-130 -452h-87l-252 691h-47v19h325v-19h-70zM566 821q0 31 19.5 52t54 21t55 -18.5t20.5 -53.5t-19.5 -55.5t-56.5 -20.5t-55 22t-18 53zM373 821
q0 31 19.5 52t54 21t55 -18.5t20.5 -53.5t-19.5 -55.5t-56.5 -20.5t-55 22t-18 53z" />
    <glyph glyph-name="wdieresis" unicode="&#x1e85;" horiz-adv-x="834" 
d="M352 458v18h258v-18h-41l90 -337l89 337h-69v18h135v-18h-42l-120 -458h-137l-87 307l-94 -307h-134l-148 458h-45v18h303v-18h-60l92 -340l72 234l-25 106h-37zM495 633q0 31 19.5 52t54 21t55 -18.5t20.5 -53.5t-19.5 -55.5t-56.5 -20.5t-55 22t-18 53zM302 633
q0 31 19.5 52t54 21t55 -18.5t20.5 -53.5t-19.5 -55.5t-56.5 -20.5t-55 22t-18 53z" />
    <glyph glyph-name="Ygrave" unicode="&#x1ef2;" horiz-adv-x="641" 
d="M397 371l142 313h-101v16h197v-16h-66l-151 -334v-331h61v-19h-317v19h61v312l-170 353h-47v16h320v-16h-65zM290 905l115 -162l-8 -10l-159 65q-44 18 -44 58q0 17 11.5 30t36.5 15z" />
    <glyph glyph-name="ygrave" unicode="&#x1ef3;" horiz-adv-x="532" 
d="M5 458v18h290v-18h-54l109 -332l116 332h-67v18h141v-18h-50l-187 -539q-33 -94 -74 -131.5t-100 -37.5t-93 27t-34 69t22 64t58 22q83 0 83 -69q0 -15 -6 -36h-35q-8 -23 -2 -38t27 -15q41 0 73 40.5t61 123.5l22 62h-88l-171 458h-41zM279 738l63 -191l-11 -7l-134 111
q-29 26 -29 50.5t16.5 39t47.5 7.5z" />
    <glyph glyph-name="endash" unicode="&#x2013;" 
d="M20 272v27h460v-27h-460z" />
    <glyph glyph-name="emdash" unicode="&#x2014;" horiz-adv-x="1000" 
d="M20 272v27h960v-27h-960z" />
    <glyph glyph-name="quoteleft" unicode="&#x2018;" horiz-adv-x="260" 
d="M177 755l9 -14q-93 -61 -93 -122q0 -31 27 -36l42 39q20 -7 36.5 -25.5t16.5 -47.5t-23 -49.5t-60.5 -20.5t-62 25.5t-24.5 70.5q0 98 132 180z" />
    <glyph glyph-name="quoteright" unicode="&#x2019;" horiz-adv-x="260" 
d="M83 452l-9 14q93 61 93 122q0 32 -27 36l-42 -39q-20 7 -36.5 25.5t-16.5 47.5t23 49.5t60.5 20.5t62 -25.5t24.5 -70.5q0 -98 -132 -180z" />
    <glyph glyph-name="quotesinglbase" unicode="&#x201a;" horiz-adv-x="260" 
d="M83 -147l-9 14q93 61 93 122q0 31 -27 36l-42 -39q-20 7 -36.5 25.5t-16.5 47.5t23 49.5t60.5 20.5t62 -25.5t24.5 -70.5q0 -98 -132 -180z" />
    <glyph glyph-name="quotedblleft" unicode="&#x201c;" horiz-adv-x="448" 
d="M365 755l9 -14q-93 -61 -93 -122q0 -31 27 -36l42 39q20 -7 36.5 -25.5t16.5 -47.5t-23 -49.5t-60.5 -20.5t-62 25.5t-24.5 70.5q0 98 132 180zM177 755l9 -14q-93 -61 -93 -122q0 -31 27 -36l42 39q20 -7 36.5 -25.5t16.5 -47.5t-23 -49.5t-60.5 -20.5t-62 25.5
t-24.5 70.5q0 98 132 180z" />
    <glyph glyph-name="quotedblright" unicode="&#x201d;" horiz-adv-x="445" 
d="M268 452l-9 14q93 61 93 122q0 32 -27 36l-42 -39q-20 7 -36.5 25.5t-16.5 47.5t23 49.5t60.5 20.5t62 -25.5t24.5 -70.5q0 -98 -132 -180zM83 452l-9 14q93 61 93 122q0 32 -27 36l-42 -39q-20 7 -36.5 25.5t-16.5 47.5t23 49.5t60.5 20.5t62 -25.5t24.5 -70.5
q0 -98 -132 -180z" />
    <glyph glyph-name="quotedblbase" unicode="&#x201e;" horiz-adv-x="445" 
d="M268 -147l-9 14q93 61 93 122q0 31 -27 36l-42 -39q-20 7 -36.5 25.5t-16.5 47.5t23 49.5t60.5 20.5t62 -25.5t24.5 -70.5q0 -98 -132 -180zM83 -147l-9 14q93 61 93 122q0 31 -27 36l-42 -39q-20 7 -36.5 25.5t-16.5 47.5t23 49.5t60.5 20.5t62 -25.5t24.5 -70.5
q0 -98 -132 -180z" />
    <glyph glyph-name="dagger" unicode="&#x2020;" horiz-adv-x="531" 
d="M352 355v-6l-9 -17q-9 -17 -11 -21.5t-10.5 -22.5t-11.5 -28t-9 -29.5t-9 -34.5q-8 -42 -8 -81l-5 -235h-26l-4 234q0 53 -8 83.5t-12 45.5t-12.5 33.5t-12.5 26t-14 25t-11 20.5v6q70 88 78 131q-25 -1 -78.5 -27.5t-81.5 -26.5t-42.5 20t-14.5 45.5t15 44.5t42.5 19
t80 -29t80.5 -30q-2 31 -32.5 75t-30.5 71t19.5 45.5t55.5 18.5t54 -18.5t18 -45t-32 -69.5t-34 -77q26 2 78.5 30.5t78 28.5t42 -15.5t16.5 -47t-16.5 -49t-40.5 -17.5t-78 26.5t-80 27.5q6 -46 76 -130z" />
    <glyph glyph-name="daggerdbl" unicode="&#x2021;" horiz-adv-x="571" 
d="M372 386v-6q-39 -39 -68 -87q28 -46 68 -85v-6q-70 -68 -78 -100q25 1 78.5 27.5t81.5 26.5t42.5 -20t14.5 -45.5t-15 -44.5t-42.5 -19t-80 29t-80.5 30q2 -31 32.5 -75t30.5 -71t-19.5 -45.5t-55.5 -18.5t-54 18.5t-18 45t32 69.5t34 77q-26 -2 -78.5 -30.5t-78 -28.5
t-42 15.5t-16.5 47t16.5 49t40.5 17.5t78 -26.5t80 -27.5q-7 21 -29.5 50t-46.5 49v6q39 39 67 86q-29 49 -67 86v6q70 68 78 100q-25 -1 -78.5 -27.5t-81.5 -26.5t-42.5 20t-14.5 45.5t15 44.5t42.5 19t80 -29t80.5 -30q-2 31 -32.5 75t-30.5 71t19.5 45.5t55.5 18.5
t54 -18.5t18 -45t-32 -69.5t-34 -77q26 2 78.5 30.5t78 28.5t42 -15.5t16.5 -47t-16.5 -49t-40.5 -17.5t-78 26.5t-80 27.5q7 -21 29.5 -50t46.5 -49z" />
    <glyph glyph-name="bullet" unicode="&#x2022;" horiz-adv-x="400" 
d="M107 188.5q-31 37.5 -31 92.5t34 91.5t94 36.5t95.5 -32t35.5 -93.5t-33.5 -97t-98.5 -35.5t-96 37.5z" />
    <glyph glyph-name="ellipsis" unicode="&#x2026;" horiz-adv-x="796" 
d="M66.5 15.5q-21.5 25.5 -21.5 62t22.5 61.5t63.5 25t65 -21t24 -63t-22.5 -66t-66 -24t-65 25.5zM330.5 15.5q-21.5 25.5 -21.5 62t22.5 61.5t63.5 25t65 -21t24 -63t-22.5 -66t-66 -24t-65 25.5zM597.5 15.5q-21.5 25.5 -21.5 62t22.5 61.5t63.5 25t65 -21t24 -63
t-22.5 -66t-66 -24t-65 25.5z" />
    <glyph glyph-name="perthousand" unicode="&#x2030;" horiz-adv-x="1077" 
d="M753.5 31.5q-45.5 41.5 -45.5 113t49 114.5t126 43t123 -37.5t46 -114t-50.5 -118.5t-126.5 -42t-121.5 41.5zM838.5 258.5q-7.5 -27.5 -7.5 -86.5v-72q0 -46 4.5 -58t10 -21t14.5 -12t21 -3t20.5 3.5t14 13t8.5 18.5t4.5 29t1.5 34v44q0 84 -7.5 111t-42 27t-42 -27.5z
M375.5 31.5q-45.5 41.5 -45.5 113t49 114.5t126 43t123 -37.5t46 -114t-50.5 -118.5t-126.5 -42t-121.5 41.5zM460.5 258.5q-7.5 -27.5 -7.5 -86.5v-72q0 -46 4.5 -58t10 -21t14.5 -12t21 -3t20.5 3.5t14 13t8.5 18.5t4.5 29t1.5 34v44q0 84 -7.5 111t-42 27t-42 -27.5z
M75.5 440.5q-45.5 41.5 -45.5 113t49 114.5t126 43t123 -37.5t46 -114t-50.5 -118.5t-126.5 -42t-121.5 41.5zM160.5 667.5q-7.5 -27.5 -7.5 -86.5v-73q0 -45 4.5 -57t10 -21t14.5 -12t21 -3t20.5 3.5t14 13t8.5 18.5t4.5 29t1.5 34v44q0 84 -7.5 111t-42 27t-42 -27.5z
M103 0l451 700h40l-450 -700h-41z" />
    <glyph glyph-name="guilsinglleft" unicode="&#x2039;" horiz-adv-x="318" 
d="M63 263l177 138l9 -7l-86 -163l85 -175l-9 -7l-159 130q-30 26 -30 44.5t13 39.5z" />
    <glyph glyph-name="guilsinglright" unicode="&#x203a;" horiz-adv-x="318" 
d="M255 187l-177 -138l-8 7l85 163l-84 174l8 8l159 -130q30 -26 30 -44.5t-13 -39.5z" />
    <glyph glyph-name="fraction" unicode="&#x2044;" horiz-adv-x="200" 
d="M-82 0l321 700h34l-320 -700h-35z" />
    <glyph glyph-name="foursuperior" unicode="&#x2074;" horiz-adv-x="483" 
d="M159 394v19h58v79h-168v21l175 301h127v-298h62v52h19v-118h-19v42h-62v-79h43v-19h-235zM78 516h139v238z" />
    <glyph glyph-name="Euro" unicode="&#x20ac;" horiz-adv-x="612" 
d="M387 691q-63 0 -83 -50.5t-22 -213.5h201l-6 -28h-195v-80h180l-6 -28h-174q1 -160 22.5 -220.5t86.5 -60.5q39 0 59.5 15.5t20.5 35.5t-5 31h-30q-7 21 -7 48.5t22.5 47t58 19.5t55.5 -23.5t20 -58.5q0 -57 -54.5 -96t-144.5 -39q-135 0 -215.5 74.5t-91.5 226.5h-68
l6 28h60v21q0 21 2 59h-54l6 28h51q19 140 97 212t199 72q94 0 148 -38.5t54 -96.5q0 -35 -20 -58.5t-55.5 -23.5t-58 19.5t-22.5 44t7 45.5h29q11 37 -12.5 62.5t-60.5 25.5z" />
    <glyph glyph-name="afii61352" unicode="&#x2116;" horiz-adv-x="1072" 
d="M660 573v-580h-135l-309 584v-435q0 -88 -29 -120t-79.5 -32t-74.5 26t-24 59.5t18 55t49 21.5t46 -14t15 -35t-12 -45h-30q-11 -15 -11 -25q0 -24 26 -24q79 0 79 119v491l-34 62h-62v19h283l256 -491v350q0 152 112 152q47 0 71 -26t24 -59.5t-17 -55t-47.5 -21.5
t-47 14t-16.5 35t12 45h30q11 15 11 25q0 24 -28 24t-52 -28.5t-24 -90.5zM773.5 199.5q-44.5 46.5 -44.5 124.5t48 125t118 47t116.5 -42t46.5 -125.5t-49.5 -129.5t-120 -46t-115 46.5zM860 448q-7 -31 -7 -104.5t0.5 -94.5t4.5 -44t12.5 -30t25 -7t25.5 8t13 32
q6 37 6 124t-6.5 117t-36.5 30t-37 -31zM752 88v23h285v-23h-285z" />
    <glyph glyph-name="trademark" unicode="&#x2122;" horiz-adv-x="934" 
d="M379 648l6 -124h-13q-21 47 -44.5 75.5t-41.5 34.5v-339h51v-17h-230v17h52v339q-18 -8 -42.5 -36t-44.5 -74h-13l7 124h313zM728 648h176v-17h-40v-338h40v-15h-202v15h39v337l-99 -352h-64l-107 345v-330h44v-15h-99v15h34v338h-34v17h181l67 -228z" />
    <glyph glyph-name="Omega" unicode="&#x2126;" horiz-adv-x="852" 
d="M477 0v105q58 49 71.5 93.5t13.5 185.5t-7 185q-27 117 -116 121q-49 0 -84 -30q-20 -17 -38 -81q-10 -36 -10 -83v-72v-38q0 -148 9 -195t47 -85v-106h-306l-12 264h17q17 -88 56 -117t137 -29h70q-116 52 -172 117.5t-56 169.5q0 140 90 223t249.5 83t245 -78
t85.5 -219q0 -83 -44 -140q-23 -29 -43 -50t-56 -44q-50 -32 -107 -62h82q98 0 137 29t56 117h15l-12 -264h-318z" />
    <glyph glyph-name="partialdiff" unicode="&#x2202;" horiz-adv-x="604" 
d="M162 636q48 35 149 35t174.5 -71.5t73.5 -207.5q0 -155 -77 -274q-38 -58 -101 -93.5t-142 -35.5q-103 0 -157 50.5t-54 145.5t56.5 161t169 66t134.5 -90q18 95 18 139q0 97 -31.5 145t-87.5 48q-33 0 -44.5 -14.5t-11.5 -36t5 -32.5h20q7 -21 7 -44.5t-20.5 -41.5
t-54 -18t-54 23t-20.5 55q0 56 48 91zM303 386q-33 0 -56 -30t-33 -76q-19 -82 -19 -150.5t12.5 -94t44.5 -25.5q48 0 78.5 86.5t30.5 201.5q0 88 -58 88z" />
    <glyph glyph-name="Delta" unicode="&#x2206;" horiz-adv-x="625" 
d="M625 0h-625l283 716h82zM239 529l-192 -484h351z" />
    <glyph glyph-name="product" unicode="&#x220f;" horiz-adv-x="786" 
d="M20 700h746v-18h-79v-813h79v-20h-333v20h59v812h-199v-812h59v-20h-332v20h79v812h-79v19z" />
    <glyph glyph-name="summation" unicode="&#x2211;" horiz-adv-x="679" 
d="M602 -151h-599l-10 18l311 357l-313 462l10 14h574l8 -188h-19q-20 93 -58.5 126t-131.5 33h-169l238 -347l-300 -336h230q113 0 156.5 37t61.5 141h19z" />
    <glyph glyph-name="minus" unicode="&#x2212;" horiz-adv-x="530" 
d="M492 301h-454v33h454v-33z" />
    <glyph glyph-name="uni2215" unicode="&#x2215;" horiz-adv-x="200" 
d="M-82 0l321 700h34l-320 -700h-35z" />
    <glyph glyph-name="uni2219" unicode="&#x2219;" horiz-adv-x="300" 
d="M91.5 260.5q-21.5 25.5 -21.5 62t22.5 61.5t63.5 25t65 -21t24 -63t-22.5 -66t-66 -24t-65 25.5z" />
    <glyph glyph-name="radical" unicode="&#x221a;" horiz-adv-x="547" 
d="M533 744l-168 -744h-90l-179 383l-71 -33l-11 24l237 105l125 -289l127 560z" />
    <glyph glyph-name="infinity" unicode="&#x221e;" horiz-adv-x="685" 
d="M625 249q0 -61 -38 -103.5t-95 -42.5q-86 0 -172 96q-37 -46 -69 -68.5t-79.5 -22.5t-79.5 36.5t-32 96t41.5 100t87.5 40.5t80.5 -16.5t83.5 -62.5q68 75 153 75q52 0 85.5 -33.5t33.5 -94.5zM570.5 203.5q19.5 20.5 19.5 56.5t-22 61t-67 25q-66 0 -128 -65
q68 -66 96.5 -82t55 -16t46 20.5zM114.5 167q23.5 -30 61.5 -30t65.5 20.5t58.5 63.5q-42 39 -75 60.5t-63.5 21.5t-50.5 -20t-20 -53t23.5 -63z" />
    <glyph glyph-name="integral" unicode="&#x222b;" horiz-adv-x="489" 
d="M259 597q0 -66 17.5 -159.5t20.5 -115.5t14 -83q22 -122 22 -193q0 -109 -57.5 -183t-170.5 -74q-58 0 -100.5 28.5t-42.5 73.5t23.5 69.5t64 24.5t59.5 -28t4 -68l-40 -4q-16 -25 -6 -47.5t46 -22.5t54 28t18 86t-6.5 107.5t-18 118.5t-15 90.5t-13.5 75.5
q-20 117 -20 175q0 104 60.5 171.5t171.5 67.5q58 0 102 -29t44 -73.5t-21.5 -68t-60.5 -23.5t-59 27.5t-10 67.5l40 3q8 19 8 37q0 37 -53 37q-75 0 -75 -116z" />
    <glyph glyph-name="approxequal" unicode="&#x2248;" horiz-adv-x="530" 
d="M388 118q-38 0 -125.5 26.5t-117 26.5t-47.5 -13t-37 -42l-26 14q21 36 45.5 54t61 18t123.5 -26.5t121 -26.5q52 0 82 55l26 -14q-37 -72 -106 -72zM388 287q-38 0 -125.5 26.5t-117 26.5t-47.5 -13t-37 -42l-26 14q21 36 45.5 54t61 18t123.5 -26.5t121 -26.5
q52 0 82 55l26 -14q-37 -72 -106 -72z" />
    <glyph glyph-name="notequal" unicode="&#x2260;" horiz-adv-x="530" 
d="M492 190h-287l-110 -130l-21 19l93 111h-129v33h157l104 123h-261v33h289l85 101l24 -19l-70 -82h126v-33h-154l-105 -123h259v-33z" />
    <glyph glyph-name="lessequal" unicode="&#x2264;" horiz-adv-x="530" 
d="M492 0h-454v33h454v-33zM491 86l-452 194v26l452 191v-35l-398 -168l398 -171v-37z" />
    <glyph glyph-name="greaterequal" unicode="&#x2265;" horiz-adv-x="530" 
d="M38 0v33h454v-33h-454zM39 497l452 -194v-26l-452 -191v35l398 170l-398 169v37z" />
    <glyph glyph-name="lozenge" unicode="&#x25ca;" horiz-adv-x="475" 
d="M440 310l-202 -322l-203 322l203 322zM401 309l-164 265l-165 -262l169 -268z" />
    <glyph glyph-name="at.case" horiz-adv-x="879" 
d="M433 527q48 0 87 -37l17 30h109l-32 -182q-12 -72 -12 -109.5t11.5 -56t45.5 -18.5q45 0 84.5 58.5t39.5 156.5q0 146 -85 229.5t-236.5 83.5t-257.5 -102t-106 -274q0 -88 31.5 -154.5t84.5 -104.5q105 -74 245 -74t238 83l16 -18q-44 -41 -112.5 -65t-142.5 -24
t-143.5 21t-125 63t-87.5 111t-32 158q0 175 110.5 288.5t286.5 113.5q153 0 247.5 -86.5t94.5 -241.5q0 -125 -52.5 -188t-152 -63t-127.5 72q-26 -70 -97 -70t-109 44t-38 108q0 121 62 184.5t138 63.5zM481 262l34 214q-29 30 -62 30t-54.5 -31t-31.5 -79
q-18 -86 -18 -167t51 -81q29 0 51 32t30 82z" />
    <glyph glyph-name="f.calt" horiz-adv-x="369" 
d="M260.5 732.5q-9.5 20.5 -39 20.5t-47 -16t-17.5 -44.5t14 -56.5l80 -160h122v-18h-122v-440h108v-18h-349v18h55v440h-58v18h58v47q0 110 45 180t133 70q67 0 101.5 -33t34.5 -76.5t-23 -65t-60.5 -21.5t-58 22t-20.5 56q0 14 1 21l38 6q14 30 4.5 50.5z" />
    <glyph glyph-name="g.calt" horiz-adv-x="509" 
d="M365 449q35 -23 52.5 -51t17.5 -75q0 -83 -55 -127t-149 -44q-36 0 -73 7q-42 -26 -42 -40.5t64 -14.5h92q227 0 227 -163q0 -88 -68.5 -139.5t-213.5 -51.5q-217 0 -217 103q0 54 77 76l60 -27q-8 -29 -8 -47q0 -86 107 -86q72 0 112.5 29t40.5 72t-25.5 57.5
t-101.5 14.5h-87q-81 0 -116 27t-35 67.5t22 67.5t82 63q-116 33 -116 152q0 75 54 121t162 46q67 0 117 -26q-5 21 -5 50q0 56 30 81t67 25t59.5 -19.5t22.5 -53.5t-18 -50.5t-43.5 -16.5t-42 13.5t-17.5 38.5l28 17q6 31 -24 31q-43 0 -43 -66q0 -28 6 -61zM179 341v-54
q0 -67 11.5 -91t35 -24t34 23.5t10.5 96.5v49q0 78 -10 102.5t-33.5 24.5t-35.5 -25.5t-12 -101.5z" />
    <glyph glyph-name="j.calt" horiz-adv-x="311" 
d="M251 476v-441q0 -72 -12 -121t-44 -88q-62 -76 -245 -76l-1 17q55 8 85.5 51.5t30.5 138.5v501h-66v18h252zM74.5 572q-22.5 27 -22.5 67t24.5 66t74.5 26t76 -23.5t26 -67t-25 -69.5t-78 -26t-75.5 27z" />
    <glyph glyph-name="hyphen.case" horiz-adv-x="352" 
d="M50 328v30h252v-30h-252z" />
    <glyph glyph-name="idotaccent" horiz-adv-x="317" 
d="M81.5 572q-22.5 27 -22.5 67t24.5 66t74.5 26t76 -23.5t26 -67t-25 -69.5t-78 -26t-75.5 27zM6 476h245v-458h56v-18h-297v18h55v440h-59v18z" />
    <glyph glyph-name="g_i" horiz-adv-x="823" 
d="M561 604l41 25q4 18 -3.5 30t-21.5 12t-25 -3.5t-31.5 -17.5t-40.5 -36q-49 -54 -91 -167q33 -22 49.5 -50t16.5 -74q0 -83 -55 -127t-149 -44q-39 0 -81 8q-44 -28 -44 -42t64 -14h102q227 0 227 -163q0 -88 -68.5 -139.5t-213.5 -51.5q-247 0 -247 107q0 58 77 80
l60 -27q-8 -29 -8 -55q0 -86 128 -86q78 0 120 29t42 72t-25.5 57.5t-101.5 14.5h-97q-81 0 -116 27t-35 66.5t25 66t89 65.5q-116 33 -116 152q0 75 54 121t162 46q72 0 121 -27q101 274 274 274q50 0 82.5 -29.5t32.5 -77t-29 -73t-69.5 -25.5t-66 20.5t-32.5 55.5z
M199 341v-54q0 -67 11.5 -91t35 -24t34 23.5t10.5 96.5v49q0 78 -10 102.5t-33.5 24.5t-35.5 -25.5t-12 -101.5zM512 476h245v-458h56v-18h-277v18h35v440h-59v18z" />
    <glyph glyph-name="v_i" horiz-adv-x="839" 
d="M0 458v18h299v-18h-63l120 -332q46 166 103 350q48 150 96.5 203.5t121.5 53.5q47 0 77 -27t30 -73.5t-28 -75.5t-68.5 -29t-66.5 20t-33 53l40 30q4 17 -3 27.5t-22 10.5t-29 -13t-38 -62t-54.5 -142t-132.5 -452h-123l-185 458h-41zM528 476h245v-458h56v-18h-297v18
h55v440h-59v18z" />
    <glyph glyph-name="w_i" horiz-adv-x="1141" 
d="M352 458v18h258v-18h-41l90 -337q55 230 81.5 326.5t53.5 152t56.5 83.5t58 39t70.5 11t73 -27t31 -73.5t-28 -75.5t-68.5 -29t-66.5 20t-33 53l40 30q4 17 -3 27.5t-20.5 10.5t-25 -6.5t-28.5 -25.5q-36 -40 -74.5 -173t-115.5 -464h-145l-87 307l-94 -307h-134
l-148 458h-45v18h303v-18h-60l92 -340l72 234l-25 106h-37zM830 476h245v-458h56v-18h-297v18h55v440h-59v18z" />
    </font>
</defs>
</svg>
