<?xml version="1.0" standalone="no"?>
<!DOCTYPE svg PUBLIC "-//W3C//DTD SVG 1.1//EN" "http://www.w3.org/Graphics/SVG/1.1/DTD/svg11.dtd" >
<svg xmlns="http://www.w3.org/2000/svg" xmlns:xlink="http://www.w3.org/1999/xlink" version="1.1">
<metadata>
Created by FontForge 20230101 at Thu Jul 28 09:54:46 2022
 By Glenn Lewis
Copyright 2016 The M+ Project Authors.
</metadata>
<defs>
<font id="MPLUS1p-Medium" horiz-adv-x="1000" vert-adv-y="1000" >
  <font-face 
    font-family="M PLUS 1p Medium"
    font-weight="500"
    font-stretch="normal"
    units-per-em="1000"
    panose-1="2 11 6 2 2 2 3 2 2 7"
    ascent="860"
    descent="-140"
    x-height="520"
    cap-height="730"
    bbox="-120 -345 1412 1075"
    underline-thickness="50"
    underline-position="-150"
    unicode-range="U+0020-27FB7"
  />
<missing-glyph horiz-adv-x="364" 
 />
    <glyph glyph-name="glyph08126" unicode="&#x304b;&#x309a;" 
d="M872 139q-57 172 -144 363l92 39q88 -194 147 -372zM272 610q26 116 41 206l97 -11q-15 -97 -36 -195h76h73.5t54 -5.5t41 -10t26 -22t18 -31.5t8 -50t4.5 -66v-90q0 -189 -45.5 -282t-119.5 -93q-88 0 -207 51l32 91q105 -42 155 -42q14 0 28 17t26 51t19 91.5t7 130.5
v57t-2 41t-3 31t-8 19t-11 13.5t-18.5 5t-24.5 3.5h-33h-117q-71 -291 -189 -567l-92 35q111 261 178 532h-165v90h187zM950 700q0 -58 -41 -99t-99 -41t-99 41t-41 99t41 99t99 41t99 -41t41 -99zM875 700q0 27 -19 46t-46 19t-46 -19t-19 -46t19 -46t46 -19t46 19t19 46z
" />
    <glyph glyph-name="glyph08127" unicode="&#x304d;&#x309a;" 
d="M618 294l2 1q-29 55 -52 112q-225 -7 -479 -7v85q184 0 448 7q-15 47 -28 105q-193 -6 -380 -6v85q179 0 365 6q-8 52 -9 108l101 5q3 -52 11 -110q38 1 114 5q-1 7 -1 20q0 58 41 99t99 41t99 -41t41 -99t-41 -99t-99 -41q-54 0 -94 37l-144 -6q13 -57 30 -106
q166 6 247 10l3 -85q-144 -6 -217 -9q39 -85 95 -168l-95 -63q-128 62 -244 62q-170 0 -170 -92q0 -62 60.5 -92t204.5 -30q113 0 234 19l12 -87q-125 -20 -246 -20q-375 0 -375 210q0 81 72 129.5t208 48.5q99 0 187 -34zM915 710q0 27 -19 46t-46 19t-46 -19t-19 -46
t19 -46t46 -19t46 19t19 46z" />
    <glyph glyph-name="glyph08128" unicode="&#x304f;&#x309a;" 
d="M688 730q-193 -154 -361 -264q-59 -39 -75.5 -54.5t-16.5 -31.5q0 -15 13.5 -28t69.5 -52q173 -119 400 -315l-66 -79q-206 178 -396 311q-95 67 -118 93t-23 70q0 47 25 74t122 92q182 121 365 268zM890 470q0 -62 -44 -106t-106 -44t-106 44t-44 106t44 106t106 44
t106 -44t44 -106zM810 470q0 29 -20.5 49.5t-49.5 20.5t-49.5 -20.5t-20.5 -49.5t20.5 -49.5t49.5 -20.5t49.5 20.5t20.5 49.5z" />
    <glyph glyph-name="glyph08129" unicode="&#x3051;&#x309a;" 
d="M650 585v195h97q38 28 83 28q58 0 99 -41t41 -99q0 -49 -30 -87v-86h-190v-130q0 -142 -24.5 -220t-83.5 -121t-176 -74l-32 90q51 14 81 25t57 29t40 37.5t23 53.5t12.5 75t2.5 105v130h-285v90h285zM210 360q0 -214 48 -399l-103 -12q-50 190 -50 411t50 411l103 -12
q-48 -185 -48 -399zM895 668q0 27 -19 45.5t-46 18.5t-46 -18.5t-19 -45.5t19 -46.5t46 -19.5t46 19.5t19 46.5z" />
    <glyph glyph-name="glyph08130" unicode="&#x3053;&#x309a;" 
d="M265 422l76 -61q-119 -115 -119 -176q0 -59 72 -94.5t201 -35.5q73 0 170.5 13t160.5 32l20 -95q-65 -19 -167.5 -32t-183.5 -13q-176 0 -278 59t-102 156q0 100 150 247zM205 648v92h580v-92h-580zM970 440q0 -62 -44 -106t-106 -44t-106 44t-44 106t44 106t106 44
t106 -44t44 -106zM890 440q0 29 -20.5 49.5t-49.5 20.5t-49.5 -20.5t-20.5 -49.5t20.5 -49.5t49.5 -20.5t49.5 20.5t20.5 49.5z" />
    <glyph glyph-name="glyph08131" unicode="&#x30ab;&#x309a;" 
d="M351 620q4 69 4 170h103q0 -101 -4 -170h279q-33 40 -33 90q0 58 41 99t99 41t99 -41t41 -99t-41 -99t-99 -41v-15q0 -157 -5.5 -259t-16.5 -168.5t-33 -100t-48.5 -45.5t-68.5 -12q-79 0 -199 13l9 97q96 -10 160 -10q38 0 56 26.5t27 119t9 289.5v20h-283
q-20 -213 -86.5 -341t-202.5 -233l-66 73q79 60 126.5 120.5t80 153.5t45.5 227h-244v95h251zM905 710q0 27 -19 46t-46 19t-46 -19t-19 -46t19 -46t46 -19t46 19t19 46z" />
    <glyph glyph-name="glyph08132" unicode="&#x30ad;&#x309a;" 
d="M898 295l4 -95l-343 -12l21 -260l-110 -8l-22 265l-366 -12l-4 95l362 12l-18 224l-300 -11l-4 95l296 11l-14 173l110 8l15 -178l227 8q-42 40 -42 100q0 58 41 99t99 41t99 -41t41 -99q0 -55 -37.5 -95.5t-92.5 -44.5l2 -51l-330 -11l19 -225zM915 710q0 27 -19 46
t-46 19t-46 -19t-19 -46t19 -46t46 -19t46 19t19 46z" />
    <glyph glyph-name="glyph08133" unicode="&#x30af;&#x309a;" 
d="M146 284l-74 65q89 85 144 195.5t69 231.5l102 -7q-7 -60 -17 -104h347q-7 20 -7 45q0 58 41 99t99 41t99 -41t41 -99t-41 -99t-99 -41q-22 0 -42 6q-17 -296 -173.5 -444.5t-489.5 -176.5l-15 95q290 28 420.5 146t146.5 374h-356q-61 -160 -195 -286zM915 710
q0 27 -19 46t-46 19t-46 -19t-19 -46t19 -46t46 -19t46 19t19 46z" />
    <glyph glyph-name="glyph08134" unicode="&#x30b1;&#x309a;" 
d="M915 530h-240q-1 -266 -98 -400t-311 -175l-30 92q178 34 254 142.5t77 340.5h-296q-48 -123 -142 -231l-83 54q150 179 179 428l102 -7q-7 -75 -26 -149h438q-29 39 -29 85q0 58 41 99t99 41t99 -41t41 -99q0 -40 -20.5 -73.5t-54.5 -50.5v-56zM915 710q0 27 -19 46
t-46 19t-46 -19t-19 -46t19 -46t46 -19t46 19t19 46z" />
    <glyph glyph-name="glyph08135" unicode="&#x30b3;&#x309a;" 
d="M990 710q0 -58 -41 -99t-99 -41q-26 0 -50 9v-574h-700v95h595v485h-595v95h613q-3 15 -3 30q0 58 41 99t99 41t99 -41t41 -99zM915 710q0 27 -19 46t-46 19t-46 -19t-19 -46t19 -46t46 -19t46 19t19 46z" />
    <glyph glyph-name="glyph08136" unicode="&#x30bb;&#x309a;" 
d="M508 -30q-143 0 -190.5 46.5t-47.5 191.5v227l-217 -35l-14 97l231 38v235h105v-218l374 61q-39 41 -39 97q0 58 41 99t99 41t99 -41t41 -99q0 -42 -22 -76t-58 -51l6 -43q-33 -94 -101.5 -183t-154.5 -151l-67 76q132 93 205 239l-423 -69v-224q0 -40 1.5 -63.5t8 -44
t15.5 -30t28.5 -16t42 -8t61.5 -1.5q184 0 353 25l5 -95q-194 -25 -382 -25zM915 710q0 27 -19 46t-46 19t-46 -19t-19 -46t19 -46t46 -19t46 19t19 46z" />
    <glyph glyph-name="glyph08137" unicode="&#x30c4;&#x309a;" 
d="M467 721q48 -168 90 -345l-104 -22q-47 193 -90 345zM192 686q38 -126 90 -332l-104 -23q-43 179 -88 333zM982 710q0 -47 -27 -83t-70 -50q-30 -300 -174.5 -441t-452.5 -181l-19 97q139 20 232.5 55.5t159.5 98.5t101 154t48 225q-35 18 -56.5 51.5t-21.5 73.5
q0 58 41 99t99 41t99 -41t41 -99zM908 710q0 27 -19.5 46t-46.5 19t-45.5 -19t-18.5 -46t18.5 -46t45.5 -19t46.5 19t19.5 46z" />
    <glyph glyph-name="glyph08138" unicode="&#x30c8;&#x309a;" 
d="M330 760v-286q271 -65 552 -169l-34 -100q-263 98 -518 161v-426h-110v820h110zM855 630q0 -58 -41 -99t-99 -41t-99 41t-41 99t41 99t99 41t99 -41t41 -99zM780 630q0 27 -19 46t-46 19t-46 -19t-19 -46t19 -46t46 -19t46 19t19 46z" />
    <glyph glyph-name="glyph08139" unicode="&#x31f7;&#x309a;" 
d="M932 592q0 -58 -41 -99t-99 -41q-14 0 -28 3q-19 -230 -147 -349t-374 -142l-18 92q215 21 318 117.5t118 295.5h-504v95h498q-3 14 -3 28q0 58 41 99t99 41t99 -41t41 -99zM858 592q0 27 -19.5 46.5t-46.5 19.5t-45.5 -19.5t-18.5 -46.5t18.5 -45.5t45.5 -18.5
t46.5 18.5t19.5 45.5z" />
    <glyph glyph-name="uniFB00" unicode="ff" horiz-adv-x="818" 
d="M254 420v-420h-102v420h-100v80h100v55q0 185 180 185q52 0 100 -15l-20 -80q-34 15 -70 15q-49 0 -68.5 -23.5t-19.5 -81.5v-55h217v55q0 185 180 185q52 0 100 -15l-20 -80q-35 15 -70 15q-49 0 -68.5 -23.5t-19.5 -81.5v-55h168v-80h-168v-420h-102v420h-217z" />
    <glyph glyph-name="uniFB01" unicode="fi" horiz-adv-x="669" 
d="M486 640v110h106v-110h-106zM254 500h338v-500h-106v420h-232v-420h-102v420h-100v80h100v55q0 185 180 185q52 0 100 -15l-20 -80q-34 15 -70 15q-49 0 -68.5 -23.5t-19.5 -81.5v-55z" />
    <glyph glyph-name="uniFB02" unicode="fl" horiz-adv-x="669" 
d="M486 648q-63 12 -122 12q-61 0 -85.5 -24t-24.5 -81v-55h167v-80h-167v-420h-102v420h-100v80h100v55q0 89 54 137t158 48q125 0 228 -30v-710h-106v648z" />
    <glyph glyph-name="uniFB03" unicode="ffi" horiz-adv-x="973" 
d="M790 640v110h106v-110h-106zM573 500h323v-500h-106v420h-217v-420h-102v420h-217v-420h-102v420h-100v80h100v55q0 185 180 185q52 0 100 -15l-20 -80q-34 15 -70 15q-49 0 -68.5 -23.5t-19.5 -81.5v-55h217v55q0 185 180 185q52 0 100 -15l-20 -80q-35 15 -70 15
q-49 0 -68.5 -23.5t-19.5 -81.5v-55z" />
    <glyph glyph-name="uniFB04" unicode="ffl" horiz-adv-x="973" 
d="M676 660q-57 0 -80 -24t-23 -81v-55h152v-80h-152v-420h-102v420h-217v-420h-102v420h-100v80h100v55q0 185 180 185q52 0 100 -15l-20 -80q-34 15 -70 15q-49 0 -68.5 -23.5t-19.5 -81.5v-55h217v55q0 89 52 137t153 48q121 0 220 -30v-710h-106v648q-59 12 -114 12z
" />
    <glyph glyph-name="glyph08346" unicode="&#xe0100;" 
d="M470 88h-102v692h557v-692h-455zM470 175h352v517h-352v-517zM618 255h-90v360h237v-360h-147zM618 338h57v194h-57v-194zM700 18h248l-6 -90h-247q-186 0 -301 27t-182 87q-54 -80 -121 -131l-59 78q71 59 116 134q-14 24 -30 69q-13 -39 -38 -82l-50 100q36 60 55 132
h73q16 -73 36 -120q27 76 37 163h-163v87q81 99 141 208h-151v90h254v-90q-56 -115 -124 -208h142v-87q-18 -147 -71 -261q59 -59 161 -82.5t280 -23.5z" />
    <glyph glyph-name="glyph08347" unicode="&#xe0100;" 
d="M275 160q37 -54 85 -140h85v140h-170zM724 160h-169v-140h88q47 72 81 140zM507 484q-102 -47 -236 -79h464q-128 32 -228 79zM548 742l60 70q190 -64 344 -152l-60 -80q-156 94 -344 162zM965 450l-27 -85q-87 14 -136 25v-68h-247v-77h353v-85h-163l75 -32
q-32 -62 -60 -108h178v-88h-876v88h182q-36 63 -66 105l76 35h-162v85h353v77h-247v67q-61 -13 -136 -24l-27 83q242 36 373 89q-33 20 -76 53q-52 -55 -100 -88l-60 68q67 44 114 86q-80 -41 -178 -71l-60 75q189 59 317 152l80 -52q-59 -52 -147 -98h90q57 -42 120 -78
q57 32 124 84l83 -56q-47 -39 -107 -75q131 -53 357 -87z" />
    <glyph glyph-name="glyph08348" unicode="&#xe0107;" 
d="M455 430h-137v-60h137v60zM455 502v60h-137v-60h137zM763 372q32 98 35 196h-96v-196h61zM835 225v-193q0 -16 2.5 -19t17.5 -3t18.5 19.5t4.5 128.5l80 -8q-2 -49 -2.5 -75t-4 -55t-5.5 -41.5t-10.5 -26.5t-14 -17.5t-21 -8t-28 -4.5h-37.5q-67 0 -83.5 10.5t-16.5 52.5
v131q-103 -132 -255 -214l-65 76q34 17 74 42h-164v-105h-105v723h104q16 36 23 57h-162v-293q0 -166 -20 -277.5t-67 -214.5l-80 88q37 82 52 187t15 287v313h863v-90h-496q-12 -35 -22 -57h115v-348h-90h-130v-52h235v-83h-235v-53h235v-29q106 90 166 209h-158v90h42v278
h328v-82h-43q-4 -100 -31 -196h84v-90h-116q-10 -24 -27 -57h30z" />
    <glyph glyph-name="glyph08348" unicode="&#xe0105;" 
d="M455 430h-137v-60h137v60zM455 502v60h-137v-60h137zM763 372q32 98 35 196h-96v-196h61zM835 225v-193q0 -16 2.5 -19t17.5 -3t18.5 19.5t4.5 128.5l80 -8q-2 -49 -2.5 -75t-4 -55t-5.5 -41.5t-10.5 -26.5t-14 -17.5t-21 -8t-28 -4.5h-37.5q-67 0 -83.5 10.5t-16.5 52.5
v131q-103 -132 -255 -214l-65 76q34 17 74 42h-164v-105h-105v723h104q16 36 23 57h-162v-293q0 -166 -20 -277.5t-67 -214.5l-80 88q37 82 52 187t15 287v313h863v-90h-496q-12 -35 -22 -57h115v-348h-90h-130v-52h235v-83h-235v-53h235v-29q106 90 166 209h-158v90h42v278
h328v-82h-43q-4 -100 -31 -196h84v-90h-116q-10 -24 -27 -57h30z" />
    <glyph glyph-name="glyph08349" unicode="&#xe0103;" 
d="M828 645v-30h-66v-37h161q-55 34 -95 67zM777 690q-13 12 -37 38h-204q-15 -19 -32 -38h273zM452 438q55 26 73 72h-73v-72zM452 265h380v35h-380v-35zM498 615h-46v26q-40 -35 -87 -63h133v37zM595 615v-37h70v37h-70zM832 458v52h-80v-22q0 -22 6 -26t40 -4h34z
M215 100v568h-65v-568h65zM615 510q-14 -92 -115 -138l-48 48v-55h380v27h-97q-50 0 -65 12t-15 51v55h-40zM535 -75q-70 63 -153 115l43 42h-95v80h435v36h-313h-100v372l-44 72v-632h-158v-60h-98v810h256v-107q96 56 167 139l60 -55v75h255q76 -91 192 -160l-47 -82v-372
h-63v-36h96v-80h-96v-52q0 -78 -17.5 -96.5t-92.5 -18.5q-58 0 -144 5l-3 82q72 -4 113 -4q28 0 32.5 5t4.5 37v42h-283q65 -45 118 -90z" />
    <glyph glyph-name="glyph08349" unicode="&#xe0101;" 
d="M828 645v-30h-66v-37h161q-55 34 -95 67zM777 690q-13 12 -37 38h-204q-15 -19 -32 -38h273zM452 438q55 26 73 72h-73v-72zM452 265h380v35h-380v-35zM498 615h-46v26q-40 -35 -87 -63h133v37zM595 615v-37h70v37h-70zM832 458v52h-80v-22q0 -22 6 -26t40 -4h34z
M215 100v568h-65v-568h65zM615 510q-14 -92 -115 -138l-48 48v-55h380v27h-97q-50 0 -65 12t-15 51v55h-40zM535 -75q-70 63 -153 115l43 42h-95v80h435v36h-313h-100v372l-44 72v-632h-158v-60h-98v810h256v-107q96 56 167 139l60 -55v75h255q76 -91 192 -160l-47 -82v-372
h-63v-36h96v-80h-96v-52q0 -78 -17.5 -96.5t-92.5 -18.5q-58 0 -144 5l-3 82q72 -4 113 -4q28 0 32.5 5t4.5 37v42h-283q65 -45 118 -90z" />
    <glyph glyph-name="glyph08350" unicode="&#xe0103;" 
d="M808 278q40 119 53 312h-104q-10 -28 -26 -62l34 4q16 -161 43 -254zM235 -32q47 72 77 156l81 -23q-30 -94 -78 -169zM518 105l79 30q30 -59 46 -99q68 55 112 126q-44 105 -69 272l-21 -36l-64 54h-125l36 -34q-47 -52 -112 -111q11 -12 26 -31q75 65 154 149l60 -57
q-65 -69 -146 -139l101 4q-16 34 -23 49l73 30q39 -82 73 -167l-73 -32q-2 4 -7.5 17.5t-8.5 21.5l-121 -6v-228h-98v222l-145 -8l-5 86l97 4q-53 62 -107 118l62 62l31 -31q45 40 84 81h-115v53q-45 -73 -92 -127v-468h-105v375q-35 -38 -70 -65l-33 105q75 56 130 115
t106 142l78 -44h309q5 10 13 30h-353v169q-97 -121 -233 -202l-37 90q124 79 215 197l88 -42q-2 -3 -6.5 -9t-6.5 -9h67v-110h46v160h94v-160h46v110h84v-185q49 115 78 248l90 -13q-12 -63 -32 -130h197v-92h-31q-22 -272 -99 -431q44 -84 133 -157l-46 -80
q-85 64 -139 149q-58 -81 -151 -149l-33 61l-41 -15q-24 64 -60 137z" />
    <glyph glyph-name="glyph08350" unicode="&#xe0101;" 
d="M808 278q40 119 53 312h-104q-10 -28 -26 -62l34 4q16 -161 43 -254zM235 -32q47 72 77 156l81 -23q-30 -94 -78 -169zM518 105l79 30q30 -59 46 -99q68 55 112 126q-44 105 -69 272l-21 -36l-64 54h-125l36 -34q-47 -52 -112 -111q11 -12 26 -31q75 65 154 149l60 -57
q-65 -69 -146 -139l101 4q-16 34 -23 49l73 30q39 -82 73 -167l-73 -32q-2 4 -7.5 17.5t-8.5 21.5l-121 -6v-228h-98v222l-145 -8l-5 86l97 4q-53 62 -107 118l62 62l31 -31q45 40 84 81h-115v53q-45 -73 -92 -127v-468h-105v375q-35 -38 -70 -65l-33 105q75 56 130 115
t106 142l78 -44h309q5 10 13 30h-353v169q-97 -121 -233 -202l-37 90q124 79 215 197l88 -42q-2 -3 -6.5 -9t-6.5 -9h67v-110h46v160h94v-160h46v110h84v-185q49 115 78 248l90 -13q-12 -63 -32 -130h197v-92h-31q-22 -272 -99 -431q44 -84 133 -157l-46 -80
q-85 64 -139 149q-58 -81 -151 -149l-33 61l-41 -15q-24 64 -60 137z" />
    <glyph glyph-name="glyph08351" unicode="&#xe0104;" 
d="M337 394l-47 -14q-19 72 -38 135v-254q55 65 85 133zM90 251l-80 15q35 171 50 347l80 -8q-15 -180 -50 -354zM310 662v90h97q1 22 3 68h102q0 -11 -0.5 -34t-1.5 -34h442v-90h-449q-17 -171 -60.5 -282.5t-124.5 -201.5l-66 62v-330h-102v900h102v-201l46 13
q27 -77 57 -183q32 93 45 223h-90zM650 445v180h102v-180q0 -75 13 -137q59 112 85 254l95 -22q-27 -158 -90 -278l-88 39q41 -190 203 -299l-60 -87q-70 42 -125 120t-88 178q-47 -98 -127 -176.5t-178 -121.5l-57 87q315 151 315 443zM532 245l-90 37q57 121 78 270
l92 -22q-20 -160 -80 -285z" />
    <glyph glyph-name="glyph08351" unicode="&#xe0102;" 
d="M337 394l-47 -14q-19 72 -38 135v-254q55 65 85 133zM90 251l-80 15q35 171 50 347l80 -8q-15 -180 -50 -354zM310 662v90h97q1 22 3 68h102q0 -11 -0.5 -34t-1.5 -34h442v-90h-449q-17 -171 -60.5 -282.5t-124.5 -201.5l-66 62v-330h-102v900h102v-201l46 13
q27 -77 57 -183q32 93 45 223h-90zM650 445v180h102v-180q0 -75 13 -137q59 112 85 254l95 -22q-27 -158 -90 -278l-88 39q41 -190 203 -299l-60 -87q-70 42 -125 120t-88 178q-47 -98 -127 -176.5t-178 -121.5l-57 87q315 151 315 443zM532 245l-90 37q57 121 78 270
l92 -22q-20 -160 -80 -285z" />
    <glyph glyph-name="glyph08352" unicode="&#xe0103;" 
d="M155 355v-270h65v270h-65zM155 440h65v242h-65v-242zM693 350q-67 52 -137 95l47 60h-94q-8 -77 -18 -155h202zM719 350h86q10 99 14 155h-191q76 -47 138 -97zM658 108q-61 48 -137 94l47 60h-88q-10 -76 -24 -154h202zM684 108h96q12 96 17 154h-204q76 -47 138 -97z
M332 262v88h57q7 47 17 147q-21 -29 -50 -63l-41 47v-481h-160v-60h-97v830h257v-227q94 119 148 288l99 -20q-9 -31 -21 -63h409v-88h-446q-11 -24 -37 -70h461q-7 -107 -20 -240h62v-88h-71q-5 -58 -17 -154h58v-86h-68q0 -6 -2 -17t-3 -16q-7 -52 -30.5 -70.5
t-81.5 -18.5q-39 0 -105 3l-5 84q34 -2 85 -2q24 0 29.5 5t9.5 32h-328q-2 -12 -7 -35t-7 -33l-102 7q30 146 52 301h-45z" />
    <glyph glyph-name="glyph08352" unicode="&#xe0101;" 
d="M155 355v-270h65v270h-65zM155 440h65v242h-65v-242zM693 350q-67 52 -137 95l47 60h-94q-8 -77 -18 -155h202zM719 350h86q10 99 14 155h-191q76 -47 138 -97zM658 108q-61 48 -137 94l47 60h-88q-10 -76 -24 -154h202zM684 108h96q12 96 17 154h-204q76 -47 138 -97z
M332 262v88h57q7 47 17 147q-21 -29 -50 -63l-41 47v-481h-160v-60h-97v830h257v-227q94 119 148 288l99 -20q-9 -31 -21 -63h409v-88h-446q-11 -24 -37 -70h461q-7 -107 -20 -240h62v-88h-71q-5 -58 -17 -154h58v-86h-68q0 -6 -2 -17t-3 -16q-7 -52 -30.5 -70.5
t-81.5 -18.5q-39 0 -105 3l-5 84q34 -2 85 -2q24 0 29.5 5t9.5 32h-328q-2 -12 -7 -35t-7 -33l-102 7q30 146 52 301h-45z" />
    <glyph glyph-name="glyph08353" unicode="&#xe0103;" 
d="M70 729l61 72q103 -76 166 -135l-62 -75q-74 69 -165 138zM207 356q-85 80 -182 153l61 72q102 -73 183 -150zM297 258q-60 -195 -158 -339l-85 57q94 142 151 311zM465 672q-31 -131 -93 -244l-97 40q73 132 105 292q304 3 550 45l18 -87q-235 -40 -483 -46zM700 465
l-92 -30q-40 120 -80 197l92 30q46 -89 80 -197zM960 135h-270v-107h242v-88h-612v88h260v107h-282v90h282v88q-104 -8 -247 -13l-8 88q320 9 545 51q-44 123 -95 216l93 33q47 -86 97 -226l-51 -16l20 -86q-94 -21 -244 -37v-98h270v-90z" />
    <glyph glyph-name="glyph08353" unicode="&#xe0101;" 
d="M70 729l61 72q103 -76 166 -135l-62 -75q-74 69 -165 138zM207 356q-85 80 -182 153l61 72q102 -73 183 -150zM297 258q-60 -195 -158 -339l-85 57q94 142 151 311zM465 672q-31 -131 -93 -244l-97 40q73 132 105 292q304 3 550 45l18 -87q-235 -40 -483 -46zM700 465
l-92 -30q-40 120 -80 197l92 30q46 -89 80 -197zM960 135h-270v-107h242v-88h-612v88h260v107h-282v90h282v88q-104 -8 -247 -13l-8 88q320 9 545 51q-44 123 -95 216l93 33q47 -86 97 -226l-51 -16l20 -86q-94 -21 -244 -37v-98h270v-90z" />
    <glyph glyph-name="glyph08354" unicode="&#xe0104;" 
d="M817 600q-57 50 -102 105h-214q-42 -54 -98 -105h414zM792 275q-36 33 -77 83h-214q-39 -50 -74 -83h365zM495 20v175h-60v-175h60zM642 20v175h-60v-175h60zM730 20h60v175h-60v-175zM72 729l62 72q85 -61 155 -125l-62 -75q-62 58 -155 128zM205 356q-85 80 -182 153
l61 72q102 -73 183 -150zM258 222q-45 -168 -126 -302l-87 55q71 121 120 283zM770 795q82 -107 208 -190l-58 -83q-42 28 -90 67v-71h-435v75q-44 -40 -90 -71l-57 83q112 73 187 170l65 -60v80h270zM890 20h72v-90h-714v90h87v177q-5 -4 -15 -11.5t-15 -10.5l-57 77
q112 73 187 170l65 -55v75h270q82 -107 208 -190l-58 -77l-30 21v-176z" />
    <glyph glyph-name="glyph08354" unicode="&#xe0101;" 
d="M817 600q-57 50 -102 105h-214q-42 -54 -98 -105h414zM792 275q-36 33 -77 83h-214q-39 -50 -74 -83h365zM495 20v175h-60v-175h60zM642 20v175h-60v-175h60zM730 20h60v175h-60v-175zM72 729l62 72q85 -61 155 -125l-62 -75q-62 58 -155 128zM205 356q-85 80 -182 153
l61 72q102 -73 183 -150zM258 222q-45 -168 -126 -302l-87 55q71 121 120 283zM770 795q82 -107 208 -190l-58 -83q-42 28 -90 67v-71h-435v75q-44 -40 -90 -71l-57 83q112 73 187 170l65 -60v80h270zM890 20h72v-90h-714v90h87v177q-5 -4 -15 -11.5t-15 -10.5l-57 77
q112 73 187 170l65 -55v75h270q82 -107 208 -190l-58 -77l-30 21v-176z" />
    <glyph glyph-name="glyph08355" unicode="&#xe0103;" 
d="M95 302q69 159 103 338l104 -12q-14 -86 -38 -173h394v233h-553v90h810v-90h-150v-233h190v-93h-190v-284q0 -103 -23.5 -126.5t-126.5 -23.5q-64 0 -175 4l-5 90q104 -4 160 -4q46 0 54.5 7.5t8.5 49.5v281q-243 -227 -562 -366l-53 85q277 117 489 287h-298
q-16 -48 -36 -90z" />
    <glyph glyph-name="glyph08355" unicode="&#xe0101;" 
d="M95 302q69 159 103 338l104 -12q-14 -86 -38 -173h394v233h-553v90h810v-90h-150v-233h190v-93h-190v-284q0 -103 -23.5 -126.5t-126.5 -23.5q-64 0 -175 4l-5 90q104 -4 160 -4q46 0 54.5 7.5t8.5 49.5v281q-243 -227 -562 -366l-53 85q277 117 489 287h-298
q-16 -48 -36 -90z" />
    <glyph glyph-name="glyph08356" unicode="&#xe0103;" 
d="M708 460q-3 69 -5 219q-55 -7 -113 -12v-207h118zM70 695v90h340v-90h-340zM210 495h-168v93h396v-93h-130v-585h-98v585zM132 -22l-90 17q40 187 40 430h90q0 -255 -40 -447zM870 52q15 0 32 163l83 -27q-11 -149 -40 -208.5t-77 -59.5q-124 0 -155 448h-123v-302
q44 15 128 49l10 -90q-166 -71 -336 -103l-6 80h-38v423h87v-402q9 2 25.5 6t24.5 6v715q239 14 437 60l20 -90q-81 -18 -142 -27q2 -131 6 -233h146v-92h-141q7 -103 18 -177.5t21.5 -106.5t19.5 -32z" />
    <glyph glyph-name="glyph08356" unicode="&#xe0101;" 
d="M708 460q-3 69 -5 219q-55 -7 -113 -12v-207h118zM70 695v90h340v-90h-340zM210 495h-168v93h396v-93h-130v-585h-98v585zM132 -22l-90 17q40 187 40 430h90q0 -255 -40 -447zM870 52q15 0 32 163l83 -27q-11 -149 -40 -208.5t-77 -59.5q-124 0 -155 448h-123v-302
q44 15 128 49l10 -90q-166 -71 -336 -103l-6 80h-38v423h87v-402q9 2 25.5 6t24.5 6v715q239 14 437 60l20 -90q-81 -18 -142 -27q2 -131 6 -233h146v-92h-141q7 -103 18 -177.5t21.5 -106.5t19.5 -32z" />
    <glyph glyph-name="glyph08357" unicode="&#xe0103;" 
d="M168 110v-72h224v72h-224zM168 188h224v70h-224v-70zM560 688v92h378v-92h-378zM880 238l92 -8q-5 -224 -20 -263t-94 -39q-77 0 -97.5 18.5t-20.5 91.5v387h-50q-1 -204 -34.5 -319t-105.5 -191l-58 40h-324v-40h-103v427h148q2 8 6 23.5t6 22.5h-55v87
q-55 -52 -118 -93l-34 78q84 53 152 124v52q-54 -52 -118 -94l-34 78q65 41 113 85h-96v85h230v-361l60 -7l-27 60q64 42 124 105v49q-56 -54 -117 -94l-35 78q65 41 113 85h-95v85h230v-402h-96v90q-39 -38 -84 -69q-7 -31 -17 -67h171v-347q52 62 74.5 157t23.5 273h-52
v93h420v-93h-116v-367q0 -29 2 -34.5t11 -5.5q17 0 20 27.5t5 192.5z" />
    <glyph glyph-name="glyph08357" unicode="&#xe0101;" 
d="M168 110v-72h224v72h-224zM168 188h224v70h-224v-70zM560 688v92h378v-92h-378zM880 238l92 -8q-5 -224 -20 -263t-94 -39q-77 0 -97.5 18.5t-20.5 91.5v387h-50q-1 -204 -34.5 -319t-105.5 -191l-58 40h-324v-40h-103v427h148q2 8 6 23.5t6 22.5h-55v87
q-55 -52 -118 -93l-34 78q84 53 152 124v52q-54 -52 -118 -94l-34 78q65 41 113 85h-96v85h230v-361l60 -7l-27 60q64 42 124 105v49q-56 -54 -117 -94l-35 78q65 41 113 85h-95v85h230v-402h-96v90q-39 -38 -84 -69q-7 -31 -17 -67h171v-347q52 62 74.5 157t23.5 273h-52
v93h420v-93h-116v-367q0 -29 2 -34.5t11 -5.5q17 0 20 27.5t5 192.5z" />
    <glyph glyph-name="glyph08358" unicode="&#xe0103;" 
d="M152 270h148v75h-148v-75zM152 192h-97v376h120v70h-143v84h143v93h97v-93h128v-84h-128v-70h118v-376h-118v-70h136v-84h-136v-133h-97v133h-143v84h143v70h-23zM848 495v5h-146v82h142q-76 62 -154 150q-78 -88 -154 -150h146v-215q96 56 166 128zM848 265v114
q-54 -48 -128 -94l-38 65v-213q96 56 166 128zM300 420v70h-148v-70h148zM458 55l-46 77q98 56 173 133v114q-56 -50 -127 -94l-46 77q98 56 173 133v5h-115v31q-26 -19 -50 -35l-25 95q136 93 250 219h90q114 -126 250 -219l-25 -95q-2 1 -7 5t-8 5v-476q0 -73 -14.5 -90.5
t-75.5 -17.5q-9 0 -105 6l-2 87q60 -5 80 -5q15 0 17.5 4t2.5 28v107q-54 -48 -128 -94l-38 65v-90q0 -73 -14.5 -90.5t-75.5 -17.5q-8 0 -104 6l-3 87q60 -5 80 -5q15 0 17.5 4t2.5 28v107q-56 -50 -127 -94z" />
    <glyph glyph-name="glyph08358" unicode="&#xe0101;" 
d="M152 270h148v75h-148v-75zM152 192h-97v376h120v70h-143v84h143v93h97v-93h128v-84h-128v-70h118v-376h-118v-70h136v-84h-136v-133h-97v133h-143v84h143v70h-23zM848 495v5h-146v82h142q-76 62 -154 150q-78 -88 -154 -150h146v-215q96 56 166 128zM848 265v114
q-54 -48 -128 -94l-38 65v-213q96 56 166 128zM300 420v70h-148v-70h148zM458 55l-46 77q98 56 173 133v114q-56 -50 -127 -94l-46 77q98 56 173 133v5h-115v31q-26 -19 -50 -35l-25 95q136 93 250 219h90q114 -126 250 -219l-25 -95q-2 1 -7 5t-8 5v-476q0 -73 -14.5 -90.5
t-75.5 -17.5q-9 0 -105 6l-2 87q60 -5 80 -5q15 0 17.5 4t2.5 28v107q-54 -48 -128 -94l-38 65v-90q0 -73 -14.5 -90.5t-75.5 -17.5q-8 0 -104 6l-3 87q60 -5 80 -5q15 0 17.5 4t2.5 28v107q-56 -50 -127 -94z" />
    <glyph glyph-name="glyph08359" unicode="&#xe0103;" 
d="M258 208h510v132h-508v-68q0 -22 -2 -64zM748 742h197v-90h-197v-42h-106v42h-284v-52h-106v52h-197v90h197v78h106v-78h284v78h106v-78zM260 485v-63h615v-352h-107v50h-520q-24 -132 -108 -220l-90 62q56 64 78 139.5t22 213.5v253q455 0 740 40l28 -83
q-272 -40 -658 -40z" />
    <glyph glyph-name="glyph08359" unicode="&#xe0101;" 
d="M258 208h510v132h-508v-68q0 -22 -2 -64zM748 742h197v-90h-197v-42h-106v42h-284v-52h-106v52h-197v90h197v78h106v-78h284v78h106v-78zM260 485v-63h615v-352h-107v50h-520q-24 -132 -108 -220l-90 62q56 64 78 139.5t22 213.5v253q455 0 740 40l28 -83
q-272 -40 -658 -40z" />
    <glyph glyph-name="glyph08360" unicode="&#xe0103;" 
d="M827 428h-331q-55 -109 -131 -186l-90 60q124 126 177 298l106 -15q-7 -27 -24 -73h406v-84q-47 -115 -140 -210l-88 57q71 68 115 153zM55 735h195v90h105v-90h290v90h105v-90h195v-90h-195v-80h-105v80h-290v-80h-105v80h-195v90zM55 422v90h265v-90h-265zM30 62
q144 93 232 188l76 -70q-91 -102 -246 -202zM235 2q142 39 226 121.5t84 178.5v86h110v-86q0 -95 83 -175.5t232 -121.5l-45 -95q-106 32 -190.5 93t-132.5 137q-49 -77 -134 -138.5t-188 -91.5z" />
    <glyph glyph-name="glyph08360" unicode="&#xe0101;" 
d="M827 428h-331q-55 -109 -131 -186l-90 60q124 126 177 298l106 -15q-7 -27 -24 -73h406v-84q-47 -115 -140 -210l-88 57q71 68 115 153zM55 735h195v90h105v-90h290v90h105v-90h195v-90h-195v-80h-105v80h-290v-80h-105v80h-195v90zM55 422v90h265v-90h-265zM30 62
q144 93 232 188l76 -70q-91 -102 -246 -202zM235 2q142 39 226 121.5t84 178.5v86h110v-86q0 -95 83 -175.5t232 -121.5l-45 -95q-106 32 -190.5 93t-132.5 137q-49 -77 -134 -138.5t-188 -91.5z" />
    <glyph glyph-name="glyph08361" unicode="&#xe0103;" 
d="M252 468v-46h496v46h-496zM252 530h496v45h-496v-45zM601 -15h-351v-43h-105v198q-46 -30 -87 -50l-46 90q65 30 131.5 76.5t114.5 93.5h-6h-107v295h125v35h-215v85h215v65h105v-65h250v65h105v-65h215v-85h-215v-35h125v-295h-469q-16 -21 -36 -42h588
q0 -168 -17.5 -254t-52 -116t-100.5 -30q-75 0 -163 4zM305 65l-43 60q108 43 167 105h-161q-27 -22 -57 -45h39v-120h55zM461 144q-57 -46 -133 -79h310q-88 48 -177 79zM375 645h250v35h-250v-35zM730 -5q34 0 52.5 16.5t30 67.5t14.5 151h-290q-10 -16 -15 -23
q103 -38 188 -87l-41 -55h53v-70h8z" />
    <glyph glyph-name="glyph08361" unicode="&#xe0101;" 
d="M252 468v-46h496v46h-496zM252 530h496v45h-496v-45zM601 -15h-351v-43h-105v198q-46 -30 -87 -50l-46 90q65 30 131.5 76.5t114.5 93.5h-6h-107v295h125v35h-215v85h215v65h105v-65h250v65h105v-65h215v-85h-215v-35h125v-295h-469q-16 -21 -36 -42h588
q0 -168 -17.5 -254t-52 -116t-100.5 -30q-75 0 -163 4zM305 65l-43 60q108 43 167 105h-161q-27 -22 -57 -45h39v-120h55zM461 144q-57 -46 -133 -79h310q-88 48 -177 79zM375 645h250v35h-250v-35zM730 -5q34 0 52.5 16.5t30 67.5t14.5 151h-290q-10 -16 -15 -23
q103 -38 188 -87l-41 -55h53v-70h8z" />
    <glyph glyph-name="glyph08363" unicode="&#xe0103;" 
d="M534 458q-29 40 -56 70l55 31q-5 -1 -15.5 -1h-15.5l-7 74q150 8 300 36h-325v-395q65 53 107 109h-89v76h46zM564 458h51v108q-12 -1 -34.5 -3t-33.5 -3q31 -34 61 -78zM751 458l-43 24q30 44 56 104q-5 -1 -64 -9v-119h51zM940 228h-95v32l-47 -52q-44 60 -100 125v-65
h-80v54q-38 -56 -106 -114l-42 50v-30h-95v144q-28 -49 -59 -91q42 -52 48 -60l-53 -81q-30 40 -73 93v-323h-103v327q-42 -48 -92 -86l-28 111q146 118 222 303h-205v95h103v150h103v-150h104v-95q-42 -111 -101 -195q4 -4 11.5 -12.5t11.5 -13.5q39 55 64 108l47 -23v323
h187q24 60 33 88l107 -12q-15 -46 -28 -76h266v-524zM602 245h110v-53h250v-82h-219q67 -85 225 -115l-28 -90q-89 18 -163.5 62t-118.5 101q-50 -57 -135 -101t-188 -62l-27 90q184 30 260 115h-216v82h250v53zM828 458v-76h-85q54 -52 102 -111v397h-37l14 -70
q-5 -1 -16.5 -3.5t-17.5 -3.5l50 -26q-22 -53 -57 -107h47z" />
    <glyph glyph-name="glyph08363" unicode="&#xe0101;" 
d="M534 458q-29 40 -56 70l55 31q-5 -1 -15.5 -1h-15.5l-7 74q150 8 300 36h-325v-395q65 53 107 109h-89v76h46zM564 458h51v108q-12 -1 -34.5 -3t-33.5 -3q31 -34 61 -78zM751 458l-43 24q30 44 56 104q-5 -1 -64 -9v-119h51zM940 228h-95v32l-47 -52q-44 60 -100 125v-65
h-80v54q-38 -56 -106 -114l-42 50v-30h-95v144q-28 -49 -59 -91q42 -52 48 -60l-53 -81q-30 40 -73 93v-323h-103v327q-42 -48 -92 -86l-28 111q146 118 222 303h-205v95h103v150h103v-150h104v-95q-42 -111 -101 -195q4 -4 11.5 -12.5t11.5 -13.5q39 55 64 108l47 -23v323
h187q24 60 33 88l107 -12q-15 -46 -28 -76h266v-524zM602 245h110v-53h250v-82h-219q67 -85 225 -115l-28 -90q-89 18 -163.5 62t-118.5 101q-50 -57 -135 -101t-188 -62l-27 90q184 30 260 115h-216v82h250v53zM828 458v-76h-85q54 -52 102 -111v397h-37l14 -70
q-5 -1 -16.5 -3.5t-17.5 -3.5l50 -26q-22 -53 -57 -107h47z" />
    <glyph glyph-name="glyph08364" unicode="&#xe0103;" 
d="M945 522v-92h-213v-227q0 -79 -17.5 -97t-96.5 -18q-66 0 -153 4l-5 90q80 -4 125 -4q28 0 32.5 6t4.5 41v205h-297v92h297v173h-287v90h585v-90h-188v-173h213zM305 665l-67 -67q-75 65 -180 144l70 66q75 -57 177 -143zM305 450l-67 -68q-93 80 -180 146l70 64
q86 -65 177 -142zM50 330h225v-204q25 -45 62 -66.5t111.5 -31.5t216.5 -10h283l-6 -90h-282q-189 0 -284.5 22.5t-142.5 79.5q-58 -58 -148 -119l-48 88q80 54 135 106v135h-122v90z" />
    <glyph glyph-name="glyph08364" unicode="&#xe0101;" 
d="M945 522v-92h-213v-227q0 -79 -17.5 -97t-96.5 -18q-66 0 -153 4l-5 90q80 -4 125 -4q28 0 32.5 6t4.5 41v205h-297v92h297v173h-287v90h585v-90h-188v-173h213zM305 665l-67 -67q-75 65 -180 144l70 66q75 -57 177 -143zM305 450l-67 -68q-93 80 -180 146l70 64
q86 -65 177 -142zM50 330h225v-204q25 -45 62 -66.5t111.5 -31.5t216.5 -10h283l-6 -90h-282q-189 0 -284.5 22.5t-142.5 79.5q-58 -58 -148 -119l-48 88q80 54 135 106v135h-122v90z" />
    <glyph glyph-name="glyph08365" unicode="&#xe0103;" 
d="M758 95h-96v665h280v-665h-184zM758 185h87v485h-87v-485zM525 568v42h-70q-7 -215 -32.5 -327.5t-82.5 -200.5l-72 80q44 76 63.5 171t25.5 277h-75v57l-60 -65q-101 85 -172 138l68 68q85 -64 164 -131v23h77q1 36 1 115h98q0 -79 -1 -115h165v-80q0 -189 -4 -293.5
t-16.5 -158.5t-27.5 -67t-46 -13q-48 0 -118 10l-5 90q47 -10 73 -10q18 0 27 24t14.5 110t5.5 256zM295 450l-65 -70q-84 73 -180 145l68 67q86 -65 177 -142zM42 330h216v-204q25 -45 62 -66.5t111.5 -31.5t216.5 -10h304l-4 -90h-306q-185 0 -279.5 21.5t-142.5 75.5
q-60 -58 -142 -114l-48 88q74 50 125 96v145h-113v90z" />
    <glyph glyph-name="glyph08365" unicode="&#xe0101;" 
d="M758 95h-96v665h280v-665h-184zM758 185h87v485h-87v-485zM525 568v42h-70q-7 -215 -32.5 -327.5t-82.5 -200.5l-72 80q44 76 63.5 171t25.5 277h-75v57l-60 -65q-101 85 -172 138l68 68q85 -64 164 -131v23h77q1 36 1 115h98q0 -79 -1 -115h165v-80q0 -189 -4 -293.5
t-16.5 -158.5t-27.5 -67t-46 -13q-48 0 -118 10l-5 90q47 -10 73 -10q18 0 27 24t14.5 110t5.5 256zM295 450l-65 -70q-84 73 -180 145l68 67q86 -65 177 -142zM42 330h216v-204q25 -45 62 -66.5t111.5 -31.5t216.5 -10h304l-4 -90h-306q-185 0 -279.5 21.5t-142.5 75.5
q-60 -58 -142 -114l-48 88q74 50 125 96v145h-113v90z" />
    <glyph glyph-name="glyph08366" unicode="&#xe0104;" 
d="M642 613q80 37 139 82h-265q59 -48 126 -82zM741 569q96 -35 227 -64l-26 -80q-182 41 -302 95q-136 -58 -330 -95l-9 21l-63 -64q-93 80 -180 146l70 64q95 -72 168 -134l-21 47q145 26 266 67q-44 26 -98 70q-43 -33 -98 -64l-56 71l-51 -51q-75 65 -180 144l70 66
q87 -65 176 -142q119 69 201 164l103 -20q-5 -7 -14.5 -19t-12.5 -16h329v-80q-71 -71 -169 -126zM50 330h225v-206q34 -59 94 -81.5t211 -26.5v72h-270v82h270v48h-222v72h222v45h-248v80h248v65h110v-65h235v-80h-235v-45h210v-72h-210v-48h252v-82h-252v-73h258l-6 -87
h-282q-189 0 -284.5 22.5t-142.5 79.5q-58 -58 -148 -119l-48 88q80 54 135 106v135h-122v90z" />
    <glyph glyph-name="glyph08366" unicode="&#xe0101;" 
d="M642 613q80 37 139 82h-265q59 -48 126 -82zM741 569q96 -35 227 -64l-26 -80q-182 41 -302 95q-136 -58 -330 -95l-9 21l-63 -64q-93 80 -180 146l70 64q95 -72 168 -134l-21 47q145 26 266 67q-44 26 -98 70q-43 -33 -98 -64l-56 71l-51 -51q-75 65 -180 144l70 66
q87 -65 176 -142q119 69 201 164l103 -20q-5 -7 -14.5 -19t-12.5 -16h329v-80q-71 -71 -169 -126zM50 330h225v-206q34 -59 94 -81.5t211 -26.5v72h-270v82h270v48h-222v72h222v45h-248v80h248v65h110v-65h235v-80h-235v-45h210v-72h-210v-48h252v-82h-252v-73h258l-6 -87
h-282q-189 0 -284.5 22.5t-142.5 79.5q-58 -58 -148 -119l-48 88q80 54 135 106v135h-122v90z" />
    <glyph glyph-name="glyph08367" unicode="&#xe0103;" 
d="M362 268v104h-62v-104h62zM152 268h63v104h-63v-104zM195 645v-60h125v60h-125zM610 570h190v-295h10q11 0 17.5 20t13 104t11.5 249h-224q-11 -33 -29 -78h11zM610 482v-142h90v142h-90zM412 508h-102v-53h140v-270h-88h-52v-65h162v-85h-162v-125h-105v125h-173v85h173
v65h-53h-90v270h143v53h-105v137h-65v85h65v75h95v-75h125v75h92v-75h66v-85h-66v-137zM438 478q42 59 79 157.5t58 206.5l100 -12q-11 -58 -20 -92h300q-6 -282 -18 -397.5t-37 -143.5l82 -22q-4 -52 -7 -82.5t-10 -62t-13.5 -47t-22.5 -31t-30.5 -21t-44.5 -10.5t-58 -5.5
t-77 -0.5q-56 0 -85.5 1t-58 8t-39 15.5t-19.5 30.5t-10.5 46t-1.5 69v336zM610 250v-165v-33t5 -20.5t9 -14t21 -6t31.5 -3.5h49.5h46.5t34 3t26.5 5.5t17.5 13.5t13 20t6.5 32t6 43t3 59q-10 -2 -17 -2q-43 0 -125 6l-3 62h-124z" />
    <glyph glyph-name="glyph08367" unicode="&#xe0101;" 
d="M362 268v104h-62v-104h62zM152 268h63v104h-63v-104zM195 645v-60h125v60h-125zM610 570h190v-295h10q11 0 17.5 20t13 104t11.5 249h-224q-11 -33 -29 -78h11zM610 482v-142h90v142h-90zM412 508h-102v-53h140v-270h-88h-52v-65h162v-85h-162v-125h-105v125h-173v85h173
v65h-53h-90v270h143v53h-105v137h-65v85h65v75h95v-75h125v75h92v-75h66v-85h-66v-137zM438 478q42 59 79 157.5t58 206.5l100 -12q-11 -58 -20 -92h300q-6 -282 -18 -397.5t-37 -143.5l82 -22q-4 -52 -7 -82.5t-10 -62t-13.5 -47t-22.5 -31t-30.5 -21t-44.5 -10.5t-58 -5.5
t-77 -0.5q-56 0 -85.5 1t-58 8t-39 15.5t-19.5 30.5t-10.5 46t-1.5 69v336zM610 250v-165v-33t5 -20.5t9 -14t21 -6t31.5 -3.5h49.5h46.5t34 3t26.5 5.5t17.5 13.5t13 20t6.5 32t6 43t3 59q-10 -2 -17 -2q-43 0 -125 6l-3 62h-124z" />
    <glyph glyph-name="glyph08368" unicode="&#xe0103;" 
d="M608 -40v-50h-100v432h424v-432h-102v50h-222zM391 662q-45 36 -93 83q-24 -29 -78 -83h171zM180 438h170v47h-170v-47zM180 320h170v50h-170v-50zM180 248v-48h285v-78h-285v-50h285v-80h-285v-82h-105v632q-11 -8 -25 -17l-28 102q121 82 216 185h119q80 -71 181 -131
l-37 -101q-36 25 -81 59v-47h-235v38q-29 -26 -89 -72h354v-310h-270zM761 675l91 42q75 -156 130 -310l-92 -41q-16 43 -30 80q-197 -32 -375 -41l-5 93q8 1 23 1.5t23 0.5q61 162 107 326l97 -20q-42 -145 -98 -297q109 10 193 22q-34 83 -64 144zM830 48v204h-222v-205z
" />
    <glyph glyph-name="glyph08368" unicode="&#xe0101;" 
d="M608 -40v-50h-100v432h424v-432h-102v50h-222zM391 662q-45 36 -93 83q-24 -29 -78 -83h171zM180 438h170v47h-170v-47zM180 320h170v50h-170v-50zM180 248v-48h285v-78h-285v-50h285v-80h-285v-82h-105v632q-11 -8 -25 -17l-28 102q121 82 216 185h119q80 -71 181 -131
l-37 -101q-36 25 -81 59v-47h-235v38q-29 -26 -89 -72h354v-310h-270zM761 675l91 42q75 -156 130 -310l-92 -41q-16 43 -30 80q-197 -32 -375 -41l-5 93q8 1 23 1.5t23 0.5q61 162 107 326l97 -20q-42 -145 -98 -297q109 10 193 22q-34 83 -64 144zM830 48v204h-222v-205z
" />
    <glyph glyph-name="glyph08369" unicode="&#xe0105;" 
d="M389 662q-43 35 -91 83q-24 -29 -78 -83h169zM185 438h187v47h-187v-47zM185 320h187v50h-187v-50zM642 358h180v130h-180v-130zM822 161v117h-180v-144q88 12 180 27zM822 690h-180v-122h180v122zM501 25l-9 90q9 1 25.5 3t24.5 3v569h-22l-36 -100q-58 42 -64 47v-45
h-235v38q-29 -26 -89 -72h379v-310h-290v-48h290v-78h-290v-50h290v-80h-290v-82h-105v636l-30 -21l-28 102q121 82 216 185h119q64 -58 133 -102v70h485v-90h-47v-511q7 1 22.5 3.5t23.5 4.5l2 -89l-48 -9v-181h-106v162q-161 -26 -321 -45z" />
    <glyph glyph-name="glyph08369" unicode="&#xe0103;" 
d="M389 662q-43 35 -91 83q-24 -29 -78 -83h169zM185 438h187v47h-187v-47zM185 320h187v50h-187v-50zM642 358h180v130h-180v-130zM822 161v117h-180v-144q88 12 180 27zM822 690h-180v-122h180v122zM501 25l-9 90q9 1 25.5 3t24.5 3v569h-22l-36 -100q-58 42 -64 47v-45
h-235v38q-29 -26 -89 -72h379v-310h-290v-48h290v-78h-290v-50h290v-80h-290v-82h-105v636l-30 -21l-28 102q121 82 216 185h119q64 -58 133 -102v70h485v-90h-47v-511q7 1 22.5 3.5t23.5 4.5l2 -89l-48 -9v-181h-106v162q-161 -26 -321 -45z" />
    <glyph glyph-name="glyph08370" unicode="&#xe0103;" 
d="M197 610q12 21 39 80h-55q-11 -34 -29 -80h45zM250 438h35v87h-35v-87zM250 360v-92h35v92h-35zM175 525h-35v-87h35v87zM140 268h35v92h-35v-92zM140 185h-85v317l-40 28q71 137 117 315l88 -13q-4 -19 -14 -57h122v-85q-7 -18 -36 -80h73v-425h-225zM18 -78
q34 116 47 238l70 -12q-11 -126 -45 -246zM155 -82q-3 114 -13 227l66 10q10 -105 14 -230zM248 -55q-6 91 -23 205l63 10q15 -101 22 -208zM335 -28q-12 95 -33 186l60 10q23 -103 33 -188zM650 780v-262h-152q-1 -5 -15 -88h175q-4 -125 -8 -206t-9.5 -140.5t-11 -89.5
t-16 -47.5t-20.5 -21t-28 -3.5q-47 0 -125 8l-2 90q48 -8 74 -8q8 0 12.5 5.5t9 28.5t8.5 68q-61 -49 -130 -84l-20 85q84 40 157 100q0 9 1.5 35t2.5 42q-72 -62 -155 -104l-20 84q59 28 124 76h-34h-53h-43q22 118 38 250h138v92h-160v90h262zM950 780v-262h-155
q-5 -34 -14 -88h177q-4 -125 -8 -206t-10 -140.5t-11.5 -89.5t-16.5 -47.5t-21 -21t-29 -3.5q-40 0 -132 8l-2 90q59 -8 82 -8q8 0 12.5 5.5t9 28t8.5 66.5q-74 -59 -165 -104l-20 84q101 46 191 120q0 9 1.5 34.5t2.5 41.5q-78 -63 -170 -108l-20 85q70 32 143 83h-38h-55
h-45q19 103 37 250h146v92h-168v90h270z" />
    <glyph glyph-name="glyph08370" unicode="&#xe0101;" 
d="M197 610q12 21 39 80h-55q-11 -34 -29 -80h45zM250 438h35v87h-35v-87zM250 360v-92h35v92h-35zM175 525h-35v-87h35v87zM140 268h35v92h-35v-92zM140 185h-85v317l-40 28q71 137 117 315l88 -13q-4 -19 -14 -57h122v-85q-7 -18 -36 -80h73v-425h-225zM18 -78
q34 116 47 238l70 -12q-11 -126 -45 -246zM155 -82q-3 114 -13 227l66 10q10 -105 14 -230zM248 -55q-6 91 -23 205l63 10q15 -101 22 -208zM335 -28q-12 95 -33 186l60 10q23 -103 33 -188zM650 780v-262h-152q-1 -5 -15 -88h175q-4 -125 -8 -206t-9.5 -140.5t-11 -89.5
t-16 -47.5t-20.5 -21t-28 -3.5q-47 0 -125 8l-2 90q48 -8 74 -8q8 0 12.5 5.5t9 28.5t8.5 68q-61 -49 -130 -84l-20 85q84 40 157 100q0 9 1.5 35t2.5 42q-72 -62 -155 -104l-20 84q59 28 124 76h-34h-53h-43q22 118 38 250h138v92h-160v90h262zM950 780v-262h-155
q-5 -34 -14 -88h177q-4 -125 -8 -206t-10 -140.5t-11.5 -89.5t-16.5 -47.5t-21 -21t-29 -3.5q-40 0 -132 8l-2 90q59 -8 82 -8q8 0 12.5 5.5t9 28t8.5 66.5q-74 -59 -165 -104l-20 84q101 46 191 120q0 9 1.5 34.5t2.5 41.5q-78 -63 -170 -108l-20 85q70 32 143 83h-38h-55
h-45q19 103 37 250h146v92h-168v90h270z" />
    <glyph glyph-name="glyph08371" unicode="&#xe0100;" 
d="M546 409q-80 91 -182 185l72 67q102 -91 183 -183zM90 680v95h780v-95q-92 -288 -286 -474q150 -113 378 -189l-39 -95q-249 84 -417 217q-167 -130 -412 -214l-35 95q214 74 366 190q-117 116 -191 271q-28 -89 -76 -161l-80 58q79 116 107 244l95 1q79 -211 223 -348
q173 161 255 405h-668z" />
    <glyph glyph-name="glyph08372" unicode="&#xe0100;" 
d="M690 480h140v70h-140v-70zM452 480h136v70h-136v-70zM452 330h130q2 24 4 75h-134v-75zM438 250q41 -62 94 -105q25 39 39 105h-119h-14zM320 780h640v-85h-270v-65h240v-440h-100v60h-156q-16 -98 -57 -161q129 -65 348 -74l-13 -93q-239 9 -397 98q-79 -64 -247 -98
l-30 90q129 30 188 68q-48 39 -84 80q-33 -31 -64 -52l-43 90q48 27 80 54v51l-67 -52q-16 42 -43 113v-454h-100v359q-32 -94 -70 -158l-62 99q94 163 132 345h-110v90h110v165h100v-165h85v-90h-76q98 -229 101 -237v312h233v65h-268v85zM830 330v75h-141q-2 -50 -4 -75
h145z" />
    <glyph glyph-name="glyph08373" unicode="&#xe0100;" 
d="M850 618v60h-60v-60h60zM850 532h-60v-64h60v64zM138 612h159q-44 50 -85 118q-39 -72 -74 -118zM413 128q-18 40 -28 77q-4 -37 -10 -63l-33 21q-1 -5 -3.5 -16t-3.5 -17l-70 18q16 74 30 164l54 -11q1 7 4 20.5t5 20.5h70q12 -71 19 -97q12 58 17 140h-109v87
q55 98 97 206h-91q8 -7 24 -23l-43 -70v-57h-82v-98h82v-88h-82v-274q66 20 100 32l4 -68q27 43 49 96zM468 34q-31 -72 -70 -122l-83 53q11 13 31 41q-147 -53 -298 -78l-13 90q80 13 125 24v300h-115v88h115v98h-65v33q-25 -29 -47 -49l-26 106q84 81 143 184h90
q47 -67 95 -114v82h192v-92q-36 -117 -83 -206h91v-84v-3q-12 -146 -49 -265q59 -83 187 -98v70h-150v86h150v64h-128v83h128v63h-118v80h118v64h-158v86h158v60h-123v82h123v55h102v-55h155v-142h35v-86h-35v-144h-155v-63h160v-83h-160v-64h170v-86h-170v-74h175l-3 -90
h-190q-111 0 -183.5 24.5t-120.5 81.5zM118 302q13 -62 34 -190l-72 -20q-17 104 -35 190z" />
    <glyph glyph-name="glyph08374" unicode="&#xe0100;" 
d="M225 610q18 29 44 80h-67q-16 -43 -33 -80h56zM285 438h53v87h-53v-87zM285 360v-92h53v92h-53zM205 525h-53v-87h53v87zM152 268h53v92h-53v-92zM18 -78q37 112 52 238l78 -12q-11 -127 -48 -246zM172 -82q-3 116 -17 227l73 10q15 -109 20 -227zM282 -55q-9 97 -30 205
l70 10q20 -95 30 -205zM636 830h108v-112h218v-90h-542v90h216v112zM652 572q-66 -140 -200 -254l-32 48v-181h-268h-90v311l-47 29q91 149 133 320l94 -13q-8 -38 -13 -57h136v-85q-13 -30 -40 -80h95v-188q94 94 148 198zM721 560l74 60q103 -106 180 -218l-67 -74
q-3 4 -32 44q-44 -139 -109 -228q68 -75 211 -139l-36 -90q-150 62 -236 157q-94 -92 -261 -157l-29 60l-28 -5q-12 85 -40 185l64 13q19 -67 34 -148q129 57 200 132q-28 46 -56 116q-28 -62 -70 -110l-70 62q75 85 110 180h82q26 -98 64 -169q42 68 76 177l88 -28
q-69 94 -149 180z" />
    <glyph glyph-name="glyph08375" unicode="&#xe0103;" 
d="M561 478h132q-21 53 -31 87h-62q-18 -45 -39 -87zM777 318q-30 46 -44 72h-221q-20 -30 -52 -72h317zM260 390v88h192q25 47 42 87h-114v46q-43 -47 -82 -76l-47 47q-2 -7 -6.5 -19.5t-8 -22.5t-6.5 -18v-282q90 52 165 150h-135zM818 120l104 -5q-2 -35 -3 -53.5
t-5.5 -42.5t-7 -35t-12.5 -25.5t-17.5 -19.5t-26.5 -12t-34 -8.5t-46.5 -4t-58 -2.5h-73.5q-75 0 -118 1t-79 5.5t-51 9.5t-26 19t-12.5 27.5t-1.5 40.5v187q-42 -36 -82 -60l-38 84v-316h-102v454q-36 -61 -66 -97l-54 98q141 185 192 449l102 -15q-15 -90 -36 -167
q92 81 142 178l87 -38q-32 -62 -79 -120h108q25 84 34 170l104 -4q-9 -85 -32 -166h185q-54 67 -103 116l83 47q99 -105 177 -225l-72 -55q-17 27 -55 79v-49h-81q12 -39 34 -87h172v-88h-125q58 -90 137 -150l-52 -82q-60 43 -107 98q-6 -83 -19 -122t-32.5 -50.5
t-59.5 -11.5q-44 0 -167 8l-5 85q81 -7 130 -7q26 0 34 12.5t14 64.5h-266v-203q0 -25 23 -29.5t159 -4.5h16h69.5t44 5.5t30 9.5t13.5 22t8.5 33t2.5 52z" />
    <glyph glyph-name="glyph08375" unicode="&#xe0101;" 
d="M561 478h132q-21 53 -31 87h-62q-18 -45 -39 -87zM777 318q-30 46 -44 72h-221q-20 -30 -52 -72h317zM260 390v88h192q25 47 42 87h-114v46q-43 -47 -82 -76l-47 47q-2 -7 -6.5 -19.5t-8 -22.5t-6.5 -18v-282q90 52 165 150h-135zM818 120l104 -5q-2 -35 -3 -53.5
t-5.5 -42.5t-7 -35t-12.5 -25.5t-17.5 -19.5t-26.5 -12t-34 -8.5t-46.5 -4t-58 -2.5h-73.5q-75 0 -118 1t-79 5.5t-51 9.5t-26 19t-12.5 27.5t-1.5 40.5v187q-42 -36 -82 -60l-38 84v-316h-102v454q-36 -61 -66 -97l-54 98q141 185 192 449l102 -15q-15 -90 -36 -167
q92 81 142 178l87 -38q-32 -62 -79 -120h108q25 84 34 170l104 -4q-9 -85 -32 -166h185q-54 67 -103 116l83 47q99 -105 177 -225l-72 -55q-17 27 -55 79v-49h-81q12 -39 34 -87h172v-88h-125q58 -90 137 -150l-52 -82q-60 43 -107 98q-6 -83 -19 -122t-32.5 -50.5
t-59.5 -11.5q-44 0 -167 8l-5 85q81 -7 130 -7q26 0 34 12.5t14 64.5h-266v-203q0 -25 23 -29.5t159 -4.5h16h69.5t44 5.5t30 9.5t13.5 22t8.5 33t2.5 52z" />
    <glyph glyph-name="glyph08376" unicode="&#xe0103;" 
d="M222 541v-631h-102v438q-31 -53 -69 -100l-43 120q134 186 185 446l99 -18q-24 -139 -70 -255zM405 375h160v67h-160v-67zM492 670v-48h260v48h-260zM835 375v67h-160v-67h160zM675 28h293v-88h-693v88h290v42h-253v75h253v40h-273v80h273v37h-160h-100v213h260v35h-175
v120h-98v85h98v63h102v-63h260v63h103v-63h105v-85h-105v-120h-180v-35h260v-213h-100h-160v-37h265v-80h-265v-40h245v-75h-245v-42z" />
    <glyph glyph-name="glyph08376" unicode="&#xe0101;" 
d="M222 541v-631h-102v438q-31 -53 -69 -100l-43 120q134 186 185 446l99 -18q-24 -139 -70 -255zM405 375h160v67h-160v-67zM492 670v-48h260v48h-260zM835 375v67h-160v-67h160zM675 28h293v-88h-693v88h290v42h-253v75h253v40h-273v80h273v37h-160h-100v213h260v35h-175
v120h-98v85h98v63h102v-63h260v63h103v-63h105v-85h-105v-120h-180v-35h260v-213h-100h-160v-37h265v-80h-265v-40h245v-75h-245v-42z" />
    <glyph glyph-name="glyph08377" unicode="&#xe0104;" 
d="M462 588h98v90h-98v-90zM462 415h98v95h-98v-95zM462 335v-73h196v-87h-196v-77h196v-88h-196v-100h-100v850h85q18 46 28 82l103 -12q-8 -29 -23 -70h100v-425h-193zM228 405v240h97v-253q0 -151 -24.5 -245t-76 -150.5t-144.5 -98.5l-60 84q77 32 119.5 71t62.5 103
q-83 -42 -167 -71l-25 93q34 12 52 18v539q123 22 258 75l30 -88q-93 -36 -192 -60v-428q51 23 64 30q6 60 6 141zM878 35q-34 0 -60 3l-16 94q15 -2 43 -2q17 0 20 7t3 45v508h-78v-780h-95v870h267v-620q0 -85 -13.5 -105t-70.5 -20z" />
    <glyph glyph-name="glyph08377" unicode="&#xe0102;" 
d="M462 588h98v90h-98v-90zM462 415h98v95h-98v-95zM462 335v-73h196v-87h-196v-77h196v-88h-196v-100h-100v850h85q18 46 28 82l103 -12q-8 -29 -23 -70h100v-425h-193zM228 405v240h97v-253q0 -151 -24.5 -245t-76 -150.5t-144.5 -98.5l-60 84q77 32 119.5 71t62.5 103
q-83 -42 -167 -71l-25 93q34 12 52 18v539q123 22 258 75l30 -88q-93 -36 -192 -60v-428q51 23 64 30q6 60 6 141zM878 35q-34 0 -60 3l-16 94q15 -2 43 -2q17 0 20 7t3 45v508h-78v-780h-95v870h267v-620q0 -85 -13.5 -105t-70.5 -20z" />
    <glyph glyph-name="glyph08378" unicode="&#xe0103;" 
d="M160 130h85v538h-85v-538zM778 647v-35h-256v35q-54 -39 -104 -69h464q-50 30 -104 69zM731 682q-45 35 -81 70q-36 -35 -81 -70h162zM510 362v-72h285v72h-285zM510 435h285v67h-285v-67zM768 126q53 44 93 86h-163q28 -45 70 -86zM838 70q59 -41 140 -70l-40 -82
q-109 34 -199 112t-140 182h-89v-177q70 13 165 35l13 -85q-189 -47 -363 -65l-10 88q60 6 90 10v552q-26 -16 -63 -35v-495h-182v-60h-102v780h284v-121q145 82 256 181h104q121 -108 280 -195l-20 -93q-13 7 -60 34v-331l58 -45q-59 -69 -122 -120z" />
    <glyph glyph-name="glyph08378" unicode="&#xe0101;" 
d="M160 130h85v538h-85v-538zM778 647v-35h-256v35q-54 -39 -104 -69h464q-50 30 -104 69zM731 682q-45 35 -81 70q-36 -35 -81 -70h162zM510 362v-72h285v72h-285zM510 435h285v67h-285v-67zM768 126q53 44 93 86h-163q28 -45 70 -86zM838 70q59 -41 140 -70l-40 -82
q-109 34 -199 112t-140 182h-89v-177q70 13 165 35l13 -85q-189 -47 -363 -65l-10 88q60 6 90 10v552q-26 -16 -63 -35v-495h-182v-60h-102v780h284v-121q145 82 256 181h104q121 -108 280 -195l-20 -93q-13 7 -60 34v-331l58 -45q-59 -69 -122 -120z" />
    <glyph glyph-name="glyph08379" unicode="&#xe0103;" 
d="M218 652h592v56h-592v-56zM362 192v-57h436v57h-436zM362 265h436v53h-436v-53zM339 398h183v180h-304v-161q95 61 164 153l73 -55q-44 -60 -116 -117zM918 790v-212h-290v-180h213q-63 53 -143 104l62 68q112 -74 210 -170l-68 -58v-317q0 -28 -0.5 -43t-5.5 -29
t-11.5 -19.5t-22.5 -10t-33.5 -5t-50.5 -0.5q-65 0 -136 4l-2 83q88 -5 128 -5q22 0 26 4.5t4 32.5v25h-436v-147h-104v427l-41 48q-5 -283 -109 -470l-80 85q84 180 84 473v312h806z" />
    <glyph glyph-name="glyph08379" unicode="&#xe0101;" 
d="M218 652h592v56h-592v-56zM362 192v-57h436v57h-436zM362 265h436v53h-436v-53zM339 398h183v180h-304v-161q95 61 164 153l73 -55q-44 -60 -116 -117zM918 790v-212h-290v-180h213q-63 53 -143 104l62 68q112 -74 210 -170l-68 -58v-317q0 -28 -0.5 -43t-5.5 -29
t-11.5 -19.5t-22.5 -10t-33.5 -5t-50.5 -0.5q-65 0 -136 4l-2 83q88 -5 128 -5q22 0 26 4.5t4 32.5v25h-436v-147h-104v427l-41 48q-5 -283 -109 -470l-80 85q84 180 84 473v312h806z" />
    <glyph glyph-name="glyph08380" unicode="&#xe0103;" 
d="M679 372q-38 47 -60 80h-237q-31 -47 -58 -80h355zM310 290v-98h330v98h-330zM380 540h240v100h-240v-100zM310 110v-55q0 -35 7.5 -42t52.5 -8q80 -3 150 -3q68 0 165 3q66 2 79 18t24 108l104 -7q-6 -53 -10 -80.5t-14.5 -53.5t-20.5 -36t-35.5 -19t-51 -10.5
t-75.5 -3.5q-91 -3 -180 -3q-75 0 -158 3q-43 2 -66 4.5t-40.5 7.5t-24 17.5t-9 27.5t-2.5 44v223q-57 -53 -120 -96l-58 88q138 85 240 215h-207v88h212v100h-177v82h177v93h108v-93h240v93h108v-93h177v-82h-177v-100h212v-88h-205q101 -127 238 -210l-58 -88
q-92 63 -170 144v-188h-435z" />
    <glyph glyph-name="glyph08380" unicode="&#xe0101;" 
d="M679 372q-38 47 -60 80h-237q-31 -47 -58 -80h355zM310 290v-98h330v98h-330zM380 540h240v100h-240v-100zM310 110v-55q0 -35 7.5 -42t52.5 -8q80 -3 150 -3q68 0 165 3q66 2 79 18t24 108l104 -7q-6 -53 -10 -80.5t-14.5 -53.5t-20.5 -36t-35.5 -19t-51 -10.5
t-75.5 -3.5q-91 -3 -180 -3q-75 0 -158 3q-43 2 -66 4.5t-40.5 7.5t-24 17.5t-9 27.5t-2.5 44v223q-57 -53 -120 -96l-58 88q138 85 240 215h-207v88h212v100h-177v82h177v93h108v-93h240v93h108v-93h177v-82h-177v-100h212v-88h-205q101 -127 238 -210l-58 -88
q-92 63 -170 144v-188h-435z" />
    <glyph glyph-name="glyph08381" unicode="&#xe0103;" 
d="M576 478h123q-17 42 -30 87h-56q-18 -49 -37 -87zM781 318q-26 39 -42 72h-211q-18 -30 -49 -72h302zM228 372q38 16 52 23v83h188q19 36 39 87h-105v48q-41 -46 -80 -78l-37 53v-50h-57v-166zM825 120l105 -5q-2 -44 -3.5 -66t-8.5 -48.5t-12 -37t-22.5 -23.5t-32 -16
t-49.5 -7.5t-65.5 -4.5h-88.5q-72 0 -114 1t-77 5.5t-50 10t-25.5 19t-12 27t-1.5 40.5v181q-32 -28 -73 -54l-43 96q93 57 162 152h-123l11 -85q-46 -23 -74 -34v-211q0 -98 -17.5 -121.5t-88.5 -23.5q-17 0 -82 5l-5 87q62 -5 73 -5q13 0 15 7t2 46v181q-43 -12 -87 -21
l-10 95q43 9 97 26v202h-95v90h95v182h103v-182h57q87 80 137 182l88 -38q-29 -60 -75 -120h101q23 82 32 170l104 -4q-10 -91 -31 -166h179q-52 68 -98 116l83 47q91 -102 167 -225l-72 -55q-21 35 -55 83v-53h-73q12 -41 32 -87h166v-88h-120q59 -93 132 -150l-52 -82
q-54 39 -102 96q-6 -82 -18.5 -120.5t-30 -50t-54.5 -11.5q-44 0 -167 8l-6 85q81 -7 130 -7q20 0 27 12.5t13 64.5h-252v-203q0 -26 22 -30t153 -4h5h5h5h68t43 5.5t29.5 9.5t13.5 22t8.5 33t2.5 52z" />
    <glyph glyph-name="glyph08381" unicode="&#xe0101;" 
d="M576 478h123q-17 42 -30 87h-56q-18 -49 -37 -87zM781 318q-26 39 -42 72h-211q-18 -30 -49 -72h302zM228 372q38 16 52 23v83h188q19 36 39 87h-105v48q-41 -46 -80 -78l-37 53v-50h-57v-166zM825 120l105 -5q-2 -44 -3.5 -66t-8.5 -48.5t-12 -37t-22.5 -23.5t-32 -16
t-49.5 -7.5t-65.5 -4.5h-88.5q-72 0 -114 1t-77 5.5t-50 10t-25.5 19t-12 27t-1.5 40.5v181q-32 -28 -73 -54l-43 96q93 57 162 152h-123l11 -85q-46 -23 -74 -34v-211q0 -98 -17.5 -121.5t-88.5 -23.5q-17 0 -82 5l-5 87q62 -5 73 -5q13 0 15 7t2 46v181q-43 -12 -87 -21
l-10 95q43 9 97 26v202h-95v90h95v182h103v-182h57q87 80 137 182l88 -38q-29 -60 -75 -120h101q23 82 32 170l104 -4q-10 -91 -31 -166h179q-52 68 -98 116l83 47q91 -102 167 -225l-72 -55q-21 35 -55 83v-53h-73q12 -41 32 -87h166v-88h-120q59 -93 132 -150l-52 -82
q-54 39 -102 96q-6 -82 -18.5 -120.5t-30 -50t-54.5 -11.5q-44 0 -167 8l-6 85q81 -7 130 -7q20 0 27 12.5t13 64.5h-252v-203q0 -26 22 -30t153 -4h5h5h5h68t43 5.5t29.5 9.5t13.5 22t8.5 33t2.5 52z" />
    <glyph glyph-name="glyph08382" unicode="&#xe0103;" 
d="M760 468v137h-35v-137h35zM760 380h-35v-145h35v145zM848 468h34v137h-34v-137zM848 380v-145h34v145h-34zM852 695h118v-607h-88v60h-30v-238h-97v238h-30v-60h-87v607h87h30v115h97v-115zM312 695v90h286v-90h-286zM355 -24l-77 18q24 123 33 286l-31 -38
q-21 53 -50 122v-454h-98v356q-26 -95 -62 -163l-55 99q82 157 116 346h-101v90h102v172h98v-172h70v-50h312v-93h-104v-585h-90v585h-123v53h-61q6 -13 81 -170v47h77q0 -258 -37 -449zM535 2v423h77v-423h-77z" />
    <glyph glyph-name="glyph08382" unicode="&#xe0101;" 
d="M760 468v137h-35v-137h35zM760 380h-35v-145h35v145zM848 468h34v137h-34v-137zM848 380v-145h34v145h-34zM852 695h118v-607h-88v60h-30v-238h-97v238h-30v-60h-87v607h87h30v115h97v-115zM312 695v90h286v-90h-286zM355 -24l-77 18q24 123 33 286l-31 -38
q-21 53 -50 122v-454h-98v356q-26 -95 -62 -163l-55 99q82 157 116 346h-101v90h102v172h98v-172h70v-50h312v-93h-104v-585h-90v585h-123v53h-61q6 -13 81 -170v47h77q0 -258 -37 -449zM535 2v423h77v-423h-77z" />
    <glyph glyph-name="glyph08384" unicode="&#xe0103;" 
d="M527 495h176q36 93 56 193h-222q-2 -109 -10 -193zM702 173q100 99 153 235h-312q52 -135 159 -235zM87 728l61 74q104 -67 190 -136l-61 -75q-83 67 -190 137zM242 356q-81 70 -200 152l61 74q108 -72 200 -151zM307 241q-59 -183 -153 -322l-83 57q90 134 149 308z
M340 688v92h520v-92q-18 -100 -53 -193h145v-87q-58 -171 -177 -294q92 -65 210 -115l-47 -86q-139 59 -236 134q-97 -79 -233 -134l-55 78q121 48 215 119q-78 76 -133 182q-47 -212 -165 -378l-77 64q96 133 139.5 298t46.5 412h-100z" />
    <glyph glyph-name="glyph08384" unicode="&#xe0101;" 
d="M527 495h176q36 93 56 193h-222q-2 -109 -10 -193zM702 173q100 99 153 235h-312q52 -135 159 -235zM87 728l61 74q104 -67 190 -136l-61 -75q-83 67 -190 137zM242 356q-81 70 -200 152l61 74q108 -72 200 -151zM307 241q-59 -183 -153 -322l-83 57q90 134 149 308z
M340 688v92h520v-92q-18 -100 -53 -193h145v-87q-58 -171 -177 -294q92 -65 210 -115l-47 -86q-139 59 -236 134q-97 -79 -233 -134l-55 78q121 48 215 119q-78 76 -133 182q-47 -212 -165 -378l-77 64q96 133 139.5 298t46.5 412h-100z" />
    <glyph glyph-name="glyph08385" unicode="&#xe0101;" 
d="M613 517q-201 -113 -539 -172l-25 87q245 42 389 97.5t237 140.5h-322q-102 -94 -225 -157l-68 74q198 100 306 243l106 -20q-23 -35 -40 -55h380v-85q-56 -58 -119 -102q87 -82 266 -158l-28 -87q-200 76 -318 194zM445 428h110v-128q0 -104 93.5 -175.5t297.5 -112.5
l-39 -94q-136 26 -242 87.5t-161 143.5q-56 -82 -164.5 -144t-246.5 -87l-39 94q205 42 298 113.5t93 174.5v128zM114 161q74 84 111 188l93 -36q-37 -107 -117 -200zM753 105l-86 52q89 86 134 183l91 -41q-49 -107 -139 -194z" />
    <glyph glyph-name="glyph08387" unicode="&#xe0105;" 
d="M772 197l-72 -39q-30 94 -62 177q-12 -133 -35 -285q93 24 169 54v93zM772 232v246h-122q-1 -15 -3.5 -43.5t-3.5 -41.5l57 32q34 -78 72 -193zM369 660q-23 34 -39 62h-122v4q-20 -34 -42 -66h203zM410 540q-20 -71 -51 -130l-57 20v-28h108v138zM410 560v25h-108v-135
q33 67 46 126zM128 558l54 19q32 -62 53 -132v140h-107v-27zM128 402h107v26l-62 -17q-20 70 -45 124v-133zM182 82v-57h166v57h-166zM182 152h166v58h-166v-58zM880 22q16 0 19.5 31t5.5 217l80 -10q-4 -228 -17 -277q-12 -42 -45 -49q-15 -4 -53 -4q-58 0 -76.5 14.5
t-20.5 67.5q-123 -50 -295 -84l-20 90q7 2 21 4t21 4q45 304 63 654h-78v90h477v-90h-299q-1 -20 -3.5 -58.5t-3.5 -56.5h214v-505q0 -38 10 -38zM393 805q53 -103 133 -174l-41 -45v-256h-357h-76l1 253l-44 48q79 70 132 171l67 -39v42h185zM448 285v-375h-100v40h-166
v-40h-102v375h368z" />
    <glyph glyph-name="glyph08387" unicode="&#xe0103;" 
d="M772 197l-72 -39q-30 94 -62 177q-12 -133 -35 -285q93 24 169 54v93zM772 232v246h-122q-1 -15 -3.5 -43.5t-3.5 -41.5l57 32q34 -78 72 -193zM369 660q-23 34 -39 62h-122v4q-20 -34 -42 -66h203zM410 540q-20 -71 -51 -130l-57 20v-28h108v138zM410 560v25h-108v-135
q33 67 46 126zM128 558l54 19q32 -62 53 -132v140h-107v-27zM128 402h107v26l-62 -17q-20 70 -45 124v-133zM182 82v-57h166v57h-166zM182 152h166v58h-166v-58zM880 22q16 0 19.5 31t5.5 217l80 -10q-4 -228 -17 -277q-12 -42 -45 -49q-15 -4 -53 -4q-58 0 -76.5 14.5
t-20.5 67.5q-123 -50 -295 -84l-20 90q7 2 21 4t21 4q45 304 63 654h-78v90h477v-90h-299q-1 -20 -3.5 -58.5t-3.5 -56.5h214v-505q0 -38 10 -38zM393 805q53 -103 133 -174l-41 -45v-256h-357h-76l1 253l-44 48q79 70 132 171l67 -39v42h185zM448 285v-375h-100v40h-166
v-40h-102v375h368z" />
    <glyph glyph-name="glyph08388" unicode="&#xe0103;" 
d="M844 436q58 -49 89.5 -114.5t31.5 -136.5q0 -87 -38 -126t-119 -39h-80l-18 92h45q64 0 84.5 15.5t20.5 60.5q0 120 -132 243q74 128 123 269h-171v-785h-102v870h380v-85q-42 -131 -114 -264zM78 695v90h424v-90h-424zM245 495h-197v93h484v-93h-184v-585h-103v585z
M48 -5q42 185 42 430h95q0 -252 -45 -455zM412 5v420h96v-420h-96z" />
    <glyph glyph-name="glyph08388" unicode="&#xe0101;" 
d="M844 436q58 -49 89.5 -114.5t31.5 -136.5q0 -87 -38 -126t-119 -39h-80l-18 92h45q64 0 84.5 15.5t20.5 60.5q0 120 -132 243q74 128 123 269h-171v-785h-102v870h380v-85q-42 -131 -114 -264zM78 695v90h424v-90h-424zM245 495h-197v93h484v-93h-184v-585h-103v585z
M48 -5q42 185 42 430h95q0 -252 -45 -455zM412 5v420h96v-420h-96z" />
    <glyph glyph-name="glyph08389" unicode="&#xe0104;" 
d="M336 335h317q25 61 37 113h-342q-3 -59 -12 -113zM619 110q116 57 184 142h-385q70 -81 201 -142zM528 542l-71 60q20 16 56 52h-137q16 -40 32 -84l-97 -28q-20 54 -43 112h-53q-49 -63 -110 -112l-71 60q123 102 176 226l94 -19q-15 -39 -29 -65h253v-74q69 75 104 158
l95 -19q-13 -33 -30 -65h253v-90h-152q16 -40 32 -84l-96 -28q-20 54 -43 112h-53q-49 -63 -110 -112zM280 -88l-40 88q148 24 265 64q-118 70 -191 169q-59 -209 -214 -321l-70 76q203 143 219 459l-179 1v84h728v-84q-12 -50 -36 -113h153v-83q-63 -110 -185 -187
q102 -36 230 -65l-45 -88q-168 39 -297 95q-134 -58 -338 -95z" />
    <glyph glyph-name="glyph08389" unicode="&#xe0102;" 
d="M336 335h317q25 61 37 113h-342q-3 -59 -12 -113zM619 110q116 57 184 142h-385q70 -81 201 -142zM528 542l-71 60q20 16 56 52h-137q16 -40 32 -84l-97 -28q-20 54 -43 112h-53q-49 -63 -110 -112l-71 60q123 102 176 226l94 -19q-15 -39 -29 -65h253v-74q69 75 104 158
l95 -19q-13 -33 -30 -65h253v-90h-152q16 -40 32 -84l-96 -28q-20 54 -43 112h-53q-49 -63 -110 -112zM280 -88l-40 88q148 24 265 64q-118 70 -191 169q-59 -209 -214 -321l-70 76q203 143 219 459l-179 1v84h728v-84q-12 -50 -36 -113h153v-83q-63 -110 -185 -187
q102 -36 230 -65l-45 -88q-168 39 -297 95q-134 -58 -338 -95z" />
    <glyph glyph-name="glyph08390" unicode="&#xe0101;" 
d="M445 430h110v-170h63q71 61 118 126l88 -47q-27 -37 -69 -79h180v-88h-295q126 -85 327 -155l-39 -89q-233 89 -373 203v-216h-110v216q-140 -114 -373 -203l-39 89q201 70 327 155h-295v88h190q-36 38 -81 76l77 46q-102 -24 -177 -37l-25 87q245 42 389 97.5t237 140.5
h-322q-102 -94 -225 -157l-68 74q198 100 306 243l106 -20q-23 -35 -40 -55h380v-85q-56 -58 -119 -102q87 -82 266 -158l-28 -87q-200 76 -318 194q-146 -82 -353 -133q61 -53 124 -124h61v170z" />
    <glyph glyph-name="glyph08392" unicode="&#xe0103;" 
d="M178 350q65 79 112 172h-112v-172zM711 475q55 21 102 45h-273q79 -18 171 -45zM839 362q-54 21 -122 44q-73 -25 -154 -44h276zM617 240h58v45h-197v-53q0 -46 -3 -87q37 59 55 130l92 -15q-1 -4 -2.5 -10.5t-2.5 -9.5zM567 122h108v43h-86q-11 -25 -22 -43zM730 765
h215v-85h-215v-25h-105v25h-250v-42h-105v42h-215v85h215v65h105v-65h250v65h105v-65zM958 5v-83h-498v83h215v45h-140v25l-66 20q-14 -112 -61 -193l-88 48q38 64 50 150q-29 -72 -132 -72h-33l-15 90v2q53 0 71.5 14t18.5 51q0 36 -21.5 66.5t-80.5 70.5v-414h-106v702
h323v-88q-36 -83 -103 -174q74 -67 87 -136q1 24 1 78v72h84l-32 40q85 14 171 38q-52 14 -147 33l33 47h-71v78h207v40h105v-40h208v-78h-71l31 -29q-43 -28 -88 -48q9 -3 49 -16.5t63 -21.5l-28 -43h54v-77h-168v-45h158v-75h-158v-43h138v-72h-138v-45h178z" />
    <glyph glyph-name="glyph08392" unicode="&#xe0101;" 
d="M178 350q65 79 112 172h-112v-172zM711 475q55 21 102 45h-273q79 -18 171 -45zM839 362q-54 21 -122 44q-73 -25 -154 -44h276zM617 240h58v45h-197v-53q0 -46 -3 -87q37 59 55 130l92 -15q-1 -4 -2.5 -10.5t-2.5 -9.5zM567 122h108v43h-86q-11 -25 -22 -43zM730 765
h215v-85h-215v-25h-105v25h-250v-42h-105v42h-215v85h215v65h105v-65h250v65h105v-65zM958 5v-83h-498v83h215v45h-140v25l-66 20q-14 -112 -61 -193l-88 48q38 64 50 150q-29 -72 -132 -72h-33l-15 90v2q53 0 71.5 14t18.5 51q0 36 -21.5 66.5t-80.5 70.5v-414h-106v702
h323v-88q-36 -83 -103 -174q74 -67 87 -136q1 24 1 78v72h84l-32 40q85 14 171 38q-52 14 -147 33l33 47h-71v78h207v40h105v-40h208v-78h-71l31 -29q-43 -28 -88 -48q9 -3 49 -16.5t63 -21.5l-28 -43h54v-77h-168v-45h158v-75h-158v-43h138v-72h-138v-45h178z" />
    <glyph glyph-name="glyph08393" unicode="&#xe0103;" 
d="M162 30h106v90h-106v-90zM702 622q61 28 110 58h-289q85 -24 179 -58zM837 492q-73 32 -130 54q-88 -34 -166 -54h296zM68 692v88h287v-88h-287zM45 548v90h327v-90h-327zM75 405v85h277v-85h-277zM75 262v86h277v-86h-277zM900 368q-124 -72 -340 -118l-32 78
q175 36 281 84h-309v-32q0 -171 -13 -277t-45 -193l-84 64v-29h-196v-40h-94v300h290v-213q25 76 34.5 166.5t9.5 263.5v70h77l-38 48q94 20 163 44q-55 19 -150 46l37 50h-99v82h230v73h108v-73h215v-82h-88l39 -31q-49 -37 -100 -63q118 -50 121 -51l-30 -43h68v-80h-81z
M548 80l-33 82q224 44 377 133l40 -73q-155 -95 -384 -142zM920 145l45 -70q-171 -115 -437 -165l-33 82q254 48 425 153z" />
    <glyph glyph-name="glyph08393" unicode="&#xe0101;" 
d="M162 30h106v90h-106v-90zM702 622q61 28 110 58h-289q85 -24 179 -58zM837 492q-73 32 -130 54q-88 -34 -166 -54h296zM68 692v88h287v-88h-287zM45 548v90h327v-90h-327zM75 405v85h277v-85h-277zM75 262v86h277v-86h-277zM900 368q-124 -72 -340 -118l-32 78
q175 36 281 84h-309v-32q0 -171 -13 -277t-45 -193l-84 64v-29h-196v-40h-94v300h290v-213q25 76 34.5 166.5t9.5 263.5v70h77l-38 48q94 20 163 44q-55 19 -150 46l37 50h-99v82h230v73h108v-73h215v-82h-88l39 -31q-49 -37 -100 -63q118 -50 121 -51l-30 -43h68v-80h-81z
M548 80l-33 82q224 44 377 133l40 -73q-155 -95 -384 -142zM920 145l45 -70q-171 -115 -437 -165l-33 82q254 48 425 153z" />
    <glyph glyph-name="glyph08394" unicode="&#xe0103;" 
d="M162 612h211q-59 46 -115 118q-44 -63 -96 -118zM392 430v72h236v48h-173v78h173v47h-188q3 -2 22 -14l-35 -88q-8 5 -22 15v-60h-105v-98h92zM625 185v117h-105v-117h105zM722 185h106v117h-106v-117zM60 286l77 21q28 -91 48 -190l-77 -21q-20 92 -48 190zM313 150
q27 92 42 164l67 -14v2v40h-122v-253q64 19 122 39v137q-15 -65 -35 -135zM738 502h224v-80h-534v-37h502v-345q0 -80 -21 -99t-109 -19q-24 0 -118 6l-2 90q102 -6 105 -6q27 0 32 4t5 24v65h-297v-185h-103v116q-190 -65 -371 -103l-12 89q58 12 161 39v281h-148v88h148
v98h-88v36q-38 -34 -66 -55l-22 102q96 74 182 191h96q50 -59 106 -103v59h220v62h110v-62h212v-83h-212v-47h190v-78h-190v-48z" />
    <glyph glyph-name="glyph08394" unicode="&#xe0101;" 
d="M162 612h211q-59 46 -115 118q-44 -63 -96 -118zM392 430v72h236v48h-173v78h173v47h-188q3 -2 22 -14l-35 -88q-8 5 -22 15v-60h-105v-98h92zM625 185v117h-105v-117h105zM722 185h106v117h-106v-117zM60 286l77 21q28 -91 48 -190l-77 -21q-20 92 -48 190zM313 150
q27 92 42 164l67 -14v2v40h-122v-253q64 19 122 39v137q-15 -65 -35 -135zM738 502h224v-80h-534v-37h502v-345q0 -80 -21 -99t-109 -19q-24 0 -118 6l-2 90q102 -6 105 -6q27 0 32 4t5 24v65h-297v-185h-103v116q-190 -65 -371 -103l-12 89q58 12 161 39v281h-148v88h148
v98h-88v36q-38 -34 -66 -55l-22 102q96 74 182 191h96q50 -59 106 -103v59h220v62h110v-62h212v-83h-212v-47h190v-78h-190v-48z" />
    <glyph glyph-name="glyph08395" unicode="&#xe0101;" 
d="M480 410h325v58h-325v-58zM480 335v-60h325v60h-325zM250 22q118 60 198 156l70 -60q-86 -106 -213 -173zM720 105l60 73q108 -74 200 -166l-60 -72q-94 92 -200 165zM270 265q0 49 -18.5 88.5t-70.5 101.5q71 117 113 247h-124v-787h-100v870h320v-83q-2 -7 -7.5 -21
t-7.5 -21q66 57 110 122l77 -50q-69 -110 -178 -184h96h112v257h106v-257h207q-85 97 -185 174l70 63q101 -79 188 -180l-68 -58v-355h-212v-162q0 -74 -18 -92t-90 -18q-49 0 -125 5l-5 90q54 -5 95 -5q28 0 32.5 5t4.5 37v140h-214v356l-35 34q-33 -77 -59 -122
q81 -104 81 -218q0 -74 -34 -108t-106 -34h-20l-17 85h20q36 0 49 16t13 64z" />
    <glyph glyph-name="glyph08396" unicode="&#xe0103;" 
d="M303 555q53 29 81 63h-166q37 -24 85 -63zM705 618q82 40 131 100h-212q33 -56 81 -100zM425 408h150q-13 6 -38 19t-37 19q-13 -7 -38 -19.5zM370 381q-57 -27 -117 -51h494q-60 24 -117 51v-29h-260v29zM280 185v-27h435v27h-435zM280 240h435v28h-435v-28zM489 45
q-37 27 -60 53h-149v-84q112 15 209 31zM689 37q52 29 97 61h-230q56 -36 133 -61zM92 545l-64 60q92 57 137 130l63 -28v128h104v-43h153v-74h-153v-30h160v-70q-76 -154 -402 -218l-48 80q102 15 174 39q-48 36 -77 55q-17 -12 -47 -29zM518 718v80h427v-80
q-56 -95 -165 -156q84 -51 192 -80l-30 -80q-146 40 -253 118q-57 -21 -105 -34q164 -83 387 -136l-22 -90q-86 26 -127 41v-177q6 5 23 18t25 20l65 -50q-67 -58 -143 -103q72 -15 158 -21l-32 -80q-253 18 -413 126v-66q-224 -43 -440 -58l-7 82q72 6 114 10v298
q-74 -27 -121 -40l-22 90q233 56 409 148h70l-20 57q62 8 127 28q-44 44 -80 102l69 33h-86z" />
    <glyph glyph-name="glyph08396" unicode="&#xe0101;" 
d="M303 555q53 29 81 63h-166q37 -24 85 -63zM705 618q82 40 131 100h-212q33 -56 81 -100zM425 408h150q-13 6 -38 19t-37 19q-13 -7 -38 -19.5zM370 381q-57 -27 -117 -51h494q-60 24 -117 51v-29h-260v29zM280 185v-27h435v27h-435zM280 240h435v28h-435v-28zM489 45
q-37 27 -60 53h-149v-84q112 15 209 31zM689 37q52 29 97 61h-230q56 -36 133 -61zM92 545l-64 60q92 57 137 130l63 -28v128h104v-43h153v-74h-153v-30h160v-70q-76 -154 -402 -218l-48 80q102 15 174 39q-48 36 -77 55q-17 -12 -47 -29zM518 718v80h427v-80
q-56 -95 -165 -156q84 -51 192 -80l-30 -80q-146 40 -253 118q-57 -21 -105 -34q164 -83 387 -136l-22 -90q-86 26 -127 41v-177q6 5 23 18t25 20l65 -50q-67 -58 -143 -103q72 -15 158 -21l-32 -80q-253 18 -413 126v-66q-224 -43 -440 -58l-7 82q72 6 114 10v298
q-74 -27 -121 -40l-22 90q233 56 409 148h70l-20 57q62 8 127 28q-44 44 -80 102l69 33h-86z" />
    <glyph glyph-name="glyph08397" unicode="&#xe0105;" 
d="M646 298q-93 35 -146 59q-53 -24 -146 -59h94v32h104v-32h94zM280 160v-28h435v28h-435zM280 210h435v28h-435v-28zM473 37q-24 15 -45 35h-148v-63q105 13 193 28zM676 30q49 22 85 42h-195q46 -24 110 -42zM335 590v98q-53 -51 -132 -111l75 5q12 18 19 31zM432 660
v-28h120v28h-120zM432 705h120v27h-120v-27zM968 732q-27 -48 -81 -113q88 -45 88 -124q0 -49 -31 -71t-109 -22h-33l-20 73h30q63 0 63 35q0 43 -103 92v-227h-97v425h293v-68zM862 732h-90v-118q57 60 90 118zM432 508v-26h218v-52h-218v-25q1 1 4 2t4 1h120
q191 -74 411 -121l-22 -82q-86 22 -127 34v-130q39 24 48 31l65 -48q-65 -45 -149 -88q70 -13 164 -19l-32 -77q-249 15 -413 109v-52q-224 -40 -440 -55l-7 78l114 9v241q-95 -27 -121 -33l-22 82q219 49 391 113h-85v135q-39 -61 -107 -112.5t-150 -82.5l-50 60
q112 43 191 115l-189 -25l-12 72l63 5q33 23 61 46q-75 55 -117 82l48 59q6 -4 17.5 -12t17.5 -12q45 43 87 90l73 -30q-46 -50 -102 -100q13 -9 37 -27q45 39 85 79l47 -22v65h102q7 19 13 44l102 -8q-5 -23 -10 -36h103v-200h-213v-25h218v-52h-218z" />
    <glyph glyph-name="glyph08397" unicode="&#xe0101;" 
d="M646 298q-93 35 -146 59q-53 -24 -146 -59h94v32h104v-32h94zM280 160v-28h435v28h-435zM280 210h435v28h-435v-28zM473 37q-24 15 -45 35h-148v-63q105 13 193 28zM676 30q49 22 85 42h-195q46 -24 110 -42zM335 590v98q-53 -51 -132 -111l75 5q12 18 19 31zM432 660
v-28h120v28h-120zM432 705h120v27h-120v-27zM968 732q-27 -48 -81 -113q88 -45 88 -124q0 -49 -31 -71t-109 -22h-33l-20 73h30q63 0 63 35q0 43 -103 92v-227h-97v425h293v-68zM862 732h-90v-118q57 60 90 118zM432 508v-26h218v-52h-218v-25q1 1 4 2t4 1h120
q191 -74 411 -121l-22 -82q-86 22 -127 34v-130q39 24 48 31l65 -48q-65 -45 -149 -88q70 -13 164 -19l-32 -77q-249 15 -413 109v-52q-224 -40 -440 -55l-7 78l114 9v241q-95 -27 -121 -33l-22 82q219 49 391 113h-85v135q-39 -61 -107 -112.5t-150 -82.5l-50 60
q112 43 191 115l-189 -25l-12 72l63 5q33 23 61 46q-75 55 -117 82l48 59q6 -4 17.5 -12t17.5 -12q45 43 87 90l73 -30q-46 -50 -102 -100q13 -9 37 -27q45 39 85 79l47 -22v65h102q7 19 13 44l102 -8q-5 -23 -10 -36h103v-200h-213v-25h218v-52h-218z" />
    <glyph glyph-name="glyph08398" unicode="&#xe0103;" 
d="M225 610q18 29 44 80h-67q-16 -43 -33 -80h56zM285 438h53v87h-53v-87zM285 360v-92h53v92h-53zM205 525h-53v-87h53v87zM152 268h53v92h-53v-92zM152 185h-90v311l-47 29q91 149 133 320l94 -13q-8 -38 -13 -57h136v-85q-13 -30 -40 -80h95v-425h-268zM462 302v83h483
v-345q0 -80 -20 -99t-107 -19q-24 0 -118 6l-2 90q102 -6 104 -6q28 0 33 4t5 24v65h-278v-185h-100v382zM655 185v117h-97v-117h97zM748 185h97v117h-97v-117zM18 -78q37 112 52 238l78 -12q-11 -127 -48 -246zM172 -82q-3 116 -17 227l73 10q15 -109 20 -227zM282 -55
q-9 97 -30 205l70 10q20 -95 30 -205zM388 -30q-12 85 -40 185l64 13q26 -88 40 -186zM762 502h210v-80h-530v80h210v48h-170v78h170v47h-200v83h200v62h110v-62h198v-83h-198v-47h180v-78h-180v-48z" />
    <glyph glyph-name="glyph08398" unicode="&#xe0101;" 
d="M225 610q18 29 44 80h-67q-16 -43 -33 -80h56zM285 438h53v87h-53v-87zM285 360v-92h53v92h-53zM205 525h-53v-87h53v87zM152 268h53v92h-53v-92zM152 185h-90v311l-47 29q91 149 133 320l94 -13q-8 -38 -13 -57h136v-85q-13 -30 -40 -80h95v-425h-268zM462 302v83h483
v-345q0 -80 -20 -99t-107 -19q-24 0 -118 6l-2 90q102 -6 104 -6q28 0 33 4t5 24v65h-278v-185h-100v382zM655 185v117h-97v-117h97zM748 185h97v117h-97v-117zM18 -78q37 112 52 238l78 -12q-11 -127 -48 -246zM172 -82q-3 116 -17 227l73 10q15 -109 20 -227zM282 -55
q-9 97 -30 205l70 10q20 -95 30 -205zM388 -30q-12 85 -40 185l64 13q26 -88 40 -186zM762 502h210v-80h-530v80h210v48h-170v78h170v47h-200v83h200v62h110v-62h198v-83h-198v-47h180v-78h-180v-48z" />
    <glyph glyph-name="glyph08399" unicode="&#xe0103;" 
d="M572 548v-56h246v56h-246zM572 618h246v54h-246v-54zM158 -28v-50h-100v368h354v-138l80 -17q-21 -125 -52 -225l-80 30q2 6 5 16t5 16h-212zM158 55h160v147h-160v-147zM528 -65q-6 79 -23 197l77 16q19 -111 26 -198zM820 8q15 0 22 9.5t11 44.5t5 110h-60
q20 -72 34 -132l-72 -20q-15 69 -35 135l63 17h-320v583h133q9 34 19 90l108 -7q-3 -20 -18 -83h212v-335h-350v-42h400v-83h-400v-43h386q0 -140 -11 -213t-30.5 -97t-56.5 -24q-70 0 -160 7l-3 54l-49 -11q-9 65 -30 172l74 18q20 -95 29 -145q62 -5 99 -5zM220 382h-192
v88h192v148h-61q-17 -74 -34 -123l-95 23q45 140 65 284l95 -12q-7 -54 -13 -85h43v105h100v-105h110v-87h-110v-148h122v-88h-122v-64h-100v64z" />
    <glyph glyph-name="glyph08399" unicode="&#xe0101;" 
d="M572 548v-56h246v56h-246zM572 618h246v54h-246v-54zM158 -28v-50h-100v368h354v-138l80 -17q-21 -125 -52 -225l-80 30q2 6 5 16t5 16h-212zM158 55h160v147h-160v-147zM528 -65q-6 79 -23 197l77 16q19 -111 26 -198zM820 8q15 0 22 9.5t11 44.5t5 110h-60
q20 -72 34 -132l-72 -20q-15 69 -35 135l63 17h-320v583h133q9 34 19 90l108 -7q-3 -20 -18 -83h212v-335h-350v-42h400v-83h-400v-43h386q0 -140 -11 -213t-30.5 -97t-56.5 -24q-70 0 -160 7l-3 54l-49 -11q-9 65 -30 172l74 18q20 -95 29 -145q62 -5 99 -5zM220 382h-192
v88h192v148h-61q-17 -74 -34 -123l-95 23q45 140 65 284l95 -12q-7 -54 -13 -85h43v105h100v-105h110v-87h-110v-148h122v-88h-122v-64h-100v64z" />
    <glyph glyph-name="glyph08400" unicode="&#xe0102;" 
d="M400 565v95h282v150h108v-150h180v-95h-181q-7 -253 -87 -391q108 -105 270 -156l-37 -93q-165 46 -293 168q-88 -95 -270 -168l-47 90q173 75 245 156q-68 85 -112 197q-21 -41 -42 -68q3 -7 9.5 -21t9.5 -21l-80 -56q-14 36 -75 183v-475h-100v380q-42 -109 -101 -193
l-63 81q118 184 164 364h-132v90h132v178h100v-178h100v-92h-76q42 -90 64 -137q29 43 50 92h104q38 -137 106 -235q50 108 54 305h-282z" />
    <glyph glyph-name="glyph08400" unicode="&#xe0100;" 
d="M400 565v95h282v150h108v-150h180v-95h-181q-7 -253 -87 -391q108 -105 270 -156l-37 -93q-165 46 -293 168q-88 -95 -270 -168l-47 90q173 75 245 156q-68 85 -112 197q-21 -41 -42 -68q3 -7 9.5 -21t9.5 -21l-80 -56q-14 36 -75 183v-475h-100v380q-42 -109 -101 -193
l-63 81q118 184 164 364h-132v90h132v178h100v-178h100v-92h-76q42 -90 64 -137q29 43 50 92h104q38 -137 106 -235q50 108 54 305h-282z" />
    <glyph glyph-name="glyph08401" unicode="&#xe0103;" 
d="M508 280v-90h330v90h-330zM508 360h330v82h-330v-82zM252 100v568h-92v-568h92zM730 742l85 50q94 -103 167 -234l-40 -31v-467q0 -37 -0.5 -56t-5.5 -37.5t-11 -25t-22.5 -12.5t-33.5 -6.5t-51 -0.5q-1 0 -123 6l-2 89q81 -5 109 -5q26 0 31 7t5 46v45h-330v-190h-106
v589l-54 51v-550h-188v-60h-100v810h288v-190q91 94 150 220l90 -38q-54 -124 -144 -224h168v284h103v-284h173q-70 118 -158 214z" />
    <glyph glyph-name="glyph08401" unicode="&#xe0101;" 
d="M508 280v-90h330v90h-330zM508 360h330v82h-330v-82zM252 100v568h-92v-568h92zM730 742l85 50q94 -103 167 -234l-40 -31v-467q0 -37 -0.5 -56t-5.5 -37.5t-11 -25t-22.5 -12.5t-33.5 -6.5t-51 -0.5q-1 0 -123 6l-2 89q81 -5 109 -5q26 0 31 7t5 46v45h-330v-190h-106
v589l-54 51v-550h-188v-60h-100v810h288v-190q91 94 150 220l90 -38q-54 -124 -144 -224h168v284h103v-284h173q-70 118 -158 214z" />
    <glyph glyph-name="glyph08402" unicode="&#xe0103;" 
d="M527 405q-29 84 -69 153l60 30h-66v-183h75zM608 405v183h-78q40 -69 70 -158l-66 -25h74zM764 588h-72v-183h72l-66 30q44 68 66 153zM771 588l69 -28q-22 -84 -68 -155h76v183h-77zM475 20h345v60h-345v-60zM475 -55v-40h-100v383h550v-383h-105v40h-345zM222 100v568
h-62v-568h62zM815 808q73 -103 177 -173l-50 -75v-228h-490h-94v228l-40 60v-610h-158v-60h-100v810h258v-118q96 66 164 163l86 -50q-32 -49 -76 -93h315q-34 34 -55 63h-177v83h240zM820 152v60h-345v-60h345z" />
    <glyph glyph-name="glyph08402" unicode="&#xe0101;" 
d="M527 405q-29 84 -69 153l60 30h-66v-183h75zM608 405v183h-78q40 -69 70 -158l-66 -25h74zM764 588h-72v-183h72l-66 30q44 68 66 153zM771 588l69 -28q-22 -84 -68 -155h76v183h-77zM475 20h345v60h-345v-60zM475 -55v-40h-100v383h550v-383h-105v40h-345zM222 100v568
h-62v-568h62zM815 808q73 -103 177 -173l-50 -75v-228h-490h-94v228l-40 60v-610h-158v-60h-100v810h258v-118q96 66 164 163l86 -50q-32 -49 -76 -93h315q-34 34 -55 63h-177v83h240zM820 152v60h-345v-60h345z" />
    <glyph glyph-name="glyph08403" unicode="&#xe0103;" 
d="M308 383v169h-78v-199q54 20 78 30zM410 178v-258h-102v367q-24 -10 -78 -30v-197q0 -53 -2.5 -78.5t-15 -42.5t-31.5 -20.5t-59 -3.5q-17 0 -82 5l-5 87q62 -5 73 -5q13 0 15 7t2 46v168q-48 -15 -86 -23l-8 95q51 12 94 24v233h-93v90h93v168h105v-168h52v78h164
q-21 49 -43 95l104 22q30 -59 53 -117h119q28 58 49 117l104 -19q-16 -46 -40 -98h170v-88h-644v-50h300v-522q0 -96 -13 -117t-73 -21q-6 0 -90 6l-2 92q40 -5 57 -5t20 7t3 46v68l-30 -38q-32 36 -80 80zM410 419l30 39q30 -25 80 -76v113h-110v-76zM410 370v-144l30 39
q35 -28 80 -75v139l-30 -39q-32 36 -80 80zM672 105v463h98v-463h-98zM799 18q22 0 26.5 7t4.5 45v522h102v-527q0 -98 -17.5 -121.5t-86.5 -23.5q-31 0 -123 5l-5 97q52 -4 99 -4z" />
    <glyph glyph-name="glyph08403" unicode="&#xe0101;" 
d="M308 383v169h-78v-199q54 20 78 30zM410 178v-258h-102v367q-24 -10 -78 -30v-197q0 -53 -2.5 -78.5t-15 -42.5t-31.5 -20.5t-59 -3.5q-17 0 -82 5l-5 87q62 -5 73 -5q13 0 15 7t2 46v168q-48 -15 -86 -23l-8 95q51 12 94 24v233h-93v90h93v168h105v-168h52v78h164
q-21 49 -43 95l104 22q30 -59 53 -117h119q28 58 49 117l104 -19q-16 -46 -40 -98h170v-88h-644v-50h300v-522q0 -96 -13 -117t-73 -21q-6 0 -90 6l-2 92q40 -5 57 -5t20 7t3 46v68l-30 -38q-32 36 -80 80zM410 419l30 39q30 -25 80 -76v113h-110v-76zM410 370v-144l30 39
q35 -28 80 -75v139l-30 -39q-32 36 -80 80zM672 105v463h98v-463h-98zM799 18q22 0 26.5 7t4.5 45v522h102v-527q0 -98 -17.5 -121.5t-86.5 -23.5q-31 0 -123 5l-5 97q52 -4 99 -4z" />
    <glyph glyph-name="glyph08404" unicode="&#xe0103;" 
d="M440 110v-72h375v72h-375zM440 188h375v70h-375v-70zM292 650v-90h-60v-211q9 3 70 26v-93q-40 -18 -70 -29v-193q0 -99 -17 -122t-90 -23q-18 0 -83 5l-4 87q62 -5 72 -5q13 0 15.5 7t2.5 46l-1 162q-60 -18 -89 -25l-8 96q61 15 98 26v246h-96v90h96v160h104v-160h60z
M920 342v-427h-105v40h-375v-40h-105v427h216q2 8 6.5 23t7.5 23h-63v101q-83 -67 -182 -117l-28 83q122 62 210 140v64q-75 -64 -170 -111l-32 80q72 34 133 77h-143v85h315v-372l55 -7l-15 44q122 62 210 140v65q-83 -71 -195 -125l-32 80q84 39 156 90h-142v85h316v-402
h-103v101q-77 -63 -182 -116q-1 -5 -5 -15.5t-5 -15.5h257z" />
    <glyph glyph-name="glyph08404" unicode="&#xe0101;" 
d="M440 110v-72h375v72h-375zM440 188h375v70h-375v-70zM292 650v-90h-60v-211q9 3 70 26v-93q-40 -18 -70 -29v-193q0 -99 -17 -122t-90 -23q-18 0 -83 5l-4 87q62 -5 72 -5q13 0 15.5 7t2.5 46l-1 162q-60 -18 -89 -25l-8 96q61 15 98 26v246h-96v90h96v160h104v-160h60z
M920 342v-427h-105v40h-375v-40h-105v427h216q2 8 6.5 23t7.5 23h-63v101q-83 -67 -182 -117l-28 83q122 62 210 140v64q-75 -64 -170 -111l-32 80q72 34 133 77h-143v85h315v-372l55 -7l-15 44q122 62 210 140v65q-83 -71 -195 -125l-32 80q84 39 156 90h-142v85h316v-402
h-103v101q-77 -63 -182 -116q-1 -5 -5 -15.5t-5 -15.5h257z" />
    <glyph glyph-name="glyph08405" unicode="&#xe0103;" 
d="M412 705v-53h90v53h-90zM745 705v-53h90v53h-90zM535 285v-85h175v85h-175zM292 395v-97q-52 -23 -62 -27v-211q0 -96 -18 -120.5t-87 -24.5q-18 0 -83 5l-4 88q54 -6 64 -6q17 0 20 7t3 46v180q-49 -15 -85 -23l-10 96q54 13 95 25v219h-93v90h93v168h105v-168h55v-90
h-55v-183q28 10 62 26zM815 200h147v-85h-221q128 -65 217 -135l-60 -78q-104 84 -248 158l37 55h-150l38 -47q-43 -44 -111.5 -87.5t-143.5 -72.5l-50 82q126 51 219 125h-214v85h155v85h-112v80h112v68q-85 0 -102.5 11t-17.5 61v280h102h190v-205h-190v-45q0 -19 6 -22
t39 -3q41 0 48.5 6.5t9.5 45.5l103 -17q-7 -67 -20 -87t-63 -24v-69h175v69q-46 3 -57 16t-11 55v280h103h190v-205h-190v-45q0 -19 5.5 -22t38.5 -3q41 0 49 6.5t10 45.5l102 -17q-4 -36 -7 -51t-10 -30.5t-22 -20t-36 -7.5t-60 -3v-68h117v-80h-117v-85z" />
    <glyph glyph-name="glyph08405" unicode="&#xe0101;" 
d="M412 705v-53h90v53h-90zM745 705v-53h90v53h-90zM535 285v-85h175v85h-175zM292 395v-97q-52 -23 -62 -27v-211q0 -96 -18 -120.5t-87 -24.5q-18 0 -83 5l-4 88q54 -6 64 -6q17 0 20 7t3 46v180q-49 -15 -85 -23l-10 96q54 13 95 25v219h-93v90h93v168h105v-168h55v-90
h-55v-183q28 10 62 26zM815 200h147v-85h-221q128 -65 217 -135l-60 -78q-104 84 -248 158l37 55h-150l38 -47q-43 -44 -111.5 -87.5t-143.5 -72.5l-50 82q126 51 219 125h-214v85h155v85h-112v80h112v68q-85 0 -102.5 11t-17.5 61v280h102h190v-205h-190v-45q0 -19 6 -22
t39 -3q41 0 48.5 6.5t9.5 45.5l103 -17q-7 -67 -20 -87t-63 -24v-69h175v69q-46 3 -57 16t-11 55v280h103h190v-205h-190v-45q0 -19 5.5 -22t38.5 -3q41 0 49 6.5t10 45.5l102 -17q-4 -36 -7 -51t-10 -30.5t-22 -20t-36 -7.5t-60 -3v-68h117v-80h-117v-85z" />
    <glyph glyph-name="glyph08407" unicode="&#xe0101;" 
d="M745 680v-82h225v-88h-225v-62h190v-538h-105v45h-232v-45h-106v538h106h44v62h-170v-95q0 -313 -134 -493l-76 83q55 77 81.5 185t26.5 272v283q321 0 555 65l17 -88q-76 -23 -197 -42zM642 668q-88 -8 -170 -8v-62h170v70zM598 305h232v60h-232v-60zM598 172h232v60
h-232v-60zM598 100v-60h232v60h-232zM38 645h107v165h100v-165h97v-90h-86q51 -117 98 -231l-65 -72q-7 19 -44 120v-462h-100v371q-30 -91 -73 -165l-57 99q90 162 125 340h-102v90z" />
    <glyph glyph-name="glyph08408" unicode="&#xe0103;" 
d="M352 570l-34 56v-66h-66l27 -63t40.5 -95.5t32.5 -76.5v245zM828 645v-30h-66v-37h161q-55 34 -95 67zM777 690q-13 12 -37 38h-204q-15 -19 -32 -38h273zM452 438q55 26 73 72h-73v-72zM452 265h380v35h-380v-35zM498 615h-46v26q-40 -35 -87 -63h133v37zM595 615v-37
h70v37h-70zM832 458v52h-80v-22q0 -22 6 -26t40 -4h34zM615 510q-14 -92 -115 -138l-48 48v-55h380v27h-97q-50 0 -65 12t-15 51v55h-40zM535 -75q-70 63 -153 115l43 42h-95v80h435v36h-313h-100v74l-54 -41q-22 60 -50 133v-454h-100v364q-32 -94 -70 -158l-63 99
q94 163 132 345h-109v90h110v160h100v-160h54q102 59 173 142l60 -55v75h255q76 -91 192 -160l-47 -82v-372h-63v-36h96v-80h-96v-52q0 -78 -17.5 -96.5t-92.5 -18.5q-58 0 -144 5l-3 82q72 -4 113 -4q28 0 32.5 5t4.5 37v42h-283q65 -45 118 -90z" />
    <glyph glyph-name="glyph08408" unicode="&#xe0101;" 
d="M352 570l-34 56v-66h-66l27 -63t40.5 -95.5t32.5 -76.5v245zM828 645v-30h-66v-37h161q-55 34 -95 67zM777 690q-13 12 -37 38h-204q-15 -19 -32 -38h273zM452 438q55 26 73 72h-73v-72zM452 265h380v35h-380v-35zM498 615h-46v26q-40 -35 -87 -63h133v37zM595 615v-37
h70v37h-70zM832 458v52h-80v-22q0 -22 6 -26t40 -4h34zM615 510q-14 -92 -115 -138l-48 48v-55h380v27h-97q-50 0 -65 12t-15 51v55h-40zM535 -75q-70 63 -153 115l43 42h-95v80h435v36h-313h-100v74l-54 -41q-22 60 -50 133v-454h-100v364q-32 -94 -70 -158l-63 99
q94 163 132 345h-109v90h110v160h100v-160h54q102 59 173 142l60 -55v75h255q76 -91 192 -160l-47 -82v-372h-63v-36h96v-80h-96v-52q0 -78 -17.5 -96.5t-92.5 -18.5q-58 0 -144 5l-3 82q72 -4 113 -4q28 0 32.5 5t4.5 37v42h-283q65 -45 118 -90z" />
    <glyph glyph-name="glyph08409" unicode="&#xe0103;" 
d="M238 472h-83v-67h83v67zM338 472v-67h82v67h-82zM220 680v-40h135v40h-135zM45 115v77h189q0 3 0.5 9.5t0.5 10.5v16h-175v74h175v33h-80h-93v207h173v30h-113v108h-77v85h77v55h98v-55h135v55h97v-55h78v-85h-78v-108h-112v-30h165v-36q72 147 103 316l97 -10
q-9 -57 -22 -107h287v-93q-19 -143 -70 -274l-95 37q43 105 65 237h-213q-42 -128 -97 -220l-55 38v-95h-165v-33h168v-74h-168v-16q0 -13 -1 -20h183v-77h-154q43 -55 121 -88q84 62 130 166.5t46 236.5v130h103v-130q0 -138 55 -244.5t157 -167.5l-35 -98
q-70 38 -129 108.5t-96 159.5q-35 -89 -89.5 -160t-118.5 -108l-32 86l-35 -63q-90 40 -151 126q-73 -112 -210 -159l-46 87q133 45 174 118h-167z" />
    <glyph glyph-name="glyph08409" unicode="&#xe0101;" 
d="M238 472h-83v-67h83v67zM338 472v-67h82v67h-82zM220 680v-40h135v40h-135zM45 115v77h189q0 3 0.5 9.5t0.5 10.5v16h-175v74h175v33h-80h-93v207h173v30h-113v108h-77v85h77v55h98v-55h135v55h97v-55h78v-85h-78v-108h-112v-30h165v-36q72 147 103 316l97 -10
q-9 -57 -22 -107h287v-93q-19 -143 -70 -274l-95 37q43 105 65 237h-213q-42 -128 -97 -220l-55 38v-95h-165v-33h168v-74h-168v-16q0 -13 -1 -20h183v-77h-154q43 -55 121 -88q84 62 130 166.5t46 236.5v130h103v-130q0 -138 55 -244.5t157 -167.5l-35 -98
q-70 38 -129 108.5t-96 159.5q-35 -89 -89.5 -160t-118.5 -108l-32 86l-35 -63q-90 40 -151 126q-73 -112 -210 -159l-46 87q133 45 174 118h-167z" />
    <glyph glyph-name="glyph08410" unicode="&#xe0103;" 
d="M172 800h98v-240q0 -56 -3 -107q37 106 61 227l84 -18q-35 -182 -95 -319l-57 23q-2 -22 -4 -35q97 -143 184 -309l-75 -64q-61 126 -133 245q-43 -179 -136 -281l-67 76q143 169 143 562v240zM33 334q32 143 32 334l85 -8q0 -203 -35 -352zM808 -75q-92 0 -213 7l-5 96
q102 -8 170 -8q23 0 33.5 12t21 72t16 176t11.5 335h-267q-61 -137 -135 -225l-70 70q56 68 101.5 166t70.5 204l103 -10q-13 -55 -33 -112h336q-3 -145 -5.5 -248t-7 -188.5t-9 -139.5t-13.5 -95t-17 -61.5t-23 -33t-28.5 -15t-36.5 -2.5zM450 282v93h330v-93h-330z" />
    <glyph glyph-name="glyph08410" unicode="&#xe0101;" 
d="M172 800h98v-240q0 -56 -3 -107q37 106 61 227l84 -18q-35 -182 -95 -319l-57 23q-2 -22 -4 -35q97 -143 184 -309l-75 -64q-61 126 -133 245q-43 -179 -136 -281l-67 76q143 169 143 562v240zM33 334q32 143 32 334l85 -8q0 -203 -35 -352zM808 -75q-92 0 -213 7l-5 96
q102 -8 170 -8q23 0 33.5 12t21 72t16 176t11.5 335h-267q-61 -137 -135 -225l-70 70q56 68 101.5 166t70.5 204l103 -10q-13 -55 -33 -112h336q-3 -145 -5.5 -248t-7 -188.5t-9 -139.5t-13.5 -95t-17 -61.5t-23 -33t-28.5 -15t-36.5 -2.5zM450 282v93h330v-93h-330z" />
    <glyph glyph-name="glyph08411" unicode="&#xe0103;" 
d="M50 648v87h246q-25 47 -45 80l96 23q35 -59 57 -103h198q35 65 51 102l99 -19q-17 -38 -41 -83h239v-87h-900zM51 -39q76 86 137 182l84 -43q-59 -100 -138 -191zM360 -88q-13 99 -35 197l100 12q25 -102 37 -198zM605 -88q-31 92 -77 192l96 25q49 -105 81 -196z
M866 -88q-65 98 -137 187l82 52q70 -87 138 -191zM398 278v257h-196v-375h-104v450h402v-310q0 -98 -16.5 -118t-98.5 -20l-100 6l-3 77q73 -5 83 -5q24 0 28.5 5t4.5 33zM215 438l27 72q64 -15 143 -40l-27 -72q-74 23 -143 40zM215 320l27 72q64 -15 143 -40l-27 -72
q-74 23 -143 40zM582 290v310h103v-310h-103zM802 615h106v-310q0 -98 -21 -121.5t-107 -23.5q-49 0 -135 5l-5 87q62 -4 120 -4q30 0 36 6.5t6 40.5v320z" />
    <glyph glyph-name="glyph08411" unicode="&#xe0101;" 
d="M50 648v87h246q-25 47 -45 80l96 23q35 -59 57 -103h198q35 65 51 102l99 -19q-17 -38 -41 -83h239v-87h-900zM51 -39q76 86 137 182l84 -43q-59 -100 -138 -191zM360 -88q-13 99 -35 197l100 12q25 -102 37 -198zM605 -88q-31 92 -77 192l96 25q49 -105 81 -196z
M866 -88q-65 98 -137 187l82 52q70 -87 138 -191zM398 278v257h-196v-375h-104v450h402v-310q0 -98 -16.5 -118t-98.5 -20l-100 6l-3 77q73 -5 83 -5q24 0 28.5 5t4.5 33zM215 438l27 72q64 -15 143 -40l-27 -72q-74 23 -143 40zM215 320l27 72q64 -15 143 -40l-27 -72
q-74 23 -143 40zM582 290v310h103v-310h-103zM802 615h106v-310q0 -98 -21 -121.5t-107 -23.5q-49 0 -135 5l-5 87q62 -4 120 -4q30 0 36 6.5t6 40.5v320z" />
    <glyph glyph-name="glyph08412" unicode="&#xe0104;" 
d="M348 595q-30 -127 -79 -237l-26 12q-8 -65 -9 -72q45 -69 84 -138q30 114 30 268v167zM452 490h366v70h-366v-70zM546 285h-108q0 -5 -9 -68q64 30 117 68zM28 334q27 151 27 334l80 -8q0 -196 -30 -352zM432 -12l-24 80q92 42 170 108v46q-67 -52 -130 -82l-20 66
q-24 -147 -93 -276l-83 58q16 33 27 58q-34 63 -71 124q-41 -152 -119 -248l-65 76q69 90 101.5 222t32.5 340v240h94v-240v-23q22 73 39 158l57 -14v87q355 0 577 40l25 -83q-202 -38 -498 -40v-45h470v-230h-478q0 -28 -1 -42h232v-378q0 -42 -16.5 -56t-66.5 -14
q-49 0 -82 2l-10 86q39 -3 60 -3q13 0 15.5 3.5t2.5 19.5v54q-61 -50 -146 -94zM710 -5l-25 80q86 41 157 98v49q-67 -52 -130 -82l-22 75q69 32 121 70h-116v83h245v-378q0 -42 -16 -56t-66 -14t-83 2l-10 86q39 -3 60 -3q13 0 15 3t2 20v52q-68 -53 -132 -85z" />
    <glyph glyph-name="glyph08412" unicode="&#xe0102;" 
d="M348 595q-30 -127 -79 -237l-26 12q-8 -65 -9 -72q45 -69 84 -138q30 114 30 268v167zM452 490h366v70h-366v-70zM546 285h-108q0 -5 -9 -68q64 30 117 68zM28 334q27 151 27 334l80 -8q0 -196 -30 -352zM432 -12l-24 80q92 42 170 108v46q-67 -52 -130 -82l-20 66
q-24 -147 -93 -276l-83 58q16 33 27 58q-34 63 -71 124q-41 -152 -119 -248l-65 76q69 90 101.5 222t32.5 340v240h94v-240v-23q22 73 39 158l57 -14v87q355 0 577 40l25 -83q-202 -38 -498 -40v-45h470v-230h-478q0 -28 -1 -42h232v-378q0 -42 -16.5 -56t-66.5 -14
q-49 0 -82 2l-10 86q39 -3 60 -3q13 0 15.5 3.5t2.5 19.5v54q-61 -50 -146 -94zM710 -5l-25 80q86 41 157 98v49q-67 -52 -130 -82l-22 75q69 32 121 70h-116v83h245v-378q0 -42 -16 -56t-66 -14t-83 2l-10 86q39 -3 60 -3q13 0 15 3t2 20v52q-68 -53 -132 -85z" />
    <glyph glyph-name="glyph08413" unicode="&#xe0103;" 
d="M822 620v48h-197v-102q0 -18 8.5 -21t56.5 -3q60 0 70.5 10.5t14.5 70.5zM80 120q53 99 82 218l103 -13q-3 -19 -16 -65h399v90h-513v54l-41 81q226 59 260 183h-176v-140h-106v224h373v83h110v-83h373v-224h-64q-11 -46 -44.5 -57t-139.5 -11q-59 0 -87.5 1.5t-46.5 9.5
t-21 19t-3 35v143h-64q-15 -76 -75 -137t-160 -101h692v-80h-160v-90h200v-85h-200v-107q0 -53 -3.5 -78t-21.5 -41.5t-45 -20t-83 -3.5q-68 0 -172 5l-5 88q156 -6 163 -6q44 0 52 6.5t8 43.5v113h-6q-242 -152 -537 -235l-45 85q219 55 419 150h-259q-16 -38 -40 -83z" />
    <glyph glyph-name="glyph08413" unicode="&#xe0101;" 
d="M822 620v48h-197v-102q0 -18 8.5 -21t56.5 -3q60 0 70.5 10.5t14.5 70.5zM80 120q53 99 82 218l103 -13q-3 -19 -16 -65h399v90h-513v54l-41 81q226 59 260 183h-176v-140h-106v224h373v83h110v-83h373v-224h-64q-11 -46 -44.5 -57t-139.5 -11q-59 0 -87.5 1.5t-46.5 9.5
t-21 19t-3 35v143h-64q-15 -76 -75 -137t-160 -101h692v-80h-160v-90h200v-85h-200v-107q0 -53 -3.5 -78t-21.5 -41.5t-45 -20t-83 -3.5q-68 0 -172 5l-5 88q156 -6 163 -6q44 0 52 6.5t8 43.5v113h-6q-242 -152 -537 -235l-45 85q219 55 419 150h-259q-16 -38 -40 -83z" />
    <glyph glyph-name="glyph08414" unicode="&#xe0103;" 
d="M618 520q29 52 50 100l45 -9q-8 21 -24 61h-74q-44 -52 -100 -94l-70 69q17 12 31 25h-91q28 -74 32 -85l-56 -16q4 -7 8.5 -15.5t10 -19t8.5 -16.5h230zM50 432v88h229q-25 48 -43 77l62 15l-24 60h-70q-45 -61 -108 -113l-72 67q109 93 156 206l100 -21q-6 -17 -22 -51
h247v-60q66 66 96 132l98 -22q-7 -20 -23 -50h276v-88h-152q28 -74 32 -85l-82 -24q-18 -36 -22 -43h222v-88h-900zM398 40v272h-196v-397h-104v473h402v-333q0 -37 -0.5 -56t-5.5 -37t-10.5 -24.5t-20.5 -12.5t-31 -6.5t-47 -0.5q-33 0 -100 4l-3 86q17 -1 36.5 -2.5
t30 -2.5t16.5 -1q24 0 28.5 5t4.5 33zM215 215l27 75q64 -15 143 -40l-27 -75q-74 23 -143 40zM215 90l27 75q64 -15 143 -40l-27 -75q-74 23 -143 40zM582 48v330h103v-330h-103zM802 392h106v-332q0 -98 -21 -121.5t-107 -23.5q-49 0 -135 5l-5 90q78 -5 120 -5
q30 0 36 6.5t6 40.5v340z" />
    <glyph glyph-name="glyph08414" unicode="&#xe0101;" 
d="M618 520q29 52 50 100l45 -9q-8 21 -24 61h-74q-44 -52 -100 -94l-70 69q17 12 31 25h-91q28 -74 32 -85l-56 -16q4 -7 8.5 -15.5t10 -19t8.5 -16.5h230zM50 432v88h229q-25 48 -43 77l62 15l-24 60h-70q-45 -61 -108 -113l-72 67q109 93 156 206l100 -21q-6 -17 -22 -51
h247v-60q66 66 96 132l98 -22q-7 -20 -23 -50h276v-88h-152q28 -74 32 -85l-82 -24q-18 -36 -22 -43h222v-88h-900zM398 40v272h-196v-397h-104v473h402v-333q0 -37 -0.5 -56t-5.5 -37t-10.5 -24.5t-20.5 -12.5t-31 -6.5t-47 -0.5q-33 0 -100 4l-3 86q17 -1 36.5 -2.5
t30 -2.5t16.5 -1q24 0 28.5 5t4.5 33zM215 215l27 75q64 -15 143 -40l-27 -75q-74 23 -143 40zM215 90l27 75q64 -15 143 -40l-27 -75q-74 23 -143 40zM582 48v330h103v-330h-103zM802 392h106v-332q0 -98 -21 -121.5t-107 -23.5q-49 0 -135 5l-5 90q78 -5 120 -5
q30 0 36 6.5t6 40.5v340z" />
    <glyph glyph-name="glyph08415" unicode="&#xe0103;" 
d="M640 542v-77h185v77h-185zM640 618h185v77h-185v-77zM804 301q33 31 72 81h-109q13 -39 37 -81zM152 460v-82v-76h68v158h-68zM152 548h68v150h-68v-150zM458 602q-72 77 -138 133l60 70q76 -65 140 -133zM458 385q-72 77 -138 133l60 70q76 -65 140 -133zM328 345h150
v-217q15 -36 30 -53l-10 70q28 4 42 7v628h388v-391l34 -34q-54 -76 -108 -124q50 -57 116 -93l-42 -86q-87 41 -155 128.5t-99 201.5h-34v-205q60 17 102 35l10 -84q-111 -49 -229 -68q29 -24 82 -33t153 -9h212l-2 -90h-233q-127 0 -195.5 19t-103.5 66q-39 -51 -96 -103
l-36 64q-4 -36 -18 -46t-49 -10q-20 0 -93 5l-7 92q39 -5 61 -5q16 0 19 6.5t3 45.5v153h-71q-9 -197 -54 -307l-75 74q25 70 35 164.5t10 281.5v360h243v-736q0 -7 -0.5 -19.5t-0.5 -17.5q39 36 68 72v168h-47v90z" />
    <glyph glyph-name="glyph08415" unicode="&#xe0101;" 
d="M640 542v-77h185v77h-185zM640 618h185v77h-185v-77zM804 301q33 31 72 81h-109q13 -39 37 -81zM152 460v-82v-76h68v158h-68zM152 548h68v150h-68v-150zM458 602q-72 77 -138 133l60 70q76 -65 140 -133zM458 385q-72 77 -138 133l60 70q76 -65 140 -133zM328 345h150
v-217q15 -36 30 -53l-10 70q28 4 42 7v628h388v-391l34 -34q-54 -76 -108 -124q50 -57 116 -93l-42 -86q-87 41 -155 128.5t-99 201.5h-34v-205q60 17 102 35l10 -84q-111 -49 -229 -68q29 -24 82 -33t153 -9h212l-2 -90h-233q-127 0 -195.5 19t-103.5 66q-39 -51 -96 -103
l-36 64q-4 -36 -18 -46t-49 -10q-20 0 -93 5l-7 92q39 -5 61 -5q16 0 19 6.5t3 45.5v153h-71q-9 -197 -54 -307l-75 74q25 70 35 164.5t10 281.5v360h243v-736q0 -7 -0.5 -19.5t-0.5 -17.5q39 36 68 72v168h-47v90z" />
    <glyph glyph-name="glyph08416" unicode="&#xe0103;" 
d="M378 665h244v33h-244v-33zM212 538h126v60h-126v-60zM562 538v60h-124v-60h124zM662 538h126v60h-126v-60zM783 432q36 24 52 36h-320v-36h268zM577 328q47 19 78 34h-140v-34h62zM302 108h463v42h-463v-42zM302 48v-46h463v46h-463zM748 218l33 34h-173q-42 -17 -92 -34
h232zM945 778v-80h-213v-33h163v-197h-39l64 -46q-61 -46 -150 -94h190v-76h-116q66 -44 114 -87l-56 -65q-10 8 -30 26v-226h-107v30h-463v-30h-107v213q-78 -18 -130 -28l-30 87q178 34 331 80h-326v76h362v34h-280v70h280v36h-190h-107v197h163v33h-213v80h213v57h110
v-57h244v57h110v-57h213z" />
    <glyph glyph-name="glyph08416" unicode="&#xe0101;" 
d="M378 665h244v33h-244v-33zM212 538h126v60h-126v-60zM562 538v60h-124v-60h124zM662 538h126v60h-126v-60zM783 432q36 24 52 36h-320v-36h268zM577 328q47 19 78 34h-140v-34h62zM302 108h463v42h-463v-42zM302 48v-46h463v46h-463zM748 218l33 34h-173q-42 -17 -92 -34
h232zM945 778v-80h-213v-33h163v-197h-39l64 -46q-61 -46 -150 -94h190v-76h-116q66 -44 114 -87l-56 -65q-10 8 -30 26v-226h-107v30h-463v-30h-107v213q-78 -18 -130 -28l-30 87q178 34 331 80h-326v76h362v34h-280v70h280v36h-190h-107v197h163v33h-213v80h213v57h110
v-57h244v57h110v-57h213z" />
    <glyph glyph-name="glyph08417" unicode="&#xe0104;" 
d="M783 502h-101v-74h21q50 43 80 74zM570 215v-60h250v60h-250zM822 290q-3 3 -37 28l26 24h-66q-22 -18 -70 -52h147zM165 2h113v78h-113v-78zM570 20h250v62h-250v-62zM70 540v75h295v-75h-295zM78 305v73h284v-73h-284zM78 192v73h284v-36q120 43 228 113h-200v76h-348
v82h353v-72h183v74h-146v78h146v58h47v37h-250v-37h-105v37h-220v87h220v68h105v-68h250v68h105v-68h220v-87h-220v-50h-48v-45h168q24 32 35 48l80 -56q-53 -73 -125 -144h132v-86h-88q51 -39 94 -80l-53 -57v-297h-105v34h-250v-34h-102v261q-52 -24 -78 -34l-30 57h-282z
M165 -100h-95v250h298v-218h-203v-32z" />
    <glyph glyph-name="glyph08417" unicode="&#xe0101;" 
d="M783 502h-101v-74h21q50 43 80 74zM570 215v-60h250v60h-250zM822 290q-3 3 -37 28l26 24h-66q-22 -18 -70 -52h147zM165 2h113v78h-113v-78zM570 20h250v62h-250v-62zM70 540v75h295v-75h-295zM78 305v73h284v-73h-284zM78 192v73h284v-36q120 43 228 113h-200v76h-348
v82h353v-72h183v74h-146v78h146v58h47v37h-250v-37h-105v37h-220v87h220v68h105v-68h250v68h105v-68h220v-87h-220v-50h-48v-45h168q24 32 35 48l80 -56q-53 -73 -125 -144h132v-86h-88q51 -39 94 -80l-53 -57v-297h-105v34h-250v-34h-102v261q-52 -24 -78 -34l-30 57h-282z
M165 -100h-95v250h298v-218h-203v-32z" />
    <glyph glyph-name="glyph08418" unicode="&#xe0103;" 
d="M318 598h-40v-223h40v223zM138 598v-223h40v223h-40zM550 280v-90h290v90h-290zM550 360h290v82h-290v-82zM318 238l82 24q19 -56 45 -156v407l-43 37v-262h-120v-199l75 24q-15 54 -39 125zM820 -78q-1 0 -123 6l-2 89q81 -5 110 -5q26 0 30.5 7t4.5 46v45h-290v-190
h-105v37l-47 -13q-8 42 -18 79q-185 -66 -341 -88l-10 97q76 12 143 28v228h-34v-60h-90v460h90h34v122h110v-122h36h84v-102q72 91 118 204l90 -32q-49 -131 -127 -230h149v284h103v-284h159q-61 124 -139 222l87 42q84 -107 143 -234l-40 -30v-468q0 -37 -0.5 -56
t-5.5 -37.5t-11.5 -25t-23 -12.5t-33.5 -6.5t-51 -0.5z" />
    <glyph glyph-name="glyph08418" unicode="&#xe0101;" 
d="M318 598h-40v-223h40v223zM138 598v-223h40v223h-40zM550 280v-90h290v90h-290zM550 360h290v82h-290v-82zM318 238l82 24q19 -56 45 -156v407l-43 37v-262h-120v-199l75 24q-15 54 -39 125zM820 -78q-1 0 -123 6l-2 89q81 -5 110 -5q26 0 30.5 7t4.5 46v45h-290v-190
h-105v37l-47 -13q-8 42 -18 79q-185 -66 -341 -88l-10 97q76 12 143 28v228h-34v-60h-90v460h90h34v122h110v-122h36h84v-102q72 91 118 204l90 -32q-49 -131 -127 -230h149v284h103v-284h159q-61 124 -139 222l87 42q84 -107 143 -234l-40 -30v-468q0 -37 -0.5 -56
t-5.5 -37.5t-11.5 -25t-23 -12.5t-33.5 -6.5t-51 -0.5z" />
    <glyph glyph-name="glyph08419" unicode="&#xe0103;" 
d="M366 662q-45 40 -85 83q-30 -36 -75 -83h160zM185 438h167v47h-167v-47zM185 320h167v50h-167v-50zM662 588h-72v-223h72v223zM768 588v-223h77v223h-77zM810 205l94 20q46 -148 78 -301l-94 -21q-4 20 -19 85q-200 -42 -381 -53l-11 92q82 4 185 17v234h-72v-60h-98v370
v62l-34 -60q-20 14 -58 44v-42h-225v40q-39 -37 -85 -74h362v-310h-267v-48h277v-78h-277v-50h273v-80h-273v-82h-105v639q-14 -11 -42 -31l-18 109q116 80 211 185h89q86 -80 188 -134h154v137h106v-137h174v-400h-174v-219q22 3 80 14q-9 36 -38 132z" />
    <glyph glyph-name="glyph08419" unicode="&#xe0101;" 
d="M366 662q-45 40 -85 83q-30 -36 -75 -83h160zM185 438h167v47h-167v-47zM185 320h167v50h-167v-50zM662 588h-72v-223h72v223zM768 588v-223h77v223h-77zM810 205l94 20q46 -148 78 -301l-94 -21q-4 20 -19 85q-200 -42 -381 -53l-11 92q82 4 185 17v234h-72v-60h-98v370
v62l-34 -60q-20 14 -58 44v-42h-225v40q-39 -37 -85 -74h362v-310h-267v-48h277v-78h-277v-50h273v-80h-273v-82h-105v639q-14 -11 -42 -31l-18 109q116 80 211 185h89q86 -80 188 -134h154v137h106v-137h174v-400h-174v-219q22 3 80 14q-9 36 -38 132z" />
    <glyph glyph-name="glyph08420" unicode="&#xe0104;" 
d="M162 30h118v90h-118v-90zM68 692v88h300v-88h-300zM40 548v90h340v-90h-340zM75 405v85h290v-85h-290zM75 262v86h290v-86h-290zM408 338v92h104q3 74 3 168v102h-107v90h467q0 -740 17 -740q7 0 18 155l80 -25q-8 -158 -32.5 -214t-69.5 -56q-41 0 -59.5 15t-33 98.5
t-17.5 231.5t-3 445h-160v-102q0 -100 -4 -168h121v-92h-127q-15 -149 -54.5 -243.5t-116.5 -175.5l-64 68v-42h-208v-40h-94v300h302v-205q61 68 92 143.5t43 194.5h-97z" />
    <glyph glyph-name="glyph08420" unicode="&#xe0101;" 
d="M162 30h118v90h-118v-90zM68 692v88h300v-88h-300zM40 548v90h340v-90h-340zM75 405v85h290v-85h-290zM75 262v86h290v-86h-290zM408 338v92h104q3 74 3 168v102h-107v90h467q0 -740 17 -740q7 0 18 155l80 -25q-8 -158 -32.5 -214t-69.5 -56q-41 0 -59.5 15t-33 98.5
t-17.5 231.5t-3 445h-160v-102q0 -100 -4 -168h121v-92h-127q-15 -149 -54.5 -243.5t-116.5 -175.5l-64 68v-42h-208v-40h-94v300h302v-205q61 68 92 143.5t43 194.5h-97z" />
    <glyph glyph-name="glyph08421" unicode="&#xe0103;" 
d="M162 -55v-40h-94v300h290v-260h-196zM162 30h106v90h-106v-90zM479 530h371q-101 86 -188 200q-89 -119 -183 -200zM68 692v88h287v-88h-287zM75 405v85h277v-85h-277zM75 262v86h277v-86h-277zM958 28v-90h-580v90h234v180h-197v87h197v147h-174v54l-48 -36l-28 88h-317
v90h327v-75q97 65 170 152h-127v87h305q104 -136 250 -242l-30 -100q-16 11 -48 35v-53h-170v-147h198v-87h-198v-180h236z" />
    <glyph glyph-name="glyph08421" unicode="&#xe0101;" 
d="M162 -55v-40h-94v300h290v-260h-196zM162 30h106v90h-106v-90zM479 530h371q-101 86 -188 200q-89 -119 -183 -200zM68 692v88h287v-88h-287zM75 405v85h277v-85h-277zM75 262v86h277v-86h-277zM958 28v-90h-580v90h234v180h-197v87h197v147h-174v54l-48 -36l-28 88h-317
v90h327v-75q97 65 170 152h-127v87h305q104 -136 250 -242l-30 -100q-16 11 -48 35v-53h-170v-147h198v-87h-198v-180h236z" />
    <glyph glyph-name="glyph08422" unicode="&#xe0103;" 
d="M818 692h102v-582h-572v582h100v-492h132v610h105v-610h133v492zM308 665l-68 -67q-75 65 -180 144l70 66q84 -63 178 -143zM308 450l-68 -68q-93 80 -180 146l70 64q95 -71 178 -142zM50 330h225v-204q25 -45 62 -66.5t111.5 -31.5t216.5 -10h283l-6 -90h-282
q-189 0 -284.5 22.5t-142.5 79.5q-58 -58 -148 -119l-48 88q80 54 135 106v135h-122v90z" />
    <glyph glyph-name="glyph08422" unicode="&#xe0101;" 
d="M818 692h102v-582h-572v582h100v-492h132v610h105v-610h133v492zM308 665l-68 -67q-75 65 -180 144l70 66q84 -63 178 -143zM308 450l-68 -68q-93 80 -180 146l70 64q95 -71 178 -142zM50 330h225v-204q25 -45 62 -66.5t111.5 -31.5t216.5 -10h283l-6 -90h-282
q-189 0 -284.5 22.5t-142.5 79.5q-58 -58 -148 -119l-48 88q80 54 135 106v135h-122v90z" />
    <glyph glyph-name="glyph08423" unicode="&#xe0103;" 
d="M458 360h-106v278h553v-278h-447zM458 445h342v107h-342v-107zM290 698v87h658v-87h-658zM305 102v90h156q-34 86 -53 126l100 27q37 -78 64 -153h112q38 67 66 153l100 -25q-20 -64 -54 -128h152v-90h-643zM305 665l-67 -67q-75 65 -180 144l70 66q75 -57 177 -143z
M305 450l-67 -68q-93 80 -180 146l70 64q86 -65 177 -142zM50 330h225v-204q25 -45 62 -66.5t111.5 -31.5t216.5 -10h283l-6 -90h-282q-189 0 -284.5 22.5t-142.5 79.5q-58 -58 -148 -119l-48 88q80 54 135 106v135h-122v90z" />
    <glyph glyph-name="glyph08423" unicode="&#xe0101;" 
d="M458 360h-106v278h553v-278h-447zM458 445h342v107h-342v-107zM290 698v87h658v-87h-658zM305 102v90h156q-34 86 -53 126l100 27q37 -78 64 -153h112q38 67 66 153l100 -25q-20 -64 -54 -128h152v-90h-643zM305 665l-67 -67q-75 65 -180 144l70 66q75 -57 177 -143z
M305 450l-67 -68q-93 80 -180 146l70 64q86 -65 177 -142zM50 330h225v-204q25 -45 62 -66.5t111.5 -31.5t216.5 -10h283l-6 -90h-282q-189 0 -284.5 22.5t-142.5 79.5q-58 -58 -148 -119l-48 88q80 54 135 106v135h-122v90z" />
    <glyph glyph-name="glyph08424" unicode="&#xe0103;" 
d="M844 411q-18 56 -27 81q-24 -30 -76 -88zM515 305l-5 83l107 7q3 3 8 8.5t7 8.5q-53 80 -110 158l68 68q16 -22 24 -34q39 48 61 78q-60 -2 -93 -2l-4 85q214 0 352 40l15 -85q-61 -17 -153 -28q-54 -78 -125 -164q20 -30 29 -44q85 101 159 206l75 -50
q-55 -76 -103 -135l67 23q39 -113 74 -233l-80 -27q-3 10 -10 31.5t-10 32.5l-96 -7v-277h-100v269zM478 108q63 82 107 182l77 -30q-41 -105 -110 -198zM782 262l78 38q66 -105 110 -202l-78 -40q-48 104 -110 204zM288 672l-66 -70q-101 85 -172 138l68 68
q84 -62 170 -136zM42 330h216v-204q18 -32 36 -48l-6 74q26 -4 54 -4q17 0 20 5t3 35v189l-87 -17l-7 64l-41 -44q-84 73 -180 145l68 67q99 -75 170 -136l77 15v124h28q35 49 63 103h-184v87h288v-87q-44 -94 -92 -160v-47l87 17l7 -93l-94 -18v-232q0 -71 -13 -88t-67 -17
q-28 0 -75 4q39 -26 114 -36t221 -10h304l-4 -90h-306q-185 0 -279.5 21.5t-142.5 75.5q-60 -58 -142 -114l-48 88q74 50 125 96v145h-113v90z" />
    <glyph glyph-name="glyph08424" unicode="&#xe0101;" 
d="M844 411q-18 56 -27 81q-24 -30 -76 -88zM515 305l-5 83l107 7q3 3 8 8.5t7 8.5q-53 80 -110 158l68 68q16 -22 24 -34q39 48 61 78q-60 -2 -93 -2l-4 85q214 0 352 40l15 -85q-61 -17 -153 -28q-54 -78 -125 -164q20 -30 29 -44q85 101 159 206l75 -50
q-55 -76 -103 -135l67 23q39 -113 74 -233l-80 -27q-3 10 -10 31.5t-10 32.5l-96 -7v-277h-100v269zM478 108q63 82 107 182l77 -30q-41 -105 -110 -198zM782 262l78 38q66 -105 110 -202l-78 -40q-48 104 -110 204zM288 672l-66 -70q-101 85 -172 138l68 68
q84 -62 170 -136zM42 330h216v-204q18 -32 36 -48l-6 74q26 -4 54 -4q17 0 20 5t3 35v189l-87 -17l-7 64l-41 -44q-84 73 -180 145l68 67q99 -75 170 -136l77 15v124h28q35 49 63 103h-184v87h288v-87q-44 -94 -92 -160v-47l87 17l7 -93l-94 -18v-232q0 -71 -13 -88t-67 -17
q-28 0 -75 4q39 -26 114 -36t221 -10h304l-4 -90h-306q-185 0 -279.5 21.5t-142.5 75.5q-60 -58 -142 -114l-48 88q74 50 125 96v145h-113v90z" />
    <glyph glyph-name="glyph08425" unicode="&#xe0103;" 
d="M755 508v-69q0 -37 -1 -54h91v123h-90zM755 588h90v114h-90v-114zM542 560h90v-322h-90v42h-40q-10 -79 -35.5 -130t-76.5 -100l-85 58q46 40 67.5 76.5t30.5 95.5h-31v-55h-84v335h92v-192h31q1 28 1 97v115h-134v88h78q-32 63 -64 112l86 32q33 -50 67 -120l-65 -24h86
q41 83 66 147l90 -25q-24 -63 -53 -122h66v-88h-125v-150q0 -42 -1 -62h33v192zM662 790h280v-605q0 -83 -11.5 -101.5t-62.5 -18.5q-28 0 -116 5l-4 90q54 -5 74 -5q17 0 20 6t3 37v107h-97q-18 -158 -98 -263l-88 53q57 69 78.5 148.5t21.5 231.5v315zM270 682l-65 -70
q-74 66 -155 128l68 68q70 -54 152 -126zM272 465l-64 -70q-67 59 -158 130l68 67q82 -63 154 -127zM42 335h216v-209q25 -45 62 -66.5t111.5 -31.5t216.5 -10h304l-4 -90h-306q-185 0 -279.5 21.5t-142.5 75.5q-60 -58 -142 -114l-48 88q74 50 125 96v150h-113v90z" />
    <glyph glyph-name="glyph08425" unicode="&#xe0101;" 
d="M755 508v-69q0 -37 -1 -54h91v123h-90zM755 588h90v114h-90v-114zM542 560h90v-322h-90v42h-40q-10 -79 -35.5 -130t-76.5 -100l-85 58q46 40 67.5 76.5t30.5 95.5h-31v-55h-84v335h92v-192h31q1 28 1 97v115h-134v88h78q-32 63 -64 112l86 32q33 -50 67 -120l-65 -24h86
q41 83 66 147l90 -25q-24 -63 -53 -122h66v-88h-125v-150q0 -42 -1 -62h33v192zM662 790h280v-605q0 -83 -11.5 -101.5t-62.5 -18.5q-28 0 -116 5l-4 90q54 -5 74 -5q17 0 20 6t3 37v107h-97q-18 -158 -98 -263l-88 53q57 69 78.5 148.5t21.5 231.5v315zM270 682l-65 -70
q-74 66 -155 128l68 68q70 -54 152 -126zM272 465l-64 -70q-67 59 -158 130l68 67q82 -63 154 -127zM42 335h216v-209q25 -45 62 -66.5t111.5 -31.5t216.5 -10h304l-4 -90h-306q-185 0 -279.5 21.5t-142.5 75.5q-60 -58 -142 -114l-48 88q74 50 125 96v150h-113v90z" />
    <glyph glyph-name="glyph08426" unicode="&#xe0103;" 
d="M210 270q68 39 96.5 73t33.5 79h-130v-152zM210 30h580v68h-580v-68zM442 578v-73h90v73h-90zM790 315v107h-158v-60q0 -35 7 -41t46 -6h105zM985 632l-27 -92q-88 38 -158 87v-49h-168v-73h263v-597h-105v42h-580v-42h-105v597h237v73h-142v49q-70 -49 -158 -87l-27 92
q153 68 253 173l70 -57q-43 -47 -94 -88h512q-38 30 -68 60h-330v85h374q100 -105 253 -173zM532 422h-94q-8 -77 -47 -127.5t-133 -104.5l-48 57v-72h580v63h-152q-62 0 -84 20.5t-22 79.5v84z" />
    <glyph glyph-name="glyph08426" unicode="&#xe0101;" 
d="M210 270q68 39 96.5 73t33.5 79h-130v-152zM210 30h580v68h-580v-68zM442 578v-73h90v73h-90zM790 315v107h-158v-60q0 -35 7 -41t46 -6h105zM985 632l-27 -92q-88 38 -158 87v-49h-168v-73h263v-597h-105v42h-580v-42h-105v597h237v73h-142v49q-70 -49 -158 -87l-27 92
q153 68 253 173l70 -57q-43 -47 -94 -88h512q-38 30 -68 60h-330v85h374q100 -105 253 -173zM532 422h-94q-8 -77 -47 -127.5t-133 -104.5l-48 57v-72h580v63h-152q-62 0 -84 20.5t-22 79.5v84z" />
    <glyph glyph-name="glyph08427" unicode="&#xe0103;" 
d="M350 268v104h-58v-104h58zM150 268h58v104h-58v-104zM188 645v-60h124v60h-124zM580 280v-90h260v90h-260zM580 360h260v82h-260v-82zM405 508h-103v-53h133v-270h-85h-48v-65h150v-85h-150v-125h-104v125h-166v85h166v65h-48h-88v270h136v53h-106v137h-57v85h57v75h96
v-75h124v75h93v-75h50v-85h-50v-137zM820 -78q-1 0 -123 6l-2 89q81 -5 110 -5q26 0 30.5 7t4.5 46v45h-260v-190h-105v591l-60 54q82 100 130 225l87 -32q-47 -129 -123 -230h138v284h103v-284h147q-59 122 -135 222l86 42q77 -102 137 -234l-40 -31v-467q0 -37 -0.5 -56
t-5.5 -37.5t-11.5 -25t-23 -12.5t-33.5 -6.5t-51 -0.5z" />
    <glyph glyph-name="glyph08427" unicode="&#xe0101;" 
d="M350 268v104h-58v-104h58zM150 268h58v104h-58v-104zM188 645v-60h124v60h-124zM580 280v-90h260v90h-260zM580 360h260v82h-260v-82zM405 508h-103v-53h133v-270h-85h-48v-65h150v-85h-150v-125h-104v125h-166v85h166v65h-48h-88v270h136v53h-106v137h-57v85h57v75h96
v-75h124v75h93v-75h50v-85h-50v-137zM820 -78q-1 0 -123 6l-2 89q81 -5 110 -5q26 0 30.5 7t4.5 46v45h-260v-190h-105v591l-60 54q82 100 130 225l87 -32q-47 -129 -123 -230h138v284h103v-284h147q-59 122 -135 222l86 42q77 -102 137 -234l-40 -31v-467q0 -37 -0.5 -56
t-5.5 -37.5t-11.5 -25t-23 -12.5t-33.5 -6.5t-51 -0.5z" />
    <glyph glyph-name="glyph08428" unicode="&#xe0100;" 
d="M965 392h-147v-200h134v-87h-382v87h142v200h-154v93h154v168q-92 -14 -144 -18l-6 93q181 17 378 72l18 -92q-67 -20 -140 -35v-188h147v-93zM310 125l-65 55q29 48 50 101q-29 -13 -75 -31v-190q0 -53 -2.5 -79t-14.5 -42.5t-29.5 -20t-53.5 -3.5q-33 0 -83 5l-4 87
q41 -5 62 -5q17 0 20 7t3 46v160q-48 -15 -83 -23l-7 96q38 8 90 23v241h-88v90h88v168h102v-168h78v-90h-78v-207q15 5 74 30l4 -84q13 38 17 51h77q13 -64 28 -107q23 68 29 150h-151v87q82 105 135 208h-135v90h240v-90q-54 -115 -122 -208h124v-87q-15 -142 -67 -256
q45 -61 121 -86t201 -25h173l-3 -90h-170q-141 0 -228 27.5t-139 91.5q-50 -77 -120 -135l-60 93q80 59 127 133q-17 44 -25 74q-15 -49 -40 -87z" />
    <glyph glyph-name="glyph08429" unicode="&#xe0100;" 
d="M270 410h-88v-72h88v72zM270 555h-88v-67h88v67zM270 632v68h-88v-68h88zM657 127q-37 54 -69 133q-26 -57 -60 -98l-43 34q-1 -116 -11 -181q108 44 183 112zM33 -31q30 129 40 259l67 -9q-9 -139 -38 -268zM168 -25q-4 108 -15 239l59 9q14 -127 18 -240zM255 24
q-7 77 -26 194l58 10q20 -116 28 -195zM500 712l65 76q79 -42 179 -112q71 64 121 136l85 -52q-49 -74 -123 -145q60 -46 141 -113l-66 -77q-81 69 -152 125q-111 -85 -222 -130l-58 85q100 40 194 107q-86 59 -164 100zM835 418l100 -30q-56 -162 -140 -265
q62 -57 175 -111l-48 -92q-119 53 -198 129q-85 -76 -209 -129l-43 83q-9 -51 -26.5 -68t-50.5 -17q-50 0 -113 7l-4 90q47 -7 82 -7q14 0 19 11.5t7 63.5l-51 -9q-7 53 -30 150l55 10q20 -88 27 -130v148h-309v533h404v-85h-112v-68h100v-77h-100v-67h100v-78h-100v-72h115
v-67q49 68 70 134h95q32 -127 78 -201q64 86 107 214z" />
    <glyph glyph-name="glyph08430" unicode="&#xe0103;" 
d="M541 368h241v154h-227q-2 -88 -14 -154zM218 368h214q11 66 13 154h-227v-154zM829 104q-59 71 -127 128l58 50h-110v-221q0 -29 13 -35t79 -6q58 0 70.5 11.5t16.5 72.5zM115 678l-5 87q458 0 768 45l17 -85q-156 -22 -340 -34v-81h330v-328h-90q67 -60 110 -114
l-59 -52l89 -6q-3 -49 -5 -73.5t-11.5 -49t-19 -33t-35 -15.5t-52 -8t-77.5 -1q-48 0 -76.5 1t-52.5 6t-35 11t-18.5 20.5t-9 30t-1.5 42.5v241h-23q-89 -276 -409 -364l-45 87q145 42 227.5 106.5t118.5 170.5h-193v-47h-103v375h330v75q-144 -7 -330 -7z" />
    <glyph glyph-name="glyph08430" unicode="&#xe0101;" 
d="M541 368h241v154h-227q-2 -88 -14 -154zM218 368h214q11 66 13 154h-227v-154zM829 104q-59 71 -127 128l58 50h-110v-221q0 -29 13 -35t79 -6q58 0 70.5 11.5t16.5 72.5zM115 678l-5 87q458 0 768 45l17 -85q-156 -22 -340 -34v-81h330v-328h-90q67 -60 110 -114
l-59 -52l89 -6q-3 -49 -5 -73.5t-11.5 -49t-19 -33t-35 -15.5t-52 -8t-77.5 -1q-48 0 -76.5 1t-52.5 6t-35 11t-18.5 20.5t-9 30t-1.5 42.5v241h-23q-89 -276 -409 -364l-45 87q145 42 227.5 106.5t118.5 170.5h-193v-47h-103v375h330v75q-144 -7 -330 -7z" />
    <glyph glyph-name="glyph08431" unicode="&#xe0103;" 
d="M743 234q59 100 90 238h-263v-45l74 32q36 -125 99 -225zM178 748q-23 -120 -73 -253l-87 25q45 122 70 250zM388 770q37 -106 74 -250l-87 -25q-38 137 -77 250zM435 310l5 -90q-97 -20 -169 -32q-36 -162 -141 -273l-82 63q85 85 116 195q-44 -5 -119 -13l-7 90
q81 7 145 16q7 52 9 119h-154v87h154v328h100v-328h150v-87h-150q-2 -55 -6 -103q84 14 149 28zM470 450v330h495v-90h-395v-130h365v-88q-42 -194 -129 -324q76 -88 179 -141l-50 -86q-109 54 -192 148q-87 -93 -213 -149l-45 90q120 53 196 139q-69 101 -111 227
q-4 -145 -44 -254.5t-124 -206.5l-82 63q81 94 115.5 202t34.5 270z" />
    <glyph glyph-name="glyph08431" unicode="&#xe0101;" 
d="M743 234q59 100 90 238h-263v-45l74 32q36 -125 99 -225zM178 748q-23 -120 -73 -253l-87 25q45 122 70 250zM388 770q37 -106 74 -250l-87 -25q-38 137 -77 250zM435 310l5 -90q-97 -20 -169 -32q-36 -162 -141 -273l-82 63q85 85 116 195q-44 -5 -119 -13l-7 90
q81 7 145 16q7 52 9 119h-154v87h154v328h100v-328h150v-87h-150q-2 -55 -6 -103q84 14 149 28zM470 450v330h495v-90h-395v-130h365v-88q-42 -194 -129 -324q76 -88 179 -141l-50 -86q-109 54 -192 148q-87 -93 -213 -149l-45 90q120 53 196 139q-69 101 -111 227
q-4 -145 -44 -254.5t-124 -206.5l-82 63q81 94 115.5 202t34.5 270z" />
    <glyph glyph-name="glyph08432" unicode="&#xe0103;" 
d="M781 650h-123v-105h26q56 54 97 105zM518 205h294v83h-294v-83zM518 122v-84h294v84h-294zM338 190l-46 98q162 70 291 170h-271v34h-70v-359q58 24 116 52l10 -95q-168 -80 -328 -128l-12 93q63 19 110 37v400h-106v90h106v210h104v-210h103v-37h205v105h-182v85h182v93
h108v-93h187q23 33 37 57l86 -47q-61 -105 -146 -200h150v-87h-235q-49 -47 -99 -86h178q-18 30 -26 43l92 35q51 -78 90 -180l-54 -23v-335h-106v40h-294v-40h-106l1 315q-25 -13 -75 -37z" />
    <glyph glyph-name="glyph08432" unicode="&#xe0101;" 
d="M781 650h-123v-105h26q56 54 97 105zM518 205h294v83h-294v-83zM518 122v-84h294v84h-294zM338 190l-46 98q162 70 291 170h-271v34h-70v-359q58 24 116 52l10 -95q-168 -80 -328 -128l-12 93q63 19 110 37v400h-106v90h106v210h104v-210h103v-37h205v105h-182v85h182v93
h108v-93h187q23 33 37 57l86 -47q-61 -105 -146 -200h150v-87h-235q-49 -47 -99 -86h178q-18 30 -26 43l92 35q51 -78 90 -180l-54 -23v-335h-106v40h-294v-40h-106l1 315q-25 -13 -75 -37z" />
    <glyph glyph-name="glyph08434" unicode="&#xe0103;" 
d="M637 588q49 57 74 92h-198q-25 -42 -61 -92h185zM677 335h163v165h-150q-2 -93 -13 -165zM440 335h136q13 77 14 165h-150v-165zM305 428l-60 87q15 11 43 37h-56v-199q40 15 68 27l5 -95q-42 -18 -73 -29v-196q0 -99 -17 -122t-90 -23q-18 0 -83 5l-4 87q62 -5 72 -5
q13 0 15.5 7t2.5 46v167q-57 -15 -90 -22l-8 95q57 12 98 24v233h-96v90h96v168h104v-168h70v-75q109 110 170 268l103 -15q-12 -36 -20 -55h273v-85q-19 -33 -65 -92h179v-338h-177v-212q0 -22 7.5 -26t47.5 -4q39 0 46.5 20t11.5 137l97 -10q-2 -51 -3.5 -77.5t-6 -57.5
t-7 -43.5t-13 -27.5t-18 -18.5t-27.5 -8t-35.5 -4.5h-48.5q-74 0 -104 5t-40 18t-10 46v263h-4q-38 -137 -123.5 -221.5t-219.5 -126.5l-53 90q117 36 188 97t105 161h-115v-60h-100v269q-11 -11 -35 -31z" />
    <glyph glyph-name="glyph08434" unicode="&#xe0101;" 
d="M637 588q49 57 74 92h-198q-25 -42 -61 -92h185zM677 335h163v165h-150q-2 -93 -13 -165zM440 335h136q13 77 14 165h-150v-165zM305 428l-60 87q15 11 43 37h-56v-199q40 15 68 27l5 -95q-42 -18 -73 -29v-196q0 -99 -17 -122t-90 -23q-18 0 -83 5l-4 87q62 -5 72 -5
q13 0 15.5 7t2.5 46v167q-57 -15 -90 -22l-8 95q57 12 98 24v233h-96v90h96v168h104v-168h70v-75q109 110 170 268l103 -15q-12 -36 -20 -55h273v-85q-19 -33 -65 -92h179v-338h-177v-212q0 -22 7.5 -26t47.5 -4q39 0 46.5 20t11.5 137l97 -10q-2 -51 -3.5 -77.5t-6 -57.5
t-7 -43.5t-13 -27.5t-18 -18.5t-27.5 -8t-35.5 -4.5h-48.5q-74 0 -104 5t-40 18t-10 46v263h-4q-38 -137 -123.5 -221.5t-219.5 -126.5l-53 90q117 36 188 97t105 161h-115v-60h-100v269q-11 -11 -35 -31z" />
    <glyph glyph-name="glyph08435" unicode="&#xe0103;" 
d="M970 548v-90h-272v-176q0 -80 -22 -106t-91 -26q-38 0 -113 5l-2 90q67 -5 85 -5q26 0 30.5 7t4.5 48v163h-300v84h-54v-181q39 14 80 32l15 -90q-47 -21 -95 -38v-205q0 -99 -17 -122t-90 -23q-18 0 -83 5l-4 87q62 -5 72 -5q13 0 15 7t2 46v176q-15 -4 -89 -23l-7 94
q32 7 96 25v215h-95v90h95v178h105v-178h85v-84h59v237h102v-237h108v280h108v-90h240v-86h-240v-104h272zM510 405q-58 -148 -172 -275l-80 58q104 114 164 257zM310 -98l-30 96q243 20 386.5 121t205.5 291l96 -45q-142 -413 -658 -463z" />
    <glyph glyph-name="glyph08435" unicode="&#xe0101;" 
d="M970 548v-90h-272v-176q0 -80 -22 -106t-91 -26q-38 0 -113 5l-2 90q67 -5 85 -5q26 0 30.5 7t4.5 48v163h-300v84h-54v-181q39 14 80 32l15 -90q-47 -21 -95 -38v-205q0 -99 -17 -122t-90 -23q-18 0 -83 5l-4 87q62 -5 72 -5q13 0 15 7t2 46v176q-15 -4 -89 -23l-7 94
q32 7 96 25v215h-95v90h95v178h105v-178h85v-84h59v237h102v-237h108v280h108v-90h240v-86h-240v-104h272zM510 405q-58 -148 -172 -275l-80 58q104 114 164 257zM310 -98l-30 96q243 20 386.5 121t205.5 291l96 -45q-142 -413 -658 -463z" />
    <glyph glyph-name="glyph08436" unicode="&#xe0103;" 
d="M642 270v50h-182v-50h182zM642 152v50h-182v-50h182zM748 85v-50h202v-85h-490v-40h-105v304q-16 -28 -39 -60l-76 77q104 104 155 225q-25 -15 -47 -26l-36 70q116 62 200 139v46q-70 -62 -162 -110l-35 70q54 25 104 60h-91v85h287v-348h-103v96q-49 -40 -99 -71
l87 -11q-3 -11 -21 -56h175l12 33l-34 67q116 62 200 139v47q-79 -69 -172 -116l-35 70q67 32 114 65h-91v85h287v-348h-103v96q-60 -48 -115 -81l60 -6q-6 -22 -17 -51h175v-80h-187v-50h172v-68h-172v-50h172v-67h-172zM642 85h-182v-50h182v50zM305 632v-90h-77v-159
q32 12 67 27v-95q-35 -15 -67 -27v-228q0 -53 -2.5 -79t-15 -42.5t-30.5 -20t-55 -3.5q-18 0 -83 5l-4 87q46 -5 70 -5q11 0 12.5 6.5t1.5 46.5l1 197q-61 -17 -85 -22l-8 95q49 11 92 24v193h-90v90h90v178h106v-178h77z" />
    <glyph glyph-name="glyph08436" unicode="&#xe0101;" 
d="M642 270v50h-182v-50h182zM642 152v50h-182v-50h182zM748 85v-50h202v-85h-490v-40h-105v304q-16 -28 -39 -60l-76 77q104 104 155 225q-25 -15 -47 -26l-36 70q116 62 200 139v46q-70 -62 -162 -110l-35 70q54 25 104 60h-91v85h287v-348h-103v96q-49 -40 -99 -71
l87 -11q-3 -11 -21 -56h175l12 33l-34 67q116 62 200 139v47q-79 -69 -172 -116l-35 70q67 32 114 65h-91v85h287v-348h-103v96q-60 -48 -115 -81l60 -6q-6 -22 -17 -51h175v-80h-187v-50h172v-68h-172v-50h172v-67h-172zM642 85h-182v-50h182v50zM305 632v-90h-77v-159
q32 12 67 27v-95q-35 -15 -67 -27v-228q0 -53 -2.5 -79t-15 -42.5t-30.5 -20t-55 -3.5q-18 0 -83 5l-4 87q46 -5 70 -5q11 0 12.5 6.5t1.5 46.5l1 197q-61 -17 -85 -22l-8 95q49 11 92 24v193h-90v90h90v178h106v-178h77z" />
    <glyph glyph-name="glyph08437" unicode="&#xe0103;" 
d="M442 274q41 30 56 60.5t17 87.5h-73v-148zM442 32h398v68h-398v-68zM500 578h-58v32q-46 -42 -92 -70l-32 73v-68h-66q68 -159 90 -211v171h158v73zM600 578v-73h72v73h-72zM840 238h-90q-56 0 -73 15.5t-17 68.5v100h-48q-3 -91 -28.5 -140.5t-88.5 -91.5l-53 61v-76
h398v63zM840 315v107h-80v-62q0 -32 7.5 -38.5t42.5 -6.5h30zM982 630l-40 -90q-46 29 -94 74v-36h-76v-73h170v-595h-102v42h-398v-42h-100v339l-44 -33q-22 60 -50 133v-439h-100v349q-32 -94 -70 -158l-63 99q94 163 132 345h-109v90h110v175h100v-175h69q99 67 163 165
l78 -50q-24 -40 -69 -92h316q-21 23 -47 60h-193v84h245q65 -100 172 -172z" />
    <glyph glyph-name="glyph08437" unicode="&#xe0101;" 
d="M442 274q41 30 56 60.5t17 87.5h-73v-148zM442 32h398v68h-398v-68zM500 578h-58v32q-46 -42 -92 -70l-32 73v-68h-66q68 -159 90 -211v171h158v73zM600 578v-73h72v73h-72zM840 238h-90q-56 0 -73 15.5t-17 68.5v100h-48q-3 -91 -28.5 -140.5t-88.5 -91.5l-53 61v-76
h398v63zM840 315v107h-80v-62q0 -32 7.5 -38.5t42.5 -6.5h30zM982 630l-40 -90q-46 29 -94 74v-36h-76v-73h170v-595h-102v42h-398v-42h-100v339l-44 -33q-22 60 -50 133v-439h-100v349q-32 -94 -70 -158l-63 99q94 163 132 345h-109v90h110v175h100v-175h69q99 67 163 165
l78 -50q-24 -40 -69 -92h316q-21 23 -47 60h-193v84h245q65 -100 172 -172z" />
    <glyph glyph-name="glyph08438" unicode="&#xe0103;" 
d="M595 185h223v110h-223v-110zM595 450v-68h325v-282h-325h-100v625h130q19 54 33 107l104 -11q-18 -67 -28 -96h166v-275h-305zM595 535h203v103h-203v-103zM28 642h102v168h98v-168h70v-90h-70q60 -131 92 -204l-35 -43h140v-177q18 -45 45.5 -67.5t81 -32.5t153.5 -10
h250l-3 -90h-264q-127 0 -195.5 18.5t-103.5 65.5q-44 -54 -97 -100l-54 88q52 44 90 90v125h-68v60q-6 17 -17.5 47t-14.5 39v-451h-98v368q-25 -93 -62 -162l-55 99q80 153 114 337h-99v90zM420 600q-79 76 -152 132l57 73q83 -63 155 -133zM420 362q-85 81 -152 133
l57 73q83 -63 155 -133z" />
    <glyph glyph-name="glyph08438" unicode="&#xe0101;" 
d="M595 185h223v110h-223v-110zM595 450v-68h325v-282h-325h-100v625h130q19 54 33 107l104 -11q-18 -67 -28 -96h166v-275h-305zM595 535h203v103h-203v-103zM28 642h102v168h98v-168h70v-90h-70q60 -131 92 -204l-35 -43h140v-177q18 -45 45.5 -67.5t81 -32.5t153.5 -10
h250l-3 -90h-264q-127 0 -195.5 18.5t-103.5 65.5q-44 -54 -97 -100l-54 88q52 44 90 90v125h-68v60q-6 17 -17.5 47t-14.5 39v-451h-98v368q-25 -93 -62 -162l-55 99q80 153 114 337h-99v90zM420 600q-79 76 -152 132l57 73q83 -63 155 -133zM420 362q-85 81 -152 133
l57 73q83 -63 155 -133z" />
    <glyph glyph-name="glyph08439" unicode="&#xe0103;" 
d="M688 629q60 38 107 76h-202q60 -46 95 -76zM645 382h-95v-74h95v74zM738 382v-74h94v74h-94zM645 458v72h-95v-72h95zM738 458h94v72h-94v-72zM312 90v125h-62v87q-3 8 -22 59v-357q47 41 84 86zM28 642h102v168h98v-168h70v-90h-70q60 -131 92 -204l-35 -43h123v-177
q18 -45 45.5 -67.5t81 -32.5t153.5 -10h267l-5 -90h-278q-126 0 -194.5 18.5t-103.5 65.5q-47 -57 -96 -100l-50 80v-82h-98v368q-25 -93 -62 -162l-55 99q80 153 114 337h-99v90zM385 600q-65 71 -135 132l58 73q75 -65 137 -133zM402 362q-74 81 -134 133l57 73
q62 -53 130 -125v167h115q-24 19 -70 55l64 40h-119v85h485v-85q-40 -41 -117 -95h117v-430q0 -75 -15 -93.5t-73 -18.5q-41 0 -70 2l-7 85q24 -3 43 -3q18 0 21 5t3 36v39h-94v-162h-93v162h-95v-167h-95v361z" />
    <glyph glyph-name="glyph08439" unicode="&#xe0101;" 
d="M688 629q60 38 107 76h-202q60 -46 95 -76zM645 382h-95v-74h95v74zM738 382v-74h94v74h-94zM645 458v72h-95v-72h95zM738 458h94v72h-94v-72zM312 90v125h-62v87q-3 8 -22 59v-357q47 41 84 86zM28 642h102v168h98v-168h70v-90h-70q60 -131 92 -204l-35 -43h123v-177
q18 -45 45.5 -67.5t81 -32.5t153.5 -10h267l-5 -90h-278q-126 0 -194.5 18.5t-103.5 65.5q-47 -57 -96 -100l-50 80v-82h-98v368q-25 -93 -62 -162l-55 99q80 153 114 337h-99v90zM385 600q-65 71 -135 132l58 73q75 -65 137 -133zM402 362q-74 81 -134 133l57 73
q62 -53 130 -125v167h115q-24 19 -70 55l64 40h-119v85h485v-85q-40 -41 -117 -95h117v-430q0 -75 -15 -93.5t-73 -18.5q-41 0 -70 2l-7 85q24 -3 43 -3q18 0 21 5t3 36v39h-94v-162h-93v162h-95v-167h-95v361z" />
    <glyph glyph-name="glyph08441" unicode="&#xe0103;" 
d="M452 310v-138h36v138h-36zM335 310v-138h35v138h-35zM335 392h237v-352q0 -81 -14.5 -99.5t-75.5 -18.5q-19 0 -90 6l-4 90q58 -6 62 -6q20 0 24 4t4 24v52h-133v-172h-100v308q-47 -173 -117 -308l-88 50q68 132 115 298l90 -30v154h90zM812 358h48v72h-48v-72zM812 272
v-72h48v72h-48zM920 695q33 -78 58 -147l-88 -23q-26 75 -58 147zM710 120h-105v80h105v72h-118v86h118v72h-105v78h23l-66 44h-102v-44h120v-80h-350l-68 -66q-67 72 -144 140l67 66q70 -61 137 -132v72h133v44h-110v78h110v45h-115l-68 -65q-67 70 -134 128l67 64
q72 -61 127 -119v75h123v62h105v-62h128v-83h-128v-45h110v-45q39 77 65 187q180 6 303 40l20 -84q-126 -32 -250 -38q-1 -5 -5 -16.5t-5 -17.5l80 19q21 -59 40 -130l-83 -23q-24 85 -39 125q-24 -75 -58 -139h317v-150h35v-86h-35v-184h-95v32h-48v-55q0 -69 -6.5 -98
t-23 -38t-57.5 -9q-42 0 -97 5l-6 93q45 -6 66 -6q16 0 19 7t3 46v55z" />
    <glyph glyph-name="glyph08441" unicode="&#xe0101;" 
d="M452 310v-138h36v138h-36zM335 310v-138h35v138h-35zM335 392h237v-352q0 -81 -14.5 -99.5t-75.5 -18.5q-19 0 -90 6l-4 90q58 -6 62 -6q20 0 24 4t4 24v52h-133v-172h-100v308q-47 -173 -117 -308l-88 50q68 132 115 298l90 -30v154h90zM812 358h48v72h-48v-72zM812 272
v-72h48v72h-48zM920 695q33 -78 58 -147l-88 -23q-26 75 -58 147zM710 120h-105v80h105v72h-118v86h118v72h-105v78h23l-66 44h-102v-44h120v-80h-350l-68 -66q-67 72 -144 140l67 66q70 -61 137 -132v72h133v44h-110v78h110v45h-115l-68 -65q-67 70 -134 128l67 64
q72 -61 127 -119v75h123v62h105v-62h128v-83h-128v-45h110v-45q39 77 65 187q180 6 303 40l20 -84q-126 -32 -250 -38q-1 -5 -5 -16.5t-5 -17.5l80 19q21 -59 40 -130l-83 -23q-24 85 -39 125q-24 -75 -58 -139h317v-150h35v-86h-35v-184h-95v32h-48v-55q0 -69 -6.5 -98
t-23 -38t-57.5 -9q-42 0 -97 5l-6 93q45 -6 66 -6q16 0 19 7t3 46v55z" />
    <glyph glyph-name="glyph08442" unicode="&#xe0103;" 
d="M838 650h-63v-105h6q31 49 57 105zM712 205h138v83h-138v-83zM712 122v-84h138v84h-138zM44 736l64 66q81 -64 154 -137l-64 -64q-71 70 -154 135zM181 348q-72 78 -164 158l64 68q92 -78 165 -156zM250 239q-44 -172 -123 -319l-86 52q73 140 119 302zM522 658l70 -48
q-40 -65 -87 -119q49 -49 110 -86l-50 -80q-41 31 -72 64q29 -114 29 -249q0 -124 -22 -172t-68 -48q-35 0 -132 5l-5 90q50 -5 87 -5q17 0 24.5 8t11.5 35.5t4 86.5v28q-71 -88 -160 -156l-52 83q123 87 203 198q-5 35 -17 78q-55 -66 -128 -123l-48 80q85 59 142 134
q-11 21 -30 53q-32 -28 -70 -55l-52 80q94 60 158 150h-113v90h313v-90h-96q-28 -49 -66 -97q15 -21 30 -52q40 42 86 117zM892 790l83 -42q-35 -103 -91 -203h96v-87h-151q-33 -50 -64 -86h89q-7 16 -22 43l83 35q45 -82 73 -160l-38 -16v-362h-100v40h-138v-40h-97v314
q-20 -16 -60 -44l-35 98q111 69 199 178h-147v87h110v105h-90v85h90v93h103v-93h89q3 9 18 55z" />
    <glyph glyph-name="glyph08442" unicode="&#xe0101;" 
d="M838 650h-63v-105h6q31 49 57 105zM712 205h138v83h-138v-83zM712 122v-84h138v84h-138zM44 736l64 66q81 -64 154 -137l-64 -64q-71 70 -154 135zM181 348q-72 78 -164 158l64 68q92 -78 165 -156zM250 239q-44 -172 -123 -319l-86 52q73 140 119 302zM522 658l70 -48
q-40 -65 -87 -119q49 -49 110 -86l-50 -80q-41 31 -72 64q29 -114 29 -249q0 -124 -22 -172t-68 -48q-35 0 -132 5l-5 90q50 -5 87 -5q17 0 24.5 8t11.5 35.5t4 86.5v28q-71 -88 -160 -156l-52 83q123 87 203 198q-5 35 -17 78q-55 -66 -128 -123l-48 80q85 59 142 134
q-11 21 -30 53q-32 -28 -70 -55l-52 80q94 60 158 150h-113v90h313v-90h-96q-28 -49 -66 -97q15 -21 30 -52q40 42 86 117zM892 790l83 -42q-35 -103 -91 -203h96v-87h-151q-33 -50 -64 -86h89q-7 16 -22 43l83 35q45 -82 73 -160l-38 -16v-362h-100v40h-138v-40h-97v314
q-20 -16 -60 -44l-35 98q111 69 199 178h-147v87h110v105h-90v85h90v93h103v-93h89q3 9 18 55z" />
    <glyph glyph-name="glyph08443" unicode="&#xe0103;" 
d="M800 475v125h-80v-125h80zM800 262v128h-80v-128h80zM800 178h-80v-130h80v130zM358 228h-113q-1 -6 -4.5 -18t-5.5 -18h122q1 7 1 23v13zM365 472h-45v-67h45v67zM455 472v-67h45v67h-45zM358 680v-40h107v40h-107zM170 350q-68 75 -152 152l67 66q69 -61 143 -142v116
h130v30h-98v108h-31q5 -5 13 -15l-67 -65q-65 73 -137 138l67 64q67 -60 110 -107v70h45v55h98v-55h107v55h97v-55h48v-85h-48v-108h-100v-30h118q65 137 95 288l95 -15q-13 -71 -29 -125h67q16 48 34 140l93 -15q-16 -79 -30 -125h63v-90h-73v-125h65v-85h-65v-128h65v-84
h-65v-130h83v-88h-258v-55h-98v561l-30 15v-146h-130v-33h133v-74h-133v-13q0 -15 -1 -23h141v-77h-114q43 -66 127 -107l-45 -88q-89 43 -153 144q-66 -109 -185 -154l-47 88q115 43 151 117h-126q-40 -115 -82 -195l-88 50q68 132 115 298l67 -22v56h136v33h-38h-92v70z
" />
    <glyph glyph-name="glyph08443" unicode="&#xe0101;" 
d="M800 475v125h-80v-125h80zM800 262v128h-80v-128h80zM800 178h-80v-130h80v130zM358 228h-113q-1 -6 -4.5 -18t-5.5 -18h122q1 7 1 23v13zM365 472h-45v-67h45v67zM455 472v-67h45v67h-45zM358 680v-40h107v40h-107zM170 350q-68 75 -152 152l67 66q69 -61 143 -142v116
h130v30h-98v108h-31q5 -5 13 -15l-67 -65q-65 73 -137 138l67 64q67 -60 110 -107v70h45v55h98v-55h107v55h97v-55h48v-85h-48v-108h-100v-30h118q65 137 95 288l95 -15q-13 -71 -29 -125h67q16 48 34 140l93 -15q-16 -79 -30 -125h63v-90h-73v-125h65v-85h-65v-128h65v-84
h-65v-130h83v-88h-258v-55h-98v561l-30 15v-146h-130v-33h133v-74h-133v-13q0 -15 -1 -23h141v-77h-114q43 -66 127 -107l-45 -88q-89 43 -153 144q-66 -109 -185 -154l-47 88q115 43 151 117h-126q-40 -115 -82 -195l-88 50q68 132 115 298l67 -22v56h136v33h-38h-92v70z
" />
    <glyph glyph-name="glyph08444" unicode="&#xe0103;" 
d="M614 480h-116v-90h99q10 33 17 90zM718 480q-3 -38 -15 -90h145v90h-130zM619 560q1 27 1 90h-122v-90h121zM723 560h125v90h-123q0 -34 -2 -90zM335 -85h-97v330h-72q-11 -186 -58 -335l-86 68q26 91 37 201t11 291v325h100v-237h65v247h95v-247h45v-93h-205v-63
q0 -12 -0.5 -33t-0.5 -31h166v-423zM788 280v-115h180v-90h-180v-165h-106v165h-327v90h87l-60 67q122 28 169 76h-53h-103v430h142q23 47 45 100l106 -20q-14 -36 -35 -80h299v-430h-279q-47 -91 -171 -143h180v115h106z" />
    <glyph glyph-name="glyph08444" unicode="&#xe0101;" 
d="M614 480h-116v-90h99q10 33 17 90zM718 480q-3 -38 -15 -90h145v90h-130zM619 560q1 27 1 90h-122v-90h121zM723 560h125v90h-123q0 -34 -2 -90zM335 -85h-97v330h-72q-11 -186 -58 -335l-86 68q26 91 37 201t11 291v325h100v-237h65v247h95v-247h45v-93h-205v-63
q0 -12 -0.5 -33t-0.5 -31h166v-423zM788 280v-115h180v-90h-180v-165h-106v165h-327v90h87l-60 67q122 28 169 76h-53h-103v430h142q23 47 45 100l106 -20q-14 -36 -35 -80h299v-430h-279q-47 -91 -171 -143h180v115h106z" />
    <glyph glyph-name="glyph08445" unicode="&#xe0103;" 
d="M415 412v-109q29 25 56 62q-27 26 -56 47zM588 339v169h-173v-73l20 45q44 -31 71 -56q20 38 32 76l44 -25q-16 -51 -36 -91q2 -2 17.5 -18.5t24.5 -26.5zM415 165v-109q29 25 56 62q-27 26 -56 47zM588 91v225l-26 -48q-18 22 -51 57q-32 -48 -76 -85l-20 37v-90l20 45
q44 -31 71 -56q20 38 32 76l44 -24q-16 -51 -36 -91q28 -31 42 -46zM680 412v-109q29 25 56 62q-27 26 -56 47zM852 339v169h-172v-73l20 45q44 -31 71 -56q17 33 31 76l46 -25q-14 -45 -37 -91q26 -28 41 -45zM680 165v-109q33 28 58 64q-30 27 -58 45zM852 101v215
l-24 -48q-11 13 -52 57q-32 -48 -76 -85l-20 37v-90l20 45q43 -27 72 -53q19 39 30 73l46 -24q-10 -36 -35 -87q25 -25 39 -40zM815 592q-41 30 -92 60l60 48h-98v-108h130zM473 700l71 -37q-30 -38 -68 -71h106v108h-109zM48 695v90h230v-90h-230zM138 495h-103v93h263v-1
q92 49 150 113h-136v88h643v-88h-140q98 -58 175 -128l-42 -53v-459q0 -89 -15 -112t-73 -23q-42 0 -105 5l-3 88q62 -6 76 -6q18 0 21 7t3 46v13l-24 -48q-26 28 -49 52q-37 -54 -79 -90l-20 37v-87h-92v126l-26 -48q-24 29 -51 58q-34 -50 -76 -86l-20 37v-107h-95v585
l-22 28v-40h-80v-585h-80v585zM80 -25l-58 17q38 190 38 433h58q0 -252 -38 -450zM240 5v420h58v-420h-58z" />
    <glyph glyph-name="glyph08445" unicode="&#xe0101;" 
d="M415 412v-109q29 25 56 62q-27 26 -56 47zM588 339v169h-173v-73l20 45q44 -31 71 -56q20 38 32 76l44 -25q-16 -51 -36 -91q2 -2 17.5 -18.5t24.5 -26.5zM415 165v-109q29 25 56 62q-27 26 -56 47zM588 91v225l-26 -48q-18 22 -51 57q-32 -48 -76 -85l-20 37v-90l20 45
q44 -31 71 -56q20 38 32 76l44 -24q-16 -51 -36 -91q28 -31 42 -46zM680 412v-109q29 25 56 62q-27 26 -56 47zM852 339v169h-172v-73l20 45q44 -31 71 -56q17 33 31 76l46 -25q-14 -45 -37 -91q26 -28 41 -45zM680 165v-109q33 28 58 64q-30 27 -58 45zM852 101v215
l-24 -48q-11 13 -52 57q-32 -48 -76 -85l-20 37v-90l20 45q43 -27 72 -53q19 39 30 73l46 -24q-10 -36 -35 -87q25 -25 39 -40zM815 592q-41 30 -92 60l60 48h-98v-108h130zM473 700l71 -37q-30 -38 -68 -71h106v108h-109zM48 695v90h230v-90h-230zM138 495h-103v93h263v-1
q92 49 150 113h-136v88h643v-88h-140q98 -58 175 -128l-42 -53v-459q0 -89 -15 -112t-73 -23q-42 0 -105 5l-3 88q62 -6 76 -6q18 0 21 7t3 46v13l-24 -48q-26 28 -49 52q-37 -54 -79 -90l-20 37v-87h-92v126l-26 -48q-24 29 -51 58q-34 -50 -76 -86l-20 37v-107h-95v585
l-22 28v-40h-80v-585h-80v585zM80 -25l-58 17q38 190 38 433h58q0 -252 -38 -450zM240 5v420h58v-420h-58z" />
    <glyph glyph-name="glyph08446" unicode="&#xe0103;" 
d="M380 315h242v375h-237v35q-57 -17 -113 -28v-152h123v-87h-93q12 -22 38.5 -70.5t39.5 -72.5zM955 690h-225v-375h242v-93h-242v-317h-108v317h-255l-28 -19q-21 46 -67 140v-433h-100v327q-40 -100 -92 -175l-58 88q110 160 149 308h-129v87h130v135q-56 -8 -114 -12
l-9 84q159 12 327 58l10 -30h569v-90zM382 405q74 110 113 243l93 -26q-41 -151 -118 -260zM760 615l90 35q70 -118 118 -250l-88 -38q-52 142 -120 253z" />
    <glyph glyph-name="glyph08446" unicode="&#xe0101;" 
d="M380 315h242v375h-237v35q-57 -17 -113 -28v-152h123v-87h-93q12 -22 38.5 -70.5t39.5 -72.5zM955 690h-225v-375h242v-93h-242v-317h-108v317h-255l-28 -19q-21 46 -67 140v-433h-100v327q-40 -100 -92 -175l-58 88q110 160 149 308h-129v87h130v135q-56 -8 -114 -12
l-9 84q159 12 327 58l10 -30h569v-90zM382 405q74 110 113 243l93 -26q-41 -151 -118 -260zM760 615l90 35q70 -118 118 -250l-88 -38q-52 142 -120 253z" />
    <glyph glyph-name="glyph08447" unicode="&#xe0103;" 
d="M606 480h-126v-90h110q10 34 16 90zM710 480q-6 -53 -16 -90h154v90h-138zM611 560q1 27 1 90h-132v-90h131zM716 560h132v90h-130q0 -34 -2 -90zM355 560v-90h-87q73 -137 117 -223l-72 -54q-38 84 -58 128v-411h-100v334q-30 -100 -78 -179l-54 107q92 154 123 298
h-104v90h113v118q-31 -5 -97 -11l-9 85q147 15 292 58l25 -82q-58 -19 -111 -31v-137h100zM780 280v-115h188v-90h-188v-165h-105v165h-367v90h137l-60 67q115 26 161 76h-66h-102v430h149q23 47 45 100l106 -20q-14 -36 -35 -80h309v-430h-287q-46 -91 -162 -143h172v115
h105z" />
    <glyph glyph-name="glyph08447" unicode="&#xe0101;" 
d="M606 480h-126v-90h110q10 34 16 90zM710 480q-6 -53 -16 -90h154v90h-138zM611 560q1 27 1 90h-132v-90h131zM716 560h132v90h-130q0 -34 -2 -90zM355 560v-90h-87q73 -137 117 -223l-72 -54q-38 84 -58 128v-411h-100v334q-30 -100 -78 -179l-54 107q92 154 123 298
h-104v90h113v118q-31 -5 -97 -11l-9 85q147 15 292 58l25 -82q-58 -19 -111 -31v-137h100zM780 280v-115h188v-90h-188v-165h-105v165h-367v90h137l-60 67q115 26 161 76h-66h-102v430h149q23 47 45 100l106 -20q-14 -36 -35 -80h309v-430h-287q-46 -91 -162 -143h172v115
h105z" />
    <glyph glyph-name="glyph08448" unicode="&#xe0103;" 
d="M584 410q43 23 86 50h-155v-50h69zM302 142h463v53h-459l-1 -1h-2zM302 72v-54h463v54h-463zM734 272l41 50h-172q-53 -28 -104 -50h235zM34 634q110 94 156 205l100 -21q-5 -13 -22 -50h247v-75q78 73 111 147l98 -22q-7 -20 -23 -50h249v-88h-146q10 -26 28 -76
l-99 -28q-12 34 -40 104h-53q-44 -52 -100 -94l-70 68q11 8 31 26h-132q10 -26 28 -76l-99 -28q-12 34 -40 104h-44q-47 -64 -108 -114zM402 602h113v-62h267q34 29 62 56l77 -55q-68 -67 -167 -131h206v-88h-153q82 -47 151 -100l-53 -72q-14 11 -33 25v-265h-107v30h-463
v-30h-107v248q-61 -20 -126 -36l-33 88q203 50 358 112h-354v88h362v50h-280v80h280v62z" />
    <glyph glyph-name="glyph08448" unicode="&#xe0101;" 
d="M584 410q43 23 86 50h-155v-50h69zM302 142h463v53h-459l-1 -1h-2zM302 72v-54h463v54h-463zM734 272l41 50h-172q-53 -28 -104 -50h235zM34 634q110 94 156 205l100 -21q-5 -13 -22 -50h247v-75q78 73 111 147l98 -22q-7 -20 -23 -50h249v-88h-146q10 -26 28 -76
l-99 -28q-12 34 -40 104h-53q-44 -52 -100 -94l-70 68q11 8 31 26h-132q10 -26 28 -76l-99 -28q-12 34 -40 104h-44q-47 -64 -108 -114zM402 602h113v-62h267q34 29 62 56l77 -55q-68 -67 -167 -131h206v-88h-153q82 -47 151 -100l-53 -72q-14 11 -33 25v-265h-107v30h-463
v-30h-107v248q-61 -20 -126 -36l-33 88q203 50 358 112h-354v88h362v50h-280v80h280v62z" />
    <glyph glyph-name="glyph08449" unicode="&#xe0103;" 
d="M168 -55v-40h-100v300h307v-260h-207zM168 30h112v90h-112v-90zM68 692v88h304v-88h-304zM40 548v90h350v-90h-350zM75 405v85h295v-85h-295zM75 262v86h295v-86h-295zM415 652h223v168h110v-168h210v-92h-210v-200h187v-90h-187v-238h222v-92h-568v92h236v238h-200v90
h200v200h-223v92z" />
    <glyph glyph-name="glyph08449" unicode="&#xe0101;" 
d="M168 -55v-40h-100v300h307v-260h-207zM168 30h112v90h-112v-90zM68 692v88h304v-88h-304zM40 548v90h350v-90h-350zM75 405v85h295v-85h-295zM75 262v86h295v-86h-295zM415 652h223v168h110v-168h210v-92h-210v-200h187v-90h-187v-238h222v-92h-568v92h236v238h-200v90
h200v200h-223v92z" />
    <glyph glyph-name="glyph08450" unicode="&#xe0101;" 
d="M158 -55v-40h-96v300h288v-260h-192zM158 30h102v90h-102v-90zM62 692v88h286v-88h-286zM42 548v90h318v-90h-318zM70 405v85h275v-85h-275zM70 262v86h275v-86h-275zM382 372v88h153v128h-157v92h157v130h100v-420q0 -35 -2 -91q6 2 18.5 6.5t18.5 6.5l22 -84l-69 -27
q-16 -105 -60 -172.5t-131 -132.5l-74 77q64 43 99.5 85.5t53.5 102.5q-65 -22 -121 -39l-25 90q62 17 164 50q4 48 6 110h-153zM980 220v-92h-168v-218h-104v900h104v-130h163v-92h-163v-136h153v-87h-153v-145h168z" />
    <glyph glyph-name="glyph08451" unicode="&#xe0103;" 
d="M150 30h70v90h-70v-90zM55 692v88h250v-88h-250zM40 548v90h282v-90h-282zM62 405v85h238v-85h-238zM62 262v86h238v-86h-238zM575 778q40 -84 87 -216l-87 -32q-43 119 -87 212zM870 778l88 -30q-32 -113 -83 -220l-87 34q46 98 82 216zM440 602q-70 80 -128 133l63 70
q68 -61 130 -133zM320 345h168v-152q103 110 162 227h-152v30l-60 -65q-70 80 -128 133l62 70q67 -61 126 -127v47h174v297h106v-297h177v-88h-150q59 -115 163 -225l-58 -93q-74 83 -132 189v-233h-106v231q-58 -102 -130 -181l-54 68v-48q18 -45 45.5 -67.5t81 -32.5
t153.5 -10h190l-3 -90h-210q-127 0 -195.5 19t-103.5 66q-39 -51 -96 -103l-42 76v-41h-158v-40h-95v300h253v-198q43 38 77 80v168h-65v90z" />
    <glyph glyph-name="glyph08451" unicode="&#xe0101;" 
d="M150 30h70v90h-70v-90zM55 692v88h250v-88h-250zM40 548v90h282v-90h-282zM62 405v85h238v-85h-238zM62 262v86h238v-86h-238zM575 778q40 -84 87 -216l-87 -32q-43 119 -87 212zM870 778l88 -30q-32 -113 -83 -220l-87 34q46 98 82 216zM440 602q-70 80 -128 133l63 70
q68 -61 130 -133zM320 345h168v-152q103 110 162 227h-152v30l-60 -65q-70 80 -128 133l62 70q67 -61 126 -127v47h174v297h106v-297h177v-88h-150q59 -115 163 -225l-58 -93q-74 83 -132 189v-233h-106v231q-58 -102 -130 -181l-54 68v-48q18 -45 45.5 -67.5t81 -32.5
t153.5 -10h190l-3 -90h-210q-127 0 -195.5 19t-103.5 66q-39 -51 -96 -103l-42 76v-41h-158v-40h-95v300h253v-198q43 38 77 80v168h-65v90z" />
    <glyph glyph-name="glyph08452" unicode="&#xe0103;" 
d="M803 650h-118v-105h33q45 47 85 105zM582 205h250v83h-250v-83zM582 122v-84h250v84h-250zM170 175h-100v610h320v-488q126 63 238 161h-216v87h168v105h-140v85h140v93h105v-93h173q18 29 30 55l89 -39q-52 -103 -135 -206h133v-87h-211q-54 -54 -92 -86h159
q-23 42 -23 43l92 35q44 -72 82 -180l-44 -19v-339h-106v40h-250v-40h-102v324q-38 -22 -58 -32l-32 72v-101h-220zM170 355v-90h122v90h-122zM170 525v-90h122v90h-122zM170 605h122v90h-122v-90zM19 -36q79 99 118 196l84 -36q-51 -132 -126 -215zM245 115l78 41
q65 -99 107 -196l-78 -45q-47 108 -107 200z" />
    <glyph glyph-name="glyph08452" unicode="&#xe0101;" 
d="M803 650h-118v-105h33q45 47 85 105zM582 205h250v83h-250v-83zM582 122v-84h250v84h-250zM170 175h-100v610h320v-488q126 63 238 161h-216v87h168v105h-140v85h140v93h105v-93h173q18 29 30 55l89 -39q-52 -103 -135 -206h133v-87h-211q-54 -54 -92 -86h159
q-23 42 -23 43l92 35q44 -72 82 -180l-44 -19v-339h-106v40h-250v-40h-102v324q-38 -22 -58 -32l-32 72v-101h-220zM170 355v-90h122v90h-122zM170 525v-90h122v90h-122zM170 605h122v90h-122v-90zM19 -36q79 99 118 196l84 -36q-51 -132 -126 -215zM245 115l78 41
q65 -99 107 -196l-78 -45q-47 108 -107 200z" />
    <glyph glyph-name="glyph08453" unicode="&#xe0103;" 
d="M938 545v-93h-233v-390h-107v390h-273v93h273v255h107v-255h233zM305 665l-67 -67q-75 65 -180 144l70 66q75 -57 177 -143zM305 450l-67 -68q-93 80 -180 146l70 64q86 -65 177 -142zM50 330h225v-204q25 -45 62 -66.5t111.5 -31.5t216.5 -10h283l-6 -90h-282
q-189 0 -284.5 22.5t-142.5 79.5q-58 -58 -148 -119l-48 88q80 54 135 106v135h-122v90z" />
    <glyph glyph-name="glyph08453" unicode="&#xe0101;" 
d="M938 545v-93h-233v-390h-107v390h-273v93h273v255h107v-255h233zM305 665l-67 -67q-75 65 -180 144l70 66q75 -57 177 -143zM305 450l-67 -68q-93 80 -180 146l70 64q86 -65 177 -142zM50 330h225v-204q25 -45 62 -66.5t111.5 -31.5t216.5 -10h283l-6 -90h-282
q-189 0 -284.5 22.5t-142.5 79.5q-58 -58 -148 -119l-48 88q80 54 135 106v135h-122v90z" />
    <glyph glyph-name="glyph08454" unicode="&#xe0103;" 
d="M305 665h643v-87h-650v80l-60 -60q-75 65 -180 144l70 66q75 -57 177 -143zM448 75h-106v215h563v-215h-457zM448 155h350v60h-350v-60zM365 705v85h535v-85h-535zM352 455v80h543v-80h-543zM352 332v80h543v-80h-543zM305 450l-67 -68q-93 80 -180 146l70 64
q86 -65 177 -142zM50 330h225v-204q25 -45 62 -66.5t111.5 -31.5t216.5 -10h283l-6 -90h-282q-189 0 -284.5 22.5t-142.5 79.5q-58 -58 -148 -119l-48 88q80 54 135 106v135h-122v90z" />
    <glyph glyph-name="glyph08454" unicode="&#xe0101;" 
d="M305 665h643v-87h-650v80l-60 -60q-75 65 -180 144l70 66q75 -57 177 -143zM448 75h-106v215h563v-215h-457zM448 155h350v60h-350v-60zM365 705v85h535v-85h-535zM352 455v80h543v-80h-543zM352 332v80h543v-80h-543zM305 450l-67 -68q-93 80 -180 146l70 64
q86 -65 177 -142zM50 330h225v-204q25 -45 62 -66.5t111.5 -31.5t216.5 -10h283l-6 -90h-282q-189 0 -284.5 22.5t-142.5 79.5q-58 -58 -148 -119l-48 88q80 54 135 106v135h-122v90z" />
    <glyph glyph-name="glyph08455" unicode="&#xe0104;" 
d="M562 195v-47h243v47h-243zM562 310v-48h243v48h-243zM562 378h243v47h-243v-47zM305 665l-67 -67q-75 65 -180 144l70 66q75 -57 177 -143zM305 450l-67 -68q-93 80 -180 146l70 64q86 -65 177 -142zM438 680v-48h177v55q-100 -7 -177 -7zM458 72v423h157v57h-177v-72
q0 -133 -21 -225t-69 -167l-73 72v-34q25 -45 62 -66.5t111.5 -31.5t216.5 -10h283l-6 -90h-282q-189 0 -284.5 22.5t-142.5 79.5q-58 -58 -148 -119l-48 88q80 54 135 106v135h-122v90h225v-145q60 98 60 337v240q315 0 565 56l20 -86q-92 -22 -200 -35v-65h228v-80h-228
v-57h190v-423h-348h-104z" />
    <glyph glyph-name="glyph08455" unicode="&#xe0102;" 
d="M562 195v-47h243v47h-243zM562 310v-48h243v48h-243zM562 378h243v47h-243v-47zM305 665l-67 -67q-75 65 -180 144l70 66q75 -57 177 -143zM305 450l-67 -68q-93 80 -180 146l70 64q86 -65 177 -142zM438 680v-48h177v55q-100 -7 -177 -7zM458 72v423h157v57h-177v-72
q0 -133 -21 -225t-69 -167l-73 72v-34q25 -45 62 -66.5t111.5 -31.5t216.5 -10h283l-6 -90h-282q-189 0 -284.5 22.5t-142.5 79.5q-58 -58 -148 -119l-48 88q80 54 135 106v135h-122v90h225v-145q60 98 60 337v240q315 0 565 56l20 -86q-92 -22 -200 -35v-65h228v-80h-228
v-57h190v-423h-348h-104z" />
    <glyph glyph-name="glyph08456" unicode="&#xe0103;" 
d="M512 630h-62v-38h112q-25 17 -50 38zM437 698q-28 31 -29 32h-157q-1 -1 -29 -32h215zM155 292h343v33h-343v-33zM202 630h-57q-29 -22 -54 -38h111v38zM300 630v-38h52v38h-52zM498 418h-78q-50 0 -65 13t-15 57v40h-28q-13 -92 -114 -136l-43 47v-54h343v33zM498 480
v48h-60v-18q0 -22 5 -26t35 -4h20zM875 188q0 119 -117 243q67 131 109 269h-122v-785h-100v870h325v-85q-41 -146 -98 -264q106 -103 106 -251q0 -87 -38.5 -126t-119.5 -39h-40l-18 92h8q64 0 84.5 15.5t20.5 60.5zM220 528h-65v-63q50 24 65 63zM30 108v80h242v37h-117
h-97v347l-50 78q108 59 182 142l60 -53v73h208q71 -90 182 -160l-48 -80v-347h-217v-37h237v-80h-205q32 -41 88 -73t125 -45l-28 -85q-77 15 -148.5 60t-116.5 103q-44 -58 -115.5 -103t-149.5 -60l-32 85q69 13 125 45t87 73h-212z" />
    <glyph glyph-name="glyph08456" unicode="&#xe0101;" 
d="M512 630h-62v-38h112q-25 17 -50 38zM437 698q-28 31 -29 32h-157q-1 -1 -29 -32h215zM155 292h343v33h-343v-33zM202 630h-57q-29 -22 -54 -38h111v38zM300 630v-38h52v38h-52zM498 418h-78q-50 0 -65 13t-15 57v40h-28q-13 -92 -114 -136l-43 47v-54h343v33zM498 480
v48h-60v-18q0 -22 5 -26t35 -4h20zM875 188q0 119 -117 243q67 131 109 269h-122v-785h-100v870h325v-85q-41 -146 -98 -264q106 -103 106 -251q0 -87 -38.5 -126t-119.5 -39h-40l-18 92h8q64 0 84.5 15.5t20.5 60.5zM220 528h-65v-63q50 24 65 63zM30 108v80h242v37h-117
h-97v347l-50 78q108 59 182 142l60 -53v73h208q71 -90 182 -160l-48 -80v-347h-217v-37h237v-80h-205q32 -41 88 -73t125 -45l-28 -85q-77 15 -148.5 60t-116.5 103q-44 -58 -115.5 -103t-149.5 -60l-32 85q69 13 125 45t87 73h-212z" />
    <glyph glyph-name="glyph08457" unicode="&#xe0103;" 
d="M668 185h167v110h-167v-110zM668 535h147v103h-147v-103zM138 612h159q-44 50 -85 118q-39 -72 -74 -118zM418 93v162h-60q-16 -91 -23 -125l-70 18q16 74 30 164l55 -11v41h-90v-274q66 20 100 32l4 -66q34 34 54 59zM473 13q-42 -54 -95 -103l-50 89q-140 -48 -280 -71
l-13 90q80 13 125 24v300h-115v88h115v98h-65v33q-25 -29 -47 -49l-26 106q84 81 143 184h90q55 -81 130 -147l-47 -78v-49h-78v-98h98v-85h157v-217q18 -45 45.5 -67.5t81 -32.5t153.5 -10h170l-3 -90h-190q-127 0 -195.5 19t-103.5 66zM668 382h270v-282h-270h-100v625
h106q22 61 34 107l104 -10q-15 -60 -29 -97h135v-275h-250v-68zM118 302q13 -62 34 -190l-72 -20q-17 104 -35 190zM492 600q-79 76 -152 132l58 73q77 -60 154 -133zM492 378q-79 76 -152 132l58 72q83 -64 154 -132z" />
    <glyph glyph-name="glyph08457" unicode="&#xe0101;" 
d="M668 185h167v110h-167v-110zM668 535h147v103h-147v-103zM138 612h159q-44 50 -85 118q-39 -72 -74 -118zM418 93v162h-60q-16 -91 -23 -125l-70 18q16 74 30 164l55 -11v41h-90v-274q66 20 100 32l4 -66q34 34 54 59zM473 13q-42 -54 -95 -103l-50 89q-140 -48 -280 -71
l-13 90q80 13 125 24v300h-115v88h115v98h-65v33q-25 -29 -47 -49l-26 106q84 81 143 184h90q55 -81 130 -147l-47 -78v-49h-78v-98h98v-85h157v-217q18 -45 45.5 -67.5t81 -32.5t153.5 -10h170l-3 -90h-190q-127 0 -195.5 19t-103.5 66zM668 382h270v-282h-270h-100v625
h106q22 61 34 107l104 -10q-15 -60 -29 -97h135v-275h-250v-68zM118 302q13 -62 34 -190l-72 -20q-17 104 -35 190zM492 600q-79 76 -152 132l58 73q77 -60 154 -133zM492 378q-79 76 -152 132l58 72q83 -64 154 -132z" />
    <glyph glyph-name="glyph08458" unicode="&#xe0100;" 
d="M545 740l60 72q199 -58 347 -130l-62 -80q-149 77 -345 138zM940 505l-25 -87q-45 7 -97 15l14 -61q-219 -35 -549 -41q-2 -49 -5 -73h642v-90h-264v-248h-110v248h-283q-35 -154 -141 -248l-90 68q78 70 110.5 164t32.5 260q327 0 576 34q-134 29 -234 73
q-162 -67 -432 -101l-25 87q221 27 353 71q-35 22 -58 42q-47 -43 -105 -73l-62 53q69 34 115 74q-90 -41 -193 -70l-62 80q192 49 320 130l80 -57q-59 -43 -128 -75h90q48 -38 100 -65q60 29 115 75l85 -52q-46 -41 -90 -68q113 -36 320 -65z" />
    <glyph glyph-name="glyph08459" unicode="&#xe0100;" 
d="M202 200h173v62h-173v-62zM375 75v53h-173v-74q88 9 173 21zM375 398h-173v-63h173v63zM105 640l-57 75q192 41 324 107l76 -54q-49 -30 -118 -58h80q48 -33 104 -57q53 23 111 62l85 -50q-38 -29 -80 -51q126 -34 310 -54l-23 -78h28v-84q-44 -78 -97 -148
q49 -30 76.5 -78t27.5 -100q0 -62 -36.5 -89.5t-120.5 -27.5h-80l-17 87h52q57 0 77.5 11t20.5 39q0 69 -133 143q67 74 118 163h-168v-488h-105v572h314q-215 28 -360 82q-160 -56 -384 -82h402v-84h-54v-488h-103v75q-135 -18 -325 -35l-10 88q10 1 31 2.5t31 2.5v355h-54
v84h35l-23 76q216 23 341 57q-11 6 -53 33q-47 -34 -98 -58l-70 45q50 21 99 56q-78 -29 -174 -51zM545 752l55 70q196 -44 352 -107l-57 -77q-156 66 -350 114z" />
    <glyph glyph-name="glyph08460" unicode="&#xe0100;" 
d="M278 258v114h-36v-114h36zM125 258h35v114h-35v-114zM160 645v-60h82v60h-82zM705 405h-63v-75h63v75zM798 405v-75h62v75h-62zM705 480v70h-63v-70h63zM798 480h62v70h-62v-70zM617 250q25 -51 68 -95q15 39 17 95h-60h-25zM575 160q-17 -24 -35 -40l-32 69v-279h-98
v509q-20 -77 -50 -137v-97h-82h-26v-65h128v-85h-128v-125h-102v125h-132v85h132v65h-25h-85v270h110v53h-82v137h-48v85h48v75h92v-75h82v75h90v-80h48v-80h-48v-137h-80v-53h83q76 141 115 357l90 -12q-12 -92 -32 -181v-402q25 18 42 34v379h150v65h-150v85h422v-85h-170
v-65h153v-440h-95v60h-62q-6 -94 -35 -158q86 -54 217 -77l-18 -93q-139 24 -246 97q-51 -57 -136 -97l-60 80q76 31 120 80q-38 38 -65 78z" />
    <glyph glyph-name="glyph08461" unicode="&#xe0103;" 
d="M192 524v-619h-100v427q-26 -51 -50 -85l-39 126q122 188 165 441l97 -13q-21 -144 -73 -277zM838 650h-63v-105h6q31 49 57 105zM712 205h138v83h-138v-83zM712 122v-84h138v84h-138zM275 692v88h277v-88h-277zM248 548v90h317v-90h-317zM262 405v85h288v-85h-288z
M352 120v-90h113v90h-113zM892 790l83 -42q-35 -103 -91 -203h96v-87h-151q-33 -50 -64 -86h89q-7 16 -22 43l83 35q45 -82 73 -160l-38 -16v-362h-100v40h-138v-40h-97v314q-20 -16 -60 -44v-237h-90h-113v-40h-94v300h289l-21 57h-264v86h288v-48q94 65 169 158h-147v87
h110v105h-90v85h90v93h103v-93h89q3 9 18 55z" />
    <glyph glyph-name="glyph08461" unicode="&#xe0101;" 
d="M192 524v-619h-100v427q-26 -51 -50 -85l-39 126q122 188 165 441l97 -13q-21 -144 -73 -277zM838 650h-63v-105h6q31 49 57 105zM712 205h138v83h-138v-83zM712 122v-84h138v84h-138zM275 692v88h277v-88h-277zM248 548v90h317v-90h-317zM262 405v85h288v-85h-288z
M352 120v-90h113v90h-113zM892 790l83 -42q-35 -103 -91 -203h96v-87h-151q-33 -50 -64 -86h89q-7 16 -22 43l83 35q45 -82 73 -160l-38 -16v-362h-100v40h-138v-40h-97v314q-20 -16 -60 -44v-237h-90h-113v-40h-94v300h289l-21 57h-264v86h288v-48q94 65 169 158h-147v87
h110v105h-90v85h90v93h103v-93h89q3 9 18 55z" />
    <glyph glyph-name="glyph08462" unicode="&#xe0103;" 
d="M162 332q16 -16 50 -54q39 122 43 287h-41q-23 -132 -52 -233zM654 588q49 57 74 92h-179q-25 -46 -59 -92h164zM480 335h118q10 63 12 165h-130v-165zM662 191q-77 -214 -297 -289l-55 88q109 37 173.5 98t95.5 162h-99v-60h-100v267l-42 -39q-17 -133 -56 -232
q39 -56 75 -121l-71 -65q-24 45 -51 88q-64 -110 -164 -192l-44 88q91 84 146 195q-18 25 -44 54q-16 -39 -17 -42l-74 73q48 136 77 301h-83v90h97q13 93 19 161l97 -4q-7 -81 -18 -157h122v-43v-39q104 115 159 262l102 -15q-12 -36 -20 -55h255v-85q-21 -38 -64 -92h161
v-338h-177v-212q0 -22 7.5 -26t47.5 -4q39 0 46.5 20t11.5 137l97 -10q-2 -51 -3.5 -77.5t-6 -57.5t-7 -43.5t-13 -27.5t-18 -18.5t-27.5 -8t-35.5 -4.5h-48.5q-74 0 -104 5t-40 18t-10 46v204zM698 335h142v165h-130q-2 -90 -12 -165z" />
    <glyph glyph-name="glyph08462" unicode="&#xe0101;" 
d="M162 332q16 -16 50 -54q39 122 43 287h-41q-23 -132 -52 -233zM654 588q49 57 74 92h-179q-25 -46 -59 -92h164zM480 335h118q10 63 12 165h-130v-165zM662 191q-77 -214 -297 -289l-55 88q109 37 173.5 98t95.5 162h-99v-60h-100v267l-42 -39q-17 -133 -56 -232
q39 -56 75 -121l-71 -65q-24 45 -51 88q-64 -110 -164 -192l-44 88q91 84 146 195q-18 25 -44 54q-16 -39 -17 -42l-74 73q48 136 77 301h-83v90h97q13 93 19 161l97 -4q-7 -81 -18 -157h122v-43v-39q104 115 159 262l102 -15q-12 -36 -20 -55h255v-85q-21 -38 -64 -92h161
v-338h-177v-212q0 -22 7.5 -26t47.5 -4q39 0 46.5 20t11.5 137l97 -10q-2 -51 -3.5 -77.5t-6 -57.5t-7 -43.5t-13 -27.5t-18 -18.5t-27.5 -8t-35.5 -4.5h-48.5q-74 0 -104 5t-40 18t-10 46v204zM698 335h142v165h-130q-2 -90 -12 -165z" />
    <glyph glyph-name="glyph08463" unicode="&#xe0103;" 
d="M388 450h304v-235q36 -3 56 -3q14 0 21 6t13.5 36.5t10.5 89t9 168.5h-407q-14 -28 -32 -62h25zM388 368v-123h202v123h-202zM195 668v-286v-1q99 112 152 287h-152zM388 162v-100q0 -43 26 -50t184 -7h87t64 3t49 4.5t30.5 12.5t22 17.5t11 28t8.5 36.5t5 51l103 -23
q-4 -45 -7 -69.5t-12.5 -52.5t-18 -40t-31.5 -26t-45 -18t-67 -8.5t-88.5 -5t-118.5 -0.5q-63 0 -99.5 0.5t-74.5 3t-56 5.5t-37 11.5t-24.5 16.5t-11.5 25.5t-6.5 33t-0.5 44.5v270q-25 -30 -45 -50l-41 50q-9 -258 -94 -415l-78 88q36 77 53 182.5t17 274.5v297h370v83
h110v-83h368v-84h-487q-15 -53 -23 -73h478q-5 -214 -17.5 -315.5t-31.5 -129.5t-59 -28q-34 0 -140 6l-2 34h-270z" />
    <glyph glyph-name="glyph08463" unicode="&#xe0101;" 
d="M388 450h304v-235q36 -3 56 -3q14 0 21 6t13.5 36.5t10.5 89t9 168.5h-407q-14 -28 -32 -62h25zM388 368v-123h202v123h-202zM195 668v-286v-1q99 112 152 287h-152zM388 162v-100q0 -43 26 -50t184 -7h87t64 3t49 4.5t30.5 12.5t22 17.5t11 28t8.5 36.5t5 51l103 -23
q-4 -45 -7 -69.5t-12.5 -52.5t-18 -40t-31.5 -26t-45 -18t-67 -8.5t-88.5 -5t-118.5 -0.5q-63 0 -99.5 0.5t-74.5 3t-56 5.5t-37 11.5t-24.5 16.5t-11.5 25.5t-6.5 33t-0.5 44.5v270q-25 -30 -45 -50l-41 50q-9 -258 -94 -415l-78 88q36 77 53 182.5t17 274.5v297h370v83
h110v-83h368v-84h-487q-15 -53 -23 -73h478q-5 -214 -17.5 -315.5t-31.5 -129.5t-59 -28q-34 0 -140 6l-2 34h-270z" />
    <glyph glyph-name="glyph08464" unicode="&#xe0103;" 
d="M318 265v-53h160v53h-160zM318 335h160v50h-160v-50zM708 434l30 38q53 -38 90 -73v133h-120v-98zM706 219l32 41q48 -35 90 -74v163l-30 -39q-54 50 -90 78v-91q0 -28 -2 -78zM945 665h-757v-284q0 -297 -96 -473l-74 87q37 81 53.5 186t16.5 273v298h377v83h110v-83
h370v-87zM582 510h-134v-52h120v-318h-120v-52h122v-61q45 100 45 305v286h310v-588q0 -83 -12.5 -101.5t-67.5 -18.5q-27 0 -115 5l-5 90q60 -5 77 -5q19 0 22.5 5.5t3.5 36.5v94l-30 -38q-39 37 -95 81q-15 -170 -91 -279l-77 62q11 17 24 43h-111v-100h-100v100h-158v83
h158v52h-30h-90v318h120v52h-140v80h140v55h100v-55h134v-80z" />
    <glyph glyph-name="glyph08464" unicode="&#xe0101;" 
d="M318 265v-53h160v53h-160zM318 335h160v50h-160v-50zM708 434l30 38q53 -38 90 -73v133h-120v-98zM706 219l32 41q48 -35 90 -74v163l-30 -39q-54 50 -90 78v-91q0 -28 -2 -78zM945 665h-757v-284q0 -297 -96 -473l-74 87q37 81 53.5 186t16.5 273v298h377v83h110v-83
h370v-87zM582 510h-134v-52h120v-318h-120v-52h122v-61q45 100 45 305v286h310v-588q0 -83 -12.5 -101.5t-67.5 -18.5q-27 0 -115 5l-5 90q60 -5 77 -5q19 0 22.5 5.5t3.5 36.5v94l-30 -38q-39 37 -95 81q-15 -170 -91 -279l-77 62q11 17 24 43h-111v-100h-100v100h-158v83
h158v52h-30h-90v318h120v52h-140v80h140v55h100v-55h134v-80z" />
    <glyph glyph-name="glyph08465" unicode="&#xe0103;" 
d="M376 670h248q-61 33 -124 72q-63 -39 -124 -72zM27 -33q75 75 123 176l86 -35q-44 -108 -128 -192zM679 80l100 -15q-9 -99 -32 -124t-109 -32q-48 -4 -128 -4q-76 0 -128 3q-80 5 -100 25.5t-20 103.5v93h108v-79q0 -40 5.5 -48t34.5 -10q36 -3 95 -3q53 0 95 3
q53 4 62.5 14.5t16.5 72.5zM974 -40l-86 -40q-60 108 -137 199l90 42q80 -104 133 -201zM395 490h-195v-325h-105v381q-5 -2 -15 -5.5t-15 -5.5l-37 87q164 48 314 118h-194v82h392q191 -115 432 -200l-37 -87q-109 37 -223 91v-36h-424v36q-82 -38 -155 -66h365v-250
q0 -98 -17 -118q87 -50 164 -113l-61 -67q-79 66 -169 118l48 50q-19 -8 -81 -8l-100 6l-2 72q73 -5 82 -5q24 0 28.5 5t4.5 32v208zM212 410l28 68q60 -14 142 -40l-27 -68q-74 23 -143 40zM212 305l28 67q60 -14 142 -40l-27 -67q-74 23 -143 40zM510 380q82 85 130 188
l102 -16q-46 -94 -120 -172q86 -96 128 -198l-102 -14q-50 118 -138 212zM695 380q74 72 120 165l97 -25q-40 -76 -104 -140q84 -88 127 -188l-103 -14q-51 114 -137 202z" />
    <glyph glyph-name="glyph08465" unicode="&#xe0101;" 
d="M376 670h248q-61 33 -124 72q-63 -39 -124 -72zM27 -33q75 75 123 176l86 -35q-44 -108 -128 -192zM679 80l100 -15q-9 -99 -32 -124t-109 -32q-48 -4 -128 -4q-76 0 -128 3q-80 5 -100 25.5t-20 103.5v93h108v-79q0 -40 5.5 -48t34.5 -10q36 -3 95 -3q53 0 95 3
q53 4 62.5 14.5t16.5 72.5zM974 -40l-86 -40q-60 108 -137 199l90 42q80 -104 133 -201zM395 490h-195v-325h-105v381q-5 -2 -15 -5.5t-15 -5.5l-37 87q164 48 314 118h-194v82h392q191 -115 432 -200l-37 -87q-109 37 -223 91v-36h-424v36q-82 -38 -155 -66h365v-250
q0 -98 -17 -118q87 -50 164 -113l-61 -67q-79 66 -169 118l48 50q-19 -8 -81 -8l-100 6l-2 72q73 -5 82 -5q24 0 28.5 5t4.5 32v208zM212 410l28 68q60 -14 142 -40l-27 -68q-74 23 -143 40zM212 305l28 67q60 -14 142 -40l-27 -67q-74 23 -143 40zM510 380q82 85 130 188
l102 -16q-46 -94 -120 -172q86 -96 128 -198l-102 -14q-50 118 -138 212zM695 380q74 72 120 165l97 -25q-40 -76 -104 -140q84 -88 127 -188l-103 -14q-51 114 -137 202z" />
    <glyph glyph-name="glyph08466" unicode="&#xe0103;" 
d="M445 460v-98h97v98h-97zM445 540h97v92h-97v-92zM620 111q29 -59 58 -126v195q-17 -24 -58 -69zM288 -62l-13 90q28 5 70 14v240l-50 -64q-25 60 -53 135v-443h-100v373q-32 -95 -70 -163l-57 98q91 161 126 334h-103v90h104v168h100v-168h76v-90h-72q13 -30 49.5 -118
t49.5 -117v403h95v100h105v-100h95v-442h-195v-210q28 8 84 28q-20 41 -67 126l80 38q5 -9 18 -32.5t20 -36.5q23 27 45 61l53 -48v581h290v-90q-30 -118 -81 -251q40 -50 64 -121t24 -138q0 -90 -33 -127.5t-107 -37.5h-33l-20 92h18q42 0 60 20t18 70q0 122 -94 229
q51 117 90 264h-99v-785h-97v54l-73 -34q-18 44 -38 87q-135 -54 -279 -79z" />
    <glyph glyph-name="glyph08466" unicode="&#xe0101;" 
d="M445 460v-98h97v98h-97zM445 540h97v92h-97v-92zM620 111q29 -59 58 -126v195q-17 -24 -58 -69zM288 -62l-13 90q28 5 70 14v240l-50 -64q-25 60 -53 135v-443h-100v373q-32 -95 -70 -163l-57 98q91 161 126 334h-103v90h104v168h100v-168h76v-90h-72q13 -30 49.5 -118
t49.5 -117v403h95v100h105v-100h95v-442h-195v-210q28 8 84 28q-20 41 -67 126l80 38q5 -9 18 -32.5t20 -36.5q23 27 45 61l53 -48v581h290v-90q-30 -118 -81 -251q40 -50 64 -121t24 -138q0 -90 -33 -127.5t-107 -37.5h-33l-20 92h18q42 0 60 20t18 70q0 122 -94 229
q51 117 90 264h-99v-785h-97v54l-73 -34q-18 44 -38 87q-135 -54 -279 -79z" />
    <glyph glyph-name="glyph08467" unicode="&#xe0103;" 
d="M578 475h80v65h-80v-65zM578 338h80v67h-80v-67zM835 475v65h-80v-65h80zM835 405h-80v-67h80v67zM44 736l64 66q81 -64 154 -137l-64 -64q-71 70 -154 135zM178 363q-79 78 -161 143l64 68q90 -70 162 -141zM250 239q-44 -172 -123 -319l-86 52q73 140 119 302zM385 600
q-75 72 -153 132l58 73q71 -54 150 -128v81h212v62h106v-62h200v-86h-200v-54h177v-358h-177v-58h200v-82h-200v-80h-106v80h-197v82h197v58h-74h-100v358h174v54h-207zM385 382q-81 77 -153 133l58 73q83 -63 155 -133zM238 345h182v-217q18 -45 45.5 -67.5t81 -32.5
t153.5 -10h262l-2 -90h-282q-132 0 -201.5 21t-104.5 73q-46 -60 -102 -112l-60 78q67 59 108 115v152h-80v90z" />
    <glyph glyph-name="glyph08467" unicode="&#xe0100;" 
d="M578 475h80v65h-80v-65zM578 338h80v67h-80v-67zM835 475v65h-80v-65h80zM835 405h-80v-67h80v67zM44 736l64 66q81 -64 154 -137l-64 -64q-71 70 -154 135zM178 363q-79 78 -161 143l64 68q90 -70 162 -141zM250 239q-44 -172 -123 -319l-86 52q73 140 119 302zM385 600
q-75 72 -153 132l58 73q71 -54 150 -128v81h212v62h106v-62h200v-86h-200v-54h177v-358h-177v-58h200v-82h-200v-80h-106v80h-197v82h197v58h-74h-100v358h174v54h-207zM385 382q-81 77 -153 133l58 73q83 -63 155 -133zM238 345h182v-217q18 -45 45.5 -67.5t81 -32.5
t153.5 -10h262l-2 -90h-282q-132 0 -201.5 21t-104.5 73q-46 -60 -102 -112l-60 78q67 59 108 115v152h-80v90z" />
    <glyph glyph-name="glyph08468" unicode="&#xe0103;" 
d="M220 250q33 88 52 198l83 -23q-24 -147 -81 -274l-43 21q-44 -141 -104 -252l-86 52q73 140 119 302zM712 260v-72h140v72h-140zM712 405v-70h140v70h-140zM712 480h140v68h-140v-68zM44 736l64 65q92 -75 153 -138l-65 -64q-60 62 -152 137zM181 348q-72 78 -164 158
l64 68q92 -78 165 -156zM402 130q-23 0 -90 5l-2 90q33 -5 45 -5q15 0 17.5 6.5t2.5 45.5v186h-147v90h44v220h88v-220h40v262h95v-90h80v-85h-80v-87h103v-90h-128v-200q0 -52 -5 -74q48 92 67 231l86 -34v247h94q2 8 15 70h-132v87h377v-87h-146q-5 -24 -15 -70h141v-523
h-111q85 -58 144 -125l-55 -75q-75 80 -155 135l49 65h-112h-4l50 -65q-58 -79 -156 -135l-47 83q83 48 141 117h-78v247q-19 -178 -123 -299.5t-253 -150.5l-32 90q143 27 226 144q-14 -6 -34 -6z" />
    <glyph glyph-name="glyph08468" unicode="&#xe0101;" 
d="M220 250q33 88 52 198l83 -23q-24 -147 -81 -274l-43 21q-44 -141 -104 -252l-86 52q73 140 119 302zM712 260v-72h140v72h-140zM712 405v-70h140v70h-140zM712 480h140v68h-140v-68zM44 736l64 65q92 -75 153 -138l-65 -64q-60 62 -152 137zM181 348q-72 78 -164 158
l64 68q92 -78 165 -156zM402 130q-23 0 -90 5l-2 90q33 -5 45 -5q15 0 17.5 6.5t2.5 45.5v186h-147v90h44v220h88v-220h40v262h95v-90h80v-85h-80v-87h103v-90h-128v-200q0 -52 -5 -74q48 92 67 231l86 -34v247h94q2 8 15 70h-132v87h377v-87h-146q-5 -24 -15 -70h141v-523
h-111q85 -58 144 -125l-55 -75q-75 80 -155 135l49 65h-112h-4l50 -65q-58 -79 -156 -135l-47 83q83 48 141 117h-78v247q-19 -178 -123 -299.5t-253 -150.5l-32 90q143 27 226 144q-14 -6 -34 -6z" />
    <glyph glyph-name="glyph08470" unicode="&#xe0104;" 
d="M408 658q-17 22 -38 60h-164q-13 -25 -37 -60h239zM158 277q23 24 31.5 55.5t8.5 89.5h-40v-145zM158 35h277v63h-277v-63zM272 578v-73h48v73h-48zM435 320v102h-45v-60q0 -31 4 -36.5t24 -5.5h17zM435 802q51 -100 133 -172l-50 -90q-42 33 -78 76v-38h-28v-73h118
v-488q143 181 162 483h-134v95h137v205h103l47 30q71 -85 123 -160l-76 -50q-55 79 -92 126v-151h170v-95h-168q19 -324 178 -502l-65 -83q-110 113 -168 352q-57 -230 -167 -352l-50 80v-40h-372v-40h-98v590h118v73h-40v38q-36 -43 -78 -76l-50 90q76 68 130 170l65 -39
v41h230zM280 422q0 -93 -19 -142t-69 -92l-34 36v-52h277v70h-57q-40 0 -54 17t-14 71v92h-30z" />
    <glyph glyph-name="glyph08470" unicode="&#xe0102;" 
d="M408 658q-17 22 -38 60h-164q-13 -25 -37 -60h239zM158 277q23 24 31.5 55.5t8.5 89.5h-40v-145zM158 35h277v63h-277v-63zM272 578v-73h48v73h-48zM435 320v102h-45v-60q0 -31 4 -36.5t24 -5.5h17zM435 802q51 -100 133 -172l-50 -90q-42 33 -78 76v-38h-28v-73h118
v-488q143 181 162 483h-134v95h137v205h103l47 30q71 -85 123 -160l-76 -50q-55 79 -92 126v-151h170v-95h-168q19 -324 178 -502l-65 -83q-110 113 -168 352q-57 -230 -167 -352l-50 80v-40h-372v-40h-98v590h118v73h-40v38q-36 -43 -78 -76l-50 90q76 68 130 170l65 -39
v41h230zM280 422q0 -93 -19 -142t-69 -92l-34 36v-52h277v70h-57q-40 0 -54 17t-14 71v92h-30z" />
    <glyph glyph-name="glyph08471" unicode="&#xe0103;" 
d="M242 58v-38h516v38h-516zM242 158v-38h516v38h-516zM242 220h516v38h-516v-38zM360 588l58 14q23 -40 42 -88v101h-100v-27zM170 474q24 59 35 121l63 -13v33h-98v-141zM758 548q42 49 59 134h-140q-11 -21 -22 -37l60 7q12 -64 43 -104zM827 487q53 -33 148 -62l-50 -80
q-109 35 -171 79q-58 -38 -152 -69l-44 80q79 24 128 53q-38 48 -58 118q-26 -35 -46 -56l-32 23v-133q0 -48 -14 -61.5t-61 -13.5q-32 0 -83 3l-4 80q35 -3 52 -3q15 0 17.5 3.5t2.5 23.5v5l-58 -15q-16 48 -42 99v-193h-92v171q-16 -70 -46 -127l-52 17v-69h-92v310
l-33 12q73 74 113 143l87 -27q-32 -53 -75 -103h92v130h103v-130h100q-36 50 -83 97l86 33q55 -53 100 -125l-18 -6v-37q57 75 92 173l93 -12q-5 -18 -16 -48h236v-88h-44q-20 -121 -84 -195zM868 332v-424h-110v40h-516v-40h-110v424h736z" />
    <glyph glyph-name="glyph08471" unicode="&#xe0101;" 
d="M242 58v-38h516v38h-516zM242 158v-38h516v38h-516zM242 220h516v38h-516v-38zM360 588l58 14q23 -40 42 -88v101h-100v-27zM170 474q24 59 35 121l63 -13v33h-98v-141zM758 548q42 49 59 134h-140q-11 -21 -22 -37l60 7q12 -64 43 -104zM827 487q53 -33 148 -62l-50 -80
q-109 35 -171 79q-58 -38 -152 -69l-44 80q79 24 128 53q-38 48 -58 118q-26 -35 -46 -56l-32 23v-133q0 -48 -14 -61.5t-61 -13.5q-32 0 -83 3l-4 80q35 -3 52 -3q15 0 17.5 3.5t2.5 23.5v5l-58 -15q-16 48 -42 99v-193h-92v171q-16 -70 -46 -127l-52 17v-69h-92v310
l-33 12q73 74 113 143l87 -27q-32 -53 -75 -103h92v130h103v-130h100q-36 50 -83 97l86 33q55 -53 100 -125l-18 -6v-37q57 75 92 173l93 -12q-5 -18 -16 -48h236v-88h-44q-20 -121 -84 -195zM868 332v-424h-110v40h-516v-40h-110v424h736z" />
    <glyph glyph-name="glyph08472" unicode="&#xe0103;" 
d="M283 589q-22 58 -34 86h-35q-34 -47 -78 -87q99 0 147 1zM508 596l-56 53q16 12 32 26h-124q16 -40 32 -84q41 1 116 5zM691 606l-27 69h-42q-40 -46 -78 -78q76 5 147 9zM240 358h538v44h-538v-44zM432 118v57h-94v-57h94zM625 118v57h-95v-57h95zM722 118h96v57h-96
v-57zM818 32v13h-96v-120h-97v120h-95v-120h-98v120h-94v-135h-103v339q-1 -14 -5 -37q-25 -169 -120 -290l-82 70q56 74 81.5 157t25.5 191v247q-28 -25 -29 -26l-72 68q110 94 156 205l100 -21q-6 -17 -22 -51h244v-60q65 65 96 133l99 -22q-6 -17 -24 -51h267v-87h-175
q4 -10 11.5 -30t11.5 -30q17 2 36 4t41 5t33 4l27 -86q-290 -37 -695 -37v-27h645v-193h-647q-2 -24 -3 -35h685v-238q0 -59 -16.5 -78t-68.5 -19q-31 0 -80 3l-5 84q27 -2 48 -2q14 0 17 4.5t3 27.5z" />
    <glyph glyph-name="glyph08472" unicode="&#xe0101;" 
d="M283 589q-22 58 -34 86h-35q-34 -47 -78 -87q99 0 147 1zM508 596l-56 53q16 12 32 26h-124q16 -40 32 -84q41 1 116 5zM691 606l-27 69h-42q-40 -46 -78 -78q76 5 147 9zM240 358h538v44h-538v-44zM432 118v57h-94v-57h94zM625 118v57h-95v-57h95zM722 118h96v57h-96
v-57zM818 32v13h-96v-120h-97v120h-95v-120h-98v120h-94v-135h-103v339q-1 -14 -5 -37q-25 -169 -120 -290l-82 70q56 74 81.5 157t25.5 191v247q-28 -25 -29 -26l-72 68q110 94 156 205l100 -21q-6 -17 -22 -51h244v-60q65 65 96 133l99 -22q-6 -17 -24 -51h267v-87h-175
q4 -10 11.5 -30t11.5 -30q17 2 36 4t41 5t33 4l27 -86q-290 -37 -695 -37v-27h645v-193h-647q-2 -24 -3 -35h685v-238q0 -59 -16.5 -78t-68.5 -19q-31 0 -80 3l-5 84q27 -2 48 -2q14 0 17 4.5t3 27.5z" />
    <glyph glyph-name="glyph08473" unicode="&#xe0104;" 
d="M608 242v38h-103v-38h103zM608 172h-103v-37h103v37zM705 242h103v38h-103v-38zM705 172v-37h103v37h-103zM505 380v-35h103v35h-103zM268 698h-54q-33 -40 -63 -66h149q-20 42 -32 66zM378 698q4 -8 22 -46l-78 -20h183v29l-45 29q1 0 11 8h-93zM695 698h-74
q-25 -25 -39 -36h33v-30h113q-4 9 -9.5 20l-12.5 25t-11 21zM240 459l-20 63q158 8 268 36h-296v-240q0 -28 -2 -76h212v38h-180v65h180v35h-194v62h194v35q-72 -11 -162 -18zM505 448h103v74q140 8 236 36h-304l28 -46q-23 -7 -63 -16v-48zM35 665q104 75 155 173l102 -16
q-4 -11 -22 -44h238v-54q64 51 100 114l102 -16q-12 -27 -24 -44h264v-80h-144q4 -8 22 -46l-78 -20h200v-74h-60l28 -48q-81 -28 -208 -44v-18h232v-68h-232v-35h192v-103h50v-70h-50v-102h-135q81 -45 201 -85l-46 -77q-125 47 -212 104v-110h-102v168h-103v-168h-103v110
q-89 -58 -212 -104l-45 77q116 38 201 85h-124v65h180v37h-218q-19 -162 -84 -267l-80 83q70 134 70 394v235z" />
    <glyph glyph-name="glyph08473" unicode="&#xe0102;" 
d="M608 242v38h-103v-38h103zM608 172h-103v-37h103v37zM705 242h103v38h-103v-38zM705 172v-37h103v37h-103zM505 380v-35h103v35h-103zM268 698h-54q-33 -40 -63 -66h149q-20 42 -32 66zM378 698q4 -8 22 -46l-78 -20h183v29l-45 29q1 0 11 8h-93zM695 698h-74
q-25 -25 -39 -36h33v-30h113q-4 9 -9.5 20l-12.5 25t-11 21zM240 459l-20 63q158 8 268 36h-296v-240q0 -28 -2 -76h212v38h-180v65h180v35h-194v62h194v35q-72 -11 -162 -18zM505 448h103v74q140 8 236 36h-304l28 -46q-23 -7 -63 -16v-48zM35 665q104 75 155 173l102 -16
q-4 -11 -22 -44h238v-54q64 51 100 114l102 -16q-12 -27 -24 -44h264v-80h-144q4 -8 22 -46l-78 -20h200v-74h-60l28 -48q-81 -28 -208 -44v-18h232v-68h-232v-35h192v-103h50v-70h-50v-102h-135q81 -45 201 -85l-46 -77q-125 47 -212 104v-110h-102v168h-103v-168h-103v110
q-89 -58 -212 -104l-45 77q116 38 201 85h-124v65h180v37h-218q-19 -162 -84 -267l-80 83q70 134 70 394v235z" />
    <glyph glyph-name="glyph08474" unicode="&#xe0104;" 
d="M648 366q73 -69 168 -117q6 143 6 426h-157q-2 -188 -17 -309zM28 744l87 21q29 -103 51 -230l-84 -20q-23 114 -54 229zM282 537q39 118 53 233l89 -11q-19 -125 -58 -246zM392 492v-87h-95q42 -78 128 -241l-72 -51q-32 70 -78 163v-366h-100v308q-42 -114 -103 -198
l-54 98q99 137 143 287h-121v87h135v318h100v-318h117zM452 -82l-77 64q68 67 108.5 149t59.5 205q-83 87 -143 199l75 65q36 -70 83 -132q7 85 7 207h-115v90h478q0 -384 -10 -558q10 -4 72 -19l-15 -93q-39 9 -64 16q-6 -59 -15.5 -94.5t-25 -52.5t-30.5 -21.5t-42 -4.5
q-51 0 -163 10l-3 94q91 -10 128 -10q20 0 31 22.5t18 93.5q-97 42 -179 108q-24 -112 -67 -192t-111 -146z" />
    <glyph glyph-name="glyph08474" unicode="&#xe0102;" 
d="M648 366q73 -69 168 -117q6 143 6 426h-157q-2 -188 -17 -309zM28 744l87 21q29 -103 51 -230l-84 -20q-23 114 -54 229zM282 537q39 118 53 233l89 -11q-19 -125 -58 -246zM392 492v-87h-95q42 -78 128 -241l-72 -51q-32 70 -78 163v-366h-100v308q-42 -114 -103 -198
l-54 98q99 137 143 287h-121v87h135v318h100v-318h117zM452 -82l-77 64q68 67 108.5 149t59.5 205q-83 87 -143 199l75 65q36 -70 83 -132q7 85 7 207h-115v90h478q0 -384 -10 -558q10 -4 72 -19l-15 -93q-39 9 -64 16q-6 -59 -15.5 -94.5t-25 -52.5t-30.5 -21.5t-42 -4.5
q-51 0 -163 10l-3 94q91 -10 128 -10q20 0 31 22.5t18 93.5q-97 42 -179 108q-24 -112 -67 -192t-111 -146z" />
    <glyph glyph-name="glyph08475" unicode="&#xe0103;" 
d="M637 499q74 26 135 59h-259q62 -35 124 -59zM747 464q90 -25 218 -46l-20 -70q-176 30 -307 75q-145 -47 -340 -75l-30 70q162 23 261 49q-58 28 -106 58q-39 -23 -93 -47l-40 50l-50 -63q-96 64 -182 107l57 70q89 -45 170 -96q123 53 210 129l100 -13l-34 -34h349v-70
q-73 -54 -163 -94zM740 772h205v-84h-205v-40h-105v40h-270v-66h-105v66h-205v84h205v63h105v-63h270v63h105v-63zM942 138v-76h-250v-54h260l-4 -88h-288q-189 0 -285 19t-142 66q-67 -57 -145 -103l-50 83q74 43 134 92v85h-124v86h227v-165q33 -40 97.5 -56.5
t209.5 -18.5v54h-284v76h284v34h-237v70h237v33h-262v73h262v50h110v-50h233v-73h-233v-33h208v-70h-208v-34h250zM298 348l-58 -73q-87 58 -182 107l57 70q102 -51 183 -104z" />
    <glyph glyph-name="glyph08475" unicode="&#xe0101;" 
d="M637 499q74 26 135 59h-259q62 -35 124 -59zM747 464q90 -25 218 -46l-20 -70q-176 30 -307 75q-145 -47 -340 -75l-30 70q162 23 261 49q-58 28 -106 58q-39 -23 -93 -47l-40 50l-50 -63q-96 64 -182 107l57 70q89 -45 170 -96q123 53 210 129l100 -13l-34 -34h349v-70
q-73 -54 -163 -94zM740 772h205v-84h-205v-40h-105v40h-270v-66h-105v66h-205v84h205v63h105v-63h270v63h105v-63zM942 138v-76h-250v-54h260l-4 -88h-288q-189 0 -285 19t-142 66q-67 -57 -145 -103l-50 83q74 43 134 92v85h-124v86h227v-165q33 -40 97.5 -56.5
t209.5 -18.5v54h-284v76h284v34h-237v70h237v33h-262v73h262v50h110v-50h233v-73h-233v-33h208v-70h-208v-34h250zM298 348l-58 -73q-87 58 -182 107l57 70q102 -51 183 -104z" />
    <glyph glyph-name="glyph08476" unicode="&#xe0105;" 
d="M375 635h250v47h-250v-47zM565 492v73h-130v-73h130zM658 492h124v73h-124v-73zM595 368h129q-24 25 -54 52h-81q5 -49 6 -52zM730 768h220v-86h-220v-47h155v-215h-96q1 -1 20 -21t29 -31h80v-83h-306q18 -66 50 -126q70 52 106 116l87 -43q-48 -80 -141 -148
q59 -66 101 -66q30 0 45 112l92 -30q-11 -92 -44.5 -142t-75.5 -50q-44 0 -99 31t-104 91q-136 -74 -329 -110l-50 85q193 31 327 101q-47 84 -70 179h-305v-34q0 -17 -2 -49h260v-82h-272q-29 -138 -88 -208l-72 80q72 105 72 286v90h391q-3 19 -7 52h-266h-103v215h155v47
h-220v86h220v52h105v-52h250v52h105v-52zM342 565h-124v-73h124v73z" />
    <glyph glyph-name="glyph08476" unicode="&#xe0101;" 
d="M375 635h250v47h-250v-47zM565 492v73h-130v-73h130zM658 492h124v73h-124v-73zM595 368h129q-24 25 -54 52h-81q5 -49 6 -52zM730 768h220v-86h-220v-47h155v-215h-96q1 -1 20 -21t29 -31h80v-83h-306q18 -66 50 -126q70 52 106 116l87 -43q-48 -80 -141 -148
q59 -66 101 -66q30 0 45 112l92 -30q-11 -92 -44.5 -142t-75.5 -50q-44 0 -99 31t-104 91q-136 -74 -329 -110l-50 85q193 31 327 101q-47 84 -70 179h-305v-34q0 -17 -2 -49h260v-82h-272q-29 -138 -88 -208l-72 80q72 105 72 286v90h391q-3 19 -7 52h-266h-103v215h155v47
h-220v86h220v52h105v-52h250v52h105v-52zM342 565h-124v-73h124v73z" />
    <glyph glyph-name="glyph08477" unicode="&#xe0104;" 
d="M773 205q33 83 47 230h-112q-3 -7 -9 -22.5t-9 -23.5l38 9q14 -118 45 -193zM360 283l52 15q31 -97 48 -177v214h-100v-52zM170 84q28 100 40 206l58 -9v54h-98v-251zM950 758v-86h-225v-42h-105v42h-240v-42h-105v42h-225v86h225v64h105v-64h240v64h105v-64h225z
M262 612h103v-192h109q-41 84 -92 160l86 38q56 -82 104 -190l-22 -10v-111q74 128 116 314l89 -14q-7 -39 -20 -87h220v-85h-43q-19 -214 -83 -327q51 -65 146 -118l-50 -79q-96 52 -154 117q-60 -64 -164 -117l-54 76q108 54 162 119q-43 78 -66 194q-15 -29 -45 -77
l-54 38v-203q0 -99 -12.5 -122.5t-62.5 -23.5q-3 0 -83 6l-4 90q50 -6 54 -6q12 0 15 8t3 45v28l-58 -15q-18 87 -42 170v-318h-92v299q-14 -98 -46 -197l-52 17v-129h-92v485l-36 15q77 113 116 208l87 -30q-37 -86 -87 -168h104v192z" />
    <glyph glyph-name="glyph08477" unicode="&#xe0101;" 
d="M773 205q33 83 47 230h-112q-3 -7 -9 -22.5t-9 -23.5l38 9q14 -118 45 -193zM360 283l52 15q31 -97 48 -177v214h-100v-52zM170 84q28 100 40 206l58 -9v54h-98v-251zM950 758v-86h-225v-42h-105v42h-240v-42h-105v42h-225v86h225v64h105v-64h240v64h105v-64h225z
M262 612h103v-192h109q-41 84 -92 160l86 38q56 -82 104 -190l-22 -10v-111q74 128 116 314l89 -14q-7 -39 -20 -87h220v-85h-43q-19 -214 -83 -327q51 -65 146 -118l-50 -79q-96 52 -154 117q-60 -64 -164 -117l-54 76q108 54 162 119q-43 78 -66 194q-15 -29 -45 -77
l-54 38v-203q0 -99 -12.5 -122.5t-62.5 -23.5q-3 0 -83 6l-4 90q50 -6 54 -6q12 0 15 8t3 45v28l-58 -15q-18 87 -42 170v-318h-92v299q-14 -98 -46 -197l-52 17v-129h-92v485l-36 15q77 113 116 208l87 -30q-37 -86 -87 -168h104v192z" />
    <glyph glyph-name="glyph08478" unicode="&#xe0103;" 
d="M155 -55v-40h-95v300h272v-260h-177zM155 30h87v90h-87v-90zM728 356q-54 36 -66 46q-67 -51 -158 -103q130 19 224 57zM762 334l16 -42q-134 -66 -348 -87l-13 48q-19 -9 -57 -25l-20 84q100 38 195 98h-3v92q-65 -62 -152 -114l-35 77q105 61 187 144v53
q-65 -62 -152 -114l-35 77q62 35 118 80h-103v85h270v-325h58l-10 23q92 55 170 137v52q-72 -72 -168 -129l-35 77q62 35 118 80h-103v85h288v-382h-100v108q-44 -42 -93 -78q97 -66 227 -123l-20 -87q-107 48 -200 106zM60 692v88h270v-88h-270zM40 548v90h300v-90h-300z
M68 405v85h260v-85h-260zM68 262v86h260v-86h-260zM842 258l28 -76q-168 -98 -450 -124l-22 84q283 26 444 116zM925 142l33 -80q-198 -122 -543 -154l-23 87q339 31 533 147z" />
    <glyph glyph-name="glyph08478" unicode="&#xe0101;" 
d="M155 -55v-40h-95v300h272v-260h-177zM155 30h87v90h-87v-90zM728 356q-54 36 -66 46q-67 -51 -158 -103q130 19 224 57zM762 334l16 -42q-134 -66 -348 -87l-13 48q-19 -9 -57 -25l-20 84q100 38 195 98h-3v92q-65 -62 -152 -114l-35 77q105 61 187 144v53
q-65 -62 -152 -114l-35 77q62 35 118 80h-103v85h270v-325h58l-10 23q92 55 170 137v52q-72 -72 -168 -129l-35 77q62 35 118 80h-103v85h288v-382h-100v108q-44 -42 -93 -78q97 -66 227 -123l-20 -87q-107 48 -200 106zM60 692v88h270v-88h-270zM40 548v90h300v-90h-300z
M68 405v85h260v-85h-260zM68 262v86h260v-86h-260zM842 258l28 -76q-168 -98 -450 -124l-22 84q283 26 444 116zM925 142l33 -80q-198 -122 -543 -154l-23 87q339 31 533 147z" />
    <glyph glyph-name="glyph08479" unicode="&#xe0103;" 
d="M78 608l-30 87q225 47 370 130l44 -73q-148 -86 -384 -144zM822 -75q-91 0 -212 7l-5 96q102 -8 170 -8q19 0 28 12.5t18.5 70.5t15 177.5t11.5 334.5h-244q-56 -138 -124 -225l-70 70q42 56 82 144q-50 -57 -120 -111q47 -76 73.5 -174t26.5 -194q0 -125 -20 -167.5
t-72 -42.5q-62 0 -145 5l-7 88q88 -6 104 -6q33 0 40.5 18t7.5 102q0 30 -3 58q-117 -133 -312 -228l-35 80q214 99 332 237q-7 27 -18 59q-102 -104 -274 -186l-35 78q176 74 280 173q-11 24 -24 44q-101 -63 -219 -112l-32 80q47 19 94 41q-26 62 -56 119l77 50
q26 -49 59 -126q45 27 78 50q-24 52 -44 89l77 50q20 -35 41 -81q48 43 74 75l54 -63q47 107 71 221l103 -10q-10 -47 -31 -112h315q-3 -144 -5.5 -248t-7 -189t-9 -139t-12.5 -95t-15.5 -61.5t-21.5 -33t-26 -15t-33 -2.5zM495 282v93h295v-93h-295z" />
    <glyph glyph-name="glyph08479" unicode="&#xe0101;" 
d="M78 608l-30 87q225 47 370 130l44 -73q-148 -86 -384 -144zM822 -75q-91 0 -212 7l-5 96q102 -8 170 -8q19 0 28 12.5t18.5 70.5t15 177.5t11.5 334.5h-244q-56 -138 -124 -225l-70 70q42 56 82 144q-50 -57 -120 -111q47 -76 73.5 -174t26.5 -194q0 -125 -20 -167.5
t-72 -42.5q-62 0 -145 5l-7 88q88 -6 104 -6q33 0 40.5 18t7.5 102q0 30 -3 58q-117 -133 -312 -228l-35 80q214 99 332 237q-7 27 -18 59q-102 -104 -274 -186l-35 78q176 74 280 173q-11 24 -24 44q-101 -63 -219 -112l-32 80q47 19 94 41q-26 62 -56 119l77 50
q26 -49 59 -126q45 27 78 50q-24 52 -44 89l77 50q20 -35 41 -81q48 43 74 75l54 -63q47 107 71 221l103 -10q-10 -47 -31 -112h315q-3 -144 -5.5 -248t-7 -189t-9 -139t-12.5 -95t-15.5 -61.5t-21.5 -33t-26 -15t-33 -2.5zM495 282v93h295v-93h-295z" />
    <glyph glyph-name="glyph08480" unicode="&#xe0103;" 
d="M822 335l103 -7q-3 -48 -5.5 -75.5t-9.5 -56.5t-14 -43.5t-24 -29t-33 -19.5t-48.5 -10t-64 -5.5t-84.5 -0.5q-160 0 -220 26t-60 86q0 59 90 141.5t260 160.5h-277v71q-31 -51 -65 -91l-80 60q107 126 150 296l98 -16q-11 -44 -20 -70h412v-87h-446q-12 -27 -40 -77h451
v-86q-148 -73 -243.5 -132.5t-131 -94.5t-35.5 -57q0 -14 13 -23t50.5 -14.5t103.5 -5.5h67.5t44 7t30 13t15 29t9.5 43.5t4 67.5zM305 665l-67 -67q-75 65 -180 144l70 66q75 -57 177 -143zM305 450l-67 -68q-93 80 -180 146l70 64q86 -65 177 -142zM50 330h225v-204
q25 -45 62 -66.5t111.5 -31.5t216.5 -10h283l-6 -90h-282q-189 0 -284.5 22.5t-142.5 79.5q-58 -58 -148 -119l-48 88q80 54 135 106v135h-122v90z" />
    <glyph glyph-name="glyph08480" unicode="&#xe0101;" 
d="M822 335l103 -7q-3 -48 -5.5 -75.5t-9.5 -56.5t-14 -43.5t-24 -29t-33 -19.5t-48.5 -10t-64 -5.5t-84.5 -0.5q-160 0 -220 26t-60 86q0 59 90 141.5t260 160.5h-277v71q-31 -51 -65 -91l-80 60q107 126 150 296l98 -16q-11 -44 -20 -70h412v-87h-446q-12 -27 -40 -77h451
v-86q-148 -73 -243.5 -132.5t-131 -94.5t-35.5 -57q0 -14 13 -23t50.5 -14.5t103.5 -5.5h67.5t44 7t30 13t15 29t9.5 43.5t4 67.5zM305 665l-67 -67q-75 65 -180 144l70 66q75 -57 177 -143zM305 450l-67 -68q-93 80 -180 146l70 64q86 -65 177 -142zM50 330h225v-204
q25 -45 62 -66.5t111.5 -31.5t216.5 -10h283l-6 -90h-282q-189 0 -284.5 22.5t-142.5 79.5q-58 -58 -148 -119l-48 88q80 54 135 106v135h-122v90z" />
    <glyph glyph-name="glyph08481" unicode="&#xe0103;" 
d="M468 455h-108v205h528v-205h-420zM428 70h-100v338h592v-338h-492zM672 272h146v66h-146v-66zM672 208v-68h146v68h-146zM428 208v-68h144v68h-144zM428 272h144v66h-144v-66zM322 708v82h608v-82h-608zM782 522v70h-314v-70h314zM305 665l-67 -67q-75 65 -180 144l70 66
q75 -57 177 -143zM305 450l-67 -68q-93 80 -180 146l70 64q86 -65 177 -142zM50 330h225v-204q25 -45 62 -66.5t111.5 -31.5t216.5 -10h283l-6 -90h-282q-189 0 -284.5 22.5t-142.5 79.5q-58 -58 -148 -119l-48 88q80 54 135 106v135h-122v90z" />
    <glyph glyph-name="glyph08481" unicode="&#xe0101;" 
d="M468 455h-108v205h528v-205h-420zM428 70h-100v338h592v-338h-492zM672 272h146v66h-146v-66zM672 208v-68h146v68h-146zM428 208v-68h144v68h-144zM428 272h144v66h-144v-66zM322 708v82h608v-82h-608zM782 522v70h-314v-70h314zM305 665l-67 -67q-75 65 -180 144l70 66
q75 -57 177 -143zM305 450l-67 -68q-93 80 -180 146l70 64q86 -65 177 -142zM50 330h225v-204q25 -45 62 -66.5t111.5 -31.5t216.5 -10h283l-6 -90h-282q-189 0 -284.5 22.5t-142.5 79.5q-58 -58 -148 -119l-48 88q80 54 135 106v135h-122v90z" />
    <glyph glyph-name="glyph08482" unicode="&#xe0103;" 
d="M138 612h159q-44 50 -85 118q-39 -72 -74 -118zM780 685v-50h62v50h-62zM618 635h62v50h-62v-50zM658 335h170v35h-170v-35zM658 178v-36h182v36h-182zM412 87v168h-54q-16 -91 -23 -125l-70 18q16 74 30 164l45 -9v39h-80v-274q66 20 100 32l4 -66q23 23 48 53zM473 13
q-42 -54 -95 -103l-50 89q-140 -48 -280 -71l-13 90q80 13 125 24v300h-115v88h115v98h-65v33q-25 -29 -47 -49l-26 106q84 81 143 184h90q55 -81 130 -147l-43 -70v-57h-82v-98h98v-85h157v-217q18 -45 45.5 -67.5t81 -32.5t153.5 -10h170l-3 -90h-190q-127 0 -195.5 19
t-103.5 66zM118 302q13 -62 34 -190l-72 -20q-17 104 -35 190zM945 75h-387v360h374v-165h-274v-28h287v-167zM482 372q-85 81 -152 133l58 73q48 -37 100 -82v44h190v28h-60h-98v83l-42 -51q-75 72 -153 132l57 73q74 -56 138 -116v76h158v55h104v-55h158v-197h-158v-28
h183v-78h-441q3 -3 9 -8.5t9 -8.5z" />
    <glyph glyph-name="glyph08482" unicode="&#xe0101;" 
d="M138 612h159q-44 50 -85 118q-39 -72 -74 -118zM780 685v-50h62v50h-62zM618 635h62v50h-62v-50zM658 335h170v35h-170v-35zM658 178v-36h182v36h-182zM412 87v168h-54q-16 -91 -23 -125l-70 18q16 74 30 164l45 -9v39h-80v-274q66 20 100 32l4 -66q23 23 48 53zM473 13
q-42 -54 -95 -103l-50 89q-140 -48 -280 -71l-13 90q80 13 125 24v300h-115v88h115v98h-65v33q-25 -29 -47 -49l-26 106q84 81 143 184h90q55 -81 130 -147l-43 -70v-57h-82v-98h98v-85h157v-217q18 -45 45.5 -67.5t81 -32.5t153.5 -10h170l-3 -90h-190q-127 0 -195.5 19
t-103.5 66zM118 302q13 -62 34 -190l-72 -20q-17 104 -35 190zM945 75h-387v360h374v-165h-274v-28h287v-167zM482 372q-85 81 -152 133l58 73q48 -37 100 -82v44h190v28h-60h-98v83l-42 -51q-75 72 -153 132l57 73q74 -56 138 -116v76h158v55h104v-55h158v-197h-158v-28
h183v-78h-441q3 -3 9 -8.5t9 -8.5z" />
    <glyph glyph-name="glyph08483" unicode="&#xe0103;" 
d="M666 345h134v210h-132v-83q0 -51 -2 -127zM378 662q-33 31 -80 83q-24 -29 -78 -83h158zM180 438h170v47h-170v-47zM180 320h170v50h-170v-50zM180 248v-48h285v-78h-285v-50h285v-80h-285v-82h-105v632q-11 -8 -25 -17l-28 102q121 82 216 185h119q68 -74 156 -133
l-37 -101q-56 46 -64 53v-39h-227v38q-29 -26 -89 -72h354v-310h-270zM565 555h-55v93h63q-39 80 -90 157l98 27q49 -72 90 -157l-81 -27h164q57 95 94 184l103 -20q-29 -70 -82 -164h103v-93h-67v-210h77v-93h-77v-334h-105v334l-139 1q-10 -126 -37.5 -200t-83.5 -145
l-80 70q48 59 69.5 115.5t29.5 158.5h-74v93h79q1 38 1 127v83z" />
    <glyph glyph-name="glyph08483" unicode="&#xe0101;" 
d="M666 345h134v210h-132v-83q0 -51 -2 -127zM378 662q-33 31 -80 83q-24 -29 -78 -83h158zM180 438h170v47h-170v-47zM180 320h170v50h-170v-50zM180 248v-48h285v-78h-285v-50h285v-80h-285v-82h-105v632q-11 -8 -25 -17l-28 102q121 82 216 185h119q68 -74 156 -133
l-37 -101q-56 46 -64 53v-39h-227v38q-29 -26 -89 -72h354v-310h-270zM565 555h-55v93h63q-39 80 -90 157l98 27q49 -72 90 -157l-81 -27h164q57 95 94 184l103 -20q-29 -70 -82 -164h103v-93h-67v-210h77v-93h-77v-334h-105v334l-139 1q-10 -126 -37.5 -200t-83.5 -145
l-80 70q48 59 69.5 115.5t29.5 158.5h-74v93h79q1 38 1 127v83z" />
    <glyph glyph-name="glyph08484" unicode="&#xe0103;" 
d="M197 610q12 21 39 80h-55q-11 -34 -29 -80h45zM250 438h35v87h-35v-87zM250 360v-92h35v92h-35zM175 525h-35v-87h35v87zM140 268h35v92h-35v-92zM140 185h-85v317l-40 28q71 137 117 315l88 -13q-4 -19 -14 -57h122v-85q-7 -18 -36 -80h73v-425h-225zM838 645v-30h-43
v-37h138q-55 34 -95 67zM787 690q-13 12 -37 38h-171q-10 -12 -33 -38h241zM495 438q55 26 73 72h-73v-72zM495 265h350v35h-350v-35zM545 615h-50v26q-38 -32 -88 -63h138v37zM642 615v-37h56v37h-56zM845 458v52h-63v-22q0 -21 11 -25.5t49 -4.5h3zM18 -78q34 116 47 238
l70 -12q-11 -126 -45 -246zM155 -82q-3 114 -13 227l66 10q10 -105 14 -230zM248 -55q-6 91 -23 205l63 10q15 -101 22 -208zM335 -28q-12 95 -33 186l60 10q23 -103 33 -188zM658 510q-14 -91 -116 -138l-47 48v-55h350v27h-80q-50 0 -65 12t-15 51v55h-27zM565 -75
q-67 62 -147 115l42 42h-68v80h390v36h-287h-100v372l-50 80q102 59 173 142l57 -53v73h225q76 -91 192 -160l-44 -78v-376h-58v-36h88v-80h-88v-52q0 -78 -16 -96.5t-86 -18.5q-60 0 -146 5l-2 82q72 -4 112 -4q22 0 26 5t4 37v42h-266q59 -41 114 -90z" />
    <glyph glyph-name="glyph08484" unicode="&#xe0101;" 
d="M197 610q12 21 39 80h-55q-11 -34 -29 -80h45zM250 438h35v87h-35v-87zM250 360v-92h35v92h-35zM175 525h-35v-87h35v87zM140 268h35v92h-35v-92zM140 185h-85v317l-40 28q71 137 117 315l88 -13q-4 -19 -14 -57h122v-85q-7 -18 -36 -80h73v-425h-225zM838 645v-30h-43
v-37h138q-55 34 -95 67zM787 690q-13 12 -37 38h-171q-10 -12 -33 -38h241zM495 438q55 26 73 72h-73v-72zM495 265h350v35h-350v-35zM545 615h-50v26q-38 -32 -88 -63h138v37zM642 615v-37h56v37h-56zM845 458v52h-63v-22q0 -21 11 -25.5t49 -4.5h3zM18 -78q34 116 47 238
l70 -12q-11 -126 -45 -246zM155 -82q-3 114 -13 227l66 10q10 -105 14 -230zM248 -55q-6 91 -23 205l63 10q15 -101 22 -208zM335 -28q-12 95 -33 186l60 10q23 -103 33 -188zM658 510q-14 -91 -116 -138l-47 48v-55h350v27h-80q-50 0 -65 12t-15 51v55h-27zM565 -75
q-67 62 -147 115l42 42h-68v80h390v36h-287h-100v372l-50 80q102 59 173 142l57 -53v73h225q76 -91 192 -160l-44 -78v-376h-58v-36h88v-80h-88v-52q0 -78 -16 -96.5t-86 -18.5q-60 0 -146 5l-2 82q72 -4 112 -4q22 0 26 5t4 37v42h-266q59 -41 114 -90z" />
    <glyph glyph-name="glyph08486" unicode="&#xe0100;" 
d="M738 146q77 -77 242 -144l-38 -87q-171 66 -269 162q-107 -97 -301 -162l-42 85q186 68 278 153q-40 56 -68 115q-30 -59 -78 -110l-77 62q85 84 120 180h95q31 -102 74 -173q49 70 86 178l98 -27q-47 -140 -120 -232zM248 100v568h-88v-568h88zM372 628v90h236v112h107
v-112h250v-90h-593zM590 572q-69 -141 -210 -250l-32 39v-351h-188v-60h-105v810h293v-337q93 89 157 197zM708 556l72 64q117 -110 200 -220l-73 -63q-93 117 -199 219z" />
    <glyph glyph-name="glyph08487" unicode="&#xe0103;" 
d="M525 102q121 45 200 108h-413q86 -62 213 -108zM408 445v-83h-308v382q152 20 280 68l30 -90q-98 -34 -205 -50v-70h193v-82h-193v-75h203zM592 362v83h203v75h-193v82h193v76h-203v90h308v-406h-308zM552 815v-515h310v-90q-85 -88 -209 -148q127 -33 287 -54l-38 -88
q-188 26 -377 91q-181 -61 -427 -91l-38 88q193 19 334 54q-116 51 -192 110l37 38h-157v90h366v515h104z" />
    <glyph glyph-name="glyph08487" unicode="&#xe0101;" 
d="M525 102q121 45 200 108h-413q86 -62 213 -108zM408 445v-83h-308v382q152 20 280 68l30 -90q-98 -34 -205 -50v-70h193v-82h-193v-75h203zM592 362v83h203v75h-193v82h193v76h-203v90h308v-406h-308zM552 815v-515h310v-90q-85 -88 -209 -148q127 -33 287 -54l-38 -88
q-188 26 -377 91q-181 -61 -427 -91l-38 88q193 19 334 54q-116 51 -192 110l37 38h-157v90h366v515h104z" />
    <glyph glyph-name="glyph08488" unicode="&#xe0103;" 
d="M418 348v-76h134v76h-134zM418 422h134v70h-134v-70zM290 100v-90h-145v-60h-97v810h242v-660zM780 545l22 50q23 -20 53 -52v152h-75v-150zM777 278l25 57q23 -20 53 -52v192l-23 -50q-23 27 -52 56v-99q0 -54 -3 -104zM642 570v-375h-107v-70h119q28 105 28 300v360
h270v-720q0 -43 -1.5 -66.5t-5.5 -41.5t-13.5 -24.5t-21.5 -9.5t-35 -3t-110 5l-5 93q57 -6 65 -6q22 0 26 7t4 46v150l-23 -50q-35 40 -59 63q-20 -190 -105 -316l-83 60q18 27 38 68h-88v-132h-100v132h-125v85h125v70h-17h-90v375h107v70h-123v85h123v87h100v-87h123v-85
h-123v-70h107zM145 668v-568h50v568h-50z" />
    <glyph glyph-name="glyph08488" unicode="&#xe0101;" 
d="M418 348v-76h134v76h-134zM418 422h134v70h-134v-70zM290 100v-90h-145v-60h-97v810h242v-660zM780 545l22 50q23 -20 53 -52v152h-75v-150zM777 278l25 57q23 -20 53 -52v192l-23 -50q-23 27 -52 56v-99q0 -54 -3 -104zM642 570v-375h-107v-70h119q28 105 28 300v360
h270v-720q0 -43 -1.5 -66.5t-5.5 -41.5t-13.5 -24.5t-21.5 -9.5t-35 -3t-110 5l-5 93q57 -6 65 -6q22 0 26 7t4 46v150l-23 -50q-35 40 -59 63q-20 -190 -105 -316l-83 60q18 27 38 68h-88v-132h-100v132h-125v85h125v70h-17h-90v375h107v70h-123v85h123v87h100v-87h123v-85
h-123v-70h107zM145 668v-568h50v568h-50z" />
    <glyph glyph-name="glyph08489" unicode="&#xe0103;" 
d="M380 422h38v76h-38v-76zM380 262h38v80h-38v-80zM380 180h-72v400h97v70h-113v85h113v90h97v-90h106v-85h-106v-70h98v-400h-98v-70h110v-85h-110v-117h-97v117h-113v85h113v70h-25zM528 422v76h-38v-76h38zM528 342h-38v-80h38v80zM880 465h-50v-53h50v53zM880 525v47
h-50v-47h50zM705 465v-53h50v53h-50zM705 525h50v47h-50v-47zM881 313q-4 22 -6 32h-45v-37q8 1 25 2.5t26 2.5zM185 100v568h-45v-568h45zM742 640v38h-117v80h117v67h100v-67h130v-80h-130v-38h113v-291q4 -20 10.5 -57.5t9.5 -51.5l-45 -18v-40h45v-80h-45v-57
q0 -64 -5 -89t-19 -33t-51 -8q-18 0 -75 5l-4 74l-54 -69q-45 66 -99 127l39 50h-42v80h212v56q-129 -18 -204 -20l-6 77q59 2 120 6v44h-37h-73v295h110zM832 50v52h-127q45 -52 75 -95q33 -5 40 -5q9 0 10.5 6t1.5 42zM48 760h224v-750h-87h-37v-60h-100v810z" />
    <glyph glyph-name="glyph08489" unicode="&#xe0101;" 
d="M380 422h38v76h-38v-76zM380 262h38v80h-38v-80zM380 180h-72v400h97v70h-113v85h113v90h97v-90h106v-85h-106v-70h98v-400h-98v-70h110v-85h-110v-117h-97v117h-113v85h113v70h-25zM528 422v76h-38v-76h38zM528 342h-38v-80h38v80zM880 465h-50v-53h50v53zM880 525v47
h-50v-47h50zM705 465v-53h50v53h-50zM705 525h50v47h-50v-47zM881 313q-4 22 -6 32h-45v-37q8 1 25 2.5t26 2.5zM185 100v568h-45v-568h45zM742 640v38h-117v80h117v67h100v-67h130v-80h-130v-38h113v-291q4 -20 10.5 -57.5t9.5 -51.5l-45 -18v-40h45v-80h-45v-57
q0 -64 -5 -89t-19 -33t-51 -8q-18 0 -75 5l-4 74l-54 -69q-45 66 -99 127l39 50h-42v80h212v56q-129 -18 -204 -20l-6 77q59 2 120 6v44h-37h-73v295h110zM832 50v52h-127q45 -52 75 -95q33 -5 40 -5q9 0 10.5 6t1.5 42zM48 760h224v-750h-87h-37v-60h-100v810z" />
    <glyph glyph-name="glyph08490" unicode="&#xe0101;" 
d="M235 373v-463h-105v370q-40 -46 -80 -77l-31 109q78 57 132 116.5t102 141.5l81 -50q-40 -78 -99 -147zM75 539l-40 88q72 44 123.5 91t97.5 110l81 -48q-55 -76 -115.5 -132t-146.5 -109zM322 370v88h176v130h-183v92h183v130h100v-420q0 -48 -3 -92q7 3 22 7.5t23 6.5
l22 -84l-78 -27q-18 -100 -63.5 -169t-135.5 -136l-75 77q67 45 104.5 89t56.5 104q-92 -27 -161 -44l-25 90q79 18 206 54q5 47 6 104h-175zM975 220v-92h-187v-218h-106v900h106v-130h182v-92h-182v-136h172v-87h-172v-145h187z" />
    <glyph glyph-name="glyph08491" unicode="&#xe0103;" 
d="M240 475h538v83h-538v-83zM432 180v85h-94v-85h94zM625 180v85h-95v-85h95zM722 180h96v85h-96v-85zM818 52v48h-96v-165h-97v165h-95v-165h-98v165h-94v-185h-103v389q-20 -224 -125 -374l-82 80q56 88 81.5 182t25.5 216v362q467 0 765 40l28 -85q-285 -40 -688 -40
v-47h645v-243h-645q0 -17 -2 -47h682v-303q0 -82 -11.5 -103.5t-53.5 -21.5q-28 0 -100 5l-5 90q31 -5 45 -5q17 0 20 5.5t3 36.5z" />
    <glyph glyph-name="glyph08491" unicode="&#xe0101;" 
d="M240 475h538v83h-538v-83zM432 180v85h-94v-85h94zM625 180v85h-95v-85h95zM722 180h96v85h-96v-85zM818 52v48h-96v-165h-97v165h-95v-165h-98v165h-94v-185h-103v389q-20 -224 -125 -374l-82 80q56 88 81.5 182t25.5 216v362q467 0 765 40l28 -85q-285 -40 -688 -40
v-47h645v-243h-645q0 -17 -2 -47h682v-303q0 -82 -11.5 -103.5t-53.5 -21.5q-28 0 -100 5l-5 90q31 -5 45 -5q17 0 20 5.5t3 36.5z" />
    <glyph glyph-name="glyph08494" unicode="&#xe0100;" 
d="M155 10q47 0 47 212q0 47 -1 69q-67 -70 -144 -113l-37 86q95 57 170 144q-12 78 -29 137q-48 -38 -101 -69l-40 86q55 32 109 76q-25 61 -58 119l91 46q28 -49 47 -93q52 54 94 110l73 -51q-21 -30 -39 -51h261v112h107v-112h260v-90h-635v81q-41 -48 -86 -92
q56 -172 56 -395q0 -119 -15 -186.5t-40.5 -91.5t-69.5 -24t-111 18l-3 89q62 -17 94 -17zM580 572q-69 -141 -210 -250l-62 74q111 97 187 224zM780 620q117 -110 200 -220l-73 -63q-93 117 -199 219zM458 158l-83 62q85 84 120 180h105q31 -102 70 -166q51 68 88 171
l97 -27q-49 -137 -122 -226q82 -84 247 -150l-38 -87q-175 67 -277 167q-117 -101 -325 -167l-42 85q203 69 302 157q-30 42 -65 111q-32 -62 -77 -110z" />
    <glyph glyph-name="glyph08496" unicode="&#xe0102;" 
d="M508 33q-85 38 -156 62l31 40h-77q-23 -64 -50 -114q146 6 252 12zM571 37q23 1 61 4t46 3v91h-216q65 -24 138 -60zM695 510h-137v-32h137v32zM558 592v-32h137v32h-137zM718 650q17 19 31 40h-222l78 -20q-2 -3 -6 -9.5t-6 -10.5h125zM42 590l50 68q3 -2 18 -11t23 -14
q31 27 60 57h-151v85h403v60h110v-60h403v-85h-186l76 -20q-6 -10 -14 -20h108v-58h-144v-32h130v-50h-130v-32h130v-50h-130v-33h160v-65h-506v179q-14 -14 -22 -21l-80 57q98 62 154 145h-275l59 -22q-46 -48 -86 -80q5 -3 15 -10t15 -10q60 48 103 90l77 -33
q-73 -71 -167 -138l89 5q5 6 18 23l68 -43q-61 -108 -232 -172h770v-70h-625q-4 -20 -7 -30h454v-168q0 -11 5 -12.5t40 -1.5h21.5t14.5 4.5t10 8.5t6 20t5.5 30.5t5.5 46.5l92 -10q-4 -42 -6 -62.5t-7.5 -45.5t-8.5 -34.5t-14 -22t-18 -15t-26.5 -6.5t-35 -4h-46.5
q-84 0 -111 7.5t-29 30.5q-271 -23 -633 -38l-10 84q19 1 57.5 3t56.5 2q57 104 81 213h-188v70h53l-40 40q114 30 193 80l-190 -18l-18 73l68 4q43 29 52 35q-65 45 -118 76zM558 395h137v33h-137v-33z" />
    <glyph glyph-name="glyph08497" unicode="&#xe0103;" 
d="M260 460q112 81 178 205h-178v-205zM526 360q-61 42 -120 99q-38 -41 -96 -81l-50 62v-48q0 -74 -4 -123q162 42 270 91zM617 408q80 49 139 122h-283q62 -71 144 -122zM622 755h338v-90h-413q-13 -29 -27 -53h358v-82q-69 -95 -173 -169q102 -47 265 -93l-28 -90
q-196 57 -326 127q-40 -21 -96 -46q148 -46 280 -111l-40 -73l90 27l18 -90q-226 -77 -486 -110l-30 90q199 24 392 78q-140 67 -279 108l28 70q-98 -40 -211 -70l-27 76q-10 -115 -41 -191.5t-90 -143.5l-80 74q43 51 66 97t34 112q-43 -24 -104 -50l-30 93q81 31 145 70
q2 41 2 142l-35 -22q-46 88 -110 185l84 52q32 -49 62 -100v183h357v80h107v-80z" />
    <glyph glyph-name="glyph08497" unicode="&#xe0101;" 
d="M260 460q112 81 178 205h-178v-205zM526 360q-61 42 -120 99q-38 -41 -96 -81l-50 62v-48q0 -74 -4 -123q162 42 270 91zM617 408q80 49 139 122h-283q62 -71 144 -122zM622 755h338v-90h-413q-13 -29 -27 -53h358v-82q-69 -95 -173 -169q102 -47 265 -93l-28 -90
q-196 57 -326 127q-40 -21 -96 -46q148 -46 280 -111l-40 -73l90 27l18 -90q-226 -77 -486 -110l-30 90q199 24 392 78q-140 67 -279 108l28 70q-98 -40 -211 -70l-27 76q-10 -115 -41 -191.5t-90 -143.5l-80 74q43 51 66 97t34 112q-43 -24 -104 -50l-30 93q81 31 145 70
q2 41 2 142l-35 -22q-46 88 -110 185l84 52q32 -49 62 -100v183h357v80h107v-80z" />
    <glyph glyph-name="glyph08499" unicode="&#xe0101;" 
d="M822 679v16h-197v-27q0 -12 8.5 -14t56.5 -2q57 0 67 4t13 26zM178 622q120 23 167 73h-167v-73zM261 570h184v40h82q-5 8 -5 28v57h-65q-39 -82 -196 -125zM548 -22v367h-96v-345q0 -8 1.5 -11t11 -6t28.5 -4t55 -1zM352 95h-160v-30h160v30zM352 148v30h-160v-30h160z
M352 315v30h-140v-30h140zM648 258v-23h264v-175l70 -5q-3 -34 -4.5 -49.5t-9.5 -36t-13.5 -28t-25.5 -18t-36.5 -12.5t-56 -5.5t-74 -3.5h-100.5q-122 0 -177.5 1.5t-89.5 10t-38.5 18.5t-4.5 36v40h-160v-50h-104v277h264v23h-244v147h784v-147h-244zM648 315h140v30h-140
v-30zM648 8v-30h17q135 0 167.5 4t37.5 26h-222zM648 95v-30h160v30h-160zM648 148h160v30h-160v-30zM555 490h390v-62h-890v62h390v22h-335v58h46l-21 45h-63v155h373v75h110v-75h373v-155h-74q-13 -15 -46.5 -19t-127.5 -4q-96 0 -125 5v-27h335v-58h-335v-22z" />
    <glyph glyph-name="glyph08500" unicode="&#xe0101;" 
d="M52 160l73 72q41 -69 78 -109q33 52 46 117h-181v80q85 62 150 135h-160v83h274v-83q-52 -75 -119 -135h137v-79v-1q-17 -97 -69 -176q60 -32 152.5 -44t251.5 -12h263l-6 -90h-265q-171 0 -276 16.5t-178 58.5q-50 -52 -118 -93l-73 72q63 38 111 81q-47 46 -91 107z
M515 378v-196q0 -16 1.5 -22.5t5.5 -13t19 -8t32.5 -2.5t56.5 -1v298q-93 -10 -240 -15l-5 87q289 11 517 55l20 -85q-95 -18 -184 -29v-98h180v-83h-180v-130h204v-83h-254h-87t-65 2.5t-50 5t-32.5 10.5t-23 15.5t-11.5 23t-6.5 31.5t-0.5 42v196h103zM34 619
q51 46 92.5 103t63.5 112l100 -21q-9 -25 -21 -51h246v-65q62 68 93 138l99 -22q-8 -23 -23 -51h266v-87h-172q13 -33 37 -97l-100 -28q-21 58 -49 125h-39q-52 -67 -114 -114l-71 68q27 21 52 46h-129q13 -33 37 -97l-100 -28q-29 78 -48 125h-36q-51 -72 -112 -124z" />
    <glyph glyph-name="glyph08501" unicode="&#xe0103;" 
d="M698 648q-4 7 -11.5 21t-10.5 21h-55q-48 -45 -107 -82h101v40h83zM768 158h-228v-36h228v36zM768 220v35h-228v-35h228zM232 158v-36h206v36h-206zM232 220h206v35h-206v-35zM278 608v34h26l-24 48h-72q-39 -45 -88 -82h158zM385 608h100l-63 50q28 16 52 32h-83
q20 -40 29 -60l-35 -7v-15zM385 510h230v30h-230v-30zM385 448v-30h230v30h-230zM872 5q0 -32 -3 -47t-18 -25.5t-39 -12.5t-74 -2q-53 0 -136 4l-4 80q79 -4 122 -4q36 0 42 4.5t6 32.5v5h-536v-125h-104v125h-98v82h98v36h-98v77h98v87h310v26h-383v70h223v30h-178v62h178
v30h-198v68h21l-66 57q104 75 155 173l102 -16q-13 -31 -24 -50h254v-45q63 52 100 111l103 -16q-10 -21 -31 -50h256v-82h-163q5 -10 28 -58l-93 -18v-6h198v-68h-198v-30h178v-62h-178v-30h223v-70h-405v-26h332v-87h98v-77h-98v-36h98v-82h-98v-35z" />
    <glyph glyph-name="glyph08501" unicode="&#xe0101;" 
d="M698 648q-4 7 -11.5 21t-10.5 21h-55q-48 -45 -107 -82h101v40h83zM768 158h-228v-36h228v36zM768 220v35h-228v-35h228zM232 158v-36h206v36h-206zM232 220h206v35h-206v-35zM278 608v34h26l-24 48h-72q-39 -45 -88 -82h158zM385 608h100l-63 50q28 16 52 32h-83
q20 -40 29 -60l-35 -7v-15zM385 510h230v30h-230v-30zM385 448v-30h230v30h-230zM872 5q0 -32 -3 -47t-18 -25.5t-39 -12.5t-74 -2q-53 0 -136 4l-4 80q79 -4 122 -4q36 0 42 4.5t6 32.5v5h-536v-125h-104v125h-98v82h98v36h-98v77h98v87h310v26h-383v70h223v30h-178v62h178
v30h-198v68h21l-66 57q104 75 155 173l102 -16q-13 -31 -24 -50h254v-45q63 52 100 111l103 -16q-10 -21 -31 -50h256v-82h-163q5 -10 28 -58l-93 -18v-6h198v-68h-198v-30h178v-62h-178v-30h223v-70h-405v-26h332v-87h98v-77h-98v-36h98v-82h-98v-35z" />
    <glyph glyph-name="glyph08502" unicode="&#xe0101;" 
d="M850 618v60h-68v-60h68zM850 532h-68v-64h68v64zM152 460v-82v-76h68v158h-68zM152 548h68v150h-68v-150zM237 -82q-20 0 -93 5l-7 92q39 -5 61 -5q16 0 19 6.5t3 45.5v153h-71q-9 -197 -54 -307l-75 74q25 70 35 164.5t10 281.5v360h243v-736q0 -46 -3 -74q50 68 78 142
q-37 72 -68 182l73 38q15 -56 30 -99q12 60 17 144h-100v87q55 98 97 206h-97v92h187v-92q-36 -117 -83 -206h91v-87q-11 -145 -51 -270q34 -45 81.5 -67t119.5 -28v72h-155v86h155v64h-132v83h132v63h-122v80h122v64h-162v86h162v60h-128v82h128v55h102v-55h163v-142h35
v-86h-35v-144h-163v-63h168v-83h-168v-64h178v-86h-178v-74h183l-3 -90h-210q-111 0 -183 22.5t-123 77.5q-34 -72 -68 -116l-76 49q-6 -27 -19.5 -35t-45.5 -8z" />
    <glyph glyph-name="glyph08503" unicode="&#xe0103;" 
d="M152 562v-173l108 14v45l-50 -23q-25 68 -58 137zM152 599l50 23q31 -60 58 -128v156h-108v-51zM665 100q91 44 148 110h-295q59 -69 147 -110zM275 -85q-25 0 -85 5l-2 92q37 -4 57 -4q11 0 13 6.5t2 45.5v255l-25 -3v-280h-67v271l-16 -2q-7 -252 -72 -393l-70 74
q49 124 55 308l-35 -5v87l37 5q0 7 0.5 21t0.5 22v315h81q7 56 11 96l100 -7q-5 -55 -10 -89h92v-321l28 4v-88l-28 -4v-266q0 -71 -5 -99t-17 -37t-45 -9zM582 445v-83h-192v387q89 22 162 63l40 -90q-46 -26 -102 -40v-80h90v-82h-90v-75h92zM752 362v83h93v75h-90v82h90
v76h-93v90h193v-406h-193zM615 300v515h105v-515h212v-90q-62 -90 -159 -152q78 -25 205 -50l-33 -88q-156 30 -279 82q-122 -53 -281 -82l-35 88q132 25 206 49q-88 53 -141 118l68 35h-111v90h243z" />
    <glyph glyph-name="glyph08503" unicode="&#xe0101;" 
d="M152 562v-173l108 14v45l-50 -23q-25 68 -58 137zM152 599l50 23q31 -60 58 -128v156h-108v-51zM665 100q91 44 148 110h-295q59 -69 147 -110zM275 -85q-25 0 -85 5l-2 92q37 -4 57 -4q11 0 13 6.5t2 45.5v255l-25 -3v-280h-67v271l-16 -2q-7 -252 -72 -393l-70 74
q49 124 55 308l-35 -5v87l37 5q0 7 0.5 21t0.5 22v315h81q7 56 11 96l100 -7q-5 -55 -10 -89h92v-321l28 4v-88l-28 -4v-266q0 -71 -5 -99t-17 -37t-45 -9zM582 445v-83h-192v387q89 22 162 63l40 -90q-46 -26 -102 -40v-80h90v-82h-90v-75h92zM752 362v83h93v75h-90v82h90
v76h-93v90h193v-406h-193zM615 300v515h105v-515h212v-90q-62 -90 -159 -152q78 -25 205 -50l-33 -88q-156 30 -279 82q-122 -53 -281 -82l-35 88q132 25 206 49q-88 53 -141 118l68 35h-111v90h243z" />
    <glyph glyph-name="glyph08504" unicode="&#xe0103;" 
d="M55 732h195v93h105v-93h290v93h105v-93h195v-90h-195v-100h-105v100h-290v-100h-105v100h-195v90zM528 -65q-98 0 -220 5q-50 3 -76 5t-51 9.5t-34 15.5t-17 29t-9 42.5t-1 63.5v363h325v127h110v-127h350v-93h-675v-265q0 -53 12 -64t76 -14q93 -4 210 -4q152 0 352 12
l3 -92q-190 -13 -355 -13z" />
    <glyph glyph-name="glyph08504" unicode="&#xe0101;" 
d="M55 732h195v93h105v-93h290v93h105v-93h195v-90h-195v-100h-105v100h-290v-100h-105v100h-195v90zM528 -65q-98 0 -220 5q-50 3 -76 5t-51 9.5t-34 15.5t-17 29t-9 42.5t-1 63.5v363h325v127h110v-127h350v-93h-675v-265q0 -53 12 -64t76 -14q93 -4 210 -4q152 0 352 12
l3 -92q-190 -13 -355 -13z" />
    <glyph glyph-name="glyph08505" unicode="&#xe0101;" 
d="M559 113q86 39 147 89h-304q75 -52 157 -89zM823 585h-335v-62l251 19l7 -74l-258 -20v-23q0 -19 17 -22t121 -3q133 0 160.5 8t30.5 53l-60 47q41 42 66 77zM538 835v-45h337v-78h-337v-40h402v-87q-32 -58 -78 -110l60 -8q-2 -24 -3 -37t-5 -29.5t-6.5 -23.5t-13.5 -17
t-18 -13.5t-27.5 -8.5t-35.5 -6t-48.5 -2.5t-60.5 -1.5h-76h-9v-46h305v-80h-76q-72 -75 -174 -132q107 -34 266 -60l-28 -88q-202 35 -355 94q-141 -56 -339 -94l-30 86q144 26 254 60q-77 41 -154 100l46 34h-115v80h290v46q-48 1 -73 4t-37.5 13t-14.5 20t-2 35v39
l-154 -11l-6 74l160 13v70h-177v-173q0 -175 -23.5 -284.5t-81.5 -207.5l-80 90q46 89 63 187.5t17 287.5v187h330v163h108z" />
    <glyph glyph-name="glyph08506" unicode="&#xe0104;" 
d="M685 1v707h-33v-676q0 -18 5 -24t28 -7zM495 248v-90h65v90h-65zM495 322h65v88h-65v-88zM502 615h58v93h-58v-93zM830 615v93h-52v-93h52zM842 80h-64v-80q70 0 88 13t19 67h-43zM842 248h-64v-90h64v90zM842 322v88h-64v-88h64zM302 598h-37v-223h37v223zM128 598v-223
h37v223h-37zM285 239l82 24q21 -71 33 -122v349h160v50h-58h-92v250h515v-250h-95h-52v-50h162v-331l42 -4q-2 -43 -2.5 -65t-4.5 -51t-5.5 -41t-10 -29.5t-13.5 -23t-21 -14t-26.5 -10t-36.5 -4t-45 -2.5h-57q-51 0 -80 1t-54 5.5t-36 10.5t-19 20.5t-9.5 30.5t-1.5 45v52
h-65v-72h-67q3 -14 7 -40l-80 -23q-10 50 -13 66q-163 -55 -308 -76l-10 97q60 8 136 26v230h-32v-60h-86v460h86h32v122h110v-122h32h80v-400h-112v-201q40 12 52 16q-23 91 -37 136z" />
    <glyph glyph-name="glyph08506" unicode="&#xe0102;" 
d="M685 1v707h-33v-676q0 -18 5 -24t28 -7zM495 248v-90h65v90h-65zM495 322h65v88h-65v-88zM502 615h58v93h-58v-93zM830 615v93h-52v-93h52zM842 80h-64v-80q70 0 88 13t19 67h-43zM842 248h-64v-90h64v90zM842 322v88h-64v-88h64zM302 598h-37v-223h37v223zM128 598v-223
h37v223h-37zM285 239l82 24q21 -71 33 -122v349h160v50h-58h-92v250h515v-250h-95h-52v-50h162v-331l42 -4q-2 -43 -2.5 -65t-4.5 -51t-5.5 -41t-10 -29.5t-13.5 -23t-21 -14t-26.5 -10t-36.5 -4t-45 -2.5h-57q-51 0 -80 1t-54 5.5t-36 10.5t-19 20.5t-9.5 30.5t-1.5 45v52
h-65v-72h-67q3 -14 7 -40l-80 -23q-10 50 -13 66q-163 -55 -308 -76l-10 97q60 8 136 26v230h-32v-60h-86v460h86h32v122h110v-122h32h80v-400h-112v-201q40 12 52 16q-23 91 -37 136z" />
    <glyph glyph-name="glyph08507" unicode="&#xe0104;" 
d="M168 30h117v90h-117v-90zM72 692v88h300v-88h-300zM45 548v90h347v-90h-347zM80 405v85h290v-85h-290zM80 262v86h290v-86h-290zM385 308q64 159 90 334l105 -14q-11 -88 -31 -166h229v223h-348v90h525v-90h-73v-223h83v-92h-83v-298q0 -54 -2.5 -78.5t-17 -41t-36 -19.5
t-68.5 -3q-52 0 -126 5l-4 90q82 -5 107 -5q32 0 37.5 7.5t5.5 50.5v246q-147 -201 -356 -329l-47 79v-129h-207v-40h-96v300h303v-119q184 114 322 284h-175q-20 -58 -34 -92z" />
    <glyph glyph-name="glyph08507" unicode="&#xe0102;" 
d="M168 30h117v90h-117v-90zM72 692v88h300v-88h-300zM45 548v90h347v-90h-347zM80 405v85h290v-85h-290zM80 262v86h290v-86h-290zM385 308q64 159 90 334l105 -14q-11 -88 -31 -166h229v223h-348v90h525v-90h-73v-223h83v-92h-83v-298q0 -54 -2.5 -78.5t-17 -41t-36 -19.5
t-68.5 -3q-52 0 -126 5l-4 90q82 -5 107 -5q32 0 37.5 7.5t5.5 50.5v246q-147 -201 -356 -329l-47 79v-129h-207v-40h-96v300h303v-119q184 114 322 284h-175q-20 -58 -34 -92z" />
    <glyph glyph-name="glyph08508" unicode="&#xe0100;" 
d="M345 268v104h-57v-104h57zM145 268h57v104h-57v-104zM182 645v-60h126v60h-126zM676 381q65 -72 148 -122q6 141 6 416h-140q-2 -179 -14 -294zM492 -82l-77 64q66 70 104 159.5t55 229.5q-31 43 -59 94q-19 -81 -43 -143l-42 26v-163h-85h-47v-65h147v-85h-147v-125
h-106v125h-164v85h164v65h-47h-87v270h134v53h-104v137h-58v85h58v75h94v-75h126v75h92v-75h50v-85h-50v-137h-102v-53h124q26 67 40 145h80q18 -45 44 -90q4 67 4 165h-120v90h465q0 -399 -9 -556q33 -12 64 -21l-15 -93q-33 9 -57 18q-6 -60 -15.5 -95.5t-24.5 -53
t-30.5 -22t-42.5 -4.5q-51 0 -163 10l-2 94q91 -10 128 -10q20 0 31.5 24t18.5 101q-86 46 -157 114q-22 -119 -62.5 -201.5t-106.5 -151.5z" />
    <glyph glyph-name="glyph08510" unicode="&#xe0103;" 
d="M238 410h-78v-72h78v72zM238 555h-78v-67h78v67zM238 632v68h-78v-68h78zM568 475h264v83h-264v-83zM638 180v85h-40v-85h40zM745 180v85h-40v-85h40zM812 180h40v85h-40v-85zM812 4q26 -2 30 -2q8 0 9 2.5t1 17.5v78h-40v-96zM18 -31q30 129 40 259l64 -9
q-10 -145 -37 -268zM148 -25q-4 108 -15 239l59 9q14 -127 18 -240zM232 24q-9 92 -25 194l58 10q18 -104 27 -195zM465 770q286 0 473 40l22 -85q-162 -38 -392 -40v-47h367v-243h-369q0 -8 -1 -23.5t-2 -23.5h385v-340q0 -63 -13 -76.5t-75 -13.5q-13 0 -65 2l-1 15h-49
v165h-40v-165h-67v165h-40v-185h-80v231q-17 -106 -58 -214l-44 55q-9 -43 -25 -56t-46 -13q-46 0 -103 7l-4 90q44 -7 82 -7q10 0 14 3t7.5 19t4.5 50l-36 -6q-8 53 -30 150l55 10q2 -9 6 -27.5t6 -28.5v74h-287v533h370v-85h-98v-68h80v-77h-80v-67h80v-78h-80v-72h98v-80
q0 -98 -3 -163q38 124 38 343v332z" />
    <glyph glyph-name="glyph08510" unicode="&#xe0101;" 
d="M238 410h-78v-72h78v72zM238 555h-78v-67h78v67zM238 632v68h-78v-68h78zM568 475h264v83h-264v-83zM638 180v85h-40v-85h40zM745 180v85h-40v-85h40zM812 180h40v85h-40v-85zM812 4q26 -2 30 -2q8 0 9 2.5t1 17.5v78h-40v-96zM18 -31q30 129 40 259l64 -9
q-10 -145 -37 -268zM148 -25q-4 108 -15 239l59 9q14 -127 18 -240zM232 24q-9 92 -25 194l58 10q18 -104 27 -195zM465 770q286 0 473 40l22 -85q-162 -38 -392 -40v-47h367v-243h-369q0 -8 -1 -23.5t-2 -23.5h385v-340q0 -63 -13 -76.5t-75 -13.5q-13 0 -65 2l-1 15h-49
v165h-40v-165h-67v165h-40v-185h-80v231q-17 -106 -58 -214l-44 55q-9 -43 -25 -56t-46 -13q-46 0 -103 7l-4 90q44 -7 82 -7q10 0 14 3t7.5 19t4.5 50l-36 -6q-8 53 -30 150l55 10q2 -9 6 -27.5t6 -28.5v74h-287v533h370v-85h-98v-68h80v-77h-80v-67h80v-78h-80v-72h98v-80
q0 -98 -3 -163q38 124 38 343v332z" />
    <glyph glyph-name="glyph08511" unicode="&#xe0103;" 
d="M572 548v-56h246v56h-246zM572 618h246v54h-246v-54zM385 -60q34 109 53 212l77 -17q-20 -117 -53 -225zM545 -65q-6 79 -23 197l76 16q15 -88 24 -198zM820 8q15 0 22 9.5t11 44.5t5 110h-60q20 -72 34 -132l-70 -20q-18 82 -34 135l61 17h-321v583h133q9 34 19 90
l108 -7q-3 -20 -18 -83h212v-335h-350v-42h400v-83h-400v-43h386q0 -140 -11 -213t-30.5 -97t-56.5 -24q-70 0 -160 7l-3 52l-39 -9q-9 65 -30 172l72 18q15 -69 28 -146q45 -4 92 -4zM22 308q46 156 66 330l100 -10q-8 -78 -25 -166h115v223h-230v90h380v-90h-48v-223h52
v-92h-52v-298q0 -97 -16.5 -119.5t-86.5 -22.5q-27 0 -120 5l-4 90q73 -5 95 -5q25 0 29.5 8t4.5 50v199q-89 -160 -210 -272l-50 90q123 117 211 275h-89q-1 -3 -22 -82z" />
    <glyph glyph-name="glyph08511" unicode="&#xe0101;" 
d="M572 548v-56h246v56h-246zM572 618h246v54h-246v-54zM385 -60q34 109 53 212l77 -17q-20 -117 -53 -225zM545 -65q-6 79 -23 197l76 16q15 -88 24 -198zM820 8q15 0 22 9.5t11 44.5t5 110h-60q20 -72 34 -132l-70 -20q-18 82 -34 135l61 17h-321v583h133q9 34 19 90
l108 -7q-3 -20 -18 -83h212v-335h-350v-42h400v-83h-400v-43h386q0 -140 -11 -213t-30.5 -97t-56.5 -24q-70 0 -160 7l-3 52l-39 -9q-9 65 -30 172l72 18q15 -69 28 -146q45 -4 92 -4zM22 308q46 156 66 330l100 -10q-8 -78 -25 -166h115v223h-230v90h380v-90h-48v-223h52
v-92h-52v-298q0 -97 -16.5 -119.5t-86.5 -22.5q-27 0 -120 5l-4 90q73 -5 95 -5q25 0 29.5 8t4.5 50v199q-89 -160 -210 -272l-50 90q123 117 211 275h-89q-1 -3 -22 -82z" />
    <glyph glyph-name=".notdef" horiz-adv-x="364" 
 />
    <glyph glyph-name="space" unicode=" " horiz-adv-x="297" 
 />
    <glyph glyph-name="exclam" unicode="!" horiz-adv-x="394" 
d="M132 730h130l-15 -520h-100zM137 0v130h120v-130h-120z" />
    <glyph glyph-name="quotedbl" unicode="&#x22;" horiz-adv-x="434" 
d="M67 770h110l-15 -260h-80zM257 770h110l-15 -260h-80z" />
    <glyph glyph-name="numbersign" unicode="#" horiz-adv-x="684" 
d="M47 180v86h117l39 218h-106v86h122l28 160h100l-28 -160h120l28 160h100l-28 -160h98v-86h-114l-39 -218h103v-86h-118l-32 -180h-100l32 180h-120l-32 -180h-100l32 180h-102zM423 484h-120l-39 -218h120z" />
    <glyph glyph-name="dollar" unicode="$" horiz-adv-x="614" 
d="M344 -85h-84v101q-110 6 -208 54l25 88q89 -48 183 -54v236q-113 34 -160.5 81.5t-47.5 118.5q0 76 51.5 121.5t156.5 52.5v101h84v-101q100 -6 188 -39l-25 -88q-78 32 -163 38v-213q120 -34 164 -80t44 -127t-52.5 -129.5t-155.5 -58.5v-102zM344 107q103 16 103 98
q0 43 -21.5 67t-81.5 44v-209zM260 625q-56 -6 -80.5 -27t-24.5 -58t23.5 -61t81.5 -43v189z" />
    <glyph glyph-name="percent" unicode="%" horiz-adv-x="864" 
d="M582 730h110l-410 -730h-110zM652 380q83 0 129 -50.5t46 -144.5t-46 -144.5t-129 -50.5t-129 50.5t-46 144.5t46 144.5t129 50.5zM212 740q83 0 129 -50.5t46 -144.5t-46 -144.5t-129 -50.5t-129 50.5t-46 144.5t46 144.5t129 50.5zM652 70q70 0 70 115t-70 115
t-70 -115t70 -115zM212 430q70 0 70 115t-70 115t-70 -115t70 -115z" />
    <glyph glyph-name="ampersand" unicode="&#x26;" horiz-adv-x="729" 
d="M279 324q-68 -45 -95 -80t-27 -69q0 -99 135 -99q53 0 92.5 10.5t89.5 38.5zM363 377l149 -154v189h102v-295l113 -117h-130l-54 55q-129 -65 -256 -65q-240 0 -240 180q0 54 37.5 105t131.5 114l-10 10q-99 100 -99 181q0 73 55 116.5t155 43.5q101 0 153 -41t52 -114
q0 -54 -35.5 -102t-123.5 -106zM300 443q74 49 97 76.5t23 60.5q0 76 -103 76q-49 0 -75.5 -20.5t-26.5 -55.5q0 -30 14.5 -54.5t70.5 -82.5z" />
    <glyph glyph-name="quotesingle" unicode="'" horiz-adv-x="264" 
d="M72 770h120l-15 -260h-90z" />
    <glyph glyph-name="parenleft" unicode="(" horiz-adv-x="409" 
d="M172 308q0 -274 195 -463h-100q-96 88 -148 208t-52 255t52 254.5t148 207.5h100q-195 -189 -195 -462z" />
    <glyph glyph-name="parenright" unicode=")" horiz-adv-x="409" 
d="M42 770h100q96 -88 148 -207.5t52 -254.5t-52 -255t-148 -208h-100q195 189 195 463q0 273 -195 462z" />
    <glyph glyph-name="asterisk" unicode="*" horiz-adv-x="531" 
d="M484 560l-154 -47l97 -128l-69 -51l-92 132l-92 -132l-70 51l97 128l-154 47l27 82l152 -53l-3 161h86l-3 -161l152 53z" />
    <glyph glyph-name="plus" unicode="+" horiz-adv-x="734" 
d="M412 580v-248h245v-84h-245v-248h-90v248h-245v84h245v248h90z" />
    <glyph glyph-name="comma" unicode="," horiz-adv-x="334" 
d="M127 150h140l-110 -260h-100z" />
    <glyph glyph-name="hyphen" unicode="-" horiz-adv-x="464" 
d="M77 248v84h310v-84h-310z" />
    <glyph glyph-name="period" unicode="." horiz-adv-x="314" 
d="M92 0v150h130v-150h-130z" />
    <glyph glyph-name="slash" unicode="/" horiz-adv-x="529" 
d="M482 730l-345 -770h-105l345 770h105z" />
    <glyph glyph-name="zero" unicode="0" horiz-adv-x="630" 
d="M315 740q135 0 202.5 -89t67.5 -286t-67.5 -286t-202.5 -89t-202.5 89t-67.5 286t67.5 286t202.5 89zM315 78q81 0 120.5 65.5t39.5 221.5t-39.5 221.5t-120.5 65.5t-120.5 -65.5t-39.5 -221.5t39.5 -221.5t120.5 -65.5z" />
    <glyph glyph-name="one" unicode="1" horiz-adv-x="630" 
d="M305 0v600h-2l-188 -170l-40 90l230 210h110v-730h-110z" />
    <glyph glyph-name="two" unicode="2" horiz-adv-x="630" 
d="M310 740q112 0 173.5 -55.5t61.5 -154.5q0 -100 -63.5 -193t-246.5 -245v-2h310v-90h-460v90q204 162 275 253.5t71 176.5q0 128 -136 128q-91 0 -190 -66l-30 88q103 70 235 70z" />
    <glyph glyph-name="three" unicode="3" horiz-adv-x="630" 
d="M85 730h450v-90l-215 -209v-2h20q97 0 151 -51.5t54 -147.5q0 -114 -69.5 -177t-195.5 -63q-109 0 -195 50l30 90q91 -50 165 -50t114.5 39t40.5 111q0 61 -43.5 90.5t-141.5 29.5h-70v84l215 204v2h-310v90z" />
    <glyph glyph-name="four" unicode="4" horiz-adv-x="630" 
d="M350 248v323h-2l-223 -321v-2h225zM458 248h117v-88h-117v-160h-108v160h-335v88l335 482h108v-482z" />
    <glyph glyph-name="five" unicode="5" horiz-adv-x="630" 
d="M525 640h-305l-10 -200h2q54 30 123 30q104 0 162 -59t58 -166q0 -126 -71 -190.5t-209 -64.5q-103 0 -190 45l25 90q89 -45 165 -45q170 0 170 165q0 139 -130 139q-74 0 -120 -44h-95l20 390h405v-90z" />
    <glyph glyph-name="six" unicode="6" horiz-adv-x="630" 
d="M320 -10q-127 0 -196 74t-69 221q0 201 101.5 322t281.5 133l20 -90q-111 -10 -177.5 -60t-101.5 -149l2 -2q69 56 164 56q113 0 176.5 -64.5t63.5 -180.5q0 -119 -72 -189.5t-193 -70.5zM320 80q75 0 115 43t40 127q0 77 -41 119.5t-114 42.5q-70 0 -111.5 -43.5
t-41.5 -118.5q0 -83 40 -126.5t113 -43.5z" />
    <glyph glyph-name="seven" unicode="7" horiz-adv-x="630" 
d="M80 730h480v-90q-91 -148 -157.5 -299.5t-122.5 -340.5h-115q112 350 290 638v2h-375v90z" />
    <glyph glyph-name="eight" unicode="8" horiz-adv-x="630" 
d="M315 430q69 16 106 48t37 72q0 48 -37 76t-106 28q-68 0 -103.5 -27.5t-35.5 -76.5q0 -42 35.5 -73.5t103.5 -46.5zM310 345q-79 -19 -120 -56.5t-41 -83.5q0 -60 44.5 -94.5t121.5 -34.5t119.5 34.5t42.5 94.5q0 105 -167 140zM315 -10q-127 0 -198.5 57t-71.5 153
q0 58 40 107.5t110 76.5v2q-60 26 -92.5 71.5t-32.5 102.5q0 81 65 130.5t180 49.5t180 -49.5t65 -130.5q0 -112 -125 -164v-2q150 -51 150 -194q0 -96 -71.5 -153t-198.5 -57z" />
    <glyph glyph-name="nine" unicode="9" horiz-adv-x="630" 
d="M310 740q127 0 196 -74t69 -216q0 -208 -104.5 -328t-288.5 -132l-20 90q117 11 185.5 60t103.5 149l-2 2q-69 -56 -164 -56q-112 0 -176 65t-64 185q0 116 72.5 185.5t192.5 69.5zM310 650q-75 0 -115 -42.5t-40 -122.5q0 -81 41.5 -124t113.5 -43q69 0 111 44.5
t42 122.5q0 79 -40 122t-113 43z" />
    <glyph glyph-name="colon" unicode=":" horiz-adv-x="394" 
d="M132 390v150h130v-150h-130zM132 0v150h130v-150h-130z" />
    <glyph glyph-name="semicolon" unicode=";" horiz-adv-x="414" 
d="M147 150h140l-110 -260h-100zM147 390v150h130v-150h-130z" />
    <glyph glyph-name="less" unicode="&#x3c;" horiz-adv-x="674" 
d="M582 475l-455 -184v-2l455 -184v-95l-520 225v110l520 225v-95z" />
    <glyph glyph-name="equal" unicode="=" horiz-adv-x="754" 
d="M87 365v85h580v-85h-580zM87 130v85h580v-85h-580z" />
    <glyph glyph-name="greater" unicode="&#x3e;" horiz-adv-x="674" 
d="M92 475v95l520 -225v-110l-520 -225v95l455 184v2z" />
    <glyph glyph-name="question" unicode="?" horiz-adv-x="614" 
d="M207 215q0 43 11 77.5t34.5 61.5t40.5 41.5t49 36.5q33 23 49 36.5t31 38t15 53.5q0 88 -145 88q-97 0 -210 -35l-20 92q121 35 245 35q118 0 181.5 -46.5t63.5 -123.5q0 -35 -9 -62.5t-29.5 -49.5t-35.5 -34.5t-44 -32.5q-30 -21 -44.5 -33t-35 -34t-29 -48.5
t-8.5 -60.5h-110zM202 0v130h120v-130h-120z" />
    <glyph glyph-name="at" unicode="@" horiz-adv-x="824" 
d="M487 114h-1q-48 -64 -123 -64q-71 0 -116 55t-45 155q0 102 43 156t118 54q74 0 123 -62h2v54h107v-324h89q23 57 23 122q0 132 -81.5 213.5t-213.5 81.5q-130 0 -212.5 -82.5t-82.5 -212.5t82.5 -212.5t212.5 -82.5q104 0 177 54l48 -64q-94 -70 -225 -70
q-159 0 -267 105t-108 270q0 164 106.5 269.5t268.5 105.5q164 0 269.5 -104.5t105.5 -270.5q0 -111 -54 -202h-243zM310 260q0 -59 24 -91t62 -32t62 31t24 88v8q0 56 -24 87t-62 31q-86 0 -86 -122z" />
    <glyph glyph-name="A" unicode="A" horiz-adv-x="704" 
d="M32 0l260 730h120l260 -730h-118l-63 194h-282l-63 -194h-114zM236 280h228l-113 350h-2z" />
    <glyph glyph-name="B" unicode="B" horiz-adv-x="609" 
d="M192 432h40q110 0 158.5 28t48.5 85q0 55 -39 81t-128 26q-45 0 -80 -7v-213zM192 346v-261q39 -7 90 -7q94 0 138 35t44 107q0 65 -53 95.5t-179 30.5h-40zM572 210q0 -220 -290 -220q-107 0 -200 15v720q88 15 190 15q270 0 270 -180q0 -60 -41 -105.5t-109 -58.5v-2
q84 -13 132 -62t48 -122z" />
    <glyph glyph-name="C" unicode="C" horiz-adv-x="699" 
d="M417 650q-121 0 -194.5 -78t-73.5 -207q0 -130 75 -207.5t193 -77.5q97 0 185 55l35 -82q-100 -63 -230 -63q-167 0 -268.5 101.5t-101.5 273.5t100 273.5t270 101.5q130 0 230 -63l-35 -82q-88 55 -185 55z" />
    <glyph glyph-name="D" unicode="D" horiz-adv-x="689" 
d="M652 375q0 -190 -98 -287.5t-282 -97.5q-102 0 -190 15v720q88 15 190 15q183 0 281.5 -94.5t98.5 -270.5zM547 375q0 136 -70 205.5t-205 69.5q-45 0 -80 -7v-556q35 -7 80 -7q140 0 207.5 72.5t67.5 222.5z" />
    </font>
</defs>
</svg>
