<?xml version="1.0" standalone="no"?>
<!DOCTYPE svg PUBLIC "-//W3C//DTD SVG 1.1//EN" "http://www.w3.org/Graphics/SVG/1.1/DTD/svg11.dtd" >
<svg xmlns="http://www.w3.org/2000/svg" xmlns:xlink="http://www.w3.org/1999/xlink" version="1.1">
<metadata>
Created by FontForge 20170924 at Tue Jun 22 17:01:46 2010
 By Glenn,,,
Copyright (c) 2010 by Stereotypes.de. All rights reserved.
</metadata>
<defs>
<font id="StMarie-Thin" horiz-adv-x="540" >
  <font-face 
    font-family="St Marie Thin"
    font-weight="250"
    font-stretch="normal"
    units-per-em="1000"
    panose-1="2 0 5 3 3 0 0 2 0 4"
    ascent="750"
    descent="-250"
    x-height="480"
    cap-height="700"
    bbox="-119 -237 1442 991"
    underline-thickness="55"
    underline-position="-150"
    stemh="18"
    stemv="20"
    unicode-range="U+000D-FB04"
  />
<missing-glyph horiz-adv-x="209" 
 />
    <glyph glyph-name="f_i" unicode="fi" horiz-adv-x="652" 
d="M142 15v447l-102 6l1 12h101v82c0 120 62 188 160 188c37 0 75 -5 111 -17l7 -18l-9 -95l-14 1l6 98c-28 9 -67 16 -101 16c-44 0 -75 -17 -104 -39c-21 -28 -36 -61 -36 -134v-82h151l-1 -12l-150 -6v-447l100 -5l-1 -10h-195l1 10zM601 0h-173l1 10l73 5v450l-82 5
l1 10h98l3 -21v-444l80 -5zM475 644c0 12 13 28 27 28s29 -16 29 -29s-15 -28 -28 -28c-14 0 -28 14 -28 29z" />
    <glyph glyph-name="f_l" unicode="fl" horiz-adv-x="654" 
d="M142 15v447l-102 6l1 12h101v82c0 120 75 190 198 190c80 0 140 -16 172 -42l-10 -11c-30 18 -81 38 -162 38c-56 0 -92 -14 -142 -51c-21 -28 -36 -62 -36 -124v-82h151l-1 -12l-150 -6v-447l100 -5l-1 -10h-195l1 10zM603 0h-187l1 10l80 5v765h17l3 -25v-740l87 -5z
" />
    <glyph glyph-name="f_f" unicode="ff" horiz-adv-x="760" 
d="M484 15v447h-322v-447l100 -5l-1 -10h-195l1 10l75 5v447l-102 6l1 12h101v82c0 120 54 184 152 184c37 0 71 -5 107 -17l7 -18l-9 -95l-14 1l6 98c-28 9 -63 16 -97 16c-39 0 -72 -14 -101 -36c-23 -41 -31 -71 -31 -133v-82h322v103c0 120 62 188 160 188
c37 0 75 -5 111 -17l7 -18l-9 -95l-14 1l6 98c-28 9 -67 16 -101 16c-44 0 -75 -17 -104 -39c-21 -28 -36 -61 -36 -134v-103h151l-1 -12l-150 -6v-447l100 -5l-1 -10h-195l1 10z" />
    <glyph glyph-name="f_f_j" unicode="ffj" horiz-adv-x="981" 
d="M760 -149l-8 12c73 45 92 87 92 221v378h-340v-447l100 -5l-1 -10h-195l1 10l75 5v447h-322v-447l100 -5l-1 -10h-195l1 10l75 5v447l-102 6l1 12h101v82c0 120 54 184 152 184c37 0 71 -5 107 -17l7 -18l-9 -95c-5 0 -9 1 -14 1l6 98c-28 9 -63 16 -97 16
c-39 0 -72 -14 -101 -36c-23 -41 -31 -71 -31 -133v-82h322v56c0 124 84 208 210 208c121 0 177 -69 177 -101c0 -13 -15 -28 -28 -28c-14 0 -28 14 -28 29c0 11 11 26 24 28c-30 40 -85 57 -146 57c-58 0 -99 -20 -142 -50c-29 -37 -47 -76 -47 -145v-54h357l3 -21v-371
c0 -120 -11 -184 -104 -237z" />
    <glyph glyph-name="f_b" unicode="fb" horiz-adv-x="902" 
d="M462 26v689c-35 15 -76 22 -122 22c-65 0 -103 -22 -142 -51c-22 -30 -36 -61 -36 -132v-74h151l-1 -12l-150 -6v-447l100 -5l-1 -10h-195l1 10l75 5v447l-102 6l1 12h101v79c0 120 71 193 198 193c53 0 89 -5 122 -19v47h17l3 -25v-337c45 42 114 70 172 70
c99 0 188 -66 188 -243c0 -148 -75 -253 -225 -253c-64 0 -119 12 -155 34zM546 445c-23 -15 -41 -30 -64 -54v-352c40 -19 82 -29 135 -29c59 0 103 15 148 48c36 48 55 96 55 186c0 163 -73 226 -167 226c-38 0 -69 -9 -107 -25z" />
    <glyph glyph-name="f_h" unicode="fh" horiz-adv-x="949" 
d="M575 0h-187l1 10l80 5v696c-37 18 -79 26 -129 26c-65 0 -103 -22 -142 -51c-22 -30 -36 -61 -36 -132v-74h151l-1 -12l-150 -6v-447l100 -5l-1 -10h-195l1 10l75 5v447l-102 6l1 12h101v79c0 120 71 193 198 193c57 0 95 -6 129 -22v50h17l3 -25v-362
c39 62 91 95 168 95c131 0 176 -77 176 -186v-287l86 -5l-1 -10h-105v300c0 101 -40 169 -156 169c-38 0 -69 -9 -97 -21c-27 -24 -54 -56 -71 -90v-343l87 -5z" />
    <glyph glyph-name="f_k" unicode="fk" horiz-adv-x="861" 
d="M577 0h-187l1 10l80 5v695c-37 18 -81 27 -131 27c-65 0 -103 -22 -142 -51c-22 -30 -36 -61 -36 -132v-74h151l-1 -12l-150 -6v-447l100 -5l-1 -10h-195l1 10l75 5v447l-102 6l1 12h101v79c0 120 71 193 198 193c58 0 96 -7 131 -23v51h17l3 -25v-491h38l178 201l-63 5
l1 10h143l-1 -10l-56 -5l-183 -205v-8c53 -73 147 -172 219 -237l74 -5l-1 -10h-83c-76 67 -169 168 -228 246h-38v-231l87 -5z" />
    <glyph glyph-name="f_j" unicode="fj" horiz-adv-x="639" 
d="M497 672c-34 46 -99 57 -141 57c-71 0 -111 -24 -147 -50c-29 -37 -47 -76 -47 -145v-54h151l-1 -12l-150 -6v-447l100 -5l-1 -10h-195l1 10l75 5v447l-102 6l1 12h101v56c0 124 84 208 210 208c121 0 177 -69 177 -101c0 -13 -15 -28 -28 -28c-14 0 -28 14 -28 29
c0 11 11 26 24 28zM418 -149l-8 12c58 36 92 78 92 174v428l-82 5l1 10h98l3 -21v-417c0 -90 -28 -148 -104 -191z" />
    <glyph glyph-name="f_f_i" unicode="ffi" horiz-adv-x="1062" 
d="M839 672c-34 46 -99 57 -141 57c-71 0 -111 -24 -147 -50c-29 -37 -47 -76 -47 -145v-54h357l3 -21v-444l80 -5l-1 -10h-173l1 10l73 5v447h-340v-447l100 -5l-1 -10h-195l1 10l75 5v447h-322v-447l100 -5l-1 -10h-195l1 10l75 5v447l-102 6l1 12h101v82
c0 120 54 184 152 184c37 0 71 -5 107 -17l7 -18l-9 -95l-14 1l6 98c-28 9 -63 16 -97 16c-39 0 -72 -14 -101 -36c-23 -41 -31 -71 -31 -133v-82h322v56c0 124 84 208 210 208c121 0 177 -69 177 -101c0 -13 -15 -28 -28 -28c-14 0 -28 14 -28 29c0 11 11 26 24 28z" />
    <glyph glyph-name="f_f_l" unicode="ffl" horiz-adv-x="996" 
d="M945 0h-187l1 10l80 5v687c-38 20 -86 35 -157 35c-65 0 -103 -22 -142 -51c-22 -30 -36 -61 -36 -132v-74h151l-1 -12l-150 -6v-447l100 -5l-1 -10h-195l1 10l75 5v447h-322v-447l100 -5l-1 -10h-195l1 10l75 5v447l-102 6l1 12h101v82c0 120 54 184 152 184
c37 0 71 -5 107 -17l7 -18l-9 -95l-14 1l6 98c-28 9 -63 16 -97 16c-39 0 -72 -14 -101 -36c-23 -41 -31 -71 -31 -133v-82h322v79c0 120 71 193 198 193c73 0 120 -12 157 -31v59h17l3 -25v-740l87 -5z" />
    <glyph glyph-name="f_iacute" unicode="f&#xed;" horiz-adv-x="682" 
d="M142 15v447l-102 6l1 12h101v82c0 120 62 188 160 188c37 0 75 -5 111 -17l7 -18l-9 -95l-14 1l6 98c-28 9 -67 16 -101 16c-44 0 -75 -17 -104 -39c-21 -28 -36 -61 -36 -134v-82h151l-1 -12l-150 -6v-447l100 -5l-1 -10h-195l1 10zM631 0h-173l1 10l73 5v450l-82 5
l1 10h98l3 -21v-444l80 -5zM516 559l-18 5l121 157l24 -5z" />
    <glyph glyph-name=".notdef" horiz-adv-x="209" 
 />
    <glyph glyph-name=".null" horiz-adv-x="0" 
 />
    <glyph glyph-name=".null" horiz-adv-x="0" 
 />
    <glyph glyph-name="CR" unicode="&#xd;" horiz-adv-x="0" 
 />
    <glyph glyph-name="space" unicode=" " horiz-adv-x="209" 
 />
    <glyph glyph-name="exclam" unicode="!" horiz-adv-x="242" 
d="M112 700h24l-1 -348l-2 -197h-18l-2 197zM152 28c0 -15 -13 -28 -29 -28c-15 0 -28 13 -28 28c0 16 13 29 28 29c16 0 29 -13 29 -29z" />
    <glyph glyph-name="numbersign" unicode="#" horiz-adv-x="734" 
d="M435 -70l40 236h-251l-40 -236h-20l40 236h-177l2 18h178l44 261h-192l2 18h193l41 237h20l-41 -237h251l41 237h20l-41 -237h162l-2 -18h-163l-44 -261h177l-2 -18h-178l-40 -236h-20zM271 445l-44 -261h251l44 261h-251z" />
    <glyph glyph-name="dollar" unicode="$" horiz-adv-x="594" 
d="M290 -94v86c-91 0 -135 15 -189 38l-3 13l17 182c5 0 10 -1 15 -1l-12 -181c44 -19 100 -33 172 -33v341c-133 48 -184 98 -184 191s79 154 184 164v100h20v-98c67 0 109 -7 166 -23l4 -11l-13 -122c-5 0 -10 1 -15 1l6 116c-32 11 -97 21 -135 21c-5 0 -9 -1 -13 -1
v-325c118 -44 175 -99 191 -166c3 -14 5 -29 5 -44c0 -79 -65 -154 -196 -161v-87h-20zM486 154c0 80 -43 139 -176 189v-332c44 3 91 16 135 45c27 32 41 61 41 98zM128 542c0 -88 41 -121 162 -170v316c-70 -7 -162 -43 -162 -146z" />
    <glyph glyph-name="ampersand" unicode="&#x26;" horiz-adv-x="833" 
d="M479 370v10h278l-1 -10l-108 -9c-13 -99 -53 -197 -115 -267c40 -30 81 -56 121 -79l114 -5l-1 -10h-125c-40 23 -82 50 -123 80c-54 -54 -122 -88 -202 -88c-164 0 -227 91 -227 207c0 106 60 162 139 213c-15 38 -24 77 -24 116c0 114 39 180 158 180
c59 0 115 -11 163 -33l-18 -114l-14 1l9 102c-36 17 -86 26 -141 26c-44 0 -75 -10 -107 -35c-25 -41 -30 -73 -30 -127c0 -144 138 -305 293 -423c58 66 97 158 111 256zM504 91c-112 85 -217 192 -267 303c-72 -46 -127 -99 -127 -197c0 -103 53 -187 205 -187
c75 0 139 31 189 81z" />
    <glyph glyph-name="quotesingle" unicode="'" horiz-adv-x="105" 
d="M44 480l-4 220h25l-4 -220h-17z" />
    <glyph glyph-name="parenleft" unicode="(" horiz-adv-x="367" 
d="M262 760l16 -10c-77 -95 -138 -273 -138 -432c0 -151 43 -296 140 -432l-17 -11c-102 137 -147 273 -147 443c0 177 62 345 146 442z" />
    <glyph glyph-name="parenright" unicode=")" horiz-adv-x="367" 
d="M100 -125l-16 10c77 95 138 273 138 433c0 150 -43 295 -140 431l17 11c102 -137 147 -270 147 -442c0 -175 -62 -346 -146 -443z" />
    <glyph glyph-name="asterisk" unicode="*" horiz-adv-x="328" 
d="M164 697c10 -3 14 -20 13 -49l-4 -60l60 17l41 26c2 -4 3 -8 4 -12c0 -10 -15 -19 -42 -27l-61 -15l36 -51l38 -32c-4 -2 -8 -4 -10 -7c-10 -4 -24 9 -40 34l-32 50l-40 -51l-18 -45c-3 2 -6 5 -9 8c-7 8 0 25 19 46l39 48l-59 23l-49 3c1 3 2 7 4 11c6 9 24 8 51 -3
l56 -23l3 63l-12 47c4 0 9 0 12 -1z" />
    <glyph glyph-name="plus" unicode="+" horiz-adv-x="465" 
d="M60 248v18h163v163h18v-163h164v-18h-164v-164h-18v164h-163z" />
    <glyph glyph-name="comma" unicode="," horiz-adv-x="242" 
d="M149 24c0 -22 -21 -59 -49 -88l-13 13c14 16 27 34 33 51c-15 0 -28 13 -28 28c0 16 13 29 28 29c16 0 29 -13 29 -33z" />
    <glyph glyph-name="hyphen" unicode="-" horiz-adv-x="445" 
d="M70 254v20h305v-20h-305z" />
    <glyph glyph-name="period" unicode="." horiz-adv-x="242" 
d="M149 28c0 -15 -13 -28 -29 -28c-15 0 -28 13 -28 28c0 16 13 29 28 29c16 0 29 -13 29 -29z" />
    <glyph glyph-name="slash" unicode="/" horiz-adv-x="269" 
d="M35 -70l179 820h20l-179 -820h-20z" />
    <glyph glyph-name="zero" unicode="0" horiz-adv-x="676" 
d="M332 568c164 0 264 -116 264 -298c0 -164 -95 -278 -255 -278s-261 114 -261 281c0 180 102 295 252 295zM334 550c-56 0 -103 -19 -154 -52c-54 -62 -80 -125 -80 -225c0 -156 93 -263 242 -263c60 0 111 19 162 52c43 55 72 116 72 207c0 175 -91 281 -242 281z" />
    <glyph glyph-name="one" unicode="1" horiz-adv-x="395" 
d="M324 0h-253l1 10l119 5v530l-120 5l1 10h252l-1 -10l-112 -5v-530l114 -5z" />
    <glyph glyph-name="two" unicode="2" horiz-adv-x="516" 
d="M242 568c129 0 181 -73 181 -167c0 -151 -214 -319 -357 -380l1 -4l388 3l-1 -20h-413l-1 26c156 70 364 227 364 375c0 82 -44 149 -162 149c-59 0 -118 -11 -157 -27l-4 -142l-13 1l-7 140l4 11c43 23 105 35 177 35z" />
    <glyph glyph-name="three" unicode="3" horiz-adv-x="566" 
d="M440 397c0 72 -53 153 -176 153c-51 0 -107 -7 -157 -19l-4 -125l-15 1l-3 116l5 20c49 17 119 25 175 25c130 0 193 -84 193 -171c0 -73 -54 -147 -129 -162v-4c70 -16 147 -66 147 -166s-70 -188 -232 -188c-68 0 -117 17 -164 46l9 15c51 -30 105 -43 155 -43
c100 0 138 26 175 57c27 35 39 67 39 112c0 101 -90 164 -226 164l-1 13c67 0 110 8 157 32c31 34 52 71 52 124z" />
    <glyph glyph-name="four" unicode="4" horiz-adv-x="571" 
d="M545 0h-112v-91l-5 -39h-15v130h-353l-2 19l178 541h16v-11l-174 -530h335v256l5 44h15v-300h113z" />
    <glyph glyph-name="five" unicode="5" horiz-adv-x="570" 
d="M105 235l-2 18l8 307h373l-1 -18h-353l-8 -284c35 10 91 20 147 20c133 0 237 -72 237 -208c0 -125 -92 -207 -246 -207c-75 0 -130 15 -184 44l8 16c55 -27 110 -42 176 -42c86 0 144 24 193 70c24 41 33 69 33 119c0 122 -97 190 -217 190c-60 0 -123 -14 -164 -25z
" />
    <glyph glyph-name="six" unicode="6" horiz-adv-x="563" 
d="M319 672c-123 0 -234 -132 -234 -339c60 36 134 60 207 60c144 0 215 -73 215 -204c0 -123 -79 -197 -215 -197c-141 0 -227 111 -227 342c0 212 115 356 253 356c65 0 114 -10 165 -31l-10 -18c-48 23 -95 31 -154 31zM292 375c-64 0 -142 -22 -207 -62
c4 -208 80 -303 208 -303c59 0 108 17 151 46c29 41 42 75 42 133c0 122 -68 186 -194 186z" />
    <glyph glyph-name="seven" unicode="7" 
d="M43 560h448l2 -17c-140 -208 -228 -445 -264 -673h-20l-2 9c41 217 127 458 261 663h-403l-3 -145l-14 1z" />
    <glyph glyph-name="eight" unicode="8" horiz-adv-x="559" 
d="M470 520c0 -83 -64 -149 -138 -182c104 -34 155 -86 155 -177c0 -89 -60 -169 -210 -169c-140 0 -212 80 -212 177c0 95 75 153 158 182c-81 34 -138 92 -138 179c0 95 77 160 191 160c120 0 194 -78 194 -170zM285 331c-13 3 -26 7 -38 11c-90 -31 -162 -81 -162 -173
c0 -89 65 -159 193 -159c61 0 112 18 155 47c25 36 34 71 34 103c0 97 -61 141 -182 171zM105 529c0 -94 76 -151 183 -178l20 -5c77 27 142 92 142 172c0 88 -61 154 -178 154c-51 0 -91 -16 -130 -41c-25 -32 -37 -60 -37 -102z" />
    <glyph glyph-name="nine" unicode="9" horiz-adv-x="565" 
d="M256 -112c152 0 214 123 214 321c-56 -31 -128 -44 -209 -44c-118 0 -204 67 -204 198c0 130 59 205 220 205c151 0 213 -134 213 -369c0 -202 -76 -329 -234 -329c-73 0 -129 17 -182 48l11 18c49 -32 109 -48 171 -48zM262 182c79 0 155 15 207 45
c-4 207 -58 325 -192 325c-56 0 -109 -14 -152 -40c-34 -42 -48 -84 -48 -150c0 -122 76 -180 185 -180z" />
    <glyph glyph-name="colon" unicode=":" horiz-adv-x="242" 
d="M149 28c0 -15 -13 -28 -29 -28c-15 0 -28 13 -28 28c0 16 13 29 28 29c16 0 29 -13 29 -29zM149 451c0 -15 -13 -28 -29 -28c-15 0 -28 13 -28 28c0 16 13 29 28 29c16 0 29 -13 29 -29z" />
    <glyph glyph-name="semicolon" unicode=";" horiz-adv-x="242" 
d="M149 24c0 -22 -21 -59 -49 -88l-13 13c14 16 27 34 33 51c-15 0 -28 13 -28 28c0 16 13 29 28 29c16 0 29 -13 29 -33zM149 451c0 -15 -13 -28 -29 -28c-15 0 -28 13 -28 28c0 16 13 29 28 29c16 0 29 -13 29 -29z" />
    <glyph glyph-name="less" unicode="&#x3c;" horiz-adv-x="438" 
d="M359 18l-11 -13l-288 225v20l288 225l11 -13l-283 -222z" />
    <glyph glyph-name="equal" unicode="=" horiz-adv-x="465" 
d="M60 185v20h345v-20h-345zM60 315v20h345v-20h-345z" />
    <glyph glyph-name="greater" unicode="&#x3e;" horiz-adv-x="438" 
d="M79 462l11 13l288 -225v-20l-288 -225l-11 13l283 222z" />
    <glyph glyph-name="question" unicode="?" horiz-adv-x="409" 
d="M137 700c143 0 224 -101 224 -260c0 -45 -64 -85 -236 -145c-7 -8 -10 -20 -10 -35c-1 -30 4 -62 18 -101l-18 -7c-14 40 -21 76 -21 111c0 20 11 43 31 50c67 25 164 63 209 101c5 10 7 21 7 34c0 121 -70 234 -204 234c-17 0 -56 -1 -74 -4l-2 -105h-14l-9 114
c20 6 49 13 99 13zM185 28c0 -15 -13 -28 -29 -28c-15 0 -28 13 -28 28c0 16 13 29 28 29c16 0 29 -13 29 -29z" />
    <glyph glyph-name="at" unicode="@" horiz-adv-x="857" 
d="M580 456v-376l114 -5c43 46 63 121 63 208c0 185 -127 299 -318 299c-106 0 -163 -29 -231 -71c-66 -66 -108 -140 -108 -245c0 -200 138 -320 351 -320h129l1 -7c-50 -8 -89 -11 -139 -11c-216 0 -362 129 -362 336c0 177 139 338 359 338c201 0 338 -127 338 -319
c0 -93 -23 -168 -74 -223h-136l-5 41c-33 -28 -77 -46 -135 -46c-102 0 -168 71 -168 195c0 120 57 210 178 210c49 0 92 -19 125 -45l6 41h12zM427 73c60 0 104 22 133 47v273c-36 35 -76 49 -125 49c-41 0 -78 -10 -117 -41c-30 -48 -39 -95 -39 -151
c0 -116 58 -177 148 -177z" />
    <glyph glyph-name="A" unicode="A" horiz-adv-x="728" 
d="M89 15l257 685h33l259 -684l80 -6l-1 -10h-200l1 10l99 5l-77 203h-355l-76 -203l100 -5l-1 -10h-198l1 10zM359 684l-168 -448h342l-169 448h-5z" />
    <glyph glyph-name="B" unicode="B" horiz-adv-x="615" 
d="M329 0h-279l1 10l104 5v670l-98 5l1 10h276c123 0 196 -77 196 -181c0 -75 -30 -142 -114 -165c80 -22 129 -87 129 -171c0 -95 -51 -183 -216 -183zM349 344h-174v-324c35 -5 90 -5 144 -5c89 0 141 21 180 58c18 30 27 54 26 110c-1 97 -73 161 -176 161zM330 683h-155
v-321h174c49 0 77 9 104 22c34 31 57 66 57 134c0 92 -64 165 -180 165z" />
    <glyph glyph-name="C" unicode="C" horiz-adv-x="687" 
d="M620 68l7 -15c-79 -47 -146 -61 -241 -61c-197 0 -316 133 -316 353c0 240 138 363 320 363c98 0 156 -11 217 -36l3 -15l-7 -138l-14 1l1 133c-48 24 -115 37 -199 37c-62 0 -119 -17 -176 -47c-83 -71 -125 -158 -125 -298c0 -207 108 -335 296 -335
c93 0 155 13 234 58z" />
    <glyph glyph-name="D" unicode="D" horiz-adv-x="743" 
d="M50 0l1 10l99 5v670l-93 5l1 10h237c241 0 378 -124 378 -349c0 -216 -116 -351 -349 -351h-274zM286 684c-62 0 -93 -1 -116 -4v-662c32 -4 90 -3 154 -3c122 0 187 31 248 84c51 67 81 128 81 252c0 221 -127 333 -367 333z" />
    <glyph glyph-name="E" unicode="E" horiz-adv-x="587" 
d="M71 0l1 10l94 5v670l-96 5l1 10h446l-3 -162l-12 1l-6 145h-310v-322h216l9 93l12 -1v-194l-12 1l-9 85h-216v-330h327l5 149l12 -1l2 -164h-461z" />
    <glyph glyph-name="F" unicode="F" horiz-adv-x="563" 
d="M312 0h-241l1 10l92 5v670l-94 5l1 10h442l-3 -161l-12 1l-6 142h-308v-323h203l7 80l12 -1v-188l-12 1l-7 90h-203v-326l129 -5z" />
    <glyph glyph-name="G" unicode="G" horiz-adv-x="747" 
d="M602 0l-5 67c-54 -45 -125 -75 -215 -75c-188 0 -312 143 -312 356c0 237 145 360 345 360c74 0 153 -20 204 -43l7 -14l-16 -140l-14 1l9 139c-40 21 -121 39 -190 39s-118 -11 -181 -38c-103 -70 -144 -173 -144 -305c0 -204 114 -337 292 -337c89 0 155 26 214 80v177
l-160 6v11h260v-13l-80 -4v-267h-14z" />
    <glyph glyph-name="H" unicode="H" horiz-adv-x="753" 
d="M702 0h-192l1 10l84 5v334h-438v-334l88 -5l-1 -10h-194l1 10l86 5v670l-79 5l1 10h182l-1 -10l-83 -5v-318h438v318l-82 5l1 10h185l-1 -10l-83 -5v-670l88 -5z" />
    <glyph glyph-name="I" unicode="I" horiz-adv-x="376" 
d="M295 0h-214l1 10l93 5v670l-95 5l1 10h210l-1 -10l-93 -5v-670l99 -5z" />
    <glyph glyph-name="J" unicode="J" horiz-adv-x="376" 
d="M176 74v611l-99 5l1 10h218l-1 -10l-97 -5v-606c0 -93 -23 -143 -105 -205l-10 11c72 58 93 105 93 189z" />
    <glyph glyph-name="K" unicode="K" horiz-adv-x="666" 
d="M283 0h-203l1 10l84 5v670l-95 5l1 10h207l-1 -10l-90 -5v-325h33l304 325l-74 5l1 10h165l-1 -10l-66 -5l-309 -329v-7c74 -89 244 -265 344 -334l62 -5l-1 -10h-73c-101 75 -268 246 -352 343h-33v-328l97 -5z" />
    <glyph glyph-name="L" unicode="L" horiz-adv-x="536" 
d="M511 0h-441l1 10l94 5v670l-83 5l1 10h213l-1 -10l-110 -5v-669h305l7 169l13 -1z" />
    <glyph glyph-name="M" unicode="M" horiz-adv-x="998" 
d="M833 15l-55 657l-260 -652h-26l-270 653l-55 -658l84 -5l-1 -10h-190l1 10l84 5l58 670l-80 5l1 10h202l-1 -10l-85 -5l265 -640h2l256 640l-71 5l1 10h174l-1 -10l-71 -5l61 -670l82 -5v-10h-190l1 10z" />
    <glyph glyph-name="N" unicode="N" horiz-adv-x="865" 
d="M71 700h121l502 -669v654l-96 5l1 10h211l-1 -10l-95 -5v-685h-19l-504 670v-655l107 -5l-1 -10h-225l1 10l98 5v670l-101 5z" />
    <glyph glyph-name="O" unicode="O" horiz-adv-x="794" 
d="M392 708c216 0 332 -148 332 -358c0 -228 -126 -358 -331 -358c-182 0 -323 135 -323 349c0 224 135 367 322 367zM390 688c-84 0 -143 -26 -203 -73c-54 -65 -97 -145 -97 -275c0 -195 133 -328 303 -328c102 0 168 29 232 84c47 67 79 141 79 253
c0 200 -108 339 -314 339z" />
    <glyph glyph-name="P" unicode="P" horiz-adv-x="602" 
d="M295 0h-225l1 11l91 4v670l-92 5l1 10h266c129 0 205 -76 205 -199c0 -141 -69 -200 -222 -200h-138v-286l114 -5zM333 682h-151v-363h150c57 0 105 12 143 34c32 39 46 80 46 148c0 114 -66 181 -188 181z" />
    <glyph glyph-name="Q" unicode="Q" horiz-adv-x="794" 
d="M392 708c216 0 332 -148 332 -358c0 -165 -66 -278 -180 -329c34 -43 87 -82 151 -115s151 -54 226 -63l-3 -18c-73 7 -163 29 -228 62c-70 36 -126 77 -166 126c-38 -13 -84 -21 -131 -21c-182 0 -323 135 -323 349c0 224 135 367 322 367zM390 688
c-84 0 -143 -26 -203 -73c-54 -65 -97 -145 -97 -275c0 -195 133 -328 303 -328c102 0 168 29 232 84c47 67 79 141 79 253c0 200 -108 339 -314 339z" />
    <glyph glyph-name="R" unicode="R" horiz-adv-x="682" 
d="M280 0h-202l1 10l90 5v670l-96 5l1 10h262c143 0 217 -84 217 -204c0 -104 -75 -172 -178 -188c39 -92 127 -232 183 -293l68 -5l-1 -10h-79c-60 67 -150 213 -193 306c-8 -1 -17 -1 -25 -1h-139v-290l92 -5zM327 683h-138v-360h92c115 0 160 13 212 58
c26 33 43 66 43 114c0 109 -65 188 -209 188z" />
    <glyph glyph-name="S" unicode="S" horiz-adv-x="608" 
d="M325 708c59 0 100 -8 153 -23l4 -11l-13 -122l-15 1l6 116c-32 11 -97 21 -135 21c-50 0 -102 -12 -153 -44c-26 -29 -42 -60 -42 -104c0 -92 45 -124 181 -177c143 -56 197 -119 197 -211c0 -83 -72 -162 -219 -162c-89 0 -133 15 -186 38l-3 13l17 182l15 -1l-12 -181
c43 -19 99 -33 169 -33c50 0 106 12 158 46c27 32 41 61 41 98c0 81 -44 140 -180 191c-145 54 -200 100 -200 197c0 103 96 166 217 166z" />
    <glyph glyph-name="T" unicode="T" horiz-adv-x="612" 
d="M30 700h552l-3 -165l-12 1l-5 147h-246v-668l105 -5l-1 -10h-228l1 10l103 5v668h-247l-4 -148l-12 -1z" />
    <glyph glyph-name="U" unicode="U" horiz-adv-x="771" 
d="M629 685v-421c0 -177 -47 -272 -233 -272c-180 0 -240 97 -240 272v421l-90 5l1 10h195l-1 -10l-85 -5v-413c0 -174 51 -262 220 -262c71 0 124 16 168 53c33 49 47 102 47 209v413l-85 5l1 10h189l-1 -10z" />
    <glyph glyph-name="V" unicode="V" horiz-adv-x="759" 
d="M663 685l-270 -685h-28l-275 685l-80 5l1 10h215l-1 -10l-113 -5l267 -667h2l262 667l-98 5l1 10h203l-1 -10z" />
    <glyph glyph-name="W" unicode="W" horiz-adv-x="1092" 
d="M993 685l-235 -685h-32l-189 536l-184 -536h-32l-231 685l-80 5l1 10h200l-1 -10l-98 -5l225 -669h1l189 549l-42 120l-89 5l1 10h233l-1 -10l-122 -5l235 -669h2l229 669l-106 5l1 10h214l-1 -10z" />
    <glyph glyph-name="X" unicode="X" horiz-adv-x="713" 
d="M601 15l-256 337l-238 -337l85 -5l-1 -10h-181l1 10l74 5l249 352l-241 318l-65 5l1 10h168l-1 -10l-78 -5l230 -303l218 303l-86 5l1 10h183l-1 -10l-73 -5l-231 -318l268 -352l76 -5l-1 -10h-190l1 10z" />
    <glyph glyph-name="Y" unicode="Y" horiz-adv-x="675" 
d="M437 0h-217l1 10l102 5v289l-233 381l-80 5l1 10h203l-1 -10l-99 -5l220 -360h2l228 360l-93 5l1 10h193l-1 -10l-79 -5l-242 -383v-287l95 -5z" />
    <glyph glyph-name="Z" unicode="Z" horiz-adv-x="722" 
d="M624 0h-532l-2 19l518 663h-474l-5 -171l-14 1l-7 188h521l3 -19l-517 -663h486l8 174l14 -1z" />
    <glyph glyph-name="bracketleft" unicode="[" horiz-adv-x="328" 
d="M125 724h123v-18h-103v-774h103v-18h-123v810z" />
    <glyph glyph-name="backslash" unicode="\" horiz-adv-x="269" 
d="M55 750l179 -820h-20l-179 820h20z" />
    <glyph glyph-name="bracketright" unicode="]" horiz-adv-x="328" 
d="M203 -86h-123v18h103v774h-103v18h123v-810z" />
    <glyph glyph-name="asciicircum" unicode="^" horiz-adv-x="483" 
d="M241 699l-113 -140l-18 5l121 157h20l121 -157l-18 -5z" />
    <glyph glyph-name="underscore" unicode="_" horiz-adv-x="545" 
d="M20 -121v18h505v-18h-505z" />
    <glyph glyph-name="grave" unicode="`" horiz-adv-x="550" 
d="M321 564l-18 -5l-127 157l24 5z" />
    <glyph glyph-name="a" unicode="a" horiz-adv-x="553" 
d="M120 453l-1 -118l-16 -1l-9 118l3 14c39 12 90 22 150 22c114 0 167 -64 167 -182v-291l89 -5l-1 -10h-103l-5 93c-42 -50 -109 -101 -199 -101c-96 0 -140 55 -140 119c0 46 10 82 19 102c99 22 232 31 320 35v56c0 102 -45 167 -147 167c-47 0 -99 -10 -127 -18zM196 9
c91 0 160 59 198 110v112c-81 -3 -236 -15 -305 -33c-7 -19 -14 -48 -14 -82c0 -62 39 -107 121 -107z" />
    <glyph glyph-name="b" unicode="b" horiz-adv-x="557" 
d="M117 26v736h-87v11l83 7h21l3 -25v-337c45 42 114 70 172 70c99 0 188 -66 188 -243c0 -148 -75 -253 -225 -253c-64 0 -119 12 -155 34zM201 445c-23 -15 -41 -30 -64 -54v-352c40 -19 82 -29 135 -29c59 0 103 15 148 48c36 48 55 96 55 186c0 163 -73 226 -167 226
c-38 0 -69 -9 -107 -25z" />
    <glyph glyph-name="c" unicode="c" horiz-adv-x="500" 
d="M434 437l-15 -111l-16 1l10 115c-18 11 -85 28 -131 28c-52 0 -89 -14 -136 -44c-43 -48 -66 -101 -66 -180c0 -145 65 -236 191 -236c65 0 112 14 161 47l8 -14c-48 -34 -97 -51 -170 -51c-134 0 -210 98 -210 253c0 152 95 243 221 243c56 0 115 -13 149 -33z" />
    <glyph glyph-name="d" unicode="d" horiz-adv-x="563" 
d="M532 0h-101l-5 47c-33 -30 -82 -55 -157 -55c-120 0 -209 99 -209 243c0 169 95 253 220 253c69 0 113 -16 146 -41v315h-87v11l83 7h21l3 -25v-740l87 -5zM377 31c17 11 30 21 49 40v353c-36 30 -92 46 -146 46c-39 0 -82 -12 -123 -33c-45 -47 -77 -103 -77 -201
c0 -129 75 -226 190 -226c41 0 71 7 107 21z" />
    <glyph glyph-name="e" unicode="e" horiz-adv-x="514" 
d="M453 237l-373 -5c4 -137 80 -222 201 -222c67 0 123 22 166 52l8 -13c-42 -36 -101 -57 -174 -57c-139 0 -221 100 -221 251c0 147 87 245 216 245c116 0 183 -79 183 -225zM152 432c-42 -46 -71 -105 -72 -182l360 7c0 139 -63 212 -164 213c-37 0 -80 -11 -124 -38z
" />
    <glyph glyph-name="f" unicode="f" horiz-adv-x="380" 
d="M142 15v447l-102 6l1 12h101v82c0 120 62 188 160 188c37 0 75 -5 111 -17l7 -18l-9 -95l-14 1l6 98c-28 9 -67 16 -101 16c-44 0 -75 -17 -104 -39c-21 -28 -36 -61 -36 -134v-82h151l-1 -12l-150 -6v-447l100 -5l-1 -10h-195l1 10z" />
    <glyph glyph-name="g" unicode="g" horiz-adv-x="536" 
d="M241 488c55 0 98 -17 127 -47l50 28l17 84h14l-12 -95l-61 -26c22 -27 33 -64 33 -108c0 -108 -64 -167 -166 -167c-45 0 -76 10 -98 23c-31 -45 -46 -81 -46 -110c0 -38 20 -60 70 -60h208c76 0 109 -26 109 -84c0 -98 -96 -163 -239 -163c-128 0 -189 56 -189 128
c0 52 20 84 48 114c-19 13 -27 36 -27 65c0 32 15 74 50 121c-39 30 -55 79 -55 130c0 93 64 167 167 167zM375 -8h-215c-14 0 -27 2 -37 5c-30 -31 -45 -66 -45 -107c0 -60 58 -109 170 -109c133 0 219 55 219 145c0 45 -23 66 -92 66zM241 470c-28 0 -60 -9 -96 -27
c-32 -32 -51 -69 -51 -123c0 -89 54 -146 148 -146c44 0 76 10 110 33c25 29 37 57 37 117c0 92 -56 146 -148 146z" />
    <glyph glyph-name="h" unicode="h" horiz-adv-x="617" 
d="M243 0h-187l1 10l80 5v747h-87v11l83 7h21l3 -25v-362c39 62 91 95 168 95c131 0 176 -77 176 -186v-287l86 -5l-1 -10h-105v300c0 101 -40 169 -156 169c-38 0 -69 -9 -97 -21c-27 -24 -54 -56 -71 -90v-343l87 -5z" />
    <glyph glyph-name="i" unicode="i" horiz-adv-x="292" 
d="M241 0h-173l1 10l73 5v450l-82 5l1 10h98l3 -21v-444l80 -5zM115 644c0 12 13 28 27 28s29 -16 29 -29s-15 -28 -28 -28c-14 0 -28 14 -28 29z" />
    <glyph glyph-name="j" unicode="j" horiz-adv-x="281" 
d="M58 -149l-8 12c58 36 92 78 92 174v428l-82 5l1 10h98l3 -21v-417c0 -90 -28 -148 -104 -191zM115 644c0 12 13 28 27 28s29 -16 29 -29s-15 -28 -28 -28c-14 0 -28 14 -28 29z" />
    <glyph glyph-name="k" unicode="k" horiz-adv-x="527" 
d="M243 0h-187l1 10l80 5v747h-87v11l83 7h21l3 -25v-491h38l178 201l-63 5l1 10h143l-1 -10l-56 -5l-183 -205v-8c53 -73 147 -172 219 -237l74 -5l-1 -10h-83c-76 67 -169 168 -228 246h-38v-231l87 -5z" />
    <glyph glyph-name="l" unicode="l" horiz-adv-x="304" 
d="M253 0h-187l1 10l80 5v747h-87v11l83 7h21l3 -25v-740l87 -5z" />
    <glyph glyph-name="m" unicode="m" horiz-adv-x="940" 
d="M226 0h-172l1 10l72 5v447h-87v12l84 6h18l5 -31v-55c39 61 88 94 165 94c98 0 146 -43 164 -111c41 72 91 111 175 111c131 0 173 -77 173 -186v-287l86 -5l-1 -10h-105v300c0 101 -37 169 -153 169c-39 0 -66 -9 -93 -21c-30 -26 -57 -59 -76 -99c2 -15 3 -31 3 -47
v-287l86 -5l-1 -10h-105v300c0 101 -37 169 -153 169c-38 0 -66 -9 -93 -21c-28 -24 -54 -55 -72 -90v-343l80 -5z" />
    <glyph glyph-name="n" unicode="n" horiz-adv-x="607" 
d="M226 0h-172l1 10l72 5v447h-87v12l84 6h18l5 -32v-55c39 62 91 95 168 95c131 0 176 -77 176 -186v-287l86 -5l-1 -10h-105v300c0 101 -40 169 -156 169c-38 0 -69 -9 -96 -21c-28 -23 -54 -55 -72 -90v-343l80 -5z" />
    <glyph glyph-name="o" unicode="o" horiz-adv-x="549" 
d="M282 488c112 0 207 -83 207 -251c0 -147 -69 -245 -206 -245c-150 0 -223 103 -223 248c0 162 94 248 222 248zM279 470c-54 0 -87 -13 -125 -37c-50 -51 -72 -110 -72 -194c0 -130 65 -229 201 -229c39 0 83 12 127 42c39 52 58 94 58 186c0 149 -85 232 -189 232z" />
    <glyph glyph-name="p" unicode="p" horiz-adv-x="578" 
d="M226 -230h-172l1 10l72 5v677h-87v12l84 6h18l5 -72c41 50 97 80 179 80c86 0 192 -63 192 -231c0 -164 -70 -265 -197 -265c-80 0 -137 22 -174 51v-258l80 -5zM201 441c-22 -19 -39 -38 -54 -61v-315c40 -35 96 -55 173 -55c46 0 79 10 116 40c40 50 62 101 62 203
c0 164 -94 217 -178 217c-50 0 -86 -11 -119 -29z" />
    <glyph glyph-name="q" unicode="q" horiz-adv-x="564" 
d="M523 -230h-176l1 10l77 5v260c-40 -30 -94 -53 -153 -53c-144 0 -212 98 -212 252c0 145 96 244 214 244c63 0 117 -24 152 -55l5 47h14v-695l79 -5zM383 34c14 11 27 20 42 35v340c-36 39 -92 61 -152 61c-53 0 -91 -23 -129 -50c-40 -45 -64 -98 -64 -176
c0 -142 61 -234 193 -234c44 0 76 10 110 24z" />
    <glyph glyph-name="r" unicode="r" horiz-adv-x="403" 
d="M226 0h-172l1 10l72 5v447h-87v12l84 6h18c5 -29 5 -56 5 -85c52 56 136 91 222 93l4 -15l-4 -105l-13 1l-3 101c-87 -8 -154 -36 -206 -100v-355l80 -5z" />
    <glyph glyph-name="s" unicode="s" horiz-adv-x="447" 
d="M236 488c61 0 91 -9 130 -21l2 -11l-13 -95l-16 2l7 91c-29 10 -70 16 -112 16c-32 0 -66 -8 -102 -27c-21 -23 -25 -42 -25 -69c0 -53 45 -85 129 -123c88 -40 141 -68 141 -141s-53 -118 -155 -118c-69 0 -121 15 -149 28l-3 22l17 106l14 -1l-10 -113
c28 -14 80 -24 131 -24c37 0 75 5 110 24c16 20 25 42 25 76c0 42 -21 78 -129 124c-91 39 -143 71 -143 137c0 88 88 117 151 117z" />
    <glyph glyph-name="t" unicode="t" horiz-adv-x="348" 
d="M317 16l1 -7c-30 -6 -54 -9 -84 -9c-61 0 -94 42 -94 108v357l-100 3l1 12h99l8 147l12 1v-148h151l-1 -12l-150 -3v-366c0 -55 34 -83 73 -83h84z" />
    <glyph glyph-name="u" unicode="u" horiz-adv-x="627" 
d="M586 0h-92l-6 76c-39 -49 -104 -84 -191 -84c-90 0 -159 63 -159 177v293h-88v10l81 8h23l4 -31v-275c0 -110 63 -164 139 -164c46 0 85 7 132 29c22 20 41 40 59 66v357h-88v10l80 8h25l3 -31v-434l79 -5z" />
    <glyph glyph-name="v" unicode="v" horiz-adv-x="566" 
d="M493 465l-191 -465h-32l-197 465l-68 5l1 10h175l-1 -10l-85 -5l190 -449h4l182 449l-78 5l1 10h167l-1 -10z" />
    <glyph glyph-name="w" unicode="w" horiz-adv-x="784" 
d="M708 465l-166 -465h-29l-119 342l-132 -342h-28l-165 465l-64 5l1 10h160l-1 -10l-74 -5l156 -446h3l135 349l-33 97l-75 5l1 10h199l-1 -10l-103 -5l154 -446h3l158 446l-81 5l1 10h171l-1 -10z" />
    <glyph glyph-name="x" unicode="x" horiz-adv-x="533" 
d="M431 15l-171 221l-158 -221l79 -5l-1 -10h-165l1 10l63 5l170 235l-166 215l-61 5l1 10h157l-1 -10l-68 -5l153 -200l144 200l-71 5l1 10h159l-1 -10l-64 -5l-157 -215l180 -235l63 -5l-1 -10h-161l1 10z" />
    <glyph glyph-name="y" unicode="y" horiz-adv-x="578" 
d="M492 465l-220 -527c-38 -90 -96 -145 -185 -145h-66l-4 7l3 14l5 3l63 -7c76 0 135 48 170 135l23 57l-15 -2l-10 11l-185 454l-66 5l1 10h161l-1 -10l-73 -5l180 -447h15l182 447l-79 5l1 10h181l-1 -10z" />
    <glyph glyph-name="z" unicode="z" horiz-adv-x="521" 
d="M95 320l-15 1l-7 144l3 15h367l3 -22l-358 -440h346l3 146l15 -1l4 -145l-2 -18h-387l-2 22l360 440h-329z" />
    <glyph glyph-name="braceleft" unicode="{" horiz-adv-x="329" 
d="M200 724h49v-18h-47c-39 0 -58 -20 -58 -83v-241c0 -42 -28 -65 -48 -65v-3c20 0 48 -34 48 -76v-243c0 -40 12 -63 50 -63h55v-18h-57c-46 0 -68 32 -68 78v242c0 44 -27 69 -54 69v25c26 0 54 15 54 57v240c0 70 31 99 76 99z" />
    <glyph glyph-name="bar" unicode="|" horiz-adv-x="210" 
d="M95 -70v820h20v-820h-20z" />
    <glyph glyph-name="braceright" unicode="}" horiz-adv-x="329" 
d="M129 -86h-49v18h47c39 0 58 20 58 83v241c0 42 28 65 48 65v3c-20 0 -48 34 -48 76v243c0 40 -12 63 -50 63h-55v18h57c46 0 68 -32 68 -78v-242c0 -44 27 -69 54 -69v-25c-26 0 -54 -15 -54 -57v-240c0 -70 -31 -99 -76 -99z" />
    <glyph glyph-name="asciitilde" unicode="~" horiz-adv-x="582" 
d="M119 606l-14 8c31 37 62 68 85 68c44 0 158 -70 202 -70l64 65l14 -7c-23 -31 -61 -73 -85 -73c-59 0 -161 69 -209 69z" />
    <glyph glyph-name="uni00A0" unicode="&#xa0;" horiz-adv-x="209" 
 />
    <glyph glyph-name="exclamdown" unicode="&#xa1;" horiz-adv-x="242" 
d="M136 -199h-24l1 348l2 197h18l2 -197zM96 473c0 15 13 28 29 28c15 0 28 -13 28 -28c0 -16 -13 -29 -28 -29c-16 0 -29 13 -29 29z" />
    <glyph glyph-name="cent" unicode="&#xa2;" horiz-adv-x="484" 
d="M444 437l-15 -111c-5 0 -11 1 -16 1l10 115c-18 11 -85 28 -135 28v-460c58 0 107 15 154 47l8 -14c-47 -33 -94 -50 -162 -51v-75h-20v75c-127 6 -198 102 -198 253c0 142 83 231 198 242v90h20v-89c57 0 118 -13 152 -33zM90 246c0 -140 60 -230 178 -236v459
c-41 -4 -72 -18 -112 -43c-43 -48 -66 -101 -66 -180z" />
    <glyph glyph-name="sterling" unicode="&#xa3;" horiz-adv-x="594" 
d="M546 0h-488l1 10l99 5v306h-73v18h73v90c0 187 68 279 218 279c67 0 107 -16 149 -38l2 -14l-14 -105l-11 1l8 106c-37 17 -74 32 -134 32c-56 0 -101 -15 -144 -47c-52 -80 -54 -115 -54 -304h252v-18h-252v-305h346l6 145l14 -1z" />
    <glyph glyph-name="currency" unicode="&#xa4;" horiz-adv-x="588" 
d="M61 0l-11 9l96 96c-28 33 -44 78 -44 132c0 57 16 104 45 139l-92 92l13 12l91 -91c33 33 79 51 132 51c60 0 107 -19 140 -51l91 91l10 -10l-91 -91c29 -35 44 -82 44 -137c0 -56 -15 -102 -41 -135l94 -94l-12 -13l-94 93c-33 -33 -81 -51 -140 -51
c-55 0 -102 19 -136 53zM290 423c-47 0 -79 -13 -113 -36c-30 -36 -55 -81 -55 -151c0 -104 74 -177 170 -177c57 0 94 15 129 44c27 36 44 78 44 138c0 107 -60 182 -175 182z" />
    <glyph glyph-name="yen" unicode="&#xa5;" horiz-adv-x="675" 
d="M545 224h-420v18h202v61l-2 4h-201v18h420v-18h-202l-2 -4v-61h205v-18zM437 0h-217l1 10l102 5v289l-233 381l-80 5l1 10h203l-1 -10l-99 -5l220 -360h2l228 360l-93 5l1 10h193l-1 -10l-79 -5l-242 -383v-287l95 -5z" />
    <glyph glyph-name="brokenbar" unicode="&#xa6;" horiz-adv-x="210" 
d="M95 -70v375h20v-375h-20zM95 378v372h20v-372h-20z" />
    <glyph glyph-name="section" unicode="&#xa7;" horiz-adv-x="640" 
d="M338 708c82 0 136 -15 183 -32l3 -15l-14 -115c-5 0 -10 1 -15 1l8 113c-37 18 -97 30 -165 30c-44 0 -106 -10 -158 -34c-25 -29 -35 -53 -35 -90c0 -58 28 -92 119 -122l178 -58c79 -26 108 -77 108 -149c0 -77 -39 -128 -92 -174c52 -28 68 -66 68 -109
c0 -95 -88 -143 -221 -143c-82 0 -133 15 -178 32l-3 16l19 131c4 0 9 -1 13 -1l-13 -132c36 -14 95 -28 161 -28c84 0 126 13 171 43c22 26 31 50 31 81c0 62 -25 91 -134 122l-165 53c-82 26 -117 73 -117 147c0 69 33 119 96 180c-45 27 -61 60 -61 108
c0 110 96 145 213 145zM433 366l-176 59c-22 7 -41 14 -56 22c-64 -64 -91 -111 -91 -171c0 -63 29 -108 106 -132l200 -64c9 -3 17 -6 25 -10c41 38 71 73 83 117c4 15 6 30 6 48c0 64 -23 106 -97 131z" />
    <glyph glyph-name="dieresis" unicode="&#xa8;" horiz-adv-x="407" 
d="M71 641c0 12 13 28 27 28s29 -16 29 -29s-15 -28 -28 -28c-14 0 -28 14 -28 29zM281 641c0 12 13 28 27 28s29 -16 29 -29s-15 -28 -28 -28c-14 0 -28 14 -28 29z" />
    <glyph glyph-name="copyright" unicode="&#xa9;" horiz-adv-x="813" 
d="M91 349c0 190 125 316 315 316c196 0 316 -126 316 -316c0 -186 -122 -315 -316 -315c-189 0 -315 129 -315 315zM111 349c0 -176 116 -297 295 -297c182 0 296 121 296 297c0 180 -112 298 -296 298c-180 0 -295 -118 -295 -298zM527 215l6 -12
c-40 -24 -76 -33 -126 -33c-103 0 -164 67 -164 173c0 118 73 178 167 178c51 0 81 -6 112 -19l3 -9l-7 -72l-14 1l1 67c-23 11 -55 17 -96 17c-29 0 -57 -8 -85 -21c-39 -35 -59 -78 -59 -142c0 -95 52 -156 143 -156c46 0 77 6 119 28z" />
    <glyph glyph-name="ordfeminine" unicode="&#xaa;" horiz-adv-x="449" 
d="M110 654l-1 -86c-5 0 -10 -1 -15 -1l-7 88l3 11c44 14 88 16 113 16c98 0 127 -63 127 -135v-214l66 -4l-1 -9h-79l-5 67c-31 -36 -81 -73 -147 -73c-72 0 -106 41 -106 89c0 34 7 61 14 76c73 16 173 23 239 26v41c0 76 -34 121 -108 121c-34 0 -72 -7 -93 -13zM166 329
c65 0 116 42 145 78v84c-60 -3 -174 -12 -224 -25c-5 -14 -10 -35 -10 -59c0 -45 29 -78 89 -78zM50 231v15l339 1v-15z" />
    <glyph glyph-name="guillemotleft" unicode="&#xab;" horiz-adv-x="553" 
d="M266 12l-15 -11c-70 85 -121 160 -195 231v17c71 73 124 146 195 230l14 -10l-85 -106l-105 -123l105 -119zM481 12l-15 -11c-70 85 -121 160 -195 231v17c71 73 124 146 195 230l14 -10l-85 -106l-105 -123l105 -119z" />
    <glyph glyph-name="logicalnot" unicode="&#xac;" horiz-adv-x="585" 
d="M70 329v18h405v-213h-20v195h-385z" />
    <glyph glyph-name="uni00AD" unicode="&#xad;" horiz-adv-x="445" 
d="M70 254v20h305v-20h-305z" />
    <glyph glyph-name="registered" unicode="&#xae;" horiz-adv-x="813" 
d="M91 349c0 190 125 316 315 316c196 0 316 -126 316 -316c0 -186 -122 -315 -316 -315c-189 0 -315 129 -315 315zM111 349c0 -176 116 -297 295 -297c182 0 296 121 296 297c0 180 -112 298 -296 298c-180 0 -295 -118 -295 -298zM386 179h-112v11l46 3v315l-49 3l1 11
h139c73 0 114 -39 114 -100c0 -53 -38 -85 -88 -94c21 -44 63 -108 90 -135l35 -3l-1 -11h-47c-31 32 -75 98 -97 147h-77v-133l47 -3zM405 507h-65v-167h63c65 0 103 31 103 80c0 52 -33 87 -101 87z" />
    <glyph glyph-name="macron" unicode="&#xaf;" horiz-adv-x="503" 
d="M84 619v18h328v-18h-328z" />
    <glyph glyph-name="degree" unicode="&#xb0;" horiz-adv-x="395" 
d="M55 546c0 79 63 143 142 143s143 -64 143 -143s-64 -142 -143 -142s-142 63 -142 142zM75 546c0 -77 59 -124 123 -124c36 0 62 11 93 32c20 32 29 58 29 91c0 70 -57 126 -122 126c-26 0 -54 -9 -85 -27c-26 -31 -38 -55 -38 -98z" />
    <glyph glyph-name="plusminus" unicode="&#xb1;" horiz-adv-x="465" 
d="M60 299v18h163v163h18v-163h164v-18h-164v-164h-18v164h-163zM60 20v20h345v-20h-345z" />
    <glyph glyph-name="twosuperior" unicode="&#xb2;" horiz-adv-x="378" 
d="M323 300h-273l-1 19c87 60 245 167 245 271c0 61 -41 96 -119 96c-41 0 -74 -11 -95 -18l-3 -78l-12 1l-4 78l1 9c31 13 63 22 115 22c87 0 136 -39 136 -109c0 -108 -167 -223 -244 -274v-2h237l4 89l12 -1z" />
    <glyph glyph-name="threesuperior" unicode="&#xb3;" horiz-adv-x="368" 
d="M269 598c0 42 -31 88 -103 88c-29 0 -61 -4 -90 -10l-3 -75l-13 1l-2 71l3 12c30 10 72 15 107 15c78 0 117 -49 117 -101c0 -42 -31 -85 -75 -94v-3c41 -9 87 -39 87 -97c0 -59 -45 -110 -142 -110c-42 0 -72 10 -100 27l6 12c30 -16 64 -24 94 -24c59 0 81 15 104 32
c15 20 21 38 21 63c0 57 -53 93 -132 93l-1 11c39 1 64 6 91 19c18 19 31 40 31 70z" />
    <glyph glyph-name="acute" unicode="&#xb4;" horiz-adv-x="550" 
d="M207 559l-18 5l121 157l24 -5z" />
    <glyph glyph-name="mu" unicode="&#xb5;" horiz-adv-x="627" 
d="M237 -230h-172l1 10l72 5v677h-88v10l81 8h23l4 -32v-274c0 -110 63 -164 139 -164c46 0 85 7 132 29c22 20 41 40 59 66v357h-88v10l80 8h25l3 -31v-434l79 -5l-1 -10h-92l-6 76c-39 -49 -104 -84 -191 -84c-61 0 -112 29 -139 82v-289l80 -5z" />
    <glyph glyph-name="paragraph" unicode="&#xb6;" horiz-adv-x="498" 
d="M60 533c0 100 66 167 166 167h221l-1 -10l-89 -5v-670l91 -5v-10h-111v682h-80v-682h-114l1 10l93 5v351h-11c-100 0 -166 69 -166 167z" />
    <glyph glyph-name="periodcentered" unicode="&#xb7;" horiz-adv-x="242" 
d="M149 216c0 -15 -13 -28 -29 -28c-15 0 -28 13 -28 28c0 16 13 29 28 29c16 0 29 -13 29 -29z" />
    <glyph glyph-name="cedilla" unicode="&#xb8;" horiz-adv-x="326" 
d="M167 3h22l-49 -74c49 0 78 -24 78 -52c0 -48 -37 -76 -93 -97l-7 17c49 17 80 41 80 78c0 23 -23 38 -73 38l-7 13z" />
    <glyph glyph-name="onesuperior" unicode="&#xb9;" horiz-adv-x="264" 
d="M209 300h-146l1 10l66 3v368l-91 -30l-4 12l102 37l12 -1v-386l61 -3z" />
    <glyph glyph-name="ordmasculine" unicode="&#xba;" horiz-adv-x="448" 
d="M230 682c85 0 156 -61 156 -186c0 -110 -52 -182 -155 -182c-113 0 -169 76 -169 184c0 120 71 184 168 184zM228 666c-40 0 -63 -9 -92 -26c-37 -40 -53 -81 -53 -143c0 -94 47 -167 148 -167c30 0 58 6 94 31c28 38 42 69 42 136c0 108 -62 169 -139 169zM62 231v15
h323v-15h-323z" />
    <glyph glyph-name="guillemotright" unicode="&#xbb;" horiz-adv-x="553" 
d="M72 468l15 11c70 -85 121 -160 195 -231v-17c-71 -73 -124 -146 -195 -230l-14 10l85 106l105 123l-105 119zM287 468l15 11c70 -85 121 -160 195 -231v-17c-71 -73 -124 -146 -195 -230l-14 10l85 106l105 123l-105 119z" />
    <glyph glyph-name="onequarter" unicode="&#xbc;" horiz-adv-x="746" 
d="M691 0h-137l1 10l60 3v88h-189l-2 15c31 94 63 189 94 284h17v-7l-94 -278h174v100l5 46h13v-146h70v-14h-70v-88l59 -3zM153 -15l332 738l16 -8l-331 -737zM209 300h-146l1 10l66 3v368l-91 -30l-4 12l102 37l12 -1v-386l61 -3z" />
    <glyph glyph-name="onehalf" unicode="&#xbd;" horiz-adv-x="783" 
d="M153 -15l332 738l16 -8l-331 -737zM209 300h-146l1 10l66 3v368l-91 -30l-4 12l102 37l12 -1v-386l61 -3zM728 0h-273l-1 19c87 60 245 167 245 271c0 61 -41 96 -119 96c-41 0 -74 -11 -95 -18l-3 -78l-12 1l-4 78l1 9c31 13 63 22 115 22c87 0 136 -39 136 -109
c0 -108 -167 -223 -244 -274v-2h237l4 89l12 -1z" />
    <glyph glyph-name="threequarters" unicode="&#xbe;" horiz-adv-x="796" 
d="M741 0h-137l1 10l60 3v88h-189l-2 15c31 94 63 189 94 284h17v-7l-94 -278h174v100l5 46h13v-146h70v-14h-70v-88l59 -3zM235 -15l332 738l16 -8l-331 -737zM269 598c0 42 -31 88 -103 88c-29 0 -61 -4 -90 -10l-3 -75l-13 1l-2 71l3 12c30 10 72 15 107 15
c78 0 117 -49 117 -101c0 -42 -31 -85 -75 -94v-3c41 -9 87 -39 87 -97c0 -59 -45 -110 -142 -110c-42 0 -72 10 -100 27l6 12c30 -16 64 -24 94 -24c59 0 81 15 104 32c15 20 21 38 21 63c0 57 -53 93 -132 93l-1 11c39 1 64 6 91 19c18 19 31 40 31 70z" />
    <glyph glyph-name="questiondown" unicode="&#xbf;" horiz-adv-x="409" 
d="M272 -199c-143 0 -224 101 -224 260c0 45 64 85 236 145c7 8 10 20 10 35c1 30 -4 62 -18 101l18 7c14 -40 21 -76 21 -111c0 -20 -11 -43 -31 -50c-67 -25 -164 -63 -209 -101c-5 -10 -7 -21 -7 -34c0 -121 70 -234 204 -234c17 0 56 1 74 4l2 105h14l9 -114
c-20 -6 -49 -13 -99 -13zM224 473c0 15 13 28 29 28c15 0 28 -13 28 -28c0 -16 -13 -29 -28 -29c-16 0 -29 13 -29 29z" />
    <glyph glyph-name="Agrave" unicode="&#xc0;" horiz-adv-x="728" 
d="M89 15l257 685h33l259 -684l80 -6l-1 -10h-200l1 10l99 5l-77 203h-355l-76 -203l100 -5l-1 -10h-198l1 10zM359 684l-168 -448h342l-169 448h-5zM406 784l-18 -5l-127 157l24 5z" />
    <glyph glyph-name="Aacute" unicode="&#xc1;" horiz-adv-x="728" 
d="M89 15l257 685h33l259 -684l80 -6l-1 -10h-200l1 10l99 5l-77 203h-355l-76 -203l100 -5l-1 -10h-198l1 10zM359 684l-168 -448h342l-169 448h-5zM341 779l-18 5l121 157l24 -5z" />
    <glyph glyph-name="Acircumflex" unicode="&#xc2;" horiz-adv-x="728" 
d="M89 15l257 685h33l259 -684l80 -6l-1 -10h-200l1 10l99 5l-77 203h-355l-76 -203l100 -5l-1 -10h-198l1 10zM359 684l-168 -448h342l-169 448h-5zM362 919l-113 -140l-18 5l121 157h20l121 -157l-18 -5z" />
    <glyph glyph-name="Atilde" unicode="&#xc3;" horiz-adv-x="728" 
d="M89 15l257 685h33l259 -684l80 -6l-1 -10h-200l1 10l99 5l-77 203h-355l-76 -203l100 -5l-1 -10h-198l1 10zM359 684l-168 -448h342l-169 448h-5zM194 826l-14 8c31 37 62 68 85 68c44 0 158 -70 202 -70l64 65l14 -7c-23 -31 -61 -73 -85 -73c-59 0 -161 69 -209 69z
" />
    <glyph glyph-name="Adieresis" unicode="&#xc4;" horiz-adv-x="728" 
d="M89 15l257 685h33l259 -684l80 -6l-1 -10h-200l1 10l99 5l-77 203h-355l-76 -203l100 -5l-1 -10h-198l1 10zM359 684l-168 -448h342l-169 448h-5zM232 861c0 12 13 28 27 28s29 -16 29 -29s-15 -28 -28 -28c-14 0 -28 14 -28 29zM442 861c0 12 13 28 27 28s29 -16 29 -29
s-15 -28 -28 -28c-14 0 -28 14 -28 29z" />
    <glyph glyph-name="Aring" unicode="&#xc5;" horiz-adv-x="728" 
d="M89 15l257 685h33l259 -684l80 -6l-1 -10h-200l1 10l99 5l-77 203h-355l-76 -203l100 -5l-1 -10h-198l1 10zM359 684l-168 -448h342l-169 448h-5zM280 868c0 46 36 82 82 82s82 -36 82 -82s-36 -82 -82 -82s-82 36 -82 82zM298 867c0 -35 30 -64 64 -64s64 29 64 64
c0 32 -30 64 -64 64s-64 -29 -64 -64z" />
    <glyph glyph-name="AE" unicode="&#xc6;" horiz-adv-x="913" 
d="M858 0h-461l1 10l94 5v213h-307l-81 -213l100 -5l-1 -10h-198l1 10l78 5l263 685h496l-3 -162l-12 1l-6 145h-310v-322h216l9 93l12 -1v-194l-12 1l-9 85h-216v-330h327l5 149l12 -1zM360 684l-168 -438h300v438h-132z" />
    <glyph glyph-name="Ccedilla" unicode="&#xc7;" horiz-adv-x="687" 
d="M620 68l7 -15c-76 -45 -141 -60 -230 -61l-47 -72c49 0 78 -24 78 -52c0 -48 -37 -76 -93 -97l-7 17c49 17 80 41 80 78c0 23 -23 38 -73 38l-7 13l47 75c-190 5 -305 137 -305 353c0 240 138 363 320 363c98 0 156 -11 217 -36l3 -15l-7 -138l-14 1l1 133
c-48 24 -115 37 -199 37c-62 0 -119 -17 -176 -47c-83 -71 -125 -158 -125 -298c0 -207 108 -335 296 -335c93 0 155 13 234 58z" />
    <glyph glyph-name="Egrave" unicode="&#xc8;" horiz-adv-x="587" 
d="M71 0l1 10l94 5v670l-96 5l1 10h446l-3 -162l-12 1l-6 145h-310v-322h216l9 93l12 -1v-194l-12 1l-9 85h-216v-330h327l5 149l12 -1l2 -164h-461zM379 784l-18 -5l-127 157l24 5z" />
    <glyph glyph-name="Eacute" unicode="&#xc9;" horiz-adv-x="587" 
d="M71 0l1 10l94 5v670l-96 5l1 10h446l-3 -162l-12 1l-6 145h-310v-322h216l9 93l12 -1v-194l-12 1l-9 85h-216v-330h327l5 149l12 -1l2 -164h-461zM314 779l-18 5l121 157l24 -5z" />
    <glyph glyph-name="Ecircumflex" unicode="&#xca;" horiz-adv-x="587" 
d="M71 0l1 10l94 5v670l-96 5l1 10h446l-3 -162l-12 1l-6 145h-310v-322h216l9 93l12 -1v-194l-12 1l-9 85h-216v-330h327l5 149l12 -1l2 -164h-461zM335 919l-113 -140l-18 5l121 157h20l121 -157l-18 -5z" />
    <glyph glyph-name="Edieresis" unicode="&#xcb;" horiz-adv-x="587" 
d="M71 0l1 10l94 5v670l-96 5l1 10h446l-3 -162l-12 1l-6 145h-310v-322h216l9 93l12 -1v-194l-12 1l-9 85h-216v-330h327l5 149l12 -1l2 -164h-461zM205 861c0 12 13 28 27 28s29 -16 29 -29s-15 -28 -28 -28c-14 0 -28 14 -28 29zM415 861c0 12 13 28 27 28s29 -16 29 -29
s-15 -28 -28 -28c-14 0 -28 14 -28 29z" />
    <glyph glyph-name="Igrave" unicode="&#xcc;" horiz-adv-x="376" 
d="M295 0h-214l1 10l93 5v670l-95 5l1 10h210l-1 -10l-93 -5v-670l99 -5zM230 784l-18 -5l-127 157l24 5z" />
    <glyph glyph-name="Iacute" unicode="&#xcd;" horiz-adv-x="376" 
d="M295 0h-214l1 10l93 5v670l-95 5l1 10h210l-1 -10l-93 -5v-670l99 -5zM165 779l-18 5l121 157l24 -5z" />
    <glyph glyph-name="Icircumflex" unicode="&#xce;" horiz-adv-x="376" 
d="M295 0h-214l1 10l93 5v670l-95 5l1 10h210l-1 -10l-93 -5v-670l99 -5zM186 919l-113 -140l-18 5l121 157h20l121 -157l-18 -5z" />
    <glyph glyph-name="Idieresis" unicode="&#xcf;" horiz-adv-x="376" 
d="M295 0h-214l1 10l93 5v670l-95 5l1 10h210l-1 -10l-93 -5v-670l99 -5zM56 861c0 12 13 28 27 28s29 -16 29 -29s-15 -28 -28 -28c-14 0 -28 14 -28 29zM266 861c0 12 13 28 27 28s29 -16 29 -29s-15 -28 -28 -28c-14 0 -28 14 -28 29z" />
    <glyph glyph-name="Eth" unicode="&#xd0;" horiz-adv-x="743" 
d="M52 345v17h98v323l-93 5l1 10h237c241 0 378 -124 378 -349c0 -216 -116 -351 -349 -351h-274l1 10l99 5v330h-98zM286 684c-62 0 -93 -1 -116 -4v-318h261v-17h-261v-327c32 -4 90 -3 154 -3c122 0 187 31 248 84c51 67 81 128 81 252c0 221 -127 333 -367 333z" />
    <glyph glyph-name="Ntilde" unicode="&#xd1;" horiz-adv-x="865" 
d="M71 700h121l502 -669v654l-96 5l1 10h211l-1 -10l-95 -5v-685h-19l-504 670v-655l107 -5l-1 -10h-225l1 10l98 5v670l-101 5zM276 826l-14 8c31 37 62 68 85 68c44 0 158 -70 202 -70l64 65l14 -7c-23 -31 -61 -73 -85 -73c-59 0 -161 69 -209 69z" />
    <glyph glyph-name="Ograve" unicode="&#xd2;" horiz-adv-x="794" 
d="M392 708c216 0 332 -148 332 -358c0 -228 -126 -358 -331 -358c-182 0 -323 135 -323 349c0 224 135 367 322 367zM390 688c-84 0 -143 -26 -203 -73c-54 -65 -97 -145 -97 -275c0 -195 133 -328 303 -328c102 0 168 29 232 84c47 67 79 141 79 253
c0 200 -108 339 -314 339zM434 784l-18 -5l-127 157l24 5z" />
    <glyph glyph-name="Oacute" unicode="&#xd3;" horiz-adv-x="794" 
d="M392 708c216 0 332 -148 332 -358c0 -228 -126 -358 -331 -358c-182 0 -323 135 -323 349c0 224 135 367 322 367zM390 688c-84 0 -143 -26 -203 -73c-54 -65 -97 -145 -97 -275c0 -195 133 -328 303 -328c102 0 168 29 232 84c47 67 79 141 79 253
c0 200 -108 339 -314 339zM369 779l-18 5l121 157l24 -5z" />
    <glyph glyph-name="Ocircumflex" unicode="&#xd4;" horiz-adv-x="794" 
d="M392 708c216 0 332 -148 332 -358c0 -228 -126 -358 -331 -358c-182 0 -323 135 -323 349c0 224 135 367 322 367zM390 688c-84 0 -143 -26 -203 -73c-54 -65 -97 -145 -97 -275c0 -195 133 -328 303 -328c102 0 168 29 232 84c47 67 79 141 79 253
c0 200 -108 339 -314 339zM390 919l-113 -140l-18 5l121 157h20l121 -157l-18 -5z" />
    <glyph glyph-name="Otilde" unicode="&#xd5;" horiz-adv-x="794" 
d="M392 708c216 0 332 -148 332 -358c0 -228 -126 -358 -331 -358c-182 0 -323 135 -323 349c0 224 135 367 322 367zM390 688c-84 0 -143 -26 -203 -73c-54 -65 -97 -145 -97 -275c0 -195 133 -328 303 -328c102 0 168 29 232 84c47 67 79 141 79 253
c0 200 -108 339 -314 339zM222 826l-14 8c31 37 62 68 85 68c44 0 158 -70 202 -70l64 65l14 -7c-23 -31 -61 -73 -85 -73c-59 0 -161 69 -209 69z" />
    <glyph glyph-name="Odieresis" unicode="&#xd6;" horiz-adv-x="794" 
d="M392 708c216 0 332 -148 332 -358c0 -228 -126 -358 -331 -358c-182 0 -323 135 -323 349c0 224 135 367 322 367zM390 688c-84 0 -143 -26 -203 -73c-54 -65 -97 -145 -97 -275c0 -195 133 -328 303 -328c102 0 168 29 232 84c47 67 79 141 79 253
c0 200 -108 339 -314 339zM260 861c0 12 13 28 27 28s29 -16 29 -29s-15 -28 -28 -28c-14 0 -28 14 -28 29zM470 861c0 12 13 28 27 28s29 -16 29 -29s-15 -28 -28 -28c-14 0 -28 14 -28 29z" />
    <glyph glyph-name="multiply" unicode="&#xd7;" horiz-adv-x="465" 
d="M117 129l-13 12l115 115l-115 116l13 12l115 -115l116 116l12 -13l-116 -116l116 -115l-12 -13l-116 116z" />
    <glyph glyph-name="Oslash" unicode="&#xd8;" horiz-adv-x="794" 
d="M392 708c87 0 157 -24 211 -67l83 121l16 -11l-84 -122c70 -64 106 -162 106 -279c0 -228 -126 -358 -331 -358c-67 0 -127 18 -178 51l-70 -102l-17 12l70 102c-78 59 -128 159 -128 286c0 224 135 367 322 367zM390 688c-84 0 -143 -26 -203 -73
c-54 -65 -97 -145 -97 -275c0 -116 47 -210 121 -267l380 552c-50 40 -118 63 -201 63zM704 349c0 110 -33 202 -98 262l-378 -550c47 -32 103 -49 165 -49c102 0 168 29 232 84c47 67 79 141 79 253z" />
    <glyph glyph-name="Ugrave" unicode="&#xd9;" horiz-adv-x="771" 
d="M629 685v-421c0 -177 -47 -272 -233 -272c-180 0 -240 97 -240 272v421l-90 5l1 10h195l-1 -10l-85 -5v-413c0 -174 51 -262 220 -262c71 0 124 16 168 53c33 49 47 102 47 209v413l-85 5l1 10h189l-1 -10zM439 784l-18 -5l-127 157l24 5z" />
    <glyph glyph-name="Uacute" unicode="&#xda;" horiz-adv-x="771" 
d="M629 685v-421c0 -177 -47 -272 -233 -272c-180 0 -240 97 -240 272v421l-90 5l1 10h195l-1 -10l-85 -5v-413c0 -174 51 -262 220 -262c71 0 124 16 168 53c33 49 47 102 47 209v413l-85 5l1 10h189l-1 -10zM374 779l-18 5l121 157l24 -5z" />
    <glyph glyph-name="Ucircumflex" unicode="&#xdb;" horiz-adv-x="771" 
d="M629 685v-421c0 -177 -47 -272 -233 -272c-180 0 -240 97 -240 272v421l-90 5l1 10h195l-1 -10l-85 -5v-413c0 -174 51 -262 220 -262c71 0 124 16 168 53c33 49 47 102 47 209v413l-85 5l1 10h189l-1 -10zM395 919l-113 -140l-18 5l121 157h20l121 -157l-18 -5z" />
    <glyph glyph-name="Udieresis" unicode="&#xdc;" horiz-adv-x="771" 
d="M629 685v-421c0 -177 -47 -272 -233 -272c-180 0 -240 97 -240 272v421l-90 5l1 10h195l-1 -10l-85 -5v-413c0 -174 51 -262 220 -262c71 0 124 16 168 53c33 49 47 102 47 209v413l-85 5l1 10h189l-1 -10zM265 861c0 12 13 28 27 28s29 -16 29 -29s-15 -28 -28 -28
c-14 0 -28 14 -28 29zM475 861c0 12 13 28 27 28s29 -16 29 -29s-15 -28 -28 -28c-14 0 -28 14 -28 29z" />
    <glyph glyph-name="Yacute" unicode="&#xdd;" horiz-adv-x="675" 
d="M437 0h-217l1 10l102 5v289l-233 381l-80 5l1 10h203l-1 -10l-99 -5l220 -360h2l228 360l-93 5l1 10h193l-1 -10l-79 -5l-242 -383v-287l95 -5zM320 779l-18 5l121 157l24 -5z" />
    <glyph glyph-name="Thorn" unicode="&#xde;" horiz-adv-x="605" 
d="M285 0h-214l1 10l93 5v670l-95 5l1 10h210l-1 -10l-95 -5v-130h155c129 0 205 -76 205 -199c0 -141 -69 -200 -222 -200h-138v-141l101 -5zM336 537h-151v-363h150c57 0 105 12 143 34c32 39 46 80 46 148c0 114 -66 181 -188 181z" />
    <glyph glyph-name="germandbls" unicode="&#xdf;" horiz-adv-x="664" 
d="M534 515c0 -22 -9 -23 -33 -28c-59 -12 -98 -20 -140 -43c-22 -26 -25 -43 -25 -70c0 -53 45 -85 129 -123c88 -40 141 -68 141 -141s-53 -118 -155 -118c-69 0 -121 15 -149 28l-3 22l17 106l14 -1l-10 -113c28 -14 80 -24 131 -24c37 0 75 5 110 24c16 20 25 42 25 76
c0 42 -21 78 -129 124c-91 39 -143 71 -143 137c0 106 101 113 201 141c0 128 -62 212 -166 212c-59 0 -99 -11 -143 -38c-30 -35 -44 -68 -44 -124v-562h-96l1 10l75 5v447l-102 6l1 12h101v82c0 120 81 177 208 177c113 0 184 -71 184 -224z" />
    <glyph glyph-name="agrave" unicode="&#xe0;" horiz-adv-x="553" 
d="M120 453l-1 -118l-16 -1l-9 118l3 14c39 12 90 22 150 22c114 0 167 -64 167 -182v-291l89 -5l-1 -10h-103l-5 93c-42 -50 -109 -101 -199 -101c-96 0 -140 55 -140 119c0 46 10 82 19 102c99 22 232 31 320 35v56c0 102 -45 167 -147 167c-47 0 -99 -10 -127 -18zM196 9
c91 0 160 59 198 110v112c-81 -3 -236 -15 -305 -33c-7 -19 -14 -48 -14 -82c0 -62 39 -107 121 -107zM289 564l-18 -5l-127 157l24 5z" />
    <glyph glyph-name="aacute" unicode="&#xe1;" horiz-adv-x="553" 
d="M120 453l-1 -118l-16 -1l-9 118l3 14c39 12 90 22 150 22c114 0 167 -64 167 -182v-291l89 -5l-1 -10h-103l-5 93c-42 -50 -109 -101 -199 -101c-96 0 -140 55 -140 119c0 46 10 82 19 102c99 22 232 31 320 35v56c0 102 -45 167 -147 167c-47 0 -99 -10 -127 -18zM196 9
c91 0 160 59 198 110v112c-81 -3 -236 -15 -305 -33c-7 -19 -14 -48 -14 -82c0 -62 39 -107 121 -107zM224 559l-18 5l121 157l24 -5z" />
    <glyph glyph-name="acircumflex" unicode="&#xe2;" horiz-adv-x="553" 
d="M120 453l-1 -118l-16 -1l-9 118l3 14c39 12 90 22 150 22c114 0 167 -64 167 -182v-291l89 -5l-1 -10h-103l-5 93c-42 -50 -109 -101 -199 -101c-96 0 -140 55 -140 119c0 46 10 82 19 102c99 22 232 31 320 35v56c0 102 -45 167 -147 167c-47 0 -99 -10 -127 -18zM196 9
c91 0 160 59 198 110v112c-81 -3 -236 -15 -305 -33c-7 -19 -14 -48 -14 -82c0 -62 39 -107 121 -107zM245 699l-113 -140l-18 5l121 157h20l121 -157l-18 -5z" />
    <glyph glyph-name="atilde" unicode="&#xe3;" horiz-adv-x="553" 
d="M120 453l-1 -118l-16 -1l-9 118l3 14c39 12 90 22 150 22c114 0 167 -64 167 -182v-291l89 -5l-1 -10h-103l-5 93c-42 -50 -109 -101 -199 -101c-96 0 -140 55 -140 119c0 46 10 82 19 102c99 22 232 31 320 35v56c0 102 -45 167 -147 167c-47 0 -99 -10 -127 -18zM196 9
c91 0 160 59 198 110v112c-81 -3 -236 -15 -305 -33c-7 -19 -14 -48 -14 -82c0 -62 39 -107 121 -107zM77 606l-14 8c31 37 62 68 85 68c44 0 158 -70 202 -70l64 65l14 -7c-23 -31 -61 -73 -85 -73c-59 0 -161 69 -209 69z" />
    <glyph glyph-name="adieresis" unicode="&#xe4;" horiz-adv-x="553" 
d="M120 453l-1 -118l-16 -1l-9 118l3 14c39 12 90 22 150 22c114 0 167 -64 167 -182v-291l89 -5l-1 -10h-103l-5 93c-42 -50 -109 -101 -199 -101c-96 0 -140 55 -140 119c0 46 10 82 19 102c99 22 232 31 320 35v56c0 102 -45 167 -147 167c-47 0 -99 -10 -127 -18zM196 9
c91 0 160 59 198 110v112c-81 -3 -236 -15 -305 -33c-7 -19 -14 -48 -14 -82c0 -62 39 -107 121 -107zM115 641c0 12 13 28 27 28s29 -16 29 -29s-15 -28 -28 -28c-14 0 -28 14 -28 29zM325 641c0 12 13 28 27 28s29 -16 29 -29s-15 -28 -28 -28c-14 0 -28 14 -28 29z" />
    <glyph glyph-name="aring" unicode="&#xe5;" horiz-adv-x="553" 
d="M120 453l-1 -118l-16 -1l-9 118l3 14c39 12 90 22 150 22c114 0 167 -64 167 -182v-291l89 -5l-1 -10h-103l-5 93c-42 -50 -109 -101 -199 -101c-96 0 -140 55 -140 119c0 46 10 82 19 102c99 22 232 31 320 35v56c0 102 -45 167 -147 167c-47 0 -99 -10 -127 -18zM196 9
c91 0 160 59 198 110v112c-81 -3 -236 -15 -305 -33c-7 -19 -14 -48 -14 -82c0 -62 39 -107 121 -107zM163 648c0 46 36 82 82 82s82 -36 82 -82s-36 -82 -82 -82s-82 36 -82 82zM181 647c0 -35 30 -64 64 -64s64 29 64 64c0 32 -30 64 -64 64s-64 -29 -64 -64z" />
    <glyph glyph-name="ccedilla" unicode="&#xe7;" horiz-adv-x="500" 
d="M434 437l-15 -111l-16 1l10 115c-18 11 -85 28 -131 28c-52 0 -89 -14 -136 -44c-43 -48 -66 -101 -66 -180c0 -145 65 -236 191 -236c65 0 112 14 161 47l8 -14c-43 -31 -87 -47 -148 -50l-42 -64c49 0 78 -24 78 -52c0 -48 -37 -76 -93 -97l-7 17c49 17 80 41 80 78
c0 23 -23 38 -73 38l-7 13l42 66c-134 0 -210 98 -210 253c0 152 95 243 221 243c56 0 115 -13 149 -33z" />
    <glyph glyph-name="egrave" unicode="&#xe8;" horiz-adv-x="514" 
d="M453 237l-373 -5c4 -137 80 -222 201 -222c67 0 123 22 166 52l8 -13c-42 -36 -101 -57 -174 -57c-139 0 -221 100 -221 251c0 147 87 245 216 245c116 0 183 -79 183 -225zM152 432c-42 -46 -71 -105 -72 -182l360 7c0 139 -63 212 -164 213c-37 0 -80 -11 -124 -38z
M318 564l-18 -5l-127 157l24 5z" />
    <glyph glyph-name="eacute" unicode="&#xe9;" horiz-adv-x="514" 
d="M453 237l-373 -5c4 -137 80 -222 201 -222c67 0 123 22 166 52l8 -13c-42 -36 -101 -57 -174 -57c-139 0 -221 100 -221 251c0 147 87 245 216 245c116 0 183 -79 183 -225zM152 432c-42 -46 -71 -105 -72 -182l360 7c0 139 -63 212 -164 213c-37 0 -80 -11 -124 -38z
M253 559l-18 5l121 157l24 -5z" />
    <glyph glyph-name="ecircumflex" unicode="&#xea;" horiz-adv-x="514" 
d="M453 237l-373 -5c4 -137 80 -222 201 -222c67 0 123 22 166 52l8 -13c-42 -36 -101 -57 -174 -57c-139 0 -221 100 -221 251c0 147 87 245 216 245c116 0 183 -79 183 -225zM152 432c-42 -46 -71 -105 -72 -182l360 7c0 139 -63 212 -164 213c-37 0 -80 -11 -124 -38z
M274 699l-113 -140l-18 5l121 157h20l121 -157l-18 -5z" />
    <glyph glyph-name="edieresis" unicode="&#xeb;" horiz-adv-x="514" 
d="M453 237l-373 -5c4 -137 80 -222 201 -222c67 0 123 22 166 52l8 -13c-42 -36 -101 -57 -174 -57c-139 0 -221 100 -221 251c0 147 87 245 216 245c116 0 183 -79 183 -225zM152 432c-42 -46 -71 -105 -72 -182l360 7c0 139 -63 212 -164 213c-37 0 -80 -11 -124 -38z
M144 641c0 12 13 28 27 28s29 -16 29 -29s-15 -28 -28 -28c-14 0 -28 14 -28 29zM354 641c0 12 13 28 27 28s29 -16 29 -29s-15 -28 -28 -28c-14 0 -28 14 -28 29z" />
    <glyph glyph-name="igrave" unicode="&#xec;" horiz-adv-x="292" 
d="M191 564l-18 -5l-127 157l24 5zM241 0h-173l1 10l73 5v450l-82 5l1 10h98l3 -21v-444l80 -5z" />
    <glyph glyph-name="iacute" unicode="&#xed;" horiz-adv-x="292" 
d="M126 559l-18 5l121 157l24 -5zM241 0h-173l1 10l73 5v450l-82 5l1 10h98l3 -21v-444l80 -5z" />
    <glyph glyph-name="icircumflex" unicode="&#xee;" horiz-adv-x="292" 
d="M241 0h-173l1 10l73 5v450l-82 5l1 10h98l3 -21v-444l80 -5zM147 699l-113 -140l-18 5l121 157h20l121 -157l-18 -5z" />
    <glyph glyph-name="idieresis" unicode="&#xef;" horiz-adv-x="292" 
d="M17 641c0 12 13 28 27 28s29 -16 29 -29s-15 -28 -28 -28c-14 0 -28 14 -28 29zM227 641c0 12 13 28 27 28s29 -16 29 -29s-15 -28 -28 -28c-14 0 -28 14 -28 29zM241 0h-173l1 10l73 5v450l-82 5l1 10h98l3 -21v-444l80 -5z" />
    <glyph glyph-name="eth" unicode="&#xf0;" horiz-adv-x="551" 
d="M213 575l-5 18l159 43c-29 37 -66 69 -108 98l26 9c39 -31 74 -64 103 -101l114 31l5 -18l-107 -29c52 -76 91 -187 91 -328c0 -202 -77 -306 -214 -306c-144 0 -217 103 -217 248c0 162 94 248 222 248c84 0 145 -37 183 -95c-11 90 -41 167 -85 227zM469 298
c0 17 -1 46 -2 63c-38 60 -87 109 -188 109c-54 0 -87 -13 -125 -37c-50 -51 -72 -110 -72 -194c0 -130 65 -229 195 -229c44 0 91 17 123 39c37 43 69 119 69 249z" />
    <glyph glyph-name="ntilde" unicode="&#xf1;" horiz-adv-x="607" 
d="M226 0h-172l1 10l72 5v447h-87v12l84 6h18l5 -32v-55c39 62 91 95 168 95c131 0 176 -77 176 -186v-287l86 -5l-1 -10h-105v300c0 101 -40 169 -156 169c-38 0 -69 -9 -96 -21c-28 -23 -54 -55 -72 -90v-343l80 -5zM143 606l-14 8c31 37 62 68 85 68
c44 0 158 -70 202 -70l64 65l14 -7c-23 -31 -61 -73 -85 -73c-59 0 -161 69 -209 69z" />
    <glyph glyph-name="oacute" unicode="&#xf3;" horiz-adv-x="549" 
d="M282 488c112 0 207 -83 207 -251c0 -147 -69 -245 -206 -245c-150 0 -223 103 -223 248c0 162 94 248 222 248zM279 470c-54 0 -87 -13 -125 -37c-50 -51 -72 -110 -72 -194c0 -130 65 -229 201 -229c39 0 83 12 127 42c39 52 58 94 58 186c0 149 -85 232 -189 232z
M259 559l-18 5l121 157l24 -5z" />
    <glyph glyph-name="ocircumflex" unicode="&#xf4;" horiz-adv-x="549" 
d="M282 488c112 0 207 -83 207 -251c0 -147 -69 -245 -206 -245c-150 0 -223 103 -223 248c0 162 94 248 222 248zM279 470c-54 0 -87 -13 -125 -37c-50 -51 -72 -110 -72 -194c0 -130 65 -229 201 -229c39 0 83 12 127 42c39 52 58 94 58 186c0 149 -85 232 -189 232z
M280 699l-113 -140l-18 5l121 157h20l121 -157l-18 -5z" />
    <glyph glyph-name="otilde" unicode="&#xf5;" horiz-adv-x="549" 
d="M282 488c112 0 207 -83 207 -251c0 -147 -69 -245 -206 -245c-150 0 -223 103 -223 248c0 162 94 248 222 248zM279 470c-54 0 -87 -13 -125 -37c-50 -51 -72 -110 -72 -194c0 -130 65 -229 201 -229c39 0 83 12 127 42c39 52 58 94 58 186c0 149 -85 232 -189 232z
M112 606l-14 8c31 37 62 68 85 68c44 0 158 -70 202 -70l64 65l14 -7c-23 -31 -61 -73 -85 -73c-59 0 -161 69 -209 69z" />
    <glyph glyph-name="odieresis" unicode="&#xf6;" horiz-adv-x="549" 
d="M282 488c112 0 207 -83 207 -251c0 -147 -69 -245 -206 -245c-150 0 -223 103 -223 248c0 162 94 248 222 248zM279 470c-54 0 -87 -13 -125 -37c-50 -51 -72 -110 -72 -194c0 -130 65 -229 201 -229c39 0 83 12 127 42c39 52 58 94 58 186c0 149 -85 232 -189 232z
M150 641c0 12 13 28 27 28s29 -16 29 -29s-15 -28 -28 -28c-14 0 -28 14 -28 29zM360 641c0 12 13 28 27 28s29 -16 29 -29s-15 -28 -28 -28c-14 0 -28 14 -28 29z" />
    <glyph glyph-name="divide" unicode="&#xf7;" horiz-adv-x="465" 
d="M60 245v20h345v-20h-345zM261 86c0 -15 -13 -28 -29 -28c-15 0 -28 13 -28 28c0 16 13 29 28 29c16 0 29 -13 29 -29zM261 424c0 -15 -13 -28 -29 -28c-15 0 -28 13 -28 28c0 16 13 29 28 29c16 0 29 -13 29 -29z" />
    <glyph glyph-name="oslash" unicode="&#xf8;" horiz-adv-x="549" 
d="M282 488c49 0 95 -16 131 -48l60 87l16 -11l-62 -90c38 -42 62 -105 62 -189c0 -147 -69 -245 -206 -245c-53 0 -96 12 -130 35l-50 -73l-17 12l51 73c-52 44 -77 115 -77 201c0 162 94 248 222 248zM279 470c-54 0 -87 -13 -125 -37c-50 -51 -72 -110 -72 -194
c0 -76 22 -141 67 -182l251 365c-33 31 -75 48 -121 48zM468 238c0 73 -21 130 -54 169l-249 -363c30 -22 70 -34 118 -34c39 0 83 12 127 42c39 52 58 94 58 186z" />
    <glyph glyph-name="ugrave" unicode="&#xf9;" horiz-adv-x="627" 
d="M586 0h-92l-6 76c-39 -49 -104 -84 -191 -84c-90 0 -159 63 -159 177v293h-88v10l81 8h23l4 -31v-275c0 -110 63 -164 139 -164c46 0 85 7 132 29c22 20 41 40 59 66v357h-88v10l80 8h25l3 -31v-434l79 -5zM369 564l-18 -5l-127 157l24 5z" />
    <glyph glyph-name="uacute" unicode="&#xfa;" horiz-adv-x="627" 
d="M586 0h-92l-6 76c-39 -49 -104 -84 -191 -84c-90 0 -159 63 -159 177v293h-88v10l81 8h23l4 -31v-275c0 -110 63 -164 139 -164c46 0 85 7 132 29c22 20 41 40 59 66v357h-88v10l80 8h25l3 -31v-434l79 -5zM304 559l-18 5l121 157l24 -5z" />
    <glyph glyph-name="ucircumflex" unicode="&#xfb;" horiz-adv-x="627" 
d="M586 0h-92l-6 76c-39 -49 -104 -84 -191 -84c-90 0 -159 63 -159 177v293h-88v10l81 8h23l4 -31v-275c0 -110 63 -164 139 -164c46 0 85 7 132 29c22 20 41 40 59 66v357h-88v10l80 8h25l3 -31v-434l79 -5zM325 699l-113 -140l-18 5l121 157h20l121 -157l-18 -5z" />
    <glyph glyph-name="udieresis" unicode="&#xfc;" horiz-adv-x="627" 
d="M586 0h-92l-6 76c-39 -49 -104 -84 -191 -84c-90 0 -159 63 -159 177v293h-88v10l81 8h23l4 -31v-275c0 -110 63 -164 139 -164c46 0 85 7 132 29c22 20 41 40 59 66v357h-88v10l80 8h25l3 -31v-434l79 -5zM195 641c0 12 13 28 27 28s29 -16 29 -29s-15 -28 -28 -28
c-14 0 -28 14 -28 29zM405 641c0 12 13 28 27 28s29 -16 29 -29s-15 -28 -28 -28c-14 0 -28 14 -28 29z" />
    <glyph glyph-name="yacute" unicode="&#xfd;" horiz-adv-x="578" 
d="M492 465l-220 -527c-38 -90 -96 -145 -185 -145h-66l-4 7l3 14l5 3l63 -7c76 0 135 48 170 135l23 57l-15 -2l-10 11l-185 454l-66 5l1 10h161l-1 -10l-73 -5l180 -447h15l182 447l-79 5l1 10h181l-1 -10zM260 559l-18 5l121 157l24 -5z" />
    <glyph glyph-name="thorn" unicode="&#xfe;" horiz-adv-x="578" 
d="M226 -230h-172l1 10l72 5v977h-87v12l84 6h18l5 -32v-340c40 50 99 80 175 80c96 0 196 -66 196 -231c0 -164 -70 -265 -197 -265c-80 0 -137 22 -174 51v-258l80 -5zM201 441c-22 -19 -39 -38 -54 -61v-315c40 -35 96 -55 173 -55c46 0 79 10 116 40
c40 50 62 101 62 203c0 164 -94 217 -178 217c-50 0 -86 -11 -119 -29z" />
    <glyph glyph-name="ydieresis" unicode="&#xff;" horiz-adv-x="578" 
d="M492 465l-220 -527c-38 -90 -96 -145 -185 -145h-66l-4 7l3 14l5 3l63 -7c76 0 135 48 170 135l23 57l-15 -2l-10 11l-185 454l-66 5l1 10h161l-1 -10l-73 -5l180 -447h15l182 447l-79 5l1 10h181l-1 -10zM151 641c0 12 13 28 27 28s29 -16 29 -29s-15 -28 -28 -28
c-14 0 -28 14 -28 29zM361 641c0 12 13 28 27 28s29 -16 29 -29s-15 -28 -28 -28c-14 0 -28 14 -28 29z" />
    <glyph glyph-name="Amacron" unicode="&#x100;" horiz-adv-x="728" 
d="M89 15l257 685h33l259 -684l80 -6l-1 -10h-200l1 10l99 5l-77 203h-355l-76 -203l100 -5l-1 -10h-198l1 10zM359 684l-168 -448h342l-169 448h-5zM195 839v18h328v-18h-328z" />
    <glyph glyph-name="amacron" unicode="&#x101;" horiz-adv-x="553" 
d="M120 453l-1 -118l-16 -1l-9 118l3 14c39 12 90 22 150 22c114 0 167 -64 167 -182v-291l89 -5l-1 -10h-103l-5 93c-42 -50 -109 -101 -199 -101c-96 0 -140 55 -140 119c0 46 10 82 19 102c99 22 232 31 320 35v56c0 102 -45 167 -147 167c-47 0 -99 -10 -127 -18zM196 9
c91 0 160 59 198 110v112c-81 -3 -236 -15 -305 -33c-7 -19 -14 -48 -14 -82c0 -62 39 -107 121 -107zM78 619v18h328v-18h-328z" />
    <glyph glyph-name="Abreve" unicode="&#x102;" horiz-adv-x="728" 
d="M89 15l257 685h33l259 -684l80 -6l-1 -10h-200l1 10l99 5l-77 203h-355l-76 -203l100 -5l-1 -10h-198l1 10zM359 684l-168 -448h342l-169 448h-5zM247 914h16c8 -55 45 -86 99 -86c48 0 85 27 98 86h14l3 -10c-14 -57 -60 -94 -115 -94c-60 0 -107 36 -118 95z" />
    <glyph glyph-name="abreve" unicode="&#x103;" horiz-adv-x="553" 
d="M120 453l-1 -118l-16 -1l-9 118l3 14c39 12 90 22 150 22c114 0 167 -64 167 -182v-291l89 -5l-1 -10h-103l-5 93c-42 -50 -109 -101 -199 -101c-96 0 -140 55 -140 119c0 46 10 82 19 102c99 22 232 31 320 35v56c0 102 -45 167 -147 167c-47 0 -99 -10 -127 -18zM196 9
c91 0 160 59 198 110v112c-81 -3 -236 -15 -305 -33c-7 -19 -14 -48 -14 -82c0 -62 39 -107 121 -107zM130 694h16c8 -55 45 -86 99 -86c48 0 85 27 98 86h14l3 -10c-14 -57 -60 -94 -115 -94c-60 0 -107 36 -118 95z" />
    <glyph glyph-name="Aogonek" unicode="&#x104;" horiz-adv-x="728" 
d="M89 15l257 685h33l259 -684l80 -6l-1 -10h-79c-39 -43 -59 -74 -61 -119c11 -23 29 -26 61 -31l-1 -13c-54 0 -76 23 -76 49c0 42 24 78 57 114h-101l1 10l99 5l-77 203h-355l-76 -203l100 -5l-1 -10h-198l1 10zM359 684l-168 -448h342l-169 448h-5z" />
    <glyph glyph-name="aogonek" unicode="&#x105;" horiz-adv-x="553" 
d="M503 10l-1 -10c-39 -43 -59 -74 -61 -119c11 -23 29 -26 61 -31l-1 -13c-54 0 -76 20 -76 46c0 42 28 84 56 116l-82 1l-5 93c-42 -50 -109 -101 -199 -101c-96 0 -140 55 -140 119c0 46 10 82 19 102c99 22 232 31 320 35v56c0 102 -45 167 -147 167
c-47 0 -99 -10 -127 -18l-1 -118l-16 -1l-9 118l3 14c39 12 90 22 150 22c114 0 167 -64 167 -182v-291zM196 9c91 0 160 59 198 110v112c-81 -3 -236 -15 -305 -33c-7 -19 -14 -48 -14 -82c0 -62 39 -107 121 -107z" />
    <glyph glyph-name="Cacute" unicode="&#x106;" horiz-adv-x="687" 
d="M620 68l7 -15c-79 -47 -146 -61 -241 -61c-197 0 -316 133 -316 353c0 240 138 363 320 363c98 0 156 -11 217 -36l3 -15l-7 -138l-14 1l1 133c-48 24 -115 37 -199 37c-62 0 -119 -17 -176 -47c-83 -71 -125 -158 -125 -298c0 -207 108 -335 296 -335
c93 0 155 13 234 58zM375 779l-18 5l121 157l24 -5z" />
    <glyph glyph-name="cacute" unicode="&#x107;" horiz-adv-x="500" 
d="M434 437l-15 -111l-16 1l10 115c-18 11 -85 28 -131 28c-52 0 -89 -14 -136 -44c-43 -48 -66 -101 -66 -180c0 -145 65 -236 191 -236c65 0 112 14 161 47l8 -14c-48 -34 -97 -51 -170 -51c-134 0 -210 98 -210 253c0 152 95 243 221 243c56 0 115 -13 149 -33zM260 559
l-18 5l121 157l24 -5z" />
    <glyph glyph-name="Ccircumflex" unicode="&#x108;" horiz-adv-x="687" 
d="M620 68l7 -15c-79 -47 -146 -61 -241 -61c-197 0 -316 133 -316 353c0 240 138 363 320 363c98 0 156 -11 217 -36l3 -15l-7 -138l-14 1l1 133c-48 24 -115 37 -199 37c-62 0 -119 -17 -176 -47c-83 -71 -125 -158 -125 -298c0 -207 108 -335 296 -335
c93 0 155 13 234 58zM396 919l-113 -140l-18 5l121 157h20l121 -157l-18 -5z" />
    <glyph glyph-name="ccircumflex" unicode="&#x109;" horiz-adv-x="500" 
d="M434 437l-15 -111l-16 1l10 115c-18 11 -85 28 -131 28c-52 0 -89 -14 -136 -44c-43 -48 -66 -101 -66 -180c0 -145 65 -236 191 -236c65 0 112 14 161 47l8 -14c-48 -34 -97 -51 -170 -51c-134 0 -210 98 -210 253c0 152 95 243 221 243c56 0 115 -13 149 -33zM281 699
l-113 -140l-18 5l121 157h20l121 -157l-18 -5z" />
    <glyph glyph-name="Cdotaccent" unicode="&#x10a;" horiz-adv-x="687" 
d="M620 68l7 -15c-79 -47 -146 -61 -241 -61c-197 0 -316 133 -316 353c0 240 138 363 320 363c98 0 156 -11 217 -36l3 -15l-7 -138l-14 1l1 133c-48 24 -115 37 -199 37c-62 0 -119 -17 -176 -47c-83 -71 -125 -158 -125 -298c0 -207 108 -335 296 -335
c93 0 155 13 234 58zM433 860c0 -20 -17 -37 -37 -37s-37 17 -37 37s17 37 37 37s37 -17 37 -37z" />
    <glyph glyph-name="cdotaccent" unicode="&#x10b;" horiz-adv-x="500" 
d="M434 437l-15 -111l-16 1l10 115c-18 11 -85 28 -131 28c-52 0 -89 -14 -136 -44c-43 -48 -66 -101 -66 -180c0 -145 65 -236 191 -236c65 0 112 14 161 47l8 -14c-48 -34 -97 -51 -170 -51c-134 0 -210 98 -210 253c0 152 95 243 221 243c56 0 115 -13 149 -33zM318 640
c0 -20 -17 -37 -37 -37s-37 17 -37 37s17 37 37 37s37 -17 37 -37z" />
    <glyph glyph-name="Ccaron" unicode="&#x10c;" horiz-adv-x="687" 
d="M620 68l7 -15c-79 -47 -146 -61 -241 -61c-197 0 -316 133 -316 353c0 240 138 363 320 363c98 0 156 -11 217 -36l3 -15l-7 -138l-14 1l1 133c-48 24 -115 37 -199 37c-62 0 -119 -17 -176 -47c-83 -71 -125 -158 -125 -298c0 -207 108 -335 296 -335
c93 0 155 13 234 58zM397 812l113 140l18 -5l-121 -157h-20l-121 157l18 5z" />
    <glyph glyph-name="ccaron" unicode="&#x10d;" horiz-adv-x="500" 
d="M434 437l-15 -111l-16 1l10 115c-18 11 -85 28 -131 28c-52 0 -89 -14 -136 -44c-43 -48 -66 -101 -66 -180c0 -145 65 -236 191 -236c65 0 112 14 161 47l8 -14c-48 -34 -97 -51 -170 -51c-134 0 -210 98 -210 253c0 152 95 243 221 243c56 0 115 -13 149 -33zM282 592
l113 140l18 -5l-121 -157h-20l-121 157l18 5z" />
    <glyph glyph-name="Dcaron" unicode="&#x10e;" horiz-adv-x="743" 
d="M50 0l1 10l99 5v670l-93 5l1 10h237c241 0 378 -124 378 -349c0 -216 -116 -351 -349 -351h-274zM286 684c-62 0 -93 -1 -116 -4v-662c32 -4 90 -3 154 -3c122 0 187 31 248 84c51 67 81 128 81 252c0 221 -127 333 -367 333zM341 812l113 140l18 -5l-121 -157h-20
l-121 157l18 5z" />
    <glyph glyph-name="dcaron" unicode="&#x10f;" horiz-adv-x="563" 
d="M532 0h-101l-5 47c-33 -30 -82 -55 -157 -55c-120 0 -209 99 -209 243c0 169 95 253 220 253c69 0 113 -16 146 -41v315h-87v11l83 7h21l3 -25v-740l87 -5zM377 31c17 11 30 21 49 40v353c-36 30 -92 46 -146 46c-39 0 -82 -12 -123 -33c-45 -47 -77 -103 -77 -201
c0 -129 75 -226 190 -226c41 0 71 7 107 21zM312 -106c0 -22 -21 -59 -49 -88l-13 13c14 16 27 34 33 51c-15 0 -28 13 -28 28c0 16 13 29 28 29c16 0 29 -13 29 -33z" />
    <glyph glyph-name="Dcroat" unicode="&#x110;" horiz-adv-x="743" 
d="M52 345v17h98v323l-93 5l1 10h237c241 0 378 -124 378 -349c0 -216 -116 -351 -349 -351h-274l1 10l99 5v330h-98zM286 684c-62 0 -93 -1 -116 -4v-318h261v-17h-261v-327c32 -4 90 -3 154 -3c122 0 187 31 248 84c51 67 81 128 81 252c0 221 -127 333 -367 333z" />
    <glyph glyph-name="dcroat" unicode="&#x111;" horiz-adv-x="563" 
d="M238 600v18h188v144h-87v11l83 7h21l3 -25v-137h81v-18h-81v-585l87 -5l-1 -10h-101l-5 47c-33 -30 -82 -55 -157 -55c-120 0 -209 99 -209 243c0 169 95 253 220 253c69 0 113 -16 146 -41v153h-188zM378 32c16 10 29 20 48 39v353c-36 30 -92 46 -146 46
c-39 0 -82 -12 -123 -33c-45 -47 -77 -103 -77 -201c0 -129 75 -226 190 -226c41 0 73 8 108 22z" />
    <glyph glyph-name="Emacron" unicode="&#x112;" horiz-adv-x="587" 
d="M71 0l1 10l94 5v670l-96 5l1 10h446l-3 -162l-12 1l-6 145h-310v-322h216l9 93l12 -1v-194l-12 1l-9 85h-216v-330h327l5 149l12 -1l2 -164h-461zM168 839v18h328v-18h-328z" />
    <glyph glyph-name="emacron" unicode="&#x113;" horiz-adv-x="514" 
d="M453 237l-373 -5c4 -137 80 -222 201 -222c67 0 123 22 166 52l8 -13c-42 -36 -101 -57 -174 -57c-139 0 -221 100 -221 251c0 147 87 245 216 245c116 0 183 -79 183 -225zM152 432c-42 -46 -71 -105 -72 -182l360 7c0 139 -63 212 -164 213c-37 0 -80 -11 -124 -38z
M107 619v18h328v-18h-328z" />
    <glyph glyph-name="Ebreve" unicode="&#x114;" horiz-adv-x="587" 
d="M71 0l1 10l94 5v670l-96 5l1 10h446l-3 -162l-12 1l-6 145h-310v-322h216l9 93l12 -1v-194l-12 1l-9 85h-216v-330h327l5 149l12 -1l2 -164h-461zM220 914h16c8 -55 45 -86 99 -86c48 0 85 27 98 86h14l3 -10c-14 -57 -60 -94 -115 -94c-60 0 -107 36 -118 95z" />
    <glyph glyph-name="ebreve" unicode="&#x115;" horiz-adv-x="514" 
d="M453 237l-373 -5c4 -137 80 -222 201 -222c67 0 123 22 166 52l8 -13c-42 -36 -101 -57 -174 -57c-139 0 -221 100 -221 251c0 147 87 245 216 245c116 0 183 -79 183 -225zM152 432c-42 -46 -71 -105 -72 -182l360 7c0 139 -63 212 -164 213c-37 0 -80 -11 -124 -38z
M159 694h16c8 -55 45 -86 99 -86c48 0 85 27 98 86h14l3 -10c-14 -57 -60 -94 -115 -94c-60 0 -107 36 -118 95z" />
    <glyph glyph-name="Edotaccent" unicode="&#x116;" horiz-adv-x="587" 
d="M71 0l1 10l94 5v670l-96 5l1 10h446l-3 -162l-12 1l-6 145h-310v-322h216l9 93l12 -1v-194l-12 1l-9 85h-216v-330h327l5 149l12 -1l2 -164h-461zM372 860c0 -20 -17 -37 -37 -37s-37 17 -37 37s17 37 37 37s37 -17 37 -37z" />
    <glyph glyph-name="edotaccent" unicode="&#x117;" horiz-adv-x="514" 
d="M453 237l-373 -5c4 -137 80 -222 201 -222c67 0 123 22 166 52l8 -13c-42 -36 -101 -57 -174 -57c-139 0 -221 100 -221 251c0 147 87 245 216 245c116 0 183 -79 183 -225zM152 432c-42 -46 -71 -105 -72 -182l360 7c0 139 -63 212 -164 213c-37 0 -80 -11 -124 -38z
M311 640c0 -20 -17 -37 -37 -37s-37 17 -37 37s17 37 37 37s37 -17 37 -37z" />
    <glyph glyph-name="Eogonek" unicode="&#x118;" horiz-adv-x="587" 
d="M71 0l1 10l94 5v670l-96 5l1 10h446l-3 -162l-12 1l-6 145h-310v-322h216l9 93l12 -1v-194l-12 1l-9 85h-216v-330h327l5 149l12 -1l2 -164c-30 -33 -56 -67 -61 -119c11 -23 29 -26 61 -31c0 -4 -1 -9 -1 -13c-54 0 -76 23 -76 49c0 42 24 78 57 114h-441z" />
    <glyph glyph-name="eogonek" unicode="&#x119;" horiz-adv-x="514" 
d="M453 237l-373 -5c4 -137 80 -222 201 -222c67 0 123 22 166 52l8 -13c-55 -48 -79 -81 -81 -133c11 -23 29 -26 61 -31c0 -4 -1 -9 -1 -13c-54 0 -76 23 -76 49c0 33 15 63 38 92c-33 -14 -71 -21 -115 -21c-139 0 -221 100 -221 251c0 147 87 245 216 245
c116 0 183 -79 183 -225zM152 432c-42 -46 -71 -105 -72 -182l360 7c0 139 -63 212 -164 213c-37 0 -80 -11 -124 -38z" />
    <glyph glyph-name="Ecaron" unicode="&#x11a;" horiz-adv-x="587" 
d="M71 0l1 10l94 5v670l-96 5l1 10h446l-3 -162l-12 1l-6 145h-310v-322h216l9 93l12 -1v-194l-12 1l-9 85h-216v-330h327l5 149l12 -1l2 -164h-461zM336 812l113 140l18 -5l-121 -157h-20l-121 157l18 5z" />
    <glyph glyph-name="ecaron" unicode="&#x11b;" horiz-adv-x="514" 
d="M453 237l-373 -5c4 -137 80 -222 201 -222c67 0 123 22 166 52l8 -13c-42 -36 -101 -57 -174 -57c-139 0 -221 100 -221 251c0 147 87 245 216 245c116 0 183 -79 183 -225zM152 432c-42 -46 -71 -105 -72 -182l360 7c0 139 -63 212 -164 213c-37 0 -80 -11 -124 -38z
M275 592l113 140l18 -5l-121 -157h-20l-121 157l18 5z" />
    <glyph glyph-name="Gcircumflex" unicode="&#x11c;" horiz-adv-x="747" 
d="M602 0l-5 67c-54 -45 -125 -75 -215 -75c-188 0 -312 143 -312 356c0 237 145 360 345 360c74 0 153 -20 204 -43l7 -14l-16 -140l-14 1l9 139c-40 21 -121 39 -190 39s-118 -11 -181 -38c-103 -70 -144 -173 -144 -305c0 -204 114 -337 292 -337c89 0 155 26 214 80v177
l-160 6v11h260v-13l-80 -4v-267h-14zM402 919l-113 -140l-18 5l121 157h20l121 -157l-18 -5z" />
    <glyph glyph-name="gcircumflex" unicode="&#x11d;" horiz-adv-x="536" 
d="M241 488c55 0 98 -17 127 -47l50 28l17 84h14l-12 -95l-61 -26c22 -27 33 -64 33 -108c0 -108 -64 -167 -166 -167c-45 0 -76 10 -98 23c-31 -45 -46 -81 -46 -110c0 -38 20 -60 70 -60h208c76 0 109 -26 109 -84c0 -98 -96 -163 -239 -163c-128 0 -189 56 -189 128
c0 52 20 84 48 114c-19 13 -27 36 -27 65c0 32 15 74 50 121c-39 30 -55 79 -55 130c0 93 64 167 167 167zM375 -8h-215c-14 0 -27 2 -37 5c-30 -31 -45 -66 -45 -107c0 -60 58 -109 170 -109c133 0 219 55 219 145c0 45 -23 66 -92 66zM241 470c-28 0 -60 -9 -96 -27
c-32 -32 -51 -69 -51 -123c0 -89 54 -146 148 -146c44 0 76 10 110 33c25 29 37 57 37 117c0 92 -56 146 -148 146zM245 699l-113 -140l-18 5l121 157h20l121 -157l-18 -5z" />
    <glyph glyph-name="Gbreve" unicode="&#x11e;" horiz-adv-x="747" 
d="M602 0l-5 67c-54 -45 -125 -75 -215 -75c-188 0 -312 143 -312 356c0 237 145 360 345 360c74 0 153 -20 204 -43l7 -14l-16 -140l-14 1l9 139c-40 21 -121 39 -190 39s-118 -11 -181 -38c-103 -70 -144 -173 -144 -305c0 -204 114 -337 292 -337c89 0 155 26 214 80v177
l-160 6v11h260v-13l-80 -4v-267h-14zM287 914h16c8 -55 45 -86 99 -86c48 0 85 27 98 86h14l3 -10c-14 -57 -60 -94 -115 -94c-60 0 -107 36 -118 95z" />
    <glyph glyph-name="gbreve" unicode="&#x11f;" horiz-adv-x="536" 
d="M241 488c55 0 98 -17 127 -47l50 28l17 84h14l-12 -95l-61 -26c22 -27 33 -64 33 -108c0 -108 -64 -167 -166 -167c-45 0 -76 10 -98 23c-31 -45 -46 -81 -46 -110c0 -38 20 -60 70 -60h208c76 0 109 -26 109 -84c0 -98 -96 -163 -239 -163c-128 0 -189 56 -189 128
c0 52 20 84 48 114c-19 13 -27 36 -27 65c0 32 15 74 50 121c-39 30 -55 79 -55 130c0 93 64 167 167 167zM375 -8h-215c-14 0 -27 2 -37 5c-30 -31 -45 -66 -45 -107c0 -60 58 -109 170 -109c133 0 219 55 219 145c0 45 -23 66 -92 66zM241 470c-28 0 -60 -9 -96 -27
c-32 -32 -51 -69 -51 -123c0 -89 54 -146 148 -146c44 0 76 10 110 33c25 29 37 57 37 117c0 92 -56 146 -148 146zM130 694h16c8 -55 45 -86 99 -86c48 0 85 27 98 86h14l3 -10c-14 -57 -60 -94 -115 -94c-60 0 -107 36 -118 95z" />
    <glyph glyph-name="Gdotaccent" unicode="&#x120;" horiz-adv-x="747" 
d="M602 0l-5 67c-54 -45 -125 -75 -215 -75c-188 0 -312 143 -312 356c0 237 145 360 345 360c74 0 153 -20 204 -43l7 -14l-16 -140l-14 1l9 139c-40 21 -121 39 -190 39s-118 -11 -181 -38c-103 -70 -144 -173 -144 -305c0 -204 114 -337 292 -337c89 0 155 26 214 80v177
l-160 6v11h260v-13l-80 -4v-267h-14zM439 860c0 -20 -17 -37 -37 -37s-37 17 -37 37s17 37 37 37s37 -17 37 -37z" />
    <glyph glyph-name="gdotaccent" unicode="&#x121;" horiz-adv-x="536" 
d="M241 488c55 0 98 -17 127 -47l50 28l17 84h14l-12 -95l-61 -26c22 -27 33 -64 33 -108c0 -108 -64 -167 -166 -167c-45 0 -76 10 -98 23c-31 -45 -46 -81 -46 -110c0 -38 20 -60 70 -60h208c76 0 109 -26 109 -84c0 -98 -96 -163 -239 -163c-128 0 -189 56 -189 128
c0 52 20 84 48 114c-19 13 -27 36 -27 65c0 32 15 74 50 121c-39 30 -55 79 -55 130c0 93 64 167 167 167zM375 -8h-215c-14 0 -27 2 -37 5c-30 -31 -45 -66 -45 -107c0 -60 58 -109 170 -109c133 0 219 55 219 145c0 45 -23 66 -92 66zM241 470c-28 0 -60 -9 -96 -27
c-32 -32 -51 -69 -51 -123c0 -89 54 -146 148 -146c44 0 76 10 110 33c25 29 37 57 37 117c0 92 -56 146 -148 146zM282 640c0 -20 -17 -37 -37 -37s-37 17 -37 37s17 37 37 37s37 -17 37 -37z" />
    <glyph glyph-name="Gcommaaccent" unicode="&#x122;" horiz-adv-x="747" 
d="M602 0l-5 67c-54 -45 -125 -75 -215 -75c-188 0 -312 143 -312 356c0 237 145 360 345 360c74 0 153 -20 204 -43l7 -14l-16 -140l-14 1l9 139c-40 21 -121 39 -190 39s-118 -11 -181 -38c-103 -70 -144 -173 -144 -305c0 -204 114 -337 292 -337c89 0 155 26 214 80v177
l-160 6v11h260v-13l-80 -4v-267h-14zM418 -106c0 -22 -21 -59 -49 -88l-13 13c14 16 27 34 33 51c-15 0 -28 13 -28 28c0 16 13 29 28 29c16 0 29 -13 29 -33z" />
    <glyph glyph-name="gcommaaccent" unicode="&#x123;" horiz-adv-x="536" 
d="M241 488c55 0 98 -17 127 -47l50 28l17 84h14l-12 -95l-61 -26c22 -27 33 -64 33 -108c0 -108 -64 -167 -166 -167c-45 0 -76 10 -98 23c-31 -45 -46 -81 -46 -110c0 -38 20 -60 70 -60h208c76 0 109 -26 109 -84c0 -98 -96 -163 -239 -163c-128 0 -189 56 -189 128
c0 52 20 84 48 114c-19 13 -27 36 -27 65c0 32 15 74 50 121c-39 30 -55 79 -55 130c0 93 64 167 167 167zM375 -8h-215c-14 0 -27 2 -37 5c-30 -31 -45 -66 -45 -107c0 -60 58 -109 170 -109c133 0 219 55 219 145c0 45 -23 66 -92 66zM241 470c-28 0 -60 -9 -96 -27
c-32 -32 -51 -69 -51 -123c0 -89 54 -146 148 -146c44 0 76 10 110 33c25 29 37 57 37 117c0 92 -56 146 -148 146zM214 614c0 22 21 59 49 88l13 -13c-14 -16 -27 -34 -33 -51c15 0 28 -13 28 -28c0 -16 -13 -29 -28 -29c-16 0 -29 13 -29 33z" />
    <glyph glyph-name="Hcircumflex" unicode="&#x124;" horiz-adv-x="753" 
d="M702 0h-192l1 10l84 5v334h-438v-334l88 -5l-1 -10h-194l1 10l86 5v670l-79 5l1 10h182l-1 -10l-83 -5v-318h438v318l-82 5l1 10h185l-1 -10l-83 -5v-670l88 -5zM379 919l-113 -140l-18 5l121 157h20l121 -157l-18 -5z" />
    <glyph glyph-name="hcircumflex" unicode="&#x125;" horiz-adv-x="617" 
d="M243 0h-187l1 10l80 5v747h-87v11l83 7h21l3 -25v-362c39 62 91 95 168 95c131 0 176 -77 176 -186v-287l86 -5l-1 -10h-105v300c0 101 -40 169 -156 169c-38 0 -69 -9 -97 -21c-27 -24 -54 -56 -71 -90v-343l87 -5zM126 956l-113 -140l-18 5l121 157h20l121 -157l-18 -5
z" />
    <glyph glyph-name="Hbar" unicode="&#x126;" horiz-adv-x="753" 
d="M60 518v17h77v150l-79 5l1 10h182l-1 -10l-83 -5v-150h438v150l-82 5l1 10h185l-1 -10l-83 -5v-150h83v-17h-83v-503l88 -5l-1 -10h-192l1 10l84 5v334h-438v-334l88 -5l-1 -10h-194l1 10l86 5v503h-77zM157 518v-151h438v151h-438z" />
    <glyph glyph-name="hbar" unicode="&#x127;" horiz-adv-x="617" 
d="M51 600v18h86v144h-87v11l83 7h21l3 -25v-137h183v-18h-183v-207c39 62 91 95 168 95c131 0 176 -77 176 -186v-287l86 -5l-1 -10h-105v300c0 101 -40 169 -156 169c-41 0 -71 -10 -100 -23c-30 -25 -51 -53 -68 -88v-343l87 -5l-1 -10h-187l1 10l80 5v585h-86z" />
    <glyph glyph-name="Itilde" unicode="&#x128;" horiz-adv-x="376" 
d="M295 0h-214l1 10l93 5v670l-95 5l1 10h210l-1 -10l-93 -5v-670l99 -5zM18 826l-14 8c31 37 62 68 85 68c44 0 158 -70 202 -70l64 65l14 -7c-23 -31 -61 -73 -85 -73c-59 0 -161 69 -209 69z" />
    <glyph glyph-name="itilde" unicode="&#x129;" horiz-adv-x="292" 
d="M-21 606l-14 8c31 37 62 68 85 68c44 0 158 -70 202 -70l64 65l14 -7c-23 -31 -61 -73 -85 -73c-59 0 -161 69 -209 69zM241 0h-173l1 10l73 5v450l-82 5l1 10h98l3 -21v-444l80 -5z" />
    <glyph glyph-name="Imacron" unicode="&#x12a;" horiz-adv-x="376" 
d="M295 0h-214l1 10l93 5v670l-95 5l1 10h210l-1 -10l-93 -5v-670l99 -5zM19 839v18h328v-18h-328z" />
    <glyph glyph-name="imacron" unicode="&#x12b;" horiz-adv-x="292" 
d="M-20 619v18h328v-18h-328zM241 0h-173l1 10l73 5v450l-82 5l1 10h98l3 -21v-444l80 -5z" />
    <glyph glyph-name="Ibreve" unicode="&#x12c;" horiz-adv-x="376" 
d="M295 0h-214l1 10l93 5v670l-95 5l1 10h210l-1 -10l-93 -5v-670l99 -5zM71 914h16c8 -55 45 -86 99 -86c48 0 85 27 98 86h14l3 -10c-14 -57 -60 -94 -115 -94c-60 0 -107 36 -118 95z" />
    <glyph glyph-name="ibreve" unicode="&#x12d;" horiz-adv-x="292" 
d="M32 694h16c8 -55 45 -86 99 -86c48 0 85 27 98 86h14l3 -10c-14 -57 -60 -94 -115 -94c-60 0 -107 36 -118 95zM241 0h-173l1 10l73 5v450l-82 5l1 10h98l3 -21v-444l80 -5z" />
    <glyph glyph-name="Iogonek" unicode="&#x12e;" horiz-adv-x="376" 
d="M295 0h-98c-39 -43 -59 -74 -61 -119c11 -23 29 -26 61 -31l-1 -13c-54 0 -76 23 -76 49c0 42 24 78 57 114h-96l1 10l93 5v670l-95 5l1 10h210l-1 -10l-93 -5v-670l99 -5z" />
    <glyph glyph-name="iogonek" unicode="&#x12f;" horiz-adv-x="292" 
d="M241 0h-76c-39 -43 -59 -74 -61 -119c11 -23 29 -26 61 -31l-1 -13c-50 0 -76 19 -76 51c0 45 32 85 57 112h-77l1 10l73 5v450l-82 5l1 10h98l3 -21v-444l80 -5zM115 644c0 12 13 28 27 28s29 -16 29 -29s-15 -28 -28 -28c-14 0 -28 14 -28 29z" />
    <glyph glyph-name="Idotaccent" unicode="&#x130;" horiz-adv-x="376" 
d="M295 0h-214l1 10l93 5v670l-95 5l1 10h210l-1 -10l-93 -5v-670l99 -5zM223 860c0 -20 -17 -37 -37 -37s-37 17 -37 37s17 37 37 37s37 -17 37 -37z" />
    <glyph glyph-name="dotlessi" unicode="&#x131;" horiz-adv-x="292" 
d="M241 0h-173l1 10l73 5v450l-82 5l1 10h98l3 -21v-444l80 -5z" />
    <glyph glyph-name="IJ" unicode="&#x132;" horiz-adv-x="722" 
d="M295 0h-214l1 10l93 5v670l-95 5l1 10h210l-1 -10l-93 -5v-670l99 -5zM522 74v611l-99 5l1 10h218l-1 -10l-97 -5v-606c0 -93 -23 -143 -105 -205l-10 11c72 58 93 105 93 189z" />
    <glyph glyph-name="ij" unicode="&#x133;" horiz-adv-x="568" 
d="M241 0h-173l1 10l73 5v450l-82 5l1 10h98l3 -21v-444l80 -5zM115 644c0 12 13 28 27 28s29 -16 29 -29s-15 -28 -28 -28c-14 0 -28 14 -28 29zM345 -149l-8 12c58 36 92 78 92 174v428l-82 5l1 10h98l3 -21v-417c0 -90 -28 -148 -104 -191zM402 644c0 12 13 28 27 28
s29 -16 29 -29s-15 -28 -28 -28c-14 0 -28 14 -28 29z" />
    <glyph glyph-name="Jcircumflex" unicode="&#x134;" horiz-adv-x="376" 
d="M176 74v611l-99 5l1 10h218l-1 -10l-97 -5v-606c0 -93 -23 -143 -105 -205l-10 11c72 58 93 105 93 189zM187 918l-113 -140l-18 5l121 157h20l121 -157l-18 -5z" />
    <glyph glyph-name="jcircumflex" unicode="&#x135;" horiz-adv-x="281" 
d="M55 -149l-8 12c58 36 92 78 92 174v428l-82 5l1 10h98l3 -21v-417c0 -90 -28 -148 -104 -191zM133 699l-113 -140l-18 5l121 157h20l121 -157l-18 -5z" />
    <glyph glyph-name="Kcommaaccent" unicode="&#x136;" horiz-adv-x="666" 
d="M283 0h-203l1 10l84 5v670l-95 5l1 10h207l-1 -10l-90 -5v-325h33l304 325l-74 5l1 10h165l-1 -10l-66 -5l-309 -329v-7c74 -89 244 -265 344 -334l62 -5l-1 -10h-73c-101 75 -268 246 -352 343h-33v-328l97 -5zM387 -106c0 -22 -21 -59 -49 -88l-13 13
c14 16 27 34 33 51c-15 0 -28 13 -28 28c0 16 13 29 28 29c16 0 29 -13 29 -33z" />
    <glyph glyph-name="kcommaaccent" unicode="&#x137;" horiz-adv-x="527" 
d="M243 0h-187l1 10l80 5v747h-87v11l83 7h21l3 -25v-491h38l178 201l-63 5l1 10h143l-1 -10l-56 -5l-183 -205v-8c53 -73 147 -172 219 -237l74 -5l-1 -10h-83c-76 67 -169 168 -228 246h-38v-231l87 -5zM325 -106c0 -22 -21 -59 -49 -88l-13 13c14 16 27 34 33 51
c-15 0 -28 13 -28 28c0 16 13 29 28 29c16 0 29 -13 29 -33z" />
    <glyph glyph-name="kgreenlandic" unicode="&#x138;" horiz-adv-x="527" 
d="M243 0h-187l1 10l80 5v447h-87v11l83 7h21l3 -25v-200h38l178 210l-63 5l1 10h143l-1 -10l-56 -5l-183 -214v-8c53 -73 147 -163 219 -228l74 -5l-1 -10h-83c-76 67 -169 159 -228 237h-38v-222l87 -5z" />
    <glyph glyph-name="Lacute" unicode="&#x139;" horiz-adv-x="536" 
d="M511 0h-441l1 10l94 5v670l-83 5l1 10h213l-1 -10l-110 -5v-669h305l7 169l13 -1zM155 779l-18 5l121 157l24 -5z" />
    <glyph glyph-name="lacute" unicode="&#x13a;" horiz-adv-x="304" 
d="M253 0h-187l1 10l80 5v747h-87v11l83 7h21l3 -25v-740l87 -5zM130 829l-18 5l121 157l24 -5z" />
    <glyph glyph-name="Lcommaaccent" unicode="&#x13b;" horiz-adv-x="536" 
d="M511 0h-441l1 10l94 5v670l-83 5l1 10h213l-1 -10l-110 -5v-669h305l7 169l13 -1zM335 -106c0 -22 -21 -59 -49 -88l-13 13c14 16 27 34 33 51c-15 0 -28 13 -28 28c0 16 13 29 28 29c16 0 29 -13 29 -33z" />
    <glyph glyph-name="lcommaaccent" unicode="&#x13c;" horiz-adv-x="304" 
d="M253 0h-187l1 10l80 5v747h-87v11l83 7h21l3 -25v-740l87 -5zM188 -106c0 -22 -21 -59 -49 -88l-13 13c14 16 27 34 33 51c-15 0 -28 13 -28 28c0 16 13 29 28 29c16 0 29 -13 29 -33z" />
    <glyph glyph-name="Lcaron" unicode="&#x13d;" horiz-adv-x="536" 
d="M511 0h-441l1 10l94 5v670l-83 5l1 10h213l-1 -10l-110 -5v-669h305l7 169l13 -1zM448 646c0 -22 -21 -59 -49 -88l-13 13c14 16 27 34 33 51c-15 0 -28 13 -28 28c0 16 13 29 28 29c16 0 29 -13 29 -33z" />
    <glyph glyph-name="lcaron" unicode="&#x13e;" horiz-adv-x="304" 
d="M253 0h-187l1 10l80 5v747h-87v11l83 7h21l3 -25v-740l87 -5zM331 696c0 -22 -21 -59 -49 -88l-13 13c14 16 27 34 33 51c-15 0 -28 13 -28 28c0 16 13 29 28 29c16 0 29 -13 29 -33z" />
    <glyph glyph-name="Ldot" unicode="&#x13f;" horiz-adv-x="536" 
d="M511 0h-441l1 10l94 5v670l-83 5l1 10h213l-1 -10l-110 -5v-669h305l7 169l13 -1zM472 358c0 -20 -17 -37 -37 -37s-37 17 -37 37s17 37 37 37s37 -17 37 -37z" />
    <glyph glyph-name="ldot" unicode="&#x140;" horiz-adv-x="304" 
d="M253 0h-187l1 10l80 5v747h-87v11l83 7h21l3 -25v-740l87 -5zM344 355c0 -20 -17 -37 -37 -37s-37 17 -37 37s17 37 37 37s37 -17 37 -37z" />
    <glyph glyph-name="Lslash" unicode="&#x141;" horiz-adv-x="536" 
d="M70 0l1 10l94 5v262l-111 -58l-10 18l121 62v386l-83 5l1 10h213l-1 -10l-110 -5v-375l169 87l9 -17l-178 -93v-271h305l7 169l13 -1l1 -184h-441z" />
    <glyph glyph-name="lslash" unicode="&#x142;" horiz-adv-x="304" 
d="M253 0h-187l1 10l80 5v307l-135 -70l-10 18l145 75v417h-87v11l83 7h21l3 -25v-400l145 75l9 -17l-154 -80v-318l87 -5z" />
    <glyph glyph-name="Nacute" unicode="&#x143;" horiz-adv-x="865" 
d="M71 700h121l502 -669v654l-96 5l1 10h211l-1 -10l-95 -5v-685h-19l-504 670v-655l107 -5l-1 -10h-225l1 10l98 5v670l-101 5zM423 779l-18 5l121 157l24 -5z" />
    <glyph glyph-name="nacute" unicode="&#x144;" horiz-adv-x="607" 
d="M226 0h-172l1 10l72 5v447h-87v12l84 6h18l5 -32v-55c39 62 91 95 168 95c131 0 176 -77 176 -186v-287l86 -5l-1 -10h-105v300c0 101 -40 169 -156 169c-38 0 -69 -9 -96 -21c-28 -23 -54 -55 -72 -90v-343l80 -5zM290 559l-18 5l121 157l24 -5z" />
    <glyph glyph-name="Ncommaaccent" unicode="&#x145;" horiz-adv-x="865" 
d="M71 700h121l502 -669v654l-96 5l1 10h211l-1 -10l-95 -5v-685h-19l-504 670v-655l107 -5l-1 -10h-225l1 10l98 5v670l-101 5zM469 -106c0 -22 -21 -59 -49 -88l-13 13c14 16 27 34 33 51c-15 0 -28 13 -28 28c0 16 13 29 28 29c16 0 29 -13 29 -33z" />
    <glyph glyph-name="ncommaaccent" unicode="&#x146;" horiz-adv-x="607" 
d="M226 0h-172l1 10l72 5v447h-87v12l84 6h18l5 -32v-55c39 62 91 95 168 95c131 0 176 -77 176 -186v-287l86 -5l-1 -10h-105v300c0 101 -40 169 -156 169c-38 0 -69 -9 -96 -21c-28 -23 -54 -55 -72 -90v-343l80 -5zM348 -106c0 -22 -21 -59 -49 -88l-13 13
c14 16 27 34 33 51c-15 0 -28 13 -28 28c0 16 13 29 28 29c16 0 29 -13 29 -33z" />
    <glyph glyph-name="Ncaron" unicode="&#x147;" horiz-adv-x="865" 
d="M71 700h121l502 -669v654l-96 5l1 10h211l-1 -10l-95 -5v-685h-19l-504 670v-655l107 -5l-1 -10h-225l1 10l98 5v670l-101 5zM445 812l113 140l18 -5l-121 -157h-20l-121 157l18 5z" />
    <glyph glyph-name="ncaron" unicode="&#x148;" horiz-adv-x="607" 
d="M226 0h-172l1 10l72 5v447h-87v12l84 6h18l5 -32v-55c39 62 91 95 168 95c131 0 176 -77 176 -186v-287l86 -5l-1 -10h-105v300c0 101 -40 169 -156 169c-38 0 -69 -9 -96 -21c-28 -23 -54 -55 -72 -90v-343l80 -5zM312 592l113 140l18 -5l-121 -157h-20l-121 157l18 5z
" />
    <glyph glyph-name="napostrophe" unicode="&#x149;" horiz-adv-x="673" 
d="M292 0h-172l1 10l72 5v447h-87v12l84 6h18l5 -32v-55c39 62 91 95 168 95c131 0 176 -77 176 -186v-287l86 -5l-1 -10h-105v300c0 101 -40 169 -156 169c-38 0 -69 -9 -96 -21c-28 -23 -54 -55 -72 -90v-343l80 -5zM86 646c0 -22 -21 -59 -49 -88l-13 13
c14 16 27 34 33 51c-15 0 -28 13 -28 28c0 16 13 29 28 29c16 0 29 -13 29 -33z" />
    <glyph glyph-name="Eng" unicode="&#x14a;" horiz-adv-x="865" 
d="M694 1l-503 669v-655l107 -5l-1 -10h-225l1 10l98 5v670l-101 5l1 10h121l502 -669v654l-96 5l1 10h211l-1 -10l-95 -5v-655c0 -93 -23 -143 -105 -205l-10 11c72 58 95 118 95 165z" />
    <glyph glyph-name="eng" unicode="&#x14b;" horiz-adv-x="607" 
d="M147 358v-343l80 -5l-1 -10h-172l1 10l72 5v447h-87v12l84 6h18l5 -32v-55c33 51 78 95 168 95c131 0 176 -77 176 -186v-260c0 -90 -28 -148 -104 -191l-8 12c58 36 92 78 92 174v263c0 101 -40 169 -156 169c-42 0 -75 -11 -98 -21c-29 -26 -47 -47 -70 -90z" />
    <glyph glyph-name="Omacron" unicode="&#x14c;" horiz-adv-x="794" 
d="M392 708c216 0 332 -148 332 -358c0 -228 -126 -358 -331 -358c-182 0 -323 135 -323 349c0 224 135 367 322 367zM390 688c-84 0 -143 -26 -203 -73c-54 -65 -97 -145 -97 -275c0 -195 133 -328 303 -328c102 0 168 29 232 84c47 67 79 141 79 253
c0 200 -108 339 -314 339zM223 839v18h328v-18h-328z" />
    <glyph glyph-name="omacron" unicode="&#x14d;" horiz-adv-x="549" 
d="M282 488c112 0 207 -83 207 -251c0 -147 -69 -245 -206 -245c-150 0 -223 103 -223 248c0 162 94 248 222 248zM279 470c-54 0 -87 -13 -125 -37c-50 -51 -72 -110 -72 -194c0 -130 65 -229 201 -229c39 0 83 12 127 42c39 52 58 94 58 186c0 149 -85 232 -189 232z
M113 619v18h328v-18h-328z" />
    <glyph glyph-name="Obreve" unicode="&#x14e;" horiz-adv-x="794" 
d="M392 708c216 0 332 -148 332 -358c0 -228 -126 -358 -331 -358c-182 0 -323 135 -323 349c0 224 135 367 322 367zM390 688c-84 0 -143 -26 -203 -73c-54 -65 -97 -145 -97 -275c0 -195 133 -328 303 -328c102 0 168 29 232 84c47 67 79 141 79 253
c0 200 -108 339 -314 339zM275 914h16c8 -55 45 -86 99 -86c48 0 85 27 98 86h14l3 -10c-14 -57 -60 -94 -115 -94c-60 0 -107 36 -118 95z" />
    <glyph glyph-name="obreve" unicode="&#x14f;" horiz-adv-x="549" 
d="M282 488c112 0 207 -83 207 -251c0 -147 -69 -245 -206 -245c-150 0 -223 103 -223 248c0 162 94 248 222 248zM279 470c-54 0 -87 -13 -125 -37c-50 -51 -72 -110 -72 -194c0 -130 65 -229 201 -229c39 0 83 12 127 42c39 52 58 94 58 186c0 149 -85 232 -189 232z
M165 694h16c8 -55 45 -86 99 -86c48 0 85 27 98 86h14l3 -10c-14 -57 -60 -94 -115 -94c-60 0 -107 36 -118 95z" />
    <glyph glyph-name="Ohungarumlaut" unicode="&#x150;" horiz-adv-x="794" 
d="M392 708c216 0 332 -148 332 -358c0 -228 -126 -358 -331 -358c-182 0 -323 135 -323 349c0 224 135 367 322 367zM390 688c-84 0 -143 -26 -203 -73c-54 -65 -97 -145 -97 -275c0 -195 133 -328 303 -328c102 0 168 29 232 84c47 67 79 141 79 253
c0 200 -108 339 -314 339zM310 778l-18 3l91 161l26 -4zM462 780l-19 4l121 157l24 -5z" />
    <glyph glyph-name="ohungarumlaut" unicode="&#x151;" horiz-adv-x="549" 
d="M282 488c112 0 207 -83 207 -251c0 -147 -69 -245 -206 -245c-150 0 -223 103 -223 248c0 162 94 248 222 248zM279 470c-54 0 -87 -13 -125 -37c-50 -51 -72 -110 -72 -194c0 -130 65 -229 201 -229c39 0 83 12 127 42c39 52 58 94 58 186c0 149 -85 232 -189 232z
M200 558l-18 3l91 161l26 -4zM352 560l-19 4l121 157l24 -5z" />
    <glyph glyph-name="OE" unicode="&#x152;" horiz-adv-x="946" 
d="M891 0h-351c-47 -6 -92 -8 -147 -8c-182 0 -316 135 -316 349c0 224 128 367 323 367c50 0 99 -4 142 -8h334l-3 -162l-12 1l-6 145h-312v-322h218l9 93l12 -1v-194l-12 1l-9 85h-218v-330h329l5 149l12 -1zM399 688c-91 0 -149 -26 -208 -72c-54 -65 -94 -145 -94 -276
c0 -195 126 -328 296 -328c51 0 89 -2 130 2v667c-40 3 -82 7 -124 7z" />
    <glyph glyph-name="oe" unicode="&#x153;" horiz-adv-x="922" 
d="M861 237l-373 -5c0 -112 71 -222 201 -222c67 0 123 22 166 52l8 -13c-42 -36 -101 -57 -174 -57c-109 0 -182 61 -210 159c-23 -98 -88 -159 -196 -159c-150 0 -223 103 -223 248c0 162 94 248 222 248c90 0 169 -54 196 -162c27 99 103 162 206 162
c116 0 183 -79 183 -225zM279 470c-54 0 -87 -13 -125 -37c-50 -51 -72 -110 -72 -194c0 -130 65 -229 201 -229c39 0 83 12 127 42c39 52 58 94 58 186c0 150 -88 232 -189 232zM560 432c-48 -51 -68 -112 -72 -182l360 7c0 139 -63 212 -164 213c-37 0 -80 -11 -124 -38z
" />
    <glyph glyph-name="Racute" unicode="&#x154;" horiz-adv-x="682" 
d="M280 0h-202l1 10l90 5v670l-96 5l1 10h262c143 0 217 -84 217 -204c0 -104 -75 -172 -178 -188c39 -92 127 -232 183 -293l68 -5l-1 -10h-79c-60 67 -150 213 -193 306c-8 -1 -17 -1 -25 -1h-139v-290l92 -5zM327 683h-138v-360h92c115 0 160 13 212 58
c26 33 43 66 43 114c0 109 -65 188 -209 188zM304 779l-18 5l121 157l24 -5z" />
    <glyph glyph-name="racute" unicode="&#x155;" horiz-adv-x="403" 
d="M226 0h-172l1 10l72 5v447h-87v12l84 6h18c5 -29 5 -56 5 -85c52 56 136 91 222 93l4 -15l-4 -105l-13 1l-3 101c-87 -8 -154 -36 -206 -100v-355l80 -5zM193 559l-18 5l121 157l24 -5z" />
    <glyph glyph-name="Rcommaaccent" unicode="&#x156;" horiz-adv-x="682" 
d="M280 0h-202l1 10l90 5v670l-96 5l1 10h262c143 0 217 -84 217 -204c0 -104 -75 -172 -178 -188c39 -92 127 -232 183 -293l68 -5l-1 -10h-79c-60 67 -150 213 -193 306c-8 -1 -17 -1 -25 -1h-139v-290l92 -5zM327 683h-138v-360h92c115 0 160 13 212 58
c26 33 43 66 43 114c0 109 -65 188 -209 188zM397 -106c0 -22 -21 -59 -49 -88l-13 13c14 16 27 34 33 51c-15 0 -28 13 -28 28c0 16 13 29 28 29c16 0 29 -13 29 -33z" />
    <glyph glyph-name="rcommaaccent" unicode="&#x157;" horiz-adv-x="403" 
d="M226 0h-172l1 10l72 5v447h-87v12l84 6h18c5 -29 5 -56 5 -85c52 56 136 91 222 93l4 -15l-4 -105l-13 1l-3 101c-87 -8 -154 -36 -206 -100v-355l80 -5zM166 -106c0 -22 -21 -59 -49 -88l-13 13c14 16 27 34 33 51c-15 0 -28 13 -28 28c0 16 13 29 28 29
c16 0 29 -13 29 -33z" />
    <glyph glyph-name="Rcaron" unicode="&#x158;" horiz-adv-x="682" 
d="M280 0h-202l1 10l90 5v670l-96 5l1 10h262c143 0 217 -84 217 -204c0 -104 -75 -172 -178 -188c39 -92 127 -232 183 -293l68 -5l-1 -10h-79c-60 67 -150 213 -193 306c-8 -1 -17 -1 -25 -1h-139v-290l92 -5zM327 683h-138v-360h92c115 0 160 13 212 58
c26 33 43 66 43 114c0 109 -65 188 -209 188zM326 812l113 140l18 -5l-121 -157h-20l-121 157l18 5z" />
    <glyph glyph-name="rcaron" unicode="&#x159;" horiz-adv-x="403" 
d="M226 0h-172l1 10l72 5v447h-87v12l84 6h18c5 -29 5 -56 5 -85c52 56 136 91 222 93l4 -15l-4 -105l-13 1l-3 101c-87 -8 -154 -36 -206 -100v-355l80 -5zM215 592l113 140l18 -5l-121 -157h-20l-121 157l18 5z" />
    <glyph glyph-name="Sacute" unicode="&#x15a;" horiz-adv-x="608" 
d="M325 708c59 0 100 -8 153 -23l4 -11l-13 -122l-15 1l6 116c-32 11 -97 21 -135 21c-50 0 -102 -12 -153 -44c-26 -29 -42 -60 -42 -104c0 -92 45 -124 181 -177c143 -56 197 -119 197 -211c0 -83 -72 -162 -219 -162c-89 0 -133 15 -186 38l-3 13l17 182l15 -1l-12 -181
c43 -19 99 -33 169 -33c50 0 106 12 158 46c27 32 41 61 41 98c0 81 -44 140 -180 191c-145 54 -200 100 -200 197c0 103 96 166 217 166zM298 779l-18 5l121 157l24 -5z" />
    <glyph glyph-name="sacute" unicode="&#x15b;" horiz-adv-x="447" 
d="M236 488c61 0 91 -9 130 -21l2 -11l-13 -95l-16 2l7 91c-29 10 -70 16 -112 16c-32 0 -66 -8 -102 -27c-21 -23 -25 -42 -25 -69c0 -53 45 -85 129 -123c88 -40 141 -68 141 -141s-53 -118 -155 -118c-69 0 -121 15 -149 28l-3 22l17 106l14 -1l-10 -113
c28 -14 80 -24 131 -24c37 0 75 5 110 24c16 20 25 42 25 76c0 42 -21 78 -129 124c-91 39 -143 71 -143 137c0 88 88 117 151 117zM214 559l-18 5l121 157l24 -5z" />
    <glyph glyph-name="Scircumflex" unicode="&#x15c;" horiz-adv-x="608" 
d="M325 708c59 0 100 -8 153 -23l4 -11l-13 -122l-15 1l6 116c-32 11 -97 21 -135 21c-50 0 -102 -12 -153 -44c-26 -29 -42 -60 -42 -104c0 -92 45 -124 181 -177c143 -56 197 -119 197 -211c0 -83 -72 -162 -219 -162c-89 0 -133 15 -186 38l-3 13l17 182l15 -1l-12 -181
c43 -19 99 -33 169 -33c50 0 106 12 158 46c27 32 41 61 41 98c0 81 -44 140 -180 191c-145 54 -200 100 -200 197c0 103 96 166 217 166zM319 919l-113 -140l-18 5l121 157h20l121 -157l-18 -5z" />
    <glyph glyph-name="scircumflex" unicode="&#x15d;" horiz-adv-x="447" 
d="M236 488c61 0 91 -9 130 -21l2 -11l-13 -95l-16 2l7 91c-29 10 -70 16 -112 16c-32 0 -66 -8 -102 -27c-21 -23 -25 -42 -25 -69c0 -53 45 -85 129 -123c88 -40 141 -68 141 -141s-53 -118 -155 -118c-69 0 -121 15 -149 28l-3 22l17 106l14 -1l-10 -113
c28 -14 80 -24 131 -24c37 0 75 5 110 24c16 20 25 42 25 76c0 42 -21 78 -129 124c-91 39 -143 71 -143 137c0 88 88 117 151 117zM235 699l-113 -140l-18 5l121 157h20l121 -157l-18 -5z" />
    <glyph glyph-name="Scedilla" unicode="&#x15e;" horiz-adv-x="608" 
d="M325 708c59 0 100 -8 153 -23l4 -11l-13 -122l-15 1l6 116c-32 11 -97 21 -135 21c-50 0 -102 -12 -153 -44c-26 -29 -42 -60 -42 -104c0 -92 45 -124 181 -177c143 -56 197 -119 197 -211c0 -79 -65 -154 -197 -161l-42 -64c49 0 78 -24 78 -52c0 -48 -37 -76 -93 -97
l-7 17c49 17 80 41 80 78c0 23 -23 38 -73 38l-7 13l42 66c-89 0 -133 15 -186 38l-3 13l17 182l15 -1l-12 -181c43 -19 99 -33 169 -33c50 0 106 12 158 46c27 32 41 61 41 98c0 81 -44 140 -180 191c-145 54 -200 100 -200 197c0 103 96 166 217 166z" />
    <glyph glyph-name="Scaron" unicode="&#x160;" horiz-adv-x="608" 
d="M325 708c59 0 100 -8 153 -23l4 -11l-13 -122l-15 1l6 116c-32 11 -97 21 -135 21c-50 0 -102 -12 -153 -44c-26 -29 -42 -60 -42 -104c0 -92 45 -124 181 -177c143 -56 197 -119 197 -211c0 -83 -72 -162 -219 -162c-89 0 -133 15 -186 38l-3 13l17 182l15 -1l-12 -181
c43 -19 99 -33 169 -33c50 0 106 12 158 46c27 32 41 61 41 98c0 81 -44 140 -180 191c-145 54 -200 100 -200 197c0 103 96 166 217 166zM320 812l113 140l18 -5l-121 -157h-20l-121 157l18 5z" />
    <glyph glyph-name="scaron" unicode="&#x161;" horiz-adv-x="447" 
d="M236 488c61 0 91 -9 130 -21l2 -11l-13 -95l-16 2l7 91c-29 10 -70 16 -112 16c-32 0 -66 -8 -102 -27c-21 -23 -25 -42 -25 -69c0 -53 45 -85 129 -123c88 -40 141 -68 141 -141s-53 -118 -155 -118c-69 0 -121 15 -149 28l-3 22l17 106l14 -1l-10 -113
c28 -14 80 -24 131 -24c37 0 75 5 110 24c16 20 25 42 25 76c0 42 -21 78 -129 124c-91 39 -143 71 -143 137c0 88 88 117 151 117zM236 592l113 140l18 -5l-121 -157h-20l-121 157l18 5z" />
    <glyph glyph-name="Tcommaaccent" unicode="&#x162;" horiz-adv-x="612" 
d="M30 700h552l-3 -165l-12 1l-5 147h-246v-668l105 -5l-1 -10h-228l1 10l103 5v668h-247l-4 -148l-12 -1zM334 -106c0 -22 -21 -59 -49 -88l-13 13c14 16 27 34 33 51c-15 0 -28 13 -28 28c0 16 13 29 28 29c16 0 29 -13 29 -33z" />
    <glyph glyph-name="tcommaaccent" unicode="&#x163;" horiz-adv-x="348" 
d="M317 16l1 -7c-30 -6 -54 -9 -84 -9c-61 0 -94 42 -94 108v357l-100 3l1 12h99l8 147l12 1v-148h151l-1 -12l-150 -3v-366c0 -55 34 -83 73 -83h84zM220 -106c0 -22 -21 -59 -49 -88l-13 13c14 16 27 34 33 51c-15 0 -28 13 -28 28c0 16 13 29 28 29c16 0 29 -13 29 -33z
" />
    <glyph glyph-name="Tcaron" unicode="&#x164;" horiz-adv-x="612" 
d="M30 700h552l-3 -165l-12 1l-5 147h-246v-668l105 -5l-1 -10h-228l1 10l103 5v668h-247l-4 -148l-12 -1zM307 812l113 140l18 -5l-121 -157h-20l-121 157l18 5z" />
    <glyph glyph-name="tcaron" unicode="&#x165;" horiz-adv-x="365" 
d="M327 16l1 -7c-30 -6 -54 -9 -84 -9c-61 0 -94 42 -94 108v357l-100 3l1 12h99l8 147l12 1v-148h151l-1 -12l-150 -3v-366c0 -55 34 -83 73 -83h84zM324 695c0 -22 -21 -59 -49 -88l-13 13c14 16 27 34 33 51c-15 0 -28 13 -28 28c0 16 13 29 28 29c16 0 29 -13 29 -33z
" />
    <glyph glyph-name="Tbar" unicode="&#x166;" horiz-adv-x="612" 
d="M30 700h552l-3 -165l-12 1l-5 147h-246v-317h201v-18h-201v-333l105 -5l-1 -10h-228l1 10l103 5v333h-204v18h204v317h-247l-4 -148l-12 -1z" />
    <glyph glyph-name="tbar" unicode="&#x167;" horiz-adv-x="348" 
d="M49 254v18h91v193l-100 3l1 12h99l8 147l12 1v-148h151l-1 -12l-150 -3v-193h146v-18h-146v-155c0 -55 34 -83 73 -83h84l1 -7c-30 -6 -54 -9 -84 -9c-61 0 -94 42 -94 108v146h-91z" />
    <glyph glyph-name="Utilde" unicode="&#x168;" horiz-adv-x="771" 
d="M629 685v-421c0 -177 -47 -272 -233 -272c-180 0 -240 97 -240 272v421l-90 5l1 10h195l-1 -10l-85 -5v-413c0 -174 51 -262 220 -262c71 0 124 16 168 53c33 49 47 102 47 209v413l-85 5l1 10h189l-1 -10zM227 826l-14 8c31 37 62 68 85 68c44 0 158 -70 202 -70l64 65
l14 -7c-23 -31 -61 -73 -85 -73c-59 0 -161 69 -209 69z" />
    <glyph glyph-name="utilde" unicode="&#x169;" horiz-adv-x="627" 
d="M586 0h-92l-6 76c-39 -49 -104 -84 -191 -84c-90 0 -159 63 -159 177v293h-88v10l81 8h23l4 -31v-275c0 -110 63 -164 139 -164c46 0 85 7 132 29c22 20 41 40 59 66v357h-88v10l80 8h25l3 -31v-434l79 -5zM157 606l-14 8c31 37 62 68 85 68c44 0 158 -70 202 -70l64 65
l14 -7c-23 -31 -61 -73 -85 -73c-59 0 -161 69 -209 69z" />
    <glyph glyph-name="Umacron" unicode="&#x16a;" horiz-adv-x="771" 
d="M629 685v-421c0 -177 -47 -272 -233 -272c-180 0 -240 97 -240 272v421l-90 5l1 10h195l-1 -10l-85 -5v-413c0 -174 51 -262 220 -262c71 0 124 16 168 53c33 49 47 102 47 209v413l-85 5l1 10h189l-1 -10zM228 839v18h328v-18h-328z" />
    <glyph glyph-name="umacron" unicode="&#x16b;" horiz-adv-x="627" 
d="M586 0h-92l-6 76c-39 -49 -104 -84 -191 -84c-90 0 -159 63 -159 177v293h-88v10l81 8h23l4 -31v-275c0 -110 63 -164 139 -164c46 0 85 7 132 29c22 20 41 40 59 66v357h-88v10l80 8h25l3 -31v-434l79 -5zM158 619v18h328v-18h-328z" />
    <glyph glyph-name="Ubreve" unicode="&#x16c;" horiz-adv-x="771" 
d="M629 685v-421c0 -177 -47 -272 -233 -272c-180 0 -240 97 -240 272v421l-90 5l1 10h195l-1 -10l-85 -5v-413c0 -174 51 -262 220 -262c71 0 124 16 168 53c33 49 47 102 47 209v413l-85 5l1 10h189l-1 -10zM280 914h16c8 -55 45 -86 99 -86c48 0 85 27 98 86h14l3 -10
c-14 -57 -60 -94 -115 -94c-60 0 -107 36 -118 95z" />
    <glyph glyph-name="ubreve" unicode="&#x16d;" horiz-adv-x="627" 
d="M586 0h-92l-6 76c-39 -49 -104 -84 -191 -84c-90 0 -159 63 -159 177v293h-88v10l81 8h23l4 -31v-275c0 -110 63 -164 139 -164c46 0 85 7 132 29c22 20 41 40 59 66v357h-88v10l80 8h25l3 -31v-434l79 -5zM210 694h16c8 -55 45 -86 99 -86c48 0 85 27 98 86h14l3 -10
c-14 -57 -60 -94 -115 -94c-60 0 -107 36 -118 95z" />
    <glyph glyph-name="Uring" unicode="&#x16e;" horiz-adv-x="771" 
d="M629 685v-421c0 -177 -47 -272 -233 -272c-180 0 -240 97 -240 272v421l-90 5l1 10h195l-1 -10l-85 -5v-413c0 -174 51 -262 220 -262c71 0 124 16 168 53c33 49 47 102 47 209v413l-85 5l1 10h189l-1 -10zM313 868c0 46 36 82 82 82s82 -36 82 -82s-36 -82 -82 -82
s-82 36 -82 82zM331 867c0 -35 30 -64 64 -64s64 29 64 64c0 32 -30 64 -64 64s-64 -29 -64 -64z" />
    <glyph glyph-name="uring" unicode="&#x16f;" horiz-adv-x="627" 
d="M586 0h-92l-6 76c-39 -49 -104 -84 -191 -84c-90 0 -159 63 -159 177v293h-88v10l81 8h23l4 -31v-275c0 -110 63 -164 139 -164c46 0 85 7 132 29c22 20 41 40 59 66v357h-88v10l80 8h25l3 -31v-434l79 -5zM243 648c0 46 36 82 82 82s82 -36 82 -82s-36 -82 -82 -82
s-82 36 -82 82zM261 647c0 -35 30 -64 64 -64s64 29 64 64c0 32 -30 64 -64 64s-64 -29 -64 -64z" />
    <glyph glyph-name="Uhungarumlaut" unicode="&#x170;" horiz-adv-x="771" 
d="M629 685v-421c0 -177 -47 -272 -233 -272c-180 0 -240 97 -240 272v421l-90 5l1 10h195l-1 -10l-85 -5v-413c0 -174 51 -262 220 -262c71 0 124 16 168 53c33 49 47 102 47 209v413l-85 5l1 10h189l-1 -10zM315 778l-18 3l91 161l26 -4zM467 780l-19 4l121 157l24 -5z
" />
    <glyph glyph-name="uhungarumlaut" unicode="&#x171;" horiz-adv-x="627" 
d="M586 0h-92l-6 76c-39 -49 -104 -84 -191 -84c-90 0 -159 63 -159 177v293h-88v10l81 8h23l4 -31v-275c0 -110 63 -164 139 -164c46 0 85 7 132 29c22 20 41 40 59 66v357h-88v10l80 8h25l3 -31v-434l79 -5zM245 558l-18 3l91 161l26 -4zM397 560l-19 4l121 157l24 -5z
" />
    <glyph glyph-name="Uogonek" unicode="&#x172;" horiz-adv-x="771" 
d="M629 685v-368c0 -182 -15 -290 -157 -318c-39 -43 -59 -74 -61 -119c11 -23 29 -26 61 -31c0 -4 -1 -9 -1 -13c-54 0 -76 23 -76 49c0 42 25 78 54 110c-17 -2 -34 -3 -53 -3c-226 0 -240 137 -240 377v316l-90 5l1 10h195l-1 -10l-85 -5v-413c0 -174 51 -262 220 -262
c71 0 124 16 168 53c33 49 47 102 47 209v413l-85 5l1 10h189l-1 -10z" />
    <glyph glyph-name="uogonek" unicode="&#x173;" horiz-adv-x="627" 
d="M586 0c-39 -43 -59 -74 -61 -119c11 -23 29 -26 61 -31l-1 -13c-54 0 -76 23 -76 49c0 42 24 78 57 114h-72l-6 76c-39 -49 -104 -84 -191 -84c-90 0 -159 63 -159 177v293h-88v10l81 8h23l4 -31v-275c0 -110 63 -164 139 -164c46 0 85 7 132 29c22 20 41 40 59 66v357
h-88v10l80 8h25l3 -31v-434l79 -5z" />
    <glyph glyph-name="Wcircumflex" unicode="&#x174;" horiz-adv-x="1092" 
d="M993 685l-235 -685h-32l-189 536l-184 -536h-32l-231 685l-80 5l1 10h200l-1 -10l-98 -5l225 -669h1l189 549l-42 120l-89 5l1 10h233l-1 -10l-122 -5l235 -669h2l229 669l-106 5l1 10h214l-1 -10zM519 919l-113 -140l-18 5l121 157h20l121 -157l-18 -5z" />
    <glyph glyph-name="wcircumflex" unicode="&#x175;" horiz-adv-x="784" 
d="M708 465l-166 -465h-29l-119 342l-132 -342h-28l-165 465l-64 5l1 10h160l-1 -10l-74 -5l156 -446h3l135 349l-33 97l-75 5l1 10h199l-1 -10l-103 -5l154 -446h3l158 446l-81 5l1 10h171l-1 -10zM385 699l-113 -140l-18 5l121 157h20l121 -157l-18 -5z" />
    <glyph glyph-name="Ycircumflex" unicode="&#x176;" horiz-adv-x="675" 
d="M437 0h-217l1 10l102 5v289l-233 381l-80 5l1 10h203l-1 -10l-99 -5l220 -360h2l228 360l-93 5l1 10h193l-1 -10l-79 -5l-242 -383v-287l95 -5zM341 919l-113 -140l-18 5l121 157h20l121 -157l-18 -5z" />
    <glyph glyph-name="ycircumflex" unicode="&#x177;" horiz-adv-x="578" 
d="M492 465l-220 -527c-38 -90 -96 -145 -185 -145h-66l-4 7l3 14l5 3l63 -7c76 0 135 48 170 135l23 57l-15 -2l-10 11l-185 454l-66 5l1 10h161l-1 -10l-73 -5l180 -447h15l182 447l-79 5l1 10h181l-1 -10zM281 699l-113 -140l-18 5l121 157h20l121 -157l-18 -5z" />
    <glyph glyph-name="Ydieresis" unicode="&#x178;" horiz-adv-x="675" 
d="M437 0h-217l1 10l102 5v289l-233 381l-80 5l1 10h203l-1 -10l-99 -5l220 -360h2l228 360l-93 5l1 10h193l-1 -10l-79 -5l-242 -383v-287l95 -5zM211 861c0 12 13 28 27 28s29 -16 29 -29s-15 -28 -28 -28c-14 0 -28 14 -28 29zM421 861c0 12 13 28 27 28s29 -16 29 -29
s-15 -28 -28 -28c-14 0 -28 14 -28 29z" />
    <glyph glyph-name="Zacute" unicode="&#x179;" horiz-adv-x="722" 
d="M624 0h-532l-2 19l518 663h-474l-5 -171l-14 1l-7 188h521l3 -19l-517 -663h486l8 174l14 -1zM349 779l-18 5l121 157l24 -5z" />
    <glyph glyph-name="zacute" unicode="&#x17a;" horiz-adv-x="521" 
d="M95 320l-15 1l-7 144l3 15h367l3 -22l-358 -440h346l3 146l15 -1l4 -145l-2 -18h-387l-2 22l360 440h-329zM248 559l-18 5l121 157l24 -5z" />
    <glyph glyph-name="Zdotaccent" unicode="&#x17b;" horiz-adv-x="722" 
d="M624 0h-532l-2 19l518 663h-474l-5 -171l-14 1l-7 188h521l3 -19l-517 -663h486l8 174l14 -1zM407 860c0 -20 -17 -37 -37 -37s-37 17 -37 37s17 37 37 37s37 -17 37 -37z" />
    <glyph glyph-name="zdotaccent" unicode="&#x17c;" horiz-adv-x="521" 
d="M95 320l-15 1l-7 144l3 15h367l3 -22l-358 -440h346l3 146l15 -1l4 -145l-2 -18h-387l-2 22l360 440h-329zM306 640c0 -20 -17 -37 -37 -37s-37 17 -37 37s17 37 37 37s37 -17 37 -37z" />
    <glyph glyph-name="Zcaron" unicode="&#x17d;" horiz-adv-x="722" 
d="M624 0h-532l-2 19l518 663h-474l-5 -171l-14 1l-7 188h521l3 -19l-517 -663h486l8 174l14 -1zM371 812l113 140l18 -5l-121 -157h-20l-121 157l18 5z" />
    <glyph glyph-name="zcaron" unicode="&#x17e;" horiz-adv-x="521" 
d="M95 320l-15 1l-7 144l3 15h367l3 -22l-358 -440h346l3 146l15 -1l4 -145l-2 -18h-387l-2 22l360 440h-329zM270 592l113 140l18 -5l-121 -157h-20l-121 157l18 5z" />
    <glyph glyph-name="florin" unicode="&#x192;" horiz-adv-x="374" 
d="M181 539l-7 -59h162v-13l-164 -5l-72 -592h-20l71 592l-114 5l1 13h115l8 63c14 121 60 197 160 197c40 0 77 -7 112 -22l-6 -19h-6c-31 15 -64 22 -100 22c-28 0 -49 -3 -84 -24c-32 -38 -47 -80 -56 -158z" />
    <glyph glyph-name="Oslashacute" unicode="&#x1fe;" horiz-adv-x="794" 
d="M322 779l-18 5l121 157l24 -5zM392 708c87 0 157 -24 211 -67l83 121l16 -11l-84 -122c70 -64 106 -162 106 -279c0 -228 -126 -358 -331 -358c-67 0 -127 18 -178 51l-70 -102l-17 12l70 102c-78 59 -128 159 -128 286c0 224 135 367 322 367zM390 688
c-84 0 -143 -26 -203 -73c-54 -65 -97 -145 -97 -275c0 -116 47 -210 121 -267l380 552c-50 40 -118 63 -201 63zM704 349c0 110 -33 202 -98 262l-378 -550c47 -32 103 -49 165 -49c102 0 168 29 232 84c47 67 79 141 79 253z" />
    <glyph glyph-name="oslashacute" unicode="&#x1ff;" horiz-adv-x="549" 
d="M259 559l-18 5l121 157l24 -5zM282 488c49 0 95 -16 131 -48l60 87l16 -11l-62 -90c38 -42 62 -105 62 -189c0 -147 -69 -245 -206 -245c-53 0 -96 12 -130 35l-50 -73l-17 12l51 73c-52 44 -77 115 -77 201c0 162 94 248 222 248zM279 470c-54 0 -87 -13 -125 -37
c-50 -51 -72 -110 -72 -194c0 -76 22 -141 67 -182l251 365c-33 31 -75 48 -121 48zM468 238c0 73 -21 130 -54 169l-249 -363c30 -22 70 -34 118 -34c39 0 83 12 127 42c39 52 58 94 58 186z" />
    <glyph glyph-name="Scommaaccent" unicode="&#x218;" horiz-adv-x="608" 
d="M325 708c59 0 100 -8 153 -23l4 -11l-13 -122l-15 1l6 116c-32 11 -97 21 -135 21c-50 0 -102 -12 -153 -44c-26 -29 -42 -60 -42 -104c0 -92 45 -124 181 -177c143 -56 197 -119 197 -211c0 -83 -72 -162 -219 -162c-89 0 -133 15 -186 38l-3 13l17 182l15 -1l-12 -181
c43 -19 99 -33 169 -33c50 0 106 12 158 46c27 32 41 61 41 98c0 81 -44 140 -180 191c-145 54 -200 100 -200 197c0 103 96 166 217 166zM329 -106c0 -22 -21 -59 -49 -88l-13 13c14 16 27 34 33 51c-15 0 -28 13 -28 28c0 16 13 29 28 29c16 0 29 -13 29 -33z" />
    <glyph glyph-name="scommaaccent" unicode="&#x219;" horiz-adv-x="447" 
d="M236 488c61 0 91 -9 130 -21l2 -11l-13 -95l-16 2l7 91c-29 10 -70 16 -112 16c-32 0 -66 -8 -102 -27c-21 -23 -25 -42 -25 -69c0 -53 45 -85 129 -123c88 -40 141 -68 141 -141s-53 -118 -155 -118c-69 0 -121 15 -149 28l-3 22l17 106l14 -1l-10 -113
c28 -14 80 -24 131 -24c37 0 75 5 110 24c16 20 25 42 25 76c0 42 -21 78 -129 124c-91 39 -143 71 -143 137c0 88 88 117 151 117zM262 -106c0 -22 -21 -59 -49 -88l-13 13c14 16 27 34 33 51c-15 0 -28 13 -28 28c0 16 13 29 28 29c16 0 29 -13 29 -33z" />
    <glyph glyph-name="uni021A" unicode="&#x21a;" horiz-adv-x="612" 
d="M30 700h552l-3 -165l-12 1l-5 147h-246v-668l105 -5l-1 -10h-228l1 10l103 5v668h-247l-4 -148l-12 -1zM334 -106c0 -22 -21 -59 -49 -88l-13 13c14 16 27 34 33 51c-15 0 -28 13 -28 28c0 16 13 29 28 29c16 0 29 -13 29 -33z" />
    <glyph glyph-name="uni021B" unicode="&#x21b;" horiz-adv-x="348" 
d="M317 16l1 -7c-30 -6 -54 -9 -84 -9c-61 0 -94 42 -94 108v357l-100 3l1 12h99l8 147l12 1v-148h151l-1 -12l-150 -3v-366c0 -55 34 -83 73 -83h84zM220 -106c0 -22 -21 -59 -49 -88l-13 13c14 16 27 34 33 51c-15 0 -28 13 -28 28c0 16 13 29 28 29c16 0 29 -13 29 -33z
" />
    <glyph glyph-name="dotlessj" unicode="&#x237;" horiz-adv-x="281" 
d="M58 -149l-8 12c58 36 92 78 92 174v428l-82 5l1 10h98l3 -21v-417c0 -90 -28 -148 -104 -191z" />
    <glyph glyph-name="circumflex" unicode="&#x2c6;" horiz-adv-x="483" 
d="M241 699l-113 -140l-18 5l121 157h20l121 -157l-18 -5z" />
    <glyph glyph-name="caron" unicode="&#x2c7;" horiz-adv-x="483" 
d="M242 592l113 140l18 -5l-121 -157h-20l-121 157l18 5z" />
    <glyph glyph-name="breve" unicode="&#x2d8;" horiz-adv-x="464" 
d="M117 694h16c8 -55 45 -86 99 -86c48 0 85 27 98 86h14l3 -10c-14 -57 -60 -94 -115 -94c-60 0 -107 36 -118 95z" />
    <glyph glyph-name="dotaccent" unicode="&#x2d9;" horiz-adv-x="270" 
d="M172 640c0 -20 -17 -37 -37 -37s-37 17 -37 37s17 37 37 37s37 -17 37 -37z" />
    <glyph glyph-name="ring" unicode="&#x2da;" horiz-adv-x="406" 
d="M121 648c0 46 36 82 82 82s82 -36 82 -82s-36 -82 -82 -82s-82 36 -82 82zM139 647c0 -35 30 -64 64 -64s64 29 64 64c0 32 -30 64 -64 64s-64 -29 -64 -64z" />
    <glyph glyph-name="ogonek" unicode="&#x2db;" horiz-adv-x="548" 
d="M487 9l11 -9c-39 -43 -59 -74 -61 -119c11 -23 29 -26 61 -31c0 -4 -1 -9 -1 -13c-54 0 -76 23 -76 49c0 45 28 84 66 123z" />
    <glyph glyph-name="tilde" unicode="&#x2dc;" horiz-adv-x="582" 
d="M119 606l-14 8c31 37 62 68 85 68c44 0 158 -70 202 -70l64 65l14 -7c-23 -31 -61 -73 -85 -73c-59 0 -161 69 -209 69z" />
    <glyph glyph-name="hungarumlaut" unicode="&#x2dd;" horiz-adv-x="538" 
d="M136 558l-18 3l91 161l26 -4zM288 560l-19 4l121 157l24 -5z" />
    <glyph glyph-name="uni0394" unicode="&#x394;" horiz-adv-x="705" 
d="M89 15l257 685h33l259 -684l80 -6l-1 -10h-707l1 10zM359 684l-249 -666h506l-252 666h-5z" />
    <glyph glyph-name="uni03BC" unicode="&#x3bc;" horiz-adv-x="627" 
d="M237 -230h-172l1 10l72 5v677h-88v10l81 8h23l4 -32v-274c0 -110 63 -164 139 -164c46 0 85 7 132 29c22 20 41 40 59 66v357h-88v10l80 8h25l3 -31v-434l79 -5l-1 -10h-92l-6 76c-39 -49 -104 -84 -191 -84c-61 0 -112 29 -139 82v-289l80 -5z" />
    <glyph glyph-name="pi" unicode="&#x3c0;" horiz-adv-x="636" 
d="M574 0h-180l1 10l73 5v447h-301v-447l79 -5l-1 -10h-184l1 10l85 5v450l-87 5l1 10h515l-1 -10l-87 -5v-450l87 -5z" />
    <glyph glyph-name="Wgrave" unicode="&#x1e80;" horiz-adv-x="1092" 
d="M993 685l-235 -685h-32l-189 536l-184 -536h-32l-231 685l-80 5l1 10h200l-1 -10l-98 -5l225 -669h1l189 549l-42 120l-89 5l1 10h233l-1 -10l-122 -5l235 -669h2l229 669l-106 5l1 10h214l-1 -10zM563 784l-18 -5l-127 157l24 5z" />
    <glyph glyph-name="wgrave" unicode="&#x1e81;" horiz-adv-x="784" 
d="M708 465l-166 -465h-29l-119 342l-132 -342h-28l-165 465l-64 5l1 10h160l-1 -10l-74 -5l156 -446h3l135 349l-33 97l-75 5l1 10h199l-1 -10l-103 -5l154 -446h3l158 446l-81 5l1 10h171l-1 -10zM429 564l-18 -5l-127 157l24 5z" />
    <glyph glyph-name="Wacute" unicode="&#x1e82;" horiz-adv-x="1092" 
d="M993 685l-235 -685h-32l-189 536l-184 -536h-32l-231 685l-80 5l1 10h200l-1 -10l-98 -5l225 -669h1l189 549l-42 120l-89 5l1 10h233l-1 -10l-122 -5l235 -669h2l229 669l-106 5l1 10h214l-1 -10zM498 779l-18 5l121 157l24 -5z" />
    <glyph glyph-name="wacute" unicode="&#x1e83;" horiz-adv-x="784" 
d="M708 465l-166 -465h-29l-119 342l-132 -342h-28l-165 465l-64 5l1 10h160l-1 -10l-74 -5l156 -446h3l135 349l-33 97l-75 5l1 10h199l-1 -10l-103 -5l154 -446h3l158 446l-81 5l1 10h171l-1 -10zM364 559l-18 5l121 157l24 -5z" />
    <glyph glyph-name="Wdieresis" unicode="&#x1e84;" horiz-adv-x="1092" 
d="M993 685l-235 -685h-32l-189 536l-184 -536h-32l-231 685l-80 5l1 10h200l-1 -10l-98 -5l225 -669h1l189 549l-42 120l-89 5l1 10h233l-1 -10l-122 -5l235 -669h2l229 669l-106 5l1 10h214l-1 -10zM389 861c0 12 13 28 27 28s29 -16 29 -29s-15 -28 -28 -28
c-14 0 -28 14 -28 29zM599 861c0 12 13 28 27 28s29 -16 29 -29s-15 -28 -28 -28c-14 0 -28 14 -28 29z" />
    <glyph glyph-name="wdieresis" unicode="&#x1e85;" horiz-adv-x="784" 
d="M708 465l-166 -465h-29l-119 342l-132 -342h-28l-165 465l-64 5l1 10h160l-1 -10l-74 -5l156 -446h3l135 349l-33 97l-75 5l1 10h199l-1 -10l-103 -5l154 -446h3l158 446l-81 5l1 10h171l-1 -10zM255 641c0 12 13 28 27 28s29 -16 29 -29s-15 -28 -28 -28
c-14 0 -28 14 -28 29zM465 641c0 12 13 28 27 28s29 -16 29 -29s-15 -28 -28 -28c-14 0 -28 14 -28 29z" />
    <glyph glyph-name="uni1E8A" unicode="&#x1e8a;" horiz-adv-x="713" 
d="M601 15l-256 337l-238 -337l85 -5l-1 -10h-181l1 10l74 5l249 352l-241 318l-65 5l1 10h168l-1 -10l-78 -5l230 -303l218 303l-86 5l1 10h183l-1 -10l-73 -5l-231 -318l268 -352l76 -5l-1 -10h-190l1 10zM384 860c0 -20 -17 -37 -37 -37s-37 17 -37 37s17 37 37 37
s37 -17 37 -37z" />
    <glyph glyph-name="uni1E8B" unicode="&#x1e8b;" horiz-adv-x="533" 
d="M431 15l-171 221l-158 -221l79 -5l-1 -10h-165l1 10l63 5l170 235l-166 215l-61 5l1 10h157l-1 -10l-68 -5l153 -200l144 200l-71 5l1 10h159l-1 -10l-64 -5l-157 -215l180 -235l63 -5l-1 -10h-161l1 10zM295 640c0 -20 -17 -37 -37 -37s-37 17 -37 37s17 37 37 37
s37 -17 37 -37z" />
    <glyph glyph-name="Ygrave" unicode="&#x1ef2;" horiz-adv-x="675" 
d="M437 0h-217l1 10l102 5v289l-233 381l-80 5l1 10h203l-1 -10l-99 -5l220 -360h2l228 360l-93 5l1 10h193l-1 -10l-79 -5l-242 -383v-287l95 -5zM385 784l-18 -5l-127 157l24 5z" />
    <glyph glyph-name="ygrave" unicode="&#x1ef3;" horiz-adv-x="578" 
d="M492 465l-220 -527c-38 -90 -96 -145 -185 -145h-66l-4 7l3 14l5 3l63 -7c76 0 135 48 170 135l23 57l-15 -2l-10 11l-185 454l-66 5l1 10h161l-1 -10l-73 -5l180 -447h15l182 447l-79 5l1 10h181l-1 -10zM325 564l-18 -5l-127 157l24 5z" />
    <glyph glyph-name="endash" unicode="&#x2013;" horiz-adv-x="565" 
d="M70 254v20h425v-20h-425z" />
    <glyph glyph-name="emdash" unicode="&#x2014;" horiz-adv-x="705" 
d="M70 254v20h565v-20h-565z" />
    <glyph glyph-name="quoteleft" unicode="&#x2018;" horiz-adv-x="242" 
d="M99 672c0 22 21 59 49 88l13 -13c-14 -16 -27 -34 -33 -51c15 0 28 -13 28 -28c0 -16 -13 -29 -28 -29c-16 0 -29 13 -29 33z" />
    <glyph glyph-name="quoteright" unicode="&#x2019;" horiz-adv-x="242" 
d="M149 668c0 -22 -21 -59 -49 -88l-13 13c14 16 27 34 33 51c-15 0 -28 13 -28 28c0 16 13 29 28 29c16 0 29 -13 29 -33z" />
    <glyph glyph-name="quotesinglbase" unicode="&#x201a;" horiz-adv-x="242" 
d="M149 24c0 -22 -21 -59 -49 -88l-13 13c14 16 27 34 33 51c-15 0 -28 13 -28 28c0 16 13 29 28 29c16 0 29 -13 29 -33z" />
    <glyph glyph-name="quotedblbase" unicode="&#x201e;" horiz-adv-x="339" 
d="M149 24c0 -22 -21 -59 -49 -88l-13 13c14 16 27 34 33 51c-15 0 -28 13 -28 28c0 16 13 29 28 29c16 0 29 -13 29 -33zM245 24c0 -22 -21 -59 -49 -88l-13 13c14 16 27 34 33 51c-15 0 -28 13 -28 28c0 16 13 29 28 29c16 0 29 -13 29 -33z" />
    <glyph glyph-name="bullet" unicode="&#x2022;" horiz-adv-x="298" 
d="M182 224c0 -19 -17 -36 -38 -36c-20 0 -36 17 -36 36c0 21 16 38 36 38c21 0 38 -17 38 -38z" />
    <glyph glyph-name="perthousand" unicode="&#x2030;" horiz-adv-x="1522" 
d="M269 708c125 0 194 -80 194 -198c0 -126 -73 -200 -193 -200c-109 0 -190 77 -190 195c0 125 79 203 189 203zM795 392c125 0 194 -80 194 -198c0 -126 -73 -200 -193 -200c-109 0 -190 77 -190 195c0 125 79 203 189 203zM1248 392c125 0 194 -80 194 -198
c0 -126 -73 -200 -193 -200c-109 0 -190 77 -190 195c0 125 79 203 189 203zM358 -15l332 738l16 -8l-331 -737zM1247 375c-47 0 -79 -13 -113 -36c-30 -36 -55 -81 -55 -151c0 -104 74 -177 170 -177c57 0 94 15 129 44c27 36 44 78 44 138c0 107 -60 182 -175 182z
M268 691c-47 0 -79 -13 -113 -36c-30 -36 -55 -81 -55 -151c0 -104 74 -177 170 -177c57 0 94 15 129 44c27 36 44 78 44 138c0 107 -60 182 -175 182zM794 375c-47 0 -79 -13 -113 -36c-30 -36 -55 -81 -55 -151c0 -104 74 -177 170 -177c57 0 94 15 129 44
c27 36 44 78 44 138c0 107 -60 182 -175 182z" />
    <glyph glyph-name="guilsinglleft" unicode="&#x2039;" horiz-adv-x="338" 
d="M266 12l-15 -11c-70 85 -121 160 -195 231v17c71 73 124 146 195 230l14 -10l-85 -106l-105 -123l105 -119z" />
    <glyph glyph-name="guilsinglright" unicode="&#x203a;" horiz-adv-x="338" 
d="M72 468l15 11c70 -85 121 -160 195 -231v-17c-71 -73 -124 -146 -195 -230l-14 10l85 106l105 123l-105 119z" />
    <glyph glyph-name="fraction" unicode="&#x2044;" horiz-adv-x="104" 
d="M-119 -15l332 738l16 -8l-331 -737z" />
    <glyph glyph-name="uni2070" unicode="&#x2070;" horiz-adv-x="421" 
d="M216 700c98 0 143 -59 143 -209c0 -129 -43 -196 -143 -196c-95 0 -155 67 -155 196c0 151 61 209 155 209zM216 685c-32 0 -59 -9 -87 -25c-31 -37 -50 -84 -50 -170c0 -118 52 -179 137 -179c31 0 55 6 81 21c25 31 44 76 44 159c0 139 -39 194 -125 194z" />
    <glyph glyph-name="uni2074" unicode="&#x2074;" horiz-adv-x="365" 
d="M310 300h-137l1 10l60 3v88h-189l-2 15c31 94 63 189 94 284h17v-7l-94 -278h174v100l5 46h13v-146h70v-14h-70v-88l59 -3z" />
    <glyph glyph-name="uni2075" unicode="&#x2075;" horiz-adv-x="377" 
d="M73 509l-2 13l5 178h227l-1 -15h-209l-5 -158c22 6 54 11 86 11c80 0 142 -42 142 -121c0 -74 -55 -122 -149 -122c-45 0 -80 9 -112 26l6 13c33 -15 67 -24 106 -24c48 0 83 13 111 37c15 24 20 41 20 69c0 68 -55 107 -126 107c-36 0 -74 -7 -99 -14z" />
    <glyph glyph-name="uni2076" unicode="&#x2076;" horiz-adv-x="377" 
d="M210 685c-73 0 -137 -73 -137 -189c36 19 79 34 122 34c85 0 129 -43 129 -119c0 -72 -47 -116 -131 -116c-87 0 -138 65 -138 199c0 123 70 206 154 206c39 0 70 -6 100 -19l-7 -14c-29 13 -57 18 -92 18zM193 515c-37 0 -82 -13 -120 -35c3 -116 47 -170 121 -170
c34 0 63 10 88 26c16 23 24 42 24 75c0 68 -40 104 -113 104z" />
    <glyph glyph-name="uni2077" unicode="&#x2077;" horiz-adv-x="352" 
d="M40 700h271l2 -13c-84 -121 -135 -255 -156 -387h-18l-1 8c24 123 74 260 153 377h-233l-2 -83l-13 1z" />
    <glyph glyph-name="uni2078" unicode="&#x2078;" horiz-adv-x="372" 
d="M304 601c0 -47 -36 -85 -79 -104c44 -14 72 -35 83 -67c4 -11 6 -22 6 -35c0 -53 -36 -100 -128 -100c-86 0 -129 46 -129 104c0 54 43 87 91 104c-47 20 -79 54 -79 103c0 56 46 94 117 94c73 0 118 -45 118 -99zM190 490c-8 2 -15 4 -23 6c-51 -17 -92 -46 -92 -97
c0 -50 38 -89 112 -89c36 0 64 10 90 26c14 21 19 39 19 57c0 55 -35 80 -106 97zM86 606c0 -52 44 -84 107 -100l12 -3c44 15 81 52 81 97c0 49 -35 86 -103 86c-50 0 -97 -24 -97 -80z" />
    <glyph glyph-name="uni2079" unicode="&#x2079;" horiz-adv-x="374" 
d="M169 310c100 0 123 94 124 180c-33 -17 -75 -25 -122 -25c-72 0 -124 38 -124 115s38 120 134 120c92 0 130 -76 130 -214c0 -117 -47 -191 -143 -191c-44 0 -78 10 -110 28l8 15c29 -18 65 -28 103 -28zM173 479c45 0 89 8 120 25c-3 118 -35 183 -112 183
c-11 0 -22 -1 -32 -3c-62 -9 -83 -43 -83 -104c0 -68 43 -101 107 -101z" />
    <glyph glyph-name="uni207D" unicode="&#x207d;" horiz-adv-x="249" 
d="M171 742l13 -8c-46 -56 -82 -158 -82 -249c0 -87 26 -173 83 -251l-14 -8c-62 78 -90 160 -90 259c0 103 38 201 90 257z" />
    <glyph glyph-name="uni207E" unicode="&#x207e;" horiz-adv-x="250" 
d="M76 226l-14 8c46 56 82 158 82 250c0 86 -26 172 -83 250l14 8c62 -78 91 -158 91 -258c0 -103 -38 -202 -90 -258z" />
    <glyph glyph-name="uni2080" unicode="&#x2080;" horiz-adv-x="421" 
d="M216 270c98 0 143 -59 143 -209c0 -129 -43 -196 -143 -196c-95 0 -155 67 -155 196c0 151 61 209 155 209zM216 255c-32 0 -59 -9 -87 -25c-31 -37 -50 -84 -50 -170c0 -118 52 -179 137 -179c31 0 55 6 81 21c25 31 44 76 44 159c0 139 -39 194 -125 194z" />
    <glyph glyph-name="uni2081" unicode="&#x2081;" horiz-adv-x="264" 
d="M209 -130h-146l1 10l66 3v368l-91 -30l-4 12l102 37l12 -1v-386l61 -3z" />
    <glyph glyph-name="uni2082" unicode="&#x2082;" horiz-adv-x="378" 
d="M323 -130h-273l-1 19c87 60 245 167 245 271c0 61 -41 96 -119 96c-41 0 -74 -11 -95 -18l-3 -78l-12 1l-4 78l1 9c31 13 63 22 115 22c87 0 136 -39 136 -109c0 -108 -167 -223 -244 -274v-2h237l4 89l12 -1z" />
    <glyph glyph-name="uni2083" unicode="&#x2083;" horiz-adv-x="368" 
d="M269 168c0 42 -31 88 -103 88c-29 0 -61 -4 -90 -10l-3 -75l-13 1l-2 71l3 12c30 10 72 15 107 15c78 0 117 -49 117 -101c0 -42 -31 -85 -75 -94v-3c41 -9 87 -39 87 -97c0 -59 -45 -110 -142 -110c-42 0 -72 10 -100 27l6 12c30 -16 64 -24 94 -24c59 0 81 15 104 32
c15 20 21 38 21 63c0 57 -53 93 -132 93l-1 11c39 1 64 6 91 19c18 19 31 40 31 70z" />
    <glyph glyph-name="uni2084" unicode="&#x2084;" horiz-adv-x="365" 
d="M310 -130h-137l1 10l60 3v88h-189l-2 15c31 94 63 189 94 284h17v-7l-94 -278h174v100l5 46h13v-146h70v-14h-70v-88l59 -3z" />
    <glyph glyph-name="uni2085" unicode="&#x2085;" horiz-adv-x="377" 
d="M73 79l-2 13l5 178h227l-1 -15h-209l-5 -158c22 6 54 11 86 11c80 0 142 -42 142 -121c0 -74 -55 -122 -149 -122c-45 0 -80 9 -112 26l6 13c33 -15 67 -24 106 -24c48 0 83 13 111 37c15 24 20 41 20 69c0 68 -55 107 -126 107c-36 0 -74 -7 -99 -14z" />
    <glyph glyph-name="uni2086" unicode="&#x2086;" horiz-adv-x="377" 
d="M210 255c-73 0 -137 -73 -137 -189c36 19 79 34 122 34c85 0 129 -43 129 -119c0 -72 -47 -116 -131 -116c-87 0 -138 65 -138 199c0 123 70 206 154 206c39 0 70 -6 100 -19l-7 -14c-29 13 -57 18 -92 18zM193 85c-37 0 -82 -13 -120 -35c3 -116 47 -170 121 -170
c34 0 63 10 88 26c16 23 24 42 24 75c0 68 -40 104 -113 104z" />
    <glyph glyph-name="uni2087" unicode="&#x2087;" horiz-adv-x="352" 
d="M40 270h271l2 -13c-84 -121 -135 -255 -156 -387h-18l-1 8c24 123 74 260 153 377h-233l-2 -83l-13 1z" />
    <glyph glyph-name="uni2088" unicode="&#x2088;" horiz-adv-x="372" 
d="M304 171c0 -47 -36 -85 -79 -104c44 -14 72 -35 83 -67c4 -11 6 -22 6 -35c0 -53 -36 -100 -128 -100c-86 0 -129 46 -129 104c0 54 43 87 91 104c-47 20 -79 54 -79 103c0 56 46 94 117 94c73 0 118 -45 118 -99zM190 60c-8 2 -15 4 -23 6c-51 -17 -92 -46 -92 -97
c0 -50 38 -89 112 -89c36 0 64 10 90 26c14 21 19 39 19 57c0 55 -35 80 -106 97zM86 176c0 -52 44 -84 107 -100l12 -3c44 15 81 52 81 97c0 49 -35 86 -103 86c-50 0 -97 -24 -97 -80z" />
    <glyph glyph-name="uni2089" unicode="&#x2089;" horiz-adv-x="374" 
d="M169 -120c100 0 123 94 124 180c-33 -17 -75 -25 -122 -25c-72 0 -124 38 -124 115s38 120 134 120c92 0 130 -76 130 -214c0 -117 -47 -191 -143 -191c-44 0 -78 10 -110 28l8 15c29 -18 65 -28 103 -28zM173 49c45 0 89 8 120 25c-3 118 -35 183 -112 183
c-11 0 -22 -1 -32 -3c-62 -9 -83 -43 -83 -104c0 -68 43 -101 107 -101z" />
    <glyph glyph-name="Euro" unicode="&#x20ac;" horiz-adv-x="736" 
d="M15 388v20h107c23 198 151 300 317 300c98 0 156 -11 217 -36l3 -15l-7 -138l-14 1l1 133c-48 24 -115 37 -199 37c-62 0 -119 -17 -176 -47c-70 -59 -111 -131 -122 -235h298v-20h-300c-1 -14 -1 -28 -1 -43c0 -18 1 -34 2 -50h299v-20h-297c22 -166 126 -265 292 -265
c93 0 155 13 234 58l7 -15c-79 -47 -146 -61 -241 -61c-175 0 -289 105 -312 283h-108v20h106c-2 16 -2 33 -2 50c0 15 0 29 1 43h-105z" />
    <glyph glyph-name="trademark" unicode="&#x2122;" horiz-adv-x="923" 
d="M812 343l-29 330l-136 -334h-23l-143 334l-27 -330l46 -3l-1 -11h-111l1 11l46 3l31 343l-45 3l1 11h123l-1 -11l-46 -3l139 -322h1l134 322l-39 3l1 11h107l-1 -11l-39 -3l32 -343l45 -3v-11h-112l1 11zM255 329h-133v11l56 3v342h-126l-3 -77l-14 -1l-2 93h311l-2 -93
l-14 1l-3 77h-126v-342l56 -3v-11z" />
    <glyph glyph-name="onethird" unicode="&#x2153;" horiz-adv-x="766" 
d="M153 -15l332 738l16 -8l-331 -737zM209 300h-146l1 10l66 3v368l-91 -30l-4 12l102 37l12 -1v-386l61 -3zM667 298c0 42 -31 88 -103 88c-29 0 -61 -4 -90 -10l-3 -75l-13 1l-2 71l3 12c30 10 72 15 107 15c78 0 117 -49 117 -101c0 -42 -31 -85 -75 -94v-3
c41 -9 87 -39 87 -97c0 -59 -45 -110 -142 -110c-42 0 -72 10 -100 27l6 12c30 -16 64 -24 94 -24c59 0 81 15 104 32c15 20 21 38 21 63c0 57 -53 93 -132 93l-1 11c39 1 64 6 91 19c18 19 31 40 31 70z" />
    <glyph glyph-name="twothirds" unicode="&#x2154;" horiz-adv-x="845" 
d="M259 -15l332 738l16 -8l-331 -737zM323 300h-273l-1 19c87 60 245 167 245 271c0 61 -41 96 -119 96c-41 0 -74 -11 -95 -18l-3 -78l-12 1l-4 78l1 9c31 13 63 22 115 22c87 0 136 -39 136 -109c0 -108 -167 -223 -244 -274v-2h237l4 89l12 -1zM746 298
c0 42 -31 88 -103 88c-29 0 -61 -4 -90 -10l-3 -75l-13 1l-2 71l3 12c30 10 72 15 107 15c78 0 117 -49 117 -101c0 -42 -31 -85 -75 -94v-3c41 -9 87 -39 87 -97c0 -59 -45 -110 -142 -110c-42 0 -72 10 -100 27l6 12c30 -16 64 -24 94 -24c59 0 81 15 104 32
c15 20 21 38 21 63c0 57 -53 93 -132 93l-1 11c39 1 64 6 91 19c18 19 31 40 31 70z" />
    <glyph glyph-name="oneeighth" unicode="&#x215b;" horiz-adv-x="755" 
d="M687 301c0 -47 -36 -85 -79 -104c44 -14 72 -35 83 -67c4 -11 6 -22 6 -35c0 -53 -36 -100 -128 -100c-86 0 -129 46 -129 104c0 54 43 87 91 104c-47 20 -79 54 -79 103c0 56 46 94 117 94c73 0 118 -45 118 -99zM573 190c-8 2 -15 4 -23 6c-51 -17 -92 -46 -92 -97
c0 -50 38 -89 112 -89c36 0 64 10 90 26c14 21 19 39 19 57c0 55 -35 80 -106 97zM469 306c0 -52 44 -84 107 -100l12 -3c44 15 81 52 81 97c0 49 -35 86 -103 86c-50 0 -97 -24 -97 -80zM153 -15l332 738l16 -8l-331 -737zM209 300h-146l1 10l66 3v368l-91 -30l-4 12
l102 37l12 -1v-386l61 -3z" />
    <glyph glyph-name="threeeighths" unicode="&#x215c;" horiz-adv-x="822" 
d="M754 301c0 -47 -36 -85 -79 -104c44 -14 72 -35 83 -67c4 -11 6 -22 6 -35c0 -53 -36 -100 -128 -100c-86 0 -129 46 -129 104c0 54 43 87 91 104c-47 20 -79 54 -79 103c0 56 46 94 117 94c73 0 118 -45 118 -99zM640 190c-8 2 -15 4 -23 6c-51 -17 -92 -46 -92 -97
c0 -50 38 -89 112 -89c36 0 64 10 90 26c14 21 19 39 19 57c0 55 -35 80 -106 97zM536 306c0 -52 44 -84 107 -100l12 -3c44 15 81 52 81 97c0 49 -35 86 -103 86c-50 0 -97 -24 -97 -80zM235 -15l332 738l16 -8l-331 -737zM269 598c0 42 -31 88 -103 88
c-29 0 -61 -4 -90 -10l-3 -75l-13 1l-2 71l3 12c30 10 72 15 107 15c78 0 117 -49 117 -101c0 -42 -31 -85 -75 -94v-3c41 -9 87 -39 87 -97c0 -59 -45 -110 -142 -110c-42 0 -72 10 -100 27l6 12c30 -16 64 -24 94 -24c59 0 81 15 104 32c15 20 21 38 21 63
c0 57 -53 93 -132 93l-1 11c39 1 64 6 91 19c18 19 31 40 31 70z" />
    <glyph glyph-name="fiveeighths" unicode="&#x215d;" horiz-adv-x="807" 
d="M73 509l-2 13l5 178h227l-1 -15h-209l-5 -158c22 6 54 11 86 11c80 0 142 -42 142 -121c0 -74 -55 -122 -149 -122c-45 0 -80 9 -112 26l6 13c33 -15 67 -24 106 -24c48 0 83 13 111 37c15 24 20 41 20 69c0 68 -55 107 -126 107c-36 0 -74 -7 -99 -14zM739 301
c0 -47 -36 -85 -79 -104c44 -14 72 -35 83 -67c4 -11 6 -22 6 -35c0 -53 -36 -100 -128 -100c-86 0 -129 46 -129 104c0 54 43 87 91 104c-47 20 -79 54 -79 103c0 56 46 94 117 94c73 0 118 -45 118 -99zM625 190c-8 2 -15 4 -23 6c-51 -17 -92 -46 -92 -97
c0 -50 38 -89 112 -89c36 0 64 10 90 26c14 21 19 39 19 57c0 55 -35 80 -106 97zM521 306c0 -52 44 -84 107 -100l12 -3c44 15 81 52 81 97c0 49 -35 86 -103 86c-50 0 -97 -24 -97 -80zM230 -15l332 738l16 -8l-331 -737z" />
    <glyph glyph-name="seveneighths" unicode="&#x215e;" horiz-adv-x="768" 
d="M40 700h271l2 -13c-84 -121 -135 -255 -156 -387h-18l-1 8c24 123 74 260 153 377h-233l-2 -83l-13 1zM700 301c0 -47 -36 -85 -79 -104c44 -14 72 -35 83 -67c4 -11 6 -22 6 -35c0 -53 -36 -100 -128 -100c-86 0 -129 46 -129 104c0 54 43 87 91 104
c-47 20 -79 54 -79 103c0 56 46 94 117 94c73 0 118 -45 118 -99zM586 190c-8 2 -15 4 -23 6c-51 -17 -92 -46 -92 -97c0 -50 38 -89 112 -89c36 0 64 10 90 26c14 21 19 39 19 57c0 55 -35 80 -106 97zM482 306c0 -52 44 -84 107 -100l12 -3c44 15 81 52 81 97
c0 49 -35 86 -103 86c-50 0 -97 -24 -97 -80zM171 -15l332 738l16 -8l-331 -737z" />
    <glyph glyph-name="Delta" unicode="&#x2206;" horiz-adv-x="728" 
d="M89 15l257 685h33l259 -684l80 -6l-1 -10h-707l1 10zM359 684l-249 -666h506l-252 666h-5z" />
    <glyph glyph-name="product" unicode="&#x220f;" horiz-adv-x="785" 
d="M81 690l1 10h630l-1 -10l-119 -5v-800l92 -5l-1 -10h-202l1 10l90 5v800h-363v-800l92 -5l-1 -10h-205l1 10l93 5v800z" />
    <glyph glyph-name="summation" unicode="&#x2211;" horiz-adv-x="642" 
d="M582 -130h-529l-3 21l299 402l-293 387l4 20h498l-3 -199l-14 -1l-4 183h-459l289 -384v-10l-297 -401h489l6 183l14 -1z" />
    <glyph glyph-name="minus" unicode="&#x2212;" horiz-adv-x="465" 
d="M60 256v20h345v-20h-345z" />
    <glyph glyph-name="approxequal" unicode="&#x2248;" horiz-adv-x="513" 
d="M90 144l-14 8c31 37 62 68 85 68c44 0 158 -70 202 -70l64 65l14 -7c-23 -31 -61 -73 -85 -73c-59 0 -161 69 -209 69zM79 313l-14 8c31 37 62 68 85 68c44 0 158 -70 202 -70l64 65l14 -7c-23 -31 -61 -73 -85 -73c-59 0 -161 69 -209 69z" />
    <glyph glyph-name="comma.sub" unicode="&#xf6e1;" horiz-adv-x="154" 
d="M127 -97c0 -30 -23 -67 -47 -95l-17 13l25 49c-22 0 -40 18 -40 39s18 38 40 38c21 0 39 -17 39 -44z" />
    <glyph glyph-name="exclam.sc" horiz-adv-x="216" 
d="M98 560h23v-276l-2 -158h-18l-2 158zM135 24c0 -13 -12 -24 -26 -24c-13 0 -24 11 -24 24c0 14 11 25 24 25c14 0 26 -11 26 -25z" />
    <glyph glyph-name="dollar.osf" unicode="&#xf724;" horiz-adv-x="594" 
d="M290 -94v86c-91 0 -135 15 -189 38l-3 13l17 182c5 0 10 -1 15 -1l-12 -181c44 -19 100 -33 172 -33v341c-133 48 -184 98 -184 191s79 154 184 164v100h20v-98c67 0 109 -7 166 -23l4 -11l-13 -122c-5 0 -10 1 -15 1l6 116c-32 11 -97 21 -135 21c-5 0 -9 -1 -13 -1
v-325c118 -44 175 -99 191 -166c3 -14 5 -29 5 -44c0 -79 -65 -154 -196 -161v-87h-20zM486 154c0 80 -43 139 -176 189v-332c44 3 91 16 135 45c27 32 41 61 41 98zM128 542c0 -88 41 -121 162 -170v316c-70 -7 -162 -43 -162 -146z" />
    <glyph glyph-name="b.sc" horiz-adv-x="526" 
d="M282 0h-234l1 10l86 4v532l-81 4v10h231c103 0 164 -61 164 -145c0 -60 -25 -113 -94 -131c66 -18 107 -70 107 -137c0 -77 -43 -147 -180 -147zM297 274h-143v-256c29 -4 74 -4 119 -4c73 0 115 17 147 46c15 24 23 43 22 87c-1 77 -60 127 -145 127zM281 544h-127v-253
h143c40 0 63 7 86 17c27 25 46 52 46 106c0 73 -52 130 -148 130z" />
    <glyph glyph-name="c.sc" horiz-adv-x="584" 
d="M521 57l7 -14c-65 -38 -122 -49 -201 -49c-164 0 -263 107 -263 282c0 192 115 291 267 291c81 0 130 -10 180 -30l3 -12l-7 -112l-13 1l1 107c-40 19 -95 29 -164 29c-51 0 -98 -14 -144 -37c-69 -57 -103 -127 -103 -237c0 -164 89 -265 244 -265c76 0 128 10 193 46z
" />
    <glyph glyph-name="d.sc" horiz-adv-x="631" 
d="M48 0l1 10l82 4v532l-77 4l1 10h198c200 0 314 -99 314 -279c0 -174 -97 -281 -290 -281h-229zM245 545c-50 0 -76 -1 -95 -3v-525c27 -3 74 -3 127 -3c100 0 153 25 204 67c41 53 66 102 66 200c0 174 -104 264 -302 264z" />
    <glyph glyph-name="e.sc" horiz-adv-x="503" 
d="M65 0l1 10l78 4v532l-80 4l1 10h373l-2 -131l-13 1l-5 115h-254v-254h176l7 74l12 -1v-157l-12 1l-7 68h-176v-261h268l4 119l13 -1l2 -133h-386z" />
    <glyph glyph-name="f.sc" horiz-adv-x="482" 
d="M267 0h-202l1 10l76 4v532l-78 4l1 10h369l-2 -130l-13 1l-5 113h-252v-256h166l6 64l11 -1v-152l-11 1l-6 72h-166v-258l106 -4z" />
    <glyph glyph-name="g.sc" horiz-adv-x="634" 
d="M506 0l-4 53c-45 -36 -104 -59 -178 -59c-156 0 -260 114 -260 284c0 190 122 289 287 289c62 0 128 -16 170 -35l6 -12l-13 -113l-14 1l7 111c-33 17 -99 31 -156 31s-97 -9 -149 -30c-84 -56 -118 -138 -118 -242c0 -162 94 -267 241 -267c72 0 126 20 175 62v140
l-132 5l1 11h217l-1 -12l-66 -4v-213h-13z" />
    <glyph glyph-name="h.sc" horiz-adv-x="640" 
d="M591 0h-162l1 10l70 4v264h-360v-264l73 -4l-1 -10h-164l1 10l71 4v532l-66 4l1 10h155l-1 -10l-69 -4v-251h360v251l-68 4v10h157l-1 -10l-69 -4v-532l73 -4z" />
    <glyph glyph-name="i.sc" horiz-adv-x="327" 
d="M254 0h-181l1 10l77 4v532l-79 4l1 10h177v-10l-77 -4v-532l82 -4z" />
    <glyph glyph-name="j.sc" horiz-adv-x="327" 
d="M152 57v489l-82 4l1 10h184l-1 -10l-80 -4v-484c0 -74 -20 -115 -90 -165l-9 10c59 46 77 83 77 150z" />
    <glyph glyph-name="k.sc" horiz-adv-x="568" 
d="M244 0h-172l1 10l70 4v532l-79 4l1 10h175l-1 -10l-75 -4v-257h27l250 257l-61 4l1 10h140l-1 -10l-55 -4l-254 -261v-5c61 -71 201 -211 283 -266l51 -4v-10h-64c-83 60 -220 195 -290 273h-27v-259l81 -4z" />
    <glyph glyph-name="l.sc" horiz-adv-x="460" 
d="M433 0h-369l1 10l78 4v532l-69 4l1 10h180l-1 -10l-91 -4v-531h249l7 135l13 -1z" />
    <glyph glyph-name="m.sc" horiz-adv-x="843" 
d="M697 14l-45 518l-214 -516h-24l-222 517l-45 -519l70 -4l-1 -10h-160l1 10l70 4l47 532l-66 4l1 10h171l-1 -10l-70 -4l217 -506h2l210 506l-59 4l1 10h149l-1 -10l-59 -4l50 -532l68 -4v-10h-160l1 10z" />
    <glyph glyph-name="n.sc" horiz-adv-x="730" 
d="M65 560h102l413 -529v515l-79 4l1 10h176l-1 -10l-78 -4v-546h-18l-415 530v-516l89 -4l-1 -10h-188l1 10l81 4v532l-84 4z" />
    <glyph glyph-name="o.sc" horiz-adv-x="672" 
d="M332 567c179 0 276 -118 276 -287c0 -182 -104 -286 -275 -286c-152 0 -269 108 -269 279c0 180 113 294 268 294zM331 548c-69 0 -118 -20 -167 -57c-45 -52 -80 -116 -80 -219c0 -154 109 -260 249 -260c84 0 138 23 190 66c39 53 65 113 65 201
c0 159 -88 269 -257 269z" />
    <glyph glyph-name="p.sc" horiz-adv-x="515" 
d="M254 0h-190l1 11l76 3v532l-77 4l1 10h223c107 0 171 -60 171 -160c0 -113 -58 -160 -185 -160h-114v-226l95 -4zM284 543h-124v-287h123c47 0 86 10 118 27c26 31 37 63 37 117c0 90 -54 143 -154 143z" />
    <glyph glyph-name="r.sc" horiz-adv-x="581" 
d="M241 0h-170l1 10l74 4v532l-79 4v10h220c118 0 181 -67 181 -163c0 -84 -62 -138 -147 -151c32 -73 105 -184 151 -232l56 -4l-1 -10h-67c-50 53 -124 169 -160 244c-7 -1 -14 -1 -21 -1h-113v-229l76 -4zM279 544h-113v-285h75c94 0 131 11 174 46c22 26 35 52 35 90
c0 87 -53 149 -171 149z" />
    <glyph glyph-name="s.sc" horiz-adv-x="517" 
d="M276 567c50 0 84 -7 128 -19l4 -9l-12 -100l-14 1l5 93c-26 9 -79 17 -111 17c-41 0 -84 -9 -126 -34c-21 -23 -34 -48 -34 -82c0 -73 37 -98 149 -141c119 -45 164 -95 164 -169c0 -67 -61 -130 -183 -130c-74 0 -111 12 -155 30l-3 11l15 146l15 -1l-10 -144
c35 -15 81 -26 138 -26c41 0 88 10 130 36c22 25 34 48 34 77c0 64 -37 111 -149 151c-120 44 -166 81 -166 159c0 83 80 134 181 134z" />
    <glyph glyph-name="t.sc" horiz-adv-x="523" 
d="M31 560h461l-3 -134l-12 1l-4 117h-201v-530l86 -4l-1 -10h-191l1 10l85 4v530h-202l-4 -118l-12 -1z" />
    <glyph glyph-name="u.sc" horiz-adv-x="654" 
d="M530 546v-333c0 -143 -39 -219 -194 -219c-151 0 -201 79 -201 219v333l-74 4l1 10h164l-1 -10l-70 -4v-328c0 -138 42 -207 181 -207c58 0 102 12 138 41c27 39 39 81 39 166v328l-71 4l1 10h159l-1 -10z" />
    <glyph glyph-name="v.sc" horiz-adv-x="645" 
d="M558 546l-223 -546h-27l-227 546l-66 4l1 10h181l-1 -10l-93 -4l219 -528h2l215 528l-81 4l1 10h171l-1 -10z" />
    <glyph glyph-name="w.sc" horiz-adv-x="922" 
d="M833 546l-194 -546h-30l-155 423l-152 -423h-30l-191 546l-66 4l1 10h168l-1 -10l-80 -4l185 -529h1l155 433l-35 96l-73 4l1 10h195l-1 -10l-100 -4l193 -530h2l188 530l-87 4l1 10h179l-1 -10z" />
    <glyph glyph-name="x.sc" unicode="&#xf778;" horiz-adv-x="605" 
d="M502 14l-209 265l-195 -265l70 -4l-1 -10h-152l1 10l61 4l205 279l-198 253l-54 4l1 10h142l-1 -10l-64 -4l188 -239l179 239l-71 4l1 10h154l-1 -10l-61 -4l-190 -252l221 -280l62 -4v-10h-161l1 10z" />
    <glyph glyph-name="y.sc" horiz-adv-x="576" 
d="M372 0h-183l1 10l84 4v228l-193 304l-66 4l1 10h171l-1 -10l-81 -4l180 -285h2l188 285l-77 4l1 10h162l-1 -10l-66 -4l-200 -306v-226l79 -4z" />
    <glyph glyph-name="z.sc" horiz-adv-x="611" 
d="M525 0h-443l-2 17l428 526h-388l-5 -136l-14 1l-6 152h434l2 -17l-426 -526h398l7 138h14z" />
    <glyph glyph-name="cent.osf" unicode="&#xf7a2;" horiz-adv-x="484" 
d="M444 437l-15 -111c-5 0 -11 1 -16 1l10 115c-18 11 -85 28 -135 28v-460c58 0 107 15 154 47l8 -14c-47 -33 -94 -50 -162 -51v-75h-20v75c-127 6 -198 102 -198 253c0 142 83 231 198 242v90h20v-89c57 0 118 -13 152 -33zM90 246c0 -140 60 -230 178 -236v459
c-41 -4 -72 -18 -112 -43c-43 -48 -66 -101 -66 -180z" />
    <glyph glyph-name="ae.sc" horiz-adv-x="785" 
d="M733 0h-386l1 10l78 4v168h-253l-66 -168l82 -4l-1 -10h-166l1 10l65 4l217 546h415l-2 -131l-13 1l-5 115h-254v-254h176l7 74l12 -1v-157l-12 1l-7 68h-176v-261h268l4 119l13 -1zM317 545l-137 -346h246v346h-109z" />
    <glyph glyph-name="eth.sc" horiz-adv-x="631" 
d="M50 275v15h81v256l-77 4l1 10h199c199 0 313 -99 313 -279c0 -174 -97 -281 -290 -281h-229l1 10l82 4v261h-81zM246 545c-50 0 -76 -2 -95 -4v-251h215v-15h-215v-258c27 -2 74 -3 126 -3c101 0 154 25 205 68c41 53 65 101 65 199c0 174 -104 264 -301 264z" />
    <glyph glyph-name="oslash.sc" horiz-adv-x="672" 
d="M114 -39l57 81c-66 48 -107 129 -107 231c0 180 113 295 268 295c71 0 129 -19 173 -52l67 95l16 -10l-68 -97c57 -51 88 -130 88 -224c0 -182 -104 -288 -275 -288c-54 0 -104 14 -145 39l-57 -80zM331 549c-73 0 -121 -23 -173 -63c-43 -53 -74 -115 -74 -214
c0 -91 39 -167 99 -213l311 441c-41 31 -96 49 -163 49zM588 279c0 87 -27 161 -79 209l-310 -441c40 -25 84 -37 134 -37c78 0 137 26 189 68c40 55 66 114 66 201z" />
    <glyph glyph-name="ugrave.sc" horiz-adv-x="654" 
d="M530 546v-333c0 -143 -39 -219 -194 -219c-151 0 -201 79 -201 219v333l-74 4l1 10h164l-1 -10l-70 -4v-328c0 -138 42 -207 181 -207c58 0 102 12 138 41c27 39 39 81 39 166v328l-71 4l1 10h159l-1 -10zM385 644l-18 -5l-127 157l24 5z" />
    <glyph glyph-name="thorn.sc" horiz-adv-x="517" 
d="M245 0h-180l1 10l77 4v532l-79 4l1 10h177l-1 -10l-79 -4v-102h128c107 0 171 -60 171 -159c0 -113 -58 -161 -185 -161h-114v-110l84 -4zM286 428h-124v-287h123c46 0 86 9 117 26c27 31 38 64 38 118c0 90 -54 143 -154 143z" />
    <glyph glyph-name="six.lf" horiz-adv-x="578" 
d="M324 672c-123 0 -234 -132 -234 -339c60 36 134 60 207 60c144 0 215 -73 215 -204c0 -123 -79 -197 -215 -197c-141 0 -227 111 -227 342c0 212 115 356 253 356c65 0 114 -10 165 -31l-10 -18c-48 23 -95 31 -154 31zM297 375c-64 0 -142 -22 -207 -62
c4 -208 80 -303 208 -303c59 0 108 17 151 46c29 41 42 75 42 133c0 122 -68 186 -194 186z" />
    <glyph glyph-name="eight.tf" 
d="M463 520c0 -83 -64 -149 -138 -182c104 -34 155 -86 155 -177c0 -89 -60 -169 -210 -169c-140 0 -212 80 -212 177c0 95 75 153 158 182c-81 34 -138 92 -138 179c0 95 77 160 191 160c120 0 194 -78 194 -170zM278 331c-13 3 -26 7 -38 11c-90 -31 -162 -81 -162 -173
c0 -89 65 -159 193 -159c61 0 112 18 155 47c25 36 34 71 34 103c0 97 -61 141 -182 171zM98 529c0 -94 76 -151 183 -178l20 -5c77 27 142 92 142 172c0 88 -61 154 -178 154c-51 0 -91 -16 -130 -41c-25 -32 -37 -60 -37 -102z" />
    <glyph glyph-name="six.tf" 
d="M305 672c-123 0 -234 -132 -234 -339c60 36 134 60 207 60c144 0 215 -73 215 -204c0 -123 -79 -197 -215 -197c-141 0 -227 111 -227 342c0 212 115 356 253 356c65 0 114 -10 165 -31l-10 -18c-48 23 -95 31 -154 31zM278 375c-64 0 -142 -22 -207 -62
c4 -208 80 -303 208 -303c59 0 108 17 151 46c29 41 42 75 42 133c0 122 -68 186 -194 186z" />
    <glyph glyph-name="eight.tosf" 
d="M463 520c0 -83 -64 -149 -138 -182c104 -34 155 -86 155 -177c0 -89 -60 -169 -210 -169c-140 0 -212 80 -212 177c0 95 75 153 158 182c-81 34 -138 92 -138 179c0 95 77 160 191 160c120 0 194 -78 194 -170zM278 331c-13 3 -26 7 -38 11c-90 -31 -162 -81 -162 -173
c0 -89 65 -159 193 -159c61 0 112 18 155 47c25 36 34 71 34 103c0 97 -61 141 -182 171zM98 529c0 -94 76 -151 183 -178l20 -5c77 27 142 92 142 172c0 88 -61 154 -178 154c-51 0 -91 -16 -130 -41c-25 -32 -37 -60 -37 -102z" />
    <glyph glyph-name="six.tosf" 
d="M312 672c-123 0 -234 -132 -234 -339c60 36 134 60 207 60c144 0 215 -73 215 -204c0 -123 -79 -197 -215 -197c-141 0 -227 111 -227 342c0 212 115 356 253 356c65 0 114 -10 165 -31l-10 -18c-48 23 -95 31 -154 31zM285 375c-64 0 -142 -22 -207 -62
c4 -208 80 -303 208 -303c59 0 108 17 151 46c29 41 42 75 42 133c0 122 -68 186 -194 186z" />
    <glyph glyph-name="sterling.tosf" horiz-adv-x="600" 
d="M528 0h-488l1 10l99 5v306h-73v18h73v90c0 187 68 279 218 279c67 0 107 -16 149 -38l2 -14l-14 -105l-11 1l8 106c-37 17 -74 32 -134 32c-56 0 -101 -15 -144 -47c-52 -80 -54 -115 -54 -304h252v-18h-252v-305h346l6 145l14 -1z" />
    <glyph glyph-name="emdash.case" horiz-adv-x="822" 
d="M70 328v20h565v-20h-565z" />
    <glyph glyph-name="endash.case" horiz-adv-x="594" 
d="M70 322v20h425v-20h-425z" />
    <glyph glyph-name="three.dnom" horiz-adv-x="368" 
d="M269 298c0 42 -31 88 -103 88c-29 0 -61 -4 -90 -10l-3 -75l-13 1l-2 71l3 12c30 10 72 15 107 15c78 0 117 -49 117 -101c0 -42 -31 -85 -75 -94v-3c41 -9 87 -39 87 -97c0 -59 -45 -110 -142 -110c-42 0 -72 10 -100 27l6 12c30 -16 64 -24 94 -24c59 0 81 15 104 32
c15 20 21 38 21 63c0 57 -53 93 -132 93l-1 11c39 1 64 6 91 19c18 19 31 40 31 70z" />
    <glyph glyph-name="three.lf" horiz-adv-x="565" 
d="M430 516c0 72 -53 156 -176 156c-51 0 -107 -7 -157 -19l-4 -128l-15 1l-3 119l5 20c49 17 119 25 175 25c130 0 193 -87 193 -174c0 -73 -54 -149 -129 -164v-4c70 -16 147 -68 147 -168s-70 -188 -232 -188c-68 0 -117 17 -164 46l9 15c51 -30 105 -43 155 -43
c100 0 138 26 175 56c27 36 39 68 39 113c0 101 -90 166 -226 166l-1 13c67 0 109 9 155 33c32 34 54 72 54 125z" />
    <glyph glyph-name="three.numr" horiz-adv-x="368" 
d="M269 598c0 42 -31 88 -103 88c-29 0 -61 -4 -90 -10l-3 -75l-13 1l-2 71l3 12c30 10 72 15 107 15c78 0 117 -49 117 -101c0 -42 -31 -85 -75 -94v-3c41 -9 87 -39 87 -97c0 -59 -45 -110 -142 -110c-42 0 -72 10 -100 27l6 12c30 -16 64 -24 94 -24c59 0 81 15 104 32
c15 20 21 38 21 63c0 57 -53 93 -132 93l-1 11c39 1 64 6 91 19c18 19 31 40 31 70z" />
    <glyph glyph-name="three.tf" 
d="M425 512c0 72 -53 153 -176 153c-51 0 -107 -7 -157 -19l-4 -125l-15 1l-3 116l5 20c49 17 119 25 175 25c130 0 193 -84 193 -171c0 -73 -54 -147 -129 -162v-4c70 -16 147 -66 147 -166s-70 -188 -232 -188c-68 0 -117 17 -164 46l9 15c51 -30 105 -43 155 -43
c100 0 138 26 175 57c27 35 39 67 39 112c0 101 -90 164 -226 164l-1 13c67 0 110 8 157 32c31 34 52 71 52 124z" />
    <glyph glyph-name="three.tosf" 
d="M413 397c0 72 -53 153 -176 153c-51 0 -107 -7 -157 -19l-4 -125l-15 1l-3 116l5 20c49 17 119 25 175 25c130 0 193 -84 193 -171c0 -73 -54 -147 -129 -162v-4c70 -16 147 -66 147 -166s-70 -188 -232 -188c-68 0 -117 17 -164 46l9 15c51 -30 105 -43 155 -43
c100 0 138 26 175 57c27 35 39 67 39 112c0 101 -90 164 -226 164l-1 13c67 0 110 8 157 32c31 34 52 71 52 124z" />
    <glyph glyph-name="two.dnom" horiz-adv-x="378" 
d="M323 0h-273l-1 19c87 60 245 167 245 271c0 61 -41 96 -119 96c-41 0 -74 -11 -95 -18l-3 -78l-12 1l-4 78l1 9c31 13 63 22 115 22c87 0 136 -39 136 -109c0 -108 -167 -223 -244 -274v-2h237l4 89l12 -1z" />
    <glyph glyph-name="two.lf" horiz-adv-x="581" 
d="M511 0h-450l-1 27c146 103 414 296 414 476c0 106 -71 169 -205 169c-72 0 -130 -19 -168 -32l-3 -134l-13 1l-5 130l2 16c51 21 104 37 188 37c145 0 224 -68 224 -187c0 -186 -283 -391 -415 -482v-3h411l6 157l13 -1z" />
    <glyph glyph-name="two.numr" horiz-adv-x="378" 
d="M323 300h-273l-1 19c87 60 245 167 245 271c0 61 -41 96 -119 96c-41 0 -74 -11 -95 -18l-3 -78l-12 1l-4 78l1 9c31 13 63 22 115 22c87 0 136 -39 136 -109c0 -108 -167 -223 -244 -274v-2h237l4 89l12 -1z" />
    <glyph glyph-name="two.tf" 
d="M482 0h-450l-1 27c146 103 414 296 414 476c0 106 -71 169 -205 169c-72 0 -130 -19 -168 -32l-3 -134l-13 1l-5 130l2 16c51 21 104 37 188 37c145 0 224 -68 224 -187c0 -186 -283 -391 -415 -482v-3h411l6 157l13 -1z" />
    <glyph glyph-name="two.tosf" 
d="M254 568c129 0 181 -73 181 -167c0 -151 -214 -319 -357 -380l1 -4l388 3l-1 -20h-413l-1 26c156 70 364 227 364 375c0 82 -44 149 -162 149c-59 0 -118 -11 -157 -27l-4 -142l-13 1l-7 140l4 11c43 23 105 35 177 35z" />
    <glyph glyph-name="exclamdown.case" horiz-adv-x="242" 
d="M136 -1h-24l1 348l2 197h18l2 -197zM96 671c0 15 13 28 29 28c15 0 28 -13 28 -28c0 -16 -13 -29 -28 -29c-16 0 -29 13 -29 29z" />
    <glyph glyph-name="five.dnom" horiz-adv-x="377" 
d="M73 209l-2 13l5 178h227l-1 -15h-209l-5 -158c22 6 54 11 86 11c80 0 142 -42 142 -121c0 -74 -55 -122 -149 -122c-45 0 -80 9 -112 26l6 13c33 -15 67 -24 106 -24c48 0 83 13 111 37c15 24 20 41 20 69c0 68 -55 107 -126 107c-36 0 -74 -7 -99 -14z" />
    <glyph glyph-name="five.lf" horiz-adv-x="580" 
d="M99 365l-2 18l8 307h373l-1 -18h-353l-8 -284c35 10 91 20 147 20c133 0 237 -73 237 -209c0 -125 -92 -207 -246 -207c-75 0 -130 15 -184 44l8 16c55 -27 110 -42 176 -42c86 0 144 23 193 70c24 41 33 69 33 119c0 122 -97 191 -217 191c-60 0 -123 -14 -164 -25z" />
    <glyph glyph-name="five.numr" horiz-adv-x="377" 
d="M73 509l-2 13l5 178h227l-1 -15h-209l-5 -158c22 6 54 11 86 11c80 0 142 -42 142 -121c0 -74 -55 -122 -149 -122c-45 0 -80 9 -112 26l6 13c33 -15 67 -24 106 -24c48 0 83 13 111 37c15 24 20 41 20 69c0 68 -55 107 -126 107c-36 0 -74 -7 -99 -14z" />
    <glyph glyph-name="five.tf" 
d="M79 366l-2 18l8 307h373l-1 -18h-353l-8 -284c35 10 91 20 147 20c133 0 237 -72 237 -208c0 -125 -92 -207 -246 -207c-75 0 -130 15 -184 44l8 16c55 -27 110 -42 176 -42c86 0 144 24 193 70c24 41 33 69 33 119c0 122 -97 190 -217 190c-60 0 -123 -14 -164 -25z" />
    <glyph glyph-name="five.tosf" 
d="M79 235l-2 18l8 307h373l-1 -18h-353l-8 -284c35 10 91 20 147 20c133 0 237 -72 237 -208c0 -125 -92 -207 -246 -207c-75 0 -130 15 -184 44l8 16c55 -27 110 -42 176 -42c86 0 144 24 193 70c24 41 33 69 33 119c0 122 -97 190 -217 190c-60 0 -123 -14 -164 -25z" />
    <glyph glyph-name="undercommaaccent" horiz-adv-x="242" 
d="M149 -106c0 -22 -21 -59 -49 -88l-13 13c14 16 27 34 33 51c-15 0 -28 13 -28 28c0 16 13 29 28 29c16 0 29 -13 29 -33z" />
    <glyph glyph-name="a.sc" horiz-adv-x="619" 
d="M81 14l212 546h31l214 -545l66 -5l-1 -10h-168l1 10l81 4l-63 160h-292l-62 -160l82 -4l-1 -10h-166l1 10zM305 544l-138 -354h281l-139 354h-4z" />
    <glyph glyph-name="florin.tf" horiz-adv-x="600" 
d="M248 539l-7 -59h162v-13l-164 -5l-72 -592h-20l71 592l-114 5l1 13h115l8 63c14 121 60 197 160 197c40 0 77 -7 112 -22l-6 -19h-6c-31 15 -64 22 -100 22c-28 0 -49 -3 -84 -24c-32 -38 -47 -80 -56 -158z" />
    <glyph glyph-name="uni021B.sc" horiz-adv-x="523" 
d="M31 560h461l-3 -134l-12 1l-4 117h-201v-530l86 -4l-1 -10h-191l1 10l85 4v530h-202l-4 -118l-12 -1zM300 -106c0 -22 -21 -59 -49 -88l-13 13c14 16 27 34 33 51c-15 0 -28 13 -28 28c0 16 13 29 28 29c16 0 29 -13 29 -33z" />
    <glyph glyph-name="six.dnom" horiz-adv-x="377" 
d="M210 385c-73 0 -137 -73 -137 -189c36 19 79 34 122 34c85 0 129 -43 129 -119c0 -72 -47 -116 -131 -116c-87 0 -138 65 -138 199c0 123 70 206 154 206c39 0 70 -6 100 -19l-7 -14c-29 13 -57 18 -92 18zM193 215c-37 0 -82 -13 -120 -35c3 -116 47 -170 121 -170
c34 0 63 10 88 26c16 23 24 42 24 75c0 68 -40 104 -113 104z" />
    <glyph glyph-name="eight.numr" horiz-adv-x="372" 
d="M304 601c0 -47 -36 -85 -79 -104c44 -14 72 -35 83 -67c4 -11 6 -22 6 -35c0 -53 -36 -100 -128 -100c-86 0 -129 46 -129 104c0 54 43 87 91 104c-47 20 -79 54 -79 103c0 56 46 94 117 94c73 0 118 -45 118 -99zM190 490c-8 2 -15 4 -23 6c-51 -17 -92 -46 -92 -97
c0 -50 38 -89 112 -89c36 0 64 10 90 26c14 21 19 39 19 57c0 55 -35 80 -106 97zM86 606c0 -52 44 -84 107 -100l12 -3c44 15 81 52 81 97c0 49 -35 86 -103 86c-50 0 -97 -24 -97 -80z" />
    <glyph glyph-name="six.numr" horiz-adv-x="377" 
d="M210 685c-73 0 -137 -73 -137 -189c36 19 79 34 122 34c85 0 129 -43 129 -119c0 -72 -47 -116 -131 -116c-87 0 -138 65 -138 199c0 123 70 206 154 206c39 0 70 -6 100 -19l-7 -14c-29 13 -57 18 -92 18zM193 515c-37 0 -82 -13 -120 -35c3 -116 47 -170 121 -170
c34 0 63 10 88 26c16 23 24 42 24 75c0 68 -40 104 -113 104z" />
    <glyph glyph-name="florin.tosf" horiz-adv-x="600" 
d="M248 539l-7 -59h162v-13l-164 -5l-72 -592h-20l71 592l-114 5l1 13h115l8 63c14 121 60 197 160 197c40 0 77 -7 112 -22l-6 -19h-6c-31 15 -64 22 -100 22c-28 0 -49 -3 -84 -24c-32 -38 -47 -80 -56 -158z" />
    <glyph glyph-name="four.dnom" horiz-adv-x="365" 
d="M310 0h-137l1 10l60 3v88h-189l-2 15c31 94 63 189 94 284h17v-7l-94 -278h174v100l5 46h13v-146h70v-14h-70v-88l59 -3z" />
    <glyph glyph-name="four.lf" horiz-adv-x="561" 
d="M490 0h-221l1 10l102 5v160h-319l-3 21l159 494h18v-9l-158 -488h303v179l7 78h13v-257h119l-1 -18h-118v-160l99 -5z" />
    <glyph glyph-name="four.numr" horiz-adv-x="365" 
d="M310 300h-137l1 10l60 3v88h-189l-2 15c31 94 63 189 94 284h17v-7l-94 -278h174v100l5 46h13v-146h70v-14h-70v-88l59 -3z" />
    <glyph glyph-name="four.tf" 
d="M489 0h-221l1 10l102 5v160h-319l-3 21l159 494h18v-9l-158 -488h303v179l7 78h13v-257h119l-1 -18h-118v-160l99 -5z" />
    <glyph glyph-name="four.tosf" 
d="M516 0h-112v-91l-5 -39h-15v130h-353l-2 19l178 541h16v-11l-174 -530h335v256l5 44h15v-300h113z" />
    <glyph glyph-name="sterling.tf" horiz-adv-x="600" 
d="M528 0h-488l1 10l99 5v306h-73v18h73v90c0 187 68 279 218 279c67 0 107 -16 149 -38l2 -14l-14 -105l-11 1l8 106c-37 17 -74 32 -134 32c-56 0 -101 -15 -144 -47c-52 -80 -54 -115 -54 -304h252v-18h-252v-305h346l6 145l14 -1z" />
    <glyph glyph-name="guillemotleft.case" horiz-adv-x="553" 
d="M266 108l-15 -11c-70 85 -121 160 -195 231v17c71 73 124 146 195 230l14 -10l-85 -106l-105 -123l105 -119zM481 108l-15 -11c-70 85 -121 160 -195 231v17c71 73 124 146 195 230l14 -10l-85 -106l-105 -123l105 -119z" />
    <glyph glyph-name="guillemotright.case" horiz-adv-x="553" 
d="M72 564l15 11c70 -85 121 -160 195 -231v-17c-71 -73 -124 -146 -195 -230l-14 10l85 106l105 123l-105 119zM287 564l15 11c70 -85 121 -160 195 -231v-17c-71 -73 -124 -146 -195 -230l-14 10l85 106l105 123l-105 119z" />
    <glyph glyph-name="yen.tosf" horiz-adv-x="600" 
d="M384 0h-217l1 10l102 5v289l-233 381l-80 5l1 10h203l-1 -10l-99 -5l220 -360h2l228 360l-93 5l1 10h193l-1 -10l-79 -5l-242 -383v-287l95 -5z" />
    <glyph glyph-name="aeacute.sc" horiz-adv-x="785" 
d="M458 639l-18 5l121 157l24 -5zM733 0h-386l1 10l78 4v168h-253l-66 -168l82 -4l-1 -10h-166l1 10l65 4l217 546h415l-2 -131l-13 1l-5 115h-254v-254h176l7 74l12 -1v-157l-12 1l-7 68h-176v-261h268l4 119l13 -1zM317 545l-137 -346h246v346h-109z" />
    <glyph glyph-name="guilsinglright.case" horiz-adv-x="338" 
d="M72 564l15 11c70 -85 121 -160 195 -231v-17c-71 -73 -124 -146 -195 -230l-14 10l85 106l105 123l-105 119z" />
    <glyph glyph-name="zero.dnom" horiz-adv-x="421" 
d="M216 400c98 0 143 -59 143 -209c0 -129 -43 -196 -143 -196c-95 0 -155 67 -155 196c0 151 61 209 155 209zM216 385c-32 0 -59 -9 -87 -25c-31 -37 -50 -84 -50 -170c0 -118 52 -179 137 -179c31 0 55 6 81 21c25 31 44 76 44 159c0 139 -39 194 -125 194z" />
    <glyph glyph-name="zero.numr" horiz-adv-x="421" 
d="M216 700c98 0 143 -59 143 -209c0 -129 -43 -196 -143 -196c-95 0 -155 67 -155 196c0 151 61 209 155 209zM216 685c-32 0 -59 -9 -87 -25c-31 -37 -50 -84 -50 -170c0 -118 52 -179 137 -179c31 0 55 6 81 21c25 31 44 76 44 159c0 139 -39 194 -125 194z" />
    <glyph glyph-name="zero.tf" 
d="M280 690c163 0 234 -101 234 -362c0 -221 -71 -336 -234 -336c-155 0 -256 114 -256 336c0 262 101 362 256 362zM280 672c-53 0 -100 -17 -147 -44c-55 -64 -89 -146 -89 -300c0 -213 91 -318 236 -318c53 0 94 11 138 39c42 54 76 129 76 279c0 249 -68 344 -214 344z
" />
    <glyph glyph-name="zero.tosf" 
d="M262 568c164 0 264 -116 264 -298c0 -164 -95 -278 -255 -278s-261 114 -261 281c0 180 102 295 252 295zM264 550c-56 0 -103 -19 -154 -52c-54 -62 -80 -125 -80 -225c0 -156 93 -263 242 -263c60 0 111 19 162 52c43 55 72 116 72 207c0 175 -91 281 -242 281z" />
    <glyph glyph-name="ampersand.sc" horiz-adv-x="705" 
d="M404 295v10h231v-10l-90 -7c-11 -78 -44 -156 -95 -212c33 -23 67 -44 100 -62l95 -4l-1 -10h-106c-33 18 -67 39 -101 63c-45 -43 -101 -69 -167 -69c-137 0 -190 72 -190 165c0 85 50 130 115 170c-12 31 -20 62 -20 93c0 92 34 145 133 145c50 0 97 -9 137 -27
l-16 -93l-14 1l8 81c-30 14 -71 21 -116 21c-36 0 -61 -8 -88 -28c-20 -32 -24 -57 -24 -100c0 -114 113 -241 241 -335c48 52 80 124 91 201zM423 74c-92 67 -179 151 -220 239c-58 -37 -103 -78 -103 -155c0 -82 44 -147 168 -147c61 0 114 24 155 63z" />
    <glyph glyph-name="hyphen.case" horiz-adv-x="433" 
d="M60 326v20h305v-20h-305z" />
    <glyph glyph-name="Euro.tf" horiz-adv-x="600" 
d="M-31 388v20h107c23 198 151 300 317 300c98 0 156 -11 217 -36l3 -15l-7 -138l-14 1l1 133c-48 24 -115 37 -199 37c-62 0 -119 -17 -176 -47c-70 -59 -111 -131 -122 -235h298v-20h-300c-1 -14 -1 -28 -1 -43c0 -18 1 -34 2 -50h299v-20h-297c22 -166 126 -265 292 -265
c93 0 155 13 234 58l7 -15c-79 -47 -146 -61 -241 -61c-175 0 -289 105 -312 283h-108v20h106c-2 16 -2 33 -2 50c0 15 0 29 1 43h-105z" />
    <glyph glyph-name="idotaccent" horiz-adv-x="287" 
d="M236 0h-173l1 10l73 5v450l-82 5l1 10h98l3 -21v-444l80 -5zM110 644c0 12 13 28 27 28s29 -16 29 -29s-15 -28 -28 -28c-14 0 -28 14 -28 29z" />
    <glyph glyph-name="Euro.tosf" horiz-adv-x="600" 
d="M-31 388v20h107c23 198 151 300 317 300c98 0 156 -11 217 -36l3 -15l-7 -138l-14 1l1 133c-48 24 -115 37 -199 37c-62 0 -119 -17 -176 -47c-70 -59 -111 -131 -122 -235h298v-20h-300c-1 -14 -1 -28 -1 -43c0 -18 1 -34 2 -50h299v-20h-297c22 -166 126 -265 292 -265
c93 0 155 13 234 58l7 -15c-79 -47 -146 -61 -241 -61c-175 0 -289 105 -312 283h-108v20h106c-2 16 -2 33 -2 50c0 15 0 29 1 43h-105z" />
    <glyph glyph-name="ij.sc" horiz-adv-x="660" 
d="M254 0h-181l1 10l77 4v532l-79 4l1 10h177v-10l-77 -4v-532l82 -4zM485 57v489l-82 4l1 10h184l-1 -10l-80 -4v-484c0 -74 -20 -115 -90 -165l-9 10c59 46 77 83 77 150z" />
    <glyph glyph-name="at.case" horiz-adv-x="880" 
d="M597 536v-376l114 -5c43 46 63 121 63 208c0 185 -127 299 -318 299c-106 0 -163 -29 -231 -71c-66 -66 -108 -140 -108 -245c0 -200 138 -320 351 -320h129l1 -7c-50 -8 -89 -11 -139 -11c-216 0 -362 129 -362 336c0 177 139 338 359 338c201 0 338 -127 338 -319
c0 -93 -23 -168 -74 -223h-136l-5 41c-33 -28 -77 -46 -135 -46c-102 0 -168 71 -168 195c0 120 57 210 178 210c49 0 92 -19 125 -45l6 41h12zM444 153c60 0 104 22 133 47v273c-36 35 -76 49 -125 49c-41 0 -78 -10 -117 -41c-30 -48 -39 -95 -39 -151
c0 -116 58 -177 148 -177z" />
    <glyph glyph-name="kgreenlandic.sc" horiz-adv-x="568" 
d="M244 0h-172l1 10l70 4v532l-79 4l1 10h175l-1 -10l-75 -4v-257h27l250 257l-61 4l1 10h140l-1 -10l-55 -4l-254 -261v-5c61 -71 201 -211 283 -266l51 -4v-10h-64c-83 60 -220 195 -290 273h-27v-259l81 -4z" />
    <glyph glyph-name="braceleft.case" horiz-adv-x="329" 
d="M200 754h49v-18h-47c-39 0 -58 -20 -58 -83v-241c0 -42 -28 -65 -48 -65v-3c20 0 48 -34 48 -76v-243c0 -40 12 -63 50 -63h55v-18h-57c-46 0 -68 32 -68 78v242c0 44 -27 69 -54 69v25c26 0 54 15 54 57v240c0 70 31 99 76 99z" />
    <glyph glyph-name="braceright.case" horiz-adv-x="329" 
d="M129 -51h-49v18h47c39 0 58 20 58 83v241c0 42 28 65 48 65v3c-20 0 -48 34 -48 76v243c0 40 -12 63 -50 63h-55v18h57c46 0 68 -32 68 -78v-242c0 -44 27 -69 54 -69v-25c-26 0 -54 -15 -54 -57v-240c0 -70 -31 -99 -76 -99z" />
    <glyph glyph-name="bracketleft.case" horiz-adv-x="328" 
d="M309 761h123v-18h-103v-774h103v-18h-123v810z" />
    <glyph glyph-name="bracketright.case" horiz-adv-x="328" 
d="M203 -53h-123v18h103v774h-103v18h123v-810z" />
    <glyph glyph-name="napostrophe.sc" horiz-adv-x="824" 
d="M159 560h102l413 -529v515l-79 4l1 10h176l-1 -10l-78 -4v-546h-18l-415 530v-516l89 -4l-1 -10h-188l1 10l81 4v532l-84 4zM100 639c0 -22 -21 -59 -49 -88l-13 13c14 16 27 34 33 51c-15 0 -28 13 -28 28c0 16 13 29 28 29c16 0 29 -13 29 -33z" />
    <glyph glyph-name="nine.dnom" horiz-adv-x="374" 
d="M169 10c100 0 123 94 124 180c-33 -17 -75 -25 -122 -25c-72 0 -124 38 -124 115s38 120 134 120c92 0 130 -76 130 -214c0 -117 -47 -191 -143 -191c-44 0 -78 10 -110 28l8 15c29 -18 65 -28 103 -28zM173 179c45 0 89 8 120 25c-3 118 -35 183 -112 183
c-11 0 -22 -1 -32 -3c-62 -9 -83 -43 -83 -104c0 -68 43 -101 107 -101z" />
    <glyph glyph-name="nine.lf" horiz-adv-x="575" 
d="M256 10c152 0 214 123 214 321c-56 -31 -128 -44 -209 -44c-118 0 -204 67 -204 198c0 130 59 205 220 205c151 0 213 -134 213 -369c0 -202 -76 -329 -234 -329c-73 0 -129 17 -182 48l11 18c49 -32 109 -48 171 -48zM262 304c79 0 155 15 207 45
c-4 207 -58 325 -192 325c-56 0 -109 -14 -152 -40c-34 -42 -48 -84 -48 -150c0 -122 76 -180 185 -180z" />
    <glyph glyph-name="nine.numr" horiz-adv-x="374" 
d="M169 310c100 0 123 94 124 180c-33 -17 -75 -25 -122 -25c-72 0 -124 38 -124 115s38 120 134 120c92 0 130 -76 130 -214c0 -117 -47 -191 -143 -191c-44 0 -78 10 -110 28l8 15c29 -18 65 -28 103 -28zM173 479c45 0 89 8 120 25c-3 118 -35 183 -112 183
c-11 0 -22 -1 -32 -3c-62 -9 -83 -43 -83 -104c0 -68 43 -101 107 -101z" />
    <glyph glyph-name="nine.tf" 
d="M248 3c152 0 214 123 214 321c-56 -31 -128 -44 -209 -44c-118 0 -204 67 -204 198c0 130 59 205 220 205c151 0 213 -134 213 -369c0 -202 -76 -329 -234 -329c-73 0 -129 17 -182 48l11 18c49 -32 109 -48 171 -48zM254 297c79 0 155 15 207 45
c-4 207 -58 325 -192 325c-56 0 -109 -14 -152 -40c-34 -42 -48 -84 -48 -150c0 -122 76 -180 185 -180z" />
    <glyph glyph-name="nine.tosf" 
d="M248 -112c152 0 214 123 214 321c-56 -31 -128 -44 -209 -44c-118 0 -204 67 -204 198c0 130 59 205 220 205c151 0 213 -134 213 -369c0 -202 -76 -329 -234 -329c-73 0 -129 17 -182 48l11 18c49 -32 109 -48 171 -48zM254 182c79 0 155 15 207 45
c-4 207 -58 325 -192 325c-56 0 -109 -14 -152 -40c-34 -42 -48 -84 -48 -150c0 -122 76 -180 185 -180z" />
    <glyph glyph-name="numbersign.tf" horiz-adv-x="600" 
d="M368 -70l40 236h-251l-40 -236h-20l40 236h-177l2 18h178l44 261h-192l2 18h193l41 237h20l-41 -237h251l41 237h20l-41 -237h162l-2 -18h-163l-44 -261h177l-2 -18h-178l-40 -236h-20zM204 445l-44 -261h251l44 261h-251z" />
    <glyph glyph-name="numbersign.tosf" horiz-adv-x="600" 
d="M368 -70l40 236h-251l-40 -236h-20l40 236h-177l2 18h178l44 261h-192l2 18h193l41 237h20l-41 -237h251l41 237h20l-41 -237h162l-2 -18h-163l-44 -261h177l-2 -18h-178l-40 -236h-20zM204 445l-44 -261h251l44 261h-251z" />
    <glyph glyph-name="cent.tf" horiz-adv-x="600" 
d="M492 437l-15 -111c-5 0 -11 1 -16 1l10 115c-18 11 -85 28 -135 28v-460c58 0 107 15 154 47l8 -14c-47 -33 -94 -50 -162 -51v-75h-20v75c-127 6 -198 102 -198 253c0 142 83 231 198 242v90h20v-89c57 0 118 -13 152 -33zM138 246c0 -140 60 -230 178 -236v459
c-41 -4 -72 -18 -112 -43c-43 -48 -66 -101 -66 -180z" />
    <glyph glyph-name="cent.tosf" horiz-adv-x="600" 
d="M492 437l-15 -111c-5 0 -11 1 -16 1l10 115c-18 11 -85 28 -135 28v-460c58 0 107 15 154 47l8 -14c-47 -33 -94 -50 -162 -51v-75h-20v75c-127 6 -198 102 -198 253c0 142 83 231 198 242v90h20v-89c57 0 118 -13 152 -33zM138 246c0 -140 60 -230 178 -236v459
c-41 -4 -72 -18 -112 -43c-43 -48 -66 -101 -66 -180z" />
    <glyph glyph-name="one.dnom" horiz-adv-x="264" 
d="M209 0h-146l1 10l66 3v368l-91 -30l-4 12l102 37l12 -1v-386l61 -3z" />
    <glyph glyph-name="one.lf" horiz-adv-x="388" 
d="M317 0h-234l1 10l112 5v654l-155 -53l-5 13l166 61l14 -1v-674l102 -5z" />
    <glyph glyph-name="one.numr" horiz-adv-x="264" 
d="M209 300h-146l1 10l66 3v368l-91 -30l-4 12l102 37l12 -1v-386l61 -3z" />
    <glyph glyph-name="one.tf" 
d="M413 0h-234l1 10l112 5v654l-155 -53l-5 13l166 61l14 -1v-674l102 -5z" />
    <glyph glyph-name="one.tosf" 
d="M396 0h-253l1 10l119 5v530l-120 5l1 10h252l-1 -10l-112 -5v-530l114 -5z" />
    <glyph glyph-name="T_h" horiz-adv-x="1090" 
d="M716 0h-187l1 10l80 5v668h-294v-668l105 -5l-1 -10h-228l1 10l103 5v668h-247l-4 -148l-12 -1l-3 166h493l83 7h21l3 -25v-289c39 62 91 95 168 95c131 0 176 -77 176 -186v-287l86 -5l-1 -10h-105v300c0 101 -40 169 -156 169c-43 0 -64 -6 -97 -22
c-33 -28 -53 -53 -71 -89v-343l87 -5z" />
    <glyph glyph-name="Tcaron_h" horiz-adv-x="1090" 
d="M716 0h-187l1 10l80 5v668h-294v-668l105 -5l-1 -10h-228l1 10l103 5v668h-247l-4 -148l-12 -1l-3 166h493l83 7h21l3 -25v-289c39 62 91 95 168 95c131 0 176 -77 176 -186v-287l86 -5l-1 -10h-105v300c0 101 -40 169 -156 169c-43 0 -64 -6 -97 -22
c-33 -28 -53 -53 -71 -89v-343l87 -5zM301 812l113 140l18 -5l-121 -157h-20l-121 157l18 5z" />
    <glyph glyph-name="commaaccent" horiz-adv-x="242" 
d="M93 614c0 22 21 59 49 88l13 -13c-14 -16 -27 -34 -33 -51c15 0 28 -13 28 -28c0 -16 -13 -29 -28 -29c-16 0 -29 13 -29 33z" />
    <glyph glyph-name="Tcommaaccent_h" horiz-adv-x="1090" 
d="M716 0h-187l1 10l80 5v668h-294v-668l105 -5l-1 -10h-228l1 10l103 5v668h-247l-4 -148l-12 -1l-3 166h493l83 7h21l3 -25v-289c39 62 91 95 168 95c131 0 176 -77 176 -186v-287l86 -5l-1 -10h-105v300c0 101 -40 169 -156 169c-43 0 -64 -6 -97 -22
c-33 -28 -53 -53 -71 -89v-343l87 -5zM328 -106c0 -22 -21 -59 -49 -88l-13 13c14 16 27 34 33 51c-15 0 -28 13 -28 28c0 16 13 29 28 29c16 0 29 -13 29 -33z" />
    <glyph glyph-name="parenleft.case" horiz-adv-x="367" 
d="M262 789l16 -10c-77 -95 -138 -273 -138 -432c0 -151 43 -296 140 -432l-17 -11c-102 137 -147 273 -147 443c0 177 62 345 146 442z" />
    <glyph glyph-name="dcroat.sc" horiz-adv-x="631" 
d="M50 275v15h81v256l-77 4l1 10h199c199 0 313 -99 313 -279c0 -174 -97 -281 -290 -281h-229l1 10l82 4v261h-81zM246 545c-50 0 -76 -2 -95 -4v-251h215v-15h-215v-258c27 -2 74 -3 126 -3c101 0 154 25 205 68c41 53 65 101 65 199c0 174 -104 264 -301 264z" />
    <glyph glyph-name="parenright.case" horiz-adv-x="367" 
d="M100 -90l-16 10c77 95 138 273 138 433c0 150 -43 295 -140 431l17 11c102 -137 147 -270 147 -442c0 -175 -62 -346 -146 -443z" />
    <glyph glyph-name="period.sups" horiz-adv-x="173" 
d="M106 319c0 -10 -9 -19 -20 -19c-10 0 -19 9 -19 19c0 11 9 20 19 20c11 0 20 -9 20 -20z" />
    <glyph glyph-name="dollar.tf" horiz-adv-x="600" 
d="M293 -94v86c-91 0 -135 15 -189 38l-3 13l17 182c5 0 10 -1 15 -1l-12 -181c44 -19 100 -33 172 -33v341c-133 48 -184 98 -184 191s79 154 184 164v100h20v-98c67 0 109 -7 166 -23l4 -11l-13 -122c-5 0 -10 1 -15 1l6 116c-32 11 -97 21 -135 21c-5 0 -9 -1 -13 -1
v-325c118 -44 175 -99 191 -166c3 -14 5 -29 5 -44c0 -79 -65 -154 -196 -161v-87h-20zM489 154c0 80 -43 139 -176 189v-332c44 3 91 16 135 45c27 32 41 61 41 98zM131 542c0 -88 41 -121 162 -170v316c-70 -7 -162 -43 -162 -146z" />
    <glyph glyph-name="periodcentered.case" horiz-adv-x="242" 
d="M149 313c0 -15 -13 -28 -29 -28c-15 0 -28 13 -28 28c0 16 13 29 28 29c16 0 29 -13 29 -29z" />
    <glyph glyph-name="dollar.tosf" horiz-adv-x="600" 
d="M293 -94v86c-91 0 -135 15 -189 38l-3 13l17 182c5 0 10 -1 15 -1l-12 -181c44 -19 100 -33 172 -33v341c-133 48 -184 98 -184 191s79 154 184 164v100h20v-98c67 0 109 -7 166 -23l4 -11l-13 -122c-5 0 -10 1 -15 1l6 116c-32 11 -97 21 -135 21c-5 0 -9 -1 -13 -1
v-325c118 -44 175 -99 191 -166c3 -14 5 -29 5 -44c0 -79 -65 -154 -196 -161v-87h-20zM489 154c0 80 -43 139 -176 189v-332c44 3 91 16 135 45c27 32 41 61 41 98zM131 542c0 -88 41 -121 162 -170v316c-70 -7 -162 -43 -162 -146z" />
    <glyph glyph-name="yen.tf" horiz-adv-x="600" 
 />
    <glyph glyph-name="guilsinglleft.case" horiz-adv-x="338" 
d="M266 108l-15 -11c-70 85 -121 160 -195 231v17c71 73 124 146 195 230l14 -10l-85 -106l-105 -123l105 -119z" />
    <glyph glyph-name="dotlessi.sc" horiz-adv-x="327" 
d="M254 0h-181l1 10l77 4v532l-79 4l1 10h177v-10l-77 -4v-532l82 -4z" />
    <glyph glyph-name="question.sc" horiz-adv-x="354" 
d="M122 560c118 0 186 -81 186 -207c0 -38 -54 -70 -196 -117c-5 -7 -8 -16 -8 -28c-1 -23 3 -49 15 -79l-17 -6c-12 31 -17 60 -17 88c0 17 9 35 26 41c55 20 135 50 172 80c4 8 5 17 5 27c0 95 -57 184 -166 184c-14 0 -46 0 -61 -3l-1 -84h-14l-8 94c17 4 42 10 84 10z
M162 24c0 -13 -11 -24 -25 -24c-13 0 -25 11 -25 24c0 14 12 25 25 25c14 0 25 -11 25 -25z" />
    <glyph glyph-name="questiondown.case" horiz-adv-x="381" 
d="M236 -4c-143 0 -224 101 -224 260c0 45 64 85 236 145c7 8 10 20 10 35c1 30 -4 62 -18 101l18 7c14 -40 21 -76 21 -111c0 -20 -11 -43 -31 -50c-67 -25 -164 -63 -209 -101c-5 -10 -7 -21 -7 -34c0 -121 70 -234 204 -234c17 0 56 1 74 4l2 105h14l9 -114
c-20 -6 -49 -13 -99 -13zM188 668c0 15 13 28 29 28c15 0 28 -13 28 -28c0 -16 -13 -29 -28 -29c-16 0 -29 13 -29 29z" />
    <glyph glyph-name="Idotaccent.sc" horiz-adv-x="327" 
d="M254 0h-181l1 10l77 4v532l-79 4l1 10h177v-10l-77 -4v-532l82 -4zM202 720c0 -20 -17 -37 -37 -37s-37 17 -37 37s17 37 37 37s37 -17 37 -37z" />
    <glyph glyph-name="dotlessj.sc" horiz-adv-x="327" 
d="M152 57v489l-82 4l1 10h184l-1 -10l-80 -4v-484c0 -74 -20 -115 -90 -165l-9 10c59 46 77 83 77 150z" />
    <glyph glyph-name="zero.lf" horiz-adv-x="630" 
d="M326 690c163 0 234 -101 234 -362c0 -221 -71 -336 -234 -336c-155 0 -256 114 -256 336c0 262 101 362 256 362zM326 672c-53 0 -100 -17 -147 -44c-55 -64 -89 -146 -89 -300c0 -213 91 -318 236 -318c53 0 94 11 138 39c42 54 76 129 76 279c0 249 -68 344 -214 344z
" />
    <glyph glyph-name="zero.slash" horiz-adv-x="676" 
d="M332 568c164 0 264 -116 264 -298c0 -164 -95 -278 -255 -278s-261 114 -261 281c0 180 102 295 252 295zM334 550c-56 0 -103 -19 -154 -52c-54 -62 -80 -125 -80 -225c0 -156 93 -263 242 -263c60 0 111 19 162 52c43 55 72 116 72 207c0 175 -91 281 -242 281z
M377 276c0 -15 -13 -28 -29 -28c-15 0 -28 13 -28 28c0 16 13 29 28 29c16 0 29 -13 29 -29z" />
    <glyph glyph-name="seven.dnom" horiz-adv-x="352" 
d="M40 400h271l2 -13c-84 -121 -135 -255 -156 -387h-18l-1 8c24 123 74 260 153 377h-233l-2 -83l-13 1z" />
    <glyph glyph-name="seven.lf" horiz-adv-x="538" 
d="M44 690h448l2 -17c-140 -208 -228 -445 -264 -673h-20l-2 9c41 217 127 458 261 663h-403l-3 -145l-14 1z" />
    <glyph glyph-name="seven.numr" horiz-adv-x="352" 
d="M40 700h271l2 -13c-84 -121 -135 -255 -156 -387h-18l-1 8c24 123 74 260 153 377h-233l-2 -83l-13 1z" />
    <glyph glyph-name="seven.tf" 
d="M45 690h448l2 -17c-140 -208 -228 -445 -264 -673h-20l-2 9c41 217 127 458 261 663h-403l-3 -145l-14 1z" />
    <glyph glyph-name="eight.dnom" horiz-adv-x="372" 
d="M304 301c0 -47 -36 -85 -79 -104c44 -14 72 -35 83 -67c4 -11 6 -22 6 -35c0 -53 -36 -100 -128 -100c-86 0 -129 46 -129 104c0 54 43 87 91 104c-47 20 -79 54 -79 103c0 56 46 94 117 94c73 0 118 -45 118 -99zM190 190c-8 2 -15 4 -23 6c-51 -17 -92 -46 -92 -97
c0 -50 38 -89 112 -89c36 0 64 10 90 26c14 21 19 39 19 57c0 55 -35 80 -106 97zM86 306c0 -52 44 -84 107 -100l12 -3c44 15 81 52 81 97c0 49 -35 86 -103 86c-50 0 -97 -24 -97 -80z" />
    <glyph glyph-name="seven.tosf" 
d="M45 560h448l2 -17c-140 -208 -228 -445 -264 -673h-20l-2 9c41 217 127 458 261 663h-403l-3 -145l-14 1z" />
    <glyph glyph-name="eight.lf" horiz-adv-x="572" 
d="M479 520c0 -83 -64 -149 -138 -182c104 -34 155 -86 155 -177c0 -89 -60 -169 -210 -169c-140 0 -212 80 -212 177c0 95 75 153 158 182c-81 34 -138 92 -138 179c0 95 77 160 191 160c120 0 194 -78 194 -170zM294 331c-13 3 -26 7 -38 11c-90 -31 -162 -81 -162 -173
c0 -89 65 -159 193 -159c61 0 112 18 155 47c25 36 34 71 34 103c0 97 -61 141 -182 171zM114 529c0 -94 76 -151 183 -178l20 -5c77 27 142 92 142 172c0 88 -61 154 -178 154c-51 0 -91 -16 -130 -41c-25 -32 -37 -60 -37 -102z" />
    <glyph glyph-name="i.latn_TRK" horiz-adv-x="292" 
d="M241 0h-173l1 10l73 5v450l-82 5l1 10h98l3 -21v-444l80 -5zM115 644c0 12 13 28 27 28s29 -16 29 -29s-15 -28 -28 -28c-14 0 -28 14 -28 29z" />
    <glyph glyph-name="i.latn_TRK.sc" horiz-adv-x="327" 
d="M254 0h-181l1 10l77 4v532l-79 4l1 10h177v-10l-77 -4v-532l82 -4zM202 720c0 -20 -17 -37 -37 -37s-37 17 -37 37s17 37 37 37s37 -17 37 -37z" />
    <glyph glyph-name="ldot.latn_CAT" horiz-adv-x="307" 
d="M253 0h-187l1 10l80 5v747h-87v11l83 7h21l3 -25v-740l87 -5zM344 355c0 -20 -17 -37 -37 -37s-37 17 -37 37s17 37 37 37s37 -17 37 -37z" />
    <glyph glyph-name="Ldot.latn_CAT" horiz-adv-x="543" 
d="M511 0h-441l1 10l94 5v670l-83 5l1 10h213l-1 -10l-110 -5v-669h305l7 169l13 -1zM472 358c0 -20 -17 -37 -37 -37s-37 17 -37 37s17 37 37 37s37 -17 37 -37z" />
    <glyph glyph-name="ldot.latn_CAT.sc" horiz-adv-x="492" 
d="M433 0h-369l1 10l78 4v532l-69 4l1 10h180l-1 -10l-91 -4v-531h249l7 135l13 -1zM451 311c0 -20 -17 -37 -37 -37s-37 17 -37 37s17 37 37 37s37 -17 37 -37z" />
    <glyph glyph-name="space.frac" horiz-adv-x="50" 
 />
    <glyph glyph-name="uni207A" unicode="&#x207a;" horiz-adv-x="307" 
d="M49 441v16h96v93h16v-93h97v-16h-97v-93h-16v93h-96z" />
    <glyph glyph-name="comma.sups" horiz-adv-x="173" 
d="M106 316c0 -14 -14 -38 -32 -56l-9 9c9 10 17 21 21 31c-10 0 -19 9 -19 19c0 11 9 20 19 20c11 0 20 -9 20 -23z" />
    <glyph glyph-name="colon.sups" horiz-adv-x="173" 
d="M106 319c0 -10 -9 -19 -20 -19c-10 0 -19 9 -19 19c0 11 9 20 19 20c11 0 20 -9 20 -20zM106 560c0 -10 -9 -19 -20 -19c-10 0 -19 9 -19 19c0 11 9 20 19 20c11 0 20 -9 20 -20z" />
    <glyph glyph-name="uni207C" unicode="&#x207c;" horiz-adv-x="307" 
d="M49 404v16h209v-16h-209zM49 482v16h209v-16h-209z" />
    <glyph glyph-name="bracketleft.sups" horiz-adv-x="225" 
d="M86 721h79v-15h-61v-443h61v-14h-79v472z" />
    <glyph glyph-name="bracketright.sups" horiz-adv-x="225" 
d="M139 249h-79v14h61v443h-61v15h79v-472z" />
    <glyph glyph-name="multiply.sups" horiz-adv-x="307" 
d="M85 373l-11 10l68 66l-68 66l11 10l68 -66l69 67l10 -11l-69 -66l69 -66l-10 -11l-69 67z" />
    <glyph glyph-name="uni207B" unicode="&#x207b;" horiz-adv-x="294" 
d="M55 444v18h184v-18h-184z" />
    <glyph glyph-name="uni208A" unicode="&#x208a;" horiz-adv-x="307" 
d="M49 11v16h96v93h16v-93h97v-16h-97v-93h-16v93h-96z" />
    <glyph glyph-name="uni208B" unicode="&#x208b;" horiz-adv-x="307" 
d="M55 14v18h184v-18h-184z" />
    <glyph glyph-name="uni208C" unicode="&#x208c;" horiz-adv-x="307" 
d="M49 -26v16h209v-16h-209zM49 52v16h209v-16h-209z" />
    <glyph glyph-name="uni208D" unicode="&#x208d;" horiz-adv-x="252" 
d="M171 312l13 -8c-46 -56 -82 -158 -82 -249c0 -87 26 -173 83 -251l-14 -8c-62 78 -90 160 -90 259c0 103 38 201 90 257z" />
    <glyph glyph-name="uni208E" unicode="&#x208e;" horiz-adv-x="252" 
d="M76 -204l-14 8c46 56 82 158 82 250c0 86 -26 172 -83 250l14 8c62 -78 91 -158 91 -258c0 -103 -38 -202 -90 -258z" />
    <glyph glyph-name="comma.subs" horiz-adv-x="175" 
d="M106 -114c0 -14 -14 -38 -32 -56l-9 9c9 10 17 21 21 31c-10 0 -19 9 -19 19c0 11 9 20 19 20c11 0 20 -9 20 -23z" />
    <glyph glyph-name="period.subs" horiz-adv-x="175" 
d="M106 -111c0 -10 -9 -19 -20 -19c-10 0 -19 9 -19 19c0 11 9 20 19 20c11 0 20 -9 20 -20z" />
    <glyph glyph-name="colon.subs" horiz-adv-x="175" 
d="M106 -111c0 -10 -9 -19 -20 -19c-10 0 -19 9 -19 19c0 11 9 20 19 20c11 0 20 -9 20 -20zM106 130c0 -10 -9 -19 -20 -19c-10 0 -19 9 -19 19c0 11 9 20 19 20c11 0 20 -9 20 -20z" />
    <glyph glyph-name="bracketleft.subs" horiz-adv-x="226" 
d="M86 291h79v-15h-61v-443h61v-14h-79v472z" />
    <glyph glyph-name="bracketright.subs" horiz-adv-x="226" 
d="M139 -181h-79v14h61v443h-61v15h79v-472z" />
    <glyph glyph-name="multiply.subs" horiz-adv-x="306" 
d="M85 -57l-11 10l68 66l-68 66l11 10l68 -66l69 67l10 -11l-69 -66l69 -66l-10 -11l-69 67z" />
    <glyph glyph-name="plus.dnom" horiz-adv-x="307" 
d="M49 141v16h96v93h16v-93h97v-16h-97v-93h-16v93h-96z" />
    <glyph glyph-name="minus.dnom" horiz-adv-x="307" 
d="M55 144v18h184v-18h-184z" />
    <glyph glyph-name="equal.dnom" horiz-adv-x="307" 
d="M49 104v16h209v-16h-209zM49 182v16h209v-16h-209z" />
    <glyph glyph-name="parenleft.dnom" horiz-adv-x="252" 
d="M171 442l13 -8c-46 -56 -82 -158 -82 -249c0 -87 26 -173 83 -251l-14 -8c-62 78 -90 160 -90 259c0 103 38 201 90 257z" />
    <glyph glyph-name="parenright.dnom" horiz-adv-x="252" 
d="M76 -74l-14 8c46 56 82 158 82 250c0 86 -26 172 -83 250l14 8c62 -78 91 -158 91 -258c0 -103 -38 -202 -90 -258z" />
    <glyph glyph-name="comma.dnom" horiz-adv-x="175" 
d="M106 16c0 -14 -14 -38 -32 -56l-9 9c9 10 17 21 21 31c-10 0 -19 9 -19 19c0 11 9 20 19 20c11 0 20 -9 20 -23z" />
    <glyph glyph-name="period.dnom" horiz-adv-x="175" 
d="M106 19c0 -10 -9 -19 -20 -19c-10 0 -19 9 -19 19c0 11 9 20 19 20c11 0 20 -9 20 -20z" />
    <glyph glyph-name="colon.dnom" horiz-adv-x="175" 
d="M106 19c0 -10 -9 -19 -20 -19c-10 0 -19 9 -19 19c0 11 9 20 19 20c11 0 20 -9 20 -20zM106 260c0 -10 -9 -19 -20 -19c-10 0 -19 9 -19 19c0 11 9 20 19 20c11 0 20 -9 20 -20z" />
    <glyph glyph-name="bracketleft.dnom" horiz-adv-x="226" 
d="M86 421h79v-15h-61v-443h61v-14h-79v472z" />
    <glyph glyph-name="bracketright.dnom" horiz-adv-x="226" 
d="M139 -51h-79v14h61v443h-61v15h79v-472z" />
    <glyph glyph-name="multiply.dnom" horiz-adv-x="306" 
d="M85 73l-11 10l68 66l-68 66l11 10l68 -66l69 67l10 -11l-69 -66l69 -66l-10 -11l-69 67z" />
    <glyph glyph-name="plus.numr" horiz-adv-x="307" 
d="M49 441v16h96v93h16v-93h97v-16h-97v-93h-16v93h-96z" />
    <glyph glyph-name="minus.numr" horiz-adv-x="307" 
d="M55 444v18h184v-18h-184z" />
    <glyph glyph-name="equal.numr" horiz-adv-x="307" 
d="M49 404v16h209v-16h-209zM49 482v16h209v-16h-209z" />
    <glyph glyph-name="parenleft.numr" horiz-adv-x="252" 
d="M171 742l13 -8c-46 -56 -82 -158 -82 -249c0 -87 26 -173 83 -251l-14 -8c-62 78 -90 160 -90 259c0 103 38 201 90 257z" />
    <glyph glyph-name="parenright.numr" horiz-adv-x="252" 
d="M76 226l-14 8c46 56 82 158 82 250c0 86 -26 172 -83 250l14 8c62 -78 91 -158 91 -258c0 -103 -38 -202 -90 -258z" />
    <glyph glyph-name="comma.numr" horiz-adv-x="175" 
d="M106 316c0 -14 -14 -38 -32 -56l-9 9c9 10 17 21 21 31c-10 0 -19 9 -19 19c0 11 9 20 19 20c11 0 20 -9 20 -23z" />
    <glyph glyph-name="period.numr" horiz-adv-x="175" 
d="M106 319c0 -10 -9 -19 -20 -19c-10 0 -19 9 -19 19c0 11 9 20 19 20c11 0 20 -9 20 -20z" />
    <glyph glyph-name="colon.numr" horiz-adv-x="175" 
d="M106 319c0 -10 -9 -19 -20 -19c-10 0 -19 9 -19 19c0 11 9 20 19 20c11 0 20 -9 20 -20zM106 560c0 -10 -9 -19 -20 -19c-10 0 -19 9 -19 19c0 11 9 20 19 20c11 0 20 -9 20 -20z" />
    <glyph glyph-name="bracketleft.numr" horiz-adv-x="226" 
d="M86 721h79v-15h-61v-443h61v-14h-79v472z" />
    <glyph glyph-name="bracketright.numr" horiz-adv-x="226" 
d="M139 249h-79v14h61v443h-61v15h79v-472z" />
    <glyph glyph-name="multiply.numr" horiz-adv-x="306" 
d="M85 373l-11 10l68 66l-68 66l11 10l68 -66l69 67l10 -11l-69 -66l69 -66l-10 -11l-69 67z" />
    <glyph glyph-name="numbersign.lf" horiz-adv-x="734" 
d="M435 -70l40 236h-251l-40 -236h-20l40 236h-177l2 18h178l44 261h-192l2 18h193l41 237h20l-41 -237h251l41 237h20l-41 -237h162l-2 -18h-163l-44 -261h177l-2 -18h-178l-40 -236h-20zM271 445l-44 -261h251l44 261h-251z" />
    <glyph glyph-name="cent.lf" horiz-adv-x="484" 
d="M436 437l-15 -111c-5 0 -11 1 -16 1l10 115c-18 11 -85 28 -135 28v-460c58 0 107 15 154 47l8 -14c-47 -33 -94 -50 -162 -51v-75h-20v75c-127 6 -198 102 -198 253c0 142 83 231 198 242v90h20v-89c57 0 118 -13 152 -33zM82 246c0 -140 60 -230 178 -236v459
c-41 -4 -72 -18 -112 -43c-43 -48 -66 -101 -66 -180z" />
    <glyph glyph-name="sterling.lf" horiz-adv-x="594" 
d="M546 0h-488l1 10l99 5v306h-73v18h73v90c0 187 68 279 218 279c67 0 107 -16 149 -38l2 -14l-14 -105l-11 1l8 106c-37 17 -74 32 -134 32c-56 0 -101 -15 -144 -47c-52 -80 -54 -115 -54 -304h252v-18h-252v-305h346l6 145l14 -1z" />
    <glyph glyph-name="yen.lf" horiz-adv-x="707" 
d="M437 0h-217l1 10l102 5v289l-233 381l-80 5l1 10h203l-1 -10l-99 -5l220 -360h2l228 360l-93 5l1 10h193l-1 -10l-79 -5l-242 -383v-287l95 -5z" />
    <glyph glyph-name="florin.lf" horiz-adv-x="374" 
d="M181 539l-7 -59h162v-13l-164 -5l-72 -592h-20l71 592l-114 5l1 13h115l8 63c14 121 60 197 160 197c40 0 77 -7 112 -22l-6 -19h-6c-31 15 -64 22 -100 22c-28 0 -49 -3 -84 -24c-32 -38 -47 -80 -56 -158z" />
    <glyph glyph-name="Euro.lf" horiz-adv-x="748" 
d="M15 388v20h107c23 198 151 300 317 300c98 0 156 -11 217 -36l3 -15l-7 -138l-14 1l1 133c-48 24 -115 37 -199 37c-62 0 -119 -17 -176 -47c-70 -59 -111 -131 -122 -235h298v-20h-300c-1 -14 -1 -28 -1 -43c0 -18 1 -34 2 -50h299v-20h-297c22 -166 126 -265 292 -265
c93 0 155 13 234 58l7 -15c-79 -47 -146 -61 -241 -61c-175 0 -289 105 -312 283h-108v20h106c-2 16 -2 33 -2 50c0 15 0 29 1 43h-105z" />
    <glyph glyph-name="dollar.lf" horiz-adv-x="594" 
d="M290 -94v86c-91 0 -135 15 -189 38l-3 13l17 182c5 0 10 -1 15 -1l-12 -181c44 -19 100 -33 172 -33v341c-133 48 -184 98 -184 191s79 154 184 164v100h20v-98c67 0 109 -7 166 -23l4 -11l-13 -122c-5 0 -10 1 -15 1l6 116c-32 11 -97 21 -135 21c-5 0 -9 -1 -13 -1
v-325c118 -44 175 -99 191 -166c3 -14 5 -29 5 -44c0 -79 -65 -154 -196 -161v-87h-20zM486 154c0 80 -43 139 -176 189v-332c44 3 91 16 135 45c27 32 41 61 41 98zM128 542c0 -88 41 -121 162 -170v316c-70 -7 -162 -43 -162 -146z" />
    <glyph glyph-name="ograve" unicode="&#xf2;" horiz-adv-x="549" 
d="M282 488c112 0 207 -83 207 -251c0 -147 -69 -245 -206 -245c-150 0 -223 103 -223 248c0 162 94 248 222 248zM279 470c-54 0 -87 -13 -125 -37c-50 -51 -72 -110 -72 -194c0 -130 65 -229 201 -229c39 0 83 12 127 42c39 52 58 94 58 186c0 149 -85 232 -189 232z
M324 564l-18 -5l-127 157l24 5z" />
    <glyph glyph-name="hbar.sc" horiz-adv-x="640" 
d="M56 412v16h64v118l-66 4l1 10h155l-1 -10l-69 -4v-118h360v118l-68 4v10h157l-1 -10l-69 -4v-118h69v-16h-69v-398l73 -4l-1 -10h-162l1 10l70 4v263h-360v-263l73 -4l-1 -10h-164l1 10l71 4v398h-64zM140 412v-118h360v118h-360z" />
    <glyph glyph-name="eng.sc" horiz-adv-x="730" 
d="M580 0v1l-414 530v-517l89 -4l-1 -10h-188l1 10l81 4v532l-84 4l1 10h102l413 -529v515l-79 4l1 10h176l-1 -10l-78 -4v-522c0 -74 -19 -115 -89 -165l-9 10c60 46 79 94 79 131z" />
    <glyph glyph-name="oe.sc" horiz-adv-x="794" 
d="M742 0h-293c-65 -5 -91 -6 -122 -6c-152 0 -263 108 -263 279c0 180 107 294 269 294c27 0 54 -2 79 -4l318 -3l-3 -131l-12 1l-5 115h-256v-254h177l8 74l11 -1v-157l-11 1l-8 68h-177v-261h270l4 119l13 -1zM332 548c-74 0 -121 -20 -170 -55
c-45 -52 -78 -116 -78 -221c0 -154 103 -260 243 -260c42 0 73 -1 107 2v528c-33 3 -68 6 -102 6z" />
    <glyph glyph-name="lslash.sc" horiz-adv-x="460" 
d="M64 0l1 10l78 4v206l-91 -45l-9 16l100 49v306l-69 4l1 10h180l-1 -10l-91 -4v-296l139 69l8 -15l-147 -74v-215h249l7 135l13 -1l1 -149h-369z" />
    <glyph glyph-name="q.sc" horiz-adv-x="672" 
d="M332 567c179 0 276 -118 276 -287c0 -131 -54 -222 -148 -263c60 -62 184 -116 303 -130l-1 -18c-124 12 -255 72 -322 141c-31 -10 -69 -16 -107 -16c-152 0 -269 108 -269 279c0 180 113 294 268 294zM331 548c-69 0 -118 -20 -167 -57c-45 -52 -80 -116 -80 -219
c0 -154 109 -260 249 -260c84 0 138 23 190 66c39 53 65 113 65 201c0 159 -88 269 -257 269z" />
    <glyph glyph-name="AEacute" unicode="&#x1fc;" horiz-adv-x="913" 
d="M858 0h-461l1 10l94 5v213h-307l-81 -213l100 -5l-1 -10h-198l1 10l78 5l263 685h496l-3 -162l-12 1l-6 145h-310v-322h216l9 93l12 -1v-194l-12 1l-9 85h-216v-330h327l5 149l12 -1zM360 684l-168 -438h300v438h-132zM548 779l-18 5l121 157l24 -5z" />
    <glyph glyph-name="aacute.sc" horiz-adv-x="619" 
d="M81 14l212 546h31l214 -545l66 -5l-1 -10h-168l1 10l81 4l-63 160h-292l-62 -160l82 -4l-1 -10h-166l1 10zM305 544l-138 -354h281l-139 354h-4zM299 639l-18 5l121 157l24 -5z" />
    <glyph glyph-name="abreve.sc" horiz-adv-x="619" 
d="M81 14l212 546h31l214 -545l66 -5l-1 -10h-168l1 10l81 4l-63 160h-292l-62 -160l82 -4l-1 -10h-166l1 10zM305 544l-138 -354h281l-139 354h-4zM205 774h16c8 -55 45 -86 99 -86c48 0 85 27 98 86h14l3 -10c-14 -57 -60 -94 -115 -94c-60 0 -107 36 -118 95z" />
    <glyph glyph-name="acircumflex.sc" horiz-adv-x="619" 
d="M81 14l212 546h31l214 -545l66 -5l-1 -10h-168l1 10l81 4l-63 160h-292l-62 -160l82 -4l-1 -10h-166l1 10zM305 544l-138 -354h281l-139 354h-4zM320 779l-113 -140l-18 5l121 157h20l121 -157l-18 -5z" />
    <glyph glyph-name="adieresis.sc" horiz-adv-x="619" 
d="M81 14l212 546h31l214 -545l66 -5l-1 -10h-168l1 10l81 4l-63 160h-292l-62 -160l82 -4l-1 -10h-166l1 10zM305 544l-138 -354h281l-139 354h-4zM190 721c0 12 13 28 27 28s29 -16 29 -29s-15 -28 -28 -28c-14 0 -28 14 -28 29zM400 721c0 12 13 28 27 28s29 -16 29 -29
s-15 -28 -28 -28c-14 0 -28 14 -28 29z" />
    <glyph glyph-name="agrave.sc" horiz-adv-x="619" 
d="M81 14l212 546h31l214 -545l66 -5l-1 -10h-168l1 10l81 4l-63 160h-292l-62 -160l82 -4l-1 -10h-166l1 10zM305 544l-138 -354h281l-139 354h-4zM364 644l-18 -5l-127 157l24 5z" />
    <glyph glyph-name="amacron.sc" horiz-adv-x="619" 
d="M81 14l212 546h31l214 -545l66 -5l-1 -10h-168l1 10l81 4l-63 160h-292l-62 -160l82 -4l-1 -10h-166l1 10zM305 544l-138 -354h281l-139 354h-4zM153 699v18h328v-18h-328z" />
    <glyph glyph-name="aogonek.sc" horiz-adv-x="619" 
d="M81 14l212 546h31l214 -545l66 -5l-1 -10h-58c-39 -43 -59 -74 -61 -119c11 -23 29 -26 61 -31c0 -4 -1 -9 -1 -13c-54 0 -76 23 -76 49c0 42 24 78 57 114h-90l1 10l81 4l-63 160h-292l-62 -160l82 -4l-1 -10h-166l1 10zM305 544l-137 -354h280l-139 354h-4z" />
    <glyph glyph-name="aring.sc" horiz-adv-x="619" 
d="M81 14l212 546h31l214 -545l66 -5l-1 -10h-168l1 10l81 4l-63 160h-292l-62 -160l82 -4l-1 -10h-166l1 10zM305 544l-138 -354h281l-139 354h-4zM238 728c0 46 36 82 82 82s82 -36 82 -82s-36 -82 -82 -82s-82 36 -82 82zM256 727c0 -35 30 -64 64 -64s64 29 64 64
c0 32 -30 64 -64 64s-64 -29 -64 -64z" />
    <glyph glyph-name="atilde.sc" horiz-adv-x="619" 
d="M81 14l212 546h31l214 -545l66 -5l-1 -10h-168l1 10l81 4l-63 160h-292l-62 -160l82 -4l-1 -10h-166l1 10zM305 544l-138 -354h281l-139 354h-4zM152 686l-14 8c31 37 62 68 85 68c44 0 158 -70 202 -70l64 65l14 -7c-23 -31 -61 -73 -85 -73c-59 0 -161 69 -209 69z" />
    <glyph glyph-name="cacute.sc" horiz-adv-x="584" 
d="M521 57l7 -14c-65 -38 -122 -49 -201 -49c-164 0 -263 107 -263 282c0 192 115 291 267 291c81 0 130 -10 180 -30l3 -12l-7 -112l-13 1l1 107c-40 19 -95 29 -164 29c-51 0 -98 -14 -144 -37c-69 -57 -103 -127 -103 -237c0 -164 89 -265 244 -265c76 0 128 10 193 46z
M321 639l-18 5l121 157l24 -5z" />
    <glyph glyph-name="ccaron.sc" horiz-adv-x="584" 
d="M521 57l7 -14c-65 -38 -122 -49 -201 -49c-164 0 -263 107 -263 282c0 192 115 291 267 291c81 0 130 -10 180 -30l3 -12l-7 -112l-13 1l1 107c-40 19 -95 29 -164 29c-51 0 -98 -14 -144 -37c-69 -57 -103 -127 -103 -237c0 -164 89 -265 244 -265c76 0 128 10 193 46z
M343 672l113 140l18 -5l-121 -157h-20l-121 157l18 5z" />
    <glyph glyph-name="ccedilla.sc" horiz-adv-x="584" 
d="M521 57l7 -14c-61 -36 -115 -49 -187 -51l-41 -63c49 0 78 -24 78 -52c0 -48 -37 -76 -93 -97l-7 17c49 17 80 41 80 78c0 23 -23 38 -73 38l-7 13l42 66c-160 3 -256 111 -256 284c0 192 115 292 267 292c81 0 130 -11 180 -31l3 -12l-7 -112l-13 1l1 107
c-40 19 -95 30 -164 30c-50 0 -96 -14 -143 -37c-68 -57 -104 -127 -104 -238c0 -164 89 -267 244 -267c76 0 128 12 193 48z" />
    <glyph glyph-name="ccircumflex.sc" horiz-adv-x="584" 
d="M521 57l7 -14c-65 -38 -122 -49 -201 -49c-164 0 -263 107 -263 282c0 192 115 291 267 291c81 0 130 -10 180 -30l3 -12l-7 -112l-13 1l1 107c-40 19 -95 29 -164 29c-51 0 -98 -14 -144 -37c-69 -57 -103 -127 -103 -237c0 -164 89 -265 244 -265c76 0 128 10 193 46z
M342 779l-113 -140l-18 5l121 157h20l121 -157l-18 -5z" />
    <glyph glyph-name="cdotaccent.sc" horiz-adv-x="584" 
d="M521 57l7 -14c-65 -38 -122 -49 -201 -49c-164 0 -263 107 -263 282c0 192 115 291 267 291c81 0 130 -10 180 -30l3 -12l-7 -112l-13 1l1 107c-40 19 -95 29 -164 29c-51 0 -98 -14 -144 -37c-69 -57 -103 -127 -103 -237c0 -164 89 -265 244 -265c76 0 128 10 193 46z
M379 720c0 -20 -17 -37 -37 -37s-37 17 -37 37s17 37 37 37s37 -17 37 -37z" />
    <glyph glyph-name="dcaron.sc" horiz-adv-x="631" 
d="M48 0l1 10l82 4v532l-77 4l1 10h198c200 0 314 -99 314 -279c0 -174 -97 -281 -290 -281h-229zM245 545c-50 0 -76 -1 -95 -3v-525c27 -3 74 -3 127 -3c100 0 153 25 204 67c41 53 66 102 66 200c0 174 -104 264 -302 264zM314 672l113 140l18 -5l-121 -157h-20l-121 157
l18 5z" />
    <glyph glyph-name="eacute.sc" horiz-adv-x="503" 
d="M65 0l1 10l78 4v532l-80 4l1 10h373l-2 -131l-13 1l-5 115h-254v-254h176l7 74l12 -1v-157l-12 1l-7 68h-176v-261h268l4 119l13 -1l2 -133h-386zM263 639l-18 5l121 157l24 -5z" />
    <glyph glyph-name="ebreve.sc" horiz-adv-x="503" 
d="M65 0l1 10l78 4v532l-80 4l1 10h373l-2 -131l-13 1l-5 115h-254v-254h176l7 74l12 -1v-157l-12 1l-7 68h-176v-261h268l4 119l13 -1l2 -133h-386zM169 774h16c8 -55 45 -86 99 -86c48 0 85 27 98 86h14l3 -10c-14 -57 -60 -94 -115 -94c-60 0 -107 36 -118 95z" />
    <glyph glyph-name="ecaron.sc" horiz-adv-x="503" 
d="M65 0l1 10l78 4v532l-80 4l1 10h373l-2 -131l-13 1l-5 115h-254v-254h176l7 74l12 -1v-157l-12 1l-7 68h-176v-261h268l4 119l13 -1l2 -133h-386zM285 672l113 140l18 -5l-121 -157h-20l-121 157l18 5z" />
    <glyph glyph-name="ecircumflex.sc" horiz-adv-x="503" 
d="M65 0l1 10l78 4v532l-80 4l1 10h373l-2 -131l-13 1l-5 115h-254v-254h176l7 74l12 -1v-157l-12 1l-7 68h-176v-261h268l4 119l13 -1l2 -133h-386zM284 779l-113 -140l-18 5l121 157h20l121 -157l-18 -5z" />
    <glyph glyph-name="edieresis.sc" horiz-adv-x="503" 
d="M65 0l1 10l78 4v532l-80 4l1 10h373l-2 -131l-13 1l-5 115h-254v-254h176l7 74l12 -1v-157l-12 1l-7 68h-176v-261h268l4 119l13 -1l2 -133h-386zM154 721c0 12 13 28 27 28s29 -16 29 -29s-15 -28 -28 -28c-14 0 -28 14 -28 29zM364 721c0 12 13 28 27 28s29 -16 29 -29
s-15 -28 -28 -28c-14 0 -28 14 -28 29z" />
    <glyph glyph-name="edotaccent.sc" horiz-adv-x="503" 
d="M65 0l1 10l78 4v532l-80 4l1 10h373l-2 -131l-13 1l-5 115h-254v-254h176l7 74l12 -1v-157l-12 1l-7 68h-176v-261h268l4 119l13 -1l2 -133h-386zM321 720c0 -20 -17 -37 -37 -37s-37 17 -37 37s17 37 37 37s37 -17 37 -37z" />
    <glyph glyph-name="egrave.sc" horiz-adv-x="503" 
d="M65 0l1 10l78 4v532l-80 4l1 10h373l-2 -131l-13 1l-5 115h-254v-254h176l7 74l12 -1v-157l-12 1l-7 68h-176v-261h268l4 119l13 -1l2 -133h-386zM328 644l-18 -5l-127 157l24 5z" />
    <glyph glyph-name="emacron.sc" horiz-adv-x="503" 
d="M65 0l1 10l78 4v532l-80 4l1 10h373l-2 -131l-13 1l-5 115h-254v-254h176l7 74l12 -1v-157l-12 1l-7 68h-176v-261h268l4 119l13 -1l2 -133h-386zM117 699v18h328v-18h-328z" />
    <glyph glyph-name="eogonek.sc" horiz-adv-x="503" 
d="M65 0l1 10l78 4v532l-80 4l1 10h373l-2 -131l-13 1l-5 115h-254v-254h176l7 74l12 -1v-157l-12 1l-7 68h-176v-261h268l4 119l13 -1l2 -133c-39 -43 -59 -74 -61 -119c11 -23 29 -26 61 -31l-1 -13c-54 0 -76 23 -76 49c0 42 24 78 57 114h-366z" />
    <glyph glyph-name="gbreve.sc" horiz-adv-x="634" 
d="M506 0l-4 53c-45 -36 -104 -59 -178 -59c-156 0 -260 114 -260 284c0 190 122 289 287 289c62 0 128 -16 170 -35l6 -12l-13 -113l-14 1l7 111c-33 17 -99 31 -156 31s-97 -9 -149 -30c-84 -56 -118 -138 -118 -242c0 -162 94 -267 241 -267c72 0 126 20 175 62v140
l-132 5l1 11h217l-1 -12l-66 -4v-213h-13zM238 774h16c8 -55 45 -86 99 -86c48 0 85 27 98 86h14l3 -10c-14 -57 -60 -94 -115 -94c-60 0 -107 36 -118 95z" />
    <glyph glyph-name="gcircumflex.sc" horiz-adv-x="634" 
d="M506 0l-4 53c-45 -36 -104 -59 -178 -59c-156 0 -260 114 -260 284c0 190 122 289 287 289c62 0 128 -16 170 -35l6 -12l-13 -113l-14 1l7 111c-33 17 -99 31 -156 31s-97 -9 -149 -30c-84 -56 -118 -138 -118 -242c0 -162 94 -267 241 -267c72 0 126 20 175 62v140
l-132 5l1 11h217l-1 -12l-66 -4v-213h-13zM353 779l-113 -140l-18 5l121 157h20l121 -157l-18 -5z" />
    <glyph glyph-name="gcommaaccent.sc" horiz-adv-x="634" 
d="M506 0l-4 53c-45 -36 -104 -59 -178 -59c-156 0 -260 114 -260 284c0 190 122 289 287 289c62 0 128 -16 170 -35l6 -12l-13 -113l-14 1l7 111c-33 17 -99 31 -156 31s-97 -9 -149 -30c-84 -56 -118 -138 -118 -242c0 -162 94 -267 241 -267c72 0 126 20 175 62v140
l-132 5l1 11h217l-1 -12l-66 -4v-213h-13zM363 -106c0 -22 -21 -59 -49 -88l-13 13c14 16 27 34 33 51c-15 0 -28 13 -28 28c0 16 13 29 28 29c16 0 29 -13 29 -33z" />
    <glyph glyph-name="gdotaccent.sc" horiz-adv-x="634" 
d="M506 0l-4 53c-45 -36 -104 -59 -178 -59c-156 0 -260 114 -260 284c0 190 122 289 287 289c62 0 128 -16 170 -35l6 -12l-13 -113l-14 1l7 111c-33 17 -99 31 -156 31s-97 -9 -149 -30c-84 -56 -118 -138 -118 -242c0 -162 94 -267 241 -267c72 0 126 20 175 62v140
l-132 5l1 11h217l-1 -12l-66 -4v-213h-13zM390 720c0 -20 -17 -37 -37 -37s-37 17 -37 37s17 37 37 37s37 -17 37 -37z" />
    <glyph glyph-name="hcircumflex.sc" horiz-adv-x="640" 
d="M591 0h-162l1 10l70 4v264h-360v-264l73 -4l-1 -10h-164l1 10l71 4v532l-66 4l1 10h155l-1 -10l-69 -4v-251h360v251l-68 4v10h157l-1 -10l-69 -4v-532l73 -4zM337 779l-113 -140l-18 5l121 157h20l121 -157l-18 -5z" />
    <glyph glyph-name="iacute.sc" horiz-adv-x="327" 
d="M254 0h-181l1 10l77 4v532l-79 4l1 10h177v-10l-77 -4v-532l82 -4zM152 639l-18 5l121 157l24 -5z" />
    <glyph glyph-name="ibreve.sc" horiz-adv-x="327" 
d="M254 0h-181l1 10l77 4v532l-79 4l1 10h177v-10l-77 -4v-532l82 -4zM58 774h16c8 -55 45 -86 99 -86c48 0 85 27 98 86h14l3 -10c-14 -57 -60 -94 -115 -94c-60 0 -107 36 -118 95z" />
    <glyph glyph-name="icircumflex.sc" horiz-adv-x="327" 
d="M254 0h-181l1 10l77 4v532l-79 4l1 10h177v-10l-77 -4v-532l82 -4zM173 779l-113 -140l-18 5l121 157h20l121 -157l-18 -5z" />
    <glyph glyph-name="idieresis.sc" horiz-adv-x="327" 
d="M254 0h-181l1 10l77 4v532l-79 4l1 10h177v-10l-77 -4v-532l82 -4zM43 721c0 12 13 28 27 28s29 -16 29 -29s-15 -28 -28 -28c-14 0 -28 14 -28 29zM253 721c0 12 13 28 27 28s29 -16 29 -29s-15 -28 -28 -28c-14 0 -28 14 -28 29z" />
    <glyph glyph-name="igrave.sc" horiz-adv-x="327" 
d="M254 0h-181l1 10l77 4v532l-79 4l1 10h177v-10l-77 -4v-532l82 -4zM217 644l-18 -5l-127 157l24 5z" />
    <glyph glyph-name="imacron.sc" horiz-adv-x="327" 
d="M254 0h-181l1 10l77 4v532l-79 4l1 10h177v-10l-77 -4v-532l82 -4zM6 699v18h328v-18h-328z" />
    <glyph glyph-name="iogonek.sc" horiz-adv-x="327" 
d="M254 0h-82c-39 -43 -59 -74 -61 -119c11 -23 29 -26 61 -31l-1 -13c-54 0 -76 23 -76 49c0 42 24 78 57 114h-79l1 10l77 4v532l-79 4l1 10h177v-10l-77 -4v-532l82 -4z" />
    <glyph glyph-name="itilde.sc" horiz-adv-x="327" 
d="M254 0h-181l1 10l77 4v532l-79 4l1 10h177v-10l-77 -4v-532l82 -4zM5 686l-14 8c31 37 62 68 85 68c44 0 158 -70 202 -70l64 65l14 -7c-23 -31 -61 -73 -85 -73c-59 0 -161 69 -209 69z" />
    <glyph glyph-name="jcircumflex.sc" horiz-adv-x="327" 
d="M152 57v489l-82 4l1 10h184l-1 -10l-80 -4v-484c0 -74 -20 -115 -90 -165l-9 10c59 46 77 83 77 150zM174 779l-113 -140l-18 5l121 157h20l121 -157l-18 -5z" />
    <glyph glyph-name="kcommaaccent.sc" horiz-adv-x="568" 
d="M244 0h-172l1 10l70 4v532l-79 4l1 10h175l-1 -10l-75 -4v-257h27l250 257l-61 4l1 10h140l-1 -10l-55 -4l-254 -261v-5c61 -71 201 -211 283 -266l51 -4v-10h-64c-83 60 -220 195 -290 273h-27v-259l81 -4zM351 -106c0 -22 -21 -59 -49 -88l-13 13c14 16 27 34 33 51
c-15 0 -28 13 -28 28c0 16 13 29 28 29c16 0 29 -13 29 -33z" />
    <glyph glyph-name="lacute.sc" horiz-adv-x="460" 
d="M433 0h-369l1 10l78 4v532l-69 4l1 10h180l-1 -10l-91 -4v-531h249l7 135l13 -1zM153 639l-18 5l121 157l24 -5z" />
    <glyph glyph-name="lcaron.sc" horiz-adv-x="482" 
d="M433 0h-369l1 10l78 4v532l-69 4l1 10h180l-1 -10l-91 -4v-531h249l7 135l13 -1zM384 527c0 -22 -21 -59 -49 -88l-13 13c14 16 27 34 33 51c-15 0 -28 13 -28 28c0 16 13 29 28 29c16 0 29 -13 29 -33z" />
    <glyph glyph-name="lcommaaccent.sc" horiz-adv-x="460" 
d="M433 0h-369l1 10l78 4v532l-69 4l1 10h180l-1 -10l-91 -4v-531h249l7 135l13 -1zM303 -106c0 -22 -21 -59 -49 -88l-13 13c14 16 27 34 33 51c-15 0 -28 13 -28 28c0 16 13 29 28 29c16 0 29 -13 29 -33z" />
    <glyph glyph-name="ldot.sc" horiz-adv-x="482" 
d="M433 0h-369l1 10l78 4v532l-69 4l1 10h180l-1 -10l-91 -4v-531h249l7 135l13 -1zM444 289c0 -20 -17 -37 -37 -37s-37 17 -37 37s17 37 37 37s37 -17 37 -37z" />
    <glyph glyph-name="nacute.sc" horiz-adv-x="730" 
d="M65 560h102l413 -529v515l-79 4l1 10h176l-1 -10l-78 -4v-546h-18l-415 530v-516l89 -4l-1 -10h-188l1 10l81 4v532l-84 4zM347 639l-18 5l121 157l24 -5z" />
    <glyph glyph-name="ncaron.sc" horiz-adv-x="730" 
d="M65 560h102l413 -529v515l-79 4l1 10h176l-1 -10l-78 -4v-546h-18l-415 530v-516l89 -4l-1 -10h-188l1 10l81 4v532l-84 4zM369 672l113 140l18 -5l-121 -157h-20l-121 157l18 5z" />
    <glyph glyph-name="ncommaaccent.sc" horiz-adv-x="730" 
d="M65 560h102l413 -529v515l-79 4l1 10h176l-1 -10l-78 -4v-546h-18l-415 530v-516l89 -4l-1 -10h-188l1 10l81 4v532l-84 4zM393 -106c0 -22 -21 -59 -49 -88l-13 13c14 16 27 34 33 51c-15 0 -28 13 -28 28c0 16 13 29 28 29c16 0 29 -13 29 -33z" />
    <glyph glyph-name="ntilde.sc" horiz-adv-x="730" 
d="M65 560h102l413 -529v515l-79 4l1 10h176l-1 -10l-78 -4v-546h-18l-415 530v-516l89 -4l-1 -10h-188l1 10l81 4v532l-84 4zM200 686l-14 8c31 37 62 68 85 68c44 0 158 -70 202 -70l64 65l14 -7c-23 -31 -61 -73 -85 -73c-59 0 -161 69 -209 69z" />
    <glyph glyph-name="oacute.sc" horiz-adv-x="672" 
d="M332 567c179 0 276 -118 276 -287c0 -182 -104 -286 -275 -286c-152 0 -269 108 -269 279c0 180 113 294 268 294zM331 548c-69 0 -118 -20 -167 -57c-45 -52 -80 -116 -80 -219c0 -154 109 -260 249 -260c84 0 138 23 190 66c39 53 65 113 65 201
c0 159 -88 269 -257 269zM322 639l-18 5l121 157l24 -5z" />
    <glyph glyph-name="obreve.sc" horiz-adv-x="672" 
d="M332 567c179 0 276 -118 276 -287c0 -182 -104 -286 -275 -286c-152 0 -269 108 -269 279c0 180 113 294 268 294zM331 548c-69 0 -118 -20 -167 -57c-45 -52 -80 -116 -80 -219c0 -154 109 -260 249 -260c84 0 138 23 190 66c39 53 65 113 65 201
c0 159 -88 269 -257 269zM228 774h16c8 -55 45 -86 99 -86c48 0 85 27 98 86h14l3 -10c-14 -57 -60 -94 -115 -94c-60 0 -107 36 -118 95z" />
    <glyph glyph-name="ocircumflex.sc" horiz-adv-x="672" 
d="M332 567c179 0 276 -118 276 -287c0 -182 -104 -286 -275 -286c-152 0 -269 108 -269 279c0 180 113 294 268 294zM331 548c-69 0 -118 -20 -167 -57c-45 -52 -80 -116 -80 -219c0 -154 109 -260 249 -260c84 0 138 23 190 66c39 53 65 113 65 201
c0 159 -88 269 -257 269zM343 779l-113 -140l-18 5l121 157h20l121 -157l-18 -5z" />
    <glyph glyph-name="odieresis.sc" horiz-adv-x="672" 
d="M332 567c179 0 276 -118 276 -287c0 -182 -104 -286 -275 -286c-152 0 -269 108 -269 279c0 180 113 294 268 294zM331 548c-69 0 -118 -20 -167 -57c-45 -52 -80 -116 -80 -219c0 -154 109 -260 249 -260c84 0 138 23 190 66c39 53 65 113 65 201
c0 159 -88 269 -257 269zM213 721c0 12 13 28 27 28s29 -16 29 -29s-15 -28 -28 -28c-14 0 -28 14 -28 29zM423 721c0 12 13 28 27 28s29 -16 29 -29s-15 -28 -28 -28c-14 0 -28 14 -28 29z" />
    <glyph glyph-name="ograve.sc" horiz-adv-x="672" 
d="M332 567c179 0 276 -118 276 -287c0 -182 -104 -286 -275 -286c-152 0 -269 108 -269 279c0 180 113 294 268 294zM331 548c-69 0 -118 -20 -167 -57c-45 -52 -80 -116 -80 -219c0 -154 109 -260 249 -260c84 0 138 23 190 66c39 53 65 113 65 201
c0 159 -88 269 -257 269zM387 644l-18 -5l-127 157l24 5z" />
    <glyph glyph-name="ohungarumlaut.sc" horiz-adv-x="672" 
d="M332 567c179 0 276 -118 276 -287c0 -182 -104 -286 -275 -286c-152 0 -269 108 -269 279c0 180 113 294 268 294zM331 548c-69 0 -118 -20 -167 -57c-45 -52 -80 -116 -80 -219c0 -154 109 -260 249 -260c84 0 138 23 190 66c39 53 65 113 65 201
c0 159 -88 269 -257 269zM263 638l-18 3l91 161l26 -4zM415 640l-19 4l121 157l24 -5z" />
    <glyph glyph-name="omacron.sc" horiz-adv-x="672" 
d="M332 567c179 0 276 -118 276 -287c0 -182 -104 -286 -275 -286c-152 0 -269 108 -269 279c0 180 113 294 268 294zM331 548c-69 0 -118 -20 -167 -57c-45 -52 -80 -116 -80 -219c0 -154 109 -260 249 -260c84 0 138 23 190 66c39 53 65 113 65 201
c0 159 -88 269 -257 269zM176 699v18h328v-18h-328z" />
    <glyph glyph-name="otilde.sc" horiz-adv-x="672" 
d="M332 567c179 0 276 -118 276 -287c0 -182 -104 -286 -275 -286c-152 0 -269 108 -269 279c0 180 113 294 268 294zM331 548c-69 0 -118 -20 -167 -57c-45 -52 -80 -116 -80 -219c0 -154 109 -260 249 -260c84 0 138 23 190 66c39 53 65 113 65 201
c0 159 -88 269 -257 269zM175 686l-14 8c31 37 62 68 85 68c44 0 158 -70 202 -70l64 65l14 -7c-23 -31 -61 -73 -85 -73c-59 0 -161 69 -209 69z" />
    <glyph glyph-name="oslashacute.sc" horiz-adv-x="672" 
d="M319 639l-18 5l121 157l24 -5zM114 -39l57 81c-66 48 -107 129 -107 231c0 180 113 295 268 295c71 0 129 -19 173 -52l67 95l16 -10l-68 -97c57 -51 88 -130 88 -224c0 -182 -104 -288 -275 -288c-54 0 -104 14 -145 39l-57 -80zM331 549c-73 0 -121 -23 -173 -63
c-43 -53 -74 -115 -74 -214c0 -91 39 -167 99 -213l311 441c-41 31 -96 49 -163 49zM588 279c0 87 -27 161 -79 209l-310 -441c40 -25 84 -37 134 -37c78 0 137 26 189 68c40 55 66 114 66 201z" />
    <glyph glyph-name="racute.sc" horiz-adv-x="581" 
d="M241 0h-170l1 10l74 4v532l-79 4v10h220c118 0 181 -67 181 -163c0 -84 -62 -138 -147 -151c32 -73 105 -184 151 -232l56 -4l-1 -10h-67c-50 53 -124 169 -160 244c-7 -1 -14 -1 -21 -1h-113v-229l76 -4zM279 544h-113v-285h75c94 0 131 11 174 46c22 26 35 52 35 90
c0 87 -53 149 -171 149zM262 639l-18 5l121 157l24 -5z" />
    <glyph glyph-name="rcaron.sc" horiz-adv-x="581" 
d="M241 0h-170l1 10l74 4v532l-79 4v10h220c118 0 181 -67 181 -163c0 -84 -62 -138 -147 -151c32 -73 105 -184 151 -232l56 -4l-1 -10h-67c-50 53 -124 169 -160 244c-7 -1 -14 -1 -21 -1h-113v-229l76 -4zM279 544h-113v-285h75c94 0 131 11 174 46c22 26 35 52 35 90
c0 87 -53 149 -171 149zM284 672l113 140l18 -5l-121 -157h-20l-121 157l18 5z" />
    <glyph glyph-name="rcommaaccent.sc" horiz-adv-x="581" 
d="M241 0h-170l1 10l74 4v532l-79 4v10h220c118 0 181 -67 181 -163c0 -84 -62 -138 -147 -151c32 -73 105 -184 151 -232l56 -4l-1 -10h-67c-50 53 -124 169 -160 244c-7 -1 -14 -1 -21 -1h-113v-229l76 -4zM279 544h-113v-285h75c94 0 131 11 174 46c22 26 35 52 35 90
c0 87 -53 149 -171 149zM365 -106c0 -22 -21 -59 -49 -88l-13 13c14 16 27 34 33 51c-15 0 -28 13 -28 28c0 16 13 29 28 29c16 0 29 -13 29 -33z" />
    <glyph glyph-name="sacute.sc" horiz-adv-x="517" 
d="M276 567c50 0 84 -7 128 -19l4 -9l-12 -100l-14 1l5 93c-26 9 -79 17 -111 17c-41 0 -84 -9 -126 -34c-21 -23 -34 -48 -34 -82c0 -73 37 -98 149 -141c119 -45 164 -95 164 -169c0 -67 -61 -130 -183 -130c-74 0 -111 12 -155 30l-3 11l15 146l15 -1l-10 -144
c35 -15 81 -26 138 -26c41 0 88 10 130 36c22 25 34 48 34 77c0 64 -37 111 -149 151c-120 44 -166 81 -166 159c0 83 80 134 181 134zM265 638l-18 5l121 157l24 -5z" />
    <glyph glyph-name="scaron.sc" horiz-adv-x="517" 
d="M276 567c50 0 84 -7 128 -19l4 -9l-12 -100l-14 1l5 93c-26 9 -79 17 -111 17c-41 0 -84 -9 -126 -34c-21 -23 -34 -48 -34 -82c0 -73 37 -98 149 -141c119 -45 164 -95 164 -169c0 -67 -61 -130 -183 -130c-74 0 -111 12 -155 30l-3 11l15 146l15 -1l-10 -144
c35 -15 81 -26 138 -26c41 0 88 10 130 36c22 25 34 48 34 77c0 64 -37 111 -149 151c-120 44 -166 81 -166 159c0 83 80 134 181 134zM287 671l113 140l18 -5l-121 -157h-20l-121 157l18 5z" />
    <glyph glyph-name="scedilla.sc" horiz-adv-x="517" 
d="M276 568c50 0 84 -8 128 -20l4 -9l-12 -100l-14 1l5 93c-26 9 -79 17 -111 17c-42 0 -86 -10 -129 -36c-21 -25 -31 -46 -31 -80c0 -73 37 -98 149 -141c119 -45 164 -95 164 -169c0 -63 -54 -124 -162 -131l-42 -64c49 0 78 -24 78 -52c0 -48 -37 -76 -93 -97l-7 17
c49 17 80 41 80 78c0 23 -23 38 -73 38l-7 13l42 66c-74 0 -110 14 -154 32l-3 11l15 146l15 -1l-10 -144c35 -15 81 -26 138 -26c42 0 88 9 130 36c22 26 34 48 34 77c0 64 -37 111 -149 151c-120 44 -166 81 -166 159c0 83 80 135 181 135z" />
    <glyph glyph-name="scircumflex.sc" horiz-adv-x="517" 
d="M276 567c50 0 84 -7 128 -19l4 -9l-12 -100l-14 1l5 93c-26 9 -79 17 -111 17c-41 0 -84 -9 -126 -34c-21 -23 -34 -48 -34 -82c0 -73 37 -98 149 -141c119 -45 164 -95 164 -169c0 -67 -61 -130 -183 -130c-74 0 -111 12 -155 30l-3 11l15 146l15 -1l-10 -144
c35 -15 81 -26 138 -26c41 0 88 10 130 36c22 25 34 48 34 77c0 64 -37 111 -149 151c-120 44 -166 81 -166 159c0 83 80 134 181 134zM286 778l-113 -140l-18 5l121 157h20l121 -157l-18 -5z" />
    <glyph glyph-name="scommaaccent.sc" horiz-adv-x="517" 
d="M276 567c50 0 84 -7 128 -19l4 -9l-12 -100l-14 1l5 93c-26 9 -79 17 -111 17c-41 0 -84 -9 -126 -34c-21 -23 -34 -48 -34 -82c0 -73 37 -98 149 -141c119 -45 164 -95 164 -169c0 -67 -61 -130 -183 -130c-74 0 -111 12 -155 30l-3 11l15 146l15 -1l-10 -144
c35 -15 81 -26 138 -26c41 0 88 10 130 36c22 25 34 48 34 77c0 64 -37 111 -149 151c-120 44 -166 81 -166 159c0 83 80 134 181 134zM304 -106c0 -22 -21 -59 -49 -88l-13 13c14 16 27 34 33 51c-15 0 -28 13 -28 28c0 16 13 29 28 29c16 0 29 -13 29 -33z" />
    <glyph glyph-name="tcaron.sc" horiz-adv-x="523" 
d="M31 560h461l-3 -134l-12 1l-4 117h-201v-530l86 -4l-1 -10h-191l1 10l85 4v530h-202l-4 -118l-12 -1zM268 666l113 140l18 -5l-121 -157h-20l-121 157l18 5z" />
    <glyph glyph-name="tbar.sc" horiz-adv-x="523" 
d="M31 560h461l-3 -134l-12 1l-4 117h-201v-271h162v-16h-162v-243l86 -4l-1 -10h-191l1 10l85 4v243h-162v16h162v271h-202l-4 -118l-12 -1z" />
    <glyph glyph-name="tcommaaccent.sc" horiz-adv-x="523" 
d="M31 560h461l-3 -134l-12 1l-4 117h-201v-530l86 -4l-1 -10h-191l1 10l85 4v530h-202l-4 -118l-12 -1zM302 -106c0 -22 -21 -59 -49 -88l-13 13c14 16 27 34 33 51c-15 0 -28 13 -28 28c0 16 13 29 28 29c16 0 29 -13 29 -33z" />
    <glyph glyph-name="uacute.sc" horiz-adv-x="654" 
d="M530 546v-333c0 -143 -39 -219 -194 -219c-151 0 -201 79 -201 219v333l-74 4l1 10h164l-1 -10l-70 -4v-328c0 -138 42 -207 181 -207c58 0 102 12 138 41c27 39 39 81 39 166v328l-71 4l1 10h159l-1 -10zM320 639l-18 5l121 157l24 -5z" />
    <glyph glyph-name="ubreve.sc" horiz-adv-x="654" 
d="M530 546v-333c0 -143 -39 -219 -194 -219c-151 0 -201 79 -201 219v333l-74 4l1 10h164l-1 -10l-70 -4v-328c0 -138 42 -207 181 -207c58 0 102 12 138 41c27 39 39 81 39 166v328l-71 4l1 10h159l-1 -10zM226 774h16c8 -55 45 -86 99 -86c48 0 85 27 98 86h14l3 -10
c-14 -57 -60 -94 -115 -94c-60 0 -107 36 -118 95z" />
    <glyph glyph-name="ucircumflex.sc" horiz-adv-x="654" 
d="M530 546v-333c0 -143 -39 -219 -194 -219c-151 0 -201 79 -201 219v333l-74 4l1 10h164l-1 -10l-70 -4v-328c0 -138 42 -207 181 -207c58 0 102 12 138 41c27 39 39 81 39 166v328l-71 4l1 10h159l-1 -10zM341 779l-113 -140l-18 5l121 157h20l121 -157l-18 -5z" />
    <glyph glyph-name="udieresis.sc" horiz-adv-x="654" 
d="M530 546v-333c0 -143 -39 -219 -194 -219c-151 0 -201 79 -201 219v333l-74 4l1 10h164l-1 -10l-70 -4v-328c0 -138 42 -207 181 -207c58 0 102 12 138 41c27 39 39 81 39 166v328l-71 4l1 10h159l-1 -10zM211 721c0 12 13 28 27 28s29 -16 29 -29s-15 -28 -28 -28
c-14 0 -28 14 -28 29zM421 721c0 12 13 28 27 28s29 -16 29 -29s-15 -28 -28 -28c-14 0 -28 14 -28 29z" />
    <glyph glyph-name="uhungarumlaut.sc" horiz-adv-x="654" 
d="M530 546v-333c0 -143 -39 -219 -194 -219c-151 0 -201 79 -201 219v333l-74 4l1 10h164l-1 -10l-70 -4v-328c0 -138 42 -207 181 -207c58 0 102 12 138 41c27 39 39 81 39 166v328l-71 4l1 10h159l-1 -10zM261 638l-18 3l91 161l26 -4zM413 640l-19 4l121 157l24 -5z" />
    <glyph glyph-name="umacron.sc" horiz-adv-x="654" 
d="M530 546v-333c0 -143 -39 -219 -194 -219c-151 0 -201 79 -201 219v333l-74 4l1 10h164l-1 -10l-70 -4v-328c0 -138 42 -207 181 -207c58 0 102 12 138 41c27 39 39 81 39 166v328l-71 4l1 10h159l-1 -10zM174 699v18h328v-18h-328z" />
    <glyph glyph-name="uogonek.sc" horiz-adv-x="654" 
d="M530 546v-333c0 -108 -23 -179 -100 -207c-37 -41 -56 -72 -58 -116c11 -23 29 -26 61 -31l-1 -13c-54 0 -76 23 -76 49c0 38 19 71 47 103c-19 -4 -42 -6 -67 -6c-151 0 -201 81 -201 221v333l-74 4l1 10h164l-1 -10l-70 -4v-328c0 -138 42 -209 181 -209
c58 0 101 14 139 44c26 39 38 81 38 165v328l-71 4l1 10h159l-1 -10z" />
    <glyph glyph-name="uring.sc" horiz-adv-x="654" 
d="M259 728c0 46 36 82 82 82s82 -36 82 -82s-36 -82 -82 -82s-82 36 -82 82zM277 727c0 -35 30 -64 64 -64s64 29 64 64c0 32 -30 64 -64 64s-64 -29 -64 -64zM530 546v-333c0 -143 -39 -219 -194 -219c-151 0 -201 79 -201 219v333l-74 4l1 10h164l-1 -10l-70 -4v-328
c0 -138 42 -207 181 -207c58 0 102 12 138 41c27 39 39 81 39 166v328l-71 4l1 10h159l-1 -10z" />
    <glyph glyph-name="utilde.sc" horiz-adv-x="654" 
d="M530 546v-333c0 -143 -39 -219 -194 -219c-151 0 -201 79 -201 219v333l-74 4l1 10h164l-1 -10l-70 -4v-328c0 -138 42 -207 181 -207c58 0 102 12 138 41c27 39 39 81 39 166v328l-71 4l1 10h159l-1 -10zM173 686l-14 8c31 37 62 68 85 68c44 0 158 -70 202 -70l64 65
l14 -7c-23 -31 -61 -73 -85 -73c-59 0 -161 69 -209 69z" />
    <glyph glyph-name="wacute.sc" horiz-adv-x="922" 
d="M833 546l-194 -546h-30l-155 423l-152 -423h-30l-191 546l-66 4l1 10h168l-1 -10l-80 -4l185 -529h1l155 433l-35 96l-73 4l1 10h195l-1 -10l-100 -4l193 -530h2l188 530l-87 4l1 10h179l-1 -10zM420 639l-18 5l121 157l24 -5z" />
    <glyph glyph-name="wcircumflex.sc" horiz-adv-x="922" 
d="M833 546l-194 -546h-30l-155 423l-152 -423h-30l-191 546l-66 4l1 10h168l-1 -10l-80 -4l185 -529h1l155 433l-35 96l-73 4l1 10h195l-1 -10l-100 -4l193 -530h2l188 530l-87 4l1 10h179l-1 -10zM441 779l-113 -140l-18 5l121 157h20l121 -157l-18 -5z" />
    </font>
</defs>
</svg>
