<?xml version="1.0" standalone="no"?>
<!DOCTYPE svg PUBLIC "-//W3C//DTD SVG 1.1//EN" "http://www.w3.org/Graphics/SVG/1.1/DTD/svg11.dtd" >
<svg xmlns="http://www.w3.org/2000/svg" xmlns:xlink="http://www.w3.org/1999/xlink" version="1.1">
<metadata>
Created by FontForge 20230101 at Wed Oct 28 13:53:46 2020
 By Glenn Lewis
Copyright 2020 The Josefin Slab Project Authors (https://github.com/googlefonts/josefinslab/), with Reserved Font Name Josefin.
</metadata>
<defs>
<font id="JosefinSlab-Thin" horiz-adv-x="244" >
  <font-face 
    font-family="Josefin Slab Thin"
    font-weight="250"
    font-stretch="normal"
    units-per-em="1000"
    panose-1="2 0 0 0 0 0 0 0 0 0"
    ascent="750"
    descent="-250"
    x-height="375"
    cap-height="700"
    bbox="-14 -250 1185 931"
    underline-thickness="50"
    underline-position="-100"
    unicode-range="U+000D-2215"
  />
<missing-glyph horiz-adv-x="300" 
 />
    <glyph glyph-name=".notdef" horiz-adv-x="300" 
 />
    <glyph glyph-name=".null" horiz-adv-x="0" 
 />
    <glyph glyph-name="nonmarkingreturn" unicode="&#xd;" horiz-adv-x="300" 
 />
    <glyph glyph-name="space" unicode=" " horiz-adv-x="300" 
 />
    <glyph glyph-name="exclam" unicode="!" horiz-adv-x="201" 
d="M120 56q0 9 -6 14.5t-14 5.5q-7 0 -13 -5.5t-6 -14.5q0 -8 6 -14t13 -6q8 0 14 6t6 14zM107 166v584h-14v-584h14z" />
    <glyph glyph-name="quotedbl" unicode="&#x22;" horiz-adv-x="293" 
d="M210 472q1 63 2 124t2 124h-18v-248h14zM77 472q1 63 2 124t2 124h-18v-248h14z" />
    <glyph glyph-name="numbersign" unicode="#" horiz-adv-x="571" 
d="M182 407h170l-20 -168h-170zM134 0l26 225h170l-26 -225h14l26 225h136l1 14h-135l20 168h137l1 14h-136l27 222h-14l-27 -222h-170l27 222h-14l-27 -222h-117l-1 -14h116l-20 -168h-118l-1 -14h117l-26 -225h14z" />
    <glyph glyph-name="dollar" unicode="$" horiz-adv-x="567" 
d="M245 -68v60q43 1 80.5 15t65.5 40q28 25 44 60t15 79q-1 52 -19.5 85t-47.5 54q-29 20 -65.5 32t-72.5 23v310q45 -2 76.5 -12.5t50.5 -24.5v-107h14v114q-30 26 -69.5 34.5t-71.5 9.5v60h-13v-60q-45 -1 -77.5 -18t-52.5 -44t-29 -59.5t-7 -65.5q2 -38 16.5 -62.5
t37.5 -40.5q23 -17 52 -27.5t60 -19.5v-361q-60 1 -102 20t-70 48v90h-14v-100q9 -9 24.5 -21t38.5 -23t53.5 -19t69.5 -9v-60h13zM245 363q35 -10 69.5 -21t61.5 -30q27 -20 43.5 -51t16.5 -79q0 -39 -16 -71t-42 -54q-27 -23 -61.5 -36.5t-71.5 -14.5v357zM80 530
q0 30 9.5 58.5t28.5 51.5q19 22 47.5 35.5t66.5 14.5v-307q-30 9 -57.5 19.5t-48.5 27.5q-21 16 -33.5 40t-12.5 60z" />
    <glyph glyph-name="percent" unicode="%" horiz-adv-x="726" 
d="M454 46q-13 12 -20.5 29t-7.5 37q0 19 7.5 36.5t20.5 30.5t30.5 20.5t37.5 7.5t37.5 -7.5t30.5 -20.5t20.5 -30.5t7.5 -36.5q0 -20 -7.5 -37t-20.5 -29q-13 -13 -30.5 -20.5t-37.5 -7.5t-37.5 7.5t-30.5 20.5zM599 36q15 14 24 34t9 43q0 22 -9 42t-24 35
q-15 14 -35 22.5t-42 8.5q-23 0 -43 -8.5t-35 -22.5q-15 -15 -23.5 -35t-8.5 -42q0 -23 8.5 -43t23.5 -34q15 -15 35 -23.5t43 -8.5q22 0 42 8.5t35 23.5zM150 322q-13 12 -20.5 29t-7.5 37q0 19 7.5 36.5t20.5 30.5t30.5 20.5t37.5 7.5t37.5 -7.5t30.5 -20.5t20.5 -30.5
t7.5 -36.5q0 -20 -7.5 -37t-20.5 -29q-13 -13 -30.5 -20.5t-37.5 -7.5t-37.5 7.5t-30.5 20.5zM295 312q15 14 24 34t9 43q0 22 -9 42t-24 35q-15 14 -35 22.5t-42 8.5q-23 0 -43 -8.5t-35 -22.5q-15 -15 -23.5 -35t-8.5 -42q0 -23 8.5 -43t23.5 -34q15 -15 35 -23.5t43 -8.5
q22 0 42 8.5t35 23.5zM224 0q75 126 149 250t149 250h-16q-75 -126 -149 -250t-149 -250h16z" />
    <glyph glyph-name="ampersand" unicode="&#x26;" horiz-adv-x="700" 
d="M300 -7q49 0 90 21.5t67 57.5l57 -91l11 8l-59 95q13 22 19 45t9 47q2 24 1.5 48.5t-0.5 49.5v87h106v14h-120v-188q0 -25 -6.5 -47t-17.5 -42l-249 406q-17 27 -24 56.5t-2 57.5q4 27 21 52t48 45q25 16 50.5 19.5t50.5 -1.5t49 -16t47 -24l6 13q-19 12 -43.5 23
t-52.5 16t-57.5 1.5t-57.5 -20.5q-33 -20 -51 -47t-23 -58t2.5 -63t25.5 -62l72 -117q-35 -6 -65 -23t-51 -42q-22 -26 -34.5 -58.5t-12.5 -68.5q0 -41 15 -76t42 -61q26 -27 61 -42t76 -15zM300 7q-38 0 -70.5 14t-56.5 39q-25 24 -39 56.5t-14 70.5q0 34 12 65t33 55
t50 39.5t62 19.5l172 -281q-24 -35 -63 -56.5t-86 -21.5z" />
    <glyph glyph-name="quotesingle" unicode="'" horiz-adv-x="147" 
d="M81 472q1 63 2 124t2 124h-18v-248h14z" />
    <glyph glyph-name="parenleft" unicode="(" horiz-adv-x="394" 
d="M315 -140q-29 33 -56.5 78t-49.5 100t-35 119t-13 135t13 135t35 119t49.5 100t56.5 78q-1 6 -1.5 11.5t-1.5 11.5q-32 -33 -61.5 -80.5t-52.5 -105.5t-37 -126t-14 -143t14 -143t37 -126t52.5 -105.5t61.5 -80.5q1 6 1.5 11.5t1.5 11.5z" />
    <glyph glyph-name="parenright" unicode=")" horiz-adv-x="400" 
d="M228 23q23 58 37 126t14 143t-14 143t-37 126t-53 105.5t-61 80.5q-1 -6 -1.5 -11.5t-1.5 -11.5q29 -33 56.5 -78t49.5 -100t35 -119t13 -135t-13 -135t-35 -119t-49.5 -100t-56.5 -78q1 -6 1.5 -11.5t1.5 -11.5q31 33 61 80.5t53 105.5z" />
    <glyph glyph-name="asterisk" unicode="*" horiz-adv-x="335" 
d="M172 434q1 32 1 64t1 64l55.5 -33l55.5 -33l9 15l-112 64q29 17 56.5 33t56.5 33l-7 12q-29 -16 -57 -32t-57 -32q1 33 1 65.5t1 65.5h-18v-131q-28 17 -56 32.5t-56 32.5l-7 -12l55.5 -33l55.5 -33l-55.5 -31.5l-55.5 -31.5l9 -15q28 16 55 31.5t55 31.5v-127h14z" />
    <glyph glyph-name="plus" unicode="+" horiz-adv-x="543" 
d="M273 51v174h173v14h-173v172h-14v-172h-173v-14h173v-174h14z" />
    <glyph glyph-name="comma" unicode="," horiz-adv-x="200" 
d="M41 -120q22 52 43 103t43 103h-23q-20 -52 -38.5 -103t-38.5 -103h14z" />
    <glyph glyph-name="hyphen" unicode="-" horiz-adv-x="300" 
d="M237 184v14h-184v-14h184z" />
    <glyph glyph-name="hyphen" unicode="&#xad;" horiz-adv-x="300" 
d="M237 184v14h-184v-14h184z" />
    <glyph glyph-name="hyphen" unicode="&#xad;" horiz-adv-x="300" 
d="M237 184v14h-184v-14h184z" />
    <glyph glyph-name="period" unicode="." horiz-adv-x="163" 
d="M106 20q0 8 -6 14t-14 6t-14 -6t-6 -14t6 -14t14 -6t14 6t6 14z" />
    <glyph glyph-name="slash" unicode="/" horiz-adv-x="322" 
d="M31 -19q70 190 139 377.5t139 377.5h-14q-70 -190 -139 -377.5t-139 -377.5h14z" />
    <glyph glyph-name="zero" unicode="0" horiz-adv-x="616" 
d="M492 89q37 45 59 105.5t22 129.5q0 48 -13.5 106t-44.5 109q-31 50 -82 84.5t-125 34.5q-75 0 -127 -33.5t-84 -83.5q-32 -51 -46.5 -108.5t-14.5 -105.5q0 -70 20.5 -130.5t56.5 -105.5t84.5 -71.5t103.5 -26.5t104.5 25.5t86.5 70.5zM128 95q-35 42 -56 101t-21 132
t20 131.5t55 100.5q34 41 80.5 62.5t100.5 21.5t100 -23t80 -64q34 -42 53 -101.5t19 -132.5q0 -72 -22 -131t-58 -100t-82 -63t-94 -22t-94 23t-81 65z" />
    <glyph glyph-name="one" unicode="1" horiz-adv-x="249" 
d="M241 0v14h-80v636h-127v-14h113v-622h-80v-14h174z" />
    <glyph glyph-name="two" unicode="2" horiz-adv-x="495" 
d="M449 0v127h-14v-113h-346q52 54 107.5 109.5t101.5 111.5t75.5 113.5t29.5 115.5q0 42 -12.5 77.5t-35.5 61.5q-24 26 -56 40.5t-71 14.5q-43 0 -76.5 -14.5t-55.5 -39.5q-23 -26 -34.5 -60.5t-11.5 -74.5q0 -41 12 -69.5t33 -52.5l9 8q-20 22 -30 50.5t-10 63.5
q0 26 7 56.5t26 57.5q18 26 49.5 43.5t81.5 17.5q25 0 53 -9t52 -31t40 -59t16 -93q0 -47 -28.5 -100.5t-74.5 -110.5q-47 -58 -108 -118.5t-125 -122.5h396z" />
    <glyph glyph-name="three" unicode="3" horiz-adv-x="515" 
d="M386 52q28 27 44 64t16 79q0 45 -18 83.5t-48 65.5q-31 27 -71.5 41.5t-85.5 12.5l199 252h-319v-82h14v68h273l-212 -275q14 11 29.5 17t31.5 6q39 0 74.5 -15t61.5 -40q26 -26 41.5 -60.5t15.5 -73.5q0 -38 -15.5 -72.5t-41.5 -60.5t-61.5 -41t-74.5 -15q-42 0 -77 18
t-59 47l-10 -13q28 -30 66 -48t83 -18q42 0 79 16t65 44z" />
    <glyph glyph-name="four" unicode="4" horiz-adv-x="505" 
d="M486 0v14h-83v169h97v14h-97v461l-366 -475h352v-169h-77v-14h174zM389 617v-420h-322z" />
    <glyph glyph-name="five" unicode="5" horiz-adv-x="543" 
d="M400 52q27 27 43.5 64t16.5 79t-16.5 78.5t-43.5 63.5q-28 27 -65.5 42.5t-79.5 15.5q-26 0 -50.5 -6t-47.5 -17v264h259v-68h14v82h-287v-309q17 17 46 28.5t64 11.5q40 0 75 -14.5t61 -39.5q26 -26 41.5 -59.5t15.5 -72.5q0 -38 -15.5 -72.5t-41.5 -60.5t-61 -41
t-75 -15q-38 0 -70.5 13.5t-56.5 38.5l-11 -10q28 -26 63.5 -41t76.5 -15q42 0 79.5 16t65.5 44z" />
    <glyph glyph-name="six" unicode="6" horiz-adv-x="520" 
d="M119 61q-26 25 -41 59t-15 73t15 73t41 60q25 25 60 40t74 15t74 -15t61 -40q26 -26 41 -60t15 -73t-15 -73t-41 -59q-26 -26 -61 -40.5t-74 -14.5t-74 14.5t-60 40.5zM399 51q27 27 43 63.5t16 78.5t-16 78.5t-43 64.5q-28 27 -65.5 43t-79.5 16q-51 0 -93 -22t-70 -59
q12 28 35.5 62.5t60.5 74.5q36 39 87 82t118 87q-2 3 -5 6.5t-5 6.5q-56 -41 -115 -87.5t-107 -100.5t-79 -116.5t-31 -135.5q0 -42 16 -78.5t44 -63.5q27 -27 64.5 -43t79.5 -16t79.5 16t65.5 43z" />
    <glyph glyph-name="seven" unicode="7" horiz-adv-x="469" 
d="M123 0l292 650h-401v-82h14v68h364l-287 -636h18z" />
    <glyph glyph-name="eight" unicode="8" horiz-adv-x="510" 
d="M160 429q-18 15 -28 36t-10 46q0 27 10 51t28 42t42 29t52 11q27 0 50.5 -11t41.5 -29q17 -18 26.5 -42t9.5 -51q0 -25 -9.5 -46t-26.5 -36q-18 -16 -41.5 -24.5t-50.5 -8.5q-28 0 -52 8.5t-42 24.5zM121 62q-25 26 -39.5 60.5t-14.5 72.5q0 39 14.5 72.5t39.5 59.5
q25 25 59 39.5t73 14.5q40 0 75 -14.5t61 -39.5q26 -26 41.5 -59.5t15.5 -72.5q0 -38 -15.5 -72.5t-41.5 -60.5t-61 -41.5t-75 -15.5q-39 0 -73 15.5t-59 41.5zM400 52q27 27 43.5 64t16.5 79q0 36 -12 67.5t-33 57.5q-21 25 -49.5 43t-61.5 26q41 14 66.5 47.5t25.5 77.5
q0 30 -11.5 56t-30.5 46q-20 19 -46 30.5t-56 11.5t-56 -11t-45 -30q-20 -19 -31.5 -44.5t-11.5 -54.5q0 -46 27 -80.5t69 -48.5q-33 -8 -60.5 -26.5t-47.5 -43.5q-20 -26 -31.5 -57.5t-11.5 -66.5q0 -42 16 -79t44 -64q27 -28 63.5 -44t78.5 -16t79.5 16t65.5 44z" />
    <glyph glyph-name="nine" unicode="9" horiz-adv-x="525" 
d="M125 299q-26 25 -41 59.5t-15 73.5t15 73t41 60q26 25 61 39.5t74 14.5t74 -14.5t61 -39.5q25 -26 40 -60t15 -73t-15 -73.5t-40 -59.5q-26 -26 -61 -40.5t-74 -14.5t-74 14.5t-61 40.5zM353 180q48 54 79 116.5t31 135.5q0 42 -16 78.5t-43 63.5q-28 27 -65.5 43
t-79.5 16t-79.5 -16t-64.5 -43q-28 -27 -44 -63.5t-16 -78.5t16 -78.5t44 -63.5q27 -28 64.5 -44t79.5 -16q51 0 93 22t70 59q-12 -28 -35.5 -62.5t-59.5 -73.5q-37 -40 -88 -83t-118 -87q2 -3 5 -6.5t5 -6.5q56 41 115 87.5t107 100.5z" />
    <glyph glyph-name="colon" unicode=":" horiz-adv-x="175" 
d="M105 270q0 8 -6 14t-14 6t-14 -6t-6 -14t6 -14t14 -6t14 6t6 14zM105 20q0 8 -6 14t-14 6t-14 -6t-6 -14t6 -14t14 -6t14 6t6 14z" />
    <glyph glyph-name="semicolon" unicode=";" horiz-adv-x="201" 
d="M128 270q0 8 -6 14t-14 6t-14 -6t-6 -14t6 -14t14 -6t14 6t6 14zM26 -120q22 52 43 103t43 103h-23q-20 -52 -38.5 -103t-38.5 -103h14z" />
    <glyph glyph-name="less" unicode="&#x3c;" horiz-adv-x="680" 
d="M553 1q-103 60 -206 118.5t-206 118.5q103 60 206 118.5t206 118.5v16q-110 -63 -219 -126.5t-219 -126.5q110 -63 219 -126.5t219 -126.5v16z" />
    <glyph glyph-name="equal" unicode="=" horiz-adv-x="708" 
d="M606 150v14h-506v-14h506zM606 344v14h-506v-14h506z" />
    <glyph glyph-name="greater" unicode="&#x3e;" horiz-adv-x="650" 
d="M553 238q-110 63 -219 126.5t-219 126.5v-16q103 -60 206 -118.5t206 -118.5q-103 -60 -206 -118.5t-206 -118.5v-16q110 63 219 126.5t219 126.5z" />
    <glyph glyph-name="question" unicode="?" horiz-adv-x="452" 
d="M222 164v78q0 33 7 52t19 31q13 12 29.5 21.5t36.5 23.5q45 32 71.5 72.5t26.5 94.5q0 40 -15 75.5t-41 61.5q-27 27 -63 42.5t-77 15.5q-32 0 -61.5 -10t-53.5 -27q-24 -18 -42 -42.5t-28 -53.5q3 -1 6.5 -1.5t6.5 -1.5q9 27 25.5 49.5t39.5 38.5t50 25t57 9
q38 0 71.5 -13.5t58.5 -38.5q24 -24 38 -57t14 -72q0 -37 -14 -69.5t-45 -59.5q-24 -21 -47.5 -35.5t-41.5 -28.5q-19 -15 -30.5 -33.5t-11.5 -49.5v-97h14zM235 45q0 9 -6 14.5t-14 5.5q-7 0 -13 -5.5t-6 -14.5q0 -8 6 -14t13 -6q8 0 14 6t6 14z" />
    <glyph glyph-name="at" unicode="@" horiz-adv-x="990" 
d="M363 61q-25 24 -39 56.5t-14 70.5q0 37 14 70t39 58q24 25 56.5 39t70.5 14q37 0 70 -14t58 -39t39 -58t14 -70q0 -38 -14 -70.5t-39 -56.5q-25 -25 -58 -39t-70 -14q-38 0 -70.5 14t-56.5 39zM717 -134q-2 3 -4.5 5.5t-4.5 5.5q-47 -32 -102 -51t-117 -19
q-79 0 -148.5 30t-120.5 81q-52 52 -82 121.5t-30 148.5t30 149t82 122q51 52 120.5 82t148.5 30t148.5 -30t121.5 -82t82 -122t30 -149q-1 -50 -10.5 -85t-26.5 -56q-14 -17 -33.5 -25.5t-44.5 -8.5h-71v362h-10q-2 -29 -3 -57.5t-1 -57.5q-8 19 -19.5 36.5t-26.5 31.5
q-26 26 -60.5 40.5t-74.5 14.5q-41 0 -76 -15.5t-62 -41.5q-26 -26 -41 -62t-15 -76q0 -41 15 -76t41 -62q27 -26 62 -41t76 -15q31 0 59.5 9t52.5 25q23 17 41 39.5t29 49.5l-1 -63v-54h78q25 0 48.5 7t42.5 27q19 21 31 58t14 96q0 82 -31 154.5t-85 126.5t-126 85
t-154 31t-154 -31t-125 -85q-54 -54 -85 -126t-31 -154t31 -154t85 -126q53 -54 125 -85t154 -31q66 0 122 19.5t106 53.5z" />
    <glyph glyph-name="A" unicode="A" horiz-adv-x="828" 
d="M209 0v14h-84q32 75 64 150.5t64 151.5h322q32 -76 64 -151.5t64 -150.5h-84v-14h174v14h-75q-76 180 -152 358.5t-152 359.5q-76 -181 -152.5 -359.5t-152.5 -358.5h-74v-14h174zM405 675q3 10 5.5 16t3.5 9l9 -25l146 -345h-310q37 87 74.5 172t71.5 173z" />
    <glyph glyph-name="B" unicode="B" horiz-adv-x="516" 
d="M269 0q41 0 79 11.5t68 34.5q29 22 47 55.5t18 78.5q0 36 -12.5 65t-33.5 51q-22 22 -50 36t-58 20q65 17 96 64t31 109q0 46 -14.5 79.5t-41.5 54.5t-64.5 31t-82.5 10h-216v-14h71v-672h-71v-14h234zM120 344h129q42 0 81 -10t70 -30q30 -20 48.5 -52t18.5 -75
q0 -41 -16 -71.5t-43 -50.5q-27 -21 -63.5 -31t-76.5 -10h-148v330zM120 686h143q39 0 71.5 -9t56.5 -28q23 -19 36 -49t13 -72q0 -76 -46.5 -123t-126.5 -47h-147v328z" />
    <glyph glyph-name="C" unicode="C" horiz-adv-x="610" 
d="M574 42l-9 12q-39 -23 -83.5 -35.5t-92.5 -12.5q-70 0 -132 27t-108 74q-46 46 -73 108t-27 133t27 134t74 110q46 47 108.5 74.5t133.5 27.5q45 0 88 -11.5t81 -33.5v-103h14v112q-41 24 -86.5 37t-96.5 13q-74 0 -139 -28.5t-113 -76.5q-49 -49 -77 -114.5t-28 -139.5
t28 -139t77 -113q48 -49 113 -77t139 -28q51 0 96.5 13.5t85.5 36.5z" />
    <glyph glyph-name="D" unicode="D" horiz-adv-x="632" 
d="M211 0q106 0 179.5 32.5t119.5 83.5t66.5 113t20.5 121q0 80 -28 145t-76 111q-48 45 -112 69.5t-136 24.5h-210v-14h73v-672h-73v-14h176zM122 686h129q67 0 127.5 -23.5t106.5 -66.5q46 -44 72.5 -106.5t26.5 -139.5q0 -57 -19.5 -116.5t-62.5 -107.5
q-44 -49 -113.5 -80.5t-168.5 -31.5h-98v672z" />
    <glyph glyph-name="E" unicode="E" horiz-adv-x="571" 
d="M536 0v154h-14v-140h-391v332h352v14h-352v326h377v-140h14v154h-487v-14h82v-672h-82v-14h501z" />
    <glyph glyph-name="F" unicode="F" horiz-adv-x="557" 
d="M209 0v14h-78v332h352v14h-352v326h377v-140h14v154h-487v-14h82v-672h-82v-14h174z" />
    <glyph glyph-name="G" unicode="G" horiz-adv-x="609" 
d="M574 40v258h-186v-14h172v-235q-38 -22 -81 -33.5t-90 -11.5q-70 0 -132 27t-108 74q-46 46 -73 108t-27 133t27 134t74 110q46 47 108.5 74.5t133.5 27.5q48 0 92.5 -12.5t82.5 -35.5l8 12q-41 24 -86.5 37t-96.5 13q-74 0 -139 -28.5t-113 -76.5q-49 -49 -77 -114.5
t-28 -139.5t28 -139t77 -113q48 -49 113 -77t139 -28q51 0 96.5 13.5t85.5 36.5z" />
    <glyph glyph-name="H" unicode="H" horiz-adv-x="716" 
d="M209 0v14h-83v332h464v-332h-83v-14h174v14h-77v672h77v14h-174v-14h83v-326h-464v326h83v14h-174v-14h77v-672h-77v-14h174z" />
    <glyph glyph-name="I" unicode="I" 
d="M209 0v14h-83v672h83v14h-174v-14h77v-672h-77v-14h174z" />
    <glyph glyph-name="J" unicode="J" horiz-adv-x="255" 
d="M166 -80q25 29 39.5 71.5t14.5 98.5v610h-185v-14h171v-593q0 -51 -13 -91t-36 -68q-23 -29 -54 -44.5t-68 -17.5v-14q38 1 71.5 17t59.5 45z" />
    <glyph glyph-name="K" unicode="K" horiz-adv-x="686" 
d="M209 0v14h-83v302l103 98q79 -100 157.5 -200t156.5 -200h-66v-14h174v14h-88q-81 103 -161.5 205t-161.5 205l275 262h88v14h-174v-14h64l-350 -335l-18 -20q0 8 0.5 14.5t0.5 14.5v326h83v14h-174v-14h77v-672h-77v-14h174z" />
    <glyph glyph-name="L" unicode="L" horiz-adv-x="566" 
d="M531 0v154h-14v-140h-391v672h83v14h-174v-14h77v-672h-77v-14h496z" />
    <glyph glyph-name="M" unicode="M" horiz-adv-x="961" 
d="M209 0v14h-83v631q0 11 -0.5 22.5t-0.5 22.5q6 -9 9 -13l9 -12l335 -437l328 428q8 11 12.5 17t12.5 17q0 -15 -0.5 -22.5t-0.5 -22.5v-631h-78v-14h174v14h-82v672h77v14h-100q-86 -111 -171.5 -223.5t-171.5 -223.5q-66 85 -159.5 207.5t-183.5 239.5h-100v-14h77v-672
h-77v-14h174z" />
    <glyph glyph-name="N" unicode="N" horiz-adv-x="840" 
d="M723 686h82v14h-174v-14h78v-652l3 -32l-19 26l-555 672h-103v-14h77v-672h-77v-14h174v14h-83v650l-2 26l18 -20l581 -702v718z" />
    <glyph glyph-name="O" unicode="O" horiz-adv-x="786" 
d="M646 97q48 48 76.5 113t28.5 139t-28.5 139.5t-76.5 114.5q-49 48 -114.5 76.5t-139.5 28.5t-139 -28.5t-113 -76.5q-49 -49 -77 -114.5t-28 -139.5t28 -139t77 -113q48 -49 113 -77t139 -28t139.5 28t114.5 77zM149 107q-46 46 -73 108t-27 133t27 134t74 110
q46 47 108.5 74.5t133.5 27.5t133.5 -27.5t109.5 -74.5t74.5 -109.5t27.5 -133.5t-27.5 -133.5t-74.5 -108.5q-48 -47 -111.5 -74t-134.5 -27q-70 0 -132 27t-108 74z" />
    <glyph glyph-name="P" unicode="P" horiz-adv-x="481" 
d="M209 0v14h-89v327h112q103 0 158.5 49t55.5 132q0 48 -20.5 82t-50.5 55t-65 31t-64 10h-211v-14h71v-672h-71v-14h174zM120 686h116q42 0 77.5 -13.5t62.5 -35.5q26 -23 41 -52.5t15 -62.5q0 -27 -9 -56.5t-31 -53.5q-23 -25 -61 -41t-96 -16h-115v331z" />
    <glyph glyph-name="Q" unicode="Q" horiz-adv-x="808" 
d="M149 107q-46 46 -73 108t-27 133t27 134t74 110q46 47 108.5 74.5t133.5 27.5t133.5 -27.5t109.5 -74.5t74.5 -109.5t27.5 -133.5t-27.5 -133.5t-74.5 -108.5q-48 -47 -111.5 -74t-134.5 -27q-70 0 -132 27t-108 74zM466 0h307v14h-257q51 19 94.5 52t74.5 77
q31 43 48.5 95.5t17.5 110.5q0 74 -28.5 139.5t-76.5 114.5q-49 48 -114.5 76.5t-139.5 28.5t-139 -28.5t-113 -76.5q-49 -49 -77 -114.5t-28 -139.5t28 -139t77 -113q48 -49 113 -77t139 -28q18 0 36.5 2t37.5 6z" />
    <glyph glyph-name="R" unicode="R" horiz-adv-x="569" 
d="M209 0v14h-89v327h112q12 0 24 1t23 2l163 -344h92v14h-84l-156 332q74 14 113 60.5t39 115.5q0 48 -20.5 82t-50.5 55t-65 31t-64 10h-211v-14h71v-672h-71v-14h174zM120 686h116q42 0 77.5 -13.5t62.5 -35.5q26 -23 41 -52.5t15 -62.5q0 -27 -9 -56.5t-31 -53.5
q-23 -25 -61 -41t-96 -16h-115v331z" />
    <glyph glyph-name="S" unicode="S" horiz-adv-x="478" 
d="M389 45q29 25 45.5 61t15.5 80q-1 65 -29 101t-69 57q-42 20 -89.5 31t-87.5 28q-41 16 -68 44.5t-27 82.5q0 31 9.5 59.5t29.5 51.5q19 22 48.5 35.5t68.5 13.5q48 0 82 -11t54 -26v-107h14v114q-16 13 -35 22t-38 14q-20 4 -39.5 6t-35.5 2q-47 0 -80 -16.5t-54 -43.5
t-30.5 -60.5t-7.5 -66.5q2 -41 19.5 -67t44.5 -42q26 -17 59 -27.5t67 -19.5q34 -10 66.5 -21.5t57.5 -30.5q25 -20 40.5 -50.5t15.5 -76.5q0 -40 -17 -72.5t-44 -55.5q-28 -23 -64 -35.5t-75 -12.5q-62 0 -104.5 19.5t-71.5 48.5v90h-14v-100q9 -9 25.5 -21t40.5 -23
q23 -12 54.5 -20t71.5 -8q44 0 83 13.5t68 39.5z" />
    <glyph glyph-name="T" unicode="T" horiz-adv-x="623" 
d="M399 0v14h-81v672h256v-140h14v154h-553v-154h14v140h255v-672h-79v-14h174z" />
    <glyph glyph-name="U" unicode="U" horiz-adv-x="674" 
d="M497 52q30 29 47.5 73t17.5 101v460h77v14h-174v-14h83v-457q0 -54 -16 -95.5t-44 -69.5q-28 -29 -67 -43.5t-84 -14.5q-46 0 -85 14.5t-67 43.5q-28 28 -43.5 69.5t-15.5 95.5v457h83v14h-174v-14h77v-460q0 -57 17 -101t47 -73q30 -30 71.5 -45t89.5 -15t89 15t71 45z
" />
    <glyph glyph-name="V" unicode="V" horiz-adv-x="844" 
d="M726 686h83v14h-174v-14h76q-70 -167 -140 -331t-140 -330l-9 -25l-9 25q-70 166 -140 330t-140 331h76v14h-174v-14h82q76 -181 152.5 -359.5t152.5 -358.5q76 180 152 358.5t152 359.5z" />
    <glyph glyph-name="W" unicode="W" horiz-adv-x="1220" 
d="M491 132q29 68 58 137t59 138l9 -22l177 -417q76 180 152 358.5t152 359.5h87v14h-174v-14h72q-70 -167 -140 -331t-140 -330l-9 -25l-9 25q-72 165 -141.5 329.5t-138.5 331.5h80v14h-174v-14h79q28 -66 55.5 -131t54.5 -130q-30 -71 -61 -142t-60 -142
q-15 -35 -29.5 -70.5t-27.5 -70.5l-9 25q-72 165 -141.5 329.5t-138.5 331.5h76v14h-174v-14h82q76 -181 152.5 -359.5t152.5 -358.5q18 41 35 82.5t34 81.5z" />
    <glyph glyph-name="X" unicode="X" horiz-adv-x="710" 
d="M209 0v14h-70q51 81 103 160.5t103 160.5l8 13q12 -16 22.5 -34t21.5 -35l174 -265h-70v-14h174v14h-87q-56 86 -111.5 170.5t-111.5 171.5q53 83 105.5 164.5t105.5 165.5h99v14h-174v-14h59l-195 -305l-8 -13l-8 13q-50 76 -99 152t-100 153h59v14h-174v-14h99
l211 -326l-221 -346h-89v-14h174z" />
    <glyph glyph-name="Y" unicode="Y" horiz-adv-x="718" 
d="M447 0v14h-81v248q63 106 126.5 211.5t126.5 212.5h64v14h-174v-14h93l-231 -388l-11 -26h-1l-12 26q-57 98 -115.5 194t-117.5 194h95v14h-174v-14h62q64 -106 127.5 -212t127.5 -212v-248h-79v-14h174z" />
    <glyph glyph-name="Z" unicode="Z" horiz-adv-x="629" 
d="M594 0v174h-14v-160h-525l510 672v14h-497v35h-16v-49h493l-510 -672v-14h559z" />
    <glyph glyph-name="bracketleft" unicode="[" horiz-adv-x="338" 
d="M246 -149v14h-147v867h147v14h-163v-895h163z" />
    <glyph glyph-name="backslash" unicode="\" horiz-adv-x="320" 
d="M309 -19q-70 190 -139 377.5t-139 377.5h-14q70 -190 139 -377.5t139 -377.5h14z" />
    <glyph glyph-name="bracketright" unicode="]" horiz-adv-x="342" 
d="M251 -149v895h-163v-14h147v-867h-147v-14h163z" />
    <glyph glyph-name="asciicircum" unicode="^" horiz-adv-x="470" 
d="M128 479q26 38 52 77t52 77q26 -38 52 -77t52 -77h16q-30 45 -60 90.5t-60 90.5q-30 -45 -60 -90.5t-60 -90.5h16z" />
    <glyph glyph-name="underscore" unicode="_" horiz-adv-x="600" 
d="M500 0v14h-400v-14h400z" />
    <glyph glyph-name="grave" unicode="`" horiz-adv-x="200" 
d="M92 479q-23 33 -45 66.5t-45 66.5h-16q23 -33 45 -66.5t45 -66.5h16z" />
    <glyph glyph-name="a" unicode="a" horiz-adv-x="532" 
d="M497 0v14h-73v361h-10q-2 -29 -3 -57.5t-1 -57.5q-22 54 -70.5 88.5t-110.5 34.5q-41 0 -76 -15.5t-61 -41.5q-27 -26 -42 -62t-15 -76q0 -41 15 -76t42 -61q26 -27 61 -42t76 -15q31 0 59.5 9t52.5 26q23 16 41 38.5t29 49.5q0 -16 -0.5 -31.5t-0.5 -31.5v-54h87z
M229 369q37 0 70 -14t58 -39t39 -58t14 -70q0 -38 -14 -70.5t-39 -56.5q-25 -25 -58 -39t-70 -14q-38 0 -70.5 14t-56.5 39q-25 24 -39 56.5t-14 70.5q0 37 14 70t39 58q24 25 56.5 39t70.5 14z" />
    <glyph glyph-name="b" unicode="b" horiz-adv-x="532" 
d="M35 0h87v54q0 16 -0.5 31.5t-0.5 31.5q10 -27 28.5 -49.5t42.5 -38.5q23 -17 51.5 -26t59.5 -9q40 0 75.5 15t62.5 42q26 26 41 61t15 76q0 40 -15 76t-41 62q-27 26 -62.5 41.5t-75.5 15.5q-31 0 -59.5 -9t-51.5 -25q-24 -17 -42 -39.5t-28 -49.5v30.5v30.5v429h-87v-14
h73v-722h-73v-14zM303 369q37 0 70 -14t58 -39q24 -25 38 -58t14 -70q0 -38 -14 -70.5t-38 -56.5q-25 -25 -58 -39t-70 -14q-38 0 -70.5 14t-57.5 39q-25 24 -39 56.5t-14 70.5q0 37 14 70t39 58t57.5 39t70.5 14z" />
    <glyph glyph-name="c" unicode="c" horiz-adv-x="387" 
d="M352 37l-10 10q-23 -18 -52 -28.5t-61 -10.5q-38 0 -70.5 14t-56.5 39q-25 24 -39 56.5t-14 70.5q0 37 14 70t39 58q24 25 56.5 39t70.5 14q31 0 58.5 -10t50.5 -27v-79h14v87q-25 20 -56.5 31.5t-66.5 11.5q-41 0 -76 -15.5t-61 -41.5q-27 -26 -42 -62t-15 -76
q0 -41 15 -76t42 -61q26 -27 61 -42t76 -15q35 0 66 11.5t57 31.5z" />
    <glyph glyph-name="d" unicode="d" horiz-adv-x="532" 
d="M497 0v14h-73v736h-87v-14h73v-357v-59.5v-59.5q-11 27 -28.5 49.5t-40.5 39.5q-24 16 -52.5 25t-59.5 9q-41 0 -76 -15.5t-61 -41.5q-27 -26 -42 -62t-15 -76q0 -41 15 -76t42 -61q26 -27 61 -42t76 -15q31 0 59.5 9t52.5 26q23 16 41 38.5t29 49.5q0 -16 -0.5 -31.5
t-0.5 -31.5v-54h87zM229 369q37 0 70 -14t58 -39t39 -58t14 -70q0 -38 -14 -70.5t-39 -56.5q-25 -25 -58 -39t-70 -14q-38 0 -70.5 14t-56.5 39q-25 24 -39 56.5t-14 70.5q0 37 14 70t39 58q24 25 56.5 39t70.5 14z" />
    <glyph glyph-name="e" unicode="e" horiz-adv-x="435" 
d="M229 369q50 0 90.5 -28.5t60.5 -74.5q-81 -33 -162 -65.5t-162 -65.5q-13 43 -4.5 85t33.5 75q24 33 61.5 53.5t82.5 20.5zM362 46l-9 11q-24 -23 -56 -36t-68 -13q-58 0 -103 31.5t-65 82.5q85 35 168.5 68.5t168.5 68.5q-10 27 -26 49t-36 38q-22 18 -49.5 27.5
t-57.5 9.5q-41 0 -76 -15.5t-61 -41.5q-27 -26 -42 -62t-15 -76q0 -41 15 -76t42 -62q26 -26 61 -41t76 -15q39 0 73 14t60 38z" />
    <glyph glyph-name="f" unicode="f" horiz-adv-x="281" 
d="M209 0v14h-99v347h130v14h-130v147q0 49 14 88.5t38 67.5q23 28 54 43t65 15v14q-38 -2 -71.5 -17.5t-58.5 -44.5q-26 -29 -40.5 -72t-14.5 -98v-143h-61v-14h61v-347h-61v-14h174z" />
    <glyph glyph-name="g" unicode="g" horiz-adv-x="533" 
d="M90 -193q26 -31 62.5 -44t86.5 -13q38 1 71.5 17t59.5 45q25 29 39.5 71.5t14.5 98.5v379h74v14h-84q-2 -29 -3 -57.5t-1 -57.5q-22 54 -70.5 88.5t-110.5 34.5q-41 0 -76 -15.5t-61 -41.5q-27 -26 -42 -62t-15 -76q0 -41 15 -76t42 -61q26 -27 61 -42t76 -15
q31 0 59.5 9t52.5 26q23 16 41 38.5t29 49.5q0 -16 -0.5 -31.5t-0.5 -31.5v-76q0 -49 -14 -88.5t-37 -67.5t-54.5 -43t-65.5 -15q-41 0 -78 13t-60 40zM229 369q37 0 70 -14t58 -39t39 -58t14 -70q0 -38 -14 -70.5t-39 -56.5q-25 -25 -58 -39t-70 -14q-38 0 -70.5 14
t-56.5 39q-25 24 -39 56.5t-14 70.5q0 37 14 70t39 58q24 25 56.5 39t70.5 14z" />
    <glyph glyph-name="h" unicode="h" horiz-adv-x="522" 
d="M209 0v14h-81v206q0 32 13.5 59.5t37.5 47.5q23 19 53.5 30t64.5 11q44 -2 68.5 -28.5t26.5 -62.5v-263h-79v-14h174v14h-81v256q-2 50 -32.5 81t-83.5 31q-57 0 -101 -29t-64 -76l3 45v428h-87v-14h73v-722h-79v-14h174z" />
    <glyph glyph-name="i" unicode="i" 
d="M209 0v14h-78v361h-96v-14h82v-347h-82v-14h174zM144 500q0 8 -6 14t-14 6t-14 -6t-6 -14t6 -14t14 -6t14 6t6 14z" />
    <glyph glyph-name="j" unicode="j" horiz-adv-x="166" 
d="M131 -7v382h-96v-14h82v-372q0 -51 -15 -91.5t-40 -68.5l12 -9q26 29 41.5 72.5t15.5 100.5zM144 500q0 8 -6 14t-14 6t-14 -6t-6 -14t6 -14t14 -6t14 6t6 14z" />
    <glyph glyph-name="k" unicode="k" horiz-adv-x="487" 
d="M35 0h174v14h-88v141l74 70q38 -54 77.5 -106t78.5 -105h-73v-14h174v14h-83q-41 55 -81.5 110t-80.5 111l66.5 63t64.5 63h79v14h-174v-14h76l-198 -185v574h-87v-14h73v-722h-72v-14z" />
    <glyph glyph-name="l" unicode="l" 
d="M209 0v14h-88v736h-87v-14h73v-722h-72v-14h174z" />
    <glyph glyph-name="m" unicode="m" horiz-adv-x="800" 
d="M209 0v14h-81v206q0 32 13.5 59.5t37.5 47.5q23 19 53.5 30t64.5 11q44 -2 68.5 -28.5t26.5 -62.5v-263h-79v-14h174v14h-81v212q1 31 15.5 57t37.5 45t53 29.5t63 10.5q44 -2 68.5 -28.5t26.5 -62.5v-263h-79v-14h174v14h-81v256q-2 50 -32.5 81t-83.5 31
q-55 0 -98.5 -27.5t-64.5 -72.5q-5 45 -35.5 72.5t-79.5 27.5q-57 0 -101 -29t-64 -76q0 13 -0.5 22.5t-0.5 22.5l-2 53h-83v-14h75v-347h-79v-14h174z" />
    <glyph glyph-name="n" unicode="n" horiz-adv-x="522" 
d="M209 0v14h-81v206q0 32 13.5 59.5t37.5 47.5q23 19 53.5 30t64.5 11q44 -2 68.5 -28.5t26.5 -62.5v-263h-79v-14h174v14h-81v256q-2 50 -32.5 81t-83.5 31q-57 0 -101 -29t-64 -76q0 13 -0.5 22.5t-0.5 22.5l-2 53h-83v-14h75v-347h-79v-14h174z" />
    <glyph glyph-name="o" unicode="o" horiz-adv-x="461" 
d="M369 51q26 26 41.5 61t15.5 76q0 40 -15.5 76t-41.5 63q-27 26 -63 41.5t-76 15.5q-41 0 -76 -15.5t-61 -41.5q-27 -27 -42 -63t-15 -76q0 -41 15 -76t42 -61q26 -27 61 -42t76 -15q40 0 76 15t63 42zM103 61q-25 24 -39 56.5t-14 70.5q0 37 14 70t39 58q24 25 56.5 39
t70.5 14q37 0 70 -14t58 -39t39 -58t14 -70q0 -38 -14 -70.5t-39 -56.5q-25 -25 -58 -39t-70 -14q-38 0 -70.5 14t-56.5 39z" />
    <glyph glyph-name="p" unicode="p" horiz-adv-x="532" 
d="M42 -250h174v14h-93v297q0 14 -0.5 27t-0.5 27q10 -27 28 -49.5t42 -38.5q23 -17 51.5 -26t59.5 -9q40 0 75.5 15.5t62.5 41.5q26 26 41 61.5t15 76.5q0 40 -15 75.5t-41 62.5q-27 26 -62.5 41t-75.5 15q-63 0 -112 -34.5t-70 -89.5q0 29 -1.5 59t-1.5 59h-83v-14h73
v-597h-66v-14zM303 367q37 0 70 -14t58 -38q24 -25 38 -58t14 -70q0 -38 -14 -70.5t-38 -57.5q-25 -25 -58 -39t-70 -14q-38 0 -70.5 14t-57.5 39t-39 57.5t-14 70.5q0 37 14 70t39 58q25 24 57.5 38t70.5 14z" />
    <glyph glyph-name="q" unicode="q" horiz-adv-x="532" 
d="M495 -250v14h-71v597h73v14h-83q0 -29 -1.5 -59t-1.5 -59q-21 55 -70 89.5t-112 34.5q-41 0 -76 -15t-61 -41q-27 -27 -42 -62.5t-15 -75.5q0 -41 15 -76.5t42 -61.5q26 -26 61 -41.5t76 -15.5q31 0 59.5 9t52.5 26q23 16 40.5 38.5t28.5 49.5q0 -14 -0.5 -27t-0.5 -27
v-297h-88v-14h174zM229 367q37 0 70 -14t58 -38q25 -25 39 -58t14 -70q0 -38 -14 -70.5t-39 -57.5t-58 -39t-70 -14q-38 0 -70.5 14t-56.5 39q-25 25 -39 57.5t-14 70.5q0 37 14 70t39 58q24 24 56.5 38t70.5 14z" />
    <glyph glyph-name="r" unicode="r" horiz-adv-x="326" 
d="M209 0v14h-81v206q0 31 13 58t35 46q23 20 52.5 31.5t62.5 12.5v14q-28 -1 -52.5 -8t-45.5 -20q-23 -13 -40 -32.5t-28 -44.5q0 13 -0.5 22.5t-0.5 22.5l-2 53h-83v-14h75v-347h-79v-14h174z" />
    <glyph glyph-name="s" unicode="s" horiz-adv-x="315" 
d="M256 28q14 15 21 34.5t7 38.5q0 33 -15 51.5t-37 29.5q-23 11 -49 17.5t-49 16.5q-22 9 -37 24.5t-14 44.5q0 22 8.5 37.5t21.5 25.5q13 9 30 13t30 4q23 0 43.5 -5t38.5 -17v-59h14v65q-8 7 -18.5 12.5t-22.5 9.5q-17 5 -27 6.5t-25 1.5q-19 0 -40 -6.5t-36 -19.5
q-14 -13 -22.5 -31t-8.5 -42q0 -31 15 -48t37 -26q22 -10 48.5 -17t48.5 -17q22 -9 37 -26t15 -48q0 -23 -9 -40t-23 -28q-15 -12 -32.5 -18t-37.5 -6q-25 0 -50.5 4.5t-48.5 21.5v59h-14v-65q25 -21 53.5 -27.5t56.5 -6.5q30 0 53 10t38 26z" />
    <glyph glyph-name="t" unicode="t" horiz-adv-x="300" 
d="M225 0v14h-87v347h127v14h-127v244h-14v-244h-89v-14h89v-361h101z" />
    <glyph glyph-name="u" unicode="u" horiz-adv-x="518" 
d="M395 98l2 -45l3 -53h83v14h-77v361h-93v-14h79v-206q0 -32 -14 -59.5t-37 -46.5q-23 -20 -53.5 -31t-64.5 -11q-44 2 -68.5 28.5t-26.5 62.5v277h-93v-14h79v-256q2 -50 32.5 -81t83.5 -31q56 0 100.5 28.5t64.5 76.5z" />
    <glyph glyph-name="v" unicode="v" horiz-adv-x="590" 
d="M489 361h66v14h-139v-14h58q-45 -91 -90 -181l-86 -172q-45 88 -88.5 176.5t-87.5 176.5h74v14h-161v-14h72q48 -97 95.5 -192t95.5 -192q48 97 95.5 192t95.5 192z" />
    <glyph glyph-name="w" unicode="w" horiz-adv-x="860" 
d="M434 251l136 -274q48 97 95.5 192t95.5 192h64v14h-139v-14h60q-45 -89 -88 -176.5t-88 -176.5q-45 88 -88.5 176t-87.5 177h72v14h-161v-14h74l47 -95q-32 -65 -64 -129t-64 -129q-45 88 -88.5 176t-87.5 177h74v14h-161v-14h72q48 -97 95.5 -192t95.5 -192z" />
    <glyph glyph-name="x" unicode="x" horiz-adv-x="488" 
d="M209 0v14h-84q29 40 57.5 80t57.5 81q29 -40 58.5 -79.5t59.5 -81.5h-79v-14h174v14h-79q-32 44 -63 86t-63 86l126 175h79v14h-174v-14h78l-117 -163l-119 163h88v14h-174v-14h68q32 -45 64 -87.5t64 -86.5q-32 -44 -62 -87t-62 -86h-72v-14h174z" />
    <glyph glyph-name="y" unicode="y" horiz-adv-x="590" 
d="M266 -250v14h-74q75 150 148.5 298.5t148.5 298.5h66v14h-139v-14h55q-44 -88 -87.5 -176t-85.5 -171q-44 87 -87 173t-86 174h71v14h-161v-14h72q45 -92 90.5 -183t91.5 -182q-29 -57 -58 -115.5t-58 -116.5h-81v-14h174z" />
    <glyph glyph-name="z" unicode="z" horiz-adv-x="429" 
d="M394 0v65h-14v-51h-327q84 88 162 173.5t162 173.5v14h-316v35h-14v-49h312q-84 -88 -162 -173.5t-162 -173.5v-14h359z" />
    <glyph glyph-name="braceleft" unicode="{" horiz-adv-x="272" 
d="M232 -148v14h-57q-13 0 -22 4t-15 13q-9 13 -12 36.5t-3 58.5v150q0 46 -5.5 75.5t-14.5 48.5t-21 29t-25 18q13 7 25 17t21 28q9 19 14.5 49t5.5 77v150q0 38 4 62.5t14 36.5q6 7 14.5 10t19.5 3h57v14h-37q-16 0 -31.5 -1.5t-27.5 -12.5q-12 -10 -19.5 -34.5
t-7.5 -69.5v-182q0 -20 -3 -43.5t-12 -43.5t-24.5 -33.5t-39.5 -14.5v-24q24 -1 39.5 -14.5t24.5 -33.5t12 -43.5t3 -43.5v-146q0 -59 4.5 -90.5t15.5 -45.5t28.5 -16t37.5 -2h37z" />
    <glyph glyph-name="bar" unicode="|" horiz-adv-x="219" 
d="M113 -232v932h-14v-932h14z" />
    <glyph glyph-name="braceright" unicode="}" horiz-adv-x="320" 
d="M125 -148q16 0 31.5 1t27.5 11q12 11 19.5 35.5t7.5 70.5v146q0 17 0.5 45t7.5 55q7 28 23 48.5t48 22.5v24q-21 1 -35 11t-23 25q-18 30 -19.5 70.5t-1.5 64.5v146q0 46 -7.5 70t-19.5 34q-12 11 -27.5 12.5t-31.5 1.5h-37v-14h57q14 0 23.5 -5t15.5 -15q7 -13 10 -35.5
t3 -56.5v-150q0 -47 5.5 -77t14.5 -49q9 -18 21 -28t25 -17q-9 -5 -20.5 -14t-21.5 -25q-10 -15 -17 -38t-7 -57v-187q0 -34 -3 -57t-11 -36q-6 -10 -15.5 -14.5t-22.5 -4.5h-57v-14h37z" />
    <glyph glyph-name="asciitilde" unicode="~" horiz-adv-x="489" 
d="M388 474q11 8 19 21t9 31l-13 2q-2 -17 -9.5 -27.5t-17.5 -16.5t-20.5 -8.5t-18.5 -2.5q-14 0 -26 6t-28 24q-16 17 -32.5 27.5t-36.5 10.5q-14 0 -28 -3.5t-25 -11.5q-12 -8 -20 -21t-9 -31l13 -2q2 17 9.5 27.5t17.5 16.5t20.5 8.5t18.5 2.5q14 0 26 -6t28 -24
q16 -17 32.5 -27.5t36.5 -10.5q14 0 28 3.5t26 11.5z" />
    <glyph glyph-name="uni00A0" unicode="&#xa0;" horiz-adv-x="300" 
 />
    <glyph glyph-name="exclamdown" unicode="&#xa1;" horiz-adv-x="200" 
d="M120 484.007q0 -8.99902 -6 -14.498t-14 -5.49902q-7 0 -13 5.49902t-6 14.498q0 7.99902 6 13.998t13 5.99902q8 0 14 -5.99902t6 -13.998zM107 374.021v-583.929h-14v583.929h14z" />
    <glyph glyph-name="cent" unicode="&#xa2;" horiz-adv-x="385" 
d="M229 -68v62q35 0 66.5 11.5t57.5 31.5l-10 10q-23 -18 -52.5 -28.5t-61.5 -10.5v361q31 0 59 -10t51 -27v-80h14v88q-25 20 -57 31.5t-67 11.5v55h-14v-56q-38 -3 -70.5 -19t-56.5 -42t-38 -60t-14 -73t14 -73t38 -59q24 -26 56.5 -42t70.5 -19v-63h14zM50 188
q0 36 12.5 67.5t35.5 55.5q22 24 52 39t65 18v-360q-35 3 -65 18t-52 39q-23 24 -35.5 55.5t-12.5 67.5z" />
    <glyph glyph-name="sterling" unicode="&#xa3;" horiz-adv-x="574" 
d="M486 0v123h-14v-109h-359q14 14 18.5 40t4.5 55v202h129v14h-129v179q0 23 7 44t24 37q16 16 44 25.5t70 9.5q30 0 51.5 -4t38.5 -13t30 -24.5t26 -39.5l10 6q-20 40 -54.5 64.5t-101.5 24.5q-72 0 -115.5 -32t-43.5 -102v-175h-65v-14h65v-147q0 -43 -1.5 -72t-6.5 -46
t-15.5 -24.5t-28.5 -7.5h-44v-14h460z" />
    <glyph glyph-name="currency" unicode="&#xa4;" horiz-adv-x="500" 
d="M129 361q0 25 9.5 46.5t25.5 37.5t37.5 25.5t45.5 9.5t45.5 -9.5t37.5 -25.5t25.5 -37.5t9.5 -46.5t-9.5 -46.5t-25.5 -37.5t-37.5 -25.5t-45.5 -9.5t-45.5 9.5t-37.5 25.5t-25.5 37.5t-9.5 46.5zM160 260q17 -15 39.5 -23.5t47.5 -8.5q26 0 47.5 8.5t39.5 24.5l41 -41
l10 10l-41 41q16 18 25.5 41t9.5 49q0 25 -8.5 47t-23.5 39l38 38l-10 10l-38 -38q-17 17 -40.5 27t-49.5 10t-49.5 -9.5t-40.5 -26.5l-38 38l-10 -10l38 -38q-15 -18 -23.5 -40t-8.5 -47q0 -26 9 -49t26 -42l-41 -41l10 -10z" />
    <glyph glyph-name="yen" unicode="&#xa5;" horiz-adv-x="638" 
d="M251 0h174v14h-81v86h159v14h-159v149h159v14h-150l244 409h64v14h-174v-14h93l-231 -388l-11 -26h-1l-12 26l-233 388h95v14h-174v-14h62l246 -409h-151v-14h160v-149h-160v-14h160v-86h-79v-14z" />
    <glyph glyph-name="brokenbar" unicode="&#xa6;" horiz-adv-x="215" 
d="M116 -233v350h-14v-350h14zM116 350v350h-14v-350h14z" />
    <glyph glyph-name="section" unicode="&#xa7;" horiz-adv-x="500" 
d="M173 311q-7 13 -10.5 26t-3.5 26q0 17 6 34t18 31q11 14 28 22.5t39 8.5q19 0 37.5 -7t33.5 -19q15 -13 24.5 -32t9.5 -43q0 -18 -7 -35.5t-19 -30.5q-13 -14 -30.5 -22t-37.5 -8q-27 0 -50.5 12t-37.5 37zM269 18q11 9 18.5 21t7.5 29q0 14 -7 35t-24 51l-64 110
q14 -8 29 -12.5t30 -4.5q24 0 44 9.5t35 25.5q14 16 22 36t8 41q0 15 -3.5 29t-11.5 27l-87 151q-17 29 -25.5 50t-8.5 36q0 13 7.5 22.5t18.5 16.5t23.5 13.5t23.5 13.5q-2 3 -3.5 6t-3.5 6q-13 -7 -27 -14t-26 -16t-19.5 -20.5t-7.5 -26.5q0 -12 8.5 -34.5t22.5 -49.5
q13 -27 30 -56.5t34 -56.5q-14 8 -29 12t-32 4q-24 0 -44 -9.5t-34 -24.5q-14 -16 -21.5 -36t-7.5 -40q0 -16 4 -30.5t12 -27.5l87 -150q17 -29 25.5 -50t8.5 -36q0 -13 -7.5 -22.5t-18.5 -16.5t-23.5 -13.5t-23.5 -13.5q2 -3 3.5 -6t3.5 -6q13 6 27 12.5t26 15.5z" />
    <glyph glyph-name="dieresis" unicode="&#xa8;" horiz-adv-x="370" 
d="M287 500q0 8 -6 14t-14 6t-14 -6t-6 -14t6 -14t14 -6t14 6t6 14zM122 500q0 8 -6 14t-14 6t-14 -6t-6 -14t6 -14t14 -6t14 6t6 14z" />
    <glyph glyph-name="copyright" unicode="&#xa9;" horiz-adv-x="793" 
d="M230 201q-33 32 -52 75.5t-19 94.5q0 52 19 96.5t52 77.5q33 32 76.5 50t92.5 18q50 0 94 -18t77 -50q33 -33 52 -77.5t19 -96.5q0 -51 -19 -94.5t-52 -75.5q-33 -33 -77 -51t-94 -18q-49 0 -92.5 18t-76.5 51zM582 190q34 34 53.5 80.5t19.5 101.5t-19.5 102t-53.5 81
q-35 34 -81.5 53t-100.5 19t-100.5 -19t-80.5 -53q-35 -34 -54.5 -81t-19.5 -102t19.5 -101.5t54.5 -80.5q34 -34 80.5 -53t100.5 -19t100.5 19t81.5 53zM501 236l-4 5q-17 -10 -37 -15.5t-42 -5.5q-32 0 -60 12t-49 33t-33 49t-12 60t12.5 60.5t33.5 50.5q21 21 49 33.5
t60 12.5q21 0 40 -5t36 -15v-47h7v51q-19 11 -40 16.5t-43 5.5q-33 0 -62.5 -12.5t-51.5 -34.5t-35.5 -52t-13.5 -64q0 -33 13 -63t35 -52t52 -34t63 -12q23 0 43.5 6t38.5 17z" />
    <glyph glyph-name="ordfeminine" unicode="&#xaa;" horiz-adv-x="585" 
d="M417 306v10h-53v260h-7q-2 -20 -2.5 -41t-0.5 -41q-16 38 -51 63t-80 25q-29 0 -54.5 -11t-44.5 -30t-30 -45t-11 -54q0 -30 11 -55t30 -44q19 -20 44.5 -30.5t54.5 -10.5q23 0 43.5 6.5t37.5 18.5q17 11 30 27.5t20 35.5v-22.5v-22.5v-39h63zM223 572q27 0 50.5 -10
t42.5 -28q18 -18 28 -42t10 -50q0 -28 -10 -51.5t-28 -40.5q-19 -18 -42.5 -28t-50.5 -10t-50.5 10t-40.5 28q-18 17 -28.5 40.5t-10.5 51.5q0 26 10.5 50t28.5 42q17 18 40.5 28t50.5 10z" />
    <glyph glyph-name="guillemotleft" unicode="&#xab;" horiz-adv-x="601" 
d="M288 239l171 -162v16q-35 37 -71 73t-71 73q35 36 71 72t71 72v17q-43 -41 -85.5 -80.5t-85.5 -80.5zM117 239l171 -162v16q-35 37 -71 73t-71 73q35 36 71 72t71 72v17q-43 -41 -85.5 -80.5t-85.5 -80.5z" />
    <glyph glyph-name="logicalnot" unicode="&#xac;" horiz-adv-x="559" 
d="M460 148v93h-360v-14h346v-79h14z" />
    <glyph glyph-name="registered" unicode="&#xae;" horiz-adv-x="801" 
d="M230 201q-33 32 -52 75.5t-19 94.5q0 52 19 96.5t52 77.5q33 32 76.5 50t92.5 18q50 0 94 -18t77 -50q33 -33 52 -77.5t19 -96.5q0 -51 -19 -94.5t-52 -75.5q-33 -33 -77 -51t-94 -18q-49 0 -92.5 18t-76.5 51zM582 190q34 34 53.5 80.5t19.5 101.5t-19.5 102t-53.5 81
q-35 34 -81.5 53t-100.5 19t-100.5 -19t-80.5 -53q-35 -34 -54.5 -81t-19.5 -102t19.5 -101.5t54.5 -80.5q34 -34 80.5 -53t100.5 -19t100.5 19t81.5 53zM393 210v7h-42v154h52q6 0 12 0.5t11 1.5l77 -163h43v7h-40l-73 157q35 7 53 28.5t18 54.5q0 22 -9.5 38t-23.5 27
q-15 10 -31.5 14.5t-29.5 4.5h-99v-7h33v-317h-33v-7h82zM351 534h54q40 0 66.5 -23t26.5 -54q0 -13 -4.5 -27t-14.5 -25q-11 -12 -29 -19.5t-45 -7.5h-54v156z" />
    <glyph glyph-name="macron" unicode="&#xaf;" horiz-adv-x="399" 
d="M315 492v14h-230v-14h230z" />
    <glyph glyph-name="degree" unicode="&#xb0;" horiz-adv-x="282" 
d="M75 560q0 13 5 24t13 20q9 8 20.5 13t24.5 5t24.5 -5t19.5 -13t13 -19.5t5 -24.5t-4.5 -24t-13.5 -20q-8 -8 -19.5 -13t-24.5 -5q-12 0 -22.5 4t-19.5 11q-9 9 -15 21t-6 26zM214 559q0 18 -7 33t-19 25q-9 9 -22 14t-28 5t-28 -4.5t-23 -13.5q-12 -10 -19 -25.5
t-7 -33.5q0 -17 6.5 -31t17.5 -24q10 -10 23.5 -15t29.5 -5q15 0 28.5 5t23.5 14q11 10 17.5 24.5t6.5 31.5z" />
    <glyph glyph-name="plusminus" unicode="&#xb1;" horiz-adv-x="524" 
d="M273 211v174h173v14h-173v172h-14v-172h-173v-14h173v-174h14zM446 136v14h-360v-14h360z" />
    <glyph glyph-name="uni00B2" unicode="&#xb2;" horiz-adv-x="398" 
d="M298 375v63h-6v-56h-172q26 27 53.5 54t50.5 55q22 28 37 56.5t15 56.5q0 21 -6.5 38.5t-17.5 30.5q-12 13 -28 20t-35 7q-21 0 -38 -7t-28 -20t-16.5 -30t-5.5 -36q0 -21 6 -35t16 -26l5 4q-10 11 -15 25.5t-5 31.5q0 12 3.5 27.5t12.5 28.5t24.5 21.5t40.5 8.5
q12 0 26 -4.5t26 -15.5t20 -29t8 -46q0 -23 -14.5 -49.5t-37.5 -54.5q-23 -29 -53 -58.5t-62 -60.5h196z" />
    <glyph glyph-name="uni00B3" unicode="&#xb3;" horiz-adv-x="419" 
d="M240 406q14 13 22 31t8 39q0 22 -9 41t-24 33q-15 13 -35 20t-42 6l98 124h-157v-40h7v33h134l-104 -135q7 5 14.5 8t15.5 3q19 0 36.5 -7.5t30.5 -19.5q13 -13 20.5 -30t7.5 -36t-7.5 -36t-20.5 -29q-13 -13 -30.5 -20.5t-36.5 -7.5q-21 0 -38 9t-29 23l-5 -6
q14 -15 32.5 -24t40.5 -9q21 0 39 8t32 22z" />
    <glyph glyph-name="acute" unicode="&#xb4;" horiz-adv-x="218" 
d="M116 479q23 33 45 66.5t45 66.5h-16q-23 -33 -45 -66.5t-45 -66.5h16z" />
    <glyph glyph-name="uni03BC" unicode="&#xb5;" horiz-adv-x="545" 
d="M131 -201v250q14 -26 40 -41t62 -15q56 0 100.5 28.5t64.5 76.5l2 -45l3 -53h83v14h-77v361h-93v-14h79v-206q0 -32 -14 -59.5t-37 -46.5q-23 -20 -53.5 -31t-64.5 -11q-44 2 -68.5 28.5t-26.5 62.5v277h-93v-14h79v-562h14z" />
    <glyph glyph-name="paragraph" unicode="&#xb6;" horiz-adv-x="525" 
d="M215 0v736h149v-736h122v14h-108v722h108v14h-285q-34 0 -64 -13t-52 -35t-34.5 -52t-12.5 -64t12.5 -64t34.5 -52t52 -34.5t64 -12.5v-423h14z" />
    <glyph glyph-name="periodcentered" unicode="&#xb7;" horiz-adv-x="163" 
d="M106 280q0 8 -6 14t-14 6t-14 -6t-6 -14t6 -14t14 -6t14 6t6 14z" />
    <glyph glyph-name="cedilla" unicode="&#xb8;" horiz-adv-x="452" 
d="M290 -127q0 14 -9.5 32.5t-32.5 33.5q-13 8 -27 18.5t-14 36.5v6h-14v-16q0 -20 13 -31t29 -21q15 -11 28 -26t13 -43q0 -31 -19.5 -51.5t-50.5 -20.5q-25 0 -42.5 13.5t-23.5 34.5q-4 -1 -7.5 -2t-7.5 -2q10 -29 32.5 -43.5t48.5 -14.5q33 0 58.5 22.5t25.5 73.5z" />
    <glyph glyph-name="uni00B9" unicode="&#xb9;" horiz-adv-x="249" 
d="M172 375v6h-39v319h-63v-7h55v-312h-39v-6h86z" />
    <glyph glyph-name="ordmasculine" unicode="&#xba;" horiz-adv-x="469" 
d="M331 343q19 19 30 44t11 55q0 28 -11 54t-30 46q-19 19 -45 30t-55 11q-30 0 -55 -11t-44 -30q-19 -20 -30 -46t-11 -54q0 -30 11 -55t30 -44q19 -20 44 -30.5t55 -10.5q29 0 55 10.5t45 30.5zM139 350q-18 17 -28 40.5t-10 51.5q0 26 10 50t28 42t41 28t51 10
q27 0 50.5 -10t41.5 -28t28 -42t10 -50q0 -28 -10 -51.5t-28 -40.5q-18 -18 -41.5 -28t-50.5 -10q-28 0 -51 10t-41 28z" />
    <glyph glyph-name="guillemotright" unicode="&#xbb;" horiz-adv-x="601" 
d="M288.035 239l-170.979 -162v16q34.9961 37 70.9912 73q35.9961 36 70.9922 73q-34.9961 36 -70.9922 72q-35.9951 36 -70.9912 72v17q42.9951 -41 85.4902 -80.5q42.4941 -39.5 85.4893 -80.5zM459.015 239l-170.979 -162v16q34.9961 37 70.9912 73
q35.9961 36 70.9912 73q-34.9951 36 -70.9912 72q-35.9951 36 -70.9912 72v17q42.9951 -41 85.4893 -80.5q42.4951 -39.5 85.4902 -80.5z" />
    <glyph glyph-name="onequarter" unicode="&#xbc;" horiz-adv-x="968" 
d="M309 -19q70 190 139 377t139 377h-14q-70 -190 -139 -377t-139 -377h14zM835 0v10h-62v126h72v11h-72v343l-272 -354h262v-126h-57v-10h129zM763 459v-312h-239zM285 234v10h-57v451h-90v-10h80v-441h-57v-10h124z" />
    <glyph glyph-name="onehalf" unicode="&#xbd;" horiz-adv-x="1069" 
d="M268 234v10h-57v451h-90v-10h80v-441h-56v-10h123zM870 0v90h-10v-80h-244q37 38 76 77t72 79q32 40 53 80.5t21 81.5q0 30 -9 55t-25 43q-17 18 -39.5 28.5t-50.5 10.5q-30 0 -54 -10.5t-39 -28.5q-16 -18 -24.5 -42t-8.5 -53t8.5 -49t23.5 -37l7 6q-14 15 -21.5 35
t-7.5 45q0 19 5 40.5t18 40.5q13 18 35.5 30.5t57.5 12.5q18 0 37.5 -6.5t36.5 -21.5q17 -16 28.5 -42t11.5 -66q0 -33 -20 -70.5t-53 -78.5t-76 -83.5t-89 -86.5h280zM309 -19q70 190 139 377t139 377h-14q-70 -190 -139 -377t-139 -377h14z" />
    <glyph glyph-name="threequarters" unicode="&#xbe;" horiz-adv-x="1276" 
d="M380 246q21 21 33.5 49.5t12.5 61.5q0 34 -14 64t-37 51q-24 20 -55.5 31.5t-65.5 9.5l153 195h-246v-63h11v52h210l-163 -212q11 8 23 12.5t24 4.5q30 0 57.5 -11.5t47.5 -30.5q20 -20 32 -46.5t12 -56.5t-12 -56.5t-32 -46.5t-47.5 -31.5t-57.5 -11.5q-32 0 -59 13.5
t-46 36.5l-7 -10q21 -23 50.5 -37t63.5 -14q33 0 61.5 12.5t50.5 33.5zM474 -19q70 190 139 377.5t139 377.5h-14q-70 -190 -139 -377.5t-139 -377.5h14zM1034 0v10h-62v126h73v11h-73v343l-272 -354h262v-126h-58v-10h130zM962 459v-312h-240z" />
    <glyph glyph-name="questiondown" unicode="&#xbf;" horiz-adv-x="410" 
d="M227.027 375.02v-77.9902q0 -32.9961 -6.99902 -51.9932q-6.99902 -18.998 -18.998 -30.9961q-12.998 -11.999 -29.4961 -21.498t-36.4961 -23.4971q-44.9941 -31.9961 -71.4912 -72.4912q-26.4961 -40.4951 -26.4961 -94.4883q0 -39.9951 14.998 -75.4902
q14.998 -35.4961 40.9941 -61.4932q26.9971 -26.9961 62.9932 -42.4941q35.9951 -15.498 76.9902 -15.498q31.9961 0 61.4922 9.99805q29.4971 9.99902 53.4941 26.9971q23.9971 17.998 41.9941 42.4951q17.998 24.4961 27.9971 53.4932q-3 1 -6.49902 1.5
q-3.5 0.5 -6.49902 1.49902q-8.99902 -26.9961 -25.4971 -49.4932t-39.4951 -38.4951q-22.998 -15.998 -49.9941 -24.9971q-26.9971 -8.99902 -56.9932 -8.99902q-37.9951 0 -71.4912 13.498t-58.4932 38.4951q-23.9971 23.9971 -37.9951 56.9932t-13.998 71.9912
q0 36.9951 13.998 69.4912t44.9941 59.4932q23.9971 20.9971 47.4941 35.4961q23.498 14.498 41.4951 28.4961q18.998 14.998 30.4961 33.4961q11.499 18.4971 11.499 49.4941v96.9873h-13.998zM214.028 494.006q0 -8.99902 6 -14.499q5.99902 -5.49902 13.998 -5.49902
q6.99902 0 12.998 5.49902q5.99902 5.5 5.99902 14.499q0 7.99902 -5.99902 13.998t-12.998 5.99902q-7.99902 0 -13.998 -5.99902q-6 -5.99902 -6 -13.998z" />
    <glyph glyph-name="Agrave" unicode="&#xc0;" horiz-adv-x="828" 
d="M209 0v14h-84q32 75 64 150.5t64 151.5h322q32 -76 64 -151.5t64 -150.5h-84v-14h174v14h-75q-76 180 -152 358.5t-152 359.5q-76 -181 -152.5 -359.5t-152.5 -358.5h-74v-14h174zM405 675q3 10 5.5 16t3.5 9l9 -25l146 -345h-310q37 87 74.5 172t71.5 173zM419 750
q-23 33 -45 66.5t-45 66.5h-16q23 -33 45 -66.5t45 -66.5h16z" />
    <glyph glyph-name="Aacute" unicode="&#xc1;" horiz-adv-x="828" 
d="M424 750q23 33 45 66.5t45 66.5h-16q-23 -33 -45 -66.5t-45 -66.5h16zM209 0v14h-84q32 75 64 150.5t64 151.5h322q32 -76 64 -151.5t64 -150.5h-84v-14h174v14h-75q-76 180 -152 358.5t-152 359.5q-76 -181 -152.5 -359.5t-152.5 -358.5h-74v-14h174zM405 675
q3 10 5.5 16t3.5 9l9 -25l146 -345h-310q37 87 74.5 172t71.5 173z" />
    <glyph glyph-name="Acircumflex" unicode="&#xc2;" horiz-adv-x="828" 
d="M310 750q26 38 52 77t52 77q26 -38 52 -77t52 -77h16q-30 45 -60 90.5t-60 90.5q-30 -45 -60 -90.5t-60 -90.5h16zM209 0v14h-84q32 75 64 150.5t64 151.5h322q32 -76 64 -151.5t64 -150.5h-84v-14h174v14h-75q-76 180 -152 358.5t-152 359.5q-76 -181 -152.5 -359.5
t-152.5 -358.5h-74v-14h174zM405 675q3 10 5.5 16t3.5 9l9 -25l146 -345h-310q37 87 74.5 172t71.5 173z" />
    <glyph glyph-name="Atilde" unicode="&#xc3;" horiz-adv-x="828" 
d="M528 767q11 8 19 21t9 31l-13 2q-2 -17 -9.5 -27.5t-17.5 -16.5t-20.5 -8.5t-18.5 -2.5q-14 0 -26 6t-28 24q-16 17 -32.5 27.5t-36.5 10.5q-14 0 -28 -3.5t-25 -11.5q-12 -8 -20 -21t-9 -31l13 -2q2 17 9.5 27.5t17.5 16.5t20.5 8.5t18.5 2.5q14 0 26 -6t28 -24
q16 -17 32.5 -27.5t36.5 -10.5q14 0 28 3.5t26 11.5zM209 0v14h-84q32 75 64 150.5t64 151.5h322q32 -76 64 -151.5t64 -150.5h-84v-14h174v14h-75q-76 180 -152 358.5t-152 359.5q-76 -181 -152.5 -359.5t-152.5 -358.5h-74v-14h174zM405 675q3 10 5.5 16t3.5 9l9 -25
l146 -345h-310q37 87 74.5 172t71.5 173z" />
    <glyph glyph-name="Adieresis" unicode="&#xc4;" horiz-adv-x="828" 
d="M517 790q0 8 -6 14t-14 6t-14 -6t-6 -14t6 -14t14 -6t14 6t6 14zM352 790q0 8 -6 14t-14 6t-14 -6t-6 -14t6 -14t14 -6t14 6t6 14zM209 0v14h-84q32 75 64 150.5t64 151.5h322q32 -76 64 -151.5t64 -150.5h-84v-14h174v14h-75q-76 180 -152 358.5t-152 359.5
q-76 -181 -152.5 -359.5t-152.5 -358.5h-74v-14h174zM405 675q3 10 5.5 16t3.5 9l9 -25l146 -345h-310q37 87 74.5 172t71.5 173z" />
    <glyph glyph-name="Aring" unicode="&#xc5;" horiz-adv-x="828" 
d="M209 0v14h-84q32 75 64 150.5t64 151.5h322q32 -76 64 -151.5t64 -150.5h-84v-14h174v14h-75q-76 180 -152 358.5t-152 359.5q-76 -181 -152.5 -359.5t-152.5 -358.5h-74v-14h174zM405 675q3 10 5.5 16t3.5 9l9 -25l146 -345h-310q37 87 74.5 172t71.5 173zM366 834
q0 19 14 34t35 15q22 0 35.5 -15t13.5 -34q0 -20 -14.5 -34.5t-34.5 -14.5q-23 0 -36 15.5t-13 33.5zM478 834q0 15 -5.5 27t-15.5 21q-8 7 -19 11t-23 4q-15 0 -27 -5.5t-21 -15.5q-7 -8 -11 -19t-4 -23q0 -15 5.5 -27t15.5 -21q8 -7 19 -11t23 -4t23 4t19 11q10 9 15.5 21
t5.5 27z" />
    <glyph glyph-name="AE" unicode="&#xc6;" horiz-adv-x="775" 
d="M209 0v14h-82q32 75 64 150.5t64 151.5h147v-316h338v154h-14v-140h-310v332h271v14h-271v326h296v-140h14v154h-324q-73 -173 -145 -343.5t-145 -342.5h-77v-14h174zM402 666v-336h-141q35 85 72 167.5t69 168.5z" />
    <glyph glyph-name="Ccedilla" unicode="&#xc7;" horiz-adv-x="610" 
d="M475 -127q0 14 -9.5 32.5t-32.5 33.5q-11 7 -22.5 15t-16.5 25q-1 2 -1.5 5.5t-0.5 7.5q51 0 96.5 13.5t85.5 36.5l-9 12q-39 -23 -83.5 -35.5t-92.5 -12.5q-70 0 -132 27t-108 74q-46 46 -73 108t-27 133t27 134t74 110q46 47 108.5 74.5t133.5 27.5q45 0 88 -11.5
t81 -33.5v-165h14v174q-41 24 -86.5 37t-96.5 13q-74 0 -139 -28.5t-113 -76.5q-49 -49 -77 -114.5t-28 -139.5q0 -72 26.5 -136t73.5 -112q46 -48 108.5 -76.5t134.5 -31.5v-9q0 -20 13 -31t29 -21q15 -11 28 -26t13 -43q0 -31 -19.5 -51.5t-50.5 -20.5q-25 0 -42.5 13.5
t-23.5 34.5l-15 -4q10 -29 32.5 -43.5t48.5 -14.5q33 0 58.5 22.5t25.5 73.5z" />
    <glyph glyph-name="Egrave" unicode="&#xc8;" horiz-adv-x="571" 
d="M536 0v154h-14v-140h-391v332h352v14h-352v326h377v-140h14v154h-487v-14h82v-672h-82v-14h501zM305 750q-23 33 -45 66.5t-45 66.5h-16q23 -33 45 -66.5t45 -66.5h16z" />
    <glyph glyph-name="Eacute" unicode="&#xc9;" horiz-adv-x="571" 
d="M536 0v154h-14v-140h-391v332h352v14h-352v326h377v-140h14v154h-487v-14h82v-672h-82v-14h501zM293 750q23 33 45 66.5t45 66.5h-16q-23 -33 -45 -66.5t-45 -66.5h16z" />
    <glyph glyph-name="Ecircumflex" unicode="&#xca;" horiz-adv-x="571" 
d="M536 0v154h-14v-140h-391v332h352v14h-352v326h377v-140h14v154h-487v-14h82v-672h-82v-14h501zM196 750q26 38 52 77t52 77q26 -38 52 -77t52 -77h16q-30 45 -60 90.5t-60 90.5q-30 -45 -60 -90.5t-60 -90.5h16z" />
    <glyph glyph-name="Edieresis" unicode="&#xcb;" horiz-adv-x="571" 
d="M536 0v154h-14v-140h-391v332h352v14h-352v326h377v-140h14v154h-487v-14h82v-672h-82v-14h501zM399 790q0 8 -6 14t-14 6t-14 -6t-6 -14t6 -14t14 -6t14 6t6 14zM234 790q0 8 -6 14t-14 6t-14 -6t-6 -14t6 -14t14 -6t14 6t6 14z" />
    <glyph glyph-name="Igrave" unicode="&#xcc;" 
d="M209 0v14h-83v672h83v14h-174v-14h77v-672h-77v-14h174zM121 750q-23 33 -45 66.5t-45 66.5h-16q23 -33 45 -66.5t45 -66.5h16z" />
    <glyph glyph-name="Iacute" unicode="&#xcd;" 
d="M209 0v14h-83v672h83v14h-174v-14h77v-672h-77v-14h174zM135 750q23 33 45 66.5t45 66.5h-16q-23 -33 -45 -66.5t-45 -66.5h16z" />
    <glyph glyph-name="Icircumflex" unicode="&#xce;" 
d="M209 0v14h-83v672h83v14h-174v-14h77v-672h-77v-14h174zM17 750q26 38 52 77t52 77q26 -38 52 -77t52 -77h16q-30 45 -60 90.5t-60 90.5q-30 -45 -60 -90.5t-60 -90.5h16z" />
    <glyph glyph-name="Idieresis" unicode="&#xcf;" 
d="M209 0v14h-83v672h83v14h-174v-14h77v-672h-77v-14h174zM224 790q0 8 -6 14t-14 6t-14 -6t-6 -14t6 -14t14 -6t14 6t6 14zM59 790q0 8 -6 14t-14 6t-14 -6t-6 -14t6 -14t14 -6t14 6t6 14z" />
    <glyph glyph-name="Eth" unicode="&#xd0;" horiz-adv-x="632" 
d="M211 0q106 0 179.5 32.5t119.5 83.5t66.5 113t20.5 121q0 80 -28 145t-76 111q-48 45 -112 69.5t-136 24.5h-210v-14h73v-326h-64v-14h64v-332h-73v-14h176zM122 346h224v14h-224v326h129q67 0 127.5 -23.5t106.5 -66.5q46 -44 72.5 -106.5t26.5 -139.5q0 -57 -19.5 -116
t-62.5 -108q-44 -49 -113.5 -80t-168.5 -31h-98v331z" />
    <glyph glyph-name="Ntilde" unicode="&#xd1;" horiz-adv-x="802" 
d="M723 686h82v14h-174v-14h78v-652l3 -32l-19 26l-555 672h-103v-14h77v-672h-77v-14h174v14h-83v650l-2 26l18 -20l581 -702v718zM526 767q11 8 19 21t9 31l-13 2q-2 -17 -9.5 -27.5t-17.5 -16.5t-20.5 -8.5t-18.5 -2.5q-14 0 -26 6t-28 24q-16 17 -32.5 27.5t-36.5 10.5
q-14 0 -28 -3.5t-25 -11.5q-12 -8 -20 -21t-9 -31l13 -2q2 17 9.5 27.5t17.5 16.5t20.5 8.5t18.5 2.5q14 0 26 -6t28 -24q16 -17 32.5 -27.5t36.5 -10.5q14 0 28 3.5t26 11.5z" />
    <glyph glyph-name="Ograve" unicode="&#xd2;" horiz-adv-x="786" 
d="M646 97q48 48 76.5 113t28.5 139t-28.5 139.5t-76.5 114.5q-49 48 -114.5 76.5t-139.5 28.5t-139 -28.5t-113 -76.5q-49 -49 -77 -114.5t-28 -139.5t28 -139t77 -113q48 -49 113 -77t139 -28t139.5 28t114.5 77zM149 107q-46 46 -73 108t-27 133t27 134t74 110
q46 47 108.5 74.5t133.5 27.5t133.5 -27.5t109.5 -74.5t74.5 -109.5t27.5 -133.5t-27.5 -133.5t-74.5 -108.5q-48 -47 -111.5 -74t-134.5 -27q-70 0 -132 27t-108 74zM390 750q-23 33 -45 66.5t-45 66.5h-16q23 -33 45 -66.5t45 -66.5h16z" />
    <glyph glyph-name="Oacute" unicode="&#xd3;" horiz-adv-x="786" 
d="M646 97q48 48 76.5 113t28.5 139t-28.5 139.5t-76.5 114.5q-49 48 -114.5 76.5t-139.5 28.5t-139 -28.5t-113 -76.5q-49 -49 -77 -114.5t-28 -139.5t28 -139t77 -113q48 -49 113 -77t139 -28t139.5 28t114.5 77zM149 107q-46 46 -73 108t-27 133t27 134t74 110
q46 47 108.5 74.5t133.5 27.5t133.5 -27.5t109.5 -74.5t74.5 -109.5t27.5 -133.5t-27.5 -133.5t-74.5 -108.5q-48 -47 -111.5 -74t-134.5 -27q-70 0 -132 27t-108 74zM426 750q23 33 45 66.5t45 66.5h-16q-23 -33 -45 -66.5t-45 -66.5h16z" />
    <glyph glyph-name="Ocircumflex" unicode="&#xd4;" horiz-adv-x="786" 
d="M646 97q48 48 76.5 113t28.5 139t-28.5 139.5t-76.5 114.5q-49 48 -114.5 76.5t-139.5 28.5t-139 -28.5t-113 -76.5q-49 -49 -77 -114.5t-28 -139.5t28 -139t77 -113q48 -49 113 -77t139 -28t139.5 28t114.5 77zM149 107q-46 46 -73 108t-27 133t27 134t74 110
q46 47 108.5 74.5t133.5 27.5t133.5 -27.5t109.5 -74.5t74.5 -109.5t27.5 -133.5t-27.5 -133.5t-74.5 -108.5q-48 -47 -111.5 -74t-134.5 -27q-70 0 -132 27t-108 74zM293 750q26 38 52 77t52 77q26 -38 52 -77t52 -77h16q-30 45 -60 90.5t-60 90.5q-30 -45 -60 -90.5
t-60 -90.5h16z" />
    <glyph glyph-name="Otilde" unicode="&#xd5;" horiz-adv-x="786" 
d="M646 97q48 48 76.5 113t28.5 139t-28.5 139.5t-76.5 114.5q-49 48 -114.5 76.5t-139.5 28.5t-139 -28.5t-113 -76.5q-49 -49 -77 -114.5t-28 -139.5t28 -139t77 -113q48 -49 113 -77t139 -28t139.5 28t114.5 77zM149 107q-46 46 -73 108t-27 133t27 134t74 110
q46 47 108.5 74.5t133.5 27.5t133.5 -27.5t109.5 -74.5t74.5 -109.5t27.5 -133.5t-27.5 -133.5t-74.5 -108.5q-48 -47 -111.5 -74t-134.5 -27q-70 0 -132 27t-108 74zM513 767q11 8 19 21t9 31l-13 2q-2 -17 -9.5 -27.5t-17.5 -16.5t-20.5 -8.5t-18.5 -2.5q-14 0 -26 6
t-28 24q-16 17 -32.5 27.5t-36.5 10.5q-14 0 -28 -3.5t-25 -11.5q-12 -8 -20 -21t-9 -31l13 -2q2 17 9.5 27.5t17.5 16.5t20.5 8.5t18.5 2.5q14 0 26 -6t28 -24q16 -17 32.5 -27.5t36.5 -10.5q14 0 28 3.5t26 11.5z" />
    <glyph glyph-name="Odieresis" unicode="&#xd6;" horiz-adv-x="786" 
d="M646 97q48 48 76.5 113t28.5 139t-28.5 139.5t-76.5 114.5q-49 48 -114.5 76.5t-139.5 28.5t-139 -28.5t-113 -76.5q-49 -49 -77 -114.5t-28 -139.5t28 -139t77 -113q48 -49 113 -77t139 -28t139.5 28t114.5 77zM149 107q-46 46 -73 108t-27 133t27 134t74 110
q46 47 108.5 74.5t133.5 27.5t133.5 -27.5t109.5 -74.5t74.5 -109.5t27.5 -133.5t-27.5 -133.5t-74.5 -108.5q-48 -47 -111.5 -74t-134.5 -27q-70 0 -132 27t-108 74zM499 790q0 8 -6 14t-14 6t-14 -6t-6 -14t6 -14t14 -6t14 6t6 14zM334 790q0 8 -6 14t-14 6t-14 -6t-6 -14
t6 -14t14 -6t14 6t6 14z" />
    <glyph glyph-name="multiply" unicode="&#xd7;" horiz-adv-x="500" 
d="M262 123l123 -123l10 10l-123 123l123 122l-10 10l-123 -122l-121 121l-10 -10l121 -121l-122 -123l10 -10z" />
    <glyph glyph-name="Oslash" unicode="&#xd8;" horiz-adv-x="786" 
d="M49 348q0 71 27 134t74 110q46 47 108.5 74.5t133.5 27.5q59 0 112 -19t97 -53q-111 -133 -220.5 -263.5t-220.5 -263.5q-51 47 -81 112t-30 141zM169 87l220.5 264l220.5 264q58 -48 92.5 -117t34.5 -149q0 -71 -27.5 -133.5t-74.5 -108.5q-48 -47 -111.5 -74
t-134.5 -27q-63 0 -119 21.5t-101 59.5zM161 77q47 -40 106 -62.5t125 -22.5q74 0 139.5 28t114.5 77q48 48 76.5 113t28.5 139q0 84 -35.5 155.5t-95.5 121.5q16 19 31 37t31 37q-2 2 -4.5 4t-4.5 4q-16 -19 -31 -37.5t-31 -37.5q-46 35 -101.5 55t-117.5 20
q-74 0 -139 -28.5t-113 -76.5q-49 -49 -77 -114.5t-28 -139.5q0 -79 31.5 -147t85.5 -117q-18 -21 -35.5 -42.5t-35.5 -42.5q2 -2 4.5 -4t4.5 -4q18 21 35.5 42.5t35.5 42.5z" />
    <glyph glyph-name="Ugrave" unicode="&#xd9;" horiz-adv-x="674" 
d="M497 52q30 29 47.5 73t17.5 101v460h77v14h-174v-14h83v-457q0 -54 -16 -95.5t-44 -69.5q-28 -29 -67 -43.5t-84 -14.5q-46 0 -85 14.5t-67 43.5q-28 28 -43.5 69.5t-15.5 95.5v457h83v14h-174v-14h77v-460q0 -57 17 -101t47 -73q30 -30 71.5 -45t89.5 -15t89 15t71 45z
M344 750q-23 33 -45 66.5t-45 66.5h-16q23 -33 45 -66.5t45 -66.5h16z" />
    <glyph glyph-name="Uacute" unicode="&#xda;" horiz-adv-x="674" 
d="M497 52q30 29 47.5 73t17.5 101v460h77v14h-174v-14h83v-457q0 -54 -16 -95.5t-44 -69.5q-28 -29 -67 -43.5t-84 -14.5q-46 0 -85 14.5t-67 43.5q-28 28 -43.5 69.5t-15.5 95.5v457h83v14h-174v-14h77v-460q0 -57 17 -101t47 -73q30 -30 71.5 -45t89.5 -15t89 15t71 45z
M355 750q23 33 45 66.5t45 66.5h-16q-23 -33 -45 -66.5t-45 -66.5h16z" />
    <glyph glyph-name="Ucircumflex" unicode="&#xdb;" horiz-adv-x="674" 
d="M497 52q30 29 47.5 73t17.5 101v460h77v14h-174v-14h83v-457q0 -54 -16 -95.5t-44 -69.5q-28 -29 -67 -43.5t-84 -14.5q-46 0 -85 14.5t-67 43.5q-28 28 -43.5 69.5t-15.5 95.5v457h83v14h-174v-14h77v-460q0 -57 17 -101t47 -73q30 -30 71.5 -45t89.5 -15t89 15t71 45z
M236 750q26 38 52 77t52 77q26 -38 52 -77t52 -77h16q-30 45 -60 90.5t-60 90.5q-30 -45 -60 -90.5t-60 -90.5h16z" />
    <glyph glyph-name="Udieresis" unicode="&#xdc;" horiz-adv-x="674" 
d="M497 52q30 29 47.5 73t17.5 101v460h77v14h-174v-14h83v-457q0 -54 -16 -95.5t-44 -69.5q-28 -29 -67 -43.5t-84 -14.5q-46 0 -85 14.5t-67 43.5q-28 28 -43.5 69.5t-15.5 95.5v457h83v14h-174v-14h77v-460q0 -57 17 -101t47 -73q30 -30 71.5 -45t89.5 -15t89 15t71 45z
M438 791q0 8 -6 14t-14 6t-14 -6t-6 -14t6 -14t14 -6t14 6t6 14zM273 791q0 8 -6 14t-14 6t-14 -6t-6 -14t6 -14t14 -6t14 6t6 14z" />
    <glyph glyph-name="Yacute" unicode="&#xdd;" horiz-adv-x="718" 
d="M447 0v14h-81v248q63 106 126.5 211.5t126.5 212.5h64v14h-174v-14h93l-231 -388l-11 -26h-1l-12 26q-57 98 -115.5 194t-117.5 194h95v14h-174v-14h62q64 -106 127.5 -212t127.5 -212v-248h-79v-14h174zM388 750q23 33 45 66.5t45 66.5h-16q-23 -33 -45 -66.5t-45 -66.5
h16z" />
    <glyph glyph-name="Thorn" unicode="&#xde;" horiz-adv-x="481" 
d="M209 0v14h-89v162h112q103 0 158.5 49t55.5 132q0 48 -20.5 82t-50.5 55t-65 31t-64 10h-126v151h89v14h-174v-14h71v-672h-71v-14h174zM120 521h116q42 0 77.5 -13.5t62.5 -35.5q26 -23 41 -52.5t15 -62.5q0 -27 -9 -56.5t-31 -53.5q-23 -25 -61 -41t-96 -16h-115v331z
" />
    <glyph glyph-name="germandbls" unicode="&#xdf;" horiz-adv-x="542" 
d="M447 52q27 27 43.5 64t16.5 79q0 36 -12 67.5t-33 57.5q-21 25 -49.5 43t-61.5 26q41 14 66.5 47.5t25.5 77.5q0 29 -11 55t-30 46q-19 19 -44.5 30.5t-54.5 12.5q-38 -2 -71.5 -17.5t-58.5 -44.5q-26 -29 -40.5 -72t-14.5 -98v-42h-65v-14h65v-356h-83v-14h97v430
q0 49 14 88.5t38 67.5q23 28 54 43t65 15q27 0 50.5 -11t40.5 -29q16 -19 25.5 -43t9.5 -50q0 -51 -37.5 -83t-88.5 -32v-15q39 0 73.5 -15t60.5 -40q26 -26 41 -59.5t15 -71.5t-15.5 -72.5t-41.5 -60.5t-61 -41.5t-75 -15.5q-27 0 -51.5 7t-46.5 21l-6 -11q23 -14 50 -22
t56 -8q42 0 79.5 16t65.5 44z" />
    <glyph glyph-name="agrave" unicode="&#xe0;" horiz-adv-x="532" 
d="M497 0v14h-73v361h-10q-2 -29 -3 -57.5t-1 -57.5q-22 54 -70.5 88.5t-110.5 34.5q-41 0 -76 -15.5t-61 -41.5q-27 -26 -42 -62t-15 -76q0 -41 15 -76t42 -61q26 -27 61 -42t76 -15q31 0 59.5 9t52.5 26q23 16 41 38.5t29 49.5q0 -16 -0.5 -31.5t-0.5 -31.5v-54h87z
M229 369q37 0 70 -14t58 -39t39 -58t14 -70q0 -38 -14 -70.5t-39 -56.5q-25 -25 -58 -39t-70 -14q-38 0 -70.5 14t-56.5 39q-25 24 -39 56.5t-14 70.5q0 37 14 70t39 58q24 25 56.5 39t70.5 14zM249 479q-23 33 -45 66.5t-45 66.5h-16q23 -33 45 -66.5t45 -66.5h16z" />
    <glyph glyph-name="aacute" unicode="&#xe1;" horiz-adv-x="532" 
d="M497 0v14h-73v361h-10q-2 -29 -3 -57.5t-1 -57.5q-22 54 -70.5 88.5t-110.5 34.5q-41 0 -76 -15.5t-61 -41.5q-27 -26 -42 -62t-15 -76q0 -41 15 -76t42 -61q26 -27 61 -42t76 -15q31 0 59.5 9t52.5 26q23 16 41 38.5t29 49.5q0 -16 -0.5 -31.5t-0.5 -31.5v-54h87z
M229 369q37 0 70 -14t58 -39t39 -58t14 -70q0 -38 -14 -70.5t-39 -56.5q-25 -25 -58 -39t-70 -14q-38 0 -70.5 14t-56.5 39q-25 24 -39 56.5t-14 70.5q0 37 14 70t39 58q24 25 56.5 39t70.5 14zM248 479q23 33 45 66.5t45 66.5h-16q-23 -33 -45 -66.5t-45 -66.5h16z" />
    <glyph glyph-name="acircumflex" unicode="&#xe2;" horiz-adv-x="532" 
d="M497 0v14h-73v361h-10q-2 -29 -3 -57.5t-1 -57.5q-22 54 -70.5 88.5t-110.5 34.5q-41 0 -76 -15.5t-61 -41.5q-27 -26 -42 -62t-15 -76q0 -41 15 -76t42 -61q26 -27 61 -42t76 -15q31 0 59.5 9t52.5 26q23 16 41 38.5t29 49.5q0 -16 -0.5 -31.5t-0.5 -31.5v-54h87z
M229 369q37 0 70 -14t58 -39t39 -58t14 -70q0 -38 -14 -70.5t-39 -56.5q-25 -25 -58 -39t-70 -14q-38 0 -70.5 14t-56.5 39q-25 24 -39 56.5t-14 70.5q0 37 14 70t39 58q24 25 56.5 39t70.5 14zM157 479q26 38 52 77t52 77q26 -38 52 -77t52 -77h16q-30 45 -60 90.5
t-60 90.5q-30 -45 -60 -90.5t-60 -90.5h16z" />
    <glyph glyph-name="atilde" unicode="&#xe3;" horiz-adv-x="532" 
d="M497 0v14h-73v361h-10q-2 -29 -3 -57.5t-1 -57.5q-22 54 -70.5 88.5t-110.5 34.5q-41 0 -76 -15.5t-61 -41.5q-27 -26 -42 -62t-15 -76q0 -41 15 -76t42 -61q26 -27 61 -42t76 -15q31 0 59.5 9t52.5 26q23 16 41 38.5t29 49.5q0 -16 -0.5 -31.5t-0.5 -31.5v-54h87z
M229 369q37 0 70 -14t58 -39t39 -58t14 -70q0 -38 -14 -70.5t-39 -56.5q-25 -25 -58 -39t-70 -14q-38 0 -70.5 14t-56.5 39q-25 24 -39 56.5t-14 70.5q0 37 14 70t39 58q24 25 56.5 39t70.5 14zM348 474q11 8 19 21t9 31l-13 2q-2 -17 -9.5 -27.5t-17.5 -16.5t-20.5 -8.5
t-18.5 -2.5q-14 0 -26 6t-28 24q-16 17 -32.5 27.5t-36.5 10.5q-14 0 -28 -3.5t-25 -11.5q-12 -8 -20 -21t-9 -31l13 -2q2 17 9.5 27.5t17.5 16.5t20.5 8.5t18.5 2.5q14 0 26 -6t28 -24q16 -17 32.5 -27.5t36.5 -10.5q14 0 28 3.5t26 11.5z" />
    <glyph glyph-name="adieresis" unicode="&#xe4;" horiz-adv-x="532" 
d="M497 0v14h-73v361h-10q-2 -29 -3 -57.5t-1 -57.5q-22 54 -70.5 88.5t-110.5 34.5q-41 0 -76 -15.5t-61 -41.5q-27 -26 -42 -62t-15 -76q0 -41 15 -76t42 -61q26 -27 61 -42t76 -15q31 0 59.5 9t52.5 26q23 16 41 38.5t29 49.5q0 -16 -0.5 -31.5t-0.5 -31.5v-54h87z
M229 369q37 0 70 -14t58 -39t39 -58t14 -70q0 -38 -14 -70.5t-39 -56.5q-25 -25 -58 -39t-70 -14q-38 0 -70.5 14t-56.5 39q-25 24 -39 56.5t-14 70.5q0 37 14 70t39 58q24 25 56.5 39t70.5 14zM344 500q0 8 -6 14t-14 6t-14 -6t-6 -14t6 -14t14 -6t14 6t6 14zM179 500
q0 8 -6 14t-14 6t-14 -6t-6 -14t6 -14t14 -6t14 6t6 14z" />
    <glyph glyph-name="aring" unicode="&#xe5;" horiz-adv-x="532" 
d="M497 0v14h-73v361h-10q-2 -29 -3 -57.5t-1 -57.5q-22 54 -70.5 88.5t-110.5 34.5q-41 0 -76 -15.5t-61 -41.5q-27 -26 -42 -62t-15 -76q0 -41 15 -76t42 -61q26 -27 61 -42t76 -15q31 0 59.5 9t52.5 26q23 16 41 38.5t29 49.5q0 -16 -0.5 -31.5t-0.5 -31.5v-54h87z
M229 369q37 0 70 -14t58 -39t39 -58t14 -70q0 -38 -14 -70.5t-39 -56.5q-25 -25 -58 -39t-70 -14q-38 0 -70.5 14t-56.5 39q-25 24 -39 56.5t-14 70.5q0 37 14 70t39 58q24 25 56.5 39t70.5 14zM196 540q0 19 14 34t35 15q22 0 35.5 -15t13.5 -34q0 -20 -14.5 -34.5
t-34.5 -14.5q-23 0 -36 15.5t-13 33.5zM308 540q0 15 -5.5 27t-15.5 21q-8 7 -19 11t-23 4q-15 0 -27 -5.5t-21 -15.5q-7 -8 -11 -19t-4 -23q0 -15 5.5 -27t15.5 -21q8 -7 19 -11t23 -4t23 4t19 11q10 9 15.5 21t5.5 27z" />
    <glyph glyph-name="ae" unicode="&#xe6;" horiz-adv-x="580" 
d="M346 241q0 42 -8 69.5t-28 43.5q16 7 32.5 10t33.5 3q50 0 90.5 -28.5t60.5 -74.5q-45 -18 -90.5 -36.5t-90.5 -36.5v50zM49 97q0 34 23.5 51t55.5 24q31 6 62.5 5.5t47.5 -0.5h94v-72q0 -30 -12 -49.5t-31 -30.5q-20 -12 -45 -16.5t-50 -4.5q-23 0 -48.5 3.5t-46.5 13.5
q-22 10 -36 28.5t-14 47.5zM292 10q18 -9 39 -13.5t45 -4.5q39 0 73 14t60 38l-9 11q-24 -23 -56 -36t-68 -13q-18 0 -36 3.5t-35 10.5q23 18 32 43.5t9 64.5v48q50 20 99.5 40.5t99.5 40.5q-9 26 -25 48t-36 38q-22 18 -49.5 28t-58.5 10q-22 0 -42 -4.5t-38 -12.5
q-17 8 -43.5 12.5t-61.5 4.5q-16 0 -34 -3t-35 -8t-31.5 -11.5t-23.5 -14.5q3 -3 6.5 -6t6.5 -6q8 6 21 12.5t28 11.5t31 8t30 3q46 0 74 -7.5t43 -23.5q15 -15 20 -38.5t5 -54.5v-52h-146q-29 0 -56 -4.5t-48 -16.5q-21 -11 -34 -29t-13 -45q0 -31 11.5 -51.5t31.5 -32.5
q21 -12 50 -17t64 -5q32 0 57 5t43 15z" />
    <glyph glyph-name="ccedilla" unicode="&#xe7;" horiz-adv-x="387" 
d="M322 -127q0 14 -9.5 32.5t-32.5 33.5q-12 8 -26 20.5t-15 34.5q30 0 62 13t51 30l-10 10q-23 -18 -52 -28.5t-61 -10.5q-38 0 -70.5 14t-56.5 39q-25 24 -39 56.5t-14 70.5q0 37 14 70t39 58q24 25 56.5 39t70.5 14q31 0 58.5 -10t50.5 -27v-80h14v88q-25 20 -56.5 31.5
t-66.5 11.5q-41 0 -76 -15.5t-61 -41.5q-27 -26 -42 -62t-15 -76t15 -75t41 -61q25 -27 59.5 -42t74.5 -16v-6q0 -20 13 -33t29 -23q15 -11 28 -26t13 -43q0 -31 -19.5 -51.5t-50.5 -20.5q-24 0 -42 13t-24 35l-15 -4q10 -30 32 -44t49 -14q33 0 58.5 22.5t25.5 73.5z" />
    <glyph glyph-name="egrave" unicode="&#xe8;" horiz-adv-x="435" 
d="M229 369q50 0 90.5 -28.5t60.5 -74.5q-81 -33 -162 -65.5t-162 -65.5q-13 43 -4.5 85t33.5 75q24 33 61.5 53.5t82.5 20.5zM362 46l-9 11q-24 -23 -56 -36t-68 -13q-58 0 -103 31.5t-65 82.5q85 35 168.5 68.5t168.5 68.5q-10 27 -26 49t-36 38q-22 18 -49.5 27.5
t-57.5 9.5q-41 0 -76 -15.5t-61 -41.5q-27 -26 -42 -62t-15 -76q0 -41 15 -76t42 -62q26 -26 61 -41t76 -15q39 0 73 14t60 38zM232 479q-23 33 -45 66.5t-45 66.5h-16q23 -33 45 -66.5t45 -66.5h16z" />
    <glyph glyph-name="eacute" unicode="&#xe9;" horiz-adv-x="435" 
d="M229 369q50 0 90.5 -28.5t60.5 -74.5q-81 -33 -162 -65.5t-162 -65.5q-13 43 -4.5 85t33.5 75q24 33 61.5 53.5t82.5 20.5zM362 46l-9 11q-24 -23 -56 -36t-68 -13q-58 0 -103 31.5t-65 82.5q85 35 168.5 68.5t168.5 68.5q-10 27 -26 49t-36 38q-22 18 -49.5 27.5
t-57.5 9.5q-41 0 -76 -15.5t-61 -41.5q-27 -26 -42 -62t-15 -76q0 -41 15 -76t42 -62q26 -26 61 -41t76 -15q39 0 73 14t60 38zM249 479q23 33 45 66.5t45 66.5h-16q-23 -33 -45 -66.5t-45 -66.5h16z" />
    <glyph glyph-name="ecircumflex" unicode="&#xea;" horiz-adv-x="435" 
d="M229 369q50 0 90.5 -28.5t60.5 -74.5q-81 -33 -162 -65.5t-162 -65.5q-13 43 -4.5 85t33.5 75q24 33 61.5 53.5t82.5 20.5zM362 46l-9 11q-24 -23 -56 -36t-68 -13q-58 0 -103 31.5t-65 82.5q85 35 168.5 68.5t168.5 68.5q-10 27 -26 49t-36 38q-22 18 -49.5 27.5
t-57.5 9.5q-41 0 -76 -15.5t-61 -41.5q-27 -26 -42 -62t-15 -76q0 -41 15 -76t42 -62q26 -26 61 -41t76 -15q39 0 73 14t60 38zM126 479q26 38 52 77t52 77q26 -38 52 -77t52 -77h16q-30 45 -60 90.5t-60 90.5q-30 -45 -60 -90.5t-60 -90.5h16z" />
    <glyph glyph-name="edieresis" unicode="&#xeb;" horiz-adv-x="435" 
d="M229 369q50 0 90.5 -28.5t60.5 -74.5q-81 -33 -162 -65.5t-162 -65.5q-13 43 -4.5 85t33.5 75q24 33 61.5 53.5t82.5 20.5zM362 46l-9 11q-24 -23 -56 -36t-68 -13q-58 0 -103 31.5t-65 82.5q85 35 168.5 68.5t168.5 68.5q-10 27 -26 49t-36 38q-22 18 -49.5 27.5
t-57.5 9.5q-41 0 -76 -15.5t-61 -41.5q-27 -26 -42 -62t-15 -76q0 -41 15 -76t42 -62q26 -26 61 -41t76 -15q39 0 73 14t60 38zM337 500q0 8 -6 14t-14 6t-14 -6t-6 -14t6 -14t14 -6t14 6t6 14zM172 500q0 8 -6 14t-14 6t-14 -6t-6 -14t6 -14t14 -6t14 6t6 14z" />
    <glyph glyph-name="igrave" unicode="&#xec;" 
d="M209 0v14h-78v361h-96v-14h82v-347h-82v-14h174zM130 479q-23 33 -45 66.5t-45 66.5h-16q23 -33 45 -66.5t45 -66.5h16z" />
    <glyph glyph-name="iacute" unicode="&#xed;" 
d="M209 0v14h-78v361h-96v-14h82v-347h-82v-14h174zM134 479q23 33 45 66.5t45 66.5h-16q-23 -33 -45 -66.5t-45 -66.5h16z" />
    <glyph glyph-name="icircumflex" unicode="&#xee;" 
d="M209 0v14h-78v361h-96v-14h82v-347h-82v-14h174zM22 479q26 38 52 77t52 77q26 -38 52 -77t52 -77h16q-30 45 -60 90.5t-60 90.5q-30 -45 -60 -90.5t-60 -90.5h16z" />
    <glyph glyph-name="idieresis" unicode="&#xef;" 
d="M209 0v14h-78v361h-96v-14h82v-347h-82v-14h174zM228 500q0 8 -6 14t-14 6t-14 -6t-6 -14t6 -14t14 -6t14 6t6 14zM63 500q0 8 -6 14t-14 6t-14 -6t-6 -14t6 -14t14 -6t14 6t6 14z" />
    <glyph glyph-name="eth" unicode="&#xf0;" horiz-adv-x="459" 
d="M102 61q-25 24 -39 56.5t-14 70.5q0 37 14 70t39 58q24 25 56.5 39t70.5 14q37 0 70 -14t58 -39t39 -58t14 -70q0 -38 -14 -70.5t-39 -56.5q-25 -25 -58 -39t-70 -14q-38 0 -70.5 14t-56.5 39zM367 51q26 26 41.5 61t15.5 76q0 54 -16.5 111.5t-44.5 114.5t-65 112
t-78 103q18 20 35.5 39t35.5 39q-2 2 -4 3.5t-4 3.5q-17 -20 -35 -38.5t-35 -38.5q-24 27 -48 49t-48 40l-6 -9q26 -20 49 -42.5t45 -45.5q-19 -20 -38 -41t-38 -41l8 -8l75 81q42 -48 72.5 -94t52.5 -88t35.5 -78.5t19.5 -64.5q-26 40 -69 64t-94 24q-41 0 -76 -15.5
t-61 -41.5q-27 -26 -42 -62t-15 -76q0 -41 15 -76t42 -61q26 -27 61 -42t76 -15q40 0 76 15t62 42z" />
    <glyph glyph-name="ntilde" unicode="&#xf1;" horiz-adv-x="522" 
d="M209 0v14h-81v206q0 32 13.5 59.5t37.5 47.5q23 19 53.5 30t64.5 11q44 -2 68.5 -28.5t26.5 -62.5v-263h-79v-14h174v14h-81v256q-2 50 -32.5 81t-83.5 31q-57 0 -101 -29t-64 -76q0 13 -0.5 22.5t-0.5 22.5l-2 53h-83v-14h75v-347h-79v-14h174zM387 464q11 8 19 21t9 31
l-13 2q-2 -17 -9.5 -27.5t-17.5 -16.5t-20.5 -8.5t-18.5 -2.5q-14 0 -26 6t-28 24q-16 17 -32.5 27.5t-36.5 10.5q-14 0 -28 -3.5t-25 -11.5q-12 -8 -20 -21t-9 -31l13 -2q2 17 9.5 27.5t17.5 16.5t20.5 8.5t18.5 2.5q14 0 26 -6t28 -24q16 -17 32.5 -27.5t36.5 -10.5
q14 0 28 3.5t26 11.5z" />
    <glyph glyph-name="ograve" unicode="&#xf2;" horiz-adv-x="461" 
d="M369 51q26 26 41.5 61t15.5 76q0 40 -15.5 76t-41.5 63q-27 26 -63 41.5t-76 15.5q-41 0 -76 -15.5t-61 -41.5q-27 -27 -42 -63t-15 -76q0 -41 15 -76t42 -61q26 -27 61 -42t76 -15q40 0 76 15t63 42zM103 61q-25 24 -39 56.5t-14 70.5q0 37 14 70t39 58q24 25 56.5 39
t70.5 14q37 0 70 -14t58 -39t39 -58t14 -70q0 -38 -14 -70.5t-39 -56.5q-25 -25 -58 -39t-70 -14q-38 0 -70.5 14t-56.5 39zM239 479q-23 33 -45 66.5t-45 66.5h-16q23 -33 45 -66.5t45 -66.5h16z" />
    <glyph glyph-name="oacute" unicode="&#xf3;" horiz-adv-x="461" 
d="M369 51q26 26 41.5 61t15.5 76q0 40 -15.5 76t-41.5 63q-27 26 -63 41.5t-76 15.5q-41 0 -76 -15.5t-61 -41.5q-27 -27 -42 -63t-15 -76q0 -41 15 -76t42 -61q26 -27 61 -42t76 -15q40 0 76 15t63 42zM103 61q-25 24 -39 56.5t-14 70.5q0 37 14 70t39 58q24 25 56.5 39
t70.5 14q37 0 70 -14t58 -39t39 -58t14 -70q0 -38 -14 -70.5t-39 -56.5q-25 -25 -58 -39t-70 -14q-38 0 -70.5 14t-56.5 39zM247 479q23 33 45 66.5t45 66.5h-16q-23 -33 -45 -66.5t-45 -66.5h16z" />
    <glyph glyph-name="ocircumflex" unicode="&#xf4;" horiz-adv-x="461" 
d="M369 51q26 26 41.5 61t15.5 76q0 40 -15.5 76t-41.5 63q-27 26 -63 41.5t-76 15.5q-41 0 -76 -15.5t-61 -41.5q-27 -27 -42 -63t-15 -76q0 -41 15 -76t42 -61q26 -27 61 -42t76 -15q40 0 76 15t63 42zM103 61q-25 24 -39 56.5t-14 70.5q0 37 14 70t39 58q24 25 56.5 39
t70.5 14q37 0 70 -14t58 -39t39 -58t14 -70q0 -38 -14 -70.5t-39 -56.5q-25 -25 -58 -39t-70 -14q-38 0 -70.5 14t-56.5 39zM131 479q26 38 52 77t52 77q26 -38 52 -77t52 -77h16q-30 45 -60 90.5t-60 90.5q-30 -45 -60 -90.5t-60 -90.5h16z" />
    <glyph glyph-name="otilde" unicode="&#xf5;" horiz-adv-x="461" 
d="M369 51q26 26 41.5 61t15.5 76q0 40 -15.5 76t-41.5 63q-27 26 -63 41.5t-76 15.5q-41 0 -76 -15.5t-61 -41.5q-27 -27 -42 -63t-15 -76q0 -41 15 -76t42 -61q26 -27 61 -42t76 -15q40 0 76 15t63 42zM103 61q-25 24 -39 56.5t-14 70.5q0 37 14 70t39 58q24 25 56.5 39
t70.5 14q37 0 70 -14t58 -39t39 -58t14 -70q0 -38 -14 -70.5t-39 -56.5q-25 -25 -58 -39t-70 -14q-38 0 -70.5 14t-56.5 39zM355 474q11 8 19 21t9 31l-13 2q-2 -17 -9.5 -27.5t-17.5 -16.5t-20.5 -8.5t-18.5 -2.5q-14 0 -26 6t-28 24q-16 17 -32.5 27.5t-36.5 10.5
q-14 0 -28 -3.5t-25 -11.5q-12 -8 -20 -21t-9 -31l13 -2q2 17 9.5 27.5t17.5 16.5t20.5 8.5t18.5 2.5q14 0 26 -6t28 -24q16 -17 32.5 -27.5t36.5 -10.5q14 0 28 3.5t26 11.5z" />
    <glyph glyph-name="odieresis" unicode="&#xf6;" horiz-adv-x="461" 
d="M369 51q26 26 41.5 61t15.5 76q0 40 -15.5 76t-41.5 63q-27 26 -63 41.5t-76 15.5q-41 0 -76 -15.5t-61 -41.5q-27 -27 -42 -63t-15 -76q0 -41 15 -76t42 -61q26 -27 61 -42t76 -15q40 0 76 15t63 42zM103 61q-25 24 -39 56.5t-14 70.5q0 37 14 70t39 58q24 25 56.5 39
t70.5 14q37 0 70 -14t58 -39t39 -58t14 -70q0 -38 -14 -70.5t-39 -56.5q-25 -25 -58 -39t-70 -14q-38 0 -70.5 14t-56.5 39zM337 500q0 8 -6 14t-14 6t-14 -6t-6 -14t6 -14t14 -6t14 6t6 14zM172 500q0 8 -6 14t-14 6t-14 -6t-6 -14t6 -14t14 -6t14 6t6 14z" />
    <glyph glyph-name="divide" unicode="&#xf7;" horiz-adv-x="501" 
d="M428 210v14h-360v-14h360zM271 341q0 8 -6 14t-14 6t-14 -6t-6 -14t6 -14t14 -6t14 6t6 14zM271 91q0 8 -6 14t-14 6t-14 -6t-6 -14t6 -14t14 -6t14 6t6 14z" />
    <glyph glyph-name="oslash" unicode="&#xf8;" horiz-adv-x="458" 
d="M49 188q0 37 14 70t39 58q24 25 56.5 39t70.5 14q29 0 56 -9t49 -25q-58 -69 -115.5 -138.5t-115.5 -138.5q-25 25 -39.5 58.5t-14.5 71.5zM112 50q58 69 116 138.5t116 138.5q30 -25 48 -61t18 -78q0 -38 -14 -70.5t-39 -56.5q-25 -25 -58 -39t-70 -14q-33 0 -62.5 10.5
t-54.5 31.5zM103 39q26 -21 58 -33t68 -12q40 0 76 15t62 42q26 26 41.5 61t15.5 76q0 45 -19.5 84.5t-51.5 65.5q8 9 15.5 18.5t15.5 18.5q-2 2 -4.5 4t-4.5 4q-8 -9 -15.5 -18.5t-15.5 -18.5q-24 17 -53.5 27t-61.5 10q-41 0 -76 -15.5t-61 -41.5q-27 -26 -42 -62t-15 -76
q0 -42 15.5 -78.5t43.5 -62.5q-10 -12 -19.5 -23.5t-19.5 -23.5q2 -2 4.5 -4t4.5 -4q10 12 19.5 23.5t19.5 23.5z" />
    <glyph glyph-name="ugrave" unicode="&#xf9;" horiz-adv-x="518" 
d="M395 98l2 -45l3 -53h83v14h-77v361h-93v-14h79v-206q0 -32 -14 -59.5t-37 -46.5q-23 -20 -53.5 -31t-64.5 -11q-44 2 -68.5 28.5t-26.5 62.5v277h-93v-14h79v-256q2 -50 32.5 -81t83.5 -31q56 0 100.5 28.5t64.5 76.5zM258 479q-23 33 -45 66.5t-45 66.5h-16
q23 -33 45 -66.5t45 -66.5h16z" />
    <glyph glyph-name="uacute" unicode="&#xfa;" horiz-adv-x="518" 
d="M395 98l2 -45l3 -53h83v14h-77v361h-93v-14h79v-206q0 -32 -14 -59.5t-37 -46.5q-23 -20 -53.5 -31t-64.5 -11q-44 2 -68.5 28.5t-26.5 62.5v277h-93v-14h79v-256q2 -50 32.5 -81t83.5 -31q56 0 100.5 28.5t64.5 76.5zM247 479q23 33 45 66.5t45 66.5h-16
q-23 -33 -45 -66.5t-45 -66.5h16z" />
    <glyph glyph-name="ucircumflex" unicode="&#xfb;" horiz-adv-x="518" 
d="M395 98l2 -45l3 -53h83v14h-77v361h-93v-14h79v-206q0 -32 -14 -59.5t-37 -46.5q-23 -20 -53.5 -31t-64.5 -11q-44 2 -68.5 28.5t-26.5 62.5v277h-93v-14h79v-256q2 -50 32.5 -81t83.5 -31q56 0 100.5 28.5t64.5 76.5zM162 479q26 38 52 77t52 77q26 -38 52 -77t52 -77
h16q-30 45 -60 90.5t-60 90.5q-30 -45 -60 -90.5t-60 -90.5h16z" />
    <glyph glyph-name="udieresis" unicode="&#xfc;" horiz-adv-x="518" 
d="M395 98l2 -45l3 -53h83v14h-77v361h-93v-14h79v-206q0 -32 -14 -59.5t-37 -46.5q-23 -20 -53.5 -31t-64.5 -11q-44 2 -68.5 28.5t-26.5 62.5v277h-93v-14h79v-256q2 -50 32.5 -81t83.5 -31q56 0 100.5 28.5t64.5 76.5zM362 500q0 8 -6 14t-14 6t-14 -6t-6 -14t6 -14
t14 -6t14 6t6 14zM197 500q0 8 -6 14t-14 6t-14 -6t-6 -14t6 -14t14 -6t14 6t6 14z" />
    <glyph glyph-name="yacute" unicode="&#xfd;" horiz-adv-x="590" 
d="M266 -250v14h-74q75 150 148.5 298.5t148.5 298.5h66v14h-139v-14h55q-44 -88 -87.5 -176t-85.5 -171q-44 87 -87 173t-86 174h71v14h-161v-14h72q45 -92 90.5 -183t91.5 -182q-29 -57 -58 -115.5t-58 -116.5h-81v-14h174zM314 479q23 33 45 66.5t45 66.5h-16
q-23 -33 -45 -66.5t-45 -66.5h16z" />
    <glyph glyph-name="thorn" unicode="&#xfe;" horiz-adv-x="498" 
d="M190 -250v14h-82v297q0 14 -0.5 27t-0.5 27q10 -27 28 -49.5t42 -38.5q23 -17 51.5 -26t59.5 -9q40 0 75.5 15.5t62.5 41.5q26 26 41 61.5t15 76.5q0 40 -15 75.5t-41 62.5q-27 26 -62.5 41t-75.5 15q-63 0 -112 -34.5t-70 -89.5q0 16 0.5 32t0.5 32v415h83v14h-174v-14
h77v-972h-77v-14h174zM288 367q37 0 70 -14t58 -38q24 -25 38 -58t14 -70q0 -38 -14 -70.5t-38 -57.5q-25 -25 -58 -39t-70 -14q-38 0 -70.5 14t-57.5 39t-39 57.5t-14 70.5q0 37 14 70t39 58q25 24 57.5 38t70.5 14z" />
    <glyph glyph-name="ydieresis" unicode="&#xff;" horiz-adv-x="590" 
d="M266 -250v14h-74q75 150 148.5 298.5t148.5 298.5h66v14h-139v-14h55q-44 -88 -87.5 -176t-85.5 -171q-44 87 -87 173t-86 174h71v14h-161v-14h72q45 -92 90.5 -183t91.5 -182q-29 -57 -58 -115.5t-58 -116.5h-81v-14h174zM402 500q0 8 -6 14t-14 6t-14 -6t-6 -14t6 -14
t14 -6t14 6t6 14zM237 500q0 8 -6 14t-14 6t-14 -6t-6 -14t6 -14t14 -6t14 6t6 14z" />
    <glyph glyph-name="dotlessi" unicode="&#x131;" 
d="M209 0v14h-78v361h-96v-14h82v-347h-82v-14h174z" />
    <glyph glyph-name="ring" unicode="&#x2da;" horiz-adv-x="400" 
d="M151 540q0 19 14 34t35 15q22 0 35.5 -15t13.5 -34q0 -20 -14.5 -34.5t-34.5 -14.5q-23 0 -36 15.5t-13 33.5zM263 540q0 15 -5.5 27t-15.5 21q-8 7 -19 11t-23 4q-15 0 -27 -5.5t-21 -15.5q-7 -8 -11 -19t-4 -23q0 -15 5.5 -27t15.5 -21q8 -7 19 -11t23 -4t23 4t19 11
q10 9 15.5 21t5.5 27z" />
    <glyph glyph-name="endash" unicode="&#x2013;" horiz-adv-x="509" 
d="M401 179v14h-301v-14h301z" />
    <glyph glyph-name="emdash" unicode="&#x2014;" horiz-adv-x="700" 
d="M601 179v14h-502v-14h502z" />
    <glyph glyph-name="quoteleft" unicode="&#x2018;" horiz-adv-x="164" 
d="M92 590q-21 20 -30.5 49.5t-2.5 64.5q-5 2 -9.5 3.5t-9.5 3.5q-8 -40 4.5 -76.5t41.5 -62.5z" />
    <glyph glyph-name="quoteright" unicode="&#x2019;" horiz-adv-x="164" 
d="M111 711q-5 -2 -9.5 -3.5t-9.5 -3.5q7 -35 -2.5 -64.5t-30.5 -49.5l6 -18q29 26 41.5 62.5t4.5 76.5z" />
    <glyph glyph-name="quotesinglbase" unicode="&#x201a;" horiz-adv-x="146" 
d="M72 92q-5 -2 -9.5 -3.5t-9.5 -3.5q7 -35 -2.5 -64.5t-30.5 -49.5l6 -18q29 26 41.5 62.5t4.5 76.5z" />
    <glyph glyph-name="quotedblleft" unicode="&#x201c;" horiz-adv-x="249" 
d="M187 590q-21 20 -30.5 49.5t-2.5 64.5q-5 2 -9.5 3.5t-9.5 3.5q-8 -40 4.5 -76.5t41.5 -62.5zM83 590q-21 20 -30.5 49.5t-2.5 64.5q-5 2 -9.5 3.5t-9.5 3.5q-8 -40 4.5 -76.5t41.5 -62.5z" />
    <glyph glyph-name="quotedblright" unicode="&#x201d;" horiz-adv-x="248" 
d="M96 711q-5 -2 -9.5 -3.5t-9.5 -3.5q7 -35 -2.5 -64.5t-30.5 -49.5l6 -18q29 26 41.5 62.5t4.5 76.5zM200 711q-5 -2 -9.5 -3.5t-9.5 -3.5q7 -35 -2.5 -64.5t-30.5 -49.5l6 -18q29 26 41.5 62.5t4.5 76.5z" />
    <glyph glyph-name="quotedblbase" unicode="&#x201e;" horiz-adv-x="234" 
d="M72 92q-5 -2 -9.5 -3.5t-9.5 -3.5q7 -35 -2.5 -64.5t-30.5 -49.5l6 -18q29 26 41.5 62.5t4.5 76.5zM176 92q-5 -2 -9.5 -3.5t-9.5 -3.5q7 -35 -2.5 -64.5t-30.5 -49.5l6 -18q29 26 41.5 62.5t4.5 76.5z" />
    <glyph glyph-name="bullet" unicode="&#x2022;" horiz-adv-x="479" 
d="M239 235q13 0 25 4.5t20 12.5q10 9 15.5 21.5t5.5 26.5q0 15 -5.5 27.5t-14.5 21.5q-9 8 -21 12.5t-25 4.5q-14 0 -26.5 -5.5t-21.5 -14.5q-8 -9 -12.5 -21t-4.5 -25q0 -15 6 -27.5t16 -21.5q9 -8 20 -12t23 -4z" />
    <glyph glyph-name="guilsinglleft" unicode="&#x2039;" horiz-adv-x="392" 
d="M117 239l171 -162v16q-35 37 -71 73t-71 73q35 36 71 72t71 72v17q-43 -41 -85.5 -80.5t-85.5 -80.5z" />
    <glyph glyph-name="guilsinglright" unicode="&#x203a;" horiz-adv-x="392" 
d="M288.015 239l-170.979 -162v16q34.9961 37 70.9912 73q35.9961 36 70.9912 73q-34.9951 36 -70.9912 72q-35.9951 36 -70.9912 72v17q42.9951 -41 85.4893 -80.5q42.4951 -39.5 85.4902 -80.5z" />
    <glyph glyph-name="OE" unicode="&#x152;" horiz-adv-x="917" 
d="M831 612h14v89l-352 -1q-19 4 -37.5 6t-37.5 2q-74 0 -139 -28.5t-113 -76.5q-49 -49 -77 -114.5t-28 -139.5t28 -139t77 -113q48 -49 113 -77t139 -28q19 0 38 2t38 6h365v89h-14v-75h-338v332h299v14h-299v326h324v-74zM75 348q0 71 27 134t74 110q46 47 108.5 74.5
t133.5 27.5q19 0 37.5 -2t37.5 -6v-672q-19 -4 -38.5 -6t-39.5 -2q-70 0 -132 27t-108 74q-46 46 -73 108t-27 133z" />
    <glyph glyph-name="oe" unicode="&#x153;" horiz-adv-x="656" 
d="M593 46l-11 10q-24 -23 -55.5 -35.5t-67.5 -12.5q-58 0 -103 31.5t-65 82.5q38 16 81.5 33.5t87.5 35.5t87 35.5t81 32.5q-11 27 -26.5 49.5t-36.5 39.5t-47.5 26.5t-58.5 9.5q-31 0 -59 -9t-51 -25q-23 16 -51 25t-59 9q-41 0 -76 -15.5t-61 -41.5q-27 -27 -42 -63
t-15 -76q0 -41 15 -76t42 -61q26 -27 61 -42t76 -15q31 0 59 8.5t51 24.5q23 -16 51 -24.5t59 -8.5q39 0 73.5 14t60.5 38zM239 369q27 0 52 -7.5t46 -21.5q-33 -27 -52.5 -66.5t-19.5 -85.5q0 -47 19.5 -86t52.5 -66q-22 -14 -46.5 -21t-51.5 -7q-38 0 -70.5 14t-56.5 39
q-25 24 -39 56.5t-14 70.5q0 37 14 70t39 58q24 25 56.5 39t70.5 14zM609 266q-37 -15 -78.5 -32t-83.5 -33q-42 -17 -83 -34t-78 -32q-3 12 -5 25.5t-2 27.5q0 37 14 70t39 58q24 25 56.5 39t70.5 14q54 0 91.5 -29t58.5 -74z" />
    <glyph glyph-name="circumflex" unicode="&#x2c6;" horiz-adv-x="450" 
d="M232 600l-120 -121h16l104 94l104 -94h16z" />
    <glyph glyph-name="tilde" unicode="&#x2dc;" horiz-adv-x="593" 
d="M304 485q16 -17 32.5 -27.5t36.5 -10.5q14 0 28 3.5t26 11.5q11 8 19 21t9 31l-13 2q-2 -17 -9.5 -27.5t-17.5 -16.5t-20.5 -8.5t-18.5 -2.5q-14 0 -26 6t-28 24q-16 17 -32.5 27.5t-36.5 10.5q-14 0 -28 -3.5t-25 -11.5q-12 -8 -20 -21t-9 -31l13 -2q2 17 9.5 27.5
t17.5 16.5t20.5 8.5t18.5 2.5q14 0 26 -6t28 -24z" />
    <glyph glyph-name="ellipsis" unicode="&#x2026;" horiz-adv-x="511" 
d="M72 20q0 -8 6 -14t14 -6t14 6t6 14t-6 14t-14 6t-14 -6t-6 -14zM235 20q0 -8 6 -14t14 -6t14 6t6 14t-6 14t-14 6t-14 -6t-6 -14zM398 20q0 -8 6 -14t14 -6t14 6t6 14t-6 14t-14 6t-14 -6t-6 -14z" />
    <glyph glyph-name="fraction" unicode="&#x2044;" horiz-adv-x="310" 
d="M9 0h14l278 755h-14z" />
    <glyph glyph-name="uni2074" unicode="&#x2074;" horiz-adv-x="400" 
d="M283 375v6h-40v84h47v7h-47v231l-175 -238h167v-84h-38v-6h86zM235 681v-209h-152z" />
    <glyph glyph-name="Euro" unicode="&#x20ac;" horiz-adv-x="556" 
d="M48 393v-14h65q-1 -14 -2 -27t-1 -25v-20.5t1 -19.5h-62v-14h64q7 -60 30.5 -111t58.5 -88q35 -38 79 -59.5t94 -21.5q32 0 62 8.5t58 25.5l-12 8q-25 -14 -51.5 -21t-54.5 -7q-44 0 -85.5 19t-75.5 54q-34 34 -57.5 83t-30.5 110h247v14h-248q-1 10 -1.5 20t-0.5 21
q0 13 1 25.5t2 25.5h247v14h-245q9 58 31 105t55 80q33 32 75 49t90 17q25 0 48.5 -5t45.5 -15l6 10q-5 4 -32 14t-67 10q-63 0 -109.5 -24.5t-78.5 -62.5q-33 -38 -51.5 -85.5t-26.5 -92.5h-68z" />
    <glyph glyph-name="minus" unicode="&#x2212;" horiz-adv-x="524" 
d="M442 186v14h-360v-14h360z" />
    <glyph glyph-name="uni2215" unicode="&#x2215;" horiz-adv-x="312" 
d="M24 -19l278 754h-14l-278 -754h14z" />
  </font>
</defs>
</svg>
