<?xml version="1.0" standalone="no"?>
<!DOCTYPE svg PUBLIC "-//W3C//DTD SVG 1.1//EN" "http://www.w3.org/Graphics/SVG/1.1/DTD/svg11.dtd" >
<svg xmlns="http://www.w3.org/2000/svg" xmlns:xlink="http://www.w3.org/1999/xlink" version="1.1">
<metadata>
Created by FontForge 20230101 at Sat Sep 30 05:29:59 2023
 By Glenn Lewis
Copyright 2022 The Noto Project Authors (https://github.com/notofonts/latin-greek-cyrillic)
</metadata>
<defs>
<font id="NotoSansCondensed-SemiBold" horiz-adv-x="0" >
  <font-face 
    font-family="Noto Sans Condensed SemiBold"
    font-weight="600"
    font-stretch="condensed"
    units-per-em="1000"
    panose-1="2 11 5 2 4 5 4 2 2 4"
    ascent="800"
    descent="-200"
    x-height="543"
    cap-height="714"
    bbox="-576 -394 2804 1069"
    underline-thickness="50"
    underline-position="-125"
    unicode-range="U+000D-1DF1E"
  />
<missing-glyph horiz-adv-x="593" 
d="M88 0v714h411v-714h-411zM139 51h309v612h-309v-612z" />
    <glyph glyph-name="f_f" unicode="ff" horiz-adv-x="616" 
d="M298 449h-100v-449h-116v449h-71v60l71 35v27q0 67 15.5 110t49 63.5t85.5 20.5q30 0 54.5 -5t49.5 -15l-27 -88q-14 5 -29 8t-31 3q-27 0 -39 -22t-12 -72v-31h100v-94zM606 449h-100v-449h-116v449h-71v60l71 35v27q0 67 15.5 110t49 63.5t85.5 20.5q30 0 54.5 -5
t49.5 -15l-27 -88q-14 5 -29 8t-31 3q-27 0 -39 -22t-12 -72v-31h100v-94z" />
    <glyph glyph-name="fi" unicode="fi" horiz-adv-x="556" 
d="M298 449h-100v-449h-116v449h-71v60l71 35v27q0 67 15.5 110t49 63.5t85.5 20.5q30 0 54.5 -5t49.5 -15l-27 -88q-14 5 -29 8t-31 3q-27 0 -39 -22t-12 -72v-31h100v-94zM490 543v-543h-116v543h116zM433 753q30 0 47 -17t17 -51t-17 -50.5t-47 -16.5t-47.5 16.5
t-17.5 50.5q0 35 17 51.5t48 16.5z" />
    <glyph glyph-name="fl" unicode="fl" horiz-adv-x="555" 
d="M298 449h-100v-449h-116v449h-71v60l71 35v27q0 67 15.5 110t49 63.5t85.5 20.5q30 0 54.5 -5t49.5 -15l-27 -88q-14 5 -29 8t-31 3q-27 0 -39 -22t-12 -72v-31h100v-94zM490 0h-116v760h116v-760z" />
    <glyph glyph-name="f_f_i" unicode="ffi" horiz-adv-x="864" 
d="M298 449h-100v-449h-116v449h-71v60l71 35v27q0 67 15.5 110t49 63.5t85.5 20.5q30 0 54.5 -5t49.5 -15l-27 -88q-14 5 -29 8t-31 3q-27 0 -39 -22t-12 -72v-31h100v-94zM606 449h-100v-449h-116v449h-71v60l71 35v27q0 67 15.5 110t49 63.5t85.5 20.5q30 0 54.5 -5
t49.5 -15l-27 -88q-14 5 -29 8t-31 3q-27 0 -39 -22t-12 -72v-31h100v-94zM798 543v-543h-116v543h116zM741 753q30 0 47 -17t17 -51t-17 -50.5t-47 -16.5t-47.5 16.5t-17.5 50.5q0 35 17 51.5t48 16.5z" />
    <glyph glyph-name="f_f_l" unicode="ffl" horiz-adv-x="863" 
d="M298 449h-100v-449h-116v449h-71v60l71 35v27q0 67 15.5 110t49 63.5t85.5 20.5q30 0 54.5 -5t49.5 -15l-27 -88q-14 5 -29 8t-31 3q-27 0 -39 -22t-12 -72v-31h100v-94zM606 449h-100v-449h-116v449h-71v60l71 35v27q0 67 15.5 110t49 63.5t85.5 20.5q30 0 54.5 -5
t49.5 -15l-27 -88q-14 5 -29 8t-31 3q-27 0 -39 -22t-12 -72v-31h100v-94zM798 0h-116v760h116v-760z" />
    <glyph glyph-name=".notdef" horiz-adv-x="593" 
d="M88 0v714h411v-714h-411zM139 51h309v612h-309v-612z" />
    <glyph glyph-name="NULL" 
 />
    <glyph glyph-name="CR" unicode="&#xd;" horiz-adv-x="205" 
 />
    <glyph glyph-name="space" unicode=" " horiz-adv-x="205" 
 />
    <glyph glyph-name="exclam" unicode="!" horiz-adv-x="258" 
d="M175 221h-92l-22 493h136zM58 65q0 38 19 56.5t52 18.5q32 0 51.5 -18t19.5 -57t-20 -57.5t-51 -18.5q-32 0 -51.5 19t-19.5 57z" />
    <glyph glyph-name="quotedbl" unicode="&#x22;" horiz-adv-x="428" 
d="M178 714l-18 -258h-86l-19 258h123zM373 714l-19 -258h-86l-18 258h123z" />
    <glyph glyph-name="numbersign" unicode="#" horiz-adv-x="538" 
d="M413 429l-20 -138h101v-85h-114l-30 -206h-87l31 206h-94l-29 -206h-86l30 206h-94v85h107l20 138h-100v86h113l29 199h87l-30 -199h94l29 199h85l-30 -199h95v-86h-107zM214 291h93l20 138h-93z" />
    <glyph glyph-name="dollar" unicode="$" horiz-adv-x="489" 
d="M216 45q-48 1 -91.5 11t-77.5 25v107q33 -20 79 -35t90 -17v186q-60 23 -98 48.5t-56 59.5t-18 81q0 49 22 85t60.5 58t89.5 27v78h60v-77q43 -2 82 -12t75 -28l-30 -90q-30 15 -62.5 23.5t-64.5 11.5v-181q55 -21 93 -44.5t58 -55.5t20 -81q0 -70 -44 -117.5t-127 -59.5
v-106h-60v103zM276 142q36 7 53 27.5t17 48.5q0 19 -7.5 33t-23 25.5t-39.5 21.5v-156zM216 585q-23 -3 -38.5 -13t-23 -25.5t-7.5 -35.5t7 -34t22 -25t40 -22v155z" />
    <glyph glyph-name="percent" unicode="%" horiz-adv-x="774" 
d="M175 724q68 0 105 -59t37 -164q0 -107 -36 -166t-106 -59q-67 0 -103.5 60t-36.5 165q0 107 35.5 165t104.5 58zM175 642q-24 0 -35.5 -35t-11.5 -106q0 -72 11.5 -107.5t36.5 -35.5t36 35t11 107q0 73 -12 107.5t-36 34.5zM584 714l-305 -714h-91l305 714h91zM597 439
q67 0 104.5 -59t37.5 -164q0 -107 -36 -166t-106 -59q-67 0 -103.5 60t-36.5 165q0 108 35.5 165.5t104.5 57.5zM597 357q-24 0 -35.5 -35t-11.5 -107q0 -71 11 -106.5t36 -35.5q26 0 37 36.5t11 105.5t-11.5 105.5t-36.5 36.5z" />
    <glyph glyph-name="ampersand" unicode="&#x26;" horiz-adv-x="601" 
d="M255 724q50 0 85 -18.5t54 -53.5t19 -85q0 -60 -29 -106t-80 -85l109 -142q15 26 24.5 59.5t14.5 72.5h121q-9 -56 -30 -116t-54 -109l114 -141h-146l-47 63q-25 -23 -52.5 -39.5t-60 -25t-72.5 -8.5q-63 0 -106 25t-65 69.5t-22 103.5q0 46 13.5 82t41 65.5t67.5 56.5
q-21 29 -35.5 56t-21.5 56t-7 62q0 49 20.5 84t57.5 54.5t87 19.5zM214 318q-21 -17 -35 -35t-20.5 -39t-6.5 -49q0 -45 24 -73.5t64 -28.5q33 0 58 13.5t47 38.5zM253 634q-22 0 -37.5 -17t-15.5 -53q0 -28 11.5 -58.5t32.5 -57.5q32 24 47 54t15 65q0 33 -14.5 50
t-38.5 17z" />
    <glyph glyph-name="quotesingle" unicode="'" horiz-adv-x="233" 
d="M178 714l-18 -258h-86l-19 258h123z" />
    <glyph glyph-name="parenleft" unicode="(" horiz-adv-x="310" 
d="M45 278q0 87 16 166.5t48 149.5t76 128h103q-66 -97 -99 -209t-33 -234q0 -79 15 -155t44.5 -147t71.5 -135h-102q-45 58 -76.5 126.5t-47.5 146.5t-16 163z" />
    <glyph glyph-name="parenright" unicode=")" horiz-adv-x="310" 
d="M266 278q0 -85 -16.5 -163t-48 -146.5t-77.5 -126.5h-101q42 65 71.5 135.5t45 146.5t15.5 155q0 82 -15 159t-44 148.5t-74 135.5h102q46 -58 77.5 -128.5t48 -150t16.5 -165.5z" />
    <glyph glyph-name="asterisk" unicode="*" horiz-adv-x="463" 
d="M287 761l-18 -151l144 45l20 -104l-140 -13l98 -122l-92 -57l-68 137l-67 -137l-93 57l97 122l-139 13l21 104l143 -45l-17 151h111z" />
    <glyph glyph-name="plus" unicode="+" horiz-adv-x="491" 
d="M292 399h162v-92h-162v-193h-93v193h-163v92h163v194h93v-194z" />
    <glyph glyph-name="comma" unicode="," horiz-adv-x="254" 
d="M200 112q-9 -43 -20.5 -85.5t-25.5 -82.5t-30 -77h-90q10 40 18.5 85.5t15.5 90t10 80.5h116z" />
    <glyph glyph-name="hyphen" unicode="-" horiz-adv-x="302" 
d="M29 215v107h243v-107h-243z" />
    <glyph glyph-name="period" unicode="." horiz-adv-x="254" 
d="M57 65q0 38 19 56.5t52 18.5q32 0 51 -18t19 -57t-19.5 -57.5t-50.5 -18.5q-32 0 -51.5 19t-19.5 57z" />
    <glyph glyph-name="slash" unicode="/" horiz-adv-x="393" 
d="M385 718l-268 -722h-106l269 722h105z" />
    <glyph glyph-name="zero" unicode="0" horiz-adv-x="489" 
d="M449 357q0 -84 -10.5 -151.5t-34.5 -116t-63.5 -74t-96.5 -25.5q-67 0 -112.5 38t-69 119t-23.5 210q0 123 21.5 204t67 122t116.5 41q69 0 114.5 -41.5t68 -123t22.5 -202.5zM159 357q0 -89 8 -147.5t26.5 -87.5t50.5 -29t50.5 29t27 87.5t8.5 147.5q0 88 -8.5 146.5
t-27 88t-50.5 29.5q-31 0 -50 -29t-27 -87.5t-8 -147.5z" />
    <glyph glyph-name="one" unicode="1" horiz-adv-x="489" 
d="M351 0h-118v442q0 23 0.5 45t1 44.5t1.5 42.5q-7 -9 -18.5 -21.5t-26.5 -26.5l-67 -63l-66 71l191 180h102v-714z" />
    <glyph glyph-name="two" unicode="2" horiz-adv-x="489" 
d="M443 0h-409v87l152 193q47 59 73.5 100t37.5 75t11 72q0 44 -22.5 69t-63.5 25q-34 0 -63.5 -15t-62.5 -49l-61 79q29 29 58.5 48.5t63.5 29.5t75 10q60 0 103.5 -24t67.5 -66t24 -99q0 -52 -15 -98t-47 -92.5t-81 -104.5l-106 -131v-5h265v-104z" />
    <glyph glyph-name="three" unicode="3" horiz-adv-x="489" 
d="M428 547q0 -42 -15.5 -76t-44.5 -58t-70 -38v-3q72 -13 109 -56.5t37 -114.5q0 -62 -27 -110t-79.5 -74.5t-129.5 -26.5q-49 0 -90 8t-81 26v110q38 -21 79 -32t78 -11q66 0 95.5 31t29.5 85q0 38 -15.5 62t-49 36.5t-86.5 12.5h-43v99h45q48 0 79 14t46.5 40t15.5 61
q0 44 -24 67.5t-70 23.5q-25 0 -47 -6.5t-42 -17.5t-40 -27l-52 84q42 35 89 51.5t108 16.5q91 0 143 -46.5t52 -130.5z" />
    <glyph glyph-name="four" unicode="4" horiz-adv-x="489" 
d="M475 150h-79v-150h-116v150h-263v93l261 474h118v-469h79v-98zM279 440q0 13 0.5 30.5t1.5 35.5t1.5 34t0.5 24h-3q-8 -22 -17 -42t-19 -38l-125 -236h160v192z" />
    <glyph glyph-name="five" unicode="5" horiz-adv-x="489" 
d="M253 450q57 0 100 -26.5t66.5 -75t23.5 -114.5q0 -75 -26.5 -130t-79.5 -84.5t-131 -29.5q-47 0 -86 8.5t-69 25.5v111q32 -20 72 -32t77 -12q40 0 67 17t41.5 47.5t14.5 71.5q0 60 -31 91.5t-92 31.5q-23 0 -48 -4.5t-47 -11.5l-45 32l23 348h319v-105h-218l-13 -168
q21 4 40.5 6.5t41.5 2.5z" />
    <glyph glyph-name="six" unicode="6" horiz-adv-x="489" 
d="M41 303q0 70 8 133t27.5 115.5t52 91t81 60t114.5 21.5q22 0 45 -2t43 -7v-101q-18 5 -38.5 7.5t-41.5 2.5q-46 0 -79.5 -16t-54.5 -47.5t-32 -77t-13 -105.5h4q12 26 30 44t42 28t55 10q53 0 91 -28.5t57.5 -79.5t19.5 -118q0 -73 -23.5 -128t-67.5 -85.5t-108 -30.5
q-49 0 -88 20.5t-67 60t-42.5 98t-14.5 134.5zM251 92q38 0 61 34.5t23 104.5q0 63 -21 96.5t-62 33.5q-29 0 -49.5 -15.5t-31.5 -40t-11 -53.5q0 -28 5.5 -56.5t16.5 -52t28 -37.5t41 -14z" />
    <glyph glyph-name="seven" unicode="7" horiz-adv-x="489" 
d="M99 0l231 609h-297v105h419v-82l-228 -632h-125z" />
    <glyph glyph-name="eight" unicode="8" horiz-adv-x="489" 
d="M245 724q58 0 101 -20t66.5 -58t23.5 -92q0 -40 -13.5 -72.5t-38.5 -59t-62 -47.5q40 -25 70 -53t46 -61t16 -77q0 -59 -25.5 -102.5t-72 -67.5t-110.5 -24q-67 0 -114.5 23t-72 65.5t-24.5 102.5q0 43 14 78t41.5 63t65.5 51q-33 24 -55.5 51.5t-34.5 59.5t-12 70
q0 54 24 91.5t67.5 58t99.5 20.5zM148 183q0 -43 24.5 -71t71.5 -28q48 0 72.5 27.5t24.5 73.5q0 24 -10 45t-29.5 40.5t-48.5 37.5l-15 11q-31 -19 -50.5 -39t-29.5 -43.5t-10 -53.5zM244 630q-34 0 -55.5 -22.5t-21.5 -62.5q0 -25 9.5 -45.5t27 -37t41.5 -32.5
q26 17 43 33.5t26 36.5t9 45q0 40 -21.5 62.5t-57.5 22.5z" />
    <glyph glyph-name="nine" unicode="9" horiz-adv-x="489" 
d="M447 414q0 -72 -8.5 -135.5t-28.5 -116.5t-53 -91.5t-81 -59.5t-113 -21q-21 0 -46 2.5t-43 6.5v102q18 -5 38.5 -8.5t42.5 -3.5q49 0 83 18.5t54.5 52t31 78.5t12.5 97h-5q-12 -25 -30 -43.5t-42 -28.5t-55 -10q-54 0 -91.5 28.5t-57 79.5t-19.5 119q0 73 23.5 127.5
t68.5 85.5t109 31q48 0 87 -20.5t66.5 -59.5t42 -97t14.5 -133zM238 622q-39 0 -62 -34.5t-23 -105.5q0 -63 21 -96t62 -33q31 0 51 17t30.5 43t10.5 52q0 22 -4.5 49t-14.5 52t-27.5 40.5t-43.5 15.5z" />
    <glyph glyph-name="colon" unicode=":" horiz-adv-x="257" 
d="M58 65q0 38 19 56.5t52 18.5q32 0 51 -18t19 -57t-19.5 -57.5t-50.5 -18.5q-33 0 -52 19t-19 57zM58 473q0 39 19 58t52 19t51.5 -18.5t18.5 -58.5q0 -38 -19.5 -57t-50.5 -19q-33 0 -52 19.5t-19 56.5z" />
    <glyph glyph-name="semicolon" unicode=";" horiz-adv-x="257" 
d="M199 112q-8 -43 -20 -85.5t-26 -82.5t-30 -77h-90q7 30 13.5 63.5t12.5 67.5t10.5 66t7.5 59h116zM58 473q0 39 19 58t52 19q32 0 51 -18.5t19 -58.5q0 -38 -19.5 -57t-50.5 -19q-33 0 -52 19.5t-19 56.5z" />
    <glyph glyph-name="less" unicode="&#x3c;" horiz-adv-x="491" 
d="M455 119l-421 205v62l421 212v-103l-292 -139l292 -134v-103z" />
    <glyph glyph-name="equal" unicode="=" horiz-adv-x="491" 
d="M37 411v92h417v-92h-417zM37 201v92h417v-92h-417z" />
    <glyph glyph-name="greater" unicode="&#x3e;" horiz-adv-x="491" 
d="M36 222l291 134l-291 139v103l421 -212v-62l-421 -205v103z" />
    <glyph glyph-name="question" unicode="?" horiz-adv-x="383" 
d="M112 255q0 34 6.5 60t21.5 49.5t40 48.5q26 26 41 46t22 40t7 45q0 39 -20 58.5t-58 19.5q-32 0 -62 -11t-62 -32l-41 90q40 26 83 40.5t91 14.5q88 0 135 -46t47 -125q0 -43 -10.5 -74.5t-31.5 -59t-54 -59.5q-24 -24 -37 -41.5t-17 -34.5t-4 -40v-23h-97v34zM91 65
q0 38 19.5 56.5t52.5 18.5q31 0 50.5 -18t19.5 -57t-19.5 -57.5t-50.5 -18.5q-32 0 -52 19t-20 57z" />
    <glyph glyph-name="at" unicode="@" horiz-adv-x="756" 
d="M711 362q0 -54 -10 -100t-29.5 -79.5t-47 -52.5t-63.5 -19q-40 0 -64 21.5t-32 58.5h-6q-16 -39 -42 -59.5t-62 -20.5q-67 0 -103 50.5t-36 138.5q0 71 22 122.5t63.5 79.5t99.5 28q33 0 68.5 -6.5t61.5 -17.5l-9 -206q-1 -14 -1 -27.5v-22.5q0 -35 11 -49t28 -14
q21 0 35.5 19.5t21.5 59t7 98.5q1 84 -27 147.5t-78.5 98t-120.5 34.5q-67 0 -116.5 -28.5t-82.5 -77.5t-49.5 -112t-16.5 -132q0 -90 26.5 -157.5t80.5 -105t135 -37.5q47 0 95 12t89 30v-80q-40 -19 -85 -28.5t-99 -9.5q-105 0 -178.5 44t-112 127t-38.5 200
q0 96 25 175.5t71.5 136.5t111 87.5t144.5 30.5q71 0 128.5 -26t99 -74t63.5 -113t22 -144zM307 298q0 -57 16 -84t43 -27q32 0 47 37t19 115l6 113q-8 2 -17.5 3.5t-21.5 1.5q-30 0 -50.5 -20t-31 -55.5t-10.5 -83.5z" />
    <glyph glyph-name="A" unicode="A" horiz-adv-x="549" 
d="M421 0l-49 191h-194l-49 -191h-129l200 715h147l202 -715h-128zM299 496q-4 19 -8.5 40.5t-9 42.5t-7.5 38q-2 -17 -6.5 -38.5t-9 -42.5t-8.5 -39l-49 -201h148z" />
    <glyph glyph-name="B" unicode="B" horiz-adv-x="555" 
d="M263 714q115 0 173.5 -42.5t58.5 -133.5q0 -43 -12.5 -76t-36 -54.5t-56.5 -28.5v-5q39 -9 65.5 -29.5t40.5 -54.5t14 -84q0 -63 -26 -109.5t-74.5 -71.5t-116.5 -25h-218v714h188zM268 420q56 0 80 26t24 77q0 46 -26.5 68.5t-81.5 22.5h-69v-194h73zM195 323v-222h86
q55 0 80 29.5t25 84.5q0 35 -12 58.5t-37 36.5t-63 13h-79z" />
    <glyph glyph-name="C" unicode="C" horiz-adv-x="519" 
d="M331 620q-39 0 -68.5 -19.5t-49 -55.5t-29.5 -84t-10 -105q0 -83 18.5 -141.5t54.5 -89.5t88 -31q36 0 69 10t66 24v-105q-33 -17 -69.5 -25t-80.5 -8q-87 0 -147.5 44t-91.5 126t-31 197q0 79 17.5 146t52.5 116.5t87 77t119 27.5q44 0 86 -10.5t80 -32.5l-38 -99
q-28 17 -59 27.5t-64 10.5z" />
    <glyph glyph-name="D" unicode="D" horiz-adv-x="601" 
d="M551 367q0 -120 -35.5 -201.5t-103 -123.5t-166.5 -42h-171v714h184q93 0 158 -39.5t99.5 -116.5t34.5 -191zM427 362q0 85 -19.5 140t-57 81.5t-93.5 26.5h-62v-506h52q92 0 136 64.5t44 193.5z" />
    <glyph glyph-name="E" unicode="E" horiz-adv-x="460" 
d="M412 0h-337v714h337v-103h-217v-188h203v-103h-203v-216h217v-104z" />
    <glyph glyph-name="F" unicode="F" horiz-adv-x="442" 
d="M195 0h-120v714h336v-103h-216v-216h202v-103h-202v-292z" />
    <glyph glyph-name="G" unicode="G" horiz-adv-x="612" 
d="M326 392h226v-363q-51 -19 -104.5 -29t-113.5 -10q-94 0 -157.5 45.5t-95 128t-31.5 195.5q0 110 35.5 192t105 127.5t169.5 45.5q52 0 99 -12t85 -33l-38 -99q-33 19 -69 29.5t-75 10.5q-60 0 -102 -31t-63.5 -90t-21.5 -143q0 -77 17.5 -136.5t55 -92.5t96.5 -33
q27 0 49 3.5t41 9.5v182h-108v103z" />
    <glyph glyph-name="H" unicode="H" horiz-adv-x="620" 
d="M545 0h-120v320h-230v-320h-120v714h120v-290h230v290h120v-714z" />
    <glyph glyph-name="I" unicode="I" horiz-adv-x="328" 
d="M296 0h-264v67l72 26v528l-72 26v67h264v-67l-72 -26v-528l72 -26v-67z" />
    <glyph glyph-name="J" unicode="J" horiz-adv-x="267" 
d="M15 -204q-22 0 -40.5 2.5t-34.5 8.5v103q13 -4 28 -7t32 -3q25 0 41 11t24.5 38.5t8.5 74.5v690h120v-690q0 -84 -21.5 -134t-61.5 -72t-96 -22z" />
    <glyph glyph-name="K" unicode="K" horiz-adv-x="535" 
d="M539 0h-135l-156 309l-53 -49v-260h-120v714h120v-339q10 20 25 45l33 55l150 239h131l-201 -316z" />
    <glyph glyph-name="L" unicode="L" horiz-adv-x="440" 
d="M75 0v714h120v-610h225v-104h-345z" />
    <glyph glyph-name="M" unicode="M" horiz-adv-x="805" 
d="M348 0l-165 563h-4q3 -29 4.5 -60t2.5 -59t1 -52v-392h-112v714h167l158 -535h3l160 535h168v-714h-116v394q0 24 1 52t2.5 58t2.5 59h-4l-168 -563h-101z" />
    <glyph glyph-name="N" unicode="N" horiz-adv-x="659" 
d="M585 0h-145l-257 539h-4q2 -32 4 -61.5t2.5 -57t1.5 -52.5v-368h-112v714h144l257 -530h3q-2 30 -3 59.5t-2 56.5t-2 51v363h113v-714z" />
    <glyph glyph-name="O" unicode="O" horiz-adv-x="641" 
d="M591 358q0 -82 -16 -149.5t-49.5 -116.5t-84.5 -75.5t-120 -26.5q-70 0 -121.5 26.5t-84.5 76t-49 117t-16 149.5q0 118 30 199.5t90.5 124t150.5 42.5q93 0 152.5 -46t88.5 -128.5t29 -192.5zM175 358q0 -85 16 -143.5t48.5 -88.5t81.5 -30t81 29.5t48 88t16 144.5
q0 129 -35.5 195.5t-109.5 66.5q-49 0 -81.5 -30t-48.5 -88.5t-16 -143.5z" />
    <glyph glyph-name="P" unicode="P" horiz-adv-x="516" 
d="M253 714q117 0 172.5 -55.5t55.5 -161.5q0 -52 -13.5 -95t-42.5 -74.5t-73.5 -48t-106.5 -16.5h-50v-263h-120v714h178zM245 612h-50v-247h38q43 0 71 13t42 41.5t14 74.5q0 62 -28 90t-87 28z" />
    <glyph glyph-name="Q" unicode="Q" horiz-adv-x="641" 
d="M591 358q0 -86 -16.5 -153.5t-49 -114.5t-80.5 -72l131 -188h-145l-101 161q-3 0 -7.5 -0.5t-8.5 -0.5q-68 0 -118 28t-82.5 77.5t-48 117t-15.5 146.5q0 118 30 199.5t90.5 124t150.5 42.5t149.5 -42.5t90 -124.5t30.5 -200zM175 358q0 -85 16 -143.5t48.5 -88.5
t81.5 -30t81 29.5t48 88t16 144.5q0 129 -35.5 195.5t-109.5 66.5q-49 0 -81.5 -30t-48.5 -88.5t-16 -143.5z" />
    <glyph glyph-name="R" unicode="R" horiz-adv-x="539" 
d="M242 714q82 0 135.5 -23t79.5 -68.5t26 -114.5q0 -47 -13.5 -84t-39 -63.5t-61.5 -44.5l164 -316h-134l-136 286h-68v-286h-120v714h167zM239 611h-44v-228h49q59 0 88 30t29 89q0 39 -13.5 63t-40 35t-68.5 11z" />
    <glyph glyph-name="S" unicode="S" horiz-adv-x="465" 
d="M429 201q0 -62 -27 -110t-76 -74.5t-116 -26.5q-32 0 -62 4t-57 12t-53 21v120q40 -22 85 -35.5t86 -13.5q33 0 55 12.5t33 33.5t11 47q0 28 -11 48.5t-36 39t-69 40.5q-31 17 -58.5 35.5t-47 42.5t-31 56t-11.5 75q0 60 25.5 104t72.5 68.5t110 23.5q47 0 90 -11.5
t82 -31.5l-36 -104q-36 20 -69.5 29.5t-65.5 9.5q-28 0 -48 -10.5t-30.5 -29t-10.5 -43.5q0 -29 11 -49t36 -37.5t69 -40.5q49 -25 82 -53.5t50 -65t17 -86.5z" />
    <glyph glyph-name="T" unicode="T" horiz-adv-x="459" 
d="M289 0h-119v610h-156v104h430v-104h-155v-610z" />
    <glyph glyph-name="U" unicode="U" horiz-adv-x="607" 
d="M537 237q0 -79 -26.5 -134.5t-78.5 -84t-130 -28.5q-113 0 -172.5 63t-59.5 183v478h120v-472q0 -77 29 -111.5t85 -34.5q39 0 63.5 15t37 48t12.5 84v471h120v-477z" />
    <glyph glyph-name="V" unicode="V" horiz-adv-x="529" 
d="M529 714l-197 -714h-136l-196 714h125l109 -434q6 -21 11.5 -49t11 -55.5t7.5 -49.5q3 22 8.5 49.5t11.5 55.5t11 49l110 434h124z" />
    <glyph glyph-name="W" unicode="W" horiz-adv-x="814" 
d="M810 714l-155 -714h-137l-87 391q-2 15 -5.5 34t-7 40t-7 43.5t-5.5 42.5q-2 -15 -4.5 -35t-6 -42t-7 -43t-7.5 -39l-86 -392h-136l-156 714h119l81 -395q4 -22 8.5 -47t8.5 -49.5t7.5 -47.5t4.5 -42q3 22 7 46.5l8 49t8.5 47t8.5 40.5l89 398h108l87 -398q4 -18 8 -40.5
t8.5 -47t8 -48.5t6.5 -47q3 29 7.5 61t10.5 64.5t11 60.5l82 395h120z" />
    <glyph glyph-name="X" unicode="X" horiz-adv-x="503" 
d="M500 0h-131l-118 267l-122 -267h-126l180 368l-165 346h127l107 -248l107 248h127l-165 -349z" />
    <glyph glyph-name="Y" unicode="Y" horiz-adv-x="491" 
d="M246 404l119 310h126l-186 -437v-277h-119v273l-186 441h127z" />
    <glyph glyph-name="Z" unicode="Z" horiz-adv-x="455" 
d="M431 0h-405v86l264 524h-258v104h392v-86l-265 -524h272v-104z" />
    <glyph glyph-name="bracketleft" unicode="[" horiz-adv-x="315" 
d="M290 -162h-226v884h226v-90h-119v-704h119v-90z" />
    <glyph glyph-name="backslash" unicode="\" horiz-adv-x="393" 
d="M116 718l268 -722h-106l-268 722h106z" />
    <glyph glyph-name="bracketright" unicode="]" horiz-adv-x="315" 
d="M26 -72h118v704h-118v90h225v-884h-225v90z" />
    <glyph glyph-name="asciicircum" unicode="^" horiz-adv-x="507" 
d="M16 286l203 429h61l211 -429h-104l-137 287l-130 -287h-104z" />
    <glyph glyph-name="underscore" unicode="_" horiz-adv-x="450" 
d="M452 -160h-454v80h454v-80z" />
    <glyph glyph-name="grave" unicode="`" horiz-adv-x="305" 
d="M174 766q11 -22 27 -50t33.5 -54t30.5 -44v-12h-79q-15 13 -36 32t-42 41t-39 42.5t-29 35.5v9h134z" />
    <glyph glyph-name="a" unicode="a" horiz-adv-x="488" 
d="M253 553q86 0 129 -48t43 -142v-363h-85l-19 74h-3q-18 -29 -38.5 -47.5t-46.5 -27.5t-61 -9q-44 0 -75 22t-46.5 60t-15.5 85q0 84 51 127.5t149 47.5l74 3v26q0 52 -18 76t-55 24q-28 0 -58.5 -9.5t-63.5 -27.5l-35 84q37 22 81 33.5t93 11.5zM261 256
q-57 -3 -82.5 -27t-25.5 -69q0 -41 16.5 -60t46.5 -19q41 0 67 33.5t26 93.5v50z" />
    <glyph glyph-name="b" unicode="b" horiz-adv-x="528" 
d="M182 566q0 -21 -1.5 -45t-3.5 -49h5q22 39 54.5 59.5t76.5 20.5q81 0 127.5 -72t46.5 -208q0 -90 -21.5 -153t-60 -96t-93.5 -33q-44 0 -75 18t-55 55h-7l-18 -63h-91v760h116v-194zM278 454q-37 0 -58 -20.5t-29.5 -58.5t-8.5 -91v-20q0 -89 22.5 -133t75.5 -44
q43 0 66 46.5t23 140.5q0 90 -22.5 135t-68.5 45z" />
    <glyph glyph-name="c" unicode="c" horiz-adv-x="416" 
d="M253 -10q-68 0 -115.5 30t-71.5 92t-24 157q0 89 24.5 152.5t73 97.5t118.5 34q41 0 74 -8.5t59 -24.5l-33 -92q-24 12 -47.5 19t-46.5 7q-34 0 -57.5 -21t-35 -62t-11.5 -102q0 -60 12 -100t35 -60t57 -20q32 0 60.5 9.5t56.5 26.5v-99q-27 -18 -59 -27t-69 -9z" />
    <glyph glyph-name="d" unicode="d" horiz-adv-x="528" 
d="M217 -10q-83 0 -129.5 73t-46.5 208q0 136 46.5 209t127.5 73q30 0 54.5 -9.5t44 -27t33.5 -43.5h5q-2 25 -4 48t-2 42v197h116v-760h-92l-17 66h-7q-15 -24 -33.5 -41t-41.5 -26t-54 -9zM250 86q51 0 74.5 41t23.5 125v27q0 89 -22.5 132t-76.5 43q-45 0 -67.5 -47
t-22.5 -136q0 -91 23 -138t68 -47z" />
    <glyph glyph-name="e" unicode="e" horiz-adv-x="484" 
d="M248 552q64 0 108 -30.5t67 -85t23 -128.5v-66h-289q2 -79 32.5 -118.5t89.5 -39.5q38 0 71.5 9t70.5 30v-96q-34 -19 -71 -28t-83 -9q-75 0 -125 33.5t-75 96t-25 148.5q0 92 24 155.5t70.5 96t111.5 32.5zM250 462q-40 0 -64 -33t-27 -103h177q0 40 -9.5 70.5t-28.5 48
t-48 17.5z" />
    <glyph glyph-name="f" unicode="f" horiz-adv-x="308" 
d="M298 449h-100v-449h-116v449h-71v60l71 35v27q0 67 15.5 110t49 63.5t85.5 20.5q30 0 54.5 -5t49.5 -15l-27 -88q-14 5 -29 8t-31 3q-27 0 -39 -22t-12 -72v-31h100v-94z" />
    <glyph glyph-name="g" unicode="g" horiz-adv-x="528" 
d="M218 553q42 0 73.5 -19t55.5 -61h6l11 70h98v-534q0 -80 -24.5 -135.5t-76.5 -84.5t-132 -29q-47 0 -85.5 8.5t-73.5 26.5v101q40 -20 79.5 -30t79.5 -10q57 0 87.5 30t30.5 97v13q0 16 1 37.5t3 39.5h-5q-23 -43 -55 -63t-77 -20q-81 0 -127 72.5t-46 206.5
q0 136 47 210t130 74zM249 454q-30 0 -50 -21t-29.5 -62.5t-9.5 -103.5q0 -91 22.5 -135t68.5 -44q25 0 43.5 9.5t30.5 29.5t18 50.5t6 72.5v24q0 63 -10.5 103t-32.5 58.5t-57 18.5z" />
    <glyph glyph-name="h" unicode="h" horiz-adv-x="532" 
d="M182 575q0 -28 -2.5 -55t-5.5 -48h7q13 27 32.5 45t44.5 27t53 9q51 0 86 -22t53 -64.5t18 -107.5v-359h-116v332q0 62 -16.5 91t-54.5 29q-37 0 -59 -20t-31 -61t-9 -104v-267h-116v760h116v-185z" />
    <glyph glyph-name="i" unicode="i" horiz-adv-x="248" 
d="M182 543v-543h-116v543h116zM125 753q30 0 47 -17t17 -51t-17 -50.5t-47 -16.5t-47.5 16.5t-17.5 50.5q0 35 17 51.5t48 16.5z" />
    <glyph glyph-name="j" unicode="j" horiz-adv-x="248" 
d="M37 -240q-19 0 -37.5 3t-33.5 8v98q12 -4 23.5 -6.5t24.5 -2.5q25 0 38.5 18.5t13.5 60.5v604h116v-610q0 -57 -16 -95.5t-48.5 -57.5t-80.5 -20zM60 685q0 35 17 51.5t48 16.5q30 0 47 -17t17 -51t-17 -50.5t-47 -16.5t-47.5 16.5t-17.5 50.5z" />
    <glyph glyph-name="k" unicode="k" horiz-adv-x="488" 
d="M182 408q0 -30 -1.5 -60.5t-4.5 -58.5h3q7 12 14.5 25t15.5 25t15 23l126 181h127l-161 -223l171 -320h-129l-121 238l-55 -55v-183h-116v760h116v-352z" />
    <glyph glyph-name="l" unicode="l" horiz-adv-x="247" 
d="M182 0h-116v760h116v-760z" />
    <glyph glyph-name="m" unicode="m" horiz-adv-x="795" 
d="M582 553q76 0 113 -47.5t37 -147.5v-358h-116v330q0 63 -17 93t-52 30q-50 0 -70 -42.5t-20 -127.5v-283h-116v331q0 42 -7.5 69t-22.5 40t-39 13q-35 0 -55 -22t-27.5 -63.5t-7.5 -99.5v-268h-116v543h91l14 -71h7q13 27 32.5 45t45 27t55.5 9q51 0 83 -22t46 -60h8
q21 41 55 61.5t79 20.5z" />
    <glyph glyph-name="n" unicode="n" horiz-adv-x="532" 
d="M312 553q75 0 115.5 -48t40.5 -145v-360h-116v332q0 60 -16.5 90.5t-55.5 30.5q-55 0 -76.5 -44t-21.5 -141v-268h-116v543h91l14 -71h7q14 27 34 45t46 27t54 9z" />
    <glyph glyph-name="o" unicode="o" horiz-adv-x="514" 
d="M473 273q0 -62 -13.5 -113.5t-40 -89.5t-67.5 -59t-96 -21q-52 0 -92 20.5t-67 58.5t-41.5 89.5t-14.5 114.5q0 86 24 149t72.5 97t120.5 34q66 0 114 -32.5t74.5 -95t26.5 -152.5zM160 272q0 -60 10 -101.5t32 -62.5t55 -21q35 0 56.5 21t31.5 62.5t10 101.5
q0 61 -10.5 101.5t-31.5 61t-56 20.5q-51 0 -74 -45.5t-23 -137.5z" />
    <glyph glyph-name="p" unicode="p" horiz-adv-x="528" 
d="M311 553q83 0 129.5 -72t46.5 -210q0 -89 -21.5 -152t-60 -96t-91.5 -33q-30 0 -54.5 9.5t-44 27t-33.5 42.5h-5q2 -24 3.5 -46t1.5 -38v-225h-116v783h94l16 -72h6q16 28 34.5 46.5t42 27t52.5 8.5zM278 456q-33 0 -54.5 -18t-31.5 -55.5t-10 -95.5v-22q0 -59 9.5 -98.5
t31 -58.5t56.5 -19q30 0 50 20.5t30 61t10 100.5q0 92 -22 138.5t-69 46.5z" />
    <glyph glyph-name="q" unicode="q" horiz-adv-x="528" 
d="M346 -20q0 17 1.5 40.5t3.5 52.5h-5q-22 -40 -54.5 -61.5t-77.5 -21.5q-80 0 -126.5 72t-46.5 207q0 92 22 155t61 96t94 33q45 0 76 -20t53 -61h6l11 71h98v-783h-116v220zM251 88q34 0 55 17.5t31.5 54t10.5 90.5v24q0 92 -22.5 136t-76.5 44q-45 0 -67 -47.5
t-22 -139.5q0 -91 22.5 -135t68.5 -44z" />
    <glyph glyph-name="r" unicode="r" horiz-adv-x="363" 
d="M303 553q12 0 24.5 -1.5t24.5 -4.5l-12 -119q-10 4 -21.5 5.5t-23.5 1.5q-25 0 -45.5 -10.5t-36 -31t-23.5 -49t-8 -64.5v-280h-116v543h90l16 -92h6q13 28 31 51.5t42 37t52 13.5z" />
    <glyph glyph-name="s" unicode="s" horiz-adv-x="400" 
d="M367 155q0 -53 -21.5 -90t-62.5 -56t-100 -19q-44 0 -80 8t-67 23v109q29 -18 67.5 -30.5t74.5 -12.5q37 0 55.5 15.5t18.5 44.5q0 17 -7 30t-27.5 27.5t-59.5 32.5q-39 21 -66.5 43t-42 52t-14.5 72q0 70 48 109.5t128 39.5q42 0 78.5 -10t72.5 -30l-35 -89
q-27 16 -55.5 26t-58.5 10q-31 0 -48 -14t-17 -38q0 -16 7.5 -28.5t28 -25.5t58.5 -33t66 -42t43.5 -51.5t15.5 -72.5z" />
    <glyph glyph-name="t" unicode="t" horiz-adv-x="329" 
d="M244 89q16 0 32.5 4t32.5 10v-91q-20 -10 -45.5 -16t-54.5 -6q-44 0 -74 17t-45.5 53.5t-15.5 95.5v293h-59v59l67 34l31 119h77v-118h112v-94h-112v-288q0 -36 13 -54t41 -18z" />
    <glyph glyph-name="u" unicode="u" horiz-adv-x="532" 
d="M466 543v-543h-91l-14 71h-7q-13 -27 -33.5 -45t-46 -27t-54.5 -9q-52 0 -87 23t-52 67.5t-17 108.5v354h116v-326q0 -63 16.5 -95t53.5 -32q39 0 60.5 20.5t30.5 59.5t9 97v276h116z" />
    <glyph glyph-name="v" unicode="v" horiz-adv-x="455" 
d="M164 0l-162 543h121l78 -304q6 -20 10.5 -40.5t7.5 -41t6 -40.5h4q1 15 4 33t7.5 38.5t9.5 41.5l82 313h121l-163 -543h-126z" />
    <glyph glyph-name="w" unicode="w" horiz-adv-x="707" 
d="M382 276q-3 16 -7 37l-8 42t-7 41t-5 34h-3q-3 -16 -6.5 -36t-7 -41.5t-7.5 -41t-8 -35.5l-59 -276h-130l-126 543h116l52 -240q5 -27 10 -58t9.5 -61.5t7.5 -57.5h3q2 17 5 37.5t6 42.5t7 44t9 43l56 250h130l55 -252q5 -22 9.5 -50.5t9 -58t7.5 -56.5h4q2 19 5 44.5
t7.5 53.5t10.5 55l58 264h114l-129 -543h-132z" />
    <glyph glyph-name="x" unicode="x" horiz-adv-x="456" 
d="M156 278l-139 265h127l85 -178l84 178h127l-139 -267l145 -276h-127l-92 191l-91 -191h-126z" />
    <glyph glyph-name="y" unicode="y" horiz-adv-x="455" 
d="M2 543h123l80 -288q5 -18 9 -37l8 -38t5 -37h4q3 24 9.5 52t14.5 60l77 288h121l-182 -609q-18 -60 -43 -98.5t-59 -57t-79 -18.5q-17 0 -32.5 2t-30.5 6v99q11 -3 22.5 -5t22.5 -2q24 0 39.5 10t27 31.5t22.5 57.5l12 45z" />
    <glyph glyph-name="z" unicode="z" horiz-adv-x="382" 
d="M358 0h-333v73l196 375h-184v95h313v-80l-191 -368h199v-95z" />
    <glyph glyph-name="braceleft" unicode="{" horiz-adv-x="371" 
d="M337 -162q-72 1 -116.5 16.5t-65 50t-20.5 90.5v145q0 32 -11 52t-35 30t-62 10v91q37 1 61 10t35.5 29.5t11.5 52.5v147q0 53 19 87.5t63.5 51.5t119.5 17v-92q-30 0 -51 -7.5t-31.5 -24t-10.5 -47.5v-145q0 -53 -23 -83t-75 -38v-6q53 -9 75.5 -38.5t22.5 -80.5v-147
q0 -28 10 -45.5t30 -25t53 -8.5v-92z" />
    <glyph glyph-name="bar" unicode="|" horiz-adv-x="453" 
d="M177 764h98v-997h-98v997z" />
    <glyph glyph-name="braceright" unicode="}" horiz-adv-x="371" 
d="M34 -70q32 1 52.5 8.5t30.5 25t10 45.5v147q0 52 23 81t74 38v6q-51 8 -74 38t-23 83v146q0 30 -11.5 46.5t-32 24t-49.5 7.5v92q73 0 117 -16t64.5 -50t20.5 -91v-146q0 -30 10.5 -50.5t34.5 -31t63 -10.5v-91q-37 0 -61 -9.5t-35.5 -29.5t-11.5 -52v-146
q0 -54 -19.5 -88.5t-63 -51.5t-119.5 -17v92z" />
    <glyph glyph-name="asciitilde" unicode="~" horiz-adv-x="491" 
d="M232 308q-29 14 -52.5 20.5t-44.5 6.5q-24 0 -50.5 -15.5t-50.5 -43.5v100q22 26 49.5 39t60.5 13q29 0 55.5 -7.5t59.5 -23.5q30 -14 53 -20.5t44 -6.5q25 0 52 16.5t49 42.5v-100q-22 -24 -49.5 -37.5t-59.5 -13.5q-30 0 -56 7.5t-60 22.5z" />
    <glyph glyph-name="uni00A0" unicode="&#xa0;" horiz-adv-x="205" 
 />
    <glyph glyph-name="exclamdown" unicode="&#xa1;" horiz-adv-x="258" 
d="M82 315h93l21 -499h-136zM201 472q0 -39 -19.5 -57.5t-51.5 -18.5q-33 0 -52 19t-19 57t19 57t52 19q30 0 50.5 -19t20.5 -57z" />
    <glyph glyph-name="cent" unicode="&#xa2;" horiz-adv-x="489" 
d="M308 645q32 -1 60.5 -9.5t50.5 -21.5l-33 -93q-24 12 -48 19t-45 7q-35 0 -58.5 -19.5t-35 -60.5t-11.5 -104t11.5 -102.5t34 -58.5t57.5 -19q31 0 60.5 9t57.5 25v-99q-22 -13 -47 -21.5t-54 -11.5v-95h-70v97q-55 7 -92.5 40.5t-56.5 93t-19 141.5q0 84 19.5 143.5
t57 94t91.5 42.5v82h70v-79z" />
    <glyph glyph-name="sterling" unicode="&#xa3;" horiz-adv-x="489" 
d="M294 724q42 0 79.5 -10.5t71.5 -30.5l-37 -93q-28 15 -54 23t-52 8q-34 0 -51.5 -22.5t-17.5 -73.5v-118h145v-88h-145v-88q0 -31 -7.5 -55t-22.5 -41.5t-35 -29.5h288v-105h-414v99q25 12 41 28.5t24.5 41.5t8.5 61v89h-75v88h75v119q0 66 21.5 110t61.5 66t95 22z" />
    <glyph glyph-name="currency" unicode="&#xa4;" horiz-adv-x="555" 
d="M83 353q0 28 8 54.5t24 50.5l-65 65l57 56l63 -64q24 16 51 24t56 8t55 -8t50 -25l65 65l57 -55l-64 -65q15 -23 23 -50t8 -56q0 -30 -8 -56.5t-23 -50.5l62 -63l-55 -56l-65 64q-23 -15 -49.5 -23.5t-55.5 -8.5q-31 0 -57.5 8t-49.5 24l-63 -63l-56 56l64 63
q-16 24 -24 50.5t-8 55.5zM162 353q0 -32 15 -58t41.5 -42t58.5 -16q33 0 59.5 16t42 42.5t15.5 57.5q0 32 -16 58.5t-42.5 42.5t-58.5 16t-58 -16t-41.5 -42.5t-15.5 -58.5z" />
    <glyph glyph-name="yen" unicode="&#xa5;" horiz-adv-x="489" 
d="M244 409l103 305h123l-147 -368h100v-76h-121v-75h121v-76h-121v-119h-116v119h-121v76h121v75h-121v76h97l-144 368h123z" />
    <glyph glyph-name="brokenbar" unicode="&#xa6;" horiz-adv-x="453" 
d="M177 759h98v-393h-98v393zM177 159h98v-393h-98v393z" />
    <glyph glyph-name="section" unicode="&#xa7;" horiz-adv-x="425" 
d="M46 396q0 40 19.5 70t51.5 48q-31 22 -47.5 50.5t-16.5 62.5q0 63 47.5 99t122.5 36q42 0 77 -9t70 -27l-33 -80q-29 17 -56.5 26t-56.5 9q-35 0 -53 -13.5t-18 -38.5q0 -18 10 -31.5t30 -25.5t49 -26q45 -20 75 -42t45.5 -49.5t15.5 -65.5q0 -42 -17 -72.5t-46 -51.5
q31 -22 45 -49t14 -62q0 -69 -49.5 -109t-133.5 -40q-44 0 -80 9.5t-65 26.5v91q20 -12 44.5 -23t50.5 -17t48 -6q43 0 64 17.5t21 44.5q0 19 -7.5 32t-28 26.5t-59.5 32.5q-46 23 -75.5 44.5t-43.5 48.5t-14 64zM139 409q0 -19 9 -34.5t28 -29t47 -27.5l27 -14
q16 11 25.5 28t9.5 41q0 22 -8.5 38t-30.5 31.5t-63 33.5q-20 -8 -32 -25.5t-12 -41.5z" />
    <glyph glyph-name="dieresis" unicode="&#xa8;" horiz-adv-x="529" 
d="M118 678q0 32 16 46.5t40 14.5t40 -15t16 -45t-16 -45.5t-40 -15.5t-40 15.5t-16 44.5zM298 678q0 32 16 46.5t40 14.5q25 0 40.5 -15t15.5 -45t-16 -45.5t-40 -15.5t-40 15.5t-16 44.5z" />
    <glyph glyph-name="copyright" unicode="&#xa9;" horiz-adv-x="829" 
d="M430 131q-99 0 -151.5 60t-52.5 165q0 69 24 120t70.5 78.5t111.5 27.5q34 0 67.5 -8t65.5 -23l-32 -68q-25 13 -49.5 19t-47.5 6q-56 0 -88 -39t-32 -113q0 -76 29 -113.5t91 -37.5q26 0 54.5 7t55.5 19v-74q-27 -12 -55 -19t-61 -7zM413 -10q-83 0 -150.5 28t-116 78
t-74.5 116.5t-26 144.5q0 80 28 147t78.5 116.5t117.5 76.5t145 27q79 0 146.5 -27.5t117 -77.5t77 -117t27.5 -146q0 -80 -27.5 -147t-77.5 -116t-117.5 -76t-147.5 -27zM416 51q65 0 120 22.5t95 63.5t62 97t22 122q0 67 -22.5 123t-63 97.5t-95.5 64t-120 22.5
q-67 0 -122.5 -23t-95.5 -65t-62 -97.5t-22 -121.5q0 -68 23 -124t64 -96.5t96.5 -62.5t120.5 -22z" />
    <glyph glyph-name="ordfeminine" unicode="&#xaa;" horiz-adv-x="336" 
d="M173 722q59 0 88 -31.5t29 -92.5v-220h-57l-14 52q-17 -28 -42 -43t-59 -15q-28 0 -49.5 13.5t-33 37.5t-11.5 54q0 38 17 60.5t49 33.5t77 14l42 3v16q0 27 -12.5 39.5t-38.5 12.5q-21 0 -42.5 -7t-44.5 -19l-25 59q29 16 60 24.5t67 8.5zM174 533q-37 -3 -52 -16.5
t-15 -37.5q0 -21 10.5 -31.5t28.5 -10.5q30 0 46.5 22t16.5 57v20z" />
    <glyph glyph-name="guillemotleft" unicode="&#xab;" horiz-adv-x="521" 
d="M33 277l157 210l82 -44l-114 -173l114 -172l-82 -45l-157 210v14zM247 277l158 210l82 -44l-114 -173l114 -172l-82 -45l-158 210v14z" />
    <glyph glyph-name="logicalnot" unicode="&#xac;" horiz-adv-x="491" 
d="M450 399v-279h-93v187h-321v92h414z" />
    <glyph glyph-name="uni00AD" unicode="&#xad;" horiz-adv-x="302" 
d="M29 215v107h243v-107h-243z" />
    <glyph glyph-name="registered" unicode="&#xae;" horiz-adv-x="829" 
d="M272 145v432h129q81 0 122 -32.5t41 -97.5q0 -43 -19 -72t-54 -44l102 -186h-96l-83 167h-55v-167h-87zM397 377q37 0 57.5 17t20.5 50t-18.5 47.5t-59.5 14.5h-38v-129h38zM413 -10q-83 0 -150.5 28t-116 78t-74.5 116.5t-26 144.5q0 80 28 147t78.5 116.5t117.5 76.5
t145 27q79 0 146.5 -27.5t117 -77.5t77 -117t27.5 -146q0 -80 -27.5 -147t-77.5 -116t-117.5 -76t-147.5 -27zM416 51q65 0 120 22.5t95 63.5t62 97t22 122q0 67 -22.5 123t-63 97.5t-95.5 64t-120 22.5q-67 0 -122.5 -23t-95.5 -65t-62 -97.5t-22 -121.5q0 -68 23 -124
t64 -96.5t96.5 -62.5t120.5 -22z" />
    <glyph glyph-name="overscore" unicode="&#xaf;" horiz-adv-x="471" 
d="M474 760h-477v85h477v-85z" />
    <glyph glyph-name="degree" unicode="&#xb0;" horiz-adv-x="383" 
d="M191 428q-44 0 -78.5 18.5t-54.5 52t-20 77.5t20 77.5t54.5 52t78.5 18.5q45 0 79 -19t53.5 -52t19.5 -77q0 -45 -19.5 -78t-54 -51.5t-78.5 -18.5zM191 499q35 0 55 21t20 56t-20 55.5t-55 20.5t-55 -21.5t-20 -54.5q0 -35 20.5 -56t54.5 -21z" />
    <glyph glyph-name="plusminus" unicode="&#xb1;" horiz-adv-x="491" 
d="M36 0v92h419v-92h-419zM292 429h162v-92h-162v-193h-93v193h-163v92h163v194h93v-194z" />
    <glyph glyph-name="uni00B2" unicode="&#xb2;" horiz-adv-x="339" 
d="M299 415h-272v73l96 108q29 31 45.5 53.5t24 41t7.5 39.5q0 22 -13.5 35t-37.5 13q-20 0 -39.5 -10.5t-40.5 -31.5l-44 58q23 26 57.5 43t77.5 17q61 0 95.5 -32t34.5 -85q0 -34 -12 -63t-38.5 -61t-68.5 -76l-41 -45h169v-77z" />
    <glyph glyph-name="uni00B3" unicode="&#xb3;" horiz-adv-x="339" 
d="M158 853q59 0 94.5 -29.5t35.5 -79.5q0 -37 -18 -63t-52 -39v-5q41 -10 62 -37t21 -68q0 -58 -42 -91.5t-114 -33.5q-33 0 -62 7.5t-55 22.5v81q26 -17 55.5 -26t60.5 -9q36 0 53 15t17 41q0 30 -19.5 45.5t-61.5 15.5h-43v69h38q40 0 58 16.5t18 43.5q0 24 -13.5 37
t-40.5 13q-23 0 -42.5 -8.5t-42.5 -27.5l-40 58q29 25 61.5 38.5t71.5 13.5z" />
    <glyph glyph-name="acute" unicode="&#xb4;" horiz-adv-x="305" 
d="M265 757q-10 -15 -28 -34.5t-38.5 -41t-41.5 -41t-38 -34.5h-79v12q18 25 34.5 50.5t31.5 50.5t25 47h134v-9z" />
    <glyph glyph-name="uni00B5" unicode="&#xb5;" horiz-adv-x="533" 
d="M467 543v-543h-90l-15 72h-6q-10 -26 -25.5 -44.5t-34.5 -28t-42 -9.5q-26 0 -43.5 11.5t-30.5 33.5h-3q2 -15 2.5 -33t1 -37t0.5 -38v-167h-116v783h116v-329q0 -61 17 -92.5t53 -31.5q40 0 61.5 22.5t30.5 63.5t9 98v269h115z" />
    <glyph glyph-name="paragraph" unicode="&#xb6;" horiz-adv-x="542" 
d="M465 -127h-69v817h-71v-817h-68v400q-11 -4 -23.5 -6.5t-27.5 -2.5q-50 0 -84.5 26t-52.5 80t-18 139q0 87 19.5 142.5t58 82t94.5 26.5h242v-887z" />
    <glyph glyph-name="periodcentered" unicode="&#xb7;" horiz-adv-x="254" 
d="M57 352q0 38 19 56.5t52 18.5q32 0 51 -18t19 -57t-19.5 -57.5t-50.5 -18.5q-32 0 -51.5 19t-19.5 57z" />
    <glyph glyph-name="cedilla" unicode="&#xb8;" horiz-adv-x="189" 
d="M189 -131q0 -52 -32.5 -80.5t-97.5 -28.5q-20 0 -36.5 2t-29.5 6v68q12 -3 26 -5t26 -2q25 0 38.5 10t13.5 30q0 21 -19.5 34t-56.5 17l36 80h66l-19 -42q26 -5 45 -17t29.5 -30t10.5 -42z" />
    <glyph glyph-name="uni00B9" unicode="&#xb9;" horiz-adv-x="339" 
d="M246 843v-428h-89v233q0 15 0.5 32t1.5 34t2 31q-8 -7 -15.5 -14.5t-14.5 -12.5l-50 -39l-44 57l135 107h74z" />
    <glyph glyph-name="ordmasculine" unicode="&#xba;" horiz-adv-x="342" 
d="M314 547q0 -82 -37.5 -128.5t-105.5 -46.5q-66 0 -104.5 47t-38.5 129t38.5 128t105.5 46q43 0 75 -20t49.5 -59t17.5 -96zM111 547q0 -53 14.5 -79.5t45.5 -26.5q32 0 46 26.5t14 79.5q0 54 -14.5 80t-45.5 26q-29 0 -44.5 -25.5t-15.5 -80.5z" />
    <glyph glyph-name="guillemotright" unicode="&#xbb;" horiz-adv-x="521" 
d="M488 263l-157 -210l-82 45l114 172l-114 173l82 44l157 -210v-14zM274 263l-157 -210l-82 45l113 172l-113 173l82 44l157 -210v-14z" />
    <glyph glyph-name="onequarter" unicode="&#xbc;" horiz-adv-x="776" 
d="M163 0l374 714h94l-374 -714h-94zM148 519v32t1 34t2 31q-7 -7 -15 -14.5t-14 -12.5l-51 -39l-43 56l134 108h75v-428h-89v233zM620 0v83h-170v64l166 283h92v-276h55v-71h-55v-83h-88zM526 154h94v100q0 22 1 42.5t2 36.5q-6 -14 -14 -30.5t-16 -30.5z" />
    <glyph glyph-name="onehalf" unicode="&#xbd;" horiz-adv-x="799" 
d="M150 0l373 714h95l-374 -714h-94zM146 519q0 11 0.5 23.5l1 25l1 25t1.5 23.5q-7 -7 -15 -14.5t-15 -12.5l-50 -39l-43 56l134 108h75v-428h-90v233zM487 0v73l96 105q29 32 46 54t24 41t7 40q0 22 -13.5 35.5t-37.5 13.5q-20 0 -39.5 -10t-40.5 -32l-44 59
q23 26 57.5 42.5t77.5 16.5q61 0 95.5 -31.5t34.5 -84.5q0 -35 -11 -62.5t-32 -54t-50 -56.5l-67 -72h169v-77h-272z" />
    <glyph glyph-name="threequarters" unicode="&#xbe;" horiz-adv-x="789" 
d="M179 0l374 714h94l-374 -714h-94zM147 278q-32 0 -61 7t-55 22v82q26 -17 55 -26.5t61 -9.5q36 0 53 15t17 41q0 31 -19.5 46.5t-61.5 15.5h-43v69h38q40 0 58 16.5t18 42.5q0 24 -14 37.5t-41 13.5q-22 0 -42 -9t-42 -28l-40 59q29 25 61.5 38.5t70.5 13.5
q60 0 95.5 -29.5t35.5 -80.5q0 -36 -18 -62t-52 -40v-4q41 -11 61.5 -37.5t20.5 -67.5q0 -58 -41.5 -91.5t-114.5 -33.5zM633 0v83h-170v64l166 283h92v-276h54v-71h-54v-83h-88zM539 154h94v100q0 22 0.5 42.5t1.5 36.5q-5 -14 -13 -30.5t-16 -30.5z" />
    <glyph glyph-name="questiondown" unicode="&#xbf;" horiz-adv-x="383" 
d="M271 282q0 -34 -6.5 -60.5t-21 -49.5t-40.5 -48q-25 -26 -40.5 -46.5t-22.5 -40t-7 -45.5q0 -38 20.5 -58t57.5 -20q33 0 62.5 11.5t61.5 31.5l41 -89q-40 -27 -83 -41t-90 -14q-88 0 -135.5 45.5t-47.5 125.5q0 43 11 74t32.5 59t52.5 59q25 25 37.5 42.5t17 34.5
t4.5 40v22h96v-33zM292 472q0 -39 -19 -57.5t-52 -18.5q-32 0 -51.5 18.5t-19.5 57.5q0 38 20 57t51 19q32 0 51.5 -19t19.5 -57z" />
    <glyph glyph-name="Agrave" unicode="&#xc0;" horiz-adv-x="549" 
d="M421 0l-49 191h-194l-49 -191h-129l200 715h147l202 -715h-128zM299 496q-4 19 -8.5 40.5t-9 42.5t-7.5 38q-2 -17 -6.5 -38.5t-9 -42.5t-8.5 -39l-49 -201h148zM271 937q11 -22 27 -50t33.5 -54t30.5 -44v-12h-79q-15 13 -36 32t-42 41t-39 42.5t-29 35.5v9h134z" />
    <glyph glyph-name="Aacute" unicode="&#xc1;" horiz-adv-x="549" 
d="M421 0l-49 191h-194l-49 -191h-129l200 715h147l202 -715h-128zM299 496q-4 19 -8.5 40.5t-9 42.5t-7.5 38q-2 -17 -6.5 -38.5t-9 -42.5t-8.5 -39l-49 -201h148zM437 928q-10 -15 -28 -34.5t-38.5 -41t-41.5 -41t-38 -34.5h-79v12q18 25 34.5 50.5t31.5 50.5t25 47h134
v-9z" />
    <glyph glyph-name="Acircumflex" unicode="&#xc2;" horiz-adv-x="549" 
d="M421 0l-49 191h-194l-49 -191h-129l200 715h147l202 -715h-128zM299 496q-4 19 -8.5 40.5t-9 42.5t-7.5 38q-2 -17 -6.5 -38.5t-9 -42.5t-8.5 -39l-49 -201h148zM332 937q12 -22 29 -48t36.5 -52t37.5 -48v-12h-71q-21 17 -44 39t-46 47q-24 -25 -46.5 -48t-41.5 -38h-72
v12q17 21 36.5 47.5t37.5 53.5t29 47h115z" />
    <glyph glyph-name="Atilde" unicode="&#xc3;" horiz-adv-x="549" 
d="M421 0l-49 191h-194l-49 -191h-129l200 715h147l202 -715h-128zM299 496q-4 19 -8.5 40.5t-9 42.5t-7.5 38q-2 -17 -6.5 -38.5t-9 -42.5t-8.5 -39l-49 -201h148zM106 776q2 27 8 52t17.5 45t29 31.5t42.5 11.5q20 0 38 -8t35.5 -19t33.5 -18.5t32 -7.5t24.5 14t13.5 40
h64q-3 -68 -30 -104t-67 -36q-19 0 -38 8t-37 19t-33.5 19t-29.5 8q-13 0 -24 -14t-15 -41h-64z" />
    <glyph glyph-name="Adieresis" unicode="&#xc4;" horiz-adv-x="549" 
d="M421 0l-49 191h-194l-49 -191h-129l200 715h147l202 -715h-128zM299 496q-4 19 -8.5 40.5t-9 42.5t-7.5 38q-2 -17 -6.5 -38.5t-9 -42.5t-8.5 -39l-49 -201h148zM128 849q0 32 16 46.5t40 14.5t40 -15t16 -45t-16 -45.5t-40 -15.5t-40 15.5t-16 44.5zM308 849
q0 32 16 46.5t40 14.5q25 0 40.5 -15t15.5 -45t-16 -45.5t-40 -15.5t-40 15.5t-16 44.5z" />
    <glyph glyph-name="Aring" unicode="&#xc5;" horiz-adv-x="549" 
d="M421 0l-49 191h-194l-49 -191h-129l200 715h147l202 -715h-128zM299 496q-4 19 -8.5 40.5t-9 42.5t-7.5 38q-2 -17 -6.5 -38.5t-9 -42.5t-8.5 -39l-49 -201h148zM274 656q-51 0 -82 30t-31 79q0 51 31 81t82 30q50 0 82.5 -30t32.5 -79q0 -50 -32 -80.5t-83 -30.5z
M275 718q21 0 35 13t14 35t-13.5 35.5t-35.5 13.5q-21 0 -35 -13.5t-14 -35.5t12.5 -35t36.5 -13z" />
    <glyph glyph-name="AE" unicode="&#xc6;" horiz-adv-x="742" 
d="M694 0h-336v191h-168l-64 -191h-128l250 714h446v-104h-217v-187h202v-103h-202v-216h217v-104zM224 296h134v313h-32z" />
    <glyph glyph-name="Ccedilla" unicode="&#xc7;" horiz-adv-x="519" 
d="M331 620q-39 0 -68.5 -19.5t-49 -55.5t-29.5 -84t-10 -105q0 -83 18.5 -141.5t54.5 -89.5t88 -31q36 0 69 10t66 24v-105q-33 -17 -69.5 -25t-80.5 -8q-87 0 -147.5 44t-91.5 126t-31 197q0 79 17.5 146t52.5 116.5t87 77t119 27.5q44 0 86 -10.5t80 -32.5l-38 -99
q-28 17 -59 27.5t-64 10.5zM401 -131q0 -52 -32.5 -80.5t-97.5 -28.5q-20 0 -36.5 2t-29.5 6v68q12 -3 26 -5t26 -2q25 0 38.5 10t13.5 30q0 21 -19.5 34t-56.5 17l36 80h66l-19 -42q26 -5 45 -17t29.5 -30t10.5 -42z" />
    <glyph glyph-name="Egrave" unicode="&#xc8;" horiz-adv-x="460" 
d="M412 0h-337v714h337v-103h-217v-188h203v-103h-203v-216h217v-104zM242 937q11 -22 27 -50t33.5 -54t30.5 -44v-12h-79q-15 13 -36 32t-42 41t-39 42.5t-29 35.5v9h134z" />
    <glyph glyph-name="Eacute" unicode="&#xc9;" horiz-adv-x="460" 
d="M412 0h-337v714h337v-103h-217v-188h203v-103h-203v-216h217v-104zM408 928q-10 -15 -28 -34.5t-38.5 -41t-41.5 -41t-38 -34.5h-79v12q18 25 34.5 50.5t31.5 50.5t25 47h134v-9z" />
    <glyph glyph-name="Ecircumflex" unicode="&#xca;" horiz-adv-x="460" 
d="M412 0h-337v714h337v-103h-217v-188h203v-103h-203v-216h217v-104zM303 937q12 -22 29 -48t36.5 -52t37.5 -48v-12h-71q-21 17 -44 39t-46 47q-24 -25 -46.5 -48t-41.5 -38h-72v12q17 21 36.5 47.5t37.5 53.5t29 47h115z" />
    <glyph glyph-name="Edieresis" unicode="&#xcb;" horiz-adv-x="460" 
d="M412 0h-337v714h337v-103h-217v-188h203v-103h-203v-216h217v-104zM99 849q0 32 16 46.5t40 14.5t40 -15t16 -45t-16 -45.5t-40 -15.5t-40 15.5t-16 44.5zM279 849q0 32 16 46.5t40 14.5q25 0 40.5 -15t15.5 -45t-16 -45.5t-40 -15.5t-40 15.5t-16 44.5z" />
    <glyph glyph-name="Igrave" unicode="&#xcc;" horiz-adv-x="328" 
d="M296 0h-264v67l72 26v528l-72 26v67h264v-67l-72 -26v-528l72 -26v-67zM160 937q11 -22 27 -50t33.5 -54t30.5 -44v-12h-79q-15 13 -36 32t-42 41t-39 42.5t-29 35.5v9h134z" />
    <glyph glyph-name="Iacute" unicode="&#xcd;" horiz-adv-x="328" 
d="M296 0h-264v67l72 26v528l-72 26v67h264v-67l-72 -26v-528l72 -26v-67zM327 928q-10 -15 -28 -34.5t-38.5 -41t-41.5 -41t-38 -34.5h-79v12q18 25 34.5 50.5t31.5 50.5t25 47h134v-9z" />
    <glyph glyph-name="Icircumflex" unicode="&#xce;" horiz-adv-x="328" 
d="M296 0h-264v67l72 26v528l-72 26v67h264v-67l-72 -26v-528l72 -26v-67zM222 937q12 -22 29 -48t36.5 -52t37.5 -48v-12h-71q-21 17 -44 39t-46 47q-24 -25 -46.5 -48t-41.5 -38h-72v12q17 21 36.5 47.5t37.5 53.5t29 47h115z" />
    <glyph glyph-name="Idieresis" unicode="&#xcf;" horiz-adv-x="328" 
d="M296 0h-264v67l72 26v528l-72 26v67h264v-67l-72 -26v-528l72 -26v-67zM17 849q0 32 16 46.5t40 14.5t40 -15t16 -45t-16 -45.5t-40 -15.5t-40 15.5t-16 44.5zM197 849q0 32 16 46.5t40 14.5q25 0 40.5 -15t15.5 -45t-16 -45.5t-40 -15.5t-40 15.5t-16 44.5z" />
    <glyph glyph-name="Eth" unicode="&#xd0;" horiz-adv-x="601" 
d="M258 714q93 0 158.5 -39.5t100 -116.5t34.5 -191q0 -120 -35.5 -201.5t-103.5 -123.5t-166 -42h-171v316h-58v95h58v303h183zM257 610h-61v-199h102v-95h-102v-212h50q92 0 136.5 64.5t44.5 194.5q0 84 -19.5 139t-57 81.5t-93.5 26.5z" />
    <glyph glyph-name="Ntilde" unicode="&#xd1;" horiz-adv-x="659" 
d="M585 0h-145l-257 539h-4q2 -32 4 -61.5t2.5 -57t1.5 -52.5v-368h-112v714h144l257 -530h3q-2 30 -3 59.5t-2 56.5t-2 51v363h113v-714zM161 776q2 27 8 52t17.5 45t29 31.5t42.5 11.5q20 0 38 -8t35.5 -19t33.5 -18.5t32 -7.5t24.5 14t13.5 40h64q-3 -68 -30 -104
t-67 -36q-19 0 -38 8t-37 19t-33.5 19t-29.5 8q-13 0 -24 -14t-15 -41h-64z" />
    <glyph glyph-name="Ograve" unicode="&#xd2;" horiz-adv-x="641" 
d="M591 358q0 -82 -16 -149.5t-49.5 -116.5t-84.5 -75.5t-120 -26.5q-70 0 -121.5 26.5t-84.5 76t-49 117t-16 149.5q0 118 30 199.5t90.5 124t150.5 42.5q93 0 152.5 -46t88.5 -128.5t29 -192.5zM175 358q0 -85 16 -143.5t48.5 -88.5t81.5 -30t81 29.5t48 88t16 144.5
q0 129 -35.5 195.5t-109.5 66.5q-49 0 -81.5 -30t-48.5 -88.5t-16 -143.5zM317 937q11 -22 27 -50t33.5 -54t30.5 -44v-12h-79q-15 13 -36 32t-42 41t-39 42.5t-29 35.5v9h134z" />
    <glyph glyph-name="Oacute" unicode="&#xd3;" horiz-adv-x="641" 
d="M591 358q0 -82 -16 -149.5t-49.5 -116.5t-84.5 -75.5t-120 -26.5q-70 0 -121.5 26.5t-84.5 76t-49 117t-16 149.5q0 118 30 199.5t90.5 124t150.5 42.5q93 0 152.5 -46t88.5 -128.5t29 -192.5zM175 358q0 -85 16 -143.5t48.5 -88.5t81.5 -30t81 29.5t48 88t16 144.5
q0 129 -35.5 195.5t-109.5 66.5q-49 0 -81.5 -30t-48.5 -88.5t-16 -143.5zM483 928q-10 -15 -28 -34.5t-38.5 -41t-41.5 -41t-38 -34.5h-79v12q18 25 34.5 50.5t31.5 50.5t25 47h134v-9z" />
    <glyph glyph-name="Ocircumflex" unicode="&#xd4;" horiz-adv-x="641" 
d="M591 358q0 -82 -16 -149.5t-49.5 -116.5t-84.5 -75.5t-120 -26.5q-70 0 -121.5 26.5t-84.5 76t-49 117t-16 149.5q0 118 30 199.5t90.5 124t150.5 42.5q93 0 152.5 -46t88.5 -128.5t29 -192.5zM175 358q0 -85 16 -143.5t48.5 -88.5t81.5 -30t81 29.5t48 88t16 144.5
q0 129 -35.5 195.5t-109.5 66.5q-49 0 -81.5 -30t-48.5 -88.5t-16 -143.5zM378 937q12 -22 29 -48t36.5 -52t37.5 -48v-12h-71q-21 17 -44 39t-46 47q-24 -25 -46.5 -48t-41.5 -38h-72v12q17 21 36.5 47.5t37.5 53.5t29 47h115z" />
    <glyph glyph-name="Otilde" unicode="&#xd5;" horiz-adv-x="641" 
d="M591 358q0 -82 -16 -149.5t-49.5 -116.5t-84.5 -75.5t-120 -26.5q-70 0 -121.5 26.5t-84.5 76t-49 117t-16 149.5q0 118 30 199.5t90.5 124t150.5 42.5q93 0 152.5 -46t88.5 -128.5t29 -192.5zM175 358q0 -85 16 -143.5t48.5 -88.5t81.5 -30t81 29.5t48 88t16 144.5
q0 129 -35.5 195.5t-109.5 66.5q-49 0 -81.5 -30t-48.5 -88.5t-16 -143.5zM152 776q2 27 8 52t17.5 45t29 31.5t42.5 11.5q20 0 38 -8t35.5 -19t33.5 -18.5t32 -7.5t24.5 14t13.5 40h64q-3 -68 -30 -104t-67 -36q-19 0 -38 8t-37 19t-33.5 19t-29.5 8q-13 0 -24 -14t-15 -41
h-64z" />
    <glyph glyph-name="Odieresis" unicode="&#xd6;" horiz-adv-x="641" 
d="M591 358q0 -82 -16 -149.5t-49.5 -116.5t-84.5 -75.5t-120 -26.5q-70 0 -121.5 26.5t-84.5 76t-49 117t-16 149.5q0 118 30 199.5t90.5 124t150.5 42.5q93 0 152.5 -46t88.5 -128.5t29 -192.5zM175 358q0 -85 16 -143.5t48.5 -88.5t81.5 -30t81 29.5t48 88t16 144.5
q0 129 -35.5 195.5t-109.5 66.5q-49 0 -81.5 -30t-48.5 -88.5t-16 -143.5zM174 849q0 32 16 46.5t40 14.5t40 -15t16 -45t-16 -45.5t-40 -15.5t-40 15.5t-16 44.5zM354 849q0 32 16 46.5t40 14.5q25 0 40.5 -15t15.5 -45t-16 -45.5t-40 -15.5t-40 15.5t-16 44.5z" />
    <glyph glyph-name="multiply" unicode="&#xd7;" horiz-adv-x="491" 
d="M384 556l64 -63l-139 -140l137 -139l-63 -63l-139 137l-138 -137l-63 64l137 138l-137 138l63 64l138 -137z" />
    <glyph glyph-name="Oslash" unicode="&#xd8;" horiz-adv-x="641" 
d="M591 358q0 -88 -17 -156t-51 -115.5t-84.5 -72t-117.5 -24.5q-40 0 -74.5 9.5t-62.5 28.5l-40 -75l-66 35l49 89q-41 52 -59 122.5t-18 159.5q0 118 30 199.5t90.5 124t150.5 42.5q41 0 76.5 -10.5t63.5 -31.5l39 70l64 -35l-46 -85q37 -47 55 -116.5t18 -158.5zM468 358
q0 89 -20 149l-212 -381q17 -16 38 -24.5t47 -8.5q50 0 82.5 30t48.5 89.5t16 145.5zM173 358q0 -48 5.5 -88t17.5 -70l213 383q-17 20 -38.5 29.5t-48.5 9.5q-51 0 -84 -30.5t-49 -89t-16 -144.5z" />
    <glyph glyph-name="Ugrave" unicode="&#xd9;" horiz-adv-x="607" 
d="M537 237q0 -79 -26.5 -134.5t-78.5 -84t-130 -28.5q-113 0 -172.5 63t-59.5 183v478h120v-472q0 -77 29 -111.5t85 -34.5q39 0 63.5 15t37 48t12.5 84v471h120v-477zM300 937q11 -22 27 -50t33.5 -54t30.5 -44v-12h-79q-15 13 -36 32t-42 41t-39 42.5t-29 35.5v9h134z
" />
    <glyph glyph-name="Uacute" unicode="&#xda;" horiz-adv-x="607" 
d="M537 237q0 -79 -26.5 -134.5t-78.5 -84t-130 -28.5q-113 0 -172.5 63t-59.5 183v478h120v-472q0 -77 29 -111.5t85 -34.5q39 0 63.5 15t37 48t12.5 84v471h120v-477zM466 928q-10 -15 -28 -34.5t-38.5 -41t-41.5 -41t-38 -34.5h-79v12q18 25 34.5 50.5t31.5 50.5t25 47
h134v-9z" />
    <glyph glyph-name="Ucircumflex" unicode="&#xdb;" horiz-adv-x="607" 
d="M537 237q0 -79 -26.5 -134.5t-78.5 -84t-130 -28.5q-113 0 -172.5 63t-59.5 183v478h120v-472q0 -77 29 -111.5t85 -34.5q39 0 63.5 15t37 48t12.5 84v471h120v-477zM361 937q12 -22 29 -48t36.5 -52t37.5 -48v-12h-71q-21 17 -44 39t-46 47q-24 -25 -46.5 -48t-41.5 -38
h-72v12q17 21 36.5 47.5t37.5 53.5t29 47h115z" />
    <glyph glyph-name="Udieresis" unicode="&#xdc;" horiz-adv-x="607" 
d="M537 237q0 -79 -26.5 -134.5t-78.5 -84t-130 -28.5q-113 0 -172.5 63t-59.5 183v478h120v-472q0 -77 29 -111.5t85 -34.5q39 0 63.5 15t37 48t12.5 84v471h120v-477zM157 849q0 32 16 46.5t40 14.5t40 -15t16 -45t-16 -45.5t-40 -15.5t-40 15.5t-16 44.5zM337 849
q0 32 16 46.5t40 14.5q25 0 40.5 -15t15.5 -45t-16 -45.5t-40 -15.5t-40 15.5t-16 44.5z" />
    <glyph glyph-name="Yacute" unicode="&#xdd;" horiz-adv-x="491" 
d="M246 404l119 310h126l-186 -437v-277h-119v273l-186 441h127zM408 928q-10 -15 -28 -34.5t-38.5 -41t-41.5 -41t-38 -34.5h-79v12q18 25 34.5 50.5t31.5 50.5t25 47h134v-9z" />
    <glyph glyph-name="Thorn" unicode="&#xde;" horiz-adv-x="508" 
d="M477 382q0 -51 -13 -94t-40 -74.5t-70.5 -49.5t-105.5 -18h-53v-146h-120v714h120v-117h58q116 0 170 -55.5t54 -159.5zM234 249q43 0 70 13.5t40 42t13 74.5q0 60 -27 88t-86 28h-49v-246h39z" />
    <glyph glyph-name="germandbls" unicode="&#xdf;" horiz-adv-x="559" 
d="M475 606q0 -34 -11 -59t-27.5 -44t-32.5 -34.5t-27 -30t-11 -31.5q0 -13 7 -25.5t21.5 -26.5t38.5 -33q32 -26 52.5 -50t31 -51t10.5 -63q0 -54 -20.5 -91.5t-59 -57t-94.5 -19.5q-33 0 -64 7t-56 22v105q15 -10 33 -19t37 -13.5t38 -4.5q34 0 51 17t17 47q0 19 -6 34
t-22 31t-44 38q-34 27 -52.5 50.5t-26 46.5t-7.5 46q0 29 10.5 50t26.5 37.5t32 32.5t27 35t11 45q0 33 -22 52t-62 19q-28 0 -49 -12t-32 -37.5t-11 -64.5v-554h-116v561q0 66 26 111.5t73.5 69t109.5 23.5q60 0 104.5 -18.5t70 -54t25.5 -86.5z" />
    <glyph glyph-name="agrave" unicode="&#xe0;" horiz-adv-x="488" 
d="M253 553q86 0 129 -48t43 -142v-363h-85l-19 74h-3q-18 -29 -38.5 -47.5t-46.5 -27.5t-61 -9q-44 0 -75 22t-46.5 60t-15.5 85q0 84 51 127.5t149 47.5l74 3v26q0 52 -18 76t-55 24q-28 0 -58.5 -9.5t-63.5 -27.5l-35 84q37 22 81 33.5t93 11.5zM261 256
q-57 -3 -82.5 -27t-25.5 -69q0 -41 16.5 -60t46.5 -19q41 0 67 33.5t26 93.5v50zM246 766q11 -22 27 -50t33.5 -54t30.5 -44v-12h-79q-15 13 -36 32t-42 41t-39 42.5t-29 35.5v9h134z" />
    <glyph glyph-name="aacute" unicode="&#xe1;" horiz-adv-x="488" 
d="M253 553q86 0 129 -48t43 -142v-363h-85l-19 74h-3q-18 -29 -38.5 -47.5t-46.5 -27.5t-61 -9q-44 0 -75 22t-46.5 60t-15.5 85q0 84 51 127.5t149 47.5l74 3v26q0 52 -18 76t-55 24q-28 0 -58.5 -9.5t-63.5 -27.5l-35 84q37 22 81 33.5t93 11.5zM261 256
q-57 -3 -82.5 -27t-25.5 -69q0 -41 16.5 -60t46.5 -19q41 0 67 33.5t26 93.5v50zM412 757q-10 -15 -28 -34.5t-38.5 -41t-41.5 -41t-38 -34.5h-79v12q18 25 34.5 50.5t31.5 50.5t25 47h134v-9z" />
    <glyph glyph-name="acircumflex" unicode="&#xe2;" horiz-adv-x="488" 
d="M253 553q86 0 129 -48t43 -142v-363h-85l-19 74h-3q-18 -29 -38.5 -47.5t-46.5 -27.5t-61 -9q-44 0 -75 22t-46.5 60t-15.5 85q0 84 51 127.5t149 47.5l74 3v26q0 52 -18 76t-55 24q-28 0 -58.5 -9.5t-63.5 -27.5l-35 84q37 22 81 33.5t93 11.5zM261 256
q-57 -3 -82.5 -27t-25.5 -69q0 -41 16.5 -60t46.5 -19q41 0 67 33.5t26 93.5v50zM307 766q12 -22 29 -48t36.5 -52t37.5 -48v-12h-71q-21 17 -44 39t-46 47q-24 -25 -46.5 -48t-41.5 -38h-72v12q17 21 36.5 47.5t37.5 53.5t29 47h115z" />
    <glyph glyph-name="atilde" unicode="&#xe3;" horiz-adv-x="488" 
d="M253 553q86 0 129 -48t43 -142v-363h-85l-19 74h-3q-18 -29 -38.5 -47.5t-46.5 -27.5t-61 -9q-44 0 -75 22t-46.5 60t-15.5 85q0 84 51 127.5t149 47.5l74 3v26q0 52 -18 76t-55 24q-28 0 -58.5 -9.5t-63.5 -27.5l-35 84q37 22 81 33.5t93 11.5zM261 256
q-57 -3 -82.5 -27t-25.5 -69q0 -41 16.5 -60t46.5 -19q41 0 67 33.5t26 93.5v50zM81 605q2 27 8 52t17.5 45t29 31.5t42.5 11.5q20 0 38 -8t35.5 -19t33.5 -18.5t32 -7.5t24.5 14t13.5 40h64q-3 -68 -30 -104t-67 -36q-19 0 -38 8t-37 19t-33.5 19t-29.5 8q-13 0 -24 -14
t-15 -41h-64z" />
    <glyph glyph-name="adieresis" unicode="&#xe4;" horiz-adv-x="488" 
d="M253 553q86 0 129 -48t43 -142v-363h-85l-19 74h-3q-18 -29 -38.5 -47.5t-46.5 -27.5t-61 -9q-44 0 -75 22t-46.5 60t-15.5 85q0 84 51 127.5t149 47.5l74 3v26q0 52 -18 76t-55 24q-28 0 -58.5 -9.5t-63.5 -27.5l-35 84q37 22 81 33.5t93 11.5zM261 256
q-57 -3 -82.5 -27t-25.5 -69q0 -41 16.5 -60t46.5 -19q41 0 67 33.5t26 93.5v50zM103 678q0 32 16 46.5t40 14.5t40 -15t16 -45t-16 -45.5t-40 -15.5t-40 15.5t-16 44.5zM283 678q0 32 16 46.5t40 14.5q25 0 40.5 -15t15.5 -45t-16 -45.5t-40 -15.5t-40 15.5t-16 44.5z" />
    <glyph glyph-name="aring" unicode="&#xe5;" horiz-adv-x="488" 
d="M253 553q86 0 129 -48t43 -142v-363h-85l-19 74h-3q-18 -29 -38.5 -47.5t-46.5 -27.5t-61 -9q-44 0 -75 22t-46.5 60t-15.5 85q0 84 51 127.5t149 47.5l74 3v26q0 52 -18 76t-55 24q-28 0 -58.5 -9.5t-63.5 -27.5l-35 84q37 22 81 33.5t93 11.5zM261 256
q-57 -3 -82.5 -27t-25.5 -69q0 -41 16.5 -60t46.5 -19q41 0 67 33.5t26 93.5v50zM249 607q-51 0 -82 30t-31 79q0 51 31 81t82 30q50 0 82.5 -30t32.5 -79q0 -50 -32 -80.5t-83 -30.5zM250 669q21 0 35 13t14 35t-13.5 35.5t-35.5 13.5q-21 0 -35 -13.5t-14 -35.5t12.5 -35
t36.5 -13z" />
    <glyph glyph-name="ae" unicode="&#xe6;" horiz-adv-x="743" 
d="M512 552q62 0 105 -30.5t65 -85t22 -128.5v-66h-285q1 -80 30.5 -119.5t87.5 -39.5q38 0 72.5 9.5t69.5 30.5v-96q-33 -19 -69.5 -28t-82.5 -9q-38 0 -72 11.5t-61 34t-45 56.5q-21 -35 -45.5 -57.5t-54.5 -33.5t-69 -11q-47 0 -79.5 22t-49 60t-16.5 85q0 56 22.5 94
t67 58t107.5 23l74 3v30q0 49 -18.5 72.5t-54.5 23.5q-28 0 -58 -9.5t-63 -27.5l-34 84q35 21 77 33t87 12q48 0 80.5 -16.5t51.5 -49.5q24 33 58 49t80 16zM258 256q-55 -3 -80 -27t-25 -69q0 -41 16 -60t45 -19q27 0 47.5 15t32.5 43.5t12 68.5v50zM511 462q-40 0 -64 -33
t-27 -103h175q0 41 -9.5 71.5t-28 47.5t-46.5 17z" />
    <glyph glyph-name="ccedilla" unicode="&#xe7;" horiz-adv-x="416" 
d="M253 -10q-68 0 -115.5 30t-71.5 92t-24 157q0 89 24.5 152.5t73 97.5t118.5 34q41 0 74 -8.5t59 -24.5l-33 -92q-24 12 -47.5 19t-46.5 7q-34 0 -57.5 -21t-35 -62t-11.5 -102q0 -60 12 -100t35 -60t57 -20q32 0 60.5 9.5t56.5 26.5v-99q-27 -18 -59 -27t-69 -9z
M347 -131q0 -52 -32.5 -80.5t-97.5 -28.5q-20 0 -36.5 2t-29.5 6v68q12 -3 26 -5t26 -2q25 0 38.5 10t13.5 30q0 21 -19.5 34t-56.5 17l36 80h66l-19 -42q26 -5 45 -17t29.5 -30t10.5 -42z" />
    <glyph glyph-name="egrave" unicode="&#xe8;" horiz-adv-x="484" 
d="M248 552q64 0 108 -30.5t67 -85t23 -128.5v-66h-289q2 -79 32.5 -118.5t89.5 -39.5q38 0 71.5 9t70.5 30v-96q-34 -19 -71 -28t-83 -9q-75 0 -125 33.5t-75 96t-25 148.5q0 92 24 155.5t70.5 96t111.5 32.5zM250 462q-40 0 -64 -33t-27 -103h177q0 40 -9.5 70.5t-28.5 48
t-48 17.5zM241 766q11 -22 27 -50t33.5 -54t30.5 -44v-12h-79q-15 13 -36 32t-42 41t-39 42.5t-29 35.5v9h134z" />
    <glyph glyph-name="eacute" unicode="&#xe9;" horiz-adv-x="484" 
d="M248 552q64 0 108 -30.5t67 -85t23 -128.5v-66h-289q2 -79 32.5 -118.5t89.5 -39.5q38 0 71.5 9t70.5 30v-96q-34 -19 -71 -28t-83 -9q-75 0 -125 33.5t-75 96t-25 148.5q0 92 24 155.5t70.5 96t111.5 32.5zM250 462q-40 0 -64 -33t-27 -103h177q0 40 -9.5 70.5t-28.5 48
t-48 17.5zM408 757q-10 -15 -28 -34.5t-38.5 -41t-41.5 -41t-38 -34.5h-79v12q18 25 34.5 50.5t31.5 50.5t25 47h134v-9z" />
    <glyph glyph-name="ecircumflex" unicode="&#xea;" horiz-adv-x="484" 
d="M248 552q64 0 108 -30.5t67 -85t23 -128.5v-66h-289q2 -79 32.5 -118.5t89.5 -39.5q38 0 71.5 9t70.5 30v-96q-34 -19 -71 -28t-83 -9q-75 0 -125 33.5t-75 96t-25 148.5q0 92 24 155.5t70.5 96t111.5 32.5zM250 462q-40 0 -64 -33t-27 -103h177q0 40 -9.5 70.5t-28.5 48
t-48 17.5zM303 766q12 -22 29 -48t36.5 -52t37.5 -48v-12h-71q-21 17 -44 39t-46 47q-24 -25 -46.5 -48t-41.5 -38h-72v12q17 21 36.5 47.5t37.5 53.5t29 47h115z" />
    <glyph glyph-name="edieresis" unicode="&#xeb;" horiz-adv-x="484" 
d="M248 552q64 0 108 -30.5t67 -85t23 -128.5v-66h-289q2 -79 32.5 -118.5t89.5 -39.5q38 0 71.5 9t70.5 30v-96q-34 -19 -71 -28t-83 -9q-75 0 -125 33.5t-75 96t-25 148.5q0 92 24 155.5t70.5 96t111.5 32.5zM250 462q-40 0 -64 -33t-27 -103h177q0 40 -9.5 70.5t-28.5 48
t-48 17.5zM98 678q0 32 16 46.5t40 14.5t40 -15t16 -45t-16 -45.5t-40 -15.5t-40 15.5t-16 44.5zM278 678q0 32 16 46.5t40 14.5q25 0 40.5 -15t15.5 -45t-16 -45.5t-40 -15.5t-40 15.5t-16 44.5z" />
    <glyph glyph-name="igrave" unicode="&#xec;" horiz-adv-x="248" 
d="M182 0h-116v543h116v-543zM120 766q11 -22 27 -50t33.5 -54t30.5 -44v-12h-79q-15 13 -36 32t-42 41t-39 42.5t-29 35.5v9h134z" />
    <glyph glyph-name="iacute" unicode="&#xed;" horiz-adv-x="248" 
d="M182 0h-116v543h116v-543zM286 757q-10 -15 -28 -34.5t-38.5 -41t-41.5 -41t-38 -34.5h-79v12q18 25 34.5 50.5t31.5 50.5t25 47h134v-9z" />
    <glyph glyph-name="icircumflex" unicode="&#xee;" horiz-adv-x="248" 
d="M182 0h-116v543h116v-543zM181 766q12 -22 29 -48t36.5 -52t37.5 -48v-12h-71q-21 17 -44 39t-46 47q-24 -25 -46.5 -48t-41.5 -38h-72v12q17 21 36.5 47.5t37.5 53.5t29 47h115z" />
    <glyph glyph-name="idieresis" unicode="&#xef;" horiz-adv-x="248" 
d="M182 0h-116v543h116v-543zM-23 678q0 32 16 46.5t40 14.5t40 -15t16 -45t-16 -45.5t-40 -15.5t-40 15.5t-16 44.5zM157 678q0 32 16 46.5t40 14.5q25 0 40.5 -15t15.5 -45t-16 -45.5t-40 -15.5t-40 15.5t-16 44.5z" />
    <glyph glyph-name="eth" unicode="&#xf0;" horiz-adv-x="515" 
d="M191 765q23 -12 46 -26.5t45 -32.5l87 58l44 -60l-75 -49q44 -46 74 -102.5t46 -126.5t16 -156q0 -90 -25.5 -152.5t-74 -95t-118.5 -32.5q-65 0 -113.5 31.5t-75 87.5t-26.5 128q0 78 25.5 132.5t69.5 83.5t101 29q23 0 41 -4t33 -12.5t26 -21.5l3 2q-10 42 -31.5 79.5
t-50.5 71.5l-85 -56l-43 59l76 51q-15 13 -31 24.5t-32 22.5zM258 386q-33 0 -55 -17t-33 -50.5t-11 -83.5q0 -44 10.5 -78t32.5 -53t56 -19q53 0 75.5 40.5t22.5 119.5q0 30 -5.5 56t-17.5 45t-30.5 29.5t-44.5 10.5z" />
    <glyph glyph-name="ntilde" unicode="&#xf1;" horiz-adv-x="532" 
d="M312 553q75 0 115.5 -48t40.5 -145v-360h-116v332q0 60 -16.5 90.5t-55.5 30.5q-55 0 -76.5 -44t-21.5 -141v-268h-116v543h91l14 -71h7q14 27 34 45t46 27t54 9zM104 605q2 27 8 52t17.5 45t29 31.5t42.5 11.5q20 0 38 -8t35.5 -19t33.5 -18.5t32 -7.5t24.5 14t13.5 40
h64q-3 -68 -30 -104t-67 -36q-19 0 -38 8t-37 19t-33.5 19t-29.5 8q-13 0 -24 -14t-15 -41h-64z" />
    <glyph glyph-name="ograve" unicode="&#xf2;" horiz-adv-x="514" 
d="M473 273q0 -62 -13.5 -113.5t-40 -89.5t-67.5 -59t-96 -21q-52 0 -92 20.5t-67 58.5t-41.5 89.5t-14.5 114.5q0 86 24 149t72.5 97t120.5 34q66 0 114 -32.5t74.5 -95t26.5 -152.5zM160 272q0 -60 10 -101.5t32 -62.5t55 -21q35 0 56.5 21t31.5 62.5t10 101.5
q0 61 -10.5 101.5t-31.5 61t-56 20.5q-51 0 -74 -45.5t-23 -137.5zM254 766q11 -22 27 -50t33.5 -54t30.5 -44v-12h-79q-15 13 -36 32t-42 41t-39 42.5t-29 35.5v9h134z" />
    <glyph glyph-name="oacute" unicode="&#xf3;" horiz-adv-x="514" 
d="M473 273q0 -62 -13.5 -113.5t-40 -89.5t-67.5 -59t-96 -21q-52 0 -92 20.5t-67 58.5t-41.5 89.5t-14.5 114.5q0 86 24 149t72.5 97t120.5 34q66 0 114 -32.5t74.5 -95t26.5 -152.5zM160 272q0 -60 10 -101.5t32 -62.5t55 -21q35 0 56.5 21t31.5 62.5t10 101.5
q0 61 -10.5 101.5t-31.5 61t-56 20.5q-51 0 -74 -45.5t-23 -137.5zM420 757q-10 -15 -28 -34.5t-38.5 -41t-41.5 -41t-38 -34.5h-79v12q18 25 34.5 50.5t31.5 50.5t25 47h134v-9z" />
    <glyph glyph-name="ocircumflex" unicode="&#xf4;" horiz-adv-x="514" 
d="M473 273q0 -62 -13.5 -113.5t-40 -89.5t-67.5 -59t-96 -21q-52 0 -92 20.5t-67 58.5t-41.5 89.5t-14.5 114.5q0 86 24 149t72.5 97t120.5 34q66 0 114 -32.5t74.5 -95t26.5 -152.5zM160 272q0 -60 10 -101.5t32 -62.5t55 -21q35 0 56.5 21t31.5 62.5t10 101.5
q0 61 -10.5 101.5t-31.5 61t-56 20.5q-51 0 -74 -45.5t-23 -137.5zM315 766q12 -22 29 -48t36.5 -52t37.5 -48v-12h-71q-21 17 -44 39t-46 47q-24 -25 -46.5 -48t-41.5 -38h-72v12q17 21 36.5 47.5t37.5 53.5t29 47h115z" />
    <glyph glyph-name="otilde" unicode="&#xf5;" horiz-adv-x="514" 
d="M473 273q0 -62 -13.5 -113.5t-40 -89.5t-67.5 -59t-96 -21q-52 0 -92 20.5t-67 58.5t-41.5 89.5t-14.5 114.5q0 86 24 149t72.5 97t120.5 34q66 0 114 -32.5t74.5 -95t26.5 -152.5zM160 272q0 -60 10 -101.5t32 -62.5t55 -21q35 0 56.5 21t31.5 62.5t10 101.5
q0 61 -10.5 101.5t-31.5 61t-56 20.5q-51 0 -74 -45.5t-23 -137.5zM89 605q2 27 8 52t17.5 45t29 31.5t42.5 11.5q20 0 38 -8t35.5 -19t33.5 -18.5t32 -7.5t24.5 14t13.5 40h64q-3 -68 -30 -104t-67 -36q-19 0 -38 8t-37 19t-33.5 19t-29.5 8q-13 0 -24 -14t-15 -41h-64z
" />
    <glyph glyph-name="odieresis" unicode="&#xf6;" horiz-adv-x="514" 
d="M473 273q0 -62 -13.5 -113.5t-40 -89.5t-67.5 -59t-96 -21q-52 0 -92 20.5t-67 58.5t-41.5 89.5t-14.5 114.5q0 86 24 149t72.5 97t120.5 34q66 0 114 -32.5t74.5 -95t26.5 -152.5zM160 272q0 -60 10 -101.5t32 -62.5t55 -21q35 0 56.5 21t31.5 62.5t10 101.5
q0 61 -10.5 101.5t-31.5 61t-56 20.5q-51 0 -74 -45.5t-23 -137.5zM111 678q0 32 16 46.5t40 14.5t40 -15t16 -45t-16 -45.5t-40 -15.5t-40 15.5t-16 44.5zM291 678q0 32 16 46.5t40 14.5q25 0 40.5 -15t15.5 -45t-16 -45.5t-40 -15.5t-40 15.5t-16 44.5z" />
    <glyph glyph-name="divide" unicode="&#xf7;" horiz-adv-x="491" 
d="M36 307v92h419v-92h-419zM246 101q-29 0 -46 17.5t-17 53.5q0 35 17 52.5t46 17.5q28 0 44 -17.5t16 -52.5q0 -36 -16.5 -53.5t-43.5 -17.5zM246 463q-29 0 -46 17.5t-17 52.5q0 37 17 54t46 17q28 0 44 -17t16 -54q0 -35 -16.5 -52.5t-43.5 -17.5z" />
    <glyph glyph-name="oslash" unicode="&#xf8;" horiz-adv-x="514" 
d="M473 273q0 -90 -26 -153.5t-74.5 -96.5t-116.5 -33q-28 0 -52.5 6.5t-45.5 18.5l-37 -70l-62 34l44 82q-32 40 -47 92.5t-15 119.5q0 135 57 207.5t160 72.5q29 0 54 -7t47 -22l32 60l62 -34l-38 -73q28 -36 43 -88t15 -116zM156 272q0 -31 3 -55.5t8 -44.5l147 265
q-11 11 -25.5 16.5t-31.5 5.5q-53 0 -77 -47t-24 -140zM358 273q0 27 -2.5 49.5t-6.5 41.5l-145 -262q10 -9 23.5 -13.5t29.5 -4.5q35 0 57.5 21t33 63.5t10.5 104.5z" />
    <glyph glyph-name="ugrave" unicode="&#xf9;" horiz-adv-x="532" 
d="M466 543v-543h-91l-14 71h-7q-13 -27 -33.5 -45t-46 -27t-54.5 -9q-52 0 -87 23t-52 67.5t-17 108.5v354h116v-326q0 -63 16.5 -95t53.5 -32q39 0 60.5 20.5t30.5 59.5t9 97v276h116zM263 766q11 -22 27 -50t33.5 -54t30.5 -44v-12h-79q-15 13 -36 32t-42 41t-39 42.5
t-29 35.5v9h134z" />
    <glyph glyph-name="uacute" unicode="&#xfa;" horiz-adv-x="532" 
d="M466 543v-543h-91l-14 71h-7q-13 -27 -33.5 -45t-46 -27t-54.5 -9q-52 0 -87 23t-52 67.5t-17 108.5v354h116v-326q0 -63 16.5 -95t53.5 -32q39 0 60.5 20.5t30.5 59.5t9 97v276h116zM429 757q-10 -15 -28 -34.5t-38.5 -41t-41.5 -41t-38 -34.5h-79v12q18 25 34.5 50.5
t31.5 50.5t25 47h134v-9z" />
    <glyph glyph-name="ucircumflex" unicode="&#xfb;" horiz-adv-x="532" 
d="M466 543v-543h-91l-14 71h-7q-13 -27 -33.5 -45t-46 -27t-54.5 -9q-52 0 -87 23t-52 67.5t-17 108.5v354h116v-326q0 -63 16.5 -95t53.5 -32q39 0 60.5 20.5t30.5 59.5t9 97v276h116zM324 766q12 -22 29 -48t36.5 -52t37.5 -48v-12h-71q-21 17 -44 39t-46 47
q-24 -25 -46.5 -48t-41.5 -38h-72v12q17 21 36.5 47.5t37.5 53.5t29 47h115z" />
    <glyph glyph-name="udieresis" unicode="&#xfc;" horiz-adv-x="532" 
d="M466 543v-543h-91l-14 71h-7q-13 -27 -33.5 -45t-46 -27t-54.5 -9q-52 0 -87 23t-52 67.5t-17 108.5v354h116v-326q0 -63 16.5 -95t53.5 -32q39 0 60.5 20.5t30.5 59.5t9 97v276h116zM120 678q0 32 16 46.5t40 14.5t40 -15t16 -45t-16 -45.5t-40 -15.5t-40 15.5t-16 44.5
zM300 678q0 32 16 46.5t40 14.5q25 0 40.5 -15t15.5 -45t-16 -45.5t-40 -15.5t-40 15.5t-16 44.5z" />
    <glyph glyph-name="yacute" unicode="&#xfd;" horiz-adv-x="455" 
d="M2 543h123l80 -288q5 -18 9 -37l8 -38t5 -37h4q3 24 9.5 52t14.5 60l77 288h121l-182 -609q-18 -60 -43 -98.5t-59 -57t-79 -18.5q-17 0 -32.5 2t-30.5 6v99q11 -3 22.5 -5t22.5 -2q24 0 39.5 10t27 31.5t22.5 57.5l12 45zM390 757q-10 -15 -28 -34.5t-38.5 -41
t-41.5 -41t-38 -34.5h-79v12q18 25 34.5 50.5t31.5 50.5t25 47h134v-9z" />
    <glyph glyph-name="thorn" unicode="&#xfe;" horiz-adv-x="528" 
d="M487 271q0 -89 -21 -152t-59.5 -96t-91.5 -33q-30 0 -55.5 9.5t-45 27t-32.5 42.5h-5q1 -16 2.5 -31t2 -28.5t0.5 -23.5v-226h-116v1000h116v-199q0 -22 -1.5 -46t-3.5 -44h5q16 28 34.5 46.5t42 27t52.5 8.5q83 0 129.5 -72.5t46.5 -209.5zM369 271q0 94 -22 139.5
t-69 45.5q-51 0 -73.5 -41t-22.5 -128v-22q0 -89 22.5 -132.5t74.5 -43.5q33 0 52.5 23t28.5 64t9 95z" />
    <glyph glyph-name="ydieresis" unicode="&#xff;" horiz-adv-x="455" 
d="M2 543h123l80 -288q5 -18 9 -37l8 -38t5 -37h4q3 24 9.5 52t14.5 60l77 288h121l-182 -609q-18 -60 -43 -98.5t-59 -57t-79 -18.5q-17 0 -32.5 2t-30.5 6v99q11 -3 22.5 -5t22.5 -2q24 0 39.5 10t27 31.5t22.5 57.5l12 45zM81 678q0 32 16 46.5t40 14.5t40 -15t16 -45
t-16 -45.5t-40 -15.5t-40 15.5t-16 44.5zM261 678q0 32 16 46.5t40 14.5q25 0 40.5 -15t15.5 -45t-16 -45.5t-40 -15.5t-40 15.5t-16 44.5z" />
    <glyph glyph-name="Amacron" unicode="&#x100;" horiz-adv-x="549" 
d="M421 0l-49 191h-194l-49 -191h-129l200 715h147l202 -715h-128zM299 496q-4 19 -8.5 40.5t-9 42.5t-7.5 38q-2 -17 -6.5 -38.5t-9 -42.5t-8.5 -39l-49 -201h148zM414 869v-85h-280v85h280z" />
    <glyph glyph-name="amacron" unicode="&#x101;" horiz-adv-x="488" 
d="M253 553q86 0 129 -48t43 -142v-363h-85l-19 74h-3q-18 -29 -38.5 -47.5t-46.5 -27.5t-61 -9q-44 0 -75 22t-46.5 60t-15.5 85q0 84 51 127.5t149 47.5l74 3v26q0 52 -18 76t-55 24q-28 0 -58.5 -9.5t-63.5 -27.5l-35 84q37 22 81 33.5t93 11.5zM261 256
q-57 -3 -82.5 -27t-25.5 -69q0 -41 16.5 -60t46.5 -19q41 0 67 33.5t26 93.5v50zM389 698v-85h-280v85h280z" />
    <glyph glyph-name="Abreve" unicode="&#x102;" horiz-adv-x="549" 
d="M421 0l-49 191h-194l-49 -191h-129l200 715h147l202 -715h-128zM299 496q-4 19 -8.5 40.5t-9 42.5t-7.5 38q-2 -17 -6.5 -38.5t-9 -42.5t-8.5 -39l-49 -201h148zM422 930q-1 -46 -20 -80.5t-52.5 -53t-77.5 -18.5q-67 0 -106 39t-41 113h70q2 -25 12 -40t27 -21.5
t39 -6.5t39 6.5t28 21.5t13 40h69z" />
    <glyph glyph-name="abreve" unicode="&#x103;" horiz-adv-x="488" 
d="M253 553q86 0 129 -48t43 -142v-363h-85l-19 74h-3q-18 -29 -38.5 -47.5t-46.5 -27.5t-61 -9q-44 0 -75 22t-46.5 60t-15.5 85q0 84 51 127.5t149 47.5l74 3v26q0 52 -18 76t-55 24q-28 0 -58.5 -9.5t-63.5 -27.5l-35 84q37 22 81 33.5t93 11.5zM261 256
q-57 -3 -82.5 -27t-25.5 -69q0 -41 16.5 -60t46.5 -19q41 0 67 33.5t26 93.5v50zM397 759q-1 -46 -20 -80.5t-52.5 -53t-77.5 -18.5q-67 0 -106 39t-41 113h70q2 -25 12 -40t27 -21.5t39 -6.5t39 6.5t28 21.5t13 40h69z" />
    <glyph glyph-name="Aogonek" unicode="&#x104;" horiz-adv-x="549" 
d="M421 0l-49 191h-194l-49 -191h-129l200 715h147l202 -715h-128zM299 496q-4 19 -8.5 40.5t-9 42.5t-7.5 38q-2 -17 -6.5 -38.5t-9 -42.5t-8.5 -39l-49 -201h148zM445 -109q0 -21 11.5 -33t31.5 -12q13 0 22.5 2.5t16.5 5.5v-74q-11 -4 -26 -7.5t-35 -3.5q-54 0 -82 27
t-28 75q0 25 11 50.5t31 49.5t48 44l60 -15q-33 -33 -47 -58t-14 -51z" />
    <glyph glyph-name="aogonek" unicode="&#x105;" horiz-adv-x="488" 
d="M253 553q86 0 129 -48t43 -142v-363h-85l-19 74h-3q-18 -29 -38.5 -47.5t-46.5 -27.5t-61 -9q-44 0 -75 22t-46.5 60t-15.5 85q0 84 51 127.5t149 47.5l74 3v26q0 52 -18 76t-55 24q-28 0 -58.5 -9.5t-63.5 -27.5l-35 84q37 22 81 33.5t93 11.5zM261 256
q-57 -3 -82.5 -27t-25.5 -69q0 -41 16.5 -60t46.5 -19q41 0 67 33.5t26 93.5v50zM354 -109q0 -21 11.5 -33t31.5 -12q13 0 22.5 2.5t16.5 5.5v-74q-11 -4 -26 -7.5t-35 -3.5q-54 0 -82 27t-28 75q0 25 11 50.5t31 49.5t48 44l60 -15q-33 -33 -47 -58t-14 -51z" />
    <glyph glyph-name="Cacute" unicode="&#x106;" horiz-adv-x="519" 
d="M331 620q-39 0 -68.5 -19.5t-49 -55.5t-29.5 -84t-10 -105q0 -83 18.5 -141.5t54.5 -89.5t88 -31q36 0 69 10t66 24v-105q-33 -17 -69.5 -25t-80.5 -8q-87 0 -147.5 44t-91.5 126t-31 197q0 79 17.5 146t52.5 116.5t87 77t119 27.5q44 0 86 -10.5t80 -32.5l-38 -99
q-28 17 -59 27.5t-64 10.5zM474 928q-10 -15 -28 -34.5t-38.5 -41t-41.5 -41t-38 -34.5h-79v12q18 25 34.5 50.5t31.5 50.5t25 47h134v-9z" />
    <glyph glyph-name="cacute" unicode="&#x107;" horiz-adv-x="416" 
d="M253 -10q-68 0 -115.5 30t-71.5 92t-24 157q0 89 24.5 152.5t73 97.5t118.5 34q41 0 74 -8.5t59 -24.5l-33 -92q-24 12 -47.5 19t-46.5 7q-34 0 -57.5 -21t-35 -62t-11.5 -102q0 -60 12 -100t35 -60t57 -20q32 0 60.5 9.5t56.5 26.5v-99q-27 -18 -59 -27t-69 -9zM404 757
q-10 -15 -28 -34.5t-38.5 -41t-41.5 -41t-38 -34.5h-79v12q18 25 34.5 50.5t31.5 50.5t25 47h134v-9z" />
    <glyph glyph-name="Ccircumflex" unicode="&#x108;" horiz-adv-x="519" 
d="M331 620q-39 0 -68.5 -19.5t-49 -55.5t-29.5 -84t-10 -105q0 -83 18.5 -141.5t54.5 -89.5t88 -31q36 0 69 10t66 24v-105q-33 -17 -69.5 -25t-80.5 -8q-87 0 -147.5 44t-91.5 126t-31 197q0 79 17.5 146t52.5 116.5t87 77t119 27.5q44 0 86 -10.5t80 -32.5l-38 -99
q-28 17 -59 27.5t-64 10.5zM369 937q12 -22 29 -48t36.5 -52t37.5 -48v-12h-71q-21 17 -44 39t-46 47q-24 -25 -46.5 -48t-41.5 -38h-72v12q17 21 36.5 47.5t37.5 53.5t29 47h115z" />
    <glyph glyph-name="ccircumflex" unicode="&#x109;" horiz-adv-x="416" 
d="M253 -10q-68 0 -115.5 30t-71.5 92t-24 157q0 89 24.5 152.5t73 97.5t118.5 34q41 0 74 -8.5t59 -24.5l-33 -92q-24 12 -47.5 19t-46.5 7q-34 0 -57.5 -21t-35 -62t-11.5 -102q0 -60 12 -100t35 -60t57 -20q32 0 60.5 9.5t56.5 26.5v-99q-27 -18 -59 -27t-69 -9zM299 766
q12 -22 29 -48t36.5 -52t37.5 -48v-12h-71q-21 17 -44 39t-46 47q-24 -25 -46.5 -48t-41.5 -38h-72v12q17 21 36.5 47.5t37.5 53.5t29 47h115z" />
    <glyph glyph-name="Cdotaccent" unicode="&#x10a;" horiz-adv-x="519" 
d="M331 620q-39 0 -68.5 -19.5t-49 -55.5t-29.5 -84t-10 -105q0 -83 18.5 -141.5t54.5 -89.5t88 -31q36 0 69 10t66 24v-105q-33 -17 -69.5 -25t-80.5 -8q-87 0 -147.5 44t-91.5 126t-31 197q0 79 17.5 146t52.5 116.5t87 77t119 27.5q44 0 86 -10.5t80 -32.5l-38 -99
q-28 17 -59 27.5t-64 10.5zM317 924q30 0 47 -17t17 -51t-17.5 -50.5t-46.5 -16.5q-30 0 -47.5 16.5t-17.5 50.5q0 35 17 51.5t48 16.5z" />
    <glyph glyph-name="cdotaccent" unicode="&#x10b;" horiz-adv-x="416" 
d="M253 -10q-68 0 -115.5 30t-71.5 92t-24 157q0 89 24.5 152.5t73 97.5t118.5 34q41 0 74 -8.5t59 -24.5l-33 -92q-24 12 -47.5 19t-46.5 7q-34 0 -57.5 -21t-35 -62t-11.5 -102q0 -60 12 -100t35 -60t57 -20q32 0 60.5 9.5t56.5 26.5v-99q-27 -18 -59 -27t-69 -9zM247 753
q30 0 47 -17t17 -51t-17.5 -50.5t-46.5 -16.5q-30 0 -47.5 16.5t-17.5 50.5q0 35 17 51.5t48 16.5z" />
    <glyph glyph-name="Ccaron" unicode="&#x10c;" horiz-adv-x="519" 
d="M331 620q-39 0 -68.5 -19.5t-49 -55.5t-29.5 -84t-10 -105q0 -83 18.5 -141.5t54.5 -89.5t88 -31q36 0 69 10t66 24v-105q-33 -17 -69.5 -25t-80.5 -8q-87 0 -147.5 44t-91.5 126t-31 197q0 79 17.5 146t52.5 116.5t87 77t119 27.5q44 0 86 -10.5t80 -32.5l-38 -99
q-28 17 -59 27.5t-64 10.5zM254 777q-11 21 -29 48t-37.5 53.5t-36.5 46.5v12h72q20 -16 43 -38.5t45 -48.5q25 28 46 48t44 39h71v-12q-16 -19 -35.5 -45.5t-37.5 -53.5t-30 -49h-115z" />
    <glyph glyph-name="ccaron" unicode="&#x10d;" horiz-adv-x="416" 
d="M253 -10q-68 0 -115.5 30t-71.5 92t-24 157q0 89 24.5 152.5t73 97.5t118.5 34q41 0 74 -8.5t59 -24.5l-33 -92q-24 12 -47.5 19t-46.5 7q-34 0 -57.5 -21t-35 -62t-11.5 -102q0 -60 12 -100t35 -60t57 -20q32 0 60.5 9.5t56.5 26.5v-99q-27 -18 -59 -27t-69 -9zM184 606
q-11 21 -29 48t-37.5 53.5t-36.5 46.5v12h72q20 -16 43 -38.5t45 -48.5q25 28 46 48t44 39h71v-12q-16 -19 -35.5 -45.5t-37.5 -53.5t-30 -49h-115z" />
    <glyph glyph-name="Dcaron" unicode="&#x10e;" horiz-adv-x="601" 
d="M551 367q0 -120 -35.5 -201.5t-103 -123.5t-166.5 -42h-171v714h184q93 0 158 -39.5t99.5 -116.5t34.5 -191zM427 362q0 85 -19.5 140t-57 81.5t-93.5 26.5h-62v-506h52q92 0 136 64.5t44 193.5zM240 777q-11 21 -29 48t-37.5 53.5t-36.5 46.5v12h72q20 -16 43 -38.5
t45 -48.5q25 28 46 48t44 39h71v-12q-16 -19 -35.5 -45.5t-37.5 -53.5t-30 -49h-115z" />
    <glyph glyph-name="dcaron" unicode="&#x10f;" horiz-adv-x="528" 
d="M637 750q-6 -22 -17 -49.5t-24 -53.5t-26 -47h-71v12q3 12 6.5 31t7.5 40.5t6.5 42t3.5 34.5h114v-10zM217 -10q-83 0 -129.5 73t-46.5 208q0 136 46.5 209t127.5 73q30 0 54.5 -9.5t44 -27t33.5 -43.5h5q-2 25 -4 48t-2 42v197h116v-760h-92l-17 66h-7
q-15 -24 -33.5 -41t-41.5 -26t-54 -9zM250 86q51 0 74.5 41t23.5 125v27q0 89 -22.5 132t-76.5 43q-45 0 -67.5 -47t-22.5 -136q0 -91 23 -138t68 -47z" />
    <glyph glyph-name="Dcroat" unicode="&#x110;" horiz-adv-x="601" 
d="M258 714q93 0 158.5 -39.5t100 -116.5t34.5 -191q0 -120 -35.5 -201.5t-103.5 -123.5t-166 -42h-171v316h-58v95h58v303h183zM257 610h-61v-199h102v-95h-102v-212h50q92 0 136.5 64.5t44.5 194.5q0 84 -19.5 139t-57 81.5t-93.5 26.5z" />
    <glyph glyph-name="dcroat" unicode="&#x111;" horiz-adv-x="531" 
d="M217 -10q-83 0 -129.5 71.5t-46.5 202.5q0 132 46.5 203t127.5 71q30 0 54.5 -9.5t44 -27t33.5 -43.5h5q-2 25 -4 49t-2 41v47h-122v82h122v83h116v-83h65v-82h-65v-595h-92l-18 66h-6q-15 -24 -33.5 -41t-41.5 -26t-54 -9zM250 86q51 0 74.5 40t23.5 123v21
q0 86 -22.5 127t-76.5 41q-45 0 -67 -44.5t-22 -129.5q0 -88 22.5 -133t67.5 -45z" />
    <glyph glyph-name="Emacron" unicode="&#x112;" horiz-adv-x="460" 
d="M412 0h-337v714h337v-103h-217v-188h203v-103h-203v-216h217v-104zM385 869v-85h-280v85h280z" />
    <glyph glyph-name="emacron" unicode="&#x113;" horiz-adv-x="484" 
d="M248 552q64 0 108 -30.5t67 -85t23 -128.5v-66h-289q2 -79 32.5 -118.5t89.5 -39.5q38 0 71.5 9t70.5 30v-96q-34 -19 -71 -28t-83 -9q-75 0 -125 33.5t-75 96t-25 148.5q0 92 24 155.5t70.5 96t111.5 32.5zM250 462q-40 0 -64 -33t-27 -103h177q0 40 -9.5 70.5t-28.5 48
t-48 17.5zM385 698v-85h-280v85h280z" />
    <glyph glyph-name="Ebreve" unicode="&#x114;" horiz-adv-x="460" 
d="M412 0h-337v714h337v-103h-217v-188h203v-103h-203v-216h217v-104zM393 930q-1 -46 -20 -80.5t-52.5 -53t-77.5 -18.5q-67 0 -106 39t-41 113h70q2 -25 12 -40t27 -21.5t39 -6.5t39 6.5t28 21.5t13 40h69z" />
    <glyph glyph-name="ebreve" unicode="&#x115;" horiz-adv-x="484" 
d="M248 552q64 0 108 -30.5t67 -85t23 -128.5v-66h-289q2 -79 32.5 -118.5t89.5 -39.5q38 0 71.5 9t70.5 30v-96q-34 -19 -71 -28t-83 -9q-75 0 -125 33.5t-75 96t-25 148.5q0 92 24 155.5t70.5 96t111.5 32.5zM250 462q-40 0 -64 -33t-27 -103h177q0 40 -9.5 70.5t-28.5 48
t-48 17.5zM393 759q-1 -46 -20 -80.5t-52.5 -53t-77.5 -18.5q-67 0 -106 39t-41 113h70q2 -25 12 -40t27 -21.5t39 -6.5t39 6.5t28 21.5t13 40h69z" />
    <glyph glyph-name="Edotaccent" unicode="&#x116;" horiz-adv-x="460" 
d="M412 0h-337v714h337v-103h-217v-188h203v-103h-203v-216h217v-104zM251 924q30 0 47 -17t17 -51t-17.5 -50.5t-46.5 -16.5q-30 0 -47.5 16.5t-17.5 50.5q0 35 17 51.5t48 16.5z" />
    <glyph glyph-name="edotaccent" unicode="&#x117;" horiz-adv-x="484" 
d="M248 552q64 0 108 -30.5t67 -85t23 -128.5v-66h-289q2 -79 32.5 -118.5t89.5 -39.5q38 0 71.5 9t70.5 30v-96q-34 -19 -71 -28t-83 -9q-75 0 -125 33.5t-75 96t-25 148.5q0 92 24 155.5t70.5 96t111.5 32.5zM250 462q-40 0 -64 -33t-27 -103h177q0 40 -9.5 70.5t-28.5 48
t-48 17.5zM251 753q30 0 47 -17t17 -51t-17.5 -50.5t-46.5 -16.5q-30 0 -47.5 16.5t-17.5 50.5q0 35 17 51.5t48 16.5z" />
    <glyph glyph-name="Eogonek" unicode="&#x118;" horiz-adv-x="460" 
d="M412 0h-337v714h337v-103h-217v-188h203v-103h-203v-216h217v-104zM327 -109q0 -21 11.5 -33t31.5 -12q13 0 22.5 2.5t16.5 5.5v-74q-11 -4 -26 -7.5t-35 -3.5q-54 0 -82 27t-28 75q0 25 11 50.5t31 49.5t48 44l60 -15q-33 -33 -47 -58t-14 -51z" />
    <glyph glyph-name="eogonek" unicode="&#x119;" horiz-adv-x="484" 
d="M335 -111q0 -20 11 -30.5t29 -10.5q12 0 24 2.5t20 5.5v-76q-14 -5 -31 -7.5t-35 -2.5q-54 0 -80.5 27t-26.5 75q0 26 10.5 50t29.5 45t43 39l92 21q-32 -30 -51 -54.5t-27 -45t-8 -38.5zM248 552q64 0 108 -30.5t67 -85t23 -128.5v-66h-289q2 -79 32.5 -118.5
t89.5 -39.5q38 0 71.5 9t70.5 30v-96q-34 -19 -71 -28t-83 -9q-75 0 -125 33.5t-75 96t-25 148.5q0 92 24 155.5t70.5 96t111.5 32.5zM250 462q-40 0 -64 -33t-27 -103h177q0 40 -9.5 70.5t-28.5 48t-48 17.5z" />
    <glyph glyph-name="Ecaron" unicode="&#x11a;" horiz-adv-x="460" 
d="M412 0h-337v714h337v-103h-217v-188h203v-103h-203v-216h217v-104zM188 777q-11 21 -29 48t-37.5 53.5t-36.5 46.5v12h72q20 -16 43 -38.5t45 -48.5q25 28 46 48t44 39h71v-12q-16 -19 -35.5 -45.5t-37.5 -53.5t-30 -49h-115z" />
    <glyph glyph-name="ecaron" unicode="&#x11b;" horiz-adv-x="484" 
d="M248 552q64 0 108 -30.5t67 -85t23 -128.5v-66h-289q2 -79 32.5 -118.5t89.5 -39.5q38 0 71.5 9t70.5 30v-96q-34 -19 -71 -28t-83 -9q-75 0 -125 33.5t-75 96t-25 148.5q0 92 24 155.5t70.5 96t111.5 32.5zM250 462q-40 0 -64 -33t-27 -103h177q0 40 -9.5 70.5t-28.5 48
t-48 17.5zM188 606q-11 21 -29 48t-37.5 53.5t-36.5 46.5v12h72q20 -16 43 -38.5t45 -48.5q25 28 46 48t44 39h71v-12q-16 -19 -35.5 -45.5t-37.5 -53.5t-30 -49h-115z" />
    <glyph glyph-name="Gcircumflex" unicode="&#x11c;" horiz-adv-x="612" 
d="M326 392h226v-363q-51 -19 -104.5 -29t-113.5 -10q-94 0 -157.5 45.5t-95 128t-31.5 195.5q0 110 35.5 192t105 127.5t169.5 45.5q52 0 99 -12t85 -33l-38 -99q-33 19 -69 29.5t-75 10.5q-60 0 -102 -31t-63.5 -90t-21.5 -143q0 -77 17.5 -136.5t55 -92.5t96.5 -33
q27 0 49 3.5t41 9.5v182h-108v103zM399 937q12 -22 29 -48t36.5 -52t37.5 -48v-12h-71q-21 17 -44 39t-46 47q-24 -25 -46.5 -48t-41.5 -38h-72v12q17 21 36.5 47.5t37.5 53.5t29 47h115z" />
    <glyph glyph-name="gcircumflex" unicode="&#x11d;" horiz-adv-x="528" 
d="M218 553q42 0 73.5 -19t55.5 -61h6l11 70h98v-534q0 -80 -24.5 -135.5t-76.5 -84.5t-132 -29q-47 0 -85.5 8.5t-73.5 26.5v101q40 -20 79.5 -30t79.5 -10q57 0 87.5 30t30.5 97v13q0 16 1 37.5t3 39.5h-5q-23 -43 -55 -63t-77 -20q-81 0 -127 72.5t-46 206.5
q0 136 47 210t130 74zM249 454q-30 0 -50 -21t-29.5 -62.5t-9.5 -103.5q0 -91 22.5 -135t68.5 -44q25 0 43.5 9.5t30.5 29.5t18 50.5t6 72.5v24q0 63 -10.5 103t-32.5 58.5t-57 18.5zM325 766q12 -22 29 -48t36.5 -52t37.5 -48v-12h-71q-21 17 -44 39t-46 47
q-24 -25 -46.5 -48t-41.5 -38h-72v12q17 21 36.5 47.5t37.5 53.5t29 47h115z" />
    <glyph glyph-name="Gbreve" unicode="&#x11e;" horiz-adv-x="612" 
d="M326 392h226v-363q-51 -19 -104.5 -29t-113.5 -10q-94 0 -157.5 45.5t-95 128t-31.5 195.5q0 110 35.5 192t105 127.5t169.5 45.5q52 0 99 -12t85 -33l-38 -99q-33 19 -69 29.5t-75 10.5q-60 0 -102 -31t-63.5 -90t-21.5 -143q0 -77 17.5 -136.5t55 -92.5t96.5 -33
q27 0 49 3.5t41 9.5v182h-108v103zM490 930q-1 -46 -20 -80.5t-52.5 -53t-77.5 -18.5q-67 0 -106 39t-41 113h70q2 -25 12 -40t27 -21.5t39 -6.5t39 6.5t28 21.5t13 40h69z" />
    <glyph glyph-name="gbreve" unicode="&#x11f;" horiz-adv-x="528" 
d="M218 553q42 0 73.5 -19t55.5 -61h6l11 70h98v-534q0 -80 -24.5 -135.5t-76.5 -84.5t-132 -29q-47 0 -85.5 8.5t-73.5 26.5v101q40 -20 79.5 -30t79.5 -10q57 0 87.5 30t30.5 97v13q0 16 1 37.5t3 39.5h-5q-23 -43 -55 -63t-77 -20q-81 0 -127 72.5t-46 206.5
q0 136 47 210t130 74zM249 454q-30 0 -50 -21t-29.5 -62.5t-9.5 -103.5q0 -91 22.5 -135t68.5 -44q25 0 43.5 9.5t30.5 29.5t18 50.5t6 72.5v24q0 63 -10.5 103t-32.5 58.5t-57 18.5zM416 759q-1 -46 -20 -80.5t-52.5 -53t-77.5 -18.5q-67 0 -106 39t-41 113h70
q2 -25 12 -40t27 -21.5t39 -6.5t39 6.5t28 21.5t13 40h69z" />
    <glyph glyph-name="Gdotaccent" unicode="&#x120;" horiz-adv-x="612" 
d="M326 392h226v-363q-51 -19 -104.5 -29t-113.5 -10q-94 0 -157.5 45.5t-95 128t-31.5 195.5q0 110 35.5 192t105 127.5t169.5 45.5q52 0 99 -12t85 -33l-38 -99q-33 19 -69 29.5t-75 10.5q-60 0 -102 -31t-63.5 -90t-21.5 -143q0 -77 17.5 -136.5t55 -92.5t96.5 -33
q27 0 49 3.5t41 9.5v182h-108v103zM347 924q30 0 47 -17t17 -51t-17.5 -50.5t-46.5 -16.5q-30 0 -47.5 16.5t-17.5 50.5q0 35 17 51.5t48 16.5z" />
    <glyph glyph-name="gdotaccent" unicode="&#x121;" horiz-adv-x="528" 
d="M218 553q42 0 73.5 -19t55.5 -61h6l11 70h98v-534q0 -80 -24.5 -135.5t-76.5 -84.5t-132 -29q-47 0 -85.5 8.5t-73.5 26.5v101q40 -20 79.5 -30t79.5 -10q57 0 87.5 30t30.5 97v13q0 16 1 37.5t3 39.5h-5q-23 -43 -55 -63t-77 -20q-81 0 -127 72.5t-46 206.5
q0 136 47 210t130 74zM249 454q-30 0 -50 -21t-29.5 -62.5t-9.5 -103.5q0 -91 22.5 -135t68.5 -44q25 0 43.5 9.5t30.5 29.5t18 50.5t6 72.5v24q0 63 -10.5 103t-32.5 58.5t-57 18.5zM273 753q30 0 47 -17t17 -51t-17.5 -50.5t-46.5 -16.5q-30 0 -47.5 16.5t-17.5 50.5
q0 35 17 51.5t48 16.5z" />
    <glyph glyph-name="uni0122" unicode="&#x122;" horiz-adv-x="612" 
d="M326 392h226v-363q-51 -19 -104.5 -29t-113.5 -10q-94 0 -157.5 45.5t-95 128t-31.5 195.5q0 110 35.5 192t105 127.5t169.5 45.5q52 0 99 -12t85 -33l-38 -99q-33 19 -69 29.5t-75 10.5q-60 0 -102 -31t-63.5 -90t-21.5 -143q0 -77 17.5 -136.5t55 -92.5t96.5 -33
q27 0 49 3.5t41 9.5v182h-108v103zM410 -71q-7 -24 -18.5 -50.5t-24.5 -52t-28 -47.5h-70v12q5 18 11 45t11 55t6 48h113v-10z" />
    <glyph glyph-name="uni0123" unicode="&#x123;" horiz-adv-x="528" 
d="M334 754q-7 -21 -13.5 -48.5t-12 -53.5t-6.5 -46h-113v10q7 23 18 49.5t25 52.5t30 48h72v-12zM218 553q42 0 73.5 -19t55.5 -61h6l11 70h98v-534q0 -80 -24.5 -135.5t-76.5 -84.5t-132 -29q-47 0 -85.5 8.5t-73.5 26.5v101q40 -20 79.5 -30t79.5 -10q57 0 87.5 30
t30.5 97v13q0 16 1 37.5t3 39.5h-5q-23 -43 -55 -63t-77 -20q-81 0 -127 72.5t-46 206.5q0 136 47 210t130 74zM249 454q-30 0 -50 -21t-29.5 -62.5t-9.5 -103.5q0 -91 22.5 -135t68.5 -44q25 0 43.5 9.5t30.5 29.5t18 50.5t6 72.5v24q0 63 -10.5 103t-32.5 58.5t-57 18.5z
" />
    <glyph glyph-name="Hcircumflex" unicode="&#x124;" horiz-adv-x="620" 
d="M545 0h-120v320h-230v-320h-120v714h120v-290h230v290h120v-714zM368 937q12 -22 29 -48t36.5 -52t37.5 -48v-12h-71q-21 17 -44 39t-46 47q-24 -25 -46.5 -48t-41.5 -38h-72v12q17 21 36.5 47.5t37.5 53.5t29 47h115z" />
    <glyph glyph-name="hcircumflex" unicode="&#x125;" horiz-adv-x="532" 
d="M182 575q0 -28 -2.5 -55t-5.5 -48h7q13 27 32.5 45t44.5 27t53 9q51 0 86 -22t53 -64.5t18 -107.5v-359h-116v332q0 62 -16.5 91t-54.5 29q-37 0 -59 -20t-31 -61t-9 -104v-267h-116v760h116v-185zM182 983q12 -22 29 -48t36.5 -52t37.5 -48v-12h-71q-21 17 -44 39
t-46 47q-24 -25 -46.5 -48t-41.5 -38h-72v12q17 21 36.5 47.5t37.5 53.5t29 47h115z" />
    <glyph glyph-name="Hbar" unicode="&#x126;" horiz-adv-x="620" 
d="M75 0v526h-77v84h77v104h120v-104h230v104h120v-104h77v-84h-77v-526h-120v319h-230v-319h-120zM195 424h230v102h-230v-102z" />
    <glyph glyph-name="hbar" unicode="&#x127;" horiz-adv-x="532" 
d="M182 760v-84h126v-83h-126v-47q0 -22 -2.5 -45.5t-5.5 -45.5h7q13 27 32 45t44 27t54 9q52 0 86.5 -21.5t52.5 -64.5t18 -107v-343h-116v314q0 63 -17 92t-55 29q-36 0 -57.5 -19t-31.5 -59.5t-10 -105.5v-251h-116v593h-63v83h63v84h117z" />
    <glyph glyph-name="Itilde" unicode="&#x128;" horiz-adv-x="328" 
d="M296 0h-264v67l72 26v528l-72 26v67h264v-67l-72 -26v-528l72 -26v-67zM-4 776q2 27 8 52t17.5 45t29 31.5t42.5 11.5q20 0 38 -8t35.5 -19t33.5 -18.5t32 -7.5t24.5 14t13.5 40h64q-3 -68 -30 -104t-67 -36q-19 0 -38 8t-37 19t-33.5 19t-29.5 8q-13 0 -24 -14t-15 -41
h-64z" />
    <glyph glyph-name="itilde" unicode="&#x129;" horiz-adv-x="248" 
d="M182 0h-116v543h116v-543zM-45 605q2 27 8 52t17.5 45t29 31.5t42.5 11.5q20 0 38 -8t35.5 -19t33.5 -18.5t32 -7.5t24.5 14t13.5 40h64q-3 -68 -30 -104t-67 -36q-19 0 -38 8t-37 19t-33.5 19t-29.5 8q-13 0 -24 -14t-15 -41h-64z" />
    <glyph glyph-name="Imacron" unicode="&#x12a;" horiz-adv-x="328" 
d="M296 0h-264v67l72 26v528l-72 26v67h264v-67l-72 -26v-528l72 -26v-67zM304 869v-85h-280v85h280z" />
    <glyph glyph-name="imacron" unicode="&#x12b;" horiz-adv-x="248" 
d="M182 0h-116v543h116v-543zM263 698v-85h-280v85h280z" />
    <glyph glyph-name="Ibreve" unicode="&#x12c;" horiz-adv-x="328" 
d="M296 0h-264v67l72 26v528l-72 26v67h264v-67l-72 -26v-528l72 -26v-67zM312 930q-1 -46 -20 -80.5t-52.5 -53t-77.5 -18.5q-67 0 -106 39t-41 113h70q2 -25 12 -40t27 -21.5t39 -6.5t39 6.5t28 21.5t13 40h69z" />
    <glyph glyph-name="ibreve" unicode="&#x12d;" horiz-adv-x="248" 
d="M182 0h-116v543h116v-543zM272 759q-1 -46 -20 -80.5t-52.5 -53t-77.5 -18.5q-67 0 -106 39t-41 113h70q2 -25 12 -40t27 -21.5t39 -6.5t39 6.5t28 21.5t13 40h69z" />
    <glyph glyph-name="Iogonek" unicode="&#x12e;" horiz-adv-x="328" 
d="M296 0h-264v67l72 26v528l-72 26v67h264v-67l-72 -26v-528l72 -26v-67zM208 -109q0 -21 11.5 -33t31.5 -12q13 0 22.5 2.5t16.5 5.5v-74q-11 -4 -26 -7.5t-35 -3.5q-54 0 -82 27t-28 75q0 25 11 50.5t31 49.5t48 44l60 -15q-33 -33 -47 -58t-14 -51z" />
    <glyph glyph-name="iogonek" unicode="&#x12f;" horiz-adv-x="248" 
d="M182 543v-543h-116v543h116zM125 753q30 0 47 -17t17 -51t-17 -50.5t-47 -16.5t-47.5 16.5t-17.5 50.5q0 35 17 51.5t48 16.5zM107 -109q0 -21 11.5 -33t31.5 -12q13 0 22.5 2.5t16.5 5.5v-74q-11 -4 -26 -7.5t-35 -3.5q-54 0 -82 27t-28 75q0 25 11 50.5t31 49.5t48 44
l60 -15q-33 -33 -47 -58t-14 -51z" />
    <glyph glyph-name="Idotaccent" unicode="&#x130;" horiz-adv-x="328" 
d="M296 0h-264v67l72 26v528l-72 26v67h264v-67l-72 -26v-528l72 -26v-67zM169 924q30 0 47 -17t17 -51t-17.5 -50.5t-46.5 -16.5q-30 0 -47.5 16.5t-17.5 50.5q0 35 17 51.5t48 16.5z" />
    <glyph glyph-name="IJ" unicode="&#x132;" horiz-adv-x="588" 
d="M296 0h-264v67l72 26v528l-72 26v67h264v-67l-72 -26v-528l72 -26v-67zM335 -204q-22 0 -40.5 2.5t-34.5 8.5v103q13 -4 28 -7t32 -3q25 0 41 11t24.5 38.5t8.5 74.5v690h120v-690q0 -84 -21.5 -134t-61.5 -72t-96 -22z" />
    <glyph glyph-name="ij" unicode="&#x133;" horiz-adv-x="497" 
d="M182 543v-543h-116v543h116zM125 753q30 0 47 -17t17 -51t-17 -50.5t-47 -16.5t-47.5 16.5t-17.5 50.5q0 35 17 51.5t48 16.5zM285 -240q-19 0 -37.5 3t-33.5 8v98q12 -4 23.5 -6.5t24.5 -2.5q25 0 38.5 18.5t13.5 60.5v604h116v-610q0 -57 -16 -95.5t-48.5 -57.5
t-80.5 -20zM308 685q0 35 17 51.5t48 16.5q30 0 47 -17t17 -51t-17 -50.5t-47 -16.5t-47.5 16.5t-17.5 50.5z" />
    <glyph glyph-name="Jcircumflex" unicode="&#x134;" horiz-adv-x="267" 
d="M15 -204q-22 0 -40.5 2.5t-34.5 8.5v103q13 -4 28 -7t32 -3q25 0 41 11t24.5 38.5t8.5 74.5v690h120v-690q0 -84 -21.5 -134t-61.5 -72t-96 -22zM192 937q12 -22 29 -48t36.5 -52t37.5 -48v-12h-71q-21 17 -44 39t-46 47q-24 -25 -46.5 -48t-41.5 -38h-72v12
q17 21 36.5 47.5t37.5 53.5t29 47h115z" />
    <glyph glyph-name="jcircumflex" unicode="&#x135;" horiz-adv-x="248" 
d="M37 -240q-18 0 -38.5 3t-32.5 8v98q12 -4 23.5 -6.5t24.5 -2.5q25 0 38.5 18t13.5 59v606h116v-610q0 -54 -16 -93t-48 -59.5t-81 -20.5zM182 766q12 -22 29 -48t36.5 -52t37.5 -48v-12h-71q-21 17 -44 39t-46 47q-24 -25 -46.5 -48t-41.5 -38h-72v12q17 21 36.5 47.5
t37.5 53.5t29 47h115z" />
    <glyph glyph-name="uni0136" unicode="&#x136;" horiz-adv-x="535" 
d="M539 0h-135l-156 309l-53 -49v-260h-120v714h120v-339q10 20 25 45l33 55l150 239h131l-201 -316zM362 -71q-7 -24 -18.5 -50.5t-24.5 -52t-28 -47.5h-70v12q5 18 11 45t11 55t6 48h113v-10z" />
    <glyph glyph-name="uni0137" unicode="&#x137;" horiz-adv-x="488" 
d="M182 408q0 -30 -1.5 -60.5t-4.5 -58.5h3q7 12 14.5 25t15.5 25t15 23l126 181h127l-161 -223l171 -320h-129l-121 238l-55 -55v-183h-116v760h116v-352zM325 -71q-7 -24 -18.5 -50.5t-24.5 -52t-28 -47.5h-70v12q5 18 11 45t11 55t6 48h113v-10z" />
    <glyph glyph-name="kgreenlandic" unicode="&#x138;" horiz-adv-x="488" 
d="M477 543l-159 -226l169 -317h-129l-118 235l-58 -54v-181h-116v543h116v-135q0 -33 -1 -64.5t-4 -58.5h3q10 17 20.5 34t20.5 30l130 194h126z" />
    <glyph glyph-name="Lacute" unicode="&#x139;" horiz-adv-x="440" 
d="M75 0v714h120v-610h225v-104h-345zM298 928q-10 -15 -28 -34.5t-38.5 -41t-41.5 -41t-38 -34.5h-79v12q18 25 34.5 50.5t31.5 50.5t25 47h134v-9z" />
    <glyph glyph-name="lacute" unicode="&#x13a;" horiz-adv-x="247" 
d="M182 0h-116v760h116v-760zM287 974q-10 -15 -28 -34.5t-38.5 -41t-41.5 -41t-38 -34.5h-79v12q18 25 34.5 50.5t31.5 50.5t25 47h134v-9z" />
    <glyph glyph-name="uni013B" unicode="&#x13b;" horiz-adv-x="440" 
d="M75 0v714h120v-610h225v-104h-345zM319 -71q-7 -24 -18.5 -50.5t-24.5 -52t-28 -47.5h-70v12q5 18 11 45t11 55t6 48h113v-10z" />
    <glyph glyph-name="uni013C" unicode="&#x13c;" horiz-adv-x="247" 
d="M182 0h-116v760h116v-760zM195 -71q-7 -24 -18.5 -50.5t-24.5 -52t-28 -47.5h-70v12q5 18 11 45t11 55t6 48h113v-10z" />
    <glyph glyph-name="Lcaron" unicode="&#x13d;" horiz-adv-x="440" 
d="M449 703q-6 -22 -17 -49t-24 -53t-26 -47h-71v12q3 11 6.5 30t7.5 41t6.5 42t3.5 35h114v-11zM75 0v714h120v-610h225v-104h-345z" />
    <glyph glyph-name="lcaron" unicode="&#x13e;" horiz-adv-x="247" 
d="M354 750q-6 -22 -17 -49.5t-24 -53.5t-26 -47h-70v12q2 12 6 31t7.5 40.5t6 42t3.5 34.5h114v-10zM182 0h-116v760h116v-760z" />
    <glyph glyph-name="Ldot" unicode="&#x13f;" horiz-adv-x="440" 
d="M75 0v714h120v-610h225v-104h-345zM355 455q30 0 47 -17t17 -51t-17.5 -50.5t-46.5 -16.5q-30 0 -47.5 16.5t-17.5 50.5q0 35 17 51.5t48 16.5z" />
    <glyph glyph-name="ldot" unicode="&#x140;" horiz-adv-x="317" 
d="M182 0h-116v760h116v-760zM284 457q30 0 47 -17t17 -51t-17.5 -50.5t-46.5 -16.5q-30 0 -47.5 16.5t-17.5 50.5q0 35 17 51.5t48 16.5z" />
    <glyph glyph-name="Lslash" unicode="&#x141;" horiz-adv-x="450" 
d="M84 0v242l-40 -26l-52 74l92 65v359h120v-278l93 61l53 -75l-146 -98v-220h224v-104h-344z" />
    <glyph glyph-name="lslash" unicode="&#x142;" horiz-adv-x="270" 
d="M77 0v269l-44 -32l-52 74l96 71v378h116v-297l45 33l53 -74l-98 -73v-349h-116z" />
    <glyph glyph-name="Nacute" unicode="&#x143;" horiz-adv-x="659" 
d="M585 0h-145l-257 539h-4q2 -32 4 -61.5t2.5 -57t1.5 -52.5v-368h-112v714h144l257 -530h3q-2 30 -3 59.5t-2 56.5t-2 51v363h113v-714zM492 928q-10 -15 -28 -34.5t-38.5 -41t-41.5 -41t-38 -34.5h-79v12q18 25 34.5 50.5t31.5 50.5t25 47h134v-9z" />
    <glyph glyph-name="nacute" unicode="&#x144;" horiz-adv-x="532" 
d="M312 553q75 0 115.5 -48t40.5 -145v-360h-116v332q0 60 -16.5 90.5t-55.5 30.5q-55 0 -76.5 -44t-21.5 -141v-268h-116v543h91l14 -71h7q14 27 34 45t46 27t54 9zM435 757q-10 -15 -28 -34.5t-38.5 -41t-41.5 -41t-38 -34.5h-79v12q18 25 34.5 50.5t31.5 50.5t25 47h134
v-9z" />
    <glyph glyph-name="uni0145" unicode="&#x145;" horiz-adv-x="659" 
d="M585 0h-145l-257 539h-4q2 -32 4 -61.5t2.5 -57t1.5 -52.5v-368h-112v714h144l257 -530h3q-2 30 -3 59.5t-2 56.5t-2 51v363h113v-714zM400 -71q-7 -24 -18.5 -50.5t-24.5 -52t-28 -47.5h-70v12q5 18 11 45t11 55t6 48h113v-10z" />
    <glyph glyph-name="uni0146" unicode="&#x146;" horiz-adv-x="532" 
d="M312 553q75 0 115.5 -48t40.5 -145v-360h-116v332q0 60 -16.5 90.5t-55.5 30.5q-55 0 -76.5 -44t-21.5 -141v-268h-116v543h91l14 -71h7q14 27 34 45t46 27t54 9zM337 -71q-7 -24 -18.5 -50.5t-24.5 -52t-28 -47.5h-70v12q5 18 11 45t11 55t6 48h113v-10z" />
    <glyph glyph-name="Ncaron" unicode="&#x147;" horiz-adv-x="659" 
d="M585 0h-145l-257 539h-4q2 -32 4 -61.5t2.5 -57t1.5 -52.5v-368h-112v714h144l257 -530h3q-2 30 -3 59.5t-2 56.5t-2 51v363h113v-714zM272 777q-11 21 -29 48t-37.5 53.5t-36.5 46.5v12h72q20 -16 43 -38.5t45 -48.5q25 28 46 48t44 39h71v-12q-16 -19 -35.5 -45.5
t-37.5 -53.5t-30 -49h-115z" />
    <glyph glyph-name="ncaron" unicode="&#x148;" horiz-adv-x="532" 
d="M312 553q75 0 115.5 -48t40.5 -145v-360h-116v332q0 60 -16.5 90.5t-55.5 30.5q-55 0 -76.5 -44t-21.5 -141v-268h-116v543h91l14 -71h7q14 27 34 45t46 27t54 9zM215 606q-11 21 -29 48t-37.5 53.5t-36.5 46.5v12h72q20 -16 43 -38.5t45 -48.5q25 28 46 48t44 39h71v-12
q-16 -19 -35.5 -45.5t-37.5 -53.5t-30 -49h-115z" />
    <glyph glyph-name="napostrophe" unicode="&#x149;" horiz-adv-x="630" 
d="M410 553q75 0 115.5 -48t40.5 -145v-360h-116v332q0 60 -16.5 90.5t-55.5 30.5q-55 0 -76.5 -44t-21.5 -141v-268h-116v543h91l14 -71h7q14 27 34 45t46 27t54 9zM167 703q-9 -42 -20.5 -85t-25.5 -83t-30 -77h-90q7 29 14 62.5t13 68.5t10.5 67t6.5 58h115z" />
    <glyph glyph-name="Eng" unicode="&#x14a;" horiz-adv-x="659" 
d="M409 -204q-22 0 -41 2.5t-35 8.5v102q13 -4 29 -7t34 -3q25 0 42.5 10.5t26 33.5t8.5 59l-291 546h-3q2 -29 3.5 -60t2.5 -59.5t1 -52.5v-376h-111v714h144l256 -481h3q-1 30 -2.5 59.5t-2.5 57.5t-1 51v313h113v-701q0 -74 -20 -122t-59 -71.5t-97 -23.5z" />
    <glyph glyph-name="eng" unicode="&#x14b;" horiz-adv-x="532" 
d="M326 -240q-18 0 -35.5 3t-32.5 8v98q12 -4 23 -6.5t22 -2.5q23 0 36 18.5t13 60.5v395q0 58 -17.5 88t-54.5 30q-35 0 -56.5 -18t-31.5 -58t-10 -108v-268h-116v543h91l14 -71h6q15 26 35 44.5t45.5 27.5t54.5 9q53 0 87 -23t51.5 -67.5t17.5 -108.5v-421q0 -50 -15 -89
t-46 -61.5t-81 -22.5z" />
    <glyph glyph-name="Omacron" unicode="&#x14c;" horiz-adv-x="641" 
d="M591 358q0 -82 -16 -149.5t-49.5 -116.5t-84.5 -75.5t-120 -26.5q-70 0 -121.5 26.5t-84.5 76t-49 117t-16 149.5q0 118 30 199.5t90.5 124t150.5 42.5q93 0 152.5 -46t88.5 -128.5t29 -192.5zM175 358q0 -85 16 -143.5t48.5 -88.5t81.5 -30t81 29.5t48 88t16 144.5
q0 129 -35.5 195.5t-109.5 66.5q-49 0 -81.5 -30t-48.5 -88.5t-16 -143.5zM460 869v-85h-280v85h280z" />
    <glyph glyph-name="omacron" unicode="&#x14d;" horiz-adv-x="514" 
d="M473 273q0 -62 -13.5 -113.5t-40 -89.5t-67.5 -59t-96 -21q-52 0 -92 20.5t-67 58.5t-41.5 89.5t-14.5 114.5q0 86 24 149t72.5 97t120.5 34q66 0 114 -32.5t74.5 -95t26.5 -152.5zM160 272q0 -60 10 -101.5t32 -62.5t55 -21q35 0 56.5 21t31.5 62.5t10 101.5
q0 61 -10.5 101.5t-31.5 61t-56 20.5q-51 0 -74 -45.5t-23 -137.5zM397 698v-85h-280v85h280z" />
    <glyph glyph-name="Obreve" unicode="&#x14e;" horiz-adv-x="641" 
d="M591 358q0 -82 -16 -149.5t-49.5 -116.5t-84.5 -75.5t-120 -26.5q-70 0 -121.5 26.5t-84.5 76t-49 117t-16 149.5q0 118 30 199.5t90.5 124t150.5 42.5q93 0 152.5 -46t88.5 -128.5t29 -192.5zM175 358q0 -85 16 -143.5t48.5 -88.5t81.5 -30t81 29.5t48 88t16 144.5
q0 129 -35.5 195.5t-109.5 66.5q-49 0 -81.5 -30t-48.5 -88.5t-16 -143.5zM469 930q-1 -46 -20 -80.5t-52.5 -53t-77.5 -18.5q-67 0 -106 39t-41 113h70q2 -25 12 -40t27 -21.5t39 -6.5t39 6.5t28 21.5t13 40h69z" />
    <glyph glyph-name="obreve" unicode="&#x14f;" horiz-adv-x="514" 
d="M473 273q0 -62 -13.5 -113.5t-40 -89.5t-67.5 -59t-96 -21q-52 0 -92 20.5t-67 58.5t-41.5 89.5t-14.5 114.5q0 86 24 149t72.5 97t120.5 34q66 0 114 -32.5t74.5 -95t26.5 -152.5zM160 272q0 -60 10 -101.5t32 -62.5t55 -21q35 0 56.5 21t31.5 62.5t10 101.5
q0 61 -10.5 101.5t-31.5 61t-56 20.5q-51 0 -74 -45.5t-23 -137.5zM405 759q-1 -46 -20 -80.5t-52.5 -53t-77.5 -18.5q-67 0 -106 39t-41 113h70q2 -25 12 -40t27 -21.5t39 -6.5t39 6.5t28 21.5t13 40h69z" />
    <glyph glyph-name="Ohungarumlaut" unicode="&#x150;" horiz-adv-x="641" 
d="M591 358q0 -82 -16 -149.5t-49.5 -116.5t-84.5 -75.5t-120 -26.5q-70 0 -121.5 26.5t-84.5 76t-49 117t-16 149.5q0 118 30 199.5t90.5 124t150.5 42.5q93 0 152.5 -46t88.5 -128.5t29 -192.5zM175 358q0 -85 16 -143.5t48.5 -88.5t81.5 -30t81 29.5t48 88t16 144.5
q0 129 -35.5 195.5t-109.5 66.5q-49 0 -81.5 -30t-48.5 -88.5t-16 -143.5zM500 928q-8 -15 -23.5 -35t-35 -42t-39.5 -41t-36 -33h-60v12q15 25 31 53t29 53.5t20 41.5h114v-9zM334 928q-8 -16 -23 -35.5t-34 -40.5t-39.5 -40t-39.5 -35h-58v12q16 26 31.5 54t28.5 53t21 41
h113v-9z" />
    <glyph glyph-name="ohungarumlaut" unicode="&#x151;" horiz-adv-x="514" 
d="M473 273q0 -62 -13.5 -113.5t-40 -89.5t-67.5 -59t-96 -21q-52 0 -92 20.5t-67 58.5t-41.5 89.5t-14.5 114.5q0 86 24 149t72.5 97t120.5 34q66 0 114 -32.5t74.5 -95t26.5 -152.5zM160 272q0 -60 10 -101.5t32 -62.5t55 -21q35 0 56.5 21t31.5 62.5t10 101.5
q0 61 -10.5 101.5t-31.5 61t-56 20.5q-51 0 -74 -45.5t-23 -137.5zM437 757q-8 -15 -23.5 -35t-35 -42t-39.5 -41t-36 -33h-60v12q15 25 31 53t29 53.5t20 41.5h114v-9zM271 757q-8 -16 -23 -35.5t-34 -40.5t-39.5 -40t-39.5 -35h-58v12q16 26 31.5 54t28.5 53t21 41h113v-9
z" />
    <glyph glyph-name="OE" unicode="&#x152;" horiz-adv-x="766" 
d="M321 723q21 0 41 -2.5t36 -6.5h320v-103h-216v-188h202v-103h-202v-216h216v-104h-319q-16 -3 -36.5 -5.5t-41.5 -2.5q-93 0 -153 45.5t-89 128t-29 193.5q0 112 29.5 193.5t89.5 126t152 44.5zM326 618q-41 0 -70 -18t-46.5 -51.5t-26 -81.5t-8.5 -109q0 -81 15 -139
t48.5 -89t88.5 -32q16 0 31 2t25 6v501q-10 6 -25.5 8.5t-31.5 2.5z" />
    <glyph glyph-name="oe" unicode="&#x153;" horiz-adv-x="795" 
d="M560 552q64 0 107.5 -30.5t66 -85t22.5 -128.5v-66h-289q1 -80 31.5 -119.5t89.5 -39.5q39 0 72.5 9.5t70.5 30.5v-96q-34 -19 -70.5 -28t-82.5 -9q-55 0 -96.5 21.5t-69.5 63.5q-26 -42 -65 -63.5t-91 -21.5q-68 0 -116 34.5t-73.5 98t-25.5 150.5t24.5 150t72.5 96.5
t119 33.5q50 0 88.5 -21t64.5 -63q17 28 39 46.5t49.5 27.5t61.5 9zM256 455q-51 0 -73.5 -45.5t-22.5 -137.5q0 -61 10 -102t32 -62t55 -21q34 0 55 20.5t31 61.5t10 103t-10 102.5t-31.5 60.5t-55.5 20zM559 462q-39 0 -63 -33t-28 -103h178q0 41 -9.5 71.5t-28.5 47.5
t-49 17z" />
    <glyph glyph-name="Racute" unicode="&#x154;" horiz-adv-x="539" 
d="M242 714q82 0 135.5 -23t79.5 -68.5t26 -114.5q0 -47 -13.5 -84t-39 -63.5t-61.5 -44.5l164 -316h-134l-136 286h-68v-286h-120v714h167zM239 611h-44v-228h49q59 0 88 30t29 89q0 39 -13.5 63t-40 35t-68.5 11zM437 928q-10 -15 -28 -34.5t-38.5 -41t-41.5 -41
t-38 -34.5h-79v12q18 25 34.5 50.5t31.5 50.5t25 47h134v-9z" />
    <glyph glyph-name="racute" unicode="&#x155;" horiz-adv-x="363" 
d="M303 553q12 0 24.5 -1.5t24.5 -4.5l-12 -119q-10 4 -21.5 5.5t-23.5 1.5q-25 0 -45.5 -10.5t-36 -31t-23.5 -49t-8 -64.5v-280h-116v543h90l16 -92h6q13 28 31 51.5t42 37t52 13.5zM368 757q-10 -15 -28 -34.5t-38.5 -41t-41.5 -41t-38 -34.5h-79v12q18 25 34.5 50.5
t31.5 50.5t25 47h134v-9z" />
    <glyph glyph-name="uni0156" unicode="&#x156;" horiz-adv-x="539" 
d="M242 714q82 0 135.5 -23t79.5 -68.5t26 -114.5q0 -47 -13.5 -84t-39 -63.5t-61.5 -44.5l164 -316h-134l-136 286h-68v-286h-120v714h167zM239 611h-44v-228h49q59 0 88 30t29 89q0 39 -13.5 63t-40 35t-68.5 11zM355 -71q-7 -24 -18.5 -50.5t-24.5 -52t-28 -47.5h-70v12
q5 18 11 45t11 55t6 48h113v-10z" />
    <glyph glyph-name="uni0157" unicode="&#x157;" horiz-adv-x="363" 
d="M303 553q12 0 24.5 -1.5t24.5 -4.5l-12 -119q-10 4 -21.5 5.5t-23.5 1.5q-25 0 -45.5 -10.5t-36 -31t-23.5 -49t-8 -64.5v-280h-116v543h90l16 -92h6q13 28 31 51.5t42 37t52 13.5zM199 -71q-7 -24 -18.5 -50.5t-24.5 -52t-28 -47.5h-70v12q5 18 11 45t11 55t6 48h113
v-10z" />
    <glyph glyph-name="Rcaron" unicode="&#x158;" horiz-adv-x="539" 
d="M242 714q82 0 135.5 -23t79.5 -68.5t26 -114.5q0 -47 -13.5 -84t-39 -63.5t-61.5 -44.5l164 -316h-134l-136 286h-68v-286h-120v714h167zM239 611h-44v-228h49q59 0 88 30t29 89q0 39 -13.5 63t-40 35t-68.5 11zM217 777q-11 21 -29 48t-37.5 53.5t-36.5 46.5v12h72
q20 -16 43 -38.5t45 -48.5q25 28 46 48t44 39h71v-12q-16 -19 -35.5 -45.5t-37.5 -53.5t-30 -49h-115z" />
    <glyph glyph-name="rcaron" unicode="&#x159;" horiz-adv-x="363" 
d="M303 553q12 0 24.5 -1.5t24.5 -4.5l-12 -119q-10 4 -21.5 5.5t-23.5 1.5q-25 0 -45.5 -10.5t-36 -31t-23.5 -49t-8 -64.5v-280h-116v543h90l16 -92h6q13 28 31 51.5t42 37t52 13.5zM148 606q-11 21 -29 48t-37.5 53.5t-36.5 46.5v12h72q20 -16 43 -38.5t45 -48.5
q25 28 46 48t44 39h71v-12q-16 -19 -35.5 -45.5t-37.5 -53.5t-30 -49h-115z" />
    <glyph glyph-name="Sacute" unicode="&#x15a;" horiz-adv-x="465" 
d="M429 201q0 -62 -27 -110t-76 -74.5t-116 -26.5q-32 0 -62 4t-57 12t-53 21v120q40 -22 85 -35.5t86 -13.5q33 0 55 12.5t33 33.5t11 47q0 28 -11 48.5t-36 39t-69 40.5q-31 17 -58.5 35.5t-47 42.5t-31 56t-11.5 75q0 60 25.5 104t72.5 68.5t110 23.5q47 0 90 -11.5
t82 -31.5l-36 -104q-36 20 -69.5 29.5t-65.5 9.5q-28 0 -48 -10.5t-30.5 -29t-10.5 -43.5q0 -29 11 -49t36 -37.5t69 -40.5q49 -25 82 -53.5t50 -65t17 -86.5zM406 928q-10 -15 -28 -34.5t-38.5 -41t-41.5 -41t-38 -34.5h-79v12q18 25 34.5 50.5t31.5 50.5t25 47h134v-9z
" />
    <glyph glyph-name="sacute" unicode="&#x15b;" horiz-adv-x="400" 
d="M367 155q0 -53 -21.5 -90t-62.5 -56t-100 -19q-44 0 -80 8t-67 23v109q29 -18 67.5 -30.5t74.5 -12.5q37 0 55.5 15.5t18.5 44.5q0 17 -7 30t-27.5 27.5t-59.5 32.5q-39 21 -66.5 43t-42 52t-14.5 72q0 70 48 109.5t128 39.5q42 0 78.5 -10t72.5 -30l-35 -89
q-27 16 -55.5 26t-58.5 10q-31 0 -48 -14t-17 -38q0 -16 7.5 -28.5t28 -25.5t58.5 -33t66 -42t43.5 -51.5t15.5 -72.5zM368 757q-10 -15 -28 -34.5t-38.5 -41t-41.5 -41t-38 -34.5h-79v12q18 25 34.5 50.5t31.5 50.5t25 47h134v-9z" />
    <glyph glyph-name="Scircumflex" unicode="&#x15c;" horiz-adv-x="465" 
d="M429 201q0 -62 -27 -110t-76 -74.5t-116 -26.5q-32 0 -62 4t-57 12t-53 21v120q40 -22 85 -35.5t86 -13.5q33 0 55 12.5t33 33.5t11 47q0 28 -11 48.5t-36 39t-69 40.5q-31 17 -58.5 35.5t-47 42.5t-31 56t-11.5 75q0 60 25.5 104t72.5 68.5t110 23.5q47 0 90 -11.5
t82 -31.5l-36 -104q-36 20 -69.5 29.5t-65.5 9.5q-28 0 -48 -10.5t-30.5 -29t-10.5 -43.5q0 -29 11 -49t36 -37.5t69 -40.5q49 -25 82 -53.5t50 -65t17 -86.5zM301 937q12 -22 29 -48t36.5 -52t37.5 -48v-12h-71q-21 17 -44 39t-46 47q-24 -25 -46.5 -48t-41.5 -38h-72v12
q17 21 36.5 47.5t37.5 53.5t29 47h115z" />
    <glyph glyph-name="scircumflex" unicode="&#x15d;" horiz-adv-x="400" 
d="M367 155q0 -53 -21.5 -90t-62.5 -56t-100 -19q-44 0 -80 8t-67 23v109q29 -18 67.5 -30.5t74.5 -12.5q37 0 55.5 15.5t18.5 44.5q0 17 -7 30t-27.5 27.5t-59.5 32.5q-39 21 -66.5 43t-42 52t-14.5 72q0 70 48 109.5t128 39.5q42 0 78.5 -10t72.5 -30l-35 -89
q-27 16 -55.5 26t-58.5 10q-31 0 -48 -14t-17 -38q0 -16 7.5 -28.5t28 -25.5t58.5 -33t66 -42t43.5 -51.5t15.5 -72.5zM263 766q12 -22 29 -48t36.5 -52t37.5 -48v-12h-71q-21 17 -44 39t-46 47q-24 -25 -46.5 -48t-41.5 -38h-72v12q17 21 36.5 47.5t37.5 53.5t29 47h115z
" />
    <glyph glyph-name="Scedilla" unicode="&#x15e;" horiz-adv-x="465" 
d="M429 201q0 -62 -27 -110t-76 -74.5t-116 -26.5q-32 0 -62 4t-57 12t-53 21v120q40 -22 85 -35.5t86 -13.5q33 0 55 12.5t33 33.5t11 47q0 28 -11 48.5t-36 39t-69 40.5q-31 17 -58.5 35.5t-47 42.5t-31 56t-11.5 75q0 60 25.5 104t72.5 68.5t110 23.5q47 0 90 -11.5
t82 -31.5l-36 -104q-36 20 -69.5 29.5t-65.5 9.5q-28 0 -48 -10.5t-30.5 -29t-10.5 -43.5q0 -29 11 -49t36 -37.5t69 -40.5q49 -25 82 -53.5t50 -65t17 -86.5zM318 -131q0 -52 -32.5 -80.5t-97.5 -28.5q-20 0 -36.5 2t-29.5 6v68q12 -3 26 -5t26 -2q25 0 38.5 10t13.5 30
q0 21 -19.5 34t-56.5 17l36 80h66l-19 -42q26 -5 45 -17t29.5 -30t10.5 -42z" />
    <glyph glyph-name="scedilla" unicode="&#x15f;" horiz-adv-x="400" 
d="M367 155q0 -53 -21.5 -90t-62.5 -56t-100 -19q-44 0 -80 8t-67 23v109q29 -18 67.5 -30.5t74.5 -12.5q37 0 55.5 15.5t18.5 44.5q0 17 -7 30t-27.5 27.5t-59.5 32.5q-39 21 -66.5 43t-42 52t-14.5 72q0 70 48 109.5t128 39.5q42 0 78.5 -10t72.5 -30l-35 -89
q-27 16 -55.5 26t-58.5 10q-31 0 -48 -14t-17 -38q0 -16 7.5 -28.5t28 -25.5t58.5 -33t66 -42t43.5 -51.5t15.5 -72.5zM289 -131q0 -52 -32.5 -80.5t-97.5 -28.5q-20 0 -36.5 2t-29.5 6v68q12 -3 26 -5t26 -2q25 0 38.5 10t13.5 30q0 21 -19.5 34t-56.5 17l36 80h66l-19 -42
q26 -5 45 -17t29.5 -30t10.5 -42z" />
    <glyph glyph-name="Scaron" unicode="&#x160;" horiz-adv-x="465" 
d="M429 201q0 -62 -27 -110t-76 -74.5t-116 -26.5q-32 0 -62 4t-57 12t-53 21v120q40 -22 85 -35.5t86 -13.5q33 0 55 12.5t33 33.5t11 47q0 28 -11 48.5t-36 39t-69 40.5q-31 17 -58.5 35.5t-47 42.5t-31 56t-11.5 75q0 60 25.5 104t72.5 68.5t110 23.5q47 0 90 -11.5
t82 -31.5l-36 -104q-36 20 -69.5 29.5t-65.5 9.5q-28 0 -48 -10.5t-30.5 -29t-10.5 -43.5q0 -29 11 -49t36 -37.5t69 -40.5q49 -25 82 -53.5t50 -65t17 -86.5zM186 777q-11 21 -29 48t-37.5 53.5t-36.5 46.5v12h72q20 -16 43 -38.5t45 -48.5q25 28 46 48t44 39h71v-12
q-16 -19 -35.5 -45.5t-37.5 -53.5t-30 -49h-115z" />
    <glyph glyph-name="scaron" unicode="&#x161;" horiz-adv-x="400" 
d="M367 155q0 -53 -21.5 -90t-62.5 -56t-100 -19q-44 0 -80 8t-67 23v109q29 -18 67.5 -30.5t74.5 -12.5q37 0 55.5 15.5t18.5 44.5q0 17 -7 30t-27.5 27.5t-59.5 32.5q-39 21 -66.5 43t-42 52t-14.5 72q0 70 48 109.5t128 39.5q42 0 78.5 -10t72.5 -30l-35 -89
q-27 16 -55.5 26t-58.5 10q-31 0 -48 -14t-17 -38q0 -16 7.5 -28.5t28 -25.5t58.5 -33t66 -42t43.5 -51.5t15.5 -72.5zM148 606q-11 21 -29 48t-37.5 53.5t-36.5 46.5v12h72q20 -16 43 -38.5t45 -48.5q25 28 46 48t44 39h71v-12q-16 -19 -35.5 -45.5t-37.5 -53.5t-30 -49
h-115z" />
    <glyph glyph-name="uni021A" unicode="&#x21a;" horiz-adv-x="459" 
d="M289 0h-119v610h-156v104h430v-104h-155v-610zM301 -71q-7 -24 -18.5 -50.5t-24.5 -52t-28 -47.5h-70v12q5 18 11 45t11 55t6 48h113v-10z" />
    <glyph glyph-name="uni021B" unicode="&#x21b;" horiz-adv-x="329" 
d="M244 89q16 0 32.5 4t32.5 10v-91q-20 -10 -45.5 -16t-54.5 -6q-44 0 -74 17t-45.5 53.5t-15.5 95.5v293h-59v59l67 34l31 119h77v-118h112v-94h-112v-288q0 -36 13 -54t41 -18zM264 -71q-7 -24 -18.5 -50.5t-24.5 -52t-28 -47.5h-70v12q5 18 11 45t11 55t6 48h113v-10z
" />
    <glyph glyph-name="Tcaron" unicode="&#x164;" horiz-adv-x="459" 
d="M289 0h-119v610h-156v104h430v-104h-155v-610zM172 777q-11 21 -29 48t-37.5 53.5t-36.5 46.5v12h72q20 -16 43 -38.5t45 -48.5q25 28 46 48t44 39h71v-12q-16 -19 -35.5 -45.5t-37.5 -53.5t-30 -49h-115z" />
    <glyph glyph-name="tcaron" unicode="&#x165;" horiz-adv-x="329" 
d="M451 750q-6 -22 -16.5 -49.5t-23.5 -53.5t-27 -47h-70v12q3 12 6.5 31t7.5 40.5t6.5 42t3.5 34.5h113v-10zM244 89q16 0 32.5 4t32.5 10v-91q-20 -10 -45.5 -16t-54.5 -6q-44 0 -74 17t-45.5 53.5t-15.5 95.5v293h-59v59l67 34l31 119h77v-118h112v-94h-112v-288
q0 -36 13 -54t41 -18z" />
    <glyph glyph-name="Tbar" unicode="&#x166;" horiz-adv-x="459" 
d="M169 0v308h-105v94h105v207h-155v105h430v-105h-155v-207h105v-94h-105v-308h-120z" />
    <glyph glyph-name="tbar" unicode="&#x167;" horiz-adv-x="329" 
d="M20 254v83h274v-83h-274zM244 89q16 0 32.5 4t32.5 10v-91q-20 -10 -45.5 -16t-54.5 -6q-44 0 -74 17t-45.5 53.5t-15.5 95.5v293h-59v59l67 34l31 119h77v-118h112v-94h-112v-288q0 -36 13 -54t41 -18z" />
    <glyph glyph-name="Utilde" unicode="&#x168;" horiz-adv-x="607" 
d="M537 237q0 -79 -26.5 -134.5t-78.5 -84t-130 -28.5q-113 0 -172.5 63t-59.5 183v478h120v-472q0 -77 29 -111.5t85 -34.5q39 0 63.5 15t37 48t12.5 84v471h120v-477zM135 776q2 27 8 52t17.5 45t29 31.5t42.5 11.5q20 0 38 -8t35.5 -19t33.5 -18.5t32 -7.5t24.5 14
t13.5 40h64q-3 -68 -30 -104t-67 -36q-19 0 -38 8t-37 19t-33.5 19t-29.5 8q-13 0 -24 -14t-15 -41h-64z" />
    <glyph glyph-name="utilde" unicode="&#x169;" horiz-adv-x="532" 
d="M466 543v-543h-91l-14 71h-7q-13 -27 -33.5 -45t-46 -27t-54.5 -9q-52 0 -87 23t-52 67.5t-17 108.5v354h116v-326q0 -63 16.5 -95t53.5 -32q39 0 60.5 20.5t30.5 59.5t9 97v276h116zM98 605q2 27 8 52t17.5 45t29 31.5t42.5 11.5q20 0 38 -8t35.5 -19t33.5 -18.5
t32 -7.5t24.5 14t13.5 40h64q-3 -68 -30 -104t-67 -36q-19 0 -38 8t-37 19t-33.5 19t-29.5 8q-13 0 -24 -14t-15 -41h-64z" />
    <glyph glyph-name="Umacron" unicode="&#x16a;" horiz-adv-x="607" 
d="M537 237q0 -79 -26.5 -134.5t-78.5 -84t-130 -28.5q-113 0 -172.5 63t-59.5 183v478h120v-472q0 -77 29 -111.5t85 -34.5q39 0 63.5 15t37 48t12.5 84v471h120v-477zM443 869v-85h-280v85h280z" />
    <glyph glyph-name="umacron" unicode="&#x16b;" horiz-adv-x="532" 
d="M466 543v-543h-91l-14 71h-7q-13 -27 -33.5 -45t-46 -27t-54.5 -9q-52 0 -87 23t-52 67.5t-17 108.5v354h116v-326q0 -63 16.5 -95t53.5 -32q39 0 60.5 20.5t30.5 59.5t9 97v276h116zM406 698v-85h-280v85h280z" />
    <glyph glyph-name="Ubreve" unicode="&#x16c;" horiz-adv-x="607" 
d="M537 237q0 -79 -26.5 -134.5t-78.5 -84t-130 -28.5q-113 0 -172.5 63t-59.5 183v478h120v-472q0 -77 29 -111.5t85 -34.5q39 0 63.5 15t37 48t12.5 84v471h120v-477zM452 930q-1 -46 -20 -80.5t-52.5 -53t-77.5 -18.5q-67 0 -106 39t-41 113h70q2 -25 12 -40t27 -21.5
t39 -6.5t39 6.5t28 21.5t13 40h69z" />
    <glyph glyph-name="ubreve" unicode="&#x16d;" horiz-adv-x="532" 
d="M466 543v-543h-91l-14 71h-7q-13 -27 -33.5 -45t-46 -27t-54.5 -9q-52 0 -87 23t-52 67.5t-17 108.5v354h116v-326q0 -63 16.5 -95t53.5 -32q39 0 60.5 20.5t30.5 59.5t9 97v276h116zM414 759q-1 -46 -20 -80.5t-52.5 -53t-77.5 -18.5q-67 0 -106 39t-41 113h70
q2 -25 12 -40t27 -21.5t39 -6.5t39 6.5t28 21.5t13 40h69z" />
    <glyph glyph-name="Uring" unicode="&#x16e;" horiz-adv-x="607" 
d="M537 237q0 -79 -26.5 -134.5t-78.5 -84t-130 -28.5q-113 0 -172.5 63t-59.5 183v478h120v-472q0 -77 29 -111.5t85 -34.5q39 0 63.5 15t37 48t12.5 84v471h120v-477zM303 778q-51 0 -82 30t-31 79q0 51 31 81t82 30q50 0 82.5 -30t32.5 -79q0 -50 -32 -80.5t-83 -30.5z
M304 840q21 0 35 13t14 35t-13.5 35.5t-35.5 13.5q-21 0 -35 -13.5t-14 -35.5t12.5 -35t36.5 -13z" />
    <glyph glyph-name="uring" unicode="&#x16f;" horiz-adv-x="532" 
d="M466 543v-543h-91l-14 71h-7q-13 -27 -33.5 -45t-46 -27t-54.5 -9q-52 0 -87 23t-52 67.5t-17 108.5v354h116v-326q0 -63 16.5 -95t53.5 -32q39 0 60.5 20.5t30.5 59.5t9 97v276h116zM266 607q-51 0 -82 30t-31 79q0 51 31 81t82 30q50 0 82.5 -30t32.5 -79
q0 -50 -32 -80.5t-83 -30.5zM267 669q21 0 35 13t14 35t-13.5 35.5t-35.5 13.5q-21 0 -35 -13.5t-14 -35.5t12.5 -35t36.5 -13z" />
    <glyph glyph-name="Uhungarumlaut" unicode="&#x170;" horiz-adv-x="607" 
d="M537 237q0 -79 -26.5 -134.5t-78.5 -84t-130 -28.5q-113 0 -172.5 63t-59.5 183v478h120v-472q0 -77 29 -111.5t85 -34.5q39 0 63.5 15t37 48t12.5 84v471h120v-477zM483 928q-8 -15 -23.5 -35t-35 -42t-39.5 -41t-36 -33h-60v12q15 25 31 53t29 53.5t20 41.5h114v-9z
M317 928q-8 -16 -23 -35.5t-34 -40.5t-39.5 -40t-39.5 -35h-58v12q16 26 31.5 54t28.5 53t21 41h113v-9z" />
    <glyph glyph-name="uhungarumlaut" unicode="&#x171;" horiz-adv-x="532" 
d="M466 543v-543h-91l-14 71h-7q-13 -27 -33.5 -45t-46 -27t-54.5 -9q-52 0 -87 23t-52 67.5t-17 108.5v354h116v-326q0 -63 16.5 -95t53.5 -32q39 0 60.5 20.5t30.5 59.5t9 97v276h116zM446 757q-8 -15 -23.5 -35t-35 -42t-39.5 -41t-36 -33h-60v12q15 25 31 53t29 53.5
t20 41.5h114v-9zM280 757q-8 -16 -23 -35.5t-34 -40.5t-39.5 -40t-39.5 -35h-58v12q16 26 31.5 54t28.5 53t21 41h113v-9z" />
    <glyph glyph-name="Uogonek" unicode="&#x172;" horiz-adv-x="607" 
d="M372 -108q0 -22 11.5 -33.5t29.5 -11.5q12 0 24 3t19 5v-76q-14 -4 -31 -7t-35 -3q-54 0 -80.5 27.5t-26.5 77.5q0 27 11 51.5t30 47t43 40.5l101 33q-36 -36 -57 -63.5t-30 -49t-9 -41.5zM537 237q0 -79 -26.5 -134.5t-78.5 -84t-130 -28.5q-113 0 -172.5 63t-59.5 183
v478h120v-472q0 -77 29 -111.5t85 -34.5q39 0 63.5 15t37 48t12.5 84v471h120v-477z" />
    <glyph glyph-name="uogonek" unicode="&#x173;" horiz-adv-x="532" 
d="M466 543v-543h-91l-14 71h-7q-13 -27 -33.5 -45t-46 -27t-54.5 -9q-52 0 -87 23t-52 67.5t-17 108.5v354h116v-326q0 -63 16.5 -95t53.5 -32q39 0 60.5 20.5t30.5 59.5t9 97v276h116zM386 -109q0 -21 11.5 -33t31.5 -12q13 0 22.5 2.5t16.5 5.5v-74q-11 -4 -26 -7.5
t-35 -3.5q-54 0 -82 27t-28 75q0 25 11 50.5t31 49.5t48 44l60 -15q-33 -33 -47 -58t-14 -51z" />
    <glyph glyph-name="Wcircumflex" unicode="&#x174;" horiz-adv-x="814" 
d="M810 714l-155 -714h-137l-87 391q-2 15 -5.5 34t-7 40t-7 43.5t-5.5 42.5q-2 -15 -4.5 -35t-6 -42t-7 -43t-7.5 -39l-86 -392h-136l-156 714h119l81 -395q4 -22 8.5 -47t8.5 -49.5t7.5 -47.5t4.5 -42q3 22 7 46.5l8 49t8.5 47t8.5 40.5l89 398h108l87 -398q4 -18 8 -40.5
t8.5 -47t8 -48.5t6.5 -47q3 29 7.5 61t10.5 64.5t11 60.5l82 395h120zM464 937q12 -22 29 -48t36.5 -52t37.5 -48v-12h-71q-21 17 -44 39t-46 47q-24 -25 -46.5 -48t-41.5 -38h-72v12q17 21 36.5 47.5t37.5 53.5t29 47h115z" />
    <glyph glyph-name="wcircumflex" unicode="&#x175;" horiz-adv-x="707" 
d="M382 276q-3 16 -7 37l-8 42t-7 41t-5 34h-3q-3 -16 -6.5 -36t-7 -41.5t-7.5 -41t-8 -35.5l-59 -276h-130l-126 543h116l52 -240q5 -27 10 -58t9.5 -61.5t7.5 -57.5h3q2 17 5 37.5t6 42.5t7 44t9 43l56 250h130l55 -252q5 -22 9.5 -50.5t9 -58t7.5 -56.5h4q2 19 5 44.5
t7.5 53.5t10.5 55l58 264h114l-129 -543h-132zM411 766q12 -22 29 -48t36.5 -52t37.5 -48v-12h-71q-21 17 -44 39t-46 47q-24 -25 -46.5 -48t-41.5 -38h-72v12q17 21 36.5 47.5t37.5 53.5t29 47h115z" />
    <glyph glyph-name="Ycircumflex" unicode="&#x176;" horiz-adv-x="491" 
d="M246 404l119 310h126l-186 -437v-277h-119v273l-186 441h127zM303 937q12 -22 29 -48t36.5 -52t37.5 -48v-12h-71q-21 17 -44 39t-46 47q-24 -25 -46.5 -48t-41.5 -38h-72v12q17 21 36.5 47.5t37.5 53.5t29 47h115z" />
    <glyph glyph-name="ycircumflex" unicode="&#x177;" horiz-adv-x="455" 
d="M2 543h123l80 -288q5 -18 9 -37l8 -38t5 -37h4q3 24 9.5 52t14.5 60l77 288h121l-182 -609q-18 -60 -43 -98.5t-59 -57t-79 -18.5q-17 0 -32.5 2t-30.5 6v99q11 -3 22.5 -5t22.5 -2q24 0 39.5 10t27 31.5t22.5 57.5l12 45zM285 766q12 -22 29 -48t36.5 -52t37.5 -48v-12
h-71q-21 17 -44 39t-46 47q-24 -25 -46.5 -48t-41.5 -38h-72v12q17 21 36.5 47.5t37.5 53.5t29 47h115z" />
    <glyph glyph-name="Ydieresis" unicode="&#x178;" horiz-adv-x="491" 
d="M246 404l119 310h126l-186 -437v-277h-119v273l-186 441h127zM99 849q0 32 16 46.5t40 14.5t40 -15t16 -45t-16 -45.5t-40 -15.5t-40 15.5t-16 44.5zM279 849q0 32 16 46.5t40 14.5q25 0 40.5 -15t15.5 -45t-16 -45.5t-40 -15.5t-40 15.5t-16 44.5z" />
    <glyph glyph-name="Zacute" unicode="&#x179;" horiz-adv-x="455" 
d="M431 0h-405v86l264 524h-258v104h392v-86l-265 -524h272v-104zM392 928q-10 -15 -28 -34.5t-38.5 -41t-41.5 -41t-38 -34.5h-79v12q18 25 34.5 50.5t31.5 50.5t25 47h134v-9z" />
    <glyph glyph-name="zacute" unicode="&#x17a;" horiz-adv-x="382" 
d="M358 0h-333v73l196 375h-184v95h313v-80l-191 -368h199v-95zM358 757q-10 -15 -28 -34.5t-38.5 -41t-41.5 -41t-38 -34.5h-79v12q18 25 34.5 50.5t31.5 50.5t25 47h134v-9z" />
    <glyph glyph-name="Zdotaccent" unicode="&#x17b;" horiz-adv-x="455" 
d="M431 0h-405v86l264 524h-258v104h392v-86l-265 -524h272v-104zM235 924q30 0 47 -17t17 -51t-17.5 -50.5t-46.5 -16.5q-30 0 -47.5 16.5t-17.5 50.5q0 35 17 51.5t48 16.5z" />
    <glyph glyph-name="zdotaccent" unicode="&#x17c;" horiz-adv-x="382" 
d="M358 0h-333v73l196 375h-184v95h313v-80l-191 -368h199v-95zM201 753q30 0 47 -17t17 -51t-17.5 -50.5t-46.5 -16.5q-30 0 -47.5 16.5t-17.5 50.5q0 35 17 51.5t48 16.5z" />
    <glyph glyph-name="Zcaron" unicode="&#x17d;" horiz-adv-x="455" 
d="M431 0h-405v86l264 524h-258v104h392v-86l-265 -524h272v-104zM172 777q-11 21 -29 48t-37.5 53.5t-36.5 46.5v12h72q20 -16 43 -38.5t45 -48.5q25 28 46 48t44 39h71v-12q-16 -19 -35.5 -45.5t-37.5 -53.5t-30 -49h-115z" />
    <glyph glyph-name="zcaron" unicode="&#x17e;" horiz-adv-x="382" 
d="M358 0h-333v73l196 375h-184v95h313v-80l-191 -368h199v-95zM138 606q-11 21 -29 48t-37.5 53.5t-36.5 46.5v12h72q20 -16 43 -38.5t45 -48.5q25 28 46 48t44 39h71v-12q-16 -19 -35.5 -45.5t-37.5 -53.5t-30 -49h-115z" />
    <glyph glyph-name="longs" unicode="&#x17f;" horiz-adv-x="291" 
d="M240 668q-28 0 -39.5 -22t-12.5 -71v-575h-116v571q0 68 16 110.5t49.5 63t84.5 20.5q31 0 55 -5t49 -15l-26 -88q-14 5 -29 8t-31 3z" />
    <glyph glyph-name="fhook" unicode="&#x192;" horiz-adv-x="412" 
d="M149 -242q-76 0 -115.5 40t-39.5 107q0 18 2.5 33t6.5 25l94 -24q-1 -7 -2.5 -14t-1.5 -16q0 -28 13.5 -42t33.5 -14q22 0 34 17.5t12 50.5v528h-70v60l70 35v27q0 67 16 110t49 63.5t85 20.5q30 0 55 -5t50 -15l-28 -88q-14 5 -28.5 8t-30.5 3q-28 0 -40 -22t-12 -72
v-31h100v-94h-100v-522q0 -53 -19 -91t-53.5 -58t-80.5 -20z" />
    <glyph glyph-name="Aringacute" unicode="&#x1fa;" horiz-adv-x="549" 
d="M192 640q-14 11 -23 28t-9 40q0 50 31 80.5t82 30.5q50 0 82.5 -30.5t32.5 -79.5q0 -23 -9 -40.5t-24 -28.5l194 -640h-128l-46 170h-200l-46 -170h-129zM198 275h153l-50 187q-5 19 -10.5 42t-10 44.5t-6.5 34.5q-2 -10 -5 -24.5t-6.5 -30t-6.5 -30t-6 -25.5zM274 660
q22 0 35.5 13.5t13.5 35.5t-13.5 35t-35.5 13t-36 -13t-14 -35t13 -35.5t37 -13.5zM214 856q24 27 38.5 45.5t24 32t17.5 26.5h138v-7q-9 -10 -25 -24t-35.5 -29.5t-38.5 -29.5t-33 -23h-86v9z" />
    <glyph glyph-name="aringacute" unicode="&#x1fb;" horiz-adv-x="488" 
d="M253 553q86 0 129 -48t43 -142v-363h-85l-19 74h-3q-18 -28 -38.5 -47t-46.5 -28t-60 -9q-45 0 -76 22t-46.5 60t-15.5 85q0 84 51 127.5t149 47.5l74 3v26q0 52 -18 76t-55 24q-28 0 -58.5 -9.5t-63.5 -27.5l-35 84q37 22 81.5 33.5t92.5 11.5zM261 256
q-57 -3 -82.5 -27t-25.5 -69q0 -41 16.5 -60t46.5 -19q41 0 67 33.5t26 93.5v50zM250 749q-21 0 -35.5 -13t-14.5 -35t13 -35.5t37 -13.5q21 0 35 13.5t14 35.5t-13.5 35t-35.5 13zM249 811q33 0 59.5 -13.5t41.5 -38t15 -57.5q0 -50 -32.5 -80.5t-83.5 -30.5t-82 30t-31 80
q0 49 31 79.5t82 30.5zM410 953q-12 -15 -37.5 -37.5t-52.5 -43.5t-45 -33h-86v9q21 27 35.5 45.5t25 34.5t19.5 31h141v-6z" />
    <glyph glyph-name="AEacute" unicode="&#x1fc;" horiz-adv-x="742" 
d="M694 0h-336v191h-168l-64 -191h-128l250 714h446v-104h-217v-187h202v-103h-202v-216h217v-104zM224 296h134v313h-32zM549 928q-10 -15 -28 -34.5t-38.5 -41t-41.5 -41t-38 -34.5h-79v12q18 25 34.5 50.5t31.5 50.5t25 47h134v-9z" />
    <glyph glyph-name="aeacute" unicode="&#x1fd;" horiz-adv-x="743" 
d="M512 552q62 0 105 -30.5t65 -85t22 -128.5v-66h-285q1 -80 30.5 -119.5t87.5 -39.5q38 0 72.5 9.5t69.5 30.5v-96q-33 -19 -69.5 -28t-82.5 -9q-38 0 -72 11.5t-61 34t-45 56.5q-21 -35 -45.5 -57.5t-54.5 -33.5t-69 -11q-47 0 -79.5 22t-49 60t-16.5 85q0 56 22.5 94
t67 58t107.5 23l74 3v30q0 49 -18.5 72.5t-54.5 23.5q-28 0 -58 -9.5t-63 -27.5l-34 84q35 21 77 33t87 12q48 0 80.5 -16.5t51.5 -49.5q24 33 58 49t80 16zM258 256q-55 -3 -80 -27t-25 -69q0 -41 16 -60t45 -19q27 0 47.5 15t32.5 43.5t12 68.5v50zM511 462q-40 0 -64 -33
t-27 -103h175q0 41 -9.5 71.5t-28 47.5t-46.5 17zM541 757q-10 -15 -28 -34.5t-38.5 -41t-41.5 -41t-38 -34.5h-79v12q18 25 34.5 50.5t31.5 50.5t25 47h134v-9z" />
    <glyph glyph-name="Oslashacute" unicode="&#x1fe;" horiz-adv-x="641" 
d="M591 358q0 -88 -17 -156t-51 -115.5t-84.5 -72t-117.5 -24.5q-40 0 -74.5 9.5t-62.5 28.5l-40 -75l-66 35l49 89q-41 52 -59 122.5t-18 159.5q0 118 30 199.5t90.5 124t150.5 42.5q41 0 76.5 -10.5t63.5 -31.5l39 70l64 -35l-46 -85q37 -47 55 -116.5t18 -158.5zM468 358
q0 89 -20 149l-212 -381q17 -16 38 -24.5t47 -8.5q50 0 82.5 30t48.5 89.5t16 145.5zM173 358q0 -48 5.5 -88t17.5 -70l213 383q-17 20 -38.5 29.5t-48.5 9.5q-51 0 -84 -30.5t-49 -89t-16 -144.5zM485 928q-10 -15 -28 -34.5t-38.5 -41t-41.5 -41t-38 -34.5h-79v12
q18 25 34.5 50.5t31.5 50.5t25 47h134v-9z" />
    <glyph glyph-name="oslashacute" unicode="&#x1ff;" horiz-adv-x="514" 
d="M473 273q0 -90 -26 -153.5t-74.5 -96.5t-116.5 -33q-28 0 -52.5 6.5t-45.5 18.5l-37 -70l-62 34l44 82q-32 40 -47 92.5t-15 119.5q0 135 57 207.5t160 72.5q29 0 54 -7t47 -22l32 60l62 -34l-38 -73q28 -36 43 -88t15 -116zM156 272q0 -31 3 -55.5t8 -44.5l147 265
q-11 11 -25.5 16.5t-31.5 5.5q-53 0 -77 -47t-24 -140zM358 273q0 27 -2.5 49.5t-6.5 41.5l-145 -262q10 -9 23.5 -13.5t29.5 -4.5q35 0 57.5 21t33 63.5t10.5 104.5zM421 757q-10 -15 -28 -34.5t-38.5 -41t-41.5 -41t-38 -34.5h-79v12q18 25 34.5 50.5t31.5 50.5t25 47h134
v-9z" />
    <glyph glyph-name="uni0218" unicode="&#x218;" horiz-adv-x="465" 
d="M429 201q0 -62 -27 -110t-76 -74.5t-116 -26.5q-32 0 -62 4t-57 12t-53 21v120q40 -22 85 -35.5t86 -13.5q33 0 55 12.5t33 33.5t11 47q0 28 -11 48.5t-36 39t-69 40.5q-31 17 -58.5 35.5t-47 42.5t-31 56t-11.5 75q0 60 25.5 104t72.5 68.5t110 23.5q47 0 90 -11.5
t82 -31.5l-36 -104q-36 20 -69.5 29.5t-65.5 9.5q-28 0 -48 -10.5t-30.5 -29t-10.5 -43.5q0 -29 11 -49t36 -37.5t69 -40.5q49 -25 82 -53.5t50 -65t17 -86.5zM291 -71q-7 -24 -18.5 -50.5t-24.5 -52t-28 -47.5h-70v12q5 18 11 45t11 55t6 48h113v-10z" />
    <glyph glyph-name="uni0219" unicode="&#x219;" horiz-adv-x="400" 
d="M367 155q0 -53 -21.5 -90t-62.5 -56t-100 -19q-44 0 -80 8t-67 23v109q29 -18 67.5 -30.5t74.5 -12.5q37 0 55.5 15.5t18.5 44.5q0 17 -7 30t-27.5 27.5t-59.5 32.5q-39 21 -66.5 43t-42 52t-14.5 72q0 70 48 109.5t128 39.5q42 0 78.5 -10t72.5 -30l-35 -89
q-27 16 -55.5 26t-58.5 10q-31 0 -48 -14t-17 -38q0 -16 7.5 -28.5t28 -25.5t58.5 -33t66 -42t43.5 -51.5t15.5 -72.5zM262 -71q-7 -24 -18.5 -50.5t-24.5 -52t-28 -47.5h-70v12q5 18 11 45t11 55t6 48h113v-10z" />
    <glyph glyph-name="circumflex" unicode="&#x2c6;" horiz-adv-x="401" 
d="M258 766q12 -22 29 -48t36.5 -52t37.5 -48v-12h-71q-21 17 -44 39t-46 47q-24 -25 -46.5 -48t-41.5 -38h-72v12q17 21 36.5 47.5t37.5 53.5t29 47h115z" />
    <glyph glyph-name="caron" unicode="&#x2c7;" horiz-adv-x="401" 
d="M143 606q-11 21 -29 48t-37.5 53.5t-36.5 46.5v12h72q20 -16 43 -38.5t45 -48.5q25 28 46 48t44 39h71v-12q-16 -19 -35.5 -45.5t-37.5 -53.5t-30 -49h-115z" />
    <glyph glyph-name="macronmod" unicode="&#x2c9;" horiz-adv-x="360" 
d="M320 698v-85h-280v85h280z" />
    <glyph glyph-name="breve" unicode="&#x2d8;" horiz-adv-x="377" 
d="M337 759q-1 -46 -20 -80.5t-52.5 -53t-77.5 -18.5q-67 0 -106 39t-41 113h70q2 -25 12 -40t27 -21.5t39 -6.5t39 6.5t28 21.5t13 40h69z" />
    <glyph glyph-name="dotaccent" unicode="&#x2d9;" horiz-adv-x="209" 
d="M105 753q30 0 47 -17t17 -51t-17.5 -50.5t-46.5 -16.5q-30 0 -47.5 16.5t-17.5 50.5q0 35 17 51.5t48 16.5z" />
    <glyph glyph-name="ring" unicode="&#x2da;" horiz-adv-x="308" 
d="M153 607q-51 0 -82 30t-31 79q0 51 31 81t82 30q50 0 82.5 -30t32.5 -79q0 -50 -32 -80.5t-83 -30.5zM154 669q21 0 35 13t14 35t-13.5 35.5t-35.5 13.5q-21 0 -35 -13.5t-14 -35.5t12.5 -35t36.5 -13z" />
    <glyph glyph-name="ogonek" unicode="&#x2db;" horiz-adv-x="251" 
d="M129 -109q0 -21 11.5 -33t31.5 -12q13 0 22.5 2.5t16.5 5.5v-74q-11 -4 -26 -7.5t-35 -3.5q-54 0 -82 27t-28 75q0 25 11 50.5t31 49.5t48 44l60 -15q-33 -33 -47 -58t-14 -51z" />
    <glyph glyph-name="tilde" unicode="&#x2dc;" horiz-adv-x="418" 
d="M40 605q2 27 8 52t17.5 45t29 31.5t42.5 11.5q20 0 38 -8t35.5 -19t33.5 -18.5t32 -7.5t24.5 14t13.5 40h64q-3 -68 -30 -104t-67 -36q-19 0 -38 8t-37 19t-33.5 19t-29.5 8q-13 0 -24 -14t-15 -41h-64z" />
    <glyph glyph-name="hungarumlaut" unicode="&#x2dd;" horiz-adv-x="440" 
d="M400 757q-8 -15 -23.5 -35t-35 -42t-39.5 -41t-36 -33h-60v12q15 25 31 53t29 53.5t20 41.5h114v-9zM234 757q-8 -16 -23 -35.5t-34 -40.5t-39.5 -40t-39.5 -35h-58v12q16 26 31.5 54t28.5 53t21 41h113v-9z" />
    <glyph glyph-name="tonos" unicode="&#x384;" horiz-adv-x="261" 
d="M40 606v12l48 158h133v-9l-101 -161h-80z" />
    <glyph glyph-name="dieresistonos" unicode="&#x385;" horiz-adv-x="653" 
d="M253 606v12l38 158h134v-9l-92 -161h-80zM174 618q-24 0 -40 15.5t-16 44.5q0 32 16 46.5t40 14.5t40 -15t16 -45t-16 -45.5t-40 -15.5zM478 618q-24 0 -40 15.5t-16 44.5q0 32 16 46.5t40 14.5q25 0 40.5 -15t15.5 -45t-15.5 -45.5t-40.5 -15.5z" />
    <glyph glyph-name="Alphatonos" unicode="&#x386;" horiz-adv-x="639" 
d="M511 0l-49 191h-194l-49 -191h-129l200 715h147l202 -715h-128zM389 496q-4 19 -8.5 40.5t-9 42.5t-7.5 38q-2 -17 -6.5 -38.5t-9 -42.5t-8.5 -39l-49 -201h148zM10 544v12l48 158h133v-9l-101 -161h-80z" />
    <glyph glyph-name="anoteleia" unicode="&#x387;" horiz-adv-x="254" 
d="M57 474q0 38 19 56.5t52 18.5q32 0 51 -18t19 -57t-19.5 -57.5t-50.5 -18.5q-32 0 -51.5 19t-19.5 57z" />
    <glyph glyph-name="Epsilontonos" unicode="&#x388;" horiz-adv-x="651" 
d="M603 0h-337v714h337v-103h-217v-188h203v-103h-203v-216h217v-104zM10 544v12l48 158h133v-9l-101 -161h-80z" />
    <glyph glyph-name="Etatonos" unicode="&#x389;" horiz-adv-x="811" 
d="M736 0h-120v320h-230v-320h-120v714h120v-290h230v290h120v-714zM10 544v12l48 158h133v-9l-101 -161h-80z" />
    <glyph glyph-name="Iotatonos" unicode="&#x38a;" horiz-adv-x="539" 
d="M507 0h-264v67l72 26v528l-72 26v67h264v-67l-72 -26v-528l72 -26v-67zM10 544v12l48 158h133v-9l-101 -161h-80z" />
    <glyph glyph-name="Omicrontonos" unicode="&#x38c;" horiz-adv-x="782" 
d="M732 358q0 -82 -16 -149.5t-49.5 -116.5t-84.5 -75.5t-120 -26.5q-70 0 -121.5 26.5t-84.5 76t-49 117t-16 149.5q0 118 30 199.5t90.5 124t150.5 42.5q93 0 152.5 -46t88.5 -128.5t29 -192.5zM316 358q0 -85 16 -143.5t48.5 -88.5t81.5 -30t81 29.5t48 88t16 144.5
q0 129 -35.5 195.5t-109.5 66.5q-49 0 -81.5 -30t-48.5 -88.5t-16 -143.5zM10 544v12l48 158h133v-9l-101 -161h-80z" />
    <glyph glyph-name="Upsilontonos" unicode="&#x38e;" horiz-adv-x="732" 
d="M487 404l119 310h126l-186 -437v-277h-119v273l-186 441h127zM10 544v12l48 158h133v-9l-101 -161h-80z" />
    <glyph glyph-name="Omegatonos" unicode="&#x38f;" horiz-adv-x="741" 
d="M171 0v105h125q-40 29 -67 72.5t-40.5 98.5t-13.5 119q0 101 32 175t93 114.5t147 40.5q84 0 144.5 -40.5t92.5 -114.5t32 -175q0 -64 -13 -119t-40.5 -98.5t-68.5 -72.5h127v-105h-234v107q41 32 64 74t33 94t10 115q0 73 -16.5 124.5t-49 78.5t-81.5 27t-82 -26.5
t-50 -78t-17 -126.5q0 -62 9 -114.5t32 -94t65 -73.5v-107h-233zM10 544v12l48 158h133v-9l-101 -161h-80z" />
    <glyph glyph-name="iotadieresistonos" unicode="&#x390;" horiz-adv-x="301" 
d="M211 -10q-49 1 -81 20t-48.5 57.5t-16.5 95.5v380h116v-374q0 -42 14 -60.5t39 -18.5q12 0 24 2.5t23 6.5v-98q-14 -5 -32.5 -8t-37.5 -3zM91 606v12l38 158h134v-9l-92 -161h-80zM12 618q-24 0 -40 15.5t-16 44.5q0 32 16 46.5t40 14.5t40 -15t16 -45t-16 -45.5
t-40 -15.5zM316 618q-24 0 -40 15.5t-16 44.5q0 32 16 46.5t40 14.5q25 0 40.5 -15t15.5 -45t-15.5 -45.5t-40.5 -15.5z" />
    <glyph glyph-name="Alpha" unicode="&#x391;" horiz-adv-x="549" 
d="M421 0l-49 191h-194l-49 -191h-129l200 715h147l202 -715h-128zM299 496q-4 19 -8.5 40.5t-9 42.5t-7.5 38q-2 -17 -6.5 -38.5t-9 -42.5t-8.5 -39l-49 -201h148z" />
    <glyph glyph-name="Beta" unicode="&#x392;" horiz-adv-x="555" 
d="M263 714q115 0 173.5 -42.5t58.5 -133.5q0 -43 -12.5 -76t-36 -54.5t-56.5 -28.5v-5q39 -9 65.5 -29.5t40.5 -54.5t14 -84q0 -63 -26 -109.5t-74.5 -71.5t-116.5 -25h-218v714h188zM268 420q56 0 80 26t24 77q0 46 -26.5 68.5t-81.5 22.5h-69v-194h73zM195 323v-222h86
q55 0 80 29.5t25 84.5q0 35 -12 58.5t-37 36.5t-63 13h-79z" />
    <glyph glyph-name="Gamma" unicode="&#x393;" horiz-adv-x="429" 
d="M75 0v714h323v-103h-203v-611h-120z" />
    <glyph glyph-name="uni0394" unicode="&#x394;" horiz-adv-x="548" 
d="M10 0v71l189 644h148l191 -646v-69h-528zM145 105h258l-101 391q-5 19 -10.5 40.5t-10 42.5t-7.5 38q-3 -17 -8 -38.5t-10.5 -42.5t-9.5 -39z" />
    <glyph glyph-name="Epsilon" unicode="&#x395;" horiz-adv-x="460" 
d="M412 0h-337v714h337v-103h-217v-188h203v-103h-203v-216h217v-104z" />
    <glyph glyph-name="Zeta" unicode="&#x396;" horiz-adv-x="455" 
d="M431 0h-405v86l264 524h-258v104h392v-86l-265 -524h272v-104z" />
    <glyph glyph-name="Eta" unicode="&#x397;" horiz-adv-x="620" 
d="M545 0h-120v320h-230v-320h-120v714h120v-290h230v290h120v-714z" />
    <glyph glyph-name="Theta" unicode="&#x398;" horiz-adv-x="641" 
d="M225 314v99h191v-99h-191zM591 358q0 -82 -16 -149.5t-49.5 -116.5t-84.5 -75.5t-120 -26.5q-70 0 -121.5 26.5t-84.5 76t-49 117t-16 149.5q0 117 30 199t90.5 124.5t150.5 42.5q93 0 152.5 -46t88.5 -128.5t29 -192.5zM175 358q0 -85 16 -143.5t48.5 -88.5t81.5 -30
t81 29.5t48 88t16 144.5q0 129 -35.5 195.5t-109.5 66.5q-49 0 -81.5 -30t-48.5 -88t-16 -144z" />
    <glyph glyph-name="Iota" unicode="&#x399;" horiz-adv-x="328" 
d="M296 0h-264v67l72 26v528l-72 26v67h264v-67l-72 -26v-528l72 -26v-67z" />
    <glyph glyph-name="Kappa" unicode="&#x39a;" horiz-adv-x="535" 
d="M539 0h-135l-156 309l-53 -49v-260h-120v714h120v-339q10 20 25 45l33 55l150 239h131l-201 -316z" />
    <glyph glyph-name="Lambda" unicode="&#x39b;" horiz-adv-x="542" 
d="M0 0l196 715h148l198 -715h-128l-119 496q-4 19 -8.5 40.5t-8.5 42.5t-8 38q-2 -17 -6 -38.5t-8.5 -42.5t-8.5 -39l-118 -497h-129z" />
    <glyph glyph-name="Mu" unicode="&#x39c;" horiz-adv-x="805" 
d="M348 0l-165 563h-4q3 -29 4.5 -60t2.5 -59t1 -52v-392h-112v714h167l158 -535h3l160 535h168v-714h-116v394q0 24 1 52t2.5 58t2.5 59h-4l-168 -563h-101z" />
    <glyph glyph-name="Nu" unicode="&#x39d;" horiz-adv-x="659" 
d="M585 0h-145l-257 539h-4q2 -32 4 -61.5t2.5 -57t1.5 -52.5v-368h-112v714h144l257 -530h3q-2 30 -3 59.5t-2 56.5t-2 51v363h113v-714z" />
    <glyph glyph-name="Xi" unicode="&#x39e;" horiz-adv-x="517" 
d="M48 0v105h421v-105h-421zM93 321v105h332v-105h-332zM63 609v105h392v-105h-392z" />
    <glyph glyph-name="Omicron" unicode="&#x39f;" horiz-adv-x="641" 
d="M591 358q0 -82 -16 -149.5t-49.5 -116.5t-84.5 -75.5t-120 -26.5q-70 0 -121.5 26.5t-84.5 76t-49 117t-16 149.5q0 118 30 199.5t90.5 124t150.5 42.5q93 0 152.5 -46t88.5 -128.5t29 -192.5zM175 358q0 -85 16 -143.5t48.5 -88.5t81.5 -30t81 29.5t48 88t16 144.5
q0 129 -35.5 195.5t-109.5 66.5q-49 0 -81.5 -30t-48.5 -88.5t-16 -143.5z" />
    <glyph glyph-name="Pi" unicode="&#x3a0;" horiz-adv-x="617" 
d="M75 0v714h467v-714h-120v610h-227v-610h-120z" />
    <glyph glyph-name="Rho" unicode="&#x3a1;" horiz-adv-x="516" 
d="M253 714q117 0 172.5 -55.5t55.5 -161.5q0 -52 -13.5 -95t-42.5 -74.5t-73.5 -48t-106.5 -16.5h-50v-263h-120v714h178zM245 612h-50v-247h38q43 0 71 13t42 41.5t14 74.5q0 62 -28 90t-87 28z" />
    <glyph glyph-name="Sigma" unicode="&#x3a3;" horiz-adv-x="454" 
d="M26 0v98l170 274l-163 248v94h392v-103h-170q-22 0 -44 1t-39 3l145 -220v-28l-167 -267q26 2 49.5 3t46.5 1h185v-104h-405z" />
    <glyph glyph-name="Tau" unicode="&#x3a4;" horiz-adv-x="459" 
d="M289 0h-119v610h-156v104h430v-104h-155v-610z" />
    <glyph glyph-name="Upsilon" unicode="&#x3a5;" horiz-adv-x="491" 
d="M246 404l119 310h126l-186 -437v-277h-119v273l-186 441h127z" />
    <glyph glyph-name="Phi" unicode="&#x3a6;" horiz-adv-x="759" 
d="M322 -6v99q-77 0 -131 22t-87.5 60.5t-48.5 89t-15 106.5t15 105.5t48.5 87t87.5 58.5t131 21v77h115v-77q76 0 130 -21.5t87.5 -59t49.5 -86.5t16 -105t-16 -106.5t-49.5 -88.5t-87 -60.5t-130.5 -22.5v-99h-115zM322 192v352q-61 -1 -97.5 -22.5t-52 -59.5t-15.5 -90
q0 -57 16.5 -97t52.5 -61t96 -22zM437 192q60 1 96.5 23t52.5 62t16 95q0 52 -16 90t-51.5 59.5t-97.5 22.5v-352z" />
    <glyph glyph-name="Chi" unicode="&#x3a7;" horiz-adv-x="503" 
d="M500 0h-131l-118 267l-122 -267h-126l180 368l-165 346h127l107 -248l107 248h127l-165 -349z" />
    <glyph glyph-name="Psi" unicode="&#x3a8;" horiz-adv-x="718" 
d="M302 0v178q-57 3 -100.5 20.5t-73 48.5t-44 76.5t-14.5 104.5v286h119v-287q0 -45 11.5 -78t36.5 -50.5t65 -17.5v433h114v-433q40 1 65 16t36.5 47t11.5 82v288h119v-280q0 -80 -26.5 -136t-78.5 -86t-127 -34v-178h-114z" />
    <glyph glyph-name="uni03A9" unicode="&#x3a9;" horiz-adv-x="590" 
d="M20 0v105h125q-40 29 -67 72.5t-40.5 98.5t-13.5 119q0 101 32 175t93 114.5t147 40.5q84 0 144.5 -40.5t92.5 -114.5t32 -175q0 -64 -13 -119t-40.5 -98.5t-68.5 -72.5h127v-105h-234v107q41 32 64 74t33 94t10 115q0 73 -16.5 124.5t-49 78.5t-81.5 27t-82 -26.5
t-50 -78t-17 -126.5q0 -62 9 -114.5t32 -94t65 -73.5v-107h-233z" />
    <glyph glyph-name="Iotadieresis" unicode="&#x3aa;" horiz-adv-x="328" 
d="M296 0h-264v67l72 26v528l-72 26v67h264v-67l-72 -26v-528l72 -26v-67zM17 849q0 32 16 46.5t40 14.5t40 -15t16 -45t-16 -45.5t-40 -15.5t-40 15.5t-16 44.5zM197 849q0 32 16 46.5t40 14.5q25 0 40.5 -15t15.5 -45t-16 -45.5t-40 -15.5t-40 15.5t-16 44.5z" />
    <glyph glyph-name="Upsilondieresis" unicode="&#x3ab;" horiz-adv-x="491" 
d="M246 404l119 310h126l-186 -437v-277h-119v273l-186 441h127zM99 849q0 32 16 46.5t40 14.5t40 -15t16 -45t-16 -45.5t-40 -15.5t-40 15.5t-16 44.5zM279 849q0 32 16 46.5t40 14.5q25 0 40.5 -15t15.5 -45t-16 -45.5t-40 -15.5t-40 15.5t-16 44.5z" />
    <glyph glyph-name="alphatonos" unicode="&#x3ac;" horiz-adv-x="548" 
d="M214 -10q-53 0 -92 32t-60 95t-21 152q0 138 47.5 211t131.5 73q31 0 54 -9.5t41 -27.5t32 -44h6l11 71h98v-391q0 -33 10.5 -48t27.5 -15q7 0 15 1.5t13 3.5v-92q-4 -3 -14 -6t-21 -4.5t-19 -1.5q-48 0 -76 19t-41 64h-8q-14 -25 -34 -44t-45 -29t-56 -10zM252 88
q33 0 54 18t31.5 55.5t10.5 96.5v12q0 93 -22 138.5t-77 45.5q-45 0 -67 -48t-22 -138q0 -92 22.5 -136t69.5 -44zM206 606v12l48 158h133v-9l-101 -161h-80z" />
    <glyph glyph-name="epsilontonos" unicode="&#x3ad;" horiz-adv-x="401" 
d="M228 -10q-100 0 -148 44t-48 116q0 40 14.5 67t38.5 42.5t51 21.5v5q-41 12 -63 44t-22 77q0 44 21 76.5t61 51t96 18.5q38 0 75.5 -8.5t72.5 -29.5l-32 -86q-26 16 -51.5 23.5t-49.5 7.5q-42 0 -61.5 -18t-19.5 -50q0 -31 21 -49t62 -18h52v-90h-52q-33 0 -54 -8.5
t-31.5 -24.5t-10.5 -41q0 -38 26 -56t71 -18q36 0 64.5 8t59.5 29v-98q-30 -20 -66 -28t-77 -8zM184 606v12l48 158h133v-9l-101 -161h-80z" />
    <glyph glyph-name="etatonos" unicode="&#x3ae;" horiz-adv-x="522" 
d="M342 -240v572q0 59 -15 90t-55 31q-33 0 -53 -19.5t-28.5 -60t-8.5 -105.5v-268h-116v543h91l14 -71h7q14 27 33 45t43 27t51 9q52 0 85.5 -21.5t50.5 -64.5t17 -107v-600h-116zM197 606v12l48 158h133v-9l-101 -161h-80z" />
    <glyph glyph-name="iotatonos" unicode="&#x3af;" horiz-adv-x="301" 
d="M211 -10q-49 1 -81 20t-48.5 57.5t-16.5 95.5v380h116v-374q0 -42 14 -60.5t39 -18.5q12 0 24 2.5t23 6.5v-98q-14 -5 -32.5 -8t-37.5 -3zM89 606v12l48 158h133v-9l-101 -161h-80z" />
    <glyph glyph-name="upsilondieresistonos" unicode="&#x3b0;" horiz-adv-x="516" 
d="M246 -9q-52 0 -87 14t-56 40.5t-30 65.5t-9 89v343h115v-337q0 -37 5.5 -63t20.5 -39.5t45 -13.5q33 0 54 20.5t30 63.5t9 111q0 66 -7 127.5t-23 130.5h116q11 -50 17.5 -90.5t9.5 -80t3 -88.5q0 -147 -53.5 -220t-159.5 -73zM213 606v12l38 158h134v-9l-92 -161h-80z
M134 618q-24 0 -40 15.5t-16 44.5q0 32 16 46.5t40 14.5t40 -15t16 -45t-16 -45.5t-40 -15.5zM438 618q-24 0 -40 15.5t-16 44.5q0 32 16 46.5t40 14.5q25 0 40.5 -15t15.5 -45t-15.5 -45.5t-40.5 -15.5z" />
    <glyph glyph-name="alpha" unicode="&#x3b1;" horiz-adv-x="548" 
d="M214 -10q-53 0 -92 32t-60 95t-21 152q0 138 47.5 211t131.5 73q31 0 54 -9.5t41 -27.5t32 -44h6l11 71h98v-391q0 -33 10.5 -48t27.5 -15q7 0 15 1.5t13 3.5v-92q-4 -3 -14 -6t-21 -4.5t-19 -1.5q-48 0 -76 19t-41 64h-8q-14 -25 -34 -44t-45 -29t-56 -10zM252 88
q33 0 54 18t31.5 55.5t10.5 96.5v12q0 93 -22 138.5t-77 45.5q-45 0 -67 -48t-22 -138q0 -92 22.5 -136t69.5 -44z" />
    <glyph glyph-name="beta" unicode="&#x3b2;" horiz-adv-x="527" 
d="M66 -240v784q0 73 23.5 122t68.5 74t108 25q61 0 103 -23t63.5 -65t21.5 -101q0 -51 -14 -86t-39.5 -56t-60.5 -29v-4q49 -7 81 -30.5t48.5 -63.5t16.5 -100q0 -68 -24 -116.5t-67 -74.5t-101 -26q-26 0 -45 4t-34.5 11t-32.5 17v-262h-116zM269 89q49 0 74 32.5t25 96.5
q0 43 -13 72.5t-36.5 44.5t-55.5 15h-41v94h34q28 0 46 13.5t27 39.5t9 63q0 54 -20 81t-55 27q-26 0 -44.5 -13.5t-27.5 -42.5t-9 -74v-416q19 -15 41 -24t46 -9z" />
    <glyph glyph-name="gamma" unicode="&#x3b3;" horiz-adv-x="464" 
d="M149 -210v210l-147 543h120l75 -316q5 -19 9.5 -39t9 -38.5t6.5 -32.5h4q31 60 51 125.5t29 140t9 160.5h117q0 -104 -16.5 -195t-53.5 -174t-97 -165v-219h-116z" />
    <glyph glyph-name="delta" unicode="&#x3b4;" horiz-adv-x="503" 
d="M245 -10q-68 0 -116 28.5t-73 79.5t-25 120q0 59 19 105t54 79t82 52q-28 22 -48.5 46t-31 52t-10.5 62q0 47 22 80.5t62 52t94 18.5q35 0 65 -7t54.5 -18.5t43.5 -27.5l-43 -90q-27 24 -56.5 36t-58.5 12q-23 0 -39 -7.5t-23.5 -21t-7.5 -29.5q0 -17 9.5 -34t30.5 -36
t54 -45q56 -38 91 -79t51.5 -87.5t16.5 -103.5q0 -74 -26 -127t-75 -81.5t-116 -28.5zM246 87q32 0 54 17t33.5 49t11.5 76q0 36 -10.5 67t-30.5 57t-49 47q-25 -10 -45 -26.5t-33.5 -39t-20.5 -50.5t-7 -59q0 -42 11.5 -73.5t33.5 -48t52 -16.5z" />
    <glyph glyph-name="epsilon" unicode="&#x3b5;" horiz-adv-x="401" 
d="M228 -10q-100 0 -148 44t-48 116q0 40 14.5 67t38.5 42.5t51 21.5v5q-41 12 -63 44t-22 77q0 44 21 76.5t61 51t96 18.5q38 0 75.5 -8.5t72.5 -29.5l-32 -86q-26 16 -51.5 23.5t-49.5 7.5q-42 0 -61.5 -18t-19.5 -50q0 -31 21 -49t62 -18h52v-90h-52q-33 0 -54 -8.5
t-31.5 -24.5t-10.5 -41q0 -38 26 -56t71 -18q36 0 64.5 8t59.5 29v-98q-30 -20 -66 -28t-77 -8z" />
    <glyph glyph-name="zeta" unicode="&#x3b6;" horiz-adv-x="389" 
d="M234 -202q21 37 32.5 69t11.5 56q0 19 -6 31.5t-21 21t-45 15.5q-54 15 -90.5 41.5t-55 67.5t-18.5 99q0 61 19 116.5t53 112.5t77 122l81 124q-10 -2 -25.5 -4t-34 -3t-38.5 -1h-112v94h333v-76l-116 -180q-44 -69 -70.5 -119.5t-37.5 -90t-11 -75.5q0 -28 8 -53
t32.5 -45t73.5 -35q41 -11 67 -27t38 -40.5t12 -64.5q0 -27 -6 -53.5t-16.5 -52t-24.5 -50.5h-110z" />
    <glyph glyph-name="eta" unicode="&#x3b7;" horiz-adv-x="522" 
d="M342 -240v572q0 59 -15 90t-55 31q-33 0 -53 -19.5t-28.5 -60t-8.5 -105.5v-268h-116v543h91l14 -71h7q14 27 33 45t43 27t51 9q52 0 85.5 -21.5t50.5 -64.5t17 -107v-600h-116z" />
    <glyph glyph-name="theta" unicode="&#x3b8;" horiz-adv-x="512" 
d="M255 -10q-72 0 -119.5 43t-71 129.5t-23.5 217.5q0 129 23 214.5t71 128t121 42.5q72 0 120 -42t71.5 -127.5t23.5 -215.5t-23 -216.5t-71 -130t-122 -43.5zM255 83q33 0 54.5 24.5t32.5 80t13 148.5h-199q2 -92 12.5 -147.5t32 -80.5t54.5 -25zM157 429h199
q-3 88 -14 141t-32.5 77t-53.5 24t-53.5 -24t-32 -77t-13.5 -141z" />
    <glyph glyph-name="iota" unicode="&#x3b9;" horiz-adv-x="301" 
d="M211 -10q-49 1 -81 20t-48.5 57.5t-16.5 95.5v380h116v-374q0 -42 14 -60.5t39 -18.5q12 0 24 2.5t23 6.5v-98q-14 -5 -32.5 -8t-37.5 -3z" />
    <glyph glyph-name="kappa" unicode="&#x3ba;" horiz-adv-x="488" 
d="M477 543l-159 -226l169 -317h-129l-118 235l-58 -54v-181h-116v543h116v-135q0 -33 -1 -64.5t-4 -58.5h3q10 17 20.5 34t20.5 30l130 194h126z" />
    <glyph glyph-name="lambda" unicode="&#x3bb;" horiz-adv-x="475" 
d="M414 -10q-35 0 -59.5 13.5t-40.5 42t-28 74.5l-40 150q-4 13 -7.5 27t-7.5 28.5t-6.5 29t-4.5 27.5h-4q-2 -23 -7 -46t-11 -46l-72 -290h-123l163 528l-18 64q-13 44 -33.5 58.5t-49.5 14.5q-12 0 -23.5 -2.5t-20.5 -4.5v99q9 3 18.5 4.5t21.5 2.5t25 1q43 1 75.5 -13
t56.5 -47t40 -89l130 -458q8 -26 15 -40.5t16.5 -20.5t21.5 -6q10 0 17.5 1.5t14.5 4.5v-98q-8 -2 -17.5 -4.5t-20 -3.5t-21.5 -1z" />
    <glyph glyph-name="uni03BC" unicode="&#x3bc;" horiz-adv-x="552" 
d="M66 -240v783h116v-329q0 -61 16.5 -92.5t54.5 -31.5q55 0 76.5 45.5t21.5 138.5l-1 269h116v-391q0 -33 10.5 -48t27.5 -15q7 0 15 1.5t13 3.5v-92q-4 -3 -14 -6t-21 -4.5t-19 -1.5q-48 0 -75.5 19t-40.5 64h-6q-10 -25 -25.5 -44t-34.5 -29t-41 -10q-26 0 -44 11.5
t-31 33.5h-3q2 -15 3 -33t1.5 -37t0.5 -38v-167h-116z" />
    <glyph glyph-name="nu" unicode="&#x3bd;" horiz-adv-x="464" 
d="M149 0l-147 543h120l75 -316q5 -19 9.5 -39t9 -38.5t6.5 -32.5h4q31 60 51 125.5t29 140t9 160.5h117q0 -107 -17.5 -199t-55.5 -176.5t-101 -167.5h-109z" />
    <glyph glyph-name="xi" unicode="&#x3be;" horiz-adv-x="427" 
d="M242 -202q22 37 33.5 68.5t11.5 56.5q0 20 -6 32t-23 20.5t-49 16.5q-52 13 -89.5 39t-57.5 68.5t-20 104.5q0 51 15 89.5t44.5 64.5t71.5 38v5q-32 9 -56 26t-37 43.5t-13 63.5q0 35 14 62.5t38.5 47t56.5 27.5q-14 -1 -29 -2t-29.5 -2t-26.5 -1h-28v94h340v-91h-52
q-37 0 -68.5 -6.5t-54 -20.5t-35 -37.5t-12.5 -56.5q0 -31 13.5 -54.5t43 -36.5t79.5 -13h64v-94h-67q-53 0 -87 -15t-50.5 -44t-16.5 -70q0 -36 10 -61.5t36 -43t72 -30.5q45 -12 71.5 -28.5t38.5 -41t12 -61.5q0 -27 -6 -53.5t-16.5 -52t-25.5 -51.5h-110z" />
    <glyph glyph-name="omicron" unicode="&#x3bf;" horiz-adv-x="514" 
d="M473 273q0 -62 -13.5 -113.5t-40 -89.5t-67.5 -59t-96 -21q-52 0 -92 20.5t-67 58.5t-41.5 89.5t-14.5 114.5q0 86 24 149t72.5 97t120.5 34q66 0 114 -32.5t74.5 -95t26.5 -152.5zM160 272q0 -60 10 -101.5t32 -62.5t55 -21q35 0 56.5 21t31.5 62.5t10 101.5
q0 61 -10.5 101.5t-31.5 61t-56 20.5q-51 0 -74 -45.5t-23 -137.5z" />
    <glyph glyph-name="pi" unicode="&#x3c0;" horiz-adv-x="588" 
d="M480 -9q-59 0 -88.5 37.5t-29.5 115.5v305h-141v-449h-116v449h-90v94h553v-94h-89v-302q0 -30 10 -43.5t27 -13.5q12 0 24.5 3t23.5 9v-90q-15 -9 -37.5 -15t-46.5 -6z" />
    <glyph glyph-name="rho" unicode="&#x3c1;" horiz-adv-x="513" 
d="M51 -240v515q0 87 22.5 149t69 95.5t117.5 33.5q64 0 111.5 -30.5t74 -93.5t26.5 -164q0 -82 -24 -144t-68.5 -96.5t-105.5 -34.5q-34 0 -59.5 11t-47.5 30h-6q3 -32 4.5 -67t1.5 -66v-138h-116zM258 87q32 0 53 19t32 58.5t11 100.5q0 102 -24.5 146t-73.5 44
q-46 0 -67.5 -39.5t-21.5 -124.5v-166q17 -19 41 -28.5t50 -9.5z" />
    <glyph glyph-name="sigma" unicode="&#x3c3;" horiz-adv-x="538" 
d="M254 -10q-67 0 -115 34t-73 95t-25 143q0 99 29.5 160.5t84.5 91t135 29.5h219v-94h-108q26 -24 40.5 -54.5t21.5 -65.5t7 -76q0 -56 -14.5 -104t-42 -83.5t-67.5 -55.5t-92 -20zM254 87q34 0 55.5 20t32 58.5t10.5 91.5q0 37 -4.5 72.5t-15.5 66.5t-31 53h-18
q-42 0 -69.5 -19.5t-41 -61.5t-13.5 -109q0 -56 10 -94.5t31 -58t54 -19.5z" />
    <glyph glyph-name="tau" unicode="&#x3c4;" horiz-adv-x="415" 
d="M268 -11q-46 0 -78.5 17.5t-49 56t-16.5 100.5v286h-109v94h370v-94h-145v-281q0 -27 6.5 -45t19.5 -26.5t32 -8.5q17 0 34.5 3.5t34.5 9.5v-91q-17 -9 -44 -15t-55 -6z" />
    <glyph glyph-name="upsilon" unicode="&#x3c5;" horiz-adv-x="516" 
d="M246 -9q-52 0 -87 14t-56 40.5t-30 65.5t-9 89v343h115v-337q0 -37 5.5 -63t20.5 -39.5t45 -13.5q33 0 54 20.5t30 63.5t9 111q0 66 -7 127.5t-23 130.5h116q11 -50 17.5 -90.5t9.5 -80t3 -88.5q0 -147 -53.5 -220t-159.5 -73z" />
    <glyph glyph-name="phi" unicode="&#x3c6;" horiz-adv-x="660" 
d="M277 -240v235q-73 7 -126.5 42t-81.5 95t-28 139q0 80 26 139.5t78.5 95t131.5 41.5v213h107v-213q77 -6 129 -43t79 -97t27 -136q0 -77 -26.5 -136.5t-78.5 -95.5t-130 -44v-235h-107zM277 87v369q-36 -4 -62.5 -27.5t-40.5 -63t-14 -94.5q0 -51 13 -91.5t39 -64.5
t65 -28zM384 87q39 4 65 28.5t39 65t13 90.5q0 82 -31 130t-86 55v-369z" />
    <glyph glyph-name="chi" unicode="&#x3c7;" horiz-adv-x="535" 
d="M457 -240q-37 0 -61 12.5t-40.5 38.5t-33.5 67l-205 506q-15 38 -27 53.5t-32 15.5q-9 0 -19 -2t-19 -5v95q12 4 27.5 6.5t35.5 2.5q36 0 59 -12t40 -37t33 -65l208 -513q10 -24 17.5 -38.5t18.5 -20.5t28 -6q10 0 19.5 1.5t18.5 3.5v-94q-8 -3 -18.5 -5t-22 -3t-27.5 -1
zM14 -240l226 425l47 -115l-156 -310h-117zM315 91l-45 129l148 323h117z" />
    <glyph glyph-name="psi" unicode="&#x3c8;" horiz-adv-x="670" 
d="M279 -240v231q-71 3 -119 28.5t-72 79t-24 141.5v303h111v-300q0 -53 10 -85.5t33 -48t61 -19.5v670h111v-670q42 5 65.5 25.5t34 62t10.5 107.5q0 63 -8.5 126.5t-25.5 131.5h113q18 -74 26.5 -136t8.5 -124q0 -95 -26 -158t-76 -96t-122 -38v-231h-111z" />
    <glyph glyph-name="omega" unicode="&#x3c9;" horiz-adv-x="700" 
d="M218 -10q-57 0 -94 33t-55 94.5t-18 145.5q0 91 22 163.5t56 116.5h110q-25 -33 -41.5 -76.5t-24.5 -94.5t-8 -105q0 -87 15.5 -131t51.5 -44q22 0 35.5 14.5t20 44.5t6.5 75v139h111v-139q0 -47 7 -76.5t20.5 -43t35.5 -14.5q24 0 38.5 19.5t21.5 58.5t7 95
q0 52 -7.5 103t-23.5 96t-42 79h109q24 -30 41 -72.5t27 -94.5t10 -113q0 -84 -18.5 -145.5t-55.5 -94.5t-94 -33q-49 0 -82 26.5t-47 83.5h-4q-9 -38 -27 -62.5t-44 -36t-59 -11.5z" />
    <glyph glyph-name="iotadieresis" unicode="&#x3ca;" horiz-adv-x="301" 
d="M211 -10q-49 1 -81 20t-48.5 57.5t-16.5 95.5v380h116v-374q0 -42 14 -60.5t39 -18.5q12 0 24 2.5t23 6.5v-98q-14 -5 -32.5 -8t-37.5 -3zM-21 678q0 32 16 46.5t40 14.5t40 -15t16 -45t-16 -45.5t-40 -15.5t-40 15.5t-16 44.5zM159 678q0 32 16 46.5t40 14.5
q25 0 40.5 -15t15.5 -45t-16 -45.5t-40 -15.5t-40 15.5t-16 44.5z" />
    <glyph glyph-name="upsilondieresis" unicode="&#x3cb;" horiz-adv-x="516" 
d="M246 -9q-52 0 -87 14t-56 40.5t-30 65.5t-9 89v343h115v-337q0 -37 5.5 -63t20.5 -39.5t45 -13.5q33 0 54 20.5t30 63.5t9 111q0 66 -7 127.5t-23 130.5h116q11 -50 17.5 -90.5t9.5 -80t3 -88.5q0 -147 -53.5 -220t-159.5 -73zM102 678q0 32 16 46.5t40 14.5t40 -15
t16 -45t-16 -45.5t-40 -15.5t-40 15.5t-16 44.5zM282 678q0 32 16 46.5t40 14.5q25 0 40.5 -15t15.5 -45t-16 -45.5t-40 -15.5t-40 15.5t-16 44.5z" />
    <glyph glyph-name="omicrontonos" unicode="&#x3cc;" horiz-adv-x="514" 
d="M473 273q0 -62 -13.5 -113.5t-40 -89.5t-67.5 -59t-96 -21q-52 0 -92 20.5t-67 58.5t-41.5 89.5t-14.5 114.5q0 86 24 149t72.5 97t120.5 34q66 0 114 -32.5t74.5 -95t26.5 -152.5zM160 272q0 -60 10 -101.5t32 -62.5t55 -21q35 0 56.5 21t31.5 62.5t10 101.5
q0 61 -10.5 101.5t-31.5 61t-56 20.5q-51 0 -74 -45.5t-23 -137.5zM220 606v12l48 158h133v-9l-101 -161h-80z" />
    <glyph glyph-name="upsilontonos" unicode="&#x3cd;" horiz-adv-x="516" 
d="M246 -9q-52 0 -87 14t-56 40.5t-30 65.5t-9 89v343h115v-337q0 -37 5.5 -63t20.5 -39.5t45 -13.5q33 0 54 20.5t30 63.5t9 111q0 66 -7 127.5t-23 130.5h116q11 -50 17.5 -90.5t9.5 -80t3 -88.5q0 -147 -53.5 -220t-159.5 -73zM211 606v12l48 158h133v-9l-101 -161h-80z
" />
    <glyph glyph-name="omegatonos" unicode="&#x3ce;" horiz-adv-x="700" 
d="M218 -10q-57 0 -94 33t-55 94.5t-18 145.5q0 91 22 163.5t56 116.5h110q-25 -33 -41.5 -76.5t-24.5 -94.5t-8 -105q0 -87 15.5 -131t51.5 -44q22 0 35.5 14.5t20 44.5t6.5 75v139h111v-139q0 -47 7 -76.5t20.5 -43t35.5 -14.5q24 0 38.5 19.5t21.5 58.5t7 95
q0 52 -7.5 103t-23.5 96t-42 79h109q24 -30 41 -72.5t27 -94.5t10 -113q0 -84 -18.5 -145.5t-55.5 -94.5t-94 -33q-49 0 -82 26.5t-47 83.5h-4q-9 -38 -27 -62.5t-44 -36t-59 -11.5zM313 606v12l48 158h133v-9l-101 -161h-80z" />
    <glyph glyph-name="uni0401" unicode="&#x401;" horiz-adv-x="460" 
d="M75 0v714h337v-103h-217v-188h203v-103h-203v-216h217v-104h-337zM164 786q-26 0 -40 17t-14 47q0 32 14.5 48t39.5 16t40 -16t15 -48q0 -31 -15 -47.5t-40 -16.5zM327 786q-25 0 -39.5 16.5t-14.5 47.5q0 32 14.5 48t40.5 16t40 -16t14 -48q0 -31 -14.5 -47.5
t-40.5 -16.5z" />
    <glyph glyph-name="uni0402" unicode="&#x402;" horiz-adv-x="621" 
d="M398 -12q-22 0 -41 2.5t-33 7.5v99q15 -4 26.5 -5.5t22.5 -1.5q45 0 67.5 29.5t22.5 91.5v1q0 60 -26.5 89.5t-79.5 29.5q-29 0 -60.5 -8.5t-59.5 -25.5l32 61v-358h-119l-1 609h-135v105h440v-105h-185v-236l-37 29q35 17 71.5 25t74.5 8q100 0 153 -57t53 -165v-2
q0 -70 -22.5 -120t-64 -76.5t-99.5 -26.5z" />
    <glyph glyph-name="uni0403" unicode="&#x403;" horiz-adv-x="441" 
d="M75 0v714h335v-104h-215v-610h-120zM191 771v13l91 147h133v-9l-145 -151h-79z" />
    <glyph glyph-name="uni0404" unicode="&#x404;" horiz-adv-x="528" 
d="M325 -10q-90 0 -151.5 42t-93.5 123.5t-32 199.5q0 112 33.5 195t98 128.5t155.5 45.5q42 0 82.5 -9.5t78.5 -28.5l-38 -99q-32 17 -61.5 25t-57.5 8q-53 0 -90 -29t-56.5 -85.5t-20.5 -140.5l-52 53h295v-104h-297l53 52q-1 -88 17.5 -149t57.5 -92t99 -31q30 0 64 8
t67 24v-104q-29 -15 -69.5 -23.5t-81.5 -8.5z" />
    <glyph glyph-name="uni0405" unicode="&#x405;" horiz-adv-x="464" 
d="M204 -10q-29 0 -58 3.5t-56 11t-52 18.5v116q38 -20 79 -32t80 -12t63.5 12.5t36 33.5t11.5 49q0 30 -12.5 51t-38 39.5t-65.5 38.5q-30 16 -57 34t-47.5 41.5t-32 56t-11.5 77.5q0 60 25.5 104t72 68.5t110.5 23.5q47 0 90.5 -11t82.5 -31l-37 -100q-36 18 -68.5 27.5
t-62.5 9.5t-51 -10t-31.5 -29.5t-10.5 -46.5q0 -30 12.5 -51t38 -38.5t65.5 -37.5q46 -24 79 -51t51.5 -64t18.5 -91q0 -62 -27 -109.5t-77 -74t-121 -26.5z" />
    <glyph glyph-name="uni0406" unicode="&#x406;" horiz-adv-x="270" 
d="M75 0v714h120v-714h-120z" />
    <glyph glyph-name="uni0407" unicode="&#x407;" horiz-adv-x="277" 
d="M78 0v714h120v-714h-120zM69 785q-26 0 -40 16.5t-14 46.5q0 32 14.5 48.5t39.5 16.5q26 0 40.5 -16.5t14.5 -47.5t-14.5 -47.5t-40.5 -16.5zM208 785q-26 0 -40.5 16.5t-14.5 46.5q0 33 15 49t40 16q26 0 40 -16t14 -48q0 -31 -14.5 -47.5t-39.5 -16.5z" />
    <glyph glyph-name="uni0408" unicode="&#x408;" horiz-adv-x="267" 
d="M15 -204q-22 0 -40.5 2.5t-34.5 8.5v103q13 -4 28 -7t32 -3q25 0 41 11t24.5 38.5t8.5 74.5v690h120v-690q0 -84 -21.5 -134t-61.5 -72t-96 -22z" />
    <glyph glyph-name="uni0409" unicode="&#x409;" horiz-adv-x="842" 
d="M67 -11q-19 0 -36 3t-30 7v104q10 -3 19.5 -4.5t20.5 -1.5q21 0 35 9.5t22.5 32t11.5 61.5q4 52 7.5 104.5t6.5 112t6.5 132.5t7.5 165h376v-261h60q115 0 174 -56t59 -166q0 -111 -60.5 -171t-173.5 -60h-178v610h-148q-4 -68 -7 -124t-6 -105.5t-6 -96.5t-7 -96
q-6 -67 -23 -111.5t-49 -66t-82 -21.5zM514 103h54q58 0 87.5 32.5t29.5 94.5t-29 91.5t-89 29.5h-53v-248z" />
    <glyph glyph-name="uni040A" unicode="&#x40a;" horiz-adv-x="842" 
d="M75 0v714h120v-281h201v281h118v-281h60q113 0 173 -54.5t60 -159.5t-61 -162t-173 -57h-177v331h-201v-331h-120zM514 103h54q57 0 86.5 30t29.5 86t-29 84t-87 28h-54v-228z" />
    <glyph glyph-name="uni040B" unicode="&#x40b;" horiz-adv-x="631" 
d="M150 0v610h-136v104h439v-104h-184v-242l-36 35q39 16 76 23.5t74 7.5q96 0 145.5 -49t49.5 -150v-235h-120v225q0 55 -23.5 80.5t-75.5 25.5q-30 0 -60 -8.5t-62 -23.5l32 55v-354h-119z" />
    <glyph glyph-name="uni040C" unicode="&#x40c;" horiz-adv-x="548" 
d="M414 0l-188 360l-1 18l181 336h127l-196 -352l3 27l209 -389h-135zM75 0v714h120v-714h-120zM157 320v103h134v-103h-134zM234 765v13l91 147h133v-9l-145 -151h-79z" />
    <glyph glyph-name="uni040E" unicode="&#x40e;" horiz-adv-x="509" 
d="M118 -10q-19 0 -37.5 3t-33.5 8v105q12 -4 25.5 -6.5t27.5 -2.5q32 0 53.5 14.5t38 50t33.5 98.5l-4 -111l-213 565h129l100 -287q5 -15 10 -31.5t10 -34.5t9 -37h5q4 18 7.5 34.5t8.5 32.5t9 32l90 291h123l-172 -504q-27 -80 -57 -128.5t-69 -70t-93 -21.5zM267 768
q-73 0 -113.5 35.5t-46.5 106.5h96q4 -36 19.5 -54t44.5 -18t45 18t19 54h97q-7 -71 -47.5 -106.5t-113.5 -35.5z" />
    <glyph glyph-name="uni040F" unicode="&#x40f;" horiz-adv-x="612" 
d="M247 -144v144h-172v714h120v-610h221v610h121v-714h-173v-144h-117z" />
    <glyph glyph-name="uni0410" unicode="&#x410;" horiz-adv-x="549" 
d="M421 0l-49 191h-194l-49 -191h-129l200 715h147l202 -715h-128zM299 496q-4 19 -8.5 40.5t-9 42.5t-7.5 38q-2 -17 -6.5 -38.5t-9 -42.5t-8.5 -39l-49 -201h148z" />
    <glyph glyph-name="uni0411" unicode="&#x411;" horiz-adv-x="532" 
d="M75 0v714h372v-104h-252v-177h66q115 0 174.5 -54t59.5 -158q0 -106 -61 -163.5t-174 -57.5h-185zM195 103h61q58 0 87.5 29.5t29.5 86.5t-29 84t-89 27h-60v-227z" />
    <glyph glyph-name="uni0412" unicode="&#x412;" horiz-adv-x="551" 
d="M75 0v714h192q115 0 171.5 -43t56.5 -133q0 -44 -13 -77t-36.5 -54t-58.5 -29v-4q39 -9 66.5 -30t42 -55.5t14.5 -84.5q0 -63 -24.5 -109t-72 -70.5t-116.5 -24.5h-222zM195 101h86q55 0 80 29t25 84q0 35 -11.5 59t-36.5 37t-63 13h-80v-222zM195 420h74q55 0 79.5 26
t24.5 75q0 47 -26.5 70t-82.5 23h-69v-194z" />
    <glyph glyph-name="uni0413" unicode="&#x413;" horiz-adv-x="429" 
d="M75 0v714h335v-104h-215v-610h-120z" />
    <glyph glyph-name="uni0414" unicode="&#x414;" horiz-adv-x="648" 
d="M9 -145v249h57q28 39 45 76t27 81.5t15 106.5q3 26 5 60.5t4 77t4.5 94.5t4.5 114h389v-610h79v-249h-117v145h-396v-145h-117zM195 104h245v506h-160q-3 -51 -5 -96t-4.5 -83t-5.5 -69q-5 -60 -14 -106t-22.5 -82.5t-33.5 -69.5z" />
    <glyph glyph-name="uni0415" unicode="&#x415;" horiz-adv-x="460" 
d="M75 0v714h337v-103h-217v-188h203v-103h-203v-216h217v-104h-337z" />
    <glyph glyph-name="uni0416" unicode="&#x416;" horiz-adv-x="778" 
d="M647 0l-175 360l-2 19l168 335h126l-182 -352l3 28l194 -390h-132zM-2 0l194 390l5 -29l-183 353h124l168 -335l1 -18l-176 -361h-133zM330 0v714h117v-714h-117zM250 320v103h290v-103h-290z" />
    <glyph glyph-name="uni0417" unicode="&#x417;" horiz-adv-x="490" 
d="M202 -10q-47 0 -91 8t-80 24v110q39 -18 79.5 -28t78.5 -10q68 0 102 29.5t34 85.5q0 57 -36 84t-111 27h-72v102h72q66 0 99.5 26t33.5 78q0 48 -28 71.5t-80 23.5q-32 0 -63.5 -8.5t-67.5 -26.5l-36 97q43 20 89.5 30.5t93.5 10.5q98 0 155 -48t57 -132
q0 -65 -33 -108.5t-94 -56.5v-5q70 -11 107 -56t37 -119q0 -65 -28.5 -112t-83.5 -72t-134 -25z" />
    <glyph glyph-name="uni0418" unicode="&#x418;" horiz-adv-x="636" 
d="M75 0v714h118v-363q0 -23 -0.5 -52.5t-2 -60t-4.5 -59.5h4l224 535h147l-1 -714h-118v365q0 19 0.5 41.5t2 45.5t2.5 46t3 42h-4l-226 -540h-145z" />
    <glyph glyph-name="uni0419" unicode="&#x419;" horiz-adv-x="636" 
d="M75 0v714h118v-363q0 -23 -0.5 -52.5t-2 -60t-4.5 -59.5h4l224 535h147l-1 -714h-118v365q0 19 0.5 41.5t2 45.5t2.5 46t3 42h-4l-226 -540h-145zM320 772q-73 0 -113.5 35.5t-46.5 106.5h96q4 -36 19.5 -54t44.5 -18t45 18t19 54h97q-7 -71 -47.5 -106.5t-113.5 -35.5z
" />
    <glyph glyph-name="uni041A" unicode="&#x41a;" horiz-adv-x="548" 
d="M414 0l-188 360l-1 18l181 336h127l-196 -352l3 27l209 -389h-135zM75 0v714h120v-714h-120zM157 320v103h134v-103h-134z" />
    <glyph glyph-name="uni041B" unicode="&#x41b;" horiz-adv-x="599" 
d="M67 -11q-19 0 -36 3t-30 7v104q10 -3 19.5 -4.5t20.5 -1.5q21 0 35 9.5t22.5 32t11.5 61.5q4 52 7.5 104.5t6.5 112t7 132.5t8 165h385v-714h-120v610h-158q-4 -68 -6.5 -124t-5.5 -106t-6 -96.5t-7 -95.5q-6 -68 -23 -112t-49 -65.5t-82 -21.5z" />
    <glyph glyph-name="uni041C" unicode="&#x41c;" horiz-adv-x="802" 
d="M75 0v714h168l155 -534h4l157 534h168v-714h-115v394q0 24 0.5 52t2 58t3.5 59h-4l-167 -563h-100l-164 563h-4q3 -29 4.5 -60t2.5 -59t1 -52v-392h-112z" />
    <glyph glyph-name="uni041D" unicode="&#x41d;" horiz-adv-x="621" 
d="M75 0v714h120v-290h231v290h120v-714h-120v320h-231v-320h-120z" />
    <glyph glyph-name="uni041E" unicode="&#x41e;" horiz-adv-x="630" 
d="M315 -10q-67 0 -117 25t-83.5 72.5t-50 116t-16.5 155.5q0 120 30.5 201t90 122.5t147.5 41.5q87 0 146.5 -41t89.5 -122.5t30 -202.5q0 -86 -17 -154.5t-50 -116t-83 -72.5t-117 -25zM315 94q71 0 106.5 66.5t35.5 197.5t-35 197t-106 66q-72 0 -108 -66.5t-36 -196.5
q0 -87 16 -146t48 -88.5t79 -29.5z" />
    <glyph glyph-name="uni041F" unicode="&#x41f;" horiz-adv-x="611" 
d="M75 0v714h461v-714h-120v610h-221v-610h-120z" />
    <glyph glyph-name="uni0420" unicode="&#x420;" horiz-adv-x="520" 
d="M75 0v714h176q118 0 176 -55t57 -165q1 -74 -26 -126t-79.5 -79t-132.5 -27h-51v-262h-120zM195 365h46q42 0 68.5 13.5t39.5 41.5t13 72q0 63 -27.5 91t-88.5 28h-51v-246z" />
    <glyph glyph-name="uni0421" unicode="&#x421;" horiz-adv-x="528" 
d="M325 -10q-89 0 -151 42t-94 123.5t-32 199.5q0 112 33.5 195t97.5 128.5t155 45.5q43 0 83.5 -9.5t78.5 -29.5l-39 -99q-32 17 -61 25t-58 8q-53 0 -90 -30t-56 -88.5t-19 -146.5q0 -127 42.5 -193.5t129.5 -66.5q32 0 65 9t66 25v-105q-30 -16 -70 -24.5t-81 -8.5z" />
    <glyph glyph-name="uni0422" unicode="&#x422;" horiz-adv-x="459" 
d="M289 0h-119v610h-156v104h430v-104h-155v-610z" />
    <glyph glyph-name="uni0423" unicode="&#x423;" horiz-adv-x="509" 
d="M118 -10q-19 0 -37.5 3t-33.5 8v105q12 -4 25.5 -6.5t27.5 -2.5q32 0 53.5 14.5t38 50t33.5 98.5l-4 -111l-213 565h129l100 -287q5 -15 10 -31.5t10 -34.5t9 -37h5q4 18 7.5 34.5t8.5 32.5t9 32l90 291h123l-172 -504q-27 -80 -57 -128.5t-69 -70t-93 -21.5z" />
    <glyph glyph-name="uni0424" unicode="&#x424;" horiz-adv-x="726" 
d="M305 -12v99q-84 1 -143.5 34.5t-90.5 95t-31 146.5t31 145.5t90 94t144 34.5v88h116v-88q86 -1 145 -34.5t89.5 -94t30.5 -144.5q0 -86 -30.5 -147.5t-90 -95t-144.5 -34.5v-99h-116zM305 186v351q-49 -1 -81 -20.5t-48 -57.5t-16 -96q0 -57 16 -96t48.5 -59t80.5 -22z
M421 187q49 1 81 21t48.5 59t16.5 98q0 57 -16 95t-48 57t-82 20v-350z" />
    <glyph glyph-name="uni0425" unicode="&#x425;" horiz-adv-x="503" 
d="M3 0l204 416l-1 -97l-188 395h127l128 -298h-42l128 298h127l-187 -397l-2 96l203 -413h-131l-139 316h44l-145 -316h-126z" />
    <glyph glyph-name="uni0426" unicode="&#x426;" horiz-adv-x="624" 
d="M498 -145v145h-423v714h120v-610h220v610h121v-610h79v-249h-117z" />
    <glyph glyph-name="uni0427" unicode="&#x427;" horiz-adv-x="582" 
d="M387 0l-1 325l26 -29q-39 -18 -77.5 -27t-79.5 -9q-96 0 -147 49.5t-51 145.5v259h120v-234q0 -63 25 -89.5t81 -26.5q32 0 64 8t66 25l-27 -61v378h121v-714h-120z" />
    <glyph glyph-name="uni0428" unicode="&#x428;" horiz-adv-x="874" 
d="M75 0v714h120v-609h182v609h120v-609h182v609h120v-714h-724z" />
    <glyph glyph-name="uni0429" unicode="&#x429;" horiz-adv-x="881" 
d="M755 -145v145h-680v714h120v-610h179v610h120v-610h179v610h120v-610h79v-249h-117z" />
    <glyph glyph-name="uni042A" unicode="&#x42a;" horiz-adv-x="604" 
d="M154 0v609h-140v105h260v-261h63q115 0 174 -56.5t59 -166.5q0 -111 -60.5 -170.5t-174.5 -59.5h-181zM274 103h57q58 0 87 32.5t29 94.5q0 60 -28.5 90t-88.5 30h-56v-247z" />
    <glyph glyph-name="uni042B" unicode="&#x42b;" horiz-adv-x="762" 
d="M75 0v714h120v-259h59q115 0 174 -56.5t59 -166.5q0 -112 -60.5 -172t-174.5 -60h-177zM195 103h53q58 0 87.5 32.5t29.5 95.5t-28.5 92.5t-88.5 29.5h-53v-250zM567 0v714h120v-714h-120z" />
    <glyph glyph-name="uni042C" unicode="&#x42c;" horiz-adv-x="526" 
d="M75 0v714h120v-261h63q115 0 174 -56.5t59 -165.5q0 -111 -60.5 -171t-173.5 -60h-182zM195 103h57q58 0 87.5 32.5t29.5 95.5q0 60 -29 89.5t-89 29.5h-56v-247z" />
    <glyph glyph-name="uni042D" unicode="&#x42d;" horiz-adv-x="532" 
d="M197 -10q-43 0 -83 8.5t-72 24.5v105q37 -17 72 -25.5t67 -8.5q62 0 101.5 29.5t58.5 89t19 149.5q0 87 -18.5 144.5t-55 85.5t-90.5 28q-31 0 -61 -8.5t-62 -23.5l-37 98q40 19 83 28.5t86 9.5q91 0 152.5 -42t93.5 -122.5t32 -196.5q0 -111 -32 -195.5t-95.5 -131
t-158.5 -46.5zM116 315v104h257v-104h-257z" />
    <glyph glyph-name="uni042E" unicode="&#x42e;" horiz-adv-x="831" 
d="M529 -10q-117 0 -180.5 83.5t-71.5 245.5h-81l-1 -319h-120l1 714h120v-290h82q8 98 39 165t85 101.5t128 34.5q83 0 139 -42t85 -123.5t29 -201.5q0 -180 -65 -274t-189 -94zM527 95q66 0 98.5 65.5t32.5 197.5q0 133 -32 197.5t-97 64.5t-98 -65t-33 -197t32.5 -197.5
t96.5 -65.5z" />
    <glyph glyph-name="uni042F" unicode="&#x42f;" horiz-adv-x="546" 
d="M13 0l161 310q-37 17 -63 43t-39.5 64t-13.5 85q0 104 60.5 158t175.5 54h177v-714h-120v281h-68l-137 -281h-133zM296 380h55v231h-54q-59 0 -87.5 -26.5t-28.5 -84.5q0 -60 29.5 -90t85.5 -30z" />
    <glyph glyph-name="uni0430" unicode="&#x430;" horiz-adv-x="483" 
d="M174 -10q-45 0 -76.5 20.5t-47.5 57t-16 84.5q0 88 53 132.5t151 47.5l69 3v41q0 42 -20 61.5t-64 19.5q-29 0 -61 -9t-69 -26l-31 90q42 21 86 31t90 10q93 0 138.5 -43t45.5 -133v-377h-84l-20 74h-3q-17 -29 -38 -47.5t-46 -27.5t-57 -9zM216 81q41 0 66 33.5t25 93.5
v49l-48 -2q-56 -2 -82 -26t-26 -69q0 -39 17.5 -59t47.5 -20z" />
    <glyph glyph-name="uni0431" unicode="&#x431;" horiz-adv-x="514" 
d="M261 -10q-71 0 -119.5 35.5t-73.5 111t-25 194.5q0 97 14 169.5t42.5 122t72 79.5t102.5 43q21 5 46 9.5t53.5 9t56.5 7.5l10 -104q-26 -4 -51.5 -8t-48.5 -8t-44 -10q-48 -12 -77 -37t-43 -65.5t-20 -99.5h7q16 30 37 48.5t46.5 27t55.5 8.5q56 0 94.5 -30.5t58.5 -88
t20 -140.5q0 -84 -25.5 -145.5t-73 -95t-115.5 -33.5zM261 87q31 0 52.5 18.5t32.5 56.5t11 96q0 84 -22.5 126t-72.5 42q-48 0 -72 -41t-24 -126q0 -59 11 -97t32 -56.5t52 -18.5z" />
    <glyph glyph-name="uni0432" unicode="&#x432;" horiz-adv-x="491" 
d="M66 0v543h189q58 0 99.5 -15t64 -45.5t22.5 -77.5t-23 -77.5t-68 -40.5v-4q50 -7 78 -40t28 -85q0 -47 -21.5 -82.5t-64 -55.5t-108.5 -20h-196zM182 88h73q42 0 63 19t21 58t-21.5 57t-64.5 18h-71v-152zM182 326h69q38 0 56.5 16.5t18.5 47.5q0 33 -18.5 48.5
t-56.5 15.5h-69v-128z" />
    <glyph glyph-name="uni0433" unicode="&#x433;" horiz-adv-x="380" 
d="M66 0v543h301v-97h-185v-446h-116z" />
    <glyph glyph-name="uni0434" unicode="&#x434;" horiz-adv-x="544" 
d="M9 -127v224h50q17 27 29 54.5t19 61t10 75.5q2 24 3.5 48.5t3 54t3 67t2.5 85.5h338v-447h65v-223h-111v127h-301v-127h-111zM177 97h175v350h-119q-1 -29 -2.5 -57t-3 -54.5t-3.5 -53.5q-5 -64 -17 -107.5t-30 -77.5z" />
    <glyph glyph-name="uni0435" unicode="&#x435;" horiz-adv-x="480" 
d="M269 -10q-75 0 -126.5 33t-77.5 95.5t-26 149.5q0 93 25.5 156.5t72 96.5t110.5 33t107.5 -30.5t65.5 -85.5t22 -129v-68h-286q2 -79 32.5 -117.5t92.5 -38.5q36 0 68.5 9t68.5 29v-98q-33 -18 -70 -26.5t-79 -8.5zM157 327h176q0 40 -9.5 70t-28.5 47.5t-48 17.5
q-39 0 -62.5 -32.5t-27.5 -102.5z" />
    <glyph glyph-name="uni0436" unicode="&#x436;" horiz-adv-x="667" 
d="M538 0l-130 272l-2 9l131 262h116l-143 -276l-4 44l158 -311h-126zM3 0l158 311l-3 -44l-144 276h116l131 -262l-2 -9l-129 -272h-127zM278 0v543h111v-543h-111zM217 231v95h254v-95h-254z" />
    <glyph glyph-name="uni0437" unicode="&#x437;" horiz-adv-x="422" 
d="M181 -10q-41 0 -80 8t-68 23v98q34 -16 68.5 -25t68.5 -9q49 0 74.5 20t25.5 58q0 37 -25 55.5t-79 18.5h-64v87h62q47 0 70.5 18t23.5 52q0 32 -21 48.5t-61 16.5q-25 0 -50.5 -6t-54.5 -19l-34 87q36 16 74.5 24t77.5 8q88 0 136 -38t48 -104q0 -47 -23 -79t-69 -45v-5
q52 -11 79 -44.5t27 -84.5q0 -76 -54 -119.5t-152 -43.5z" />
    <glyph glyph-name="uni0438" unicode="&#x438;" horiz-adv-x="538" 
d="M66 0v543h111v-249q0 -23 -0.5 -47t-2.5 -48.5t-5 -47.5h2l169 392h132v-543h-110v249q0 24 1 48.5t2.5 48.5t4.5 45h-3l-169 -391h-132z" />
    <glyph glyph-name="uni0439" unicode="&#x439;" horiz-adv-x="538" 
d="M66 0v543h111v-249q0 -23 -0.5 -47t-2.5 -48.5t-5 -47.5h2l169 392h132v-543h-110v249q0 24 1 48.5t2.5 48.5t4.5 45h-3l-169 -391h-132zM268 603q-71 0 -110 37.5t-45 110.5h95q3 -39 17.5 -58t43.5 -19q28 0 42.5 19t17.5 58h95q-6 -72 -46 -110t-110 -38z" />
    <glyph glyph-name="uni043A" unicode="&#x43a;" horiz-adv-x="476" 
d="M346 0l-139 273v9l138 261h119l-152 -276l-4 47l165 -314h-127zM66 0v543h116v-543h-116zM168 231v96h94v-96h-94z" />
    <glyph glyph-name="uni043B" unicode="&#x43b;" horiz-adv-x="515" 
d="M62 -7q-16 0 -30 2t-27 6v96q10 -2 16.5 -3t13.5 -1q18 0 29.5 7.5t18 27t9.5 55.5t5 71.5t4.5 76.5t4.5 92.5t5 119.5h337v-543h-116v446h-118q-3 -48 -4.5 -87.5t-3.5 -73.5t-4.5 -66t-5.5 -66q-8 -85 -39.5 -122.5t-94.5 -37.5z" />
    <glyph glyph-name="uni043C" unicode="&#x43c;" horiz-adv-x="693" 
d="M66 0v543h162l135 -430h-33l136 430h161v-543h-109v281q0 29 1.5 65t4.5 73h-3l-131 -419h-89l-131 420h-3q3 -36 4.5 -72t1.5 -67v-281h-107z" />
    <glyph glyph-name="uni043D" unicode="&#x43d;" horiz-adv-x="528" 
d="M66 0v543h116v-216h164v216h116v-543h-116v231h-164v-231h-116z" />
    <glyph glyph-name="uni043E" unicode="&#x43e;" horiz-adv-x="511" 
d="M254 -10q-50 0 -90 19t-68 55.5t-42.5 89t-14.5 118.5q0 90 25.5 152.5t74 95.5t118.5 33q68 0 116 -33t73.5 -95t25.5 -153q0 -66 -14.5 -118.5t-42 -89t-68 -55.5t-93.5 -19zM256 86q50 0 74 46t24 140t-24 139.5t-74 45.5q-51 0 -74.5 -46t-23.5 -139t23.5 -139.5
t74.5 -46.5z" />
    <glyph glyph-name="uni043F" unicode="&#x43f;" horiz-adv-x="519" 
d="M66 0v543h387v-543h-116v447h-155v-447h-116z" />
    <glyph glyph-name="uni0440" unicode="&#x440;" horiz-adv-x="527" 
d="M66 -240v783h94l16 -72h6q16 28 35 46.5t42.5 27t52.5 8.5q82 0 128.5 -72t46.5 -210q0 -89 -21 -152t-60 -96t-92 -33q-30 0 -54.5 9.5t-43.5 27t-34 42.5h-5q2 -24 3.5 -46t1.5 -38v-225h-116zM279 89q31 0 50.5 20.5t29.5 61t10 100.5q0 92 -21.5 138.5t-69.5 46.5
q-33 0 -54.5 -18t-31.5 -55.5t-10 -95.5v-22q0 -59 10 -98.5t31.5 -58.5t55.5 -19z" />
    <glyph glyph-name="uni0441" unicode="&#x441;" horiz-adv-x="423" 
d="M260 -10q-106 0 -163.5 71t-57.5 206q0 93 26.5 156.5t76.5 97t121 33.5q37 0 70 -8.5t60 -23.5l-32 -91q-25 13 -47 19t-44 6q-56 0 -84.5 -46.5t-28.5 -140.5q1 -93 30.5 -137.5t91.5 -44.5q26 0 53 7.5t53 21.5v-97q-26 -14 -58.5 -21.5t-66.5 -7.5z" />
    <glyph glyph-name="uni0442" unicode="&#x442;" horiz-adv-x="403" 
d="M144 0v447h-132v96h379v-96h-131v-447h-116z" />
    <glyph glyph-name="uni0443" unicode="&#x443;" horiz-adv-x="456" 
d="M90 -240q-19 0 -35 2.5t-29 5.5v99q12 -3 22.5 -4.5t22.5 -1.5q23 0 39.5 8.5t29 30t22.5 57.5l28 99l1 -104l-187 591h123l79 -288q6 -18 10 -37t7.5 -38t5.5 -37h4q3 24 9.5 52t14.5 60l76 288h120l-181 -609q-18 -60 -42.5 -98.5t-58.5 -57t-81 -18.5z" />
    <glyph glyph-name="uni0444" unicode="&#x444;" horiz-adv-x="671" 
d="M308 -10q-86 0 -145.5 34.5t-91 97t-31.5 148.5q0 87 31.5 150t91.5 97t146 34h53q86 0 146 -34t91.5 -97t31.5 -150q0 -86 -31.5 -148.5t-90.5 -97t-145 -34.5h-56zM279 -240v258l1 52v421l-2 26v243h114v-243l-1 -25v-422l1 -54v-256h-113zM299 85h73q68 0 105 49
t37 137q0 87 -37 136.5t-105 49.5h-73q-68 0 -105 -49.5t-37 -136.5q0 -88 37 -137t105 -49z" />
    <glyph glyph-name="uni0445" unicode="&#x445;" horiz-adv-x="453" 
d="M9 0l170 326l1 -95l-164 312h127l106 -227h-43l106 227h126l-164 -314v95l171 -324h-127l-116 239h47l-115 -239h-125z" />
    <glyph glyph-name="uni0446" unicode="&#x446;" horiz-adv-x="529" 
d="M407 -127v127h-341v543h116v-447h155v447h116v-447h65v-223h-111z" />
    <glyph glyph-name="uni0447" unicode="&#x447;" horiz-adv-x="510" 
d="M328 0v243l22 -28q-29 -13 -62 -21t-70 -8q-84 0 -127.5 44t-43.5 124v189h116v-170q0 -49 19.5 -70t64.5 -21q25 0 51 6.5t55 21.5l-25 -46v279h115v-543h-115z" />
    <glyph glyph-name="uni0448" unicode="&#x448;" horiz-adv-x="767" 
d="M68 0v543h116v-447h142v447h115v-447h141v447h116v-543h-630z" />
    <glyph glyph-name="uni0449" unicode="&#x449;" horiz-adv-x="771" 
d="M648 -127v127h-581v543h116v-447h140v447h116v-447h139v447h116v-447h65v-223h-111z" />
    <glyph glyph-name="uni044A" unicode="&#x44a;" horiz-adv-x="543" 
d="M135 0v444h-123v99h239v-192h60q100 0 151 -43.5t51 -130.5q0 -86 -51.5 -131.5t-148.5 -45.5h-178zM251 94h55q44 0 67 20.5t23 61.5t-23 61.5t-68 20.5h-54v-164z" />
    <glyph glyph-name="uni044B" unicode="&#x44b;" horiz-adv-x="689" 
d="M66 0v543h116v-191h55q99 0 150.5 -43.5t51.5 -129.5q0 -87 -51.5 -133t-149.5 -46h-172zM182 94h50q45 0 67.5 21t22.5 62q0 42 -22.5 62t-67.5 20h-50v-165zM507 0v543h116v-543h-116z" />
    <glyph glyph-name="uni044C" unicode="&#x44c;" horiz-adv-x="474" 
d="M66 0v543h116v-192h61q99 0 150 -43t51 -130q0 -86 -51.5 -132t-148.5 -46h-178zM182 94h55q44 0 67 21.5t23 61.5q0 41 -22.5 61t-68.5 20h-54v-164z" />
    <glyph glyph-name="uni044D" unicode="&#x44d;" horiz-adv-x="429" 
d="M164 -10q-34 0 -67 7.5t-59 21.5v96q26 -14 55 -21.5t56 -7.5q65 0 95 46.5t29 141.5q0 93 -28.5 138.5t-85.5 45.5q-23 0 -46.5 -7t-48.5 -20l-31 89q29 15 65 24t72 9q69 0 117.5 -32.5t75 -94.5t26.5 -154q0 -136 -58.5 -209t-166.5 -73zM91 233v88h195l1 -88h-196z
" />
    <glyph glyph-name="uni044E" unicode="&#x44e;" horiz-adv-x="693" 
d="M447 -10q-63 0 -107.5 32t-68 92.5t-25.5 147.5l37 -31h-101v-231h-116v543h116v-216h102l-38 -32q4 83 28 140.5t68.5 87.5t107.5 30q65 0 110 -32.5t69.5 -94.5t24.5 -153q0 -89 -24 -152.5t-70 -97t-113 -33.5zM449 87q47 0 67 46t20 140q0 93 -20 138t-67 45
q-46 0 -67 -46t-21 -138t21 -138.5t67 -46.5z" />
    <glyph glyph-name="uni044F" unicode="&#x44f;" horiz-adv-x="490" 
d="M13 0l154 266l14 -54q-63 8 -100 51t-37 113q0 80 49.5 123.5t137.5 43.5h193v-543h-115v204h-58l-112 -204h-126zM249 293h60v161h-61q-42 0 -64 -19.5t-22 -58.5q0 -40 22.5 -61.5t64.5 -21.5z" />
    <glyph glyph-name="uni0451" unicode="&#x451;" horiz-adv-x="480" 
d="M269 -10q-75 0 -126.5 33t-77.5 95.5t-26 149.5q0 93 25.5 156.5t72 96.5t110.5 33t107.5 -30.5t65.5 -85.5t22 -129v-68h-286q2 -79 32.5 -117.5t92.5 -38.5q36 0 68.5 9t68.5 29v-98q-33 -18 -70 -26.5t-79 -8.5zM157 327h176q0 40 -9.5 70t-28.5 47.5t-48 17.5
q-39 0 -62.5 -32.5t-27.5 -102.5zM162 614q-26 0 -41 16t-15 46q0 33 15.5 48t40.5 15t40.5 -15.5t15.5 -47.5q0 -30 -15.5 -46t-40.5 -16zM332 614q-26 0 -41 16t-15 46q0 33 15.5 48t40.5 15q26 0 41 -15.5t15 -47.5q0 -30 -15.5 -46t-40.5 -16z" />
    <glyph glyph-name="uni0452" unicode="&#x452;" horiz-adv-x="533" 
d="M316 -240q-20 0 -40.5 3.5t-34.5 8.5v97q10 -3 23 -5.5t25 -2.5q34 0 49 19.5t15 62.5v372q0 62 -17.5 90.5t-55.5 28.5q-33 0 -54.5 -18.5t-31.5 -59t-10 -106.5v-250h-116v594h-65v84h65v82h116v-82h131v-84h-131v-49q0 -22 -2 -45.5t-6 -45.5h7q13 26 31.5 44
t43.5 27.5t55 9.5q77 0 116.5 -49.5t39.5 -143.5v-399q0 -88 -36.5 -135.5t-116.5 -47.5z" />
    <glyph glyph-name="uni0453" unicode="&#x453;" horiz-adv-x="381" 
d="M66 0v543h301v-97h-185v-446h-116zM165 600v13l91 147h133v-9l-145 -151h-79z" />
    <glyph glyph-name="uni0454" unicode="&#x454;" horiz-adv-x="424" 
d="M258 -10q-105 0 -162 71t-57 206q0 93 26.5 156.5t76.5 96.5t121 33q37 0 70.5 -8.5t60.5 -23.5l-33 -89q-24 13 -47 19t-45 6q-58 0 -86.5 -46.5t-28.5 -141.5t30 -139.5t93 -44.5q26 0 54 7.5t54 21.5v-95q-25 -14 -58.5 -21.5t-68.5 -7.5zM140 233v88h196v-88h-196z
" />
    <glyph glyph-name="uni0455" unicode="&#x455;" horiz-adv-x="398" 
d="M181 -10q-42 0 -78.5 8t-68.5 23v107q32 -18 70 -30t72 -11q38 0 56.5 15.5t18.5 43.5q0 17 -7 30.5t-27.5 28t-59.5 32.5q-39 21 -66.5 43t-42 51.5t-14.5 70.5q0 71 48 111t129 40q41 0 78 -10t72 -30l-35 -88q-27 15 -55 24.5t-57 9.5q-33 0 -50 -13.5t-17 -37.5
q0 -16 7.5 -28.5t28 -25.5t58.5 -33t66 -42t43.5 -51.5t15.5 -73.5q0 -53 -21.5 -89.5t-63 -55.5t-100.5 -19z" />
    <glyph glyph-name="uni0456" unicode="&#x456;" horiz-adv-x="250" 
d="M67 0v543h116v-543h-116zM125 617q-30 0 -47 16.5t-17 50.5q0 35 16.5 51.5t47.5 16.5t47.5 -17t16.5 -52q0 -33 -17 -49.5t-47 -16.5z" />
    <glyph glyph-name="uni0457" unicode="&#x457;" horiz-adv-x="248" 
d="M66 0v543h116v-543h-116zM63 617q-51 0 -51 67q0 66 52 66q25 0 37.5 -17t12.5 -50q0 -31 -12.5 -48.5t-38.5 -17.5zM185 617q-50 0 -50 67q0 66 51 66q25 0 37.5 -17t12.5 -50q0 -32 -12.5 -49t-38.5 -17z" />
    <glyph glyph-name="uni0458" unicode="&#x458;" horiz-adv-x="248" 
d="M37 -240q-19 0 -37.5 3t-33.5 8v98q12 -4 23.5 -6.5t24.5 -2.5q25 0 38.5 18.5t13.5 60.5v604h116v-610q0 -57 -16 -95.5t-48.5 -57.5t-80.5 -20zM60 685q0 35 17 51.5t48 16.5q30 0 47 -17t17 -51t-17 -50.5t-47 -16.5t-47.5 16.5t-17.5 50.5z" />
    <glyph glyph-name="uni0459" unicode="&#x459;" horiz-adv-x="726" 
d="M62 -7q-15 0 -29 1.5t-28 6.5v96q10 -2 16.5 -3t13.5 -1q18 0 29.5 7.5t18.5 27t9 55.5q3 35 5.5 70.5t4.5 76.5t4.5 93t4.5 120h328v-191h55q100 0 151 -43t51 -129q0 -87 -51 -133.5t-149 -46.5h-172v445h-110q-2 -48 -4 -87.5t-4 -73.5t-4 -66t-5 -65
q-8 -85 -40.5 -122.5t-94.5 -37.5zM439 94h50q45 0 67.5 21t22.5 62t-23 61.5t-68 20.5h-49v-165z" />
    <glyph glyph-name="uni045A" unicode="&#x45a;" horiz-adv-x="740" 
d="M66 0v543h116v-203h154v203h114v-203h61q98 0 148.5 -42t50.5 -124q0 -85 -51 -129.5t-147 -44.5h-176v246h-154v-246h-116zM450 94h55q44 0 66 19.5t22 57.5t-22 56.5t-67 18.5h-54v-152z" />
    <glyph glyph-name="uni045B" unicode="&#x45b;" horiz-adv-x="533" 
d="M68 0v594h-65v85h65v81h116v-81h134v-85h-134v-49q0 -22 -2 -45.5t-6 -45.5h7q13 26 32 44t44.5 27.5t55.5 9.5q76 0 115 -49t39 -144v-342h-116v315q0 61 -17.5 90t-55.5 29q-35 0 -56 -18.5t-30.5 -59t-9.5 -106.5v-250h-116z" />
    <glyph glyph-name="uni045C" unicode="&#x45c;" horiz-adv-x="476" 
d="M346 0l-139 273v9l138 261h119l-152 -276l-4 47l165 -314h-127zM66 0v543h116v-543h-116zM168 231v96h94v-96h-94zM212 600v13l91 147h133v-9l-145 -151h-79z" />
    <glyph glyph-name="uni045E" unicode="&#x45e;" horiz-adv-x="456" 
d="M90 -240q-19 0 -35 2.5t-29 5.5v99q12 -3 22.5 -4.5t22.5 -1.5q23 0 39.5 8.5t29 30t22.5 57.5l28 99l1 -104l-187 591h123l79 -288q6 -18 10 -37t7.5 -38t5.5 -37h4q3 24 9.5 52t14.5 60l76 288h120l-181 -609q-18 -60 -42.5 -98.5t-58.5 -57t-81 -18.5zM232 598
q-71 0 -110 37.5t-45 110.5h95q3 -39 17.5 -58t43.5 -19q28 0 42.5 19t17.5 58h95q-6 -72 -46 -110t-110 -38z" />
    <glyph glyph-name="uni045F" unicode="&#x45f;" horiz-adv-x="524" 
d="M207 -126v126h-138v543h116v-447h154v447h116v-543h-137v-126h-111z" />
    <glyph glyph-name="uni0490" unicode="&#x490;" horiz-adv-x="454" 
d="M435 864v-254h-240v-610h-120v714h247v150h113z" />
    <glyph glyph-name="uni0491" unicode="&#x491;" horiz-adv-x="387" 
d="M368 694v-246h-186v-448h-116v543h192v151h110z" />
    <glyph glyph-name="Wgrave" unicode="&#x1e80;" horiz-adv-x="814" 
d="M810 714l-155 -714h-137l-87 391q-2 15 -5.5 34t-7 40t-7 43.5t-5.5 42.5q-2 -15 -4.5 -35t-6 -42t-7 -43t-7.5 -39l-86 -392h-136l-156 714h119l81 -395q4 -22 8.5 -47t8.5 -49.5t7.5 -47.5t4.5 -42q3 22 7 46.5l8 49t8.5 47t8.5 40.5l89 398h108l87 -398q4 -18 8 -40.5
t8.5 -47t8 -48.5t6.5 -47q3 29 7.5 61t10.5 64.5t11 60.5l82 395h120zM403 937q11 -22 27 -50t33.5 -54t30.5 -44v-12h-79q-15 13 -36 32t-42 41t-39 42.5t-29 35.5v9h134z" />
    <glyph glyph-name="wgrave" unicode="&#x1e81;" horiz-adv-x="707" 
d="M382 276q-3 16 -7 37l-8 42t-7 41t-5 34h-3q-3 -16 -6.5 -36t-7 -41.5t-7.5 -41t-8 -35.5l-59 -276h-130l-126 543h116l52 -240q5 -27 10 -58t9.5 -61.5t7.5 -57.5h3q2 17 5 37.5t6 42.5t7 44t9 43l56 250h130l55 -252q5 -22 9.5 -50.5t9 -58t7.5 -56.5h4q2 19 5 44.5
t7.5 53.5t10.5 55l58 264h114l-129 -543h-132zM350 766q11 -22 27 -50t33.5 -54t30.5 -44v-12h-79q-15 13 -36 32t-42 41t-39 42.5t-29 35.5v9h134z" />
    <glyph glyph-name="Wacute" unicode="&#x1e82;" horiz-adv-x="814" 
d="M810 714l-155 -714h-137l-87 391q-2 15 -5.5 34t-7 40t-7 43.5t-5.5 42.5q-2 -15 -4.5 -35t-6 -42t-7 -43t-7.5 -39l-86 -392h-136l-156 714h119l81 -395q4 -22 8.5 -47t8.5 -49.5t7.5 -47.5t4.5 -42q3 22 7 46.5l8 49t8.5 47t8.5 40.5l89 398h108l87 -398q4 -18 8 -40.5
t8.5 -47t8 -48.5t6.5 -47q3 29 7.5 61t10.5 64.5t11 60.5l82 395h120zM569 928q-10 -15 -28 -34.5t-38.5 -41t-41.5 -41t-38 -34.5h-79v12q18 25 34.5 50.5t31.5 50.5t25 47h134v-9z" />
    <glyph glyph-name="wacute" unicode="&#x1e83;" horiz-adv-x="707" 
d="M382 276q-3 16 -7 37l-8 42t-7 41t-5 34h-3q-3 -16 -6.5 -36t-7 -41.5t-7.5 -41t-8 -35.5l-59 -276h-130l-126 543h116l52 -240q5 -27 10 -58t9.5 -61.5t7.5 -57.5h3q2 17 5 37.5t6 42.5t7 44t9 43l56 250h130l55 -252q5 -22 9.5 -50.5t9 -58t7.5 -56.5h4q2 19 5 44.5
t7.5 53.5t10.5 55l58 264h114l-129 -543h-132zM516 757q-10 -15 -28 -34.5t-38.5 -41t-41.5 -41t-38 -34.5h-79v12q18 25 34.5 50.5t31.5 50.5t25 47h134v-9z" />
    <glyph glyph-name="Wdieresis" unicode="&#x1e84;" horiz-adv-x="814" 
d="M810 714l-155 -714h-137l-87 391q-2 15 -5.5 34t-7 40t-7 43.5t-5.5 42.5q-2 -15 -4.5 -35t-6 -42t-7 -43t-7.5 -39l-86 -392h-136l-156 714h119l81 -395q4 -22 8.5 -47t8.5 -49.5t7.5 -47.5t4.5 -42q3 22 7 46.5l8 49t8.5 47t8.5 40.5l89 398h108l87 -398q4 -18 8 -40.5
t8.5 -47t8 -48.5t6.5 -47q3 29 7.5 61t10.5 64.5t11 60.5l82 395h120zM260 849q0 32 16 46.5t40 14.5t40 -15t16 -45t-16 -45.5t-40 -15.5t-40 15.5t-16 44.5zM440 849q0 32 16 46.5t40 14.5q25 0 40.5 -15t15.5 -45t-16 -45.5t-40 -15.5t-40 15.5t-16 44.5z" />
    <glyph glyph-name="wdieresis" unicode="&#x1e85;" horiz-adv-x="707" 
d="M382 276q-3 16 -7 37l-8 42t-7 41t-5 34h-3q-3 -16 -6.5 -36t-7 -41.5t-7.5 -41t-8 -35.5l-59 -276h-130l-126 543h116l52 -240q5 -27 10 -58t9.5 -61.5t7.5 -57.5h3q2 17 5 37.5t6 42.5t7 44t9 43l56 250h130l55 -252q5 -22 9.5 -50.5t9 -58t7.5 -56.5h4q2 19 5 44.5
t7.5 53.5t10.5 55l58 264h114l-129 -543h-132zM207 678q0 32 16 46.5t40 14.5t40 -15t16 -45t-16 -45.5t-40 -15.5t-40 15.5t-16 44.5zM387 678q0 32 16 46.5t40 14.5q25 0 40.5 -15t15.5 -45t-16 -45.5t-40 -15.5t-40 15.5t-16 44.5z" />
    <glyph glyph-name="Ygrave" unicode="&#x1ef2;" horiz-adv-x="491" 
d="M246 404l119 310h126l-186 -437v-277h-119v273l-186 441h127zM242 937q11 -22 27 -50t33.5 -54t30.5 -44v-12h-79q-15 13 -36 32t-42 41t-39 42.5t-29 35.5v9h134z" />
    <glyph glyph-name="ygrave" unicode="&#x1ef3;" horiz-adv-x="455" 
d="M2 543h123l80 -288q5 -18 9 -37l8 -38t5 -37h4q3 24 9.5 52t14.5 60l77 288h121l-182 -609q-18 -60 -43 -98.5t-59 -57t-79 -18.5q-17 0 -32.5 2t-30.5 6v99q11 -3 22.5 -5t22.5 -2q24 0 39.5 10t27 31.5t22.5 57.5l12 45zM224 766q11 -22 27 -50t33.5 -54t30.5 -44v-12
h-79q-15 13 -36 32t-42 41t-39 42.5t-29 35.5v9h134z" />
    <glyph glyph-name="endash" unicode="&#x2013;" horiz-adv-x="500" 
d="M36 222v95h428v-95h-428z" />
    <glyph glyph-name="emdash" unicode="&#x2014;" horiz-adv-x="1000" 
d="M36 222v95h928v-95h-928z" />
    <glyph glyph-name="uni2015" unicode="&#x2015;" horiz-adv-x="1000" 
d="M36 222v95h928v-95h-928z" />
    <glyph glyph-name="underscoredbl" unicode="&#x2017;" horiz-adv-x="446" 
d="M448 -230h-450v65h450v-65zM448 -107h-450v64h450v-64z" />
    <glyph glyph-name="quoteleft" unicode="&#x2018;" horiz-adv-x="215" 
d="M25 469q9 43 21 86t26 83t30 76h89q-9 -40 -18 -86t-15.5 -90t-10.5 -80h-116z" />
    <glyph glyph-name="quoteright" unicode="&#x2019;" horiz-adv-x="215" 
d="M190 703q-9 -42 -20.5 -85t-25.5 -83t-30 -77h-90q7 29 14 62.5t13 68.5t10.5 67t6.5 58h115z" />
    <glyph glyph-name="quotesinglbase" unicode="&#x201a;" horiz-adv-x="252" 
d="M201 105q-9 -42 -20.5 -85t-25.5 -83t-30 -77h-90q7 29 14 62.5t13 68.5t10.5 67t6.5 58h115z" />
    <glyph glyph-name="quotereversed" unicode="&#x201b;" horiz-adv-x="215" 
d="M147 714q4 -36 10.5 -80.5t15.5 -90t18 -85.5h-89q-16 37 -30 77t-26 82.5t-21 85.5l6 11h116z" />
    <glyph glyph-name="quotedblleft" unicode="&#x201c;" horiz-adv-x="411" 
d="M387 714q-9 -41 -17.5 -86t-15 -88.5t-10.5 -81.5h-116l-7 11q10 43 21.5 86t26 83t28.5 76h90zM191 714q-9 -40 -18 -86t-15.5 -90t-10.5 -80h-116l-6 11q9 43 21 86t26 83t30 76h89z" />
    <glyph glyph-name="quotedblright" unicode="&#x201d;" horiz-adv-x="411" 
d="M387 703q-9 -42 -21 -85t-26 -83t-30 -77h-90q11 44 19 88t15 86.5t11 81.5h115zM190 703q-9 -42 -21 -85t-25.5 -83t-29.5 -77h-90q7 29 13.5 62.5t12.5 68.5t11 67t7 58h115z" />
    <glyph glyph-name="quotedblbase" unicode="&#x201e;" horiz-adv-x="430" 
d="M389 112q-9 -42 -21 -85t-26 -83t-30 -77h-90q11 44 19 88t15 86.5t11 81.5h115zM192 112q-9 -42 -21 -85t-25.5 -83t-29.5 -77h-90q7 29 13.5 62.5t12.5 68.5t11 67t7 58h115z" />
    <glyph glyph-name="dagger" unicode="&#x2020;" horiz-adv-x="483" 
d="M429 467l-153 13l23 -480h-118l23 480l-150 -13v101l150 -15l-23 207h118l-23 -207l153 15v-101z" />
    <glyph glyph-name="daggerdbl" unicode="&#x2021;" horiz-adv-x="483" 
d="M278 259l152 13v-100l-152 14l23 -186h-117l22 186l-153 -14v100l153 -13l-18 125l18 117l-153 -13v100l153 -14l-22 186h117l-23 -186l152 14v-100l-152 13l18 -117z" />
    <glyph glyph-name="bullet" unicode="&#x2022;" horiz-adv-x="383" 
d="M57 365q0 50 16 83t46.5 49t71.5 16q42 0 72 -16t46 -49t16 -83q0 -49 -16.5 -82t-46.5 -49.5t-71 -16.5t-71 16.5t-46.5 49.5t-16.5 82z" />
    <glyph glyph-name="ellipsis" unicode="&#x2026;" horiz-adv-x="763" 
d="M57 65q0 38 19 56.5t52 18.5q32 0 51 -18t19 -57t-19.5 -57.5t-50.5 -18.5q-32 0 -51.5 19t-19.5 57zM311 65q0 38 19 56.5t52 18.5q32 0 51 -18t19 -57t-19.5 -57.5t-50.5 -18.5q-32 0 -51.5 19t-19.5 57zM566 65q0 38 19 56.5t52 18.5q32 0 51 -18t19 -57t-19.5 -57.5
t-50.5 -18.5q-32 0 -51.5 19t-19.5 57z" />
    <glyph glyph-name="perthousand" unicode="&#x2030;" horiz-adv-x="1099" 
d="M175 724q68 0 105 -59t37 -164q0 -107 -36 -166t-106 -59q-67 0 -103.5 60t-36.5 165q0 107 35.5 165t104.5 58zM175 642q-24 0 -35.5 -35t-11.5 -106q0 -72 11.5 -107.5t36.5 -35.5t36 35t11 107q0 73 -12 107.5t-36 34.5zM584 714l-305 -714h-91l305 714h91zM597 439
q67 0 104.5 -59t37.5 -164q0 -107 -36 -166t-106 -59q-67 0 -103.5 60t-36.5 165q0 108 35.5 165.5t104.5 57.5zM597 357q-24 0 -35.5 -35t-11.5 -107q0 -71 11 -106.5t36 -35.5q26 0 37 36.5t11 105.5t-11.5 105.5t-36.5 36.5zM922 439q68 0 105 -59t37 -164
q0 -107 -36 -166t-106 -59q-67 0 -103.5 60t-36.5 165q0 107 35 165t105 58zM922 357q-24 0 -35.5 -35t-11.5 -107q0 -71 11.5 -106.5t36.5 -35.5t36.5 36.5t11.5 105.5t-12 105.5t-37 36.5z" />
    <glyph glyph-name="minute" unicode="&#x2032;" horiz-adv-x="236" 
d="M134 714h117l-129 -237h-80z" />
    <glyph glyph-name="second" unicode="&#x2033;" horiz-adv-x="437" 
d="M335 714h117l-129 -237h-80zM134 714h117l-129 -237h-80z" />
    <glyph glyph-name="guilsinglleft" unicode="&#x2039;" horiz-adv-x="307" 
d="M33 277l157 210l82 -44l-114 -173l114 -172l-82 -45l-157 210v14z" />
    <glyph glyph-name="guilsinglright" unicode="&#x203a;" horiz-adv-x="307" 
d="M117 487l157 -210v-14l-157 -210l-82 45l113 172l-113 173z" />
    <glyph glyph-name="exclamdbl" unicode="&#x203c;" horiz-adv-x="496" 
d="M175 221h-92l-22 493h136zM58 65q0 38 19 56.5t52 18.5q32 0 51.5 -18t19.5 -57t-20 -57.5t-51 -18.5q-32 0 -51.5 19t-19.5 57zM412 221h-92l-22 493h136zM295 65q0 38 19 56.5t52 18.5q32 0 51.5 -18t19.5 -57t-20 -57.5t-51 -18.5q-32 0 -51.5 19t-19.5 57z" />
    <glyph glyph-name="fraction" unicode="&#x2044;" horiz-adv-x="111" 
d="M289 714l-373 -714h-95l374 714h94z" />
    <glyph glyph-name="uni207F" unicode="&#x207f;" horiz-adv-x="346" 
d="M203 619q48 0 74.5 -29t26.5 -87v-216h-75v199q0 36 -11 54.5t-36 18.5q-36 0 -50 -26.5t-14 -84.5v-161h-75v326h59l9 -43h5q8 16 21.5 27t30 16.5t35.5 5.5z" />
    <glyph glyph-name="franc" unicode="&#x20a3;" horiz-adv-x="489" 
d="M107 0v125h-74v84h74v505h334v-103h-216v-199h202v-102h-202v-101h129v-84h-129v-125h-118z" />
    <glyph glyph-name="lira" unicode="&#x20a4;" horiz-adv-x="489" 
d="M294 724q43 0 80.5 -10.5t70.5 -30.5l-36 -93q-28 15 -54.5 23t-52.5 8q-34 0 -51.5 -22.5t-17.5 -73.5v-69h140v-77h-140v-70h140v-77h-141q-1 -32 -8.5 -56t-21 -41t-34.5 -30h288v-105h-416v99q29 13 45 30t23 42t8 61h-77v77h77v70h-77v77h77v66q0 68 21 112.5t61 67
t96 22.5z" />
    <glyph glyph-name="peseta" unicode="&#x20a7;" horiz-adv-x="746" 
d="M223 714q115 0 169.5 -55.5t54.5 -161.5q0 -55 -14 -98t-42.5 -73.5t-72 -46.5t-102.5 -16h-28v-263h-115v714h150zM221 612h-33v-247h23q61 0 90 31t29 98q0 62 -27 90t-82 28zM612 531v-118h104v-89h-104v-170q0 -33 11.5 -51t36.5 -18q17 0 33.5 4.5t27.5 9.5v-87
q-16 -10 -37.5 -16t-50.5 -6q-43 0 -71.5 16.5t-43 51.5t-14.5 90v176h-59v47l66 41l34 119h67z" />
    <glyph glyph-name="Euro" unicode="&#x20ac;" horiz-adv-x="489" 
d="M317 723q42 0 80 -10.5t74 -32.5l-39 -98q-27 18 -54.5 27.5t-56.5 9.5q-26 0 -46.5 -11t-35 -32.5t-23.5 -51t-14 -66.5h165v-73h-169q-1 -8 -1 -16.5v-17.5v-17.5t1 -18.5h146v-74h-141q7 -49 22.5 -81.5t42 -48.5t63.5 -16q32 0 61.5 9.5t61.5 24.5v-108
q-29 -15 -62.5 -23t-73.5 -8q-67 0 -115 31t-77 88t-39 132h-69v74h63q-1 9 -1.5 18t-0.5 18t0.5 17.5t0.5 16.5h-62v73h68q9 77 37.5 136.5t77.5 94t116 34.5z" />
    <glyph glyph-name="uni2105" unicode="&#x2105;" horiz-adv-x="695" 
d="M543 714l-326 -714h-93l326 714h93zM660 168q0 -83 -37.5 -129.5t-102.5 -46.5q-62 0 -100 47t-38 129q0 80 36.5 127.5t103.5 47.5q61 0 99.5 -46.5t38.5 -128.5zM466 168q0 -51 13.5 -78t41.5 -27q27 0 40.5 27.5t13.5 77.5q0 51 -13.5 78.5t-40.5 27.5
q-28 0 -41.5 -27.5t-13.5 -78.5zM180 371q-67 0 -106 44.5t-39 128.5q0 57 17 96.5t50 60t79 20.5q23 0 46 -5.5t45 -17.5l-21 -66q-17 8 -34 12.5t-33 4.5q-32 0 -48.5 -27t-16.5 -77t16.5 -76t50.5 -26q20 0 39.5 5t37.5 14v-69q-16 -11 -37.5 -16.5t-45.5 -5.5z" />
    <glyph glyph-name="uni2113" unicode="&#x2113;" horiz-adv-x="474" 
d="M281 78q30 0 45.5 26t17.5 77h86q0 -65 -18 -107t-54 -62.5t-92 -20.5q-48 0 -82.5 21.5t-52.5 64t-18 104.5v78q-16 -5 -35.5 -11t-41.5 -13v84q20 6 39.5 12t37.5 13v206q0 57 17 95.5t51.5 58t85.5 19.5q68 0 106 -43t38 -121q0 -62 -21.5 -111.5t-63 -87.5
t-102.5 -64v-119q0 -49 13.5 -74t43.5 -25zM312 557q0 42 -11.5 62.5t-32.5 20.5q-24 0 -34 -18.5t-10 -59.5v-178q45 25 66.5 69t21.5 104z" />
    <glyph glyph-name="uni2116" unicode="&#x2116;" horiz-adv-x="889" 
d="M64 0v714h135l204 -514h5q-2 29 -3.5 60t-2.5 61.5t-1 58.5v334h108v-714h-134l-206 517h-5q3 -34 4.5 -67.5t3 -62.5t1.5 -53v-334h-109zM583 0v79h253v-79h-253zM710 141q-44 0 -76 21t-49 60t-17 93q0 84 38 129.5t105 45.5q42 0 74 -20.5t49.5 -59.5t17.5 -94
q0 -83 -38 -129t-104 -46zM710 212q29 0 43.5 25t14.5 79q0 52 -14 77.5t-44 25.5t-44 -25.5t-14 -78.5t14 -78t44 -25z" />
    <glyph glyph-name="trademark" unicode="&#x2122;" horiz-adv-x="696" 
d="M288 362v352h97l78 -252l82 252h93v-352h-67v189q0 13 1 33.5t2 34.5h-4l-85 -257h-49l-82 258h-3q1 -17 1.5 -35.5t0.5 -30.5v-192h-65zM98 362v289h-88v63h245v-63h-88v-289h-69z" />
    <glyph glyph-name="uni2126" unicode="&#x2126;" horiz-adv-x="590" 
d="M20 0v105h125q-40 29 -67 72.5t-40.5 98.5t-13.5 119q0 101 32 175t93 114.5t147 40.5q84 0 144.5 -40.5t92.5 -114.5t32 -175q0 -64 -13 -119t-40.5 -98.5t-68.5 -72.5h127v-105h-234v107q41 32 64 74t33 94t10 115q0 73 -16.5 124.5t-49 78.5t-81.5 27t-82 -26.5
t-50 -78t-17 -126.5q0 -62 9 -114.5t32 -94t65 -73.5v-107h-233z" />
    <glyph glyph-name="estimated" unicode="&#x212e;" horiz-adv-x="619" 
d="M309 -17q-84 0 -142 39t-87.5 102t-29.5 135t23 124t60.5 86t83.5 50t92 16q74 0 132.5 -33.5t92.5 -95.5t34 -147h-404v-174q22 -23 61 -41.5t84 -18.5q73 0 116 30t77 84l35 -20q-23 -37 -52.5 -68t-71.5 -49.5t-104 -18.5zM455 436q-19 20 -57 39t-90 19
q-49 0 -85 -17t-59 -40v-136h291v135z" />
    <glyph glyph-name="oneeighth" unicode="&#x215b;" horiz-adv-x="808" 
d="M147 0l374 714h95l-375 -714h-94zM149 519v32t1 34t2 31q-7 -7 -15 -14.5t-14 -12.5l-51 -39l-43 56l134 108h75v-428h-89v233zM622 57q31 0 46.5 15.5t15.5 41.5q0 23 -14 39.5t-43 28.5l-10 4q-17 -8 -29.5 -18.5t-19 -23t-6.5 -28.5q0 -26 16 -42.5t44 -16.5zM624 -10
q-69 0 -107.5 33t-38.5 91q0 37 18.5 61.5t55.5 45.5q-30 22 -45.5 46.5t-15.5 57.5q0 34 17.5 59t47.5 38t69 13q58 0 94.5 -29t36.5 -81q0 -32 -17 -56t-51 -43q40 -19 60.5 -45.5t20.5 -64.5q0 -56 -40 -91t-105 -35zM625 257q22 11 35.5 26t13.5 37q0 21 -13.5 34.5
t-36.5 13.5t-36.5 -13.5t-13.5 -34.5t13.5 -36.5t37.5 -26.5z" />
    <glyph glyph-name="threeeighths" unicode="&#x215c;" horiz-adv-x="808" 
d="M163 0l374 714h94l-374 -714h-94zM145 278q-33 0 -62 7t-55 22v82q26 -17 55.5 -26.5t60.5 -9.5q36 0 53 15t17 41q0 31 -19.5 46.5t-61.5 15.5h-43v69h38q40 0 58 16.5t18 42.5q0 24 -13.5 37.5t-40.5 13.5q-23 0 -42.5 -9t-42.5 -28l-40 59q29 25 61.5 38.5t71.5 13.5
q59 0 94.5 -29.5t35.5 -80.5q0 -36 -18 -62t-52 -40v-4q41 -11 62 -37.5t21 -67.5q0 -58 -42 -91.5t-114 -33.5zM627 57q30 0 46 15.5t16 41.5q0 23 -14 39.5t-44 28.5l-9 4q-18 -8 -30.5 -18.5t-18.5 -23t-6 -28.5q0 -26 16 -42.5t44 -16.5zM629 -10q-69 0 -108 33t-39 91
q0 37 19 61.5t55 45.5q-30 22 -45 46.5t-15 57.5q0 34 17.5 59t47.5 38t69 13q57 0 94 -29t37 -81q0 -32 -17 -56t-51 -43q39 -19 60 -45.5t21 -64.5q0 -56 -40 -91t-105 -35zM629 257q23 11 36.5 26t13.5 37q0 21 -13.5 34.5t-37.5 13.5q-23 0 -36.5 -13.5t-13.5 -34.5
t13.5 -36.5t37.5 -26.5z" />
    <glyph glyph-name="fiveeighths" unicode="&#x215d;" horiz-adv-x="808" 
d="M163 0l374 714h94l-374 -714h-94zM150 277q-29 0 -57 5.5t-52 16.5v82q21 -15 47.5 -23.5t52.5 -8.5q36 0 56 18.5t20 56.5q0 33 -18.5 50.5t-53.5 17.5q-13 0 -26.5 -3.5t-25.5 -7.5l-46 24l17 209h215v-75h-149l-9 -84q13 2 25 3t23 1q61 0 98.5 -36t37.5 -98
q0 -70 -39.5 -109t-115.5 -39zM628 57q31 0 46.5 15.5t15.5 41.5q0 23 -14 39.5t-43 28.5l-9 4q-18 -8 -30.5 -18.5t-19 -23t-6.5 -28.5q0 -26 16 -42.5t44 -16.5zM630 -10q-69 0 -107.5 33t-38.5 91q0 36 19 61t55 46q-30 22 -45 46.5t-15 57.5q0 34 17 58.5t47.5 38
t68.5 13.5q58 0 94.5 -29t36.5 -81q0 -32 -17 -56t-51 -44q40 -18 60.5 -44.5t20.5 -64.5q0 -56 -39.5 -91t-105.5 -35zM631 256q22 12 35.5 27t13.5 37q0 21 -13.5 34t-36.5 13t-36.5 -13.5t-13.5 -34.5t13.5 -36t37.5 -27z" />
    <glyph glyph-name="seveneighths" unicode="&#x215e;" horiz-adv-x="808" 
d="M137 0l374 714h94l-374 -714h-94zM77 286l150 352h-190v76h280v-63l-143 -365h-97zM623 57q31 0 46.5 15.5t15.5 41.5q0 23 -14 39.5t-43 28.5l-9 4q-18 -8 -30.5 -18.5t-19 -23t-6.5 -28.5q0 -26 16 -42.5t44 -16.5zM625 -10q-69 0 -107.5 33t-38.5 91q0 37 19 61.5
t55 45.5q-30 22 -45 46.5t-15 57.5q0 34 17 59t47.5 38t68.5 13q58 0 94.5 -29t36.5 -81q0 -32 -17 -56t-51 -43q40 -19 60.5 -45.5t20.5 -64.5q0 -56 -39.5 -91t-105.5 -35zM626 257q22 11 35.5 26t13.5 37q0 21 -13.5 34.5t-36.5 13.5t-36.5 -13.5t-13.5 -34.5t13.5 -36.5
t37.5 -26.5z" />
    <glyph glyph-name="cyrillicbreve" 
d="M155 603q-71 0 -110 37.5t-45 110.5h95q3 -39 17.5 -58t43.5 -19q28 0 42.5 19t17.5 58h95q-6 -72 -46 -110t-110 -38z" />
    <glyph glyph-name="uni0326" unicode="&#x326;" 
d="M68 -71q-7 -24 -18.5 -50.5t-24.5 -52t-28 -47.5h-70v12q5 18 11 45t11 55t6 48h113v-10z" />
    <glyph glyph-name="uni2074" unicode="&#x2074;" horiz-adv-x="339" 
d="M326 498h-54v-83h-89v83h-169v64l165 283h93v-276h54v-71zM183 669q0 22 1 42.5t2 37.5q-5 -14 -13 -31t-16 -31l-67 -118h93v100z" />
    <glyph glyph-name="uni2075" unicode="&#x2075;" horiz-adv-x="339" 
d="M277 843v-75h-149l-8 -84q12 2 24 3t23 1q61 0 98.5 -36t37.5 -98q0 -70 -39.5 -109t-114.5 -39q-30 0 -58 5.5t-52 17.5v81q21 -15 47.5 -23.5t52.5 -8.5q36 0 56 18.5t20 56.5q0 34 -18.5 51t-52.5 17q-14 0 -27 -3t-25 -8l-46 25l16 208h215z" />
    <glyph glyph-name="uni2077" unicode="&#x2077;" horiz-adv-x="339" 
d="M68 415l150 352h-190v76h279v-63l-143 -365h-96z" />
    <glyph glyph-name="uni2078" unicode="&#x2078;" horiz-adv-x="339" 
d="M171 852q58 0 94.5 -29t36.5 -81q0 -32 -17 -56t-51 -44q40 -18 60.5 -44.5t20.5 -64.5q0 -56 -39.5 -91t-105.5 -35q-46 0 -78.5 15t-50 42.5t-17.5 66.5q0 24 8.5 43t25 34.5t40.5 29.5q-30 21 -45 46t-15 58q0 34 17 58.5t47.5 38t68.5 13.5zM164 602
q-18 -7 -30.5 -17.5t-18.5 -23.5t-6 -28q0 -26 15.5 -42.5t44.5 -16.5q30 0 46 15.5t16 41.5q0 23 -14 39.5t-44 28.5zM170 784q-23 0 -36.5 -13t-13.5 -35q0 -20 13.5 -35.5t37.5 -27.5q22 12 35.5 27t13.5 37q0 21 -13 34t-37 13z" />
    <glyph glyph-name="uni2000" unicode="&#x2000;" horiz-adv-x="500" 
 />
    <glyph glyph-name="uni2001" unicode="&#x2001;" horiz-adv-x="1000" 
 />
    <glyph glyph-name="uni2002" unicode="&#x2002;" horiz-adv-x="500" 
 />
    <glyph glyph-name="uni2003" unicode="&#x2003;" horiz-adv-x="1000" 
 />
    <glyph glyph-name="uni2004" unicode="&#x2004;" horiz-adv-x="333" 
 />
    <glyph glyph-name="uni2005" unicode="&#x2005;" horiz-adv-x="250" 
 />
    <glyph glyph-name="uni2006" unicode="&#x2006;" horiz-adv-x="167" 
 />
    <glyph glyph-name="uni2007" unicode="&#x2007;" horiz-adv-x="489" 
 />
    <glyph glyph-name="uni2008" unicode="&#x2008;" horiz-adv-x="254" 
 />
    <glyph glyph-name="uni2009" unicode="&#x2009;" horiz-adv-x="166" 
 />
    <glyph glyph-name="uni200A" unicode="&#x200a;" horiz-adv-x="100" 
 />
    <glyph glyph-name="uni200B" unicode="&#x200b;" 
 />
    <glyph glyph-name="uniFEFF" unicode="&#xfeff;" 
 />
    <glyph glyph-name="uniFFFC" unicode="&#xfffc;" horiz-adv-x="997" 
d="M39 593v148h148v-50h-98v-98h-50zM819 691v50h148v-148h-48v98h-100zM39 -187v148h50v-99h98v-49h-148zM819 -187v49h100v99h48v-148h-148zM628 -187v49h133v-49h-133zM246 -187v49h132v-49h-132zM246 691v50h132v-50h-132zM967 19h-48v132h48v-132zM967 402h-48v132h48
v-132zM437 -187v49h133v-49h-133zM89 19h-50v132h50v-132zM437 691v50h133v-50h-133zM628 691v50h133v-50h-133zM89 210h-50v133h50v-133zM89 402h-50v132h50v-132zM967 210h-48v133h48v-133zM418 307q0 -69 -32 -108t-94 -39t-93.5 39t-31.5 108q0 70 31.5 108.5t93.5 38.5
q64 0 95 -38t31 -109zM225 307q0 -48 17 -73.5t50 -25.5q34 0 51 25t17 74t-17 74t-51 25q-33 0 -50 -25t-17 -74zM545 450q53 0 80.5 -16t27.5 -57q0 -24 -11 -40t-33 -20v-3q27 -6 39.5 -22t12.5 -45q0 -40 -26.5 -61.5t-72.5 -21.5h-101v286h84zM555 336q25 0 34 8.5
t9 24.5q0 18 -10.5 25.5t-35.5 7.5h-35v-66h38zM517 290v-78h42q26 0 35 11.5t9 29.5q0 17 -10.5 27t-35.5 10h-40zM726 161q-24 0 -39 5v49q10 -2 18 -3t15 -1q21 0 31.5 10.5t10.5 33.5v195h57v-194q0 -47 -25 -71t-68 -24z" />
    <glyph glyph-name="uniFFFD" unicode="&#xfffd;" horiz-adv-x="997" 
d="M497 760l459 -458l-459 -458l-458 458zM529 202q0 26 11.5 41.5t41.5 38.5q32 25 51 46.5t27 45t8 53.5q0 67 -46.5 104t-125.5 37q-25 0 -55 -6.5t-58 -17.5t-51 -24l40 -87q38 19 68.5 29t53.5 10q31 0 46 -14t15 -37q0 -28 -12.5 -46t-46.5 -43q-37 -30 -53.5 -57
t-16.5 -67v-29h103v23zM413 45q0 -32 18.5 -49t50.5 -17q31 0 49.5 17t18.5 49q0 33 -18.5 50t-49.5 17q-33 0 -51 -17t-18 -50z" />
    <glyph glyph-name="uni01F0" unicode="&#x1f0;" horiz-adv-x="248" 
d="M37 -240q-18 0 -38.5 3t-32.5 8v98q12 -4 23.5 -6.5t24.5 -2.5q25 0 38.5 18t13.5 59v606h116v-610q0 -54 -16 -93t-48 -59.5t-81 -20.5zM68 606q-11 21 -29 48t-37.5 53.5t-36.5 46.5v12h72q20 -16 43 -38.5t45 -48.5q25 28 46 48t44 39h71v-12q-16 -19 -35.5 -45.5
t-37.5 -53.5t-30 -49h-115z" />
    <glyph glyph-name="uni02BC" unicode="&#x2bc;" horiz-adv-x="215" 
d="M188 703q-9 -42 -20.5 -85t-25.5 -83t-30 -77h-90q7 29 14 62.5t13 68.5t10.5 67t6.5 58h115z" />
    <glyph glyph-name="uni1E3E" unicode="&#x1e3e;" horiz-adv-x="805" 
d="M348 0l-165 563h-4q3 -29 4.5 -60t2.5 -59t1 -52v-392h-112v714h167l158 -535h3l160 535h168v-714h-116v394q0 24 1 52t2.5 58t2.5 59h-4l-168 -563h-101zM571 923q-10 -15 -28 -34.5t-38.5 -41t-41.5 -41t-38 -34.5h-79v12q18 25 34.5 50.5t31.5 50.5t25 47h134v-9z" />
    <glyph glyph-name="uni1E3F" unicode="&#x1e3f;" horiz-adv-x="795" 
d="M582 553q76 0 113 -47.5t37 -147.5v-358h-116v330q0 63 -17 93t-52 30q-50 0 -70 -42.5t-20 -127.5v-283h-116v331q0 42 -7.5 69t-22.5 40t-39 13q-35 0 -55 -22t-27.5 -63.5t-7.5 -99.5v-268h-116v543h91l14 -71h7q13 27 32.5 45t45 27t55.5 9q51 0 83 -22t46 -60h8
q21 41 55 61.5t79 20.5zM577 757q-10 -15 -28 -34.5t-38.5 -41t-41.5 -41t-38 -34.5h-79v12q18 25 34.5 50.5t31.5 50.5t25 47h134v-9z" />
    <glyph glyph-name="uni1E00" unicode="&#x1e00;" horiz-adv-x="549" 
d="M421 0l-49 191h-194l-49 -191h-129l200 715h147l202 -715h-128zM299 496q-4 19 -8.5 40.5t-9 42.5t-7.5 38q-2 -17 -6.5 -38.5t-9 -42.5t-8.5 -39l-49 -201h148zM274 -277q-52 0 -83 30t-31 80q0 49 30.5 79.5t82.5 30.5q51 0 83 -30.5t32 -78.5q0 -50 -31.5 -80.5
t-82.5 -30.5zM273 -216q22 0 36 13.5t14 35.5t-13.5 35t-36.5 13q-21 0 -35 -13t-14 -35t12.5 -35.5t36.5 -13.5z" />
    <glyph glyph-name="uni1E01" unicode="&#x1e01;" horiz-adv-x="488" 
d="M253 553q86 0 129 -48t43 -142v-363h-85l-19 74h-3q-18 -29 -38.5 -47.5t-46.5 -27.5t-61 -9q-44 0 -75 22t-46.5 60t-15.5 85q0 84 51 127.5t149 47.5l74 3v26q0 52 -18 76t-55 24q-28 0 -58.5 -9.5t-63.5 -27.5l-35 84q37 22 81 33.5t93 11.5zM261 256
q-57 -3 -82.5 -27t-25.5 -69q0 -41 16.5 -60t46.5 -19q41 0 67 33.5t26 93.5v50zM236 -277q-52 0 -83 30t-31 80q0 49 30.5 79.5t82.5 30.5q51 0 83 -30.5t32 -78.5q0 -50 -31.5 -80.5t-82.5 -30.5zM235 -216q22 0 36 13.5t14 35.5t-13.5 35t-36.5 13q-21 0 -35 -13t-14 -35
t12.5 -35.5t36.5 -13.5z" />
    <glyph glyph-name="uni02F3" unicode="&#x2f3;" horiz-adv-x="367" 
d="M183 -277q-52 0 -83 30t-31 80q0 49 30.5 79.5t82.5 30.5q51 0 83 -30.5t32 -78.5q0 -50 -31.5 -80.5t-82.5 -30.5zM182 -216q22 0 36 13.5t14 35.5t-13.5 35t-36.5 13q-21 0 -35 -13t-14 -35t12.5 -35.5t36.5 -13.5z" />
    <glyph glyph-name="Ohorn" unicode="&#x1a0;" horiz-adv-x="655" 
d="M591 358q0 -82 -16 -149.5t-49.5 -116.5t-84.5 -75.5t-120 -26.5q-70 0 -121.5 26.5t-84.5 76t-49 117t-16 149.5q0 118 30 199.5t90.5 124t150.5 42.5q68 0 118.5 -24.5t84.5 -73.5q18 14 27.5 33.5t13.5 44.5t4 55h110l7 -12q-10 -82 -39 -129t-84 -71q14 -39 21 -86.5
t7 -103.5zM175 358q0 -85 16 -143.5t48.5 -88.5t81.5 -30t81 29.5t47.5 88t15.5 144.5q0 129 -35 195.5t-109 66.5q-49 0 -81.5 -30t-48.5 -88.5t-16 -143.5z" />
    <glyph glyph-name="ohorn" unicode="&#x1a1;" horiz-adv-x="554" 
d="M473 273q0 -90 -25.5 -153t-74 -96.5t-117.5 -33.5q-65 0 -113.5 33.5t-75 97t-26.5 152.5q0 135 57 207.5t160 72.5q47 0 87 -18t67 -53q23 7 35.5 27t18 50t5.5 64h110l6 -12q-6 -58 -22.5 -99t-44 -66t-68.5 -37q10 -29 15.5 -63t5.5 -73zM160 272q0 -61 10 -102
t32 -62t55 -21q35 0 56 21t31.5 62t10.5 102q0 62 -10 102.5t-32 60.5t-56 20q-51 0 -74 -45.5t-23 -137.5z" />
    <glyph glyph-name="Uhorn" unicode="&#x1af;" horiz-adv-x="695" 
d="M537 616q28 5 43 25t21 51t6 68h110l7 -12q-6 -50 -19.5 -88t-35.5 -64t-54.5 -40.5t-77.5 -18.5v-282q0 -84 -26.5 -143.5t-78 -90.5t-129.5 -31q-113 0 -173 68.5t-60 195.5v460h120v-457q0 -83 29 -122t85 -39q39 0 64 17.5t37 54t12 90.5v456h120v-98z" />
    <glyph glyph-name="uhorn" unicode="&#x1b0;" horiz-adv-x="616" 
d="M650 611q-6 -51 -19 -89t-35 -63.5t-54 -39.5t-76 -19v-400h-91l-14 71h-7q-13 -27 -33.5 -45t-46 -27t-54.5 -9q-52 0 -87 23t-52 67.5t-17 108.5v354h116v-326q0 -63 16.5 -95t53.5 -32q55 0 77.5 43.5t22.5 140.5v269h116v-64q26 6 41 25.5t21 50.5t6 68h110z" />
    <glyph glyph-name="uni0400" unicode="&#x400;" horiz-adv-x="460" 
d="M75 0v714h337v-103h-217v-188h203v-103h-203v-216h217v-104h-337zM239 773l-145 151v9h133l91 -147v-13h-79z" />
    <glyph glyph-name="uni040D" unicode="&#x40d;" horiz-adv-x="636" 
d="M330 767l-145 151v9h133l91 -147v-13h-79zM75 0v714h118v-363q0 -23 -0.5 -52.5t-2 -60t-4.5 -59.5h4l224 535h147l-1 -714h-118v365q0 19 0.5 41.5t2 45.5t2.5 46t3 42h-4l-226 -540h-145z" />
    <glyph glyph-name="uni0450" unicode="&#x450;" horiz-adv-x="480" 
d="M269 -10q-75 0 -126.5 33t-77.5 95.5t-26 149.5q0 93 25.5 156.5t72 96.5t110.5 33t107.5 -30.5t65.5 -85.5t22 -129v-68h-286q2 -79 32.5 -117.5t92.5 -38.5q36 0 68.5 9t68.5 29v-98q-33 -18 -70 -26.5t-79 -8.5zM157 327h176q0 40 -9.5 70t-28.5 47.5t-48 17.5
q-39 0 -62.5 -32.5t-27.5 -102.5zM244 602l-145 151v9h133l91 -147v-13h-79z" />
    <glyph glyph-name="uni045D" unicode="&#x45d;" horiz-adv-x="538" 
d="M66 0v543h111v-249q0 -23 -0.5 -47t-2.5 -48.5t-5 -47.5h2l169 392h132v-543h-110v249q0 24 1 48.5t2.5 48.5t4.5 45h-3l-169 -391h-132zM265 602l-145 151v9h133l91 -147v-13h-79z" />
    <glyph glyph-name="uni0460" unicode="&#x460;" horiz-adv-x="816" 
d="M190 -1q-39 83 -70 171t-53.5 179t-35.5 183t-15 182h124q2 -74 11 -149.5t23.5 -149t33 -142t39.5 -127.5h4q5 32 15.5 70t21.5 72l61 199q-6 38 -10.5 75.5t-7 75t-2.5 76.5h122q1 -71 9 -145t22 -147t34.5 -143.5t46.5 -134.5h4q34 83 58 176t37.5 192.5t16.5 201.5
h123q-6 -119 -27.5 -241t-60.5 -241.5t-99 -232.5h-102q-18 37 -35 76t-32.5 79t-28.5 79.5t-23 75.5l-90 -310h-114z" />
    <glyph glyph-name="uni0461" unicode="&#x461;" horiz-adv-x="734" 
d="M703 543q-3 -94 -23 -188.5t-52.5 -183.5t-75.5 -171h-104q-16 33 -33 74t-31.5 83t-23.5 78l-92 -235h-104q-31 62 -56.5 128.5t-43.5 136t-29 140t-14 138.5h114q3 -73 14.5 -150t30.5 -148t41 -126h3q6 16 13 35t14.5 38t14.5 34l55 133q-9 47 -14 94.5t-6 89.5h112
q3 -71 14 -146t29 -146.5t41 -133.5h4q25 54 44 123t31 146.5t14 156.5h113z" />
    <glyph glyph-name="uni0462" unicode="&#x462;" horiz-adv-x="546" 
d="M98 0v545h-95v91h95v110h120v-110h148v-91h-148v-117h47q82 0 136.5 -24t80.5 -70.5t26 -115.5q0 -67 -26.5 -116t-79.5 -75.5t-132 -26.5h-172zM265 102q60 0 91.5 28.5t31.5 85.5q0 39 -14 63t-42 35.5t-71 11.5h-43v-224h47z" />
    <glyph glyph-name="uni0463" unicode="&#x463;" horiz-adv-x="522" 
d="M217 651v-108h122v-87h-122v-127h66q103 0 154.5 -39t51.5 -121q0 -55 -22.5 -92.5t-66.5 -57t-110 -19.5h-189v456h-94v87h94v108h116zM283 241h-66v-153h66q42 0 65.5 19t23.5 58t-22 57.5t-67 18.5z" />
    <glyph glyph-name="uni0464" unicode="&#x464;" horiz-adv-x="771" 
d="M564 -10q-87 0 -145.5 41.5t-89.5 115.5t-37 170h-97v-317h-120v714h120v-293h100q8 69 28.5 125t55.5 96t83.5 61t110.5 21q46 0 89.5 -11.5t81.5 -33.5l-37 -99q-32 18 -64.5 29t-68.5 11q-35 0 -62.5 -14.5t-47.5 -41t-32 -63t-16 -80.5h236v-103h-238
q2 -49 13.5 -89.5t31.5 -70.5t50 -47t69 -17q37 0 72.5 10t70.5 27v-106q-35 -18 -73 -26.5t-84 -8.5z" />
    <glyph glyph-name="uni0465" unicode="&#x465;" horiz-adv-x="653" 
d="M487 -10q-67 0 -113 27t-71.5 81t-31.5 134h-89v-232h-116v543h116v-222h90q7 75 34 127t73.5 78.5t110.5 26.5q38 0 72 -9t63 -24l-33 -88q-22 12 -47.5 19.5t-51.5 7.5q-32 0 -54 -15.5t-35 -46t-17 -76.5h167v-89h-167q3 -49 16.5 -82t36.5 -49t56 -16q32 0 63 10
t59 26v-96q-26 -18 -60 -26.5t-71 -8.5z" />
    <glyph glyph-name="uni0466" unicode="&#x466;" horiz-adv-x="625" 
d="M387 715l240 -715h-125l-96 309h-38v-309h-111v309h-39l-95 -309h-125l239 715h150zM312 622q-2 -9 -5 -21t-7 -24.5t-8 -24t-7 -20.5l-38 -125h129l-38 127q-3 9 -7 20t-7.5 23t-6.5 23.5t-5 21.5z" />
    <glyph glyph-name="uni0467" unicode="&#x467;" horiz-adv-x="530" 
d="M337 543l193 -543h-115l-68 215h-31v-215h-102v215h-30l-68 -215h-115l194 543h142zM264 466q-3 -12 -6.5 -24.5t-7 -23.5t-7.5 -21l-29 -92h103l-28 91q-3 10 -7.5 22t-8 24.5t-5.5 23.5h-4z" />
    <glyph glyph-name="uni0468" unicode="&#x468;" horiz-adv-x="865" 
d="M627 715l239 -715h-125l-95 309h-38v-309h-111v309h-40l-94 -309h-125l106 320h-149v-320h-120v714h120v-290h185l97 291h150zM551 622q-1 -10 -4.5 -21.5t-7 -23.5t-7.5 -23.5t-7 -21.5l-38 -125h128l-38 127q-3 9 -6.5 20.5l-7 23t-6.5 23t-6 21.5z" />
    <glyph glyph-name="uni0469" unicode="&#x469;" horiz-adv-x="747" 
d="M554 543l192 -543h-114l-70 219h-29v-219h-102v219h-28l-70 -219h-113l83 234h-125v-234h-112v543h112v-214h159l76 214h141zM480 466q-2 -14 -6.5 -30t-9.5 -31t-9 -28l-22 -69h99l-22 70q-3 10 -8.5 26.5t-10 33.5t-7.5 28h-4z" />
    <glyph glyph-name="uni046A" unicode="&#x46a;" horiz-adv-x="664" 
d="M593 714v-67l-152 -234q43 -8 71 -30.5t47.5 -62t35.5 -98.5l62 -222h-126l-50 197q-11 46 -22 72.5t-27 38.5t-42 14v-322h-116v322q-26 -2 -41.5 -13.5t-26 -37.5t-22.5 -74l-50 -197h-127l62 222q12 45 25.5 78t30.5 56t40.5 37t56.5 20l-149 234v67h520zM445 614
h-226l112 -188z" />
    <glyph glyph-name="uni046B" unicode="&#x46b;" horiz-adv-x="568" 
d="M508 543v-55l-126 -175q38 -7 61.5 -26t39.5 -49t28 -71l49 -167h-111l-43 166q-8 26 -16.5 40.5t-21 21.5t-32.5 7v-235h-103v235q-21 -1 -34 -7.5t-21 -21.5t-15 -40l-45 -166h-111l48 167q12 42 28.5 72.5t40.5 49t60 25.5l-125 174v55h449zM374 458h-182l91 -132z
" />
    <glyph glyph-name="uni046C" unicode="&#x46c;" horiz-adv-x="906" 
d="M836 714v-67l-153 -238q45 -8 73 -31t47 -63t35 -97l62 -218h-126l-50 194q-11 46 -22.5 72t-27.5 38t-42 15v-319h-115v319q-25 -3 -40 -13.5t-26.5 -36.5t-24.5 -75l-50 -194h-124l59 206q10 35 21.5 63.5t26.5 50.5h-164v-320h-120v714h120v-290h261l-141 223v67h521z
M688 614h-226l112 -191z" />
    <glyph glyph-name="uni046D" unicode="&#x46d;" horiz-adv-x="790" 
d="M730 543v-55l-125 -178q37 -7 61 -25.5t40 -48t28 -71.5l49 -165h-111l-45 164q-7 25 -15.5 40t-21 21.5t-32.5 6.5v-232h-103v232q-21 -1 -33.5 -7.5t-20.5 -21t-15 -38.5l-46 -165h-109l50 169q6 21 13 37.5t16 27.5h-132v-234h-112v543h112v-214h217l-113 159v55h448z
M596 458h-181l90 -133z" />
    <glyph glyph-name="uni046E" unicode="&#x46e;" horiz-adv-x="506" 
d="M363 862q14 0 25.5 -2t19.5 -5v-69q-5 2 -12.5 3.5t-15.5 1.5q-20 0 -38.5 -20.5t-36.5 -53.5q66 -15 102 -60t36 -109q0 -70 -36.5 -114.5t-102.5 -58.5v-4q77 -8 117 -52.5t40 -117.5q0 -48 -16 -86t-46 -65t-72 -41.5t-94 -15.5q-35 0 -55.5 -6t-29.5 -17.5t-9 -28.5
q0 -25 16.5 -37.5t51.5 -12.5q26 0 46.5 1.5t38.5 3t35 1.5q26 0 43 -4.5t26 -11.5v-97q-9 7 -27 11t-42 4q-22 0 -44 -1t-45 -2.5t-52 -1.5q-56 0 -93 19t-55 52.5t-18 76.5q0 51 20 84.5t60.5 51t101.5 18.5q70 2 103 28t33 85q0 58 -41.5 84.5t-122.5 26.5h-63v102h60
q54 0 87.5 11.5t49 35.5t15.5 61q0 45 -27 68t-77 23q-40 0 -74 -13.5t-62 -37.5l-51 86q31 25 64.5 40.5t73.5 22.5q-11 17 -26.5 39.5t-32 45.5t-30.5 39v12h77q18 -16 38.5 -39.5t42.5 -50.5q16 25 34 47.5t40.5 36t49.5 13.5z" />
    <glyph glyph-name="uni046F" unicode="&#x46f;" horiz-adv-x="432" 
d="M322 667q14 0 25.5 -2t20.5 -5v-67q-5 3 -13 4t-16 1q-17 0 -34 -14.5t-33 -42.5q49 -14 76.5 -48t27.5 -83q0 -45 -23 -76.5t-63 -43.5v-5q32 -8 56 -25.5t36.5 -43t12.5 -60.5q0 -48 -20.5 -84t-64 -56.5t-113.5 -22.5q-30 0 -47 -6t-24 -16.5t-7 -26.5
q0 -24 14.5 -34.5t46.5 -10.5q22 0 40 1.5t34.5 2.5t33.5 1q23 0 37.5 -4t23.5 -12v-97q-8 8 -24.5 12.5t-34.5 4.5q-16 0 -37.5 -1t-44 -2.5t-44.5 -1.5q-52 0 -85.5 16.5t-50.5 48.5t-17 75q0 45 18 77.5t55 50.5t94 19q34 1 56.5 9t33.5 24.5t11 41.5q0 24 -12 40.5
t-36.5 25t-62.5 8.5h-48v87h41q50 0 77 17t27 55q0 31 -20 46.5t-62 15.5q-28 0 -57 -8t-57 -24l-38 87q21 10 42 17.5t44 11.5q-11 19 -23.5 36.5t-25.5 35t-26 32.5v12h76q17 -16 37.5 -39t43.5 -51q15 27 33 48.5t40.5 35t49.5 13.5z" />
    <glyph glyph-name="uni0470" unicode="&#x470;" horiz-adv-x="736" 
d="M302 0v178q-57 3 -100.5 20.5t-73 48.5t-44 76.5t-14.5 104.5v286h119v-287q0 -45 11.5 -78t36.5 -50.5t65 -17.5v433h114v-433q40 1 65 16t36.5 47t11.5 82v288h119v-280q0 -80 -26.5 -136t-78.5 -86t-127 -34v-178h-114z" />
    <glyph glyph-name="uni0471" unicode="&#x471;" horiz-adv-x="680" 
d="M279 -240v231q-71 3 -119 28.5t-72 79t-24 141.5v303h111v-300q0 -53 10 -85.5t33 -48t61 -19.5v670h111v-670q42 5 65.5 25.5t34 62t10.5 107.5q0 63 -8.5 126.5t-25.5 131.5h113q18 -74 26.5 -136t8.5 -124q0 -95 -26 -158t-76 -96t-122 -38v-231h-111z" />
    <glyph glyph-name="uni0472" unicode="&#x472;" horiz-adv-x="649" 
d="M599 358q0 -82 -16.5 -149.5t-50 -116.5t-85.5 -75.5t-122 -26.5q-71 0 -123 26.5t-86 76t-50 117t-16 149.5q0 118 30.5 199.5t92 124t152.5 42.5q94 0 154.5 -46t90 -128.5t29.5 -192.5zM325 95q46 0 78.5 24.5t50 74t21.5 120.5h-301q4 -71 22 -120t50 -74t79 -25z
M326 621q-45 0 -77.5 -23.5t-50.5 -69.5t-23 -114h299q-7 102 -44 154.5t-104 52.5z" />
    <glyph glyph-name="uni0473" unicode="&#x473;" horiz-adv-x="525" 
d="M483 273q0 -90 -26.5 -153.5t-76 -96.5t-119.5 -33q-66 0 -115.5 33.5t-77 97t-27.5 152.5q0 135 58.5 207.5t164.5 72.5q69 0 118 -35.5t75 -98.5t26 -146zM262 87q32 0 53.5 16.5t34 49t15.5 81.5h-206q3 -44 14.5 -77.5t33.5 -51.5t55 -18zM262 455q-47 0 -71.5 -34.5
t-31.5 -103.5h206q-3 42 -15 73t-33.5 48t-54.5 17z" />
    <glyph glyph-name="uni0474" unicode="&#x474;" horiz-adv-x="571" 
d="M542 617q-17 0 -28.5 -10.5t-20 -32t-18.5 -56.5l-141 -518h-137l-197 714h125l110 -427q7 -26 12.5 -55t10.5 -56.5t8 -53.5q2 18 5.5 38.5t7.5 42.5t8.5 41.5t7.5 33.5l67 266q17 63 35.5 101.5t45.5 56.5t67 18q21 0 38 -3.5t29 -9.5v-98q-8 4 -17 6t-18 2z" />
    <glyph glyph-name="uni0475" unicode="&#x475;" horiz-adv-x="483" 
d="M427 550q18 0 33 -3t26 -8v-92q-7 4 -15 5.5t-15 1.5q-13 0 -22.5 -7.5t-16 -23t-13.5 -41.5l-113 -382h-127l-162 543h121l79 -308q8 -30 14.5 -60.5t9.5 -59.5h3q3 26 9 56.5t14 64.5l43 159q16 60 32.5 93.5t40 47.5t59.5 14z" />
    <glyph glyph-name="uni0476" unicode="&#x476;" horiz-adv-x="571" 
d="M542 617q-17 0 -28.5 -10.5t-20 -32t-18.5 -56.5l-141 -518h-137l-197 714h125l110 -427q7 -26 12.5 -55t10.5 -56.5t8 -53.5q2 18 5.5 38.5t7.5 42.5t8.5 41.5t7.5 33.5l67 266q17 63 35.5 101.5t45.5 56.5t67 18q21 0 38 -3.5t29 -9.5v-98q-8 4 -17 6t-18 2zM328 933
q8 -17 20.5 -43t28 -53t29.5 -52v-12h-57q-17 14 -37.5 33.5t-40 41t-34.5 41.5t-22 35v9h113zM162 933q10 -22 22.5 -46.5t26.5 -50t29 -51.5v-12h-60q-16 14 -35.5 33t-39 41t-35 42t-22.5 35v9h114z" />
    <glyph glyph-name="uni0477" unicode="&#x477;" horiz-adv-x="483" 
d="M427 550q18 0 33 -3t26 -8v-92q-7 4 -15 5.5t-15 1.5q-13 0 -22.5 -7.5t-16 -23t-13.5 -41.5l-113 -382h-127l-162 543h121l79 -308q8 -30 14.5 -60.5t9.5 -59.5h3q3 26 9 56.5t14 64.5l43 159q16 60 32.5 93.5t40 47.5t59.5 14zM292 766q8 -17 20.5 -43t28 -53t29.5 -52
v-12h-57q-17 14 -37.5 33.5t-40 41t-34.5 41.5t-22 35v9h113zM126 766q10 -22 22.5 -46.5t26.5 -50t29 -51.5v-12h-60q-16 14 -35.5 33t-39 41t-35 42t-22.5 35v9h114z" />
    <glyph glyph-name="uni0478" unicode="&#x478;" horiz-adv-x="1080" 
d="M578 358q0 -82 -15.5 -149.5t-48 -116.5t-82 -75.5t-118.5 -26.5t-119 26.5t-82.5 76t-47.5 117t-15 149.5q0 118 29 199.5t87.5 124t148.5 42.5q91 0 149.5 -46t86 -128.5t27.5 -192.5zM174 358q0 -85 15 -143.5t46 -88.5t79 -30t79 29.5t45.5 88t14.5 144.5
t-14.5 144.5t-45 88t-78.5 29.5q-49 0 -80 -30t-46 -88.5t-15 -143.5zM626 543h123l80 -288q5 -19 9 -37.5t8 -37.5t6 -37h3q3 24 9.5 52t15.5 60l75 288h122l-182 -609q-19 -60 -44 -98.5t-58.5 -57t-78.5 -18.5q-18 0 -33 2t-30 6v99q11 -3 22.5 -5t22.5 -2q24 0 39.5 10
t27 31.5t21.5 57.5l13 45z" />
    <glyph glyph-name="uni0479" unicode="&#x479;" horiz-adv-x="964" 
d="M473 273q0 -62 -13.5 -113.5t-40 -89.5t-67.5 -59t-96 -21q-52 0 -92 20.5t-67 58.5t-41.5 89.5t-14.5 114.5q0 86 24 149t72.5 97t120.5 34q66 0 114 -32.5t74.5 -95t26.5 -152.5zM160 272q0 -60 10 -101.5t32 -62.5t55 -21q35 0 56.5 21t31.5 62.5t10 101.5
q0 61 -10.5 101.5t-31.5 61t-56 20.5q-51 0 -74 -45.5t-23 -137.5zM510 543h123l80 -288q5 -18 9 -37l8 -38t5 -37h4q3 24 9.5 52t14.5 60l77 288h121l-182 -609q-18 -60 -43 -98.5t-59 -57t-79 -18.5q-17 0 -32.5 2t-30.5 6v99q11 -3 22.5 -5t22.5 -2q24 0 39.5 10t27 31.5
t22.5 57.5l12 45z" />
    <glyph glyph-name="Omegaroundcy" unicode="&#x47a;" horiz-adv-x="676" 
d="M339 -60q-23 0 -40 13t-24 43q-55 10 -97.5 39t-71 75t-42.5 109t-14 140q0 104 25 180t75 121.5t125 58.5q6 30 23 42.5t41 12.5q23 0 39 -12.5t23 -42.5q74 -13 124.5 -59t75.5 -122.5t25 -179.5q0 -77 -14 -139t-42.5 -108.5t-70.5 -75.5t-98 -39q-7 -30 -23 -43
t-39 -13zM279 108q9 25 24.5 35.5t35.5 10.5t35.5 -11t23.5 -36q35 14 58.5 47.5t35.5 85t12 118.5q0 101 -26.5 165.5t-79.5 84.5q-6 -26 -22.5 -37.5t-36.5 -11.5q-21 0 -37.5 11.5t-23.5 35.5q-35 -14 -58.5 -47.5t-35 -84t-11.5 -116.5t11.5 -117t35.5 -84.5t59 -48.5z
" />
    <glyph glyph-name="omegaroundcy" unicode="&#x47b;" horiz-adv-x="558" 
d="M517 273q0 -78 -21.5 -136t-62 -93.5t-98.5 -46.5q-6 -27 -20 -40t-35 -13t-36 13t-21 40q-56 11 -97 47t-63 94t-22 135q0 117 47.5 187.5t135.5 86.5q6 26 20.5 36.5t35.5 10.5q19 0 34 -11t20 -37q57 -11 98 -47t63 -93.5t22 -132.5zM402 273q0 46 -7.5 79t-22.5 55.5
t-38 33.5q-6 -23 -19.5 -35t-34.5 -12t-35 11.5t-21 35.5q-35 -18 -51.5 -60.5t-16.5 -108.5q0 -67 17.5 -110.5t51.5 -60.5q5 23 20 33.5t35 10.5t33.5 -10.5t20.5 -33.5q35 18 51.5 61t16.5 111z" />
    <glyph glyph-name="Omegatitlocy" unicode="&#x47c;" horiz-adv-x="869" 
d="M280 949q0 34 8 57t22 37t34 20t43 6q27 0 51 -9t48.5 -20.5t51.5 -20.5t59 -10h8v-80h-7q-35 0 -65.5 8.5t-56 19.5t-45.5 19t-35 8q-21 0 -30.5 -14t-10.5 -41h-75v20zM376 782q29 6 41.5 17t12.5 23t-8 17t-18.5 8.5t-18.5 10.5t-8 23q0 22 15 35t42 13q31 0 48.5 -21
t17.5 -56q0 -31 -14 -54t-41.5 -37.5t-68.5 -19.5v41zM285 -10q-76 0 -128.5 47.5t-79.5 133t-27 198.5q0 76 14 141t42.5 113t70.5 74.5t98 26.5q33 0 66 -12.5t58 -33.5l-41 -89q-16 14 -34.5 23t-39.5 9q-28 0 -49.5 -19t-35 -53.5t-20.5 -81.5t-7 -103q0 -83 15.5 -143
t45 -92.5t70.5 -32.5q20 0 38 7.5t35 21.5v210h116v-210q18 -14 36.5 -21.5t38.5 -7.5q42 0 71 32t44.5 92.5t15.5 143.5q0 57 -7 104t-21 81t-35 53t-50 19q-20 0 -38.5 -9t-34.5 -23l-41 89q24 21 57.5 33.5t67.5 12.5q56 0 97.5 -26.5t69.5 -74.5t42 -112.5t14 -141.5
q0 -85 -15 -154.5t-45.5 -119.5t-75 -77.5t-102.5 -27.5q-48 0 -83.5 15t-62.5 47q-29 -32 -66.5 -47t-83.5 -15z" />
    </font>
</defs>
</svg>
