<?xml version="1.0" standalone="no"?>
<!DOCTYPE svg PUBLIC "-//W3C//DTD SVG 1.1//EN" "http://www.w3.org/Graphics/SVG/1.1/DTD/svg11.dtd" >
<svg xmlns="http://www.w3.org/2000/svg" xmlns:xlink="http://www.w3.org/1999/xlink" version="1.1">
<metadata>
Created by FontForge 20230101 at Tue Dec 13 05:26:42 2016
 By Glenn Lewis
Copyright 2011 The Old Standard Project Authors (amkryukov@gmail.com)
</metadata>
<defs>
<font id="OldStandardTT-Bold" horiz-adv-x="0" >
  <font-face 
    font-family="Old Standard TT"
    font-weight="700"
    font-stretch="normal"
    units-per-em="1000"
    panose-1="0 0 8 0 0 0 0 0 0 0"
    ascent="762"
    descent="-238"
    x-height="474"
    cap-height="712"
    bbox="-868 -294 1392 1119"
    underline-thickness="50"
    underline-position="-100"
    unicode-range="U+000D-FB02"
  />
<missing-glyph horiz-adv-x="500" 
d="M410 762v-1000h-317v1000h317zM333 695h-165v-33h65v-37h-66v-33h166v33h-66v37h66v33zM267 566h-100v-104h166v34h-66v70zM233 532v-36h-33v36h33zM333 435h-166v-33h66v-37h-66v-33h100v70h66v33zM333 375h-33v-66h-133v-34h166v100zM333 253h-100v-56h34v23h33v-47
h-100v80h-33v-113h166v113zM333 80h-166v-113h166v113zM300 47v-47h-100v47h100zM333 -56h-166v-33h70l-70 -47v-33h166v33h-102l70 47h32v33z" />
    <glyph glyph-name="fi" unicode="fi" horiz-adv-x="562" 
d="M30 24h56q9 0 12.5 3.5t3.5 12.5v406h-72v28h72v25q0 72 30.5 121.5t81 74.5t108.5 25q55 0 91 -20t52.5 -48t16.5 -53q0 -35 -20 -58t-53 -23q-27 0 -45 16.5t-18 41.5q0 30 22 50q18 16 18 31q0 16 -18.5 27.5t-50.5 11.5q-23 0 -45.5 -14t-38 -46t-15.5 -82v-80h258
v-434q0 -9 3.5 -12.5t12.5 -3.5h38v-24h-224v24h38q9 0 12.5 3.5t3.5 12.5v390q0 9 -3.5 12.5t-12.5 3.5h-126v-406q0 -9 3.5 -12.5t12.5 -3.5h32v-24h-236v24z" />
    <glyph glyph-name="fl" unicode="fl" horiz-adv-x="564" 
d="M30 24h56q9 0 12.5 3.5t3.5 12.5v406h-72v28h72v25q0 72 30.5 121.5t81 74.5t108.5 25q33 0 62 -8h92v-672q0 -9 3.5 -12.5t12.5 -3.5h50v-24h-236v24h38q9 0 12.5 3.5t3.5 12.5v390q0 9 -3.5 12.5t-12.5 3.5h-126v-406q0 -9 3.5 -12.5t12.5 -3.5h32v-24h-236v24z
M360 474v65q-14 14 -14 37q0 24 14 41v71q-19 8 -43 8q-23 0 -45.5 -14t-38 -46t-15.5 -82v-80h142z" />
    <glyph glyph-name=".notdef" horiz-adv-x="500" 
d="M410 762v-1000h-317v1000h317zM333 695h-165v-33h65v-37h-66v-33h166v33h-66v37h66v33zM267 566h-100v-104h166v34h-66v70zM233 532v-36h-33v36h33zM333 435h-166v-33h66v-37h-66v-33h100v70h66v33zM333 375h-33v-66h-133v-34h166v100zM333 253h-100v-56h34v23h33v-47
h-100v80h-33v-113h166v113zM333 80h-166v-113h166v113zM300 47v-47h-100v47h100zM333 -56h-166v-33h70l-70 -47v-33h166v33h-102l70 47h32v33z" />
    <glyph glyph-name="NULL" 
 />
    <glyph glyph-name="nonmarkingreturn" unicode="&#xd;" horiz-adv-x="280" 
 />
    <glyph glyph-name="space" unicode=" " horiz-adv-x="280" 
 />
    <glyph glyph-name="A" unicode="A" horiz-adv-x="754" 
d="M44 32h34q30 0 53 23.5t35 57.5l211 617h42l214 -647q17 -51 59 -51h40v-32h-351v32h72q12 0 19.5 9.5t7.5 22.5q0 11 -6 29l-32 96h-210l-21 -61q-11 -28 -11 -51q0 -18 14.5 -31.5t37.5 -13.5h47v-32h-255v32zM245 226h185l-91 275z" />
    <glyph glyph-name="Aacute" unicode="&#xc1;" horiz-adv-x="754" 
d="M364 778l89 138q11 18 23 25t26 7q18 0 30 -11t12 -29q0 -27 -28 -48l-132 -100zM44 32h34q30 0 53 23.5t35 57.5l211 617h42l214 -647q17 -51 59 -51h40v-32h-351v32h72q12 0 19.5 9.5t7.5 22.5q0 11 -6 29l-32 96h-210l-21 -61q-11 -28 -11 -51q0 -18 14.5 -31.5
t37.5 -13.5h47v-32h-255v32zM245 226h185l-91 275z" />
    <glyph glyph-name="Abreve" unicode="&#x102;" horiz-adv-x="754" 
d="M44 32h34q30 0 53 23.5t35 57.5l211 617h42l214 -647q17 -51 59 -51h40v-32h-351v32h72q12 0 19.5 9.5t7.5 22.5q0 11 -6 29l-32 96h-210l-21 -61q-11 -28 -11 -51q0 -18 14.5 -31.5t37.5 -13.5h47v-32h-255v32zM245 226h185l-91 275zM313.5 786.5q-35.5 24.5 -53 60.5
t-17.5 69h32q19 -90 123 -90t123 90h32q0 -33 -17.5 -69t-53 -60.5t-84.5 -24.5t-84.5 24.5z" />
    <glyph glyph-name="uni1EAE" unicode="&#x1eae;" horiz-adv-x="754" 
d="M370 949l89 138q11 18 23 25t26 7q18 0 30 -11t12 -29q0 -27 -28 -48l-132 -100zM301 821q-37 43 -43 111h28q8 -40 36.5 -63t75.5 -23t75.5 23t36.5 63h28q-6 -68 -43 -111t-97 -43t-97 43zM44 32h34q30 0 53 23.5t35 57.5l211 617h42l214 -647q17 -51 59 -51h40v-32
h-351v32h72q12 0 19.5 9.5t7.5 22.5q0 11 -6 29l-32 96h-210l-21 -61q-11 -28 -11 -51q0 -18 14.5 -31.5t37.5 -13.5h47v-32h-255v32zM245 226h185l-91 275z" />
    <glyph glyph-name="uni1EB6" unicode="&#x1eb6;" horiz-adv-x="754" 
d="M44 32h34q30 0 53 23.5t35 57.5l211 617h42l214 -647q17 -51 59 -51h40v-32h-351v32h72q12 0 19.5 9.5t7.5 22.5q0 11 -6 29l-32 96h-210l-21 -61q-11 -28 -11 -51q0 -18 14.5 -31.5t37.5 -13.5h47v-32h-255v32zM245 226h185l-91 275zM324 -183q-21 21 -21 53
q0 31 21 52.5t53 21.5q31 0 52.5 -21.5t21.5 -52.5q0 -32 -21.5 -53t-52.5 -21q-32 0 -53 21zM313.5 786.5q-35.5 24.5 -53 60.5t-17.5 69h32q19 -90 123 -90t123 90h32q0 -33 -17.5 -69t-53 -60.5t-84.5 -24.5t-84.5 24.5z" />
    <glyph glyph-name="uni1EB0" unicode="&#x1eb0;" horiz-adv-x="754" 
d="M267 1029q-28 21 -28 48q0 18 12 29t30 11q14 0 26 -7t23 -25l89 -138l-20 -18zM301 821q-37 43 -43 111h28q8 -40 36.5 -63t75.5 -23t75.5 23t36.5 63h28q-6 -68 -43 -111t-97 -43t-97 43zM44 32h34q30 0 53 23.5t35 57.5l211 617h42l214 -647q17 -51 59 -51h40v-32
h-351v32h72q12 0 19.5 9.5t7.5 22.5q0 11 -6 29l-32 96h-210l-21 -61q-11 -28 -11 -51q0 -18 14.5 -31.5t37.5 -13.5h47v-32h-255v32zM245 226h185l-91 275z" />
    <glyph glyph-name="uni1EB2" unicode="&#x1eb2;" horiz-adv-x="754" 
d="M44 32h34q30 0 53 23.5t35 57.5l211 617h42l214 -647q17 -51 59 -51h40v-32h-351v32h72q12 0 19.5 9.5t7.5 22.5q0 11 -6 29l-32 96h-210l-21 -61q-11 -28 -11 -51q0 -18 14.5 -31.5t37.5 -13.5h47v-32h-255v32zM245 226h185l-91 275zM301 821q-37 43 -43 111h28
q8 -40 36.5 -63t75.5 -23t75.5 23t36.5 63h28q-6 -68 -43 -111t-97 -43t-97 43zM400 966q14 12 20.5 26t6.5 32q0 24 -13.5 40t-40.5 16q-21 0 -37.5 -11t-16.5 -25q0 -10 3.5 -11t8.5 0q3 1 8 1q21 0 21 -22q0 -9 -8.5 -15.5t-21.5 -6.5q-14 0 -28 11t-14 29q0 37 26.5 56
t59.5 19q42 0 73 -19t31 -62q0 -27 -17 -46t-51 -43h-45z" />
    <glyph glyph-name="uni1EB4" unicode="&#x1eb4;" horiz-adv-x="754" 
d="M44 32h34q30 0 53 23.5t35 57.5l211 617h42l214 -647q17 -51 59 -51h40v-32h-351v32h72q12 0 19.5 9.5t7.5 22.5q0 11 -6 29l-32 96h-210l-21 -61q-11 -28 -11 -51q0 -18 14.5 -31.5t37.5 -13.5h47v-32h-255v32zM245 226h185l-91 275zM301 821q-37 43 -43 111h28
q8 -40 36.5 -63t75.5 -23t75.5 23t36.5 63h28q-6 -68 -43 -111t-97 -43t-97 43zM276 1009q11 25 31 41.5t46 16.5q22 0 39 -5t43 -16q35 -15 64 -15q33 0 40 40h22q0 -25 -11 -50t-31 -41.5t-46 -16.5q-22 0 -39 5t-43 16q-35 15 -64 15q-33 0 -40 -40h-22q0 25 11 50z" />
    <glyph glyph-name="Acircumflex" unicode="&#xc2;" horiz-adv-x="754" 
d="M228 786q97 51 148 144h40q49 -94 148 -144l-12 -24q-43 15 -76 32.5t-80 47.5q-47 -30 -80 -47.5t-76 -32.5zM44 32h34q30 0 53 23.5t35 57.5l211 617h42l214 -647q17 -51 59 -51h40v-32h-351v32h72q12 0 19.5 9.5t7.5 22.5q0 11 -6 29l-32 96h-210l-21 -61
q-11 -28 -11 -51q0 -18 14.5 -31.5t37.5 -13.5h47v-32h-255v32zM245 226h185l-91 275z" />
    <glyph glyph-name="uni1EA4" unicode="&#x1ea4;" horiz-adv-x="754" 
d="M44 32h34q30 0 53 23.5t35 57.5l211 617h42l214 -647q17 -51 59 -51h40v-32h-351v32h72q12 0 19.5 9.5t7.5 22.5q0 11 -6 29l-32 96h-210l-21 -61q-11 -28 -11 -51q0 -18 14.5 -31.5t37.5 -13.5h47v-32h-255v32zM245 226h185l-91 275zM248 786q50 32 74.5 71.5t41.5 88.5
h68q17 -49 41.5 -88.5t74.5 -71.5l-16 -24q-35 17 -72.5 44t-61.5 52q-24 -25 -61.5 -52t-72.5 -44zM521 875l89 138q11 18 23 25t26 7q18 0 30 -11t12 -29q0 -27 -28 -48l-132 -100z" />
    <glyph glyph-name="uni1EAC" unicode="&#x1eac;" horiz-adv-x="754" 
d="M44 32h34q30 0 53 23.5t35 57.5l211 617h42l214 -647q17 -51 59 -51h40v-32h-351v32h72q12 0 19.5 9.5t7.5 22.5q0 11 -6 29l-32 96h-210l-21 -61q-11 -28 -11 -51q0 -18 14.5 -31.5t37.5 -13.5h47v-32h-255v32zM245 226h185l-91 275zM324 -183q-21 21 -21 53
q0 31 21 52.5t53 21.5q31 0 52.5 -21.5t21.5 -52.5q0 -32 -21.5 -53t-52.5 -21q-32 0 -53 21zM230 786q97 51 148 144h40q49 -94 148 -144l-12 -24q-43 15 -76 32.5t-80 47.5q-47 -30 -80 -47.5t-76 -32.5z" />
    <glyph glyph-name="uni1EA6" unicode="&#x1ea6;" horiz-adv-x="754" 
d="M44 32h34q30 0 53 23.5t35 57.5l211 617h42l214 -647q17 -51 59 -51h40v-32h-351v32h72q12 0 19.5 9.5t7.5 22.5q0 11 -6 29l-32 96h-210l-21 -61q-11 -28 -11 -51q0 -18 14.5 -31.5t37.5 -13.5h47v-32h-255v32zM245 226h185l-91 275zM248 786q50 32 74.5 71.5t41.5 88.5
h68q17 -49 41.5 -88.5t74.5 -71.5l-16 -24q-35 17 -72.5 44t-61.5 52q-24 -25 -61.5 -52t-72.5 -44zM391 1026q-28 21 -28 48q0 18 12 29t30 11q14 0 26 -7t23 -25l89 -138l-20 -18z" />
    <glyph glyph-name="uni1EA8" unicode="&#x1ea8;" horiz-adv-x="754" 
d="M44 32h34q30 0 53 23.5t35 57.5l211 617h42l214 -647q17 -51 59 -51h40v-32h-351v32h72q12 0 19.5 9.5t7.5 22.5q0 11 -6 29l-32 96h-210l-21 -61q-11 -28 -11 -51q0 -18 14.5 -31.5t37.5 -13.5h47v-32h-255v32zM245 226h185l-91 275zM248 786q50 32 74.5 71.5t41.5 88.5
h68q17 -49 41.5 -88.5t74.5 -71.5l-16 -24q-35 17 -72.5 44t-61.5 52q-24 -25 -61.5 -52t-72.5 -44zM535 962q14 12 20.5 26t6.5 32q0 24 -13.5 40t-40.5 16q-21 0 -37.5 -11t-16.5 -25q0 -10 3.5 -11t8.5 0q3 1 8 1q21 0 21 -22q0 -9 -8.5 -15.5t-21.5 -6.5q-14 0 -28 11
t-14 29q0 37 26.5 56t59.5 19q42 0 73 -19t31 -62q0 -27 -17 -46t-51 -43h-45z" />
    <glyph glyph-name="uni1EAA" unicode="&#x1eaa;" horiz-adv-x="754" 
d="M44 32h34q30 0 53 23.5t35 57.5l211 617h42l214 -647q17 -51 59 -51h40v-32h-351v32h72q12 0 19.5 9.5t7.5 22.5q0 11 -6 29l-32 96h-210l-21 -61q-11 -28 -11 -51q0 -18 14.5 -31.5t37.5 -13.5h47v-32h-255v32zM245 226h185l-91 275zM248 786q50 32 74.5 71.5t41.5 88.5
h68q17 -49 41.5 -88.5t74.5 -71.5l-16 -24q-35 17 -72.5 44t-61.5 52q-24 -25 -61.5 -52t-72.5 -44zM271 1020q11 25 31 41.5t46 16.5q22 0 39 -5t43 -16q35 -15 64 -15q33 0 40 40h22q0 -25 -11 -50t-31 -41.5t-46 -16.5q-22 0 -39 5t-43 16q-35 15 -64 15q-33 0 -40 -40
h-22q0 25 11 50z" />
    <glyph glyph-name="uni0200" unicode="&#x200;" horiz-adv-x="754" 
d="M211 866q-27 21 -27 46q0 16 11.5 27t28.5 11q28 0 47 -32l85 -138l-20 -18zM345 866q-27 21 -27 46q0 16 11.5 27t28.5 11q28 0 47 -32l85 -138l-20 -18zM44 32h34q30 0 53 23.5t35 57.5l211 617h42l214 -647q17 -51 59 -51h40v-32h-351v32h72q12 0 19.5 9.5t7.5 22.5
q0 11 -6 29l-32 96h-210l-21 -61q-11 -28 -11 -51q0 -18 14.5 -31.5t37.5 -13.5h47v-32h-255v32zM245 226h185l-91 275z" />
    <glyph glyph-name="Adieresis" unicode="&#xc4;" horiz-adv-x="754" 
d="M247.5 811.5q-17.5 17.5 -17.5 42.5t17.5 42.5t42.5 17.5t42.5 -17.5t17.5 -42.5t-17.5 -42.5t-42.5 -17.5t-42.5 17.5zM459.5 811.5q-17.5 17.5 -17.5 42.5t17.5 42.5t42.5 17.5t42.5 -17.5t17.5 -42.5t-17.5 -42.5t-42.5 -17.5t-42.5 17.5zM44 32h34q30 0 53 23.5
t35 57.5l211 617h42l214 -647q17 -51 59 -51h40v-32h-351v32h72q12 0 19.5 9.5t7.5 22.5q0 11 -6 29l-32 96h-210l-21 -61q-11 -28 -11 -51q0 -18 14.5 -31.5t37.5 -13.5h47v-32h-255v32zM245 226h185l-91 275z" />
    <glyph glyph-name="uni1EA0" unicode="&#x1ea0;" horiz-adv-x="754" 
d="M44 32h34q30 0 53 23.5t35 57.5l211 617h42l214 -647q17 -51 59 -51h40v-32h-351v32h72q12 0 19.5 9.5t7.5 22.5q0 11 -6 29l-32 96h-210l-21 -61q-11 -28 -11 -51q0 -18 14.5 -31.5t37.5 -13.5h47v-32h-255v32zM245 226h185l-91 275zM324 -183q-21 21 -21 53
q0 31 21 52.5t53 21.5q31 0 52.5 -21.5t21.5 -52.5q0 -32 -21.5 -53t-52.5 -21q-32 0 -53 21z" />
    <glyph glyph-name="Agrave" unicode="&#xc0;" horiz-adv-x="754" 
d="M275 860q-28 21 -28 48q0 18 12 29t30 11q14 0 26 -7t23 -25l89 -138l-20 -18zM44 32h34q30 0 53 23.5t35 57.5l211 617h42l214 -647q17 -51 59 -51h40v-32h-351v32h72q12 0 19.5 9.5t7.5 22.5q0 11 -6 29l-32 96h-210l-21 -61q-11 -28 -11 -51q0 -18 14.5 -31.5
t37.5 -13.5h47v-32h-255v32zM245 226h185l-91 275z" />
    <glyph glyph-name="uni1EA2" unicode="&#x1ea2;" horiz-adv-x="754" 
d="M44 32h34q30 0 53 23.5t35 57.5l211 617h42l214 -647q17 -51 59 -51h40v-32h-351v32h72q12 0 19.5 9.5t7.5 22.5q0 11 -6 29l-32 96h-210l-21 -61q-11 -28 -11 -51q0 -18 14.5 -31.5t37.5 -13.5h47v-32h-255v32zM245 226h185l-91 275zM415 835q14 12 20.5 26t6.5 32
q0 24 -13.5 40t-40.5 16q-21 0 -37.5 -11t-16.5 -25q0 -10 3.5 -11t8.5 0q3 1 8 1q21 0 21 -22q0 -9 -8.5 -15.5t-21.5 -6.5q-14 0 -28 11t-14 29q0 37 26.5 56t59.5 19q42 0 73 -19t31 -62q0 -27 -17 -46t-51 -43h-45z" />
    <glyph glyph-name="uni0202" unicode="&#x202;" horiz-adv-x="754" 
d="M243 772q7 31 30.5 66.5t56 60.5t66.5 25t66.5 -25t56 -60.5t30.5 -66.5l-26 -10q-19 42 -52 64t-75 22t-75 -22t-52 -64zM44 32h34q30 0 53 23.5t35 57.5l211 617h42l214 -647q17 -51 59 -51h40v-32h-351v32h72q12 0 19.5 9.5t7.5 22.5q0 11 -6 29l-32 96h-210l-21 -61
q-11 -28 -11 -51q0 -18 14.5 -31.5t37.5 -13.5h47v-32h-255v32zM245 226h185l-91 275z" />
    <glyph glyph-name="Amacron" unicode="&#x100;" horiz-adv-x="754" 
d="M248 810v64h296v-64h-296zM44 32h34q30 0 53 23.5t35 57.5l211 617h42l214 -647q17 -51 59 -51h40v-32h-351v32h72q12 0 19.5 9.5t7.5 22.5q0 11 -6 29l-32 96h-210l-21 -61q-11 -28 -11 -51q0 -18 14.5 -31.5t37.5 -13.5h47v-32h-255v32zM245 226h185l-91 275z" />
    <glyph glyph-name="Aogonek" unicode="&#x104;" horiz-adv-x="754" 
d="M483.5 -211.5q-27.5 26.5 -27.5 67.5q0 83 112 140l-2 4h-185v32h72q12 0 19.5 9.5t7.5 22.5q0 11 -6 29l-32 96h-210l-21 -61q-11 -28 -11 -51q0 -18 14.5 -31.5t37.5 -13.5h47v-32h-255v32h34q30 0 53 23.5t35 57.5l211 617h42l214 -647q17 -51 59 -51h40v-32h-108
q-45 -26 -66.5 -58t-21.5 -75q0 -24 11.5 -37.5t32.5 -13.5q22 0 36.5 7t27.5 20l19 -19q-43 -62 -108 -62q-44 0 -71.5 26.5zM245 226h185l-91 275z" />
    <glyph glyph-name="Aring" unicode="&#xc5;" horiz-adv-x="754" 
d="M316 781q-31 27 -31 69t31 69t80 27t80 -27t31 -69t-31 -69t-80 -27t-80 27zM444 812q19 14 19 38t-19 38t-48 14t-48 -14t-19 -38t19 -38t48 -14t48 14zM44 32h34q30 0 53 23.5t35 57.5l211 617h42l214 -647q17 -51 59 -51h40v-32h-351v32h72q12 0 19.5 9.5t7.5 22.5
q0 11 -6 29l-32 96h-210l-21 -61q-11 -28 -11 -51q0 -18 14.5 -31.5t37.5 -13.5h47v-32h-255v32zM245 226h185l-91 275z" />
    <glyph glyph-name="Aringacute" unicode="&#x1fa;" horiz-adv-x="754" 
d="M371 889l67 53q13 10 28 10q9 0 14.5 -6.5t5.5 -14.5q0 -18 -27 -28l-79 -29zM336 757q-24 17 -24 47t24 47t60 17t60 -17t24 -47t-24 -47t-60 -17t-60 17zM442 804q0 32 -46 32t-46 -32t46 -32t46 32zM44 32h34q30 0 53 23.5t35 57.5l211 617h42l214 -647q17 -51 59 -51
h40v-32h-351v32h72q12 0 19.5 9.5t7.5 22.5q0 11 -6 29l-32 96h-210l-21 -61q-11 -28 -11 -51q0 -18 14.5 -31.5t37.5 -13.5h47v-32h-255v32zM245 226h185l-91 275z" />
    <glyph glyph-name="Atilde" unicode="&#xc3;" horiz-adv-x="754" 
d="M259 850q11 25 31 41.5t46 16.5q22 0 39 -5t43 -16q35 -15 64 -15q33 0 40 40h22q0 -25 -11 -50t-31 -41.5t-46 -16.5q-22 0 -39 5t-43 16q-35 15 -64 15q-33 0 -40 -40h-22q0 25 11 50zM44 32h34q30 0 53 23.5t35 57.5l211 617h42l214 -647q17 -51 59 -51h40v-32h-351
v32h72q12 0 19.5 9.5t7.5 22.5q0 11 -6 29l-32 96h-210l-21 -61q-11 -28 -11 -51q0 -18 14.5 -31.5t37.5 -13.5h47v-32h-255v32zM245 226h185l-91 275z" />
    <glyph glyph-name="AE" unicode="&#xc6;" horiz-adv-x="1004" 
d="M26 32h23q36 0 69 25t53 63l241 471q12 24 17 37t5 26q0 11 -7.5 18.5t-21.5 7.5h-29v32h568l6 -232h-32q0 7 -10.5 45t-29.5 69q-23 40 -53 63t-67 23h-110q-13 0 -18.5 -5t-5.5 -19v-276h51q27 0 50 22t36.5 54.5t13.5 61.5h32v-313h-32q0 30 -13.5 62.5t-36.5 54.5
t-50 22h-51v-288q0 -13 5.5 -18.5t18.5 -5.5h109q55 0 92 44t56 98q8 23 14 57t7 45h32l-6 -276h-571v32h70q14 0 19 5.5t5 18.5v154h-209l-23 -44q-11 -20 -20 -45.5t-9 -37.5q0 -51 49 -51h33v-32h-270v32zM283 246h192v374z" />
    <glyph glyph-name="AEacute" unicode="&#x1fc;" horiz-adv-x="1004" 
d="M618 778l89 138q11 18 23 25t26 7q18 0 30 -11t12 -29q0 -27 -28 -48l-132 -100zM26 32h23q36 0 69 25t53 63l241 471q12 24 17 37t5 26q0 11 -7.5 18.5t-21.5 7.5h-29v32h568l6 -232h-32q0 7 -10.5 45t-29.5 69q-23 40 -53 63t-67 23h-110q-13 0 -18.5 -5t-5.5 -19v-276
h51q27 0 50 22t36.5 54.5t13.5 61.5h32v-313h-32q0 30 -13.5 62.5t-36.5 54.5t-50 22h-51v-288q0 -13 5.5 -18.5t18.5 -5.5h109q55 0 92 44t56 98q8 23 14 57t7 45h32l-6 -276h-571v32h70q14 0 19 5.5t5 18.5v154h-209l-23 -44q-11 -20 -20 -45.5t-9 -37.5q0 -51 49 -51h33
v-32h-270v32zM283 246h192v374z" />
    <glyph glyph-name="B" unicode="B" horiz-adv-x="710" 
d="M62 32h70q14 0 19 5.5t5 18.5v600q0 14 -5 19t-19 5h-70v32h352q59 0 110.5 -22t82.5 -60.5t31 -87.5q0 -66 -49 -107t-120 -60v-6q46 -7 90.5 -29.5t73.5 -59.5t29 -86q0 -61 -32 -105t-85.5 -66.5t-117.5 -22.5h-365v32zM396 388q54 0 73 38.5t19 115.5q0 65 -23 101.5
t-63 36.5h-74q-13 0 -18.5 -5t-5.5 -19v-268h92zM396 32q53 0 79.5 35.5t26.5 126.5t-26.5 126.5t-79.5 35.5h-92v-300q0 -13 5.5 -18.5t18.5 -5.5h68z" />
    <glyph glyph-name="C" unicode="C" horiz-adv-x="660" 
d="M201.5 34.5q-65.5 52.5 -98.5 138t-33 183.5q0 101 34 186.5t97.5 136.5t148.5 51q37 0 68.5 -12.5t66.5 -36.5q23 -15 34 -15q8 0 13 4.5t9 14.5l18 37h33v-307h-32q-23 129 -79.5 206t-130.5 77q-47 0 -78.5 -46t-31.5 -146v-300q0 -99 35.5 -145.5t84.5 -46.5
q119 0 177 109q29 53 39 152h36q-3 -44 -13.5 -88.5t-27.5 -77.5q-31 -60 -84.5 -93.5t-126.5 -33.5q-93 0 -158.5 52.5z" />
    <glyph glyph-name="Cacute" unicode="&#x106;" horiz-adv-x="660" 
d="M316 778l89 138q11 18 23 25t26 7q18 0 30 -11t12 -29q0 -27 -28 -48l-132 -100zM201.5 34.5q-65.5 52.5 -98.5 138t-33 183.5q0 101 34 186.5t97.5 136.5t148.5 51q37 0 68.5 -12.5t66.5 -36.5q23 -15 34 -15q8 0 13 4.5t9 14.5l18 37h33v-307h-32q-23 129 -79.5 206
t-130.5 77q-47 0 -78.5 -46t-31.5 -146v-300q0 -99 35.5 -145.5t84.5 -46.5q119 0 177 109q29 53 39 152h36q-3 -44 -13.5 -88.5t-27.5 -77.5q-31 -60 -84.5 -93.5t-126.5 -33.5q-93 0 -158.5 52.5z" />
    <glyph glyph-name="Ccaron" unicode="&#x10c;" horiz-adv-x="660" 
d="M324 762l-140 136l16 22l148 -86l148 86l16 -22l-140 -136h-48zM201.5 34.5q-65.5 52.5 -98.5 138t-33 183.5q0 101 34 186.5t97.5 136.5t148.5 51q37 0 68.5 -12.5t66.5 -36.5q23 -15 34 -15q8 0 13 4.5t9 14.5l18 37h33v-307h-32q-23 129 -79.5 206t-130.5 77
q-47 0 -78.5 -46t-31.5 -146v-300q0 -99 35.5 -145.5t84.5 -46.5q119 0 177 109q29 53 39 152h36q-3 -44 -13.5 -88.5t-27.5 -77.5q-31 -60 -84.5 -93.5t-126.5 -33.5q-93 0 -158.5 52.5z" />
    <glyph glyph-name="Ccedilla" unicode="&#xc7;" horiz-adv-x="660" 
d="M280 -219.5q-35 18.5 -35 49.5q0 17 8.5 28t24.5 11q18 0 25.5 -10t11.5 -27q9 -46 54 -46q28 0 43 14t15 39q0 22 -14.5 36t-43.5 14h-53l14 94q-83 9 -142 63t-88.5 136t-29.5 174q0 101 34 186.5t97.5 136.5t148.5 51q37 0 68.5 -12.5t66.5 -36.5q23 -15 34 -15
q8 0 13 4.5t9 14.5l18 37h33v-307h-32q-23 129 -79.5 206t-130.5 77q-47 0 -78.5 -46t-31.5 -146v-300q0 -99 35.5 -145.5t84.5 -46.5q119 0 177 109q29 53 39 152h36q-3 -44 -13.5 -88.5t-27.5 -77.5q-26 -51 -76.5 -89t-135.5 -38l-4 -29h33q39 0 65 -25t26 -60
q0 -46 -30.5 -76t-95.5 -30q-38 0 -73 18.5z" />
    <glyph glyph-name="uni1E08" unicode="&#x1e08;" horiz-adv-x="660" 
d="M316 778l89 138q11 18 23 25t26 7q18 0 30 -11t12 -29q0 -27 -28 -48l-132 -100zM280 -219.5q-35 18.5 -35 49.5q0 17 8.5 28t24.5 11q18 0 25.5 -10t11.5 -27q9 -46 54 -46q28 0 43 14t15 39q0 22 -14.5 36t-43.5 14h-53l14 94q-83 9 -142 63t-88.5 136t-29.5 174
q0 101 34 186.5t97.5 136.5t148.5 51q37 0 68.5 -12.5t66.5 -36.5q23 -15 34 -15q8 0 13 4.5t9 14.5l18 37h33v-307h-32q-23 129 -79.5 206t-130.5 77q-47 0 -78.5 -46t-31.5 -146v-300q0 -99 35.5 -145.5t84.5 -46.5q119 0 177 109q29 53 39 152h36q-3 -44 -13.5 -88.5
t-27.5 -77.5q-26 -51 -76.5 -89t-135.5 -38l-4 -29h33q39 0 65 -25t26 -60q0 -46 -30.5 -76t-95.5 -30q-38 0 -73 18.5z" />
    <glyph glyph-name="Ccircumflex" unicode="&#x108;" horiz-adv-x="660" 
d="M180 786q97 51 148 144h40q49 -94 148 -144l-12 -24q-43 15 -76 32.5t-80 47.5q-47 -30 -80 -47.5t-76 -32.5zM201.5 34.5q-65.5 52.5 -98.5 138t-33 183.5q0 101 34 186.5t97.5 136.5t148.5 51q37 0 68.5 -12.5t66.5 -36.5q23 -15 34 -15q8 0 13 4.5t9 14.5l18 37h33
v-307h-32q-23 129 -79.5 206t-130.5 77q-47 0 -78.5 -46t-31.5 -146v-300q0 -99 35.5 -145.5t84.5 -46.5q119 0 177 109q29 53 39 152h36q-3 -44 -13.5 -88.5t-27.5 -77.5q-31 -60 -84.5 -93.5t-126.5 -33.5q-93 0 -158.5 52.5z" />
    <glyph glyph-name="Cdotaccent" unicode="&#x10a;" horiz-adv-x="660" 
d="M299 805q-19 19 -19 49t19 49t49 19t49 -19t19 -49t-19 -49t-49 -19t-49 19zM201.5 34.5q-65.5 52.5 -98.5 138t-33 183.5q0 101 34 186.5t97.5 136.5t148.5 51q37 0 68.5 -12.5t66.5 -36.5q23 -15 34 -15q8 0 13 4.5t9 14.5l18 37h33v-307h-32q-23 129 -79.5 206
t-130.5 77q-47 0 -78.5 -46t-31.5 -146v-300q0 -99 35.5 -145.5t84.5 -46.5q119 0 177 109q29 53 39 152h36q-3 -44 -13.5 -88.5t-27.5 -77.5q-31 -60 -84.5 -93.5t-126.5 -33.5q-93 0 -158.5 52.5z" />
    <glyph glyph-name="D" unicode="D" horiz-adv-x="786" 
d="M62 32h70q14 0 19 5.5t5 18.5v600q0 14 -5 19t-19 5h-70v32h372q83 0 152 -44.5t109.5 -124t40.5 -181.5t-40.5 -185t-110 -130t-151.5 -47h-372v32zM417 32q64 0 106.5 44.5t42.5 129.5v300q0 85 -42.5 129.5t-106.5 44.5h-89q-13 0 -18.5 -5t-5.5 -19v-600
q0 -13 5.5 -18.5t18.5 -5.5h89z" />
    <glyph glyph-name="uni01F1" unicode="&#x1f1;" horiz-adv-x="1438" 
d="M62 32h70q14 0 19 5.5t5 18.5v600q0 14 -5 19t-19 5h-70v32h372q83 0 152 -44.5t109.5 -124t40.5 -181.5t-40.5 -185t-110 -130t-151.5 -47h-372v32zM854 32l352 648h-126q-38 0 -82.5 -39.5t-68.5 -98.5q-11 -27 -17 -54t-6 -32h-32l12 256h488v-34l-351 -646h137
q52 0 95 41t67 89q18 35 28 74.5t10 45.5h32l-16 -282h-522v32zM417 32q64 0 106.5 44.5t42.5 129.5v300q0 85 -42.5 129.5t-106.5 44.5h-89q-13 0 -18.5 -5t-5.5 -19v-600q0 -13 5.5 -18.5t18.5 -5.5h89z" />
    <glyph glyph-name="uni01C4" unicode="&#x1c4;" horiz-adv-x="1438" 
d="M1108 762l-140 136l16 22l148 -86l148 86l16 -22l-140 -136h-48zM62 32h70q14 0 19 5.5t5 18.5v600q0 14 -5 19t-19 5h-70v32h372q83 0 152 -44.5t109.5 -124t40.5 -181.5t-40.5 -185t-110 -130t-151.5 -47h-372v32zM854 32l352 648h-126q-38 0 -82.5 -39.5t-68.5 -98.5
q-11 -27 -17 -54t-6 -32h-32l12 256h488v-34l-351 -646h137q52 0 95 41t67 89q18 35 28 74.5t10 45.5h32l-16 -282h-522v32zM417 32q64 0 106.5 44.5t42.5 129.5v300q0 85 -42.5 129.5t-106.5 44.5h-89q-13 0 -18.5 -5t-5.5 -19v-600q0 -13 5.5 -18.5t18.5 -5.5h89z" />
    <glyph glyph-name="Eth" unicode="&#xd0;" horiz-adv-x="786" 
d="M62 32h70q14 0 19 5.5t5 18.5v300h-94v36h94v264q0 14 -5 19t-19 5h-70v32h372q83 0 152 -44.5t109.5 -124t40.5 -181.5t-40.5 -185t-110 -130t-151.5 -47h-372v32zM417 32q64 0 106.5 44.5t42.5 129.5v300q0 85 -42.5 129.5t-106.5 44.5h-89q-13 0 -18.5 -5t-5.5 -19
v-264h94v-36h-94v-300q0 -13 5.5 -18.5t18.5 -5.5h89z" />
    <glyph glyph-name="Dcaron" unicode="&#x10e;" horiz-adv-x="786" 
d="M328 762l-140 136l16 22l148 -86l148 86l16 -22l-140 -136h-48zM62 32h70q14 0 19 5.5t5 18.5v600q0 14 -5 19t-19 5h-70v32h372q83 0 152 -44.5t109.5 -124t40.5 -181.5t-40.5 -185t-110 -130t-151.5 -47h-372v32zM417 32q64 0 106.5 44.5t42.5 129.5v300
q0 85 -42.5 129.5t-106.5 44.5h-89q-13 0 -18.5 -5t-5.5 -19v-600q0 -13 5.5 -18.5t18.5 -5.5h89z" />
    <glyph glyph-name="Dcroat" unicode="&#x110;" horiz-adv-x="786" 
d="M62 32h70q14 0 19 5.5t5 18.5v300h-94v36h94v264q0 14 -5 19t-19 5h-70v32h372q83 0 152 -44.5t109.5 -124t40.5 -181.5t-40.5 -185t-110 -130t-151.5 -47h-372v32zM417 32q64 0 106.5 44.5t42.5 129.5v300q0 85 -42.5 129.5t-106.5 44.5h-89q-13 0 -18.5 -5t-5.5 -19
v-264h94v-36h-94v-300q0 -13 5.5 -18.5t18.5 -5.5h89z" />
    <glyph glyph-name="uni1E0C" unicode="&#x1e0c;" horiz-adv-x="786" 
d="M62 32h70q14 0 19 5.5t5 18.5v600q0 14 -5 19t-19 5h-70v32h372q83 0 152 -44.5t109.5 -124t40.5 -181.5t-40.5 -185t-110 -130t-151.5 -47h-372v32zM417 32q64 0 106.5 44.5t42.5 129.5v300q0 85 -42.5 129.5t-106.5 44.5h-89q-13 0 -18.5 -5t-5.5 -19v-600
q0 -13 5.5 -18.5t18.5 -5.5h89zM299.5 -183q-21.5 21 -21.5 53q0 31 21.5 52.5t52.5 21.5q32 0 53 -21.5t21 -52.5q0 -32 -21 -53t-53 -21q-31 0 -52.5 21z" />
    <glyph glyph-name="uni1E0E" unicode="&#x1e0e;" horiz-adv-x="786" 
d="M62 32h70q14 0 19 5.5t5 18.5v600q0 14 -5 19t-19 5h-70v32h372q83 0 152 -44.5t109.5 -124t40.5 -181.5t-40.5 -185t-110 -130t-151.5 -47h-372v32zM417 32q64 0 106.5 44.5t42.5 129.5v300q0 85 -42.5 129.5t-106.5 44.5h-89q-13 0 -18.5 -5t-5.5 -19v-600
q0 -13 5.5 -18.5t18.5 -5.5h89zM222 -164v64h260v-64h-260z" />
    <glyph glyph-name="uni01F2" unicode="&#x1f2;" horiz-adv-x="1246" 
d="M62 32h70q14 0 19 5.5t5 18.5v600q0 14 -5 19t-19 5h-70v32h372q83 0 152 -44.5t109.5 -124t40.5 -181.5t-40.5 -185t-110 -130t-151.5 -47h-372v32zM417 32q64 0 106.5 44.5t42.5 129.5v300q0 85 -42.5 129.5t-106.5 44.5h-89q-13 0 -18.5 -5t-5.5 -19v-600
q0 -13 5.5 -18.5t18.5 -5.5h89zM818 26l250 424h-68q-60 0 -94 -52q-18 -28 -27 -60.5t-9 -39.5h-24l6 176h348v-20l-254 -430h86q36 0 69.5 27t50.5 65q13 26 17.5 54t4.5 38h24l-6 -208h-374v26z" />
    <glyph glyph-name="uni01C5" unicode="&#x1c5;" horiz-adv-x="1246" 
d="M62 32h70q14 0 19 5.5t5 18.5v600q0 14 -5 19t-19 5h-70v32h372q83 0 152 -44.5t109.5 -124t40.5 -181.5t-40.5 -185t-110 -130t-151.5 -47h-372v32zM1000 524l-122 154l16 16l130 -98l130 98l16 -16l-122 -154h-48zM417 32q64 0 106.5 44.5t42.5 129.5v300
q0 85 -42.5 129.5t-106.5 44.5h-89q-13 0 -18.5 -5t-5.5 -19v-600q0 -13 5.5 -18.5t18.5 -5.5h89zM818 26l250 424h-68q-60 0 -94 -52q-18 -28 -27 -60.5t-9 -39.5h-24l6 176h348v-20l-254 -430h86q36 0 69.5 27t50.5 65q13 26 17.5 54t4.5 38h24l-6 -208h-374v26z" />
    <glyph glyph-name="E" unicode="E" horiz-adv-x="690" 
d="M62 32h70q14 0 19 5.5t5 18.5v600q0 14 -5 19t-19 5h-70v32h562l6 -232h-32q0 7 -10.5 45t-29.5 69q-23 40 -53 63t-67 23h-110q-13 0 -18.5 -5t-5.5 -19v-276h51q27 0 50 22t36.5 54.5t13.5 61.5h32v-313h-32q0 30 -13.5 62.5t-36.5 54.5t-50 22h-51v-288
q0 -13 5.5 -18.5t18.5 -5.5h109q55 0 92 44t56 98q8 23 14 57t7 45h32l-6 -276h-570v32z" />
    <glyph glyph-name="Eacute" unicode="&#xc9;" horiz-adv-x="690" 
d="M340 778l89 138q11 18 23 25t26 7q18 0 30 -11t12 -29q0 -27 -28 -48l-132 -100zM62 32h70q14 0 19 5.5t5 18.5v600q0 14 -5 19t-19 5h-70v32h562l6 -232h-32q0 7 -10.5 45t-29.5 69q-23 40 -53 63t-67 23h-110q-13 0 -18.5 -5t-5.5 -19v-276h51q27 0 50 22t36.5 54.5
t13.5 61.5h32v-313h-32q0 30 -13.5 62.5t-36.5 54.5t-50 22h-51v-288q0 -13 5.5 -18.5t18.5 -5.5h109q55 0 92 44t56 98q8 23 14 57t7 45h32l-6 -276h-570v32z" />
    <glyph glyph-name="Ebreve" unicode="&#x114;" horiz-adv-x="690" 
d="M287.5 786.5q-35.5 24.5 -53 60.5t-17.5 69h32q19 -90 123 -90t123 90h32q0 -33 -17.5 -69t-53 -60.5t-84.5 -24.5t-84.5 24.5zM62 32h70q14 0 19 5.5t5 18.5v600q0 14 -5 19t-19 5h-70v32h562l6 -232h-32q0 7 -10.5 45t-29.5 69q-23 40 -53 63t-67 23h-110
q-13 0 -18.5 -5t-5.5 -19v-276h51q27 0 50 22t36.5 54.5t13.5 61.5h32v-313h-32q0 30 -13.5 62.5t-36.5 54.5t-50 22h-51v-288q0 -13 5.5 -18.5t18.5 -5.5h109q55 0 92 44t56 98q8 23 14 57t7 45h32l-6 -276h-570v32z" />
    <glyph glyph-name="Ecaron" unicode="&#x11a;" horiz-adv-x="690" 
d="M348 762l-140 136l16 22l148 -86l148 86l16 -22l-140 -136h-48zM62 32h70q14 0 19 5.5t5 18.5v600q0 14 -5 19t-19 5h-70v32h562l6 -232h-32q0 7 -10.5 45t-29.5 69q-23 40 -53 63t-67 23h-110q-13 0 -18.5 -5t-5.5 -19v-276h51q27 0 50 22t36.5 54.5t13.5 61.5h32v-313
h-32q0 30 -13.5 62.5t-36.5 54.5t-50 22h-51v-288q0 -13 5.5 -18.5t18.5 -5.5h109q55 0 92 44t56 98q8 23 14 57t7 45h32l-6 -276h-570v32z" />
    <glyph glyph-name="uni1E1C" unicode="&#x1e1c;" horiz-adv-x="690" 
d="M287.5 786.5q-35.5 24.5 -53 60.5t-17.5 69h32q19 -90 123 -90t123 90h32q0 -33 -17.5 -69t-53 -60.5t-84.5 -24.5t-84.5 24.5zM305 -219.5q-35 18.5 -35 49.5q0 17 8.5 28t24.5 11q18 0 25.5 -10t11.5 -27q9 -46 54 -46q28 0 43 14t15 39q0 22 -14.5 36t-43.5 14h-54
l17 111h-295v32h70q14 0 19 5.5t5 18.5v600q0 14 -5 19t-19 5h-70v32h562l6 -232h-32q0 7 -10.5 45t-29.5 69q-23 40 -53 63t-67 23h-110q-13 0 -18.5 -5t-5.5 -19v-276h51q27 0 50 22t36.5 54.5t13.5 61.5h32v-313h-32q0 30 -13.5 62.5t-36.5 54.5t-50 22h-51v-288
q0 -13 5.5 -18.5t18.5 -5.5h109q55 0 92 44t56 98q8 23 14 57t7 45h32l-6 -276h-247l-6 -47h34q39 0 65 -25t26 -60q0 -46 -30.5 -76t-95.5 -30q-38 0 -73 18.5z" />
    <glyph glyph-name="Ecircumflex" unicode="&#xca;" horiz-adv-x="690" 
d="M204 786q97 51 148 144h40q49 -94 148 -144l-12 -24q-43 15 -76 32.5t-80 47.5q-47 -30 -80 -47.5t-76 -32.5zM62 32h70q14 0 19 5.5t5 18.5v600q0 14 -5 19t-19 5h-70v32h562l6 -232h-32q0 7 -10.5 45t-29.5 69q-23 40 -53 63t-67 23h-110q-13 0 -18.5 -5t-5.5 -19v-276
h51q27 0 50 22t36.5 54.5t13.5 61.5h32v-313h-32q0 30 -13.5 62.5t-36.5 54.5t-50 22h-51v-288q0 -13 5.5 -18.5t18.5 -5.5h109q55 0 92 44t56 98q8 23 14 57t7 45h32l-6 -276h-570v32z" />
    <glyph glyph-name="uni1EBE" unicode="&#x1ebe;" horiz-adv-x="690" 
d="M62 32h70q14 0 19 5.5t5 18.5v600q0 14 -5 19t-19 5h-70v32h562l6 -232h-32q0 7 -10.5 45t-29.5 69q-23 40 -53 63t-67 23h-110q-13 0 -18.5 -5t-5.5 -19v-276h51q27 0 50 22t36.5 54.5t13.5 61.5h32v-313h-32q0 30 -13.5 62.5t-36.5 54.5t-50 22h-51v-288
q0 -13 5.5 -18.5t18.5 -5.5h109q55 0 92 44t56 98q8 23 14 57t7 45h32l-6 -276h-570v32zM195 786q50 32 74.5 71.5t41.5 88.5h68q17 -49 41.5 -88.5t74.5 -71.5l-16 -24q-35 17 -72.5 44t-61.5 52q-24 -25 -61.5 -52t-72.5 -44zM468 875l89 138q11 18 23 25t26 7
q18 0 30 -11t12 -29q0 -27 -28 -48l-132 -100z" />
    <glyph glyph-name="uni1EC6" unicode="&#x1ec6;" horiz-adv-x="690" 
d="M62 32h70q14 0 19 5.5t5 18.5v600q0 14 -5 19t-19 5h-70v32h562l6 -232h-32q0 7 -10.5 45t-29.5 69q-23 40 -53 63t-67 23h-110q-13 0 -18.5 -5t-5.5 -19v-276h51q27 0 50 22t36.5 54.5t13.5 61.5h32v-313h-32q0 30 -13.5 62.5t-36.5 54.5t-50 22h-51v-288
q0 -13 5.5 -18.5t18.5 -5.5h109q55 0 92 44t56 98q8 23 14 57t7 45h32l-6 -276h-570v32zM292 -183q-21 21 -21 53q0 31 21 52.5t53 21.5q31 0 52.5 -21.5t21.5 -52.5q0 -32 -21.5 -53t-52.5 -21q-32 0 -53 21zM177 786q97 51 148 144h40q49 -94 148 -144l-12 -24
q-43 15 -76 32.5t-80 47.5q-47 -30 -80 -47.5t-76 -32.5z" />
    <glyph glyph-name="uni1EC0" unicode="&#x1ec0;" horiz-adv-x="690" 
d="M62 32h70q14 0 19 5.5t5 18.5v600q0 14 -5 19t-19 5h-70v32h562l6 -232h-32q0 7 -10.5 45t-29.5 69q-23 40 -53 63t-67 23h-110q-13 0 -18.5 -5t-5.5 -19v-276h51q27 0 50 22t36.5 54.5t13.5 61.5h32v-313h-32q0 30 -13.5 62.5t-36.5 54.5t-50 22h-51v-288
q0 -13 5.5 -18.5t18.5 -5.5h109q55 0 92 44t56 98q8 23 14 57t7 45h32l-6 -276h-570v32zM195 786q50 32 74.5 71.5t41.5 88.5h68q17 -49 41.5 -88.5t74.5 -71.5l-16 -24q-35 17 -72.5 44t-61.5 52q-24 -25 -61.5 -52t-72.5 -44zM338 1026q-28 21 -28 48q0 18 12 29t30 11
q14 0 26 -7t23 -25l89 -138l-20 -18z" />
    <glyph glyph-name="uni1EC2" unicode="&#x1ec2;" horiz-adv-x="690" 
d="M62 32h70q14 0 19 5.5t5 18.5v600q0 14 -5 19t-19 5h-70v32h562l6 -232h-32q0 7 -10.5 45t-29.5 69q-23 40 -53 63t-67 23h-110q-13 0 -18.5 -5t-5.5 -19v-276h51q27 0 50 22t36.5 54.5t13.5 61.5h32v-313h-32q0 30 -13.5 62.5t-36.5 54.5t-50 22h-51v-288
q0 -13 5.5 -18.5t18.5 -5.5h109q55 0 92 44t56 98q8 23 14 57t7 45h32l-6 -276h-570v32zM195 786q50 32 74.5 71.5t41.5 88.5h68q17 -49 41.5 -88.5t74.5 -71.5l-16 -24q-35 17 -72.5 44t-61.5 52q-24 -25 -61.5 -52t-72.5 -44zM482 962q14 12 20.5 26t6.5 32q0 24 -13.5 40
t-40.5 16q-21 0 -37.5 -11t-16.5 -25q0 -10 3.5 -11t8.5 0q3 1 8 1q21 0 21 -22q0 -9 -8.5 -15.5t-21.5 -6.5q-14 0 -28 11t-14 29q0 37 26.5 56t59.5 19q42 0 73 -19t31 -62q0 -27 -17 -46t-51 -43h-45z" />
    <glyph glyph-name="uni1EC4" unicode="&#x1ec4;" horiz-adv-x="690" 
d="M62 32h70q14 0 19 5.5t5 18.5v600q0 14 -5 19t-19 5h-70v32h562l6 -232h-32q0 7 -10.5 45t-29.5 69q-23 40 -53 63t-67 23h-110q-13 0 -18.5 -5t-5.5 -19v-276h51q27 0 50 22t36.5 54.5t13.5 61.5h32v-313h-32q0 30 -13.5 62.5t-36.5 54.5t-50 22h-51v-288
q0 -13 5.5 -18.5t18.5 -5.5h109q55 0 92 44t56 98q8 23 14 57t7 45h32l-6 -276h-570v32zM195 786q50 32 74.5 71.5t41.5 88.5h68q17 -49 41.5 -88.5t74.5 -71.5l-16 -24q-35 17 -72.5 44t-61.5 52q-24 -25 -61.5 -52t-72.5 -44zM218 1020q11 25 31 41.5t46 16.5q22 0 39 -5
t43 -16q35 -15 64 -15q33 0 40 40h22q0 -25 -11 -50t-31 -41.5t-46 -16.5q-22 0 -39 5t-43 16q-35 15 -64 15q-33 0 -40 -40h-22q0 25 11 50z" />
    <glyph glyph-name="uni0204" unicode="&#x204;" horiz-adv-x="690" 
d="M187 866q-27 21 -27 46q0 16 11.5 27t28.5 11q28 0 47 -32l85 -138l-20 -18zM321 866q-27 21 -27 46q0 16 11.5 27t28.5 11q28 0 47 -32l85 -138l-20 -18zM62 32h70q14 0 19 5.5t5 18.5v600q0 14 -5 19t-19 5h-70v32h562l6 -232h-32q0 7 -10.5 45t-29.5 69q-23 40 -53 63
t-67 23h-110q-13 0 -18.5 -5t-5.5 -19v-276h51q27 0 50 22t36.5 54.5t13.5 61.5h32v-313h-32q0 30 -13.5 62.5t-36.5 54.5t-50 22h-51v-288q0 -13 5.5 -18.5t18.5 -5.5h109q55 0 92 44t56 98q8 23 14 57t7 45h32l-6 -276h-570v32z" />
    <glyph glyph-name="Edieresis" unicode="&#xcb;" horiz-adv-x="690" 
d="M223.5 811.5q-17.5 17.5 -17.5 42.5t17.5 42.5t42.5 17.5t42.5 -17.5t17.5 -42.5t-17.5 -42.5t-42.5 -17.5t-42.5 17.5zM435.5 811.5q-17.5 17.5 -17.5 42.5t17.5 42.5t42.5 17.5t42.5 -17.5t17.5 -42.5t-17.5 -42.5t-42.5 -17.5t-42.5 17.5zM62 32h70q14 0 19 5.5
t5 18.5v600q0 14 -5 19t-19 5h-70v32h562l6 -232h-32q0 7 -10.5 45t-29.5 69q-23 40 -53 63t-67 23h-110q-13 0 -18.5 -5t-5.5 -19v-276h51q27 0 50 22t36.5 54.5t13.5 61.5h32v-313h-32q0 30 -13.5 62.5t-36.5 54.5t-50 22h-51v-288q0 -13 5.5 -18.5t18.5 -5.5h109
q55 0 92 44t56 98q8 23 14 57t7 45h32l-6 -276h-570v32z" />
    <glyph glyph-name="Edotaccent" unicode="&#x116;" horiz-adv-x="690" 
d="M323 805q-19 19 -19 49t19 49t49 19t49 -19t19 -49t-19 -49t-49 -19t-49 19zM62 32h70q14 0 19 5.5t5 18.5v600q0 14 -5 19t-19 5h-70v32h562l6 -232h-32q0 7 -10.5 45t-29.5 69q-23 40 -53 63t-67 23h-110q-13 0 -18.5 -5t-5.5 -19v-276h51q27 0 50 22t36.5 54.5
t13.5 61.5h32v-313h-32q0 30 -13.5 62.5t-36.5 54.5t-50 22h-51v-288q0 -13 5.5 -18.5t18.5 -5.5h109q55 0 92 44t56 98q8 23 14 57t7 45h32l-6 -276h-570v32z" />
    <glyph glyph-name="uni1EB8" unicode="&#x1eb8;" horiz-adv-x="690" 
d="M62 32h70q14 0 19 5.5t5 18.5v600q0 14 -5 19t-19 5h-70v32h562l6 -232h-32q0 7 -10.5 45t-29.5 69q-23 40 -53 63t-67 23h-110q-13 0 -18.5 -5t-5.5 -19v-276h51q27 0 50 22t36.5 54.5t13.5 61.5h32v-313h-32q0 30 -13.5 62.5t-36.5 54.5t-50 22h-51v-288
q0 -13 5.5 -18.5t18.5 -5.5h109q55 0 92 44t56 98q8 23 14 57t7 45h32l-6 -276h-570v32zM292 -183q-21 21 -21 53q0 31 21 52.5t53 21.5q31 0 52.5 -21.5t21.5 -52.5q0 -32 -21.5 -53t-52.5 -21q-32 0 -53 21z" />
    <glyph glyph-name="Egrave" unicode="&#xc8;" horiz-adv-x="690" 
d="M252 860q-28 21 -28 48q0 18 12 29t30 11q14 0 26 -7t23 -25l89 -138l-20 -18zM62 32h70q14 0 19 5.5t5 18.5v600q0 14 -5 19t-19 5h-70v32h562l6 -232h-32q0 7 -10.5 45t-29.5 69q-23 40 -53 63t-67 23h-110q-13 0 -18.5 -5t-5.5 -19v-276h51q27 0 50 22t36.5 54.5
t13.5 61.5h32v-313h-32q0 30 -13.5 62.5t-36.5 54.5t-50 22h-51v-288q0 -13 5.5 -18.5t18.5 -5.5h109q55 0 92 44t56 98q8 23 14 57t7 45h32l-6 -276h-570v32z" />
    <glyph glyph-name="uni1EBA" unicode="&#x1eba;" horiz-adv-x="690" 
d="M62 32h70q14 0 19 5.5t5 18.5v600q0 14 -5 19t-19 5h-70v32h562l6 -232h-32q0 7 -10.5 45t-29.5 69q-23 40 -53 63t-67 23h-110q-13 0 -18.5 -5t-5.5 -19v-276h51q27 0 50 22t36.5 54.5t13.5 61.5h32v-313h-32q0 30 -13.5 62.5t-36.5 54.5t-50 22h-51v-288
q0 -13 5.5 -18.5t18.5 -5.5h109q55 0 92 44t56 98q8 23 14 57t7 45h32l-6 -276h-570v32zM362 835q14 12 20.5 26t6.5 32q0 24 -13.5 40t-40.5 16q-21 0 -37.5 -11t-16.5 -25q0 -10 3.5 -11t8.5 0q3 1 8 1q21 0 21 -22q0 -9 -8.5 -15.5t-21.5 -6.5q-14 0 -28 11t-14 29
q0 37 26.5 56t59.5 19q42 0 73 -19t31 -62q0 -27 -17 -46t-51 -43h-45z" />
    <glyph glyph-name="uni0206" unicode="&#x206;" horiz-adv-x="690" 
d="M219 772q7 31 30.5 66.5t56 60.5t66.5 25t66.5 -25t56 -60.5t30.5 -66.5l-26 -10q-19 42 -52 64t-75 22t-75 -22t-52 -64zM62 32h70q14 0 19 5.5t5 18.5v600q0 14 -5 19t-19 5h-70v32h562l6 -232h-32q0 7 -10.5 45t-29.5 69q-23 40 -53 63t-67 23h-110q-13 0 -18.5 -5
t-5.5 -19v-276h51q27 0 50 22t36.5 54.5t13.5 61.5h32v-313h-32q0 30 -13.5 62.5t-36.5 54.5t-50 22h-51v-288q0 -13 5.5 -18.5t18.5 -5.5h109q55 0 92 44t56 98q8 23 14 57t7 45h32l-6 -276h-570v32z" />
    <glyph glyph-name="Emacron" unicode="&#x112;" horiz-adv-x="690" 
d="M224 810v64h296v-64h-296zM62 32h70q14 0 19 5.5t5 18.5v600q0 14 -5 19t-19 5h-70v32h562l6 -232h-32q0 7 -10.5 45t-29.5 69q-23 40 -53 63t-67 23h-110q-13 0 -18.5 -5t-5.5 -19v-276h51q27 0 50 22t36.5 54.5t13.5 61.5h32v-313h-32q0 30 -13.5 62.5t-36.5 54.5
t-50 22h-51v-288q0 -13 5.5 -18.5t18.5 -5.5h109q55 0 92 44t56 98q8 23 14 57t7 45h32l-6 -276h-570v32z" />
    <glyph glyph-name="uni1E16" unicode="&#x1e16;" horiz-adv-x="690" 
d="M336 843l101 86q27 23 48 23q15 0 25 -10t10 -24q0 -18 -11 -28.5t-30 -17.5l-133 -46zM224 762v52h296v-52h-296zM62 32h70q14 0 19 5.5t5 18.5v600q0 14 -5 19t-19 5h-70v32h562l6 -232h-32q0 7 -10.5 45t-29.5 69q-23 40 -53 63t-67 23h-110q-13 0 -18.5 -5t-5.5 -19
v-276h51q27 0 50 22t36.5 54.5t13.5 61.5h32v-313h-32q0 30 -13.5 62.5t-36.5 54.5t-50 22h-51v-288q0 -13 5.5 -18.5t18.5 -5.5h109q55 0 92 44t56 98q8 23 14 57t7 45h32l-6 -276h-570v32z" />
    <glyph glyph-name="uni1E14" unicode="&#x1e14;" horiz-adv-x="690" 
d="M265 872q-19 7 -30 17.5t-11 28.5q0 14 10 24t25 10q21 0 48 -23l101 -86l-10 -17zM224 762v52h296v-52h-296zM62 32h70q14 0 19 5.5t5 18.5v600q0 14 -5 19t-19 5h-70v32h562l6 -232h-32q0 7 -10.5 45t-29.5 69q-23 40 -53 63t-67 23h-110q-13 0 -18.5 -5t-5.5 -19v-276
h51q27 0 50 22t36.5 54.5t13.5 61.5h32v-313h-32q0 30 -13.5 62.5t-36.5 54.5t-50 22h-51v-288q0 -13 5.5 -18.5t18.5 -5.5h109q55 0 92 44t56 98q8 23 14 57t7 45h32l-6 -276h-570v32z" />
    <glyph glyph-name="Eogonek" unicode="&#x118;" horiz-adv-x="690" 
d="M384.5 -211.5q-27.5 26.5 -27.5 67.5q0 83 112 140l-2 4h-405v32h70q14 0 19 5.5t5 18.5v600q0 14 -5 19t-19 5h-70v32h562l6 -232h-32q0 7 -10.5 45t-29.5 69q-23 40 -53 63t-67 23h-110q-13 0 -18.5 -5t-5.5 -19v-276h51q27 0 50 22t36.5 54.5t13.5 61.5h32v-313h-32
q0 30 -13.5 62.5t-36.5 54.5t-50 22h-51v-288q0 -13 5.5 -18.5t18.5 -5.5h109q55 0 92 44t56 98q8 23 14 57t7 45h32l-6 -276h-107q-45 -26 -66.5 -58t-21.5 -75q0 -24 11.5 -37.5t32.5 -13.5q22 0 36.5 7t27.5 20l19 -19q-43 -62 -108 -62q-44 0 -71.5 26.5z" />
    <glyph glyph-name="uni1EBC" unicode="&#x1ebc;" horiz-adv-x="690" 
d="M62 32h70q14 0 19 5.5t5 18.5v600q0 14 -5 19t-19 5h-70v32h562l6 -232h-32q0 7 -10.5 45t-29.5 69q-23 40 -53 63t-67 23h-110q-13 0 -18.5 -5t-5.5 -19v-276h51q27 0 50 22t36.5 54.5t13.5 61.5h32v-313h-32q0 30 -13.5 62.5t-36.5 54.5t-50 22h-51v-288
q0 -13 5.5 -18.5t18.5 -5.5h109q55 0 92 44t56 98q8 23 14 57t7 45h32l-6 -276h-570v32zM208 850q11 25 31 41.5t46 16.5q22 0 39 -5t43 -16q35 -15 64 -15q33 0 40 40h22q0 -25 -11 -50t-31 -41.5t-46 -16.5q-22 0 -39 5t-43 16q-35 15 -64 15q-33 0 -40 -40h-22
q0 25 11 50z" />
    <glyph glyph-name="F" unicode="F" horiz-adv-x="670" 
d="M62 32h70q14 0 19 5.5t5 18.5v600q0 14 -5 19t-19 5h-70v32h564l8 -274h-32q0 8 -10 54t-26 79q-21 45 -56.5 77t-79.5 32h-102q-13 0 -18.5 -5t-5.5 -19v-276h51q27 0 50 22t36.5 54.5t13.5 61.5h32v-313h-32q0 30 -13.5 62.5t-36.5 54.5t-50 22h-51v-288
q0 -13 5.5 -18.5t18.5 -5.5h91v-32h-357v32z" />
    <glyph glyph-name="G" unicode="G" horiz-adv-x="720" 
d="M201.5 33q-63.5 51 -97.5 136.5t-34 186.5q0 100 38 186t106 137t154 51q43 0 74.5 -12.5t67.5 -36.5q23 -15 34 -15q13 0 22 19l17 37h33v-288h-31q-35 127 -89.5 195.5t-127.5 68.5q-61 0 -94.5 -44.5t-33.5 -147.5v-300q0 -192 110 -192q52 0 85 44t33 103v137
q0 14 -5 19t-19 5h-88v32h332v-32h-48q-13 0 -18.5 -5t-5.5 -19v-311h-32l-24 91q-3 10 -9 17.5t-15 7.5q-18 0 -31 -21q-25 -38 -65 -69t-90 -31q-85 0 -148.5 51z" />
    <glyph glyph-name="Gbreve" unicode="&#x11e;" horiz-adv-x="720" 
d="M281.5 786.5q-35.5 24.5 -53 60.5t-17.5 69h32q19 -90 123 -90t123 90h32q0 -33 -17.5 -69t-53 -60.5t-84.5 -24.5t-84.5 24.5zM201.5 33q-63.5 51 -97.5 136.5t-34 186.5q0 100 38 186t106 137t154 51q43 0 74.5 -12.5t67.5 -36.5q23 -15 34 -15q13 0 22 19l17 37h33
v-288h-31q-35 127 -89.5 195.5t-127.5 68.5q-61 0 -94.5 -44.5t-33.5 -147.5v-300q0 -192 110 -192q52 0 85 44t33 103v137q0 14 -5 19t-19 5h-88v32h332v-32h-48q-13 0 -18.5 -5t-5.5 -19v-311h-32l-24 91q-3 10 -9 17.5t-15 7.5q-18 0 -31 -21q-25 -38 -65 -69t-90 -31
q-85 0 -148.5 51z" />
    <glyph glyph-name="Gcircumflex" unicode="&#x11c;" horiz-adv-x="720" 
d="M198 786q97 51 148 144h40q49 -94 148 -144l-12 -24q-43 15 -76 32.5t-80 47.5q-47 -30 -80 -47.5t-76 -32.5zM201.5 33q-63.5 51 -97.5 136.5t-34 186.5q0 100 38 186t106 137t154 51q43 0 74.5 -12.5t67.5 -36.5q23 -15 34 -15q13 0 22 19l17 37h33v-288h-31
q-35 127 -89.5 195.5t-127.5 68.5q-61 0 -94.5 -44.5t-33.5 -147.5v-300q0 -192 110 -192q52 0 85 44t33 103v137q0 14 -5 19t-19 5h-88v32h332v-32h-48q-13 0 -18.5 -5t-5.5 -19v-311h-32l-24 91q-3 10 -9 17.5t-15 7.5q-18 0 -31 -21q-25 -38 -65 -69t-90 -31
q-85 0 -148.5 51z" />
    <glyph glyph-name="Gcommaaccent" unicode="&#x122;" horiz-adv-x="720" 
d="M201.5 33q-63.5 51 -97.5 136.5t-34 186.5q0 100 38 186t106 137t154 51q43 0 74.5 -12.5t67.5 -36.5q23 -15 34 -15q13 0 22 19l17 37h33v-288h-31q-35 127 -89.5 195.5t-127.5 68.5q-61 0 -94.5 -44.5t-33.5 -147.5v-300q0 -192 110 -192q52 0 85 44t33 103v137
q0 14 -5 19t-19 5h-88v32h332v-32h-48q-13 0 -18.5 -5t-5.5 -19v-311h-32l-24 91q-3 10 -9 17.5t-15 7.5q-18 0 -31 -21q-25 -38 -65 -69t-90 -31q-85 0 -148.5 51zM297 -216q33 6 53.5 20t20.5 35q0 15 -10 21q-6 4 -24 4q-17 0 -29 13.5t-12 36.5t18 38.5t39 15.5
q36 0 55 -24.5t19 -56.5q0 -34 -19.5 -61.5t-48 -43.5t-56.5 -20z" />
    <glyph glyph-name="Gdotaccent" unicode="&#x120;" horiz-adv-x="720" 
d="M317 805q-19 19 -19 49t19 49t49 19t49 -19t19 -49t-19 -49t-49 -19t-49 19zM201.5 33q-63.5 51 -97.5 136.5t-34 186.5q0 100 38 186t106 137t154 51q43 0 74.5 -12.5t67.5 -36.5q23 -15 34 -15q13 0 22 19l17 37h33v-288h-31q-35 127 -89.5 195.5t-127.5 68.5
q-61 0 -94.5 -44.5t-33.5 -147.5v-300q0 -192 110 -192q52 0 85 44t33 103v137q0 14 -5 19t-19 5h-88v32h332v-32h-48q-13 0 -18.5 -5t-5.5 -19v-311h-32l-24 91q-3 10 -9 17.5t-15 7.5q-18 0 -31 -21q-25 -38 -65 -69t-90 -31q-85 0 -148.5 51z" />
    <glyph glyph-name="uni1E20" unicode="&#x1e20;" horiz-adv-x="720" 
d="M218 810v64h296v-64h-296zM201.5 33q-63.5 51 -97.5 136.5t-34 186.5q0 100 38 186t106 137t154 51q43 0 74.5 -12.5t67.5 -36.5q23 -15 34 -15q13 0 22 19l17 37h33v-288h-31q-35 127 -89.5 195.5t-127.5 68.5q-61 0 -94.5 -44.5t-33.5 -147.5v-300q0 -192 110 -192
q52 0 85 44t33 103v137q0 14 -5 19t-19 5h-88v32h332v-32h-48q-13 0 -18.5 -5t-5.5 -19v-311h-32l-24 91q-3 10 -9 17.5t-15 7.5q-18 0 -31 -21q-25 -38 -65 -69t-90 -31q-85 0 -148.5 51z" />
    <glyph glyph-name="H" unicode="H" horiz-adv-x="824" 
d="M62 32h70q14 0 19 5.5t5 18.5v600q0 14 -5 19t-19 5h-70v32h336v-32h-70q-13 0 -18.5 -5t-5.5 -19v-264h236v264q0 14 -5 19t-19 5h-72v32h338v-32h-70q-13 0 -18.5 -5t-5.5 -19v-600q0 -13 5.5 -18.5t18.5 -5.5h70v-32h-336v32h70q14 0 19 5.5t5 18.5v300h-236v-300
q0 -13 5.5 -18.5t18.5 -5.5h70v-32h-336v32z" />
    <glyph glyph-name="Hbar" unicode="&#x126;" horiz-adv-x="824" 
d="M62 32h70q14 0 19 5.5t5 18.5v452h-108v36h108v112q0 14 -5 19t-19 5h-70v32h336v-32h-70q-13 0 -18.5 -5t-5.5 -19v-112h236v112q0 14 -5 19t-19 5h-72v32h338v-32h-70q-13 0 -18.5 -5t-5.5 -19v-112h108v-36h-108v-452q0 -13 5.5 -18.5t18.5 -5.5h70v-32h-336v32h70
q14 0 19 5.5t5 18.5v300h-236v-300q0 -13 5.5 -18.5t18.5 -5.5h70v-32h-336v32zM304 392h236v116h-236v-116z" />
    <glyph glyph-name="uni1E2A" unicode="&#x1e2a;" horiz-adv-x="824" 
d="M62 32h70q14 0 19 5.5t5 18.5v600q0 14 -5 19t-19 5h-70v32h336v-32h-70q-13 0 -18.5 -5t-5.5 -19v-264h236v264q0 14 -5 19t-19 5h-72v32h338v-32h-70q-13 0 -18.5 -5t-5.5 -19v-600q0 -13 5.5 -18.5t18.5 -5.5h70v-32h-336v32h70q14 0 19 5.5t5 18.5v300h-236v-300
q0 -13 5.5 -18.5t18.5 -5.5h70v-32h-336v32zM324 -165q-37 43 -43 111h28q8 -40 36.5 -63t75.5 -23t75.5 23t36.5 63h28q-6 -68 -43 -111t-97 -43t-97 43z" />
    <glyph glyph-name="Hcircumflex" unicode="&#x124;" horiz-adv-x="824" 
d="M254 786q97 51 148 144h40q49 -94 148 -144l-12 -24q-43 15 -76 32.5t-80 47.5q-47 -30 -80 -47.5t-76 -32.5zM62 32h70q14 0 19 5.5t5 18.5v600q0 14 -5 19t-19 5h-70v32h336v-32h-70q-13 0 -18.5 -5t-5.5 -19v-264h236v264q0 14 -5 19t-19 5h-72v32h338v-32h-70
q-13 0 -18.5 -5t-5.5 -19v-600q0 -13 5.5 -18.5t18.5 -5.5h70v-32h-336v32h70q14 0 19 5.5t5 18.5v300h-236v-300q0 -13 5.5 -18.5t18.5 -5.5h70v-32h-336v32z" />
    <glyph glyph-name="uni1E24" unicode="&#x1e24;" horiz-adv-x="824" 
d="M62 32h70q14 0 19 5.5t5 18.5v600q0 14 -5 19t-19 5h-70v32h336v-32h-70q-13 0 -18.5 -5t-5.5 -19v-264h236v264q0 14 -5 19t-19 5h-72v32h338v-32h-70q-13 0 -18.5 -5t-5.5 -19v-600q0 -13 5.5 -18.5t18.5 -5.5h70v-32h-336v32h70q14 0 19 5.5t5 18.5v300h-236v-300
q0 -13 5.5 -18.5t18.5 -5.5h70v-32h-336v32zM368.5 -183q-21.5 21 -21.5 53q0 31 21.5 52.5t52.5 21.5q32 0 53 -21.5t21 -52.5q0 -32 -21 -53t-53 -21q-31 0 -52.5 21z" />
    <glyph glyph-name="I" unicode="I" horiz-adv-x="440" 
d="M62 32h70q14 0 19 5.5t5 18.5v600q0 14 -5 19t-19 5h-70v32h336v-32h-70q-13 0 -18.5 -5t-5.5 -19v-600q0 -13 5.5 -18.5t18.5 -5.5h70v-32h-336v32z" />
    <glyph glyph-name="Iacute" unicode="&#xcd;" horiz-adv-x="440" 
d="M198 778l89 138q11 18 23 25t26 7q18 0 30 -11t12 -29q0 -27 -28 -48l-132 -100zM62 32h70q14 0 19 5.5t5 18.5v600q0 14 -5 19t-19 5h-70v32h336v-32h-70q-13 0 -18.5 -5t-5.5 -19v-600q0 -13 5.5 -18.5t18.5 -5.5h70v-32h-336v32z" />
    <glyph glyph-name="Ibreve" unicode="&#x12c;" horiz-adv-x="440" 
d="M145.5 786.5q-35.5 24.5 -53 60.5t-17.5 69h32q19 -90 123 -90t123 90h32q0 -33 -17.5 -69t-53 -60.5t-84.5 -24.5t-84.5 24.5zM62 32h70q14 0 19 5.5t5 18.5v600q0 14 -5 19t-19 5h-70v32h336v-32h-70q-13 0 -18.5 -5t-5.5 -19v-600q0 -13 5.5 -18.5t18.5 -5.5h70v-32
h-336v32z" />
    <glyph glyph-name="Icircumflex" unicode="&#xce;" horiz-adv-x="440" 
d="M62 786q97 51 148 144h40q49 -94 148 -144l-12 -24q-43 15 -76 32.5t-80 47.5q-47 -30 -80 -47.5t-76 -32.5zM62 32h70q14 0 19 5.5t5 18.5v600q0 14 -5 19t-19 5h-70v32h336v-32h-70q-13 0 -18.5 -5t-5.5 -19v-600q0 -13 5.5 -18.5t18.5 -5.5h70v-32h-336v32z" />
    <glyph glyph-name="uni0208" unicode="&#x208;" horiz-adv-x="440" 
d="M45 866q-27 21 -27 46q0 16 11.5 27t28.5 11q28 0 47 -32l85 -138l-20 -18zM179 866q-27 21 -27 46q0 16 11.5 27t28.5 11q28 0 47 -32l85 -138l-20 -18zM62 32h70q14 0 19 5.5t5 18.5v600q0 14 -5 19t-19 5h-70v32h336v-32h-70q-13 0 -18.5 -5t-5.5 -19v-600
q0 -13 5.5 -18.5t18.5 -5.5h70v-32h-336v32z" />
    <glyph glyph-name="Idieresis" unicode="&#xcf;" horiz-adv-x="440" 
d="M81.5 811.5q-17.5 17.5 -17.5 42.5t17.5 42.5t42.5 17.5t42.5 -17.5t17.5 -42.5t-17.5 -42.5t-42.5 -17.5t-42.5 17.5zM293.5 811.5q-17.5 17.5 -17.5 42.5t17.5 42.5t42.5 17.5t42.5 -17.5t17.5 -42.5t-17.5 -42.5t-42.5 -17.5t-42.5 17.5zM62 32h70q14 0 19 5.5t5 18.5
v600q0 14 -5 19t-19 5h-70v32h336v-32h-70q-13 0 -18.5 -5t-5.5 -19v-600q0 -13 5.5 -18.5t18.5 -5.5h70v-32h-336v32z" />
    <glyph glyph-name="uni1E2E" unicode="&#x1e2e;" horiz-adv-x="440" 
d="M174 820l83 107q19 25 44 25q15 0 25.5 -11t10.5 -25q0 -18 -8.5 -28t-25.5 -19l-117 -65zM67 785q-15 15 -15 37t15 37t37 15t37 -15t15 -37t-15 -37t-37 -15t-37 15zM319 785q-15 15 -15 37t15 37t37 15t37 -15t15 -37t-15 -37t-37 -15t-37 15zM62 32h70q14 0 19 5.5
t5 18.5v600q0 14 -5 19t-19 5h-70v32h336v-32h-70q-13 0 -18.5 -5t-5.5 -19v-600q0 -13 5.5 -18.5t18.5 -5.5h70v-32h-336v32z" />
    <glyph glyph-name="Idotaccent" unicode="&#x130;" horiz-adv-x="440" 
d="M181 805q-19 19 -19 49t19 49t49 19t49 -19t19 -49t-19 -49t-49 -19t-49 19zM62 32h70q14 0 19 5.5t5 18.5v600q0 14 -5 19t-19 5h-70v32h336v-32h-70q-13 0 -18.5 -5t-5.5 -19v-600q0 -13 5.5 -18.5t18.5 -5.5h70v-32h-336v32z" />
    <glyph glyph-name="uni1ECA" unicode="&#x1eca;" horiz-adv-x="440" 
d="M62 32h70q14 0 19 5.5t5 18.5v600q0 14 -5 19t-19 5h-70v32h336v-32h-70q-13 0 -18.5 -5t-5.5 -19v-600q0 -13 5.5 -18.5t18.5 -5.5h70v-32h-336v32zM167 -183q-21 21 -21 53q0 31 21 52.5t53 21.5q31 0 52.5 -21.5t21.5 -52.5q0 -32 -21.5 -53t-52.5 -21q-32 0 -53 21z
" />
    <glyph glyph-name="Igrave" unicode="&#xcc;" horiz-adv-x="440" 
d="M110 860q-28 21 -28 48q0 18 12 29t30 11q14 0 26 -7t23 -25l89 -138l-20 -18zM62 32h70q14 0 19 5.5t5 18.5v600q0 14 -5 19t-19 5h-70v32h336v-32h-70q-13 0 -18.5 -5t-5.5 -19v-600q0 -13 5.5 -18.5t18.5 -5.5h70v-32h-336v32z" />
    <glyph glyph-name="uni1EC8" unicode="&#x1ec8;" horiz-adv-x="440" 
d="M62 32h70q14 0 19 5.5t5 18.5v600q0 14 -5 19t-19 5h-70v32h336v-32h-70q-13 0 -18.5 -5t-5.5 -19v-600q0 -13 5.5 -18.5t18.5 -5.5h70v-32h-336v32zM237 835q14 12 20.5 26t6.5 32q0 24 -13.5 40t-40.5 16q-21 0 -37.5 -11t-16.5 -25q0 -10 3.5 -11t8.5 0q3 1 8 1
q21 0 21 -22q0 -9 -8.5 -15.5t-21.5 -6.5q-14 0 -28 11t-14 29q0 37 26.5 56t59.5 19q42 0 73 -19t31 -62q0 -27 -17 -46t-51 -43h-45z" />
    <glyph glyph-name="uni020A" unicode="&#x20a;" horiz-adv-x="440" 
d="M77 772q7 31 30.5 66.5t56 60.5t66.5 25t66.5 -25t56 -60.5t30.5 -66.5l-26 -10q-19 42 -52 64t-75 22t-75 -22t-52 -64zM62 32h70q14 0 19 5.5t5 18.5v600q0 14 -5 19t-19 5h-70v32h336v-32h-70q-13 0 -18.5 -5t-5.5 -19v-600q0 -13 5.5 -18.5t18.5 -5.5h70v-32h-336v32
z" />
    <glyph glyph-name="Imacron" unicode="&#x12a;" horiz-adv-x="440" 
d="M82 810v64h296v-64h-296zM62 32h70q14 0 19 5.5t5 18.5v600q0 14 -5 19t-19 5h-70v32h336v-32h-70q-13 0 -18.5 -5t-5.5 -19v-600q0 -13 5.5 -18.5t18.5 -5.5h70v-32h-336v32z" />
    <glyph glyph-name="Iogonek" unicode="&#x12e;" horiz-adv-x="440" 
d="M242.5 -211.5q-27.5 26.5 -27.5 67.5q0 83 112 140l-2 4h-263v32h70q14 0 19 5.5t5 18.5v600q0 14 -5 19t-19 5h-70v32h336v-32h-70q-13 0 -18.5 -5t-5.5 -19v-600q0 -13 5.5 -18.5t18.5 -5.5h70v-32h-15q-45 -26 -66.5 -58t-21.5 -75q0 -24 11.5 -37.5t32.5 -13.5
q22 0 36.5 7t27.5 20l19 -19q-43 -62 -108 -62q-44 0 -71.5 26.5z" />
    <glyph glyph-name="Itilde" unicode="&#x128;" horiz-adv-x="440" 
d="M93 850q11 25 31 41.5t46 16.5q22 0 39 -5t43 -16q35 -15 64 -15q33 0 40 40h22q0 -25 -11 -50t-31 -41.5t-46 -16.5q-22 0 -39 5t-43 16q-35 15 -64 15q-33 0 -40 -40h-22q0 25 11 50zM62 32h70q14 0 19 5.5t5 18.5v600q0 14 -5 19t-19 5h-70v32h336v-32h-70
q-13 0 -18.5 -5t-5.5 -19v-600q0 -13 5.5 -18.5t18.5 -5.5h70v-32h-336v32z" />
    <glyph glyph-name="J" unicode="J" horiz-adv-x="540" 
d="M124.5 2q-40.5 20 -64.5 58.5t-24 93.5q0 35 13 61.5t34 41t43 14.5q32 0 51.5 -20.5t19.5 -48.5q0 -34 -18 -54.5t-43 -29.5q-17 -6 -24.5 -15.5t-7.5 -26.5q0 -13 12.5 -28t35 -24.5t50.5 -9.5q76 0 76 116v526q0 14 -5 19t-19 5h-80v32h338v-32h-62q-13 0 -18.5 -5
t-5.5 -19v-462q0 -65 -31 -113t-79.5 -73.5t-101.5 -25.5q-49 0 -89.5 20z" />
    <glyph glyph-name="Jcircumflex" unicode="&#x134;" horiz-adv-x="540" 
d="M180 786q97 51 148 144h40q49 -94 148 -144l-12 -24q-43 15 -76 32.5t-80 47.5q-47 -30 -80 -47.5t-76 -32.5zM124.5 2q-40.5 20 -64.5 58.5t-24 93.5q0 35 13 61.5t34 41t43 14.5q32 0 51.5 -20.5t19.5 -48.5q0 -34 -18 -54.5t-43 -29.5q-17 -6 -24.5 -15.5t-7.5 -26.5
q0 -13 12.5 -28t35 -24.5t50.5 -9.5q76 0 76 116v526q0 14 -5 19t-19 5h-80v32h338v-32h-62q-13 0 -18.5 -5t-5.5 -19v-462q0 -65 -31 -113t-79.5 -73.5t-101.5 -25.5q-49 0 -89.5 20z" />
    <glyph glyph-name="K" unicode="K" horiz-adv-x="770" 
d="M62 32h70q14 0 19 5.5t5 18.5v600q0 14 -5 19t-19 5h-70v32h328v-32h-62q-13 0 -18.5 -5t-5.5 -19v-296l193 224q14 16 19.5 27.5t5.5 26.5q0 18 -10 30t-26 12h-29v32h247v-32h-35q-21 0 -43.5 -14.5t-39.5 -35.5l-134 -155l211 -399q13 -25 25 -34.5t35 -9.5h27v-32
h-314v32h40q9 0 15 6.5t6 14.5q0 6 -1.5 13.5t-3.5 11.5l-145 276l-43 -49v-249q0 -13 5.5 -18.5t18.5 -5.5h62v-32h-328v32z" />
    <glyph glyph-name="Kcommaaccent" unicode="&#x136;" horiz-adv-x="770" 
d="M62 32h70q14 0 19 5.5t5 18.5v600q0 14 -5 19t-19 5h-70v32h328v-32h-62q-13 0 -18.5 -5t-5.5 -19v-296l193 224q14 16 19.5 27.5t5.5 26.5q0 18 -10 30t-26 12h-29v32h247v-32h-35q-21 0 -43.5 -14.5t-39.5 -35.5l-134 -155l211 -399q13 -25 25 -34.5t35 -9.5h27v-32
h-314v32h40q9 0 15 6.5t6 14.5q0 6 -1.5 13.5t-3.5 11.5l-145 276l-43 -49v-249q0 -13 5.5 -18.5t18.5 -5.5h62v-32h-328v32zM346 -216q33 6 53.5 20t20.5 35q0 15 -10 21q-6 4 -24 4q-17 0 -29 13.5t-12 36.5t18 38.5t39 15.5q36 0 55 -24.5t19 -56.5q0 -34 -19.5 -61.5
t-48 -43.5t-56.5 -20z" />
    <glyph glyph-name="L" unicode="L" horiz-adv-x="670" 
d="M62 32h70q13 0 18.5 6.5t5.5 20.5v597q0 14 -5 19t-19 5h-70v32h336v-32h-70q-13 0 -18.5 -5t-5.5 -19v-597q0 -14 5.5 -20.5t18.5 -6.5h101q54 0 92.5 56t57.5 118q7 23 15 57t10 45h32l-8 -308h-566v32z" />
    <glyph glyph-name="uni01C7" unicode="&#x1c7;" horiz-adv-x="1210" 
d="M62 32h70q13 0 18.5 6.5t5.5 20.5v597q0 14 -5 19t-19 5h-70v32h336v-32h-70q-13 0 -18.5 -5t-5.5 -19v-597q0 -14 5.5 -20.5t18.5 -6.5h101q54 0 92.5 56t57.5 118q7 23 15 57t10 45h32l-8 -308h-566v32zM794.5 2q-40.5 20 -64.5 58.5t-24 93.5q0 35 13 61.5t34 41
t43 14.5q32 0 51.5 -20.5t19.5 -48.5q0 -34 -18 -54.5t-43 -29.5q-17 -6 -24.5 -15.5t-7.5 -26.5q0 -13 12.5 -28t35 -24.5t50.5 -9.5q76 0 76 116v526q0 14 -5 19t-19 5h-80v32h338v-32h-62q-13 0 -18.5 -5t-5.5 -19v-462q0 -65 -31 -113t-79.5 -73.5t-101.5 -25.5
q-49 0 -89.5 20z" />
    <glyph glyph-name="Lacute" unicode="&#x139;" horiz-adv-x="670" 
d="M198 778l89 138q11 18 23 25t26 7q18 0 30 -11t12 -29q0 -27 -28 -48l-132 -100zM62 32h70q13 0 18.5 6.5t5.5 20.5v597q0 14 -5 19t-19 5h-70v32h336v-32h-70q-13 0 -18.5 -5t-5.5 -19v-597q0 -14 5.5 -20.5t18.5 -6.5h101q54 0 92.5 56t57.5 118q7 23 15 57t10 45h32
l-8 -308h-566v32z" />
    <glyph glyph-name="Lcaron" unicode="&#x13d;" horiz-adv-x="690" 
d="M541 496q40 20 62.5 42.5t22.5 44.5q0 9 -5 16.5t-13 11.5q-10 5 -32 5q-19 0 -33.5 15.5t-14.5 37.5q0 26 19 42.5t52 16.5q38 0 60.5 -31t22.5 -67q0 -49 -38 -91.5t-89 -65.5zM62 32h70q13 0 18.5 6.5t5.5 20.5v597q0 14 -5 19t-19 5h-70v32h336v-32h-70
q-13 0 -18.5 -5t-5.5 -19v-597q0 -14 5.5 -20.5t18.5 -6.5h101q54 0 92.5 56t57.5 118q7 23 15 57t10 45h32l-8 -308h-566v32z" />
    <glyph glyph-name="Lcommaaccent" unicode="&#x13b;" horiz-adv-x="670" 
d="M62 32h70q13 0 18.5 6.5t5.5 20.5v597q0 14 -5 19t-19 5h-70v32h336v-32h-70q-13 0 -18.5 -5t-5.5 -19v-597q0 -14 5.5 -20.5t18.5 -6.5h101q54 0 92.5 56t57.5 118q7 23 15 57t10 45h32l-8 -308h-566v32zM304 -216q33 6 53.5 20t20.5 35q0 15 -10 21q-6 4 -24 4
q-17 0 -29 13.5t-12 36.5t18 38.5t39 15.5q36 0 55 -24.5t19 -56.5q0 -34 -19.5 -61.5t-48 -43.5t-56.5 -20z" />
    <glyph glyph-name="Ldot" unicode="&#x13f;" horiz-adv-x="670" 
d="M62 32h70q13 0 18.5 6.5t5.5 20.5v597q0 14 -5 19t-19 5h-70v32h336v-32h-70q-13 0 -18.5 -5t-5.5 -19v-597q0 -14 5.5 -20.5t18.5 -6.5h101q54 0 92.5 56t57.5 118q7 23 15 57t10 45h32l-8 -308h-566v32zM513 389q-19 19 -19 49t19 49t49 19t49 -19t19 -49t-19 -49
t-49 -19t-49 19z" />
    <glyph glyph-name="uni1E36" unicode="&#x1e36;" horiz-adv-x="670" 
d="M62 32h70q13 0 18.5 6.5t5.5 20.5v597q0 14 -5 19t-19 5h-70v32h336v-32h-70q-13 0 -18.5 -5t-5.5 -19v-597q0 -14 5.5 -20.5t18.5 -6.5h101q54 0 92.5 56t57.5 118q7 23 15 57t10 45h32l-8 -308h-566v32zM319.5 -183q-21.5 21 -21.5 53q0 31 21.5 52.5t52.5 21.5
q32 0 53 -21.5t21 -52.5q0 -32 -21 -53t-53 -21q-31 0 -52.5 21z" />
    <glyph glyph-name="uni01C8" unicode="&#x1c8;" horiz-adv-x="990" 
d="M795.5 597.5q-21.5 21.5 -21.5 52.5q0 32 21.5 53t52.5 21q32 0 53 -21t21 -53q0 -31 -21 -52.5t-53 -21.5q-31 0 -52.5 21.5zM62 32h70q13 0 18.5 6.5t5.5 20.5v597q0 14 -5 19t-19 5h-70v32h336v-32h-70q-13 0 -18.5 -5t-5.5 -19v-597q0 -14 5.5 -20.5t18.5 -6.5h101
q54 0 92.5 56t57.5 118q7 23 15 57t10 45h32l-8 -308h-566v32zM654.5 -206.5q-36.5 31.5 -36.5 80.5q0 34 22.5 56.5t51.5 22.5q23 0 41 -14t18 -39q0 -31 -28 -56q-17 -15 -17 -32q0 -14 11.5 -20t25.5 -6q23 0 35 28.5t12 103.5v516q0 9 -3.5 12.5t-12.5 3.5h-56v24h188
v-514q0 -64 -22 -108.5t-58.5 -67t-78.5 -22.5q-56 0 -92.5 31.5z" />
    <glyph glyph-name="uni1E3A" unicode="&#x1e3a;" horiz-adv-x="670" 
d="M62 32h70q13 0 18.5 6.5t5.5 20.5v597q0 14 -5 19t-19 5h-70v32h336v-32h-70q-13 0 -18.5 -5t-5.5 -19v-597q0 -14 5.5 -20.5t18.5 -6.5h101q54 0 92.5 56t57.5 118q7 23 15 57t10 45h32l-8 -308h-566v32zM242 -164v64h260v-64h-260z" />
    <glyph glyph-name="Lslash" unicode="&#x141;" horiz-adv-x="670" 
d="M62 32h70q13 0 18.5 6.5t5.5 20.5v247l-77 -38l-16 33l93 46v309q0 14 -5 19t-19 5h-70v32h336v-32h-70q-13 0 -18.5 -5t-5.5 -19v-235l130 64l16 -33l-146 -72v-321q0 -14 5.5 -20.5t18.5 -6.5h101q54 0 92.5 56t57.5 118q7 23 15 57t10 45h32l-8 -308h-566v32z" />
    <glyph glyph-name="M" unicode="M" horiz-adv-x="890" 
d="M199 537h-7v-415q0 -45 30.5 -67.5t73.5 -22.5v-32h-248v32q43 0 73.5 22.5t30.5 67.5v534q0 14 -5 19t-19 5h-80v32h239l183 -492l134 492h254v-32h-70q-13 0 -18.5 -5t-5.5 -19v-600q0 -13 5.5 -18.5t18.5 -5.5h70v-32h-336v32h70q14 0 19 5.5t5 18.5v569l-174 -637
h-39z" />
    <glyph glyph-name="uni1E42" unicode="&#x1e42;" horiz-adv-x="890" 
d="M199 537h-7v-415q0 -45 30.5 -67.5t73.5 -22.5v-32h-248v32q43 0 73.5 22.5t30.5 67.5v534q0 14 -5 19t-19 5h-80v32h239l183 -492l134 492h254v-32h-70q-13 0 -18.5 -5t-5.5 -19v-600q0 -13 5.5 -18.5t18.5 -5.5h70v-32h-336v32h70q14 0 19 5.5t5 18.5v569l-174 -637
h-39zM365.5 -183q-21.5 21 -21.5 53q0 31 21.5 52.5t52.5 21.5q32 0 53 -21.5t21 -52.5q0 -32 -21 -53t-53 -21q-31 0 -52.5 21z" />
    <glyph glyph-name="N" unicode="N" horiz-adv-x="764" 
d="M218 517h-4v-381q0 -46 35.5 -75t90.5 -29v-32h-292v32q55 0 90.5 29t35.5 75v427q0 11 -2 16t-9 15l-40 60q-10 15 -22 20.5t-35 5.5h-18v32h222l320 -457v321q0 46 -35.5 75t-90.5 29v32h292v-32q-55 0 -90.5 -29t-35.5 -75v-594h-38z" />
    <glyph glyph-name="uni01CA" unicode="&#x1ca;" horiz-adv-x="1304" 
d="M218 517h-4v-381q0 -46 35.5 -75t90.5 -29v-32h-292v32q55 0 90.5 29t35.5 75v427q0 11 -2 16t-9 15l-40 60q-10 15 -22 20.5t-35 5.5h-18v32h222l320 -457v321q0 46 -35.5 75t-90.5 29v32h292v-32q-55 0 -90.5 -29t-35.5 -75v-594h-38zM888.5 2q-40.5 20 -64.5 58.5
t-24 93.5q0 35 13 61.5t34 41t43 14.5q32 0 51.5 -20.5t19.5 -48.5q0 -34 -18 -54.5t-43 -29.5q-17 -6 -24.5 -15.5t-7.5 -26.5q0 -13 12.5 -28t35 -24.5t50.5 -9.5q76 0 76 116v526q0 14 -5 19t-19 5h-80v32h338v-32h-62q-13 0 -18.5 -5t-5.5 -19v-462q0 -65 -31 -113
t-79.5 -73.5t-101.5 -25.5q-49 0 -89.5 20z" />
    <glyph glyph-name="Nacute" unicode="&#x143;" horiz-adv-x="764" 
d="M386 778l89 138q11 18 23 25t26 7q18 0 30 -11t12 -29q0 -27 -28 -48l-132 -100zM218 517h-4v-381q0 -46 35.5 -75t90.5 -29v-32h-292v32q55 0 90.5 29t35.5 75v427q0 11 -2 16t-9 15l-40 60q-10 15 -22 20.5t-35 5.5h-18v32h222l320 -457v321q0 46 -35.5 75t-90.5 29v32
h292v-32q-55 0 -90.5 -29t-35.5 -75v-594h-38z" />
    <glyph glyph-name="Ncaron" unicode="&#x147;" horiz-adv-x="764" 
d="M394 762l-140 136l16 22l148 -86l148 86l16 -22l-140 -136h-48zM218 517h-4v-381q0 -46 35.5 -75t90.5 -29v-32h-292v32q55 0 90.5 29t35.5 75v427q0 11 -2 16t-9 15l-40 60q-10 15 -22 20.5t-35 5.5h-18v32h222l320 -457v321q0 46 -35.5 75t-90.5 29v32h292v-32
q-55 0 -90.5 -29t-35.5 -75v-594h-38z" />
    <glyph glyph-name="Ncommaaccent" unicode="&#x145;" horiz-adv-x="764" 
d="M218 517h-4v-381q0 -46 35.5 -75t90.5 -29v-32h-292v32q55 0 90.5 29t35.5 75v427q0 11 -2 16t-9 15l-40 60q-10 15 -22 20.5t-35 5.5h-18v32h222l320 -457v321q0 46 -35.5 75t-90.5 29v32h292v-32q-55 0 -90.5 -29t-35.5 -75v-594h-38zM350 -216q33 6 53.5 20t20.5 35
q0 15 -10 21q-6 4 -24 4q-17 0 -29 13.5t-12 36.5t18 38.5t39 15.5q36 0 55 -24.5t19 -56.5q0 -34 -19.5 -61.5t-48 -43.5t-56.5 -20z" />
    <glyph glyph-name="uni1E44" unicode="&#x1e44;" horiz-adv-x="764" 
d="M369 805q-19 19 -19 49t19 49t49 19t49 -19t19 -49t-19 -49t-49 -19t-49 19zM218 517h-4v-381q0 -46 35.5 -75t90.5 -29v-32h-292v32q55 0 90.5 29t35.5 75v427q0 11 -2 16t-9 15l-40 60q-10 15 -22 20.5t-35 5.5h-18v32h222l320 -457v321q0 46 -35.5 75t-90.5 29v32h292
v-32q-55 0 -90.5 -29t-35.5 -75v-594h-38z" />
    <glyph glyph-name="uni1E46" unicode="&#x1e46;" horiz-adv-x="764" 
d="M218 517h-4v-381q0 -46 35.5 -75t90.5 -29v-32h-292v32q55 0 90.5 29t35.5 75v427q0 11 -2 16t-9 15l-40 60q-10 15 -22 20.5t-35 5.5h-18v32h222l320 -457v321q0 46 -35.5 75t-90.5 29v32h292v-32q-55 0 -90.5 -29t-35.5 -75v-594h-38zM365.5 -183q-21.5 21 -21.5 53
q0 31 21.5 52.5t52.5 21.5q32 0 53 -21.5t21 -52.5q0 -32 -21 -53t-53 -21q-31 0 -52.5 21z" />
    <glyph glyph-name="Eng" unicode="&#x14a;" horiz-adv-x="764" 
d="M410.5 -212q-34.5 26 -34.5 67q0 22 13.5 36.5t32.5 14.5q42 0 50 -48q5 -24 17 -38t30 -14q31 0 51 24t20 70v84l-372 533h-4v-381q0 -46 35.5 -75t90.5 -29v-32h-292v32q55 0 90.5 29t35.5 75v427q0 11 -2 16t-9 15l-40 60q-10 15 -22 20.5t-35 5.5h-18v32h222
l320 -457v321q0 46 -35.5 75t-90.5 29v32h292v-32q-55 0 -90.5 -29t-35.5 -75v-678q0 -61 -36.5 -98.5t-101.5 -37.5q-47 0 -81.5 26z" />
    <glyph glyph-name="uni01CB" unicode="&#x1cb;" horiz-adv-x="1084" 
d="M889.5 597.5q-21.5 21.5 -21.5 52.5q0 32 21.5 53t52.5 21q32 0 53 -21t21 -53q0 -31 -21 -52.5t-53 -21.5q-31 0 -52.5 21.5zM218 517h-4v-381q0 -46 35.5 -75t90.5 -29v-32h-292v32q55 0 90.5 29t35.5 75v427q0 11 -2 16t-9 15l-40 60q-10 15 -22 20.5t-35 5.5h-18v32
h222l320 -457v321q0 46 -35.5 75t-90.5 29v32h292v-32q-55 0 -90.5 -29t-35.5 -75v-594h-38zM748.5 -206.5q-36.5 31.5 -36.5 80.5q0 34 22.5 56.5t51.5 22.5q23 0 41 -14t18 -39q0 -31 -28 -56q-17 -15 -17 -32q0 -14 11.5 -20t25.5 -6q23 0 35 28.5t12 103.5v516
q0 9 -3.5 12.5t-12.5 3.5h-56v24h188v-514q0 -64 -22 -108.5t-58.5 -67t-78.5 -22.5q-56 0 -92.5 31.5z" />
    <glyph glyph-name="uni1E48" unicode="&#x1e48;" horiz-adv-x="764" 
d="M218 517h-4v-381q0 -46 35.5 -75t90.5 -29v-32h-292v32q55 0 90.5 29t35.5 75v427q0 11 -2 16t-9 15l-40 60q-10 15 -22 20.5t-35 5.5h-18v32h222l320 -457v321q0 46 -35.5 75t-90.5 29v32h292v-32q-55 0 -90.5 -29t-35.5 -75v-594h-38zM288 -164v64h260v-64h-260z" />
    <glyph glyph-name="Ntilde" unicode="&#xd1;" horiz-adv-x="764" 
d="M281 850q11 25 31 41.5t46 16.5q22 0 39 -5t43 -16q35 -15 64 -15q33 0 40 40h22q0 -25 -11 -50t-31 -41.5t-46 -16.5q-22 0 -39 5t-43 16q-35 15 -64 15q-33 0 -40 -40h-22q0 25 11 50zM218 517h-4v-381q0 -46 35.5 -75t90.5 -29v-32h-292v32q55 0 90.5 29t35.5 75v427
q0 11 -2 16t-9 15l-40 60q-10 15 -22 20.5t-35 5.5h-18v32h222l320 -457v321q0 46 -35.5 75t-90.5 29v32h292v-32q-55 0 -90.5 -29t-35.5 -75v-594h-38z" />
    <glyph glyph-name="O" unicode="O" horiz-adv-x="712" 
d="M220.5 35q-68.5 53 -109.5 139.5t-41 181.5t41 181.5t109.5 139.5t145.5 53t145.5 -53t109.5 -139.5t41 -181.5t-41 -181.5t-109.5 -139.5t-145.5 -53t-145.5 53zM459.5 58.5q32.5 44.5 32.5 147.5v300q0 103 -32.5 147.5t-93.5 44.5t-93.5 -44.5t-32.5 -147.5v-300
q0 -103 32.5 -147.5t93.5 -44.5t93.5 44.5z" />
    <glyph glyph-name="Oacute" unicode="&#xd3;" horiz-adv-x="712" 
d="M334 778l89 138q11 18 23 25t26 7q18 0 30 -11t12 -29q0 -27 -28 -48l-132 -100zM220.5 35q-68.5 53 -109.5 139.5t-41 181.5t41 181.5t109.5 139.5t145.5 53t145.5 -53t109.5 -139.5t41 -181.5t-41 -181.5t-109.5 -139.5t-145.5 -53t-145.5 53zM459.5 58.5
q32.5 44.5 32.5 147.5v300q0 103 -32.5 147.5t-93.5 44.5t-93.5 -44.5t-32.5 -147.5v-300q0 -103 32.5 -147.5t93.5 -44.5t93.5 44.5z" />
    <glyph glyph-name="Obreve" unicode="&#x14e;" horiz-adv-x="712" 
d="M281.5 786.5q-35.5 24.5 -53 60.5t-17.5 69h32q19 -90 123 -90t123 90h32q0 -33 -17.5 -69t-53 -60.5t-84.5 -24.5t-84.5 24.5zM220.5 35q-68.5 53 -109.5 139.5t-41 181.5t41 181.5t109.5 139.5t145.5 53t145.5 -53t109.5 -139.5t41 -181.5t-41 -181.5t-109.5 -139.5
t-145.5 -53t-145.5 53zM459.5 58.5q32.5 44.5 32.5 147.5v300q0 103 -32.5 147.5t-93.5 44.5t-93.5 -44.5t-32.5 -147.5v-300q0 -103 32.5 -147.5t93.5 -44.5t93.5 44.5z" />
    <glyph glyph-name="Ocircumflex" unicode="&#xd4;" horiz-adv-x="712" 
d="M198 786q97 51 148 144h40q49 -94 148 -144l-12 -24q-43 15 -76 32.5t-80 47.5q-47 -30 -80 -47.5t-76 -32.5zM220.5 35q-68.5 53 -109.5 139.5t-41 181.5t41 181.5t109.5 139.5t145.5 53t145.5 -53t109.5 -139.5t41 -181.5t-41 -181.5t-109.5 -139.5t-145.5 -53
t-145.5 53zM459.5 58.5q32.5 44.5 32.5 147.5v300q0 103 -32.5 147.5t-93.5 44.5t-93.5 -44.5t-32.5 -147.5v-300q0 -103 32.5 -147.5t93.5 -44.5t93.5 44.5z" />
    <glyph glyph-name="uni1ED0" unicode="&#x1ed0;" horiz-adv-x="712" 
d="M220.5 35q-68.5 53 -109.5 139.5t-41 181.5t41 181.5t109.5 139.5t145.5 53t145.5 -53t109.5 -139.5t41 -181.5t-41 -181.5t-109.5 -139.5t-145.5 -53t-145.5 53zM459.5 58.5q32.5 44.5 32.5 147.5v300q0 103 -32.5 147.5t-93.5 44.5t-93.5 -44.5t-32.5 -147.5v-300
q0 -103 32.5 -147.5t93.5 -44.5t93.5 44.5zM206 786q50 32 74.5 71.5t41.5 88.5h68q17 -49 41.5 -88.5t74.5 -71.5l-16 -24q-35 17 -72.5 44t-61.5 52q-24 -25 -61.5 -52t-72.5 -44zM479 875l89 138q11 18 23 25t26 7q18 0 30 -11t12 -29q0 -27 -28 -48l-132 -100z" />
    <glyph glyph-name="uni1ED8" unicode="&#x1ed8;" horiz-adv-x="712" 
d="M220.5 35q-68.5 53 -109.5 139.5t-41 181.5t41 181.5t109.5 139.5t145.5 53t145.5 -53t109.5 -139.5t41 -181.5t-41 -181.5t-109.5 -139.5t-145.5 -53t-145.5 53zM459.5 58.5q32.5 44.5 32.5 147.5v300q0 103 -32.5 147.5t-93.5 44.5t-93.5 -44.5t-32.5 -147.5v-300
q0 -103 32.5 -147.5t93.5 -44.5t93.5 44.5zM303 -183q-21 21 -21 53q0 31 21 52.5t53 21.5q31 0 52.5 -21.5t21.5 -52.5q0 -32 -21.5 -53t-52.5 -21q-32 0 -53 21zM188 786q97 51 148 144h40q49 -94 148 -144l-12 -24q-43 15 -76 32.5t-80 47.5q-47 -30 -80 -47.5t-76 -32.5
z" />
    <glyph glyph-name="uni1ED2" unicode="&#x1ed2;" horiz-adv-x="712" 
d="M220.5 35q-68.5 53 -109.5 139.5t-41 181.5t41 181.5t109.5 139.5t145.5 53t145.5 -53t109.5 -139.5t41 -181.5t-41 -181.5t-109.5 -139.5t-145.5 -53t-145.5 53zM459.5 58.5q32.5 44.5 32.5 147.5v300q0 103 -32.5 147.5t-93.5 44.5t-93.5 -44.5t-32.5 -147.5v-300
q0 -103 32.5 -147.5t93.5 -44.5t93.5 44.5zM206 786q50 32 74.5 71.5t41.5 88.5h68q17 -49 41.5 -88.5t74.5 -71.5l-16 -24q-35 17 -72.5 44t-61.5 52q-24 -25 -61.5 -52t-72.5 -44zM349 1026q-28 21 -28 48q0 18 12 29t30 11q14 0 26 -7t23 -25l89 -138l-20 -18z" />
    <glyph glyph-name="uni1ED4" unicode="&#x1ed4;" horiz-adv-x="712" 
d="M220.5 35q-68.5 53 -109.5 139.5t-41 181.5t41 181.5t109.5 139.5t145.5 53t145.5 -53t109.5 -139.5t41 -181.5t-41 -181.5t-109.5 -139.5t-145.5 -53t-145.5 53zM459.5 58.5q32.5 44.5 32.5 147.5v300q0 103 -32.5 147.5t-93.5 44.5t-93.5 -44.5t-32.5 -147.5v-300
q0 -103 32.5 -147.5t93.5 -44.5t93.5 44.5zM206 786q50 32 74.5 71.5t41.5 88.5h68q17 -49 41.5 -88.5t74.5 -71.5l-16 -24q-35 17 -72.5 44t-61.5 52q-24 -25 -61.5 -52t-72.5 -44zM493 962q14 12 20.5 26t6.5 32q0 24 -13.5 40t-40.5 16q-21 0 -37.5 -11t-16.5 -25
q0 -10 3.5 -11t8.5 0q3 1 8 1q21 0 21 -22q0 -9 -8.5 -15.5t-21.5 -6.5q-14 0 -28 11t-14 29q0 37 26.5 56t59.5 19q42 0 73 -19t31 -62q0 -27 -17 -46t-51 -43h-45z" />
    <glyph glyph-name="uni1ED6" unicode="&#x1ed6;" horiz-adv-x="712" 
d="M220.5 35q-68.5 53 -109.5 139.5t-41 181.5t41 181.5t109.5 139.5t145.5 53t145.5 -53t109.5 -139.5t41 -181.5t-41 -181.5t-109.5 -139.5t-145.5 -53t-145.5 53zM459.5 58.5q32.5 44.5 32.5 147.5v300q0 103 -32.5 147.5t-93.5 44.5t-93.5 -44.5t-32.5 -147.5v-300
q0 -103 32.5 -147.5t93.5 -44.5t93.5 44.5zM206 786q50 32 74.5 71.5t41.5 88.5h68q17 -49 41.5 -88.5t74.5 -71.5l-16 -24q-35 17 -72.5 44t-61.5 52q-24 -25 -61.5 -52t-72.5 -44zM229 1020q11 25 31 41.5t46 16.5q22 0 39 -5t43 -16q35 -15 64 -15q33 0 40 40h22
q0 -25 -11 -50t-31 -41.5t-46 -16.5q-22 0 -39 5t-43 16q-35 15 -64 15q-33 0 -40 -40h-22q0 25 11 50z" />
    <glyph glyph-name="uni020C" unicode="&#x20c;" horiz-adv-x="712" 
d="M181 866q-27 21 -27 46q0 16 11.5 27t28.5 11q28 0 47 -32l85 -138l-20 -18zM315 866q-27 21 -27 46q0 16 11.5 27t28.5 11q28 0 47 -32l85 -138l-20 -18zM220.5 35q-68.5 53 -109.5 139.5t-41 181.5t41 181.5t109.5 139.5t145.5 53t145.5 -53t109.5 -139.5t41 -181.5
t-41 -181.5t-109.5 -139.5t-145.5 -53t-145.5 53zM459.5 58.5q32.5 44.5 32.5 147.5v300q0 103 -32.5 147.5t-93.5 44.5t-93.5 -44.5t-32.5 -147.5v-300q0 -103 32.5 -147.5t93.5 -44.5t93.5 44.5z" />
    <glyph glyph-name="Odieresis" unicode="&#xd6;" horiz-adv-x="712" 
d="M217.5 811.5q-17.5 17.5 -17.5 42.5t17.5 42.5t42.5 17.5t42.5 -17.5t17.5 -42.5t-17.5 -42.5t-42.5 -17.5t-42.5 17.5zM429.5 811.5q-17.5 17.5 -17.5 42.5t17.5 42.5t42.5 17.5t42.5 -17.5t17.5 -42.5t-17.5 -42.5t-42.5 -17.5t-42.5 17.5zM220.5 35
q-68.5 53 -109.5 139.5t-41 181.5t41 181.5t109.5 139.5t145.5 53t145.5 -53t109.5 -139.5t41 -181.5t-41 -181.5t-109.5 -139.5t-145.5 -53t-145.5 53zM459.5 58.5q32.5 44.5 32.5 147.5v300q0 103 -32.5 147.5t-93.5 44.5t-93.5 -44.5t-32.5 -147.5v-300
q0 -103 32.5 -147.5t93.5 -44.5t93.5 44.5z" />
    <glyph glyph-name="uni1ECC" unicode="&#x1ecc;" horiz-adv-x="712" 
d="M220.5 35q-68.5 53 -109.5 139.5t-41 181.5t41 181.5t109.5 139.5t145.5 53t145.5 -53t109.5 -139.5t41 -181.5t-41 -181.5t-109.5 -139.5t-145.5 -53t-145.5 53zM459.5 58.5q32.5 44.5 32.5 147.5v300q0 103 -32.5 147.5t-93.5 44.5t-93.5 -44.5t-32.5 -147.5v-300
q0 -103 32.5 -147.5t93.5 -44.5t93.5 44.5zM303 -183q-21 21 -21 53q0 31 21 52.5t53 21.5q31 0 52.5 -21.5t21.5 -52.5q0 -32 -21.5 -53t-52.5 -21q-32 0 -53 21z" />
    <glyph glyph-name="Ograve" unicode="&#xd2;" horiz-adv-x="712" 
d="M246 860q-28 21 -28 48q0 18 12 29t30 11q14 0 26 -7t23 -25l89 -138l-20 -18zM220.5 35q-68.5 53 -109.5 139.5t-41 181.5t41 181.5t109.5 139.5t145.5 53t145.5 -53t109.5 -139.5t41 -181.5t-41 -181.5t-109.5 -139.5t-145.5 -53t-145.5 53zM459.5 58.5
q32.5 44.5 32.5 147.5v300q0 103 -32.5 147.5t-93.5 44.5t-93.5 -44.5t-32.5 -147.5v-300q0 -103 32.5 -147.5t93.5 -44.5t93.5 44.5z" />
    <glyph glyph-name="uni1ECE" unicode="&#x1ece;" horiz-adv-x="712" 
d="M220.5 35q-68.5 53 -109.5 139.5t-41 181.5t41 181.5t109.5 139.5t145.5 53t145.5 -53t109.5 -139.5t41 -181.5t-41 -181.5t-109.5 -139.5t-145.5 -53t-145.5 53zM459.5 58.5q32.5 44.5 32.5 147.5v300q0 103 -32.5 147.5t-93.5 44.5t-93.5 -44.5t-32.5 -147.5v-300
q0 -103 32.5 -147.5t93.5 -44.5t93.5 44.5zM373 835q14 12 20.5 26t6.5 32q0 24 -13.5 40t-40.5 16q-21 0 -37.5 -11t-16.5 -25q0 -10 3.5 -11t8.5 0q3 1 8 1q21 0 21 -22q0 -9 -8.5 -15.5t-21.5 -6.5q-14 0 -28 11t-14 29q0 37 26.5 56t59.5 19q42 0 73 -19t31 -62
q0 -27 -17 -46t-51 -43h-45z" />
    <glyph glyph-name="Ohorn" unicode="&#x1a0;" horiz-adv-x="712" 
d="M620 539q42 -87 42 -183q0 -95 -41 -181.5t-109.5 -139.5t-145.5 -53t-145.5 53t-109.5 139.5t-41 181.5t41 181.5t109.5 139.5t145.5 53q44 0 86 -18q35 0 49 5.5t19 24.5t4 64h84q8 -108 -98 -128q68 -52 110 -139zM492 506q0 103 -32.5 147.5t-93.5 44.5t-93.5 -44.5
t-32.5 -147.5v-300q0 -103 32.5 -147.5t93.5 -44.5t93.5 44.5t32.5 147.5v300z" />
    <glyph glyph-name="uni1EDA" unicode="&#x1eda;" horiz-adv-x="712" 
d="M620 539q42 -87 42 -183q0 -95 -41 -181.5t-109.5 -139.5t-145.5 -53t-145.5 53t-109.5 139.5t-41 181.5t41 181.5t109.5 139.5t145.5 53q44 0 86 -18q35 0 49 5.5t19 24.5t4 64h84q8 -108 -98 -128q68 -52 110 -139zM492 506q0 103 -32.5 147.5t-93.5 44.5t-93.5 -44.5
t-32.5 -147.5v-300q0 -103 32.5 -147.5t93.5 -44.5t93.5 44.5t32.5 147.5v300zM336 778l89 138q11 18 23 25t26 7q18 0 30 -11t12 -29q0 -27 -28 -48l-132 -100z" />
    <glyph glyph-name="uni1EE2" unicode="&#x1ee2;" horiz-adv-x="712" 
d="M620 539q42 -87 42 -183q0 -95 -41 -181.5t-109.5 -139.5t-145.5 -53t-145.5 53t-109.5 139.5t-41 181.5t41 181.5t109.5 139.5t145.5 53q44 0 86 -18q35 0 49 5.5t19 24.5t4 64h84q8 -108 -98 -128q68 -52 110 -139zM492 506q0 103 -32.5 147.5t-93.5 44.5t-93.5 -44.5
t-32.5 -147.5v-300q0 -103 32.5 -147.5t93.5 -44.5t93.5 44.5t32.5 147.5v300zM303 -183q-21 21 -21 53q0 31 21 52.5t53 21.5q31 0 52.5 -21.5t21.5 -52.5q0 -32 -21.5 -53t-52.5 -21q-32 0 -53 21z" />
    <glyph glyph-name="uni1EDC" unicode="&#x1edc;" horiz-adv-x="712" 
d="M620 539q42 -87 42 -183q0 -95 -41 -181.5t-109.5 -139.5t-145.5 -53t-145.5 53t-109.5 139.5t-41 181.5t41 181.5t109.5 139.5t145.5 53q44 0 86 -18q35 0 49 5.5t19 24.5t4 64h84q8 -108 -98 -128q68 -52 110 -139zM492 506q0 103 -32.5 147.5t-93.5 44.5t-93.5 -44.5
t-32.5 -147.5v-300q0 -103 32.5 -147.5t93.5 -44.5t93.5 44.5t32.5 147.5v300zM227 860q-28 21 -28 48q0 18 12 29t30 11q14 0 26 -7t23 -25l89 -138l-20 -18z" />
    <glyph glyph-name="uni1EDE" unicode="&#x1ede;" horiz-adv-x="712" 
d="M620 539q42 -87 42 -183q0 -95 -41 -181.5t-109.5 -139.5t-145.5 -53t-145.5 53t-109.5 139.5t-41 181.5t41 181.5t109.5 139.5t145.5 53q44 0 86 -18q35 0 49 5.5t19 24.5t4 64h84q8 -108 -98 -128q68 -52 110 -139zM492 506q0 103 -32.5 147.5t-93.5 44.5t-93.5 -44.5
t-32.5 -147.5v-300q0 -103 32.5 -147.5t93.5 -44.5t93.5 44.5t32.5 147.5v300zM373 835q14 12 20.5 26t6.5 32q0 24 -13.5 40t-40.5 16q-21 0 -37.5 -11t-16.5 -25q0 -10 3.5 -11t8.5 0q3 1 8 1q21 0 21 -22q0 -9 -8.5 -15.5t-21.5 -6.5q-14 0 -28 11t-14 29q0 37 26.5 56
t59.5 19q42 0 73 -19t31 -62q0 -27 -17 -46t-51 -43h-45z" />
    <glyph glyph-name="uni1EE0" unicode="&#x1ee0;" horiz-adv-x="712" 
d="M620 539q42 -87 42 -183q0 -95 -41 -181.5t-109.5 -139.5t-145.5 -53t-145.5 53t-109.5 139.5t-41 181.5t41 181.5t109.5 139.5t145.5 53q44 0 86 -18q35 0 49 5.5t19 24.5t4 64h84q8 -108 -98 -128q68 -52 110 -139zM492 506q0 103 -32.5 147.5t-93.5 44.5t-93.5 -44.5
t-32.5 -147.5v-300q0 -103 32.5 -147.5t93.5 -44.5t93.5 44.5t32.5 147.5v300zM219 850q11 25 31 41.5t46 16.5q22 0 39 -5t43 -16q35 -15 64 -15q33 0 40 40h22q0 -25 -11 -50t-31 -41.5t-46 -16.5q-22 0 -39 5t-43 16q-35 15 -64 15q-33 0 -40 -40h-22q0 25 11 50z" />
    <glyph glyph-name="Ohungarumlaut" unicode="&#x150;" horiz-adv-x="712" 
d="M272 780l85 138q19 32 47 32q18 0 29 -11t11 -27q0 -25 -27 -46l-125 -104zM406 780l85 138q19 32 47 32q18 0 29 -11t11 -27q0 -25 -27 -46l-125 -104zM220.5 35q-68.5 53 -109.5 139.5t-41 181.5t41 181.5t109.5 139.5t145.5 53t145.5 -53t109.5 -139.5t41 -181.5
t-41 -181.5t-109.5 -139.5t-145.5 -53t-145.5 53zM459.5 58.5q32.5 44.5 32.5 147.5v300q0 103 -32.5 147.5t-93.5 44.5t-93.5 -44.5t-32.5 -147.5v-300q0 -103 32.5 -147.5t93.5 -44.5t93.5 44.5z" />
    <glyph glyph-name="uni020E" unicode="&#x20e;" horiz-adv-x="712" 
d="M213 772q7 31 30.5 66.5t56 60.5t66.5 25t66.5 -25t56 -60.5t30.5 -66.5l-26 -10q-19 42 -52 64t-75 22t-75 -22t-52 -64zM220.5 35q-68.5 53 -109.5 139.5t-41 181.5t41 181.5t109.5 139.5t145.5 53t145.5 -53t109.5 -139.5t41 -181.5t-41 -181.5t-109.5 -139.5
t-145.5 -53t-145.5 53zM459.5 58.5q32.5 44.5 32.5 147.5v300q0 103 -32.5 147.5t-93.5 44.5t-93.5 -44.5t-32.5 -147.5v-300q0 -103 32.5 -147.5t93.5 -44.5t93.5 44.5z" />
    <glyph glyph-name="Omacron" unicode="&#x14c;" horiz-adv-x="712" 
d="M218 810v64h296v-64h-296zM220.5 35q-68.5 53 -109.5 139.5t-41 181.5t41 181.5t109.5 139.5t145.5 53t145.5 -53t109.5 -139.5t41 -181.5t-41 -181.5t-109.5 -139.5t-145.5 -53t-145.5 53zM459.5 58.5q32.5 44.5 32.5 147.5v300q0 103 -32.5 147.5t-93.5 44.5
t-93.5 -44.5t-32.5 -147.5v-300q0 -103 32.5 -147.5t93.5 -44.5t93.5 44.5z" />
    <glyph glyph-name="uni1E52" unicode="&#x1e52;" horiz-adv-x="712" 
d="M330 843l101 86q27 23 48 23q15 0 25 -10t10 -24q0 -18 -11 -28.5t-30 -17.5l-133 -46zM218 762v52h296v-52h-296zM220.5 35q-68.5 53 -109.5 139.5t-41 181.5t41 181.5t109.5 139.5t145.5 53t145.5 -53t109.5 -139.5t41 -181.5t-41 -181.5t-109.5 -139.5t-145.5 -53
t-145.5 53zM459.5 58.5q32.5 44.5 32.5 147.5v300q0 103 -32.5 147.5t-93.5 44.5t-93.5 -44.5t-32.5 -147.5v-300q0 -103 32.5 -147.5t93.5 -44.5t93.5 44.5z" />
    <glyph glyph-name="uni1E50" unicode="&#x1e50;" horiz-adv-x="712" 
d="M259 872q-19 7 -30 17.5t-11 28.5q0 14 10 24t25 10q21 0 48 -23l101 -86l-10 -17zM218 762v52h296v-52h-296zM220.5 35q-68.5 53 -109.5 139.5t-41 181.5t41 181.5t109.5 139.5t145.5 53t145.5 -53t109.5 -139.5t41 -181.5t-41 -181.5t-109.5 -139.5t-145.5 -53
t-145.5 53zM459.5 58.5q32.5 44.5 32.5 147.5v300q0 103 -32.5 147.5t-93.5 44.5t-93.5 -44.5t-32.5 -147.5v-300q0 -103 32.5 -147.5t93.5 -44.5t93.5 44.5z" />
    <glyph glyph-name="uni01EA" unicode="&#x1ea;" horiz-adv-x="712" 
d="M271.5 -211.5q-27.5 26.5 -27.5 67.5q0 37 25 65.5t70 57.5l-1 5q-73 11 -134.5 65.5t-97.5 136t-36 170.5q0 95 41 181.5t109.5 139.5t145.5 53t145.5 -53t109.5 -139.5t41 -181.5q0 -86 -33 -163.5t-89 -132t-123 -74.5q-42 -12 -67.5 -39.5t-25.5 -79.5
q0 -24 11.5 -37.5t32.5 -13.5q22 0 36.5 7t27.5 20l19 -19q-43 -62 -108 -62q-44 0 -71.5 26.5zM459.5 58.5q32.5 44.5 32.5 147.5v300q0 103 -32.5 147.5t-93.5 44.5t-93.5 -44.5t-32.5 -147.5v-300q0 -103 32.5 -147.5t93.5 -44.5t93.5 44.5z" />
    <glyph glyph-name="Oslash" unicode="&#xd8;" horiz-adv-x="712" 
d="M70 6l80 103q-38 52 -59 116t-21 131q0 95 41 181.5t109.5 139.5t145.5 53q52 0 101.5 -25.5t89.5 -70.5l74 96l31 -24l-80 -103q38 -52 59 -116t21 -131q0 -95 -41 -181.5t-109.5 -139.5t-145.5 -53q-52 0 -101.5 25.5t-89.5 70.5l-74 -96zM490 548q-6 80 -38 115
t-86 35q-61 0 -93.5 -44.5t-32.5 -147.5v-281zM459.5 58.5q32.5 44.5 32.5 147.5v281l-250 -323q6 -80 38 -115t86 -35q61 0 93.5 44.5z" />
    <glyph glyph-name="Oslashacute" unicode="&#x1fe;" horiz-adv-x="712" 
d="M334 778l89 138q11 18 23 25t26 7q18 0 30 -11t12 -29q0 -27 -28 -48l-132 -100zM70 6l80 103q-38 52 -59 116t-21 131q0 95 41 181.5t109.5 139.5t145.5 53q52 0 101.5 -25.5t89.5 -70.5l74 96l31 -24l-80 -103q38 -52 59 -116t21 -131q0 -95 -41 -181.5t-109.5 -139.5
t-145.5 -53q-52 0 -101.5 25.5t-89.5 70.5l-74 -96zM490 548q-6 80 -38 115t-86 35q-61 0 -93.5 -44.5t-32.5 -147.5v-281zM459.5 58.5q32.5 44.5 32.5 147.5v281l-250 -323q6 -80 38 -115t86 -35q61 0 93.5 44.5z" />
    <glyph glyph-name="Otilde" unicode="&#xd5;" horiz-adv-x="712" 
d="M229 850q11 25 31 41.5t46 16.5q22 0 39 -5t43 -16q35 -15 64 -15q33 0 40 40h22q0 -25 -11 -50t-31 -41.5t-46 -16.5q-22 0 -39 5t-43 16q-35 15 -64 15q-33 0 -40 -40h-22q0 25 11 50zM220.5 35q-68.5 53 -109.5 139.5t-41 181.5t41 181.5t109.5 139.5t145.5 53
t145.5 -53t109.5 -139.5t41 -181.5t-41 -181.5t-109.5 -139.5t-145.5 -53t-145.5 53zM459.5 58.5q32.5 44.5 32.5 147.5v300q0 103 -32.5 147.5t-93.5 44.5t-93.5 -44.5t-32.5 -147.5v-300q0 -103 32.5 -147.5t93.5 -44.5t93.5 44.5z" />
    <glyph glyph-name="uni1E4C" unicode="&#x1e4c;" horiz-adv-x="712" 
d="M321 847l90 80q14 12 25 18.5t23 6.5q15 0 24 -9.5t9 -23.5q0 -31 -43 -45l-118 -42zM206 752q2 30 27.5 52t68.5 22q27 0 81 -12q48 -12 83 -12q37 0 43 28l17 -2q-2 -30 -27.5 -52t-68.5 -22q-27 0 -81 12q-48 12 -83 12q-37 0 -43 -28zM220.5 35
q-68.5 53 -109.5 139.5t-41 181.5t41 181.5t109.5 139.5t145.5 53t145.5 -53t109.5 -139.5t41 -181.5t-41 -181.5t-109.5 -139.5t-145.5 -53t-145.5 53zM459.5 58.5q32.5 44.5 32.5 147.5v300q0 103 -32.5 147.5t-93.5 44.5t-93.5 -44.5t-32.5 -147.5v-300
q0 -103 32.5 -147.5t93.5 -44.5t93.5 44.5z" />
    <glyph glyph-name="uni1E4E" unicode="&#x1e4e;" horiz-adv-x="712" 
d="M219 863q-15 15 -15 37t15 37t37 15t37 -15t15 -37t-15 -37t-37 -15t-37 15zM439 863q-15 15 -15 37t15 37t37 15t37 -15t15 -37t-15 -37t-37 -15t-37 15zM206 752q2 30 27.5 52t68.5 22q27 0 81 -12q48 -12 83 -12q37 0 43 28l17 -2q-2 -30 -27.5 -52t-68.5 -22
q-27 0 -81 12q-48 12 -83 12q-37 0 -43 -28zM220.5 35q-68.5 53 -109.5 139.5t-41 181.5t41 181.5t109.5 139.5t145.5 53t145.5 -53t109.5 -139.5t41 -181.5t-41 -181.5t-109.5 -139.5t-145.5 -53t-145.5 53zM459.5 58.5q32.5 44.5 32.5 147.5v300q0 103 -32.5 147.5
t-93.5 44.5t-93.5 -44.5t-32.5 -147.5v-300q0 -103 32.5 -147.5t93.5 -44.5t93.5 44.5z" />
    <glyph glyph-name="OE" unicode="&#x152;" horiz-adv-x="1014" 
d="M216 35.5q-67 53.5 -106.5 140t-39.5 180.5t39.5 180.5t106.5 140t144 53.5q28 0 64 -9q43 -9 78 -9h446l6 -232h-32q0 7 -10.5 45t-29.5 69q-23 40 -53 63t-67 23h-110q-13 0 -18.5 -5t-5.5 -19v-276h51q27 0 50 22t36.5 54.5t13.5 61.5h32v-313h-32q0 30 -13.5 62.5
t-36.5 54.5t-50 22h-51v-288q0 -13 5.5 -18.5t18.5 -5.5h109q55 0 92 44t56 98q8 23 14 57t7 45h32l-6 -276h-454q-35 0 -78 -9q-36 -9 -64 -9q-77 0 -144 53.5zM450 58q30 44 30 148v300q0 104 -30 148t-90 44t-90 -44t-30 -148v-300q0 -104 30 -148t90 -44t90 44z" />
    <glyph glyph-name="P" unicode="P" horiz-adv-x="702" 
d="M62 32h70q14 0 19 5.5t5 18.5v600q0 14 -5 19t-19 5h-70v32h356q70 0 124.5 -23.5t85 -66t30.5 -96.5q0 -55 -30.5 -98t-85 -67.5t-124.5 -24.5h-114v-280q0 -13 5.5 -18.5t18.5 -5.5h88v-32h-354v32zM403 368q52 0 73.5 42t21.5 116q0 73 -21 113.5t-74 40.5h-75
q-13 0 -18.5 -5t-5.5 -19v-288h99z" />
    <glyph glyph-name="Thorn" unicode="&#xde;" horiz-adv-x="702" 
d="M62 32h70q14 0 19 5.5t5 18.5v600q0 14 -5 19t-19 5h-70v32h354v-32h-88q-13 0 -18.5 -5t-5.5 -19v-70h114q70 0 124.5 -23.5t85 -66t30.5 -96.5q0 -55 -30.5 -98t-85 -67.5t-124.5 -24.5h-114v-154q0 -13 5.5 -18.5t18.5 -5.5h88v-32h-354v32zM403 242q52 0 73.5 42
t21.5 116q0 73 -21 113.5t-74 40.5h-75q-13 0 -18.5 -5t-5.5 -19v-288h99z" />
    <glyph glyph-name="Q" unicode="Q" horiz-adv-x="712" 
d="M476 -222.5q-27 15.5 -44 44.5t-17 68q0 62 4 99q-24 -7 -52 -7q-79 0 -147.5 53.5t-109 140t-40.5 180.5q0 95 41 181.5t109.5 139.5t145.5 53t145.5 -53t109.5 -139.5t41 -181.5q0 -72 -24.5 -141t-68 -123t-98.5 -83q4 -57 24.5 -88t59.5 -31q40 0 59.5 33.5
t19.5 84.5q0 21 -3 48h30q5 -32 5 -77q0 -41 -4.5 -76.5t-19.5 -66.5q-16 -34 -45 -54t-65 -20q-29 0 -56 15.5zM277 56q-3 12 -3 24q0 34 23.5 60t64.5 26q42 0 69 -27t33 -68h3q25 50 25 135v300q0 103 -32.5 147.5t-93.5 44.5t-93.5 -44.5t-32.5 -147.5v-300
q0 -104 35 -151zM421 25q0 50 -13.5 79t-56.5 29q-21 0 -35 -18t-14 -40q0 -45 30 -57q8 -4 34 -4q28 0 55 11z" />
    <glyph glyph-name="R" unicode="R" horiz-adv-x="730" 
d="M493.5 14q-37.5 38 -37.5 112v124q0 48 -23.5 81t-72.5 33h-56v-308q0 -13 5.5 -18.5t18.5 -5.5h88v-32h-354v32h70q14 0 19 5.5t5 18.5v600q0 14 -5 19t-19 5h-70v32h324q108 0 174 -47.5t66 -128.5q0 -69 -50.5 -109t-133.5 -50v-7q78 -14 120 -55.5t42 -129.5v-111
q0 -42 28 -42q26 0 38 43t12 105h32q0 -97 -26 -150.5t-93 -53.5q-64 0 -101.5 38zM371 396q53 0 74 39t21 109q0 68 -21 102t-74 34h-43q-13 0 -18.5 -5t-5.5 -19v-260h67z" />
    <glyph glyph-name="Racute" unicode="&#x154;" horiz-adv-x="730" 
d="M300 778l89 138q11 18 23 25t26 7q18 0 30 -11t12 -29q0 -27 -28 -48l-132 -100zM493.5 14q-37.5 38 -37.5 112v124q0 48 -23.5 81t-72.5 33h-56v-308q0 -13 5.5 -18.5t18.5 -5.5h88v-32h-354v32h70q14 0 19 5.5t5 18.5v600q0 14 -5 19t-19 5h-70v32h324q108 0 174 -47.5
t66 -128.5q0 -69 -50.5 -109t-133.5 -50v-7q78 -14 120 -55.5t42 -129.5v-111q0 -42 28 -42q26 0 38 43t12 105h32q0 -97 -26 -150.5t-93 -53.5q-64 0 -101.5 38zM371 396q53 0 74 39t21 109q0 68 -21 102t-74 34h-43q-13 0 -18.5 -5t-5.5 -19v-260h67z" />
    <glyph glyph-name="Rcaron" unicode="&#x158;" horiz-adv-x="730" 
d="M308 762l-140 136l16 22l148 -86l148 86l16 -22l-140 -136h-48zM493.5 14q-37.5 38 -37.5 112v124q0 48 -23.5 81t-72.5 33h-56v-308q0 -13 5.5 -18.5t18.5 -5.5h88v-32h-354v32h70q14 0 19 5.5t5 18.5v600q0 14 -5 19t-19 5h-70v32h324q108 0 174 -47.5t66 -128.5
q0 -69 -50.5 -109t-133.5 -50v-7q78 -14 120 -55.5t42 -129.5v-111q0 -42 28 -42q26 0 38 43t12 105h32q0 -97 -26 -150.5t-93 -53.5q-64 0 -101.5 38zM371 396q53 0 74 39t21 109q0 68 -21 102t-74 34h-43q-13 0 -18.5 -5t-5.5 -19v-260h67z" />
    <glyph glyph-name="Rcommaaccent" unicode="&#x156;" horiz-adv-x="730" 
d="M493.5 14q-37.5 38 -37.5 112v124q0 48 -23.5 81t-72.5 33h-56v-308q0 -13 5.5 -18.5t18.5 -5.5h88v-32h-354v32h70q14 0 19 5.5t5 18.5v600q0 14 -5 19t-19 5h-70v32h324q108 0 174 -47.5t66 -128.5q0 -69 -50.5 -109t-133.5 -50v-7q78 -14 120 -55.5t42 -129.5v-111
q0 -42 28 -42q26 0 38 43t12 105h32q0 -97 -26 -150.5t-93 -53.5q-64 0 -101.5 38zM371 396q53 0 74 39t21 109q0 68 -21 102t-74 34h-43q-13 0 -18.5 -5t-5.5 -19v-260h67zM332 -216q33 6 53.5 20t20.5 35q0 15 -10 21q-6 4 -24 4q-17 0 -29 13.5t-12 36.5t18 38.5t39 15.5
q36 0 55 -24.5t19 -56.5q0 -34 -19.5 -61.5t-48 -43.5t-56.5 -20z" />
    <glyph glyph-name="uni0210" unicode="&#x210;" horiz-adv-x="730" 
d="M147 866q-27 21 -27 46q0 16 11.5 27t28.5 11q28 0 47 -32l85 -138l-20 -18zM281 866q-27 21 -27 46q0 16 11.5 27t28.5 11q28 0 47 -32l85 -138l-20 -18zM493.5 14q-37.5 38 -37.5 112v124q0 48 -23.5 81t-72.5 33h-56v-308q0 -13 5.5 -18.5t18.5 -5.5h88v-32h-354v32
h70q14 0 19 5.5t5 18.5v600q0 14 -5 19t-19 5h-70v32h324q108 0 174 -47.5t66 -128.5q0 -69 -50.5 -109t-133.5 -50v-7q78 -14 120 -55.5t42 -129.5v-111q0 -42 28 -42q26 0 38 43t12 105h32q0 -97 -26 -150.5t-93 -53.5q-64 0 -101.5 38zM371 396q53 0 74 39t21 109
q0 68 -21 102t-74 34h-43q-13 0 -18.5 -5t-5.5 -19v-260h67z" />
    <glyph glyph-name="uni1E5A" unicode="&#x1e5a;" horiz-adv-x="730" 
d="M493.5 14q-37.5 38 -37.5 112v124q0 48 -23.5 81t-72.5 33h-56v-308q0 -13 5.5 -18.5t18.5 -5.5h88v-32h-354v32h70q14 0 19 5.5t5 18.5v600q0 14 -5 19t-19 5h-70v32h324q108 0 174 -47.5t66 -128.5q0 -69 -50.5 -109t-133.5 -50v-7q78 -14 120 -55.5t42 -129.5v-111
q0 -42 28 -42q26 0 38 43t12 105h32q0 -97 -26 -150.5t-93 -53.5q-64 0 -101.5 38zM371 396q53 0 74 39t21 109q0 68 -21 102t-74 34h-43q-13 0 -18.5 -5t-5.5 -19v-260h67zM347.5 -183q-21.5 21 -21.5 53q0 31 21.5 52.5t52.5 21.5q32 0 53 -21.5t21 -52.5q0 -32 -21 -53
t-53 -21q-31 0 -52.5 21z" />
    <glyph glyph-name="uni0212" unicode="&#x212;" horiz-adv-x="730" 
d="M179 772q7 31 30.5 66.5t56 60.5t66.5 25t66.5 -25t56 -60.5t30.5 -66.5l-26 -10q-19 42 -52 64t-75 22t-75 -22t-52 -64zM493.5 14q-37.5 38 -37.5 112v124q0 48 -23.5 81t-72.5 33h-56v-308q0 -13 5.5 -18.5t18.5 -5.5h88v-32h-354v32h70q14 0 19 5.5t5 18.5v600
q0 14 -5 19t-19 5h-70v32h324q108 0 174 -47.5t66 -128.5q0 -69 -50.5 -109t-133.5 -50v-7q78 -14 120 -55.5t42 -129.5v-111q0 -42 28 -42q26 0 38 43t12 105h32q0 -97 -26 -150.5t-93 -53.5q-64 0 -101.5 38zM371 396q53 0 74 39t21 109q0 68 -21 102t-74 34h-43
q-13 0 -18.5 -5t-5.5 -19v-260h67z" />
    <glyph glyph-name="uni1E5E" unicode="&#x1e5e;" horiz-adv-x="730" 
d="M493.5 14q-37.5 38 -37.5 112v124q0 48 -23.5 81t-72.5 33h-56v-308q0 -13 5.5 -18.5t18.5 -5.5h88v-32h-354v32h70q14 0 19 5.5t5 18.5v600q0 14 -5 19t-19 5h-70v32h324q108 0 174 -47.5t66 -128.5q0 -69 -50.5 -109t-133.5 -50v-7q78 -14 120 -55.5t42 -129.5v-111
q0 -42 28 -42q26 0 38 43t12 105h32q0 -97 -26 -150.5t-93 -53.5q-64 0 -101.5 38zM371 396q53 0 74 39t21 109q0 68 -21 102t-74 34h-43q-13 0 -18.5 -5t-5.5 -19v-260h67zM270 -164v64h260v-64h-260z" />
    <glyph glyph-name="S" unicode="S" horiz-adv-x="620" 
d="M268 -5.5q-35 12.5 -58 31.5q-23 17 -33 23.5t-19 6.5q-21 0 -26 -34l-5 -32h-31l-6 316h32q14 -76 47.5 -143t81 -108t102.5 -41q79 0 108 35t29 79q0 26 -18.5 46.5t-53.5 43.5l-214 138q-47 30 -79.5 75t-32.5 107q0 97 56.5 144.5t139.5 47.5q71 0 142 -50
q23 -18 36 -18q18 0 22 23l6 27h32l10 -260h-32q-19 69 -53 125t-78.5 88.5t-92.5 32.5q-53 0 -78.5 -21t-25.5 -63q0 -57 89 -115l215 -139q41 -27 65.5 -74t24.5 -98q0 -52 -25 -99t-75 -77t-123 -30q-44 0 -79 12.5z" />
    <glyph glyph-name="Sacute" unicode="&#x15a;" horiz-adv-x="620" 
d="M264 778l89 138q11 18 23 25t26 7q18 0 30 -11t12 -29q0 -27 -28 -48l-132 -100zM268 -5.5q-35 12.5 -58 31.5q-23 17 -33 23.5t-19 6.5q-21 0 -26 -34l-5 -32h-31l-6 316h32q14 -76 47.5 -143t81 -108t102.5 -41q79 0 108 35t29 79q0 26 -18.5 46.5t-53.5 43.5l-214 138
q-47 30 -79.5 75t-32.5 107q0 97 56.5 144.5t139.5 47.5q71 0 142 -50q23 -18 36 -18q18 0 22 23l6 27h32l10 -260h-32q-19 69 -53 125t-78.5 88.5t-92.5 32.5q-53 0 -78.5 -21t-25.5 -63q0 -57 89 -115l215 -139q41 -27 65.5 -74t24.5 -98q0 -52 -25 -99t-75 -77t-123 -30
q-44 0 -79 12.5z" />
    <glyph glyph-name="uni1E64" unicode="&#x1e64;" horiz-adv-x="620" 
d="M231 863q-15 15 -15 37t15 37t37 15t37 -15t15 -37t-15 -37t-37 -15t-37 15zM289 784l83 107q19 25 44 25q15 0 25.5 -11t10.5 -25q0 -18 -8.5 -28t-25.5 -19l-117 -65zM268 -5.5q-35 12.5 -58 31.5q-23 17 -33 23.5t-19 6.5q-21 0 -26 -34l-5 -32h-31l-6 316h32
q14 -76 47.5 -143t81 -108t102.5 -41q79 0 108 35t29 79q0 26 -18.5 46.5t-53.5 43.5l-214 138q-47 30 -79.5 75t-32.5 107q0 97 56.5 144.5t139.5 47.5q71 0 142 -50q23 -18 36 -18q18 0 22 23l6 27h32l10 -260h-32q-19 69 -53 125t-78.5 88.5t-92.5 32.5q-53 0 -78.5 -21
t-25.5 -63q0 -57 89 -115l215 -139q41 -27 65.5 -74t24.5 -98q0 -52 -25 -99t-75 -77t-123 -30q-44 0 -79 12.5z" />
    <glyph glyph-name="Scaron" unicode="&#x160;" horiz-adv-x="620" 
d="M272 762l-140 136l16 22l148 -86l148 86l16 -22l-140 -136h-48zM268 -5.5q-35 12.5 -58 31.5q-23 17 -33 23.5t-19 6.5q-21 0 -26 -34l-5 -32h-31l-6 316h32q14 -76 47.5 -143t81 -108t102.5 -41q79 0 108 35t29 79q0 26 -18.5 46.5t-53.5 43.5l-214 138q-47 30 -79.5 75
t-32.5 107q0 97 56.5 144.5t139.5 47.5q71 0 142 -50q23 -18 36 -18q18 0 22 23l6 27h32l10 -260h-32q-19 69 -53 125t-78.5 88.5t-92.5 32.5q-53 0 -78.5 -21t-25.5 -63q0 -57 89 -115l215 -139q41 -27 65.5 -74t24.5 -98q0 -52 -25 -99t-75 -77t-123 -30q-44 0 -79 12.5z
" />
    <glyph glyph-name="uni1E66" unicode="&#x1e66;" horiz-adv-x="620" 
d="M259 863q-15 15 -15 37t15 37t37 15t37 -15t15 -37t-15 -37t-37 -15t-37 15zM272 762l-140 116l12 20l152 -80l152 80l12 -20l-140 -116h-48zM268 -5.5q-35 12.5 -58 31.5q-23 17 -33 23.5t-19 6.5q-21 0 -26 -34l-5 -32h-31l-6 316h32q14 -76 47.5 -143t81 -108
t102.5 -41q79 0 108 35t29 79q0 26 -18.5 46.5t-53.5 43.5l-214 138q-47 30 -79.5 75t-32.5 107q0 97 56.5 144.5t139.5 47.5q71 0 142 -50q23 -18 36 -18q18 0 22 23l6 27h32l10 -260h-32q-19 69 -53 125t-78.5 88.5t-92.5 32.5q-53 0 -78.5 -21t-25.5 -63q0 -57 89 -115
l215 -139q41 -27 65.5 -74t24.5 -98q0 -52 -25 -99t-75 -77t-123 -30q-44 0 -79 12.5z" />
    <glyph glyph-name="Scedilla" unicode="&#x15e;" horiz-adv-x="620" 
d="M265 -219.5q-35 18.5 -35 49.5q0 17 8.5 28t24.5 11q18 0 25.5 -10t11.5 -27q9 -46 54 -46q28 0 43 14t15 39q0 22 -14.5 36t-43.5 14h-54l15 95q-64 8 -105 42q-23 17 -33 23.5t-19 6.5q-21 0 -26 -34l-5 -32h-31l-6 316h32q14 -76 47.5 -143t81 -108t102.5 -41
q79 0 108 35t29 79q0 26 -18.5 46.5t-53.5 43.5l-214 138q-47 30 -79.5 75t-32.5 107q0 97 56.5 144.5t139.5 47.5q71 0 142 -50q23 -18 36 -18q18 0 22 23l6 27h32l10 -260h-32q-19 69 -53 125t-78.5 88.5t-92.5 32.5q-53 0 -78.5 -21t-25.5 -63q0 -57 89 -115l215 -139
q41 -27 65.5 -74t24.5 -98q0 -52 -25 -99t-75 -77t-123 -30h-4l-4 -29h34q39 0 65 -25t26 -60q0 -46 -30.5 -76t-95.5 -30q-38 0 -73 18.5z" />
    <glyph glyph-name="Scircumflex" unicode="&#x15c;" horiz-adv-x="620" 
d="M128 786q97 51 148 144h40q49 -94 148 -144l-12 -24q-43 15 -76 32.5t-80 47.5q-47 -30 -80 -47.5t-76 -32.5zM268 -5.5q-35 12.5 -58 31.5q-23 17 -33 23.5t-19 6.5q-21 0 -26 -34l-5 -32h-31l-6 316h32q14 -76 47.5 -143t81 -108t102.5 -41q79 0 108 35t29 79
q0 26 -18.5 46.5t-53.5 43.5l-214 138q-47 30 -79.5 75t-32.5 107q0 97 56.5 144.5t139.5 47.5q71 0 142 -50q23 -18 36 -18q18 0 22 23l6 27h32l10 -260h-32q-19 69 -53 125t-78.5 88.5t-92.5 32.5q-53 0 -78.5 -21t-25.5 -63q0 -57 89 -115l215 -139q41 -27 65.5 -74
t24.5 -98q0 -52 -25 -99t-75 -77t-123 -30q-44 0 -79 12.5z" />
    <glyph glyph-name="Scommaaccent" unicode="&#x218;" horiz-adv-x="620" 
d="M268 -5.5q-35 12.5 -58 31.5q-23 17 -33 23.5t-19 6.5q-21 0 -26 -34l-5 -32h-31l-6 316h32q14 -76 47.5 -143t81 -108t102.5 -41q79 0 108 35t29 79q0 26 -18.5 46.5t-53.5 43.5l-214 138q-47 30 -79.5 75t-32.5 107q0 97 56.5 144.5t139.5 47.5q71 0 142 -50
q23 -18 36 -18q18 0 22 23l6 27h32l10 -260h-32q-19 69 -53 125t-78.5 88.5t-92.5 32.5q-53 0 -78.5 -21t-25.5 -63q0 -57 89 -115l215 -139q41 -27 65.5 -74t24.5 -98q0 -52 -25 -99t-75 -77t-123 -30q-44 0 -79 12.5zM276 -216q33 6 53.5 20t20.5 35q0 15 -10 21
q-6 4 -24 4q-17 0 -29 13.5t-12 36.5t18 38.5t39 15.5q36 0 55 -24.5t19 -56.5q0 -34 -19.5 -61.5t-48 -43.5t-56.5 -20z" />
    <glyph glyph-name="uni1E60" unicode="&#x1e60;" horiz-adv-x="620" 
d="M247 805q-19 19 -19 49t19 49t49 19t49 -19t19 -49t-19 -49t-49 -19t-49 19zM268 -5.5q-35 12.5 -58 31.5q-23 17 -33 23.5t-19 6.5q-21 0 -26 -34l-5 -32h-31l-6 316h32q14 -76 47.5 -143t81 -108t102.5 -41q79 0 108 35t29 79q0 26 -18.5 46.5t-53.5 43.5l-214 138
q-47 30 -79.5 75t-32.5 107q0 97 56.5 144.5t139.5 47.5q71 0 142 -50q23 -18 36 -18q18 0 22 23l6 27h32l10 -260h-32q-19 69 -53 125t-78.5 88.5t-92.5 32.5q-53 0 -78.5 -21t-25.5 -63q0 -57 89 -115l215 -139q41 -27 65.5 -74t24.5 -98q0 -52 -25 -99t-75 -77t-123 -30
q-44 0 -79 12.5z" />
    <glyph glyph-name="uni1E62" unicode="&#x1e62;" horiz-adv-x="620" 
d="M268 -5.5q-35 12.5 -58 31.5q-23 17 -33 23.5t-19 6.5q-21 0 -26 -34l-5 -32h-31l-6 316h32q14 -76 47.5 -143t81 -108t102.5 -41q79 0 108 35t29 79q0 26 -18.5 46.5t-53.5 43.5l-214 138q-47 30 -79.5 75t-32.5 107q0 97 56.5 144.5t139.5 47.5q71 0 142 -50
q23 -18 36 -18q18 0 22 23l6 27h32l10 -260h-32q-19 69 -53 125t-78.5 88.5t-92.5 32.5q-53 0 -78.5 -21t-25.5 -63q0 -57 89 -115l215 -139q41 -27 65.5 -74t24.5 -98q0 -52 -25 -99t-75 -77t-123 -30q-44 0 -79 12.5zM281.5 -183q-21.5 21 -21.5 53q0 31 21.5 52.5
t52.5 21.5q32 0 53 -21.5t21 -52.5q0 -32 -21 -53t-53 -21q-31 0 -52.5 21z" />
    <glyph glyph-name="uni1E68" unicode="&#x1e68;" horiz-adv-x="620" 
d="M247 805q-19 19 -19 49t19 49t49 19t49 -19t19 -49t-19 -49t-49 -19t-49 19zM268 -5.5q-35 12.5 -58 31.5q-23 17 -33 23.5t-19 6.5q-21 0 -26 -34l-5 -32h-31l-6 316h32q14 -76 47.5 -143t81 -108t102.5 -41q79 0 108 35t29 79q0 26 -18.5 46.5t-53.5 43.5l-214 138
q-47 30 -79.5 75t-32.5 107q0 97 56.5 144.5t139.5 47.5q71 0 142 -50q23 -18 36 -18q18 0 22 23l6 27h32l10 -260h-32q-19 69 -53 125t-78.5 88.5t-92.5 32.5q-53 0 -78.5 -21t-25.5 -63q0 -57 89 -115l215 -139q41 -27 65.5 -74t24.5 -98q0 -52 -25 -99t-75 -77t-123 -30
q-44 0 -79 12.5zM281.5 -183q-21.5 21 -21.5 53q0 31 21.5 52.5t52.5 21.5q32 0 53 -21.5t21 -52.5q0 -32 -21 -53t-53 -21q-31 0 -52.5 21z" />
    <glyph glyph-name="uni1E9E" unicode="&#x1e9e;" horiz-adv-x="774" 
d="M375 1.5q-36 19.5 -54.5 49.5t-18.5 62q0 45 27 77.5t67 32.5q30 0 49.5 -17.5t19.5 -41.5q0 -25 -11 -39t-33 -28q-27 -17 -27 -40q0 -22 20 -32.5t48 -10.5q38 0 58 20t27 61t7 115q0 61 -4.5 100.5t-21.5 64.5t-51 25q-28 0 -42.5 -8t-40.5 -34l-24 21l187 231l-4 5
q-15 -5 -26 -7t-29 -2q-17 0 -32 3t-40 10q-26 7 -41 10t-32 3q-69 0 -69 -110v-522h-242v32h70q14 0 19 5.5t5 18.5v358q0 101 45.5 172.5t114 107.5t136.5 36q36 0 74 -7q43 -7 85 -7q25 0 43 3t40 11l10 -14l-230 -285l2 -3q20 4 41 4q72 0 123.5 -29.5t77.5 -80
t26 -112.5q0 -67 -31.5 -118.5t-91 -80.5t-140.5 -29q-50 0 -86 19.5z" />
    <glyph glyph-name="uni018F" unicode="&#x18f;" horiz-adv-x="680" 
d="M202.5 30q-62.5 48 -97.5 135.5t-35 202.5h390v102q-2 114 -35 171t-109 57q-46 0 -86 -28.5t-66 -73.5q-27 -47 -47 -129h-36q6 31 20 71t33 72q70 120 197 120q96 0 163.5 -47.5t101.5 -129t34 -181.5q0 -122 -37 -210t-102 -134t-146 -46q-80 0 -142.5 48zM432 72.5
q28 58.5 28 171.5v87h-220v-88q0 -111 29 -170t81 -59q54 0 82 58.5z" />
    <glyph glyph-name="T" unicode="T" horiz-adv-x="716" 
d="M190 32h80q14 0 19 5.5t5 18.5v590q0 16 -10 25t-27 9q-47 0 -86 -51.5t-58 -120.5q-11 -37 -15.5 -62.5t-5.5 -31.5h-32l8 298h600l8 -298h-32q-1 6 -5.5 31.5t-15.5 62.5q-19 69 -58 120.5t-86 51.5q-17 0 -27 -9t-10 -25v-590q0 -13 5.5 -18.5t18.5 -5.5h80v-32h-356
v32z" />
    <glyph glyph-name="Tbar" unicode="&#x166;" horiz-adv-x="716" 
d="M190 32h80q14 0 19 5.5t5 18.5v300h-138v36h138v254q0 16 -10 25t-27 9q-47 0 -86 -51.5t-58 -120.5q-11 -37 -15.5 -62.5t-5.5 -31.5h-32l8 298h600l8 -298h-32q-1 6 -5.5 31.5t-15.5 62.5q-19 69 -58 120.5t-86 51.5q-17 0 -27 -9t-10 -25v-254h136v-36h-136v-300
q0 -13 5.5 -18.5t18.5 -5.5h80v-32h-356v32z" />
    <glyph glyph-name="Tcaron" unicode="&#x164;" horiz-adv-x="716" 
d="M342 762l-140 136l16 22l148 -86l148 86l16 -22l-140 -136h-48zM190 32h80q14 0 19 5.5t5 18.5v590q0 16 -10 25t-27 9q-47 0 -86 -51.5t-58 -120.5q-11 -37 -15.5 -62.5t-5.5 -31.5h-32l8 298h600l8 -298h-32q-1 6 -5.5 31.5t-15.5 62.5q-19 69 -58 120.5t-86 51.5
q-17 0 -27 -9t-10 -25v-590q0 -13 5.5 -18.5t18.5 -5.5h80v-32h-356v32z" />
    <glyph glyph-name="uni0162" unicode="&#x162;" horiz-adv-x="716" 
d="M190 32h80q14 0 19 5.5t5 18.5v590q0 16 -10 25t-27 9q-47 0 -86 -51.5t-58 -120.5q-11 -37 -15.5 -62.5t-5.5 -31.5h-32l8 298h600l8 -298h-32q-1 6 -5.5 31.5t-15.5 62.5q-19 69 -58 120.5t-86 51.5q-17 0 -27 -9t-10 -25v-590q0 -13 5.5 -18.5t18.5 -5.5h80v-32h-356
v32zM298 -216q33 6 53.5 20t20.5 35q0 15 -10 21q-6 4 -24 4q-17 0 -29 13.5t-12 36.5t18 38.5t39 15.5q36 0 55 -24.5t19 -56.5q0 -34 -19.5 -61.5t-48 -43.5t-56.5 -20z" />
    <glyph glyph-name="uni021A" unicode="&#x21a;" horiz-adv-x="716" 
d="M190 32h80q14 0 19 5.5t5 18.5v590q0 16 -10 25t-27 9q-47 0 -86 -51.5t-58 -120.5q-11 -37 -15.5 -62.5t-5.5 -31.5h-32l8 298h600l8 -298h-32q-1 6 -5.5 31.5t-15.5 62.5q-19 69 -58 120.5t-86 51.5q-17 0 -27 -9t-10 -25v-590q0 -13 5.5 -18.5t18.5 -5.5h80v-32h-356
v32zM298 -216q33 6 53.5 20t20.5 35q0 15 -10 21q-6 4 -24 4q-17 0 -29 13.5t-12 36.5t18 38.5t39 15.5q36 0 55 -24.5t19 -56.5q0 -34 -19.5 -61.5t-48 -43.5t-56.5 -20z" />
    <glyph glyph-name="uni1E6C" unicode="&#x1e6c;" horiz-adv-x="716" 
d="M190 32h80q14 0 19 5.5t5 18.5v590q0 16 -10 25t-27 9q-47 0 -86 -51.5t-58 -120.5q-11 -37 -15.5 -62.5t-5.5 -31.5h-32l8 298h600l8 -298h-32q-1 6 -5.5 31.5t-15.5 62.5q-19 69 -58 120.5t-86 51.5q-17 0 -27 -9t-10 -25v-590q0 -13 5.5 -18.5t18.5 -5.5h80v-32h-356
v32zM315.5 -183q-21.5 21 -21.5 53q0 31 21.5 52.5t52.5 21.5q32 0 53 -21.5t21 -52.5q0 -32 -21 -53t-53 -21q-31 0 -52.5 21z" />
    <glyph glyph-name="uni1E6E" unicode="&#x1e6e;" horiz-adv-x="716" 
d="M190 32h80q14 0 19 5.5t5 18.5v590q0 16 -10 25t-27 9q-47 0 -86 -51.5t-58 -120.5q-11 -37 -15.5 -62.5t-5.5 -31.5h-32l8 298h600l8 -298h-32q-1 6 -5.5 31.5t-15.5 62.5q-19 69 -58 120.5t-86 51.5q-17 0 -27 -9t-10 -25v-590q0 -13 5.5 -18.5t18.5 -5.5h80v-32h-356
v32zM238 -164v64h260v-64h-260z" />
    <glyph glyph-name="U" unicode="U" horiz-adv-x="794" 
d="M270 17.5q-59 35.5 -86.5 93t-27.5 126.5v419q0 14 -5 19t-19 5h-64v32h324v-32h-64q-13 0 -18.5 -5t-5.5 -19v-458q0 -92 35 -134t108 -42q49 0 88 24t61 64t22 88v392q0 45 -30.5 67.5t-73.5 22.5v32h248v-32q-43 0 -73.5 -22.5t-30.5 -67.5v-382q0 -63 -28.5 -114.5
t-83 -81.5t-127.5 -30q-90 0 -149 35.5z" />
    <glyph glyph-name="Uacute" unicode="&#xda;" horiz-adv-x="794" 
d="M398 778l89 138q11 18 23 25t26 7q18 0 30 -11t12 -29q0 -27 -28 -48l-132 -100zM270 17.5q-59 35.5 -86.5 93t-27.5 126.5v419q0 14 -5 19t-19 5h-64v32h324v-32h-64q-13 0 -18.5 -5t-5.5 -19v-458q0 -92 35 -134t108 -42q49 0 88 24t61 64t22 88v392q0 45 -30.5 67.5
t-73.5 22.5v32h248v-32q-43 0 -73.5 -22.5t-30.5 -67.5v-382q0 -63 -28.5 -114.5t-83 -81.5t-127.5 -30q-90 0 -149 35.5z" />
    <glyph glyph-name="Ubreve" unicode="&#x16c;" horiz-adv-x="794" 
d="M345.5 786.5q-35.5 24.5 -53 60.5t-17.5 69h32q19 -90 123 -90t123 90h32q0 -33 -17.5 -69t-53 -60.5t-84.5 -24.5t-84.5 24.5zM270 17.5q-59 35.5 -86.5 93t-27.5 126.5v419q0 14 -5 19t-19 5h-64v32h324v-32h-64q-13 0 -18.5 -5t-5.5 -19v-458q0 -92 35 -134t108 -42
q49 0 88 24t61 64t22 88v392q0 45 -30.5 67.5t-73.5 22.5v32h248v-32q-43 0 -73.5 -22.5t-30.5 -67.5v-382q0 -63 -28.5 -114.5t-83 -81.5t-127.5 -30q-90 0 -149 35.5z" />
    <glyph glyph-name="Ucircumflex" unicode="&#xdb;" horiz-adv-x="794" 
d="M262 786q97 51 148 144h40q49 -94 148 -144l-12 -24q-43 15 -76 32.5t-80 47.5q-47 -30 -80 -47.5t-76 -32.5zM270 17.5q-59 35.5 -86.5 93t-27.5 126.5v419q0 14 -5 19t-19 5h-64v32h324v-32h-64q-13 0 -18.5 -5t-5.5 -19v-458q0 -92 35 -134t108 -42q49 0 88 24t61 64
t22 88v392q0 45 -30.5 67.5t-73.5 22.5v32h248v-32q-43 0 -73.5 -22.5t-30.5 -67.5v-382q0 -63 -28.5 -114.5t-83 -81.5t-127.5 -30q-90 0 -149 35.5z" />
    <glyph glyph-name="uni0214" unicode="&#x214;" horiz-adv-x="794" 
d="M245 866q-27 21 -27 46q0 16 11.5 27t28.5 11q28 0 47 -32l85 -138l-20 -18zM379 866q-27 21 -27 46q0 16 11.5 27t28.5 11q28 0 47 -32l85 -138l-20 -18zM270 17.5q-59 35.5 -86.5 93t-27.5 126.5v419q0 14 -5 19t-19 5h-64v32h324v-32h-64q-13 0 -18.5 -5t-5.5 -19
v-458q0 -92 35 -134t108 -42q49 0 88 24t61 64t22 88v392q0 45 -30.5 67.5t-73.5 22.5v32h248v-32q-43 0 -73.5 -22.5t-30.5 -67.5v-382q0 -63 -28.5 -114.5t-83 -81.5t-127.5 -30q-90 0 -149 35.5z" />
    <glyph glyph-name="Udieresis" unicode="&#xdc;" horiz-adv-x="794" 
d="M281.5 811.5q-17.5 17.5 -17.5 42.5t17.5 42.5t42.5 17.5t42.5 -17.5t17.5 -42.5t-17.5 -42.5t-42.5 -17.5t-42.5 17.5zM493.5 811.5q-17.5 17.5 -17.5 42.5t17.5 42.5t42.5 17.5t42.5 -17.5t17.5 -42.5t-17.5 -42.5t-42.5 -17.5t-42.5 17.5zM270 17.5q-59 35.5 -86.5 93
t-27.5 126.5v419q0 14 -5 19t-19 5h-64v32h324v-32h-64q-13 0 -18.5 -5t-5.5 -19v-458q0 -92 35 -134t108 -42q49 0 88 24t61 64t22 88v392q0 45 -30.5 67.5t-73.5 22.5v32h248v-32q-43 0 -73.5 -22.5t-30.5 -67.5v-382q0 -63 -28.5 -114.5t-83 -81.5t-127.5 -30
q-90 0 -149 35.5z" />
    <glyph glyph-name="uni1EE4" unicode="&#x1ee4;" horiz-adv-x="794" 
d="M270 17.5q-59 35.5 -86.5 93t-27.5 126.5v419q0 14 -5 19t-19 5h-64v32h324v-32h-64q-13 0 -18.5 -5t-5.5 -19v-458q0 -92 35 -134t108 -42q49 0 88 24t61 64t22 88v392q0 45 -30.5 67.5t-73.5 22.5v32h248v-32q-43 0 -73.5 -22.5t-30.5 -67.5v-382q0 -63 -28.5 -114.5
t-83 -81.5t-127.5 -30q-90 0 -149 35.5zM344 -183q-21 21 -21 53q0 31 21 52.5t53 21.5q31 0 52.5 -21.5t21.5 -52.5q0 -32 -21.5 -53t-52.5 -21q-32 0 -53 21z" />
    <glyph glyph-name="Ugrave" unicode="&#xd9;" horiz-adv-x="794" 
d="M310 860q-28 21 -28 48q0 18 12 29t30 11q14 0 26 -7t23 -25l89 -138l-20 -18zM270 17.5q-59 35.5 -86.5 93t-27.5 126.5v419q0 14 -5 19t-19 5h-64v32h324v-32h-64q-13 0 -18.5 -5t-5.5 -19v-458q0 -92 35 -134t108 -42q49 0 88 24t61 64t22 88v392q0 45 -30.5 67.5
t-73.5 22.5v32h248v-32q-43 0 -73.5 -22.5t-30.5 -67.5v-382q0 -63 -28.5 -114.5t-83 -81.5t-127.5 -30q-90 0 -149 35.5z" />
    <glyph glyph-name="uni1EE6" unicode="&#x1ee6;" horiz-adv-x="794" 
d="M270 17.5q-59 35.5 -86.5 93t-27.5 126.5v419q0 14 -5 19t-19 5h-64v32h324v-32h-64q-13 0 -18.5 -5t-5.5 -19v-458q0 -92 35 -134t108 -42q49 0 88 24t61 64t22 88v392q0 45 -30.5 67.5t-73.5 22.5v32h248v-32q-43 0 -73.5 -22.5t-30.5 -67.5v-382q0 -63 -28.5 -114.5
t-83 -81.5t-127.5 -30q-90 0 -149 35.5zM414 835q14 12 20.5 26t6.5 32q0 24 -13.5 40t-40.5 16q-21 0 -37.5 -11t-16.5 -25q0 -10 3.5 -11t8.5 0q3 1 8 1q21 0 21 -22q0 -9 -8.5 -15.5t-21.5 -6.5q-14 0 -28 11t-14 29q0 37 26.5 56t59.5 19q42 0 73 -19t31 -62
q0 -27 -17 -46t-51 -43h-45z" />
    <glyph glyph-name="Uhorn" unicode="&#x1af;" horiz-adv-x="794" 
d="M658 674v-466q0 -63 -28.5 -114.5t-83 -81.5t-127.5 -30q-90 0 -149 35.5t-86.5 93t-27.5 126.5v419q0 14 -5 19t-19 5h-64v32h324v-32h-64q-13 0 -18.5 -5t-5.5 -19v-458q0 -92 35 -134t108 -42q49 0 88 24t61 64t22 88v392q0 45 -30.5 67.5t-73.5 22.5v32h104
q38 0 53 5t20 24t4 65h84q9 -119 -121 -132z" />
    <glyph glyph-name="uni1EE8" unicode="&#x1ee8;" horiz-adv-x="794" 
d="M658 674v-466q0 -63 -28.5 -114.5t-83 -81.5t-127.5 -30q-90 0 -149 35.5t-86.5 93t-27.5 126.5v419q0 14 -5 19t-19 5h-64v32h324v-32h-64q-13 0 -18.5 -5t-5.5 -19v-458q0 -92 35 -134t108 -42q49 0 88 24t61 64t22 88v392q0 45 -30.5 67.5t-73.5 22.5v32h104
q38 0 53 5t20 24t4 65h84q9 -119 -121 -132zM377 778l89 138q11 18 23 25t26 7q18 0 30 -11t12 -29q0 -27 -28 -48l-132 -100z" />
    <glyph glyph-name="uni1EF0" unicode="&#x1ef0;" horiz-adv-x="794" 
d="M658 674v-466q0 -63 -28.5 -114.5t-83 -81.5t-127.5 -30q-90 0 -149 35.5t-86.5 93t-27.5 126.5v419q0 14 -5 19t-19 5h-64v32h324v-32h-64q-13 0 -18.5 -5t-5.5 -19v-458q0 -92 35 -134t108 -42q49 0 88 24t61 64t22 88v392q0 45 -30.5 67.5t-73.5 22.5v32h104
q38 0 53 5t20 24t4 65h84q9 -119 -121 -132zM344 -183q-21 21 -21 53q0 31 21 52.5t53 21.5q31 0 52.5 -21.5t21.5 -52.5q0 -32 -21.5 -53t-52.5 -21q-32 0 -53 21z" />
    <glyph glyph-name="uni1EEA" unicode="&#x1eea;" horiz-adv-x="794" 
d="M658 674v-466q0 -63 -28.5 -114.5t-83 -81.5t-127.5 -30q-90 0 -149 35.5t-86.5 93t-27.5 126.5v419q0 14 -5 19t-19 5h-64v32h324v-32h-64q-13 0 -18.5 -5t-5.5 -19v-458q0 -92 35 -134t108 -42q49 0 88 24t61 64t22 88v392q0 45 -30.5 67.5t-73.5 22.5v32h104
q38 0 53 5t20 24t4 65h84q9 -119 -121 -132zM268 860q-28 21 -28 48q0 18 12 29t30 11q14 0 26 -7t23 -25l89 -138l-20 -18z" />
    <glyph glyph-name="uni1EEC" unicode="&#x1eec;" horiz-adv-x="794" 
d="M658 674v-466q0 -63 -28.5 -114.5t-83 -81.5t-127.5 -30q-90 0 -149 35.5t-86.5 93t-27.5 126.5v419q0 14 -5 19t-19 5h-64v32h324v-32h-64q-13 0 -18.5 -5t-5.5 -19v-458q0 -92 35 -134t108 -42q49 0 88 24t61 64t22 88v392q0 45 -30.5 67.5t-73.5 22.5v32h104
q38 0 53 5t20 24t4 65h84q9 -119 -121 -132zM414 835q14 12 20.5 26t6.5 32q0 24 -13.5 40t-40.5 16q-21 0 -37.5 -11t-16.5 -25q0 -10 3.5 -11t8.5 0q3 1 8 1q21 0 21 -22q0 -9 -8.5 -15.5t-21.5 -6.5q-14 0 -28 11t-14 29q0 37 26.5 56t59.5 19q42 0 73 -19t31 -62
q0 -27 -17 -46t-51 -43h-45z" />
    <glyph glyph-name="uni1EEE" unicode="&#x1eee;" horiz-adv-x="794" 
d="M658 674v-466q0 -63 -28.5 -114.5t-83 -81.5t-127.5 -30q-90 0 -149 35.5t-86.5 93t-27.5 126.5v419q0 14 -5 19t-19 5h-64v32h324v-32h-64q-13 0 -18.5 -5t-5.5 -19v-458q0 -92 35 -134t108 -42q49 0 88 24t61 64t22 88v392q0 45 -30.5 67.5t-73.5 22.5v32h104
q38 0 53 5t20 24t4 65h84q9 -119 -121 -132zM260 850q11 25 31 41.5t46 16.5q22 0 39 -5t43 -16q35 -15 64 -15q33 0 40 40h22q0 -25 -11 -50t-31 -41.5t-46 -16.5q-22 0 -39 5t-43 16q-35 15 -64 15q-33 0 -40 -40h-22q0 25 11 50z" />
    <glyph glyph-name="Uhungarumlaut" unicode="&#x170;" horiz-adv-x="794" 
d="M336 780l85 138q19 32 47 32q18 0 29 -11t11 -27q0 -25 -27 -46l-125 -104zM470 780l85 138q19 32 47 32q18 0 29 -11t11 -27q0 -25 -27 -46l-125 -104zM270 17.5q-59 35.5 -86.5 93t-27.5 126.5v419q0 14 -5 19t-19 5h-64v32h324v-32h-64q-13 0 -18.5 -5t-5.5 -19v-458
q0 -92 35 -134t108 -42q49 0 88 24t61 64t22 88v392q0 45 -30.5 67.5t-73.5 22.5v32h248v-32q-43 0 -73.5 -22.5t-30.5 -67.5v-382q0 -63 -28.5 -114.5t-83 -81.5t-127.5 -30q-90 0 -149 35.5z" />
    <glyph glyph-name="uni0216" unicode="&#x216;" horiz-adv-x="794" 
d="M277 772q7 31 30.5 66.5t56 60.5t66.5 25t66.5 -25t56 -60.5t30.5 -66.5l-26 -10q-19 42 -52 64t-75 22t-75 -22t-52 -64zM270 17.5q-59 35.5 -86.5 93t-27.5 126.5v419q0 14 -5 19t-19 5h-64v32h324v-32h-64q-13 0 -18.5 -5t-5.5 -19v-458q0 -92 35 -134t108 -42
q49 0 88 24t61 64t22 88v392q0 45 -30.5 67.5t-73.5 22.5v32h248v-32q-43 0 -73.5 -22.5t-30.5 -67.5v-382q0 -63 -28.5 -114.5t-83 -81.5t-127.5 -30q-90 0 -149 35.5z" />
    <glyph glyph-name="Umacron" unicode="&#x16a;" horiz-adv-x="794" 
d="M282 810v64h296v-64h-296zM270 17.5q-59 35.5 -86.5 93t-27.5 126.5v419q0 14 -5 19t-19 5h-64v32h324v-32h-64q-13 0 -18.5 -5t-5.5 -19v-458q0 -92 35 -134t108 -42q49 0 88 24t61 64t22 88v392q0 45 -30.5 67.5t-73.5 22.5v32h248v-32q-43 0 -73.5 -22.5t-30.5 -67.5
v-382q0 -63 -28.5 -114.5t-83 -81.5t-127.5 -30q-90 0 -149 35.5z" />
    <glyph glyph-name="uni1E7A" unicode="&#x1e7a;" horiz-adv-x="794" 
d="M283 863q-15 15 -15 37t15 37t37 15t37 -15t15 -37t-15 -37t-37 -15t-37 15zM503 863q-15 15 -15 37t15 37t37 15t37 -15t15 -37t-15 -37t-37 -15t-37 15zM282 762v52h296v-52h-296zM270 17.5q-59 35.5 -86.5 93t-27.5 126.5v419q0 14 -5 19t-19 5h-64v32h324v-32h-64
q-13 0 -18.5 -5t-5.5 -19v-458q0 -92 35 -134t108 -42q49 0 88 24t61 64t22 88v392q0 45 -30.5 67.5t-73.5 22.5v32h248v-32q-43 0 -73.5 -22.5t-30.5 -67.5v-382q0 -63 -28.5 -114.5t-83 -81.5t-127.5 -30q-90 0 -149 35.5z" />
    <glyph glyph-name="Uogonek" unicode="&#x172;" horiz-adv-x="794" 
d="M385.5 -211.5q-27.5 26.5 -27.5 67.5q0 70 83 124l-1 3q-10 -1 -21 -1q-90 0 -149 35.5t-86.5 93t-27.5 126.5v419q0 14 -5 19t-19 5h-64v32h324v-32h-64q-13 0 -18.5 -5t-5.5 -19v-458q0 -92 35 -134t108 -42q49 0 88 24t61 64t22 88v392q0 45 -30.5 67.5t-73.5 22.5v32
h248v-32q-43 0 -73.5 -22.5t-30.5 -67.5v-382q0 -68 -30.5 -119t-86.5 -80q-103 -54 -103 -142q0 -24 11.5 -37.5t32.5 -13.5q22 0 36.5 7t27.5 20l19 -19q-43 -62 -108 -62q-44 0 -71.5 26.5z" />
    <glyph glyph-name="Uring" unicode="&#x16e;" horiz-adv-x="794" 
d="M350 781q-31 27 -31 69t31 69t80 27t80 -27t31 -69t-31 -69t-80 -27t-80 27zM478 812q19 14 19 38t-19 38t-48 14t-48 -14t-19 -38t19 -38t48 -14t48 14zM270 17.5q-59 35.5 -86.5 93t-27.5 126.5v419q0 14 -5 19t-19 5h-64v32h324v-32h-64q-13 0 -18.5 -5t-5.5 -19v-458
q0 -92 35 -134t108 -42q49 0 88 24t61 64t22 88v392q0 45 -30.5 67.5t-73.5 22.5v32h248v-32q-43 0 -73.5 -22.5t-30.5 -67.5v-382q0 -63 -28.5 -114.5t-83 -81.5t-127.5 -30q-90 0 -149 35.5z" />
    <glyph glyph-name="Utilde" unicode="&#x168;" horiz-adv-x="794" 
d="M293 850q11 25 31 41.5t46 16.5q22 0 39 -5t43 -16q35 -15 64 -15q33 0 40 40h22q0 -25 -11 -50t-31 -41.5t-46 -16.5q-22 0 -39 5t-43 16q-35 15 -64 15q-33 0 -40 -40h-22q0 25 11 50zM270 17.5q-59 35.5 -86.5 93t-27.5 126.5v419q0 14 -5 19t-19 5h-64v32h324v-32
h-64q-13 0 -18.5 -5t-5.5 -19v-458q0 -92 35 -134t108 -42q49 0 88 24t61 64t22 88v392q0 45 -30.5 67.5t-73.5 22.5v32h248v-32q-43 0 -73.5 -22.5t-30.5 -67.5v-382q0 -63 -28.5 -114.5t-83 -81.5t-127.5 -30q-90 0 -149 35.5z" />
    <glyph glyph-name="uni1E78" unicode="&#x1e78;" horiz-adv-x="794" 
d="M385 847l90 80q14 12 25 18.5t23 6.5q15 0 24 -9.5t9 -23.5q0 -31 -43 -45l-118 -42zM270 752q2 30 27.5 52t68.5 22q27 0 81 -12q48 -12 83 -12q37 0 43 28l17 -2q-2 -30 -27.5 -52t-68.5 -22q-27 0 -81 12q-48 12 -83 12q-37 0 -43 -28zM270 17.5q-59 35.5 -86.5 93
t-27.5 126.5v419q0 14 -5 19t-19 5h-64v32h324v-32h-64q-13 0 -18.5 -5t-5.5 -19v-458q0 -92 35 -134t108 -42q49 0 88 24t61 64t22 88v392q0 45 -30.5 67.5t-73.5 22.5v32h248v-32q-43 0 -73.5 -22.5t-30.5 -67.5v-382q0 -63 -28.5 -114.5t-83 -81.5t-127.5 -30
q-90 0 -149 35.5z" />
    <glyph glyph-name="V" unicode="V" horiz-adv-x="772" 
d="M158 622q-11 33 -28.5 45.5t-50.5 12.5h-33v32h347v-32h-50q-14 0 -24 -7.5t-10 -17.5q0 -11 4 -22l148 -421l115 357q10 30 10 51q0 22 -14 41t-42 19h-50v32h270v-32h-31q-67 0 -96 -91l-197 -607h-42z" />
    <glyph glyph-name="W" unicode="W" horiz-adv-x="1076" 
d="M158 615q-11 33 -32 49t-63 16h-19v32h325v-32h-29q-14 0 -22.5 -10t-8.5 -25q0 -12 5 -25l126 -385l94 320l-22 67q-11 33 -28.5 45.5t-50.5 12.5h-17v32h328v-32h-49q-14 0 -23 -9t-9 -20q0 -10 3 -22l127 -390l91 329q2 7 4.5 24.5t2.5 29.5q0 22 -12.5 40t-40.5 18
h-50v32h270v-32h-31q-67 0 -96 -91l-169 -607h-42l-164 506l-148 -506h-42z" />
    <glyph glyph-name="Wacute" unicode="&#x1e82;" horiz-adv-x="1076" 
d="M540 778l89 138q11 18 23 25t26 7q18 0 30 -11t12 -29q0 -27 -28 -48l-132 -100zM158 615q-11 33 -32 49t-63 16h-19v32h325v-32h-29q-14 0 -22.5 -10t-8.5 -25q0 -12 5 -25l126 -385l94 320l-22 67q-11 33 -28.5 45.5t-50.5 12.5h-17v32h328v-32h-49q-14 0 -23 -9
t-9 -20q0 -10 3 -22l127 -390l91 329q2 7 4.5 24.5t2.5 29.5q0 22 -12.5 40t-40.5 18h-50v32h270v-32h-31q-67 0 -96 -91l-169 -607h-42l-164 506l-148 -506h-42z" />
    <glyph glyph-name="Wcircumflex" unicode="&#x174;" horiz-adv-x="1076" 
d="M404 786q97 51 148 144h40q49 -94 148 -144l-12 -24q-43 15 -76 32.5t-80 47.5q-47 -30 -80 -47.5t-76 -32.5zM158 615q-11 33 -32 49t-63 16h-19v32h325v-32h-29q-14 0 -22.5 -10t-8.5 -25q0 -12 5 -25l126 -385l94 320l-22 67q-11 33 -28.5 45.5t-50.5 12.5h-17v32h328
v-32h-49q-14 0 -23 -9t-9 -20q0 -10 3 -22l127 -390l91 329q2 7 4.5 24.5t2.5 29.5q0 22 -12.5 40t-40.5 18h-50v32h270v-32h-31q-67 0 -96 -91l-169 -607h-42l-164 506l-148 -506h-42z" />
    <glyph glyph-name="Wdieresis" unicode="&#x1e84;" horiz-adv-x="1076" 
d="M423.5 811.5q-17.5 17.5 -17.5 42.5t17.5 42.5t42.5 17.5t42.5 -17.5t17.5 -42.5t-17.5 -42.5t-42.5 -17.5t-42.5 17.5zM635.5 811.5q-17.5 17.5 -17.5 42.5t17.5 42.5t42.5 17.5t42.5 -17.5t17.5 -42.5t-17.5 -42.5t-42.5 -17.5t-42.5 17.5zM158 615q-11 33 -32 49
t-63 16h-19v32h325v-32h-29q-14 0 -22.5 -10t-8.5 -25q0 -12 5 -25l126 -385l94 320l-22 67q-11 33 -28.5 45.5t-50.5 12.5h-17v32h328v-32h-49q-14 0 -23 -9t-9 -20q0 -10 3 -22l127 -390l91 329q2 7 4.5 24.5t2.5 29.5q0 22 -12.5 40t-40.5 18h-50v32h270v-32h-31
q-67 0 -96 -91l-169 -607h-42l-164 506l-148 -506h-42z" />
    <glyph glyph-name="Wgrave" unicode="&#x1e80;" horiz-adv-x="1076" 
d="M452 860q-28 21 -28 48q0 18 12 29t30 11q14 0 26 -7t23 -25l89 -138l-20 -18zM158 615q-11 33 -32 49t-63 16h-19v32h325v-32h-29q-14 0 -22.5 -10t-8.5 -25q0 -12 5 -25l126 -385l94 320l-22 67q-11 33 -28.5 45.5t-50.5 12.5h-17v32h328v-32h-49q-14 0 -23 -9t-9 -20
q0 -10 3 -22l127 -390l91 329q2 7 4.5 24.5t2.5 29.5q0 22 -12.5 40t-40.5 18h-50v32h270v-32h-31q-67 0 -96 -91l-169 -607h-42l-164 506l-148 -506h-42z" />
    <glyph glyph-name="X" unicode="X" horiz-adv-x="750" 
d="M52 32h31q33 0 57.5 18.5t45.5 48.5l147 223l-166 306q-14 25 -35 38.5t-55 13.5h-15v32h314v-32h-21q-9 0 -17 -7.5t-8 -20.5q0 -12 8 -28l88 -162l78 119q16 24 16 55q0 17 -11.5 30.5t-32.5 13.5h-30v32h254v-32h-30q-30 0 -50.5 -11.5t-37.5 -37.5l-136 -206
l183 -340q15 -27 36.5 -40t44.5 -13h20v-32h-332v32h33q15 0 23 9.5t8 26.5q0 15 -12 36l-97 180l-96 -145q-25 -38 -25 -63q0 -18 9 -31t27 -13h44v-32h-260v32z" />
    <glyph glyph-name="Y" unicode="Y" horiz-adv-x="736" 
d="M222 32h64q14 0 19 5.5t5 18.5v213l-170 367q-12 25 -25 34.5t-34 9.5h-35v32h314v-32h-28q-14 0 -21 -10t-7 -22q0 -16 6 -28l132 -287l92 229q14 32 14 57q0 24 -13 42.5t-41 18.5h-28v32h248v-32h-30q-34 0 -56.5 -21.5t-34.5 -51.5l-135 -329v-222q0 -13 5.5 -18.5
t18.5 -5.5h64v-32h-324v32z" />
    <glyph glyph-name="Yacute" unicode="&#xdd;" horiz-adv-x="736" 
d="M372 778l89 138q11 18 23 25t26 7q18 0 30 -11t12 -29q0 -27 -28 -48l-132 -100zM222 32h64q14 0 19 5.5t5 18.5v213l-170 367q-12 25 -25 34.5t-34 9.5h-35v32h314v-32h-28q-14 0 -21 -10t-7 -22q0 -16 6 -28l132 -287l92 229q14 32 14 57q0 24 -13 42.5t-41 18.5h-28
v32h248v-32h-30q-34 0 -56.5 -21.5t-34.5 -51.5l-135 -329v-222q0 -13 5.5 -18.5t18.5 -5.5h64v-32h-324v32z" />
    <glyph glyph-name="Ycircumflex" unicode="&#x176;" horiz-adv-x="736" 
d="M236 786q97 51 148 144h40q49 -94 148 -144l-12 -24q-43 15 -76 32.5t-80 47.5q-47 -30 -80 -47.5t-76 -32.5zM222 32h64q14 0 19 5.5t5 18.5v213l-170 367q-12 25 -25 34.5t-34 9.5h-35v32h314v-32h-28q-14 0 -21 -10t-7 -22q0 -16 6 -28l132 -287l92 229q14 32 14 57
q0 24 -13 42.5t-41 18.5h-28v32h248v-32h-30q-34 0 -56.5 -21.5t-34.5 -51.5l-135 -329v-222q0 -13 5.5 -18.5t18.5 -5.5h64v-32h-324v32z" />
    <glyph glyph-name="Ydieresis" unicode="&#x178;" horiz-adv-x="736" 
d="M255.5 811.5q-17.5 17.5 -17.5 42.5t17.5 42.5t42.5 17.5t42.5 -17.5t17.5 -42.5t-17.5 -42.5t-42.5 -17.5t-42.5 17.5zM467.5 811.5q-17.5 17.5 -17.5 42.5t17.5 42.5t42.5 17.5t42.5 -17.5t17.5 -42.5t-17.5 -42.5t-42.5 -17.5t-42.5 17.5zM222 32h64q14 0 19 5.5
t5 18.5v213l-170 367q-12 25 -25 34.5t-34 9.5h-35v32h314v-32h-28q-14 0 -21 -10t-7 -22q0 -16 6 -28l132 -287l92 229q14 32 14 57q0 24 -13 42.5t-41 18.5h-28v32h248v-32h-30q-34 0 -56.5 -21.5t-34.5 -51.5l-135 -329v-222q0 -13 5.5 -18.5t18.5 -5.5h64v-32h-324v32z
" />
    <glyph glyph-name="uni1E8E" unicode="&#x1e8e;" horiz-adv-x="736" 
d="M355 805q-19 19 -19 49t19 49t49 19t49 -19t19 -49t-19 -49t-49 -19t-49 19zM222 32h64q14 0 19 5.5t5 18.5v213l-170 367q-12 25 -25 34.5t-34 9.5h-35v32h314v-32h-28q-14 0 -21 -10t-7 -22q0 -16 6 -28l132 -287l92 229q14 32 14 57q0 24 -13 42.5t-41 18.5h-28v32
h248v-32h-30q-34 0 -56.5 -21.5t-34.5 -51.5l-135 -329v-222q0 -13 5.5 -18.5t18.5 -5.5h64v-32h-324v32z" />
    <glyph glyph-name="uni1EF4" unicode="&#x1ef4;" horiz-adv-x="736" 
d="M222 32h64q14 0 19 5.5t5 18.5v213l-170 367q-12 25 -25 34.5t-34 9.5h-35v32h314v-32h-28q-14 0 -21 -10t-7 -22q0 -16 6 -28l132 -287l92 229q14 32 14 57q0 24 -13 42.5t-41 18.5h-28v32h248v-32h-30q-34 0 -56.5 -21.5t-34.5 -51.5l-135 -329v-222q0 -13 5.5 -18.5
t18.5 -5.5h64v-32h-324v32zM315 -183q-21 21 -21 53q0 31 21 52.5t53 21.5q31 0 52.5 -21.5t21.5 -52.5q0 -32 -21.5 -53t-52.5 -21q-32 0 -53 21z" />
    <glyph glyph-name="Ygrave" unicode="&#x1ef2;" horiz-adv-x="736" 
d="M222 32h64q14 0 19 5.5t5 18.5v213l-170 367q-12 25 -25 34.5t-34 9.5h-35v32h314v-32h-28q-14 0 -21 -10t-7 -22q0 -16 6 -28l132 -287l92 229q14 32 14 57q0 24 -13 42.5t-41 18.5h-28v32h248v-32h-30q-34 0 -56.5 -21.5t-34.5 -51.5l-135 -329v-222q0 -13 5.5 -18.5
t18.5 -5.5h64v-32h-324v32zM239 860q-28 21 -28 48q0 18 12 29t30 11q14 0 26 -7t23 -25l89 -138l-20 -18z" />
    <glyph glyph-name="uni1EF6" unicode="&#x1ef6;" horiz-adv-x="736" 
d="M222 32h64q14 0 19 5.5t5 18.5v213l-170 367q-12 25 -25 34.5t-34 9.5h-35v32h314v-32h-28q-14 0 -21 -10t-7 -22q0 -16 6 -28l132 -287l92 229q14 32 14 57q0 24 -13 42.5t-41 18.5h-28v32h248v-32h-30q-34 0 -56.5 -21.5t-34.5 -51.5l-135 -329v-222q0 -13 5.5 -18.5
t18.5 -5.5h64v-32h-324v32zM385 835q14 12 20.5 26t6.5 32q0 24 -13.5 40t-40.5 16q-21 0 -37.5 -11t-16.5 -25q0 -10 3.5 -11t8.5 0q3 1 8 1q21 0 21 -22q0 -9 -8.5 -15.5t-21.5 -6.5q-14 0 -28 11t-14 29q0 37 26.5 56t59.5 19q42 0 73 -19t31 -62q0 -27 -17 -46t-51 -43
h-45z" />
    <glyph glyph-name="uni0232" unicode="&#x232;" horiz-adv-x="736" 
d="M256 810v64h296v-64h-296zM222 32h64q14 0 19 5.5t5 18.5v213l-170 367q-12 25 -25 34.5t-34 9.5h-35v32h314v-32h-28q-14 0 -21 -10t-7 -22q0 -16 6 -28l132 -287l92 229q14 32 14 57q0 24 -13 42.5t-41 18.5h-28v32h248v-32h-30q-34 0 -56.5 -21.5t-34.5 -51.5
l-135 -329v-222q0 -13 5.5 -18.5t18.5 -5.5h64v-32h-324v32z" />
    <glyph glyph-name="uni1EF8" unicode="&#x1ef8;" horiz-adv-x="736" 
d="M222 32h64q14 0 19 5.5t5 18.5v213l-170 367q-12 25 -25 34.5t-34 9.5h-35v32h314v-32h-28q-14 0 -21 -10t-7 -22q0 -16 6 -28l132 -287l92 229q14 32 14 57q0 24 -13 42.5t-41 18.5h-28v32h248v-32h-30q-34 0 -56.5 -21.5t-34.5 -51.5l-135 -329v-222q0 -13 5.5 -18.5
t18.5 -5.5h64v-32h-324v32zM231 850q11 25 31 41.5t46 16.5q22 0 39 -5t43 -16q35 -15 64 -15q33 0 40 40h22q0 -25 -11 -50t-31 -41.5t-46 -16.5q-22 0 -39 5t-43 16q-35 15 -64 15q-33 0 -40 -40h-22q0 25 11 50z" />
    <glyph glyph-name="Z" unicode="Z" horiz-adv-x="652" 
d="M68 32l352 648h-126q-38 0 -82.5 -39.5t-68.5 -98.5q-11 -27 -17 -54t-6 -32h-32l12 256h488v-34l-351 -646h137q52 0 95 41t67 89q18 35 28 74.5t10 45.5h32l-16 -282h-522v32z" />
    <glyph glyph-name="Zacute" unicode="&#x179;" horiz-adv-x="652" 
d="M314 778l89 138q11 18 23 25t26 7q18 0 30 -11t12 -29q0 -27 -28 -48l-132 -100zM68 32l352 648h-126q-38 0 -82.5 -39.5t-68.5 -98.5q-11 -27 -17 -54t-6 -32h-32l12 256h488v-34l-351 -646h137q52 0 95 41t67 89q18 35 28 74.5t10 45.5h32l-16 -282h-522v32z" />
    <glyph glyph-name="Zcaron" unicode="&#x17d;" horiz-adv-x="652" 
d="M322 762l-140 136l16 22l148 -86l148 86l16 -22l-140 -136h-48zM68 32l352 648h-126q-38 0 -82.5 -39.5t-68.5 -98.5q-11 -27 -17 -54t-6 -32h-32l12 256h488v-34l-351 -646h137q52 0 95 41t67 89q18 35 28 74.5t10 45.5h32l-16 -282h-522v32z" />
    <glyph glyph-name="Zdotaccent" unicode="&#x17b;" horiz-adv-x="652" 
d="M297 805q-19 19 -19 49t19 49t49 19t49 -19t19 -49t-19 -49t-49 -19t-49 19zM68 32l352 648h-126q-38 0 -82.5 -39.5t-68.5 -98.5q-11 -27 -17 -54t-6 -32h-32l12 256h488v-34l-351 -646h137q52 0 95 41t67 89q18 35 28 74.5t10 45.5h32l-16 -282h-522v32z" />
    <glyph glyph-name="uni1E92" unicode="&#x1e92;" horiz-adv-x="652" 
d="M68 32l352 648h-126q-38 0 -82.5 -39.5t-68.5 -98.5q-11 -27 -17 -54t-6 -32h-32l12 256h488v-34l-351 -646h137q52 0 95 41t67 89q18 35 28 74.5t10 45.5h32l-16 -282h-522v32zM293.5 -183q-21.5 21 -21.5 53q0 31 21.5 52.5t52.5 21.5q32 0 53 -21.5t21 -52.5
q0 -32 -21 -53t-53 -21q-31 0 -52.5 21z" />
    <glyph glyph-name="a" unicode="a" horiz-adv-x="508" 
d="M84.5 15q-38.5 27 -38.5 91q0 65 47.5 102.5t120.5 62.5l74 26v68q0 51 -21 74t-54 23q-28 0 -48.5 -12.5t-20.5 -34.5q0 -6 3.5 -14.5t12.5 -14.5q15 -9 21.5 -19t6.5 -26q0 -24 -17.5 -37.5t-38.5 -13.5q-26 0 -44.5 17.5t-18.5 50.5q0 38 23 67.5t59 45t73 15.5
q72 0 126 -38.5t54 -122.5v-253q0 -36 20 -36q18 0 27 30t9 69h28q0 -73 -22 -107q-11 -18 -31 -29t-46 -11q-41 0 -62 12.5t-35 41.5h-2q-40 -54 -112 -54q-55 0 -93.5 27zM288 72v198l-56 -20q-33 -12 -48.5 -45.5t-15.5 -89.5q0 -49 18 -68t41 -19q39 0 61 44z" />
    <glyph glyph-name="aacute" unicode="&#xe1;" horiz-adv-x="508" 
d="M188 542l89 138q11 18 23 25t26 7q18 0 30 -11t12 -29q0 -27 -28 -48l-132 -100zM84.5 15q-38.5 27 -38.5 91q0 65 47.5 102.5t120.5 62.5l74 26v68q0 51 -21 74t-54 23q-28 0 -48.5 -12.5t-20.5 -34.5q0 -6 3.5 -14.5t12.5 -14.5q15 -9 21.5 -19t6.5 -26
q0 -24 -17.5 -37.5t-38.5 -13.5q-26 0 -44.5 17.5t-18.5 50.5q0 38 23 67.5t59 45t73 15.5q72 0 126 -38.5t54 -122.5v-253q0 -36 20 -36q18 0 27 30t9 69h28q0 -73 -22 -107q-11 -18 -31 -29t-46 -11q-41 0 -62 12.5t-35 41.5h-2q-40 -54 -112 -54q-55 0 -93.5 27zM288 72
v198l-56 -20q-33 -12 -48.5 -45.5t-15.5 -89.5q0 -49 18 -68t41 -19q39 0 61 44z" />
    <glyph glyph-name="abreve" unicode="&#x103;" horiz-adv-x="508" 
d="M84.5 15q-38.5 27 -38.5 91q0 65 47.5 102.5t120.5 62.5l74 26v68q0 51 -21 74t-54 23q-28 0 -48.5 -12.5t-20.5 -34.5q0 -6 3.5 -14.5t12.5 -14.5q15 -9 21.5 -19t6.5 -26q0 -24 -17.5 -37.5t-38.5 -13.5q-26 0 -44.5 17.5t-18.5 50.5q0 38 23 67.5t59 45t73 15.5
q72 0 126 -38.5t54 -122.5v-253q0 -36 20 -36q18 0 27 30t9 69h28q0 -73 -22 -107q-11 -18 -31 -29t-46 -11q-41 0 -62 12.5t-35 41.5h-2q-40 -54 -112 -54q-55 0 -93.5 27zM288 72v198l-56 -20q-33 -12 -48.5 -45.5t-15.5 -89.5q0 -49 18 -68t41 -19q39 0 61 44zM147 583
q-37 43 -43 111h28q8 -40 36.5 -63t75.5 -23t75.5 23t36.5 63h28q-6 -68 -43 -111t-97 -43t-97 43z" />
    <glyph glyph-name="uni1EAF" unicode="&#x1eaf;" horiz-adv-x="508" 
d="M216 711l89 138q11 18 23 25t26 7q18 0 30 -11t12 -29q0 -27 -28 -48l-132 -100zM147 583q-37 43 -43 111h28q8 -40 36.5 -63t75.5 -23t75.5 23t36.5 63h28q-6 -68 -43 -111t-97 -43t-97 43zM84.5 15q-38.5 27 -38.5 91q0 65 47.5 102.5t120.5 62.5l74 26v68q0 51 -21 74
t-54 23q-28 0 -48.5 -12.5t-20.5 -34.5q0 -6 3.5 -14.5t12.5 -14.5q15 -9 21.5 -19t6.5 -26q0 -24 -17.5 -37.5t-38.5 -13.5q-26 0 -44.5 17.5t-18.5 50.5q0 38 23 67.5t59 45t73 15.5q72 0 126 -38.5t54 -122.5v-253q0 -36 20 -36q18 0 27 30t9 69h28q0 -73 -22 -107
q-11 -18 -31 -29t-46 -11q-41 0 -62 12.5t-35 41.5h-2q-40 -54 -112 -54q-55 0 -93.5 27zM288 72v198l-56 -20q-33 -12 -48.5 -45.5t-15.5 -89.5q0 -49 18 -68t41 -19q39 0 61 44z" />
    <glyph glyph-name="uni1EB7" unicode="&#x1eb7;" horiz-adv-x="508" 
d="M84.5 15q-38.5 27 -38.5 91q0 65 47.5 102.5t120.5 62.5l74 26v68q0 51 -21 74t-54 23q-28 0 -48.5 -12.5t-20.5 -34.5q0 -6 3.5 -14.5t12.5 -14.5q15 -9 21.5 -19t6.5 -26q0 -24 -17.5 -37.5t-38.5 -13.5q-26 0 -44.5 17.5t-18.5 50.5q0 38 23 67.5t59 45t73 15.5
q72 0 126 -38.5t54 -122.5v-253q0 -36 20 -36q18 0 27 30t9 69h28q0 -73 -22 -107q-11 -18 -31 -29t-46 -11q-41 0 -62 12.5t-35 41.5h-2q-40 -54 -112 -54q-55 0 -93.5 27zM288 72v198l-56 -20q-33 -12 -48.5 -45.5t-15.5 -89.5q0 -49 18 -68t41 -19q39 0 61 44zM201 -183
q-21 21 -21 53q0 31 21 52.5t53 21.5q31 0 52.5 -21.5t21.5 -52.5q0 -32 -21.5 -53t-52.5 -21q-32 0 -53 21zM147 583q-37 43 -43 111h28q8 -40 36.5 -63t75.5 -23t75.5 23t36.5 63h28q-6 -68 -43 -111t-97 -43t-97 43z" />
    <glyph glyph-name="uni1EB1" unicode="&#x1eb1;" horiz-adv-x="508" 
d="M113 791q-28 21 -28 48q0 18 12 29t30 11q14 0 26 -7t23 -25l89 -138l-20 -18zM147 583q-37 43 -43 111h28q8 -40 36.5 -63t75.5 -23t75.5 23t36.5 63h28q-6 -68 -43 -111t-97 -43t-97 43zM84.5 15q-38.5 27 -38.5 91q0 65 47.5 102.5t120.5 62.5l74 26v68q0 51 -21 74
t-54 23q-28 0 -48.5 -12.5t-20.5 -34.5q0 -6 3.5 -14.5t12.5 -14.5q15 -9 21.5 -19t6.5 -26q0 -24 -17.5 -37.5t-38.5 -13.5q-26 0 -44.5 17.5t-18.5 50.5q0 38 23 67.5t59 45t73 15.5q72 0 126 -38.5t54 -122.5v-253q0 -36 20 -36q18 0 27 30t9 69h28q0 -73 -22 -107
q-11 -18 -31 -29t-46 -11q-41 0 -62 12.5t-35 41.5h-2q-40 -54 -112 -54q-55 0 -93.5 27zM288 72v198l-56 -20q-33 -12 -48.5 -45.5t-15.5 -89.5q0 -49 18 -68t41 -19q39 0 61 44z" />
    <glyph glyph-name="uni1EB3" unicode="&#x1eb3;" horiz-adv-x="508" 
d="M84.5 15q-38.5 27 -38.5 91q0 65 47.5 102.5t120.5 62.5l74 26v68q0 51 -21 74t-54 23q-28 0 -48.5 -12.5t-20.5 -34.5q0 -6 3.5 -14.5t12.5 -14.5q15 -9 21.5 -19t6.5 -26q0 -24 -17.5 -37.5t-38.5 -13.5q-26 0 -44.5 17.5t-18.5 50.5q0 38 23 67.5t59 45t73 15.5
q72 0 126 -38.5t54 -122.5v-253q0 -36 20 -36q18 0 27 30t9 69h28q0 -73 -22 -107q-11 -18 -31 -29t-46 -11q-41 0 -62 12.5t-35 41.5h-2q-40 -54 -112 -54q-55 0 -93.5 27zM288 72v198l-56 -20q-33 -12 -48.5 -45.5t-15.5 -89.5q0 -49 18 -68t41 -19q39 0 61 44zM147 583
q-37 43 -43 111h28q8 -40 36.5 -63t75.5 -23t75.5 23t36.5 63h28q-6 -68 -43 -111t-97 -43t-97 43zM246 728q14 12 20.5 26t6.5 32q0 24 -13.5 40t-40.5 16q-21 0 -37.5 -11t-16.5 -25q0 -10 3.5 -11t8.5 0q3 1 8 1q21 0 21 -22q0 -9 -8.5 -15.5t-21.5 -6.5q-14 0 -28 11
t-14 29q0 37 26.5 56t59.5 19q42 0 73 -19t31 -62q0 -27 -17 -46t-51 -43h-45z" />
    <glyph glyph-name="uni1EB5" unicode="&#x1eb5;" horiz-adv-x="508" 
d="M84.5 15q-38.5 27 -38.5 91q0 65 47.5 102.5t120.5 62.5l74 26v68q0 51 -21 74t-54 23q-28 0 -48.5 -12.5t-20.5 -34.5q0 -6 3.5 -14.5t12.5 -14.5q15 -9 21.5 -19t6.5 -26q0 -24 -17.5 -37.5t-38.5 -13.5q-26 0 -44.5 17.5t-18.5 50.5q0 38 23 67.5t59 45t73 15.5
q72 0 126 -38.5t54 -122.5v-253q0 -36 20 -36q18 0 27 30t9 69h28q0 -73 -22 -107q-11 -18 -31 -29t-46 -11q-41 0 -62 12.5t-35 41.5h-2q-40 -54 -112 -54q-55 0 -93.5 27zM288 72v198l-56 -20q-33 -12 -48.5 -45.5t-15.5 -89.5q0 -49 18 -68t41 -19q39 0 61 44zM147 583
q-37 43 -43 111h28q8 -40 36.5 -63t75.5 -23t75.5 23t36.5 63h28q-6 -68 -43 -111t-97 -43t-97 43zM122 771q11 25 31 41.5t46 16.5q22 0 39 -5t43 -16q35 -15 64 -15q33 0 40 40h22q0 -25 -11 -50t-31 -41.5t-46 -16.5q-22 0 -39 5t-43 16q-35 15 -64 15q-33 0 -40 -40h-22
q0 25 11 50z" />
    <glyph glyph-name="acircumflex" unicode="&#xe2;" horiz-adv-x="508" 
d="M82 548q50 32 74.5 71.5t41.5 88.5h68q17 -49 41.5 -88.5t74.5 -71.5l-16 -24q-35 17 -72.5 44t-61.5 52q-24 -25 -61.5 -52t-72.5 -44zM84.5 15q-38.5 27 -38.5 91q0 65 47.5 102.5t120.5 62.5l74 26v68q0 51 -21 74t-54 23q-28 0 -48.5 -12.5t-20.5 -34.5
q0 -6 3.5 -14.5t12.5 -14.5q15 -9 21.5 -19t6.5 -26q0 -24 -17.5 -37.5t-38.5 -13.5q-26 0 -44.5 17.5t-18.5 50.5q0 38 23 67.5t59 45t73 15.5q72 0 126 -38.5t54 -122.5v-253q0 -36 20 -36q18 0 27 30t9 69h28q0 -73 -22 -107q-11 -18 -31 -29t-46 -11q-41 0 -62 12.5
t-35 41.5h-2q-40 -54 -112 -54q-55 0 -93.5 27zM288 72v198l-56 -20q-33 -12 -48.5 -45.5t-15.5 -89.5q0 -49 18 -68t41 -19q39 0 61 44z" />
    <glyph glyph-name="uni1EA5" unicode="&#x1ea5;" horiz-adv-x="508" 
d="M84.5 15q-38.5 27 -38.5 91q0 65 47.5 102.5t120.5 62.5l74 26v68q0 51 -21 74t-54 23q-28 0 -48.5 -12.5t-20.5 -34.5q0 -6 3.5 -14.5t12.5 -14.5q15 -9 21.5 -19t6.5 -26q0 -24 -17.5 -37.5t-38.5 -13.5q-26 0 -44.5 17.5t-18.5 50.5q0 38 23 67.5t59 45t73 15.5
q72 0 126 -38.5t54 -122.5v-253q0 -36 20 -36q18 0 27 30t9 69h28q0 -73 -22 -107q-11 -18 -31 -29t-46 -11q-41 0 -62 12.5t-35 41.5h-2q-40 -54 -112 -54q-55 0 -93.5 27zM288 72v198l-56 -20q-33 -12 -48.5 -45.5t-15.5 -89.5q0 -49 18 -68t41 -19q39 0 61 44zM94 548
q50 32 74.5 71.5t41.5 88.5h68q17 -49 41.5 -88.5t74.5 -71.5l-16 -24q-35 17 -72.5 44t-61.5 52q-24 -25 -61.5 -52t-72.5 -44zM367 637l89 138q11 18 23 25t26 7q18 0 30 -11t12 -29q0 -27 -28 -48l-132 -100z" />
    <glyph glyph-name="uni1EAD" unicode="&#x1ead;" horiz-adv-x="508" 
d="M84.5 15q-38.5 27 -38.5 91q0 65 47.5 102.5t120.5 62.5l74 26v68q0 51 -21 74t-54 23q-28 0 -48.5 -12.5t-20.5 -34.5q0 -6 3.5 -14.5t12.5 -14.5q15 -9 21.5 -19t6.5 -26q0 -24 -17.5 -37.5t-38.5 -13.5q-26 0 -44.5 17.5t-18.5 50.5q0 38 23 67.5t59 45t73 15.5
q72 0 126 -38.5t54 -122.5v-253q0 -36 20 -36q18 0 27 30t9 69h28q0 -73 -22 -107q-11 -18 -31 -29t-46 -11q-41 0 -62 12.5t-35 41.5h-2q-40 -54 -112 -54q-55 0 -93.5 27zM288 72v198l-56 -20q-33 -12 -48.5 -45.5t-15.5 -89.5q0 -49 18 -68t41 -19q39 0 61 44zM201 -183
q-21 21 -21 53q0 31 21 52.5t53 21.5q31 0 52.5 -21.5t21.5 -52.5q0 -32 -21.5 -53t-52.5 -21q-32 0 -53 21zM94 548q50 32 74.5 71.5t41.5 88.5h68q17 -49 41.5 -88.5t74.5 -71.5l-16 -24q-35 17 -72.5 44t-61.5 52q-24 -25 -61.5 -52t-72.5 -44z" />
    <glyph glyph-name="uni1EA7" unicode="&#x1ea7;" horiz-adv-x="508" 
d="M84.5 15q-38.5 27 -38.5 91q0 65 47.5 102.5t120.5 62.5l74 26v68q0 51 -21 74t-54 23q-28 0 -48.5 -12.5t-20.5 -34.5q0 -6 3.5 -14.5t12.5 -14.5q15 -9 21.5 -19t6.5 -26q0 -24 -17.5 -37.5t-38.5 -13.5q-26 0 -44.5 17.5t-18.5 50.5q0 38 23 67.5t59 45t73 15.5
q72 0 126 -38.5t54 -122.5v-253q0 -36 20 -36q18 0 27 30t9 69h28q0 -73 -22 -107q-11 -18 -31 -29t-46 -11q-41 0 -62 12.5t-35 41.5h-2q-40 -54 -112 -54q-55 0 -93.5 27zM288 72v198l-56 -20q-33 -12 -48.5 -45.5t-15.5 -89.5q0 -49 18 -68t41 -19q39 0 61 44zM94 548
q50 32 74.5 71.5t41.5 88.5h68q17 -49 41.5 -88.5t74.5 -71.5l-16 -24q-35 17 -72.5 44t-61.5 52q-24 -25 -61.5 -52t-72.5 -44zM237 788q-28 21 -28 48q0 18 12 29t30 11q14 0 26 -7t23 -25l89 -138l-20 -18z" />
    <glyph glyph-name="uni1EA9" unicode="&#x1ea9;" horiz-adv-x="508" 
d="M84.5 15q-38.5 27 -38.5 91q0 65 47.5 102.5t120.5 62.5l74 26v68q0 51 -21 74t-54 23q-28 0 -48.5 -12.5t-20.5 -34.5q0 -6 3.5 -14.5t12.5 -14.5q15 -9 21.5 -19t6.5 -26q0 -24 -17.5 -37.5t-38.5 -13.5q-26 0 -44.5 17.5t-18.5 50.5q0 38 23 67.5t59 45t73 15.5
q72 0 126 -38.5t54 -122.5v-253q0 -36 20 -36q18 0 27 30t9 69h28q0 -73 -22 -107q-11 -18 -31 -29t-46 -11q-41 0 -62 12.5t-35 41.5h-2q-40 -54 -112 -54q-55 0 -93.5 27zM288 72v198l-56 -20q-33 -12 -48.5 -45.5t-15.5 -89.5q0 -49 18 -68t41 -19q39 0 61 44zM94 548
q50 32 74.5 71.5t41.5 88.5h68q17 -49 41.5 -88.5t74.5 -71.5l-16 -24q-35 17 -72.5 44t-61.5 52q-24 -25 -61.5 -52t-72.5 -44zM381 724q14 12 20.5 26t6.5 32q0 24 -13.5 40t-40.5 16q-21 0 -37.5 -11t-16.5 -25q0 -10 3.5 -11t8.5 0q3 1 8 1q21 0 21 -22q0 -9 -8.5 -15.5
t-21.5 -6.5q-14 0 -28 11t-14 29q0 37 26.5 56t59.5 19q42 0 73 -19t31 -62q0 -27 -17 -46t-51 -43h-45z" />
    <glyph glyph-name="uni1EAB" unicode="&#x1eab;" horiz-adv-x="508" 
d="M84.5 15q-38.5 27 -38.5 91q0 65 47.5 102.5t120.5 62.5l74 26v68q0 51 -21 74t-54 23q-28 0 -48.5 -12.5t-20.5 -34.5q0 -6 3.5 -14.5t12.5 -14.5q15 -9 21.5 -19t6.5 -26q0 -24 -17.5 -37.5t-38.5 -13.5q-26 0 -44.5 17.5t-18.5 50.5q0 38 23 67.5t59 45t73 15.5
q72 0 126 -38.5t54 -122.5v-253q0 -36 20 -36q18 0 27 30t9 69h28q0 -73 -22 -107q-11 -18 -31 -29t-46 -11q-41 0 -62 12.5t-35 41.5h-2q-40 -54 -112 -54q-55 0 -93.5 27zM288 72v198l-56 -20q-33 -12 -48.5 -45.5t-15.5 -89.5q0 -49 18 -68t41 -19q39 0 61 44zM94 548
q50 32 74.5 71.5t41.5 88.5h68q17 -49 41.5 -88.5t74.5 -71.5l-16 -24q-35 17 -72.5 44t-61.5 52q-24 -25 -61.5 -52t-72.5 -44zM117 782q11 25 31 41.5t46 16.5q22 0 39 -5t43 -16q35 -15 64 -15q33 0 40 40h22q0 -25 -11 -50t-31 -41.5t-46 -16.5q-22 0 -39 5t-43 16
q-35 15 -64 15q-33 0 -40 -40h-22q0 25 11 50z" />
    <glyph glyph-name="uni0201" unicode="&#x201;" horiz-adv-x="508" 
d="M47 628q-27 21 -27 46q0 16 11.5 27t28.5 11q28 0 47 -32l85 -138l-20 -18zM181 628q-27 21 -27 46q0 16 11.5 27t28.5 11q28 0 47 -32l85 -138l-20 -18zM84.5 15q-38.5 27 -38.5 91q0 65 47.5 102.5t120.5 62.5l74 26v68q0 51 -21 74t-54 23q-28 0 -48.5 -12.5
t-20.5 -34.5q0 -6 3.5 -14.5t12.5 -14.5q15 -9 21.5 -19t6.5 -26q0 -24 -17.5 -37.5t-38.5 -13.5q-26 0 -44.5 17.5t-18.5 50.5q0 38 23 67.5t59 45t73 15.5q72 0 126 -38.5t54 -122.5v-253q0 -36 20 -36q18 0 27 30t9 69h28q0 -73 -22 -107q-11 -18 -31 -29t-46 -11
q-41 0 -62 12.5t-35 41.5h-2q-40 -54 -112 -54q-55 0 -93.5 27zM288 72v198l-56 -20q-33 -12 -48.5 -45.5t-15.5 -89.5q0 -49 18 -68t41 -19q39 0 61 44z" />
    <glyph glyph-name="adieresis" unicode="&#xe4;" horiz-adv-x="508" 
d="M93.5 575.5q-17.5 17.5 -17.5 42.5t17.5 42.5t42.5 17.5t42.5 -17.5t17.5 -42.5t-17.5 -42.5t-42.5 -17.5t-42.5 17.5zM285.5 575.5q-17.5 17.5 -17.5 42.5t17.5 42.5t42.5 17.5t42.5 -17.5t17.5 -42.5t-17.5 -42.5t-42.5 -17.5t-42.5 17.5zM84.5 15q-38.5 27 -38.5 91
q0 65 47.5 102.5t120.5 62.5l74 26v68q0 51 -21 74t-54 23q-28 0 -48.5 -12.5t-20.5 -34.5q0 -6 3.5 -14.5t12.5 -14.5q15 -9 21.5 -19t6.5 -26q0 -24 -17.5 -37.5t-38.5 -13.5q-26 0 -44.5 17.5t-18.5 50.5q0 38 23 67.5t59 45t73 15.5q72 0 126 -38.5t54 -122.5v-253
q0 -36 20 -36q18 0 27 30t9 69h28q0 -73 -22 -107q-11 -18 -31 -29t-46 -11q-41 0 -62 12.5t-35 41.5h-2q-40 -54 -112 -54q-55 0 -93.5 27zM288 72v198l-56 -20q-33 -12 -48.5 -45.5t-15.5 -89.5q0 -49 18 -68t41 -19q39 0 61 44z" />
    <glyph glyph-name="uni1EA1" unicode="&#x1ea1;" horiz-adv-x="508" 
d="M84.5 15q-38.5 27 -38.5 91q0 65 47.5 102.5t120.5 62.5l74 26v68q0 51 -21 74t-54 23q-28 0 -48.5 -12.5t-20.5 -34.5q0 -6 3.5 -14.5t12.5 -14.5q15 -9 21.5 -19t6.5 -26q0 -24 -17.5 -37.5t-38.5 -13.5q-26 0 -44.5 17.5t-18.5 50.5q0 38 23 67.5t59 45t73 15.5
q72 0 126 -38.5t54 -122.5v-253q0 -36 20 -36q18 0 27 30t9 69h28q0 -73 -22 -107q-11 -18 -31 -29t-46 -11q-41 0 -62 12.5t-35 41.5h-2q-40 -54 -112 -54q-55 0 -93.5 27zM288 72v198l-56 -20q-33 -12 -48.5 -45.5t-15.5 -89.5q0 -49 18 -68t41 -19q39 0 61 44zM201 -183
q-21 21 -21 53q0 31 21 52.5t53 21.5q31 0 52.5 -21.5t21.5 -52.5q0 -32 -21.5 -53t-52.5 -21q-32 0 -53 21z" />
    <glyph glyph-name="agrave" unicode="&#xe0;" horiz-adv-x="508" 
d="M124 624q-28 21 -28 48q0 18 12 29t30 11q14 0 26 -7t23 -25l89 -138l-20 -18zM84.5 15q-38.5 27 -38.5 91q0 65 47.5 102.5t120.5 62.5l74 26v68q0 51 -21 74t-54 23q-28 0 -48.5 -12.5t-20.5 -34.5q0 -6 3.5 -14.5t12.5 -14.5q15 -9 21.5 -19t6.5 -26
q0 -24 -17.5 -37.5t-38.5 -13.5q-26 0 -44.5 17.5t-18.5 50.5q0 38 23 67.5t59 45t73 15.5q72 0 126 -38.5t54 -122.5v-253q0 -36 20 -36q18 0 27 30t9 69h28q0 -73 -22 -107q-11 -18 -31 -29t-46 -11q-41 0 -62 12.5t-35 41.5h-2q-40 -54 -112 -54q-55 0 -93.5 27zM288 72
v198l-56 -20q-33 -12 -48.5 -45.5t-15.5 -89.5q0 -49 18 -68t41 -19q39 0 61 44z" />
    <glyph glyph-name="uni1EA3" unicode="&#x1ea3;" horiz-adv-x="508" 
d="M84.5 15q-38.5 27 -38.5 91q0 65 47.5 102.5t120.5 62.5l74 26v68q0 51 -21 74t-54 23q-28 0 -48.5 -12.5t-20.5 -34.5q0 -6 3.5 -14.5t12.5 -14.5q15 -9 21.5 -19t6.5 -26q0 -24 -17.5 -37.5t-38.5 -13.5q-26 0 -44.5 17.5t-18.5 50.5q0 38 23 67.5t59 45t73 15.5
q72 0 126 -38.5t54 -122.5v-253q0 -36 20 -36q18 0 27 30t9 69h28q0 -73 -22 -107q-11 -18 -31 -29t-46 -11q-41 0 -62 12.5t-35 41.5h-2q-40 -54 -112 -54q-55 0 -93.5 27zM288 72v198l-56 -20q-33 -12 -48.5 -45.5t-15.5 -89.5q0 -49 18 -68t41 -19q39 0 61 44zM261 597
q14 12 20.5 26t6.5 32q0 24 -13.5 40t-40.5 16q-21 0 -37.5 -11t-16.5 -25q0 -10 3.5 -11t8.5 0q3 1 8 1q21 0 21 -22q0 -9 -8.5 -15.5t-21.5 -6.5q-14 0 -28 11t-14 29q0 37 26.5 56t59.5 19q42 0 73 -19t31 -62q0 -27 -17 -46t-51 -43h-45z" />
    <glyph glyph-name="uni0203" unicode="&#x203;" horiz-adv-x="508" 
d="M94 524q17 59 54 103.5t84 44.5t84 -44.5t54 -103.5l-22 -8q-38 80 -116 80t-116 -80zM84.5 15q-38.5 27 -38.5 91q0 65 47.5 102.5t120.5 62.5l74 26v68q0 51 -21 74t-54 23q-28 0 -48.5 -12.5t-20.5 -34.5q0 -6 3.5 -14.5t12.5 -14.5q15 -9 21.5 -19t6.5 -26
q0 -24 -17.5 -37.5t-38.5 -13.5q-26 0 -44.5 17.5t-18.5 50.5q0 38 23 67.5t59 45t73 15.5q72 0 126 -38.5t54 -122.5v-253q0 -36 20 -36q18 0 27 30t9 69h28q0 -73 -22 -107q-11 -18 -31 -29t-46 -11q-41 0 -62 12.5t-35 41.5h-2q-40 -54 -112 -54q-55 0 -93.5 27zM288 72
v198l-56 -20q-33 -12 -48.5 -45.5t-15.5 -89.5q0 -49 18 -68t41 -19q39 0 61 44z" />
    <glyph glyph-name="amacron" unicode="&#x101;" horiz-adv-x="508" 
d="M102 584v64h260v-64h-260zM84.5 15q-38.5 27 -38.5 91q0 65 47.5 102.5t120.5 62.5l74 26v68q0 51 -21 74t-54 23q-28 0 -48.5 -12.5t-20.5 -34.5q0 -6 3.5 -14.5t12.5 -14.5q15 -9 21.5 -19t6.5 -26q0 -24 -17.5 -37.5t-38.5 -13.5q-26 0 -44.5 17.5t-18.5 50.5
q0 38 23 67.5t59 45t73 15.5q72 0 126 -38.5t54 -122.5v-253q0 -36 20 -36q18 0 27 30t9 69h28q0 -73 -22 -107q-11 -18 -31 -29t-46 -11q-41 0 -62 12.5t-35 41.5h-2q-40 -54 -112 -54q-55 0 -93.5 27zM288 72v198l-56 -20q-33 -12 -48.5 -45.5t-15.5 -89.5q0 -49 18 -68
t41 -19q39 0 61 44z" />
    <glyph glyph-name="aogonek" unicode="&#x105;" horiz-adv-x="508" 
d="M290.5 -198.5q-24.5 21.5 -24.5 56.5q0 65 93 128l-1 4q-27 4 -42.5 16t-27.5 36h-2q-40 -54 -112 -54q-55 0 -93.5 27t-38.5 91q0 65 47.5 102.5t120.5 62.5l74 26v68q0 51 -21 74t-54 23q-28 0 -48.5 -12.5t-20.5 -34.5q0 -6 3.5 -14.5t12.5 -14.5q15 -9 21.5 -19
t6.5 -26q0 -24 -17.5 -37.5t-38.5 -13.5q-26 0 -44.5 17.5t-18.5 50.5q0 38 23 67.5t59 45t73 15.5q72 0 126 -38.5t54 -122.5v-253q0 -36 20 -36q18 0 27 30t9 69h28q0 -73 -22 -107q-12 -17 -25 -25.5t-33 -15.5q-26 -10 -48 -39t-22 -71q0 -20 11.5 -30.5t30.5 -10.5
q18 0 29 7.5t23 24.5l20 -14q-14 -32 -41 -53t-58 -21q-34 0 -58.5 21.5zM284 72v198l-56 -20q-33 -12 -48.5 -45.5t-15.5 -89.5q0 -49 18 -68t41 -19q39 0 61 44z" />
    <glyph glyph-name="aring" unicode="&#xe5;" horiz-adv-x="508" 
d="M156 547q-31 31 -31 76t31 76t76 31t76 -31t31 -76t-31 -76t-76 -31t-76 31zM278 577.5q17 17.5 17 45.5q0 29 -17 46t-46 17q-28 0 -45.5 -17t-17.5 -46q0 -28 17.5 -45.5t45.5 -17.5q29 0 46 17.5zM84.5 15q-38.5 27 -38.5 91q0 65 47.5 102.5t120.5 62.5l74 26v68
q0 51 -21 74t-54 23q-28 0 -48.5 -12.5t-20.5 -34.5q0 -6 3.5 -14.5t12.5 -14.5q15 -9 21.5 -19t6.5 -26q0 -24 -17.5 -37.5t-38.5 -13.5q-26 0 -44.5 17.5t-18.5 50.5q0 38 23 67.5t59 45t73 15.5q72 0 126 -38.5t54 -122.5v-253q0 -36 20 -36q18 0 27 30t9 69h28
q0 -73 -22 -107q-11 -18 -31 -29t-46 -11q-41 0 -62 12.5t-35 41.5h-2q-40 -54 -112 -54q-55 0 -93.5 27zM288 72v198l-56 -20q-33 -12 -48.5 -45.5t-15.5 -89.5q0 -49 18 -68t41 -19q39 0 61 44z" />
    <glyph glyph-name="aringacute" unicode="&#x1fb;" horiz-adv-x="508" 
d="M188 762l89 138q11 18 23 25t26 7q18 0 30 -11t12 -29q0 -27 -28 -48l-132 -100zM156 539q-31 31 -31 76t31 76t76 31t76 -31t31 -76t-31 -76t-76 -31t-76 31zM278 569.5q17 17.5 17 45.5q0 29 -17 46t-46 17q-28 0 -45.5 -17t-17.5 -46q0 -28 17.5 -45.5t45.5 -17.5
q29 0 46 17.5zM84.5 15q-38.5 27 -38.5 91q0 65 47.5 102.5t120.5 62.5l74 26v68q0 51 -21 74t-54 23q-28 0 -48.5 -12.5t-20.5 -34.5q0 -6 3.5 -14.5t12.5 -14.5q15 -9 21.5 -19t6.5 -26q0 -24 -17.5 -37.5t-38.5 -13.5q-26 0 -44.5 17.5t-18.5 50.5q0 38 23 67.5t59 45
t73 15.5q72 0 126 -38.5t54 -122.5v-253q0 -36 20 -36q18 0 27 30t9 69h28q0 -73 -22 -107q-11 -18 -31 -29t-46 -11q-41 0 -62 12.5t-35 41.5h-2q-40 -54 -112 -54q-55 0 -93.5 27zM288 72v198l-56 -20q-33 -12 -48.5 -45.5t-15.5 -89.5q0 -49 18 -68t41 -19q39 0 61 44z
" />
    <glyph glyph-name="atilde" unicode="&#xe3;" horiz-adv-x="508" 
d="M95 614q11 25 31 41.5t46 16.5q22 0 39 -5t43 -16q35 -15 64 -15q33 0 40 40h22q0 -25 -11 -50t-31 -41.5t-46 -16.5q-22 0 -39 5t-43 16q-35 15 -64 15q-33 0 -40 -40h-22q0 25 11 50zM84.5 15q-38.5 27 -38.5 91q0 65 47.5 102.5t120.5 62.5l74 26v68q0 51 -21 74
t-54 23q-28 0 -48.5 -12.5t-20.5 -34.5q0 -6 3.5 -14.5t12.5 -14.5q15 -9 21.5 -19t6.5 -26q0 -24 -17.5 -37.5t-38.5 -13.5q-26 0 -44.5 17.5t-18.5 50.5q0 38 23 67.5t59 45t73 15.5q72 0 126 -38.5t54 -122.5v-253q0 -36 20 -36q18 0 27 30t9 69h28q0 -73 -22 -107
q-11 -18 -31 -29t-46 -11q-41 0 -62 12.5t-35 41.5h-2q-40 -54 -112 -54q-55 0 -93.5 27zM288 72v198l-56 -20q-33 -12 -48.5 -45.5t-15.5 -89.5q0 -49 18 -68t41 -19q39 0 61 44z" />
    <glyph glyph-name="ae" unicode="&#xe6;" horiz-adv-x="700" 
d="M84 16q-38 28 -38 91q0 66 48 102.5t120 61.5l74 26v68q0 51 -22 74t-55 23q-27 0 -47 -12.5t-20 -34.5q0 -6 3.5 -14.5t12.5 -14.5q15 -9 21.5 -19t6.5 -26q0 -24 -17.5 -37.5t-38.5 -13.5q-26 0 -44.5 17.5t-18.5 50.5q0 39 22 68t56 44.5t71 15.5q80 0 132 -44
q25 23 59 33.5t69 10.5q61 0 105 -43.5t58 -114.5q7 -32 7 -100h-244q0 -48 2 -75.5t9 -53.5q9 -37 34.5 -59t59.5 -22q49 0 79 43t36 101h26q-6 -69 -45 -121.5t-116 -52.5q-49 0 -92.5 20.5t-68.5 57.5q-27 -37 -63.5 -57.5t-90.5 -20.5q-52 0 -90 28zM532 256
q0 105 -13.5 155.5t-50.5 50.5t-50.5 -50.5t-13.5 -155.5h128zM288 66v203l-56 -19q-64 -22 -64 -135q0 -49 18 -68t38 -19q39 0 64 38z" />
    <glyph glyph-name="aeacute" unicode="&#x1fd;" horiz-adv-x="700" 
d="M316 542l89 138q11 18 23 25t26 7q18 0 30 -11t12 -29q0 -27 -28 -48l-132 -100zM84 16q-38 28 -38 91q0 66 48 102.5t120 61.5l74 26v68q0 51 -22 74t-55 23q-27 0 -47 -12.5t-20 -34.5q0 -6 3.5 -14.5t12.5 -14.5q15 -9 21.5 -19t6.5 -26q0 -24 -17.5 -37.5
t-38.5 -13.5q-26 0 -44.5 17.5t-18.5 50.5q0 39 22 68t56 44.5t71 15.5q80 0 132 -44q25 23 59 33.5t69 10.5q61 0 105 -43.5t58 -114.5q7 -32 7 -100h-244q0 -48 2 -75.5t9 -53.5q9 -37 34.5 -59t59.5 -22q49 0 79 43t36 101h26q-6 -69 -45 -121.5t-116 -52.5
q-49 0 -92.5 20.5t-68.5 57.5q-27 -37 -63.5 -57.5t-90.5 -20.5q-52 0 -90 28zM532 256q0 105 -13.5 155.5t-50.5 50.5t-50.5 -50.5t-13.5 -155.5h128zM288 66v203l-56 -19q-64 -22 -64 -135q0 -49 18 -68t38 -19q39 0 64 38z" />
    <glyph glyph-name="b" unicode="b" horiz-adv-x="528" 
d="M239.5 6q-24.5 18 -43.5 47q-12 19 -20 26t-19 7q-17 0 -29 -28l-28 -58h-16v672q0 9 -3.5 12.5t-12.5 3.5h-56v24h188v-295l6 -2q16 33 41 52t57 19q52 0 92 -35.5t62 -92.5t22 -121q0 -63 -23 -120.5t-64 -93t-93 -35.5q-36 0 -60.5 18zM352 237q0 217 -66 217
q-18 0 -38 -24t-34 -74t-14 -122q0 -59 12 -108t31.5 -77.5t42.5 -28.5q66 0 66 217z" />
    <glyph glyph-name="c" unicode="c" horiz-adv-x="468" 
d="M150.5 21.5q-48.5 33.5 -75.5 90.5t-27 125t26.5 125t75 90.5t109.5 33.5q48 0 80.5 -20t48.5 -51t16 -64q0 -36 -22 -62.5t-53 -26.5q-23 0 -38 13.5t-15 36.5q0 27 32 53q24 20 24 41t-15.5 38.5t-49.5 17.5q-47 0 -69 -59.5t-22 -165.5q0 -53 2 -82.5t9 -55.5
q9 -37 34.5 -59t59.5 -22q49 0 79 43t36 101h26q-6 -69 -45 -121.5t-116 -52.5q-62 0 -110.5 33.5z" />
    <glyph glyph-name="cacute" unicode="&#x107;" horiz-adv-x="468" 
d="M204 542l89 138q11 18 23 25t26 7q18 0 30 -11t12 -29q0 -27 -28 -48l-132 -100zM150.5 21.5q-48.5 33.5 -75.5 90.5t-27 125t26.5 125t75 90.5t109.5 33.5q48 0 80.5 -20t48.5 -51t16 -64q0 -36 -22 -62.5t-53 -26.5q-23 0 -38 13.5t-15 36.5q0 27 32 53q24 20 24 41
t-15.5 38.5t-49.5 17.5q-47 0 -69 -59.5t-22 -165.5q0 -53 2 -82.5t9 -55.5q9 -37 34.5 -59t59.5 -22q49 0 79 43t36 101h26q-6 -69 -45 -121.5t-116 -52.5q-62 0 -110.5 33.5z" />
    <glyph glyph-name="ccaron" unicode="&#x10d;" horiz-adv-x="468" 
d="M224 524l-122 154l16 16l130 -98l130 98l16 -16l-122 -154h-48zM150.5 21.5q-48.5 33.5 -75.5 90.5t-27 125t26.5 125t75 90.5t109.5 33.5q48 0 80.5 -20t48.5 -51t16 -64q0 -36 -22 -62.5t-53 -26.5q-23 0 -38 13.5t-15 36.5q0 27 32 53q24 20 24 41t-15.5 38.5
t-49.5 17.5q-47 0 -69 -59.5t-22 -165.5q0 -53 2 -82.5t9 -55.5q9 -37 34.5 -59t59.5 -22q49 0 79 43t36 101h26q-6 -69 -45 -121.5t-116 -52.5q-62 0 -110.5 33.5z" />
    <glyph glyph-name="ccedilla" unicode="&#xe7;" horiz-adv-x="468" 
d="M186 -191q-30 17 -30 48q0 15 7.5 23.5t21.5 8.5q15 0 21 -9t10 -28q8 -38 49 -38q22 0 34.5 13t12.5 33q0 19 -12 30.5t-36 11.5h-47l14 88q-54 8 -96 42.5t-64.5 88t-22.5 116.5q0 68 26.5 125t75 90.5t109.5 33.5q48 0 80.5 -20t48.5 -51t16 -64q0 -36 -22 -62.5
t-53 -26.5q-23 0 -38 13.5t-15 36.5q0 27 32 53q24 20 24 41t-15.5 38.5t-49.5 17.5q-47 0 -69 -59.5t-22 -165.5q0 -53 2 -82.5t9 -55.5q9 -37 34.5 -59t59.5 -22q49 0 79 43t36 101h26q-6 -69 -45 -121.5t-116 -52.5h-6l-4 -30h25q36 0 60 -21.5t24 -53.5
q0 -38 -26.5 -64.5t-82.5 -26.5q-35 0 -65 17z" />
    <glyph glyph-name="uni1E09" unicode="&#x1e09;" horiz-adv-x="468" 
d="M204 542l89 138q11 18 23 25t26 7q18 0 30 -11t12 -29q0 -27 -28 -48l-132 -100zM186 -191q-30 17 -30 48q0 15 7.5 23.5t21.5 8.5q15 0 21 -9t10 -28q8 -38 49 -38q22 0 34.5 13t12.5 33q0 19 -12 30.5t-36 11.5h-47l14 88q-54 8 -96 42.5t-64.5 88t-22.5 116.5
q0 68 26.5 125t75 90.5t109.5 33.5q48 0 80.5 -20t48.5 -51t16 -64q0 -36 -22 -62.5t-53 -26.5q-23 0 -38 13.5t-15 36.5q0 27 32 53q24 20 24 41t-15.5 38.5t-49.5 17.5q-47 0 -69 -59.5t-22 -165.5q0 -53 2 -82.5t9 -55.5q9 -37 34.5 -59t59.5 -22q49 0 79 43t36 101h26
q-6 -69 -45 -121.5t-116 -52.5h-6l-4 -30h25q36 0 60 -21.5t24 -53.5q0 -38 -26.5 -64.5t-82.5 -26.5q-35 0 -65 17z" />
    <glyph glyph-name="ccircumflex" unicode="&#x109;" horiz-adv-x="468" 
d="M98 548q50 32 74.5 71.5t41.5 88.5h68q17 -49 41.5 -88.5t74.5 -71.5l-16 -24q-35 17 -72.5 44t-61.5 52q-24 -25 -61.5 -52t-72.5 -44zM150.5 21.5q-48.5 33.5 -75.5 90.5t-27 125t26.5 125t75 90.5t109.5 33.5q48 0 80.5 -20t48.5 -51t16 -64q0 -36 -22 -62.5
t-53 -26.5q-23 0 -38 13.5t-15 36.5q0 27 32 53q24 20 24 41t-15.5 38.5t-49.5 17.5q-47 0 -69 -59.5t-22 -165.5q0 -53 2 -82.5t9 -55.5q9 -37 34.5 -59t59.5 -22q49 0 79 43t36 101h26q-6 -69 -45 -121.5t-116 -52.5q-62 0 -110.5 33.5z" />
    <glyph glyph-name="cdotaccent" unicode="&#x10b;" horiz-adv-x="468" 
d="M195.5 565.5q-21.5 21.5 -21.5 52.5q0 32 21.5 53t52.5 21q32 0 53 -21t21 -53q0 -31 -21 -52.5t-53 -21.5q-31 0 -52.5 21.5zM150.5 21.5q-48.5 33.5 -75.5 90.5t-27 125t26.5 125t75 90.5t109.5 33.5q48 0 80.5 -20t48.5 -51t16 -64q0 -36 -22 -62.5t-53 -26.5
q-23 0 -38 13.5t-15 36.5q0 27 32 53q24 20 24 41t-15.5 38.5t-49.5 17.5q-47 0 -69 -59.5t-22 -165.5q0 -53 2 -82.5t9 -55.5q9 -37 34.5 -59t59.5 -22q49 0 79 43t36 101h26q-6 -69 -45 -121.5t-116 -52.5q-62 0 -110.5 33.5z" />
    <glyph glyph-name="d" unicode="d" horiz-adv-x="538" 
d="M135 23.5q-41 35.5 -64 93t-23 120.5q0 64 22 121t62 92.5t92 35.5q32 0 57 -19t41 -52l6 2v255q0 9 -3.5 12.5t-12.5 3.5h-56v24h188v-672q0 -9 3.5 -12.5t12.5 -3.5h56v-24h-188v58h-6q-13 -28 -37.5 -49t-56.5 -21q-52 0 -93 35.5zM284.5 48.5q19.5 28.5 31.5 77.5
t12 108q0 72 -14 122t-34 74t-38 24q-66 0 -66 -217t66 -217q23 0 42.5 28.5z" />
    <glyph glyph-name="eth" unicode="&#xf0;" horiz-adv-x="510" 
d="M150.5 21q-47.5 33 -75 90t-27.5 126t26.5 126t71 90t96.5 33q22 0 40 -5l5 5q-27 48 -65 99l-94 -55l-14 24l91 54q-43 53 -78 87v17h120q20 -21 47 -52l96 56l14 -24l-92 -54q31 -40 76 -112q38 -61 56 -134t18 -149q0 -82 -28 -139.5t-75 -86.5t-104 -29t-104.5 33z
M314 64.5q20 52.5 20 172.5t-20 172.5t-59 52.5t-59 -52.5t-20 -172.5t20 -172.5t59 -52.5t59 52.5z" />
    <glyph glyph-name="dcaron" unicode="&#x10f;" horiz-adv-x="590" 
d="M480 509q38 20 60 44.5t22 51.5q0 12 -8 19q-10 8 -25 8q-21 0 -36 13t-15 36q0 19 15.5 34t40.5 15q29 0 50.5 -23.5t21.5 -60.5q0 -50 -31.5 -91t-81.5 -65zM135 23.5q-41 35.5 -64 93t-23 120.5q0 64 22 121t62 92.5t92 35.5q32 0 57 -19t41 -52l6 2v255
q0 9 -3.5 12.5t-12.5 3.5h-56v24h188v-672q0 -9 3.5 -12.5t12.5 -3.5h56v-24h-188v58h-6q-13 -28 -37.5 -49t-56.5 -21q-52 0 -93 35.5zM284.5 48.5q19.5 28.5 31.5 77.5t12 108q0 72 -14 122t-34 74t-38 24q-66 0 -66 -217t66 -217q23 0 42.5 28.5z" />
    <glyph glyph-name="dcroat" unicode="&#x111;" horiz-adv-x="538" 
d="M135 23.5q-41 35.5 -64 93t-23 120.5q0 64 22 121t62 92.5t92 35.5q32 0 57 -19t41 -52l6 2v147h-168v28h168v80q0 9 -3.5 12.5t-12.5 3.5h-56v24h188v-120h72v-28h-72v-524q0 -9 3.5 -12.5t12.5 -3.5h56v-24h-188v58h-6q-13 -28 -37.5 -49t-56.5 -21q-52 0 -93 35.5z
M284.5 48.5q19.5 28.5 31.5 77.5t12 108q0 72 -14 122t-34 74t-38 24q-66 0 -66 -217t66 -217q23 0 42.5 28.5z" />
    <glyph glyph-name="uni1E0D" unicode="&#x1e0d;" horiz-adv-x="538" 
d="M135 23.5q-41 35.5 -64 93t-23 120.5q0 64 22 121t62 92.5t92 35.5q32 0 57 -19t41 -52l6 2v255q0 9 -3.5 12.5t-12.5 3.5h-56v24h188v-672q0 -9 3.5 -12.5t12.5 -3.5h56v-24h-188v58h-6q-13 -28 -37.5 -49t-56.5 -21q-52 0 -93 35.5zM284.5 48.5q19.5 28.5 31.5 77.5
t12 108q0 72 -14 122t-34 74t-38 24q-66 0 -66 -217t66 -217q23 0 42.5 28.5zM195.5 -183q-21.5 21 -21.5 53q0 31 21.5 52.5t52.5 21.5q32 0 53 -21.5t21 -52.5q0 -32 -21 -53t-53 -21q-31 0 -52.5 21z" />
    <glyph glyph-name="uni1E0F" unicode="&#x1e0f;" horiz-adv-x="538" 
d="M135 23.5q-41 35.5 -64 93t-23 120.5q0 64 22 121t62 92.5t92 35.5q32 0 57 -19t41 -52l6 2v255q0 9 -3.5 12.5t-12.5 3.5h-56v24h188v-672q0 -9 3.5 -12.5t12.5 -3.5h56v-24h-188v58h-6q-13 -28 -37.5 -49t-56.5 -21q-52 0 -93 35.5zM284.5 48.5q19.5 28.5 31.5 77.5
t12 108q0 72 -14 122t-34 74t-38 24q-66 0 -66 -217t66 -217q23 0 42.5 28.5zM118 -164v64h260v-64h-260z" />
    <glyph glyph-name="uni01F3" unicode="&#x1f3;" horiz-adv-x="998" 
d="M135 23.5q-41 35.5 -64 93t-23 120.5q0 64 22 121t62 92.5t92 35.5q32 0 57 -19t41 -52l6 2v255q0 9 -3.5 12.5t-12.5 3.5h-56v24h188v-672q0 -9 3.5 -12.5t12.5 -3.5h56v-24h-188v58h-6q-13 -28 -37.5 -49t-56.5 -21q-52 0 -93 35.5zM570 26l250 424h-68q-60 0 -94 -52
q-18 -28 -27 -60.5t-9 -39.5h-24l6 176h348v-20l-254 -430h86q36 0 69.5 27t50.5 65q12 26 17 54t5 38h24l-6 -208h-374v26zM284.5 48.5q19.5 28.5 31.5 77.5t12 108q0 72 -14 122t-34 74t-38 24q-66 0 -66 -217t66 -217q23 0 42.5 28.5z" />
    <glyph glyph-name="uni01C6" unicode="&#x1c6;" horiz-adv-x="998" 
d="M135 23.5q-41 35.5 -64 93t-23 120.5q0 64 22 121t62 92.5t92 35.5q32 0 57 -19t41 -52l6 2v255q0 9 -3.5 12.5t-12.5 3.5h-56v24h188v-672q0 -9 3.5 -12.5t12.5 -3.5h56v-24h-188v58h-6q-13 -28 -37.5 -49t-56.5 -21q-52 0 -93 35.5zM752 524l-122 154l16 16l130 -98
l130 98l16 -16l-122 -154h-48zM570 26l250 424h-68q-60 0 -94 -52q-18 -28 -27 -60.5t-9 -39.5h-24l6 176h348v-20l-254 -430h86q36 0 69.5 27t50.5 65q12 26 17 54t5 38h24l-6 -208h-374v26zM284.5 48.5q19.5 28.5 31.5 77.5t12 108q0 72 -14 122t-34 74t-38 24
q-66 0 -66 -217t66 -217q23 0 42.5 28.5z" />
    <glyph glyph-name="e" unicode="e" horiz-adv-x="472" 
d="M150.5 21.5q-48.5 33.5 -75.5 90.5t-27 125q0 70 27 127t73.5 89.5t101.5 32.5q61 0 105 -43.5t58 -114.5q7 -32 7 -100h-244q0 -48 2 -75.5t9 -53.5q9 -37 34.5 -59t59.5 -22q49 0 79 43t36 101h26q-6 -69 -45 -121.5t-116 -52.5q-62 0 -110.5 33.5zM304 256
q0 105 -13.5 155.5t-50.5 50.5t-50.5 -50.5t-13.5 -155.5h128z" />
    <glyph glyph-name="eacute" unicode="&#xe9;" horiz-adv-x="472" 
d="M196 542l89 138q11 18 23 25t26 7q18 0 30 -11t12 -29q0 -27 -28 -48l-132 -100zM150.5 21.5q-48.5 33.5 -75.5 90.5t-27 125q0 70 27 127t73.5 89.5t101.5 32.5q61 0 105 -43.5t58 -114.5q7 -32 7 -100h-244q0 -48 2 -75.5t9 -53.5q9 -37 34.5 -59t59.5 -22q49 0 79 43
t36 101h26q-6 -69 -45 -121.5t-116 -52.5q-62 0 -110.5 33.5zM304 256q0 105 -13.5 155.5t-50.5 50.5t-50.5 -50.5t-13.5 -155.5h128z" />
    <glyph glyph-name="ebreve" unicode="&#x115;" horiz-adv-x="472" 
d="M143 583q-37 43 -43 111h28q8 -40 36.5 -63t75.5 -23t75.5 23t36.5 63h28q-6 -68 -43 -111t-97 -43t-97 43zM150.5 21.5q-48.5 33.5 -75.5 90.5t-27 125q0 70 27 127t73.5 89.5t101.5 32.5q61 0 105 -43.5t58 -114.5q7 -32 7 -100h-244q0 -48 2 -75.5t9 -53.5
q9 -37 34.5 -59t59.5 -22q49 0 79 43t36 101h26q-6 -69 -45 -121.5t-116 -52.5q-62 0 -110.5 33.5zM304 256q0 105 -13.5 155.5t-50.5 50.5t-50.5 -50.5t-13.5 -155.5h128z" />
    <glyph glyph-name="ecaron" unicode="&#x11b;" horiz-adv-x="472" 
d="M216 524l-122 154l16 16l130 -98l130 98l16 -16l-122 -154h-48zM150.5 21.5q-48.5 33.5 -75.5 90.5t-27 125q0 70 27 127t73.5 89.5t101.5 32.5q61 0 105 -43.5t58 -114.5q7 -32 7 -100h-244q0 -48 2 -75.5t9 -53.5q9 -37 34.5 -59t59.5 -22q49 0 79 43t36 101h26
q-6 -69 -45 -121.5t-116 -52.5q-62 0 -110.5 33.5zM304 256q0 105 -13.5 155.5t-50.5 50.5t-50.5 -50.5t-13.5 -155.5h128z" />
    <glyph glyph-name="uni1E1D" unicode="&#x1e1d;" horiz-adv-x="472" 
d="M143 583q-37 43 -43 111h28q8 -40 36.5 -63t75.5 -23t75.5 23t36.5 63h28q-6 -68 -43 -111t-97 -43t-97 43zM190 -191q-30 17 -30 48q0 15 7.5 23.5t21.5 8.5q15 0 21 -9t10 -28q8 -38 49 -38q22 0 34.5 13t12.5 33q0 19 -12 30.5t-36 11.5h-47l14 88q-56 7 -98.5 41
t-65.5 88t-23 118q0 70 27 127t73.5 89.5t101.5 32.5q61 0 105 -43.5t58 -114.5q7 -32 7 -100h-244q0 -48 2 -75.5t9 -53.5q9 -37 34.5 -59t59.5 -22q49 0 79 43t36 101h26q-6 -69 -45 -121.5t-116 -52.5h-2l-4 -30h25q36 0 60 -21.5t24 -53.5q0 -38 -26.5 -64.5
t-82.5 -26.5q-35 0 -65 17zM304 256q0 105 -13.5 155.5t-50.5 50.5t-50.5 -50.5t-13.5 -155.5h128z" />
    <glyph glyph-name="ecircumflex" unicode="&#xea;" horiz-adv-x="472" 
d="M90 548q50 32 74.5 71.5t41.5 88.5h68q17 -49 41.5 -88.5t74.5 -71.5l-16 -24q-35 17 -72.5 44t-61.5 52q-24 -25 -61.5 -52t-72.5 -44zM150.5 21.5q-48.5 33.5 -75.5 90.5t-27 125q0 70 27 127t73.5 89.5t101.5 32.5q61 0 105 -43.5t58 -114.5q7 -32 7 -100h-244
q0 -48 2 -75.5t9 -53.5q9 -37 34.5 -59t59.5 -22q49 0 79 43t36 101h26q-6 -69 -45 -121.5t-116 -52.5q-62 0 -110.5 33.5zM304 256q0 105 -13.5 155.5t-50.5 50.5t-50.5 -50.5t-13.5 -155.5h128z" />
    <glyph glyph-name="uni1EBF" unicode="&#x1ebf;" horiz-adv-x="472" 
d="M150.5 21.5q-48.5 33.5 -75.5 90.5t-27 125q0 70 27 127t73.5 89.5t101.5 32.5q61 0 105 -43.5t58 -114.5q7 -32 7 -100h-244q0 -48 2 -75.5t9 -53.5q9 -37 34.5 -59t59.5 -22q49 0 79 43t36 101h26q-6 -69 -45 -121.5t-116 -52.5q-62 0 -110.5 33.5zM304 256
q0 105 -13.5 155.5t-50.5 50.5t-50.5 -50.5t-13.5 -155.5h128zM86 548q50 32 74.5 71.5t41.5 88.5h68q17 -49 41.5 -88.5t74.5 -71.5l-16 -24q-35 17 -72.5 44t-61.5 52q-24 -25 -61.5 -52t-72.5 -44zM359 637l89 138q11 18 23 25t26 7q18 0 30 -11t12 -29q0 -27 -28 -48
l-132 -100z" />
    <glyph glyph-name="uni1EC7" unicode="&#x1ec7;" horiz-adv-x="472" 
d="M150.5 21.5q-48.5 33.5 -75.5 90.5t-27 125q0 70 27 127t73.5 89.5t101.5 32.5q61 0 105 -43.5t58 -114.5q7 -32 7 -100h-244q0 -48 2 -75.5t9 -53.5q9 -37 34.5 -59t59.5 -22q49 0 79 43t36 101h26q-6 -69 -45 -121.5t-116 -52.5q-62 0 -110.5 33.5zM304 256
q0 105 -13.5 155.5t-50.5 50.5t-50.5 -50.5t-13.5 -155.5h128zM183 -183q-21 21 -21 53q0 31 21 52.5t53 21.5q31 0 52.5 -21.5t21.5 -52.5q0 -32 -21.5 -53t-52.5 -21q-32 0 -53 21zM86 548q50 32 74.5 71.5t41.5 88.5h68q17 -49 41.5 -88.5t74.5 -71.5l-16 -24
q-35 17 -72.5 44t-61.5 52q-24 -25 -61.5 -52t-72.5 -44z" />
    <glyph glyph-name="uni1EC1" unicode="&#x1ec1;" horiz-adv-x="472" 
d="M150.5 21.5q-48.5 33.5 -75.5 90.5t-27 125q0 70 27 127t73.5 89.5t101.5 32.5q61 0 105 -43.5t58 -114.5q7 -32 7 -100h-244q0 -48 2 -75.5t9 -53.5q9 -37 34.5 -59t59.5 -22q49 0 79 43t36 101h26q-6 -69 -45 -121.5t-116 -52.5q-62 0 -110.5 33.5zM304 256
q0 105 -13.5 155.5t-50.5 50.5t-50.5 -50.5t-13.5 -155.5h128zM86 548q50 32 74.5 71.5t41.5 88.5h68q17 -49 41.5 -88.5t74.5 -71.5l-16 -24q-35 17 -72.5 44t-61.5 52q-24 -25 -61.5 -52t-72.5 -44zM229 788q-28 21 -28 48q0 18 12 29t30 11q14 0 26 -7t23 -25l89 -138
l-20 -18z" />
    <glyph glyph-name="uni1EC3" unicode="&#x1ec3;" horiz-adv-x="472" 
d="M150.5 21.5q-48.5 33.5 -75.5 90.5t-27 125q0 70 27 127t73.5 89.5t101.5 32.5q61 0 105 -43.5t58 -114.5q7 -32 7 -100h-244q0 -48 2 -75.5t9 -53.5q9 -37 34.5 -59t59.5 -22q49 0 79 43t36 101h26q-6 -69 -45 -121.5t-116 -52.5q-62 0 -110.5 33.5zM304 256
q0 105 -13.5 155.5t-50.5 50.5t-50.5 -50.5t-13.5 -155.5h128zM86 548q50 32 74.5 71.5t41.5 88.5h68q17 -49 41.5 -88.5t74.5 -71.5l-16 -24q-35 17 -72.5 44t-61.5 52q-24 -25 -61.5 -52t-72.5 -44zM373 724q14 12 20.5 26t6.5 32q0 24 -13.5 40t-40.5 16q-21 0 -37.5 -11
t-16.5 -25q0 -10 3.5 -11t8.5 0q3 1 8 1q21 0 21 -22q0 -9 -8.5 -15.5t-21.5 -6.5q-14 0 -28 11t-14 29q0 37 26.5 56t59.5 19q42 0 73 -19t31 -62q0 -27 -17 -46t-51 -43h-45z" />
    <glyph glyph-name="uni1EC5" unicode="&#x1ec5;" horiz-adv-x="472" 
d="M150.5 21.5q-48.5 33.5 -75.5 90.5t-27 125q0 70 27 127t73.5 89.5t101.5 32.5q61 0 105 -43.5t58 -114.5q7 -32 7 -100h-244q0 -48 2 -75.5t9 -53.5q9 -37 34.5 -59t59.5 -22q49 0 79 43t36 101h26q-6 -69 -45 -121.5t-116 -52.5q-62 0 -110.5 33.5zM304 256
q0 105 -13.5 155.5t-50.5 50.5t-50.5 -50.5t-13.5 -155.5h128zM86 548q50 32 74.5 71.5t41.5 88.5h68q17 -49 41.5 -88.5t74.5 -71.5l-16 -24q-35 17 -72.5 44t-61.5 52q-24 -25 -61.5 -52t-72.5 -44zM109 782q11 25 31 41.5t46 16.5q22 0 39 -5t43 -16q35 -15 64 -15
q33 0 40 40h22q0 -25 -11 -50t-31 -41.5t-46 -16.5q-22 0 -39 5t-43 16q-35 15 -64 15q-33 0 -40 -40h-22q0 25 11 50z" />
    <glyph glyph-name="uni0205" unicode="&#x205;" horiz-adv-x="472" 
d="M55 628q-27 21 -27 46q0 16 11.5 27t28.5 11q28 0 47 -32l85 -138l-20 -18zM189 628q-27 21 -27 46q0 16 11.5 27t28.5 11q28 0 47 -32l85 -138l-20 -18zM150.5 21.5q-48.5 33.5 -75.5 90.5t-27 125q0 70 27 127t73.5 89.5t101.5 32.5q61 0 105 -43.5t58 -114.5
q7 -32 7 -100h-244q0 -48 2 -75.5t9 -53.5q9 -37 34.5 -59t59.5 -22q49 0 79 43t36 101h26q-6 -69 -45 -121.5t-116 -52.5q-62 0 -110.5 33.5zM304 256q0 105 -13.5 155.5t-50.5 50.5t-50.5 -50.5t-13.5 -155.5h128z" />
    <glyph glyph-name="edieresis" unicode="&#xeb;" horiz-adv-x="472" 
d="M101.5 575.5q-17.5 17.5 -17.5 42.5t17.5 42.5t42.5 17.5t42.5 -17.5t17.5 -42.5t-17.5 -42.5t-42.5 -17.5t-42.5 17.5zM293.5 575.5q-17.5 17.5 -17.5 42.5t17.5 42.5t42.5 17.5t42.5 -17.5t17.5 -42.5t-17.5 -42.5t-42.5 -17.5t-42.5 17.5zM150.5 21.5
q-48.5 33.5 -75.5 90.5t-27 125q0 70 27 127t73.5 89.5t101.5 32.5q61 0 105 -43.5t58 -114.5q7 -32 7 -100h-244q0 -48 2 -75.5t9 -53.5q9 -37 34.5 -59t59.5 -22q49 0 79 43t36 101h26q-6 -69 -45 -121.5t-116 -52.5q-62 0 -110.5 33.5zM304 256q0 105 -13.5 155.5
t-50.5 50.5t-50.5 -50.5t-13.5 -155.5h128z" />
    <glyph glyph-name="edotaccent" unicode="&#x117;" horiz-adv-x="472" 
d="M187.5 565.5q-21.5 21.5 -21.5 52.5q0 32 21.5 53t52.5 21q32 0 53 -21t21 -53q0 -31 -21 -52.5t-53 -21.5q-31 0 -52.5 21.5zM150.5 21.5q-48.5 33.5 -75.5 90.5t-27 125q0 70 27 127t73.5 89.5t101.5 32.5q61 0 105 -43.5t58 -114.5q7 -32 7 -100h-244q0 -48 2 -75.5
t9 -53.5q9 -37 34.5 -59t59.5 -22q49 0 79 43t36 101h26q-6 -69 -45 -121.5t-116 -52.5q-62 0 -110.5 33.5zM304 256q0 105 -13.5 155.5t-50.5 50.5t-50.5 -50.5t-13.5 -155.5h128z" />
    <glyph glyph-name="uni1EB9" unicode="&#x1eb9;" horiz-adv-x="472" 
d="M150.5 21.5q-48.5 33.5 -75.5 90.5t-27 125q0 70 27 127t73.5 89.5t101.5 32.5q61 0 105 -43.5t58 -114.5q7 -32 7 -100h-244q0 -48 2 -75.5t9 -53.5q9 -37 34.5 -59t59.5 -22q49 0 79 43t36 101h26q-6 -69 -45 -121.5t-116 -52.5q-62 0 -110.5 33.5zM304 256
q0 105 -13.5 155.5t-50.5 50.5t-50.5 -50.5t-13.5 -155.5h128zM183 -183q-21 21 -21 53q0 31 21 52.5t53 21.5q31 0 52.5 -21.5t21.5 -52.5q0 -32 -21.5 -53t-52.5 -21q-32 0 -53 21z" />
    <glyph glyph-name="egrave" unicode="&#xe8;" horiz-adv-x="472" 
d="M132 624q-28 21 -28 48q0 18 12 29t30 11q14 0 26 -7t23 -25l89 -138l-20 -18zM150.5 21.5q-48.5 33.5 -75.5 90.5t-27 125q0 70 27 127t73.5 89.5t101.5 32.5q61 0 105 -43.5t58 -114.5q7 -32 7 -100h-244q0 -48 2 -75.5t9 -53.5q9 -37 34.5 -59t59.5 -22q49 0 79 43
t36 101h26q-6 -69 -45 -121.5t-116 -52.5q-62 0 -110.5 33.5zM304 256q0 105 -13.5 155.5t-50.5 50.5t-50.5 -50.5t-13.5 -155.5h128z" />
    <glyph glyph-name="uni1EBB" unicode="&#x1ebb;" horiz-adv-x="472" 
d="M150.5 21.5q-48.5 33.5 -75.5 90.5t-27 125q0 70 27 127t73.5 89.5t101.5 32.5q61 0 105 -43.5t58 -114.5q7 -32 7 -100h-244q0 -48 2 -75.5t9 -53.5q9 -37 34.5 -59t59.5 -22q49 0 79 43t36 101h26q-6 -69 -45 -121.5t-116 -52.5q-62 0 -110.5 33.5zM304 256
q0 105 -13.5 155.5t-50.5 50.5t-50.5 -50.5t-13.5 -155.5h128zM253 597q14 12 20.5 26t6.5 32q0 24 -13.5 40t-40.5 16q-21 0 -37.5 -11t-16.5 -25q0 -10 3.5 -11t8.5 0q3 1 8 1q21 0 21 -22q0 -9 -8.5 -15.5t-21.5 -6.5q-14 0 -28 11t-14 29q0 37 26.5 56t59.5 19
q42 0 73 -19t31 -62q0 -27 -17 -46t-51 -43h-45z" />
    <glyph glyph-name="uni0207" unicode="&#x207;" horiz-adv-x="472" 
d="M102 524q17 59 54 103.5t84 44.5t84 -44.5t54 -103.5l-22 -8q-38 80 -116 80t-116 -80zM150.5 21.5q-48.5 33.5 -75.5 90.5t-27 125q0 70 27 127t73.5 89.5t101.5 32.5q61 0 105 -43.5t58 -114.5q7 -32 7 -100h-244q0 -48 2 -75.5t9 -53.5q9 -37 34.5 -59t59.5 -22
q49 0 79 43t36 101h26q-6 -69 -45 -121.5t-116 -52.5q-62 0 -110.5 33.5zM304 256q0 105 -13.5 155.5t-50.5 50.5t-50.5 -50.5t-13.5 -155.5h128z" />
    <glyph glyph-name="emacron" unicode="&#x113;" horiz-adv-x="472" 
d="M110 584v64h260v-64h-260zM150.5 21.5q-48.5 33.5 -75.5 90.5t-27 125q0 70 27 127t73.5 89.5t101.5 32.5q61 0 105 -43.5t58 -114.5q7 -32 7 -100h-244q0 -48 2 -75.5t9 -53.5q9 -37 34.5 -59t59.5 -22q49 0 79 43t36 101h26q-6 -69 -45 -121.5t-116 -52.5
q-62 0 -110.5 33.5zM304 256q0 105 -13.5 155.5t-50.5 50.5t-50.5 -50.5t-13.5 -155.5h128z" />
    <glyph glyph-name="uni1E17" unicode="&#x1e17;" horiz-adv-x="472" 
d="M196 658l89 138q11 18 23 25t26 7q18 0 30 -11t12 -29q0 -27 -28 -48l-132 -100zM110 540v64h260v-64h-260zM150.5 21.5q-48.5 33.5 -75.5 90.5t-27 125q0 70 27 127t73.5 89.5t101.5 32.5q61 0 105 -43.5t58 -114.5q7 -32 7 -100h-244q0 -48 2 -75.5t9 -53.5
q9 -37 34.5 -59t59.5 -22q49 0 79 43t36 101h26q-6 -69 -45 -121.5t-116 -52.5q-62 0 -110.5 33.5zM304 256q0 105 -13.5 155.5t-50.5 50.5t-50.5 -50.5t-13.5 -155.5h128z" />
    <glyph glyph-name="uni1E15" unicode="&#x1e15;" horiz-adv-x="472" 
d="M132 740q-28 21 -28 48q0 18 12 29t30 11q14 0 26 -7t23 -25l89 -138l-20 -18zM110 540v64h260v-64h-260zM150.5 21.5q-48.5 33.5 -75.5 90.5t-27 125q0 70 27 127t73.5 89.5t101.5 32.5q61 0 105 -43.5t58 -114.5q7 -32 7 -100h-244q0 -48 2 -75.5t9 -53.5
q9 -37 34.5 -59t59.5 -22q49 0 79 43t36 101h26q-6 -69 -45 -121.5t-116 -52.5q-62 0 -110.5 33.5zM304 256q0 105 -13.5 155.5t-50.5 50.5t-50.5 -50.5t-13.5 -155.5h128z" />
    <glyph glyph-name="eogonek" unicode="&#x119;" horiz-adv-x="472" 
d="M201.5 -198.5q-24.5 21.5 -24.5 56.5q0 66 90 127v3h-6q-62 0 -110.5 33.5t-75.5 90.5t-27 125q0 70 27 127t73.5 89.5t101.5 32.5q61 0 105 -43.5t58 -114.5q7 -32 7 -100h-244q0 -48 2 -75.5t9 -53.5q9 -37 34.5 -59t59.5 -22q49 0 79 43t36 101h26q-4 -48 -25.5 -91
t-60.5 -65q-91 -52 -91 -129q0 -20 11.5 -30.5t30.5 -10.5q18 0 29 7.5t23 24.5l20 -14q-14 -32 -41 -53t-58 -21q-34 0 -58.5 21.5zM304 256q0 105 -13.5 155.5t-50.5 50.5t-50.5 -50.5t-13.5 -155.5h128z" />
    <glyph glyph-name="uni1EBD" unicode="&#x1ebd;" horiz-adv-x="472" 
d="M150.5 21.5q-48.5 33.5 -75.5 90.5t-27 125q0 70 27 127t73.5 89.5t101.5 32.5q61 0 105 -43.5t58 -114.5q7 -32 7 -100h-244q0 -48 2 -75.5t9 -53.5q9 -37 34.5 -59t59.5 -22q49 0 79 43t36 101h26q-6 -69 -45 -121.5t-116 -52.5q-62 0 -110.5 33.5zM304 256
q0 105 -13.5 155.5t-50.5 50.5t-50.5 -50.5t-13.5 -155.5h128zM99 614q11 25 31 41.5t46 16.5q22 0 39 -5t43 -16q35 -15 64 -15q33 0 40 40h22q0 -25 -11 -50t-31 -41.5t-46 -16.5q-22 0 -39 5t-43 16q-35 15 -64 15q-33 0 -40 -40h-22q0 25 11 50z" />
    <glyph glyph-name="f" unicode="f" horiz-adv-x="350" 
d="M30 24h56q9 0 12.5 3.5t3.5 12.5v406h-72v28h72v48q0 63 27.5 108t70 67.5t85.5 22.5q55 0 88 -33t33 -84q0 -30 -21.5 -52t-52.5 -22q-23 0 -41 15t-18 40q0 29 28 54q17 15 17 32q0 14 -11.5 20t-25.5 6q-25 0 -44 -30t-19 -102v-90h72v-28h-72v-406q0 -9 3.5 -12.5
t12.5 -3.5h56v-24h-260v24z" />
    <glyph glyph-name="g" unicode="g" horiz-adv-x="554" 
d="M106.5 -205q-64.5 33 -64.5 91q0 33 25 60.5t69 37.5v3q-30 2 -54 25t-24 57q0 95 112 117v4q-39 17 -68.5 52t-29.5 88q0 45 25.5 81t67 55.5t89.5 19.5q82 0 139 -52h3q31 52 74 52q32 0 52 -19.5t20 -46.5q0 -30 -16.5 -52t-39.5 -22q-16 0 -28 9.5t-12 25.5t16 36
q6 6 11 14t5 14q0 16 -21 16q-27 0 -51 -42q32 -35 32 -97q0 -36 -23 -70.5t-65.5 -56.5t-97.5 -22q-61 0 -98 -10.5t-37 -42.5q0 -35 49 -35h158q71 0 118 -34t47 -102q0 -50 -27 -92.5t-78 -68.5t-120 -26q-93 0 -157.5 33zM302 229.5q14 31.5 14 100.5t-14 100.5
t-46 31.5q-33 0 -47.5 -31.5t-14.5 -100.5t14.5 -100.5t47.5 -31.5q32 0 46 31.5zM370 -178q52 28 52 80q0 38 -42 54.5t-107 16.5q-77 0 -136 -18.5t-59 -69.5q0 -44 51.5 -67.5t119.5 -23.5q69 0 121 28z" />
    <glyph glyph-name="gbreve" unicode="&#x11f;" horiz-adv-x="554" 
d="M159 583q-37 43 -43 111h28q8 -40 36.5 -63t75.5 -23t75.5 23t36.5 63h28q-6 -68 -43 -111t-97 -43t-97 43zM106.5 -205q-64.5 33 -64.5 91q0 33 25 60.5t69 37.5v3q-30 2 -54 25t-24 57q0 95 112 117v4q-39 17 -68.5 52t-29.5 88q0 45 25.5 81t67 55.5t89.5 19.5
q82 0 139 -52h3q31 52 74 52q32 0 52 -19.5t20 -46.5q0 -30 -16.5 -52t-39.5 -22q-16 0 -28 9.5t-12 25.5t16 36q6 6 11 14t5 14q0 16 -21 16q-27 0 -51 -42q32 -35 32 -97q0 -36 -23 -70.5t-65.5 -56.5t-97.5 -22q-61 0 -98 -10.5t-37 -42.5q0 -35 49 -35h158q71 0 118 -34
t47 -102q0 -50 -27 -92.5t-78 -68.5t-120 -26q-93 0 -157.5 33zM302 229.5q14 31.5 14 100.5t-14 100.5t-46 31.5q-33 0 -47.5 -31.5t-14.5 -100.5t14.5 -100.5t47.5 -31.5q32 0 46 31.5zM370 -178q52 28 52 80q0 38 -42 54.5t-107 16.5q-77 0 -136 -18.5t-59 -69.5
q0 -44 51.5 -67.5t119.5 -23.5q69 0 121 28z" />
    <glyph glyph-name="gcircumflex" unicode="&#x11d;" horiz-adv-x="554" 
d="M106 548q50 32 74.5 71.5t41.5 88.5h68q17 -49 41.5 -88.5t74.5 -71.5l-16 -24q-35 17 -72.5 44t-61.5 52q-24 -25 -61.5 -52t-72.5 -44zM106.5 -205q-64.5 33 -64.5 91q0 33 25 60.5t69 37.5v3q-30 2 -54 25t-24 57q0 95 112 117v4q-39 17 -68.5 52t-29.5 88
q0 45 25.5 81t67 55.5t89.5 19.5q82 0 139 -52h3q31 52 74 52q32 0 52 -19.5t20 -46.5q0 -30 -16.5 -52t-39.5 -22q-16 0 -28 9.5t-12 25.5t16 36q6 6 11 14t5 14q0 16 -21 16q-27 0 -51 -42q32 -35 32 -97q0 -36 -23 -70.5t-65.5 -56.5t-97.5 -22q-61 0 -98 -10.5
t-37 -42.5q0 -35 49 -35h158q71 0 118 -34t47 -102q0 -50 -27 -92.5t-78 -68.5t-120 -26q-93 0 -157.5 33zM302 229.5q14 31.5 14 100.5t-14 100.5t-46 31.5q-33 0 -47.5 -31.5t-14.5 -100.5t14.5 -100.5t47.5 -31.5q32 0 46 31.5zM370 -178q52 28 52 80q0 38 -42 54.5
t-107 16.5q-77 0 -136 -18.5t-59 -69.5q0 -44 51.5 -67.5t119.5 -23.5q69 0 121 28z" />
    <glyph glyph-name="gcommaaccent" unicode="&#x123;" horiz-adv-x="554" 
d="M194.5 548q-22.5 31 -22.5 67q0 49 38 91.5t89 65.5l14 -23q-40 -20 -62.5 -42.5t-22.5 -44.5q0 -9 5 -16.5t13 -11.5q10 -5 32 -5q19 0 33.5 -15.5t14.5 -37.5q0 -26 -19 -42.5t-52 -16.5q-38 0 -60.5 31zM106.5 -205q-64.5 33 -64.5 91q0 33 25 60.5t69 37.5v3
q-30 2 -54 25t-24 57q0 95 112 117v4q-39 17 -68.5 52t-29.5 88q0 45 25.5 81t67 55.5t89.5 19.5q82 0 139 -52h3q31 52 74 52q32 0 52 -19.5t20 -46.5q0 -30 -16.5 -52t-39.5 -22q-16 0 -28 9.5t-12 25.5t16 36q6 6 11 14t5 14q0 16 -21 16q-27 0 -51 -42q32 -35 32 -97
q0 -36 -23 -70.5t-65.5 -56.5t-97.5 -22q-61 0 -98 -10.5t-37 -42.5q0 -35 49 -35h158q71 0 118 -34t47 -102q0 -50 -27 -92.5t-78 -68.5t-120 -26q-93 0 -157.5 33zM302 229.5q14 31.5 14 100.5t-14 100.5t-46 31.5q-33 0 -47.5 -31.5t-14.5 -100.5t14.5 -100.5t47.5 -31.5
q32 0 46 31.5zM370 -178q52 28 52 80q0 38 -42 54.5t-107 16.5q-77 0 -136 -18.5t-59 -69.5q0 -44 51.5 -67.5t119.5 -23.5q69 0 121 28z" />
    <glyph glyph-name="gdotaccent" unicode="&#x121;" horiz-adv-x="554" 
d="M203.5 565.5q-21.5 21.5 -21.5 52.5q0 32 21.5 53t52.5 21q32 0 53 -21t21 -53q0 -31 -21 -52.5t-53 -21.5q-31 0 -52.5 21.5zM106.5 -205q-64.5 33 -64.5 91q0 33 25 60.5t69 37.5v3q-30 2 -54 25t-24 57q0 95 112 117v4q-39 17 -68.5 52t-29.5 88q0 45 25.5 81t67 55.5
t89.5 19.5q82 0 139 -52h3q31 52 74 52q32 0 52 -19.5t20 -46.5q0 -30 -16.5 -52t-39.5 -22q-16 0 -28 9.5t-12 25.5t16 36q6 6 11 14t5 14q0 16 -21 16q-27 0 -51 -42q32 -35 32 -97q0 -36 -23 -70.5t-65.5 -56.5t-97.5 -22q-61 0 -98 -10.5t-37 -42.5q0 -35 49 -35h158
q71 0 118 -34t47 -102q0 -50 -27 -92.5t-78 -68.5t-120 -26q-93 0 -157.5 33zM302 229.5q14 31.5 14 100.5t-14 100.5t-46 31.5q-33 0 -47.5 -31.5t-14.5 -100.5t14.5 -100.5t47.5 -31.5q32 0 46 31.5zM370 -178q52 28 52 80q0 38 -42 54.5t-107 16.5q-77 0 -136 -18.5
t-59 -69.5q0 -44 51.5 -67.5t119.5 -23.5q69 0 121 28z" />
    <glyph glyph-name="uni1E21" unicode="&#x1e21;" horiz-adv-x="554" 
d="M126 584v64h260v-64h-260zM106.5 -205q-64.5 33 -64.5 91q0 33 25 60.5t69 37.5v3q-30 2 -54 25t-24 57q0 95 112 117v4q-39 17 -68.5 52t-29.5 88q0 45 25.5 81t67 55.5t89.5 19.5q82 0 139 -52h3q31 52 74 52q32 0 52 -19.5t20 -46.5q0 -30 -16.5 -52t-39.5 -22
q-16 0 -28 9.5t-12 25.5t16 36q6 6 11 14t5 14q0 16 -21 16q-27 0 -51 -42q32 -35 32 -97q0 -36 -23 -70.5t-65.5 -56.5t-97.5 -22q-61 0 -98 -10.5t-37 -42.5q0 -35 49 -35h158q71 0 118 -34t47 -102q0 -50 -27 -92.5t-78 -68.5t-120 -26q-93 0 -157.5 33zM302 229.5
q14 31.5 14 100.5t-14 100.5t-46 31.5q-33 0 -47.5 -31.5t-14.5 -100.5t14.5 -100.5t47.5 -31.5q32 0 46 31.5zM370 -178q52 28 52 80q0 38 -42 54.5t-107 16.5q-77 0 -136 -18.5t-59 -69.5q0 -44 51.5 -67.5t119.5 -23.5q69 0 121 28z" />
    <glyph glyph-name="h" unicode="h" horiz-adv-x="560" 
d="M26 24h56q9 0 12.5 3.5t3.5 12.5v632q0 9 -3.5 12.5t-12.5 3.5h-56v24h188v-327l5 -1q20 47 51.5 74.5t72.5 27.5q25 0 43 -5.5t34 -16.5q25 -18 39.5 -50t14.5 -66v-308q0 -9 3.5 -12.5t12.5 -3.5h38v-24h-218v24h32q9 0 12.5 3.5t3.5 12.5v337q0 77 -46 77
q-21 0 -44 -28t-38.5 -74t-15.5 -98v-214q0 -9 3.5 -12.5t12.5 -3.5h32v-24h-236v24z" />
    <glyph glyph-name="hbar" unicode="&#x127;" horiz-adv-x="560" 
d="M26 24h56q9 0 12.5 3.5t3.5 12.5v524h-72v28h72v80q0 9 -3.5 12.5t-12.5 3.5h-56v24h188v-120h168v-28h-168v-179l5 -1q20 47 51.5 74.5t72.5 27.5q25 0 43 -5.5t34 -16.5q25 -18 39.5 -50t14.5 -66v-308q0 -9 3.5 -12.5t12.5 -3.5h38v-24h-218v24h32q9 0 12.5 3.5
t3.5 12.5v337q0 77 -46 77q-21 0 -44 -28t-38.5 -74t-15.5 -98v-214q0 -9 3.5 -12.5t12.5 -3.5h32v-24h-236v24z" />
    <glyph glyph-name="uni1E2B" unicode="&#x1e2b;" horiz-adv-x="560" 
d="M26 24h56q9 0 12.5 3.5t3.5 12.5v632q0 9 -3.5 12.5t-12.5 3.5h-56v24h188v-327l5 -1q20 47 51.5 74.5t72.5 27.5q25 0 43 -5.5t34 -16.5q25 -18 39.5 -50t14.5 -66v-308q0 -9 3.5 -12.5t12.5 -3.5h38v-24h-218v24h32q9 0 12.5 3.5t3.5 12.5v337q0 77 -46 77
q-21 0 -44 -28t-38.5 -74t-15.5 -98v-214q0 -9 3.5 -12.5t12.5 -3.5h32v-24h-236v24zM175 -165q-37 43 -43 111h28q8 -40 36.5 -63t75.5 -23t75.5 23t36.5 63h28q-6 -68 -43 -111t-97 -43t-97 43z" />
    <glyph glyph-name="hcircumflex" unicode="&#x125;" horiz-adv-x="560" 
d="M120 756q50 32 74.5 71.5t41.5 88.5h68q17 -49 41.5 -88.5t74.5 -71.5l-16 -24q-35 17 -72.5 44t-61.5 52q-24 -25 -61.5 -52t-72.5 -44zM26 24h56q9 0 12.5 3.5t3.5 12.5v632q0 9 -3.5 12.5t-12.5 3.5h-56v24h188v-327l5 -1q20 47 51.5 74.5t72.5 27.5q25 0 43 -5.5
t34 -16.5q25 -18 39.5 -50t14.5 -66v-308q0 -9 3.5 -12.5t12.5 -3.5h38v-24h-218v24h32q9 0 12.5 3.5t3.5 12.5v337q0 77 -46 77q-21 0 -44 -28t-38.5 -74t-15.5 -98v-214q0 -9 3.5 -12.5t12.5 -3.5h32v-24h-236v24z" />
    <glyph glyph-name="uni1E25" unicode="&#x1e25;" horiz-adv-x="560" 
d="M26 24h56q9 0 12.5 3.5t3.5 12.5v632q0 9 -3.5 12.5t-12.5 3.5h-56v24h188v-327l5 -1q20 47 51.5 74.5t72.5 27.5q25 0 43 -5.5t34 -16.5q25 -18 39.5 -50t14.5 -66v-308q0 -9 3.5 -12.5t12.5 -3.5h38v-24h-218v24h32q9 0 12.5 3.5t3.5 12.5v337q0 77 -46 77
q-21 0 -44 -28t-38.5 -74t-15.5 -98v-214q0 -9 3.5 -12.5t12.5 -3.5h32v-24h-236v24zM219.5 -183q-21.5 21 -21.5 53q0 31 21.5 52.5t52.5 21.5q32 0 53 -21.5t21 -52.5q0 -32 -21 -53t-53 -21q-31 0 -52.5 21z" />
    <glyph glyph-name="i" unicode="i" horiz-adv-x="296" 
d="M95.5 597.5q-21.5 21.5 -21.5 52.5q0 32 21.5 53t52.5 21q32 0 53 -21t21 -53q0 -31 -21 -52.5t-53 -21.5q-31 0 -52.5 21.5zM40 24h38q9 0 12.5 3.5t3.5 12.5v394q0 9 -3.5 12.5t-12.5 3.5h-38v24h170v-434q0 -9 3.5 -12.5t12.5 -3.5h38v-24h-224v24z" />
    <glyph glyph-name="dotlessi" unicode="&#x131;" horiz-adv-x="296" 
d="M40 24h38q9 0 12.5 3.5t3.5 12.5v394q0 9 -3.5 12.5t-12.5 3.5h-38v24h170v-434q0 -9 3.5 -12.5t12.5 -3.5h38v-24h-224v24z" />
    <glyph glyph-name="iacute" unicode="&#xed;" horiz-adv-x="296" 
d="M104 542l89 138q11 18 23 25t26 7q18 0 30 -11t12 -29q0 -27 -28 -48l-132 -100zM40 24h38q9 0 12.5 3.5t3.5 12.5v394q0 9 -3.5 12.5t-12.5 3.5h-38v24h170v-434q0 -9 3.5 -12.5t12.5 -3.5h38v-24h-224v24z" />
    <glyph glyph-name="ibreve" unicode="&#x12d;" horiz-adv-x="296" 
d="M51 583q-37 43 -43 111h28q8 -40 36.5 -63t75.5 -23t75.5 23t36.5 63h28q-6 -68 -43 -111t-97 -43t-97 43zM46 24h38q9 0 12.5 3.5t3.5 12.5v394q0 9 -3.5 12.5t-12.5 3.5h-38v24h170v-434q0 -9 3.5 -12.5t12.5 -3.5h38v-24h-224v24z" />
    <glyph glyph-name="icircumflex" unicode="&#xee;" horiz-adv-x="296" 
d="M-2 548q50 32 74.5 71.5t41.5 88.5h68q17 -49 41.5 -88.5t74.5 -71.5l-16 -24q-35 17 -72.5 44t-61.5 52q-24 -25 -61.5 -52t-72.5 -44zM40 24h38q9 0 12.5 3.5t3.5 12.5v394q0 9 -3.5 12.5t-12.5 3.5h-38v24h170v-434q0 -9 3.5 -12.5t12.5 -3.5h38v-24h-224v24z" />
    <glyph glyph-name="uni0209" unicode="&#x209;" horiz-adv-x="296" 
d="M-31 648q-27 21 -27 46q0 16 11 27t29 11q28 0 47 -32l85 -138l-20 -18zM103 648q-27 21 -27 46q0 16 11.5 27t28.5 11q28 0 47 -32l85 -138l-20 -18zM40 24h38q9 0 12.5 3.5t3.5 12.5v394q0 9 -3.5 12.5t-12.5 3.5h-38v24h170v-434q0 -9 3.5 -12.5t12.5 -3.5h38v-24
h-224v24z" />
    <glyph glyph-name="idieresis" unicode="&#xef;" horiz-adv-x="296" 
d="M23.5 575.5q-17.5 17.5 -17.5 42.5t17.5 42.5t42.5 17.5t42.5 -17.5t17.5 -42.5t-17.5 -42.5t-42.5 -17.5t-42.5 17.5zM187.5 575.5q-17.5 17.5 -17.5 42.5t17.5 42.5t42.5 17.5t42.5 -17.5t17.5 -42.5t-17.5 -42.5t-42.5 -17.5t-42.5 17.5zM40 24h38q9 0 12.5 3.5
t3.5 12.5v394q0 9 -3.5 12.5t-12.5 3.5h-38v24h170v-434q0 -9 3.5 -12.5t12.5 -3.5h38v-24h-224v24z" />
    <glyph glyph-name="uni1E2F" unicode="&#x1e2f;" horiz-adv-x="296" 
d="M104 658l89 138q11 18 23 25t26 7q18 0 30 -11t12 -29q0 -27 -28 -48l-132 -100zM23.5 531.5q-17.5 17.5 -17.5 42.5t17.5 42.5t42.5 17.5t42.5 -17.5t17.5 -42.5t-17.5 -42.5t-42.5 -17.5t-42.5 17.5zM187.5 531.5q-17.5 17.5 -17.5 42.5t17.5 42.5t42.5 17.5
t42.5 -17.5t17.5 -42.5t-17.5 -42.5t-42.5 -17.5t-42.5 17.5zM40 24h38q9 0 12.5 3.5t3.5 12.5v394q0 9 -3.5 12.5t-12.5 3.5h-38v24h170v-434q0 -9 3.5 -12.5t12.5 -3.5h38v-24h-224v24z" />
    <glyph glyph-name="uni1ECB" unicode="&#x1ecb;" horiz-adv-x="296" 
d="M95.5 597.5q-21.5 21.5 -21.5 52.5q0 32 21.5 53t52.5 21q32 0 53 -21t21 -53q0 -31 -21 -52.5t-53 -21.5q-31 0 -52.5 21.5zM40 24h38q9 0 12.5 3.5t3.5 12.5v394q0 9 -3.5 12.5t-12.5 3.5h-38v24h170v-434q0 -9 3.5 -12.5t12.5 -3.5h38v-24h-224v24zM95 -183
q-21 21 -21 53q0 31 21 52.5t53 21.5q31 0 52.5 -21.5t21.5 -52.5q0 -32 -21.5 -53t-52.5 -21q-32 0 -53 21z" />
    <glyph glyph-name="igrave" unicode="&#xec;" horiz-adv-x="296" 
d="M40 624q-28 21 -28 48q0 18 12 29t30 11q14 0 26 -7t23 -25l89 -138l-20 -18zM40 24h38q9 0 12.5 3.5t3.5 12.5v394q0 9 -3.5 12.5t-12.5 3.5h-38v24h170v-434q0 -9 3.5 -12.5t12.5 -3.5h38v-24h-224v24z" />
    <glyph glyph-name="uni1EC9" unicode="&#x1ec9;" horiz-adv-x="296" 
d="M40 24h38q9 0 12.5 3.5t3.5 12.5v394q0 9 -3.5 12.5t-12.5 3.5h-38v24h170v-434q0 -9 3.5 -12.5t12.5 -3.5h38v-24h-224v24zM165 597q14 12 20.5 26t6.5 32q0 24 -13.5 40t-40.5 16q-21 0 -37.5 -11t-16.5 -25q0 -10 3.5 -11t8.5 0q3 1 8 1q21 0 21 -22q0 -9 -8.5 -15.5
t-21.5 -6.5q-14 0 -28 11t-14 29q0 37 26.5 56t59.5 19q42 0 73 -19t31 -62q0 -27 -17 -46t-51 -43h-45z" />
    <glyph glyph-name="uni020B" unicode="&#x20b;" horiz-adv-x="296" 
d="M10 550q17 59 54 103.5t84 44.5t84 -44.5t54 -103.5l-22 -8q-38 80 -116 80t-116 -80zM40 24h38q9 0 12.5 3.5t3.5 12.5v394q0 9 -3.5 12.5t-12.5 3.5h-38v24h170v-434q0 -9 3.5 -12.5t12.5 -3.5h38v-24h-224v24z" />
    <glyph glyph-name="imacron" unicode="&#x12b;" horiz-adv-x="296" 
d="M18 584v64h260v-64h-260zM46 24h38q9 0 12.5 3.5t3.5 12.5v394q0 9 -3.5 12.5t-12.5 3.5h-38v24h170v-434q0 -9 3.5 -12.5t12.5 -3.5h38v-24h-224v24z" />
    <glyph glyph-name="iogonek" unicode="&#x12f;" horiz-adv-x="296" 
d="M95.5 597.5q-21.5 21.5 -21.5 52.5q0 32 21.5 53t52.5 21q32 0 53 -21t21 -53q0 -31 -21 -52.5t-53 -21.5q-31 0 -52.5 21.5zM124.5 -198.5q-24.5 21.5 -24.5 56.5q0 40 29.5 74.5t78.5 65.5l-1 2h-167v24h38q9 0 12.5 3.5t3.5 12.5v394q0 9 -3.5 12.5t-12.5 3.5h-38v24
h170v-434q0 -9 3.5 -12.5t12.5 -3.5h38v-24h-16q-43 -32 -61.5 -58.5t-18.5 -64.5q0 -20 11.5 -30.5t30.5 -10.5q18 0 29 7.5t23 24.5l20 -14q-14 -32 -41 -53t-58 -21q-34 0 -58.5 21.5z" />
    <glyph glyph-name="itilde" unicode="&#x129;" horiz-adv-x="296" 
d="M11 614q11 25 31 41.5t46 16.5q22 0 39 -5t43 -16q35 -15 64 -15q33 0 40 40h22q0 -25 -11 -50t-31 -41.5t-46 -16.5q-22 0 -39 5t-43 16q-35 15 -64 15q-33 0 -40 -40h-22q0 25 11 50zM46 24h38q9 0 12.5 3.5t3.5 12.5v394q0 9 -3.5 12.5t-12.5 3.5h-38v24h170v-434
q0 -9 3.5 -12.5t12.5 -3.5h38v-24h-224v24z" />
    <glyph glyph-name="j" unicode="j" horiz-adv-x="320" 
d="M125.5 597.5q-21.5 21.5 -21.5 52.5q0 32 21.5 53t52.5 21q32 0 53 -21t21 -53q0 -31 -21 -52.5t-53 -21.5q-31 0 -52.5 21.5zM-15.5 -206.5q-36.5 31.5 -36.5 80.5q0 34 22.5 56.5t51.5 22.5q23 0 41 -14t18 -39q0 -31 -28 -56q-17 -15 -17 -32q0 -14 11.5 -20t25.5 -6
q23 0 35 28.5t12 103.5v516q0 9 -3.5 12.5t-12.5 3.5h-56v24h188v-514q0 -64 -22 -108.5t-58.5 -67t-78.5 -22.5q-56 0 -92.5 31.5z" />
    <glyph glyph-name="uni0237" unicode="&#x237;" horiz-adv-x="320" 
d="M-15.5 -206.5q-36.5 31.5 -36.5 80.5q0 34 22.5 56.5t51.5 22.5q23 0 41 -14t18 -39q0 -31 -28 -56q-17 -15 -17 -32q0 -14 11.5 -20t25.5 -6q23 0 35 28.5t12 103.5v516q0 9 -3.5 12.5t-12.5 3.5h-56v24h188v-514q0 -64 -22 -108.5t-58.5 -67t-78.5 -22.5
q-56 0 -92.5 31.5z" />
    <glyph glyph-name="jcircumflex" unicode="&#x135;" horiz-adv-x="320" 
d="M14 548q50 32 74.5 71.5t41.5 88.5h68q17 -49 41.5 -88.5t74.5 -71.5l-16 -24q-35 17 -72.5 44t-61.5 52q-24 -25 -61.5 -52t-72.5 -44zM-15.5 -206.5q-36.5 31.5 -36.5 80.5q0 34 22.5 56.5t51.5 22.5q23 0 41 -14t18 -39q0 -31 -28 -56q-17 -15 -17 -32q0 -14 11.5 -20
t25.5 -6q23 0 35 28.5t12 103.5v516q0 9 -3.5 12.5t-12.5 3.5h-56v24h188v-514q0 -64 -22 -108.5t-58.5 -67t-78.5 -22.5q-56 0 -92.5 31.5z" />
    <glyph glyph-name="k" unicode="k" horiz-adv-x="560" 
d="M26 24h56q9 0 12.5 3.5t3.5 12.5v632q0 9 -3 12.5t-13 3.5h-56v24h188v-499l130 163q20 25 20 45q0 13 -8.5 20.5t-19.5 7.5h-30v25h191v-25h-23q-24 0 -43.5 -15.5t-45.5 -49.5l-59 -74l156 -253q10 -17 18 -25t19 -8h21v-24h-231v24h18q9 0 17 5.5t8 16.5q0 24 -14 46
l-81 132l-43 -53v-131q0 -9 4 -12.5t14 -3.5h36v-24h-242v24z" />
    <glyph glyph-name="kcommaaccent" unicode="&#x137;" horiz-adv-x="560" 
d="M26 24h56q9 0 12.5 3.5t3.5 12.5v632q0 9 -3 12.5t-13 3.5h-56v24h188v-499l130 163q20 25 20 45q0 13 -8.5 20.5t-19.5 7.5h-30v25h191v-25h-23q-24 0 -43.5 -15.5t-45.5 -49.5l-59 -74l156 -253q10 -17 18 -25t19 -8h21v-24h-231v24h18q9 0 17 5.5t8 16.5q0 24 -14 46
l-81 132l-43 -53v-131q0 -9 4 -12.5t14 -3.5h36v-24h-242v24zM222 -216q33 6 53.5 20t20.5 35q0 15 -10 21q-6 4 -24 4q-17 0 -29 13.5t-12 36.5t18 38.5t39 15.5q36 0 55 -24.5t19 -56.5q0 -34 -19.5 -61.5t-48 -43.5t-56.5 -20z" />
    <glyph glyph-name="kgreenlandic" unicode="&#x138;" horiz-adv-x="560" 
d="M26 24h56q9 0 12.5 3.5t3.5 12.5v394q0 9 -3 12.5t-13 3.5h-56v24h188v-261l130 163q20 25 20 45q0 13 -8.5 20.5t-19.5 7.5h-30v25h191v-25h-23q-24 0 -43.5 -15.5t-45.5 -49.5l-59 -74l156 -253q10 -17 18 -25t19 -8h21v-24h-231v24h18q9 0 17 5.5t8 16.5q0 24 -14 46
l-81 132l-43 -53v-131q0 -9 4 -12.5t14 -3.5h36v-24h-242v24z" />
    <glyph glyph-name="l" unicode="l" horiz-adv-x="308" 
d="M26 24h56q9 0 12.5 3.5t3.5 12.5v632q0 9 -3.5 12.5t-12.5 3.5h-56v24h188v-672q0 -9 3.5 -12.5t12.5 -3.5h56v-24h-260v24z" />
    <glyph glyph-name="lacute" unicode="&#x13a;" horiz-adv-x="308" 
d="M112 780l89 138q11 18 23 25t26 7q18 0 30 -11t12 -29q0 -27 -28 -48l-132 -100zM26 24h56q9 0 12.5 3.5t3.5 12.5v632q0 9 -3.5 12.5t-12.5 3.5h-56v24h188v-672q0 -9 3.5 -12.5t12.5 -3.5h56v-24h-260v24z" />
    <glyph glyph-name="lcaron" unicode="&#x13e;" horiz-adv-x="360" 
d="M250 509q38 20 60 44.5t22 51.5q0 12 -8 19q-10 8 -25 8q-21 0 -36 13t-15 36q0 19 15.5 34t40.5 15q29 0 50.5 -23.5t21.5 -60.5q0 -50 -31.5 -91t-81.5 -65zM26 24h56q9 0 12.5 3.5t3.5 12.5v632q0 9 -3.5 12.5t-12.5 3.5h-56v24h188v-672q0 -9 3.5 -12.5t12.5 -3.5h56
v-24h-260v24z" />
    <glyph glyph-name="lcommaaccent" unicode="&#x13c;" horiz-adv-x="308" 
d="M26 24h56q9 0 12.5 3.5t3.5 12.5v632q0 9 -3.5 12.5t-12.5 3.5h-56v24h188v-672q0 -9 3.5 -12.5t12.5 -3.5h56v-24h-260v24zM88 -216q33 6 53.5 20t20.5 35q0 15 -10 21q-6 4 -24 4q-17 0 -29 13.5t-12 36.5t18 38.5t39 15.5q36 0 55 -24.5t19 -56.5q0 -34 -19.5 -61.5
t-48 -43.5t-56.5 -20z" />
    <glyph glyph-name="ldot" unicode="&#x140;" horiz-adv-x="400" 
d="M26 24h56q9 0 12.5 3.5t3.5 12.5v632q0 9 -3.5 12.5t-12.5 3.5h-56v24h188v-672q0 -9 3.5 -12.5t12.5 -3.5h56v-24h-260v24zM303.5 313.5q-21.5 21.5 -21.5 52.5q0 32 21.5 53t52.5 21q32 0 53 -21t21 -53q0 -31 -21 -52.5t-53 -21.5q-31 0 -52.5 21.5z" />
    <glyph glyph-name="uni1E37" unicode="&#x1e37;" horiz-adv-x="308" 
d="M26 24h56q9 0 12.5 3.5t3.5 12.5v632q0 9 -3.5 12.5t-12.5 3.5h-56v24h188v-672q0 -9 3.5 -12.5t12.5 -3.5h56v-24h-260v24zM103.5 -183q-21.5 21 -21.5 53q0 31 21.5 52.5t52.5 21.5q32 0 53 -21.5t21 -52.5q0 -32 -21 -53t-53 -21q-31 0 -52.5 21z" />
    <glyph glyph-name="uni01C9" unicode="&#x1c9;" horiz-adv-x="628" 
d="M433.5 597.5q-21.5 21.5 -21.5 52.5q0 32 21.5 53t52.5 21q32 0 53 -21t21 -53q0 -31 -21 -52.5t-53 -21.5q-31 0 -52.5 21.5zM26 24h56q9 0 12.5 3.5t3.5 12.5v632q0 9 -3.5 12.5t-12.5 3.5h-56v24h188v-672q0 -9 3.5 -12.5t12.5 -3.5h56v-24h-260v24zM292.5 -206.5
q-36.5 31.5 -36.5 80.5q0 34 22.5 56.5t51.5 22.5q23 0 41 -14t18 -39q0 -31 -28 -56q-17 -15 -17 -32q0 -14 11.5 -20t25.5 -6q23 0 35 28.5t12 103.5v516q0 9 -3.5 12.5t-12.5 3.5h-56v24h188v-514q0 -64 -22 -108.5t-58.5 -67t-78.5 -22.5q-56 0 -92.5 31.5z" />
    <glyph glyph-name="uni1E3B" unicode="&#x1e3b;" horiz-adv-x="308" 
d="M26 24h56q9 0 12.5 3.5t3.5 12.5v632q0 9 -3.5 12.5t-12.5 3.5h-56v24h188v-672q0 -9 3.5 -12.5t12.5 -3.5h56v-24h-260v24zM26 -164v64h260v-64h-260z" />
    <glyph glyph-name="lslash" unicode="&#x142;" horiz-adv-x="308" 
d="M26 24h56q9 0 12.5 3.5t3.5 12.5v289l-66 -32l-12 26l78 38v311q0 9 -3.5 12.5t-12.5 3.5h-56v24h188v-295l66 32l12 -26l-78 -38v-345q0 -9 3.5 -12.5t12.5 -3.5h56v-24h-260v24z" />
    <glyph glyph-name="m" unicode="m" horiz-adv-x="800" 
d="M40 24h38q9 0 12.5 3.5t3.5 12.5v394q0 9 -3.5 12.5t-12.5 3.5h-38v24h170v-99l5 -1q45 112 125 112q62 0 86.5 -31t33.5 -79h5q18 51 49.5 80.5t68.5 29.5q25 0 43 -5.5t34 -16.5q25 -18 39.5 -50t14.5 -66v-308q0 -9 3.5 -12.5t12.5 -3.5h38v-24h-218v24h32
q9 0 12.5 3.5t3.5 12.5v337q0 77 -46 77q-21 0 -42 -27.5t-34.5 -74t-13.5 -98.5v-214q0 -9 3.5 -12.5t12.5 -3.5h32v-24h-212v24h32q9 0 12.5 3.5t3.5 12.5v355q0 30 -7 44.5t-31 14.5q-21 0 -44 -28t-38.5 -74t-15.5 -98v-214q0 -9 3.5 -12.5t12.5 -3.5h32v-24h-218v24z
" />
    <glyph glyph-name="uni1E43" unicode="&#x1e43;" horiz-adv-x="800" 
d="M40 24h38q9 0 12.5 3.5t3.5 12.5v394q0 9 -3.5 12.5t-12.5 3.5h-38v24h170v-99l5 -1q45 112 125 112q62 0 86.5 -31t33.5 -79h5q18 51 49.5 80.5t68.5 29.5q25 0 43 -5.5t34 -16.5q25 -18 39.5 -50t14.5 -66v-308q0 -9 3.5 -12.5t12.5 -3.5h38v-24h-218v24h32
q9 0 12.5 3.5t3.5 12.5v337q0 77 -46 77q-21 0 -42 -27.5t-34.5 -74t-13.5 -98.5v-214q0 -9 3.5 -12.5t12.5 -3.5h32v-24h-212v24h32q9 0 12.5 3.5t3.5 12.5v355q0 30 -7 44.5t-31 14.5q-21 0 -44 -28t-38.5 -74t-15.5 -98v-214q0 -9 3.5 -12.5t12.5 -3.5h32v-24h-218v24z
M351.5 -183q-21.5 21 -21.5 53q0 31 21.5 52.5t52.5 21.5q32 0 53 -21.5t21 -52.5q0 -32 -21 -53t-53 -21q-31 0 -52.5 21z" />
    <glyph glyph-name="n" unicode="n" horiz-adv-x="556" 
d="M40 24h38q9 0 12.5 3.5t3.5 12.5v394q0 9 -3.5 12.5t-12.5 3.5h-38v24h170v-89l5 -1q20 47 51.5 74.5t72.5 27.5q25 0 43 -5.5t34 -16.5q25 -18 39.5 -50t14.5 -66v-308q0 -9 3.5 -12.5t12.5 -3.5h38v-24h-218v24h32q9 0 12.5 3.5t3.5 12.5v337q0 77 -46 77
q-21 0 -44 -28t-38.5 -74t-15.5 -98v-214q0 -9 3.5 -12.5t12.5 -3.5h32v-24h-218v24z" />
    <glyph glyph-name="nacute" unicode="&#x144;" horiz-adv-x="556" 
d="M234 542l89 138q11 18 23 25t26 7q18 0 30 -11t12 -29q0 -27 -28 -48l-132 -100zM40 24h38q9 0 12.5 3.5t3.5 12.5v394q0 9 -3.5 12.5t-12.5 3.5h-38v24h170v-89l5 -1q20 47 51.5 74.5t72.5 27.5q25 0 43 -5.5t34 -16.5q25 -18 39.5 -50t14.5 -66v-308q0 -9 3.5 -12.5
t12.5 -3.5h38v-24h-218v24h32q9 0 12.5 3.5t3.5 12.5v337q0 77 -46 77q-21 0 -44 -28t-38.5 -74t-15.5 -98v-214q0 -9 3.5 -12.5t12.5 -3.5h32v-24h-218v24z" />
    <glyph glyph-name="ncaron" unicode="&#x148;" horiz-adv-x="556" 
d="M254 524l-122 154l16 16l130 -98l130 98l16 -16l-122 -154h-48zM40 24h38q9 0 12.5 3.5t3.5 12.5v394q0 9 -3.5 12.5t-12.5 3.5h-38v24h170v-89l5 -1q20 47 51.5 74.5t72.5 27.5q25 0 43 -5.5t34 -16.5q25 -18 39.5 -50t14.5 -66v-308q0 -9 3.5 -12.5t12.5 -3.5h38v-24
h-218v24h32q9 0 12.5 3.5t3.5 12.5v337q0 77 -46 77q-21 0 -44 -28t-38.5 -74t-15.5 -98v-214q0 -9 3.5 -12.5t12.5 -3.5h32v-24h-218v24z" />
    <glyph glyph-name="ncommaaccent" unicode="&#x146;" horiz-adv-x="556" 
d="M40 24h38q9 0 12.5 3.5t3.5 12.5v394q0 9 -3.5 12.5t-12.5 3.5h-38v24h170v-89l5 -1q20 47 51.5 74.5t72.5 27.5q25 0 43 -5.5t34 -16.5q25 -18 39.5 -50t14.5 -66v-308q0 -9 3.5 -12.5t12.5 -3.5h38v-24h-218v24h32q9 0 12.5 3.5t3.5 12.5v337q0 77 -46 77
q-21 0 -44 -28t-38.5 -74t-15.5 -98v-214q0 -9 3.5 -12.5t12.5 -3.5h32v-24h-218v24zM210 -216q33 6 53.5 20t20.5 35q0 15 -10 21q-6 4 -24 4q-17 0 -29 13.5t-12 36.5t18 38.5t39 15.5q36 0 55 -24.5t19 -56.5q0 -34 -19.5 -61.5t-48 -43.5t-56.5 -20z" />
    <glyph glyph-name="uni1E45" unicode="&#x1e45;" horiz-adv-x="556" 
d="M225.5 565.5q-21.5 21.5 -21.5 52.5q0 32 21.5 53t52.5 21q32 0 53 -21t21 -53q0 -31 -21 -52.5t-53 -21.5q-31 0 -52.5 21.5zM40 24h38q9 0 12.5 3.5t3.5 12.5v394q0 9 -3.5 12.5t-12.5 3.5h-38v24h170v-89l5 -1q20 47 51.5 74.5t72.5 27.5q25 0 43 -5.5t34 -16.5
q25 -18 39.5 -50t14.5 -66v-308q0 -9 3.5 -12.5t12.5 -3.5h38v-24h-218v24h32q9 0 12.5 3.5t3.5 12.5v337q0 77 -46 77q-21 0 -44 -28t-38.5 -74t-15.5 -98v-214q0 -9 3.5 -12.5t12.5 -3.5h32v-24h-218v24z" />
    <glyph glyph-name="uni1E47" unicode="&#x1e47;" horiz-adv-x="556" 
d="M40 24h38q9 0 12.5 3.5t3.5 12.5v394q0 9 -3.5 12.5t-12.5 3.5h-38v24h170v-89l5 -1q20 47 51.5 74.5t72.5 27.5q25 0 43 -5.5t34 -16.5q25 -18 39.5 -50t14.5 -66v-308q0 -9 3.5 -12.5t12.5 -3.5h38v-24h-218v24h32q9 0 12.5 3.5t3.5 12.5v337q0 77 -46 77
q-21 0 -44 -28t-38.5 -74t-15.5 -98v-214q0 -9 3.5 -12.5t12.5 -3.5h32v-24h-218v24zM215.5 -183q-21.5 21 -21.5 53q0 31 21.5 52.5t52.5 21.5q32 0 53 -21.5t21 -52.5q0 -32 -21 -53t-53 -21q-31 0 -52.5 21z" />
    <glyph glyph-name="eng" unicode="&#x14b;" horiz-adv-x="542" 
d="M197 -211q-39 27 -39 65q0 22 12.5 35t30.5 13q23 0 33 -14.5t18 -43.5q14 -54 46 -54q56 0 56 106v481q0 77 -46 77q-21 0 -44 -28t-38.5 -74t-15.5 -98v-214q0 -9 3.5 -12.5t12.5 -3.5h32v-24h-218v24h38q9 0 12.5 3.5t3.5 12.5v394q0 9 -3.5 12.5t-12.5 3.5h-38v24
h170v-89l5 -1q20 47 51.5 74.5t72.5 27.5q25 0 43 -5.5t34 -16.5q25 -18 39.5 -50t14.5 -66v-391q0 -40 -18 -85t-59 -77.5t-107 -32.5q-50 0 -89 27z" />
    <glyph glyph-name="uni01CC" unicode="&#x1cc;" horiz-adv-x="876" 
d="M681.5 597.5q-21.5 21.5 -21.5 52.5q0 32 21.5 53t52.5 21q32 0 53 -21t21 -53q0 -31 -21 -52.5t-53 -21.5q-31 0 -52.5 21.5zM40 24h38q9 0 12.5 3.5t3.5 12.5v394q0 9 -3.5 12.5t-12.5 3.5h-38v24h170v-89l5 -1q20 47 51.5 74.5t72.5 27.5q25 0 43 -5.5t34 -16.5
q25 -18 39.5 -50t14.5 -66v-308q0 -9 3.5 -12.5t12.5 -3.5h38v-24h-218v24h32q9 0 12.5 3.5t3.5 12.5v337q0 77 -46 77q-21 0 -44 -28t-38.5 -74t-15.5 -98v-214q0 -9 3.5 -12.5t12.5 -3.5h32v-24h-218v24zM540.5 -206.5q-36.5 31.5 -36.5 80.5q0 34 22.5 56.5t51.5 22.5
q23 0 41 -14t18 -39q0 -31 -28 -56q-17 -15 -17 -32q0 -14 11.5 -20t25.5 -6q23 0 35 28.5t12 103.5v516q0 9 -3.5 12.5t-12.5 3.5h-56v24h188v-514q0 -64 -22 -108.5t-58.5 -67t-78.5 -22.5q-56 0 -92.5 31.5z" />
    <glyph glyph-name="uni1E49" unicode="&#x1e49;" horiz-adv-x="556" 
d="M40 24h38q9 0 12.5 3.5t3.5 12.5v394q0 9 -3.5 12.5t-12.5 3.5h-38v24h170v-89l5 -1q20 47 51.5 74.5t72.5 27.5q25 0 43 -5.5t34 -16.5q25 -18 39.5 -50t14.5 -66v-308q0 -9 3.5 -12.5t12.5 -3.5h38v-24h-218v24h32q9 0 12.5 3.5t3.5 12.5v337q0 77 -46 77
q-21 0 -44 -28t-38.5 -74t-15.5 -98v-214q0 -9 3.5 -12.5t12.5 -3.5h32v-24h-218v24zM138 -164v64h260v-64h-260z" />
    <glyph glyph-name="ntilde" unicode="&#xf1;" horiz-adv-x="556" 
d="M141 614q11 25 31 41.5t46 16.5q22 0 39 -5t43 -16q35 -15 64 -15q33 0 40 40h22q0 -25 -11 -50t-31 -41.5t-46 -16.5q-22 0 -39 5t-43 16q-35 15 -64 15q-33 0 -40 -40h-22q0 25 11 50zM40 24h38q9 0 12.5 3.5t3.5 12.5v394q0 9 -3.5 12.5t-12.5 3.5h-38v24h170v-89
l5 -1q20 47 51.5 74.5t72.5 27.5q25 0 43 -5.5t34 -16.5q25 -18 39.5 -50t14.5 -66v-308q0 -9 3.5 -12.5t12.5 -3.5h38v-24h-218v24h32q9 0 12.5 3.5t3.5 12.5v337q0 77 -46 77q-21 0 -44 -28t-38.5 -74t-15.5 -98v-214q0 -9 3.5 -12.5t12.5 -3.5h32v-24h-218v24z" />
    <glyph glyph-name="o" unicode="o" horiz-adv-x="504" 
d="M151 20.5q-47 32.5 -75 89.5t-28 127t28 127t75 89.5t101 32.5t101 -32.5t75 -89.5t28 -127t-28 -127t-75 -89.5t-101 -32.5t-101 32.5zM311.5 65q16.5 53 16.5 172t-16.5 172t-59.5 53t-59.5 -53t-16.5 -172t16.5 -172t59.5 -53t59.5 53z" />
    <glyph glyph-name="oacute" unicode="&#xf3;" horiz-adv-x="504" 
d="M208 542l89 138q11 18 23 25t26 7q18 0 30 -11t12 -29q0 -27 -28 -48l-132 -100zM151 20.5q-47 32.5 -75 89.5t-28 127t28 127t75 89.5t101 32.5t101 -32.5t75 -89.5t28 -127t-28 -127t-75 -89.5t-101 -32.5t-101 32.5zM311.5 65q16.5 53 16.5 172t-16.5 172t-59.5 53
t-59.5 -53t-16.5 -172t16.5 -172t59.5 -53t59.5 53z" />
    <glyph glyph-name="obreve" unicode="&#x14f;" horiz-adv-x="504" 
d="M155 583q-37 43 -43 111h28q8 -40 36.5 -63t75.5 -23t75.5 23t36.5 63h28q-6 -68 -43 -111t-97 -43t-97 43zM151 20.5q-47 32.5 -75 89.5t-28 127t28 127t75 89.5t101 32.5t101 -32.5t75 -89.5t28 -127t-28 -127t-75 -89.5t-101 -32.5t-101 32.5zM311.5 65
q16.5 53 16.5 172t-16.5 172t-59.5 53t-59.5 -53t-16.5 -172t16.5 -172t59.5 -53t59.5 53z" />
    <glyph glyph-name="ocircumflex" unicode="&#xf4;" horiz-adv-x="504" 
d="M102 548q50 32 74.5 71.5t41.5 88.5h68q17 -49 41.5 -88.5t74.5 -71.5l-16 -24q-35 17 -72.5 44t-61.5 52q-24 -25 -61.5 -52t-72.5 -44zM151 20.5q-47 32.5 -75 89.5t-28 127t28 127t75 89.5t101 32.5t101 -32.5t75 -89.5t28 -127t-28 -127t-75 -89.5t-101 -32.5
t-101 32.5zM311.5 65q16.5 53 16.5 172t-16.5 172t-59.5 53t-59.5 -53t-16.5 -172t16.5 -172t59.5 -53t59.5 53z" />
    <glyph glyph-name="uni1ED1" unicode="&#x1ed1;" horiz-adv-x="504" 
d="M151 20.5q-47 32.5 -75 89.5t-28 127t28 127t75 89.5t101 32.5t101 -32.5t75 -89.5t28 -127t-28 -127t-75 -89.5t-101 -32.5t-101 32.5zM311.5 65q16.5 53 16.5 172t-16.5 172t-59.5 53t-59.5 -53t-16.5 -172t16.5 -172t59.5 -53t59.5 53zM102 548q50 32 74.5 71.5
t41.5 88.5h68q17 -49 41.5 -88.5t74.5 -71.5l-16 -24q-35 17 -72.5 44t-61.5 52q-24 -25 -61.5 -52t-72.5 -44zM375 637l89 138q11 18 23 25t26 7q18 0 30 -11t12 -29q0 -27 -28 -48l-132 -100z" />
    <glyph glyph-name="uni1ED9" unicode="&#x1ed9;" horiz-adv-x="504" 
d="M151 20.5q-47 32.5 -75 89.5t-28 127t28 127t75 89.5t101 32.5t101 -32.5t75 -89.5t28 -127t-28 -127t-75 -89.5t-101 -32.5t-101 32.5zM311.5 65q16.5 53 16.5 172t-16.5 172t-59.5 53t-59.5 -53t-16.5 -172t16.5 -172t59.5 -53t59.5 53zM199 -183q-21 21 -21 53
q0 31 21 52.5t53 21.5q31 0 52.5 -21.5t21.5 -52.5q0 -32 -21.5 -53t-52.5 -21q-32 0 -53 21zM102 548q50 32 74.5 71.5t41.5 88.5h68q17 -49 41.5 -88.5t74.5 -71.5l-16 -24q-35 17 -72.5 44t-61.5 52q-24 -25 -61.5 -52t-72.5 -44z" />
    <glyph glyph-name="uni1ED3" unicode="&#x1ed3;" horiz-adv-x="504" 
d="M151 20.5q-47 32.5 -75 89.5t-28 127t28 127t75 89.5t101 32.5t101 -32.5t75 -89.5t28 -127t-28 -127t-75 -89.5t-101 -32.5t-101 32.5zM311.5 65q16.5 53 16.5 172t-16.5 172t-59.5 53t-59.5 -53t-16.5 -172t16.5 -172t59.5 -53t59.5 53zM102 548q50 32 74.5 71.5
t41.5 88.5h68q17 -49 41.5 -88.5t74.5 -71.5l-16 -24q-35 17 -72.5 44t-61.5 52q-24 -25 -61.5 -52t-72.5 -44zM245 788q-28 21 -28 48q0 18 12 29t30 11q14 0 26 -7t23 -25l89 -138l-20 -18z" />
    <glyph glyph-name="uni1ED5" unicode="&#x1ed5;" horiz-adv-x="504" 
d="M151 20.5q-47 32.5 -75 89.5t-28 127t28 127t75 89.5t101 32.5t101 -32.5t75 -89.5t28 -127t-28 -127t-75 -89.5t-101 -32.5t-101 32.5zM311.5 65q16.5 53 16.5 172t-16.5 172t-59.5 53t-59.5 -53t-16.5 -172t16.5 -172t59.5 -53t59.5 53zM102 548q50 32 74.5 71.5
t41.5 88.5h68q17 -49 41.5 -88.5t74.5 -71.5l-16 -24q-35 17 -72.5 44t-61.5 52q-24 -25 -61.5 -52t-72.5 -44zM389 724q14 12 20.5 26t6.5 32q0 24 -13.5 40t-40.5 16q-21 0 -37.5 -11t-16.5 -25q0 -10 3.5 -11t8.5 0q3 1 8 1q21 0 21 -22q0 -9 -8.5 -15.5t-21.5 -6.5
q-14 0 -28 11t-14 29q0 37 26.5 56t59.5 19q42 0 73 -19t31 -62q0 -27 -17 -46t-51 -43h-45z" />
    <glyph glyph-name="uni1ED7" unicode="&#x1ed7;" horiz-adv-x="504" 
d="M151 20.5q-47 32.5 -75 89.5t-28 127t28 127t75 89.5t101 32.5t101 -32.5t75 -89.5t28 -127t-28 -127t-75 -89.5t-101 -32.5t-101 32.5zM311.5 65q16.5 53 16.5 172t-16.5 172t-59.5 53t-59.5 -53t-16.5 -172t16.5 -172t59.5 -53t59.5 53zM102 548q50 32 74.5 71.5
t41.5 88.5h68q17 -49 41.5 -88.5t74.5 -71.5l-16 -24q-35 17 -72.5 44t-61.5 52q-24 -25 -61.5 -52t-72.5 -44zM125 782q11 25 31 41.5t46 16.5q22 0 39 -5t43 -16q35 -15 64 -15q33 0 40 40h22q0 -25 -11 -50t-31 -41.5t-46 -16.5q-22 0 -39 5t-43 16q-35 15 -64 15
q-33 0 -40 -40h-22q0 25 11 50z" />
    <glyph glyph-name="uni020D" unicode="&#x20d;" horiz-adv-x="504" 
d="M66 628q-27 21 -27 46q0 16 11.5 27t28.5 11q28 0 47 -32l85 -138l-20 -18zM200 628q-27 21 -27 46q0 16 11.5 27t28.5 11q28 0 47 -32l85 -138l-20 -18zM151 20.5q-47 32.5 -75 89.5t-28 127t28 127t75 89.5t101 32.5t101 -32.5t75 -89.5t28 -127t-28 -127t-75 -89.5
t-101 -32.5t-101 32.5zM311.5 65q16.5 53 16.5 172t-16.5 172t-59.5 53t-59.5 -53t-16.5 -172t16.5 -172t59.5 -53t59.5 53z" />
    <glyph glyph-name="odieresis" unicode="&#xf6;" horiz-adv-x="504" 
d="M113.5 575.5q-17.5 17.5 -17.5 42.5t17.5 42.5t42.5 17.5t42.5 -17.5t17.5 -42.5t-17.5 -42.5t-42.5 -17.5t-42.5 17.5zM305.5 575.5q-17.5 17.5 -17.5 42.5t17.5 42.5t42.5 17.5t42.5 -17.5t17.5 -42.5t-17.5 -42.5t-42.5 -17.5t-42.5 17.5zM151 20.5q-47 32.5 -75 89.5
t-28 127t28 127t75 89.5t101 32.5t101 -32.5t75 -89.5t28 -127t-28 -127t-75 -89.5t-101 -32.5t-101 32.5zM311.5 65q16.5 53 16.5 172t-16.5 172t-59.5 53t-59.5 -53t-16.5 -172t16.5 -172t59.5 -53t59.5 53z" />
    <glyph glyph-name="uni1ECD" unicode="&#x1ecd;" horiz-adv-x="504" 
d="M151 20.5q-47 32.5 -75 89.5t-28 127t28 127t75 89.5t101 32.5t101 -32.5t75 -89.5t28 -127t-28 -127t-75 -89.5t-101 -32.5t-101 32.5zM311.5 65q16.5 53 16.5 172t-16.5 172t-59.5 53t-59.5 -53t-16.5 -172t16.5 -172t59.5 -53t59.5 53zM199 -183q-21 21 -21 53
q0 31 21 52.5t53 21.5q31 0 52.5 -21.5t21.5 -52.5q0 -32 -21.5 -53t-52.5 -21q-32 0 -53 21z" />
    <glyph glyph-name="ograve" unicode="&#xf2;" horiz-adv-x="504" 
d="M144 624q-28 21 -28 48q0 18 12 29t30 11q14 0 26 -7t23 -25l89 -138l-20 -18zM151 20.5q-47 32.5 -75 89.5t-28 127t28 127t75 89.5t101 32.5t101 -32.5t75 -89.5t28 -127t-28 -127t-75 -89.5t-101 -32.5t-101 32.5zM311.5 65q16.5 53 16.5 172t-16.5 172t-59.5 53
t-59.5 -53t-16.5 -172t16.5 -172t59.5 -53t59.5 53z" />
    <glyph glyph-name="uni1ECF" unicode="&#x1ecf;" horiz-adv-x="504" 
d="M151 20.5q-47 32.5 -75 89.5t-28 127t28 127t75 89.5t101 32.5t101 -32.5t75 -89.5t28 -127t-28 -127t-75 -89.5t-101 -32.5t-101 32.5zM311.5 65q16.5 53 16.5 172t-16.5 172t-59.5 53t-59.5 -53t-16.5 -172t16.5 -172t59.5 -53t59.5 53zM269 597q14 12 20.5 26t6.5 32
q0 24 -13.5 40t-40.5 16q-21 0 -37.5 -11t-16.5 -25q0 -10 3.5 -11t8.5 0q3 1 8 1q21 0 21 -22q0 -9 -8.5 -15.5t-21.5 -6.5q-14 0 -28 11t-14 29q0 37 26.5 56t59.5 19q42 0 73 -19t31 -62q0 -27 -17 -46t-51 -43h-45z" />
    <glyph glyph-name="ohorn" unicode="&#x1a1;" horiz-adv-x="504" 
d="M433 353q23 -53 23 -116q0 -70 -28 -127t-75 -89.5t-101 -32.5t-101 32.5t-75 89.5t-28 127t28 127t75 89.5t101 32.5q32 0 62 -12q31 1 44.5 7t18 24.5t3.5 62.5h84q8 -104 -94 -128q40 -34 63 -87zM311.5 65q16.5 53 16.5 172t-16.5 172t-59.5 53t-59.5 -53t-16.5 -172
t16.5 -172t59.5 -53t59.5 53z" />
    <glyph glyph-name="uni1EDB" unicode="&#x1edb;" horiz-adv-x="504" 
d="M433 353q23 -53 23 -116q0 -70 -28 -127t-75 -89.5t-101 -32.5t-101 32.5t-75 89.5t-28 127t28 127t75 89.5t101 32.5q32 0 62 -12q31 1 44.5 7t18 24.5t3.5 62.5h84q8 -104 -94 -128q40 -34 63 -87zM311.5 65q16.5 53 16.5 172t-16.5 172t-59.5 53t-59.5 -53t-16.5 -172
t16.5 -172t59.5 -53t59.5 53zM162 542l89 138q11 18 23 25t26 7q18 0 30 -11t12 -29q0 -27 -28 -48l-132 -100z" />
    <glyph glyph-name="uni1EE3" unicode="&#x1ee3;" horiz-adv-x="504" 
d="M433 353q23 -53 23 -116q0 -70 -28 -127t-75 -89.5t-101 -32.5t-101 32.5t-75 89.5t-28 127t28 127t75 89.5t101 32.5q32 0 62 -12q31 1 44.5 7t18 24.5t3.5 62.5h84q8 -104 -94 -128q40 -34 63 -87zM311.5 65q16.5 53 16.5 172t-16.5 172t-59.5 53t-59.5 -53t-16.5 -172
t16.5 -172t59.5 -53t59.5 53zM199 -183q-21 21 -21 53q0 31 21 52.5t53 21.5q31 0 52.5 -21.5t21.5 -52.5q0 -32 -21.5 -53t-52.5 -21q-32 0 -53 21z" />
    <glyph glyph-name="uni1EDD" unicode="&#x1edd;" horiz-adv-x="504" 
d="M433 353q23 -53 23 -116q0 -70 -28 -127t-75 -89.5t-101 -32.5t-101 32.5t-75 89.5t-28 127t28 127t75 89.5t101 32.5q32 0 62 -12q31 1 44.5 7t18 24.5t3.5 62.5h84q8 -104 -94 -128q40 -34 63 -87zM311.5 65q16.5 53 16.5 172t-16.5 172t-59.5 53t-59.5 -53t-16.5 -172
t16.5 -172t59.5 -53t59.5 53zM190 624q-28 21 -28 48q0 18 12 29t30 11q14 0 26 -7t23 -25l89 -138l-20 -18z" />
    <glyph glyph-name="uni1EDF" unicode="&#x1edf;" horiz-adv-x="504" 
d="M433 353q23 -53 23 -116q0 -70 -28 -127t-75 -89.5t-101 -32.5t-101 32.5t-75 89.5t-28 127t28 127t75 89.5t101 32.5q32 0 62 -12q31 1 44.5 7t18 24.5t3.5 62.5h84q8 -104 -94 -128q40 -34 63 -87zM311.5 65q16.5 53 16.5 172t-16.5 172t-59.5 53t-59.5 -53t-16.5 -172
t16.5 -172t59.5 -53t59.5 53zM269 597q14 12 20.5 26t6.5 32q0 24 -13.5 40t-40.5 16q-21 0 -37.5 -11t-16.5 -25q0 -10 3.5 -11t8.5 0q3 1 8 1q21 0 21 -22q0 -9 -8.5 -15.5t-21.5 -6.5q-14 0 -28 11t-14 29q0 37 26.5 56t59.5 19q42 0 73 -19t31 -62q0 -27 -17 -46
t-51 -43h-45z" />
    <glyph glyph-name="uni1EE1" unicode="&#x1ee1;" horiz-adv-x="504" 
d="M433 353q23 -53 23 -116q0 -70 -28 -127t-75 -89.5t-101 -32.5t-101 32.5t-75 89.5t-28 127t28 127t75 89.5t101 32.5q32 0 62 -12q31 1 44.5 7t18 24.5t3.5 62.5h84q8 -104 -94 -128q40 -34 63 -87zM311.5 65q16.5 53 16.5 172t-16.5 172t-59.5 53t-59.5 -53t-16.5 -172
t16.5 -172t59.5 -53t59.5 53zM115 614q11 25 31 41.5t46 16.5q22 0 39 -5t43 -16q35 -15 64 -15q33 0 40 40h22q0 -25 -11 -50t-31 -41.5t-46 -16.5q-22 0 -39 5t-43 16q-35 15 -64 15q-33 0 -40 -40h-22q0 25 11 50z" />
    <glyph glyph-name="ohungarumlaut" unicode="&#x151;" horiz-adv-x="504" 
d="M156 542l85 138q19 32 47 32q18 0 29 -11t11 -27q0 -25 -27 -46l-125 -104zM290 542l85 138q19 32 47 32q18 0 29 -11t11 -27q0 -25 -27 -46l-125 -104zM151 20.5q-47 32.5 -75 89.5t-28 127t28 127t75 89.5t101 32.5t101 -32.5t75 -89.5t28 -127t-28 -127t-75 -89.5
t-101 -32.5t-101 32.5zM311.5 65q16.5 53 16.5 172t-16.5 172t-59.5 53t-59.5 -53t-16.5 -172t16.5 -172t59.5 -53t59.5 53z" />
    <glyph glyph-name="uni020F" unicode="&#x20f;" horiz-adv-x="504" 
d="M114 524q17 59 54 103.5t84 44.5t84 -44.5t54 -103.5l-22 -8q-38 80 -116 80t-116 -80zM151 20.5q-47 32.5 -75 89.5t-28 127t28 127t75 89.5t101 32.5t101 -32.5t75 -89.5t28 -127t-28 -127t-75 -89.5t-101 -32.5t-101 32.5zM311.5 65q16.5 53 16.5 172t-16.5 172
t-59.5 53t-59.5 -53t-16.5 -172t16.5 -172t59.5 -53t59.5 53z" />
    <glyph glyph-name="omacron" unicode="&#x14d;" horiz-adv-x="504" 
d="M122 584v64h260v-64h-260zM151 20.5q-47 32.5 -75 89.5t-28 127t28 127t75 89.5t101 32.5t101 -32.5t75 -89.5t28 -127t-28 -127t-75 -89.5t-101 -32.5t-101 32.5zM311.5 65q16.5 53 16.5 172t-16.5 172t-59.5 53t-59.5 -53t-16.5 -172t16.5 -172t59.5 -53t59.5 53z" />
    <glyph glyph-name="uni1E53" unicode="&#x1e53;" horiz-adv-x="504" 
d="M208 658l89 138q11 18 23 25t26 7q18 0 30 -11t12 -29q0 -27 -28 -48l-132 -100zM122 540v64h260v-64h-260zM151 20.5q-47 32.5 -75 89.5t-28 127t28 127t75 89.5t101 32.5t101 -32.5t75 -89.5t28 -127t-28 -127t-75 -89.5t-101 -32.5t-101 32.5zM311.5 65
q16.5 53 16.5 172t-16.5 172t-59.5 53t-59.5 -53t-16.5 -172t16.5 -172t59.5 -53t59.5 53z" />
    <glyph glyph-name="uni1E51" unicode="&#x1e51;" horiz-adv-x="504" 
d="M144 740q-28 21 -28 48q0 18 12 29t30 11q14 0 26 -7t23 -25l89 -138l-20 -18zM122 540v64h260v-64h-260zM151 20.5q-47 32.5 -75 89.5t-28 127t28 127t75 89.5t101 32.5t101 -32.5t75 -89.5t28 -127t-28 -127t-75 -89.5t-101 -32.5t-101 32.5zM311.5 65
q16.5 53 16.5 172t-16.5 172t-59.5 53t-59.5 -53t-16.5 -172t16.5 -172t59.5 -53t59.5 53z" />
    <glyph glyph-name="uni01EB" unicode="&#x1eb;" horiz-adv-x="504" 
d="M164.5 -198.5q-24.5 21.5 -24.5 56.5q0 67 94 128l-1 3q-51 6 -93 40t-67 88.5t-25 119.5q0 70 28 127t75 89.5t101 32.5t101 -32.5t75 -89.5t28 -127q0 -93 -46.5 -158.5t-119.5 -88.5q-37 -11 -59.5 -42t-22.5 -71q0 -20 11.5 -30.5t30.5 -10.5q18 0 29 7.5t23 24.5
l20 -14q-14 -32 -41 -53t-58 -21q-34 0 -58.5 21.5zM311.5 65q16.5 53 16.5 172t-16.5 172t-59.5 53t-59.5 -53t-16.5 -172t16.5 -172t59.5 -53t59.5 53z" />
    <glyph glyph-name="oslash" unicode="&#xf8;" horiz-adv-x="504" 
d="M48 6l52 65q-52 70 -52 166q0 70 28 127t75 89.5t101 32.5q37 0 71.5 -15.5t61.5 -44.5l49 60l22 -18l-52 -65q52 -70 52 -166q0 -70 -28 -127t-75 -89.5t-101 -32.5q-37 0 -71.5 15.5t-61.5 44.5l-49 -60zM323 348q-6 59 -22.5 86.5t-48.5 27.5q-44 0 -60 -52.5
t-16 -172.5q0 -49 1 -70zM311.5 65q16.5 53 16.5 172q0 49 -1 70l-147 -182q6 -58 23 -85.5t49 -27.5q43 0 59.5 53z" />
    <glyph glyph-name="oslashacute" unicode="&#x1ff;" horiz-adv-x="504" 
d="M208 542l89 138q11 18 23 25t26 7q18 0 30 -11t12 -29q0 -27 -28 -48l-132 -100zM48 6l52 65q-52 70 -52 166q0 70 28 127t75 89.5t101 32.5q37 0 71.5 -15.5t61.5 -44.5l49 60l22 -18l-52 -65q52 -70 52 -166q0 -70 -28 -127t-75 -89.5t-101 -32.5q-37 0 -71.5 15.5
t-61.5 44.5l-49 -60zM323 348q-6 59 -22.5 86.5t-48.5 27.5q-44 0 -60 -52.5t-16 -172.5q0 -49 1 -70zM311.5 65q16.5 53 16.5 172q0 49 -1 70l-147 -182q6 -58 23 -85.5t49 -27.5q43 0 59.5 53z" />
    <glyph glyph-name="otilde" unicode="&#xf5;" horiz-adv-x="504" 
d="M115 614q11 25 31 41.5t46 16.5q22 0 39 -5t43 -16q35 -15 64 -15q33 0 40 40h22q0 -25 -11 -50t-31 -41.5t-46 -16.5q-22 0 -39 5t-43 16q-35 15 -64 15q-33 0 -40 -40h-22q0 25 11 50zM151 20.5q-47 32.5 -75 89.5t-28 127t28 127t75 89.5t101 32.5t101 -32.5t75 -89.5
t28 -127t-28 -127t-75 -89.5t-101 -32.5t-101 32.5zM311.5 65q16.5 53 16.5 172t-16.5 172t-59.5 53t-59.5 -53t-16.5 -172t16.5 -172t59.5 -53t59.5 53z" />
    <glyph glyph-name="uni1E4D" unicode="&#x1e4d;" horiz-adv-x="504" 
d="M208 674l89 138q11 18 23 25t26 7q18 0 30 -11t12 -29q0 -27 -28 -48l-132 -100zM115 570q11 25 31 41.5t46 16.5q22 0 39 -5t43 -16q35 -15 64 -15q33 0 40 40h22q0 -25 -11 -50t-31 -41.5t-46 -16.5q-22 0 -39 5t-43 16q-35 15 -64 15q-33 0 -40 -40h-22q0 25 11 50z
M151 20.5q-47 32.5 -75 89.5t-28 127t28 127t75 89.5t101 32.5t101 -32.5t75 -89.5t28 -127t-28 -127t-75 -89.5t-101 -32.5t-101 32.5zM311.5 65q16.5 53 16.5 172t-16.5 172t-59.5 53t-59.5 -53t-16.5 -172t16.5 -172t59.5 -53t59.5 53z" />
    <glyph glyph-name="uni1E4F" unicode="&#x1e4f;" horiz-adv-x="504" 
d="M113.5 681.5q-17.5 17.5 -17.5 42.5t17.5 42.5t42.5 17.5t42.5 -17.5t17.5 -42.5t-17.5 -42.5t-42.5 -17.5t-42.5 17.5zM305.5 681.5q-17.5 17.5 -17.5 42.5t17.5 42.5t42.5 17.5t42.5 -17.5t17.5 -42.5t-17.5 -42.5t-42.5 -17.5t-42.5 17.5zM115 576q11 25 31 41.5
t46 16.5q22 0 39 -5t43 -16q35 -15 64 -15q33 0 40 40h22q0 -25 -11 -50t-31 -41.5t-46 -16.5q-22 0 -39 5t-43 16q-35 15 -64 15q-33 0 -40 -40h-22q0 25 11 50zM151 20.5q-47 32.5 -75 89.5t-28 127t28 127t75 89.5t101 32.5t101 -32.5t75 -89.5t28 -127t-28 -127
t-75 -89.5t-101 -32.5t-101 32.5zM311.5 65q16.5 53 16.5 172t-16.5 172t-59.5 53t-59.5 -53t-16.5 -172t16.5 -172t59.5 -53t59.5 53z" />
    <glyph glyph-name="oe" unicode="&#x153;" horiz-adv-x="740" 
d="M145.5 21.5q-45.5 33.5 -71.5 90.5t-26 125t26 125t71.5 90.5t100.5 33.5q78 0 132 -65h4q27 32 62 48.5t74 16.5q61 0 105 -43.5t58 -114.5q7 -32 7 -100h-244q0 -48 2 -75.5t9 -53.5q9 -37 34.5 -59t59.5 -22q49 0 79 43t36 101h26q-6 -69 -45 -121.5t-116 -52.5
q-89 0 -146 66h-4q-26 -32 -60 -49t-73 -17q-55 0 -100.5 33.5zM302 68q14 56 14 169t-14 169t-56 56t-56 -55.5t-14 -169.5t14 -169.5t56 -55.5t56 56zM572 256q0 105 -13.5 155.5t-50.5 50.5t-50.5 -50.5t-13.5 -155.5h128z" />
    <glyph glyph-name="p" unicode="p" horiz-adv-x="544" 
d="M28 -204h56q9 0 12.5 3.5t3.5 12.5v622q0 9 -3.5 12.5t-12.5 3.5h-56v24h188v-58h6q13 28 37.5 49t56.5 21q52 0 93 -35.5t64 -93t23 -120.5q0 -64 -22 -121t-62 -92.5t-92 -35.5q-32 0 -57 19t-41 52l-6 -2v-245q0 -9 3.5 -12.5t12.5 -3.5h56v-24h-260v24zM368 237
q0 217 -66 217q-23 0 -42.5 -28.5t-31.5 -77.5t-12 -108q0 -72 14 -122t34 -74t38 -24q66 0 66 217z" />
    <glyph glyph-name="thorn" unicode="&#xfe;" horiz-adv-x="524" 
d="M20 -209l60 31q12 7 12 28v734q0 18 -10 18q-3 0 -11 -4l-36 -19l-15 29l144 76h44v-287l5 -2q33 51 70 71t81 20q49 0 81.5 -34t32.5 -94q0 -62 -42 -135.5t-113 -131.5q-29 -24 -55 -40t-60 -33v-167l-173 -89zM246 67q12 8 32 27q78 74 78 272q0 76 -45 76
q-20 0 -44.5 -22t-41.5 -65t-17 -102v-208q26 14 38 22z" />
    <glyph glyph-name="q" unicode="q" horiz-adv-x="524" 
d="M256 -204h56q9 0 12.5 3.5t3.5 12.5v245l-6 2q-16 -33 -41 -52t-57 -19q-52 0 -92 35.5t-62 92.5t-22 121q0 63 23 120.5t64 93t93 35.5q36 0 60.5 -18t43.5 -47q12 -19 20 -26t19 -7q17 0 29 28l28 58h16v-662q0 -9 3.5 -12.5t12.5 -3.5h38v-24h-242v24zM280 44
q20 24 34 74t14 122q0 59 -12 108t-31.5 77.5t-42.5 28.5q-66 0 -66 -217t66 -217q18 0 38 24z" />
    <glyph glyph-name="r" unicode="r" horiz-adv-x="434" 
d="M40 24h38q9 0 12.5 3.5t3.5 12.5v394q0 9 -3.5 12.5t-12.5 3.5h-38v24h170v-99l5 -1q16 46 45.5 79t65.5 33t59 -26t23 -66q0 -37 -21 -63.5t-52 -26.5q-27 0 -46 16.5t-19 40.5t24 52q14 16 14 23q0 10 -11 10q-20 0 -40.5 -29t-33.5 -76t-13 -100v-201q0 -9 3.5 -12.5
t12.5 -3.5h32v-24h-218v24z" />
    <glyph glyph-name="racute" unicode="&#x155;" horiz-adv-x="434" 
d="M194 542l89 138q11 18 23 25t26 7q18 0 30 -11t12 -29q0 -27 -28 -48l-132 -100zM40 24h38q9 0 12.5 3.5t3.5 12.5v394q0 9 -3.5 12.5t-12.5 3.5h-38v24h170v-99l5 -1q16 46 45.5 79t65.5 33t59 -26t23 -66q0 -37 -21 -63.5t-52 -26.5q-27 0 -46 16.5t-19 40.5t24 52
q14 16 14 23q0 10 -11 10q-20 0 -40.5 -29t-33.5 -76t-13 -100v-201q0 -9 3.5 -12.5t12.5 -3.5h32v-24h-218v24z" />
    <glyph glyph-name="rcaron" unicode="&#x159;" horiz-adv-x="434" 
d="M214 524l-122 154l16 16l130 -98l130 98l16 -16l-122 -154h-48zM40 24h38q9 0 12.5 3.5t3.5 12.5v394q0 9 -3.5 12.5t-12.5 3.5h-38v24h170v-99l5 -1q16 46 45.5 79t65.5 33t59 -26t23 -66q0 -37 -21 -63.5t-52 -26.5q-27 0 -46 16.5t-19 40.5t24 52q14 16 14 23
q0 10 -11 10q-20 0 -40.5 -29t-33.5 -76t-13 -100v-201q0 -9 3.5 -12.5t12.5 -3.5h32v-24h-218v24z" />
    <glyph glyph-name="rcommaaccent" unicode="&#x157;" horiz-adv-x="434" 
d="M40 24h38q9 0 12.5 3.5t3.5 12.5v394q0 9 -3.5 12.5t-12.5 3.5h-38v24h170v-99l5 -1q16 46 45.5 79t65.5 33t59 -26t23 -66q0 -37 -21 -63.5t-52 -26.5q-27 0 -46 16.5t-19 40.5t24 52q14 16 14 23q0 10 -11 10q-20 0 -40.5 -29t-33.5 -76t-13 -100v-201q0 -9 3.5 -12.5
t12.5 -3.5h32v-24h-218v24zM84 -216q33 6 53.5 20t20.5 35q0 15 -10 21q-6 4 -24 4q-17 0 -29 13.5t-12 36.5t18 38.5t39 15.5q36 0 55 -24.5t19 -56.5q0 -34 -19.5 -61.5t-48 -43.5t-56.5 -20z" />
    <glyph glyph-name="uni0211" unicode="&#x211;" horiz-adv-x="434" 
d="M53 628q-27 21 -27 46q0 16 11.5 27t28.5 11q28 0 47 -32l85 -138l-20 -18zM187 628q-27 21 -27 46q0 16 11.5 27t28.5 11q28 0 47 -32l85 -138l-20 -18zM40 24h38q9 0 12.5 3.5t3.5 12.5v394q0 9 -3.5 12.5t-12.5 3.5h-38v24h170v-99l5 -1q16 46 45.5 79t65.5 33t59 -26
t23 -66q0 -37 -21 -63.5t-52 -26.5q-27 0 -46 16.5t-19 40.5t24 52q14 16 14 23q0 10 -11 10q-20 0 -40.5 -29t-33.5 -76t-13 -100v-201q0 -9 3.5 -12.5t12.5 -3.5h32v-24h-218v24z" />
    <glyph glyph-name="uni1E5B" unicode="&#x1e5b;" horiz-adv-x="434" 
d="M40 24h38q9 0 12.5 3.5t3.5 12.5v394q0 9 -3.5 12.5t-12.5 3.5h-38v24h170v-99l5 -1q16 46 45.5 79t65.5 33t59 -26t23 -66q0 -37 -21 -63.5t-52 -26.5q-27 0 -46 16.5t-19 40.5t24 52q14 16 14 23q0 10 -11 10q-20 0 -40.5 -29t-33.5 -76t-13 -100v-201q0 -9 3.5 -12.5
t12.5 -3.5h32v-24h-218v24zM99.5 -183q-21.5 21 -21.5 53q0 31 21.5 52.5t52.5 21.5q32 0 53 -21.5t21 -52.5q0 -32 -21 -53t-53 -21q-31 0 -52.5 21z" />
    <glyph glyph-name="uni0213" unicode="&#x213;" horiz-adv-x="434" 
d="M100 524q17 59 54 103.5t84 44.5t84 -44.5t54 -103.5l-22 -8q-38 80 -116 80t-116 -80zM40 24h38q9 0 12.5 3.5t3.5 12.5v394q0 9 -3.5 12.5t-12.5 3.5h-38v24h170v-99l5 -1q16 46 45.5 79t65.5 33t59 -26t23 -66q0 -37 -21 -63.5t-52 -26.5q-27 0 -46 16.5t-19 40.5
t24 52q14 16 14 23q0 10 -11 10q-20 0 -40.5 -29t-33.5 -76t-13 -100v-201q0 -9 3.5 -12.5t12.5 -3.5h32v-24h-218v24z" />
    <glyph glyph-name="uni1E5F" unicode="&#x1e5f;" horiz-adv-x="434" 
d="M40 24h38q9 0 12.5 3.5t3.5 12.5v394q0 9 -3.5 12.5t-12.5 3.5h-38v24h170v-99l5 -1q16 46 45.5 79t65.5 33t59 -26t23 -66q0 -37 -21 -63.5t-52 -26.5q-27 0 -46 16.5t-19 40.5t24 52q14 16 14 23q0 10 -11 10q-20 0 -40.5 -29t-33.5 -76t-13 -100v-201q0 -9 3.5 -12.5
t12.5 -3.5h32v-24h-218v24zM22 -164v64h260v-64h-260z" />
    <glyph glyph-name="s" unicode="s" horiz-adv-x="430" 
d="M58 186h22l45 -79q54 -95 136 -95q37 0 55 18.5t18 41.5q0 20 -10.5 34.5t-36 30t-78.5 41.5q-64 31 -107.5 70t-43.5 102q0 62 39 99t95 37q47 0 100 -34q19 -12 30 -12q12 0 16 16l6 20h18v-160h-22l-19 38q-27 54 -62 81t-71 27q-27 0 -44.5 -13t-17.5 -42
q0 -59 106 -109q65 -31 99.5 -55t50.5 -52t16 -69q0 -62 -39.5 -98t-98.5 -36q-50 0 -104 32q-24 16 -36 16q-13 0 -23 -7.5t-14 -19.5l-7 -21h-18v198z" />
    <glyph glyph-name="sacute" unicode="&#x15b;" horiz-adv-x="430" 
d="M168 542l89 138q11 18 23 25t26 7q18 0 30 -11t12 -29q0 -27 -28 -48l-132 -100zM58 186h22l45 -79q54 -95 136 -95q37 0 55 18.5t18 41.5q0 20 -10.5 34.5t-36 30t-78.5 41.5q-64 31 -107.5 70t-43.5 102q0 62 39 99t95 37q47 0 100 -34q19 -12 30 -12q12 0 16 16l6 20
h18v-160h-22l-19 38q-27 54 -62 81t-71 27q-27 0 -44.5 -13t-17.5 -42q0 -59 106 -109q65 -31 99.5 -55t50.5 -52t16 -69q0 -62 -39.5 -98t-98.5 -36q-50 0 -104 32q-24 16 -36 16q-13 0 -23 -7.5t-14 -19.5l-7 -21h-18v198z" />
    <glyph glyph-name="uni1E65" unicode="&#x1e65;" horiz-adv-x="430" 
d="M143 689q-19 19 -19 49t19 49t49 19t49 -19t19 -49t-19 -49t-49 -19t-49 19zM178 542l89 138q11 18 23 25t26 7q18 0 30 -11t12 -29q0 -27 -28 -48l-132 -100zM58 186h22l45 -79q54 -95 136 -95q37 0 55 18.5t18 41.5q0 20 -10.5 34.5t-36 30t-78.5 41.5
q-64 31 -107.5 70t-43.5 102q0 62 39 99t95 37q47 0 100 -34q19 -12 30 -12q12 0 16 16l6 20h18v-160h-22l-19 38q-27 54 -62 81t-71 27q-27 0 -44.5 -13t-17.5 -42q0 -59 106 -109q65 -31 99.5 -55t50.5 -52t16 -69q0 -62 -39.5 -98t-98.5 -36q-50 0 -104 32q-24 16 -36 16
q-13 0 -23 -7.5t-14 -19.5l-7 -21h-18v198z" />
    </font>
</defs>
</svg>
