<?xml version="1.0" standalone="no"?>
<!DOCTYPE svg PUBLIC "-//W3C//DTD SVG 1.1//EN" "http://www.w3.org/Graphics/SVG/1.1/DTD/svg11.dtd" >
<svg xmlns="http://www.w3.org/2000/svg" xmlns:xlink="http://www.w3.org/1999/xlink" version="1.1">
<metadata>
Created by FontForge 20230101 at Thu Jul 22 12:24:14 2021
 By Glenn Lewis
Copyright 2017 The EB Garamond Project Authors (https://github.com/octaviopardo/EBGaramond12)
</metadata>
<defs>
<font id="EBGaramond-ExtraBoldItalic" horiz-adv-x="0" >
  <font-face 
    font-family="EB Garamond ExtraBold"
    font-weight="800"
    font-style="italic"
    font-stretch="normal"
    units-per-em="1000"
    panose-1="0 0 0 0 0 0 0 0 0 0"
    ascent="800"
    descent="-200"
    x-height="437"
    cap-height="655"
    bbox="-345 -390 2730 1032"
    underline-thickness="50"
    underline-position="-125"
    slope="-17.2"
    unicode-range="U+000D-1F44D"
  />
<missing-glyph horiz-adv-x="516" 
d="M45 1v551h466v-551h-466zM149 117h258v319h-258v-319z" />
    <glyph glyph-name="f_f" unicode="ff" horiz-adv-x="719" 
d="M237 -291q-40 0 -77.5 12.5t-62 33.5t-27.5 48l67 95q11 -72 38.5 -103t61.5 -31q47 0 70 34.5t37 83.5l152 577q25 91 71 145t100 78t101 24q46 0 78 -21.5t32 -54.5q0 -26 -12.5 -50t-34.5 -24q-19 0 -27 17.5t-16 38.5q-7 20 -17.5 36.5t-30.5 16.5q-16 0 -31.5 -19.5
t-28 -49.5t-22.5 -63q-6 -21 -11 -40.5t-7 -35.5q-1 -5 -1.5 -9.5t-1.5 -9.5q-1 -10 4.5 -13t12.5 -3q26 0 48 1.5t47 1.5q11 0 11 -15q0 -5 -5 -15t-11 -18t-10 -8l-79 -3q-19 -1 -28 -6.5t-13 -19.5l-114 -408q-22 -75 -66 -124.5t-96.5 -74t-100.5 -24.5zM-58 -291
q-78 0 -111 26.5t-33 55.5q0 27 17 43.5t37 16.5q10 0 22 -16t22 -31q11 -16 22.5 -31t30.5 -15q14 0 25 13t20.5 35.5t17.5 50.5l136 490q4 18 -14 18l-59 -1q-11 0 -15 4.5t-4 14.5q0 8 9.5 21.5t27.5 14.5l61 3q5 0 6.5 3t4.5 10l14 34q23 56 53.5 98t65.5 69.5
t71.5 41.5t72.5 14q41 0 78 -12t61.5 -33.5t27.5 -48.5l-67 -95q-11 72 -38.5 103t-61.5 31q-46 0 -69.5 -34.5t-37.5 -83.5q-7 -34 -11.5 -50.5t-6.5 -22t-3 -8.5q-1 -10 4.5 -13t12.5 -3l221 3q11 0 11 -15q0 -5 -5 -15t-11 -18t-10 -8l-205 -3q-19 0 -28 -6t-13 -20
l-120 -429q-9 -34 -35 -69.5t-60.5 -65.5t-69.5 -48.5t-64 -18.5z" />
    <glyph glyph-name="uniFB01" unicode="fi" horiz-adv-x="663" 
d="M-58 -291q-78 0 -111 26.5t-33 55.5q0 27 17 43.5t37 16.5q10 0 22 -16t22 -31q11 -16 22.5 -31t30.5 -15q14 0 25 13t20.5 35.5t17.5 50.5l136 490q4 18 -14 18l-59 -1q-11 0 -15 4.5t-4 14.5q0 8 9.5 21.5t27.5 14.5l61 3q7 0 11 13l8 24q25 67 60.5 114t77 76
t84.5 42.5t83 13.5q51 0 87 -21.5t36 -54.5q0 -26 -12.5 -50t-34.5 -24q-19 0 -26.5 18t-17.5 38t-23.5 35.5t-40.5 15.5q-24 0 -44 -18.5t-36 -47t-27 -59.5t-16 -55l-9 -44q-1 -10 4.5 -13t12.5 -3q13 0 44 0.5t68 1t68 1t44 0.5q11 0 11 -15q0 -5 -5 -15t-11 -18t-10 -8
l-208 -3q-19 0 -28 -6t-13 -20q-29 -106 -59.5 -214t-60.5 -215q-9 -34 -35 -69.5t-60.5 -65.5t-69.5 -48.5t-64 -18.5zM413 -14q-25 0 -45 19.5t-20 38.5q0 5 1 10.5t4 12.5l128 313l-42 43q40 0 67 2.5t43 8.5t32.5 -1.5t26.5 -21t5 -26.5l-110 -274q-1 -3 -1.5 -6.5
t-0.5 -5.5q0 -3 1.5 -5t3.5 -2q7 0 26 11.5t40 27t34 28.5q3 3 4 3q6 0 10 -5t4 -11q0 -18 -22 -45t-55 -53.5t-69 -44t-65 -17.5z" />
    <glyph glyph-name="uniFB02" unicode="fl" horiz-adv-x="702" 
d="M-58 -291q-78 0 -111 26.5t-33 55.5q0 27 17 43.5t37 16.5q10 0 22 -16t22 -31q11 -16 22.5 -31t30.5 -15q14 0 25 13t20.5 35.5t17.5 50.5l136 490q4 18 -14 18l-59 -1q-11 0 -15 4.5t-4 14.5q0 8 9.5 21.5t27.5 14.5l61 3q7 0 11 13l16 47q26 76 70 125.5t97.5 73.5
t106.5 24q35 0 70 -12t59 -33.5t27 -48.5l-57 -85q-11 72 -39 98t-56 26q-43 0 -73 -26.5t-49 -91.5q-6 -21 -11 -41.5t-8 -35t-4 -17.5q-1 -10 4.5 -13t12.5 -3l221 3q11 0 11 -15q0 -5 -5 -15t-11 -18t-10 -8l-205 -3q-19 0 -28 -6t-13 -20l-120 -429q-9 -34 -35 -69.5
t-60.5 -65.5t-69.5 -48.5t-64 -18.5zM456 -14q-25 0 -42 19.5t-17 38.5q0 8 5 23l165 491q13 38 7.5 52.5t-25.5 17.5q-16 2 -19 6.5t-2 11.5q2 7 5.5 11t15.5 7q28 7 60 13t61 11.5t46 11.5q3 1 8 2.5t10 2.5t7 1q6 0 9.5 -8t1.5 -13q-2 -7 -6 -20t-9 -27l-178 -511
q-1 -3 -1.5 -6t-0.5 -5q0 -13 12 -13q8 0 21.5 9t28.5 22.5t28 26.5l2 2t2 1q8 0 10.5 -7t2.5 -10q0 -15 -14.5 -35.5t-38.5 -42.5t-52 -40.5t-55 -30.5t-48 -12z" />
    <glyph glyph-name="uniFB03" unicode="ffi" horiz-adv-x="998" 
d="M247 -291q-40 0 -77.5 12.5t-62 33.5t-27.5 48l67 95q11 -72 38.5 -103t61.5 -31q47 0 70.5 34.5t36.5 83.5l148 555q21 77 56.5 128.5t79.5 82t89.5 44t85.5 13.5q51 0 87 -21.5t36 -54.5q0 -26 -12.5 -50t-34.5 -24q-19 0 -26.5 18t-17.5 38t-23.5 35.5t-40.5 15.5
q-24 0 -44 -18.5t-36 -47t-27 -59.5t-16 -55l-9 -44q-1 -10 4.5 -13t12.5 -3q13 0 44 0.5t68 1t68 1t44 0.5q11 0 11 -15q0 -5 -5 -15t-11 -18t-10 -8l-208 -3q-19 0 -28 -6t-13 -20q-15 -53 -29 -103.5t-28.5 -100t-29 -100t-29.5 -104.5q-22 -75 -66 -124.5t-96.5 -74
t-100.5 -24.5zM-58 -291q-78 0 -111 26.5t-33 55.5q0 27 17 43.5t37 16.5q10 0 22 -16t22 -31q11 -16 22.5 -31t30.5 -15q14 0 25 13t20.5 35.5t17.5 50.5l136 490q4 18 -14 18l-59 -1q-11 0 -15 4.5t-4 14.5q0 8 9.5 21.5t27.5 14.5l61 3q5 0 6.5 3t4.5 10l12 34
q20 57 50.5 99t66.5 69.5t74 41t74 13.5q41 0 78 -12t61.5 -33.5t27.5 -48.5l-57 -85q-7 48 -24.5 75t-38 38t-39.5 11q-35 0 -57 -16t-35 -42.5t-23 -59.5q-7 -34 -11.5 -50.5t-6.5 -22t-3 -8.5q-1 -10 4.5 -13t12.5 -3l221 3q11 0 11 -15q0 -5 -5 -15t-11 -18t-10 -8
l-205 -3q-19 0 -28 -6t-13 -20l-120 -429q-9 -34 -35 -69.5t-60.5 -65.5t-69.5 -48.5t-64 -18.5zM748 -14q-25 0 -45 19.5t-20 38.5q0 5 1 10.5t4 12.5l128 313l-42 43q40 0 67 2.5t43 8.5t32.5 -1.5t26.5 -21t5 -26.5l-110 -274q-1 -3 -1.5 -6.5t-0.5 -5.5q0 -3 1.5 -5
t3.5 -2q7 0 26 11.5t40 27t34 28.5q3 3 4 3q6 0 10 -5t4 -11q0 -18 -22 -45t-55 -53.5t-69 -44t-65 -17.5z" />
    <glyph glyph-name="uniFB04" unicode="ffl" horiz-adv-x="1037" 
d="M247 -291q-40 0 -77.5 12.5t-62 33.5t-27.5 48l67 95q11 -72 38.5 -103t61.5 -31q47 0 70 34.5t37 83.5l155 575q18 68 48.5 115t69 76.5t80.5 43t82 13.5q35 0 70 -12t59 -33.5t27 -48.5l-57 -85q-11 72 -39 98t-56 26q-43 0 -73 -26.5t-49 -91.5q-6 -21 -11 -41.5
t-8 -35t-4 -17.5q-1 -10 4.5 -13t12.5 -3l221 3q11 0 11 -15q0 -5 -5 -15t-11 -18t-10 -8l-205 -3q-19 0 -28 -6t-13 -20l-115 -408q-22 -75 -66 -124.5t-96.5 -74t-100.5 -24.5zM-58 -291q-78 0 -111 26.5t-33 55.5q0 27 17 43.5t37 16.5q10 0 22 -16t22 -31
q11 -16 22.5 -31t30.5 -15q14 0 25 13t20.5 35.5t17.5 50.5l136 490q4 18 -14 18l-59 -1q-11 0 -15 4.5t-4 14.5q0 8 9.5 21.5t27.5 14.5l61 3q5 0 6.5 3t4.5 10l12 34q20 57 50.5 99t66.5 69.5t74 41t74 13.5q41 0 78 -12t61.5 -33.5t27.5 -48.5l-57 -85q-7 48 -24.5 75
t-38 38t-39.5 11q-35 0 -57 -16t-35 -42.5t-23 -59.5q-7 -34 -11.5 -50.5t-6.5 -22t-3 -8.5q-1 -10 4.5 -13t12.5 -3l221 3q11 0 11 -15q0 -5 -5 -15t-11 -18t-10 -8l-205 -3q-19 0 -28 -6t-13 -20l-120 -429q-9 -34 -35 -69.5t-60.5 -65.5t-69.5 -48.5t-64 -18.5zM791 -14
q-25 0 -42 19.5t-17 38.5q0 8 5 23l165 491q13 38 7.5 52.5t-25.5 17.5q-16 2 -19 6.5t-2 11.5q2 7 5.5 11t15.5 7q28 7 60 13t61 11.5t46 11.5q3 1 8 2.5t10 2.5t7 1q6 0 9.5 -8t1.5 -13q-2 -7 -6 -20t-9 -27l-178 -511q-1 -3 -1.5 -6t-0.5 -5q0 -13 12 -13q8 0 21.5 9
t28.5 22.5t28 26.5l2 2t2 1q8 0 10.5 -7t2.5 -10q0 -15 -14.5 -35.5t-38.5 -42.5t-52 -40.5t-55 -30.5t-48 -12z" />
    <glyph glyph-name=".notdef" horiz-adv-x="516" 
d="M45 1v551h466v-551h-466zM149 117h258v319h-258v-319z" />
    <glyph glyph-name="A" unicode="A" horiz-adv-x="766" 
d="M-45 -5q-11 0 -17.5 3.5t-4.5 13.5t9.5 15t17.5 7q18 4 43 12t49.5 21t40.5 31q64 73 127.5 145t127.5 144.5t128 144.5q19 21 31.5 42.5t21 36t14.5 14.5q26 0 52 4.5t45 14.5q17 9 32 18.5t25 9.5q11 0 12.5 -20.5t-3.5 -45.5l-98 -494q-6 -31 9.5 -49t53.5 -29
q11 -3 18.5 -6.5t7.5 -14.5q0 -7 -11.5 -11t-19.5 -4q-21 0 -49.5 1t-57.5 2t-52 1q-20 0 -49 -1t-59 -2.5t-52 -1.5q-20 0 -18 15q1 9 9 14.5t18 7.5q23 5 39 12.5t26.5 19.5t14.5 31l30 122q2 8 -1.5 12.5t-11.5 4.5h-161q-8 0 -14.5 -5.5t-11.5 -11.5l-62 -79
q-25 -32 -30.5 -53t7.5 -33.5t41 -19.5q9 -2 17.5 -7.5t7.5 -14.5q-1 -7 -11 -10.5t-21 -3.5q-33 0 -63.5 1.5t-60.5 1.5q-29 0 -66.5 -3t-69.5 -3zM342 284h123q8 0 12 2t5 9l47 219q2 6 2.5 11t-3.5 5q-1 0 -5 -2t-7 -5l-184 -221q-9 -10 -7.5 -14t17.5 -4z" />
    <glyph glyph-name="Aacute" unicode="&#xc1;" horiz-adv-x="766" 
d="M-45 -5q-11 0 -17.5 3.5t-4.5 13.5t9.5 15t17.5 7q18 4 43 12t49.5 21t40.5 31q64 73 127.5 145t127.5 144.5t128 144.5q19 21 31.5 42.5t21 36t14.5 14.5q26 0 52 4.5t45 14.5q17 9 32 18.5t25 9.5q11 0 12.5 -20.5t-3.5 -45.5l-98 -494q-6 -31 9.5 -49t53.5 -29
q11 -3 18.5 -6.5t7.5 -14.5q0 -7 -11.5 -11t-19.5 -4q-21 0 -49.5 1t-57.5 2t-52 1q-20 0 -49 -1t-59 -2.5t-52 -1.5q-20 0 -18 15q1 9 9 14.5t18 7.5q23 5 39 12.5t26.5 19.5t14.5 31l30 122q2 8 -1.5 12.5t-11.5 4.5h-161q-8 0 -14.5 -5.5t-11.5 -11.5l-62 -79
q-25 -32 -30.5 -53t7.5 -33.5t41 -19.5q9 -2 17.5 -7.5t7.5 -14.5q-1 -7 -11 -10.5t-21 -3.5q-33 0 -63.5 1.5t-60.5 1.5q-29 0 -66.5 -3t-69.5 -3zM342 284h123q8 0 12 2t5 9l47 219q2 6 2.5 11t-3.5 5q-1 0 -5 -2t-7 -5l-184 -221q-9 -10 -7.5 -14t17.5 -4zM615 681
q-12 0 -14 8q-1 7 9 23q23 37 46.5 70.5t51.5 67.5q12 15 34 15q8 0 27.5 -4.5t35.5 -12t15 -16.5q-1 -12 -18 -24q-38 -28 -80 -59.5t-81 -57.5q-9 -6 -16 -8t-10 -2z" />
    <glyph glyph-name="Abreve" unicode="&#x102;" horiz-adv-x="766" 
d="M-45 -5q-11 0 -17.5 3.5t-4.5 13.5t9.5 15t17.5 7q18 4 43 12t49.5 21t40.5 31q64 73 127.5 145t127.5 144.5t128 144.5q19 21 31.5 42.5t21 36t14.5 14.5q26 0 52 4.5t45 14.5q17 9 32 18.5t25 9.5q11 0 12.5 -20.5t-3.5 -45.5l-98 -494q-6 -31 9.5 -49t53.5 -29
q11 -3 18.5 -6.5t7.5 -14.5q0 -7 -11.5 -11t-19.5 -4q-21 0 -49.5 1t-57.5 2t-52 1q-20 0 -49 -1t-59 -2.5t-52 -1.5q-20 0 -18 15q1 9 9 14.5t18 7.5q23 5 39 12.5t26.5 19.5t14.5 31l30 122q2 8 -1.5 12.5t-11.5 4.5h-161q-8 0 -14.5 -5.5t-11.5 -11.5l-62 -79
q-25 -32 -30.5 -53t7.5 -33.5t41 -19.5q9 -2 17.5 -7.5t7.5 -14.5q-1 -7 -11 -10.5t-21 -3.5q-33 0 -63.5 1.5t-60.5 1.5q-29 0 -66.5 -3t-69.5 -3zM342 284h123q8 0 12 2t5 9l47 219q2 6 2.5 11t-3.5 5q-1 0 -5 -2t-7 -5l-184 -221q-9 -10 -7.5 -14t17.5 -4zM673 685
q-44 0 -72.5 19t-42.5 45.5t-14 49.5q0 17 6.5 29t19.5 12q9 0 13 -6t10 -16q16 -25 35 -35.5t54 -10.5t61 9t54 37q11 11 19.5 16.5t17.5 5.5q13 0 13 -20q0 -16 -10 -38.5t-31 -44.5t-54 -37t-79 -15z" />
    <glyph glyph-name="Acircumflex" unicode="&#xc2;" horiz-adv-x="766" 
d="M-45 -5q-11 0 -17.5 3.5t-4.5 13.5t9.5 15t17.5 7q18 4 43 12t49.5 21t40.5 31q64 73 127.5 145t127.5 144.5t128 144.5q19 21 31.5 42.5t21 36t14.5 14.5q26 0 52 4.5t45 14.5q17 9 32 18.5t25 9.5q11 0 12.5 -20.5t-3.5 -45.5l-98 -494q-6 -31 9.5 -49t53.5 -29
q11 -3 18.5 -6.5t7.5 -14.5q0 -7 -11.5 -11t-19.5 -4q-21 0 -49.5 1t-57.5 2t-52 1q-20 0 -49 -1t-59 -2.5t-52 -1.5q-20 0 -18 15q1 9 9 14.5t18 7.5q23 5 39 12.5t26.5 19.5t14.5 31l30 122q2 8 -1.5 12.5t-11.5 4.5h-161q-8 0 -14.5 -5.5t-11.5 -11.5l-62 -79
q-25 -32 -30.5 -53t7.5 -33.5t41 -19.5q9 -2 17.5 -7.5t7.5 -14.5q-1 -7 -11 -10.5t-21 -3.5q-33 0 -63.5 1.5t-60.5 1.5q-29 0 -66.5 -3t-69.5 -3zM342 284h123q8 0 12 2t5 9l47 219q2 6 2.5 11t-3.5 5q-1 0 -5 -2t-7 -5l-184 -221q-9 -10 -7.5 -14t17.5 -4zM512 692
q-21 0 -16 13q3 8 14 16l133 96q23 17 35 23.5t26 6.5q15 0 23 -6.5t21 -23.5l78 -95q4 -4 4 -8.5t-1 -8.5q-3 -14 -21 -14q-9 0 -30.5 9t-45 20.5t-38.5 19.5q-12 7 -26 0q-14 -6 -36 -14.5t-45.5 -16t-43.5 -12.5t-31 -5z" />
    <glyph glyph-name="Adieresis" unicode="&#xc4;" horiz-adv-x="766" 
d="M-45 -5q-11 0 -17.5 3.5t-4.5 13.5t9.5 15t17.5 7q18 4 43 12t49.5 21t40.5 31q64 73 127.5 145t127.5 144.5t128 144.5q19 21 31.5 42.5t21 36t14.5 14.5q26 0 52 4.5t45 14.5q17 9 32 18.5t25 9.5q11 0 12.5 -20.5t-3.5 -45.5l-98 -494q-6 -31 9.5 -49t53.5 -29
q11 -3 18.5 -6.5t7.5 -14.5q0 -7 -11.5 -11t-19.5 -4q-21 0 -49.5 1t-57.5 2t-52 1q-20 0 -49 -1t-59 -2.5t-52 -1.5q-20 0 -18 15q1 9 9 14.5t18 7.5q23 5 39 12.5t26.5 19.5t14.5 31l30 122q2 8 -1.5 12.5t-11.5 4.5h-161q-8 0 -14.5 -5.5t-11.5 -11.5l-62 -79
q-25 -32 -30.5 -53t7.5 -33.5t41 -19.5q9 -2 17.5 -7.5t7.5 -14.5q-1 -7 -11 -10.5t-21 -3.5q-33 0 -63.5 1.5t-60.5 1.5q-29 0 -66.5 -3t-69.5 -3zM342 284h123q8 0 12 2t5 9l47 219q2 6 2.5 11t-3.5 5q-1 0 -5 -2t-7 -5l-184 -221q-9 -10 -7.5 -14t17.5 -4zM763 686
q-27 0 -45.5 18.5t-18.5 41.5q0 37 28.5 65t72.5 28q28 0 45.5 -20t17.5 -46q0 -23 -14 -43t-36.5 -32t-49.5 -12zM565 686q-28 0 -46 18.5t-18 41.5q0 38 29 65.5t72 27.5q27 0 44.5 -20t17.5 -46q0 -34 -29.5 -60.5t-69.5 -26.5z" />
    <glyph glyph-name="Agrave" unicode="&#xc0;" horiz-adv-x="766" 
d="M-45 -5q-11 0 -17.5 3.5t-4.5 13.5t9.5 15t17.5 7q18 4 43 12t49.5 21t40.5 31q64 73 127.5 145t127.5 144.5t128 144.5q19 21 31.5 42.5t21 36t14.5 14.5q26 0 52 4.5t45 14.5q17 9 32 18.5t25 9.5q11 0 12.5 -20.5t-3.5 -45.5l-98 -494q-6 -31 9.5 -49t53.5 -29
q11 -3 18.5 -6.5t7.5 -14.5q0 -7 -11.5 -11t-19.5 -4q-21 0 -49.5 1t-57.5 2t-52 1q-20 0 -49 -1t-59 -2.5t-52 -1.5q-20 0 -18 15q1 9 9 14.5t18 7.5q23 5 39 12.5t26.5 19.5t14.5 31l30 122q2 8 -1.5 12.5t-11.5 4.5h-161q-8 0 -14.5 -5.5t-11.5 -11.5l-62 -79
q-25 -32 -30.5 -53t7.5 -33.5t41 -19.5q9 -2 17.5 -7.5t7.5 -14.5q-1 -7 -11 -10.5t-21 -3.5q-33 0 -63.5 1.5t-60.5 1.5q-29 0 -66.5 -3t-69.5 -3zM342 284h123q8 0 12 2t5 9l47 219q2 6 2.5 11t-3.5 5q-1 0 -5 -2t-7 -5l-184 -221q-9 -10 -7.5 -14t17.5 -4zM703 693
q-3 0 -10.5 0.5t-17.5 4.5q-43 20 -90 43t-89 44q-18 9 -21 21q-2 8 12.5 17.5t32.5 17.5t25 10q21 6 36 -8q33 -30 60 -61t60 -58q14 -11 14 -21t-12 -10z" />
    <glyph glyph-name="Amacron" unicode="&#x100;" horiz-adv-x="766" 
d="M-45 -5q-11 0 -17.5 3.5t-4.5 13.5t9.5 15t17.5 7q18 4 43 12t49.5 21t40.5 31q64 73 127.5 145t127.5 144.5t128 144.5q19 21 31.5 42.5t21 36t14.5 14.5q26 0 52 4.5t45 14.5q17 9 32 18.5t25 9.5q11 0 12.5 -20.5t-3.5 -45.5l-98 -494q-6 -31 9.5 -49t53.5 -29
q11 -3 18.5 -6.5t7.5 -14.5q0 -7 -11.5 -11t-19.5 -4q-21 0 -49.5 1t-57.5 2t-52 1q-20 0 -49 -1t-59 -2.5t-52 -1.5q-20 0 -18 15q1 9 9 14.5t18 7.5q23 5 39 12.5t26.5 19.5t14.5 31l30 122q2 8 -1.5 12.5t-11.5 4.5h-161q-8 0 -14.5 -5.5t-11.5 -11.5l-62 -79
q-25 -32 -30.5 -53t7.5 -33.5t41 -19.5q9 -2 17.5 -7.5t7.5 -14.5q-1 -7 -11 -10.5t-21 -3.5q-33 0 -63.5 1.5t-60.5 1.5q-29 0 -66.5 -3t-69.5 -3zM342 284h123q8 0 12 2t5 9l47 219q2 6 2.5 11t-3.5 5q-1 0 -5 -2t-7 -5l-184 -221q-9 -10 -7.5 -14t17.5 -4zM535 716
q-10 0 -15.5 6t-5.5 13q0 30 13 48.5t27 18.5h270q10 0 15 -5.5t5 -13.5q0 -26 -13 -46.5t-30 -20.5h-266z" />
    <glyph glyph-name="Aogonek" unicode="&#x104;" horiz-adv-x="808" 
d="M-45 -5q-11 0 -17.5 3.5t-4.5 13.5t9.5 15t17.5 7q18 4 43 12t49.5 21t40.5 31q64 73 127.5 145t127.5 144.5t128 144.5q19 21 31.5 42.5t21 36t14.5 14.5q26 0 52 4.5t45 14.5q17 9 32 18.5t25 9.5q11 0 12.5 -20.5t-3.5 -45.5l-98 -494q-6 -31 9.5 -49t53.5 -29
q11 -3 18.5 -6.5t7.5 -14.5q0 -7 -11.5 -11t-19.5 -4q-21 0 -49.5 1t-57.5 2t-52 1q-20 0 -49 -1t-59 -2.5t-52 -1.5q-20 0 -18 15q1 9 9 14.5t18 7.5q23 5 39 12.5t26.5 19.5t14.5 31l30 122q2 8 -1.5 12.5t-11.5 4.5h-161q-8 0 -14.5 -5.5t-11.5 -11.5l-62 -79
q-25 -32 -30.5 -53t7.5 -33.5t41 -19.5q9 -2 17.5 -7.5t7.5 -14.5q-1 -7 -11 -10.5t-21 -3.5q-33 0 -63.5 1.5t-60.5 1.5q-29 0 -66.5 -3t-69.5 -3zM342 284h123q8 0 12 2t5 9l47 219q2 6 2.5 11t-3.5 5q-1 0 -5 -2t-7 -5l-184 -221q-9 -10 -7.5 -14t17.5 -4zM457 -287
q-23 0 -43 13t-31.5 32.5t-11.5 39.5q0 38 19 70.5t49 60t64.5 49.5t66.5 40h44q-32 -22 -59.5 -55.5t-44 -68.5t-16.5 -64q0 -13 8 -20.5t24 -7.5q12 0 27.5 11t28.5 29q2 2 4 5t5 5t7 2q7 0 8 -6t1 -11q0 -18 -14 -39.5t-36 -41t-48.5 -31.5t-51.5 -12z" />
    <glyph glyph-name="Aring" unicode="&#xc5;" horiz-adv-x="766" 
d="M-45 -5q-11 0 -17.5 3.5t-4.5 13.5t9.5 15t17.5 7q18 4 43 12t49.5 21t40.5 31q64 73 127.5 145t127.5 144.5t128 144.5q19 21 31.5 42.5t21 36t14.5 14.5q26 0 52 4.5t45 14.5q17 9 32 18.5t25 9.5q11 0 12.5 -20.5t-3.5 -45.5l-98 -494q-6 -31 9.5 -49t53.5 -29
q11 -3 18.5 -6.5t7.5 -14.5q0 -7 -11.5 -11t-19.5 -4q-21 0 -49.5 1t-57.5 2t-52 1q-20 0 -49 -1t-59 -2.5t-52 -1.5q-20 0 -18 15q1 9 9 14.5t18 7.5q23 5 39 12.5t26.5 19.5t14.5 31l30 122q2 8 -1.5 12.5t-11.5 4.5h-161q-8 0 -14.5 -5.5t-11.5 -11.5l-62 -79
q-25 -32 -30.5 -53t7.5 -33.5t41 -19.5q9 -2 17.5 -7.5t7.5 -14.5q-1 -7 -11 -10.5t-21 -3.5q-33 0 -63.5 1.5t-60.5 1.5q-29 0 -66.5 -3t-69.5 -3zM342 284h123q8 0 12 2t5 9l47 219q2 6 2.5 11t-3.5 5q-1 0 -5 -2t-7 -5l-184 -221q-9 -10 -7.5 -14t17.5 -4zM653 695
q-38 0 -69 17t-31 48q0 50 40.5 79.5t98.5 29.5q24 0 47.5 -7.5t38.5 -22.5t15 -36q0 -51 -40.5 -79.5t-99.5 -28.5zM666 728q29 0 44 22t15 46q0 16 -13 26t-31 10q-29 0 -45.5 -21.5t-16.5 -45.5q0 -16 14 -26.5t33 -10.5z" />
    <glyph glyph-name="Aringacute" unicode="&#x1fa;" horiz-adv-x="600" 
d="M-45 -5q-11 0 -17.5 3.5t-4.5 13.5t9.5 15t17.5 7q18 4 43 12t49.5 21t40.5 31q64 73 127.5 145t127.5 144.5t128 144.5q19 21 31.5 42.5t21 36t14.5 14.5q26 0 52 4.5t45 14.5q17 9 32 18.5t25 9.5q11 0 12.5 -20.5t-3.5 -45.5l-98 -494q-6 -31 9.5 -49t53.5 -29
q11 -3 18.5 -6.5t7.5 -14.5q0 -7 -11.5 -11t-19.5 -4q-21 0 -49.5 1t-57.5 2t-52 1q-20 0 -49 -1t-59 -2.5t-52 -1.5q-20 0 -18 15q1 9 9 14.5t18 7.5q23 5 39 12.5t26.5 19.5t14.5 31l30 122q2 8 -1.5 12.5t-11.5 4.5h-161q-8 0 -14.5 -5.5t-11.5 -11.5l-62 -79
q-25 -32 -30.5 -53t7.5 -33.5t41 -19.5q9 -2 17.5 -7.5t7.5 -14.5q-1 -7 -11 -10.5t-21 -3.5q-33 0 -63.5 1.5t-60.5 1.5q-29 0 -66.5 -3t-69.5 -3zM342 284h123q8 0 12 2t5 9l47 219q2 6 2.5 11t-3.5 5q-1 0 -5 -2t-7 -5l-184 -221q-9 -10 -7.5 -14t17.5 -4zM653 695
q-38 0 -69 17t-31 48q0 50 40.5 79.5t98.5 29.5q24 0 47.5 -7.5t38.5 -22.5t15 -36q0 -51 -40.5 -79.5t-99.5 -28.5zM666 728q29 0 44 22t15 46q0 16 -13 26t-31 10q-29 0 -45.5 -21.5t-16.5 -45.5q0 -16 14 -26.5t33 -10.5zM713 889q-7 0 -13 3.5t-6 10.5q0 5 3.5 10.5
t15.5 14.5q31 23 75 51t79 48q2 1 4.5 2t5 1.5l5 1t5.5 0.5q18 0 29.5 -14.5t17 -30.5t5.5 -23q0 -4 -1 -8t-3 -6.5t-7 -4.5q-46 -15 -87.5 -28.5t-87.5 -21.5q-4 -1 -9 -2t-10.5 -2t-10.5 -1.5t-10 -0.5z" />
    <glyph glyph-name="Atilde" unicode="&#xc3;" horiz-adv-x="766" 
d="M-45 -5q-11 0 -17.5 3.5t-4.5 13.5t9.5 15t17.5 7q18 4 43 12t49.5 21t40.5 31q64 73 127.5 145t127.5 144.5t128 144.5q19 21 31.5 42.5t21 36t14.5 14.5q26 0 52 4.5t45 14.5q17 9 32 18.5t25 9.5q11 0 12.5 -20.5t-3.5 -45.5l-98 -494q-6 -31 9.5 -49t53.5 -29
q11 -3 18.5 -6.5t7.5 -14.5q0 -7 -11.5 -11t-19.5 -4q-21 0 -49.5 1t-57.5 2t-52 1q-20 0 -49 -1t-59 -2.5t-52 -1.5q-20 0 -18 15q1 9 9 14.5t18 7.5q23 5 39 12.5t26.5 19.5t14.5 31l30 122q2 8 -1.5 12.5t-11.5 4.5h-161q-8 0 -14.5 -5.5t-11.5 -11.5l-62 -79
q-25 -32 -30.5 -53t7.5 -33.5t41 -19.5q9 -2 17.5 -7.5t7.5 -14.5q-1 -7 -11 -10.5t-21 -3.5q-33 0 -63.5 1.5t-60.5 1.5q-29 0 -66.5 -3t-69.5 -3zM342 284h123q8 0 12 2t5 9l47 219q2 6 2.5 11t-3.5 5q-1 0 -5 -2t-7 -5l-184 -221q-9 -10 -7.5 -14t17.5 -4zM532 691
q-5 0 -12 6.5t-7 9.5q0 6 9 22.5t22.5 35.5t26 32.5t19.5 13.5q19 0 41.5 -1.5t44.5 -2.5q19 -1 41 -2t47 -1q11 0 19.5 6.5t15.5 13.5q8 8 12.5 15t7.5 7q5 0 14 -7t9 -12q0 -4 -4.5 -11t-13.5 -20q-11 -16 -20.5 -31.5t-18.5 -29.5q-6 -9 -15 -11.5t-16 -2.5q-9 0 -33 2
t-53.5 4t-54.5 4t-34 2q-8 0 -15.5 -6.5t-13.5 -14.5t-11 -14.5t-7 -6.5z" />
    <glyph glyph-name="AE" unicode="&#xc6;" horiz-adv-x="913" 
d="M-46 -5q-11 0 -17.5 3.5t-3.5 13.5t11 14.5t18 7.5q32 9 60 26.5t47 37.5l453 501q4 5 3 8.5t-6 4.5l-45 8q-21 4 -21 19q0 8 8.5 12t20.5 4q22 0 55 -1t65.5 -2.5t52.5 -1.5q31 0 65 -0.5t68 -0.5q54 0 89 3.5t56.5 7t32.5 3.5q8 0 14.5 -4.5t4.5 -16.5
q-3 -30 -8.5 -68.5t-13.5 -65.5q-3 -10 -9 -15t-11 -5t-9.5 4t-5.5 13q-2 27 -5 44.5t-10 29.5t-23 23t-44 11h-77q-28 0 -43 -17t-21 -39q-7 -27 -15.5 -58t-16.5 -62t-16 -58q-4 -13 1 -18.5t17 -5.5h42.5h42.5q26 0 44 19t34 43q7 9 14 13.5t13 4.5q5 0 7.5 -6t-2.5 -17
q-9 -22 -16.5 -42.5t-14.5 -40.5q-6 -20 -11 -40t-10 -43q-4 -15 -9 -21.5t-10 -6.5q-7 0 -12 7t-5 17q2 32 -5.5 50.5t-26.5 18.5h-47h-47q-11 0 -18.5 -6t-10.5 -17q-13 -43 -28 -96.5t-28 -96.5q-8 -28 0.5 -39.5t33.5 -11.5h87q20 0 41 5.5t39 17.5q22 14 41 36t36 45
q6 8 11.5 10t11.5 2t9 -4t1 -11q-6 -18 -19 -43.5t-28 -50.5t-27 -43q-4 -7 -12 -9.5t-16 -2.5q-5 0 -39 0.5t-84 1.5t-104.5 1.5t-99.5 0.5q-20 0 -46.5 -1t-52.5 -2.5t-46 -1.5q-9 0 -12.5 5t-1.5 11q4 15 26 21q36 10 53 21t27 42q11 35 23.5 73.5t22.5 72.5q2 6 1 12
t-12 6h-133q-8 0 -15 -3t-16 -14l-36 -45t-37.5 -48.5t-28.5 -39.5q-16 -24 -17 -38.5t12.5 -22.5t38.5 -14q9 -2 13.5 -7.5t1.5 -14.5q-2 -7 -8 -10.5t-17 -3.5q-33 0 -63 1.5t-60 1.5q-29 0 -56.5 -3t-59.5 -3zM349 307h103q9 0 13.5 4.5t5.5 8.5l57 206q1 4 0.5 7.5
t-3.5 3.5q-4 0 -9 -6l-177 -206q-10 -11 -5 -14.5t15 -3.5z" />
    <glyph glyph-name="AEacute" unicode="&#x1fc;" horiz-adv-x="913" 
d="M-46 -5q-11 0 -17.5 3.5t-3.5 13.5t11 14.5t18 7.5q32 9 60 26.5t47 37.5l453 501q4 5 3 8.5t-6 4.5l-45 8q-21 4 -21 19q0 8 8.5 12t20.5 4q22 0 55 -1t65.5 -2.5t52.5 -1.5q31 0 65 -0.5t68 -0.5q54 0 89 3.5t56.5 7t32.5 3.5q8 0 14.5 -4.5t4.5 -16.5
q-3 -30 -8.5 -68.5t-13.5 -65.5q-3 -10 -9 -15t-11 -5t-9.5 4t-5.5 13q-2 27 -5 44.5t-10 29.5t-23 23t-44 11h-77q-28 0 -43 -17t-21 -39q-7 -27 -15.5 -58t-16.5 -62t-16 -58q-4 -13 1 -18.5t17 -5.5h42.5h42.5q26 0 44 19t34 43q7 9 14 13.5t13 4.5q5 0 7.5 -6t-2.5 -17
q-9 -22 -16.5 -42.5t-14.5 -40.5q-6 -20 -11 -40t-10 -43q-4 -15 -9 -21.5t-10 -6.5q-7 0 -12 7t-5 17q2 32 -5.5 50.5t-26.5 18.5h-47h-47q-11 0 -18.5 -6t-10.5 -17q-13 -43 -28 -96.5t-28 -96.5q-8 -28 0.5 -39.5t33.5 -11.5h87q20 0 41 5.5t39 17.5q22 14 41 36t36 45
q6 8 11.5 10t11.5 2t9 -4t1 -11q-6 -18 -19 -43.5t-28 -50.5t-27 -43q-4 -7 -12 -9.5t-16 -2.5q-5 0 -39 0.5t-84 1.5t-104.5 1.5t-99.5 0.5q-20 0 -46.5 -1t-52.5 -2.5t-46 -1.5q-9 0 -12.5 5t-1.5 11q4 15 26 21q36 10 53 21t27 42q11 35 23.5 73.5t22.5 72.5q2 6 1 12
t-12 6h-133q-8 0 -15 -3t-16 -14l-36 -45t-37.5 -48.5t-28.5 -39.5q-16 -24 -17 -38.5t12.5 -22.5t38.5 -14q9 -2 13.5 -7.5t1.5 -14.5q-2 -7 -8 -10.5t-17 -3.5q-33 0 -63 1.5t-60 1.5q-29 0 -56.5 -3t-59.5 -3zM349 307h103q9 0 13.5 4.5t5.5 8.5l57 206q1 4 0.5 7.5
t-3.5 3.5q-4 0 -9 -6l-177 -206q-10 -11 -5 -14.5t15 -3.5zM725 681q-12 0 -14 8q-1 7 9 23q23 37 46.5 70.5t51.5 67.5q12 15 34 15q8 0 27.5 -4.5t35.5 -12t15 -16.5q-1 -12 -18 -24q-38 -28 -80 -59.5t-81 -57.5q-9 -6 -16 -8t-10 -2z" />
    <glyph glyph-name="uni01E2" unicode="&#x1e2;" horiz-adv-x="913" 
d="M-46 -5q-11 0 -17.5 3.5t-3.5 13.5t11 14.5t18 7.5q32 9 60 26.5t47 37.5l453 501q4 5 3 8.5t-6 4.5l-45 8q-21 4 -21 19q0 8 8.5 12t20.5 4q22 0 55 -1t65.5 -2.5t52.5 -1.5q31 0 65 -0.5t68 -0.5q54 0 89 3.5t56.5 7t32.5 3.5q8 0 14.5 -4.5t4.5 -16.5
q-3 -30 -8.5 -68.5t-13.5 -65.5q-3 -10 -9 -15t-11 -5t-9.5 4t-5.5 13q-2 27 -5 44.5t-10 29.5t-23 23t-44 11h-77q-28 0 -43 -17t-21 -39q-7 -27 -15.5 -58t-16.5 -62t-16 -58q-4 -13 1 -18.5t17 -5.5h42.5h42.5q26 0 44 19t34 43q7 9 14 13.5t13 4.5q5 0 7.5 -6t-2.5 -17
q-9 -22 -16.5 -42.5t-14.5 -40.5q-6 -20 -11 -40t-10 -43q-4 -15 -9 -21.5t-10 -6.5q-7 0 -12 7t-5 17q2 32 -5.5 50.5t-26.5 18.5h-47h-47q-11 0 -18.5 -6t-10.5 -17q-13 -43 -28 -96.5t-28 -96.5q-8 -28 0.5 -39.5t33.5 -11.5h87q20 0 41 5.5t39 17.5q22 14 41 36t36 45
q6 8 11.5 10t11.5 2t9 -4t1 -11q-6 -18 -19 -43.5t-28 -50.5t-27 -43q-4 -7 -12 -9.5t-16 -2.5q-5 0 -39 0.5t-84 1.5t-104.5 1.5t-99.5 0.5q-20 0 -46.5 -1t-52.5 -2.5t-46 -1.5q-9 0 -12.5 5t-1.5 11q4 15 26 21q36 10 53 21t27 42q11 35 23.5 73.5t22.5 72.5q2 6 1 12
t-12 6h-133q-8 0 -15 -3t-16 -14l-36 -45t-37.5 -48.5t-28.5 -39.5q-16 -24 -17 -38.5t12.5 -22.5t38.5 -14q9 -2 13.5 -7.5t1.5 -14.5q-2 -7 -8 -10.5t-17 -3.5q-33 0 -63 1.5t-60 1.5q-29 0 -56.5 -3t-59.5 -3zM349 307h103q9 0 13.5 4.5t5.5 8.5l57 206q1 4 0.5 7.5
t-3.5 3.5q-4 0 -9 -6l-177 -206q-10 -11 -5 -14.5t15 -3.5zM645 716q-10 0 -15.5 6t-5.5 13q0 30 13 48.5t27 18.5h270q10 0 15 -5.5t5 -13.5q0 -26 -13 -46.5t-30 -20.5h-266z" />
    <glyph glyph-name="B" unicode="B" horiz-adv-x="639" 
d="M-32 -5q-16 0 -16 12q0 7 8 14t20 11q36 11 52.5 21.5t26.5 41.5l142 456q11 33 0 46t-40 21q-8 2 -11.5 6.5t-3.5 8.5q0 9 8 15.5t18 6.5q33 0 54 -2t40.5 -4t45.5 -2q24 0 44 2t44 3.5t60 1.5q61 0 103.5 -14.5t65 -43t22.5 -70.5q0 -29 -15 -55.5t-40.5 -48
t-58.5 -36.5t-70 -23q-4 -1 -5.5 -4.5t2.5 -5.5q58 -19 95 -56t37 -99q0 -58 -26.5 -97t-73.5 -62t-107.5 -33t-129.5 -10q-38 0 -72.5 2t-73.5 2q-20 0 -46.5 -1t-52.5 -2.5t-46 -1.5zM272 30q30 5 58 24.5t49.5 48.5t34.5 62t13 65q0 40 -21 69t-60 29q-24 0 -35 -5
t-16 -19l-64 -205q-3 -10 -3.5 -23.5t3.5 -21.5q5 -8 16 -16t25 -8zM352 362q23 0 40.5 6t35.5 14q32 26 55.5 65.5t23.5 91.5q0 33 -20.5 60t-50.5 27q-22 0 -34 -8t-19 -29l-61 -199q-8 -28 30 -28z" />
    <glyph glyph-name="C" unicode="C" horiz-adv-x="673" 
d="M314 -14q-55 0 -102 20.5t-82 56.5t-54 84.5t-19 105.5q0 90 35.5 165t98 130t145 85.5t177.5 30.5q35 0 62 -6.5t47 -13.5q19 -6 30 -9.5t23 -3.5q7 0 13 1t13 5q8 5 15.5 8t14.5 3q10 0 12.5 -6.5t-4.5 -17.5q-13 -17 -28 -48t-27.5 -64.5t-20.5 -59.5q-3 -10 -8 -16.5
t-16 -6.5q-10 0 -14 14.5t-3 37.5q2 22 -4.5 44.5t-18.5 41.5q-16 26 -39 43t-49 17q-53 0 -98 -28.5t-79.5 -76t-59 -106.5t-37 -121.5t-12.5 -118.5q0 -37 8 -65t24 -47t40 -28t56 -9q39 0 76.5 17.5t73.5 50.5t70 77q8 11 13.5 19t12.5 8q8 0 13.5 -8t2.5 -19
q-7 -25 -18 -56.5t-24 -59.5t-24.5 -46.5t-18.5 -18.5q-10 0 -15 3.5t-11 7.5t-14.5 6.5t-24.5 2.5q-12 0 -26 -3.5t-31 -8.5q-18 -4 -41.5 -8.5t-52.5 -4.5z" />
    <glyph glyph-name="Cacute" unicode="&#x106;" horiz-adv-x="673" 
d="M314 -14q-55 0 -102 20.5t-82 56.5t-54 84.5t-19 105.5q0 90 35.5 165t98 130t145 85.5t177.5 30.5q35 0 62 -6.5t47 -13.5q19 -6 30 -9.5t23 -3.5q7 0 13 1t13 5q8 5 15.5 8t14.5 3q10 0 12.5 -6.5t-4.5 -17.5q-13 -17 -28 -48t-27.5 -64.5t-20.5 -59.5q-3 -10 -8 -16.5
t-16 -6.5q-10 0 -14 14.5t-3 37.5q2 22 -4.5 44.5t-18.5 41.5q-16 26 -39 43t-49 17q-53 0 -98 -28.5t-79.5 -76t-59 -106.5t-37 -121.5t-12.5 -118.5q0 -37 8 -65t24 -47t40 -28t56 -9q39 0 76.5 17.5t73.5 50.5t70 77q8 11 13.5 19t12.5 8q8 0 13.5 -8t2.5 -19
q-7 -25 -18 -56.5t-24 -59.5t-24.5 -46.5t-18.5 -18.5q-10 0 -15 3.5t-11 7.5t-14.5 6.5t-24.5 2.5q-12 0 -26 -3.5t-31 -8.5q-18 -4 -41.5 -8.5t-52.5 -4.5zM498 681q-12 0 -14 8q-1 7 9 23q23 37 46.5 70.5t51.5 67.5q12 15 34 15q8 0 27.5 -4.5t35.5 -12t15 -16.5
q-1 -12 -18 -24q-38 -28 -80 -59.5t-81 -57.5q-9 -6 -16 -8t-10 -2z" />
    <glyph glyph-name="Ccaron" unicode="&#x10c;" horiz-adv-x="673" 
d="M314 -14q-55 0 -102 20.5t-82 56.5t-54 84.5t-19 105.5q0 90 35.5 165t98 130t145 85.5t177.5 30.5q35 0 62 -6.5t47 -13.5q19 -6 30 -9.5t23 -3.5q7 0 13 1t13 5q8 5 15.5 8t14.5 3q10 0 12.5 -6.5t-4.5 -17.5q-13 -17 -28 -48t-27.5 -64.5t-20.5 -59.5q-3 -10 -8 -16.5
t-16 -6.5q-10 0 -14 14.5t-3 37.5q2 22 -4.5 44.5t-18.5 41.5q-16 26 -39 43t-49 17q-53 0 -98 -28.5t-79.5 -76t-59 -106.5t-37 -121.5t-12.5 -118.5q0 -37 8 -65t24 -47t40 -28t56 -9q39 0 76.5 17.5t73.5 50.5t70 77q8 11 13.5 19t12.5 8q8 0 13.5 -8t2.5 -19
q-7 -25 -18 -56.5t-24 -59.5t-24.5 -46.5t-18.5 -18.5q-10 0 -15 3.5t-11 7.5t-14.5 6.5t-24.5 2.5q-12 0 -26 -3.5t-31 -8.5q-18 -4 -41.5 -8.5t-52.5 -4.5zM544 698q-14 0 -22 7t-21 23l-76 96q-6 8 -4 16q3 13 24 13q8 0 28.5 -8.5t42.5 -20.5t35 -21q5 -4 10.5 -4
t13.5 4q15 7 40 15.5t51.5 16.5t47 13.5t27.5 5.5q16 0 16 -13q0 -11 -12 -20l-139 -93q-23 -16 -35 -23t-27 -7z" />
    <glyph glyph-name="Ccedilla" unicode="&#xc7;" horiz-adv-x="673" 
d="M314 -14q-55 0 -102 20.5t-82 56.5t-54 84.5t-19 105.5q0 90 35.5 165t98 130t145 85.5t177.5 30.5q35 0 62 -6.5t47 -13.5q19 -6 30 -9.5t23 -3.5q7 0 13 1t13 5q8 5 15.5 8t14.5 3q10 0 12.5 -6.5t-4.5 -17.5q-13 -17 -28 -48t-27.5 -64.5t-20.5 -59.5q-3 -10 -8 -16.5
t-16 -6.5q-10 0 -14 14.5t-3 37.5q2 22 -4.5 44.5t-18.5 41.5q-16 26 -39 43t-49 17q-53 0 -98 -28.5t-79.5 -76t-59 -106.5t-37 -121.5t-12.5 -118.5q0 -37 8 -65t24 -47t40 -28t56 -9q39 0 76.5 17.5t73.5 50.5t70 77q8 11 13.5 19t12.5 8q8 0 13.5 -8t2.5 -19
q-7 -25 -18 -56.5t-24 -59.5t-24.5 -46.5t-18.5 -18.5q-10 0 -15 3.5t-11 7.5t-14.5 6.5t-24.5 2.5q-12 0 -26 -3.5t-31 -8.5q-18 -4 -41.5 -8.5t-52.5 -4.5zM239 -281q-25 0 -46.5 10.5t-34 26t-12.5 29.5q0 39 31 39q15 0 28.5 -8t26.5 -19q15 -12 24 -20t22 -8
q9 0 13.5 5.5t4.5 13.5q0 14 -10 22.5t-22 20.5q-12 11 -24.5 27t-12.5 29q0 17 20.5 41t50.5 48t59 41h41q-37 -26 -50.5 -43t-13.5 -31q0 -10 10.5 -21t22.5 -22q14 -13 23 -25t9 -25q0 -16 -15.5 -38t-39.5 -43.5t-52 -35.5t-53 -14z" />
    <glyph glyph-name="Ccircumflex" unicode="&#x108;" horiz-adv-x="673" 
d="M314 -14q-55 0 -102 20.5t-82 56.5t-54 84.5t-19 105.5q0 90 35.5 165t98 130t145 85.5t177.5 30.5q35 0 62 -6.5t47 -13.5q19 -6 30 -9.5t23 -3.5q7 0 13 1t13 5q8 5 15.5 8t14.5 3q10 0 12.5 -6.5t-4.5 -17.5q-13 -17 -28 -48t-27.5 -64.5t-20.5 -59.5q-3 -10 -8 -16.5
t-16 -6.5q-10 0 -14 14.5t-3 37.5q2 22 -4.5 44.5t-18.5 41.5q-16 26 -39 43t-49 17q-53 0 -98 -28.5t-79.5 -76t-59 -106.5t-37 -121.5t-12.5 -118.5q0 -37 8 -65t24 -47t40 -28t56 -9q39 0 76.5 17.5t73.5 50.5t70 77q8 11 13.5 19t12.5 8q8 0 13.5 -8t2.5 -19
q-7 -25 -18 -56.5t-24 -59.5t-24.5 -46.5t-18.5 -18.5q-10 0 -15 3.5t-11 7.5t-14.5 6.5t-24.5 2.5q-12 0 -26 -3.5t-31 -8.5q-18 -4 -41.5 -8.5t-52.5 -4.5zM395 692q-21 0 -16 13q3 8 14 16l133 96q23 17 35 23.5t26 6.5q15 0 23 -6.5t21 -23.5l78 -95q4 -4 4 -8.5
t-1 -8.5q-3 -14 -21 -14q-9 0 -30.5 9t-45 20.5t-38.5 19.5q-12 7 -26 0q-14 -6 -36 -14.5t-45.5 -16t-43.5 -12.5t-31 -5z" />
    <glyph glyph-name="Cdotaccent" unicode="&#x10a;" horiz-adv-x="673" 
d="M314 -14q-55 0 -102 20.5t-82 56.5t-54 84.5t-19 105.5q0 90 35.5 165t98 130t145 85.5t177.5 30.5q35 0 62 -6.5t47 -13.5q19 -6 30 -9.5t23 -3.5q7 0 13 1t13 5q8 5 15.5 8t14.5 3q10 0 12.5 -6.5t-4.5 -17.5q-13 -17 -28 -48t-27.5 -64.5t-20.5 -59.5q-3 -10 -8 -16.5
t-16 -6.5q-10 0 -14 14.5t-3 37.5q2 22 -4.5 44.5t-18.5 41.5q-16 26 -39 43t-49 17q-53 0 -98 -28.5t-79.5 -76t-59 -106.5t-37 -121.5t-12.5 -118.5q0 -37 8 -65t24 -47t40 -28t56 -9q39 0 76.5 17.5t73.5 50.5t70 77q8 11 13.5 19t12.5 8q8 0 13.5 -8t2.5 -19
q-7 -25 -18 -56.5t-24 -59.5t-24.5 -46.5t-18.5 -18.5q-10 0 -15 3.5t-11 7.5t-14.5 6.5t-24.5 2.5q-12 0 -26 -3.5t-31 -8.5q-18 -4 -41.5 -8.5t-52.5 -4.5zM548 692q-31 0 -52 19.5t-21 43.5q0 41 32.5 70t82.5 29q32 0 52 -21.5t20 -48.5q0 -24 -16 -45t-42 -34t-56 -13z
" />
    <glyph glyph-name="D" unicode="D" horiz-adv-x="729" 
d="M303 -7q-40 0 -80.5 3t-72 5.5t-44.5 2.5q-20 0 -47.5 -1.5t-56 -3.5t-50.5 -2q-6 0 -10.5 4t-2.5 11q6 17 26 22q27 6 43.5 12.5t26 18.5t15.5 32l141 454q6 23 4 35t-14 19t-36 13q-8 2 -11.5 7.5t-0.5 14.5q2 7 9.5 11t13.5 4q33 0 75.5 -2.5t72.5 -2.5q20 0 41 1
t47.5 2t61.5 1q94 0 158 -37t97 -98.5t33 -133.5q0 -79 -34.5 -149.5t-95 -125t-140 -86t-169.5 -31.5zM302 31q50 0 97.5 32.5t85.5 86t60.5 119.5t22.5 133q0 79 -17 125.5t-47.5 67t-69.5 20.5q-19 0 -33 -4t-22.5 -13.5t-13.5 -25.5l-135 -453q-10 -33 0.5 -52.5
t31.5 -27.5t40 -8z" />
    <glyph glyph-name="Eth" unicode="&#xd0;" horiz-adv-x="729" 
d="M58 304q-13 0 -15 10.5t1 20.5q4 14 14.5 22.5t23.5 8.5h301q10 0 16 -6t2 -13q-10 -19 -26.5 -31t-30.5 -12h-286zM303 -7q-40 0 -80.5 3t-72 5.5t-44.5 2.5q-20 0 -47.5 -1.5t-56 -3.5t-50.5 -2q-6 0 -10.5 4t-2.5 11q6 17 26 22q27 6 43.5 12.5t26 18.5t15.5 32
l141 454q6 23 4 35t-14 19t-36 13q-8 2 -11.5 7.5t-0.5 14.5q2 7 9.5 11t13.5 4q33 0 75.5 -2.5t72.5 -2.5q20 0 41 1t47.5 2t61.5 1q94 0 158 -37t97 -98.5t33 -133.5q0 -79 -34.5 -149.5t-95 -125t-140 -86t-169.5 -31.5zM302 31q50 0 97.5 32.5t85.5 86t60.5 119.5
t22.5 133q0 79 -17 125.5t-47.5 67t-69.5 20.5q-19 0 -33 -4t-22.5 -13.5t-13.5 -25.5l-135 -453q-10 -33 0.5 -52.5t31.5 -27.5t40 -8z" />
    <glyph glyph-name="Dcaron" unicode="&#x10e;" horiz-adv-x="729" 
d="M303 -7q-40 0 -80.5 3t-72 5.5t-44.5 2.5q-20 0 -47.5 -1.5t-56 -3.5t-50.5 -2q-6 0 -10.5 4t-2.5 11q6 17 26 22q27 6 43.5 12.5t26 18.5t15.5 32l141 454q6 23 4 35t-14 19t-36 13q-8 2 -11.5 7.5t-0.5 14.5q2 7 9.5 11t13.5 4q33 0 75.5 -2.5t72.5 -2.5q20 0 41 1
t47.5 2t61.5 1q94 0 158 -37t97 -98.5t33 -133.5q0 -79 -34.5 -149.5t-95 -125t-140 -86t-169.5 -31.5zM302 31q50 0 97.5 32.5t85.5 86t60.5 119.5t22.5 133q0 79 -17 125.5t-47.5 67t-69.5 20.5q-19 0 -33 -4t-22.5 -13.5t-13.5 -25.5l-135 -453q-10 -33 0.5 -52.5
t31.5 -27.5t40 -8zM461 698q-14 0 -22 7t-21 23l-76 96q-6 8 -4 16q3 13 24 13q8 0 28.5 -8.5t42.5 -20.5t35 -21q5 -4 10.5 -4t13.5 4q15 7 40 15.5t51.5 16.5t47 13.5t27.5 5.5q16 0 16 -13q0 -11 -12 -20l-139 -93q-23 -16 -35 -23t-27 -7z" />
    <glyph glyph-name="Dcroat" unicode="&#x110;" horiz-adv-x="729" 
d="M58 304q-13 0 -15 10.5t1 20.5q4 14 14.5 22.5t23.5 8.5h301q10 0 16 -6t2 -13q-10 -19 -26.5 -31t-30.5 -12h-286zM303 -7q-40 0 -80.5 3t-72 5.5t-44.5 2.5q-20 0 -47.5 -1.5t-56 -3.5t-50.5 -2q-6 0 -10.5 4t-2.5 11q6 17 26 22q27 6 43.5 12.5t26 18.5t15.5 32
l141 454q6 23 4 35t-14 19t-36 13q-8 2 -11.5 7.5t-0.5 14.5q2 7 9.5 11t13.5 4q33 0 75.5 -2.5t72.5 -2.5q20 0 41 1t47.5 2t61.5 1q94 0 158 -37t97 -98.5t33 -133.5q0 -79 -34.5 -149.5t-95 -125t-140 -86t-169.5 -31.5zM302 31q50 0 97.5 32.5t85.5 86t60.5 119.5
t22.5 133q0 79 -17 125.5t-47.5 67t-69.5 20.5q-19 0 -33 -4t-22.5 -13.5t-13.5 -25.5l-135 -453q-10 -33 0.5 -52.5t31.5 -27.5t40 -8z" />
    <glyph glyph-name="E" unicode="E" horiz-adv-x="572" 
d="M-45 -5q-9 0 -12 5t-2 11q4 15 26 21q36 11 53 21.5t27 41.5l141 456q10 32 1.5 45.5t-40.5 21.5q-11 3 -15 9t-2 12q2 7 12 11.5t32 4.5q14 0 36 -1.5t46 -3t44 -1.5l166 1q43 0 70 3.5t42.5 6.5t21.5 3q8 0 14 -5.5t6 -16.5q0 -13 -6.5 -36.5t-13 -49t-6.5 -46.5
q0 -10 -5.5 -15t-10.5 -5q-4 0 -9 4t-7 13q-7 58 -21 83t-52 25h-68q-25 0 -42 -16.5t-31 -65.5l-44 -153q-4 -13 1 -18.5t17 -5.5h84q26 0 45 17t35 45q5 9 13 13.5t14 4.5q5 0 7.5 -6t-2.5 -17q-9 -22 -17 -42.5t-14 -40.5t-11 -40t-10 -43q-4 -15 -9 -21.5t-10 -6.5
q-7 0 -12.5 7t-4.5 17q2 32 -4.5 50.5t-25.5 18.5h-97q-11 0 -18.5 -6t-10.5 -17l-50 -173q-11 -37 1.5 -57t52.5 -20h72q20 0 41 7t39 19q22 14 41 42.5t38 56.5q5 8 8.5 10t9.5 2t8.5 -5t2.5 -18q0 -11 -8.5 -37.5t-21.5 -56.5t-28 -50q-5 -7 -12.5 -9.5t-15.5 -2.5
q-4 0 -30 0.5t-65.5 1t-85.5 1t-91.5 1t-81.5 0.5q-20 0 -46.5 -1t-52.5 -2.5t-46 -1.5z" />
    <glyph glyph-name="Eacute" unicode="&#xc9;" horiz-adv-x="572" 
d="M-45 -5q-9 0 -12 5t-2 11q4 15 26 21q36 11 53 21.5t27 41.5l141 456q10 32 1.5 45.5t-40.5 21.5q-11 3 -15 9t-2 12q2 7 12 11.5t32 4.5q14 0 36 -1.5t46 -3t44 -1.5l166 1q43 0 70 3.5t42.5 6.5t21.5 3q8 0 14 -5.5t6 -16.5q0 -13 -6.5 -36.5t-13 -49t-6.5 -46.5
q0 -10 -5.5 -15t-10.5 -5q-4 0 -9 4t-7 13q-7 58 -21 83t-52 25h-68q-25 0 -42 -16.5t-31 -65.5l-44 -153q-4 -13 1 -18.5t17 -5.5h84q26 0 45 17t35 45q5 9 13 13.5t14 4.5q5 0 7.5 -6t-2.5 -17q-9 -22 -17 -42.5t-14 -40.5t-11 -40t-10 -43q-4 -15 -9 -21.5t-10 -6.5
q-7 0 -12.5 7t-4.5 17q2 32 -4.5 50.5t-25.5 18.5h-97q-11 0 -18.5 -6t-10.5 -17l-50 -173q-11 -37 1.5 -57t52.5 -20h72q20 0 41 7t39 19q22 14 41 42.5t38 56.5q5 8 8.5 10t9.5 2t8.5 -5t2.5 -18q0 -11 -8.5 -37.5t-21.5 -56.5t-28 -50q-5 -7 -12.5 -9.5t-15.5 -2.5
q-4 0 -30 0.5t-65.5 1t-85.5 1t-91.5 1t-81.5 0.5q-20 0 -46.5 -1t-52.5 -2.5t-46 -1.5zM360 681q-12 0 -14 8q-1 7 9 23q23 37 46.5 70.5t51.5 67.5q12 15 34 15q8 0 27.5 -4.5t35.5 -12t15 -16.5q-1 -12 -18 -24q-38 -28 -80 -59.5t-81 -57.5q-9 -6 -16 -8t-10 -2z" />
    <glyph glyph-name="Ebreve" unicode="&#x114;" horiz-adv-x="572" 
d="M-45 -5q-9 0 -12 5t-2 11q4 15 26 21q36 11 53 21.5t27 41.5l141 456q10 32 1.5 45.5t-40.5 21.5q-11 3 -15 9t-2 12q2 7 12 11.5t32 4.5q14 0 36 -1.5t46 -3t44 -1.5l166 1q43 0 70 3.5t42.5 6.5t21.5 3q8 0 14 -5.5t6 -16.5q0 -13 -6.5 -36.5t-13 -49t-6.5 -46.5
q0 -10 -5.5 -15t-10.5 -5q-4 0 -9 4t-7 13q-7 58 -21 83t-52 25h-68q-25 0 -42 -16.5t-31 -65.5l-44 -153q-4 -13 1 -18.5t17 -5.5h84q26 0 45 17t35 45q5 9 13 13.5t14 4.5q5 0 7.5 -6t-2.5 -17q-9 -22 -17 -42.5t-14 -40.5t-11 -40t-10 -43q-4 -15 -9 -21.5t-10 -6.5
q-7 0 -12.5 7t-4.5 17q2 32 -4.5 50.5t-25.5 18.5h-97q-11 0 -18.5 -6t-10.5 -17l-50 -173q-11 -37 1.5 -57t52.5 -20h72q20 0 41 7t39 19q22 14 41 42.5t38 56.5q5 8 8.5 10t9.5 2t8.5 -5t2.5 -18q0 -11 -8.5 -37.5t-21.5 -56.5t-28 -50q-5 -7 -12.5 -9.5t-15.5 -2.5
q-4 0 -30 0.5t-65.5 1t-85.5 1t-91.5 1t-81.5 0.5q-20 0 -46.5 -1t-52.5 -2.5t-46 -1.5zM418 685q-44 0 -72.5 19t-42.5 45.5t-14 49.5q0 17 6.5 29t19.5 12q9 0 13 -6t10 -16q16 -25 35 -35.5t54 -10.5t61 9t54 37q11 11 19.5 16.5t17.5 5.5q13 0 13 -20q0 -16 -10 -38.5
t-31 -44.5t-54 -37t-79 -15z" />
    <glyph glyph-name="Ecaron" unicode="&#x11a;" horiz-adv-x="572" 
d="M-45 -5q-9 0 -12 5t-2 11q4 15 26 21q36 11 53 21.5t27 41.5l141 456q10 32 1.5 45.5t-40.5 21.5q-11 3 -15 9t-2 12q2 7 12 11.5t32 4.5q14 0 36 -1.5t46 -3t44 -1.5l166 1q43 0 70 3.5t42.5 6.5t21.5 3q8 0 14 -5.5t6 -16.5q0 -13 -6.5 -36.5t-13 -49t-6.5 -46.5
q0 -10 -5.5 -15t-10.5 -5q-4 0 -9 4t-7 13q-7 58 -21 83t-52 25h-68q-25 0 -42 -16.5t-31 -65.5l-44 -153q-4 -13 1 -18.5t17 -5.5h84q26 0 45 17t35 45q5 9 13 13.5t14 4.5q5 0 7.5 -6t-2.5 -17q-9 -22 -17 -42.5t-14 -40.5t-11 -40t-10 -43q-4 -15 -9 -21.5t-10 -6.5
q-7 0 -12.5 7t-4.5 17q2 32 -4.5 50.5t-25.5 18.5h-97q-11 0 -18.5 -6t-10.5 -17l-50 -173q-11 -37 1.5 -57t52.5 -20h72q20 0 41 7t39 19q22 14 41 42.5t38 56.5q5 8 8.5 10t9.5 2t8.5 -5t2.5 -18q0 -11 -8.5 -37.5t-21.5 -56.5t-28 -50q-5 -7 -12.5 -9.5t-15.5 -2.5
q-4 0 -30 0.5t-65.5 1t-85.5 1t-91.5 1t-81.5 0.5q-20 0 -46.5 -1t-52.5 -2.5t-46 -1.5zM406 698q-14 0 -22 7t-21 23l-76 96q-6 8 -4 16q3 13 24 13q8 0 28.5 -8.5t42.5 -20.5t35 -21q5 -4 10.5 -4t13.5 4q15 7 40 15.5t51.5 16.5t47 13.5t27.5 5.5q16 0 16 -13
q0 -11 -12 -20l-139 -93q-23 -16 -35 -23t-27 -7z" />
    <glyph glyph-name="Ecircumflex" unicode="&#xca;" horiz-adv-x="572" 
d="M-45 -5q-9 0 -12 5t-2 11q4 15 26 21q36 11 53 21.5t27 41.5l141 456q10 32 1.5 45.5t-40.5 21.5q-11 3 -15 9t-2 12q2 7 12 11.5t32 4.5q14 0 36 -1.5t46 -3t44 -1.5l166 1q43 0 70 3.5t42.5 6.5t21.5 3q8 0 14 -5.5t6 -16.5q0 -13 -6.5 -36.5t-13 -49t-6.5 -46.5
q0 -10 -5.5 -15t-10.5 -5q-4 0 -9 4t-7 13q-7 58 -21 83t-52 25h-68q-25 0 -42 -16.5t-31 -65.5l-44 -153q-4 -13 1 -18.5t17 -5.5h84q26 0 45 17t35 45q5 9 13 13.5t14 4.5q5 0 7.5 -6t-2.5 -17q-9 -22 -17 -42.5t-14 -40.5t-11 -40t-10 -43q-4 -15 -9 -21.5t-10 -6.5
q-7 0 -12.5 7t-4.5 17q2 32 -4.5 50.5t-25.5 18.5h-97q-11 0 -18.5 -6t-10.5 -17l-50 -173q-11 -37 1.5 -57t52.5 -20h72q20 0 41 7t39 19q22 14 41 42.5t38 56.5q5 8 8.5 10t9.5 2t8.5 -5t2.5 -18q0 -11 -8.5 -37.5t-21.5 -56.5t-28 -50q-5 -7 -12.5 -9.5t-15.5 -2.5
q-4 0 -30 0.5t-65.5 1t-85.5 1t-91.5 1t-81.5 0.5q-20 0 -46.5 -1t-52.5 -2.5t-46 -1.5zM257 692q-21 0 -16 13q3 8 14 16l133 96q23 17 35 23.5t26 6.5q15 0 23 -6.5t21 -23.5l78 -95q4 -4 4 -8.5t-1 -8.5q-3 -14 -21 -14q-9 0 -30.5 9t-45 20.5t-38.5 19.5q-12 7 -26 0
q-14 -6 -36 -14.5t-45.5 -16t-43.5 -12.5t-31 -5z" />
    <glyph glyph-name="Edieresis" unicode="&#xcb;" horiz-adv-x="572" 
d="M-45 -5q-9 0 -12 5t-2 11q4 15 26 21q36 11 53 21.5t27 41.5l141 456q10 32 1.5 45.5t-40.5 21.5q-11 3 -15 9t-2 12q2 7 12 11.5t32 4.5q14 0 36 -1.5t46 -3t44 -1.5l166 1q43 0 70 3.5t42.5 6.5t21.5 3q8 0 14 -5.5t6 -16.5q0 -13 -6.5 -36.5t-13 -49t-6.5 -46.5
q0 -10 -5.5 -15t-10.5 -5q-4 0 -9 4t-7 13q-7 58 -21 83t-52 25h-68q-25 0 -42 -16.5t-31 -65.5l-44 -153q-4 -13 1 -18.5t17 -5.5h84q26 0 45 17t35 45q5 9 13 13.5t14 4.5q5 0 7.5 -6t-2.5 -17q-9 -22 -17 -42.5t-14 -40.5t-11 -40t-10 -43q-4 -15 -9 -21.5t-10 -6.5
q-7 0 -12.5 7t-4.5 17q2 32 -4.5 50.5t-25.5 18.5h-97q-11 0 -18.5 -6t-10.5 -17l-50 -173q-11 -37 1.5 -57t52.5 -20h72q20 0 41 7t39 19q22 14 41 42.5t38 56.5q5 8 8.5 10t9.5 2t8.5 -5t2.5 -18q0 -11 -8.5 -37.5t-21.5 -56.5t-28 -50q-5 -7 -12.5 -9.5t-15.5 -2.5
q-4 0 -30 0.5t-65.5 1t-85.5 1t-91.5 1t-81.5 0.5q-20 0 -46.5 -1t-52.5 -2.5t-46 -1.5zM508 686q-27 0 -45.5 18.5t-18.5 41.5q0 37 28.5 65t72.5 28q28 0 45.5 -20t17.5 -46q0 -23 -14 -43t-36.5 -32t-49.5 -12zM310 686q-28 0 -46 18.5t-18 41.5q0 38 29 65.5t72 27.5
q27 0 44.5 -20t17.5 -46q0 -34 -29.5 -60.5t-69.5 -26.5z" />
    <glyph glyph-name="Edotaccent" unicode="&#x116;" horiz-adv-x="572" 
d="M-45 -5q-9 0 -12 5t-2 11q4 15 26 21q36 11 53 21.5t27 41.5l141 456q10 32 1.5 45.5t-40.5 21.5q-11 3 -15 9t-2 12q2 7 12 11.5t32 4.5q14 0 36 -1.5t46 -3t44 -1.5l166 1q43 0 70 3.5t42.5 6.5t21.5 3q8 0 14 -5.5t6 -16.5q0 -13 -6.5 -36.5t-13 -49t-6.5 -46.5
q0 -10 -5.5 -15t-10.5 -5q-4 0 -9 4t-7 13q-7 58 -21 83t-52 25h-68q-25 0 -42 -16.5t-31 -65.5l-44 -153q-4 -13 1 -18.5t17 -5.5h84q26 0 45 17t35 45q5 9 13 13.5t14 4.5q5 0 7.5 -6t-2.5 -17q-9 -22 -17 -42.5t-14 -40.5t-11 -40t-10 -43q-4 -15 -9 -21.5t-10 -6.5
q-7 0 -12.5 7t-4.5 17q2 32 -4.5 50.5t-25.5 18.5h-97q-11 0 -18.5 -6t-10.5 -17l-50 -173q-11 -37 1.5 -57t52.5 -20h72q20 0 41 7t39 19q22 14 41 42.5t38 56.5q5 8 8.5 10t9.5 2t8.5 -5t2.5 -18q0 -11 -8.5 -37.5t-21.5 -56.5t-28 -50q-5 -7 -12.5 -9.5t-15.5 -2.5
q-4 0 -30 0.5t-65.5 1t-85.5 1t-91.5 1t-81.5 0.5q-20 0 -46.5 -1t-52.5 -2.5t-46 -1.5zM410 692q-31 0 -52 19.5t-21 43.5q0 41 32.5 70t82.5 29q32 0 52 -21.5t20 -48.5q0 -24 -16 -45t-42 -34t-56 -13z" />
    <glyph glyph-name="Egrave" unicode="&#xc8;" horiz-adv-x="572" 
d="M-45 -5q-9 0 -12 5t-2 11q4 15 26 21q36 11 53 21.5t27 41.5l141 456q10 32 1.5 45.5t-40.5 21.5q-11 3 -15 9t-2 12q2 7 12 11.5t32 4.5q14 0 36 -1.5t46 -3t44 -1.5l166 1q43 0 70 3.5t42.5 6.5t21.5 3q8 0 14 -5.5t6 -16.5q0 -13 -6.5 -36.5t-13 -49t-6.5 -46.5
q0 -10 -5.5 -15t-10.5 -5q-4 0 -9 4t-7 13q-7 58 -21 83t-52 25h-68q-25 0 -42 -16.5t-31 -65.5l-44 -153q-4 -13 1 -18.5t17 -5.5h84q26 0 45 17t35 45q5 9 13 13.5t14 4.5q5 0 7.5 -6t-2.5 -17q-9 -22 -17 -42.5t-14 -40.5t-11 -40t-10 -43q-4 -15 -9 -21.5t-10 -6.5
q-7 0 -12.5 7t-4.5 17q2 32 -4.5 50.5t-25.5 18.5h-97q-11 0 -18.5 -6t-10.5 -17l-50 -173q-11 -37 1.5 -57t52.5 -20h72q20 0 41 7t39 19q22 14 41 42.5t38 56.5q5 8 8.5 10t9.5 2t8.5 -5t2.5 -18q0 -11 -8.5 -37.5t-21.5 -56.5t-28 -50q-5 -7 -12.5 -9.5t-15.5 -2.5
q-4 0 -30 0.5t-65.5 1t-85.5 1t-91.5 1t-81.5 0.5q-20 0 -46.5 -1t-52.5 -2.5t-46 -1.5zM448 693q-3 0 -10.5 0.5t-17.5 4.5q-43 20 -90 43t-89 44q-18 9 -21 21q-2 8 12.5 17.5t32.5 17.5t25 10q21 6 36 -8q33 -30 60 -61t60 -58q14 -11 14 -21t-12 -10z" />
    <glyph glyph-name="Emacron" unicode="&#x112;" horiz-adv-x="572" 
d="M-45 -5q-9 0 -12 5t-2 11q4 15 26 21q36 11 53 21.5t27 41.5l141 456q10 32 1.5 45.5t-40.5 21.5q-11 3 -15 9t-2 12q2 7 12 11.5t32 4.5q14 0 36 -1.5t46 -3t44 -1.5l166 1q43 0 70 3.5t42.5 6.5t21.5 3q8 0 14 -5.5t6 -16.5q0 -13 -6.5 -36.5t-13 -49t-6.5 -46.5
q0 -10 -5.5 -15t-10.5 -5q-4 0 -9 4t-7 13q-7 58 -21 83t-52 25h-68q-25 0 -42 -16.5t-31 -65.5l-44 -153q-4 -13 1 -18.5t17 -5.5h84q26 0 45 17t35 45q5 9 13 13.5t14 4.5q5 0 7.5 -6t-2.5 -17q-9 -22 -17 -42.5t-14 -40.5t-11 -40t-10 -43q-4 -15 -9 -21.5t-10 -6.5
q-7 0 -12.5 7t-4.5 17q2 32 -4.5 50.5t-25.5 18.5h-97q-11 0 -18.5 -6t-10.5 -17l-50 -173q-11 -37 1.5 -57t52.5 -20h72q20 0 41 7t39 19q22 14 41 42.5t38 56.5q5 8 8.5 10t9.5 2t8.5 -5t2.5 -18q0 -11 -8.5 -37.5t-21.5 -56.5t-28 -50q-5 -7 -12.5 -9.5t-15.5 -2.5
q-4 0 -30 0.5t-65.5 1t-85.5 1t-91.5 1t-81.5 0.5q-20 0 -46.5 -1t-52.5 -2.5t-46 -1.5zM280 716q-10 0 -15.5 6t-5.5 13q0 30 13 48.5t27 18.5h270q10 0 15 -5.5t5 -13.5q0 -26 -13 -46.5t-30 -20.5h-266z" />
    <glyph glyph-name="Eogonek" unicode="&#x118;" horiz-adv-x="600" 
d="M-45 -5q-9 0 -12 5t-2 11q4 15 26 21q36 11 53 21.5t27 41.5l141 456q10 32 1.5 45.5t-40.5 21.5q-11 3 -15 9t-2 12q2 7 12 11.5t32 4.5q14 0 36 -1.5t46 -3t44 -1.5l166 1q43 0 70 3.5t42.5 6.5t21.5 3q8 0 14 -5.5t6 -16.5q0 -13 -6.5 -36.5t-13 -49t-6.5 -46.5
q0 -10 -5.5 -15t-10.5 -5q-4 0 -9 4t-7 13q-7 58 -21 83t-52 25h-68q-25 0 -42 -16.5t-31 -65.5l-44 -153q-4 -13 1 -18.5t17 -5.5h84q26 0 45 17t35 45q5 9 13 13.5t14 4.5q5 0 7.5 -6t-2.5 -17q-9 -22 -17 -42.5t-14 -40.5t-11 -40t-10 -43q-4 -15 -9 -21.5t-10 -6.5
q-7 0 -12.5 7t-4.5 17q2 32 -4.5 50.5t-25.5 18.5h-97q-11 0 -18.5 -6t-10.5 -17l-50 -173q-11 -37 1.5 -57t52.5 -20h72q20 0 41 7t39 19q22 14 41 42.5t38 56.5q5 8 8.5 10t9.5 2t8.5 -5t2.5 -18q0 -11 -8.5 -37.5t-21.5 -56.5t-28 -50q-5 -7 -12.5 -9.5t-15.5 -2.5
q-4 0 -30 0.5t-65.5 1t-85.5 1t-91.5 1t-81.5 0.5q-20 0 -46.5 -1t-52.5 -2.5t-46 -1.5zM295 -287q-23 0 -43 13t-31.5 32.5t-11.5 39.5q0 38 19 70.5t49 60t64.5 49.5t66.5 40h44q-32 -22 -59.5 -55.5t-44 -68.5t-16.5 -64q0 -13 8 -20.5t24 -7.5q12 0 27.5 11t28.5 29
q2 2 4 5t5 5t7 2q7 0 8 -6t1 -11q0 -18 -14 -39.5t-36 -41t-48.5 -31.5t-51.5 -12z" />
    <glyph glyph-name="F" unicode="F" horiz-adv-x="541" 
d="M-34 -3q-6 0 -10.5 4t-2.5 11q3 9 9.5 14.5t16.5 7.5q41 8 58 20t27 43l141 454q10 32 2.5 45.5t-36.5 20.5q-15 4 -18.5 10t-1.5 12q2 7 10 11.5t22 4.5q28 0 66.5 -2.5t68.5 -2.5h160q70 0 105 7t51 7q8 0 15 -4.5t4 -16.5q-1 -6 -2.5 -12t-3.5 -12q-5 -20 -16 -50.5
t-17 -70.5q-1 -10 -6 -15t-10 -5t-8.5 4t-3.5 13q-1 26 -5.5 47t-13.5 37q-10 17 -27 26.5t-40 10.5l-50 1q-25 1 -44.5 -12.5t-26.5 -35.5q-3 -10 -11 -36t-17 -57.5t-17 -57.5t-11 -35q-4 -13 4 -22.5t42 -9.5h27q65 0 102 60q6 9 13.5 13.5t13.5 4.5q5 0 7 -6t-2 -17
q-17 -41 -28 -76t-19 -73q-3 -15 -8.5 -21.5t-10.5 -6.5q-7 0 -11.5 7t-4.5 17q0 31 -8 43.5t-27 12.5h-25.5h-35h-25.5q-17 0 -26.5 -8.5t-12.5 -19.5l-54 -183q-6 -21 -2 -34t21 -20t50 -10q8 -1 11.5 -6t0.5 -15q-2 -7 -7.5 -11t-13.5 -4q-21 0 -55 1t-67.5 2t-53.5 1
q-30 0 -74.5 -2.5t-77.5 -2.5z" />
    <glyph glyph-name="G" unicode="G" horiz-adv-x="734" 
d="M328 -14q-75 0 -134 26.5t-95.5 76.5t-44.5 119.5t18 154.5q19 61 59.5 115.5t99 96t132 65.5t157.5 24q35 0 62 -6.5t47 -13.5q19 -6 30 -9.5t23 -3.5q7 0 13 1t13 5q8 5 15.5 8t14.5 3q11 0 13 -7.5t-5 -16.5q-13 -17 -27.5 -46t-26.5 -60.5t-20 -57.5q-3 -10 -8 -16.5
t-16 -6.5q-22 0 -19 44q2 31 -1.5 56.5t-17.5 44.5q-14 20 -40.5 33t-55.5 13q-41 0 -82 -19t-79.5 -58t-72.5 -100t-60 -145q-18 -59 -15.5 -110.5t22 -90t54 -60.5t79.5 -22q36 0 62.5 24.5t36.5 55.5l34 112q3 11 1 20.5t-16 15.5q-13 6 -31.5 10.5t-30.5 7.5
q-8 2 -14.5 8t-3.5 15q2 7 10 11t16 4q22 0 52 -2.5t59 -5t49 -2.5q29 0 61 4.5t80 4.5q16 0 11 -15q-3 -10 -9 -14.5t-16 -6.5q-32 -7 -45.5 -18t-24.5 -31q-8 -15 -17.5 -37t-16 -41t-6.5 -26q0 -11 6 -20t16 -20q-9 -18 -43 -34t-80 -29t-92.5 -20.5t-79.5 -7.5z" />
    <glyph glyph-name="Gbreve" unicode="&#x11e;" horiz-adv-x="734" 
d="M328 -14q-75 0 -134 26.5t-95.5 76.5t-44.5 119.5t18 154.5q19 61 59.5 115.5t99 96t132 65.5t157.5 24q35 0 62 -6.5t47 -13.5q19 -6 30 -9.5t23 -3.5q7 0 13 1t13 5q8 5 15.5 8t14.5 3q11 0 13 -7.5t-5 -16.5q-13 -17 -27.5 -46t-26.5 -60.5t-20 -57.5q-3 -10 -8 -16.5
t-16 -6.5q-22 0 -19 44q2 31 -1.5 56.5t-17.5 44.5q-14 20 -40.5 33t-55.5 13q-41 0 -82 -19t-79.5 -58t-72.5 -100t-60 -145q-18 -59 -15.5 -110.5t22 -90t54 -60.5t79.5 -22q36 0 62.5 24.5t36.5 55.5l34 112q3 11 1 20.5t-16 15.5q-13 6 -31.5 10.5t-30.5 7.5
q-8 2 -14.5 8t-3.5 15q2 7 10 11t16 4q22 0 52 -2.5t59 -5t49 -2.5q29 0 61 4.5t80 4.5q16 0 11 -15q-3 -10 -9 -14.5t-16 -6.5q-32 -7 -45.5 -18t-24.5 -31q-8 -15 -17.5 -37t-16 -41t-6.5 -26q0 -11 6 -20t16 -20q-9 -18 -43 -34t-80 -29t-92.5 -20.5t-79.5 -7.5zM531 685
q-44 0 -72.5 19t-42.5 45.5t-14 49.5q0 17 6.5 29t19.5 12q9 0 13 -6t10 -16q16 -25 35 -35.5t54 -10.5t61 9t54 37q11 11 19.5 16.5t17.5 5.5q13 0 13 -20q0 -16 -10 -38.5t-31 -44.5t-54 -37t-79 -15z" />
    <glyph glyph-name="Gcaron" unicode="&#x1e6;" horiz-adv-x="734" 
d="M328 -14q-75 0 -134 26.5t-95.5 76.5t-44.5 119.5t18 154.5q19 61 59.5 115.5t99 96t132 65.5t157.5 24q35 0 62 -6.5t47 -13.5q19 -6 30 -9.5t23 -3.5q7 0 13 1t13 5q8 5 15.5 8t14.5 3q11 0 13 -7.5t-5 -16.5q-13 -17 -27.5 -46t-26.5 -60.5t-20 -57.5q-3 -10 -8 -16.5
t-16 -6.5q-22 0 -19 44q2 31 -1.5 56.5t-17.5 44.5q-14 20 -40.5 33t-55.5 13q-41 0 -82 -19t-79.5 -58t-72.5 -100t-60 -145q-18 -59 -15.5 -110.5t22 -90t54 -60.5t79.5 -22q36 0 62.5 24.5t36.5 55.5l34 112q3 11 1 20.5t-16 15.5q-13 6 -31.5 10.5t-30.5 7.5
q-8 2 -14.5 8t-3.5 15q2 7 10 11t16 4q22 0 52 -2.5t59 -5t49 -2.5q29 0 61 4.5t80 4.5q16 0 11 -15q-3 -10 -9 -14.5t-16 -6.5q-32 -7 -45.5 -18t-24.5 -31q-8 -15 -17.5 -37t-16 -41t-6.5 -26q0 -11 6 -20t16 -20q-9 -18 -43 -34t-80 -29t-92.5 -20.5t-79.5 -7.5zM519 698
q-14 0 -22 7t-21 23l-76 96q-6 8 -4 16q3 13 24 13q8 0 28.5 -8.5t42.5 -20.5t35 -21q5 -4 10.5 -4t13.5 4q15 7 40 15.5t51.5 16.5t47 13.5t27.5 5.5q16 0 16 -13q0 -11 -12 -20l-139 -93q-23 -16 -35 -23t-27 -7z" />
    <glyph glyph-name="Gcircumflex" unicode="&#x11c;" horiz-adv-x="734" 
d="M328 -14q-75 0 -134 26.5t-95.5 76.5t-44.5 119.5t18 154.5q19 61 59.5 115.5t99 96t132 65.5t157.5 24q35 0 62 -6.5t47 -13.5q19 -6 30 -9.5t23 -3.5q7 0 13 1t13 5q8 5 15.5 8t14.5 3q11 0 13 -7.5t-5 -16.5q-13 -17 -27.5 -46t-26.5 -60.5t-20 -57.5q-3 -10 -8 -16.5
t-16 -6.5q-22 0 -19 44q2 31 -1.5 56.5t-17.5 44.5q-14 20 -40.5 33t-55.5 13q-41 0 -82 -19t-79.5 -58t-72.5 -100t-60 -145q-18 -59 -15.5 -110.5t22 -90t54 -60.5t79.5 -22q36 0 62.5 24.5t36.5 55.5l34 112q3 11 1 20.5t-16 15.5q-13 6 -31.5 10.5t-30.5 7.5
q-8 2 -14.5 8t-3.5 15q2 7 10 11t16 4q22 0 52 -2.5t59 -5t49 -2.5q29 0 61 4.5t80 4.5q16 0 11 -15q-3 -10 -9 -14.5t-16 -6.5q-32 -7 -45.5 -18t-24.5 -31q-8 -15 -17.5 -37t-16 -41t-6.5 -26q0 -11 6 -20t16 -20q-9 -18 -43 -34t-80 -29t-92.5 -20.5t-79.5 -7.5zM370 692
q-21 0 -16 13q3 8 14 16l133 96q23 17 35 23.5t26 6.5q15 0 23 -6.5t21 -23.5l78 -95q4 -4 4 -8.5t-1 -8.5q-3 -14 -21 -14q-9 0 -30.5 9t-45 20.5t-38.5 19.5q-12 7 -26 0q-14 -6 -36 -14.5t-45.5 -16t-43.5 -12.5t-31 -5z" />
    <glyph glyph-name="Gdotaccent" unicode="&#x120;" horiz-adv-x="734" 
d="M328 -14q-75 0 -134 26.5t-95.5 76.5t-44.5 119.5t18 154.5q19 61 59.5 115.5t99 96t132 65.5t157.5 24q35 0 62 -6.5t47 -13.5q19 -6 30 -9.5t23 -3.5q7 0 13 1t13 5q8 5 15.5 8t14.5 3q11 0 13 -7.5t-5 -16.5q-13 -17 -27.5 -46t-26.5 -60.5t-20 -57.5q-3 -10 -8 -16.5
t-16 -6.5q-22 0 -19 44q2 31 -1.5 56.5t-17.5 44.5q-14 20 -40.5 33t-55.5 13q-41 0 -82 -19t-79.5 -58t-72.5 -100t-60 -145q-18 -59 -15.5 -110.5t22 -90t54 -60.5t79.5 -22q36 0 62.5 24.5t36.5 55.5l34 112q3 11 1 20.5t-16 15.5q-13 6 -31.5 10.5t-30.5 7.5
q-8 2 -14.5 8t-3.5 15q2 7 10 11t16 4q22 0 52 -2.5t59 -5t49 -2.5q29 0 61 4.5t80 4.5q16 0 11 -15q-3 -10 -9 -14.5t-16 -6.5q-32 -7 -45.5 -18t-24.5 -31q-8 -15 -17.5 -37t-16 -41t-6.5 -26q0 -11 6 -20t16 -20q-9 -18 -43 -34t-80 -29t-92.5 -20.5t-79.5 -7.5zM523 692
q-31 0 -52 19.5t-21 43.5q0 41 32.5 70t82.5 29q32 0 52 -21.5t20 -48.5q0 -24 -16 -45t-42 -34t-56 -13z" />
    <glyph glyph-name="uni0241" unicode="&#x241;" horiz-adv-x="500" 
d="M19 -3q-6 0 -10.5 4t-3.5 11q6 17 26 22q41 8 58.5 20t27.5 43l46 144q9 29 33 55t70 55q45 29 72 59.5t38.5 61.5t11.5 60q0 32 -18 55.5t-57 23.5q-24 0 -44 -6t-36.5 -16.5t-30.5 -25.5q-16 -18 -32.5 -41t-28.5 -45q-7 -13 -19 -17t-20 0.5t-5 16.5q3 11 11 32
t17.5 44t19 42.5t16.5 27.5q25 8 56 17.5t68.5 16.5t80.5 7q70 0 113 -22t63.5 -56.5t20.5 -74.5q0 -37 -21 -76.5t-60.5 -74.5t-95.5 -62q-31 -14 -41 -33t-19 -46l-39 -121q-9 -27 -1.5 -39.5t43.5 -23.5q8 -3 13.5 -7.5t2.5 -14.5q-2 -7 -7.5 -11t-13.5 -4q-21 0 -49.5 1
t-56.5 2t-48 1q-30 0 -74 -2.5t-77 -2.5z" />
    <glyph glyph-name="uni021C" unicode="&#x21c;" horiz-adv-x="566" 
d="M61 -198q-56 0 -101.5 7t-72 18t-26.5 23q0 26 14.5 37t31.5 11q11 0 25 -6t29 -14q18 -9 36.5 -17t37.5 -8q80 0 139 24t97.5 64t58 89.5t19.5 101.5q0 62 -23 89t-70 27q-28 0 -57.5 -8.5t-51.5 -16.5t-28 -8q-11 0 -10.5 9t6.5 19.5t11 16.5q7 9 25.5 19.5t46.5 19.5
q61 20 106.5 53.5t70.5 77t25 92.5q0 40 -18.5 63.5t-62.5 23.5t-71 -14t-50 -35q-19 -16 -33.5 -38t-25.5 -42q-5 -9 -13.5 -13.5t-16.5 -4.5q-7 0 -12 4.5t-2 13.5q7 22 18 53.5t27 67.5q5 11 12.5 18.5t17.5 8.5q34 6 63.5 14.5t61 15t70.5 6.5q74 0 117.5 -19
t62.5 -51.5t19 -72.5q0 -52 -45.5 -99.5t-127.5 -71.5q-12 -4 -10 -10t7 -8q79 -27 108.5 -66t29.5 -94q0 -66 -29 -123t-78 -102.5t-109.5 -78t-125 -49.5t-123.5 -17z" />
    <glyph glyph-name="H" unicode="H" horiz-adv-x="786" 
d="M-33 -3q-6 0 -10.5 4t-2.5 11q3 9 9.5 14.5t16.5 7.5q36 8 52.5 20t26.5 43l141 454q10 32 1.5 45t-41.5 22q-8 2 -11.5 7.5t-0.5 14.5q2 7 9.5 11t13.5 4q22 0 47.5 -1t50 -2.5t44.5 -1.5t48.5 1t58 2t50.5 1q16 0 11 -15q-3 -10 -9 -14t-17 -7q-30 -8 -46.5 -16
t-25 -20t-14.5 -32l-55 -181q-4 -15 11 -15h227q15 0 19 15l55 181q9 30 1 41.5t-45 26.5q-7 3 -11 7t-1 14q2 8 8 11.5t13 3.5q21 0 49.5 -1t56.5 -2t47 -1q20 0 45.5 1.5t52 2.5t48.5 1q6 0 10.5 -4t2.5 -11q-6 -17 -26 -22q-37 -9 -53.5 -22t-26.5 -45l-141 -454
q-10 -31 0 -43t41 -20q8 -2 11.5 -7.5t0.5 -14.5q-2 -7 -9.5 -11t-13.5 -4q-19 0 -44.5 1.5t-51.5 2.5t-46 1q-19 0 -48 -1t-58.5 -2t-50.5 -1q-15 0 -11 15q3 10 9.5 14t16.5 7q42 12 59 24t25 40l58 191q3 8 1.5 12.5t-9.5 4.5h-227q-17 0 -22 -17l-58 -191
q-8 -28 1.5 -39t44.5 -25q8 -3 11.5 -7t0.5 -14q-2 -7 -7.5 -11t-13.5 -4q-21 0 -49.5 1t-56 2t-47.5 1t-47 -1t-53.5 -2.5t-45.5 -1.5z" />
    <glyph glyph-name="Hbar" unicode="&#x126;" horiz-adv-x="800" 
d="M124 447q-11 0 -15.5 9t-0.5 22q5 14 15.5 22.5t23.5 8.5h692q10 0 14.5 -5.5t2.5 -13.5q-4 -15 -22 -29t-35 -14h-675zM-33 -3q-6 0 -10.5 4t-2.5 11q3 9 9.5 14.5t16.5 7.5q36 8 52.5 20t26.5 43l141 454q10 32 1.5 45t-41.5 22q-8 2 -11.5 7.5t-0.5 14.5q2 7 9.5 11
t13.5 4q22 0 47.5 -1t50 -2.5t44.5 -1.5t48.5 1t58 2t50.5 1q16 0 11 -15q-3 -10 -9 -14t-17 -7q-30 -8 -46.5 -16t-25 -20t-14.5 -32l-55 -181q-4 -15 11 -15h227q15 0 19 15l55 181q9 30 1 41.5t-45 26.5q-7 3 -11 7t-1 14q2 8 8 11.5t13 3.5q21 0 49.5 -1t56.5 -2t47 -1
q20 0 45.5 1.5t52 2.5t48.5 1q6 0 10.5 -4t2.5 -11q-6 -17 -26 -22q-37 -9 -53.5 -22t-26.5 -45l-141 -454q-10 -31 0 -43t41 -20q8 -2 11.5 -7.5t0.5 -14.5q-2 -7 -9.5 -11t-13.5 -4q-19 0 -44.5 1.5t-51.5 2.5t-46 1q-19 0 -48 -1t-58.5 -2t-50.5 -1q-15 0 -11 15
q3 10 9.5 14t16.5 7q42 12 59 24t25 40l58 191q3 8 1.5 12.5t-9.5 4.5h-227q-17 0 -22 -17l-58 -191q-8 -28 1.5 -39t44.5 -25q8 -3 11.5 -7t0.5 -14q-2 -7 -7.5 -11t-13.5 -4q-21 0 -49.5 1t-56 2t-47.5 1t-47 -1t-53.5 -2.5t-45.5 -1.5z" />
    <glyph glyph-name="Hcircumflex" unicode="&#x124;" horiz-adv-x="786" 
d="M-33 -3q-6 0 -10.5 4t-2.5 11q3 9 9.5 14.5t16.5 7.5q36 8 52.5 20t26.5 43l141 454q10 32 1.5 45t-41.5 22q-8 2 -11.5 7.5t-0.5 14.5q2 7 9.5 11t13.5 4q22 0 47.5 -1t50 -2.5t44.5 -1.5t48.5 1t58 2t50.5 1q16 0 11 -15q-3 -10 -9 -14t-17 -7q-30 -8 -46.5 -16
t-25 -20t-14.5 -32l-55 -181q-4 -15 11 -15h227q15 0 19 15l55 181q9 30 1 41.5t-45 26.5q-7 3 -11 7t-1 14q2 8 8 11.5t13 3.5q21 0 49.5 -1t56.5 -2t47 -1q20 0 45.5 1.5t52 2.5t48.5 1q6 0 10.5 -4t2.5 -11q-6 -17 -26 -22q-37 -9 -53.5 -22t-26.5 -45l-141 -454
q-10 -31 0 -43t41 -20q8 -2 11.5 -7.5t0.5 -14.5q-2 -7 -9.5 -11t-13.5 -4q-19 0 -44.5 1.5t-51.5 2.5t-46 1q-19 0 -48 -1t-58.5 -2t-50.5 -1q-15 0 -11 15q3 10 9.5 14t16.5 7q42 12 59 24t25 40l58 191q3 8 1.5 12.5t-9.5 4.5h-227q-17 0 -22 -17l-58 -191
q-8 -28 1.5 -39t44.5 -25q8 -3 11.5 -7t0.5 -14q-2 -7 -7.5 -11t-13.5 -4q-21 0 -49.5 1t-56 2t-47.5 1t-47 -1t-53.5 -2.5t-45.5 -1.5zM395 692q-21 0 -16 13q3 8 14 16l133 96q23 17 35 23.5t26 6.5q15 0 23 -6.5t21 -23.5l78 -95q4 -4 4 -8.5t-1 -8.5q-3 -14 -21 -14
q-9 0 -30.5 9t-45 20.5t-38.5 19.5q-12 7 -26 0q-14 -6 -36 -14.5t-45.5 -16t-43.5 -12.5t-31 -5z" />
    <glyph glyph-name="I" unicode="I" horiz-adv-x="381" 
d="M-33 -3q-6 0 -10.5 4t-2.5 11q6 17 26 22q41 9 58 20.5t27 42.5l141 454q10 32 1 44.5t-47 22.5q-8 2 -11.5 7.5t-0.5 14.5q2 7 9.5 11t13.5 4q22 0 49 -1t53 -2.5t46 -1.5t48.5 1t58 2t50.5 1q16 0 11 -15q-3 -10 -9 -14t-17 -7q-30 -8 -46.5 -16t-25 -20t-14.5 -32
l-126 -408q-12 -40 -15 -60t6.5 -28.5t31.5 -14.5q23 -6 29.5 -11t3.5 -15q-2 -7 -7.5 -11t-13.5 -4q-21 0 -52.5 1t-62 2t-50.5 1q-30 0 -74.5 -2.5t-77.5 -2.5z" />
    <glyph glyph-name="IJ" unicode="&#x132;" horiz-adv-x="778" 
d="M-33 -3q-6 0 -10.5 4t-2.5 11q6 17 26 22q41 9 58 20.5t27 42.5l141 454q10 32 1 44.5t-47 22.5q-8 2 -11.5 7.5t-0.5 14.5q2 7 9.5 11t13.5 4q22 0 49 -1t53 -2.5t46 -1.5t48.5 1t58 2t50.5 1q16 0 11 -15q-3 -10 -9 -14t-17 -7q-30 -8 -46.5 -16t-25 -20t-14.5 -32
l-126 -408q-12 -40 -15 -60t6.5 -28.5t31.5 -14.5q23 -6 29.5 -11t3.5 -15q-2 -7 -7.5 -11t-13.5 -4q-21 0 -52.5 1t-62 2t-50.5 1q-30 0 -74.5 -2.5t-77.5 -2.5zM317 -200q-77 0 -107.5 15.5t-31.5 42.5q0 31 11.5 52t29.5 21q14 0 30.5 -14t34.5 -31q19 -17 37 -32t33 -15
q16 0 29.5 20t28.5 61t34 105l163 526q10 32 1 45t-46 22q-8 2 -11.5 7.5t-0.5 14.5q2 7 9 11t13 4q22 0 49 -1t53.5 -2.5t46.5 -1.5t48.5 1t57.5 2t50 1q16 0 11 -15q-3 -10 -9 -14t-16 -7q-30 -8 -46.5 -16t-25 -20t-14.5 -32l-154 -498q-6 -21 -18 -44t-28.5 -46t-37 -45
t-43.5 -41q-40 -34 -86.5 -55t-94.5 -21z" />
    <glyph glyph-name="Iacute" unicode="&#xcd;" horiz-adv-x="381" 
d="M-33 -3q-6 0 -10.5 4t-2.5 11q6 17 26 22q41 9 58 20.5t27 42.5l141 454q10 32 1 44.5t-47 22.5q-8 2 -11.5 7.5t-0.5 14.5q2 7 9.5 11t13.5 4q22 0 49 -1t53 -2.5t46 -1.5t48.5 1t58 2t50.5 1q16 0 11 -15q-3 -10 -9 -14t-17 -7q-30 -8 -46.5 -16t-25 -20t-14.5 -32
l-126 -408q-12 -40 -15 -60t6.5 -28.5t31.5 -14.5q23 -6 29.5 -11t3.5 -15q-2 -7 -7.5 -11t-13.5 -4q-21 0 -52.5 1t-62 2t-50.5 1q-30 0 -74.5 -2.5t-77.5 -2.5zM288 681q-12 0 -14 8q-1 7 9 23q23 37 46.5 70.5t51.5 67.5q12 15 34 15q8 0 27.5 -4.5t35.5 -12t15 -16.5
q-1 -12 -18 -24q-38 -28 -80 -59.5t-81 -57.5q-9 -6 -16 -8t-10 -2z" />
    <glyph glyph-name="Ibreve" unicode="&#x12c;" horiz-adv-x="381" 
d="M-33 -3q-6 0 -10.5 4t-2.5 11q6 17 26 22q41 9 58 20.5t27 42.5l141 454q10 32 1 44.5t-47 22.5q-8 2 -11.5 7.5t-0.5 14.5q2 7 9.5 11t13.5 4q22 0 49 -1t53 -2.5t46 -1.5t48.5 1t58 2t50.5 1q16 0 11 -15q-3 -10 -9 -14t-17 -7q-30 -8 -46.5 -16t-25 -20t-14.5 -32
l-126 -408q-12 -40 -15 -60t6.5 -28.5t31.5 -14.5q23 -6 29.5 -11t3.5 -15q-2 -7 -7.5 -11t-13.5 -4q-21 0 -52.5 1t-62 2t-50.5 1q-30 0 -74.5 -2.5t-77.5 -2.5zM346 685q-44 0 -72.5 19t-42.5 45.5t-14 49.5q0 17 6.5 29t19.5 12q9 0 13 -6t10 -16q16 -25 35 -35.5
t54 -10.5t61 9t54 37q11 11 19.5 16.5t17.5 5.5q13 0 13 -20q0 -16 -10 -38.5t-31 -44.5t-54 -37t-79 -15z" />
    <glyph glyph-name="Icircumflex" unicode="&#xce;" horiz-adv-x="381" 
d="M-33 -3q-6 0 -10.5 4t-2.5 11q6 17 26 22q41 9 58 20.5t27 42.5l141 454q10 32 1 44.5t-47 22.5q-8 2 -11.5 7.5t-0.5 14.5q2 7 9.5 11t13.5 4q22 0 49 -1t53 -2.5t46 -1.5t48.5 1t58 2t50.5 1q16 0 11 -15q-3 -10 -9 -14t-17 -7q-30 -8 -46.5 -16t-25 -20t-14.5 -32
l-126 -408q-12 -40 -15 -60t6.5 -28.5t31.5 -14.5q23 -6 29.5 -11t3.5 -15q-2 -7 -7.5 -11t-13.5 -4q-21 0 -52.5 1t-62 2t-50.5 1q-30 0 -74.5 -2.5t-77.5 -2.5zM185 692q-21 0 -16 13q3 8 14 16l133 96q23 17 35 23.5t26 6.5q15 0 23 -6.5t21 -23.5l78 -95q4 -4 4 -8.5
t-1 -8.5q-3 -14 -21 -14q-9 0 -30.5 9t-45 20.5t-38.5 19.5q-12 7 -26 0q-14 -6 -36 -14.5t-45.5 -16t-43.5 -12.5t-31 -5z" />
    <glyph glyph-name="Idieresis" unicode="&#xcf;" horiz-adv-x="381" 
d="M-33 -3q-6 0 -10.5 4t-2.5 11q6 17 26 22q41 9 58 20.5t27 42.5l141 454q10 32 1 44.5t-47 22.5q-8 2 -11.5 7.5t-0.5 14.5q2 7 9.5 11t13.5 4q22 0 49 -1t53 -2.5t46 -1.5t48.5 1t58 2t50.5 1q16 0 11 -15q-3 -10 -9 -14t-17 -7q-30 -8 -46.5 -16t-25 -20t-14.5 -32
l-126 -408q-12 -40 -15 -60t6.5 -28.5t31.5 -14.5q23 -6 29.5 -11t3.5 -15q-2 -7 -7.5 -11t-13.5 -4q-21 0 -52.5 1t-62 2t-50.5 1q-30 0 -74.5 -2.5t-77.5 -2.5zM436 686q-27 0 -45.5 18.5t-18.5 41.5q0 37 28.5 65t72.5 28q28 0 45.5 -20t17.5 -46q0 -23 -14 -43
t-36.5 -32t-49.5 -12zM238 686q-28 0 -46 18.5t-18 41.5q0 38 29 65.5t72 27.5q27 0 44.5 -20t17.5 -46q0 -34 -29.5 -60.5t-69.5 -26.5z" />
    <glyph glyph-name="Idotaccent" unicode="&#x130;" horiz-adv-x="381" 
d="M-33 -3q-6 0 -10.5 4t-2.5 11q6 17 26 22q41 9 58 20.5t27 42.5l141 454q10 32 1 44.5t-47 22.5q-8 2 -11.5 7.5t-0.5 14.5q2 7 9.5 11t13.5 4q22 0 49 -1t53 -2.5t46 -1.5t48.5 1t58 2t50.5 1q16 0 11 -15q-3 -10 -9 -14t-17 -7q-30 -8 -46.5 -16t-25 -20t-14.5 -32
l-126 -408q-12 -40 -15 -60t6.5 -28.5t31.5 -14.5q23 -6 29.5 -11t3.5 -15q-2 -7 -7.5 -11t-13.5 -4q-21 0 -52.5 1t-62 2t-50.5 1q-30 0 -74.5 -2.5t-77.5 -2.5zM338 692q-31 0 -52 19.5t-21 43.5q0 41 32.5 70t82.5 29q32 0 52 -21.5t20 -48.5q0 -24 -16 -45t-42 -34
t-56 -13z" />
    <glyph glyph-name="Igrave" unicode="&#xcc;" horiz-adv-x="381" 
d="M-33 -3q-6 0 -10.5 4t-2.5 11q6 17 26 22q41 9 58 20.5t27 42.5l141 454q10 32 1 44.5t-47 22.5q-8 2 -11.5 7.5t-0.5 14.5q2 7 9.5 11t13.5 4q22 0 49 -1t53 -2.5t46 -1.5t48.5 1t58 2t50.5 1q16 0 11 -15q-3 -10 -9 -14t-17 -7q-30 -8 -46.5 -16t-25 -20t-14.5 -32
l-126 -408q-12 -40 -15 -60t6.5 -28.5t31.5 -14.5q23 -6 29.5 -11t3.5 -15q-2 -7 -7.5 -11t-13.5 -4q-21 0 -52.5 1t-62 2t-50.5 1q-30 0 -74.5 -2.5t-77.5 -2.5zM376 693q-3 0 -10.5 0.5t-17.5 4.5q-43 20 -90 43t-89 44q-18 9 -21 21q-2 8 12.5 17.5t32.5 17.5t25 10
q21 6 36 -8q33 -30 60 -61t60 -58q14 -11 14 -21t-12 -10z" />
    <glyph glyph-name="Imacron" unicode="&#x12a;" horiz-adv-x="381" 
d="M-33 -3q-6 0 -10.5 4t-2.5 11q6 17 26 22q41 9 58 20.5t27 42.5l141 454q10 32 1 44.5t-47 22.5q-8 2 -11.5 7.5t-0.5 14.5q2 7 9.5 11t13.5 4q22 0 49 -1t53 -2.5t46 -1.5t48.5 1t58 2t50.5 1q16 0 11 -15q-3 -10 -9 -14t-17 -7q-30 -8 -46.5 -16t-25 -20t-14.5 -32
l-126 -408q-12 -40 -15 -60t6.5 -28.5t31.5 -14.5q23 -6 29.5 -11t3.5 -15q-2 -7 -7.5 -11t-13.5 -4q-21 0 -52.5 1t-62 2t-50.5 1q-30 0 -74.5 -2.5t-77.5 -2.5zM208 716q-10 0 -15.5 6t-5.5 13q0 30 13 48.5t27 18.5h270q10 0 15 -5.5t5 -13.5q0 -26 -13 -46.5t-30 -20.5
h-266z" />
    <glyph glyph-name="Iogonek" unicode="&#x12e;" horiz-adv-x="370" 
d="M-33 -3q-6 0 -10.5 4t-2.5 11q6 17 26 22q41 9 58 20.5t27 42.5l141 454q10 32 1 44.5t-47 22.5q-8 2 -11.5 7.5t-0.5 14.5q2 7 9.5 11t13.5 4q22 0 49 -1t53 -2.5t46 -1.5t48.5 1t58 2t50.5 1q16 0 11 -15q-3 -10 -9 -14t-17 -7q-30 -8 -46.5 -16t-25 -20t-14.5 -32
l-126 -408q-12 -40 -15 -60t6.5 -28.5t31.5 -14.5q23 -6 29.5 -11t3.5 -15q-2 -7 -7.5 -11t-13.5 -4q-21 0 -52.5 1t-62 2t-50.5 1q-30 0 -74.5 -2.5t-77.5 -2.5zM49 -287q-23 0 -43 13t-31.5 32.5t-11.5 39.5q0 38 19 70.5t49 60t64.5 49.5t66.5 40h44q-32 -22 -59.5 -55.5
t-44 -68.5t-16.5 -64q0 -13 8 -20.5t24 -7.5q12 0 27.5 11t28.5 29q2 2 4 5t5 5t7 2q7 0 8 -6t1 -11q0 -18 -14 -39.5t-36 -41t-48.5 -31.5t-51.5 -12z" />
    <glyph glyph-name="Itilde" unicode="&#x128;" horiz-adv-x="381" 
d="M-33 -3q-6 0 -10.5 4t-2.5 11q6 17 26 22q41 9 58 20.5t27 42.5l141 454q10 32 1 44.5t-47 22.5q-8 2 -11.5 7.5t-0.5 14.5q2 7 9.5 11t13.5 4q22 0 49 -1t53 -2.5t46 -1.5t48.5 1t58 2t50.5 1q16 0 11 -15q-3 -10 -9 -14t-17 -7q-30 -8 -46.5 -16t-25 -20t-14.5 -32
l-126 -408q-12 -40 -15 -60t6.5 -28.5t31.5 -14.5q23 -6 29.5 -11t3.5 -15q-2 -7 -7.5 -11t-13.5 -4q-21 0 -52.5 1t-62 2t-50.5 1q-30 0 -74.5 -2.5t-77.5 -2.5zM205 691q-5 0 -12 6.5t-7 9.5q0 6 9 22.5t22.5 35.5t26 32.5t19.5 13.5q19 0 41.5 -1.5t44.5 -2.5
q19 -1 41 -2t47 -1q11 0 19.5 6.5t15.5 13.5q8 8 12.5 15t7.5 7q5 0 14 -7t9 -12q0 -4 -4.5 -11t-13.5 -20q-11 -16 -20.5 -31.5t-18.5 -29.5q-6 -9 -15 -11.5t-16 -2.5q-9 0 -33 2t-53.5 4t-54.5 4t-34 2q-8 0 -15.5 -6.5t-13.5 -14.5t-11 -14.5t-7 -6.5z" />
    <glyph glyph-name="J" unicode="J" horiz-adv-x="397" 
d="M-64 -200q-77 0 -107.5 15.5t-31.5 42.5q0 31 11.5 52t29.5 21q14 0 30.5 -14t34.5 -31q19 -17 37 -32t33 -15q16 0 29.5 20t28.5 61t34 105l163 526q10 32 1 45t-46 22q-8 2 -11.5 7.5t-0.5 14.5q2 7 9 11t13 4q22 0 49 -1t53.5 -2.5t46.5 -1.5t48.5 1t57.5 2t50 1
q16 0 11 -15q-3 -10 -9 -14t-16 -7q-30 -8 -46.5 -16t-25 -20t-14.5 -32l-154 -498q-6 -21 -18 -44t-28.5 -46t-37 -45t-43.5 -41q-40 -34 -86.5 -55t-94.5 -21z" />
    <glyph glyph-name="Jcircumflex" unicode="&#x134;" horiz-adv-x="397" 
d="M-64 -200q-77 0 -107.5 15.5t-31.5 42.5q0 31 11.5 52t29.5 21q14 0 30.5 -14t34.5 -31q19 -17 37 -32t33 -15q16 0 29.5 20t28.5 61t34 105l163 526q10 32 1 45t-46 22q-8 2 -11.5 7.5t-0.5 14.5q2 7 9 11t13 4q22 0 49 -1t53.5 -2.5t46.5 -1.5t48.5 1t57.5 2t50 1
q16 0 11 -15q-3 -10 -9 -14t-16 -7q-30 -8 -46.5 -16t-25 -20t-14.5 -32l-154 -498q-6 -21 -18 -44t-28.5 -46t-37 -45t-43.5 -41q-40 -34 -86.5 -55t-94.5 -21zM206 692q-21 0 -16 13q3 8 14 16l133 96q23 17 35 23.5t26 6.5q15 0 23 -6.5t21 -23.5l78 -95q4 -4 4 -8.5
t-1 -8.5q-3 -14 -21 -14q-9 0 -30.5 9t-45 20.5t-38.5 19.5q-12 7 -26 0q-14 -6 -36 -14.5t-45.5 -16t-43.5 -12.5t-31 -5z" />
    <glyph glyph-name="K" unicode="K" horiz-adv-x="776" 
d="M-24 -6q-9 0 -17 5.5t-6 12.5q6 17 32 22q41 8 55.5 20t24.5 43l140 454q10 32 1 45t-46 22q-7 2 -10 5.5t-3 9.5q0 9 9.5 15.5t23.5 6.5q17 0 42 -1t51 -2.5t46 -1.5t48.5 1t57.5 2t50 1q14 0 14 -11q0 -12 -9 -17t-19 -8q-30 -8 -46.5 -16t-25 -20t-14.5 -32l-55 -178
q-3 -10 1 -13t14 -3q20 0 43 12t48 37l147 143q11 11 18 19t9 15q4 11 -10.5 19.5t-29.5 11.5q-13 2 -17.5 6.5t-4.5 13.5t7 13.5t17 4.5h80q52 0 99 1.5t108 1.5q22 0 22 -15q0 -9 -13.5 -14.5t-22.5 -6.5q-55 -4 -92 -19.5t-69 -41.5t-67 -55t-69.5 -59.5t-65.5 -61.5
q-10 -10 -12 -17t2 -15q47 -102 84.5 -160.5t65.5 -90.5q20 -23 41 -36.5t44 -22.5q10 -4 22.5 -9.5t12.5 -15.5q0 -8 -9 -13.5t-29 -5.5q-30 0 -56 1.5t-49.5 3t-48.5 1.5q-24 0 -46.5 -0.5t-44 -1.5t-44.5 -1q-7 0 -15 4.5t-8 11.5q0 11 9.5 16.5t22.5 7.5q17 3 20 14
t-1 24.5t-8 24.5l-82 181q-10 21 -18 30t-13 9q-6 0 -8.5 -2.5t-4.5 -7.5l-62 -213q-8 -28 -3 -40.5t40 -23.5q8 -3 14 -6.5t6 -11.5q0 -10 -12 -15t-23 -5q-32 0 -56 2t-44 4t-40 2q-30 0 -60.5 -5t-82.5 -5z" />
    <glyph glyph-name="L" unicode="L" horiz-adv-x="578" 
d="M-28 -5q-9 0 -12 5t-2 11q4 15 26 21q36 11 53 21.5t27 41.5l141 456q10 32 1 44.5t-46 22.5q-8 2 -11 7.5t-1 14.5q2 7 9 11t13 4q22 0 49 -1t53.5 -2.5t46.5 -1.5t48.5 1t57.5 2t50 1q16 0 11 -15q-3 -10 -9 -14t-16 -7q-30 -8 -46.5 -16t-25 -20t-14.5 -32l-122 -396
q-21 -69 -11.5 -91.5t37.5 -22.5h26q40 0 73.5 9.5t58.5 25.5q29 20 50 47.5t37 61.5q4 8 10 14t12 6q5 0 8.5 -6.5t3.5 -13.5q0 -16 -6.5 -39.5t-16.5 -48.5t-20.5 -47t-19.5 -35q-4 -7 -9 -13t-14 -6q-14 0 -53.5 1t-92.5 1.5t-108.5 1.5t-100.5 1q-30 0 -73 -2.5
t-72 -2.5z" />
    <glyph glyph-name="Lacute" unicode="&#x139;" horiz-adv-x="578" 
d="M-28 -5q-9 0 -12 5t-2 11q4 15 26 21q36 11 53 21.5t27 41.5l141 456q10 32 1 44.5t-46 22.5q-8 2 -11 7.5t-1 14.5q2 7 9 11t13 4q22 0 49 -1t53.5 -2.5t46.5 -1.5t48.5 1t57.5 2t50 1q16 0 11 -15q-3 -10 -9 -14t-16 -7q-30 -8 -46.5 -16t-25 -20t-14.5 -32l-122 -396
q-21 -69 -11.5 -91.5t37.5 -22.5h26q40 0 73.5 9.5t58.5 25.5q29 20 50 47.5t37 61.5q4 8 10 14t12 6q5 0 8.5 -6.5t3.5 -13.5q0 -16 -6.5 -39.5t-16.5 -48.5t-20.5 -47t-19.5 -35q-4 -7 -9 -13t-14 -6q-14 0 -53.5 1t-92.5 1.5t-108.5 1.5t-100.5 1q-30 0 -73 -2.5
t-72 -2.5zM307 681q-12 0 -14 8q-1 7 9 23q23 37 46.5 70.5t51.5 67.5q12 15 34 15q8 0 27.5 -4.5t35.5 -12t15 -16.5q-1 -12 -18 -24q-38 -28 -80 -59.5t-81 -57.5q-9 -6 -16 -8t-10 -2z" />
    <glyph glyph-name="Lcaron" unicode="&#x13d;" horiz-adv-x="593" 
d="M-28 -5q-9 0 -12 5t-2 11q4 15 26 21q36 11 53 21.5t27 41.5l141 456q10 32 1 44.5t-46 22.5q-8 2 -11 7.5t-1 14.5q2 7 9 11t13 4q22 0 49 -1t53.5 -2.5t46.5 -1.5t48.5 1t57.5 2t50 1q16 0 11 -15q-3 -10 -9 -14t-16 -7q-30 -8 -46.5 -16t-25 -20t-14.5 -32l-122 -396
q-21 -69 -11.5 -91.5t37.5 -22.5h26q40 0 73.5 9.5t58.5 25.5q29 20 50 47.5t37 61.5q4 8 10 14t12 6q5 0 8.5 -6.5t3.5 -13.5q0 -16 -6.5 -39.5t-16.5 -48.5t-20.5 -47t-19.5 -35q-4 -7 -9 -13t-14 -6q-14 0 -53.5 1t-92.5 1.5t-108.5 1.5t-100.5 1q-30 0 -73 -2.5
t-72 -2.5zM497 414q-8 0 -8 10q0 5 3 10t7 12q14 30 23.5 65.5t18.5 87.5q3 15 22 33t44 31t44 13q10 0 12.5 -10.5t2.5 -18.5q0 -27 -15 -58.5t-37.5 -62.5t-46.5 -56.5t-43.5 -40.5t-26.5 -15z" />
    <glyph glyph-name="Ldot" unicode="&#x13f;" horiz-adv-x="578" 
d="M-28 -5q-9 0 -12 5t-2 11q4 15 26 21q36 11 53 21.5t27 41.5l141 456q10 32 1 44.5t-46 22.5q-8 2 -11 7.5t-1 14.5q2 7 9 11t13 4q22 0 49 -1t53.5 -2.5t46.5 -1.5t48.5 1t57.5 2t50 1q16 0 11 -15q-3 -10 -9 -14t-16 -7q-30 -8 -46.5 -16t-25 -20t-14.5 -32l-122 -396
q-21 -69 -11.5 -91.5t37.5 -22.5h26q40 0 73.5 9.5t58.5 25.5q29 20 50 47.5t37 61.5q4 8 10 14t12 6q5 0 8.5 -6.5t3.5 -13.5q0 -16 -6.5 -39.5t-16.5 -48.5t-20.5 -47t-19.5 -35q-4 -7 -9 -13t-14 -6q-14 0 -53.5 1t-92.5 1.5t-108.5 1.5t-100.5 1q-30 0 -73 -2.5
t-72 -2.5zM533 283q-24 0 -40 18.5t-16 41.5q0 36 26 64t64 28q26 0 40 -21t14 -44q0 -34 -26 -60.5t-62 -26.5z" />
    <glyph glyph-name="Lslash" unicode="&#x141;" horiz-adv-x="578" 
d="M76 246q-12 -4 -22 -1t-10 13q0 18 7 32.5t19 18.5l88 30l82 18l192 61q9 3 18.5 -0.5t9.5 -15.5q0 -19 -7 -32.5t-27 -19.5l-187 -59l-79 -16zM-28 -5q-9 0 -12 5t-2 11q4 15 26 21q36 11 53 21.5t27 41.5l141 456q10 32 1 44.5t-46 22.5q-8 2 -11 7.5t-1 14.5q2 7 9 11
t13 4q22 0 49 -1t53.5 -2.5t46.5 -1.5t48.5 1t57.5 2t50 1q16 0 11 -15q-3 -10 -9 -14t-16 -7q-30 -8 -46.5 -16t-25 -20t-14.5 -32l-122 -396q-21 -69 -11.5 -91.5t37.5 -22.5h26q40 0 73.5 9.5t58.5 25.5q29 20 50 47.5t37 61.5q4 8 10 14t12 6q5 0 8.5 -6.5t3.5 -13.5
q0 -16 -6.5 -39.5t-16.5 -48.5t-20.5 -47t-19.5 -35q-4 -7 -9 -13t-14 -6q-14 0 -53.5 1t-92.5 1.5t-108.5 1.5t-100.5 1q-30 0 -73 -2.5t-72 -2.5z" />
    <glyph glyph-name="M" unicode="M" horiz-adv-x="987" 
d="M352 -14q-6 0 -11 6t-5 17q0 114 -6.5 221.5t-14.5 217.5q-1 10 -8 7t-12 -14q-34 -68 -64.5 -136t-54.5 -137q-14 -41 -16.5 -69t7 -43.5t30.5 -21.5q8 -2 16 -6.5t5 -14.5q-2 -7 -11.5 -11t-17.5 -4q-27 0 -42 1t-27 1.5t-33 0.5q-23 0 -50 -1t-46 -2l-19 -1
q-24 0 -19 15q3 9 13 11.5t20 6.5q24 9 43.5 20t39.5 36t44 75l163 333q20 41 22 65t-18.5 39t-68.5 26q-12 3 -18.5 6t-6.5 13q0 11 12 13t23 2q21 0 58 -1t76 -2.5t64 -1.5q28 0 35.5 -16t6 -40t-0.5 -49l15 -319q1 -9 5.5 -12t13.5 6q53 53 104 116.5t95 125.5t75 108
q14 21 25 36.5t18 27.5q9 13 21 13h50q30 0 57 2t50.5 4t41.5 2q11 0 17 -2.5t6 -11.5t-14 -16.5t-41 -14.5q-23 -6 -39 -18t-26.5 -30t-17.5 -43q-27 -103 -51.5 -210t-46.5 -214q-5 -25 10 -40.5t42 -23.5q8 -3 13.5 -7t2.5 -14q-2 -7 -9 -11t-15 -4q-21 0 -51.5 1t-60 2
t-49.5 1t-47 -1t-54.5 -2.5t-49.5 -1.5q-8 0 -13.5 4t-3.5 11q3 9 11 14.5t18 7.5q41 10 59 21.5t27 41.5q17 56 31 110.5t27.5 109t26.5 109.5q2 6 -1 5.5t-9 -7.5l-249 -287l-96 -132q-4 -6 -12 -12.5t-14 -6.5z" />
    <glyph glyph-name="N" unicode="N" horiz-adv-x="783" 
d="M3 -3q-6 0 -13 4t-5 11q3 9 12 13.5t19 7.5q30 8 50.5 28t33.5 54l151 395q14 37 8.5 60t-28.5 35t-63 15q-13 2 -20 7t-7 15q0 6 11 11t22 5q21 0 55.5 -1t73 -2.5t69.5 -1.5q14 0 22.5 -5.5t13.5 -16.5l191 -432q2 -4 4.5 -8t5.5 -4q7 0 12 14q3 7 7.5 21.5t11 35.5
t14 47.5t15.5 56.5t15.5 62.5t13.5 65.5q14 68 -4.5 94.5t-73.5 36.5q-17 3 -16 15q1 7 10 11t16 4q41 0 71 -3t44 -3q20 0 38.5 2t39.5 3.5t46 1.5q19 0 19 -15q0 -7 -11.5 -11.5t-22.5 -6.5q-24 -5 -41 -14.5t-30.5 -32.5t-27.5 -67q-6 -20 -13.5 -44.5t-16 -52.5
t-17.5 -58.5t-19 -62.5t-19.5 -64.5t-19.5 -64.5q-10 -31 -8.5 -48.5t14.5 -40.5q5 -7 10.5 -17.5t12.5 -17.5q8 -7 13.5 -10t5.5 -8q0 -10 -5.5 -13t-16.5 -3q-29 0 -48 -2t-34.5 -3.5t-35.5 -2.5q-31 -1 -46 14t-27 46q-6 16 -22 54.5t-36.5 88t-42 101t-39.5 95t-29 70
t-11 25.5q-1 2 -3.5 6t-4.5 4q-4 0 -7.5 -7t-5.5 -12q-13 -32 -31 -79.5t-36 -100t-32.5 -101t-22.5 -83.5q-8 -38 4 -53t54 -26q8 -2 15.5 -6.5t4.5 -14.5q-2 -7 -11.5 -11t-17.5 -4q-27 0 -42.5 1t-26.5 1.5t-27 0.5q-23 0 -49 -1t-44.5 -2z" />
    <glyph glyph-name="Nacute" unicode="&#x143;" horiz-adv-x="783" 
d="M3 -3q-6 0 -13 4t-5 11q3 9 12 13.5t19 7.5q30 8 50.5 28t33.5 54l151 395q14 37 8.5 60t-28.5 35t-63 15q-13 2 -20 7t-7 15q0 6 11 11t22 5q21 0 55.5 -1t73 -2.5t69.5 -1.5q14 0 22.5 -5.5t13.5 -16.5l191 -432q2 -4 4.5 -8t5.5 -4q7 0 12 14q3 7 7.5 21.5t11 35.5
t14 47.5t15.5 56.5t15.5 62.5t13.5 65.5q14 68 -4.5 94.5t-73.5 36.5q-17 3 -16 15q1 7 10 11t16 4q41 0 71 -3t44 -3q20 0 38.5 2t39.5 3.5t46 1.5q19 0 19 -15q0 -7 -11.5 -11.5t-22.5 -6.5q-24 -5 -41 -14.5t-30.5 -32.5t-27.5 -67q-6 -20 -13.5 -44.5t-16 -52.5
t-17.5 -58.5t-19 -62.5t-19.5 -64.5t-19.5 -64.5q-10 -31 -8.5 -48.5t14.5 -40.5q5 -7 10.5 -17.5t12.5 -17.5q8 -7 13.5 -10t5.5 -8q0 -10 -5.5 -13t-16.5 -3q-29 0 -48 -2t-34.5 -3.5t-35.5 -2.5q-31 -1 -46 14t-27 46q-6 16 -22 54.5t-36.5 88t-42 101t-39.5 95t-29 70
t-11 25.5q-1 2 -3.5 6t-4.5 4q-4 0 -7.5 -7t-5.5 -12q-13 -32 -31 -79.5t-36 -100t-32.5 -101t-22.5 -83.5q-8 -38 4 -53t54 -26q8 -2 15.5 -6.5t4.5 -14.5q-2 -7 -11.5 -11t-17.5 -4q-27 0 -42.5 1t-26.5 1.5t-27 0.5q-23 0 -49 -1t-44.5 -2zM492 681q-12 0 -14 8
q-1 7 9 23q23 37 46.5 70.5t51.5 67.5q12 15 34 15q8 0 27.5 -4.5t35.5 -12t15 -16.5q-1 -12 -18 -24q-38 -28 -80 -59.5t-81 -57.5q-9 -6 -16 -8t-10 -2z" />
    <glyph glyph-name="Ncaron" unicode="&#x147;" horiz-adv-x="783" 
d="M3 -3q-6 0 -13 4t-5 11q3 9 12 13.5t19 7.5q30 8 50.5 28t33.5 54l151 395q14 37 8.5 60t-28.5 35t-63 15q-13 2 -20 7t-7 15q0 6 11 11t22 5q21 0 55.5 -1t73 -2.5t69.5 -1.5q14 0 22.5 -5.5t13.5 -16.5l191 -432q2 -4 4.5 -8t5.5 -4q7 0 12 14q3 7 7.5 21.5t11 35.5
t14 47.5t15.5 56.5t15.5 62.5t13.5 65.5q14 68 -4.5 94.5t-73.5 36.5q-17 3 -16 15q1 7 10 11t16 4q41 0 71 -3t44 -3q20 0 38.5 2t39.5 3.5t46 1.5q19 0 19 -15q0 -7 -11.5 -11.5t-22.5 -6.5q-24 -5 -41 -14.5t-30.5 -32.5t-27.5 -67q-6 -20 -13.5 -44.5t-16 -52.5
t-17.5 -58.5t-19 -62.5t-19.5 -64.5t-19.5 -64.5q-10 -31 -8.5 -48.5t14.5 -40.5q5 -7 10.5 -17.5t12.5 -17.5q8 -7 13.5 -10t5.5 -8q0 -10 -5.5 -13t-16.5 -3q-29 0 -48 -2t-34.5 -3.5t-35.5 -2.5q-31 -1 -46 14t-27 46q-6 16 -22 54.5t-36.5 88t-42 101t-39.5 95t-29 70
t-11 25.5q-1 2 -3.5 6t-4.5 4q-4 0 -7.5 -7t-5.5 -12q-13 -32 -31 -79.5t-36 -100t-32.5 -101t-22.5 -83.5q-8 -38 4 -53t54 -26q8 -2 15.5 -6.5t4.5 -14.5q-2 -7 -11.5 -11t-17.5 -4q-27 0 -42.5 1t-26.5 1.5t-27 0.5q-23 0 -49 -1t-44.5 -2zM538 698q-14 0 -22 7t-21 23
l-76 96q-6 8 -4 16q3 13 24 13q8 0 28.5 -8.5t42.5 -20.5t35 -21q5 -4 10.5 -4t13.5 4q15 7 40 15.5t51.5 16.5t47 13.5t27.5 5.5q16 0 16 -13q0 -11 -12 -20l-139 -93q-23 -16 -35 -23t-27 -7z" />
    <glyph glyph-name="Eng" unicode="&#x14a;" horiz-adv-x="768" 
d="M378 -275q-35 0 -54.5 14t-27 34t-7.5 38q0 14 6 16.5t14 2.5q69 0 114.5 20t71.5 49.5t34 57.5q5 17 3.5 30.5t-7.5 23.5q-6 11 -21 41.5t-36 74t-44 92t-45.5 95.5t-41 85t-29 60.5t-9.5 21.5q-1 2 -3.5 6t-4.5 4q-4 0 -7.5 -7t-5.5 -12q-13 -32 -30 -77.5t-34 -96.5
t-32 -99t-25 -86t4 -53t56 -26q8 -2 15.5 -6.5t4.5 -14.5q-2 -7 -11.5 -11t-17.5 -4q-27 0 -42.5 1t-26.5 1.5t-27 0.5q-23 0 -49 -1t-44.5 -2l-18.5 -1q-6 0 -13 4t-5 11q3 9 12 13.5t19 7.5q30 8 50 28t34 54l148 387q12 38 6 60t-28.5 35t-62.5 23q-8 2 -15.5 7.5
t-4.5 14.5t11.5 12.5t19.5 3.5q21 0 55.5 -1t73 -2.5t69.5 -1.5q14 0 22.5 -5.5t13.5 -16.5l198 -413q2 -4 4.5 -8t5.5 -4q7 0 12 14q3 7 8.5 25t13 44.5t16 57.5t17.5 63.5t17 63.5t14 56q6 22 2 38t-25 27.5t-66 19.5q-8 2 -13.5 6.5t-2.5 14.5q2 7 10.5 11t15.5 4
q41 0 71 -3t44 -3q29 0 58 3.5t66 3.5q11 0 16 -4t3 -11q-3 -9 -11 -14t-20 -7q-37 -7 -58 -22t-34 -58q-7 -24 -17 -55.5t-21.5 -69t-24 -78t-25.5 -81.5t-26 -80t-24.5 -74t-20.5 -63q-18 -60 -46.5 -115.5t-61.5 -99.5t-65 -69.5t-57 -25.5z" />
    <glyph glyph-name="Ntilde" unicode="&#xd1;" horiz-adv-x="783" 
d="M3 -3q-6 0 -13 4t-5 11q3 9 12 13.5t19 7.5q30 8 50.5 28t33.5 54l151 395q14 37 8.5 60t-28.5 35t-63 15q-13 2 -20 7t-7 15q0 6 11 11t22 5q21 0 55.5 -1t73 -2.5t69.5 -1.5q14 0 22.5 -5.5t13.5 -16.5l191 -432q2 -4 4.5 -8t5.5 -4q7 0 12 14q3 7 7.5 21.5t11 35.5
t14 47.5t15.5 56.5t15.5 62.5t13.5 65.5q14 68 -4.5 94.5t-73.5 36.5q-17 3 -16 15q1 7 10 11t16 4q41 0 71 -3t44 -3q20 0 38.5 2t39.5 3.5t46 1.5q19 0 19 -15q0 -7 -11.5 -11.5t-22.5 -6.5q-24 -5 -41 -14.5t-30.5 -32.5t-27.5 -67q-6 -20 -13.5 -44.5t-16 -52.5
t-17.5 -58.5t-19 -62.5t-19.5 -64.5t-19.5 -64.5q-10 -31 -8.5 -48.5t14.5 -40.5q5 -7 10.5 -17.5t12.5 -17.5q8 -7 13.5 -10t5.5 -8q0 -10 -5.5 -13t-16.5 -3q-29 0 -48 -2t-34.5 -3.5t-35.5 -2.5q-31 -1 -46 14t-27 46q-6 16 -22 54.5t-36.5 88t-42 101t-39.5 95t-29 70
t-11 25.5q-1 2 -3.5 6t-4.5 4q-4 0 -7.5 -7t-5.5 -12q-13 -32 -31 -79.5t-36 -100t-32.5 -101t-22.5 -83.5q-8 -38 4 -53t54 -26q8 -2 15.5 -6.5t4.5 -14.5q-2 -7 -11.5 -11t-17.5 -4q-27 0 -42.5 1t-26.5 1.5t-27 0.5q-23 0 -49 -1t-44.5 -2zM409 691q-5 0 -12 6.5t-7 9.5
q0 6 9 22.5t22.5 35.5t26 32.5t19.5 13.5q19 0 41.5 -1.5t44.5 -2.5q19 -1 41 -2t47 -1q11 0 19.5 6.5t15.5 13.5q8 8 12.5 15t7.5 7q5 0 14 -7t9 -12q0 -4 -4.5 -11t-13.5 -20q-11 -16 -20.5 -31.5t-18.5 -29.5q-6 -9 -15 -11.5t-16 -2.5q-9 0 -33 2t-53.5 4t-54.5 4t-34 2
q-8 0 -15.5 -6.5t-13.5 -14.5t-11 -14.5t-7 -6.5z" />
    <glyph glyph-name="O" unicode="O" horiz-adv-x="692" 
d="M292 -14q-67 0 -121 32t-86 90t-32 134q0 83 32.5 159t90 135t133 93.5t161.5 34.5q67 0 121.5 -32t86.5 -89.5t32 -134.5q0 -82 -33 -158t-90.5 -135.5t-133 -94t-161.5 -34.5zM291 25q41 0 80 30.5t73 81t60 110.5t40.5 119t14.5 107q0 42 -9.5 77.5t-29.5 57t-51 21.5
q-41 0 -80 -31t-72.5 -82t-59 -111.5t-40 -120.5t-14.5 -108q0 -41 9 -75.5t28.5 -55t50.5 -20.5z" />
    <glyph glyph-name="Oacute" unicode="&#xd3;" horiz-adv-x="692" 
d="M292 -14q-67 0 -121 32t-86 90t-32 134q0 83 32.5 159t90 135t133 93.5t161.5 34.5q67 0 121.5 -32t86.5 -89.5t32 -134.5q0 -82 -33 -158t-90.5 -135.5t-133 -94t-161.5 -34.5zM291 25q41 0 80 30.5t73 81t60 110.5t40.5 119t14.5 107q0 42 -9.5 77.5t-29.5 57t-51 21.5
q-41 0 -80 -31t-72.5 -82t-59 -111.5t-40 -120.5t-14.5 -108q0 -41 9 -75.5t28.5 -55t50.5 -20.5zM462 681q-12 0 -14 8q-1 7 9 23q23 37 46.5 70.5t51.5 67.5q12 15 34 15q8 0 27.5 -4.5t35.5 -12t15 -16.5q-1 -12 -18 -24q-38 -28 -80 -59.5t-81 -57.5q-9 -6 -16 -8
t-10 -2z" />
    <glyph glyph-name="Obreve" unicode="&#x14e;" horiz-adv-x="692" 
d="M292 -14q-67 0 -121 32t-86 90t-32 134q0 83 32.5 159t90 135t133 93.5t161.5 34.5q67 0 121.5 -32t86.5 -89.5t32 -134.5q0 -82 -33 -158t-90.5 -135.5t-133 -94t-161.5 -34.5zM291 25q41 0 80 30.5t73 81t60 110.5t40.5 119t14.5 107q0 42 -9.5 77.5t-29.5 57t-51 21.5
q-41 0 -80 -31t-72.5 -82t-59 -111.5t-40 -120.5t-14.5 -108q0 -41 9 -75.5t28.5 -55t50.5 -20.5zM520 685q-44 0 -72.5 19t-42.5 45.5t-14 49.5q0 17 6.5 29t19.5 12q9 0 13 -6t10 -16q16 -25 35 -35.5t54 -10.5t61 9t54 37q11 11 19.5 16.5t17.5 5.5q13 0 13 -20
q0 -16 -10 -38.5t-31 -44.5t-54 -37t-79 -15z" />
    <glyph glyph-name="Ocircumflex" unicode="&#xd4;" horiz-adv-x="692" 
d="M292 -14q-67 0 -121 32t-86 90t-32 134q0 83 32.5 159t90 135t133 93.5t161.5 34.5q67 0 121.5 -32t86.5 -89.5t32 -134.5q0 -82 -33 -158t-90.5 -135.5t-133 -94t-161.5 -34.5zM291 25q41 0 80 30.5t73 81t60 110.5t40.5 119t14.5 107q0 42 -9.5 77.5t-29.5 57t-51 21.5
q-41 0 -80 -31t-72.5 -82t-59 -111.5t-40 -120.5t-14.5 -108q0 -41 9 -75.5t28.5 -55t50.5 -20.5zM359 692q-21 0 -16 13q3 8 14 16l133 96q23 17 35 23.5t26 6.5q15 0 23 -6.5t21 -23.5l78 -95q4 -4 4 -8.5t-1 -8.5q-3 -14 -21 -14q-9 0 -30.5 9t-45 20.5t-38.5 19.5
q-12 7 -26 0q-14 -6 -36 -14.5t-45.5 -16t-43.5 -12.5t-31 -5z" />
    <glyph glyph-name="Odieresis" unicode="&#xd6;" horiz-adv-x="692" 
d="M292 -14q-67 0 -121 32t-86 90t-32 134q0 83 32.5 159t90 135t133 93.5t161.5 34.5q67 0 121.5 -32t86.5 -89.5t32 -134.5q0 -82 -33 -158t-90.5 -135.5t-133 -94t-161.5 -34.5zM291 25q41 0 80 30.5t73 81t60 110.5t40.5 119t14.5 107q0 42 -9.5 77.5t-29.5 57t-51 21.5
q-41 0 -80 -31t-72.5 -82t-59 -111.5t-40 -120.5t-14.5 -108q0 -41 9 -75.5t28.5 -55t50.5 -20.5zM610 686q-27 0 -45.5 18.5t-18.5 41.5q0 37 28.5 65t72.5 28q28 0 45.5 -20t17.5 -46q0 -23 -14 -43t-36.5 -32t-49.5 -12zM412 686q-28 0 -46 18.5t-18 41.5q0 38 29 65.5
t72 27.5q27 0 44.5 -20t17.5 -46q0 -34 -29.5 -60.5t-69.5 -26.5z" />
    <glyph glyph-name="Ograve" unicode="&#xd2;" horiz-adv-x="692" 
d="M292 -14q-67 0 -121 32t-86 90t-32 134q0 83 32.5 159t90 135t133 93.5t161.5 34.5q67 0 121.5 -32t86.5 -89.5t32 -134.5q0 -82 -33 -158t-90.5 -135.5t-133 -94t-161.5 -34.5zM291 25q41 0 80 30.5t73 81t60 110.5t40.5 119t14.5 107q0 42 -9.5 77.5t-29.5 57t-51 21.5
q-41 0 -80 -31t-72.5 -82t-59 -111.5t-40 -120.5t-14.5 -108q0 -41 9 -75.5t28.5 -55t50.5 -20.5zM550 693q-3 0 -10.5 0.5t-17.5 4.5q-43 20 -90 43t-89 44q-18 9 -21 21q-2 8 12.5 17.5t32.5 17.5t25 10q21 6 36 -8q33 -30 60 -61t60 -58q14 -11 14 -21t-12 -10z" />
    <glyph glyph-name="Ohorn" unicode="&#x1a0;" horiz-adv-x="692" 
d="M292 -14q-67 0 -121 32t-86 90t-32 134q0 83 32.5 159t90 135t133 93.5t161.5 34.5q56 0 95 -17t64 -36t48.5 -27t40.5 -8t27.5 7t10.5 25q0 9 -6 17t-14 16l-14 16t-7 17q0 16 16.5 29.5t41.5 22t48 8.5q16 0 26.5 -16.5t10.5 -45.5q0 -37 -23 -68t-59 -49t-77 -18
q-10 0 -14 -5.5t-1 -10.5q16 -32 21 -59.5t5 -53.5q0 -82 -33 -158t-90.5 -135.5t-133 -94t-161.5 -34.5zM294 28q41 0 80 30.5t72.5 80t59 109t39.5 118.5t14 107q0 42 -10.5 75.5t-31 53.5t-51.5 20q-41 0 -79.5 -30.5t-72 -80.5t-58.5 -109.5t-39 -118.5t-14 -107
q0 -41 10 -75t30 -53.5t51 -19.5z" />
    <glyph glyph-name="Ohungarumlaut" unicode="&#x150;" horiz-adv-x="692" 
d="M292 -14q-67 0 -121 32t-86 90t-32 134q0 83 32.5 159t90 135t133 93.5t161.5 34.5q67 0 121.5 -32t86.5 -89.5t32 -134.5q0 -82 -33 -158t-90.5 -135.5t-133 -94t-161.5 -34.5zM291 25q41 0 80 30.5t73 81t60 110.5t40.5 119t14.5 107q0 42 -9.5 77.5t-29.5 57t-51 21.5
q-41 0 -80 -31t-72.5 -82t-59 -111.5t-40 -120.5t-14.5 -108q0 -41 9 -75.5t28.5 -55t50.5 -20.5zM565 681q-12 0 -14 8q-1 7 9 23q23 37 46.5 70.5t51.5 67.5q12 15 34 15q8 0 27.5 -4.5t35.5 -12t15 -16.5q-1 -12 -18 -24q-38 -28 -80 -59.5t-81 -57.5q-9 -6 -16 -8
t-10 -2zM397 681q-12 0 -14 8q-1 7 9 23q23 37 46.5 70.5t51.5 67.5q12 15 34 15q8 0 27.5 -4.5t35.5 -12t15 -16.5q-1 -12 -18 -24q-38 -28 -80 -59.5t-81 -57.5q-9 -6 -16 -8t-10 -2z" />
    <glyph glyph-name="Omacron" unicode="&#x14c;" horiz-adv-x="692" 
d="M292 -14q-67 0 -121 32t-86 90t-32 134q0 83 32.5 159t90 135t133 93.5t161.5 34.5q67 0 121.5 -32t86.5 -89.5t32 -134.5q0 -82 -33 -158t-90.5 -135.5t-133 -94t-161.5 -34.5zM291 25q41 0 80 30.5t73 81t60 110.5t40.5 119t14.5 107q0 42 -9.5 77.5t-29.5 57t-51 21.5
q-41 0 -80 -31t-72.5 -82t-59 -111.5t-40 -120.5t-14.5 -108q0 -41 9 -75.5t28.5 -55t50.5 -20.5zM382 716q-10 0 -15.5 6t-5.5 13q0 30 13 48.5t27 18.5h270q10 0 15 -5.5t5 -13.5q0 -26 -13 -46.5t-30 -20.5h-266z" />
    <glyph glyph-name="Oslash" unicode="&#xd8;" horiz-adv-x="692" 
d="M18 -14q-19 0 -31.5 14t-12.5 27q0 23 18 36l124 99l56 37l409 338l42 25l114 90q8 6 15 9t13 3q13 0 21 -10.5t8 -24.5q0 -28 -17 -42l-110 -88l-75 -53l-409 -343l-39 -24l-101 -83q-6 -5 -12 -7.5t-13 -2.5zM292 -14q-67 0 -121 32t-86 90t-32 134q0 83 32.5 159
t90 135t133 93.5t161.5 34.5q67 0 121.5 -32t86.5 -89.5t32 -134.5q0 -82 -33 -158t-90.5 -135.5t-133 -94t-161.5 -34.5zM291 25q41 0 80 30.5t73 81t60 110.5t40.5 119t14.5 107q0 42 -9.5 77.5t-29.5 57t-51 21.5q-41 0 -80 -31t-72.5 -82t-59 -111.5t-40 -120.5
t-14.5 -108q0 -41 9 -75.5t28.5 -55t50.5 -20.5z" />
    <glyph glyph-name="Oslashacute" unicode="&#x1fe;" horiz-adv-x="692" 
d="M18 -14q-19 0 -31.5 14t-12.5 27q0 23 18 36l124 99l56 37l409 338l42 25l114 90q8 6 15 9t13 3q13 0 21 -10.5t8 -24.5q0 -28 -17 -42l-110 -88l-75 -53l-409 -343l-39 -24l-101 -83q-6 -5 -12 -7.5t-13 -2.5zM292 -14q-67 0 -121 32t-86 90t-32 134q0 83 32.5 159
t90 135t133 93.5t161.5 34.5q67 0 121.5 -32t86.5 -89.5t32 -134.5q0 -82 -33 -158t-90.5 -135.5t-133 -94t-161.5 -34.5zM291 25q41 0 80 30.5t73 81t60 110.5t40.5 119t14.5 107q0 42 -9.5 77.5t-29.5 57t-51 21.5q-41 0 -80 -31t-72.5 -82t-59 -111.5t-40 -120.5
t-14.5 -108q0 -41 9 -75.5t28.5 -55t50.5 -20.5zM473 681q-12 0 -14 8q-1 7 9 23q23 37 46.5 70.5t51.5 67.5q12 15 34 15q8 0 27.5 -4.5t35.5 -12t15 -16.5q-1 -12 -18 -24q-38 -28 -80 -59.5t-81 -57.5q-9 -6 -16 -8t-10 -2z" />
    <glyph glyph-name="Otilde" unicode="&#xd5;" horiz-adv-x="692" 
d="M292 -14q-67 0 -121 32t-86 90t-32 134q0 83 32.5 159t90 135t133 93.5t161.5 34.5q67 0 121.5 -32t86.5 -89.5t32 -134.5q0 -82 -33 -158t-90.5 -135.5t-133 -94t-161.5 -34.5zM291 25q41 0 80 30.5t73 81t60 110.5t40.5 119t14.5 107q0 42 -9.5 77.5t-29.5 57t-51 21.5
q-41 0 -80 -31t-72.5 -82t-59 -111.5t-40 -120.5t-14.5 -108q0 -41 9 -75.5t28.5 -55t50.5 -20.5zM379 691q-5 0 -12 6.5t-7 9.5q0 6 9 22.5t22.5 35.5t26 32.5t19.5 13.5q19 0 41.5 -1.5t44.5 -2.5q19 -1 41 -2t47 -1q11 0 19.5 6.5t15.5 13.5q8 8 12.5 15t7.5 7q5 0 14 -7
t9 -12q0 -4 -4.5 -11t-13.5 -20q-11 -16 -20.5 -31.5t-18.5 -29.5q-6 -9 -15 -11.5t-16 -2.5q-9 0 -33 2t-53.5 4t-54.5 4t-34 2q-8 0 -15.5 -6.5t-13.5 -14.5t-11 -14.5t-7 -6.5z" />
    <glyph glyph-name="OE" unicode="&#x152;" horiz-adv-x="963" 
d="M292 -14q-67 0 -121 32t-86 90t-32 134q0 83 32.5 159t90 135t133 93.5t161.5 34.5q47 0 92.5 -11t82 -36t56.5 -67l-126 -58q-1 62 -32 96t-77 34q-41 0 -79.5 -30.5t-72 -80.5t-58.5 -109.5t-39 -118.5t-14 -107q0 -41 10 -75t30 -53.5t51 -19.5q44 0 91 31.5t81 86.5
l53 -97q-49 -31 -107.5 -47t-119.5 -16zM346 -5q-9 0 -12 5t-2 11q4 15 26 21q36 11 53 21.5t27 41.5l141 456q10 32 1.5 45.5t-40.5 21.5q-11 3 -15 9t-2 12q2 7 12 11.5t32 4.5q14 0 36 -1.5t46 -3t44 -1.5l166 1q43 0 70 3.5t42.5 6.5t21.5 3q8 0 14 -5.5t6 -16.5
q0 -13 -6.5 -36.5t-13 -49t-6.5 -46.5q0 -10 -5.5 -15t-10.5 -5q-4 0 -9 4t-7 13q-7 58 -21 83t-52 25h-68q-25 0 -42 -16.5t-31 -65.5l-44 -153q-4 -13 1 -18.5t17 -5.5h84q26 0 45 17t35 45q5 9 13 13.5t14 4.5q5 0 7.5 -6t-2.5 -17q-9 -22 -17 -42.5t-14 -40.5t-11 -40
t-10 -43q-4 -15 -9 -21.5t-10 -6.5q-7 0 -12.5 7t-4.5 17q2 32 -4.5 50.5t-25.5 18.5h-97q-11 0 -18.5 -6t-10.5 -17l-50 -173q-11 -37 1.5 -57t52.5 -20h72q20 0 41 7t39 19q22 14 41 42.5t38 56.5q5 8 8.5 10t9.5 2t8.5 -5t2.5 -18q0 -11 -8.5 -37.5t-21.5 -56.5t-28 -50
q-5 -7 -12.5 -9.5t-15.5 -2.5q-4 0 -30 0.5t-65.5 1t-85.5 1t-91.5 1t-81.5 0.5q-20 0 -46.5 -1t-52.5 -2.5t-46 -1.5z" />
    <glyph glyph-name="P" unicode="P" horiz-adv-x="637" 
d="M-27 -3q-6 0 -12 4t-6 11q0 9 10.5 14.5t20.5 7.5q41 9 58 20.5t27 42.5l141 454q10 32 -0.5 45.5t-42.5 21.5q-11 3 -17.5 9t-4.5 12q2 7 12.5 11.5t19.5 4.5q22 0 48.5 -1.5t52.5 -3t46 -0.5q16 1 36.5 2.5t44.5 3t51 1.5q71 0 121 -25t75.5 -67.5t23.5 -97.5
q-2 -51 -25.5 -94.5t-64 -75.5t-95 -50t-118.5 -18q-27 0 -36.5 5.5t-9.5 17.5q0 7 6.5 11t15.5 5q10 2 18 3.5t21 3.5q46 8 76.5 40t46 75t15.5 84q0 61 -13.5 91t-35 39.5t-46.5 9.5q-10 0 -18 -4.5t-17 -22t-22 -58.5l-134 -431q-10 -31 6 -43t56 -21q8 -2 15 -6.5
t7 -14.5q0 -7 -11.5 -11t-22.5 -4q-21 0 -53 1t-63 2t-51 1q-30 0 -74.5 -2.5t-77.5 -2.5z" />
    <glyph glyph-name="Thorn" unicode="&#xde;" horiz-adv-x="629" 
d="M-33 -3q-6 0 -10.5 4t-2.5 11q6 17 26 22q41 9 58 20.5t27 42.5l141 454q10 32 1 44.5t-47 22.5q-8 2 -11.5 7.5t-0.5 14.5q2 7 9.5 11t13.5 4q22 0 49 -1t53 -2.5t46 -1.5t48.5 1t58 2t50.5 1q16 0 11 -15q-3 -10 -9 -14t-17 -7q-30 -8 -46.5 -16t-25 -20t-14.5 -32
l-6 -21l-81 22q24 2 58 4.5t74 2.5q70 0 119.5 -25.5t75.5 -70t23 -102.5q-2 -48 -26 -90t-65.5 -73.5t-97 -49.5t-119.5 -18q-27 0 -37 6t-10 18q0 7 6.5 11t15.5 5q10 2 18.5 3t21.5 2q40 5 67.5 27t44.5 52.5t24.5 61t7.5 52.5q0 58 -13.5 90t-34.5 45t-42 13
q-13 0 -22.5 -6t-18.5 -25t-22 -59l-101 -327q-8 -28 1.5 -39t44.5 -25q8 -3 11.5 -7t0.5 -14q-2 -7 -7.5 -11t-13.5 -4q-21 0 -49.5 1t-56 2t-47.5 1q-30 0 -74.5 -2.5t-77.5 -2.5z" />
    <glyph glyph-name="Q" unicode="Q" horiz-adv-x="703" 
d="M571 -290q-57 0 -118 27.5t-120 58.5q-52 28 -100 49.5t-88 21.5q-16 0 -30.5 -2.5t-24.5 -6.5q-14 -5 -26 -12.5t-21 -7.5q-8 0 -13 5.5t-5 12.5q0 12 19.5 25t50.5 27.5t65.5 28t65.5 26.5t50 23q105 59 167 136.5t89 167t27 183.5q0 49 -9 81.5t-28.5 49t-51.5 16.5
q-41 0 -80.5 -28.5t-73 -76.5t-59 -106.5t-40 -119t-14.5 -113.5q0 -39 10 -73.5t35.5 -55.5t73.5 -22q12 0 25.5 1t28.5 4l-35 -41q-12 -1 -24.5 -2t-24.5 -1q-67 0 -121 32t-86 90t-32 134q0 83 32.5 159t90 135t133 93.5t161.5 34.5q67 0 121.5 -32t86.5 -89.5t32 -134.5
q0 -78 -33 -147t-90.5 -127t-133.5 -105q-45 -28 -83 -48t-82.5 -37.5t-109.5 -37.5l1 7q27 14 59 21.5t59 7.5q36 0 83 -19.5t96 -43.5q50 -24 94.5 -44.5t73.5 -20.5t51.5 13.5t38.5 35.5q13 18 23 18.5t13.5 -8.5t-1.5 -22q-9 -21 -29 -45.5t-47.5 -46.5t-59 -35.5
t-62.5 -13.5z" />
    <glyph glyph-name="R" unicode="R" horiz-adv-x="773" 
d="M-23 -3q-6 0 -11 4t-3 11q6 17 26 22q41 8 58.5 20t27.5 43l143 458q7 22 4.5 33.5t-13.5 18t-33 11.5q-11 3 -19.5 8t-8.5 13t14.5 12t23.5 4q33 0 54.5 -2t41 -4t45.5 -2q24 0 43 2.5t43 5t61 2.5q69 0 111.5 -20t62.5 -54t20 -75q0 -45 -25 -81.5t-65 -61t-86 -34.5
q-8 -3 -4 -12q13 -32 24.5 -57t22.5 -46.5t21.5 -41.5t21.5 -43q16 -33 42.5 -56.5t61.5 -23.5q13 0 24.5 -5t11.5 -18q0 -18 -31 -23t-116 -5q-56 0 -89.5 13.5t-50.5 36.5t-26 50q-10 31 -17.5 55.5t-15 51t-16.5 61.5q-4 14 -12 23t-22 9q-8 0 -13 -5.5t-8 -14.5
l-56 -182q-10 -31 4 -43t54 -21q8 -2 12 -6.5t1 -14.5q-3 -7 -8 -11t-13 -4q-21 0 -53 1t-63 2t-51 1q-30 0 -74 -2.5t-77 -2.5zM353 328q37 0 66 14t49.5 40t31 62t10.5 80q0 41 -20 69.5t-49 28.5q-12 0 -20.5 -4.5t-17 -23.5t-22.5 -62l-52 -166q-6 -20 1 -29t23 -9z" />
    <glyph glyph-name="Racute" unicode="&#x154;" horiz-adv-x="773" 
d="M-23 -3q-6 0 -11 4t-3 11q6 17 26 22q41 8 58.5 20t27.5 43l143 458q7 22 4.5 33.5t-13.5 18t-33 11.5q-11 3 -19.5 8t-8.5 13t14.5 12t23.5 4q33 0 54.5 -2t41 -4t45.5 -2q24 0 43 2.5t43 5t61 2.5q69 0 111.5 -20t62.5 -54t20 -75q0 -45 -25 -81.5t-65 -61t-86 -34.5
q-8 -3 -4 -12q13 -32 24.5 -57t22.5 -46.5t21.5 -41.5t21.5 -43q16 -33 42.5 -56.5t61.5 -23.5q13 0 24.5 -5t11.5 -18q0 -18 -31 -23t-116 -5q-56 0 -89.5 13.5t-50.5 36.5t-26 50q-10 31 -17.5 55.5t-15 51t-16.5 61.5q-4 14 -12 23t-22 9q-8 0 -13 -5.5t-8 -14.5
l-56 -182q-10 -31 4 -43t54 -21q8 -2 12 -6.5t1 -14.5q-3 -7 -8 -11t-13 -4q-21 0 -53 1t-63 2t-51 1q-30 0 -74 -2.5t-77 -2.5zM353 328q37 0 66 14t49.5 40t31 62t10.5 80q0 41 -20 69.5t-49 28.5q-12 0 -20.5 -4.5t-17 -23.5t-22.5 -62l-52 -166q-6 -20 1 -29t23 -9z
M425 681q-12 0 -14 8q-1 7 9 23q23 37 46.5 70.5t51.5 67.5q12 15 34 15q8 0 27.5 -4.5t35.5 -12t15 -16.5q-1 -12 -18 -24q-38 -28 -80 -59.5t-81 -57.5q-9 -6 -16 -8t-10 -2z" />
    <glyph glyph-name="Rcaron" unicode="&#x158;" horiz-adv-x="773" 
d="M-23 -3q-6 0 -11 4t-3 11q6 17 26 22q41 8 58.5 20t27.5 43l143 458q7 22 4.5 33.5t-13.5 18t-33 11.5q-11 3 -19.5 8t-8.5 13t14.5 12t23.5 4q33 0 54.5 -2t41 -4t45.5 -2q24 0 43 2.5t43 5t61 2.5q69 0 111.5 -20t62.5 -54t20 -75q0 -45 -25 -81.5t-65 -61t-86 -34.5
q-8 -3 -4 -12q13 -32 24.5 -57t22.5 -46.5t21.5 -41.5t21.5 -43q16 -33 42.5 -56.5t61.5 -23.5q13 0 24.5 -5t11.5 -18q0 -18 -31 -23t-116 -5q-56 0 -89.5 13.5t-50.5 36.5t-26 50q-10 31 -17.5 55.5t-15 51t-16.5 61.5q-4 14 -12 23t-22 9q-8 0 -13 -5.5t-8 -14.5
l-56 -182q-10 -31 4 -43t54 -21q8 -2 12 -6.5t1 -14.5q-3 -7 -8 -11t-13 -4q-21 0 -53 1t-63 2t-51 1q-30 0 -74 -2.5t-77 -2.5zM353 328q37 0 66 14t49.5 40t31 62t10.5 80q0 41 -20 69.5t-49 28.5q-12 0 -20.5 -4.5t-17 -23.5t-22.5 -62l-52 -166q-6 -20 1 -29t23 -9z
M471 698q-14 0 -22 7t-21 23l-76 96q-6 8 -4 16q3 13 24 13q8 0 28.5 -8.5t42.5 -20.5t35 -21q5 -4 10.5 -4t13.5 4q15 7 40 15.5t51.5 16.5t47 13.5t27.5 5.5q16 0 16 -13q0 -11 -12 -20l-139 -93q-23 -16 -35 -23t-27 -7z" />
    <glyph glyph-name="S" unicode="S" horiz-adv-x="539" 
d="M227 -14q-38 0 -71 4.5t-61 16.5q-14 6 -24 9.5t-13 3.5q-7 0 -14 -2.5t-12 -5.5q-7 -4 -13.5 -8t-11.5 -4q-6 0 -15 8.5t-9 15.5q0 8 11.5 33t24.5 60.5t18 73.5q6 35 28 35q14 0 17.5 -16.5t3.5 -51.5q0 -31 13 -61t40.5 -49t69.5 -19q59 0 90.5 31t31.5 74
q0 22 -8 40.5t-30 42.5t-65 62q-49 44 -72.5 84.5t-23.5 101.5q0 56 31.5 101t86.5 71.5t126 26.5q38 0 69 -6.5t53 -13.5q20 -6 32 -9.5t25 -3.5q15 0 26 6q8 5 15.5 8t14.5 3q11 0 13 -7.5t-5 -16.5q-13 -17 -27.5 -46t-26.5 -60.5t-20 -57.5q-3 -10 -8 -16.5t-16 -6.5
q-10 0 -14.5 10.5t-4.5 33.5q0 65 -32.5 104t-85.5 39q-36 0 -59 -15t-34 -38t-11 -47q0 -23 7.5 -41.5t28.5 -40t62 -55.5q62 -51 83 -94t21 -94t-30.5 -100t-87.5 -81t-137 -32z" />
    <glyph glyph-name="Sacute" unicode="&#x15a;" horiz-adv-x="539" 
d="M227 -14q-38 0 -71 4.5t-61 16.5q-14 6 -24 9.5t-13 3.5q-7 0 -14 -2.5t-12 -5.5q-7 -4 -13.5 -8t-11.5 -4q-6 0 -15 8.5t-9 15.5q0 8 11.5 33t24.5 60.5t18 73.5q6 35 28 35q14 0 17.5 -16.5t3.5 -51.5q0 -31 13 -61t40.5 -49t69.5 -19q59 0 90.5 31t31.5 74
q0 22 -8 40.5t-30 42.5t-65 62q-49 44 -72.5 84.5t-23.5 101.5q0 56 31.5 101t86.5 71.5t126 26.5q38 0 69 -6.5t53 -13.5q20 -6 32 -9.5t25 -3.5q15 0 26 6q8 5 15.5 8t14.5 3q11 0 13 -7.5t-5 -16.5q-13 -17 -27.5 -46t-26.5 -60.5t-20 -57.5q-3 -10 -8 -16.5t-16 -6.5
q-10 0 -14.5 10.5t-4.5 33.5q0 65 -32.5 104t-85.5 39q-36 0 -59 -15t-34 -38t-11 -47q0 -23 7.5 -41.5t28.5 -40t62 -55.5q62 -51 83 -94t21 -94t-30.5 -100t-87.5 -81t-137 -32zM377 681q-12 0 -14 8q-1 7 9 23q23 37 46.5 70.5t51.5 67.5q12 15 34 15q8 0 27.5 -4.5
t35.5 -12t15 -16.5q-1 -12 -18 -24q-38 -28 -80 -59.5t-81 -57.5q-9 -6 -16 -8t-10 -2z" />
    <glyph glyph-name="Scaron" unicode="&#x160;" horiz-adv-x="539" 
d="M227 -14q-38 0 -71 4.5t-61 16.5q-14 6 -24 9.5t-13 3.5q-7 0 -14 -2.5t-12 -5.5q-7 -4 -13.5 -8t-11.5 -4q-6 0 -15 8.5t-9 15.5q0 8 11.5 33t24.5 60.5t18 73.5q6 35 28 35q14 0 17.5 -16.5t3.5 -51.5q0 -31 13 -61t40.5 -49t69.5 -19q59 0 90.5 31t31.5 74
q0 22 -8 40.5t-30 42.5t-65 62q-49 44 -72.5 84.5t-23.5 101.5q0 56 31.5 101t86.5 71.5t126 26.5q38 0 69 -6.5t53 -13.5q20 -6 32 -9.5t25 -3.5q15 0 26 6q8 5 15.5 8t14.5 3q11 0 13 -7.5t-5 -16.5q-13 -17 -27.5 -46t-26.5 -60.5t-20 -57.5q-3 -10 -8 -16.5t-16 -6.5
q-10 0 -14.5 10.5t-4.5 33.5q0 65 -32.5 104t-85.5 39q-36 0 -59 -15t-34 -38t-11 -47q0 -23 7.5 -41.5t28.5 -40t62 -55.5q62 -51 83 -94t21 -94t-30.5 -100t-87.5 -81t-137 -32zM423 698q-14 0 -22 7t-21 23l-76 96q-6 8 -4 16q3 13 24 13q8 0 28.5 -8.5t42.5 -20.5
t35 -21q5 -4 10.5 -4t13.5 4q15 7 40 15.5t51.5 16.5t47 13.5t27.5 5.5q16 0 16 -13q0 -11 -12 -20l-139 -93q-23 -16 -35 -23t-27 -7z" />
    <glyph glyph-name="Scedilla" unicode="&#x15e;" horiz-adv-x="499" 
d="M227 -14q-38 0 -71 4.5t-61 16.5q-14 6 -24 9.5t-13 3.5q-7 0 -14 -2.5t-12 -5.5q-7 -4 -13.5 -8t-11.5 -4q-6 0 -15 8.5t-9 15.5q0 8 11.5 33t24.5 60.5t18 73.5q6 35 28 35q14 0 17.5 -16.5t3.5 -51.5q0 -31 13 -61t40.5 -49t69.5 -19q59 0 90.5 31t31.5 74
q0 22 -8 40.5t-30 42.5t-65 62q-49 44 -72.5 84.5t-23.5 101.5q0 56 31.5 101t86.5 71.5t126 26.5q38 0 69 -6.5t53 -13.5q20 -6 32 -9.5t25 -3.5q15 0 26 6q8 5 15.5 8t14.5 3q11 0 13 -7.5t-5 -16.5q-13 -17 -27.5 -46t-26.5 -60.5t-20 -57.5q-3 -10 -8 -16.5t-16 -6.5
q-10 0 -14.5 10.5t-4.5 33.5q0 65 -32.5 104t-85.5 39q-36 0 -59 -15t-34 -38t-11 -47q0 -23 7.5 -41.5t28.5 -40t62 -55.5q62 -51 83 -94t21 -94t-30.5 -100t-87.5 -81t-137 -32zM103 -281q-25 0 -46.5 10.5t-34 26t-12.5 29.5q0 39 31 39q15 0 28.5 -8t26.5 -19
q15 -12 24 -20t22 -8q9 0 13.5 5.5t4.5 13.5q0 14 -10 22.5t-22 20.5q-12 11 -24.5 27t-12.5 29q0 17 20.5 41t50.5 48t59 41h41q-37 -26 -50.5 -43t-13.5 -31q0 -10 10.5 -21t22.5 -22q14 -13 23 -25t9 -25q0 -16 -15.5 -38t-39.5 -43.5t-52 -35.5t-53 -14z" />
    <glyph glyph-name="Scircumflex" unicode="&#x15c;" horiz-adv-x="539" 
d="M227 -14q-38 0 -71 4.5t-61 16.5q-14 6 -24 9.5t-13 3.5q-7 0 -14 -2.5t-12 -5.5q-7 -4 -13.5 -8t-11.5 -4q-6 0 -15 8.5t-9 15.5q0 8 11.5 33t24.5 60.5t18 73.5q6 35 28 35q14 0 17.5 -16.5t3.5 -51.5q0 -31 13 -61t40.5 -49t69.5 -19q59 0 90.5 31t31.5 74
q0 22 -8 40.5t-30 42.5t-65 62q-49 44 -72.5 84.5t-23.5 101.5q0 56 31.5 101t86.5 71.5t126 26.5q38 0 69 -6.5t53 -13.5q20 -6 32 -9.5t25 -3.5q15 0 26 6q8 5 15.5 8t14.5 3q11 0 13 -7.5t-5 -16.5q-13 -17 -27.5 -46t-26.5 -60.5t-20 -57.5q-3 -10 -8 -16.5t-16 -6.5
q-10 0 -14.5 10.5t-4.5 33.5q0 65 -32.5 104t-85.5 39q-36 0 -59 -15t-34 -38t-11 -47q0 -23 7.5 -41.5t28.5 -40t62 -55.5q62 -51 83 -94t21 -94t-30.5 -100t-87.5 -81t-137 -32zM274 692q-21 0 -16 13q3 8 14 16l133 96q23 17 35 23.5t26 6.5q15 0 23 -6.5t21 -23.5
l78 -95q4 -4 4 -8.5t-1 -8.5q-3 -14 -21 -14q-9 0 -30.5 9t-45 20.5t-38.5 19.5q-12 7 -26 0q-14 -6 -36 -14.5t-45.5 -16t-43.5 -12.5t-31 -5z" />
    <glyph glyph-name="uni1E9E" unicode="&#x1e9e;" horiz-adv-x="763" 
d="M417 -14q-26 0 -52.5 4t-43.5 9q-11 4 -17 15t-6 33q0 20 1 40t4 38t7 31q3 9 7.5 14.5t13.5 5.5q6 0 11 -6.5t5 -16.5q1 -21 7.5 -50.5t22 -52t42.5 -22.5q47 0 80.5 22.5t51.5 62t18 90.5q0 44 -23 70.5t-62.5 38.5t-87.5 12q-3 0 -10.5 1.5t-0.5 8.5l234 264
q8 10 -5 17q-9 5 -24 7.5t-29 2.5q-49 0 -95 -23.5t-85 -77.5t-69 -148q-7 -22 -18 -59.5t-23 -79.5t-23 -79t-18 -60q-8 -27 -2.5 -39t31.5 -22q13 -5 13 -15q0 -12 -6 -18t-16 -6q-31 0 -69.5 2t-67.5 2q-30 0 -74.5 -2.5t-77.5 -2.5q-6 0 -10.5 4t-2.5 11q3 9 9.5 14.5
t16.5 7.5q41 9 58.5 20.5t26.5 42.5l86 297q23 78 76.5 139t142 96t214.5 35q74 0 129 -13.5t79 -24.5q20 -9 21.5 -19.5t-7.5 -21.5l-41 -46q-45 -50 -79.5 -92t-72.5 -84q-3 -3 -3 -7t4 -5q47 -11 75.5 -32.5t41.5 -49t13 -56.5q0 -55 -23 -97.5t-66 -71.5t-102 -43.5
t-130 -14.5z" />
    <glyph glyph-name="uni018F" unicode="&#x18f;" horiz-adv-x="688" 
d="M248 -14q-79 0 -129 25.5t-74 66.5t-25 88q0 50 28 80t81 30h426l-14 -41l-321 -11q-37 -1 -57 -27.5t-20 -55.5q0 -42 34 -73t85 -31q45 0 86.5 26t77 69.5t62 97.5t41 111.5t14.5 109.5q0 48 -14.5 83t-42 54.5t-69.5 19.5q-43 0 -81.5 -15.5t-72 -40t-59.5 -51
t-44 -49.5q-8 -10 -17.5 -18t-23.5 -8q-16 0 -10 17.5t14 33.5t19.5 41t25 50t27.5 40q6 7 26.5 7t42.5 9q32 13 81 26t113 13q72 0 129 -30.5t90 -86.5t32 -132q0 -67 -24.5 -129.5t-68.5 -117t-102 -95t-126 -63.5t-140 -23z" />
    <glyph glyph-name="T" unicode="T" horiz-adv-x="688" 
d="M127 -3q-6 0 -12 4t-4 11q3 9 11 14.5t18 7.5q41 9 60.5 20.5t29.5 42.5l133 425q18 59 17.5 75t-18.5 16h-39q-33 0 -67.5 -19t-60.5 -45q-7 -7 -20.5 -20t-28 -23t-25.5 -10q-9 0 -10 5.5t0 12.5q2 6 6 13.5t9 13.5q33 38 49 67t30 66q5 14 12.5 20t17.5 6
q11 0 23.5 -9.5t22.5 -16.5q10 -6 19.5 -11.5t27.5 -9t52 -3.5l259 1q44 0 68.5 3t36 7t16.5 6q22 8 36.5 20t27.5 12q14 0 8 -16q-1 -4 -3 -9t-5 -10q-21 -35 -36 -67t-27 -68q-6 -18 -12 -27.5t-16 -9.5t-13.5 9t-4.5 30q-1 40 -17 61t-59 21h-39q-16 0 -27 -7
t-19.5 -26.5t-20.5 -55.5l-133 -426q-9 -28 3 -40.5t48 -23.5q8 -3 13 -7t2 -14q-2 -7 -8.5 -11t-14.5 -4q-21 0 -51 1t-59 2t-49 1t-48.5 -1t-57.5 -2.5t-51 -1.5z" />
    <glyph glyph-name="Tbar" unicode="&#x166;" horiz-adv-x="701" 
d="M214 327q-11 0 -15.5 9t-0.5 22q5 14 15.5 22.5t23.5 8.5h347q10 0 14.5 -5.5t2.5 -13.5q-4 -15 -22 -29t-35 -14h-330zM127 -3q-6 0 -12 4t-4 11q3 9 11 14.5t18 7.5q41 9 60.5 20.5t29.5 42.5l133 425q18 59 17.5 75t-18.5 16h-39q-33 0 -67.5 -19t-60.5 -45
q-7 -7 -20.5 -20t-28 -23t-25.5 -10q-9 0 -10 5.5t0 12.5q2 6 6 13.5t9 13.5q33 38 49 67t30 66q5 14 12.5 20t17.5 6q11 0 23.5 -9.5t22.5 -16.5q10 -6 19.5 -11.5t27.5 -9t52 -3.5l259 1q44 0 68.5 3t36 7t16.5 6q22 8 36.5 20t27.5 12q14 0 8 -16q-1 -4 -3 -9t-5 -10
q-21 -35 -36 -67t-27 -68q-6 -18 -12 -27.5t-16 -9.5t-13.5 9t-4.5 30q-1 40 -17 61t-59 21h-39q-16 0 -27 -7t-19.5 -26.5t-20.5 -55.5l-133 -426q-9 -28 3 -40.5t48 -23.5q8 -3 13 -7t2 -14q-2 -7 -8.5 -11t-14.5 -4q-21 0 -51 1t-59 2t-49 1t-48.5 -1t-57.5 -2.5
t-51 -1.5z" />
    <glyph glyph-name="Tcaron" unicode="&#x164;" horiz-adv-x="688" 
d="M127 -3q-6 0 -12 4t-4 11q3 9 11 14.5t18 7.5q41 9 60.5 20.5t29.5 42.5l133 425q18 59 17.5 75t-18.5 16h-39q-33 0 -67.5 -19t-60.5 -45q-7 -7 -20.5 -20t-28 -23t-25.5 -10q-9 0 -10 5.5t0 12.5q2 6 6 13.5t9 13.5q33 38 49 67t30 66q5 14 12.5 20t17.5 6
q11 0 23.5 -9.5t22.5 -16.5q10 -6 19.5 -11.5t27.5 -9t52 -3.5l259 1q44 0 68.5 3t36 7t16.5 6q22 8 36.5 20t27.5 12q14 0 8 -16q-1 -4 -3 -9t-5 -10q-21 -35 -36 -67t-27 -68q-6 -18 -12 -27.5t-16 -9.5t-13.5 9t-4.5 30q-1 40 -17 61t-59 21h-39q-16 0 -27 -7
t-19.5 -26.5t-20.5 -55.5l-133 -426q-9 -28 3 -40.5t48 -23.5q8 -3 13 -7t2 -14q-2 -7 -8.5 -11t-14.5 -4q-21 0 -51 1t-59 2t-49 1t-48.5 -1t-57.5 -2.5t-51 -1.5zM509 698q-14 0 -22 7t-21 23l-76 96q-6 8 -4 16q3 13 24 13q8 0 28.5 -8.5t42.5 -20.5t35 -21q5 -4 10.5 -4
t13.5 4q15 7 40 15.5t51.5 16.5t47 13.5t27.5 5.5q16 0 16 -13q0 -11 -12 -20l-139 -93q-23 -16 -35 -23t-27 -7z" />
    <glyph glyph-name="U" unicode="U" horiz-adv-x="715" 
d="M318 -14q-68 0 -117 20t-77.5 56.5t-34.5 86t12 107.5l87 280q8 26 3 50.5t-30 31.5q-24 7 -20 22q2 7 11 11t20 4q33 0 69 -2.5t66 -2.5q29 0 73 2t75 2q27 0 22 -15q-4 -12 -22.5 -17.5t-36.5 -13.5q-18 -7 -34 -25.5t-27 -52.5l-95 -293q-16 -49 -4.5 -87.5t41.5 -60
t69 -21.5q51 0 94.5 26.5t76 70t49.5 95.5q16 45 27.5 82t19.5 63.5t11 39.5q14 59 15 92.5t-7 50.5t-22 26q-10 6 -24.5 10.5t-11.5 14.5q2 8 11 11.5t23 3.5q26 0 41.5 -1t28.5 -1.5t31 -0.5q19 0 31 1t24.5 2t33.5 1q11 0 17 -3t3 -12q-4 -14 -33 -22q-25 -6 -41 -16.5
t-26 -26.5t-19 -41q-25 -73 -45 -139.5t-43 -137.5q-25 -81 -66 -142t-102 -95t-147 -34z" />
    <glyph glyph-name="Uacute" unicode="&#xda;" horiz-adv-x="715" 
d="M318 -14q-68 0 -117 20t-77.5 56.5t-34.5 86t12 107.5l87 280q8 26 3 50.5t-30 31.5q-24 7 -20 22q2 7 11 11t20 4q33 0 69 -2.5t66 -2.5q29 0 73 2t75 2q27 0 22 -15q-4 -12 -22.5 -17.5t-36.5 -13.5q-18 -7 -34 -25.5t-27 -52.5l-95 -293q-16 -49 -4.5 -87.5t41.5 -60
t69 -21.5q51 0 94.5 26.5t76 70t49.5 95.5q16 45 27.5 82t19.5 63.5t11 39.5q14 59 15 92.5t-7 50.5t-22 26q-10 6 -24.5 10.5t-11.5 14.5q2 8 11 11.5t23 3.5q26 0 41.5 -1t28.5 -1.5t31 -0.5q19 0 31 1t24.5 2t33.5 1q11 0 17 -3t3 -12q-4 -14 -33 -22q-25 -6 -41 -16.5
t-26 -26.5t-19 -41q-25 -73 -45 -139.5t-43 -137.5q-25 -81 -66 -142t-102 -95t-147 -34zM504 681q-12 0 -14 8q-1 7 9 23q23 37 46.5 70.5t51.5 67.5q12 15 34 15q8 0 27.5 -4.5t35.5 -12t15 -16.5q-1 -12 -18 -24q-38 -28 -80 -59.5t-81 -57.5q-9 -6 -16 -8t-10 -2z" />
    <glyph glyph-name="Ubreve" unicode="&#x16c;" horiz-adv-x="715" 
d="M318 -14q-68 0 -117 20t-77.5 56.5t-34.5 86t12 107.5l87 280q8 26 3 50.5t-30 31.5q-24 7 -20 22q2 7 11 11t20 4q33 0 69 -2.5t66 -2.5q29 0 73 2t75 2q27 0 22 -15q-4 -12 -22.5 -17.5t-36.5 -13.5q-18 -7 -34 -25.5t-27 -52.5l-95 -293q-16 -49 -4.5 -87.5t41.5 -60
t69 -21.5q51 0 94.5 26.5t76 70t49.5 95.5q16 45 27.5 82t19.5 63.5t11 39.5q14 59 15 92.5t-7 50.5t-22 26q-10 6 -24.5 10.5t-11.5 14.5q2 8 11 11.5t23 3.5q26 0 41.5 -1t28.5 -1.5t31 -0.5q19 0 31 1t24.5 2t33.5 1q11 0 17 -3t3 -12q-4 -14 -33 -22q-25 -6 -41 -16.5
t-26 -26.5t-19 -41q-25 -73 -45 -139.5t-43 -137.5q-25 -81 -66 -142t-102 -95t-147 -34zM562 685q-44 0 -72.5 19t-42.5 45.5t-14 49.5q0 17 6.5 29t19.5 12q9 0 13 -6t10 -16q16 -25 35 -35.5t54 -10.5t61 9t54 37q11 11 19.5 16.5t17.5 5.5q13 0 13 -20q0 -16 -10 -38.5
t-31 -44.5t-54 -37t-79 -15z" />
    <glyph glyph-name="Ucircumflex" unicode="&#xdb;" horiz-adv-x="715" 
d="M318 -14q-68 0 -117 20t-77.5 56.5t-34.5 86t12 107.5l87 280q8 26 3 50.5t-30 31.5q-24 7 -20 22q2 7 11 11t20 4q33 0 69 -2.5t66 -2.5q29 0 73 2t75 2q27 0 22 -15q-4 -12 -22.5 -17.5t-36.5 -13.5q-18 -7 -34 -25.5t-27 -52.5l-95 -293q-16 -49 -4.5 -87.5t41.5 -60
t69 -21.5q51 0 94.5 26.5t76 70t49.5 95.5q16 45 27.5 82t19.5 63.5t11 39.5q14 59 15 92.5t-7 50.5t-22 26q-10 6 -24.5 10.5t-11.5 14.5q2 8 11 11.5t23 3.5q26 0 41.5 -1t28.5 -1.5t31 -0.5q19 0 31 1t24.5 2t33.5 1q11 0 17 -3t3 -12q-4 -14 -33 -22q-25 -6 -41 -16.5
t-26 -26.5t-19 -41q-25 -73 -45 -139.5t-43 -137.5q-25 -81 -66 -142t-102 -95t-147 -34zM401 692q-21 0 -16 13q3 8 14 16l133 96q23 17 35 23.5t26 6.5q15 0 23 -6.5t21 -23.5l78 -95q4 -4 4 -8.5t-1 -8.5q-3 -14 -21 -14q-9 0 -30.5 9t-45 20.5t-38.5 19.5q-12 7 -26 0
q-14 -6 -36 -14.5t-45.5 -16t-43.5 -12.5t-31 -5z" />
    <glyph glyph-name="Udieresis" unicode="&#xdc;" horiz-adv-x="715" 
d="M318 -14q-68 0 -117 20t-77.5 56.5t-34.5 86t12 107.5l87 280q8 26 3 50.5t-30 31.5q-24 7 -20 22q2 7 11 11t20 4q33 0 69 -2.5t66 -2.5q29 0 73 2t75 2q27 0 22 -15q-4 -12 -22.5 -17.5t-36.5 -13.5q-18 -7 -34 -25.5t-27 -52.5l-95 -293q-16 -49 -4.5 -87.5t41.5 -60
t69 -21.5q51 0 94.5 26.5t76 70t49.5 95.5q16 45 27.5 82t19.5 63.5t11 39.5q14 59 15 92.5t-7 50.5t-22 26q-10 6 -24.5 10.5t-11.5 14.5q2 8 11 11.5t23 3.5q26 0 41.5 -1t28.5 -1.5t31 -0.5q19 0 31 1t24.5 2t33.5 1q11 0 17 -3t3 -12q-4 -14 -33 -22q-25 -6 -41 -16.5
t-26 -26.5t-19 -41q-25 -73 -45 -139.5t-43 -137.5q-25 -81 -66 -142t-102 -95t-147 -34zM652 686q-27 0 -45.5 18.5t-18.5 41.5q0 37 28.5 65t72.5 28q28 0 45.5 -20t17.5 -46q0 -23 -14 -43t-36.5 -32t-49.5 -12zM454 686q-28 0 -46 18.5t-18 41.5q0 38 29 65.5t72 27.5
q27 0 44.5 -20t17.5 -46q0 -34 -29.5 -60.5t-69.5 -26.5z" />
    <glyph glyph-name="Ugrave" unicode="&#xd9;" horiz-adv-x="715" 
d="M318 -14q-68 0 -117 20t-77.5 56.5t-34.5 86t12 107.5l87 280q8 26 3 50.5t-30 31.5q-24 7 -20 22q2 7 11 11t20 4q33 0 69 -2.5t66 -2.5q29 0 73 2t75 2q27 0 22 -15q-4 -12 -22.5 -17.5t-36.5 -13.5q-18 -7 -34 -25.5t-27 -52.5l-95 -293q-16 -49 -4.5 -87.5t41.5 -60
t69 -21.5q51 0 94.5 26.5t76 70t49.5 95.5q16 45 27.5 82t19.5 63.5t11 39.5q14 59 15 92.5t-7 50.5t-22 26q-10 6 -24.5 10.5t-11.5 14.5q2 8 11 11.5t23 3.5q26 0 41.5 -1t28.5 -1.5t31 -0.5q19 0 31 1t24.5 2t33.5 1q11 0 17 -3t3 -12q-4 -14 -33 -22q-25 -6 -41 -16.5
t-26 -26.5t-19 -41q-25 -73 -45 -139.5t-43 -137.5q-25 -81 -66 -142t-102 -95t-147 -34zM592 693q-3 0 -10.5 0.5t-17.5 4.5q-43 20 -90 43t-89 44q-18 9 -21 21q-2 8 12.5 17.5t32.5 17.5t25 10q21 6 36 -8q33 -30 60 -61t60 -58q14 -11 14 -21t-12 -10z" />
    <glyph glyph-name="Uhorn" unicode="&#x1af;" horiz-adv-x="715" 
d="M318 -14q-68 0 -117 20t-77.5 56.5t-34.5 86t12 107.5l87 280q8 26 3 50.5t-30 31.5q-24 7 -20 22q2 7 11 11t20 4q33 0 69 -2.5t66 -2.5q29 0 73 2t75 2q27 0 22 -15q-4 -12 -22.5 -17.5t-36.5 -13.5q-18 -7 -34 -25.5t-27 -52.5l-87 -280q-15 -49 -4 -87.5t41 -60
t69 -21.5q51 0 90.5 23t68.5 63.5t46 92.5q16 45 28 83t22 71t18 62q14 49 15 75t-7 39.5t-25 23.5q-10 6 -23 10.5t-10 14.5q2 8 11 11.5t23 3.5q26 0 40.5 -1t27 -1.5t30.5 -0.5q23 0 41 -1t30.5 3.5t18.5 22.5q3 9 -4 14.5t-16 9.5q-8 5 -15 10.5t-7 13.5q0 16 14 30.5
t35.5 24t42.5 9.5q11 0 24 -11t23 -27t10 -31q0 -28 -13 -43t-42 -27.5t-78 -35.5q-25 -12 -42 -28.5t-30 -54.5q-25 -73 -46 -137.5t-44 -135.5q-25 -81 -66 -142t-102 -95t-147 -34z" />
    <glyph glyph-name="Uhungarumlaut" unicode="&#x170;" horiz-adv-x="715" 
d="M318 -14q-68 0 -117 20t-77.5 56.5t-34.5 86t12 107.5l87 280q8 26 3 50.5t-30 31.5q-24 7 -20 22q2 7 11 11t20 4q33 0 69 -2.5t66 -2.5q29 0 73 2t75 2q27 0 22 -15q-4 -12 -22.5 -17.5t-36.5 -13.5q-18 -7 -34 -25.5t-27 -52.5l-95 -293q-16 -49 -4.5 -87.5t41.5 -60
t69 -21.5q51 0 94.5 26.5t76 70t49.5 95.5q16 45 27.5 82t19.5 63.5t11 39.5q14 59 15 92.5t-7 50.5t-22 26q-10 6 -24.5 10.5t-11.5 14.5q2 8 11 11.5t23 3.5q26 0 41.5 -1t28.5 -1.5t31 -0.5q19 0 31 1t24.5 2t33.5 1q11 0 17 -3t3 -12q-4 -14 -33 -22q-25 -6 -41 -16.5
t-26 -26.5t-19 -41q-25 -73 -45 -139.5t-43 -137.5q-25 -81 -66 -142t-102 -95t-147 -34zM607 681q-12 0 -14 8q-1 7 9 23q23 37 46.5 70.5t51.5 67.5q12 15 34 15q8 0 27.5 -4.5t35.5 -12t15 -16.5q-1 -12 -18 -24q-38 -28 -80 -59.5t-81 -57.5q-9 -6 -16 -8t-10 -2z
M439 681q-12 0 -14 8q-1 7 9 23q23 37 46.5 70.5t51.5 67.5q12 15 34 15q8 0 27.5 -4.5t35.5 -12t15 -16.5q-1 -12 -18 -24q-38 -28 -80 -59.5t-81 -57.5q-9 -6 -16 -8t-10 -2z" />
    <glyph glyph-name="Umacron" unicode="&#x16a;" horiz-adv-x="715" 
d="M318 -14q-68 0 -117 20t-77.5 56.5t-34.5 86t12 107.5l87 280q8 26 3 50.5t-30 31.5q-24 7 -20 22q2 7 11 11t20 4q33 0 69 -2.5t66 -2.5q29 0 73 2t75 2q27 0 22 -15q-4 -12 -22.5 -17.5t-36.5 -13.5q-18 -7 -34 -25.5t-27 -52.5l-95 -293q-16 -49 -4.5 -87.5t41.5 -60
t69 -21.5q51 0 94.5 26.5t76 70t49.5 95.5q16 45 27.5 82t19.5 63.5t11 39.5q14 59 15 92.5t-7 50.5t-22 26q-10 6 -24.5 10.5t-11.5 14.5q2 8 11 11.5t23 3.5q26 0 41.5 -1t28.5 -1.5t31 -0.5q19 0 31 1t24.5 2t33.5 1q11 0 17 -3t3 -12q-4 -14 -33 -22q-25 -6 -41 -16.5
t-26 -26.5t-19 -41q-25 -73 -45 -139.5t-43 -137.5q-25 -81 -66 -142t-102 -95t-147 -34zM424 716q-10 0 -15.5 6t-5.5 13q0 30 13 48.5t27 18.5h270q10 0 15 -5.5t5 -13.5q0 -26 -13 -46.5t-30 -20.5h-266z" />
    <glyph glyph-name="Uogonek" unicode="&#x172;" horiz-adv-x="715" 
d="M318 -14q-68 0 -117 20t-77.5 56.5t-34.5 86t12 107.5l87 280q8 26 3 50.5t-30 31.5q-24 7 -20 22q2 7 11 11t20 4q33 0 69 -2.5t66 -2.5q29 0 73 2t75 2q27 0 22 -15q-4 -12 -22.5 -17.5t-36.5 -13.5q-18 -7 -34 -25.5t-27 -52.5l-95 -293q-16 -49 -4.5 -87.5t41.5 -60
t69 -21.5q51 0 94.5 26.5t76 70t49.5 95.5q16 45 27.5 82t19.5 63.5t11 39.5q14 59 15 92.5t-7 50.5t-22 26q-10 6 -24.5 10.5t-11.5 14.5q2 8 11 11.5t23 3.5q26 0 41.5 -1t28.5 -1.5t31 -0.5q19 0 31 1t24.5 2t33.5 1q11 0 17 -3t3 -12q-4 -14 -33 -22q-25 -6 -41 -16.5
t-26 -26.5t-19 -41q-25 -73 -45 -139.5t-43 -137.5q-25 -81 -66 -142t-102 -95t-147 -34zM306 -287q-23 0 -43 13t-31.5 32.5t-11.5 39.5q0 38 19 70.5t49 60t64.5 49.5t66.5 40h44q-32 -22 -59.5 -55.5t-44 -68.5t-16.5 -64q0 -13 8 -20.5t24 -7.5q12 0 27.5 11t28.5 29
q2 2 4 5t5 5t7 2q7 0 8 -6t1 -11q0 -18 -14 -39.5t-36 -41t-48.5 -31.5t-51.5 -12z" />
    <glyph glyph-name="Uring" unicode="&#x16e;" horiz-adv-x="715" 
d="M318 -14q-68 0 -117 20t-77.5 56.5t-34.5 86t12 107.5l87 280q8 26 3 50.5t-30 31.5q-24 7 -20 22q2 7 11 11t20 4q33 0 69 -2.5t66 -2.5q29 0 73 2t75 2q27 0 22 -15q-4 -12 -22.5 -17.5t-36.5 -13.5q-18 -7 -34 -25.5t-27 -52.5l-95 -293q-16 -49 -4.5 -87.5t41.5 -60
t69 -21.5q51 0 94.5 26.5t76 70t49.5 95.5q16 45 27.5 82t19.5 63.5t11 39.5q14 59 15 92.5t-7 50.5t-22 26q-10 6 -24.5 10.5t-11.5 14.5q2 8 11 11.5t23 3.5q26 0 41.5 -1t28.5 -1.5t31 -0.5q19 0 31 1t24.5 2t33.5 1q11 0 17 -3t3 -12q-4 -14 -33 -22q-25 -6 -41 -16.5
t-26 -26.5t-19 -41q-25 -73 -45 -139.5t-43 -137.5q-25 -81 -66 -142t-102 -95t-147 -34zM542 695q-38 0 -69 17t-31 48q0 50 40.5 79.5t98.5 29.5q24 0 47.5 -7.5t38.5 -22.5t15 -36q0 -51 -40.5 -79.5t-99.5 -28.5zM555 728q29 0 44 22t15 46q0 16 -13 26t-31 10
q-29 0 -45.5 -21.5t-16.5 -45.5q0 -16 14 -26.5t33 -10.5z" />
    <glyph glyph-name="Utilde" unicode="&#x168;" horiz-adv-x="715" 
d="M318 -14q-68 0 -117 20t-77.5 56.5t-34.5 86t12 107.5l87 280q8 26 3 50.5t-30 31.5q-24 7 -20 22q2 7 11 11t20 4q33 0 69 -2.5t66 -2.5q29 0 73 2t75 2q27 0 22 -15q-4 -12 -22.5 -17.5t-36.5 -13.5q-18 -7 -34 -25.5t-27 -52.5l-95 -293q-16 -49 -4.5 -87.5t41.5 -60
t69 -21.5q51 0 94.5 26.5t76 70t49.5 95.5q16 45 27.5 82t19.5 63.5t11 39.5q14 59 15 92.5t-7 50.5t-22 26q-10 6 -24.5 10.5t-11.5 14.5q2 8 11 11.5t23 3.5q26 0 41.5 -1t28.5 -1.5t31 -0.5q19 0 31 1t24.5 2t33.5 1q11 0 17 -3t3 -12q-4 -14 -33 -22q-25 -6 -41 -16.5
t-26 -26.5t-19 -41q-25 -73 -45 -139.5t-43 -137.5q-25 -81 -66 -142t-102 -95t-147 -34zM421 691q-5 0 -12 6.5t-7 9.5q0 6 9 22.5t22.5 35.5t26 32.5t19.5 13.5q19 0 41.5 -1.5t44.5 -2.5q19 -1 41 -2t47 -1q11 0 19.5 6.5t15.5 13.5q8 8 12.5 15t7.5 7q5 0 14 -7t9 -12
q0 -4 -4.5 -11t-13.5 -20q-11 -16 -20.5 -31.5t-18.5 -29.5q-6 -9 -15 -11.5t-16 -2.5q-9 0 -33 2t-53.5 4t-54.5 4t-34 2q-8 0 -15.5 -6.5t-13.5 -14.5t-11 -14.5t-7 -6.5z" />
    <glyph glyph-name="V" unicode="V" horiz-adv-x="735" 
d="M182 -18q-37 0 -42 39t8 101q23 113 40 218.5t29 213.5q3 27 -6.5 40.5t-30.5 20.5q-16 6 -26.5 9.5t-10.5 13.5q0 8 9 12t25 4q32 0 74 -2t71 -2q20 0 49 1.5t58.5 2.5t51.5 1q8 0 16 -4t6 -11q-3 -9 -14 -14.5t-21 -7.5q-36 -8 -50.5 -19.5t-20.5 -43.5l-71 -379
q-1 -4 -0.5 -5.5t2.5 -1.5t3 2t5 6l242 287q44 52 56.5 83t3 47t-33.5 24q-9 3 -17.5 8t-5.5 14q2 7 13 10.5t21 3.5q33 0 54.5 -1.5t51.5 -1.5q29 0 54 3t56 3q11 0 21 -4t10 -12q0 -10 -14 -14t-24 -7q-32 -8 -61 -29.5t-55 -50.5l-359 -404q-18 -21 -42.5 -47
t-49.5 -50.5t-45 -40.5t-30 -16z" />
    <glyph glyph-name="uni0194" unicode="&#x194;" horiz-adv-x="735" 
d="M97 -286q-60 0 -88.5 30.5t-28.5 72.5q0 29 11 54.5t30 50t44 48.5t53 49q11 10 14 21t5 20q19 75 34 162.5t26.5 173.5t19.5 158q3 27 -6.5 40.5t-30.5 20.5q-16 6 -26.5 9.5t-10.5 13.5q0 8 9 12t25 4q32 0 74 -2t71 -2q20 0 49 1.5t58.5 2.5t51.5 1q8 0 16 -4t6 -11
q-3 -9 -14 -14.5t-21 -7.5q-36 -8 -50.5 -19.5t-20.5 -43.5l-71 -379q-1 -4 -0.5 -5.5t2.5 -1.5q1 0 8 8l242 287q44 52 56.5 83t3 47t-33.5 24q-9 3 -17.5 8t-5.5 14q2 7 13 10.5t21 3.5q33 0 54.5 -1.5t51.5 -1.5q29 0 54 3t56 3q11 0 21 -4t10 -12q0 -10 -14 -14t-24 -7
q-32 -8 -61 -29.5t-55 -50.5l-375 -423q-21 -28 -25.5 -47.5t-6.5 -42.5q-3 -41 -6 -74.5t-7 -68.5q-5 -51 -27 -89.5t-62 -59.5t-102 -21zM65 -218q12 0 22.5 9.5t18 27.5t9.5 42q2 21 5.5 51t6.5 57q1 4 -1.5 4t-7.5 -4q-25 -21 -44 -43.5t-29.5 -47t-10.5 -52.5
q0 -18 7.5 -31t23.5 -13z" />
    <glyph glyph-name="W" unicode="W" horiz-adv-x="1121" 
d="M194 -18q-19 0 -28.5 20.5t-11 53t3.5 66.5q8 57 16 111t15.5 107.5t14.5 106.5t13 107q2 18 -1.5 29.5t-12.5 19t-23 12.5q-16 6 -26.5 9.5t-10.5 13.5q0 8 9 12t25 4q32 0 68.5 -2t65.5 -2q20 0 51.5 1.5t63.5 2.5t54 1q8 0 16 -4t6 -11q-3 -9 -14 -14.5t-21 -7.5
q-24 -5 -38.5 -12t-21.5 -18.5t-11 -32.5q-14 -85 -32 -174.5t-32 -174.5q-1 -10 3 -11.5t11 7.5l228 276q17 21 31 42.5t14 43.5t-8 33t-29 18q-16 6 -26.5 9.5t-10.5 13.5q0 8 9 12t25 4q21 0 45 -1t47.5 -2t42.5 -1q20 0 51.5 1.5t63.5 2.5t54 1q25 0 25 -15
q0 -9 -11 -14.5t-22 -7.5q-36 -7 -53 -19t-23 -44l-64 -351q-2 -10 2.5 -9t11.5 10l203 261q41 52 51.5 83t2.5 47t-25 22q-9 3 -17.5 8t-5.5 14q2 7 13 10.5t21 3.5q22 0 40.5 -1t36.5 -1.5t38 -0.5q29 0 54 3t56 3q11 0 21 -4t10 -12q0 -10 -14 -14.5t-24 -6.5
q-32 -7 -64.5 -29t-58.5 -51l-347 -399q-35 -40 -64 -75.5t-50.5 -57.5t-36.5 -22q-17 0 -27 7.5t-14.5 22.5t-3.5 38.5t7 56.5q9 52 21 114t23.5 123t18.5 109l-263 -318q-18 -21 -37.5 -48t-40 -52t-40.5 -41t-39 -16z" />
    <glyph glyph-name="Wacute" unicode="&#x1e82;" horiz-adv-x="1121" 
d="M194 -18q-19 0 -28.5 20.5t-11 53t3.5 66.5q8 57 16 111t15.5 107.5t14.5 106.5t13 107q2 18 -1.5 29.5t-12.5 19t-23 12.5q-16 6 -26.5 9.5t-10.5 13.5q0 8 9 12t25 4q32 0 68.5 -2t65.5 -2q20 0 51.5 1.5t63.5 2.5t54 1q8 0 16 -4t6 -11q-3 -9 -14 -14.5t-21 -7.5
q-24 -5 -38.5 -12t-21.5 -18.5t-11 -32.5q-14 -85 -32 -174.5t-32 -174.5q-1 -10 3 -11.5t11 7.5l228 276q17 21 31 42.5t14 43.5t-8 33t-29 18q-16 6 -26.5 9.5t-10.5 13.5q0 8 9 12t25 4q21 0 45 -1t47.5 -2t42.5 -1q20 0 51.5 1.5t63.5 2.5t54 1q25 0 25 -15
q0 -9 -11 -14.5t-22 -7.5q-36 -7 -53 -19t-23 -44l-64 -351q-2 -10 2.5 -9t11.5 10l203 261q41 52 51.5 83t2.5 47t-25 22q-9 3 -17.5 8t-5.5 14q2 7 13 10.5t21 3.5q22 0 40.5 -1t36.5 -1.5t38 -0.5q29 0 54 3t56 3q11 0 21 -4t10 -12q0 -10 -14 -14.5t-24 -6.5
q-32 -7 -64.5 -29t-58.5 -51l-347 -399q-35 -40 -64 -75.5t-50.5 -57.5t-36.5 -22q-17 0 -27 7.5t-14.5 22.5t-3.5 38.5t7 56.5q9 52 21 114t23.5 123t18.5 109l-263 -318q-18 -21 -37.5 -48t-40 -52t-40.5 -41t-39 -16zM681 681q-12 0 -14 8q-1 7 9 23q23 37 46.5 70.5
t51.5 67.5q12 15 34 15q8 0 27.5 -4.5t35.5 -12t15 -16.5q-1 -12 -18 -24q-38 -28 -80 -59.5t-81 -57.5q-9 -6 -16 -8t-10 -2z" />
    <glyph glyph-name="Wcircumflex" unicode="&#x174;" horiz-adv-x="1121" 
d="M194 -18q-19 0 -28.5 20.5t-11 53t3.5 66.5q8 57 16 111t15.5 107.5t14.5 106.5t13 107q2 18 -1.5 29.5t-12.5 19t-23 12.5q-16 6 -26.5 9.5t-10.5 13.5q0 8 9 12t25 4q32 0 68.5 -2t65.5 -2q20 0 51.5 1.5t63.5 2.5t54 1q8 0 16 -4t6 -11q-3 -9 -14 -14.5t-21 -7.5
q-24 -5 -38.5 -12t-21.5 -18.5t-11 -32.5q-14 -85 -32 -174.5t-32 -174.5q-1 -10 3 -11.5t11 7.5l228 276q17 21 31 42.5t14 43.5t-8 33t-29 18q-16 6 -26.5 9.5t-10.5 13.5q0 8 9 12t25 4q21 0 45 -1t47.5 -2t42.5 -1q20 0 51.5 1.5t63.5 2.5t54 1q25 0 25 -15
q0 -9 -11 -14.5t-22 -7.5q-36 -7 -53 -19t-23 -44l-64 -351q-2 -10 2.5 -9t11.5 10l203 261q41 52 51.5 83t2.5 47t-25 22q-9 3 -17.5 8t-5.5 14q2 7 13 10.5t21 3.5q22 0 40.5 -1t36.5 -1.5t38 -0.5q29 0 54 3t56 3q11 0 21 -4t10 -12q0 -10 -14 -14.5t-24 -6.5
q-32 -7 -64.5 -29t-58.5 -51l-347 -399q-35 -40 -64 -75.5t-50.5 -57.5t-36.5 -22q-17 0 -27 7.5t-14.5 22.5t-3.5 38.5t7 56.5q9 52 21 114t23.5 123t18.5 109l-263 -318q-18 -21 -37.5 -48t-40 -52t-40.5 -41t-39 -16zM578 692q-21 0 -16 13q3 8 14 16l133 96
q23 17 35 23.5t26 6.5q15 0 23 -6.5t21 -23.5l78 -95q4 -4 4 -8.5t-1 -8.5q-3 -14 -21 -14q-9 0 -30.5 9t-45 20.5t-38.5 19.5q-12 7 -26 0q-14 -6 -36 -14.5t-45.5 -16t-43.5 -12.5t-31 -5z" />
    <glyph glyph-name="Wdieresis" unicode="&#x1e84;" horiz-adv-x="1121" 
d="M194 -18q-19 0 -28.5 20.5t-11 53t3.5 66.5q8 57 16 111t15.5 107.5t14.5 106.5t13 107q2 18 -1.5 29.5t-12.5 19t-23 12.5q-16 6 -26.5 9.5t-10.5 13.5q0 8 9 12t25 4q32 0 68.5 -2t65.5 -2q20 0 51.5 1.5t63.5 2.5t54 1q8 0 16 -4t6 -11q-3 -9 -14 -14.5t-21 -7.5
q-24 -5 -38.5 -12t-21.5 -18.5t-11 -32.5q-14 -85 -32 -174.5t-32 -174.5q-1 -10 3 -11.5t11 7.5l228 276q17 21 31 42.5t14 43.5t-8 33t-29 18q-16 6 -26.5 9.5t-10.5 13.5q0 8 9 12t25 4q21 0 45 -1t47.5 -2t42.5 -1q20 0 51.5 1.5t63.5 2.5t54 1q25 0 25 -15
q0 -9 -11 -14.5t-22 -7.5q-36 -7 -53 -19t-23 -44l-64 -351q-2 -10 2.5 -9t11.5 10l203 261q41 52 51.5 83t2.5 47t-25 22q-9 3 -17.5 8t-5.5 14q2 7 13 10.5t21 3.5q22 0 40.5 -1t36.5 -1.5t38 -0.5q29 0 54 3t56 3q11 0 21 -4t10 -12q0 -10 -14 -14.5t-24 -6.5
q-32 -7 -64.5 -29t-58.5 -51l-347 -399q-35 -40 -64 -75.5t-50.5 -57.5t-36.5 -22q-17 0 -27 7.5t-14.5 22.5t-3.5 38.5t7 56.5q9 52 21 114t23.5 123t18.5 109l-263 -318q-18 -21 -37.5 -48t-40 -52t-40.5 -41t-39 -16zM829 686q-27 0 -45.5 18.5t-18.5 41.5q0 37 28.5 65
t72.5 28q28 0 45.5 -20t17.5 -46q0 -23 -14 -43t-36.5 -32t-49.5 -12zM631 686q-28 0 -46 18.5t-18 41.5q0 38 29 65.5t72 27.5q27 0 44.5 -20t17.5 -46q0 -34 -29.5 -60.5t-69.5 -26.5z" />
    <glyph glyph-name="Wgrave" unicode="&#x1e80;" horiz-adv-x="1121" 
d="M194 -18q-19 0 -28.5 20.5t-11 53t3.5 66.5q8 57 16 111t15.5 107.5t14.5 106.5t13 107q2 18 -1.5 29.5t-12.5 19t-23 12.5q-16 6 -26.5 9.5t-10.5 13.5q0 8 9 12t25 4q32 0 68.5 -2t65.5 -2q20 0 51.5 1.5t63.5 2.5t54 1q8 0 16 -4t6 -11q-3 -9 -14 -14.5t-21 -7.5
q-24 -5 -38.5 -12t-21.5 -18.5t-11 -32.5q-14 -85 -32 -174.5t-32 -174.5q-1 -10 3 -11.5t11 7.5l228 276q17 21 31 42.5t14 43.5t-8 33t-29 18q-16 6 -26.5 9.5t-10.5 13.5q0 8 9 12t25 4q21 0 45 -1t47.5 -2t42.5 -1q20 0 51.5 1.5t63.5 2.5t54 1q25 0 25 -15
q0 -9 -11 -14.5t-22 -7.5q-36 -7 -53 -19t-23 -44l-64 -351q-2 -10 2.5 -9t11.5 10l203 261q41 52 51.5 83t2.5 47t-25 22q-9 3 -17.5 8t-5.5 14q2 7 13 10.5t21 3.5q22 0 40.5 -1t36.5 -1.5t38 -0.5q29 0 54 3t56 3q11 0 21 -4t10 -12q0 -10 -14 -14.5t-24 -6.5
q-32 -7 -64.5 -29t-58.5 -51l-347 -399q-35 -40 -64 -75.5t-50.5 -57.5t-36.5 -22q-17 0 -27 7.5t-14.5 22.5t-3.5 38.5t7 56.5q9 52 21 114t23.5 123t18.5 109l-263 -318q-18 -21 -37.5 -48t-40 -52t-40.5 -41t-39 -16zM769 693q-3 0 -10.5 0.5t-17.5 4.5q-43 20 -90 43
t-89 44q-18 9 -21 21q-2 8 12.5 17.5t32.5 17.5t25 10q21 6 36 -8q33 -30 60 -61t60 -58q14 -11 14 -21t-12 -10z" />
    <glyph glyph-name="X" unicode="X" horiz-adv-x="730" 
d="M-2 -7q-11 0 -22 3.5t-11 13.5t10 13.5t19 6.5q14 5 30.5 13.5t39 28.5t53.5 57l158 186q14 17 18 30.5t-4 36.5l-53 172q-6 21 -17.5 34.5t-26 21t-32.5 8.5q-10 1 -16 6t-6 15q0 8 6 11.5t13 3.5q50 0 88.5 -3t81.5 -3q35 0 68.5 3.5t70.5 3.5q8 0 17.5 -4t9.5 -11
q0 -9 -9.5 -14.5t-18.5 -7.5q-28 -7 -42.5 -23.5t-5.5 -46.5l46 -154q4 -13 13 -13t16 10l84 110q30 39 39.5 63.5t2.5 37.5t-28 16q-10 2 -20 7.5t-10 14.5q0 7 9.5 10.5t19.5 3.5q23 0 43.5 -2t43.5 -2q29 0 49.5 3.5t51.5 3.5q11 0 22 -3.5t11 -13.5t-10 -13.5t-19 -6.5
q-14 -4 -30.5 -12t-31.5 -18t-26 -22l-184 -210q-13 -16 -17 -30t3 -37l66 -199q5 -15 16 -26.5t24.5 -19t24.5 -10.5q9 -2 22.5 -9t13.5 -17q0 -7 -7 -11t-18 -4q-42 0 -72 1.5t-56.5 3t-60.5 1.5q-30 0 -60 -1.5t-62 -1.5q-8 0 -17.5 4t-9.5 11q0 9 9.5 14.5t18.5 7.5
q32 8 46 20.5t6 38.5l-54 189q-4 13 -12.5 13t-16.5 -10l-106 -146q-28 -38 -31 -60t11 -32.5t36 -15.5q10 -2 20 -7.5t10 -14.5q0 -7 -9 -10.5t-20 -3.5q-33 0 -51.5 2t-48.5 2q-29 0 -53 -3.5t-56 -3.5z" />
    <glyph glyph-name="Y" unicode="Y" horiz-adv-x="669" 
d="M119 -6q-13 0 -18.5 5t-3.5 12q2 9 13 14.5t22 7.5q41 8 61 27t29 50l42 136q10 30 9.5 54t-8.5 53l-61 201q-7 20 -17 36t-29 23t-26 11.5t-4 14.5q2 8 9.5 11.5t14.5 3.5q47 0 83 -3t81 -3q29 0 61 3.5t69 3.5q8 0 16 -4t6 -11q-2 -9 -13.5 -14.5t-20.5 -7.5
q-49 -11 -62.5 -27.5t-6.5 -47.5l42 -187q4 -15 7 -19t7 -4t9 4t12 13q34 41 71.5 89.5t73.5 92.5q27 32 25.5 55.5t-44.5 30.5q-10 2 -18.5 7.5t-5.5 14.5q2 7 13 10.5t21 3.5q23 0 46.5 -2.5t51.5 -2.5q31 0 56.5 4t55.5 4q11 0 19 -3.5t5 -13.5t-12.5 -13.5t-19.5 -6.5
q-21 -5 -42 -14t-38.5 -21t-29.5 -26q-30 -35 -59 -68l-58 -66t-60 -67q-18 -19 -31.5 -43.5t-23.5 -55.5l-45 -148q-12 -38 -3 -52.5t44 -25.5q11 -3 18.5 -7t4.5 -14q-2 -7 -11 -12t-20 -5q-21 0 -49.5 2t-56.5 4t-48 2t-47.5 -2t-55.5 -4.5t-50 -2.5z" />
    <glyph glyph-name="Yacute" unicode="&#xdd;" horiz-adv-x="669" 
d="M119 -6q-13 0 -18.5 5t-3.5 12q2 9 13 14.5t22 7.5q41 8 61 27t29 50l42 136q10 30 9.5 54t-8.5 53l-61 201q-7 20 -17 36t-29 23t-26 11.5t-4 14.5q2 8 9.5 11.5t14.5 3.5q47 0 83 -3t81 -3q29 0 61 3.5t69 3.5q8 0 16 -4t6 -11q-2 -9 -13.5 -14.5t-20.5 -7.5
q-49 -11 -62.5 -27.5t-6.5 -47.5l42 -187q4 -15 7 -19t7 -4t9 4t12 13q34 41 71.5 89.5t73.5 92.5q27 32 25.5 55.5t-44.5 30.5q-10 2 -18.5 7.5t-5.5 14.5q2 7 13 10.5t21 3.5q23 0 46.5 -2.5t51.5 -2.5q31 0 56.5 4t55.5 4q11 0 19 -3.5t5 -13.5t-12.5 -13.5t-19.5 -6.5
q-21 -5 -42 -14t-38.5 -21t-29.5 -26q-30 -35 -59 -68l-58 -66t-60 -67q-18 -19 -31.5 -43.5t-23.5 -55.5l-45 -148q-12 -38 -3 -52.5t44 -25.5q11 -3 18.5 -7t4.5 -14q-2 -7 -11 -12t-20 -5q-21 0 -49.5 2t-56.5 4t-48 2t-47.5 -2t-55.5 -4.5t-50 -2.5zM468 681
q-12 0 -14 8q-1 7 9 23q23 37 46.5 70.5t51.5 67.5q12 15 34 15q8 0 27.5 -4.5t35.5 -12t15 -16.5q-1 -12 -18 -24q-38 -28 -80 -59.5t-81 -57.5q-9 -6 -16 -8t-10 -2z" />
    <glyph glyph-name="Ycircumflex" unicode="&#x176;" horiz-adv-x="669" 
d="M119 -6q-13 0 -18.5 5t-3.5 12q2 9 13 14.5t22 7.5q41 8 61 27t29 50l42 136q10 30 9.5 54t-8.5 53l-61 201q-7 20 -17 36t-29 23t-26 11.5t-4 14.5q2 8 9.5 11.5t14.5 3.5q47 0 83 -3t81 -3q29 0 61 3.5t69 3.5q8 0 16 -4t6 -11q-2 -9 -13.5 -14.5t-20.5 -7.5
q-49 -11 -62.5 -27.5t-6.5 -47.5l42 -187q4 -15 7 -19t7 -4t9 4t12 13q34 41 71.5 89.5t73.5 92.5q27 32 25.5 55.5t-44.5 30.5q-10 2 -18.5 7.5t-5.5 14.5q2 7 13 10.5t21 3.5q23 0 46.5 -2.5t51.5 -2.5q31 0 56.5 4t55.5 4q11 0 19 -3.5t5 -13.5t-12.5 -13.5t-19.5 -6.5
q-21 -5 -42 -14t-38.5 -21t-29.5 -26q-30 -35 -59 -68l-58 -66t-60 -67q-18 -19 -31.5 -43.5t-23.5 -55.5l-45 -148q-12 -38 -3 -52.5t44 -25.5q11 -3 18.5 -7t4.5 -14q-2 -7 -11 -12t-20 -5q-21 0 -49.5 2t-56.5 4t-48 2t-47.5 -2t-55.5 -4.5t-50 -2.5zM365 692
q-21 0 -16 13q3 8 14 16l133 96q23 17 35 23.5t26 6.5q15 0 23 -6.5t21 -23.5l78 -95q4 -4 4 -8.5t-1 -8.5q-3 -14 -21 -14q-9 0 -30.5 9t-45 20.5t-38.5 19.5q-12 7 -26 0q-14 -6 -36 -14.5t-45.5 -16t-43.5 -12.5t-31 -5z" />
    <glyph glyph-name="Ydieresis" unicode="&#x178;" horiz-adv-x="669" 
d="M119 -6q-13 0 -18.5 5t-3.5 12q2 9 13 14.5t22 7.5q41 8 61 27t29 50l42 136q10 30 9.5 54t-8.5 53l-61 201q-7 20 -17 36t-29 23t-26 11.5t-4 14.5q2 8 9.5 11.5t14.5 3.5q47 0 83 -3t81 -3q29 0 61 3.5t69 3.5q8 0 16 -4t6 -11q-2 -9 -13.5 -14.5t-20.5 -7.5
q-49 -11 -62.5 -27.5t-6.5 -47.5l42 -187q4 -15 7 -19t7 -4t9 4t12 13q34 41 71.5 89.5t73.5 92.5q27 32 25.5 55.5t-44.5 30.5q-10 2 -18.5 7.5t-5.5 14.5q2 7 13 10.5t21 3.5q23 0 46.5 -2.5t51.5 -2.5q31 0 56.5 4t55.5 4q11 0 19 -3.5t5 -13.5t-12.5 -13.5t-19.5 -6.5
q-21 -5 -42 -14t-38.5 -21t-29.5 -26q-30 -35 -59 -68l-58 -66t-60 -67q-18 -19 -31.5 -43.5t-23.5 -55.5l-45 -148q-12 -38 -3 -52.5t44 -25.5q11 -3 18.5 -7t4.5 -14q-2 -7 -11 -12t-20 -5q-21 0 -49.5 2t-56.5 4t-48 2t-47.5 -2t-55.5 -4.5t-50 -2.5zM616 686
q-27 0 -45.5 18.5t-18.5 41.5q0 37 28.5 65t72.5 28q28 0 45.5 -20t17.5 -46q0 -23 -14 -43t-36.5 -32t-49.5 -12zM418 686q-28 0 -46 18.5t-18 41.5q0 38 29 65.5t72 27.5q27 0 44.5 -20t17.5 -46q0 -34 -29.5 -60.5t-69.5 -26.5z" />
    <glyph glyph-name="Ygrave" unicode="&#x1ef2;" horiz-adv-x="669" 
d="M119 -6q-13 0 -18.5 5t-3.5 12q2 9 13 14.5t22 7.5q41 8 61 27t29 50l42 136q10 30 9.5 54t-8.5 53l-61 201q-7 20 -17 36t-29 23t-26 11.5t-4 14.5q2 8 9.5 11.5t14.5 3.5q47 0 83 -3t81 -3q29 0 61 3.5t69 3.5q8 0 16 -4t6 -11q-2 -9 -13.5 -14.5t-20.5 -7.5
q-49 -11 -62.5 -27.5t-6.5 -47.5l42 -187q4 -15 7 -19t7 -4t9 4t12 13q34 41 71.5 89.5t73.5 92.5q27 32 25.5 55.5t-44.5 30.5q-10 2 -18.5 7.5t-5.5 14.5q2 7 13 10.5t21 3.5q23 0 46.5 -2.5t51.5 -2.5q31 0 56.5 4t55.5 4q11 0 19 -3.5t5 -13.5t-12.5 -13.5t-19.5 -6.5
q-21 -5 -42 -14t-38.5 -21t-29.5 -26q-30 -35 -59 -68l-58 -66t-60 -67q-18 -19 -31.5 -43.5t-23.5 -55.5l-45 -148q-12 -38 -3 -52.5t44 -25.5q11 -3 18.5 -7t4.5 -14q-2 -7 -11 -12t-20 -5q-21 0 -49.5 2t-56.5 4t-48 2t-47.5 -2t-55.5 -4.5t-50 -2.5zM556 693
q-3 0 -10.5 0.5t-17.5 4.5q-43 20 -90 43t-89 44q-18 9 -21 21q-2 8 12.5 17.5t32.5 17.5t25 10q21 6 36 -8q33 -30 60 -61t60 -58q14 -11 14 -21t-12 -10z" />
    <glyph glyph-name="Z" unicode="Z" horiz-adv-x="642" 
d="M503 -4q-4 0 -28 0.5t-64 1.5t-89.5 2t-104.5 1q-60 0 -104 -1t-78 -3t-65 -4q-10 -1 -9.5 13.5t4.5 18.5q14 17 27.5 33t27 32.5t27.5 31.5q50 56 100.5 115t101.5 119t102.5 120t103.5 118q6 7 6.5 14t-13.5 7q-9 0 -25 -0.5t-33.5 -1.5t-33 -2t-23.5 -2
q-41 -6 -78 -24.5t-72 -61.5q-10 -13 -20 -24t-26 -11q-9 0 -10 5.5t0 12.5q2 6 4 13t6 14q18 32 28 57.5t20 50.5q7 16 13.5 22.5t18.5 6.5q32 0 72 -10t90 -10h51.5h51.5q28 0 67 1.5t76 2.5t59 1q8 0 11 -10.5t-1 -14.5l-100 -114q-44 -50 -92.5 -106.5t-98 -115
t-98.5 -116t-95 -109.5q-23 -26 6 -26q17 0 54.5 0.5t70.5 1.5q31 1 56.5 4t47 9.5t40.5 16.5q28 15 51.5 36t46.5 52q6 8 11 10t11 2t9.5 -4t1.5 -11q-4 -13 -13 -30.5t-20 -37t-22.5 -39t-22.5 -37.5q-6 -10 -15 -15t-20 -5z" />
    <glyph glyph-name="Zacute" unicode="&#x179;" horiz-adv-x="642" 
d="M503 -4q-4 0 -28 0.5t-64 1.5t-89.5 2t-104.5 1q-60 0 -104 -1t-78 -3t-65 -4q-10 -1 -9.5 13.5t4.5 18.5q14 17 27.5 33t27 32.5t27.5 31.5q50 56 100.5 115t101.5 119t102.5 120t103.5 118q6 7 6.5 14t-13.5 7q-9 0 -25 -0.5t-33.5 -1.5t-33 -2t-23.5 -2
q-41 -6 -78 -24.5t-72 -61.5q-10 -13 -20 -24t-26 -11q-9 0 -10 5.5t0 12.5q2 6 4 13t6 14q18 32 28 57.5t20 50.5q7 16 13.5 22.5t18.5 6.5q32 0 72 -10t90 -10h51.5h51.5q28 0 67 1.5t76 2.5t59 1q8 0 11 -10.5t-1 -14.5l-100 -114q-44 -50 -92.5 -106.5t-98 -115
t-98.5 -116t-95 -109.5q-23 -26 6 -26q17 0 54.5 0.5t70.5 1.5q31 1 56.5 4t47 9.5t40.5 16.5q28 15 51.5 36t46.5 52q6 8 11 10t11 2t9.5 -4t1.5 -11q-4 -13 -13 -30.5t-20 -37t-22.5 -39t-22.5 -37.5q-6 -10 -15 -15t-20 -5zM421 681q-12 0 -14 8q-1 7 9 23
q23 37 46.5 70.5t51.5 67.5q12 15 34 15q8 0 27.5 -4.5t35.5 -12t15 -16.5q-1 -12 -18 -24q-38 -28 -80 -59.5t-81 -57.5q-9 -6 -16 -8t-10 -2z" />
    <glyph glyph-name="Zcaron" unicode="&#x17d;" horiz-adv-x="642" 
d="M503 -4q-4 0 -28 0.5t-64 1.5t-89.5 2t-104.5 1q-60 0 -104 -1t-78 -3t-65 -4q-10 -1 -9.5 13.5t4.5 18.5q14 17 27.5 33t27 32.5t27.5 31.5q50 56 100.5 115t101.5 119t102.5 120t103.5 118q6 7 6.5 14t-13.5 7q-9 0 -25 -0.5t-33.5 -1.5t-33 -2t-23.5 -2
q-41 -6 -78 -24.5t-72 -61.5q-10 -13 -20 -24t-26 -11q-9 0 -10 5.5t0 12.5q2 6 4 13t6 14q18 32 28 57.5t20 50.5q7 16 13.5 22.5t18.5 6.5q32 0 72 -10t90 -10h51.5h51.5q28 0 67 1.5t76 2.5t59 1q8 0 11 -10.5t-1 -14.5l-100 -114q-44 -50 -92.5 -106.5t-98 -115
t-98.5 -116t-95 -109.5q-23 -26 6 -26q17 0 54.5 0.5t70.5 1.5q31 1 56.5 4t47 9.5t40.5 16.5q28 15 51.5 36t46.5 52q6 8 11 10t11 2t9.5 -4t1.5 -11q-4 -13 -13 -30.5t-20 -37t-22.5 -39t-22.5 -37.5q-6 -10 -15 -15t-20 -5zM467 698q-14 0 -22 7t-21 23l-76 96
q-6 8 -4 16q3 13 24 13q8 0 28.5 -8.5t42.5 -20.5t35 -21q5 -4 10.5 -4t13.5 4q15 7 40 15.5t51.5 16.5t47 13.5t27.5 5.5q16 0 16 -13q0 -11 -12 -20l-139 -93q-23 -16 -35 -23t-27 -7z" />
    <glyph glyph-name="Zdotaccent" unicode="&#x17b;" horiz-adv-x="642" 
d="M503 -4q-4 0 -28 0.5t-64 1.5t-89.5 2t-104.5 1q-60 0 -104 -1t-78 -3t-65 -4q-10 -1 -9.5 13.5t4.5 18.5q14 17 27.5 33t27 32.5t27.5 31.5q50 56 100.5 115t101.5 119t102.5 120t103.5 118q6 7 6.5 14t-13.5 7q-9 0 -25 -0.5t-33.5 -1.5t-33 -2t-23.5 -2
q-41 -6 -78 -24.5t-72 -61.5q-10 -13 -20 -24t-26 -11q-9 0 -10 5.5t0 12.5q2 6 4 13t6 14q18 32 28 57.5t20 50.5q7 16 13.5 22.5t18.5 6.5q32 0 72 -10t90 -10h51.5h51.5q28 0 67 1.5t76 2.5t59 1q8 0 11 -10.5t-1 -14.5l-100 -114q-44 -50 -92.5 -106.5t-98 -115
t-98.5 -116t-95 -109.5q-23 -26 6 -26q17 0 54.5 0.5t70.5 1.5q31 1 56.5 4t47 9.5t40.5 16.5q28 15 51.5 36t46.5 52q6 8 11 10t11 2t9.5 -4t1.5 -11q-4 -13 -13 -30.5t-20 -37t-22.5 -39t-22.5 -37.5q-6 -10 -15 -15t-20 -5zM471 692q-31 0 -52 19.5t-21 43.5
q0 41 32.5 70t82.5 29q32 0 52 -21.5t20 -48.5q0 -24 -16 -45t-42 -34t-56 -13z" />
    <glyph glyph-name="uni0122" unicode="&#x122;" horiz-adv-x="734" 
d="M328 -14q-75 0 -134 26.5t-95.5 76.5t-44.5 119.5t18 154.5q19 61 59.5 115.5t99 96t132 65.5t157.5 24q35 0 62 -6.5t47 -13.5q19 -6 30 -9.5t23 -3.5q7 0 13 1t13 5q8 5 15.5 8t14.5 3q11 0 13 -7.5t-5 -16.5q-13 -17 -27.5 -46t-26.5 -60.5t-20 -57.5q-3 -10 -8 -16.5
t-16 -6.5q-22 0 -19 44q2 31 -1.5 56.5t-17.5 44.5q-14 20 -40.5 33t-55.5 13q-41 0 -82 -19t-79.5 -58t-72.5 -100t-60 -145q-18 -59 -15.5 -110.5t22 -90t54 -60.5t79.5 -22q36 0 62.5 24.5t36.5 55.5l34 112q3 11 1 20.5t-16 15.5q-13 6 -31.5 10.5t-30.5 7.5
q-8 2 -14.5 8t-3.5 15q2 7 10 11t16 4q22 0 52 -2.5t59 -5t49 -2.5q29 0 61 4.5t80 4.5q16 0 11 -15q-3 -10 -9 -14.5t-16 -6.5q-32 -7 -45.5 -18t-24.5 -31q-8 -15 -17.5 -37t-16 -41t-6.5 -26q0 -11 6 -20t16 -20q-9 -18 -43 -34t-80 -29t-92.5 -20.5t-79.5 -7.5z
M174 -294q-24 0 -24 14q0 7 5.5 12.5t18.5 9.5q29 8 49.5 19.5t31.5 26t11 30.5q0 13 -9 20.5t-20 12.5q-14 7 -20.5 17t-6.5 23q0 27 21 43.5t56 16.5q38 0 56.5 -22t18.5 -57q0 -26 -16 -55t-42.5 -54t-60 -41t-69.5 -16z" />
    <glyph glyph-name="uni0136" unicode="&#x136;" horiz-adv-x="776" 
d="M-24 -6q-9 0 -17 5.5t-6 12.5q6 17 32 22q41 8 55.5 20t24.5 43l140 454q10 32 1 45t-46 22q-7 2 -10 5.5t-3 9.5q0 9 9.5 15.5t23.5 6.5q17 0 42 -1t51 -2.5t46 -1.5t48.5 1t57.5 2t50 1q14 0 14 -11q0 -12 -9 -17t-19 -8q-30 -8 -46.5 -16t-25 -20t-14.5 -32l-55 -178
q-3 -10 1 -13t14 -3q20 0 43 12t48 37l147 143q11 11 18 19t9 15q4 11 -10.5 19.5t-29.5 11.5q-13 2 -17.5 6.5t-4.5 13.5t7 13.5t17 4.5h80q52 0 99 1.5t108 1.5q22 0 22 -15q0 -9 -13.5 -14.5t-22.5 -6.5q-55 -4 -92 -19.5t-69 -41.5t-67 -55t-69.5 -59.5t-65.5 -61.5
q-10 -10 -12 -17t2 -15q47 -102 84.5 -160.5t65.5 -90.5q20 -23 41 -36.5t44 -22.5q10 -4 22.5 -9.5t12.5 -15.5q0 -8 -9 -13.5t-29 -5.5q-30 0 -56 1.5t-49.5 3t-48.5 1.5q-24 0 -46.5 -0.5t-44 -1.5t-44.5 -1q-7 0 -15 4.5t-8 11.5q0 11 9.5 16.5t22.5 7.5q17 3 20 14
t-1 24.5t-8 24.5l-82 181q-10 21 -18 30t-13 9q-6 0 -8.5 -2.5t-4.5 -7.5l-62 -213q-8 -28 -3 -40.5t40 -23.5q8 -3 14 -6.5t6 -11.5q0 -10 -12 -15t-23 -5q-32 0 -56 2t-44 4t-40 2q-30 0 -60.5 -5t-82.5 -5zM194 -294q-24 0 -24 14q0 7 5.5 12.5t18.5 9.5q29 8 49.5 19.5
t31.5 26t11 30.5q0 13 -9 20.5t-20 12.5q-14 7 -20.5 17t-6.5 23q0 27 21 43.5t56 16.5q38 0 56.5 -22t18.5 -57q0 -26 -16 -55t-42.5 -54t-60 -41t-69.5 -16z" />
    <glyph glyph-name="uni013B" unicode="&#x13b;" horiz-adv-x="578" 
d="M-28 -5q-9 0 -12 5t-2 11q4 15 26 21q36 11 53 21.5t27 41.5l141 456q10 32 1 44.5t-46 22.5q-8 2 -11 7.5t-1 14.5q2 7 9 11t13 4q22 0 49 -1t53.5 -2.5t46.5 -1.5t48.5 1t57.5 2t50 1q16 0 11 -15q-3 -10 -9 -14t-16 -7q-30 -8 -46.5 -16t-25 -20t-14.5 -32l-122 -396
q-21 -69 -11.5 -91.5t37.5 -22.5h26q40 0 73.5 9.5t58.5 25.5q29 20 50 47.5t37 61.5q4 8 10 14t12 6q5 0 8.5 -6.5t3.5 -13.5q0 -16 -6.5 -39.5t-16.5 -48.5t-20.5 -47t-19.5 -35q-4 -7 -9 -13t-14 -6q-14 0 -53.5 1t-92.5 1.5t-108.5 1.5t-100.5 1q-30 0 -73 -2.5
t-72 -2.5zM135 -294q-24 0 -24 14q0 7 5.5 12.5t18.5 9.5q29 8 49.5 19.5t31.5 26t11 30.5q0 13 -9 20.5t-20 12.5q-14 7 -20.5 17t-6.5 23q0 27 21 43.5t56 16.5q38 0 56.5 -22t18.5 -57q0 -26 -16 -55t-42.5 -54t-60 -41t-69.5 -16z" />
    <glyph glyph-name="uni0145" unicode="&#x145;" horiz-adv-x="783" 
d="M3 -3q-6 0 -13 4t-5 11q3 9 12 13.5t19 7.5q30 8 50.5 28t33.5 54l151 395q14 37 8.5 60t-28.5 35t-63 15q-13 2 -20 7t-7 15q0 6 11 11t22 5q21 0 55.5 -1t73 -2.5t69.5 -1.5q14 0 22.5 -5.5t13.5 -16.5l191 -432q2 -4 4.5 -8t5.5 -4q7 0 12 14q3 7 7.5 21.5t11 35.5
t14 47.5t15.5 56.5t15.5 62.5t13.5 65.5q14 68 -4.5 94.5t-73.5 36.5q-17 3 -16 15q1 7 10 11t16 4q41 0 71 -3t44 -3q20 0 38.5 2t39.5 3.5t46 1.5q19 0 19 -15q0 -7 -11.5 -11.5t-22.5 -6.5q-24 -5 -41 -14.5t-30.5 -32.5t-27.5 -67q-6 -20 -13.5 -44.5t-16 -52.5
t-17.5 -58.5t-19 -62.5t-19.5 -64.5t-19.5 -64.5q-10 -31 -8.5 -48.5t14.5 -40.5q5 -7 10.5 -17.5t12.5 -17.5q8 -7 13.5 -10t5.5 -8q0 -10 -5.5 -13t-16.5 -3q-29 0 -48 -2t-34.5 -3.5t-35.5 -2.5q-31 -1 -46 14t-27 46q-6 16 -22 54.5t-36.5 88t-42 101t-39.5 95t-29 70
t-11 25.5q-1 2 -3.5 6t-4.5 4q-4 0 -7.5 -7t-5.5 -12q-13 -32 -31 -79.5t-36 -100t-32.5 -101t-22.5 -83.5q-8 -38 4 -53t54 -26q8 -2 15.5 -6.5t4.5 -14.5q-2 -7 -11.5 -11t-17.5 -4q-27 0 -42.5 1t-26.5 1.5t-27 0.5q-23 0 -49 -1t-44.5 -2zM249 -294q-24 0 -24 14
q0 7 5.5 12.5t18.5 9.5q29 8 49.5 19.5t31.5 26t11 30.5q0 13 -9 20.5t-20 12.5q-14 7 -20.5 17t-6.5 23q0 27 21 43.5t56 16.5q38 0 56.5 -22t18.5 -57q0 -26 -16 -55t-42.5 -54t-60 -41t-69.5 -16z" />
    <glyph glyph-name="uni0156" unicode="&#x156;" horiz-adv-x="773" 
d="M-23 -3q-6 0 -11 4t-3 11q6 17 26 22q41 8 58.5 20t27.5 43l143 458q7 22 4.5 33.5t-13.5 18t-33 11.5q-11 3 -19.5 8t-8.5 13t14.5 12t23.5 4q33 0 54.5 -2t41 -4t45.5 -2q24 0 43 2.5t43 5t61 2.5q69 0 111.5 -20t62.5 -54t20 -75q0 -45 -25 -81.5t-65 -61t-86 -34.5
q-8 -3 -4 -12q13 -32 24.5 -57t22.5 -46.5t21.5 -41.5t21.5 -43q16 -33 42.5 -56.5t61.5 -23.5q13 0 24.5 -5t11.5 -18q0 -18 -31 -23t-116 -5q-56 0 -89.5 13.5t-50.5 36.5t-26 50q-10 31 -17.5 55.5t-15 51t-16.5 61.5q-4 14 -12 23t-22 9q-8 0 -13 -5.5t-8 -14.5
l-56 -182q-10 -31 4 -43t54 -21q8 -2 12 -6.5t1 -14.5q-3 -7 -8 -11t-13 -4q-21 0 -53 1t-63 2t-51 1q-30 0 -74 -2.5t-77 -2.5zM353 328q37 0 66 14t49.5 40t31 62t10.5 80q0 41 -20 69.5t-49 28.5q-12 0 -20.5 -4.5t-17 -23.5t-22.5 -62l-52 -166q-6 -20 1 -29t23 -9z
M211 -294q-24 0 -24 14q0 7 5.5 12.5t18.5 9.5q29 8 49.5 19.5t31.5 26t11 30.5q0 13 -9 20.5t-20 12.5q-14 7 -20.5 17t-6.5 23q0 27 21 43.5t56 16.5q38 0 56.5 -22t18.5 -57q0 -26 -16 -55t-42.5 -54t-60 -41t-69.5 -16z" />
    <glyph glyph-name="uni0162" unicode="&#x162;" horiz-adv-x="688" 
d="M127 -3q-6 0 -12 4t-4 11q3 9 11 14.5t18 7.5q41 9 60.5 20.5t29.5 42.5l133 425q18 59 17.5 75t-18.5 16h-39q-33 0 -67.5 -19t-60.5 -45q-7 -7 -20.5 -20t-28 -23t-25.5 -10q-9 0 -10 5.5t0 12.5q2 6 6 13.5t9 13.5q33 38 49 67t30 66q5 14 12.5 20t17.5 6
q11 0 23.5 -9.5t22.5 -16.5q10 -6 19.5 -11.5t27.5 -9t52 -3.5l259 1q44 0 68.5 3t36 7t16.5 6q22 8 36.5 20t27.5 12q14 0 8 -16q-1 -4 -3 -9t-5 -10q-21 -35 -36 -67t-27 -68q-6 -18 -12 -27.5t-16 -9.5t-13.5 9t-4.5 30q-1 40 -17 61t-59 21h-39q-16 0 -27 -7
t-19.5 -26.5t-20.5 -55.5l-133 -426q-9 -28 3 -40.5t48 -23.5q8 -3 13 -7t2 -14q-2 -7 -8.5 -11t-14.5 -4q-21 0 -51 1t-59 2t-49 1t-48.5 -1t-57.5 -2.5t-51 -1.5zM190 -281q-25 0 -46.5 10.5t-34 26t-12.5 29.5q0 39 31 39q15 0 28.5 -8t26.5 -19q15 -12 24 -20t22 -8
q9 0 13.5 5.5t4.5 13.5q0 14 -10 22.5t-22 20.5q-12 11 -24.5 27t-12.5 29q0 17 20.5 41t50.5 48t59 41h41q-37 -26 -50.5 -43t-13.5 -31q0 -10 10.5 -21t22.5 -22q14 -13 23 -25t9 -25q0 -16 -15.5 -38t-39.5 -43.5t-52 -35.5t-53 -14z" />
    <glyph glyph-name="uni0181" unicode="&#x181;" horiz-adv-x="754" 
d="M83 -5q-16 0 -16 12q0 7 8 14t20 11q36 11 52.5 21.5t26.5 41.5l145 464q6 21 -0.5 32.5t-26.5 11.5q-43 0 -74.5 -20.5t-31.5 -58.5q0 -7 2.5 -11.5t6.5 -8.5q6 -7 11.5 -14.5t1.5 -18.5q-4 -14 -21.5 -28.5t-36.5 -24t-29 -9.5q-11 0 -19.5 8t-13 22t-5.5 31
q0 52 27 87t74 55.5t109.5 29.5t132.5 9q24 0 44 0.5t44.5 1.5t60.5 1q61 0 103.5 -14.5t65 -43t22.5 -70.5q0 -29 -15 -55.5t-40.5 -48t-58.5 -36.5t-70 -23q-4 -1 -5.5 -4.5t2.5 -5.5q58 -19 95 -56t37 -99q0 -58 -26.5 -97t-73.5 -62t-107.5 -33t-129.5 -10
q-38 0 -72.5 2t-73.5 2q-20 0 -46.5 -1t-52.5 -2.5t-46 -1.5zM387 30q30 5 58 24.5t49.5 48.5t34.5 62t13 65q0 40 -21 69t-60 29q-24 0 -35 -5t-16 -19l-64 -205q-3 -10 -3.5 -23.5t3.5 -21.5q5 -8 16 -16t25 -8zM467 362q23 0 40.5 6t35.5 14q32 26 55.5 65.5t23.5 91.5
q0 33 -20.5 60t-50.5 27q-22 0 -34 -8t-19 -29l-61 -199q-8 -28 30 -28z" />
    <glyph glyph-name="uni0182" unicode="&#x182;" horiz-adv-x="644" 
d="M-28 -5q-9 0 -12.5 5t-1.5 11q4 15 26 21q36 10 53 21t27 42l141 456q10 32 1 45t-46 22q-8 2 -11.5 7.5t-0.5 14.5q2 7 9 11t13 4q22 0 52.5 -1t75 -2.5t107.5 -1.5q33 0 71 1t74 1.5t63.5 1.5t40.5 1q25 0 21 -15q-10 -37 -20 -71t-18 -61q-3 -10 -8.5 -14.5
t-10.5 -4.5q-7 0 -11.5 3.5t-4.5 12.5q0 36 -3.5 59t-18.5 34.5t-52 11.5h-93q-22 0 -36 -9t-22 -35l-50 -172q-5 -18 1.5 -26.5t22.5 -8.5q22 0 36.5 2t39.5 2q56 0 93.5 -21t57 -55.5t19.5 -73.5q0 -63 -35.5 -112t-107 -77t-182.5 -28q-6 0 -19 1t-44 2t-92 1
q-30 0 -73 -2.5t-72 -2.5zM278 35q33 0 60.5 19.5t47.5 49.5t31.5 63t11.5 60q0 53 -25.5 77.5t-62.5 24.5q-17 0 -28 -8.5t-18 -29.5q-10 -32 -20.5 -64.5t-20.5 -65.5t-20 -65q-9 -30 1.5 -45.5t42.5 -15.5z" />
    <glyph glyph-name="uni0184" unicode="&#x184;" horiz-adv-x="622" 
d="M-33 -5q-9 0 -12.5 5t-1.5 11q4 15 26 21q36 10 53 21t27 42l118 380q10 32 3.5 54t-27.5 38q-9 7 -13 13t-1 13q3 8 12.5 13.5t22.5 7.5q53 9 97.5 21t75.5 21t40 9q17 0 18 -6.5t-4 -21.5q-3 -10 -10 -28.5t-13.5 -36t-9.5 -26.5l-45 -150q-5 -18 1.5 -26.5t22.5 -8.5
q22 0 36.5 2t39.5 2q44 0 82.5 -17.5t62.5 -48t24 -69.5q0 -68 -35.5 -121t-107 -83t-182.5 -30q-6 0 -19 1t-44 2t-92 1q-30 0 -73 -2.5t-72 -2.5zM273 39q33 0 60 18.5t47.5 47.5t31.5 61.5t11 59.5q0 53 -25 78t-62 25q-17 0 -28 -8.5t-18 -29.5q-15 -48 -29.5 -95.5
t-29.5 -95.5q-9 -30 0.5 -45.5t41.5 -15.5z" />
    <glyph glyph-name="uni0186" unicode="&#x186;" horiz-adv-x="673" 
d="M429 664q56 0 102.5 -20.5t81.5 -56.5t54 -84.5t19 -105.5q0 -90 -35.5 -165t-98 -130t-145 -85.5t-177.5 -30.5q-35 0 -62 6.5t-47 13.5q-19 6 -30 9.5t-23 3.5q-7 0 -13 -1t-13 -5t-14.5 -7.5t-15.5 -3.5q-10 0 -12.5 7t4.5 17q13 17 28 48t28 65t20 59q3 11 8.5 17
t15.5 6q11 0 15 -14.5t2 -37.5q-1 -22 5 -44t18 -42q16 -26 39 -43t49 -17q53 0 98 28.5t79.5 76t59 106.5t37 121.5t12.5 118.5q0 38 -8 65.5t-24 46.5t-40 28t-56 9q-39 0 -76.5 -17.5t-73 -50t-70.5 -77.5q-8 -10 -13 -18.5t-13 -8.5t-13.5 8t-2.5 19q7 26 18 57t24 59
t24.5 46.5t18.5 18.5q10 0 15 -3.5t11 -7.5t14.5 -6.5t24.5 -2.5q12 0 26 4t31 8q18 5 41.5 9t52.5 4z" />
    <glyph glyph-name="uni0187" unicode="&#x187;" horiz-adv-x="739" 
d="M314 -14q-55 0 -102 20.5t-82 56.5t-54 84.5t-19 105.5q0 90 35.5 165t98 130t145 85.5t177.5 30.5q35 0 62 -6.5t47 -13.5q19 -6 30 -9.5t23 -3.5q8 0 12 3.5t8 9.5q25 41 65 61t77 20q63 0 80.5 -20.5t9.5 -46.5q-7 -21 -25 -37.5t-37 -16.5q-22 0 -31.5 9t-13.5 22
q-4 15 -8 28t-20 13q-18 0 -36 -20t-34.5 -52.5t-31.5 -72.5t-27 -79q-3 -10 -8 -16.5t-16 -6.5q-10 0 -14 14.5t-3 37.5q2 22 -4.5 44t-17.5 41q-16 26 -39 43.5t-50 17.5q-53 0 -98 -28.5t-79.5 -76t-59 -106.5t-37 -121.5t-12.5 -118.5q0 -37 8 -65t24 -47t40 -28t56 -9
q39 0 76 17.5t73 50.5t71 77q8 11 13.5 19t12.5 8q8 0 13.5 -8t2.5 -19q-7 -25 -18 -56.5t-24 -59.5t-24.5 -46.5t-18.5 -18.5q-10 0 -15 3.5t-11 7.5t-14.5 6.5t-24.5 2.5q-12 0 -26 -3.5t-31 -8.5q-18 -4 -41.5 -8.5t-52.5 -4.5z" />
    <glyph glyph-name="uni0189" unicode="&#x189;" horiz-adv-x="729" 
d="M58 304q-13 0 -15 10.5t1 20.5q4 14 14.5 22.5t23.5 8.5h301q10 0 16 -6t2 -13q-10 -19 -26.5 -31t-30.5 -12h-286zM303 -7q-40 0 -80.5 3t-72 5.5t-44.5 2.5q-20 0 -47.5 -1.5t-56 -3.5t-50.5 -2q-6 0 -10.5 4t-2.5 11q6 17 26 22q27 6 43.5 12.5t26 18.5t15.5 32
l141 454q6 23 4 35t-14 19t-36 13q-8 2 -11.5 7.5t-0.5 14.5q2 7 9.5 11t13.5 4q33 0 75.5 -2.5t72.5 -2.5q20 0 41 1t47.5 2t61.5 1q94 0 158 -37t97 -98.5t33 -133.5q0 -79 -34.5 -149.5t-95 -125t-140 -86t-169.5 -31.5zM302 31q50 0 97.5 32.5t85.5 86t60.5 119.5
t22.5 133q0 79 -17 125.5t-47.5 67t-69.5 20.5q-19 0 -33 -4t-22.5 -13.5t-13.5 -25.5l-135 -453q-10 -33 0.5 -52.5t31.5 -27.5t40 -8z" />
    <glyph glyph-name="uni018A" unicode="&#x18a;" horiz-adv-x="854" 
d="M428 -7q-40 0 -80.5 3t-72 5.5t-44.5 2.5q-20 0 -47.5 -1.5t-56 -3.5t-50.5 -2q-6 0 -10.5 4t-2.5 11q6 17 26 22q27 6 43.5 12.5t26 18.5t15.5 32l144 462q6 21 -0.5 32.5t-26.5 11.5q-43 0 -74.5 -20.5t-31.5 -58.5q0 -7 3 -11t6 -9q5 -8 11 -15t2 -18
q-4 -14 -21.5 -28.5t-36.5 -24t-29 -9.5q-11 0 -19.5 8t-13.5 22t-5 31q0 52 27 87t74.5 55.5t110 29.5t133.5 9q29 0 64 1.5t87 1.5q94 0 158 -37t97 -98.5t33 -133.5q0 -79 -34.5 -149.5t-95 -125t-140 -86t-169.5 -31.5zM427 31q50 0 97.5 32.5t85.5 86t60.5 119.5
t22.5 133q0 79 -17 125.5t-47.5 67t-69.5 20.5q-19 0 -33 -4t-22.5 -13.5t-13.5 -25.5l-135 -453q-10 -33 0.5 -52.5t31.5 -27.5t40 -8z" />
    <glyph glyph-name="uni018B" unicode="&#x18b;" horiz-adv-x="612" 
d="M512 -4q-21 0 -49.5 1.5t-56.5 3t-48 1.5q-16 0 -38.5 -0.5t-48 -1.5t-51 -1.5t-49.5 -0.5q-52 0 -88.5 22.5t-56 59t-19.5 79.5q0 56 24.5 98.5t66 71.5t94 44t109.5 15q27 0 45.5 -4t29.5 -12q2 -1 5 -1.5t4 -0.5q5 0 10.5 13t12.5 37l44 145q8 22 -1.5 32.5
t-33.5 10.5h-85q-40 0 -73 -31.5t-68 -81.5q-7 -9 -14.5 -14.5t-12.5 -5.5t-10 6.5t-2 16.5q6 18 17.5 46t25.5 58t25 55q5 12 12.5 17t17.5 5t16.5 -4.5t15.5 -10.5t25.5 -10.5t47.5 -4.5l234 1q29 0 63.5 2t65.5 2q16 0 11 -15q-3 -10 -9 -14t-16 -7q-30 -8 -46.5 -16
t-25 -20t-14.5 -32l-140 -452q-9 -30 0.5 -42t44.5 -23q13 -5 13 -13q0 -11 -7.5 -17.5t-16.5 -6.5zM241 49q24 0 42 13.5t27 41.5l45 145q11 42 4.5 63.5t-47.5 21.5q-16 0 -33 -6t-28 -15q-22 -21 -39 -54t-26 -68t-9 -63q0 -37 16 -58t48 -21z" />
    <glyph glyph-name="uni018E" unicode="&#x18e;" horiz-adv-x="573" 
d="M-1 -6q-7 0 -13.5 2.5t-6.5 9.5q1 25 0.5 49t1.5 45.5t7 39.5q2 7 6 13.5t10 6.5q13 0 15 -12q5 -22 12.5 -44t20.5 -36q11 -12 28.5 -18t36.5 -5l89 2q26 1 41 12t24 39l59 187q3 11 -0.5 17t-14.5 6h-94q-19 0 -35.5 -17t-36.5 -49q-14 -24 -31 -24q-5 0 -6.5 6.5
t5.5 21.5q6 15 11 29t9.5 27.5t8.5 26.5q5 14 8.5 27.5t6.5 27.5l6 28q3 11 9 17t10 6q13 0 16 -18q2 -24 7 -43t31 -19h85q12 0 21 5.5t13 18.5l57 184q7 22 -5.5 34t-37.5 12h-63q-28 0 -48 -10.5t-35 -21.5t-28.5 -29.5t-33.5 -45.5q-7 -9 -14 -13t-12 -4t-7.5 5t0.5 15
q8 27 25.5 62.5t33.5 72.5q5 12 15 16.5t17 4.5q4 0 24 -4t51 -4q49 -1 113 -2t119 -1q20 0 45.5 1.5t51.5 2.5t48 1q9 0 13 -4.5t2 -11.5q-1 -6 -7.5 -12t-19.5 -9q-38 -8 -54.5 -21.5t-26.5 -45.5l-141 -454q-10 -31 0 -42t40 -21q19 -6 14 -21q-2 -6 -8.5 -11t-15.5 -5
q-19 0 -45 1.5t-52 2.5t-46 1q-45 0 -100 -1t-105 -3t-84.5 -3t-39.5 -1z" />
    <glyph glyph-name="uni0190" unicode="&#x190;" horiz-adv-x="580" 
d="M227 -14q-66 0 -112 24t-69.5 63t-23.5 84q0 46 26.5 91.5t82 78t142.5 36.5q8 1 10 8.5t-5 8.5q-55 12 -84.5 46.5t-29.5 71.5q0 41 33 79.5t100 63.5t168 25q37 0 61.5 -2t45 -7t44.5 -13q8 -3 11.5 -9.5t1.5 -17.5q-6 -36 -13 -67.5t-14 -53.5q-3 -9 -10 -13.5
t-14 -4.5t-12 4t-5 12q0 21 -2 36.5t-8 34.5q-8 22 -26 36.5t-61 14.5q-57 0 -88.5 -20.5t-44 -51t-12.5 -61.5q0 -26 9 -50t23 -39t28 -15q11 0 20 2t16 3q9 2 18.5 4t20.5 2q14 0 27.5 -6.5t13.5 -20.5q0 -21 -20 -31t-43 -10q-14 0 -25 1.5t-19 2.5q-12 2 -20.5 4
t-18.5 2q-51 0 -84 -25t-48.5 -63t-15.5 -77q0 -32 10 -60t29 -45.5t46 -17.5q52 0 93.5 24.5t81.5 81.5q17 23 26.5 35t14.5 12q8 0 16.5 -4.5t6.5 -12.5q-7 -22 -18.5 -51t-30.5 -67q-6 -11 -16 -19t-21 -13q-31 -14 -86 -29t-126 -15z" />
    <glyph glyph-name="uni0191" unicode="&#x191;" horiz-adv-x="564" 
d="M-64 -200q-77 0 -108 15.5t-31 42.5q0 31 11.5 52t29.5 21q14 0 30.5 -14t34.5 -31q19 -18 37 -32.5t33 -14.5q16 0 29.5 20t28.5 61t34 105l163 526q10 32 2.5 45.5t-36.5 20.5q-15 4 -18.5 10t-1.5 12q2 7 10 11.5t22 4.5q28 0 66.5 -2.5t68.5 -2.5h160q70 0 105 7
t51 7q8 0 15 -4.5t4 -16.5q-1 -6 -2.5 -12t-3.5 -12q-5 -20 -16 -50.5t-17 -70.5q-1 -10 -6 -15t-10 -5t-8.5 4t-3.5 13q-1 26 -5.5 47t-13.5 37q-10 17 -27 26.5t-40 10.5l-50 1q-25 1 -44.5 -12.5t-26.5 -35.5q-3 -10 -11 -36t-17 -57.5t-17 -57.5t-11 -35q-4 -13 4 -22.5
t42 -9.5h27q65 0 102 60q6 9 13.5 13.5t13.5 4.5q5 0 7 -6t-2 -17q-17 -41 -28 -76t-19 -73q-3 -15 -8.5 -21.5t-10.5 -6.5q-7 0 -11.5 7t-4.5 17q0 31 -8 43.5t-27 12.5h-25.5h-35h-25.5q-17 0 -26.5 -8.5t-12.5 -19.5l-43 -150q-13 -44 -28 -81t-31.5 -67t-35.5 -55
t-41 -46q-38 -37 -87.5 -59.5t-108.5 -22.5z" />
    <glyph glyph-name="uni0193" unicode="&#x193;" horiz-adv-x="761" 
d="M328 -14q-75 0 -134 26.5t-95.5 76.5t-44.5 119.5t18 154.5q19 61 59.5 115.5t99 96t132 65.5t157.5 24q35 0 62 -6.5t47 -13.5q19 -6 30 -9.5t23 -3.5q8 0 12 3.5t8 9.5q26 41 65.5 61t76.5 20q63 0 80.5 -20.5t9.5 -46.5q-7 -21 -25 -37.5t-37 -16.5q-22 0 -31.5 9
t-13.5 22q-4 15 -8 28t-20 13q-18 0 -36 -19.5t-34.5 -52t-30.5 -70.5t-26 -74q-3 -10 -8 -16.5t-16 -6.5q-22 0 -19 44q2 31 -1.5 56.5t-17.5 44.5q-14 20 -40.5 33t-55.5 13q-41 0 -82 -19t-79.5 -58t-72.5 -100t-60 -145q-18 -59 -15.5 -110.5t22 -90t54 -60.5t79.5 -22
q36 0 62.5 24.5t36.5 55.5l34 112q3 11 1 20.5t-16 15.5q-13 6 -31.5 10.5t-30.5 7.5q-8 2 -14.5 8t-3.5 15q2 7 10 11t16 4q22 0 52 -2.5t59 -5t49 -2.5q29 0 61 4.5t80 4.5q16 0 11 -15q-3 -10 -9 -14.5t-16 -6.5q-32 -7 -45.5 -18t-24.5 -31q-8 -15 -17.5 -37t-16 -41
t-6.5 -26q0 -11 6 -20t16 -20q-9 -18 -43 -34t-80 -29t-92.5 -20.5t-79.5 -7.5z" />
    <glyph glyph-name="uni0196" unicode="&#x196;" horiz-adv-x="443" 
d="M208 -11q-51 0 -85.5 22t-46 63t5.5 99l117 378q10 32 1 45t-46 22q-17 5 -13 22q2 7 9.5 11t13.5 4q22 0 49 -1t53.5 -2.5t46.5 -1.5t48.5 1t57.5 2t50 1q8 0 10.5 -3.5t0.5 -11.5q-3 -10 -9 -14t-16 -7q-30 -8 -46.5 -16t-24.5 -20t-15 -32l-107 -340
q-21 -67 -14.5 -96.5t42.5 -29.5q20 0 35.5 8.5t31.5 18.5q8 5 14 8.5t10 3.5q10 0 17.5 -8t8 -19.5t-10.5 -22.5q-18 -17 -48.5 -37t-67 -33.5t-72.5 -13.5z" />
    <glyph glyph-name="uni0197" unicode="&#x197;" horiz-adv-x="381" 
d="M87 302q-13 0 -17 10.5t-4 20.5q0 11 9.5 21t22.5 10h273q12 0 16.5 -6.5t4.5 -14.5q0 -18 -15 -29.5t-32 -11.5h-258zM-33 -3q-6 0 -10.5 4t-2.5 11q6 17 26 22q41 9 58 20.5t27 42.5l141 454q10 32 1 44.5t-47 22.5q-8 2 -11.5 7.5t-0.5 14.5q2 7 9.5 11t13.5 4
q22 0 49 -1t53 -2.5t46 -1.5t48.5 1t58 2t50.5 1q16 0 11 -15q-3 -10 -9 -14t-17 -7q-30 -8 -46.5 -16t-25 -20t-14.5 -32l-126 -408q-12 -40 -15 -60t6.5 -28.5t31.5 -14.5q23 -6 29.5 -11t3.5 -15q-2 -7 -7.5 -11t-13.5 -4q-21 0 -52.5 1t-62 2t-50.5 1q-30 0 -74.5 -2.5
t-77.5 -2.5z" />
    <glyph glyph-name="uni0198" unicode="&#x198;" horiz-adv-x="776" 
d="M-24 -6q-9 0 -17 5.5t-6 12.5q6 17 32 22q41 8 55.5 20t24.5 43l140 454q10 32 1 45t-46 22q-8 2 -11.5 7.5t-0.5 14.5q2 7 9 11t13 4q22 0 49 -1t53.5 -2.5t46.5 -1.5t48.5 1t57.5 2t50 1q16 0 11 -15q-3 -10 -9 -14t-16 -7q-30 -8 -46.5 -16t-25 -20t-14.5 -32
l-55 -178q-3 -10 1 -13t14 -3q20 0 43 12t48 37l167 158q58 50 107.5 74t97.5 24q53 0 76.5 -27t23.5 -60t-23 -61t-62 -28q-27 0 -39 13.5t-14 37.5q-1 19 -7 32.5t-26 13.5q-9 0 -28 -9.5t-43 -29.5q-23 -19 -54 -45t-65 -56t-65 -61q-10 -10 -12 -17t2 -15
q47 -102 84.5 -160.5t65.5 -90.5q20 -23 41 -36.5t44 -22.5q10 -4 22.5 -9.5t12.5 -15.5q0 -8 -9 -13.5t-29 -5.5q-30 0 -56 1.5t-49.5 3t-48.5 1.5q-29 0 -59.5 22t-62.5 92l-75 167q-10 21 -18 30t-13 9q-6 0 -8.5 -2.5t-4.5 -7.5l-62 -213q-8 -28 -3 -40.5t40 -23.5
q8 -3 15 -7t4 -14q-3 -7 -13.5 -12t-20.5 -5q-32 0 -56 2t-44 4t-40 2q-30 0 -60.5 -5t-82.5 -5z" />
    <glyph glyph-name="uni019C" unicode="&#x19c;" horiz-adv-x="1095" 
d="M221 -13q-90 0 -123.5 74.5t10.5 218.5l84 271q11 32 2 45t-41 22q-18 5 -12 22q2 7 9.5 11t13.5 4q33 0 72.5 -2.5t69.5 -2.5q20 0 48.5 1t57.5 2t50 1q8 0 11 -3.5t1 -11.5q-3 -10 -9.5 -14t-16.5 -7q-30 -8 -46.5 -16t-25 -20t-14.5 -32l-91 -295q-9 -30 -14 -60.5
t-1.5 -55t18 -39.5t42.5 -15q21 0 45.5 19t49.5 56t49.5 90t45.5 121l56 179q9 30 1.5 43t-45.5 25q-8 3 -11.5 7t-0.5 14q2 8 7.5 11.5t12.5 3.5q21 0 49.5 -1l57 -2t47.5 -1q30 0 71.5 2.5t74.5 2.5q6 0 10.5 -4t2.5 -11q-3 -9 -9.5 -14.5t-16.5 -7.5q-25 -6 -40.5 -13.5
t-24.5 -19.5t-16 -34l-91 -296q-9 -27 -13.5 -57t-2 -55.5t15.5 -41.5t40 -16q23 0 48 18t49.5 51.5t46.5 79.5t39 101l67 215q6 20 5 32t-12.5 20t-36.5 16q-8 3 -11.5 7t-0.5 14q5 15 20 15q21 0 49.5 -1l57 -2t47.5 -1q30 0 71.5 2.5t74.5 2.5q6 0 10.5 -4t2.5 -11
q-6 -17 -26 -22q-38 -9 -54 -22t-27 -45l-140 -453q-8 -28 1 -40.5t44 -23.5q8 -3 12 -7t1 -14q-2 -7 -7.5 -11t-13.5 -4q-21 0 -49.5 1t-56.5 2t-48 1t-41.5 -4t-33.5 -4q-10 0 -7 11q4 11 10 23.5t10 24.5l14 32q2 8 4.5 14t-4.5 6q-2 0 -8.5 -9t-11.5 -16
q-14 -18 -44.5 -40t-68 -38t-75.5 -16q-30 0 -52.5 8t-38.5 21.5t-27.5 32t-19.5 39.5q-3 8 -11 8q-3 0 -7.5 -2t-7.5 -6q-38 -44 -89 -72t-114 -28z" />
    <glyph glyph-name="uni019D" unicode="&#x19d;" horiz-adv-x="852" 
d="M-65 -200q-77 0 -108 15.5t-31 42.5q0 31 11.5 44.5t29.5 13.5q14 0 28.5 -10t30.5 -23q19 -16 38 -30t38 -14q36 0 78 35.5t88 114.5t92.5 207.5t89.5 313.5q9 38 4 61t-26 34.5t-61 14.5q-13 2 -20 7t-7 15q0 6 11 11t22 5q21 0 55.5 -1t73 -2.5t69.5 -1.5
q14 0 22.5 -5.5t13.5 -16.5l191 -432q2 -4 4.5 -8t5.5 -4q7 0 12 14q3 7 7.5 21.5t11 35.5t14 47.5t15.5 56.5t15.5 62.5t13.5 65.5q14 68 -4.5 94.5t-73.5 36.5q-17 3 -16 15q1 7 10 11t16 4q41 0 71 -3t44 -3q20 0 38.5 2t39.5 3.5t46 1.5q19 0 19 -15q0 -7 -11.5 -11.5
t-22.5 -6.5q-24 -5 -41 -14.5t-30.5 -32.5t-27.5 -67q-6 -20 -13.5 -44.5t-16 -52.5t-17.5 -58.5t-19 -62.5t-19.5 -64.5t-19.5 -64.5q-10 -31 -8.5 -48.5t14.5 -40.5q5 -7 10.5 -17.5t12.5 -17.5q8 -7 13.5 -10t5.5 -8q0 -10 -5.5 -13t-16.5 -3q-29 0 -48 -2t-34.5 -3.5
t-35.5 -2.5q-31 -1 -46 14t-27 46q-6 16 -22 54.5t-36.5 88t-42 101t-39.5 95t-29 70t-11 25.5q-1 2 -3.5 6t-4.5 4q-4 0 -7.5 -7t-5.5 -12q-43 -177 -88.5 -305t-95 -210.5t-107.5 -122t-127 -39.5z" />
    <glyph glyph-name="uni019F" unicode="&#x19f;" horiz-adv-x="692" 
d="M125 306v58h519v-58h-519zM292 -14q-67 0 -121 32t-86 90t-32 134q0 83 32.5 159t90 135t133 93.5t161.5 34.5q67 0 121.5 -32t86.5 -89.5t32 -134.5q0 -82 -33 -158t-90.5 -135.5t-133 -94t-161.5 -34.5zM291 25q41 0 80 30.5t73 81t60 110.5t40.5 119t14.5 107
q0 42 -9.5 77.5t-29.5 57t-51 21.5q-41 0 -80 -31t-72.5 -82t-59 -111.5t-40 -120.5t-14.5 -108q0 -41 9 -75.5t28.5 -55t50.5 -20.5z" />
    <glyph glyph-name="uni01A2" unicode="&#x1a2;" horiz-adv-x="999" 
d="M292 -14q-67 0 -121 32t-86 90t-32 134q0 83 32.5 159t90 135t133 93.5t161.5 34.5q67 0 121.5 -32t86.5 -89.5t32 -134.5q0 -82 -33 -158t-90.5 -135.5t-133 -94t-161.5 -34.5zM296 25q38 0 74 30.5t68 81t56 110.5t37.5 119t13.5 107q0 42 -7.5 77.5t-25 57t-46.5 21.5
q-37 0 -73 -31t-67.5 -82t-55 -111.5t-37 -120.5t-13.5 -108q0 -41 7 -75.5t24 -55t45 -20.5zM514 -287q-6 0 -10.5 4t-3.5 11q6 17 26 22q41 10 58.5 21t27.5 42l177 559q27 84 25.5 134t-23.5 73t-60 24q-22 1 -50 -4.5t-60 -22.5l-46 22q24 16 49.5 30.5t60.5 24.5t86 10
q77 0 128.5 -39t65 -116.5t-23.5 -193.5l-159 -500q-8 -28 1.5 -39.5t43.5 -24.5q8 -3 12 -7t1 -14q-2 -7 -7.5 -11t-13.5 -4q-21 0 -49.5 1t-56.5 2t-48 1t-47 -1t-54.5 -2.5t-49.5 -1.5z" />
    <glyph glyph-name="uni01A4" unicode="&#x1a4;" horiz-adv-x="741" 
d="M77 -3q-6 0 -12 4t-6 11q0 9 10.5 14.5t20.5 7.5q41 9 58 20.5t27 42.5l144 462q6 21 -0.5 32.5t-26.5 11.5q-43 0 -74.5 -20.5t-31.5 -58.5q0 -7 3 -11t6 -9q5 -8 11 -15t2 -18q-4 -14 -21.5 -28.5t-36.5 -24t-29 -9.5q-11 0 -19.5 8t-13.5 22t-5 31q0 52 27 87t74 55.5
t109.5 29.5t132.5 9q16 1 37.5 2.5t46.5 2.5t52 1q71 0 121 -25t75.5 -67.5t23.5 -97.5q-2 -51 -25.5 -94.5t-64 -75.5t-95 -50t-118.5 -18q-27 0 -36.5 5.5t-9.5 17.5q0 7 6.5 11t15.5 5q10 2 18 3.5t21 3.5q46 8 76.5 40t46 75t15.5 84q0 61 -13.5 91t-35 39.5t-46.5 9.5
q-10 0 -18 -4.5t-17 -22t-22 -58.5l-134 -431q-10 -31 6 -43t56 -21q8 -2 15 -6.5t7 -14.5q0 -7 -11.5 -11t-22.5 -4q-21 0 -53 1t-63 2t-51 1q-30 0 -74.5 -2.5t-77.5 -2.5z" />
    <glyph glyph-name="uni01A6" unicode="&#x1a6;" horiz-adv-x="762" 
d="M522 -124q-56 0 -89.5 14t-50.5 36.5t-26 49.5q-10 31 -17 55.5t-14.5 51t-17.5 61.5q-4 14 -12 23t-22 9q-5 0 -9.5 -3.5t-8.5 -11.5l-6 -19q-12 -40 -15 -60t6.5 -28.5t31.5 -14.5q23 -6 29.5 -11t3.5 -15q-2 -7 -7.5 -11t-13.5 -4q-21 0 -52.5 1t-62 2t-50.5 1
q-30 0 -74.5 -2.5t-77.5 -2.5q-6 0 -10.5 4t-2.5 11q6 17 26 22q41 9 58 20.5t27 42.5l141 454q10 32 1 44.5t-47 22.5q-8 2 -11.5 7.5t-0.5 14.5q2 7 9.5 11t13.5 4q22 0 49 -1t53 -2.5t46 -1.5t48.5 1t58 2t50.5 1q16 0 11 -15q-3 -10 -9 -14t-17 -7q-30 -8 -46.5 -16
t-25 -20t-14.5 -32l-6 -19q11 1 25 1.5t31 0.5q69 0 111.5 -20t62.5 -54t20 -75q0 -45 -25 -81.5t-65 -61t-86 -34.5q-8 -3 -4 -12q13 -32 24.5 -57t22.5 -46.5t21.5 -41.5t21.5 -43q16 -33 42.5 -56.5t61.5 -23.5q13 0 24.5 -5t11.5 -18q0 -18 -31 -23t-116 -5zM304 204
q37 0 66 14t49.5 40t31 62t10.5 80q0 41 -20 69.5t-49 28.5q-12 0 -20.5 -4.5t-17 -23.5t-22.5 -62l-52 -166q-6 -20 1 -29t23 -9z" />
    <glyph glyph-name="uni01A7" unicode="&#x1a7;" horiz-adv-x="488" 
d="M202 -14q-54 0 -98 19.5t-69.5 53t-25.5 74.5q0 61 29.5 104.5t88 81.5t145.5 83q47 24 76.5 47.5t43.5 47.5t14 50t-18.5 45t-51.5 19q-58 0 -94 -31t-65 -89q-5 -10 -15.5 -14.5t-18.5 -4.5q-9 0 -15 4t-4 9q12 39 23.5 69.5t23.5 51.5q11 17 17.5 22.5t20.5 10.5
q25 9 64 17t77 8q55 0 96 -18.5t64 -49t23 -67.5q0 -49 -14.5 -85.5t-42.5 -65t-69 -53.5t-94 -52q-27 -14 -58 -31t-58.5 -37.5t-45 -44.5t-17.5 -53q0 -23 16.5 -42.5t50.5 -19.5q42 0 80.5 23t72.5 60t60 78q12 13 31 13q8 0 15 -3t5 -10q-11 -44 -28 -84.5t-37 -69.5
q-5 -7 -13 -13.5t-17 -11.5q-43 -22 -83.5 -31.5t-84.5 -9.5z" />
    <glyph glyph-name="uni01A9" unicode="&#x1a9;" horiz-adv-x="608" 
d="M-4 -6q-17 0 -25.5 5t-7.5 15q0 14 14.5 28.5t33.5 30.5q23 21 58 46.5t77.5 55.5t87 63t86.5 67q15 12 7 27q-15 27 -33 55t-37 56t-36.5 53t-30.5 45q-21 32 -33.5 54t-11.5 26q5 15 13 21.5t19 6.5q56 0 113 -1.5t124 -1.5q37 0 67 0.5t71 0.5q29 0 45.5 3t23.5 6
q11 5 21.5 13t20.5 8q11 0 14.5 -6.5t1.5 -18.5q-7 -37 -13 -82t-14 -72q-3 -10 -8.5 -15t-10.5 -5t-10 4t-6 13q-2 28 -8 47.5t-19 32.5q-22 23 -70 29q-22 3 -42 4.5t-40.5 2t-42 0.5h-46.5q-16 0 -18.5 -5.5t7.5 -22.5q6 -11 19 -31t28.5 -43.5t32 -47t31 -42.5t23.5 -29
q7 -7 5 -17t-20 -24l-252 -187q-7 -6 -6 -11t9 -6q29 -4 55 -5.5t58 -1.5h75q39 0 65.5 5.5t47.5 27.5q16 17 28 26t25 9q15 0 14.5 -9.5t-5.5 -19.5q-17 -34 -38 -65t-38.5 -55.5t-25.5 -40.5q-6 -8 -11 -14.5t-15 -6.5q-22 0 -37.5 2.5t-36.5 2.5h-53t-62.5 0.5t-64 0.5
h-57.5t-42 -1q-25 0 -40.5 -1.5t-27.5 -3t-26 -1.5z" />
    <glyph glyph-name="uni01AC" unicode="&#x1ac;" horiz-adv-x="667" 
d="M106 -3q-6 0 -12 4t-4 11q3 9 11 14.5t18 7.5q41 9 60.5 20.5t29.5 42.5l133 425q18 59 17.5 75t-18.5 16h-71q-43 0 -67 -26.5t-24 -55.5q0 -13 5 -21t12 -14q8 -7 15.5 -14.5t7.5 -18.5t-12.5 -25.5t-28.5 -25.5t-26 -11q-14 0 -28.5 12t-24 33.5t-9.5 50.5
q0 42 21.5 71t57 47t77 26.5t81.5 8.5l291 1q44 0 68.5 3t36 7t16.5 6q22 8 36.5 20t27.5 12q14 0 8 -16q-1 -4 -3 -9t-5 -10q-21 -35 -36 -67t-27 -68q-6 -18 -12 -27.5t-16 -9.5t-13.5 9t-4.5 30q-1 40 -17 61t-59 21h-39q-16 0 -27 -7t-19.5 -26.5t-20.5 -55.5l-133 -426
q-9 -28 3 -40.5t48 -23.5q8 -3 13 -7t2 -14q-2 -7 -8.5 -11t-14.5 -4q-21 0 -51 1t-59 2t-49 1t-48.5 -1t-57.5 -2.5t-51 -1.5z" />
    <glyph glyph-name="uni01AE" unicode="&#x1ae;" horiz-adv-x="688" 
d="M371 -200q-39 0 -74.5 17.5t-57.5 56t-23.5 101.5t26.5 155l121 392q19 59 18 75t-19 16h-39q-33 0 -67.5 -19t-60.5 -45q-7 -7 -20.5 -20t-28 -23t-25.5 -10q-9 0 -10 5.5t0 12.5q2 6 6 13.5t9 13.5q33 38 49 67t30 66q5 14 12.5 20t17.5 6q11 0 23.5 -9.5t22.5 -16.5
q10 -6 19.5 -11.5t27.5 -9t52 -3.5l259 1q44 0 68.5 3t36 7t16.5 6q22 8 36.5 20t27.5 12q14 0 8 -16q-1 -4 -3 -9t-5 -10q-21 -35 -36 -67t-27 -68q-6 -18 -12 -27.5t-16 -9.5t-13.5 9t-4.5 30q-1 40 -17 61t-59 21h-39q-16 0 -27 -7t-19.5 -26.5t-20.5 -55.5l-162 -515
q-28 -91 -22 -129t34 -38q11 0 25 16t42 39q13 11 25.5 17t22.5 6q15 0 25.5 -12.5t10.5 -31.5q0 -21 -18 -38.5t-54 -27.5t-91 -10z" />
    <glyph glyph-name="uni01B1" unicode="&#x1b1;" horiz-adv-x="814" 
d="M861 654q8 0 14.5 -3t6.5 -11q-2 -30 0.5 -65.5t3.5 -67t-6 -49.5t-22 -18q-6 0 -10.5 2.5t-5.5 11.5q-2 32 -10.5 44.5t-28 14.5t-56.5 2h-94q-3 0 -4 -1.5t3 -3.5q51 -31 87.5 -79t36.5 -121q0 -64 -35 -122.5t-94.5 -104t-135 -71.5t-155.5 -26q-82 0 -146 29
t-101.5 79t-38.5 114q0 54 20 101t55.5 85.5t80.5 68t95 48.5q5 2 5.5 3.5t-2.5 1.5h-83q-36 0 -58 -2t-38.5 -14.5t-38.5 -45.5q-6 -9 -12 -11.5t-12 -2.5q-7 0 -10 5t0 13q7 18 26.5 49t42 65.5t37.5 60.5q8 13 16.5 17t16.5 4q5 0 26.5 -1t54.5 -1t67 -0.5l68 -1t64 -0.5
q4 0 5 -3t-1 -8q-4 -14 -17.5 -34.5t-27.5 -29.5q-44 -29 -82.5 -80t-67.5 -111t-44.5 -117.5t-13.5 -101.5q3 -63 32.5 -97.5t81.5 -34.5q51 0 97 33.5t81.5 89t56 122.5t20.5 134q0 45 -8.5 86t-28.5 77q-7 12 -8 32t3 32q2 5 4 8t6 3q19 0 38 0.5t37.5 0.5h36.5
q22 0 43 0.5t39 0.5q36 0 60 1t28 1z" />
    <glyph glyph-name="uni01B2" unicode="&#x1b2;" horiz-adv-x="747" 
d="M277 -14q-68 0 -110 19.5t-62 53.5t-21.5 76t12.5 87l102 329q10 32 1 45t-46 22q-18 5 -12 22q2 7 9 11t13 4q33 0 76 -2.5t73 -2.5q29 0 72.5 2t74.5 2q16 0 11 -15q-3 -10 -9 -14t-16 -7q-37 -10 -52.5 -24t-24.5 -44l-104 -336q-28 -88 -14.5 -132.5t65.5 -44.5
q50 0 96.5 32.5t86 86.5t69 119.5t46 132t16.5 122.5q0 43 -4 63.5t-10.5 27t-14.5 6.5q-13 0 -23 -14.5t-21 -31.5q-10 -14 -22 -25.5t-29 -11.5q-15 0 -24.5 12t-9.5 30t14.5 36t47.5 30t88 12q68 0 113.5 -42t44.5 -127q0 -80 -27 -155t-75.5 -139.5t-112 -112.5
t-137 -75t-150.5 -27z" />
    <glyph glyph-name="uni01B3" unicode="&#x1b3;" horiz-adv-x="711" 
d="M119 -6q-13 0 -18.5 5t-3.5 12q2 9 13 14.5t22 7.5q41 8 61 27t29 50l42 136q10 30 9.5 54t-8.5 53l-61 201q-7 20 -17 36t-29 23t-26 11.5t-4 14.5q2 8 9.5 11.5t14.5 3.5q47 0 83 -3t81 -3q29 0 61 3.5t69 3.5q8 0 16 -4t6 -11q-2 -9 -13.5 -14.5t-20.5 -7.5
q-49 -11 -62.5 -27.5t-6.5 -47.5l42 -187q4 -15 7 -19t7 -4t9 4t12 13q54 66 98 123.5t83.5 100t80.5 66.5t87 24q44 0 65 -25t22 -57q1 -33 -21 -61.5t-65 -28.5q-21 0 -34.5 12.5t-15.5 32.5q-1 17 -6.5 29.5t-19.5 12.5q-20 0 -47 -19.5t-57 -52t-60.5 -71.5t-58.5 -78
q-18 -19 -31.5 -43.5t-23.5 -55.5l-45 -148q-12 -38 -3 -52.5t44 -25.5q11 -3 18.5 -7t4.5 -14q-2 -7 -11 -12t-20 -5q-21 0 -49.5 2t-56.5 4t-48 2t-47.5 -2t-55.5 -4.5t-50 -2.5z" />
    <glyph glyph-name="uni01B5" unicode="&#x1b5;" horiz-adv-x="642" 
d="M130 302q-13 0 -16.5 10.5t-2.5 20.5q2 14 11.5 22.5t22.5 8.5h382q10 0 15 -5.5t5 -13.5q0 -1 -0.5 -2l-1.5 -3q-5 -13 -18 -25.5t-30 -12.5h-367zM503 -4q-4 0 -28 0.5t-64 1.5t-89.5 2t-104.5 1q-60 0 -104 -1t-78 -3t-65 -4q-10 -1 -9.5 13.5t4.5 18.5q14 17 27.5 33
t27 32.5t27.5 31.5q50 56 100.5 115t101.5 119t102.5 120t103.5 118q6 7 6.5 14t-13.5 7q-9 0 -25 -0.5t-33.5 -1.5t-33 -2t-23.5 -2q-41 -6 -78 -24.5t-72 -61.5q-10 -13 -20 -24t-26 -11q-9 0 -10 5.5t0 12.5q2 6 4 13t6 14q18 32 28 57.5t20 50.5q7 16 13.5 22.5
t18.5 6.5q32 0 72 -10t90 -10h51.5h51.5q28 0 67 1.5t76 2.5t59 1q8 0 11 -10.5t-1 -14.5l-100 -114q-44 -50 -92.5 -106.5t-98 -115t-98.5 -116t-95 -109.5q-23 -26 6 -26q17 0 54.5 0.5t70.5 1.5q31 1 56.5 4t47 9.5t40.5 16.5q28 15 51.5 36t46.5 52q6 8 11 10t11 2
t9.5 -4t1.5 -11q-4 -13 -13 -30.5t-20 -37t-22.5 -39t-22.5 -37.5q-6 -10 -15 -15t-20 -5z" />
    <glyph glyph-name="uni01B7" unicode="&#x1b7;" horiz-adv-x="586" 
d="M201 -13q-41 0 -83 7.5t-70 24t-28 42.5q0 22 7 60t17 72q4 12 10.5 20.5t15.5 8.5q8 0 11.5 -5t3.5 -11q0 -91 33.5 -133.5t77.5 -42.5q40 0 72 17t54.5 44.5t35 58.5t12.5 59q1 41 -11 69t-35 42.5t-58 14.5q-6 0 -12.5 -1.5t-14.5 -3.5q-7 -1 -14 -3t-11 -2
q-15 0 -21.5 6t-6.5 13q0 6 5 13.5t18 21.5l202 213q8 8 6 14t-15 6h-34q-44 0 -84 -23t-73 -61q-10 -12 -21 -24t-24 -12q-10 0 -13.5 10t-1.5 17q2 6 6 14t8 14q10 15 16 27t12.5 29t17.5 45q6 16 13 22.5t19 6.5q10 0 21.5 -4.5t28.5 -9.5q13 -4 27 -8t46 -4h201
q10 0 19 0.5t17.5 1t15.5 1t13 0.5q5 0 9 -11t-5 -19l-258 -246q-4 -4 -3 -6t6 -1q10 2 18.5 4t19.5 2q41 0 70 -18t44.5 -50t15.5 -76q0 -45 -22 -88.5t-65.5 -79t-109 -57t-151.5 -21.5z" />
    <glyph glyph-name="uni01B8" unicode="&#x1b8;" horiz-adv-x="555" 
d="M226 -14q-68 0 -113.5 25.5t-67.5 66.5t-22 87q0 44 20 86.5t59 73.5t96 42q14 3 32 8t31.5 12.5t13.5 16.5v4v3l-86 184q-4 8 -9 20t-4 15q1 4 9.5 14.5t15.5 10.5q22 0 46 -1t47.5 -2.5t43.5 -1.5h153h33.5t27.5 1.5t27 6.5q17 6 36.5 18t29.5 12q14 0 15 -7t-1 -22
q-6 -28 -11.5 -47.5t-8.5 -38.5t-5 -47q0 -9 -0.5 -17t-1.5 -10q-2 -7 -7 -12.5t-14 -5.5q-16 0 -21 11t-7 24q-2 38 -20 65.5t-68 27.5h-99q-12 0 -15.5 -6t-3.5 -14v-4.5t1 -4.5l75 -154q18 -37 18 -47q0 -5 -3 -14q-5 -17 -27 -22t-43 -5q-9 0 -16 0.5t-12 0.5
q-62 0 -101.5 -25.5t-57.5 -63.5t-18 -78q0 -33 11.5 -62.5t33 -47.5t51.5 -18q61 0 101.5 24t77.5 78q18 26 32 42t18 16q8 0 16 -5t6 -11q-10 -32 -25 -67.5t-29 -63.5q-7 -14 -23 -24.5t-29 -15.5q-33 -12 -84.5 -21.5t-123.5 -9.5z" />
    <glyph glyph-name="uni01BC" unicode="&#x1bc;" horiz-adv-x="551" 
d="M203 -14q-55 0 -99 10t-62 20q-11 6 -21.5 16t-8.5 26q2 23 5.5 54.5t13.5 62.5q2 7 12 11.5t20 4.5q16 0 17 -48q3 -40 23.5 -71t61.5 -31q45 0 78 16.5t54.5 43.5t31.5 60.5t9 67.5q-1 45 -26 75.5t-84 30.5q-28 0 -51 -5.5t-37.5 -11t-20.5 -5.5q-10 0 -11 10.5
t5 26.5l85 201q14 32 3.5 45.5t-43.5 21.5q-24 7 -19 21q2 8 11.5 12t18.5 4q22 0 47.5 -1t50 -2.5t44.5 -1.5l211 -2q34 0 55 6t27 6q7 0 8 -7t0 -11q-13 -43 -16.5 -71.5t-13.5 -61.5q-4 -13 -13 -20t-14 -7q-7 0 -15 11t-5 26q5 40 -6.5 64.5t-58.5 24.5h-41
q-17 0 -29.5 -8t-18.5 -23l-80 -186q18 5 34.5 6.5t24.5 1.5q57 0 92.5 -23.5t52.5 -62t16 -82.5q-1 -42 -20 -85t-58 -79t-98.5 -58.5t-141.5 -22.5z" />
    <glyph glyph-name="uni01C4" unicode="&#x1c4;" horiz-adv-x="1371" 
d="M303 -7q-40 0 -80.5 3t-72 5.5t-44.5 2.5q-20 0 -47.5 -1.5t-56 -3.5t-50.5 -2q-6 0 -10.5 4t-2.5 11q6 17 26 22q27 6 43.5 12.5t26 18.5t15.5 32l141 454q6 23 4 35t-14 19t-36 13q-8 2 -11.5 7.5t-0.5 14.5q2 7 9.5 11t13.5 4q33 0 75.5 -2.5t72.5 -2.5q20 0 41 1
t47.5 2t61.5 1q94 0 158 -37t97 -98.5t33 -133.5q0 -79 -34.5 -149.5t-95 -125t-140 -86t-169.5 -31.5zM302 31q50 0 97.5 32.5t85.5 86t60.5 119.5t22.5 133q0 79 -17 125.5t-47.5 67t-69.5 20.5q-19 0 -33 -4t-22.5 -13.5t-13.5 -25.5l-135 -453q-10 -33 0.5 -52.5
t31.5 -27.5t40 -8zM1232 -4q-4 0 -28 0.5t-64 1.5t-89.5 2t-104.5 1q-60 0 -104 -1t-78 -3t-65 -4q-10 -1 -9.5 13.5t4.5 18.5q14 17 27.5 33t27 32.5t27.5 31.5q50 56 100.5 115t101.5 119t102.5 120t103.5 118q6 7 6.5 14t-13.5 7q-9 0 -25 -0.5t-33.5 -1.5t-33 -2
t-23.5 -2q-41 -6 -78 -24.5t-72 -61.5q-10 -13 -20 -24t-26 -11q-9 0 -10 5.5t0 12.5q2 6 4 13t6 14q18 32 28 57.5t20 50.5q7 16 13.5 22.5t18.5 6.5q32 0 72 -10t90 -10h51.5h51.5q28 0 67 1.5t76 2.5t59 1q8 0 11 -10.5t-1 -14.5l-100 -114q-44 -50 -92.5 -106.5
t-98 -115t-98.5 -116t-95 -109.5q-23 -26 6 -26q17 0 54.5 0.5t70.5 1.5q31 1 56.5 4t47 9.5t40.5 16.5q28 15 51.5 36t46.5 52q6 8 11 10t11 2t9.5 -4t1.5 -11q-4 -13 -13 -30.5t-20 -37t-22.5 -39t-22.5 -37.5q-6 -10 -15 -15t-20 -5zM1196 698q-14 0 -22 7t-21 23l-76 96
q-6 8 -4 16q3 13 24 13q8 0 28.5 -8.5t42.5 -20.5t35 -21q5 -4 10.5 -4t13.5 4q15 7 40 15.5t51.5 16.5t47 13.5t27.5 5.5q16 0 16 -13q0 -11 -12 -20l-139 -93q-23 -16 -35 -23t-27 -7z" />
    <glyph glyph-name="uni01C5" unicode="&#x1c5;" horiz-adv-x="1214" 
d="M303 -7q-40 0 -80.5 3t-72 5.5t-44.5 2.5q-20 0 -47.5 -1.5t-56 -3.5t-50.5 -2q-6 0 -10.5 4t-2.5 11q6 17 26 22q27 6 43.5 12.5t26 18.5t15.5 32l141 454q6 23 4 35t-14 19t-36 13q-8 2 -11.5 7.5t-0.5 14.5q2 7 9.5 11t13.5 4q33 0 75.5 -2.5t72.5 -2.5q20 0 41 1
t47.5 2t61.5 1q94 0 158 -37t97 -98.5t33 -133.5q0 -79 -34.5 -149.5t-95 -125t-140 -86t-169.5 -31.5zM302 31q50 0 97.5 32.5t85.5 86t60.5 119.5t22.5 133q0 79 -17 125.5t-47.5 67t-69.5 20.5q-19 0 -33 -4t-22.5 -13.5t-13.5 -25.5l-135 -453q-10 -33 0.5 -52.5
t31.5 -27.5t40 -8zM1002 -33q-31 0 -57 14t-47 30q-22 16 -40.5 29.5t-35.5 13.5q-25 0 -40 -18t-15 -41q0 -10 -5.5 -12.5t-10.5 -2.5q-9 0 -15.5 11t-7.5 21q-1 11 4.5 26t21.5 28l296 250l39 -4q-16 -14 -45 -23t-46 -9q-21 0 -40 14.5t-37 30.5q-15 13 -28.5 23
t-26.5 10q-14 0 -20 -15.5t-6 -32.5q0 -14 3.5 -24.5t8.5 -18.5q9 -12 0 -20q-8 -7 -25.5 -13.5t-24.5 -6.5t-17.5 11.5t-10.5 33.5q0 37 17.5 59.5t47.5 45.5q15 12 36.5 26t43.5 24t35 10q23 0 40.5 -6.5t41.5 -13.5q20 -7 41 -12t42 -5q16 0 24.5 4.5t21.5 15.5
q6 5 15.5 11.5t17.5 6.5q6 0 13 -5.5t7 -10.5q0 -7 -12.5 -21.5t-26.5 -26.5l-294 -268l-28 11q14 12 28.5 23t28.5 11q24 0 45.5 -14t40.5 -31q20 -17 40 -31.5t40 -14.5q10 0 17 8.5t11.5 23t4.5 31.5q0 20 1.5 35t11.5 15q14 0 29 -13.5t15 -43.5q0 -20 -19.5 -45.5
t-47.5 -49t-56 -39t-45 -15.5zM1040 473q-10 0 -15 10.5t-11 32.5q-4 17 -9.5 33.5t-10.5 33t-9.5 33t-7.5 33.5q-4 18 1 31.5t21 13.5t32 -35q6 -13 15.5 -30t22.5 -37q4 -6 12 0q23 20 45 38t36 30q20 17 33 25.5t20 8.5q11 0 11 -13q0 -6 -3.5 -14t-11.5 -18
q-19 -22 -39 -44.5l-40 -45t-40 -45.5q-17 -19 -29 -30t-23 -11z" />
    <glyph glyph-name="uni01C7" unicode="&#x1c7;" horiz-adv-x="975" 
d="M-28 -5q-9 0 -12 5t-2 11q4 15 26 21q36 11 53 21.5t27 41.5l141 456q10 32 1 44.5t-46 22.5q-8 2 -11 7.5t-1 14.5q2 7 9 11t13 4q22 0 49 -1t53.5 -2.5t46.5 -1.5t48.5 1t57.5 2t50 1q16 0 11 -15q-3 -10 -9 -14t-16 -7q-30 -8 -46.5 -16t-25 -20t-14.5 -32l-122 -396
q-21 -69 -11.5 -91.5t37.5 -22.5h26q40 0 73.5 9.5t58.5 25.5q29 20 50 47.5t37 61.5q4 8 10 14t12 6q5 0 8.5 -6.5t3.5 -13.5q0 -16 -6.5 -39.5t-16.5 -48.5t-20.5 -47t-19.5 -35q-4 -7 -9 -13t-14 -6q-14 0 -53.5 1t-92.5 1.5t-108.5 1.5t-100.5 1q-30 0 -73 -2.5
t-72 -2.5zM514 -200q-77 0 -107.5 15.5t-31.5 42.5q0 31 11.5 52t29.5 21q14 0 30.5 -14t34.5 -31q19 -17 37 -32t33 -15q16 0 29.5 20t28.5 61t34 105l163 526q10 32 1 45t-46 22q-8 2 -11.5 7.5t-0.5 14.5q2 7 9 11t13 4q22 0 49 -1t53.5 -2.5t46.5 -1.5t48.5 1t57.5 2
t50 1q16 0 11 -15q-3 -10 -9 -14t-16 -7q-30 -8 -46.5 -16t-25 -20t-14.5 -32l-154 -498q-6 -21 -18 -44t-28.5 -46t-37 -45t-43.5 -41q-40 -34 -86.5 -55t-94.5 -21z" />
    <glyph glyph-name="uni01C8" unicode="&#x1c8;" horiz-adv-x="901" 
d="M-28 -5q-9 0 -12 5t-2 11q4 15 26 21q36 11 53 21.5t27 41.5l141 456q10 32 1 44.5t-46 22.5q-8 2 -11 7.5t-1 14.5q2 7 9 11t13 4q22 0 49 -1t53.5 -2.5t46.5 -1.5t48.5 1t57.5 2t50 1q16 0 11 -15q-3 -10 -9 -14t-16 -7q-30 -8 -46.5 -16t-25 -20t-14.5 -32l-122 -396
q-21 -69 -11.5 -91.5t37.5 -22.5h26q40 0 73.5 9.5t58.5 25.5q29 20 50 47.5t37 61.5q4 8 10 14t12 6q5 0 8.5 -6.5t3.5 -13.5q0 -16 -6.5 -39.5t-16.5 -48.5t-20.5 -47t-19.5 -35q-4 -7 -9 -13t-14 -6q-14 0 -53.5 1t-92.5 1.5t-108.5 1.5t-100.5 1q-30 0 -73 -2.5
t-72 -2.5zM446 -290q-55 0 -77 17.5t-21 39.5q2 19 12 32.5t22.5 21.5t20.5 8q17 0 28.5 -12t21.5 -24q9 -11 18.5 -19t23.5 -8q25 0 45.5 35.5t38.5 90.5l120 370q9 29 5.5 38t-11.5 9q-13 0 -24.5 -4.5t-25.5 -10.5q-12 -5 -19.5 -3t-7.5 11t6.5 14.5t16.5 13.5
q22 17 54 34t65 31t60 24.5t38 15.5q14 6 29 -6.5t10 -26.5q-5 -16 -19 -46.5t-26 -67.5l-110 -336q-17 -52 -54.5 -96t-83 -77t-87.5 -51t-69 -18zM843 505q-24 0 -40 18.5t-16 41.5q0 36 26 64t64 28q26 0 40 -21t14 -44q0 -34 -26 -60.5t-62 -26.5z" />
    <glyph glyph-name="uni01CA" unicode="&#x1ca;" horiz-adv-x="1180" 
d="M3 -3q-6 0 -13 4t-5 11q3 9 12 13.5t19 7.5q30 8 50.5 28t33.5 54l151 395q14 37 8.5 60t-28.5 35t-63 15q-13 2 -20 7t-7 15q0 6 11 11t22 5q21 0 55.5 -1t73 -2.5t69.5 -1.5q14 0 22.5 -5.5t13.5 -16.5l191 -432q2 -4 4.5 -8t5.5 -4q7 0 12 14q3 7 7.5 21.5t11 35.5
t14 47.5t15.5 56.5t15.5 62.5t13.5 65.5q14 68 -4.5 94.5t-73.5 36.5q-17 3 -16 15q1 7 10 11t16 4q41 0 71 -3t44 -3q20 0 38.5 2t39.5 3.5t46 1.5q19 0 19 -15q0 -7 -11.5 -11.5t-22.5 -6.5q-24 -5 -41 -14.5t-30.5 -32.5t-27.5 -67q-6 -20 -13.5 -44.5t-16 -52.5
t-17.5 -58.5t-19 -62.5t-19.5 -64.5t-19.5 -64.5q-10 -31 -8.5 -48.5t14.5 -40.5q5 -7 10.5 -17.5t12.5 -17.5q8 -7 13.5 -10t5.5 -8q0 -10 -5.5 -13t-16.5 -3q-29 0 -48 -2t-34.5 -3.5t-35.5 -2.5q-31 -1 -46 14t-27 46q-6 16 -22 54.5t-36.5 88t-42 101t-39.5 95t-29 70
t-11 25.5q-1 2 -3.5 6t-4.5 4q-4 0 -7.5 -7t-5.5 -12q-13 -32 -31 -79.5t-36 -100t-32.5 -101t-22.5 -83.5q-8 -38 4 -53t54 -26q8 -2 15.5 -6.5t4.5 -14.5q-2 -7 -11.5 -11t-17.5 -4q-27 0 -42.5 1t-26.5 1.5t-27 0.5q-23 0 -49 -1t-44.5 -2zM719 -200q-77 0 -107.5 15.5
t-31.5 42.5q0 31 11.5 52t29.5 21q14 0 30.5 -14t34.5 -31q19 -17 37 -32t33 -15q16 0 29.5 20t28.5 61t34 105l163 526q10 32 1 45t-46 22q-8 2 -11.5 7.5t-0.5 14.5q2 7 9 11t13 4q22 0 49 -1t53.5 -2.5t46.5 -1.5t48.5 1t57.5 2t50 1q16 0 11 -15q-3 -10 -9 -14t-16 -7
q-30 -8 -46.5 -16t-25 -20t-14.5 -32l-154 -498q-6 -21 -18 -44t-28.5 -46t-37 -45t-43.5 -41q-40 -34 -86.5 -55t-94.5 -21z" />
    <glyph glyph-name="uni01CB" unicode="&#x1cb;" horiz-adv-x="1106" 
d="M3 -3q-6 0 -13 4t-5 11q3 9 12 13.5t19 7.5q30 8 50.5 28t33.5 54l151 395q14 37 8.5 60t-28.5 35t-63 15q-13 2 -20 7t-7 15q0 6 11 11t22 5q21 0 55.5 -1t73 -2.5t69.5 -1.5q14 0 22.5 -5.5t13.5 -16.5l191 -432q2 -4 4.5 -8t5.5 -4q7 0 12 14q3 7 7.5 21.5t11 35.5
t14 47.5t15.5 56.5t15.5 62.5t13.5 65.5q14 68 -4.5 94.5t-73.5 36.5q-17 3 -16 15q1 7 10 11t16 4q41 0 71 -3t44 -3q20 0 38.5 2t39.5 3.5t46 1.5q19 0 19 -15q0 -7 -11.5 -11.5t-22.5 -6.5q-24 -5 -41 -14.5t-30.5 -32.5t-27.5 -67q-6 -20 -13.5 -44.5t-16 -52.5
t-17.5 -58.5t-19 -62.5t-19.5 -64.5t-19.5 -64.5q-10 -31 -8.5 -48.5t14.5 -40.5q5 -7 10.5 -17.5t12.5 -17.5q8 -7 13.5 -10t5.5 -8q0 -10 -5.5 -13t-16.5 -3q-29 0 -48 -2t-34.5 -3.5t-35.5 -2.5q-31 -1 -46 14t-27 46q-6 16 -22 54.5t-36.5 88t-42 101t-39.5 95t-29 70
t-11 25.5q-1 2 -3.5 6t-4.5 4q-4 0 -7.5 -7t-5.5 -12q-13 -32 -31 -79.5t-36 -100t-32.5 -101t-22.5 -83.5q-8 -38 4 -53t54 -26q8 -2 15.5 -6.5t4.5 -14.5q-2 -7 -11.5 -11t-17.5 -4q-27 0 -42.5 1t-26.5 1.5t-27 0.5q-23 0 -49 -1t-44.5 -2zM651 -290q-55 0 -77 17.5
t-21 39.5q2 19 12 32.5t22.5 21.5t20.5 8q17 0 28.5 -12t21.5 -24q9 -11 18.5 -19t23.5 -8q25 0 45.5 35.5t38.5 90.5l120 370q9 29 5.5 38t-11.5 9q-13 0 -24.5 -4.5t-25.5 -10.5q-12 -5 -19.5 -3t-7.5 11t6.5 14.5t16.5 13.5q22 17 54 34t65 31t60 24.5t38 15.5
q14 6 29 -6.5t10 -26.5q-5 -16 -19 -46.5t-26 -67.5l-110 -336q-17 -52 -54.5 -96t-83 -77t-87.5 -51t-69 -18zM1048 505q-24 0 -40 18.5t-16 41.5q0 36 26 64t64 28q26 0 40 -21t14 -44q0 -34 -26 -60.5t-62 -26.5z" />
    <glyph glyph-name="uni01CD" unicode="&#x1cd;" horiz-adv-x="766" 
d="M-45 -5q-11 0 -17.5 3.5t-4.5 13.5t9.5 15t17.5 7q18 4 43 12t49.5 21t40.5 31q64 73 127.5 145t127.5 144.5t128 144.5q19 21 31.5 42.5t21 36t14.5 14.5q26 0 52 4.5t45 14.5q17 9 32 18.5t25 9.5q11 0 12.5 -20.5t-3.5 -45.5l-98 -494q-6 -31 9.5 -49t53.5 -29
q11 -3 18.5 -6.5t7.5 -14.5q0 -7 -11.5 -11t-19.5 -4q-21 0 -49.5 1t-57.5 2t-52 1q-20 0 -49 -1t-59 -2.5t-52 -1.5q-20 0 -18 15q1 9 9 14.5t18 7.5q23 5 39 12.5t26.5 19.5t14.5 31l30 122q2 8 -1.5 12.5t-11.5 4.5h-161q-8 0 -14.5 -5.5t-11.5 -11.5l-62 -79
q-25 -32 -30.5 -53t7.5 -33.5t41 -19.5q9 -2 17.5 -7.5t7.5 -14.5q-1 -7 -11 -10.5t-21 -3.5q-33 0 -63.5 1.5t-60.5 1.5q-29 0 -66.5 -3t-69.5 -3zM342 284h123q8 0 12 2t5 9l47 219q2 6 2.5 11t-3.5 5q-1 0 -5 -2t-7 -5l-184 -221q-9 -10 -7.5 -14t17.5 -4zM661 698
q-14 0 -22 7t-21 23l-76 96q-6 8 -4 16q3 13 24 13q8 0 28.5 -8.5t42.5 -20.5t35 -21q5 -4 10.5 -4t13.5 4q15 7 40 15.5t51.5 16.5t47 13.5t27.5 5.5q16 0 16 -13q0 -11 -12 -20l-139 -93q-23 -16 -35 -23t-27 -7z" />
    <glyph glyph-name="uni01CF" unicode="&#x1cf;" horiz-adv-x="381" 
d="M-33 -3q-6 0 -10.5 4t-2.5 11q6 17 26 22q41 9 58 20.5t27 42.5l141 454q10 32 1 44.5t-47 22.5q-8 2 -11.5 7.5t-0.5 14.5q2 7 9.5 11t13.5 4q22 0 49 -1t53 -2.5t46 -1.5t48.5 1t58 2t50.5 1q16 0 11 -15q-3 -10 -9 -14t-17 -7q-30 -8 -46.5 -16t-25 -20t-14.5 -32
l-126 -408q-12 -40 -15 -60t6.5 -28.5t31.5 -14.5q23 -6 29.5 -11t3.5 -15q-2 -7 -7.5 -11t-13.5 -4q-21 0 -52.5 1t-62 2t-50.5 1q-30 0 -74.5 -2.5t-77.5 -2.5zM334 698q-14 0 -22 7t-21 23l-76 96q-6 8 -4 16q3 13 24 13q8 0 28.5 -8.5t42.5 -20.5t35 -21q5 -4 10.5 -4
t13.5 4q15 7 40 15.5t51.5 16.5t47 13.5t27.5 5.5q16 0 16 -13q0 -11 -12 -20l-139 -93q-23 -16 -35 -23t-27 -7z" />
    <glyph glyph-name="uni01D1" unicode="&#x1d1;" horiz-adv-x="692" 
d="M292 -14q-67 0 -121 32t-86 90t-32 134q0 83 32.5 159t90 135t133 93.5t161.5 34.5q67 0 121.5 -32t86.5 -89.5t32 -134.5q0 -82 -33 -158t-90.5 -135.5t-133 -94t-161.5 -34.5zM291 25q41 0 80 30.5t73 81t60 110.5t40.5 119t14.5 107q0 42 -9.5 77.5t-29.5 57t-51 21.5
q-41 0 -80 -31t-72.5 -82t-59 -111.5t-40 -120.5t-14.5 -108q0 -41 9 -75.5t28.5 -55t50.5 -20.5zM508 698q-14 0 -22 7t-21 23l-76 96q-6 8 -4 16q3 13 24 13q8 0 28.5 -8.5t42.5 -20.5t35 -21q5 -4 10.5 -4t13.5 4q15 7 40 15.5t51.5 16.5t47 13.5t27.5 5.5q16 0 16 -13
q0 -11 -12 -20l-139 -93q-23 -16 -35 -23t-27 -7z" />
    <glyph glyph-name="uni01D3" unicode="&#x1d3;" horiz-adv-x="715" 
d="M318 -14q-68 0 -117 20t-77.5 56.5t-34.5 86t12 107.5l87 280q8 26 3 50.5t-30 31.5q-24 7 -20 22q2 7 11 11t20 4q33 0 69 -2.5t66 -2.5q29 0 73 2t75 2q27 0 22 -15q-4 -12 -22.5 -17.5t-36.5 -13.5q-18 -7 -34 -25.5t-27 -52.5l-95 -293q-16 -49 -4.5 -87.5t41.5 -60
t69 -21.5q51 0 94.5 26.5t76 70t49.5 95.5q16 45 27.5 82t19.5 63.5t11 39.5q14 59 15 92.5t-7 50.5t-22 26q-10 6 -24.5 10.5t-11.5 14.5q2 8 11 11.5t23 3.5q26 0 41.5 -1t28.5 -1.5t31 -0.5q19 0 31 1t24.5 2t33.5 1q11 0 17 -3t3 -12q-4 -14 -33 -22q-25 -6 -41 -16.5
t-26 -26.5t-19 -41q-25 -73 -45 -139.5t-43 -137.5q-25 -81 -66 -142t-102 -95t-147 -34zM550 698q-14 0 -22 7t-21 23l-76 96q-6 8 -4 16q3 13 24 13q8 0 28.5 -8.5t42.5 -20.5t35 -21q5 -4 10.5 -4t13.5 4q15 7 40 15.5t51.5 16.5t47 13.5t27.5 5.5q16 0 16 -13
q0 -11 -12 -20l-139 -93q-23 -16 -35 -23t-27 -7z" />
    <glyph glyph-name="uni01D5" unicode="&#x1d5;" horiz-adv-x="715" 
d="M318 -14q-68 0 -117 20t-77.5 56.5t-34.5 86t12 107.5l87 280q8 26 3 50.5t-30 31.5q-24 7 -20 22q2 7 11 11t20 4q33 0 69 -2.5t66 -2.5q29 0 73 2t75 2q27 0 22 -15q-4 -12 -22.5 -17.5t-36.5 -13.5q-18 -7 -34 -25.5t-27 -52.5l-95 -293q-16 -49 -4.5 -87.5t41.5 -60
t69 -21.5q51 0 94.5 26.5t76 70t49.5 95.5q16 45 27.5 82t19.5 63.5t11 39.5q14 59 15 92.5t-7 50.5t-22 26q-10 6 -24.5 10.5t-11.5 14.5q2 8 11 11.5t23 3.5q26 0 41.5 -1t28.5 -1.5t31 -0.5q19 0 31 1t24.5 2t33.5 1q11 0 17 -3t3 -12q-4 -14 -33 -22q-25 -6 -41 -16.5
t-26 -26.5t-19 -41q-25 -73 -45 -139.5t-43 -137.5q-25 -81 -66 -142t-102 -95t-147 -34zM652 686q-27 0 -45.5 18.5t-18.5 41.5q0 37 28.5 65t72.5 28q28 0 45.5 -20t17.5 -46q0 -23 -14 -43t-36.5 -32t-49.5 -12zM454 686q-28 0 -46 18.5t-18 41.5q0 38 29 65.5t72 27.5
q27 0 44.5 -20t17.5 -46q0 -34 -29.5 -60.5t-69.5 -26.5zM464 866q-10 0 -15.5 6t-5.5 13q0 30 13 48.5t27 18.5h270q10 0 15 -5.5t5 -13.5q0 -26 -13 -46.5t-30 -20.5h-266z" />
    <glyph glyph-name="uni01D7" unicode="&#x1d7;" horiz-adv-x="722" 
d="M318 -14q-68 0 -117 20t-77.5 56.5t-34.5 86t12 107.5l87 280q8 26 3 50.5t-30 31.5q-24 7 -20 22q2 7 11 11t20 4q33 0 69 -2.5t66 -2.5q29 0 73 2t75 2q27 0 22 -15q-4 -12 -22.5 -17.5t-36.5 -13.5q-18 -7 -34 -25.5t-27 -52.5l-95 -293q-16 -49 -4.5 -87.5t41.5 -60
t69 -21.5q51 0 94.5 26.5t76 70t49.5 95.5q16 45 27.5 82t19.5 63.5t11 39.5q14 59 15 92.5t-7 50.5t-22 26q-10 6 -24.5 10.5t-11.5 14.5q2 8 11 11.5t23 3.5q26 0 41.5 -1t28.5 -1.5t31 -0.5q19 0 31 1t24.5 2t33.5 1q11 0 17 -3t3 -12q-4 -14 -33 -22q-25 -6 -41 -16.5
t-26 -26.5t-19 -41q-25 -73 -45 -139.5t-43 -137.5q-25 -81 -66 -142t-102 -95t-147 -34zM652 686q-27 0 -45.5 18.5t-18.5 41.5q0 37 28.5 65t72.5 28q28 0 45.5 -20t17.5 -46q0 -23 -14 -43t-36.5 -32t-49.5 -12zM454 686q-28 0 -46 18.5t-18 41.5q0 38 29 65.5t72 27.5
q27 0 44.5 -20t17.5 -46q0 -34 -29.5 -60.5t-69.5 -26.5zM524 865q-7 0 -13 3.5t-6 10.5q0 5 3.5 10.5t15.5 14.5q31 23 75 51t79 48q2 1 4.5 2t5 1.5l5 1t5.5 0.5q18 0 29.5 -14.5t17 -30.5t5.5 -23q0 -4 -1 -8t-3 -6.5t-7 -4.5q-46 -15 -87.5 -28.5t-87.5 -21.5
q-4 -1 -9 -2t-10.5 -2t-10.5 -1.5t-10 -0.5z" />
    <glyph glyph-name="uni01D9" unicode="&#x1d9;" horiz-adv-x="715" 
d="M318 -14q-68 0 -117 20t-77.5 56.5t-34.5 86t12 107.5l87 280q8 26 3 50.5t-30 31.5q-24 7 -20 22q2 7 11 11t20 4q33 0 69 -2.5t66 -2.5q29 0 73 2t75 2q27 0 22 -15q-4 -12 -22.5 -17.5t-36.5 -13.5q-18 -7 -34 -25.5t-27 -52.5l-95 -293q-16 -49 -4.5 -87.5t41.5 -60
t69 -21.5q51 0 94.5 26.5t76 70t49.5 95.5q16 45 27.5 82t19.5 63.5t11 39.5q14 59 15 92.5t-7 50.5t-22 26q-10 6 -24.5 10.5t-11.5 14.5q2 8 11 11.5t23 3.5q26 0 41.5 -1t28.5 -1.5t31 -0.5q19 0 31 1t24.5 2t33.5 1q11 0 17 -3t3 -12q-4 -14 -33 -22q-25 -6 -41 -16.5
t-26 -26.5t-19 -41q-25 -73 -45 -139.5t-43 -137.5q-25 -81 -66 -142t-102 -95t-147 -34zM652 686q-27 0 -45.5 18.5t-18.5 41.5q0 37 28.5 65t72.5 28q28 0 45.5 -20t17.5 -46q0 -23 -14 -43t-36.5 -32t-49.5 -12zM454 686q-28 0 -46 18.5t-18 41.5q0 38 29 65.5t72 27.5
q27 0 44.5 -20t17.5 -46q0 -34 -29.5 -60.5t-69.5 -26.5zM571 829q-14 0 -22 7t-21 23l-76 96q-6 8 -4 16q3 13 24 13q8 0 28.5 -8.5t42.5 -20.5t35 -21q5 -4 10.5 -4t13.5 4q15 7 40 15.5t51.5 16.5t47 13.5t27.5 5.5q16 0 16 -13q0 -11 -12 -20l-139 -93q-23 -16 -35 -23
t-27 -7z" />
    <glyph glyph-name="uni01DB" unicode="&#x1db;" horiz-adv-x="600" 
d="M620 861q-5 0 -10 0.5t-10.5 1.5t-10.5 2t-9 2q-46 8 -87.5 21.5t-87.5 28.5q-4 2 -6.5 4.5t-3.5 6.5t-1 8q0 7 5.5 23t17.5 30.5t29 14.5q3 0 5.5 -0.5l5 -1t5 -1.5t4.5 -2q35 -20 79 -48t75 -51q12 -9 15.5 -14.5t3.5 -10.5q0 -7 -5.5 -10.5t-13.5 -3.5zM318 -14
q-68 0 -117 20t-77.5 56.5t-34.5 86t12 107.5l87 280q8 26 3 50.5t-30 31.5q-24 7 -20 22q2 7 11 11t20 4q33 0 69 -2.5t66 -2.5q29 0 73 2t75 2q27 0 22 -15q-4 -12 -22.5 -17.5t-36.5 -13.5q-18 -7 -34 -25.5t-27 -52.5l-95 -293q-16 -49 -4.5 -87.5t41.5 -60t69 -21.5
q51 0 94.5 26.5t76 70t49.5 95.5q16 45 27.5 82t19.5 63.5t11 39.5q14 59 15 92.5t-7 50.5t-22 26q-10 6 -24.5 10.5t-11.5 14.5q2 8 11 11.5t23 3.5q26 0 41.5 -1t28.5 -1.5t31 -0.5q19 0 31 1t24.5 2t33.5 1q11 0 17 -3t3 -12q-4 -14 -33 -22q-25 -6 -41 -16.5t-26 -26.5
t-19 -41q-25 -73 -45 -139.5t-43 -137.5q-25 -81 -66 -142t-102 -95t-147 -34zM652 686q-27 0 -45.5 18.5t-18.5 40.5q0 38 28.5 66t72.5 28q28 0 45.5 -20t17.5 -46q0 -23 -14 -43t-36.5 -32t-49.5 -12zM454 686q-28 0 -46 18.5t-18 41.5q0 38 29 65.5t72 27.5
q27 0 44.5 -20t17.5 -46q0 -34 -29.5 -60.5t-69.5 -26.5z" />
    <glyph glyph-name="uni01DE" unicode="&#x1de;" horiz-adv-x="766" 
d="M-45 -5q-11 0 -17.5 3.5t-4.5 13.5t9.5 15t17.5 7q18 4 43 12t49.5 21t40.5 31q64 73 127.5 145t127.5 144.5t128 144.5q19 21 31.5 42.5t21 36t14.5 14.5q26 0 52 4.5t45 14.5q17 9 32 18.5t25 9.5q11 0 12.5 -20.5t-3.5 -45.5l-98 -494q-6 -31 9.5 -49t53.5 -29
q11 -3 18.5 -6.5t7.5 -14.5q0 -7 -11.5 -11t-19.5 -4q-21 0 -49.5 1t-57.5 2t-52 1q-20 0 -49 -1t-59 -2.5t-52 -1.5q-20 0 -18 15q1 9 9 14.5t18 7.5q23 5 39 12.5t26.5 19.5t14.5 31l30 122q2 8 -1.5 12.5t-11.5 4.5h-161q-8 0 -14.5 -5.5t-11.5 -11.5l-62 -79
q-25 -32 -30.5 -53t7.5 -33.5t41 -19.5q9 -2 17.5 -7.5t7.5 -14.5q-1 -7 -11 -10.5t-21 -3.5q-33 0 -63.5 1.5t-60.5 1.5q-29 0 -66.5 -3t-69.5 -3zM342 284h123q8 0 12 2t5 9l47 219q2 6 2.5 11t-3.5 5q-1 0 -5 -2t-7 -5l-184 -221q-9 -10 -7.5 -14t17.5 -4zM763 686
q-27 0 -45.5 18.5t-18.5 41.5q0 37 28.5 65t72.5 28q28 0 45.5 -20t17.5 -46q0 -23 -14 -43t-36.5 -32t-49.5 -12zM565 686q-28 0 -46 18.5t-18 41.5q0 38 29 65.5t72 27.5q27 0 44.5 -20t17.5 -46q0 -34 -29.5 -60.5t-69.5 -26.5zM562 867q-10 0 -15.5 6t-5.5 13
q0 30 13 48.5t27 18.5h270q10 0 15 -5.5t5 -13.5q0 -26 -13 -46.5t-30 -20.5h-266z" />
    <glyph glyph-name="uni01E0" unicode="&#x1e0;" horiz-adv-x="766" 
d="M-45 -5q-11 0 -17.5 3.5t-4.5 13.5t9.5 15t17.5 7q18 4 43 12t49.5 21t40.5 31q64 73 127.5 145t127.5 144.5t128 144.5q19 21 31.5 42.5t21 36t14.5 14.5q26 0 52 4.5t45 14.5q17 9 32 18.5t25 9.5q11 0 12.5 -20.5t-3.5 -45.5l-98 -494q-6 -31 9.5 -49t53.5 -29
q11 -3 18.5 -6.5t7.5 -14.5q0 -7 -11.5 -11t-19.5 -4q-21 0 -49.5 1t-57.5 2t-52 1q-20 0 -49 -1t-59 -2.5t-52 -1.5q-20 0 -18 15q1 9 9 14.5t18 7.5q23 5 39 12.5t26.5 19.5t14.5 31l30 122q2 8 -1.5 12.5t-11.5 4.5h-161q-8 0 -14.5 -5.5t-11.5 -11.5l-62 -79
q-25 -32 -30.5 -53t7.5 -33.5t41 -19.5q9 -2 17.5 -7.5t7.5 -14.5q-1 -7 -11 -10.5t-21 -3.5q-33 0 -63.5 1.5t-60.5 1.5q-29 0 -66.5 -3t-69.5 -3zM342 284h123q8 0 12 2t5 9l47 219q2 6 2.5 11t-3.5 5q-1 0 -5 -2t-7 -5l-184 -221q-9 -10 -7.5 -14t17.5 -4zM665 692
q-31 0 -52 19.5t-21 43.5q0 41 32.5 70t82.5 29q32 0 52 -21.5t20 -48.5q0 -24 -16 -45t-42 -34t-56 -13zM584 873q-10 0 -15.5 6t-5.5 13q0 30 13 48.5t27 18.5h270q10 0 15 -5.5t5 -13.5q0 -26 -13 -46.5t-30 -20.5h-266z" />
    <glyph glyph-name="uni01E4" unicode="&#x1e4;" horiz-adv-x="736" 
d="M362 131q-13 0 -18.5 10.5t-5.5 20.5q0 14 8 22.5t21 8.5h323q10 0 16.5 -5.5t6.5 -13.5q0 -1 -0.5 -2t-0.5 -3q-3 -13 -14 -25.5t-28 -12.5h-308zM328 -14q-75 0 -134 26.5t-95.5 76.5t-44.5 119.5t18 154.5q19 61 59.5 115.5t99 96t132 65.5t157.5 24q35 0 62 -6.5
t47 -13.5q19 -6 30 -9.5t23 -3.5q7 0 13 1t13 5q8 5 15.5 8t14.5 3q11 0 13 -7.5t-5 -16.5q-13 -17 -27.5 -46t-26.5 -60.5t-20 -57.5q-3 -10 -8 -16.5t-16 -6.5q-22 0 -19 44q2 31 -1.5 56.5t-17.5 44.5q-14 20 -40.5 33t-55.5 13q-41 0 -82 -19t-79.5 -58t-72.5 -100
t-60 -145q-18 -59 -15.5 -110.5t22 -90t54 -60.5t79.5 -22q36 0 62.5 24.5t36.5 55.5l34 112q3 11 1 20.5t-16 15.5q-13 6 -31.5 10.5t-30.5 7.5q-8 2 -14.5 8t-3.5 15q2 7 10 11t16 4q22 0 52 -2.5t59 -5t49 -2.5q29 0 61 4.5t80 4.5q16 0 11 -15q-3 -10 -9 -14.5t-16 -6.5
q-32 -7 -45.5 -18t-24.5 -31q-8 -15 -17.5 -37t-16 -41t-6.5 -26q0 -11 6 -20t16 -20q-9 -18 -43 -34t-80 -29t-92.5 -20.5t-79.5 -7.5z" />
    <glyph glyph-name="uni01E8" unicode="&#x1e8;" horiz-adv-x="776" 
d="M-24 -6q-9 0 -17 5.5t-6 12.5q6 17 32 22q41 8 55.5 20t24.5 43l140 454q10 32 1 45t-46 22q-7 2 -10 5.5t-3 9.5q0 9 9.5 15.5t23.5 6.5q17 0 42 -1t51 -2.5t46 -1.5t48.5 1t57.5 2t50 1q14 0 14 -11q0 -12 -9 -17t-19 -8q-30 -8 -46.5 -16t-25 -20t-14.5 -32l-55 -178
q-3 -10 1 -13t14 -3q20 0 43 12t48 37l147 143q11 11 18 19t9 15q4 11 -10.5 19.5t-29.5 11.5q-13 2 -17.5 6.5t-4.5 13.5t7 13.5t17 4.5h80q52 0 99 1.5t108 1.5q22 0 22 -15q0 -9 -13.5 -14.5t-22.5 -6.5q-55 -4 -92 -19.5t-69 -41.5t-67 -55t-69.5 -59.5t-65.5 -61.5
q-10 -10 -12 -17t2 -15q47 -102 84.5 -160.5t65.5 -90.5q20 -23 41 -36.5t44 -22.5q10 -4 22.5 -9.5t12.5 -15.5q0 -8 -9 -13.5t-29 -5.5q-30 0 -56 1.5t-49.5 3t-48.5 1.5q-24 0 -46.5 -0.5t-44 -1.5t-44.5 -1q-7 0 -15 4.5t-8 11.5q0 11 9.5 16.5t22.5 7.5q17 3 20 14
t-1 24.5t-8 24.5l-82 181q-10 21 -18 30t-13 9q-6 0 -8.5 -2.5t-4.5 -7.5l-62 -213q-8 -28 -3 -40.5t40 -23.5q8 -3 14 -6.5t6 -11.5q0 -10 -12 -15t-23 -5q-32 0 -56 2t-44 4t-40 2q-30 0 -60.5 -5t-82.5 -5zM533 698q-14 0 -22 7t-21 23l-76 96q-6 8 -4 16q3 13 24 13
q8 0 28.5 -8.5t42.5 -20.5t35 -21q5 -4 10.5 -4t13.5 4q15 7 40 15.5t51.5 16.5t47 13.5t27.5 5.5q16 0 16 -13q0 -11 -12 -20l-139 -93q-23 -16 -35 -23t-27 -7z" />
    <glyph glyph-name="uni01EA" unicode="&#x1ea;" horiz-adv-x="692" 
d="M313 -287q-23 0 -43 13t-31.5 32.5t-11.5 39.5q0 38 19 70.5t49 60t64.5 49.5t66.5 40l14 -3q-34 -14 -71.5 -21.5t-76.5 -7.5q-67 0 -121 32t-86 90t-32 134q0 83 32.5 159t90 135t133 93.5t161.5 34.5q67 0 121.5 -32t86.5 -89.5t32 -134.5q0 -70 -24.5 -135.5
t-66 -119t-93.5 -90.5q-61 -43 -100 -86t-57.5 -80.5t-18.5 -66.5q0 -13 8 -20.5t24 -7.5q12 0 27.5 11t28.5 29q2 2 4 5t5 5t7 2q7 0 8 -6t1 -11q0 -18 -14 -39.5t-36 -41t-48.5 -31.5t-51.5 -12zM298 39q41 0 79.5 29.5t71.5 77.5t57.5 105.5t38.5 115.5t14 106
q0 42 -11 73.5t-32.5 48.5t-52.5 17q-41 0 -79 -29.5t-71 -78t-57.5 -106.5t-38.5 -116t-14 -106q0 -41 11 -72t32 -48t52 -17z" />
    <glyph glyph-name="uni01EC" unicode="&#x1ec;" horiz-adv-x="692" 
d="M313 -287q-23 0 -43 13t-31.5 32.5t-11.5 39.5q0 38 19 70.5t49 60t64.5 49.5t66.5 40l14 -3q-34 -14 -71.5 -21.5t-76.5 -7.5q-67 0 -121 32t-86 90t-32 134q0 83 32.5 159t90 135t133 93.5t161.5 34.5q67 0 121.5 -32t86.5 -89.5t32 -134.5q0 -70 -24.5 -135.5
t-66 -119t-93.5 -90.5q-61 -43 -100 -86t-57.5 -80.5t-18.5 -66.5q0 -13 8 -20.5t24 -7.5q12 0 27.5 11t28.5 29q2 2 4 5t5 5t7 2q7 0 8 -6t1 -11q0 -18 -14 -39.5t-36 -41t-48.5 -31.5t-51.5 -12zM298 39q41 0 79.5 29.5t71.5 77.5t57.5 105.5t38.5 115.5t14 106
q0 42 -11 73.5t-32.5 48.5t-52.5 17q-41 0 -79 -29.5t-71 -78t-57.5 -106.5t-38.5 -116t-14 -106q0 -41 11 -72t32 -48t52 -17zM393 716q-10 0 -15.5 6t-5.5 13q0 30 13 48.5t27 18.5h270q10 0 15 -5.5t5 -13.5q0 -26 -13 -46.5t-30 -20.5h-266z" />
    <glyph glyph-name="uni01EE" unicode="&#x1ee;" horiz-adv-x="586" 
d="M201 -13q-41 0 -83 7.5t-70 24t-28 42.5q0 22 7 60t17 72q4 12 10.5 20.5t15.5 8.5q8 0 11.5 -5t3.5 -11q0 -91 33.5 -133.5t77.5 -42.5q40 0 72 17t54.5 44.5t35 58.5t12.5 59q1 41 -11 69t-35 42.5t-58 14.5q-6 0 -12.5 -1.5t-14.5 -3.5q-7 -1 -14 -3t-11 -2
q-15 0 -21.5 6t-6.5 13q0 6 5 13.5t18 21.5l202 213q8 8 6 14t-15 6h-34q-44 0 -84 -23t-73 -61q-10 -12 -21 -24t-24 -12q-10 0 -13.5 10t-1.5 17q2 6 6 14t8 14q10 15 16 27t12.5 29t17.5 45q6 16 13 22.5t19 6.5q10 0 21.5 -4.5t28.5 -9.5q13 -4 27 -8t46 -4h201
q10 0 19 0.5t17.5 1t15.5 1t13 0.5q5 0 9 -11t-5 -19l-258 -246q-4 -4 -3 -6t6 -1q10 2 18.5 4t19.5 2q41 0 70 -18t44.5 -50t15.5 -76q0 -45 -22 -88.5t-65.5 -79t-109 -57t-151.5 -21.5zM443 698q-14 0 -22 7t-21 23l-76 96q-6 8 -4 16q3 13 24 13q8 0 28.5 -8.5
t42.5 -20.5t35 -21q5 -4 10.5 -4t13.5 4q15 7 40 15.5t51.5 16.5t47 13.5t27.5 5.5q16 0 16 -13q0 -11 -12 -20l-139 -93q-23 -16 -35 -23t-27 -7z" />
    <glyph glyph-name="uni01F1" unicode="&#x1f1;" horiz-adv-x="1371" 
d="M303 -7q-40 0 -80.5 3t-72 5.5t-44.5 2.5q-20 0 -47.5 -1.5t-56 -3.5t-50.5 -2q-6 0 -10.5 4t-2.5 11q6 17 26 22q27 6 43.5 12.5t26 18.5t15.5 32l141 454q6 23 4 35t-14 19t-36 13q-8 2 -11.5 7.5t-0.5 14.5q2 7 9.5 11t13.5 4q33 0 75.5 -2.5t72.5 -2.5q20 0 41 1
t47.5 2t61.5 1q94 0 158 -37t97 -98.5t33 -133.5q0 -79 -34.5 -149.5t-95 -125t-140 -86t-169.5 -31.5zM302 31q50 0 97.5 32.5t85.5 86t60.5 119.5t22.5 133q0 79 -17 125.5t-47.5 67t-69.5 20.5q-19 0 -33 -4t-22.5 -13.5t-13.5 -25.5l-135 -453q-10 -33 0.5 -52.5
t31.5 -27.5t40 -8zM1232 -4q-4 0 -28 0.5t-64 1.5t-89.5 2t-104.5 1q-60 0 -104 -1t-78 -3t-65 -4q-10 -1 -9.5 13.5t4.5 18.5q14 17 27.5 33t27 32.5t27.5 31.5q50 56 100.5 115t101.5 119t102.5 120t103.5 118q6 7 6.5 14t-13.5 7q-9 0 -25 -0.5t-33.5 -1.5t-33 -2
t-23.5 -2q-41 -6 -78 -24.5t-72 -61.5q-10 -13 -20 -24t-26 -11q-9 0 -10 5.5t0 12.5q2 6 4 13t6 14q18 32 28 57.5t20 50.5q7 16 13.5 22.5t18.5 6.5q32 0 72 -10t90 -10h51.5h51.5q28 0 67 1.5t76 2.5t59 1q8 0 11 -10.5t-1 -14.5l-100 -114q-44 -50 -92.5 -106.5
t-98 -115t-98.5 -116t-95 -109.5q-23 -26 6 -26q17 0 54.5 0.5t70.5 1.5q31 1 56.5 4t47 9.5t40.5 16.5q28 15 51.5 36t46.5 52q6 8 11 10t11 2t9.5 -4t1.5 -11q-4 -13 -13 -30.5t-20 -37t-22.5 -39t-22.5 -37.5q-6 -10 -15 -15t-20 -5z" />
    <glyph glyph-name="uni01F2" unicode="&#x1f2;" horiz-adv-x="1214" 
d="M303 -7q-40 0 -80.5 3t-72 5.5t-44.5 2.5q-20 0 -47.5 -1.5t-56 -3.5t-50.5 -2q-6 0 -10.5 4t-2.5 11q6 17 26 22q27 6 43.5 12.5t26 18.5t15.5 32l141 454q6 23 4 35t-14 19t-36 13q-8 2 -11.5 7.5t-0.5 14.5q2 7 9.5 11t13.5 4q33 0 75.5 -2.5t72.5 -2.5q20 0 41 1
t47.5 2t61.5 1q94 0 158 -37t97 -98.5t33 -133.5q0 -79 -34.5 -149.5t-95 -125t-140 -86t-169.5 -31.5zM302 31q50 0 97.5 32.5t85.5 86t60.5 119.5t22.5 133q0 79 -17 125.5t-47.5 67t-69.5 20.5q-19 0 -33 -4t-22.5 -13.5t-13.5 -25.5l-135 -453q-10 -33 0.5 -52.5
t31.5 -27.5t40 -8zM1002 -33q-31 0 -57 14t-47 30q-22 16 -40.5 29.5t-35.5 13.5q-25 0 -40 -18t-15 -41q0 -10 -5.5 -12.5t-10.5 -2.5q-9 0 -15.5 11t-7.5 21q-1 11 4.5 26t21.5 28l296 250l39 -4q-16 -14 -45 -23t-46 -9q-21 0 -40 14.5t-37 30.5q-15 13 -28.5 23
t-26.5 10q-14 0 -20 -15.5t-6 -32.5q0 -14 3.5 -24.5t8.5 -18.5q9 -12 0 -20q-8 -7 -25.5 -13.5t-24.5 -6.5t-17.5 11.5t-10.5 33.5q0 37 17.5 59.5t47.5 45.5q15 12 36.5 26t43.5 24t35 10q23 0 40.5 -6.5t41.5 -13.5q20 -7 41 -12t42 -5q16 0 24.5 4.5t21.5 15.5
q6 5 15.5 11.5t17.5 6.5q6 0 13 -5.5t7 -10.5q0 -7 -12.5 -21.5t-26.5 -26.5l-294 -268l-28 11q14 12 28.5 23t28.5 11q24 0 45.5 -14t40.5 -31q20 -17 40 -31.5t40 -14.5q10 0 17 8.5t11.5 23t4.5 31.5q0 20 1.5 35t11.5 15q14 0 29 -13.5t15 -43.5q0 -20 -19.5 -45.5
t-47.5 -49t-56 -39t-45 -15.5z" />
    <glyph glyph-name="uni01F4" unicode="&#x1f4;" horiz-adv-x="734" 
d="M328 -14q-75 0 -134 26.5t-95.5 76.5t-44.5 119.5t18 154.5q19 61 59.5 115.5t99 96t132 65.5t157.5 24q35 0 62 -6.5t47 -13.5q19 -6 30 -9.5t23 -3.5q7 0 13 1t13 5q8 5 15.5 8t14.5 3q11 0 13 -7.5t-5 -16.5q-13 -17 -27.5 -46t-26.5 -60.5t-20 -57.5q-3 -10 -8 -16.5
t-16 -6.5q-22 0 -19 44q2 31 -1.5 56.5t-17.5 44.5q-14 20 -40.5 33t-55.5 13q-41 0 -82 -19t-79.5 -58t-72.5 -100t-60 -145q-18 -59 -15.5 -110.5t22 -90t54 -60.5t79.5 -22q36 0 62.5 24.5t36.5 55.5l34 112q3 11 1 20.5t-16 15.5q-13 6 -31.5 10.5t-30.5 7.5
q-8 2 -14.5 8t-3.5 15q2 7 10 11t16 4q22 0 52 -2.5t59 -5t49 -2.5q29 0 61 4.5t80 4.5q16 0 11 -15q-3 -10 -9 -14.5t-16 -6.5q-32 -7 -45.5 -18t-24.5 -31q-8 -15 -17.5 -37t-16 -41t-6.5 -26q0 -11 6 -20t16 -20q-9 -18 -43 -34t-80 -29t-92.5 -20.5t-79.5 -7.5zM473 681
q-12 0 -14 8q-1 7 9 23q23 37 46.5 70.5t51.5 67.5q12 15 34 15q8 0 27.5 -4.5t35.5 -12t15 -16.5q-1 -12 -18 -24q-38 -28 -80 -59.5t-81 -57.5q-9 -6 -16 -8t-10 -2z" />
    <glyph glyph-name="uni01F6" unicode="&#x1f6;" horiz-adv-x="981" 
d="M659 -14q-42 0 -77.5 11.5t-59.5 34.5t-31.5 58.5t7.5 83.5l35 115q3 8 1.5 12.5t-9.5 4.5h-216q-17 0 -22 -17l-58 -191q-8 -28 1.5 -39t44.5 -25q8 -3 11.5 -7t0.5 -14q-2 -7 -7.5 -11t-13.5 -4q-21 0 -49.5 1t-56 2t-47.5 1t-47 -1t-53.5 -2.5t-45.5 -1.5
q-6 0 -10.5 4t-2.5 11q6 17 26 22q36 8 52.5 20t26.5 43l141 454q10 32 1.5 45t-41.5 22q-8 2 -11.5 7.5t-0.5 14.5q2 7 9.5 11t13.5 4q22 0 47.5 -1t50 -2.5t44.5 -1.5t48.5 1t58 2t50.5 1q16 0 11 -15q-3 -10 -9 -14t-17 -7q-30 -8 -46.5 -16t-25 -20t-14.5 -32l-55 -181
q-4 -15 11 -15h216q15 0 19 15l55 181q9 30 1 41.5t-45 26.5q-7 3 -11 7t-1 14q2 8 8 11.5t13 3.5q21 0 49.5 -1t56.5 -2t47 -1q20 0 45.5 1.5t52 2.5t48.5 1q6 0 10.5 -4t2.5 -11q-6 -17 -26 -22q-37 -9 -53.5 -22t-26.5 -45l-124 -400q-11 -36 -4 -59.5t23 -34.5t31 -11
q34 0 61 16.5t46 44t29 62.5t10 71q0 37 -10.5 72.5t-35.5 63.5q-6 6 -3 15q3 11 17.5 27t33 31t36 25t26.5 10q31 0 56 -27.5t23 -80.5q0 -54 -14 -109.5t-42 -106t-69.5 -89.5t-95.5 -62t-121 -23z" />
    <glyph glyph-name="uni01F7" unicode="&#x1f7;" horiz-adv-x="632" 
d="M-93 -181q-6 0 -10.5 4t-2.5 11q6 17 26 22q41 8 58 20t27 43l196 632q10 32 1 45t-46 22q-17 4 -13 22q2 7 9.5 11t13.5 4q22 0 49 -1t53 -2.5t46 -1.5q11 0 23.5 0.5t25.5 1.5t26 1q14 0 15 -4t-2 -12q-3 -10 -7.5 -20t-8.5 -20.5t-8 -22.5l-4 -13q-1 -4 0 -7.5t5 0.5
q47 48 99.5 79t113.5 31q68 0 97 -36t29 -89q0 -58 -29.5 -116t-85.5 -114t-136.5 -108t-182.5 -98q-30 -13 -48.5 -32t-27.5 -48l-32 -103q-8 -28 0.5 -40.5t44.5 -23.5q8 -3 11.5 -7t0.5 -14q-4 -15 -20 -15q-21 0 -49.5 1t-56.5 2t-48 1q-30 0 -74.5 -2.5t-77.5 -2.5z
M266 142q47 26 95 63.5t88 83.5t65 99.5t25 111.5q0 26 -13 44t-43 18q-24 0 -48 -14t-45 -35.5t-36 -45t-21 -42.5l-82 -263q-5 -19 -1 -23t16 3z" />
    <glyph glyph-name="uni01F8" unicode="&#x1f8;" horiz-adv-x="783" 
d="M3 -3q-6 0 -13 4t-5 11q3 9 12 13.5t19 7.5q30 8 50.5 28t33.5 54l151 395q14 37 8.5 60t-28.5 35t-63 15q-13 2 -20 7t-7 15q0 6 11 11t22 5q21 0 55.5 -1t73 -2.5t69.5 -1.5q14 0 22.5 -5.5t13.5 -16.5l191 -432q2 -4 4.5 -8t5.5 -4q7 0 12 14q3 7 7.5 21.5t11 35.5
t14 47.5t15.5 56.5t15.5 62.5t13.5 65.5q14 68 -4.5 94.5t-73.5 36.5q-17 3 -16 15q1 7 10 11t16 4q41 0 71 -3t44 -3q20 0 38.5 2t39.5 3.5t46 1.5q19 0 19 -15q0 -7 -11.5 -11.5t-22.5 -6.5q-24 -5 -41 -14.5t-30.5 -32.5t-27.5 -67q-6 -20 -13.5 -44.5t-16 -52.5
t-17.5 -58.5t-19 -62.5t-19.5 -64.5t-19.5 -64.5q-10 -31 -8.5 -48.5t14.5 -40.5q5 -7 10.5 -17.5t12.5 -17.5q8 -7 13.5 -10t5.5 -8q0 -10 -5.5 -13t-16.5 -3q-29 0 -48 -2t-34.5 -3.5t-35.5 -2.5q-31 -1 -46 14t-27 46q-6 16 -22 54.5t-36.5 88t-42 101t-39.5 95t-29 70
t-11 25.5q-1 2 -3.5 6t-4.5 4q-4 0 -7.5 -7t-5.5 -12q-13 -32 -31 -79.5t-36 -100t-32.5 -101t-22.5 -83.5q-8 -38 4 -53t54 -26q8 -2 15.5 -6.5t4.5 -14.5q-2 -7 -11.5 -11t-17.5 -4q-27 0 -42.5 1t-26.5 1.5t-27 0.5q-23 0 -49 -1t-44.5 -2zM580 693q-3 0 -10.5 0.5
t-17.5 4.5q-43 20 -90 43t-89 44q-18 9 -21 21q-2 8 12.5 17.5t32.5 17.5t25 10q21 6 36 -8q33 -30 60 -61t60 -58q14 -11 14 -21t-12 -10z" />
    <glyph glyph-name="uni0200" unicode="&#x200;" horiz-adv-x="766" 
d="M589 681q-3 0 -10 2t-16 8q-39 26 -81 57.5t-80 59.5q-17 12 -18 24q-1 9 15.5 16.5t35.5 12t27 4.5q22 0 34 -15q28 -34 51.5 -67.5t46.5 -70.5q10 -16 9 -23q-2 -8 -14 -8zM764 681q-3 0 -10 2t-16 8q-39 26 -81 57.5t-80 59.5q-17 12 -18 24q-1 9 15.5 16.5t35.5 12
t27 4.5q22 0 34 -15q28 -34 51.5 -67.5t46.5 -70.5q10 -16 9 -23q-2 -8 -14 -8zM-45 -5q-11 0 -17.5 3.5t-4.5 13.5t9.5 15t17.5 7q18 4 43 12t49.5 21t40.5 31q64 73 127.5 145t127.5 144.5t128 144.5q19 21 31.5 42.5t21 36t14.5 14.5q26 0 52 4.5t45 14.5q17 9 32 18.5
t25 9.5q11 0 12.5 -20.5t-3.5 -45.5l-98 -494q-6 -31 9.5 -49t53.5 -29q11 -3 18.5 -6.5t7.5 -14.5q0 -7 -11.5 -11t-19.5 -4q-21 0 -49.5 1t-57.5 2t-52 1q-20 0 -49 -1t-59 -2.5t-52 -1.5q-20 0 -18 15q1 9 9 14.5t18 7.5q23 5 39 12.5t26.5 19.5t14.5 31l30 122
q2 8 -1.5 12.5t-11.5 4.5h-161q-8 0 -14.5 -5.5t-11.5 -11.5l-62 -79q-25 -32 -30.5 -53t7.5 -33.5t41 -19.5q9 -2 17.5 -7.5t7.5 -14.5q-1 -7 -11 -10.5t-21 -3.5q-33 0 -63.5 1.5t-60.5 1.5q-29 0 -66.5 -3t-69.5 -3zM342 284h123q8 0 12 2t5 9l47 219q2 6 2.5 11t-3.5 5
q-1 0 -5 -2t-7 -5l-184 -221q-9 -10 -7.5 -14t17.5 -4z" />
    <glyph glyph-name="uni0202" unicode="&#x202;" horiz-adv-x="766" 
d="M686 846q44 0 72.5 -19t42.5 -45.5t14 -49.5q0 -17 -6.5 -29t-19.5 -12q-9 0 -13 6t-10 16q-16 26 -35 36t-54 10t-60.5 -8.5t-54.5 -37.5q-11 -11 -19.5 -16.5t-17.5 -5.5q-13 0 -13 20q0 16 10 38.5t31 44.5t54 37t79 15zM-45 -5q-11 0 -17.5 3.5t-4.5 13.5t9.5 15
t17.5 7q18 4 43 12t49.5 21t40.5 31q64 73 127.5 145t127.5 144.5t128 144.5q19 21 31.5 42.5t21 36t14.5 14.5q26 0 52 4.5t45 14.5q17 9 32 18.5t25 9.5q11 0 12.5 -20.5t-3.5 -45.5l-98 -494q-6 -31 9.5 -49t53.5 -29q11 -3 18.5 -6.5t7.5 -14.5q0 -7 -11.5 -11t-19.5 -4
q-21 0 -49.5 1t-57.5 2t-52 1q-20 0 -49 -1t-59 -2.5t-52 -1.5q-20 0 -18 15q1 9 9 14.5t18 7.5q23 5 39 12.5t26.5 19.5t14.5 31l30 122q2 8 -1.5 12.5t-11.5 4.5h-161q-8 0 -14.5 -5.5t-11.5 -11.5l-62 -79q-25 -32 -30.5 -53t7.5 -33.5t41 -19.5q9 -2 17.5 -7.5
t7.5 -14.5q-1 -7 -11 -10.5t-21 -3.5q-33 0 -63.5 1.5t-60.5 1.5q-29 0 -66.5 -3t-69.5 -3zM342 284h123q8 0 12 2t5 9l47 219q2 6 2.5 11t-3.5 5q-1 0 -5 -2t-7 -5l-184 -221q-9 -10 -7.5 -14t17.5 -4z" />
    <glyph glyph-name="uni0204" unicode="&#x204;" horiz-adv-x="572" 
d="M334 681q-3 0 -10 2t-16 8q-39 26 -81 57.5t-80 59.5q-17 12 -18 24q-1 9 15.5 16.5t35.5 12t27 4.5q22 0 34 -15q28 -34 51.5 -67.5t46.5 -70.5q10 -16 9 -23q-2 -8 -14 -8zM509 681q-3 0 -10 2t-16 8q-39 26 -81 57.5t-80 59.5q-17 12 -18 24q-1 9 15.5 16.5t35.5 12
t27 4.5q22 0 34 -15q28 -34 51.5 -67.5t46.5 -70.5q10 -16 9 -23q-2 -8 -14 -8zM-45 -5q-9 0 -12 5t-2 11q4 15 26 21q36 11 53 21.5t27 41.5l141 456q10 32 1.5 45.5t-40.5 21.5q-11 3 -15 9t-2 12q2 7 12 11.5t32 4.5q14 0 36 -1.5t46 -3t44 -1.5l166 1q43 0 70 3.5
t42.5 6.5t21.5 3q8 0 14 -5.5t6 -16.5q0 -13 -6.5 -36.5t-13 -49t-6.5 -46.5q0 -10 -5.5 -15t-10.5 -5q-4 0 -9 4t-7 13q-7 58 -21 83t-52 25h-68q-25 0 -42 -16.5t-31 -65.5l-44 -153q-4 -13 1 -18.5t17 -5.5h84q26 0 45 17t35 45q5 9 13 13.5t14 4.5q5 0 7.5 -6t-2.5 -17
q-9 -22 -17 -42.5t-14 -40.5t-11 -40t-10 -43q-4 -15 -9 -21.5t-10 -6.5q-7 0 -12.5 7t-4.5 17q2 32 -4.5 50.5t-25.5 18.5h-97q-11 0 -18.5 -6t-10.5 -17l-50 -173q-11 -37 1.5 -57t52.5 -20h72q20 0 41 7t39 19q22 14 41 42.5t38 56.5q5 8 8.5 10t9.5 2t8.5 -5t2.5 -18
q0 -11 -8.5 -37.5t-21.5 -56.5t-28 -50q-5 -7 -12.5 -9.5t-15.5 -2.5q-4 0 -30 0.5t-65.5 1t-85.5 1t-91.5 1t-81.5 0.5q-20 0 -46.5 -1t-52.5 -2.5t-46 -1.5z" />
    <glyph glyph-name="uni0206" unicode="&#x206;" horiz-adv-x="572" 
d="M431 846q44 0 72.5 -19t42.5 -45.5t14 -49.5q0 -17 -6.5 -29t-19.5 -12q-9 0 -13 6t-10 16q-16 26 -35 36t-54 10t-60.5 -8.5t-54.5 -37.5q-11 -11 -19.5 -16.5t-17.5 -5.5q-13 0 -13 20q0 16 10 38.5t31 44.5t54 37t79 15zM-45 -5q-9 0 -12 5t-2 11q4 15 26 21
q36 11 53 21.5t27 41.5l141 456q10 32 1.5 45.5t-40.5 21.5q-11 3 -15 9t-2 12q2 7 12 11.5t32 4.5q14 0 36 -1.5t46 -3t44 -1.5l166 1q43 0 70 3.5t42.5 6.5t21.5 3q8 0 14 -5.5t6 -16.5q0 -13 -6.5 -36.5t-13 -49t-6.5 -46.5q0 -10 -5.5 -15t-10.5 -5q-4 0 -9 4t-7 13
q-7 58 -21 83t-52 25h-68q-25 0 -42 -16.5t-31 -65.5l-44 -153q-4 -13 1 -18.5t17 -5.5h84q26 0 45 17t35 45q5 9 13 13.5t14 4.5q5 0 7.5 -6t-2.5 -17q-9 -22 -17 -42.5t-14 -40.5t-11 -40t-10 -43q-4 -15 -9 -21.5t-10 -6.5q-7 0 -12.5 7t-4.5 17q2 32 -4.5 50.5
t-25.5 18.5h-97q-11 0 -18.5 -6t-10.5 -17l-50 -173q-11 -37 1.5 -57t52.5 -20h72q20 0 41 7t39 19q22 14 41 42.5t38 56.5q5 8 8.5 10t9.5 2t8.5 -5t2.5 -18q0 -11 -8.5 -37.5t-21.5 -56.5t-28 -50q-5 -7 -12.5 -9.5t-15.5 -2.5q-4 0 -30 0.5t-65.5 1t-85.5 1t-91.5 1
t-81.5 0.5q-20 0 -46.5 -1t-52.5 -2.5t-46 -1.5z" />
    <glyph glyph-name="uni0208" unicode="&#x208;" horiz-adv-x="381" 
d="M262 681q-3 0 -10 2t-16 8q-39 26 -81 57.5t-80 59.5q-17 12 -18 24q-1 9 15.5 16.5t35.5 12t27 4.5q22 0 34 -15q28 -34 51.5 -67.5t46.5 -70.5q10 -16 9 -23q-2 -8 -14 -8zM437 681q-3 0 -10 2t-16 8q-39 26 -81 57.5t-80 59.5q-17 12 -18 24q-1 9 15.5 16.5t35.5 12
t27 4.5q22 0 34 -15q28 -34 51.5 -67.5t46.5 -70.5q10 -16 9 -23q-2 -8 -14 -8zM-33 -3q-6 0 -10.5 4t-2.5 11q6 17 26 22q41 9 58 20.5t27 42.5l141 454q10 32 1 44.5t-47 22.5q-8 2 -11.5 7.5t-0.5 14.5q2 7 9.5 11t13.5 4q22 0 49 -1t53 -2.5t46 -1.5t48.5 1t58 2t50.5 1
q16 0 11 -15q-3 -10 -9 -14t-17 -7q-30 -8 -46.5 -16t-25 -20t-14.5 -32l-126 -408q-12 -40 -15 -60t6.5 -28.5t31.5 -14.5q23 -6 29.5 -11t3.5 -15q-2 -7 -7.5 -11t-13.5 -4q-21 0 -52.5 1t-62 2t-50.5 1q-30 0 -74.5 -2.5t-77.5 -2.5z" />
    <glyph glyph-name="uni020A" unicode="&#x20a;" horiz-adv-x="381" 
d="M359 846q44 0 72.5 -19t42.5 -45.5t14 -49.5q0 -17 -6.5 -29t-19.5 -12q-9 0 -13 6t-10 16q-16 26 -35 36t-54 10t-60.5 -8.5t-54.5 -37.5q-11 -11 -19.5 -16.5t-17.5 -5.5q-13 0 -13 20q0 16 10 38.5t31 44.5t54 37t79 15zM-33 -3q-6 0 -10.5 4t-2.5 11q6 17 26 22
q41 9 58 20.5t27 42.5l141 454q10 32 1 44.5t-47 22.5q-8 2 -11.5 7.5t-0.5 14.5q2 7 9.5 11t13.5 4q22 0 49 -1t53 -2.5t46 -1.5t48.5 1t58 2t50.5 1q16 0 11 -15q-3 -10 -9 -14t-17 -7q-30 -8 -46.5 -16t-25 -20t-14.5 -32l-126 -408q-12 -40 -15 -60t6.5 -28.5
t31.5 -14.5q23 -6 29.5 -11t3.5 -15q-2 -7 -7.5 -11t-13.5 -4q-21 0 -52.5 1t-62 2t-50.5 1q-30 0 -74.5 -2.5t-77.5 -2.5z" />
    <glyph glyph-name="uni020C" unicode="&#x20c;" horiz-adv-x="692" 
d="M436 681q-3 0 -10 2t-16 8q-39 26 -81 57.5t-80 59.5q-17 12 -18 24q-1 9 15.5 16.5t35.5 12t27 4.5q22 0 34 -15q28 -34 51.5 -67.5t46.5 -70.5q10 -16 9 -23q-2 -8 -14 -8zM611 681q-3 0 -10 2t-16 8q-39 26 -81 57.5t-80 59.5q-17 12 -18 24q-1 9 15.5 16.5t35.5 12
t27 4.5q22 0 34 -15q28 -34 51.5 -67.5t46.5 -70.5q10 -16 9 -23q-2 -8 -14 -8zM292 -14q-67 0 -121 32t-86 90t-32 134q0 83 32.5 159t90 135t133 93.5t161.5 34.5q67 0 121.5 -32t86.5 -89.5t32 -134.5q0 -82 -33 -158t-90.5 -135.5t-133 -94t-161.5 -34.5zM291 25
q41 0 80 30.5t73 81t60 110.5t40.5 119t14.5 107q0 42 -9.5 77.5t-29.5 57t-51 21.5q-41 0 -80 -31t-72.5 -82t-59 -111.5t-40 -120.5t-14.5 -108q0 -41 9 -75.5t28.5 -55t50.5 -20.5z" />
    <glyph glyph-name="uni020E" unicode="&#x20e;" horiz-adv-x="692" 
d="M533 846q44 0 72.5 -19t42.5 -45.5t14 -49.5q0 -17 -6.5 -29t-19.5 -12q-9 0 -13 6t-10 16q-16 26 -35 36t-54 10t-60.5 -8.5t-54.5 -37.5q-11 -11 -19.5 -16.5t-17.5 -5.5q-13 0 -13 20q0 16 10 38.5t31 44.5t54 37t79 15zM292 -14q-67 0 -121 32t-86 90t-32 134
q0 83 32.5 159t90 135t133 93.5t161.5 34.5q67 0 121.5 -32t86.5 -89.5t32 -134.5q0 -82 -33 -158t-90.5 -135.5t-133 -94t-161.5 -34.5zM291 25q41 0 80 30.5t73 81t60 110.5t40.5 119t14.5 107q0 42 -9.5 77.5t-29.5 57t-51 21.5q-41 0 -80 -31t-72.5 -82t-59 -111.5
t-40 -120.5t-14.5 -108q0 -41 9 -75.5t28.5 -55t50.5 -20.5z" />
    <glyph glyph-name="uni0210" unicode="&#x210;" horiz-adv-x="773" 
d="M399 681q-3 0 -10 2t-16 8q-39 26 -81 57.5t-80 59.5q-17 12 -18 24q-1 9 15.5 16.5t35.5 12t27 4.5q22 0 34 -15q28 -34 51.5 -67.5t46.5 -70.5q10 -16 9 -23q-2 -8 -14 -8zM574 681q-3 0 -10 2t-16 8q-39 26 -81 57.5t-80 59.5q-17 12 -18 24q-1 9 15.5 16.5t35.5 12
t27 4.5q22 0 34 -15q28 -34 51.5 -67.5t46.5 -70.5q10 -16 9 -23q-2 -8 -14 -8zM-23 -3q-6 0 -11 4t-3 11q6 17 26 22q41 8 58.5 20t27.5 43l143 458q7 22 4.5 33.5t-13.5 18t-33 11.5q-11 3 -19.5 8t-8.5 13t14.5 12t23.5 4q33 0 54.5 -2t41 -4t45.5 -2q24 0 43 2.5t43 5
t61 2.5q69 0 111.5 -20t62.5 -54t20 -75q0 -45 -25 -81.5t-65 -61t-86 -34.5q-8 -3 -4 -12q13 -32 24.5 -57t22.5 -46.5t21.5 -41.5t21.5 -43q16 -33 42.5 -56.5t61.5 -23.5q13 0 24.5 -5t11.5 -18q0 -18 -31 -23t-116 -5q-56 0 -89.5 13.5t-50.5 36.5t-26 50
q-10 31 -17.5 55.5t-15 51t-16.5 61.5q-4 14 -12 23t-22 9q-8 0 -13 -5.5t-8 -14.5l-56 -182q-10 -31 4 -43t54 -21q8 -2 12 -6.5t1 -14.5q-3 -7 -8 -11t-13 -4q-21 0 -53 1t-63 2t-51 1q-30 0 -74 -2.5t-77 -2.5zM353 328q37 0 66 14t49.5 40t31 62t10.5 80q0 41 -20 69.5
t-49 28.5q-12 0 -20.5 -4.5t-17 -23.5t-22.5 -62l-52 -166q-6 -20 1 -29t23 -9z" />
    <glyph glyph-name="uni0212" unicode="&#x212;" horiz-adv-x="773" 
d="M496 846q44 0 72.5 -19t42.5 -45.5t14 -49.5q0 -17 -6.5 -29t-19.5 -12q-9 0 -13 6t-10 16q-16 26 -35 36t-54 10t-60.5 -8.5t-54.5 -37.5q-11 -11 -19.5 -16.5t-17.5 -5.5q-13 0 -13 20q0 16 10 38.5t31 44.5t54 37t79 15zM-23 -3q-6 0 -11 4t-3 11q6 17 26 22
q41 8 58.5 20t27.5 43l143 458q7 22 4.5 33.5t-13.5 18t-33 11.5q-11 3 -19.5 8t-8.5 13t14.5 12t23.5 4q33 0 54.5 -2t41 -4t45.5 -2q24 0 43 2.5t43 5t61 2.5q69 0 111.5 -20t62.5 -54t20 -75q0 -45 -25 -81.5t-65 -61t-86 -34.5q-8 -3 -4 -12q13 -32 24.5 -57t22.5 -46.5
t21.5 -41.5t21.5 -43q16 -33 42.5 -56.5t61.5 -23.5q13 0 24.5 -5t11.5 -18q0 -18 -31 -23t-116 -5q-56 0 -89.5 13.5t-50.5 36.5t-26 50q-10 31 -17.5 55.5t-15 51t-16.5 61.5q-4 14 -12 23t-22 9q-8 0 -13 -5.5t-8 -14.5l-56 -182q-10 -31 4 -43t54 -21q8 -2 12 -6.5
t1 -14.5q-3 -7 -8 -11t-13 -4q-21 0 -53 1t-63 2t-51 1q-30 0 -74 -2.5t-77 -2.5zM353 328q37 0 66 14t49.5 40t31 62t10.5 80q0 41 -20 69.5t-49 28.5q-12 0 -20.5 -4.5t-17 -23.5t-22.5 -62l-52 -166q-6 -20 1 -29t23 -9z" />
    <glyph glyph-name="uni0214" unicode="&#x214;" horiz-adv-x="715" 
d="M478 681q-3 0 -10 2t-16 8q-39 26 -81 57.5t-80 59.5q-17 12 -18 24q-1 9 15.5 16.5t35.5 12t27 4.5q22 0 34 -15q28 -34 51.5 -67.5t46.5 -70.5q10 -16 9 -23q-2 -8 -14 -8zM653 681q-3 0 -10 2t-16 8q-39 26 -81 57.5t-80 59.5q-17 12 -18 24q-1 9 15.5 16.5t35.5 12
t27 4.5q22 0 34 -15q28 -34 51.5 -67.5t46.5 -70.5q10 -16 9 -23q-2 -8 -14 -8zM318 -14q-68 0 -117 20t-77.5 56.5t-34.5 86t12 107.5l87 280q8 26 3 50.5t-30 31.5q-24 7 -20 22q2 7 11 11t20 4q33 0 69 -2.5t66 -2.5q29 0 73 2t75 2q27 0 22 -15q-4 -12 -22.5 -17.5
t-36.5 -13.5q-18 -7 -34 -25.5t-27 -52.5l-95 -293q-16 -49 -4.5 -87.5t41.5 -60t69 -21.5q51 0 94.5 26.5t76 70t49.5 95.5q16 45 27.5 82t19.5 63.5t11 39.5q14 59 15 92.5t-7 50.5t-22 26q-10 6 -24.5 10.5t-11.5 14.5q2 8 11 11.5t23 3.5q26 0 41.5 -1t28.5 -1.5
t31 -0.5q19 0 31 1t24.5 2t33.5 1q11 0 17 -3t3 -12q-4 -14 -33 -22q-25 -6 -41 -16.5t-26 -26.5t-19 -41q-25 -73 -45 -139.5t-43 -137.5q-25 -81 -66 -142t-102 -95t-147 -34z" />
    <glyph glyph-name="uni0216" unicode="&#x216;" horiz-adv-x="715" 
d="M575 846q44 0 72.5 -19t42.5 -45.5t14 -49.5q0 -17 -6.5 -29t-19.5 -12q-9 0 -13 6t-10 16q-16 26 -35 36t-54 10t-60.5 -8.5t-54.5 -37.5q-11 -11 -19.5 -16.5t-17.5 -5.5q-13 0 -13 20q0 16 10 38.5t31 44.5t54 37t79 15zM318 -14q-68 0 -117 20t-77.5 56.5t-34.5 86
t12 107.5l87 280q8 26 3 50.5t-30 31.5q-24 7 -20 22q2 7 11 11t20 4q33 0 69 -2.5t66 -2.5q29 0 73 2t75 2q27 0 22 -15q-4 -12 -22.5 -17.5t-36.5 -13.5q-18 -7 -34 -25.5t-27 -52.5l-95 -293q-16 -49 -4.5 -87.5t41.5 -60t69 -21.5q51 0 94.5 26.5t76 70t49.5 95.5
q16 45 27.5 82t19.5 63.5t11 39.5q14 59 15 92.5t-7 50.5t-22 26q-10 6 -24.5 10.5t-11.5 14.5q2 8 11 11.5t23 3.5q26 0 41.5 -1t28.5 -1.5t31 -0.5q19 0 31 1t24.5 2t33.5 1q11 0 17 -3t3 -12q-4 -14 -33 -22q-25 -6 -41 -16.5t-26 -26.5t-19 -41q-25 -73 -45 -139.5
t-43 -137.5q-25 -81 -66 -142t-102 -95t-147 -34z" />
    <glyph glyph-name="uni0218" unicode="&#x218;" horiz-adv-x="539" 
d="M227 -14q-38 0 -71 4.5t-61 16.5q-14 6 -24 9.5t-13 3.5q-7 0 -14 -2.5t-12 -5.5q-7 -4 -13.5 -8t-11.5 -4q-6 0 -15 8.5t-9 15.5q0 8 11.5 33t24.5 60.5t18 73.5q6 35 28 35q14 0 17.5 -16.5t3.5 -51.5q0 -31 13 -61t40.5 -49t69.5 -19q59 0 90.5 31t31.5 74
q0 22 -8 40.5t-30 42.5t-65 62q-49 44 -72.5 84.5t-23.5 101.5q0 56 31.5 101t86.5 71.5t126 26.5q38 0 69 -6.5t53 -13.5q20 -6 32 -9.5t25 -3.5q15 0 26 6q8 5 15.5 8t14.5 3q11 0 13 -7.5t-5 -16.5q-13 -17 -27.5 -46t-26.5 -60.5t-20 -57.5q-3 -10 -8 -16.5t-16 -6.5
q-10 0 -14.5 10.5t-4.5 33.5q0 65 -32.5 104t-85.5 39q-36 0 -59 -15t-34 -38t-11 -47q0 -23 7.5 -41.5t28.5 -40t62 -55.5q62 -51 83 -94t21 -94t-30.5 -100t-87.5 -81t-137 -32zM52 -294q-24 0 -24 14q0 7 5.5 12.5t18.5 9.5q29 8 49.5 19.5t31.5 26t11 30.5q0 13 -9 20.5
t-20 12.5q-14 7 -20.5 17t-6.5 23q0 27 21 43.5t56 16.5q38 0 56.5 -22t18.5 -57q0 -26 -16 -55t-42.5 -54t-60 -41t-69.5 -16z" />
    <glyph glyph-name="uni021A" unicode="&#x21a;" horiz-adv-x="688" 
d="M127 -3q-6 0 -12 4t-4 11q3 9 11 14.5t18 7.5q41 9 60.5 20.5t29.5 42.5l133 425q18 59 17.5 75t-18.5 16h-39q-33 0 -67.5 -19t-60.5 -45q-7 -7 -20.5 -20t-28 -23t-25.5 -10q-9 0 -10 5.5t0 12.5q2 6 6 13.5t9 13.5q33 38 49 67t30 66q5 14 12.5 20t17.5 6
q11 0 23.5 -9.5t22.5 -16.5q10 -6 19.5 -11.5t27.5 -9t52 -3.5l259 1q44 0 68.5 3t36 7t16.5 6q22 8 36.5 20t27.5 12q14 0 8 -16q-1 -4 -3 -9t-5 -10q-21 -35 -36 -67t-27 -68q-6 -18 -12 -27.5t-16 -9.5t-13.5 9t-4.5 30q-1 40 -17 61t-59 21h-39q-16 0 -27 -7
t-19.5 -26.5t-20.5 -55.5l-133 -426q-9 -28 3 -40.5t48 -23.5q8 -3 13 -7t2 -14q-2 -7 -8.5 -11t-14.5 -4q-21 0 -51 1t-59 2t-49 1t-48.5 -1t-57.5 -2.5t-51 -1.5zM147 -294q-24 0 -24 14q0 7 5.5 12.5t18.5 9.5q29 8 49.5 19.5t31.5 26t11 30.5q0 13 -9 20.5t-20 12.5
q-14 7 -20.5 17t-6.5 23q0 27 21 43.5t56 16.5q38 0 56.5 -22t18.5 -57q0 -26 -16 -55t-42.5 -54t-60 -41t-69.5 -16z" />
    <glyph glyph-name="uni021E" unicode="&#x21e;" horiz-adv-x="786" 
d="M-33 -3q-6 0 -10.5 4t-2.5 11q3 9 9.5 14.5t16.5 7.5q36 8 52.5 20t26.5 43l141 454q10 32 1.5 45t-41.5 22q-8 2 -11.5 7.5t-0.5 14.5q2 7 9.5 11t13.5 4q22 0 47.5 -1t50 -2.5t44.5 -1.5t48.5 1t58 2t50.5 1q16 0 11 -15q-3 -10 -9 -14t-17 -7q-30 -8 -46.5 -16
t-25 -20t-14.5 -32l-55 -181q-4 -15 11 -15h227q15 0 19 15l55 181q9 30 1 41.5t-45 26.5q-7 3 -11 7t-1 14q2 8 8 11.5t13 3.5q21 0 49.5 -1t56.5 -2t47 -1q20 0 45.5 1.5t52 2.5t48.5 1q6 0 10.5 -4t2.5 -11q-6 -17 -26 -22q-37 -9 -53.5 -22t-26.5 -45l-141 -454
q-10 -31 0 -43t41 -20q8 -2 11.5 -7.5t0.5 -14.5q-2 -7 -9.5 -11t-13.5 -4q-19 0 -44.5 1.5t-51.5 2.5t-46 1q-19 0 -48 -1t-58.5 -2t-50.5 -1q-15 0 -11 15q3 10 9.5 14t16.5 7q42 12 59 24t25 40l58 191q3 8 1.5 12.5t-9.5 4.5h-227q-17 0 -22 -17l-58 -191
q-8 -28 1.5 -39t44.5 -25q8 -3 11.5 -7t0.5 -14q-2 -7 -7.5 -11t-13.5 -4q-21 0 -49.5 1t-56 2t-47.5 1t-47 -1t-53.5 -2.5t-45.5 -1.5zM544 698q-14 0 -22 7t-21 23l-76 96q-6 8 -4 16q3 13 24 13q8 0 28.5 -8.5t42.5 -20.5t35 -21q5 -4 10.5 -4t13.5 4q15 7 40 15.5
t51.5 16.5t47 13.5t27.5 5.5q16 0 16 -13q0 -11 -12 -20l-139 -93q-23 -16 -35 -23t-27 -7z" />
    <glyph glyph-name="uni0220" unicode="&#x220;" horiz-adv-x="802" 
d="M317 -286q-6 0 -10.5 4t-2.5 11q4 17 25 22q41 10 58.5 21t27.5 42l187 606q23 74 2.5 108t-76.5 34q-32 0 -62.5 -12.5t-65.5 -35.5q-23 -15 -40.5 -43t-33.5 -80l-91 -293q-6 -18 -4 -29.5t14 -19t35 -15.5q8 -3 12 -7t1 -14q-3 -7 -8 -11t-13 -4q-21 0 -49.5 1
t-56.5 2t-48 1q-30 0 -74 -2.5t-77 -2.5q-6 0 -11 4t-3 11q6 17 26 22q41 8 58.5 20t27.5 43l140 454q10 32 1 45t-46 22q-18 5 -12 22q2 7 9 11t13 4q22 0 53 -1t62 -2.5t54 -1.5q17 0 33.5 3t26.5 3q11 0 6 -14q-1 -4 -7 -12.5t-9 -19.5l-10 -34q-1 -6 -3 -14t-1 -16
q49 38 89.5 64t81 40t89.5 14q38 0 70.5 -16.5t53.5 -49.5t24.5 -82t-17.5 -115l-181 -586q-8 -28 1 -40.5t44 -23.5q8 -3 12 -7t1 -14q-2 -7 -7.5 -11t-13.5 -4q-21 0 -49.5 1t-56 2t-47.5 1t-47 -1t-55 -2.5t-50 -1.5z" />
    <glyph glyph-name="uni0222" unicode="&#x222;" horiz-adv-x="636" 
d="M293 -13q-60 0 -110.5 9.5t-88.5 29t-59 48t-21 67.5q0 67 70 114t195 87q-64 35 -96 77t-32 82q0 43 25 80t78 60t138 23q8 0 10 -7t2 -16q0 -3 -14 -10t-32.5 -19t-32.5 -31t-14 -45q0 -34 16.5 -57.5t43 -41.5t57.5 -38q33 23 55.5 44.5t35 41.5t18 38.5t5.5 36.5
q0 29 -10 45t-20.5 24.5t-10.5 15.5q0 10 12 20.5t25 10.5q74 0 106 -25.5t32 -57.5q0 -61 -52 -116.5t-159 -104.5q45 -23 74 -47t43.5 -51.5t14.5 -62.5q0 -49 -23 -90t-64.5 -71t-96.5 -46.5t-120 -16.5zM297 36q24 1 51 14.5t46 42.5t19 74q0 38 -18.5 73t-74.5 70
q-52 -24 -84 -53t-46 -58.5t-14 -57.5q0 -51 36.5 -78.5t84.5 -26.5z" />
    <glyph glyph-name="uni0224" unicode="&#x224;" horiz-adv-x="622" 
d="M188 -276q-76 0 -118.5 18.5t-42.5 46.5q0 40 26 59.5t53 19.5q17 0 32.5 -12t31.5 -28q19 -19 42 -36t56 -17q57 0 95.5 24t57.5 59t18 67q-1 35 -16 55t-50 20h-43t-38.5 0.5t-36.5 0.5h-38q-60 0 -104 -1t-78 -3t-65 -4q-10 -1 -9.5 13.5t4.5 18.5q14 17 27.5 33
t27 32.5t27.5 31.5q50 56 100.5 115t101.5 119t102.5 120t103.5 118q6 7 6.5 14t-13.5 7q-9 0 -25 -0.5t-33.5 -1.5t-33 -2t-23.5 -2q-41 -6 -78 -24.5t-72 -61.5q-10 -13 -20 -24t-26 -11q-9 0 -10 5.5t0 12.5q2 6 4 13t6 14q18 32 28 57.5t20 50.5q7 16 13.5 22.5
t18.5 6.5q32 0 72 -10t90 -10h51.5h51.5q28 0 67 1.5t76 2.5t59 1q8 0 11 -10.5t-1 -14.5l-100 -114q-44 -50 -92.5 -106.5t-98 -115t-98.5 -116t-95 -109.5q-23 -26 6 -26q11 0 33 0.5t55 1.5q12 1 25.5 1t28.5 0.5t31 0.5q83 2 116.5 -25t33.5 -68q0 -38 -22.5 -78
t-67.5 -74.5t-110 -56t-151 -21.5z" />
    <glyph glyph-name="uni0226" unicode="&#x226;" horiz-adv-x="766" 
d="M-45 -5q-11 0 -17.5 3.5t-4.5 13.5t9.5 15t17.5 7q18 4 43 12t49.5 21t40.5 31q64 73 127.5 145t127.5 144.5t128 144.5q19 21 31.5 42.5t21 36t14.5 14.5q26 0 52 4.5t45 14.5q17 9 32 18.5t25 9.5q11 0 12.5 -20.5t-3.5 -45.5l-98 -494q-6 -31 9.5 -49t53.5 -29
q11 -3 18.5 -6.5t7.5 -14.5q0 -7 -11.5 -11t-19.5 -4q-21 0 -49.5 1t-57.5 2t-52 1q-20 0 -49 -1t-59 -2.5t-52 -1.5q-20 0 -18 15q1 9 9 14.5t18 7.5q23 5 39 12.5t26.5 19.5t14.5 31l30 122q2 8 -1.5 12.5t-11.5 4.5h-161q-8 0 -14.5 -5.5t-11.5 -11.5l-62 -79
q-25 -32 -30.5 -53t7.5 -33.5t41 -19.5q9 -2 17.5 -7.5t7.5 -14.5q-1 -7 -11 -10.5t-21 -3.5q-33 0 -63.5 1.5t-60.5 1.5q-29 0 -66.5 -3t-69.5 -3zM342 284h123q8 0 12 2t5 9l47 219q2 6 2.5 11t-3.5 5q-1 0 -5 -2t-7 -5l-184 -221q-9 -10 -7.5 -14t17.5 -4zM665 692
q-31 0 -52 19.5t-21 43.5q0 41 32.5 70t82.5 29q32 0 52 -21.5t20 -48.5q0 -24 -16 -45t-42 -34t-56 -13z" />
    </font>
</defs>
</svg>
