<?xml version="1.0" standalone="no"?>
<!DOCTYPE svg PUBLIC "-//W3C//DTD SVG 1.1//EN" "http://www.w3.org/Graphics/SVG/1.1/DTD/svg11.dtd" >
<svg xmlns="http://www.w3.org/2000/svg" xmlns:xlink="http://www.w3.org/1999/xlink" version="1.1">
<metadata>
Created by FontForge 20170924 at Thu Mar  7 09:14:10 2013
 By Glenn,,,
Copyright (c) 2009 by Nathanael Bonnell. All rights reserved.
</metadata>
<defs>
<font id="SolveigDisplay" horiz-adv-x="416" >
  <font-face 
    font-family="Solveig Display"
    font-weight="400"
    font-stretch="normal"
    units-per-em="1000"
    panose-1="2 0 5 3 0 0 0 2 0 3"
    ascent="716"
    descent="-284"
    x-height="385"
    cap-height="583"
    bbox="-158 -277 1099 832"
    underline-thickness="29"
    underline-position="-96"
    unicode-range="U+0020-FB02"
  />
<missing-glyph horiz-adv-x="524" 
d="M66 583c130 -4 282 -4 421 0c-17 -148 -13 -437 -6 -585h-1c-132 3 -269 3 -421 0v2c12 135 15 459 7 583zM437 30c8 140 11 368 6 519c-140 4 -198 4 -334 2c-12 -175 -12 -380 -5 -519c139 -4 197 -4 333 -2z" />
    <glyph glyph-name="fi" unicode="fi" horiz-adv-x="425" 
d="M39 383h31c1 25 1 101 2 146c4 92 89 169 134 173c16 1 40 -4 58 -11c-3 -9 -7 -14 -13 -21c-10 4 -24 6 -38 6c-21 0 -46 -30 -57 -55c-16 -33 -24 -85 -24 -238c44 -2 77 0 106 2c0 -12 -2 -29 -6 -33c-32 2 -54 2 -99 2c-1 -69 1 -264 13 -356c-24 4 -63 3 -85 0
c11 121 10 240 10 355c-7 0 -20 1 -34 0c0 11 0 17 2 30zM291 0c11 92 10 298 -1 379c29 1 52 6 79 12c-10 -64 -6 -317 7 -393c-26 8 -72 3 -85 2zM341 589c29 0 36 -19 36 -28c0 -17 -23 -36 -51 -36c-20 0 -35 8 -35 29c0 14 18 35 50 35z" />
    <glyph glyph-name="fl" unicode="fl" horiz-adv-x="430" 
d="M39 383h31c1 25 1 101 2 146c4 92 89 169 134 173c16 1 40 -4 58 -11c-3 -9 -7 -14 -13 -21c-10 4 -24 6 -38 6c-21 0 -46 -30 -57 -55c-16 -33 -24 -85 -24 -238c44 -2 77 0 106 2c0 -12 -2 -29 -6 -33c-32 2 -54 2 -99 2c-1 -69 1 -264 13 -356c-24 4 -63 3 -85 0
c11 121 10 240 10 355c-7 0 -20 1 -34 0c0 11 0 17 2 30zM296 -3c12 93 8 621 -6 686c23 3 55 14 84 26c-16 -176 -6 -646 8 -711c-34 4 -44 5 -86 -1z" />
    <glyph glyph-name=".notdef" horiz-adv-x="524" 
d="M66 583c130 -4 282 -4 421 0c-17 -148 -13 -437 -6 -585h-1c-132 3 -269 3 -421 0v2c12 135 15 459 7 583zM437 30c8 140 11 368 6 519c-140 4 -198 4 -334 2c-12 -175 -12 -380 -5 -519c139 -4 197 -4 333 -2z" />
    <glyph glyph-name="space" unicode=" " horiz-adv-x="221" 
 />
    <glyph glyph-name="exclam" unicode="!" horiz-adv-x="195" 
d="M110 147l-22 -3c-2 140 -16 386 -22 434c26 2 52 5 82 10c-12 -83 -35 -370 -38 -441zM101 63c27 0 41 -12 41 -31c0 -25 -30 -39 -56 -39c-20 0 -36 11 -36 29c0 21 25 41 51 41z" />
    <glyph glyph-name="quotedbl" unicode="&#x22;" horiz-adv-x="299" 
d="M95 350l-23 -2c-2 76 -15 203 -22 230c27 0 52 5 82 10c-11 -45 -35 -199 -37 -238zM225 350l-24 -2c-1 76 -15 203 -21 230c26 0 52 5 82 10c-11 -45 -35 -199 -37 -238z" />
    <glyph glyph-name="numbersign" unicode="#" 
d="M285 582c-1 -58 -2 -109 -2 -158c25 0 52 1 71 1c1 -11 -1 -23 -6 -33c-22 0 -43 1 -65 2c-1 -64 -1 -128 -1 -190c25 0 53 1 72 1c1 -11 -1 -24 -6 -34c-23 0 -44 1 -66 2c0 -54 0 -106 1 -171c-11 -4 -21 -8 -32 -5c0 65 0 122 1 176c-38 1 -77 1 -120 1
c0 -54 0 -107 1 -172c-11 -4 -21 -8 -32 -5c0 65 1 123 1 177h-67c-3 8 1 27 3 32c20 0 42 0 64 -1c0 64 1 125 1 190h-68c-3 8 1 26 3 32l65 -2v156c9 3 26 3 32 1c-1 -58 -2 -108 -2 -157c43 -1 81 -1 120 -1v157c8 3 26 3 32 1zM132 205c43 -1 80 -1 120 -1
c0 64 1 126 1 190c-37 1 -77 1 -120 1c-1 -64 -1 -128 -1 -190z" />
    <glyph glyph-name="dollar" unicode="$" horiz-adv-x="338" 
d="M154 -16c-1 36 -3 76 -4 87c-33 1 -88 3 -112 11c1 10 2 15 4 23c20 -4 93 -7 119 -1c40 9 73 42 74 71c1 43 -57 82 -99 109c-58 36 -92 65 -92 102c0 58 38 98 110 124c2 26 4 64 4 83c10 3 18 2 25 1c-1 -20 3 -63 3 -77c9 1 56 4 83 4c2 -7 3 -18 0 -25
c-87 0 -165 -25 -165 -87c0 -27 41 -58 87 -80c56 -29 109 -67 109 -121c0 -45 -40 -106 -116 -131c-3 -12 -7 -74 -7 -93c-7 -1 -15 -2 -23 0z" />
    <glyph glyph-name="percent" unicode="%" horiz-adv-x="794" 
d="M647 579c-158 -198 -314 -395 -467 -593c-10 4 -17 9 -26 17c159 198 317 395 469 593c10 -3 18 -10 24 -17zM217 589c102 0 146 -69 146 -155c0 -45 -22 -104 -62 -136c-20 -16 -77 -38 -117 -38c-104 0 -144 90 -142 154c0 58 29 113 70 139c27 18 77 36 105 36z
M206 560c-29 0 -95 -20 -95 -143c0 -49 24 -128 83 -128c74 0 107 70 104 143c-1 72 -38 128 -92 128zM605 320c104 0 148 -69 148 -156c0 -45 -23 -104 -63 -136c-20 -16 -76 -38 -117 -38c-104 0 -143 90 -142 154c0 57 30 112 70 140c27 17 78 36 104 36zM595 290
c-29 0 -95 -20 -95 -143c0 -49 24 -128 82 -128c75 0 108 70 105 143c-2 72 -38 128 -92 128z" />
    <glyph glyph-name="ampersand" unicode="&#x26;" horiz-adv-x="638" 
d="M367 568c-5 -9 -7 -13 -15 -17c-21 11 -60 15 -76 8c-41 -18 -69 -53 -69 -83c0 -17 14 -46 37 -81c7 -12 126 -166 191 -232c20 18 54 76 59 114c32 5 62 15 105 34c-32 -41 -86 -111 -146 -168c42 -51 105 -113 150 -143c-47 4 -100 0 -119 -4l-81 100
c-77 -59 -161 -108 -231 -108c-91 0 -137 72 -137 138c0 91 72 154 160 219c-24 26 -54 89 -54 113c0 72 93 134 164 134c16 0 50 -14 62 -24zM207 326c-48 -34 -92 -87 -105 -141c-17 -68 14 -140 112 -140c61 0 131 38 172 69c-63 71 -142 164 -179 212z" />
    <glyph glyph-name="quotesingle" unicode="'" horiz-adv-x="186" 
d="M112 594c23 0 38 -26 38 -65c0 -49 -44 -136 -85 -211l-22 9c29 59 42 104 42 144c0 34 -17 50 -17 79c0 18 18 44 44 44z" />
    <glyph glyph-name="parenleft" unicode="(" horiz-adv-x="227" 
d="M188 -80l-22 -7c-57 111 -111 214 -110 353c1 129 65 249 114 336l21 -8c-33 -70 -68 -189 -68 -326c0 -110 13 -226 65 -348z" />
    <glyph glyph-name="parenright" unicode=")" horiz-adv-x="227" 
d="M40 594l23 9c58 -112 109 -195 108 -334c0 -128 -64 -271 -114 -358l-20 8c32 71 67 211 67 348c0 110 -12 204 -64 327z" />
    <glyph glyph-name="asterisk" unicode="*" 
d="M328 514c7 -8 8 -18 9 -25c-16 -4 -81 -27 -105 -36c17 -27 58 -88 69 -103c-6 -8 -14 -13 -21 -15c-8 13 -59 78 -74 98c-20 -24 -67 -85 -77 -98c-10 3 -17 10 -22 15c10 12 57 80 71 101c-28 13 -86 34 -102 39c1 11 4 20 8 25c14 -5 82 -25 105 -31c2 30 4 100 4 117
c10 3 20 2 27 1c-1 -17 1 -94 2 -118c29 7 90 25 106 30z" />
    <glyph glyph-name="plus" unicode="+" 
d="M213 365c-1 -50 -1 -101 -1 -151c52 -1 107 -1 142 1c1 -11 -1 -21 -6 -31c-45 2 -90 2 -136 2c0 -50 0 -101 1 -151c-11 -2 -19 -3 -31 -3c1 51 2 103 2 154c-46 1 -94 1 -149 0c-3 9 1 25 3 31c44 -2 96 -3 146 -3c1 50 1 101 0 150c8 1 24 1 29 1z" />
    <glyph glyph-name="comma" unicode="," horiz-adv-x="181" 
d="M94 95c23 0 38 -27 38 -66c0 -48 -45 -136 -85 -210l-22 9c28 59 42 104 42 144c0 34 -17 50 -17 79c0 17 17 44 44 44z" />
    <glyph glyph-name="hyphen" unicode="-" horiz-adv-x="245" 
d="M47 273c30 2 121 17 143 22c2 -12 3 -39 0 -44c-24 -2 -113 -14 -141 -20c-3 10 -3 30 -2 42z" />
    <glyph glyph-name="period" unicode="." horiz-adv-x="179" 
d="M92 63c28 0 42 -12 42 -31c0 -25 -30 -39 -57 -39c-20 0 -35 11 -35 29c0 21 25 41 50 41z" />
    <glyph glyph-name="slash" unicode="/" horiz-adv-x="293" 
d="M267 600c-72 -215 -143 -431 -213 -646c-11 0 -17 -1 -27 5c74 215 145 431 214 646c9 1 21 -1 26 -5z" />
    <glyph glyph-name="zero" unicode="0" horiz-adv-x="444" 
d="M194 -15c-115 0 -157 162 -157 311c0 69 17 149 50 202c28 43 99 97 149 97c139 0 172 -125 170 -281c0 -87 -30 -215 -91 -280c-24 -26 -72 -49 -121 -49zM226 563c-82 0 -122 -149 -122 -241c-2 -109 29 -304 123 -304c61 0 111 150 111 268c0 184 -36 277 -112 277z
" />
    <glyph glyph-name="one" unicode="1" horiz-adv-x="340" 
d="M221 588c7 -4 11 -5 17 -10c-12 -75 -6 -476 2 -581c-27 5 -59 5 -90 1c16 93 21 440 11 522c-45 -2 -80 -7 -124 -14c-3 5 -5 12 -5 19c75 20 131 38 189 63z" />
    <glyph glyph-name="two" unicode="2" horiz-adv-x="422" 
d="M62 529c62 27 125 62 201 62c80 0 97 -64 97 -123c0 -75 -72 -168 -111 -223c-7 -9 -95 -126 -140 -178c79 -8 237 -1 279 9c-12 -36 -15 -52 -20 -83c-97 10 -199 10 -331 4c-6 9 -7 17 -9 25c97 91 265 308 265 427c0 60 -30 92 -90 92c-34 0 -98 -19 -131 -32
c-6 5 -8 10 -10 20z" />
    <glyph glyph-name="three" unicode="3" horiz-adv-x="370" 
d="M39 553c21 13 98 40 144 40c57 0 93 -50 93 -100c0 -43 -37 -97 -102 -133c88 1 159 -50 159 -134c0 -169 -198 -240 -318 -234c-1 8 -1 16 2 26c114 -6 246 75 246 205c0 60 -43 110 -110 110c-14 0 -41 -3 -54 -8c-7 6 -8 13 -9 21c68 23 119 62 119 125
c0 38 -21 81 -68 81c-32 0 -75 -12 -92 -19c-5 5 -8 10 -10 20z" />
    <glyph glyph-name="four" unicode="4" 
d="M261 -2c10 45 11 107 10 178c-2 0 -177 3 -234 0c-7 5 -10 10 -15 17l280 410c6 -3 15 -10 21 -16c-70 -103 -186 -272 -249 -380c63 -3 147 -1 197 -1c1 27 1 119 -1 202c25 6 51 12 77 26c-9 -67 -12 -128 -12 -228c15 0 25 0 42 2c3 -16 3 -20 -1 -34
c-24 1 -32 2 -41 1c-1 -34 2 -125 10 -176c-25 3 -55 7 -84 -1z" />
    <glyph glyph-name="five" unicode="5" horiz-adv-x="350" 
d="M308 586c-15 -29 -25 -51 -32 -70c-33 7 -133 6 -166 2c-9 -19 -23 -63 -33 -99c124 11 234 -21 234 -158c0 -103 -88 -207 -196 -283c-6 5 -11 9 -13 18c70 52 149 144 149 245c0 84 -81 133 -202 123c-5 1 -12 7 -12 7c22 61 52 162 67 213c50 -4 156 -6 204 2z" />
    <glyph glyph-name="six" unicode="6" horiz-adv-x="438" 
d="M265 600c10 -3 10 -5 17 -12c-99 -107 -176 -249 -176 -379c0 -151 61 -188 105 -188c75 0 120 49 120 118c0 53 -19 106 -85 106c-26 0 -65 -13 -89 -24c-6 5 -9 13 -10 20c29 19 80 40 128 40c63 0 126 -37 126 -129c0 -59 -77 -168 -210 -168c-111 0 -154 92 -154 199
c0 141 122 314 228 417z" />
    <glyph glyph-name="seven" unicode="7" horiz-adv-x="419" 
d="M62 -32c53 150 124 302 288 544c-77 7 -258 2 -311 -11c14 36 21 65 26 90c74 -13 269 -13 338 -8c7 -5 11 -10 14 -19c-171 -229 -249 -430 -265 -557c-26 -9 -57 -22 -90 -39z" />
    <glyph glyph-name="eight" unicode="8" horiz-adv-x="415" 
d="M275 578c-2 -7 -6 -14 -11 -19c-9 4 -26 8 -46 8c-30 0 -69 -29 -69 -74c0 -41 46 -70 80 -96c49 55 94 117 121 203c9 2 16 0 23 -3c-23 -93 -47 -142 -127 -215c13 -9 28 -19 39 -29c60 -50 95 -102 95 -171c-1 -107 -105 -195 -204 -195c-84 0 -143 45 -143 145
c0 91 64 151 143 216c-25 22 -51 41 -66 59c-37 43 -47 86 6 143c24 26 52 43 104 43c21 0 41 -3 55 -15zM196 333c-63 -50 -99 -121 -100 -175c0 -60 33 -128 99 -128c97 1 124 58 124 107c0 79 -27 124 -100 179z" />
    <glyph glyph-name="nine" unicode="9" horiz-adv-x="424" 
d="M158 -15c-7 3 -13 7 -19 13c97 121 176 240 176 370c0 152 -52 202 -102 202c-79 0 -106 -69 -106 -123c0 -53 17 -104 83 -104c26 0 45 4 68 15c6 -8 8 -13 9 -19c-29 -19 -63 -34 -106 -34c-63 0 -124 37 -124 129c0 59 64 165 197 165c131 0 152 -124 152 -200
c0 -134 -118 -287 -228 -414z" />
    <glyph glyph-name="colon" unicode=":" horiz-adv-x="162" 
d="M84 63c28 0 42 -12 42 -31c0 -25 -30 -39 -57 -39c-20 0 -36 11 -36 29c0 21 25 41 51 41zM84 346c28 0 42 -12 42 -31c0 -25 -30 -39 -57 -39c-20 0 -36 11 -36 29c0 21 25 41 51 41z" />
    <glyph glyph-name="semicolon" unicode=";" horiz-adv-x="184" 
d="M92 346c28 0 42 -12 42 -31c0 -25 -30 -39 -57 -39c-20 0 -35 11 -35 29c0 21 25 41 50 41zM94 95c23 0 38 -27 38 -66c0 -48 -45 -136 -85 -210l-22 9c28 59 42 104 42 144c0 34 -17 50 -17 79c0 17 17 44 44 44z" />
    <glyph glyph-name="less" unicode="&#x3c;" horiz-adv-x="388" 
d="M42 212c98 51 228 125 268 150c10 -8 13 -19 16 -29c-56 -31 -174 -96 -229 -128c58 -34 169 -103 229 -138c-4 -10 -11 -21 -23 -28c-54 35 -169 106 -261 157c-1 5 -1 11 0 16z" />
    <glyph glyph-name="equal" unicode="=" horiz-adv-x="388" 
d="M38 295c101 -3 241 -3 316 -2c1 -11 -1 -21 -6 -31c-97 3 -188 4 -313 3c-3 8 1 24 3 30zM38 184c101 -2 241 -2 316 -1c1 -11 -1 -22 -6 -32c-97 3 -188 4 -313 3c-3 8 1 25 3 30z" />
    <glyph glyph-name="greater" unicode="&#x3e;" horiz-adv-x="388" 
d="M345 189c-97 -51 -228 -125 -268 -150c-9 8 -12 19 -15 29c55 31 174 96 229 128c-58 35 -169 103 -229 138c4 10 11 21 23 28c54 -35 169 -106 260 -157c2 -5 2 -11 0 -16z" />
    <glyph glyph-name="question" unicode="?" horiz-adv-x="262" 
d="M121 159l-24 -8c-14 43 -21 77 -20 114c1 69 79 109 79 180c0 50 -42 97 -83 138l14 18c74 -56 129 -124 129 -172c0 -85 -101 -134 -104 -211c-1 -13 1 -39 9 -59zM117 63c28 0 42 -12 42 -31c0 -25 -30 -39 -57 -39c-20 0 -35 11 -35 29c0 21 25 41 50 41z" />
    <glyph glyph-name="at" unicode="@" horiz-adv-x="741" 
d="M446 -120l12 -26c-36 -12 -114 -34 -152 -34c-182 0 -268 117 -268 293c0 269 234 445 442 445c108 0 224 -53 224 -214c0 -138 -83 -234 -250 -356c-20 14 -38 59 -38 107c0 18 3 41 6 59c-55 -40 -137 -115 -192 -166c-21 14 -37 59 -37 107c0 90 53 190 116 242
c45 37 103 47 128 48c43 0 77 0 111 -1c-19 -23 -47 -122 -61 -216c-5 -35 -2 -79 16 -107c85 60 166 150 166 283s-91 185 -195 185c-204 0 -399 -171 -399 -412c0 -166 82 -263 238 -263c38 0 109 19 133 26zM464 357c-43 5 -89 -6 -124 -35c-54 -47 -80 -123 -80 -175
c0 -30 2 -52 15 -77c30 21 138 104 157 123c8 26 32 132 32 164z" />
    <glyph glyph-name="A" unicode="A" horiz-adv-x="509" 
d="M333 235c-54 -2 -143 -10 -190 -14c-40 -95 -61 -155 -75 -217c-20 1 -50 -5 -75 -11c83 144 148 288 217 448c32 72 41 102 51 147c11 5 15 5 27 10c67 -233 134 -426 205 -600c-42 5 -72 3 -95 0c-12 61 -39 148 -65 237zM256 481l-98 -227c53 -1 120 2 167 6
c-22 82 -47 145 -69 221z" />
    <glyph glyph-name="B" unicode="B" horiz-adv-x="459" 
d="M55 582c36 -4 96 1 141 1c87 1 187 -7 187 -106c1 -38 -47 -100 -109 -129l1 -3c109 3 159 -37 159 -126c0 -83 -114 -218 -279 -221c-35 0 -68 -2 -107 1c9 205 11 471 7 583zM127 556c-5 -206 -6 -342 0 -529c10 -2 20 -3 32 -3c102 1 209 93 206 193
c0 68 -41 102 -113 102c-11 0 -33 0 -48 -4c-4 5 -5 15 -6 21c58 19 117 67 117 134c0 45 -40 83 -112 88c-21 0 -51 -1 -76 -2z" />
    <glyph glyph-name="C" unicode="C" horiz-adv-x="538" 
d="M292 -14c-186 3 -259 138 -259 259c0 166 123 350 342 350c31 0 82 -14 114 -36c-1 -4 -9 -16 -14 -20c-25 14 -75 23 -105 23c-148 0 -264 -133 -264 -312c0 -95 69 -220 214 -222c52 -1 114 17 174 47c6 -6 9 -10 11 -21c-55 -31 -145 -68 -213 -68z" />
    <glyph glyph-name="D" unicode="D" horiz-adv-x="557" 
d="M253 582c135 -2 276 -64 276 -203c0 -227 -210 -375 -362 -378c-38 -1 -68 -2 -119 2c14 58 23 392 16 580c42 -2 162 -1 189 -1zM138 556c-6 -151 -8 -364 -3 -525c12 -1 23 -1 37 -1c118 0 282 136 282 298c0 150 -98 222 -218 228c-35 1 -75 1 -98 0z" />
    <glyph glyph-name="E" unicode="E" horiz-adv-x="426" 
d="M55 583c85 -4 222 -4 337 -1l-2 -24c-101 -3 -162 -5 -254 -12c-4 -39 -5 -179 -5 -203c77 -2 145 1 222 3l2 -23c-57 -5 -159 -9 -225 -17c-1 -59 1 -204 3 -268c75 -10 161 -13 278 -16v-24c-235 3 -249 3 -363 0c13 85 16 532 7 585z" />
    <glyph glyph-name="F" unicode="F" horiz-adv-x="410" 
d="M407 582l-3 -24c-100 -3 -174 -3 -267 -11c-2 -24 -7 -130 -5 -205c79 3 142 7 218 11v-27c-24 -1 -153 -10 -220 -19c-2 -58 -2 -255 7 -309c-25 4 -65 5 -89 2c12 117 14 424 9 583c84 -4 235 -4 350 -1z" />
    <glyph glyph-name="G" unicode="G" horiz-adv-x="619" 
d="M508 542c-34 13 -92 21 -132 21c-148 0 -269 -133 -269 -313c0 -118 87 -229 209 -229c76 0 119 12 166 30c6 111 5 180 -3 292c30 0 53 2 82 7c-8 -69 -16 -252 -4 -298c-103 -50 -172 -66 -263 -66c-163 0 -259 121 -259 253c0 197 155 356 345 356
c29 0 105 -10 141 -32c-2 -8 -7 -15 -13 -21z" />
    <glyph glyph-name="H" unicode="H" horiz-adv-x="596" 
d="M59 583c18 -1 62 -3 83 0c-8 -76 -10 -199 -10 -251c75 1 255 9 337 15c0 75 0 186 -4 236c26 -3 59 -4 83 0c-15 -127 -15 -437 -5 -585c-18 1 -62 3 -84 0c8 71 8 257 10 326c-47 -3 -276 -20 -339 -28c-2 -58 -4 -234 1 -298c-26 3 -59 5 -83 2c14 117 19 424 11 583z
" />
    <glyph glyph-name="I" unicode="I" horiz-adv-x="184" 
d="M55 583c17 -4 59 -2 81 0c-15 -196 -14 -437 -6 -585c-26 3 -58 5 -82 2c13 133 14 424 7 583z" />
    <glyph glyph-name="J" unicode="J" horiz-adv-x="199" 
d="M67 583c17 -4 56 -2 78 0c-12 -142 -10 -288 -10 -433c0 -117 -14 -212 -70 -296c-18 -27 -79 -94 -156 -94c-16 0 -39 9 -61 17c3 9 6 17 12 26c20 -6 49 -11 71 -10c35 3 136 35 139 340c1 121 1 340 -3 450z" />
    <glyph glyph-name="K" unicode="K" horiz-adv-x="567" 
d="M136 583c-4 -66 -9 -140 -9 -193c115 49 245 117 382 203c-10 -21 -23 -55 -28 -83c-61 -19 -142 -53 -178 -71c72 -136 177 -337 257 -440c-41 3 -71 4 -104 -1c-56 124 -156 315 -215 414c-37 -14 -68 -27 -114 -48c-3 -133 -1 -273 4 -366c-26 3 -59 5 -83 2
c13 133 14 424 7 583c17 -4 60 -2 81 0z" />
    <glyph glyph-name="L" unicode="L" horiz-adv-x="406" 
d="M57 583c18 -4 58 -2 79 0c-11 -173 -12 -370 -7 -546c75 -10 153 -13 271 -15l-5 -24c-234 3 -233 3 -347 0c12 106 17 453 9 585z" />
    <glyph glyph-name="M" unicode="M" horiz-adv-x="819" 
d="M12 -3c67 141 122 313 167 455c10 31 26 102 26 131c10 3 16 3 29 9c22 -85 132 -376 178 -488c47 92 138 310 156 350c26 60 33 82 43 128c12 1 19 4 29 7c31 -150 77 -356 145 -591c-27 5 -72 3 -92 0c-17 127 -73 351 -94 465c-62 -144 -142 -331 -186 -458
c-9 -6 -26 -14 -40 -22l-166 471c-45 -147 -80 -298 -117 -452c-27 -2 -48 -2 -78 -5z" />
    <glyph glyph-name="N" unicode="N" horiz-adv-x="608" 
d="M548 3l-24 -10c-134 164 -355 392 -431 476c-2 -134 21 -427 28 -460c-27 -6 -43 -7 -75 -23c17 86 24 414 19 596l23 11c109 -142 297 -326 425 -460c0 172 -8 342 -21 442c21 4 50 12 71 21c-14 -38 -25 -283 -23 -493c0 -27 3 -67 8 -100z" />
    <glyph glyph-name="O" unicode="O" horiz-adv-x="662" 
d="M357 594c154 0 268 -116 269 -279c1 -104 -52 -208 -137 -272c-44 -33 -124 -60 -192 -60c-201 0 -262 177 -262 293c2 83 44 202 146 266c40 26 116 52 176 52zM343 562c-127 0 -231 -98 -231 -284c0 -139 94 -262 208 -262c131 0 232 120 232 295
c-9 188 -138 251 -209 251z" />
    <glyph glyph-name="P" unicode="P" horiz-adv-x="449" 
d="M48 -1c14 84 13 506 4 584c38 -4 84 0 164 0c123 0 208 -17 208 -131c0 -66 -85 -135 -233 -173c-3 4 -8 19 -8 22c100 33 168 73 168 155c0 65 -61 99 -130 101c-47 2 -77 -1 -96 -2c-8 -111 6 -501 10 -556c-19 3 -63 3 -87 0z" />
    <glyph glyph-name="Q" unicode="Q" horiz-adv-x="677" 
d="M363 594c154 0 268 -115 269 -277c1 -105 -52 -206 -137 -270c-29 -22 -78 -44 -124 -53c87 -51 222 -105 310 -125c-50 -20 -87 -39 -117 -57c-87 69 -150 119 -239 175c-5 -1 -17 -1 -22 -1c-201 0 -262 175 -262 292c1 82 44 200 145 264c41 26 117 52 177 52z
M348 562c-127 0 -231 -98 -231 -284c0 -139 95 -261 208 -261c131 0 232 119 232 294c-8 188 -137 251 -209 251z" />
    <glyph glyph-name="R" unicode="R" horiz-adv-x="504" 
d="M168 582c79 0 245 13 244 -93c0 -48 -49 -107 -147 -139c59 -105 180 -278 252 -351c-22 2 -75 6 -107 -5c-41 72 -165 266 -225 344c2 6 9 14 14 17c81 11 136 60 136 112c0 70 -53 87 -134 89c-19 0 -52 -1 -72 -3c-7 -98 -4 -364 3 -553c-31 3 -54 5 -84 -7
c14 113 9 516 3 590c26 -3 83 -1 117 -1z" />
    <glyph glyph-name="S" unicode="S" horiz-adv-x="298" 
d="M17 -2c-1 10 0 17 4 29c9 -2 20 -3 34 -3c82 0 141 53 138 122c0 74 -42 115 -90 165c-32 34 -56 74 -56 114c0 65 65 128 146 174c6 -3 13 -13 13 -20c-62 -46 -95 -74 -97 -124c-2 -37 36 -82 66 -115c43 -43 87 -99 87 -170c0 -63 -51 -174 -209 -174
c-10 0 -24 0 -36 2z" />
    <glyph glyph-name="T" unicode="T" horiz-adv-x="441" 
d="M6 582c192 -5 258 -4 430 -1c3 -7 2 -9 1 -20c-68 -7 -132 -11 -181 -19c-4 -93 -5 -341 6 -544c-26 4 -48 4 -85 1c8 47 13 490 9 542c-47 8 -99 14 -181 18c-2 8 -3 11 1 23z" />
    <glyph glyph-name="U" unicode="U" horiz-adv-x="579" 
d="M35 582c37 -2 59 -2 88 2c2 -140 8 -279 26 -402c12 -80 64 -162 148 -162c85 0 152 56 170 172c18 110 20 302 12 381c27 5 50 15 75 28c-16 -114 -36 -273 -53 -386c-18 -126 -77 -229 -217 -229c-144 0 -192 77 -212 218c-17 133 -20 264 -37 378z" />
    <glyph glyph-name="V" unicode="V" horiz-adv-x="552" 
d="M26 584c38 -5 59 -4 98 1c26 -143 89 -328 149 -495c7 21 18 49 30 74c56 130 129 312 161 411c26 3 51 8 77 19c-32 -52 -191 -389 -210 -429c-20 -42 -46 -110 -56 -153c-18 -15 -24 -24 -48 -32c-58 203 -119 405 -201 604z" />
    <glyph glyph-name="W" unicode="W" horiz-adv-x="862" 
d="M26 584c38 -5 58 -4 97 1c23 -142 63 -315 112 -480c3 9 8 21 12 30c59 129 146 329 182 440c11 7 26 14 45 20c27 -142 78 -324 127 -487l13 32c56 128 127 325 159 435c25 3 55 9 81 20c-34 -52 -182 -389 -200 -429c-35 -81 -40 -89 -60 -168c-9 -9 -20 -20 -37 -26
c-45 194 -90 355 -133 496l-146 -331c-20 -41 -40 -95 -51 -138c-16 -14 -23 -19 -40 -26c-46 207 -98 428 -161 611z" />
    <glyph glyph-name="X" unicode="X" horiz-adv-x="609" 
d="M208 581c40 -82 82 -154 117 -212c63 75 107 145 133 206c23 1 59 7 98 17c-59 -53 -166 -180 -214 -244c69 -109 147 -239 233 -349c-26 3 -89 3 -115 0c-42 98 -132 246 -164 297c-49 -61 -153 -211 -189 -288c-39 -6 -72 -7 -122 -25c89 87 236 254 295 335
c-39 69 -173 253 -189 263c23 -3 78 -6 117 0z" />
    <glyph glyph-name="Y" unicode="Y" horiz-adv-x="459" 
d="M5 583c49 -4 69 -3 110 0c30 -81 79 -170 131 -243c61 81 120 162 156 237c27 1 42 3 77 11c-96 -108 -136 -156 -223 -280c-4 -140 -2 -236 9 -309c-37 3 -55 4 -85 0c6 63 11 223 6 307c-40 79 -138 227 -181 277z" />
    <glyph glyph-name="Z" unicode="Z" horiz-adv-x="530" 
d="M80 586c127 -7 347 -10 391 0c8 -8 6 -11 7 -20c-21 -15 -46 -41 -64 -65c-90 -124 -225 -322 -302 -439c59 -4 307 -4 386 14c-9 -31 -14 -57 -16 -82c-195 13 -403 9 -458 0c-5 5 -7 15 -6 22c21 15 53 47 71 72c96 126 229 320 302 434c-107 4 -261 -1 -326 -14
c8 29 13 50 15 78z" />
    <glyph glyph-name="bracketleft" unicode="[" horiz-adv-x="241" 
d="M207 -37c4 -8 4 -15 4 -24c-66 -8 -103 -11 -163 -24c14 119 14 555 6 668c38 -3 111 0 152 0c1 -7 2 -16 -1 -23c-22 -1 -54 -4 -75 -7c-9 -155 -10 -385 -4 -591c35 -2 55 -1 81 1z" />
    <glyph glyph-name="backslash" unicode="\" horiz-adv-x="293" 
d="M26 600c5 4 20 6 29 5l214 -647c-11 -5 -19 -4 -30 -4z" />
    <glyph glyph-name="bracketright" unicode="]" horiz-adv-x="242" 
d="M194 583c-13 -124 -15 -541 -6 -649c-44 -3 -106 -13 -154 -22c-3 7 -5 17 -4 27c32 7 52 10 82 24c9 159 4 422 4 585c-20 2 -54 4 -74 4c-1 10 -3 20 -1 30c53 -3 97 -3 153 1z" />
    <glyph glyph-name="asciicircum" unicode="^" horiz-adv-x="375" 
d="M204 592c43 -86 101 -198 122 -233c-6 -9 -20 -15 -28 -17c-27 60 -75 155 -103 206c-34 -52 -92 -153 -121 -206c-10 4 -18 7 -24 18c33 47 94 151 138 232c5 1 12 1 16 0z" />
    <glyph glyph-name="underscore" unicode="_" horiz-adv-x="529" 
d="M6 -96c226 -3 297 -3 522 -2c1 -11 -2 -22 -6 -30c-226 1 -297 3 -522 2c-1 9 4 24 6 30z" />
    <glyph glyph-name="grave" unicode="`" 
d="M134 562c37 -23 111 -62 170 -89l-7 -18c-65 20 -113 31 -182 44c9 19 17 44 19 63z" />
    <glyph glyph-name="a" unicode="a" horiz-adv-x="375" 
d="M73 359c46 19 104 28 148 28c37 0 61 -10 80 -27c8 -7 19 -23 19 -49c-1 -51 -1 -192 0 -247c1 -16 1 -42 7 -66c-35 4 -36 4 -71 0c-2 11 -2 31 -2 39c-52 -17 -120 -46 -144 -46c-35 0 -51 5 -68 42c-6 13 -14 53 -11 72c7 54 50 77 91 87c40 10 90 19 132 24
c2 24 2 78 1 97c-4 34 -50 39 -89 39c-38 0 -79 -11 -87 -15c-4 5 -5 13 -6 22zM153 36c21 1 76 18 100 26c0 37 0 98 1 130c-37 -5 -70 -10 -109 -25c-38 -15 -50 -44 -48 -75c4 -38 24 -59 56 -56z" />
    <glyph glyph-name="b" unicode="b" horiz-adv-x="461" 
d="M48 687c30 6 64 17 86 26c-12 -103 -8 -250 -10 -365c47 22 112 43 166 43c84 0 129 -47 134 -146c5 -115 -72 -256 -228 -256c-65 0 -133 28 -149 44c3 22 6 44 7 65c11 209 14 527 -6 589zM126 45c30 -25 53 -30 78 -30c67 0 156 55 156 212c-1 73 -45 127 -105 127
c-41 0 -104 -19 -130 -33c-3 -53 -2 -240 1 -276z" />
    <glyph glyph-name="c" unicode="c" horiz-adv-x="377" 
d="M325 371c-4 -9 -7 -15 -12 -21c-10 4 -38 10 -57 10c-107 0 -157 -93 -157 -192c0 -90 57 -142 110 -142c47 0 71 4 128 21c6 -8 8 -14 9 -22c-61 -22 -98 -32 -161 -32c-91 0 -150 60 -150 173c0 130 97 222 219 222c29 0 50 -8 71 -17z" />
    <glyph glyph-name="d" unicode="d" horiz-adv-x="456" 
d="M229 392c40 0 77 -11 105 -17c1 79 -2 267 -12 309c40 9 53 12 87 30c-14 -54 -14 -346 -10 -536c1 -61 5 -110 10 -129c-60 -24 -139 -61 -206 -61c-109 0 -170 54 -166 180c3 132 86 224 192 224zM226 362c-34 0 -120 -45 -122 -196c-1 -82 54 -146 111 -146
c50 0 89 14 113 25c4 85 5 241 4 303c-33 9 -64 14 -106 14z" />
    <glyph glyph-name="e" unicode="e" horiz-adv-x="390" 
d="M36 169c6 167 119 223 182 223c61 0 96 -12 115 -40c17 -24 8 -73 -15 -93c-24 -21 -66 -31 -124 -31c-25 0 -69 2 -93 6c-16 -93 16 -209 120 -209c54 0 88 9 132 23c5 -7 7 -16 9 -21c-48 -19 -98 -37 -179 -37c-106 0 -151 74 -147 179zM187 253c30 0 61 6 77 27
c9 12 13 42 6 55c-9 20 -22 32 -59 32c-46 0 -90 -54 -104 -107c14 -4 46 -7 80 -7z" />
    <glyph glyph-name="f" unicode="f" horiz-adv-x="242" 
d="M39 383h31c1 25 1 101 2 146c4 92 89 169 134 173c16 1 40 -4 58 -11c-3 -9 -7 -14 -13 -21c-10 4 -24 6 -38 6c-21 0 -46 -30 -57 -55c-16 -33 -24 -85 -24 -238c44 -2 77 0 106 2c0 -12 -2 -29 -6 -33c-32 2 -54 2 -99 2c-1 -69 1 -264 13 -356c-24 4 -63 3 -85 0
c11 121 10 240 10 355c-7 0 -20 1 -34 0c0 11 0 17 2 30z" />
    <glyph glyph-name="g" unicode="g" horiz-adv-x="399" 
d="M201 388c34 0 83 -7 96 -17c23 5 43 13 62 20c8 -6 13 -11 16 -21c-19 -10 -29 -14 -54 -29c4 -5 8 -16 8 -27c0 -75 -100 -93 -152 -99c-33 -64 42 -108 79 -131c91 -56 139 -89 139 -170c0 -127 -148 -183 -217 -183c-84 0 -171 37 -171 125c0 74 36 144 133 235
c-35 42 -18 81 12 123c-70 9 -118 30 -115 85c5 51 97 89 164 89zM154 73c-48 -44 -82 -115 -82 -175c0 -75 38 -126 117 -126c57 0 152 36 152 103c0 54 -44 98 -84 126c-36 26 -83 54 -103 72zM191 362c-47 0 -84 -29 -84 -70c1 -32 26 -51 68 -51c57 2 84 34 84 69
c0 32 -31 52 -68 52z" />
    <glyph glyph-name="h" unicode="h" horiz-adv-x="474" 
d="M51 682c34 9 55 15 90 30c-15 -77 -15 -280 -14 -355c40 16 102 38 140 38c94 0 128 -30 144 -129c6 -36 13 -232 21 -267c-36 2 -55 5 -85 -1c9 61 0 215 -7 264c-3 26 -17 94 -78 95c-43 2 -108 -15 -135 -26c0 -91 2 -221 7 -333c-27 4 -27 6 -86 0
c16 104 17 517 3 684z" />
    <glyph glyph-name="i" unicode="i" horiz-adv-x="183" 
d="M49 0c11 92 10 298 -1 379c29 1 52 6 79 12c-10 -64 -6 -317 7 -393c-26 8 -72 3 -85 2zM99 589c29 0 36 -19 36 -28c0 -17 -23 -36 -51 -36c-20 0 -35 8 -35 29c0 14 18 35 50 35z" />
    <glyph glyph-name="j" unicode="j" horiz-adv-x="183" 
d="M122 17c0 -131 -25 -181 -93 -250c-37 -37 -86 -50 -112 -33c0 9 1 13 6 22c119 -9 132 135 134 222c3 106 2 332 -8 398c23 3 46 4 77 14c-3 -135 -4 -282 -4 -373zM99 589c29 0 36 -19 36 -28c0 -17 -23 -36 -51 -36c-20 0 -35 8 -35 29c0 14 18 35 50 35z" />
    <glyph glyph-name="k" unicode="k" horiz-adv-x="474" 
d="M55 -3c12 93 7 621 -7 686c23 3 60 14 89 24c-15 -129 -12 -255 -8 -427c85 32 226 92 290 121c-6 -20 -11 -44 -16 -62c-51 -9 -87 -18 -141 -35c30 -63 175 -280 199 -305c-32 5 -74 3 -97 -3c-26 47 -122 220 -166 285c-27 -9 -46 -16 -68 -26c-1 -69 5 -187 11 -257
c-34 4 -44 5 -86 -1z" />
    <glyph glyph-name="l" unicode="l" horiz-adv-x="188" 
d="M54 -3c12 93 8 621 -6 686c23 3 55 14 84 26c-16 -176 -6 -646 8 -711c-34 4 -44 5 -86 -1z" />
    <glyph glyph-name="m" unicode="m" horiz-adv-x="664" 
d="M544 -2c-1 60 -11 214 -12 240c-5 68 -22 106 -58 106c-43 0 -83 -11 -117 -25c6 -20 11 -81 11 -105c2 -37 5 -125 13 -215c-28 3 -60 3 -80 0c3 96 -1 228 -4 275c-4 60 -44 81 -72 81s-59 -10 -98 -22c-4 -76 -4 -203 3 -335c-28 4 -51 7 -82 0c13 122 12 292 4 383
c24 3 50 7 80 14c-3 -16 -4 -27 -5 -40c39 16 82 35 132 35c48 0 71 -20 91 -50c50 24 106 51 154 51c68 0 94 -41 100 -207c3 -69 13 -157 19 -185c-30 3 -50 5 -79 -1z" />
    <glyph glyph-name="n" unicode="n" horiz-adv-x="469" 
d="M50 381c23 3 50 7 80 14c-3 -16 -4 -30 -5 -43c56 26 111 40 137 40c77 0 137 -46 144 -148c13 -188 18 -221 21 -246c-29 4 -48 6 -81 0c8 49 0 209 -4 233c-10 63 -25 118 -101 118c-50 0 -92 -11 -116 -19c-4 -76 -2 -200 5 -332c-28 4 -51 7 -82 0
c13 122 9 292 2 383z" />
    <glyph glyph-name="o" unicode="o" horiz-adv-x="458" 
d="M241 391c125 0 176 -84 176 -190c0 -53 -27 -125 -76 -164c-36 -29 -94 -47 -139 -47c-127 0 -172 111 -170 188c0 70 35 137 85 170c32 22 85 43 124 43zM228 360c-25 0 -52 -7 -71 -23c-37 -30 -58 -91 -58 -158c0 -60 36 -159 113 -159c25 0 56 7 74 19
c45 33 67 103 65 161c-3 87 -57 160 -123 160z" />
    <glyph glyph-name="p" unicode="p" horiz-adv-x="442" 
d="M45 -277c16 131 19 555 10 647c21 5 45 12 71 21c-1 -11 -1 -20 -1 -31c38 15 70 29 121 29c111 0 166 -62 163 -166c-6 -165 -115 -231 -216 -231c-25 0 -50 3 -71 10c4 -135 6 -219 20 -268c-29 0 -77 -8 -97 -11zM123 30c18 -7 38 -10 59 -10c79 0 156 59 161 201
c2 52 -23 138 -116 138c-24 0 -75 -10 -102 -23c-4 -71 -2 -264 -2 -306z" />
    <glyph glyph-name="q" unicode="q" horiz-adv-x="436" 
d="M304 -277c10 35 13 287 10 306c-39 -22 -93 -35 -135 -35c-101 0 -143 73 -144 149c0 169 110 242 196 242c17 0 61 -7 79 -15c1 5 1 9 3 13c12 2 45 7 65 9c-5 -66 -5 -538 22 -658c-15 0 -65 -6 -96 -11zM310 346c-30 9 -59 13 -85 12c-61 -1 -127 -70 -127 -197
c0 -69 45 -129 115 -128c33 0 73 9 100 23c2 66 -1 265 -3 290z" />
    <glyph glyph-name="r" unicode="r" horiz-adv-x="238" 
d="M119 389c-2 -19 -4 -61 -4 -119h3c26 70 39 95 106 124c5 -5 7 -9 11 -19c-65 -54 -112 -109 -117 -206c-2 -40 -1 -84 4 -170c-22 2 -43 3 -74 -1c9 97 9 287 0 378c15 2 59 9 71 13z" />
    <glyph glyph-name="s" unicode="s" horiz-adv-x="243" 
d="M30 -2c-1 8 0 19 3 26c10 -2 29 -3 41 -3c42 0 66 27 65 71c0 33 -17 61 -45 94c-17 21 -42 54 -42 83c0 40 42 89 110 129c8 -4 11 -11 14 -18c-54 -35 -66 -72 -66 -92c0 -25 17 -44 37 -66c47 -51 56 -85 56 -116c0 -60 -47 -111 -130 -111c-10 0 -32 1 -43 3z" />
    <glyph glyph-name="t" unicode="t" horiz-adv-x="285" 
d="M120 517c7 1 12 -1 19 -2c-3 -24 -10 -107 -8 -132c19 0 84 0 115 3c0 -12 -2 -17 -9 -33c-32 3 -81 2 -106 2c-4 -37 -3 -177 -3 -218c0 -77 18 -96 48 -96c20 0 45 4 76 10c5 -7 7 -15 7 -23c-45 -16 -118 -38 -144 -38c-48 0 -50 44 -50 136c0 22 0 59 3 229h-36
c0 16 1 8 2 28h37c16 40 40 95 49 134z" />
    <glyph glyph-name="u" unicode="u" horiz-adv-x="458" 
d="M130 390c-8 -70 -13 -131 -13 -201c1 -56 -5 -152 70 -152c38 0 105 10 144 23c4 39 4 248 -5 317c18 1 54 5 80 11c-11 -89 -9 -344 3 -382c-29 -4 -43 -4 -74 -10c-3 16 -2 26 -3 40c-47 -15 -126 -41 -190 -41c-85 0 -90 77 -90 159c0 102 0 193 -4 226
c31 1 58 4 82 10z" />
    <glyph glyph-name="v" unicode="v" horiz-adv-x="395" 
d="M122 385c0 -47 45 -189 68 -265c4 -12 8 -26 10 -36c58 115 109 246 117 291c21 3 48 8 78 20c-66 -109 -113 -195 -158 -291c-14 -31 -37 -80 -41 -106c-13 -8 -18 -8 -33 -14c-36 143 -115 371 -140 400c24 -5 79 -2 99 1z" />
    <glyph glyph-name="w" unicode="w" horiz-adv-x="606" 
d="M23 384c24 -5 79 -2 99 1c1 -58 45 -218 69 -298c59 114 109 254 117 298c7 4 29 10 38 13c4 -48 55 -233 80 -312c58 115 94 244 103 289c20 3 48 8 77 20c-66 -109 -101 -195 -146 -291c-14 -31 -34 -79 -38 -105c-12 -7 -20 -11 -35 -15c-28 115 -65 231 -84 289
l-78 -169c-16 -37 -35 -78 -39 -105c-11 -7 -20 -11 -35 -15c-36 143 -103 371 -128 400z" />
    <glyph glyph-name="x" unicode="x" horiz-adv-x="427" 
d="M0 -12c57 53 139 147 189 218c-44 74 -72 121 -124 179c38 -4 76 -5 111 0c9 -44 42 -105 61 -135c41 50 74 102 84 126c22 2 59 9 79 15c-56 -51 -112 -115 -152 -162c50 -88 79 -136 162 -231c-27 4 -87 4 -108 1c-35 73 -71 139 -101 185c-59 -78 -79 -116 -116 -182
c-31 -4 -54 -6 -85 -14z" />
    <glyph glyph-name="y" unicode="y" horiz-adv-x="456" 
d="M7 387c33 -8 81 -4 105 -1c5 -31 104 -253 142 -305c51 100 106 243 111 296c21 -1 53 3 89 13c-73 -116 -142 -243 -195 -363c-33 -76 -33 -85 -65 -161c-28 -66 -64 -116 -169 -141c-3 7 -3 21 -3 21c88 39 150 130 195 247c-43 104 -145 309 -210 394z" />
    <glyph glyph-name="z" unicode="z" horiz-adv-x="404" 
d="M63 385c81 -5 189 -6 286 0c6 -5 7 -13 10 -19c-23 -18 -48 -46 -59 -59c-65 -82 -135 -167 -201 -248c70 0 211 0 276 11c-5 -13 -14 -40 -21 -75c-100 11 -287 7 -330 3c-4 4 -7 12 -9 22c21 14 50 39 69 61c75 88 155 186 198 243c-81 4 -179 -1 -234 -9
c7 20 11 43 15 70z" />
    <glyph glyph-name="braceleft" unicode="{" horiz-adv-x="244" 
d="M200 -87c-81 60 -102 70 -103 164c-1 40 -2 72 -5 99c-7 56 -10 93 -55 113c0 10 -1 12 3 22c39 12 53 49 59 109c2 16 3 45 4 65c3 65 14 74 98 138c5 -5 9 -13 9 -20c-21 -24 -39 -44 -43 -95c-1 -18 -1 -41 -2 -74c-4 -59 -49 -100 -93 -134c69 -54 77 -89 84 -141
l4 -58c4 -84 13 -123 51 -168c-1 -9 -5 -15 -11 -20z" />
    <glyph glyph-name="bar" unicode="|" horiz-adv-x="236" 
d="M135 602c-3 -226 -3 -462 -2 -687c-11 -3 -21 -7 -32 -5c1 226 3 466 2 691c9 3 26 3 32 1z" />
    <glyph glyph-name="braceright" unicode="}" horiz-adv-x="261" 
d="M42 609c2 5 6 12 14 14c56 -38 104 -83 104 -152c0 -20 1 -44 4 -62c8 -48 16 -81 58 -100c2 -13 2 -9 0 -19c-41 -24 -56 -62 -63 -123l-4 -73c-5 -86 -53 -134 -108 -177c-7 1 -13 10 -15 16c23 22 48 57 55 107c3 26 8 93 10 118c5 59 43 97 94 142
c-57 42 -89 76 -94 131c-2 19 -2 52 -4 70c-6 62 -20 75 -51 108z" />
    <glyph glyph-name="asciitilde" unicode="~" 
d="M270 215c-24 0 -82 21 -110 22c-24 0 -51 -9 -79 -27c-7 6 -10 14 -11 21c33 27 86 62 109 62c35 0 81 -19 114 -20c22 0 49 10 75 23c6 -6 9 -11 11 -18c-39 -33 -84 -63 -109 -63z" />
    <glyph glyph-name="uni00A0" unicode="&#xa0;" horiz-adv-x="221" 
 />
    <glyph glyph-name="exclamdown" unicode="&#xa1;" horiz-adv-x="195" 
d="M85 236l22 3c2 -140 16 -386 22 -434c-26 -2 -52 -5 -82 -10c12 83 35 370 38 441zM94 320c-27 0 -41 12 -41 31c0 25 30 39 56 39c20 0 36 -11 36 -29c0 -21 -25 -41 -51 -41z" />
    <glyph glyph-name="cent" unicode="&#xa2;" 
d="M325 371c-4 -9 -9 -16 -15 -24c-10 4 -35 11 -54 11c-107 0 -157 -91 -157 -190c0 -90 57 -140 110 -140c47 0 69 4 126 22c6 -8 9 -17 11 -25c-43 -16 -75 -25 -112 -30c-3 -25 -6 -90 -6 -107c-7 -2 -16 -2 -24 0l-4 105h-15c-91 0 -150 60 -150 173
c0 111 71 194 167 216c2 29 4 87 4 103c10 4 20 2 27 1c-1 -17 2 -77 3 -99c5 0 12 1 18 1c29 0 50 -8 71 -17z" />
    <glyph glyph-name="sterling" unicode="&#xa3;" 
d="M324 563c-3 -9 -4 -10 -9 -15c-9 5 -44 15 -61 15c-59 0 -84 -58 -83 -119c0 -44 5 -72 15 -103c32 0 100 2 143 3c0 -14 -3 -17 -8 -30c-32 2 -90 2 -128 1c17 -66 26 -164 -17 -249c80 0 158 0 243 10c-11 -24 -18 -42 -28 -78c-31 4 -303 6 -371 -3c12 30 17 57 24 75
c46 -3 73 -3 109 -3c27 63 12 191 -17 248c-19 0 -34 -1 -49 -2c-2 12 -1 18 1 29c18 -1 27 -2 39 -1c-16 40 -25 75 -25 108c0 27 8 63 34 94c33 39 65 49 117 49c17 0 49 -9 71 -29z" />
    <glyph glyph-name="currency" unicode="&#xa4;" 
d="M72 477c0 23 9 46 23 65c-17 20 -24 25 -38 40c4 9 9 15 19 19c14 -13 27 -23 43 -34c19 14 42 23 67 23c27 0 53 -8 73 -24c19 15 26 20 41 35c9 -4 15 -9 19 -19c-14 -15 -26 -26 -38 -43c11 -16 17 -38 17 -62c0 -25 -9 -49 -25 -68c16 -19 22 -26 37 -40
c-4 -9 -9 -15 -19 -19c-15 12 -27 23 -43 35c-18 -13 -41 -20 -63 -20c-26 0 -49 7 -68 20c-20 -16 -26 -22 -40 -36c-10 4 -16 9 -20 19c11 12 25 25 35 41c-12 18 -20 40 -20 68zM104 477c0 -46 32 -82 82 -82c45 0 82 36 82 82c0 48 -37 82 -82 82c-46 0 -82 -36 -82 -82
z" />
    <glyph glyph-name="yen" unicode="&#xa5;" horiz-adv-x="459" 
d="M53 211l135 -3c0 23 0 50 -1 70h-137c-3 9 1 22 3 28l133 -2v2c-40 79 -138 227 -181 277c49 -4 69 -3 110 0c30 -81 78 -162 130 -234c60 80 121 153 157 228c27 1 42 3 77 11c-96 -108 -136 -158 -223 -283v-1c54 0 112 0 144 1c1 -11 0 -19 -5 -29c-43 1 -90 2 -140 2
c-1 -23 -1 -49 -1 -70c56 0 113 0 146 1c1 -11 0 -19 -5 -29l-141 2c0 -75 3 -134 11 -183c-37 3 -55 4 -85 0c4 38 7 113 8 183h-138c-3 9 1 23 3 29z" />
    <glyph glyph-name="brokenbar" unicode="&#xa6;" horiz-adv-x="236" 
d="M135 603c-3 -109 -2 -199 -1 -308c-11 -2 -21 -4 -32 -3c1 109 2 202 1 311c9 1 26 1 32 0zM134 229c-2 -109 -2 -206 -1 -315c-11 -1 -21 -3 -32 -2c1 109 2 208 1 316c9 2 26 2 32 1z" />
    <glyph glyph-name="section" unicode="&#xa7;" horiz-adv-x="409" 
d="M58 -266c-1 9 2 15 6 27c9 -3 25 -4 40 -4c60 0 125 61 125 142c0 61 -56 131 -109 191c-103 116 -103 163 -41 273c43 76 100 151 169 235c10 -6 13 -10 17 -19c-50 -59 -84 -125 -84 -156c0 -37 52 -101 82 -133c43 -44 101 -107 101 -178c0 -44 -14 -105 -67 -208
c-86 -169 -146 -175 -198 -175c-10 0 -29 2 -41 5zM311 61c0 73 -70 150 -118 200c-31 32 -65 86 -68 129c-25 -39 -35 -83 -35 -116c0 -43 49 -99 89 -143c55 -60 93 -125 113 -170c16 34 19 62 19 100z" />
    <glyph glyph-name="dieresis" unicode="&#xa8;" 
d="M280 515c23 0 35 -12 35 -27c0 -19 -26 -32 -48 -32c-16 0 -31 11 -31 24c0 18 23 35 44 35zM138 515c23 0 36 -12 36 -27c0 -19 -27 -32 -48 -32c-17 0 -31 11 -31 24c0 18 22 35 43 35z" />
    <glyph glyph-name="copyright" unicode="&#xa9;" horiz-adv-x="712" 
d="M29 268c0 181 147 327 327 327c181 0 327 -146 327 -327s-146 -327 -327 -327c-180 0 -327 146 -327 327zM62 268c0 -161 134 -296 294 -296c163 0 297 135 297 296c0 163 -134 299 -297 299c-160 0 -294 -136 -294 -299zM348 37c-143 3 -199 106 -199 199
c0 127 94 268 262 268c23 0 63 -11 87 -28c0 -2 -8 -20 -12 -21c-17 12 -57 17 -80 17c-113 0 -201 -95 -201 -233c0 -72 53 -162 164 -164c40 -1 87 14 133 37c5 -4 5 -12 8 -22c-41 -23 -110 -53 -162 -53z" />
    <glyph glyph-name="ordfeminine" unicode="&#xaa;" horiz-adv-x="360" 
d="M74 566c43 17 96 26 136 26c33 0 61 -9 79 -24c6 -7 17 -22 16 -45c0 -48 0 -176 1 -227c1 -14 1 -37 6 -60c-32 4 -38 4 -71 0c-1 10 -1 29 -1 36c-48 -16 -110 -42 -133 -42c-31 0 -45 4 -61 39c-6 11 -13 47 -10 65c6 50 45 70 83 80c37 9 82 16 121 22
c1 21 1 68 0 86c-3 31 -45 33 -81 33c-34 0 -76 -9 -79 -12c-4 5 -6 11 -6 23zM147 276c14 2 69 19 92 25c0 34 0 76 1 106c-34 -5 -64 -8 -100 -22c-23 -9 -40 -28 -37 -63c3 -37 24 -48 44 -46z" />
    <glyph glyph-name="guillemotleft" unicode="&#xab;" horiz-adv-x="315" 
d="M143 60c-4 -5 -10 -15 -19 -16c-22 42 -53 88 -91 144c29 41 73 103 97 145c8 -2 11 -7 17 -13c-19 -50 -36 -89 -46 -131c8 -41 24 -78 42 -129zM270 60c-4 -5 -10 -15 -19 -16c-22 42 -53 88 -91 144c29 41 73 103 97 145c8 -2 11 -7 17 -13c-19 -50 -36 -89 -46 -131
c8 -41 24 -78 42 -129z" />
    <glyph glyph-name="logicalnot" unicode="&#xac;" 
d="M38 271c101 -2 242 -1 317 -1c-2 -51 -2 -96 -1 -146c-11 -4 -21 -4 -33 -4c1 40 2 79 2 117c-87 2 -174 3 -288 2c-3 8 1 27 3 32z" />
    <glyph glyph-name="uni00AD" unicode="&#xad;" horiz-adv-x="0" 
d="M-72 273c30 2 121 17 143 22c2 -12 3 -39 0 -44c-24 -2 -113 -14 -141 -20c-3 10 -3 30 -2 42z" />
    <glyph glyph-name="registered" unicode="&#xae;" horiz-adv-x="712" 
d="M29 268c0 181 147 327 327 327c181 0 327 -146 327 -327s-146 -327 -327 -327c-180 0 -327 146 -327 327zM299 491c60 0 186 10 185 -71c0 -36 -42 -83 -107 -107c43 -77 127 -201 181 -259c57 54 93 130 93 214c0 163 -132 297 -295 297c-160 0 -292 -134 -292 -297
c0 -161 132 -295 292 -295c75 0 143 28 195 74c-18 1 -50 4 -67 -3c-33 54 -127 202 -173 261c4 5 7 11 12 13c58 7 103 46 103 86c0 74 -96 63 -157 63c-6 -75 -3 -276 2 -419c-23 3 -40 4 -64 -6c12 86 7 394 3 450c20 -3 63 -1 89 -1z" />
    <glyph glyph-name="macron" unicode="&#xaf;" 
d="M42 498c101 -3 149 -3 224 -2c1 -11 0 -21 -5 -31c-97 3 -97 4 -222 3c-4 8 1 24 3 30z" />
    <glyph glyph-name="degree" unicode="&#xb0;" 
d="M72 477c0 59 55 113 114 113c62 0 112 -42 112 -113c0 -60 -53 -112 -113 -112c-63 0 -113 42 -113 112zM104 477c0 -46 32 -82 82 -82c45 0 82 36 82 82c0 48 -37 82 -82 82c-46 0 -82 -36 -82 -82z" />
    <glyph glyph-name="plusminus" unicode="&#xb1;" 
d="M38 62l143 -2c1 42 2 88 2 131c-46 1 -93 1 -148 0c-3 9 1 27 3 33c44 -2 95 -3 145 -3c1 50 1 96 0 144c8 2 26 2 32 1c-2 -49 -2 -95 -2 -145c53 0 106 0 141 1c1 -11 -1 -23 -6 -33c-45 2 -88 2 -135 2v-131c53 0 106 0 141 1c1 -11 -1 -24 -6 -34
c-97 3 -188 4 -313 3c-3 8 1 27 3 32z" />
    <glyph glyph-name="twosuperior" unicode="&#xb2;" horiz-adv-x="285" 
d="M48 548c31 17 75 43 119 43c49 0 64 -38 64 -73c0 -45 -43 -100 -66 -133l-68 -87c41 -6 116 0 156 6c-10 -20 -19 -50 -22 -68c-44 7 -132 7 -198 2c-3 5 -4 10 -5 16c58 61 141 166 141 246c0 35 -15 48 -37 48c-25 0 -53 -10 -74 -18c-6 5 -8 11 -10 18z" />
    <glyph glyph-name="threesuperior" unicode="&#xb3;" horiz-adv-x="251" 
d="M45 568c13 6 60 25 87 25c38 0 65 -29 65 -62c0 -26 -31 -62 -62 -82c58 3 91 -30 91 -82c0 -104 -124 -150 -197 -143c0 5 0 16 2 22c66 -5 135 40 135 119c0 39 -21 61 -51 61c-8 0 -24 -2 -32 -5c-5 5 -6 14 -7 20c45 14 60 40 60 78c0 25 -16 39 -32 39
c-21 0 -41 -4 -52 -9c-2 3 -6 13 -7 19z" />
    <glyph glyph-name="acute" unicode="&#xb4;" 
d="M324 562c2 -19 10 -44 19 -63c-69 -13 -117 -24 -182 -44l-7 18c59 27 132 66 170 89z" />
    <glyph glyph-name="mu" unicode="&#xb5;" horiz-adv-x="458" 
d="M130 390c-8 -70 -13 -131 -13 -201c1 -56 -5 -152 70 -152c38 0 105 11 144 24c4 38 4 247 -5 316c18 1 54 5 80 11c-11 -89 -9 -344 3 -382c-29 -4 -43 -4 -74 -10c-3 16 -2 26 -3 40c-47 -15 -126 -41 -190 -41c-30 0 -52 12 -65 27c7 -128 27 -253 32 -276
c-27 -4 -42 -7 -75 -23c13 64 18 254 18 431c0 102 0 193 -4 226c31 1 58 4 82 10z" />
    <glyph glyph-name="mu" unicode="&#x3bc;" horiz-adv-x="458" 
d="M130 390c-8 -70 -13 -131 -13 -201c1 -56 -5 -152 70 -152c38 0 105 11 144 24c4 38 4 247 -5 316c18 1 54 5 80 11c-11 -89 -9 -344 3 -382c-29 -4 -43 -4 -74 -10c-3 16 -2 26 -3 40c-47 -15 -126 -41 -190 -41c-30 0 -52 12 -65 27c7 -128 27 -253 32 -276
c-27 -4 -42 -7 -75 -23c13 64 18 254 18 431c0 102 0 193 -4 226c31 1 58 4 82 10z" />
    <glyph glyph-name="paragraph" unicode="&#xb6;" horiz-adv-x="489" 
d="M223 320c3 -5 5 -14 5 -20c-36 -11 -63 -15 -82 -15c-91 0 -121 45 -121 110c0 70 111 190 265 189c34 0 83 0 151 -6c-17 -69 -15 -432 -11 -580c-26 3 -50 5 -75 2c7 123 9 393 6 556c-16 3 -28 2 -44 2c-5 -199 -7 -454 -5 -559c-12 2 -20 2 -34 0c8 206 12 372 6 559
c-116 -3 -189 -93 -189 -161c0 -54 38 -82 78 -82c11 0 35 1 50 5z" />
    <glyph glyph-name="periodcentered" unicode="&#xb7;" horiz-adv-x="144" 
d="M77 325c27 0 41 -12 41 -31c0 -24 -30 -38 -56 -38c-20 0 -36 10 -36 28c0 21 25 41 51 41z" />
    <glyph glyph-name="cedilla" unicode="&#xb8;" 
d="M136 -105c18 28 47 93 60 126l24 -11c-11 -21 -26 -56 -34 -79c21 -15 49 -39 49 -69c0 -20 -28 -78 -68 -123c-5 2 -9 5 -14 10c15 24 33 60 33 91c0 17 -30 42 -50 55z" />
    <glyph glyph-name="onesuperior" unicode="&#xb9;" horiz-adv-x="234" 
d="M158 591c5 -2 12 -3 15 -5c-7 -47 -3 -285 1 -348c-17 3 -57 3 -76 0c10 57 13 249 7 299c-28 -1 -48 -4 -75 -9c-2 3 -3 13 -3 17c45 13 96 32 131 46z" />
    <glyph glyph-name="ordmasculine" unicode="&#xba;" horiz-adv-x="419" 
d="M225 593c113 0 159 -76 159 -172c0 -49 -25 -114 -69 -149c-33 -26 -85 -42 -126 -42c-114 0 -155 100 -153 170c0 63 31 124 76 153c30 20 83 40 113 40zM213 561c-22 0 -48 -7 -64 -21c-31 -26 -47 -79 -47 -140c0 -54 27 -139 97 -139c22 0 51 5 66 16
c38 28 55 90 54 142c-3 80 -47 142 -106 142z" />
    <glyph glyph-name="guillemotright" unicode="&#xbb;" horiz-adv-x="315" 
d="M44 317c4 5 10 15 19 16c22 -42 53 -88 91 -144c-29 -41 -73 -103 -97 -145c-8 2 -11 7 -17 13c19 50 36 89 46 131c-8 41 -24 78 -42 129zM172 317c4 5 10 15 19 16c22 -42 53 -88 91 -144c-29 -41 -73 -103 -97 -145c-8 2 -11 7 -17 13c19 50 36 89 46 131
c-8 41 -24 78 -42 129z" />
    <glyph glyph-name="onequarter" unicode="&#xbc;" horiz-adv-x="585" 
d="M453 -1c6 28 7 58 6 100c-1 0 -104 2 -139 0c-4 3 -5 13 -8 18c47 63 134 193 167 243c4 -1 17 -6 20 -10c-42 -62 -108 -162 -147 -227c39 -1 77 0 107 -1c1 18 1 74 0 124c16 3 52 8 68 15c-5 -40 -7 -78 -7 -138c9 0 14 0 25 1c2 -9 2 -17 -1 -26c-14 0 -19 1 -25 0
c0 -20 2 -67 7 -97c-15 1 -55 1 -73 -2zM158 590c5 -1 12 -2 15 -4c-7 -45 -3 -271 1 -331c-17 3 -57 3 -76 0c10 54 13 237 7 284c-28 -1 -48 -4 -75 -8c-2 2 -3 12 -3 16c45 12 96 30 131 43zM515 586c-135 -182 -304 -416 -434 -598c-11 3 -20 3 -29 10
c134 183 306 415 435 598c9 -1 24 -6 28 -10z" />
    <glyph glyph-name="onehalf" unicode="&#xbd;" horiz-adv-x="606" 
d="M158 589c5 -1 12 -2 15 -4c-7 -45 -3 -271 1 -331c-17 3 -57 3 -76 0c10 54 13 237 7 284c-28 -1 -48 -4 -75 -8c-2 2 -3 12 -3 16c45 12 96 30 131 43zM515 586c-135 -182 -304 -416 -434 -598c-11 3 -20 3 -29 10c134 183 306 415 435 598c9 -1 24 -6 28 -10zM370 293
c31 16 75 40 119 40c49 0 64 -36 64 -69c0 -43 -43 -95 -66 -126l-68 -83c41 -6 116 0 156 6c-10 -19 -19 -48 -22 -65c-44 7 -132 7 -198 2c-3 5 -4 10 -5 15c58 58 141 158 141 234c0 33 -15 46 -37 46c-25 0 -53 -10 -74 -17c-6 4 -8 10 -10 17z" />
    <glyph glyph-name="threequarters" unicode="&#xbe;" horiz-adv-x="585" 
d="M453 -1c6 28 7 58 6 100c-1 0 -104 2 -139 0c-4 3 -5 13 -8 18c47 63 134 193 167 243c4 -1 17 -6 20 -10c-42 -62 -108 -162 -147 -227c39 -1 77 0 107 -1c1 18 1 74 0 124c16 3 52 8 68 15c-5 -40 -7 -78 -7 -138c9 0 14 0 25 1c2 -9 2 -17 -1 -26c-14 0 -19 1 -25 0
c0 -20 2 -67 7 -97c-15 1 -55 1 -73 -2zM45 567c13 5 60 23 87 23c38 0 65 -27 65 -59c0 -24 -31 -58 -62 -77c58 2 91 -29 91 -78c0 -99 -124 -143 -197 -136c0 5 0 15 2 21c66 -5 135 38 135 113c0 37 -21 58 -51 58c-8 0 -24 -2 -32 -5c-5 5 -6 13 -7 19
c45 13 60 38 60 74c0 24 -16 37 -32 37c-21 0 -41 -4 -52 -8c-2 2 -6 12 -7 18zM515 586c-135 -182 -304 -416 -434 -598c-11 3 -20 3 -29 10c134 183 306 415 435 598c9 -1 24 -6 28 -10z" />
    <glyph glyph-name="questiondown" unicode="&#xbf;" horiz-adv-x="262" 
d="M141 224l24 8c14 -43 21 -77 20 -114c-1 -69 -79 -109 -79 -180c0 -50 42 -97 83 -138l-14 -18c-74 56 -129 124 -129 172c0 85 101 134 104 211c1 13 -1 39 -9 59zM145 320c-28 0 -42 12 -42 31c0 25 30 39 57 39c20 0 35 -11 35 -29c0 -21 -25 -41 -50 -41z" />
    <glyph glyph-name="Agrave" unicode="&#xc0;" horiz-adv-x="509" 
d="M333 235c-54 -2 -143 -10 -190 -14c-40 -95 -61 -155 -75 -217c-20 1 -50 -5 -75 -11c83 144 148 288 217 448c32 72 41 102 51 147c11 5 15 5 27 10c67 -233 134 -426 205 -600c-42 5 -72 3 -95 0c-12 61 -39 148 -65 237zM256 481l-98 -227c53 -1 120 2 167 6
c-22 82 -47 145 -69 221zM176 741c37 -23 111 -62 170 -89l-7 -18c-65 20 -113 31 -182 44c9 19 17 44 19 63z" />
    <glyph glyph-name="Aacute" unicode="&#xc1;" horiz-adv-x="509" 
d="M333 235c-54 -2 -143 -10 -190 -14c-40 -95 -61 -155 -75 -217c-20 1 -50 -5 -75 -11c83 144 148 288 217 448c32 72 41 102 51 147c11 5 15 5 27 10c67 -233 134 -426 205 -600c-42 5 -72 3 -95 0c-12 61 -39 148 -65 237zM256 481l-98 -227c53 -1 120 2 167 6
c-22 82 -47 145 -69 221zM368 741c2 -19 10 -44 19 -63c-69 -13 -117 -24 -182 -44l-7 18c59 27 132 66 170 89z" />
    <glyph glyph-name="Acircumflex" unicode="&#xc2;" horiz-adv-x="509" 
d="M333 235c-54 -2 -143 -10 -190 -14c-40 -95 -61 -155 -75 -217c-20 1 -50 -5 -75 -11c83 144 148 288 217 448c32 72 41 102 51 147c11 5 15 5 27 10c67 -233 134 -426 205 -600c-42 5 -72 3 -95 0c-12 61 -39 148 -65 237zM256 481l-98 -227c53 -1 120 2 167 6
c-22 82 -47 145 -69 221zM180 634c-3 4 -6 10 -7 20c33 20 62 42 111 77c33 -28 66 -52 100 -76c-2 -7 -6 -13 -11 -19c-39 17 -59 28 -91 36c-33 -8 -60 -20 -102 -38z" />
    <glyph glyph-name="Atilde" unicode="&#xc3;" horiz-adv-x="509" 
d="M333 235c-54 -2 -143 -10 -190 -14c-40 -95 -61 -155 -75 -217c-20 1 -50 -5 -75 -11c83 144 148 288 217 448c32 72 41 102 51 147c11 5 15 5 27 10c67 -233 134 -426 205 -600c-42 5 -72 3 -95 0c-12 61 -39 148 -65 237zM256 481l-98 -227c53 -1 120 2 167 6
c-22 82 -47 145 -69 221zM313 640c-17 0 -54 18 -71 19c-24 0 -41 -8 -64 -23l-11 14c27 25 72 59 93 58c19 0 52 -16 72 -17c23 0 41 9 62 21l12 -14c-32 -30 -72 -58 -93 -58z" />
    <glyph glyph-name="Adieresis" unicode="&#xc4;" horiz-adv-x="509" 
d="M333 235c-54 -2 -143 -10 -190 -14c-40 -95 -61 -155 -75 -217c-20 1 -50 -5 -75 -11c83 144 148 288 217 448c32 72 41 102 51 147c11 5 15 5 27 10c67 -233 134 -426 205 -600c-42 5 -72 3 -95 0c-12 61 -39 148 -65 237zM256 481l-98 -227c53 -1 120 2 167 6
c-22 82 -47 145 -69 221zM359 707c23 0 35 -12 35 -27c0 -19 -26 -32 -48 -32c-16 0 -31 11 -31 24c0 18 23 35 44 35zM217 707c23 0 36 -12 36 -27c0 -19 -27 -32 -48 -32c-17 0 -31 11 -31 24c0 18 22 35 43 35z" />
    <glyph glyph-name="Aring" unicode="&#xc5;" horiz-adv-x="509" 
d="M333 235c-54 -2 -143 -10 -190 -14c-40 -95 -61 -155 -75 -217c-20 1 -50 -5 -75 -11c83 144 148 288 217 448c32 72 41 102 51 147c11 5 15 5 27 10c67 -233 134 -426 205 -600c-42 5 -72 3 -95 0c-12 61 -39 148 -65 237zM256 481l-98 -227c53 -1 120 2 167 6
c-22 82 -47 145 -69 221zM288 735c45 0 83 -16 83 -50c0 -47 -62 -68 -108 -67c-44 1 -73 18 -73 52c0 37 45 65 98 65zM283 714c-26 0 -46 -16 -46 -40c0 -18 13 -34 38 -34c31 0 49 18 49 43c0 16 -20 31 -41 31z" />
    <glyph glyph-name="AE" unicode="&#xc6;" horiz-adv-x="768" 
d="M397 583c104 -4 230 -4 336 -1l-2 -24c-101 -3 -162 -5 -254 -12c-4 -39 -5 -179 -5 -203c77 -2 146 1 222 3l2 -23c-57 -5 -158 -9 -225 -17c-1 -59 1 -204 3 -268c75 -10 161 -13 278 -16v-24c-186 2 -233 3 -362 0c5 35 10 139 11 247c-61 -3 -156 -11 -195 -14
c-57 -95 -95 -164 -121 -227c-20 1 -63 -5 -89 -11c140 179 284 388 401 590zM229 265c43 -1 121 2 172 5c2 100 1 204 -1 265c-49 -73 -104 -161 -171 -270z" />
    <glyph glyph-name="Ccedilla" unicode="&#xc7;" horiz-adv-x="538" 
d="M235 -105c12 21 31 59 45 91c-178 9 -247 141 -247 259c0 166 123 350 342 350c31 0 82 -14 114 -36c-1 -4 -9 -16 -14 -20c-25 14 -75 23 -105 23c-148 0 -264 -133 -264 -312c0 -95 69 -220 214 -222c52 -1 114 17 174 47c6 -6 9 -10 11 -21c-51 -29 -133 -63 -198 -67
c-9 -19 -17 -40 -22 -56c20 -15 48 -39 48 -69c0 -20 -28 -78 -67 -123c-5 2 -10 5 -15 10c15 24 33 60 33 91c0 17 -29 42 -49 55z" />
    <glyph glyph-name="Egrave" unicode="&#xc8;" horiz-adv-x="426" 
d="M55 583c85 -4 222 -4 337 -1l-2 -24c-101 -3 -162 -5 -254 -12c-4 -39 -5 -179 -5 -203c77 -2 145 1 222 3l2 -23c-57 -5 -159 -9 -225 -17c-1 -59 1 -204 3 -268c75 -10 161 -13 278 -16v-24c-235 3 -249 3 -363 0c13 85 16 532 7 585zM168 741c37 -23 111 -62 170 -89
l-7 -18c-65 20 -113 31 -182 44c9 19 17 44 19 63z" />
    <glyph glyph-name="Eacute" unicode="&#xc9;" horiz-adv-x="426" 
d="M55 583c85 -4 222 -4 337 -1l-2 -24c-101 -3 -162 -5 -254 -12c-4 -39 -5 -179 -5 -203c77 -2 145 1 222 3l2 -23c-57 -5 -159 -9 -225 -17c-1 -59 1 -204 3 -268c75 -10 161 -13 278 -16v-24c-235 3 -249 3 -363 0c13 85 16 532 7 585zM314 741c2 -19 10 -44 19 -63
c-69 -13 -117 -24 -182 -44l-7 18c59 27 132 66 170 89z" />
    <glyph glyph-name="Ecircumflex" unicode="&#xca;" horiz-adv-x="426" 
d="M55 583c85 -4 222 -4 337 -1l-2 -24c-101 -3 -162 -5 -254 -12c-4 -39 -5 -179 -5 -203c77 -2 145 1 222 3l2 -23c-57 -5 -159 -9 -225 -17c-1 -59 1 -204 3 -268c75 -10 161 -13 278 -16v-24c-235 3 -249 3 -363 0c13 85 16 532 7 585zM142 634c-3 4 -6 10 -7 20
c33 20 62 42 111 77c33 -28 66 -52 100 -76c-2 -7 -6 -13 -11 -19c-39 17 -59 28 -91 36c-33 -8 -60 -20 -102 -38z" />
    <glyph glyph-name="Edieresis" unicode="&#xcb;" horiz-adv-x="426" 
d="M55 583c85 -4 222 -4 337 -1l-2 -24c-101 -3 -162 -5 -254 -12c-4 -39 -5 -179 -5 -203c77 -2 145 1 222 3l2 -23c-57 -5 -159 -9 -225 -17c-1 -59 1 -204 3 -268c75 -10 161 -13 278 -16v-24c-235 3 -249 3 -363 0c13 85 16 532 7 585zM317 707c23 0 35 -12 35 -27
c0 -19 -26 -32 -48 -32c-16 0 -31 11 -31 24c0 18 23 35 44 35zM175 707c23 0 36 -12 36 -27c0 -19 -27 -32 -48 -32c-17 0 -31 11 -31 24c0 18 22 35 43 35z" />
    <glyph glyph-name="Igrave" unicode="&#xcc;" horiz-adv-x="184" 
d="M55 583c17 -4 59 -2 81 0c-15 -196 -14 -437 -6 -585c-26 3 -58 5 -82 2c13 133 14 424 7 583zM4 741c37 -23 111 -62 170 -89l-7 -18c-65 20 -113 31 -182 44c9 19 17 44 19 63z" />
    <glyph glyph-name="Iacute" unicode="&#xcd;" horiz-adv-x="184" 
d="M55 583c17 -4 59 -2 81 0c-15 -196 -14 -437 -6 -585c-26 3 -58 5 -82 2c13 133 14 424 7 583zM187 741c2 -19 10 -44 19 -63c-69 -13 -117 -24 -182 -44l-7 18c59 27 132 66 170 89z" />
    <glyph glyph-name="Icircumflex" unicode="&#xce;" horiz-adv-x="184" 
d="M55 583c17 -4 59 -2 81 0c-15 -196 -14 -437 -6 -585c-26 3 -58 5 -82 2c13 133 14 424 7 583zM-5 634c-3 4 -6 10 -7 20c33 20 62 42 111 77c33 -28 66 -52 100 -76c-2 -7 -6 -13 -11 -19c-39 17 -59 28 -91 36c-33 -8 -60 -20 -102 -38z" />
    <glyph glyph-name="Idieresis" unicode="&#xcf;" horiz-adv-x="184" 
d="M167 704c24 0 36 -11 36 -26c0 -19 -27 -30 -48 -30c-17 0 -31 9 -31 22c0 18 22 34 43 34zM37 704c23 0 35 -11 35 -26c0 -19 -26 -30 -48 -30c-17 0 -31 9 -31 22c0 18 23 34 44 34zM55 583c17 -4 59 -2 81 0c-15 -196 -14 -437 -6 -585c-26 3 -58 5 -82 2
c13 133 14 424 7 583z" />
    <glyph glyph-name="Eth" unicode="&#xd0;" horiz-adv-x="557" 
d="M253 582c135 -2 276 -64 276 -203c0 -227 -210 -375 -362 -378c-38 -1 -68 -2 -119 2c8 34 14 165 17 305h-53c-2 10 1 22 4 28c16 -1 32 -1 49 -1c2 88 2 178 -1 248c42 -2 162 -1 189 -1zM138 556c-3 -66 -5 -143 -6 -223c59 0 115 1 157 2c1 -10 -1 -19 -6 -29
c-52 2 -101 2 -151 2c-1 -95 0 -193 3 -277c12 -1 23 -1 37 -1c118 0 282 136 282 298c0 150 -98 222 -218 228c-35 1 -75 1 -98 0z" />
    <glyph glyph-name="Ntilde" unicode="&#xd1;" horiz-adv-x="608" 
d="M548 3l-24 -10c-134 164 -355 392 -431 476c-2 -134 21 -427 28 -460c-27 -6 -43 -7 -75 -23c17 86 24 414 19 596l23 11c109 -142 297 -326 425 -460c0 172 -8 342 -21 442c21 4 50 12 71 21c-14 -38 -25 -283 -23 -493c0 -27 3 -67 8 -100zM347 640
c-17 0 -54 18 -71 19c-24 0 -41 -8 -64 -23l-11 14c27 25 72 59 93 58c19 0 52 -16 72 -17c23 0 41 9 62 21l12 -14c-32 -30 -72 -58 -93 -58z" />
    <glyph glyph-name="Ograve" unicode="&#xd2;" horiz-adv-x="662" 
d="M357 594c154 0 268 -116 269 -279c1 -104 -52 -208 -137 -272c-44 -33 -124 -60 -192 -60c-201 0 -262 177 -262 293c2 83 44 202 146 266c40 26 116 52 176 52zM343 562c-127 0 -231 -98 -231 -284c0 -139 94 -262 208 -262c131 0 232 120 232 295
c-9 188 -138 251 -209 251zM257 741c37 -23 111 -62 170 -89l-7 -18c-65 20 -113 31 -182 44c9 19 17 44 19 63z" />
    <glyph glyph-name="Oacute" unicode="&#xd3;" horiz-adv-x="662" 
d="M357 594c154 0 268 -116 269 -279c1 -104 -52 -208 -137 -272c-44 -33 -124 -60 -192 -60c-201 0 -262 177 -262 293c2 83 44 202 146 266c40 26 116 52 176 52zM343 562c-127 0 -231 -98 -231 -284c0 -139 94 -262 208 -262c131 0 232 120 232 295
c-9 188 -138 251 -209 251zM429 741c2 -19 10 -44 19 -63c-69 -13 -117 -24 -182 -44l-7 18c59 27 132 66 170 89z" />
    <glyph glyph-name="Ocircumflex" unicode="&#xd4;" horiz-adv-x="662" 
d="M357 594c154 0 268 -116 269 -279c1 -104 -52 -208 -137 -272c-44 -33 -124 -60 -192 -60c-201 0 -262 177 -262 293c2 83 44 202 146 266c40 26 116 52 176 52zM343 562c-127 0 -231 -98 -231 -284c0 -139 94 -262 208 -262c131 0 232 120 232 295
c-9 188 -138 251 -209 251zM244 634c-3 4 -6 10 -7 20c33 20 62 42 111 77c33 -28 66 -52 100 -76c-2 -7 -6 -13 -11 -19c-39 17 -59 28 -91 36c-33 -8 -60 -20 -102 -38z" />
    <glyph glyph-name="Otilde" unicode="&#xd5;" horiz-adv-x="662" 
d="M357 594c154 0 268 -116 269 -279c1 -104 -52 -208 -137 -272c-44 -33 -124 -60 -192 -60c-201 0 -262 177 -262 293c2 83 44 202 146 266c40 26 116 52 176 52zM343 562c-127 0 -231 -98 -231 -284c0 -139 94 -262 208 -262c131 0 232 120 232 295
c-9 188 -138 251 -209 251zM377 640c-17 0 -54 18 -71 19c-24 0 -41 -8 -64 -23l-11 14c27 25 72 59 93 58c19 0 52 -16 72 -17c23 0 41 9 62 21l12 -14c-32 -30 -72 -58 -93 -58z" />
    <glyph glyph-name="Odieresis" unicode="&#xd6;" horiz-adv-x="662" 
d="M357 594c154 0 268 -116 269 -279c1 -104 -52 -208 -137 -272c-44 -33 -124 -60 -192 -60c-201 0 -262 177 -262 293c2 83 44 202 146 266c40 26 116 52 176 52zM343 562c-127 0 -231 -98 -231 -284c0 -139 94 -262 208 -262c131 0 232 120 232 295
c-9 188 -138 251 -209 251zM419 707c23 0 35 -12 35 -27c0 -19 -26 -32 -48 -32c-16 0 -31 11 -31 24c0 18 23 35 44 35zM277 707c23 0 36 -12 36 -27c0 -19 -27 -32 -48 -32c-17 0 -31 11 -31 24c0 18 22 35 43 35z" />
    <glyph glyph-name="multiply" unicode="&#xd7;" 
d="M82 363c32 -36 94 -102 128 -137c39 35 106 108 131 134c9 -7 18 -15 21 -26c-33 -30 -97 -97 -131 -130c35 -37 99 -102 135 -137c-6 -9 -13 -19 -22 -25c-34 36 -98 104 -134 141c-34 -32 -100 -96 -139 -136c-9 5 -19 20 -22 25c33 30 104 97 140 132
c-34 37 -96 101 -132 136c5 6 19 20 25 23z" />
    <glyph glyph-name="Oslash" unicode="&#xd8;" horiz-adv-x="662" 
d="M357 594c32 0 62 -5 90 -14l26 53c9 0 24 -4 28 -9l-27 -55c91 -43 151 -136 152 -254c1 -104 -52 -208 -137 -272c-44 -33 -124 -60 -192 -60c-39 0 -72 6 -101 17l-28 -58c-10 2 -18 1 -29 9l31 62c-101 56 -135 176 -135 263c2 83 44 202 146 266c40 26 116 52 176 52
zM451 524c-74 -151 -158 -323 -231 -474c30 -22 64 -34 100 -34c131 0 232 120 232 295c-5 108 -50 175 -101 213zM343 562c-127 0 -231 -98 -231 -284c0 -83 33 -161 85 -210l230 471c-30 16 -60 23 -84 23z" />
    <glyph glyph-name="Ugrave" unicode="&#xd9;" horiz-adv-x="579" 
d="M35 582c37 -2 59 -2 88 2c2 -140 8 -279 26 -402c12 -80 64 -162 148 -162c85 0 152 56 170 172c18 110 20 302 12 381c27 5 50 15 75 28c-16 -114 -36 -273 -53 -386c-18 -126 -77 -229 -217 -229c-144 0 -192 77 -212 218c-17 133 -20 264 -37 378zM221 741
c37 -23 111 -62 170 -89l-7 -18c-65 20 -113 31 -182 44c9 19 17 44 19 63z" />
    <glyph glyph-name="Uacute" unicode="&#xda;" horiz-adv-x="579" 
d="M35 582c37 -2 59 -2 88 2c2 -140 8 -279 26 -402c12 -80 64 -162 148 -162c85 0 152 56 170 172c18 110 20 302 12 381c27 5 50 15 75 28c-16 -114 -36 -273 -53 -386c-18 -126 -77 -229 -217 -229c-144 0 -192 77 -212 218c-17 133 -20 264 -37 378zM389 741
c2 -19 10 -44 19 -63c-69 -13 -117 -24 -182 -44l-7 18c59 27 132 66 170 89z" />
    <glyph glyph-name="Ucircumflex" unicode="&#xdb;" horiz-adv-x="579" 
d="M35 582c37 -2 59 -2 88 2c2 -140 8 -279 26 -402c12 -80 64 -162 148 -162c85 0 152 56 170 172c18 110 20 302 12 381c27 5 50 15 75 28c-16 -114 -36 -273 -53 -386c-18 -126 -77 -229 -217 -229c-144 0 -192 77 -212 218c-17 133 -20 264 -37 378zM211 634
c-3 4 -6 10 -7 20c33 20 62 42 111 77c33 -28 66 -52 100 -76c-2 -7 -6 -13 -11 -19c-39 17 -59 28 -91 36c-33 -8 -60 -20 -102 -38z" />
    <glyph glyph-name="Udieresis" unicode="&#xdc;" horiz-adv-x="579" 
d="M35 582c37 -2 59 -2 88 2c2 -140 8 -279 26 -402c12 -80 64 -162 148 -162c85 0 152 56 170 172c18 110 20 302 12 381c27 5 50 15 75 28c-16 -114 -36 -273 -53 -386c-18 -126 -77 -229 -217 -229c-144 0 -192 77 -212 218c-17 133 -20 264 -37 378zM382 707
c23 0 35 -12 35 -27c0 -19 -26 -32 -48 -32c-16 0 -31 11 -31 24c0 18 23 35 44 35zM240 707c23 0 36 -12 36 -27c0 -19 -27 -32 -48 -32c-17 0 -31 11 -31 24c0 18 22 35 43 35z" />
    <glyph glyph-name="Yacute" unicode="&#xdd;" horiz-adv-x="459" 
d="M5 583c49 -4 69 -3 110 0c30 -81 79 -170 131 -243c61 81 120 162 156 237c27 1 42 3 77 11c-96 -108 -136 -156 -223 -280c-4 -140 -2 -236 9 -309c-37 3 -55 4 -85 0c6 63 11 223 6 307c-40 79 -138 227 -181 277zM350 741c2 -19 10 -44 19 -63
c-69 -13 -117 -24 -182 -44l-7 18c59 27 132 66 170 89z" />
    <glyph glyph-name="Thorn" unicode="&#xde;" horiz-adv-x="451" 
d="M55 583c17 -4 59 -2 81 0c-4 -41 -6 -85 -8 -129c22 0 48 1 90 1c123 0 208 -11 208 -125c0 -69 -94 -144 -232 -179c-3 0 -8 15 -8 22c103 33 168 73 168 156c0 65 -62 97 -130 99c-48 2 -79 0 -97 -2c-5 -154 -3 -320 3 -428c-26 3 -58 5 -82 2c13 133 14 424 7 583z
" />
    <glyph glyph-name="germandbls" unicode="&#xdf;" 
d="M207 2c-1 6 2 16 4 24c68 -8 101 5 101 64c0 56 -37 101 -55 128c-21 32 -52 70 -52 103c0 27 29 74 58 127c22 39 30 65 30 103c0 47 -33 117 -92 117c-15 0 -36 -10 -47 -35c-17 -39 -22 -97 -22 -250c0 -103 2 -293 14 -385c-24 4 -63 3 -85 0c11 121 10 240 10 356
c-7 0 -20 1 -34 0c0 11 0 16 2 29h31c1 25 1 101 2 146c4 92 98 173 142 173c98 0 133 -64 133 -128c0 -36 -32 -88 -53 -126c-19 -34 -35 -71 -35 -101c0 -27 36 -76 54 -97c32 -38 59 -87 59 -141c-1 -96 -83 -124 -165 -107z" />
    <glyph glyph-name="agrave" unicode="&#xe0;" horiz-adv-x="375" 
d="M73 359c46 19 104 28 148 28c37 0 61 -10 80 -27c8 -7 19 -23 19 -49c-1 -51 -1 -192 0 -247c1 -16 1 -42 7 -66c-35 4 -36 4 -71 0c-2 11 -2 31 -2 39c-52 -17 -120 -46 -144 -46c-35 0 -51 5 -68 42c-6 13 -14 53 -11 72c7 54 50 77 91 87c40 10 90 19 132 24
c2 24 2 78 1 97c-4 34 -50 39 -89 39c-38 0 -79 -11 -87 -15c-4 5 -5 13 -6 22zM153 36c21 1 76 18 100 26c0 37 0 98 1 130c-37 -5 -70 -10 -109 -25c-38 -15 -50 -44 -48 -75c4 -38 24 -59 56 -56zM113 562c37 -23 111 -62 170 -89l-7 -18c-65 20 -113 31 -182 44
c9 19 17 44 19 63z" />
    <glyph glyph-name="aacute" unicode="&#xe1;" horiz-adv-x="375" 
d="M73 359c46 19 104 28 148 28c37 0 61 -10 80 -27c8 -7 19 -23 19 -49c-1 -51 -1 -192 0 -247c1 -16 1 -42 7 -66c-35 4 -36 4 -71 0c-2 11 -2 31 -2 39c-52 -17 -120 -46 -144 -46c-35 0 -51 5 -68 42c-6 13 -14 53 -11 72c7 54 50 77 91 87c40 10 90 19 132 24
c2 24 2 78 1 97c-4 34 -50 39 -89 39c-38 0 -79 -11 -87 -15c-4 5 -5 13 -6 22zM153 36c21 1 76 18 100 26c0 37 0 98 1 130c-37 -5 -70 -10 -109 -25c-38 -15 -50 -44 -48 -75c4 -38 24 -59 56 -56zM277 562c2 -19 10 -44 19 -63c-69 -13 -117 -24 -182 -44l-7 18
c59 27 132 66 170 89z" />
    <glyph glyph-name="acircumflex" unicode="&#xe2;" horiz-adv-x="375" 
d="M73 359c46 19 104 28 148 28c37 0 61 -10 80 -27c8 -7 19 -23 19 -49c-1 -51 -1 -192 0 -247c1 -16 1 -42 7 -66c-35 4 -36 4 -71 0c-2 11 -2 31 -2 39c-52 -17 -120 -46 -144 -46c-35 0 -51 5 -68 42c-6 13 -14 53 -11 72c7 54 50 77 91 87c40 10 90 19 132 24
c2 24 2 78 1 97c-4 34 -50 39 -89 39c-38 0 -79 -11 -87 -15c-4 5 -5 13 -6 22zM153 36c21 1 76 18 100 26c0 37 0 98 1 130c-37 -5 -70 -10 -109 -25c-38 -15 -50 -44 -48 -75c4 -38 24 -59 56 -56zM93 454c-3 4 -6 10 -7 20c33 20 62 42 111 77c33 -28 66 -52 100 -76
c-2 -7 -6 -13 -11 -19c-39 17 -59 28 -91 36c-33 -8 -60 -20 -102 -38z" />
    <glyph glyph-name="atilde" unicode="&#xe3;" horiz-adv-x="375" 
d="M73 359c46 19 104 28 148 28c37 0 61 -10 80 -27c8 -7 19 -23 19 -49c-1 -51 -1 -192 0 -247c1 -16 1 -42 7 -66c-35 4 -36 4 -71 0c-2 11 -2 31 -2 39c-52 -17 -120 -46 -144 -46c-35 0 -51 5 -68 42c-6 13 -14 53 -11 72c7 54 50 77 91 87c40 10 90 19 132 24
c2 24 2 78 1 97c-4 34 -50 39 -89 39c-38 0 -79 -11 -87 -15c-4 5 -5 13 -6 22zM153 36c21 1 76 18 100 26c0 37 0 98 1 130c-37 -5 -70 -10 -109 -25c-38 -15 -50 -44 -48 -75c4 -38 24 -59 56 -56zM223 474c-17 0 -54 18 -71 19c-24 0 -41 -8 -64 -23l-11 14
c27 25 72 59 93 58c19 0 52 -16 72 -17c23 0 41 9 62 21l12 -14c-32 -30 -72 -58 -93 -58z" />
    <glyph glyph-name="adieresis" unicode="&#xe4;" horiz-adv-x="375" 
d="M73 359c46 19 104 28 148 28c37 0 61 -10 80 -27c8 -7 19 -23 19 -49c-1 -51 -1 -192 0 -247c1 -16 1 -42 7 -66c-35 4 -36 4 -71 0c-2 11 -2 31 -2 39c-52 -17 -120 -46 -144 -46c-35 0 -51 5 -68 42c-6 13 -14 53 -11 72c7 54 50 77 91 87c40 10 90 19 132 24
c2 24 2 78 1 97c-4 34 -50 39 -89 39c-38 0 -79 -11 -87 -15c-4 5 -5 13 -6 22zM153 36c21 1 76 18 100 26c0 37 0 98 1 130c-37 -5 -70 -10 -109 -25c-38 -15 -50 -44 -48 -75c4 -38 24 -59 56 -56zM272 515c23 0 35 -12 35 -27c0 -19 -26 -32 -48 -32c-16 0 -31 11 -31 24
c0 18 23 35 44 35zM130 515c23 0 36 -12 36 -27c0 -19 -27 -32 -48 -32c-17 0 -31 11 -31 24c0 18 22 35 43 35z" />
    <glyph glyph-name="aring" unicode="&#xe5;" horiz-adv-x="375" 
d="M73 359c46 19 104 28 148 28c37 0 61 -10 80 -27c8 -7 19 -23 19 -49c-1 -51 -1 -192 0 -247c1 -16 1 -42 7 -66c-35 4 -36 4 -71 0c-2 11 -2 31 -2 39c-52 -17 -120 -46 -144 -46c-35 0 -51 5 -68 42c-6 13 -14 53 -11 72c7 54 50 77 91 87c40 10 90 19 132 24
c2 24 2 78 1 97c-4 34 -50 39 -89 39c-38 0 -79 -11 -87 -15c-4 5 -5 13 -6 22zM153 36c21 1 76 18 100 26c0 37 0 98 1 130c-37 -5 -70 -10 -109 -25c-38 -15 -50 -44 -48 -75c4 -38 24 -59 56 -56zM199 561c45 0 83 -16 83 -50c0 -47 -62 -68 -108 -67
c-44 1 -73 18 -73 52c0 37 45 65 98 65zM194 540c-26 0 -46 -16 -46 -40c0 -18 13 -34 38 -34c31 0 49 18 49 43c0 16 -20 31 -41 31z" />
    <glyph glyph-name="ae" unicode="&#xe6;" horiz-adv-x="613" 
d="M301 360c5 -5 14 -19 15 -35c40 48 92 67 128 67c62 0 97 -12 116 -40c16 -24 8 -73 -15 -93c-24 -21 -66 -31 -125 -31c-24 0 -73 2 -97 6l-2 -10c-12 -92 21 -198 121 -198c55 0 89 7 134 21c5 -6 7 -15 8 -20c-48 -19 -98 -37 -179 -37c-57 0 -97 22 -120 57
c-75 -35 -151 -56 -175 -56c-35 0 -51 5 -68 42c-6 13 -14 53 -11 72c7 54 50 77 91 87c40 10 90 19 132 24c4 25 4 78 1 97c-6 34 -50 39 -89 39c-38 0 -84 -10 -88 -14c-3 6 -4 10 -5 21c46 19 104 28 148 28c37 0 61 -10 80 -27zM153 35c22 0 98 22 122 31
c-15 37 -22 93 -21 125c-37 -5 -70 -9 -109 -23c-38 -14 -50 -46 -48 -76c4 -38 24 -57 56 -57zM414 253c30 0 60 6 77 27c9 12 13 42 6 55c-10 20 -23 32 -59 32c-46 0 -94 -54 -108 -107c14 -4 50 -7 84 -7z" />
    <glyph glyph-name="ccedilla" unicode="&#xe7;" horiz-adv-x="377" 
d="M136 -105c14 22 33 64 48 98c-90 0 -149 60 -149 173c0 130 97 222 219 222c29 0 50 -8 71 -17c-4 -9 -7 -15 -12 -21c-10 4 -38 10 -57 10c-107 0 -157 -93 -157 -192c0 -90 57 -142 110 -142c47 0 71 4 128 21c6 -8 8 -14 9 -22c-51 -18 -86 -29 -134 -32
c-10 -20 -20 -44 -26 -62c21 -15 49 -39 49 -69c0 -20 -28 -78 -68 -123c-5 2 -9 5 -14 10c15 24 33 60 33 91c0 17 -30 42 -50 55z" />
    <glyph glyph-name="egrave" unicode="&#xe8;" horiz-adv-x="390" 
d="M36 169c6 167 119 223 182 223c61 0 96 -12 115 -40c17 -24 8 -73 -15 -93c-24 -21 -66 -31 -124 -31c-25 0 -69 2 -93 6c-16 -93 16 -209 120 -209c54 0 88 9 132 23c5 -7 7 -16 9 -21c-48 -19 -98 -37 -179 -37c-106 0 -151 74 -147 179zM187 253c30 0 61 6 77 27
c9 12 13 42 6 55c-9 20 -22 32 -59 32c-46 0 -90 -54 -104 -107c14 -4 46 -7 80 -7zM129 562c37 -23 111 -62 170 -89l-7 -18c-65 20 -113 31 -182 44c9 19 17 44 19 63z" />
    <glyph glyph-name="eacute" unicode="&#xe9;" horiz-adv-x="390" 
d="M36 169c6 167 119 223 182 223c61 0 96 -12 115 -40c17 -24 8 -73 -15 -93c-24 -21 -66 -31 -124 -31c-25 0 -69 2 -93 6c-16 -93 16 -209 120 -209c54 0 88 9 132 23c5 -7 7 -16 9 -21c-48 -19 -98 -37 -179 -37c-106 0 -151 74 -147 179zM187 253c30 0 61 6 77 27
c9 12 13 42 6 55c-9 20 -22 32 -59 32c-46 0 -90 -54 -104 -107c14 -4 46 -7 80 -7zM297 562c2 -19 10 -44 19 -63c-69 -13 -117 -24 -182 -44l-7 18c59 27 132 66 170 89z" />
    <glyph glyph-name="ecircumflex" unicode="&#xea;" horiz-adv-x="390" 
d="M36 169c6 167 119 223 182 223c61 0 96 -12 115 -40c17 -24 8 -73 -15 -93c-24 -21 -66 -31 -124 -31c-25 0 -69 2 -93 6c-16 -93 16 -209 120 -209c54 0 88 9 132 23c5 -7 7 -16 9 -21c-48 -19 -98 -37 -179 -37c-106 0 -151 74 -147 179zM187 253c30 0 61 6 77 27
c9 12 13 42 6 55c-9 20 -22 32 -59 32c-46 0 -90 -54 -104 -107c14 -4 46 -7 80 -7zM120 454c-3 4 -6 10 -7 20c33 20 62 42 111 77c33 -28 66 -52 100 -76c-2 -7 -6 -13 -11 -19c-39 17 -59 28 -91 36c-33 -8 -60 -20 -102 -38z" />
    <glyph glyph-name="edieresis" unicode="&#xeb;" horiz-adv-x="390" 
d="M36 169c6 167 119 223 182 223c61 0 96 -12 115 -40c17 -24 8 -73 -15 -93c-24 -21 -66 -31 -124 -31c-25 0 -69 2 -93 6c-16 -93 16 -209 120 -209c54 0 88 9 132 23c5 -7 7 -16 9 -21c-48 -19 -98 -37 -179 -37c-106 0 -151 74 -147 179zM187 253c30 0 61 6 77 27
c9 12 13 42 6 55c-9 20 -22 32 -59 32c-46 0 -90 -54 -104 -107c14 -4 46 -7 80 -7zM288 515c23 0 35 -12 35 -27c0 -19 -26 -32 -48 -32c-16 0 -31 11 -31 24c0 18 23 35 44 35zM146 515c23 0 36 -12 36 -27c0 -19 -27 -32 -48 -32c-17 0 -31 11 -31 24c0 18 22 35 43 35z
" />
    <glyph glyph-name="igrave" unicode="&#xec;" horiz-adv-x="183" 
d="M38 616c28 -34 83 -96 128 -142l-12 -15c-53 41 -95 69 -156 105c15 14 31 35 40 52zM49 0c11 92 10 298 -1 379c29 1 52 6 79 12c-10 -64 -6 -317 7 -393c-26 8 -72 3 -85 2z" />
    <glyph glyph-name="iacute" unicode="&#xed;" horiz-adv-x="183" 
d="M162 603c8 -18 22 -40 36 -55c-63 -32 -106 -56 -163 -93l-12 15c49 43 109 100 139 133zM49 0c11 92 10 298 -1 379c29 1 52 6 79 12c-10 -64 -6 -317 7 -393c-26 8 -72 3 -85 2z" />
    <glyph glyph-name="icircumflex" unicode="&#xee;" horiz-adv-x="183" 
d="M49 0c11 92 10 298 -1 379c29 1 52 6 79 12c-10 -64 -6 -317 7 -393c-26 8 -72 3 -85 2zM-7 454c-3 4 -6 10 -7 20c33 20 62 42 111 77c33 -28 66 -52 100 -76c-2 -7 -6 -13 -11 -19c-39 17 -59 28 -91 36c-33 -8 -60 -20 -102 -38z" />
    <glyph glyph-name="idieresis" unicode="&#xef;" horiz-adv-x="183" 
d="M167 513c24 0 36 -11 36 -26c0 -19 -27 -31 -48 -31c-17 0 -31 9 -31 23c0 18 22 34 43 34zM30 513c23 0 36 -11 36 -26c0 -19 -27 -31 -49 -31c-16 0 -30 9 -30 23c0 18 22 34 43 34zM49 0c11 92 10 298 -1 379c29 1 52 6 79 12c-10 -64 -6 -317 7 -393
c-26 8 -72 3 -85 2z" />
    <glyph glyph-name="eth" unicode="&#xf0;" horiz-adv-x="488" 
d="M95 521c54 18 128 45 195 70c-50 52 -119 88 -203 84c-2 7 -3 17 0 23c109 9 194 -28 255 -88c31 11 58 22 78 30c4 -10 8 -16 7 -27l-67 -22c67 -78 99 -185 99 -281c0 -114 -38 -202 -96 -259c-36 -35 -110 -63 -166 -63c-120 0 -171 96 -163 211
c9 122 124 197 239 195c36 0 82 -10 113 -19c-5 65 -33 139 -80 197c-64 -23 -133 -49 -203 -75c-6 7 -9 18 -8 24zM228 22c140 0 178 215 161 322c-34 17 -100 20 -111 19c-106 -8 -173 -81 -176 -187c-3 -84 51 -154 126 -154z" />
    <glyph glyph-name="ntilde" unicode="&#xf1;" horiz-adv-x="469" 
d="M50 381c23 3 50 7 80 14c-3 -16 -4 -30 -5 -43c56 26 111 40 137 40c77 0 137 -46 144 -148c13 -188 18 -221 21 -246c-29 4 -48 6 -81 0c8 49 0 209 -4 233c-10 63 -25 118 -101 118c-50 0 -92 -11 -116 -19c-4 -76 -2 -200 5 -332c-28 4 -51 7 -82 0
c13 122 9 292 2 383zM273 474c-17 0 -54 18 -71 19c-24 0 -41 -8 -64 -23l-11 14c27 25 72 59 93 58c19 0 52 -16 72 -17c23 0 41 9 62 21l12 -14c-32 -30 -72 -58 -93 -58z" />
    <glyph glyph-name="ograve" unicode="&#xf2;" horiz-adv-x="458" 
d="M241 391c125 0 176 -84 176 -190c0 -53 -27 -125 -76 -164c-36 -29 -94 -47 -139 -47c-127 0 -172 111 -170 188c0 70 35 137 85 170c32 22 85 43 124 43zM228 360c-25 0 -52 -7 -71 -23c-37 -30 -58 -91 -58 -158c0 -60 36 -159 113 -159c25 0 56 7 74 19
c45 33 67 103 65 161c-3 87 -57 160 -123 160zM149 562c37 -23 111 -62 170 -89l-7 -18c-65 20 -113 31 -182 44c9 19 17 44 19 63z" />
    <glyph glyph-name="oacute" unicode="&#xf3;" horiz-adv-x="458" 
d="M241 391c125 0 176 -84 176 -190c0 -53 -27 -125 -76 -164c-36 -29 -94 -47 -139 -47c-127 0 -172 111 -170 188c0 70 35 137 85 170c32 22 85 43 124 43zM228 360c-25 0 -52 -7 -71 -23c-37 -30 -58 -91 -58 -158c0 -60 36 -159 113 -159c25 0 56 7 74 19
c45 33 67 103 65 161c-3 87 -57 160 -123 160zM320 562c2 -19 10 -44 19 -63c-69 -13 -117 -24 -182 -44l-7 18c59 27 132 66 170 89z" />
    <glyph glyph-name="ocircumflex" unicode="&#xf4;" horiz-adv-x="458" 
d="M241 391c125 0 176 -84 176 -190c0 -53 -27 -125 -76 -164c-36 -29 -94 -47 -139 -47c-127 0 -172 111 -170 188c0 70 35 137 85 170c32 22 85 43 124 43zM228 360c-25 0 -52 -7 -71 -23c-37 -30 -58 -91 -58 -158c0 -60 36 -159 113 -159c25 0 56 7 74 19
c45 33 67 103 65 161c-3 87 -57 160 -123 160zM135 454c-3 4 -6 10 -7 20c33 20 62 42 111 77c33 -28 66 -52 100 -76c-2 -7 -6 -13 -11 -19c-39 17 -59 28 -91 36c-33 -8 -60 -20 -102 -38z" />
    <glyph glyph-name="otilde" unicode="&#xf5;" horiz-adv-x="458" 
d="M241 391c125 0 176 -84 176 -190c0 -53 -27 -125 -76 -164c-36 -29 -94 -47 -139 -47c-127 0 -172 111 -170 188c0 70 35 137 85 170c32 22 85 43 124 43zM228 360c-25 0 -52 -7 -71 -23c-37 -30 -58 -91 -58 -158c0 -60 36 -159 113 -159c25 0 56 7 74 19
c45 33 67 103 65 161c-3 87 -57 160 -123 160zM265 474c-17 0 -54 18 -71 19c-24 0 -41 -8 -64 -23l-11 14c27 25 72 59 93 58c19 0 52 -16 72 -17c23 0 41 9 62 21l12 -14c-32 -30 -72 -58 -93 -58z" />
    <glyph glyph-name="odieresis" unicode="&#xf6;" horiz-adv-x="458" 
d="M241 391c125 0 176 -84 176 -190c0 -53 -27 -125 -76 -164c-36 -29 -94 -47 -139 -47c-127 0 -172 111 -170 188c0 70 35 137 85 170c32 22 85 43 124 43zM228 360c-25 0 -52 -7 -71 -23c-37 -30 -58 -91 -58 -158c0 -60 36 -159 113 -159c25 0 56 7 74 19
c45 33 67 103 65 161c-3 87 -57 160 -123 160zM309 515c23 0 35 -12 35 -27c0 -19 -26 -32 -48 -32c-16 0 -31 11 -31 24c0 18 23 35 44 35zM167 515c23 0 36 -12 36 -27c0 -19 -27 -32 -48 -32c-17 0 -31 11 -31 24c0 18 22 35 43 35z" />
    <glyph glyph-name="divide" unicode="&#xf7;" horiz-adv-x="388" 
d="M38 221c101 -3 241 -3 316 -2c1 -11 -1 -20 -6 -30c-97 2 -188 3 -313 2c-3 8 1 24 3 30zM199 359c23 0 36 -11 36 -26c0 -19 -27 -31 -49 -31c-16 0 -30 9 -30 23c0 18 22 34 43 34zM199 108c23 0 36 -11 36 -26c0 -19 -27 -30 -49 -30c-16 0 -30 9 -30 22
c0 18 22 34 43 34z" />
    <glyph glyph-name="oslash" unicode="&#xf8;" horiz-adv-x="458" 
d="M241 391c21 0 39 -2 56 -7c7 17 14 34 23 52c9 -1 21 -4 26 -8l-24 -52c66 -29 95 -96 95 -175c0 -53 -27 -125 -76 -164c-36 -29 -94 -47 -139 -47c-19 0 -36 3 -51 7l-22 -51c-11 2 -16 1 -26 7l23 53c-69 34 -95 113 -94 172c0 70 35 137 85 170c32 22 85 43 124 43z
M300 328l-133 -295c13 -8 28 -13 45 -13c25 0 56 7 74 19c45 33 67 103 65 161c-2 52 -22 98 -51 128zM228 360c-25 0 -52 -7 -71 -23c-37 -30 -58 -91 -58 -158c0 -39 16 -95 48 -129c50 110 83 183 132 294c-15 10 -32 16 -51 16z" />
    <glyph glyph-name="ugrave" unicode="&#xf9;" horiz-adv-x="458" 
d="M130 390c-8 -70 -13 -131 -13 -201c1 -56 -5 -152 70 -152c38 0 105 10 144 23c4 39 4 248 -5 317c18 1 54 5 80 11c-11 -89 -9 -344 3 -382c-29 -4 -43 -4 -74 -10c-3 16 -2 26 -3 40c-47 -15 -126 -41 -190 -41c-85 0 -90 77 -90 159c0 102 0 193 -4 226
c31 1 58 4 82 10zM155 562c37 -23 111 -62 170 -89l-7 -18c-65 20 -113 31 -182 44c9 19 17 44 19 63z" />
    <glyph glyph-name="uacute" unicode="&#xfa;" horiz-adv-x="458" 
d="M130 390c-8 -70 -13 -131 -13 -201c1 -56 -5 -152 70 -152c38 0 105 10 144 23c4 39 4 248 -5 317c18 1 54 5 80 11c-11 -89 -9 -344 3 -382c-29 -4 -43 -4 -74 -10c-3 16 -2 26 -3 40c-47 -15 -126 -41 -190 -41c-85 0 -90 77 -90 159c0 102 0 193 -4 226
c31 1 58 4 82 10zM324 562c2 -19 10 -44 19 -63c-69 -13 -117 -24 -182 -44l-7 18c59 27 132 66 170 89z" />
    <glyph glyph-name="ucircumflex" unicode="&#xfb;" horiz-adv-x="458" 
d="M130 390c-8 -70 -13 -131 -13 -201c1 -56 -5 -152 70 -152c38 0 105 10 144 23c4 39 4 248 -5 317c18 1 54 5 80 11c-11 -89 -9 -344 3 -382c-29 -4 -43 -4 -74 -10c-3 16 -2 26 -3 40c-47 -15 -126 -41 -190 -41c-85 0 -90 77 -90 159c0 102 0 193 -4 226
c31 1 58 4 82 10zM136 454c-3 4 -6 10 -7 20c33 20 62 42 111 77c33 -28 66 -52 100 -76c-2 -7 -6 -13 -11 -19c-39 17 -59 28 -91 36c-33 -8 -60 -20 -102 -38z" />
    <glyph glyph-name="udieresis" unicode="&#xfc;" horiz-adv-x="458" 
d="M130 390c-8 -70 -13 -131 -13 -201c1 -56 -5 -152 70 -152c38 0 105 10 144 23c4 39 4 248 -5 317c18 1 54 5 80 11c-11 -89 -9 -344 3 -382c-29 -4 -43 -4 -74 -10c-3 16 -2 26 -3 40c-47 -15 -126 -41 -190 -41c-85 0 -90 77 -90 159c0 102 0 193 -4 226
c31 1 58 4 82 10zM309 515c23 0 35 -12 35 -27c0 -19 -26 -32 -48 -32c-16 0 -31 11 -31 24c0 18 23 35 44 35zM167 515c23 0 36 -12 36 -27c0 -19 -27 -32 -48 -32c-17 0 -31 11 -31 24c0 18 22 35 43 35z" />
    <glyph glyph-name="yacute" unicode="&#xfd;" horiz-adv-x="456" 
d="M7 387c33 -8 81 -4 105 -1c5 -31 104 -253 142 -305c51 100 106 243 111 296c21 -1 53 3 89 13c-73 -116 -142 -243 -195 -363c-33 -76 -33 -85 -65 -161c-28 -66 -64 -116 -169 -141c-3 7 -3 21 -3 21c88 39 150 130 195 247c-43 104 -145 309 -210 394zM338 562
c2 -19 10 -44 19 -63c-69 -13 -117 -24 -182 -44l-7 18c59 27 132 66 170 89z" />
    <glyph glyph-name="thorn" unicode="&#xfe;" horiz-adv-x="442" 
d="M51 683c22 3 55 14 84 26c-8 -76 -13 -209 -10 -349c38 15 70 29 121 29c111 0 166 -62 163 -166c-6 -165 -115 -231 -216 -231c-25 0 -50 3 -71 10c4 -135 6 -219 20 -268c-29 0 -77 -8 -97 -11c15 175 18 423 16 640c-2 123 -4 235 -10 320zM123 30
c18 -7 38 -10 59 -10c79 0 156 59 161 201c2 52 -23 138 -116 138c-24 0 -75 -10 -102 -23c-4 -71 -2 -264 -2 -306z" />
    <glyph glyph-name="ydieresis" unicode="&#xff;" horiz-adv-x="456" 
d="M7 387c33 -8 81 -4 105 -1c5 -31 104 -253 142 -305c51 100 106 243 111 296c21 -1 53 3 89 13c-73 -116 -142 -243 -195 -363c-33 -76 -33 -85 -65 -161c-28 -66 -64 -116 -169 -141c-3 7 -3 21 -3 21c88 39 150 130 195 247c-43 104 -145 309 -210 394zM323 515
c23 0 35 -12 35 -27c0 -19 -26 -32 -48 -32c-16 0 -31 11 -31 24c0 18 23 35 44 35zM181 515c23 0 36 -12 36 -27c0 -19 -27 -32 -48 -32c-17 0 -31 11 -31 24c0 18 22 35 43 35z" />
    <glyph glyph-name="Amacron" unicode="&#x100;" horiz-adv-x="509" 
d="M333 235c-54 -2 -143 -10 -190 -14c-40 -95 -61 -155 -75 -217c-20 1 -50 -5 -75 -11c83 144 148 288 217 448c32 72 41 102 51 147c11 5 15 5 27 10c67 -233 134 -426 205 -600c-42 5 -72 3 -95 0c-12 61 -39 148 -65 237zM256 481l-98 -227c53 -1 120 2 167 6
c-22 82 -47 145 -69 221zM164 685c101 -3 149 -3 224 -2c1 -11 0 -21 -5 -31c-97 3 -97 4 -222 3c-4 8 1 24 3 30z" />
    <glyph glyph-name="amacron" unicode="&#x101;" horiz-adv-x="375" 
d="M73 359c46 19 104 28 148 28c37 0 61 -10 80 -27c8 -7 19 -23 19 -49c-1 -51 -1 -192 0 -247c1 -16 1 -42 7 -66c-35 4 -36 4 -71 0c-2 11 -2 31 -2 39c-52 -17 -120 -46 -144 -46c-35 0 -51 5 -68 42c-6 13 -14 53 -11 72c7 54 50 77 91 87c40 10 90 19 132 24
c2 24 2 78 1 97c-4 34 -50 39 -89 39c-38 0 -79 -11 -87 -15c-4 5 -5 13 -6 22zM153 36c21 1 76 18 100 26c0 37 0 98 1 130c-37 -5 -70 -10 -109 -25c-38 -15 -50 -44 -48 -75c4 -38 24 -59 56 -56zM82 498c101 -3 149 -3 224 -2c1 -11 0 -21 -5 -31c-97 3 -97 4 -222 3
c-4 8 1 24 3 30z" />
    <glyph glyph-name="Abreve" unicode="&#x102;" horiz-adv-x="509" 
d="M333 235c-54 -2 -143 -10 -190 -14c-40 -95 -61 -155 -75 -217c-20 1 -50 -5 -75 -11c83 144 148 288 217 448c32 72 41 102 51 147c11 5 15 5 27 10c67 -233 134 -426 205 -600c-42 5 -72 3 -95 0c-12 61 -39 148 -65 237zM256 481l-98 -227c53 -1 120 2 167 6
c-22 82 -47 145 -69 221zM368 735c7 -2 12 -2 17 -7c-14 -60 -65 -99 -113 -99c-50 0 -91 44 -101 99c4 4 13 6 18 7c18 -31 46 -53 86 -53c37 0 74 20 93 53z" />
    <glyph glyph-name="abreve" unicode="&#x103;" horiz-adv-x="375" 
d="M73 359c46 19 104 28 148 28c37 0 61 -10 80 -27c8 -7 19 -23 19 -49c-1 -51 -1 -192 0 -247c1 -16 1 -42 7 -66c-35 4 -36 4 -71 0c-2 11 -2 31 -2 39c-52 -17 -120 -46 -144 -46c-35 0 -51 5 -68 42c-6 13 -14 53 -11 72c7 54 50 77 91 87c40 10 90 19 132 24
c2 24 2 78 1 97c-4 34 -50 39 -89 39c-38 0 -79 -11 -87 -15c-4 5 -5 13 -6 22zM153 36c21 1 76 18 100 26c0 37 0 98 1 130c-37 -5 -70 -10 -109 -25c-38 -15 -50 -44 -48 -75c4 -38 24 -59 56 -56zM281 549c7 -2 12 -2 17 -7c-14 -60 -65 -99 -113 -99
c-50 0 -91 44 -101 99c4 4 13 6 18 7c18 -31 46 -53 86 -53c37 0 74 20 93 53z" />
    <glyph glyph-name="Aogonek" unicode="&#x104;" horiz-adv-x="509" 
d="M488 -104c1 -6 2 -13 1 -20c-34 -8 -65 -16 -94 -16s-54 16 -54 48c0 28 28 64 57 90c-12 61 -39 148 -65 237c-54 -2 -143 -10 -190 -14c-40 -95 -61 -155 -75 -217c-20 1 -50 -5 -75 -11c83 144 148 288 217 448c32 72 41 102 51 147c11 5 15 5 27 10
c67 -233 134 -426 205 -600c-26 3 -48 4 -66 3c-15 -18 -27 -45 -27 -65c0 -31 11 -44 41 -44c15 0 38 3 47 4zM256 481l-98 -227c53 -1 120 2 167 6c-22 82 -47 145 -69 221z" />
    <glyph glyph-name="aogonek" unicode="&#x105;" horiz-adv-x="375" 
d="M345 -104c2 -6 2 -13 2 -20c-34 -8 -66 -16 -94 -16c-30 0 -54 16 -54 48c0 28 27 64 57 91c-2 10 -2 30 -2 38c-52 -17 -120 -46 -144 -46c-35 0 -51 5 -68 42c-6 13 -14 53 -11 72c7 54 50 77 91 87c40 10 90 19 132 24c2 24 2 78 1 97c-4 34 -50 39 -89 39
c-38 0 -79 -11 -87 -15c-4 5 -5 13 -6 22c46 19 104 28 148 28c37 0 61 -10 80 -27c8 -7 19 -23 19 -49c-1 -51 -1 -192 0 -247c1 -16 1 -42 7 -66c-22 2 -31 3 -43 3c-14 -18 -27 -45 -27 -65c0 -31 11 -44 41 -44c15 0 38 3 47 4zM153 36c21 1 76 18 100 26
c0 37 0 98 1 130c-37 -5 -70 -10 -109 -25c-38 -15 -50 -44 -48 -75c4 -38 24 -59 56 -56z" />
    <glyph glyph-name="Cacute" unicode="&#x106;" horiz-adv-x="538" 
d="M292 -14c-186 3 -259 138 -259 259c0 166 123 350 342 350c31 0 82 -14 114 -36c-1 -4 -9 -16 -14 -20c-25 14 -75 23 -105 23c-148 0 -264 -133 -264 -312c0 -95 69 -220 214 -222c52 -1 114 17 174 47c6 -6 9 -10 11 -21c-55 -31 -145 -68 -213 -68zM401 741
c2 -19 10 -44 19 -63c-69 -13 -117 -24 -182 -44l-7 18c59 27 132 66 170 89z" />
    <glyph glyph-name="cacute" unicode="&#x107;" horiz-adv-x="377" 
d="M325 371c-4 -9 -7 -15 -12 -21c-10 4 -38 10 -57 10c-107 0 -157 -93 -157 -192c0 -90 57 -142 110 -142c47 0 71 4 128 21c6 -8 8 -14 9 -22c-61 -22 -98 -32 -161 -32c-91 0 -150 60 -150 173c0 130 97 222 219 222c29 0 50 -8 71 -17zM291 562c2 -19 10 -44 19 -63
c-69 -13 -117 -24 -182 -44l-7 18c59 27 132 66 170 89z" />
    <glyph glyph-name="Ccircumflex" unicode="&#x108;" horiz-adv-x="538" 
d="M292 -14c-186 3 -259 138 -259 259c0 166 123 350 342 350c31 0 82 -14 114 -36c-1 -4 -9 -16 -14 -20c-25 14 -75 23 -105 23c-148 0 -264 -133 -264 -312c0 -95 69 -220 214 -222c52 -1 114 17 174 47c6 -6 9 -10 11 -21c-55 -31 -145 -68 -213 -68zM227 634
c-3 4 -6 10 -7 20c33 20 62 42 111 77c33 -28 66 -52 100 -76c-2 -7 -6 -13 -11 -19c-39 17 -59 28 -91 36c-33 -8 -60 -20 -102 -38z" />
    <glyph glyph-name="ccircumflex" unicode="&#x109;" horiz-adv-x="377" 
d="M325 371c-4 -9 -7 -15 -12 -21c-10 4 -38 10 -57 10c-107 0 -157 -93 -157 -192c0 -90 57 -142 110 -142c47 0 71 4 128 21c6 -8 8 -14 9 -22c-61 -22 -98 -32 -161 -32c-91 0 -150 60 -150 173c0 130 97 222 219 222c29 0 50 -8 71 -17zM114 454c-3 4 -6 10 -7 20
c33 20 62 42 111 77c33 -28 66 -52 100 -76c-2 -7 -6 -13 -11 -19c-39 17 -59 28 -91 36c-33 -8 -60 -20 -102 -38z" />
    <glyph glyph-name="Cdotaccent" unicode="&#x10a;" horiz-adv-x="538" 
d="M292 -14c-186 3 -259 138 -259 259c0 166 123 350 342 350c31 0 82 -14 114 -36c-1 -4 -9 -16 -14 -20c-25 14 -75 23 -105 23c-148 0 -264 -133 -264 -312c0 -95 69 -220 214 -222c52 -1 114 17 174 47c6 -6 9 -10 11 -21c-55 -31 -145 -68 -213 -68zM339 715
c31 0 37 -19 37 -29c0 -17 -23 -37 -52 -37c-20 0 -36 9 -36 30c0 15 18 36 51 36z" />
    <glyph glyph-name="cdotaccent" unicode="&#x10b;" horiz-adv-x="377" 
d="M325 371c-4 -9 -7 -15 -12 -21c-10 4 -38 10 -57 10c-107 0 -157 -93 -157 -192c0 -90 57 -142 110 -142c47 0 71 4 128 21c6 -8 8 -14 9 -22c-61 -22 -98 -32 -161 -32c-91 0 -150 60 -150 173c0 130 97 222 219 222c29 0 50 -8 71 -17zM223 528c31 0 37 -19 37 -29
c0 -17 -23 -37 -52 -37c-20 0 -36 9 -36 30c0 15 18 36 51 36z" />
    <glyph glyph-name="Ccaron" unicode="&#x10c;" horiz-adv-x="538" 
d="M292 -14c-186 3 -259 138 -259 259c0 166 123 350 342 350c31 0 82 -14 114 -36c-1 -4 -9 -16 -14 -20c-25 14 -75 23 -105 23c-148 0 -264 -133 -264 -312c0 -95 69 -220 214 -222c52 -1 114 17 174 47c6 -6 9 -10 11 -21c-55 -31 -145 -68 -213 -68zM425 726
c3 -4 6 -10 7 -20c-33 -20 -62 -42 -111 -77c-33 28 -66 52 -100 76c2 7 6 13 11 19c39 -17 59 -28 91 -36c33 8 60 20 102 38z" />
    <glyph glyph-name="ccaron" unicode="&#x10d;" horiz-adv-x="377" 
d="M325 371c-4 -9 -7 -15 -12 -21c-10 4 -38 10 -57 10c-107 0 -157 -93 -157 -192c0 -90 57 -142 110 -142c47 0 71 4 128 21c6 -8 8 -14 9 -22c-61 -22 -98 -32 -161 -32c-91 0 -150 60 -150 173c0 130 97 222 219 222c29 0 50 -8 71 -17zM317 550c3 -4 6 -10 7 -20
c-33 -20 -62 -42 -111 -77c-33 28 -66 52 -100 76c2 7 6 13 11 19c39 -17 59 -28 91 -36c33 8 60 20 102 38z" />
    <glyph glyph-name="Dcaron" unicode="&#x10e;" horiz-adv-x="557" 
d="M253 582c135 -2 276 -64 276 -203c0 -227 -210 -375 -362 -378c-38 -1 -68 -2 -119 2c14 58 23 392 16 580c42 -2 162 -1 189 -1zM138 556c-6 -151 -8 -364 -3 -525c12 -1 23 -1 37 -1c118 0 282 136 282 298c0 150 -98 222 -218 228c-35 1 -75 1 -98 0zM362 726
c3 -4 6 -10 7 -20c-33 -20 -62 -42 -111 -77c-33 28 -66 52 -100 76c2 7 6 13 11 19c39 -17 59 -28 91 -36c33 8 60 20 102 38z" />
    <glyph glyph-name="dcaron" unicode="&#x10f;" horiz-adv-x="456" 
d="M486 702c25 0 38 -17 38 -53c0 -48 -35 -120 -76 -195l-19 8c23 57 30 90 30 122c0 34 -17 53 -17 76c0 17 16 42 44 42zM229 392c40 0 77 -11 105 -17c1 79 -2 267 -12 309c40 9 53 12 87 30c-14 -54 -14 -346 -10 -536c1 -61 5 -110 10 -129c-60 -24 -139 -61 -206 -61
c-109 0 -170 54 -166 180c3 132 86 224 192 224zM226 362c-34 0 -120 -45 -122 -196c-1 -82 54 -146 111 -146c50 0 89 14 113 25c4 85 5 241 4 303c-33 9 -64 14 -106 14z" />
    <glyph glyph-name="Dcroat" unicode="&#x110;" horiz-adv-x="557" 
d="M253 582c135 -2 276 -64 276 -203c0 -227 -210 -375 -362 -378c-38 -1 -68 -2 -119 2c8 34 14 165 17 305h-53c-2 10 1 22 4 28c16 -1 32 -1 49 -1c2 88 2 178 -1 248c42 -2 162 -1 189 -1zM138 556c-3 -66 -5 -143 -6 -223c59 0 115 1 157 2c1 -10 -1 -19 -6 -29
c-52 2 -101 2 -151 2c-1 -95 0 -193 3 -277c12 -1 23 -1 37 -1c118 0 282 136 282 298c0 150 -98 222 -218 228c-35 1 -75 1 -98 0z" />
    <glyph glyph-name="dcroat" unicode="&#x111;" horiz-adv-x="456" 
d="M229 392c40 0 77 -11 105 -17c0 33 0 86 -1 139h-146c-3 8 1 22 3 28c51 -1 98 -2 142 -2c-2 63 -5 123 -10 144c40 9 53 12 87 30c-6 -23 -9 -90 -12 -174c18 0 37 0 54 1c1 -11 -1 -20 -6 -30l-48 2c-2 -107 -1 -235 2 -335c1 -61 5 -110 10 -129
c-60 -24 -139 -61 -206 -61c-109 0 -170 54 -166 180c3 132 86 224 192 224zM226 362c-34 0 -120 -45 -122 -196c-1 -82 54 -146 111 -146c50 0 89 14 113 25c4 85 5 241 4 303c-33 9 -64 14 -106 14z" />
    <glyph glyph-name="Emacron" unicode="&#x112;" horiz-adv-x="426" 
d="M55 583c85 -4 222 -4 337 -1l-2 -24c-101 -3 -162 -5 -254 -12c-4 -39 -5 -179 -5 -203c77 -2 145 1 222 3l2 -23c-57 -5 -159 -9 -225 -17c-1 -59 1 -204 3 -268c75 -10 161 -13 278 -16v-24c-235 3 -249 3 -363 0c13 85 16 532 7 585zM125 685c101 -3 149 -3 224 -2
c1 -11 0 -21 -5 -31c-97 3 -97 4 -222 3c-4 8 1 24 3 30z" />
    <glyph glyph-name="emacron" unicode="&#x113;" horiz-adv-x="390" 
d="M36 169c6 167 119 223 182 223c61 0 96 -12 115 -40c17 -24 8 -73 -15 -93c-24 -21 -66 -31 -124 -31c-25 0 -69 2 -93 6c-16 -93 16 -209 120 -209c54 0 88 9 132 23c5 -7 7 -16 9 -21c-48 -19 -98 -37 -179 -37c-106 0 -151 74 -147 179zM187 253c30 0 61 6 77 27
c9 12 13 42 6 55c-9 20 -22 32 -59 32c-46 0 -90 -54 -104 -107c14 -4 46 -7 80 -7zM97 498c101 -3 149 -3 224 -2c1 -11 0 -21 -5 -31c-97 3 -97 4 -222 3c-4 8 1 24 3 30z" />
    <glyph glyph-name="Ebreve" unicode="&#x114;" horiz-adv-x="426" 
d="M55 583c85 -4 222 -4 337 -1l-2 -24c-101 -3 -162 -5 -254 -12c-4 -39 -5 -179 -5 -203c77 -2 145 1 222 3l2 -23c-57 -5 -159 -9 -225 -17c-1 -59 1 -204 3 -268c75 -10 161 -13 278 -16v-24c-235 3 -249 3 -363 0c13 85 16 532 7 585zM319 733c7 -2 12 -2 17 -7
c-14 -60 -65 -99 -113 -99c-50 0 -91 44 -101 99c4 4 13 6 18 7c18 -31 46 -53 86 -53c37 0 74 20 93 53z" />
    <glyph glyph-name="ebreve" unicode="&#x115;" horiz-adv-x="390" 
d="M36 169c6 167 119 223 182 223c61 0 96 -12 115 -40c17 -24 8 -73 -15 -93c-24 -21 -66 -31 -124 -31c-25 0 -69 2 -93 6c-16 -93 16 -209 120 -209c54 0 88 9 132 23c5 -7 7 -16 9 -21c-48 -19 -98 -37 -179 -37c-106 0 -151 74 -147 179zM187 253c30 0 61 6 77 27
c9 12 13 42 6 55c-9 20 -22 32 -59 32c-46 0 -90 -54 -104 -107c14 -4 46 -7 80 -7zM302 549c7 -2 12 -2 17 -7c-14 -60 -65 -99 -113 -99c-50 0 -91 44 -101 99c4 4 13 6 18 7c18 -31 46 -53 86 -53c37 0 74 20 93 53z" />
    <glyph glyph-name="Edotaccent" unicode="&#x116;" horiz-adv-x="426" 
d="M55 583c85 -4 222 -4 337 -1l-2 -24c-101 -3 -162 -5 -254 -12c-4 -39 -5 -179 -5 -203c77 -2 145 1 222 3l2 -23c-57 -5 -159 -9 -225 -17c-1 -59 1 -204 3 -268c75 -10 161 -13 278 -16v-24c-235 3 -249 3 -363 0c13 85 16 532 7 585zM241 715c31 0 37 -19 37 -29
c0 -17 -23 -37 -52 -37c-20 0 -36 9 -36 30c0 15 18 36 51 36z" />
    <glyph glyph-name="edotaccent" unicode="&#x117;" horiz-adv-x="390" 
d="M36 169c6 167 119 223 182 223c61 0 96 -12 115 -40c17 -24 8 -73 -15 -93c-24 -21 -66 -31 -124 -31c-25 0 -69 2 -93 6c-16 -93 16 -209 120 -209c54 0 88 9 132 23c5 -7 7 -16 9 -21c-48 -19 -98 -37 -179 -37c-106 0 -151 74 -147 179zM187 253c30 0 61 6 77 27
c9 12 13 42 6 55c-9 20 -22 32 -59 32c-46 0 -90 -54 -104 -107c14 -4 46 -7 80 -7zM223 528c31 0 37 -19 37 -29c0 -17 -23 -37 -52 -37c-20 0 -36 9 -36 30c0 15 18 36 51 36z" />
    <glyph glyph-name="Eogonek" unicode="&#x118;" horiz-adv-x="426" 
d="M412 -104c2 -6 2 -13 2 -20c-34 -8 -66 -16 -94 -16c-30 0 -54 16 -54 48c0 28 28 64 57 91c-149 1 -178 1 -275 -1c13 85 16 532 7 585c85 -4 222 -4 337 -1l-2 -24c-101 -3 -162 -5 -254 -12c-4 -39 -5 -179 -5 -203c77 -2 145 1 222 3l2 -23c-57 -5 -159 -9 -225 -17
c-1 -59 1 -204 3 -268c75 -10 161 -13 278 -16v-24h-62c-14 -18 -25 -43 -25 -62c0 -31 11 -44 41 -44c15 0 38 3 47 4z" />
    <glyph glyph-name="eogonek" unicode="&#x119;" horiz-adv-x="390" 
d="M345 -104c1 -6 2 -13 1 -20c-34 -8 -66 -16 -94 -16c-29 0 -54 16 -54 48c0 27 26 61 53 87c-20 -3 -43 -5 -68 -5c-106 0 -151 74 -147 179c6 167 119 223 182 223c61 0 96 -12 115 -40c17 -24 8 -73 -15 -93c-24 -21 -66 -31 -124 -31c-25 0 -69 2 -93 6
c-16 -93 16 -209 120 -209c54 0 88 9 132 23c5 -7 7 -16 9 -21c-25 -9 -49 -19 -78 -26c-14 -18 -28 -45 -28 -65c0 -31 12 -44 42 -44c15 0 37 3 47 4zM187 253c30 0 61 6 77 27c9 12 13 42 6 55c-9 20 -22 32 -59 32c-46 0 -90 -54 -104 -107c14 -4 46 -7 80 -7z" />
    <glyph glyph-name="Ecaron" unicode="&#x11a;" horiz-adv-x="426" 
d="M55 583c85 -4 222 -4 337 -1l-2 -24c-101 -3 -162 -5 -254 -12c-4 -39 -5 -179 -5 -203c77 -2 145 1 222 3l2 -23c-57 -5 -159 -9 -225 -17c-1 -59 1 -204 3 -268c75 -10 161 -13 278 -16v-24c-235 3 -249 3 -363 0c13 85 16 532 7 585zM330 726c3 -4 6 -10 7 -20
c-33 -20 -62 -42 -111 -77c-33 28 -66 52 -100 76c2 7 6 13 11 19c39 -17 59 -28 91 -36c33 8 60 20 102 38z" />
    <glyph glyph-name="ecaron" unicode="&#x11b;" horiz-adv-x="390" 
d="M36 169c6 167 119 223 182 223c61 0 96 -12 115 -40c17 -24 8 -73 -15 -93c-24 -21 -66 -31 -124 -31c-25 0 -69 2 -93 6c-16 -93 16 -209 120 -209c54 0 88 9 132 23c5 -7 7 -16 9 -21c-48 -19 -98 -37 -179 -37c-106 0 -151 74 -147 179zM187 253c30 0 61 6 77 27
c9 12 13 42 6 55c-9 20 -22 32 -59 32c-46 0 -90 -54 -104 -107c14 -4 46 -7 80 -7zM318 550c3 -4 6 -10 7 -20c-33 -20 -62 -42 -111 -77c-33 28 -66 52 -100 76c2 7 6 13 11 19c39 -17 59 -28 91 -36c33 8 60 20 102 38z" />
    <glyph glyph-name="Gcircumflex" unicode="&#x11c;" horiz-adv-x="619" 
d="M508 542c-34 13 -92 21 -132 21c-148 0 -269 -133 -269 -313c0 -118 87 -229 209 -229c76 0 119 12 166 30c6 111 5 180 -3 292c30 0 53 2 82 7c-8 -69 -16 -252 -4 -298c-103 -50 -172 -66 -263 -66c-163 0 -259 121 -259 253c0 197 155 356 345 356
c29 0 105 -10 141 -32c-2 -8 -7 -15 -13 -21zM247 634c-3 4 -6 10 -7 20c33 20 62 42 111 77c33 -28 66 -52 100 -76c-2 -7 -6 -13 -11 -19c-39 17 -59 28 -91 36c-33 -8 -60 -20 -102 -38z" />
    <glyph glyph-name="gcircumflex" unicode="&#x11d;" horiz-adv-x="399" 
d="M201 388c34 0 83 -7 96 -17c23 5 43 13 62 20c8 -6 13 -11 16 -21c-19 -10 -29 -14 -54 -29c4 -5 8 -16 8 -27c0 -75 -100 -93 -152 -99c-33 -64 42 -108 79 -131c91 -56 139 -89 139 -170c0 -127 -148 -183 -217 -183c-84 0 -171 37 -171 125c0 74 36 144 133 235
c-35 42 -18 81 12 123c-70 9 -118 30 -115 85c5 51 97 89 164 89zM154 73c-48 -44 -82 -115 -82 -175c0 -75 38 -126 117 -126c57 0 152 36 152 103c0 54 -44 98 -84 126c-36 26 -83 54 -103 72zM191 362c-47 0 -84 -29 -84 -70c1 -32 26 -51 68 -51c57 2 84 34 84 69
c0 32 -31 52 -68 52zM87 454c-3 4 -6 10 -7 20c33 20 62 42 111 77c33 -28 66 -52 100 -76c-2 -7 -6 -13 -11 -19c-39 17 -59 28 -91 36c-33 -8 -60 -20 -102 -38z" />
    <glyph glyph-name="Gbreve" unicode="&#x11e;" horiz-adv-x="619" 
d="M508 542c-34 13 -92 21 -132 21c-148 0 -269 -133 -269 -313c0 -118 87 -229 209 -229c76 0 119 12 166 30c6 111 5 180 -3 292c30 0 53 2 82 7c-8 -69 -16 -252 -4 -298c-103 -50 -172 -66 -263 -66c-163 0 -259 121 -259 253c0 197 155 356 345 356
c29 0 105 -10 141 -32c-2 -8 -7 -15 -13 -21zM445 737c7 -2 12 -2 17 -7c-14 -60 -65 -99 -113 -99c-50 0 -91 44 -101 99c4 4 13 6 18 7c18 -31 46 -53 86 -53c37 0 74 20 93 53z" />
    <glyph glyph-name="gbreve" unicode="&#x11f;" horiz-adv-x="399" 
d="M201 388c34 0 83 -7 96 -17c23 5 43 13 62 20c8 -6 13 -11 16 -21c-19 -10 -29 -14 -54 -29c4 -5 8 -16 8 -27c0 -75 -100 -93 -152 -99c-33 -64 42 -108 79 -131c91 -56 139 -89 139 -170c0 -127 -148 -183 -217 -183c-84 0 -171 37 -171 125c0 74 36 144 133 235
c-35 42 -18 81 12 123c-70 9 -118 30 -115 85c5 51 97 89 164 89zM154 73c-48 -44 -82 -115 -82 -175c0 -75 38 -126 117 -126c57 0 152 36 152 103c0 54 -44 98 -84 126c-36 26 -83 54 -103 72zM191 362c-47 0 -84 -29 -84 -70c1 -32 26 -51 68 -51c57 2 84 34 84 69
c0 32 -31 52 -68 52zM281 549c7 -2 12 -2 17 -7c-14 -60 -65 -99 -113 -99c-50 0 -91 44 -101 99c4 4 13 6 18 7c18 -31 46 -53 86 -53c37 0 74 20 93 53z" />
    <glyph glyph-name="Gdotaccent" unicode="&#x120;" horiz-adv-x="619" 
d="M508 542c-34 13 -92 21 -132 21c-148 0 -269 -133 -269 -313c0 -118 87 -229 209 -229c76 0 119 12 166 30c6 111 5 180 -3 292c30 0 53 2 82 7c-8 -69 -16 -252 -4 -298c-103 -50 -172 -66 -263 -66c-163 0 -259 121 -259 253c0 197 155 356 345 356
c29 0 105 -10 141 -32c-2 -8 -7 -15 -13 -21zM360 715c31 0 37 -19 37 -29c0 -17 -23 -37 -52 -37c-20 0 -36 9 -36 30c0 15 18 36 51 36z" />
    <glyph glyph-name="gdotaccent" unicode="&#x121;" horiz-adv-x="399" 
d="M201 388c34 0 83 -7 96 -17c23 5 43 13 62 20c8 -6 13 -11 16 -21c-19 -10 -29 -14 -54 -29c4 -5 8 -16 8 -27c0 -75 -100 -93 -152 -99c-33 -64 42 -108 79 -131c91 -56 139 -89 139 -170c0 -127 -148 -183 -217 -183c-84 0 -171 37 -171 125c0 74 36 144 133 235
c-35 42 -18 81 12 123c-70 9 -118 30 -115 85c5 51 97 89 164 89zM154 73c-48 -44 -82 -115 -82 -175c0 -75 38 -126 117 -126c57 0 152 36 152 103c0 54 -44 98 -84 126c-36 26 -83 54 -103 72zM191 362c-47 0 -84 -29 -84 -70c1 -32 26 -51 68 -51c57 2 84 34 84 69
c0 32 -31 52 -68 52zM198 528c31 0 37 -19 37 -29c0 -17 -23 -37 -52 -37c-20 0 -36 9 -36 30c0 15 18 36 51 36z" />
    <glyph glyph-name="Gcommaaccent" unicode="&#x122;" horiz-adv-x="619" 
d="M322 -40c23 0 37 -13 37 -49c0 -40 -36 -113 -70 -173l-19 9c22 50 28 76 28 106c0 31 -17 47 -17 68c0 17 15 39 41 39zM508 542c-34 13 -92 21 -132 21c-148 0 -269 -133 -269 -313c0 -118 87 -229 209 -229c76 0 119 12 166 30c6 111 5 180 -3 292c30 0 53 2 82 7
c-8 -69 -16 -252 -4 -298c-103 -50 -172 -66 -263 -66c-163 0 -259 121 -259 253c0 197 155 356 345 356c29 0 105 -10 141 -32c-2 -8 -7 -15 -13 -21z" />
    <glyph glyph-name="gcommaaccent" unicode="&#x123;" horiz-adv-x="399" 
d="M181 427c-23 0 -36 12 -36 48c0 40 37 113 70 173l23 -9c-24 -51 -32 -76 -32 -106c0 -31 17 -47 17 -68c0 -16 -15 -38 -42 -38zM201 388c34 0 83 -7 96 -17c23 5 43 13 62 20c8 -6 13 -11 16 -21c-19 -10 -29 -14 -54 -29c4 -5 8 -16 8 -27c0 -75 -100 -93 -152 -99
c-33 -64 42 -108 79 -131c91 -56 139 -89 139 -170c0 -127 -148 -183 -217 -183c-84 0 -171 37 -171 125c0 74 36 144 133 235c-35 42 -18 81 12 123c-70 9 -118 30 -115 85c5 51 97 89 164 89zM154 73c-48 -44 -82 -115 -82 -175c0 -75 38 -126 117 -126
c57 0 152 36 152 103c0 54 -44 98 -84 126c-36 26 -83 54 -103 72zM191 362c-47 0 -84 -29 -84 -70c1 -32 26 -51 68 -51c57 2 84 34 84 69c0 32 -31 52 -68 52z" />
    <glyph glyph-name="Hcircumflex" unicode="&#x124;" horiz-adv-x="596" 
d="M59 583c18 -1 62 -3 83 0c-8 -76 -10 -199 -10 -251c75 1 255 9 337 15c0 75 0 186 -4 236c26 -3 59 -4 83 0c-15 -127 -15 -437 -5 -585c-18 1 -62 3 -84 0c8 71 8 257 10 326c-47 -3 -276 -20 -339 -28c-2 -58 -4 -234 1 -298c-26 3 -59 5 -83 2c14 117 19 424 11 583z
M206 634c-3 4 -6 10 -7 20c33 20 62 42 111 77c33 -28 66 -52 100 -76c-2 -7 -6 -13 -11 -19c-39 17 -59 28 -91 36c-33 -8 -60 -20 -102 -38z" />
    <glyph glyph-name="hcircumflex" unicode="&#x125;" horiz-adv-x="474" 
d="M51 682c34 9 55 15 90 30c-15 -77 -15 -280 -14 -355c40 16 102 38 140 38c94 0 128 -30 144 -129c6 -36 13 -232 21 -267c-36 2 -55 5 -85 -1c9 61 0 215 -7 264c-3 26 -17 94 -78 95c-43 2 -108 -15 -135 -26c0 -91 2 -221 7 -333c-27 4 -27 6 -86 0
c16 104 17 517 3 684zM6 735c-3 4 -6 10 -7 20c33 20 62 42 111 77c33 -28 66 -52 100 -76c-2 -7 -6 -13 -11 -19c-39 17 -59 28 -91 36c-33 -8 -60 -20 -102 -38z" />
    <glyph glyph-name="Hbar" unicode="&#x126;" horiz-adv-x="596" 
d="M59 583c18 -1 62 -3 83 0c-3 -32 -6 -72 -8 -112c122 -1 213 -2 335 -1c0 45 -2 87 -4 113c26 -3 59 -4 83 0c-4 -30 -7 -69 -8 -113c13 0 26 0 40 1c1 -11 -1 -17 -6 -27h-36c-5 -146 -2 -339 5 -446c-18 1 -62 3 -84 0c8 71 8 257 10 326c-47 -3 -276 -20 -339 -28
c-2 -58 -4 -234 1 -298c-26 3 -59 5 -83 2c11 88 16 287 14 447h-43c-4 8 1 20 3 25h40c0 41 -2 79 -3 111zM469 445c-123 2 -215 2 -335 2c-2 -46 -2 -90 -2 -115c75 1 255 9 337 15v98z" />
    <glyph glyph-name="hbar" unicode="&#x127;" horiz-adv-x="474" 
d="M51 682c34 9 55 15 90 30c-8 -37 -12 -104 -13 -172c49 0 93 0 135 1c1 -11 0 -19 -5 -29c-54 1 -89 2 -131 2c-1 -63 -1 -123 0 -157c40 16 102 38 140 38c94 0 128 -30 144 -129c6 -36 13 -232 21 -267c-36 2 -55 5 -85 -1c9 61 0 215 -7 264c-3 26 -17 94 -78 95
c-43 2 -108 -15 -135 -26c0 -91 2 -221 7 -333c-27 4 -27 6 -86 0c12 77 16 326 11 517c-18 0 -37 -1 -59 -1c-4 9 0 22 3 28c19 0 37 -1 55 -1c-2 55 -4 104 -7 141z" />
    <glyph glyph-name="Itilde" unicode="&#x128;" horiz-adv-x="184" 
d="M55 583c17 -4 59 -2 81 0c-15 -196 -14 -437 -6 -585c-26 3 -58 5 -82 2c13 133 14 424 7 583zM127 640c-17 0 -54 18 -71 19c-24 0 -41 -8 -64 -23l-11 14c27 25 72 59 93 58c19 0 52 -16 72 -17c23 0 41 9 62 21l12 -14c-32 -30 -72 -58 -93 -58z" />
    <glyph glyph-name="itilde" unicode="&#x129;" horiz-adv-x="183" 
d="M49 0c11 92 10 298 -1 379c29 1 52 6 79 12c-10 -64 -6 -317 7 -393c-26 8 -72 3 -85 2zM123 474c-17 0 -54 18 -71 19c-24 0 -41 -8 -64 -23l-11 14c27 25 72 59 93 58c19 0 52 -16 72 -17c23 0 41 9 62 21l12 -14c-32 -30 -72 -58 -93 -58z" />
    <glyph glyph-name="Imacron" unicode="&#x12a;" horiz-adv-x="184" 
d="M4 685c67 -3 124 -3 182 -2c1 -11 1 -20 -4 -30c-62 2 -120 3 -181 2c-3 8 1 24 3 30zM55 583c17 -4 59 -2 81 0c-15 -196 -14 -437 -6 -585c-26 3 -58 5 -82 2c13 133 14 424 7 583z" />
    <glyph glyph-name="imacron" unicode="&#x12b;" horiz-adv-x="183" 
d="M2 498c67 -3 124 -3 182 -2c1 -11 1 -21 -4 -31c-62 2 -120 4 -181 3c-4 8 1 24 3 30zM49 0c11 92 10 298 -1 379c29 1 52 6 79 12c-10 -64 -6 -317 7 -393c-26 8 -72 3 -85 2z" />
    <glyph glyph-name="Ibreve" unicode="&#x12c;" horiz-adv-x="184" 
d="M55 583c17 -4 59 -2 81 0c-15 -196 -14 -437 -6 -585c-26 3 -58 5 -82 2c13 133 14 424 7 583zM186 733c7 -2 12 -2 17 -7c-14 -60 -65 -99 -113 -99c-50 0 -91 44 -101 99c4 4 13 6 18 7c18 -31 46 -53 86 -53c37 0 74 20 93 53z" />
    <glyph glyph-name="ibreve" unicode="&#x12d;" horiz-adv-x="183" 
d="M49 0c11 92 10 298 -1 379c29 1 52 6 79 12c-10 -64 -6 -317 7 -393c-26 8 -72 3 -85 2zM180 549c7 -2 12 -2 17 -7c-14 -60 -65 -99 -113 -99c-50 0 -91 44 -101 99c4 4 13 6 18 7c18 -31 46 -53 86 -53c37 0 74 20 93 53z" />
    <glyph glyph-name="Iogonek" unicode="&#x12e;" horiz-adv-x="184" 
d="M55 583c17 -4 59 -2 81 0c-15 -196 -14 -437 -6 -585c-16 2 -35 3 -52 4c-12 -19 -18 -45 -18 -66c0 -31 12 -42 42 -42c15 0 38 2 47 4c2 -7 2 -15 2 -22c-34 -8 -67 -16 -96 -16s-54 16 -54 48c0 29 21 65 47 92c13 133 14 424 7 583z" />
    <glyph glyph-name="iogonek" unicode="&#x12f;" horiz-adv-x="183" 
d="M49 0c11 92 10 298 -1 379c29 1 52 6 79 12c-10 -64 -6 -317 7 -393c-15 4 -37 5 -55 4c-12 -18 -19 -45 -19 -66c0 -31 12 -42 42 -42c15 0 39 2 48 4c1 -7 2 -15 1 -22c-34 -8 -67 -16 -95 -16c-29 0 -54 16 -54 48c0 29 21 65 47 92zM99 589c29 0 36 -19 36 -28
c0 -17 -23 -36 -51 -36c-20 0 -35 8 -35 29c0 14 18 35 50 35z" />
    <glyph glyph-name="Idotaccent" unicode="&#x130;" horiz-adv-x="184" 
d="M55 583c17 -4 59 -2 81 0c-15 -196 -14 -437 -6 -585c-26 3 -58 5 -82 2c13 133 14 424 7 583zM105 715c31 0 37 -19 37 -29c0 -17 -23 -37 -52 -37c-20 0 -36 9 -36 30c0 15 18 36 51 36z" />
    <glyph glyph-name="dotlessi" unicode="&#x131;" horiz-adv-x="183" 
d="M49 0c11 92 10 298 -1 379c29 1 52 6 79 12c-10 -64 -6 -317 7 -393c-26 8 -72 3 -85 2z" />
    <glyph glyph-name="IJ" unicode="&#x132;" horiz-adv-x="383" 
d="M55 583c17 -4 59 -2 81 0c-15 -196 -14 -437 -6 -585c-26 3 -58 5 -82 2c13 133 14 424 7 583zM251 583c17 -4 56 -2 78 0c-12 -142 -10 -288 -10 -433c0 -117 -14 -212 -70 -296c-18 -27 -79 -94 -156 -94c-16 0 -39 9 -61 17c3 9 6 17 12 26c20 -6 49 -11 71 -10
c35 3 136 35 139 340c1 121 1 340 -3 450z" />
    <glyph glyph-name="ij" unicode="&#x133;" horiz-adv-x="366" 
d="M49 0c11 92 10 298 -1 379c29 1 52 6 79 12c-10 -64 -6 -317 7 -393c-26 8 -72 3 -85 2zM99 589c29 0 36 -19 36 -28c0 -17 -23 -36 -51 -36c-20 0 -35 8 -35 29c0 14 18 35 50 35zM305 17c0 -131 -25 -181 -93 -250c-37 -37 -86 -50 -112 -33c0 9 1 13 6 22
c119 -9 132 135 134 222c3 106 2 332 -8 398c23 3 46 4 77 14c-3 -135 -4 -282 -4 -373zM282 589c29 0 36 -19 36 -28c0 -17 -23 -36 -51 -36c-20 0 -35 8 -35 29c0 14 18 35 50 35z" />
    <glyph glyph-name="Jcircumflex" unicode="&#x134;" horiz-adv-x="199" 
d="M67 583c17 -4 56 -2 78 0c-12 -142 -10 -288 -10 -433c0 -117 -14 -212 -70 -296c-18 -27 -79 -94 -156 -94c-16 0 -39 9 -61 17c3 9 6 17 12 26c20 -6 49 -11 71 -10c35 3 136 35 139 340c1 121 1 340 -3 450zM6 634c-3 4 -6 10 -7 20c33 20 62 42 111 77
c33 -28 66 -52 100 -76c-2 -7 -6 -13 -11 -19c-39 17 -59 28 -91 36c-33 -8 -60 -20 -102 -38z" />
    <glyph glyph-name="jcircumflex" unicode="&#x135;" horiz-adv-x="183" 
d="M122 17c0 -131 -24 -181 -92 -250c-37 -37 -97 -42 -112 -36c0 9 0 18 3 28c123 5 134 139 136 219c4 106 2 332 -8 398c23 3 46 4 77 14c-3 -135 -4 -282 -4 -373zM-7 454c-3 4 -6 10 -7 20c33 20 62 42 111 77c33 -28 66 -52 100 -76c-2 -7 -6 -13 -11 -19
c-39 17 -59 28 -91 36c-33 -8 -60 -20 -102 -38z" />
    <glyph glyph-name="Kcommaaccent" unicode="&#x136;" horiz-adv-x="567" 
d="M287 -40c23 0 36 -13 36 -49c0 -40 -36 -113 -69 -173l-19 9c22 50 27 76 27 106c0 31 -16 47 -16 68c0 17 15 39 41 39zM136 583c-4 -66 -9 -140 -9 -193c115 49 245 117 382 203c-10 -21 -23 -55 -28 -83c-61 -19 -142 -53 -178 -71c72 -136 177 -337 257 -440
c-41 3 -71 4 -104 -1c-56 124 -156 315 -215 414c-37 -14 -68 -27 -114 -48c-3 -133 -1 -273 4 -366c-26 3 -59 5 -83 2c13 133 14 424 7 583c17 -4 60 -2 81 0z" />
    <glyph glyph-name="kcommaaccent" unicode="&#x137;" horiz-adv-x="474" 
d="M246 -40c24 0 37 -13 37 -49c0 -40 -36 -113 -70 -173l-18 9c21 50 27 76 27 106c0 31 -17 47 -17 68c0 17 15 39 41 39zM55 -3c12 93 7 621 -7 686c23 3 60 14 89 24c-15 -129 -12 -255 -8 -427c85 32 226 92 290 121c-6 -20 -11 -44 -16 -62c-51 -9 -87 -18 -141 -35
c30 -63 175 -280 199 -305c-32 5 -74 3 -97 -3c-26 47 -122 220 -166 285c-27 -9 -46 -16 -68 -26c-1 -69 5 -187 11 -257c-34 4 -44 5 -86 -1z" />
    <glyph glyph-name="kgreenlandic" unicode="&#x138;" horiz-adv-x="474" 
d="M60 307c0 28 -3 53 -5 72c29 1 52 6 78 12c-2 -15 -4 -39 -4 -111c85 32 226 92 290 121c-6 -20 -13 -44 -16 -62c-51 -9 -87 -18 -141 -35c30 -63 175 -280 199 -305c-32 5 -74 3 -97 -3c-26 47 -122 218 -166 283c-27 -9 -46 -15 -68 -26c-1 -68 5 -185 11 -255
c-34 4 -44 5 -86 -1c5 42 8 173 5 310z" />
    <glyph glyph-name="Lacute" unicode="&#x139;" horiz-adv-x="406" 
d="M57 583c18 -4 58 -2 79 0c-11 -173 -12 -370 -7 -546c75 -10 153 -13 271 -15l-5 -24c-234 3 -233 3 -347 0c12 106 17 453 9 585zM228 741c2 -19 10 -44 19 -63c-69 -13 -117 -24 -182 -44l-7 18c59 27 132 66 170 89z" />
    <glyph glyph-name="lacute" unicode="&#x13a;" horiz-adv-x="188" 
d="M54 -3c12 93 8 621 -6 686c23 3 55 14 84 26c-16 -176 -6 -646 8 -711c-34 4 -44 5 -86 -1zM170 832c2 -19 10 -44 19 -63c-69 -13 -117 -24 -182 -44l-7 18c59 27 132 66 170 89z" />
    <glyph glyph-name="Lcommaaccent" unicode="&#x13b;" horiz-adv-x="406" 
d="M226 -40c23 0 37 -13 37 -49c0 -40 -37 -113 -70 -173l-19 9c22 50 27 76 27 106c0 31 -16 47 -16 68c0 17 15 39 41 39zM57 583c18 -4 58 -2 79 0c-11 -173 -12 -370 -7 -546c75 -10 153 -13 271 -15l-5 -24c-234 3 -233 3 -347 0c12 106 17 453 9 585z" />
    <glyph glyph-name="lcommaaccent" unicode="&#x13c;" horiz-adv-x="188" 
d="M97 -40c23 0 37 -13 37 -49c0 -40 -37 -113 -70 -173l-19 9c22 50 27 76 27 106c0 31 -16 47 -16 68c0 17 15 39 41 39zM54 -3c12 93 8 621 -6 686c23 3 55 14 84 26c-16 -176 -6 -646 8 -711c-34 4 -44 5 -86 -1z" />
    <glyph glyph-name="Lcaron" unicode="&#x13d;" horiz-adv-x="406" 
d="M57 583c18 -4 58 -2 79 0c-11 -173 -12 -370 -7 -546c75 -10 153 -13 271 -15l-5 -24c-234 3 -233 3 -347 0c12 106 17 453 9 585zM294 594c23 0 38 -27 38 -66c0 -48 -45 -136 -85 -210l-22 9c28 59 42 104 42 144c0 34 -17 50 -17 79c0 17 17 44 44 44z" />
    <glyph glyph-name="lcaron" unicode="&#x13e;" horiz-adv-x="188" 
d="M215 702c24 0 37 -17 37 -53c0 -48 -35 -120 -76 -195l-19 8c23 57 30 90 30 122c0 34 -16 53 -16 76c0 17 15 42 44 42zM54 -3c12 93 8 621 -6 686c23 3 55 14 84 26c-16 -176 -6 -646 8 -711c-34 4 -44 5 -86 -1z" />
    <glyph glyph-name="Ldot" unicode="&#x13f;" horiz-adv-x="406" 
d="M57 583c18 -4 58 -2 79 0c-11 -173 -12 -370 -7 -546c75 -10 153 -13 271 -15l-5 -24c-234 3 -233 3 -347 0c12 106 17 453 9 585zM309 325c27 0 41 -12 41 -31c0 -24 -30 -38 -56 -38c-20 0 -36 10 -36 28c0 21 25 41 51 41z" />
    <glyph glyph-name="ldot" unicode="&#x140;" horiz-adv-x="256" 
d="M54 -3c12 93 8 621 -6 686c23 3 55 14 84 26c-16 -176 -6 -646 8 -711c-34 4 -44 5 -86 -1zM227 329c27 0 41 -12 41 -31c0 -24 -30 -38 -56 -38c-20 0 -36 10 -36 28c0 21 25 41 51 41z" />
    <glyph glyph-name="Lslash" unicode="&#x141;" horiz-adv-x="406" 
d="M57 583c18 -4 58 -2 79 0c-6 -92 -9 -191 -10 -290c58 22 116 44 148 57c4 -7 9 -20 8 -29l-156 -57c0 -77 1 -154 3 -227c75 -10 153 -13 271 -15l-5 -24c-234 3 -233 3 -347 0c5 46 9 139 11 240l-37 -15c-4 5 -8 23 -8 28l46 17c2 120 1 246 -3 315z" />
    <glyph glyph-name="lslash" unicode="&#x142;" horiz-adv-x="188" 
d="M54 -3c5 42 7 174 7 313l-44 -35c-5 5 -13 23 -15 28c20 13 39 27 58 41c-1 154 -5 306 -12 339c23 3 55 14 84 26c-7 -72 -9 -195 -8 -318c17 13 34 26 48 38c6 -7 14 -21 14 -29c-20 -15 -42 -29 -62 -44c1 -164 8 -322 16 -358c-34 4 -44 5 -86 -1z" />
    <glyph glyph-name="Nacute" unicode="&#x143;" horiz-adv-x="608" 
d="M548 3l-24 -10c-134 164 -355 392 -431 476c-2 -134 21 -427 28 -460c-27 -6 -43 -7 -75 -23c17 86 24 414 19 596l23 11c109 -142 297 -326 425 -460c0 172 -8 342 -21 442c21 4 50 12 71 21c-14 -38 -25 -283 -23 -493c0 -27 3 -67 8 -100zM396 741
c2 -19 10 -44 19 -63c-69 -13 -117 -24 -182 -44l-7 18c59 27 132 66 170 89z" />
    <glyph glyph-name="nacute" unicode="&#x144;" horiz-adv-x="469" 
d="M50 381c23 3 50 7 80 14c-3 -16 -4 -30 -5 -43c56 26 111 40 137 40c77 0 137 -46 144 -148c13 -188 18 -221 21 -246c-29 4 -48 6 -81 0c8 49 0 209 -4 233c-10 63 -25 118 -101 118c-50 0 -92 -11 -116 -19c-4 -76 -2 -200 5 -332c-28 4 -51 7 -82 0
c13 122 9 292 2 383zM325 562c2 -19 10 -44 19 -63c-69 -13 -117 -24 -182 -44l-7 18c59 27 132 66 170 89z" />
    <glyph glyph-name="Ncommaaccent" unicode="&#x145;" horiz-adv-x="608" 
d="M548 3l-24 -10c-134 164 -355 392 -431 476c-2 -134 21 -427 28 -460c-27 -6 -43 -7 -75 -23c17 86 24 414 19 596l23 11c109 -142 297 -326 425 -460c0 172 -8 342 -21 442c21 4 50 12 71 21c-14 -38 -25 -283 -23 -493c0 -27 3 -67 8 -100zM308 -40c23 0 36 -13 36 -49
c0 -40 -36 -113 -69 -173l-19 9c22 50 27 76 27 106c0 31 -17 47 -17 68c0 17 15 39 42 39z" />
    <glyph glyph-name="ncommaaccent" unicode="&#x146;" horiz-adv-x="469" 
d="M235 -40c23 0 36 -13 36 -49c0 -40 -36 -113 -69 -173l-19 9c22 50 27 76 27 106c0 31 -16 47 -16 68c0 17 14 39 41 39zM50 381c23 3 50 7 80 14c-3 -16 -4 -30 -5 -43c56 26 111 40 137 40c77 0 137 -46 144 -148c13 -188 18 -221 21 -246c-29 4 -48 6 -81 0
c8 49 0 209 -4 233c-10 63 -25 118 -101 118c-50 0 -92 -11 -116 -19c-4 -76 -2 -200 5 -332c-28 4 -51 7 -82 0c13 122 9 292 2 383z" />
    <glyph glyph-name="Ncaron" unicode="&#x147;" horiz-adv-x="608" 
d="M548 3l-24 -10c-134 164 -355 392 -431 476c-2 -134 21 -427 28 -460c-27 -6 -43 -7 -75 -23c17 86 24 414 19 596l23 11c109 -142 297 -326 425 -460c0 172 -8 342 -21 442c21 4 50 12 71 21c-14 -38 -25 -283 -23 -493c0 -27 3 -67 8 -100zM414 726c3 -4 6 -10 7 -20
c-33 -20 -62 -42 -111 -77c-33 28 -66 52 -100 76c2 7 6 13 11 19c39 -17 59 -28 91 -36c33 8 60 20 102 38z" />
    <glyph glyph-name="ncaron" unicode="&#x148;" horiz-adv-x="469" 
d="M50 381c23 3 50 7 80 14c-3 -16 -4 -30 -5 -43c56 26 111 40 137 40c77 0 137 -46 144 -148c13 -188 18 -221 21 -246c-29 4 -48 6 -81 0c8 49 0 209 -4 233c-10 63 -25 118 -101 118c-50 0 -92 -11 -116 -19c-4 -76 -2 -200 5 -332c-28 4 -51 7 -82 0
c13 122 9 292 2 383zM340 550c3 -4 6 -10 7 -20c-33 -20 -62 -42 -111 -77c-33 28 -66 52 -100 76c2 7 6 13 11 19c39 -17 59 -28 91 -36c33 8 60 20 102 38z" />
    <glyph glyph-name="napostrophe" unicode="&#x149;" horiz-adv-x="623" 
d="M112 594c23 0 38 -27 38 -66c0 -48 -45 -136 -85 -210l-22 9c28 59 42 104 42 144c0 34 -17 50 -17 79c0 17 17 44 44 44zM204 381c23 3 50 7 80 14c-3 -16 -4 -30 -5 -43c56 26 111 40 137 40c77 0 137 -46 144 -148c13 -188 18 -221 21 -246c-29 4 -48 6 -81 0
c8 49 0 209 -4 233c-10 63 -25 118 -101 118c-50 0 -92 -11 -116 -19c-4 -76 -2 -200 5 -332c-28 4 -51 7 -82 0c13 122 9 292 2 383z" />
    <glyph glyph-name="Eng" unicode="&#x14a;" horiz-adv-x="578" 
d="M522 150c-3 -117 -14 -212 -70 -296c-18 -27 -79 -94 -156 -94c-16 0 -39 9 -61 17c3 9 6 17 12 26c20 -6 49 -11 71 -10c35 3 136 35 139 340c1 86 1 173 -3 268c-4 93 -8 152 -146 154c-46 0 -138 -19 -184 -35c-3 -85 -1 -393 6 -522c-28 4 -51 7 -82 0
c13 122 9 494 2 585c23 -3 47 -4 77 1c-1 -11 -3 -26 -3 -39c58 25 153 50 216 50c183 0 180 -76 183 -195c1 -60 2 -122 -1 -250z" />
    <glyph glyph-name="eng" unicode="&#x14b;" horiz-adv-x="457" 
d="M406 248c6 -66 8 -142 2 -231c-8 -131 -22 -173 -96 -251c-34 -36 -89 -49 -115 -32c0 9 2 13 6 22c119 -9 134 135 140 222c5 64 10 177 -3 265c-9 58 -28 106 -99 106c-50 0 -92 -11 -116 -19c-4 -76 -2 -200 5 -332c-28 4 -51 7 -82 0c13 122 9 292 2 383
c23 3 50 7 80 14c-3 -16 -4 -30 -5 -43c56 26 111 40 137 40c75 0 135 -45 144 -144z" />
    <glyph glyph-name="Omacron" unicode="&#x14c;" horiz-adv-x="662" 
d="M357 594c154 0 268 -116 269 -279c1 -104 -52 -208 -137 -272c-44 -33 -124 -60 -192 -60c-201 0 -262 177 -262 293c2 83 44 202 146 266c40 26 116 52 176 52zM343 562c-127 0 -231 -98 -231 -284c0 -139 94 -262 208 -262c131 0 232 120 232 295
c-9 188 -138 251 -209 251zM234 685c101 -3 149 -3 224 -2c1 -11 0 -21 -5 -31c-97 3 -97 4 -222 3c-4 8 1 24 3 30z" />
    <glyph glyph-name="omacron" unicode="&#x14d;" horiz-adv-x="458" 
d="M241 391c125 0 176 -84 176 -190c0 -53 -27 -125 -76 -164c-36 -29 -94 -47 -139 -47c-127 0 -172 111 -170 188c0 70 35 137 85 170c32 22 85 43 124 43zM228 360c-25 0 -52 -7 -71 -23c-37 -30 -58 -91 -58 -158c0 -60 36 -159 113 -159c25 0 56 7 74 19
c45 33 67 103 65 161c-3 87 -57 160 -123 160zM119 498c101 -3 149 -3 224 -2c1 -11 0 -21 -5 -31c-97 3 -97 4 -222 3c-4 8 1 24 3 30z" />
    <glyph glyph-name="Obreve" unicode="&#x14e;" horiz-adv-x="662" 
d="M357 594c154 0 268 -116 269 -279c1 -104 -52 -208 -137 -272c-44 -33 -124 -60 -192 -60c-201 0 -262 177 -262 293c2 83 44 202 146 266c40 26 116 52 176 52zM343 562c-127 0 -231 -98 -231 -284c0 -139 94 -262 208 -262c131 0 232 120 232 295
c-9 188 -138 251 -209 251zM434 737c7 -2 12 -2 17 -7c-14 -60 -65 -99 -113 -99c-50 0 -91 44 -101 99c4 4 13 6 18 7c18 -31 46 -53 86 -53c37 0 74 20 93 53z" />
    <glyph glyph-name="obreve" unicode="&#x14f;" horiz-adv-x="458" 
d="M241 391c125 0 176 -84 176 -190c0 -53 -27 -125 -76 -164c-36 -29 -94 -47 -139 -47c-127 0 -172 111 -170 188c0 70 35 137 85 170c32 22 85 43 124 43zM228 360c-25 0 -52 -7 -71 -23c-37 -30 -58 -91 -58 -158c0 -60 36 -159 113 -159c25 0 56 7 74 19
c45 33 67 103 65 161c-3 87 -57 160 -123 160zM318 549c7 -2 12 -2 17 -7c-14 -60 -65 -99 -113 -99c-50 0 -91 44 -101 99c4 4 13 6 18 7c18 -31 46 -53 86 -53c37 0 74 20 93 53z" />
    <glyph glyph-name="Ohungarumlaut" unicode="&#x150;" horiz-adv-x="662" 
d="M362 764c24 -14 37 -20 64 -29c-60 -38 -113 -80 -166 -122l-18 9c45 47 97 109 120 142zM496 764c24 -14 37 -20 64 -29c-60 -38 -113 -80 -166 -122l-19 8c45 47 98 110 121 143zM357 594c154 0 268 -116 269 -279c1 -104 -52 -208 -137 -272
c-44 -33 -124 -60 -192 -60c-201 0 -262 177 -262 293c2 83 44 202 146 266c40 26 116 52 176 52zM343 562c-127 0 -231 -98 -231 -284c0 -139 94 -262 208 -262c131 0 232 120 232 295c-9 188 -138 251 -209 251z" />
    <glyph glyph-name="ohungarumlaut" unicode="&#x151;" horiz-adv-x="458" 
d="M241 391c125 0 176 -84 176 -190c0 -53 -27 -125 -76 -164c-36 -29 -94 -47 -139 -47c-127 0 -172 111 -170 188c0 70 35 137 85 170c32 22 85 43 124 43zM228 360c-25 0 -52 -7 -71 -23c-37 -30 -58 -91 -58 -158c0 -60 36 -159 113 -159c25 0 56 7 74 19
c45 33 67 103 65 161c-3 87 -57 160 -123 160zM209 613c21 -7 42 -12 70 -13c-42 -54 -80 -112 -114 -168c-8 3 -11 6 -18 11c25 58 50 130 62 170zM329 613c21 -7 42 -12 69 -13c-41 -54 -79 -112 -113 -168c-8 3 -11 5 -17 11c25 58 49 130 61 170z" />
    <glyph glyph-name="OE" unicode="&#x152;" horiz-adv-x="745" 
d="M397 0c-37 0 -77 -5 -100 -5c-201 -2 -262 165 -262 281c1 63 25 188 144 263c38 24 121 48 178 44c100 -6 231 -4 354 -1l-2 -24c-101 -3 -162 -5 -254 -12c-4 -39 -5 -179 -5 -203c77 -2 146 1 222 3l2 -23c-57 -5 -158 -9 -225 -17c-1 -59 1 -204 3 -268
c75 -10 161 -13 278 -16v-24c-219 2 -238 2 -333 2zM343 553c-127 0 -231 -89 -231 -275c0 -160 111 -275 258 -248c9 116 14 431 4 520c-9 2 -23 3 -31 3z" />
    <glyph glyph-name="oe" unicode="&#x153;" horiz-adv-x="715" 
d="M245 391c79 0 128 -34 154 -86c40 63 102 87 143 87c62 0 96 -12 116 -40c16 -24 8 -73 -15 -93c-25 -21 -67 -31 -125 -31c-24 0 -69 2 -93 6c-16 -93 17 -209 120 -209c55 0 88 9 132 23c5 -7 8 -16 10 -21c-49 -19 -99 -37 -179 -37c-69 0 -111 30 -132 79
c-9 -12 -20 -23 -31 -32c-36 -29 -94 -47 -139 -47c-127 0 -172 111 -170 188c0 70 35 137 85 170c32 22 85 43 124 43zM232 360c-25 0 -52 -7 -71 -23c-37 -30 -58 -91 -58 -158c0 -60 36 -159 113 -159c25 0 56 7 74 19c45 33 67 103 65 161c-3 87 -57 160 -123 160z
M511 253c31 0 61 6 77 27c10 12 13 42 7 55c-10 20 -23 32 -59 32c-47 0 -90 -54 -104 -107c14 -4 45 -7 79 -7z" />
    <glyph glyph-name="Racute" unicode="&#x154;" horiz-adv-x="504" 
d="M168 582c79 0 245 13 244 -93c0 -48 -49 -107 -147 -139c59 -105 180 -278 252 -351c-22 2 -75 6 -107 -5c-41 72 -165 266 -225 344c2 6 9 14 14 17c81 11 136 60 136 112c0 70 -53 87 -134 89c-19 0 -52 -1 -72 -3c-7 -98 -4 -364 3 -553c-31 3 -54 5 -84 -7
c14 113 9 516 3 590c26 -3 83 -1 117 -1zM314 741c2 -19 10 -44 19 -63c-69 -13 -117 -24 -182 -44l-7 18c59 27 132 66 170 89z" />
    <glyph glyph-name="racute" unicode="&#x155;" horiz-adv-x="238" 
d="M119 389c-2 -19 -4 -61 -4 -119h3c26 70 39 95 106 124c5 -5 7 -9 11 -19c-65 -54 -112 -109 -117 -206c-2 -40 -1 -84 4 -170c-22 2 -43 3 -74 -1c9 97 9 287 0 378c15 2 59 9 71 13zM220 562c2 -19 10 -44 19 -63c-69 -13 -117 -24 -182 -44l-7 18c59 27 132 66 170 89
z" />
    <glyph glyph-name="Rcommaaccent" unicode="&#x156;" horiz-adv-x="504" 
d="M261 -40c23 0 37 -13 37 -49c0 -40 -37 -113 -70 -173l-19 9c22 50 27 76 27 106c0 31 -16 47 -16 68c0 17 15 39 41 39zM168 582c79 0 245 13 244 -93c0 -48 -49 -107 -147 -139c59 -105 180 -278 252 -351c-22 2 -75 6 -107 -5c-41 72 -165 266 -225 344
c2 6 9 14 14 17c81 11 136 60 136 112c0 70 -53 87 -134 89c-19 0 -52 -1 -72 -3c-7 -98 -4 -364 3 -553c-31 3 -54 5 -84 -7c14 113 9 516 3 590c26 -3 83 -1 117 -1z" />
    <glyph glyph-name="rcommaaccent" unicode="&#x157;" horiz-adv-x="238" 
d="M85 -40c23 0 37 -13 37 -49c0 -40 -37 -113 -70 -173l-19 9c22 50 27 76 27 106c0 31 -16 47 -16 68c0 17 15 39 41 39zM119 389c-2 -19 -4 -61 -4 -119h3c26 70 39 95 106 124c5 -5 7 -9 11 -19c-65 -54 -112 -109 -117 -206c-2 -40 -1 -84 4 -170c-22 2 -43 3 -74 -1
c9 97 9 287 0 378c15 2 59 9 71 13z" />
    <glyph glyph-name="Rcaron" unicode="&#x158;" horiz-adv-x="504" 
d="M168 582c79 0 245 13 244 -93c0 -48 -49 -107 -147 -139c59 -105 180 -278 252 -351c-22 2 -75 6 -107 -5c-41 72 -165 266 -225 344c2 6 9 14 14 17c81 11 136 60 136 112c0 70 -53 87 -134 89c-19 0 -52 -1 -72 -3c-7 -98 -4 -364 3 -553c-31 3 -54 5 -84 -7
c14 113 9 516 3 590c26 -3 83 -1 117 -1zM330 726c3 -4 6 -10 7 -20c-33 -20 -62 -42 -111 -77c-33 28 -66 52 -100 76c2 7 6 13 11 19c39 -17 59 -28 91 -36c33 8 60 20 102 38z" />
    <glyph glyph-name="rcaron" unicode="&#x159;" horiz-adv-x="238" 
d="M119 389c-2 -19 -4 -61 -4 -119h3c26 70 39 95 106 124c5 -5 7 -9 11 -19c-65 -54 -112 -109 -117 -206c-2 -40 -1 -84 4 -170c-22 2 -43 3 -74 -1c9 97 9 287 0 378c15 2 59 9 71 13zM239 550c3 -4 6 -10 7 -20c-33 -20 -62 -42 -111 -77c-33 28 -66 52 -100 76
c2 7 6 13 11 19c39 -17 59 -28 91 -36c33 8 60 20 102 38z" />
    <glyph glyph-name="Sacute" unicode="&#x15a;" horiz-adv-x="298" 
d="M17 -2c-1 10 0 17 4 29c9 -2 20 -3 34 -3c82 0 141 53 138 122c0 74 -42 115 -90 165c-32 34 -56 74 -56 114c0 65 65 128 146 174c6 -3 13 -13 13 -20c-62 -46 -95 -74 -97 -124c-2 -37 36 -82 66 -115c43 -43 87 -99 87 -170c0 -63 -51 -174 -209 -174
c-10 0 -24 0 -36 2zM230 741c2 -19 10 -44 19 -63c-69 -13 -117 -24 -182 -44l-7 18c59 27 132 66 170 89z" />
    <glyph glyph-name="sacute" unicode="&#x15b;" horiz-adv-x="243" 
d="M30 -2c-1 8 0 19 3 26c10 -2 29 -3 41 -3c42 0 66 27 65 71c0 33 -17 61 -45 94c-17 21 -42 54 -42 83c0 40 42 89 110 129c8 -4 11 -11 14 -18c-54 -35 -66 -72 -66 -92c0 -25 17 -44 37 -66c47 -51 56 -85 56 -116c0 -60 -47 -111 -130 -111c-10 0 -32 1 -43 3z
M216 562c2 -19 10 -44 19 -63c-69 -13 -117 -24 -182 -44l-7 18c59 27 132 66 170 89z" />
    <glyph glyph-name="Scircumflex" unicode="&#x15c;" horiz-adv-x="298" 
d="M17 -2c-1 10 0 17 4 29c9 -2 20 -3 34 -3c82 0 141 53 138 122c0 74 -42 115 -90 165c-32 34 -56 74 -56 114c0 65 65 128 146 174c6 -3 13 -13 13 -20c-62 -46 -95 -74 -97 -124c-2 -37 36 -82 66 -115c43 -43 87 -99 87 -170c0 -63 -51 -174 -209 -174
c-10 0 -24 0 -36 2zM42 634c-3 4 -6 10 -7 20c33 20 62 42 111 77c33 -28 66 -52 100 -76c-2 -7 -6 -13 -11 -19c-39 17 -59 28 -91 36c-33 -8 -60 -20 -102 -38z" />
    <glyph glyph-name="scircumflex" unicode="&#x15d;" horiz-adv-x="243" 
d="M30 -2c-1 8 0 19 3 26c10 -2 29 -3 41 -3c42 0 66 27 65 71c0 33 -17 61 -45 94c-17 21 -42 54 -42 83c0 40 42 89 110 129c8 -4 11 -11 14 -18c-54 -35 -66 -72 -66 -92c0 -25 17 -44 37 -66c47 -51 56 -85 56 -116c0 -60 -47 -111 -130 -111c-10 0 -32 1 -43 3zM28 454
c-3 4 -6 10 -7 20c33 20 62 42 111 77c33 -28 66 -52 100 -76c-2 -7 -6 -13 -11 -19c-39 17 -59 28 -91 36c-33 -8 -60 -20 -102 -38z" />
    <glyph glyph-name="Scedilla" unicode="&#x15e;" horiz-adv-x="298" 
d="M54 -104c14 23 35 70 50 104c-15 -2 -32 -4 -51 -4c-10 0 -24 0 -36 2c-1 10 0 17 4 29c9 -2 20 -3 34 -3c82 0 141 53 138 122c0 74 -42 115 -90 165c-32 34 -56 74 -56 114c0 65 65 128 146 174c6 -3 13 -13 13 -20c-62 -46 -95 -74 -97 -124c-2 -37 36 -82 66 -115
c43 -43 87 -99 87 -170c0 -51 -32 -132 -126 -162c-11 -21 -25 -54 -32 -76c20 -15 48 -39 48 -69c0 -20 -28 -78 -68 -124c-5 3 -9 5 -14 10c15 25 33 61 33 92c0 17 -29 42 -49 55z" />
    <glyph glyph-name="scedilla" unicode="&#x15f;" horiz-adv-x="243" 
d="M49 -105c14 23 35 68 50 102c-9 -2 -17 -2 -26 -2c-10 0 -32 1 -43 3c-1 8 0 20 3 27c8 -1 34 -4 41 -4c42 0 66 27 65 71c0 33 -17 61 -45 94c-17 21 -42 54 -42 83c0 40 42 89 110 129c8 -4 11 -11 14 -18c-54 -35 -66 -72 -66 -92c0 -25 17 -44 37 -66
c47 -51 56 -85 56 -116c0 -44 -26 -84 -73 -101c-11 -21 -24 -52 -31 -74c21 -15 48 -39 48 -69c0 -20 -27 -78 -67 -123c-5 2 -9 5 -14 10c15 24 32 60 32 91c0 17 -29 42 -49 55z" />
    <glyph glyph-name="Scaron" unicode="&#x160;" horiz-adv-x="298" 
d="M17 -2c-1 10 0 17 4 29c9 -2 20 -3 34 -3c82 0 141 53 138 122c0 74 -42 115 -90 165c-32 34 -56 74 -56 114c0 65 65 128 146 174c6 -3 13 -13 13 -20c-62 -46 -95 -74 -97 -124c-2 -37 36 -82 66 -115c43 -43 87 -99 87 -170c0 -63 -51 -174 -209 -174
c-10 0 -24 0 -36 2zM250 726c3 -4 6 -10 7 -20c-33 -20 -62 -42 -111 -77c-33 28 -66 52 -100 76c2 7 6 13 11 19c39 -17 59 -28 91 -36c33 8 60 20 102 38z" />
    <glyph glyph-name="scaron" unicode="&#x161;" horiz-adv-x="243" 
d="M25 -2c-1 8 0 19 3 26c10 -2 29 -3 41 -3c42 0 66 27 65 71c0 33 -17 61 -45 94c-17 21 -42 54 -42 83c0 40 42 89 110 129c8 -4 11 -11 14 -18c-54 -35 -66 -72 -66 -92c0 -25 17 -44 37 -66c47 -51 56 -85 56 -116c0 -60 -47 -111 -130 -111c-10 0 -32 1 -43 3z
M221 550c3 -4 6 -10 7 -20c-33 -20 -62 -42 -111 -77c-33 28 -66 52 -100 76c2 7 6 13 11 19c39 -17 59 -28 91 -36c33 8 60 20 102 38z" />
    <glyph glyph-name="uni0162" unicode="&#x162;" horiz-adv-x="415" 
d="M157 -105c15 23 37 72 52 106l-32 -2c8 47 13 490 9 542c-47 8 -99 14 -181 18c-2 8 -3 11 1 23c192 -5 258 -4 430 -1c3 -7 2 -9 1 -20c-68 -7 -132 -11 -181 -19c-4 -93 -5 -341 6 -544c-9 2 -17 2 -26 3c-10 -21 -22 -50 -29 -70c21 -15 49 -39 49 -69
c0 -20 -28 -78 -68 -123c-5 2 -9 5 -14 10c15 24 33 60 33 91c0 17 -30 42 -50 55z" />
    <glyph glyph-name="uni0163" unicode="&#x163;" horiz-adv-x="275" 
d="M67 -105c13 21 32 62 47 95c-47 1 -49 44 -49 136c0 22 0 59 3 229h-36c0 16 1 8 2 28h37c16 40 40 95 49 134c7 1 12 -1 19 -2c-3 -24 -10 -107 -8 -132c19 0 84 0 115 3c0 -12 -2 -17 -9 -33c-32 3 -81 2 -106 2c-4 -37 -3 -177 -3 -218c0 -77 18 -96 48 -96
c20 0 45 4 76 10c5 -7 7 -15 7 -23c-34 -12 -83 -28 -116 -34c-10 -20 -20 -45 -26 -63c21 -15 49 -39 49 -69c0 -20 -28 -78 -68 -123c-5 2 -9 5 -14 10c15 24 33 60 33 91c0 17 -30 42 -50 55z" />
    <glyph glyph-name="Tcaron" unicode="&#x164;" horiz-adv-x="441" 
d="M6 582c192 -5 258 -4 430 -1c3 -7 2 -9 1 -20c-68 -7 -132 -11 -181 -19c-4 -93 -5 -341 6 -544c-26 4 -48 4 -85 1c8 47 13 490 9 542c-47 8 -99 14 -181 18c-2 8 -3 11 1 23zM324 726c3 -4 6 -10 7 -20c-33 -20 -62 -42 -111 -77c-33 28 -66 52 -100 76c2 7 6 13 11 19
c39 -17 59 -28 91 -36c33 8 60 20 102 38z" />
    <glyph glyph-name="tcaron" unicode="&#x165;" horiz-adv-x="285" 
d="M253 702c24 0 37 -17 37 -53c0 -49 -34 -120 -75 -195l-19 8c23 57 30 90 30 122c0 34 -17 52 -17 76c0 17 15 42 44 42zM120 517c7 1 12 -1 19 -2c-3 -24 -10 -107 -8 -132c19 0 84 0 115 3c0 -12 -2 -17 -9 -33c-32 3 -81 2 -106 2c-4 -37 -3 -177 -3 -218
c0 -77 18 -96 48 -96c20 0 45 4 76 10c5 -7 7 -15 7 -23c-45 -16 -118 -38 -144 -38c-48 0 -50 44 -50 136c0 22 0 59 3 229h-36c0 16 1 8 2 28h37c16 40 40 95 49 134z" />
    <glyph glyph-name="Tbar" unicode="&#x166;" horiz-adv-x="441" 
d="M6 582c192 -5 258 -4 430 -1c3 -7 2 -9 1 -20c-68 -7 -132 -11 -181 -19c-2 -43 -3 -118 -3 -206h111c1 -11 -1 -18 -6 -28c-39 1 -72 2 -105 2c1 -98 3 -211 9 -312c-26 4 -48 4 -85 1c4 26 8 176 9 312h-107c-1 8 1 21 3 27c35 -1 70 -2 104 -2c1 98 1 184 0 205
c-47 8 -99 14 -181 18c-2 8 -3 11 1 23z" />
    <glyph glyph-name="tbar" unicode="&#x167;" horiz-adv-x="285" 
d="M120 517c7 1 12 -1 19 -2c-3 -24 -10 -107 -8 -132c19 0 84 0 115 3c0 -12 -2 -17 -9 -33c-32 3 -81 2 -106 2c-2 -17 -3 -54 -3 -93c37 0 68 1 113 1c0 -11 -1 -21 -6 -31c-58 3 -76 4 -107 4v-99c0 -77 18 -96 48 -96c20 0 45 4 76 10c5 -7 7 -15 7 -23
c-45 -16 -118 -38 -144 -38c-48 0 -50 44 -50 136c0 15 0 39 1 110h-34c-1 10 0 17 3 27c11 0 22 -1 31 -1l2 93h-36c0 16 1 8 2 28h37c16 40 40 95 49 134z" />
    <glyph glyph-name="Utilde" unicode="&#x168;" horiz-adv-x="579" 
d="M35 582c37 -2 59 -2 88 2c2 -140 8 -279 26 -402c12 -80 64 -162 148 -162c85 0 152 56 170 172c18 110 20 302 12 381c27 5 50 15 75 28c-16 -114 -36 -273 -53 -386c-18 -126 -77 -229 -217 -229c-144 0 -192 77 -212 218c-17 133 -20 264 -37 378zM332 640
c-17 0 -54 18 -71 19c-24 0 -41 -8 -64 -23l-11 14c27 25 72 59 93 58c19 0 52 -16 72 -17c23 0 41 9 62 21l12 -14c-32 -30 -72 -58 -93 -58z" />
    <glyph glyph-name="utilde" unicode="&#x169;" horiz-adv-x="458" 
d="M130 390c-8 -70 -13 -131 -13 -201c1 -56 -5 -152 70 -152c38 0 105 10 144 23c4 39 4 248 -5 317c18 1 54 5 80 11c-11 -89 -9 -344 3 -382c-29 -4 -43 -4 -74 -10c-3 16 -2 26 -3 40c-47 -15 -126 -41 -190 -41c-85 0 -90 77 -90 159c0 102 0 193 -4 226
c31 1 58 4 82 10zM259 474c-17 0 -54 18 -71 19c-24 0 -41 -8 -64 -23l-11 14c27 25 72 59 93 58c19 0 52 -16 72 -17c23 0 41 9 62 21l12 -14c-32 -30 -72 -58 -93 -58z" />
    <glyph glyph-name="Umacron" unicode="&#x16a;" horiz-adv-x="579" 
d="M35 582c37 -2 59 -2 88 2c2 -140 8 -279 26 -402c12 -80 64 -162 148 -162c85 0 152 56 170 172c18 110 20 302 12 381c27 5 50 15 75 28c-16 -114 -36 -273 -53 -386c-18 -126 -77 -229 -217 -229c-144 0 -192 77 -212 218c-17 133 -20 264 -37 378zM189 685
c101 -3 149 -3 224 -2c1 -11 0 -21 -5 -31c-97 3 -97 4 -222 3c-4 8 1 24 3 30z" />
    <glyph glyph-name="umacron" unicode="&#x16b;" horiz-adv-x="458" 
d="M130 390c-8 -70 -13 -131 -13 -201c1 -56 -5 -152 70 -152c38 0 105 10 144 23c4 39 4 248 -5 317c18 1 54 5 80 11c-11 -89 -9 -344 3 -382c-29 -4 -43 -4 -74 -10c-3 16 -2 26 -3 40c-47 -15 -126 -41 -190 -41c-85 0 -90 77 -90 159c0 102 0 193 -4 226
c31 1 58 4 82 10zM119 498c101 -3 149 -3 224 -2c1 -11 0 -21 -5 -31c-97 3 -97 4 -222 3c-4 8 1 24 3 30z" />
    <glyph glyph-name="Ubreve" unicode="&#x16c;" horiz-adv-x="579" 
d="M35 582c37 -2 59 -2 88 2c2 -140 8 -279 26 -402c12 -80 64 -162 148 -162c85 0 152 56 170 172c18 110 20 302 12 381c27 5 50 15 75 28c-16 -114 -36 -273 -53 -386c-18 -126 -77 -229 -217 -229c-144 0 -192 77 -212 218c-17 133 -20 264 -37 378zM383 733
c7 -2 12 -2 17 -7c-14 -60 -65 -99 -113 -99c-50 0 -91 44 -101 99c4 4 13 6 18 7c18 -31 46 -53 86 -53c37 0 74 20 93 53z" />
    <glyph glyph-name="ubreve" unicode="&#x16d;" horiz-adv-x="458" 
d="M130 390c-8 -70 -13 -131 -13 -201c1 -56 -5 -152 70 -152c38 0 105 10 144 23c4 39 4 248 -5 317c18 1 54 5 80 11c-11 -89 -9 -344 3 -382c-29 -4 -43 -4 -74 -10c-3 16 -2 26 -3 40c-47 -15 -126 -41 -190 -41c-85 0 -90 77 -90 159c0 102 0 193 -4 226
c31 1 58 4 82 10zM320 549c7 -2 12 -2 17 -7c-14 -60 -65 -99 -113 -99c-50 0 -91 44 -101 99c4 4 13 6 18 7c18 -31 46 -53 86 -53c37 0 74 20 93 53z" />
    <glyph glyph-name="Uring" unicode="&#x16e;" horiz-adv-x="579" 
d="M35 582c37 -2 59 -2 88 2c2 -140 8 -279 26 -402c12 -80 64 -162 148 -162c85 0 152 56 170 172c18 110 20 302 12 381c27 5 50 15 75 28c-16 -114 -36 -273 -53 -386c-18 -126 -77 -229 -217 -229c-144 0 -192 77 -212 218c-17 133 -20 264 -37 378zM314 740
c45 0 83 -16 83 -50c0 -47 -62 -68 -108 -67c-44 1 -73 18 -73 52c0 37 45 65 98 65zM309 719c-26 0 -46 -16 -46 -40c0 -18 13 -34 38 -34c31 0 49 18 49 43c0 16 -20 31 -41 31z" />
    <glyph glyph-name="uring" unicode="&#x16f;" horiz-adv-x="458" 
d="M130 390c-8 -70 -13 -131 -13 -201c1 -56 -5 -152 70 -152c38 0 105 10 144 23c4 39 4 248 -5 317c18 1 54 5 80 11c-11 -89 -9 -344 3 -382c-29 -4 -43 -4 -74 -10c-3 16 -2 26 -3 40c-47 -15 -126 -41 -190 -41c-85 0 -90 77 -90 159c0 102 0 193 -4 226
c31 1 58 4 82 10zM238 561c45 0 83 -16 83 -50c0 -47 -62 -68 -108 -67c-44 1 -73 18 -73 52c0 37 45 65 98 65zM233 540c-26 0 -46 -16 -46 -40c0 -18 13 -34 38 -34c31 0 49 18 49 43c0 16 -20 31 -41 31z" />
    <glyph glyph-name="Uhungarumlaut" unicode="&#x170;" horiz-adv-x="579" 
d="M308 764c24 -14 37 -20 64 -29c-60 -38 -113 -80 -166 -122l-18 9c45 47 97 109 120 142zM442 764c24 -14 37 -20 64 -29c-60 -38 -113 -80 -166 -122l-19 8c45 47 98 110 121 143zM35 582c37 -2 59 -2 88 2c2 -140 8 -279 26 -402c12 -80 64 -162 148 -162
c85 0 152 56 170 172c18 110 20 302 12 381c27 5 50 15 75 28c-16 -114 -36 -273 -53 -386c-18 -126 -77 -229 -217 -229c-144 0 -192 77 -212 218c-17 133 -20 264 -37 378z" />
    <glyph glyph-name="uhungarumlaut" unicode="&#x171;" horiz-adv-x="458" 
d="M130 390c-8 -70 -13 -131 -13 -201c1 -56 -5 -152 70 -152c38 0 105 10 144 23c4 39 4 248 -5 317c18 1 54 5 80 11c-11 -89 -9 -344 3 -382c-29 -4 -43 -4 -74 -10c-3 16 -2 26 -3 40c-47 -15 -126 -41 -190 -41c-85 0 -90 77 -90 159c0 102 0 193 -4 226
c31 1 58 4 82 10zM214 613c21 -7 42 -12 70 -13c-42 -54 -80 -112 -114 -168c-8 3 -11 6 -18 11c25 58 50 130 62 170zM334 613c21 -7 42 -12 69 -13c-41 -54 -79 -112 -113 -168c-8 3 -11 5 -17 11c25 58 49 130 61 170z" />
    <glyph glyph-name="Uogonek" unicode="&#x172;" horiz-adv-x="579" 
d="M366 -112c1 -7 2 -14 1 -21c-34 -8 -65 -16 -94 -16s-54 16 -54 49c0 26 26 60 53 86c-135 4 -181 81 -200 218c-17 133 -20 264 -37 378c37 -2 59 -2 88 2c2 -140 8 -279 26 -402c12 -80 64 -162 148 -162c85 0 152 56 170 172c18 110 20 302 12 381c27 5 50 15 75 28
c-16 -114 -36 -273 -53 -386c-17 -121 -73 -220 -201 -228c-12 -18 -22 -42 -22 -60c0 -31 11 -44 41 -44c15 0 38 3 47 5z" />
    <glyph glyph-name="uogonek" unicode="&#x173;" horiz-adv-x="458" 
d="M429 -104c1 -6 2 -13 1 -20c-34 -8 -66 -16 -94 -16c-29 0 -54 16 -54 48c0 28 27 62 55 89c-1 0 -2 -1 -2 -1c-3 16 -2 26 -3 40c-47 -15 -126 -41 -190 -41c-85 0 -90 77 -90 159c0 102 0 193 -4 226c31 1 58 4 82 10c-8 -70 -13 -131 -13 -201c1 -56 -5 -152 70 -152
c38 0 105 10 144 23c4 39 4 248 -5 317c18 1 54 5 80 11c-11 -89 -9 -344 3 -382c-17 -3 -28 -3 -41 -5c-15 -17 -28 -44 -28 -65c0 -31 12 -44 42 -44c15 0 37 3 47 4z" />
    <glyph glyph-name="Wcircumflex" unicode="&#x174;" horiz-adv-x="862" 
d="M26 584c38 -5 58 -4 97 1c23 -142 63 -315 112 -480c3 9 8 21 12 30c59 129 146 329 182 440c11 7 26 14 45 20c27 -142 78 -324 127 -487l13 32c56 128 127 325 159 435c25 3 55 9 81 20c-34 -52 -182 -389 -200 -429c-35 -81 -40 -89 -60 -168c-9 -9 -20 -20 -37 -26
c-45 194 -90 355 -133 496l-146 -331c-20 -41 -40 -95 -51 -138c-16 -14 -23 -19 -40 -26c-46 207 -98 428 -161 611zM352 634c-3 4 -6 10 -7 20c33 20 62 42 111 77c33 -28 66 -52 100 -76c-2 -7 -6 -13 -11 -19c-39 17 -59 28 -91 36c-33 -8 -60 -20 -102 -38z" />
    <glyph glyph-name="wcircumflex" unicode="&#x175;" horiz-adv-x="606" 
d="M23 384c24 -5 79 -2 99 1c1 -58 45 -218 69 -298c59 114 109 254 117 298c7 4 29 10 38 13c4 -48 55 -233 80 -312c58 115 94 244 103 289c20 3 48 8 77 20c-66 -109 -101 -195 -146 -291c-14 -31 -34 -79 -38 -105c-12 -7 -20 -11 -35 -15c-28 115 -65 231 -84 289
l-78 -169c-16 -37 -35 -78 -39 -105c-11 -7 -20 -11 -35 -15c-36 143 -103 371 -128 400zM228 454c-3 4 -6 10 -7 20c33 20 62 42 111 77c33 -28 66 -52 100 -76c-2 -7 -6 -13 -11 -19c-39 17 -59 28 -91 36c-33 -8 -60 -20 -102 -38z" />
    <glyph glyph-name="Ycircumflex" unicode="&#x176;" horiz-adv-x="459" 
d="M5 583c49 -4 69 -3 110 0c30 -81 79 -170 131 -243c61 81 120 162 156 237c27 1 42 3 77 11c-96 -108 -136 -156 -223 -280c-4 -140 -2 -236 9 -309c-37 3 -55 4 -85 0c6 63 11 223 6 307c-40 79 -138 227 -181 277zM158 634c-3 4 -6 10 -7 20c33 20 62 42 111 77
c33 -28 66 -52 100 -76c-2 -7 -6 -13 -11 -19c-39 17 -59 28 -91 36c-33 -8 -60 -20 -102 -38z" />
    <glyph glyph-name="ycircumflex" unicode="&#x177;" horiz-adv-x="456" 
d="M7 387c33 -8 81 -4 105 -1c5 -31 104 -253 142 -305c51 100 106 243 111 296c21 -1 53 3 89 13c-73 -116 -142 -243 -195 -363c-33 -76 -33 -85 -65 -161c-28 -66 -64 -116 -169 -141c-3 7 -3 21 -3 21c88 39 150 130 195 247c-43 104 -145 309 -210 394zM144 454
c-3 4 -6 10 -7 20c33 20 62 42 111 77c33 -28 66 -52 100 -76c-2 -7 -6 -13 -11 -19c-39 17 -59 28 -91 36c-33 -8 -60 -20 -102 -38z" />
    <glyph glyph-name="Ydieresis" unicode="&#x178;" horiz-adv-x="459" 
d="M5 583c49 -4 69 -3 110 0c30 -81 79 -170 131 -243c61 81 120 162 156 237c27 1 42 3 77 11c-96 -108 -136 -156 -223 -280c-4 -140 -2 -236 9 -309c-37 3 -55 4 -85 0c6 63 11 223 6 307c-40 79 -138 227 -181 277zM325 707c23 0 35 -12 35 -27c0 -19 -26 -32 -48 -32
c-16 0 -31 11 -31 24c0 18 23 35 44 35zM183 707c23 0 36 -12 36 -27c0 -19 -27 -32 -48 -32c-17 0 -31 11 -31 24c0 18 22 35 43 35z" />
    <glyph glyph-name="Zacute" unicode="&#x179;" horiz-adv-x="530" 
d="M80 586c127 -7 347 -10 391 0c8 -8 6 -11 7 -20c-21 -15 -46 -41 -64 -65c-90 -124 -225 -322 -302 -439c59 -4 307 -4 386 14c-9 -31 -14 -57 -16 -82c-195 13 -403 9 -458 0c-5 5 -7 15 -6 22c21 15 53 47 71 72c96 126 229 320 302 434c-107 4 -261 -1 -326 -14
c8 29 13 50 15 78zM358 741c2 -19 10 -44 19 -63c-69 -13 -117 -24 -182 -44l-7 18c59 27 132 66 170 89z" />
    <glyph glyph-name="zacute" unicode="&#x17a;" horiz-adv-x="404" 
d="M63 385c81 -5 189 -6 286 0c6 -5 7 -13 10 -19c-23 -18 -48 -46 -59 -59c-65 -82 -135 -167 -201 -248c70 0 211 0 276 11c-5 -13 -14 -40 -21 -75c-100 11 -287 7 -330 3c-4 4 -7 12 -9 22c21 14 50 39 69 61c75 88 155 186 198 243c-81 4 -179 -1 -234 -9
c7 20 11 43 15 70zM287 562c2 -19 10 -44 19 -63c-69 -13 -117 -24 -182 -44l-7 18c59 27 132 66 170 89z" />
    <glyph glyph-name="Zdotaccent" unicode="&#x17b;" horiz-adv-x="530" 
d="M80 586c127 -7 347 -10 391 0c8 -8 6 -11 7 -20c-21 -15 -46 -41 -64 -65c-90 -124 -225 -322 -302 -439c59 -4 307 -4 386 14c-9 -31 -14 -57 -16 -82c-195 13 -403 9 -458 0c-5 5 -7 15 -6 22c21 15 53 47 71 72c96 126 229 320 302 434c-107 4 -261 -1 -326 -14
c8 29 13 50 15 78zM279 715c31 0 37 -19 37 -29c0 -17 -23 -37 -52 -37c-20 0 -36 9 -36 30c0 15 18 36 51 36z" />
    <glyph glyph-name="zdotaccent" unicode="&#x17c;" horiz-adv-x="404" 
d="M63 385c81 -5 189 -6 286 0c6 -5 7 -13 10 -19c-23 -18 -48 -46 -59 -59c-65 -82 -135 -167 -201 -248c70 0 211 0 276 11c-5 -13 -14 -40 -21 -75c-100 11 -287 7 -330 3c-4 4 -7 12 -9 22c21 14 50 39 69 61c75 88 155 186 198 243c-81 4 -179 -1 -234 -9
c7 20 11 43 15 70zM214 528c31 0 37 -19 37 -29c0 -17 -23 -37 -52 -37c-20 0 -36 9 -36 30c0 15 18 36 51 36z" />
    <glyph glyph-name="Zcaron" unicode="&#x17d;" horiz-adv-x="530" 
d="M80 586c127 -7 347 -10 391 0c8 -8 6 -11 7 -20c-21 -15 -46 -41 -64 -65c-90 -124 -225 -322 -302 -439c59 -4 307 -4 386 14c-9 -31 -14 -57 -16 -82c-195 13 -403 9 -458 0c-5 5 -7 15 -6 22c21 15 53 47 71 72c96 126 229 320 302 434c-107 4 -261 -1 -326 -14
c8 29 13 50 15 78zM377 726c3 -4 6 -10 7 -20c-33 -20 -62 -42 -111 -77c-33 28 -66 52 -100 76c2 7 6 13 11 19c39 -17 59 -28 91 -36c33 8 60 20 102 38z" />
    <glyph glyph-name="zcaron" unicode="&#x17e;" horiz-adv-x="404" 
d="M63 385c81 -5 189 -6 286 0c6 -5 7 -13 10 -19c-23 -18 -48 -46 -59 -59c-65 -82 -135 -167 -201 -248c70 0 211 0 276 11c-5 -13 -14 -40 -21 -75c-100 11 -287 7 -330 3c-4 4 -7 12 -9 22c21 14 50 39 69 61c75 88 155 186 198 243c-81 4 -179 -1 -234 -9
c7 20 11 43 15 70zM321 550c3 -4 6 -10 7 -20c-33 -20 -62 -42 -111 -77c-33 28 -66 52 -100 76c2 7 6 13 11 19c39 -17 59 -28 91 -36c33 8 60 20 102 38z" />
    <glyph glyph-name="longs" unicode="&#x17f;" horiz-adv-x="202" 
d="M39 383h31c1 25 1 101 2 146c4 92 89 169 134 173c16 1 40 -4 58 -11c-3 -9 -7 -14 -13 -21c-10 4 -24 6 -38 6c-21 0 -46 -30 -57 -55c-16 -33 -24 -85 -24 -238c0 -98 2 -293 14 -385c-24 4 -63 3 -85 0c11 121 10 240 10 355c-7 0 -20 1 -34 0c0 11 0 17 2 30z" />
    <glyph glyph-name="florin" unicode="&#x192;" 
d="M49 334c9 -1 78 -1 92 -1c18 64 42 134 101 196c43 44 82 61 115 61c18 0 44 -15 58 -36c-4 -6 -7 -11 -16 -14c-73 50 -142 -29 -173 -127c-11 -33 -15 -52 -20 -80c35 -1 115 0 150 2c0 -4 -5 -25 -9 -31c-21 1 -100 2 -146 2c-16 -74 -42 -199 -54 -247
c-55 -235 -176 -336 -259 -336c-15 0 -36 10 -46 20c2 6 4 14 11 24c58 -40 126 26 149 61c45 71 67 135 87 230c18 83 41 208 48 247h-94c2 12 1 18 6 29z" />
    <glyph glyph-name="Scommaaccent" unicode="&#x218;" horiz-adv-x="298" 
d="M137 -40c23 0 37 -13 37 -49c0 -40 -37 -113 -70 -173l-19 9c22 50 27 76 27 106c0 31 -16 47 -16 68c0 17 15 39 41 39zM17 -2c-1 10 0 17 4 29c9 -2 20 -3 34 -3c82 0 141 53 138 122c0 74 -42 115 -90 165c-32 34 -56 74 -56 114c0 65 65 128 146 174
c6 -3 13 -13 13 -20c-62 -46 -95 -74 -97 -124c-2 -37 36 -82 66 -115c43 -43 87 -99 87 -170c0 -63 -51 -174 -209 -174c-10 0 -24 0 -36 2z" />
    <glyph glyph-name="scommaaccent" unicode="&#x219;" horiz-adv-x="243" 
d="M114 -40c23 0 36 -13 36 -49c0 -40 -36 -113 -69 -173l-19 9c22 50 27 76 27 106c0 31 -17 47 -17 68c0 17 15 39 42 39zM30 -2c-1 8 0 19 3 26c10 -2 29 -3 41 -3c42 0 66 27 65 71c0 33 -17 61 -45 94c-17 21 -42 54 -42 83c0 40 42 89 110 129c8 -4 11 -11 14 -18
c-54 -35 -66 -72 -66 -92c0 -25 17 -44 37 -66c47 -51 56 -85 56 -116c0 -60 -47 -111 -130 -111c-10 0 -32 1 -43 3z" />
    <glyph glyph-name="uni021A" unicode="&#x21a;" horiz-adv-x="441" 
d="M222 -40c23 0 36 -13 36 -49c0 -40 -36 -113 -69 -173l-19 9c22 50 27 76 27 106c0 31 -16 47 -16 68c0 17 15 39 41 39zM6 582c192 -5 258 -4 430 -1c3 -7 2 -9 1 -20c-68 -7 -132 -11 -181 -19c-4 -93 -5 -341 6 -544c-26 4 -48 4 -85 1c8 47 13 490 9 542
c-47 8 -99 14 -181 18c-2 8 -3 11 1 23z" />
    <glyph glyph-name="uni021B" unicode="&#x21b;" horiz-adv-x="285" 
d="M141 -40c24 0 37 -13 37 -49c0 -40 -36 -113 -69 -173l-19 9c22 50 27 76 27 106c0 31 -17 47 -17 68c0 17 15 39 41 39zM120 517c7 1 12 -1 19 -2c-3 -24 -10 -107 -8 -132c19 0 84 0 115 3c0 -12 -2 -17 -9 -33c-32 3 -81 2 -106 2c-4 -37 -3 -177 -3 -218
c0 -77 18 -96 48 -96c20 0 45 4 76 10c5 -7 7 -15 7 -23c-45 -16 -118 -38 -144 -38c-48 0 -50 44 -50 136c0 22 0 59 3 229h-36c0 16 1 8 2 28h37c16 40 40 95 49 134z" />
    <glyph glyph-name="circumflex" unicode="&#x2c6;" 
d="M97 454c-3 4 -6 10 -7 20c33 20 62 42 111 77c33 -28 66 -52 100 -76c-2 -7 -6 -13 -11 -19c-39 17 -59 28 -91 36c-33 -8 -60 -20 -102 -38z" />
    <glyph glyph-name="caron" unicode="&#x2c7;" 
d="M308 550c3 -4 6 -10 7 -20c-33 -20 -62 -42 -111 -77c-33 28 -66 52 -100 76c2 7 6 13 11 19c39 -17 59 -28 91 -36c33 8 60 20 102 38z" />
    <glyph glyph-name="breve" unicode="&#x2d8;" 
d="M289 549c7 -2 12 -2 17 -7c-14 -60 -65 -99 -113 -99c-50 0 -91 44 -101 99c4 4 13 6 18 7c18 -31 46 -53 86 -53c37 0 74 20 93 53z" />
    <glyph glyph-name="dotaccent" unicode="&#x2d9;" 
d="M219 528c31 0 37 -19 37 -29c0 -17 -23 -37 -52 -37c-20 0 -36 9 -36 30c0 15 18 36 51 36z" />
    <glyph glyph-name="ring" unicode="&#x2da;" 
d="M216 561c45 0 83 -16 83 -50c0 -47 -62 -68 -108 -67c-44 1 -73 18 -73 52c0 37 45 65 98 65zM211 540c-26 0 -46 -16 -46 -40c0 -18 13 -34 38 -34c31 0 49 18 49 43c0 16 -20 31 -41 31z" />
    <glyph glyph-name="ogonek" unicode="&#x2db;" 
d="M345 -104c1 -6 2 -13 1 -20c-34 -8 -66 -16 -94 -16c-29 0 -54 16 -54 48s37 74 69 101c5 0 11 -3 18 -7c-15 -18 -29 -45 -29 -66c0 -31 12 -44 42 -44c15 0 37 3 47 4z" />
    <glyph glyph-name="tilde" unicode="&#x2dc;" 
d="M225 474c-17 0 -54 18 -71 19c-24 0 -41 -8 -64 -23l-11 14c27 25 72 59 93 58c19 0 52 -16 72 -17c23 0 41 9 62 21l12 -14c-32 -30 -72 -58 -93 -58z" />
    <glyph glyph-name="hungarumlaut" unicode="&#x2dd;" 
d="M146 613c21 -7 42 -12 70 -13c-42 -54 -80 -112 -114 -168c-8 3 -11 6 -18 11c25 58 50 130 62 170zM266 613c21 -7 42 -12 69 -13c-41 -54 -79 -112 -113 -168c-8 3 -11 5 -17 11c25 58 49 130 61 170z" />
    <glyph glyph-name="pi" unicode="&#x3c0;" horiz-adv-x="540" 
d="M479 100c5 -3 12 -9 15 -15c-23 -43 -50 -96 -90 -96c-42 0 -59 56 -59 108c-1 71 5 156 11 223c-62 2 -132 1 -185 0c-5 -134 -13 -289 -14 -312c-26 -6 -46 -6 -80 -23c28 73 55 192 69 335c-46 -1 -83 -4 -113 -5c8 20 16 48 21 75c92 -12 346 -8 445 0
c-8 -20 -16 -49 -21 -75c-22 2 -56 4 -96 5c-5 -69 -7 -130 -5 -187c1 -32 10 -81 46 -81c21 0 43 29 56 48z" />
    <glyph glyph-name="endash" unicode="&#x2013;" horiz-adv-x="335" 
d="M29 269c100 -2 206 -2 281 -1c1 -11 -1 -21 -6 -31c-96 3 -154 4 -279 3c-3 8 1 23 4 29z" />
    <glyph glyph-name="emdash" unicode="&#x2014;" horiz-adv-x="595" 
d="M28 268c225 -2 319 -2 543 -2c1 -10 0 -20 -5 -30c-226 3 -317 4 -541 3c-4 8 0 23 3 29z" />
    <glyph glyph-name="quoteleft" unicode="&#x2018;" horiz-adv-x="186" 
d="M79 318c-23 0 -38 27 -38 66c0 48 45 136 85 210l22 -9c-28 -59 -42 -104 -42 -144c0 -34 17 -50 17 -79c0 -17 -17 -44 -44 -44z" />
    <glyph glyph-name="quoteright" unicode="&#x2019;" horiz-adv-x="186" 
d="M112 594c23 0 38 -27 38 -66c0 -48 -45 -136 -85 -210l-22 9c28 59 42 104 42 144c0 34 -17 50 -17 79c0 17 17 44 44 44z" />
    <glyph glyph-name="quotesinglbase" unicode="&#x201a;" horiz-adv-x="179" 
d="M86 95c23 0 38 -27 38 -66c0 -48 -45 -136 -85 -210l-22 9c28 59 42 104 42 144c0 34 -17 50 -17 79c0 17 17 44 44 44z" />
    <glyph glyph-name="quotedblleft" unicode="&#x201c;" horiz-adv-x="305" 
d="M197 318c-23 0 -38 27 -38 66c0 48 45 136 85 210l22 -9c-28 -59 -42 -104 -42 -144c0 -34 17 -50 17 -79c0 -17 -17 -44 -44 -44zM79 318c-23 0 -38 27 -38 66c0 48 45 136 85 210l22 -9c-28 -59 -42 -104 -42 -144c0 -34 17 -50 17 -79c0 -17 -17 -44 -44 -44z" />
    <glyph glyph-name="quotedblright" unicode="&#x201d;" horiz-adv-x="305" 
d="M112 594c23 0 38 -27 38 -66c0 -48 -45 -136 -85 -210l-22 9c28 59 42 104 42 144c0 34 -17 50 -17 79c0 17 17 44 44 44zM230 594c23 0 38 -27 38 -66c0 -48 -45 -136 -85 -210l-22 9c28 59 42 104 42 144c0 34 -17 50 -17 79c0 17 17 44 44 44z" />
    <glyph glyph-name="quotedblbase" unicode="&#x201e;" horiz-adv-x="298" 
d="M86 94c23 0 38 -27 38 -66c0 -48 -45 -136 -85 -210l-22 9c28 59 42 104 42 144c0 34 -17 50 -17 79c0 17 17 44 44 44zM204 94c23 0 38 -27 38 -66c0 -48 -45 -136 -85 -210l-22 9c28 59 42 104 42 144c0 34 -17 50 -17 79c0 17 17 44 44 44z" />
    <glyph glyph-name="dagger" unicode="&#x2020;" horiz-adv-x="220" 
d="M16 444c20 -2 60 -3 83 -3c1 61 -22 124 -27 145c26 -2 52 -6 82 1c-11 -35 -29 -86 -32 -146c28 0 66 1 85 2c0 -11 -1 -18 -4 -28c-24 2 -57 4 -81 4c-5 -106 11 -233 30 -332c-17 -34 -32 -69 -48 -125c-12 59 -22 81 -40 125c19 96 37 235 35 332c-27 0 -58 0 -85 -2
c-2 9 0 22 2 27z" />
    <glyph glyph-name="daggerdbl" unicode="&#x2021;" horiz-adv-x="213" 
d="M19 501c20 -2 52 -3 75 -3c1 38 -20 75 -26 88c27 -1 53 -3 83 1c-11 -22 -29 -51 -32 -89c27 0 62 0 82 1c0 -6 -1 -19 -5 -25c-24 1 -53 2 -77 2c-4 -65 7 -129 32 -178c-21 -44 -34 -129 -32 -189l77 2c2 -6 0 -22 -2 -25c-20 1 -53 2 -76 2c-1 -38 22 -76 28 -89
c-27 1 -54 4 -84 0c11 22 29 52 31 89c-27 0 -61 0 -81 -1c0 6 1 19 5 25c24 -1 52 -2 77 -2c3 65 -8 141 -32 187c22 51 33 120 31 180l-76 -2c-2 6 0 22 2 26z" />
    <glyph glyph-name="bullet" unicode="&#x2022;" horiz-adv-x="229" 
d="M121 305c34 0 51 -17 51 -43c0 -33 -37 -52 -70 -52c-25 0 -45 15 -45 38c0 30 31 57 64 57z" />
    <glyph glyph-name="ellipsis" unicode="&#x2026;" horiz-adv-x="567" 
d="M84 63c28 0 42 -12 42 -31c0 -25 -30 -39 -57 -39c-20 0 -36 11 -36 29c0 21 25 41 51 41zM286 63c28 0 42 -12 42 -31c0 -25 -30 -39 -57 -39c-20 0 -35 11 -35 29c0 21 25 41 50 41zM489 63c27 0 41 -12 41 -31c0 -25 -30 -39 -56 -39c-20 0 -36 11 -36 29
c0 21 25 41 51 41z" />
    <glyph glyph-name="perthousand" unicode="&#x2030;" horiz-adv-x="1141" 
d="M217 589c102 0 146 -69 146 -155c0 -45 -22 -104 -62 -136c-20 -16 -77 -38 -117 -38c-104 0 -144 90 -142 154c0 58 29 113 70 139c27 18 77 36 105 36zM692 581c-160 -161 -422 -430 -575 -594c-10 3 -22 8 -30 18c157 159 423 429 575 593c9 -4 23 -10 30 -17z
M206 560c-29 0 -95 -20 -95 -143c0 -49 24 -128 83 -128c74 0 107 70 104 143c-1 72 -38 128 -92 128zM587 323c103 0 147 -70 147 -156c0 -45 -23 -103 -63 -136c-20 -16 -76 -38 -116 -38c-104 0 -144 91 -143 155c0 57 30 112 70 139c27 17 78 36 105 36zM576 293
c-29 0 -95 -20 -95 -143c0 -49 25 -128 83 -128c75 0 107 70 105 143c-2 72 -39 128 -93 128zM952 322c103 0 147 -69 147 -156c0 -44 -23 -103 -63 -135c-20 -16 -76 -38 -116 -38c-104 0 -144 90 -143 154c0 58 29 113 70 139c27 18 78 36 105 36zM941 293
c-29 0 -95 -20 -95 -143c0 -49 25 -128 83 -128c75 0 107 70 105 143c-2 71 -39 128 -93 128z" />
    <glyph glyph-name="guilsinglleft" unicode="&#x2039;" horiz-adv-x="187" 
d="M143 60c-4 -5 -10 -15 -19 -16c-22 42 -53 88 -91 144c29 41 73 103 97 145c8 -2 11 -7 17 -13c-19 -50 -36 -89 -46 -131c8 -41 24 -78 42 -129z" />
    <glyph glyph-name="guilsinglright" unicode="&#x203a;" horiz-adv-x="187" 
d="M44 317c4 5 10 15 19 16c22 -42 53 -88 91 -144c-29 -41 -73 -103 -97 -145c-8 2 -11 7 -17 13c19 50 36 89 46 131c-8 41 -24 78 -42 129z" />
    <glyph glyph-name="fraction" unicode="&#x2044;" 
d="M515 586c-135 -182 -304 -416 -434 -598c-11 3 -20 3 -29 10c134 183 306 415 435 598c9 -1 24 -6 28 -10z" />
    <glyph glyph-name="Euro" unicode="&#x20ac;" 
d="M12 272c8 -1 16 -1 25 -1c0 21 1 40 5 60h-33c-3 9 1 27 3 33c12 -1 24 -1 35 -1c11 52 29 107 50 136c26 37 99 96 146 96c52 0 84 -17 122 -47c-5 -8 -10 -16 -23 -19c-27 19 -63 33 -101 33c-54 0 -112 -88 -129 -201c56 0 113 0 162 1c1 -11 -3 -23 -8 -33
c-65 1 -105 2 -158 2c-1 -21 -2 -41 -1 -61h139c0 -10 -5 -23 -10 -33c-50 2 -88 3 -128 3c8 -115 45 -211 119 -211c28 0 94 24 127 53c9 -5 14 -11 19 -21c-28 -26 -118 -76 -170 -76c-132 0 -163 132 -166 255h-29c-2 8 1 26 4 32z" />
    <glyph glyph-name="trademark" unicode="&#x2122;" horiz-adv-x="732" 
d="M234 230c41 85 74 191 101 277c6 19 16 62 16 80c6 1 16 1 24 5c25 -65 68 -175 106 -254c28 56 73 143 84 169c15 37 20 51 26 79c7 1 19 2 26 4c18 -91 50 -215 91 -358c-16 4 -74 4 -86 1c-9 77 -26 169 -46 238c-39 -77 -77 -158 -103 -235c-5 -3 -17 -5 -25 -10
c-43 119 -58 152 -98 244c-27 -89 -40 -142 -54 -235zM8 583c115 -2 178 -2 282 0c1 -5 0 -12 0 -19c-40 -4 -79 -6 -108 -10c-3 -55 -3 -198 4 -318c-15 1 -54 1 -75 0c4 54 7 287 5 317c-28 5 -59 6 -108 10c-1 5 -1 13 0 20z" />
    <glyph glyph-name="partialdiff" unicode="&#x2202;" 
d="M132 584c209 17 245 -65 235 -204c-13 -188 -117 -320 -280 -398c-42 40 -57 109 -57 161c1 157 121 239 205 239c29 0 58 0 70 -1c23 148 -54 191 -177 182c0 8 0 15 4 21zM302 354c-19 4 -46 3 -69 3c-76 -3 -146 -77 -146 -181c0 -42 8 -95 44 -139
c60 32 119 98 145 184c7 20 23 81 26 133z" />
    <glyph glyph-name="increment" unicode="&#x2206;" horiz-adv-x="556" 
d="M539 2l-2 -4c-93 4 -455 4 -535 -1l-2 5c70 103 159 283 229 439c32 72 42 102 51 147c11 5 15 5 27 10c72 -233 154 -423 232 -596zM274 484c-66 -154 -158 -343 -199 -453c144 -9 263 -8 365 -4c-38 129 -132 353 -166 457z" />
    <glyph glyph-name="product" unicode="&#x220f;" horiz-adv-x="591" 
d="M130 -160c-26 3 -58 5 -82 2c12 135 15 617 7 741c131 -3 349 -4 488 0c-17 -148 -14 -595 -6 -743c-26 3 -58 5 -82 2c12 123 14 547 9 710c-140 4 -195 4 -331 2c-12 -189 -11 -576 -3 -714z" />
    <glyph glyph-name="summation" unicode="&#x2211;" horiz-adv-x="512" 
d="M499 -79c-9 -31 -20 -69 -24 -94c-58 20 -280 17 -449 16c-5 5 -9 13 -9 20c59 70 182 256 254 377c-56 88 -186 268 -235 320c1 2 0 11 12 23c138 -4 356 -3 431 18c-11 -18 -18 -39 -24 -61c-98 12 -223 16 -326 18c65 -97 132 -180 210 -280
c-73 -102 -185 -268 -244 -369c59 -1 334 -1 404 12z" />
    <glyph glyph-name="minus" unicode="&#x2212;" horiz-adv-x="335" 
d="M29 271c100 -2 206 -2 281 -1c1 -11 -1 -23 -6 -33c-96 3 -154 4 -279 3c-3 8 1 26 4 31z" />
    <glyph glyph-name="radical" unicode="&#x221a;" horiz-adv-x="478" 
d="M137 401c4 -47 51 -192 79 -269c4 -14 9 -25 13 -35c49 117 194 530 199 600c20 -2 56 4 74 8c-43 -73 -197 -479 -237 -588c-12 -31 -32 -93 -34 -119c-13 -9 -18 -9 -33 -15c-39 132 -94 303 -117 358c-20 -7 -38 -13 -61 -25c-5 7 -9 13 -9 19c37 16 96 49 126 66z
" />
    <glyph glyph-name="infinity" unicode="&#x221e;" horiz-adv-x="708" 
d="M199 -10c-135 -1 -160 119 -160 188c0 70 26 134 75 170c32 23 67 43 106 43c72 0 105 -41 134 -116c54 71 122 116 159 116c105 0 152 -72 152 -190c0 -56 -21 -124 -67 -164c-35 -30 -69 -47 -107 -47c-72 0 -101 41 -138 117c-52 -65 -105 -117 -154 -117zM365 252
c28 -82 72 -217 156 -217c43 0 82 37 81 156c-1 92 -43 151 -108 151c-40 0 -103 -55 -129 -90zM197 353c-43 0 -95 -32 -95 -168c0 -64 35 -148 109 -148c40 0 94 45 131 95c-29 66 -64 221 -145 221z" />
    <glyph glyph-name="integral" unicode="&#x222b;" horiz-adv-x="247" 
d="M69 294c-1 34 -3 84 -2 118c4 92 90 170 134 174c17 1 40 -4 59 -12c-3 -9 -7 -13 -13 -21c-10 5 -24 7 -38 7c-21 0 -46 -31 -58 -56c-14 -30 -23 -76 -19 -211c2 -105 6 -206 6 -276c0 -131 -26 -181 -95 -250c-36 -37 -86 -50 -112 -33c0 9 2 13 6 22
c120 -9 135 135 137 222c3 104 -2 208 -5 316z" />
    <glyph glyph-name="notequal" unicode="&#x2260;" horiz-adv-x="388" 
d="M37 295c51 -2 109 -2 166 -2l31 99c9 1 27 -1 32 -5c-10 -28 -21 -60 -32 -94h119c1 -11 -1 -21 -6 -31c-41 1 -81 2 -122 2c-9 -27 -18 -55 -26 -82c58 0 115 0 154 1c1 -11 -1 -22 -6 -32c-52 2 -102 3 -157 3c-12 -39 -23 -75 -30 -101c-11 0 -24 -1 -35 4l33 97h-124
c-3 8 1 25 3 30l131 -2l26 83h-160c-3 8 1 24 3 30z" />
    <glyph glyph-name="lozenge" unicode="&#x25ca;" horiz-adv-x="433" 
d="M217 611c11 3 15 2 23 1c40 -110 138 -274 169 -306c-46 -65 -149 -214 -189 -309c-11 -4 -16 -3 -24 -1c-41 113 -141 279 -172 309c56 60 151 213 193 306zM211 30c50 91 107 236 118 273c-17 62 -70 203 -103 274c-51 -91 -107 -235 -118 -272
c15 -56 70 -204 103 -275z" />
    </font>
</defs>
</svg>
