<svg xmlns="http://www.w3.org/2000/svg">
<defs>
<font id="Dited" horiz-adv-x="472" >
  <font-face 
    font-family="Dited"
    font-weight="400"
    font-stretch="normal"
    units-per-em="1000"
    panose-1="2 0 5 6 0 0 0 2 0 4"
    ascent="800"
    descent="-200"
    x-height="434"
    cap-height="620"
    bbox="-20 -186 722 806"
    underline-thickness="50"
    underline-position="75"
    stemv="62"
    unicode-range="U+0020-2122"
  />
<missing-glyph horiz-adv-x="554" 
d="M122 465c0 -17 -14 -31 -31 -31s-31 14 -31 31s14 31 31 31s31 -14 31 -31zM122 403c0 -17 -14 -31 -31 -31s-31 14 -31 31s14 31 31 31s31 -14 31 -31zM122 341c0 -17 -14 -31 -31 -31s-31 14 -31 31s14 31 31 31s31 -14 31 -31zM122 279c0 -17 -14 -31 -31 -31
s-31 14 -31 31s14 31 31 31s31 -14 31 -31zM122 217c0 -17 -14 -31 -31 -31s-31 14 -31 31s14 31 31 31s31 -14 31 -31zM122 155c0 -17 -14 -31 -31 -31s-31 14 -31 31s14 31 31 31s31 -14 31 -31zM122 93c0 -17 -14 -31 -31 -31s-31 14 -31 31s14 31 31 31s31 -14 31 -31z
M122 527c0 -17 -14 -31 -31 -31s-31 14 -31 31s14 31 31 31s31 -14 31 -31zM184 589c0 -17 -14 -31 -31 -31s-31 14 -31 31s14 31 31 31s31 -14 31 -31zM184 31c0 -17 -14 -31 -31 -31s-31 14 -31 31s14 31 31 31s31 -14 31 -31zM246 589c0 -17 -14 -31 -31 -31
s-31 14 -31 31s14 31 31 31s31 -14 31 -31zM246 31c0 -17 -14 -31 -31 -31s-31 14 -31 31s14 31 31 31s31 -14 31 -31zM308 589c0 -17 -14 -31 -31 -31s-31 14 -31 31s14 31 31 31s31 -14 31 -31zM308 31c0 -17 -14 -31 -31 -31s-31 14 -31 31s14 31 31 31s31 -14 31 -31z
M370 589c0 -17 -14 -31 -31 -31s-31 14 -31 31s14 31 31 31s31 -14 31 -31zM370 31c0 -17 -14 -31 -31 -31s-31 14 -31 31s14 31 31 31s31 -14 31 -31zM432 589c0 -17 -14 -31 -31 -31s-31 14 -31 31s14 31 31 31s31 -14 31 -31zM432 31c0 -17 -14 -31 -31 -31
s-31 14 -31 31s14 31 31 31s31 -14 31 -31zM494 465c0 -17 -14 -31 -31 -31s-31 14 -31 31s14 31 31 31s31 -14 31 -31zM494 403c0 -17 -14 -31 -31 -31s-31 14 -31 31s14 31 31 31s31 -14 31 -31zM494 341c0 -17 -14 -31 -31 -31s-31 14 -31 31s14 31 31 31s31 -14 31 -31z

<glyph glyph-name=".notdef" horiz-adv-x="554" 
d="M122 465c0 -17 -14 -31 -31 -31s-31 14 -31 31s14 31 31 31s31 -14 31 -31zM122 403c0 -17 -14 -31 -31 -31s-31 14 -31 31s14 31 31 31s31 -14 31 -31zM122 341c0 -17 -14 -31 -31 -31s-31 14 -31 31s14 31 31 31s31 -14 31 -31zM122 279c0 -17 -14 -31 -31 -31
s-31 14 -31 31s14 31 31 31s31 -14 31 -31zM122 217c0 -17 -14 -31 -31 -31s-31 14 -31 31s14 31 31 31s31 -14 31 -31zM122 155c0 -17 -14 -31 -31 -31s-31 14 -31 31s14 31 31 31s31 -14 31 -31zM122 93c0 -17 -14 -31 -31 -31s-31 14 -31 31s14 31 31 31s31 -14 31 -31z
M122 527c0 -17 -14 -31 -31 -31s-31 14 -31 31s14 31 31 31s31 -14 31 -31zM184 589c0 -17 -14 -31 -31 -31s-31 14 -31 31s14 31 31 31s31 -14 31 -31zM184 31c0 -17 -14 -31 -31 -31s-31 14 -31 31s14 31 31 31s31 -14 31 -31zM246 589c0 -17 -14 -31 -31 -31
s-31 14 -31 31s14 31 31 31s31 -14 31 -31zM246 31c0 -17 -14 -31 -31 -31s-31 14 -31 31s14 31 31 31s31 -14 31 -31zM308 589c0 -17 -14 -31 -31 -31s-31 14 -31 31s14 31 31 31s31 -14 31 -31zM308 31c0 -17 -14 -31 -31 -31s-31 14 -31 31s14 31 31 31s31 -14 31 -31z
M370 589c0 -17 -14 -31 -31 -31s-31 14 -31 31s14 31 31 31s31 -14 31 -31zM370 31c0 -17 -14 -31 -31 -31s-31 14 -31 31s14 31 31 31s31 -14 31 -31zM432 589c0 -17 -14 -31 -31 -31s-31 14 -31 31s14 31 31 31s31 -14 31 -31zM432 31c0 -17 -14 -31 -31 -31
s-31 14 -31 31s14 31 31 31s31 -14 31 -31zM494 465c0 -17 -14 -31 -31 -31s-31 14 -31 31s14 31 31 31s31 -14 31 -31zM494 403c0 -17 -14 -31 -31 -31s-31 14 -31 31s14 31 31 31s31 -14 31 -31zM494 341c0 -17 -14 -31 -31 -31s-31 14 -31 31s14 31 31 31s31 -14 31 -31z
M494 279c0 -17 -14 -31 -31 -31s-31 14 -31 31s14 31 31 31s31 -14 31 -31zM494 217c0 -17 -14 -31 -31 -31s-31 14 -31 31s14 31 31 31s31 -14 31 -31zM494 155c0 -17 -14 -31 -31 -31s-31 14 -31 31s14 31 31 31s31 -14 31 -31zM494 93c0 -17 -14 -31 -31 -31
s-31 14 -31 31s14 31 31 31s31 -14 31 -31zM494 527c0 -17 -14 -31 -31 -31s-31 14 -31 31s14 31 31 31s31 -14 31 -31z" />
    <glyph glyph-name="exclam" unicode="!" horiz-adv-x="182" 
d="M122 155c0 -17 -14 -31 -31 -31s-31 14 -31 31s14 31 31 31s31 -14 31 -31zM122 217c0 -17 -14 -31 -31 -31s-31 14 -31 31s14 31 31 31s31 -14 31 -31zM122 279c0 -17 -14 -31 -31 -31s-31 14 -31 31s14 31 31 31s31 -14 31 -31zM122 341c0 -17 -14 -31 -31 -31
s-31 14 -31 31s14 31 31 31s31 -14 31 -31zM122 403c0 -17 -14 -31 -31 -31s-31 14 -31 31s14 31 31 31s31 -14 31 -31zM122 465c0 -17 -14 -31 -31 -31s-31 14 -31 31s14 31 31 31s31 -14 31 -31zM122 527c0 -17 -14 -31 -31 -31s-31 14 -31 31s14 31 31 31s31 -14 31 -31z
M122 589c0 -17 -14 -31 -31 -31s-31 14 -31 31s14 31 31 31s31 -14 31 -31zM133 42c0 -23 -19 -42 -42 -42s-42 19 -42 42c0 22 19 41 42 41s42 -19 42 -41z" />
    <glyph glyph-name="quotedbl" unicode="&#x22;" horiz-adv-x="258" 
d="M101 437c0 -11 -9 -19 -19 -19s-19 8 -19 19c0 10 9 18 19 18s19 -8 19 -18zM113 496c0 -17 -14 -31 -31 -31s-31 14 -31 31s14 31 31 31s31 -14 31 -31zM124 579c0 -23 -19 -42 -42 -42s-42 19 -42 42c0 22 19 41 42 41s42 -19 42 -41zM195 437c0 -11 -9 -19 -19 -19
s-19 8 -19 19c0 10 9 18 19 18s19 -8 19 -18zM207 496c0 -17 -14 -31 -31 -31s-31 14 -31 31s14 31 31 31s31 -14 31 -31zM218 579c0 -23 -19 -42 -42 -42s-42 19 -42 42c0 22 19 41 42 41s42 -19 42 -41z" />
    <glyph glyph-name="numbersign" unicode="#" horiz-adv-x="452" 
d="M350 31c0 -17 -14 -31 -31 -31s-31 14 -31 31s14 31 31 31s31 -14 31 -31zM350 93c0 -17 -14 -31 -31 -31s-31 14 -31 31s14 31 31 31s31 -14 31 -31zM412 155c0 -17 -14 -31 -31 -31s-31 14 -31 31s14 31 31 31s31 -14 31 -31zM350 155c0 -17 -14 -31 -31 -31
s-31 14 -31 31s14 31 31 31s31 -14 31 -31zM350 217c0 -17 -14 -31 -31 -31s-31 14 -31 31s14 31 31 31s31 -14 31 -31zM288 155c0 -17 -14 -31 -31 -31s-31 14 -31 31s14 31 31 31s31 -14 31 -31zM226 155c0 -17 -14 -31 -31 -31s-31 14 -31 31s14 31 31 31s31 -14 31 -31z
M350 279c0 -17 -14 -31 -31 -31s-31 14 -31 31s14 31 31 31s31 -14 31 -31zM350 341c0 -17 -14 -31 -31 -31s-31 14 -31 31s14 31 31 31s31 -14 31 -31zM412 465c0 -17 -14 -31 -31 -31s-31 14 -31 31s14 31 31 31s31 -14 31 -31zM350 403c0 -17 -14 -31 -31 -31
s-31 14 -31 31s14 31 31 31s31 -14 31 -31zM350 465c0 -17 -14 -31 -31 -31s-31 14 -31 31s14 31 31 31s31 -14 31 -31zM288 465c0 -17 -14 -31 -31 -31s-31 14 -31 31s14 31 31 31s31 -14 31 -31zM226 465c0 -17 -14 -31 -31 -31s-31 14 -31 31s14 31 31 31s31 -14 31 -31z
M164 31c0 -17 -14 -31 -31 -31s-31 14 -31 31s14 31 31 31s31 -14 31 -31zM164 93c0 -17 -14 -31 -31 -31s-31 14 -31 31s14 31 31 31s31 -14 31 -31zM164 155c0 -17 -14 -31 -31 -31s-31 14 -31 31s14 31 31 31s31 -14 31 -31zM164 217c0 -17 -14 -31 -31 -31
s-31 14 -31 31s14 31 31 31s31 -14 31 -31zM102 155c0 -17 -14 -31 -31 -31s-31 14 -31 31s14 31 31 31s31 -14 31 -31zM164 279c0 -17 -14 -31 -31 -31s-31 14 -31 31s14 31 31 31s31 -14 31 -31zM164 341c0 -17 -14 -31 -31 -31s-31 14 -31 31s14 31 31 31s31 -14 31 -31z
M164 403c0 -17 -14 -31 -31 -31s-31 14 -31 31s14 31 31 31s31 -14 31 -31zM164 465c0 -17 -14 -31 -31 -31s-31 14 -31 31s14 31 31 31s31 -14 31 -31zM102 465c0 -17 -14 -31 -31 -31s-31 14 -31 31s14 31 31 31s31 -14 31 -31zM350 527c0 -17 -14 -31 -31 -31
s-31 14 -31 31s14 31 31 31s31 -14 31 -31zM350 589c0 -17 -14 -31 -31 -31s-31 14 -31 31s14 31 31 31s31 -14 31 -31zM164 527c0 -17 -14 -31 -31 -31s-31 14 -31 31s14 31 31 31s31 -14 31 -31zM164 589c0 -17 -14 -31 -31 -31s-31 14 -31 31s14 31 31 31s31 -14 31 -31z
" />
    <glyph glyph-name="dollar" unicode="$" horiz-adv-x="442" 
d="M92 403c0 -17 -14 -31 -31 -31s-31 14 -31 31s14 31 31 31s31 -14 31 -31zM92 465c0 -17 -14 -31 -31 -31s-31 14 -31 31s14 31 31 31s31 -14 31 -31zM92 527c0 -17 -14 -31 -31 -31s-31 14 -31 31s14 31 31 31s31 -14 31 -31zM92 93c0 -17 -14 -31 -31 -31
s-31 14 -31 31s14 31 31 31s31 -14 31 -31zM154 31c0 -17 -14 -31 -31 -31s-31 14 -31 31s14 31 31 31s31 -14 31 -31zM154 341c0 -17 -14 -31 -31 -31s-31 14 -31 31s14 31 31 31s31 -14 31 -31zM154 589c0 -17 -14 -31 -31 -31s-31 14 -31 31s14 31 31 31s31 -14 31 -31z
M216 31c0 -17 -14 -31 -31 -31s-31 14 -31 31s14 31 31 31s31 -14 31 -31zM216 341c0 -17 -14 -31 -31 -31s-31 14 -31 31s14 31 31 31s31 -14 31 -31zM216 589c0 -17 -14 -31 -31 -31s-31 14 -31 31s14 31 31 31s31 -14 31 -31zM278 31c0 -17 -14 -31 -31 -31
s-31 14 -31 31s14 31 31 31s31 -14 31 -31zM278 341c0 -17 -14 -31 -31 -31s-31 14 -31 31s14 31 31 31s31 -14 31 -31zM278 589c0 -17 -14 -31 -31 -31s-31 14 -31 31s14 31 31 31s31 -14 31 -31zM340 31c0 -17 -14 -31 -31 -31s-31 14 -31 31s14 31 31 31s31 -14 31 -31z
M340 341c0 -17 -14 -31 -31 -31s-31 14 -31 31s14 31 31 31s31 -14 31 -31zM340 589c0 -17 -14 -31 -31 -31s-31 14 -31 31s14 31 31 31s31 -14 31 -31zM402 155c0 -17 -14 -31 -31 -31s-31 14 -31 31s14 31 31 31s31 -14 31 -31zM402 217c0 -17 -14 -31 -31 -31
s-31 14 -31 31s14 31 31 31s31 -14 31 -31zM402 279c0 -17 -14 -31 -31 -31s-31 14 -31 31s14 31 31 31s31 -14 31 -31zM402 527c0 -17 -14 -31 -31 -31s-31 14 -31 31s14 31 31 31s31 -14 31 -31zM402 93c0 -17 -14 -31 -31 -31s-31 14 -31 31s14 31 31 31s31 -14 31 -31z
M247 -31c0 -17 -14 -31 -31 -31s-31 14 -31 31s14 31 31 31s31 -14 31 -31zM247 93c0 -17 -14 -31 -31 -31s-31 14 -31 31s14 31 31 31s31 -14 31 -31zM247 155c0 -17 -14 -31 -31 -31s-31 14 -31 31s14 31 31 31s31 -14 31 -31zM247 217c0 -17 -14 -31 -31 -31
s-31 14 -31 31s14 31 31 31s31 -14 31 -31zM247 279c0 -17 -14 -31 -31 -31s-31 14 -31 31s14 31 31 31s31 -14 31 -31zM247 403c0 -17 -14 -31 -31 -31s-31 14 -31 31s14 31 31 31s31 -14 31 -31zM247 465c0 -17 -14 -31 -31 -31s-31 14 -31 31s14 31 31 31s31 -14 31 -31z
M247 527c0 -17 -14 -31 -31 -31s-31 14 -31 31s14 31 31 31s31 -14 31 -31zM247 651c0 -17 -14 -31 -31 -31s-31 14 -31 31s14 31 31 31s31 -14 31 -31z" />
    <glyph glyph-name="percent" horiz-adv-x="452" 
d="M102 31c0 -17 -14 -31 -31 -31s-31 14 -31 31s14 31 31 31s31 -14 31 -31zM102 527c0 -17 -14 -31 -31 -31s-31 14 -31 31s14 31 31 31s31 -14 31 -31zM102 589c0 -17 -14 -31 -31 -31s-31 14 -31 31s14 31 31 31s31 -14 31 -31zM164 155c0 -17 -14 -31 -31 -31
s-31 14 -31 31s14 31 31 31s31 -14 31 -31zM164 589c0 -17 -14 -31 -31 -31s-31 14 -31 31s14 31 31 31s31 -14 31 -31zM164 93c0 -17 -14 -31 -31 -31s-31 14 -31 31s14 31 31 31s31 -14 31 -31zM226 217c0 -17 -14 -31 -31 -31s-31 14 -31 31s14 31 31 31s31 -14 31 -31z
M226 279c0 -17 -14 -31 -31 -31s-31 14 -31 31s14 31 31 31s31 -14 31 -31zM288 341c0 -17 -14 -31 -31 -31s-31 14 -31 31s14 31 31 31s31 -14 31 -31zM288 403c0 -17 -14 -31 -31 -31s-31 14 -31 31s14 31 31 31s31 -14 31 -31zM350 31c0 -17 -14 -31 -31 -31
s-31 14 -31 31s14 31 31 31s31 -14 31 -31zM350 465c0 -17 -14 -31 -31 -31s-31 14 -31 31s14 31 31 31s31 -14 31 -31zM350 527c0 -17 -14 -31 -31 -31s-31 14 -31 31s14 31 31 31s31 -14 31 -31zM412 31c0 -17 -14 -31 -31 -31s-31 14 -31 31s14 31 31 31s31 -14 31 -31z
M412 589c0 -17 -14 -31 -31 -31s-31 14 -31 31s14 31 31 31s31 -14 31 -31zM412 93c0 -17 -14 -31 -31 -31s-31 14 -31 31s14 31 31 31s31 -14 31 -31z" />
    <glyph glyph-name="ampersand" unicode="&#x26;" horiz-adv-x="536" 
d="M102 155c0 -17 -14 -31 -31 -31s-31 14 -31 31s14 31 31 31s31 -14 31 -31zM102 217c0 -17 -14 -31 -31 -31s-31 14 -31 31s14 31 31 31s31 -14 31 -31zM102 465c0 -17 -14 -31 -31 -31s-31 14 -31 31s14 31 31 31s31 -14 31 -31zM102 527c0 -17 -14 -31 -31 -31
s-31 14 -31 31s14 31 31 31s31 -14 31 -31zM102 93c0 -17 -14 -31 -31 -31s-31 14 -31 31s14 31 31 31s31 -14 31 -31zM164 31c0 -17 -14 -31 -31 -31s-31 14 -31 31s14 31 31 31s31 -14 31 -31zM164 279c0 -17 -14 -31 -31 -31s-31 14 -31 31s14 31 31 31s31 -14 31 -31z
M164 403c0 -17 -14 -31 -31 -31s-31 14 -31 31s14 31 31 31s31 -14 31 -31zM164 589c0 -17 -14 -31 -31 -31s-31 14 -31 31s14 31 31 31s31 -14 31 -31zM226 31c0 -17 -14 -31 -31 -31s-31 14 -31 31s14 31 31 31s31 -14 31 -31zM226 341c0 -17 -14 -31 -31 -31
s-31 14 -31 31s14 31 31 31s31 -14 31 -31zM226 589c0 -17 -14 -31 -31 -31s-31 14 -31 31s14 31 31 31s31 -14 31 -31zM288 31c0 -17 -14 -31 -31 -31s-31 14 -31 31s14 31 31 31s31 -14 31 -31zM288 279c0 -17 -14 -31 -31 -31s-31 14 -31 31s14 31 31 31s31 -14 31 -31z
M288 589c0 -17 -14 -31 -31 -31s-31 14 -31 31s14 31 31 31s31 -14 31 -31zM350 217c0 -17 -14 -31 -31 -31s-31 14 -31 31s14 31 31 31s31 -14 31 -31zM350 527c0 -17 -14 -31 -31 -31s-31 14 -31 31s14 31 31 31s31 -14 31 -31zM350 93c0 -17 -14 -31 -31 -31
s-31 14 -31 31s14 31 31 31s31 -14 31 -31zM412 155c0 -17 -14 -31 -31 -31s-31 14 -31 31s14 31 31 31s31 -14 31 -31zM474 217c0 -17 -14 -31 -31 -31s-31 14 -31 31s14 31 31 31s31 -14 31 -31zM474 93c0 -17 -14 -31 -31 -31s-31 14 -31 31s14 31 31 31s31 -14 31 -31z
M536 31c0 -17 -14 -31 -31 -31s-31 14 -31 31s14 31 31 31s31 -14 31 -31z" />
    <glyph glyph-name="quotesingle" unicode="'" horiz-adv-x="164" 
d="M101 437c0 -11 -9 -19 -19 -19s-19 8 -19 19c0 10 9 18 19 18s19 -8 19 -18zM113 496c0 -17 -14 -31 -31 -31s-31 14 -31 31s14 31 31 31s31 -14 31 -31zM124 579c0 -23 -19 -42 -42 -42s-42 19 -42 42c0 22 19 41 42 41s42 -19 42 -41z" />
    <glyph glyph-name="parenleft" unicode="(" horiz-adv-x="204" 
d="M102 31c0 -17 -14 -31 -31 -31s-31 14 -31 31s14 31 31 31s31 -14 31 -31zM102 155c0 -17 -14 -31 -31 -31s-31 14 -31 31s14 31 31 31s31 -14 31 -31zM102 217c0 -17 -14 -31 -31 -31s-31 14 -31 31s14 31 31 31s31 -14 31 -31zM102 279c0 -17 -14 -31 -31 -31
s-31 14 -31 31s14 31 31 31s31 -14 31 -31zM102 341c0 -17 -14 -31 -31 -31s-31 14 -31 31s14 31 31 31s31 -14 31 -31zM102 403c0 -17 -14 -31 -31 -31s-31 14 -31 31s14 31 31 31s31 -14 31 -31zM102 465c0 -17 -14 -31 -31 -31s-31 14 -31 31s14 31 31 31s31 -14 31 -31z
M102 527c0 -17 -14 -31 -31 -31s-31 14 -31 31s14 31 31 31s31 -14 31 -31zM102 589c0 -17 -14 -31 -31 -31s-31 14 -31 31s14 31 31 31s31 -14 31 -31zM102 93c0 -17 -14 -31 -31 -31s-31 14 -31 31s14 31 31 31s31 -14 31 -31zM164 651c0 -17 -14 -31 -31 -31
s-31 14 -31 31s14 31 31 31s31 -14 31 -31zM164 -31c0 -17 -14 -31 -31 -31s-31 14 -31 31s14 31 31 31s31 -14 31 -31z" />
    <glyph glyph-name="parenright" unicode=")" horiz-adv-x="204" 
d="M102 31c0 17 14 31 31 31s31 -14 31 -31s-14 -31 -31 -31s-31 14 -31 31zM102 155c0 17 14 31 31 31s31 -14 31 -31s-14 -31 -31 -31s-31 14 -31 31zM102 217c0 17 14 31 31 31s31 -14 31 -31s-14 -31 -31 -31s-31 14 -31 31zM102 279c0 17 14 31 31 31s31 -14 31 -31
s-14 -31 -31 -31s-31 14 -31 31zM102 341c0 17 14 31 31 31s31 -14 31 -31s-14 -31 -31 -31s-31 14 -31 31zM102 403c0 17 14 31 31 31s31 -14 31 -31s-14 -31 -31 -31s-31 14 -31 31zM102 465c0 17 14 31 31 31s31 -14 31 -31s-14 -31 -31 -31s-31 14 -31 31zM102 527
c0 17 14 31 31 31s31 -14 31 -31s-14 -31 -31 -31s-31 14 -31 31zM102 589c0 17 14 31 31 31s31 -14 31 -31s-14 -31 -31 -31s-31 14 -31 31zM102 93c0 17 14 31 31 31s31 -14 31 -31s-14 -31 -31 -31s-31 14 -31 31zM40 651c0 17 14 31 31 31s31 -14 31 -31
s-14 -31 -31 -31s-31 14 -31 31zM40 -31c0 17 14 31 31 31s31 -14 31 -31s-14 -31 -31 -31s-31 14 -31 31z" />
    <glyph glyph-name="asterisk" unicode="*" horiz-adv-x="328" 
d="M102 403c0 -17 -14 -31 -31 -31s-31 14 -31 31s14 31 31 31s31 -14 31 -31zM102 589c0 -17 -14 -31 -31 -31s-31 14 -31 31s14 31 31 31s31 -14 31 -31zM164 465c0 -17 -14 -31 -31 -31s-31 14 -31 31s14 31 31 31s31 -14 31 -31zM164 527c0 -17 -14 -31 -31 -31
s-31 14 -31 31s14 31 31 31s31 -14 31 -31zM226 465c0 -17 -14 -31 -31 -31s-31 14 -31 31s14 31 31 31s31 -14 31 -31zM226 527c0 -17 -14 -31 -31 -31s-31 14 -31 31s14 31 31 31s31 -14 31 -31zM288 403c0 -17 -14 -31 -31 -31s-31 14 -31 31s14 31 31 31s31 -14 31 -31z
M288 589c0 -17 -14 -31 -31 -31s-31 14 -31 31s14 31 31 31s31 -14 31 -31z" />
    <glyph glyph-name="plus" unicode="+" horiz-adv-x="390" 
d="M164 279c0 -17 -14 -31 -31 -31s-31 14 -31 31s14 31 31 31s31 -14 31 -31zM226 217c0 -17 -14 -31 -31 -31s-31 14 -31 31s14 31 31 31s31 -14 31 -31zM226 279c0 -17 -14 -31 -31 -31s-31 14 -31 31s14 31 31 31s31 -14 31 -31zM226 341c0 -17 -14 -31 -31 -31
s-31 14 -31 31s14 31 31 31s31 -14 31 -31zM226 403c0 -17 -14 -31 -31 -31s-31 14 -31 31s14 31 31 31s31 -14 31 -31zM288 279c0 -17 -14 -31 -31 -31s-31 14 -31 31s14 31 31 31s31 -14 31 -31zM350 279c0 -17 -14 -31 -31 -31s-31 14 -31 31s14 31 31 31s31 -14 31 -31z
M102 279c0 -17 -14 -31 -31 -31s-31 14 -31 31s14 31 31 31s31 -14 31 -31zM226 155c0 -17 -14 -31 -31 -31s-31 14 -31 31s14 31 31 31s31 -14 31 -31z" />
    <glyph glyph-name="comma" unicode="," horiz-adv-x="175" 
d="M93 -35c0 -17 -14 -31 -31 -31s-31 14 -31 31s14 31 31 31s31 -14 31 -31zM135 42c0 -23 -19 -42 -42 -42s-42 19 -42 42c0 22 19 41 42 41s42 -19 42 -41zM58 -89c0 -11 -9 -19 -19 -19s-19 8 -19 19c0 10 9 18 19 18s19 -8 19 -18z" />
    <glyph glyph-name="hyphen" unicode="-" horiz-adv-x="328" 
d="M164 279c0 -17 -14 -31 -31 -31s-31 14 -31 31s14 31 31 31s31 -14 31 -31zM226 279c0 -17 -14 -31 -31 -31s-31 14 -31 31s14 31 31 31s31 -14 31 -31zM288 279c0 -17 -14 -31 -31 -31s-31 14 -31 31s14 31 31 31s31 -14 31 -31zM102 279c0 -17 -14 -31 -31 -31
s-31 14 -31 31s14 31 31 31s31 -14 31 -31z" />
    <glyph glyph-name="period" unicode="." horiz-adv-x="164" 
d="M124 42c0 -23 -19 -42 -42 -42s-42 19 -42 42c0 22 19 41 42 41s42 -19 42 -41z" />
    <glyph glyph-name="slash" unicode="/" horiz-adv-x="248" 
d="M62 31c0 -17 -14 -31 -31 -31s-31 14 -31 31s14 31 31 31s31 -14 31 -31zM62 93c0 -17 -14 -31 -31 -31s-31 14 -31 31s14 31 31 31s31 -14 31 -31zM124 155c0 -17 -14 -31 -31 -31s-31 14 -31 31s14 31 31 31s31 -14 31 -31zM124 217c0 -17 -14 -31 -31 -31
s-31 14 -31 31s14 31 31 31s31 -14 31 -31zM124 279c0 -17 -14 -31 -31 -31s-31 14 -31 31s14 31 31 31s31 -14 31 -31zM186 341c0 -17 -14 -31 -31 -31s-31 14 -31 31s14 31 31 31s31 -14 31 -31zM186 403c0 -17 -14 -31 -31 -31s-31 14 -31 31s14 31 31 31s31 -14 31 -31z
M186 465c0 -17 -14 -31 -31 -31s-31 14 -31 31s14 31 31 31s31 -14 31 -31zM248 527c0 -17 -14 -31 -31 -31s-31 14 -31 31s14 31 31 31s31 -14 31 -31zM248 589c0 -17 -14 -31 -31 -31s-31 14 -31 31s14 31 31 31s31 -14 31 -31z" />
    <glyph glyph-name="zero" unicode="0" horiz-adv-x="492" 
d="M122 155c0 -17 -14 -31 -31 -31s-31 14 -31 31s14 31 31 31s31 -14 31 -31zM122 217c0 -17 -14 -31 -31 -31s-31 14 -31 31s14 31 31 31s31 -14 31 -31zM122 279c0 -17 -14 -31 -31 -31s-31 14 -31 31s14 31 31 31s31 -14 31 -31zM122 341c0 -17 -14 -31 -31 -31
s-31 14 -31 31s14 31 31 31s31 -14 31 -31zM122 403c0 -17 -14 -31 -31 -31s-31 14 -31 31s14 31 31 31s31 -14 31 -31zM122 465c0 -17 -14 -31 -31 -31s-31 14 -31 31s14 31 31 31s31 -14 31 -31zM122 527c0 -17 -14 -31 -31 -31s-31 14 -31 31s14 31 31 31s31 -14 31 -31z
M122 93c0 -17 -14 -31 -31 -31s-31 14 -31 31s14 31 31 31s31 -14 31 -31zM184 31c0 -17 -14 -31 -31 -31s-31 14 -31 31s14 31 31 31s31 -14 31 -31zM184 589c0 -17 -14 -31 -31 -31s-31 14 -31 31s14 31 31 31s31 -14 31 -31zM246 31c0 -17 -14 -31 -31 -31s-31 14 -31 31
s14 31 31 31s31 -14 31 -31zM246 589c0 -17 -14 -31 -31 -31s-31 14 -31 31s14 31 31 31s31 -14 31 -31zM308 31c0 -17 -14 -31 -31 -31s-31 14 -31 31s14 31 31 31s31 -14 31 -31zM308 589c0 -17 -14 -31 -31 -31s-31 14 -31 31s14 31 31 31s31 -14 31 -31zM370 31
c0 -17 -14 -31 -31 -31s-31 14 -31 31s14 31 31 31s31 -14 31 -31zM370 589c0 -17 -14 -31 -31 -31s-31 14 -31 31s14 31 31 31s31 -14 31 -31zM432 155c0 -17 -14 -31 -31 -31s-31 14 -31 31s14 31 31 31s31 -14 31 -31zM432 217c0 -17 -14 -31 -31 -31s-31 14 -31 31
s14 31 31 31s31 -14 31 -31zM432 279c0 -17 -14 -31 -31 -31s-31 14 -31 31s14 31 31 31s31 -14 31 -31zM432 341c0 -17 -14 -31 -31 -31s-31 14 -31 31s14 31 31 31s31 -14 31 -31zM432 403c0 -17 -14 -31 -31 -31s-31 14 -31 31s14 31 31 31s31 -14 31 -31zM432 465
c0 -17 -14 -31 -31 -31s-31 14 -31 31s14 31 31 31s31 -14 31 -31zM432 527c0 -17 -14 -31 -31 -31s-31 14 -31 31s14 31 31 31s31 -14 31 -31zM432 93c0 -17 -14 -31 -31 -31s-31 14 -31 31s14 31 31 31s31 -14 31 -31z" />
    <glyph glyph-name="one" unicode="1" horiz-adv-x="246" 
d="M186 31c0 -17 -14 -31 -31 -31s-31 14 -31 31s14 31 31 31s31 -14 31 -31zM186 155c0 -17 -14 -31 -31 -31s-31 14 -31 31s14 31 31 31s31 -14 31 -31zM186 217c0 -17 -14 -31 -31 -31s-31 14 -31 31s14 31 31 31s31 -14 31 -31zM186 279c0 -17 -14 -31 -31 -31
s-31 14 -31 31s14 31 31 31s31 -14 31 -31zM186 341c0 -17 -14 -31 -31 -31s-31 14 -31 31s14 31 31 31s31 -14 31 -31zM186 403c0 -17 -14 -31 -31 -31s-31 14 -31 31s14 31 31 31s31 -14 31 -31zM186 465c0 -17 -14 -31 -31 -31s-31 14 -31 31s14 31 31 31s31 -14 31 -31z
M186 527c0 -17 -14 -31 -31 -31s-31 14 -31 31s14 31 31 31s31 -14 31 -31zM186 589c0 -17 -14 -31 -31 -31s-31 14 -31 31s14 31 31 31s31 -14 31 -31zM186 93c0 -17 -14 -31 -31 -31s-31 14 -31 31s14 31 31 31s31 -14 31 -31zM124 527c0 -17 -14 -31 -31 -31
s-31 14 -31 31s14 31 31 31s31 -14 31 -31zM62 465c0 -17 -14 -31 -31 -31s-31 14 -31 31s14 31 31 31s31 -14 31 -31z" />
    <glyph glyph-name="two" unicode="2" horiz-adv-x="432" 
d="M92 31c0 -17 -14 -31 -31 -31s-31 14 -31 31s14 31 31 31s31 -14 31 -31zM92 465c0 -17 -14 -31 -31 -31s-31 14 -31 31s14 31 31 31s31 -14 31 -31zM92 527c0 -17 -14 -31 -31 -31s-31 14 -31 31s14 31 31 31s31 -14 31 -31zM92 93c0 -17 -14 -31 -31 -31s-31 14 -31 31
s14 31 31 31s31 -14 31 -31zM154 31c0 -17 -14 -31 -31 -31s-31 14 -31 31s14 31 31 31s31 -14 31 -31zM154 155c0 -17 -14 -31 -31 -31s-31 14 -31 31s14 31 31 31s31 -14 31 -31zM154 589c0 -17 -14 -31 -31 -31s-31 14 -31 31s14 31 31 31s31 -14 31 -31zM216 31
c0 -17 -14 -31 -31 -31s-31 14 -31 31s14 31 31 31s31 -14 31 -31zM216 217c0 -17 -14 -31 -31 -31s-31 14 -31 31s14 31 31 31s31 -14 31 -31zM216 589c0 -17 -14 -31 -31 -31s-31 14 -31 31s14 31 31 31s31 -14 31 -31zM278 31c0 -17 -14 -31 -31 -31s-31 14 -31 31
s14 31 31 31s31 -14 31 -31zM278 279c0 -17 -14 -31 -31 -31s-31 14 -31 31s14 31 31 31s31 -14 31 -31zM278 589c0 -17 -14 -31 -31 -31s-31 14 -31 31s14 31 31 31s31 -14 31 -31zM340 31c0 -17 -14 -31 -31 -31s-31 14 -31 31s14 31 31 31s31 -14 31 -31zM340 341
c0 -17 -14 -31 -31 -31s-31 14 -31 31s14 31 31 31s31 -14 31 -31zM340 589c0 -17 -14 -31 -31 -31s-31 14 -31 31s14 31 31 31s31 -14 31 -31zM402 31c0 -17 -14 -31 -31 -31s-31 14 -31 31s14 31 31 31s31 -14 31 -31zM402 403c0 -17 -14 -31 -31 -31s-31 14 -31 31
s14 31 31 31s31 -14 31 -31zM402 465c0 -17 -14 -31 -31 -31s-31 14 -31 31s14 31 31 31s31 -14 31 -31zM402 527c0 -17 -14 -31 -31 -31s-31 14 -31 31s14 31 31 31s31 -14 31 -31z" />
    <glyph glyph-name="three" unicode="3" horiz-adv-x="452" 
d="M82 527c0 -17 -14 -31 -31 -31s-31 14 -31 31s14 31 31 31s31 -14 31 -31zM82 589c0 -17 -14 -31 -31 -31s-31 14 -31 31s14 31 31 31s31 -14 31 -31zM82 93c0 -17 -14 -31 -31 -31s-31 14 -31 31s14 31 31 31s31 -14 31 -31zM144 31c0 -17 -14 -31 -31 -31
s-31 14 -31 31s14 31 31 31s31 -14 31 -31zM144 589c0 -17 -14 -31 -31 -31s-31 14 -31 31s14 31 31 31s31 -14 31 -31zM206 31c0 -17 -14 -31 -31 -31s-31 14 -31 31s14 31 31 31s31 -14 31 -31zM206 589c0 -17 -14 -31 -31 -31s-31 14 -31 31s14 31 31 31s31 -14 31 -31z
M268 31c0 -17 -14 -31 -31 -31s-31 14 -31 31s14 31 31 31s31 -14 31 -31zM268 341c0 -17 -14 -31 -31 -31s-31 14 -31 31s14 31 31 31s31 -14 31 -31zM268 589c0 -17 -14 -31 -31 -31s-31 14 -31 31s14 31 31 31s31 -14 31 -31zM330 31c0 -17 -14 -31 -31 -31
s-31 14 -31 31s14 31 31 31s31 -14 31 -31zM330 403c0 -17 -14 -31 -31 -31s-31 14 -31 31s14 31 31 31s31 -14 31 -31zM330 589c0 -17 -14 -31 -31 -31s-31 14 -31 31s14 31 31 31s31 -14 31 -31zM392 155c0 -17 -14 -31 -31 -31s-31 14 -31 31s14 31 31 31s31 -14 31 -31z
M392 217c0 -17 -14 -31 -31 -31s-31 14 -31 31s14 31 31 31s31 -14 31 -31zM392 279c0 -17 -14 -31 -31 -31s-31 14 -31 31s14 31 31 31s31 -14 31 -31zM392 465c0 -17 -14 -31 -31 -31s-31 14 -31 31s14 31 31 31s31 -14 31 -31zM392 527c0 -17 -14 -31 -31 -31
s-31 14 -31 31s14 31 31 31s31 -14 31 -31zM392 589c0 -17 -14 -31 -31 -31s-31 14 -31 31s14 31 31 31s31 -14 31 -31zM392 93c0 -17 -14 -31 -31 -31s-31 14 -31 31s14 31 31 31s31 -14 31 -31z" />
    <glyph glyph-name="four" unicode="4" horiz-adv-x="412" 
d="M82 155c0 -17 -14 -31 -31 -31s-31 14 -31 31s14 31 31 31s31 -14 31 -31zM82 217c0 -17 -14 -31 -31 -31s-31 14 -31 31s14 31 31 31s31 -14 31 -31zM144 155c0 -17 -14 -31 -31 -31s-31 14 -31 31s14 31 31 31s31 -14 31 -31zM144 279c0 -17 -14 -31 -31 -31
s-31 14 -31 31s14 31 31 31s31 -14 31 -31zM144 341c0 -17 -14 -31 -31 -31s-31 14 -31 31s14 31 31 31s31 -14 31 -31zM206 155c0 -17 -14 -31 -31 -31s-31 14 -31 31s14 31 31 31s31 -14 31 -31zM206 403c0 -17 -14 -31 -31 -31s-31 14 -31 31s14 31 31 31s31 -14 31 -31z
M206 465c0 -17 -14 -31 -31 -31s-31 14 -31 31s14 31 31 31s31 -14 31 -31zM268 155c0 -17 -14 -31 -31 -31s-31 14 -31 31s14 31 31 31s31 -14 31 -31zM268 527c0 -17 -14 -31 -31 -31s-31 14 -31 31s14 31 31 31s31 -14 31 -31zM330 31c0 -17 -14 -31 -31 -31
s-31 14 -31 31s14 31 31 31s31 -14 31 -31zM330 155c0 -17 -14 -31 -31 -31s-31 14 -31 31s14 31 31 31s31 -14 31 -31zM330 217c0 -17 -14 -31 -31 -31s-31 14 -31 31s14 31 31 31s31 -14 31 -31zM330 279c0 -17 -14 -31 -31 -31s-31 14 -31 31s14 31 31 31s31 -14 31 -31z
M330 341c0 -17 -14 -31 -31 -31s-31 14 -31 31s14 31 31 31s31 -14 31 -31zM330 403c0 -17 -14 -31 -31 -31s-31 14 -31 31s14 31 31 31s31 -14 31 -31zM330 465c0 -17 -14 -31 -31 -31s-31 14 -31 31s14 31 31 31s31 -14 31 -31zM330 527c0 -17 -14 -31 -31 -31
s-31 14 -31 31s14 31 31 31s31 -14 31 -31zM330 589c0 -17 -14 -31 -31 -31s-31 14 -31 31s14 31 31 31s31 -14 31 -31zM330 93c0 -17 -14 -31 -31 -31s-31 14 -31 31s14 31 31 31s31 -14 31 -31zM392 155c0 -17 -14 -31 -31 -31s-31 14 -31 31s14 31 31 31s31 -14 31 -31z
" />
    <glyph glyph-name="five" unicode="5" horiz-adv-x="462" 
d="M102 341c0 -17 -14 -31 -31 -31s-31 14 -31 31s14 31 31 31s31 -14 31 -31zM102 403c0 -17 -14 -31 -31 -31s-31 14 -31 31s14 31 31 31s31 -14 31 -31zM102 465c0 -17 -14 -31 -31 -31s-31 14 -31 31s14 31 31 31s31 -14 31 -31zM102 527c0 -17 -14 -31 -31 -31
s-31 14 -31 31s14 31 31 31s31 -14 31 -31zM102 589c0 -17 -14 -31 -31 -31s-31 14 -31 31s14 31 31 31s31 -14 31 -31zM102 93c0 -17 -14 -31 -31 -31s-31 14 -31 31s14 31 31 31s31 -14 31 -31zM164 31c0 -17 -14 -31 -31 -31s-31 14 -31 31s14 31 31 31s31 -14 31 -31z
M164 341c0 -17 -14 -31 -31 -31s-31 14 -31 31s14 31 31 31s31 -14 31 -31zM164 589c0 -17 -14 -31 -31 -31s-31 14 -31 31s14 31 31 31s31 -14 31 -31zM226 31c0 -17 -14 -31 -31 -31s-31 14 -31 31s14 31 31 31s31 -14 31 -31zM226 403c0 -17 -14 -31 -31 -31
s-31 14 -31 31s14 31 31 31s31 -14 31 -31zM226 589c0 -17 -14 -31 -31 -31s-31 14 -31 31s14 31 31 31s31 -14 31 -31zM288 31c0 -17 -14 -31 -31 -31s-31 14 -31 31s14 31 31 31s31 -14 31 -31zM288 403c0 -17 -14 -31 -31 -31s-31 14 -31 31s14 31 31 31s31 -14 31 -31z
M288 589c0 -17 -14 -31 -31 -31s-31 14 -31 31s14 31 31 31s31 -14 31 -31zM350 31c0 -17 -14 -31 -31 -31s-31 14 -31 31s14 31 31 31s31 -14 31 -31zM350 403c0 -17 -14 -31 -31 -31s-31 14 -31 31s14 31 31 31s31 -14 31 -31zM350 589c0 -17 -14 -31 -31 -31
s-31 14 -31 31s14 31 31 31s31 -14 31 -31zM412 155c0 -17 -14 -31 -31 -31s-31 14 -31 31s14 31 31 31s31 -14 31 -31zM412 217c0 -17 -14 -31 -31 -31s-31 14 -31 31s14 31 31 31s31 -14 31 -31zM412 279c0 -17 -14 -31 -31 -31s-31 14 -31 31s14 31 31 31s31 -14 31 -31z
M412 341c0 -17 -14 -31 -31 -31s-31 14 -31 31s14 31 31 31s31 -14 31 -31zM412 589c0 -17 -14 -31 -31 -31s-31 14 -31 31s14 31 31 31s31 -14 31 -31zM412 93c0 -17 -14 -31 -31 -31s-31 14 -31 31s14 31 31 31s31 -14 31 -31z" />
    <glyph glyph-name="six" unicode="6" horiz-adv-x="482" 
d="M122 155c0 -17 -14 -31 -31 -31s-31 14 -31 31s14 31 31 31s31 -14 31 -31zM122 217c0 -17 -14 -31 -31 -31s-31 14 -31 31s14 31 31 31s31 -14 31 -31zM122 279c0 -17 -14 -31 -31 -31s-31 14 -31 31s14 31 31 31s31 -14 31 -31zM122 341c0 -17 -14 -31 -31 -31
s-31 14 -31 31s14 31 31 31s31 -14 31 -31zM122 403c0 -17 -14 -31 -31 -31s-31 14 -31 31s14 31 31 31s31 -14 31 -31zM122 465c0 -17 -14 -31 -31 -31s-31 14 -31 31s14 31 31 31s31 -14 31 -31zM122 527c0 -17 -14 -31 -31 -31s-31 14 -31 31s14 31 31 31s31 -14 31 -31z
M122 93c0 -17 -14 -31 -31 -31s-31 14 -31 31s14 31 31 31s31 -14 31 -31zM184 31c0 -17 -14 -31 -31 -31s-31 14 -31 31s14 31 31 31s31 -14 31 -31zM184 279c0 -17 -14 -31 -31 -31s-31 14 -31 31s14 31 31 31s31 -14 31 -31zM184 589c0 -17 -14 -31 -31 -31
s-31 14 -31 31s14 31 31 31s31 -14 31 -31zM246 31c0 -17 -14 -31 -31 -31s-31 14 -31 31s14 31 31 31s31 -14 31 -31zM246 341c0 -17 -14 -31 -31 -31s-31 14 -31 31s14 31 31 31s31 -14 31 -31zM246 589c0 -17 -14 -31 -31 -31s-31 14 -31 31s14 31 31 31s31 -14 31 -31z
M308 31c0 -17 -14 -31 -31 -31s-31 14 -31 31s14 31 31 31s31 -14 31 -31zM308 341c0 -17 -14 -31 -31 -31s-31 14 -31 31s14 31 31 31s31 -14 31 -31zM308 589c0 -17 -14 -31 -31 -31s-31 14 -31 31s14 31 31 31s31 -14 31 -31zM370 31c0 -17 -14 -31 -31 -31
s-31 14 -31 31s14 31 31 31s31 -14 31 -31zM370 341c0 -17 -14 -31 -31 -31s-31 14 -31 31s14 31 31 31s31 -14 31 -31zM370 589c0 -17 -14 -31 -31 -31s-31 14 -31 31s14 31 31 31s31 -14 31 -31zM432 155c0 -17 -14 -31 -31 -31s-31 14 -31 31s14 31 31 31s31 -14 31 -31z
M432 217c0 -17 -14 -31 -31 -31s-31 14 -31 31s14 31 31 31s31 -14 31 -31zM432 279c0 -17 -14 -31 -31 -31s-31 14 -31 31s14 31 31 31s31 -14 31 -31zM432 527c0 -17 -14 -31 -31 -31s-31 14 -31 31s14 31 31 31s31 -14 31 -31zM432 93c0 -17 -14 -31 -31 -31
s-31 14 -31 31s14 31 31 31s31 -14 31 -31z" />
    <glyph glyph-name="seven" unicode="7" horiz-adv-x="402" 
d="M72 527c0 -17 -14 -31 -31 -31s-31 14 -31 31s14 31 31 31s31 -14 31 -31zM72 589c0 -17 -14 -31 -31 -31s-31 14 -31 31s14 31 31 31s31 -14 31 -31zM134 589c0 -17 -14 -31 -31 -31s-31 14 -31 31s14 31 31 31s31 -14 31 -31zM196 31c0 -17 -14 -31 -31 -31
s-31 14 -31 31s14 31 31 31s31 -14 31 -31zM196 155c0 -17 -14 -31 -31 -31s-31 14 -31 31s14 31 31 31s31 -14 31 -31zM196 589c0 -17 -14 -31 -31 -31s-31 14 -31 31s14 31 31 31s31 -14 31 -31zM196 93c0 -17 -14 -31 -31 -31s-31 14 -31 31s14 31 31 31s31 -14 31 -31z
M258 217c0 -17 -14 -31 -31 -31s-31 14 -31 31s14 31 31 31s31 -14 31 -31zM258 279c0 -17 -14 -31 -31 -31s-31 14 -31 31s14 31 31 31s31 -14 31 -31zM258 589c0 -17 -14 -31 -31 -31s-31 14 -31 31s14 31 31 31s31 -14 31 -31zM320 341c0 -17 -14 -31 -31 -31
s-31 14 -31 31s14 31 31 31s31 -14 31 -31zM320 403c0 -17 -14 -31 -31 -31s-31 14 -31 31s14 31 31 31s31 -14 31 -31zM320 589c0 -17 -14 -31 -31 -31s-31 14 -31 31s14 31 31 31s31 -14 31 -31zM382 465c0 -17 -14 -31 -31 -31s-31 14 -31 31s14 31 31 31s31 -14 31 -31z
M382 527c0 -17 -14 -31 -31 -31s-31 14 -31 31s14 31 31 31s31 -14 31 -31zM382 589c0 -17 -14 -31 -31 -31s-31 14 -31 31s14 31 31 31s31 -14 31 -31z" />
    <glyph glyph-name="eight" unicode="8" horiz-adv-x="492" 
d="M122 155c0 -17 -14 -31 -31 -31s-31 14 -31 31s14 31 31 31s31 -14 31 -31zM122 217c0 -17 -14 -31 -31 -31s-31 14 -31 31s14 31 31 31s31 -14 31 -31zM122 279c0 -17 -14 -31 -31 -31s-31 14 -31 31s14 31 31 31s31 -14 31 -31zM122 403c0 -17 -14 -31 -31 -31
s-31 14 -31 31s14 31 31 31s31 -14 31 -31zM122 465c0 -17 -14 -31 -31 -31s-31 14 -31 31s14 31 31 31s31 -14 31 -31zM122 527c0 -17 -14 -31 -31 -31s-31 14 -31 31s14 31 31 31s31 -14 31 -31zM122 93c0 -17 -14 -31 -31 -31s-31 14 -31 31s14 31 31 31s31 -14 31 -31z
M184 31c0 -17 -14 -31 -31 -31s-31 14 -31 31s14 31 31 31s31 -14 31 -31zM184 341c0 -17 -14 -31 -31 -31s-31 14 -31 31s14 31 31 31s31 -14 31 -31zM184 589c0 -17 -14 -31 -31 -31s-31 14 -31 31s14 31 31 31s31 -14 31 -31zM246 31c0 -17 -14 -31 -31 -31
s-31 14 -31 31s14 31 31 31s31 -14 31 -31zM246 341c0 -17 -14 -31 -31 -31s-31 14 -31 31s14 31 31 31s31 -14 31 -31zM246 589c0 -17 -14 -31 -31 -31s-31 14 -31 31s14 31 31 31s31 -14 31 -31zM308 31c0 -17 -14 -31 -31 -31s-31 14 -31 31s14 31 31 31s31 -14 31 -31z
M308 341c0 -17 -14 -31 -31 -31s-31 14 -31 31s14 31 31 31s31 -14 31 -31zM308 589c0 -17 -14 -31 -31 -31s-31 14 -31 31s14 31 31 31s31 -14 31 -31zM370 31c0 -17 -14 -31 -31 -31s-31 14 -31 31s14 31 31 31s31 -14 31 -31zM370 341c0 -17 -14 -31 -31 -31
s-31 14 -31 31s14 31 31 31s31 -14 31 -31zM370 589c0 -17 -14 -31 -31 -31s-31 14 -31 31s14 31 31 31s31 -14 31 -31zM432 155c0 -17 -14 -31 -31 -31s-31 14 -31 31s14 31 31 31s31 -14 31 -31zM432 217c0 -17 -14 -31 -31 -31s-31 14 -31 31s14 31 31 31s31 -14 31 -31z
M432 279c0 -17 -14 -31 -31 -31s-31 14 -31 31s14 31 31 31s31 -14 31 -31zM432 403c0 -17 -14 -31 -31 -31s-31 14 -31 31s14 31 31 31s31 -14 31 -31zM432 465c0 -17 -14 -31 -31 -31s-31 14 -31 31s14 31 31 31s31 -14 31 -31zM432 527c0 -17 -14 -31 -31 -31
s-31 14 -31 31s14 31 31 31s31 -14 31 -31zM432 93c0 -17 -14 -31 -31 -31s-31 14 -31 31s14 31 31 31s31 -14 31 -31z" />
    <glyph glyph-name="nine" unicode="9" horiz-adv-x="482" 
d="M360 465c0 17 14 31 31 31s31 -14 31 -31s-14 -31 -31 -31s-31 14 -31 31zM360 403c0 17 14 31 31 31s31 -14 31 -31s-14 -31 -31 -31s-31 14 -31 31zM360 341c0 17 14 31 31 31s31 -14 31 -31s-14 -31 -31 -31s-31 14 -31 31zM360 279c0 17 14 31 31 31s31 -14 31 -31
s-14 -31 -31 -31s-31 14 -31 31zM360 217c0 17 14 31 31 31s31 -14 31 -31s-14 -31 -31 -31s-31 14 -31 31zM360 155c0 17 14 31 31 31s31 -14 31 -31s-14 -31 -31 -31s-31 14 -31 31zM360 93c0 17 14 31 31 31s31 -14 31 -31s-14 -31 -31 -31s-31 14 -31 31zM360 527
c0 17 14 31 31 31s31 -14 31 -31s-14 -31 -31 -31s-31 14 -31 31zM298 589c0 17 14 31 31 31s31 -14 31 -31s-14 -31 -31 -31s-31 14 -31 31zM298 341c0 17 14 31 31 31s31 -14 31 -31s-14 -31 -31 -31s-31 14 -31 31zM298 31c0 17 14 31 31 31s31 -14 31 -31
s-14 -31 -31 -31s-31 14 -31 31zM236 589c0 17 14 31 31 31s31 -14 31 -31s-14 -31 -31 -31s-31 14 -31 31zM236 279c0 17 14 31 31 31s31 -14 31 -31s-14 -31 -31 -31s-31 14 -31 31zM236 31c0 17 14 31 31 31s31 -14 31 -31s-14 -31 -31 -31s-31 14 -31 31zM174 589
c0 17 14 31 31 31s31 -14 31 -31s-14 -31 -31 -31s-31 14 -31 31zM174 279c0 17 14 31 31 31s31 -14 31 -31s-14 -31 -31 -31s-31 14 -31 31zM174 31c0 17 14 31 31 31s31 -14 31 -31s-14 -31 -31 -31s-31 14 -31 31zM112 589c0 17 14 31 31 31s31 -14 31 -31
s-14 -31 -31 -31s-31 14 -31 31zM112 279c0 17 14 31 31 31s31 -14 31 -31s-14 -31 -31 -31s-31 14 -31 31zM112 31c0 17 14 31 31 31s31 -14 31 -31s-14 -31 -31 -31s-31 14 -31 31zM50 465c0 17 14 31 31 31s31 -14 31 -31s-14 -31 -31 -31s-31 14 -31 31zM50 403
c0 17 14 31 31 31s31 -14 31 -31s-14 -31 -31 -31s-31 14 -31 31zM50 341c0 17 14 31 31 31s31 -14 31 -31s-14 -31 -31 -31s-31 14 -31 31zM50 93c0 17 14 31 31 31s31 -14 31 -31s-14 -31 -31 -31s-31 14 -31 31zM50 527c0 17 14 31 31 31s31 -14 31 -31s-14 -31 -31 -31
s-31 14 -31 31z" />
    <glyph glyph-name="colon" unicode=":" horiz-adv-x="164" 
d="M124 42c0 -23 -19 -42 -42 -42s-42 19 -42 42c0 22 19 41 42 41s42 -19 42 -41zM124 393c0 -23 -19 -42 -42 -42s-42 19 -42 42c0 22 19 41 42 41s42 -19 42 -41z" />
    <glyph glyph-name="semicolon" unicode=";" horiz-adv-x="175" 
d="M135 393c0 -23 -19 -42 -42 -42s-42 19 -42 42c0 22 19 41 42 41s42 -19 42 -41zM93 -35c0 -17 -14 -31 -31 -31s-31 14 -31 31s14 31 31 31s31 -14 31 -31zM135 42c0 -23 -19 -42 -42 -42s-42 19 -42 42c0 22 19 41 42 41s42 -19 42 -41zM58 -89c0 -11 -9 -19 -19 -19
s-19 8 -19 19c0 10 9 18 19 18s19 -8 19 -18z" />
    <glyph glyph-name="less" unicode="&#x3c;" horiz-adv-x="266" 
d="M164 155c0 -17 -14 -31 -31 -31s-31 14 -31 31s14 31 31 31s31 -14 31 -31zM164 279c0 -17 -14 -31 -31 -31s-31 14 -31 31s14 31 31 31s31 -14 31 -31zM226 341c0 -17 -14 -31 -31 -31s-31 14 -31 31s14 31 31 31s31 -14 31 -31zM226 93c0 -17 -14 -31 -31 -31
s-31 14 -31 31s14 31 31 31s31 -14 31 -31zM102 217c0 -17 -14 -31 -31 -31s-31 14 -31 31s14 31 31 31s31 -14 31 -31z" />
    <glyph glyph-name="equal" unicode="=" horiz-adv-x="328" 
d="M164 217c0 -17 -14 -31 -31 -31s-31 14 -31 31s14 31 31 31s31 -14 31 -31zM164 341c0 -17 -14 -31 -31 -31s-31 14 -31 31s14 31 31 31s31 -14 31 -31zM226 217c0 -17 -14 -31 -31 -31s-31 14 -31 31s14 31 31 31s31 -14 31 -31zM226 341c0 -17 -14 -31 -31 -31
s-31 14 -31 31s14 31 31 31s31 -14 31 -31zM288 217c0 -17 -14 -31 -31 -31s-31 14 -31 31s14 31 31 31s31 -14 31 -31zM288 341c0 -17 -14 -31 -31 -31s-31 14 -31 31s14 31 31 31s31 -14 31 -31zM102 217c0 -17 -14 -31 -31 -31s-31 14 -31 31s14 31 31 31s31 -14 31 -31z
M102 341c0 -17 -14 -31 -31 -31s-31 14 -31 31s14 31 31 31s31 -14 31 -31z" />
    <glyph glyph-name="greater" unicode="&#x3e;" horiz-adv-x="266" 
d="M102 155c0 17 14 31 31 31s31 -14 31 -31s-14 -31 -31 -31s-31 14 -31 31zM102 279c0 17 14 31 31 31s31 -14 31 -31s-14 -31 -31 -31s-31 14 -31 31zM40 341c0 17 14 31 31 31s31 -14 31 -31s-14 -31 -31 -31s-31 14 -31 31zM40 93c0 17 14 31 31 31s31 -14 31 -31
s-14 -31 -31 -31s-31 14 -31 31zM164 217c0 17 14 31 31 31s31 -14 31 -31s-14 -31 -31 -31s-31 14 -31 31z" />
    <glyph glyph-name="question" unicode="?" horiz-adv-x="432" 
d="M82 465c0 -17 -14 -31 -31 -31s-31 14 -31 31s14 31 31 31s31 -14 31 -31zM82 527c0 -17 -14 -31 -31 -31s-31 14 -31 31s14 31 31 31s31 -14 31 -31zM144 589c0 -17 -14 -31 -31 -31s-31 14 -31 31s14 31 31 31s31 -14 31 -31zM206 589c0 -17 -14 -31 -31 -31
s-31 14 -31 31s14 31 31 31s31 -14 31 -31zM268 589c0 -17 -14 -31 -31 -31s-31 14 -31 31s14 31 31 31s31 -14 31 -31zM330 589c0 -17 -14 -31 -31 -31s-31 14 -31 31s14 31 31 31s31 -14 31 -31zM392 465c0 -17 -14 -31 -31 -31s-31 14 -31 31s14 31 31 31s31 -14 31 -31z
M392 527c0 -17 -14 -31 -31 -31s-31 14 -31 31s14 31 31 31s31 -14 31 -31zM206 155c0 -17 -14 -31 -31 -31s-31 14 -31 31s14 31 31 31s31 -14 31 -31zM206 217c0 -17 -14 -31 -31 -31s-31 14 -31 31s14 31 31 31s31 -14 31 -31zM268 279c0 -17 -14 -31 -31 -31
s-31 14 -31 31s14 31 31 31s31 -14 31 -31zM330 341c0 -17 -14 -31 -31 -31s-31 14 -31 31s14 31 31 31s31 -14 31 -31zM392 403c0 -17 -14 -31 -31 -31s-31 14 -31 31s14 31 31 31s31 -14 31 -31zM217 42c0 -23 -19 -42 -42 -42s-42 19 -42 42c0 22 19 41 42 41
s42 -19 42 -41z" />
    <glyph glyph-name="at" unicode="@" horiz-adv-x="616" 
d="M122 155c0 -17 -14 -31 -31 -31s-31 14 -31 31s14 31 31 31s31 -14 31 -31zM122 217c0 -17 -14 -31 -31 -31s-31 14 -31 31s14 31 31 31s31 -14 31 -31zM122 279c0 -17 -14 -31 -31 -31s-31 14 -31 31s14 31 31 31s31 -14 31 -31zM122 341c0 -17 -14 -31 -31 -31
s-31 14 -31 31s14 31 31 31s31 -14 31 -31zM122 403c0 -17 -14 -31 -31 -31s-31 14 -31 31s14 31 31 31s31 -14 31 -31zM122 465c0 -17 -14 -31 -31 -31s-31 14 -31 31s14 31 31 31s31 -14 31 -31zM122 527c0 -17 -14 -31 -31 -31s-31 14 -31 31s14 31 31 31s31 -14 31 -31z
M122 93c0 -17 -14 -31 -31 -31s-31 14 -31 31s14 31 31 31s31 -14 31 -31zM184 31c0 -17 -14 -31 -31 -31s-31 14 -31 31s14 31 31 31s31 -14 31 -31zM184 589c0 -17 -14 -31 -31 -31s-31 14 -31 31s14 31 31 31s31 -14 31 -31zM246 31c0 -17 -14 -31 -31 -31s-31 14 -31 31
s14 31 31 31s31 -14 31 -31zM246 589c0 -17 -14 -31 -31 -31s-31 14 -31 31s14 31 31 31s31 -14 31 -31zM308 31c0 -17 -14 -31 -31 -31s-31 14 -31 31s14 31 31 31s31 -14 31 -31zM308 465c0 -17 -14 -31 -31 -31s-31 14 -31 31s14 31 31 31s31 -14 31 -31zM308 589
c0 -17 -14 -31 -31 -31s-31 14 -31 31s14 31 31 31s31 -14 31 -31zM370 31c0 -17 -14 -31 -31 -31s-31 14 -31 31s14 31 31 31s31 -14 31 -31zM370 465c0 -17 -14 -31 -31 -31s-31 14 -31 31s14 31 31 31s31 -14 31 -31zM370 589c0 -17 -14 -31 -31 -31s-31 14 -31 31
s14 31 31 31s31 -14 31 -31zM432 31c0 -17 -14 -31 -31 -31s-31 14 -31 31s14 31 31 31s31 -14 31 -31zM432 465c0 -17 -14 -31 -31 -31s-31 14 -31 31s14 31 31 31s31 -14 31 -31zM432 589c0 -17 -14 -31 -31 -31s-31 14 -31 31s14 31 31 31s31 -14 31 -31zM494 31
c0 -17 -14 -31 -31 -31s-31 14 -31 31s14 31 31 31s31 -14 31 -31zM494 155c0 -17 -14 -31 -31 -31s-31 14 -31 31s14 31 31 31s31 -14 31 -31zM494 589c0 -17 -14 -31 -31 -31s-31 14 -31 31s14 31 31 31s31 -14 31 -31zM556 217c0 -17 -14 -31 -31 -31s-31 14 -31 31
s14 31 31 31s31 -14 31 -31zM556 279c0 -17 -14 -31 -31 -31s-31 14 -31 31s14 31 31 31s31 -14 31 -31zM556 341c0 -17 -14 -31 -31 -31s-31 14 -31 31s14 31 31 31s31 -14 31 -31zM556 403c0 -17 -14 -31 -31 -31s-31 14 -31 31s14 31 31 31s31 -14 31 -31zM556 465
c0 -17 -14 -31 -31 -31s-31 14 -31 31s14 31 31 31s31 -14 31 -31zM556 527c0 -17 -14 -31 -31 -31s-31 14 -31 31s14 31 31 31s31 -14 31 -31zM246 217c0 -17 -14 -31 -31 -31s-31 14 -31 31s14 31 31 31s31 -14 31 -31zM246 279c0 -17 -14 -31 -31 -31s-31 14 -31 31
s14 31 31 31s31 -14 31 -31zM246 341c0 -17 -14 -31 -31 -31s-31 14 -31 31s14 31 31 31s31 -14 31 -31zM246 403c0 -17 -14 -31 -31 -31s-31 14 -31 31s14 31 31 31s31 -14 31 -31zM308 155c0 -17 -14 -31 -31 -31s-31 14 -31 31s14 31 31 31s31 -14 31 -31zM370 155
c0 -17 -14 -31 -31 -31s-31 14 -31 31s14 31 31 31s31 -14 31 -31zM432 155c0 -17 -14 -31 -31 -31s-31 14 -31 31s14 31 31 31s31 -14 31 -31zM432 217c0 -17 -14 -31 -31 -31s-31 14 -31 31s14 31 31 31s31 -14 31 -31zM432 279c0 -17 -14 -31 -31 -31s-31 14 -31 31
s14 31 31 31s31 -14 31 -31zM432 341c0 -17 -14 -31 -31 -31s-31 14 -31 31s14 31 31 31s31 -14 31 -31zM432 403c0 -17 -14 -31 -31 -31s-31 14 -31 31s14 31 31 31s31 -14 31 -31z" />
    <glyph glyph-name="A" unicode="A" 
d="M112 31c0 -17 -14 -31 -31 -31s-31 14 -31 31s14 31 31 31s31 -14 31 -31zM112 155c0 -17 -14 -31 -31 -31s-31 14 -31 31s14 31 31 31s31 -14 31 -31zM112 217c0 -17 -14 -31 -31 -31s-31 14 -31 31s14 31 31 31s31 -14 31 -31zM112 279c0 -17 -14 -31 -31 -31
s-31 14 -31 31s14 31 31 31s31 -14 31 -31zM112 341c0 -17 -14 -31 -31 -31s-31 14 -31 31s14 31 31 31s31 -14 31 -31zM112 403c0 -17 -14 -31 -31 -31s-31 14 -31 31s14 31 31 31s31 -14 31 -31zM112 465c0 -17 -14 -31 -31 -31s-31 14 -31 31s14 31 31 31s31 -14 31 -31z
M112 93c0 -17 -14 -31 -31 -31s-31 14 -31 31s14 31 31 31s31 -14 31 -31zM174 527c0 -17 -14 -31 -31 -31s-31 14 -31 31s14 31 31 31s31 -14 31 -31zM236 589c0 -17 -14 -31 -31 -31s-31 14 -31 31s14 31 31 31s31 -14 31 -31zM298 589c0 -17 -14 -31 -31 -31
s-31 14 -31 31s14 31 31 31s31 -14 31 -31zM360 527c0 -17 -14 -31 -31 -31s-31 14 -31 31s14 31 31 31s31 -14 31 -31zM422 31c0 -17 -14 -31 -31 -31s-31 14 -31 31s14 31 31 31s31 -14 31 -31zM422 465c0 -17 -14 -31 -31 -31s-31 14 -31 31s14 31 31 31s31 -14 31 -31z
M422 93c0 -17 -14 -31 -31 -31s-31 14 -31 31s14 31 31 31s31 -14 31 -31zM174 217c0 -17 -14 -31 -31 -31s-31 14 -31 31s14 31 31 31s31 -14 31 -31zM236 217c0 -17 -14 -31 -31 -31s-31 14 -31 31s14 31 31 31s31 -14 31 -31zM298 217c0 -17 -14 -31 -31 -31
s-31 14 -31 31s14 31 31 31s31 -14 31 -31zM360 217c0 -17 -14 -31 -31 -31s-31 14 -31 31s14 31 31 31s31 -14 31 -31zM422 155c0 -17 -14 -31 -31 -31s-31 14 -31 31s14 31 31 31s31 -14 31 -31zM422 217c0 -17 -14 -31 -31 -31s-31 14 -31 31s14 31 31 31s31 -14 31 -31z
M422 279c0 -17 -14 -31 -31 -31s-31 14 -31 31s14 31 31 31s31 -14 31 -31zM422 341c0 -17 -14 -31 -31 -31s-31 14 -31 31s14 31 31 31s31 -14 31 -31zM422 403c0 -17 -14 -31 -31 -31s-31 14 -31 31s14 31 31 31s31 -14 31 -31z" />
    <glyph glyph-name="B" unicode="B" horiz-adv-x="482" 
d="M122 31c0 -17 -14 -31 -31 -31s-31 14 -31 31s14 31 31 31s31 -14 31 -31zM122 155c0 -17 -14 -31 -31 -31s-31 14 -31 31s14 31 31 31s31 -14 31 -31zM122 217c0 -17 -14 -31 -31 -31s-31 14 -31 31s14 31 31 31s31 -14 31 -31zM122 279c0 -17 -14 -31 -31 -31
s-31 14 -31 31s14 31 31 31s31 -14 31 -31zM122 341c0 -17 -14 -31 -31 -31s-31 14 -31 31s14 31 31 31s31 -14 31 -31zM122 403c0 -17 -14 -31 -31 -31s-31 14 -31 31s14 31 31 31s31 -14 31 -31zM122 465c0 -17 -14 -31 -31 -31s-31 14 -31 31s14 31 31 31s31 -14 31 -31z
M122 527c0 -17 -14 -31 -31 -31s-31 14 -31 31s14 31 31 31s31 -14 31 -31zM122 589c0 -17 -14 -31 -31 -31s-31 14 -31 31s14 31 31 31s31 -14 31 -31zM122 93c0 -17 -14 -31 -31 -31s-31 14 -31 31s14 31 31 31s31 -14 31 -31zM184 31c0 -17 -14 -31 -31 -31
s-31 14 -31 31s14 31 31 31s31 -14 31 -31zM184 589c0 -17 -14 -31 -31 -31s-31 14 -31 31s14 31 31 31s31 -14 31 -31zM246 31c0 -17 -14 -31 -31 -31s-31 14 -31 31s14 31 31 31s31 -14 31 -31zM246 589c0 -17 -14 -31 -31 -31s-31 14 -31 31s14 31 31 31s31 -14 31 -31z
M308 31c0 -17 -14 -31 -31 -31s-31 14 -31 31s14 31 31 31s31 -14 31 -31zM308 589c0 -17 -14 -31 -31 -31s-31 14 -31 31s14 31 31 31s31 -14 31 -31zM370 31c0 -17 -14 -31 -31 -31s-31 14 -31 31s14 31 31 31s31 -14 31 -31zM370 589c0 -17 -14 -31 -31 -31
s-31 14 -31 31s14 31 31 31s31 -14 31 -31zM432 465c0 -17 -14 -31 -31 -31s-31 14 -31 31s14 31 31 31s31 -14 31 -31zM432 527c0 -17 -14 -31 -31 -31s-31 14 -31 31s14 31 31 31s31 -14 31 -31zM432 93c0 -17 -14 -31 -31 -31s-31 14 -31 31s14 31 31 31s31 -14 31 -31z
M184 341c0 -17 -14 -31 -31 -31s-31 14 -31 31s14 31 31 31s31 -14 31 -31zM246 341c0 -17 -14 -31 -31 -31s-31 14 -31 31s14 31 31 31s31 -14 31 -31zM308 341c0 -17 -14 -31 -31 -31s-31 14 -31 31s14 31 31 31s31 -14 31 -31zM370 341c0 -17 -14 -31 -31 -31
s-31 14 -31 31s14 31 31 31s31 -14 31 -31zM432 155c0 -17 -14 -31 -31 -31s-31 14 -31 31s14 31 31 31s31 -14 31 -31zM432 217c0 -17 -14 -31 -31 -31s-31 14 -31 31s14 31 31 31s31 -14 31 -31zM432 279c0 -17 -14 -31 -31 -31s-31 14 -31 31s14 31 31 31s31 -14 31 -31z
M432 403c0 -17 -14 -31 -31 -31s-31 14 -31 31s14 31 31 31s31 -14 31 -31z" />
    <glyph glyph-name="C" unicode="C" horiz-adv-x="452" 
d="M122 155c0 -17 -14 -31 -31 -31s-31 14 -31 31s14 31 31 31s31 -14 31 -31zM122 217c0 -17 -14 -31 -31 -31s-31 14 -31 31s14 31 31 31s31 -14 31 -31zM122 279c0 -17 -14 -31 -31 -31s-31 14 -31 31s14 31 31 31s31 -14 31 -31zM122 341c0 -17 -14 -31 -31 -31
s-31 14 -31 31s14 31 31 31s31 -14 31 -31zM122 403c0 -17 -14 -31 -31 -31s-31 14 -31 31s14 31 31 31s31 -14 31 -31zM122 465c0 -17 -14 -31 -31 -31s-31 14 -31 31s14 31 31 31s31 -14 31 -31zM122 527c0 -17 -14 -31 -31 -31s-31 14 -31 31s14 31 31 31s31 -14 31 -31z
M122 93c0 -17 -14 -31 -31 -31s-31 14 -31 31s14 31 31 31s31 -14 31 -31zM184 31c0 -17 -14 -31 -31 -31s-31 14 -31 31s14 31 31 31s31 -14 31 -31zM184 589c0 -17 -14 -31 -31 -31s-31 14 -31 31s14 31 31 31s31 -14 31 -31zM246 31c0 -17 -14 -31 -31 -31s-31 14 -31 31
s14 31 31 31s31 -14 31 -31zM246 589c0 -17 -14 -31 -31 -31s-31 14 -31 31s14 31 31 31s31 -14 31 -31zM308 31c0 -17 -14 -31 -31 -31s-31 14 -31 31s14 31 31 31s31 -14 31 -31zM308 589c0 -17 -14 -31 -31 -31s-31 14 -31 31s14 31 31 31s31 -14 31 -31zM370 31
c0 -17 -14 -31 -31 -31s-31 14 -31 31s14 31 31 31s31 -14 31 -31zM370 589c0 -17 -14 -31 -31 -31s-31 14 -31 31s14 31 31 31s31 -14 31 -31zM432 31c0 -17 -14 -31 -31 -31s-31 14 -31 31s14 31 31 31s31 -14 31 -31zM432 527c0 -17 -14 -31 -31 -31s-31 14 -31 31
s14 31 31 31s31 -14 31 -31z" />
    <glyph glyph-name="D" unicode="D" horiz-adv-x="492" 
d="M122 31c0 -17 -14 -31 -31 -31s-31 14 -31 31s14 31 31 31s31 -14 31 -31zM122 155c0 -17 -14 -31 -31 -31s-31 14 -31 31s14 31 31 31s31 -14 31 -31zM122 217c0 -17 -14 -31 -31 -31s-31 14 -31 31s14 31 31 31s31 -14 31 -31zM122 279c0 -17 -14 -31 -31 -31
s-31 14 -31 31s14 31 31 31s31 -14 31 -31zM122 341c0 -17 -14 -31 -31 -31s-31 14 -31 31s14 31 31 31s31 -14 31 -31zM122 403c0 -17 -14 -31 -31 -31s-31 14 -31 31s14 31 31 31s31 -14 31 -31zM122 465c0 -17 -14 -31 -31 -31s-31 14 -31 31s14 31 31 31s31 -14 31 -31z
M122 527c0 -17 -14 -31 -31 -31s-31 14 -31 31s14 31 31 31s31 -14 31 -31zM122 589c0 -17 -14 -31 -31 -31s-31 14 -31 31s14 31 31 31s31 -14 31 -31zM122 93c0 -17 -14 -31 -31 -31s-31 14 -31 31s14 31 31 31s31 -14 31 -31zM184 31c0 -17 -14 -31 -31 -31
s-31 14 -31 31s14 31 31 31s31 -14 31 -31zM184 589c0 -17 -14 -31 -31 -31s-31 14 -31 31s14 31 31 31s31 -14 31 -31zM246 31c0 -17 -14 -31 -31 -31s-31 14 -31 31s14 31 31 31s31 -14 31 -31zM246 589c0 -17 -14 -31 -31 -31s-31 14 -31 31s14 31 31 31s31 -14 31 -31z
M308 31c0 -17 -14 -31 -31 -31s-31 14 -31 31s14 31 31 31s31 -14 31 -31zM308 589c0 -17 -14 -31 -31 -31s-31 14 -31 31s14 31 31 31s31 -14 31 -31zM370 31c0 -17 -14 -31 -31 -31s-31 14 -31 31s14 31 31 31s31 -14 31 -31zM370 589c0 -17 -14 -31 -31 -31
s-31 14 -31 31s14 31 31 31s31 -14 31 -31zM432 465c0 -17 -14 -31 -31 -31s-31 14 -31 31s14 31 31 31s31 -14 31 -31zM432 527c0 -17 -14 -31 -31 -31s-31 14 -31 31s14 31 31 31s31 -14 31 -31zM432 93c0 -17 -14 -31 -31 -31s-31 14 -31 31s14 31 31 31s31 -14 31 -31z
M432 155c0 -17 -14 -31 -31 -31s-31 14 -31 31s14 31 31 31s31 -14 31 -31zM432 217c0 -17 -14 -31 -31 -31s-31 14 -31 31s14 31 31 31s31 -14 31 -31zM432 279c0 -17 -14 -31 -31 -31s-31 14 -31 31s14 31 31 31s31 -14 31 -31zM432 341c0 -17 -14 -31 -31 -31
s-31 14 -31 31s14 31 31 31s31 -14 31 -31zM432 403c0 -17 -14 -31 -31 -31s-31 14 -31 31s14 31 31 31s31 -14 31 -31z" />
    <glyph glyph-name="E" unicode="E" horiz-adv-x="390" 
d="M122 31c0 -17 -14 -31 -31 -31s-31 14 -31 31s14 31 31 31s31 -14 31 -31zM122 155c0 -17 -14 -31 -31 -31s-31 14 -31 31s14 31 31 31s31 -14 31 -31zM122 217c0 -17 -14 -31 -31 -31s-31 14 -31 31s14 31 31 31s31 -14 31 -31zM122 279c0 -17 -14 -31 -31 -31
s-31 14 -31 31s14 31 31 31s31 -14 31 -31zM122 341c0 -17 -14 -31 -31 -31s-31 14 -31 31s14 31 31 31s31 -14 31 -31zM122 403c0 -17 -14 -31 -31 -31s-31 14 -31 31s14 31 31 31s31 -14 31 -31zM122 465c0 -17 -14 -31 -31 -31s-31 14 -31 31s14 31 31 31s31 -14 31 -31z
M122 527c0 -17 -14 -31 -31 -31s-31 14 -31 31s14 31 31 31s31 -14 31 -31zM122 589c0 -17 -14 -31 -31 -31s-31 14 -31 31s14 31 31 31s31 -14 31 -31zM122 93c0 -17 -14 -31 -31 -31s-31 14 -31 31s14 31 31 31s31 -14 31 -31zM184 31c0 -17 -14 -31 -31 -31
s-31 14 -31 31s14 31 31 31s31 -14 31 -31zM184 589c0 -17 -14 -31 -31 -31s-31 14 -31 31s14 31 31 31s31 -14 31 -31zM246 31c0 -17 -14 -31 -31 -31s-31 14 -31 31s14 31 31 31s31 -14 31 -31zM246 589c0 -17 -14 -31 -31 -31s-31 14 -31 31s14 31 31 31s31 -14 31 -31z
M308 31c0 -17 -14 -31 -31 -31s-31 14 -31 31s14 31 31 31s31 -14 31 -31zM308 589c0 -17 -14 -31 -31 -31s-31 14 -31 31s14 31 31 31s31 -14 31 -31zM370 31c0 -17 -14 -31 -31 -31s-31 14 -31 31s14 31 31 31s31 -14 31 -31zM370 589c0 -17 -14 -31 -31 -31
s-31 14 -31 31s14 31 31 31s31 -14 31 -31zM184 341c0 -17 -14 -31 -31 -31s-31 14 -31 31s14 31 31 31s31 -14 31 -31zM246 341c0 -17 -14 -31 -31 -31s-31 14 -31 31s14 31 31 31s31 -14 31 -31zM308 341c0 -17 -14 -31 -31 -31s-31 14 -31 31s14 31 31 31s31 -14 31 -31z
" />
    <glyph glyph-name="F" unicode="F" horiz-adv-x="390" 
d="M122 31c0 -17 -14 -31 -31 -31s-31 14 -31 31s14 31 31 31s31 -14 31 -31zM122 155c0 -17 -14 -31 -31 -31s-31 14 -31 31s14 31 31 31s31 -14 31 -31zM122 217c0 -17 -14 -31 -31 -31s-31 14 -31 31s14 31 31 31s31 -14 31 -31zM122 279c0 -17 -14 -31 -31 -31
s-31 14 -31 31s14 31 31 31s31 -14 31 -31zM122 341c0 -17 -14 -31 -31 -31s-31 14 -31 31s14 31 31 31s31 -14 31 -31zM122 403c0 -17 -14 -31 -31 -31s-31 14 -31 31s14 31 31 31s31 -14 31 -31zM122 465c0 -17 -14 -31 -31 -31s-31 14 -31 31s14 31 31 31s31 -14 31 -31z
M122 527c0 -17 -14 -31 -31 -31s-31 14 -31 31s14 31 31 31s31 -14 31 -31zM122 589c0 -17 -14 -31 -31 -31s-31 14 -31 31s14 31 31 31s31 -14 31 -31zM122 93c0 -17 -14 -31 -31 -31s-31 14 -31 31s14 31 31 31s31 -14 31 -31zM184 589c0 -17 -14 -31 -31 -31
s-31 14 -31 31s14 31 31 31s31 -14 31 -31zM246 589c0 -17 -14 -31 -31 -31s-31 14 -31 31s14 31 31 31s31 -14 31 -31zM308 589c0 -17 -14 -31 -31 -31s-31 14 -31 31s14 31 31 31s31 -14 31 -31zM370 589c0 -17 -14 -31 -31 -31s-31 14 -31 31s14 31 31 31s31 -14 31 -31z
M184 341c0 -17 -14 -31 -31 -31s-31 14 -31 31s14 31 31 31s31 -14 31 -31zM246 341c0 -17 -14 -31 -31 -31s-31 14 -31 31s14 31 31 31s31 -14 31 -31zM308 341c0 -17 -14 -31 -31 -31s-31 14 -31 31s14 31 31 31s31 -14 31 -31z" />
    <glyph glyph-name="G" unicode="G" horiz-adv-x="482" 
d="M122 155c0 -17 -14 -31 -31 -31s-31 14 -31 31s14 31 31 31s31 -14 31 -31zM122 217c0 -17 -14 -31 -31 -31s-31 14 -31 31s14 31 31 31s31 -14 31 -31zM122 279c0 -17 -14 -31 -31 -31s-31 14 -31 31s14 31 31 31s31 -14 31 -31zM122 341c0 -17 -14 -31 -31 -31
s-31 14 -31 31s14 31 31 31s31 -14 31 -31zM122 403c0 -17 -14 -31 -31 -31s-31 14 -31 31s14 31 31 31s31 -14 31 -31zM122 465c0 -17 -14 -31 -31 -31s-31 14 -31 31s14 31 31 31s31 -14 31 -31zM122 527c0 -17 -14 -31 -31 -31s-31 14 -31 31s14 31 31 31s31 -14 31 -31z
M122 93c0 -17 -14 -31 -31 -31s-31 14 -31 31s14 31 31 31s31 -14 31 -31zM184 31c0 -17 -14 -31 -31 -31s-31 14 -31 31s14 31 31 31s31 -14 31 -31zM184 589c0 -17 -14 -31 -31 -31s-31 14 -31 31s14 31 31 31s31 -14 31 -31zM246 31c0 -17 -14 -31 -31 -31s-31 14 -31 31
s14 31 31 31s31 -14 31 -31zM246 589c0 -17 -14 -31 -31 -31s-31 14 -31 31s14 31 31 31s31 -14 31 -31zM308 31c0 -17 -14 -31 -31 -31s-31 14 -31 31s14 31 31 31s31 -14 31 -31zM308 589c0 -17 -14 -31 -31 -31s-31 14 -31 31s14 31 31 31s31 -14 31 -31zM370 31
c0 -17 -14 -31 -31 -31s-31 14 -31 31s14 31 31 31s31 -14 31 -31zM370 589c0 -17 -14 -31 -31 -31s-31 14 -31 31s14 31 31 31s31 -14 31 -31zM432 527c0 -17 -14 -31 -31 -31s-31 14 -31 31s14 31 31 31s31 -14 31 -31zM432 155c0 -17 -14 -31 -31 -31s-31 14 -31 31
s14 31 31 31s31 -14 31 -31zM432 217c0 -17 -14 -31 -31 -31s-31 14 -31 31s14 31 31 31s31 -14 31 -31zM432 279c0 -17 -14 -31 -31 -31s-31 14 -31 31s14 31 31 31s31 -14 31 -31zM432 93c0 -17 -14 -31 -31 -31s-31 14 -31 31s14 31 31 31s31 -14 31 -31zM370 279
c0 -17 -14 -31 -31 -31s-31 14 -31 31s14 31 31 31s31 -14 31 -31z" />
    <glyph glyph-name="H" unicode="H" horiz-adv-x="492" 
d="M122 31c0 -17 -14 -31 -31 -31s-31 14 -31 31s14 31 31 31s31 -14 31 -31zM122 155c0 -17 -14 -31 -31 -31s-31 14 -31 31s14 31 31 31s31 -14 31 -31zM122 217c0 -17 -14 -31 -31 -31s-31 14 -31 31s14 31 31 31s31 -14 31 -31zM122 279c0 -17 -14 -31 -31 -31
s-31 14 -31 31s14 31 31 31s31 -14 31 -31zM122 341c0 -17 -14 -31 -31 -31s-31 14 -31 31s14 31 31 31s31 -14 31 -31zM122 403c0 -17 -14 -31 -31 -31s-31 14 -31 31s14 31 31 31s31 -14 31 -31zM122 465c0 -17 -14 -31 -31 -31s-31 14 -31 31s14 31 31 31s31 -14 31 -31z
M122 527c0 -17 -14 -31 -31 -31s-31 14 -31 31s14 31 31 31s31 -14 31 -31zM122 589c0 -17 -14 -31 -31 -31s-31 14 -31 31s14 31 31 31s31 -14 31 -31zM122 93c0 -17 -14 -31 -31 -31s-31 14 -31 31s14 31 31 31s31 -14 31 -31zM432 31c0 -17 -14 -31 -31 -31
s-31 14 -31 31s14 31 31 31s31 -14 31 -31zM432 465c0 -17 -14 -31 -31 -31s-31 14 -31 31s14 31 31 31s31 -14 31 -31zM432 527c0 -17 -14 -31 -31 -31s-31 14 -31 31s14 31 31 31s31 -14 31 -31zM432 589c0 -17 -14 -31 -31 -31s-31 14 -31 31s14 31 31 31s31 -14 31 -31z
M432 93c0 -17 -14 -31 -31 -31s-31 14 -31 31s14 31 31 31s31 -14 31 -31zM184 341c0 -17 -14 -31 -31 -31s-31 14 -31 31s14 31 31 31s31 -14 31 -31zM246 341c0 -17 -14 -31 -31 -31s-31 14 -31 31s14 31 31 31s31 -14 31 -31zM308 341c0 -17 -14 -31 -31 -31
s-31 14 -31 31s14 31 31 31s31 -14 31 -31zM370 341c0 -17 -14 -31 -31 -31s-31 14 -31 31s14 31 31 31s31 -14 31 -31zM432 155c0 -17 -14 -31 -31 -31s-31 14 -31 31s14 31 31 31s31 -14 31 -31zM432 217c0 -17 -14 -31 -31 -31s-31 14 -31 31s14 31 31 31s31 -14 31 -31z
M432 279c0 -17 -14 -31 -31 -31s-31 14 -31 31s14 31 31 31s31 -14 31 -31zM432 341c0 -17 -14 -31 -31 -31s-31 14 -31 31s14 31 31 31s31 -14 31 -31zM432 403c0 -17 -14 -31 -31 -31s-31 14 -31 31s14 31 31 31s31 -14 31 -31z" />
    <glyph glyph-name="I" unicode="I" horiz-adv-x="266" 
d="M102 31c0 -17 -14 -31 -31 -31s-31 14 -31 31s14 31 31 31s31 -14 31 -31zM102 589c0 -17 -14 -31 -31 -31s-31 14 -31 31s14 31 31 31s31 -14 31 -31zM164 31c0 -17 -14 -31 -31 -31s-31 14 -31 31s14 31 31 31s31 -14 31 -31zM164 465c0 -17 -14 -31 -31 -31
s-31 14 -31 31s14 31 31 31s31 -14 31 -31zM164 527c0 -17 -14 -31 -31 -31s-31 14 -31 31s14 31 31 31s31 -14 31 -31zM164 589c0 -17 -14 -31 -31 -31s-31 14 -31 31s14 31 31 31s31 -14 31 -31zM164 93c0 -17 -14 -31 -31 -31s-31 14 -31 31s14 31 31 31s31 -14 31 -31z
M226 31c0 -17 -14 -31 -31 -31s-31 14 -31 31s14 31 31 31s31 -14 31 -31zM226 589c0 -17 -14 -31 -31 -31s-31 14 -31 31s14 31 31 31s31 -14 31 -31zM164 155c0 -17 -14 -31 -31 -31s-31 14 -31 31s14 31 31 31s31 -14 31 -31zM164 217c0 -17 -14 -31 -31 -31
s-31 14 -31 31s14 31 31 31s31 -14 31 -31zM164 279c0 -17 -14 -31 -31 -31s-31 14 -31 31s14 31 31 31s31 -14 31 -31zM164 341c0 -17 -14 -31 -31 -31s-31 14 -31 31s14 31 31 31s31 -14 31 -31zM164 403c0 -17 -14 -31 -31 -31s-31 14 -31 31s14 31 31 31s31 -14 31 -31z
" />
    <glyph glyph-name="J" unicode="J" horiz-adv-x="432" 
d="M62 93c0 -17 -14 -31 -31 -31s-31 14 -31 31s14 31 31 31s31 -14 31 -31zM124 31c0 -17 -14 -31 -31 -31s-31 14 -31 31s14 31 31 31s31 -14 31 -31zM186 31c0 -17 -14 -31 -31 -31s-31 14 -31 31s14 31 31 31s31 -14 31 -31zM248 31c0 -17 -14 -31 -31 -31
s-31 14 -31 31s14 31 31 31s31 -14 31 -31zM248 589c0 -17 -14 -31 -31 -31s-31 14 -31 31s14 31 31 31s31 -14 31 -31zM310 31c0 -17 -14 -31 -31 -31s-31 14 -31 31s14 31 31 31s31 -14 31 -31zM310 589c0 -17 -14 -31 -31 -31s-31 14 -31 31s14 31 31 31s31 -14 31 -31z
M372 465c0 -17 -14 -31 -31 -31s-31 14 -31 31s14 31 31 31s31 -14 31 -31zM372 527c0 -17 -14 -31 -31 -31s-31 14 -31 31s14 31 31 31s31 -14 31 -31zM372 589c0 -17 -14 -31 -31 -31s-31 14 -31 31s14 31 31 31s31 -14 31 -31zM372 93c0 -17 -14 -31 -31 -31
s-31 14 -31 31s14 31 31 31s31 -14 31 -31zM372 155c0 -17 -14 -31 -31 -31s-31 14 -31 31s14 31 31 31s31 -14 31 -31zM372 217c0 -17 -14 -31 -31 -31s-31 14 -31 31s14 31 31 31s31 -14 31 -31zM372 279c0 -17 -14 -31 -31 -31s-31 14 -31 31s14 31 31 31s31 -14 31 -31z
M372 341c0 -17 -14 -31 -31 -31s-31 14 -31 31s14 31 31 31s31 -14 31 -31zM372 403c0 -17 -14 -31 -31 -31s-31 14 -31 31s14 31 31 31s31 -14 31 -31z" />
    <glyph glyph-name="K" unicode="K" 
d="M122 31c0 -17 -14 -31 -31 -31s-31 14 -31 31s14 31 31 31s31 -14 31 -31zM122 155c0 -17 -14 -31 -31 -31s-31 14 -31 31s14 31 31 31s31 -14 31 -31zM122 217c0 -17 -14 -31 -31 -31s-31 14 -31 31s14 31 31 31s31 -14 31 -31zM122 279c0 -17 -14 -31 -31 -31
s-31 14 -31 31s14 31 31 31s31 -14 31 -31zM122 341c0 -17 -14 -31 -31 -31s-31 14 -31 31s14 31 31 31s31 -14 31 -31zM122 403c0 -17 -14 -31 -31 -31s-31 14 -31 31s14 31 31 31s31 -14 31 -31zM122 465c0 -17 -14 -31 -31 -31s-31 14 -31 31s14 31 31 31s31 -14 31 -31z
M122 527c0 -17 -14 -31 -31 -31s-31 14 -31 31s14 31 31 31s31 -14 31 -31zM122 589c0 -17 -14 -31 -31 -31s-31 14 -31 31s14 31 31 31s31 -14 31 -31zM122 93c0 -17 -14 -31 -31 -31s-31 14 -31 31s14 31 31 31s31 -14 31 -31zM308 465c0 -17 -14 -31 -31 -31
s-31 14 -31 31s14 31 31 31s31 -14 31 -31zM370 527c0 -17 -14 -31 -31 -31s-31 14 -31 31s14 31 31 31s31 -14 31 -31zM432 31c0 -17 -14 -31 -31 -31s-31 14 -31 31s14 31 31 31s31 -14 31 -31zM432 589c0 -17 -14 -31 -31 -31s-31 14 -31 31s14 31 31 31s31 -14 31 -31z
M432 93c0 -17 -14 -31 -31 -31s-31 14 -31 31s14 31 31 31s31 -14 31 -31zM184 341c0 -17 -14 -31 -31 -31s-31 14 -31 31s14 31 31 31s31 -14 31 -31zM246 279c0 -17 -14 -31 -31 -31s-31 14 -31 31s14 31 31 31s31 -14 31 -31zM246 403c0 -17 -14 -31 -31 -31
s-31 14 -31 31s14 31 31 31s31 -14 31 -31zM308 217c0 -17 -14 -31 -31 -31s-31 14 -31 31s14 31 31 31s31 -14 31 -31zM370 155c0 -17 -14 -31 -31 -31s-31 14 -31 31s14 31 31 31s31 -14 31 -31z" />
    <glyph glyph-name="L" unicode="L" horiz-adv-x="452" 
d="M122 31c0 -17 -14 -31 -31 -31s-31 14 -31 31s14 31 31 31s31 -14 31 -31zM122 155c0 -17 -14 -31 -31 -31s-31 14 -31 31s14 31 31 31s31 -14 31 -31zM122 217c0 -17 -14 -31 -31 -31s-31 14 -31 31s14 31 31 31s31 -14 31 -31zM122 279c0 -17 -14 -31 -31 -31
s-31 14 -31 31s14 31 31 31s31 -14 31 -31zM122 341c0 -17 -14 -31 -31 -31s-31 14 -31 31s14 31 31 31s31 -14 31 -31zM122 403c0 -17 -14 -31 -31 -31s-31 14 -31 31s14 31 31 31s31 -14 31 -31zM122 465c0 -17 -14 -31 -31 -31s-31 14 -31 31s14 31 31 31s31 -14 31 -31z
M122 527c0 -17 -14 -31 -31 -31s-31 14 -31 31s14 31 31 31s31 -14 31 -31zM122 589c0 -17 -14 -31 -31 -31s-31 14 -31 31s14 31 31 31s31 -14 31 -31zM122 93c0 -17 -14 -31 -31 -31s-31 14 -31 31s14 31 31 31s31 -14 31 -31zM184 31c0 -17 -14 -31 -31 -31
s-31 14 -31 31s14 31 31 31s31 -14 31 -31zM246 31c0 -17 -14 -31 -31 -31s-31 14 -31 31s14 31 31 31s31 -14 31 -31zM308 31c0 -17 -14 -31 -31 -31s-31 14 -31 31s14 31 31 31s31 -14 31 -31zM370 31c0 -17 -14 -31 -31 -31s-31 14 -31 31s14 31 31 31s31 -14 31 -31z
M432 31c0 -17 -14 -31 -31 -31s-31 14 -31 31s14 31 31 31s31 -14 31 -31z" />
    <glyph glyph-name="M" unicode="M" horiz-adv-x="554" 
d="M122 31c0 -17 -14 -31 -31 -31s-31 14 -31 31s14 31 31 31s31 -14 31 -31zM122 155c0 -17 -14 -31 -31 -31s-31 14 -31 31s14 31 31 31s31 -14 31 -31zM122 217c0 -17 -14 -31 -31 -31s-31 14 -31 31s14 31 31 31s31 -14 31 -31zM122 279c0 -17 -14 -31 -31 -31
s-31 14 -31 31s14 31 31 31s31 -14 31 -31zM122 341c0 -17 -14 -31 -31 -31s-31 14 -31 31s14 31 31 31s31 -14 31 -31zM122 403c0 -17 -14 -31 -31 -31s-31 14 -31 31s14 31 31 31s31 -14 31 -31zM122 465c0 -17 -14 -31 -31 -31s-31 14 -31 31s14 31 31 31s31 -14 31 -31z
M122 527c0 -17 -14 -31 -31 -31s-31 14 -31 31s14 31 31 31s31 -14 31 -31zM122 589c0 -17 -14 -31 -31 -31s-31 14 -31 31s14 31 31 31s31 -14 31 -31zM122 93c0 -17 -14 -31 -31 -31s-31 14 -31 31s14 31 31 31s31 -14 31 -31zM184 527c0 -17 -14 -31 -31 -31
s-31 14 -31 31s14 31 31 31s31 -14 31 -31zM246 465c0 -17 -14 -31 -31 -31s-31 14 -31 31s14 31 31 31s31 -14 31 -31zM370 465c0 -17 -14 -31 -31 -31s-31 14 -31 31s14 31 31 31s31 -14 31 -31zM432 527c0 -17 -14 -31 -31 -31s-31 14 -31 31s14 31 31 31s31 -14 31 -31z
M494 31c0 -17 -14 -31 -31 -31s-31 14 -31 31s14 31 31 31s31 -14 31 -31zM494 155c0 -17 -14 -31 -31 -31s-31 14 -31 31s14 31 31 31s31 -14 31 -31zM494 217c0 -17 -14 -31 -31 -31s-31 14 -31 31s14 31 31 31s31 -14 31 -31zM494 279c0 -17 -14 -31 -31 -31
s-31 14 -31 31s14 31 31 31s31 -14 31 -31zM494 341c0 -17 -14 -31 -31 -31s-31 14 -31 31s14 31 31 31s31 -14 31 -31zM494 403c0 -17 -14 -31 -31 -31s-31 14 -31 31s14 31 31 31s31 -14 31 -31zM494 465c0 -17 -14 -31 -31 -31s-31 14 -31 31s14 31 31 31s31 -14 31 -31z
M494 527c0 -17 -14 -31 -31 -31s-31 14 -31 31s14 31 31 31s31 -14 31 -31zM494 589c0 -17 -14 -31 -31 -31s-31 14 -31 31s14 31 31 31s31 -14 31 -31zM494 93c0 -17 -14 -31 -31 -31s-31 14 -31 31s14 31 31 31s31 -14 31 -31zM308 403c0 -17 -14 -31 -31 -31
s-31 14 -31 31s14 31 31 31s31 -14 31 -31z" />
    <glyph glyph-name="N" unicode="N" horiz-adv-x="492" 
d="M122 31c0 -17 -14 -31 -31 -31s-31 14 -31 31s14 31 31 31s31 -14 31 -31zM122 155c0 -17 -14 -31 -31 -31s-31 14 -31 31s14 31 31 31s31 -14 31 -31zM122 217c0 -17 -14 -31 -31 -31s-31 14 -31 31s14 31 31 31s31 -14 31 -31zM122 279c0 -17 -14 -31 -31 -31
s-31 14 -31 31s14 31 31 31s31 -14 31 -31zM122 341c0 -17 -14 -31 -31 -31s-31 14 -31 31s14 31 31 31s31 -14 31 -31zM122 403c0 -17 -14 -31 -31 -31s-31 14 -31 31s14 31 31 31s31 -14 31 -31zM122 465c0 -17 -14 -31 -31 -31s-31 14 -31 31s14 31 31 31s31 -14 31 -31z
M122 527c0 -17 -14 -31 -31 -31s-31 14 -31 31s14 31 31 31s31 -14 31 -31zM122 589c0 -17 -14 -31 -31 -31s-31 14 -31 31s14 31 31 31s31 -14 31 -31zM122 93c0 -17 -14 -31 -31 -31s-31 14 -31 31s14 31 31 31s31 -14 31 -31zM184 465c0 -17 -14 -31 -31 -31
s-31 14 -31 31s14 31 31 31s31 -14 31 -31zM432 31c0 -17 -14 -31 -31 -31s-31 14 -31 31s14 31 31 31s31 -14 31 -31zM432 465c0 -17 -14 -31 -31 -31s-31 14 -31 31s14 31 31 31s31 -14 31 -31zM432 527c0 -17 -14 -31 -31 -31s-31 14 -31 31s14 31 31 31s31 -14 31 -31z
M432 589c0 -17 -14 -31 -31 -31s-31 14 -31 31s14 31 31 31s31 -14 31 -31zM432 93c0 -17 -14 -31 -31 -31s-31 14 -31 31s14 31 31 31s31 -14 31 -31zM246 341c0 -17 -14 -31 -31 -31s-31 14 -31 31s14 31 31 31s31 -14 31 -31zM246 403c0 -17 -14 -31 -31 -31
s-31 14 -31 31s14 31 31 31s31 -14 31 -31zM308 217c0 -17 -14 -31 -31 -31s-31 14 -31 31s14 31 31 31s31 -14 31 -31zM308 279c0 -17 -14 -31 -31 -31s-31 14 -31 31s14 31 31 31s31 -14 31 -31zM370 155c0 -17 -14 -31 -31 -31s-31 14 -31 31s14 31 31 31s31 -14 31 -31z
M432 155c0 -17 -14 -31 -31 -31s-31 14 -31 31s14 31 31 31s31 -14 31 -31zM432 217c0 -17 -14 -31 -31 -31s-31 14 -31 31s14 31 31 31s31 -14 31 -31zM432 279c0 -17 -14 -31 -31 -31s-31 14 -31 31s14 31 31 31s31 -14 31 -31zM432 341c0 -17 -14 -31 -31 -31
s-31 14 -31 31s14 31 31 31s31 -14 31 -31zM432 403c0 -17 -14 -31 -31 -31s-31 14 -31 31s14 31 31 31s31 -14 31 -31z" />
    <glyph glyph-name="O" unicode="O" horiz-adv-x="492" 
d="M122 155c0 -17 -14 -31 -31 -31s-31 14 -31 31s14 31 31 31s31 -14 31 -31zM122 217c0 -17 -14 -31 -31 -31s-31 14 -31 31s14 31 31 31s31 -14 31 -31zM122 279c0 -17 -14 -31 -31 -31s-31 14 -31 31s14 31 31 31s31 -14 31 -31zM122 341c0 -17 -14 -31 -31 -31
s-31 14 -31 31s14 31 31 31s31 -14 31 -31zM122 403c0 -17 -14 -31 -31 -31s-31 14 -31 31s14 31 31 31s31 -14 31 -31zM122 465c0 -17 -14 -31 -31 -31s-31 14 -31 31s14 31 31 31s31 -14 31 -31zM122 527c0 -17 -14 -31 -31 -31s-31 14 -31 31s14 31 31 31s31 -14 31 -31z
M122 93c0 -17 -14 -31 -31 -31s-31 14 -31 31s14 31 31 31s31 -14 31 -31zM184 31c0 -17 -14 -31 -31 -31s-31 14 -31 31s14 31 31 31s31 -14 31 -31zM184 589c0 -17 -14 -31 -31 -31s-31 14 -31 31s14 31 31 31s31 -14 31 -31zM246 31c0 -17 -14 -31 -31 -31s-31 14 -31 31
s14 31 31 31s31 -14 31 -31zM246 589c0 -17 -14 -31 -31 -31s-31 14 -31 31s14 31 31 31s31 -14 31 -31zM308 31c0 -17 -14 -31 -31 -31s-31 14 -31 31s14 31 31 31s31 -14 31 -31zM308 589c0 -17 -14 -31 -31 -31s-31 14 -31 31s14 31 31 31s31 -14 31 -31zM370 31
c0 -17 -14 -31 -31 -31s-31 14 -31 31s14 31 31 31s31 -14 31 -31zM370 589c0 -17 -14 -31 -31 -31s-31 14 -31 31s14 31 31 31s31 -14 31 -31zM432 465c0 -17 -14 -31 -31 -31s-31 14 -31 31s14 31 31 31s31 -14 31 -31zM432 527c0 -17 -14 -31 -31 -31s-31 14 -31 31
s14 31 31 31s31 -14 31 -31zM432 93c0 -17 -14 -31 -31 -31s-31 14 -31 31s14 31 31 31s31 -14 31 -31zM432 155c0 -17 -14 -31 -31 -31s-31 14 -31 31s14 31 31 31s31 -14 31 -31zM432 217c0 -17 -14 -31 -31 -31s-31 14 -31 31s14 31 31 31s31 -14 31 -31zM432 279
c0 -17 -14 -31 -31 -31s-31 14 -31 31s14 31 31 31s31 -14 31 -31zM432 341c0 -17 -14 -31 -31 -31s-31 14 -31 31s14 31 31 31s31 -14 31 -31zM432 403c0 -17 -14 -31 -31 -31s-31 14 -31 31s14 31 31 31s31 -14 31 -31z" />
    <glyph glyph-name="P" unicode="P" 
d="M122 31c0 -17 -14 -31 -31 -31s-31 14 -31 31s14 31 31 31s31 -14 31 -31zM122 155c0 -17 -14 -31 -31 -31s-31 14 -31 31s14 31 31 31s31 -14 31 -31zM122 217c0 -17 -14 -31 -31 -31s-31 14 -31 31s14 31 31 31s31 -14 31 -31zM122 279c0 -17 -14 -31 -31 -31
s-31 14 -31 31s14 31 31 31s31 -14 31 -31zM122 341c0 -17 -14 -31 -31 -31s-31 14 -31 31s14 31 31 31s31 -14 31 -31zM122 403c0 -17 -14 -31 -31 -31s-31 14 -31 31s14 31 31 31s31 -14 31 -31zM122 465c0 -17 -14 -31 -31 -31s-31 14 -31 31s14 31 31 31s31 -14 31 -31z
M122 527c0 -17 -14 -31 -31 -31s-31 14 -31 31s14 31 31 31s31 -14 31 -31zM122 589c0 -17 -14 -31 -31 -31s-31 14 -31 31s14 31 31 31s31 -14 31 -31zM122 93c0 -17 -14 -31 -31 -31s-31 14 -31 31s14 31 31 31s31 -14 31 -31zM184 589c0 -17 -14 -31 -31 -31
s-31 14 -31 31s14 31 31 31s31 -14 31 -31zM246 589c0 -17 -14 -31 -31 -31s-31 14 -31 31s14 31 31 31s31 -14 31 -31zM308 589c0 -17 -14 -31 -31 -31s-31 14 -31 31s14 31 31 31s31 -14 31 -31zM370 589c0 -17 -14 -31 -31 -31s-31 14 -31 31s14 31 31 31s31 -14 31 -31z
M432 465c0 -17 -14 -31 -31 -31s-31 14 -31 31s14 31 31 31s31 -14 31 -31zM432 527c0 -17 -14 -31 -31 -31s-31 14 -31 31s14 31 31 31s31 -14 31 -31zM184 279c0 -17 -14 -31 -31 -31s-31 14 -31 31s14 31 31 31s31 -14 31 -31zM246 217c0 -17 -14 -31 -31 -31
s-31 14 -31 31s14 31 31 31s31 -14 31 -31zM308 217c0 -17 -14 -31 -31 -31s-31 14 -31 31s14 31 31 31s31 -14 31 -31zM370 217c0 -17 -14 -31 -31 -31s-31 14 -31 31s14 31 31 31s31 -14 31 -31zM432 279c0 -17 -14 -31 -31 -31s-31 14 -31 31s14 31 31 31s31 -14 31 -31z
M432 341c0 -17 -14 -31 -31 -31s-31 14 -31 31s14 31 31 31s31 -14 31 -31zM432 403c0 -17 -14 -31 -31 -31s-31 14 -31 31s14 31 31 31s31 -14 31 -31z" />
    <glyph glyph-name="Q" unicode="Q" horiz-adv-x="492" 
d="M122 155c0 -17 -14 -31 -31 -31s-31 14 -31 31s14 31 31 31s31 -14 31 -31zM122 217c0 -17 -14 -31 -31 -31s-31 14 -31 31s14 31 31 31s31 -14 31 -31zM122 279c0 -17 -14 -31 -31 -31s-31 14 -31 31s14 31 31 31s31 -14 31 -31zM122 341c0 -17 -14 -31 -31 -31
s-31 14 -31 31s14 31 31 31s31 -14 31 -31zM122 403c0 -17 -14 -31 -31 -31s-31 14 -31 31s14 31 31 31s31 -14 31 -31zM122 465c0 -17 -14 -31 -31 -31s-31 14 -31 31s14 31 31 31s31 -14 31 -31zM122 527c0 -17 -14 -31 -31 -31s-31 14 -31 31s14 31 31 31s31 -14 31 -31z
M122 93c0 -17 -14 -31 -31 -31s-31 14 -31 31s14 31 31 31s31 -14 31 -31zM184 31c0 -17 -14 -31 -31 -31s-31 14 -31 31s14 31 31 31s31 -14 31 -31zM184 589c0 -17 -14 -31 -31 -31s-31 14 -31 31s14 31 31 31s31 -14 31 -31zM246 31c0 -17 -14 -31 -31 -31s-31 14 -31 31
s14 31 31 31s31 -14 31 -31zM246 589c0 -17 -14 -31 -31 -31s-31 14 -31 31s14 31 31 31s31 -14 31 -31zM308 31c0 -17 -14 -31 -31 -31s-31 14 -31 31s14 31 31 31s31 -14 31 -31zM308 589c0 -17 -14 -31 -31 -31s-31 14 -31 31s14 31 31 31s31 -14 31 -31zM370 31
c0 -17 -14 -31 -31 -31s-31 14 -31 31s14 31 31 31s31 -14 31 -31zM370 589c0 -17 -14 -31 -31 -31s-31 14 -31 31s14 31 31 31s31 -14 31 -31zM432 465c0 -17 -14 -31 -31 -31s-31 14 -31 31s14 31 31 31s31 -14 31 -31zM432 527c0 -17 -14 -31 -31 -31s-31 14 -31 31
s14 31 31 31s31 -14 31 -31zM432 93c0 -17 -14 -31 -31 -31s-31 14 -31 31s14 31 31 31s31 -14 31 -31zM432 155c0 -17 -14 -31 -31 -31s-31 14 -31 31s14 31 31 31s31 -14 31 -31zM432 217c0 -17 -14 -31 -31 -31s-31 14 -31 31s14 31 31 31s31 -14 31 -31zM432 279
c0 -17 -14 -31 -31 -31s-31 14 -31 31s14 31 31 31s31 -14 31 -31zM432 341c0 -17 -14 -31 -31 -31s-31 14 -31 31s14 31 31 31s31 -14 31 -31zM432 403c0 -17 -14 -31 -31 -31s-31 14 -31 31s14 31 31 31s31 -14 31 -31zM308 93c0 -17 -14 -31 -31 -31s-31 14 -31 31
s14 31 31 31s31 -14 31 -31zM308 -31c0 -17 -14 -31 -31 -31s-31 14 -31 31s14 31 31 31s31 -14 31 -31zM370 -93c0 -17 -14 -31 -31 -31s-31 14 -31 31s14 31 31 31s31 -14 31 -31z" />
    <glyph glyph-name="R" unicode="R" 
d="M122 31c0 -17 -14 -31 -31 -31s-31 14 -31 31s14 31 31 31s31 -14 31 -31zM122 155c0 -17 -14 -31 -31 -31s-31 14 -31 31s14 31 31 31s31 -14 31 -31zM122 217c0 -17 -14 -31 -31 -31s-31 14 -31 31s14 31 31 31s31 -14 31 -31zM122 279c0 -17 -14 -31 -31 -31
s-31 14 -31 31s14 31 31 31s31 -14 31 -31zM122 341c0 -17 -14 -31 -31 -31s-31 14 -31 31s14 31 31 31s31 -14 31 -31zM122 403c0 -17 -14 -31 -31 -31s-31 14 -31 31s14 31 31 31s31 -14 31 -31zM122 465c0 -17 -14 -31 -31 -31s-31 14 -31 31s14 31 31 31s31 -14 31 -31z
M122 527c0 -17 -14 -31 -31 -31s-31 14 -31 31s14 31 31 31s31 -14 31 -31zM122 589c0 -17 -14 -31 -31 -31s-31 14 -31 31s14 31 31 31s31 -14 31 -31zM122 93c0 -17 -14 -31 -31 -31s-31 14 -31 31s14 31 31 31s31 -14 31 -31zM184 589c0 -17 -14 -31 -31 -31
s-31 14 -31 31s14 31 31 31s31 -14 31 -31zM246 589c0 -17 -14 -31 -31 -31s-31 14 -31 31s14 31 31 31s31 -14 31 -31zM308 589c0 -17 -14 -31 -31 -31s-31 14 -31 31s14 31 31 31s31 -14 31 -31zM370 589c0 -17 -14 -31 -31 -31s-31 14 -31 31s14 31 31 31s31 -14 31 -31z
M432 465c0 -17 -14 -31 -31 -31s-31 14 -31 31s14 31 31 31s31 -14 31 -31zM432 527c0 -17 -14 -31 -31 -31s-31 14 -31 31s14 31 31 31s31 -14 31 -31zM184 279c0 -17 -14 -31 -31 -31s-31 14 -31 31s14 31 31 31s31 -14 31 -31zM246 217c0 -17 -14 -31 -31 -31
s-31 14 -31 31s14 31 31 31s31 -14 31 -31zM308 217c0 -17 -14 -31 -31 -31s-31 14 -31 31s14 31 31 31s31 -14 31 -31zM370 217c0 -17 -14 -31 -31 -31s-31 14 -31 31s14 31 31 31s31 -14 31 -31zM432 279c0 -17 -14 -31 -31 -31s-31 14 -31 31s14 31 31 31s31 -14 31 -31z
M432 341c0 -17 -14 -31 -31 -31s-31 14 -31 31s14 31 31 31s31 -14 31 -31zM432 403c0 -17 -14 -31 -31 -31s-31 14 -31 31s14 31 31 31s31 -14 31 -31zM308 155c0 -17 -14 -31 -31 -31s-31 14 -31 31s14 31 31 31s31 -14 31 -31zM370 93c0 -17 -14 -31 -31 -31
s-31 14 -31 31s14 31 31 31s31 -14 31 -31zM432 31c0 -17 -14 -31 -31 -31s-31 14 -31 31s14 31 31 31s31 -14 31 -31z" />
    <glyph glyph-name="S" unicode="S" horiz-adv-x="442" 
d="M92 403c0 -17 -14 -31 -31 -31s-31 14 -31 31s14 31 31 31s31 -14 31 -31zM92 465c0 -17 -14 -31 -31 -31s-31 14 -31 31s14 31 31 31s31 -14 31 -31zM92 527c0 -17 -14 -31 -31 -31s-31 14 -31 31s14 31 31 31s31 -14 31 -31zM92 93c0 -17 -14 -31 -31 -31
s-31 14 -31 31s14 31 31 31s31 -14 31 -31zM154 31c0 -17 -14 -31 -31 -31s-31 14 -31 31s14 31 31 31s31 -14 31 -31zM154 341c0 -17 -14 -31 -31 -31s-31 14 -31 31s14 31 31 31s31 -14 31 -31zM154 589c0 -17 -14 -31 -31 -31s-31 14 -31 31s14 31 31 31s31 -14 31 -31z
M216 31c0 -17 -14 -31 -31 -31s-31 14 -31 31s14 31 31 31s31 -14 31 -31zM216 341c0 -17 -14 -31 -31 -31s-31 14 -31 31s14 31 31 31s31 -14 31 -31zM216 589c0 -17 -14 -31 -31 -31s-31 14 -31 31s14 31 31 31s31 -14 31 -31zM278 31c0 -17 -14 -31 -31 -31
s-31 14 -31 31s14 31 31 31s31 -14 31 -31zM278 341c0 -17 -14 -31 -31 -31s-31 14 -31 31s14 31 31 31s31 -14 31 -31zM278 589c0 -17 -14 -31 -31 -31s-31 14 -31 31s14 31 31 31s31 -14 31 -31zM340 31c0 -17 -14 -31 -31 -31s-31 14 -31 31s14 31 31 31s31 -14 31 -31z
M340 341c0 -17 -14 -31 -31 -31s-31 14 -31 31s14 31 31 31s31 -14 31 -31zM340 589c0 -17 -14 -31 -31 -31s-31 14 -31 31s14 31 31 31s31 -14 31 -31zM402 155c0 -17 -14 -31 -31 -31s-31 14 -31 31s14 31 31 31s31 -14 31 -31zM402 217c0 -17 -14 -31 -31 -31
s-31 14 -31 31s14 31 31 31s31 -14 31 -31zM402 279c0 -17 -14 -31 -31 -31s-31 14 -31 31s14 31 31 31s31 -14 31 -31zM402 527c0 -17 -14 -31 -31 -31s-31 14 -31 31s14 31 31 31s31 -14 31 -31zM402 93c0 -17 -14 -31 -31 -31s-31 14 -31 31s14 31 31 31s31 -14 31 -31z
" />
    <glyph glyph-name="T" unicode="T" horiz-adv-x="350" 
d="M144 589c0 -17 -14 -31 -31 -31s-31 14 -31 31s14 31 31 31s31 -14 31 -31zM206 31c0 -17 -14 -31 -31 -31s-31 14 -31 31s14 31 31 31s31 -14 31 -31zM206 465c0 -17 -14 -31 -31 -31s-31 14 -31 31s14 31 31 31s31 -14 31 -31zM206 527c0 -17 -14 -31 -31 -31
s-31 14 -31 31s14 31 31 31s31 -14 31 -31zM206 589c0 -17 -14 -31 -31 -31s-31 14 -31 31s14 31 31 31s31 -14 31 -31zM206 93c0 -17 -14 -31 -31 -31s-31 14 -31 31s14 31 31 31s31 -14 31 -31zM268 589c0 -17 -14 -31 -31 -31s-31 14 -31 31s14 31 31 31s31 -14 31 -31z
M206 155c0 -17 -14 -31 -31 -31s-31 14 -31 31s14 31 31 31s31 -14 31 -31zM206 217c0 -17 -14 -31 -31 -31s-31 14 -31 31s14 31 31 31s31 -14 31 -31zM206 279c0 -17 -14 -31 -31 -31s-31 14 -31 31s14 31 31 31s31 -14 31 -31zM206 341c0 -17 -14 -31 -31 -31
s-31 14 -31 31s14 31 31 31s31 -14 31 -31zM206 403c0 -17 -14 -31 -31 -31s-31 14 -31 31s14 31 31 31s31 -14 31 -31zM330 589c0 -17 -14 -31 -31 -31s-31 14 -31 31s14 31 31 31s31 -14 31 -31zM82 589c0 -17 -14 -31 -31 -31s-31 14 -31 31s14 31 31 31s31 -14 31 -31z
" />
    <glyph glyph-name="U" unicode="U" horiz-adv-x="492" 
d="M122 155c0 -17 -14 -31 -31 -31s-31 14 -31 31s14 31 31 31s31 -14 31 -31zM122 217c0 -17 -14 -31 -31 -31s-31 14 -31 31s14 31 31 31s31 -14 31 -31zM122 279c0 -17 -14 -31 -31 -31s-31 14 -31 31s14 31 31 31s31 -14 31 -31zM122 341c0 -17 -14 -31 -31 -31
s-31 14 -31 31s14 31 31 31s31 -14 31 -31zM122 403c0 -17 -14 -31 -31 -31s-31 14 -31 31s14 31 31 31s31 -14 31 -31zM122 465c0 -17 -14 -31 -31 -31s-31 14 -31 31s14 31 31 31s31 -14 31 -31zM122 527c0 -17 -14 -31 -31 -31s-31 14 -31 31s14 31 31 31s31 -14 31 -31z
M122 93c0 -17 -14 -31 -31 -31s-31 14 -31 31s14 31 31 31s31 -14 31 -31zM184 31c0 -17 -14 -31 -31 -31s-31 14 -31 31s14 31 31 31s31 -14 31 -31zM246 31c0 -17 -14 -31 -31 -31s-31 14 -31 31s14 31 31 31s31 -14 31 -31zM308 31c0 -17 -14 -31 -31 -31s-31 14 -31 31
s14 31 31 31s31 -14 31 -31zM370 31c0 -17 -14 -31 -31 -31s-31 14 -31 31s14 31 31 31s31 -14 31 -31zM432 465c0 -17 -14 -31 -31 -31s-31 14 -31 31s14 31 31 31s31 -14 31 -31zM432 527c0 -17 -14 -31 -31 -31s-31 14 -31 31s14 31 31 31s31 -14 31 -31zM432 93
c0 -17 -14 -31 -31 -31s-31 14 -31 31s14 31 31 31s31 -14 31 -31zM432 155c0 -17 -14 -31 -31 -31s-31 14 -31 31s14 31 31 31s31 -14 31 -31zM432 217c0 -17 -14 -31 -31 -31s-31 14 -31 31s14 31 31 31s31 -14 31 -31zM432 279c0 -17 -14 -31 -31 -31s-31 14 -31 31
s14 31 31 31s31 -14 31 -31zM432 341c0 -17 -14 -31 -31 -31s-31 14 -31 31s14 31 31 31s31 -14 31 -31zM432 403c0 -17 -14 -31 -31 -31s-31 14 -31 31s14 31 31 31s31 -14 31 -31zM122 589c0 -17 -14 -31 -31 -31s-31 14 -31 31s14 31 31 31s31 -14 31 -31zM432 589
c0 -17 -14 -31 -31 -31s-31 14 -31 31s14 31 31 31s31 -14 31 -31z" />
    <glyph glyph-name="V" unicode="V" horiz-adv-x="452" 
d="M288 31c0 -17 -14 -31 -31 -31s-31 14 -31 31s14 31 31 31s31 -14 31 -31zM350 93c0 -17 -14 -31 -31 -31s-31 14 -31 31s14 31 31 31s31 -14 31 -31zM350 155c0 -17 -14 -31 -31 -31s-31 14 -31 31s14 31 31 31s31 -14 31 -31zM350 217c0 -17 -14 -31 -31 -31
s-31 14 -31 31s14 31 31 31s31 -14 31 -31zM350 279c0 -17 -14 -31 -31 -31s-31 14 -31 31s14 31 31 31s31 -14 31 -31zM412 341c0 -17 -14 -31 -31 -31s-31 14 -31 31s14 31 31 31s31 -14 31 -31zM412 403c0 -17 -14 -31 -31 -31s-31 14 -31 31s14 31 31 31s31 -14 31 -31z
M412 465c0 -17 -14 -31 -31 -31s-31 14 -31 31s14 31 31 31s31 -14 31 -31zM412 527c0 -17 -14 -31 -31 -31s-31 14 -31 31s14 31 31 31s31 -14 31 -31zM412 589c0 -17 -14 -31 -31 -31s-31 14 -31 31s14 31 31 31s31 -14 31 -31zM164 31c0 17 14 31 31 31s31 -14 31 -31
s-14 -31 -31 -31s-31 14 -31 31zM102 93c0 17 14 31 31 31s31 -14 31 -31s-14 -31 -31 -31s-31 14 -31 31zM102 155c0 17 14 31 31 31s31 -14 31 -31s-14 -31 -31 -31s-31 14 -31 31zM102 217c0 17 14 31 31 31s31 -14 31 -31s-14 -31 -31 -31s-31 14 -31 31zM102 279
c0 17 14 31 31 31s31 -14 31 -31s-14 -31 -31 -31s-31 14 -31 31zM40 341c0 17 14 31 31 31s31 -14 31 -31s-14 -31 -31 -31s-31 14 -31 31zM40 403c0 17 14 31 31 31s31 -14 31 -31s-14 -31 -31 -31s-31 14 -31 31zM40 465c0 17 14 31 31 31s31 -14 31 -31s-14 -31 -31 -31
s-31 14 -31 31zM40 527c0 17 14 31 31 31s31 -14 31 -31s-14 -31 -31 -31s-31 14 -31 31zM40 589c0 17 14 31 31 31s31 -14 31 -31s-14 -31 -31 -31s-31 14 -31 31z" />
    <glyph glyph-name="W" unicode="W" horiz-adv-x="678" 
d="M122 155c0 -17 -14 -31 -31 -31s-31 14 -31 31s14 31 31 31s31 -14 31 -31zM122 217c0 -17 -14 -31 -31 -31s-31 14 -31 31s14 31 31 31s31 -14 31 -31zM122 279c0 -17 -14 -31 -31 -31s-31 14 -31 31s14 31 31 31s31 -14 31 -31zM122 341c0 -17 -14 -31 -31 -31
s-31 14 -31 31s14 31 31 31s31 -14 31 -31zM122 403c0 -17 -14 -31 -31 -31s-31 14 -31 31s14 31 31 31s31 -14 31 -31zM122 465c0 -17 -14 -31 -31 -31s-31 14 -31 31s14 31 31 31s31 -14 31 -31zM122 527c0 -17 -14 -31 -31 -31s-31 14 -31 31s14 31 31 31s31 -14 31 -31z
M122 589c0 -17 -14 -31 -31 -31s-31 14 -31 31s14 31 31 31s31 -14 31 -31zM122 93c0 -17 -14 -31 -31 -31s-31 14 -31 31s14 31 31 31s31 -14 31 -31zM184 31c0 -17 -14 -31 -31 -31s-31 14 -31 31s14 31 31 31s31 -14 31 -31zM246 31c0 -17 -14 -31 -31 -31s-31 14 -31 31
s14 31 31 31s31 -14 31 -31zM308 93c0 -17 -14 -31 -31 -31s-31 14 -31 31s14 31 31 31s31 -14 31 -31zM556 155c0 17 14 31 31 31s31 -14 31 -31s-14 -31 -31 -31s-31 14 -31 31zM556 217c0 17 14 31 31 31s31 -14 31 -31s-14 -31 -31 -31s-31 14 -31 31zM556 279
c0 17 14 31 31 31s31 -14 31 -31s-14 -31 -31 -31s-31 14 -31 31zM556 341c0 17 14 31 31 31s31 -14 31 -31s-14 -31 -31 -31s-31 14 -31 31zM556 403c0 17 14 31 31 31s31 -14 31 -31s-14 -31 -31 -31s-31 14 -31 31zM556 465c0 17 14 31 31 31s31 -14 31 -31
s-14 -31 -31 -31s-31 14 -31 31zM556 527c0 17 14 31 31 31s31 -14 31 -31s-14 -31 -31 -31s-31 14 -31 31zM556 589c0 17 14 31 31 31s31 -14 31 -31s-14 -31 -31 -31s-31 14 -31 31zM556 93c0 17 14 31 31 31s31 -14 31 -31s-14 -31 -31 -31s-31 14 -31 31zM494 31
c0 17 14 31 31 31s31 -14 31 -31s-14 -31 -31 -31s-31 14 -31 31zM432 31c0 17 14 31 31 31s31 -14 31 -31s-14 -31 -31 -31s-31 14 -31 31zM370 93c0 17 14 31 31 31s31 -14 31 -31s-14 -31 -31 -31s-31 14 -31 31zM308 465c0 17 14 31 31 31s31 -14 31 -31
s-14 -31 -31 -31s-31 14 -31 31zM308 527c0 17 14 31 31 31s31 -14 31 -31s-14 -31 -31 -31s-31 14 -31 31zM308 155c0 17 14 31 31 31s31 -14 31 -31s-14 -31 -31 -31s-31 14 -31 31zM308 217c0 17 14 31 31 31s31 -14 31 -31s-14 -31 -31 -31s-31 14 -31 31zM308 279
c0 17 14 31 31 31s31 -14 31 -31s-14 -31 -31 -31s-31 14 -31 31zM308 341c0 17 14 31 31 31s31 -14 31 -31s-14 -31 -31 -31s-31 14 -31 31zM308 403c0 17 14 31 31 31s31 -14 31 -31s-14 -31 -31 -31s-31 14 -31 31z" />
    <glyph glyph-name="X" unicode="X" 
d="M112 31c0 -17 -14 -31 -31 -31s-31 14 -31 31s14 31 31 31s31 -14 31 -31zM112 155c0 -17 -14 -31 -31 -31s-31 14 -31 31s14 31 31 31s31 -14 31 -31zM112 465c0 -17 -14 -31 -31 -31s-31 14 -31 31s14 31 31 31s31 -14 31 -31zM112 527c0 -17 -14 -31 -31 -31
s-31 14 -31 31s14 31 31 31s31 -14 31 -31zM112 589c0 -17 -14 -31 -31 -31s-31 14 -31 31s14 31 31 31s31 -14 31 -31zM112 93c0 -17 -14 -31 -31 -31s-31 14 -31 31s14 31 31 31s31 -14 31 -31zM422 31c0 -17 -14 -31 -31 -31s-31 14 -31 31s14 31 31 31s31 -14 31 -31z
M422 465c0 -17 -14 -31 -31 -31s-31 14 -31 31s14 31 31 31s31 -14 31 -31zM422 527c0 -17 -14 -31 -31 -31s-31 14 -31 31s14 31 31 31s31 -14 31 -31zM422 589c0 -17 -14 -31 -31 -31s-31 14 -31 31s14 31 31 31s31 -14 31 -31zM422 93c0 -17 -14 -31 -31 -31
s-31 14 -31 31s14 31 31 31s31 -14 31 -31zM174 217c0 -17 -14 -31 -31 -31s-31 14 -31 31s14 31 31 31s31 -14 31 -31zM174 403c0 -17 -14 -31 -31 -31s-31 14 -31 31s14 31 31 31s31 -14 31 -31zM236 279c0 -17 -14 -31 -31 -31s-31 14 -31 31s14 31 31 31s31 -14 31 -31z
M236 341c0 -17 -14 -31 -31 -31s-31 14 -31 31s14 31 31 31s31 -14 31 -31zM298 279c0 -17 -14 -31 -31 -31s-31 14 -31 31s14 31 31 31s31 -14 31 -31zM298 341c0 -17 -14 -31 -31 -31s-31 14 -31 31s14 31 31 31s31 -14 31 -31zM360 217c0 -17 -14 -31 -31 -31
s-31 14 -31 31s14 31 31 31s31 -14 31 -31zM360 403c0 -17 -14 -31 -31 -31s-31 14 -31 31s14 31 31 31s31 -14 31 -31zM422 155c0 -17 -14 -31 -31 -31s-31 14 -31 31s14 31 31 31s31 -14 31 -31z" />
    <glyph glyph-name="Y" unicode="Y" horiz-adv-x="474" 
d="M82 527c0 -17 -14 -31 -31 -31s-31 14 -31 31s14 31 31 31s31 -14 31 -31zM82 589c0 -17 -14 -31 -31 -31s-31 14 -31 31s14 31 31 31s31 -14 31 -31zM144 465c0 -17 -14 -31 -31 -31s-31 14 -31 31s14 31 31 31s31 -14 31 -31zM268 31c0 -17 -14 -31 -31 -31
s-31 14 -31 31s14 31 31 31s31 -14 31 -31zM268 93c0 -17 -14 -31 -31 -31s-31 14 -31 31s14 31 31 31s31 -14 31 -31zM392 465c0 -17 -14 -31 -31 -31s-31 14 -31 31s14 31 31 31s31 -14 31 -31zM454 527c0 -17 -14 -31 -31 -31s-31 14 -31 31s14 31 31 31s31 -14 31 -31z
M454 589c0 -17 -14 -31 -31 -31s-31 14 -31 31s14 31 31 31s31 -14 31 -31zM206 403c0 -17 -14 -31 -31 -31s-31 14 -31 31s14 31 31 31s31 -14 31 -31zM268 155c0 -17 -14 -31 -31 -31s-31 14 -31 31s14 31 31 31s31 -14 31 -31zM268 217c0 -17 -14 -31 -31 -31
s-31 14 -31 31s14 31 31 31s31 -14 31 -31zM268 279c0 -17 -14 -31 -31 -31s-31 14 -31 31s14 31 31 31s31 -14 31 -31zM268 341c0 -17 -14 -31 -31 -31s-31 14 -31 31s14 31 31 31s31 -14 31 -31zM330 403c0 -17 -14 -31 -31 -31s-31 14 -31 31s14 31 31 31s31 -14 31 -31z
" />
    <glyph glyph-name="Z" unicode="Z" horiz-adv-x="432" 
d="M92 31c0 -17 -14 -31 -31 -31s-31 14 -31 31s14 31 31 31s31 -14 31 -31zM92 589c0 -17 -14 -31 -31 -31s-31 14 -31 31s14 31 31 31s31 -14 31 -31zM92 93c0 -17 -14 -31 -31 -31s-31 14 -31 31s14 31 31 31s31 -14 31 -31zM154 31c0 -17 -14 -31 -31 -31s-31 14 -31 31
s14 31 31 31s31 -14 31 -31zM154 589c0 -17 -14 -31 -31 -31s-31 14 -31 31s14 31 31 31s31 -14 31 -31zM216 31c0 -17 -14 -31 -31 -31s-31 14 -31 31s14 31 31 31s31 -14 31 -31zM216 589c0 -17 -14 -31 -31 -31s-31 14 -31 31s14 31 31 31s31 -14 31 -31zM278 31
c0 -17 -14 -31 -31 -31s-31 14 -31 31s14 31 31 31s31 -14 31 -31zM278 589c0 -17 -14 -31 -31 -31s-31 14 -31 31s14 31 31 31s31 -14 31 -31zM340 31c0 -17 -14 -31 -31 -31s-31 14 -31 31s14 31 31 31s31 -14 31 -31zM340 465c0 -17 -14 -31 -31 -31s-31 14 -31 31
s14 31 31 31s31 -14 31 -31zM340 589c0 -17 -14 -31 -31 -31s-31 14 -31 31s14 31 31 31s31 -14 31 -31zM402 31c0 -17 -14 -31 -31 -31s-31 14 -31 31s14 31 31 31s31 -14 31 -31zM402 527c0 -17 -14 -31 -31 -31s-31 14 -31 31s14 31 31 31s31 -14 31 -31zM402 589
c0 -17 -14 -31 -31 -31s-31 14 -31 31s14 31 31 31s31 -14 31 -31zM154 155c0 -17 -14 -31 -31 -31s-31 14 -31 31s14 31 31 31s31 -14 31 -31zM154 217c0 -17 -14 -31 -31 -31s-31 14 -31 31s14 31 31 31s31 -14 31 -31zM216 279c0 -17 -14 -31 -31 -31s-31 14 -31 31
s14 31 31 31s31 -14 31 -31zM278 341c0 -17 -14 -31 -31 -31s-31 14 -31 31s14 31 31 31s31 -14 31 -31zM340 403c0 -17 -14 -31 -31 -31s-31 14 -31 31s14 31 31 31s31 -14 31 -31z" />
    <glyph glyph-name="bracketleft" unicode="[" horiz-adv-x="204" 
d="M102 31c0 -17 -14 -31 -31 -31s-31 14 -31 31s14 31 31 31s31 -14 31 -31zM102 155c0 -17 -14 -31 -31 -31s-31 14 -31 31s14 31 31 31s31 -14 31 -31zM102 217c0 -17 -14 -31 -31 -31s-31 14 -31 31s14 31 31 31s31 -14 31 -31zM102 279c0 -17 -14 -31 -31 -31
s-31 14 -31 31s14 31 31 31s31 -14 31 -31zM102 341c0 -17 -14 -31 -31 -31s-31 14 -31 31s14 31 31 31s31 -14 31 -31zM102 403c0 -17 -14 -31 -31 -31s-31 14 -31 31s14 31 31 31s31 -14 31 -31zM102 465c0 -17 -14 -31 -31 -31s-31 14 -31 31s14 31 31 31s31 -14 31 -31z
M102 527c0 -17 -14 -31 -31 -31s-31 14 -31 31s14 31 31 31s31 -14 31 -31zM102 589c0 -17 -14 -31 -31 -31s-31 14 -31 31s14 31 31 31s31 -14 31 -31zM102 93c0 -17 -14 -31 -31 -31s-31 14 -31 31s14 31 31 31s31 -14 31 -31zM164 31c0 -17 -14 -31 -31 -31
s-31 14 -31 31s14 31 31 31s31 -14 31 -31zM164 589c0 -17 -14 -31 -31 -31s-31 14 -31 31s14 31 31 31s31 -14 31 -31z" />
    <glyph glyph-name="backslash" unicode="\" horiz-adv-x="248" 
d="M186 31c0 17 14 31 31 31s31 -14 31 -31s-14 -31 -31 -31s-31 14 -31 31zM186 93c0 17 14 31 31 31s31 -14 31 -31s-14 -31 -31 -31s-31 14 -31 31zM124 155c0 17 14 31 31 31s31 -14 31 -31s-14 -31 -31 -31s-31 14 -31 31zM124 217c0 17 14 31 31 31s31 -14 31 -31
s-14 -31 -31 -31s-31 14 -31 31zM124 279c0 17 14 31 31 31s31 -14 31 -31s-14 -31 -31 -31s-31 14 -31 31zM62 341c0 17 14 31 31 31s31 -14 31 -31s-14 -31 -31 -31s-31 14 -31 31zM62 403c0 17 14 31 31 31s31 -14 31 -31s-14 -31 -31 -31s-31 14 -31 31zM62 465
c0 17 14 31 31 31s31 -14 31 -31s-14 -31 -31 -31s-31 14 -31 31zM0 527c0 17 14 31 31 31s31 -14 31 -31s-14 -31 -31 -31s-31 14 -31 31zM0 589c0 17 14 31 31 31s31 -14 31 -31s-14 -31 -31 -31s-31 14 -31 31z" />
    <glyph glyph-name="bracketright" unicode="]" horiz-adv-x="204" 
d="M102 31c0 17 14 31 31 31s31 -14 31 -31s-14 -31 -31 -31s-31 14 -31 31zM102 155c0 17 14 31 31 31s31 -14 31 -31s-14 -31 -31 -31s-31 14 -31 31zM102 217c0 17 14 31 31 31s31 -14 31 -31s-14 -31 -31 -31s-31 14 -31 31zM102 279c0 17 14 31 31 31s31 -14 31 -31
s-14 -31 -31 -31s-31 14 -31 31zM102 341c0 17 14 31 31 31s31 -14 31 -31s-14 -31 -31 -31s-31 14 -31 31zM102 403c0 17 14 31 31 31s31 -14 31 -31s-14 -31 -31 -31s-31 14 -31 31zM102 465c0 17 14 31 31 31s31 -14 31 -31s-14 -31 -31 -31s-31 14 -31 31zM102 527
c0 17 14 31 31 31s31 -14 31 -31s-14 -31 -31 -31s-31 14 -31 31zM102 589c0 17 14 31 31 31s31 -14 31 -31s-14 -31 -31 -31s-31 14 -31 31zM102 93c0 17 14 31 31 31s31 -14 31 -31s-14 -31 -31 -31s-31 14 -31 31zM40 31c0 17 14 31 31 31s31 -14 31 -31s-14 -31 -31 -31
s-31 14 -31 31zM40 589c0 17 14 31 31 31s31 -14 31 -31s-14 -31 -31 -31s-31 14 -31 31z" />
    <glyph glyph-name="asciicircum" unicode="^" horiz-adv-x="266" 
d="M102 527c0 -17 -14 -31 -31 -31s-31 14 -31 31s14 31 31 31s31 -14 31 -31zM164 527c0 17 14 31 31 31s31 -14 31 -31s-14 -31 -31 -31s-31 14 -31 31zM102 589c0 17 14 31 31 31s31 -14 31 -31s-14 -31 -31 -31s-31 14 -31 31z" />
    <glyph glyph-name="underscore" unicode="_" horiz-adv-x="248" 
d="M124 -31c0 -17 -14 -31 -31 -31s-31 14 -31 31s14 31 31 31s31 -14 31 -31zM186 -31c0 -17 -14 -31 -31 -31s-31 14 -31 31s14 31 31 31s31 -14 31 -31zM248 -31c0 -17 -14 -31 -31 -31s-31 14 -31 31s14 31 31 31s31 -14 31 -31zM62 -31c0 -17 -14 -31 -31 -31
s-31 14 -31 31s14 31 31 31s31 -14 31 -31z" />
    <glyph glyph-name="grave" unicode="`" horiz-adv-x="175" 
d="M62 502c0 17 14 31 31 31s31 -14 31 -31s-14 -31 -31 -31s-31 14 -31 31zM20 579c0 22 19 41 42 41s42 -19 42 -41c0 -23 -19 -42 -42 -42s-42 19 -42 42zM97 448c0 10 9 18 19 18s19 -8 19 -18c0 -11 -9 -19 -19 -19s-19 8 -19 19z" />
    <glyph glyph-name="a" unicode="a" 
d="M112 155c0 -17 -14 -31 -31 -31s-31 14 -31 31s14 31 31 31s31 -14 31 -31zM112 217c0 -17 -14 -31 -31 -31s-31 14 -31 31s14 31 31 31s31 -14 31 -31zM112 279c0 -17 -14 -31 -31 -31s-31 14 -31 31s14 31 31 31s31 -14 31 -31zM112 341c0 -17 -14 -31 -31 -31
s-31 14 -31 31s14 31 31 31s31 -14 31 -31zM112 93c0 -17 -14 -31 -31 -31s-31 14 -31 31s14 31 31 31s31 -14 31 -31zM174 31c0 -17 -14 -31 -31 -31s-31 14 -31 31s14 31 31 31s31 -14 31 -31zM236 31c0 -17 -14 -31 -31 -31s-31 14 -31 31s14 31 31 31s31 -14 31 -31z
M298 31c0 -17 -14 -31 -31 -31s-31 14 -31 31s14 31 31 31s31 -14 31 -31zM360 93c0 -17 -14 -31 -31 -31s-31 14 -31 31s14 31 31 31s31 -14 31 -31zM422 31c0 -17 -14 -31 -31 -31s-31 14 -31 31s14 31 31 31s31 -14 31 -31zM422 93c0 -17 -14 -31 -31 -31s-31 14 -31 31
s14 31 31 31s31 -14 31 -31zM174 403c0 -17 -14 -31 -31 -31s-31 14 -31 31s14 31 31 31s31 -14 31 -31zM236 403c0 -17 -14 -31 -31 -31s-31 14 -31 31s14 31 31 31s31 -14 31 -31zM298 403c0 -17 -14 -31 -31 -31s-31 14 -31 31s14 31 31 31s31 -14 31 -31zM360 403
c0 -17 -14 -31 -31 -31s-31 14 -31 31s14 31 31 31s31 -14 31 -31zM422 155c0 -17 -14 -31 -31 -31s-31 14 -31 31s14 31 31 31s31 -14 31 -31zM422 217c0 -17 -14 -31 -31 -31s-31 14 -31 31s14 31 31 31s31 -14 31 -31zM422 279c0 -17 -14 -31 -31 -31s-31 14 -31 31
s14 31 31 31s31 -14 31 -31zM422 341c0 -17 -14 -31 -31 -31s-31 14 -31 31s14 31 31 31s31 -14 31 -31z" />
    <glyph glyph-name="b" unicode="b" 
d="M112 155c0 -17 -14 -31 -31 -31s-31 14 -31 31s14 31 31 31s31 -14 31 -31zM112 217c0 -17 -14 -31 -31 -31s-31 14 -31 31s14 31 31 31s31 -14 31 -31zM112 279c0 -17 -14 -31 -31 -31s-31 14 -31 31s14 31 31 31s31 -14 31 -31zM112 341c0 -17 -14 -31 -31 -31
s-31 14 -31 31s14 31 31 31s31 -14 31 -31zM112 403c0 -17 -14 -31 -31 -31s-31 14 -31 31s14 31 31 31s31 -14 31 -31zM112 465c0 -17 -14 -31 -31 -31s-31 14 -31 31s14 31 31 31s31 -14 31 -31zM112 527c0 -17 -14 -31 -31 -31s-31 14 -31 31s14 31 31 31s31 -14 31 -31z
M112 589c0 -17 -14 -31 -31 -31s-31 14 -31 31s14 31 31 31s31 -14 31 -31zM112 93c0 -17 -14 -31 -31 -31s-31 14 -31 31s14 31 31 31s31 -14 31 -31zM174 31c0 -17 -14 -31 -31 -31s-31 14 -31 31s14 31 31 31s31 -14 31 -31zM236 31c0 -17 -14 -31 -31 -31s-31 14 -31 31
s14 31 31 31s31 -14 31 -31zM298 31c0 -17 -14 -31 -31 -31s-31 14 -31 31s14 31 31 31s31 -14 31 -31zM360 31c0 -17 -14 -31 -31 -31s-31 14 -31 31s14 31 31 31s31 -14 31 -31zM422 93c0 -17 -14 -31 -31 -31s-31 14 -31 31s14 31 31 31s31 -14 31 -31zM174 341
c0 -17 -14 -31 -31 -31s-31 14 -31 31s14 31 31 31s31 -14 31 -31zM236 403c0 -17 -14 -31 -31 -31s-31 14 -31 31s14 31 31 31s31 -14 31 -31zM298 403c0 -17 -14 -31 -31 -31s-31 14 -31 31s14 31 31 31s31 -14 31 -31zM360 403c0 -17 -14 -31 -31 -31s-31 14 -31 31
s14 31 31 31s31 -14 31 -31zM422 155c0 -17 -14 -31 -31 -31s-31 14 -31 31s14 31 31 31s31 -14 31 -31zM422 217c0 -17 -14 -31 -31 -31s-31 14 -31 31s14 31 31 31s31 -14 31 -31zM422 279c0 -17 -14 -31 -31 -31s-31 14 -31 31s14 31 31 31s31 -14 31 -31zM422 341
c0 -17 -14 -31 -31 -31s-31 14 -31 31s14 31 31 31s31 -14 31 -31z" />
    <glyph glyph-name="c" unicode="c" horiz-adv-x="442" 
d="M112 155c0 -17 -14 -31 -31 -31s-31 14 -31 31s14 31 31 31s31 -14 31 -31zM112 217c0 -17 -14 -31 -31 -31s-31 14 -31 31s14 31 31 31s31 -14 31 -31zM112 279c0 -17 -14 -31 -31 -31s-31 14 -31 31s14 31 31 31s31 -14 31 -31zM112 341c0 -17 -14 -31 -31 -31
s-31 14 -31 31s14 31 31 31s31 -14 31 -31zM112 93c0 -17 -14 -31 -31 -31s-31 14 -31 31s14 31 31 31s31 -14 31 -31zM174 31c0 -17 -14 -31 -31 -31s-31 14 -31 31s14 31 31 31s31 -14 31 -31zM236 31c0 -17 -14 -31 -31 -31s-31 14 -31 31s14 31 31 31s31 -14 31 -31z
M298 31c0 -17 -14 -31 -31 -31s-31 14 -31 31s14 31 31 31s31 -14 31 -31zM422 31c0 -17 -14 -31 -31 -31s-31 14 -31 31s14 31 31 31s31 -14 31 -31zM174 403c0 -17 -14 -31 -31 -31s-31 14 -31 31s14 31 31 31s31 -14 31 -31zM236 403c0 -17 -14 -31 -31 -31
s-31 14 -31 31s14 31 31 31s31 -14 31 -31zM298 403c0 -17 -14 -31 -31 -31s-31 14 -31 31s14 31 31 31s31 -14 31 -31zM360 403c0 -17 -14 -31 -31 -31s-31 14 -31 31s14 31 31 31s31 -14 31 -31zM422 341c0 -17 -14 -31 -31 -31s-31 14 -31 31s14 31 31 31s31 -14 31 -31z
M360 31c0 -17 -14 -31 -31 -31s-31 14 -31 31s14 31 31 31s31 -14 31 -31z" />
    <glyph glyph-name="d" unicode="d" 
d="M360 155c0 17 14 31 31 31s31 -14 31 -31s-14 -31 -31 -31s-31 14 -31 31zM360 217c0 17 14 31 31 31s31 -14 31 -31s-14 -31 -31 -31s-31 14 -31 31zM360 279c0 17 14 31 31 31s31 -14 31 -31s-14 -31 -31 -31s-31 14 -31 31zM360 341c0 17 14 31 31 31s31 -14 31 -31
s-14 -31 -31 -31s-31 14 -31 31zM360 403c0 17 14 31 31 31s31 -14 31 -31s-14 -31 -31 -31s-31 14 -31 31zM360 465c0 17 14 31 31 31s31 -14 31 -31s-14 -31 -31 -31s-31 14 -31 31zM360 527c0 17 14 31 31 31s31 -14 31 -31s-14 -31 -31 -31s-31 14 -31 31zM360 589
c0 17 14 31 31 31s31 -14 31 -31s-14 -31 -31 -31s-31 14 -31 31zM360 93c0 17 14 31 31 31s31 -14 31 -31s-14 -31 -31 -31s-31 14 -31 31zM298 31c0 17 14 31 31 31s31 -14 31 -31s-14 -31 -31 -31s-31 14 -31 31zM236 31c0 17 14 31 31 31s31 -14 31 -31s-14 -31 -31 -31
s-31 14 -31 31zM174 31c0 17 14 31 31 31s31 -14 31 -31s-14 -31 -31 -31s-31 14 -31 31zM112 31c0 17 14 31 31 31s31 -14 31 -31s-14 -31 -31 -31s-31 14 -31 31zM50 93c0 17 14 31 31 31s31 -14 31 -31s-14 -31 -31 -31s-31 14 -31 31zM298 341c0 17 14 31 31 31
s31 -14 31 -31s-14 -31 -31 -31s-31 14 -31 31zM236 403c0 17 14 31 31 31s31 -14 31 -31s-14 -31 -31 -31s-31 14 -31 31zM174 403c0 17 14 31 31 31s31 -14 31 -31s-14 -31 -31 -31s-31 14 -31 31zM112 403c0 17 14 31 31 31s31 -14 31 -31s-14 -31 -31 -31s-31 14 -31 31
zM50 155c0 17 14 31 31 31s31 -14 31 -31s-14 -31 -31 -31s-31 14 -31 31zM50 217c0 17 14 31 31 31s31 -14 31 -31s-14 -31 -31 -31s-31 14 -31 31zM50 279c0 17 14 31 31 31s31 -14 31 -31s-14 -31 -31 -31s-31 14 -31 31zM50 341c0 17 14 31 31 31s31 -14 31 -31
s-14 -31 -31 -31s-31 14 -31 31z" />
    <glyph glyph-name="e" unicode="e" horiz-adv-x="462" 
d="M112 155c0 -17 -14 -31 -31 -31s-31 14 -31 31s14 31 31 31s31 -14 31 -31zM112 217c0 -17 -14 -31 -31 -31s-31 14 -31 31s14 31 31 31s31 -14 31 -31zM112 279c0 -17 -14 -31 -31 -31s-31 14 -31 31s14 31 31 31s31 -14 31 -31zM112 341c0 -17 -14 -31 -31 -31
s-31 14 -31 31s14 31 31 31s31 -14 31 -31zM112 93c0 -17 -14 -31 -31 -31s-31 14 -31 31s14 31 31 31s31 -14 31 -31zM174 31c0 -17 -14 -31 -31 -31s-31 14 -31 31s14 31 31 31s31 -14 31 -31zM236 31c0 -17 -14 -31 -31 -31s-31 14 -31 31s14 31 31 31s31 -14 31 -31z
M298 31c0 -17 -14 -31 -31 -31s-31 14 -31 31s14 31 31 31s31 -14 31 -31zM360 31c0 -17 -14 -31 -31 -31s-31 14 -31 31s14 31 31 31s31 -14 31 -31zM174 403c0 -17 -14 -31 -31 -31s-31 14 -31 31s14 31 31 31s31 -14 31 -31zM236 403c0 -17 -14 -31 -31 -31
s-31 14 -31 31s14 31 31 31s31 -14 31 -31zM298 403c0 -17 -14 -31 -31 -31s-31 14 -31 31s14 31 31 31s31 -14 31 -31zM360 403c0 -17 -14 -31 -31 -31s-31 14 -31 31s14 31 31 31s31 -14 31 -31zM422 217c0 -17 -14 -31 -31 -31s-31 14 -31 31s14 31 31 31s31 -14 31 -31z
M422 279c0 -17 -14 -31 -31 -31s-31 14 -31 31s14 31 31 31s31 -14 31 -31zM422 341c0 -17 -14 -31 -31 -31s-31 14 -31 31s14 31 31 31s31 -14 31 -31zM298 217c0 17 14 31 31 31s31 -14 31 -31s-14 -31 -31 -31s-31 14 -31 31zM236 217c0 17 14 31 31 31s31 -14 31 -31
s-14 -31 -31 -31s-31 14 -31 31zM174 217c0 17 14 31 31 31s31 -14 31 -31s-14 -31 -31 -31s-31 14 -31 31zM112 279c0 17 14 31 31 31s31 -14 31 -31s-14 -31 -31 -31s-31 14 -31 31z" />
    <glyph glyph-name="f" unicode="f" horiz-adv-x="350" 
d="M82 403c0 -17 -14 -31 -31 -31s-31 14 -31 31s14 31 31 31s31 -14 31 -31zM206 31c0 -17 -14 -31 -31 -31s-31 14 -31 31s14 31 31 31s31 -14 31 -31zM206 465c0 -17 -14 -31 -31 -31s-31 14 -31 31s14 31 31 31s31 -14 31 -31zM206 527c0 -17 -14 -31 -31 -31
s-31 14 -31 31s14 31 31 31s31 -14 31 -31zM206 93c0 -17 -14 -31 -31 -31s-31 14 -31 31s14 31 31 31s31 -14 31 -31zM268 589c0 -17 -14 -31 -31 -31s-31 14 -31 31s14 31 31 31s31 -14 31 -31zM330 589c0 -17 -14 -31 -31 -31s-31 14 -31 31s14 31 31 31s31 -14 31 -31z
M82 -93c0 -17 -14 -31 -31 -31s-31 14 -31 31s14 31 31 31s31 -14 31 -31zM144 -93c0 -17 -14 -31 -31 -31s-31 14 -31 31s14 31 31 31s31 -14 31 -31zM206 -31c0 -17 -14 -31 -31 -31s-31 14 -31 31s14 31 31 31s31 -14 31 -31zM144 403c0 -17 -14 -31 -31 -31
s-31 14 -31 31s14 31 31 31s31 -14 31 -31zM206 155c0 -17 -14 -31 -31 -31s-31 14 -31 31s14 31 31 31s31 -14 31 -31zM206 217c0 -17 -14 -31 -31 -31s-31 14 -31 31s14 31 31 31s31 -14 31 -31zM206 279c0 -17 -14 -31 -31 -31s-31 14 -31 31s14 31 31 31s31 -14 31 -31z
M206 341c0 -17 -14 -31 -31 -31s-31 14 -31 31s14 31 31 31s31 -14 31 -31zM206 403c0 -17 -14 -31 -31 -31s-31 14 -31 31s14 31 31 31s31 -14 31 -31zM268 403c0 -17 -14 -31 -31 -31s-31 14 -31 31s14 31 31 31s31 -14 31 -31zM330 403c0 -17 -14 -31 -31 -31
s-31 14 -31 31s14 31 31 31s31 -14 31 -31z" />
    <glyph glyph-name="g" unicode="g" horiz-adv-x="452" 
d="M102 -31c0 -17 -14 -31 -31 -31s-31 14 -31 31s14 31 31 31s31 -14 31 -31zM102 93c0 -17 -14 -31 -31 -31s-31 14 -31 31s14 31 31 31s31 -14 31 -31zM102 217c0 -17 -14 -31 -31 -31s-31 14 -31 31s14 31 31 31s31 -14 31 -31zM102 279c0 -17 -14 -31 -31 -31
s-31 14 -31 31s14 31 31 31s31 -14 31 -31zM102 341c0 -17 -14 -31 -31 -31s-31 14 -31 31s14 31 31 31s31 -14 31 -31zM102 -93c0 -17 -14 -31 -31 -31s-31 14 -31 31s14 31 31 31s31 -14 31 -31zM164 -155c0 -17 -14 -31 -31 -31s-31 14 -31 31s14 31 31 31s31 -14 31 -31
zM164 403c0 -17 -14 -31 -31 -31s-31 14 -31 31s14 31 31 31s31 -14 31 -31zM226 -155c0 -17 -14 -31 -31 -31s-31 14 -31 31s14 31 31 31s31 -14 31 -31zM226 403c0 -17 -14 -31 -31 -31s-31 14 -31 31s14 31 31 31s31 -14 31 -31zM288 -155c0 -17 -14 -31 -31 -31
s-31 14 -31 31s14 31 31 31s31 -14 31 -31zM288 403c0 -17 -14 -31 -31 -31s-31 14 -31 31s14 31 31 31s31 -14 31 -31zM350 -155c0 -17 -14 -31 -31 -31s-31 14 -31 31s14 31 31 31s31 -14 31 -31zM350 341c0 -17 -14 -31 -31 -31s-31 14 -31 31s14 31 31 31s31 -14 31 -31
zM412 279c0 -17 -14 -31 -31 -31s-31 14 -31 31s14 31 31 31s31 -14 31 -31zM412 403c0 -17 -14 -31 -31 -31s-31 14 -31 31s14 31 31 31s31 -14 31 -31zM412 -93c0 -17 -14 -31 -31 -31s-31 14 -31 31s14 31 31 31s31 -14 31 -31zM164 31c0 -17 -14 -31 -31 -31
s-31 14 -31 31s14 31 31 31s31 -14 31 -31zM164 155c0 -17 -14 -31 -31 -31s-31 14 -31 31s14 31 31 31s31 -14 31 -31zM226 31c0 -17 -14 -31 -31 -31s-31 14 -31 31s14 31 31 31s31 -14 31 -31zM226 155c0 -17 -14 -31 -31 -31s-31 14 -31 31s14 31 31 31s31 -14 31 -31z
M288 31c0 -17 -14 -31 -31 -31s-31 14 -31 31s14 31 31 31s31 -14 31 -31zM288 155c0 -17 -14 -31 -31 -31s-31 14 -31 31s14 31 31 31s31 -14 31 -31zM350 31c0 -17 -14 -31 -31 -31s-31 14 -31 31s14 31 31 31s31 -14 31 -31zM350 155c0 -17 -14 -31 -31 -31
s-31 14 -31 31s14 31 31 31s31 -14 31 -31zM412 -31c0 -17 -14 -31 -31 -31s-31 14 -31 31s14 31 31 31s31 -14 31 -31zM412 217c0 -17 -14 -31 -31 -31s-31 14 -31 31s14 31 31 31s31 -14 31 -31z" />
    <glyph glyph-name="h" unicode="h" 
d="M112 155c0 -17 -14 -31 -31 -31s-31 14 -31 31s14 31 31 31s31 -14 31 -31zM112 217c0 -17 -14 -31 -31 -31s-31 14 -31 31s14 31 31 31s31 -14 31 -31zM112 279c0 -17 -14 -31 -31 -31s-31 14 -31 31s14 31 31 31s31 -14 31 -31zM112 341c0 -17 -14 -31 -31 -31
s-31 14 -31 31s14 31 31 31s31 -14 31 -31zM112 403c0 -17 -14 -31 -31 -31s-31 14 -31 31s14 31 31 31s31 -14 31 -31zM112 465c0 -17 -14 -31 -31 -31s-31 14 -31 31s14 31 31 31s31 -14 31 -31zM112 527c0 -17 -14 -31 -31 -31s-31 14 -31 31s14 31 31 31s31 -14 31 -31z
M112 589c0 -17 -14 -31 -31 -31s-31 14 -31 31s14 31 31 31s31 -14 31 -31zM112 93c0 -17 -14 -31 -31 -31s-31 14 -31 31s14 31 31 31s31 -14 31 -31zM422 93c0 -17 -14 -31 -31 -31s-31 14 -31 31s14 31 31 31s31 -14 31 -31zM174 341c0 -17 -14 -31 -31 -31
s-31 14 -31 31s14 31 31 31s31 -14 31 -31zM236 403c0 -17 -14 -31 -31 -31s-31 14 -31 31s14 31 31 31s31 -14 31 -31zM298 403c0 -17 -14 -31 -31 -31s-31 14 -31 31s14 31 31 31s31 -14 31 -31zM360 403c0 -17 -14 -31 -31 -31s-31 14 -31 31s14 31 31 31s31 -14 31 -31z
M422 155c0 -17 -14 -31 -31 -31s-31 14 -31 31s14 31 31 31s31 -14 31 -31zM422 217c0 -17 -14 -31 -31 -31s-31 14 -31 31s14 31 31 31s31 -14 31 -31zM422 279c0 -17 -14 -31 -31 -31s-31 14 -31 31s14 31 31 31s31 -14 31 -31zM422 341c0 -17 -14 -31 -31 -31
s-31 14 -31 31s14 31 31 31s31 -14 31 -31zM112 31c0 -17 -14 -31 -31 -31s-31 14 -31 31s14 31 31 31s31 -14 31 -31zM422 31c0 -17 -14 -31 -31 -31s-31 14 -31 31s14 31 31 31s31 -14 31 -31z" />
    <glyph glyph-name="i" unicode="i" horiz-adv-x="184" 
d="M123 155c0 -17 -14 -31 -31 -31s-31 14 -31 31s14 31 31 31s31 -14 31 -31zM123 217c0 -17 -14 -31 -31 -31s-31 14 -31 31s14 31 31 31s31 -14 31 -31zM123 279c0 -17 -14 -31 -31 -31s-31 14 -31 31s14 31 31 31s31 -14 31 -31zM123 341c0 -17 -14 -31 -31 -31
s-31 14 -31 31s14 31 31 31s31 -14 31 -31zM123 403c0 -17 -14 -31 -31 -31s-31 14 -31 31s14 31 31 31s31 -14 31 -31zM134 552c0 -23 -19 -42 -42 -42s-42 19 -42 42c0 22 19 41 42 41s42 -19 42 -41zM123 93c0 -17 -14 -31 -31 -31s-31 14 -31 31s14 31 31 31
s31 -14 31 -31zM123 31c0 -17 -14 -31 -31 -31s-31 14 -31 31s14 31 31 31s31 -14 31 -31z" />
    <glyph glyph-name="j" unicode="j" horiz-adv-x="195" 
d="M134 155c0 -17 -14 -31 -31 -31s-31 14 -31 31s14 31 31 31s31 -14 31 -31zM134 217c0 -17 -14 -31 -31 -31s-31 14 -31 31s14 31 31 31s31 -14 31 -31zM134 279c0 -17 -14 -31 -31 -31s-31 14 -31 31s14 31 31 31s31 -14 31 -31zM134 341c0 -17 -14 -31 -31 -31
s-31 14 -31 31s14 31 31 31s31 -14 31 -31zM134 403c0 -17 -14 -31 -31 -31s-31 14 -31 31s14 31 31 31s31 -14 31 -31zM145 552c0 -23 -19 -42 -42 -42s-42 19 -42 42c0 22 19 41 42 41s42 -19 42 -41zM134 93c0 -17 -14 -31 -31 -31s-31 14 -31 31s14 31 31 31
s31 -14 31 -31zM134 31c0 -17 -14 -31 -31 -31s-31 14 -31 31s14 31 31 31s31 -14 31 -31zM134 -31c0 -17 -14 -31 -31 -31s-31 14 -31 31s14 31 31 31s31 -14 31 -31zM72 -93c0 -17 -14 -31 -31 -31s-31 14 -31 31s14 31 31 31s31 -14 31 -31z" />
    <glyph glyph-name="k" unicode="k" horiz-adv-x="442" 
d="M112 31c0 -17 -14 -31 -31 -31s-31 14 -31 31s14 31 31 31s31 -14 31 -31zM112 155c0 -17 -14 -31 -31 -31s-31 14 -31 31s14 31 31 31s31 -14 31 -31zM112 217c0 -17 -14 -31 -31 -31s-31 14 -31 31s14 31 31 31s31 -14 31 -31zM112 279c0 -17 -14 -31 -31 -31
s-31 14 -31 31s14 31 31 31s31 -14 31 -31zM112 341c0 -17 -14 -31 -31 -31s-31 14 -31 31s14 31 31 31s31 -14 31 -31zM112 403c0 -17 -14 -31 -31 -31s-31 14 -31 31s14 31 31 31s31 -14 31 -31zM112 465c0 -17 -14 -31 -31 -31s-31 14 -31 31s14 31 31 31s31 -14 31 -31z
M112 527c0 -17 -14 -31 -31 -31s-31 14 -31 31s14 31 31 31s31 -14 31 -31zM112 589c0 -17 -14 -31 -31 -31s-31 14 -31 31s14 31 31 31s31 -14 31 -31zM112 93c0 -17 -14 -31 -31 -31s-31 14 -31 31s14 31 31 31s31 -14 31 -31zM360 93c0 -17 -14 -31 -31 -31
s-31 14 -31 31s14 31 31 31s31 -14 31 -31zM422 31c0 -17 -14 -31 -31 -31s-31 14 -31 31s14 31 31 31s31 -14 31 -31zM174 155c0 -17 -14 -31 -31 -31s-31 14 -31 31s14 31 31 31s31 -14 31 -31zM236 217c0 -17 -14 -31 -31 -31s-31 14 -31 31s14 31 31 31s31 -14 31 -31z
M298 155c0 -17 -14 -31 -31 -31s-31 14 -31 31s14 31 31 31s31 -14 31 -31zM298 279c0 -17 -14 -31 -31 -31s-31 14 -31 31s14 31 31 31s31 -14 31 -31zM360 341c0 -17 -14 -31 -31 -31s-31 14 -31 31s14 31 31 31s31 -14 31 -31zM422 403c0 -17 -14 -31 -31 -31
s-31 14 -31 31s14 31 31 31s31 -14 31 -31z" />
    <glyph glyph-name="l" unicode="l" horiz-adv-x="162" 
d="M112 31c0 -17 -14 -31 -31 -31s-31 14 -31 31s14 31 31 31s31 -14 31 -31zM112 465c0 -17 -14 -31 -31 -31s-31 14 -31 31s14 31 31 31s31 -14 31 -31zM112 527c0 -17 -14 -31 -31 -31s-31 14 -31 31s14 31 31 31s31 -14 31 -31zM112 589c0 -17 -14 -31 -31 -31
s-31 14 -31 31s14 31 31 31s31 -14 31 -31zM112 93c0 -17 -14 -31 -31 -31s-31 14 -31 31s14 31 31 31s31 -14 31 -31zM112 155c0 -17 -14 -31 -31 -31s-31 14 -31 31s14 31 31 31s31 -14 31 -31zM112 217c0 -17 -14 -31 -31 -31s-31 14 -31 31s14 31 31 31s31 -14 31 -31z
M112 279c0 -17 -14 -31 -31 -31s-31 14 -31 31s14 31 31 31s31 -14 31 -31zM112 341c0 -17 -14 -31 -31 -31s-31 14 -31 31s14 31 31 31s31 -14 31 -31zM112 403c0 -17 -14 -31 -31 -31s-31 14 -31 31s14 31 31 31s31 -14 31 -31z" />
    <glyph glyph-name="m" unicode="m" horiz-adv-x="658" 
d="M112 155c0 -17 -14 -31 -31 -31s-31 14 -31 31s14 31 31 31s31 -14 31 -31zM112 217c0 -17 -14 -31 -31 -31s-31 14 -31 31s14 31 31 31s31 -14 31 -31zM112 279c0 -17 -14 -31 -31 -31s-31 14 -31 31s14 31 31 31s31 -14 31 -31zM112 341c0 -17 -14 -31 -31 -31
s-31 14 -31 31s14 31 31 31s31 -14 31 -31zM112 403c0 -17 -14 -31 -31 -31s-31 14 -31 31s14 31 31 31s31 -14 31 -31zM112 93c0 -17 -14 -31 -31 -31s-31 14 -31 31s14 31 31 31s31 -14 31 -31zM360 93c0 -17 -14 -31 -31 -31s-31 14 -31 31s14 31 31 31s31 -14 31 -31z
M174 341c0 -17 -14 -31 -31 -31s-31 14 -31 31s14 31 31 31s31 -14 31 -31zM236 403c0 -17 -14 -31 -31 -31s-31 14 -31 31s14 31 31 31s31 -14 31 -31zM298 403c0 -17 -14 -31 -31 -31s-31 14 -31 31s14 31 31 31s31 -14 31 -31zM360 155c0 -17 -14 -31 -31 -31
s-31 14 -31 31s14 31 31 31s31 -14 31 -31zM360 217c0 -17 -14 -31 -31 -31s-31 14 -31 31s14 31 31 31s31 -14 31 -31zM360 279c0 -17 -14 -31 -31 -31s-31 14 -31 31s14 31 31 31s31 -14 31 -31zM360 341c0 -17 -14 -31 -31 -31s-31 14 -31 31s14 31 31 31s31 -14 31 -31z
M112 31c0 -17 -14 -31 -31 -31s-31 14 -31 31s14 31 31 31s31 -14 31 -31zM360 31c0 -17 -14 -31 -31 -31s-31 14 -31 31s14 31 31 31s31 -14 31 -31zM608 93c0 -17 -14 -31 -31 -31s-31 14 -31 31s14 31 31 31s31 -14 31 -31zM422 341c0 -17 -14 -31 -31 -31s-31 14 -31 31
s14 31 31 31s31 -14 31 -31zM484 403c0 -17 -14 -31 -31 -31s-31 14 -31 31s14 31 31 31s31 -14 31 -31zM546 403c0 -17 -14 -31 -31 -31s-31 14 -31 31s14 31 31 31s31 -14 31 -31zM608 155c0 -17 -14 -31 -31 -31s-31 14 -31 31s14 31 31 31s31 -14 31 -31zM608 217
c0 -17 -14 -31 -31 -31s-31 14 -31 31s14 31 31 31s31 -14 31 -31zM608 279c0 -17 -14 -31 -31 -31s-31 14 -31 31s14 31 31 31s31 -14 31 -31zM608 341c0 -17 -14 -31 -31 -31s-31 14 -31 31s14 31 31 31s31 -14 31 -31zM608 31c0 -17 -14 -31 -31 -31s-31 14 -31 31
s14 31 31 31s31 -14 31 -31z" />
    <glyph glyph-name="n" unicode="n" 
d="M112 155c0 -17 -14 -31 -31 -31s-31 14 -31 31s14 31 31 31s31 -14 31 -31zM112 217c0 -17 -14 -31 -31 -31s-31 14 -31 31s14 31 31 31s31 -14 31 -31zM112 279c0 -17 -14 -31 -31 -31s-31 14 -31 31s14 31 31 31s31 -14 31 -31zM112 341c0 -17 -14 -31 -31 -31
s-31 14 -31 31s14 31 31 31s31 -14 31 -31zM112 403c0 -17 -14 -31 -31 -31s-31 14 -31 31s14 31 31 31s31 -14 31 -31zM112 93c0 -17 -14 -31 -31 -31s-31 14 -31 31s14 31 31 31s31 -14 31 -31zM422 93c0 -17 -14 -31 -31 -31s-31 14 -31 31s14 31 31 31s31 -14 31 -31z
M174 341c0 -17 -14 -31 -31 -31s-31 14 -31 31s14 31 31 31s31 -14 31 -31zM236 403c0 -17 -14 -31 -31 -31s-31 14 -31 31s14 31 31 31s31 -14 31 -31zM298 403c0 -17 -14 -31 -31 -31s-31 14 -31 31s14 31 31 31s31 -14 31 -31zM360 403c0 -17 -14 -31 -31 -31
s-31 14 -31 31s14 31 31 31s31 -14 31 -31zM422 155c0 -17 -14 -31 -31 -31s-31 14 -31 31s14 31 31 31s31 -14 31 -31zM422 217c0 -17 -14 -31 -31 -31s-31 14 -31 31s14 31 31 31s31 -14 31 -31zM422 279c0 -17 -14 -31 -31 -31s-31 14 -31 31s14 31 31 31s31 -14 31 -31z
M422 341c0 -17 -14 -31 -31 -31s-31 14 -31 31s14 31 31 31s31 -14 31 -31zM112 31c0 -17 -14 -31 -31 -31s-31 14 -31 31s14 31 31 31s31 -14 31 -31zM422 31c0 -17 -14 -31 -31 -31s-31 14 -31 31s14 31 31 31s31 -14 31 -31z" />
    <glyph glyph-name="o" unicode="o" 
d="M112 155c0 -17 -14 -31 -31 -31s-31 14 -31 31s14 31 31 31s31 -14 31 -31zM112 217c0 -17 -14 -31 -31 -31s-31 14 -31 31s14 31 31 31s31 -14 31 -31zM112 279c0 -17 -14 -31 -31 -31s-31 14 -31 31s14 31 31 31s31 -14 31 -31zM112 341c0 -17 -14 -31 -31 -31
s-31 14 -31 31s14 31 31 31s31 -14 31 -31zM112 93c0 -17 -14 -31 -31 -31s-31 14 -31 31s14 31 31 31s31 -14 31 -31zM174 31c0 -17 -14 -31 -31 -31s-31 14 -31 31s14 31 31 31s31 -14 31 -31zM236 31c0 -17 -14 -31 -31 -31s-31 14 -31 31s14 31 31 31s31 -14 31 -31z
M298 31c0 -17 -14 -31 -31 -31s-31 14 -31 31s14 31 31 31s31 -14 31 -31zM360 31c0 -17 -14 -31 -31 -31s-31 14 -31 31s14 31 31 31s31 -14 31 -31zM422 93c0 -17 -14 -31 -31 -31s-31 14 -31 31s14 31 31 31s31 -14 31 -31zM174 403c0 -17 -14 -31 -31 -31s-31 14 -31 31
s14 31 31 31s31 -14 31 -31zM236 403c0 -17 -14 -31 -31 -31s-31 14 -31 31s14 31 31 31s31 -14 31 -31zM298 403c0 -17 -14 -31 -31 -31s-31 14 -31 31s14 31 31 31s31 -14 31 -31zM360 403c0 -17 -14 -31 -31 -31s-31 14 -31 31s14 31 31 31s31 -14 31 -31zM422 155
c0 -17 -14 -31 -31 -31s-31 14 -31 31s14 31 31 31s31 -14 31 -31zM422 217c0 -17 -14 -31 -31 -31s-31 14 -31 31s14 31 31 31s31 -14 31 -31zM422 279c0 -17 -14 -31 -31 -31s-31 14 -31 31s14 31 31 31s31 -14 31 -31zM422 341c0 -17 -14 -31 -31 -31s-31 14 -31 31
s14 31 31 31s31 -14 31 -31z" />
    <glyph glyph-name="p" unicode="p" 
d="M112 279c0 -17 -14 -31 -31 -31s-31 14 -31 31s14 31 31 31s31 -14 31 -31zM112 217c0 -17 -14 -31 -31 -31s-31 14 -31 31s14 31 31 31s31 -14 31 -31zM112 155c0 -17 -14 -31 -31 -31s-31 14 -31 31s14 31 31 31s31 -14 31 -31zM112 93c0 -17 -14 -31 -31 -31
s-31 14 -31 31s14 31 31 31s31 -14 31 -31zM112 31c0 -17 -14 -31 -31 -31s-31 14 -31 31s14 31 31 31s31 -14 31 -31zM112 -31c0 -17 -14 -31 -31 -31s-31 14 -31 31s14 31 31 31s31 -14 31 -31zM112 -93c0 -17 -14 -31 -31 -31s-31 14 -31 31s14 31 31 31s31 -14 31 -31z
M112 -155c0 -17 -14 -31 -31 -31s-31 14 -31 31s14 31 31 31s31 -14 31 -31zM112 341c0 -17 -14 -31 -31 -31s-31 14 -31 31s14 31 31 31s31 -14 31 -31zM174 403c0 -17 -14 -31 -31 -31s-31 14 -31 31s14 31 31 31s31 -14 31 -31zM236 403c0 -17 -14 -31 -31 -31
s-31 14 -31 31s14 31 31 31s31 -14 31 -31zM298 403c0 -17 -14 -31 -31 -31s-31 14 -31 31s14 31 31 31s31 -14 31 -31zM360 403c0 -17 -14 -31 -31 -31s-31 14 -31 31s14 31 31 31s31 -14 31 -31zM422 341c0 -17 -14 -31 -31 -31s-31 14 -31 31s14 31 31 31s31 -14 31 -31z
M174 93c0 -17 -14 -31 -31 -31s-31 14 -31 31s14 31 31 31s31 -14 31 -31zM236 31c0 -17 -14 -31 -31 -31s-31 14 -31 31s14 31 31 31s31 -14 31 -31zM298 31c0 -17 -14 -31 -31 -31s-31 14 -31 31s14 31 31 31s31 -14 31 -31zM360 31c0 -17 -14 -31 -31 -31s-31 14 -31 31
s14 31 31 31s31 -14 31 -31zM422 279c0 -17 -14 -31 -31 -31s-31 14 -31 31s14 31 31 31s31 -14 31 -31zM422 217c0 -17 -14 -31 -31 -31s-31 14 -31 31s14 31 31 31s31 -14 31 -31zM422 155c0 -17 -14 -31 -31 -31s-31 14 -31 31s14 31 31 31s31 -14 31 -31zM422 93
c0 -17 -14 -31 -31 -31s-31 14 -31 31s14 31 31 31s31 -14 31 -31z" />
    <glyph glyph-name="q" unicode="q" 
d="M360 279c0 17 14 31 31 31s31 -14 31 -31s-14 -31 -31 -31s-31 14 -31 31zM360 217c0 17 14 31 31 31s31 -14 31 -31s-14 -31 -31 -31s-31 14 -31 31zM360 155c0 17 14 31 31 31s31 -14 31 -31s-14 -31 -31 -31s-31 14 -31 31zM360 93c0 17 14 31 31 31s31 -14 31 -31
s-14 -31 -31 -31s-31 14 -31 31zM360 31c0 17 14 31 31 31s31 -14 31 -31s-14 -31 -31 -31s-31 14 -31 31zM360 -31c0 17 14 31 31 31s31 -14 31 -31s-14 -31 -31 -31s-31 14 -31 31zM360 -93c0 17 14 31 31 31s31 -14 31 -31s-14 -31 -31 -31s-31 14 -31 31zM360 -155
c0 17 14 31 31 31s31 -14 31 -31s-14 -31 -31 -31s-31 14 -31 31zM360 341c0 17 14 31 31 31s31 -14 31 -31s-14 -31 -31 -31s-31 14 -31 31zM298 403c0 17 14 31 31 31s31 -14 31 -31s-14 -31 -31 -31s-31 14 -31 31zM236 403c0 17 14 31 31 31s31 -14 31 -31
s-14 -31 -31 -31s-31 14 -31 31zM174 403c0 17 14 31 31 31s31 -14 31 -31s-14 -31 -31 -31s-31 14 -31 31zM112 403c0 17 14 31 31 31s31 -14 31 -31s-14 -31 -31 -31s-31 14 -31 31zM50 341c0 17 14 31 31 31s31 -14 31 -31s-14 -31 -31 -31s-31 14 -31 31zM298 93
c0 17 14 31 31 31s31 -14 31 -31s-14 -31 -31 -31s-31 14 -31 31zM236 31c0 17 14 31 31 31s31 -14 31 -31s-14 -31 -31 -31s-31 14 -31 31zM174 31c0 17 14 31 31 31s31 -14 31 -31s-14 -31 -31 -31s-31 14 -31 31zM112 31c0 17 14 31 31 31s31 -14 31 -31s-14 -31 -31 -31
s-31 14 -31 31zM50 279c0 17 14 31 31 31s31 -14 31 -31s-14 -31 -31 -31s-31 14 -31 31zM50 217c0 17 14 31 31 31s31 -14 31 -31s-14 -31 -31 -31s-31 14 -31 31zM50 155c0 17 14 31 31 31s31 -14 31 -31s-14 -31 -31 -31s-31 14 -31 31zM50 93c0 17 14 31 31 31
s31 -14 31 -31s-14 -31 -31 -31s-31 14 -31 31z" />
    <glyph glyph-name="r" unicode="r" horiz-adv-x="370" 
d="M112 155c0 -17 -14 -31 -31 -31s-31 14 -31 31s14 31 31 31s31 -14 31 -31zM112 217c0 -17 -14 -31 -31 -31s-31 14 -31 31s14 31 31 31s31 -14 31 -31zM112 279c0 -17 -14 -31 -31 -31s-31 14 -31 31s14 31 31 31s31 -14 31 -31zM112 341c0 -17 -14 -31 -31 -31
s-31 14 -31 31s14 31 31 31s31 -14 31 -31zM112 403c0 -17 -14 -31 -31 -31s-31 14 -31 31s14 31 31 31s31 -14 31 -31zM112 93c0 -17 -14 -31 -31 -31s-31 14 -31 31s14 31 31 31s31 -14 31 -31zM174 341c0 -17 -14 -31 -31 -31s-31 14 -31 31s14 31 31 31s31 -14 31 -31z
M236 403c0 -17 -14 -31 -31 -31s-31 14 -31 31s14 31 31 31s31 -14 31 -31zM298 403c0 -17 -14 -31 -31 -31s-31 14 -31 31s14 31 31 31s31 -14 31 -31zM360 341c0 -17 -14 -31 -31 -31s-31 14 -31 31s14 31 31 31s31 -14 31 -31zM112 31c0 -17 -14 -31 -31 -31
s-31 14 -31 31s14 31 31 31s31 -14 31 -31z" />
    <glyph glyph-name="s" unicode="s" horiz-adv-x="452" 
d="M102 279c0 -17 -14 -31 -31 -31s-31 14 -31 31s14 31 31 31s31 -14 31 -31zM102 341c0 -17 -14 -31 -31 -31s-31 14 -31 31s14 31 31 31s31 -14 31 -31zM102 93c0 -17 -14 -31 -31 -31s-31 14 -31 31s14 31 31 31s31 -14 31 -31zM164 31c0 -17 -14 -31 -31 -31
s-31 14 -31 31s14 31 31 31s31 -14 31 -31zM226 31c0 -17 -14 -31 -31 -31s-31 14 -31 31s14 31 31 31s31 -14 31 -31zM288 31c0 -17 -14 -31 -31 -31s-31 14 -31 31s14 31 31 31s31 -14 31 -31zM350 31c0 -17 -14 -31 -31 -31s-31 14 -31 31s14 31 31 31s31 -14 31 -31z
M412 93c0 -17 -14 -31 -31 -31s-31 14 -31 31s14 31 31 31s31 -14 31 -31zM164 217c0 -17 -14 -31 -31 -31s-31 14 -31 31s14 31 31 31s31 -14 31 -31zM164 403c0 -17 -14 -31 -31 -31s-31 14 -31 31s14 31 31 31s31 -14 31 -31zM226 217c0 -17 -14 -31 -31 -31
s-31 14 -31 31s14 31 31 31s31 -14 31 -31zM226 403c0 -17 -14 -31 -31 -31s-31 14 -31 31s14 31 31 31s31 -14 31 -31zM288 217c0 -17 -14 -31 -31 -31s-31 14 -31 31s14 31 31 31s31 -14 31 -31zM288 403c0 -17 -14 -31 -31 -31s-31 14 -31 31s14 31 31 31s31 -14 31 -31z
M350 217c0 -17 -14 -31 -31 -31s-31 14 -31 31s14 31 31 31s31 -14 31 -31zM350 403c0 -17 -14 -31 -31 -31s-31 14 -31 31s14 31 31 31s31 -14 31 -31zM412 155c0 -17 -14 -31 -31 -31s-31 14 -31 31s14 31 31 31s31 -14 31 -31zM412 341c0 -17 -14 -31 -31 -31
s-31 14 -31 31s14 31 31 31s31 -14 31 -31z" />
    <glyph glyph-name="t" unicode="t" horiz-adv-x="402" 
d="M82 403c0 -17 -14 -31 -31 -31s-31 14 -31 31s14 31 31 31s31 -14 31 -31zM144 465c0 -17 -14 -31 -31 -31s-31 14 -31 31s14 31 31 31s31 -14 31 -31zM144 527c0 -17 -14 -31 -31 -31s-31 14 -31 31s14 31 31 31s31 -14 31 -31zM144 589c0 -17 -14 -31 -31 -31
s-31 14 -31 31s14 31 31 31s31 -14 31 -31zM144 93c0 -17 -14 -31 -31 -31s-31 14 -31 31s14 31 31 31s31 -14 31 -31zM206 31c0 -17 -14 -31 -31 -31s-31 14 -31 31s14 31 31 31s31 -14 31 -31zM268 31c0 -17 -14 -31 -31 -31s-31 14 -31 31s14 31 31 31s31 -14 31 -31z
M330 31c0 -17 -14 -31 -31 -31s-31 14 -31 31s14 31 31 31s31 -14 31 -31zM392 93c0 -17 -14 -31 -31 -31s-31 14 -31 31s14 31 31 31s31 -14 31 -31zM144 155c0 -17 -14 -31 -31 -31s-31 14 -31 31s14 31 31 31s31 -14 31 -31zM144 217c0 -17 -14 -31 -31 -31
s-31 14 -31 31s14 31 31 31s31 -14 31 -31zM144 279c0 -17 -14 -31 -31 -31s-31 14 -31 31s14 31 31 31s31 -14 31 -31zM144 341c0 -17 -14 -31 -31 -31s-31 14 -31 31s14 31 31 31s31 -14 31 -31zM144 403c0 -17 -14 -31 -31 -31s-31 14 -31 31s14 31 31 31s31 -14 31 -31z
M206 403c0 -17 -14 -31 -31 -31s-31 14 -31 31s14 31 31 31s31 -14 31 -31zM268 403c0 -17 -14 -31 -31 -31s-31 14 -31 31s14 31 31 31s31 -14 31 -31zM330 403c0 -17 -14 -31 -31 -31s-31 14 -31 31s14 31 31 31s31 -14 31 -31z" />
    <glyph glyph-name="u" unicode="u" 
d="M360 279c0 17 14 31 31 31s31 -14 31 -31s-14 -31 -31 -31s-31 14 -31 31zM360 217c0 17 14 31 31 31s31 -14 31 -31s-14 -31 -31 -31s-31 14 -31 31zM360 155c0 17 14 31 31 31s31 -14 31 -31s-14 -31 -31 -31s-31 14 -31 31zM360 93c0 17 14 31 31 31s31 -14 31 -31
s-14 -31 -31 -31s-31 14 -31 31zM360 31c0 17 14 31 31 31s31 -14 31 -31s-14 -31 -31 -31s-31 14 -31 31zM360 341c0 17 14 31 31 31s31 -14 31 -31s-14 -31 -31 -31s-31 14 -31 31zM50 341c0 17 14 31 31 31s31 -14 31 -31s-14 -31 -31 -31s-31 14 -31 31zM298 93
c0 17 14 31 31 31s31 -14 31 -31s-14 -31 -31 -31s-31 14 -31 31zM236 31c0 17 14 31 31 31s31 -14 31 -31s-14 -31 -31 -31s-31 14 -31 31zM174 31c0 17 14 31 31 31s31 -14 31 -31s-14 -31 -31 -31s-31 14 -31 31zM112 31c0 17 14 31 31 31s31 -14 31 -31s-14 -31 -31 -31
s-31 14 -31 31zM50 279c0 17 14 31 31 31s31 -14 31 -31s-14 -31 -31 -31s-31 14 -31 31zM50 217c0 17 14 31 31 31s31 -14 31 -31s-14 -31 -31 -31s-31 14 -31 31zM50 155c0 17 14 31 31 31s31 -14 31 -31s-14 -31 -31 -31s-31 14 -31 31zM50 93c0 17 14 31 31 31
s31 -14 31 -31s-14 -31 -31 -31s-31 14 -31 31zM360 403c0 17 14 31 31 31s31 -14 31 -31s-14 -31 -31 -31s-31 14 -31 31zM50 403c0 17 14 31 31 31s31 -14 31 -31s-14 -31 -31 -31s-31 14 -31 31z" />
    <glyph glyph-name="v" unicode="v" horiz-adv-x="390" 
d="M102 341c0 -17 -14 -31 -31 -31s-31 14 -31 31s14 31 31 31s31 -14 31 -31zM102 403c0 -17 -14 -31 -31 -31s-31 14 -31 31s14 31 31 31s31 -14 31 -31zM226 31c0 -17 -14 -31 -31 -31s-31 14 -31 31s14 31 31 31s31 -14 31 -31zM226 93c0 -17 -14 -31 -31 -31
s-31 14 -31 31s14 31 31 31s31 -14 31 -31zM164 155c0 -17 -14 -31 -31 -31s-31 14 -31 31s14 31 31 31s31 -14 31 -31zM164 217c0 -17 -14 -31 -31 -31s-31 14 -31 31s14 31 31 31s31 -14 31 -31zM164 279c0 -17 -14 -31 -31 -31s-31 14 -31 31s14 31 31 31s31 -14 31 -31z
M288 155c0 -17 -14 -31 -31 -31s-31 14 -31 31s14 31 31 31s31 -14 31 -31zM288 217c0 -17 -14 -31 -31 -31s-31 14 -31 31s14 31 31 31s31 -14 31 -31zM288 279c0 -17 -14 -31 -31 -31s-31 14 -31 31s14 31 31 31s31 -14 31 -31zM350 341c0 -17 -14 -31 -31 -31
s-31 14 -31 31s14 31 31 31s31 -14 31 -31zM350 403c0 -17 -14 -31 -31 -31s-31 14 -31 31s14 31 31 31s31 -14 31 -31z" />
    <glyph glyph-name="w" unicode="w" horiz-adv-x="658" 
d="M112 155c0 -17 -14 -31 -31 -31s-31 14 -31 31s14 31 31 31s31 -14 31 -31zM112 217c0 -17 -14 -31 -31 -31s-31 14 -31 31s14 31 31 31s31 -14 31 -31zM112 279c0 -17 -14 -31 -31 -31s-31 14 -31 31s14 31 31 31s31 -14 31 -31zM112 341c0 -17 -14 -31 -31 -31
s-31 14 -31 31s14 31 31 31s31 -14 31 -31zM112 403c0 -17 -14 -31 -31 -31s-31 14 -31 31s14 31 31 31s31 -14 31 -31zM112 93c0 -17 -14 -31 -31 -31s-31 14 -31 31s14 31 31 31s31 -14 31 -31zM174 31c0 -17 -14 -31 -31 -31s-31 14 -31 31s14 31 31 31s31 -14 31 -31z
M236 31c0 -17 -14 -31 -31 -31s-31 14 -31 31s14 31 31 31s31 -14 31 -31zM298 31c0 -17 -14 -31 -31 -31s-31 14 -31 31s14 31 31 31s31 -14 31 -31zM360 155c0 -17 -14 -31 -31 -31s-31 14 -31 31s14 31 31 31s31 -14 31 -31zM360 217c0 -17 -14 -31 -31 -31
s-31 14 -31 31s14 31 31 31s31 -14 31 -31zM360 279c0 -17 -14 -31 -31 -31s-31 14 -31 31s14 31 31 31s31 -14 31 -31zM360 341c0 -17 -14 -31 -31 -31s-31 14 -31 31s14 31 31 31s31 -14 31 -31zM360 403c0 -17 -14 -31 -31 -31s-31 14 -31 31s14 31 31 31s31 -14 31 -31z
M360 93c0 -17 -14 -31 -31 -31s-31 14 -31 31s14 31 31 31s31 -14 31 -31zM422 31c0 -17 -14 -31 -31 -31s-31 14 -31 31s14 31 31 31s31 -14 31 -31zM484 31c0 -17 -14 -31 -31 -31s-31 14 -31 31s14 31 31 31s31 -14 31 -31zM546 31c0 -17 -14 -31 -31 -31s-31 14 -31 31
s14 31 31 31s31 -14 31 -31zM608 93c0 -17 -14 -31 -31 -31s-31 14 -31 31s14 31 31 31s31 -14 31 -31zM608 155c0 -17 -14 -31 -31 -31s-31 14 -31 31s14 31 31 31s31 -14 31 -31zM608 217c0 -17 -14 -31 -31 -31s-31 14 -31 31s14 31 31 31s31 -14 31 -31zM608 279
c0 -17 -14 -31 -31 -31s-31 14 -31 31s14 31 31 31s31 -14 31 -31zM608 341c0 -17 -14 -31 -31 -31s-31 14 -31 31s14 31 31 31s31 -14 31 -31zM608 403c0 -17 -14 -31 -31 -31s-31 14 -31 31s14 31 31 31s31 -14 31 -31z" />
    <glyph glyph-name="x" unicode="x" horiz-adv-x="390" 
d="M102 31c0 -17 -14 -31 -31 -31s-31 14 -31 31s14 31 31 31s31 -14 31 -31zM102 341c0 -17 -14 -31 -31 -31s-31 14 -31 31s14 31 31 31s31 -14 31 -31zM102 403c0 -17 -14 -31 -31 -31s-31 14 -31 31s14 31 31 31s31 -14 31 -31zM102 93c0 -17 -14 -31 -31 -31
s-31 14 -31 31s14 31 31 31s31 -14 31 -31zM350 31c0 -17 -14 -31 -31 -31s-31 14 -31 31s14 31 31 31s31 -14 31 -31zM350 93c0 -17 -14 -31 -31 -31s-31 14 -31 31s14 31 31 31s31 -14 31 -31zM164 155c0 -17 -14 -31 -31 -31s-31 14 -31 31s14 31 31 31s31 -14 31 -31z
M164 279c0 -17 -14 -31 -31 -31s-31 14 -31 31s14 31 31 31s31 -14 31 -31zM226 217c0 -17 -14 -31 -31 -31s-31 14 -31 31s14 31 31 31s31 -14 31 -31zM288 155c0 -17 -14 -31 -31 -31s-31 14 -31 31s14 31 31 31s31 -14 31 -31zM288 279c0 -17 -14 -31 -31 -31
s-31 14 -31 31s14 31 31 31s31 -14 31 -31zM350 341c0 -17 -14 -31 -31 -31s-31 14 -31 31s14 31 31 31s31 -14 31 -31zM350 403c0 -17 -14 -31 -31 -31s-31 14 -31 31s14 31 31 31s31 -14 31 -31z" />
    <glyph glyph-name="y" unicode="y" 
d="M112 93c0 -17 -14 -31 -31 -31s-31 14 -31 31s14 31 31 31s31 -14 31 -31zM112 155c0 -17 -14 -31 -31 -31s-31 14 -31 31s14 31 31 31s31 -14 31 -31zM112 217c0 -17 -14 -31 -31 -31s-31 14 -31 31s14 31 31 31s31 -14 31 -31zM112 279c0 -17 -14 -31 -31 -31
s-31 14 -31 31s14 31 31 31s31 -14 31 -31zM112 341c0 -17 -14 -31 -31 -31s-31 14 -31 31s14 31 31 31s31 -14 31 -31zM112 403c0 -17 -14 -31 -31 -31s-31 14 -31 31s14 31 31 31s31 -14 31 -31zM112 -93c0 -17 -14 -31 -31 -31s-31 14 -31 31s14 31 31 31s31 -14 31 -31z
M174 -155c0 -17 -14 -31 -31 -31s-31 14 -31 31s14 31 31 31s31 -14 31 -31zM236 -155c0 -17 -14 -31 -31 -31s-31 14 -31 31s14 31 31 31s31 -14 31 -31zM298 -155c0 -17 -14 -31 -31 -31s-31 14 -31 31s14 31 31 31s31 -14 31 -31zM360 -155c0 -17 -14 -31 -31 -31
s-31 14 -31 31s14 31 31 31s31 -14 31 -31zM422 279c0 -17 -14 -31 -31 -31s-31 14 -31 31s14 31 31 31s31 -14 31 -31zM422 341c0 -17 -14 -31 -31 -31s-31 14 -31 31s14 31 31 31s31 -14 31 -31zM422 403c0 -17 -14 -31 -31 -31s-31 14 -31 31s14 31 31 31s31 -14 31 -31z
M422 -93c0 -17 -14 -31 -31 -31s-31 14 -31 31s14 31 31 31s31 -14 31 -31zM174 31c0 -17 -14 -31 -31 -31s-31 14 -31 31s14 31 31 31s31 -14 31 -31zM236 31c0 -17 -14 -31 -31 -31s-31 14 -31 31s14 31 31 31s31 -14 31 -31zM298 31c0 -17 -14 -31 -31 -31s-31 14 -31 31
s14 31 31 31s31 -14 31 -31zM360 93c0 -17 -14 -31 -31 -31s-31 14 -31 31s14 31 31 31s31 -14 31 -31zM422 -31c0 -17 -14 -31 -31 -31s-31 14 -31 31s14 31 31 31s31 -14 31 -31zM422 31c0 -17 -14 -31 -31 -31s-31 14 -31 31s14 31 31 31s31 -14 31 -31zM422 93
c0 -17 -14 -31 -31 -31s-31 14 -31 31s14 31 31 31s31 -14 31 -31zM422 155c0 -17 -14 -31 -31 -31s-31 14 -31 31s14 31 31 31s31 -14 31 -31zM422 217c0 -17 -14 -31 -31 -31s-31 14 -31 31s14 31 31 31s31 -14 31 -31z" />
    <glyph glyph-name="z" unicode="z" horiz-adv-x="452" 
d="M102 31c0 -17 -14 -31 -31 -31s-31 14 -31 31s14 31 31 31s31 -14 31 -31zM102 403c0 -17 -14 -31 -31 -31s-31 14 -31 31s14 31 31 31s31 -14 31 -31zM102 93c0 -17 -14 -31 -31 -31s-31 14 -31 31s14 31 31 31s31 -14 31 -31zM164 31c0 -17 -14 -31 -31 -31
s-31 14 -31 31s14 31 31 31s31 -14 31 -31zM226 31c0 -17 -14 -31 -31 -31s-31 14 -31 31s14 31 31 31s31 -14 31 -31zM288 31c0 -17 -14 -31 -31 -31s-31 14 -31 31s14 31 31 31s31 -14 31 -31zM350 31c0 -17 -14 -31 -31 -31s-31 14 -31 31s14 31 31 31s31 -14 31 -31z
M412 31c0 -17 -14 -31 -31 -31s-31 14 -31 31s14 31 31 31s31 -14 31 -31zM164 155c0 -17 -14 -31 -31 -31s-31 14 -31 31s14 31 31 31s31 -14 31 -31zM164 403c0 -17 -14 -31 -31 -31s-31 14 -31 31s14 31 31 31s31 -14 31 -31zM226 217c0 -17 -14 -31 -31 -31
s-31 14 -31 31s14 31 31 31s31 -14 31 -31zM226 403c0 -17 -14 -31 -31 -31s-31 14 -31 31s14 31 31 31s31 -14 31 -31zM288 217c0 -17 -14 -31 -31 -31s-31 14 -31 31s14 31 31 31s31 -14 31 -31zM288 403c0 -17 -14 -31 -31 -31s-31 14 -31 31s14 31 31 31s31 -14 31 -31z
M350 279c0 -17 -14 -31 -31 -31s-31 14 -31 31s14 31 31 31s31 -14 31 -31zM350 403c0 -17 -14 -31 -31 -31s-31 14 -31 31s14 31 31 31s31 -14 31 -31zM412 341c0 -17 -14 -31 -31 -31s-31 14 -31 31s14 31 31 31s31 -14 31 -31zM412 403c0 -17 -14 -31 -31 -31
s-31 14 -31 31s14 31 31 31s31 -14 31 -31z" />
    <glyph glyph-name="braceleft" unicode="{" horiz-adv-x="266" 
d="M164 31c0 -17 -14 -31 -31 -31s-31 14 -31 31s14 31 31 31s31 -14 31 -31zM164 155c0 -17 -14 -31 -31 -31s-31 14 -31 31s14 31 31 31s31 -14 31 -31zM164 217c0 -17 -14 -31 -31 -31s-31 14 -31 31s14 31 31 31s31 -14 31 -31zM164 341c0 -17 -14 -31 -31 -31
s-31 14 -31 31s14 31 31 31s31 -14 31 -31zM164 403c0 -17 -14 -31 -31 -31s-31 14 -31 31s14 31 31 31s31 -14 31 -31zM164 465c0 -17 -14 -31 -31 -31s-31 14 -31 31s14 31 31 31s31 -14 31 -31zM164 93c0 -17 -14 -31 -31 -31s-31 14 -31 31s14 31 31 31s31 -14 31 -31z
M226 -31c0 -17 -14 -31 -31 -31s-31 14 -31 31s14 31 31 31s31 -14 31 -31zM102 279c0 -17 -14 -31 -31 -31s-31 14 -31 31s14 31 31 31s31 -14 31 -31zM164 527c0 -17 -14 -31 -31 -31s-31 14 -31 31s14 31 31 31s31 -14 31 -31zM226 589c0 -17 -14 -31 -31 -31
s-31 14 -31 31s14 31 31 31s31 -14 31 -31z" />
    <glyph glyph-name="bar" unicode="|" horiz-adv-x="183" 
d="M123 31c0 -17 -14 -31 -31 -31s-31 14 -31 31s14 31 31 31s31 -14 31 -31zM123 465c0 -17 -14 -31 -31 -31s-31 14 -31 31s14 31 31 31s31 -14 31 -31zM123 527c0 -17 -14 -31 -31 -31s-31 14 -31 31s14 31 31 31s31 -14 31 -31zM123 589c0 -17 -14 -31 -31 -31
s-31 14 -31 31s14 31 31 31s31 -14 31 -31zM123 93c0 -17 -14 -31 -31 -31s-31 14 -31 31s14 31 31 31s31 -14 31 -31zM122 651c0 -17 -14 -31 -31 -31s-31 14 -31 31s14 31 31 31s31 -14 31 -31zM123 155c0 -17 -14 -31 -31 -31s-31 14 -31 31s14 31 31 31s31 -14 31 -31z
M123 217c0 -17 -14 -31 -31 -31s-31 14 -31 31s14 31 31 31s31 -14 31 -31zM123 279c0 -17 -14 -31 -31 -31s-31 14 -31 31s14 31 31 31s31 -14 31 -31zM123 341c0 -17 -14 -31 -31 -31s-31 14 -31 31s14 31 31 31s31 -14 31 -31zM123 403c0 -17 -14 -31 -31 -31
s-31 14 -31 31s14 31 31 31s31 -14 31 -31zM123 -31c0 -17 -14 -31 -31 -31s-31 14 -31 31s14 31 31 31s31 -14 31 -31z" />
    <glyph glyph-name="braceright" unicode="}" horiz-adv-x="266" 
d="M102 31c0 17 14 31 31 31s31 -14 31 -31s-14 -31 -31 -31s-31 14 -31 31zM102 155c0 17 14 31 31 31s31 -14 31 -31s-14 -31 -31 -31s-31 14 -31 31zM102 217c0 17 14 31 31 31s31 -14 31 -31s-14 -31 -31 -31s-31 14 -31 31zM102 341c0 17 14 31 31 31s31 -14 31 -31
s-14 -31 -31 -31s-31 14 -31 31zM102 403c0 17 14 31 31 31s31 -14 31 -31s-14 -31 -31 -31s-31 14 -31 31zM102 465c0 17 14 31 31 31s31 -14 31 -31s-14 -31 -31 -31s-31 14 -31 31zM102 93c0 17 14 31 31 31s31 -14 31 -31s-14 -31 -31 -31s-31 14 -31 31zM40 -31
c0 17 14 31 31 31s31 -14 31 -31s-14 -31 -31 -31s-31 14 -31 31zM164 279c0 17 14 31 31 31s31 -14 31 -31s-14 -31 -31 -31s-31 14 -31 31zM102 527c0 17 14 31 31 31s31 -14 31 -31s-14 -31 -31 -31s-31 14 -31 31zM40 589c0 17 14 31 31 31s31 -14 31 -31
s-14 -31 -31 -31s-31 14 -31 31z" />
    <glyph glyph-name="asciitilde" unicode="~" horiz-adv-x="452" 
d="M412 341c0 -17 -14 -31 -31 -31s-31 14 -31 31s14 31 31 31s31 -14 31 -31zM102 279c0 -17 -14 -31 -31 -31s-31 14 -31 31s14 31 31 31s31 -14 31 -31zM164 341c0 -17 -14 -31 -31 -31s-31 14 -31 31s14 31 31 31s31 -14 31 -31zM226 341c0 -17 -14 -31 -31 -31
s-31 14 -31 31s14 31 31 31s31 -14 31 -31zM288 279c0 -17 -14 -31 -31 -31s-31 14 -31 31s14 31 31 31s31 -14 31 -31zM350 279c0 -17 -14 -31 -31 -31s-31 14 -31 31s14 31 31 31s31 -14 31 -31z" />
    <glyph glyph-name="_0127" horiz-adv-x="554" 
d="M122 155c0 -17 -14 -31 -31 -31s-31 14 -31 31s14 31 31 31s31 -14 31 -31zM122 217c0 -17 -14 -31 -31 -31s-31 14 -31 31s14 31 31 31s31 -14 31 -31zM122 279c0 -17 -14 -31 -31 -31s-31 14 -31 31s14 31 31 31s31 -14 31 -31zM122 341c0 -17 -14 -31 -31 -31
s-31 14 -31 31s14 31 31 31s31 -14 31 -31zM122 403c0 -17 -14 -31 -31 -31s-31 14 -31 31s14 31 31 31s31 -14 31 -31zM122 465c0 -17 -14 -31 -31 -31s-31 14 -31 31s14 31 31 31s31 -14 31 -31zM122 527c0 -17 -14 -31 -31 -31s-31 14 -31 31s14 31 31 31s31 -14 31 -31z
M122 93c0 -17 -14 -31 -31 -31s-31 14 -31 31s14 31 31 31s31 -14 31 -31zM184 31c0 -17 -14 -31 -31 -31s-31 14 -31 31s14 31 31 31s31 -14 31 -31zM184 589c0 -17 -14 -31 -31 -31s-31 14 -31 31s14 31 31 31s31 -14 31 -31zM246 31c0 -17 -14 -31 -31 -31s-31 14 -31 31
s14 31 31 31s31 -14 31 -31zM246 589c0 -17 -14 -31 -31 -31s-31 14 -31 31s14 31 31 31s31 -14 31 -31zM308 31c0 -17 -14 -31 -31 -31s-31 14 -31 31s14 31 31 31s31 -14 31 -31zM308 589c0 -17 -14 -31 -31 -31s-31 14 -31 31s14 31 31 31s31 -14 31 -31zM370 31
c0 -17 -14 -31 -31 -31s-31 14 -31 31s14 31 31 31s31 -14 31 -31zM370 589c0 -17 -14 -31 -31 -31s-31 14 -31 31s14 31 31 31s31 -14 31 -31zM432 31c0 -17 -14 -31 -31 -31s-31 14 -31 31s14 31 31 31s31 -14 31 -31zM432 589c0 -17 -14 -31 -31 -31s-31 14 -31 31
s14 31 31 31s31 -14 31 -31zM494 155c0 -17 -14 -31 -31 -31s-31 14 -31 31s14 31 31 31s31 -14 31 -31zM494 217c0 -17 -14 -31 -31 -31s-31 14 -31 31s14 31 31 31s31 -14 31 -31zM494 279c0 -17 -14 -31 -31 -31s-31 14 -31 31s14 31 31 31s31 -14 31 -31zM494 341
c0 -17 -14 -31 -31 -31s-31 14 -31 31s14 31 31 31s31 -14 31 -31zM494 403c0 -17 -14 -31 -31 -31s-31 14 -31 31s14 31 31 31s31 -14 31 -31zM494 465c0 -17 -14 -31 -31 -31s-31 14 -31 31s14 31 31 31s31 -14 31 -31zM494 527c0 -17 -14 -31 -31 -31s-31 14 -31 31
s14 31 31 31s31 -14 31 -31zM494 93c0 -17 -14 -31 -31 -31s-31 14 -31 31s14 31 31 31s31 -14 31 -31z" />
    <glyph glyph-name="afii10051" unicode="&#x402;" horiz-adv-x="536" 
d="M186 589c0 -17 -14 -31 -31 -31s-31 14 -31 31s14 31 31 31s31 -14 31 -31zM186 465c0 -17 -14 -31 -31 -31s-31 14 -31 31s14 31 31 31s31 -14 31 -31zM186 403c0 -17 -14 -31 -31 -31s-31 14 -31 31s14 31 31 31s31 -14 31 -31zM186 341c0 -17 -14 -31 -31 -31
s-31 14 -31 31s14 31 31 31s31 -14 31 -31zM186 279c0 -17 -14 -31 -31 -31s-31 14 -31 31s14 31 31 31s31 -14 31 -31zM186 217c0 -17 -14 -31 -31 -31s-31 14 -31 31s14 31 31 31s31 -14 31 -31zM186 155c0 -17 -14 -31 -31 -31s-31 14 -31 31s14 31 31 31s31 -14 31 -31z
M186 93c0 -17 -14 -31 -31 -31s-31 14 -31 31s14 31 31 31s31 -14 31 -31zM186 31c0 -17 -14 -31 -31 -31s-31 14 -31 31s14 31 31 31s31 -14 31 -31zM186 527c0 -17 -14 -31 -31 -31s-31 14 -31 31s14 31 31 31s31 -14 31 -31zM496 93c0 -17 -14 -31 -31 -31s-31 14 -31 31
s14 31 31 31s31 -14 31 -31zM248 279c0 -17 -14 -31 -31 -31s-31 14 -31 31s14 31 31 31s31 -14 31 -31zM310 341c0 -17 -14 -31 -31 -31s-31 14 -31 31s14 31 31 31s31 -14 31 -31zM372 341c0 -17 -14 -31 -31 -31s-31 14 -31 31s14 31 31 31s31 -14 31 -31zM434 341
c0 -17 -14 -31 -31 -31s-31 14 -31 31s14 31 31 31s31 -14 31 -31zM496 279c0 -17 -14 -31 -31 -31s-31 14 -31 31s14 31 31 31s31 -14 31 -31zM496 217c0 -17 -14 -31 -31 -31s-31 14 -31 31s14 31 31 31s31 -14 31 -31zM496 155c0 -17 -14 -31 -31 -31s-31 14 -31 31
s14 31 31 31s31 -14 31 -31zM124 589c0 -17 -14 -31 -31 -31s-31 14 -31 31s14 31 31 31s31 -14 31 -31zM248 589c0 -17 -14 -31 -31 -31s-31 14 -31 31s14 31 31 31s31 -14 31 -31zM310 589c0 -17 -14 -31 -31 -31s-31 14 -31 31s14 31 31 31s31 -14 31 -31zM62 589
c0 -17 -14 -31 -31 -31s-31 14 -31 31s14 31 31 31s31 -14 31 -31zM434 31c0 -17 -14 -31 -31 -31s-31 14 -31 31s14 31 31 31s31 -14 31 -31zM372 31c0 -17 -14 -31 -31 -31s-31 14 -31 31s14 31 31 31s31 -14 31 -31z" />
    <glyph glyph-name="afii10052" unicode="&#x403;" horiz-adv-x="390" 
d="M122 31c0 -17 -14 -31 -31 -31s-31 14 -31 31s14 31 31 31s31 -14 31 -31zM122 155c0 -17 -14 -31 -31 -31s-31 14 -31 31s14 31 31 31s31 -14 31 -31zM122 217c0 -17 -14 -31 -31 -31s-31 14 -31 31s14 31 31 31s31 -14 31 -31zM122 279c0 -17 -14 -31 -31 -31
s-31 14 -31 31s14 31 31 31s31 -14 31 -31zM122 341c0 -17 -14 -31 -31 -31s-31 14 -31 31s14 31 31 31s31 -14 31 -31zM122 403c0 -17 -14 -31 -31 -31s-31 14 -31 31s14 31 31 31s31 -14 31 -31zM122 465c0 -17 -14 -31 -31 -31s-31 14 -31 31s14 31 31 31s31 -14 31 -31z
M122 527c0 -17 -14 -31 -31 -31s-31 14 -31 31s14 31 31 31s31 -14 31 -31zM122 589c0 -17 -14 -31 -31 -31s-31 14 -31 31s14 31 31 31s31 -14 31 -31zM122 93c0 -17 -14 -31 -31 -31s-31 14 -31 31s14 31 31 31s31 -14 31 -31zM184 589c0 -17 -14 -31 -31 -31
s-31 14 -31 31s14 31 31 31s31 -14 31 -31zM246 589c0 -17 -14 -31 -31 -31s-31 14 -31 31s14 31 31 31s31 -14 31 -31zM308 589c0 -17 -14 -31 -31 -31s-31 14 -31 31s14 31 31 31s31 -14 31 -31zM370 589c0 -17 -14 -31 -31 -31s-31 14 -31 31s14 31 31 31s31 -14 31 -31z
M196 716c0 10 9 18 19 18s19 -8 19 -18c0 -11 -9 -19 -19 -19s-19 8 -19 19zM246 775c0 17 14 31 31 31s31 -14 31 -31s-14 -31 -31 -31s-31 14 -31 31z" />
    <glyph glyph-name="quotesinglbase" unicode="&#x201a;" horiz-adv-x="175" 
d="M93 -35c0 -17 -14 -31 -31 -31s-31 14 -31 31s14 31 31 31s31 -14 31 -31zM135 42c0 -23 -19 -42 -42 -42s-42 19 -42 42c0 22 19 41 42 41s42 -19 42 -41zM58 -89c0 -11 -9 -19 -19 -19s-19 8 -19 19c0 10 9 18 19 18s19 -8 19 -18z" />
    <glyph glyph-name="afii10100" unicode="&#x453;" horiz-adv-x="318" 
d="M112 31c0 -17 -14 -31 -31 -31s-31 14 -31 31s14 31 31 31s31 -14 31 -31zM112 93c0 -17 -14 -31 -31 -31s-31 14 -31 31s14 31 31 31s31 -14 31 -31zM112 155c0 -17 -14 -31 -31 -31s-31 14 -31 31s14 31 31 31s31 -14 31 -31zM112 217c0 -17 -14 -31 -31 -31
s-31 14 -31 31s14 31 31 31s31 -14 31 -31zM112 279c0 -17 -14 -31 -31 -31s-31 14 -31 31s14 31 31 31s31 -14 31 -31zM112 341c0 -17 -14 -31 -31 -31s-31 14 -31 31s14 31 31 31s31 -14 31 -31zM112 403c0 -17 -14 -31 -31 -31s-31 14 -31 31s14 31 31 31s31 -14 31 -31z
M174 403c0 -17 -14 -31 -31 -31s-31 14 -31 31s14 31 31 31s31 -14 31 -31zM236 403c0 -17 -14 -31 -31 -31s-31 14 -31 31s14 31 31 31s31 -14 31 -31zM298 403c0 -17 -14 -31 -31 -31s-31 14 -31 31s14 31 31 31s31 -14 31 -31zM124 530c0 10 9 18 19 18s19 -8 19 -18
c0 -11 -9 -19 -19 -19s-19 8 -19 19zM174 589c0 17 14 31 31 31s31 -14 31 -31s-14 -31 -31 -31s-31 14 -31 31z" />
    <glyph glyph-name="quotedblbase" unicode="&#x201e;" horiz-adv-x="269" 
d="M187 -35c0 -17 -14 -31 -31 -31s-31 14 -31 31s14 31 31 31s31 -14 31 -31zM229 42c0 -23 -19 -42 -42 -42s-42 19 -42 42c0 22 19 41 42 41s42 -19 42 -41zM152 -89c0 -11 -9 -19 -19 -19s-19 8 -19 19c0 10 9 18 19 18s19 -8 19 -18zM93 -35c0 -17 -14 -31 -31 -31
s-31 14 -31 31s14 31 31 31s31 -14 31 -31zM135 42c0 -23 -19 -42 -42 -42s-42 19 -42 42c0 22 19 41 42 41s42 -19 42 -41zM58 -89c0 -11 -9 -19 -19 -19s-19 8 -19 19c0 10 9 18 19 18s19 -8 19 -18z" />
    <glyph glyph-name="ellipsis" unicode="&#x2026;" horiz-adv-x="434" 
d="M124 42c0 -23 -19 -42 -42 -42s-42 19 -42 42c0 22 19 41 42 41s42 -19 42 -41zM394 42c0 -23 -19 -42 -42 -42s-42 19 -42 42c0 22 19 41 42 41s42 -19 42 -41zM259 42c0 -23 -19 -42 -42 -42s-42 19 -42 42c0 22 19 41 42 41s42 -19 42 -41z" />
    <glyph glyph-name="dagger" unicode="&#x2020;" horiz-adv-x="390" 
d="M226 31c0 -17 -14 -31 -31 -31s-31 14 -31 31s14 31 31 31s31 -14 31 -31zM226 465c0 -17 -14 -31 -31 -31s-31 14 -31 31s14 31 31 31s31 -14 31 -31zM226 527c0 -17 -14 -31 -31 -31s-31 14 -31 31s14 31 31 31s31 -14 31 -31zM226 589c0 -17 -14 -31 -31 -31
s-31 14 -31 31s14 31 31 31s31 -14 31 -31zM226 93c0 -17 -14 -31 -31 -31s-31 14 -31 31s14 31 31 31s31 -14 31 -31zM225 651c0 -17 -14 -31 -31 -31s-31 14 -31 31s14 31 31 31s31 -14 31 -31zM226 155c0 -17 -14 -31 -31 -31s-31 14 -31 31s14 31 31 31s31 -14 31 -31z
M226 217c0 -17 -14 -31 -31 -31s-31 14 -31 31s14 31 31 31s31 -14 31 -31zM226 279c0 -17 -14 -31 -31 -31s-31 14 -31 31s14 31 31 31s31 -14 31 -31zM226 341c0 -17 -14 -31 -31 -31s-31 14 -31 31s14 31 31 31s31 -14 31 -31zM226 -31c0 -17 -14 -31 -31 -31
s-31 14 -31 31s14 31 31 31s31 -14 31 -31zM102 465c0 -17 -14 -31 -31 -31s-31 14 -31 31s14 31 31 31s31 -14 31 -31zM164 465c0 -17 -14 -31 -31 -31s-31 14 -31 31s14 31 31 31s31 -14 31 -31zM226 403c0 -17 -14 -31 -31 -31s-31 14 -31 31s14 31 31 31s31 -14 31 -31z
M288 465c0 -17 -14 -31 -31 -31s-31 14 -31 31s14 31 31 31s31 -14 31 -31zM350 465c0 -17 -14 -31 -31 -31s-31 14 -31 31s14 31 31 31s31 -14 31 -31z" />
    <glyph glyph-name="daggerdbl" unicode="&#x2021;" horiz-adv-x="390" 
d="M226 31c0 -17 -14 -31 -31 -31s-31 14 -31 31s14 31 31 31s31 -14 31 -31zM226 465c0 -17 -14 -31 -31 -31s-31 14 -31 31s14 31 31 31s31 -14 31 -31zM226 527c0 -17 -14 -31 -31 -31s-31 14 -31 31s14 31 31 31s31 -14 31 -31zM226 589c0 -17 -14 -31 -31 -31
s-31 14 -31 31s14 31 31 31s31 -14 31 -31zM226 93c0 -17 -14 -31 -31 -31s-31 14 -31 31s14 31 31 31s31 -14 31 -31zM225 651c0 -17 -14 -31 -31 -31s-31 14 -31 31s14 31 31 31s31 -14 31 -31zM226 155c0 -17 -14 -31 -31 -31s-31 14 -31 31s14 31 31 31s31 -14 31 -31z
M226 217c0 -17 -14 -31 -31 -31s-31 14 -31 31s14 31 31 31s31 -14 31 -31zM226 279c0 -17 -14 -31 -31 -31s-31 14 -31 31s14 31 31 31s31 -14 31 -31zM226 341c0 -17 -14 -31 -31 -31s-31 14 -31 31s14 31 31 31s31 -14 31 -31zM226 -31c0 -17 -14 -31 -31 -31
s-31 14 -31 31s14 31 31 31s31 -14 31 -31zM102 465c0 -17 -14 -31 -31 -31s-31 14 -31 31s14 31 31 31s31 -14 31 -31zM164 465c0 -17 -14 -31 -31 -31s-31 14 -31 31s14 31 31 31s31 -14 31 -31zM226 403c0 -17 -14 -31 -31 -31s-31 14 -31 31s14 31 31 31s31 -14 31 -31z
M288 465c0 -17 -14 -31 -31 -31s-31 14 -31 31s14 31 31 31s31 -14 31 -31zM350 465c0 -17 -14 -31 -31 -31s-31 14 -31 31s14 31 31 31s31 -14 31 -31zM102 155c0 -17 -14 -31 -31 -31s-31 14 -31 31s14 31 31 31s31 -14 31 -31zM164 155c0 -17 -14 -31 -31 -31
s-31 14 -31 31s14 31 31 31s31 -14 31 -31zM288 155c0 -17 -14 -31 -31 -31s-31 14 -31 31s14 31 31 31s31 -14 31 -31zM350 155c0 -17 -14 -31 -31 -31s-31 14 -31 31s14 31 31 31s31 -14 31 -31z" />
    <glyph glyph-name="Euro" unicode="&#x20ac;" horiz-adv-x="452" 
d="M122 155c0 -17 -14 -31 -31 -31s-31 14 -31 31s14 31 31 31s31 -14 31 -31zM122 217c0 -17 -14 -31 -31 -31s-31 14 -31 31s14 31 31 31s31 -14 31 -31zM122 279c0 -17 -14 -31 -31 -31s-31 14 -31 31s14 31 31 31s31 -14 31 -31zM122 341c0 -17 -14 -31 -31 -31
s-31 14 -31 31s14 31 31 31s31 -14 31 -31zM122 403c0 -17 -14 -31 -31 -31s-31 14 -31 31s14 31 31 31s31 -14 31 -31zM122 465c0 -17 -14 -31 -31 -31s-31 14 -31 31s14 31 31 31s31 -14 31 -31zM122 527c0 -17 -14 -31 -31 -31s-31 14 -31 31s14 31 31 31s31 -14 31 -31z
M122 93c0 -17 -14 -31 -31 -31s-31 14 -31 31s14 31 31 31s31 -14 31 -31zM184 31c0 -17 -14 -31 -31 -31s-31 14 -31 31s14 31 31 31s31 -14 31 -31zM184 589c0 -17 -14 -31 -31 -31s-31 14 -31 31s14 31 31 31s31 -14 31 -31zM246 31c0 -17 -14 -31 -31 -31s-31 14 -31 31
s14 31 31 31s31 -14 31 -31zM246 589c0 -17 -14 -31 -31 -31s-31 14 -31 31s14 31 31 31s31 -14 31 -31zM308 31c0 -17 -14 -31 -31 -31s-31 14 -31 31s14 31 31 31s31 -14 31 -31zM308 589c0 -17 -14 -31 -31 -31s-31 14 -31 31s14 31 31 31s31 -14 31 -31zM370 31
c0 -17 -14 -31 -31 -31s-31 14 -31 31s14 31 31 31s31 -14 31 -31zM370 589c0 -17 -14 -31 -31 -31s-31 14 -31 31s14 31 31 31s31 -14 31 -31zM432 31c0 -17 -14 -31 -31 -31s-31 14 -31 31s14 31 31 31s31 -14 31 -31zM432 527c0 -17 -14 -31 -31 -31s-31 14 -31 31
s14 31 31 31s31 -14 31 -31zM184 341c0 -17 -14 -31 -31 -31s-31 14 -31 31s14 31 31 31s31 -14 31 -31zM246 341c0 -17 -14 -31 -31 -31s-31 14 -31 31s14 31 31 31s31 -14 31 -31zM308 341c0 -17 -14 -31 -31 -31s-31 14 -31 31s14 31 31 31s31 -14 31 -31zM370 341
c0 -17 -14 -31 -31 -31s-31 14 -31 31s14 31 31 31s31 -14 31 -31zM184 217c0 -17 -14 -31 -31 -31s-31 14 -31 31s14 31 31 31s31 -14 31 -31zM246 217c0 -17 -14 -31 -31 -31s-31 14 -31 31s14 31 31 31s31 -14 31 -31zM308 217c0 -17 -14 -31 -31 -31s-31 14 -31 31
s14 31 31 31s31 -14 31 -31z" />
    <glyph glyph-name="perthousand" unicode="&#x2030;" horiz-adv-x="545" 
d="M102 31c0 -17 -14 -31 -31 -31s-31 14 -31 31s14 31 31 31s31 -14 31 -31zM102 527c0 -17 -14 -31 -31 -31s-31 14 -31 31s14 31 31 31s31 -14 31 -31zM102 589c0 -17 -14 -31 -31 -31s-31 14 -31 31s14 31 31 31s31 -14 31 -31zM164 155c0 -17 -14 -31 -31 -31
s-31 14 -31 31s14 31 31 31s31 -14 31 -31zM164 589c0 -17 -14 -31 -31 -31s-31 14 -31 31s14 31 31 31s31 -14 31 -31zM164 93c0 -17 -14 -31 -31 -31s-31 14 -31 31s14 31 31 31s31 -14 31 -31zM226 217c0 -17 -14 -31 -31 -31s-31 14 -31 31s14 31 31 31s31 -14 31 -31z
M226 279c0 -17 -14 -31 -31 -31s-31 14 -31 31s14 31 31 31s31 -14 31 -31zM288 341c0 -17 -14 -31 -31 -31s-31 14 -31 31s14 31 31 31s31 -14 31 -31zM288 403c0 -17 -14 -31 -31 -31s-31 14 -31 31s14 31 31 31s31 -14 31 -31zM288 31c0 -17 -14 -31 -31 -31
s-31 14 -31 31s14 31 31 31s31 -14 31 -31zM350 465c0 -17 -14 -31 -31 -31s-31 14 -31 31s14 31 31 31s31 -14 31 -31zM350 527c0 -17 -14 -31 -31 -31s-31 14 -31 31s14 31 31 31s31 -14 31 -31zM350 31c0 -17 -14 -31 -31 -31s-31 14 -31 31s14 31 31 31s31 -14 31 -31z
M412 589c0 -17 -14 -31 -31 -31s-31 14 -31 31s14 31 31 31s31 -14 31 -31zM350 93c0 -17 -14 -31 -31 -31s-31 14 -31 31s14 31 31 31s31 -14 31 -31zM443 31c0 -17 -14 -31 -31 -31s-31 14 -31 31s14 31 31 31s31 -14 31 -31zM505 31c0 -17 -14 -31 -31 -31s-31 14 -31 31
s14 31 31 31s31 -14 31 -31zM505 93c0 -17 -14 -31 -31 -31s-31 14 -31 31s14 31 31 31s31 -14 31 -31z" />
    <glyph glyph-name="afii10058" unicode="&#x409;" horiz-adv-x="660" 
d="M62 31c0 -17 -14 -31 -31 -31s-31 14 -31 31s14 31 31 31s31 -14 31 -31zM124 465c0 -17 -14 -31 -31 -31s-31 14 -31 31s14 31 31 31s31 -14 31 -31zM124 527c0 -17 -14 -31 -31 -31s-31 14 -31 31s14 31 31 31s31 -14 31 -31zM124 93c0 -17 -14 -31 -31 -31
s-31 14 -31 31s14 31 31 31s31 -14 31 -31zM186 589c0 -17 -14 -31 -31 -31s-31 14 -31 31s14 31 31 31s31 -14 31 -31zM248 589c0 -17 -14 -31 -31 -31s-31 14 -31 31s14 31 31 31s31 -14 31 -31zM310 589c0 -17 -14 -31 -31 -31s-31 14 -31 31s14 31 31 31s31 -14 31 -31z
M372 31c0 -17 -14 -31 -31 -31s-31 14 -31 31s14 31 31 31s31 -14 31 -31zM372 465c0 -17 -14 -31 -31 -31s-31 14 -31 31s14 31 31 31s31 -14 31 -31zM372 527c0 -17 -14 -31 -31 -31s-31 14 -31 31s14 31 31 31s31 -14 31 -31zM372 589c0 -17 -14 -31 -31 -31
s-31 14 -31 31s14 31 31 31s31 -14 31 -31zM372 93c0 -17 -14 -31 -31 -31s-31 14 -31 31s14 31 31 31s31 -14 31 -31zM434 31c0 -17 -14 -31 -31 -31s-31 14 -31 31s14 31 31 31s31 -14 31 -31zM434 341c0 -17 -14 -31 -31 -31s-31 14 -31 31s14 31 31 31s31 -14 31 -31z
M496 31c0 -17 -14 -31 -31 -31s-31 14 -31 31s14 31 31 31s31 -14 31 -31zM496 403c0 -17 -14 -31 -31 -31s-31 14 -31 31s14 31 31 31s31 -14 31 -31zM124 155c0 -17 -14 -31 -31 -31s-31 14 -31 31s14 31 31 31s31 -14 31 -31zM124 217c0 -17 -14 -31 -31 -31
s-31 14 -31 31s14 31 31 31s31 -14 31 -31zM124 279c0 -17 -14 -31 -31 -31s-31 14 -31 31s14 31 31 31s31 -14 31 -31zM124 341c0 -17 -14 -31 -31 -31s-31 14 -31 31s14 31 31 31s31 -14 31 -31zM124 403c0 -17 -14 -31 -31 -31s-31 14 -31 31s14 31 31 31s31 -14 31 -31z
M372 155c0 -17 -14 -31 -31 -31s-31 14 -31 31s14 31 31 31s31 -14 31 -31zM372 217c0 -17 -14 -31 -31 -31s-31 14 -31 31s14 31 31 31s31 -14 31 -31zM372 279c0 -17 -14 -31 -31 -31s-31 14 -31 31s14 31 31 31s31 -14 31 -31zM372 341c0 -17 -14 -31 -31 -31
s-31 14 -31 31s14 31 31 31s31 -14 31 -31zM372 403c0 -17 -14 -31 -31 -31s-31 14 -31 31s14 31 31 31s31 -14 31 -31zM558 31c0 -17 -14 -31 -31 -31s-31 14 -31 31s14 31 31 31s31 -14 31 -31zM620 93c0 -17 -14 -31 -31 -31s-31 14 -31 31s14 31 31 31s31 -14 31 -31z
M620 155c0 -17 -14 -31 -31 -31s-31 14 -31 31s14 31 31 31s31 -14 31 -31zM620 217c0 -17 -14 -31 -31 -31s-31 14 -31 31s14 31 31 31s31 -14 31 -31zM620 279c0 -17 -14 -31 -31 -31s-31 14 -31 31s14 31 31 31s31 -14 31 -31zM620 341c0 -17 -14 -31 -31 -31
s-31 14 -31 31s14 31 31 31s31 -14 31 -31zM558 403c0 -17 -14 -31 -31 -31s-31 14 -31 31s14 31 31 31s31 -14 31 -31z" />
    <glyph glyph-name="guilsinglleft" unicode="&#x2039;" horiz-adv-x="328" 
d="M164 155c0 -17 -14 -31 -31 -31s-31 14 -31 31s14 31 31 31s31 -14 31 -31zM164 279c0 -17 -14 -31 -31 -31s-31 14 -31 31s14 31 31 31s31 -14 31 -31zM102 217c0 -17 -14 -31 -31 -31s-31 14 -31 31s14 31 31 31s31 -14 31 -31zM226 93c0 -17 -14 -31 -31 -31
s-31 14 -31 31s14 31 31 31s31 -14 31 -31zM288 31c0 -17 -14 -31 -31 -31s-31 14 -31 31s14 31 31 31s31 -14 31 -31zM226 341c0 -17 -14 -31 -31 -31s-31 14 -31 31s14 31 31 31s31 -14 31 -31zM288 403c0 -17 -14 -31 -31 -31s-31 14 -31 31s14 31 31 31s31 -14 31 -31z
" />
    <glyph glyph-name="afii10059" unicode="&#x40a;" horiz-adv-x="658" 
d="M122 31c0 -17 -14 -31 -31 -31s-31 14 -31 31s14 31 31 31s31 -14 31 -31zM122 155c0 -17 -14 -31 -31 -31s-31 14 -31 31s14 31 31 31s31 -14 31 -31zM122 217c0 -17 -14 -31 -31 -31s-31 14 -31 31s14 31 31 31s31 -14 31 -31zM122 279c0 -17 -14 -31 -31 -31
s-31 14 -31 31s14 31 31 31s31 -14 31 -31zM122 341c0 -17 -14 -31 -31 -31s-31 14 -31 31s14 31 31 31s31 -14 31 -31zM122 403c0 -17 -14 -31 -31 -31s-31 14 -31 31s14 31 31 31s31 -14 31 -31zM122 465c0 -17 -14 -31 -31 -31s-31 14 -31 31s14 31 31 31s31 -14 31 -31z
M122 527c0 -17 -14 -31 -31 -31s-31 14 -31 31s14 31 31 31s31 -14 31 -31zM122 589c0 -17 -14 -31 -31 -31s-31 14 -31 31s14 31 31 31s31 -14 31 -31zM122 93c0 -17 -14 -31 -31 -31s-31 14 -31 31s14 31 31 31s31 -14 31 -31zM370 31c0 -17 -14 -31 -31 -31
s-31 14 -31 31s14 31 31 31s31 -14 31 -31zM370 465c0 -17 -14 -31 -31 -31s-31 14 -31 31s14 31 31 31s31 -14 31 -31zM370 527c0 -17 -14 -31 -31 -31s-31 14 -31 31s14 31 31 31s31 -14 31 -31zM370 589c0 -17 -14 -31 -31 -31s-31 14 -31 31s14 31 31 31s31 -14 31 -31z
M370 93c0 -17 -14 -31 -31 -31s-31 14 -31 31s14 31 31 31s31 -14 31 -31zM432 31c0 -17 -14 -31 -31 -31s-31 14 -31 31s14 31 31 31s31 -14 31 -31zM494 31c0 -17 -14 -31 -31 -31s-31 14 -31 31s14 31 31 31s31 -14 31 -31zM494 403c0 -17 -14 -31 -31 -31s-31 14 -31 31
s14 31 31 31s31 -14 31 -31zM556 31c0 -17 -14 -31 -31 -31s-31 14 -31 31s14 31 31 31s31 -14 31 -31zM556 403c0 -17 -14 -31 -31 -31s-31 14 -31 31s14 31 31 31s31 -14 31 -31zM184 341c0 -17 -14 -31 -31 -31s-31 14 -31 31s14 31 31 31s31 -14 31 -31zM246 341
c0 -17 -14 -31 -31 -31s-31 14 -31 31s14 31 31 31s31 -14 31 -31zM308 341c0 -17 -14 -31 -31 -31s-31 14 -31 31s14 31 31 31s31 -14 31 -31zM370 155c0 -17 -14 -31 -31 -31s-31 14 -31 31s14 31 31 31s31 -14 31 -31zM370 217c0 -17 -14 -31 -31 -31s-31 14 -31 31
s14 31 31 31s31 -14 31 -31zM370 279c0 -17 -14 -31 -31 -31s-31 14 -31 31s14 31 31 31s31 -14 31 -31zM370 341c0 -17 -14 -31 -31 -31s-31 14 -31 31s14 31 31 31s31 -14 31 -31zM370 403c0 -17 -14 -31 -31 -31s-31 14 -31 31s14 31 31 31s31 -14 31 -31zM432 341
c0 -17 -14 -31 -31 -31s-31 14 -31 31s14 31 31 31s31 -14 31 -31zM618 155c0 -17 -14 -31 -31 -31s-31 14 -31 31s14 31 31 31s31 -14 31 -31zM618 217c0 -17 -14 -31 -31 -31s-31 14 -31 31s14 31 31 31s31 -14 31 -31zM618 279c0 -17 -14 -31 -31 -31s-31 14 -31 31
s14 31 31 31s31 -14 31 -31zM618 341c0 -17 -14 -31 -31 -31s-31 14 -31 31s14 31 31 31s31 -14 31 -31zM618 93c0 -17 -14 -31 -31 -31s-31 14 -31 31s14 31 31 31s31 -14 31 -31z" />
    <glyph glyph-name="afii10061" unicode="&#x40c;" 
d="M122 31c0 -17 -14 -31 -31 -31s-31 14 -31 31s14 31 31 31s31 -14 31 -31zM122 155c0 -17 -14 -31 -31 -31s-31 14 -31 31s14 31 31 31s31 -14 31 -31zM122 217c0 -17 -14 -31 -31 -31s-31 14 -31 31s14 31 31 31s31 -14 31 -31zM122 279c0 -17 -14 -31 -31 -31
s-31 14 -31 31s14 31 31 31s31 -14 31 -31zM122 341c0 -17 -14 -31 -31 -31s-31 14 -31 31s14 31 31 31s31 -14 31 -31zM122 403c0 -17 -14 -31 -31 -31s-31 14 -31 31s14 31 31 31s31 -14 31 -31zM122 465c0 -17 -14 -31 -31 -31s-31 14 -31 31s14 31 31 31s31 -14 31 -31z
M122 527c0 -17 -14 -31 -31 -31s-31 14 -31 31s14 31 31 31s31 -14 31 -31zM122 589c0 -17 -14 -31 -31 -31s-31 14 -31 31s14 31 31 31s31 -14 31 -31zM122 93c0 -17 -14 -31 -31 -31s-31 14 -31 31s14 31 31 31s31 -14 31 -31zM370 465c0 -17 -14 -31 -31 -31
s-31 14 -31 31s14 31 31 31s31 -14 31 -31zM432 527c0 -17 -14 -31 -31 -31s-31 14 -31 31s14 31 31 31s31 -14 31 -31zM432 31c0 -17 -14 -31 -31 -31s-31 14 -31 31s14 31 31 31s31 -14 31 -31zM432 589c0 -17 -14 -31 -31 -31s-31 14 -31 31s14 31 31 31s31 -14 31 -31z
M432 93c0 -17 -14 -31 -31 -31s-31 14 -31 31s14 31 31 31s31 -14 31 -31zM246 341c0 -17 -14 -31 -31 -31s-31 14 -31 31s14 31 31 31s31 -14 31 -31zM308 279c0 -17 -14 -31 -31 -31s-31 14 -31 31s14 31 31 31s31 -14 31 -31zM308 403c0 -17 -14 -31 -31 -31
s-31 14 -31 31s14 31 31 31s31 -14 31 -31zM370 217c0 -17 -14 -31 -31 -31s-31 14 -31 31s14 31 31 31s31 -14 31 -31zM432 155c0 -17 -14 -31 -31 -31s-31 14 -31 31s14 31 31 31s31 -14 31 -31zM184 341c0 -17 -14 -31 -31 -31s-31 14 -31 31s14 31 31 31s31 -14 31 -31z
M196 654c0 10 9 18 19 18s19 -8 19 -18c0 -11 -9 -19 -19 -19s-19 8 -19 19zM246 713c0 17 14 31 31 31s31 -14 31 -31s-14 -31 -31 -31s-31 14 -31 31z" />
    <glyph glyph-name="afii10060" unicode="&#x40b;" horiz-adv-x="536" 
d="M186 589c0 -17 -14 -31 -31 -31s-31 14 -31 31s14 31 31 31s31 -14 31 -31zM186 465c0 -17 -14 -31 -31 -31s-31 14 -31 31s14 31 31 31s31 -14 31 -31zM186 403c0 -17 -14 -31 -31 -31s-31 14 -31 31s14 31 31 31s31 -14 31 -31zM186 341c0 -17 -14 -31 -31 -31
s-31 14 -31 31s14 31 31 31s31 -14 31 -31zM186 279c0 -17 -14 -31 -31 -31s-31 14 -31 31s14 31 31 31s31 -14 31 -31zM186 217c0 -17 -14 -31 -31 -31s-31 14 -31 31s14 31 31 31s31 -14 31 -31zM186 155c0 -17 -14 -31 -31 -31s-31 14 -31 31s14 31 31 31s31 -14 31 -31z
M186 93c0 -17 -14 -31 -31 -31s-31 14 -31 31s14 31 31 31s31 -14 31 -31zM186 31c0 -17 -14 -31 -31 -31s-31 14 -31 31s14 31 31 31s31 -14 31 -31zM186 527c0 -17 -14 -31 -31 -31s-31 14 -31 31s14 31 31 31s31 -14 31 -31zM496 93c0 -17 -14 -31 -31 -31s-31 14 -31 31
s14 31 31 31s31 -14 31 -31zM248 279c0 -17 -14 -31 -31 -31s-31 14 -31 31s14 31 31 31s31 -14 31 -31zM310 341c0 -17 -14 -31 -31 -31s-31 14 -31 31s14 31 31 31s31 -14 31 -31zM372 341c0 -17 -14 -31 -31 -31s-31 14 -31 31s14 31 31 31s31 -14 31 -31zM434 341
c0 -17 -14 -31 -31 -31s-31 14 -31 31s14 31 31 31s31 -14 31 -31zM496 279c0 -17 -14 -31 -31 -31s-31 14 -31 31s14 31 31 31s31 -14 31 -31zM496 217c0 -17 -14 -31 -31 -31s-31 14 -31 31s14 31 31 31s31 -14 31 -31zM496 155c0 -17 -14 -31 -31 -31s-31 14 -31 31
s14 31 31 31s31 -14 31 -31zM124 589c0 -17 -14 -31 -31 -31s-31 14 -31 31s14 31 31 31s31 -14 31 -31zM248 589c0 -17 -14 -31 -31 -31s-31 14 -31 31s14 31 31 31s31 -14 31 -31zM310 589c0 -17 -14 -31 -31 -31s-31 14 -31 31s14 31 31 31s31 -14 31 -31zM62 589
c0 -17 -14 -31 -31 -31s-31 14 -31 31s14 31 31 31s31 -14 31 -31zM496 31c0 -17 -14 -31 -31 -31s-31 14 -31 31s14 31 31 31s31 -14 31 -31z" />
    <glyph glyph-name="afii10145" unicode="&#x40f;" horiz-adv-x="492" 
d="M122 589c0 -17 -14 -31 -31 -31s-31 14 -31 31s14 31 31 31s31 -14 31 -31zM122 465c0 -17 -14 -31 -31 -31s-31 14 -31 31s14 31 31 31s31 -14 31 -31zM122 403c0 -17 -14 -31 -31 -31s-31 14 -31 31s14 31 31 31s31 -14 31 -31zM122 341c0 -17 -14 -31 -31 -31
s-31 14 -31 31s14 31 31 31s31 -14 31 -31zM122 279c0 -17 -14 -31 -31 -31s-31 14 -31 31s14 31 31 31s31 -14 31 -31zM122 217c0 -17 -14 -31 -31 -31s-31 14 -31 31s14 31 31 31s31 -14 31 -31zM122 155c0 -17 -14 -31 -31 -31s-31 14 -31 31s14 31 31 31s31 -14 31 -31z
M122 93c0 -17 -14 -31 -31 -31s-31 14 -31 31s14 31 31 31s31 -14 31 -31zM122 31c0 -17 -14 -31 -31 -31s-31 14 -31 31s14 31 31 31s31 -14 31 -31zM122 527c0 -17 -14 -31 -31 -31s-31 14 -31 31s14 31 31 31s31 -14 31 -31zM432 589c0 -17 -14 -31 -31 -31
s-31 14 -31 31s14 31 31 31s31 -14 31 -31zM432 155c0 -17 -14 -31 -31 -31s-31 14 -31 31s14 31 31 31s31 -14 31 -31zM432 93c0 -17 -14 -31 -31 -31s-31 14 -31 31s14 31 31 31s31 -14 31 -31zM432 31c0 -17 -14 -31 -31 -31s-31 14 -31 31s14 31 31 31s31 -14 31 -31z
M432 527c0 -17 -14 -31 -31 -31s-31 14 -31 31s14 31 31 31s31 -14 31 -31zM184 31c0 -17 -14 -31 -31 -31s-31 14 -31 31s14 31 31 31s31 -14 31 -31zM246 31c0 -17 -14 -31 -31 -31s-31 14 -31 31s14 31 31 31s31 -14 31 -31zM308 31c0 -17 -14 -31 -31 -31s-31 14 -31 31
s14 31 31 31s31 -14 31 -31zM370 31c0 -17 -14 -31 -31 -31s-31 14 -31 31s14 31 31 31s31 -14 31 -31zM432 465c0 -17 -14 -31 -31 -31s-31 14 -31 31s14 31 31 31s31 -14 31 -31zM432 403c0 -17 -14 -31 -31 -31s-31 14 -31 31s14 31 31 31s31 -14 31 -31zM432 341
c0 -17 -14 -31 -31 -31s-31 14 -31 31s14 31 31 31s31 -14 31 -31zM432 279c0 -17 -14 -31 -31 -31s-31 14 -31 31s14 31 31 31s31 -14 31 -31zM432 217c0 -17 -14 -31 -31 -31s-31 14 -31 31s14 31 31 31s31 -14 31 -31zM277 -93c0 -17 -14 -31 -31 -31s-31 14 -31 31
s14 31 31 31s31 -14 31 -31zM277 -31c0 -17 -14 -31 -31 -31s-31 14 -31 31s14 31 31 31s31 -14 31 -31z" />
    <glyph glyph-name="afii10099" unicode="&#x452;" horiz-adv-x="422" 
d="M124 589c0 -17 -14 -31 -31 -31s-31 14 -31 31s14 31 31 31s31 -14 31 -31zM124 465c0 -17 -14 -31 -31 -31s-31 14 -31 31s14 31 31 31s31 -14 31 -31zM124 403c0 -17 -14 -31 -31 -31s-31 14 -31 31s14 31 31 31s31 -14 31 -31zM124 341c0 -17 -14 -31 -31 -31
s-31 14 -31 31s14 31 31 31s31 -14 31 -31zM124 279c0 -17 -14 -31 -31 -31s-31 14 -31 31s14 31 31 31s31 -14 31 -31zM124 217c0 -17 -14 -31 -31 -31s-31 14 -31 31s14 31 31 31s31 -14 31 -31zM124 155c0 -17 -14 -31 -31 -31s-31 14 -31 31s14 31 31 31s31 -14 31 -31z
M124 93c0 -17 -14 -31 -31 -31s-31 14 -31 31s14 31 31 31s31 -14 31 -31zM124 31c0 -17 -14 -31 -31 -31s-31 14 -31 31s14 31 31 31s31 -14 31 -31zM124 527c0 -17 -14 -31 -31 -31s-31 14 -31 31s14 31 31 31s31 -14 31 -31zM186 341c0 -17 -14 -31 -31 -31
s-31 14 -31 31s14 31 31 31s31 -14 31 -31zM248 403c0 -17 -14 -31 -31 -31s-31 14 -31 31s14 31 31 31s31 -14 31 -31zM310 403c0 -17 -14 -31 -31 -31s-31 14 -31 31s14 31 31 31s31 -14 31 -31zM372 341c0 -17 -14 -31 -31 -31s-31 14 -31 31s14 31 31 31s31 -14 31 -31z
M372 217c0 -17 -14 -31 -31 -31s-31 14 -31 31s14 31 31 31s31 -14 31 -31zM372 155c0 -17 -14 -31 -31 -31s-31 14 -31 31s14 31 31 31s31 -14 31 -31zM62 527c0 -17 -14 -31 -31 -31s-31 14 -31 31s14 31 31 31s31 -14 31 -31zM186 527c0 -17 -14 -31 -31 -31
s-31 14 -31 31s14 31 31 31s31 -14 31 -31zM372 31c0 -17 -14 -31 -31 -31s-31 14 -31 31s14 31 31 31s31 -14 31 -31zM372 93c0 -17 -14 -31 -31 -31s-31 14 -31 31s14 31 31 31s31 -14 31 -31zM310 -31c0 -17 -14 -31 -31 -31s-31 14 -31 31s14 31 31 31s31 -14 31 -31z
M372 279c0 -17 -14 -31 -31 -31s-31 14 -31 31s14 31 31 31s31 -14 31 -31z" />
    <glyph glyph-name="quoteleft" unicode="&#x2018;" horiz-adv-x="175" 
d="M82 547c0 17 14 31 31 31s31 -14 31 -31s-14 -31 -31 -31s-31 14 -31 31zM40 470c0 23 19 42 42 42s42 -19 42 -42c0 -22 -19 -41 -42 -41s-42 19 -42 41zM117 601c0 11 9 19 19 19s19 -8 19 -19c0 -10 -9 -18 -19 -18s-19 8 -19 18z" />
    <glyph glyph-name="quoteright" unicode="&#x2019;" horiz-adv-x="175" 
d="M93 502c0 -17 -14 -31 -31 -31s-31 14 -31 31s14 31 31 31s31 -14 31 -31zM135 579c0 -23 -19 -42 -42 -42s-42 19 -42 42c0 22 19 41 42 41s42 -19 42 -41zM58 448c0 -11 -9 -19 -19 -19s-19 8 -19 19c0 10 9 18 19 18s19 -8 19 -18z" />
    <glyph glyph-name="quotedblleft" unicode="&#x201c;" horiz-adv-x="269" 
d="M82 547c0 17 14 31 31 31s31 -14 31 -31s-14 -31 -31 -31s-31 14 -31 31zM40 470c0 23 19 42 42 42s42 -19 42 -42c0 -22 -19 -41 -42 -41s-42 19 -42 41zM117 601c0 11 9 19 19 19s19 -8 19 -19c0 -10 -9 -18 -19 -18s-19 8 -19 18zM176 547c0 17 14 31 31 31
s31 -14 31 -31s-14 -31 -31 -31s-31 14 -31 31zM134 470c0 23 19 42 42 42s42 -19 42 -42c0 -22 -19 -41 -42 -41s-42 19 -42 41zM211 601c0 11 9 19 19 19s19 -8 19 -19c0 -10 -9 -18 -19 -18s-19 8 -19 18z" />
    <glyph glyph-name="quotedblright" unicode="&#x201d;" horiz-adv-x="269" 
d="M187 502c0 -17 -14 -31 -31 -31s-31 14 -31 31s14 31 31 31s31 -14 31 -31zM229 579c0 -23 -19 -42 -42 -42s-42 19 -42 42c0 22 19 41 42 41s42 -19 42 -41zM152 448c0 -11 -9 -19 -19 -19s-19 8 -19 19c0 10 9 18 19 18s19 -8 19 -18zM93 502c0 -17 -14 -31 -31 -31
s-31 14 -31 31s14 31 31 31s31 -14 31 -31zM135 579c0 -23 -19 -42 -42 -42s-42 19 -42 42c0 22 19 41 42 41s42 -19 42 -41zM58 448c0 -11 -9 -19 -19 -19s-19 8 -19 19c0 10 9 18 19 18s19 -8 19 -18z" />
    <glyph glyph-name="bullet" unicode="&#x2022;" horiz-adv-x="554" 
d="M122 155c0 -17 -14 -31 -31 -31s-31 14 -31 31s14 31 31 31s31 -14 31 -31zM122 217c0 -17 -14 -31 -31 -31s-31 14 -31 31s14 31 31 31s31 -14 31 -31zM122 279c0 -17 -14 -31 -31 -31s-31 14 -31 31s14 31 31 31s31 -14 31 -31zM122 341c0 -17 -14 -31 -31 -31
s-31 14 -31 31s14 31 31 31s31 -14 31 -31zM122 403c0 -17 -14 -31 -31 -31s-31 14 -31 31s14 31 31 31s31 -14 31 -31zM122 465c0 -17 -14 -31 -31 -31s-31 14 -31 31s14 31 31 31s31 -14 31 -31zM122 527c0 -17 -14 -31 -31 -31s-31 14 -31 31s14 31 31 31s31 -14 31 -31z
M122 93c0 -17 -14 -31 -31 -31s-31 14 -31 31s14 31 31 31s31 -14 31 -31zM184 31c0 -17 -14 -31 -31 -31s-31 14 -31 31s14 31 31 31s31 -14 31 -31zM184 589c0 -17 -14 -31 -31 -31s-31 14 -31 31s14 31 31 31s31 -14 31 -31zM246 31c0 -17 -14 -31 -31 -31s-31 14 -31 31
s14 31 31 31s31 -14 31 -31zM246 589c0 -17 -14 -31 -31 -31s-31 14 -31 31s14 31 31 31s31 -14 31 -31zM308 31c0 -17 -14 -31 -31 -31s-31 14 -31 31s14 31 31 31s31 -14 31 -31zM308 589c0 -17 -14 -31 -31 -31s-31 14 -31 31s14 31 31 31s31 -14 31 -31zM370 31
c0 -17 -14 -31 -31 -31s-31 14 -31 31s14 31 31 31s31 -14 31 -31zM370 589c0 -17 -14 -31 -31 -31s-31 14 -31 31s14 31 31 31s31 -14 31 -31zM432 31c0 -17 -14 -31 -31 -31s-31 14 -31 31s14 31 31 31s31 -14 31 -31zM432 589c0 -17 -14 -31 -31 -31s-31 14 -31 31
s14 31 31 31s31 -14 31 -31zM494 155c0 -17 -14 -31 -31 -31s-31 14 -31 31s14 31 31 31s31 -14 31 -31zM494 217c0 -17 -14 -31 -31 -31s-31 14 -31 31s14 31 31 31s31 -14 31 -31zM494 279c0 -17 -14 -31 -31 -31s-31 14 -31 31s14 31 31 31s31 -14 31 -31zM494 341
c0 -17 -14 -31 -31 -31s-31 14 -31 31s14 31 31 31s31 -14 31 -31zM494 403c0 -17 -14 -31 -31 -31s-31 14 -31 31s14 31 31 31s31 -14 31 -31zM494 465c0 -17 -14 -31 -31 -31s-31 14 -31 31s14 31 31 31s31 -14 31 -31zM494 527c0 -17 -14 -31 -31 -31s-31 14 -31 31
s14 31 31 31s31 -14 31 -31zM494 93c0 -17 -14 -31 -31 -31s-31 14 -31 31s14 31 31 31s31 -14 31 -31z" />
    <glyph glyph-name="endash" unicode="&#x2013;" horiz-adv-x="514" 
d="M164 279c0 -17 -14 -31 -31 -31s-31 14 -31 31s14 31 31 31s31 -14 31 -31zM226 279c0 -17 -14 -31 -31 -31s-31 14 -31 31s14 31 31 31s31 -14 31 -31zM288 279c0 -17 -14 -31 -31 -31s-31 14 -31 31s14 31 31 31s31 -14 31 -31zM102 279c0 -17 -14 -31 -31 -31
s-31 14 -31 31s14 31 31 31s31 -14 31 -31zM412 279c0 -17 -14 -31 -31 -31s-31 14 -31 31s14 31 31 31s31 -14 31 -31zM474 279c0 -17 -14 -31 -31 -31s-31 14 -31 31s14 31 31 31s31 -14 31 -31zM350 279c0 -17 -14 -31 -31 -31s-31 14 -31 31s14 31 31 31s31 -14 31 -31z
" />
    <glyph glyph-name="emdash" unicode="&#x2014;" horiz-adv-x="638" 
d="M164 279c0 -17 -14 -31 -31 -31s-31 14 -31 31s14 31 31 31s31 -14 31 -31zM226 279c0 -17 -14 -31 -31 -31s-31 14 -31 31s14 31 31 31s31 -14 31 -31zM288 279c0 -17 -14 -31 -31 -31s-31 14 -31 31s14 31 31 31s31 -14 31 -31zM102 279c0 -17 -14 -31 -31 -31
s-31 14 -31 31s14 31 31 31s31 -14 31 -31zM412 279c0 -17 -14 -31 -31 -31s-31 14 -31 31s14 31 31 31s31 -14 31 -31zM474 279c0 -17 -14 -31 -31 -31s-31 14 -31 31s14 31 31 31s31 -14 31 -31zM350 279c0 -17 -14 -31 -31 -31s-31 14 -31 31s14 31 31 31s31 -14 31 -31z
M536 279c0 -17 -14 -31 -31 -31s-31 14 -31 31s14 31 31 31s31 -14 31 -31zM598 279c0 -17 -14 -31 -31 -31s-31 14 -31 31s14 31 31 31s31 -14 31 -31z" />
    <glyph glyph-name="_0152" horiz-adv-x="554" 
d="M122 155c0 -17 -14 -31 -31 -31s-31 14 -31 31s14 31 31 31s31 -14 31 -31zM122 217c0 -17 -14 -31 -31 -31s-31 14 -31 31s14 31 31 31s31 -14 31 -31zM122 279c0 -17 -14 -31 -31 -31s-31 14 -31 31s14 31 31 31s31 -14 31 -31zM122 341c0 -17 -14 -31 -31 -31
s-31 14 -31 31s14 31 31 31s31 -14 31 -31zM122 403c0 -17 -14 -31 -31 -31s-31 14 -31 31s14 31 31 31s31 -14 31 -31zM122 465c0 -17 -14 -31 -31 -31s-31 14 -31 31s14 31 31 31s31 -14 31 -31zM122 527c0 -17 -14 -31 -31 -31s-31 14 -31 31s14 31 31 31s31 -14 31 -31z
M122 93c0 -17 -14 -31 -31 -31s-31 14 -31 31s14 31 31 31s31 -14 31 -31zM184 31c0 -17 -14 -31 -31 -31s-31 14 -31 31s14 31 31 31s31 -14 31 -31zM184 589c0 -17 -14 -31 -31 -31s-31 14 -31 31s14 31 31 31s31 -14 31 -31zM246 31c0 -17 -14 -31 -31 -31s-31 14 -31 31
s14 31 31 31s31 -14 31 -31zM246 589c0 -17 -14 -31 -31 -31s-31 14 -31 31s14 31 31 31s31 -14 31 -31zM308 31c0 -17 -14 -31 -31 -31s-31 14 -31 31s14 31 31 31s31 -14 31 -31zM308 589c0 -17 -14 -31 -31 -31s-31 14 -31 31s14 31 31 31s31 -14 31 -31zM370 31
c0 -17 -14 -31 -31 -31s-31 14 -31 31s14 31 31 31s31 -14 31 -31zM370 589c0 -17 -14 -31 -31 -31s-31 14 -31 31s14 31 31 31s31 -14 31 -31zM432 31c0 -17 -14 -31 -31 -31s-31 14 -31 31s14 31 31 31s31 -14 31 -31zM432 589c0 -17 -14 -31 -31 -31s-31 14 -31 31
s14 31 31 31s31 -14 31 -31zM494 155c0 -17 -14 -31 -31 -31s-31 14 -31 31s14 31 31 31s31 -14 31 -31zM494 217c0 -17 -14 -31 -31 -31s-31 14 -31 31s14 31 31 31s31 -14 31 -31zM494 279c0 -17 -14 -31 -31 -31s-31 14 -31 31s14 31 31 31s31 -14 31 -31zM494 341
c0 -17 -14 -31 -31 -31s-31 14 -31 31s14 31 31 31s31 -14 31 -31zM494 403c0 -17 -14 -31 -31 -31s-31 14 -31 31s14 31 31 31s31 -14 31 -31zM494 465c0 -17 -14 -31 -31 -31s-31 14 -31 31s14 31 31 31s31 -14 31 -31zM494 527c0 -17 -14 -31 -31 -31s-31 14 -31 31
s14 31 31 31s31 -14 31 -31zM494 93c0 -17 -14 -31 -31 -31s-31 14 -31 31s14 31 31 31s31 -14 31 -31z" />
    <glyph glyph-name="trademark" unicode="&#x2122;" horiz-adv-x="598" 
d="M82 589c0 -17 -14 -31 -31 -31s-31 14 -31 31s14 31 31 31s31 -14 31 -31zM144 465c0 -17 -14 -31 -31 -31s-31 14 -31 31s14 31 31 31s31 -14 31 -31zM144 527c0 -17 -14 -31 -31 -31s-31 14 -31 31s14 31 31 31s31 -14 31 -31zM144 589c0 -17 -14 -31 -31 -31
s-31 14 -31 31s14 31 31 31s31 -14 31 -31zM206 589c0 -17 -14 -31 -31 -31s-31 14 -31 31s14 31 31 31s31 -14 31 -31zM330 465c0 -17 -14 -31 -31 -31s-31 14 -31 31s14 31 31 31s31 -14 31 -31zM330 527c0 -17 -14 -31 -31 -31s-31 14 -31 31s14 31 31 31s31 -14 31 -31z
M330 589c0 -17 -14 -31 -31 -31s-31 14 -31 31s14 31 31 31s31 -14 31 -31zM392 527c0 -17 -14 -31 -31 -31s-31 14 -31 31s14 31 31 31s31 -14 31 -31zM454 465c0 -17 -14 -31 -31 -31s-31 14 -31 31s14 31 31 31s31 -14 31 -31zM516 527c0 -17 -14 -31 -31 -31
s-31 14 -31 31s14 31 31 31s31 -14 31 -31zM578 465c0 -17 -14 -31 -31 -31s-31 14 -31 31s14 31 31 31s31 -14 31 -31zM578 527c0 -17 -14 -31 -31 -31s-31 14 -31 31s14 31 31 31s31 -14 31 -31zM578 589c0 -17 -14 -31 -31 -31s-31 14 -31 31s14 31 31 31s31 -14 31 -31z
" />
    <glyph glyph-name="afii10106" unicode="&#x459;" horiz-adv-x="546" 
d="M72 31c0 -17 -14 -31 -31 -31s-31 14 -31 31s14 31 31 31s31 -14 31 -31zM134 93c0 -17 -14 -31 -31 -31s-31 14 -31 31s14 31 31 31s31 -14 31 -31zM320 93c0 -17 -14 -31 -31 -31s-31 14 -31 31s14 31 31 31s31 -14 31 -31zM382 31c0 -17 -14 -31 -31 -31
s-31 14 -31 31s14 31 31 31s31 -14 31 -31zM444 31c0 -17 -14 -31 -31 -31s-31 14 -31 31s14 31 31 31s31 -14 31 -31zM444 279c0 -17 -14 -31 -31 -31s-31 14 -31 31s14 31 31 31s31 -14 31 -31zM506 155c0 -17 -14 -31 -31 -31s-31 14 -31 31s14 31 31 31s31 -14 31 -31z
M506 217c0 -17 -14 -31 -31 -31s-31 14 -31 31s14 31 31 31s31 -14 31 -31zM506 93c0 -17 -14 -31 -31 -31s-31 14 -31 31s14 31 31 31s31 -14 31 -31zM134 155c0 -17 -14 -31 -31 -31s-31 14 -31 31s14 31 31 31s31 -14 31 -31zM134 217c0 -17 -14 -31 -31 -31
s-31 14 -31 31s14 31 31 31s31 -14 31 -31zM134 279c0 -17 -14 -31 -31 -31s-31 14 -31 31s14 31 31 31s31 -14 31 -31zM134 341c0 -17 -14 -31 -31 -31s-31 14 -31 31s14 31 31 31s31 -14 31 -31zM196 403c0 -17 -14 -31 -31 -31s-31 14 -31 31s14 31 31 31s31 -14 31 -31z
M258 403c0 -17 -14 -31 -31 -31s-31 14 -31 31s14 31 31 31s31 -14 31 -31zM320 155c0 -17 -14 -31 -31 -31s-31 14 -31 31s14 31 31 31s31 -14 31 -31zM320 217c0 -17 -14 -31 -31 -31s-31 14 -31 31s14 31 31 31s31 -14 31 -31zM320 279c0 -17 -14 -31 -31 -31
s-31 14 -31 31s14 31 31 31s31 -14 31 -31zM320 341c0 -17 -14 -31 -31 -31s-31 14 -31 31s14 31 31 31s31 -14 31 -31zM320 403c0 -17 -14 -31 -31 -31s-31 14 -31 31s14 31 31 31s31 -14 31 -31zM382 217c0 -17 -14 -31 -31 -31s-31 14 -31 31s14 31 31 31s31 -14 31 -31z
" />
    <glyph glyph-name="guilsinglright" unicode="&#x203a;" horiz-adv-x="328" 
d="M164 155c0 17 14 31 31 31s31 -14 31 -31s-14 -31 -31 -31s-31 14 -31 31zM164 279c0 17 14 31 31 31s31 -14 31 -31s-14 -31 -31 -31s-31 14 -31 31zM226 217c0 17 14 31 31 31s31 -14 31 -31s-14 -31 -31 -31s-31 14 -31 31zM102 93c0 17 14 31 31 31s31 -14 31 -31
s-14 -31 -31 -31s-31 14 -31 31zM40 31c0 17 14 31 31 31s31 -14 31 -31s-14 -31 -31 -31s-31 14 -31 31zM102 341c0 17 14 31 31 31s31 -14 31 -31s-14 -31 -31 -31s-31 14 -31 31zM40 403c0 17 14 31 31 31s31 -14 31 -31s-14 -31 -31 -31s-31 14 -31 31z" />
    <glyph glyph-name="afii10107" unicode="&#x45a;" horiz-adv-x="586" 
d="M112 31c0 -17 -14 -31 -31 -31s-31 14 -31 31s14 31 31 31s31 -14 31 -31zM112 155c0 -17 -14 -31 -31 -31s-31 14 -31 31s14 31 31 31s31 -14 31 -31zM112 217c0 -17 -14 -31 -31 -31s-31 14 -31 31s14 31 31 31s31 -14 31 -31zM112 279c0 -17 -14 -31 -31 -31
s-31 14 -31 31s14 31 31 31s31 -14 31 -31zM112 341c0 -17 -14 -31 -31 -31s-31 14 -31 31s14 31 31 31s31 -14 31 -31zM112 403c0 -17 -14 -31 -31 -31s-31 14 -31 31s14 31 31 31s31 -14 31 -31zM112 93c0 -17 -14 -31 -31 -31s-31 14 -31 31s14 31 31 31s31 -14 31 -31z
M360 93c0 -17 -14 -31 -31 -31s-31 14 -31 31s14 31 31 31s31 -14 31 -31zM422 31c0 -17 -14 -31 -31 -31s-31 14 -31 31s14 31 31 31s31 -14 31 -31zM484 31c0 -17 -14 -31 -31 -31s-31 14 -31 31s14 31 31 31s31 -14 31 -31zM484 279c0 -17 -14 -31 -31 -31s-31 14 -31 31
s14 31 31 31s31 -14 31 -31zM546 155c0 -17 -14 -31 -31 -31s-31 14 -31 31s14 31 31 31s31 -14 31 -31zM546 217c0 -17 -14 -31 -31 -31s-31 14 -31 31s14 31 31 31s31 -14 31 -31zM546 93c0 -17 -14 -31 -31 -31s-31 14 -31 31s14 31 31 31s31 -14 31 -31zM174 217
c0 -17 -14 -31 -31 -31s-31 14 -31 31s14 31 31 31s31 -14 31 -31zM236 217c0 -17 -14 -31 -31 -31s-31 14 -31 31s14 31 31 31s31 -14 31 -31zM298 217c0 -17 -14 -31 -31 -31s-31 14 -31 31s14 31 31 31s31 -14 31 -31zM360 155c0 -17 -14 -31 -31 -31s-31 14 -31 31
s14 31 31 31s31 -14 31 -31zM360 217c0 -17 -14 -31 -31 -31s-31 14 -31 31s14 31 31 31s31 -14 31 -31zM360 279c0 -17 -14 -31 -31 -31s-31 14 -31 31s14 31 31 31s31 -14 31 -31zM360 341c0 -17 -14 -31 -31 -31s-31 14 -31 31s14 31 31 31s31 -14 31 -31zM360 403
c0 -17 -14 -31 -31 -31s-31 14 -31 31s14 31 31 31s31 -14 31 -31zM422 217c0 -17 -14 -31 -31 -31s-31 14 -31 31s14 31 31 31s31 -14 31 -31z" />
    <glyph glyph-name="afii10109" unicode="&#x45c;" horiz-adv-x="442" 
d="M112 31c0 -17 -14 -31 -31 -31s-31 14 -31 31s14 31 31 31s31 -14 31 -31zM112 155c0 -17 -14 -31 -31 -31s-31 14 -31 31s14 31 31 31s31 -14 31 -31zM112 217c0 -17 -14 -31 -31 -31s-31 14 -31 31s14 31 31 31s31 -14 31 -31zM112 279c0 -17 -14 -31 -31 -31
s-31 14 -31 31s14 31 31 31s31 -14 31 -31zM112 341c0 -17 -14 -31 -31 -31s-31 14 -31 31s14 31 31 31s31 -14 31 -31zM112 403c0 -17 -14 -31 -31 -31s-31 14 -31 31s14 31 31 31s31 -14 31 -31zM112 93c0 -17 -14 -31 -31 -31s-31 14 -31 31s14 31 31 31s31 -14 31 -31z
M360 93c0 -17 -14 -31 -31 -31s-31 14 -31 31s14 31 31 31s31 -14 31 -31zM422 31c0 -17 -14 -31 -31 -31s-31 14 -31 31s14 31 31 31s31 -14 31 -31zM174 217c0 -17 -14 -31 -31 -31s-31 14 -31 31s14 31 31 31s31 -14 31 -31zM236 217c0 -17 -14 -31 -31 -31
s-31 14 -31 31s14 31 31 31s31 -14 31 -31zM298 155c0 -17 -14 -31 -31 -31s-31 14 -31 31s14 31 31 31s31 -14 31 -31zM298 279c0 -17 -14 -31 -31 -31s-31 14 -31 31s14 31 31 31s31 -14 31 -31zM360 341c0 -17 -14 -31 -31 -31s-31 14 -31 31s14 31 31 31s31 -14 31 -31z
M422 403c0 -17 -14 -31 -31 -31s-31 14 -31 31s14 31 31 31s31 -14 31 -31zM186 468c0 10 9 18 19 18s19 -8 19 -18c0 -11 -9 -19 -19 -19s-19 8 -19 19zM236 527c0 17 14 31 31 31s31 -14 31 -31s-14 -31 -31 -31s-31 14 -31 31z" />
    <glyph glyph-name="afii10108" unicode="&#x45b;" horiz-adv-x="422" 
d="M124 589c0 -17 -14 -31 -31 -31s-31 14 -31 31s14 31 31 31s31 -14 31 -31zM124 465c0 -17 -14 -31 -31 -31s-31 14 -31 31s14 31 31 31s31 -14 31 -31zM124 403c0 -17 -14 -31 -31 -31s-31 14 -31 31s14 31 31 31s31 -14 31 -31zM124 341c0 -17 -14 -31 -31 -31
s-31 14 -31 31s14 31 31 31s31 -14 31 -31zM124 279c0 -17 -14 -31 -31 -31s-31 14 -31 31s14 31 31 31s31 -14 31 -31zM124 217c0 -17 -14 -31 -31 -31s-31 14 -31 31s14 31 31 31s31 -14 31 -31zM124 155c0 -17 -14 -31 -31 -31s-31 14 -31 31s14 31 31 31s31 -14 31 -31z
M124 93c0 -17 -14 -31 -31 -31s-31 14 -31 31s14 31 31 31s31 -14 31 -31zM124 31c0 -17 -14 -31 -31 -31s-31 14 -31 31s14 31 31 31s31 -14 31 -31zM124 527c0 -17 -14 -31 -31 -31s-31 14 -31 31s14 31 31 31s31 -14 31 -31zM186 341c0 -17 -14 -31 -31 -31
s-31 14 -31 31s14 31 31 31s31 -14 31 -31zM248 403c0 -17 -14 -31 -31 -31s-31 14 -31 31s14 31 31 31s31 -14 31 -31zM310 403c0 -17 -14 -31 -31 -31s-31 14 -31 31s14 31 31 31s31 -14 31 -31zM372 341c0 -17 -14 -31 -31 -31s-31 14 -31 31s14 31 31 31s31 -14 31 -31z
M372 217c0 -17 -14 -31 -31 -31s-31 14 -31 31s14 31 31 31s31 -14 31 -31zM372 155c0 -17 -14 -31 -31 -31s-31 14 -31 31s14 31 31 31s31 -14 31 -31zM62 527c0 -17 -14 -31 -31 -31s-31 14 -31 31s14 31 31 31s31 -14 31 -31zM186 527c0 -17 -14 -31 -31 -31
s-31 14 -31 31s14 31 31 31s31 -14 31 -31zM372 31c0 -17 -14 -31 -31 -31s-31 14 -31 31s14 31 31 31s31 -14 31 -31zM372 93c0 -17 -14 -31 -31 -31s-31 14 -31 31s14 31 31 31s31 -14 31 -31zM372 279c0 -17 -14 -31 -31 -31s-31 14 -31 31s14 31 31 31s31 -14 31 -31z
" />
    <glyph glyph-name="afii10193" unicode="&#x45f;" 
d="M112 403c0 -17 -14 -31 -31 -31s-31 14 -31 31s14 31 31 31s31 -14 31 -31zM112 341c0 -17 -14 -31 -31 -31s-31 14 -31 31s14 31 31 31s31 -14 31 -31zM112 279c0 -17 -14 -31 -31 -31s-31 14 -31 31s14 31 31 31s31 -14 31 -31zM112 217c0 -17 -14 -31 -31 -31
s-31 14 -31 31s14 31 31 31s31 -14 31 -31zM112 155c0 -17 -14 -31 -31 -31s-31 14 -31 31s14 31 31 31s31 -14 31 -31zM112 93c0 -17 -14 -31 -31 -31s-31 14 -31 31s14 31 31 31s31 -14 31 -31zM422 155c0 -17 -14 -31 -31 -31s-31 14 -31 31s14 31 31 31s31 -14 31 -31z
M422 93c0 -17 -14 -31 -31 -31s-31 14 -31 31s14 31 31 31s31 -14 31 -31zM422 31c0 -17 -14 -31 -31 -31s-31 14 -31 31s14 31 31 31s31 -14 31 -31zM174 31c0 -17 -14 -31 -31 -31s-31 14 -31 31s14 31 31 31s31 -14 31 -31zM236 31c0 -17 -14 -31 -31 -31s-31 14 -31 31
s14 31 31 31s31 -14 31 -31zM298 31c0 -17 -14 -31 -31 -31s-31 14 -31 31s14 31 31 31s31 -14 31 -31zM360 31c0 -17 -14 -31 -31 -31s-31 14 -31 31s14 31 31 31s31 -14 31 -31zM422 403c0 -17 -14 -31 -31 -31s-31 14 -31 31s14 31 31 31s31 -14 31 -31zM422 341
c0 -17 -14 -31 -31 -31s-31 14 -31 31s14 31 31 31s31 -14 31 -31zM422 279c0 -17 -14 -31 -31 -31s-31 14 -31 31s14 31 31 31s31 -14 31 -31zM422 217c0 -17 -14 -31 -31 -31s-31 14 -31 31s14 31 31 31s31 -14 31 -31zM267 -93c0 -17 -14 -31 -31 -31s-31 14 -31 31
s14 31 31 31s31 -14 31 -31zM267 -31c0 -17 -14 -31 -31 -31s-31 14 -31 31s14 31 31 31s31 -14 31 -31zM112 31c0 -17 -14 -31 -31 -31s-31 14 -31 31s14 31 31 31s31 -14 31 -31z" />
    <glyph glyph-name="uni00A0" unicode="&#xa0;" horiz-adv-x="554" 
d="M122 155c0 -17 -14 -31 -31 -31s-31 14 -31 31s14 31 31 31s31 -14 31 -31zM122 217c0 -17 -14 -31 -31 -31s-31 14 -31 31s14 31 31 31s31 -14 31 -31zM122 279c0 -17 -14 -31 -31 -31s-31 14 -31 31s14 31 31 31s31 -14 31 -31zM122 341c0 -17 -14 -31 -31 -31
s-31 14 -31 31s14 31 31 31s31 -14 31 -31zM122 403c0 -17 -14 -31 -31 -31s-31 14 -31 31s14 31 31 31s31 -14 31 -31zM122 465c0 -17 -14 -31 -31 -31s-31 14 -31 31s14 31 31 31s31 -14 31 -31zM122 527c0 -17 -14 -31 -31 -31s-31 14 -31 31s14 31 31 31s31 -14 31 -31z
M122 93c0 -17 -14 -31 -31 -31s-31 14 -31 31s14 31 31 31s31 -14 31 -31zM184 31c0 -17 -14 -31 -31 -31s-31 14 -31 31s14 31 31 31s31 -14 31 -31zM184 589c0 -17 -14 -31 -31 -31s-31 14 -31 31s14 31 31 31s31 -14 31 -31zM246 31c0 -17 -14 -31 -31 -31s-31 14 -31 31
s14 31 31 31s31 -14 31 -31zM246 589c0 -17 -14 -31 -31 -31s-31 14 -31 31s14 31 31 31s31 -14 31 -31zM308 31c0 -17 -14 -31 -31 -31s-31 14 -31 31s14 31 31 31s31 -14 31 -31zM308 589c0 -17 -14 -31 -31 -31s-31 14 -31 31s14 31 31 31s31 -14 31 -31zM370 31
c0 -17 -14 -31 -31 -31s-31 14 -31 31s14 31 31 31s31 -14 31 -31zM370 589c0 -17 -14 -31 -31 -31s-31 14 -31 31s14 31 31 31s31 -14 31 -31zM432 31c0 -17 -14 -31 -31 -31s-31 14 -31 31s14 31 31 31s31 -14 31 -31zM432 589c0 -17 -14 -31 -31 -31s-31 14 -31 31
s14 31 31 31s31 -14 31 -31zM494 155c0 -17 -14 -31 -31 -31s-31 14 -31 31s14 31 31 31s31 -14 31 -31zM494 217c0 -17 -14 -31 -31 -31s-31 14 -31 31s14 31 31 31s31 -14 31 -31zM494 279c0 -17 -14 -31 -31 -31s-31 14 -31 31s14 31 31 31s31 -14 31 -31zM494 341
c0 -17 -14 -31 -31 -31s-31 14 -31 31s14 31 31 31s31 -14 31 -31zM494 403c0 -17 -14 -31 -31 -31s-31 14 -31 31s14 31 31 31s31 -14 31 -31zM494 465c0 -17 -14 -31 -31 -31s-31 14 -31 31s14 31 31 31s31 -14 31 -31zM494 527c0 -17 -14 -31 -31 -31s-31 14 -31 31
s14 31 31 31s31 -14 31 -31zM494 93c0 -17 -14 -31 -31 -31s-31 14 -31 31s14 31 31 31s31 -14 31 -31z" />
    <glyph glyph-name="afii10062" unicode="&#x40e;" horiz-adv-x="422" 
d="M72 31c0 -17 -14 -31 -31 -31s-31 14 -31 31s14 31 31 31s31 -14 31 -31zM72 589c0 -17 -14 -31 -31 -31s-31 14 -31 31s14 31 31 31s31 -14 31 -31zM134 31c0 -17 -14 -31 -31 -31s-31 14 -31 31s14 31 31 31s31 -14 31 -31zM134 465c0 -17 -14 -31 -31 -31
s-31 14 -31 31s14 31 31 31s31 -14 31 -31zM134 527c0 -17 -14 -31 -31 -31s-31 14 -31 31s14 31 31 31s31 -14 31 -31zM196 93c0 -17 -14 -31 -31 -31s-31 14 -31 31s14 31 31 31s31 -14 31 -31zM382 465c0 -17 -14 -31 -31 -31s-31 14 -31 31s14 31 31 31s31 -14 31 -31z
M382 527c0 -17 -14 -31 -31 -31s-31 14 -31 31s14 31 31 31s31 -14 31 -31zM382 589c0 -17 -14 -31 -31 -31s-31 14 -31 31s14 31 31 31s31 -14 31 -31zM196 155c0 -17 -14 -31 -31 -31s-31 14 -31 31s14 31 31 31s31 -14 31 -31zM196 341c0 -17 -14 -31 -31 -31
s-31 14 -31 31s14 31 31 31s31 -14 31 -31zM196 403c0 -17 -14 -31 -31 -31s-31 14 -31 31s14 31 31 31s31 -14 31 -31zM258 217c0 -17 -14 -31 -31 -31s-31 14 -31 31s14 31 31 31s31 -14 31 -31zM258 279c0 -17 -14 -31 -31 -31s-31 14 -31 31s14 31 31 31s31 -14 31 -31z
M320 341c0 -17 -14 -31 -31 -31s-31 14 -31 31s14 31 31 31s31 -14 31 -31zM320 403c0 -17 -14 -31 -31 -31s-31 14 -31 31s14 31 31 31s31 -14 31 -31zM134 713c0 -17 -14 -31 -31 -31s-31 14 -31 31s14 31 31 31s31 -14 31 -31zM196 651c0 -17 -14 -31 -31 -31
s-31 14 -31 31s14 31 31 31s31 -14 31 -31zM258 651c0 -17 -14 -31 -31 -31s-31 14 -31 31s14 31 31 31s31 -14 31 -31zM320 713c0 -17 -14 -31 -31 -31s-31 14 -31 31s14 31 31 31s31 -14 31 -31z" />
    <glyph glyph-name="afii10110" unicode="&#x45e;" horiz-adv-x="422" 
d="M82 -93c0 -17 -14 -31 -31 -31s-31 14 -31 31s14 31 31 31s31 -14 31 -31zM82 341c0 -17 -14 -31 -31 -31s-31 14 -31 31s14 31 31 31s31 -14 31 -31zM144 -93c0 -17 -14 -31 -31 -31s-31 14 -31 31s14 31 31 31s31 -14 31 -31zM144 217c0 -17 -14 -31 -31 -31
s-31 14 -31 31s14 31 31 31s31 -14 31 -31zM144 279c0 -17 -14 -31 -31 -31s-31 14 -31 31s14 31 31 31s31 -14 31 -31zM206 -31c0 -17 -14 -31 -31 -31s-31 14 -31 31s14 31 31 31s31 -14 31 -31zM392 341c0 -17 -14 -31 -31 -31s-31 14 -31 31s14 31 31 31s31 -14 31 -31z
M392 403c0 -17 -14 -31 -31 -31s-31 14 -31 31s14 31 31 31s31 -14 31 -31zM206 31c0 -17 -14 -31 -31 -31s-31 14 -31 31s14 31 31 31s31 -14 31 -31zM206 155c0 -17 -14 -31 -31 -31s-31 14 -31 31s14 31 31 31s31 -14 31 -31zM268 93c0 -17 -14 -31 -31 -31
s-31 14 -31 31s14 31 31 31s31 -14 31 -31zM268 155c0 -17 -14 -31 -31 -31s-31 14 -31 31s14 31 31 31s31 -14 31 -31zM330 217c0 -17 -14 -31 -31 -31s-31 14 -31 31s14 31 31 31s31 -14 31 -31zM330 279c0 -17 -14 -31 -31 -31s-31 14 -31 31s14 31 31 31s31 -14 31 -31z
M82 403c0 -17 -14 -31 -31 -31s-31 14 -31 31s14 31 31 31s31 -14 31 -31zM144 558c0 -17 -14 -31 -31 -31s-31 14 -31 31s14 31 31 31s31 -14 31 -31zM206 496c0 -17 -14 -31 -31 -31s-31 14 -31 31s14 31 31 31s31 -14 31 -31zM268 496c0 -17 -14 -31 -31 -31
s-31 14 -31 31s14 31 31 31s31 -14 31 -31zM330 558c0 -17 -14 -31 -31 -31s-31 14 -31 31s14 31 31 31s31 -14 31 -31z" />
    <glyph glyph-name="afii10057" unicode="&#x408;" horiz-adv-x="432" 
d="M62 93c0 -17 -14 -31 -31 -31s-31 14 -31 31s14 31 31 31s31 -14 31 -31zM124 31c0 -17 -14 -31 -31 -31s-31 14 -31 31s14 31 31 31s31 -14 31 -31zM186 31c0 -17 -14 -31 -31 -31s-31 14 -31 31s14 31 31 31s31 -14 31 -31zM248 31c0 -17 -14 -31 -31 -31
s-31 14 -31 31s14 31 31 31s31 -14 31 -31zM248 589c0 -17 -14 -31 -31 -31s-31 14 -31 31s14 31 31 31s31 -14 31 -31zM310 31c0 -17 -14 -31 -31 -31s-31 14 -31 31s14 31 31 31s31 -14 31 -31zM310 589c0 -17 -14 -31 -31 -31s-31 14 -31 31s14 31 31 31s31 -14 31 -31z
M372 465c0 -17 -14 -31 -31 -31s-31 14 -31 31s14 31 31 31s31 -14 31 -31zM372 527c0 -17 -14 -31 -31 -31s-31 14 -31 31s14 31 31 31s31 -14 31 -31zM372 589c0 -17 -14 -31 -31 -31s-31 14 -31 31s14 31 31 31s31 -14 31 -31zM372 93c0 -17 -14 -31 -31 -31
s-31 14 -31 31s14 31 31 31s31 -14 31 -31zM372 155c0 -17 -14 -31 -31 -31s-31 14 -31 31s14 31 31 31s31 -14 31 -31zM372 217c0 -17 -14 -31 -31 -31s-31 14 -31 31s14 31 31 31s31 -14 31 -31zM372 279c0 -17 -14 -31 -31 -31s-31 14 -31 31s14 31 31 31s31 -14 31 -31z
M372 341c0 -17 -14 -31 -31 -31s-31 14 -31 31s14 31 31 31s31 -14 31 -31zM372 403c0 -17 -14 -31 -31 -31s-31 14 -31 31s14 31 31 31s31 -14 31 -31z" />
    <glyph glyph-name="currency" unicode="&#xa4;" horiz-adv-x="474" 
d="M62 155c0 -17 -14 -31 -31 -31s-31 14 -31 31s14 31 31 31s31 -14 31 -31zM124 31c0 -17 -14 -31 -31 -31s-31 14 -31 31s14 31 31 31s31 -14 31 -31zM124 465c0 -17 -14 -31 -31 -31s-31 14 -31 31s14 31 31 31s31 -14 31 -31zM124 527c0 -17 -14 -31 -31 -31
s-31 14 -31 31s14 31 31 31s31 -14 31 -31zM124 589c0 -17 -14 -31 -31 -31s-31 14 -31 31s14 31 31 31s31 -14 31 -31zM124 93c0 -17 -14 -31 -31 -31s-31 14 -31 31s14 31 31 31s31 -14 31 -31zM186 589c0 -17 -14 -31 -31 -31s-31 14 -31 31s14 31 31 31s31 -14 31 -31z
M248 589c0 -17 -14 -31 -31 -31s-31 14 -31 31s14 31 31 31s31 -14 31 -31zM310 589c0 -17 -14 -31 -31 -31s-31 14 -31 31s14 31 31 31s31 -14 31 -31zM372 589c0 -17 -14 -31 -31 -31s-31 14 -31 31s14 31 31 31s31 -14 31 -31zM434 341c0 -17 -14 -31 -31 -31
s-31 14 -31 31s14 31 31 31s31 -14 31 -31zM434 403c0 -17 -14 -31 -31 -31s-31 14 -31 31s14 31 31 31s31 -14 31 -31zM434 465c0 -17 -14 -31 -31 -31s-31 14 -31 31s14 31 31 31s31 -14 31 -31zM434 527c0 -17 -14 -31 -31 -31s-31 14 -31 31s14 31 31 31s31 -14 31 -31z
M124 155c0 -17 -14 -31 -31 -31s-31 14 -31 31s14 31 31 31s31 -14 31 -31zM124 217c0 -17 -14 -31 -31 -31s-31 14 -31 31s14 31 31 31s31 -14 31 -31zM124 279c0 -17 -14 -31 -31 -31s-31 14 -31 31s14 31 31 31s31 -14 31 -31zM124 341c0 -17 -14 -31 -31 -31
s-31 14 -31 31s14 31 31 31s31 -14 31 -31zM124 403c0 -17 -14 -31 -31 -31s-31 14 -31 31s14 31 31 31s31 -14 31 -31zM186 155c0 -17 -14 -31 -31 -31s-31 14 -31 31s14 31 31 31s31 -14 31 -31zM186 279c0 -17 -14 -31 -31 -31s-31 14 -31 31s14 31 31 31s31 -14 31 -31z
M248 155c0 -17 -14 -31 -31 -31s-31 14 -31 31s14 31 31 31s31 -14 31 -31zM248 279c0 -17 -14 -31 -31 -31s-31 14 -31 31s14 31 31 31s31 -14 31 -31zM310 155c0 -17 -14 -31 -31 -31s-31 14 -31 31s14 31 31 31s31 -14 31 -31zM310 279c0 -17 -14 -31 -31 -31
s-31 14 -31 31s14 31 31 31s31 -14 31 -31zM372 155c0 -17 -14 -31 -31 -31s-31 14 -31 31s14 31 31 31s31 -14 31 -31zM372 279c0 -17 -14 -31 -31 -31s-31 14 -31 31s14 31 31 31s31 -14 31 -31z" />
    <glyph glyph-name="afii10050" unicode="&#x490;" horiz-adv-x="390" 
d="M122 31c0 -17 -14 -31 -31 -31s-31 14 -31 31s14 31 31 31s31 -14 31 -31zM122 155c0 -17 -14 -31 -31 -31s-31 14 -31 31s14 31 31 31s31 -14 31 -31zM122 217c0 -17 -14 -31 -31 -31s-31 14 -31 31s14 31 31 31s31 -14 31 -31zM122 279c0 -17 -14 -31 -31 -31
s-31 14 -31 31s14 31 31 31s31 -14 31 -31zM122 341c0 -17 -14 -31 -31 -31s-31 14 -31 31s14 31 31 31s31 -14 31 -31zM122 403c0 -17 -14 -31 -31 -31s-31 14 -31 31s14 31 31 31s31 -14 31 -31zM122 465c0 -17 -14 -31 -31 -31s-31 14 -31 31s14 31 31 31s31 -14 31 -31z
M122 527c0 -17 -14 -31 -31 -31s-31 14 -31 31s14 31 31 31s31 -14 31 -31zM122 589c0 -17 -14 -31 -31 -31s-31 14 -31 31s14 31 31 31s31 -14 31 -31zM122 93c0 -17 -14 -31 -31 -31s-31 14 -31 31s14 31 31 31s31 -14 31 -31zM184 589c0 -17 -14 -31 -31 -31
s-31 14 -31 31s14 31 31 31s31 -14 31 -31zM246 589c0 -17 -14 -31 -31 -31s-31 14 -31 31s14 31 31 31s31 -14 31 -31zM308 589c0 -17 -14 -31 -31 -31s-31 14 -31 31s14 31 31 31s31 -14 31 -31zM370 589c0 -17 -14 -31 -31 -31s-31 14 -31 31s14 31 31 31s31 -14 31 -31z
M370 651c0 -17 -14 -31 -31 -31s-31 14 -31 31s14 31 31 31s31 -14 31 -31z" />
    <glyph glyph-name="brokenbar" unicode="&#xa6;" horiz-adv-x="182" 
d="M122 31c0 -17 -14 -31 -31 -31s-31 14 -31 31s14 31 31 31s31 -14 31 -31zM122 465c0 -17 -14 -31 -31 -31s-31 14 -31 31s14 31 31 31s31 -14 31 -31zM122 527c0 -17 -14 -31 -31 -31s-31 14 -31 31s14 31 31 31s31 -14 31 -31zM122 589c0 -17 -14 -31 -31 -31
s-31 14 -31 31s14 31 31 31s31 -14 31 -31zM122 93c0 -17 -14 -31 -31 -31s-31 14 -31 31s14 31 31 31s31 -14 31 -31zM122 155c0 -17 -14 -31 -31 -31s-31 14 -31 31s14 31 31 31s31 -14 31 -31zM122 217c0 -17 -14 -31 -31 -31s-31 14 -31 31s14 31 31 31s31 -14 31 -31z
M122 403c0 -17 -14 -31 -31 -31s-31 14 -31 31s14 31 31 31s31 -14 31 -31z" />
    <glyph glyph-name="section" unicode="&#xa7;" horiz-adv-x="390" 
d="M102 217c0 -17 -14 -31 -31 -31s-31 14 -31 31s14 31 31 31s31 -14 31 -31zM102 279c0 -17 -14 -31 -31 -31s-31 14 -31 31s14 31 31 31s31 -14 31 -31zM102 341c0 -17 -14 -31 -31 -31s-31 14 -31 31s14 31 31 31s31 -14 31 -31zM102 465c0 -17 -14 -31 -31 -31
s-31 14 -31 31s14 31 31 31s31 -14 31 -31zM102 527c0 -17 -14 -31 -31 -31s-31 14 -31 31s14 31 31 31s31 -14 31 -31zM164 589c0 -17 -14 -31 -31 -31s-31 14 -31 31s14 31 31 31s31 -14 31 -31zM226 589c0 -17 -14 -31 -31 -31s-31 14 -31 31s14 31 31 31s31 -14 31 -31z
M226 93c0 -17 -14 -31 -31 -31s-31 14 -31 31s14 31 31 31s31 -14 31 -31zM288 589c0 -17 -14 -31 -31 -31s-31 14 -31 31s14 31 31 31s31 -14 31 -31zM288 93c0 -17 -14 -31 -31 -31s-31 14 -31 31s14 31 31 31s31 -14 31 -31zM350 31c0 -17 -14 -31 -31 -31s-31 14 -31 31
s14 31 31 31s31 -14 31 -31zM350 527c0 -17 -14 -31 -31 -31s-31 14 -31 31s14 31 31 31s31 -14 31 -31zM164 155c0 -17 -14 -31 -31 -31s-31 14 -31 31s14 31 31 31s31 -14 31 -31zM164 403c0 -17 -14 -31 -31 -31s-31 14 -31 31s14 31 31 31s31 -14 31 -31zM226 403
c0 -17 -14 -31 -31 -31s-31 14 -31 31s14 31 31 31s31 -14 31 -31zM288 341c0 -17 -14 -31 -31 -31s-31 14 -31 31s14 31 31 31s31 -14 31 -31zM350 155c0 -17 -14 -31 -31 -31s-31 14 -31 31s14 31 31 31s31 -14 31 -31zM350 217c0 -17 -14 -31 -31 -31s-31 14 -31 31
s14 31 31 31s31 -14 31 -31zM350 279c0 -17 -14 -31 -31 -31s-31 14 -31 31s14 31 31 31s31 -14 31 -31zM102 -31c0 -17 -14 -31 -31 -31s-31 14 -31 31s14 31 31 31s31 -14 31 -31zM164 -93c0 -17 -14 -31 -31 -31s-31 14 -31 31s14 31 31 31s31 -14 31 -31zM226 -93
c0 -17 -14 -31 -31 -31s-31 14 -31 31s14 31 31 31s31 -14 31 -31zM288 -93c0 -17 -14 -31 -31 -31s-31 14 -31 31s14 31 31 31s31 -14 31 -31zM350 -31c0 -17 -14 -31 -31 -31s-31 14 -31 31s14 31 31 31s31 -14 31 -31z" />
    <glyph glyph-name="afii10023" unicode="&#x401;" horiz-adv-x="390" 
d="M122 31c0 -17 -14 -31 -31 -31s-31 14 -31 31s14 31 31 31s31 -14 31 -31zM122 155c0 -17 -14 -31 -31 -31s-31 14 -31 31s14 31 31 31s31 -14 31 -31zM122 217c0 -17 -14 -31 -31 -31s-31 14 -31 31s14 31 31 31s31 -14 31 -31zM122 279c0 -17 -14 -31 -31 -31
s-31 14 -31 31s14 31 31 31s31 -14 31 -31zM122 341c0 -17 -14 -31 -31 -31s-31 14 -31 31s14 31 31 31s31 -14 31 -31zM122 403c0 -17 -14 -31 -31 -31s-31 14 -31 31s14 31 31 31s31 -14 31 -31zM122 465c0 -17 -14 -31 -31 -31s-31 14 -31 31s14 31 31 31s31 -14 31 -31z
M122 527c0 -17 -14 -31 -31 -31s-31 14 -31 31s14 31 31 31s31 -14 31 -31zM122 589c0 -17 -14 -31 -31 -31s-31 14 -31 31s14 31 31 31s31 -14 31 -31zM122 93c0 -17 -14 -31 -31 -31s-31 14 -31 31s14 31 31 31s31 -14 31 -31zM184 31c0 -17 -14 -31 -31 -31
s-31 14 -31 31s14 31 31 31s31 -14 31 -31zM184 589c0 -17 -14 -31 -31 -31s-31 14 -31 31s14 31 31 31s31 -14 31 -31zM246 31c0 -17 -14 -31 -31 -31s-31 14 -31 31s14 31 31 31s31 -14 31 -31zM246 589c0 -17 -14 -31 -31 -31s-31 14 -31 31s14 31 31 31s31 -14 31 -31z
M308 31c0 -17 -14 -31 -31 -31s-31 14 -31 31s14 31 31 31s31 -14 31 -31zM308 589c0 -17 -14 -31 -31 -31s-31 14 -31 31s14 31 31 31s31 -14 31 -31zM370 31c0 -17 -14 -31 -31 -31s-31 14 -31 31s14 31 31 31s31 -14 31 -31zM370 589c0 -17 -14 -31 -31 -31
s-31 14 -31 31s14 31 31 31s31 -14 31 -31zM184 341c0 -17 -14 -31 -31 -31s-31 14 -31 31s14 31 31 31s31 -14 31 -31zM246 341c0 -17 -14 -31 -31 -31s-31 14 -31 31s14 31 31 31s31 -14 31 -31zM308 341c0 -17 -14 -31 -31 -31s-31 14 -31 31s14 31 31 31s31 -14 31 -31z
M195 703c0 -23 -19 -42 -42 -42s-42 19 -42 42c0 22 19 41 42 41s42 -19 42 -41zM319 703c0 -23 -19 -42 -42 -42s-42 19 -42 42c0 22 19 41 42 41s42 -19 42 -41z" />
    <glyph glyph-name="copyright" unicode="&#xa9;" horiz-adv-x="554" 
d="M122 155c0 -17 -14 -31 -31 -31s-31 14 -31 31s14 31 31 31s31 -14 31 -31zM122 217c0 -17 -14 -31 -31 -31s-31 14 -31 31s14 31 31 31s31 -14 31 -31zM122 279c0 -17 -14 -31 -31 -31s-31 14 -31 31s14 31 31 31s31 -14 31 -31zM122 341c0 -17 -14 -31 -31 -31
s-31 14 -31 31s14 31 31 31s31 -14 31 -31zM122 403c0 -17 -14 -31 -31 -31s-31 14 -31 31s14 31 31 31s31 -14 31 -31zM122 465c0 -17 -14 -31 -31 -31s-31 14 -31 31s14 31 31 31s31 -14 31 -31zM122 527c0 -17 -14 -31 -31 -31s-31 14 -31 31s14 31 31 31s31 -14 31 -31z
M122 93c0 -17 -14 -31 -31 -31s-31 14 -31 31s14 31 31 31s31 -14 31 -31zM184 31c0 -17 -14 -31 -31 -31s-31 14 -31 31s14 31 31 31s31 -14 31 -31zM184 589c0 -17 -14 -31 -31 -31s-31 14 -31 31s14 31 31 31s31 -14 31 -31zM246 31c0 -17 -14 -31 -31 -31s-31 14 -31 31
s14 31 31 31s31 -14 31 -31zM246 589c0 -17 -14 -31 -31 -31s-31 14 -31 31s14 31 31 31s31 -14 31 -31zM308 31c0 -17 -14 -31 -31 -31s-31 14 -31 31s14 31 31 31s31 -14 31 -31zM308 465c0 -17 -14 -31 -31 -31s-31 14 -31 31s14 31 31 31s31 -14 31 -31zM308 589
c0 -17 -14 -31 -31 -31s-31 14 -31 31s14 31 31 31s31 -14 31 -31zM370 31c0 -17 -14 -31 -31 -31s-31 14 -31 31s14 31 31 31s31 -14 31 -31zM370 465c0 -17 -14 -31 -31 -31s-31 14 -31 31s14 31 31 31s31 -14 31 -31zM370 589c0 -17 -14 -31 -31 -31s-31 14 -31 31
s14 31 31 31s31 -14 31 -31zM432 31c0 -17 -14 -31 -31 -31s-31 14 -31 31s14 31 31 31s31 -14 31 -31zM432 589c0 -17 -14 -31 -31 -31s-31 14 -31 31s14 31 31 31s31 -14 31 -31zM246 217c0 -17 -14 -31 -31 -31s-31 14 -31 31s14 31 31 31s31 -14 31 -31zM246 279
c0 -17 -14 -31 -31 -31s-31 14 -31 31s14 31 31 31s31 -14 31 -31zM246 341c0 -17 -14 -31 -31 -31s-31 14 -31 31s14 31 31 31s31 -14 31 -31zM246 403c0 -17 -14 -31 -31 -31s-31 14 -31 31s14 31 31 31s31 -14 31 -31zM308 155c0 -17 -14 -31 -31 -31s-31 14 -31 31
s14 31 31 31s31 -14 31 -31zM370 155c0 -17 -14 -31 -31 -31s-31 14 -31 31s14 31 31 31s31 -14 31 -31zM494 155c0 -17 -14 -31 -31 -31s-31 14 -31 31s14 31 31 31s31 -14 31 -31zM494 217c0 -17 -14 -31 -31 -31s-31 14 -31 31s14 31 31 31s31 -14 31 -31zM494 279
c0 -17 -14 -31 -31 -31s-31 14 -31 31s14 31 31 31s31 -14 31 -31zM494 341c0 -17 -14 -31 -31 -31s-31 14 -31 31s14 31 31 31s31 -14 31 -31zM494 403c0 -17 -14 -31 -31 -31s-31 14 -31 31s14 31 31 31s31 -14 31 -31zM494 465c0 -17 -14 -31 -31 -31s-31 14 -31 31
s14 31 31 31s31 -14 31 -31zM494 527c0 -17 -14 -31 -31 -31s-31 14 -31 31s14 31 31 31s31 -14 31 -31zM494 93c0 -17 -14 -31 -31 -31s-31 14 -31 31s14 31 31 31s31 -14 31 -31zM246 465c0 -17 -14 -31 -31 -31s-31 14 -31 31s14 31 31 31s31 -14 31 -31zM246 155
c0 -17 -14 -31 -31 -31s-31 14 -31 31s14 31 31 31s31 -14 31 -31z" />
    <glyph glyph-name="afii10053" unicode="&#x404;" horiz-adv-x="452" 
d="M122 155c0 -17 -14 -31 -31 -31s-31 14 -31 31s14 31 31 31s31 -14 31 -31zM122 217c0 -17 -14 -31 -31 -31s-31 14 -31 31s14 31 31 31s31 -14 31 -31zM122 279c0 -17 -14 -31 -31 -31s-31 14 -31 31s14 31 31 31s31 -14 31 -31zM122 341c0 -17 -14 -31 -31 -31
s-31 14 -31 31s14 31 31 31s31 -14 31 -31zM122 403c0 -17 -14 -31 -31 -31s-31 14 -31 31s14 31 31 31s31 -14 31 -31zM122 465c0 -17 -14 -31 -31 -31s-31 14 -31 31s14 31 31 31s31 -14 31 -31zM122 527c0 -17 -14 -31 -31 -31s-31 14 -31 31s14 31 31 31s31 -14 31 -31z
M122 93c0 -17 -14 -31 -31 -31s-31 14 -31 31s14 31 31 31s31 -14 31 -31zM184 31c0 -17 -14 -31 -31 -31s-31 14 -31 31s14 31 31 31s31 -14 31 -31zM184 589c0 -17 -14 -31 -31 -31s-31 14 -31 31s14 31 31 31s31 -14 31 -31zM246 31c0 -17 -14 -31 -31 -31s-31 14 -31 31
s14 31 31 31s31 -14 31 -31zM246 589c0 -17 -14 -31 -31 -31s-31 14 -31 31s14 31 31 31s31 -14 31 -31zM308 31c0 -17 -14 -31 -31 -31s-31 14 -31 31s14 31 31 31s31 -14 31 -31zM308 589c0 -17 -14 -31 -31 -31s-31 14 -31 31s14 31 31 31s31 -14 31 -31zM370 31
c0 -17 -14 -31 -31 -31s-31 14 -31 31s14 31 31 31s31 -14 31 -31zM370 589c0 -17 -14 -31 -31 -31s-31 14 -31 31s14 31 31 31s31 -14 31 -31zM432 31c0 -17 -14 -31 -31 -31s-31 14 -31 31s14 31 31 31s31 -14 31 -31zM432 527c0 -17 -14 -31 -31 -31s-31 14 -31 31
s14 31 31 31s31 -14 31 -31zM184 341c0 -17 -14 -31 -31 -31s-31 14 -31 31s14 31 31 31s31 -14 31 -31zM246 341c0 -17 -14 -31 -31 -31s-31 14 -31 31s14 31 31 31s31 -14 31 -31zM308 341c0 -17 -14 -31 -31 -31s-31 14 -31 31s14 31 31 31s31 -14 31 -31z" />
    <glyph glyph-name="guillemotleft" unicode="&#xab;" horiz-adv-x="390" 
d="M288 155c0 -17 -14 -31 -31 -31s-31 14 -31 31s14 31 31 31s31 -14 31 -31zM288 279c0 -17 -14 -31 -31 -31s-31 14 -31 31s14 31 31 31s31 -14 31 -31zM350 341c0 -17 -14 -31 -31 -31s-31 14 -31 31s14 31 31 31s31 -14 31 -31zM350 93c0 -17 -14 -31 -31 -31
s-31 14 -31 31s14 31 31 31s31 -14 31 -31zM226 217c0 -17 -14 -31 -31 -31s-31 14 -31 31s14 31 31 31s31 -14 31 -31zM164 155c0 -17 -14 -31 -31 -31s-31 14 -31 31s14 31 31 31s31 -14 31 -31zM164 279c0 -17 -14 -31 -31 -31s-31 14 -31 31s14 31 31 31s31 -14 31 -31z
M226 341c0 -17 -14 -31 -31 -31s-31 14 -31 31s14 31 31 31s31 -14 31 -31zM226 93c0 -17 -14 -31 -31 -31s-31 14 -31 31s14 31 31 31s31 -14 31 -31zM102 217c0 -17 -14 -31 -31 -31s-31 14 -31 31s14 31 31 31s31 -14 31 -31z" />
    <glyph glyph-name="logicalnot" unicode="&#xac;" horiz-adv-x="554" 
d="M122 155c0 -17 -14 -31 -31 -31s-31 14 -31 31s14 31 31 31s31 -14 31 -31zM122 217c0 -17 -14 -31 -31 -31s-31 14 -31 31s14 31 31 31s31 -14 31 -31zM122 279c0 -17 -14 -31 -31 -31s-31 14 -31 31s14 31 31 31s31 -14 31 -31zM122 341c0 -17 -14 -31 -31 -31
s-31 14 -31 31s14 31 31 31s31 -14 31 -31zM122 403c0 -17 -14 -31 -31 -31s-31 14 -31 31s14 31 31 31s31 -14 31 -31zM122 465c0 -17 -14 -31 -31 -31s-31 14 -31 31s14 31 31 31s31 -14 31 -31zM122 527c0 -17 -14 -31 -31 -31s-31 14 -31 31s14 31 31 31s31 -14 31 -31z
M122 93c0 -17 -14 -31 -31 -31s-31 14 -31 31s14 31 31 31s31 -14 31 -31zM184 31c0 -17 -14 -31 -31 -31s-31 14 -31 31s14 31 31 31s31 -14 31 -31zM184 589c0 -17 -14 -31 -31 -31s-31 14 -31 31s14 31 31 31s31 -14 31 -31zM246 31c0 -17 -14 -31 -31 -31s-31 14 -31 31
s14 31 31 31s31 -14 31 -31zM246 589c0 -17 -14 -31 -31 -31s-31 14 -31 31s14 31 31 31s31 -14 31 -31zM308 31c0 -17 -14 -31 -31 -31s-31 14 -31 31s14 31 31 31s31 -14 31 -31zM308 589c0 -17 -14 -31 -31 -31s-31 14 -31 31s14 31 31 31s31 -14 31 -31zM370 31
c0 -17 -14 -31 -31 -31s-31 14 -31 31s14 31 31 31s31 -14 31 -31zM370 589c0 -17 -14 -31 -31 -31s-31 14 -31 31s14 31 31 31s31 -14 31 -31zM432 31c0 -17 -14 -31 -31 -31s-31 14 -31 31s14 31 31 31s31 -14 31 -31zM432 589c0 -17 -14 -31 -31 -31s-31 14 -31 31
s14 31 31 31s31 -14 31 -31zM494 155c0 -17 -14 -31 -31 -31s-31 14 -31 31s14 31 31 31s31 -14 31 -31zM494 217c0 -17 -14 -31 -31 -31s-31 14 -31 31s14 31 31 31s31 -14 31 -31zM494 279c0 -17 -14 -31 -31 -31s-31 14 -31 31s14 31 31 31s31 -14 31 -31zM494 341
c0 -17 -14 -31 -31 -31s-31 14 -31 31s14 31 31 31s31 -14 31 -31zM494 403c0 -17 -14 -31 -31 -31s-31 14 -31 31s14 31 31 31s31 -14 31 -31zM494 465c0 -17 -14 -31 -31 -31s-31 14 -31 31s14 31 31 31s31 -14 31 -31zM494 527c0 -17 -14 -31 -31 -31s-31 14 -31 31
s14 31 31 31s31 -14 31 -31zM494 93c0 -17 -14 -31 -31 -31s-31 14 -31 31s14 31 31 31s31 -14 31 -31z" />
    <glyph glyph-name="uni00AD" unicode="&#xad;" horiz-adv-x="328" 
d="M164 279c0 -17 -14 -31 -31 -31s-31 14 -31 31s14 31 31 31s31 -14 31 -31zM226 279c0 -17 -14 -31 -31 -31s-31 14 -31 31s14 31 31 31s31 -14 31 -31zM288 279c0 -17 -14 -31 -31 -31s-31 14 -31 31s14 31 31 31s31 -14 31 -31zM102 279c0 -17 -14 -31 -31 -31
s-31 14 -31 31s14 31 31 31s31 -14 31 -31z" />
    <glyph glyph-name="registered" unicode="&#xae;" horiz-adv-x="554" 
d="M122 155c0 -17 -14 -31 -31 -31s-31 14 -31 31s14 31 31 31s31 -14 31 -31zM122 217c0 -17 -14 -31 -31 -31s-31 14 -31 31s14 31 31 31s31 -14 31 -31zM122 279c0 -17 -14 -31 -31 -31s-31 14 -31 31s14 31 31 31s31 -14 31 -31zM122 341c0 -17 -14 -31 -31 -31
s-31 14 -31 31s14 31 31 31s31 -14 31 -31zM122 403c0 -17 -14 -31 -31 -31s-31 14 -31 31s14 31 31 31s31 -14 31 -31zM122 465c0 -17 -14 -31 -31 -31s-31 14 -31 31s14 31 31 31s31 -14 31 -31zM122 527c0 -17 -14 -31 -31 -31s-31 14 -31 31s14 31 31 31s31 -14 31 -31z
M122 93c0 -17 -14 -31 -31 -31s-31 14 -31 31s14 31 31 31s31 -14 31 -31zM184 31c0 -17 -14 -31 -31 -31s-31 14 -31 31s14 31 31 31s31 -14 31 -31zM184 589c0 -17 -14 -31 -31 -31s-31 14 -31 31s14 31 31 31s31 -14 31 -31zM246 31c0 -17 -14 -31 -31 -31s-31 14 -31 31
s14 31 31 31s31 -14 31 -31zM246 589c0 -17 -14 -31 -31 -31s-31 14 -31 31s14 31 31 31s31 -14 31 -31zM308 31c0 -17 -14 -31 -31 -31s-31 14 -31 31s14 31 31 31s31 -14 31 -31zM308 465c0 -17 -14 -31 -31 -31s-31 14 -31 31s14 31 31 31s31 -14 31 -31zM308 589
c0 -17 -14 -31 -31 -31s-31 14 -31 31s14 31 31 31s31 -14 31 -31zM370 31c0 -17 -14 -31 -31 -31s-31 14 -31 31s14 31 31 31s31 -14 31 -31zM370 465c0 -17 -14 -31 -31 -31s-31 14 -31 31s14 31 31 31s31 -14 31 -31zM370 589c0 -17 -14 -31 -31 -31s-31 14 -31 31
s14 31 31 31s31 -14 31 -31zM432 31c0 -17 -14 -31 -31 -31s-31 14 -31 31s14 31 31 31s31 -14 31 -31zM432 589c0 -17 -14 -31 -31 -31s-31 14 -31 31s14 31 31 31s31 -14 31 -31zM246 217c0 -17 -14 -31 -31 -31s-31 14 -31 31s14 31 31 31s31 -14 31 -31zM246 341
c0 -17 -14 -31 -31 -31s-31 14 -31 31s14 31 31 31s31 -14 31 -31zM246 403c0 -17 -14 -31 -31 -31s-31 14 -31 31s14 31 31 31s31 -14 31 -31zM494 155c0 -17 -14 -31 -31 -31s-31 14 -31 31s14 31 31 31s31 -14 31 -31zM494 217c0 -17 -14 -31 -31 -31s-31 14 -31 31
s14 31 31 31s31 -14 31 -31zM494 279c0 -17 -14 -31 -31 -31s-31 14 -31 31s14 31 31 31s31 -14 31 -31zM494 341c0 -17 -14 -31 -31 -31s-31 14 -31 31s14 31 31 31s31 -14 31 -31zM494 403c0 -17 -14 -31 -31 -31s-31 14 -31 31s14 31 31 31s31 -14 31 -31zM494 465
c0 -17 -14 -31 -31 -31s-31 14 -31 31s14 31 31 31s31 -14 31 -31zM494 527c0 -17 -14 -31 -31 -31s-31 14 -31 31s14 31 31 31s31 -14 31 -31zM494 93c0 -17 -14 -31 -31 -31s-31 14 -31 31s14 31 31 31s31 -14 31 -31zM246 155c0 -17 -14 -31 -31 -31s-31 14 -31 31
s14 31 31 31s31 -14 31 -31zM246 279c0 17 14 31 31 31s31 -14 31 -31s-14 -31 -31 -31s-31 14 -31 31zM184 279c0 17 14 31 31 31s31 -14 31 -31s-14 -31 -31 -31s-31 14 -31 31zM308 403c0 17 14 31 31 31s31 -14 31 -31s-14 -31 -31 -31s-31 14 -31 31zM308 341
c0 17 14 31 31 31s31 -14 31 -31s-14 -31 -31 -31s-31 14 -31 31zM184 465c0 17 14 31 31 31s31 -14 31 -31s-14 -31 -31 -31s-31 14 -31 31zM370 279c0 -17 -14 -31 -31 -31s-31 14 -31 31s14 31 31 31s31 -14 31 -31zM308 217c0 -17 -14 -31 -31 -31s-31 14 -31 31
s14 31 31 31s31 -14 31 -31zM370 155c0 -17 -14 -31 -31 -31s-31 14 -31 31s14 31 31 31s31 -14 31 -31z" />
    <glyph glyph-name="afii10056" unicode="&#x407;" horiz-adv-x="253" 
d="M95 31c0 -17 -14 -31 -31 -31s-31 14 -31 31s14 31 31 31s31 -14 31 -31zM95 589c0 -17 -14 -31 -31 -31s-31 14 -31 31s14 31 31 31s31 -14 31 -31zM157 31c0 -17 -14 -31 -31 -31s-31 14 -31 31s14 31 31 31s31 -14 31 -31zM157 465c0 -17 -14 -31 -31 -31
s-31 14 -31 31s14 31 31 31s31 -14 31 -31zM157 527c0 -17 -14 -31 -31 -31s-31 14 -31 31s14 31 31 31s31 -14 31 -31zM157 589c0 -17 -14 -31 -31 -31s-31 14 -31 31s14 31 31 31s31 -14 31 -31zM157 93c0 -17 -14 -31 -31 -31s-31 14 -31 31s14 31 31 31s31 -14 31 -31z
M219 31c0 -17 -14 -31 -31 -31s-31 14 -31 31s14 31 31 31s31 -14 31 -31zM219 589c0 -17 -14 -31 -31 -31s-31 14 -31 31s14 31 31 31s31 -14 31 -31zM157 155c0 -17 -14 -31 -31 -31s-31 14 -31 31s14 31 31 31s31 -14 31 -31zM157 217c0 -17 -14 -31 -31 -31
s-31 14 -31 31s14 31 31 31s31 -14 31 -31zM157 279c0 -17 -14 -31 -31 -31s-31 14 -31 31s14 31 31 31s31 -14 31 -31zM157 341c0 -17 -14 -31 -31 -31s-31 14 -31 31s14 31 31 31s31 -14 31 -31zM157 403c0 -17 -14 -31 -31 -31s-31 14 -31 31s14 31 31 31s31 -14 31 -31z
M243 726c0 -23 -19 -42 -42 -42s-42 19 -42 42c0 22 19 41 42 41s42 -19 42 -41zM94 726c0 -23 -19 -42 -42 -42s-42 19 -42 42c0 22 19 41 42 41s42 -19 42 -41z" />
    <glyph glyph-name="degree" unicode="&#xb0;" horiz-adv-x="554" 
d="M122 155c0 -17 -14 -31 -31 -31s-31 14 -31 31s14 31 31 31s31 -14 31 -31zM122 217c0 -17 -14 -31 -31 -31s-31 14 -31 31s14 31 31 31s31 -14 31 -31zM122 279c0 -17 -14 -31 -31 -31s-31 14 -31 31s14 31 31 31s31 -14 31 -31zM122 341c0 -17 -14 -31 -31 -31
s-31 14 -31 31s14 31 31 31s31 -14 31 -31zM122 403c0 -17 -14 -31 -31 -31s-31 14 -31 31s14 31 31 31s31 -14 31 -31zM122 465c0 -17 -14 -31 -31 -31s-31 14 -31 31s14 31 31 31s31 -14 31 -31zM122 527c0 -17 -14 -31 -31 -31s-31 14 -31 31s14 31 31 31s31 -14 31 -31z
M122 93c0 -17 -14 -31 -31 -31s-31 14 -31 31s14 31 31 31s31 -14 31 -31zM184 31c0 -17 -14 -31 -31 -31s-31 14 -31 31s14 31 31 31s31 -14 31 -31zM184 589c0 -17 -14 -31 -31 -31s-31 14 -31 31s14 31 31 31s31 -14 31 -31zM246 31c0 -17 -14 -31 -31 -31s-31 14 -31 31
s14 31 31 31s31 -14 31 -31zM246 589c0 -17 -14 -31 -31 -31s-31 14 -31 31s14 31 31 31s31 -14 31 -31zM308 31c0 -17 -14 -31 -31 -31s-31 14 -31 31s14 31 31 31s31 -14 31 -31zM308 589c0 -17 -14 -31 -31 -31s-31 14 -31 31s14 31 31 31s31 -14 31 -31zM370 31
c0 -17 -14 -31 -31 -31s-31 14 -31 31s14 31 31 31s31 -14 31 -31zM370 589c0 -17 -14 -31 -31 -31s-31 14 -31 31s14 31 31 31s31 -14 31 -31zM432 31c0 -17 -14 -31 -31 -31s-31 14 -31 31s14 31 31 31s31 -14 31 -31zM432 589c0 -17 -14 -31 -31 -31s-31 14 -31 31
s14 31 31 31s31 -14 31 -31zM494 155c0 -17 -14 -31 -31 -31s-31 14 -31 31s14 31 31 31s31 -14 31 -31zM494 217c0 -17 -14 -31 -31 -31s-31 14 -31 31s14 31 31 31s31 -14 31 -31zM494 279c0 -17 -14 -31 -31 -31s-31 14 -31 31s14 31 31 31s31 -14 31 -31zM494 341
c0 -17 -14 -31 -31 -31s-31 14 -31 31s14 31 31 31s31 -14 31 -31zM494 403c0 -17 -14 -31 -31 -31s-31 14 -31 31s14 31 31 31s31 -14 31 -31zM494 465c0 -17 -14 -31 -31 -31s-31 14 -31 31s14 31 31 31s31 -14 31 -31zM494 527c0 -17 -14 -31 -31 -31s-31 14 -31 31
s14 31 31 31s31 -14 31 -31zM494 93c0 -17 -14 -31 -31 -31s-31 14 -31 31s14 31 31 31s31 -14 31 -31z" />
    <glyph glyph-name="plusminus" unicode="&#xb1;" horiz-adv-x="390" 
d="M102 279c0 -17 -14 -31 -31 -31s-31 14 -31 31s14 31 31 31s31 -14 31 -31zM102 93c0 -17 -14 -31 -31 -31s-31 14 -31 31s14 31 31 31s31 -14 31 -31zM164 93c0 -17 -14 -31 -31 -31s-31 14 -31 31s14 31 31 31s31 -14 31 -31zM226 93c0 -17 -14 -31 -31 -31
s-31 14 -31 31s14 31 31 31s31 -14 31 -31zM288 93c0 -17 -14 -31 -31 -31s-31 14 -31 31s14 31 31 31s31 -14 31 -31zM350 93c0 -17 -14 -31 -31 -31s-31 14 -31 31s14 31 31 31s31 -14 31 -31zM164 279c0 -17 -14 -31 -31 -31s-31 14 -31 31s14 31 31 31s31 -14 31 -31z
M226 217c0 -17 -14 -31 -31 -31s-31 14 -31 31s14 31 31 31s31 -14 31 -31zM226 279c0 -17 -14 -31 -31 -31s-31 14 -31 31s14 31 31 31s31 -14 31 -31zM226 341c0 -17 -14 -31 -31 -31s-31 14 -31 31s14 31 31 31s31 -14 31 -31zM226 403c0 -17 -14 -31 -31 -31
s-31 14 -31 31s14 31 31 31s31 -14 31 -31zM288 279c0 -17 -14 -31 -31 -31s-31 14 -31 31s14 31 31 31s31 -14 31 -31zM350 279c0 -17 -14 -31 -31 -31s-31 14 -31 31s14 31 31 31s31 -14 31 -31z" />
    <glyph glyph-name="uni0406" unicode="&#x406;" horiz-adv-x="266" 
d="M102 31c0 -17 -14 -31 -31 -31s-31 14 -31 31s14 31 31 31s31 -14 31 -31zM102 589c0 -17 -14 -31 -31 -31s-31 14 -31 31s14 31 31 31s31 -14 31 -31zM164 31c0 -17 -14 -31 -31 -31s-31 14 -31 31s14 31 31 31s31 -14 31 -31zM164 465c0 -17 -14 -31 -31 -31
s-31 14 -31 31s14 31 31 31s31 -14 31 -31zM164 527c0 -17 -14 -31 -31 -31s-31 14 -31 31s14 31 31 31s31 -14 31 -31zM164 589c0 -17 -14 -31 -31 -31s-31 14 -31 31s14 31 31 31s31 -14 31 -31zM164 93c0 -17 -14 -31 -31 -31s-31 14 -31 31s14 31 31 31s31 -14 31 -31z
M226 31c0 -17 -14 -31 -31 -31s-31 14 -31 31s14 31 31 31s31 -14 31 -31zM226 589c0 -17 -14 -31 -31 -31s-31 14 -31 31s14 31 31 31s31 -14 31 -31zM164 155c0 -17 -14 -31 -31 -31s-31 14 -31 31s14 31 31 31s31 -14 31 -31zM164 217c0 -17 -14 -31 -31 -31
s-31 14 -31 31s14 31 31 31s31 -14 31 -31zM164 279c0 -17 -14 -31 -31 -31s-31 14 -31 31s14 31 31 31s31 -14 31 -31zM164 341c0 -17 -14 -31 -31 -31s-31 14 -31 31s14 31 31 31s31 -14 31 -31zM164 403c0 -17 -14 -31 -31 -31s-31 14 -31 31s14 31 31 31s31 -14 31 -31z
" />
    <glyph glyph-name="afii10103" unicode="&#x456;" horiz-adv-x="184" 
d="M123 155c0 -17 -14 -31 -31 -31s-31 14 -31 31s14 31 31 31s31 -14 31 -31zM123 217c0 -17 -14 -31 -31 -31s-31 14 -31 31s14 31 31 31s31 -14 31 -31zM123 279c0 -17 -14 -31 -31 -31s-31 14 -31 31s14 31 31 31s31 -14 31 -31zM123 341c0 -17 -14 -31 -31 -31
s-31 14 -31 31s14 31 31 31s31 -14 31 -31zM123 403c0 -17 -14 -31 -31 -31s-31 14 -31 31s14 31 31 31s31 -14 31 -31zM134 552c0 -23 -19 -42 -42 -42s-42 19 -42 42c0 22 19 41 42 41s42 -19 42 -41zM123 93c0 -17 -14 -31 -31 -31s-31 14 -31 31s14 31 31 31
s31 -14 31 -31zM123 31c0 -17 -14 -31 -31 -31s-31 14 -31 31s14 31 31 31s31 -14 31 -31z" />
    <glyph glyph-name="afii10098" unicode="&#x491;" horiz-adv-x="318" 
d="M112 31c0 -17 -14 -31 -31 -31s-31 14 -31 31s14 31 31 31s31 -14 31 -31zM112 93c0 -17 -14 -31 -31 -31s-31 14 -31 31s14 31 31 31s31 -14 31 -31zM112 155c0 -17 -14 -31 -31 -31s-31 14 -31 31s14 31 31 31s31 -14 31 -31zM112 217c0 -17 -14 -31 -31 -31
s-31 14 -31 31s14 31 31 31s31 -14 31 -31zM112 279c0 -17 -14 -31 -31 -31s-31 14 -31 31s14 31 31 31s31 -14 31 -31zM112 341c0 -17 -14 -31 -31 -31s-31 14 -31 31s14 31 31 31s31 -14 31 -31zM112 403c0 -17 -14 -31 -31 -31s-31 14 -31 31s14 31 31 31s31 -14 31 -31z
M174 403c0 -17 -14 -31 -31 -31s-31 14 -31 31s14 31 31 31s31 -14 31 -31zM236 403c0 -17 -14 -31 -31 -31s-31 14 -31 31s14 31 31 31s31 -14 31 -31zM298 403c0 -17 -14 -31 -31 -31s-31 14 -31 31s14 31 31 31s31 -14 31 -31zM298 465c0 -17 -14 -31 -31 -31
s-31 14 -31 31s14 31 31 31s31 -14 31 -31z" />
    <glyph glyph-name="mu" unicode="&#xb5;" horiz-adv-x="554" 
d="M122 155c0 -17 -14 -31 -31 -31s-31 14 -31 31s14 31 31 31s31 -14 31 -31zM122 217c0 -17 -14 -31 -31 -31s-31 14 -31 31s14 31 31 31s31 -14 31 -31zM122 279c0 -17 -14 -31 -31 -31s-31 14 -31 31s14 31 31 31s31 -14 31 -31zM122 341c0 -17 -14 -31 -31 -31
s-31 14 -31 31s14 31 31 31s31 -14 31 -31zM122 403c0 -17 -14 -31 -31 -31s-31 14 -31 31s14 31 31 31s31 -14 31 -31zM122 465c0 -17 -14 -31 -31 -31s-31 14 -31 31s14 31 31 31s31 -14 31 -31zM122 527c0 -17 -14 -31 -31 -31s-31 14 -31 31s14 31 31 31s31 -14 31 -31z
M122 93c0 -17 -14 -31 -31 -31s-31 14 -31 31s14 31 31 31s31 -14 31 -31zM184 31c0 -17 -14 -31 -31 -31s-31 14 -31 31s14 31 31 31s31 -14 31 -31zM184 589c0 -17 -14 -31 -31 -31s-31 14 -31 31s14 31 31 31s31 -14 31 -31zM246 31c0 -17 -14 -31 -31 -31s-31 14 -31 31
s14 31 31 31s31 -14 31 -31zM246 589c0 -17 -14 -31 -31 -31s-31 14 -31 31s14 31 31 31s31 -14 31 -31zM308 31c0 -17 -14 -31 -31 -31s-31 14 -31 31s14 31 31 31s31 -14 31 -31zM308 589c0 -17 -14 -31 -31 -31s-31 14 -31 31s14 31 31 31s31 -14 31 -31zM370 31
c0 -17 -14 -31 -31 -31s-31 14 -31 31s14 31 31 31s31 -14 31 -31zM370 589c0 -17 -14 -31 -31 -31s-31 14 -31 31s14 31 31 31s31 -14 31 -31zM432 31c0 -17 -14 -31 -31 -31s-31 14 -31 31s14 31 31 31s31 -14 31 -31zM432 589c0 -17 -14 -31 -31 -31s-31 14 -31 31
s14 31 31 31s31 -14 31 -31zM494 155c0 -17 -14 -31 -31 -31s-31 14 -31 31s14 31 31 31s31 -14 31 -31zM494 217c0 -17 -14 -31 -31 -31s-31 14 -31 31s14 31 31 31s31 -14 31 -31zM494 279c0 -17 -14 -31 -31 -31s-31 14 -31 31s14 31 31 31s31 -14 31 -31zM494 341
c0 -17 -14 -31 -31 -31s-31 14 -31 31s14 31 31 31s31 -14 31 -31zM494 403c0 -17 -14 -31 -31 -31s-31 14 -31 31s14 31 31 31s31 -14 31 -31zM494 465c0 -17 -14 -31 -31 -31s-31 14 -31 31s14 31 31 31s31 -14 31 -31zM494 527c0 -17 -14 -31 -31 -31s-31 14 -31 31
s14 31 31 31s31 -14 31 -31zM494 93c0 -17 -14 -31 -31 -31s-31 14 -31 31s14 31 31 31s31 -14 31 -31z" />
    <glyph glyph-name="paragraph" unicode="&#xb6;" horiz-adv-x="390" 
d="M82 341c0 -17 -14 -31 -31 -31s-31 14 -31 31s14 31 31 31s31 -14 31 -31zM82 403c0 -17 -14 -31 -31 -31s-31 14 -31 31s14 31 31 31s31 -14 31 -31zM82 465c0 -17 -14 -31 -31 -31s-31 14 -31 31s14 31 31 31s31 -14 31 -31zM82 527c0 -17 -14 -31 -31 -31
s-31 14 -31 31s14 31 31 31s31 -14 31 -31zM144 465c0 -17 -14 -31 -31 -31s-31 14 -31 31s14 31 31 31s31 -14 31 -31zM144 527c0 -17 -14 -31 -31 -31s-31 14 -31 31s14 31 31 31s31 -14 31 -31zM144 589c0 -17 -14 -31 -31 -31s-31 14 -31 31s14 31 31 31s31 -14 31 -31z
M206 31c0 -17 -14 -31 -31 -31s-31 14 -31 31s14 31 31 31s31 -14 31 -31zM206 465c0 -17 -14 -31 -31 -31s-31 14 -31 31s14 31 31 31s31 -14 31 -31zM206 527c0 -17 -14 -31 -31 -31s-31 14 -31 31s14 31 31 31s31 -14 31 -31zM206 589c0 -17 -14 -31 -31 -31
s-31 14 -31 31s14 31 31 31s31 -14 31 -31zM206 93c0 -17 -14 -31 -31 -31s-31 14 -31 31s14 31 31 31s31 -14 31 -31zM268 589c0 -17 -14 -31 -31 -31s-31 14 -31 31s14 31 31 31s31 -14 31 -31zM330 31c0 -17 -14 -31 -31 -31s-31 14 -31 31s14 31 31 31s31 -14 31 -31z
M330 465c0 -17 -14 -31 -31 -31s-31 14 -31 31s14 31 31 31s31 -14 31 -31zM330 527c0 -17 -14 -31 -31 -31s-31 14 -31 31s14 31 31 31s31 -14 31 -31zM330 589c0 -17 -14 -31 -31 -31s-31 14 -31 31s14 31 31 31s31 -14 31 -31zM330 93c0 -17 -14 -31 -31 -31
s-31 14 -31 31s14 31 31 31s31 -14 31 -31zM144 279c0 -17 -14 -31 -31 -31s-31 14 -31 31s14 31 31 31s31 -14 31 -31zM144 341c0 -17 -14 -31 -31 -31s-31 14 -31 31s14 31 31 31s31 -14 31 -31zM144 403c0 -17 -14 -31 -31 -31s-31 14 -31 31s14 31 31 31s31 -14 31 -31z
M206 155c0 -17 -14 -31 -31 -31s-31 14 -31 31s14 31 31 31s31 -14 31 -31zM206 217c0 -17 -14 -31 -31 -31s-31 14 -31 31s14 31 31 31s31 -14 31 -31zM206 279c0 -17 -14 -31 -31 -31s-31 14 -31 31s14 31 31 31s31 -14 31 -31zM206 341c0 -17 -14 -31 -31 -31
s-31 14 -31 31s14 31 31 31s31 -14 31 -31zM206 403c0 -17 -14 -31 -31 -31s-31 14 -31 31s14 31 31 31s31 -14 31 -31zM330 155c0 -17 -14 -31 -31 -31s-31 14 -31 31s14 31 31 31s31 -14 31 -31zM330 217c0 -17 -14 -31 -31 -31s-31 14 -31 31s14 31 31 31s31 -14 31 -31z
M330 279c0 -17 -14 -31 -31 -31s-31 14 -31 31s14 31 31 31s31 -14 31 -31zM330 341c0 -17 -14 -31 -31 -31s-31 14 -31 31s14 31 31 31s31 -14 31 -31zM330 403c0 -17 -14 -31 -31 -31s-31 14 -31 31s14 31 31 31s31 -14 31 -31zM206 -31c0 -17 -14 -31 -31 -31
s-31 14 -31 31s14 31 31 31s31 -14 31 -31zM330 -31c0 -17 -14 -31 -31 -31s-31 14 -31 31s14 31 31 31s31 -14 31 -31z" />
    <glyph glyph-name="periodcentered" unicode="&#xb7;" horiz-adv-x="554" 
d="M122 155c0 -17 -14 -31 -31 -31s-31 14 -31 31s14 31 31 31s31 -14 31 -31zM122 217c0 -17 -14 -31 -31 -31s-31 14 -31 31s14 31 31 31s31 -14 31 -31zM122 279c0 -17 -14 -31 -31 -31s-31 14 -31 31s14 31 31 31s31 -14 31 -31zM122 341c0 -17 -14 -31 -31 -31
s-31 14 -31 31s14 31 31 31s31 -14 31 -31zM122 403c0 -17 -14 -31 -31 -31s-31 14 -31 31s14 31 31 31s31 -14 31 -31zM122 465c0 -17 -14 -31 -31 -31s-31 14 -31 31s14 31 31 31s31 -14 31 -31zM122 527c0 -17 -14 -31 -31 -31s-31 14 -31 31s14 31 31 31s31 -14 31 -31z
M122 93c0 -17 -14 -31 -31 -31s-31 14 -31 31s14 31 31 31s31 -14 31 -31zM184 31c0 -17 -14 -31 -31 -31s-31 14 -31 31s14 31 31 31s31 -14 31 -31zM184 589c0 -17 -14 -31 -31 -31s-31 14 -31 31s14 31 31 31s31 -14 31 -31zM246 31c0 -17 -14 -31 -31 -31s-31 14 -31 31
s14 31 31 31s31 -14 31 -31zM246 589c0 -17 -14 -31 -31 -31s-31 14 -31 31s14 31 31 31s31 -14 31 -31zM308 31c0 -17 -14 -31 -31 -31s-31 14 -31 31s14 31 31 31s31 -14 31 -31zM308 589c0 -17 -14 -31 -31 -31s-31 14 -31 31s14 31 31 31s31 -14 31 -31zM370 31
c0 -17 -14 -31 -31 -31s-31 14 -31 31s14 31 31 31s31 -14 31 -31zM370 589c0 -17 -14 -31 -31 -31s-31 14 -31 31s14 31 31 31s31 -14 31 -31zM432 31c0 -17 -14 -31 -31 -31s-31 14 -31 31s14 31 31 31s31 -14 31 -31zM432 589c0 -17 -14 -31 -31 -31s-31 14 -31 31
s14 31 31 31s31 -14 31 -31zM494 155c0 -17 -14 -31 -31 -31s-31 14 -31 31s14 31 31 31s31 -14 31 -31zM494 217c0 -17 -14 -31 -31 -31s-31 14 -31 31s14 31 31 31s31 -14 31 -31zM494 279c0 -17 -14 -31 -31 -31s-31 14 -31 31s14 31 31 31s31 -14 31 -31zM494 341
c0 -17 -14 -31 -31 -31s-31 14 -31 31s14 31 31 31s31 -14 31 -31zM494 403c0 -17 -14 -31 -31 -31s-31 14 -31 31s14 31 31 31s31 -14 31 -31zM494 465c0 -17 -14 -31 -31 -31s-31 14 -31 31s14 31 31 31s31 -14 31 -31zM494 527c0 -17 -14 -31 -31 -31s-31 14 -31 31
s14 31 31 31s31 -14 31 -31zM494 93c0 -17 -14 -31 -31 -31s-31 14 -31 31s14 31 31 31s31 -14 31 -31z" />
    </font>
</defs>
</svg>
