<?xml version="1.0" standalone="no"?>
<!DOCTYPE svg PUBLIC "-//W3C//DTD SVG 1.1//EN" "http://www.w3.org/Graphics/SVG/1.1/DTD/svg11.dtd" >
<svg xmlns="http://www.w3.org/2000/svg" xmlns:xlink="http://www.w3.org/1999/xlink" version="1.1">
<metadata>
Created by FontForge 20230101 at Fri Sep  1 09:42:31 2023
 By Glenn Lewis
Copyright 2019 The Karla Project Authors (https://github.com/googlefonts/karla)
</metadata>
<defs>
<font id="Karla-Italic" horiz-adv-x="1200" >
  <font-face 
    font-family="Karla"
    font-weight="400"
    font-style="italic"
    font-stretch="normal"
    units-per-em="2000"
    panose-1="2 11 0 4 3 5 3 3 0 3"
    ascent="1600"
    descent="-400"
    x-height="956"
    cap-height="1258"
    bbox="-253 -494 1792.74 1918"
    underline-thickness="50"
    underline-position="-125"
    slope="-8"
    unicode-range="U+000D-FB02"
  />
<missing-glyph horiz-adv-x="1031" 
d="M10 1645h1011v-1640h-1011v1640zM0 1655v-1660h1031v1660h-1031zM1021 5q-91 141 -179.5 295.5t-180.5 318.5t-192 334.5t-213.5 344.5t-245.5 347q139 -228 269 -447.5t254.5 -427.5t246 -400t241.5 -365zM10 5q120 173 241.5 365t246 400t254.5 427.5t269 447.5
q-132 -173 -245.5 -347t-213.5 -344.5t-192 -334.5t-180.5 -318.5t-179.5 -295.5z" />
    <glyph glyph-name="fi" unicode="fi" horiz-adv-x="1156" 
d="M168 848l10 108h140l14 146q9 97 48 157.5t98 89.5t126 29q35 0 73 -6t75 -20l-38 -124q-25 12 -52.5 19t-53.5 7q-29 0 -57.5 -13t-49 -46t-27.5 -95l-14 -144h178l-10 -108h-178l-80 -848h-140l78 848h-140zM991 1182q-43 0 -65 27t-19 71q4 41 30.5 70.5t71.5 29.5
q44 0 66.5 -28t18.5 -72q-4 -46 -32.5 -72t-70.5 -26zM808 0l90 958h142l-90 -958h-142z" />
    <glyph glyph-name="fl" unicode="fl" horiz-adv-x="1122" 
d="M168 848l10 108h140l14 146q9 97 48 157.5t98 89.5t126 29q35 0 73 -6t75 -20l-38 -124q-25 12 -52.5 19t-53.5 7q-29 0 -57.5 -13t-49 -46t-27.5 -95l-14 -144h178l-10 -108h-178l-80 -848h-140l78 848h-140zM800 0l128 1362h142l-128 -1362h-142z" />
    <glyph glyph-name=".notdef" horiz-adv-x="1031" 
d="M10 1645h1011v-1640h-1011v1640zM0 1655v-1660h1031v1660h-1031zM1021 5q-91 141 -179.5 295.5t-180.5 318.5t-192 334.5t-213.5 344.5t-245.5 347q139 -228 269 -447.5t254.5 -427.5t246 -400t241.5 -365zM10 5q120 173 241.5 365t246 400t254.5 427.5t269 447.5
q-132 -173 -245.5 -347t-213.5 -344.5t-192 -334.5t-180.5 -318.5t-179.5 -295.5z" />
    <glyph glyph-name=".null" horiz-adv-x="0" 
 />
    <glyph glyph-name="CR" unicode="&#xd;" 
 />
    <glyph glyph-name="uni00A0" unicode="&#xa0;" horiz-adv-x="428" 
 />
    <glyph glyph-name="space" unicode=" " horiz-adv-x="428" 
 />
    <glyph glyph-name="comma" unicode="," horiz-adv-x="378" 
d="M138 -218l-100 58q54 27 94 64t56 86q-41 5 -67 31.5t-21 70.5q5 42 36.5 72t77.5 30q38 0 63 -21t37 -56.5t8 -78.5q-4 -44 -25.5 -92t-61 -91t-97.5 -73z" />
    <glyph glyph-name="period" unicode="." horiz-adv-x="322" 
d="M156 -18q-46 0 -72.5 33.5t-21.5 80.5t38 79.5t79 32.5q45 0 73 -31t23 -81q-4 -48 -38 -81t-81 -33z" />
    <glyph glyph-name="semicolon" unicode=";" horiz-adv-x="472" 
d="M186 -218l-100 58q54 27 94 64t56 86q-41 4 -66.5 32.5t-21.5 69.5q4 42 36 72t78 30q56 0 85.5 -44.5t22.5 -111.5q-7 -70 -54 -141.5t-130 -114.5zM314 658q-45 0 -72.5 32t-23.5 80q4 44 34.5 79t79.5 35q48 0 75.5 -33.5t22.5 -80.5q-4 -46 -37 -79t-79 -33z" />
    <glyph glyph-name="colon" unicode=":" horiz-adv-x="416" 
d="M268 658q-45 0 -72.5 32t-23.5 80q5 44 35.5 79t79.5 35q47 0 74.5 -33.5t22.5 -80.5q-4 -46 -37 -79t-79 -33zM209 46q-47 0 -73 34t-22 78t35 79t80 35t75.5 -34t21.5 -80q-4 -46 -37.5 -79t-79.5 -33z" />
    <glyph glyph-name="hyphen" unicode="-" horiz-adv-x="628" 
d="M116 514l14 136h490l-14 -136h-490z" />
    <glyph glyph-name="endash" unicode="&#x2013;" horiz-adv-x="854" 
d="M148 514l12 136h656l-14 -136h-654z" />
    <glyph glyph-name="emdash" unicode="&#x2014;" horiz-adv-x="1306" 
d="M148 514l12 136h1108l-12 -136h-1108z" />
    <glyph glyph-name="exclam" unicode="!" horiz-adv-x="500" 
d="M228 352l68 902h148l-100 -902h-116zM251 -18q-47 0 -74 34t-23 78q4 46 36.5 80t80.5 34t75 -33.5t22 -80.5q-5 -46 -37.5 -79t-79.5 -33z" />
    <glyph glyph-name="a" unicode="a" horiz-adv-x="1008" 
d="M432 -22q-100 0 -165 42t-93.5 108.5t-21.5 139.5q10 97 60 159t129 92.5t173 30.5q63 0 126.5 -13.5t119.5 -38.5l12 122q14 129 -31 185.5t-143 56.5q-56 0 -103 -18t-76.5 -55.5t-34.5 -96.5h-158q10 107 64.5 170t136 90.5t171.5 27.5q163 0 247.5 -86.5t66.5 -277.5
l-58 -616h-122q0 41 1 80.5t1 79.5q-49 -92 -128 -137t-174 -45zM459 100q73 0 139 36.5t108.5 103.5t43.5 158q-55 18 -114 29t-112 11q-87 0 -150 -37.5t-72 -132.5q-6 -70 32.5 -119t124.5 -49z" />
    <glyph glyph-name="b" unicode="b" horiz-adv-x="1052" 
d="M576 -22q-86 0 -151.5 48t-96.5 142l-48 -168h-98l128 1362h142l-54 -550q48 80 120.5 124t157.5 44q94 0 169.5 -52t120 -147t44.5 -224q0 -90 -26.5 -191t-80 -189t-135.5 -143.5t-192 -55.5zM569 118q78 0 133.5 40.5t91.5 105.5t53 139.5t17 141.5q0 137 -64 216
t-161 79q-64 0 -122 -35.5t-97.5 -103.5t-48.5 -165l-9 -104q-9 -90 13.5 -161t72 -112t121.5 -41z" />
    <glyph glyph-name="c" unicode="c" horiz-adv-x="926" 
d="M484 -22q-106 0 -191 60.5t-129 173.5t-30 268q15 159 80 270.5t160.5 170.5t202.5 59q71 0 126 -24.5t94.5 -66.5t62.5 -97t30 -116l-144 -14q-15 82 -63 130t-121 48q-67 0 -127 -41t-102 -121t-53 -198q-10 -110 13.5 -191.5t76.5 -126t129 -44.5q90 0 148 53.5
t65 150.5h146q-8 -99 -58.5 -177t-132 -122.5t-183.5 -44.5z" />
    <glyph glyph-name="d" unicode="d" horiz-adv-x="1070" 
d="M489 -22q-97 0 -174.5 53t-122 149t-44.5 223q0 98 27 199t80.5 187t132.5 138.5t183 52.5q89 0 151.5 -42t97.5 -122l52 546h142l-128 -1362h-116l-4 160q-49 -90 -122.5 -136t-154.5 -46zM519 118q56 0 113 32t98.5 92.5t49.5 147.5l18 196q1 9 1.5 13t0.5 13
q0 76 -31 126.5t-80.5 76t-104.5 25.5q-78 0 -133 -41t-89 -106t-50 -138t-16 -136q0 -138 63 -219.5t160 -81.5z" />
    <glyph glyph-name="e" unicode="e" horiz-adv-x="926" 
d="M478 -22q-113 0 -196 60t-123 171.5t-25 266.5q15 157 76 270t154.5 173.5t205.5 60.5q83 0 143.5 -31.5t99 -87t55.5 -127.5t12 -154q-1 -31 -5.5 -66t-12.5 -70h-635l49 33q-12 -104 5 -188.5t68.5 -133.5t141.5 -49q81 0 139 44.5t78 129.5h146q-23 -96 -77.5 -163.5
t-131.5 -103t-167 -35.5zM279 522l-38 23h550l-49 -18q12 85 1 159.5t-53.5 121t-127.5 46.5q-82 0 -141.5 -45.5t-95 -121t-46.5 -165.5z" />
    <glyph glyph-name="f" unicode="f" horiz-adv-x="618" 
d="M168 848l10 108h140l14 146q9 97 48 157.5t98 89.5t126 29q35 0 73 -6t75 -20l-38 -124q-25 12 -52.5 19t-53.5 7q-29 0 -57.5 -13t-49 -46t-27.5 -95l-14 -144h178l-10 -108h-178l-80 -848h-140l78 848h-140z" />
    <glyph glyph-name="g" unicode="g" horiz-adv-x="1016" 
d="M438 -492q-131 0 -225 40.5t-141.5 110t-40.5 155.5q7 82 58.5 138.5t130.5 77.5q-50 29 -73 73.5t-19 96.5q6 70 52.5 117t111.5 63q-40 47 -59.5 110.5t-12.5 141.5q11 105 64 183.5t136 121.5t181 43q64 0 118.5 -18.5t94.5 -53.5q15 70 51.5 122.5t91.5 82t125 29.5
l-30 -156q-76 0 -121.5 -34.5t-56.5 -111.5q26 -42 38 -94t6 -114q-9 -104 -63.5 -183.5t-139.5 -124t-187 -44.5q-46 0 -90 12t-80 34q-37 -7 -67 -37t-37 -79q-6 -46 25.5 -76t122.5 -30h334q120 0 185 -56.5t57 -159.5q-7 -96 -76.5 -183t-188.5 -142t-275 -55zM441 -366
q112 0 199 35t138.5 90.5t56.5 118.5q4 49 -23 80.5t-86 31.5h-350q-88 0 -143.5 -49.5t-59.5 -120.5q-4 -80 64.5 -133t203.5 -53zM547 394q66 0 116 31.5t80.5 85.5t36.5 121q10 104 -40.5 169t-147.5 65q-98 0 -160.5 -65t-71.5 -169q-10 -101 39.5 -169.5t147.5 -68.5z
" />
    <glyph glyph-name="h" unicode="h" horiz-adv-x="1088" 
d="M182 0l128 1362h142l-56 -582q51 95 128.5 147.5t175.5 52.5q102 0 170 -50.5t98.5 -144t18.5 -223.5l-53 -562h-140l52 562q14 137 -39 207.5t-150 70.5q-81 0 -142 -46.5t-99 -133.5t-50 -208l-42 -452h-142z" />
    <glyph glyph-name="i" unicode="i" horiz-adv-x="538" 
d="M373 1182q-43 0 -65 27t-19 71q4 41 30.5 70.5t71.5 29.5q44 0 66.5 -28t18.5 -72q-4 -46 -32.5 -72t-70.5 -26zM190 0l90 958h142l-90 -958h-142z" />
    <glyph glyph-name="j" unicode="j" horiz-adv-x="566" 
d="M399 1182q-40 0 -63.5 26t-19.5 72q4 45 32.5 72.5t71.5 27.5t66 -27.5t18 -72.5q-4 -43 -32 -70.5t-73 -27.5zM41 -492q-62 0 -119 19t-114 55l20 138q47 -34 96 -54t99 -20q77 0 122.5 51t58.5 169l104 1094h142l-104 -1094q-12 -130 -54.5 -208.5t-107 -114
t-143.5 -35.5z" />
    <glyph glyph-name="k" unicode="k" horiz-adv-x="1016" 
d="M782 0l-296 506l-124 -104l-38 -402h-142l128 1362h142l-74 -790l452 384h198l-430 -358l360 -598h-176z" />
    <glyph glyph-name="l" unicode="l" horiz-adv-x="504" 
d="M182 0l128 1362h142l-128 -1362h-142z" />
    <glyph glyph-name="m" unicode="m" horiz-adv-x="1682" 
d="M180 0l90 956h122q0 -46 -1 -92.5t-1 -93.5q51 102 129.5 156t178.5 54q112 0 183 -60t95 -170q52 118 134.5 174t186.5 56q102 0 170 -50t98 -143.5t17 -224.5l-52 -562h-140l53 562q12 134 -39.5 206t-151.5 72q-80 0 -137.5 -45t-92 -129t-48.5 -202l-42 -464h-140
l52 562q14 138 -40 208t-149 70q-121 0 -197.5 -103.5t-93.5 -284.5l-42 -452h-142z" />
    <glyph glyph-name="n" unicode="n" horiz-adv-x="1086" 
d="M180 0l90 956h122l-2 -186q51 102 129.5 156t178.5 54q102 0 170.5 -50t98.5 -143.5t17 -224.5l-52 -562h-140l52 562q14 138 -40 208t-149 70q-121 0 -197.5 -103.5t-93.5 -284.5l-42 -452h-142z" />
    <glyph glyph-name="o" unicode="o" horiz-adv-x="982" 
d="M489 -22q-117 0 -203 57t-127 168.5t-25 274.5q16 165 78.5 276.5t159 168.5t212.5 57q117 0 202 -58t126.5 -169.5t25.5 -274.5t-78.5 -274.5t-158 -168.5t-212.5 -57zM496 114q125 0 203 97.5t95 266.5q17 171 -39.5 268.5t-181.5 97.5q-124 0 -199.5 -96.5
t-92.5 -269.5q-11 -111 9 -193t71.5 -126.5t134.5 -44.5z" />
    <glyph glyph-name="p" unicode="p" horiz-adv-x="1070" 
d="M136 -470l136 1426h116q0 -36 1 -73t1 -73q51 84 123.5 127t154.5 43q101 0 183 -59.5t126 -171.5t29 -269q-14 -157 -79.5 -269.5t-160.5 -172.5t-199 -60q-80 0 -140 35.5t-93 102.5l-56 -586h-142zM569 118q63 0 125.5 40.5t108 121t57.5 200.5q11 115 -16 195
t-81 122.5t-126 42.5q-62 0 -119 -32.5t-95.5 -95.5t-47.5 -156l-17 -168q-7 -87 20.5 -147t78 -91.5t112.5 -31.5z" />
    <glyph glyph-name="q" unicode="q" horiz-adv-x="1052" 
d="M908 -492q-123 38 -166 116.5t-28 223.5l28 306q-42 -82 -110 -129t-155 -47q-102 0 -185 60.5t-126.5 173t-29.5 268.5q15 157 80 269t158.5 171.5t193.5 59.5q85 0 151 -46.5t97 -135.5l46 158h98l-106 -1118q-6 -67 1 -105.5t33 -60.5t76 -42zM508 118q59 0 115 31.5
t94.5 92t46.5 146.5l20 198q-2 84 -31 140.5t-76.5 85t-104.5 28.5q-70 0 -131.5 -42t-103.5 -122t-54 -196q-12 -121 18 -201.5t86 -120.5t121 -40z" />
    <glyph glyph-name="r" unicode="r" horiz-adv-x="686" 
d="M180 0l90 958h142l-18 -182q45 102 107.5 150t143.5 48q21 0 46 -3.5t49 -14.5l-22 -154q-27 9 -55.5 14.5t-55.5 5.5q-76 0 -127 -48.5t-80 -136t-39 -205.5l-39 -432h-142z" />
    <glyph glyph-name="s" unicode="s" horiz-adv-x="946" 
d="M475 -22q-112 0 -190.5 39t-118 107.5t-32.5 157.5h136q-6 -85 53 -132.5t155 -47.5q95 0 157.5 43.5t70.5 110.5q7 58 -32.5 89t-107.5 55l-162 62q-103 38 -156 102t-43 158q8 78 54 136t124 90t180 32q157 0 237 -72t74 -182h-138q-2 64 -50 97t-128 33
q-67 0 -110.5 -20.5t-66.5 -52t-28 -65.5q-7 -55 31.5 -90.5t105.5 -57.5l166 -64q101 -34 157.5 -94.5t46.5 -155.5q-7 -72 -54.5 -135.5t-131 -103t-199.5 -39.5z" />
    <glyph glyph-name="t" unicode="t" horiz-adv-x="676" 
d="M444 -22q-71 0 -124 29t-78.5 89t-17.5 152l58 633l41 -31h-185l14 106h181l-50 -45l31 311h142l-31 -311l-40 45h315l-12 -106h-315l49 31l-60 -631q-7 -73 22 -109.5t90 -36.5q34 0 70.5 9t79.5 27l10 -112q-49 -24 -95.5 -37t-94.5 -13z" />
    <glyph glyph-name="u" unicode="u" horiz-adv-x="1090" 
d="M478 -18q-97 0 -166 40t-102 121.5t-22 206.5l58 608h142l-56 -596q-12 -120 34.5 -181t145.5 -61q80 0 144 48t105 132t51 192l44 466h142l-90 -958h-142l18 190q-52 -100 -131 -154t-175 -54z" />
    <glyph glyph-name="v" unicode="v" horiz-adv-x="906" 
d="M122 956h160l186 -790l334 790h160l-432 -956h-156z" />
    <glyph glyph-name="w" unicode="w" horiz-adv-x="1304" 
d="M122 956h148l138 -760l270 714h120l136 -724l282 770h142l-372 -956h-138l-136 670l-256 -670h-138z" />
    <glyph glyph-name="x" unicode="x" horiz-adv-x="922" 
d="M46 0l372 478l-282 480h174l212 -360l270 360h172l-374 -480l282 -478h-172l-212 362l-268 -362h-174z" />
    <glyph glyph-name="y" unicode="y" horiz-adv-x="872" 
d="M174 -492q-55 0 -104.5 18t-99.5 52l14 144q42 -40 85 -58t91 -18q54 0 94.5 37.5t70 96t51.5 122.5l36 98l-262 956h158l188 -760l276 760h144l-430 -1146q-37 -97 -83 -164.5t-102.5 -102.5t-126.5 -35z" />
    <glyph glyph-name="z" unicode="z" horiz-adv-x="854" 
d="M96 0l10 128l572 700h-506l14 128h666l-14 -128l-564 -700h498l-10 -128h-666z" />
    <glyph glyph-name="A" unicode="A" horiz-adv-x="1034" 
d="M46 0l508 1258h174l260 -1258h-148l-66 320h-450l-128 -320h-150zM372 444h376l-128 622z" />
    <glyph glyph-name="B" unicode="B" horiz-adv-x="1120" 
d="M182 0l118 1258h424q125 0 203 -45.5t111 -120.5t24 -164q-9 -106 -70.5 -186.5t-171.5 -109.5q68 -12 117 -54t73 -103.5t18 -130.5q-6 -64 -31.5 -125.5t-74.5 -111t-127 -78.5t-189 -29h-424zM336 138h280q129 0 190 59t70 153q11 95 -46 152.5t-174 57.5h-280z
M428 1122l-40 -426h278q104 0 171.5 57t76.5 159q9 98 -46 154t-162 56h-278z" />
    <glyph glyph-name="C" unicode="C" horiz-adv-x="1104" 
d="M570 -22q-150 0 -250 83t-143.5 231t-24.5 344q19 209 96 352.5t193.5 217.5t252.5 74q182 0 283.5 -101t128.5 -263l-158 -34q-24 117 -95 186.5t-173 69.5q-89 0 -169.5 -56.5t-136 -168.5t-70.5 -277q-14 -150 11.5 -266.5t92 -183t176.5 -66.5q135 0 221.5 79.5
t98.5 208.5h152q-12 -135 -77 -231t-170.5 -147.5t-238.5 -51.5z" />
    <glyph glyph-name="D" unicode="D" horiz-adv-x="1190" 
d="M298 1258h334q172 0 291 -78t175 -219t38 -331q-18 -191 -101 -332.5t-217 -219.5t-306 -78h-332zM426 1118l-92 -980h192q127 0 225.5 64t159 175t73.5 253q13 141 -26.5 251.5t-126 173.5t-213.5 63h-192z" />
    <glyph glyph-name="E" unicode="E" horiz-adv-x="1012" 
d="M180 0l118 1258h698l-16 -136h-554l-40 -422h522l-12 -134h-522l-40 -428h556l-14 -138h-696z" />
    <glyph glyph-name="F" unicode="F" horiz-adv-x="944" 
d="M182 0l118 1258h688l-14 -136h-546l-40 -418h508l-12 -136h-508l-52 -568h-142z" />
    <glyph glyph-name="G" unicode="G" horiz-adv-x="1160" 
d="M576 -22q-134 0 -237 77.5t-155.5 220t-33.5 338.5q15 163 69 287t136 208t182 126.5t207 42.5q132 0 227 -60.5t153 -191.5l-142 -52q-52 83 -116.5 122.5t-141.5 39.5q-101 0 -192 -62.5t-153.5 -179.5t-78.5 -280q-13 -144 18.5 -255t103 -174t178.5 -63
q81 0 152.5 39.5t118 121.5t51.5 207q2 13 -0.5 26.5t-11.5 38.5l59 -51l-329 14l10 104h422l-56 -622h-116q0 62 1.5 124.5t0.5 123.5l12 3q-45 -129 -128 -201t-210 -72z" />
    <glyph glyph-name="H" unicode="H" horiz-adv-x="1204" 
d="M182 0l118 1258h142l-54 -554h556l54 554h144l-120 -1258h-142l52 568h-556l-52 -568h-142z" />
    <glyph glyph-name="I" unicode="I" horiz-adv-x="504" 
d="M182 0l118 1258h142l-118 -1258h-142z" />
    <glyph glyph-name="J" unicode="J" horiz-adv-x="728" 
d="M20 62l14 164q60 -48 121.5 -72t122.5 -24q95 0 140.5 61t57.5 173l84 894h142l-84 -894q-14 -137 -60.5 -222t-119 -124.5t-164.5 -39.5q-75 0 -136 24t-118 60z" />
    <glyph glyph-name="K" unicode="K" horiz-adv-x="1096" 
d="M300 1258h144l-54 -582l560 582h196l-548 -564l460 -694h-184l-382 582l-124 -126l-42 -456h-144z" />
    <glyph glyph-name="L" unicode="L" horiz-adv-x="842" 
d="M182 0l118 1258h142l-106 -1120h504l-12 -138h-646z" />
    <glyph glyph-name="M" unicode="M" horiz-adv-x="1526" 
d="M182 0l118 1258h204l300 -852l460 852h200l-120 -1258h-142l100 1077h17l-491 -919h-96l-325 940l19 -3l-102 -1095h-142z" />
    <glyph glyph-name="N" unicode="N" horiz-adv-x="1232" 
d="M178 0l118 1258h166l494 -1061l-30 3l102 1058h142l-118 -1258h-156l-506 1074l32 -3l-100 -1071h-144z" />
    <glyph glyph-name="O" unicode="O" horiz-adv-x="1162" 
d="M578 -22q-141 0 -244.5 71.5t-153 216t-28.5 362.5q20 219 97 364t194.5 216.5t258.5 71.5t245 -72.5t154.5 -217.5t30.5 -362q-22 -220 -100 -364t-195.5 -215t-258.5 -71zM592 122q158 0 263 128.5t129 377.5q24 245 -57 377.5t-239 132.5q-159 0 -262.5 -132.5
t-127.5 -377.5q-24 -249 56.5 -377.5t237.5 -128.5z" />
    <glyph glyph-name="P" unicode="P" horiz-adv-x="998" 
d="M178 0l118 1258h366q124 0 205 -48t117 -135.5t24 -206.5q-16 -175 -125 -278.5t-295 -103.5h-222l-46 -486h-142zM378 622h224q116 0 183.5 67t76.5 179q11 116 -43.5 185t-170.5 69h-224z" />
    <glyph glyph-name="Q" unicode="Q" horiz-adv-x="1174" 
d="M890 -334q-81 0 -141 45.5t-107 132.5l-72 134q-139 2 -240.5 74.5t-150 216t-27.5 359.5q20 219 97 364t194.5 216.5t258.5 71.5t245 -72.5t154.5 -217.5t30.5 -362q-27 -274 -140.5 -430.5t-275.5 -201.5l48 -88q27 -45 56 -62.5t60 -19.5q48 0 89.5 13t90.5 37
l-16 -172q-43 -21 -80.5 -29.5t-73.5 -8.5zM592 122q158 0 263 128.5t129 377.5q24 245 -57 377.5t-239 132.5q-159 0 -262.5 -132.5t-127.5 -377.5q-24 -249 56.5 -377.5t237.5 -128.5z" />
    <glyph glyph-name="R" unicode="R" horiz-adv-x="1104" 
d="M182 0l118 1258h394q195 0 285 -103.5t73 -270.5q-13 -142 -97 -239t-233 -123l276 -522h-182l-246 514h-198l-48 -514h-142zM382 624h240q128 0 201 69.5t83 180.5q11 114 -47.5 181t-178.5 67h-252z" />
    <glyph glyph-name="S" unicode="S" horiz-adv-x="1088" 
d="M540 -22q-113 0 -203 45.5t-139 134.5t-40 220h138q-8 -88 25.5 -144.5t94.5 -84t136 -27.5q82 0 145 28.5t100.5 75.5t42.5 104q8 80 -31 128.5t-123 79.5l-192 82q-135 53 -200.5 124.5t-53.5 203.5q15 146 125 239t297 93q173 0 262 -89t90 -239h-140q-4 87 -61 135.5
t-165 48.5q-112 0 -179 -55t-75 -139q-6 -69 28.5 -109.5t115.5 -70.5l226 -90q117 -46 180.5 -126.5t51.5 -211.5q-9 -100 -65 -180.5t-155 -128t-236 -47.5z" />
    <glyph glyph-name="T" unicode="T" horiz-adv-x="902" 
d="M380 0l104 1122h-368l14 136h880l-14 -136h-370l-104 -1122h-142z" />
    <glyph glyph-name="U" unicode="U" horiz-adv-x="1178" 
d="M584 -22q-198 0 -302.5 120.5t-83.5 355.5l78 804h142l-78 -804q-16 -175 56 -253.5t202 -78.5q129 0 215.5 78.5t102.5 253.5l78 804h142l-78 -804q-14 -157 -77 -263t-165 -159.5t-232 -53.5z" />
    <glyph glyph-name="V" unicode="V" horiz-adv-x="1014" 
d="M152 1258h148l224 -1062l426 1062h150l-520 -1258h-148z" />
    <glyph glyph-name="W" unicode="W" horiz-adv-x="1610" 
d="M144 1258h158l176 -1044l366 914h96l188 -918l418 1048h156l-518 -1258h-150l-170 804l-332 -804h-148z" />
    <glyph glyph-name="X" unicode="X" horiz-adv-x="1156" 
d="M86 0l458 624l-340 634h170l276 -514l348 514h170l-452 -632l352 -626h-178l-280 502l-350 -502h-174z" />
    <glyph glyph-name="Y" unicode="Y" horiz-adv-x="988" 
d="M420 0l48 516l-332 742h170l250 -578l366 578h166l-476 -742l-48 -516h-144z" />
    <glyph glyph-name="Z" unicode="Z" horiz-adv-x="1066" 
d="M132 0l12 142l746 966l-654 6l14 144h832l-14 -142l-746 -966l654 -6l-14 -144h-830z" />
    <glyph glyph-name="quotesingle" unicode="'" horiz-adv-x="244" 
d="M142 914l22 440h149l-62 -440h-109z" />
    <glyph glyph-name="quoteleft" unicode="&#x2018;" horiz-adv-x="386" 
d="M266 836q-54 0 -84 46t-24 112q5 48 29 96.5t64.5 90.5t96.5 71l94 -58q-54 -30 -92.5 -67t-55.5 -85q41 -4 66 -30t20 -70q-4 -43 -35.5 -74.5t-78.5 -31.5z" />
    <glyph glyph-name="quoteright" unicode="&#x2019;" horiz-adv-x="386" 
d="M206 836l-94 60q54 30 93 67t55 85q-40 5 -65.5 31t-22.5 69q5 44 36.5 74t77.5 30q37 0 63 -20.5t38 -56t7 -81.5q-4 -47 -27.5 -94.5t-64.5 -90t-96 -73.5z" />
    <glyph glyph-name="parenleft" unicode="(" horiz-adv-x="640" 
d="M624 1456l96 -82q-113 -115 -194 -238.5t-129 -254.5t-61 -267q-12 -135 10.5 -266t80 -255t149.5 -239l-110 -80q-106 118 -172.5 254.5t-93 284.5t-12.5 301q23 231 133.5 447.5t302.5 394.5z" />
    <glyph glyph-name="parenright" unicode=")" horiz-adv-x="640" 
d="M132 -226l-96 80q113 115 194 239t129 255t61 266q12 136 -10.5 267t-80 254.5t-149.5 238.5l110 82q159 -178 229 -394.5t47 -447.5q-14 -153 -68.5 -301t-146.5 -284.5t-219 -254.5z" />
    <glyph glyph-name="plus" unicode="+" horiz-adv-x="1000" 
d="M476 982h144l-40 -424h370l-12 -134h-372l-38 -424h-142l38 424h-370l12 134h372z" />
    <glyph glyph-name="minus" unicode="&#x2212;" horiz-adv-x="1000" 
d="M112 420l18 134h762l-18 -134h-762z" />
    <glyph glyph-name="equal" unicode="=" horiz-adv-x="1000" 
d="M217 616l12 138h594l-12 -138h-594zM181 234l12 136h594l-12 -136h-594z" />
    <glyph glyph-name="zero" unicode="0" horiz-adv-x="1070" 
d="M530 -22q-133 0 -225 72t-133 217t-20 363q19 217 87.5 361.5t175.5 216.5t241 72q133 0 226 -72t134.5 -216.5t21.5 -361.5q-20 -218 -89.5 -363t-177 -217t-241.5 -72zM546 122q146 0 233 132t111 376q24 243 -39.5 374.5t-210.5 131.5q-142 0 -230 -131.5t-112 -374.5
q-24 -244 40 -376t208 -132z" />
    <glyph glyph-name="one" unicode="1" horiz-adv-x="596" 
d="M418 1262h114l-118 -1262h-140l100 1074q-46 -31 -96.5 -49t-95.5 -21l14 156q57 8 113.5 32t108.5 70z" />
    <glyph glyph-name="two" unicode="2" horiz-adv-x="1044" 
d="M276 206l-6 -60h656l-12 -146h-798l16 186q10 109 48.5 182t101.5 121t146 83l232 100q89 38 139 98.5t57 151.5q11 96 -44 157t-162 61q-105 0 -177.5 -50.5t-92.5 -149.5h-156q16 109 74.5 185t151.5 115.5t212 39.5q110 0 192 -47.5t124 -130t32 -188.5
q-15 -147 -95 -237.5t-209 -144.5l-238 -102q-90 -39 -137 -91t-55 -133z" />
    <glyph glyph-name="three" unicode="3" horiz-adv-x="1064" 
d="M532 -22q-85 0 -162 26t-134.5 77.5t-86.5 128t-19 176.5h148q-7 -86 26.5 -145t97 -89t146.5 -30q123 0 198.5 68t85.5 168q6 64 -18.5 114t-84 79t-159.5 29h-130l14 126h88q129 0 210 57.5t90 156.5q9 92 -46.5 154t-169.5 62q-87 0 -158.5 -39.5t-103.5 -144.5h-148
q38 176 154.5 252t267.5 76q112 0 196.5 -44.5t128.5 -122t35 -177.5q-10 -99 -67.5 -169.5t-158.5 -108.5q104 -34 163.5 -112t48.5 -200q-11 -109 -69.5 -192t-156 -129.5t-226.5 -46.5z" />
    <glyph glyph-name="four" unicode="4" horiz-adv-x="1006" 
d="M632 0l26 304h-584l12 122l674 850h130l-78 -836h196l-14 -136h-196l-28 -304h-138zM256 426h418l56 600z" />
    <glyph glyph-name="five" unicode="5" horiz-adv-x="1016" 
d="M506 -22q-107 0 -191.5 42.5t-130 125.5t-34.5 204h142q-10 -112 56.5 -170t171.5 -58q120 0 197 81.5t89 204.5q11 117 -55 177.5t-203 60.5h-304l108 612h628l-14 -144h-490l-66 -362q44 8 92.5 13t87.5 5q185 0 283 -91.5t81 -270.5q-12 -123 -71 -220.5
t-155.5 -153.5t-221.5 -56z" />
    <glyph glyph-name="six" unicode="6" horiz-adv-x="1032" 
d="M538 -24q-136 0 -229 83t-135 225.5t-26 321.5q20 211 91.5 362t184.5 231.5t258 80.5q102 0 175 -43t111.5 -119.5t37.5 -177.5h-152q-6 90 -49 143t-133 53q-116 0 -207 -90.5t-141 -254t-42 -383.5q21 132 75.5 208.5t128 109t152.5 32.5q102 0 178.5 -50.5
t116 -139.5t29.5 -204q-12 -116 -69 -203.5t-148.5 -136t-206.5 -48.5zM552 122q104 0 178 66.5t84 181.5q11 116 -50.5 182t-163.5 66q-67 0 -124 -33t-93.5 -89t-42.5 -126q-10 -115 51.5 -181.5t160.5 -66.5z" />
    <glyph glyph-name="seven" unicode="7" horiz-adv-x="846" 
d="M104 0l648 1106h-604l14 152h770l-14 -146l-622 -1112h-192z" />
    <glyph glyph-name="eight" unicode="8" horiz-adv-x="1106" 
d="M548 -22q-133 0 -230.5 46.5t-147.5 127.5t-40 184q11 123 91.5 202t198.5 98q-50 26 -98 68t-77 102t-21 140q9 97 66 172.5t154.5 118.5t229.5 43q119 0 207.5 -46t134.5 -125t36 -179q-9 -102 -78.5 -184.5t-191.5 -103.5l30 -12q119 -52 178.5 -123t47.5 -193
q-10 -100 -71.5 -175.5t-168 -118t-250.5 -42.5zM564 122q146 0 232.5 52t93.5 136q6 65 -33.5 109.5t-110.5 74.5l-196 84q-114 -13 -189 -79t-83 -149q-10 -109 73 -168.5t213 -59.5zM638 706q105 3 181.5 62.5t86.5 153.5q9 95 -59.5 154.5t-188.5 59.5q-76 0 -138 -26.5
t-101 -71t-45 -98.5q-6 -67 31 -106.5t107 -71.5z" />
    <glyph glyph-name="nine" unicode="9" horiz-adv-x="1046" 
d="M508 -22q-113 0 -195.5 51t-124 140t-30.5 203h150q-9 -114 47.5 -182t162.5 -68q159 0 244 150t110 402q3 39 4.5 73.5t-0.5 74.5q-22 -108 -72.5 -179.5t-122.5 -107t-157 -35.5q-102 0 -178.5 50.5t-115.5 139.5t-28 204q11 116 68 203t148 135t204 48
q130 0 225 -77.5t141 -218.5t28 -332q-20 -208 -82.5 -359t-168.5 -233t-257 -82zM564 638q66 0 122.5 33t93 89t42.5 126q11 116 -50.5 182t-163.5 66q-100 0 -173.5 -66t-84.5 -182q-12 -115 49.5 -181.5t164.5 -66.5z" />
    <glyph glyph-name="dollar" unicode="$" horiz-adv-x="1138" 
d="M494 -182l14 164q-106 10 -189 58t-127.5 132.5t-33.5 205.5h138q-10 -118 52.5 -179t173.5 -73l46 472l-56 22q-142 53 -212.5 124.5t-57.5 203.5q12 135 112 225t278 103l14 150h112l-14 -152q153 -13 231 -99t85 -223h-140q-7 75 -55 123t-135 61l-40 -430l122 -46
q119 -45 181.5 -123t50.5 -207q-9 -84 -59.5 -161t-141.5 -128.5t-223 -60.5l-14 -162h-112zM634 124q116 11 179.5 72.5t72.5 137.5q6 75 -32.5 126.5t-113.5 79.5l-64 24zM582 742l36 394q-102 -10 -160 -63.5t-64 -130.5q-6 -69 27 -110t109 -70z" />
    <glyph glyph-name="question" unicode="?" horiz-adv-x="898" 
d="M348 322l8 90q9 91 32 145.5t66.5 93.5t111.5 81q55 35 95 65t63 66.5t26 90.5q5 87 -47.5 134.5t-155.5 47.5q-107 0 -169 -50.5t-82 -133.5h-152q24 146 132 237t281 91q121 0 200.5 -44t116.5 -119t30 -167q-6 -81 -40 -137.5t-84 -96.5t-104 -72q-62 -38 -99 -66.5
t-55.5 -68t-25.5 -109.5l-8 -78h-140zM388 -22q-50 0 -74.5 34t-19.5 80q5 47 37 78t81 31q52 0 75 -33t20 -77q-4 -49 -37 -81t-82 -32z" />
    <glyph glyph-name="sterling" unicode="&#xa3;" horiz-adv-x="1016" 
d="M36 0l12 138h50q69 0 105 44.5t43 135.5l20 216h-162l10 112h164l20 218q13 131 59.5 224t125 142.5t187.5 49.5q126 0 200 -76.5t80 -223.5h-138q-7 78 -50 117t-106 39q-88 0 -145 -64.5t-71 -207.5l-22 -218h328l-10 -112h-328l-20 -208q-7 -67 -26 -114t-60 -74h332
q87 0 132 41.5t64 128.5h150q-22 -142 -102.5 -225t-257.5 -83h-584z" />
    <glyph glyph-name="grave" unicode="`" horiz-adv-x="663" 
d="M669 1086l-419 226l72 140l398 -266z" />
    <glyph glyph-name="acute" unicode="&#xb4;" horiz-adv-x="654" 
d="M269 1109l-33 100l448 266l47 -140z" />
    <glyph glyph-name="agrave" unicode="&#xe0;" horiz-adv-x="1008" 
d="M432 -22q-100 0 -165 42t-93.5 108.5t-21.5 139.5q10 97 60 159t129 92.5t173 30.5q63 0 126.5 -13.5t119.5 -38.5l12 122q14 129 -31 185.5t-143 56.5q-56 0 -103 -18t-76.5 -55.5t-34.5 -96.5h-158q10 107 64.5 170t136 90.5t171.5 27.5q163 0 247.5 -86.5t66.5 -277.5
l-58 -616h-122q0 41 1 80.5t1 79.5q-49 -92 -128 -137t-174 -45zM459 100q73 0 139 36.5t108.5 103.5t43.5 158q-55 18 -114 29t-112 11q-87 0 -150 -37.5t-72 -132.5q-6 -70 32.5 -119t124.5 -49zM787 1086l-419 226l72 140l398 -266z" />
    <glyph glyph-name="egrave" unicode="&#xe8;" horiz-adv-x="926" 
d="M478 -22q-113 0 -196 60t-123 171.5t-25 266.5q15 157 76 270t154.5 173.5t205.5 60.5q83 0 143.5 -31.5t99 -87t55.5 -127.5t12 -154q-1 -31 -5.5 -66t-12.5 -70h-635l49 33q-12 -104 5 -188.5t68.5 -133.5t141.5 -49q81 0 139 44.5t78 129.5h146q-23 -96 -77.5 -163.5
t-131.5 -103t-167 -35.5zM279 522l-38 23h550l-49 -18q12 85 1 159.5t-53.5 121t-127.5 46.5q-82 0 -141.5 -45.5t-95 -121t-46.5 -165.5zM747 1086l-419 226l72 140l398 -266z" />
    <glyph glyph-name="ograve" unicode="&#xf2;" horiz-adv-x="982" 
d="M489 -22q-117 0 -203 57t-127 168.5t-25 274.5q16 165 78.5 276.5t159 168.5t212.5 57q117 0 202 -58t126.5 -169.5t25.5 -274.5t-78.5 -274.5t-158 -168.5t-212.5 -57zM496 114q125 0 203 97.5t95 266.5q17 171 -39.5 268.5t-181.5 97.5q-124 0 -199.5 -96.5
t-92.5 -269.5q-11 -111 9 -193t71.5 -126.5t134.5 -44.5zM798 1086l-419 226l72 140l398 -266z" />
    <glyph glyph-name="Agrave" unicode="&#xc0;" horiz-adv-x="1034" 
d="M46 0l508 1258h174l260 -1258h-148l-66 320h-450l-128 -320h-150zM372 444h376l-128 622zM843 1388l-419 226l72 140l398 -266z" />
    <glyph glyph-name="Egrave" unicode="&#xc8;" horiz-adv-x="1012" 
d="M180 0l118 1258h698l-16 -136h-554l-40 -422h522l-12 -134h-522l-40 -428h556l-14 -138h-696zM832 1388l-419 226l72 140l398 -266z" />
    <glyph glyph-name="ugrave" unicode="&#xf9;" horiz-adv-x="1090" 
d="M478 -18q-97 0 -166 40t-102 121.5t-22 206.5l58 608h142l-56 -596q-12 -120 34.5 -181t145.5 -61q80 0 144 48t105 132t51 192l44 466h142l-90 -958h-142l18 190q-52 -100 -131 -154t-175 -54zM829 1086l-419 226l72 140l398 -266z" />
    <glyph glyph-name="aacute" unicode="&#xe1;" horiz-adv-x="1008" 
d="M432 -22q-100 0 -165 42t-93.5 108.5t-21.5 139.5q10 97 60 159t129 92.5t173 30.5q63 0 126.5 -13.5t119.5 -38.5l12 122q14 129 -31 185.5t-143 56.5q-56 0 -103 -18t-76.5 -55.5t-34.5 -96.5h-158q10 107 64.5 170t136 90.5t171.5 27.5q163 0 247.5 -86.5t66.5 -277.5
l-58 -616h-122q0 41 1 80.5t1 79.5q-49 -92 -128 -137t-174 -45zM459 100q73 0 139 36.5t108.5 103.5t43.5 158q-55 18 -114 29t-112 11q-87 0 -150 -37.5t-72 -132.5q-6 -70 32.5 -119t124.5 -49zM484 1109l-33 100l448 266l47 -140z" />
    <glyph glyph-name="eacute" unicode="&#xe9;" horiz-adv-x="926" 
d="M478 -22q-113 0 -196 60t-123 171.5t-25 266.5q15 157 76 270t154.5 173.5t205.5 60.5q83 0 143.5 -31.5t99 -87t55.5 -127.5t12 -154q-1 -31 -5.5 -66t-12.5 -70h-635l49 33q-12 -104 5 -188.5t68.5 -133.5t141.5 -49q81 0 139 44.5t78 129.5h146q-23 -96 -77.5 -163.5
t-131.5 -103t-167 -35.5zM279 522l-38 23h550l-49 -18q12 85 1 159.5t-53.5 121t-127.5 46.5q-82 0 -141.5 -45.5t-95 -121t-46.5 -165.5zM444 1109l-33 100l448 266l47 -140z" />
    <glyph glyph-name="oacute" unicode="&#xf3;" horiz-adv-x="982" 
d="M489 -22q-117 0 -203 57t-127 168.5t-25 274.5q16 165 78.5 276.5t159 168.5t212.5 57q117 0 202 -58t126.5 -169.5t25.5 -274.5t-78.5 -274.5t-158 -168.5t-212.5 -57zM496 114q125 0 203 97.5t95 266.5q17 171 -39.5 268.5t-181.5 97.5q-124 0 -199.5 -96.5
t-92.5 -269.5q-11 -111 9 -193t71.5 -126.5t134.5 -44.5zM495 1109l-33 100l448 266l47 -140z" />
    <glyph glyph-name="uacute" unicode="&#xfa;" horiz-adv-x="1090" 
d="M478 -18q-97 0 -166 40t-102 121.5t-22 206.5l58 608h142l-56 -596q-12 -120 34.5 -181t145.5 -61q80 0 144 48t105 132t51 192l44 466h142l-90 -958h-142l18 190q-52 -100 -131 -154t-175 -54zM526 1109l-33 100l448 266l47 -140z" />
    <glyph glyph-name="Aacute" unicode="&#xc1;" horiz-adv-x="1034" 
d="M46 0l508 1258h174l260 -1258h-148l-66 320h-450l-128 -320h-150zM372 444h376l-128 622zM540 1411l-33 100l448 266l47 -140z" />
    <glyph glyph-name="Eacute" unicode="&#xc9;" horiz-adv-x="1012" 
d="M180 0l118 1258h698l-16 -136h-554l-40 -422h522l-12 -134h-522l-40 -428h556l-14 -138h-696zM529 1411l-33 100l448 266l47 -140z" />
    <glyph glyph-name="Igrave" unicode="&#xcc;" horiz-adv-x="504" 
d="M182 0l118 1258h142l-118 -1258h-142zM578 1388l-419 226l72 140l398 -266z" />
    <glyph glyph-name="Iacute" unicode="&#xcd;" horiz-adv-x="504" 
d="M182 0l118 1258h142l-118 -1258h-142zM275 1411l-33 100l448 266l47 -140z" />
    <glyph glyph-name="Ograve" unicode="&#xd2;" horiz-adv-x="1162" 
d="M578 -22q-141 0 -244.5 71.5t-153 216t-28.5 362.5q20 219 97 364t194.5 216.5t258.5 71.5t245 -72.5t154.5 -217.5t30.5 -362q-22 -220 -100 -364t-195.5 -215t-258.5 -71zM592 122q158 0 263 128.5t129 377.5q24 245 -57 377.5t-239 132.5q-159 0 -262.5 -132.5
t-127.5 -377.5q-24 -249 56.5 -377.5t237.5 -128.5zM907 1388l-419 226l72 140l398 -266z" />
    <glyph glyph-name="Oacute" unicode="&#xd3;" horiz-adv-x="1162" 
d="M578 -22q-141 0 -244.5 71.5t-153 216t-28.5 362.5q20 219 97 364t194.5 216.5t258.5 71.5t245 -72.5t154.5 -217.5t30.5 -362q-22 -220 -100 -364t-195.5 -215t-258.5 -71zM592 122q158 0 263 128.5t129 377.5q24 245 -57 377.5t-239 132.5q-159 0 -262.5 -132.5
t-127.5 -377.5q-24 -249 56.5 -377.5t237.5 -128.5zM604 1411l-33 100l448 266l47 -140z" />
    <glyph glyph-name="Ugrave" unicode="&#xd9;" horiz-adv-x="1178" 
d="M584 -22q-198 0 -302.5 120.5t-83.5 355.5l78 804h142l-78 -804q-16 -175 56 -253.5t202 -78.5q129 0 215.5 78.5t102.5 253.5l78 804h142l-78 -804q-14 -157 -77 -263t-165 -159.5t-232 -53.5zM916 1388l-419 226l72 140l398 -266z" />
    <glyph glyph-name="Uacute" unicode="&#xda;" horiz-adv-x="1178" 
d="M584 -22q-198 0 -302.5 120.5t-83.5 355.5l78 804h142l-78 -804q-16 -175 56 -253.5t202 -78.5q129 0 215.5 78.5t102.5 253.5l78 804h142l-78 -804q-14 -157 -77 -263t-165 -159.5t-232 -53.5zM613 1411l-33 100l448 266l47 -140z" />
    <glyph glyph-name="circumflex" unicode="&#x2c6;" horiz-adv-x="822" 
d="M315 1118l-81 78l351 312l295 -312l-97 -78l-213 216z" />
    <glyph glyph-name="acircumflex" unicode="&#xe2;" horiz-adv-x="1008" 
d="M432 -22q-100 0 -165 42t-93.5 108.5t-21.5 139.5q10 97 60 159t129 92.5t173 30.5q63 0 126.5 -13.5t119.5 -38.5l12 122q14 129 -31 185.5t-143 56.5q-56 0 -103 -18t-76.5 -55.5t-34.5 -96.5h-158q10 107 64.5 170t136 90.5t171.5 27.5q163 0 247.5 -86.5t66.5 -277.5
l-58 -616h-122q0 41 1 80.5t1 79.5q-49 -92 -128 -137t-174 -45zM459 100q73 0 139 36.5t108.5 103.5t43.5 158q-55 18 -114 29t-112 11q-87 0 -150 -37.5t-72 -132.5q-6 -70 32.5 -119t124.5 -49zM347 1118l-81 78l351 312l295 -312l-97 -78l-213 216z" />
    <glyph glyph-name="ecircumflex" unicode="&#xea;" horiz-adv-x="926" 
d="M478 -22q-113 0 -196 60t-123 171.5t-25 266.5q15 157 76 270t154.5 173.5t205.5 60.5q83 0 143.5 -31.5t99 -87t55.5 -127.5t12 -154q-1 -31 -5.5 -66t-12.5 -70h-635l49 33q-12 -104 5 -188.5t68.5 -133.5t141.5 -49q81 0 139 44.5t78 129.5h146q-23 -96 -77.5 -163.5
t-131.5 -103t-167 -35.5zM279 522l-38 23h550l-49 -18q12 85 1 159.5t-53.5 121t-127.5 46.5q-82 0 -141.5 -45.5t-95 -121t-46.5 -165.5zM307 1118l-81 78l351 312l295 -312l-97 -78l-213 216z" />
    <glyph glyph-name="ocircumflex" unicode="&#xf4;" horiz-adv-x="982" 
d="M489 -22q-117 0 -203 57t-127 168.5t-25 274.5q16 165 78.5 276.5t159 168.5t212.5 57q117 0 202 -58t126.5 -169.5t25.5 -274.5t-78.5 -274.5t-158 -168.5t-212.5 -57zM496 114q125 0 203 97.5t95 266.5q17 171 -39.5 268.5t-181.5 97.5q-124 0 -199.5 -96.5
t-92.5 -269.5q-11 -111 9 -193t71.5 -126.5t134.5 -44.5zM358 1118l-81 78l351 312l295 -312l-97 -78l-213 216z" />
    <glyph glyph-name="ucircumflex" unicode="&#xfb;" horiz-adv-x="1090" 
d="M478 -18q-97 0 -166 40t-102 121.5t-22 206.5l58 608h142l-56 -596q-12 -120 34.5 -181t145.5 -61q80 0 144 48t105 132t51 192l44 466h142l-90 -958h-142l18 190q-52 -100 -131 -154t-175 -54zM389 1118l-81 78l351 312l295 -312l-97 -78l-213 216z" />
    <glyph glyph-name="Acircumflex" unicode="&#xc2;" horiz-adv-x="1034" 
d="M46 0l508 1258h174l260 -1258h-148l-66 320h-450l-128 -320h-150zM372 444h376l-128 622zM403 1420l-81 78l351 312l295 -312l-97 -78l-213 216z" />
    <glyph glyph-name="Ecircumflex" unicode="&#xca;" horiz-adv-x="1012" 
d="M180 0l118 1258h698l-16 -136h-554l-40 -422h522l-12 -134h-522l-40 -428h556l-14 -138h-696zM392 1420l-81 78l351 312l295 -312l-97 -78l-213 216z" />
    <glyph glyph-name="Icircumflex" unicode="&#xce;" horiz-adv-x="504" 
d="M182 0l118 1258h142l-118 -1258h-142zM138 1420l-81 78l351 312l295 -312l-97 -78l-213 216z" />
    <glyph glyph-name="Ocircumflex" unicode="&#xd4;" horiz-adv-x="1162" 
d="M578 -22q-141 0 -244.5 71.5t-153 216t-28.5 362.5q20 219 97 364t194.5 216.5t258.5 71.5t245 -72.5t154.5 -217.5t30.5 -362q-22 -220 -100 -364t-195.5 -215t-258.5 -71zM592 122q158 0 263 128.5t129 377.5q24 245 -57 377.5t-239 132.5q-159 0 -262.5 -132.5
t-127.5 -377.5q-24 -249 56.5 -377.5t237.5 -128.5zM467 1420l-81 78l351 312l295 -312l-97 -78l-213 216z" />
    <glyph glyph-name="Ucircumflex" unicode="&#xdb;" horiz-adv-x="1178" 
d="M584 -22q-198 0 -302.5 120.5t-83.5 355.5l78 804h142l-78 -804q-16 -175 56 -253.5t202 -78.5q129 0 215.5 78.5t102.5 253.5l78 804h142l-78 -804q-14 -157 -77 -263t-165 -159.5t-232 -53.5zM476 1420l-81 78l351 312l295 -312l-97 -78l-213 216z" />
    <glyph glyph-name="tilde" unicode="&#x2dc;" horiz-adv-x="736" 
d="M291 1180l-54 38q33 106 79.5 157t101.5 51q23 0 48 -11t77 -41q49 -29 70.5 -40.5t41.5 -11.5q29 0 55.5 23t51.5 81l58 -46q-19 -63 -47.5 -108t-61.5 -68.5t-67 -23.5q-23 0 -50.5 13t-86.5 45q-49 27 -67.5 35.5t-35.5 8.5q-28 0 -55.5 -21.5t-57.5 -80.5z" />
    <glyph glyph-name="ampersand" unicode="&#x26;" horiz-adv-x="1648" 
d="M602 -22q-128 0 -224 49t-146 133t-40 188q14 135 107 210.5t261 105.5l-24 26q-60 63 -89.5 137.5t-22.5 156.5q8 84 57 150.5t131.5 105t191.5 38.5q101 0 172.5 -39t106.5 -105t27 -148q-10 -112 -88.5 -199.5t-243.5 -162.5l260 -278q71 84 130 190t108 224l94 -60
q-49 -127 -111 -240.5t-137 -203.5l70 -74q32 -34 59.5 -50t70.5 -16q44 0 82.5 38t51.5 126h134q-21 -144 -89.5 -223t-182.5 -79q-43 0 -77 10.5t-65.5 32.5t-66.5 55.5t-81 79.5q-91 -84 -197.5 -131t-228.5 -47zM618 118q90 0 171 34.5t153 97.5l-302 328
q-141 -19 -212.5 -75t-79.5 -149q-10 -97 59 -166.5t211 -69.5zM704 704q94 46 146.5 89.5t76 88t29.5 94.5q6 72 -39 120t-125 48q-97 0 -152.5 -55t-61.5 -129q-6 -54 13 -103.5t67 -102.5z" />
    <glyph glyph-name="at" unicode="@" horiz-adv-x="1692" 
d="M944 -362q-194 0 -346.5 60.5t-255.5 170t-149.5 257t-30.5 322.5q17 182 90 334t191 263.5t270 173t327 61.5q154 0 275.5 -53.5t204 -148t120.5 -219t24 -267.5q-12 -124 -54 -223t-103.5 -169t-134 -107t-146.5 -37q-76 0 -119.5 36.5t-46.5 103.5l-4 32
q-39 -75 -97.5 -123.5t-150.5 -48.5q-73 0 -133.5 43t-93.5 121t-23 182q10 101 50 186t102 148.5t137.5 98.5t154.5 35q107 0 163.5 -72t42.5 -218l-30 -304q-4 -54 11 -78t51 -24q37 0 80.5 26.5t84.5 79.5t72 131t41 181q14 156 -40 279.5t-169 195t-283 71.5
q-148 0 -273 -55t-220 -152t-153 -223.5t-72 -269.5q-20 -201 51.5 -352t223.5 -235.5t375 -84.5zM844 182q72 0 123.5 47t102.5 137l18 212q9 86 -14 127t-86 41q-58 0 -123.5 -41.5t-114.5 -118t-58 -182.5q-12 -105 32.5 -163.5t119.5 -58.5z" />
    <glyph glyph-name="dieresis" unicode="&#xa8;" horiz-adv-x="668" 
d="M333 1210q-42 0 -64.5 29t-18.5 69q3 38 30.5 70t72.5 32q37 0 63 -26t24 -70q-3 -49 -36 -76.5t-71 -27.5zM634 1210q-40 0 -63 29t-19 69q3 38 31.5 70t71.5 32q34 0 61.5 -24.5t25.5 -71.5q-3 -53 -38 -78.5t-70 -25.5z" />
    <glyph glyph-name="adieresis" unicode="&#xe4;" horiz-adv-x="1008" 
d="M432 -22q-100 0 -165 42t-93.5 108.5t-21.5 139.5q10 97 60 159t129 92.5t173 30.5q63 0 126.5 -13.5t119.5 -38.5l12 122q14 129 -31 185.5t-143 56.5q-56 0 -103 -18t-76.5 -55.5t-34.5 -96.5h-158q10 107 64.5 170t136 90.5t171.5 27.5q163 0 247.5 -86.5t66.5 -277.5
l-58 -616h-122q0 41 1 80.5t1 79.5q-49 -92 -128 -137t-174 -45zM459 100q73 0 139 36.5t108.5 103.5t43.5 158q-55 18 -114 29t-112 11q-87 0 -150 -37.5t-72 -132.5q-6 -70 32.5 -119t124.5 -49zM458 1210q-42 0 -64.5 29t-18.5 69q3 38 30.5 70t72.5 32q37 0 63 -26
t24 -70q-3 -49 -36 -76.5t-71 -27.5zM759 1210q-40 0 -63 29t-19 69q3 38 31.5 70t71.5 32q34 0 61.5 -24.5t25.5 -71.5q-3 -53 -38 -78.5t-70 -25.5z" />
    <glyph glyph-name="edieresis" unicode="&#xeb;" horiz-adv-x="926" 
d="M478 -22q-113 0 -196 60t-123 171.5t-25 266.5q15 157 76 270t154.5 173.5t205.5 60.5q83 0 143.5 -31.5t99 -87t55.5 -127.5t12 -154q-1 -31 -5.5 -66t-12.5 -70h-635l49 33q-12 -104 5 -188.5t68.5 -133.5t141.5 -49q81 0 139 44.5t78 129.5h146q-23 -96 -77.5 -163.5
t-131.5 -103t-167 -35.5zM279 522l-38 23h550l-49 -18q12 85 1 159.5t-53.5 121t-127.5 46.5q-82 0 -141.5 -45.5t-95 -121t-46.5 -165.5zM418 1210q-42 0 -64.5 29t-18.5 69q3 38 30.5 70t72.5 32q37 0 63 -26t24 -70q-3 -49 -36 -76.5t-71 -27.5zM719 1210q-40 0 -63 29
t-19 69q3 38 31.5 70t71.5 32q34 0 61.5 -24.5t25.5 -71.5q-3 -53 -38 -78.5t-70 -25.5z" />
    <glyph glyph-name="odieresis" unicode="&#xf6;" horiz-adv-x="982" 
d="M489 -22q-117 0 -203 57t-127 168.5t-25 274.5q16 165 78.5 276.5t159 168.5t212.5 57q117 0 202 -58t126.5 -169.5t25.5 -274.5t-78.5 -274.5t-158 -168.5t-212.5 -57zM496 114q125 0 203 97.5t95 266.5q17 171 -39.5 268.5t-181.5 97.5q-124 0 -199.5 -96.5
t-92.5 -269.5q-11 -111 9 -193t71.5 -126.5t134.5 -44.5zM469 1210q-42 0 -64.5 29t-18.5 69q3 38 30.5 70t72.5 32q37 0 63 -26t24 -70q-3 -49 -36 -76.5t-71 -27.5zM770 1210q-40 0 -63 29t-19 69q3 38 31.5 70t71.5 32q34 0 61.5 -24.5t25.5 -71.5q-3 -53 -38 -78.5
t-70 -25.5z" />
    <glyph glyph-name="udieresis" unicode="&#xfc;" horiz-adv-x="1090" 
d="M478 -18q-97 0 -166 40t-102 121.5t-22 206.5l58 608h142l-56 -596q-12 -120 34.5 -181t145.5 -61q80 0 144 48t105 132t51 192l44 466h142l-90 -958h-142l18 190q-52 -100 -131 -154t-175 -54zM500 1210q-42 0 -64.5 29t-18.5 69q3 38 30.5 70t72.5 32q37 0 63 -26
t24 -70q-3 -49 -36 -76.5t-71 -27.5zM801 1210q-40 0 -63 29t-19 69q3 38 31.5 70t71.5 32q34 0 61.5 -24.5t25.5 -71.5q-3 -53 -38 -78.5t-70 -25.5z" />
    <glyph glyph-name="Adieresis" unicode="&#xc4;" horiz-adv-x="1034" 
d="M46 0l508 1258h174l260 -1258h-148l-66 320h-450l-128 -320h-150zM372 444h376l-128 622zM514 1512q-42 0 -64.5 29t-18.5 69q3 38 30.5 70t72.5 32q37 0 63 -26t24 -70q-3 -49 -36 -76.5t-71 -27.5zM815 1512q-40 0 -63 29t-19 69q3 38 31.5 70t71.5 32q34 0 61.5 -24.5
t25.5 -71.5q-3 -53 -38 -78.5t-70 -25.5z" />
    <glyph glyph-name="Edieresis" unicode="&#xcb;" horiz-adv-x="1012" 
d="M180 0l118 1258h698l-16 -136h-554l-40 -422h522l-12 -134h-522l-40 -428h556l-14 -138h-696zM503 1512q-42 0 -64.5 29t-18.5 69q3 38 30.5 70t72.5 32q37 0 63 -26t24 -70q-3 -49 -36 -76.5t-71 -27.5zM804 1512q-40 0 -63 29t-19 69q3 38 31.5 70t71.5 32
q34 0 61.5 -24.5t25.5 -71.5q-3 -53 -38 -78.5t-70 -25.5z" />
    <glyph glyph-name="Idieresis" unicode="&#xcf;" horiz-adv-x="504" 
d="M182 0l118 1258h142l-118 -1258h-142zM249 1512q-42 0 -64.5 29t-18.5 69q3 38 30.5 70t72.5 32q37 0 63 -26t24 -70q-3 -49 -36 -76.5t-71 -27.5zM550 1512q-40 0 -63 29t-19 69q3 38 31.5 70t71.5 32q34 0 61.5 -24.5t25.5 -71.5q-3 -53 -38 -78.5t-70 -25.5z" />
    <glyph glyph-name="Odieresis" unicode="&#xd6;" horiz-adv-x="1162" 
d="M578 -22q-141 0 -244.5 71.5t-153 216t-28.5 362.5q20 219 97 364t194.5 216.5t258.5 71.5t245 -72.5t154.5 -217.5t30.5 -362q-22 -220 -100 -364t-195.5 -215t-258.5 -71zM592 122q158 0 263 128.5t129 377.5q24 245 -57 377.5t-239 132.5q-159 0 -262.5 -132.5
t-127.5 -377.5q-24 -249 56.5 -377.5t237.5 -128.5zM578 1512q-42 0 -64.5 29t-18.5 69q3 38 30.5 70t72.5 32q37 0 63 -26t24 -70q-3 -49 -36 -76.5t-71 -27.5zM879 1512q-40 0 -63 29t-19 69q3 38 31.5 70t71.5 32q34 0 61.5 -24.5t25.5 -71.5q-3 -53 -38 -78.5t-70 -25.5
z" />
    <glyph glyph-name="Udieresis" unicode="&#xdc;" horiz-adv-x="1178" 
d="M584 -22q-198 0 -302.5 120.5t-83.5 355.5l78 804h142l-78 -804q-16 -175 56 -253.5t202 -78.5q129 0 215.5 78.5t102.5 253.5l78 804h142l-78 -804q-14 -157 -77 -263t-165 -159.5t-232 -53.5zM587 1512q-42 0 -64.5 29t-18.5 69q3 38 30.5 70t72.5 32q37 0 63 -26
t24 -70q-3 -49 -36 -76.5t-71 -27.5zM888 1512q-40 0 -63 29t-19 69q3 38 31.5 70t71.5 32q34 0 61.5 -24.5t25.5 -71.5q-3 -53 -38 -78.5t-70 -25.5z" />
    <glyph glyph-name="igrave" unicode="&#xec;" horiz-adv-x="538" 
d="M190 0l90 958h142l-90 -958h-142zM552 1086l-419 226l72 140l398 -266z" />
    <glyph glyph-name="iacute" unicode="&#xed;" horiz-adv-x="538" 
d="M190 0l90 958h142l-90 -958h-142zM249 1109l-33 100l448 266l47 -140z" />
    <glyph glyph-name="icircumflex" unicode="&#xee;" horiz-adv-x="538" 
d="M190 0l90 958h142l-90 -958h-142zM112 1118l-81 78l351 312l295 -312l-97 -78l-213 216z" />
    <glyph glyph-name="idieresis" unicode="&#xef;" horiz-adv-x="538" 
d="M190 0l90 958h142l-90 -958h-142zM223 1210q-42 0 -64.5 29t-18.5 69q3 38 30.5 70t72.5 32q37 0 63 -26t24 -70q-3 -49 -36 -76.5t-71 -27.5zM524 1210q-40 0 -63 29t-19 69q3 38 31.5 70t71.5 32q34 0 61.5 -24.5t25.5 -71.5q-3 -53 -38 -78.5t-70 -25.5z" />
    <glyph glyph-name="less" unicode="&#x3c;" horiz-adv-x="1000" 
d="M799 1144l82 -120l-558 -414l480 -408l-104 -122l-526 462l12 138z" />
    <glyph glyph-name="greater" unicode="&#x3e;" horiz-adv-x="1000" 
d="M239 80l-82 122l554 408l-476 414l104 120l524 -464l-12 -138z" />
    <glyph glyph-name="quotedbl" unicode="&#x22;" horiz-adv-x="550" 
d="M458 922l22 440h148l-62 -440h-108zM156 922l22 440h148l-62 -440h-108z" />
    <glyph glyph-name="numbersign" unicode="#" horiz-adv-x="1128" 
d="M254 62l52 278h-180l20 108h180l68 356h-182l20 106h182l52 276h134l-52 -276h276l52 276h132l-52 -276h184l-20 -106h-184l-68 -356h184l-20 -108h-184l-52 -278h-134l52 278h-276l-52 -278h-132zM460 448h276l68 356h-276z" />
    <glyph glyph-name="asterisk" unicode="*" horiz-adv-x="742" 
d="M302 776l-74 78l180 178l-202 80l54 108l180 -108l4 256h112l-42 -256l202 108l32 -108l-216 -80l144 -178l-86 -78l-124 208z" />
    <glyph glyph-name="slash" unicode="/" horiz-adv-x="778" 
d="M88 -146l604 1608h144l-606 -1608h-142z" />
    <glyph glyph-name="percent" unicode="%" horiz-adv-x="1306" 
d="M202 0l878 1258h148l-880 -1258h-146zM964 -22q-90 0 -151.5 72.5t-48.5 213.5q14 143 90 215.5t166 72.5q92 0 155 -72.5t49 -215.5q-13 -141 -90 -213.5t-170 -72.5zM976 86q51 0 88 42.5t44 135.5q11 93 -18 137.5t-80 44.5q-52 0 -88.5 -44.5t-47.5 -137.5
q-7 -93 21.5 -135.5t80.5 -42.5zM406 706q-61 0 -110 32.5t-75 96t-17 157.5t47 158t93 97t116 33q92 0 155 -73.5t49 -214.5q-13 -141 -89.5 -213.5t-168.5 -72.5zM416 814q50 0 86.5 42.5t45.5 135.5t-19.5 137.5t-78.5 44.5q-54 0 -90.5 -44.5t-45.5 -137.5t19.5 -135.5
t82.5 -42.5z" />
    <glyph glyph-name="backslash" unicode="\" horiz-adv-x="778" 
d="M784 -146l-604 1608h142l606 -1608h-144z" />
    <glyph glyph-name="bar" unicode="|" horiz-adv-x="504" 
d="M158 -244l164 1744h142l-164 -1744h-142z" />
    <glyph glyph-name="bracketleft" unicode="[" horiz-adv-x="570" 
d="M133 -204l156 1666h356l-12 -140h-214l-132 -1386h214l-12 -140h-356z" />
    <glyph glyph-name="bracketright" unicode="]" horiz-adv-x="512" 
d="M-14 -204l13 140h214l146 1386h-214l14 140h358l-176 -1666h-355z" />
    <glyph glyph-name="asciicircum" unicode="^" horiz-adv-x="806" 
d="M82 490l382 682h110l252 -682h-158l-168 494l-258 -494h-160z" />
    <glyph glyph-name="underscore" unicode="_" horiz-adv-x="1306" 
d="M76 -1l11 136h1108l-12 -136h-1107z" />
    <glyph glyph-name="braceleft" unicode="{" horiz-adv-x="628" 
d="M586 -276q-140 0 -218 60.5t-105.5 166t-14.5 241.5l16 184q9 86 -3 122t-45 36h-30l14 152h30q35 0 53 35.5t27 122.5l16 182q13 136 60.5 242t137.5 167t230 61l-12 -138q-132 0 -195.5 -85t-80.5 -249l-16 -184q-9 -93 -40.5 -147.5t-75.5 -78.5l-2 -8
q41 -22 62 -77.5t10 -148.5l-16 -186q-15 -162 32 -247t180 -85z" />
    <glyph glyph-name="braceright" unicode="}" horiz-adv-x="628" 
d="M-30 -276l12 138q132 0 197.5 85.5t78.5 248.5l16 184q9 93 42 148.5t76 79.5v6q-34 20 -54 63t-20 115q0 11 0.5 23.5t1.5 24.5l16 186q3 33 3.5 49.5t0.5 28.5q0 125 -50 189.5t-166 64.5l14 138q124 0 199 -48t109 -133t34 -197q0 -21 -1 -44t-3 -46l-16 -184
q-1 -18 -2.5 -33t-1.5 -29q0 -52 12.5 -74t39.5 -22h30l-14 -152h-30q-34 0 -53 -35.5t-27 -122.5l-16 -182q-13 -136 -60.5 -242t-137.5 -167t-230 -61z" />
    <glyph glyph-name="asciitilde" unicode="~" horiz-adv-x="1000" 
d="M214 446l-76 46q39 107 93.5 164.5t120.5 57.5q33 0 71.5 -12t104.5 -44q71 -31 104 -42.5t58 -11.5q73 0 128 114l72 -54q-42 -108 -99 -160t-123 -52q-27 0 -67.5 14t-106.5 42q-69 32 -101.5 44t-58.5 12q-30 0 -60.5 -26.5t-59.5 -91.5z" />
    <glyph glyph-name="atilde" unicode="&#xe3;" horiz-adv-x="1008" 
d="M432 -22q-100 0 -165 42t-93.5 108.5t-21.5 139.5q10 97 60 159t129 92.5t173 30.5q63 0 126.5 -13.5t119.5 -38.5l12 122q14 129 -31 185.5t-143 56.5q-56 0 -103 -18t-76.5 -55.5t-34.5 -96.5h-158q10 107 64.5 170t136 90.5t171.5 27.5q163 0 247.5 -86.5t66.5 -277.5
l-58 -616h-122q0 41 1 80.5t1 79.5q-49 -92 -128 -137t-174 -45zM459 100q73 0 139 36.5t108.5 103.5t43.5 158q-55 18 -114 29t-112 11q-87 0 -150 -37.5t-72 -132.5q-6 -70 32.5 -119t124.5 -49zM382 1180l-54 38q33 106 79.5 157t101.5 51q23 0 48 -11t77 -41
q49 -29 70.5 -40.5t41.5 -11.5q29 0 55.5 23t51.5 81l58 -46q-19 -63 -47.5 -108t-61.5 -68.5t-67 -23.5q-23 0 -50.5 13t-86.5 45q-49 27 -67.5 35.5t-35.5 8.5q-28 0 -55.5 -21.5t-57.5 -80.5z" />
    <glyph glyph-name="ntilde" unicode="&#xf1;" horiz-adv-x="1086" 
d="M180 0l90 956h122l-2 -186q51 102 129.5 156t178.5 54q102 0 170.5 -50t98.5 -143.5t17 -224.5l-52 -562h-140l52 562q14 138 -40 208t-149 70q-121 0 -197.5 -103.5t-93.5 -284.5l-42 -452h-142zM422 1180l-54 38q33 106 79.5 157t101.5 51q23 0 48 -11t77 -41
q49 -29 70.5 -40.5t41.5 -11.5q29 0 55.5 23t51.5 81l58 -46q-19 -63 -47.5 -108t-61.5 -68.5t-67 -23.5q-23 0 -50.5 13t-86.5 45q-49 27 -67.5 35.5t-35.5 8.5q-28 0 -55.5 -21.5t-57.5 -80.5z" />
    <glyph glyph-name="otilde" unicode="&#xf5;" horiz-adv-x="982" 
d="M489 -22q-117 0 -203 57t-127 168.5t-25 274.5q16 165 78.5 276.5t159 168.5t212.5 57q117 0 202 -58t126.5 -169.5t25.5 -274.5t-78.5 -274.5t-158 -168.5t-212.5 -57zM496 114q125 0 203 97.5t95 266.5q17 171 -39.5 268.5t-181.5 97.5q-124 0 -199.5 -96.5
t-92.5 -269.5q-11 -111 9 -193t71.5 -126.5t134.5 -44.5zM393 1180l-54 38q33 106 79.5 157t101.5 51q23 0 48 -11t77 -41q49 -29 70.5 -40.5t41.5 -11.5q29 0 55.5 23t51.5 81l58 -46q-19 -63 -47.5 -108t-61.5 -68.5t-67 -23.5q-23 0 -50.5 13t-86.5 45q-49 27 -67.5 35.5
t-35.5 8.5q-28 0 -55.5 -21.5t-57.5 -80.5z" />
    <glyph glyph-name="Atilde" unicode="&#xc3;" horiz-adv-x="1034" 
d="M46 0l508 1258h174l260 -1258h-148l-66 320h-450l-128 -320h-150zM372 444h376l-128 622zM438 1482l-54 38q33 106 79.5 157t101.5 51q23 0 48 -11t77 -41q49 -29 70.5 -40.5t41.5 -11.5q29 0 55.5 23t51.5 81l58 -46q-19 -63 -47.5 -108t-61.5 -68.5t-67 -23.5
q-23 0 -50.5 13t-86.5 45q-49 27 -67.5 35.5t-35.5 8.5q-28 0 -55.5 -21.5t-57.5 -80.5z" />
    <glyph glyph-name="Ntilde" unicode="&#xd1;" horiz-adv-x="1232" 
d="M178 0l118 1258h166l494 -1061l-30 3l102 1058h142l-118 -1258h-156l-506 1074l32 -3l-100 -1071h-144zM537 1482l-54 38q33 106 79.5 157t101.5 51q23 0 48 -11t77 -41q49 -29 70.5 -40.5t41.5 -11.5q29 0 55.5 23t51.5 81l58 -46q-19 -63 -47.5 -108t-61.5 -68.5
t-67 -23.5q-23 0 -50.5 13t-86.5 45q-49 27 -67.5 35.5t-35.5 8.5q-28 0 -55.5 -21.5t-57.5 -80.5z" />
    <glyph glyph-name="Otilde" unicode="&#xd5;" horiz-adv-x="1162" 
d="M578 -22q-141 0 -244.5 71.5t-153 216t-28.5 362.5q20 219 97 364t194.5 216.5t258.5 71.5t245 -72.5t154.5 -217.5t30.5 -362q-22 -220 -100 -364t-195.5 -215t-258.5 -71zM592 122q158 0 263 128.5t129 377.5q24 245 -57 377.5t-239 132.5q-159 0 -262.5 -132.5
t-127.5 -377.5q-24 -249 56.5 -377.5t237.5 -128.5zM502 1482l-54 38q33 106 79.5 157t101.5 51q23 0 48 -11t77 -41q49 -29 70.5 -40.5t41.5 -11.5q29 0 55.5 23t51.5 81l58 -46q-19 -63 -47.5 -108t-61.5 -68.5t-67 -23.5q-23 0 -50.5 13t-86.5 45q-49 27 -67.5 35.5
t-35.5 8.5q-28 0 -55.5 -21.5t-57.5 -80.5z" />
    <glyph glyph-name="Abreve" unicode="&#x102;" horiz-adv-x="1034" 
d="M46 0l508 1258h174l260 -1258h-148l-66 320h-450l-128 -320h-150zM372 444h376l-128 622zM638 1454q-126 0 -192 71.5t-50 182.5h129q-10 -70 25.5 -109t102.5 -39q68 0 113.5 39t55.5 109h129q-12 -114 -98 -184t-215 -70z" />
    <glyph glyph-name="Amacron" unicode="&#x100;" horiz-adv-x="1034" 
d="M46 0l508 1258h174l260 -1258h-148l-66 320h-450l-128 -320h-150zM372 444h376l-128 622zM365 1599h624l-21 -129h-624z" />
    <glyph glyph-name="Aogonek" unicode="&#x104;" horiz-adv-x="1034" 
d="M46 0l508 1258h174l260 -1258h-148l-66 320h-450l-128 -320h-150zM372 444h376l-128 622zM1104 -330q-62 -35 -131 -54t-132 -19q-98 0 -157.5 45t-59.5 124t64 153t191 122l100 -39q-112 -46 -177 -97t-65 -110q0 -45 36 -66t87 -21q46 0 95.5 15.5t110.5 49.5z" />
    <glyph glyph-name="Aring" unicode="&#xc5;" horiz-adv-x="1034" 
d="M46 0l508 1258h174l260 -1258h-148l-66 320h-450l-128 -320h-150zM372 444h376l-128 622zM663 1393q-55 0 -100.5 27.5t-72.5 73t-27 99.5q0 55 27 100.5t72.5 72.5t100.5 27t100.5 -27t72.5 -72.5t27 -100.5q0 -54 -27 -99.5t-72.5 -73t-100.5 -27.5zM663 1505
q37 0 63 25.5t26 62.5q0 38 -26 63.5t-63 25.5t-63 -25.5t-26 -63.5q0 -37 26 -62.5t63 -25.5z" />
    <glyph glyph-name="AE" unicode="&#xc6;" horiz-adv-x="1488" 
d="M46 0l508 1258h914l-11 -136h-606l56 46l-47 -515l-49 47h572l-10 -134h-574l57 46l-48 -521l-49 47h608l-14 -138h-701l34 365l42 -25h-438l53 30l-147 -370h-150zM690 404l71 762l41 -44h-194l51 43l-300 -754l-18 53h398z" />
    <glyph glyph-name="Cacute" unicode="&#x106;" horiz-adv-x="1104" 
d="M570 -22q-150 0 -250 83t-143.5 231t-24.5 344q19 209 96 352.5t193.5 217.5t252.5 74q182 0 283.5 -101t128.5 -263l-158 -34q-24 117 -95 186.5t-173 69.5q-89 0 -169.5 -56.5t-136 -168.5t-70.5 -277q-14 -150 11.5 -266.5t92 -183t176.5 -66.5q135 0 221.5 79.5
t98.5 208.5h152q-12 -135 -77 -231t-170.5 -147.5t-238.5 -51.5zM609 1411l-33 100l448 266l47 -140z" />
    <glyph glyph-name="Ccaron" unicode="&#x10c;" horiz-adv-x="1104" 
d="M570 -22q-150 0 -250 83t-143.5 231t-24.5 344q19 209 96 352.5t193.5 217.5t252.5 74q182 0 283.5 -101t128.5 -263l-158 -34q-24 117 -95 186.5t-173 69.5q-89 0 -169.5 -56.5t-136 -168.5t-70.5 -277q-14 -150 11.5 -266.5t92 -183t176.5 -66.5q135 0 221.5 79.5
t98.5 208.5h152q-12 -135 -77 -231t-170.5 -147.5t-238.5 -51.5zM993 1816l81 -78l-351 -312l-295 312l97 78l213 -216z" />
    <glyph glyph-name="Ccedilla" unicode="&#xc7;" horiz-adv-x="1104" 
d="M570 -22q-150 0 -250 83t-143.5 231t-24.5 344q19 209 96 352.5t193.5 217.5t252.5 74q182 0 283.5 -101t128.5 -263l-158 -34q-24 117 -95 186.5t-173 69.5q-89 0 -169.5 -56.5t-136 -168.5t-70.5 -277q-14 -150 11.5 -266.5t92 -183t176.5 -66.5q135 0 221.5 79.5
t98.5 208.5h152q-12 -135 -77 -231t-170.5 -147.5t-238.5 -51.5zM404 -356l22 66q77 -40 136.5 -45t93.5 15t34 55q1 35 -30.5 61t-79 44t-97.5 29l59 187l90 -8l-55 -175l-40 57q91 -20 154 -49t95.5 -67t32.5 -86q0 -57 -42 -91.5t-107 -45t-136 2.5t-130 50z" />
    <glyph glyph-name="Cdotaccent" unicode="&#x10a;" horiz-adv-x="1104" 
d="M570 -22q-150 0 -250 83t-143.5 231t-24.5 344q19 209 96 352.5t193.5 217.5t252.5 74q182 0 283.5 -101t128.5 -263l-158 -34q-24 117 -95 186.5t-173 69.5q-89 0 -169.5 -56.5t-136 -168.5t-70.5 -277q-14 -150 11.5 -266.5t92 -183t176.5 -66.5q135 0 221.5 79.5
t98.5 208.5h152q-12 -135 -77 -231t-170.5 -147.5t-238.5 -51.5zM734 1512q-40 0 -63.5 29t-19.5 69q3 38 32.5 70t77.5 32q34 0 59 -26t21 -70q-5 -49 -35.5 -76.5t-71.5 -27.5z" />
    <glyph glyph-name="Dcaron" unicode="&#x10e;" horiz-adv-x="1190" 
d="M298 1258h334q172 0 291 -78t175 -219t38 -331q-18 -191 -101 -332.5t-217 -219.5t-306 -78h-332zM426 1118l-92 -980h192q127 0 225.5 64t159 175t73.5 253q13 141 -26.5 251.5t-126 173.5t-213.5 63h-192zM1002 1816l81 -78l-351 -312l-295 312l97 78l213 -216z" />
    <glyph glyph-name="Dcroat" unicode="&#x110;" horiz-adv-x="1190" 
d="M123 705h549l-15 -140h-551zM298 1258h334q172 0 291 -78t175 -219t38 -331q-18 -191 -101 -332.5t-217 -219.5t-306 -78h-332zM426 1118l-92 -980h192q127 0 225.5 64t159 175t73.5 253q13 141 -26.5 251.5t-126 173.5t-213.5 63h-192z" />
    <glyph glyph-name="Eth" unicode="&#xd0;" horiz-adv-x="1190" 
d="M123 705h549l-15 -140h-551zM298 1258h334q172 0 291 -78t175 -219t38 -331q-18 -191 -101 -332.5t-217 -219.5t-306 -78h-332zM426 1118l-92 -980h192q127 0 225.5 64t159 175t73.5 253q13 141 -26.5 251.5t-126 173.5t-213.5 63h-192z" />
    <glyph glyph-name="Ecaron" unicode="&#x11a;" horiz-adv-x="1012" 
d="M180 0l118 1258h698l-16 -136h-554l-40 -422h522l-12 -134h-522l-40 -428h556l-14 -138h-696zM913 1816l81 -78l-351 -312l-295 312l97 78l213 -216z" />
    <glyph glyph-name="Edotaccent" unicode="&#x116;" horiz-adv-x="1012" 
d="M180 0l118 1258h698l-16 -136h-554l-40 -422h522l-12 -134h-522l-40 -428h556l-14 -138h-696zM654 1512q-40 0 -63.5 29t-19.5 69q3 38 32.5 70t77.5 32q34 0 59 -26t21 -70q-5 -49 -35.5 -76.5t-71.5 -27.5z" />
    <glyph glyph-name="Emacron" unicode="&#x112;" horiz-adv-x="1012" 
d="M180 0l118 1258h698l-16 -136h-554l-40 -422h522l-12 -134h-522l-40 -428h556l-14 -138h-696zM354 1599h624l-21 -129h-624z" />
    <glyph glyph-name="Eogonek" unicode="&#x118;" horiz-adv-x="1012" 
d="M180 0l118 1258h698l-16 -136h-554l-40 -422h522l-12 -134h-522l-40 -428h556l-14 -138h-696zM942 -327q-62 -35 -131 -54t-132 -19q-98 0 -157.5 45t-59.5 124t64 153t191 122l100 -39q-112 -46 -177 -97t-65 -110q0 -45 36 -66t87 -21q46 0 95.5 15.5t110.5 49.5z" />
    <glyph glyph-name="Gbreve" unicode="&#x11e;" horiz-adv-x="1160" 
d="M576 -22q-134 0 -237 77.5t-155.5 220t-33.5 338.5q15 163 69 287t136 208t182 126.5t207 42.5q132 0 227 -60.5t153 -191.5l-142 -52q-52 83 -116.5 122.5t-141.5 39.5q-101 0 -192 -62.5t-153.5 -179.5t-78.5 -280q-13 -144 18.5 -255t103 -174t178.5 -63
q81 0 152.5 39.5t118 121.5t51.5 207q2 13 -0.5 26.5t-11.5 38.5l59 -51l-329 14l10 104h422l-56 -622h-116q0 62 1.5 124.5t0.5 123.5l12 3q-45 -129 -128 -201t-210 -72zM701 1454q-126 0 -192 71.5t-50 182.5h129q-10 -70 25.5 -109t102.5 -39q68 0 113.5 39t55.5 109
h129q-12 -114 -98 -184t-215 -70z" />
    <glyph glyph-name="uni0122" unicode="&#x122;" horiz-adv-x="1160" 
d="M576 -22q-134 0 -237 77.5t-155.5 220t-33.5 338.5q15 163 69 287t136 208t182 126.5t207 42.5q132 0 227 -60.5t153 -191.5l-142 -52q-52 83 -116.5 122.5t-141.5 39.5q-101 0 -192 -62.5t-153.5 -179.5t-78.5 -280q-13 -144 18.5 -255t103 -174t178.5 -63
q81 0 152.5 39.5t118 121.5t51.5 207q2 13 -0.5 26.5t-11.5 38.5l59 -51l-329 14l10 104h422l-56 -622h-116q0 62 1.5 124.5t0.5 123.5l12 3q-45 -129 -128 -201t-210 -72zM450 -424l-89 52q48 24 83.5 57t50.5 77q-37 4 -60 27.5t-19 63.5q5 38 33 64.5t69 26.5
q50 0 76 -40.5t21 -98.5q-6 -60 -47 -124t-118 -105z" />
    <glyph glyph-name="Gdotaccent" unicode="&#x120;" horiz-adv-x="1160" 
d="M576 -22q-134 0 -237 77.5t-155.5 220t-33.5 338.5q15 163 69 287t136 208t182 126.5t207 42.5q132 0 227 -60.5t153 -191.5l-142 -52q-52 83 -116.5 122.5t-141.5 39.5q-101 0 -192 -62.5t-153.5 -179.5t-78.5 -280q-13 -144 18.5 -255t103 -174t178.5 -63
q81 0 152.5 39.5t118 121.5t51.5 207q2 13 -0.5 26.5t-11.5 38.5l59 -51l-329 14l10 104h422l-56 -622h-116q0 62 1.5 124.5t0.5 123.5l12 3q-45 -129 -128 -201t-210 -72zM728 1512q-40 0 -63.5 29t-19.5 69q3 38 32.5 70t77.5 32q34 0 59 -26t21 -70q-5 -49 -35.5 -76.5
t-71.5 -27.5z" />
    <glyph glyph-name="Hbar" unicode="&#x126;" horiz-adv-x="1204" 
d="M182 0l118 1258h142l-63 -666l-41 35h647l-50 -33l63 664h144l-120 -1258h-142l51 546l41 -38h-646l49 38l-51 -546h-142zM323 780l24 119h702l-22 -119h-704z" />
    <glyph glyph-name="IJ" unicode="&#x132;" horiz-adv-x="1232" 
d="M182 0l118 1258h142l-118 -1258h-142zM524 62l14 164q60 -48 121.5 -72t122.5 -24q95 0 140.5 61t57.5 173l84 894h142l-84 -894q-14 -137 -60.5 -222t-119 -124.5t-164.5 -39.5q-75 0 -136 24t-118 60z" />
    <glyph glyph-name="Idotaccent" unicode="&#x130;" horiz-adv-x="504" 
d="M182 0l118 1258h142l-118 -1258h-142zM400 1512q-40 0 -63.5 29t-19.5 69q3 38 32.5 70t77.5 32q34 0 59 -26t21 -70q-5 -49 -35.5 -76.5t-71.5 -27.5z" />
    <glyph glyph-name="Imacron" unicode="&#x12a;" horiz-adv-x="504" 
d="M182 0l118 1258h142l-118 -1258h-142zM165 1599h468l-15 -129h-468z" />
    <glyph glyph-name="Iogonek" unicode="&#x12e;" horiz-adv-x="504" 
d="M182 0l118 1258h142l-118 -1258h-142zM449 -332q-62 -35 -131 -54t-132 -19q-98 0 -157.5 45t-59.5 124t64 153t191 122l100 -39q-112 -46 -177 -97t-65 -110q0 -45 36 -66t87 -21q46 0 95.5 15.5t110.5 49.5z" />
    <glyph glyph-name="uni0136" unicode="&#x136;" horiz-adv-x="1096" 
d="M300 1258h144l-54 -582l560 582h196l-548 -564l460 -694h-184l-382 582l-124 -126l-42 -456h-144zM418 -424l-89 52q48 24 83.5 57t50.5 77q-37 4 -60 27.5t-19 63.5q5 38 33 64.5t69 26.5q50 0 76 -40.5t21 -98.5q-6 -60 -47 -124t-118 -105z" />
    <glyph glyph-name="Lacute" unicode="&#x139;" horiz-adv-x="842" 
d="M182 0l118 1258h142l-106 -1120h504l-12 -138h-646zM444 1411l-33 100l448 266l47 -140z" />
    <glyph glyph-name="Lcaron" unicode="&#x13d;" horiz-adv-x="842" 
d="M182 0l118 1258h142l-106 -1120h504l-12 -138h-646zM764 890l-89 52q48 24 83.5 57t50.5 77q-37 4 -60 27.5t-19 63.5q5 38 33 64.5t69 26.5q50 0 76 -40.5t21 -98.5q-6 -60 -47 -124t-118 -105z" />
    <glyph glyph-name="uni013B" unicode="&#x13b;" horiz-adv-x="842" 
d="M182 0l118 1258h142l-106 -1120h504l-12 -138h-646zM398 -424l-89 52q48 24 83.5 57t50.5 77q-37 4 -60 27.5t-19 63.5q5 38 33 64.5t69 26.5q50 0 76 -40.5t21 -98.5q-6 -60 -47 -124t-118 -105z" />
    <glyph glyph-name="Lslash" unicode="&#x141;" horiz-adv-x="842" 
d="M92 631l-1 133l503 83l1 -132zM182 0l118 1258h142l-106 -1120h504l-12 -138h-646z" />
    <glyph glyph-name="Nacute" unicode="&#x143;" horiz-adv-x="1232" 
d="M178 0l118 1258h166l494 -1061l-30 3l102 1058h142l-118 -1258h-156l-506 1074l32 -3l-100 -1071h-144zM639 1411l-33 100l448 266l47 -140z" />
    <glyph glyph-name="Ncaron" unicode="&#x147;" horiz-adv-x="1232" 
d="M178 0l118 1258h166l494 -1061l-30 3l102 1058h142l-118 -1258h-156l-506 1074l32 -3l-100 -1071h-144zM1023 1816l81 -78l-351 -312l-295 312l97 78l213 -216z" />
    <glyph glyph-name="uni0145" unicode="&#x145;" horiz-adv-x="1232" 
d="M178 0l118 1258h166l494 -1061l-30 3l102 1058h142l-118 -1258h-156l-506 1074l32 -3l-100 -1071h-144zM556 -424l-89 52q48 24 83.5 57t50.5 77q-37 4 -60 27.5t-19 63.5q5 38 33 64.5t69 26.5q50 0 76 -40.5t21 -98.5q-6 -60 -47 -124t-118 -105z" />
    <glyph glyph-name="Eng" unicode="&#x14a;" horiz-adv-x="1218" 
d="M445 -402l13 164q60 -49 122 -72.5t123 -23.5q95 0 142 60.5t57 173.5l84 894h139l-82 -894q-13 -137 -59.5 -222t-119.5 -124.5t-165 -39.5q-76 0 -136.5 24t-117.5 60zM178 0l118 1258h166l494 -1061l-30 3l102 1058h142l-118 -1258l-129 -60l-533 1134l32 -3
l-100 -1071h-144z" />
    <glyph glyph-name="Ohungarumlaut" unicode="&#x150;" horiz-adv-x="1162" 
d="M578 -22q-141 0 -244.5 71.5t-153 216t-28.5 362.5q20 219 97 364t194.5 216.5t258.5 71.5t245 -72.5t154.5 -217.5t30.5 -362q-22 -220 -100 -364t-195.5 -215t-258.5 -71zM592 122q158 0 263 128.5t129 377.5q24 245 -57 377.5t-239 132.5q-159 0 -262.5 -132.5
t-127.5 -377.5q-24 -249 56.5 -377.5t237.5 -128.5zM864 1395l-85 13l28 325l121 -21zM629 1403l-87 10l17 328l122 -17z" />
    <glyph glyph-name="Omacron" unicode="&#x14c;" horiz-adv-x="1162" 
d="M578 -22q-141 0 -244.5 71.5t-153 216t-28.5 362.5q20 219 97 364t194.5 216.5t258.5 71.5t245 -72.5t154.5 -217.5t30.5 -362q-22 -220 -100 -364t-195.5 -215t-258.5 -71zM592 122q158 0 263 128.5t129 377.5q24 245 -57 377.5t-239 132.5q-159 0 -262.5 -132.5
t-127.5 -377.5q-24 -249 56.5 -377.5t237.5 -128.5zM429 1599h624l-21 -129h-624z" />
    <glyph glyph-name="Oslash" unicode="&#xd8;" horiz-adv-x="1162" 
d="M1 0l1117 1258h158l-1120 -1258h-155zM578 -22q-141 0 -244.5 71.5t-153 216t-28.5 362.5q20 219 97 364t194.5 216.5t258.5 71.5t245 -72.5t154.5 -217.5t30.5 -362q-22 -220 -100 -364t-195.5 -215t-258.5 -71zM592 122q158 0 263 128.5t129 377.5q24 245 -57 377.5
t-239 132.5q-159 0 -262.5 -132.5t-127.5 -377.5q-24 -249 56.5 -377.5t237.5 -128.5z" />
    <glyph glyph-name="OE" unicode="&#x152;" horiz-adv-x="1761" 
d="M578 -22q-141 0 -244.5 71.5t-153 216t-28.5 362.5q20 219 97 364t194.5 216.5t258.5 71.5t245 -72.5t154.5 -217.5t30.5 -362q-22 -220 -100 -364t-195.5 -215t-258.5 -71zM592 122q158 0 263 128.5t129 377.5q24 245 -57 377.5t-239 132.5q-159 0 -262.5 -132.5
t-127.5 -377.5q-24 -249 56.5 -377.5t237.5 -128.5zM930 0l118 1258h698l-16 -136h-554l-40 -422h522l-12 -134h-522l-40 -428h556l-14 -138h-696z" />
    <glyph glyph-name="Thorn" unicode="&#xde;" horiz-adv-x="998" 
d="M178 0l118 1258h141l-25 -258l-41 45h276q124 0 205 -48t117 -135.5t24 -206.5q-16 -175 -125 -279t-295 -104h-267l43 47l-29 -319h-142zM352 353l-43 55h278q116 0 183.5 67.5t77.5 179.5q10 115 -45.5 184.5t-169.5 69.5h-277l53 58z" />
    <glyph glyph-name="Racute" unicode="&#x154;" horiz-adv-x="1104" 
d="M182 0l118 1258h394q195 0 285 -103.5t73 -270.5q-13 -142 -97 -239t-233 -123l276 -522h-182l-246 514h-198l-48 -514h-142zM382 624h240q128 0 201 69.5t83 180.5q11 114 -47.5 181t-178.5 67h-252zM575 1411l-33 100l448 266l47 -140z" />
    <glyph glyph-name="Rcaron" unicode="&#x158;" horiz-adv-x="1104" 
d="M182 0l118 1258h394q195 0 285 -103.5t73 -270.5q-13 -142 -97 -239t-233 -123l276 -522h-182l-246 514h-198l-48 -514h-142zM382 624h240q128 0 201 69.5t83 180.5q11 114 -47.5 181t-178.5 67h-252zM959 1816l81 -78l-351 -312l-295 312l97 78l213 -216z" />
    <glyph glyph-name="uni0156" unicode="&#x156;" horiz-adv-x="1104" 
d="M182 0l118 1258h394q195 0 285 -103.5t73 -270.5q-13 -142 -97 -239t-233 -123l276 -522h-182l-246 514h-198l-48 -514h-142zM382 624h240q128 0 201 69.5t83 180.5q11 114 -47.5 181t-178.5 67h-252zM422 -424l-89 52q48 24 83.5 57t50.5 77q-37 4 -60 27.5t-19 63.5
q5 38 33 64.5t69 26.5q50 0 76 -40.5t21 -98.5q-6 -60 -47 -124t-118 -105z" />
    <glyph glyph-name="Sacute" unicode="&#x15a;" horiz-adv-x="1088" 
d="M540 -22q-113 0 -203 45.5t-139 134.5t-40 220h138q-8 -88 25.5 -144.5t94.5 -84t136 -27.5q82 0 145 28.5t100.5 75.5t42.5 104q8 80 -31 128.5t-123 79.5l-192 82q-135 53 -200.5 124.5t-53.5 203.5q15 146 125 239t297 93q173 0 262 -89t90 -239h-140q-4 87 -61 135.5
t-165 48.5q-112 0 -179 -55t-75 -139q-6 -69 28.5 -109.5t115.5 -70.5l226 -90q117 -46 180.5 -126.5t51.5 -211.5q-9 -100 -65 -180.5t-155 -128t-236 -47.5zM567 1411l-33 100l448 266l47 -140z" />
    <glyph glyph-name="Scaron" unicode="&#x160;" horiz-adv-x="1088" 
d="M540 -22q-113 0 -203 45.5t-139 134.5t-40 220h138q-8 -88 25.5 -144.5t94.5 -84t136 -27.5q82 0 145 28.5t100.5 75.5t42.5 104q8 80 -31 128.5t-123 79.5l-192 82q-135 53 -200.5 124.5t-53.5 203.5q15 146 125 239t297 93q173 0 262 -89t90 -239h-140q-4 87 -61 135.5
t-165 48.5q-112 0 -179 -55t-75 -139q-6 -69 28.5 -109.5t115.5 -70.5l226 -90q117 -46 180.5 -126.5t51.5 -211.5q-9 -100 -65 -180.5t-155 -128t-236 -47.5zM951 1816l81 -78l-351 -312l-295 312l97 78l213 -216z" />
    <glyph glyph-name="Scedilla" unicode="&#x15e;" horiz-adv-x="1088" 
d="M540 -22q-113 0 -203 45.5t-139 134.5t-40 220h138q-8 -88 25.5 -144.5t94.5 -84t136 -27.5q82 0 145 28.5t100.5 75.5t42.5 104q8 80 -31 128.5t-123 79.5l-192 82q-135 53 -200.5 124.5t-53.5 203.5q15 146 125 239t297 93q173 0 262 -89t90 -239h-140q-4 87 -61 135.5
t-165 48.5q-112 0 -179 -55t-75 -139q-6 -69 28.5 -109.5t115.5 -70.5l226 -90q117 -46 180.5 -126.5t51.5 -211.5q-9 -100 -65 -180.5t-155 -128t-236 -47.5zM377 -356l22 66q77 -40 136.5 -45t93.5 15t34 55q1 35 -30.5 61t-79 44t-97.5 29l59 187l90 -8l-55 -175l-40 57
q91 -20 154 -49t95.5 -67t32.5 -86q0 -57 -42 -91.5t-107 -45t-136 2.5t-130 50z" />
    <glyph glyph-name="uni0218" unicode="&#x218;" horiz-adv-x="1088" 
d="M540 -22q-113 0 -203 45.5t-139 134.5t-40 220h138q-8 -88 25.5 -144.5t94.5 -84t136 -27.5q82 0 145 28.5t100.5 75.5t42.5 104q8 80 -31 128.5t-123 79.5l-192 82q-135 53 -200.5 124.5t-53.5 203.5q15 146 125 239t297 93q173 0 262 -89t90 -239h-140q-4 87 -61 135.5
t-165 48.5q-112 0 -179 -55t-75 -139q-6 -69 28.5 -109.5t115.5 -70.5l226 -90q117 -46 180.5 -126.5t51.5 -211.5q-9 -100 -65 -180.5t-155 -128t-236 -47.5zM547 -424l-89 52q48 24 83.5 57t50.5 77q-37 4 -60 27.5t-19 63.5q5 38 33 64.5t69 26.5q50 0 76 -40.5t21 -98.5
q-6 -60 -47 -124t-118 -105z" />
    <glyph glyph-name="uni1E9E" unicode="&#x1e9e;" horiz-adv-x="1257" 
d="M1209 377q0 -98 -47 -190.5t-137.5 -151.5t-223.5 -59q-68 0 -115 8.5t-115 34.5l12 143q64 -22 112 -38t112 -16q94 0 148.5 43t78 101.5t23.5 104.5q0 114 -65.5 171.5t-219.5 57.5h-104l8 89l297 447h-550l-102 -1122h-140l114 1256h866l-9 -105l-301 -442
q100 0 181 -35.5t129 -108.5t48 -188z" />
    <glyph glyph-name="Tbar" unicode="&#x166;" horiz-adv-x="902" 
d="M209 777h624l-21 -129h-624zM380 0l104 1122h-368l14 136h880l-14 -136h-370l-104 -1122h-142z" />
    <glyph glyph-name="Tcaron" unicode="&#x164;" horiz-adv-x="902" 
d="M380 0l104 1122h-368l14 136h880l-14 -136h-370l-104 -1122h-142zM858 1816l81 -78l-351 -312l-295 312l97 78l213 -216z" />
    <glyph glyph-name="uni0162" unicode="&#x162;" horiz-adv-x="902" 
d="M380 0l104 1122h-368l14 136h880l-14 -136h-370l-104 -1122h-142zM243 -356l22 66q77 -40 136.5 -45t93.5 15t34 55q1 35 -30.5 61t-79 44t-97.5 29l59 187l90 -8l-55 -175l-40 57q91 -20 154 -49t95.5 -67t32.5 -86q0 -57 -42 -91.5t-107 -45t-136 2.5t-130 50z" />
    <glyph glyph-name="uni021A" unicode="&#x21a;" horiz-adv-x="902" 
d="M380 0l104 1122h-368l14 136h880l-14 -136h-370l-104 -1122h-142zM413 -424l-89 52q48 24 83.5 57t50.5 77q-37 4 -60 27.5t-19 63.5q5 38 33 64.5t69 26.5q50 0 76 -40.5t21 -98.5q-6 -60 -47 -124t-118 -105z" />
    <glyph glyph-name="Ubreve" unicode="&#x16c;" horiz-adv-x="1178" 
d="M584 -22q-198 0 -302.5 120.5t-83.5 355.5l78 804h142l-78 -804q-16 -175 56 -253.5t202 -78.5q129 0 215.5 78.5t102.5 253.5l78 804h142l-78 -804q-14 -157 -77 -263t-165 -159.5t-232 -53.5zM711 1454q-126 0 -192 71.5t-50 182.5h129q-10 -70 25.5 -109t102.5 -39
q68 0 113.5 39t55.5 109h129q-12 -114 -98 -184t-215 -70z" />
    <glyph glyph-name="Uhungarumlaut" unicode="&#x170;" horiz-adv-x="1178" 
d="M584 -22q-198 0 -302.5 120.5t-83.5 355.5l78 804h142l-78 -804q-16 -175 56 -253.5t202 -78.5q129 0 215.5 78.5t102.5 253.5l78 804h142l-78 -804q-14 -157 -77 -263t-165 -159.5t-232 -53.5zM873 1395l-85 13l28 325l121 -21zM638 1403l-87 10l17 328l122 -17z" />
    <glyph glyph-name="Umacron" unicode="&#x16a;" horiz-adv-x="1178" 
d="M584 -22q-198 0 -302.5 120.5t-83.5 355.5l78 804h142l-78 -804q-16 -175 56 -253.5t202 -78.5q129 0 215.5 78.5t102.5 253.5l78 804h142l-78 -804q-14 -157 -77 -263t-165 -159.5t-232 -53.5zM438 1599h624l-21 -129h-624z" />
    <glyph glyph-name="Uogonek" unicode="&#x172;" horiz-adv-x="1178" 
d="M584 -22q-198 0 -302.5 120.5t-83.5 355.5l78 804h142l-78 -804q-16 -175 56 -253.5t202 -78.5q129 0 215.5 78.5t102.5 253.5l78 804h142l-78 -804q-14 -157 -77 -263t-165 -159.5t-232 -53.5zM833 -340q-62 -35 -131 -54t-132 -19q-98 0 -157.5 45t-59.5 124t64 153
t191 122l100 -39q-112 -46 -177 -97t-65 -110q0 -45 36 -66t87 -21q46 0 95.5 15.5t110.5 49.5z" />
    <glyph glyph-name="Uring" unicode="&#x16e;" horiz-adv-x="1178" 
d="M584 -22q-198 0 -302.5 120.5t-83.5 355.5l78 804h142l-78 -804q-16 -175 56 -253.5t202 -78.5q129 0 215.5 78.5t102.5 253.5l78 804h142l-78 -804q-14 -157 -77 -263t-165 -159.5t-232 -53.5zM736 1393q-55 0 -100.5 27.5t-72.5 73t-27 99.5q0 55 27 100.5t72.5 72.5
t100.5 27t100.5 -27t72.5 -72.5t27 -100.5q0 -54 -27 -99.5t-72.5 -73t-100.5 -27.5zM736 1505q37 0 63 25.5t26 62.5q0 38 -26 63.5t-63 25.5t-63 -25.5t-26 -63.5q0 -37 26 -62.5t63 -25.5z" />
    <glyph glyph-name="Wacute" unicode="&#x1e82;" horiz-adv-x="1610" 
d="M144 1258h158l176 -1044l366 914h96l188 -918l418 1048h156l-518 -1258h-150l-170 804l-332 -804h-148zM828 1411l-33 100l448 266l47 -140z" />
    <glyph glyph-name="Wcircumflex" unicode="&#x174;" horiz-adv-x="1610" 
d="M144 1258h158l176 -1044l366 914h96l188 -918l418 1048h156l-518 -1258h-150l-170 804l-332 -804h-148zM691 1420l-81 78l351 312l295 -312l-97 -78l-213 216z" />
    <glyph glyph-name="Wdieresis" unicode="&#x1e84;" horiz-adv-x="1610" 
d="M144 1258h158l176 -1044l366 914h96l188 -918l418 1048h156l-518 -1258h-150l-170 804l-332 -804h-148zM802 1512q-42 0 -64.5 29t-18.5 69q3 38 30.5 70t72.5 32q37 0 63 -26t24 -70q-3 -49 -36 -76.5t-71 -27.5zM1103 1512q-40 0 -63 29t-19 69q3 38 31.5 70t71.5 32
q34 0 61.5 -24.5t25.5 -71.5q-3 -53 -38 -78.5t-70 -25.5z" />
    <glyph glyph-name="Wgrave" unicode="&#x1e80;" horiz-adv-x="1610" 
d="M144 1258h158l176 -1044l366 914h96l188 -918l418 1048h156l-518 -1258h-150l-170 804l-332 -804h-148zM1131 1388l-419 226l72 140l398 -266z" />
    <glyph glyph-name="Yacute" unicode="&#xdd;" horiz-adv-x="988" 
d="M420 0l48 516l-332 742h170l250 -578l366 578h166l-476 -742l-48 -516h-144zM517 1411l-33 100l448 266l47 -140z" />
    <glyph glyph-name="Ycircumflex" unicode="&#x176;" horiz-adv-x="988" 
d="M420 0l48 516l-332 742h170l250 -578l366 578h166l-476 -742l-48 -516h-144zM380 1420l-81 78l351 312l295 -312l-97 -78l-213 216z" />
    <glyph glyph-name="Ydieresis" unicode="&#x178;" horiz-adv-x="988" 
d="M420 0l48 516l-332 742h170l250 -578l366 578h166l-476 -742l-48 -516h-144zM491 1512q-42 0 -64.5 29t-18.5 69q3 38 30.5 70t72.5 32q37 0 63 -26t24 -70q-3 -49 -36 -76.5t-71 -27.5zM792 1512q-40 0 -63 29t-19 69q3 38 31.5 70t71.5 32q34 0 61.5 -24.5t25.5 -71.5
q-3 -53 -38 -78.5t-70 -25.5z" />
    <glyph glyph-name="Ygrave" unicode="&#x1ef2;" horiz-adv-x="988" 
d="M420 0l48 516l-332 742h170l250 -578l366 578h166l-476 -742l-48 -516h-144zM820 1388l-419 226l72 140l398 -266z" />
    <glyph glyph-name="Zacute" unicode="&#x179;" horiz-adv-x="1066" 
d="M132 0l12 142l746 966l-654 6l14 144h832l-14 -142l-746 -966l654 -6l-14 -144h-830zM556 1411l-33 100l448 266l47 -140z" />
    <glyph glyph-name="Zcaron" unicode="&#x17d;" horiz-adv-x="1066" 
d="M132 0l12 142l746 966l-654 6l14 144h832l-14 -142l-746 -966l654 -6l-14 -144h-830zM940 1816l81 -78l-351 -312l-295 312l97 78l213 -216z" />
    <glyph glyph-name="Zdotaccent" unicode="&#x17b;" horiz-adv-x="1066" 
d="M132 0l12 142l746 966l-654 6l14 144h832l-14 -142l-746 -966l654 -6l-14 -144h-830zM681 1512q-40 0 -63.5 29t-19.5 69q3 38 32.5 70t77.5 32q34 0 59 -26t21 -70q-5 -49 -35.5 -76.5t-71.5 -27.5z" />
    <glyph glyph-name="abreve" unicode="&#x103;" horiz-adv-x="1008" 
d="M432 -22q-100 0 -165 42t-93.5 108.5t-21.5 139.5q10 97 60 159t129 92.5t173 30.5q63 0 126.5 -13.5t119.5 -38.5l12 122q14 129 -31 185.5t-143 56.5q-56 0 -103 -18t-76.5 -55.5t-34.5 -96.5h-158q10 107 64.5 170t136 90.5t171.5 27.5q163 0 247.5 -86.5t66.5 -277.5
l-58 -616h-122q0 41 1 80.5t1 79.5q-49 -92 -128 -137t-174 -45zM459 100q73 0 139 36.5t108.5 103.5t43.5 158q-55 18 -114 29t-112 11q-87 0 -150 -37.5t-72 -132.5q-6 -70 32.5 -119t124.5 -49zM582 1152q-126 0 -192 71.5t-50 182.5h129q-10 -70 25.5 -109t102.5 -39
q68 0 113.5 39t55.5 109h129q-12 -114 -98 -184t-215 -70z" />
    <glyph glyph-name="amacron" unicode="&#x101;" horiz-adv-x="1008" 
d="M432 -22q-100 0 -165 42t-93.5 108.5t-21.5 139.5q10 97 60 159t129 92.5t173 30.5q63 0 126.5 -13.5t119.5 -38.5l12 122q14 129 -31 185.5t-143 56.5q-56 0 -103 -18t-76.5 -55.5t-34.5 -96.5h-158q10 107 64.5 170t136 90.5t171.5 27.5q163 0 247.5 -86.5t66.5 -277.5
l-58 -616h-122q0 41 1 80.5t1 79.5q-49 -92 -128 -137t-174 -45zM459 100q73 0 139 36.5t108.5 103.5t43.5 158q-55 18 -114 29t-112 11q-87 0 -150 -37.5t-72 -132.5q-6 -70 32.5 -119t124.5 -49zM309 1297h624l-21 -129h-624z" />
    <glyph glyph-name="aogonek" unicode="&#x105;" horiz-adv-x="1008" 
d="M432 -22q-100 0 -165 42t-93.5 108.5t-21.5 139.5q10 97 60 159t129 92.5t173 30.5q63 0 126.5 -13.5t119.5 -38.5l12 122q14 129 -31 185.5t-143 56.5q-56 0 -103 -18t-76.5 -55.5t-34.5 -96.5h-158q10 107 64.5 170t136 90.5t171.5 27.5q163 0 247.5 -86.5t66.5 -277.5
l-58 -616h-122q0 41 1 80.5t1 79.5q-49 -92 -128 -137t-174 -45zM459 100q73 0 139 36.5t108.5 103.5t43.5 158q-55 18 -114 29t-112 11q-87 0 -150 -37.5t-72 -132.5q-6 -70 32.5 -119t124.5 -49zM979 -332q-62 -35 -131 -54t-132 -19q-98 0 -157.5 45t-59.5 124t64 153
t191 122l100 -39q-112 -46 -177 -97t-65 -110q0 -45 36 -66t87 -21q46 0 95.5 15.5t110.5 49.5z" />
    <glyph glyph-name="aring" unicode="&#xe5;" horiz-adv-x="1008" 
d="M432 -22q-100 0 -165 42t-93.5 108.5t-21.5 139.5q10 97 60 159t129 92.5t173 30.5q63 0 126.5 -13.5t119.5 -38.5l12 122q14 129 -31 185.5t-143 56.5q-56 0 -103 -18t-76.5 -55.5t-34.5 -96.5h-158q10 107 64.5 170t136 90.5t171.5 27.5q163 0 247.5 -86.5t66.5 -277.5
l-58 -616h-122q0 41 1 80.5t1 79.5q-49 -92 -128 -137t-174 -45zM459 100q73 0 139 36.5t108.5 103.5t43.5 158q-55 18 -114 29t-112 11q-87 0 -150 -37.5t-72 -132.5q-6 -70 32.5 -119t124.5 -49zM607 1091q-55 0 -100.5 27.5t-72.5 73t-27 99.5q0 55 27 100.5t72.5 72.5
t100.5 27t100.5 -27t72.5 -72.5t27 -100.5q0 -54 -27 -99.5t-72.5 -73t-100.5 -27.5zM607 1203q37 0 63 25.5t26 62.5q0 38 -26 63.5t-63 25.5t-63 -25.5t-26 -63.5q0 -37 26 -62.5t63 -25.5z" />
    <glyph glyph-name="ae" unicode="&#xe6;" horiz-adv-x="1540" 
d="M152 268q8 91 57.5 153.5t128 95.5t172.5 33q65 0 133.5 -16.5t132.5 -48.5l-32 -32l16 167q14 131 -29.5 186.5t-134.5 55.5q-53 0 -99 -18t-76 -55.5t-35 -96.5h-158q9 108 65 171t136.5 90t165.5 27q116 0 188.5 -53.5t83.5 -178.5l-22 7q59 107 150 166t198 59
q80 0 139.5 -31.5t98 -87t54.5 -128t8 -153.5q-1 -31 -5.5 -66t-12.5 -70h-628l49 39q-13 -107 3.5 -192.5t67 -135t138.5 -49.5q81 0 139 45t77 129h146q-22 -95 -77.5 -163t-131.5 -103.5t-159 -35.5q-85 0 -151.5 35t-110.5 92t-62 124h26q-60 -124 -166 -187.5
t-210 -63.5q-84 0 -148 37t-97.5 102.5t-27.5 150.5zM304 268q-6 -70 32.5 -119t120.5 -49q55 0 107.5 23.5t94 67.5t64 105.5t17.5 136.5l27 -44q-61 21 -125.5 35t-120.5 14q-52 0 -99.5 -15.5t-79.5 -52.5t-38 -102zM897 510l-40 35h500q10 83 -3 153t-55.5 113
t-121.5 43q-83 0 -142.5 -48.5t-93.5 -127t-44 -168.5z" />
    <glyph glyph-name="cacute" unicode="&#x107;" horiz-adv-x="926" 
d="M484 -22q-106 0 -191 60.5t-129 173.5t-30 268q15 159 80 270.5t160.5 170.5t202.5 59q71 0 126 -24.5t94.5 -66.5t62.5 -97t30 -116l-144 -14q-15 82 -63 130t-121 48q-67 0 -127 -41t-102 -121t-53 -198q-10 -110 13.5 -191.5t76.5 -126t129 -44.5q90 0 148 53.5
t65 150.5h146q-8 -99 -58.5 -177t-132 -122.5t-183.5 -44.5zM504 1109l-33 100l448 266l47 -140z" />
    <glyph glyph-name="ccaron" unicode="&#x10d;" horiz-adv-x="926" 
d="M484 -22q-106 0 -191 60.5t-129 173.5t-30 268q15 159 80 270.5t160.5 170.5t202.5 59q71 0 126 -24.5t94.5 -66.5t62.5 -97t30 -116l-144 -14q-15 82 -63 130t-121 48q-67 0 -127 -41t-102 -121t-53 -198q-10 -110 13.5 -191.5t76.5 -126t129 -44.5q90 0 148 53.5
t65 150.5h146q-8 -99 -58.5 -177t-132 -122.5t-183.5 -44.5zM888 1514l81 -78l-351 -312l-295 312l97 78l213 -216z" />
    <glyph glyph-name="ccedilla" unicode="&#xe7;" horiz-adv-x="926" 
d="M484 -22q-106 0 -191 60.5t-129 173.5t-30 268q15 159 80 270.5t160.5 170.5t202.5 59q71 0 126 -24.5t94.5 -66.5t62.5 -97t30 -116l-144 -14q-15 82 -63 130t-121 48q-67 0 -127 -41t-102 -121t-53 -198q-10 -110 13.5 -191.5t76.5 -126t129 -44.5q90 0 148 53.5
t65 150.5h146q-8 -99 -58.5 -177t-132 -122.5t-183.5 -44.5zM306 -356l22 66q77 -40 136.5 -45t93.5 15t34 55q1 35 -30.5 61t-79 44t-97.5 29l59 187l90 -8l-55 -175l-40 57q91 -20 154 -49t95.5 -67t32.5 -86q0 -57 -42 -91.5t-107 -45t-136 2.5t-130 50z" />
    <glyph glyph-name="cdotaccent" unicode="&#x10b;" horiz-adv-x="926" 
d="M484 -22q-106 0 -191 60.5t-129 173.5t-30 268q15 159 80 270.5t160.5 170.5t202.5 59q71 0 126 -24.5t94.5 -66.5t62.5 -97t30 -116l-144 -14q-15 82 -63 130t-121 48q-67 0 -127 -41t-102 -121t-53 -198q-10 -110 13.5 -191.5t76.5 -126t129 -44.5q90 0 148 53.5
t65 150.5h146q-8 -99 -58.5 -177t-132 -122.5t-183.5 -44.5zM629 1210q-40 0 -63.5 29t-19.5 69q3 38 32.5 70t77.5 32q34 0 59 -26t21 -70q-5 -49 -35.5 -76.5t-71.5 -27.5z" />
    <glyph glyph-name="dcaron" unicode="&#x10f;" horiz-adv-x="1070" 
d="M489 -22q-97 0 -174.5 53t-122 149t-44.5 223q0 98 27 199t80.5 187t132.5 138.5t183 52.5q89 0 151.5 -42t97.5 -122l52 546h142l-128 -1362h-116l-4 160q-49 -90 -122.5 -136t-154.5 -46zM519 118q56 0 113 32t98.5 92.5t49.5 147.5l18 196q1 9 1.5 13t0.5 13
q0 76 -31 126.5t-80.5 76t-104.5 25.5q-78 0 -133 -41t-89 -106t-50 -138t-16 -136q0 -138 63 -219.5t160 -81.5zM1182 1015l-89 52q48 24 83.5 57t50.5 77q-37 4 -60 27.5t-19 63.5q5 38 33 64.5t69 26.5q50 0 76 -40.5t21 -98.5q-6 -60 -47 -124t-118 -105z" />
    <glyph glyph-name="dcroat" unicode="&#x111;" horiz-adv-x="1035" 
d="M489 -22q-97 0 -174.5 53t-122 149t-44.5 223q0 98 27 199t80.5 187t132.5 138.5t183 52.5q89 0 157 -42t92 -122l52 546h142l-128 -1362h-116l-4 160q-49 -90 -122.5 -136t-154.5 -46zM519 118q56 0 113 32t98.5 92.5t49.5 147.5l16 175q2 14 3 24t1 23q0 76 -31 126.5
t-80.5 76t-104.5 25.5q-78 0 -133 -41t-89 -106t-50 -138t-16 -136q0 -138 63 -219.5t160 -81.5zM606 1110l14 109h490l-14 -109h-490z" />
    <glyph glyph-name="eth" unicode="&#xf0;" horiz-adv-x="1039" 
d="M474 -22q-88 0 -164.5 40.5t-123.5 124t-47 211.5q0 118 40 212.5t105.5 161.5t145.5 102.5t159 35.5q47 0 97 -15.5t93 -54.5t70 -108t27 -176l-11 1q24 240 -13.5 425.5t-125.5 333t-216 273.5l125 68q131 -135 208 -275.5t110 -288t33 -303.5q0 -205 -46 -351
t-121.5 -238.5t-165.5 -135.5t-179 -43zM490 99q91 0 157 57.5t101.5 147t35.5 185.5q0 128 -57.5 191t-143.5 63q-85 0 -151.5 -54.5t-105.5 -142.5t-39 -191q0 -113 52 -184.5t151 -71.5zM529 1047l-48 93l585 333l50 -93z" />
    <glyph glyph-name="ecaron" unicode="&#x11b;" horiz-adv-x="926" 
d="M478 -22q-113 0 -196 60t-123 171.5t-25 266.5q15 157 76 270t154.5 173.5t205.5 60.5q83 0 143.5 -31.5t99 -87t55.5 -127.5t12 -154q-1 -31 -5.5 -66t-12.5 -70h-635l49 33q-12 -104 5 -188.5t68.5 -133.5t141.5 -49q81 0 139 44.5t78 129.5h146q-23 -96 -77.5 -163.5
t-131.5 -103t-167 -35.5zM279 522l-38 23h550l-49 -18q12 85 1 159.5t-53.5 121t-127.5 46.5q-82 0 -141.5 -45.5t-95 -121t-46.5 -165.5zM828 1514l81 -78l-351 -312l-295 312l97 78l213 -216z" />
    <glyph glyph-name="edotaccent" unicode="&#x117;" horiz-adv-x="926" 
d="M478 -22q-113 0 -196 60t-123 171.5t-25 266.5q15 157 76 270t154.5 173.5t205.5 60.5q83 0 143.5 -31.5t99 -87t55.5 -127.5t12 -154q-1 -31 -5.5 -66t-12.5 -70h-635l49 33q-12 -104 5 -188.5t68.5 -133.5t141.5 -49q81 0 139 44.5t78 129.5h146q-23 -96 -77.5 -163.5
t-131.5 -103t-167 -35.5zM279 522l-38 23h550l-49 -18q12 85 1 159.5t-53.5 121t-127.5 46.5q-82 0 -141.5 -45.5t-95 -121t-46.5 -165.5zM569 1210q-40 0 -63.5 29t-19.5 69q3 38 32.5 70t77.5 32q34 0 59 -26t21 -70q-5 -49 -35.5 -76.5t-71.5 -27.5z" />
    <glyph glyph-name="emacron" unicode="&#x113;" horiz-adv-x="926" 
d="M478 -22q-113 0 -196 60t-123 171.5t-25 266.5q15 157 76 270t154.5 173.5t205.5 60.5q83 0 143.5 -31.5t99 -87t55.5 -127.5t12 -154q-1 -31 -5.5 -66t-12.5 -70h-635l49 33q-12 -104 5 -188.5t68.5 -133.5t141.5 -49q81 0 139 44.5t78 129.5h146q-23 -96 -77.5 -163.5
t-131.5 -103t-167 -35.5zM279 522l-38 23h550l-49 -18q12 85 1 159.5t-53.5 121t-127.5 46.5q-82 0 -141.5 -45.5t-95 -121t-46.5 -165.5zM269 1297h624l-21 -129h-624z" />
    <glyph glyph-name="eogonek" unicode="&#x119;" horiz-adv-x="926" 
d="M799 -339q-62 -35 -131 -54t-132 -19q-98 0 -157.5 45t-59.5 124q0 54 23.5 100t64 86t91.5 76.5t105 71.5l100 -41q-62 -40 -124.5 -78t-104.5 -80.5t-42 -99.5q0 -49 36 -71t87 -22q46 0 95.5 15.5t110.5 49.5zM478 -22q-113 0 -196 60t-123 171.5t-25 266.5
q15 157 76 270t154.5 173.5t205.5 60.5q83 0 143.5 -31.5t99 -87t55.5 -127.5t12 -154q-1 -31 -5.5 -66t-12.5 -70h-635l49 33q-12 -104 5 -188.5t68.5 -133.5t141.5 -49q81 0 139 44.5t78 129.5h146q-23 -96 -77.5 -163.5t-131.5 -103t-167 -35.5zM279 522l-38 23h550
l-49 -18q12 85 1 159.5t-53.5 121t-127.5 46.5q-82 0 -141.5 -45.5t-95 -121t-46.5 -165.5z" />
    <glyph glyph-name="gbreve" unicode="&#x11f;" horiz-adv-x="1016" 
d="M438 -492q-131 0 -225 40.5t-141.5 110t-40.5 155.5q7 82 58.5 138.5t130.5 77.5q-50 29 -73 73.5t-19 96.5q6 70 52.5 117t111.5 63q-40 47 -59.5 110.5t-12.5 141.5q11 105 64 183.5t136 121.5t181 43q64 0 118.5 -18.5t94.5 -53.5q15 70 51.5 122.5t91.5 82t125 29.5
l-30 -156q-76 0 -121.5 -34.5t-56.5 -111.5q26 -42 38 -94t6 -114q-9 -104 -63.5 -183.5t-139.5 -124t-187 -44.5q-46 0 -90 12t-80 34q-37 -7 -67 -37t-37 -79q-6 -46 25.5 -76t122.5 -30h334q120 0 185 -56.5t57 -159.5q-7 -96 -76.5 -183t-188.5 -142t-275 -55zM441 -366
q112 0 199 35t138.5 90.5t56.5 118.5q4 49 -23 80.5t-86 31.5h-350q-88 0 -143.5 -49.5t-59.5 -120.5q-4 -80 64.5 -133t203.5 -53zM547 394q66 0 116 31.5t80.5 85.5t36.5 121q10 104 -40.5 169t-147.5 65q-98 0 -160.5 -65t-71.5 -169q-10 -101 39.5 -169.5t147.5 -68.5z
M640 1152q-126 0 -192 71.5t-50 182.5h129q-10 -70 25.5 -109t102.5 -39q68 0 113.5 39t55.5 109h129q-12 -114 -98 -184t-215 -70z" />
    <glyph glyph-name="uni0123" unicode="&#x123;" horiz-adv-x="1016" 
d="M438 -492q-131 0 -225 40.5t-141.5 110t-40.5 155.5q7 82 58.5 138.5t130.5 77.5q-50 29 -73 73.5t-19 96.5q6 70 52.5 117t111.5 63q-40 47 -59.5 110.5t-12.5 141.5q11 105 64 183.5t136 121.5t181 43q64 0 118.5 -18.5t94.5 -53.5q15 70 51.5 122.5t91.5 82t125 29.5
l-30 -156q-76 0 -121.5 -34.5t-56.5 -111.5q26 -42 38 -94t6 -114q-9 -104 -63.5 -183.5t-139.5 -124t-187 -44.5q-46 0 -90 12t-80 34q-37 -7 -67 -37t-37 -79q-6 -46 25.5 -76t122.5 -30h334q120 0 185 -56.5t57 -159.5q-7 -96 -76.5 -183t-188.5 -142t-275 -55zM441 -366
q112 0 199 35t138.5 90.5t56.5 118.5q4 49 -23 80.5t-86 31.5h-350q-88 0 -143.5 -49.5t-59.5 -120.5q-4 -80 64.5 -133t203.5 -53zM547 394q66 0 116 31.5t80.5 85.5t36.5 121q10 104 -40.5 169t-147.5 65q-98 0 -160.5 -65t-71.5 -169q-10 -101 39.5 -169.5t147.5 -68.5z
M670 1456l89 -52q-48 -24 -83.5 -57t-50.5 -77q37 -4 60.5 -27.5t18.5 -63.5q-4 -37 -32.5 -64t-69.5 -27q-50 0 -75.5 40.5t-21.5 98.5q6 60 47 124.5t118 104.5z" />
    <glyph glyph-name="gdotaccent" unicode="&#x121;" horiz-adv-x="1016" 
d="M438 -492q-131 0 -225 40.5t-141.5 110t-40.5 155.5q7 82 58.5 138.5t130.5 77.5q-50 29 -73 73.5t-19 96.5q6 70 52.5 117t111.5 63q-40 47 -59.5 110.5t-12.5 141.5q11 105 64 183.5t136 121.5t181 43q64 0 118.5 -18.5t94.5 -53.5q15 70 51.5 122.5t91.5 82t125 29.5
l-30 -156q-76 0 -121.5 -34.5t-56.5 -111.5q26 -42 38 -94t6 -114q-9 -104 -63.5 -183.5t-139.5 -124t-187 -44.5q-46 0 -90 12t-80 34q-37 -7 -67 -37t-37 -79q-6 -46 25.5 -76t122.5 -30h334q120 0 185 -56.5t57 -159.5q-7 -96 -76.5 -183t-188.5 -142t-275 -55zM441 -366
q112 0 199 35t138.5 90.5t56.5 118.5q4 49 -23 80.5t-86 31.5h-350q-88 0 -143.5 -49.5t-59.5 -120.5q-4 -80 64.5 -133t203.5 -53zM547 394q66 0 116 31.5t80.5 85.5t36.5 121q10 104 -40.5 169t-147.5 65q-98 0 -160.5 -65t-71.5 -169q-10 -101 39.5 -169.5t147.5 -68.5z
M667 1210q-40 0 -63.5 29t-19.5 69q3 38 32.5 70t77.5 32q34 0 59 -26t21 -70q-5 -49 -35.5 -76.5t-71.5 -27.5z" />
    <glyph glyph-name="hbar" unicode="&#x127;" horiz-adv-x="1088" 
d="M173 1110l14 109h490l-14 -109h-490zM182 0l128 1362h142l-56 -582q51 95 128.5 147.5t175.5 52.5q102 0 170 -50.5t98.5 -144t18.5 -223.5l-53 -562h-140l52 562q14 137 -39 207.5t-150 70.5q-81 0 -142 -46.5t-99 -133.5t-50 -208l-42 -452h-142z" />
    <glyph glyph-name="dotlessi" unicode="&#x131;" horiz-adv-x="538" 
d="M190 0l90 958h142l-90 -958h-142z" />
    <glyph glyph-name="i.loclTRK" horiz-adv-x="538" 
d="M190 0l90 958h142l-90 -958h-142zM374 1210q-40 0 -63.5 29t-19.5 69q3 38 32.5 70t77.5 32q34 0 59 -26t21 -70q-5 -49 -35.5 -76.5t-71.5 -27.5z" />
    <glyph glyph-name="imacron" unicode="&#x12b;" horiz-adv-x="538" 
d="M190 0l90 958h142l-90 -958h-142zM163 1297h412l-14 -129h-412z" />
    <glyph glyph-name="iogonek" unicode="&#x12f;" horiz-adv-x="538" 
d="M190 0l90 958h142l-90 -958h-142zM374 1210q-40 0 -63.5 29t-19.5 69q3 38 32.5 70t77.5 32q34 0 59 -26t21 -70q-5 -49 -35.5 -76.5t-71.5 -27.5zM457 -332q-62 -35 -131 -54t-132 -19q-98 0 -157.5 45t-59.5 124t64 153t191 122l100 -39q-112 -46 -177 -97t-65 -110
q0 -45 36 -66t87 -21q46 0 95.5 15.5t110.5 49.5z" />
    <glyph glyph-name="ij" unicode="&#x133;" horiz-adv-x="1104" 
d="M373 1182q-43 0 -65 27t-19 71q4 41 30.5 70.5t71.5 29.5q44 0 66.5 -28t18.5 -72q-4 -46 -32.5 -72t-70.5 -26zM190 0l90 958h142l-90 -958h-142zM937 1182q-40 0 -63.5 26t-19.5 72q4 45 32.5 72.5t71.5 27.5t66 -27.5t18 -72.5q-4 -43 -32 -70.5t-73 -27.5zM579 -492
q-62 0 -119 19t-114 55l20 138q47 -34 96 -54t99 -20q77 0 122.5 51t58.5 169l104 1094h142l-104 -1094q-12 -130 -54.5 -208.5t-107 -114t-143.5 -35.5z" />
    <glyph glyph-name="uni0237" unicode="&#x237;" horiz-adv-x="566" 
d="M41 -492q-62 0 -119 19t-114 55l20 138q47 -34 96 -54t99 -20q77 0 122.5 51t58.5 169l104 1094h142l-104 -1094q-12 -130 -54.5 -208.5t-107 -114t-143.5 -35.5z" />
    <glyph glyph-name="uni0137" unicode="&#x137;" horiz-adv-x="1016" 
d="M782 0l-296 506l-124 -104l-38 -402h-142l128 1362h142l-74 -790l452 384h198l-430 -358l360 -598h-176zM378 -424l-89 52q48 24 83.5 57t50.5 77q-37 4 -60 27.5t-19 63.5q5 38 33 64.5t69 26.5q50 0 76 -40.5t21 -98.5q-6 -60 -47 -124t-118 -105z" />
    <glyph glyph-name="lacute" unicode="&#x13a;" horiz-adv-x="504" 
d="M182 0l128 1362h142l-128 -1362h-142zM303 1552l-33 100l448 266l47 -140z" />
    <glyph glyph-name="lcaron" unicode="&#x13e;" horiz-adv-x="504" 
d="M182 0l128 1362h142l-128 -1362h-142zM613 994l-89 52q48 24 83.5 57t50.5 77q-37 4 -60 27.5t-19 63.5q5 38 33 64.5t69 26.5q50 0 76 -40.5t21 -98.5q-6 -60 -47 -124t-118 -105z" />
    <glyph glyph-name="uni013C" unicode="&#x13c;" horiz-adv-x="504" 
d="M182 0l128 1362h142l-128 -1362h-142zM122 -424l-89 52q48 24 83.5 57t50.5 77q-37 4 -60 27.5t-19 63.5q5 38 33 64.5t69 26.5q50 0 76 -40.5t21 -98.5q-6 -60 -47 -124t-118 -105z" />
    <glyph glyph-name="lslash" unicode="&#x142;" horiz-adv-x="504" 
d="M182 0l128 1362h142l-128 -1362h-142zM111 928l483 81v-103l-483 -80v102z" />
    <glyph glyph-name="nacute" unicode="&#x144;" horiz-adv-x="1086" 
d="M180 0l90 956h122l-2 -186q51 102 129.5 156t178.5 54q102 0 170.5 -50t98.5 -143.5t17 -224.5l-52 -562h-140l52 562q14 138 -40 208t-149 70q-121 0 -197.5 -103.5t-93.5 -284.5l-42 -452h-142zM524 1109l-33 100l448 266l47 -140z" />
    <glyph glyph-name="ncaron" unicode="&#x148;" horiz-adv-x="1086" 
d="M180 0l90 956h122l-2 -186q51 102 129.5 156t178.5 54q102 0 170.5 -50t98.5 -143.5t17 -224.5l-52 -562h-140l52 562q14 138 -40 208t-149 70q-121 0 -197.5 -103.5t-93.5 -284.5l-42 -452h-142zM908 1514l81 -78l-351 -312l-295 312l97 78l213 -216z" />
    <glyph glyph-name="uni0146" unicode="&#x146;" horiz-adv-x="1086" 
d="M180 0l90 956h122l-2 -186q51 102 129.5 156t178.5 54q102 0 170.5 -50t98.5 -143.5t17 -224.5l-52 -562h-140l52 562q14 138 -40 208t-149 70q-121 0 -197.5 -103.5t-93.5 -284.5l-42 -452h-142zM413 -424l-89 52q48 24 83.5 57t50.5 77q-37 4 -60 27.5t-19 63.5
q5 38 33 64.5t69 26.5q50 0 76 -40.5t21 -98.5q-6 -60 -47 -124t-118 -105z" />
    <glyph glyph-name="eng" unicode="&#x14b;" horiz-adv-x="1140" 
d="M612 -492q-61 0 -117.5 19t-113.5 55l20 138q47 -34 96 -54t100 -20q77 0 125 50.5t58 169.5l64 696q13 134 -39 206t-151 72q-79 0 -140.5 -46.5t-100 -133t-49.5 -208.5l-42 -452h-142l90 956h122l-2 -186q53 104 131.5 157t178.5 53q102 0 170 -51t98 -144.5
t18 -222.5l-66 -696q-12 -130 -54.5 -208.5t-107.5 -114t-146 -35.5z" />
    <glyph glyph-name="ohungarumlaut" unicode="&#x151;" horiz-adv-x="982" 
d="M489 -22q-117 0 -203 57t-127 168.5t-25 274.5q16 165 78.5 276.5t159 168.5t212.5 57q117 0 202 -58t126.5 -169.5t25.5 -274.5t-78.5 -274.5t-158 -168.5t-212.5 -57zM496 114q125 0 203 97.5t95 266.5q17 171 -39.5 268.5t-181.5 97.5q-124 0 -199.5 -96.5
t-92.5 -269.5q-11 -111 9 -193t71.5 -126.5t134.5 -44.5zM755 1093l-85 13l28 325l121 -21zM520 1101l-87 10l17 328l122 -17z" />
    <glyph glyph-name="omacron" unicode="&#x14d;" horiz-adv-x="982" 
d="M489 -22q-117 0 -203 57t-127 168.5t-25 274.5q16 165 78.5 276.5t159 168.5t212.5 57q117 0 202 -58t126.5 -169.5t25.5 -274.5t-78.5 -274.5t-158 -168.5t-212.5 -57zM496 114q125 0 203 97.5t95 266.5q17 171 -39.5 268.5t-181.5 97.5q-124 0 -199.5 -96.5
t-92.5 -269.5q-11 -111 9 -193t71.5 -126.5t134.5 -44.5zM320 1297h624l-21 -129h-624z" />
    <glyph glyph-name="oslash" unicode="&#xf8;" horiz-adv-x="982" 
d="M14 0l849 957h146l-853 -957h-142zM489 -22q-117 0 -203 57t-127 168.5t-25 274.5q16 165 78.5 276.5t159 168.5t212.5 57q117 0 202 -58t126.5 -169.5t25.5 -274.5t-78.5 -274.5t-158 -168.5t-212.5 -57zM496 114q125 0 203 97.5t95 266.5q17 171 -39.5 268.5
t-181.5 97.5q-124 0 -199.5 -96.5t-92.5 -269.5q-11 -111 9 -193t71.5 -126.5t134.5 -44.5z" />
    <glyph glyph-name="oe" unicode="&#x153;" horiz-adv-x="1539" 
d="M477 -22q-114 0 -196.5 57t-122 168.5t-24.5 274.5q15 165 75 276.5t153.5 168.5t205.5 57q114 0 196.5 -58t122 -169.5t24.5 -274.5t-75.5 -274.5t-153 -168.5t-205.5 -57zM483 114q121 0 196.5 97.5t91.5 266.5q17 171 -37.5 268.5t-175.5 97.5t-193.5 -96.5
t-88.5 -269.5q-11 -111 8 -193t69 -126.5t130 -44.5zM1103 -22q-109 0 -189 60t-118.5 171.5t-24.5 266.5q15 157 73.5 270t149 173.5t198.5 60.5q80 0 138.5 -31.5t96 -87t53.5 -127.5t12 -154q-1 -31 -5.5 -66t-12.5 -70h-614l48 33q-12 -104 4.5 -188.5t66.5 -133.5
t137 -49q78 0 134 44.5t75 129.5h141q-22 -96 -74.5 -163.5t-127 -103t-161.5 -35.5zM911 522l-37 23h532l-48 -18q12 85 1.5 159.5t-52 121t-123.5 46.5q-79 0 -136.5 -45.5t-91.5 -121t-45 -165.5z" />
    <glyph glyph-name="thorn" unicode="&#xfe;" horiz-adv-x="1070" 
d="M136 -470l166 1742h143l-47 -493h-25q51 100 128.5 150.5t166.5 50.5q101 0 183 -60t126 -171.5t29 -268.5q-14 -157 -79.5 -269.5t-160.5 -172.5t-199 -60q-80 0 -140 35.5t-93 102.5l-56 -586h-142zM569 118q63 0 125.5 40.5t108 121t57.5 200.5q11 115 -16 195
t-81 122.5t-126 42.5q-61 0 -118 -32t-96 -95t-48 -157l-16 -168q-8 -86 19 -146.5t78 -92t113 -31.5z" />
    <glyph glyph-name="racute" unicode="&#x155;" horiz-adv-x="686" 
d="M180 0l90 958h142l-18 -182q45 102 107.5 150t143.5 48q21 0 46 -3.5t49 -14.5l-22 -154q-27 9 -55.5 14.5t-55.5 5.5q-76 0 -127 -48.5t-80 -136t-39 -205.5l-39 -432h-142zM324 1109l-33 100l448 266l47 -140z" />
    <glyph glyph-name="rcaron" unicode="&#x159;" horiz-adv-x="686" 
d="M180 0l90 958h142l-18 -182q45 102 107.5 150t143.5 48q21 0 46 -3.5t49 -14.5l-22 -154q-27 9 -55.5 14.5t-55.5 5.5q-76 0 -127 -48.5t-80 -136t-39 -205.5l-39 -432h-142zM708 1514l81 -78l-351 -312l-295 312l97 78l213 -216z" />
    <glyph glyph-name="uni0157" unicode="&#x157;" horiz-adv-x="686" 
d="M180 0l90 958h142l-18 -182q45 102 107.5 150t143.5 48q21 0 46 -3.5t49 -14.5l-22 -154q-27 9 -55.5 14.5t-55.5 5.5q-76 0 -127 -48.5t-80 -136t-39 -205.5l-39 -432h-142zM213 -424l-89 52q48 24 83.5 57t50.5 77q-37 4 -60 27.5t-19 63.5q5 38 33 64.5t69 26.5
q50 0 76 -40.5t21 -98.5q-6 -60 -47 -124t-118 -105z" />
    <glyph glyph-name="sacute" unicode="&#x15b;" horiz-adv-x="946" 
d="M475 -22q-112 0 -190.5 39t-118 107.5t-32.5 157.5h136q-6 -85 53 -132.5t155 -47.5q95 0 157.5 43.5t70.5 110.5q7 58 -32.5 89t-107.5 55l-162 62q-103 38 -156 102t-43 158q8 78 54 136t124 90t180 32q157 0 237 -72t74 -182h-138q-2 64 -50 97t-128 33
q-67 0 -110.5 -20.5t-66.5 -52t-28 -65.5q-7 -55 31.5 -90.5t105.5 -57.5l166 -64q101 -34 157.5 -94.5t46.5 -155.5q-7 -72 -54.5 -135.5t-131 -103t-199.5 -39.5zM473 1109l-33 100l448 266l47 -140z" />
    <glyph glyph-name="scaron" unicode="&#x161;" horiz-adv-x="946" 
d="M475 -22q-112 0 -190.5 39t-118 107.5t-32.5 157.5h136q-6 -85 53 -132.5t155 -47.5q95 0 157.5 43.5t70.5 110.5q7 58 -32.5 89t-107.5 55l-162 62q-103 38 -156 102t-43 158q8 78 54 136t124 90t180 32q157 0 237 -72t74 -182h-138q-2 64 -50 97t-128 33
q-67 0 -110.5 -20.5t-66.5 -52t-28 -65.5q-7 -55 31.5 -90.5t105.5 -57.5l166 -64q101 -34 157.5 -94.5t46.5 -155.5q-7 -72 -54.5 -135.5t-131 -103t-199.5 -39.5zM857 1514l81 -78l-351 -312l-295 312l97 78l213 -216z" />
    <glyph glyph-name="scedilla" unicode="&#x15f;" horiz-adv-x="946" 
d="M475 -22q-112 0 -190.5 39t-118 107.5t-32.5 157.5h136q-6 -85 53 -132.5t155 -47.5q95 0 157.5 43.5t70.5 110.5q7 58 -32.5 89t-107.5 55l-162 62q-103 38 -156 102t-43 158q8 78 54 136t124 90t180 32q157 0 237 -72t74 -182h-138q-2 64 -50 97t-128 33
q-67 0 -110.5 -20.5t-66.5 -52t-28 -65.5q-7 -55 31.5 -90.5t105.5 -57.5l166 -64q101 -34 157.5 -94.5t46.5 -155.5q-7 -72 -54.5 -135.5t-131 -103t-199.5 -39.5zM293 -353l22 66q77 -40 136.5 -45t93.5 15t34 55q1 35 -30.5 61t-79 44t-97.5 29l59 187l90 -8l-55 -175
l-40 57q91 -20 154 -49t95.5 -67t32.5 -86q0 -57 -42 -91.5t-107 -45t-136 2.5t-130 50z" />
    <glyph glyph-name="uni0219" unicode="&#x219;" horiz-adv-x="946" 
d="M475 -22q-112 0 -190.5 39t-118 107.5t-32.5 157.5h136q-6 -85 53 -132.5t155 -47.5q95 0 157.5 43.5t70.5 110.5q7 58 -32.5 89t-107.5 55l-162 62q-103 38 -156 102t-43 158q8 78 54 136t124 90t180 32q157 0 237 -72t74 -182h-138q-2 64 -50 97t-128 33
q-67 0 -110.5 -20.5t-66.5 -52t-28 -65.5q-7 -55 31.5 -90.5t105.5 -57.5l166 -64q101 -34 157.5 -94.5t46.5 -155.5q-7 -72 -54.5 -135.5t-131 -103t-199.5 -39.5zM463 -421l-89 52q48 24 83.5 57t50.5 77q-37 4 -60 27.5t-19 63.5q5 38 33 64.5t69 26.5q50 0 76 -40.5
t21 -98.5q-6 -60 -47 -124t-118 -105z" />
    <glyph glyph-name="germandbls" unicode="&#xdf;" horiz-adv-x="1118" 
d="M707 -22q-48 0 -103.5 13.5t-108.5 41.5l24 128q44 -22 90 -36t88 -14q48 0 93 21.5t74 63t29 101.5q0 55 -25.5 96.5t-62.5 75.5t-74.5 66t-63 68t-25.5 81q0 49 28 89.5t64 80.5t64 85.5t28 103.5q0 71 -49 118.5t-141 47.5q-65 0 -117.5 -28t-86.5 -92.5t-45 -174.5
l-87 -914h-138l89 939q13 130 65.5 220.5t137 138.5t192.5 48q85 0 145.5 -24.5t98.5 -65t56 -89.5t18 -99q0 -70 -28 -123t-64 -94.5t-64 -77.5t-28 -73q0 -34 25.5 -64.5t63.5 -63t75.5 -72t63 -91.5t25.5 -122q0 -88 -43.5 -158t-117 -110.5t-165.5 -40.5z" />
    <glyph glyph-name="tbar" unicode="&#x167;" horiz-adv-x="676" 
d="M111 601l13 111h557l-14 -111h-556zM444 -22q-71 0 -124 29t-78.5 89t-17.5 152l58 633l41 -31h-185l14 106h181l-50 -45l31 311h142l-31 -311l-40 45h315l-12 -106h-315l49 31l-60 -631q-7 -73 22 -109.5t90 -36.5q34 0 70.5 9t79.5 27l10 -112q-49 -24 -95.5 -37
t-94.5 -13z" />
    <glyph glyph-name="tcaron" unicode="&#x165;" horiz-adv-x="676" 
d="M444 -22q-71 0 -124 29t-78.5 89t-17.5 152l58 633l41 -31h-185l14 106h181l-50 -45l31 311h142l-31 -311l-40 45h315l-12 -106h-315l49 31l-60 -631q-7 -73 22 -109.5t90 -36.5q34 0 70.5 9t79.5 27l10 -112q-49 -24 -95.5 -37t-94.5 -13zM597 1037l-89 52
q48 24 83.5 57t50.5 77q-37 4 -60 27.5t-19 63.5q5 38 33 64.5t69 26.5q50 0 76 -40.5t21 -98.5q-6 -60 -47 -124t-118 -105z" />
    <glyph glyph-name="uni0163" unicode="&#x163;" horiz-adv-x="676" 
d="M444 -22q-71 0 -124 29t-78.5 89t-17.5 152l58 633l41 -31h-185l14 106h181l-50 -45l31 311h142l-31 -311l-40 45h315l-12 -106h-315l49 31l-60 -631q-7 -73 22 -109.5t90 -36.5q34 0 70.5 9t79.5 27l10 -112q-49 -24 -95.5 -37t-94.5 -13zM243 -356l22 66
q77 -40 136.5 -45t93.5 15t34 55q1 35 -30.5 61t-79 44t-97.5 29l59 187l90 -8l-55 -175l-40 57q91 -20 154 -49t95.5 -67t32.5 -86q0 -57 -42 -91.5t-107 -45t-136 2.5t-130 50z" />
    <glyph glyph-name="uni021B" unicode="&#x21b;" horiz-adv-x="676" 
d="M444 -22q-71 0 -124 29t-78.5 89t-17.5 152l58 633l41 -31h-185l14 106h181l-50 -45l31 311h142l-31 -311l-40 45h315l-12 -106h-315l49 31l-60 -631q-7 -73 22 -109.5t90 -36.5q34 0 70.5 9t79.5 27l10 -112q-49 -24 -95.5 -37t-94.5 -13zM413 -424l-89 52
q48 24 83.5 57t50.5 77q-37 4 -60 27.5t-19 63.5q5 38 33 64.5t69 26.5q50 0 76 -40.5t21 -98.5q-6 -60 -47 -124t-118 -105z" />
    <glyph glyph-name="ubreve" unicode="&#x16d;" horiz-adv-x="1090" 
d="M478 -18q-97 0 -166 40t-102 121.5t-22 206.5l58 608h142l-56 -596q-12 -120 34.5 -181t145.5 -61q80 0 144 48t105 132t51 192l44 466h142l-90 -958h-142l18 190q-52 -100 -131 -154t-175 -54zM624 1152q-126 0 -192 71.5t-50 182.5h129q-10 -70 25.5 -109t102.5 -39
q68 0 113.5 39t55.5 109h129q-12 -114 -98 -184t-215 -70z" />
    <glyph glyph-name="uhungarumlaut" unicode="&#x171;" horiz-adv-x="1090" 
d="M478 -18q-97 0 -166 40t-102 121.5t-22 206.5l58 608h142l-56 -596q-12 -120 34.5 -181t145.5 -61q80 0 144 48t105 132t51 192l44 466h142l-90 -958h-142l18 190q-52 -100 -131 -154t-175 -54zM786 1093l-85 13l28 325l121 -21zM551 1101l-87 10l17 328l122 -17z" />
    <glyph glyph-name="umacron" unicode="&#x16b;" horiz-adv-x="1090" 
d="M478 -18q-97 0 -166 40t-102 121.5t-22 206.5l58 608h142l-56 -596q-12 -120 34.5 -181t145.5 -61q80 0 144 48t105 132t51 192l44 466h142l-90 -958h-142l18 190q-52 -100 -131 -154t-175 -54zM351 1297h624l-21 -129h-624z" />
    <glyph glyph-name="uogonek" unicode="&#x173;" horiz-adv-x="1090" 
d="M478 -18q-97 0 -166 40t-102 121.5t-22 206.5l58 608h142l-56 -596q-12 -120 34.5 -181t145.5 -61q80 0 144 48t105 132t51 192l44 466h142l-90 -958h-142l18 190q-52 -100 -131 -154t-175 -54zM1033 -330q-62 -35 -131 -54t-132 -19q-98 0 -157.5 45t-59.5 124t64 153
t191 122l100 -39q-112 -46 -177 -97t-65 -110q0 -45 36 -66t87 -21q46 0 95.5 15.5t110.5 49.5z" />
    <glyph glyph-name="uring" unicode="&#x16f;" horiz-adv-x="1090" 
d="M478 -18q-97 0 -166 40t-102 121.5t-22 206.5l58 608h142l-56 -596q-12 -120 34.5 -181t145.5 -61q80 0 144 48t105 132t51 192l44 466h142l-90 -958h-142l18 190q-52 -100 -131 -154t-175 -54zM649 1091q-55 0 -100.5 27.5t-72.5 73t-27 99.5q0 55 27 100.5t72.5 72.5
t100.5 27t100.5 -27t72.5 -72.5t27 -100.5q0 -54 -27 -99.5t-72.5 -73t-100.5 -27.5zM649 1203q37 0 63 25.5t26 62.5q0 38 -26 63.5t-63 25.5t-63 -25.5t-26 -63.5q0 -37 26 -62.5t63 -25.5z" />
    <glyph glyph-name="wacute" unicode="&#x1e83;" horiz-adv-x="1304" 
d="M122 956h148l138 -760l270 714h120l136 -724l282 770h142l-372 -956h-138l-136 670l-256 -670h-138zM633 1109l-33 100l448 266l47 -140z" />
    <glyph glyph-name="wcircumflex" unicode="&#x175;" horiz-adv-x="1304" 
d="M122 956h148l138 -760l270 714h120l136 -724l282 770h142l-372 -956h-138l-136 670l-256 -670h-138zM496 1118l-81 78l351 312l295 -312l-97 -78l-213 216z" />
    <glyph glyph-name="wdieresis" unicode="&#x1e85;" horiz-adv-x="1304" 
d="M122 956h148l138 -760l270 714h120l136 -724l282 770h142l-372 -956h-138l-136 670l-256 -670h-138zM607 1210q-42 0 -64.5 29t-18.5 69q3 38 30.5 70t72.5 32q37 0 63 -26t24 -70q-3 -49 -36 -76.5t-71 -27.5zM908 1210q-40 0 -63 29t-19 69q3 38 31.5 70t71.5 32
q34 0 61.5 -24.5t25.5 -71.5q-3 -53 -38 -78.5t-70 -25.5z" />
    <glyph glyph-name="wgrave" unicode="&#x1e81;" horiz-adv-x="1304" 
d="M122 956h148l138 -760l270 714h120l136 -724l282 770h142l-372 -956h-138l-136 670l-256 -670h-138zM936 1086l-419 226l72 140l398 -266z" />
    <glyph glyph-name="yacute" unicode="&#xfd;" horiz-adv-x="872" 
d="M174 -492q-55 0 -104.5 18t-99.5 52l14 144q42 -40 85 -58t91 -18q54 0 94.5 37.5t70 96t51.5 122.5l36 98l-262 956h158l188 -760l276 760h144l-430 -1146q-37 -97 -83 -164.5t-102.5 -102.5t-126.5 -35zM417 1109l-33 100l448 266l47 -140z" />
    <glyph glyph-name="ycircumflex" unicode="&#x177;" horiz-adv-x="872" 
d="M174 -492q-55 0 -104.5 18t-99.5 52l14 144q42 -40 85 -58t91 -18q54 0 94.5 37.5t70 96t51.5 122.5l36 98l-262 956h158l188 -760l276 760h144l-430 -1146q-37 -97 -83 -164.5t-102.5 -102.5t-126.5 -35zM280 1118l-81 78l351 312l295 -312l-97 -78l-213 216z" />
    <glyph glyph-name="ydieresis" unicode="&#xff;" horiz-adv-x="872" 
d="M174 -492q-55 0 -104.5 18t-99.5 52l14 144q42 -40 85 -58t91 -18q54 0 94.5 37.5t70 96t51.5 122.5l36 98l-262 956h158l188 -760l276 760h144l-430 -1146q-37 -97 -83 -164.5t-102.5 -102.5t-126.5 -35zM391 1210q-42 0 -64.5 29t-18.5 69q3 38 30.5 70t72.5 32
q37 0 63 -26t24 -70q-3 -49 -36 -76.5t-71 -27.5zM692 1210q-40 0 -63 29t-19 69q3 38 31.5 70t71.5 32q34 0 61.5 -24.5t25.5 -71.5q-3 -53 -38 -78.5t-70 -25.5z" />
    <glyph glyph-name="ygrave" unicode="&#x1ef3;" horiz-adv-x="872" 
d="M174 -492q-55 0 -104.5 18t-99.5 52l14 144q42 -40 85 -58t91 -18q54 0 94.5 37.5t70 96t51.5 122.5l36 98l-262 956h158l188 -760l276 760h144l-430 -1146q-37 -97 -83 -164.5t-102.5 -102.5t-126.5 -35zM720 1086l-419 226l72 140l398 -266z" />
    <glyph glyph-name="zacute" unicode="&#x17a;" horiz-adv-x="854" 
d="M96 0l10 128l572 700h-506l14 128h666l-14 -128l-564 -700h498l-10 -128h-666zM408 1109l-33 100l448 266l47 -140z" />
    <glyph glyph-name="zcaron" unicode="&#x17e;" horiz-adv-x="854" 
d="M96 0l10 128l572 700h-506l14 128h666l-14 -128l-564 -700h498l-10 -128h-666zM792 1514l81 -78l-351 -312l-295 312l97 78l213 -216z" />
    <glyph glyph-name="zdotaccent" unicode="&#x17c;" horiz-adv-x="854" 
d="M96 0l10 128l572 700h-506l14 128h666l-14 -128l-564 -700h498l-10 -128h-666zM533 1210q-40 0 -63.5 29t-19.5 69q3 38 32.5 70t77.5 32q34 0 59 -26t21 -70q-5 -49 -35.5 -76.5t-71.5 -27.5z" />
    <glyph glyph-name="ordfeminine" unicode="&#xaa;" horiz-adv-x="1008" 
d="M432 -22q-100 0 -165 42t-93.5 108.5t-21.5 139.5q10 97 60 159t129 92.5t173 30.5q63 0 126.5 -13.5t119.5 -38.5l12 122q14 129 -31 185.5t-143 56.5q-56 0 -103 -18t-76.5 -55.5t-34.5 -96.5h-158q10 107 64.5 170t136 90.5t171.5 27.5q163 0 247.5 -86.5t66.5 -277.5
l-58 -616h-122q0 41 1 80.5t1 79.5q-49 -92 -128 -137t-174 -45zM459 100q73 0 139 36.5t108.5 103.5t43.5 158q-55 18 -114 29t-112 11q-87 0 -150 -37.5t-72 -132.5q-6 -70 32.5 -119t124.5 -49z" />
    <glyph glyph-name="ordmasculine" unicode="&#xba;" horiz-adv-x="982" 
d="M489 -22q-117 0 -203 57t-127 168.5t-25 274.5q16 165 78.5 276.5t159 168.5t212.5 57q117 0 202 -58t126.5 -169.5t25.5 -274.5t-78.5 -274.5t-158 -168.5t-212.5 -57zM496 114q125 0 203 97.5t95 266.5q17 171 -39.5 268.5t-181.5 97.5q-124 0 -199.5 -96.5
t-92.5 -269.5q-11 -111 9 -193t71.5 -126.5t134.5 -44.5z" />
    <glyph glyph-name="uni0394" unicode="&#x394;" horiz-adv-x="1135" 
d="M46 0l520 1256h188l335 -1256h-163l-281 1066l-435 -1066h-164zM143 0l10 134h845l-9 -134h-846z" />
    <glyph glyph-name="uni03A9" unicode="&#x3a9;" horiz-adv-x="1313" 
d="M557 29q-78 0 -153 35t-134.5 107.5t-91.5 185t-24 268.5q12 214 93 359.5t210.5 219.5t285.5 74q155 0 274 -73.5t180.5 -219t43.5 -360.5q-17 -205 -92.5 -337t-181 -195.5t-212.5 -63.5l5 81q71 0 140.5 62.5t119 178.5t60.5 276q17 251 -78 381.5t-268 130.5
q-180 0 -291.5 -137t-127.5 -377q-10 -163 24.5 -278t95 -176t127.5 -61zM110 -1l8 111h444l-8 -111h-444zM752 -1l8 111h444l-8 -111h-444z" />
    <glyph glyph-name="uni03BC" unicode="&#x3bc;" horiz-adv-x="1091" 
d="M116 -404l130 1362h143l-56 -596q-12 -120 34.5 -181t145.5 -61q80 0 144 48t105 132t51 192l44 466h142l-90 -958h-142l18 190q-52 -100 -131 -154t-175 -54q-110 0 -181 49l-42 -435h-140z" />
    <glyph glyph-name="pi" unicode="&#x3c0;" horiz-adv-x="1206" 
d="M1115 -13q-99 0 -171 44t-108 131t-27 216l41 579h153l-40 -579q-10 -136 49 -194.5t152 -58.5zM337 0l67 956h155l-67 -956h-155zM142 824l10 134h1134l-10 -134h-1134z" />
    <glyph glyph-name="zero.osf" horiz-adv-x="956" 
d="M476 -22q-115 0 -196.5 62.5t-118.5 187.5t-19 312t78.5 312t153.5 187.5t208 62.5q113 0 194.5 -62.5t119.5 -187.5t20 -312t-79.5 -312t-154.5 -187.5t-206 -62.5zM490 118q125 0 193 107.5t87 314.5q20 207 -28.5 315.5t-173.5 108.5q-123 0 -191.5 -108.5
t-88.5 -315.5q-21 -207 28.5 -314.5t173.5 -107.5z" />
    <glyph glyph-name="one.osf" horiz-adv-x="596" 
d="M274 0l82 892q-46 -31 -95.5 -48.5t-94.5 -19.5l14 154q57 9 112.5 33.5t107.5 70.5h114l-100 -1082h-140z" />
    <glyph glyph-name="two.osf" horiz-adv-x="1034" 
d="M116 0l14 168q17 161 91 243.5t213 116.5l190 50q98 24 148.5 72.5t57.5 129.5q8 74 -45.5 128t-158.5 54q-102 0 -172 -46.5t-90 -139.5h-158q17 104 73.5 177t146.5 111t208 38q110 0 189 -46t119 -121t32 -163q-12 -127 -86 -200.5t-214 -109.5l-204 -54
q-97 -24 -142 -75.5t-50 -122.5l-8 -64h642l-12 -146h-784z" />
    <glyph glyph-name="three.osf" horiz-adv-x="1012" 
d="M442 -228q-112 0 -202 44.5t-138.5 134t-35.5 225.5h144q-10 -138 59.5 -203t186.5 -65q81 0 146.5 32.5t106 89t47.5 128.5q6 70 -19 130t-85 97t-160 37h-110l10 126h78q129 0 209 52.5t89 155.5q11 92 -45.5 151t-164.5 59q-88 0 -156.5 -44t-97.5 -142h-150
q39 176 151.5 249t262.5 73q113 0 194 -43t121 -118.5t31 -172.5q-9 -100 -66.5 -163t-153.5 -101q107 -39 162.5 -135t43.5 -221q-10 -109 -71 -194t-160.5 -133.5t-226.5 -48.5z" />
    <glyph glyph-name="four.osf" horiz-adv-x="1008" 
d="M606 -210l32 318h-586l12 122l674 862h134l-82 -850h196l-12 -134h-196l-32 -318h-140zM224 230h430l56 614z" />
    <glyph glyph-name="five.osf" horiz-adv-x="1024" 
d="M462 -228q-98 0 -178 43.5t-123 127.5t-31 207h138q-10 -114 47.5 -174t160.5 -60q82 0 149.5 38.5t110 105.5t50.5 152q11 125 -55 197.5t-207 72.5h-292l108 608h622l-16 -142h-488l-66 -356q44 11 87 15.5t85 4.5q125 0 211 -48.5t126.5 -138t28.5 -213.5
q-12 -127 -76.5 -226.5t-166 -156.5t-225.5 -57z" />
    <glyph glyph-name="six.osf" horiz-adv-x="1032" 
d="M538 -24q-136 0 -229 83t-135 225.5t-26 321.5q20 211 91.5 362t184.5 231.5t258 80.5q102 0 175 -43t111.5 -119.5t37.5 -177.5h-152q-6 90 -49 143t-133 53q-116 0 -207 -90.5t-141 -254t-42 -383.5q21 132 75.5 208.5t128 109t152.5 32.5q102 0 178.5 -50.5
t116 -139.5t29.5 -204q-12 -116 -69 -203.5t-148.5 -136t-206.5 -48.5zM552 122q104 0 178 66.5t84 181.5q11 116 -50.5 182t-163.5 66q-67 0 -124 -33t-93.5 -89t-42.5 -126q-10 -115 51.5 -181.5t160.5 -66.5z" />
    <glyph glyph-name="seven.osf" horiz-adv-x="846" 
d="M146 1102h770l-12 -134l-650 -1164h-174l674 1158h-620z" />
    <glyph glyph-name="eight.osf" horiz-adv-x="1106" 
d="M548 -22q-133 0 -230.5 46.5t-147.5 127.5t-40 184q11 123 91.5 202t198.5 98q-50 26 -98 68t-77 102t-21 140q9 97 66 172.5t154.5 118.5t229.5 43q119 0 207.5 -46t134.5 -125t36 -179q-9 -102 -78.5 -184.5t-191.5 -103.5l30 -12q119 -52 178.5 -123t47.5 -193
q-10 -100 -71.5 -175.5t-168 -118t-250.5 -42.5zM564 122q146 0 232.5 52t93.5 136q6 65 -33.5 109.5t-110.5 74.5l-196 84q-114 -13 -189 -79t-83 -149q-10 -109 73 -168.5t213 -59.5zM638 706q105 3 181.5 62.5t86.5 153.5q9 95 -59.5 154.5t-188.5 59.5q-76 0 -138 -26.5
t-101 -71t-45 -98.5q-6 -67 31 -106.5t107 -71.5z" />
    <glyph glyph-name="nine.osf" horiz-adv-x="1044" 
d="M484 -228q-111 0 -192.5 51t-122 140t-29.5 203h150q-9 -114 44 -182t162 -68q159 0 245 150.5t113 409.5q2 41 4 79.5t0 80.5q-28 -153 -121.5 -238.5t-222.5 -85.5q-101 0 -179 51t-119 140.5t-30 204.5q10 116 66.5 205t147.5 139t204 50q107 0 186.5 -50t129.5 -139
t69.5 -206.5t6.5 -252.5q-20 -212 -86 -365t-173.5 -235t-252.5 -82zM546 452q70 0 126 35t91.5 93t42.5 128q11 116 -48 185t-166 69q-106 0 -177 -69t-83 -185q-10 -117 48 -186.5t166 -69.5z" />
    <glyph glyph-name="zero.tf" 
d="M534 -22q-133 0 -225 72t-133 217t-20 363q19 217 87.5 361.5t175.5 216.5t241 72q133 0 226 -72t134.5 -216.5t21.5 -361.5q-20 -218 -89.5 -363t-177 -217t-241.5 -72zM550 122q146 0 233 132t111 376q24 243 -39.5 374.5t-210.5 131.5q-142 0 -230 -131.5t-112 -374.5
q-24 -244 40 -376t208 -132z" />
    <glyph glyph-name="one.tf" 
d="M228 0l12 146h268l86 928q-46 -31 -96.5 -49t-95.5 -21l14 156q57 8 113.5 32t108.5 70h114l-104 -1116h318l-12 -146h-726z" />
    <glyph glyph-name="two.tf" 
d="M152 0l16 186q9 109 47.5 181.5t102 120.5t146.5 84l232 100q89 38 139 98.5t57 151.5q11 96 -44 157t-162 61q-105 0 -177.5 -50.5t-92.5 -149.5h-156q16 109 74.5 185t151.5 115.5t212 39.5q110 0 192.5 -47.5t124.5 -130t31 -188.5q-15 -147 -95 -236.5t-209 -145.5
l-238 -102q-90 -39 -137 -91t-55 -133l-6 -60h656l-12 -146h-798z" />
    <glyph glyph-name="three.tf" 
d="M568 -22q-85 0 -162 26t-134.5 77.5t-86.5 128t-19 176.5h148q-7 -86 26.5 -145t97 -89t146.5 -30q123 0 199 68t85 168q6 64 -18.5 114t-84 79t-159.5 29h-130l14 126h88q129 0 210 57.5t90 156.5q9 92 -46.5 154t-169.5 62q-87 0 -158.5 -39.5t-103.5 -144.5h-148
q38 176 154.5 252t267.5 76q112 0 196.5 -44.5t128.5 -122t35 -177.5q-10 -99 -67.5 -169.5t-158.5 -108.5q104 -34 163.5 -112t48.5 -200q-11 -109 -69.5 -192t-156 -129.5t-226.5 -46.5z" />
    <glyph glyph-name="four.tf" 
d="M818 1276h130l-78 -836h196l-14 -136h-196l-28 -304h-138l26 304h-584l12 122zM788 1026l-474 -600h418z" />
    <glyph glyph-name="five.tf" 
d="M542 -22q-107 0 -191.5 42.5t-130 125.5t-34.5 204h142q-10 -112 56.5 -170t171.5 -58q120 0 198 81.5t88 204.5q11 117 -55 177.5t-203 60.5h-304l108 612h628l-14 -144h-490l-66 -362q44 8 92.5 13t87.5 5q185 0 283.5 -91.5t80.5 -270.5q-12 -123 -71 -220.5
t-155.5 -153.5t-221.5 -56z" />
    <glyph glyph-name="six.tf" 
d="M562 -24q-136 0 -229.5 83t-135.5 225.5t-25 321.5q20 211 91.5 362t184.5 231.5t258 80.5q102 0 175 -43t111.5 -119.5t37.5 -177.5h-152q-6 90 -49 143t-133 53q-116 0 -207 -90.5t-141 -254t-42 -383.5q21 132 75.5 208.5t128 109t152.5 32.5q102 0 178.5 -50.5
t116 -139.5t29.5 -204q-12 -116 -69 -203.5t-148.5 -136t-206.5 -48.5zM576 122q104 0 178 66.5t84 181.5q11 116 -50.5 182t-163.5 66q-67 0 -124 -33t-93.5 -89t-42.5 -126q-10 -115 51.5 -181.5t160.5 -66.5z" />
    <glyph glyph-name="seven.tf" 
d="M186 0l648 1106h-604l14 152h770l-14 -146l-622 -1112h-192z" />
    <glyph glyph-name="eight.tf" 
d="M558 -22q-133 0 -230 46.5t-147 127.5t-41 184q11 123 91.5 202t198.5 98q-50 26 -97.5 68t-76.5 102t-22 140q8 97 65 172.5t155 118.5t230 43q119 0 207.5 -46t134 -125t36.5 -179q-9 -102 -78.5 -184.5t-191.5 -103.5l30 -12q80 -32 133 -74.5t77 -101.5t16 -140
q-10 -100 -71.5 -175.5t-168 -118t-250.5 -42.5zM574 122q146 0 232.5 52t93.5 136q6 65 -33.5 109.5t-110.5 74.5l-196 84q-114 -13 -189 -79t-83 -149q-10 -109 73 -168.5t213 -59.5zM648 706q105 3 182 62.5t86 153.5q9 95 -59.5 154.5t-188.5 59.5q-76 0 -138 -26.5
t-101 -71t-45 -98.5q-6 -67 31 -106.5t107 -71.5z" />
    <glyph glyph-name="nine.tf" 
d="M520 -22q-113 0 -195.5 51t-124 140t-30.5 203h150q-9 -114 47.5 -182t162.5 -68t180 68t117.5 192t56.5 292q3 39 4.5 73.5t-0.5 74.5q-22 -108 -72.5 -179.5t-122.5 -107t-157 -35.5q-102 0 -178.5 50.5t-115.5 139.5t-28 204q11 116 68 203t148 135t204 48
q130 0 225 -77.5t141 -218.5t28 -332q-20 -208 -82.5 -359t-168.5 -233t-257 -82zM576 638q66 0 122.5 33t93 89t42.5 126q11 116 -50.5 182t-163.5 66q-100 0 -173 -66t-85 -182q-12 -115 49.5 -181.5t164.5 -66.5z" />
    <glyph glyph-name="zero.dnom" horiz-adv-x="1070" 
d="M553 -22q-124 0 -189.5 101.5t-46.5 306.5q18 203 104 304.5t211 101.5t191.5 -101.5t47.5 -304.5q-19 -205 -105.5 -306.5t-212.5 -101.5zM563 68q92 0 146 82.5t69 235.5q15 152 -24.5 234t-131.5 82q-89 0 -144 -82t-70 -234q-15 -153 25 -235.5t130 -82.5z" />
    <glyph glyph-name="one.dnom" horiz-adv-x="596" 
d="M394 789h72l-74 -789h-88l63 671q-29 -19 -60.5 -30t-59.5 -13l9 97q35 5 70.5 20t67.5 44z" />
    <glyph glyph-name="two.dnom" horiz-adv-x="1044" 
d="M383 129l-4 -38h410l-8 -91h-498l10 116q9 103 58 156t127 86l145 62q55 23 86.5 61t35.5 95q7 60 -27.5 98.5t-101.5 38.5q-65 0 -110.5 -31.5t-57.5 -93.5h-98q10 68 46.5 115.5t95 72t132.5 24.5q69 0 120 -29.5t77.5 -81t19.5 -118.5q-9 -91 -59 -147.5t-131 -90.5
l-148 -64q-56 -25 -85.5 -57.5t-34.5 -82.5z" />
    <glyph glyph-name="three.dnom" horiz-adv-x="1064" 
d="M543 -22q-71 0 -131.5 29t-94.5 86t-26 140h93q-7 -80 42 -122.5t127 -42.5q77 0 123.5 42.5t53.5 105.5q6 60 -32 99.5t-132 39.5h-81l9 78h55q80 0 131 36.5t56 97.5q6 57 -29 96t-106 39q-54 0 -98.5 -24.5t-64.5 -90.5h-93q23 110 96.5 157.5t167.5 47.5
q105 0 169 -60.5t56 -154.5q-7 -61 -43 -105.5t-98 -68.5q65 -21 102 -69.5t30 -125.5q-7 -68 -43.5 -120t-97 -81t-141.5 -29z" />
    <glyph glyph-name="four.dnom" horiz-adv-x="1006" 
d="M597 0l16 190h-365l8 76l421 532h81l-48 -523h122l-9 -85h-122l-18 -190h-86zM362 266h261l35 375z" />
    <glyph glyph-name="five.dnom" horiz-adv-x="1016" 
d="M526 -22q-66 0 -119 27t-81.5 79t-21.5 127h89q-7 -70 35 -106.5t107 -36.5q75 0 123.5 51.5t55.5 127.5q7 74 -34.5 111.5t-126.5 37.5h-190l67 382h393l-9 -90h-306l-42 -226q28 5 58 8t55 3q116 0 177 -57t50 -169q-7 -77 -44 -138t-97 -96t-139 -35z" />
    <glyph glyph-name="six.dnom" horiz-adv-x="1032" 
d="M551 -24q-85 0 -143 52t-84 141t-16 201q19 198 108 309.5t225 111.5q96 0 150 -58.5t53 -153.5h-95q-4 56 -31 89t-83 33q-72 0 -129.5 -56.5t-88.5 -158.5t-26 -240q20 124 84.5 171.5t138.5 47.5q95 0 153.5 -69.5t48.5 -176.5q-11 -109 -84 -176t-181 -67zM560 67
q65 0 111 41.5t53 113.5q7 73 -31.5 114t-102.5 41q-63 0 -110 -44.5t-52 -110.5q-7 -72 32 -113.5t100 -41.5z" />
    <glyph glyph-name="seven.dnom" horiz-adv-x="846" 
d="M258 0l405 691h-377l8 95h482l-9 -91l-389 -695h-120z" />
    <glyph glyph-name="eight.dnom" horiz-adv-x="1106" 
d="M564 -22q-125 0 -198 63.5t-64 160.5q7 77 57.5 126t124.5 62q-47 24 -88.5 71t-34.5 122q8 92 82.5 150.5t198.5 58.5q75 0 130.5 -28.5t84 -78t22.5 -112.5q-6 -64 -49.5 -115t-119.5 -65l19 -7q74 -33 111.5 -77t29.5 -121q-10 -94 -90.5 -152t-215.5 -58zM574 68
q91 0 145 33t58 85q4 41 -21 68.5t-69 46.5l-122 52q-71 -8 -118 -49t-52 -93q-7 -68 45 -105.5t134 -37.5zM620 433q65 2 113 39.5t54 95.5q6 59 -37 96.5t-118 37.5q-71 0 -121.5 -36t-55.5 -86q-4 -43 19 -67.5t67 -44.5z" />
    <glyph glyph-name="nine.dnom" horiz-adv-x="1046" 
d="M538 -22q-71 0 -122.5 32t-77.5 88t-19 127h94q-6 -71 29 -114t102 -43q99 0 152 94t69 251q2 25 3 46.5t0 46.5q-21 -101 -80.5 -151t-139.5 -50q-96 0 -154 69t-48 177q11 109 84 175t179 66q81 0 140.5 -48.5t88.5 -136.5t17 -207q-19 -195 -97.5 -308.5
t-219.5 -113.5zM573 391q62 0 108.5 44.5t52.5 110.5q7 72 -31.5 113.5t-102.5 41.5q-63 0 -108.5 -41.5t-52.5 -113.5t31 -113.5t103 -41.5z" />
    <glyph glyph-name="zero.numr" horiz-adv-x="1070" 
d="M637 578q-124 0 -189.5 101.5t-46.5 306.5q18 203 104 304.5t211 101.5t191.5 -101.5t47.5 -304.5q-19 -205 -105.5 -306.5t-212.5 -101.5zM647 668q92 0 146 82.5t69 235.5q15 152 -24.5 234t-131.5 82q-89 0 -144 -82t-70 -234q-15 -153 25 -235.5t130 -82.5z" />
    <glyph glyph-name="one.numr" horiz-adv-x="596" 
d="M478 1389h72l-74 -789h-88l63 671q-29 -19 -60.5 -30t-59.5 -13l9 97q35 5 70.5 20t67.5 44z" />
    <glyph glyph-name="two.numr" horiz-adv-x="1044" 
d="M467 729l-4 -38h410l-8 -91h-498l10 116q9 103 58 156t127 86l145 62q55 23 86.5 61t35.5 95q7 60 -27.5 98.5t-101.5 38.5q-65 0 -110.5 -31.5t-57.5 -93.5h-98q10 68 46.5 115.5t95 72t132.5 24.5q69 0 120 -29.5t77.5 -81t19.5 -118.5q-9 -91 -59 -147.5t-131 -90.5
l-148 -64q-56 -25 -85.5 -57.5t-34.5 -82.5z" />
    <glyph glyph-name="three.numr" horiz-adv-x="1064" 
d="M627 578q-71 0 -131.5 29t-94.5 86t-26 140h93q-7 -80 42 -122.5t127 -42.5q77 0 123.5 42.5t53.5 105.5q6 60 -32 99.5t-132 39.5h-81l9 78h55q80 0 131 36.5t56 97.5q6 57 -29 96t-106 39q-54 0 -98.5 -24.5t-64.5 -90.5h-93q23 110 96.5 157.5t167.5 47.5
q105 0 169 -60.5t56 -154.5q-7 -61 -43 -105.5t-98 -68.5q65 -21 102 -69.5t30 -125.5q-7 -68 -43.5 -120t-97 -81t-141.5 -29z" />
    <glyph glyph-name="four.numr" horiz-adv-x="1006" 
d="M681 600l16 190h-365l8 76l421 532h81l-48 -523h122l-9 -85h-122l-18 -190h-86zM446 866h261l35 375z" />
    <glyph glyph-name="five.numr" horiz-adv-x="1016" 
d="M610 578q-66 0 -119 27t-81.5 79t-21.5 127h89q-7 -70 35 -106.5t107 -36.5q75 0 123.5 51.5t55.5 127.5q7 74 -34.5 111.5t-126.5 37.5h-190l67 382h393l-9 -90h-306l-42 -226q28 5 58 8t55 3q116 0 177 -57t50 -169q-7 -77 -44 -138t-97 -96t-139 -35z" />
    <glyph glyph-name="six.numr" horiz-adv-x="1032" 
d="M635 576q-85 0 -143 52t-84 141t-16 201q19 198 108 309.5t225 111.5q96 0 150 -58.5t53 -153.5h-95q-4 56 -31 89t-83 33q-72 0 -129.5 -56.5t-88.5 -158.5t-26 -240q20 124 84.5 171.5t138.5 47.5q95 0 153.5 -69.5t48.5 -176.5q-11 -109 -84 -176t-181 -67zM644 667
q65 0 111 41.5t53 113.5q7 73 -31.5 114t-102.5 41q-63 0 -110 -44.5t-52 -110.5q-7 -72 32 -113.5t100 -41.5z" />
    <glyph glyph-name="seven.numr" horiz-adv-x="846" 
d="M342 600l405 691h-377l8 95h482l-9 -91l-389 -695h-120z" />
    <glyph glyph-name="eight.numr" horiz-adv-x="1106" 
d="M648 578q-125 0 -198 63.5t-64 160.5q7 77 57.5 126t124.5 62q-47 24 -88.5 71t-34.5 122q8 92 82.5 150.5t198.5 58.5q75 0 130.5 -28.5t84 -78t22.5 -112.5q-6 -64 -49.5 -115t-119.5 -65l19 -7q74 -33 111.5 -77t29.5 -121q-10 -94 -90.5 -152t-215.5 -58zM658 668
q91 0 145 33t58 85q4 41 -21 68.5t-69 46.5l-122 52q-71 -8 -118 -49t-52 -93q-7 -68 45 -105.5t134 -37.5zM704 1033q65 2 113 39.5t54 95.5q6 59 -37 96.5t-118 37.5q-71 0 -121.5 -36t-55.5 -86q-4 -43 19 -67.5t67 -44.5z" />
    <glyph glyph-name="nine.numr" horiz-adv-x="1046" 
d="M622 578q-71 0 -122.5 32t-77.5 88t-19 127h94q-6 -71 29 -114t102 -43q99 0 152 94t69 251q2 25 3 46.5t0 46.5q-21 -101 -80.5 -151t-139.5 -50q-96 0 -154 69t-48 177q11 109 84 175t179 66q81 0 140.5 -48.5t88.5 -136.5t17 -207q-19 -195 -97.5 -308.5
t-219.5 -113.5zM657 991q62 0 108.5 44.5t52.5 110.5q7 72 -31.5 113.5t-102.5 41.5q-63 0 -108.5 -41.5t-52.5 -113.5t31 -113.5t103 -41.5z" />
    <glyph glyph-name="fraction" unicode="&#x2044;" horiz-adv-x="498" 
d="M-253 -1l962 1351h108l-964 -1351h-106z" />
    <glyph glyph-name="onehalf" unicode="&#xbd;" horiz-adv-x="1723" 
d="M447 1389h72l-74 -789h-88l63 671q-29 -19 -60.5 -30t-59.5 -13l9 97q35 5 70.5 20t67.5 44zM274 -1l962 1351h108l-964 -1351h-106zM1143 129l-4 -38h410l-8 -91h-498l10 116q9 103 58 156t127 86l145 62q55 23 86.5 61t35.5 95q7 60 -27.5 98.5t-101.5 38.5
q-65 0 -110.5 -31.5t-57.5 -93.5h-98q10 68 46.5 115.5t95 72t132.5 24.5q69 0 120 -29.5t77.5 -81t19.5 -118.5q-9 -91 -59 -147.5t-131 -90.5l-148 -64q-56 -25 -85.5 -57.5t-34.5 -82.5z" />
    <glyph glyph-name="onequarter" unicode="&#xbc;" horiz-adv-x="1710" 
d="M447 1389h72l-74 -789h-88l63 671q-29 -19 -60.5 -30t-59.5 -13l9 97q35 5 70.5 20t67.5 44zM286 -1l962 1351h108l-964 -1351h-106zM1329 0l16 190h-365l8 76l421 532h81l-48 -523h122l-9 -85h-122l-18 -190h-86zM1094 266h261l35 375z" />
    <glyph glyph-name="threequarters" unicode="&#xbe;" horiz-adv-x="1864" 
d="M492 578q-71 0 -131.5 29t-94.5 86t-26 140h93q-7 -80 42 -122.5t127 -42.5q77 0 123.5 42.5t53.5 105.5q6 60 -32 99.5t-132 39.5h-81l9 78h55q80 0 131 36.5t56 97.5q6 57 -29 96t-106 39q-54 0 -98.5 -24.5t-64.5 -90.5h-93q23 110 96.5 157.5t167.5 47.5
q105 0 169 -60.5t56 -154.5q-7 -61 -43 -105.5t-98 -68.5q65 -21 102 -69.5t30 -125.5q-7 -68 -43.5 -120t-97 -81t-141.5 -29zM476 -1l962 1351h108l-964 -1351h-106zM1483 0l16 190h-365l8 76l421 532h81l-48 -523h122l-9 -85h-122l-18 -190h-86zM1248 266h261l35 375z
" />
    <glyph glyph-name="oneeighth" unicode="&#x215b;" horiz-adv-x="1753" 
d="M447 1389h72l-74 -789h-88l63 671q-29 -19 -60.5 -30t-59.5 -13l9 97q35 5 70.5 20t67.5 44zM285 -1l962 1351h108l-964 -1351h-106zM1291 -22q-125 0 -198 63.5t-64 160.5q7 77 57.5 126t124.5 62q-47 24 -88.5 71t-34.5 122q8 92 82.5 150.5t198.5 58.5
q75 0 130.5 -28.5t84 -78t22.5 -112.5q-6 -64 -49.5 -115t-119.5 -65l19 -7q74 -33 111.5 -77t29.5 -121q-10 -94 -90.5 -152t-215.5 -58zM1301 68q91 0 145 33t58 85q4 41 -21 68.5t-69 46.5l-122 52q-71 -8 -118 -49t-52 -93q-7 -68 45 -105.5t134 -37.5zM1347 433
q65 2 113 39.5t54 95.5q6 59 -37 96.5t-118 37.5q-71 0 -121.5 -36t-55.5 -86q-4 -43 19 -67.5t67 -44.5z" />
    <glyph glyph-name="threeeighths" unicode="&#x215c;" horiz-adv-x="1893" 
d="M492 578q-71 0 -131.5 29t-94.5 86t-26 140h93q-7 -80 42 -122.5t127 -42.5q77 0 123.5 42.5t53.5 105.5q6 60 -32 99.5t-132 39.5h-81l9 78h55q80 0 131 36.5t56 97.5q6 57 -29 96t-106 39q-54 0 -98.5 -24.5t-64.5 -90.5h-93q23 110 96.5 157.5t167.5 47.5
q105 0 169 -60.5t56 -154.5q-7 -61 -43 -105.5t-98 -68.5q65 -21 102 -69.5t30 -125.5q-7 -68 -43.5 -120t-97 -81t-141.5 -29zM457 -1l962 1351h108l-964 -1351h-106zM1431 -22q-125 0 -198 63.5t-64 160.5q7 77 57.5 126t124.5 62q-47 24 -88.5 71t-34.5 122
q8 92 82.5 150.5t198.5 58.5q75 0 130.5 -28.5t84 -78t22.5 -112.5q-6 -64 -49.5 -115t-119.5 -65l19 -7q74 -33 111.5 -77t29.5 -121q-10 -94 -90.5 -152t-215.5 -58zM1441 68q91 0 145 33t58 85q4 41 -21 68.5t-69 46.5l-122 52q-71 -8 -118 -49t-52 -93q-7 -68 45 -105.5
t134 -37.5zM1487 433q65 2 113 39.5t54 95.5q6 59 -37 96.5t-118 37.5q-71 0 -121.5 -36t-55.5 -86q-4 -43 19 -67.5t67 -44.5z" />
    <glyph glyph-name="fiveeighths" unicode="&#x215d;" horiz-adv-x="1866" 
d="M459 578q-66 0 -119 27t-81.5 79t-21.5 127h89q-7 -70 35 -106.5t107 -36.5q75 0 123.5 51.5t55.5 127.5q7 74 -34.5 111.5t-126.5 37.5h-190l67 382h393l-9 -90h-306l-42 -226q28 5 58 8t55 3q116 0 177 -57t50 -169q-7 -77 -44 -138t-97 -96t-139 -35zM444 -1l962 1351
h108l-964 -1351h-106zM1404 -22q-125 0 -198 63.5t-64 160.5q7 77 57.5 126t124.5 62q-47 24 -88.5 71t-34.5 122q8 92 82.5 150.5t198.5 58.5q75 0 130.5 -28.5t84 -78t22.5 -112.5q-6 -64 -49.5 -115t-119.5 -65l19 -7q74 -33 111.5 -77t29.5 -121q-10 -94 -90.5 -152
t-215.5 -58zM1414 68q91 0 145 33t58 85q4 41 -21 68.5t-69 46.5l-122 52q-71 -8 -118 -49t-52 -93q-7 -68 45 -105.5t134 -37.5zM1460 433q65 2 113 39.5t54 95.5q6 59 -37 96.5t-118 37.5q-71 0 -121.5 -36t-55.5 -86q-4 -43 19 -67.5t67 -44.5z" />
    <glyph glyph-name="seveneighths" unicode="&#x215e;" horiz-adv-x="1906" 
d="M282 600l405 691h-377l8 95h482l-9 -91l-389 -695h-120zM407 -1l962 1351h108l-964 -1351h-106zM1444 -22q-125 0 -198 63.5t-64 160.5q7 77 57.5 126t124.5 62q-47 24 -88.5 71t-34.5 122q8 92 82.5 150.5t198.5 58.5q75 0 130.5 -28.5t84 -78t22.5 -112.5
q-6 -64 -49.5 -115t-119.5 -65l19 -7q74 -33 111.5 -77t29.5 -121q-10 -94 -90.5 -152t-215.5 -58zM1454 68q91 0 145 33t58 85q4 41 -21 68.5t-69 46.5l-122 52q-71 -8 -118 -49t-52 -93q-7 -68 45 -105.5t134 -37.5zM1500 433q65 2 113 39.5t54 95.5q6 59 -37 96.5
t-118 37.5q-71 0 -121.5 -36t-55.5 -86q-4 -43 19 -67.5t67 -44.5z" />
    <glyph glyph-name="uni2080" unicode="&#x2080;" horiz-adv-x="729" 
d="M349 -22q-82 0 -138.5 44.5t-81.5 134t-12 223.5q11 133 53.5 222t108 133.5t148.5 44.5q82 0 139 -44.5t82.5 -133.5t13.5 -222q-13 -134 -55.5 -223.5t-108.5 -134t-149 -44.5zM359 67q90 0 143.5 81t68.5 232q14 149 -25 230t-129 81q-88 0 -142 -81t-69 -230
q-14 -151 25 -232t128 -81z" />
    <glyph glyph-name="uni2081" unicode="&#x2081;" horiz-adv-x="450" 
d="M270 777h70l-72 -777h-86l61 661q-28 -19 -59 -30t-59 -13l9 96q35 4 69.5 19t66.5 44z" />
    <glyph glyph-name="uni2082" unicode="&#x2082;" horiz-adv-x="727" 
d="M205 127l-4 -37h404l-8 -90h-491l10 114q6 68 30 112.5t62.5 74t89.5 51.5l143 62q55 23 85.5 60t35.5 93q6 59 -27.5 97t-99.5 38q-65 0 -109.5 -31.5t-56.5 -92.5h-96q10 68 46 114.5t93 71t130 24.5q68 0 118.5 -29.5t76.5 -80t20 -116.5q-10 -90 -59 -145.5
t-129 -89.5l-146 -62q-55 -24 -84.5 -56t-33.5 -82z" />
    <glyph glyph-name="uni2083" unicode="&#x2083;" horiz-adv-x="733" 
d="M355 -22q-52 0 -99.5 16.5t-82.5 48t-53 78.5t-12 109h91q-4 -53 16.5 -89.5t59.5 -55t90 -18.5q76 0 122.5 41.5t52.5 103.5q4 40 -11 70.5t-52 48.5t-98 18h-80l8 77h55q79 0 129 35.5t55 96.5q6 56 -28.5 94.5t-104.5 38.5q-53 0 -97.5 -24.5t-63.5 -88.5h-91
q23 108 94.5 155t165.5 47q69 0 120.5 -27.5t79 -75t21.5 -109.5q-6 -61 -41.5 -104.5t-97.5 -66.5q64 -21 100.5 -69t30.5 -123q-7 -67 -43 -118t-96 -80t-140 -29z" />
    <glyph glyph-name="uni2084" unicode="&#x2084;" horiz-adv-x="651" 
d="M399 0l16 187h-359l7 75l415 523h80l-48 -514h120l-8 -84h-121l-17 -187h-85zM168 262h257l34 369z" />
    <glyph glyph-name="uni2085" unicode="&#x2085;" horiz-adv-x="709" 
d="M349 -22q-65 0 -117.5 26.5t-80 77.5t-21.5 125h88q-7 -69 34 -104.5t106 -35.5q74 0 121.5 50t54.5 126q6 72 -34.5 109.5t-124.5 37.5h-187l67 376h386l-9 -88h-301l-41 -223q27 4 57 7.5t54 3.5q114 0 174 -56.5t50 -166.5q-7 -76 -43.5 -135.5t-96 -94.5t-136.5 -35z
" />
    <glyph glyph-name="uni2086" unicode="&#x2086;" horiz-adv-x="706" 
d="M354 -25q-84 0 -141 51t-83 139t-16 198q12 130 56 223t113.5 142.5t159.5 49.5q62 0 107 -26.5t69 -73.5t23 -110h-93q-4 56 -30.5 88.5t-81.5 32.5q-72 0 -128 -55.5t-86.5 -156.5t-25.5 -236q12 81 45.5 128t79 67t94.5 20q62 0 109.5 -31t71.5 -85.5t18 -125.5
q-7 -71 -42.5 -125t-91.5 -84t-127 -30zM363 65q63 0 108.5 41t52.5 112q6 71 -31.5 111.5t-100.5 40.5q-41 0 -76 -20t-57.5 -54.5t-26.5 -77.5q-6 -71 32 -112t99 -41z" />
    <glyph glyph-name="uni2087" unicode="&#x2087;" horiz-adv-x="547" 
d="M58 0l399 681h-372l9 93h474l-9 -90l-383 -684h-118z" />
    <glyph glyph-name="uni2088" unicode="&#x2088;" horiz-adv-x="755" 
d="M367 -22q-82 0 -142 29t-90.5 78.5t-24.5 113.5q6 75 56 123.5t122 60.5q-30 16 -60 42t-47.5 63t-12.5 86q5 60 40 106.5t95.5 73t141.5 26.5q73 0 127.5 -28.5t83 -77t21.5 -110.5q-5 -62 -48 -113t-118 -64l19 -7q73 -33 109.5 -76.5t29.5 -118.5q-6 -61 -44 -107.5
t-103.5 -73t-154.5 -26.5zM377 67q90 0 143 32t58 84q3 39 -21.5 67t-67.5 46l-121 52q-70 -9 -116 -49.5t-51 -91.5q-6 -67 45 -103.5t131 -36.5zM423 426q64 2 111 38.5t54 94.5q5 59 -37 95.5t-116 36.5q-47 0 -85 -16.5t-62 -43.5t-28 -61q-4 -41 19 -65.5t66 -43.5z
" />
    <glyph glyph-name="uni2089" unicode="&#x2089;" horiz-adv-x="719" 
d="M341 -22q-70 0 -121 31.5t-76.5 86.5t-18.5 125h93q-6 -70 28.5 -112t100.5 -42q98 0 150 92.5t68 247.5q1 24 2 45t0 46q-13 -67 -44.5 -111t-75.5 -65.5t-97 -21.5q-62 0 -109.5 31t-71 85.5t-17.5 125.5q7 72 42 125t91 83t126 30q80 0 138.5 -48t86.5 -134.5
t17 -204.5q-12 -128 -50.5 -221t-103.5 -143.5t-158 -50.5zM375 385q41 0 75.5 20t57 54.5t26.5 77.5q6 71 -31.5 112t-100.5 41q-62 0 -107 -41t-52 -112t30.5 -111.5t101.5 -40.5z" />
    <glyph glyph-name="uni2070" unicode="&#x2070;" horiz-adv-x="728" 
d="M419 479q-82 0 -138.5 44.5t-81.5 134t-12 223.5q11 133 53.5 222t108 133.5t148.5 44.5q82 0 139 -44.5t82.5 -133.5t13.5 -222q-13 -134 -55.5 -223.5t-108.5 -134t-149 -44.5zM429 568q90 0 143.5 81t68.5 232q14 149 -25 230t-129 81q-88 0 -142 -81t-69 -230
q-14 -151 25 -232t128 -81z" />
    <glyph glyph-name="uni00B9" unicode="&#xb9;" horiz-adv-x="450" 
d="M338 1263h70l-72 -777h-86l61 661q-28 -19 -59 -30t-59 -13l9 96q35 4 69.5 19t66.5 44z" />
    <glyph glyph-name="uni00B2" unicode="&#xb2;" horiz-adv-x="728" 
d="M275 620l-4 -37h404l-8 -90h-491l10 114q6 68 30 112.5t62.5 74t89.5 51.5l143 62q55 23 85.5 60t35.5 93q6 59 -27.5 97t-99.5 38q-65 0 -109.5 -31.5t-56.5 -92.5h-96q10 68 46 114.5t93 71t130 24.5q68 0 118.5 -29.5t76.5 -80t20 -116.5q-10 -90 -59 -145.5
t-129 -89.5l-146 -62q-55 -24 -84.5 -56t-33.5 -82z" />
    <glyph glyph-name="uni00B3" unicode="&#xb3;" horiz-adv-x="733" 
d="M425 479q-52 0 -99.5 16.5t-82.5 48t-53 78.5t-12 109h91q-4 -53 16.5 -89.5t59.5 -55t90 -18.5q76 0 122.5 41.5t52.5 103.5q4 40 -11 70.5t-52 48.5t-98 18h-80l8 77h55q79 0 129 35.5t55 96.5q6 56 -28.5 94.5t-104.5 38.5q-53 0 -97.5 -24.5t-63.5 -88.5h-91
q23 108 94.5 155t165.5 47q69 0 120.5 -27.5t79 -75t21.5 -109.5q-6 -61 -41.5 -104.5t-97.5 -66.5q64 -21 100.5 -69t30.5 -123q-7 -67 -43 -118t-96 -80t-140 -29z" />
    <glyph glyph-name="uni2074" unicode="&#x2074;" horiz-adv-x="651" 
d="M468 491l16 187h-359l7 75l415 523h80l-48 -514h120l-8 -84h-121l-17 -187h-85zM237 753h257l34 369z" />
    <glyph glyph-name="uni2075" unicode="&#x2075;" horiz-adv-x="709" 
d="M418 470q-65 0 -117.5 26.5t-80 77.5t-21.5 125h88q-7 -69 34 -104.5t106 -35.5q74 0 121.5 50t54.5 126q6 72 -34.5 109.5t-124.5 37.5h-187l67 376h386l-9 -88h-301l-41 -223q27 4 57 7.5t54 3.5q114 0 174 -56.5t50 -166.5q-7 -76 -43.5 -135.5t-96 -94.5t-136.5 -35z
" />
    <glyph glyph-name="uni2076" unicode="&#x2076;" horiz-adv-x="706" 
d="M424 478q-84 0 -141 51t-83 139t-16 198q12 130 56 223t113.5 142.5t159.5 49.5q62 0 107 -26.5t69 -73.5t23 -110h-93q-4 56 -30.5 88.5t-81.5 32.5q-72 0 -128 -55.5t-86.5 -156.5t-25.5 -236q12 81 45.5 128t79 67t94.5 20q62 0 109.5 -31t71.5 -85.5t18 -125.5
q-7 -71 -42.5 -125t-91.5 -84t-127 -30zM433 568q63 0 108.5 41t52.5 112q6 71 -31.5 111.5t-100.5 40.5q-41 0 -76 -20t-57.5 -54.5t-26.5 -77.5q-6 -71 32 -112t99 -41z" />
    <glyph glyph-name="uni2077" unicode="&#x2077;" horiz-adv-x="547" 
d="M126 484l399 681h-372l9 93h474l-9 -90l-383 -684h-118z" />
    <glyph glyph-name="uni2078" unicode="&#x2078;" horiz-adv-x="756" 
d="M438 479q-82 0 -142 29t-90.5 78.5t-24.5 113.5q6 75 56 123.5t122 60.5q-30 16 -60 42t-47.5 63t-12.5 86q5 60 40 106.5t95.5 73t141.5 26.5q73 0 127.5 -28.5t83 -77t21.5 -110.5q-5 -62 -48 -113t-118 -64l19 -7q73 -33 109.5 -76.5t29.5 -118.5q-6 -61 -44 -107.5
t-103.5 -73t-154.5 -26.5zM448 568q90 0 143 32t58 84q3 39 -21.5 67t-67.5 46l-121 52q-70 -9 -116 -49.5t-51 -91.5q-6 -67 45 -103.5t131 -36.5zM494 927q64 2 111 38.5t54 94.5q5 59 -37 95.5t-116 36.5q-47 0 -85 -16.5t-62 -43.5t-28 -61q-4 -41 19 -65.5t66 -43.5z
" />
    <glyph glyph-name="uni2079" unicode="&#x2079;" horiz-adv-x="719" 
d="M411 479q-70 0 -121 31.5t-76.5 86.5t-18.5 125h93q-6 -70 28.5 -112t100.5 -42q98 0 150 92.5t68 247.5q1 24 2 45t0 46q-13 -67 -44.5 -111t-75.5 -65.5t-97 -21.5q-62 0 -109.5 31t-71 85.5t-17.5 125.5q7 72 42 125t91 83t126 30q80 0 138.5 -48t86.5 -134.5
t17 -204.5q-12 -128 -50.5 -221t-103.5 -143.5t-158 -50.5zM445 886q41 0 75.5 20t57 54.5t26.5 77.5q6 71 -31.5 112t-100.5 41q-62 0 -107 -41t-52 -112t30.5 -111.5t101.5 -40.5z" />
    <glyph glyph-name="ellipsis" unicode="&#x2026;" horiz-adv-x="1092" 
d="M156 -18q-46 0 -72.5 33.5t-21.5 80.5t38 79.5t79 32.5q45 0 73 -31t23 -81q-4 -48 -38 -81t-81 -33zM536 -18q-46 0 -72.5 33.5t-21.5 80.5t38 79.5t79 32.5q45 0 73 -31t23 -81q-4 -48 -38 -81t-81 -33zM925 -18q-46 0 -72.5 33.5t-21.5 80.5t38 79.5t79 32.5
q45 0 73 -31t23 -81q-4 -48 -38 -81t-81 -33z" />
    <glyph glyph-name="exclamdown" unicode="&#xa1;" horiz-adv-x="500" 
d="M420 884l-68 -902h-148l100 902h116zM397 1254q47 0 74 -34t23 -78q-4 -46 -36.5 -80t-80.5 -34t-74.5 33.5t-22.5 80.5q5 47 38 79.5t79 32.5z" />
    <glyph glyph-name="questiondown" unicode="&#xbf;" horiz-adv-x="897" 
d="M605 901l-8 -90q-8 -91 -31.5 -145.5t-67 -93t-111.5 -81.5q-55 -35 -95 -65t-63 -66t-26 -91q-4 -87 48 -134.5t155 -47.5q107 0 169 51t82 133h152q-24 -145 -132 -236.5t-281 -91.5q-121 0 -200.5 44t-116.5 119t-30 167q6 82 40 138t84.5 96t103.5 72q62 38 99 66.5
t55.5 68t25.5 109.5l8 78h140zM565 1245q50 0 74.5 -33.5t19.5 -80.5q-5 -46 -36.5 -77.5t-81.5 -31.5q-52 0 -75 33t-20 77q5 50 37.5 81.5t81.5 31.5z" />
    <glyph glyph-name="periodcentered" unicode="&#xb7;" horiz-adv-x="323" 
d="M221 442q-46 0 -72.5 33.5t-21.5 80.5t38 79.5t79 32.5q45 0 73 -31t23 -81q-4 -48 -38 -81t-81 -33z" />
    <glyph glyph-name="bullet" unicode="&#x2022;" horiz-adv-x="499" 
d="M300 357q-85 0 -133 61t-38 147q9 85 68.5 144.5t144.5 59.5q82 0 132.5 -57t42.5 -147q-8 -87 -70 -147.5t-147 -60.5z" />
    <glyph glyph-name="quotesinglbase" unicode="&#x201a;" horiz-adv-x="419" 
d="M95 -218l-100 58q54 27 94 64t56 86q-41 5 -67 31.5t-21 70.5q5 42 36.5 72t77.5 30q38 0 63 -21t37 -56.5t8 -78.5q-4 -44 -25.5 -92t-61 -91t-97.5 -73z" />
    <glyph glyph-name="quotedblbase" unicode="&#x201e;" horiz-adv-x="734" 
d="M410 -218l-100 58q54 27 94 64t56 86q-41 5 -67 31.5t-21 70.5q5 42 36.5 72t77.5 30q38 0 63 -21t37 -56.5t8 -78.5q-4 -44 -25.5 -92t-61 -91t-97.5 -73zM95 -218l-100 58q54 27 94 64t56 86q-41 5 -67 31.5t-21 70.5q5 42 36.5 72t77.5 30q38 0 63 -21t37 -56.5
t8 -78.5q-4 -44 -25.5 -92t-61 -91t-97.5 -73z" />
    <glyph glyph-name="quotedblleft" unicode="&#x201c;" horiz-adv-x="723" 
d="M570 836q-54 0 -84 46t-24 112q5 48 29 96.5t64.5 90.5t96.5 71l94 -58q-54 -30 -92.5 -67t-55.5 -85q41 -4 66 -30t20 -70q-4 -43 -35.5 -74.5t-78.5 -31.5zM266 836q-54 0 -84 46t-24 112q5 48 29 96.5t64.5 90.5t96.5 71l94 -58q-54 -30 -92.5 -67t-55.5 -85
q41 -4 66 -30t20 -70q-4 -43 -35.5 -74.5t-78.5 -31.5z" />
    <glyph glyph-name="quotedblright" unicode="&#x201d;" horiz-adv-x="728" 
d="M549 836l-94 60q54 30 93 67t55 85q-40 5 -65.5 31t-22.5 69q5 44 36.5 74t77.5 30q37 0 63 -20.5t38 -56t7 -81.5q-4 -47 -27.5 -94.5t-64.5 -90t-96 -73.5zM238 836l-94 60q54 30 93 67t55 85q-40 5 -65.5 31t-22.5 69q5 44 36.5 74t77.5 30q37 0 63 -20.5t38 -56
t7 -81.5q-4 -47 -27.5 -94.5t-64.5 -90t-96 -73.5z" />
    <glyph glyph-name="guillemotleft" unicode="&#xab;" horiz-adv-x="1175" 
d="M489 101l-349 429l470 429l106 -78l-433 -382l1 59l326 -383zM962 101l-349 429l470 429l106 -78l-433 -382l1 59l326 -383z" />
    <glyph glyph-name="guillemotright" unicode="&#xbb;" horiz-adv-x="1172" 
d="M197 101l-107 74l433 383v-56l-327 383l121 74l349 -429zM667 101l-107 74l433 383v-56l-327 383l121 74l349 -429z" />
    <glyph glyph-name="guilsinglleft" unicode="&#x2039;" horiz-adv-x="702" 
d="M489 101l-349 429l470 429l106 -78l-433 -382l1 59l326 -383z" />
    <glyph glyph-name="guilsinglright" unicode="&#x203a;" horiz-adv-x="702" 
d="M197 101l-107 74l433 383v-56l-327 383l121 74l349 -429z" />
    <glyph glyph-name="florin" unicode="&#x192;" horiz-adv-x="486" 
d="M-51 -494q-35 0 -72.5 6.5t-75.5 19.5l38 124q26 -12 53 -19t52 -7q29 0 58 13t50 46.5t27 94.5l121 1318q9 97 48 157.5t98 89.5t126 29q35 0 73 -6t75 -20l-39 -124q-25 12 -52 19t-53 7q-29 0 -57.5 -13t-49.5 -46t-27 -95l-121 -1318q-9 -96 -48 -157t-97.5 -90
t-126.5 -29zM36 848l10 108h460l-10 -108h-460z" />
    <glyph glyph-name="paragraph" unicode="&#xb6;" 
d="M536 484q-207 0 -305.5 103.5t-80.5 281.5q19 178 140 282.5t327 104.5h384l-14 -138h-292l-67 -634h-92zM478 -252l158 1508h120l-158 -1508h-120zM755 -252l158 1508h119l-158 -1508h-119z" />
    <glyph glyph-name="section" unicode="&#xa7;" horiz-adv-x="975" 
d="M542 214l4 123q92 3 153.5 47.5t68.5 110.5q7 57 -31 88t-109 56l-162 62q-103 38 -156 101.5t-43 158.5q8 78 54 136t124 90t180 32q158 0 237.5 -72.5t73.5 -181.5h-138q-2 63 -50 96.5t-128 33.5q-66 0 -110 -20.5t-67 -52t-28 -65.5q-7 -55 31.5 -90.5t105.5 -57.5
l166 -64q101 -35 158 -95t46 -155q-7 -73 -54.5 -136.5t-130 -103t-195.5 -41.5zM449 -212q-112 0 -190.5 39t-117.5 107.5t-33 157.5h136q-6 -85 53 -132.5t155 -47.5q95 0 157.5 43.5t70.5 110.5q7 58 -32.5 89t-107.5 55l-162 62q-103 38 -156 102t-43 158
q12 116 108 188t250 78l-3 -124q-100 -6 -150 -49.5t-57 -96.5q-7 -55 31.5 -90.5t105.5 -57.5l166 -64q101 -34 157.5 -94.5t46.5 -155.5q-7 -72 -54.5 -135.5t-131 -103t-199.5 -39.5z" />
    <glyph glyph-name="copyright" unicode="&#xa9;" horiz-adv-x="1380" 
d="M644 -12q-133 0 -244 50t-190 138t-116.5 204t-23.5 249t76 249t159.5 204t219 138t253.5 50q133 0 244 -50t190 -138t116.5 -204t23.5 -249t-76 -249t-159.5 -204t-219 -138t-253.5 -50zM653 70q116 0 221.5 43.5t190 120.5t139 178.5t66.5 216.5q12 116 -21 217
t-101.5 178t-165.5 120.5t-213 43.5q-115 0 -220.5 -43.5t-190.5 -120t-139.5 -178t-66.5 -217.5q-12 -115 21 -216.5t102 -178.5t166 -120.5t212 -43.5zM666 238q-92 0 -152.5 50t-87 140t-15.5 210q12 127 59 214t117.5 132t153.5 45q110 0 172 -61.5t78 -159.5l-96 -21
q-14 71 -57.5 113.5t-105.5 42.5q-54 0 -102.5 -34.5t-82.5 -102.5t-43 -168q-9 -92 6.5 -162.5t56 -111t107.5 -40.5q82 0 134.5 48.5t60.5 126.5h92q-7 -82 -46.5 -140.5t-104 -89.5t-144.5 -31z" />
    <glyph glyph-name="registered" unicode="&#xae;" horiz-adv-x="1380" 
d="M644 -12q-133 0 -244 50t-190 138t-116.5 204t-23.5 249t76 249t159.5 204t219 138t253.5 50q133 0 244 -50t190 -138t116.5 -204t23.5 -249t-76 -249t-159.5 -204t-219 -138t-253.5 -50zM653 70q116 0 221.5 43.5t190 120.5t139 178.5t66.5 216.5q12 116 -21 217
t-101.5 178t-165.5 120.5t-213 43.5q-115 0 -220.5 -43.5t-190.5 -120t-139.5 -178t-66.5 -217.5q-12 -115 21 -216.5t102 -178.5t166 -120.5t212 -43.5zM448 230l75 802h251q125 0 182 -66.5t46 -172.5q-8 -90 -61.5 -152t-148.5 -78l176 -333h-116l-157 328h-126l-31 -328
h-90zM575 628h153q82 0 128.5 44t52.5 115q7 73 -30 115.5t-114 42.5h-160z" />
    <glyph glyph-name="trademark" unicode="&#x2122;" horiz-adv-x="1215" 
d="M307 956l52 561h-184l7 68h440l-7 -68h-185l-52 -561h-71zM659 956l59 629h102l150 -426l230 426h100l-60 -629h-71l50 539h9l-246 -460h-48l-162 470l9 -1l-51 -548h-71z" />
    <glyph glyph-name="degree" unicode="&#xb0;" horiz-adv-x="653" 
d="M411 978q-70 0 -125.5 34.5t-85 92.5t-23.5 129t45.5 128.5t101 92t131.5 34.5q71 0 126 -34.5t84.5 -92t23.5 -128.5t-46 -129t-100.5 -92.5t-131.5 -34.5zM419 1072q66 0 117.5 47.5t56.5 114.5q6 67 -37 113.5t-110 46.5t-117.5 -47.5t-57.5 -112.5q-6 -67 38 -114.5
t110 -47.5z" />
    <glyph glyph-name="brokenbar" unicode="&#xa6;" horiz-adv-x="504" 
d="M158 -244l73 782h142l-73 -782h-142zM249 719l73 781h142l-73 -781h-142z" />
    <glyph glyph-name="dagger" unicode="&#x2020;" 
d="M445 -252l191 1508h179l-232 -1508h-138zM243 781l14 100l418 14l415 -14l-14 -100l-419 -16z" />
    <glyph glyph-name="daggerdbl" unicode="&#x2021;" 
d="M445 -252l191 1508h179l-232 -1508h-138zM243 781l14 100l418 14l415 -14l-14 -100l-419 -16zM190 483l13 99l418 15l415 -15l-13 -99l-419 -16z" />
    <glyph glyph-name="cent" unicode="&#xa2;" horiz-adv-x="926" 
d="M517 950l38 186h134l-39 -186h-133zM333 -167l39 185h135l-39 -185h-135zM455 -22q-106 0 -191 60.5t-129 173.5t-30 268q15 159 80 270.5t160.5 170.5t202.5 59q71 0 126 -24.5t94.5 -66.5t62.5 -97t30 -116l-144 -14q-15 82 -63 130t-121 48q-67 0 -127 -41t-102 -121
t-53 -198q-10 -110 13.5 -191.5t76.5 -126t129 -44.5q90 0 148 53.5t65 150.5h146q-8 -99 -58.5 -177t-132 -122.5t-183.5 -44.5z" />
    <glyph glyph-name="currency" unicode="&#xa4;" 
d="M572 238q-105 0 -190 52.5t-131.5 140.5t-38.5 195q8 105 65.5 192.5t149 140.5t199.5 53q107 0 191 -52.5t130 -140t39 -193.5q-7 -108 -66 -196t-150.5 -140t-197.5 -52zM197 185l-75 83l205 189l76 -84zM924 182l-160 177l88 84l163 -179zM582 382q67 0 124.5 32.5
t94.5 88t41 123.5q5 69 -24.5 124t-82.5 86.5t-119 31.5q-68 0 -125 -33t-93.5 -87.5t-41.5 -121.5q-5 -69 24.5 -124t82.5 -87.5t119 -32.5zM363 810l-169 185l89 83l171 -187zM876 799l-80 83l198 180l78 -84z" />
    <glyph glyph-name="Euro" unicode="&#x20ac;" horiz-adv-x="1104" 
d="M570 -22q-150 0 -250 83t-143.5 231t-24.5 344q19 209 96 352.5t193.5 217.5t252.5 74q182 0 283.5 -101t128.5 -263l-158 -34q-24 117 -95 186.5t-173 69.5q-89 0 -169.5 -56.5t-136 -168.5t-70.5 -277q-14 -150 11.5 -266.5t92 -183t176.5 -66.5q135 0 221.5 79.5
t98.5 208.5h152q-12 -135 -77 -231t-170.5 -147.5t-238.5 -51.5zM15 489l10 97h618l-7 -97h-621zM46 672l9 98h621l-12 -98h-618z" />
    <glyph glyph-name="uni20A8" unicode="&#x20a8;" horiz-adv-x="1046" 
d="M274 1160l10 98h750l-12 -98h-328q60 -37 92.5 -89t39.5 -117h178l-8 -96h-172q-13 -92 -60 -168.5t-134.5 -126.5t-221.5 -63l446 -500h-202l-440 496l10 96h110q155 0 237.5 76t100.5 190h-424l10 96h416q-12 92 -81.5 149t-206.5 57h-110z" />
    <glyph glyph-name="yen" unicode="&#xa5;" horiz-adv-x="988" 
d="M862 411h-668l10 98h670zM844 240h-669l13 99h668zM420 0l48 516l-332 742h170l250 -578l366 578h166l-476 -742l-48 -516h-144z" />
    <glyph glyph-name="cent.tf" 
d="M636 950l38 186h134l-39 -186h-133zM452 -167l39 185h135l-39 -185h-135zM574 -22q-106 0 -191 60.5t-129 173.5t-30 268q15 159 80 270.5t160.5 170.5t202.5 59q71 0 126 -24.5t94.5 -66.5t62.5 -97t30 -116l-144 -14q-15 82 -63 130t-121 48q-67 0 -127 -41t-102 -121
t-53 -198q-10 -110 13.5 -191.5t76.5 -126t129 -44.5q90 0 148 53.5t65 150.5h146q-8 -99 -58.5 -177t-132 -122.5t-183.5 -44.5z" />
    <glyph glyph-name="currency.tf" 
d="M572 238q-105 0 -190 52.5t-131.5 140.5t-38.5 195q8 105 65.5 192.5t149 140.5t199.5 53q107 0 191 -52.5t130 -140t39 -193.5q-7 -108 -66 -196t-150.5 -140t-197.5 -52zM197 185l-75 83l205 189l76 -84zM924 182l-160 177l88 84l163 -179zM582 382q67 0 124.5 32.5
t94.5 88t41 123.5q5 69 -24.5 124t-82.5 86.5t-119 31.5q-68 0 -125 -33t-93.5 -87.5t-41.5 -121.5q-5 -69 24.5 -124t82.5 -87.5t119 -32.5zM363 810l-169 185l89 83l171 -187zM876 799l-80 83l198 180l78 -84z" />
    <glyph glyph-name="dollar.tf" 
d="M486 -182l14 164q-106 10 -189 58t-127.5 132.5t-33.5 205.5h138q-10 -118 52.5 -179t173.5 -73l46 472l-56 22q-142 53 -212.5 124.5t-57.5 203.5q12 135 112 225t278 103l14 150h112l-14 -152q153 -13 231 -99t85 -223h-140q-7 75 -55 123t-135 61l-40 -430l122 -46
q119 -45 181.5 -123t50.5 -207q-9 -84 -59.5 -161t-141.5 -128.5t-223 -60.5l-14 -162h-112zM626 124q116 11 179.5 72.5t72.5 137.5q6 75 -32.5 126.5t-113.5 79.5l-64 24zM574 742l36 394q-102 -10 -160 -63.5t-64 -130.5q-6 -69 27 -110t109 -70z" />
    <glyph glyph-name="Euro.tf" 
d="M580 -22q-150 0 -250 83t-143.5 231t-24.5 344q19 209 96 352.5t193.5 217.5t252.5 74q182 0 283.5 -101t128.5 -263l-158 -34q-24 117 -95 186.5t-173 69.5q-89 0 -169.5 -56.5t-136 -168.5t-70.5 -277q-14 -150 11.5 -266.5t92 -183t176.5 -66.5q135 0 221.5 79.5
t98.5 208.5h152q-12 -135 -77 -231t-170.5 -147.5t-238.5 -51.5zM25 489l10 97h618l-7 -97h-621zM56 672l9 98h621l-12 -98h-618z" />
    <glyph glyph-name="uni20A8.tf" horiz-adv-x="1046" 
d="M174 1160l10 98h750l-12 -98h-328q60 -37 92.5 -89t39.5 -117h178l-8 -96h-172q-13 -92 -60 -168.5t-134.5 -126.5t-221.5 -63l446 -500h-202l-440 496l10 96h110q155 0 237.5 76t100.5 190h-424l10 96h416q-12 92 -81.5 149t-206.5 57h-110z" />
    <glyph glyph-name="sterling.tf" 
d="M128 0l12 138h50q69 0 105 44.5t43 135.5l20 216h-162l10 112h164l20 218q13 131 59.5 224t125 142.5t187.5 49.5q126 0 200 -76.5t80 -223.5h-138q-7 78 -50 117t-106 39q-88 0 -145 -64.5t-71 -207.5l-22 -218h328l-10 -112h-328l-20 -208q-7 -67 -26 -114t-60 -74h332
q87 0 132 41.5t64 128.5h150q-22 -142 -102.5 -225t-257.5 -83h-584z" />
    <glyph glyph-name="yen.tf" 
d="M850 411h-668l10 98h670zM832 240h-669l13 99h668zM408 0l48 516l-332 742h170l250 -578l366 578h166l-476 -742l-48 -516h-144z" />
    <glyph glyph-name="uni2215" unicode="&#x2215;" horiz-adv-x="498" 
d="M-253 -1l962 1351h108l-964 -1351h-106z" />
    <glyph glyph-name="multiply" unicode="&#xd7;" horiz-adv-x="1000" 
d="M174 126l-102 100l363 301l-6 -64l-294 294l110 92l294 -294h-69l360 301l102 -102l-363 -299l6 64l294 -294l-110 -92l-294 294h70z" />
    <glyph glyph-name="divide" unicode="&#xf7;" horiz-adv-x="1000" 
d="M126 439l18 134h762l-18 -134h-762zM446 98q-46 0 -72.5 33.5t-21.5 80.5t38 79.5t79 32.5q45 0 73 -31t23 -81q-4 -48 -38 -81t-81 -33zM546 698q-46 0 -72.5 33.5t-21.5 80.5t38 79.5t79 32.5q45 0 73 -31t23 -81q-4 -48 -38 -81t-81 -33z" />
    <glyph glyph-name="notequal" unicode="&#x2260;" horiz-adv-x="1000" 
d="M283 104l300 798h149l-303 -798h-146zM170 245l12 136h613l-12 -136h-613zM206 584l12 139h613l-12 -139h-613z" />
    <glyph glyph-name="greaterequal" unicode="&#x2265;" horiz-adv-x="1000" 
d="M186 318l-37 118l584 180l-14 -51l-567 231l37 134l622 -278l-13 -138zM76 0l18 134h762l-18 -134h-762z" />
    <glyph glyph-name="lessequal" unicode="&#x2264;" horiz-adv-x="1000" 
d="M758 304l-614 207l-7 138l583 268l64 -116l-563 -239l-4 56l581 -193zM70 0l18 134h762l-18 -134h-762z" />
    <glyph glyph-name="plusminus" unicode="&#xb1;" horiz-adv-x="1000" 
d="M476 1054h142l-27 -304h313l-12 -134h-314l-26 -302h-142l27 302h-309l11 134h310zM82 0l18 134h762l-18 -134h-762z" />
    <glyph glyph-name="approxequal" unicode="&#x2248;" horiz-adv-x="1000" 
d="M213 499l-76 46q40 107 93.5 164.5t126.5 57.5q32 0 67.5 -13t103.5 -43q71 -31 101 -42.5t54 -11.5q38 0 70.5 26t63.5 88l72 -54q-43 -109 -98 -160.5t-123 -51.5q-28 0 -61 11t-113 45q-79 34 -107 45t-48 11q-36 0 -65.5 -25t-60.5 -93zM178 134l-76 46
q40 107 93 164.5t126 57.5q32 0 68 -13t103 -43q71 -31 101.5 -42.5t53.5 -11.5q39 0 71.5 26.5t63.5 87.5l72 -54q-43 -108 -98 -160t-123 -52q-28 0 -61.5 11t-113.5 45q-79 34 -106.5 45t-47.5 11q-36 0 -65.5 -25t-60.5 -93z" />
    <glyph glyph-name="logicalnot" unicode="&#xac;" horiz-adv-x="1000" 
d="M180 633h684l-47 -340h-115l37 265l32 -45h-607z" />
    <glyph glyph-name="infinity" unicode="&#x221e;" horiz-adv-x="1304" 
d="M323 190q-78 0 -145.5 32t-103.5 99t-21 171q15 105 69.5 171.5t131 98.5t154.5 32q60 0 119.5 -20.5t107 -70.5t68.5 -138h-31q46 88 107.5 138t127.5 70.5t125 20.5q79 0 145.5 -32t103 -98.5t21.5 -171.5q-15 -104 -70 -171t-131 -99t-155 -32q-59 0 -119 20.5
t-106.5 70.5t-68.5 138h31q-46 -88 -107.5 -138t-127 -70.5t-125.5 -20.5zM359 292q87 0 166.5 55.5t140.5 172.5l-8 -55q-28 117 -92 172.5t-151 55.5q-54 0 -105 -21.5t-87 -66t-46 -113.5t14 -113t69 -65.5t99 -21.5zM939 292q54 0 105 21.5t87.5 65.5t46.5 113
t-14.5 113.5t-69.5 66t-99 21.5q-86 0 -165.5 -55.5t-141.5 -172.5l8 55q29 -117 93 -172.5t150 -55.5z" />
    <glyph glyph-name="emptyset" unicode="&#x2205;" 
d="M154 89l-58 65l973 874l57 -66zM569 170q-107 0 -190 52.5t-125.5 141t-30.5 195.5q12 108 74.5 196t156.5 140.5t202 52.5q107 0 189 -52.5t124.5 -140.5t30.5 -196q-12 -107 -74 -195.5t-156 -141t-201 -52.5zM579 272q79 0 148 39t115.5 104t55.5 144t-22.5 143.5
t-91.5 103.5t-139 39t-148.5 -39t-116 -103.5t-55.5 -143.5t22.5 -144t92 -104t139.5 -39z" />
    <glyph glyph-name="integral" unicode="&#x222b;" 
d="M177 -403l38 124q29 -12 58 -18t56 -6q32 0 65 12t57 45.5t28 95.5l87 1254q7 95 47.5 155.5t104.5 89.5t140 29q40 0 82 -6t83 -18l-38 -124q-29 12 -58 18t-56 6q-32 0 -65 -12t-56.5 -45t-28.5 -95l-87 -1254q-6 -95 -47 -155.5t-105 -89.5t-140 -29q-40 0 -82 6
t-83 17z" />
    <glyph glyph-name="product" unicode="&#x220f;" 
d="M28 -470l240 1726h910l-241 -1726h-154l230 1645l41 -51h-698l55 51l-230 -1645h-153z" />
    <glyph glyph-name="summation" unicode="&#x2211;" 
d="M556 392l-352 732l18 132h910l-18 -132h-857l82 51l385 -783h-168zM556 392h168l-604 -782l-67 51h857l-18 -132h-910l18 132z" />
    <glyph glyph-name="radical" unicode="&#x221a;" 
d="M444 1l-140 457l49 -55l-293 -59l-26 93l401 106l128 -428h-61l658 1567h139l-725 -1681h-130z" />
    <glyph glyph-name="uni00B5" unicode="&#xb5;" horiz-adv-x="1091" 
d="M116 -404l130 1362h143l-56 -596q-12 -120 34.5 -181t145.5 -61q80 0 144 48t105 132t51 192l44 466h142l-90 -958h-142l18 190q-52 -100 -131 -154t-175 -54q-110 0 -181 49l-42 -435h-140z" />
    <glyph glyph-name="partialdiff" unicode="&#x2202;" horiz-adv-x="1013" 
d="M474 -22q-88 0 -164.5 40.5t-123.5 124t-47 211.5q0 118 40 212.5t105.5 161.5t145.5 102.5t159 35.5q47 0 97 -15.5t93 -54.5t70 -108t27 -176l-11 1q24 240 -13.5 425.5t-125.5 333t-216 273.5l125 68q131 -135 208 -275.5t110 -288t33 -303.5q0 -205 -46 -351
t-121.5 -238.5t-165.5 -135.5t-179 -43zM490 99q91 0 157 57.5t101.5 147t35.5 185.5q0 128 -57.5 191t-143.5 63q-85 0 -151.5 -54.5t-105.5 -142.5t-39 -191q0 -113 52 -184.5t151 -71.5z" />
    <glyph glyph-name="perthousand" unicode="&#x2030;" horiz-adv-x="1864" 
d="M202 0l878 1258h148l-880 -1258h-146zM964 -22q-90 0 -151.5 72.5t-48.5 213.5q14 143 90 215.5t166 72.5q92 0 155 -72.5t49 -215.5q-13 -141 -90 -213.5t-170 -72.5zM976 86q51 0 88 42.5t44 135.5q11 93 -18 137.5t-80 44.5q-52 0 -88.5 -44.5t-47.5 -137.5
q-7 -93 21.5 -135.5t80.5 -42.5zM406 706q-61 0 -110 32.5t-75 96t-17 157.5t47 158t93 97t116 33q92 0 155 -73.5t49 -214.5q-13 -141 -89.5 -213.5t-168.5 -72.5zM416 814q50 0 86.5 42.5t45.5 135.5t-19.5 137.5t-78.5 44.5q-54 0 -90.5 -44.5t-45.5 -137.5t19.5 -135.5
t82.5 -42.5zM1531 -22q-60 0 -109 32.5t-75 96t-17 157.5q14 143 90 215.5t166 72.5q62 0 111.5 -32.5t76 -96.5t16.5 -159q-13 -141 -89.5 -213.5t-169.5 -72.5zM1542 86q52 0 87.5 43t45.5 135q11 93 -18.5 137.5t-79.5 44.5q-53 0 -91 -44t-45 -138q-7 -93 21 -135.5
t80 -42.5z" />
    <glyph glyph-name="plus.tf" 
d="M484 0l38 424h-370l12 134h372l38 424h144l-40 -424h370l-12 -134h-372l-38 -424h-142z" />
    <glyph glyph-name="minus.tf" 
d="M218 328l18 134h762l-18 -134h-762z" />
    <glyph glyph-name="multiply.tf" 
d="M284 126l-102 100l363 301l-6 -64l-294 294l110 92l294 -294h-69l360 301l102 -102l-363 -299l6 64l294 -294l-110 -92l-294 294h70z" />
    <glyph glyph-name="divide.tf" 
d="M286 439l18 134h762l-18 -134h-762zM606 98q-46 0 -72.5 33.5t-21.5 80.5t38 79.5t79 32.5q45 0 73 -31t23 -81q-4 -48 -38 -81t-81 -33zM706 698q-46 0 -72.5 33.5t-21.5 80.5t38 79.5t79 32.5q45 0 73 -31t23 -81q-4 -48 -38 -81t-81 -33z" />
    <glyph glyph-name="equal.tf" 
d="M333 616l12 138h594l-12 -138h-594zM297 234l12 136h594l-12 -136h-594z" />
    <glyph glyph-name="notequal.tf" 
d="M397 104l300 798h149l-303 -798h-146zM284 245l12 136h613l-12 -136h-613zM320 584l12 139h613l-12 -139h-613z" />
    <glyph glyph-name="greater.tf" 
d="M385 80l-82 122l554 408l-476 414l104 120l524 -464l-12 -138z" />
    <glyph glyph-name="less.tf" 
d="M923 1144l82 -120l-558 -414l480 -408l-104 -122l-526 462l12 138z" />
    <glyph glyph-name="greaterequal.tf" 
d="M360 318l-37 118l584 180l-14 -51l-567 231l37 134l622 -278l-13 -138zM250 0l18 134h762l-18 -134h-762z" />
    <glyph glyph-name="lessequal.tf" 
d="M898 304l-614 207l-7 138l583 268l64 -116l-563 -239l-4 56l581 -193zM210 0l18 134h762l-18 -134h-762z" />
    <glyph glyph-name="plusminus.tf" 
d="M588 1054h142l-27 -304h313l-12 -134h-314l-26 -302h-142l27 302h-309l11 134h310zM194 0l18 134h762l-18 -134h-762z" />
    <glyph glyph-name="approxequal.tf" 
d="M357 499l-76 46q40 107 93.5 164.5t126.5 57.5q32 0 67.5 -13t103.5 -43q71 -31 101 -42.5t54 -11.5q38 0 70.5 26t63.5 88l72 -54q-43 -109 -98 -160.5t-123 -51.5q-28 0 -61 11t-113 45q-79 34 -107 45t-48 11q-36 0 -65.5 -25t-60.5 -93zM322 134l-76 46
q40 107 93 164.5t126 57.5q32 0 68 -13t103 -43q71 -31 101.5 -42.5t53.5 -11.5q39 0 71.5 26.5t63.5 87.5l72 -54q-43 -108 -98 -160t-123 -52q-28 0 -61.5 11t-113.5 45q-79 34 -106.5 45t-47.5 11q-36 0 -65.5 -25t-60.5 -93z" />
    <glyph glyph-name="asciitilde.tf" 
d="M298 446l-76 46q39 107 93.5 164.5t120.5 57.5q33 0 71.5 -12t104.5 -44q71 -31 104 -42.5t58 -11.5q73 0 128 114l72 -54q-42 -108 -99 -160t-123 -52q-27 0 -67.5 14t-106.5 42q-69 32 -101.5 44t-58.5 12q-30 0 -60.5 -26.5t-59.5 -91.5z" />
    <glyph glyph-name="asciicircum.tf" 
d="M228 490l382 682h110l252 -682h-158l-168 494l-258 -494h-160z" />
    <glyph glyph-name="percent.tf" 
d="M86 0l878 1258h148l-880 -1258h-146zM848 -22q-90 0 -151.5 72.5t-48.5 213.5q14 143 90 215.5t166 72.5q92 0 155 -72.5t49 -215.5q-13 -141 -90 -213.5t-170 -72.5zM860 86q51 0 88 42.5t44 135.5q11 93 -18 137.5t-80 44.5q-52 0 -88.5 -44.5t-47.5 -137.5
q-7 -93 21.5 -135.5t80.5 -42.5zM290 706q-61 0 -110 32.5t-75 96t-17 157.5t47 158t93 97t116 33q92 0 155 -73.5t49 -214.5q-13 -141 -89.5 -213.5t-168.5 -72.5zM300 814q50 0 86.5 42.5t45.5 135.5t-19.5 137.5t-78.5 44.5q-54 0 -90.5 -44.5t-45.5 -137.5t19.5 -135.5
t82.5 -42.5z" />
    <glyph glyph-name="lozenge" unicode="&#x25ca;" horiz-adv-x="1002" 
d="M150 628l411 628h121l291 -628l-408 -628h-122zM305 598l5 60l226 -513h-36l318 513l-5 -60l-223 512h35z" />
    <glyph glyph-name="uni0308" unicode="&#x308;" horiz-adv-x="0" 
d="M333 1210q-42 0 -64.5 29t-18.5 69q3 38 30.5 70t72.5 32q37 0 63 -26t24 -70q-3 -49 -36 -76.5t-71 -27.5zM634 1210q-40 0 -63 29t-19 69q3 38 31.5 70t71.5 32q34 0 61.5 -24.5t25.5 -71.5q-3 -53 -38 -78.5t-70 -25.5z" />
    <glyph glyph-name="uni0307" unicode="&#x307;" horiz-adv-x="0" 
d="M333 1210q-40 0 -63.5 29t-19.5 69q3 38 32.5 70t77.5 32q34 0 59 -26t21 -70q-5 -49 -35.5 -76.5t-71.5 -27.5z" />
    <glyph glyph-name="gravecomb" unicode="&#x300;" horiz-adv-x="0" 
d="M669 1086l-419 226l72 140l398 -266z" />
    <glyph glyph-name="acutecomb" unicode="&#x301;" horiz-adv-x="0" 
d="M269 1109l-33 100l448 266l47 -140z" />
    <glyph glyph-name="uni030B" unicode="&#x30b;" horiz-adv-x="0" 
d="M573 1093l-85 13l28 325l121 -21zM338 1101l-87 10l17 328l122 -17z" />
    <glyph glyph-name="uni030C.alt" horiz-adv-x="0" 
d="M305 1015l-89 52q48 24 83.5 57t50.5 77q-37 4 -60 27.5t-19 63.5q5 38 33 64.5t69 26.5q50 0 76 -40.5t21 -98.5q-6 -60 -47 -124t-118 -105z" />
    <glyph glyph-name="uni0302" unicode="&#x302;" horiz-adv-x="0" 
d="M315 1118l-81 78l351 312l295 -312l-97 -78l-213 216z" />
    <glyph glyph-name="uni030C" unicode="&#x30c;" horiz-adv-x="0" 
d="M833 1514l81 -78l-351 -312l-295 312l97 78l213 -216z" />
    <glyph glyph-name="uni0306" unicode="&#x306;" horiz-adv-x="0" 
d="M505 1152q-126 0 -192 71.5t-50 182.5h129q-10 -70 25.5 -109t102.5 -39q68 0 113.5 39t55.5 109h129q-12 -114 -98 -184t-215 -70z" />
    <glyph glyph-name="uni030A" unicode="&#x30a;" horiz-adv-x="0" 
d="M449 1091q-55 0 -100.5 27.5t-72.5 73t-27 99.5q0 55 27 100.5t72.5 72.5t100.5 27t100.5 -27t72.5 -72.5t27 -100.5q0 -54 -27 -99.5t-72.5 -73t-100.5 -27.5zM449 1203q37 0 63 25.5t26 62.5q0 38 -26 63.5t-63 25.5t-63 -25.5t-26 -63.5q0 -37 26 -62.5t63 -25.5z" />
    <glyph glyph-name="tildecomb" unicode="&#x303;" horiz-adv-x="0" 
d="M291 1180l-54 38q33 106 79.5 157t101.5 51q23 0 48 -11t77 -41q49 -29 70.5 -40.5t41.5 -11.5q29 0 55.5 23t51.5 81l58 -46q-19 -63 -47.5 -108t-61.5 -68.5t-67 -23.5q-23 0 -50.5 13t-86.5 45q-49 27 -67.5 35.5t-35.5 8.5q-28 0 -55.5 -21.5t-57.5 -80.5z" />
    <glyph glyph-name="uni0304" unicode="&#x304;" horiz-adv-x="0" 
d="M251 1297h624l-21 -129h-624z" />
    <glyph glyph-name="uni0312" unicode="&#x312;" horiz-adv-x="0" 
d="M403 1456l89 -52q-48 -24 -83.5 -57t-50.5 -77q37 -4 60.5 -27.5t18.5 -63.5q-4 -37 -32.5 -64t-69.5 -27q-50 0 -75.5 40.5t-21.5 98.5q6 60 47 124.5t118 104.5z" />
    <glyph glyph-name="uni0326" unicode="&#x326;" horiz-adv-x="0" 
d="M103 -424l-89 52q48 24 83.5 57t50.5 77q-37 4 -60 27.5t-19 63.5q5 38 33 64.5t69 26.5q50 0 76 -40.5t21 -98.5q-6 -60 -47 -124t-118 -105z" />
    <glyph glyph-name="uni0327" unicode="&#x327;" horiz-adv-x="0" 
d="M16 -356l22 66q77 -40 136.5 -45t93.5 15t34 55q1 35 -30.5 61t-79 44t-97.5 29l59 187l90 -8l-55 -175l-40 57q91 -20 154 -49t95.5 -67t32.5 -86q0 -57 -42 -91.5t-107 -45t-136 2.5t-130 50z" />
    <glyph glyph-name="uni0328" unicode="&#x328;" horiz-adv-x="0" 
d="M513 -340q-62 -35 -131 -54t-132 -19q-98 0 -157.5 45t-59.5 124t64 153t191 122l100 -39q-112 -46 -177 -97t-65 -110q0 -45 36 -66t87 -21q46 0 95.5 15.5t110.5 49.5z" />
    <glyph glyph-name="dotaccent" unicode="&#x2d9;" horiz-adv-x="366" 
d="M333 1210q-40 0 -63.5 29t-19.5 69q3 38 32.5 70t77.5 32q34 0 59 -26t21 -70q-5 -49 -35.5 -76.5t-71.5 -27.5z" />
    <glyph glyph-name="hungarumlaut" unicode="&#x2dd;" horiz-adv-x="549" 
d="M573 1093l-85 13l28 325l121 -21zM338 1101l-87 10l17 328l122 -17z" />
    <glyph glyph-name="caron" unicode="&#x2c7;" horiz-adv-x="822" 
d="M833 1514l81 -78l-351 -312l-295 312l97 78l213 -216z" />
    <glyph glyph-name="breve" unicode="&#x2d8;" horiz-adv-x="731" 
d="M505 1152q-126 0 -192 71.5t-50 182.5h129q-10 -70 25.5 -109t102.5 -39q68 0 113.5 39t55.5 109h129q-12 -114 -98 -184t-215 -70z" />
    <glyph glyph-name="ring" unicode="&#x2da;" horiz-adv-x="580" 
d="M449 1091q-55 0 -100.5 27.5t-72.5 73t-27 99.5q0 55 27 100.5t72.5 72.5t100.5 27t100.5 -27t72.5 -72.5t27 -100.5q0 -54 -27 -99.5t-72.5 -73t-100.5 -27.5zM449 1203q37 0 63 25.5t26 62.5q0 38 -26 63.5t-63 25.5t-63 -25.5t-26 -63.5q0 -37 26 -62.5t63 -25.5z" />
    <glyph glyph-name="macron" unicode="&#xaf;" horiz-adv-x="803" 
d="M251 1297h624l-21 -129h-624z" />
    <glyph glyph-name="cedilla" unicode="&#xb8;" horiz-adv-x="580" 
d="M16 -356l22 66q77 -40 136.5 -45t93.5 15t34 55q1 35 -30.5 61t-79 44t-97.5 29l59 187l90 -8l-55 -175l-40 57q91 -20 154 -49t95.5 -67t32.5 -86q0 -57 -42 -91.5t-107 -45t-136 2.5t-130 50z" />
    <glyph glyph-name="ogonek" unicode="&#x2db;" horiz-adv-x="671" 
d="M513 -340q-62 -35 -131 -54t-132 -19q-98 0 -157.5 45t-59.5 124t64 153t191 122l100 -39q-112 -46 -177 -97t-65 -110q0 -45 36 -66t87 -21q46 0 95.5 15.5t110.5 49.5z" />
    <glyph glyph-name="uni02BC" unicode="&#x2bc;" horiz-adv-x="332" 
d="M248 838l-100 58q54 27 94 64t56 86q-40 5 -65.5 31t-22.5 71q5 42 36.5 72t77.5 30q56 0 86 -45t22 -111q-4 -46 -26.5 -94t-62 -90.5t-95.5 -71.5z" />
    </font>
</defs>
</svg>
