<?xml version="1.0" standalone="no"?>
<!DOCTYPE svg PUBLIC "-//W3C//DTD SVG 1.1//EN" "http://www.w3.org/Graphics/SVG/1.1/DTD/svg11.dtd" >
<svg xmlns="http://www.w3.org/2000/svg" xmlns:xlink="http://www.w3.org/1999/xlink" version="1.1">
<metadata>
Created by FontForge 20230101 at Fri Oct  2 12:30:31 2020
 By Glenn Lewis
Copyright 2011 The Alegreya Project Authors (https://github.com/huertatipografica/Alegreya)
</metadata>
<defs>
<font id="Alegreya-Black" horiz-adv-x="0" >
  <font-face 
    font-family="Alegreya Black"
    font-weight="900"
    font-stretch="normal"
    units-per-em="1000"
    panose-1="0 0 0 0 0 0 0 0 0 0"
    ascent="800"
    descent="-200"
    x-height="477"
    cap-height="652"
    bbox="-199 -345 1409 1108"
    underline-thickness="75"
    underline-position="-239"
    unicode-range="U+000D-FB02"
  />
<missing-glyph horiz-adv-x="641" 
d="M641 -109l-658 658l16 16l658 -658zM-1 -109l-16 16l658 658l16 -16z" />
    <glyph glyph-name="uni1EBC" unicode="&#x7e;E" horiz-adv-x="603" 
d="M13 -10l9 92q38 6 51.5 24.5t13.5 63.5l1 335q0 33 -5 43.5t-22 10.5q-5 0 -13 -0.5t-13 -1.5l-12 14l9 79q31 0 72.5 -1t84.5 -1.5t76 -0.5q63 0 123 1.5t109 4.5t77 6l13 -16q-5 -27 -9.5 -62t-8 -71t-5.5 -66l-138 -9q1 8 1.5 19t0.5 18q0 17 -4 27.5t-14.5 16.5
t-30 8.5t-49.5 2.5q-14 0 -21.5 -2t-10 -8t-2.5 -17l-11 -198l-1 -127q0 -26 3.5 -39t13.5 -17t31 -4q32 0 53 4t33 15t19 32t11 55l128 9l12 -15q-8 -43 -15.5 -100.5t-12.5 -105.5l-15 -16q-48 2 -105.5 3.5t-114 2.5t-101.5 1q-43 0 -101.5 -2.5t-109.5 -7.5zM275 259
l6 128h22.5t34 -0.5t34.5 -0.5t50 2t60 4l12 -14l-14 -115q-24 1 -59 2t-61 1t-49.5 -3t-35.5 -4zM191 675l-59 54v16l81 115l17 4q13 0 34.5 -5t44.5 -12t43.5 -12t31.5 -5q9 0 20.5 9t22 20t17.5 20l7 9h16l59 -54v-16l-81 -115l-17 -4q-13 0 -34.5 5t-44.5 12t-43.5 12
t-31.5 5q-9 0 -20.5 -9t-22 -20t-17.5 -20l-7 -9h-16z" />
    <glyph glyph-name="Idieresis" unicode="&#xa8;I" horiz-adv-x="370" 
d="M15 -5l8 85q41 9 53 25t12 57v346q0 31 -7 41t-28 10q-6 0 -13.5 -0.5t-12.5 -0.5l-9 14l8 75h81h80q17 0 61 1.5t111 3.5l-7 -90q-34 -5 -44.5 -14.5t-12.5 -37.5q-2 -39 -4 -82.5t-3.5 -89t-2 -91.5t-0.5 -91q0 -42 6.5 -55.5t25.5 -13.5q8 0 16.5 1t15.5 2l8 -10
l-9 -84q-27 1 -60.5 2t-62.5 1.5t-44 0.5q-25 0 -70.5 -1.5t-95.5 -3.5zM278 685q-39 0 -59.5 20.5t-20.5 59.5q0 40 23 63.5t63 23.5q38 0 58.5 -21t20.5 -59q0 -40 -23 -63.5t-62 -23.5zM85 685q-38 0 -58.5 20.5t-20.5 59.5q0 40 23 63.5t63 23.5q38 0 58.5 -21t20.5 -59
q0 -40 -23 -63.5t-63 -23.5z" />
    <glyph glyph-name="Itilde" unicode="&#x7e;I" horiz-adv-x="370" 
d="M15 -5l8 85q41 9 53 25t12 57v346q0 31 -7 41t-28 10q-6 0 -13.5 -0.5t-12.5 -0.5l-9 14l8 75h81h80q17 0 61 1.5t111 3.5l-7 -90q-34 -5 -44.5 -14.5t-12.5 -37.5q-2 -39 -4 -82.5t-3.5 -89t-2 -91.5t-0.5 -91q0 -42 6.5 -55.5t25.5 -13.5q8 0 16.5 1t15.5 2l8 -10
l-9 -84q-27 1 -60.5 2t-62.5 1.5t-44 0.5q-25 0 -70.5 -1.5t-95.5 -3.5zM46 700l-59 54v16l81 115l17 4q13 0 34.5 -5t44.5 -12t43.5 -12t31.5 -5q9 0 20.5 9t22 20t17.5 20l7 9h16l59 -54v-16l-81 -115l-17 -4q-13 0 -34.5 5t-44.5 12t-43.5 12t-31.5 5q-9 0 -20.5 -9
t-22 -20t-17.5 -20l-7 -9h-16z" />
    <glyph glyph-name="Odieresis" unicode="&#xa8;O" horiz-adv-x="655" 
d="M313 -12q-96 0 -162.5 37.5t-101 110t-34.5 176.5q0 84 21 148.5t63 109t103 67t140 22.5q99 0 165.5 -36t99.5 -106.5t33 -176.5q0 -84 -21.5 -149.5t-63.5 -110.5t-103 -68.5t-139 -23.5zM332 114q29 0 46 16t25 52t8 95q0 91 -8.5 144.5t-28 77t-53.5 23.5
q-28 0 -45 -16t-24.5 -51t-7.5 -94q0 -91 8.5 -145t28 -78t51.5 -24zM418 685q-39 0 -59.5 20.5t-20.5 59.5q0 40 23 63.5t63 23.5q38 0 58.5 -21t20.5 -59q0 -40 -23 -63.5t-62 -23.5zM225 685q-38 0 -58.5 20.5t-20.5 59.5q0 40 23 63.5t63 23.5q38 0 58.5 -21t20.5 -59
q0 -40 -23 -63.5t-63 -23.5z" />
    <glyph glyph-name="Utilde" unicode="&#x7e;U" horiz-adv-x="627" 
d="M305 -12q-128 0 -187 50.5t-59 160.5v306q0 33 -5.5 43.5t-22.5 10.5q-7 0 -18 -1l-11 -1l-2 4l10 89l28 -1t69 -1.5t80 -0.5q15 0 37 0.5t44.5 1.5t37.5 1.5l15 0.5l-10 -93q-26 -2 -36.5 -14t-11.5 -35l-6 -289q0 -48 20 -76.5t57 -28.5q38 0 55 21t17 67v55v78
t-0.5 80.5t-0.5 63.5v25q0 31 -5.5 42.5t-20.5 11.5q-7 0 -15 -1l-8 -1l-3 4l11 89l13 -0.5t33 -1l40 -1t34 -0.5q31 0 64 0.5t56.5 1.5l23.5 1l-8 -90q-31 -10 -39.5 -18t-8.5 -26v-282q0 -121 -67.5 -183.5t-199.5 -62.5zM193 700l-59 54v16l81 115l17 4q13 0 34.5 -5
t44.5 -12t43.5 -12t31.5 -5q9 0 20.5 9t22 20t17.5 20l7 9h16l59 -54v-16l-81 -115l-17 -4q-13 0 -34.5 5t-44.5 12t-43.5 12t-31.5 5q-9 0 -20.5 -9t-22 -20t-17.5 -20l-7 -9h-16z" />
    <glyph glyph-name="Yacute" unicode="&#xb4;Y" horiz-adv-x="663" 
d="M127 -9l8 92q43 3 65 10t30 23.5t8 45.5v16q0 22 -6 41.5t-22 48.5l-107 199q-10 19 -24.5 34.5t-33 28t-41.5 21.5l-4 6l10 91l18.5 -0.5t44.5 -0.5t50.5 -0.5t36.5 -0.5q17 0 47 1t60.5 2.5t51.5 2.5l21 1l7 -11l-9 -82q-21 0 -31 -6t-10 -19q0 -5 4 -16.5t10 -28
t13.5 -34.5l15 -36t13.5 -33h14l41 114q13 29 13 44q0 9 -8.5 12.5t-29.5 3.5l-3 6l8 79h53h52.5h52.5t52 1t43.5 2l17.5 1l4 -8l-8 -87q-21 -12 -41 -31t-38 -43t-32 -52l-91 -182q-7 -17 -10.5 -32t-4 -29.5t-0.5 -31.5q0 -35 11 -49t39 -14q19 0 35 1.5l16 1.5l5 -6
l-9 -94l-23.5 1t-58 2l-69 2t-56.5 1q-24 0 -58 -1.5t-66.5 -3t-54.5 -3zM292 691l-19 13l-21 71q46 17 90.5 34.5t80 32.5t57 24l21.5 9l16 -5l36 -108l-7 -16l-22 -4t-58.5 -11.5t-81.5 -17.5t-92 -22z" />
    <glyph glyph-name="uni1EF8" unicode="&#x7e;Y" horiz-adv-x="663" 
d="M127 -9l8 92q43 3 65 10t30 23.5t8 45.5v16q0 22 -6 41.5t-22 48.5l-107 199q-10 19 -24.5 34.5t-33 28t-41.5 21.5l-4 6l10 91l18.5 -0.5t44.5 -0.5t50.5 -0.5t36.5 -0.5q17 0 47 1t60.5 2.5t51.5 2.5l21 1l7 -11l-9 -82q-21 0 -31 -6t-10 -19q0 -5 4 -16.5t10 -28
t13.5 -34.5l15 -36t13.5 -33h14l41 114q13 29 13 44q0 9 -8.5 12.5t-29.5 3.5l-3 6l8 79h53h52.5h52.5t52 1t43.5 2l17.5 1l4 -8l-8 -87q-21 -12 -41 -31t-38 -43t-32 -52l-91 -182q-7 -17 -10.5 -32t-4 -29.5t-0.5 -31.5q0 -35 11 -49t39 -14q19 0 35 1.5l16 1.5l5 -6
l-9 -94l-23.5 1t-58 2l-69 2t-56.5 1q-24 0 -58 -1.5t-66.5 -3t-54.5 -3zM246 675l-59 54v16l81 115l17 4q13 0 34.5 -5t44.5 -12t43.5 -12t31.5 -5q9 0 20.5 9t22 20t17.5 20l7 9h16l59 -54v-16l-81 -115l-17 -4q-13 0 -34.5 5t-44.5 12t-43.5 12t-31.5 5q-9 0 -20.5 -9
t-22 -20t-17.5 -20l-7 -9h-16z" />
    <glyph glyph-name="uni1EBD" unicode="&#x7e;e" horiz-adv-x="479" 
d="M259 -12q-78 0 -133 28t-83.5 82.5t-28.5 131.5q0 58 18 104.5t51.5 80t80.5 51.5t105 18q190 0 190 -200q0 -18 -3 -36.5t-5 -29.5l-11 -10h-237q4 -46 31.5 -69t75 -21t110.5 30l9 -5l22 -74q-22 -17 -55 -36t-69 -32t-68 -13zM198 284l83 6q8 1 10 4.5t2 13.5
q0 33 -10 49t-30 16q-30 0 -42.5 -20.5t-12.5 -68.5zM116 525l-59 54v16l81 115l17 4q13 0 34.5 -5t44.5 -12t43.5 -12t31.5 -5q9 0 20.5 9t22 20t17.5 20l7 9h16l59 -54v-16l-81 -115l-17 -4q-13 0 -34.5 5t-44.5 12t-43.5 12t-31.5 5q-9 0 -20.5 -9t-22 -20t-17.5 -20
l-7 -9h-16z" />
    <glyph glyph-name="idieresis" unicode="&#xa8;i" horiz-adv-x="305" 
d="M7 -10l12 89q29 2 43 16.5t14 42.5v171q0 35 -9.5 46.5t-38.5 11.5q-4 0 -13 -1.5l-9 -1.5l8 83q45 5 88.5 11.5t79 12.5t56.5 9.5l21 3.5l13 -22q-6 -11 -10.5 -38.5t-7.5 -71t-4.5 -103.5t-1.5 -135q0 -17 5.5 -23.5t19.5 -6.5q7 0 15 1l8 1l3 -5l-12 -85l-14.5 0.5
t-36 1.5t-44.5 1.5t-40 0.5q-29 0 -63 -2.5t-58 -5zM234 536q-36 0 -55 19t-19 54q0 37 21.5 58.5t57.5 21.5q35 0 53.5 -19t18.5 -54q0 -37 -21 -58.5t-56 -21.5zM71 536q-35 0 -53.5 19t-18.5 54q0 37 21 58.5t57 21.5q35 0 54 -19t19 -54q0 -37 -21.5 -58.5t-57.5 -21.5z
" />
    <glyph glyph-name="itilde" unicode="&#x7e;i" horiz-adv-x="305" 
d="M7 -10l12 89q29 2 43 16.5t14 42.5v171q0 35 -9.5 46.5t-38.5 11.5q-4 0 -13 -1.5l-9 -1.5l8 83q45 5 88.5 11.5t79 12.5t56.5 9.5l21 3.5l13 -22q-6 -11 -10.5 -38.5t-7.5 -71t-4.5 -103.5t-1.5 -135q0 -17 5.5 -23.5t19.5 -6.5q7 0 15 1l8 1l3 -5l-12 -85l-14.5 0.5
t-36 1.5t-44.5 1.5t-40 0.5q-29 0 -63 -2.5t-58 -5zM20 525l-59 54v16l81 115l17 4q13 0 34.5 -5t44.5 -12t43.5 -12t31.5 -5q9 0 20.5 9t22 20t17.5 20l7 9h16l59 -54v-16l-81 -115l-17 -4q-13 0 -34.5 5t-44.5 12t-43.5 12t-31.5 5q-9 0 -20.5 -9t-22 -20t-17.5 -20l-7 -9
h-16z" />
    <glyph glyph-name="odieresis" unicode="&#xa8;o" horiz-adv-x="509" 
d="M258 -12q-71 0 -122.5 28.5t-79.5 82t-28 126.5q0 82 30 139.5t86.5 88.5t135.5 31q74 0 125 -27.5t77.5 -80t26.5 -128.5q0 -81 -30 -139.5t-86 -89.5t-135 -31zM270 95q26 0 36 20.5t10 75.5q0 67 -4.5 104.5t-16 53t-31.5 15.5q-26 0 -36 -20t-10 -73
q0 -68 4.5 -106.5t16 -54t31.5 -15.5zM359 559q-39 0 -59.5 20.5t-20.5 59.5q0 40 23 63.5t63 23.5q38 0 58.5 -21t20.5 -59q0 -40 -23 -63.5t-62 -23.5zM166 559q-38 0 -58.5 20.5t-20.5 59.5q0 40 23 63.5t63 23.5q38 0 58.5 -21t20.5 -59q0 -40 -23 -63.5t-63 -23.5z" />
    <glyph glyph-name="utilde" unicode="&#x7e;u" horiz-adv-x="553" 
d="M56 325q0 24 -6 33t-23 9q-10 0 -18 -0.5l-8 -0.5l8 83q41 5 81 11t73 11.5t53 9l20 3.5l13 -22q-6 -12 -11 -37.5t-9 -62t-6 -79t-2 -87.5q0 -62 43 -62q8 0 20.5 4.5t25.5 11.5v173q0 28 -6 35t-30 8h-4.5h-4.5l13 82q39 5 78 10.5t72 10.5t53 8l20 3l14 -22
q-9 -15 -16.5 -58.5t-12 -105t-4.5 -131.5q0 -16 8 -25.5t21 -9.5q8 0 15.5 2t12.5 4l5 2l17 -26l-10 -15t-27.5 -37t-39.5 -41.5t-46 -28.5q-104 0 -117 73l-11 6q-28 -35 -49.5 -56t-31.5 -21q-89 0 -135.5 34.5t-46.5 101.5zM132 525l-59 54v16l81 115l17 4q13 0 34.5 -5
t44.5 -12t43.5 -12t31.5 -5q9 0 20.5 9t22 20t17.5 20l7 9h16l59 -54v-16l-81 -115l-17 -4q-13 0 -34.5 5t-44.5 12t-43.5 12t-31.5 5q-9 0 -20.5 -9t-22 -20t-17.5 -20l-7 -9h-16z" />
    <glyph glyph-name="yacute" unicode="&#xb4;y" horiz-adv-x="486" 
d="M72 -242q-11 0 -29.5 12.5t-37 30.5t-31.5 36t-13 29l10 19q72 11 124.5 35.5t84.5 61.5q-12 30 -27.5 70.5t-32.5 84.5t-33.5 85.5t-30 74t-22.5 48.5q-11 21 -22.5 29t-28.5 9l-2 5l8 84h24h24h24q29 0 61.5 1t61.5 2t47 2t18 2l2 -5l-11 -88q-22 -2 -29.5 -7t-7.5 -16
q0 -7 3.5 -23.5t8.5 -37.5t11 -43t11 -41t8.5 -30.5l3.5 -11.5h18q13 36 24.5 68.5t20 58t13 42.5t4.5 23q0 10 -3.5 12.5t-17.5 2.5h-16l-4 7l11 84l19 -0.5t45 -1t47 -0.5h34h33.5h33.5l-9 -88q-21 -6 -29 -12.5t-16 -26.5l-127 -314q-25 -63 -56 -113.5t-65 -86
t-68.5 -54.5t-68.5 -19zM236 521l-22 6l-44 59q33 32 65 63.5t57.5 57l40.5 40.5l15 15l17 1l77 -97l-1 -17l-30.5 -18t-77.5 -47t-97 -63z" />
    <glyph glyph-name="uni1EF9" unicode="&#x7e;y" horiz-adv-x="486" 
d="M72 -242q-11 0 -29.5 12.5t-37 30.5t-31.5 36t-13 29l10 19q72 11 124.5 35.5t84.5 61.5q-12 30 -27.5 70.5t-32.5 84.5t-33.5 85.5t-30 74t-22.5 48.5q-11 21 -22.5 29t-28.5 9l-2 5l8 84h24h24h24q29 0 61.5 1t61.5 2t47 2t18 2l2 -5l-11 -88q-22 -2 -29.5 -7t-7.5 -16
q0 -7 3.5 -23.5t8.5 -37.5t11 -43t11 -41t8.5 -30.5l3.5 -11.5h18q13 36 24.5 68.5t20 58t13 42.5t4.5 23q0 10 -3.5 12.5t-17.5 2.5h-16l-4 7l11 84l19 -0.5t45 -1t47 -0.5h34h33.5h33.5l-9 -88q-21 -6 -29 -12.5t-16 -26.5l-127 -314q-25 -63 -56 -113.5t-65 -86
t-68.5 -54.5t-68.5 -19zM128 525l-59 54v16l81 115l17 4q13 0 34.5 -5t44.5 -12t43.5 -12t31.5 -5q9 0 20.5 9t22 20t17.5 20l7 9h16l59 -54v-16l-81 -115l-17 -4q-13 0 -34.5 5t-44.5 12t-43.5 12t-31.5 5q-9 0 -20.5 -9t-22 -20t-17.5 -20l-7 -9h-16z" />
    <glyph glyph-name="f_j" unicode="fj" horiz-adv-x="659" 
d="M404 -248l-47 43l2 15q29 28 44.5 56.5t22 68t6.5 98.5v276q0 23 -4 35.5t-14.5 17.5t-29.5 5h-133q0 -59 -0.5 -119t-0.5 -119q0 -19 7.5 -28t23.5 -9q19 0 40.5 1l21.5 1l5 -5l-12 -94l-19 1t-46.5 1.5t-55.5 1.5t-46 1q-21 0 -47.5 -1t-51 -3t-40.5 -3l-16 -1l9 87
q30 3 42 15t12 40v192q-1 23 -14.5 30.5t-52.5 9.5l-4 6l8 70l63 9q0 89 34.5 154t100.5 101t160 36q20 0 37 -2t32 -4q20 -3 34 -7t21.5 -7l7.5 -3l7 -23l-6 -17.5t-16 -46t-22 -61.5l-14 -4l-7.5 7.5t-21.5 17t-33 17t-42 7.5q-45 0 -65.5 -13.5t-26 -48.5t-5.5 -102
q58 0 100.5 1t80 4.5t80.5 10t102 16.5l13 -22q-5 -12 -9 -37t-7 -64t-5 -93.5t-3 -124.5t-1 -157q0 -69 -54 -132.5t-145 -101.5z" />
    <glyph glyph-name="fi" unicode="fi" horiz-adv-x="661" 
d="M367 -10l12 89q19 2 30.5 8.5t17 19.5t5.5 31v171q0 35 -9.5 46.5t-38.5 11.5h-133q0 -59 -0.5 -119t-0.5 -119q0 -37 31 -37q19 0 40.5 1l21.5 1l5 -5l-12 -94l-19 1t-46.5 1.5t-55.5 1.5t-46 1q-20 0 -46.5 -1t-51.5 -3t-41 -3l-16 -1l9 87q30 3 42 15t12 40v192
q-2 23 -14 30.5t-53 9.5l-4 6l8 70l63 9q0 89 34 154t99.5 101t161.5 36q33 0 67.5 -5.5t64.5 -17.5l7 -23l-6 -17.5t-16 -46t-22 -61.5l-14 -4l-7.5 7.5t-21.5 17t-33 17t-42 7.5q-39 0 -60 -10t-29 -36.5t-8 -76.5v-41q59 0 101.5 1t80 4.5t80 10t101.5 16.5l13 -22
q-6 -11 -10.5 -38.5t-7.5 -71t-4.5 -103.5t-1.5 -135q0 -17 5.5 -23.5t19.5 -6.5q7 0 15 1l8 1l3 -5l-12 -85l-14.5 0.5t-36 1.5t-44.5 1.5t-40 0.5q-28 0 -61 -2.5t-56.5 -5z" />
    <glyph glyph-name="fl" unicode="fl" horiz-adv-x="642" 
d="M250 129q0 -37 31 -37q19 0 40.5 1l21.5 1l5 -5l-12 -94l-19 1t-46.5 1.5t-55.5 1.5t-46 1q-21 0 -47.5 -1t-51 -3t-40.5 -3l-16 -1l9 87q30 3 42 15t12 40v192q-2 23 -14 30.5t-53 9.5l-4 6l8 70l63 9v14q0 85 34 147t96 96t145 34q28 0 58.5 -5.5t52.5 -14.5
q40 5 73 9.5t53 7.5l20 3l9 -26q-7 -7 -12.5 -35.5t-9.5 -79t-7 -121.5t-4.5 -163t-1.5 -203q0 -18 5 -25t18 -7q5 0 18.5 0.5l13.5 0.5l3 -7l-13 -80l-16 0.5t-39.5 1.5t-47.5 1.5t-41 0.5q-29 0 -58 -1t-48.5 -2.5l-19.5 -1.5l11 86q25 3 33.5 14t8.5 38v432l-1 23
q-20 14 -40.5 21t-40.5 7q-31 0 -47.5 -10t-23 -36.5t-6.5 -76.5v-42q36 0 62 1t40.5 1.5l14.5 0.5l5 -7l-11 -85l-13 0.5t-38 1.5t-61 1z" />
    <glyph glyph-name="T_h.liga" unicode="Th" horiz-adv-x="1070" 
d="M90 -9l8 92q41 4 62 11.5t29 25t8 48.5v358q-20 0 -32.5 -5t-20.5 -19.5t-12.5 -41t-7.5 -70.5l-124 -8q2 34 3.5 79t3 93t1.5 90l13 14l119 -11h348l92 8l30 -185q-24 18 -43.5 29t-41.5 17t-51.5 8t-73.5 2q-1 -42 -2 -88.5t-1.5 -96t-1 -100t-0.5 -100.5
q0 -25 10.5 -37.5t32.5 -12.5q15 0 42 3l4 -6l-7 -94q-29 2 -65 3t-68.5 2t-52.5 1q-19 0 -51.5 -1t-71.5 -3t-78 -5zM519 -5l11 86q25 3 33.5 14t8.5 38v413l-19 149l10 18q38 5 77.5 10.5t73.5 10.5t56 8l9 -26q-8 -8 -14.5 -47.5t-11 -109.5t-7.5 -170q15 16 31.5 32.5
t32.5 30.5t29 23t21 9q81 0 123.5 -33t42.5 -97q0 -16 -3.5 -48.5t-7.5 -70t-7.5 -69t-3.5 -46.5q0 -21 6 -29t21 -8q5 0 13 0.5t12 0.5l2 -4l-11 -84q-19 1 -44 2t-48 1.5t-38 0.5q-13 0 -34.5 -0.5t-45 -1t-42.5 -1.5l8 87q18 2 26.5 12.5t8.5 33.5l2 141q1 38 -8.5 53
t-34.5 15q-13 0 -27 -9t-25 -17q-1 -45 -1 -94v-103q0 -18 5 -25t18 -7q3 0 7.5 0.5t6.5 0.5l3 -7l-11 -82q-27 2 -65 3t-63 1q-31 0 -67.5 -1.5t-58.5 -3.5z" />
    <glyph glyph-name="gamma_gamma" unicode="&#x3b3;&#x3b3;" horiz-adv-x="846" 
d="M584 -239l-29 4l-59 39q-3 32 -1.5 59.5t8.5 55.5t19.5 61.5t32.5 76.5q-4 44 -10 83.5t-13 63.5q-12 42 -22.5 62.5t-29.5 27.5t-56 6q-34 -62 -75 -140.5t-96 -183.5l-45 255l38 -4q14 44 32 94t44 120l48 39l72 -3q54 0 96.5 -65t70.5 -190q15 -66 25.5 -146.5
t16.5 -159t4 -140.5zM206 -239l-29 4l-59 39q-3 39 0 72t14.5 69t32.5 84t54 117l-40 -118q-2 35 -6 68.5t-8.5 61.5t-10.5 46q-10 35 -19 55.5t-22.5 29t-37.5 10t-63 -0.5l-19 20q7 45 25 84.5t46 74.5q54 0 96.5 -65t70.5 -190q15 -66 25.5 -146.5t16.5 -159t4 -140.5z
M631 -24l-45 255l38 -4q15 51 34.5 110t47.5 141l16 2q37 -13 69 -34t66 -50q-29 -50 -61.5 -109.5t-72.5 -135t-92 -175.5z" />
    <glyph glyph-name="lambda_lambda" unicode="&#x3bb;&#x3bb;" horiz-adv-x="881" 
d="M593 475l95 -231h-53q-24 -58 -47.5 -111t-48.5 -103l-48 -38h-79q-35 0 -59 10t-39 33t-26 62l-112 413q-6 23 -23.5 33.5t-47 8.5t-71.5 -16l-19 21q6 104 65 180q74 0 120 -45t70 -140l80 -318q11 -41 28 -57.5t60 -19.5q40 79 78.5 158.5t76.5 159.5zM106 -11
l-116 58l-2 14q53 101 104 205t101 209l95 -231h-53q-28 -69 -56.5 -131.5t-57.5 -121.5zM812 -8q-53 0 -80.5 23.5t-43.5 81.5l-112 413q-6 23 -23.5 33.5t-47 8.5t-71.5 -16l-19 21q6 104 65 180q74 0 120 -45t70 -140l80 -318q9 -33 21.5 -50t37 -22.5t68.5 -4.5l15 -20
q-11 -40 -32 -78t-48 -67z" />
    <glyph glyph-name="Gtilde" unicode="&#x7e;G" horiz-adv-x="639" 
d="M320 -11q-96 0 -164.5 38t-104.5 110.5t-36 173.5q0 114 41.5 191.5t122 117t197.5 39.5q35 0 71 -4t66 -9t48 -9l18 -4l11 -20l-6 -26t-12.5 -71.5t-9.5 -104.5l-154 -9l1 15.5t1 39.5q0 37 -12 50.5t-47 13.5q-41 0 -64.5 -16t-33.5 -54t-10 -104q0 -76 11 -124
t34 -70.5t59 -22.5q18 0 29.5 3t17 6l5.5 3v63q0 24 -6.5 32.5t-25.5 8.5h-15.5t-12.5 -0.5l-5 -0.5l-9 14l12 95h51.5h51h50.5q29 0 56 1t45 2.5l18 1.5l10 -58q-23 -13 -34 -29t-14.5 -49t-3.5 -99q0 -31 1.5 -50.5t5.5 -35.5l-12 -16l-26.5 -8.5t-80.5 -16.5t-135 -8z
M208 675l-59 54v16l81 115l17 4q13 0 34.5 -5t44.5 -12t43.5 -12t31.5 -5q9 0 20.5 9t22 20t17.5 20l7 9h16l59 -54v-16l-81 -115l-17 -4q-13 0 -34.5 5t-44.5 12t-43.5 12t-31.5 5q-9 0 -20.5 -9t-22 -20t-17.5 -20l-7 -9h-16z" />
    <glyph glyph-name="gtilde" unicode="&#x7e;g" horiz-adv-x="522" 
d="M231 -242q-60 0 -106.5 19t-73 53t-26.5 78q11 8 39.5 23.5t61.5 30.5v7q-42 8 -66.5 36t-29.5 71q18 20 38 37.5t42 33.5v26l89 -22q-13 -13 -19 -22t-6 -16q0 -16 25 -22.5t64 -10t83 -8t83 -16.5t64 -35.5t25 -64.5q0 -39 -23.5 -74.5t-64 -63.5t-92 -44t-107.5 -16z
M274 -138q25 0 41.5 5t25 15t8.5 24q0 12 -9 18.5t-38 12t-90 13.5q-4 -10 -7 -21t-3 -21q0 -23 17.5 -34.5t54.5 -11.5zM261 217q25 0 36 19.5t11 61.5q0 45 -12 65.5t-38 20.5q-24 0 -34.5 -19t-10.5 -62q0 -44 11.5 -65t36.5 -21zM250 124q-67 0 -116 21t-75 60t-26 93
q0 57 28.5 99.5t80.5 65.5t122 23q37 0 59.5 -4.5t49.5 -4.5q21 2 61 12.5t83 25.5l8 -6l-14 -101q-15 -1 -30.5 -2t-29.5 -1l-4 -6q39 -40 39 -97q0 -53 -29.5 -93t-82.5 -62.5t-124 -22.5zM139 525l-59 54v16l81 115l17 4q13 0 34.5 -5t44.5 -12t43.5 -12t31.5 -5
q9 0 20.5 9t22 20t17.5 20l7 9h16l59 -54v-16l-81 -115l-17 -4q-13 0 -34.5 5t-44.5 12t-43.5 12t-31.5 5q-9 0 -20.5 -9t-22 -20t-17.5 -20l-7 -9h-16z" />
    <glyph glyph-name=".notdef" horiz-adv-x="641" 
d="M641 -109l-658 658l16 16l658 -658zM-1 -109l-16 16l658 658l16 -16z" />
    <glyph glyph-name="A" unicode="A" horiz-adv-x="676" 
d="M341 -6l-8 9l6 84q31 4 44 6.5t16.5 8.5t3.5 19q0 3 -0.5 7.5t-1.5 10.5l-6 39q-20 1 -41.5 1.5t-35.5 0.5q-17 0 -38.5 -1.5t-41.5 -3.5l-10 -44q-3 -16 -3 -22q0 -13 5.5 -16.5t25.5 -3.5h26l8 -10l-8 -83l-26 1t-61.5 1.5t-66.5 0.5h-61.5t-51 -0.5l-20.5 -0.5l7 87
q18 5 31 18.5t20 36.5l159 502l263 16l15 -12l7 -28.5t19 -75t26 -102.5t28 -111.5t26 -102t19 -73.5q9 -34 22.5 -49.5t36.5 -17.5l7 -10l-8 -79l-24 0.5t-56.5 1t-60.5 0.5q-47 0 -91 -1t-72 -2.5zM270 301h51q11 0 25 0.5t27 1.5l-34 175h-22z" />
    <glyph glyph-name="Aacute" unicode="&#xc1;" horiz-adv-x="676" 
d="M341 -6l-8 9l6 84q31 4 44 6.5t16.5 8.5t3.5 19q0 3 -0.5 7.5t-1.5 10.5l-6 39q-20 1 -41.5 1.5t-35.5 0.5q-17 0 -38.5 -1.5t-41.5 -3.5l-10 -44q-3 -16 -3 -22q0 -13 5.5 -16.5t25.5 -3.5h26l8 -10l-8 -83l-26 1t-61.5 1.5t-66.5 0.5h-61.5t-51 -0.5l-20.5 -0.5l7 87
q18 5 31 18.5t20 36.5l159 502l263 16l15 -12l7 -28.5t19 -75t26 -102.5t28 -111.5t26 -102t19 -73.5q9 -34 22.5 -49.5t36.5 -17.5l7 -10l-8 -79l-24 0.5t-56.5 1t-60.5 0.5q-47 0 -91 -1t-72 -2.5zM270 301h51q11 0 25 0.5t27 1.5l-34 175h-22zM269 691l-19 13l-21 71
q46 17 90.5 34.5t80 32.5t57 24l21.5 9l16 -5l36 -108l-7 -16l-22 -4t-58.5 -11.5t-81.5 -17.5t-92 -22z" />
    <glyph glyph-name="Abreve" unicode="&#x102;" horiz-adv-x="676" 
d="M341 -6l-8 9l6 84q31 4 44 6.5t16.5 8.5t3.5 19q0 3 -0.5 7.5t-1.5 10.5l-6 39q-20 1 -41.5 1.5t-35.5 0.5q-17 0 -38.5 -1.5t-41.5 -3.5l-10 -44q-3 -16 -3 -22q0 -13 5.5 -16.5t25.5 -3.5h26l8 -10l-8 -83l-26 1t-61.5 1.5t-66.5 0.5h-61.5t-51 -0.5l-20.5 -0.5l7 87
q18 5 31 18.5t20 36.5l159 502l263 16l15 -12l7 -28.5t19 -75t26 -102.5t28 -111.5t26 -102t19 -73.5q9 -34 22.5 -49.5t36.5 -17.5l7 -10l-8 -79l-24 0.5t-56.5 1t-60.5 0.5q-47 0 -91 -1t-72 -2.5zM270 301h51q11 0 25 0.5t27 1.5l-34 175h-22zM338 675q-51 0 -87 20
t-58 51t-33 65l40 62l27 7q15 -35 44.5 -52.5t66.5 -17.5t66.5 17.5t44.5 52.5l27 -7l40 -62q-10 -34 -32.5 -65t-58.5 -51t-87 -20z" />
    <glyph glyph-name="uni1EAE" unicode="&#x1eae;" horiz-adv-x="676" 
d="M341 -6l-8 9l6 84q31 4 44 6.5t16.5 8.5t3.5 19q0 3 -0.5 7.5t-1.5 10.5l-6 39q-20 1 -41.5 1.5t-35.5 0.5q-17 0 -38.5 -1.5t-41.5 -3.5l-10 -44q-3 -16 -3 -22q0 -13 5.5 -16.5t25.5 -3.5h26l8 -10l-8 -83l-26 1t-61.5 1.5t-66.5 0.5h-61.5t-51 -0.5l-20.5 -0.5l7 87
q18 5 31 18.5t20 36.5l159 502l263 16l15 -12l7 -28.5t19 -75t26 -102.5t28 -111.5t26 -102t19 -73.5q9 -34 22.5 -49.5t36.5 -17.5l7 -10l-8 -79l-24 0.5t-56.5 1t-60.5 0.5q-47 0 -91 -1t-72 -2.5zM270 301h51q11 0 25 0.5t27 1.5l-34 175h-22zM340 665q-51 0 -87 20
t-58 51t-33 65l40 62l27 7q15 -35 44.5 -52.5t66.5 -17.5t66.5 17.5t44.5 52.5l27 -7l40 -62q-10 -34 -32.5 -65t-58.5 -51t-87 -20zM345 837l-61 43l86 166l15 6l94 -60l4 -16l-115 -137z" />
    <glyph glyph-name="uni1EB6" unicode="&#x1eb6;" horiz-adv-x="676" 
d="M341 -6l-8 9l6 84q31 4 44 6.5t16.5 8.5t3.5 19q0 3 -0.5 7.5t-1.5 10.5l-6 39q-20 1 -41.5 1.5t-35.5 0.5q-17 0 -38.5 -1.5t-41.5 -3.5l-10 -44q-3 -16 -3 -22q0 -13 5.5 -16.5t25.5 -3.5h26l8 -10l-8 -83l-26 1t-61.5 1.5t-66.5 0.5h-61.5t-51 -0.5l-20.5 -0.5l7 87
q18 5 31 18.5t20 36.5l159 502l263 16l15 -12l7 -28.5t19 -75t26 -102.5t28 -111.5t26 -102t19 -73.5q9 -34 22.5 -49.5t36.5 -17.5l7 -10l-8 -79l-24 0.5t-56.5 1t-60.5 0.5q-47 0 -91 -1t-72 -2.5zM270 301h51q11 0 25 0.5t27 1.5l-34 175h-22zM330 -232q-46 0 -70 24.5
t-24 70.5q0 48 27.5 76t74.5 28q44 0 68.5 -25t24.5 -70q0 -48 -27 -76t-74 -28zM338 675q-51 0 -87 20t-58 51t-33 65l40 62l27 7q15 -35 44.5 -52.5t66.5 -17.5t66.5 17.5t44.5 52.5l27 -7l40 -62q-10 -34 -32.5 -65t-58.5 -51t-87 -20z" />
    <glyph glyph-name="uni1EB0" unicode="&#x1eb0;" horiz-adv-x="676" 
d="M341 -6l-8 9l6 84q31 4 44 6.5t16.5 8.5t3.5 19q0 3 -0.5 7.5t-1.5 10.5l-6 39q-20 1 -41.5 1.5t-35.5 0.5q-17 0 -38.5 -1.5t-41.5 -3.5l-10 -44q-3 -16 -3 -22q0 -13 5.5 -16.5t25.5 -3.5h26l8 -10l-8 -83l-26 1t-61.5 1.5t-66.5 0.5h-61.5t-51 -0.5l-20.5 -0.5l7 87
q18 5 31 18.5t20 36.5l159 502l263 16l15 -12l7 -28.5t19 -75t26 -102.5t28 -111.5t26 -102t19 -73.5q9 -34 22.5 -49.5t36.5 -17.5l7 -10l-8 -79l-24 0.5t-56.5 1t-60.5 0.5q-47 0 -91 -1t-72 -2.5zM270 301h51q11 0 25 0.5t27 1.5l-34 175h-22zM340 675q-51 0 -87 20
t-58 51t-33 65l40 62l27 7q15 -35 44.5 -52.5t66.5 -17.5t66.5 17.5t44.5 52.5l27 -7l40 -62q-10 -34 -32.5 -65t-58.5 -51t-87 -20zM338 847l-23 2l-115 137l4 16l94 60l15 -6l86 -166z" />
    <glyph glyph-name="uni1EB2" unicode="&#x1eb2;" horiz-adv-x="676" 
d="M341 -6l-8 9l6 84q31 4 44 6.5t16.5 8.5t3.5 19q0 3 -0.5 7.5t-1.5 10.5l-6 39q-20 1 -41.5 1.5t-35.5 0.5q-17 0 -38.5 -1.5t-41.5 -3.5l-10 -44q-3 -16 -3 -22q0 -13 5.5 -16.5t25.5 -3.5h26l8 -10l-8 -83l-26 1t-61.5 1.5t-66.5 0.5h-61.5t-51 -0.5l-20.5 -0.5l7 87
q18 5 31 18.5t20 36.5l159 502l263 16l15 -12l7 -28.5t19 -75t26 -102.5t28 -111.5t26 -102t19 -73.5q9 -34 22.5 -49.5t36.5 -17.5l7 -10l-8 -79l-24 0.5t-56.5 1t-60.5 0.5q-47 0 -91 -1t-72 -2.5zM270 301h51q11 0 25 0.5t27 1.5l-34 175h-22zM340 675q-64 0 -111 36
t-67 100l40 62l27 7q14 -33 42.5 -51.5t68.5 -18.5q39 0 68 18t43 52l27 -7l40 -62q-19 -64 -66.5 -100t-111.5 -36zM328 834l-56 84q29 20 42.5 37.5t13.5 35.5q0 15 -9.5 23.5t-29.5 8.5q-15 0 -30 -6t-25.5 -12.5l-10.5 -6.5l-25 39l16 14t40 31.5t48 25.5
q60 0 94.5 -24.5t34.5 -68.5q0 -22 -13.5 -42.5t-50.5 -52.5l29 -45z" />
    <glyph glyph-name="uni1EB4" unicode="&#x1eb4;" horiz-adv-x="676" 
d="M341 -6l-8 9l6 84q31 4 44 6.5t16.5 8.5t3.5 19q0 3 -0.5 7.5t-1.5 10.5l-6 39q-20 1 -41.5 1.5t-35.5 0.5q-17 0 -38.5 -1.5t-41.5 -3.5l-10 -44q-3 -16 -3 -22q0 -13 5.5 -16.5t25.5 -3.5h26l8 -10l-8 -83l-26 1t-61.5 1.5t-66.5 0.5h-61.5t-51 -0.5l-20.5 -0.5l7 87
q18 5 31 18.5t20 36.5l159 502l263 16l15 -12l7 -28.5t19 -75t26 -102.5t28 -111.5t26 -102t19 -73.5q9 -34 22.5 -49.5t36.5 -17.5l7 -10l-8 -79l-24 0.5t-56.5 1t-60.5 0.5q-47 0 -91 -1t-72 -2.5zM270 301h51q11 0 25 0.5t27 1.5l-34 175h-22zM219 862l-43 56v14l63 65
l15 4q15 0 42 -7t53 -14.5t39 -7.5q11 0 24.5 6t24 12l10.5 6h14l43 -57v-13l-63 -66l-15 -3q-15 0 -42 7.5t-53 14.5t-39 7q-11 0 -25 -6t-24 -12l-10 -6h-14zM340 802q30 0 53 10.5t34 32.5l24 -6l44 -54q-13 -37 -50.5 -69t-104.5 -32t-104 32t-51 69l44 54l24 6
q11 -22 34 -32.5t53 -10.5z" />
    <glyph glyph-name="uni01CD" unicode="&#x1cd;" horiz-adv-x="676" 
d="M341 -6l-8 9l6 84q31 4 44 6.5t16.5 8.5t3.5 19q0 3 -0.5 7.5t-1.5 10.5l-6 39q-20 1 -41.5 1.5t-35.5 0.5q-17 0 -38.5 -1.5t-41.5 -3.5l-10 -44q-3 -16 -3 -22q0 -13 5.5 -16.5t25.5 -3.5h26l8 -10l-8 -83l-26 1t-61.5 1.5t-66.5 0.5h-61.5t-51 -0.5l-20.5 -0.5l7 87
q18 5 31 18.5t20 36.5l159 502l263 16l15 -12l7 -28.5t19 -75t26 -102.5t28 -111.5t26 -102t19 -73.5q9 -34 22.5 -49.5t36.5 -17.5l7 -10l-8 -79l-24 0.5t-56.5 1t-60.5 0.5q-47 0 -91 -1t-72 -2.5zM270 301h51q11 0 25 0.5t27 1.5l-34 175h-22zM329 688l-15.5 12.5
t-41.5 33.5t-57 45t-62 47l35 62l23 7q34 -14 72 -28.5t60 -22.5q23 8 59.5 22.5t71.5 28.5l23 -7l36 -62q-31 -23 -62.5 -47t-57.5 -45t-41.5 -33.5l-15.5 -12.5h-27z" />
    <glyph glyph-name="Acircumflex" unicode="&#xc2;" horiz-adv-x="676" 
d="M341 -6l-8 9l6 84q31 4 44 6.5t16.5 8.5t3.5 19q0 3 -0.5 7.5t-1.5 10.5l-6 39q-20 1 -41.5 1.5t-35.5 0.5q-17 0 -38.5 -1.5t-41.5 -3.5l-10 -44q-3 -16 -3 -22q0 -13 5.5 -16.5t25.5 -3.5h26l8 -10l-8 -83l-26 1t-61.5 1.5t-66.5 0.5h-61.5t-51 -0.5l-20.5 -0.5l7 87
q18 5 31 18.5t20 36.5l159 502l263 16l15 -12l7 -28.5t19 -75t26 -102.5t28 -111.5t26 -102t19 -73.5q9 -34 22.5 -49.5t36.5 -17.5l7 -10l-8 -79l-24 0.5t-56.5 1t-60.5 0.5q-47 0 -91 -1t-72 -2.5zM270 301h51q11 0 25 0.5t27 1.5l-34 175h-22zM212 701l-23 7l-36 62
q32 23 63 47t57 45t41.5 33.5l15.5 12.5h27q0 2 15.5 -10t41.5 -33t57 -46t62 -49l-35 -62l-23 -7q-34 14 -71.5 28.5t-60.5 22.5q-22 -8 -59 -22.5t-72 -28.5z" />
    <glyph glyph-name="uni1EA4" unicode="&#x1ea4;" horiz-adv-x="676" 
d="M341 -6l-8 9l6 84q31 4 44 6.5t16.5 8.5t3.5 19q0 3 -0.5 7.5t-1.5 10.5l-6 39q-20 1 -41.5 1.5t-35.5 0.5q-17 0 -38.5 -1.5t-41.5 -3.5l-10 -44q-3 -16 -3 -22q0 -13 5.5 -16.5t25.5 -3.5h26l8 -10l-8 -83l-26 1t-61.5 1.5t-66.5 0.5h-61.5t-51 -0.5l-20.5 -0.5l7 87
q18 5 31 18.5t20 36.5l159 502l263 16l15 -12l7 -28.5t19 -75t26 -102.5t28 -111.5t26 -102t19 -73.5q9 -34 22.5 -49.5t36.5 -17.5l7 -10l-8 -79l-24 0.5t-56.5 1t-60.5 0.5q-47 0 -91 -1t-72 -2.5zM270 301h51q11 0 25 0.5t27 1.5l-34 175h-22zM219 667l-21 7l-33 57
q29 21 58 43t52.5 41.5t38 31l14.5 11.5h25l24.5 -19.5t62 -49t75.5 -58.5l-32 -57l-22 -7q-31 14 -65.5 27t-55.5 20q-21 -7 -54.5 -20t-66.5 -27zM475 808l-61 45l74 161l15 6l90 -52l4 -17l-99 -142z" />
    <glyph glyph-name="uni1EAC" unicode="&#x1eac;" horiz-adv-x="676" 
d="M341 -6l-8 9l6 84q31 4 44 6.5t16.5 8.5t3.5 19q0 3 -0.5 7.5t-1.5 10.5l-6 39q-20 1 -41.5 1.5t-35.5 0.5q-17 0 -38.5 -1.5t-41.5 -3.5l-10 -44q-3 -16 -3 -22q0 -13 5.5 -16.5t25.5 -3.5h26l8 -10l-8 -83l-26 1t-61.5 1.5t-66.5 0.5h-61.5t-51 -0.5l-20.5 -0.5l7 87
q18 5 31 18.5t20 36.5l159 502l263 16l15 -12l7 -28.5t19 -75t26 -102.5t28 -111.5t26 -102t19 -73.5q9 -34 22.5 -49.5t36.5 -17.5l7 -10l-8 -79l-24 0.5t-56.5 1t-60.5 0.5q-47 0 -91 -1t-72 -2.5zM270 301h51q11 0 25 0.5t27 1.5l-34 175h-22zM212 701l-23 7l-36 62
q32 23 63 47t57 45t41.5 33.5l15.5 12.5h27q0 2 15.5 -10t41.5 -33t57 -46t62 -49l-35 -62l-23 -7q-34 14 -71.5 28.5t-60.5 22.5q-22 -8 -59 -22.5t-72 -28.5zM315 -232q-46 0 -70 24.5t-24 70.5q0 48 27.5 76t74.5 28q44 0 68.5 -25t24.5 -70q0 -48 -27 -76t-74 -28z" />
    <glyph glyph-name="uni1EA6" unicode="&#x1ea6;" horiz-adv-x="676" 
d="M341 -6l-8 9l6 84q31 4 44 6.5t16.5 8.5t3.5 19q0 3 -0.5 7.5t-1.5 10.5l-6 39q-20 1 -41.5 1.5t-35.5 0.5q-17 0 -38.5 -1.5t-41.5 -3.5l-10 -44q-3 -16 -3 -22q0 -13 5.5 -16.5t25.5 -3.5h26l8 -10l-8 -83l-26 1t-61.5 1.5t-66.5 0.5h-61.5t-51 -0.5l-20.5 -0.5l7 87
q18 5 31 18.5t20 36.5l159 502l263 16l15 -12l7 -28.5t19 -75t26 -102.5t28 -111.5t26 -102t19 -73.5q9 -34 22.5 -49.5t36.5 -17.5l7 -10l-8 -79l-24 0.5t-56.5 1t-60.5 0.5q-47 0 -91 -1t-72 -2.5zM270 301h51q11 0 25 0.5t27 1.5l-34 175h-22zM492 803l-23 1l-99 142
l4 17l89 51l15 -6l74 -161zM165 731q29 21 58 43t52.5 41.5t38 31l14.5 11.5h25l24.5 -19.5t62 -49t75.5 -58.5l-32 -57l-22 -7q-31 14 -65.5 27t-55.5 20q-21 -7 -54.5 -20t-66.5 -27l-21 7z" />
    <glyph glyph-name="uni1EA8" unicode="&#x1ea8;" horiz-adv-x="676" 
d="M341 -6l-8 9l6 84q31 4 44 6.5t16.5 8.5t3.5 19q0 3 -0.5 7.5t-1.5 10.5l-6 39q-20 1 -41.5 1.5t-35.5 0.5q-17 0 -38.5 -1.5t-41.5 -3.5l-10 -44q-3 -16 -3 -22q0 -13 5.5 -16.5t25.5 -3.5h26l8 -10l-8 -83l-26 1t-61.5 1.5t-66.5 0.5h-61.5t-51 -0.5l-20.5 -0.5l7 87
q18 5 31 18.5t20 36.5l159 502l263 16l15 -12l7 -28.5t19 -75t26 -102.5t28 -111.5t26 -102t19 -73.5q9 -34 22.5 -49.5t36.5 -17.5l7 -10l-8 -79l-24 0.5t-56.5 1t-60.5 0.5q-47 0 -91 -1t-72 -2.5zM270 301h51q11 0 25 0.5t27 1.5l-34 175h-22zM467 799l-56 84
q29 20 42.5 37.5t13.5 35.5q0 15 -9.5 23.5t-29.5 8.5q-15 0 -30 -6t-25.5 -12.5l-10.5 -6.5l-25 39l16 14t40 31.5t48 25.5q60 0 94.5 -24.5t34.5 -68.5q0 -22 -13.5 -42.5t-50.5 -52.5l29 -45zM165 731q29 21 58 43t52.5 41.5t38 31l14.5 11.5h25l24.5 -19.5t62 -49
t75.5 -58.5l-32 -57l-22 -7q-31 14 -65.5 27t-55.5 20q-21 -7 -54.5 -20t-66.5 -27l-21 7z" />
    <glyph glyph-name="uni1EAA" unicode="&#x1eaa;" horiz-adv-x="676" 
d="M341 -6l-8 9l6 84q31 4 44 6.5t16.5 8.5t3.5 19q0 3 -0.5 7.5t-1.5 10.5l-6 39q-20 1 -41.5 1.5t-35.5 0.5q-17 0 -38.5 -1.5t-41.5 -3.5l-10 -44q-3 -16 -3 -22q0 -13 5.5 -16.5t25.5 -3.5h26l8 -10l-8 -83l-26 1t-61.5 1.5t-66.5 0.5h-61.5t-51 -0.5l-20.5 -0.5l7 87
q18 5 31 18.5t20 36.5l159 502l263 16l15 -12l7 -28.5t19 -75t26 -102.5t28 -111.5t26 -102t19 -73.5q9 -34 22.5 -49.5t36.5 -17.5l7 -10l-8 -79l-24 0.5t-56.5 1t-60.5 0.5q-47 0 -91 -1t-72 -2.5zM270 301h51q11 0 25 0.5t27 1.5l-34 175h-22zM165 731q29 21 58 43
t52.5 41.5t38 31l14.5 11.5h25l24.5 -19.5t62 -49t75.5 -58.5l-32 -57l-22 -7q-31 14 -65.5 27t-55.5 20q-21 -7 -54.5 -20t-66.5 -27l-21 7zM213 842l-54 49v15l74 106l16 4q16 0 44.5 -8t56 -16t41.5 -8q11 0 25.5 13.5t25 27l10.5 13.5h15l54 -50v-15l-74 -105l-16 -4
q-16 0 -44.5 8t-56 15.5t-41.5 7.5q-11 0 -25.5 -13t-25 -26.5l-10.5 -13.5h-15z" />
    <glyph glyph-name="uni0200" unicode="&#x200;" horiz-adv-x="676" 
d="M341 -6l-8 9l6 84q31 4 44 6.5t16.5 8.5t3.5 19q0 3 -0.5 7.5t-1.5 10.5l-6 39q-20 1 -41.5 1.5t-35.5 0.5q-17 0 -38.5 -1.5t-41.5 -3.5l-10 -44q-3 -16 -3 -22q0 -13 5.5 -16.5t25.5 -3.5h26l8 -10l-8 -83l-26 1t-61.5 1.5t-66.5 0.5h-61.5t-51 -0.5l-20.5 -0.5l7 87
q18 5 31 18.5t20 36.5l159 502l263 16l15 -12l7 -28.5t19 -75t26 -102.5t28 -111.5t26 -102t19 -73.5q9 -34 22.5 -49.5t36.5 -17.5l7 -10l-8 -79l-24 0.5t-56.5 1t-60.5 0.5q-47 0 -91 -1t-72 -2.5zM270 301h51q11 0 25 0.5t27 1.5l-34 175h-22zM472 674q-42 29 -81.5 54
t-65.5 40.5l-26 15.5v15l66 81l15 -1l21.5 -22.5t55.5 -57t72 -72.5l-38 -48zM274 674q-42 29 -81.5 54t-65.5 40.5l-26 15.5v15l66 81l15 -1l21.5 -22.5t55.5 -57t72 -72.5l-38 -48z" />
    <glyph glyph-name="Adieresis" unicode="&#xc4;" horiz-adv-x="676" 
d="M341 -6l-8 9l6 84q31 4 44 6.5t16.5 8.5t3.5 19q0 3 -0.5 7.5t-1.5 10.5l-6 39q-20 1 -41.5 1.5t-35.5 0.5q-17 0 -38.5 -1.5t-41.5 -3.5l-10 -44q-3 -16 -3 -22q0 -13 5.5 -16.5t25.5 -3.5h26l8 -10l-8 -83l-26 1t-61.5 1.5t-66.5 0.5h-61.5t-51 -0.5l-20.5 -0.5l7 87
q18 5 31 18.5t20 36.5l159 502l263 16l15 -12l7 -28.5t19 -75t26 -102.5t28 -111.5t26 -102t19 -73.5q9 -34 22.5 -49.5t36.5 -17.5l7 -10l-8 -79l-24 0.5t-56.5 1t-60.5 0.5q-47 0 -91 -1t-72 -2.5zM270 301h51q11 0 25 0.5t27 1.5l-34 175h-22zM435 685q-39 0 -59.5 20.5
t-20.5 59.5q0 40 23 63.5t63 23.5q38 0 58.5 -21t20.5 -59q0 -40 -23 -63.5t-62 -23.5zM242 685q-38 0 -58.5 20.5t-20.5 59.5q0 40 23 63.5t63 23.5q38 0 58.5 -21t20.5 -59q0 -40 -23 -63.5t-63 -23.5z" />
    <glyph glyph-name="uni1EA0" unicode="&#x1ea0;" horiz-adv-x="676" 
d="M341 -6l-8 9l6 84q31 4 44 6.5t16.5 8.5t3.5 19q0 3 -0.5 7.5t-1.5 10.5l-6 39q-20 1 -41.5 1.5t-35.5 0.5q-17 0 -38.5 -1.5t-41.5 -3.5l-10 -44q-3 -16 -3 -22q0 -13 5.5 -16.5t25.5 -3.5h26l8 -10l-8 -83l-26 1t-61.5 1.5t-66.5 0.5h-61.5t-51 -0.5l-20.5 -0.5l7 87
q18 5 31 18.5t20 36.5l159 502l263 16l15 -12l7 -28.5t19 -75t26 -102.5t28 -111.5t26 -102t19 -73.5q9 -34 22.5 -49.5t36.5 -17.5l7 -10l-8 -79l-24 0.5t-56.5 1t-60.5 0.5q-47 0 -91 -1t-72 -2.5zM270 301h51q11 0 25 0.5t27 1.5l-34 175h-22zM315 -232q-46 0 -70 24.5
t-24 70.5q0 48 27.5 76t74.5 28q44 0 68.5 -25t24.5 -70q0 -48 -27 -76t-74 -28z" />
    <glyph glyph-name="Agrave" unicode="&#xc0;" horiz-adv-x="676" 
d="M341 -6l-8 9l6 84q31 4 44 6.5t16.5 8.5t3.5 19q0 3 -0.5 7.5t-1.5 10.5l-6 39q-20 1 -41.5 1.5t-35.5 0.5q-17 0 -38.5 -1.5t-41.5 -3.5l-10 -44q-3 -16 -3 -22q0 -13 5.5 -16.5t25.5 -3.5h26l8 -10l-8 -83l-26 1t-61.5 1.5t-66.5 0.5h-61.5t-51 -0.5l-20.5 -0.5l7 87
q18 5 31 18.5t20 36.5l159 502l263 16l15 -12l7 -28.5t19 -75t26 -102.5t28 -111.5t26 -102t19 -73.5q9 -34 22.5 -49.5t36.5 -17.5l7 -10l-8 -79l-24 0.5t-56.5 1t-60.5 0.5q-47 0 -91 -1t-72 -2.5zM270 301h51q11 0 25 0.5t27 1.5l-34 175h-22zM449 691q-46 12 -91.5 22
t-82 17.5t-58.5 11.5l-22 4l-7 16l36 108l16 5l21.5 -9t57 -24t80 -32.5t90.5 -34.5l-21 -71z" />
    <glyph glyph-name="uni1EA2" unicode="&#x1ea2;" horiz-adv-x="676" 
d="M341 -6l-8 9l6 84q31 4 44 6.5t16.5 8.5t3.5 19q0 3 -0.5 7.5t-1.5 10.5l-6 39q-20 1 -41.5 1.5t-35.5 0.5q-17 0 -38.5 -1.5t-41.5 -3.5l-10 -44q-3 -16 -3 -22q0 -13 5.5 -16.5t25.5 -3.5h26l8 -10l-8 -83l-26 1t-61.5 1.5t-66.5 0.5h-61.5t-51 -0.5l-20.5 -0.5l7 87
q18 5 31 18.5t20 36.5l159 502l263 16l15 -12l7 -28.5t19 -75t26 -102.5t28 -111.5t26 -102t19 -73.5q9 -34 22.5 -49.5t36.5 -17.5l7 -10l-8 -79l-24 0.5t-56.5 1t-60.5 0.5q-47 0 -91 -1t-72 -2.5zM270 301h51q11 0 25 0.5t27 1.5l-34 175h-22zM329 652l-59 88
q31 21 45 39.5t14 37.5q0 16 -10.5 25t-30.5 9q-16 0 -32 -6.5t-27 -13.5l-11 -7l-26 41l17 15t42 33t50 27q63 0 99.5 -25.5t36.5 -72.5q0 -23 -14.5 -44.5t-52.5 -55.5l30 -47z" />
    <glyph glyph-name="uni0202" unicode="&#x202;" horiz-adv-x="676" 
d="M341 -6l-8 9l6 84q31 4 44 6.5t16.5 8.5t3.5 19q0 3 -0.5 7.5t-1.5 10.5l-6 39q-20 1 -41.5 1.5t-35.5 0.5q-17 0 -38.5 -1.5t-41.5 -3.5l-10 -44q-3 -16 -3 -22q0 -13 5.5 -16.5t25.5 -3.5h26l8 -10l-8 -83l-26 1t-61.5 1.5t-66.5 0.5h-61.5t-51 -0.5l-20.5 -0.5l7 87
q18 5 31 18.5t20 36.5l159 502l263 16l15 -12l7 -28.5t19 -75t26 -102.5t28 -111.5t26 -102t19 -73.5q9 -34 22.5 -49.5t36.5 -17.5l7 -10l-8 -79l-24 0.5t-56.5 1t-60.5 0.5q-47 0 -91 -1t-72 -2.5zM270 301h51q11 0 25 0.5t27 1.5l-34 175h-22zM338 760q-37 0 -66.5 -17.5
t-44.5 -52.5l-27 7l-40 62q11 34 33 65t58 51t87 20t87 -20t58.5 -51t32.5 -65l-40 -62l-27 -7q-15 35 -44.5 52.5t-66.5 17.5z" />
    <glyph glyph-name="Amacron" unicode="&#x100;" horiz-adv-x="676" 
d="M341 -6l-8 9l6 84q31 4 44 6.5t16.5 8.5t3.5 19q0 3 -0.5 7.5t-1.5 10.5l-6 39q-20 1 -41.5 1.5t-35.5 0.5q-17 0 -38.5 -1.5t-41.5 -3.5l-10 -44q-3 -16 -3 -22q0 -13 5.5 -16.5t25.5 -3.5h26l8 -10l-8 -83l-26 1t-61.5 1.5t-66.5 0.5h-61.5t-51 -0.5l-20.5 -0.5l7 87
q18 5 31 18.5t20 36.5l159 502l263 16l15 -12l7 -28.5t19 -75t26 -102.5t28 -111.5t26 -102t19 -73.5q9 -34 22.5 -49.5t36.5 -17.5l7 -10l-8 -79l-24 0.5t-56.5 1t-60.5 0.5q-47 0 -91 -1t-72 -2.5zM270 301h51q11 0 25 0.5t27 1.5l-34 175h-22zM208 694l-16 15l19 109
h15.5t39.5 -0.5t50.5 -0.5h48.5q25 0 54 1.5t49.5 3l20.5 1.5l11 -18l-18 -109l-140 -1h-60.5t-52.5 -0.5z" />
    <glyph glyph-name="Aogonek" unicode="&#x104;" horiz-adv-x="676" 
d="M341 -6l-8 9l6 84q31 4 44 6.5t16.5 8.5t3.5 19q0 3 -0.5 7.5t-1.5 10.5l-6 39q-20 1 -41.5 1.5t-35.5 0.5q-17 0 -38.5 -1.5t-41.5 -3.5l-10 -44q-3 -16 -3 -22q0 -13 5.5 -16.5t25.5 -3.5h26l8 -10l-8 -83l-26 1t-61.5 1.5t-66.5 0.5h-61.5t-51 -0.5l-20.5 -0.5l7 87
q18 5 31 18.5t20 36.5l159 502l263 16l15 -12l7 -28.5t19 -75t26 -102.5t28 -111.5t26 -102t19 -73.5q9 -34 22.5 -49.5t36.5 -17.5l7 -10l-8 -79l-24 0.5t-56.5 1t-60.5 0.5q-47 0 -91 -1t-72 -2.5zM270 301h51q11 0 25 0.5t27 1.5l-34 175h-22zM567 -242q-55 0 -90 29
t-35 75q0 14 4.5 28t16.5 33t35.5 47.5t60.5 71.5h82q-28 -48 -44.5 -78.5t-23.5 -49t-7 -30.5q0 -10 6 -16t16 -6q12 0 27.5 6.5t31.5 16.5l33 -52q-36 -35 -63.5 -53.5t-49.5 -21.5z" />
    <glyph glyph-name="Aring" unicode="&#xc5;" horiz-adv-x="676" 
d="M341 -6l-8 9l6 84q31 4 44 6.5t16.5 8.5t3.5 19q0 3 -0.5 7.5t-1.5 10.5l-6 39q-20 1 -41.5 1.5t-35.5 0.5q-17 0 -38.5 -1.5t-41.5 -3.5l-10 -44q-3 -16 -3 -22q0 -13 5.5 -16.5t25.5 -3.5h26l8 -10l-8 -83l-26 1t-61.5 1.5t-66.5 0.5h-61.5t-51 -0.5l-20.5 -0.5l7 87
q18 5 31 18.5t20 36.5l159 502l263 16l15 -12l7 -28.5t19 -75t26 -102.5t28 -111.5t26 -102t19 -73.5q9 -34 22.5 -49.5t36.5 -17.5l7 -10l-8 -79l-24 0.5t-56.5 1t-60.5 0.5q-47 0 -91 -1t-72 -2.5zM270 301h51q11 0 25 0.5t27 1.5l-34 175h-22zM337 682q-49 0 -75 28.5
t-26 74.5t30 76.5t80 30.5q56 0 79 -30t23 -68q0 -43 -29 -77.5t-82 -34.5zM344 752q10 0 22.5 6.5t12.5 26.5q0 17 -10 26t-29 9q-17 0 -26 -9t-9 -23q0 -21 13.5 -28.5t25.5 -7.5z" />
    <glyph glyph-name="Aringacute" unicode="&#x1fa;" horiz-adv-x="676" 
d="M341 -6l-8 9l6 84q31 4 44 6.5t16.5 8.5t3.5 19q0 3 -0.5 7.5t-1.5 10.5l-6 39q-20 1 -41.5 1.5t-35.5 0.5q-17 0 -38.5 -1.5t-41.5 -3.5l-10 -44q-3 -16 -3 -22q0 -13 5.5 -16.5t25.5 -3.5h26l8 -10l-8 -83l-26 1t-61.5 1.5t-66.5 0.5h-61.5t-51 -0.5l-20.5 -0.5l7 87
q18 5 31 18.5t20 36.5l159 502l263 16l15 -12l7 -28.5t19 -75t26 -102.5t28 -111.5t26 -102t19 -73.5q9 -34 22.5 -49.5t36.5 -17.5l7 -10l-8 -79l-24 0.5t-56.5 1t-60.5 0.5q-47 0 -91 -1t-72 -2.5zM270 301h51q11 0 25 0.5t27 1.5l-34 175h-22zM338 678q-44 0 -67.5 26
t-23.5 67t26.5 68.5t72.5 27.5q50 0 71 -27t21 -61q0 -40 -26 -70.5t-74 -30.5zM344 741q9 0 20 5.5t11 24.5q0 14 -9 22.5t-26 8.5q-16 0 -23.5 -8t-7.5 -21q0 -19 12.5 -25.5t22.5 -6.5zM241 851l-17 12l-19 64q42 15 81.5 31t72 29.5t51.5 21.5l19 8l15 -5l32 -97l-6 -15
l-34 -6.5t-86.5 -17.5t-108.5 -25z" />
    <glyph glyph-name="Atilde" unicode="&#xc3;" horiz-adv-x="676" 
d="M341 -6l-8 9l6 84q31 4 44 6.5t16.5 8.5t3.5 19q0 3 -0.5 7.5t-1.5 10.5l-6 39q-20 1 -41.5 1.5t-35.5 0.5q-17 0 -38.5 -1.5t-41.5 -3.5l-10 -44q-3 -16 -3 -22q0 -13 5.5 -16.5t25.5 -3.5h26l8 -10l-8 -83l-26 1t-61.5 1.5t-66.5 0.5h-61.5t-51 -0.5l-20.5 -0.5l7 87
q18 5 31 18.5t20 36.5l159 502l263 16l15 -12l7 -28.5t19 -75t26 -102.5t28 -111.5t26 -102t19 -73.5q9 -34 22.5 -49.5t36.5 -17.5l7 -10l-8 -79l-24 0.5t-56.5 1t-60.5 0.5q-47 0 -91 -1t-72 -2.5zM270 301h51q11 0 25 0.5t27 1.5l-34 175h-22zM204 675l-59 54v16l81 115
l17 4q13 0 34.5 -5t44.5 -12t43.5 -12t31.5 -5q9 0 20.5 9t22 20t17.5 20l7 9h16l59 -54v-16l-81 -115l-17 -4q-13 0 -34.5 5t-44.5 12t-43.5 12t-31.5 5q-9 0 -20.5 -9t-22 -20t-17.5 -20l-7 -9h-16z" />
    <glyph glyph-name="AE" unicode="&#xc6;" horiz-adv-x="938" 
d="M339 87q42 5 55 13t13 30v14.5t-1 17.5l-5 57l-75 -13l-77 -23l-16 -53q-3 -10 -4.5 -16.5t-1.5 -9.5q0 -12 10.5 -13.5t44.5 -1.5l7 -10l-7 -83q-1 0 -24.5 0.5t-57 1t-65.5 1t-50 0.5h-39.5t-29.5 -0.5l-11 -0.5l-3 87q19 5 33 18.5t24 36.5l166 391q-2 16 -8 22t-18 6
q-8 0 -17 -1l-9 -1l-12 14l9 79l27.5 -0.5t75 -1t107 -1t122.5 -0.5q55 0 110 1.5t103 3t83 3.5t49 4l13 -16l-4.5 -30t-10 -76t-8.5 -93l-138 -9l1 13.5t1 23.5q0 23 -7.5 34.5t-28.5 16t-62 4.5q-20 0 -27 -5t-7 -19l19 -131l73 13l101 26l17 -17l-12 -116l-96 -12
l-65 -12l11 -73q5 -34 19 -50.5t36 -16.5q29 0 47.5 4t29.5 15.5t17.5 32.5t10.5 55l128 9l12 -15l-5 -29t-11.5 -75.5t-11.5 -101.5l-15 -16l-28 1t-74.5 2.5t-103.5 2.5t-115 1h-42q-42 0 -81.5 -1.5t-64.5 -3l-25 -1.5l-7 9zM341 328l50 9l-14 141h-22l-57 -154z" />
    <glyph glyph-name="AEacute" unicode="&#x1fc;" horiz-adv-x="938" 
d="M339 87q42 5 55 13t13 30v14.5t-1 17.5l-5 57l-75 -13l-77 -23l-16 -53q-3 -10 -4.5 -16.5t-1.5 -9.5q0 -12 10.5 -13.5t44.5 -1.5l7 -10l-7 -83q-1 0 -24.5 0.5t-57 1t-65.5 1t-50 0.5h-39.5t-29.5 -0.5l-11 -0.5l-3 87q19 5 33 18.5t24 36.5l166 391q-2 16 -8 22t-18 6
q-8 0 -17 -1l-9 -1l-12 14l9 79l27.5 -0.5t75 -1t107 -1t122.5 -0.5q55 0 110 1.5t103 3t83 3.5t49 4l13 -16l-4.5 -30t-10 -76t-8.5 -93l-138 -9l1 13.5t1 23.5q0 23 -7.5 34.5t-28.5 16t-62 4.5q-20 0 -27 -5t-7 -19l19 -131l73 13l101 26l17 -17l-12 -116l-96 -12
l-65 -12l11 -73q5 -34 19 -50.5t36 -16.5q29 0 47.5 4t29.5 15.5t17.5 32.5t10.5 55l128 9l12 -15l-5 -29t-11.5 -75.5t-11.5 -101.5l-15 -16l-28 1t-74.5 2.5t-103.5 2.5t-115 1h-42q-42 0 -81.5 -1.5t-64.5 -3l-25 -1.5l-7 9zM341 328l50 9l-14 141h-22l-57 -154zM369 691
l-19 13l-21 71q46 17 90.5 34.5t80 32.5t57 24l21.5 9l16 -5l36 -108l-7 -16l-22 -4t-58.5 -11.5t-81.5 -17.5t-92 -22z" />
    <glyph glyph-name="B" unicode="B" horiz-adv-x="663" 
d="M194 0q-24 0 -55 -1t-59.5 -2.5l-47.5 -2.5l-19 -1l9 90q39 7 53 22t14 51l1 357q0 23 -6.5 34.5t-20.5 11.5q-9 0 -21.5 -1l-12.5 -1l-12 12l12 80l21.5 -0.5t51 -0.5t57 -0.5t39.5 -0.5q10 0 32.5 0.5t49.5 2t52 2.5t41.5 1.5l16.5 0.5q112 0 170 -40.5t58 -117.5
q0 -56 -29.5 -91.5t-67.5 -61.5q30 -10 58.5 -27t47.5 -45t19 -73q0 -69 -32 -115.5t-96 -70t-160 -23.5q-11 2 -34 3.5t-49.5 3.5t-48.5 3t-32 1zM288 260l-5 -100q0 -24 17.5 -35t55.5 -11q37 0 56 18.5t19 54.5q0 53 -64 73h-79zM290 389l9 -1.5t22.5 -4t26.5 -4t22 -1.5
l6.5 5t14.5 15.5t14.5 25.5t6.5 36q0 35 -23.5 51.5t-73.5 16.5q-10 0 -13.5 -3t-4.5 -11q-2 -22 -3.5 -51.5t-2.5 -51.5z" />
    <glyph glyph-name="C" unicode="C" horiz-adv-x="603" 
d="M310 -11q-93 0 -159 38t-101 110.5t-35 173.5q0 84 23 149t68 109t110 67t150 23q32 0 68.5 -4t68.5 -9t52.5 -9l20.5 -4l8 -20l-5.5 -28t-12 -76.5t-10.5 -109.5l-154 -9l1 17t1 40q0 41 -15.5 57.5t-53.5 16.5q-35 0 -55 -16t-28.5 -54t-8.5 -104q0 -74 10.5 -122.5
t32 -71.5t54.5 -23q38 0 56 26t23 90l153 10l-2 -19.5t-4 -51t-4 -69t-2 -73.5l-13 -16l-32.5 -9.5t-86 -19t-118.5 -9.5z" />
    <glyph glyph-name="Cacute" unicode="&#x106;" horiz-adv-x="603" 
d="M310 -11q-93 0 -159 38t-101 110.5t-35 173.5q0 84 23 149t68 109t110 67t150 23q32 0 68.5 -4t68.5 -9t52.5 -9l20.5 -4l8 -20l-5.5 -28t-12 -76.5t-10.5 -109.5l-154 -9l1 17t1 40q0 41 -15.5 57.5t-53.5 16.5q-35 0 -55 -16t-28.5 -54t-8.5 -104q0 -74 10.5 -122.5
t32 -71.5t54.5 -23q38 0 56 26t23 90l153 10l-2 -19.5t-4 -51t-4 -69t-2 -73.5l-13 -16l-32.5 -9.5t-86 -19t-118.5 -9.5zM263 691l-19 13l-21 71q46 17 90.5 34.5t80 32.5t57 24l21.5 9l16 -5l36 -108l-7 -16l-22 -4t-58.5 -11.5t-81.5 -17.5t-92 -22z" />
    <glyph glyph-name="Ccaron" unicode="&#x10c;" horiz-adv-x="603" 
d="M310 -11q-93 0 -159 38t-101 110.5t-35 173.5q0 84 23 149t68 109t110 67t150 23q32 0 68.5 -4t68.5 -9t52.5 -9l20.5 -4l8 -20l-5.5 -28t-12 -76.5t-10.5 -109.5l-154 -9l1 17t1 40q0 41 -15.5 57.5t-53.5 16.5q-35 0 -55 -16t-28.5 -54t-8.5 -104q0 -74 10.5 -122.5
t32 -71.5t54.5 -23q38 0 56 26t23 90l153 10l-2 -19.5t-4 -51t-4 -69t-2 -73.5l-13 -16l-32.5 -9.5t-86 -19t-118.5 -9.5zM321 688l-15.5 12.5t-41.5 33.5t-57 45t-62 47l35 62l23 7q34 -14 72 -28.5t60 -22.5q23 8 59.5 22.5t71.5 28.5l23 -7l36 -62q-31 -23 -62.5 -47
t-57.5 -45t-41.5 -33.5l-15.5 -12.5h-27z" />
    <glyph glyph-name="Ccedilla" unicode="&#xc7;" horiz-adv-x="603" 
d="M310 -11q-93 0 -159 38t-101 110.5t-35 173.5q0 84 23 149t68 109t110 67t150 23q32 0 68.5 -4t68.5 -9t52.5 -9l20.5 -4l8 -20l-5.5 -28t-12 -76.5t-10.5 -109.5l-154 -9l1 17t1 40q0 41 -15.5 57.5t-53.5 16.5q-35 0 -55 -16t-28.5 -54t-8.5 -104q0 -74 10.5 -122.5
t32 -71.5t54.5 -23q38 0 56 26t23 90l153 10l-2 -19.5t-4 -51t-4 -69t-2 -73.5l-13 -16l-32.5 -9.5t-86 -19t-118.5 -9.5zM297 -242q-19 0 -39.5 6t-34.5 18t-14 28q0 12 17 33.5t32 36.5h9q1 -28 14.5 -42t34.5 -14q15 0 23.5 6.5t8.5 16.5q0 11 -13.5 22.5t-33.5 23
t-40 20.5l31 122h61l-16 -73q21 -10 46.5 -26t43.5 -36t18 -43q0 -27 -20 -49.5t-53.5 -36t-74.5 -13.5z" />
    <glyph glyph-name="uni1E08" unicode="&#x1e08;" horiz-adv-x="603" 
d="M310 -11q-93 0 -159 38t-101 110.5t-35 173.5q0 84 23 149t68 109t110 67t150 23q32 0 68.5 -4t68.5 -9t52.5 -9l20.5 -4l8 -20l-5.5 -28t-12 -76.5t-10.5 -109.5l-154 -9l1 17t1 40q0 41 -15.5 57.5t-53.5 16.5q-35 0 -55 -16t-28.5 -54t-8.5 -104q0 -74 10.5 -122.5
t32 -71.5t54.5 -23q38 0 56 26t23 90l153 10l-2 -19.5t-4 -51t-4 -69t-2 -73.5l-13 -16l-32.5 -9.5t-86 -19t-118.5 -9.5zM297 -242q-19 0 -39.5 6t-34.5 18t-14 28q0 12 17 33.5t32 36.5h9q1 -28 14.5 -42t34.5 -14q15 0 23.5 6.5t8.5 16.5q0 11 -13.5 22.5t-33.5 23
t-40 20.5l31 122h61l-16 -73q21 -10 46.5 -26t43.5 -36t18 -43q0 -27 -20 -49.5t-53.5 -36t-74.5 -13.5zM224 691l-19 13l-21 71q46 17 90.5 34.5t80 32.5t57 24l21.5 9l16 -5l36 -108l-7 -16l-22 -4t-58.5 -11.5t-81.5 -17.5t-92 -22z" />
    <glyph glyph-name="Ccircumflex" unicode="&#x108;" horiz-adv-x="603" 
d="M310 -11q-93 0 -159 38t-101 110.5t-35 173.5q0 84 23 149t68 109t110 67t150 23q32 0 68.5 -4t68.5 -9t52.5 -9l20.5 -4l8 -20l-5.5 -28t-12 -76.5t-10.5 -109.5l-154 -9l1 17t1 40q0 41 -15.5 57.5t-53.5 16.5q-35 0 -55 -16t-28.5 -54t-8.5 -104q0 -74 10.5 -122.5
t32 -71.5t54.5 -23q38 0 56 26t23 90l153 10l-2 -19.5t-4 -51t-4 -69t-2 -73.5l-13 -16l-32.5 -9.5t-86 -19t-118.5 -9.5zM229 709l-23 7l-46 62q30 26 59.5 53.5t54 50.5t39 37.5l14.5 14.5h27l14.5 -14.5t39 -37.5t54 -50.5t58.5 -53.5l-45 -62l-23 -7q-29 20 -60.5 39
t-51.5 30q-19 -11 -50.5 -30t-60.5 -39z" />
    <glyph glyph-name="Cdotaccent" unicode="&#x10a;" horiz-adv-x="603" 
d="M310 -11q-93 0 -159 38t-101 110.5t-35 173.5q0 84 23 149t68 109t110 67t150 23q32 0 68.5 -4t68.5 -9t52.5 -9l20.5 -4l8 -20l-5.5 -28t-12 -76.5t-10.5 -109.5l-154 -9l1 17t1 40q0 41 -15.5 57.5t-53.5 16.5q-35 0 -55 -16t-28.5 -54t-8.5 -104q0 -74 10.5 -122.5
t32 -71.5t54.5 -23q38 0 56 26t23 90l153 10l-2 -19.5t-4 -51t-4 -69t-2 -73.5l-13 -16l-32.5 -9.5t-86 -19t-118.5 -9.5zM334 681q-46 0 -70 24.5t-24 70.5q0 48 27.5 76t74.5 28q44 0 68.5 -25t24.5 -70q0 -48 -27 -76t-74 -28z" />
    <glyph glyph-name="D" unicode="D" horiz-adv-x="682" 
d="M319 -12l-15.5 2t-40 4t-52 4t-51.5 2q-28 0 -61.5 -2t-57.5 -4l-24 -2l8 93q38 6 51.5 23.5t13.5 59.5v335q0 32 -5.5 43t-19.5 11q-11 0 -21.5 -1l-10.5 -1l-10 14l9 81l17.5 -0.5t43 -1l51 -1t40.5 -0.5q17 0 44.5 1t55.5 2t47 2l19 1q105 0 175.5 -34t106 -100.5
t35.5 -166.5q0 -84 -24 -151t-69.5 -115t-110 -73t-144.5 -25zM314 526q-11 0 -15.5 -6t-5.5 -21q-5 -75 -7.5 -155t-2.5 -182q0 -19 3 -30t11 -15t22 -4q65 0 92 46t27 155q0 82 -11 128t-38 65t-75 19z" />
    <glyph glyph-name="uni01C4" unicode="&#x1c4;" horiz-adv-x="1276" 
d="M319 -12l-15.5 2t-40 4t-52 4t-51.5 2q-28 0 -61.5 -2t-57.5 -4l-24 -2l8 93q38 6 51.5 23.5t13.5 59.5v335q0 32 -5.5 43t-19.5 11q-11 0 -21.5 -1l-10.5 -1l-10 14l9 81l17.5 -0.5t43 -1l51 -1t40.5 -0.5q17 0 44.5 1t55.5 2t47 2l19 1q105 0 175.5 -34t106 -100.5
t35.5 -166.5q0 -84 -24 -151t-69.5 -115t-110 -73t-144.5 -25zM314 526q-11 0 -15.5 -6t-5.5 -21q-5 -75 -7.5 -155t-2.5 -182q0 -19 3 -30t11 -15t22 -4q65 0 92 46t27 155q0 82 -11 128t-38 65t-75 19zM721 -7l-36 58l326 491l-77 -10q-38 -7 -57.5 -17.5t-26 -32
t-8.5 -64.5l-126 -9l2 24t4.5 61t5 78.5t3.5 76.5l11 11l181 -11h331l25 -54q-56 -75 -107 -148t-94.5 -138t-77 -116.5t-54.5 -83.5l105 15q48 9 70 40.5t29 101.5l126 9l-3 -25.5t-7.5 -65t-8 -83.5t-4.5 -82l-21 -22l-429 6zM999 688l-15.5 12.5t-41.5 33.5t-57 45
t-62 47l35 62l23 7q34 -14 72 -28.5t60 -22.5q23 8 59.5 22.5t71.5 28.5l23 -7l36 -62q-31 -23 -62.5 -47t-57.5 -45t-41.5 -33.5l-15.5 -12.5h-27z" />
    <glyph glyph-name="Eth" unicode="&#xd0;" horiz-adv-x="704" 
d="M342 -12l-15.5 2t-40 4t-52 4t-51.5 2q-28 0 -61.5 -2t-57.5 -4l-24 -2l8 93q25 4 39 13t20 25.5t6 44.5v98h-96l-10 8l13 89h93v140q0 32 -5.5 43t-19.5 11q-11 0 -21.5 -1l-10.5 -1l-10 14l9 81l17.5 -0.5t43 -1l51 -1t40.5 -0.5q13 0 40 1t56 2t49.5 2l20.5 1
q105 0 175.5 -34t106 -100.5t35.5 -166.5q0 -84 -24 -151t-69.5 -115t-110 -73t-144.5 -25zM309 364l75 3l8 -10l-7 -90h-79v-105q0 -19 3 -30t11 -15t22 -4q65 0 92 46t27 155q0 82 -11 128t-38 65t-75 19q-11 0 -15.5 -6t-5.5 -21z" />
    <glyph glyph-name="Dcaron" unicode="&#x10e;" horiz-adv-x="682" 
d="M319 -12l-15.5 2t-40 4t-52 4t-51.5 2q-28 0 -61.5 -2t-57.5 -4l-24 -2l8 93q38 6 51.5 23.5t13.5 59.5v335q0 32 -5.5 43t-19.5 11q-11 0 -21.5 -1l-10.5 -1l-10 14l9 81l17.5 -0.5t43 -1l51 -1t40.5 -0.5q17 0 44.5 1t55.5 2t47 2l19 1q105 0 175.5 -34t106 -100.5
t35.5 -166.5q0 -84 -24 -151t-69.5 -115t-110 -73t-144.5 -25zM314 526q-11 0 -15.5 -6t-5.5 -21q-5 -75 -7.5 -155t-2.5 -182q0 -19 3 -30t11 -15t22 -4q65 0 92 46t27 155q0 82 -11 128t-38 65t-75 19zM333 688l-15.5 12.5t-41.5 33.5t-57 45t-62 47l35 62l23 7
q34 -14 72 -28.5t60 -22.5q23 8 59.5 22.5t71.5 28.5l23 -7l36 -62q-31 -23 -62.5 -47t-57.5 -45t-41.5 -33.5l-15.5 -12.5h-27z" />
    <glyph glyph-name="Dcroat" unicode="&#x110;" horiz-adv-x="704" 
d="M342 -12l-15.5 2t-40 4t-52 4t-51.5 2q-28 0 -61.5 -2t-57.5 -4l-24 -2l8 93q25 4 39 13t20 25.5t6 44.5v98h-96l-10 8l13 89h93v140q0 32 -5.5 43t-19.5 11q-11 0 -21.5 -1l-10.5 -1l-10 14l9 81l17.5 -0.5t43 -1l51 -1t40.5 -0.5q13 0 40 1t56 2t49.5 2l20.5 1
q105 0 175.5 -34t106 -100.5t35.5 -166.5q0 -84 -24 -151t-69.5 -115t-110 -73t-144.5 -25zM309 364l75 3l8 -10l-7 -90h-79v-105q0 -19 3 -30t11 -15t22 -4q65 0 92 46t27 155q0 82 -11 128t-38 65t-75 19q-11 0 -15.5 -6t-5.5 -21z" />
    <glyph glyph-name="uni1E0C" unicode="&#x1e0c;" horiz-adv-x="682" 
d="M319 -12l-15.5 2t-40 4t-52 4t-51.5 2q-28 0 -61.5 -2t-57.5 -4l-24 -2l8 93q38 6 51.5 23.5t13.5 59.5v335q0 32 -5.5 43t-19.5 11q-11 0 -21.5 -1l-10.5 -1l-10 14l9 81l17.5 -0.5t43 -1l51 -1t40.5 -0.5q17 0 44.5 1t55.5 2t47 2l19 1q105 0 175.5 -34t106 -100.5
t35.5 -166.5q0 -84 -24 -151t-69.5 -115t-110 -73t-144.5 -25zM314 526q-11 0 -15.5 -6t-5.5 -21q-5 -75 -7.5 -155t-2.5 -182q0 -19 3 -30t11 -15t22 -4q65 0 92 46t27 155q0 82 -11 128t-38 65t-75 19zM310 -232q-46 0 -70 24.5t-24 70.5q0 48 27.5 76t74.5 28
q44 0 68.5 -25t24.5 -70q0 -48 -27 -76t-74 -28z" />
    <glyph glyph-name="uni1E0E" unicode="&#x1e0e;" horiz-adv-x="682" 
d="M319 -12l-15.5 2t-40 4t-52 4t-51.5 2q-28 0 -61.5 -2t-57.5 -4l-24 -2l8 93q38 6 51.5 23.5t13.5 59.5v335q0 32 -5.5 43t-19.5 11q-11 0 -21.5 -1l-10.5 -1l-10 14l9 81l17.5 -0.5t43 -1l51 -1t40.5 -0.5q17 0 44.5 1t55.5 2t47 2l19 1q105 0 175.5 -34t106 -100.5
t35.5 -166.5q0 -84 -24 -151t-69.5 -115t-110 -73t-144.5 -25zM314 526q-11 0 -15.5 -6t-5.5 -21q-5 -75 -7.5 -155t-2.5 -182q0 -19 3 -30t11 -15t22 -4q65 0 92 46t27 155q0 82 -11 128t-38 65t-75 19zM180 -196l-16 15l19 109h15.5t39.5 -0.5t50.5 -0.5h48.5q25 0 54 1.5
t49.5 3l20.5 1.5l11 -18l-18 -109l-140 -1h-60.5t-52.5 -0.5z" />
    <glyph glyph-name="uni01C5" unicode="&#x1c5;" horiz-adv-x="1138" 
d="M319 -12l-15.5 2t-40 4t-52 4t-51.5 2q-28 0 -61.5 -2t-57.5 -4l-24 -2l8 93q38 6 51.5 23.5t13.5 59.5v335q0 32 -5.5 43t-19.5 11q-11 0 -21.5 -1l-10.5 -1l-10 14l9 81l17.5 -0.5t43 -1l51 -1t40.5 -0.5q17 0 44.5 1t55.5 2t47 2l19 1q105 0 175.5 -34t106 -100.5
t35.5 -166.5q0 -84 -24 -151t-69.5 -115t-110 -73t-144.5 -25zM314 526q-11 0 -15.5 -6t-5.5 -21q-5 -75 -7.5 -155t-2.5 -182q0 -19 3 -30t11 -15t22 -4q65 0 92 46t27 155q0 82 -11 128t-38 65t-75 19zM684 35l230 344l-52 -7q-37 -4 -57 -12t-27.5 -24.5t-9.5 -48.5
l-65 -5l1.5 19.5t3.5 50t3.5 63t2.5 57.5l8 8l132 -8h257l18 -40q-48 -66 -92.5 -130.5t-80 -118.5t-58.5 -89l59 9q47 7 69 32.5t29 80.5l66 5l-2.5 -21.5t-6 -54.5t-6 -68.5t-2.5 -64.5l-15 -16l-319 4l-60 -7zM915 515l-14.5 14.5t-39 37.5t-54 50.5t-58.5 53.5l45 62
l23 7q29 -20 61 -39t51 -30q20 11 51 30t60 39l23 -7l46 -62q-30 -26 -59.5 -53.5t-54 -50.5t-39 -37.5l-14.5 -14.5h-27z" />
    <glyph glyph-name="E" unicode="E" horiz-adv-x="603" 
d="M13 -10l9 92q38 6 51.5 24.5t13.5 63.5l1 335q0 33 -5 43.5t-22 10.5q-5 0 -13 -0.5t-13 -1.5l-12 14l9 79q31 0 72.5 -1t84.5 -1.5t76 -0.5q63 0 123 1.5t109 4.5t77 6l13 -16q-5 -27 -9.5 -62t-8 -71t-5.5 -66l-138 -9q1 8 1.5 19t0.5 18q0 17 -4 27.5t-14.5 16.5
t-30 8.5t-49.5 2.5q-14 0 -21.5 -2t-10 -8t-2.5 -17l-11 -198l-1 -127q0 -26 3.5 -39t13.5 -17t31 -4q32 0 53 4t33 15t19 32t11 55l128 9l12 -15q-8 -43 -15.5 -100.5t-12.5 -105.5l-15 -16q-48 2 -105.5 3.5t-114 2.5t-101.5 1q-43 0 -101.5 -2.5t-109.5 -7.5zM275 259
l6 128h22.5t34 -0.5t34.5 -0.5t50 2t60 4l12 -14l-14 -115q-24 1 -59 2t-61 1t-49.5 -3t-35.5 -4z" />
    <glyph glyph-name="Eacute" unicode="&#xc9;" horiz-adv-x="603" 
d="M13 -10l9 92q38 6 51.5 24.5t13.5 63.5l1 335q0 33 -5 43.5t-22 10.5q-5 0 -13 -0.5t-13 -1.5l-12 14l9 79q31 0 72.5 -1t84.5 -1.5t76 -0.5q63 0 123 1.5t109 4.5t77 6l13 -16q-5 -27 -9.5 -62t-8 -71t-5.5 -66l-138 -9q1 8 1.5 19t0.5 18q0 17 -4 27.5t-14.5 16.5
t-30 8.5t-49.5 2.5q-14 0 -21.5 -2t-10 -8t-2.5 -17l-11 -198l-1 -127q0 -26 3.5 -39t13.5 -17t31 -4q32 0 53 4t33 15t19 32t11 55l128 9l12 -15q-8 -43 -15.5 -100.5t-12.5 -105.5l-15 -16q-48 2 -105.5 3.5t-114 2.5t-101.5 1q-43 0 -101.5 -2.5t-109.5 -7.5zM275 259
l6 128h22.5t34 -0.5t34.5 -0.5t50 2t60 4l12 -14l-14 -115q-24 1 -59 2t-61 1t-49.5 -3t-35.5 -4zM254 691l-19 13l-21 71q46 17 90.5 34.5t80 32.5t57 24l21.5 9l16 -5l36 -108l-7 -16l-22 -4t-58.5 -11.5t-81.5 -17.5t-92 -22z" />
    <glyph glyph-name="Ebreve" unicode="&#x114;" horiz-adv-x="603" 
d="M13 -10l9 92q38 6 51.5 24.5t13.5 63.5l1 335q0 33 -5 43.5t-22 10.5q-5 0 -13 -0.5t-13 -1.5l-12 14l9 79q31 0 72.5 -1t84.5 -1.5t76 -0.5q63 0 123 1.5t109 4.5t77 6l13 -16q-5 -27 -9.5 -62t-8 -71t-5.5 -66l-138 -9q1 8 1.5 19t0.5 18q0 17 -4 27.5t-14.5 16.5
t-30 8.5t-49.5 2.5q-14 0 -21.5 -2t-10 -8t-2.5 -17l-11 -198l-1 -127q0 -26 3.5 -39t13.5 -17t31 -4q32 0 53 4t33 15t19 32t11 55l128 9l12 -15q-8 -43 -15.5 -100.5t-12.5 -105.5l-15 -16q-48 2 -105.5 3.5t-114 2.5t-101.5 1q-43 0 -101.5 -2.5t-109.5 -7.5zM275 259
l6 128h22.5t34 -0.5t34.5 -0.5t50 2t60 4l12 -14l-14 -115q-24 1 -59 2t-61 1t-49.5 -3t-35.5 -4zM327 682q-51 0 -87 20t-58 51t-33 65l40 62l27 7q15 -35 44.5 -52.5t66.5 -17.5t66.5 17.5t44.5 52.5l27 -7l40 -62q-10 -34 -32.5 -65t-58.5 -51t-87 -20z" />
    <glyph glyph-name="Ecaron" unicode="&#x11a;" horiz-adv-x="603" 
d="M13 -10l9 92q38 6 51.5 24.5t13.5 63.5l1 335q0 33 -5 43.5t-22 10.5q-5 0 -13 -0.5t-13 -1.5l-12 14l9 79q31 0 72.5 -1t84.5 -1.5t76 -0.5q63 0 123 1.5t109 4.5t77 6l13 -16q-5 -27 -9.5 -62t-8 -71t-5.5 -66l-138 -9q1 8 1.5 19t0.5 18q0 17 -4 27.5t-14.5 16.5
t-30 8.5t-49.5 2.5q-14 0 -21.5 -2t-10 -8t-2.5 -17l-11 -198l-1 -127q0 -26 3.5 -39t13.5 -17t31 -4q32 0 53 4t33 15t19 32t11 55l128 9l12 -15q-8 -43 -15.5 -100.5t-12.5 -105.5l-15 -16q-48 2 -105.5 3.5t-114 2.5t-101.5 1q-43 0 -101.5 -2.5t-109.5 -7.5zM275 259
l6 128h22.5t34 -0.5t34.5 -0.5t50 2t60 4l12 -14l-14 -115q-24 1 -59 2t-61 1t-49.5 -3t-35.5 -4zM312 688l-15.5 12.5t-41.5 33.5t-57 45t-62 47l35 62l23 7q34 -14 72 -28.5t60 -22.5q23 8 59.5 22.5t71.5 28.5l23 -7l36 -62q-31 -23 -62.5 -47t-57.5 -45t-41.5 -33.5
l-15.5 -12.5h-27z" />
    <glyph glyph-name="uni1E1C" unicode="&#x1e1c;" horiz-adv-x="603" 
d="M13 -10l9 92q38 6 51.5 24.5t13.5 63.5l1 335q0 33 -5 43.5t-22 10.5q-5 0 -13 -0.5t-13 -1.5l-12 14l9 79q31 0 72.5 -1t84.5 -1.5t76 -0.5q63 0 123 1.5t109 4.5t77 6l13 -16q-5 -27 -9.5 -62t-8 -71t-5.5 -66l-138 -9q1 8 1.5 19t0.5 18q0 17 -4 27.5t-14.5 16.5
t-30 8.5t-49.5 2.5q-14 0 -21.5 -2t-10 -8t-2.5 -17l-11 -198l-1 -127q0 -26 3.5 -39t13.5 -17t31 -4q32 0 53 4t33 15t19 32t11 55l128 9l12 -15q-8 -43 -15.5 -100.5t-12.5 -105.5l-15 -16q-48 2 -105.5 3.5t-114 2.5t-101.5 1q-43 0 -101.5 -2.5t-109.5 -7.5zM275 259
l6 128h22.5t34 -0.5t34.5 -0.5t50 2t60 4l12 -14l-14 -115q-24 1 -59 2t-61 1t-49.5 -3t-35.5 -4zM301 -242q-19 0 -39.5 6t-34.5 18t-14 28q0 12 17 33.5t32 36.5h9q1 -28 14.5 -42t34.5 -14q15 0 23.5 6.5t8.5 16.5q0 11 -13.5 22.5t-33.5 23t-40 20.5l31 122h61l-16 -73
q21 -10 46.5 -26t43.5 -36t18 -43q0 -27 -20 -49.5t-53.5 -36t-74.5 -13.5zM326 675q-51 0 -87 20t-58 51t-33 65l40 62l27 7q15 -35 44.5 -52.5t66.5 -17.5t66.5 17.5t44.5 52.5l27 -7l40 -62q-10 -34 -32.5 -65t-58.5 -51t-87 -20z" />
    <glyph glyph-name="Ecircumflex" unicode="&#xca;" horiz-adv-x="603" 
d="M13 -10l9 92q38 6 51.5 24.5t13.5 63.5l1 335q0 33 -5 43.5t-22 10.5q-5 0 -13 -0.5t-13 -1.5l-12 14l9 79q31 0 72.5 -1t84.5 -1.5t76 -0.5q63 0 123 1.5t109 4.5t77 6l13 -16q-5 -27 -9.5 -62t-8 -71t-5.5 -66l-138 -9q1 8 1.5 19t0.5 18q0 17 -4 27.5t-14.5 16.5
t-30 8.5t-49.5 2.5q-14 0 -21.5 -2t-10 -8t-2.5 -17l-11 -198l-1 -127q0 -26 3.5 -39t13.5 -17t31 -4q32 0 53 4t33 15t19 32t11 55l128 9l12 -15q-8 -43 -15.5 -100.5t-12.5 -105.5l-15 -16q-48 2 -105.5 3.5t-114 2.5t-101.5 1q-43 0 -101.5 -2.5t-109.5 -7.5zM275 259
l6 128h22.5t34 -0.5t34.5 -0.5t50 2t60 4l12 -14l-14 -115q-24 1 -59 2t-61 1t-49.5 -3t-35.5 -4zM197 701l-23 7l-36 62q32 23 63 47t57 45t41.5 33.5l15.5 12.5h27q0 2 15.5 -10t41.5 -33t57 -46t62 -49l-35 -62l-23 -7q-34 14 -71.5 28.5t-60.5 22.5q-22 -8 -59 -22.5
t-72 -28.5z" />
    <glyph glyph-name="uni1EBE" unicode="&#x1ebe;" horiz-adv-x="603" 
d="M13 -10l9 92q38 6 51.5 24.5t13.5 63.5l1 335q0 33 -5 43.5t-22 10.5q-5 0 -13 -0.5t-13 -1.5l-12 14l9 79q31 0 72.5 -1t84.5 -1.5t76 -0.5q63 0 123 1.5t109 4.5t77 6l13 -16q-5 -27 -9.5 -62t-8 -71t-5.5 -66l-138 -9q1 8 1.5 19t0.5 18q0 17 -4 27.5t-14.5 16.5
t-30 8.5t-49.5 2.5q-14 0 -21.5 -2t-10 -8t-2.5 -17l-11 -198l-1 -127q0 -26 3.5 -39t13.5 -17t31 -4q32 0 53 4t33 15t19 32t11 55l128 9l12 -15q-8 -43 -15.5 -100.5t-12.5 -105.5l-15 -16q-48 2 -105.5 3.5t-114 2.5t-101.5 1q-43 0 -101.5 -2.5t-109.5 -7.5zM275 259
l6 128h22.5t34 -0.5t34.5 -0.5t50 2t60 4l12 -14l-14 -115q-24 1 -59 2t-61 1t-49.5 -3t-35.5 -4zM206 672l-21 7l-33 57q29 21 58 43t52.5 41.5t38 31l14.5 11.5h25l24.5 -19.5t62 -49t75.5 -58.5l-32 -57l-22 -7q-31 14 -65.5 27t-55.5 20q-21 -7 -54.5 -20t-66.5 -27z
M462 813l-61 45l74 161l15 6l90 -52l4 -17l-99 -142z" />
    <glyph glyph-name="uni1EC6" unicode="&#x1ec6;" horiz-adv-x="603" 
d="M13 -10l9 92q38 6 51.5 24.5t13.5 63.5l1 335q0 33 -5 43.5t-22 10.5q-5 0 -13 -0.5t-13 -1.5l-12 14l9 79q31 0 72.5 -1t84.5 -1.5t76 -0.5q63 0 123 1.5t109 4.5t77 6l13 -16q-5 -27 -9.5 -62t-8 -71t-5.5 -66l-138 -9q1 8 1.5 19t0.5 18q0 17 -4 27.5t-14.5 16.5
t-30 8.5t-49.5 2.5q-14 0 -21.5 -2t-10 -8t-2.5 -17l-11 -198l-1 -127q0 -26 3.5 -39t13.5 -17t31 -4q32 0 53 4t33 15t19 32t11 55l128 9l12 -15q-8 -43 -15.5 -100.5t-12.5 -105.5l-15 -16q-48 2 -105.5 3.5t-114 2.5t-101.5 1q-43 0 -101.5 -2.5t-109.5 -7.5zM275 259
l6 128h22.5t34 -0.5t34.5 -0.5t50 2t60 4l12 -14l-14 -115q-24 1 -59 2t-61 1t-49.5 -3t-35.5 -4zM197 701l-23 7l-36 62q32 23 63 47t57 45t41.5 33.5l15.5 12.5h27q0 2 15.5 -10t41.5 -33t57 -46t62 -49l-35 -62l-23 -7q-34 14 -71.5 28.5t-60.5 22.5q-22 -8 -59 -22.5
t-72 -28.5zM315 -232q-46 0 -70 24.5t-24 70.5q0 48 27.5 76t74.5 28q44 0 68.5 -25t24.5 -70q0 -48 -27 -76t-74 -28z" />
    <glyph glyph-name="uni1EC0" unicode="&#x1ec0;" horiz-adv-x="603" 
d="M13 -10l9 92q38 6 51.5 24.5t13.5 63.5l1 335q0 33 -5 43.5t-22 10.5q-5 0 -13 -0.5t-13 -1.5l-12 14l9 79q31 0 72.5 -1t84.5 -1.5t76 -0.5q63 0 123 1.5t109 4.5t77 6l13 -16q-5 -27 -9.5 -62t-8 -71t-5.5 -66l-138 -9q1 8 1.5 19t0.5 18q0 17 -4 27.5t-14.5 16.5
t-30 8.5t-49.5 2.5q-14 0 -21.5 -2t-10 -8t-2.5 -17l-11 -198l-1 -127q0 -26 3.5 -39t13.5 -17t31 -4q32 0 53 4t33 15t19 32t11 55l128 9l12 -15q-8 -43 -15.5 -100.5t-12.5 -105.5l-15 -16q-48 2 -105.5 3.5t-114 2.5t-101.5 1q-43 0 -101.5 -2.5t-109.5 -7.5zM275 259
l6 128h22.5t34 -0.5t34.5 -0.5t50 2t60 4l12 -14l-14 -115q-24 1 -59 2t-61 1t-49.5 -3t-35.5 -4zM479 808l-23 1l-99 142l4 17l89 51l15 -6l74 -161zM152 736q29 21 58 43t52.5 41.5t38 31l14.5 11.5h25l24.5 -19.5t62 -49t75.5 -58.5l-32 -57l-22 -7q-31 14 -65.5 27
t-55.5 20q-21 -7 -54.5 -20t-66.5 -27l-21 7z" />
    <glyph glyph-name="uni1EC2" unicode="&#x1ec2;" horiz-adv-x="603" 
d="M13 -10l9 92q38 6 51.5 24.5t13.5 63.5l1 335q0 33 -5 43.5t-22 10.5q-5 0 -13 -0.5t-13 -1.5l-12 14l9 79q31 0 72.5 -1t84.5 -1.5t76 -0.5q63 0 123 1.5t109 4.5t77 6l13 -16q-5 -27 -9.5 -62t-8 -71t-5.5 -66l-138 -9q1 8 1.5 19t0.5 18q0 17 -4 27.5t-14.5 16.5
t-30 8.5t-49.5 2.5q-14 0 -21.5 -2t-10 -8t-2.5 -17l-11 -198l-1 -127q0 -26 3.5 -39t13.5 -17t31 -4q32 0 53 4t33 15t19 32t11 55l128 9l12 -15q-8 -43 -15.5 -100.5t-12.5 -105.5l-15 -16q-48 2 -105.5 3.5t-114 2.5t-101.5 1q-43 0 -101.5 -2.5t-109.5 -7.5zM275 259
l6 128h22.5t34 -0.5t34.5 -0.5t50 2t60 4l12 -14l-14 -115q-24 1 -59 2t-61 1t-49.5 -3t-35.5 -4zM454 804l-56 84q29 20 42.5 37.5t13.5 35.5q0 15 -9.5 23.5t-29.5 8.5q-15 0 -30 -6t-25.5 -12.5l-10.5 -6.5l-25 39l16 14t40 31.5t48 25.5q60 0 94.5 -24.5t34.5 -68.5
q0 -22 -13.5 -42.5t-50.5 -52.5l29 -45zM152 736q29 21 58 43t52.5 41.5t38 31l14.5 11.5h25l24.5 -19.5t62 -49t75.5 -58.5l-32 -57l-22 -7q-31 14 -65.5 27t-55.5 20q-21 -7 -54.5 -20t-66.5 -27l-21 7z" />
    <glyph glyph-name="uni1EC4" unicode="&#x1ec4;" horiz-adv-x="603" 
d="M13 -10l9 92q38 6 51.5 24.5t13.5 63.5l1 335q0 33 -5 43.5t-22 10.5q-5 0 -13 -0.5t-13 -1.5l-12 14l9 79q31 0 72.5 -1t84.5 -1.5t76 -0.5q63 0 123 1.5t109 4.5t77 6l13 -16q-5 -27 -9.5 -62t-8 -71t-5.5 -66l-138 -9q1 8 1.5 19t0.5 18q0 17 -4 27.5t-14.5 16.5
t-30 8.5t-49.5 2.5q-14 0 -21.5 -2t-10 -8t-2.5 -17l-11 -198l-1 -127q0 -26 3.5 -39t13.5 -17t31 -4q32 0 53 4t33 15t19 32t11 55l128 9l12 -15q-8 -43 -15.5 -100.5t-12.5 -105.5l-15 -16q-48 2 -105.5 3.5t-114 2.5t-101.5 1q-43 0 -101.5 -2.5t-109.5 -7.5zM275 259
l6 128h22.5t34 -0.5t34.5 -0.5t50 2t60 4l12 -14l-14 -115q-24 1 -59 2t-61 1t-49.5 -3t-35.5 -4zM152 736q29 21 58 43t52.5 41.5t38 31l14.5 11.5h25l24.5 -19.5t62 -49t75.5 -58.5l-32 -57l-22 -7q-31 14 -65.5 27t-55.5 20q-21 -7 -54.5 -20t-66.5 -27l-21 7zM200 847
l-54 49v15l74 106l16 4q16 0 44.5 -8t56 -16t41.5 -8q11 0 25.5 13.5t25 27l10.5 13.5h15l54 -50v-15l-74 -105l-16 -4q-16 0 -44.5 8t-56 15.5t-41.5 7.5q-11 0 -25.5 -13t-25 -26.5l-10.5 -13.5h-15z" />
    <glyph glyph-name="uni0204" unicode="&#x204;" horiz-adv-x="603" 
d="M13 -10l9 92q38 6 51.5 24.5t13.5 63.5l1 335q0 33 -5 43.5t-22 10.5q-5 0 -13 -0.5t-13 -1.5l-12 14l9 79q31 0 72.5 -1t84.5 -1.5t76 -0.5q63 0 123 1.5t109 4.5t77 6l13 -16q-5 -27 -9.5 -62t-8 -71t-5.5 -66l-138 -9q1 8 1.5 19t0.5 18q0 17 -4 27.5t-14.5 16.5
t-30 8.5t-49.5 2.5q-14 0 -21.5 -2t-10 -8t-2.5 -17l-11 -198l-1 -127q0 -26 3.5 -39t13.5 -17t31 -4q32 0 53 4t33 15t19 32t11 55l128 9l12 -15q-8 -43 -15.5 -100.5t-12.5 -105.5l-15 -16q-48 2 -105.5 3.5t-114 2.5t-101.5 1q-43 0 -101.5 -2.5t-109.5 -7.5zM275 259
l6 128h22.5t34 -0.5t34.5 -0.5t50 2t60 4l12 -14l-14 -115q-24 1 -59 2t-61 1t-49.5 -3t-35.5 -4zM460 674q-42 29 -81.5 54t-65.5 40.5l-26 15.5v15l66 81l15 -1l21.5 -22.5t55.5 -57t72 -72.5l-38 -48zM262 674q-42 29 -81.5 54t-65.5 40.5l-26 15.5v15l66 81l15 -1
l21.5 -22.5t55.5 -57t72 -72.5l-38 -48z" />
    <glyph glyph-name="Edieresis" unicode="&#xcb;" horiz-adv-x="603" 
d="M13 -10l9 92q38 6 51.5 24.5t13.5 63.5l1 335q0 33 -5 43.5t-22 10.5q-5 0 -13 -0.5t-13 -1.5l-12 14l9 79q31 0 72.5 -1t84.5 -1.5t76 -0.5q63 0 123 1.5t109 4.5t77 6l13 -16q-5 -27 -9.5 -62t-8 -71t-5.5 -66l-138 -9q1 8 1.5 19t0.5 18q0 17 -4 27.5t-14.5 16.5
t-30 8.5t-49.5 2.5q-14 0 -21.5 -2t-10 -8t-2.5 -17l-11 -198l-1 -127q0 -26 3.5 -39t13.5 -17t31 -4q32 0 53 4t33 15t19 32t11 55l128 9l12 -15q-8 -43 -15.5 -100.5t-12.5 -105.5l-15 -16q-48 2 -105.5 3.5t-114 2.5t-101.5 1q-43 0 -101.5 -2.5t-109.5 -7.5zM275 259
l6 128h22.5t34 -0.5t34.5 -0.5t50 2t60 4l12 -14l-14 -115q-24 1 -59 2t-61 1t-49.5 -3t-35.5 -4zM420 685q-39 0 -59.5 20.5t-20.5 59.5q0 40 23 63.5t63 23.5q38 0 58.5 -21t20.5 -59q0 -40 -23 -63.5t-62 -23.5zM227 685q-38 0 -58.5 20.5t-20.5 59.5q0 40 23 63.5
t63 23.5q38 0 58.5 -21t20.5 -59q0 -40 -23 -63.5t-63 -23.5z" />
    <glyph glyph-name="Edotaccent" unicode="&#x116;" horiz-adv-x="603" 
d="M13 -10l9 92q38 6 51.5 24.5t13.5 63.5l1 335q0 33 -5 43.5t-22 10.5q-5 0 -13 -0.5t-13 -1.5l-12 14l9 79q31 0 72.5 -1t84.5 -1.5t76 -0.5q63 0 123 1.5t109 4.5t77 6l13 -16q-5 -27 -9.5 -62t-8 -71t-5.5 -66l-138 -9q1 8 1.5 19t0.5 18q0 17 -4 27.5t-14.5 16.5
t-30 8.5t-49.5 2.5q-14 0 -21.5 -2t-10 -8t-2.5 -17l-11 -198l-1 -127q0 -26 3.5 -39t13.5 -17t31 -4q32 0 53 4t33 15t19 32t11 55l128 9l12 -15q-8 -43 -15.5 -100.5t-12.5 -105.5l-15 -16q-48 2 -105.5 3.5t-114 2.5t-101.5 1q-43 0 -101.5 -2.5t-109.5 -7.5zM275 259
l6 128h22.5t34 -0.5t34.5 -0.5t50 2t60 4l12 -14l-14 -115q-24 1 -59 2t-61 1t-49.5 -3t-35.5 -4zM325 681q-46 0 -70 24.5t-24 70.5q0 48 27.5 76t74.5 28q44 0 68.5 -25t24.5 -70q0 -48 -27 -76t-74 -28z" />
    <glyph glyph-name="uni1EB8" unicode="&#x1eb8;" horiz-adv-x="603" 
d="M13 -10l9 92q38 6 51.5 24.5t13.5 63.5l1 335q0 33 -5 43.5t-22 10.5q-5 0 -13 -0.5t-13 -1.5l-12 14l9 79q31 0 72.5 -1t84.5 -1.5t76 -0.5q63 0 123 1.5t109 4.5t77 6l13 -16q-5 -27 -9.5 -62t-8 -71t-5.5 -66l-138 -9q1 8 1.5 19t0.5 18q0 17 -4 27.5t-14.5 16.5
t-30 8.5t-49.5 2.5q-14 0 -21.5 -2t-10 -8t-2.5 -17l-11 -198l-1 -127q0 -26 3.5 -39t13.5 -17t31 -4q32 0 53 4t33 15t19 32t11 55l128 9l12 -15q-8 -43 -15.5 -100.5t-12.5 -105.5l-15 -16q-48 2 -105.5 3.5t-114 2.5t-101.5 1q-43 0 -101.5 -2.5t-109.5 -7.5zM275 259
l6 128h22.5t34 -0.5t34.5 -0.5t50 2t60 4l12 -14l-14 -115q-24 1 -59 2t-61 1t-49.5 -3t-35.5 -4zM315 -232q-46 0 -70 24.5t-24 70.5q0 48 27.5 76t74.5 28q44 0 68.5 -25t24.5 -70q0 -48 -27 -76t-74 -28z" />
    <glyph glyph-name="Egrave" unicode="&#xc8;" horiz-adv-x="603" 
d="M13 -10l9 92q38 6 51.5 24.5t13.5 63.5l1 335q0 33 -5 43.5t-22 10.5q-5 0 -13 -0.5t-13 -1.5l-12 14l9 79q31 0 72.5 -1t84.5 -1.5t76 -0.5q63 0 123 1.5t109 4.5t77 6l13 -16q-5 -27 -9.5 -62t-8 -71t-5.5 -66l-138 -9q1 8 1.5 19t0.5 18q0 17 -4 27.5t-14.5 16.5
t-30 8.5t-49.5 2.5q-14 0 -21.5 -2t-10 -8t-2.5 -17l-11 -198l-1 -127q0 -26 3.5 -39t13.5 -17t31 -4q32 0 53 4t33 15t19 32t11 55l128 9l12 -15q-8 -43 -15.5 -100.5t-12.5 -105.5l-15 -16q-48 2 -105.5 3.5t-114 2.5t-101.5 1q-43 0 -101.5 -2.5t-109.5 -7.5zM275 259
l6 128h22.5t34 -0.5t34.5 -0.5t50 2t60 4l12 -14l-14 -115q-24 1 -59 2t-61 1t-49.5 -3t-35.5 -4zM404 691q-46 12 -91.5 22t-82 17.5t-58.5 11.5l-22 4l-7 16l36 108l16 5l21.5 -9t57 -24t80 -32.5t90.5 -34.5l-21 -71z" />
    <glyph glyph-name="uni1EBA" unicode="&#x1eba;" horiz-adv-x="603" 
d="M13 -10l9 92q38 6 51.5 24.5t13.5 63.5l1 335q0 33 -5 43.5t-22 10.5q-5 0 -13 -0.5t-13 -1.5l-12 14l9 79q31 0 72.5 -1t84.5 -1.5t76 -0.5q63 0 123 1.5t109 4.5t77 6l13 -16q-5 -27 -9.5 -62t-8 -71t-5.5 -66l-138 -9q1 8 1.5 19t0.5 18q0 17 -4 27.5t-14.5 16.5
t-30 8.5t-49.5 2.5q-14 0 -21.5 -2t-10 -8t-2.5 -17l-11 -198l-1 -127q0 -26 3.5 -39t13.5 -17t31 -4q32 0 53 4t33 15t19 32t11 55l128 9l12 -15q-8 -43 -15.5 -100.5t-12.5 -105.5l-15 -16q-48 2 -105.5 3.5t-114 2.5t-101.5 1q-43 0 -101.5 -2.5t-109.5 -7.5zM275 259
l6 128h22.5t34 -0.5t34.5 -0.5t50 2t60 4l12 -14l-14 -115q-24 1 -59 2t-61 1t-49.5 -3t-35.5 -4zM316 657l-59 88q31 21 45 39.5t14 37.5q0 16 -10.5 25t-30.5 9q-16 0 -32 -6.5t-27 -13.5l-11 -7l-26 41l17 15t42 33t50 27q63 0 99.5 -25.5t36.5 -72.5q0 -23 -14.5 -44.5
t-52.5 -55.5l30 -47z" />
    <glyph glyph-name="uni0206" unicode="&#x206;" horiz-adv-x="603" 
d="M13 -10l9 92q38 6 51.5 24.5t13.5 63.5l1 335q0 33 -5 43.5t-22 10.5q-5 0 -13 -0.5t-13 -1.5l-12 14l9 79q31 0 72.5 -1t84.5 -1.5t76 -0.5q63 0 123 1.5t109 4.5t77 6l13 -16q-5 -27 -9.5 -62t-8 -71t-5.5 -66l-138 -9q1 8 1.5 19t0.5 18q0 17 -4 27.5t-14.5 16.5
t-30 8.5t-49.5 2.5q-14 0 -21.5 -2t-10 -8t-2.5 -17l-11 -198l-1 -127q0 -26 3.5 -39t13.5 -17t31 -4q32 0 53 4t33 15t19 32t11 55l128 9l12 -15q-8 -43 -15.5 -100.5t-12.5 -105.5l-15 -16q-48 2 -105.5 3.5t-114 2.5t-101.5 1q-43 0 -101.5 -2.5t-109.5 -7.5zM275 259
l6 128h22.5t34 -0.5t34.5 -0.5t50 2t60 4l12 -14l-14 -115q-24 1 -59 2t-61 1t-49.5 -3t-35.5 -4zM326 760q-37 0 -66.5 -17.5t-44.5 -52.5l-27 7l-40 62q11 34 33 65t58 51t87 20t87 -20t58.5 -51t32.5 -65l-40 -62l-27 -7q-15 35 -44.5 52.5t-66.5 17.5z" />
    <glyph glyph-name="Emacron" unicode="&#x112;" horiz-adv-x="603" 
d="M13 -10l9 92q38 6 51.5 24.5t13.5 63.5l1 335q0 33 -5 43.5t-22 10.5q-5 0 -13 -0.5t-13 -1.5l-12 14l9 79q31 0 72.5 -1t84.5 -1.5t76 -0.5q63 0 123 1.5t109 4.5t77 6l13 -16q-5 -27 -9.5 -62t-8 -71t-5.5 -66l-138 -9q1 8 1.5 19t0.5 18q0 17 -4 27.5t-14.5 16.5
t-30 8.5t-49.5 2.5q-14 0 -21.5 -2t-10 -8t-2.5 -17l-11 -198l-1 -127q0 -26 3.5 -39t13.5 -17t31 -4q32 0 53 4t33 15t19 32t11 55l128 9l12 -15q-8 -43 -15.5 -100.5t-12.5 -105.5l-15 -16q-48 2 -105.5 3.5t-114 2.5t-101.5 1q-43 0 -101.5 -2.5t-109.5 -7.5zM275 259
l6 128h22.5t34 -0.5t34.5 -0.5t50 2t60 4l12 -14l-14 -115q-24 1 -59 2t-61 1t-49.5 -3t-35.5 -4zM193 694l-16 15l19 109h15.5t39.5 -0.5t50.5 -0.5h48.5q25 0 54 1.5t49.5 3l20.5 1.5l11 -18l-18 -109l-140 -1h-60.5t-52.5 -0.5z" />
    <glyph glyph-name="uni1E16" unicode="&#x1e16;" horiz-adv-x="603" 
d="M13 -10l9 92q38 6 51.5 24.5t13.5 63.5l1 335q0 33 -5 43.5t-22 10.5q-5 0 -13 -0.5t-13 -1.5l-12 14l9 79q31 0 72.5 -1t84.5 -1.5t76 -0.5q63 0 123 1.5t109 4.5t77 6l13 -16q-5 -27 -9.5 -62t-8 -71t-5.5 -66l-138 -9q1 8 1.5 19t0.5 18q0 17 -4 27.5t-14.5 16.5
t-30 8.5t-49.5 2.5q-14 0 -21.5 -2t-10 -8t-2.5 -17l-11 -198l-1 -127q0 -26 3.5 -39t13.5 -17t31 -4q32 0 53 4t33 15t19 32t11 55l128 9l12 -15q-8 -43 -15.5 -100.5t-12.5 -105.5l-15 -16q-48 2 -105.5 3.5t-114 2.5t-101.5 1q-43 0 -101.5 -2.5t-109.5 -7.5zM275 259
l6 128h22.5t34 -0.5t34.5 -0.5t50 2t60 4l12 -14l-14 -115q-24 1 -59 2t-61 1t-49.5 -3t-35.5 -4zM188 692l-16 15l19 109h15.5t39.5 -0.5t50.5 -0.5h48.5q25 0 54 1.5t49.5 3l20.5 1.5l11 -18l-18 -109l-140 -1h-60.5t-52.5 -0.5zM216 841l-19 13l-21 71q46 17 90.5 34.5
t80 32.5t57 24l21.5 9l16 -5l36 -108l-7 -16l-22 -4t-58.5 -11.5t-81.5 -17.5t-92 -22z" />
    <glyph glyph-name="uni1E14" unicode="&#x1e14;" horiz-adv-x="603" 
d="M13 -10l9 92q38 6 51.5 24.5t13.5 63.5l1 335q0 33 -5 43.5t-22 10.5q-5 0 -13 -0.5t-13 -1.5l-12 14l9 79q31 0 72.5 -1t84.5 -1.5t76 -0.5q63 0 123 1.5t109 4.5t77 6l13 -16q-5 -27 -9.5 -62t-8 -71t-5.5 -66l-138 -9q1 8 1.5 19t0.5 18q0 17 -4 27.5t-14.5 16.5
t-30 8.5t-49.5 2.5q-14 0 -21.5 -2t-10 -8t-2.5 -17l-11 -198l-1 -127q0 -26 3.5 -39t13.5 -17t31 -4q32 0 53 4t33 15t19 32t11 55l128 9l12 -15q-8 -43 -15.5 -100.5t-12.5 -105.5l-15 -16q-48 2 -105.5 3.5t-114 2.5t-101.5 1q-43 0 -101.5 -2.5t-109.5 -7.5zM275 259
l6 128h22.5t34 -0.5t34.5 -0.5t50 2t60 4l12 -14l-14 -115q-24 1 -59 2t-61 1t-49.5 -3t-35.5 -4zM186 692l-16 15l19 109h15.5t39.5 -0.5t50.5 -0.5h48.5q25 0 54 1.5t49.5 3l20.5 1.5l11 -18l-18 -109l-140 -1h-60.5t-52.5 -0.5zM442 841q-46 12 -91.5 22t-82 17.5
t-58.5 11.5l-22 4l-7 16l36 108l16 5l21.5 -9t57 -24t80 -32.5t90.5 -34.5l-21 -71z" />
    <glyph glyph-name="Eogonek" unicode="&#x118;" horiz-adv-x="603" 
d="M13 -10l9 92q38 6 51.5 24.5t13.5 63.5l1 335q0 33 -5 43.5t-22 10.5q-5 0 -13 -0.5t-13 -1.5l-12 14l9 79q31 0 72.5 -1t84.5 -1.5t76 -0.5q63 0 123 1.5t109 4.5t77 6l13 -16q-5 -27 -9.5 -62t-8 -71t-5.5 -66l-138 -9q1 8 1.5 19t0.5 18q0 17 -4 27.5t-14.5 16.5
t-30 8.5t-49.5 2.5q-14 0 -21.5 -2t-10 -8t-2.5 -17l-11 -198l-1 -127q0 -26 3.5 -39t13.5 -17t31 -4q32 0 53 4t33 15t19 32t11 55l128 9l12 -15q-8 -43 -15.5 -100.5t-12.5 -105.5l-15 -16q-48 2 -105.5 3.5t-114 2.5t-101.5 1q-43 0 -101.5 -2.5t-109.5 -7.5zM275 259
l6 128h22.5t34 -0.5t34.5 -0.5t50 2t60 4l12 -14l-14 -115q-24 1 -59 2t-61 1t-49.5 -3t-35.5 -4zM456 -242q-55 0 -90 29t-35 75q0 14 4.5 28t16.5 33t35.5 47.5t60.5 71.5h82q-28 -48 -44.5 -78.5t-23.5 -49t-7 -30.5q0 -10 6 -16t16 -6q12 0 27.5 6.5t31.5 16.5l33 -52
q-36 -35 -63.5 -53.5t-49.5 -21.5z" />
    <glyph glyph-name="uni01B7" unicode="&#x1b7;" horiz-adv-x="589" 
d="M238 -12q-52 0 -105.5 5t-84.5 12l-12 16q3 16 4 38t1 54.5t-1 80.5l14 15l121 8q-1 -51 19.5 -73.5t66.5 -22.5q42 0 63 18t21 52q0 42 -28 60.5t-105 19.5l-12 14l6 62l66 39q158 -7 228 -51.5t70 -137.5q0 -70 -37 -116t-111 -69.5t-184 -23.5zM206 347l232 260
l-11 -97h-175q-27 0 -41.5 -5.5t-21 -20.5t-10.5 -45l-135 -8q4 31 7.5 87t6.5 129l12 11l174 -11h294l25 -64l-215 -236h-142z" />
    <glyph glyph-name="uni01EE" unicode="&#x1ee;" horiz-adv-x="589" 
d="M238 -12q-52 0 -105.5 5t-84.5 12l-12 16q3 16 4 38t1 54.5t-1 80.5l14 15l121 8q-1 -51 19.5 -73.5t66.5 -22.5q42 0 63 18t21 52q0 42 -28 60.5t-105 19.5l-12 14l6 62l66 39q158 -7 228 -51.5t70 -137.5q0 -70 -37 -116t-111 -69.5t-184 -23.5zM206 347l232 260
l-11 -97h-175q-27 0 -41.5 -5.5t-21 -20.5t-10.5 -45l-135 -8q4 31 7.5 87t6.5 129l12 11l174 -11h294l25 -64l-215 -236h-142zM290 688l-15.5 12.5t-41.5 33.5t-57 45t-62 47l35 62l23 7q34 -14 72 -28.5t60 -22.5q23 8 59.5 22.5t71.5 28.5l23 -7l36 -62
q-31 -23 -62.5 -47t-57.5 -45t-41.5 -33.5l-15.5 -12.5h-27z" />
    <glyph glyph-name="F" unicode="F" horiz-adv-x="554" 
d="M13 -10l9 92q38 6 51.5 24.5t13.5 63.5l1 335q0 32 -5 43t-22 11q-8 0 -17 -1l-9 -1l-12 14l9 79l23 -0.5t59.5 -1t76.5 -1t74 -0.5q57 0 112 1.5t99.5 4.5t69.5 6l13 -16l-3.5 -30.5t-8 -76.5t-6.5 -92l-138 -8l1 13.5t1 22.5q0 22 -6.5 33.5t-22.5 16.5t-46 5
q-14 0 -21.5 -2t-10 -8t-2.5 -17l-7 -130l83 -1q15 0 40 1.5t45 3l20 1.5l12 -14l-14 -115l-19.5 1t-46.5 1.5t-49 0.5t-42 -2t-33 -4l-1 -68q0 -36 8.5 -48t33.5 -12q15 0 28.5 2t21.5 4l8 2l16 -18l-13 -108l-18.5 0.5t-45.5 1l-54 1t-45 0.5q-51 0 -99.5 -2.5t-80 -5z
" />
    <glyph glyph-name="G" unicode="G" horiz-adv-x="639" 
d="M320 -11q-96 0 -164.5 38t-104.5 110.5t-36 173.5q0 114 41.5 191.5t122 117t197.5 39.5q35 0 71 -4t66 -9t48 -9l18 -4l11 -20l-6 -26t-12.5 -71.5t-9.5 -104.5l-154 -9l1 15.5t1 39.5q0 37 -12 50.5t-47 13.5q-41 0 -64.5 -16t-33.5 -54t-10 -104q0 -76 11 -124
t34 -70.5t59 -22.5q18 0 29.5 3t17 6l5.5 3v63q0 24 -6.5 32.5t-25.5 8.5h-15.5t-12.5 -0.5l-5 -0.5l-9 14l12 95h51.5h51h50.5q29 0 56 1t45 2.5l18 1.5l10 -58q-23 -13 -34 -29t-14.5 -49t-3.5 -99q0 -31 1.5 -50.5t5.5 -35.5l-12 -16l-26.5 -8.5t-80.5 -16.5t-135 -8z
" />
    <glyph glyph-name="Gbreve" unicode="&#x11e;" horiz-adv-x="639" 
d="M320 -11q-96 0 -164.5 38t-104.5 110.5t-36 173.5q0 114 41.5 191.5t122 117t197.5 39.5q35 0 71 -4t66 -9t48 -9l18 -4l11 -20l-6 -26t-12.5 -71.5t-9.5 -104.5l-154 -9l1 15.5t1 39.5q0 37 -12 50.5t-47 13.5q-41 0 -64.5 -16t-33.5 -54t-10 -104q0 -76 11 -124
t34 -70.5t59 -22.5q18 0 29.5 3t17 6l5.5 3v63q0 24 -6.5 32.5t-25.5 8.5h-15.5t-12.5 -0.5l-5 -0.5l-9 14l12 95h51.5h51h50.5q29 0 56 1t45 2.5l18 1.5l10 -58q-23 -13 -34 -29t-14.5 -49t-3.5 -99q0 -31 1.5 -50.5t5.5 -35.5l-12 -16l-26.5 -8.5t-80.5 -16.5t-135 -8z
M370 675q-51 0 -87 20t-58 51t-33 65l40 62l27 7q15 -35 44.5 -52.5t66.5 -17.5t66.5 17.5t44.5 52.5l27 -7l40 -62q-10 -34 -32.5 -65t-58.5 -51t-87 -20z" />
    <glyph glyph-name="Gcaron" unicode="&#x1e6;" horiz-adv-x="639" 
d="M320 -11q-96 0 -164.5 38t-104.5 110.5t-36 173.5q0 114 41.5 191.5t122 117t197.5 39.5q35 0 71 -4t66 -9t48 -9l18 -4l11 -20l-6 -26t-12.5 -71.5t-9.5 -104.5l-154 -9l1 15.5t1 39.5q0 37 -12 50.5t-47 13.5q-41 0 -64.5 -16t-33.5 -54t-10 -104q0 -76 11 -124
t34 -70.5t59 -22.5q18 0 29.5 3t17 6l5.5 3v63q0 24 -6.5 32.5t-25.5 8.5h-15.5t-12.5 -0.5l-5 -0.5l-9 14l12 95h51.5h51h50.5q29 0 56 1t45 2.5l18 1.5l10 -58q-23 -13 -34 -29t-14.5 -49t-3.5 -99q0 -31 1.5 -50.5t5.5 -35.5l-12 -16l-26.5 -8.5t-80.5 -16.5t-135 -8z
M356 688l-15.5 12.5t-41.5 33.5t-57 45t-62 47l35 62l23 7q34 -14 72 -28.5t60 -22.5q23 8 59.5 22.5t71.5 28.5l23 -7l36 -62q-31 -23 -62.5 -47t-57.5 -45t-41.5 -33.5l-15.5 -12.5h-27z" />
    <glyph glyph-name="Gcircumflex" unicode="&#x11c;" horiz-adv-x="639" 
d="M320 -11q-96 0 -164.5 38t-104.5 110.5t-36 173.5q0 114 41.5 191.5t122 117t197.5 39.5q35 0 71 -4t66 -9t48 -9l18 -4l11 -20l-6 -26t-12.5 -71.5t-9.5 -104.5l-154 -9l1 15.5t1 39.5q0 37 -12 50.5t-47 13.5q-41 0 -64.5 -16t-33.5 -54t-10 -104q0 -76 11 -124
t34 -70.5t59 -22.5q18 0 29.5 3t17 6l5.5 3v63q0 24 -6.5 32.5t-25.5 8.5h-15.5t-12.5 -0.5l-5 -0.5l-9 14l12 95h51.5h51h50.5q29 0 56 1t45 2.5l18 1.5l10 -58q-23 -13 -34 -29t-14.5 -49t-3.5 -99q0 -31 1.5 -50.5t5.5 -35.5l-12 -16l-26.5 -8.5t-80.5 -16.5t-135 -8z
M264 709l-23 7l-46 62q30 26 59.5 53.5t54 50.5t39 37.5l14.5 14.5h27l14.5 -14.5t39 -37.5t54 -50.5t58.5 -53.5l-45 -62l-23 -7q-29 20 -60.5 39t-51.5 30q-19 -11 -50.5 -30t-60.5 -39z" />
    <glyph glyph-name="uni0122" unicode="&#x122;" horiz-adv-x="639" 
d="M320 -11q-96 0 -164.5 38t-104.5 110.5t-36 173.5q0 114 41.5 191.5t122 117t197.5 39.5q35 0 71 -4t66 -9t48 -9l18 -4l11 -20l-6 -26t-12.5 -71.5t-9.5 -104.5l-154 -9l1 15.5t1 39.5q0 37 -12 50.5t-47 13.5q-41 0 -64.5 -16t-33.5 -54t-10 -104q0 -76 11 -124
t34 -70.5t59 -22.5q18 0 29.5 3t17 6l5.5 3v63q0 24 -6.5 32.5t-25.5 8.5h-15.5t-12.5 -0.5l-5 -0.5l-9 14l12 95h51.5h51h50.5q29 0 56 1t45 2.5l18 1.5l10 -58q-23 -13 -34 -29t-14.5 -49t-3.5 -99q0 -31 1.5 -50.5t5.5 -35.5l-12 -16l-26.5 -8.5t-80.5 -16.5t-135 -8z
M243 -345l-58 46v25q29 21 46.5 50t17.5 56q0 20 -8 41t-21 35l3 14q27 21 54 32.5t48 11.5q38 0 61.5 -27.5t23.5 -73.5q0 -35 -20.5 -72.5t-57.5 -72.5t-89 -65z" />
    <glyph glyph-name="Gdotaccent" unicode="&#x120;" horiz-adv-x="639" 
d="M320 -11q-96 0 -164.5 38t-104.5 110.5t-36 173.5q0 114 41.5 191.5t122 117t197.5 39.5q35 0 71 -4t66 -9t48 -9l18 -4l11 -20l-6 -26t-12.5 -71.5t-9.5 -104.5l-154 -9l1 15.5t1 39.5q0 37 -12 50.5t-47 13.5q-41 0 -64.5 -16t-33.5 -54t-10 -104q0 -76 11 -124
t34 -70.5t59 -22.5q18 0 29.5 3t17 6l5.5 3v63q0 24 -6.5 32.5t-25.5 8.5h-15.5t-12.5 -0.5l-5 -0.5l-9 14l12 95h51.5h51h50.5q29 0 56 1t45 2.5l18 1.5l10 -58q-23 -13 -34 -29t-14.5 -49t-3.5 -99q0 -31 1.5 -50.5t5.5 -35.5l-12 -16l-26.5 -8.5t-80.5 -16.5t-135 -8z
M366 681q-46 0 -70 24.5t-24 70.5q0 48 27.5 76t74.5 28q44 0 68.5 -25t24.5 -70q0 -48 -27 -76t-74 -28z" />
    <glyph glyph-name="uni1E20" unicode="&#x1e20;" horiz-adv-x="639" 
d="M320 -11q-96 0 -164.5 38t-104.5 110.5t-36 173.5q0 114 41.5 191.5t122 117t197.5 39.5q35 0 71 -4t66 -9t48 -9l18 -4l11 -20l-6 -26t-12.5 -71.5t-9.5 -104.5l-154 -9l1 15.5t1 39.5q0 37 -12 50.5t-47 13.5q-41 0 -64.5 -16t-33.5 -54t-10 -104q0 -76 11 -124
t34 -70.5t59 -22.5q18 0 29.5 3t17 6l5.5 3v63q0 24 -6.5 32.5t-25.5 8.5h-15.5t-12.5 -0.5l-5 -0.5l-9 14l12 95h51.5h51h50.5q29 0 56 1t45 2.5l18 1.5l10 -58q-23 -13 -34 -29t-14.5 -49t-3.5 -99q0 -31 1.5 -50.5t5.5 -35.5l-12 -16l-26.5 -8.5t-80.5 -16.5t-135 -8z
M232 694l-16 15l19 109h15.5t39.5 -0.5t50.5 -0.5h48.5q25 0 54 1.5t49.5 3l20.5 1.5l11 -18l-18 -109l-140 -1h-60.5t-52.5 -0.5z" />
    <glyph glyph-name="uni01E4" unicode="&#x1e4;" horiz-adv-x="651" 
d="M320 -11q-96 0 -164.5 38t-104.5 110.5t-36 173.5q0 114 41.5 191.5t122 117t197.5 39.5q35 0 71 -4t66 -9t48 -9l18 -4l11 -20l-6 -26t-12.5 -71.5t-9.5 -104.5l-154 -9l1 15.5t1 39.5q0 37 -12 50.5t-47 13.5q-41 0 -64.5 -16.5t-33.5 -55t-10 -106.5q0 -77 11 -126
t34 -72t59 -23q27 0 39.5 6l12.5 6v71q0 24 -6.5 32.5t-25.5 8.5q-12 0 -22.5 -0.5l-10.5 -0.5l-9 14l12 95h76.5h76.5q29 0 56 1t45 2.5l18 1.5l10 -58q-23 -13 -34 -29t-14.5 -49t-3.5 -99q0 -31 1.5 -50.5t5.5 -35.5l-12 -16l-26.5 -8.5t-80.5 -16.5t-135 -8zM315 153
l-5 11l8 57h58.5t57.5 -0.5t36 -0.5q15 0 41 0.5t57 1.5t59 2l8 -16l-8 -54h-166h-38t-53.5 -0.5t-54.5 -0.5z" />
    <glyph glyph-name="H" unicode="H" horiz-adv-x="739" 
d="M15 -5l8 85q40 8 52.5 24t12.5 58v346q0 31 -7 41t-28 10q-6 0 -13.5 -0.5t-12.5 -0.5l-9 14l8 75h67h62t75 1.5t124 3.5l-7 -90q-21 -4 -32.5 -9t-15.5 -15t-5 -28l-6 -121l85 -3q29 0 48 1t36 2v119q0 30 -7 40.5t-28 10.5q-6 0 -14 -0.5t-13 -0.5l-9 14l8 75h53h59.5
h48.5q17 0 61.5 1.5t114.5 3.5l-7 -88q-36 -6 -47 -16t-13 -38t-4 -67.5t-3.5 -84.5t-2 -93t-0.5 -93q0 -48 8.5 -65.5t30.5 -17.5q8 0 16 1t12 2l8 -11l-9 -83q-32 1 -81 1.5t-90 0.5h-46.5t-61.5 -0.5t-58 -0.5l8 87q24 1 38.5 8.5t21 24t6.5 43.5v102q-7 0 -17.5 0.5
t-21.5 0.5h-20q-7 0 -25 -1t-41 -3t-47 -5v-100q0 -42 6.5 -55.5t25.5 -13.5q7 0 14.5 1t12.5 2l8 -10l-9 -84q-26 1 -58.5 2t-60.5 1.5t-43 0.5q-16 0 -42 -0.5t-57.5 -1.5t-66.5 -3z" />
    <glyph glyph-name="Hbar" unicode="&#x126;" horiz-adv-x="739" 
d="M6 436l-11 10l8 58h25h67.5t95 -0.5t107.5 -0.5h104q53 0 110.5 1t107.5 1.5t81.5 1.5l31.5 1l15 -15l-5 -55l-367 -1h-127t-120 -0.5t-89 -0.5h-34zM15 -5l8 85q40 8 52.5 24t12.5 58v346q0 31 -7 41t-28 10q-6 0 -13.5 -0.5t-12.5 -0.5l-9 14l8 75h67h62t75 1.5
t124 3.5l-7 -90q-21 -4 -32.5 -9t-15.5 -15t-5 -28l-6 -121l85 -3q29 0 48 1t36 2v119q0 30 -7 40.5t-28 10.5q-6 0 -14 -0.5t-13 -0.5l-9 14l8 75h53h59.5h48.5q17 0 61.5 1.5t114.5 3.5l-7 -88q-36 -6 -47 -16t-13 -38t-4 -67.5t-3.5 -84.5t-2 -93t-0.5 -93
q0 -48 8.5 -65.5t30.5 -17.5q8 0 16 1t12 2l8 -11l-9 -83q-32 1 -81 1.5t-90 0.5h-46.5t-61.5 -0.5t-58 -0.5l8 87q24 1 38.5 8.5t21 24t6.5 43.5v102q-7 0 -17.5 0.5t-21.5 0.5h-20q-7 0 -25 -1t-41 -3t-47 -5v-100q0 -42 6.5 -55.5t25.5 -13.5q7 0 14.5 1t12.5 2l8 -10
l-9 -84q-26 1 -58.5 2t-60.5 1.5t-43 0.5q-16 0 -42 -0.5t-57.5 -1.5t-66.5 -3z" />
    <glyph glyph-name="uni1E2A" unicode="&#x1e2a;" horiz-adv-x="739" 
d="M15 -5l8 85q40 8 52.5 24t12.5 58v346q0 31 -7 41t-28 10q-6 0 -13.5 -0.5t-12.5 -0.5l-9 14l8 75h67h62t75 1.5t124 3.5l-7 -90q-21 -4 -32.5 -9t-15.5 -15t-5 -28l-6 -121l85 -3q29 0 48 1t36 2v119q0 30 -7 40.5t-28 10.5q-6 0 -14 -0.5t-13 -0.5l-9 14l8 75h53h59.5
h48.5q17 0 61.5 1.5t114.5 3.5l-7 -88q-36 -6 -47 -16t-13 -38t-4 -67.5t-3.5 -84.5t-2 -93t-0.5 -93q0 -48 8.5 -65.5t30.5 -17.5q8 0 16 1t12 2l8 -11l-9 -83q-32 1 -81 1.5t-90 0.5h-46.5t-61.5 -0.5t-58 -0.5l8 87q24 1 38.5 8.5t21 24t6.5 43.5v102q-7 0 -17.5 0.5
t-21.5 0.5h-20q-7 0 -25 -1t-41 -3t-47 -5v-100q0 -42 6.5 -55.5t25.5 -13.5q7 0 14.5 1t12.5 2l8 -10l-9 -84q-26 1 -58.5 2t-60.5 1.5t-43 0.5q-16 0 -42 -0.5t-57.5 -1.5t-66.5 -3zM370 -260q-51 0 -87 20t-58 51t-33 65l40 62l27 7q15 -35 44.5 -52.5t66.5 -17.5
t66.5 17.5t44.5 52.5l27 -7l40 -62q-10 -34 -32.5 -65t-58.5 -51t-87 -20z" />
    <glyph glyph-name="uni021E" unicode="&#x21e;" horiz-adv-x="739" 
d="M15 -5l8 85q40 8 52.5 24t12.5 58v346q0 31 -7 41t-28 10q-6 0 -13.5 -0.5t-12.5 -0.5l-9 14l8 75h67h62t75 1.5t124 3.5l-7 -90q-21 -4 -32.5 -9t-15.5 -15t-5 -28l-6 -121l85 -3q29 0 48 1t36 2v119q0 30 -7 40.5t-28 10.5q-6 0 -14 -0.5t-13 -0.5l-9 14l8 75h53h59.5
h48.5q17 0 61.5 1.5t114.5 3.5l-7 -88q-36 -6 -47 -16t-13 -38t-4 -67.5t-3.5 -84.5t-2 -93t-0.5 -93q0 -48 8.5 -65.5t30.5 -17.5q8 0 16 1t12 2l8 -11l-9 -83q-32 1 -81 1.5t-90 0.5h-46.5t-61.5 -0.5t-58 -0.5l8 87q24 1 38.5 8.5t21 24t6.5 43.5v102q-7 0 -17.5 0.5
t-21.5 0.5h-20q-7 0 -25 -1t-41 -3t-47 -5v-100q0 -42 6.5 -55.5t25.5 -13.5q7 0 14.5 1t12.5 2l8 -10l-9 -84q-26 1 -58.5 2t-60.5 1.5t-43 0.5q-16 0 -42 -0.5t-57.5 -1.5t-66.5 -3zM356 688l-15.5 12.5t-41.5 33.5t-57 45t-62 47l35 62l23 7q34 -14 72 -28.5t60 -22.5
q23 8 59.5 22.5t71.5 28.5l23 -7l36 -62q-31 -23 -62.5 -47t-57.5 -45t-41.5 -33.5l-15.5 -12.5h-27z" />
    <glyph glyph-name="Hcircumflex" unicode="&#x124;" horiz-adv-x="739" 
d="M15 -5l8 85q40 8 52.5 24t12.5 58v346q0 31 -7 41t-28 10q-6 0 -13.5 -0.5t-12.5 -0.5l-9 14l8 75h67h62t75 1.5t124 3.5l-7 -90q-21 -4 -32.5 -9t-15.5 -15t-5 -28l-6 -121l85 -3q29 0 48 1t36 2v119q0 30 -7 40.5t-28 10.5q-6 0 -14 -0.5t-13 -0.5l-9 14l8 75h53h59.5
h48.5q17 0 61.5 1.5t114.5 3.5l-7 -88q-36 -6 -47 -16t-13 -38t-4 -67.5t-3.5 -84.5t-2 -93t-0.5 -93q0 -48 8.5 -65.5t30.5 -17.5q8 0 16 1t12 2l8 -11l-9 -83q-32 1 -81 1.5t-90 0.5h-46.5t-61.5 -0.5t-58 -0.5l8 87q24 1 38.5 8.5t21 24t6.5 43.5v102q-7 0 -17.5 0.5
t-21.5 0.5h-20q-7 0 -25 -1t-41 -3t-47 -5v-100q0 -42 6.5 -55.5t25.5 -13.5q7 0 14.5 1t12.5 2l8 -10l-9 -84q-26 1 -58.5 2t-60.5 1.5t-43 0.5q-16 0 -42 -0.5t-57.5 -1.5t-66.5 -3zM239 701l-23 7l-36 62q32 23 63 47t57 45t41.5 33.5l15.5 12.5h27q0 2 15.5 -10
t41.5 -33t57 -46t62 -49l-35 -62l-23 -7q-34 14 -71.5 28.5t-60.5 22.5q-22 -8 -59 -22.5t-72 -28.5z" />
    <glyph glyph-name="uni1E24" unicode="&#x1e24;" horiz-adv-x="739" 
d="M15 -5l8 85q40 8 52.5 24t12.5 58v346q0 31 -7 41t-28 10q-6 0 -13.5 -0.5t-12.5 -0.5l-9 14l8 75h67h62t75 1.5t124 3.5l-7 -90q-21 -4 -32.5 -9t-15.5 -15t-5 -28l-6 -121l85 -3q29 0 48 1t36 2v119q0 30 -7 40.5t-28 10.5q-6 0 -14 -0.5t-13 -0.5l-9 14l8 75h53h59.5
h48.5q17 0 61.5 1.5t114.5 3.5l-7 -88q-36 -6 -47 -16t-13 -38t-4 -67.5t-3.5 -84.5t-2 -93t-0.5 -93q0 -48 8.5 -65.5t30.5 -17.5q8 0 16 1t12 2l8 -11l-9 -83q-32 1 -81 1.5t-90 0.5h-46.5t-61.5 -0.5t-58 -0.5l8 87q24 1 38.5 8.5t21 24t6.5 43.5v102q-7 0 -17.5 0.5
t-21.5 0.5h-20q-7 0 -25 -1t-41 -3t-47 -5v-100q0 -42 6.5 -55.5t25.5 -13.5q7 0 14.5 1t12.5 2l8 -10l-9 -84q-26 1 -58.5 2t-60.5 1.5t-43 0.5q-16 0 -42 -0.5t-57.5 -1.5t-66.5 -3zM362 -232q-46 0 -70 24.5t-24 70.5q0 48 27.5 76t74.5 28q44 0 68.5 -25t24.5 -70
q0 -48 -27 -76t-74 -28z" />
    <glyph glyph-name="I" unicode="I" horiz-adv-x="370" 
d="M15 -5l8 85q41 9 53 25t12 57v346q0 31 -7 41t-28 10q-6 0 -13.5 -0.5t-12.5 -0.5l-9 14l8 75h81h80q17 0 61 1.5t111 3.5l-7 -90q-34 -5 -44.5 -14.5t-12.5 -37.5q-2 -39 -4 -82.5t-3.5 -89t-2 -91.5t-0.5 -91q0 -42 6.5 -55.5t25.5 -13.5q8 0 16.5 1t15.5 2l8 -10
l-9 -84q-27 1 -60.5 2t-62.5 1.5t-44 0.5q-25 0 -70.5 -1.5t-95.5 -3.5z" />
    <glyph glyph-name="IJ" unicode="&#x132;" horiz-adv-x="709" 
d="M15 -5l8 85q41 9 53 25t12 57v346q0 31 -7 41t-28 10q-6 0 -13.5 -0.5t-12.5 -0.5l-9 14l8 75h81h80q17 0 61 1.5t111 3.5l-7 -90q-34 -5 -44.5 -14.5t-12.5 -37.5q-2 -39 -4 -82.5t-3.5 -89t-2 -91.5t-0.5 -91q0 -42 6.5 -55.5t25.5 -13.5q8 0 16.5 1t15.5 2l8 -10
l-9 -84q-27 1 -60.5 2t-62.5 1.5t-44 0.5q-25 0 -70.5 -1.5t-95.5 -3.5zM405 -164l-40 48l2 15q34 31 52 59.5t24.5 68.5t6.5 105v376q0 31 -6 41t-26 10q-7 0 -15.5 -0.5t-14.5 -1l-6 -0.5l-9 14l8 76l141 1q49 1 92 2.5t70.5 3l27.5 1.5l-8 -93q-29 -7 -37 -15.5
t-10 -36.5t-3.5 -66.5t-3 -83.5t-3 -93t-2 -94.5t-0.5 -87.5q0 -96 -57.5 -156t-182.5 -93z" />
    <glyph glyph-name="Iacute" unicode="&#xcd;" horiz-adv-x="370" 
d="M15 -5l8 85q41 9 53 25t12 57v346q0 31 -7 41t-28 10q-6 0 -13.5 -0.5t-12.5 -0.5l-9 14l8 75h81h80q17 0 61 1.5t111 3.5l-7 -90q-34 -5 -44.5 -14.5t-12.5 -37.5q-2 -39 -4 -82.5t-3.5 -89t-2 -91.5t-0.5 -91q0 -42 6.5 -55.5t25.5 -13.5q8 0 16.5 1t15.5 2l8 -10
l-9 -84q-27 1 -60.5 2t-62.5 1.5t-44 0.5q-25 0 -70.5 -1.5t-95.5 -3.5zM74 691l-19 13l-21 71q46 17 90.5 34.5t80 32.5t57 24l21.5 9l16 -5l36 -108l-7 -16l-22 -4t-58.5 -11.5t-81.5 -17.5t-92 -22z" />
    <glyph glyph-name="Ibreve" unicode="&#x12c;" horiz-adv-x="370" 
d="M15 -5l8 85q41 9 53 25t12 57v346q0 31 -7 41t-28 10q-6 0 -13.5 -0.5t-12.5 -0.5l-9 14l8 75h81h80q17 0 61 1.5t111 3.5l-7 -90q-34 -5 -44.5 -14.5t-12.5 -37.5q-2 -39 -4 -82.5t-3.5 -89t-2 -91.5t-0.5 -91q0 -42 6.5 -55.5t25.5 -13.5q8 0 16.5 1t15.5 2l8 -10
l-9 -84q-27 1 -60.5 2t-62.5 1.5t-44 0.5q-25 0 -70.5 -1.5t-95.5 -3.5zM185 692q-51 0 -87 20t-58 51t-33 65l40 62l27 7q15 -35 44.5 -52.5t66.5 -17.5t66.5 17.5t44.5 52.5l27 -7l40 -62q-10 -34 -32.5 -65t-58.5 -51t-87 -20z" />
    <glyph glyph-name="uni01CF" unicode="&#x1cf;" horiz-adv-x="370" 
d="M15 -5l8 85q41 9 53 25t12 57v346q0 31 -7 41t-28 10q-6 0 -13.5 -0.5t-12.5 -0.5l-9 14l8 75h81h80q17 0 61 1.5t111 3.5l-7 -90q-34 -5 -44.5 -14.5t-12.5 -37.5q-2 -39 -4 -82.5t-3.5 -89t-2 -91.5t-0.5 -91q0 -42 6.5 -55.5t25.5 -13.5q8 0 16.5 1t15.5 2l8 -10
l-9 -84q-27 1 -60.5 2t-62.5 1.5t-44 0.5q-25 0 -70.5 -1.5t-95.5 -3.5zM171 688l-15.5 12.5t-41.5 33.5t-57 45t-62 47l35 62l23 7q34 -14 72 -28.5t60 -22.5q23 8 59.5 22.5t71.5 28.5l23 -7l36 -62q-31 -23 -62.5 -47t-57.5 -45t-41.5 -33.5l-15.5 -12.5h-27z" />
    <glyph glyph-name="Icircumflex" unicode="&#xce;" horiz-adv-x="370" 
d="M15 -5l8 85q41 9 53 25t12 57v346q0 31 -7 41t-28 10q-6 0 -13.5 -0.5t-12.5 -0.5l-9 14l8 75h81h80q17 0 61 1.5t111 3.5l-7 -90q-34 -5 -44.5 -14.5t-12.5 -37.5q-2 -39 -4 -82.5t-3.5 -89t-2 -91.5t-0.5 -91q0 -42 6.5 -55.5t25.5 -13.5q8 0 16.5 1t15.5 2l8 -10
l-9 -84q-27 1 -60.5 2t-62.5 1.5t-44 0.5q-25 0 -70.5 -1.5t-95.5 -3.5zM54 701l-23 7l-36 62q32 23 63 47t57 45t41.5 33.5l15.5 12.5h27q0 2 15.5 -10t41.5 -33t57 -46t62 -49l-35 -62l-23 -7q-34 14 -71.5 28.5t-60.5 22.5q-22 -8 -59 -22.5t-72 -28.5z" />
    <glyph glyph-name="uni0208" unicode="&#x208;" horiz-adv-x="370" 
d="M15 -5l8 85q41 9 53 25t12 57v346q0 31 -7 41t-28 10q-6 0 -13.5 -0.5t-12.5 -0.5l-9 14l8 75h81h80q17 0 61 1.5t111 3.5l-7 -90q-34 -5 -44.5 -14.5t-12.5 -37.5q-2 -39 -4 -82.5t-3.5 -89t-2 -91.5t-0.5 -91q0 -42 6.5 -55.5t25.5 -13.5q8 0 16.5 1t15.5 2l8 -10
l-9 -84q-27 1 -60.5 2t-62.5 1.5t-44 0.5q-25 0 -70.5 -1.5t-95.5 -3.5zM319 674q-42 29 -81.5 54t-65.5 40.5l-26 15.5v15l66 81l15 -1l21.5 -22.5t55.5 -57t72 -72.5l-38 -48zM121 674q-42 29 -81.5 54t-65.5 40.5l-26 15.5v15l66 81l15 -1l21.5 -22.5t55.5 -57t72 -72.5
l-38 -48z" />
    <glyph glyph-name="uni1E2E" unicode="&#x1e2e;" horiz-adv-x="370" 
d="M15 -5l8 85q41 9 53 25t12 57v346q0 31 -7 41t-28 10q-6 0 -13.5 -0.5t-12.5 -0.5l-9 14l8 75h81h80q17 0 61 1.5t111 3.5l-7 -90q-34 -5 -44.5 -14.5t-12.5 -37.5q-2 -39 -4 -82.5t-3.5 -89t-2 -91.5t-0.5 -91q0 -42 6.5 -55.5t25.5 -13.5q8 0 16.5 1t15.5 2l8 -10
l-9 -84q-27 1 -60.5 2t-62.5 1.5t-44 0.5q-25 0 -70.5 -1.5t-95.5 -3.5zM74 874l-19 13l-21 71q46 17 90.5 34.5t80 32.5t57 24l21.5 9l16 -5l36 -108l-7 -16l-22 -4t-58.5 -11.5t-81.5 -17.5t-92 -22zM85 688q-38 0 -58.5 20.5t-20.5 59.5q0 40 23 63.5t63 23.5
q38 0 58.5 -21t20.5 -59q0 -40 -23 -63.5t-63 -23.5zM278 688q-39 0 -59.5 20.5t-20.5 59.5q0 40 23 63.5t63 23.5q38 0 58.5 -21t20.5 -59q0 -40 -23 -63.5t-62 -23.5z" />
    <glyph glyph-name="Idotaccent" unicode="&#x130;" horiz-adv-x="370" 
d="M15 -5l8 85q41 9 53 25t12 57v346q0 31 -7 41t-28 10q-6 0 -13.5 -0.5t-12.5 -0.5l-9 14l8 75h81h80q17 0 61 1.5t111 3.5l-7 -90q-34 -5 -44.5 -14.5t-12.5 -37.5q-2 -39 -4 -82.5t-3.5 -89t-2 -91.5t-0.5 -91q0 -42 6.5 -55.5t25.5 -13.5q8 0 16.5 1t15.5 2l8 -10
l-9 -84q-27 1 -60.5 2t-62.5 1.5t-44 0.5q-25 0 -70.5 -1.5t-95.5 -3.5zM181 681q-46 0 -70 24.5t-24 70.5q0 48 27.5 76t74.5 28q44 0 68.5 -25t24.5 -70q0 -48 -27 -76t-74 -28z" />
    <glyph glyph-name="uni1ECA" unicode="&#x1eca;" horiz-adv-x="370" 
d="M15 -5l8 85q41 9 53 25t12 57v346q0 31 -7 41t-28 10q-6 0 -13.5 -0.5t-12.5 -0.5l-9 14l8 75h81h80q17 0 61 1.5t111 3.5l-7 -90q-34 -5 -44.5 -14.5t-12.5 -37.5q-2 -39 -4 -82.5t-3.5 -89t-2 -91.5t-0.5 -91q0 -42 6.5 -55.5t25.5 -13.5q8 0 16.5 1t15.5 2l8 -10
l-9 -84q-27 1 -60.5 2t-62.5 1.5t-44 0.5q-25 0 -70.5 -1.5t-95.5 -3.5zM177 -232q-46 0 -70 24.5t-24 70.5q0 48 27.5 76t74.5 28q44 0 68.5 -25t24.5 -70q0 -48 -27 -76t-74 -28z" />
    <glyph glyph-name="Igrave" unicode="&#xcc;" horiz-adv-x="370" 
d="M15 -5l8 85q41 9 53 25t12 57v346q0 31 -7 41t-28 10q-6 0 -13.5 -0.5t-12.5 -0.5l-9 14l8 75h81h80q17 0 61 1.5t111 3.5l-7 -90q-34 -5 -44.5 -14.5t-12.5 -37.5q-2 -39 -4 -82.5t-3.5 -89t-2 -91.5t-0.5 -91q0 -42 6.5 -55.5t25.5 -13.5q8 0 16.5 1t15.5 2l8 -10
l-9 -84q-27 1 -60.5 2t-62.5 1.5t-44 0.5q-25 0 -70.5 -1.5t-95.5 -3.5zM263 691q-46 12 -91.5 22t-82 17.5t-58.5 11.5l-22 4l-7 16l36 108l16 5l21.5 -9t57 -24t80 -32.5t90.5 -34.5l-21 -71z" />
    <glyph glyph-name="uni1EC8" unicode="&#x1ec8;" horiz-adv-x="370" 
d="M15 -5l8 85q41 9 53 25t12 57v346q0 31 -7 41t-28 10q-6 0 -13.5 -0.5t-12.5 -0.5l-9 14l8 75h81h80q17 0 61 1.5t111 3.5l-7 -90q-34 -5 -44.5 -14.5t-12.5 -37.5q-2 -39 -4 -82.5t-3.5 -89t-2 -91.5t-0.5 -91q0 -42 6.5 -55.5t25.5 -13.5q8 0 16.5 1t15.5 2l8 -10
l-9 -84q-27 1 -60.5 2t-62.5 1.5t-44 0.5q-25 0 -70.5 -1.5t-95.5 -3.5zM199 687l-59 88q31 21 45 39.5t14 37.5q0 16 -10.5 25t-30.5 9q-16 0 -32 -6.5t-27 -13.5l-11 -7l-26 41l17 15t42 33t50 27q63 0 99.5 -25.5t36.5 -72.5q0 -23 -14.5 -44.5t-52.5 -55.5l30 -47z" />
    <glyph glyph-name="uni020A" unicode="&#x20a;" horiz-adv-x="370" 
d="M15 -5l8 85q41 9 53 25t12 57v346q0 31 -7 41t-28 10q-6 0 -13.5 -0.5t-12.5 -0.5l-9 14l8 75h81h80q17 0 61 1.5t111 3.5l-7 -90q-34 -5 -44.5 -14.5t-12.5 -37.5q-2 -39 -4 -82.5t-3.5 -89t-2 -91.5t-0.5 -91q0 -42 6.5 -55.5t25.5 -13.5q8 0 16.5 1t15.5 2l8 -10
l-9 -84q-27 1 -60.5 2t-62.5 1.5t-44 0.5q-25 0 -70.5 -1.5t-95.5 -3.5zM185 760q-37 0 -66.5 -17.5t-44.5 -52.5l-27 7l-40 62q11 34 33 65t58 51t87 20t87 -20t58.5 -51t32.5 -65l-40 -62l-27 -7q-15 35 -44.5 52.5t-66.5 17.5z" />
    <glyph glyph-name="Imacron" unicode="&#x12a;" horiz-adv-x="370" 
d="M15 -5l8 85q41 9 53 25t12 57v346q0 31 -7 41t-28 10q-6 0 -13.5 -0.5t-12.5 -0.5l-9 14l8 75h81h80q17 0 61 1.5t111 3.5l-7 -90q-34 -5 -44.5 -14.5t-12.5 -37.5q-2 -39 -4 -82.5t-3.5 -89t-2 -91.5t-0.5 -91q0 -42 6.5 -55.5t25.5 -13.5q8 0 16.5 1t15.5 2l8 -10
l-9 -84q-27 1 -60.5 2t-62.5 1.5t-44 0.5q-25 0 -70.5 -1.5t-95.5 -3.5zM47 694l-16 15l19 109h15.5t39.5 -0.5t50.5 -0.5h48.5q25 0 54 1.5t49.5 3l20.5 1.5l11 -18l-18 -109l-140 -1h-60.5t-52.5 -0.5z" />
    <glyph glyph-name="Iogonek" unicode="&#x12e;" horiz-adv-x="370" 
d="M15 -5l8 85q41 9 53 25t12 57v346q0 31 -7 41t-28 10q-6 0 -13.5 -0.5t-12.5 -0.5l-9 14l8 75h81h80q17 0 61 1.5t111 3.5l-7 -90q-34 -5 -44.5 -14.5t-12.5 -37.5q-2 -39 -4 -82.5t-3.5 -89t-2 -91.5t-0.5 -91q0 -42 6.5 -55.5t25.5 -13.5q8 0 16.5 1t15.5 2l8 -10
l-9 -84q-27 1 -60.5 2t-62.5 1.5t-44 0.5q-25 0 -70.5 -1.5t-95.5 -3.5zM245 -242q-55 0 -90 29t-35 75q0 14 4.5 28t16.5 33t35.5 47.5t60.5 71.5h82q-28 -48 -44.5 -78.5t-23.5 -49t-7 -30.5q0 -10 6 -16t16 -6q12 0 27.5 6.5t31.5 16.5l33 -52q-36 -35 -63.5 -53.5
t-49.5 -21.5z" />
    <glyph glyph-name="J" unicode="J" horiz-adv-x="339" 
d="M35 -164l-40 48l2 15q34 31 52 59.5t24.5 68.5t6.5 105v376q0 31 -6 41t-26 10q-7 0 -15.5 -0.5t-14.5 -1l-6 -0.5l-9 14l8 76l141 1q49 1 92 2.5t70.5 3l27.5 1.5l-8 -93q-29 -7 -37 -15.5t-10 -36.5t-3.5 -66.5t-3 -83.5t-3 -93t-2 -94.5t-0.5 -87.5q0 -96 -57.5 -156
t-182.5 -93z" />
    <glyph glyph-name="Jcircumflex" unicode="&#x134;" horiz-adv-x="339" 
d="M35 -164l-40 48l2 15q34 31 52 59.5t24.5 68.5t6.5 105v376q0 31 -6 41t-26 10q-7 0 -15.5 -0.5t-14.5 -1l-6 -0.5l-9 14l8 76l141 1q49 1 92 2.5t70.5 3l27.5 1.5l-8 -93q-29 -7 -37 -15.5t-10 -36.5t-3.5 -66.5t-3 -83.5t-3 -93t-2 -94.5t-0.5 -87.5q0 -96 -57.5 -156
t-182.5 -93zM62 709l-23 7l-46 62q30 26 59.5 53.5t54 50.5t39 37.5l14.5 14.5h27l14.5 -14.5t39 -37.5t54 -50.5t58.5 -53.5l-45 -62l-23 -7q-29 20 -60.5 39t-51.5 30q-19 -11 -50.5 -30t-60.5 -39z" />
    <glyph glyph-name="K" unicode="K" horiz-adv-x="693" 
d="M299 347l112 133q21 21 21 46q0 17 -9 24t-32 8l-6 10l9 82l15.5 -0.5t39 -1t47.5 -1t41 -0.5q14 0 37.5 1t48 1.5t41.5 1.5l17 1l9 -15l-9 -75q-24 -14 -48 -34t-48 -48t-51 -65l-42 -59l94 -182q23 -43 45 -64t53 -26l10 -15l-11 -74l-20 -1.5t-47.5 -4t-52 -4
t-33.5 -1.5q-39 0 -63 17.5t-47 63.5l-126 252zM88 508q0 31 -7 41t-28 10q-8 0 -17 -0.5l-9 -0.5l-9 14l9 76h22t51.5 -0.5t54.5 -0.5h32q16 0 44.5 1t57.5 1.5t49.5 1.5l20.5 1l-7 -90q-37 -9 -48 -19.5t-12 -36.5l-7 -350q-1 -42 6 -55.5t26 -13.5q16 0 24 1.5l8 1.5
l8 -10l-9 -84l-19.5 0.5t-48 1.5t-56 1.5t-43.5 0.5q-24 0 -52.5 -1t-54.5 -1.5t-42.5 -1.5l-16.5 -1l8 85q40 8 52.5 24t12.5 58v346z" />
    <glyph glyph-name="uni01E8" unicode="&#x1e8;" horiz-adv-x="693" 
d="M299 347l112 133q21 21 21 46q0 17 -9 24t-32 8l-6 10l9 82l15.5 -0.5t39 -1t47.5 -1t41 -0.5q14 0 37.5 1t48 1.5t41.5 1.5l17 1l9 -15l-9 -75q-24 -14 -48 -34t-48 -48t-51 -65l-42 -59l94 -182q23 -43 45 -64t53 -26l10 -15l-11 -74l-20 -1.5t-47.5 -4t-52 -4
t-33.5 -1.5q-39 0 -63 17.5t-47 63.5l-126 252zM88 508q0 31 -7 41t-28 10q-8 0 -17 -0.5l-9 -0.5l-9 14l9 76h22t51.5 -0.5t54.5 -0.5h32q16 0 44.5 1t57.5 1.5t49.5 1.5l20.5 1l-7 -90q-37 -9 -48 -19.5t-12 -36.5l-7 -350q-1 -42 6 -55.5t26 -13.5q16 0 24 1.5l8 1.5
l8 -10l-9 -84l-19.5 0.5t-48 1.5t-56 1.5t-43.5 0.5q-24 0 -52.5 -1t-54.5 -1.5t-42.5 -1.5l-16.5 -1l8 85q40 8 52.5 24t12.5 58v346zM362 688l-15.5 12.5t-41.5 33.5t-57 45t-62 47l35 62l23 7q34 -14 72 -28.5t60 -22.5q23 8 59.5 22.5t71.5 28.5l23 -7l36 -62
q-31 -23 -62.5 -47t-57.5 -45t-41.5 -33.5l-15.5 -12.5h-27z" />
    <glyph glyph-name="uni0136" unicode="&#x136;" horiz-adv-x="693" 
d="M299 347l112 133q21 21 21 46q0 17 -9 24t-32 8l-6 10l9 82l15.5 -0.5t39 -1t47.5 -1t41 -0.5q14 0 37.5 1t48 1.5t41.5 1.5l17 1l9 -15l-9 -75q-24 -14 -48 -34t-48 -48t-51 -65l-42 -59l94 -182q23 -43 45 -64t53 -26l10 -15l-11 -74l-20 -1.5t-47.5 -4t-52 -4
t-33.5 -1.5q-39 0 -63 17.5t-47 63.5l-126 252zM88 508q0 31 -7 41t-28 10q-8 0 -17 -0.5l-9 -0.5l-9 14l9 76h22t51.5 -0.5t54.5 -0.5h32q16 0 44.5 1t57.5 1.5t49.5 1.5l20.5 1l-7 -90q-37 -9 -48 -19.5t-12 -36.5l-7 -350q-1 -42 6 -55.5t26 -13.5q16 0 24 1.5l8 1.5
l8 -10l-9 -84l-19.5 0.5t-48 1.5t-56 1.5t-43.5 0.5q-24 0 -52.5 -1t-54.5 -1.5t-42.5 -1.5l-16.5 -1l8 85q40 8 52.5 24t12.5 58v346zM295 -345l-58 46v25q29 21 46.5 50t17.5 56q0 20 -8 41t-21 35l3 14q27 21 54 32.5t48 11.5q38 0 61.5 -27.5t23.5 -73.5
q0 -35 -20.5 -72.5t-57.5 -72.5t-89 -65z" />
    <glyph glyph-name="L" unicode="L" horiz-adv-x="557" 
d="M13 -10l9 92q38 6 51.5 24.5t13.5 63.5v338q0 31 -7 41t-28 10q-8 0 -17 -0.5l-9 -0.5l-9 14l8 75h53.5h53.5h54q18 0 52 1t69.5 1.5t60.5 1.5l25 1l-11 -98q-34 -3 -53 -8.5t-26.5 -15.5t-8.5 -28q-3 -45 -5 -95.5t-3.5 -111.5t-1.5 -137q0 -15 3.5 -24.5t12 -14
t21.5 -4.5q27 0 44.5 7t27.5 24.5t15.5 49.5t8.5 82l128 13l12 -15l-4 -38t-9.5 -98.5t-10.5 -130.5l-15 -16l-25.5 1t-68 2.5t-94.5 2.5t-106 1q-51 0 -99.5 -2.5t-80 -5z" />
    <glyph glyph-name="uni01C7" unicode="&#x1c7;" horiz-adv-x="896" 
d="M13 -10l9 92q38 6 51.5 24.5t13.5 63.5v338q0 31 -7 41t-28 10q-8 0 -17 -0.5l-9 -0.5l-9 14l8 75h53.5h53.5h54q18 0 52 1t69.5 1.5t60.5 1.5l25 1l-11 -98q-34 -3 -53 -8.5t-26.5 -15.5t-8.5 -28q-3 -45 -5 -95.5t-3.5 -111.5t-1.5 -137q0 -15 3.5 -24.5t12 -14
t21.5 -4.5q27 0 44.5 7t27.5 24.5t15.5 49.5t8.5 82l128 13l12 -15l-4 -38t-9.5 -98.5t-10.5 -130.5l-15 -16l-25.5 1t-68 2.5t-94.5 2.5t-106 1q-51 0 -99.5 -2.5t-80 -5zM592 -164l-40 48l2 15q34 31 52 59.5t24.5 68.5t6.5 105v376q0 31 -6 41t-26 10q-7 0 -15.5 -0.5
t-14.5 -1l-6 -0.5l-9 14l8 76l141 1q49 1 92 2.5t70.5 3l27.5 1.5l-8 -93q-29 -7 -37 -15.5t-10 -36.5t-3.5 -66.5t-3 -83.5t-3 -93t-2 -94.5t-0.5 -87.5q0 -96 -57.5 -156t-182.5 -93z" />
    <glyph glyph-name="Lacute" unicode="&#x139;" horiz-adv-x="557" 
d="M13 -10l9 92q38 6 51.5 24.5t13.5 63.5v338q0 31 -7 41t-28 10q-8 0 -17 -0.5l-9 -0.5l-9 14l8 75h53.5h53.5h54q18 0 52 1t69.5 1.5t60.5 1.5l25 1l-11 -98q-34 -3 -53 -8.5t-26.5 -15.5t-8.5 -28q-3 -45 -5 -95.5t-3.5 -111.5t-1.5 -137q0 -15 3.5 -24.5t12 -14
t21.5 -4.5q27 0 44.5 7t27.5 24.5t15.5 49.5t8.5 82l128 13l12 -15l-4 -38t-9.5 -98.5t-10.5 -130.5l-15 -16l-25.5 1t-68 2.5t-94.5 2.5t-106 1q-51 0 -99.5 -2.5t-80 -5zM79 691l-19 13l-21 71q46 17 90.5 34.5t80 32.5t57 24l21.5 9l16 -5l36 -108l-7 -16l-22 -4
t-58.5 -11.5t-81.5 -17.5t-92 -22z" />
    <glyph glyph-name="Lcaron" unicode="&#x13d;" horiz-adv-x="570" 
d="M459 389l-19 6q1 60 -1.5 114.5t-5 89l-2.5 34.5l134 14l9 -12l-5 -32t-14.5 -82.5t-22.5 -106.5zM13 -10l9 92q38 6 51.5 24.5t13.5 63.5v338q0 31 -7 41t-28 10q-8 0 -17 -0.5l-9 -0.5l-9 14l8 75h53.5h53.5h54q18 0 52 1t69.5 1.5t60.5 1.5l25 1l-11 -98
q-34 -3 -53 -8.5t-26.5 -15.5t-8.5 -28q-3 -45 -5 -95.5t-3.5 -111.5t-1.5 -137q0 -15 3.5 -24.5t12 -14t21.5 -4.5q27 0 44.5 7t27.5 24.5t15.5 49.5t8.5 82l128 13l12 -15l-4 -38t-9.5 -98.5t-10.5 -130.5l-15 -16l-25.5 1t-68 2.5t-94.5 2.5t-106 1q-51 0 -99.5 -2.5
t-80 -5z" />
    <glyph glyph-name="uni013B" unicode="&#x13b;" horiz-adv-x="557" 
d="M13 -10l9 92q38 6 51.5 24.5t13.5 63.5v338q0 31 -7 41t-28 10q-8 0 -17 -0.5l-9 -0.5l-9 14l8 75h53.5h53.5h54q18 0 52 1t69.5 1.5t60.5 1.5l25 1l-11 -98q-34 -3 -53 -8.5t-26.5 -15.5t-8.5 -28q-3 -45 -5 -95.5t-3.5 -111.5t-1.5 -137q0 -15 3.5 -24.5t12 -14
t21.5 -4.5q27 0 44.5 7t27.5 24.5t15.5 49.5t8.5 82l128 13l12 -15l-4 -38t-9.5 -98.5t-10.5 -130.5l-15 -16l-25.5 1t-68 2.5t-94.5 2.5t-106 1q-51 0 -99.5 -2.5t-80 -5zM210 -345l-58 46v25q29 21 46.5 50t17.5 56q0 20 -8 41t-21 35l3 14q27 21 54 32.5t48 11.5
q38 0 61.5 -27.5t23.5 -73.5q0 -35 -20.5 -72.5t-57.5 -72.5t-89 -65z" />
    <glyph glyph-name="Ldot" unicode="&#x13f;" horiz-adv-x="577" 
d="M13 -10l9 92q38 6 51.5 24.5t13.5 63.5v338q0 31 -7 41t-28 10q-8 0 -17 -0.5l-9 -0.5l-9 14l8 75h53.5h53.5h54q18 0 52 1t69.5 1.5t60.5 1.5l25 1l-11 -98q-34 -3 -53 -8.5t-26.5 -15.5t-8.5 -28q-3 -45 -5 -95.5t-3.5 -111.5t-1.5 -137q0 -15 3.5 -24.5t12 -14
t21.5 -4.5q27 0 44.5 7t27.5 24.5t15.5 49.5t8.5 82l128 13l12 -15l-4 -38t-9.5 -98.5t-10.5 -130.5l-15 -16l-25.5 1t-68 2.5t-94.5 2.5t-106 1q-51 0 -99.5 -2.5t-80 -5zM471 378q-46 0 -70 24.5t-24 70.5q0 48 27.5 76t74.5 28q44 0 68.5 -25t24.5 -70q0 -48 -27 -76
t-74 -28z" />
    <glyph glyph-name="uni1E36" unicode="&#x1e36;" horiz-adv-x="557" 
d="M13 -10l9 92q38 6 51.5 24.5t13.5 63.5v338q0 31 -7 41t-28 10q-8 0 -17 -0.5l-9 -0.5l-9 14l8 75h53.5h53.5h54q18 0 52 1t69.5 1.5t60.5 1.5l25 1l-11 -98q-34 -3 -53 -8.5t-26.5 -15.5t-8.5 -28q-3 -45 -5 -95.5t-3.5 -111.5t-1.5 -137q0 -15 3.5 -24.5t12 -14
t21.5 -4.5q27 0 44.5 7t27.5 24.5t15.5 49.5t8.5 82l128 13l12 -15l-4 -38t-9.5 -98.5t-10.5 -130.5l-15 -16l-25.5 1t-68 2.5t-94.5 2.5t-106 1q-51 0 -99.5 -2.5t-80 -5zM279 -232q-46 0 -70 24.5t-24 70.5q0 48 27.5 76t74.5 28q44 0 68.5 -25t24.5 -70q0 -48 -27 -76
t-74 -28z" />
    <glyph glyph-name="uni01C8" unicode="&#x1c8;" horiz-adv-x="858" 
d="M13 -10l9 92q38 6 51.5 24.5t13.5 63.5v338q0 31 -7 41t-28 10q-8 0 -17 -0.5l-9 -0.5l-9 14l8 75h53.5h53.5h54q18 0 52 1t69.5 1.5t60.5 1.5l25 1l-11 -98q-34 -3 -53 -8.5t-26.5 -15.5t-8.5 -28q-3 -45 -5 -95.5t-3.5 -111.5t-1.5 -137q0 -15 3.5 -24.5t12 -14
t21.5 -4.5q27 0 44.5 7t27.5 24.5t15.5 49.5t8.5 82l128 13l12 -15l-4 -38t-9.5 -98.5t-10.5 -130.5l-15 -16l-25.5 1t-68 2.5t-94.5 2.5t-106 1q-51 0 -99.5 -2.5t-80 -5zM602 -248l-47 43l2 15q29 28 44.5 56.5t22 68t6.5 98.5v276q0 33 -7 45.5t-26 12.5q-12 0 -22 -1.5
l-10 -1.5l8 81q39 6 81 12.5t78.5 12.5t59.5 10l23 4l13 -22q-13 -31 -20 -150t-7 -326q0 -69 -54 -132.5t-145 -101.5zM719 543q-46 0 -70 24.5t-24 70.5q0 48 27.5 76t74.5 28q44 0 68.5 -25t24.5 -70q0 -48 -27 -76t-74 -28z" />
    <glyph glyph-name="uni1E3A" unicode="&#x1e3a;" horiz-adv-x="557" 
d="M13 -10l9 92q38 6 51.5 24.5t13.5 63.5v338q0 31 -7 41t-28 10q-8 0 -17 -0.5l-9 -0.5l-9 14l8 75h53.5h53.5h54q18 0 52 1t69.5 1.5t60.5 1.5l25 1l-11 -98q-34 -3 -53 -8.5t-26.5 -15.5t-8.5 -28q-3 -45 -5 -95.5t-3.5 -111.5t-1.5 -137q0 -15 3.5 -24.5t12 -14
t21.5 -4.5q27 0 44.5 7t27.5 24.5t15.5 49.5t8.5 82l128 13l12 -15l-4 -38t-9.5 -98.5t-10.5 -130.5l-15 -16l-25.5 1t-68 2.5t-94.5 2.5t-106 1q-51 0 -99.5 -2.5t-80 -5zM149 -196l-16 15l19 109h15.5t39.5 -0.5t50.5 -0.5h48.5q25 0 54 1.5t49.5 3l20.5 1.5l11 -18
l-18 -109l-140 -1h-60.5t-52.5 -0.5z" />
    <glyph glyph-name="Lslash" unicode="&#x141;" horiz-adv-x="582" 
d="M56 210l-10 2l-31 94l202 101v-22l180 90l9 -4l31 -93l-220 -110v22zM38 -10l9 92q38 6 51.5 24.5t13.5 63.5v338q0 31 -7 41t-28 10q-8 0 -17 -0.5l-9 -0.5l-9 14l8 75h54h53.5h53.5q18 0 52 1t69.5 1.5t60.5 1.5l25 1l-11 -98q-34 -3 -53 -8.5t-26.5 -15.5t-8.5 -28
q-3 -45 -5 -95.5t-3.5 -111.5t-1.5 -137q0 -15 3.5 -24.5t12 -14t21.5 -4.5q27 0 44.5 7t27.5 24.5t15.5 49.5t8.5 82l128 13l12 -15l-4 -38t-9.5 -98.5t-10.5 -130.5l-15 -16l-25.5 1t-68 2.5t-94.5 2.5t-106 1q-51 0 -99.5 -2.5t-80 -5z" />
    <glyph glyph-name="M" unicode="M" horiz-adv-x="834" 
d="M339 -12q-28 105 -53 190t-41 136.5t-17 54.5h-13q0 -20 -1 -44.5t-1.5 -50.5t-1 -51t-1 -46.5t-1 -36.5t-0.5 -20q0 -34 33 -34q4 0 12 0.5t14 1.5l9 -8l-12 -84q-23 1 -51.5 2t-53 1.5t-36.5 0.5q-10 0 -29.5 -1t-39 -2.5t-33.5 -2.5t-14 -2l8 88q26 3 37.5 16.5
t19.5 50.5q1 2 3.5 28.5t6.5 67t8.5 85.5t8.5 86t6.5 68.5t2.5 31.5q0 19 -3 27.5t-16.5 12t-43.5 6.5l-8 8l10 84q37 -1 65.5 -2.5t48.5 -2t31 -0.5q18 0 45 0.5t55.5 1.5t50.5 2q7 -34 16 -75t19.5 -85t21.5 -86.5t21 -78.5h12q11 35 22.5 77t23.5 85t23 84t19 75
q30 0 60 -1t60.5 -1t60.5 2q17 1 35 2t33.5 2.5t25.5 1.5l7 -4l-8 -86q-41 -2 -54 -12t-13 -40q0 -18 1.5 -48.5t3.5 -68t5 -77.5t6 -77t6 -65q5 -51 15 -69.5t32 -18.5q8 0 16 0.5t13 1.5l7 -8l-9 -84q-13 1 -32.5 1.5t-39.5 1t-37 0.5t-46.5 -1t-61 -2.5t-55 -2.5
t-26.5 -2l12 89q28 3 39.5 14t11.5 35v15.5t-0.5 23.5t-0.5 33t-0.5 43.5t-1.5 55.5t-2 68h-13q-1 -3 -10.5 -33t-26 -81.5t-36 -117t-39.5 -139.5z" />
    <glyph glyph-name="uni1E42" unicode="&#x1e42;" horiz-adv-x="834" 
d="M339 -12q-28 105 -53 190t-41 136.5t-17 54.5h-13q0 -20 -1 -44.5t-1.5 -50.5t-1 -51t-1 -46.5t-1 -36.5t-0.5 -20q0 -34 33 -34q4 0 12 0.5t14 1.5l9 -8l-12 -84q-23 1 -51.5 2t-53 1.5t-36.5 0.5q-10 0 -29.5 -1t-39 -2.5t-33.5 -2.5t-14 -2l8 88q26 3 37.5 16.5
t19.5 50.5q1 2 3.5 28.5t6.5 67t8.5 85.5t8.5 86t6.5 68.5t2.5 31.5q0 19 -3 27.5t-16.5 12t-43.5 6.5l-8 8l10 84q37 -1 65.5 -2.5t48.5 -2t31 -0.5q18 0 45 0.5t55.5 1.5t50.5 2q7 -34 16 -75t19.5 -85t21.5 -86.5t21 -78.5h12q11 35 22.5 77t23.5 85t23 84t19 75
q30 0 60 -1t60.5 -1t60.5 2q17 1 35 2t33.5 2.5t25.5 1.5l7 -4l-8 -86q-41 -2 -54 -12t-13 -40q0 -18 1.5 -48.5t3.5 -68t5 -77.5t6 -77t6 -65q5 -51 15 -69.5t32 -18.5q8 0 16 0.5t13 1.5l7 -8l-9 -84q-13 1 -32.5 1.5t-39.5 1t-37 0.5t-46.5 -1t-61 -2.5t-55 -2.5
t-26.5 -2l12 89q28 3 39.5 14t11.5 35v15.5t-0.5 23.5t-0.5 33t-0.5 43.5t-1.5 55.5t-2 68h-13q-1 -3 -10.5 -33t-26 -81.5t-36 -117t-39.5 -139.5zM394 -232q-46 0 -70 24.5t-24 70.5q0 48 27.5 76t74.5 28q44 0 68.5 -25t24.5 -70q0 -48 -27 -76t-74 -28z" />
    <glyph glyph-name="N" unicode="N" horiz-adv-x="739" 
d="M475 -12q-42 70 -79 129.5t-65.5 104t-44.5 69l-16 24.5h-15l3 -178q1 -28 9 -39.5t30 -11.5q6 0 14 1t14 2l6 1l9 -9l-11 -85l-17.5 0.5t-43.5 1.5t-51.5 1.5t-41.5 0.5q-34 0 -70 -2t-60 -4l-24 -2l10 90q29 4 42.5 18.5t14.5 44.5l12 349q0 35 -14 46.5t-61 16.5
l-12 14l6 81l22 -1t56 -2.5t70 -1.5q27 0 57 1t50.5 2l20.5 1q27 -49 54.5 -95.5t52 -86.5t44 -70.5t30.5 -48l11 -17.5h15l-4 183q-1 26 -8 34.5t-25 8.5h-15h-16l-5 11l5 81l17.5 -0.5t44.5 -1.5t55 -1.5t49 -0.5q28 0 60.5 0.5t55.5 1.5l23 1l-5 -90q-32 -4 -44.5 -18
t-13.5 -45l-13 -497z" />
    <glyph glyph-name="uni01CA" unicode="&#x1ca;" horiz-adv-x="1078" 
d="M475 -12q-42 70 -79 129.5t-65.5 104t-44.5 69l-16 24.5h-15l3 -178q1 -28 9 -39.5t30 -11.5q6 0 14 1t14 2l6 1l9 -9l-11 -85l-17.5 0.5t-43.5 1.5t-51.5 1.5t-41.5 0.5q-34 0 -70 -2t-60 -4l-24 -2l10 90q29 4 42.5 18.5t14.5 44.5l12 349q0 35 -14 46.5t-61 16.5
l-12 14l6 81l22 -1t56 -2.5t70 -1.5q27 0 57 1t50.5 2l20.5 1q27 -49 54.5 -95.5t52 -86.5t44 -70.5t30.5 -48l11 -17.5h15l-4 183q-1 26 -8 34.5t-25 8.5h-15h-16l-5 11l5 81l17.5 -0.5t44.5 -1.5t55 -1.5t49 -0.5q28 0 60.5 0.5t55.5 1.5l23 1l-5 -90q-32 -4 -44.5 -18
t-13.5 -45l-13 -497zM774 -164l-40 48l2 15q34 31 52 59.5t24.5 68.5t6.5 105v376q0 31 -6 41t-26 10q-7 0 -15.5 -0.5t-14.5 -1l-6 -0.5l-9 14l8 76l141 1q49 1 92 2.5t70.5 3l27.5 1.5l-8 -93q-29 -7 -37 -15.5t-10 -36.5t-3.5 -66.5t-3 -83.5t-3 -93t-2 -94.5t-0.5 -87.5
q0 -96 -57.5 -156t-182.5 -93z" />
    <glyph glyph-name="Nacute" unicode="&#x143;" horiz-adv-x="739" 
d="M475 -12q-42 70 -79 129.5t-65.5 104t-44.5 69l-16 24.5h-15l3 -178q1 -28 9 -39.5t30 -11.5q6 0 14 1t14 2l6 1l9 -9l-11 -85l-17.5 0.5t-43.5 1.5t-51.5 1.5t-41.5 0.5q-34 0 -70 -2t-60 -4l-24 -2l10 90q29 4 42.5 18.5t14.5 44.5l12 349q0 35 -14 46.5t-61 16.5
l-12 14l6 81l22 -1t56 -2.5t70 -1.5q27 0 57 1t50.5 2l20.5 1q27 -49 54.5 -95.5t52 -86.5t44 -70.5t30.5 -48l11 -17.5h15l-4 183q-1 26 -8 34.5t-25 8.5h-15h-16l-5 11l5 81l17.5 -0.5t44.5 -1.5t55 -1.5t49 -0.5q28 0 60.5 0.5t55.5 1.5l23 1l-5 -90q-32 -4 -44.5 -18
t-13.5 -45l-13 -497zM312 691l-19 13l-21 71q46 17 90.5 34.5t80 32.5t57 24l21.5 9l16 -5l36 -108l-7 -16l-22 -4t-58.5 -11.5t-81.5 -17.5t-92 -22z" />
    <glyph glyph-name="Ncaron" unicode="&#x147;" horiz-adv-x="739" 
d="M475 -12q-42 70 -79 129.5t-65.5 104t-44.5 69l-16 24.5h-15l3 -178q1 -28 9 -39.5t30 -11.5q6 0 14 1t14 2l6 1l9 -9l-11 -85l-17.5 0.5t-43.5 1.5t-51.5 1.5t-41.5 0.5q-34 0 -70 -2t-60 -4l-24 -2l10 90q29 4 42.5 18.5t14.5 44.5l12 349q0 35 -14 46.5t-61 16.5
l-12 14l6 81l22 -1t56 -2.5t70 -1.5q27 0 57 1t50.5 2l20.5 1q27 -49 54.5 -95.5t52 -86.5t44 -70.5t30.5 -48l11 -17.5h15l-4 183q-1 26 -8 34.5t-25 8.5h-15h-16l-5 11l5 81l17.5 -0.5t44.5 -1.5t55 -1.5t49 -0.5q28 0 60.5 0.5t55.5 1.5l23 1l-5 -90q-32 -4 -44.5 -18
t-13.5 -45l-13 -497zM370 688l-15.5 12.5t-41.5 33.5t-57 45t-62 47l35 62l23 7q34 -14 72 -28.5t60 -22.5q23 8 59.5 22.5t71.5 28.5l23 -7l36 -62q-31 -23 -62.5 -47t-57.5 -45t-41.5 -33.5l-15.5 -12.5h-27z" />
    <glyph glyph-name="uni0145" unicode="&#x145;" horiz-adv-x="739" 
d="M475 -12q-42 70 -79 129.5t-65.5 104t-44.5 69l-16 24.5h-15l3 -178q1 -28 9 -39.5t30 -11.5q6 0 14 1t14 2l6 1l9 -9l-11 -85l-17.5 0.5t-43.5 1.5t-51.5 1.5t-41.5 0.5q-34 0 -70 -2t-60 -4l-24 -2l10 90q29 4 42.5 18.5t14.5 44.5l12 349q0 35 -14 46.5t-61 16.5
l-12 14l6 81l22 -1t56 -2.5t70 -1.5q27 0 57 1t50.5 2l20.5 1q27 -49 54.5 -95.5t52 -86.5t44 -70.5t30.5 -48l11 -17.5h15l-4 183q-1 26 -8 34.5t-25 8.5h-15h-16l-5 11l5 81l17.5 -0.5t44.5 -1.5t55 -1.5t49 -0.5q28 0 60.5 0.5t55.5 1.5l23 1l-5 -90q-32 -4 -44.5 -18
t-13.5 -45l-13 -497zM306 -345l-58 46v25q29 21 46.5 50t17.5 56q0 20 -8 41t-21 35l3 14q27 21 54 32.5t48 11.5q38 0 61.5 -27.5t23.5 -73.5q0 -35 -20.5 -72.5t-57.5 -72.5t-89 -65z" />
    <glyph glyph-name="uni1E44" unicode="&#x1e44;" horiz-adv-x="739" 
d="M475 -12q-42 70 -79 129.5t-65.5 104t-44.5 69l-16 24.5h-15l3 -178q1 -28 9 -39.5t30 -11.5q6 0 14 1t14 2l6 1l9 -9l-11 -85l-17.5 0.5t-43.5 1.5t-51.5 1.5t-41.5 0.5q-34 0 -70 -2t-60 -4l-24 -2l10 90q29 4 42.5 18.5t14.5 44.5l12 349q0 35 -14 46.5t-61 16.5
l-12 14l6 81l22 -1t56 -2.5t70 -1.5q27 0 57 1t50.5 2l20.5 1q27 -49 54.5 -95.5t52 -86.5t44 -70.5t30.5 -48l11 -17.5h15l-4 183q-1 26 -8 34.5t-25 8.5h-15h-16l-5 11l5 81l17.5 -0.5t44.5 -1.5t55 -1.5t49 -0.5q28 0 60.5 0.5t55.5 1.5l23 1l-5 -90q-32 -4 -44.5 -18
t-13.5 -45l-13 -497zM366 681q-46 0 -70 24.5t-24 70.5q0 48 27.5 76t74.5 28q44 0 68.5 -25t24.5 -70q0 -48 -27 -76t-74 -28z" />
    <glyph glyph-name="uni1E46" unicode="&#x1e46;" horiz-adv-x="739" 
d="M475 -12q-42 70 -79 129.5t-65.5 104t-44.5 69l-16 24.5h-15l3 -178q1 -28 9 -39.5t30 -11.5q6 0 14 1t14 2l6 1l9 -9l-11 -85l-17.5 0.5t-43.5 1.5t-51.5 1.5t-41.5 0.5q-34 0 -70 -2t-60 -4l-24 -2l10 90q29 4 42.5 18.5t14.5 44.5l12 349q0 35 -14 46.5t-61 16.5
l-12 14l6 81l22 -1t56 -2.5t70 -1.5q27 0 57 1t50.5 2l20.5 1q27 -49 54.5 -95.5t52 -86.5t44 -70.5t30.5 -48l11 -17.5h15l-4 183q-1 26 -8 34.5t-25 8.5h-15h-16l-5 11l5 81l17.5 -0.5t44.5 -1.5t55 -1.5t49 -0.5q28 0 60.5 0.5t55.5 1.5l23 1l-5 -90q-32 -4 -44.5 -18
t-13.5 -45l-13 -497zM362 -232q-46 0 -70 24.5t-24 70.5q0 48 27.5 76t74.5 28q44 0 68.5 -25t24.5 -70q0 -48 -27 -76t-74 -28z" />
    <glyph glyph-name="Eng" unicode="&#x14a;" horiz-adv-x="736" 
d="M427 -172l-38 46l2 15q37 29 55.5 54.5t27.5 56.5q-43 71 -80.5 131t-66.5 105t-45.5 70l-16.5 25h-14l2 -198q1 -28 9 -39t30 -11q6 0 14 0.5t14.5 1.5l6.5 1l8 -8l-10 -82l-28.5 1t-70 2t-81.5 1q-20 0 -48.5 -2t-50 -4l-21.5 -2l10 86q29 4 42.5 19t14.5 46l12 356
q0 32 -13.5 44.5t-62.5 17.5l-11 14l6 77l14.5 -1t37.5 -1.5t48 -1.5t45 -1q26 0 54 1t47.5 2l19.5 1q28 -50 57 -98.5t55.5 -91t47 -74.5t32.5 -50.5l12 -18.5h14l-4 202q0 25 -7.5 34t-25.5 9q-5 0 -18 -0.5l-13 -0.5l-5 10l5 79l21 -0.5t50 -1.5t55.5 -1.5t37.5 -0.5
q17 0 39.5 1t44 1.5t35.5 1l14 0.5l-5 -87q-33 -4 -45.5 -18t-13.5 -45l-11 -416q-3 -100 -57.5 -161.5t-176.5 -95.5z" />
    <glyph glyph-name="uni01CB" unicode="&#x1cb;" horiz-adv-x="1040" 
d="M475 -12q-42 70 -79 129.5t-65.5 104t-44.5 69l-16 24.5h-15l3 -178q1 -28 9 -39.5t30 -11.5q6 0 14 1t14 2l6 1l9 -9l-11 -85l-17.5 0.5t-43.5 1.5t-51.5 1.5t-41.5 0.5q-34 0 -70 -2t-60 -4l-24 -2l10 90q29 4 42.5 18.5t14.5 44.5l12 349q0 35 -14 46.5t-61 16.5
l-12 14l6 81l22 -1t56 -2.5t70 -1.5q27 0 57 1t50.5 2l20.5 1q27 -49 54.5 -95.5t52 -86.5t44 -70.5t30.5 -48l11 -17.5h15l-4 183q-1 26 -8 34.5t-25 8.5h-15h-16l-5 11l5 81l17.5 -0.5t44.5 -1.5t55 -1.5t49 -0.5q28 0 60.5 0.5t55.5 1.5l23 1l-5 -90q-32 -4 -44.5 -18
t-13.5 -45l-13 -497zM784 -248l-47 43l2 15q29 28 44.5 56.5t22 68t6.5 98.5v276q0 33 -7 45.5t-26 12.5q-12 0 -22 -1.5l-10 -1.5l8 81q39 6 81 12.5t78.5 12.5t59.5 10l23 4l13 -22q-13 -31 -20 -150t-7 -326q0 -69 -54 -132.5t-145 -101.5zM901 543q-46 0 -70 24.5
t-24 70.5q0 48 27.5 76t74.5 28q44 0 68.5 -25t24.5 -70q0 -48 -27 -76t-74 -28z" />
    <glyph glyph-name="uni1E48" unicode="&#x1e48;" horiz-adv-x="739" 
d="M475 -12q-42 70 -79 129.5t-65.5 104t-44.5 69l-16 24.5h-15l3 -178q1 -28 9 -39.5t30 -11.5q6 0 14 1t14 2l6 1l9 -9l-11 -85l-17.5 0.5t-43.5 1.5t-51.5 1.5t-41.5 0.5q-34 0 -70 -2t-60 -4l-24 -2l10 90q29 4 42.5 18.5t14.5 44.5l12 349q0 35 -14 46.5t-61 16.5
l-12 14l6 81l22 -1t56 -2.5t70 -1.5q27 0 57 1t50.5 2l20.5 1q27 -49 54.5 -95.5t52 -86.5t44 -70.5t30.5 -48l11 -17.5h15l-4 183q-1 26 -8 34.5t-25 8.5h-15h-16l-5 11l5 81l17.5 -0.5t44.5 -1.5t55 -1.5t49 -0.5q28 0 60.5 0.5t55.5 1.5l23 1l-5 -90q-32 -4 -44.5 -18
t-13.5 -45l-13 -497zM232 -196l-16 15l19 109h15.5t39.5 -0.5t50.5 -0.5h48.5q25 0 54 1.5t49.5 3l20.5 1.5l11 -18l-18 -109l-140 -1h-60.5t-52.5 -0.5z" />
    <glyph glyph-name="Ntilde" unicode="&#xd1;" horiz-adv-x="739" 
d="M475 -12q-42 70 -79 129.5t-65.5 104t-44.5 69l-16 24.5h-15l3 -178q1 -28 9 -39.5t30 -11.5q6 0 14 1t14 2l6 1l9 -9l-11 -85l-17.5 0.5t-43.5 1.5t-51.5 1.5t-41.5 0.5q-34 0 -70 -2t-60 -4l-24 -2l10 90q29 4 42.5 18.5t14.5 44.5l12 349q0 35 -14 46.5t-61 16.5
l-12 14l6 81l22 -1t56 -2.5t70 -1.5q27 0 57 1t50.5 2l20.5 1q27 -49 54.5 -95.5t52 -86.5t44 -70.5t30.5 -48l11 -17.5h15l-4 183q-1 26 -8 34.5t-25 8.5h-15h-16l-5 11l5 81l17.5 -0.5t44.5 -1.5t55 -1.5t49 -0.5q28 0 60.5 0.5t55.5 1.5l23 1l-5 -90q-32 -4 -44.5 -18
t-13.5 -45l-13 -497zM247 675l-59 54v16l81 115l17 4q13 0 34.5 -5t44.5 -12t43.5 -12t31.5 -5q9 0 20.5 9t22 20t17.5 20l7 9h16l59 -54v-16l-81 -115l-17 -4q-13 0 -34.5 5t-44.5 12t-43.5 12t-31.5 5q-9 0 -20.5 -9t-22 -20t-17.5 -20l-7 -9h-16z" />
    <glyph glyph-name="O" unicode="O" horiz-adv-x="655" 
d="M313 -12q-96 0 -162.5 37.5t-101 110t-34.5 176.5q0 84 21 148.5t63 109t103 67t140 22.5q99 0 165.5 -36t99.5 -106.5t33 -176.5q0 -84 -21.5 -149.5t-63.5 -110.5t-103 -68.5t-139 -23.5zM332 114q29 0 46 16t25 52t8 95q0 91 -8.5 144.5t-28 77t-53.5 23.5
q-28 0 -45 -16t-24.5 -51t-7.5 -94q0 -91 8.5 -145t28 -78t51.5 -24z" />
    <glyph glyph-name="Oacute" unicode="&#xd3;" horiz-adv-x="655" 
d="M313 -12q-96 0 -162.5 37.5t-101 110t-34.5 176.5q0 84 21 148.5t63 109t103 67t140 22.5q99 0 165.5 -36t99.5 -106.5t33 -176.5q0 -84 -21.5 -149.5t-63.5 -110.5t-103 -68.5t-139 -23.5zM332 114q29 0 46 16t25 52t8 95q0 91 -8.5 144.5t-28 77t-53.5 23.5
q-28 0 -45 -16t-24.5 -51t-7.5 -94q0 -91 8.5 -145t28 -78t51.5 -24zM252 691l-19 13l-21 71q46 17 90.5 34.5t80 32.5t57 24l21.5 9l16 -5l36 -108l-7 -16l-22 -4t-58.5 -11.5t-81.5 -17.5t-92 -22z" />
    <glyph glyph-name="Obreve" unicode="&#x14e;" horiz-adv-x="655" 
d="M313 -12q-96 0 -162.5 37.5t-101 110t-34.5 176.5q0 84 21 148.5t63 109t103 67t140 22.5q99 0 165.5 -36t99.5 -106.5t33 -176.5q0 -84 -21.5 -149.5t-63.5 -110.5t-103 -68.5t-139 -23.5zM332 114q29 0 46 16t25 52t8 95q0 91 -8.5 144.5t-28 77t-53.5 23.5
q-28 0 -45 -16t-24.5 -51t-7.5 -94q0 -91 8.5 -145t28 -78t51.5 -24zM325 682q-51 0 -87 20t-58 51t-33 65l40 62l27 7q15 -35 44.5 -52.5t66.5 -17.5t66.5 17.5t44.5 52.5l27 -7l40 -62q-10 -34 -32.5 -65t-58.5 -51t-87 -20z" />
    <glyph glyph-name="uni01D1" unicode="&#x1d1;" horiz-adv-x="655" 
d="M313 -12q-96 0 -162.5 37.5t-101 110t-34.5 176.5q0 84 21 148.5t63 109t103 67t140 22.5q99 0 165.5 -36t99.5 -106.5t33 -176.5q0 -84 -21.5 -149.5t-63.5 -110.5t-103 -68.5t-139 -23.5zM332 114q29 0 46 16t25 52t8 95q0 91 -8.5 144.5t-28 77t-53.5 23.5
q-28 0 -45 -16t-24.5 -51t-7.5 -94q0 -91 8.5 -145t28 -78t51.5 -24zM310 688l-15.5 12.5t-41.5 33.5t-57 45t-62 47l35 62l23 7q34 -14 72 -28.5t60 -22.5q23 8 59.5 22.5t71.5 28.5l23 -7l36 -62q-31 -23 -62.5 -47t-57.5 -45t-41.5 -33.5l-15.5 -12.5h-27z" />
    <glyph glyph-name="Ocircumflex" unicode="&#xd4;" horiz-adv-x="655" 
d="M313 -12q-96 0 -162.5 37.5t-101 110t-34.5 176.5q0 84 21 148.5t63 109t103 67t140 22.5q99 0 165.5 -36t99.5 -106.5t33 -176.5q0 -84 -21.5 -149.5t-63.5 -110.5t-103 -68.5t-139 -23.5zM332 114q29 0 46 16t25 52t8 95q0 91 -8.5 144.5t-28 77t-53.5 23.5
q-28 0 -45 -16t-24.5 -51t-7.5 -94q0 -91 8.5 -145t28 -78t51.5 -24zM195 701l-23 7l-36 62q32 23 63 47t57 45t41.5 33.5l15.5 12.5h27q0 2 15.5 -10t41.5 -33t57 -46t62 -49l-35 -62l-23 -7q-34 14 -71.5 28.5t-60.5 22.5q-22 -8 -59 -22.5t-72 -28.5z" />
    <glyph glyph-name="uni1ED0" unicode="&#x1ed0;" horiz-adv-x="655" 
d="M313 -12q-96 0 -162.5 37.5t-101 110t-34.5 176.5q0 84 21 148.5t63 109t103 67t140 22.5q99 0 165.5 -36t99.5 -106.5t33 -176.5q0 -84 -21.5 -149.5t-63.5 -110.5t-103 -68.5t-139 -23.5zM332 114q29 0 46 16t25 52t8 95q0 91 -8.5 144.5t-28 77t-53.5 23.5
q-28 0 -45 -16t-24.5 -51t-7.5 -94q0 -91 8.5 -145t28 -78t51.5 -24zM213 672l-21 7l-33 57q29 21 58 43t52.5 41.5t38 31l14.5 11.5h25l24.5 -19.5t62 -49t75.5 -58.5l-32 -57l-22 -7q-31 14 -65.5 27t-55.5 20q-21 -7 -54.5 -20t-66.5 -27zM469 813l-61 45l74 161l15 6
l90 -52l4 -17l-99 -142z" />
    <glyph glyph-name="uni1ED8" unicode="&#x1ed8;" horiz-adv-x="655" 
d="M313 -12q-96 0 -162.5 37.5t-101 110t-34.5 176.5q0 84 21 148.5t63 109t103 67t140 22.5q99 0 165.5 -36t99.5 -106.5t33 -176.5q0 -84 -21.5 -149.5t-63.5 -110.5t-103 -68.5t-139 -23.5zM332 114q29 0 46 16t25 52t8 95q0 91 -8.5 144.5t-28 77t-53.5 23.5
q-28 0 -45 -16t-24.5 -51t-7.5 -94q0 -91 8.5 -145t28 -78t51.5 -24zM195 701l-23 7l-36 62q32 23 63 47t57 45t41.5 33.5l15.5 12.5h27q0 2 15.5 -10t41.5 -33t57 -46t62 -49l-35 -62l-23 -7q-34 14 -71.5 28.5t-60.5 22.5q-22 -8 -59 -22.5t-72 -28.5zM322 -232
q-46 0 -70 24.5t-24 70.5q0 48 27.5 76t74.5 28q44 0 68.5 -25t24.5 -70q0 -48 -27 -76t-74 -28z" />
    <glyph glyph-name="uni1ED2" unicode="&#x1ed2;" horiz-adv-x="655" 
d="M313 -12q-96 0 -162.5 37.5t-101 110t-34.5 176.5q0 84 21 148.5t63 109t103 67t140 22.5q99 0 165.5 -36t99.5 -106.5t33 -176.5q0 -84 -21.5 -149.5t-63.5 -110.5t-103 -68.5t-139 -23.5zM332 114q29 0 46 16t25 52t8 95q0 91 -8.5 144.5t-28 77t-53.5 23.5
q-28 0 -45 -16t-24.5 -51t-7.5 -94q0 -91 8.5 -145t28 -78t51.5 -24zM486 808l-23 1l-99 142l4 17l89 51l15 -6l74 -161zM159 736q29 21 58 43t52.5 41.5t38 31l14.5 11.5h25l24.5 -19.5t62 -49t75.5 -58.5l-32 -57l-22 -7q-31 14 -65.5 27t-55.5 20q-21 -7 -54.5 -20
t-66.5 -27l-21 7z" />
    <glyph glyph-name="uni1ED4" unicode="&#x1ed4;" horiz-adv-x="655" 
d="M313 -12q-96 0 -162.5 37.5t-101 110t-34.5 176.5q0 84 21 148.5t63 109t103 67t140 22.5q99 0 165.5 -36t99.5 -106.5t33 -176.5q0 -84 -21.5 -149.5t-63.5 -110.5t-103 -68.5t-139 -23.5zM332 114q29 0 46 16t25 52t8 95q0 91 -8.5 144.5t-28 77t-53.5 23.5
q-28 0 -45 -16t-24.5 -51t-7.5 -94q0 -91 8.5 -145t28 -78t51.5 -24zM461 804l-56 84q29 20 42.5 37.5t13.5 35.5q0 15 -9.5 23.5t-29.5 8.5q-15 0 -30 -6t-25.5 -12.5l-10.5 -6.5l-25 39l16 14t40 31.5t48 25.5q60 0 94.5 -24.5t34.5 -68.5q0 -22 -13.5 -42.5t-50.5 -52.5
l29 -45zM159 736q29 21 58 43t52.5 41.5t38 31l14.5 11.5h25l24.5 -19.5t62 -49t75.5 -58.5l-32 -57l-22 -7q-31 14 -65.5 27t-55.5 20q-21 -7 -54.5 -20t-66.5 -27l-21 7z" />
    <glyph glyph-name="uni1ED6" unicode="&#x1ed6;" horiz-adv-x="655" 
d="M313 -12q-96 0 -162.5 37.5t-101 110t-34.5 176.5q0 84 21 148.5t63 109t103 67t140 22.5q99 0 165.5 -36t99.5 -106.5t33 -176.5q0 -84 -21.5 -149.5t-63.5 -110.5t-103 -68.5t-139 -23.5zM332 114q29 0 46 16t25 52t8 95q0 91 -8.5 144.5t-28 77t-53.5 23.5
q-28 0 -45 -16t-24.5 -51t-7.5 -94q0 -91 8.5 -145t28 -78t51.5 -24zM159 736q29 21 58 43t52.5 41.5t38 31l14.5 11.5h25l24.5 -19.5t62 -49t75.5 -58.5l-32 -57l-22 -7q-31 14 -65.5 27t-55.5 20q-21 -7 -54.5 -20t-66.5 -27l-21 7zM207 847l-54 49v15l74 106l16 4
q16 0 44.5 -8t56 -16t41.5 -8q11 0 25.5 13.5t25 27l10.5 13.5h15l54 -50v-15l-74 -105l-16 -4q-16 0 -44.5 8t-56 15.5t-41.5 7.5q-11 0 -25.5 -13t-25 -26.5l-10.5 -13.5h-15z" />
    <glyph glyph-name="uni020C" unicode="&#x20c;" horiz-adv-x="655" 
d="M313 -12q-96 0 -162.5 37.5t-101 110t-34.5 176.5q0 84 21 148.5t63 109t103 67t140 22.5q99 0 165.5 -36t99.5 -106.5t33 -176.5q0 -84 -21.5 -149.5t-63.5 -110.5t-103 -68.5t-139 -23.5zM332 114q29 0 46 16t25 52t8 95q0 91 -8.5 144.5t-28 77t-53.5 23.5
q-28 0 -45 -16t-24.5 -51t-7.5 -94q0 -91 8.5 -145t28 -78t51.5 -24zM462 674q-42 29 -81.5 54t-65.5 40.5l-26 15.5v15l66 81l15 -1l21.5 -22.5t55.5 -57t72 -72.5l-38 -48zM264 674q-42 29 -81.5 54t-65.5 40.5l-26 15.5v15l66 81l15 -1l21.5 -22.5t55.5 -57t72 -72.5
l-38 -48z" />
    <glyph glyph-name="uni022A" unicode="&#x22a;" horiz-adv-x="655" 
d="M313 -12q-96 0 -162.5 37.5t-101 110t-34.5 176.5q0 84 21 148.5t63 109t103 67t140 22.5q99 0 165.5 -36t99.5 -106.5t33 -176.5q0 -84 -21.5 -149.5t-63.5 -110.5t-103 -68.5t-139 -23.5zM332 114q29 0 46 16t25 52t8 95q0 91 -8.5 144.5t-28 77t-53.5 23.5
q-28 0 -45 -16t-24.5 -51t-7.5 -94q0 -91 8.5 -145t28 -78t51.5 -24zM195 889l-16 15l19 109h15.5t39.5 -0.5t50.5 -0.5h48.5q25 0 54 1.5t49.5 3l20.5 1.5l11 -18l-18 -109l-140 -1h-60.5t-52.5 -0.5zM228 680q-38 0 -58.5 20.5t-20.5 59.5q0 40 23 63.5t63 23.5
q38 0 58.5 -21t20.5 -59q0 -40 -23 -63.5t-63 -23.5zM421 680q-39 0 -59.5 20.5t-20.5 59.5q0 40 23 63.5t63 23.5q38 0 58.5 -21t20.5 -59q0 -40 -23 -63.5t-62 -23.5z" />
    <glyph glyph-name="uni0230" unicode="&#x230;" horiz-adv-x="655" 
d="M313 -12q-96 0 -162.5 37.5t-101 110t-34.5 176.5q0 84 21 148.5t63 109t103 67t140 22.5q99 0 165.5 -36t99.5 -106.5t33 -176.5q0 -84 -21.5 -149.5t-63.5 -110.5t-103 -68.5t-139 -23.5zM332 114q29 0 46 16t25 52t8 95q0 91 -8.5 144.5t-28 77t-53.5 23.5
q-28 0 -45 -16t-24.5 -51t-7.5 -94q0 -91 8.5 -145t28 -78t51.5 -24zM325 676q-41 0 -62.5 22t-21.5 62q0 43 24.5 68t66.5 25q39 0 60.5 -22t21.5 -63q0 -43 -24 -67.5t-65 -24.5zM190 883l-16 15l19 109h15.5t39.5 -0.5t50.5 -0.5h48.5q25 0 54 1.5t49.5 3l20.5 1.5
l11 -18l-18 -109l-140 -1h-60.5t-52.5 -0.5z" />
    <glyph glyph-name="uni1ECC" unicode="&#x1ecc;" horiz-adv-x="655" 
d="M313 -12q-96 0 -162.5 37.5t-101 110t-34.5 176.5q0 84 21 148.5t63 109t103 67t140 22.5q99 0 165.5 -36t99.5 -106.5t33 -176.5q0 -84 -21.5 -149.5t-63.5 -110.5t-103 -68.5t-139 -23.5zM332 114q29 0 46 16t25 52t8 95q0 91 -8.5 144.5t-28 77t-53.5 23.5
q-28 0 -45 -16t-24.5 -51t-7.5 -94q0 -91 8.5 -145t28 -78t51.5 -24zM322 -232q-46 0 -70 24.5t-24 70.5q0 48 27.5 76t74.5 28q44 0 68.5 -25t24.5 -70q0 -48 -27 -76t-74 -28z" />
    <glyph glyph-name="Ograve" unicode="&#xd2;" horiz-adv-x="655" 
d="M313 -12q-96 0 -162.5 37.5t-101 110t-34.5 176.5q0 84 21 148.5t63 109t103 67t140 22.5q99 0 165.5 -36t99.5 -106.5t33 -176.5q0 -84 -21.5 -149.5t-63.5 -110.5t-103 -68.5t-139 -23.5zM332 114q29 0 46 16t25 52t8 95q0 91 -8.5 144.5t-28 77t-53.5 23.5
q-28 0 -45 -16t-24.5 -51t-7.5 -94q0 -91 8.5 -145t28 -78t51.5 -24zM402 691q-46 12 -91.5 22t-82 17.5t-58.5 11.5l-22 4l-7 16l36 108l16 5l21.5 -9t57 -24t80 -32.5t90.5 -34.5l-21 -71z" />
    <glyph glyph-name="uni1ECE" unicode="&#x1ece;" horiz-adv-x="655" 
d="M313 -12q-96 0 -162.5 37.5t-101 110t-34.5 176.5q0 84 21 148.5t63 109t103 67t140 22.5q99 0 165.5 -36t99.5 -106.5t33 -176.5q0 -84 -21.5 -149.5t-63.5 -110.5t-103 -68.5t-139 -23.5zM332 114q29 0 46 16t25 52t8 95q0 91 -8.5 144.5t-28 77t-53.5 23.5
q-28 0 -45 -16t-24.5 -51t-7.5 -94q0 -91 8.5 -145t28 -78t51.5 -24zM323 657l-59 88q31 21 45 39.5t14 37.5q0 16 -10.5 25t-30.5 9q-16 0 -32 -6.5t-27 -13.5l-11 -7l-26 41l17 15t42 33t50 27q63 0 99.5 -25.5t36.5 -72.5q0 -23 -14.5 -44.5t-52.5 -55.5l30 -47z" />
    <glyph glyph-name="Ohorn" unicode="&#x1a0;" horiz-adv-x="685" 
d="M313 -12q-96 0 -162.5 37.5t-101 110t-34.5 176.5q0 84 21 148.5t63 109t103 67t140 22.5q51 0 82.5 -7t52.5 -14t38 -7q20 0 30.5 12.5t10.5 31.5q0 32 -29 56l3 14q23 20 48 32t44 12q38 0 61.5 -25t23.5 -66q0 -32 -19.5 -63.5t-49 -52t-60.5 -20.5q31 -41 46.5 -96.5
t15.5 -125.5q0 -84 -21.5 -149.5t-63.5 -110.5t-103 -68.5t-139 -23.5zM332 114q29 0 46 16t25 52t8 95q0 91 -8.5 144.5t-28 77t-53.5 23.5q-28 0 -45 -16t-24.5 -51t-7.5 -94q0 -91 8.5 -145t28 -78t51.5 -24z" />
    <glyph glyph-name="uni1EDA" unicode="&#x1eda;" horiz-adv-x="685" 
d="M313 -12q-96 0 -162.5 37.5t-101 110t-34.5 176.5q0 84 21 148.5t63 109t103 67t140 22.5q51 0 82.5 -7t52.5 -14t38 -7q20 0 30.5 12.5t10.5 31.5q0 32 -29 56l3 14q23 20 48 32t44 12q38 0 61.5 -25t23.5 -66q0 -32 -19.5 -63.5t-49 -52t-60.5 -20.5q31 -41 46.5 -96.5
t15.5 -125.5q0 -84 -21.5 -149.5t-63.5 -110.5t-103 -68.5t-139 -23.5zM332 114q29 0 46 16t25 52t8 95q0 91 -8.5 144.5t-28 77t-53.5 23.5q-28 0 -45 -16t-24.5 -51t-7.5 -94q0 -91 8.5 -145t28 -78t51.5 -24zM252 691l-19 13l-21 71q46 17 90.5 34.5t80 32.5t57 24
l21.5 9l16 -5l36 -108l-7 -16l-22 -4t-58.5 -11.5t-81.5 -17.5t-92 -22z" />
    <glyph glyph-name="uni1EE2" unicode="&#x1ee2;" horiz-adv-x="685" 
d="M313 -12q-96 0 -162.5 37.5t-101 110t-34.5 176.5q0 84 21 148.5t63 109t103 67t140 22.5q51 0 82.5 -7t52.5 -14t38 -7q20 0 30.5 12.5t10.5 31.5q0 32 -29 56l3 14q23 20 48 32t44 12q38 0 61.5 -25t23.5 -66q0 -32 -19.5 -63.5t-49 -52t-60.5 -20.5q31 -41 46.5 -96.5
t15.5 -125.5q0 -84 -21.5 -149.5t-63.5 -110.5t-103 -68.5t-139 -23.5zM332 114q29 0 46 16t25 52t8 95q0 91 -8.5 144.5t-28 77t-53.5 23.5q-28 0 -45 -16t-24.5 -51t-7.5 -94q0 -91 8.5 -145t28 -78t51.5 -24zM322 -232q-46 0 -70 24.5t-24 70.5q0 48 27.5 76t74.5 28
q44 0 68.5 -25t24.5 -70q0 -48 -27 -76t-74 -28z" />
    <glyph glyph-name="uni1EDC" unicode="&#x1edc;" horiz-adv-x="685" 
d="M313 -12q-96 0 -162.5 37.5t-101 110t-34.5 176.5q0 84 21 148.5t63 109t103 67t140 22.5q51 0 82.5 -7t52.5 -14t38 -7q20 0 30.5 12.5t10.5 31.5q0 32 -29 56l3 14q23 20 48 32t44 12q38 0 61.5 -25t23.5 -66q0 -32 -19.5 -63.5t-49 -52t-60.5 -20.5q31 -41 46.5 -96.5
t15.5 -125.5q0 -84 -21.5 -149.5t-63.5 -110.5t-103 -68.5t-139 -23.5zM332 114q29 0 46 16t25 52t8 95q0 91 -8.5 144.5t-28 77t-53.5 23.5q-28 0 -45 -16t-24.5 -51t-7.5 -94q0 -91 8.5 -145t28 -78t51.5 -24zM402 691q-46 12 -91.5 22t-82 17.5t-58.5 11.5l-22 4l-7 16
l36 108l16 5l21.5 -9t57 -24t80 -32.5t90.5 -34.5l-21 -71z" />
    <glyph glyph-name="uni1EDE" unicode="&#x1ede;" horiz-adv-x="685" 
d="M313 -12q-96 0 -162.5 37.5t-101 110t-34.5 176.5q0 84 21 148.5t63 109t103 67t140 22.5q51 0 82.5 -7t52.5 -14t38 -7q20 0 30.5 12.5t10.5 31.5q0 32 -29 56l3 14q23 20 48 32t44 12q38 0 61.5 -25t23.5 -66q0 -32 -19.5 -63.5t-49 -52t-60.5 -20.5q31 -41 46.5 -96.5
t15.5 -125.5q0 -84 -21.5 -149.5t-63.5 -110.5t-103 -68.5t-139 -23.5zM332 114q29 0 46 16t25 52t8 95q0 91 -8.5 144.5t-28 77t-53.5 23.5q-28 0 -45 -16t-24.5 -51t-7.5 -94q0 -91 8.5 -145t28 -78t51.5 -24zM314 687l-59 88q31 21 45 39.5t14 37.5q0 16 -10.5 25
t-30.5 9q-16 0 -32 -6.5t-27 -13.5l-11 -7l-26 41l17 15t42 33t50 27q63 0 99.5 -25.5t36.5 -72.5q0 -23 -14.5 -44.5t-52.5 -55.5l30 -47z" />
    <glyph glyph-name="uni1EE0" unicode="&#x1ee0;" horiz-adv-x="685" 
d="M313 -12q-96 0 -162.5 37.5t-101 110t-34.5 176.5q0 84 21 148.5t63 109t103 67t140 22.5q51 0 82.5 -7t52.5 -14t38 -7q20 0 30.5 12.5t10.5 31.5q0 32 -29 56l3 14q23 20 48 32t44 12q38 0 61.5 -25t23.5 -66q0 -32 -19.5 -63.5t-49 -52t-60.5 -20.5q31 -41 46.5 -96.5
t15.5 -125.5q0 -84 -21.5 -149.5t-63.5 -110.5t-103 -68.5t-139 -23.5zM332 114q29 0 46 16t25 52t8 95q0 91 -8.5 144.5t-28 77t-53.5 23.5q-28 0 -45 -16t-24.5 -51t-7.5 -94q0 -91 8.5 -145t28 -78t51.5 -24zM187 675l-59 54v16l81 115l17 4q13 0 34.5 -5t44.5 -12
t43.5 -12t31.5 -5q9 0 20.5 9t22 20t17.5 20l7 9h16l59 -54v-16l-81 -115l-17 -4q-13 0 -34.5 5t-44.5 12t-43.5 12t-31.5 5q-9 0 -20.5 -9t-22 -20t-17.5 -20l-7 -9h-16z" />
    <glyph glyph-name="Ohungarumlaut" unicode="&#x150;" horiz-adv-x="655" 
d="M313 -12q-96 0 -162.5 37.5t-101 110t-34.5 176.5q0 84 21 148.5t63 109t103 67t140 22.5q99 0 165.5 -36t99.5 -106.5t33 -176.5q0 -84 -21.5 -149.5t-63.5 -110.5t-103 -68.5t-139 -23.5zM332 114q29 0 46 16t25 52t8 95q0 91 -8.5 144.5t-28 77t-53.5 23.5
q-28 0 -45 -16t-24.5 -51t-7.5 -94q0 -91 8.5 -145t28 -78t51.5 -24zM402 674l-19 5l-38 48q38 38 72 72.5t55.5 57l21.5 22.5l15 1l66 -81v-15l-26 -15.5t-65.5 -40.5t-81.5 -54zM204 674l-19 5l-38 48q38 38 72 72.5t55.5 57l21.5 22.5l15 1l66 -81v-15l-25.5 -15.5
t-65.5 -40.5t-82 -54z" />
    <glyph glyph-name="uni020E" unicode="&#x20e;" horiz-adv-x="655" 
d="M313 -12q-96 0 -162.5 37.5t-101 110t-34.5 176.5q0 84 21 148.5t63 109t103 67t140 22.5q99 0 165.5 -36t99.5 -106.5t33 -176.5q0 -84 -21.5 -149.5t-63.5 -110.5t-103 -68.5t-139 -23.5zM332 114q29 0 46 16t25 52t8 95q0 91 -8.5 144.5t-28 77t-53.5 23.5
q-28 0 -45 -16t-24.5 -51t-7.5 -94q0 -91 8.5 -145t28 -78t51.5 -24zM328 760q-37 0 -66.5 -17.5t-44.5 -52.5l-27 7l-40 62q11 34 33 65t58 51t87 20t87 -20t58.5 -51t32.5 -65l-40 -62l-27 -7q-15 35 -44.5 52.5t-66.5 17.5z" />
    <glyph glyph-name="Omacron" unicode="&#x14c;" horiz-adv-x="655" 
d="M313 -12q-96 0 -162.5 37.5t-101 110t-34.5 176.5q0 84 21 148.5t63 109t103 67t140 22.5q99 0 165.5 -36t99.5 -106.5t33 -176.5q0 -84 -21.5 -149.5t-63.5 -110.5t-103 -68.5t-139 -23.5zM332 114q29 0 46 16t25 52t8 95q0 91 -8.5 144.5t-28 77t-53.5 23.5
q-28 0 -45 -16t-24.5 -51t-7.5 -94q0 -91 8.5 -145t28 -78t51.5 -24zM191 694l-16 15l19 109h15.5t39.5 -0.5t50.5 -0.5h48.5q25 0 54 1.5t49.5 3l20.5 1.5l11 -18l-18 -109l-140 -1h-60.5t-52.5 -0.5z" />
    <glyph glyph-name="uni1E52" unicode="&#x1e52;" horiz-adv-x="655" 
d="M313 -12q-96 0 -162.5 37.5t-101 110t-34.5 176.5q0 84 21 148.5t63 109t103 67t140 22.5q99 0 165.5 -36t99.5 -106.5t33 -176.5q0 -84 -21.5 -149.5t-63.5 -110.5t-103 -68.5t-139 -23.5zM332 114q29 0 46 16t25 52t8 95q0 91 -8.5 144.5t-28 77t-53.5 23.5
q-28 0 -45 -16t-24.5 -51t-7.5 -94q0 -91 8.5 -145t28 -78t51.5 -24zM190 692l-16 15l19 109h15.5t39.5 -0.5t50.5 -0.5h48.5q25 0 54 1.5t49.5 3l20.5 1.5l11 -18l-18 -109l-140 -1h-60.5t-52.5 -0.5zM218 841l-19 13l-21 71q46 17 90.5 34.5t80 32.5t57 24l21.5 9l16 -5
l36 -108l-7 -16l-22 -4t-58.5 -11.5t-81.5 -17.5t-92 -22z" />
    <glyph glyph-name="uni1E50" unicode="&#x1e50;" horiz-adv-x="655" 
d="M313 -12q-96 0 -162.5 37.5t-101 110t-34.5 176.5q0 84 21 148.5t63 109t103 67t140 22.5q99 0 165.5 -36t99.5 -106.5t33 -176.5q0 -84 -21.5 -149.5t-63.5 -110.5t-103 -68.5t-139 -23.5zM332 114q29 0 46 16t25 52t8 95q0 91 -8.5 144.5t-28 77t-53.5 23.5
q-28 0 -45 -16t-24.5 -51t-7.5 -94q0 -91 8.5 -145t28 -78t51.5 -24zM188 692l-16 15l19 109h15.5t39.5 -0.5t50.5 -0.5h48.5q25 0 54 1.5t49.5 3l20.5 1.5l11 -18l-18 -109l-140 -1h-60.5t-52.5 -0.5zM444 841q-46 12 -91.5 22t-82 17.5t-58.5 11.5l-22 4l-7 16l36 108
l16 5l21.5 -9t57 -24t80 -32.5t90.5 -34.5l-21 -71z" />
    <glyph glyph-name="uni01EA" unicode="&#x1ea;" horiz-adv-x="655" 
d="M313 -12q-96 0 -162.5 37.5t-101 110t-34.5 176.5q0 84 21 148.5t63 109t103 67t140 22.5q99 0 165.5 -36t99.5 -106.5t33 -176.5q0 -84 -21.5 -149.5t-63.5 -110.5t-103 -68.5t-139 -23.5zM332 114q29 0 46 16t25 52t8 95q0 91 -8.5 144.5t-28 77t-53.5 23.5
q-28 0 -45 -16t-24.5 -51t-7.5 -94q0 -91 8.5 -145t28 -78t51.5 -24zM385 -242q-55 0 -90 29t-35 75q0 14 4.5 28t16.5 33t35.5 47.5t60.5 71.5h82q-28 -48 -44.5 -78.5t-23.5 -49t-7 -30.5q0 -10 6 -16t16 -6q12 0 27.5 6.5t31.5 16.5l33 -52q-36 -35 -63.5 -53.5
t-49.5 -21.5z" />
    <glyph glyph-name="Oslash" unicode="&#xd8;" horiz-adv-x="655" 
d="M264 112l-93 70l250 377l95 -71zM115 -117l-95 55l-4 10l155 234l93 -70zM516 488l-95 71l129 193l97 -54l2 -13zM313 -12q-96 0 -162.5 37.5t-101 110t-34.5 176.5q0 84 21 148.5t63 109t103 67t140 22.5q99 0 165.5 -36t99.5 -106.5t33 -176.5q0 -84 -21.5 -149.5
t-63.5 -110.5t-103 -68.5t-139 -23.5zM332 114q29 0 46 16t25 52t8 95q0 91 -8.5 144.5t-28 77t-53.5 23.5q-28 0 -45 -16t-24.5 -51t-7.5 -94q0 -91 8.5 -145t28 -78t51.5 -24z" />
    <glyph glyph-name="Oslashacute" unicode="&#x1fe;" horiz-adv-x="655" 
d="M264 112l-93 70l250 377l95 -71zM115 -117l-95 55l-4 10l155 234l93 -70zM516 488l-95 71l129 193l97 -54l2 -13zM313 -12q-96 0 -162.5 37.5t-101 110t-34.5 176.5q0 84 21 148.5t63 109t103 67t140 22.5q99 0 165.5 -36t99.5 -106.5t33 -176.5q0 -84 -21.5 -149.5
t-63.5 -110.5t-103 -68.5t-139 -23.5zM332 114q29 0 46 16t25 52t8 95q0 91 -8.5 144.5t-28 77t-53.5 23.5q-28 0 -45 -16t-24.5 -51t-7.5 -94q0 -91 8.5 -145t28 -78t51.5 -24zM236 703l-19 13l-21 71q46 17 90.5 34.5t80 32.5t57 24l21.5 9l16 -5l36 -108l-7 -16l-22 -4
t-58.5 -11.5t-81.5 -17.5t-92 -22z" />
    <glyph glyph-name="Otilde" unicode="&#xd5;" horiz-adv-x="655" 
d="M313 -12q-96 0 -162.5 37.5t-101 110t-34.5 176.5q0 84 21 148.5t63 109t103 67t140 22.5q99 0 165.5 -36t99.5 -106.5t33 -176.5q0 -84 -21.5 -149.5t-63.5 -110.5t-103 -68.5t-139 -23.5zM332 114q29 0 46 16t25 52t8 95q0 91 -8.5 144.5t-28 77t-53.5 23.5
q-28 0 -45 -16t-24.5 -51t-7.5 -94q0 -91 8.5 -145t28 -78t51.5 -24zM187 675l-59 54v16l81 115l17 4q13 0 34.5 -5t44.5 -12t43.5 -12t31.5 -5q9 0 20.5 9t22 20t17.5 20l7 9h16l59 -54v-16l-81 -115l-17 -4q-13 0 -34.5 5t-44.5 12t-43.5 12t-31.5 5q-9 0 -20.5 -9
t-22 -20t-17.5 -20l-7 -9h-16z" />
    <glyph glyph-name="uni1E4C" unicode="&#x1e4c;" horiz-adv-x="655" 
d="M313 -12q-96 0 -162.5 37.5t-101 110t-34.5 176.5q0 84 21 148.5t63 109t103 67t140 22.5q99 0 165.5 -36t99.5 -106.5t33 -176.5q0 -84 -21.5 -149.5t-63.5 -110.5t-103 -68.5t-139 -23.5zM332 114q29 0 46 16t25 52t8 95q0 91 -8.5 144.5t-28 77t-53.5 23.5
q-28 0 -45 -16t-24.5 -51t-7.5 -94q0 -91 8.5 -145t28 -78t51.5 -24zM200 675l-54 50v15l75 106l16 4q16 0 44.5 -7.5t56 -15.5t41.5 -8q11 0 25.5 13.5t25.5 26.5l11 13h15l55 -50v-14l-75 -107l-16 -4q-16 0 -44.5 8t-56.5 16t-42 8q-11 0 -26 -13.5t-25.5 -27
l-10.5 -13.5h-15zM216 871l-19 13l-21 71q46 17 90.5 34.5t80 32.5t57 24l21.5 9l16 -5l36 -108l-7 -16l-22 -4t-58.5 -11.5t-81.5 -17.5t-92 -22z" />
    <glyph glyph-name="uni1E4E" unicode="&#x1e4e;" horiz-adv-x="655" 
d="M313 -12q-96 0 -162.5 37.5t-101 110t-34.5 176.5q0 84 21 148.5t63 109t103 67t140 22.5q99 0 165.5 -36t99.5 -106.5t33 -176.5q0 -84 -21.5 -149.5t-63.5 -110.5t-103 -68.5t-139 -23.5zM332 114q29 0 46 16t25 52t8 95q0 91 -8.5 144.5t-28 77t-53.5 23.5
q-28 0 -45 -16t-24.5 -51t-7.5 -94q0 -91 8.5 -145t28 -78t51.5 -24zM200 673l-54 50v15l75 106l16 4q16 0 44.5 -7.5t56 -15.5t41.5 -8q11 0 25.5 13.5t25.5 26.5l11 13h15l55 -50v-14l-75 -107l-16 -4q-16 0 -44.5 8t-56.5 16t-42 8q-11 0 -26 -13.5t-25.5 -27
l-10.5 -13.5h-15zM417 882q-36 0 -55 19t-19 55q0 37 21.5 58.5t58.5 21.5q35 0 54 -19.5t19 -54.5q0 -37 -21.5 -58.5t-57.5 -21.5zM239 882q-36 0 -55 19t-19 55q0 37 21.5 58.5t58.5 21.5q35 0 54 -19.5t19 -54.5q0 -37 -21 -58.5t-58 -21.5zM417 882q-36 0 -55 19
t-19 55q0 37 21.5 58.5t58.5 21.5q34 0 53.5 -19t19.5 -55t-21.5 -58t-57.5 -22zM239 882q-36 0 -55 19t-19 55q0 37 21.5 58.5t58.5 21.5q35 0 54 -19t19 -55t-21.5 -58t-57.5 -22z" />
    <glyph glyph-name="uni022C" unicode="&#x22c;" horiz-adv-x="655" 
d="M313 -12q-96 0 -162.5 37.5t-101 110t-34.5 176.5q0 84 21 148.5t63 109t103 67t140 22.5q99 0 165.5 -36t99.5 -106.5t33 -176.5q0 -84 -21.5 -149.5t-63.5 -110.5t-103 -68.5t-139 -23.5zM332 114q29 0 46 16t25 52t8 95q0 91 -8.5 144.5t-28 77t-53.5 23.5
q-28 0 -45 -16t-24.5 -51t-7.5 -94q0 -91 8.5 -145t28 -78t51.5 -24zM190 660l-59 54v16l81 115l17 4q13 0 34.5 -5t44.5 -12t43.5 -12t31.5 -5q9 0 20.5 9t22 20t17.5 20l7 9h16l59 -54v-16l-81 -115l-17 -4q-13 0 -34.5 5t-44.5 12t-43.5 12t-31.5 5q-9 0 -20.5 -9
t-22 -20t-17.5 -20l-7 -9h-16zM190 891l-16 15l19 109h15.5t39.5 -0.5t50.5 -0.5h48.5q25 0 54 1.5t49.5 3l20.5 1.5l11 -18l-18 -109l-140 -1h-60.5t-52.5 -0.5z" />
    <glyph glyph-name="OE" unicode="&#x152;" horiz-adv-x="915" 
d="M318 -10q-96 0 -164 37t-103.5 109t-35.5 176q0 84 20.5 147.5t61 105.5t101 63.5t139.5 21.5q49 0 105 -6t124 -6q63 0 126 4t114.5 9t79.5 8l13 -16l-4.5 -30t-10 -76t-8.5 -93l-138 -9l1 13.5t1 23.5q0 23 -7.5 34.5t-28.5 16t-62 4.5q-14 0 -21.5 -2t-10 -8t-2.5 -17
l-6 -113l82 -1q11 0 29.5 1l37 2t31 2l12.5 1l12 -14l-14 -115l-20.5 1t-48.5 1.5t-51 0.5l-75 -6l-1 -85q0 -26 3.5 -39t13.5 -17t31 -4q33 0 53.5 4t33 15.5t19 32.5t10.5 54l128 9l12 -15l-5 -29t-11.5 -75.5t-11.5 -101.5l-15 -16l-18.5 1t-51 2.5t-74 3t-87.5 2.5
t-93 1q-56 0 -115 -6.5t-100 -6.5zM332 108q35 0 53.5 21t18.5 67l1 243q0 34 -10.5 53t-29 27.5t-43.5 8.5q-29 0 -47 -16.5t-25.5 -52.5t-7.5 -97q0 -93 8.5 -149t28.5 -80.5t53 -24.5z" />
    <glyph glyph-name="P" unicode="P" horiz-adv-x="606" 
d="M14 -9l9 92q37 6 51 24.5t14 60.5v337q0 31 -5.5 42.5t-20.5 11.5q-11 0 -23 -1l-12 -1l-10 12l10 78h47.5h47.5h48q17 0 46.5 1t60.5 2t52 2l21 1q90 0 144 -21t81.5 -53.5t36.5 -68.5t9 -65q0 -48 -20 -90.5t-55 -75.5t-80 -52t-95 -19h-86v-48q0 -27 4 -43t15 -22.5
t31 -6.5q11 0 22 1l11 1l5 -8l-10 -86l-19 0.5t-46.5 1.5t-54.5 1.5t-43 0.5q-17 0 -47.5 -1.5t-62.5 -3t-54 -3zM356 321q59 21 59 114q0 49 -25 71t-78 22q-10 0 -13 -4t-4 -18q-2 -38 -4 -83t-4 -92z" />
    <glyph glyph-name="Thorn" unicode="&#xde;" horiz-adv-x="605" 
d="M15 -5l8 85q40 8 52.5 24t12.5 58v346q0 31 -7 41t-28 10q-8 0 -17 -0.5l-9 -0.5l-9 14l8 75h53.5h53.5h54q16 0 44.5 1t57.5 1.5t49.5 1.5l20.5 1l-7 -90q-37 -7 -46 -12.5t-11 -22.5q0 -1 -0.5 -2.5t-0.5 -2.5h69q124 0 183 -46.5t59 -144.5q0 -57 -31.5 -100.5
t-87.5 -67.5t-130 -24h-71v-23q0 -18 6.5 -23.5t25.5 -5.5q21 0 31.5 1.5l10.5 1.5l8 -10l-9 -84l-21 0.5t-51 1.5t-59 1.5t-46 0.5q-23 0 -51.5 -1t-54.5 -1.5t-43 -1.5zM350 246q49 13 49 85q0 40 -22 58t-69 18q-10 0 -15 -5t-5 -17q0 -13 -0.5 -37.5t-1 -49.5t-0.5 -42
q20 -4 38 -7t26 -3z" />
    <glyph glyph-name="Q" unicode="Q" horiz-adv-x="659" 
d="M653 -242q-31 0 -59.5 9t-64 33t-87.5 69.5t-129 118.5q-96 0 -162.5 37.5t-101 110t-34.5 176.5q0 84 21 148.5t63 109t103 67t140 22.5q99 0 165.5 -36t99.5 -106.5t33 -176.5q0 -70 -18.5 -129.5t-53.5 -104.5t-83 -74v-14q36 -27 75.5 -47.5t78 -31.5t70.5 -11
q34 0 62.5 5l28.5 5l12 -11l17 -68l-14.5 -10t-37 -25t-47 -30.5t-45.5 -25.5t-32 -10zM332 114q29 0 46 16t25 52t8 95q0 91 -8.5 144.5t-28 77t-53.5 23.5q-28 0 -45 -16t-24.5 -51t-7.5 -94q0 -91 8.5 -145t28 -78t51.5 -24z" />
    <glyph glyph-name="R" unicode="R" horiz-adv-x="678" 
d="M517 -16q-42 0 -68 21t-46 70l-62 153h-56v-68q0 -31 4.5 -46t19.5 -19.5t47 -6.5l5 -8l-10 -84l-19 0.5t-47 1.5t-55 1.5t-43 0.5q-37 0 -77 -2t-68 -4.5l-28 -2.5l9 92q37 6 51 24.5t14 60.5v347q0 25 -5.5 34.5t-20.5 9.5q-11 0 -23 -1l-12 -1l-10 12l11 79h16
t39.5 -0.5t47.5 -0.5h39q18 0 48.5 1t62 2t53 2l21.5 1q138 0 207 -46.5t69 -141.5q0 -58 -30.5 -106t-89.5 -83l62 -104q26 -43 50.5 -65.5t46.5 -22.5l11 -16l-9 -73zM364 344q17 7 28.5 16t19 20.5t10.5 27.5t3 37q0 43 -27 63t-86 20q-10 0 -13 -4t-4 -18
q-3 -38 -4.5 -76t-2.5 -76z" />
    <glyph glyph-name="Racute" unicode="&#x154;" horiz-adv-x="678" 
d="M517 -16q-42 0 -68 21t-46 70l-62 153h-56v-68q0 -31 4.5 -46t19.5 -19.5t47 -6.5l5 -8l-10 -84l-19 0.5t-47 1.5t-55 1.5t-43 0.5q-37 0 -77 -2t-68 -4.5l-28 -2.5l9 92q37 6 51 24.5t14 60.5v347q0 25 -5.5 34.5t-20.5 9.5q-11 0 -23 -1l-12 -1l-10 12l11 79h16
t39.5 -0.5t47.5 -0.5h39q18 0 48.5 1t62 2t53 2l21.5 1q138 0 207 -46.5t69 -141.5q0 -58 -30.5 -106t-89.5 -83l62 -104q26 -43 50.5 -65.5t46.5 -22.5l11 -16l-9 -73zM364 344q17 7 28.5 16t19 20.5t10.5 27.5t3 37q0 43 -27 63t-86 20q-10 0 -13 -4t-4 -18
q-3 -38 -4.5 -76t-2.5 -76zM218 691l-19 13l-21 71q46 17 90.5 34.5t80 32.5t57 24l21.5 9l16 -5l36 -108l-7 -16l-22 -4t-58.5 -11.5t-81.5 -17.5t-92 -22z" />
    <glyph glyph-name="Rcaron" unicode="&#x158;" horiz-adv-x="678" 
d="M517 -16q-42 0 -68 21t-46 70l-62 153h-56v-68q0 -31 4.5 -46t19.5 -19.5t47 -6.5l5 -8l-10 -84l-19 0.5t-47 1.5t-55 1.5t-43 0.5q-37 0 -77 -2t-68 -4.5l-28 -2.5l9 92q37 6 51 24.5t14 60.5v347q0 25 -5.5 34.5t-20.5 9.5q-11 0 -23 -1l-12 -1l-10 12l11 79h16
t39.5 -0.5t47.5 -0.5h39q18 0 48.5 1t62 2t53 2l21.5 1q138 0 207 -46.5t69 -141.5q0 -58 -30.5 -106t-89.5 -83l62 -104q26 -43 50.5 -65.5t46.5 -22.5l11 -16l-9 -73zM364 344q17 7 28.5 16t19 20.5t10.5 27.5t3 37q0 43 -27 63t-86 20q-10 0 -13 -4t-4 -18
q-3 -38 -4.5 -76t-2.5 -76zM315 688l-15.5 12.5t-41.5 33.5t-57 45t-62 47l35 62l23 7q34 -14 72 -28.5t60 -22.5q23 8 59.5 22.5t71.5 28.5l23 -7l36 -62q-31 -23 -62.5 -47t-57.5 -45t-41.5 -33.5l-15.5 -12.5h-27z" />
    <glyph glyph-name="uni0156" unicode="&#x156;" horiz-adv-x="678" 
d="M517 -16q-42 0 -68 21t-46 70l-62 153h-56v-68q0 -31 4.5 -46t19.5 -19.5t47 -6.5l5 -8l-10 -84l-19 0.5t-47 1.5t-55 1.5t-43 0.5q-37 0 -77 -2t-68 -4.5l-28 -2.5l9 92q37 6 51 24.5t14 60.5v347q0 25 -5.5 34.5t-20.5 9.5q-11 0 -23 -1l-12 -1l-10 12l11 79h16
t39.5 -0.5t47.5 -0.5h39q18 0 48.5 1t62 2t53 2l21.5 1q138 0 207 -46.5t69 -141.5q0 -58 -30.5 -106t-89.5 -83l62 -104q26 -43 50.5 -65.5t46.5 -22.5l11 -16l-9 -73zM364 344q17 7 28.5 16t19 20.5t10.5 27.5t3 37q0 43 -27 63t-86 20q-10 0 -13 -4t-4 -18
q-3 -38 -4.5 -76t-2.5 -76zM271 -345l-58 46v25q29 21 46.5 50t17.5 56q0 20 -8 41t-21 35l3 14q27 21 54 32.5t48 11.5q38 0 61.5 -27.5t23.5 -73.5q0 -35 -20.5 -72.5t-57.5 -72.5t-89 -65z" />
    <glyph glyph-name="uni0210" unicode="&#x210;" horiz-adv-x="678" 
d="M517 -16q-42 0 -68 21t-46 70l-62 153h-56v-68q0 -31 4.5 -46t19.5 -19.5t47 -6.5l5 -8l-10 -84l-19 0.5t-47 1.5t-55 1.5t-43 0.5q-37 0 -77 -2t-68 -4.5l-28 -2.5l9 92q37 6 51 24.5t14 60.5v347q0 25 -5.5 34.5t-20.5 9.5q-11 0 -23 -1l-12 -1l-10 12l11 79h16
t39.5 -0.5t47.5 -0.5h39q18 0 48.5 1t62 2t53 2l21.5 1q138 0 207 -46.5t69 -141.5q0 -58 -30.5 -106t-89.5 -83l62 -104q26 -43 50.5 -65.5t46.5 -22.5l11 -16l-9 -73zM364 344q17 7 28.5 16t19 20.5t10.5 27.5t3 37q0 43 -27 63t-86 20q-10 0 -13 -4t-4 -18
q-3 -38 -4.5 -76t-2.5 -76zM463 674q-42 29 -81.5 54t-65.5 40.5l-26 15.5v15l66 81l15 -1l21.5 -22.5t55.5 -57t72 -72.5l-38 -48zM265 674q-42 29 -81.5 54t-65.5 40.5l-26 15.5v15l66 81l15 -1l21.5 -22.5t55.5 -57t72 -72.5l-38 -48z" />
    <glyph glyph-name="uni1E5A" unicode="&#x1e5a;" horiz-adv-x="678" 
d="M517 -16q-42 0 -68 21t-46 70l-62 153h-56v-68q0 -31 4.5 -46t19.5 -19.5t47 -6.5l5 -8l-10 -84l-19 0.5t-47 1.5t-55 1.5t-43 0.5q-37 0 -77 -2t-68 -4.5l-28 -2.5l9 92q37 6 51 24.5t14 60.5v347q0 25 -5.5 34.5t-20.5 9.5q-11 0 -23 -1l-12 -1l-10 12l11 79h16
t39.5 -0.5t47.5 -0.5h39q18 0 48.5 1t62 2t53 2l21.5 1q138 0 207 -46.5t69 -141.5q0 -58 -30.5 -106t-89.5 -83l62 -104q26 -43 50.5 -65.5t46.5 -22.5l11 -16l-9 -73zM364 344q17 7 28.5 16t19 20.5t10.5 27.5t3 37q0 43 -27 63t-86 20q-10 0 -13 -4t-4 -18
q-3 -38 -4.5 -76t-2.5 -76zM331 -232q-46 0 -70 24.5t-24 70.5q0 48 27.5 76t74.5 28q44 0 68.5 -25t24.5 -70q0 -48 -27 -76t-74 -28z" />
    <glyph glyph-name="uni0212" unicode="&#x212;" horiz-adv-x="678" 
d="M517 -16q-42 0 -68 21t-46 70l-62 153h-56v-68q0 -31 4.5 -46t19.5 -19.5t47 -6.5l5 -8l-10 -84l-19 0.5t-47 1.5t-55 1.5t-43 0.5q-37 0 -77 -2t-68 -4.5l-28 -2.5l9 92q37 6 51 24.5t14 60.5v347q0 25 -5.5 34.5t-20.5 9.5q-11 0 -23 -1l-12 -1l-10 12l11 79h16
t39.5 -0.5t47.5 -0.5h39q18 0 48.5 1t62 2t53 2l21.5 1q138 0 207 -46.5t69 -141.5q0 -58 -30.5 -106t-89.5 -83l62 -104q26 -43 50.5 -65.5t46.5 -22.5l11 -16l-9 -73zM364 344q17 7 28.5 16t19 20.5t10.5 27.5t3 37q0 43 -27 63t-86 20q-10 0 -13 -4t-4 -18
q-3 -38 -4.5 -76t-2.5 -76zM329 760q-37 0 -66.5 -17.5t-44.5 -52.5l-27 7l-40 62q11 34 33 65t58 51t87 20t87 -20t58.5 -51t32.5 -65l-40 -62l-27 -7q-15 35 -44.5 52.5t-66.5 17.5z" />
    <glyph glyph-name="uni1E5E" unicode="&#x1e5e;" horiz-adv-x="678" 
d="M517 -16q-42 0 -68 21t-46 70l-62 153h-56v-68q0 -31 4.5 -46t19.5 -19.5t47 -6.5l5 -8l-10 -84l-19 0.5t-47 1.5t-55 1.5t-43 0.5q-37 0 -77 -2t-68 -4.5l-28 -2.5l9 92q37 6 51 24.5t14 60.5v347q0 25 -5.5 34.5t-20.5 9.5q-11 0 -23 -1l-12 -1l-10 12l11 79h16
t39.5 -0.5t47.5 -0.5h39q18 0 48.5 1t62 2t53 2l21.5 1q138 0 207 -46.5t69 -141.5q0 -58 -30.5 -106t-89.5 -83l62 -104q26 -43 50.5 -65.5t46.5 -22.5l11 -16l-9 -73zM364 344q17 7 28.5 16t19 20.5t10.5 27.5t3 37q0 43 -27 63t-86 20q-10 0 -13 -4t-4 -18
q-3 -38 -4.5 -76t-2.5 -76zM201 -196l-16 15l19 109h15.5t39.5 -0.5t50.5 -0.5h48.5q25 0 54 1.5t49.5 3l20.5 1.5l11 -18l-18 -109l-140 -1h-60.5t-52.5 -0.5z" />
    <glyph glyph-name="S" unicode="S" horiz-adv-x="551" 
d="M222 -12q-58 0 -102.5 11t-69.5 21.5l-25 10.5l-12 18l3 16t6.5 41.5t7 54t4.5 53.5l126 9q0 -36 10 -58.5t30 -33t48 -10.5q31 0 48.5 11t17.5 30q0 22 -20.5 37.5t-53.5 29.5t-69 30q-38 17 -73 40.5t-57.5 58.5t-22.5 87q0 65 38.5 113t107.5 74.5t162 26.5
q55 0 98 -7t68 -14l25 -7l12 -22l-5 -24.5t-11.5 -64.5t-10.5 -85l-116 -8l-12 8v6v10q0 35 -19 52.5t-54 17.5q-28 0 -45.5 -12.5t-17.5 -32.5t18 -35t46.5 -27.5t61.5 -26.5q41 -17 80 -40t65 -58.5t26 -91.5q0 -65 -38 -112t-108 -72t-167 -25z" />
    <glyph glyph-name="Sacute" unicode="&#x15a;" horiz-adv-x="551" 
d="M222 -12q-58 0 -102.5 11t-69.5 21.5l-25 10.5l-12 18l3 16t6.5 41.5t7 54t4.5 53.5l126 9q0 -36 10 -58.5t30 -33t48 -10.5q31 0 48.5 11t17.5 30q0 22 -20.5 37.5t-53.5 29.5t-69 30q-38 17 -73 40.5t-57.5 58.5t-22.5 87q0 65 38.5 113t107.5 74.5t162 26.5
q55 0 98 -7t68 -14l25 -7l12 -22l-5 -24.5t-11.5 -64.5t-10.5 -85l-116 -8l-12 8v6v10q0 35 -19 52.5t-54 17.5q-28 0 -45.5 -12.5t-17.5 -32.5t18 -35t46.5 -27.5t61.5 -26.5q41 -17 80 -40t65 -58.5t26 -91.5q0 -65 -38 -112t-108 -72t-167 -25zM175 691l-19 13l-21 71
q46 17 90.5 34.5t80 32.5t57 24l21.5 9l16 -5l36 -108l-7 -16l-22 -4t-58.5 -11.5t-81.5 -17.5t-92 -22z" />
    <glyph glyph-name="uni1E64" unicode="&#x1e64;" horiz-adv-x="551" 
d="M222 -12q-58 0 -102.5 11t-69.5 21.5l-25 10.5l-12 18l3 16t6.5 41.5t7 54t4.5 53.5l126 9q0 -36 10 -58.5t30 -33t48 -10.5q31 0 48.5 11t17.5 30q0 22 -20.5 37.5t-53.5 29.5t-69 30q-38 17 -73 40.5t-57.5 58.5t-22.5 87q0 65 38.5 113t107.5 74.5t162 26.5
q55 0 98 -7t68 -14l25 -7l12 -22l-5 -24.5t-11.5 -64.5t-10.5 -85l-116 -8l-12 8v6v10q0 35 -19 52.5t-54 17.5q-28 0 -45.5 -12.5t-17.5 -32.5t18 -35t46.5 -27.5t61.5 -26.5q41 -17 80 -40t65 -58.5t26 -91.5q0 -65 -38 -112t-108 -72t-167 -25zM175 691l-19 13l-21 71
q46 17 90.5 34.5t80 32.5t57 24l21.5 9l16 -5l36 -108l-7 -16l-22 -4t-58.5 -11.5t-81.5 -17.5t-92 -22zM282 863q-46 0 -70 24.5t-24 70.5q0 48 27.5 76t74.5 28q44 0 68.5 -25t24.5 -70q0 -48 -27 -76t-74 -28z" />
    <glyph glyph-name="uniA78B" unicode="&#xa78b;" horiz-adv-x="249" 
d="M82 320l-19 6q4 59 4.5 119.5t-1.5 113t-4 86.5l133 14l9 -12q-3 -32 -10.5 -81.5t-17 -107t-20.5 -113.5z" />
    <glyph glyph-name="Scaron" unicode="&#x160;" horiz-adv-x="551" 
d="M222 -12q-58 0 -102.5 11t-69.5 21.5l-25 10.5l-12 18l3 16t6.5 41.5t7 54t4.5 53.5l126 9q0 -36 10 -58.5t30 -33t48 -10.5q31 0 48.5 11t17.5 30q0 22 -20.5 37.5t-53.5 29.5t-69 30q-38 17 -73 40.5t-57.5 58.5t-22.5 87q0 65 38.5 113t107.5 74.5t162 26.5
q55 0 98 -7t68 -14l25 -7l12 -22l-5 -24.5t-11.5 -64.5t-10.5 -85l-116 -8l-12 8v6v10q0 35 -19 52.5t-54 17.5q-28 0 -45.5 -12.5t-17.5 -32.5t18 -35t46.5 -27.5t61.5 -26.5q41 -17 80 -40t65 -58.5t26 -91.5q0 -65 -38 -112t-108 -72t-167 -25zM207 688l-15.5 12.5
t-41.5 33.5t-57 45t-62 47l35 62l23 7q34 -14 72 -28.5t60 -22.5q23 8 59.5 22.5t71.5 28.5l23 -7l36 -62q-31 -23 -62.5 -47t-57.5 -45t-41.5 -33.5l-15.5 -12.5h-27z" />
    <glyph glyph-name="uni1E66" unicode="&#x1e66;" horiz-adv-x="551" 
d="M222 -12q-58 0 -102.5 11t-69.5 21.5l-25 10.5l-12 18l3 16t6.5 41.5t7 54t4.5 53.5l126 9q0 -36 10 -58.5t30 -33t48 -10.5q31 0 48.5 11t17.5 30q0 22 -20.5 37.5t-53.5 29.5t-69 30q-38 17 -73 40.5t-57.5 58.5t-22.5 87q0 65 38.5 113t107.5 74.5t162 26.5
q55 0 98 -7t68 -14l25 -7l12 -22l-5 -24.5t-11.5 -64.5t-10.5 -85l-116 -8l-12 8v6v10q0 35 -19 52.5t-54 17.5q-28 0 -45.5 -12.5t-17.5 -32.5t18 -35t46.5 -27.5t61.5 -26.5q41 -17 80 -40t65 -58.5t26 -91.5q0 -65 -38 -112t-108 -72t-167 -25zM272 688l-15.5 12.5
t-41.5 33.5t-57 45t-62 47l35 62l23 7q34 -14 72 -28.5t60 -22.5q23 8 59.5 22.5t71.5 28.5l23 -7l36 -62q-31 -23 -62.5 -47t-57.5 -45t-41.5 -33.5l-15.5 -12.5h-27zM282 889q-46 0 -70 24.5t-24 70.5q0 48 27.5 76t74.5 28q44 0 68.5 -25t24.5 -70q0 -48 -27 -76t-74 -28
z" />
    <glyph glyph-name="Scedilla" unicode="&#x15e;" horiz-adv-x="551" 
d="M222 -12q-58 0 -102.5 11t-69.5 21.5l-25 10.5l-12 18l3 16t6.5 41.5t7 54t4.5 53.5l126 9q0 -36 10 -58.5t30 -33t48 -10.5q31 0 48.5 11t17.5 30q0 22 -20.5 37.5t-53.5 29.5t-69 30q-38 17 -73 40.5t-57.5 58.5t-22.5 87q0 65 38.5 113t107.5 74.5t162 26.5
q55 0 98 -7t68 -14l25 -7l12 -22l-5 -24.5t-11.5 -64.5t-10.5 -85l-116 -8l-12 8v6v10q0 35 -19 52.5t-54 17.5q-28 0 -45.5 -12.5t-17.5 -32.5t18 -35t46.5 -27.5t61.5 -26.5q41 -17 80 -40t65 -58.5t26 -91.5q0 -65 -38 -112t-108 -72t-167 -25zM237 -242q-19 0 -39.5 6
t-34.5 18t-14 28q0 12 17 33.5t32 36.5h9q1 -28 14.5 -42t34.5 -14q15 0 23.5 6.5t8.5 16.5q0 11 -13.5 22.5t-33.5 23t-40 20.5l31 122h61l-16 -73q21 -10 46.5 -26t43.5 -36t18 -43q0 -27 -20 -49.5t-53.5 -36t-74.5 -13.5z" />
    <glyph glyph-name="Scircumflex" unicode="&#x15c;" horiz-adv-x="551" 
d="M222 -12q-58 0 -102.5 11t-69.5 21.5l-25 10.5l-12 18l3 16t6.5 41.5t7 54t4.5 53.5l126 9q0 -36 10 -58.5t30 -33t48 -10.5q31 0 48.5 11t17.5 30q0 22 -20.5 37.5t-53.5 29.5t-69 30q-38 17 -73 40.5t-57.5 58.5t-22.5 87q0 65 38.5 113t107.5 74.5t162 26.5
q55 0 98 -7t68 -14l25 -7l12 -22l-5 -24.5t-11.5 -64.5t-10.5 -85l-116 -8l-12 8v6v10q0 35 -19 52.5t-54 17.5q-28 0 -45.5 -12.5t-17.5 -32.5t18 -35t46.5 -27.5t61.5 -26.5q41 -17 80 -40t65 -58.5t26 -91.5q0 -65 -38 -112t-108 -72t-167 -25zM155 701l-23 7l-36 62
q32 23 63 47t57 45t41.5 33.5l15.5 12.5h27q0 2 15.5 -10t41.5 -33t57 -46t62 -49l-35 -62l-23 -7q-34 14 -71.5 28.5t-60.5 22.5q-22 -8 -59 -22.5t-72 -28.5z" />
    <glyph glyph-name="uni0218" unicode="&#x218;" horiz-adv-x="551" 
d="M222 -12q-58 0 -102.5 11t-69.5 21.5l-25 10.5l-12 18l3 16t6.5 41.5t7 54t4.5 53.5l126 9q0 -36 10 -58.5t30 -33t48 -10.5q31 0 48.5 11t17.5 30q0 22 -20.5 37.5t-53.5 29.5t-69 30q-38 17 -73 40.5t-57.5 58.5t-22.5 87q0 65 38.5 113t107.5 74.5t162 26.5
q55 0 98 -7t68 -14l25 -7l12 -22l-5 -24.5t-11.5 -64.5t-10.5 -85l-116 -8l-12 8v6v10q0 35 -19 52.5t-54 17.5q-28 0 -45.5 -12.5t-17.5 -32.5t18 -35t46.5 -27.5t61.5 -26.5q41 -17 80 -40t65 -58.5t26 -91.5q0 -65 -38 -112t-108 -72t-167 -25zM177 -345l-58 46v25
q29 21 46.5 50t17.5 56q0 20 -8 41t-21 35l3 14q27 21 54 32.5t48 11.5q38 0 61.5 -27.5t23.5 -73.5q0 -35 -20.5 -72.5t-57.5 -72.5t-89 -65z" />
    <glyph glyph-name="uni1E60" unicode="&#x1e60;" horiz-adv-x="551" 
d="M222 -12q-58 0 -102.5 11t-69.5 21.5l-25 10.5l-12 18l3 16t6.5 41.5t7 54t4.5 53.5l126 9q0 -36 10 -58.5t30 -33t48 -10.5q31 0 48.5 11t17.5 30q0 22 -20.5 37.5t-53.5 29.5t-69 30q-38 17 -73 40.5t-57.5 58.5t-22.5 87q0 65 38.5 113t107.5 74.5t162 26.5
q55 0 98 -7t68 -14l25 -7l12 -22l-5 -24.5t-11.5 -64.5t-10.5 -85l-116 -8l-12 8v6v10q0 35 -19 52.5t-54 17.5q-28 0 -45.5 -12.5t-17.5 -32.5t18 -35t46.5 -27.5t61.5 -26.5q41 -17 80 -40t65 -58.5t26 -91.5q0 -65 -38 -112t-108 -72t-167 -25zM282 681q-46 0 -70 24.5
t-24 70.5q0 48 27.5 76t74.5 28q44 0 68.5 -25t24.5 -70q0 -48 -27 -76t-74 -28z" />
    <glyph glyph-name="uni1E62" unicode="&#x1e62;" horiz-adv-x="551" 
d="M222 -12q-58 0 -102.5 11t-69.5 21.5l-25 10.5l-12 18l3 16t6.5 41.5t7 54t4.5 53.5l126 9q0 -36 10 -58.5t30 -33t48 -10.5q31 0 48.5 11t17.5 30q0 22 -20.5 37.5t-53.5 29.5t-69 30q-38 17 -73 40.5t-57.5 58.5t-22.5 87q0 65 38.5 113t107.5 74.5t162 26.5
q55 0 98 -7t68 -14l25 -7l12 -22l-5 -24.5t-11.5 -64.5t-10.5 -85l-116 -8l-12 8v6v10q0 35 -19 52.5t-54 17.5q-28 0 -45.5 -12.5t-17.5 -32.5t18 -35t46.5 -27.5t61.5 -26.5q41 -17 80 -40t65 -58.5t26 -91.5q0 -65 -38 -112t-108 -72t-167 -25zM246 -232q-46 0 -70 24.5
t-24 70.5q0 48 27.5 76t74.5 28q44 0 68.5 -25t24.5 -70q0 -48 -27 -76t-74 -28z" />
    <glyph glyph-name="uni1E68" unicode="&#x1e68;" horiz-adv-x="551" 
d="M222 -12q-58 0 -102.5 11t-69.5 21.5l-25 10.5l-12 18l3 16t6.5 41.5t7 54t4.5 53.5l126 9q0 -36 10 -58.5t30 -33t48 -10.5q31 0 48.5 11t17.5 30q0 22 -20.5 37.5t-53.5 29.5t-69 30q-38 17 -73 40.5t-57.5 58.5t-22.5 87q0 65 38.5 113t107.5 74.5t162 26.5
q55 0 98 -7t68 -14l25 -7l12 -22l-5 -24.5t-11.5 -64.5t-10.5 -85l-116 -8l-12 8v6v10q0 35 -19 52.5t-54 17.5q-28 0 -45.5 -12.5t-17.5 -32.5t18 -35t46.5 -27.5t61.5 -26.5q41 -17 80 -40t65 -58.5t26 -91.5q0 -65 -38 -112t-108 -72t-167 -25zM246 -232q-46 0 -70 24.5
t-24 70.5q0 48 27.5 76t74.5 28q44 0 68.5 -25t24.5 -70q0 -48 -27 -76t-74 -28zM282 681q-46 0 -70 24.5t-24 70.5q0 48 27.5 76t74.5 28q44 0 68.5 -25t24.5 -70q0 -48 -27 -76t-74 -28z" />
    <glyph glyph-name="uni1E9E" unicode="&#x1e9e;" horiz-adv-x="853" 
d="M570 -12q-55 0 -97.5 11t-66 21.5l-23.5 10.5l-12 18l4.5 26t9.5 62t7 67l116 9q0 -31 7 -51.5t20.5 -30.5t34.5 -10q30 0 46 21t16 61q0 42 -27.5 64.5t-80.5 22.5q-22 0 -45.5 -3.5t-39 -7l-15.5 -3.5l-41 59l163 192h-216q-13 0 -20.5 -2t-10 -8t-3.5 -17l-12 -325
q0 -36 5.5 -48t22.5 -12q11 0 17.5 0.5l6.5 0.5l16 -18l-12 -101l-13 0.5t-32 1t-38.5 1t-32.5 0.5q-51 0 -99.5 -2.5t-80 -5l-31.5 -2.5l9 92q38 6 51.5 24.5t13.5 63.5l1 335q0 32 -5 43t-22 11q-8 0 -17 -1l-9 -1l-12 14l9 79l24.5 -0.5t64 -0.5t84.5 -0.5t86 -1t68 -0.5
q39 0 92.5 1t110 2t105.5 2t79.5 2l30.5 1l27 -53l-164 -180h19q53 0 94.5 -26t65.5 -70.5t24 -100.5q0 -72 -34 -125.5t-95 -82.5t-144 -29z" />
    <glyph glyph-name="uni018F" unicode="&#x18f;" horiz-adv-x="642" 
d="M301 -12q-96 0 -162 37t-100 109.5t-35 179.5l230 -7q2 -103 22.5 -148t64.5 -45q29 0 46.5 18.5t26 58.5t8.5 103q0 82 -14.5 129.5t-48 68t-90.5 20.5q-43 0 -93 -11t-89 -29l-12 5l-24 78q57 39 103 61.5t89 32.5t89 10q73 0 131.5 -23.5t100 -67t63.5 -105t22 -138.5
q0 -78 -22.5 -140.5t-65 -106.5t-103 -67t-137.5 -23zM46 237l-42 77l11 22h488v-80z" />
    <glyph glyph-name="T" unicode="T" horiz-adv-x="593" 
d="M90 -9l8 92q41 4 62 11.5t29 25t8 48.5v358q-20 0 -32.5 -5t-20.5 -19.5t-12.5 -41t-7.5 -70.5l-124 -8q2 40 3.5 87.5t3 93.5t1.5 81l13 14l119 -11h314l121 11l13 -14q1 -47 1.5 -95.5t1.5 -90t2 -68.5l-124 -8q-4 49 -8 77.5t-11 43t-18.5 19t-31.5 4.5q-1 -41 -2 -86
t-1.5 -92.5l-1 -95t-0.5 -92.5q0 -38 12 -53.5t40 -15.5q18 0 51 3l5 -6l-9 -94q-33 2 -72.5 3t-75 2t-55.5 1q-19 0 -52 -1t-72 -3t-77 -5z" />
    <glyph glyph-name="Tbar" unicode="&#x166;" horiz-adv-x="593" 
d="M90 -9l8 92q41 4 62 11.5t29 25t8 48.5v358q-20 0 -32.5 -5t-20.5 -19.5t-12.5 -41t-7.5 -70.5l-124 -8q2 40 3.5 87.5t3 93.5t1.5 81l13 14l119 -11h314l121 11l13 -14q1 -47 1.5 -95.5t1.5 -90t2 -68.5l-124 -8q-4 49 -8 77.5t-11 43t-18.5 19t-31.5 4.5q-1 -41 -2 -86
t-1.5 -92.5l-1 -95t-0.5 -92.5q0 -38 12 -53.5t40 -15.5q18 0 51 3l5 -6l-9 -94q-33 2 -72.5 3t-75 2t-55.5 1q-19 0 -52 -1t-72 -3t-77 -5zM92 227l-12 13l9 76h24.5t62 -0.5t79 -0.5h75.5q23 0 51.5 1t54.5 1.5t43 1.5l17 1l17 -20l-6 -72h-206h-67t-68.5 -0.5t-53 -0.5
h-20.5z" />
    <glyph glyph-name="Tcaron" unicode="&#x164;" horiz-adv-x="593" 
d="M90 -9l8 92q41 4 62 11.5t29 25t8 48.5v358q-20 0 -32.5 -5t-20.5 -19.5t-12.5 -41t-7.5 -70.5l-124 -8q2 40 3.5 87.5t3 93.5t1.5 81l13 14l119 -11h314l121 11l13 -14q1 -47 1.5 -95.5t1.5 -90t2 -68.5l-124 -8q-4 49 -8 77.5t-11 43t-18.5 19t-31.5 4.5q-1 -41 -2 -86
t-1.5 -92.5l-1 -95t-0.5 -92.5q0 -38 12 -53.5t40 -15.5q18 0 51 3l5 -6l-9 -94q-33 2 -72.5 3t-75 2t-55.5 1q-19 0 -52 -1t-72 -3t-77 -5zM286 688l-15.5 12.5t-41.5 33.5t-57 45t-62 47l35 62l23 7q34 -14 72 -28.5t60 -22.5q23 8 59.5 22.5t71.5 28.5l23 -7l36 -62
q-31 -23 -62.5 -47t-57.5 -45t-41.5 -33.5l-15.5 -12.5h-27z" />
    <glyph glyph-name="uni0162" unicode="&#x162;" horiz-adv-x="593" 
d="M90 -9l8 92q41 4 62 11.5t29 25t8 48.5v358q-20 0 -32.5 -5t-20.5 -19.5t-12.5 -41t-7.5 -70.5l-124 -8q2 40 3.5 87.5t3 93.5t1.5 81l13 14l119 -11h314l121 11l13 -14q1 -47 1.5 -95.5t1.5 -90t2 -68.5l-124 -8q-4 49 -8 77.5t-11 43t-18.5 19t-31.5 4.5q-1 -41 -2 -86
t-1.5 -92.5l-1 -95t-0.5 -92.5q0 -38 12 -53.5t40 -15.5q18 0 51 3l5 -6l-9 -94q-33 2 -72.5 3t-75 2t-55.5 1q-19 0 -52 -1t-72 -3t-77 -5zM275 -242q-19 0 -39.5 6t-34.5 18t-14 28q0 12 17 33.5t32 36.5h9q1 -28 14.5 -42t34.5 -14q15 0 23.5 6.5t8.5 16.5
q0 11 -13.5 22.5t-33.5 23t-40 20.5l31 122h61l-16 -73q21 -10 46.5 -26t43.5 -36t18 -43q0 -27 -20 -49.5t-53.5 -36t-74.5 -13.5z" />
    <glyph glyph-name="uni021A" unicode="&#x21a;" horiz-adv-x="593" 
d="M90 -9l8 92q41 4 62 11.5t29 25t8 48.5v358q-20 0 -32.5 -5t-20.5 -19.5t-12.5 -41t-7.5 -70.5l-124 -8q2 40 3.5 87.5t3 93.5t1.5 81l13 14l119 -11h314l121 11l13 -14q1 -47 1.5 -95.5t1.5 -90t2 -68.5l-124 -8q-4 49 -8 77.5t-11 43t-18.5 19t-31.5 4.5q-1 -41 -2 -86
t-1.5 -92.5l-1 -95t-0.5 -92.5q0 -38 12 -53.5t40 -15.5q18 0 51 3l5 -6l-9 -94q-33 2 -72.5 3t-75 2t-55.5 1q-19 0 -52 -1t-72 -3t-77 -5zM215 -345l-58 46v25q29 21 46.5 50t17.5 56q0 20 -8 41t-21 35l3 14q27 21 54 32.5t48 11.5q38 0 61.5 -27.5t23.5 -73.5
q0 -35 -20.5 -72.5t-57.5 -72.5t-89 -65z" />
    <glyph glyph-name="uni1E6C" unicode="&#x1e6c;" horiz-adv-x="593" 
d="M90 -9l8 92q41 4 62 11.5t29 25t8 48.5v358q-20 0 -32.5 -5t-20.5 -19.5t-12.5 -41t-7.5 -70.5l-124 -8q2 40 3.5 87.5t3 93.5t1.5 81l13 14l119 -11h314l121 11l13 -14q1 -47 1.5 -95.5t1.5 -90t2 -68.5l-124 -8q-4 49 -8 77.5t-11 43t-18.5 19t-31.5 4.5q-1 -41 -2 -86
t-1.5 -92.5l-1 -95t-0.5 -92.5q0 -38 12 -53.5t40 -15.5q18 0 51 3l5 -6l-9 -94q-33 2 -72.5 3t-75 2t-55.5 1q-19 0 -52 -1t-72 -3t-77 -5zM289 -232q-46 0 -70 24.5t-24 70.5q0 48 27.5 76t74.5 28q44 0 68.5 -25t24.5 -70q0 -48 -27 -76t-74 -28z" />
    <glyph glyph-name="uni1E6E" unicode="&#x1e6e;" horiz-adv-x="593" 
d="M90 -9l8 92q41 4 62 11.5t29 25t8 48.5v358q-20 0 -32.5 -5t-20.5 -19.5t-12.5 -41t-7.5 -70.5l-124 -8q2 40 3.5 87.5t3 93.5t1.5 81l13 14l119 -11h314l121 11l13 -14q1 -47 1.5 -95.5t1.5 -90t2 -68.5l-124 -8q-4 49 -8 77.5t-11 43t-18.5 19t-31.5 4.5q-1 -41 -2 -86
t-1.5 -92.5l-1 -95t-0.5 -92.5q0 -38 12 -53.5t40 -15.5q18 0 51 3l5 -6l-9 -94q-33 2 -72.5 3t-75 2t-55.5 1q-19 0 -52 -1t-72 -3t-77 -5zM159 -196l-16 15l19 109h15.5t39.5 -0.5t50.5 -0.5h48.5q25 0 54 1.5t49.5 3l20.5 1.5l11 -18l-18 -109l-140 -1h-60.5t-52.5 -0.5z
" />
    <glyph glyph-name="U" unicode="U" horiz-adv-x="627" 
d="M305 -12q-128 0 -187 50.5t-59 160.5v306q0 33 -5.5 43.5t-22.5 10.5q-7 0 -18 -1l-11 -1l-2 4l10 89l28 -1t69 -1.5t80 -0.5q15 0 37 0.5t44.5 1.5t37.5 1.5l15 0.5l-10 -93q-26 -2 -36.5 -14t-11.5 -35l-6 -289q0 -48 20 -76.5t57 -28.5q38 0 55 21t17 67v55v78
t-0.5 80.5t-0.5 63.5v25q0 31 -5.5 42.5t-20.5 11.5q-7 0 -15 -1l-8 -1l-3 4l11 89l13 -0.5t33 -1l40 -1t34 -0.5q31 0 64 0.5t56.5 1.5l23.5 1l-8 -90q-31 -10 -39.5 -18t-8.5 -26v-282q0 -121 -67.5 -183.5t-199.5 -62.5z" />
    <glyph glyph-name="Uacute" unicode="&#xda;" horiz-adv-x="627" 
d="M305 -12q-128 0 -187 50.5t-59 160.5v306q0 33 -5.5 43.5t-22.5 10.5q-7 0 -18 -1l-11 -1l-2 4l10 89l28 -1t69 -1.5t80 -0.5q15 0 37 0.5t44.5 1.5t37.5 1.5l15 0.5l-10 -93q-26 -2 -36.5 -14t-11.5 -35l-6 -289q0 -48 20 -76.5t57 -28.5q38 0 55 21t17 67v55v78
t-0.5 80.5t-0.5 63.5v25q0 31 -5.5 42.5t-20.5 11.5q-7 0 -15 -1l-8 -1l-3 4l11 89l13 -0.5t33 -1l40 -1t34 -0.5q31 0 64 0.5t56.5 1.5l23.5 1l-8 -90q-31 -10 -39.5 -18t-8.5 -26v-282q0 -121 -67.5 -183.5t-199.5 -62.5zM260 691l-19 13l-21 71q46 17 90.5 34.5t80 32.5
t57 24l21.5 9l16 -5l36 -108l-7 -16l-22 -4t-58.5 -11.5t-81.5 -17.5t-92 -22z" />
    <glyph glyph-name="Ubreve" unicode="&#x16c;" horiz-adv-x="627" 
d="M305 -12q-128 0 -187 50.5t-59 160.5v306q0 33 -5.5 43.5t-22.5 10.5q-7 0 -18 -1l-11 -1l-2 4l10 89l28 -1t69 -1.5t80 -0.5q15 0 37 0.5t44.5 1.5t37.5 1.5l15 0.5l-10 -93q-26 -2 -36.5 -14t-11.5 -35l-6 -289q0 -48 20 -76.5t57 -28.5q38 0 55 21t17 67v55v78
t-0.5 80.5t-0.5 63.5v25q0 31 -5.5 42.5t-20.5 11.5q-7 0 -15 -1l-8 -1l-3 4l11 89l13 -0.5t33 -1l40 -1t34 -0.5q31 0 64 0.5t56.5 1.5l23.5 1l-8 -90q-31 -10 -39.5 -18t-8.5 -26v-282q0 -121 -67.5 -183.5t-199.5 -62.5zM333 692q-51 0 -87 20t-58 51t-33 65l40 62l27 7
q15 -35 44.5 -52.5t66.5 -17.5t66.5 17.5t44.5 52.5l27 -7l40 -62q-10 -34 -32.5 -65t-58.5 -51t-87 -20z" />
    <glyph glyph-name="uni01D3" unicode="&#x1d3;" horiz-adv-x="627" 
d="M305 -12q-128 0 -187 50.5t-59 160.5v306q0 33 -5.5 43.5t-22.5 10.5q-7 0 -18 -1l-11 -1l-2 4l10 89l28 -1t69 -1.5t80 -0.5q15 0 37 0.5t44.5 1.5t37.5 1.5l15 0.5l-10 -93q-26 -2 -36.5 -14t-11.5 -35l-6 -289q0 -48 20 -76.5t57 -28.5q38 0 55 21t17 67v55v78
t-0.5 80.5t-0.5 63.5v25q0 31 -5.5 42.5t-20.5 11.5q-7 0 -15 -1l-8 -1l-3 4l11 89l13 -0.5t33 -1l40 -1t34 -0.5q31 0 64 0.5t56.5 1.5l23.5 1l-8 -90q-31 -10 -39.5 -18t-8.5 -26v-282q0 -121 -67.5 -183.5t-199.5 -62.5zM320 688l-15.5 12.5t-41.5 33.5t-57 45t-62 47
l35 62l23 7q34 -14 72 -28.5t60 -22.5q23 8 59.5 22.5t71.5 28.5l23 -7l36 -62q-31 -23 -62.5 -47t-57.5 -45t-41.5 -33.5l-15.5 -12.5h-27z" />
    <glyph glyph-name="Ucircumflex" unicode="&#xdb;" horiz-adv-x="627" 
d="M305 -12q-128 0 -187 50.5t-59 160.5v306q0 33 -5.5 43.5t-22.5 10.5q-7 0 -18 -1l-11 -1l-2 4l10 89l28 -1t69 -1.5t80 -0.5q15 0 37 0.5t44.5 1.5t37.5 1.5l15 0.5l-10 -93q-26 -2 -36.5 -14t-11.5 -35l-6 -289q0 -48 20 -76.5t57 -28.5q38 0 55 21t17 67v55v78
t-0.5 80.5t-0.5 63.5v25q0 31 -5.5 42.5t-20.5 11.5q-7 0 -15 -1l-8 -1l-3 4l11 89l13 -0.5t33 -1l40 -1t34 -0.5q31 0 64 0.5t56.5 1.5l23.5 1l-8 -90q-31 -10 -39.5 -18t-8.5 -26v-282q0 -121 -67.5 -183.5t-199.5 -62.5zM203 701l-23 7l-36 62q32 23 63 47t57 45
t41.5 33.5l15.5 12.5h27q0 2 15.5 -10t41.5 -33t57 -46t62 -49l-35 -62l-23 -7q-34 14 -71.5 28.5t-60.5 22.5q-22 -8 -59 -22.5t-72 -28.5z" />
    <glyph glyph-name="uni0214" unicode="&#x214;" horiz-adv-x="627" 
d="M305 -12q-128 0 -187 50.5t-59 160.5v306q0 33 -5.5 43.5t-22.5 10.5q-7 0 -18 -1l-11 -1l-2 4l10 89l28 -1t69 -1.5t80 -0.5q15 0 37 0.5t44.5 1.5t37.5 1.5l15 0.5l-10 -93q-26 -2 -36.5 -14t-11.5 -35l-6 -289q0 -48 20 -76.5t57 -28.5q38 0 55 21t17 67v55v78
t-0.5 80.5t-0.5 63.5v25q0 31 -5.5 42.5t-20.5 11.5q-7 0 -15 -1l-8 -1l-3 4l11 89l13 -0.5t33 -1l40 -1t34 -0.5q31 0 64 0.5t56.5 1.5l23.5 1l-8 -90q-31 -10 -39.5 -18t-8.5 -26v-282q0 -121 -67.5 -183.5t-199.5 -62.5zM448 674q-42 29 -81.5 54t-65.5 40.5l-26 15.5v15
l66 81l15 -1l21.5 -22.5t55.5 -57t72 -72.5l-38 -48zM250 674q-42 29 -81.5 54t-65.5 40.5l-26 15.5v15l66 81l15 -1l21.5 -22.5t55.5 -57t72 -72.5l-38 -48z" />
    <glyph glyph-name="Udieresis" unicode="&#xdc;" horiz-adv-x="627" 
d="M305 -12q-128 0 -187 50.5t-59 160.5v306q0 33 -5.5 43.5t-22.5 10.5q-7 0 -18 -1l-11 -1l-2 4l10 89l28 -1t69 -1.5t80 -0.5q15 0 37 0.5t44.5 1.5t37.5 1.5l15 0.5l-10 -93q-26 -2 -36.5 -14t-11.5 -35l-6 -289q0 -48 20 -76.5t57 -28.5q38 0 55 21t17 67v55v78
t-0.5 80.5t-0.5 63.5v25q0 31 -5.5 42.5t-20.5 11.5q-7 0 -15 -1l-8 -1l-3 4l11 89l13 -0.5t33 -1l40 -1t34 -0.5q31 0 64 0.5t56.5 1.5l23.5 1l-8 -90q-31 -10 -39.5 -18t-8.5 -26v-282q0 -121 -67.5 -183.5t-199.5 -62.5zM426 685q-39 0 -59.5 20.5t-20.5 59.5
q0 40 23 63.5t63 23.5q38 0 58.5 -21t20.5 -59q0 -40 -23 -63.5t-62 -23.5zM233 685q-38 0 -58.5 20.5t-20.5 59.5q0 40 23 63.5t63 23.5q38 0 58.5 -21t20.5 -59q0 -40 -23 -63.5t-63 -23.5z" />
    <glyph glyph-name="uni01D7" unicode="&#x1d7;" horiz-adv-x="627" 
d="M305 -12q-128 0 -187 50.5t-59 160.5v306q0 33 -5.5 43.5t-22.5 10.5q-7 0 -18 -1l-11 -1l-2 4l10 89l28 -1t69 -1.5t80 -0.5q15 0 37 0.5t44.5 1.5t37.5 1.5l15 0.5l-10 -93q-26 -2 -36.5 -14t-11.5 -35l-6 -289q0 -48 20 -76.5t57 -28.5q38 0 55 21t17 67v55v78
t-0.5 80.5t-0.5 63.5v25q0 31 -5.5 42.5t-20.5 11.5q-7 0 -15 -1l-8 -1l-3 4l11 89l13 -0.5t33 -1l40 -1t34 -0.5q31 0 64 0.5t56.5 1.5l23.5 1l-8 -90q-31 -10 -39.5 -18t-8.5 -26v-282q0 -121 -67.5 -183.5t-199.5 -62.5zM222 876l-19 13l-21 71q46 17 90.5 34.5t80 32.5
t57 24l21.5 9l16 -5l36 -108l-7 -16l-22 -4t-58.5 -11.5t-81.5 -17.5t-92 -22zM233 690q-38 0 -58.5 20.5t-20.5 59.5q0 40 23 63.5t63 23.5q38 0 58.5 -21t20.5 -59q0 -40 -23 -63.5t-63 -23.5zM426 690q-39 0 -59.5 20.5t-20.5 59.5q0 40 23 63.5t63 23.5q38 0 58.5 -21
t20.5 -59q0 -40 -23 -63.5t-62 -23.5z" />
    <glyph glyph-name="uni01D9" unicode="&#x1d9;" horiz-adv-x="627" 
d="M305 -12q-128 0 -187 50.5t-59 160.5v306q0 33 -5.5 43.5t-22.5 10.5q-7 0 -18 -1l-11 -1l-2 4l10 89l28 -1t69 -1.5t80 -0.5q15 0 37 0.5t44.5 1.5t37.5 1.5l15 0.5l-10 -93q-26 -2 -36.5 -14t-11.5 -35l-6 -289q0 -48 20 -76.5t57 -28.5q38 0 55 21t17 67v55v78
t-0.5 80.5t-0.5 63.5v25q0 31 -5.5 42.5t-20.5 11.5q-7 0 -15 -1l-8 -1l-3 4l11 89l13 -0.5t33 -1l40 -1t34 -0.5q31 0 64 0.5t56.5 1.5l23.5 1l-8 -90q-31 -10 -39.5 -18t-8.5 -26v-282q0 -121 -67.5 -183.5t-199.5 -62.5zM319 863l-15.5 12.5t-41.5 33.5t-57 45t-62 47
l35 62l23 7q34 -14 72 -28.5t60 -22.5q23 8 59.5 22.5t71.5 28.5l23 -7l36 -62q-31 -23 -62.5 -47t-57.5 -45t-41.5 -33.5l-15.5 -12.5h-27zM233 690q-38 0 -58.5 20.5t-20.5 59.5q0 40 23 63.5t63 23.5q38 0 58.5 -21t20.5 -59q0 -40 -23 -63.5t-63 -23.5zM426 690
q-39 0 -59.5 20.5t-20.5 59.5q0 40 23 63.5t63 23.5q38 0 58.5 -21t20.5 -59q0 -40 -23 -63.5t-62 -23.5z" />
    <glyph glyph-name="uni01DB" unicode="&#x1db;" horiz-adv-x="627" 
d="M305 -12q-128 0 -187 50.5t-59 160.5v306q0 33 -5.5 43.5t-22.5 10.5q-7 0 -18 -1l-11 -1l-2 4l10 89l28 -1t69 -1.5t80 -0.5q15 0 37 0.5t44.5 1.5t37.5 1.5l15 0.5l-10 -93q-26 -2 -36.5 -14t-11.5 -35l-6 -289q0 -48 20 -76.5t57 -28.5q38 0 55 21t17 67v55v78
t-0.5 80.5t-0.5 63.5v25q0 31 -5.5 42.5t-20.5 11.5q-7 0 -15 -1l-8 -1l-3 4l11 89l13 -0.5t33 -1l40 -1t34 -0.5q31 0 64 0.5t56.5 1.5l23.5 1l-8 -90q-31 -10 -39.5 -18t-8.5 -26v-282q0 -121 -67.5 -183.5t-199.5 -62.5zM445 876q-46 12 -91.5 22t-82 17.5t-58.5 11.5
l-22 4l-7 16l36 108l16 5l21.5 -9t57 -24t80 -32.5t90.5 -34.5l-21 -71zM233 690q-38 0 -58.5 20.5t-20.5 59.5q0 40 23 63.5t63 23.5q38 0 58.5 -21t20.5 -59q0 -40 -23 -63.5t-63 -23.5zM426 690q-39 0 -59.5 20.5t-20.5 59.5q0 40 23 63.5t63 23.5q38 0 58.5 -21
t20.5 -59q0 -40 -23 -63.5t-62 -23.5z" />
    <glyph glyph-name="uni01D5" unicode="&#x1d5;" horiz-adv-x="627" 
d="M305 -12q-128 0 -187 50.5t-59 160.5v306q0 33 -5.5 43.5t-22.5 10.5q-7 0 -18 -1l-11 -1l-2 4l10 89l28 -1t69 -1.5t80 -0.5q15 0 37 0.5t44.5 1.5t37.5 1.5l15 0.5l-10 -93q-26 -2 -36.5 -14t-11.5 -35l-6 -289q0 -48 20 -76.5t57 -28.5q38 0 55 21t17 67v55v78
t-0.5 80.5t-0.5 63.5v25q0 31 -5.5 42.5t-20.5 11.5q-7 0 -15 -1l-8 -1l-3 4l11 89l13 -0.5t33 -1l40 -1t34 -0.5q31 0 64 0.5t56.5 1.5l23.5 1l-8 -90q-31 -10 -39.5 -18t-8.5 -26v-282q0 -121 -67.5 -183.5t-199.5 -62.5zM200 899l-16 15l19 109h15.5t39.5 -0.5t50.5 -0.5
h48.5q25 0 54 1.5t49.5 3l20.5 1.5l11 -18l-18 -109l-140 -1h-60.5t-52.5 -0.5zM233 690q-38 0 -58.5 20.5t-20.5 59.5q0 40 23 63.5t63 23.5q38 0 58.5 -21t20.5 -59q0 -40 -23 -63.5t-63 -23.5zM426 690q-39 0 -59.5 20.5t-20.5 59.5q0 40 23 63.5t63 23.5q38 0 58.5 -21
t20.5 -59q0 -40 -23 -63.5t-62 -23.5z" />
    <glyph glyph-name="uni1EE4" unicode="&#x1ee4;" horiz-adv-x="627" 
d="M305 -12q-128 0 -187 50.5t-59 160.5v306q0 33 -5.5 43.5t-22.5 10.5q-7 0 -18 -1l-11 -1l-2 4l10 89l28 -1t69 -1.5t80 -0.5q15 0 37 0.5t44.5 1.5t37.5 1.5l15 0.5l-10 -93q-26 -2 -36.5 -14t-11.5 -35l-6 -289q0 -48 20 -76.5t57 -28.5q38 0 55 21t17 67v55v78
t-0.5 80.5t-0.5 63.5v25q0 31 -5.5 42.5t-20.5 11.5q-7 0 -15 -1l-8 -1l-3 4l11 89l13 -0.5t33 -1l40 -1t34 -0.5q31 0 64 0.5t56.5 1.5l23.5 1l-8 -90q-31 -10 -39.5 -18t-8.5 -26v-282q0 -121 -67.5 -183.5t-199.5 -62.5zM321 -232q-46 0 -70 24.5t-24 70.5q0 48 27.5 76
t74.5 28q44 0 68.5 -25t24.5 -70q0 -48 -27 -76t-74 -28z" />
    <glyph glyph-name="Ugrave" unicode="&#xd9;" horiz-adv-x="627" 
d="M305 -12q-128 0 -187 50.5t-59 160.5v306q0 33 -5.5 43.5t-22.5 10.5q-7 0 -18 -1l-11 -1l-2 4l10 89l28 -1t69 -1.5t80 -0.5q15 0 37 0.5t44.5 1.5t37.5 1.5l15 0.5l-10 -93q-26 -2 -36.5 -14t-11.5 -35l-6 -289q0 -48 20 -76.5t57 -28.5q38 0 55 21t17 67v55v78
t-0.5 80.5t-0.5 63.5v25q0 31 -5.5 42.5t-20.5 11.5q-7 0 -15 -1l-8 -1l-3 4l11 89l13 -0.5t33 -1l40 -1t34 -0.5q31 0 64 0.5t56.5 1.5l23.5 1l-8 -90q-31 -10 -39.5 -18t-8.5 -26v-282q0 -121 -67.5 -183.5t-199.5 -62.5zM410 691q-46 12 -91.5 22t-82 17.5t-58.5 11.5
l-22 4l-7 16l36 108l16 5l21.5 -9t57 -24t80 -32.5t90.5 -34.5l-21 -71z" />
    <glyph glyph-name="uni1EE6" unicode="&#x1ee6;" horiz-adv-x="627" 
d="M305 -12q-128 0 -187 50.5t-59 160.5v306q0 33 -5.5 43.5t-22.5 10.5q-7 0 -18 -1l-11 -1l-2 4l10 89l28 -1t69 -1.5t80 -0.5q15 0 37 0.5t44.5 1.5t37.5 1.5l15 0.5l-10 -93q-26 -2 -36.5 -14t-11.5 -35l-6 -289q0 -48 20 -76.5t57 -28.5q38 0 55 21t17 67v55v78
t-0.5 80.5t-0.5 63.5v25q0 31 -5.5 42.5t-20.5 11.5q-7 0 -15 -1l-8 -1l-3 4l11 89l13 -0.5t33 -1l40 -1t34 -0.5q31 0 64 0.5t56.5 1.5l23.5 1l-8 -90q-31 -10 -39.5 -18t-8.5 -26v-282q0 -121 -67.5 -183.5t-199.5 -62.5zM332 657l-59 88q31 21 45 39.5t14 37.5
q0 16 -10.5 25t-30.5 9q-16 0 -32 -6.5t-27 -13.5l-11 -7l-26 41l17 15t42 33t50 27q63 0 99.5 -25.5t36.5 -72.5q0 -23 -14.5 -44.5t-52.5 -55.5l30 -47z" />
    <glyph glyph-name="Uhorn" unicode="&#x1af;" horiz-adv-x="667" 
d="M305 -12q-128 0 -187 50.5t-59 160.5v306q0 33 -5.5 43.5t-22.5 10.5q-7 0 -18 -1l-11 -1l-2 4l10 89l28 -1t69 -1.5t80 -0.5q15 0 37 0.5t44.5 1.5t37.5 1.5l15 0.5l-10 -93q-25 -3 -36 -14t-12 -35l-6 -289q0 -49 20.5 -77t56.5 -28q38 0 55 21t17 67v55v78t-0.5 80.5
t-0.5 63.5v25q0 31 -5.5 42.5t-20.5 11.5q-7 0 -15 -1l-8 -1l-3 4l11 89l14.5 -0.5t36.5 -1t45 -1t40 -0.5q57 0 57 51q0 39 -29 66l3 14q23 20 48 32t44 12q38 0 61.5 -25t23.5 -66q0 -46 -17 -74t-54 -53q-30 -18 -44 -30.5t-17.5 -25.5t-3.5 -32v-282
q0 -121 -67.5 -183.5t-199.5 -62.5z" />
    <glyph glyph-name="uni1EE8" unicode="&#x1ee8;" horiz-adv-x="667" 
d="M305 -12q-128 0 -187 50.5t-59 160.5v306q0 33 -5.5 43.5t-22.5 10.5q-7 0 -18 -1l-11 -1l-2 4l10 89l28 -1t69 -1.5t80 -0.5q15 0 37 0.5t44.5 1.5t37.5 1.5l15 0.5l-10 -93q-25 -3 -36 -14t-12 -35l-6 -289q0 -49 20.5 -77t56.5 -28q38 0 55 21t17 67v55v78t-0.5 80.5
t-0.5 63.5v25q0 31 -5.5 42.5t-20.5 11.5q-7 0 -15 -1l-8 -1l-3 4l11 89l14.5 -0.5t36.5 -1t45 -1t40 -0.5q57 0 57 51q0 39 -29 66l3 14q23 20 48 32t44 12q38 0 61.5 -25t23.5 -66q0 -46 -17 -74t-54 -53q-30 -18 -44 -30.5t-17.5 -25.5t-3.5 -32v-282
q0 -121 -67.5 -183.5t-199.5 -62.5zM230 691l-19 13l-21 71q46 17 90.5 34.5t80 32.5t57 24l21.5 9l16 -5l36 -108l-7 -16l-22 -4t-58.5 -11.5t-81.5 -17.5t-92 -22z" />
    <glyph glyph-name="uni1EF0" unicode="&#x1ef0;" horiz-adv-x="667" 
d="M305 -12q-128 0 -187 50.5t-59 160.5v306q0 33 -5.5 43.5t-22.5 10.5q-7 0 -18 -1l-11 -1l-2 4l10 89l28 -1t69 -1.5t80 -0.5q15 0 37 0.5t44.5 1.5t37.5 1.5l15 0.5l-10 -93q-25 -3 -36 -14t-12 -35l-6 -289q0 -49 20.5 -77t56.5 -28q38 0 55 21t17 67v55v78t-0.5 80.5
t-0.5 63.5v25q0 31 -5.5 42.5t-20.5 11.5q-7 0 -15 -1l-8 -1l-3 4l11 89l14.5 -0.5t36.5 -1t45 -1t40 -0.5q57 0 57 51q0 39 -29 66l3 14q23 20 48 32t44 12q38 0 61.5 -25t23.5 -66q0 -46 -17 -74t-54 -53q-30 -18 -44 -30.5t-17.5 -25.5t-3.5 -32v-282
q0 -121 -67.5 -183.5t-199.5 -62.5zM321 -232q-46 0 -70 24.5t-24 70.5q0 48 27.5 76t74.5 28q44 0 68.5 -25t24.5 -70q0 -48 -27 -76t-74 -28z" />
    <glyph glyph-name="uni1EEA" unicode="&#x1eea;" horiz-adv-x="667" 
d="M305 -12q-128 0 -187 50.5t-59 160.5v306q0 33 -5.5 43.5t-22.5 10.5q-7 0 -18 -1l-11 -1l-2 4l10 89l28 -1t69 -1.5t80 -0.5q15 0 37 0.5t44.5 1.5t37.5 1.5l15 0.5l-10 -93q-25 -3 -36 -14t-12 -35l-6 -289q0 -49 20.5 -77t56.5 -28q38 0 55 21t17 67v55v78t-0.5 80.5
t-0.5 63.5v25q0 31 -5.5 42.5t-20.5 11.5q-7 0 -15 -1l-8 -1l-3 4l11 89l14.5 -0.5t36.5 -1t45 -1t40 -0.5q57 0 57 51q0 39 -29 66l3 14q23 20 48 32t44 12q38 0 61.5 -25t23.5 -66q0 -46 -17 -74t-54 -53q-30 -18 -44 -30.5t-17.5 -25.5t-3.5 -32v-282
q0 -121 -67.5 -183.5t-199.5 -62.5zM410 691q-46 12 -91.5 22t-82 17.5t-58.5 11.5l-22 4l-7 16l36 108l16 5l21.5 -9t57 -24t80 -32.5t90.5 -34.5l-21 -71z" />
    <glyph glyph-name="uni1EEC" unicode="&#x1eec;" horiz-adv-x="667" 
d="M305 -12q-128 0 -187 50.5t-59 160.5v306q0 33 -5.5 43.5t-22.5 10.5q-7 0 -18 -1l-11 -1l-2 4l10 89l28 -1t69 -1.5t80 -0.5q15 0 37 0.5t44.5 1.5t37.5 1.5l15 0.5l-10 -93q-25 -3 -36 -14t-12 -35l-6 -289q0 -49 20.5 -77t56.5 -28q38 0 55 21t17 67v55v78t-0.5 80.5
t-0.5 63.5v25q0 31 -5.5 42.5t-20.5 11.5q-7 0 -15 -1l-8 -1l-3 4l11 89l14.5 -0.5t36.5 -1t45 -1t40 -0.5q57 0 57 51q0 39 -29 66l3 14q23 20 48 32t44 12q38 0 61.5 -25t23.5 -66q0 -46 -17 -74t-54 -53q-30 -18 -44 -30.5t-17.5 -25.5t-3.5 -32v-282
q0 -121 -67.5 -183.5t-199.5 -62.5zM331 687l-59 88q31 21 45 39.5t14 37.5q0 16 -10.5 25t-30.5 9q-16 0 -32 -6.5t-27 -13.5l-11 -7l-26 41l17 15t42 33t50 27q63 0 99.5 -25.5t36.5 -72.5q0 -23 -14.5 -44.5t-52.5 -55.5l30 -47z" />
    <glyph glyph-name="uni1EEE" unicode="&#x1eee;" horiz-adv-x="667" 
d="M305 -12q-128 0 -187 50.5t-59 160.5v306q0 33 -5.5 43.5t-22.5 10.5q-7 0 -18 -1l-11 -1l-2 4l10 89l28 -1t69 -1.5t80 -0.5q15 0 37 0.5t44.5 1.5t37.5 1.5l15 0.5l-10 -93q-25 -3 -36 -14t-12 -35l-6 -289q0 -49 20.5 -77t56.5 -28q38 0 55 21t17 67v55v78t-0.5 80.5
t-0.5 63.5v25q0 31 -5.5 42.5t-20.5 11.5q-7 0 -15 -1l-8 -1l-3 4l11 89l14.5 -0.5t36.5 -1t45 -1t40 -0.5q57 0 57 51q0 39 -29 66l3 14q23 20 48 32t44 12q38 0 61.5 -25t23.5 -66q0 -46 -17 -74t-54 -53q-30 -18 -44 -30.5t-17.5 -25.5t-3.5 -32v-282
q0 -121 -67.5 -183.5t-199.5 -62.5zM183 700l-59 54v16l81 115l17 4q13 0 34.5 -5t44.5 -12t43.5 -12t31.5 -5q9 0 20.5 9t22 20t17.5 20l7 9h16l59 -54v-16l-81 -115l-17 -4q-13 0 -34.5 5t-44.5 12t-43.5 12t-31.5 5q-9 0 -20.5 -9t-22 -20t-17.5 -20l-7 -9h-16z" />
    <glyph glyph-name="Uhungarumlaut" unicode="&#x170;" horiz-adv-x="627" 
d="M305 -12q-128 0 -187 50.5t-59 160.5v306q0 33 -5.5 43.5t-22.5 10.5q-7 0 -18 -1l-11 -1l-2 4l10 89l28 -1t69 -1.5t80 -0.5q15 0 37 0.5t44.5 1.5t37.5 1.5l15 0.5l-10 -93q-26 -2 -36.5 -14t-11.5 -35l-6 -289q0 -48 20 -76.5t57 -28.5q38 0 55 21t17 67v55v78
t-0.5 80.5t-0.5 63.5v25q0 31 -5.5 42.5t-20.5 11.5q-7 0 -15 -1l-8 -1l-3 4l11 89l13 -0.5t33 -1l40 -1t34 -0.5q31 0 64 0.5t56.5 1.5l23.5 1l-8 -90q-31 -10 -39.5 -18t-8.5 -26v-282q0 -121 -67.5 -183.5t-199.5 -62.5zM388 674l-19 5l-38 48q38 38 72 72.5t55.5 57
l21.5 22.5l15 1l66 -81v-15l-26 -15.5t-65.5 -40.5t-81.5 -54zM190 674l-19 5l-38 48q38 38 72 72.5t55.5 57l21.5 22.5l15 1l66 -81v-15l-25.5 -15.5t-65.5 -40.5t-82 -54z" />
    <glyph glyph-name="uni0216" unicode="&#x216;" horiz-adv-x="627" 
d="M305 -12q-128 0 -187 50.5t-59 160.5v306q0 33 -5.5 43.5t-22.5 10.5q-7 0 -18 -1l-11 -1l-2 4l10 89l28 -1t69 -1.5t80 -0.5q15 0 37 0.5t44.5 1.5t37.5 1.5l15 0.5l-10 -93q-26 -2 -36.5 -14t-11.5 -35l-6 -289q0 -48 20 -76.5t57 -28.5q38 0 55 21t17 67v55v78
t-0.5 80.5t-0.5 63.5v25q0 31 -5.5 42.5t-20.5 11.5q-7 0 -15 -1l-8 -1l-3 4l11 89l13 -0.5t33 -1l40 -1t34 -0.5q31 0 64 0.5t56.5 1.5l23.5 1l-8 -90q-31 -10 -39.5 -18t-8.5 -26v-282q0 -121 -67.5 -183.5t-199.5 -62.5zM314 760q-37 0 -66.5 -17.5t-44.5 -52.5l-27 7
l-40 62q11 34 33 65t58 51t87 20t87 -20t58.5 -51t32.5 -65l-40 -62l-27 -7q-15 35 -44.5 52.5t-66.5 17.5z" />
    <glyph glyph-name="Umacron" unicode="&#x16a;" horiz-adv-x="627" 
d="M305 -12q-128 0 -187 50.5t-59 160.5v306q0 33 -5.5 43.5t-22.5 10.5q-7 0 -18 -1l-11 -1l-2 4l10 89l28 -1t69 -1.5t80 -0.5q15 0 37 0.5t44.5 1.5t37.5 1.5l15 0.5l-10 -93q-26 -2 -36.5 -14t-11.5 -35l-6 -289q0 -48 20 -76.5t57 -28.5q38 0 55 21t17 67v55v78
t-0.5 80.5t-0.5 63.5v25q0 31 -5.5 42.5t-20.5 11.5q-7 0 -15 -1l-8 -1l-3 4l11 89l13 -0.5t33 -1l40 -1t34 -0.5q31 0 64 0.5t56.5 1.5l23.5 1l-8 -90q-31 -10 -39.5 -18t-8.5 -26v-282q0 -121 -67.5 -183.5t-199.5 -62.5zM199 694l-16 15l19 109h15.5t39.5 -0.5t50.5 -0.5
h48.5q25 0 54 1.5t49.5 3l20.5 1.5l11 -18l-18 -109l-140 -1h-60.5t-52.5 -0.5z" />
    <glyph glyph-name="uni1E7A" unicode="&#x1e7a;" horiz-adv-x="627" 
d="M305 -12q-128 0 -187 50.5t-59 160.5v306q0 33 -5.5 43.5t-22.5 10.5q-7 0 -18 -1l-11 -1l-2 4l10 89l28 -1t69 -1.5t80 -0.5q15 0 37 0.5t44.5 1.5t37.5 1.5l15 0.5l-10 -93q-26 -2 -36.5 -14t-11.5 -35l-6 -289q0 -48 20 -76.5t57 -28.5q38 0 55 21t17 67v55v78
t-0.5 80.5t-0.5 63.5v25q0 31 -5.5 42.5t-20.5 11.5q-7 0 -15 -1l-8 -1l-3 4l11 89l13 -0.5t33 -1l40 -1t34 -0.5q31 0 64 0.5t56.5 1.5l23.5 1l-8 -90q-31 -10 -39.5 -18t-8.5 -26v-282q0 -121 -67.5 -183.5t-199.5 -62.5zM176 694l-16 15l19 109h15.5t39.5 -0.5t50.5 -0.5
h48.5q25 0 54 1.5t49.5 3l20.5 1.5l11 -18l-18 -109l-140 -1h-60.5t-52.5 -0.5zM407 860q-39 0 -59.5 20.5t-20.5 59.5q0 40 23 63.5t63 23.5q38 0 58.5 -21t20.5 -59q0 -40 -23 -63.5t-62 -23.5zM214 860q-38 0 -58.5 20.5t-20.5 59.5q0 40 23 63.5t63 23.5q38 0 58.5 -21
t20.5 -59q0 -40 -23 -63.5t-63 -23.5z" />
    <glyph glyph-name="Uogonek" unicode="&#x172;" horiz-adv-x="627" 
d="M429 -242q-55 0 -90 29t-35 75q0 16 5.5 32t22 39t48.5 61q-33 -6 -75 -6q-128 0 -187 50.5t-59 160.5v306q0 33 -5.5 43.5t-22.5 10.5q-7 0 -18 -1l-11 -1l-2 4l10 89l28 -1t69 -1.5t80 -0.5q15 0 37 0.5t44.5 1.5t37.5 1.5l15 0.5l-10 -93q-25 -2 -36 -13.5t-12 -35.5
l-6 -289q0 -49 20.5 -77t56.5 -28q38 0 55 21t17 67l-1 302q0 31 -5.5 42.5t-20.5 11.5q-7 0 -15 -1l-8 -1l-3 4l11 89l13 -0.5t33 -1l40 -1t34 -0.5q31 0 64 0.5t56.5 1.5l23.5 1l-8 -90q-31 -10 -39.5 -18t-8.5 -26v-282q0 -54 -16.5 -95t-42.5 -85q-28 -48 -47 -81.5
t-28.5 -55t-9.5 -33.5q0 -10 6 -16t16 -6q8 0 17.5 3t20.5 8t21 12l33 -52q-24 -23 -44 -39t-37 -25t-32 -11z" />
    <glyph glyph-name="Uring" unicode="&#x16e;" horiz-adv-x="627" 
d="M305 -12q-128 0 -187 50.5t-59 160.5v306q0 33 -5.5 43.5t-22.5 10.5q-7 0 -18 -1l-11 -1l-2 4l10 89l28 -1t69 -1.5t80 -0.5q15 0 37 0.5t44.5 1.5t37.5 1.5l15 0.5l-10 -93q-26 -2 -36.5 -14t-11.5 -35l-6 -289q0 -48 20 -76.5t57 -28.5q38 0 55 21t17 67v55v78
t-0.5 80.5t-0.5 63.5v25q0 31 -5.5 42.5t-20.5 11.5q-7 0 -15 -1l-8 -1l-3 4l11 89l13 -0.5t33 -1l40 -1t34 -0.5q31 0 64 0.5t56.5 1.5l23.5 1l-8 -90q-31 -10 -39.5 -18t-8.5 -26v-282q0 -121 -67.5 -183.5t-199.5 -62.5zM328 682q-49 0 -75 28.5t-26 74.5t30 76.5
t80 30.5q56 0 79 -30t23 -68q0 -43 -29 -77.5t-82 -34.5zM335 752q10 0 22.5 6.5t12.5 26.5q0 17 -10 26t-29 9q-17 0 -26 -9t-9 -23q0 -21 13.5 -28.5t25.5 -7.5z" />
    <glyph glyph-name="uni1E78" unicode="&#x1e78;" horiz-adv-x="627" 
d="M305 -12q-128 0 -187 50.5t-59 160.5v306q0 33 -5.5 43.5t-22.5 10.5q-7 0 -18 -1l-11 -1l-2 4l10 89l28 -1t69 -1.5t80 -0.5q15 0 37 0.5t44.5 1.5t37.5 1.5l15 0.5l-10 -93q-26 -2 -36.5 -14t-11.5 -35l-6 -289q0 -48 20 -76.5t57 -28.5q38 0 55 21t17 67v55v78
t-0.5 80.5t-0.5 63.5v25q0 31 -5.5 42.5t-20.5 11.5q-7 0 -15 -1l-8 -1l-3 4l11 89l13 -0.5t33 -1l40 -1t34 -0.5q31 0 64 0.5t56.5 1.5l23.5 1l-8 -90q-31 -10 -39.5 -18t-8.5 -26v-282q0 -121 -67.5 -183.5t-199.5 -62.5zM186 675l-54 50v15l75 106l16 4q16 0 44.5 -7.5
t56 -15.5t41.5 -8q11 0 25.5 13.5t25.5 26.5l11 13h15l55 -50v-14l-75 -107l-16 -4q-16 0 -44.5 8t-56.5 16t-42 8q-11 0 -26 -13.5t-25.5 -27l-10.5 -13.5h-15zM202 871l-19 13l-21 71q46 17 90.5 34.5t80 32.5t57 24l21.5 9l16 -5l36 -108l-7 -16l-22 -4t-58.5 -11.5
t-81.5 -17.5t-92 -22z" />
    <glyph glyph-name="V" unicode="V" horiz-adv-x="641" 
d="M175 -13l-6.5 29.5t-17.5 77.5t-24.5 105.5t-26.5 114.5t-24.5 104.5t-18.5 74.5q-9 34 -21.5 49t-33.5 18l-7 10l8 79l13.5 -0.5t35 -0.5t45 -0.5t43.5 -0.5q36 0 70 1t61.5 1.5t43.5 1.5l16 1l8 -9l-6 -84q-31 -4 -44.5 -7t-16.5 -8.5t-3 -18.5q0 -9 3 -32t7.5 -56
t10.5 -69.5t12 -72t10.5 -64t7.5 -46l3 -17.5h22l6 24.5t15.5 63.5t19.5 84t19.5 87t15.5 72t6 38q0 13 -5.5 16.5t-25.5 3.5h-26l-8 10l8 83l26 -1t62 -1.5t66 -0.5q29 0 57 0.5t47 0.5h19l-7 -87q-16 -5 -24 -15.5t-17 -39.5l-149 -502z" />
    <glyph glyph-name="W" unicode="W" horiz-adv-x="998" 
d="M168 -13l-6.5 29.5t-17 77.5t-23 105.5t-25.5 114.5t-23.5 104.5t-17.5 74.5q-9 34 -21 49t-32 18q-1 2 -3 5t-4 5l9 79l22 -0.5t53 -1t56 -0.5q46 0 88 1.5t69 2.5l27 1l7 -9l-6 -84q-30 -4 -43 -7t-16 -8.5t-3 -18.5q0 -9 3 -32t7.5 -56t10 -69.5t11 -72t10 -64
t7.5 -46l3 -17.5h21l6.5 25.5t16 66.5t20 87t20 87.5t13.5 67.5q2 10 2.5 16.5t0.5 10.5q0 20 -10.5 25.5t-45.5 5.5l-7 10l9 79l16.5 -0.5t42 -0.5t53.5 -0.5t50 -0.5q46 0 87.5 1.5t68.5 2.5l27 1l8 -9l-7 -84q-30 -4 -43 -6.5t-15.5 -8.5t-2.5 -19q0 -9 3 -32t7.5 -56
t10 -69.5t10.5 -72t9.5 -64t7.5 -46l3 -17.5h21l5.5 24.5t14.5 63.5t19.5 84t19.5 87t14.5 72t5.5 38q0 13 -5.5 16.5t-24.5 3.5h-25l-7 10l8 83l25 -1t59.5 -1.5t63.5 -0.5q28 0 55 0.5t45 0.5h18l-7 -87q-16 -5 -23.5 -15.5t-16.5 -39.5l-138 -502l-265 -17
q-6 36 -11.5 71.5t-10.5 71t-10.5 71t-11.5 71.5h-14l-63 -268z" />
    <glyph glyph-name="Wacute" unicode="&#x1e82;" horiz-adv-x="998" 
d="M168 -13l-6.5 29.5t-17 77.5t-23 105.5t-25.5 114.5t-23.5 104.5t-17.5 74.5q-9 34 -21 49t-32 18q-1 2 -3 5t-4 5l9 79l22 -0.5t53 -1t56 -0.5q46 0 88 1.5t69 2.5l27 1l7 -9l-6 -84q-30 -4 -43 -7t-16 -8.5t-3 -18.5q0 -9 3 -32t7.5 -56t10 -69.5t11 -72t10 -64
t7.5 -46l3 -17.5h21l6.5 25.5t16 66.5t20 87t20 87.5t13.5 67.5q2 10 2.5 16.5t0.5 10.5q0 20 -10.5 25.5t-45.5 5.5l-7 10l9 79l16.5 -0.5t42 -0.5t53.5 -0.5t50 -0.5q46 0 87.5 1.5t68.5 2.5l27 1l8 -9l-7 -84q-30 -4 -43 -6.5t-15.5 -8.5t-2.5 -19q0 -9 3 -32t7.5 -56
t10 -69.5t10.5 -72t9.5 -64t7.5 -46l3 -17.5h21l5.5 24.5t14.5 63.5t19.5 84t19.5 87t14.5 72t5.5 38q0 13 -5.5 16.5t-24.5 3.5h-25l-7 10l8 83l25 -1t59.5 -1.5t63.5 -0.5q28 0 55 0.5t45 0.5h18l-7 -87q-16 -5 -23.5 -15.5t-16.5 -39.5l-138 -502l-265 -17
q-6 36 -11.5 71.5t-10.5 71t-10.5 71t-11.5 71.5h-14l-63 -268zM446 691l-19 13l-21 71q46 17 90.5 34.5t80 32.5t57 24l21.5 9l16 -5l36 -108l-7 -16l-22 -4t-58.5 -11.5t-81.5 -17.5t-92 -22z" />
    <glyph glyph-name="Wcircumflex" unicode="&#x174;" horiz-adv-x="998" 
d="M168 -13l-6.5 29.5t-17 77.5t-23 105.5t-25.5 114.5t-23.5 104.5t-17.5 74.5q-9 34 -21 49t-32 18q-1 2 -3 5t-4 5l9 79l22 -0.5t53 -1t56 -0.5q46 0 88 1.5t69 2.5l27 1l7 -9l-6 -84q-30 -4 -43 -7t-16 -8.5t-3 -18.5q0 -9 3 -32t7.5 -56t10 -69.5t11 -72t10 -64
t7.5 -46l3 -17.5h21l6.5 25.5t16 66.5t20 87t20 87.5t13.5 67.5q2 10 2.5 16.5t0.5 10.5q0 20 -10.5 25.5t-45.5 5.5l-7 10l9 79l16.5 -0.5t42 -0.5t53.5 -0.5t50 -0.5q46 0 87.5 1.5t68.5 2.5l27 1l8 -9l-7 -84q-30 -4 -43 -6.5t-15.5 -8.5t-2.5 -19q0 -9 3 -32t7.5 -56
t10 -69.5t10.5 -72t9.5 -64t7.5 -46l3 -17.5h21l5.5 24.5t14.5 63.5t19.5 84t19.5 87t14.5 72t5.5 38q0 13 -5.5 16.5t-24.5 3.5h-25l-7 10l8 83l25 -1t59.5 -1.5t63.5 -0.5q28 0 55 0.5t45 0.5h18l-7 -87q-16 -5 -23.5 -15.5t-16.5 -39.5l-138 -502l-265 -17
q-6 36 -11.5 71.5t-10.5 71t-10.5 71t-11.5 71.5h-14l-63 -268zM389 701l-23 7l-36 62q32 23 63 47t57 45t41.5 33.5l15.5 12.5h27q0 2 15.5 -10t41.5 -33t57 -46t62 -49l-35 -62l-23 -7q-34 14 -71.5 28.5t-60.5 22.5q-22 -8 -59 -22.5t-72 -28.5z" />
    <glyph glyph-name="Wdieresis" unicode="&#x1e84;" horiz-adv-x="998" 
d="M168 -13l-6.5 29.5t-17 77.5t-23 105.5t-25.5 114.5t-23.5 104.5t-17.5 74.5q-9 34 -21 49t-32 18q-1 2 -3 5t-4 5l9 79l22 -0.5t53 -1t56 -0.5q46 0 88 1.5t69 2.5l27 1l7 -9l-6 -84q-30 -4 -43 -7t-16 -8.5t-3 -18.5q0 -9 3 -32t7.5 -56t10 -69.5t11 -72t10 -64
t7.5 -46l3 -17.5h21l6.5 25.5t16 66.5t20 87t20 87.5t13.5 67.5q2 10 2.5 16.5t0.5 10.5q0 20 -10.5 25.5t-45.5 5.5l-7 10l9 79l16.5 -0.5t42 -0.5t53.5 -0.5t50 -0.5q46 0 87.5 1.5t68.5 2.5l27 1l8 -9l-7 -84q-30 -4 -43 -6.5t-15.5 -8.5t-2.5 -19q0 -9 3 -32t7.5 -56
t10 -69.5t10.5 -72t9.5 -64t7.5 -46l3 -17.5h21l5.5 24.5t14.5 63.5t19.5 84t19.5 87t14.5 72t5.5 38q0 13 -5.5 16.5t-24.5 3.5h-25l-7 10l8 83l25 -1t59.5 -1.5t63.5 -0.5q28 0 55 0.5t45 0.5h18l-7 -87q-16 -5 -23.5 -15.5t-16.5 -39.5l-138 -502l-265 -17
q-6 36 -11.5 71.5t-10.5 71t-10.5 71t-11.5 71.5h-14l-63 -268zM612 685q-39 0 -59.5 20.5t-20.5 59.5q0 40 23 63.5t63 23.5q38 0 58.5 -21t20.5 -59q0 -40 -23 -63.5t-62 -23.5zM419 685q-38 0 -58.5 20.5t-20.5 59.5q0 40 23 63.5t63 23.5q38 0 58.5 -21t20.5 -59
q0 -40 -23 -63.5t-63 -23.5z" />
    <glyph glyph-name="Wgrave" unicode="&#x1e80;" horiz-adv-x="998" 
d="M168 -13l-6.5 29.5t-17 77.5t-23 105.5t-25.5 114.5t-23.5 104.5t-17.5 74.5q-9 34 -21 49t-32 18q-1 2 -3 5t-4 5l9 79l22 -0.5t53 -1t56 -0.5q46 0 88 1.5t69 2.5l27 1l7 -9l-6 -84q-30 -4 -43 -7t-16 -8.5t-3 -18.5q0 -9 3 -32t7.5 -56t10 -69.5t11 -72t10 -64
t7.5 -46l3 -17.5h21l6.5 25.5t16 66.5t20 87t20 87.5t13.5 67.5q2 10 2.5 16.5t0.5 10.5q0 20 -10.5 25.5t-45.5 5.5l-7 10l9 79l16.5 -0.5t42 -0.5t53.5 -0.5t50 -0.5q46 0 87.5 1.5t68.5 2.5l27 1l8 -9l-7 -84q-30 -4 -43 -6.5t-15.5 -8.5t-2.5 -19q0 -9 3 -32t7.5 -56
t10 -69.5t10.5 -72t9.5 -64t7.5 -46l3 -17.5h21l5.5 24.5t14.5 63.5t19.5 84t19.5 87t14.5 72t5.5 38q0 13 -5.5 16.5t-24.5 3.5h-25l-7 10l8 83l25 -1t59.5 -1.5t63.5 -0.5q28 0 55 0.5t45 0.5h18l-7 -87q-16 -5 -23.5 -15.5t-16.5 -39.5l-138 -502l-265 -17
q-6 36 -11.5 71.5t-10.5 71t-10.5 71t-11.5 71.5h-14l-63 -268zM596 691q-46 12 -91.5 22t-82 17.5t-58.5 11.5l-22 4l-7 16l36 108l16 5l21.5 -9t57 -24t80 -32.5t90.5 -34.5l-21 -71z" />
    <glyph glyph-name="X" unicode="X" horiz-adv-x="711" 
d="M349 -5l-7 7l7 84q14 1 21.5 5.5t7.5 14.5q0 6 -2.5 12.5t-8.5 14.5l-61 88l-38 -63q-7 -12 -12 -22.5t-5 -17.5q0 -30 39 -30l6 -11l-5 -81l-18.5 1t-45 2t-51 2t-36.5 1q-15 0 -37.5 -1t-44.5 -2t-37 -2l-15 -1l-5 14l6 80q15 7 37.5 27.5t46.5 48t42 53.5l88 127
l-82 121q-21 32 -39 47.5t-36.5 23t-43.5 13.5l-5 6l9 91h12.5t35.5 -0.5t55.5 -0.5h72.5q17 0 45.5 1t57.5 2t49.5 2l20.5 1l6 -11l-7 -82q-20 0 -29.5 -6t-9.5 -18q0 -19 18 -46.5t45 -65.5q9 17 20 34.5t20 34t15 29.5t6 19q0 11 -8 15.5t-30 4.5l-2 6l6 80h52h51.5h51.5
q29 0 59 0.5t50 1.5l20 1l4 -8l-5 -87q-32 -15 -54.5 -30t-39.5 -33.5t-34 -45.5l-94 -145l87 -122q32 -44 60.5 -64.5t64.5 -21.5l4 -4l-9 -90l-15.5 0.5t-38 1l-45 1t-36.5 0.5t-39 -0.5t-54 -1.5t-55 -2.5t-42.5 -2z" />
    <glyph glyph-name="Y" unicode="Y" horiz-adv-x="663" 
d="M127 -9l8 92q43 3 65 10t30 23.5t8 45.5v16q0 22 -6 41.5t-22 48.5l-107 199q-10 19 -24.5 34.5t-33 28t-41.5 21.5l-4 6l10 91l18.5 -0.5t44.5 -0.5t50.5 -0.5t36.5 -0.5q17 0 47 1t60.5 2.5t51.5 2.5l21 1l7 -11l-9 -82q-21 0 -31 -6t-10 -19q0 -5 4 -16.5t10 -28
t13.5 -34.5l15 -36t13.5 -33h14l41 114q13 29 13 44q0 9 -8.5 12.5t-29.5 3.5l-3 6l8 79h53h52.5h52.5t52 1t43.5 2l17.5 1l4 -8l-8 -87q-21 -12 -41 -31t-38 -43t-32 -52l-91 -182q-7 -17 -10.5 -32t-4 -29.5t-0.5 -31.5q0 -35 11 -49t39 -14q19 0 35 1.5l16 1.5l5 -6
l-9 -94l-23.5 1t-58 2l-69 2t-56.5 1q-24 0 -58 -1.5t-66.5 -3t-54.5 -3z" />
    <glyph glyph-name="Ycircumflex" unicode="&#x176;" horiz-adv-x="663" 
d="M127 -9l8 92q43 3 65 10t30 23.5t8 45.5v16q0 22 -6 41.5t-22 48.5l-107 199q-10 19 -24.5 34.5t-33 28t-41.5 21.5l-4 6l10 91l18.5 -0.5t44.5 -0.5t50.5 -0.5t36.5 -0.5q17 0 47 1t60.5 2.5t51.5 2.5l21 1l7 -11l-9 -82q-21 0 -31 -6t-10 -19q0 -5 4 -16.5t10 -28
t13.5 -34.5l15 -36t13.5 -33h14l41 114q13 29 13 44q0 9 -8.5 12.5t-29.5 3.5l-3 6l8 79h53h52.5h52.5t52 1t43.5 2l17.5 1l4 -8l-8 -87q-21 -12 -41 -31t-38 -43t-32 -52l-91 -182q-7 -17 -10.5 -32t-4 -29.5t-0.5 -31.5q0 -35 11 -49t39 -14q19 0 35 1.5l16 1.5l5 -6
l-9 -94l-23.5 1t-58 2l-69 2t-56.5 1q-24 0 -58 -1.5t-66.5 -3t-54.5 -3zM235 701l-23 7l-36 62q32 23 63 47t57 45t41.5 33.5l15.5 12.5h27q0 2 15.5 -10t41.5 -33t57 -46t62 -49l-35 -62l-23 -7q-34 14 -71.5 28.5t-60.5 22.5q-22 -8 -59 -22.5t-72 -28.5z" />
    <glyph glyph-name="Ydieresis" unicode="&#x178;" horiz-adv-x="663" 
d="M127 -9l8 92q43 3 65 10t30 23.5t8 45.5v16q0 22 -6 41.5t-22 48.5l-107 199q-10 19 -24.5 34.5t-33 28t-41.5 21.5l-4 6l10 91l18.5 -0.5t44.5 -0.5t50.5 -0.5t36.5 -0.5q17 0 47 1t60.5 2.5t51.5 2.5l21 1l7 -11l-9 -82q-21 0 -31 -6t-10 -19q0 -5 4 -16.5t10 -28
t13.5 -34.5l15 -36t13.5 -33h14l41 114q13 29 13 44q0 9 -8.5 12.5t-29.5 3.5l-3 6l8 79h53h52.5h52.5t52 1t43.5 2l17.5 1l4 -8l-8 -87q-21 -12 -41 -31t-38 -43t-32 -52l-91 -182q-7 -17 -10.5 -32t-4 -29.5t-0.5 -31.5q0 -35 11 -49t39 -14q19 0 35 1.5l16 1.5l5 -6
l-9 -94l-23.5 1t-58 2l-69 2t-56.5 1q-24 0 -58 -1.5t-66.5 -3t-54.5 -3zM458 685q-39 0 -59.5 20.5t-20.5 59.5q0 40 23 63.5t63 23.5q38 0 58.5 -21t20.5 -59q0 -40 -23 -63.5t-62 -23.5zM265 685q-38 0 -58.5 20.5t-20.5 59.5q0 40 23 63.5t63 23.5q38 0 58.5 -21
t20.5 -59q0 -40 -23 -63.5t-63 -23.5z" />
    <glyph glyph-name="uni1E8E" unicode="&#x1e8e;" horiz-adv-x="663" 
d="M127 -9l8 92q43 3 65 10t30 23.5t8 45.5v16q0 22 -6 41.5t-22 48.5l-107 199q-10 19 -24.5 34.5t-33 28t-41.5 21.5l-4 6l10 91l18.5 -0.5t44.5 -0.5t50.5 -0.5t36.5 -0.5q17 0 47 1t60.5 2.5t51.5 2.5l21 1l7 -11l-9 -82q-21 0 -31 -6t-10 -19q0 -5 4 -16.5t10 -28
t13.5 -34.5l15 -36t13.5 -33h14l41 114q13 29 13 44q0 9 -8.5 12.5t-29.5 3.5l-3 6l8 79h53h52.5h52.5t52 1t43.5 2l17.5 1l4 -8l-8 -87q-21 -12 -41 -31t-38 -43t-32 -52l-91 -182q-7 -17 -10.5 -32t-4 -29.5t-0.5 -31.5q0 -35 11 -49t39 -14q19 0 35 1.5l16 1.5l5 -6
l-9 -94l-23.5 1t-58 2l-69 2t-56.5 1q-24 0 -58 -1.5t-66.5 -3t-54.5 -3zM348 681q-46 0 -70 24.5t-24 70.5q0 48 27.5 76t74.5 28q44 0 68.5 -25t24.5 -70q0 -48 -27 -76t-74 -28z" />
    <glyph glyph-name="uni1EF4" unicode="&#x1ef4;" horiz-adv-x="663" 
d="M127 -9l8 92q43 3 65 10t30 23.5t8 45.5v16q0 22 -6 41.5t-22 48.5l-107 199q-10 19 -24.5 34.5t-33 28t-41.5 21.5l-4 6l10 91l18.5 -0.5t44.5 -0.5t50.5 -0.5t36.5 -0.5q17 0 47 1t60.5 2.5t51.5 2.5l21 1l7 -11l-9 -82q-21 0 -31 -6t-10 -19q0 -5 4 -16.5t10 -28
t13.5 -34.5l15 -36t13.5 -33h14l41 114q13 29 13 44q0 9 -8.5 12.5t-29.5 3.5l-3 6l8 79h53h52.5h52.5t52 1t43.5 2l17.5 1l4 -8l-8 -87q-21 -12 -41 -31t-38 -43t-32 -52l-91 -182q-7 -17 -10.5 -32t-4 -29.5t-0.5 -31.5q0 -35 11 -49t39 -14q19 0 35 1.5l16 1.5l5 -6
l-9 -94l-23.5 1t-58 2l-69 2t-56.5 1q-24 0 -58 -1.5t-66.5 -3t-54.5 -3zM334 -232q-46 0 -70 24.5t-24 70.5q0 48 27.5 76t74.5 28q44 0 68.5 -25t24.5 -70q0 -48 -27 -76t-74 -28z" />
    <glyph glyph-name="Ygrave" unicode="&#x1ef2;" horiz-adv-x="663" 
d="M127 -9l8 92q43 3 65 10t30 23.5t8 45.5v16q0 22 -6 41.5t-22 48.5l-107 199q-10 19 -24.5 34.5t-33 28t-41.5 21.5l-4 6l10 91l18.5 -0.5t44.5 -0.5t50.5 -0.5t36.5 -0.5q17 0 47 1t60.5 2.5t51.5 2.5l21 1l7 -11l-9 -82q-21 0 -31 -6t-10 -19q0 -5 4 -16.5t10 -28
t13.5 -34.5l15 -36t13.5 -33h14l41 114q13 29 13 44q0 9 -8.5 12.5t-29.5 3.5l-3 6l8 79h53h52.5h52.5t52 1t43.5 2l17.5 1l4 -8l-8 -87q-21 -12 -41 -31t-38 -43t-32 -52l-91 -182q-7 -17 -10.5 -32t-4 -29.5t-0.5 -31.5q0 -35 11 -49t39 -14q19 0 35 1.5l16 1.5l5 -6
l-9 -94l-23.5 1t-58 2l-69 2t-56.5 1q-24 0 -58 -1.5t-66.5 -3t-54.5 -3zM442 691q-46 12 -91.5 22t-82 17.5t-58.5 11.5l-22 4l-7 16l36 108l16 5l21.5 -9t57 -24t80 -32.5t90.5 -34.5l-21 -71z" />
    <glyph glyph-name="uni1EF6" unicode="&#x1ef6;" horiz-adv-x="663" 
d="M127 -9l8 92q43 3 65 10t30 23.5t8 45.5v16q0 22 -6 41.5t-22 48.5l-107 199q-10 19 -24.5 34.5t-33 28t-41.5 21.5l-4 6l10 91l18.5 -0.5t44.5 -0.5t50.5 -0.5t36.5 -0.5q17 0 47 1t60.5 2.5t51.5 2.5l21 1l7 -11l-9 -82q-21 0 -31 -6t-10 -19q0 -5 4 -16.5t10 -28
t13.5 -34.5l15 -36t13.5 -33h14l41 114q13 29 13 44q0 9 -8.5 12.5t-29.5 3.5l-3 6l8 79h53h52.5h52.5t52 1t43.5 2l17.5 1l4 -8l-8 -87q-21 -12 -41 -31t-38 -43t-32 -52l-91 -182q-7 -17 -10.5 -32t-4 -29.5t-0.5 -31.5q0 -35 11 -49t39 -14q19 0 35 1.5l16 1.5l5 -6
l-9 -94l-23.5 1t-58 2l-69 2t-56.5 1q-24 0 -58 -1.5t-66.5 -3t-54.5 -3zM344 657l-59 88q31 21 45 39.5t14 37.5q0 16 -10.5 25t-30.5 9q-16 0 -32 -6.5t-27 -13.5l-11 -7l-26 41l17 15t42 33t50 27q63 0 99.5 -25.5t36.5 -72.5q0 -23 -14.5 -44.5t-52.5 -55.5l30 -47z" />
    <glyph glyph-name="uni0232" unicode="&#x232;" horiz-adv-x="663" 
d="M127 -9l8 92q43 3 65 10t30 23.5t8 45.5v16q0 22 -6 41.5t-22 48.5l-107 199q-10 19 -24.5 34.5t-33 28t-41.5 21.5l-4 6l10 91l18.5 -0.5t44.5 -0.5t50.5 -0.5t36.5 -0.5q17 0 47 1t60.5 2.5t51.5 2.5l21 1l7 -11l-9 -82q-21 0 -31 -6t-10 -19q0 -5 4 -16.5t10 -28
t13.5 -34.5l15 -36t13.5 -33h14l41 114q13 29 13 44q0 9 -8.5 12.5t-29.5 3.5l-3 6l8 79h53h52.5h52.5t52 1t43.5 2l17.5 1l4 -8l-8 -87q-21 -12 -41 -31t-38 -43t-32 -52l-91 -182q-7 -17 -10.5 -32t-4 -29.5t-0.5 -31.5q0 -35 11 -49t39 -14q19 0 35 1.5l16 1.5l5 -6
l-9 -94l-23.5 1t-58 2l-69 2t-56.5 1q-24 0 -58 -1.5t-66.5 -3t-54.5 -3zM214 694l-16 15l19 109h15.5t39.5 -0.5t50.5 -0.5h48.5q25 0 54 1.5t49.5 3l20.5 1.5l11 -18l-18 -109l-140 -1h-60.5t-52.5 -0.5z" />
    <glyph glyph-name="Z" unicode="Z" horiz-adv-x="594" 
d="M39 -7l-36 58l326 491l-77 -10q-38 -7 -57.5 -17.5t-26 -32t-8.5 -64.5l-126 -9l2 24t4.5 61t5 78.5t3.5 76.5l11 11l181 -11h331l25 -54q-56 -75 -107 -148t-94.5 -138t-77 -116.5t-54.5 -83.5l105 15q48 9 70 40.5t29 101.5l126 9l-3 -25.5t-7.5 -65t-8 -83.5t-4.5 -82
l-21 -22l-429 6z" />
    <glyph glyph-name="Zacute" unicode="&#x179;" horiz-adv-x="594" 
d="M39 -7l-36 58l326 491l-77 -10q-38 -7 -57.5 -17.5t-26 -32t-8.5 -64.5l-126 -9l2 24t4.5 61t5 78.5t3.5 76.5l11 11l181 -11h331l25 -54q-56 -75 -107 -148t-94.5 -138t-77 -116.5t-54.5 -83.5l105 15q48 9 70 40.5t29 101.5l126 9l-3 -25.5t-7.5 -65t-8 -83.5t-4.5 -82
l-21 -22l-429 6zM259 691l-19 13l-21 71q46 17 90.5 34.5t80 32.5t57 24l21.5 9l16 -5l36 -108l-7 -16l-22 -4t-58.5 -11.5t-81.5 -17.5t-92 -22z" />
    <glyph glyph-name="Zcaron" unicode="&#x17d;" horiz-adv-x="594" 
d="M39 -7l-36 58l326 491l-77 -10q-38 -7 -57.5 -17.5t-26 -32t-8.5 -64.5l-126 -9l2 24t4.5 61t5 78.5t3.5 76.5l11 11l181 -11h331l25 -54q-56 -75 -107 -148t-94.5 -138t-77 -116.5t-54.5 -83.5l105 15q48 9 70 40.5t29 101.5l126 9l-3 -25.5t-7.5 -65t-8 -83.5t-4.5 -82
l-21 -22l-429 6zM317 688l-15.5 12.5t-41.5 33.5t-57 45t-62 47l35 62l23 7q34 -14 72 -28.5t60 -22.5q23 8 59.5 22.5t71.5 28.5l23 -7l36 -62q-31 -23 -62.5 -47t-57.5 -45t-41.5 -33.5l-15.5 -12.5h-27z" />
    <glyph glyph-name="Zdotaccent" unicode="&#x17b;" horiz-adv-x="594" 
d="M39 -7l-36 58l326 491l-77 -10q-38 -7 -57.5 -17.5t-26 -32t-8.5 -64.5l-126 -9l2 24t4.5 61t5 78.5t3.5 76.5l11 11l181 -11h331l25 -54q-56 -75 -107 -148t-94.5 -138t-77 -116.5t-54.5 -83.5l105 15q48 9 70 40.5t29 101.5l126 9l-3 -25.5t-7.5 -65t-8 -83.5t-4.5 -82
l-21 -22l-429 6zM330 681q-46 0 -70 24.5t-24 70.5q0 48 27.5 76t74.5 28q44 0 68.5 -25t24.5 -70q0 -48 -27 -76t-74 -28z" />
    <glyph glyph-name="uni1E92" unicode="&#x1e92;" horiz-adv-x="594" 
d="M39 -7l-36 58l326 491l-77 -10q-38 -7 -57.5 -17.5t-26 -32t-8.5 -64.5l-126 -9l2 24t4.5 61t5 78.5t3.5 76.5l11 11l181 -11h331l25 -54q-56 -75 -107 -148t-94.5 -138t-77 -116.5t-54.5 -83.5l105 15q48 9 70 40.5t29 101.5l126 9l-3 -25.5t-7.5 -65t-8 -83.5t-4.5 -82
l-21 -22l-429 6zM305 -232q-46 0 -70 24.5t-24 70.5q0 48 27.5 76t74.5 28q44 0 68.5 -25t24.5 -70q0 -48 -27 -76t-74 -28z" />
    <glyph glyph-name="Iacute_J.loclNLD" horiz-adv-x="709" 
d="M15 -5l8 85q41 9 53 25t12 57v346q0 31 -7 41t-28 10q-6 0 -13.5 -0.5t-12.5 -0.5l-9 14l8 75h81h80q17 0 61 1.5t111 3.5l-7 -90q-34 -5 -44.5 -14.5t-12.5 -37.5q-2 -39 -4 -82.5t-3.5 -89t-2 -91.5t-0.5 -91q0 -42 6.5 -55.5t25.5 -13.5q8 0 16.5 1t15.5 2l8 -10
l-9 -84q-27 1 -60.5 2t-62.5 1.5t-44 0.5q-25 0 -70.5 -1.5t-95.5 -3.5zM74 691l-19 13l-21 71q46 17 90.5 34.5t80 32.5t57 24l21.5 9l16 -5l36 -108l-7 -16l-22 -4t-58.5 -11.5t-81.5 -17.5t-92 -22zM405 -164l-40 48l2 15q34 31 52 59.5t24.5 68.5t6.5 105v376
q0 31 -6 41t-26 10q-7 0 -15.5 -0.5t-14.5 -1l-6 -0.5l-9 14l8 76l141 1q49 1 92 2.5t70.5 3l27.5 1.5l-8 -93q-29 -7 -37 -15.5t-10 -36.5t-3.5 -66.5t-3 -83.5t-3 -93t-2 -94.5t-0.5 -87.5q0 -96 -57.5 -156t-182.5 -93zM427 691l-19 13l-21 71q46 17 90.5 34.5t80 32.5
t57 24l21.5 9l16 -5l36 -108l-7 -16l-22 -4t-58.5 -11.5t-81.5 -17.5t-92 -22z" />
    <glyph glyph-name="C.ss01" horiz-adv-x="645" 
d="M204 10q-82 32 -127 109t-45 192q0 74 18 133t53 102.5t86 70.5l412 -4l-5.5 -28t-12 -76.5t-10.5 -109.5l-154 -9l1 17t1 40q0 41 -15.5 57.5t-53.5 16.5q-35 0 -55 -16t-28.5 -54t-8.5 -104q0 -74 10.5 -122.5t32 -71.5t54.5 -23q38 0 56 26t23 90l153 10l-2 -19.5
t-4 -51t-4 -69t-2 -73.5l-13 -16l-16 -5t-45 -12h-299zM-23 0v65h691v-65h-691zM-23 582v65h691v-65h-691z" />
    <glyph glyph-name="D.ss01" horiz-adv-x="711" 
d="M33 30l-5 35q44 0 59.5 20.5t15.5 62.5v380q0 21 -3.5 33t-15 16.5t-36.5 4.5l-3 58h23.5h61h79.5h79.5h61h23.5q105 0 173 -30.5t101 -94t33 -163.5q0 -76 -20 -138.5t-57.5 -108.5t-90.5 -75h-479zM-23 0v65h757v-65h-757zM332 113q65 0 92 46t27 155q0 82 -11 128
t-38 65t-75 19q-11 0 -15.5 -6t-5.5 -21q-5 -75 -7.5 -155t-2.5 -182q0 -19 3 -30t11 -15t22 -4zM-23 582v65h757v-65h-757z" />
    <glyph glyph-name="I.ss01" horiz-adv-x="406" 
d="M28 65q41 0 58 17.5t17 58.5v367q0 32 -4.5 48t-18.5 21t-42 5h339q-36 0 -50.5 -15.5t-16.5 -56.5q-2 -46 -4 -96t-3.5 -99.5t-2 -95t-0.5 -84.5q0 -41 14.5 -55.5t57.5 -14.5h-344zM-23 0v65h452v-65h-452zM-23 582v65h452v-65h-452z" />
    <glyph glyph-name="L.ss01" horiz-adv-x="599" 
d="M28 29v36q41 0 58 17.5t17 58.5v367q0 32 -4.5 48t-18.5 21t-42 5h339q-24 0 -38 -6.5t-20.5 -22t-8.5 -43.5q-3 -58 -5 -121t-3.5 -122.5t-1.5 -108.5q0 -15 3.5 -24.5t12 -14t21.5 -4.5q27 0 44.5 7t27.5 24.5t15.5 49.5t8.5 82l128 13l12 -15l-4 -34.5t-9 -90.5
t-10 -122h-522zM-23 0v65h645v-65h-645zM-23 582v65h645v-65h-645z" />
    <glyph glyph-name="M.ss01" horiz-adv-x="864" 
d="M337 38q-9 34 -22 82t-28 97.5t-27.5 90.5t-19.5 61h-13l-7 -267q-2 -37 34 -37h-229q26 0 38 13.5t19 50.5q1 5 4 34.5t7.5 73.5t9.5 92.5t9.5 92.5t7 74.5t2.5 37.5q0 20 -13 34t-51 14l306 30l18 -78t18.5 -76t18 -70.5t15.5 -61.5h12q13 41 27.5 90t28 100t23.5 96
l283 -30q-34 0 -50.5 -12t-16.5 -49q0 -14 1 -41t3 -63.5t5 -80t6.5 -89.5t7.5 -92q5 -49 22 -69.5t54 -20.5h-290q52 0 52 48v22t-0.5 36.5t-1.5 71.5t-3 126h-13q-1 -3 -15.5 -48.5t-37.5 -119.5t-48 -163h-146zM-23 0v65h910v-65h-910zM-23 582v65h910v-65h-910z" />
    <glyph glyph-name="V.ss01" horiz-adv-x="674" 
d="M180 29q-23 102 -41 181t-32 137.5t-23.5 98t-15.5 61.5q-18 75 -61 75h341q-34 0 -49 -9.5t-15 -29.5q0 -22 14 -119t40 -256h22q17 71 32.5 136t27 117.5t18 85t6.5 39.5q0 20 -7.5 28t-25.5 8h264q-20 0 -33.5 -15t-24.5 -51l-145 -487h-292zM-23 0v65h720v-65h-720z
M-23 582v65h720v-65h-720z" />
    <glyph glyph-name="X.ss01" horiz-adv-x="758" 
d="M16 65q10 0 30 19t48.5 54t60.5 81l88 127l-82 121q-36 53 -60.5 84t-58.5 31h352q-47 0 -47 -29q0 -10 6.5 -25t22 -39.5t42.5 -64.5q28 49 40.5 73t16.5 35t4 20q0 17 -8 23.5t-30 6.5h287q-16 0 -31.5 -10.5t-37 -39.5t-59.5 -86l-94 -145l97 -136q28 -38 55.5 -69
t59.5 -31h-347q16 0 27 8t11 19q0 12 -12 30l-69 99l-43 -73q-8 -12 -12.5 -20.5t-6 -14.5t-1.5 -12q0 -16 12.5 -26t34.5 -10h-296zM-23 0v65h804v-65h-804zM-23 582v65h804v-65h-804z" />
    <glyph glyph-name="a" unicode="a" horiz-adv-x="503" 
d="M394 -12q-49 0 -78.5 19t-34.5 54l-12 5q-15 -16 -35 -33t-40 -29t-36 -12q-41 0 -74.5 22.5t-53 61.5t-19.5 86q0 33 18 57t46 30l196 36v1q0 34 -22 53t-60 19q-28 0 -61.5 -14.5t-53.5 -28.5l-12 6l-25 80q34 18 75 37.5t77.5 32.5t55.5 13q76 0 119.5 -21t61.5 -54
t18 -70q0 -12 -3.5 -37t-7.5 -53t-7.5 -52t-3.5 -35q0 -15 8 -24.5t21 -9.5q9 0 18.5 3t15.5 5l17 -27q-13 -24 -32 -51t-39 -46.5t-37 -23.5zM219 120q11 0 25 2t24 4l1 86l-72 -16q-18 -4 -18 -22q0 -23 10.5 -38.5t29.5 -15.5z" />
    <glyph glyph-name="aacute" unicode="&#xe1;" horiz-adv-x="494" 
d="M394 -12q-49 0 -78.5 19t-34.5 54l-12 5q-15 -16 -35 -33t-40 -29t-36 -12q-41 0 -74.5 22.5t-53 61.5t-19.5 86q0 33 18 57t46 30l196 36v1q0 34 -22 53t-60 19q-28 0 -61.5 -14.5t-53.5 -28.5l-12 6l-25 80q34 18 75 37.5t77.5 32.5t55.5 13q76 0 119.5 -21t61.5 -54
t18 -70q0 -12 -3.5 -37t-7.5 -53t-7.5 -52t-3.5 -35q0 -15 8 -24.5t21 -9.5q9 0 18.5 3t15.5 5l17 -27q-13 -24 -32 -51t-39 -46.5t-37 -23.5zM219 120q11 0 25 2t24 4l1 86l-72 -16q-18 -4 -18 -22q0 -23 10.5 -38.5t29.5 -15.5zM204 523l-22 6l-44 59q33 32 65 63.5
t57.5 57l40.5 40.5l15 15l17 1l77 -97l-1 -17l-30.5 -18t-77.5 -47t-97 -63z" />
    <glyph glyph-name="abreve" unicode="&#x103;" horiz-adv-x="494" 
d="M394 -12q-49 0 -78.5 19t-34.5 54l-12 5q-15 -16 -35 -33t-40 -29t-36 -12q-41 0 -74.5 22.5t-53 61.5t-19.5 86q0 33 18 57t46 30l196 36v1q0 34 -22 53t-60 19q-28 0 -61.5 -14.5t-53.5 -28.5l-12 6l-25 80q34 18 75 37.5t77.5 32.5t55.5 13q76 0 119.5 -21t61.5 -54
t18 -70q0 -12 -3.5 -37t-7.5 -53t-7.5 -52t-3.5 -35q0 -15 8 -24.5t21 -9.5q9 0 18.5 3t15.5 5l17 -27q-13 -24 -32 -51t-39 -46.5t-37 -23.5zM219 120q11 0 25 2t24 4l1 86l-72 -16q-18 -4 -18 -22q0 -23 10.5 -38.5t29.5 -15.5zM236 519q-51 0 -87 20t-58 51t-33 65l40 62
l27 7q15 -35 44.5 -52.5t66.5 -17.5t66.5 17.5t44.5 52.5l27 -7l40 -62q-10 -34 -32.5 -65t-58.5 -51t-87 -20z" />
    <glyph glyph-name="uni1EAF" unicode="&#x1eaf;" horiz-adv-x="494" 
d="M394 -12q-49 0 -78.5 19t-34.5 54l-12 5q-15 -16 -35 -33t-40 -29t-36 -12q-41 0 -74.5 22.5t-53 61.5t-19.5 86q0 33 18 57t46 30l196 36v1q0 34 -22 53t-60 19q-28 0 -61.5 -14.5t-53.5 -28.5l-12 6l-25 80q34 18 75 37.5t77.5 32.5t55.5 13q76 0 119.5 -21t61.5 -54
t18 -70q0 -12 -3.5 -37t-7.5 -53t-7.5 -52t-3.5 -35q0 -15 8 -24.5t21 -9.5q9 0 18.5 3t15.5 5l17 -27q-13 -24 -32 -51t-39 -46.5t-37 -23.5zM219 120q11 0 25 2t24 4l1 86l-72 -16q-18 -4 -18 -22q0 -23 10.5 -38.5t29.5 -15.5zM236 507q-51 0 -87 20t-58 51t-33 65l40 62
l27 7q15 -35 44.5 -52.5t66.5 -17.5t66.5 17.5t44.5 52.5l27 -7l40 -62q-10 -34 -32.5 -65t-58.5 -51t-87 -20zM241 679l-61 43l86 166l15 6l94 -60l4 -16l-115 -137z" />
    <glyph glyph-name="uni1EB7" unicode="&#x1eb7;" horiz-adv-x="494" 
d="M394 -12q-49 0 -78.5 19t-34.5 54l-12 5q-15 -16 -35 -33t-40 -29t-36 -12q-41 0 -74.5 22.5t-53 61.5t-19.5 86q0 33 18 57t46 30l196 36v1q0 34 -22 53t-60 19q-28 0 -61.5 -14.5t-53.5 -28.5l-12 6l-25 80q34 18 75 37.5t77.5 32.5t55.5 13q76 0 119.5 -21t61.5 -54
t18 -70q0 -12 -3.5 -37t-7.5 -53t-7.5 -52t-3.5 -35q0 -15 8 -24.5t21 -9.5q9 0 18.5 3t15.5 5l17 -27q-13 -24 -32 -51t-39 -46.5t-37 -23.5zM219 120q11 0 25 2t24 4l1 86l-72 -16q-18 -4 -18 -22q0 -23 10.5 -38.5t29.5 -15.5zM236 519q-51 0 -87 20t-58 51t-33 65l40 62
l27 7q15 -35 44.5 -52.5t66.5 -17.5t66.5 17.5t44.5 52.5l27 -7l40 -62q-10 -34 -32.5 -65t-58.5 -51t-87 -20zM218 -232q-46 0 -70 24.5t-24 70.5q0 48 27.5 76t74.5 28q44 0 68.5 -25t24.5 -70q0 -48 -27 -76t-74 -28z" />
    <glyph glyph-name="uni1EB1" unicode="&#x1eb1;" horiz-adv-x="494" 
d="M394 -12q-49 0 -78.5 19t-34.5 54l-12 5q-15 -16 -35 -33t-40 -29t-36 -12q-41 0 -74.5 22.5t-53 61.5t-19.5 86q0 33 18 57t46 30l196 36v1q0 34 -22 53t-60 19q-28 0 -61.5 -14.5t-53.5 -28.5l-12 6l-25 80q34 18 75 37.5t77.5 32.5t55.5 13q76 0 119.5 -21t61.5 -54
t18 -70q0 -12 -3.5 -37t-7.5 -53t-7.5 -52t-3.5 -35q0 -15 8 -24.5t21 -9.5q9 0 18.5 3t15.5 5l17 -27q-13 -24 -32 -51t-39 -46.5t-37 -23.5zM219 120q11 0 25 2t24 4l1 86l-72 -16q-18 -4 -18 -22q0 -23 10.5 -38.5t29.5 -15.5zM236 517q-51 0 -87 20t-58 51t-33 65l40 62
l27 7q15 -35 44.5 -52.5t66.5 -17.5t66.5 17.5t44.5 52.5l27 -7l40 -62q-10 -34 -32.5 -65t-58.5 -51t-87 -20zM234 689l-23 2l-115 137l4 16l94 60l15 -6l86 -166z" />
    <glyph glyph-name="uni1EB3" unicode="&#x1eb3;" horiz-adv-x="494" 
d="M394 -12q-49 0 -78.5 19t-34.5 54l-12 5q-15 -16 -35 -33t-40 -29t-36 -12q-41 0 -74.5 22.5t-53 61.5t-19.5 86q0 33 18 57t46 30l196 36v1q0 34 -22 53t-60 19q-28 0 -61.5 -14.5t-53.5 -28.5l-12 6l-25 80q34 18 75 37.5t77.5 32.5t55.5 13q76 0 119.5 -21t61.5 -54
t18 -70q0 -12 -3.5 -37t-7.5 -53t-7.5 -52t-3.5 -35q0 -15 8 -24.5t21 -9.5q9 0 18.5 3t15.5 5l17 -27q-13 -24 -32 -51t-39 -46.5t-37 -23.5zM219 120q11 0 25 2t24 4l1 86l-72 -16q-18 -4 -18 -22q0 -23 10.5 -38.5t29.5 -15.5zM236 517q-64 0 -111 36t-67 100l40 62l27 7
q14 -33 42.5 -51.5t68.5 -18.5q39 0 68 18t43 52l27 -7l40 -62q-19 -64 -66.5 -100t-111.5 -36zM224 676l-56 84q29 20 42.5 37.5t13.5 35.5q0 15 -9.5 23.5t-29.5 8.5q-15 0 -30 -6t-25.5 -12.5l-10.5 -6.5l-25 39l16 14t40 31.5t48 25.5q60 0 94.5 -24.5t34.5 -68.5
q0 -22 -13.5 -42.5t-50.5 -52.5l29 -45z" />
    <glyph glyph-name="uni1EB5" unicode="&#x1eb5;" horiz-adv-x="494" 
d="M394 -12q-49 0 -78.5 19t-34.5 54l-12 5q-15 -16 -35 -33t-40 -29t-36 -12q-41 0 -74.5 22.5t-53 61.5t-19.5 86q0 33 18 57t46 30l196 36v1q0 34 -22 53t-60 19q-28 0 -61.5 -14.5t-53.5 -28.5l-12 6l-25 80q34 18 75 37.5t77.5 32.5t55.5 13q76 0 119.5 -21t61.5 -54
t18 -70q0 -12 -3.5 -37t-7.5 -53t-7.5 -52t-3.5 -35q0 -15 8 -24.5t21 -9.5q9 0 18.5 3t15.5 5l17 -27q-13 -24 -32 -51t-39 -46.5t-37 -23.5zM219 120q11 0 25 2t24 4l1 86l-72 -16q-18 -4 -18 -22q0 -23 10.5 -38.5t29.5 -15.5zM115 704l-43 56v14l63 65l15 4q15 0 42 -7
t53 -14.5t39 -7.5q11 0 24.5 6t24 12l10.5 6h14l43 -57v-13l-63 -66l-15 -3q-15 0 -42 7.5t-53 14.5t-39 7q-11 0 -25 -6t-24 -12l-10 -6h-14zM236 644q30 0 53 10.5t34 32.5l24 -6l44 -54q-13 -37 -50.5 -69t-104.5 -32t-104 32t-51 69l44 54l24 6q11 -22 34 -32.5
t53 -10.5z" />
    <glyph glyph-name="uni01CE" unicode="&#x1ce;" horiz-adv-x="494" 
d="M394 -12q-49 0 -78.5 19t-34.5 54l-12 5q-15 -16 -35 -33t-40 -29t-36 -12q-41 0 -74.5 22.5t-53 61.5t-19.5 86q0 33 18 57t46 30l196 36v1q0 34 -22 53t-60 19q-28 0 -61.5 -14.5t-53.5 -28.5l-12 6l-25 80q34 18 75 37.5t77.5 32.5t55.5 13q76 0 119.5 -21t61.5 -54
t18 -70q0 -12 -3.5 -37t-7.5 -53t-7.5 -52t-3.5 -35q0 -15 8 -24.5t21 -9.5q9 0 18.5 3t15.5 5l17 -27q-13 -24 -32 -51t-39 -46.5t-37 -23.5zM219 120q11 0 25 2t24 4l1 86l-72 -16q-18 -4 -18 -22q0 -23 10.5 -38.5t29.5 -15.5zM223 517l-14.5 14.5t-39 37.5t-54 50.5
t-58.5 53.5l45 62l23 7q29 -20 61 -39t51 -30q20 11 51 30t60 39l23 -7l46 -62q-30 -26 -59.5 -53.5t-54 -50.5t-39 -37.5l-14.5 -14.5h-27z" />
    <glyph glyph-name="acircumflex" unicode="&#xe2;" horiz-adv-x="494" 
d="M394 -12q-49 0 -78.5 19t-34.5 54l-12 5q-15 -16 -35 -33t-40 -29t-36 -12q-41 0 -74.5 22.5t-53 61.5t-19.5 86q0 33 18 57t46 30l196 36v1q0 34 -22 53t-60 19q-28 0 -61.5 -14.5t-53.5 -28.5l-12 6l-25 80q34 18 75 37.5t77.5 32.5t55.5 13q76 0 119.5 -21t61.5 -54
t18 -70q0 -12 -3.5 -37t-7.5 -53t-7.5 -52t-3.5 -35q0 -15 8 -24.5t21 -9.5q9 0 18.5 3t15.5 5l17 -27q-13 -24 -32 -51t-39 -46.5t-37 -23.5zM219 120q11 0 25 2t24 4l1 86l-72 -16q-18 -4 -18 -22q0 -23 10.5 -38.5t29.5 -15.5zM129 536l-23 7l-46 62q30 26 59.5 53.5
t54 50.5t39 37.5l14.5 14.5h27l14.5 -14.5t39 -37.5t54 -50.5t58.5 -53.5l-45 -62l-23 -7q-29 20 -60.5 39t-51.5 30q-19 -11 -50.5 -30t-60.5 -39z" />
    <glyph glyph-name="uni1EA5" unicode="&#x1ea5;" horiz-adv-x="494" 
d="M394 -12q-49 0 -78.5 19t-34.5 54l-12 5q-15 -16 -35 -33t-40 -29t-36 -12q-41 0 -74.5 22.5t-53 61.5t-19.5 86q0 33 18 57t46 30l196 36v1q0 34 -22 53t-60 19q-28 0 -61.5 -14.5t-53.5 -28.5l-12 6l-25 80q34 18 75 37.5t77.5 32.5t55.5 13q76 0 119.5 -21t61.5 -54
t18 -70q0 -12 -3.5 -37t-7.5 -53t-7.5 -52t-3.5 -35q0 -15 8 -24.5t21 -9.5q9 0 18.5 3t15.5 5l17 -27q-13 -24 -32 -51t-39 -46.5t-37 -23.5zM219 120q11 0 25 2t24 4l1 86l-72 -16q-18 -4 -18 -22q0 -23 10.5 -38.5t29.5 -15.5zM115 499l-21 7l-33 57q29 21 58 43
t52.5 41.5t38 31l14.5 11.5h25l24.5 -19.5t62 -49t75.5 -58.5l-32 -57l-22 -7q-31 14 -65.5 27t-55.5 20q-21 -7 -54.5 -20t-66.5 -27zM371 640l-61 45l74 161l15 6l90 -52l4 -17l-99 -142z" />
    <glyph glyph-name="uni1EAD" unicode="&#x1ead;" horiz-adv-x="494" 
d="M394 -12q-49 0 -78.5 19t-34.5 54l-12 5q-15 -16 -35 -33t-40 -29t-36 -12q-41 0 -74.5 22.5t-53 61.5t-19.5 86q0 33 18 57t46 30l196 36v1q0 34 -22 53t-60 19q-28 0 -61.5 -14.5t-53.5 -28.5l-12 6l-25 80q34 18 75 37.5t77.5 32.5t55.5 13q76 0 119.5 -21t61.5 -54
t18 -70q0 -12 -3.5 -37t-7.5 -53t-7.5 -52t-3.5 -35q0 -15 8 -24.5t21 -9.5q9 0 18.5 3t15.5 5l17 -27q-13 -24 -32 -51t-39 -46.5t-37 -23.5zM219 120q11 0 25 2t24 4l1 86l-72 -16q-18 -4 -18 -22q0 -23 10.5 -38.5t29.5 -15.5zM129 536l-23 7l-46 62q30 26 59.5 53.5
t54 50.5t39 37.5l14.5 14.5h27l14.5 -14.5t39 -37.5t54 -50.5t58.5 -53.5l-45 -62l-23 -7q-29 20 -60.5 39t-51.5 30q-19 -11 -50.5 -30t-60.5 -39zM218 -232q-46 0 -70 24.5t-24 70.5q0 48 27.5 76t74.5 28q44 0 68.5 -25t24.5 -70q0 -48 -27 -76t-74 -28z" />
    <glyph glyph-name="uni1EA7" unicode="&#x1ea7;" horiz-adv-x="494" 
d="M394 -12q-49 0 -78.5 19t-34.5 54l-12 5q-15 -16 -35 -33t-40 -29t-36 -12q-41 0 -74.5 22.5t-53 61.5t-19.5 86q0 33 18 57t46 30l196 36v1q0 34 -22 53t-60 19q-28 0 -61.5 -14.5t-53.5 -28.5l-12 6l-25 80q34 18 75 37.5t77.5 32.5t55.5 13q76 0 119.5 -21t61.5 -54
t18 -70q0 -12 -3.5 -37t-7.5 -53t-7.5 -52t-3.5 -35q0 -15 8 -24.5t21 -9.5q9 0 18.5 3t15.5 5l17 -27q-13 -24 -32 -51t-39 -46.5t-37 -23.5zM219 120q11 0 25 2t24 4l1 86l-72 -16q-18 -4 -18 -22q0 -23 10.5 -38.5t29.5 -15.5zM388 635l-23 1l-99 142l4 17l89 51l15 -6
l74 -161zM61 563q29 21 58 43t52.5 41.5t38 31l14.5 11.5h25l24.5 -19.5t62 -49t75.5 -58.5l-32 -57l-22 -7q-31 14 -65.5 27t-55.5 20q-21 -7 -54.5 -20t-66.5 -27l-21 7z" />
    <glyph glyph-name="uni1EA9" unicode="&#x1ea9;" horiz-adv-x="494" 
d="M394 -12q-49 0 -78.5 19t-34.5 54l-12 5q-15 -16 -35 -33t-40 -29t-36 -12q-41 0 -74.5 22.5t-53 61.5t-19.5 86q0 33 18 57t46 30l196 36v1q0 34 -22 53t-60 19q-28 0 -61.5 -14.5t-53.5 -28.5l-12 6l-25 80q34 18 75 37.5t77.5 32.5t55.5 13q76 0 119.5 -21t61.5 -54
t18 -70q0 -12 -3.5 -37t-7.5 -53t-7.5 -52t-3.5 -35q0 -15 8 -24.5t21 -9.5q9 0 18.5 3t15.5 5l17 -27q-13 -24 -32 -51t-39 -46.5t-37 -23.5zM219 120q11 0 25 2t24 4l1 86l-72 -16q-18 -4 -18 -22q0 -23 10.5 -38.5t29.5 -15.5zM363 631l-56 84q29 20 42.5 37.5t13.5 35.5
q0 15 -9.5 23.5t-29.5 8.5q-15 0 -30 -6t-25.5 -12.5l-10.5 -6.5l-25 39l16 14t40 31.5t48 25.5q60 0 94.5 -24.5t34.5 -68.5q0 -22 -13.5 -42.5t-50.5 -52.5l29 -45zM61 563q29 21 58 43t52.5 41.5t38 31l14.5 11.5h25l24.5 -19.5t62 -49t75.5 -58.5l-32 -57l-22 -7
q-31 14 -65.5 27t-55.5 20q-21 -7 -54.5 -20t-66.5 -27l-21 7z" />
    <glyph glyph-name="uni1EAB" unicode="&#x1eab;" horiz-adv-x="494" 
d="M394 -12q-49 0 -78.5 19t-34.5 54l-12 5q-15 -16 -35 -33t-40 -29t-36 -12q-41 0 -74.5 22.5t-53 61.5t-19.5 86q0 33 18 57t46 30l196 36v1q0 34 -22 53t-60 19q-28 0 -61.5 -14.5t-53.5 -28.5l-12 6l-25 80q34 18 75 37.5t77.5 32.5t55.5 13q76 0 119.5 -21t61.5 -54
t18 -70q0 -12 -3.5 -37t-7.5 -53t-7.5 -52t-3.5 -35q0 -15 8 -24.5t21 -9.5q9 0 18.5 3t15.5 5l17 -27q-13 -24 -32 -51t-39 -46.5t-37 -23.5zM219 120q11 0 25 2t24 4l1 86l-72 -16q-18 -4 -18 -22q0 -23 10.5 -38.5t29.5 -15.5zM61 573q29 21 58 43t52.5 41.5t38 31
l14.5 11.5h25l24.5 -19.5t62 -49t75.5 -58.5l-32 -57l-22 -7q-31 14 -65.5 27t-55.5 20q-21 -7 -54.5 -20t-66.5 -27l-21 7zM109 684l-54 49v15l74 106l16 4q16 0 44.5 -8t56 -16t41.5 -8q11 0 25.5 13.5t25 27l10.5 13.5h15l54 -50v-15l-74 -105l-16 -4q-16 0 -44.5 8
t-56 15.5t-41.5 7.5q-11 0 -25.5 -13t-25 -26.5l-10.5 -13.5h-15z" />
    <glyph glyph-name="uni0201" unicode="&#x201;" horiz-adv-x="503" 
d="M394 -12q-49 0 -78.5 19t-34.5 54l-12 5q-15 -16 -35 -33t-40 -29t-36 -12q-41 0 -74.5 22.5t-53 61.5t-19.5 86q0 33 18 57t46 30l196 36v1q0 34 -22 53t-60 19q-28 0 -61.5 -14.5t-53.5 -28.5l-12 6l-25 80q34 18 75 37.5t77.5 32.5t55.5 13q76 0 119.5 -21t61.5 -54
t18 -70q0 -12 -3.5 -37t-7.5 -53t-7.5 -52t-3.5 -35q0 -15 8 -24.5t21 -9.5q9 0 18.5 3t15.5 5l17 -27q-13 -24 -32 -51t-39 -46.5t-37 -23.5zM219 120q11 0 25 2t24 4l1 86l-72 -16q-18 -4 -18 -22q0 -23 10.5 -38.5t29.5 -15.5zM349 530q-34 38 -66.5 72t-53.5 55.5
l-21 21.5l3 14l84 63l14 -5l15.5 -27t40.5 -69t52 -87l-49 -38h-19zM186 530q-34 38 -66.5 72t-53.5 55.5l-21 21.5l3 14l84 63l14 -5l15.5 -27t40.5 -69t52 -87l-49 -38h-19z" />
    </font>
</defs>
</svg>
