<svg xmlns="http://www.w3.org/2000/svg">
<defs>
<font id="Edwin-Roman" horiz-adv-x="1000" >
  <font-face 
    font-family="Edwin"
    font-weight="400"
    font-stretch="normal"
    units-per-em="1000"
    panose-1="0 0 5 0 0 0 0 0 0 0"
    ascent="737"
    descent="-263"
    x-height="466"
    cap-height="722"
    bbox="-286 -302 1118 1116"
    underline-thickness="61"
    underline-position="-104"
    stemh="48"
    stemv="93"
    unicode-range="U+0020-1D12B"
  />
<missing-glyph horiz-adv-x="500" 
d="M50 0v491h400v-491h-400zM100 50h300v391h-300v-391z" />
    <glyph glyph-name="uni2116" unicode="Nr&#x2e;" horiz-adv-x="1046" 
d="M225 722l399 -531v314c0 137 -19 165 -115 170v47h285v-47c-97 -5 -116 -34 -116 -170v-519h-42l-446 602v-371c0 -136 19 -165 115 -170v-47h-285v47c97 5 116 34 116 170v425c-16 24 -35 31 -92 33h-25v47h206zM758 121h268v-65h-268v65zM891 501
c80 0 142 -65 142 -148c0 -87 -60 -151 -141 -151c-82 0 -142 64 -142 149s61 150 141 150zM892 463c-42 0 -62 -35 -62 -111s19 -110 62 -110c42 0 61 35 61 110c0 76 -20 111 -61 111z" />
    <glyph glyph-name="uniFB00" unicode="ff" horiz-adv-x="628" 
d="M203 423v-300v-44c0 -36 9 -41 76 -43h18v-36h-267v36h4c43 1 62 5 69 14c4 6 5 12 6 26v23v24v300h-88v43h88v31c0 81 10 124 40 166c35 50 86 74 155 74c75 0 124 -31 130 -82c37 56 87 82 160 82c81 0 131 -36 131 -94c0 -36 -23 -61 -56 -61c-31 0 -55 23 -55 53
c0 11 3 23 9 32c6 8 6 9 6 13c0 11 -13 17 -34 17c-40 0 -75 -27 -91 -71c-8 -20 -11 -53 -11 -103v-57h110v-43h-110v-300v-44c0 -36 9 -41 76 -43h18v-36h-267v36h4c43 1 62 5 69 14c4 6 5 12 6 26v23v24v300h-196zM203 466h196v31c0 47 2 66 8 92c-10 -5 -17 -7 -28 -7
c-31 0 -55 23 -55 53c0 11 3 23 9 32c6 8 6 9 6 13c0 11 -13 17 -34 17c-40 0 -75 -27 -91 -71c-8 -20 -11 -53 -11 -103v-57z" />
    <glyph glyph-name="uniFB01" unicode="fi" horiz-adv-x="611" 
d="M111 466v9c0 92 18 147 64 192c47 47 106 69 183 69c91 0 148 -37 148 -97c0 -37 -24 -60 -63 -60c-35 0 -62 22 -62 52c0 13 4 27 11 36c6 8 6 9 6 13c0 11 -15 16 -47 16c-47 0 -84 -18 -110 -54c-25 -33 -36 -82 -36 -155v-21h151c52 0 80 1 153 7v-350v-44
c0 -36 9 -41 75 -43h4v-36h-253v36h4c43 1 63 5 69 14c5 6 6 12 7 25v8v40v231c1 63 -2 68 -43 69h-167v-300v-44c0 -36 9 -41 75 -43h4v-36h-253v36h4c43 1 63 5 70 14c4 5 5 12 6 26v7v40v300h-95v43h95z" />
    <glyph glyph-name="uniFB02" unicode="fl" horiz-adv-x="611" 
d="M507 737v-614v-44c0 -36 9 -41 76 -43h7v-36h-259v36h7c43 1 62 5 69 14c4 5 5 11 6 25v48v461c-9 -3 -14 -4 -22 -4c-28 0 -47 20 -47 49c0 14 3 24 15 43c1 2 2 5 2 7c0 10 -17 18 -39 18c-50 0 -91 -26 -111 -70c-9 -21 -13 -54 -13 -104v-57h110v-43h-110v-300v-44
c0 -36 9 -41 76 -43h18v-36h-267v36h4c43 1 62 5 69 14c4 6 5 12 6 26v23v24v300h-88v43h88v31c-6 157 91 246 261 240h142z" />
    <glyph glyph-name="uniFB03" unicode="ffi" horiz-adv-x="903" 
d="M403 423h-191v-300v-44c0 -36 9 -41 76 -43h18v-36h-267v36h4c43 1 62 5 69 14c4 6 5 12 6 26v23v24v300h-88v43h88v31c0 81 10 124 40 166c36 50 86 74 155 74c83 0 132 -36 131 -96c43 61 116 95 206 95c91 0 148 -37 148 -97c0 -37 -24 -60 -63 -60
c-35 0 -62 22 -62 52c0 12 4 27 11 36c6 8 6 9 6 13c0 11 -15 16 -47 16c-47 0 -84 -18 -110 -54c-25 -33 -36 -82 -36 -155v-21h151c52 0 80 1 153 7v-350v-44c0 -36 9 -41 75 -43h4v-36h-253v36h4c44 1 63 5 69 14c5 6 6 12 7 25v24v24v231c1 63 -2 68 -43 69h-167v-300
v-44c0 -36 9 -41 75 -43h4v-36h-253v36h4c43 1 63 5 70 14c4 5 5 11 6 26v23v24v300zM403 466v9c0 50 6 91 15 116c-10 -7 -18 -9 -30 -9c-31 0 -55 23 -55 53c0 11 3 23 9 32c6 8 6 9 6 13c0 11 -13 17 -34 17c-41 0 -75 -27 -91 -71c-8 -20 -11 -53 -11 -103v-57h191z" />
    <glyph glyph-name="uniFB04" unicode="ffl" horiz-adv-x="903" 
d="M396 423h-194v-300v-44c0 -36 9 -41 76 -43h18v-36h-267v36h4c43 1 62 5 69 14c4 6 5 12 6 26v23v24v300h-88v43h88v31c0 81 10 124 40 166c35 50 86 74 155 74c79 0 127 -33 131 -90c49 66 114 92 223 90h142v-614v-44c0 -36 9 -41 76 -43h7v-36h-259v36h7
c43 1 62 5 69 14c4 5 5 11 6 26v47v461c-9 -3 -14 -4 -22 -4c-28 0 -47 20 -47 49c0 14 3 24 15 43c1 2 2 5 2 7c0 10 -17 18 -39 18c-50 0 -91 -26 -111 -70c-9 -21 -13 -54 -13 -104v-57h110v-43h-110v-300v-44c0 -36 9 -41 76 -43h18v-36h-267v36h4c43 1 62 5 69 14
c4 6 6 11 6 25v24v24v300zM396 466v31c0 47 2 68 10 92c-10 -5 -17 -7 -28 -7c-31 0 -55 23 -55 53c0 11 3 23 9 32c6 8 6 9 6 13c0 11 -13 17 -34 17c-40 0 -75 -27 -91 -71c-8 -20 -11 -53 -11 -103v-57h194z" />
    <glyph glyph-name=".notdef" horiz-adv-x="500" 
d="M50 0v491h400v-491h-400zM100 50h300v391h-300v-391z" />
    <glyph glyph-name="space" unicode=" " horiz-adv-x="278" 
 />
    <glyph glyph-name="exclam" unicode="!" horiz-adv-x="296" 
d="M169 191h-39c-2 179 -5 226 -24 320c-14 70 -18 101 -18 131c0 62 21 94 62 94s61 -31 61 -95c0 -30 -4 -61 -18 -130c-19 -94 -23 -143 -24 -320zM150 111c34 0 62 -28 62 -62c0 -35 -28 -63 -63 -63c-34 0 -62 28 -62 63c0 34 28 62 63 62z" />
    <glyph glyph-name="quotedbl" unicode="&#x22;" horiz-adv-x="389" 
d="M93 498l-31 179c-1 6 -1 11 -1 16c0 25 18 43 43 43s43 -18 43 -43c0 -5 0 -11 -1 -16l-31 -179h-22zM274 498l-31 179c-1 6 -1 10 -1 16c0 25 18 43 43 43s43 -18 43 -43c0 -5 0 -10 -1 -16l-31 -179h-22z" />
    <glyph glyph-name="numbersign" unicode="#" horiz-adv-x="556" 
d="M135 228h-102v56h110l19 132h-102v56h110l31 214h65l-31 -214h123l31 214h65l-31 -214h101v-56h-109l-19 -132h101v-56h-109l-33 -228h-65l33 228h-123l-33 -228h-65zM227 416l-19 -132h123l19 132h-123z" />
    <glyph glyph-name="dollar" unicode="$" horiz-adv-x="556" 
d="M298 801v-104c109 -8 182 -67 182 -148c0 -43 -23 -69 -62 -69c-36 0 -60 23 -60 57c0 24 7 35 36 56c4 3 6 7 6 10c0 21 -48 44 -102 50v-248c6 -2 9 -3 23 -7c139 -40 189 -92 189 -196c0 -126 -79 -205 -212 -212v-120h-47v119c-41 2 -60 5 -88 14
c-73 24 -118 79 -118 145c0 50 30 86 71 86c34 0 61 -27 61 -62c0 -29 -11 -45 -46 -65c-6 -3 -8 -6 -8 -11c0 -31 56 -59 128 -64v279c-51 15 -82 28 -109 44c-54 32 -84 86 -84 152c0 104 73 175 193 189v105h47zM251 420v230c-71 -6 -121 -51 -121 -111
c0 -58 33 -90 121 -119zM298 298v-265c26 3 38 6 55 13c50 21 83 69 83 120c0 54 -33 95 -96 119c-13 5 -13 5 -42 13z" />
    <glyph glyph-name="percent" unicode="%" horiz-adv-x="833" 
d="M650 722l-414 -722h-50l360 631c-36 -21 -62 -29 -96 -29c-22 0 -38 3 -63 12c2 -14 3 -22 3 -32c0 -61 -28 -134 -71 -185c-44 -52 -90 -76 -146 -76c-74 0 -128 52 -128 124c0 67 46 160 106 211c39 34 84 52 127 52c40 0 65 -13 91 -47c30 -17 48 -22 73 -22
c64 0 122 29 162 83h46zM286 669c-42 -14 -54 -26 -92 -93c-47 -82 -62 -121 -62 -158c0 -35 23 -59 56 -59c80 0 165 117 165 228c0 14 -1 25 -6 41c-28 10 -43 20 -61 41zM675 401c68 0 117 -50 117 -119c0 -59 -30 -136 -76 -193c-37 -47 -89 -74 -141 -74
c-76 0 -130 50 -130 121c0 56 27 125 69 178c46 56 102 87 161 87zM692 361c-31 0 -57 -22 -88 -73c-53 -87 -74 -137 -74 -177c0 -32 24 -57 56 -57c81 0 168 117 168 226c0 45 -28 81 -62 81z" />
    <glyph glyph-name="ampersand" unicode="&#x26;" horiz-adv-x="815" 
d="M731 169l44 -6c-5 -39 -14 -68 -34 -98c-35 -54 -77 -76 -141 -76c-55 0 -94 18 -142 67c-65 -51 -120 -71 -192 -71c-68 0 -121 21 -158 61c-35 38 -57 93 -57 143c0 90 61 169 173 222c-31 66 -42 105 -42 149c0 106 70 177 175 177c93 0 156 -54 156 -135
c0 -53 -30 -108 -76 -140c-26 -18 -43 -27 -97 -51c56 -105 113 -191 161 -248c43 49 70 108 70 151c0 31 -31 47 -90 47h-10v43h282v-43h-11c-71 -5 -83 -17 -144 -136c-21 -40 -26 -47 -66 -96c39 -43 72 -61 110 -61c44 0 77 38 89 101zM319 453c40 20 55 29 71 44
c26 25 43 65 43 103c0 55 -33 94 -79 94s-78 -41 -78 -99c0 -37 14 -82 43 -142zM243 370c-60 -35 -85 -72 -85 -127c0 -100 79 -190 168 -190c34 0 57 9 101 37c-85 99 -119 151 -184 280z" />
    <glyph glyph-name="quotesingle" unicode="'" horiz-adv-x="204" 
d="M91 498l-31 179c-1 6 -1 11 -1 16c0 25 18 43 43 43s43 -18 43 -43c0 -5 0 -11 -1 -16l-31 -179h-22z" />
    <glyph glyph-name="parenleft" unicode="(" horiz-adv-x="333" 
d="M279 736v-37c-100 -88 -140 -199 -140 -392s40 -304 140 -393v-37c-68 42 -102 72 -140 120c-67 89 -103 196 -103 310c0 121 41 236 117 326c34 40 65 66 126 103z" />
    <glyph glyph-name="parenright" unicode=")" horiz-adv-x="333" 
d="M54 -123v37c100 88 140 200 140 393s-40 304 -140 392v37c68 -42 102 -71 140 -120c67 -88 103 -195 103 -309c0 -122 -41 -237 -117 -326c-34 -41 -65 -67 -126 -104z" />
    <glyph glyph-name="asterisk" unicode="*" horiz-adv-x="500" 
d="M239 537v36c-1 34 -3 44 -23 89c-5 12 -8 23 -8 30c0 23 20 44 41 44s42 -21 42 -43c0 -11 -1 -14 -17 -53c-10 -23 -14 -42 -14 -67v-36l31 18c27 16 39 28 66 65c15 21 26 28 44 28c24 0 42 -17 42 -39c0 -28 -18 -44 -52 -48c-45 -5 -62 -9 -89 -25l-31 -18l31 -17
c28 -16 40 -20 89 -25c35 -4 52 -20 52 -48c0 -22 -18 -39 -42 -39c-18 0 -29 7 -44 27c-27 37 -40 50 -66 66l-31 18v-36c1 -34 4 -45 23 -90c5 -12 8 -23 8 -31c0 -21 -21 -43 -42 -43s-42 22 -42 44c0 7 3 18 8 30c20 46 23 56 24 90v36l-31 -18c-28 -17 -39 -28 -66 -66
c-15 -20 -26 -27 -44 -27c-24 0 -42 17 -42 39c0 28 18 44 52 48c47 5 61 9 89 25l31 17l-31 18c-27 15 -44 20 -89 25c-34 3 -52 20 -52 48c0 22 19 39 42 39c18 0 29 -7 44 -28c27 -37 40 -49 66 -65z" />
    <glyph glyph-name="plus" unicode="+" horiz-adv-x="606" 
d="M263 293v212h80v-212h212v-80h-212v-213h-80v213h-212v80h212z" />
    <glyph glyph-name="comma" unicode="," horiz-adv-x="278" 
d="M87 -184l-23 29c67 47 101 94 101 136c0 6 -2 9 -7 9h-3c-3 -1 -10 -1 -15 -1c-42 0 -69 23 -69 59c0 34 28 60 65 60c49 0 82 -39 82 -99c0 -70 -41 -131 -131 -193z" />
    <glyph glyph-name="hyphen" unicode="-" horiz-adv-x="333" 
d="M42 278h249v-83h-249v83z" />
    <glyph glyph-name="period" unicode="." horiz-adv-x="278" 
d="M137 111c34 0 62 -28 62 -62c0 -35 -28 -63 -63 -63c-34 0 -62 28 -62 63c0 34 28 62 63 62z" />
    <glyph glyph-name="slash" unicode="/" horiz-adv-x="278" 
d="M244 736h58l-267 -750h-58z" />
    <glyph glyph-name="zero" unicode="0" horiz-adv-x="556" 
d="M284 704c63 0 127 -39 166 -102c42 -69 64 -157 64 -263c0 -208 -98 -354 -238 -354c-135 0 -234 151 -234 357c0 210 102 362 242 362zM277 661c-38 0 -74 -29 -97 -79c-20 -44 -27 -102 -27 -219c0 -164 8 -226 36 -273c24 -40 55 -62 89 -62c38 0 74 30 97 79
c20 44 27 110 27 251c0 137 -9 194 -36 241c-24 40 -56 62 -89 62z" />
    <glyph glyph-name="one" unicode="1" horiz-adv-x="556" 
d="M322 704h36c-5 -65 -7 -112 -7 -168v-413c0 -52 0 -53 7 -62c8 -10 27 -14 83 -14h55v-47h-396v47h65c56 0 75 4 83 14c6 9 6 11 6 62v401c2 56 -4 62 -62 63h-88v43c92 2 184 33 218 74z" />
    <glyph glyph-name="two" unicode="2" horiz-adv-x="556" 
d="M505 216l-19 -216h-451v28c44 58 62 81 98 123c17 19 63 68 137 146c83 88 118 155 118 229c0 84 -49 135 -132 135c-47 0 -88 -17 -113 -48c-14 -17 -24 -40 -24 -55c0 -13 2 -15 39 -30c21 -9 35 -32 35 -57c0 -36 -25 -61 -62 -61c-47 0 -79 43 -79 106
c0 107 97 188 224 188c131 0 225 -81 225 -195c0 -49 -16 -93 -48 -137c-23 -30 -62 -65 -153 -135c-64 -50 -87 -71 -156 -143h224c62 0 70 6 83 71l10 51h44z" />
    <glyph glyph-name="three" unicode="3" horiz-adv-x="556" 
d="M346 368c104 -29 152 -86 152 -180c0 -123 -94 -203 -239 -203c-128 0 -217 67 -217 164c0 53 28 88 71 88c36 0 63 -27 63 -63c0 -25 -11 -42 -39 -59c-19 -11 -21 -13 -21 -22c0 -31 68 -65 131 -65c90 0 140 58 140 162c0 99 -40 152 -114 152c-11 0 -27 0 -47 -1
c-9 -1 -17 -1 -23 -1c-22 0 -32 8 -32 25c0 18 11 27 32 27c6 0 14 0 22 -1c15 -1 32 -2 41 -2c71 0 109 49 109 142c0 85 -38 130 -110 130c-57 0 -115 -30 -115 -58c0 -7 3 -11 13 -18c23 -16 31 -29 31 -51c0 -36 -24 -60 -59 -60c-39 0 -66 29 -66 70
c0 91 89 160 206 160c124 0 204 -67 204 -172c0 -80 -42 -131 -133 -164z" />
    <glyph glyph-name="four" unicode="4" horiz-adv-x="556" 
d="M368 704h43c-5 -72 -5 -75 -5 -200v-273h121v-56h-121v-52c0 -52 0 -53 6 -62c8 -11 27 -14 84 -14h4v-47h-292v47h11c57 0 76 3 84 14c6 9 6 11 6 62v52h-281v56zM309 231v303l-220 -303h220z" />
    <glyph glyph-name="five" unicode="5" horiz-adv-x="556" 
d="M164 591l-17 -170c55 23 86 30 129 30c136 0 226 -91 226 -227c0 -147 -99 -239 -256 -239c-53 0 -93 11 -127 33c-45 31 -74 81 -74 131c0 47 32 84 72 84c36 0 63 -27 63 -62c0 -27 -9 -40 -40 -59c-12 -7 -18 -15 -18 -22c0 -31 62 -62 122 -62c41 0 82 14 102 35
c30 31 47 88 47 155c0 115 -53 183 -143 183c-40 0 -73 -11 -108 -36c-4 -40 -19 -61 -45 -61c-19 0 -32 13 -32 34c0 16 7 29 28 51c14 124 23 231 27 315c102 -24 142 -30 206 -30c58 0 84 5 133 26c6 3 10 4 13 4c6 0 8 -3 8 -9c0 -8 -4 -18 -15 -36
c-33 -56 -95 -85 -180 -85c-40 0 -67 4 -121 17z" />
    <glyph glyph-name="six" unicode="6" horiz-adv-x="556" 
d="M153 340c47 63 97 90 165 90c114 0 198 -88 198 -206c0 -64 -26 -129 -69 -173c-42 -44 -96 -66 -161 -66c-148 0 -244 127 -244 323c0 109 30 213 85 290c48 67 125 106 207 106c95 0 164 -51 164 -120c0 -42 -27 -72 -66 -72c-35 0 -61 25 -61 58c0 14 5 29 15 48
c4 7 5 10 5 14c0 18 -21 29 -56 29c-63 0 -116 -41 -145 -112c-22 -51 -27 -84 -37 -209zM290 369c-81 0 -131 -63 -131 -166c0 -37 8 -71 24 -102c24 -49 59 -73 105 -73c73 0 119 73 119 189c0 95 -44 152 -117 152z" />
    <glyph glyph-name="seven" unicode="7" horiz-adv-x="556" 
d="M59 462l31 242c108 -8 177 -11 264 -11c62 0 94 2 154 7v-29c-6 -13 -9 -22 -10 -24c-15 -31 -30 -62 -45 -94c-107 -234 -125 -304 -120 -448c1 -87 -18 -119 -66 -119c-39 0 -63 28 -63 74c0 42 16 105 47 180c25 62 34 80 108 227l68 137c-28 -1 -51 -1 -64 -1
c-46 0 -46 0 -169 6c-9 1 -17 1 -22 1c-29 0 -36 -10 -51 -76l-18 -79z" />
    <glyph glyph-name="eight" unicode="8" horiz-adv-x="556" 
d="M374 390c38 -17 56 -27 76 -45c41 -36 63 -87 63 -144c0 -61 -26 -122 -68 -160c-42 -36 -104 -56 -178 -56c-64 0 -118 15 -157 43c-42 31 -69 85 -69 140c0 51 22 99 61 131c22 18 41 28 85 45c-36 19 -52 30 -69 50c-28 31 -44 76 -44 119c0 111 89 191 211 191
c116 0 199 -67 199 -159c0 -65 -36 -115 -110 -155zM267 430l66 -25c57 48 77 82 77 134c0 73 -51 122 -128 122c-79 0 -131 -42 -131 -106c0 -58 35 -96 116 -125zM325 291l-92 33c-78 -36 -109 -81 -109 -156c0 -89 54 -140 148 -140c98 0 161 51 161 131
c0 66 -32 105 -108 132z" />
    <glyph glyph-name="nine" unicode="9" horiz-adv-x="556" 
d="M404 347c-54 -68 -96 -91 -167 -91c-115 0 -198 87 -198 207c0 135 100 241 229 241c150 0 245 -129 245 -330c0 -104 -27 -200 -76 -274s-127 -115 -218 -115c-92 0 -162 50 -162 116c0 40 30 72 68 72c34 0 59 -25 59 -59c0 -14 -2 -21 -13 -44c-4 -8 -6 -13 -6 -17
c0 -15 22 -25 55 -25c68 0 122 43 148 117c18 50 24 85 36 202zM272 661c-44 0 -71 -16 -94 -54c-19 -31 -30 -78 -30 -126c0 -106 43 -165 119 -165c43 0 82 22 105 58c15 23 23 60 23 101c0 113 -49 186 -123 186z" />
    <glyph glyph-name="colon" unicode=":" horiz-adv-x="278" 
d="M149 111c34 0 62 -28 62 -62c0 -35 -28 -63 -63 -63c-34 0 -62 28 -62 63c0 34 28 62 63 62zM149 473c34 0 62 -28 62 -62c0 -35 -28 -63 -63 -63c-34 0 -62 28 -62 62c0 35 28 63 63 63z" />
    <glyph glyph-name="semicolon" unicode=";" horiz-adv-x="278" 
d="M95 -184l-23 29c67 47 101 94 101 136c0 6 -2 9 -7 9h-3c-3 -1 -10 -1 -15 -1c-42 0 -69 23 -69 59c0 34 28 60 65 60c49 0 82 -39 82 -99c0 -70 -41 -131 -131 -193zM150 472c34 0 62 -28 62 -62c0 -35 -28 -63 -63 -63c-34 0 -62 28 -62 63c0 34 28 62 63 62z" />
    <glyph glyph-name="less" unicode="&#x3c;" horiz-adv-x="606" 
d="M558 511l-398 -185l398 -185v-84l-509 232v75l509 232v-85z" />
    <glyph glyph-name="equal" unicode="=" horiz-adv-x="606" 
d="M51 112v80h504v-80h-504zM51 314v80h504v-80h-504z" />
    <glyph glyph-name="greater" unicode="&#x3e;" horiz-adv-x="606" 
d="M48 511v85l509 -232v-75l-509 -232v84l398 185z" />
    <glyph glyph-name="question" unicode="?" horiz-adv-x="444" 
d="M217 191h-44v32c0 48 4 73 14 101c13 35 13 35 87 137c21 28 32 66 32 107c0 78 -41 123 -112 123c-49 0 -92 -24 -92 -50c0 -8 1 -10 16 -22c19 -16 29 -33 29 -53c0 -31 -25 -55 -56 -55c-38 0 -66 33 -66 77c0 86 81 148 195 148s191 -70 191 -174
c0 -70 -22 -105 -120 -191c-64 -55 -75 -82 -74 -180zM193 110c34 0 62 -28 62 -62c0 -35 -28 -63 -63 -63c-34 0 -62 28 -62 63c0 34 28 62 63 62z" />
    <glyph glyph-name="at" unicode="@" horiz-adv-x="737" 
d="M637 188h61c-19 -44 -49 -84 -92 -122c-59 -52 -134 -80 -215 -80c-198 0 -348 160 -348 369c0 217 149 381 346 381c175 0 316 -135 316 -301c0 -92 -41 -181 -109 -237c-39 -33 -82 -51 -119 -51c-41 0 -69 26 -69 65c0 7 0 12 1 20c-40 -58 -68 -79 -108 -79
c-33 0 -70 18 -92 45c-22 25 -33 61 -33 104c0 62 23 122 64 169c39 43 93 72 137 72c38 0 66 -23 78 -65l16 56h88l-73 -289c-2 -12 -4 -22 -4 -30c0 -14 11 -24 26 -24c26 0 62 27 92 69c32 46 53 112 53 168c0 69 -31 139 -83 188c-48 47 -106 69 -176 69
c-171 0 -295 -136 -295 -324c0 -189 125 -324 300 -324c99 0 183 53 238 151zM391 502c-23 0 -46 -15 -63 -42c-37 -57 -62 -133 -62 -189c0 -50 17 -78 48 -78s62 32 86 87c21 48 36 110 36 150c0 44 -17 72 -45 72z" />
    <glyph glyph-name="A" unicode="A" horiz-adv-x="722" 
d="M378 736l255 -625c23 -57 32 -63 84 -64h14v-47h-310v47h42c37 0 62 10 62 26c0 5 -2 11 -8 27l-54 134h-265l-33 -88c-6 -17 -9 -29 -9 -42c0 -38 27 -57 81 -57h20v-47h-265v47h4c57 4 83 28 110 106l230 583h42zM329 572l-111 -284h224z" />
    <glyph glyph-name="B" unicode="B" horiz-adv-x="722" 
d="M30 722h359c59 0 109 -8 145 -24c58 -25 98 -88 98 -153c0 -50 -25 -99 -66 -130c-26 -19 -48 -28 -96 -38c137 -24 200 -81 200 -181c0 -123 -104 -196 -277 -196h-363v47h18c57 0 76 4 84 14c6 9 6 11 6 62v476c0 51 0 53 -6 62c-8 10 -27 13 -84 14h-18v47zM250 397
h89c129 0 177 38 177 137c0 56 -19 98 -55 120c-21 13 -59 21 -105 21h-40c-53 -1 -66 -11 -66 -50v-228zM250 350v-240c-2 -53 8 -63 58 -63h42c63 0 105 7 136 23c39 19 61 65 61 129c0 110 -56 151 -209 151h-88z" />
    <glyph glyph-name="C" unicode="C" horiz-adv-x="722" 
d="M639 729l15 -289h-44c-24 79 -38 116 -57 149c-38 64 -100 101 -170 101c-65 0 -126 -35 -157 -91c-34 -60 -49 -135 -49 -249c0 -216 70 -318 218 -318c123 0 199 74 226 223l47 -8c-23 -168 -125 -262 -285 -262c-197 0 -338 153 -338 369c0 103 30 187 94 263
c67 80 148 120 243 120c69 0 106 -14 179 -67l40 59h38z" />
    <glyph glyph-name="D" unicode="D" horiz-adv-x="778" 
d="M29 0v47h19c56 1 75 4 83 14c6 9 6 11 6 62v476c0 51 0 53 -6 62c-8 10 -27 13 -83 14h-19v47h318c114 0 188 -16 243 -51c92 -60 142 -168 142 -306c0 -150 -56 -264 -157 -321c-53 -30 -121 -44 -210 -44h-336zM306 47h68c162 0 226 90 226 314c0 221 -71 314 -242 314
h-52c-50 0 -57 -7 -57 -56v-517c0 -49 6 -55 57 -55z" />
    <glyph glyph-name="E" unicode="E" horiz-adv-x="722" 
d="M630 722l14 -255h-43c-32 173 -73 209 -237 208h-52c-54 -1 -64 -8 -63 -50v-228h24c95 0 134 39 140 137h47v-328h-47c-4 111 -41 148 -144 144h-20v-255c-3 -36 12 -46 72 -48h66c153 4 194 42 232 220h44l-20 -267h-614v47h18c57 0 76 4 84 14c6 9 6 11 6 62v476
c0 51 0 53 -6 62c-8 10 -27 13 -84 14h-18v47h601z" />
    <glyph glyph-name="F" unicode="F" horiz-adv-x="667" 
d="M624 722l14 -255h-44c-31 172 -72 209 -236 208h-46c-54 -1 -64 -8 -63 -50v-228h24c95 1 134 39 140 137h47v-328h-47c-4 111 -41 148 -144 144h-20v-227c0 -50 0 -53 6 -62c8 -10 27 -14 84 -14h33v-47h-343v47h18c57 0 76 4 84 14c6 9 6 11 6 62v476c0 51 0 53 -6 62
c-8 10 -27 13 -84 14h-18v47h595z" />
    <glyph glyph-name="G" unicode="G" horiz-adv-x="778" 
d="M650 729l14 -281h-43c-41 160 -120 242 -234 242c-139 0 -213 -119 -213 -342c0 -107 16 -177 53 -233c34 -50 98 -83 163 -83s129 34 154 83c13 24 20 63 20 106c0 56 -7 61 -91 61h-19v47h318v-47h-15c-57 0 -75 -3 -84 -14c-6 -9 -6 -11 -6 -62v-220h-42l-37 90
c-65 -65 -124 -91 -208 -91c-96 0 -188 41 -250 111c-59 65 -88 150 -88 252c0 135 46 236 145 316c63 51 125 73 204 73c73 0 117 -17 182 -68l39 60h38z" />
    <glyph glyph-name="H" unicode="H" horiz-adv-x="833" 
d="M584 347h-335v-224c0 -51 0 -53 7 -62c8 -10 26 -13 83 -14h19v-47h-329v47h18c57 0 76 4 84 14c6 9 6 12 6 62v476c0 51 0 53 -6 62c-9 11 -27 14 -84 14h-18v47h329v-47h-19c-57 0 -75 -3 -83 -14c-7 -9 -7 -11 -7 -62v-198h335v198c0 51 0 53 -6 62
c-9 11 -27 14 -84 14h-14v47h324v-47h-18c-57 0 -75 -3 -84 -14c-6 -9 -6 -10 -6 -62v-476c0 -52 0 -53 6 -62c8 -10 27 -14 84 -14h18v-47h-328v47h18c57 0 76 4 84 14c6 9 6 11 6 62v224z" />
    <glyph glyph-name="I" unicode="I" horiz-adv-x="407" 
d="M38 675v47h331v-47h-20c-57 -1 -75 -4 -83 -14c-6 -9 -6 -11 -6 -62v-476c0 -51 0 -53 6 -62c8 -11 27 -14 83 -14h20v-47h-331v47h20c57 0 76 4 84 14c6 9 6 12 6 62v476c0 50 0 53 -6 62c-8 10 -27 13 -84 14h-20z" />
    <glyph glyph-name="J" unicode="J" horiz-adv-x="556" 
d="M209 675v47h328v-47h-19c-57 -1 -76 -4 -83 -14c-7 -9 -7 -11 -7 -62v-331c0 -98 -11 -158 -37 -198c-35 -56 -99 -85 -188 -85c-60 0 -106 14 -140 43c-36 30 -58 79 -58 127c0 71 42 122 100 122c44 0 75 -30 75 -72c0 -41 -27 -72 -63 -72c-12 0 -20 1 -37 5h-3
c-7 0 -12 -7 -12 -16c0 -12 8 -32 19 -46c21 -27 60 -44 102 -44c58 0 99 30 118 86c10 31 13 71 13 159v322c0 51 0 53 -6 62c-8 10 -27 13 -84 14h-18z" />
    <glyph glyph-name="K" unicode="K" horiz-adv-x="778" 
d="M250 327l245 246c29 30 49 58 49 72c0 21 -19 30 -65 30h-25v47h308v-47c-60 0 -121 -29 -169 -80l-149 -149l242 -349c30 -44 41 -49 98 -50h19v-47h-342v47h31c49 0 68 6 68 23c0 10 -4 18 -20 42l-174 255l-116 -117v-127c0 -51 0 -53 7 -62c8 -10 26 -13 83 -14h19
v-47h-329v47h18c57 0 76 4 84 14c6 9 6 12 6 62v476c0 50 0 53 -6 62c-8 10 -27 13 -84 14h-18v47h329v-47h-19c-57 -1 -76 -4 -83 -14c-7 -9 -7 -11 -7 -62v-272z" />
    <glyph glyph-name="L" unicode="L" horiz-adv-x="667" 
d="M646 274l-21 -274h-590v47h18c57 0 76 4 84 14c6 9 6 11 6 62v476c0 51 0 53 -6 62c-8 10 -27 13 -84 14h-18v47h328v-47h-18c-57 -1 -76 -4 -84 -14c-6 -9 -6 -12 -6 -62v-504c-3 -36 12 -46 72 -48h42c155 3 200 47 233 227h44z" />
    <glyph glyph-name="M" unicode="M" horiz-adv-x="944" 
d="M287 722l192 -533l183 533h251v-47h-18c-57 -1 -76 -4 -84 -14c-6 -9 -6 -11 -6 -62v-476c0 -52 0 -53 6 -63c8 -10 27 -13 84 -13h18v-47h-328v47h18c57 0 76 3 84 13c6 10 6 12 6 63v535l-223 -658h-40l-238 658v-442c0 -136 19 -164 115 -169v-47h-285v47
c97 5 116 33 116 169v383c0 52 0 53 -7 62c-7 10 -26 13 -83 14h-19v47h258z" />
    <glyph glyph-name="N" unicode="N" horiz-adv-x="815" 
d="M225 722l399 -531v314c0 137 -19 165 -115 170v47h285v-47c-97 -5 -116 -34 -116 -170v-519h-42l-446 602v-371c0 -136 19 -165 115 -170v-47h-285v47c97 5 116 34 116 170v425c-16 24 -35 31 -92 33h-25v47h206z" />
    <glyph glyph-name="O" unicode="O" horiz-adv-x="778" 
d="M393 737c192 0 340 -164 340 -376c0 -214 -148 -376 -344 -376c-86 0 -162 29 -222 84c-76 70 -122 179 -122 291c0 114 45 222 122 293c61 56 137 84 226 84zM392 690c-75 0 -128 -28 -165 -86c-37 -60 -50 -120 -50 -241c0 -124 12 -185 50 -245c36 -57 91 -86 162 -86
s126 30 162 86c37 60 50 121 50 243c0 123 -13 184 -50 243c-36 55 -92 86 -159 86z" />
    <glyph glyph-name="P" unicode="P" horiz-adv-x="667" 
d="M248 321v-198c0 -51 0 -53 6 -62c8 -10 27 -14 84 -14h26v-47h-336v47h18c57 0 76 4 84 14c6 9 6 11 6 62v476c0 51 0 53 -6 62c-8 10 -27 13 -84 14h-18v47h350c69 0 131 -11 170 -31c66 -33 101 -91 101 -167c0 -79 -40 -143 -110 -177c-41 -19 -88 -26 -178 -26h-113z
M248 368h121c106 0 157 49 157 152c0 106 -49 155 -153 155h-64c-56 0 -61 -5 -61 -51v-256z" />
    <glyph glyph-name="Q" unicode="Q" horiz-adv-x="778" 
d="M703 -20h45c1 -105 -48 -169 -128 -169c-82 0 -132 69 -136 189c-33 -12 -55 -15 -89 -15c-196 0 -350 165 -350 375c0 114 48 223 130 296c61 55 131 81 213 81c193 0 346 -162 346 -368c0 -128 -54 -240 -158 -326c34 -109 58 -151 87 -151c25 0 35 24 40 88zM550 119
c38 62 52 127 52 244c0 103 -12 172 -41 228c-31 62 -96 99 -172 99c-72 0 -130 -32 -161 -88c-34 -61 -51 -144 -51 -242c0 -116 19 -196 59 -249c-1 8 -1 15 -1 18c0 80 60 136 144 136s145 -52 171 -146zM480 54c0 109 -35 164 -106 164c-55 0 -93 -40 -93 -99
c0 -55 39 -87 105 -87c39 0 64 6 94 22z" />
    <glyph glyph-name="R" unicode="R" horiz-adv-x="722" 
d="M246 350v-228c0 -50 0 -52 6 -62c8 -10 27 -13 84 -13h18v-47h-328v47h18c57 0 76 3 84 13c6 10 6 12 6 62v477c0 51 0 53 -6 62c-8 10 -27 13 -84 14h-18v47h346c168 0 264 -65 264 -179c0 -101 -69 -159 -213 -179c78 -20 117 -62 139 -154l16 -63
c17 -69 27 -86 50 -86c27 0 39 30 43 99h42c-3 -120 -42 -175 -124 -175c-79 0 -116 46 -128 159l-5 51c-11 110 -51 151 -152 155h-58zM246 397h110c48 0 93 13 118 34c26 21 39 60 39 111c0 91 -45 133 -144 133h-54c-66 1 -71 -3 -69 -58v-220z" />
    <glyph glyph-name="S" unicode="S" horiz-adv-x="630" 
d="M546 728l12 -260h-43c-12 51 -31 93 -60 134c-40 57 -97 87 -167 87c-85 0 -142 -48 -142 -118c0 -61 42 -100 131 -123l107 -27c80 -20 119 -37 146 -63c40 -38 60 -90 60 -153c0 -134 -94 -220 -241 -220c-88 0 -143 20 -210 75l-45 -68h-39l-4 285h43
c15 -77 36 -125 78 -171c47 -52 100 -75 174 -75c55 0 88 11 121 39c30 28 45 61 45 101c0 39 -16 72 -46 95c-21 16 -28 18 -102 37l-95 24c-147 38 -201 92 -201 201c0 126 87 209 219 209c71 0 134 -24 182 -69l40 60h37z" />
    <glyph glyph-name="T" unicode="T" horiz-adv-x="667" 
d="M633 722l15 -278h-43c-8 57 -18 100 -33 137c-25 60 -74 94 -135 94c-33 0 -47 -11 -47 -36v-516c0 -51 0 -53 6 -62c8 -10 27 -14 83 -14h26v-47h-343v47h26c57 0 76 4 84 14c6 9 6 11 6 62v516c0 25 -14 36 -47 36c-68 0 -116 -37 -142 -111c-12 -32 -20 -70 -27 -120
h-43l15 278h599z" />
    <glyph glyph-name="U" unicode="U" horiz-adv-x="815" 
d="M514 675v47h285v-47c-97 -5 -117 -34 -116 -170v-227c0 -89 -12 -142 -44 -188c-48 -71 -126 -105 -239 -105s-201 37 -247 103c-19 28 -27 60 -30 113v69v329c0 51 0 53 -6 62c-8 10 -27 13 -83 14h-17v47h327v-47h-19c-57 -1 -76 -4 -84 -14c-6 -9 -6 -11 -6 -62v-335
c0 -93 5 -117 32 -154c33 -45 91 -71 160 -71c81 0 146 36 178 98c19 35 24 67 24 147v221c0 137 -19 165 -115 170z" />
    <glyph glyph-name="V" unicode="V" horiz-adv-x="722" 
d="M393 155l155 412c7 20 12 42 12 56c0 32 -30 52 -81 52h-19v47h271v-47h-10c-58 -2 -79 -20 -109 -98l-230 -592h-40l-253 634c-16 44 -31 55 -77 56h-20v47h312v-47h-40c-45 0 -62 -7 -62 -25c0 -5 3 -18 8 -31z" />
    <glyph glyph-name="W" unicode="W" horiz-adv-x="981" 
d="M349 182l116 384l-26 78c-8 24 -20 30 -63 31h-23v47h289v-47h-16c-39 0 -46 -1 -57 -5c-9 -4 -15 -13 -15 -22c0 -7 0 -8 7 -28l138 -438l120 406c4 11 6 25 6 35c0 35 -28 52 -86 52h-8v47h245v-47h-4c-57 -2 -80 -26 -101 -103l-176 -587h-41l-162 497l-148 -497h-43
l-216 651c-12 35 -17 39 -60 39h-19v47h282v-47h-45c-32 0 -43 -5 -43 -20c0 -5 2 -15 5 -25z" />
    <glyph glyph-name="X" unicode="X" horiz-adv-x="704" 
d="M389 400l210 -301c32 -48 38 -51 105 -52h12v-47h-328v47h28c63 1 67 2 67 18c0 8 -4 19 -13 31l-149 211l-116 -168c-10 -15 -16 -31 -16 -44c0 -30 25 -48 65 -48h25v-47h-284v47h4c53 1 87 21 131 80l162 225l-197 285c-22 33 -30 37 -84 38h-17v47h309v-47h-38
c-39 0 -48 -3 -48 -13c0 -5 4 -15 11 -25l133 -192l108 157c11 16 14 23 14 34c0 27 -21 39 -69 39h-14v47h275v-47h-16c-56 -2 -85 -22 -137 -94z" />
    <glyph glyph-name="Y" unicode="Y" horiz-adv-x="704" 
d="M389 357l124 221c10 17 16 37 16 52c0 32 -23 45 -77 45h-23v47h284v-47h-8c-64 -3 -95 -27 -138 -107l-149 -269v-176c0 -52 0 -53 6 -62c8 -10 26 -13 83 -14h26v-47h-343v47h26c57 0 76 4 84 14c6 9 6 11 6 62v164l-216 342c-24 39 -36 45 -81 46h-22v47h321v-47h-59
c-27 0 -39 -6 -39 -19c0 -7 3 -16 11 -28z" />
    <glyph glyph-name="Z" unicode="Z" horiz-adv-x="611" 
d="M569 722v-36l-411 -639h166c136 5 176 50 204 231h47l-18 -278h-533v36l409 639h-130c-136 -1 -172 -38 -205 -206h-45l20 253h496z" />
    <glyph glyph-name="bracketleft" unicode="[" horiz-adv-x="333" 
d="M156 -72h141v-36h-231v830h231v-37h-141v-757z" />
    <glyph glyph-name="backslash" unicode="\" horiz-adv-x="606" 
d="M132 737l400 -737h-58l-400 737h58z" />
    <glyph glyph-name="bracketright" unicode="]" horiz-adv-x="333" 
d="M176 686h-140v36h230v-830h-230v37h140v757z" />
    <glyph glyph-name="asciicircum" unicode="^" horiz-adv-x="606" 
d="M554 318h-87l-163 311l-165 -311h-87l209 404h85z" />
    <glyph glyph-name="underscore" unicode="_" horiz-adv-x="500" 
d="M0 -73h500v-61h-500v61z" />
    <glyph glyph-name="grave" unicode="`" horiz-adv-x="333" 
d="M242 535h-41l-159 97c-15 10 -25 25 -25 39c0 20 15 35 35 35c16 0 25 -6 50 -31z" />
    <glyph glyph-name="a" unicode="a" horiz-adv-x="556" 
d="M452 322v-201c0 -51 10 -69 38 -69c8 0 14 1 28 7c7 3 11 4 15 4c6 0 10 -5 10 -12c0 -29 -47 -58 -92 -58c-47 0 -72 20 -88 71c-43 -51 -105 -79 -174 -79c-89 0 -145 45 -145 117c0 64 41 110 128 142c49 19 82 27 186 45v39c0 45 -7 69 -26 85c-16 15 -51 25 -83 25
c-48 0 -88 -18 -88 -38c0 -5 1 -7 7 -14c10 -14 15 -28 15 -41c0 -30 -22 -51 -54 -51c-35 0 -58 24 -58 61c0 73 82 126 195 126c64 0 113 -13 146 -40c29 -24 40 -56 40 -119zM358 200v46c-78 -13 -117 -23 -148 -37c-44 -21 -65 -51 -65 -93c0 -45 33 -78 79 -78
c44 0 89 25 114 62c17 26 20 40 20 100z" />
    <glyph glyph-name="b" unicode="b" horiz-adv-x="556" 
d="M180 737v-334c38 57 75 78 136 78c120 0 204 -101 204 -245c0 -145 -91 -251 -215 -251c-62 0 -109 25 -150 79l-49 -78h-38c12 43 18 119 18 258v389c0 43 -5 49 -43 50h-35v43zM298 430c-80 0 -123 -72 -123 -206c0 -123 47 -196 126 -196c73 0 114 71 114 198
c0 131 -42 204 -117 204z" />
    <glyph glyph-name="c" unicode="c" horiz-adv-x="444" 
d="M387 147l39 -15c-43 -106 -94 -147 -183 -147c-124 0 -209 98 -209 240c0 150 93 256 223 256c89 0 156 -51 156 -119c0 -40 -25 -68 -61 -68c-35 0 -60 23 -60 56c0 17 4 27 20 46c5 6 6 9 6 12c0 16 -26 30 -56 30c-74 0 -123 -80 -123 -202c0 -117 50 -190 130 -190
c52 0 86 29 118 101z" />
    <glyph glyph-name="d" unicode="d" horiz-adv-x="574" 
d="M380 -7v79c-32 -60 -75 -87 -138 -87c-116 0 -199 101 -199 243c0 144 86 253 199 253c58 0 101 -23 138 -74v226c0 43 -5 49 -43 50h-59v43l196 11v-621c0 -64 5 -70 62 -73h18v-43zM262 427c-41 0 -78 -28 -95 -73c-13 -33 -19 -78 -19 -138c0 -111 42 -177 113 -177
c72 0 118 75 118 192c0 49 -6 90 -19 120c-18 46 -57 76 -98 76z" />
    <glyph glyph-name="e" unicode="e" horiz-adv-x="500" 
d="M465 225h-324c-1 -55 7 -90 25 -120c26 -45 63 -66 114 -66c67 0 109 30 150 107l35 -19c-41 -95 -108 -142 -204 -142c-135 0 -226 94 -226 235c0 150 96 261 224 261c122 0 207 -106 206 -256zM142 268h175c32 0 41 8 41 36c0 81 -40 134 -100 134
c-49 0 -81 -29 -102 -89c-10 -28 -14 -50 -14 -81z" />
    <glyph glyph-name="f" unicode="f" horiz-adv-x="333" 
d="M201 466h110v-43h-110v-300v-44c0 -36 9 -41 76 -43h18v-36h-267v36h4c43 1 62 5 69 14c4 6 5 12 6 26v23v24v300h-88v43h88v31c0 81 10 124 40 166c35 50 86 74 155 74c81 0 131 -36 131 -94c0 -36 -23 -61 -56 -61c-31 0 -55 23 -55 53c0 11 3 23 9 32c6 8 6 9 6 13
c0 11 -13 17 -34 17c-40 0 -75 -27 -91 -71c-8 -20 -11 -53 -11 -103v-57z" />
    <glyph glyph-name="g" unicode="g" horiz-adv-x="537" 
d="M196 74h102c68 0 100 -4 127 -14c36 -15 59 -55 59 -105c0 -105 -83 -158 -250 -158c-72 0 -120 8 -159 28c-32 17 -52 45 -52 75c0 41 30 72 92 95c-47 16 -67 42 -67 86c0 55 28 85 95 100c-52 25 -84 75 -84 134c0 100 78 166 197 166c50 0 82 -10 124 -38
c46 42 64 52 96 52c39 0 66 -24 66 -58c0 -27 -19 -48 -45 -48c-25 0 -41 13 -45 37c-2 11 -5 14 -10 14c-8 0 -17 -6 -34 -24c27 -33 36 -58 36 -98c0 -66 -33 -118 -93 -145c-34 -15 -49 -17 -143 -19c-67 -2 -94 -15 -94 -45c0 -11 5 -22 12 -26c12 -7 15 -8 70 -9z
M255 438c-67 0 -105 -45 -105 -124c0 -75 39 -122 101 -122c63 0 101 47 101 125s-35 121 -97 121zM246 -12h-74c-48 -25 -66 -47 -66 -80c0 -45 47 -70 132 -70c111 0 176 33 176 90c0 32 -24 54 -65 58c-14 2 -20 2 -103 2z" />
    <glyph glyph-name="h" unicode="h" horiz-adv-x="611" 
d="M200 737v-352c45 67 93 96 158 96c60 0 110 -28 135 -77c18 -34 21 -52 21 -124v-157v-44c0 -36 9 -41 75 -43h4v-36h-253v36h4c43 1 63 5 70 14c4 5 5 11 6 25v48v161c0 49 -7 79 -23 101c-14 20 -44 35 -70 35c-43 0 -87 -31 -109 -76c-11 -23 -18 -68 -18 -117v-104
v-44c0 -36 9 -41 76 -43h4v-36h-253v36h4c43 1 62 5 69 14c4 5 5 11 6 25v24v24v510c0 43 -5 49 -43 50h-48v43z" />
    <glyph glyph-name="i" unicode="i" horiz-adv-x="315" 
d="M206 466v-343v-44c0 -36 9 -41 76 -43h7v-36h-259v36h7c43 1 62 5 69 14c4 5 5 11 6 26v47v239c0 43 -5 49 -43 50h-51v43zM159 715c32 0 58 -26 58 -58s-26 -58 -59 -58c-31 0 -57 26 -57 58s26 58 58 58z" />
    <glyph glyph-name="j" unicode="j" horiz-adv-x="296" 
d="M207 466v-395c0 -113 -10 -164 -41 -208c-29 -41 -80 -65 -136 -65c-67 0 -112 33 -112 82c0 35 24 60 56 60c28 0 52 -22 52 -47c0 -7 -2 -14 -7 -24c-4 -10 -5 -12 -5 -16c0 -7 11 -13 25 -13c22 0 45 15 55 35c14 29 19 67 19 148v339c0 43 -5 49 -43 50h-58v43z
M160 715c32 0 58 -26 58 -58s-26 -58 -59 -58c-31 0 -57 26 -57 58s26 58 58 58z" />
    <glyph glyph-name="k" unicode="k" horiz-adv-x="593" 
d="M199 242l135 130c16 16 23 28 23 39c0 13 -15 19 -47 19h-31v36h263v-36c-68 -8 -110 -30 -169 -87l-45 -44l142 -194c41 -52 61 -64 117 -69v-36h-264v36h19c33 0 44 4 44 18c0 4 -2 9 -7 17l-119 167l-61 -58v-57v-44c0 -36 9 -41 76 -43h4v-36h-253v36h4
c43 1 62 5 69 14c4 5 5 11 6 25v48v510c0 43 -5 49 -43 50h-48v43l185 11v-495z" />
    <glyph glyph-name="l" unicode="l" horiz-adv-x="315" 
d="M204 737v-614v-44c0 -36 9 -41 76 -43h7v-36h-259v36h7c43 1 62 5 69 14c4 5 5 11 6 26v47v510c0 43 -5 49 -42 50h-49v43z" />
    <glyph glyph-name="m" unicode="m" horiz-adv-x="889" 
d="M201 466v-77c39 63 83 92 144 92c67 0 121 -40 138 -100c43 69 91 100 156 100c48 0 89 -20 118 -57c26 -34 32 -55 32 -117v-184v-43c0 -37 9 -42 75 -44h4v-36h-253v36h4c43 1 63 5 69 14c5 5 6 12 7 26v47v164c0 90 -28 133 -85 133c-70 0 -115 -64 -115 -164v-133
v-44c0 -36 9 -41 75 -43h4v-36h-253v36h4c43 1 63 5 69 14c5 5 6 12 7 25v48v175c0 81 -29 122 -86 122c-65 0 -114 -66 -114 -155v-142v-43c0 -37 9 -42 75 -44h4v-36h-252v36h4c43 1 62 5 69 14c4 5 5 11 6 26v8v39v239c0 43 -5 49 -43 50h-41v43z" />
    <glyph glyph-name="n" unicode="n" horiz-adv-x="611" 
d="M200 466v-81c44 66 93 96 158 96c60 0 110 -29 135 -77c18 -34 21 -52 21 -124v-157v-44c0 -36 9 -41 75 -43h4v-36h-253v36h4c43 1 63 5 70 14c4 5 5 11 6 26v47v162c0 48 -7 78 -22 100c-15 21 -45 35 -71 35c-43 0 -88 -31 -109 -76c-11 -23 -18 -68 -18 -117v-104
v-44c0 -36 9 -41 76 -43h4v-36h-253v36h4c43 1 62 5 69 14c4 5 5 11 6 26v23v24v239c0 43 -5 49 -43 50h-36v43z" />
    <glyph glyph-name="o" unicode="o" horiz-adv-x="500" 
d="M252 481c118 0 214 -111 214 -248c0 -138 -96 -248 -216 -248s-216 110 -216 247c0 140 95 249 218 249zM252 438c-75 0 -113 -70 -113 -206c0 -132 39 -204 111 -204s111 72 111 205c0 132 -39 205 -109 205z" />
    <glyph glyph-name="p" unicode="p" horiz-adv-x="574" 
d="M201 466v-71c35 60 76 86 138 86c56 0 102 -24 139 -72s57 -109 57 -174s-20 -127 -55 -175c-36 -49 -86 -75 -147 -75c-62 0 -99 23 -132 81v-145v-44c0 -36 9 -41 76 -43h11v-36h-260v36h4c43 1 62 5 69 14c4 5 5 11 6 25v48v441c0 43 -5 49 -43 50h-36v43zM321 427
c-76 0 -121 -74 -121 -199c0 -115 46 -189 118 -189s112 73 112 202c0 117 -40 186 -109 186z" />
    <glyph glyph-name="q" unicode="q" horiz-adv-x="556" 
d="M449 466h37c-11 -52 -14 -66 -16 -85c0 -11 0 -15 -1 -72v-388v-44c0 -36 9 -41 75 -43h4v-36h-260v36h11c44 1 63 5 70 14c4 5 5 11 6 25v48v137c-40 -55 -74 -73 -136 -73c-117 0 -203 100 -203 237c0 148 92 259 214 259c63 0 112 -27 152 -83zM259 438
c-79 0 -118 -69 -118 -210c0 -120 43 -189 118 -189c78 0 116 68 116 205c0 58 -6 93 -21 126c-19 42 -55 68 -95 68z" />
    <glyph glyph-name="r" unicode="r" horiz-adv-x="444" 
d="M198 466v-124c33 89 87 139 150 139c53 0 87 -32 87 -81c0 -40 -24 -67 -61 -67c-32 0 -55 23 -55 55c0 19 4 29 18 45c-78 -4 -138 -132 -139 -300v-10v-44c0 -36 9 -41 76 -43h18v-36h-267v36h4c43 1 63 5 70 14c4 5 5 11 6 26v47v239c0 43 -5 49 -43 50h-41v43z" />
    <glyph glyph-name="s" unicode="s" horiz-adv-x="463" 
d="M390 477v-168h-35c-16 46 -27 66 -49 88c-28 27 -59 40 -97 40c-55 0 -93 -28 -93 -69c0 -22 13 -43 35 -53c18 -10 18 -10 73 -22l50 -11c61 -13 81 -21 105 -42c28 -23 42 -57 42 -101c0 -93 -65 -154 -163 -154c-51 0 -96 16 -137 49l-35 -41h-35v189h40
c24 -100 84 -154 169 -154c58 0 99 33 99 80c0 40 -28 60 -107 79l-53 12c-60 14 -83 24 -106 45c-22 20 -35 53 -35 92c0 88 58 145 146 145c50 0 86 -12 122 -40l29 36h35z" />
    <glyph glyph-name="t" unicode="t" horiz-adv-x="389" 
d="M194 466h147v-43h-147v-273c0 -36 3 -61 9 -75c7 -17 27 -29 50 -29c49 0 75 46 78 136h42c1 -10 1 -17 1 -23c0 -106 -58 -174 -148 -174c-58 0 -98 23 -114 65c-10 23 -12 48 -12 118v255h-82v39c81 6 125 72 135 202h41v-198z" />
    <glyph glyph-name="u" unicode="u" horiz-adv-x="611" 
d="M412 -7v83c-44 -64 -90 -91 -156 -91c-60 0 -108 23 -135 64c-15 23 -19 46 -19 97v216c0 43 -5 49 -43 50h-38v43l175 11v-305c0 -55 2 -65 15 -84c13 -20 39 -31 70 -31c49 0 89 25 110 70c15 32 21 66 21 123v123c0 43 -5 49 -43 50h-51v43l188 11v-350
c0 -65 5 -71 63 -73h25v-43z" />
    <glyph glyph-name="v" unicode="v" horiz-adv-x="537" 
d="M295 121l92 232c6 15 9 30 9 42c0 23 -19 35 -54 35h-14v36h200v-36h-4c-41 -3 -65 -26 -93 -94l-142 -351h-35l-172 402c-14 33 -28 43 -66 43h-8v36h236v-36h-14c-41 0 -54 -6 -54 -23c0 -6 2 -14 5 -22z" />
    <glyph glyph-name="w" unicode="w" horiz-adv-x="778" 
d="M547 129l85 228c5 13 8 26 8 36c0 27 -14 37 -49 37h-17v36h189v-36h-7c-37 -1 -52 -17 -74 -76l-140 -369h-31l-122 316l-119 -316h-35l-150 396c-11 36 -24 48 -52 49h-18v36h220v-36h-18c-30 0 -41 -6 -41 -23c0 -6 2 -15 4 -22l97 -251l88 233l-8 26
c-8 28 -21 36 -53 37h-17v36h224v-36h-24c-33 0 -42 -5 -42 -23c0 -8 1 -14 4 -21z" />
    <glyph glyph-name="x" unicode="x" horiz-adv-x="537" 
d="M309 255l126 -170c29 -36 52 -49 87 -49h7v-36h-252v36h7c38 0 53 5 53 18c0 7 -6 20 -13 30l-76 101l-84 -100c-5 -6 -8 -15 -8 -22c0 -9 6 -18 14 -23c7 -3 12 -4 35 -4h15v-36h-211v36h6c27 -1 56 15 90 53l115 134l-122 153c-32 42 -46 51 -83 54v36h237v-36h-14
c-31 0 -44 -5 -44 -18c0 -6 4 -14 10 -22l77 -98l63 76c13 16 20 30 20 40c0 15 -15 22 -45 22h-19v36h207v-36h-9c-27 0 -50 -13 -75 -42z" />
    <glyph glyph-name="y" unicode="y" horiz-adv-x="537" 
d="M300 127l91 226c7 17 10 29 10 40c0 26 -16 37 -54 37h-16v36h200v-36h-6c-39 -1 -61 -23 -84 -81l-114 -283c-44 -109 -64 -151 -95 -192c-40 -54 -85 -80 -138 -80s-91 32 -91 77c0 36 25 62 60 62c30 0 51 -19 51 -45c0 -8 -2 -17 -5 -26c-1 -4 -2 -7 -2 -9
c0 -6 7 -10 16 -10c32 0 79 53 115 129l17 35l-163 369c-21 43 -34 53 -68 54h-11v36h238v-36h-21c-34 0 -46 -7 -46 -26c0 -5 2 -10 6 -20z" />
    <glyph glyph-name="z" unicode="z" horiz-adv-x="481" 
d="M428 466v-36l-273 -387h102c89 -1 128 38 138 136h40l-7 -179h-389v36l273 387h-87c-80 1 -119 -37 -127 -126h-40l9 169h361z" />
    <glyph glyph-name="braceleft" unicode="{" horiz-adv-x="333" 
d="M66 291v32c67 21 78 41 76 133v116c-1 111 29 146 129 150h26v-34c-62 -2 -81 -31 -81 -126v-130c-2 -72 -15 -95 -67 -125c52 -30 65 -52 67 -125v-130c0 -95 19 -124 81 -126v-34h-26c-100 4 -130 39 -129 150v116c2 92 -9 112 -76 133z" />
    <glyph glyph-name="bar" unicode="|" horiz-adv-x="606" 
d="M342 722v-966h-78v966h78z" />
    <glyph glyph-name="braceright" unicode="}" horiz-adv-x="333" 
d="M267 323v-32c-67 -21 -79 -41 -77 -133v-116c1 -110 -29 -145 -129 -150h-25v34c62 2 80 31 80 126v130c2 73 14 95 67 125c-52 30 -65 53 -67 125v130c0 95 -18 124 -80 126v34h25c100 -5 130 -39 129 -150v-116c-2 -92 10 -112 77 -133z" />
    <glyph glyph-name="asciitilde" unicode="~" horiz-adv-x="606" 
d="M104 182l-53 38c37 65 92 107 140 107c26 0 45 -6 99 -32l46 -22c56 -27 60 -28 80 -28c28 0 59 23 86 65l53 -38c-37 -65 -92 -107 -140 -107c-26 0 -49 8 -99 31l-46 23c-58 27 -60 28 -80 28c-28 0 -58 -23 -86 -65z" />
    <glyph glyph-name="uni00A0" unicode="&#xa0;" horiz-adv-x="278" 
 />
    <glyph glyph-name="exclamdown" unicode="&#xa1;" horiz-adv-x="296" 
d="M129 343h39c2 -180 5 -226 24 -320c14 -69 18 -101 18 -131c0 -62 -21 -94 -62 -94s-61 31 -61 95c0 30 4 61 18 130c19 94 23 143 24 320zM149 549c34 0 62 -28 62 -63c0 -34 -28 -62 -63 -62c-34 0 -62 28 -62 62c0 35 28 63 63 63z" />
    <glyph glyph-name="cent" unicode="&#xa2;" horiz-adv-x="556" 
d="M241 -9l-52 -132h-43l57 145c-83 36 -132 117 -132 220c0 151 97 257 236 257c30 0 54 -4 78 -13l46 117h43l-53 -135c28 -20 49 -58 49 -90c0 -35 -30 -65 -65 -65c-16 0 -27 4 -39 15l-99 -254c21 -7 27 -8 45 -8c61 0 101 31 128 99l39 -14
c-33 -98 -96 -148 -186 -148c-18 0 -34 2 -52 6zM231 76l136 345c-12 11 -31 17 -56 17c-85 0 -136 -73 -136 -197c0 -77 19 -134 56 -165z" />
    <glyph glyph-name="sterling" unicode="&#xa3;" horiz-adv-x="556" 
d="M432 372v-47h-160c7 -34 10 -57 10 -87c0 -50 -9 -94 -27 -132c55 -26 84 -34 121 -34c65 0 98 24 126 90l35 -15c-24 -106 -81 -162 -166 -162c-50 0 -95 17 -153 59c-39 -42 -71 -59 -114 -59c-51 0 -87 33 -87 79c0 52 38 87 94 87c26 0 46 -5 85 -23c5 20 7 30 7 44
c0 43 -8 82 -33 153h-134v47h120c-21 72 -25 96 -25 134c0 119 80 198 198 198c103 0 177 -60 177 -142c0 -50 -29 -84 -72 -84c-35 0 -60 25 -60 59c0 28 11 41 47 59c11 5 15 10 15 17c0 24 -45 48 -92 48c-71 0 -114 -44 -114 -118c0 -25 1 -34 17 -104
c4 -15 9 -35 16 -67h169zM178 75c-33 26 -53 35 -77 35c-23 0 -43 -19 -43 -42c0 -24 21 -43 49 -43c30 0 50 14 71 50z" />
    <glyph glyph-name="currency" unicode="&#xa4;" horiz-adv-x="556" 
d="M426 544l53 53l51 -52l-53 -52c35 -47 52 -97 52 -151s-17 -103 -50 -147l51 -51l-51 -51l-51 51c-44 -33 -94 -50 -147 -50s-108 19 -151 52l-53 -53l-51 51l53 53c-34 46 -52 97 -52 151c0 53 18 106 50 147l-51 50l51 52l51 -51c44 33 93 50 147 50s104 -17 151 -52z
M278 514c-93 0 -169 -75 -169 -169c0 -92 76 -169 167 -169c96 0 171 74 171 170c0 93 -75 168 -169 168z" />
    <glyph glyph-name="yen" unicode="&#xa5;" horiz-adv-x="556" 
d="M356 332h101v-47h-115v-86h115v-47h-115v-29c0 -51 0 -53 5 -62c6 -10 19 -13 63 -14h19v-47h-285v47h19c43 1 56 4 62 14c5 9 5 10 5 62v29h-116v47h116v86h-116v47h95l-137 297c-19 39 -26 45 -59 46h-14v47h233v-47h-24c-20 0 -28 -6 -28 -19c0 -7 3 -17 8 -28
l125 -271l92 221c8 19 12 37 12 53c0 31 -14 44 -47 44h-17v47h204v-47h-4c-47 -4 -68 -27 -100 -107z" />
    <glyph glyph-name="brokenbar" unicode="&#xa6;" horiz-adv-x="606" 
d="M342 722v-322h-78v322h78zM342 322v-322h-78v322h78z" />
    <glyph glyph-name="section" unicode="&#xa7;" horiz-adv-x="500" 
d="M242 538l110 -92c24 -20 49 -49 67 -76c21 -30 29 -56 29 -88c0 -79 -56 -140 -127 -140c-4 0 -10 0 -18 1c36 -29 40 -33 54 -47c30 -30 49 -73 49 -112c0 -76 -64 -132 -151 -132c-78 0 -143 51 -143 111c0 31 24 55 55 55c32 0 55 -21 55 -50c0 -19 -7 -30 -27 -45
c-5 -4 -8 -8 -8 -11c0 -14 31 -27 63 -27c51 0 87 29 87 69c0 35 -17 58 -91 119l-78 64c-80 66 -110 114 -110 179c0 73 55 130 125 130h17c-36 35 -41 39 -55 55c-26 30 -40 66 -40 103c0 77 61 132 148 132c76 0 141 -51 141 -110c0 -31 -24 -55 -55 -55
c-32 0 -55 21 -55 49c0 18 9 34 26 45c7 5 9 7 9 11c0 14 -30 27 -63 27c-47 0 -82 -30 -82 -70c0 -28 18 -53 68 -95zM196 419c-42 0 -72 -31 -72 -72c0 -37 15 -61 71 -112c51 -47 86 -67 119 -67c36 0 68 34 68 72c0 40 -28 81 -93 135c-35 29 -68 44 -93 44z" />
    <glyph glyph-name="dieresis" unicode="&#xa8;" horiz-adv-x="333" 
d="M67 644c27 0 50 -23 50 -50c0 -28 -22 -50 -51 -50c-26 0 -49 23 -49 50s23 50 50 50zM266 644c28 0 50 -22 50 -50s-22 -50 -51 -50c-26 0 -49 23 -49 50s23 50 50 50z" />
    <glyph glyph-name="copyright" unicode="&#xa9;" horiz-adv-x="737" 
d="M522 582l9 -181h-38c-26 100 -63 144 -125 144c-74 0 -112 -64 -112 -189c0 -119 38 -175 118 -175c70 0 110 41 125 129l40 -7c-14 -107 -73 -163 -171 -163c-117 0 -202 92 -202 219c0 125 90 227 201 227c39 0 60 -7 101 -35l21 31h33zM368 737
c207 0 376 -168 376 -375c0 -211 -168 -377 -381 -377c-202 0 -371 171 -371 376c0 207 169 376 376 376zM369 691c-181 0 -327 -148 -327 -330c0 -180 147 -330 323 -330c184 0 330 146 330 331c0 181 -146 329 -326 329z" />
    <glyph glyph-name="ordfeminine" unicode="&#xaa;" horiz-adv-x="334" 
d="M270 635v-121c0 -29 7 -41 24 -41c6 0 9 1 18 4c5 2 8 3 10 3c4 0 7 -3 7 -7c0 -17 -30 -35 -60 -35s-46 12 -56 42c-29 -30 -69 -47 -114 -47c-57 0 -94 27 -94 70c0 38 27 66 83 85c32 12 51 16 121 27v24c0 46 -20 65 -71 65c-31 0 -57 -10 -57 -23c0 -2 1 -4 4 -8
c7 -9 10 -16 10 -24c0 -19 -14 -31 -35 -31c-23 0 -38 14 -38 37c0 43 54 75 127 75c42 0 73 -8 95 -24c19 -14 26 -33 26 -71zM209 562v28c-106 -17 -138 -35 -138 -79c0 -27 21 -47 51 -47c28 0 57 15 74 37c11 16 13 24 13 61z" />
    <glyph glyph-name="guillemotleft" unicode="&#xab;" horiz-adv-x="426" 
d="M205 243l20 19c64 61 67 64 90 87c51 50 54 53 62 53c6 0 11 -5 11 -12c0 -9 -15 -33 -43 -72c-23 -30 -38 -51 -43 -59c-2 -2 -5 -8 -10 -16l10 -15c85 -122 85 -122 85 -132c0 -6 -5 -11 -11 -11c-7 0 -13 4 -23 15c-3 3 -21 21 -39 38l-48 47c-35 34 -39 37 -61 58z
M147 138l-48 47c-35 34 -39 37 -61 58c7 7 13 13 20 19c14 14 27 27 41 40l48 47c11 10 24 23 39 38c10 11 17 15 23 15s11 -5 11 -12c0 -8 -10 -26 -43 -72c-22 -31 -30 -42 -52 -75l10 -15c85 -122 85 -122 85 -132c0 -6 -5 -11 -11 -11c-7 0 -13 4 -23 15
c-3 3 -21 21 -39 38z" />
    <glyph glyph-name="logicalnot" unicode="&#xac;" horiz-adv-x="606" 
d="M51 293h504v-293h-80v213h-424v80z" />
    <glyph glyph-name="uni00AD" unicode="&#xad;" horiz-adv-x="333" 
d="M42 278h249v-83h-249v83z" />
    <glyph glyph-name="registered" unicode="&#xae;" horiz-adv-x="737" 
d="M313 365v-124c0 -25 0 -29 2 -31c2 -4 15 -5 42 -6h17v-41h-203v41h18c27 0 41 2 43 6c2 3 2 4 2 31v274c0 28 0 28 -2 32c-4 3 -15 5 -43 5h-18v41h207c101 0 159 -40 159 -110c0 -55 -30 -86 -102 -105c33 -17 47 -37 60 -84l9 -37c10 -40 12 -44 22 -44
c11 0 17 20 17 57h38v-13c0 -65 -28 -102 -78 -102s-73 28 -80 98l-4 30c-6 59 -26 80 -80 82h-26zM313 406h55c58 0 84 24 84 76c0 50 -21 70 -76 70h-31h-14c-18 0 -18 -1 -18 -26v-120zM368 737c207 0 376 -168 376 -375c0 -211 -168 -377 -381 -377
c-202 0 -371 171 -371 376c0 207 169 376 376 376zM369 691c-181 0 -328 -147 -328 -330c0 -180 147 -330 324 -330c184 0 330 146 330 331c0 181 -147 329 -326 329z" />
    <glyph glyph-name="macron" unicode="&#xaf;" horiz-adv-x="333" 
d="M10 622h313v-54h-313v54z" />
    <glyph glyph-name="degree" unicode="&#xb0;" horiz-adv-x="400" 
d="M204 686c82 0 146 -67 146 -153s-66 -153 -150 -153s-150 67 -150 154c0 85 67 152 154 152zM202 629c-54 0 -96 -42 -96 -97c0 -52 42 -95 94 -95s93 42 93 96c0 53 -41 96 -91 96z" />
    <glyph glyph-name="plusminus" unicode="&#xb1;" horiz-adv-x="606" 
d="M263 288h-212v80h212v213h80v-213h212v-80h-212v-175h-80v175zM51 0v80h504v-80h-504z" />
    <glyph glyph-name="uni00B2" unicode="&#xb2;" horiz-adv-x="333" 
d="M13 289v22c28 34 40 48 63 73c11 12 27 28 49 50c13 12 25 24 37 36c53 52 74 90 74 133c0 48 -30 76 -80 76c-44 0 -84 -27 -84 -57c0 -6 0 -6 23 -15c15 -6 25 -20 25 -37c0 -23 -18 -39 -43 -39c-32 0 -54 27 -54 66c0 65 63 115 146 115c84 0 145 -50 145 -119
c0 -57 -26 -90 -127 -163c-41 -30 -53 -40 -93 -78h136c37 0 40 3 48 39l7 33h34l-12 -135h-294z" />
    <glyph glyph-name="uni00B3" unicode="&#xb3;" horiz-adv-x="333" 
d="M138 527l25 -1c44 0 66 27 66 80c0 48 -23 73 -66 73c-33 0 -69 -16 -69 -30c0 -3 2 -5 6 -8c16 -10 21 -19 21 -33c0 -23 -17 -39 -41 -39c-26 0 -45 19 -45 45c0 56 58 98 134 98c81 0 133 -41 133 -105c0 -45 -27 -79 -76 -96c57 -17 88 -55 88 -108
c0 -73 -62 -122 -156 -122c-82 0 -140 41 -140 100c0 34 20 56 49 56c24 0 43 -17 43 -41c0 -18 -6 -26 -33 -41c-4 -2 -5 -4 -5 -6c0 -16 43 -35 79 -35c55 0 85 32 85 91c0 57 -23 86 -68 86c-5 0 -5 0 -30 -1h-16c-14 0 -22 7 -22 19s8 19 24 19c3 0 9 0 14 -1z" />
    <glyph glyph-name="acute" unicode="&#xb4;" horiz-adv-x="333" 
d="M91 535l140 140c25 25 34 31 50 31c20 0 35 -15 35 -35c0 -14 -10 -29 -25 -39l-159 -97h-41z" />
    <glyph glyph-name="mu" unicode="&#xb5;" horiz-adv-x="611" 
d="M412 -7v83c-43 -64 -90 -91 -154 -91c-50 0 -86 17 -117 54c0 -47 0 -51 12 -92c16 -58 19 -71 19 -92c0 -44 -20 -74 -49 -74c-30 0 -50 29 -50 72c0 23 1 28 17 91c8 31 12 54 12 76v342c0 43 -5 49 -43 50h-38v43l175 11v-305c0 -55 2 -65 15 -84
c13 -20 39 -31 70 -31c49 0 89 26 110 70c15 32 21 66 21 123v123c0 43 -5 49 -43 50h-51v43l188 11v-350c0 -65 5 -71 63 -73h25v-43z" />
    <glyph glyph-name="paragraph" unicode="&#xb6;" horiz-adv-x="606" 
d="M277 324h-30c-129 0 -198 69 -198 199c0 86 30 148 86 177c22 12 54 20 87 22h60h275v-36c-38 -2 -51 -5 -59 -14c-4 -5 -6 -11 -6 -25v-23v-25v-620v-44c0 -35 8 -40 65 -43v-36h-359v36h4c43 1 62 5 69 14c4 6 5 12 6 26v47v345zM277 357v329c-67 2 -92 -33 -92 -123
v-83c2 -86 28 -125 80 -123h12zM427 686h-85v-793h85v793z" />
    <glyph glyph-name="periodcentered" unicode="&#xb7;" horiz-adv-x="278" 
d="M139 309c34 0 62 -28 62 -62c0 -35 -28 -63 -63 -63c-34 0 -62 28 -62 63c0 34 28 62 63 62z" />
    <glyph glyph-name="cedilla" unicode="&#xb8;" horiz-adv-x="333" 
d="M150 0l-24 -63c14 2 20 3 29 3c49 0 82 -27 82 -68c0 -52 -49 -87 -120 -87c-32 0 -60 5 -88 17l14 33c24 -8 42 -12 61 -12c35 0 57 16 57 40c0 23 -19 39 -47 39c-10 0 -22 -2 -34 -6l-9 6l44 98h35z" />
    <glyph glyph-name="uni00B9" unicode="&#xb9;" horiz-adv-x="333" 
d="M181 712h28c-4 -44 -5 -70 -5 -102v-245c0 -28 0 -30 3 -34c4 -5 17 -7 49 -7h38v-35h-255v35h43c32 0 46 2 50 7c3 4 3 6 3 34v237c1 32 -1 34 -36 34h-59v33c61 1 117 18 141 43z" />
    <glyph glyph-name="ordmasculine" unicode="&#xba;" horiz-adv-x="300" 
d="M152 730c79 0 139 -66 139 -152s-58 -145 -143 -145c-82 0 -138 60 -138 148c0 85 61 149 142 149zM152 704c-51 0 -74 -39 -74 -125c0 -78 25 -120 72 -120c49 0 73 41 73 128c0 75 -25 117 -71 117z" />
    <glyph glyph-name="guillemotright" unicode="&#xbb;" horiz-adv-x="426" 
d="M112 349l48 -47c14 -13 27 -26 41 -40c7 -6 13 -12 20 -19c-7 -6 -13 -12 -20 -19c-13 -12 -26 -25 -41 -39l-48 -47c-18 -17 -37 -36 -39 -38c-10 -11 -16 -15 -23 -15c-6 0 -11 5 -11 11c0 10 0 10 85 132l10 15l-10 15c-85 123 -85 123 -85 133c0 6 5 11 11 11
c7 0 13 -4 23 -15c4 -4 21 -21 39 -38zM279 349l48 -47c14 -13 27 -26 41 -40c7 -6 13 -12 20 -19c-23 -21 -28 -26 -61 -58c-10 -10 -19 -19 -29 -28l-19 -19c-18 -17 -37 -36 -39 -38c-10 -11 -16 -15 -23 -15c-6 0 -11 5 -11 11c0 10 0 10 85 132l10 15l-10 15
c-85 123 -85 123 -85 133c0 6 5 11 11 11c7 0 13 -4 23 -15c4 -4 21 -21 39 -38z" />
    <glyph glyph-name="onequarter" unicode="&#xbc;" horiz-adv-x="834" 
d="M657 708h54l-502 -708h-54zM689 422h32c-3 -48 -3 -50 -3 -122v-157h77v-40h-77v-27c0 -29 0 -30 3 -34c6 -6 14 -7 57 -7v-35h-192v35h11c33 0 46 2 50 7c3 4 3 5 3 34v27h-177v37zM650 143v165l-127 -165h127zM181 712h28c-4 -44 -5 -70 -5 -102v-245
c0 -28 0 -30 3 -34c4 -5 17 -7 49 -7h38v-35h-255v35h43c32 0 46 2 50 7c3 4 3 6 3 34v237c1 32 -1 34 -36 34h-59v33c61 1 117 18 141 43z" />
    <glyph glyph-name="onehalf" unicode="&#xbd;" horiz-adv-x="834" 
d="M651 708h54l-502 -708h-54zM181 712h28c-4 -44 -5 -70 -5 -102v-245c0 -28 0 -30 3 -34c4 -5 17 -7 49 -7h38v-35h-255v35h43c32 0 46 2 50 7c3 4 3 6 3 34v237c1 32 -1 34 -36 34h-59v33c61 1 117 18 141 43zM515 0v22c28 35 40 48 63 73c11 12 40 41 86 87
c53 51 74 89 74 132c0 48 -30 76 -80 76c-44 0 -84 -27 -84 -57c0 -6 0 -6 23 -15c15 -6 25 -20 25 -37c0 -23 -18 -39 -43 -39c-32 0 -54 27 -54 66c0 65 63 115 146 115c84 0 145 -50 145 -119c0 -57 -25 -89 -127 -163c-41 -29 -53 -40 -93 -78h136c37 0 40 2 48 39l7 33
h34l-12 -135h-294z" />
    <glyph glyph-name="threequarters" unicode="&#xbe;" horiz-adv-x="834" 
d="M667 708h54l-502 -708h-54zM689 422h32c-2 -30 -2 -35 -2 -45c-1 -10 -1 -19 -1 -29v-48v-157h77v-40h-77v-27c0 -29 0 -30 3 -34c6 -6 14 -7 56 -7v-35h-191v35h11c33 0 46 2 50 7c3 4 3 5 3 34v27h-177v37zM650 143v165l-127 -165h127zM148 527l25 -1c44 0 66 27 66 80
c0 48 -23 73 -66 73c-33 0 -69 -16 -69 -30c0 -3 2 -5 6 -8c16 -10 21 -19 21 -33c0 -23 -17 -39 -41 -39c-26 0 -45 19 -45 45c0 56 58 98 134 98c81 0 133 -41 133 -105c0 -45 -27 -79 -76 -96c57 -17 88 -55 88 -108c0 -73 -62 -122 -156 -122c-82 0 -140 41 -140 100
c0 34 20 56 49 56c24 0 43 -17 43 -41c0 -18 -6 -26 -33 -41c-4 -2 -5 -4 -5 -6c0 -16 43 -35 79 -35c55 0 85 32 85 91c0 57 -23 86 -68 86c-5 0 -5 0 -30 -1h-16c-14 0 -22 7 -22 19s8 19 24 19c3 0 9 0 14 -1z" />
    <glyph glyph-name="questiondown" unicode="&#xbf;" horiz-adv-x="444" 
d="M224 343h44v-32c0 -48 -4 -73 -14 -101c-13 -35 -13 -35 -87 -136c-21 -29 -32 -67 -32 -108c0 -78 41 -123 112 -123c48 0 92 24 92 50c0 8 -1 10 -16 22c-19 16 -29 33 -29 54c0 30 25 54 56 54c38 0 66 -33 66 -77c0 -86 -81 -148 -195 -148s-191 70 -191 174
c0 70 22 105 120 191c64 55 75 82 74 180zM249 549c34 0 62 -28 62 -63c0 -34 -28 -62 -63 -62c-34 0 -62 28 -62 62c0 35 28 63 63 63z" />
    <glyph glyph-name="Agrave" unicode="&#xc0;" horiz-adv-x="722" 
d="M378 736l255 -625c23 -57 32 -63 84 -64h14v-47h-310v47h42c37 0 62 10 62 26c0 5 -2 11 -8 27l-54 134h-265l-33 -88c-6 -17 -9 -29 -9 -42c0 -38 27 -57 81 -57h20v-47h-265v47h4c57 4 83 28 110 106l230 583h42zM329 572l-111 -284h224zM427 787h-40l-159 100
c-16 10 -26 25 -26 39c0 19 15 34 35 34c15 0 28 -7 50 -30z" />
    <glyph glyph-name="Aacute" unicode="&#xc1;" horiz-adv-x="722" 
d="M378 736l255 -625c23 -57 32 -63 84 -64h14v-47h-310v47h42c37 0 62 10 62 26c0 5 -2 11 -8 27l-54 134h-265l-33 -88c-6 -17 -9 -29 -9 -42c0 -38 27 -57 81 -57h20v-47h-265v47h4c57 4 83 28 110 106l230 583h42zM329 572l-111 -284h224zM289 787l140 143
c23 23 35 30 50 30c20 0 35 -15 35 -34c0 -15 -10 -29 -25 -39l-159 -100h-41z" />
    <glyph glyph-name="Acircumflex" unicode="&#xc2;" horiz-adv-x="722" 
d="M378 736l255 -625c23 -57 32 -63 84 -64h14v-47h-310v47h42c37 0 62 10 62 26c0 5 -2 11 -8 27l-54 134h-265l-33 -88c-6 -17 -9 -29 -9 -42c0 -38 27 -57 81 -57h20v-47h-265v47h4c57 4 83 28 110 106l230 583h42zM329 572l-111 -284h224zM390 953l125 -166h-36
l-121 101l-121 -101h-35l124 166h64z" />
    <glyph glyph-name="Atilde" unicode="&#xc3;" horiz-adv-x="722" 
d="M378 736l255 -625c23 -57 32 -63 84 -64h14v-47h-310v47h42c37 0 62 10 62 26c0 5 -2 11 -8 27l-54 134h-265l-33 -88c-6 -17 -9 -29 -9 -42c0 -38 27 -57 81 -57h20v-47h-265v47h4c57 4 83 28 110 106l230 583h42zM329 572l-111 -284h224zM490 917h35
c-7 -64 -51 -108 -108 -108c-27 0 -38 4 -89 30c-18 9 -38 15 -52 15c-23 0 -40 -15 -47 -44h-35c13 63 51 102 100 102c24 0 30 -2 86 -27c35 -16 45 -19 59 -19c23 0 45 22 51 51z" />
    <glyph glyph-name="Adieresis" unicode="&#xc4;" horiz-adv-x="722" 
d="M378 736l255 -625c23 -57 32 -63 84 -64h14v-47h-310v47h42c37 0 62 10 62 26c0 5 -2 11 -8 27l-54 134h-265l-33 -88c-6 -17 -9 -29 -9 -42c0 -38 27 -57 81 -57h20v-47h-265v47h4c57 4 83 28 110 106l230 583h42zM329 572l-111 -284h224zM259 902c28 0 50 -22 50 -50
s-22 -50 -51 -50c-27 0 -49 23 -49 50c0 28 22 50 50 50zM458 902c28 0 50 -22 50 -50s-22 -50 -51 -50c-27 0 -49 23 -49 50c0 28 22 50 50 50z" />
    <glyph glyph-name="Aring" unicode="&#xc5;" horiz-adv-x="722" 
d="M378 736l255 -625c23 -57 32 -63 84 -64h14v-47h-310v47h42c37 0 62 10 62 26c0 5 -2 11 -8 27l-54 134h-265l-33 -88c-6 -17 -9 -29 -9 -42c0 -38 27 -57 81 -57h20v-47h-265v47h4c57 4 83 28 110 106l230 583h42zM329 572l-111 -284h224zM358 979c55 0 100 -45 100 -99
c0 -56 -45 -100 -101 -100c-53 0 -98 45 -98 100c0 54 45 99 99 99zM359 943c-36 0 -64 -28 -64 -63s29 -64 63 -64c36 0 64 28 64 64c0 35 -28 63 -63 63z" />
    <glyph glyph-name="AE" unicode="&#xc6;" 
d="M933 722l14 -255h-43c-33 175 -67 204 -237 208h-24c-55 -1 -64 -8 -63 -50v-228h13c95 1 134 39 140 137h47v-328h-47c-4 111 -41 148 -144 144h-9v-255c-3 -36 12 -46 72 -48h35c154 4 195 43 233 220h43l-20 -267h-584v47h19c56 0 76 4 84 14c6 9 6 12 6 62v146h-239
l-71 -130c-10 -19 -14 -33 -14 -46c0 -31 26 -46 78 -46h11v-47h-233v47c35 7 55 26 89 85l247 444c8 15 13 31 13 45c0 22 -13 40 -35 47c-17 6 -28 7 -63 7h-11v47h693zM468 323v324c-1 21 -2 24 -10 24c-6 0 -10 -4 -17 -18l-183 -330h210z" />
    <glyph glyph-name="Ccedilla" unicode="&#xc7;" horiz-adv-x="722" 
d="M346 -13l-19 -51c14 2 20 3 30 3c48 0 81 -28 81 -68c0 -52 -49 -87 -120 -87c-32 0 -60 5 -88 16l14 34c24 -8 42 -12 61 -12c35 0 57 16 57 40c0 23 -19 39 -47 39c-9 0 -20 -2 -34 -6l-8 5l39 92c-48 8 -88 26 -129 59c-90 69 -138 175 -138 303c0 103 30 187 94 263
c67 80 148 120 243 120c69 0 106 -14 179 -67l40 59h38l15 -289h-44c-24 79 -38 116 -57 149c-38 64 -100 101 -170 101c-65 0 -126 -35 -157 -91c-34 -60 -49 -135 -49 -249c0 -216 70 -318 218 -318c123 0 199 74 226 223l47 -8c-23 -167 -125 -262 -281 -262
c-11 0 -21 0 -41 2z" />
    <glyph glyph-name="Egrave" unicode="&#xc8;" horiz-adv-x="722" 
d="M630 722l14 -255h-43c-32 173 -73 209 -237 208h-52c-54 -1 -64 -8 -63 -50v-228h24c95 0 134 39 140 137h47v-328h-47c-4 111 -41 148 -144 144h-20v-255c-3 -36 12 -46 72 -48h66c153 4 194 42 232 220h44l-20 -267h-614v47h18c57 0 76 4 84 14c6 9 6 11 6 62v476
c0 51 0 53 -6 62c-8 10 -27 13 -84 14h-18v47h601zM458 787h-40l-159 100c-15 9 -25 25 -25 39c0 19 15 34 35 34c15 0 27 -7 49 -30z" />
    <glyph glyph-name="Eacute" unicode="&#xc9;" horiz-adv-x="722" 
d="M630 722l14 -255h-43c-32 173 -73 209 -237 208h-52c-54 -1 -64 -8 -63 -50v-228h24c95 0 134 39 140 137h47v-328h-47c-4 111 -41 148 -144 144h-20v-255c-3 -36 12 -46 72 -48h66c153 4 194 42 232 220h44l-20 -267h-614v47h18c57 0 76 4 84 14c6 9 6 11 6 62v476
c0 51 0 53 -6 62c-8 10 -27 13 -84 14h-18v47h601zM287 787l140 143c23 23 35 30 50 30c20 0 35 -15 35 -34c0 -15 -10 -29 -25 -39l-160 -100h-40z" />
    <glyph glyph-name="Ecircumflex" unicode="&#xca;" horiz-adv-x="722" 
d="M630 722l14 -255h-43c-32 173 -73 209 -237 208h-52c-54 -1 -64 -8 -63 -50v-228h24c95 0 134 39 140 137h47v-328h-47c-4 111 -41 148 -144 144h-20v-255c-3 -36 12 -46 72 -48h66c153 4 194 42 232 220h44l-20 -267h-614v47h18c57 0 76 4 84 14c6 9 6 11 6 62v476
c0 51 0 53 -6 62c-8 10 -27 13 -84 14h-18v47h601zM391 953l125 -166h-36l-121 101l-120 -101h-36l124 166h64z" />
    <glyph glyph-name="Edieresis" unicode="&#xcb;" horiz-adv-x="722" 
d="M630 722l14 -255h-43c-32 173 -73 209 -237 208h-52c-54 -1 -64 -8 -63 -50v-228h24c95 0 134 39 140 137h47v-328h-47c-4 111 -41 148 -144 144h-20v-255c-3 -36 12 -46 72 -48h66c153 4 194 42 232 220h44l-20 -267h-614v47h18c57 0 76 4 84 14c6 9 6 11 6 62v476
c0 51 0 53 -6 62c-8 10 -27 13 -84 14h-18v47h601zM260 902c28 0 50 -22 50 -50s-22 -50 -51 -50c-27 0 -49 23 -49 50c0 28 22 50 50 50zM459 902c28 0 50 -22 50 -50s-22 -50 -51 -50c-27 0 -49 23 -49 50c0 28 22 50 50 50z" />
    <glyph glyph-name="Igrave" unicode="&#xcc;" horiz-adv-x="407" 
d="M38 675v47h331v-47h-20c-57 -1 -75 -4 -83 -14c-6 -9 -6 -11 -6 -62v-476c0 -51 0 -53 6 -62c8 -11 27 -14 83 -14h20v-47h-331v47h20c57 0 76 4 84 14c6 9 6 12 6 62v476c0 50 0 53 -6 62c-8 10 -27 13 -84 14h-20zM269 787h-40l-159 100c-16 10 -26 25 -26 39
c0 19 15 34 35 34c15 0 28 -7 50 -30z" />
    <glyph glyph-name="Iacute" unicode="&#xcd;" horiz-adv-x="407" 
d="M38 675v47h331v-47h-20c-57 -1 -75 -4 -83 -14c-6 -9 -6 -11 -6 -62v-476c0 -51 0 -53 6 -62c8 -11 27 -14 83 -14h20v-47h-331v47h20c57 0 76 4 84 14c6 9 6 12 6 62v476c0 50 0 53 -6 62c-8 10 -27 13 -84 14h-20zM128 787l140 141c25 24 34 30 50 30
c20 0 35 -15 35 -35c0 -14 -10 -29 -25 -38l-159 -98h-41z" />
    <glyph glyph-name="Icircumflex" unicode="&#xce;" horiz-adv-x="407" 
d="M38 675v47h331v-47h-20c-57 -1 -75 -4 -83 -14c-6 -9 -6 -11 -6 -62v-476c0 -51 0 -53 6 -62c8 -11 27 -14 83 -14h20v-47h-331v47h20c57 0 76 4 84 14c6 9 6 12 6 62v476c0 50 0 53 -6 62c-8 10 -27 13 -84 14h-20zM235 953l125 -166h-36l-120 101l-121 -101h-36
l125 166h63z" />
    <glyph glyph-name="Idieresis" unicode="&#xcf;" horiz-adv-x="407" 
d="M38 675v47h331v-47h-20c-57 -1 -75 -4 -83 -14c-6 -9 -6 -11 -6 -62v-476c0 -51 0 -53 6 -62c8 -11 27 -14 83 -14h20v-47h-331v47h20c57 0 76 4 84 14c6 9 6 12 6 62v476c0 50 0 53 -6 62c-8 10 -27 13 -84 14h-20zM104 902c28 0 50 -22 50 -50s-22 -50 -51 -50
c-27 0 -49 23 -49 50c0 28 22 50 50 50zM303 902c28 0 50 -22 50 -50s-22 -50 -51 -50c-27 0 -49 23 -49 50c0 28 22 50 50 50z" />
    <glyph glyph-name="Eth" unicode="&#xd0;" horiz-adv-x="778" 
d="M137 350h-108v47h108v202c0 51 0 53 -6 62c-8 10 -27 13 -83 14h-19v47h318c114 0 189 -16 243 -51c90 -58 142 -172 142 -310c0 -146 -57 -261 -157 -317c-53 -30 -120 -44 -210 -44h-336v47h19c56 1 75 4 83 14c6 9 6 11 6 62v227zM249 350v-248c0 -49 6 -55 58 -55h67
c162 0 226 89 226 314c0 221 -71 314 -241 314h-52c-51 0 -58 -7 -58 -56v-222h180v-47h-180z" />
    <glyph glyph-name="Ntilde" unicode="&#xd1;" horiz-adv-x="815" 
d="M225 722l399 -531v314c0 136 -19 165 -115 170v47h285v-47c-97 -5 -116 -34 -116 -170v-519h-42l-446 602v-371c0 -136 19 -165 115 -170v-47h-285v47c97 5 116 34 116 170v425c-16 24 -35 31 -92 33h-25v47h206zM537 917h35c-6 -63 -51 -108 -108 -108
c-27 0 -38 4 -89 30c-18 9 -38 15 -52 15c-23 0 -40 -15 -47 -44h-35c13 63 51 102 100 102c24 0 30 -2 86 -27c35 -16 45 -19 59 -19c23 0 45 22 51 51z" />
    <glyph glyph-name="Ograve" unicode="&#xd2;" horiz-adv-x="778" 
d="M393 737c192 0 340 -164 340 -376c0 -214 -148 -376 -344 -376c-86 0 -162 29 -222 84c-76 70 -122 179 -122 291c0 114 45 222 122 293c61 56 137 84 226 84zM392 690c-75 0 -128 -28 -165 -86c-37 -60 -50 -120 -50 -241c0 -124 12 -185 50 -245c36 -57 91 -86 162 -86
s126 30 162 86c37 60 50 121 50 243c0 123 -13 184 -50 243c-36 55 -92 86 -159 86zM468 787h-40l-159 100c-15 9 -25 25 -25 39c0 19 15 34 34 34c16 0 27 -7 50 -30z" />
    <glyph glyph-name="Oacute" unicode="&#xd3;" horiz-adv-x="778" 
d="M393 737c192 0 340 -164 340 -376c0 -214 -148 -376 -344 -376c-86 0 -162 29 -222 84c-76 70 -122 179 -122 291c0 114 45 222 122 293c61 56 137 84 226 84zM392 690c-75 0 -128 -28 -165 -86c-37 -60 -50 -120 -50 -241c0 -124 12 -185 50 -245c36 -57 91 -86 162 -86
s126 30 162 86c37 60 50 121 50 243c0 123 -13 184 -50 243c-36 55 -92 86 -159 86zM317 787l140 143c22 23 34 30 50 30c20 0 35 -15 35 -34c0 -15 -10 -29 -26 -39l-159 -100h-40z" />
    <glyph glyph-name="Ocircumflex" unicode="&#xd4;" horiz-adv-x="778" 
d="M393 737c192 0 340 -164 340 -376c0 -214 -148 -376 -344 -376c-86 0 -162 29 -222 84c-76 70 -122 179 -122 291c0 114 45 222 122 293c61 56 137 84 226 84zM392 690c-75 0 -128 -28 -165 -86c-37 -60 -50 -120 -50 -241c0 -124 12 -185 50 -245c36 -57 91 -86 162 -86
s126 30 162 86c37 60 50 121 50 243c0 123 -13 184 -50 243c-36 55 -92 86 -159 86zM421 953l125 -166h-36l-121 101l-121 -101h-35l124 166h64z" />
    <glyph glyph-name="Otilde" unicode="&#xd5;" horiz-adv-x="778" 
d="M393 737c192 0 340 -164 340 -376c0 -214 -148 -376 -344 -376c-86 0 -162 29 -222 84c-76 70 -122 179 -122 291c0 114 45 222 122 293c61 56 137 84 226 84zM392 690c-75 0 -128 -28 -165 -86c-37 -60 -50 -120 -50 -241c0 -124 12 -185 50 -245c36 -57 91 -86 162 -86
s126 30 162 86c37 60 50 121 50 243c0 123 -13 184 -50 243c-36 55 -92 86 -159 86zM526 917h35c-6 -63 -51 -108 -108 -108c-26 0 -38 4 -89 30c-18 9 -37 15 -52 15c-23 0 -40 -15 -47 -44h-35c13 63 51 102 100 102c24 0 30 -2 86 -27c36 -16 45 -19 59 -19
c24 0 45 21 51 51z" />
    <glyph glyph-name="Odieresis" unicode="&#xd6;" horiz-adv-x="778" 
d="M393 737c192 0 340 -164 340 -376c0 -214 -148 -376 -344 -376c-86 0 -162 29 -222 84c-76 70 -122 179 -122 291c0 114 45 222 122 293c61 56 137 84 226 84zM392 690c-75 0 -128 -28 -165 -86c-37 -60 -50 -120 -50 -241c0 -124 12 -185 50 -245c36 -57 91 -86 162 -86
s126 30 162 86c37 60 50 121 50 243c0 123 -13 184 -50 243c-36 55 -92 86 -159 86zM290 902c28 0 50 -22 50 -50s-22 -50 -51 -50c-27 0 -49 23 -49 50c0 28 22 50 50 50zM489 902c28 0 50 -22 50 -50s-22 -50 -51 -50c-27 0 -49 23 -49 50c0 28 22 50 50 50z" />
    <glyph glyph-name="multiply" unicode="&#xd7;" horiz-adv-x="606" 
d="M303 196l-196 -195l-56 56l196 196l-196 195l56 57l196 -196l196 196l56 -57l-196 -195l196 -196l-56 -56z" />
    <glyph glyph-name="Oslash" unicode="&#xd8;" horiz-adv-x="778" 
d="M585 674l65 88h54l-86 -117c72 -72 115 -177 115 -278c0 -111 -54 -234 -133 -305c-54 -48 -134 -77 -213 -77c-77 0 -140 23 -204 73l-99 -134h-54l121 164c-66 69 -107 173 -107 272c0 111 51 226 132 297c60 53 133 80 214 80c73 0 135 -20 195 -63zM206 163l336 453
c-37 50 -88 74 -154 74c-140 0 -212 -115 -212 -337c0 -83 10 -144 30 -190zM566 575l-337 -455c37 -58 91 -88 161 -88c65 0 122 29 155 80c41 62 56 134 56 260c0 95 -10 151 -35 203z" />
    <glyph glyph-name="Ugrave" unicode="&#xd9;" horiz-adv-x="815" 
d="M514 675v47h285v-47c-97 -5 -117 -34 -116 -170v-227c0 -89 -12 -142 -44 -188c-48 -71 -126 -105 -239 -105s-201 37 -247 103c-19 28 -27 60 -30 113v69v329c0 51 0 53 -6 62c-8 10 -27 13 -83 14h-17v47h327v-47h-19c-57 -1 -76 -4 -84 -14c-6 -9 -6 -11 -6 -62v-335
c0 -93 5 -117 32 -154c33 -45 91 -71 160 -71c81 0 146 36 178 98c19 35 24 67 24 147v221c0 137 -19 165 -115 170zM501 787h-41l-159 100c-15 9 -25 25 -25 38c0 20 15 35 35 35c15 0 27 -7 49 -30z" />
    <glyph glyph-name="Uacute" unicode="&#xda;" horiz-adv-x="815" 
d="M514 675v47h285v-47c-97 -5 -117 -34 -116 -170v-227c0 -89 -12 -142 -44 -188c-48 -71 -126 -105 -239 -105s-201 37 -247 103c-19 28 -27 60 -30 113v69v329c0 51 0 53 -6 62c-8 10 -27 13 -83 14h-17v47h327v-47h-19c-57 -1 -76 -4 -84 -14c-6 -9 -6 -11 -6 -62v-335
c0 -93 5 -117 32 -154c33 -45 91 -71 160 -71c81 0 146 36 178 98c19 35 24 67 24 147v221c0 137 -19 165 -115 170zM346 787l140 143c22 23 34 30 50 30c20 0 35 -15 35 -34c0 -15 -10 -29 -26 -39l-159 -100h-40z" />
    <glyph glyph-name="Ucircumflex" unicode="&#xdb;" horiz-adv-x="815" 
d="M514 675v47h285v-47c-97 -5 -117 -34 -116 -170v-227c0 -89 -12 -142 -44 -188c-48 -71 -126 -105 -239 -105s-201 37 -247 103c-19 28 -27 60 -30 113v69v329c0 51 0 53 -6 62c-8 10 -27 13 -83 14h-17v47h327v-47h-19c-57 -1 -76 -4 -84 -14c-6 -9 -6 -11 -6 -62v-335
c0 -93 5 -117 32 -154c33 -45 91 -71 160 -71c81 0 146 36 178 98c19 35 24 67 24 147v221c0 137 -19 165 -115 170zM453 953l125 -166h-36l-121 101l-120 -101h-36l124 166h64z" />
    <glyph glyph-name="Udieresis" unicode="&#xdc;" horiz-adv-x="815" 
d="M514 675v47h285v-47c-97 -5 -117 -34 -116 -170v-227c0 -89 -12 -142 -44 -188c-48 -71 -126 -105 -239 -105s-201 37 -247 103c-19 28 -27 60 -30 113v69v329c0 51 0 53 -6 62c-8 10 -27 13 -83 14h-17v47h327v-47h-19c-57 -1 -76 -4 -84 -14c-6 -9 -6 -11 -6 -62v-335
c0 -93 5 -117 32 -154c33 -45 91 -71 160 -71c81 0 146 36 178 98c19 35 24 67 24 147v221c0 137 -19 165 -115 170zM322 902c28 0 50 -22 50 -50s-22 -50 -51 -50c-27 0 -49 23 -49 50c0 28 22 50 50 50zM521 902c28 0 50 -22 50 -50s-22 -50 -51 -50c-27 0 -49 23 -49 50
c0 28 22 50 50 50z" />
    <glyph glyph-name="Yacute" unicode="&#xdd;" horiz-adv-x="704" 
d="M389 357l124 221c10 17 16 37 16 52c0 32 -23 45 -77 45h-23v47h284v-47h-8c-64 -3 -95 -27 -138 -107l-149 -269v-176c0 -52 0 -53 6 -62c8 -10 26 -13 83 -14h26v-47h-343v47h26c57 0 76 4 84 14c6 9 6 11 6 62v164l-216 342c-24 39 -36 45 -81 46h-22v47h321v-47h-59
c-27 0 -39 -6 -39 -19c0 -7 3 -16 11 -28zM284 787l141 143c22 22 34 30 50 30c19 0 35 -15 35 -34c0 -14 -10 -29 -26 -39l-159 -100h-41z" />
    <glyph glyph-name="Thorn" unicode="&#xde;" horiz-adv-x="667" 
d="M28 675v47h331v-47h-20c-57 0 -74 -3 -83 -14c-6 -9 -6 -11 -6 -62v-25h66c118 0 172 -10 233 -43c66 -35 100 -87 100 -152c0 -66 -39 -128 -101 -160c-61 -31 -126 -43 -241 -43h-57v-53c0 -51 0 -53 6 -62c8 -10 27 -13 83 -14h20v-47h-331v47h20c57 0 76 4 84 14
c6 9 6 12 6 62v476c0 51 0 53 -6 62c-9 11 -27 14 -84 14h-20zM250 221h46c174 0 230 39 230 159c0 57 -18 97 -55 119c-35 22 -70 29 -148 29h-22c-45 2 -50 -4 -51 -52v-255z" />
    <glyph glyph-name="germandbls" unicode="&#xdf;" horiz-adv-x="574" 
d="M108 123v370c0 94 8 130 39 172c34 46 91 72 160 72c115 0 190 -68 190 -174c0 -69 -30 -112 -106 -151c40 -15 62 -27 84 -50c37 -39 60 -103 60 -168c0 -124 -67 -209 -164 -209c-73 0 -119 36 -119 92c0 37 22 61 55 61c31 0 54 -23 54 -53c0 -9 -2 -17 -7 -25
c-7 -14 -7 -15 -7 -21c0 -10 7 -16 19 -16c38 0 64 69 64 172c0 104 -26 165 -79 189c-13 6 -21 7 -54 9c-21 2 -28 7 -28 21c0 13 10 22 27 22h10c69 0 97 36 97 123c0 89 -34 136 -98 136c-65 0 -103 -50 -103 -138v-557h-173v36h4c43 1 62 5 69 14c4 5 5 11 6 26v47z" />
    <glyph glyph-name="agrave" unicode="&#xe0;" horiz-adv-x="556" 
d="M346 535h-40l-159 97c-16 10 -26 25 -26 39c0 20 15 35 35 35c16 0 25 -6 50 -31zM452 322v-201c0 -51 10 -69 38 -69c8 0 14 1 28 7c7 3 11 4 15 4c6 0 10 -5 10 -12c0 -29 -47 -58 -92 -58c-47 0 -72 20 -88 71c-43 -51 -105 -79 -174 -79c-89 0 -145 45 -145 117
c0 64 41 110 128 142c49 19 82 27 186 45v39c0 45 -7 69 -26 85c-16 15 -51 25 -83 25c-48 0 -88 -18 -88 -38c0 -5 1 -7 7 -14c10 -14 15 -28 15 -41c0 -30 -22 -51 -54 -51c-35 0 -58 24 -58 61c0 73 82 126 195 126c64 0 113 -13 146 -40c29 -24 40 -56 40 -119zM358 200
v46c-78 -13 -117 -23 -148 -37c-44 -21 -65 -51 -65 -93c0 -45 33 -78 79 -78c44 0 89 25 114 62c17 26 20 40 20 100z" />
    <glyph glyph-name="aacute" unicode="&#xe1;" horiz-adv-x="556" 
d="M201 535l141 140c25 26 34 31 49 31c20 0 35 -15 35 -35c0 -14 -10 -29 -25 -39l-159 -97h-41zM452 322v-201c0 -51 10 -69 38 -69c8 0 14 1 28 7c7 3 11 4 15 4c6 0 10 -5 10 -12c0 -29 -47 -58 -92 -58c-47 0 -72 20 -88 71c-43 -51 -105 -79 -174 -79
c-89 0 -145 45 -145 117c0 64 41 110 128 142c49 19 82 27 186 45v39c0 45 -7 69 -26 85c-16 15 -51 25 -83 25c-48 0 -88 -18 -88 -38c0 -5 1 -7 7 -14c10 -14 15 -28 15 -41c0 -30 -22 -51 -54 -51c-35 0 -58 24 -58 61c0 73 82 126 195 126c64 0 113 -13 146 -40
c29 -24 40 -56 40 -119zM358 200v46c-78 -13 -117 -23 -148 -37c-44 -21 -65 -51 -65 -93c0 -45 33 -78 79 -78c44 0 89 25 114 62c17 26 20 40 20 100z" />
    <glyph glyph-name="acircumflex" unicode="&#xe2;" horiz-adv-x="556" 
d="M306 701l124 -166h-35l-121 101l-121 -101h-36l125 166h64zM452 322v-201c0 -51 10 -69 38 -69c8 0 14 1 28 7c7 3 11 4 15 4c6 0 10 -5 10 -12c0 -29 -47 -58 -92 -58c-47 0 -72 20 -88 71c-43 -51 -105 -79 -174 -79c-89 0 -145 45 -145 117c0 64 41 110 128 142
c49 19 82 27 186 45v39c0 45 -7 69 -26 85c-16 15 -51 25 -83 25c-48 0 -88 -18 -88 -38c0 -5 1 -7 7 -14c10 -14 15 -28 15 -41c0 -30 -22 -51 -54 -51c-35 0 -58 24 -58 61c0 73 82 126 195 126c64 0 113 -13 146 -40c29 -24 40 -56 40 -119zM358 200v46
c-78 -13 -117 -23 -148 -37c-44 -21 -65 -51 -65 -93c0 -45 33 -78 79 -78c44 0 89 25 114 62c17 26 20 40 20 100z" />
    <glyph glyph-name="atilde" unicode="&#xe3;" horiz-adv-x="556" 
d="M404 659h35c-7 -63 -51 -106 -108 -106c-26 0 -37 4 -89 28c-18 9 -37 14 -52 14c-23 0 -40 -15 -47 -42h-35c13 62 51 101 101 101c23 0 30 -2 85 -27c35 -16 45 -19 59 -19c24 0 46 22 51 51zM452 322v-201c0 -51 10 -69 38 -69c8 0 14 1 28 7c7 3 11 4 15 4
c6 0 10 -5 10 -12c0 -29 -47 -58 -92 -58c-47 0 -72 20 -88 71c-43 -51 -105 -79 -174 -79c-89 0 -145 45 -145 117c0 64 41 110 128 142c49 19 82 27 186 45v39c0 45 -7 69 -26 85c-16 15 -51 25 -83 25c-48 0 -88 -18 -88 -38c0 -5 1 -7 7 -14c10 -14 15 -28 15 -41
c0 -30 -22 -51 -54 -51c-35 0 -58 24 -58 61c0 73 82 126 195 126c64 0 113 -13 146 -40c29 -24 40 -56 40 -119zM358 200v46c-78 -13 -117 -23 -148 -37c-44 -21 -65 -51 -65 -93c0 -45 33 -78 79 -78c44 0 89 25 114 62c17 26 20 40 20 100z" />
    <glyph glyph-name="adieresis" unicode="&#xe4;" horiz-adv-x="556" 
d="M174 644c27 0 50 -23 50 -50c0 -28 -22 -50 -51 -50c-26 0 -49 23 -49 50s23 50 50 50zM373 644c28 0 50 -22 50 -50s-22 -50 -51 -50c-26 0 -49 23 -49 50s23 50 50 50zM452 322v-201c0 -51 10 -69 38 -69c8 0 14 1 28 7c7 3 11 4 15 4c6 0 10 -5 10 -12
c0 -29 -47 -58 -92 -58c-47 0 -72 20 -88 71c-43 -51 -105 -79 -174 -79c-89 0 -145 45 -145 117c0 64 41 110 128 142c49 19 82 27 186 45v39c0 45 -7 69 -26 85c-16 15 -51 25 -83 25c-48 0 -88 -18 -88 -38c0 -5 1 -7 7 -14c10 -14 15 -28 15 -41c0 -30 -22 -51 -54 -51
c-35 0 -58 24 -58 61c0 73 82 126 195 126c64 0 113 -13 146 -40c29 -24 40 -56 40 -119zM358 200v46c-78 -13 -117 -23 -148 -37c-44 -21 -65 -51 -65 -93c0 -45 33 -78 79 -78c44 0 89 25 114 62c17 26 20 40 20 100z" />
    <glyph glyph-name="aring" unicode="&#xe5;" horiz-adv-x="556" 
d="M274 729c54 0 99 -45 99 -99c0 -56 -45 -100 -101 -100c-53 0 -98 45 -98 99c0 55 45 100 100 100zM274 693c-36 0 -64 -28 -64 -63s29 -64 63 -64c36 0 64 28 64 64c0 35 -28 63 -63 63zM452 322v-201c0 -51 10 -69 38 -69c8 0 14 1 28 7c7 3 11 4 15 4
c6 0 10 -5 10 -12c0 -29 -47 -58 -92 -58c-47 0 -72 20 -88 71c-43 -51 -105 -79 -174 -79c-89 0 -145 45 -145 117c0 64 41 110 128 142c49 19 82 27 186 45v39c0 45 -7 69 -26 85c-16 15 -51 25 -83 25c-48 0 -88 -18 -88 -38c0 -5 1 -7 7 -14c10 -14 15 -28 15 -41
c0 -30 -22 -51 -54 -51c-35 0 -58 24 -58 61c0 73 82 126 195 126c64 0 113 -13 146 -40c29 -24 40 -56 40 -119zM358 200v46c-78 -13 -117 -23 -148 -37c-44 -21 -65 -51 -65 -93c0 -45 33 -78 79 -78c44 0 89 25 114 62c17 26 20 40 20 100z" />
    <glyph glyph-name="ae" unicode="&#xe6;" horiz-adv-x="796" 
d="M723 146l36 -19c-45 -97 -110 -142 -205 -142c-58 0 -118 20 -156 53c-9 7 -15 14 -35 35c-52 -63 -103 -88 -179 -88c-90 0 -148 45 -148 114c0 66 39 115 118 145c51 20 76 26 183 45v47c0 74 -26 102 -96 102c-48 0 -87 -17 -87 -38c0 -5 1 -7 7 -14
c10 -13 15 -27 15 -41c0 -30 -22 -51 -54 -51c-36 0 -59 24 -59 61c0 71 83 126 190 126c69 0 125 -21 154 -57c41 38 91 57 146 57c121 0 205 -105 205 -256h-325c1 -60 7 -91 24 -120c27 -45 65 -66 116 -66c66 0 109 30 150 107zM337 193v53c-82 -14 -113 -22 -141 -37
c-40 -22 -59 -51 -59 -89c0 -49 31 -83 75 -83c41 0 82 22 105 55c17 25 20 39 20 101zM434 268h175c32 0 41 8 41 37c0 79 -40 132 -101 132c-48 0 -81 -29 -101 -89c-10 -27 -14 -50 -14 -80z" />
    <glyph glyph-name="ccedilla" unicode="&#xe7;" horiz-adv-x="444" 
d="M242 -15l-19 -48c14 2 20 3 29 3c49 0 82 -27 82 -68c0 -52 -49 -87 -120 -87c-32 0 -60 5 -88 17l15 33c23 -8 41 -12 61 -12c34 0 56 16 56 40c0 23 -19 39 -48 39c-9 0 -19 -2 -33 -5l-8 5l37 86c-104 17 -172 111 -172 237c0 150 93 256 223 256
c89 0 156 -51 156 -119c0 -40 -25 -68 -61 -68c-35 0 -60 23 -60 56c0 17 4 27 20 46c5 6 6 9 6 12c0 16 -26 30 -56 30c-74 0 -123 -80 -123 -202c0 -117 50 -190 130 -190c52 0 86 29 118 101l39 -15c-40 -103 -96 -147 -184 -147z" />
    <glyph glyph-name="egrave" unicode="&#xe8;" horiz-adv-x="500" 
d="M465 225h-324c-1 -55 7 -90 25 -120c26 -45 63 -66 114 -66c67 0 109 30 150 107l35 -19c-41 -95 -108 -142 -204 -142c-135 0 -226 94 -226 235c0 150 96 261 224 261c122 0 207 -106 206 -256zM142 268h175c32 0 41 8 41 36c0 81 -40 134 -100 134
c-49 0 -81 -29 -102 -89c-10 -28 -14 -50 -14 -81zM336 535h-41l-159 97c-15 10 -25 25 -25 39c0 20 15 35 35 35c15 0 25 -6 50 -31z" />
    <glyph glyph-name="eacute" unicode="&#xe9;" horiz-adv-x="500" 
d="M465 225h-324c-1 -55 7 -90 25 -120c26 -45 63 -66 114 -66c67 0 109 30 150 107l35 -19c-41 -95 -108 -142 -204 -142c-135 0 -226 94 -226 235c0 150 96 261 224 261c122 0 207 -106 206 -256zM142 268h175c32 0 41 8 41 36c0 81 -40 134 -100 134
c-49 0 -81 -29 -102 -89c-10 -28 -14 -50 -14 -81zM184 535l141 140c24 25 34 31 50 31c20 0 35 -15 35 -35c0 -14 -10 -29 -26 -39l-159 -97h-41z" />
    <glyph glyph-name="ecircumflex" unicode="&#xea;" horiz-adv-x="500" 
d="M465 225h-324c-1 -55 7 -90 25 -120c26 -45 63 -66 114 -66c67 0 109 30 150 107l35 -19c-41 -95 -108 -142 -204 -142c-135 0 -226 94 -226 235c0 150 96 261 224 261c122 0 207 -106 206 -256zM142 268h175c32 0 41 8 41 36c0 81 -40 134 -100 134
c-49 0 -81 -29 -102 -89c-10 -28 -14 -50 -14 -81zM289 701l124 -166h-35l-121 101l-121 -101h-36l125 166h64z" />
    <glyph glyph-name="edieresis" unicode="&#xeb;" horiz-adv-x="500" 
d="M465 225h-324c-1 -55 7 -90 25 -120c26 -45 63 -66 114 -66c67 0 109 30 150 107l35 -19c-41 -95 -108 -142 -204 -142c-135 0 -226 94 -226 235c0 150 96 261 224 261c122 0 207 -106 206 -256zM142 268h175c32 0 41 8 41 36c0 81 -40 134 -100 134
c-49 0 -81 -29 -102 -89c-10 -28 -14 -50 -14 -81zM158 644c27 0 50 -23 50 -50c0 -28 -22 -50 -51 -50c-26 0 -49 23 -49 50s23 50 50 50zM357 644c28 0 50 -22 50 -50s-22 -50 -51 -50c-26 0 -49 23 -49 50s23 50 50 50z" />
    <glyph glyph-name="igrave" unicode="&#xec;" horiz-adv-x="315" 
d="M206 466v-343v-44c0 -36 9 -41 76 -43h7v-36h-259v36h7c43 1 62 5 69 14c4 5 5 12 6 26v23v24v239c0 43 -5 49 -43 50h-51v43zM233 535h-41l-159 97c-15 10 -25 25 -25 39c0 20 15 35 35 35c16 0 25 -6 50 -31z" />
    <glyph glyph-name="iacute" unicode="&#xed;" horiz-adv-x="315" 
d="M206 466v-343v-44c0 -36 9 -41 76 -43h7v-36h-259v36h7c43 1 62 5 69 14c4 5 5 12 6 26v23v24v239c0 43 -5 49 -43 50h-51v43zM82 535l140 140c26 26 34 31 50 31c20 0 35 -15 35 -35c0 -14 -10 -29 -25 -39l-159 -97h-41z" />
    <glyph glyph-name="icircumflex" unicode="&#xee;" horiz-adv-x="315" 
d="M207 466v-343v-44c0 -36 9 -41 76 -43h7v-36h-259v36h7c43 1 62 5 69 14c4 5 5 12 6 26v23v24v239c0 43 -5 49 -43 50h-51v43zM186 701l125 -166h-36l-120 101l-121 -101h-36l125 166h63z" />
    <glyph glyph-name="idieresis" unicode="&#xef;" horiz-adv-x="315" 
d="M210 466v-343v-44c0 -36 9 -41 76 -43h7v-36h-259v36h7c43 1 62 5 69 14c4 5 5 11 6 26v47v239c0 43 -5 49 -43 50h-51v43zM58 644c27 0 50 -23 50 -50c0 -28 -22 -50 -51 -50c-26 0 -49 23 -49 50s23 50 50 50zM257 644c28 0 50 -22 50 -50s-22 -50 -51 -50
c-26 0 -49 23 -49 50s23 50 50 50z" />
    <glyph glyph-name="eth" unicode="&#xf0;" horiz-adv-x="500" 
d="M339 694l-105 -62c77 -56 115 -94 153 -148c52 -73 79 -159 79 -248c0 -141 -95 -251 -216 -251c-120 0 -216 110 -216 248c0 139 96 248 217 248c16 0 28 -1 43 -5c-37 45 -45 54 -119 121l-118 -68l-23 38l102 59c-31 22 -34 24 -91 60l26 39c51 -24 78 -38 121 -66
l122 72zM252 438c-75 0 -113 -70 -113 -206c0 -132 39 -204 111 -204s111 72 111 205c0 132 -39 205 -109 205z" />
    <glyph glyph-name="ntilde" unicode="&#xf1;" horiz-adv-x="611" 
d="M200 466v-81c44 66 93 96 158 96c60 0 110 -29 135 -77c18 -34 21 -52 21 -124v-157v-44c0 -36 9 -41 75 -43h4v-36h-253v36h4c43 1 63 5 70 14c4 5 5 11 6 26v47v162c0 48 -7 78 -22 100c-15 21 -45 35 -71 35c-43 0 -88 -31 -109 -76c-11 -23 -18 -68 -18 -117v-104
v-44c0 -36 9 -41 76 -43h4v-36h-253v36h4c43 1 62 5 69 14c4 5 5 11 6 26v23v24v239c0 43 -5 49 -43 50h-36v43zM437 659h35c-7 -63 -51 -106 -108 -106c-26 0 -38 4 -89 28c-18 9 -37 14 -52 14c-23 0 -40 -15 -47 -42h-35c13 62 51 101 100 101c24 0 30 -2 86 -27
c35 -16 45 -19 59 -19c24 0 46 22 51 51z" />
    <glyph glyph-name="ograve" unicode="&#xf2;" horiz-adv-x="500" 
d="M252 481c118 0 214 -111 214 -248c0 -138 -96 -248 -216 -248s-216 110 -216 247c0 140 95 249 218 249zM252 438c-75 0 -113 -70 -113 -206c0 -132 39 -204 111 -204s111 72 111 205c0 132 -39 205 -109 205zM326 535h-41l-159 97c-15 10 -25 25 -25 39
c0 20 15 35 35 35c15 0 25 -6 49 -31z" />
    <glyph glyph-name="oacute" unicode="&#xf3;" horiz-adv-x="500" 
d="M252 481c118 0 214 -111 214 -248c0 -138 -96 -248 -216 -248s-216 110 -216 247c0 140 95 249 218 249zM252 438c-75 0 -113 -70 -113 -206c0 -132 39 -204 111 -204s111 72 111 205c0 132 -39 205 -109 205zM184 535l141 140c24 25 34 31 50 31c20 0 35 -15 35 -35
c0 -14 -10 -29 -26 -39l-159 -97h-41z" />
    <glyph glyph-name="ocircumflex" unicode="&#xf4;" horiz-adv-x="500" 
d="M252 481c118 0 214 -111 214 -248c0 -138 -96 -248 -216 -248s-216 110 -216 247c0 140 95 249 218 249zM252 438c-75 0 -113 -70 -113 -206c0 -132 39 -204 111 -204s111 72 111 205c0 132 -39 205 -109 205zM282 701l125 -166h-36l-121 101l-121 -101h-35l124 166h64z
" />
    <glyph glyph-name="otilde" unicode="&#xf5;" horiz-adv-x="500" 
d="M252 481c118 0 214 -111 214 -248c0 -138 -96 -248 -216 -248s-216 110 -216 247c0 140 95 249 218 249zM252 438c-75 0 -113 -70 -113 -206c0 -132 39 -204 111 -204s111 72 111 205c0 132 -39 205 -109 205zM387 659h35c-7 -63 -51 -106 -108 -106c-26 0 -38 4 -89 28
c-18 9 -37 14 -52 14c-23 0 -40 -15 -47 -42h-35c13 62 51 101 100 101c24 0 30 -2 86 -27c35 -16 45 -19 59 -19c24 0 46 22 51 51z" />
    <glyph glyph-name="odieresis" unicode="&#xf6;" horiz-adv-x="500" 
d="M252 481c118 0 214 -111 214 -248c0 -138 -96 -248 -216 -248s-216 110 -216 247c0 140 95 249 218 249zM252 438c-75 0 -113 -70 -113 -206c0 -132 39 -204 111 -204s111 72 111 205c0 132 -39 205 -109 205zM151 644c27 0 50 -23 50 -50c0 -28 -22 -50 -51 -50
c-26 0 -49 23 -49 50s23 50 50 50zM350 644c28 0 50 -22 50 -50s-22 -50 -51 -50c-26 0 -49 23 -49 50s23 50 50 50z" />
    <glyph glyph-name="divide" unicode="&#xf7;" horiz-adv-x="606" 
d="M303 115c33 0 61 -28 61 -62s-28 -62 -61 -62c-35 0 -62 28 -62 62c0 35 28 62 62 62zM303 515c33 0 61 -28 61 -62s-28 -62 -61 -62c-35 0 -62 28 -62 62c0 35 28 62 62 62zM51 213v80h504v-80h-504z" />
    <glyph glyph-name="oslash" unicode="&#xf8;" horiz-adv-x="500" 
d="M341 458l50 97h50l-63 -121c55 -48 88 -125 88 -206c0 -143 -90 -243 -219 -243c-34 0 -64 6 -89 19l-49 -95h-50l61 119c-55 48 -86 121 -86 204c0 139 95 249 216 249c32 0 60 -7 91 -23zM158 102l158 307c-21 21 -39 29 -65 29c-74 0 -112 -70 -112 -209
c0 -54 6 -91 19 -127zM343 364l-158 -307c17 -20 38 -29 64 -29c74 0 112 73 112 215c0 47 -6 85 -18 121z" />
    <glyph glyph-name="ugrave" unicode="&#xf9;" horiz-adv-x="611" 
d="M412 -7v83c-44 -64 -90 -91 -156 -91c-60 0 -108 23 -135 64c-15 23 -19 46 -19 97v216c0 43 -5 49 -43 50h-38v43l175 11v-305c0 -55 2 -65 15 -84c13 -20 39 -31 70 -31c49 0 89 25 110 70c15 32 21 66 21 123v123c0 43 -5 49 -43 50h-51v43l188 11v-350
c0 -65 5 -71 63 -73h25v-43zM373 535h-40l-159 97c-16 10 -26 25 -26 39c0 20 15 35 35 35c16 0 25 -6 50 -31z" />
    <glyph glyph-name="uacute" unicode="&#xfa;" horiz-adv-x="611" 
d="M412 -7v83c-44 -64 -90 -91 -156 -91c-60 0 -108 23 -135 64c-15 23 -19 46 -19 97v216c0 43 -5 49 -43 50h-38v43l175 11v-305c0 -55 2 -65 15 -84c13 -20 39 -31 70 -31c49 0 89 25 110 70c15 32 21 66 21 123v123c0 43 -5 49 -43 50h-51v43l188 11v-350
c0 -65 5 -71 63 -73h25v-43zM235 535l140 140c25 25 34 31 50 31c20 0 35 -15 35 -35c0 -14 -10 -29 -25 -39l-159 -97h-41z" />
    <glyph glyph-name="ucircumflex" unicode="&#xfb;" horiz-adv-x="611" 
d="M412 -7v83c-44 -64 -90 -91 -156 -91c-60 0 -108 23 -135 64c-15 23 -19 46 -19 97v216c0 43 -5 49 -43 50h-38v43l175 11v-305c0 -55 2 -65 15 -84c13 -20 39 -31 70 -31c49 0 89 25 110 70c15 32 21 66 21 123v123c0 43 -5 49 -43 50h-51v43l188 11v-350
c0 -65 5 -71 63 -73h25v-43zM333 701l124 -166h-35l-121 101l-121 -101h-36l125 166h64z" />
    <glyph glyph-name="udieresis" unicode="&#xfc;" horiz-adv-x="611" 
d="M412 -7v83c-44 -64 -90 -91 -156 -91c-60 0 -108 23 -135 64c-15 23 -19 46 -19 97v216c0 43 -5 49 -43 50h-38v43l175 11v-305c0 -55 2 -65 15 -84c13 -20 39 -31 70 -31c49 0 89 25 110 70c15 32 21 66 21 123v123c0 43 -5 49 -43 50h-51v43l188 11v-350
c0 -65 5 -71 63 -73h25v-43zM201 644c27 0 50 -23 50 -50c0 -28 -22 -50 -51 -50c-26 0 -49 23 -49 50s23 50 50 50zM400 644c28 0 50 -22 50 -50s-22 -50 -51 -50c-26 0 -49 23 -49 50s23 50 50 50z" />
    <glyph glyph-name="yacute" unicode="&#xfd;" horiz-adv-x="537" 
d="M300 127l91 226c7 17 10 29 10 40c0 26 -16 37 -54 37h-16v36h200v-36h-6c-39 -1 -61 -23 -84 -81l-114 -283c-44 -109 -64 -151 -95 -192c-40 -54 -85 -80 -138 -80s-91 32 -91 77c0 36 25 62 60 62c30 0 51 -19 51 -45c0 -8 -2 -17 -5 -26c-1 -4 -2 -7 -2 -9
c0 -6 7 -10 16 -10c32 0 79 53 115 129l17 35l-163 369c-21 43 -34 53 -68 54h-11v36h238v-36h-21c-34 0 -46 -7 -46 -26c0 -5 2 -10 6 -20zM193 535l140 140c25 25 34 31 50 31c20 0 35 -15 35 -35c0 -14 -10 -29 -25 -39l-159 -97h-41z" />
    <glyph glyph-name="thorn" unicode="&#xfe;" horiz-adv-x="574" 
d="M201 737v-343c36 62 76 87 138 87c56 0 102 -24 139 -72s57 -109 57 -174s-20 -127 -55 -175c-36 -49 -86 -75 -147 -75c-62 0 -99 23 -132 81v-145v-44c0 -36 9 -41 76 -43h11v-36h-260v36h4c43 1 62 5 69 14c4 5 5 11 6 25v48v712c0 43 -5 49 -43 50h-36v44zM321 427
c-76 0 -121 -75 -121 -199c0 -115 46 -189 118 -189s112 73 112 202c0 117 -40 186 -109 186z" />
    <glyph glyph-name="ydieresis" unicode="&#xff;" horiz-adv-x="537" 
d="M300 127l91 226c7 17 10 29 10 40c0 26 -16 37 -54 37h-16v36h200v-36h-6c-39 -1 -61 -23 -84 -81l-114 -283c-44 -109 -64 -151 -95 -192c-40 -54 -85 -80 -138 -80s-91 32 -91 77c0 36 25 62 60 62c30 0 51 -19 51 -45c0 -8 -2 -17 -5 -26c-1 -4 -2 -7 -2 -9
c0 -6 7 -10 16 -10c32 0 79 53 115 129l17 35l-163 369c-21 43 -34 53 -68 54h-11v36h238v-36h-21c-34 0 -46 -7 -46 -26c0 -5 2 -10 6 -20zM175 644c27 0 50 -23 50 -50c0 -28 -22 -50 -51 -50c-26 0 -49 23 -49 50s23 50 50 50zM374 644c28 0 50 -22 50 -50
s-22 -50 -51 -50c-26 0 -49 23 -49 50s23 50 50 50z" />
    <glyph glyph-name="Amacron" unicode="&#x100;" horiz-adv-x="722" 
d="M378 736l255 -625c23 -57 32 -63 84 -64h14v-47h-310v47h42c37 0 62 10 62 26c0 5 -2 11 -8 27l-54 134h-265l-33 -88c-6 -17 -9 -29 -9 -42c0 -38 27 -57 81 -57h20v-47h-265v47h4c57 4 83 28 110 106l230 583h42zM329 572l-111 -284h224zM205 874h313v-54h-313v54z" />
    <glyph glyph-name="amacron" unicode="&#x101;" horiz-adv-x="556" 
d="M452 322v-201c0 -51 10 -69 38 -69c8 0 14 1 28 7c7 3 11 4 15 4c6 0 10 -5 10 -12c0 -29 -47 -58 -92 -58c-47 0 -72 20 -88 71c-43 -51 -105 -79 -174 -79c-89 0 -145 45 -145 117c0 64 41 110 128 142c49 19 82 27 186 45v39c0 45 -7 69 -26 85c-16 15 -51 25 -83 25
c-48 0 -88 -18 -88 -38c0 -5 1 -7 7 -14c10 -14 15 -28 15 -41c0 -30 -22 -51 -54 -51c-35 0 -58 24 -58 61c0 73 82 126 195 126c64 0 113 -13 146 -40c29 -24 40 -56 40 -119zM358 200v46c-78 -13 -117 -23 -148 -37c-44 -21 -65 -51 -65 -93c0 -45 33 -78 79 -78
c44 0 89 25 114 62c17 26 20 40 20 100zM122 622h313v-54h-313v54z" />
    <glyph glyph-name="Abreve" unicode="&#x102;" horiz-adv-x="722" 
d="M378 736l255 -625c23 -57 32 -63 84 -64h14v-47h-310v47h42c37 0 62 10 62 26c0 5 -2 11 -8 27l-54 134h-265l-33 -88c-6 -17 -9 -29 -9 -42c0 -38 27 -57 81 -57h20v-47h-265v47h4c57 4 83 28 110 106l230 583h42zM329 572l-111 -284h224zM466 944h36c1 -6 1 -11 1 -13
c0 -83 -60 -144 -141 -144c-87 0 -143 61 -142 157h36c4 -61 43 -95 105 -95c63 0 101 34 105 95z" />
    <glyph glyph-name="abreve" unicode="&#x103;" horiz-adv-x="556" 
d="M452 322v-201c0 -51 10 -69 38 -69c8 0 14 1 28 7c7 3 11 4 15 4c6 0 10 -5 10 -12c0 -29 -47 -58 -92 -58c-47 0 -72 20 -88 71c-43 -51 -105 -79 -174 -79c-89 0 -145 45 -145 117c0 64 41 110 128 142c49 19 82 27 186 45v39c0 45 -7 69 -26 85c-16 15 -51 25 -83 25
c-48 0 -88 -18 -88 -38c0 -5 1 -7 7 -14c10 -14 15 -28 15 -41c0 -30 -22 -51 -54 -51c-35 0 -58 24 -58 61c0 73 82 126 195 126c64 0 113 -13 146 -40c29 -24 40 -56 40 -119zM358 200v46c-78 -13 -117 -23 -148 -37c-44 -21 -65 -51 -65 -93c0 -45 33 -78 79 -78
c44 0 89 25 114 62c17 26 20 40 20 100zM383 692h36c1 -6 1 -11 1 -13c0 -83 -60 -144 -141 -144c-87 0 -143 61 -142 157h36c4 -61 43 -95 105 -95c63 0 101 35 105 95z" />
    <glyph glyph-name="Aogonek" unicode="&#x104;" horiz-adv-x="722" 
d="M336 736h42l255 -625c23 -57 32 -63 84 -64h14v-47c-26 0 -34 -1 -44 -4c-27 -8 -46 -34 -46 -63c0 -25 18 -44 40 -44s43 11 72 37l16 -21c-43 -43 -70 -57 -108 -57c-40 0 -70 29 -70 68c0 35 16 60 52 84h-222v47h42c37 0 62 10 62 26c0 5 -2 11 -8 27l-54 134h-265
l-33 -88c-6 -17 -9 -29 -9 -42c0 -38 27 -57 81 -57h20v-47h-265v47h4c57 4 83 28 110 106zM329 572l-111 -284h224z" />
    <glyph glyph-name="aogonek" unicode="&#x105;" horiz-adv-x="556" 
d="M548 -74l16 -21c-41 -42 -70 -57 -108 -57c-40 0 -70 29 -70 68c0 32 14 57 44 79c-34 6 -54 26 -67 69c-43 -51 -105 -79 -174 -79c-89 0 -145 45 -145 117c0 64 41 110 128 142c49 19 82 27 186 45v39c0 45 -7 69 -26 85c-16 15 -51 25 -83 25c-48 0 -88 -18 -88 -38
c0 -5 1 -7 7 -14c10 -14 15 -28 15 -41c0 -30 -22 -51 -54 -51c-35 0 -58 24 -58 61c0 73 82 126 195 126c64 0 113 -13 146 -40c29 -24 40 -56 40 -119v-201c0 -51 10 -69 38 -69c8 0 14 1 28 7c7 3 11 4 15 4c6 0 10 -5 10 -12c0 -10 -7 -22 -19 -33
c-11 -9 -11 -9 -56 -28c-17 -7 -32 -35 -32 -57c0 -25 18 -44 40 -44s43 11 72 37zM358 200v46c-78 -13 -117 -23 -148 -37c-44 -21 -65 -51 -65 -93c0 -45 33 -78 79 -78c44 0 89 25 114 62c17 26 20 40 20 100z" />
    <glyph glyph-name="Cacute" unicode="&#x106;" horiz-adv-x="722" 
d="M639 729l15 -289h-44c-24 79 -38 116 -57 149c-38 64 -100 101 -170 101c-65 0 -126 -35 -157 -91c-34 -60 -49 -135 -49 -249c0 -216 70 -318 218 -318c123 0 199 74 226 223l47 -8c-23 -168 -125 -262 -285 -262c-197 0 -338 153 -338 369c0 103 30 187 94 263
c67 80 148 120 243 120c69 0 106 -14 179 -67l40 59h38zM306 787l140 141c24 24 34 30 50 30c20 0 35 -15 35 -35c0 -14 -10 -29 -26 -38l-159 -98h-40z" />
    <glyph glyph-name="cacute" unicode="&#x107;" horiz-adv-x="444" 
d="M387 147l39 -15c-43 -106 -94 -147 -183 -147c-124 0 -209 98 -209 240c0 150 93 256 223 256c89 0 156 -51 156 -119c0 -40 -25 -68 -61 -68c-35 0 -60 23 -60 56c0 17 4 27 20 46c5 6 6 9 6 12c0 16 -26 30 -56 30c-74 0 -123 -80 -123 -202c0 -117 50 -190 130 -190
c52 0 86 29 118 101zM187 535l140 140c25 25 34 31 50 31c20 0 35 -15 35 -35c0 -14 -10 -29 -26 -39l-159 -97h-40z" />
    <glyph glyph-name="Ccircumflex" unicode="&#x108;" horiz-adv-x="722" 
d="M639 729l15 -289h-44c-24 79 -38 116 -57 149c-38 64 -100 101 -170 101c-65 0 -126 -35 -157 -91c-34 -60 -49 -135 -49 -249c0 -216 70 -318 218 -318c123 0 199 74 226 223l47 -8c-23 -168 -125 -262 -285 -262c-197 0 -338 153 -338 369c0 103 30 187 94 263
c67 80 148 120 243 120c69 0 106 -14 179 -67l40 59h38zM400 953l124 -166h-35l-121 101l-121 -101h-36l125 166h64z" />
    <glyph glyph-name="ccircumflex" unicode="&#x109;" horiz-adv-x="444" 
d="M387 147l39 -15c-43 -106 -94 -147 -183 -147c-124 0 -209 98 -209 240c0 150 93 256 223 256c89 0 156 -51 156 -119c0 -40 -25 -68 -61 -68c-35 0 -60 23 -60 56c0 17 4 27 20 46c5 6 6 9 6 12c0 16 -26 30 -56 30c-74 0 -123 -80 -123 -202c0 -117 50 -190 130 -190
c52 0 86 29 118 101zM262 701l125 -166h-36l-121 101l-121 -101h-35l124 166h64z" />
    <glyph glyph-name="Cdotaccent" unicode="&#x10a;" horiz-adv-x="722" 
d="M639 729l15 -289h-44c-24 79 -38 116 -57 149c-38 64 -100 101 -170 101c-65 0 -126 -35 -157 -91c-34 -60 -49 -135 -49 -249c0 -216 70 -318 218 -318c123 0 199 74 226 223l47 -8c-23 -168 -125 -262 -285 -262c-197 0 -338 153 -338 369c0 103 30 187 94 263
c67 80 148 120 243 120c69 0 106 -14 179 -67l40 59h38zM369 896c27 0 50 -23 50 -50c0 -28 -22 -50 -51 -50c-27 0 -49 23 -49 50s23 50 50 50z" />
    <glyph glyph-name="cdotaccent" unicode="&#x10b;" horiz-adv-x="444" 
d="M387 147l39 -15c-43 -106 -94 -147 -183 -147c-124 0 -209 98 -209 240c0 150 93 256 223 256c89 0 156 -51 156 -119c0 -40 -25 -68 -61 -68c-35 0 -60 23 -60 56c0 17 4 27 20 46c5 6 6 9 6 12c0 16 -26 30 -56 30c-74 0 -123 -80 -123 -202c0 -117 50 -190 130 -190
c52 0 86 29 118 101zM252 644c27 0 50 -23 50 -50c0 -28 -23 -50 -51 -50c-26 0 -49 23 -49 50s23 50 50 50z" />
    <glyph glyph-name="Ccaron" unicode="&#x10c;" horiz-adv-x="722" 
d="M639 729l15 -289h-44c-24 79 -38 116 -57 149c-38 64 -100 101 -170 101c-65 0 -126 -35 -157 -91c-34 -60 -49 -135 -49 -249c0 -216 70 -318 218 -318c123 0 199 74 226 223l47 -8c-23 -168 -125 -262 -285 -262c-197 0 -338 153 -338 369c0 103 30 187 94 263
c67 80 148 120 243 120c69 0 106 -14 179 -67l40 59h38zM349 787l-124 166h35l121 -101l121 101h36l-125 -166h-64z" />
    <glyph glyph-name="ccaron" unicode="&#x10d;" horiz-adv-x="444" 
d="M387 147l39 -15c-43 -106 -94 -147 -183 -147c-124 0 -209 98 -209 240c0 150 93 256 223 256c89 0 156 -51 156 -119c0 -40 -25 -68 -61 -68c-35 0 -60 23 -60 56c0 17 4 27 20 46c5 6 6 9 6 12c0 16 -26 30 -56 30c-74 0 -123 -80 -123 -202c0 -117 50 -190 130 -190
c52 0 86 29 118 101zM221 535l-124 166h35l121 -101l121 101h36l-125 -166h-64z" />
    <glyph glyph-name="Dcaron" unicode="&#x10e;" horiz-adv-x="778" 
d="M29 0v47h19c56 1 75 4 83 14c6 9 6 11 6 62v476c0 51 0 53 -6 62c-8 10 -27 13 -83 14h-19v47h318c114 0 188 -16 243 -51c92 -60 142 -168 142 -306c0 -150 -56 -264 -157 -321c-53 -30 -121 -44 -210 -44h-336zM306 47h68c162 0 226 90 226 314c0 221 -71 314 -242 314
h-52c-50 0 -57 -7 -57 -56v-517c0 -49 6 -55 57 -55zM337 787l-124 166h35l121 -101l121 101h36l-125 -166h-64z" />
    <glyph glyph-name="dcaron" unicode="&#x10f;" horiz-adv-x="664" 
d="M379 -7v79c-32 -60 -75 -87 -138 -87c-116 0 -199 101 -199 243c0 144 86 253 199 253c58 0 101 -23 138 -74v226c0 43 -5 49 -43 50h-59v43l196 11v-621c0 -64 5 -70 62 -73h18v-43zM261 427c-41 0 -78 -28 -95 -73c-13 -33 -19 -78 -19 -138c0 -111 42 -177 113 -177
c72 0 118 75 118 192c0 49 -6 90 -19 120c-18 46 -57 76 -98 76zM537 478l-21 25c60 37 91 80 91 123c0 5 -2 8 -6 8h-3c-4 -1 -9 -1 -13 -1c-39 0 -63 20 -63 53c0 31 25 54 59 54c43 0 74 -35 74 -86c0 -48 -23 -99 -58 -131c-7 -6 -28 -21 -60 -45z" />
    <glyph glyph-name="Dcroat" unicode="&#x110;" horiz-adv-x="778" 
d="M137 350h-108v47h108v202c0 51 0 53 -6 62c-8 10 -27 13 -83 14h-19v47h318c114 0 189 -16 243 -51c90 -58 142 -172 142 -310c0 -146 -57 -261 -157 -317c-53 -30 -120 -44 -210 -44h-336v47h19c56 1 75 4 83 14c6 9 6 11 6 62v227zM249 350v-248c0 -49 6 -55 58 -55h67
c162 0 226 89 226 314c0 221 -71 314 -241 314h-52c-51 0 -58 -7 -58 -56v-222h180v-47h-180z" />
    <glyph glyph-name="dcroat" unicode="&#x111;" horiz-adv-x="574" 
d="M380 568h-139v47h139v18c0 43 -5 49 -43 50h-59v43l196 11v-122h80v-47h-80v-452c0 -64 5 -70 62 -73h18v-43l-174 -7v79c-32 -60 -75 -87 -138 -87c-116 0 -199 101 -199 243c0 144 86 253 199 253c58 0 101 -23 138 -74v161zM262 427c-41 0 -78 -28 -95 -73
c-13 -33 -19 -78 -19 -138c0 -111 42 -177 113 -177c72 0 118 75 118 192c0 49 -6 90 -19 120c-18 46 -57 76 -98 76z" />
    <glyph glyph-name="Emacron" unicode="&#x112;" horiz-adv-x="722" 
d="M630 722l14 -255h-43c-32 173 -73 209 -237 208h-52c-54 -1 -64 -8 -63 -50v-228h24c95 0 134 39 140 137h47v-328h-47c-4 111 -41 148 -144 144h-20v-255c-3 -36 12 -46 72 -48h66c153 4 194 42 232 220h44l-20 -267h-614v47h18c57 0 76 4 84 14c6 9 6 11 6 62v476
c0 51 0 53 -6 62c-8 10 -27 13 -84 14h-18v47h601zM205 874h313v-54h-313v54z" />
    <glyph glyph-name="emacron" unicode="&#x113;" horiz-adv-x="500" 
d="M465 225h-324c-1 -55 7 -90 25 -120c26 -45 63 -66 114 -66c67 0 109 30 150 107l35 -19c-41 -95 -108 -142 -204 -142c-135 0 -226 94 -226 235c0 150 96 261 224 261c122 0 207 -106 206 -256zM142 268h175c32 0 41 8 41 36c0 81 -40 134 -100 134
c-49 0 -81 -29 -102 -89c-10 -28 -14 -50 -14 -81zM94 622h313v-54h-313v54z" />
    <glyph glyph-name="Ebreve" unicode="&#x114;" horiz-adv-x="722" 
d="M630 722l14 -255h-43c-32 173 -73 209 -237 208h-52c-54 -1 -64 -8 -63 -50v-228h24c95 0 134 39 140 137h47v-328h-47c-4 111 -41 148 -144 144h-20v-255c-3 -36 12 -46 72 -48h66c153 4 194 42 232 220h44l-20 -267h-614v47h18c57 0 76 4 84 14c6 9 6 11 6 62v476
c0 51 0 53 -6 62c-8 10 -27 13 -84 14h-18v47h601zM456 944h35c1 -6 1 -11 1 -13c0 -83 -60 -144 -141 -144c-82 0 -142 61 -142 144v13h36c5 -61 43 -95 105 -95c63 0 101 34 106 95z" />
    <glyph glyph-name="ebreve" unicode="&#x115;" horiz-adv-x="500" 
d="M465 225h-324c-1 -55 7 -90 25 -120c26 -45 63 -66 114 -66c67 0 109 30 150 107l35 -19c-41 -95 -108 -142 -204 -142c-135 0 -226 94 -226 235c0 150 96 261 224 261c122 0 207 -106 206 -256zM142 268h175c32 0 41 8 41 36c0 81 -40 134 -100 134
c-49 0 -81 -29 -102 -89c-10 -28 -14 -50 -14 -81zM355 692h36c1 -96 -55 -157 -142 -157c-81 0 -141 61 -141 143c0 2 0 8 1 14h36c4 -61 43 -95 105 -95s101 35 105 95z" />
    <glyph glyph-name="Edotaccent" unicode="&#x116;" horiz-adv-x="722" 
d="M630 722l14 -255h-43c-32 173 -73 209 -237 208h-52c-54 -1 -64 -8 -63 -50v-228h24c95 0 134 39 140 137h47v-328h-47c-4 111 -41 148 -144 144h-20v-255c-3 -36 12 -46 72 -48h66c153 4 194 42 232 220h44l-20 -267h-614v47h18c57 0 76 4 84 14c6 9 6 11 6 62v476
c0 51 0 53 -6 62c-8 10 -27 13 -84 14h-18v47h601zM362 896c28 0 50 -22 50 -50s-22 -50 -51 -50c-27 0 -49 23 -49 50s23 50 50 50z" />
    <glyph glyph-name="edotaccent" unicode="&#x117;" horiz-adv-x="500" 
d="M465 225h-324c-1 -55 7 -90 25 -120c26 -45 63 -66 114 -66c67 0 109 30 150 107l35 -19c-41 -95 -108 -142 -204 -142c-135 0 -226 94 -226 235c0 150 96 261 224 261c122 0 207 -106 206 -256zM142 268h175c32 0 41 8 41 36c0 81 -40 134 -100 134
c-49 0 -81 -29 -102 -89c-10 -28 -14 -50 -14 -81zM251 644c27 0 50 -22 50 -50s-22 -50 -51 -50c-26 0 -49 23 -49 50c0 28 23 50 50 50z" />
    <glyph glyph-name="Eogonek" unicode="&#x118;" horiz-adv-x="722" 
d="M460 534v-328h-47c-4 111 -41 148 -144 144h-20v-255c-3 -36 12 -46 72 -48h66c153 4 194 42 232 220h44l-20 -267c-27 -1 -34 -1 -44 -4c-27 -8 -47 -34 -47 -63c0 -25 18 -44 40 -44s43 11 72 37l16 -21c-39 -41 -70 -57 -108 -57c-40 0 -70 29 -70 68
c0 35 16 60 53 84h-526v47h18c57 0 76 4 84 14c6 9 6 11 6 62v476c0 51 0 53 -6 62c-8 10 -27 13 -84 14h-18v47h601l14 -255h-43c-32 173 -73 209 -237 208h-52c-54 -1 -64 -8 -63 -50v-228h24c95 0 134 39 140 137h47z" />
    <glyph glyph-name="eogonek" unicode="&#x119;" horiz-adv-x="500" 
d="M430 146l35 -19c-15 -39 -54 -92 -106 -144c-18 -18 -24 -30 -24 -48c0 -26 17 -46 40 -46c22 0 43 11 72 37l16 -21c-41 -42 -70 -57 -108 -57c-40 0 -70 29 -70 68c0 32 14 57 44 78c-26 -7 -42 -9 -67 -9c-136 0 -227 94 -227 235c0 150 96 261 224 261
c122 0 207 -106 206 -256h-324c-1 -55 7 -90 25 -120c26 -45 63 -66 114 -66c67 0 109 30 150 107zM142 268h175c32 0 41 8 41 36c0 81 -40 134 -100 134c-49 0 -81 -29 -102 -89c-10 -28 -14 -50 -14 -81z" />
    <glyph glyph-name="Ecaron" unicode="&#x11a;" horiz-adv-x="722" 
d="M630 722l14 -255h-43c-32 173 -73 209 -237 208h-52c-54 -1 -64 -8 -63 -50v-228h24c95 0 134 39 140 137h47v-328h-47c-4 111 -41 148 -144 144h-20v-255c-3 -36 12 -46 72 -48h66c153 4 194 42 232 220h44l-20 -267h-614v47h18c57 0 76 4 84 14c6 9 6 11 6 62v476
c0 51 0 53 -6 62c-8 10 -27 13 -84 14h-18v47h601zM329 787l-124 166h35l121 -101l121 101h36l-125 -166h-64z" />
    <glyph glyph-name="ecaron" unicode="&#x11b;" horiz-adv-x="500" 
d="M465 225h-324c-1 -55 7 -90 25 -120c26 -45 63 -66 114 -66c67 0 109 30 150 107l35 -19c-41 -95 -108 -142 -204 -142c-135 0 -226 94 -226 235c0 150 96 261 224 261c122 0 207 -106 206 -256zM142 268h175c32 0 41 8 41 36c0 81 -40 134 -100 134
c-49 0 -81 -29 -102 -89c-10 -28 -14 -50 -14 -81zM218 535l-124 166h35l121 -101l121 101h36l-125 -166h-64z" />
    <glyph glyph-name="Gcircumflex" unicode="&#x11c;" horiz-adv-x="778" 
d="M650 729l14 -281h-43c-41 160 -120 242 -234 242c-139 0 -213 -119 -213 -342c0 -107 16 -177 53 -233c34 -50 98 -83 163 -83s129 34 154 83c13 24 20 63 20 106c0 56 -7 61 -91 61h-19v47h318v-47h-15c-57 0 -75 -3 -84 -14c-6 -9 -6 -11 -6 -62v-220h-42l-37 90
c-65 -65 -124 -91 -208 -91c-96 0 -188 41 -250 111c-59 65 -88 150 -88 252c0 135 46 236 145 316c63 51 125 73 204 73c73 0 117 -17 182 -68l39 60h38zM439 953l125 -166h-36l-121 101l-121 -101h-35l124 166h64z" />
    <glyph glyph-name="gcircumflex" unicode="&#x11d;" horiz-adv-x="537" 
d="M196 74h102c68 0 100 -4 127 -14c36 -15 59 -55 59 -105c0 -105 -83 -158 -250 -158c-72 0 -120 8 -159 28c-32 17 -52 45 -52 75c0 41 30 72 92 95c-47 16 -67 42 -67 86c0 55 28 85 95 100c-52 25 -84 75 -84 134c0 100 78 166 197 166c50 0 82 -10 124 -38
c46 42 64 52 96 52c39 0 66 -24 66 -58c0 -27 -19 -48 -45 -48c-25 0 -41 13 -45 37c-2 11 -5 14 -10 14c-8 0 -17 -6 -34 -24c27 -33 36 -58 36 -98c0 -66 -33 -118 -93 -145c-34 -15 -49 -17 -143 -19c-67 -2 -94 -15 -94 -45c0 -11 5 -22 12 -26c12 -7 15 -8 70 -9z
M255 438c-67 0 -105 -45 -105 -124c0 -75 39 -122 101 -122c63 0 101 47 101 125s-35 121 -97 121zM246 -12h-74c-48 -25 -66 -47 -66 -80c0 -45 47 -70 132 -70c111 0 176 33 176 90c0 32 -24 54 -65 58c-14 2 -20 2 -103 2zM291 702l125 -166h-36l-121 101l-121 -101h-35
l124 166h64z" />
    <glyph glyph-name="Gbreve" unicode="&#x11e;" horiz-adv-x="778" 
d="M650 729l14 -281h-43c-41 160 -120 242 -234 242c-139 0 -213 -119 -213 -342c0 -107 16 -177 53 -233c34 -50 98 -83 163 -83s129 34 154 83c13 24 20 63 20 106c0 56 -7 61 -91 61h-19v47h318v-47h-15c-57 0 -75 -3 -84 -14c-6 -9 -6 -11 -6 -62v-220h-42l-37 90
c-65 -65 -124 -91 -208 -91c-96 0 -188 41 -250 111c-59 65 -88 150 -88 252c0 135 46 236 145 316c63 51 125 73 204 73c73 0 117 -17 182 -68l39 60h38zM494 944h36c1 -6 1 -11 1 -13c0 -83 -60 -144 -141 -144c-87 0 -143 61 -142 157h36c4 -61 43 -95 105 -95
c63 0 101 34 105 95z" />
    <glyph glyph-name="gbreve" unicode="&#x11f;" horiz-adv-x="537" 
d="M196 74h102c68 0 100 -4 127 -14c36 -15 59 -55 59 -105c0 -105 -83 -158 -250 -158c-72 0 -120 8 -159 28c-32 17 -52 45 -52 75c0 41 30 72 92 95c-47 16 -67 42 -67 86c0 55 28 85 95 100c-52 25 -84 75 -84 134c0 100 78 166 197 166c50 0 82 -10 124 -38
c46 42 64 52 96 52c39 0 66 -24 66 -58c0 -27 -19 -48 -45 -48c-25 0 -41 13 -45 37c-2 11 -5 14 -10 14c-8 0 -17 -6 -34 -24c27 -33 36 -58 36 -98c0 -66 -33 -118 -93 -145c-34 -15 -49 -17 -143 -19c-67 -2 -94 -15 -94 -45c0 -11 5 -22 12 -26c12 -7 15 -8 70 -9z
M255 438c-67 0 -105 -45 -105 -124c0 -75 39 -122 101 -122c63 0 101 47 101 125s-35 121 -97 121zM246 -12h-74c-48 -25 -66 -47 -66 -80c0 -45 47 -70 132 -70c111 0 176 33 176 90c0 32 -24 54 -65 58c-14 2 -20 2 -103 2zM374 692h36v-13c0 -83 -60 -144 -141 -144
c-82 0 -142 61 -142 144v13h36c5 -61 43 -95 105 -95c63 0 101 34 106 95z" />
    <glyph glyph-name="Gdotaccent" unicode="&#x120;" horiz-adv-x="778" 
d="M650 729l14 -281h-43c-41 160 -120 242 -234 242c-139 0 -213 -119 -213 -342c0 -107 16 -177 53 -233c34 -50 98 -83 163 -83s129 34 154 83c13 24 20 63 20 106c0 56 -7 61 -91 61h-19v47h318v-47h-15c-57 0 -75 -3 -84 -14c-6 -9 -6 -11 -6 -62v-220h-42l-37 90
c-65 -65 -124 -91 -208 -91c-96 0 -188 41 -250 111c-59 65 -88 150 -88 252c0 135 46 236 145 316c63 51 125 73 204 73c73 0 117 -17 182 -68l39 60h38zM390 896c27 0 50 -23 50 -50c0 -28 -22 -50 -51 -50c-27 0 -49 23 -49 50s23 50 50 50z" />
    <glyph glyph-name="gdotaccent" unicode="&#x121;" horiz-adv-x="537" 
d="M196 74h102c68 0 100 -4 127 -14c36 -15 59 -55 59 -105c0 -105 -83 -158 -250 -158c-72 0 -120 8 -159 28c-32 17 -52 45 -52 75c0 41 30 72 92 95c-47 16 -67 42 -67 86c0 55 28 85 95 100c-52 25 -84 75 -84 134c0 100 78 166 197 166c50 0 82 -10 124 -38
c46 42 64 52 96 52c39 0 66 -24 66 -58c0 -27 -19 -48 -45 -48c-25 0 -41 13 -45 37c-2 11 -5 14 -10 14c-8 0 -17 -6 -34 -24c27 -33 36 -58 36 -98c0 -66 -33 -118 -93 -145c-34 -15 -49 -17 -143 -19c-67 -2 -94 -15 -94 -45c0 -11 5 -22 12 -26c12 -7 15 -8 70 -9z
M255 438c-67 0 -105 -45 -105 -124c0 -75 39 -122 101 -122c63 0 101 47 101 125s-35 121 -97 121zM246 -12h-74c-48 -25 -66 -47 -66 -80c0 -45 47 -70 132 -70c111 0 176 33 176 90c0 32 -24 54 -65 58c-14 2 -20 2 -103 2zM268 648c27 0 50 -22 50 -50s-22 -50 -51 -50
c-26 0 -49 23 -49 50c0 28 23 50 50 50z" />
    <glyph glyph-name="uni0122" unicode="&#x122;" horiz-adv-x="778" 
d="M650 729l14 -281h-43c-41 160 -120 242 -234 242c-139 0 -213 -119 -213 -342c0 -107 16 -177 53 -233c34 -50 98 -83 163 -83s129 34 154 83c13 24 20 63 20 106c0 56 -7 61 -91 61h-19v47h318v-47h-15c-57 0 -75 -3 -84 -14c-6 -9 -6 -11 -6 -62v-220h-42l-37 90
c-65 -65 -124 -91 -208 -91c-96 0 -188 41 -250 111c-59 65 -88 150 -88 252c0 135 46 236 145 316c63 51 125 73 204 73c73 0 117 -17 182 -68l39 60h38zM339 -302l-20 25c59 37 90 80 90 123c0 5 -2 8 -6 8h-3c-4 -1 -9 -1 -12 -1c-39 0 -63 20 -63 53c0 31 25 54 58 54
c44 0 74 -35 74 -86c0 -48 -23 -100 -58 -131c-7 -6 -27 -22 -60 -45z" />
    <glyph glyph-name="uni0123" unicode="&#x123;" horiz-adv-x="537" 
d="M196 74h102c68 0 100 -4 127 -14c36 -15 59 -55 59 -105c0 -105 -83 -158 -250 -158c-72 0 -120 8 -159 28c-32 17 -52 45 -52 75c0 41 30 72 92 95c-47 16 -67 42 -67 86c0 55 28 85 95 100c-52 25 -84 75 -84 134c0 100 78 166 197 166c50 0 82 -10 124 -38
c46 42 64 52 96 52c39 0 66 -24 66 -58c0 -27 -19 -48 -45 -48c-25 0 -41 13 -45 37c-2 11 -5 14 -10 14c-8 0 -17 -6 -34 -24c27 -33 36 -58 36 -98c0 -66 -33 -118 -93 -145c-34 -15 -49 -17 -143 -19c-67 -2 -94 -15 -94 -45c0 -11 5 -22 12 -26c12 -7 15 -8 70 -9z
M255 438c-67 0 -105 -45 -105 -124c0 -75 39 -122 101 -122c63 0 101 47 101 125s-35 121 -97 121zM246 -12h-74c-48 -25 -66 -47 -66 -80c0 -45 47 -70 132 -70c111 0 176 33 176 90c0 32 -24 54 -65 58c-14 2 -20 2 -103 2zM316 780l21 -25c-59 -37 -91 -80 -91 -123
c0 -5 2 -8 6 -8h3c4 1 8 1 12 1c40 0 64 -20 64 -53c0 -31 -25 -54 -58 -54c-45 0 -75 35 -75 86c0 48 23 99 58 130c8 7 28 22 60 46z" />
    <glyph glyph-name="Hcircumflex" unicode="&#x124;" horiz-adv-x="833" 
d="M584 347h-335v-224c0 -51 0 -53 7 -62c8 -10 26 -13 83 -14h19v-47h-329v47h18c57 0 76 4 84 14c6 9 6 12 6 62v476c0 51 0 53 -6 62c-9 11 -27 14 -84 14h-18v47h329v-47h-19c-57 0 -75 -3 -83 -14c-7 -9 -7 -11 -7 -62v-198h335v198c0 51 0 53 -6 62
c-9 11 -27 14 -84 14h-14v47h324v-47h-18c-57 0 -75 -3 -84 -14c-6 -9 -6 -10 -6 -62v-476c0 -52 0 -53 6 -62c8 -10 27 -14 84 -14h18v-47h-328v47h18c57 0 76 4 84 14c6 9 6 11 6 62v224zM448 953l125 -166h-36l-120 101l-121 -101h-36l125 166h63z" />
    <glyph glyph-name="hcircumflex" unicode="&#x125;" horiz-adv-x="611" 
d="M200 737v-352c45 67 93 96 158 96c60 0 110 -28 135 -77c18 -34 21 -52 21 -124v-157v-44c0 -36 9 -41 75 -43h4v-36h-253v36h4c43 1 63 5 70 14c4 5 5 11 6 25v48v161c0 49 -7 79 -23 101c-14 20 -44 35 -70 35c-43 0 -87 -31 -109 -76c-11 -23 -18 -68 -18 -117v-104
v-44c0 -36 9 -41 76 -43h4v-36h-253v36h4c43 1 62 5 69 14c4 5 5 11 6 25v24v24v510c0 43 -5 49 -43 50h-48v43zM336 953l125 -166h-36l-121 101l-121 -101h-35l124 166h64z" />
    <glyph glyph-name="Hbar" unicode="&#x126;" horiz-adv-x="833" 
d="M137 496h-75v83h75v20c0 51 0 53 -6 62c-9 11 -27 14 -84 14h-18v47h329v-47h-19c-57 0 -75 -3 -83 -14c-7 -9 -7 -11 -7 -62v-20h335v20c0 51 0 53 -6 62c-9 11 -27 14 -84 14h-14v47h324v-47h-18c-57 0 -75 -3 -84 -14c-6 -9 -6 -10 -6 -62v-20h68v-83h-68v-373
c0 -52 0 -53 6 -62c8 -10 27 -14 84 -14h18v-47h-328v47h18c57 0 76 4 84 14c6 9 6 11 6 62v224h-335v-224c0 -51 0 -53 7 -62c8 -10 26 -13 83 -14h19v-47h-329v47h18c57 1 76 4 84 14c6 9 6 12 6 62v373zM249 496v-95h335v95h-335z" />
    <glyph glyph-name="hbar" unicode="&#x127;" horiz-adv-x="611" 
d="M106 548h-74v83h74v3c0 43 -5 48 -42 49h-49v43l185 11v-106h164v-83h-164v-163c45 67 93 96 158 96c60 0 110 -28 135 -77c18 -34 21 -52 21 -124v-157v-44c0 -36 9 -41 75 -43h4v-36h-253v36h4c43 1 63 5 70 14c4 5 5 11 6 25v48v161c0 49 -7 79 -22 101
c-15 21 -45 35 -71 35c-43 0 -87 -31 -109 -76c-11 -23 -18 -68 -18 -117v-104v-44c0 -36 9 -41 76 -43h4v-36h-253v36h4c43 1 62 5 69 14c4 5 5 11 6 25v8v40v425z" />
    <glyph glyph-name="Itilde" unicode="&#x128;" horiz-adv-x="407" 
d="M38 675v47h331v-47h-20c-57 -1 -75 -4 -83 -14c-6 -9 -6 -11 -6 -62v-476c0 -51 0 -53 6 -62c8 -11 27 -14 83 -14h20v-47h-331v47h20c57 0 76 4 84 14c6 9 6 12 6 62v476c0 50 0 53 -6 62c-8 10 -27 13 -84 14h-20zM334 911h35c-8 -63 -51 -106 -108 -106
c-26 0 -38 4 -89 28c-19 9 -37 14 -52 14c-23 0 -40 -14 -47 -42h-35c13 62 51 101 100 101c23 0 31 -2 86 -27c35 -16 45 -19 59 -19c23 0 45 22 51 51z" />
    <glyph glyph-name="itilde" unicode="&#x129;" horiz-adv-x="315" 
d="M206 466v-343v-44c0 -36 9 -41 76 -43h7v-36h-259v36h7c43 1 62 5 69 14c4 5 5 11 6 26v47v239c0 43 -5 49 -43 50h-51v43zM263 659h35c-7 -63 -51 -106 -108 -106c-26 0 -38 4 -89 28c-19 9 -37 14 -52 14c-23 0 -40 -15 -47 -42h-35c13 62 51 101 100 101
c24 0 30 -2 86 -27c35 -16 45 -19 59 -19c23 0 45 22 51 51z" />
    <glyph glyph-name="Imacron" unicode="&#x12a;" horiz-adv-x="407" 
d="M38 675v47h331v-47h-20c-57 -1 -75 -4 -83 -14c-6 -9 -6 -11 -6 -62v-476c0 -51 0 -53 6 -62c8 -11 27 -14 83 -14h20v-47h-331v47h20c57 0 76 4 84 14c6 9 6 12 6 62v476c0 50 0 53 -6 62c-8 10 -27 13 -84 14h-20zM47 874h313v-54h-313v54z" />
    <glyph glyph-name="imacron" unicode="&#x12b;" horiz-adv-x="315" 
d="M206 466v-343v-44c0 -36 9 -41 76 -43h7v-36h-259v36h7c43 1 62 5 69 14c4 5 5 12 6 26v23v24v239c0 43 -5 49 -43 50h-51v43zM1 622h313v-54h-313v54z" />
    <glyph glyph-name="Ibreve" unicode="&#x12c;" horiz-adv-x="407" 
d="M38 675v47h331v-47h-20c-57 -1 -75 -4 -83 -14c-6 -9 -6 -11 -6 -62v-476c0 -51 0 -53 6 -62c8 -11 27 -14 83 -14h20v-47h-331v47h20c57 0 76 4 84 14c6 9 6 12 6 62v476c0 50 0 53 -6 62c-8 10 -27 13 -84 14h-20zM309 944h36v-13c0 -83 -60 -144 -142 -144
c-81 0 -141 61 -141 144v13h36c5 -61 43 -95 105 -95c63 0 101 35 106 95z" />
    <glyph glyph-name="ibreve" unicode="&#x12d;" horiz-adv-x="315" 
d="M206 466v-343v-44c0 -36 9 -41 76 -43h7v-36h-259v36h7c43 1 62 5 69 14c4 6 6 11 6 25v24v24v239c0 43 -5 49 -43 50h-51v43zM255 692h36v-13c0 -83 -60 -144 -141 -144c-82 0 -142 61 -142 144v13h36c5 -61 43 -95 105 -95c63 0 101 34 106 95z" />
    <glyph glyph-name="Iogonek" unicode="&#x12e;" horiz-adv-x="407" 
d="M38 722h331v-47h-20c-57 -1 -75 -4 -83 -14c-6 -9 -6 -11 -6 -62v-476c0 -51 0 -53 6 -62c8 -11 27 -14 83 -14h20v-47c-26 0 -33 -1 -44 -4c-26 -7 -46 -34 -46 -63c0 -25 18 -44 40 -44s43 11 72 37l16 -21c-41 -42 -70 -57 -108 -57c-40 0 -70 29 -70 68
c0 35 16 60 52 84h-243v47h20c57 0 76 4 84 14c6 9 6 12 6 62v476c0 50 0 53 -6 62c-8 10 -27 13 -84 14h-20v47z" />
    <glyph glyph-name="iogonek" unicode="&#x12f;" horiz-adv-x="315" 
d="M289 36v-36c-26 -1 -33 -1 -44 -4c-26 -7 -46 -34 -46 -63c0 -25 18 -44 40 -44s43 11 72 37l16 -21c-41 -42 -70 -57 -108 -57c-40 0 -70 29 -70 68c0 35 16 60 52 84h-171v36h7c43 1 62 5 69 14c4 5 5 11 6 26v47v239c0 43 -5 49 -43 50h-51v43l188 11v-343v-44
c0 -36 9 -41 76 -43h7zM159 715c32 0 58 -26 58 -58s-26 -58 -59 -58c-31 0 -57 26 -57 58s26 58 58 58z" />
    <glyph glyph-name="Idotaccent" unicode="&#x130;" horiz-adv-x="407" 
d="M38 675v47h331v-47h-20c-57 -1 -75 -4 -83 -14c-6 -9 -6 -11 -6 -62v-476c0 -51 0 -53 6 -62c8 -11 27 -14 83 -14h20v-47h-331v47h20c57 0 76 4 84 14c6 9 6 12 6 62v476c0 50 0 53 -6 62c-8 10 -27 13 -84 14h-20zM204 896c27 0 50 -23 50 -50c0 -28 -22 -50 -51 -50
c-27 0 -49 23 -49 50s23 50 50 50z" />
    <glyph glyph-name="dotlessi" unicode="&#x131;" horiz-adv-x="315" 
d="M206 466v-343v-44c0 -36 9 -41 76 -43h7v-36h-259v36h7c43 1 62 5 69 14c4 5 5 12 6 26v23v24v239c0 43 -5 49 -43 50h-51v43z" />
    <glyph glyph-name="IJ" unicode="&#x132;" horiz-adv-x="963" 
d="M38 675v47h331v-47h-20c-57 -1 -75 -4 -83 -14c-6 -9 -6 -11 -6 -62v-476c0 -51 0 -53 6 -62c8 -11 27 -14 83 -14h20v-47h-331v47h20c57 0 76 4 84 14c6 9 6 12 6 62v476c0 50 0 53 -6 62c-8 10 -27 13 -84 14h-20zM616 675v47h328v-47h-19c-58 -1 -76 -4 -83 -14
c-7 -9 -7 -10 -7 -62v-331c0 -97 -11 -158 -37 -198c-35 -56 -99 -85 -188 -85c-60 0 -106 14 -140 43c-36 30 -58 79 -58 127c0 71 42 122 100 122c44 0 75 -30 75 -71c0 -42 -27 -73 -63 -73c-12 0 -20 1 -37 5h-3c-7 0 -12 -7 -12 -16c0 -12 8 -32 19 -46
c21 -27 60 -44 102 -44c58 0 99 30 118 86c10 32 13 69 13 159v322c0 52 0 53 -6 62c-8 10 -27 13 -84 14h-18z" />
    <glyph glyph-name="ij" unicode="&#x133;" horiz-adv-x="581" 
d="M200 466v-343v-44c0 -36 9 -41 76 -43h7v-36h-259v36h7c43 1 62 5 69 14c4 5 5 11 6 26v47v239c0 43 -5 49 -43 50h-51v43zM153 715c32 0 58 -26 58 -58s-26 -58 -59 -58c-31 0 -57 26 -57 58s26 58 58 58zM516 466v-395c0 -113 -10 -164 -41 -208
c-29 -41 -80 -65 -136 -65c-67 0 -112 33 -112 82c0 35 24 60 56 60c28 0 52 -22 52 -47c0 -7 -2 -14 -7 -24c-4 -10 -5 -12 -5 -16c0 -7 11 -13 25 -13c22 0 45 15 55 35c14 29 19 66 19 148v339c0 43 -5 49 -43 50h-58v43zM469 715c32 0 58 -26 58 -58s-26 -58 -59 -58
c-31 0 -57 26 -57 58s26 58 58 58z" />
    <glyph glyph-name="Jcircumflex" unicode="&#x134;" horiz-adv-x="556" 
d="M209 675v47h328v-47h-19c-57 -1 -76 -4 -83 -14c-7 -9 -7 -11 -7 -62v-331c0 -98 -11 -158 -37 -198c-35 -56 -99 -85 -188 -85c-60 0 -106 14 -140 43c-36 30 -58 79 -58 127c0 71 42 122 100 122c44 0 75 -30 75 -72c0 -41 -27 -72 -63 -72c-12 0 -20 1 -37 5h-3
c-7 0 -12 -7 -12 -16c0 -12 8 -32 19 -46c21 -27 60 -44 102 -44c58 0 99 30 118 86c10 31 13 71 13 159v322c0 51 0 53 -6 62c-8 10 -27 13 -84 14h-18zM405 953l124 -166h-35l-121 101l-121 -101h-36l125 166h64z" />
    <glyph glyph-name="jcircumflex" unicode="&#x135;" horiz-adv-x="296" 
d="M207 466v-395c0 -113 -10 -164 -41 -208c-29 -41 -80 -65 -136 -65c-67 0 -112 33 -112 82c0 35 24 60 56 60c28 0 52 -22 52 -47c0 -7 -2 -14 -7 -24c-4 -10 -5 -12 -5 -16c0 -7 11 -13 25 -13c22 0 45 15 55 35c14 29 19 67 19 148v339c0 43 -5 49 -43 50h-58v43z
M144 701l124 -166h-35l-121 101l-121 -101h-36l125 166h64z" />
    <glyph glyph-name="uni0136" unicode="&#x136;" horiz-adv-x="778" 
d="M250 327l245 246c29 30 49 58 49 72c0 21 -19 30 -65 30h-25v47h308v-47c-60 0 -121 -29 -169 -80l-149 -149l242 -349c30 -44 41 -49 98 -50h19v-47h-342v47h31c49 0 68 6 68 23c0 10 -4 18 -20 42l-174 255l-116 -117v-127c0 -51 0 -53 7 -62c8 -10 26 -13 83 -14h19
v-47h-329v47h18c57 0 76 4 84 14c6 9 6 12 6 62v476c0 50 0 53 -6 62c-8 10 -27 13 -84 14h-18v47h329v-47h-19c-57 -1 -76 -4 -83 -14c-7 -9 -7 -11 -7 -62v-272zM339 -302l-20 25c59 37 90 80 90 123c0 5 -2 8 -6 8h-3c-4 -1 -9 -1 -12 -1c-39 0 -63 20 -63 53
c0 31 25 54 58 54c44 0 74 -35 74 -86c0 -48 -23 -99 -58 -131c-8 -7 -28 -22 -60 -45z" />
    <glyph glyph-name="uni0137" unicode="&#x137;" horiz-adv-x="593" 
d="M199 242l135 130c16 16 23 28 23 39c0 13 -15 19 -47 19h-31v36h263v-36c-68 -8 -110 -30 -169 -87l-45 -44l142 -194c41 -52 61 -64 117 -69v-36h-264v36h19c33 0 44 4 44 18c0 4 -2 9 -7 17l-119 167l-61 -58v-57v-44c0 -36 9 -41 76 -43h4v-36h-253v36h4
c43 1 62 5 69 14c4 5 5 11 6 25v48v510c0 43 -5 49 -43 50h-48v43l185 11v-495zM247 -302l-21 25c59 37 91 80 91 123c0 5 -2 8 -6 8h-3c-4 -1 -9 -1 -13 -1c-39 0 -63 20 -63 53c0 31 25 54 59 54c43 0 74 -35 74 -86c0 -48 -23 -100 -58 -131c-7 -6 -27 -21 -60 -45z" />
    <glyph glyph-name="kgreenlandic" unicode="&#x138;" horiz-adv-x="593" 
d="M199 163v-40v-44c0 -36 9 -41 76 -43h4v-36h-253v36h4c43 1 62 5 69 14c4 5 5 11 6 25v48v220v43c0 38 -7 41 -79 44v36h253v-36c-54 -2 -64 -4 -73 -14c-5 -6 -7 -12 -7 -25v-48v-118l152 147c17 17 24 28 24 39c0 13 -16 19 -47 19h-19v36h251v-36
c-69 -9 -111 -30 -169 -87l-45 -44l-18 -16l131 -178c40 -52 61 -64 116 -69v-36h-264v36h19c33 0 44 5 44 18c0 4 -3 10 -7 17l-107 150z" />
    <glyph glyph-name="Lacute" unicode="&#x139;" horiz-adv-x="667" 
d="M646 274l-21 -274h-590v47h18c57 0 76 4 84 14c6 9 6 11 6 62v476c0 51 0 53 -6 62c-8 10 -27 13 -84 14h-18v47h328v-47h-18c-57 -1 -76 -4 -84 -14c-6 -9 -6 -12 -6 -62v-504c-3 -36 12 -46 72 -48h42c155 3 200 47 233 227h44zM258 787l140 141c25 24 35 30 50 30
c20 0 35 -15 35 -35c0 -14 -10 -29 -25 -38l-159 -98h-41z" />
    <glyph glyph-name="lacute" unicode="&#x13a;" horiz-adv-x="315" 
d="M204 737v-614v-44c0 -36 9 -41 76 -43h7v-36h-259v36h7c43 1 62 5 69 14c4 5 5 11 6 26v47v510c0 43 -5 49 -42 50h-49v43zM82 787l140 141c25 24 35 30 50 30c20 0 35 -15 35 -35c0 -14 -10 -29 -25 -38l-159 -98h-41z" />
    <glyph glyph-name="uni013B" unicode="&#x13b;" horiz-adv-x="667" 
d="M646 274l-21 -274h-590v47h18c57 0 76 4 84 14c6 9 6 11 6 62v476c0 51 0 53 -6 62c-8 10 -27 13 -84 14h-18v47h328v-47h-18c-57 -1 -76 -4 -84 -14c-6 -9 -6 -12 -6 -62v-504c-3 -36 12 -46 72 -48h42c155 3 200 47 233 227h44zM284 -302l-21 25c59 37 91 80 91 123
c0 5 -2 8 -6 8h-3c-4 -1 -9 -1 -13 -1c-39 0 -63 20 -63 53c0 31 25 54 59 54c43 0 74 -35 74 -86c0 -48 -23 -100 -58 -131c-7 -6 -27 -21 -60 -45z" />
    <glyph glyph-name="uni013C" unicode="&#x13c;" horiz-adv-x="315" 
d="M204 737v-614v-44c0 -36 9 -41 76 -43h7v-36h-259v36h7c43 1 62 5 69 14c4 5 5 11 6 26v47v510c0 43 -5 49 -42 50h-49v43zM108 -302l-21 25c59 37 91 80 91 123c0 5 -2 8 -6 8h-3c-4 -1 -9 -1 -13 -1c-39 0 -63 20 -63 53c0 31 25 54 59 54c43 0 74 -35 74 -86
c0 -48 -23 -100 -58 -131c-7 -6 -27 -21 -60 -45z" />
    <glyph glyph-name="Lcaron" unicode="&#x13d;" horiz-adv-x="667" 
d="M646 274l-21 -274h-590v47h18c57 0 76 4 84 14c6 9 6 11 6 62v476c0 51 0 53 -6 62c-8 10 -27 13 -84 14h-18v47h328v-47h-18c-57 -1 -76 -4 -84 -14c-6 -9 -6 -12 -6 -62v-504c-3 -36 12 -46 72 -48h42c155 3 200 47 233 227h44zM484 478l-21 25c59 37 91 80 91 123
c0 5 -2 8 -6 8h-3c-4 -1 -9 -1 -13 -1c-39 0 -63 20 -63 53c0 31 25 54 59 54c44 0 74 -35 74 -86c0 -48 -23 -100 -58 -131c-7 -6 -28 -21 -60 -45z" />
    <glyph glyph-name="lcaron" unicode="&#x13e;" horiz-adv-x="400" 
d="M205 737v-614v-44c0 -36 9 -41 76 -43h7v-36h-259v36h7c43 1 62 5 69 14c4 5 5 11 6 26v47v510c0 43 -5 49 -42 50h-49v43zM258 478l-20 25c59 38 90 80 90 123c0 5 -2 8 -6 8h-3c-4 -1 -9 -1 -12 -1c-39 0 -63 20 -63 53c0 31 25 54 58 54c44 0 74 -35 74 -86
c0 -48 -23 -99 -58 -131c-7 -6 -27 -21 -60 -45z" />
    <glyph glyph-name="Ldot" unicode="&#x13f;" horiz-adv-x="667" 
d="M646 274l-21 -274h-590v47h18c57 0 76 4 84 14c6 9 6 11 6 62v476c0 51 0 53 -6 62c-8 10 -27 13 -84 14h-18v47h328v-47h-18c-57 -1 -76 -4 -84 -14c-6 -9 -6 -12 -6 -62v-504c-3 -36 12 -46 72 -48h42c155 3 200 47 233 227h44zM454 423c34 0 62 -28 62 -62
c0 -35 -28 -63 -63 -63c-34 0 -62 28 -62 63c0 34 28 62 63 62z" />
    <glyph glyph-name="ldot" unicode="&#x140;" horiz-adv-x="315" 
d="M204 737v-614v-44c0 -36 9 -41 76 -43h7v-36h-259v36h7c43 1 62 5 69 14c4 5 5 11 6 26v47v510c0 43 -5 49 -42 50h-49v43zM284 423c34 0 62 -28 62 -62c0 -36 -28 -63 -63 -63c-34 0 -62 28 -62 63c0 34 28 62 63 62z" />
    <glyph glyph-name="Lslash" unicode="&#x141;" horiz-adv-x="667" 
d="M142 268l-108 -75v55l108 76v275c0 51 0 53 -6 62c-8 10 -27 13 -84 14h-18v47h328v-47h-18c-57 -1 -76 -4 -84 -14c-6 -9 -6 -12 -6 -62v-210l187 137v-58l-187 -136v-237c-3 -36 12 -46 72 -48h42c153 0 203 49 233 227h44l-20 -274h-591v47h18c57 0 76 4 84 14
c6 9 6 11 6 62v145z" />
    <glyph glyph-name="lslash" unicode="&#x142;" horiz-adv-x="315" 
d="M204 421l78 54v-56l-78 -54v-242v-44c0 -36 9 -41 76 -43h7v-36h-259v36h7c43 1 62 5 69 14c4 5 5 11 6 26v23v24v186l-78 -54v56l78 54v268c0 43 -5 49 -43 50h-48v43l185 11v-316z" />
    <glyph glyph-name="Nacute" unicode="&#x143;" horiz-adv-x="815" 
d="M225 722l399 -531v314c0 137 -19 165 -115 170v47h285v-47c-97 -5 -116 -34 -116 -170v-519h-42l-446 602v-371c0 -136 19 -165 115 -170v-47h-285v47c97 5 116 34 116 170v425c-16 24 -35 31 -92 33h-25v47h206zM332 787l140 141c25 24 35 30 50 30c20 0 35 -15 35 -35
c0 -14 -10 -29 -25 -38l-159 -98h-41z" />
    <glyph glyph-name="nacute" unicode="&#x144;" horiz-adv-x="611" 
d="M200 466v-81c44 66 93 96 158 96c60 0 110 -29 135 -77c18 -34 21 -52 21 -124v-157v-44c0 -36 9 -41 75 -43h4v-36h-253v36h4c43 1 63 5 70 14c4 5 5 11 6 26v47v162c0 48 -7 78 -22 100c-15 21 -45 35 -71 35c-43 0 -88 -31 -109 -76c-11 -23 -18 -68 -18 -117v-104
v-44c0 -36 9 -41 76 -43h4v-36h-253v36h4c43 1 62 5 69 14c4 5 5 11 6 26v23v24v239c0 43 -5 49 -43 50h-36v43zM230 535l140 140c25 25 34 31 50 31c20 0 35 -15 35 -35c0 -14 -10 -29 -25 -39l-159 -97h-41z" />
    <glyph glyph-name="uni0145" unicode="&#x145;" horiz-adv-x="815" 
d="M225 722l399 -531v314c0 137 -19 165 -115 170v47h285v-47c-97 -5 -116 -34 -116 -170v-519h-42l-446 602v-371c0 -136 19 -165 115 -170v-47h-285v47c97 5 116 34 116 170v425c-16 24 -35 31 -92 33h-25v47h206zM358 -302l-21 25c59 37 91 80 91 123c0 5 -2 8 -6 8h-3
c-4 -1 -9 -1 -13 -1c-39 0 -63 20 -63 53c0 31 25 54 59 54c43 0 74 -35 74 -86c0 -48 -23 -100 -58 -131c-7 -6 -27 -21 -60 -45z" />
    <glyph glyph-name="uni0146" unicode="&#x146;" horiz-adv-x="611" 
d="M200 466v-81c44 66 93 96 158 96c60 0 110 -29 135 -77c18 -34 21 -52 21 -124v-157v-44c0 -36 9 -41 75 -43h4v-36h-253v36h4c43 1 63 5 70 14c4 5 5 11 6 26v47v162c0 48 -7 78 -22 100c-15 21 -45 35 -71 35c-43 0 -88 -31 -109 -76c-11 -23 -18 -68 -18 -117v-104
v-44c0 -36 9 -41 76 -43h4v-36h-253v36h4c43 1 62 5 69 14c4 5 5 11 6 26v23v24v239c0 43 -5 49 -43 50h-36v43zM256 -302l-21 25c59 37 91 80 91 123c0 5 -2 8 -6 8h-3c-4 -1 -9 -1 -12 -1c-40 0 -64 20 -64 53c0 31 25 54 59 54c43 0 74 -35 74 -86
c0 -48 -23 -100 -58 -131c-7 -6 -27 -21 -60 -45z" />
    <glyph glyph-name="Ncaron" unicode="&#x147;" horiz-adv-x="815" 
d="M225 722l399 -531v314c0 137 -19 165 -115 170v47h285v-47c-97 -5 -116 -34 -116 -170v-519h-42l-446 602v-371c0 -136 19 -165 115 -170v-47h-285v47c97 5 116 34 116 170v425c-16 24 -35 31 -92 33h-25v47h206zM375 787l-124 166h36l120 -101l121 101h36l-125 -166h-64
z" />
    <glyph glyph-name="ncaron" unicode="&#x148;" horiz-adv-x="611" 
d="M200 466v-81c44 66 93 96 158 96c60 0 110 -29 135 -77c18 -34 21 -52 21 -124v-157v-44c0 -36 9 -41 75 -43h4v-36h-253v36h4c43 1 63 5 70 14c4 5 5 11 6 26v47v162c0 48 -7 78 -22 100c-15 21 -45 35 -71 35c-43 0 -88 -31 -109 -76c-11 -23 -18 -68 -18 -117v-104
v-44c0 -36 9 -41 76 -43h4v-36h-253v36h4c43 1 62 5 69 14c4 5 5 11 6 26v23v24v239c0 43 -5 49 -43 50h-36v43zM274 535l-125 166h36l120 -101l121 101h36l-125 -166h-63z" />
    <glyph glyph-name="napostrophe" unicode="&#x149;" horiz-adv-x="713" 
d="M9 450l-23 28c67 42 101 89 101 137c0 5 -2 8 -7 8h-3c-4 -1 -6 -1 -12 -1c-46 0 -72 22 -72 59c0 34 28 60 65 60c48 0 82 -39 82 -95c0 -53 -26 -111 -65 -146c-7 -6 -29 -23 -66 -50zM315 466v-81c44 66 93 96 158 96c60 0 110 -29 135 -77c18 -34 21 -51 21 -124
v-157v-43c0 -37 9 -42 75 -44h4v-36h-253v36h4c43 1 63 5 70 14c4 5 5 11 6 26v7v40v162c0 48 -7 78 -22 100c-15 21 -45 35 -71 35c-43 0 -88 -31 -109 -76c-11 -23 -18 -68 -18 -117v-104v-44c0 -36 9 -41 76 -43h4v-36h-253v36h4c43 1 62 5 69 14c4 5 5 11 6 26v23v24
v239c0 43 -5 49 -43 50h-36v43z" />
    <glyph glyph-name="Eng" unicode="&#x14a;" horiz-adv-x="815" 
d="M586 54l-396 534v-371c0 -136 19 -165 115 -170v-47h-285v47c97 5 116 34 116 170v425c-16 24 -35 31 -92 33h-25v47h206l399 -531v314c0 137 -19 165 -115 170v47h285v-47c-97 -5 -116 -34 -116 -170v-399c0 -103 -14 -176 -39 -210c-30 -41 -81 -65 -136 -65
c-67 0 -112 33 -112 82c0 34 24 60 57 60c27 0 51 -22 51 -47c0 -7 -2 -14 -7 -24c-4 -10 -5 -12 -5 -16c0 -7 11 -13 25 -13c35 0 59 28 68 79c4 21 6 55 6 102z" />
    <glyph glyph-name="eng" unicode="&#x14b;" horiz-adv-x="559" 
d="M269 36v-36h-253v36h4c43 1 62 5 69 14c4 5 5 11 6 26v23v24v239c0 43 -5 49 -43 50h-36v43l173 11v-81c44 66 93 96 158 96c58 0 109 -29 136 -77c17 -29 20 -49 20 -124v-209c0 -113 -10 -164 -41 -208c-29 -41 -80 -65 -136 -65c-68 0 -113 33 -113 82
c0 35 24 60 57 60c29 0 52 -21 52 -49c0 -8 -2 -13 -7 -22c-4 -8 -5 -11 -5 -15c0 -8 10 -14 24 -14c55 0 75 48 75 182v265c0 56 -4 74 -22 99c-16 22 -41 34 -69 34c-45 0 -89 -30 -111 -76c-11 -23 -18 -68 -18 -117v-104v-44c0 -36 9 -41 76 -43h4z" />
    <glyph glyph-name="Omacron" unicode="&#x14c;" horiz-adv-x="778" 
d="M393 737c192 0 340 -164 340 -376c0 -214 -148 -376 -344 -376c-86 0 -162 29 -222 84c-76 70 -122 179 -122 291c0 114 45 222 122 293c61 56 137 84 226 84zM392 690c-75 0 -128 -28 -165 -86c-37 -60 -50 -120 -50 -241c0 -124 12 -185 50 -245c36 -57 91 -86 162 -86
s126 30 162 86c37 60 50 121 50 243c0 123 -13 184 -50 243c-36 55 -92 86 -159 86zM233 874h313v-54h-313v54z" />
    <glyph glyph-name="omacron" unicode="&#x14d;" horiz-adv-x="500" 
d="M252 481c118 0 214 -111 214 -248c0 -138 -96 -248 -216 -248s-216 110 -216 247c0 140 95 249 218 249zM252 438c-75 0 -113 -70 -113 -206c0 -132 39 -204 111 -204s111 72 111 205c0 132 -39 205 -109 205zM94 622h313v-54h-313v54z" />
    <glyph glyph-name="Obreve" unicode="&#x14e;" horiz-adv-x="778" 
d="M393 737c192 0 340 -164 340 -376c0 -214 -148 -376 -344 -376c-86 0 -162 29 -222 84c-76 70 -122 179 -122 291c0 114 45 222 122 293c61 56 137 84 226 84zM392 690c-75 0 -128 -28 -165 -86c-37 -60 -50 -120 -50 -241c0 -124 12 -185 50 -245c36 -57 91 -86 162 -86
s126 30 162 86c37 60 50 121 50 243c0 123 -13 184 -50 243c-36 55 -92 86 -159 86zM494 944h36c1 -6 1 -12 1 -14c0 -82 -60 -143 -142 -143c-86 0 -142 61 -141 157h36c5 -61 43 -95 105 -95c63 0 101 35 105 95z" />
    <glyph glyph-name="obreve" unicode="&#x14f;" horiz-adv-x="500" 
d="M252 481c118 0 214 -111 214 -248c0 -138 -96 -248 -216 -248s-216 110 -216 247c0 140 95 249 218 249zM252 438c-75 0 -113 -70 -113 -206c0 -132 39 -204 111 -204s111 72 111 205c0 132 -39 205 -109 205zM355 692h36c1 -6 1 -11 1 -13c0 -83 -60 -144 -142 -144
c-86 0 -142 61 -141 157h36c4 -61 43 -95 105 -95c63 0 101 35 105 95z" />
    <glyph glyph-name="Ohungarumlaut" unicode="&#x150;" horiz-adv-x="778" 
d="M393 737c192 0 340 -164 340 -376c0 -214 -148 -376 -344 -376c-86 0 -162 29 -222 84c-76 70 -122 179 -122 291c0 114 45 222 122 293c61 56 137 84 226 84zM392 690c-75 0 -128 -28 -165 -86c-37 -60 -50 -120 -50 -241c0 -124 12 -185 50 -245c36 -57 91 -86 162 -86
s126 30 162 86c37 60 50 121 50 243c0 123 -13 184 -50 243c-36 55 -92 86 -159 86zM268 796l35 99c15 41 30 58 53 58c15 0 27 -13 27 -28c0 -13 -5 -24 -18 -40l-81 -98zM395 796l36 99c14 41 30 58 53 58c15 0 27 -13 27 -28c0 -13 -5 -23 -18 -40l-81 -98z" />
    <glyph glyph-name="ohungarumlaut" unicode="&#x151;" horiz-adv-x="500" 
d="M252 481c118 0 214 -111 214 -248c0 -138 -96 -248 -216 -248s-216 110 -216 247c0 140 95 249 218 249zM252 438c-75 0 -113 -70 -113 -206c0 -132 39 -204 111 -204s111 72 111 205c0 132 -39 205 -109 205zM129 544l35 98c15 42 30 59 53 59c15 0 27 -13 27 -28
c0 -13 -5 -24 -18 -40l-81 -98zM256 544l36 98c15 42 30 59 53 59c15 0 27 -13 27 -28c0 -13 -5 -23 -18 -40l-81 -98z" />
    <glyph glyph-name="OE" unicode="&#x152;" 
d="M951 722l14 -255h-44c-33 175 -66 204 -236 208h-26c-55 -1 -64 -8 -63 -50v-228h13c95 0 135 39 140 137h47v-328h-47c-4 111 -41 148 -144 144h-9v-255c-3 -36 12 -46 72 -48h37c152 3 196 45 233 220h43l-20 -267h-588c-108 0 -182 27 -243 90
c-70 72 -111 174 -111 277c0 113 50 223 132 287c57 45 134 68 230 68h570zM484 237v272c0 74 -4 94 -26 121c-23 29 -63 45 -111 45c-63 0 -118 -28 -146 -75c-33 -56 -50 -135 -50 -240c0 -210 65 -313 197 -313c52 0 96 21 116 55c16 29 20 58 20 135z" />
    <glyph glyph-name="oe" unicode="&#x153;" horiz-adv-x="833" 
d="M765 146l35 -19c-41 -95 -110 -142 -206 -142c-72 0 -136 28 -176 77c-43 -52 -98 -77 -170 -77c-126 0 -214 102 -214 247c0 139 97 249 219 249c66 0 128 -32 167 -87c45 58 103 87 172 87c123 0 208 -104 208 -256h-328c0 -55 8 -91 25 -120c27 -45 65 -66 116 -66
c67 0 111 31 152 107zM253 438c-76 0 -114 -70 -114 -209c0 -129 40 -201 113 -201c42 0 79 27 94 70c12 37 20 90 20 141c0 128 -40 199 -113 199zM473 268h177c33 0 42 8 42 37c0 80 -41 133 -102 133c-48 0 -82 -29 -103 -89c-9 -28 -13 -51 -14 -81z" />
    <glyph glyph-name="Racute" unicode="&#x154;" horiz-adv-x="722" 
d="M246 350v-228c0 -50 0 -52 6 -62c8 -10 27 -13 84 -13h18v-47h-328v47h18c57 0 76 3 84 13c6 10 6 12 6 62v477c0 51 0 53 -6 62c-8 10 -27 13 -84 14h-18v47h346c168 0 264 -65 264 -179c0 -101 -69 -159 -213 -179c78 -20 117 -62 139 -154l16 -63
c17 -69 27 -86 50 -86c27 0 39 30 43 99h42c-3 -120 -42 -175 -124 -175c-79 0 -116 46 -128 159l-5 51c-11 110 -51 151 -152 155h-58zM246 397h110c48 0 93 13 118 34c26 21 39 60 39 111c0 91 -45 133 -144 133h-54c-66 1 -71 -3 -69 -58v-220zM286 787l140 141
c24 24 34 30 50 30c20 0 35 -15 35 -35c0 -14 -10 -29 -26 -38l-159 -98h-40z" />
    <glyph glyph-name="racute" unicode="&#x155;" horiz-adv-x="444" 
d="M198 466v-124c33 89 87 139 150 139c53 0 87 -32 87 -81c0 -40 -24 -67 -61 -67c-32 0 -55 23 -55 55c0 19 4 29 18 45c-78 -4 -138 -132 -139 -300v-10v-44c0 -36 9 -41 76 -43h18v-36h-267v36h4c43 1 63 5 70 14c4 5 5 11 6 26v47v239c0 43 -5 49 -43 50h-41v43z
M147 535l140 140c25 25 34 31 50 31c20 0 35 -15 35 -35c0 -14 -10 -29 -26 -39l-159 -97h-40z" />
    <glyph glyph-name="uni0156" unicode="&#x156;" horiz-adv-x="722" 
d="M246 350v-228c0 -50 0 -52 6 -62c8 -10 27 -13 84 -13h18v-47h-328v47h18c57 0 76 3 84 13c6 10 6 12 6 62v477c0 51 0 53 -6 62c-8 10 -27 13 -84 14h-18v47h346c168 0 264 -65 264 -179c0 -101 -69 -159 -213 -179c78 -20 117 -62 139 -154l16 -63
c17 -69 27 -86 50 -86c27 0 39 30 43 99h42c-3 -120 -42 -175 -124 -175c-79 0 -116 46 -128 159l-5 51c-11 110 -51 151 -152 155h-58zM246 397h110c48 0 93 13 118 34c26 21 39 60 39 111c0 91 -45 133 -144 133h-54c-66 1 -71 -3 -69 -58v-220zM311 -302l-20 25
c59 37 90 80 90 123c0 5 -2 8 -6 8h-3c-4 -1 -9 -1 -12 -1c-39 0 -63 20 -63 53c0 31 25 54 58 54c44 0 74 -35 74 -86c0 -48 -23 -100 -58 -131c-7 -6 -27 -22 -60 -45z" />
    <glyph glyph-name="uni0157" unicode="&#x157;" horiz-adv-x="444" 
d="M198 466v-124c33 89 87 139 150 139c53 0 87 -32 87 -81c0 -40 -24 -67 -61 -67c-32 0 -55 23 -55 55c0 19 4 29 18 45c-78 -4 -138 -132 -139 -300v-10v-44c0 -36 9 -41 76 -43h18v-36h-267v36h4c43 1 63 5 70 14c4 5 5 11 6 26v47v239c0 43 -5 49 -43 50h-41v43z
M112 -302l-20 25c59 37 90 80 90 123c0 5 -2 8 -6 8h-3c-4 -1 -9 -1 -12 -1c-39 0 -63 20 -63 53c0 31 25 54 58 54c44 0 74 -35 74 -86c0 -48 -23 -100 -58 -131c-7 -6 -27 -22 -60 -45z" />
    <glyph glyph-name="Rcaron" unicode="&#x158;" horiz-adv-x="722" 
d="M246 350v-228c0 -50 0 -52 6 -62c8 -10 27 -13 84 -13h18v-47h-328v47h18c57 0 76 3 84 13c6 10 6 12 6 62v477c0 51 0 53 -6 62c-8 10 -27 13 -84 14h-18v47h346c168 0 264 -65 264 -179c0 -101 -69 -159 -213 -179c78 -20 117 -62 139 -154l16 -63
c17 -69 27 -86 50 -86c27 0 39 30 43 99h42c-3 -120 -42 -175 -124 -175c-79 0 -116 46 -128 159l-5 51c-11 110 -51 151 -152 155h-58zM246 397h110c48 0 93 13 118 34c26 21 39 60 39 111c0 91 -45 133 -144 133h-54c-66 1 -71 -3 -69 -58v-220zM329 787l-124 166h35
l121 -101l121 101h36l-125 -166h-64z" />
    <glyph glyph-name="rcaron" unicode="&#x159;" horiz-adv-x="444" 
d="M198 466v-124c33 89 87 139 150 139c53 0 87 -32 87 -81c0 -40 -24 -67 -61 -67c-32 0 -55 23 -55 55c0 19 4 29 18 45c-78 -4 -138 -132 -139 -300v-10v-44c0 -36 9 -41 76 -43h18v-36h-267v36h4c43 1 63 5 70 14c4 5 5 11 6 26v47v239c0 43 -5 49 -43 50h-41v43z
M190 535l-124 166h35l121 -101l121 101h36l-125 -166h-64z" />
    <glyph glyph-name="Sacute" unicode="&#x15a;" horiz-adv-x="630" 
d="M546 728l12 -260h-43c-12 51 -31 93 -60 134c-40 57 -97 87 -167 87c-85 0 -142 -48 -142 -118c0 -61 42 -100 131 -123l107 -27c80 -20 119 -37 146 -63c40 -38 60 -90 60 -153c0 -134 -94 -220 -241 -220c-88 0 -143 20 -210 75l-45 -68h-39l-4 285h43
c15 -77 36 -125 78 -171c47 -52 100 -75 174 -75c55 0 88 11 121 39c30 28 45 61 45 101c0 39 -16 72 -46 95c-21 16 -28 18 -102 37l-95 24c-147 38 -201 92 -201 201c0 126 87 209 219 209c71 0 134 -24 182 -69l40 60h37zM240 787l140 141c24 24 34 30 50 30
c20 0 35 -15 35 -35c0 -14 -10 -29 -26 -38l-159 -98h-40z" />
    <glyph glyph-name="sacute" unicode="&#x15b;" horiz-adv-x="463" 
d="M390 477v-168h-35c-16 46 -27 66 -49 88c-28 27 -59 40 -97 40c-55 0 -93 -28 -93 -69c0 -22 13 -43 35 -53c18 -10 18 -10 73 -22l50 -11c61 -13 81 -21 105 -42c28 -23 42 -57 42 -101c0 -93 -65 -154 -163 -154c-51 0 -96 16 -137 49l-35 -41h-35v189h40
c24 -100 84 -154 169 -154c58 0 99 33 99 80c0 40 -28 60 -107 79l-53 12c-60 14 -83 24 -106 45c-22 20 -35 53 -35 92c0 88 58 145 146 145c50 0 86 -12 122 -40l29 36h35zM156 535l140 140c25 25 34 31 50 31c20 0 35 -15 35 -35c0 -14 -10 -29 -25 -39l-159 -97h-41z
" />
    <glyph glyph-name="Scircumflex" unicode="&#x15c;" horiz-adv-x="630" 
d="M546 728l12 -260h-43c-12 51 -31 93 -60 134c-40 57 -97 87 -167 87c-85 0 -142 -48 -142 -118c0 -61 42 -100 131 -123l107 -27c80 -20 119 -37 146 -63c40 -38 60 -90 60 -153c0 -134 -94 -220 -241 -220c-88 0 -143 20 -210 75l-45 -68h-39l-4 285h43
c15 -77 36 -125 78 -171c47 -52 100 -75 174 -75c55 0 88 11 121 39c30 28 45 61 45 101c0 39 -16 72 -46 95c-21 16 -28 18 -102 37l-95 24c-147 38 -201 92 -201 201c0 126 87 209 219 209c71 0 134 -24 182 -69l40 60h37zM352 953l125 -166h-36l-120 101l-121 -101h-36
l125 166h63z" />
    <glyph glyph-name="scircumflex" unicode="&#x15d;" horiz-adv-x="463" 
d="M390 477v-168h-35c-16 46 -27 66 -49 88c-28 27 -59 40 -97 40c-55 0 -93 -28 -93 -69c0 -22 13 -43 35 -53c18 -10 18 -10 73 -22l50 -11c61 -13 81 -21 105 -42c28 -23 42 -57 42 -101c0 -93 -65 -154 -163 -154c-51 0 -96 16 -137 49l-35 -41h-35v189h40
c24 -100 84 -154 169 -154c58 0 99 33 99 80c0 40 -28 60 -107 79l-53 12c-60 14 -83 24 -106 45c-22 20 -35 53 -35 92c0 88 58 145 146 145c50 0 86 -12 122 -40l29 36h35zM263 701l125 -166h-36l-120 101l-121 -101h-36l125 166h63z" />
    <glyph glyph-name="Scedilla" unicode="&#x15e;" horiz-adv-x="630" 
d="M546 728l12 -260h-43c-12 51 -31 93 -60 134c-40 57 -97 87 -167 87c-85 0 -142 -48 -142 -118c0 -61 42 -100 131 -123l107 -27c80 -20 119 -37 146 -63c40 -38 60 -90 60 -153c0 -133 -94 -220 -238 -220c-5 0 -15 0 -26 1l-18 -49c14 2 20 3 29 3c49 0 82 -27 82 -68
c0 -52 -49 -87 -121 -87c-31 0 -59 5 -87 17l14 33c24 -8 42 -12 61 -12c35 0 57 16 57 40c0 23 -19 39 -47 39c-10 0 -22 -2 -34 -5l-9 5l39 87c-64 10 -101 27 -153 71l-45 -68h-39l-4 285h43c15 -77 36 -125 78 -171c47 -52 100 -75 174 -75c55 0 88 11 121 39
c30 28 45 61 45 101c0 39 -16 72 -46 95c-21 16 -28 18 -102 37l-95 24c-147 38 -201 92 -201 201c0 126 87 209 219 209c71 0 134 -24 182 -69l40 60h37z" />
    <glyph glyph-name="scedilla" unicode="&#x15f;" horiz-adv-x="463" 
d="M243 -15l-18 -48c13 2 19 3 28 3c49 0 82 -27 82 -68c0 -52 -49 -87 -120 -87c-32 0 -60 5 -88 17l15 33c23 -8 41 -12 61 -12c34 0 56 16 56 40c0 23 -19 39 -47 39c-9 0 -21 -2 -34 -5l-8 5l39 89c-37 9 -61 20 -88 43l-35 -41h-35v189h40c24 -100 84 -154 169 -154
c58 0 99 33 99 80c0 40 -28 60 -107 79l-53 12c-60 14 -83 24 -106 45c-22 20 -35 53 -35 92c0 88 58 145 146 145c50 0 86 -12 122 -40l29 36h35v-168h-35c-16 46 -27 66 -49 88c-28 27 -59 40 -97 40c-55 0 -93 -28 -93 -69c0 -22 13 -43 35 -53c18 -10 18 -10 73 -22
l50 -11c61 -13 81 -21 105 -42c28 -23 42 -57 42 -101c0 -92 -65 -154 -162 -154h-16z" />
    <glyph glyph-name="Scaron" unicode="&#x160;" horiz-adv-x="630" 
d="M546 728l12 -260h-43c-12 51 -31 93 -60 134c-40 57 -97 87 -167 87c-85 0 -142 -48 -142 -118c0 -61 42 -100 131 -123l107 -27c80 -20 119 -37 146 -63c40 -38 60 -90 60 -153c0 -134 -94 -220 -241 -220c-88 0 -143 20 -210 75l-45 -68h-39l-4 285h43
c15 -77 36 -125 78 -171c47 -52 100 -75 174 -75c55 0 88 11 121 39c30 28 45 61 45 101c0 39 -16 72 -46 95c-21 16 -28 18 -102 37l-95 24c-147 38 -201 92 -201 201c0 126 87 209 219 209c71 0 134 -24 182 -69l40 60h37zM283 787l-124 166h35l121 -101l121 101h36
l-125 -166h-64z" />
    <glyph glyph-name="scaron" unicode="&#x161;" horiz-adv-x="463" 
d="M390 477v-168h-35c-16 46 -27 66 -49 88c-28 27 -59 40 -97 40c-55 0 -93 -28 -93 -69c0 -22 13 -43 35 -53c18 -10 18 -10 73 -22l50 -11c61 -13 81 -21 105 -42c28 -23 42 -57 42 -101c0 -93 -65 -154 -163 -154c-51 0 -96 16 -137 49l-35 -41h-35v189h40
c24 -100 84 -154 169 -154c58 0 99 33 99 80c0 40 -28 60 -107 79l-53 12c-60 14 -83 24 -106 45c-22 20 -35 53 -35 92c0 88 58 145 146 145c50 0 86 -12 122 -40l29 36h35zM200 535l-125 166h36l120 -101l121 101h36l-125 -166h-63z" />
    <glyph glyph-name="uni0162" unicode="&#x162;" horiz-adv-x="667" 
d="M633 722l15 -278h-43c-8 57 -18 100 -33 137c-25 60 -74 94 -135 94c-33 0 -47 -11 -47 -36v-516c0 -51 0 -53 6 -62c8 -10 27 -14 83 -14h26v-47h-343v47h26c57 0 76 4 84 14c6 9 6 11 6 62v516c0 25 -14 36 -47 36c-68 0 -116 -37 -142 -111c-12 -32 -20 -70 -27 -120
h-43l15 278h599zM283 -302l-20 25c59 37 91 80 91 123c0 5 -2 8 -6 8h-3c-4 -1 -9 -1 -13 -1c-39 0 -63 20 -63 53c0 31 25 54 59 54c43 0 74 -35 74 -86c0 -48 -23 -100 -58 -131c-7 -6 -28 -21 -61 -45z" />
    <glyph glyph-name="uni0163" unicode="&#x163;" horiz-adv-x="389" 
d="M194 466h147v-43h-147v-273c0 -36 3 -61 9 -75c7 -17 27 -29 50 -29c49 0 75 46 78 136h42c1 -10 1 -17 1 -23c0 -106 -58 -174 -148 -174c-58 0 -98 23 -114 65c-10 23 -12 48 -12 118v255h-82v39c81 6 125 72 135 202h41v-198zM145 -302l-21 25c59 37 91 80 91 123
c0 5 -2 8 -6 8h-3c-4 -1 -9 -1 -13 -1c-39 0 -63 20 -63 53c0 31 25 54 59 54c43 0 74 -35 74 -86c0 -48 -23 -100 -58 -131c-7 -6 -27 -21 -60 -45z" />
    <glyph glyph-name="Tcaron" unicode="&#x164;" horiz-adv-x="667" 
d="M633 722l15 -278h-43c-8 57 -18 100 -33 137c-25 60 -74 94 -135 94c-33 0 -47 -11 -47 -36v-516c0 -51 0 -53 6 -62c8 -10 27 -14 83 -14h26v-47h-343v47h26c57 0 76 4 84 14c6 9 6 11 6 62v516c0 25 -14 36 -47 36c-68 0 -116 -37 -142 -111c-12 -32 -20 -70 -27 -120
h-43l15 278h599zM301 787l-124 166h36l120 -101l121 101h36l-125 -166h-64z" />
    <glyph glyph-name="tcaron" unicode="&#x165;" horiz-adv-x="389" 
d="M194 466h147v-43h-147v-273c0 -36 3 -61 9 -75c7 -17 27 -29 50 -29c49 0 75 46 78 136h42c1 -10 1 -17 1 -23c0 -106 -58 -174 -148 -174c-58 0 -98 23 -114 65c-10 23 -12 48 -12 118v255h-82v39c81 6 125 72 135 202h41v-198zM271 478l-21 25c60 38 91 80 91 123
c0 5 -2 8 -6 8h-3c-4 -1 -9 -1 -12 -1c-39 0 -63 20 -63 53c0 31 25 54 58 54c44 0 74 -35 74 -86c0 -48 -23 -99 -58 -131z" />
    <glyph glyph-name="Tbar" unicode="&#x166;" horiz-adv-x="667" 
d="M389 394h154v-47h-154v-224c0 -51 0 -53 6 -62c8 -10 27 -14 83 -14h26v-47h-343v47h26c57 0 76 4 84 14c6 9 6 11 6 62v224h-154v47h154v245c0 25 -14 36 -47 36c-68 0 -116 -37 -142 -111c-11 -32 -20 -70 -27 -120h-43l15 278h599l16 -278h-43c-8 57 -19 100 -34 137
c-24 60 -73 94 -135 94c-33 0 -47 -11 -47 -36v-245z" />
    <glyph glyph-name="tbar" unicode="&#x167;" horiz-adv-x="389" 
d="M194 352h147v-43h-147v-159c0 -37 3 -61 9 -75c7 -17 27 -29 50 -29c28 0 49 16 63 49c10 22 13 44 15 87h42c1 -9 1 -18 1 -21c0 -57 -19 -109 -52 -142c-22 -22 -57 -34 -97 -34c-57 0 -97 23 -113 65c-10 23 -12 48 -12 118v141h-82v43h82v71h-82v39
c82 8 123 69 135 202h41v-198h147v-43h-147v-71z" />
    <glyph glyph-name="Utilde" unicode="&#x168;" horiz-adv-x="815" 
d="M514 675v47h285v-47c-97 -5 -117 -34 -116 -170v-227c0 -89 -12 -142 -44 -188c-48 -71 -126 -105 -239 -105s-201 37 -247 103c-19 28 -27 60 -30 113v69v329c0 51 0 53 -6 62c-8 10 -27 13 -83 14h-17v47h327v-47h-19c-57 -1 -76 -4 -84 -14c-6 -9 -6 -11 -6 -62v-335
c0 -93 5 -117 32 -154c33 -45 91 -71 160 -71c81 0 146 36 178 98c19 35 24 67 24 147v221c0 137 -19 165 -115 170zM556 911h35c-7 -63 -51 -106 -108 -106c-26 0 -38 4 -89 28c-19 9 -38 14 -52 14c-24 0 -40 -14 -47 -42h-35c12 62 51 101 99 101c24 0 31 -2 86 -27
c35 -16 46 -19 59 -19c24 0 46 21 52 51z" />
    <glyph glyph-name="utilde" unicode="&#x169;" horiz-adv-x="611" 
d="M412 -7v83c-44 -64 -90 -91 -156 -91c-60 0 -108 23 -135 64c-15 23 -19 46 -19 97v216c0 43 -5 49 -43 50h-38v43l175 11v-305c0 -55 2 -65 15 -84c13 -20 39 -31 70 -31c49 0 89 25 110 70c15 32 21 66 21 123v123c0 43 -5 49 -43 50h-51v43l188 11v-350
c0 -65 5 -71 63 -73h25v-43zM421 659h35c-7 -63 -51 -106 -108 -106c-26 0 -38 4 -89 28c-19 9 -38 14 -52 14c-24 0 -40 -15 -47 -42h-35c12 62 51 101 100 101c24 0 30 -2 86 -27c35 -16 45 -19 59 -19c23 0 46 22 51 51z" />
    <glyph glyph-name="Umacron" unicode="&#x16a;" horiz-adv-x="815" 
d="M514 675v47h285v-47c-97 -5 -117 -34 -116 -170v-227c0 -89 -12 -142 -44 -188c-48 -71 -126 -105 -239 -105s-201 37 -247 103c-19 28 -27 60 -30 113v69v329c0 51 0 53 -6 62c-8 10 -27 13 -83 14h-17v47h327v-47h-19c-57 -1 -76 -4 -84 -14c-6 -9 -6 -11 -6 -62v-335
c0 -93 5 -117 32 -154c33 -45 91 -71 160 -71c81 0 146 36 178 98c19 35 24 67 24 147v221c0 137 -19 165 -115 170zM251 874h313v-54h-313v54z" />
    <glyph glyph-name="umacron" unicode="&#x16b;" horiz-adv-x="611" 
d="M412 -7v83c-44 -64 -90 -91 -156 -91c-60 0 -108 23 -135 64c-15 23 -19 46 -19 97v216c0 43 -5 49 -43 50h-38v43l175 11v-305c0 -55 2 -65 15 -84c13 -20 39 -31 70 -31c49 0 89 25 110 70c15 32 21 66 21 123v123c0 43 -5 49 -43 50h-51v43l188 11v-350
c0 -65 5 -71 63 -73h25v-43zM149 622h313v-54h-313v54z" />
    <glyph glyph-name="Ubreve" unicode="&#x16c;" horiz-adv-x="815" 
d="M514 675v47h285v-47c-97 -5 -117 -34 -116 -170v-227c0 -89 -12 -142 -44 -188c-48 -71 -126 -105 -239 -105s-201 37 -247 103c-19 28 -27 60 -30 113v69v329c0 51 0 53 -6 62c-8 10 -27 13 -83 14h-17v47h327v-47h-19c-57 -1 -76 -4 -84 -14c-6 -9 -6 -11 -6 -62v-335
c0 -93 5 -117 32 -154c33 -45 91 -71 160 -71c81 0 146 36 178 98c19 35 24 67 24 147v221c0 137 -19 165 -115 170zM529 944h36v-13c0 -83 -60 -144 -142 -144c-81 0 -141 61 -141 144c0 2 0 7 1 13h36c4 -61 42 -95 105 -95c62 0 100 34 105 95z" />
    <glyph glyph-name="ubreve" unicode="&#x16d;" horiz-adv-x="611" 
d="M412 -7v83c-44 -64 -90 -91 -156 -91c-60 0 -108 23 -135 64c-15 23 -19 46 -19 97v216c0 43 -5 49 -43 50h-38v43l175 11v-305c0 -55 2 -65 15 -84c13 -20 39 -31 70 -31c49 0 89 25 110 70c15 32 21 66 21 123v123c0 43 -5 49 -43 50h-51v43l188 11v-350
c0 -65 5 -71 63 -73h25v-43zM380 692h36c1 -6 1 -11 1 -13c0 -83 -60 -144 -142 -144c-81 0 -141 61 -141 144v13h36c5 -61 43 -95 105 -95c63 0 101 34 105 95z" />
    <glyph glyph-name="Uring" unicode="&#x16e;" horiz-adv-x="815" 
d="M514 675v47h285v-47c-97 -5 -117 -34 -116 -170v-227c0 -89 -12 -142 -44 -188c-48 -71 -126 -105 -239 -105s-201 37 -247 103c-19 28 -27 60 -30 113v69v329c0 51 0 53 -6 62c-8 10 -27 13 -83 14h-17v47h327v-47h-19c-57 -1 -76 -4 -84 -14c-6 -9 -6 -11 -6 -62v-335
c0 -93 5 -117 32 -154c33 -45 91 -71 160 -71c81 0 146 36 178 98c19 35 24 67 24 147v221c0 137 -19 165 -115 170zM407 981c55 0 100 -45 100 -99c0 -56 -45 -100 -101 -100c-53 0 -98 45 -98 100c0 54 45 99 99 99zM408 945c-36 0 -64 -28 -64 -63s28 -64 63 -64
c36 0 64 28 64 64c0 35 -28 63 -63 63z" />
    <glyph glyph-name="uring" unicode="&#x16f;" horiz-adv-x="611" 
d="M412 -7v83c-44 -64 -90 -91 -156 -91c-60 0 -108 23 -135 64c-15 23 -19 46 -19 97v216c0 43 -5 49 -43 50h-38v43l175 11v-305c0 -55 2 -65 15 -84c13 -20 39 -31 70 -31c49 0 89 25 110 70c15 32 21 66 21 123v123c0 43 -5 49 -43 50h-51v43l188 11v-350
c0 -65 5 -71 63 -73h25v-43zM306 729c54 0 99 -45 99 -99c0 -56 -44 -100 -101 -100c-53 0 -98 45 -98 99c0 55 45 100 100 100zM305 693c-35 0 -63 -28 -63 -63s28 -64 63 -64c36 0 64 28 64 64c0 35 -28 63 -64 63z" />
    <glyph glyph-name="Uhungarumlaut" unicode="&#x170;" horiz-adv-x="815" 
d="M514 675v47h285v-47c-97 -5 -117 -34 -116 -170v-227c0 -89 -12 -142 -44 -188c-48 -71 -126 -105 -239 -105s-201 37 -247 103c-19 28 -27 60 -30 113v69v329c0 51 0 53 -6 62c-8 10 -27 13 -83 14h-17v47h327v-47h-19c-57 -1 -76 -4 -84 -14c-6 -9 -6 -11 -6 -62v-335
c0 -93 5 -117 32 -154c33 -45 91 -71 160 -71c81 0 146 36 178 98c19 35 24 67 24 147v221c0 137 -19 165 -115 170zM286 796l35 99c15 41 30 58 53 58c15 0 27 -13 27 -28c0 -13 -5 -25 -18 -40l-81 -98zM414 796l35 99c15 41 30 58 53 58c15 0 27 -13 27 -28
c0 -13 -5 -24 -18 -40l-81 -98z" />
    <glyph glyph-name="uhungarumlaut" unicode="&#x171;" horiz-adv-x="611" 
d="M412 -7v83c-44 -64 -90 -91 -156 -91c-60 0 -108 23 -135 64c-15 23 -19 46 -19 97v216c0 43 -5 49 -43 50h-38v43l175 11v-305c0 -55 2 -65 15 -84c13 -20 39 -31 70 -31c49 0 89 25 110 70c15 32 21 66 21 123v123c0 43 -5 49 -43 50h-51v43l188 11v-350
c0 -65 5 -71 63 -73h25v-43zM184 544l35 98c15 42 31 59 53 59c15 0 27 -13 27 -28c0 -13 -5 -25 -18 -40l-81 -98zM312 544l35 98c15 42 30 59 53 59c15 0 27 -13 27 -28c0 -13 -5 -24 -18 -40l-81 -98z" />
    <glyph glyph-name="Uogonek" unicode="&#x172;" horiz-adv-x="815" 
d="M514 722h285v-47c-97 -5 -117 -34 -116 -170v-227c3 -131 -34 -205 -142 -288c-22 -18 -32 -35 -32 -55c0 -26 17 -46 40 -46c22 0 43 11 72 37l16 -21c-41 -42 -70 -57 -108 -57c-40 0 -70 29 -70 68c0 34 16 60 50 82c-37 -9 -69 -13 -110 -13c-112 0 -201 37 -246 103
c-19 28 -27 60 -30 113v69v329c0 51 0 53 -6 62c-8 10 -27 13 -83 14h-17v47h327v-47h-19c-57 -1 -76 -4 -84 -14c-6 -9 -6 -11 -6 -62v-335c0 -93 5 -117 32 -154c33 -45 91 -71 160 -71c81 0 146 36 178 98c19 35 24 67 24 147v221c0 137 -19 165 -115 170v47z" />
    <glyph glyph-name="uogonek" unicode="&#x173;" horiz-adv-x="611" 
d="M196 466v-305c0 -55 2 -65 15 -84c13 -20 39 -31 70 -31c49 0 89 25 110 70c15 32 21 66 21 123v123c0 43 -5 49 -43 50h-51v43l188 11v-350c0 -65 5 -71 63 -73h25v-43c-27 0 -41 -2 -53 -7c-21 -10 -37 -35 -37 -60s18 -44 40 -44s43 11 72 37l16 -21
c-41 -42 -70 -57 -108 -57c-41 0 -70 29 -70 68c0 33 15 58 46 80l-88 -3v83c-44 -64 -90 -91 -156 -91c-60 0 -108 23 -135 64c-15 23 -19 46 -19 97v216c0 43 -5 49 -43 50h-38v43z" />
    <glyph glyph-name="Wcircumflex" unicode="&#x174;" horiz-adv-x="981" 
d="M349 182l116 384l-26 78c-8 24 -20 30 -63 31h-23v47h289v-47h-16c-39 0 -46 -1 -57 -5c-9 -4 -15 -13 -15 -22c0 -7 0 -8 7 -28l138 -438l120 406c4 11 6 25 6 35c0 35 -28 52 -86 52h-8v47h245v-47h-4c-57 -2 -80 -26 -101 -103l-176 -587h-41l-162 497l-148 -497h-43
l-216 651c-12 35 -17 39 -60 39h-19v47h282v-47h-45c-32 0 -43 -5 -43 -20c0 -5 2 -15 5 -25zM523 953l125 -166h-36l-121 101l-121 -101h-35l124 166h64z" />
    <glyph glyph-name="wcircumflex" unicode="&#x175;" horiz-adv-x="778" 
d="M547 129l85 228c5 13 8 26 8 36c0 27 -14 37 -49 37h-17v36h189v-36h-7c-37 -1 -52 -17 -74 -76l-140 -369h-31l-122 316l-119 -316h-35l-150 396c-11 36 -24 48 -52 49h-18v36h220v-36h-18c-30 0 -41 -6 -41 -23c0 -6 2 -15 4 -22l97 -251l88 233l-8 26
c-8 28 -21 36 -53 37h-17v36h224v-36h-24c-33 0 -42 -5 -42 -23c0 -8 1 -14 4 -21zM428 701l125 -166h-36l-121 101l-120 -101h-36l124 166h64z" />
    <glyph glyph-name="Ycircumflex" unicode="&#x176;" horiz-adv-x="704" 
d="M389 357l124 221c10 17 16 37 16 52c0 32 -23 45 -77 45h-23v47h284v-47h-8c-64 -3 -95 -27 -138 -107l-149 -269v-176c0 -52 0 -53 6 -62c8 -10 26 -13 83 -14h26v-47h-343v47h26c57 0 76 4 84 14c6 9 6 11 6 62v164l-216 342c-24 39 -36 45 -81 46h-22v47h321v-47h-59
c-27 0 -39 -6 -39 -19c0 -7 3 -16 11 -28zM386 953l125 -166h-36l-121 101l-120 -101h-36l124 166h64z" />
    <glyph glyph-name="ycircumflex" unicode="&#x177;" horiz-adv-x="537" 
d="M300 127l91 226c7 17 10 29 10 40c0 26 -16 37 -54 37h-16v36h200v-36h-6c-39 -1 -61 -23 -84 -81l-114 -283c-44 -109 -64 -151 -95 -192c-40 -54 -85 -80 -138 -80s-91 32 -91 77c0 36 25 62 60 62c30 0 51 -19 51 -45c0 -8 -2 -17 -5 -26c-1 -4 -2 -7 -2 -9
c0 -6 7 -10 16 -10c32 0 79 53 115 129l17 35l-163 369c-21 43 -34 53 -68 54h-11v36h238v-36h-21c-34 0 -46 -7 -46 -26c0 -5 2 -10 6 -20zM317 701l124 -166h-35l-121 101l-121 -101h-36l125 166h64z" />
    <glyph glyph-name="Ydieresis" unicode="&#x178;" horiz-adv-x="704" 
d="M389 357l124 221c10 17 16 37 16 52c0 32 -23 45 -77 45h-23v47h284v-47h-8c-64 -3 -95 -27 -138 -107l-149 -269v-176c0 -52 0 -53 6 -62c8 -10 26 -13 83 -14h26v-47h-343v47h26c57 0 76 4 84 14c6 9 6 11 6 62v164l-216 342c-24 39 -36 45 -81 46h-22v47h321v-47h-59
c-27 0 -39 -6 -39 -19c0 -7 3 -16 11 -28zM258 902c28 0 50 -22 50 -50s-22 -50 -51 -50c-27 0 -49 23 -49 50c0 28 22 50 50 50zM457 902c28 0 50 -22 50 -50s-22 -50 -51 -50c-27 0 -49 23 -49 50c0 28 22 50 50 50z" />
    <glyph glyph-name="Zacute" unicode="&#x179;" horiz-adv-x="611" 
d="M569 722v-36l-411 -639h166c136 5 176 50 204 231h47l-18 -278h-533v36l409 639h-130c-136 -1 -172 -38 -205 -206h-45l20 253h496zM230 787l140 141c25 24 35 30 50 30c20 0 35 -15 35 -35c0 -14 -10 -29 -25 -38l-159 -98h-41z" />
    <glyph glyph-name="zacute" unicode="&#x17a;" horiz-adv-x="481" 
d="M428 466v-36l-273 -387h102c89 -1 128 38 138 136h40l-7 -179h-389v36l273 387h-87c-80 1 -119 -37 -127 -126h-40l9 169h361zM211 535l140 140c25 25 34 31 50 31c20 0 35 -15 35 -35c0 -14 -10 -29 -25 -39l-159 -97h-41z" />
    <glyph glyph-name="Zdotaccent" unicode="&#x17b;" horiz-adv-x="611" 
d="M569 722v-36l-411 -639h166c136 5 176 50 204 231h47l-18 -278h-533v36l409 639h-130c-136 -1 -172 -38 -205 -206h-45l20 253h496zM306 896c27 0 50 -23 50 -50c0 -28 -22 -50 -51 -50c-27 0 -49 23 -49 50s23 50 50 50z" />
    <glyph glyph-name="zdotaccent" unicode="&#x17c;" horiz-adv-x="481" 
d="M428 466v-36l-273 -387h102c89 -1 128 38 138 136h40l-7 -179h-389v36l273 387h-87c-80 1 -119 -37 -127 -126h-40l9 169h361zM241 644c27 0 50 -23 50 -50c0 -28 -22 -50 -51 -50c-26 0 -49 23 -49 50c0 28 23 50 50 50z" />
    <glyph glyph-name="Zcaron" unicode="&#x17d;" horiz-adv-x="611" 
d="M569 722v-36l-411 -639h166c136 5 174 48 204 231h47l-18 -278h-533v36l409 639h-130c-136 -1 -172 -38 -205 -206h-45l20 253h496zM290 787l-124 166h35l121 -101l121 101h36l-125 -166h-64z" />
    <glyph glyph-name="zcaron" unicode="&#x17e;" horiz-adv-x="481" 
d="M428 466v-36l-273 -387h102c89 -1 128 38 138 136h40l-7 -179h-389v36l273 387h-87c-80 1 -119 -37 -127 -126h-40l9 169h361zM215 535l-124 166h35l121 -101l121 101h36l-125 -166h-64z" />
    <glyph glyph-name="longs" unicode="&#x17f;" horiz-adv-x="333" 
d="M295 36v-36h-267v36h4c43 1 62 5 69 14c4 6 5 12 6 26v23v24v300h-88v43h88v31c0 81 10 124 40 166c35 50 86 74 155 74c81 0 131 -36 131 -94c0 -36 -23 -61 -56 -61c-31 0 -55 23 -55 53c0 11 3 23 9 32c6 8 6 9 6 13c0 11 -13 17 -34 17c-40 0 -75 -27 -91 -71
c-8 -20 -11 -53 -11 -103v-400v-44c0 -36 9 -41 76 -43h18z" />
    <glyph glyph-name="florin" unicode="&#x192;" horiz-adv-x="556" 
d="M332 437h133v-47h-137l-19 -227c-13 -154 -31 -232 -66 -284c-35 -54 -85 -84 -138 -84c-58 0 -102 34 -102 79c0 37 24 63 57 63c29 0 52 -20 52 -47c0 -12 -5 -26 -12 -33c-4 -5 -5 -6 -5 -9c0 -7 5 -10 14 -10c27 0 58 27 72 65c18 50 20 65 37 278l17 209h-116v47
h120l6 48c8 70 25 127 50 166c34 55 88 86 147 86s99 -33 99 -82c0 -36 -21 -58 -55 -58c-31 0 -54 18 -54 43c0 13 4 23 16 41c1 3 2 5 2 7c0 5 -8 9 -17 9c-18 0 -37 -11 -52 -31c-20 -26 -35 -81 -43 -166z" />
    <glyph glyph-name="Aringacute" unicode="&#x1fa;" horiz-adv-x="722" 
d="M378 736l255 -625c23 -57 32 -63 84 -64h14v-47h-310v47h42c37 0 62 10 62 26c0 5 -2 11 -8 27l-54 134h-265l-33 -88c-6 -17 -9 -29 -9 -42c0 -38 27 -57 81 -57h20v-47h-265v47h4c57 4 83 28 110 106l230 583h42zM329 572l-111 -284h224zM359 979c54 0 99 -45 99 -99
c0 -56 -44 -100 -101 -100c-53 0 -98 45 -98 100c0 54 45 99 100 99zM359 943c-36 0 -64 -28 -64 -63s29 -64 63 -64c36 0 64 28 64 64c0 35 -28 63 -63 63zM189 945l141 141c24 24 34 30 49 30c20 0 35 -15 35 -35c0 -14 -10 -29 -25 -38l-159 -98h-41z" />
    <glyph glyph-name="aringacute" unicode="&#x1fb;" horiz-adv-x="556" 
d="M452 322v-201c0 -51 10 -69 38 -69c8 0 14 1 28 7c7 3 11 4 15 4c6 0 10 -5 10 -12c0 -29 -47 -58 -92 -58c-47 0 -72 20 -88 71c-43 -51 -105 -79 -174 -79c-89 0 -145 45 -145 117c0 64 41 110 128 142c49 19 82 27 186 45v39c0 45 -7 69 -26 85c-16 15 -51 25 -83 25
c-48 0 -88 -18 -88 -38c0 -5 1 -7 7 -14c10 -14 15 -28 15 -41c0 -30 -22 -51 -54 -51c-35 0 -58 24 -58 61c0 73 82 126 195 126c64 0 113 -13 146 -40c29 -24 40 -56 40 -119zM358 200v46c-78 -13 -117 -22 -148 -37c-44 -21 -65 -51 -65 -93c0 -45 33 -78 79 -78
c44 0 89 25 114 62c17 26 20 40 20 100zM272 729c55 0 100 -45 100 -99c0 -56 -45 -100 -101 -100c-53 0 -98 45 -98 99c0 55 45 100 99 100zM273 693c-36 0 -64 -28 -64 -64c0 -34 29 -63 63 -63c36 0 64 28 64 64c0 35 -28 63 -63 63zM150 711l140 141c24 23 35 30 50 30
c20 0 35 -15 35 -35c0 -14 -10 -29 -26 -38l-159 -98h-40z" />
    <glyph glyph-name="AEacute" unicode="&#x1fc;" 
d="M933 722l14 -255h-43c-33 175 -67 204 -237 208h-24c-55 -1 -64 -8 -63 -50v-228h13c95 1 134 39 140 137h47v-328h-47c-4 111 -42 148 -144 144h-9v-255c-3 -36 12 -46 72 -48h35c154 4 195 43 233 220h43l-20 -267h-584v47h19c56 0 76 4 84 14c6 9 6 12 6 62v146h-239
l-71 -130c-10 -19 -14 -33 -14 -46c0 -31 26 -46 78 -46h11v-47h-233v47c35 7 55 26 89 85l247 444c8 15 13 31 13 45c0 22 -13 40 -35 47c-17 6 -28 7 -63 7h-11v47h693zM468 323v324c-1 21 -2 24 -10 24c-6 0 -10 -4 -17 -18l-183 -330h210zM500 787l140 141
c24 24 35 30 50 30c20 0 35 -15 35 -35c0 -14 -10 -29 -26 -38l-159 -98h-40z" />
    <glyph glyph-name="aeacute" unicode="&#x1fd;" horiz-adv-x="796" 
d="M723 146l36 -19c-45 -97 -110 -142 -205 -142c-58 0 -118 20 -156 53c-9 7 -15 14 -35 35c-52 -63 -103 -88 -179 -88c-90 0 -148 45 -148 114c0 66 39 115 118 145c51 20 76 26 183 45v47c0 74 -26 102 -96 102c-48 0 -87 -17 -87 -38c0 -4 1 -7 7 -14
c10 -14 15 -27 15 -41c0 -30 -22 -51 -54 -51c-36 0 -59 24 -59 61c0 71 83 126 190 126c69 0 124 -20 154 -57c41 38 91 57 146 57c121 0 205 -105 205 -256h-325c1 -60 7 -91 24 -120c27 -45 65 -66 116 -66c66 0 109 30 150 107zM337 193v53c-82 -14 -113 -22 -141 -37
c-40 -22 -59 -51 -59 -89c0 -49 31 -83 75 -83c41 0 82 22 105 55c17 26 20 39 20 101zM434 268h175c32 0 41 8 41 37c0 79 -40 132 -101 132c-48 0 -81 -29 -101 -89c-10 -27 -14 -50 -14 -80zM322 535l141 140c25 26 34 31 49 31c20 0 35 -15 35 -35
c0 -14 -10 -30 -25 -39l-159 -97h-41z" />
    <glyph glyph-name="Oslashacute" unicode="&#x1fe;" horiz-adv-x="778" 
d="M585 674l65 88h54l-86 -117c71 -70 115 -177 115 -278c0 -111 -54 -234 -133 -305c-54 -48 -134 -77 -213 -77c-77 0 -140 23 -204 73l-99 -134h-54l121 164c-66 69 -107 173 -107 272c0 111 51 226 132 297c60 53 133 80 214 80c73 0 135 -20 195 -63zM206 163l336 453
c-37 50 -88 74 -154 74c-140 0 -212 -115 -212 -337c0 -83 10 -144 30 -190zM566 575l-337 -455c37 -58 91 -88 161 -88c65 0 122 29 155 80c41 62 56 134 56 260c0 95 -10 151 -35 203zM313 787l141 141c24 24 34 30 50 30c19 0 34 -15 34 -35c0 -14 -10 -29 -25 -38
l-159 -98h-41z" />
    <glyph glyph-name="oslashacute" unicode="&#x1ff;" horiz-adv-x="500" 
d="M341 458l50 97h50l-63 -121c55 -48 88 -125 88 -206c0 -143 -90 -243 -219 -243c-34 0 -64 6 -89 19l-49 -95h-50l61 119c-55 48 -86 121 -86 204c0 139 96 249 216 249c32 0 60 -7 91 -23zM158 102l158 307c-21 21 -39 29 -65 29c-74 0 -112 -70 -112 -209
c0 -54 6 -91 19 -127zM343 364l-158 -307c17 -20 38 -29 64 -29c74 0 112 73 112 215c0 47 -6 85 -18 121zM174 535l141 140c25 25 34 31 50 31c20 0 35 -15 35 -35c0 -14 -10 -29 -26 -39l-159 -97h-41z" />
    <glyph glyph-name="Scommaaccent" unicode="&#x218;" horiz-adv-x="630" 
d="M546 728l12 -260h-43c-12 51 -31 93 -60 134c-40 57 -97 87 -167 87c-85 0 -142 -48 -142 -118c0 -61 42 -100 131 -123l107 -27c80 -20 119 -37 146 -63c40 -38 60 -90 60 -153c0 -134 -94 -220 -241 -220c-88 0 -143 20 -210 75l-45 -68h-39l-4 285h43
c15 -77 36 -125 78 -171c47 -52 100 -75 174 -75c55 0 88 11 121 39c30 28 45 61 45 101c0 39 -16 72 -46 95c-21 16 -28 18 -102 37l-95 24c-147 38 -201 92 -201 201c0 126 87 209 219 209c71 0 134 -24 182 -69l40 60h37zM285 -302l-20 25c59 37 90 80 90 123
c0 5 -2 8 -6 8h-3c-4 -1 -9 -1 -12 -1c-39 0 -63 20 -63 53c0 31 25 54 58 54c44 0 74 -35 74 -86c0 -48 -23 -100 -58 -131c-7 -6 -27 -22 -60 -45z" />
    <glyph glyph-name="scommaaccent" unicode="&#x219;" horiz-adv-x="463" 
d="M390 477v-168h-35c-16 46 -27 66 -49 88c-28 27 -59 40 -97 40c-55 0 -93 -28 -93 -69c0 -22 13 -43 35 -53c18 -10 18 -10 73 -22l50 -11c61 -13 81 -21 105 -42c28 -23 42 -57 42 -101c0 -93 -65 -154 -163 -154c-51 0 -96 16 -137 49l-35 -41h-35v189h40
c24 -100 84 -154 169 -154c58 0 99 33 99 80c0 40 -28 60 -107 79l-53 12c-60 14 -83 24 -106 45c-22 20 -35 53 -35 92c0 88 58 145 146 145c50 0 86 -12 122 -40l29 36h35zM182 -302l-21 25c59 37 91 80 91 123c0 5 -2 8 -6 8h-3c-4 -1 -9 -1 -13 -1c-39 0 -63 20 -63 53
c0 31 25 54 59 54c43 0 74 -35 74 -86c0 -48 -23 -100 -58 -131c-7 -6 -27 -21 -60 -45z" />
    <glyph glyph-name="uni021A" unicode="&#x21a;" horiz-adv-x="667" 
d="M633 722l15 -278h-43c-8 57 -18 100 -33 137c-25 60 -74 94 -135 94c-33 0 -47 -11 -47 -36v-516c0 -51 0 -53 6 -62c8 -10 27 -14 83 -14h26v-47h-343v47h26c57 0 76 4 84 14c6 9 6 11 6 62v516c0 25 -14 36 -47 36c-68 0 -116 -37 -142 -111c-12 -32 -20 -70 -27 -120
h-43l15 278h599zM283 -302l-20 25c59 37 91 80 91 123c0 5 -2 8 -6 8h-3c-4 -1 -9 -1 -13 -1c-39 0 -63 20 -63 53c0 31 25 54 59 54c43 0 74 -35 74 -86c0 -48 -23 -100 -58 -131c-7 -6 -28 -21 -61 -45z" />
    <glyph glyph-name="uni021B" unicode="&#x21b;" horiz-adv-x="389" 
d="M194 466h147v-43h-147v-273c0 -36 3 -61 9 -75c7 -17 27 -29 50 -29c49 0 75 46 78 136h42c1 -10 1 -17 1 -23c0 -106 -58 -174 -148 -174c-58 0 -98 23 -114 65c-10 23 -12 48 -12 118v255h-82v39c81 6 125 72 135 202h41v-198zM145 -302l-21 25c59 37 91 80 91 123
c0 5 -2 8 -6 8h-3c-4 -1 -9 -1 -13 -1c-39 0 -63 20 -63 53c0 31 25 54 59 54c43 0 74 -35 74 -86c0 -48 -23 -100 -58 -131c-7 -6 -27 -21 -60 -45z" />
    <glyph glyph-name="uni02BB" unicode="&#x2bb;" horiz-adv-x="204" 
d="M157 736l24 -28c-70 -51 -102 -94 -102 -137c0 -6 2 -9 6 -9c1 0 2 0 4 1l18 1c39 0 66 -24 66 -59s-27 -61 -65 -61c-49 0 -82 39 -82 99c0 71 42 132 131 193z" />
    <glyph glyph-name="uni02BC" unicode="&#x2bc;" horiz-adv-x="204" 
d="M47 450l-23 28c67 42 101 89 101 137c0 5 -2 8 -7 8h-3c-4 -1 -6 -1 -12 -1c-46 0 -72 22 -72 59c0 34 28 60 65 60c48 0 82 -39 82 -95c0 -53 -26 -111 -65 -146c-7 -6 -29 -23 -66 -50z" />
    <glyph glyph-name="circumflex" unicode="&#x2c6;" horiz-adv-x="333" 
d="M198 701l125 -166h-36l-120 101l-121 -101h-36l125 166h63z" />
    <glyph glyph-name="caron" unicode="&#x2c7;" horiz-adv-x="333" 
d="M135 535l-125 166h36l120 -101l121 101h36l-125 -166h-63z" />
    <glyph glyph-name="uni02C9" unicode="&#x2c9;" horiz-adv-x="333" 
d="M10 622h313v-54h-313v54z" />
    <glyph glyph-name="breve" unicode="&#x2d8;" horiz-adv-x="333" 
d="M272 692h36v-13c0 -83 -60 -144 -141 -144c-82 0 -142 61 -142 144v13h36c5 -61 43 -95 105 -95c63 0 101 34 106 95z" />
    <glyph glyph-name="dotaccent" unicode="&#x2d9;" horiz-adv-x="333" 
d="M167 644c27 0 50 -22 50 -50s-22 -50 -51 -50c-26 0 -49 23 -49 50c0 28 23 50 50 50z" />
    <glyph glyph-name="ring" unicode="&#x2da;" horiz-adv-x="333" 
d="M166 729c55 0 100 -45 100 -99c0 -56 -45 -100 -101 -100c-53 0 -98 45 -98 99c0 55 45 100 99 100zM167 693c-36 0 -64 -28 -64 -63s29 -64 63 -64c36 0 64 28 64 64c0 35 -28 63 -63 63z" />
    <glyph glyph-name="ogonek" unicode="&#x2db;" horiz-adv-x="333" 
d="M120 0h88c-28 0 -41 -2 -53 -7c-21 -10 -37 -35 -37 -60s18 -44 40 -44s43 11 72 37l16 -21c-41 -42 -70 -57 -108 -57c-40 0 -70 29 -70 68c0 35 16 60 52 84z" />
    <glyph glyph-name="tilde" unicode="&#x2dc;" horiz-adv-x="333" 
d="M297 659h35c-7 -63 -51 -106 -108 -106c-26 0 -38 4 -89 28c-19 9 -37 14 -52 14c-23 0 -40 -15 -47 -42h-35c13 62 51 101 100 101c24 0 30 -2 86 -27c35 -16 45 -19 59 -19c23 0 45 22 51 51z" />
    <glyph glyph-name="hungarumlaut" unicode="&#x2dd;" horiz-adv-x="333" 
d="M45 544l35 98c15 42 31 59 53 59c15 0 27 -13 27 -28c0 -13 -5 -25 -18 -40l-81 -98zM173 544l35 98c15 42 30 59 53 59c15 0 27 -13 27 -28c0 -13 -5 -24 -18 -40l-81 -98z" />
    <glyph glyph-name="uni035C" unicode="&#x35c;" horiz-adv-x="0" 
d="M286 -56c-85 -105 -187 -139 -286 -139c-105 0 -195 31 -286 139l16 10c108 -76 204 -81 269 -81c73 0 184 17 271 81z" />
    <glyph glyph-name="uni0361" unicode="&#x361;" horiz-adv-x="0" 
d="M286 598l-16 -10c-87 64 -198 81 -271 81c-65 0 -161 -5 -269 -81l-16 10c91 108 181 139 286 139c99 0 201 -34 286 -139z" />
    <glyph glyph-name="tonos" unicode="&#x384;" horiz-adv-x="204" 
d="M93 563l19 181c3 31 18 47 45 47c23 0 43 -19 43 -41c0 -9 -2 -18 -8 -29l-78 -164z" />
    <glyph glyph-name="dieresistonos" unicode="&#x385;" horiz-adv-x="204" 
d="M3 657c27 0 50 -23 50 -50c0 -28 -23 -50 -51 -50c-26 0 -49 23 -49 50s23 50 50 50zM226 657c27 0 50 -22 50 -50s-22 -50 -51 -50c-26 0 -49 23 -49 50s23 50 50 50zM93 563l19 181c4 31 19 47 45 47c23 0 43 -19 43 -41c0 -8 -3 -19 -8 -29l-78 -164z" />
    <glyph glyph-name="Alphatonos" unicode="&#x386;" horiz-adv-x="743" 
d="M399 736l255 -625c23 -57 32 -63 84 -64h14v-47h-310v47h42c37 0 62 10 62 26c0 5 -2 11 -8 27l-54 134h-265l-33 -88c-6 -17 -9 -29 -9 -42c0 -38 27 -57 81 -57h20v-47h-265v47h4c57 4 83 28 110 106l230 583h42zM350 572l-111 -284h224zM179 553l-28 179
c-1 6 -1 8 -1 16c0 25 18 43 43 43s43 -18 43 -42c0 -5 -1 -12 -2 -18l-33 -178h-22z" />
    <glyph glyph-name="anoteleia" unicode="&#x387;" horiz-adv-x="278" 
d="M139 309c34 0 62 -28 62 -62c0 -35 -28 -63 -63 -63c-34 0 -62 28 -62 63c0 34 28 62 63 62z" />
    <glyph glyph-name="Epsilontonos" unicode="&#x388;" horiz-adv-x="819" 
d="M727 722l14 -255h-43c-31 172 -73 209 -237 208h-52c-55 -1 -64 -8 -63 -50v-228h24c95 0 134 39 140 137h47v-328h-47c-4 111 -41 148 -144 144h-20v-255c-3 -36 12 -46 72 -48h66c153 4 194 43 232 220h44l-20 -267h-614v47h18c57 0 76 4 84 14c6 9 6 12 6 62v476
c0 50 0 53 -6 62c-8 10 -27 13 -84 14h-18v47h601zM42 553l-28 179c-1 6 -1 10 -1 16c0 25 18 43 43 43s43 -18 43 -42c0 -6 -1 -12 -2 -18l-33 -178h-22z" />
    <glyph glyph-name="Etatonos" unicode="&#x389;" horiz-adv-x="930" 
d="M681 347h-335v-224c0 -51 0 -53 7 -62c8 -10 26 -13 83 -14h19v-47h-329v47h18c57 0 76 4 84 14c6 9 6 12 6 62v476c0 51 0 53 -6 62c-9 11 -27 14 -84 14h-18v47h329v-47h-19c-57 0 -75 -3 -83 -14c-7 -9 -7 -10 -7 -62v-198h335v198c0 52 0 53 -6 62
c-9 11 -27 14 -84 14h-14v47h324v-47h-19c-57 0 -74 -3 -83 -14c-6 -9 -6 -11 -6 -62v-476c0 -50 0 -53 6 -62c8 -10 27 -13 83 -14h19v-47h-328v47h18c57 0 76 4 84 14c6 9 6 10 6 62v224zM42 553l-28 179c-1 6 -1 10 -1 16c0 25 18 43 43 43s43 -18 43 -42
c0 -6 -1 -12 -2 -18l-33 -178h-22z" />
    <glyph glyph-name="Iotatonos" unicode="&#x38a;" horiz-adv-x="496" 
d="M127 675v47h331v-47h-20c-57 -1 -75 -4 -83 -14c-6 -9 -6 -11 -6 -62v-476c0 -51 0 -53 6 -62c8 -10 27 -14 83 -14h20v-47h-331v47h20c57 0 76 4 84 14c6 9 6 12 6 62v476c0 50 0 53 -6 62c-8 10 -27 13 -84 14h-20zM42 553l-28 179c-1 6 -1 10 -1 16c0 25 18 43 43 43
s43 -18 43 -42c0 -6 -1 -12 -2 -18l-33 -178h-22z" />
    <glyph glyph-name="Omicrontonos" unicode="&#x38c;" horiz-adv-x="803" 
d="M418 737c192 0 340 -164 340 -376c0 -214 -148 -376 -344 -376c-86 0 -162 29 -222 84c-76 70 -122 179 -122 291c0 114 45 222 122 293c60 56 137 84 226 84zM417 690c-75 0 -128 -28 -165 -86c-37 -60 -50 -121 -50 -241c0 -125 12 -184 50 -245c36 -56 91 -86 162 -86
s126 30 162 86c37 60 50 121 50 243c0 123 -13 184 -50 243c-36 56 -92 86 -159 86zM62 553l-28 179c-1 6 -1 10 -1 16c0 25 18 43 43 43s43 -18 43 -42c0 -6 -1 -12 -2 -18l-33 -178h-22z" />
    <glyph glyph-name="Upsilontonos" unicode="&#x38e;" horiz-adv-x="829" 
d="M514 357l124 221c10 17 16 37 16 52c0 32 -23 45 -77 45h-23v47h284v-47h-8c-64 -3 -95 -27 -138 -107l-149 -269v-176c0 -51 0 -53 6 -62c8 -10 26 -13 83 -14h26v-47h-343v47h26c57 0 76 4 84 14c6 9 6 10 6 62v164l-216 342c-24 39 -36 45 -81 46h-22v47h321v-47h-59
c-28 0 -39 -6 -39 -19c0 -7 3 -16 11 -28zM36 553l-28 179c-1 6 -1 10 -1 16c0 25 18 43 43 43s43 -18 43 -42c0 -6 -1 -12 -2 -18l-33 -178h-22z" />
    <glyph glyph-name="Omegatonos" unicode="&#x38f;" horiz-adv-x="831" 
d="M297 87v17c-125 51 -207 173 -207 310c0 186 146 323 344 323s344 -137 344 -323c0 -136 -83 -261 -207 -310v-17h39c102 1 141 35 172 153h43l-25 -240h-304v105c107 54 150 147 150 320c0 93 -14 145 -50 193s-91 72 -162 72s-126 -24 -162 -72s-50 -101 -50 -193
c0 -173 44 -266 150 -320v-105h-304l-25 240h43c31 -118 70 -152 172 -153h39zM62 553l-28 179c-1 6 -1 10 -1 16c0 25 18 43 43 43s43 -18 43 -42c0 -6 -1 -12 -2 -18l-33 -178h-22z" />
    <glyph glyph-name="iotadieresistonos" unicode="&#x390;" horiz-adv-x="327" 
d="M18 412v43l188 11v-312c0 -78 10 -98 49 -98c12 0 28 5 42 12c6 3 11 5 14 5c5 0 10 -7 10 -13c0 -31 -62 -69 -112 -69c-40 0 -69 17 -84 50c-9 21 -13 47 -13 97v224c0 43 -5 49 -43 50h-51zM59 657c27 0 50 -23 50 -50c0 -28 -23 -50 -51 -50c-26 0 -49 23 -49 50
s23 50 50 50zM282 657c27 0 50 -22 50 -50s-22 -50 -51 -50c-26 0 -49 23 -49 50s23 50 50 50zM149 563l19 181c4 31 19 47 45 47c23 0 43 -19 43 -41c0 -8 -3 -19 -8 -29l-78 -164z" />
    <glyph glyph-name="Alpha" unicode="&#x391;" horiz-adv-x="722" 
d="M378 736l255 -625c23 -57 32 -63 84 -64h14v-47h-310v47h42c37 0 62 10 62 26c0 5 -2 11 -8 27l-54 134h-265l-33 -88c-6 -17 -9 -29 -9 -42c0 -38 27 -57 81 -57h20v-47h-265v47h4c57 4 83 28 110 106l230 583h42zM329 572l-111 -284h224z" />
    <glyph glyph-name="Beta" unicode="&#x392;" horiz-adv-x="722" 
d="M30 722h359c59 0 109 -8 145 -24c58 -25 98 -88 98 -153c0 -50 -25 -99 -66 -130c-26 -19 -48 -28 -96 -38c137 -24 200 -81 200 -181c0 -123 -104 -196 -277 -196h-363v47h18c57 0 76 4 84 14c6 9 6 11 6 62v476c0 51 0 53 -6 62c-8 10 -27 13 -84 14h-18v47zM250 397
h89c129 0 177 38 177 137c0 56 -19 98 -55 120c-21 13 -59 21 -105 21h-40c-53 -1 -66 -11 -66 -50v-228zM250 350v-240c-2 -53 8 -63 58 -63h42c63 0 105 7 136 23c39 19 61 65 61 129c0 110 -56 151 -209 151h-88z" />
    <glyph glyph-name="Gamma" unicode="&#x393;" horiz-adv-x="667" 
d="M646 448h-44c-33 180 -78 224 -233 227h-42c-60 -2 -75 -12 -72 -48v-504c0 -50 0 -53 6 -62c8 -10 27 -14 84 -14h18v-47h-328v47h18c57 0 76 4 84 14c6 9 6 11 6 62v476c0 51 0 53 -6 62c-8 10 -27 13 -84 14h-18v47h590z" />
    <glyph glyph-name="uni0394" unicode="&#x394;" horiz-adv-x="619" 
d="M-7 0l290 736h42l300 -736h-632zM89 87h295c47 0 70 10 70 32c0 6 -1 11 -8 28l-171 425z" />
    <glyph glyph-name="Epsilon" unicode="&#x395;" horiz-adv-x="722" 
d="M630 722l14 -255h-43c-32 173 -73 209 -237 208h-52c-55 -1 -64 -8 -63 -50v-228h24c95 0 134 39 140 137h47v-328h-47c-4 111 -41 148 -144 144h-20v-255c-3 -36 12 -46 72 -48h66c153 4 194 42 232 220h44l-20 -267h-614v47h18c57 0 76 4 84 14c6 9 6 11 6 62v476
c0 51 0 53 -6 62c-8 10 -27 13 -84 14h-18v47h601z" />
    <glyph glyph-name="Zeta" unicode="&#x396;" horiz-adv-x="611" 
d="M569 722v-36l-411 -639h166c136 5 176 50 204 231h47l-18 -278h-533v36l409 639h-130c-136 -1 -172 -38 -205 -206h-45l20 253h496z" />
    <glyph glyph-name="Eta" unicode="&#x397;" horiz-adv-x="833" 
d="M584 347h-335v-224c0 -51 0 -53 7 -62c8 -10 26 -13 83 -14h19v-47h-329v47h18c57 0 76 4 84 14c6 9 6 12 6 62v476c0 51 0 53 -6 62c-9 11 -27 14 -84 14h-18v47h329v-47h-19c-57 0 -75 -3 -83 -14c-7 -9 -7 -11 -7 -62v-198h335v198c0 51 0 53 -6 62
c-9 11 -27 14 -84 14h-14v47h324v-47h-18c-57 0 -75 -3 -84 -14c-6 -9 -6 -10 -6 -62v-476c0 -52 0 -53 6 -62c8 -10 27 -14 84 -14h18v-47h-328v47h18c57 0 76 4 84 14c6 9 6 11 6 62v224z" />
    <glyph glyph-name="Theta" unicode="&#x398;" horiz-adv-x="778" 
d="M526 250h-47c-3 57 -34 87 -90 87s-87 -30 -90 -87h-47v221h47c4 -55 37 -87 90 -87s86 32 90 87h47v-221zM393 737c192 0 340 -164 340 -376c0 -214 -148 -376 -344 -376c-86 0 -162 29 -222 84c-76 70 -122 179 -122 291c0 114 45 222 122 293c60 56 137 84 226 84z
M392 690c-75 0 -128 -28 -165 -86c-37 -60 -50 -121 -50 -241c0 -125 12 -184 50 -245c36 -56 91 -86 162 -86s126 30 162 86c37 60 50 121 50 243c0 123 -13 184 -50 243c-36 56 -92 86 -159 86z" />
    <glyph glyph-name="Iota" unicode="&#x399;" horiz-adv-x="407" 
d="M38 675v47h331v-47h-20c-57 -1 -75 -4 -83 -14c-6 -9 -6 -11 -6 -62v-476c0 -51 0 -53 6 -62c8 -11 27 -14 83 -14h20v-47h-331v47h20c57 0 76 4 84 14c6 9 6 12 6 62v476c0 50 0 53 -6 62c-8 10 -27 13 -84 14h-20z" />
    <glyph glyph-name="Kappa" unicode="&#x39a;" horiz-adv-x="778" 
d="M250 327l245 246c29 30 49 58 49 72c0 21 -19 30 -65 30h-25v47h308v-47c-60 0 -121 -29 -169 -80l-149 -149l242 -349c30 -44 41 -49 98 -50h19v-47h-342v47h31c49 0 68 6 68 23c0 10 -4 18 -20 42l-174 255l-116 -117v-127c0 -51 0 -53 7 -62c8 -10 26 -13 83 -14h19
v-47h-329v47h18c57 0 76 4 84 14c6 9 6 12 6 62v476c0 50 0 53 -6 62c-8 10 -27 13 -84 14h-18v47h329v-47h-19c-57 -1 -76 -4 -83 -14c-7 -9 -7 -11 -7 -62v-272z" />
    <glyph glyph-name="Lambda" unicode="&#x39b;" horiz-adv-x="722" 
d="M378 736l255 -625c23 -57 32 -63 84 -64h14v-47h-310v47h42c37 0 62 10 62 26c0 5 -1 10 -8 27l-188 472l-164 -426c-6 -16 -9 -29 -9 -42c0 -38 27 -57 81 -57h20v-47h-265v47h4c57 4 83 28 110 106l230 583h42z" />
    <glyph glyph-name="Mu" unicode="&#x39c;" horiz-adv-x="944" 
d="M287 722l192 -533l183 533h251v-47h-18c-57 -1 -76 -4 -84 -14c-6 -9 -6 -11 -6 -62v-476c0 -52 0 -53 6 -63c8 -10 27 -13 84 -13h18v-47h-328v47h18c57 0 76 3 84 13c6 10 6 12 6 63v535l-223 -658h-40l-238 658v-442c0 -136 19 -164 115 -169v-47h-285v47
c97 5 116 33 116 169v383c0 52 0 53 -7 62c-7 10 -26 13 -83 14h-19v47h258z" />
    <glyph glyph-name="Nu" unicode="&#x39d;" horiz-adv-x="815" 
d="M225 722l399 -531v314c0 137 -19 165 -115 170v47h285v-47c-97 -5 -116 -34 -116 -170v-519h-42l-446 602v-371c0 -136 19 -165 115 -170v-47h-285v47c97 5 116 34 116 170v425c-16 24 -35 31 -92 33h-25v47h206z" />
    <glyph glyph-name="Xi" unicode="&#x39e;" horiz-adv-x="709" 
d="M67 722h574l14 -255h-43c-23 139 -54 169 -175 168h-165c-122 1 -152 -28 -175 -168h-44zM60 0l-20 267h44c28 -145 58 -177 171 -180h199c113 3 143 35 171 180h44l-21 -267h-588zM511 224h-47c-3 73 -42 113 -110 113s-105 -37 -110 -113h-47v274h47
c7 -75 45 -114 110 -114s107 43 110 114h47v-274z" />
    <glyph glyph-name="Omicron" unicode="&#x39f;" horiz-adv-x="778" 
d="M393 737c192 0 340 -164 340 -376c0 -214 -148 -376 -344 -376c-86 0 -162 29 -222 84c-76 70 -122 179 -122 291c0 114 45 222 122 293c60 56 137 84 226 84zM392 690c-75 0 -128 -28 -165 -86c-37 -60 -50 -121 -50 -241c0 -125 12 -184 50 -245c36 -56 91 -86 162 -86
s126 30 162 86c37 60 50 121 50 243c0 123 -13 184 -50 243c-36 56 -92 86 -159 86z" />
    <glyph glyph-name="Pi" unicode="&#x3a0;" horiz-adv-x="833" 
d="M29 722h775v-47h-18c-57 0 -75 -3 -84 -14c-6 -9 -6 -10 -6 -62v-476c0 -52 0 -53 6 -62c8 -10 27 -14 84 -14h18v-47h-328v47h18c57 0 76 4 84 14c6 9 6 11 6 62v469c0 58 0 60 -15 68c-9 5 -34 8 -72 8h-161c-43 0 -67 -3 -75 -9c-12 -9 -12 -12 -12 -67v-469
c0 -51 0 -53 7 -62c8 -10 26 -13 83 -14h19v-47h-329v47h18c57 0 76 4 84 14c6 9 6 12 6 62v476c0 51 0 53 -6 62c-9 11 -27 14 -84 14h-18v47z" />
    <glyph glyph-name="Rho" unicode="&#x3a1;" horiz-adv-x="667" 
d="M248 321v-198c0 -51 0 -53 6 -62c8 -10 27 -14 84 -14h26v-47h-336v47h18c57 0 76 4 84 14c6 9 6 11 6 62v476c0 51 0 53 -6 62c-8 10 -27 13 -84 14h-18v47h350c177 0 271 -69 271 -197c0 -80 -40 -144 -110 -178c-41 -19 -88 -26 -178 -26h-113zM248 368h121
c106 0 157 49 157 152c0 106 -49 155 -153 155h-64c-56 0 -61 -5 -61 -51v-256z" />
    <glyph glyph-name="Sigma" unicode="&#x3a3;" horiz-adv-x="606" 
d="M7 36l248 305l-219 345v36h512l20 -253h-45c-33 168 -70 205 -205 206h-146l183 -293l-242 -295h224c126 1 162 37 187 191h47l-19 -278h-545v36z" />
    <glyph glyph-name="Tau" unicode="&#x3a4;" horiz-adv-x="667" 
d="M633 722l15 -278h-43c-8 57 -18 100 -33 137c-25 60 -74 94 -135 94c-33 0 -47 -11 -47 -36v-516c0 -51 0 -53 6 -62c8 -10 27 -14 83 -14h26v-47h-343v47h26c57 0 76 4 84 14c6 9 6 11 6 62v516c0 25 -14 36 -47 36c-68 0 -116 -37 -142 -111c-12 -32 -20 -70 -27 -120
h-43l15 278h599z" />
    <glyph glyph-name="Upsilon" unicode="&#x3a5;" horiz-adv-x="704" 
d="M389 357l124 221c10 17 16 37 16 52c0 32 -23 45 -77 45h-23v47h284v-47h-8c-64 -3 -95 -27 -138 -107l-149 -269v-176c0 -52 0 -53 6 -62c8 -10 26 -13 83 -14h26v-47h-343v47h26c57 0 76 4 84 14c6 9 6 10 6 62v164l-216 342c-24 39 -36 45 -81 46h-22v47h321v-47h-59
c-27 0 -39 -6 -39 -19c0 -7 3 -16 11 -28z" />
    <glyph glyph-name="Phi" unicode="&#x3a6;" horiz-adv-x="854" 
d="M591 0h-327v47h20c83 1 91 5 90 47v6v5c-82 5 -139 16 -190 36c-114 48 -177 125 -177 220c0 101 73 185 200 228c43 15 97 24 167 28v5v6c1 42 -6 46 -90 47h-20v47h327v-47h-20c-83 -1 -90 -5 -89 -48v-5v-5c81 -4 137 -15 189 -36c114 -47 177 -125 177 -220
c0 -101 -73 -184 -200 -228c-45 -16 -96 -24 -166 -28v-5v-5c-1 -43 7 -47 89 -48h20v-47zM374 152v418c-61 -3 -111 -14 -148 -35c-65 -37 -90 -86 -90 -174c0 -94 31 -147 106 -182c33 -15 80 -25 132 -27zM482 570v-418c60 3 110 14 147 35c65 37 90 86 90 174
c0 94 -31 147 -106 182c-33 15 -79 25 -131 27z" />
    <glyph glyph-name="Chi" unicode="&#x3a7;" horiz-adv-x="704" 
d="M389 400l210 -301c32 -48 38 -51 105 -52h12v-47h-328v47h28c63 1 67 2 67 18c0 8 -4 19 -13 31l-149 211l-116 -168c-10 -15 -16 -31 -16 -44c0 -30 25 -48 65 -48h25v-47h-284v47h4c53 1 87 21 131 80l162 225l-197 285c-22 33 -30 37 -84 38h-17v47h309v-47h-38
c-39 0 -48 -3 -48 -13c0 -5 4 -15 11 -25l133 -192l108 157c11 16 14 23 14 34c0 27 -21 39 -69 39h-14v47h275v-47h-16c-56 -2 -85 -22 -137 -94z" />
    <glyph glyph-name="Psi" unicode="&#x3a8;" horiz-adv-x="944" 
d="M638 0h-331v47h20c57 0 76 3 84 14c6 9 6 11 6 62v103c-108 3 -178 21 -231 58c-61 46 -75 89 -73 220v95c-1 53 -26 75 -89 76h-17v47h53c116 0 164 -35 165 -123v-102c-8 -148 52 -219 192 -224v326c0 58 0 60 -15 69c-13 5 -27 6 -95 7v47h331v-47
c-72 -1 -86 -2 -98 -9c-12 -9 -12 -12 -12 -67v-326c140 5 200 76 192 224v102c1 88 49 123 165 123h53v-47h-17c-63 -1 -89 -23 -89 -76v-88c2 -139 -11 -179 -73 -227c-53 -37 -124 -55 -231 -58v-103c0 -50 0 -53 6 -62c8 -10 27 -14 84 -14h20v-47z" />
    <glyph glyph-name="uni03A9" unicode="&#x3a9;" horiz-adv-x="795" 
d="M261 87v17c-125 51 -207 173 -207 310c0 186 146 323 344 323s344 -137 344 -323c0 -137 -82 -259 -207 -310v-17h39c102 1 141 35 172 153h43l-25 -240h-304v105c106 54 150 147 150 319c0 93 -14 146 -50 194s-91 72 -162 72s-126 -24 -162 -72s-50 -101 -50 -193
c0 -173 44 -266 150 -320v-105h-304l-25 240h43c31 -118 70 -152 172 -153h39z" />
    <glyph glyph-name="Iotadieresis" unicode="&#x3aa;" horiz-adv-x="407" 
d="M38 675v47h331v-47h-20c-57 -1 -75 -4 -83 -14c-6 -9 -6 -11 -6 -62v-476c0 -51 0 -53 6 -62c8 -11 27 -14 83 -14h20v-47h-331v47h20c57 0 76 4 84 14c6 9 6 12 6 62v476c0 50 0 53 -6 62c-8 10 -27 13 -84 14h-20zM104 902c28 0 50 -22 50 -50s-22 -50 -51 -50
c-27 0 -49 23 -49 50c0 28 22 50 50 50zM303 902c28 0 50 -22 50 -50s-22 -50 -51 -50c-27 0 -49 23 -49 50c0 28 22 50 50 50z" />
    <glyph glyph-name="Upsilondieresis" unicode="&#x3ab;" horiz-adv-x="704" 
d="M389 357l124 221c10 17 16 37 16 52c0 32 -23 45 -77 45h-23v47h284v-47h-8c-64 -3 -95 -27 -138 -107l-149 -269v-176c0 -52 0 -53 6 -62c8 -10 26 -13 83 -14h26v-47h-343v47h26c57 0 76 4 84 14c6 9 6 10 6 62v164l-216 342c-24 39 -36 45 -81 46h-22v47h321v-47h-59
c-27 0 -39 -6 -39 -19c0 -7 3 -16 11 -28zM258 902c28 0 50 -22 50 -50s-22 -50 -51 -50c-27 0 -49 23 -49 50c0 28 22 50 50 50zM457 902c28 0 50 -22 50 -50s-22 -50 -51 -50c-27 0 -49 23 -49 50c0 28 22 50 50 50z" />
    <glyph glyph-name="alphatonos" unicode="&#x3ac;" horiz-adv-x="591" 
d="M413 347l44 119h105v-35h-9c-28 0 -43 -11 -55 -41l-54 -135l33 -148c9 -41 18 -55 38 -55c7 0 12 1 25 7c7 3 10 4 14 4c6 0 10 -5 10 -12c0 -28 -46 -58 -90 -58c-26 0 -45 10 -58 29c-10 16 -10 16 -22 61l-9 30c-10 -23 -16 -36 -23 -48c-27 -51 -74 -80 -131 -80
c-113 0 -197 105 -197 245c0 143 95 252 220 252c83 0 130 -40 159 -135zM361 233c-28 156 -56 206 -113 206c-70 0 -109 -73 -109 -206c0 -131 38 -205 105 -205c53 0 81 49 117 205zM260 563l19 181c3 31 18 47 45 47c23 0 43 -19 43 -41c0 -8 -2 -17 -8 -29l-78 -164z
" />
    <glyph glyph-name="epsilontonos" unicode="&#x3ad;" horiz-adv-x="444" 
d="M285 256v-43h-50c-59 0 -93 -30 -93 -83s38 -84 104 -84c70 0 109 28 141 101l39 -16c-20 -48 -32 -69 -53 -90c-39 -39 -84 -56 -148 -56c-117 0 -191 55 -191 140c0 62 38 98 117 109c-71 14 -104 47 -104 105c0 92 69 142 195 142c103 0 171 -48 171 -119
c0 -40 -25 -68 -61 -68c-35 0 -60 23 -60 56c0 17 4 27 20 46c5 6 6 9 6 12c0 17 -26 30 -61 30c-64 0 -102 -37 -102 -99c0 -50 32 -83 80 -83h50zM230 563l19 181c3 31 18 47 45 47c23 0 43 -19 43 -41c0 -8 -3 -18 -8 -29l-78 -164z" />
    <glyph glyph-name="etatonos" unicode="&#x3ae;" horiz-adv-x="579" 
d="M284 36v-36h-253v36h4c43 1 62 5 69 14c4 5 5 11 6 26v7v40v196c-1 70 -15 90 -66 92c-26 0 -31 2 -31 10c0 20 54 45 95 45c39 0 69 -18 80 -49c4 -11 5 -19 8 -43c47 74 98 107 166 107c60 0 110 -29 135 -77c18 -34 21 -51 21 -123v-166c0 -116 -19 -211 -52 -262
c-20 -30 -52 -55 -73 -55c-8 0 -13 5 -13 13c0 4 1 6 7 13c23 27 35 120 37 295v166c0 48 -7 78 -22 100c-15 21 -45 35 -71 35c-43 0 -88 -31 -109 -76c-11 -23 -18 -68 -18 -117v-104v-44c0 -36 9 -41 76 -43h4zM293 563l19 181c3 31 18 47 45 47c23 0 43 -19 43 -41
c0 -8 -2 -17 -8 -29l-79 -164z" />
    <glyph glyph-name="iotatonos" unicode="&#x3af;" horiz-adv-x="327" 
d="M18 412v43l188 11v-312c0 -78 10 -98 49 -98c12 0 28 5 42 12c6 3 11 5 14 5c5 0 10 -7 10 -13c0 -31 -62 -69 -112 -69c-40 0 -69 17 -84 50c-9 21 -13 47 -13 97v224c0 43 -5 49 -43 50h-51zM154 563l19 181c4 31 19 47 45 47c23 0 43 -19 43 -41c0 -9 -3 -19 -8 -29
l-78 -164z" />
    <glyph glyph-name="upsilondieresistonos" unicode="&#x3b0;" horiz-adv-x="545" 
d="M181 657c27 0 50 -23 50 -50c0 -28 -23 -50 -51 -50c-26 0 -49 23 -49 50s23 50 50 50zM403 657c27 0 50 -22 50 -50s-22 -50 -51 -50c-26 0 -49 23 -49 50s23 50 50 50zM271 563l19 181c3 31 18 47 45 47c23 0 43 -19 43 -41c0 -8 -3 -18 -8 -29l-78 -164zM196 466v-304
c0 -37 5 -57 18 -75c18 -26 49 -41 86 -41c86 0 141 76 141 195c0 48 -10 80 -32 108c-15 18 -17 20 -56 40c-16 8 -24 21 -24 38c0 32 24 54 58 54c68 0 111 -77 111 -197c0 -187 -84 -299 -224 -299c-107 0 -172 67 -172 177v200c0 43 -5 49 -43 50h-38v43z" />
    <glyph glyph-name="alpha" unicode="&#x3b1;" horiz-adv-x="591" 
d="M413 347l44 119h105v-35h-9c-28 0 -43 -11 -55 -41l-54 -135l33 -148c9 -41 18 -55 38 -55c7 0 12 1 25 7c7 3 10 4 14 4c6 0 10 -5 10 -12c0 -28 -46 -58 -90 -58c-26 0 -45 10 -58 29c-10 16 -10 16 -22 61l-9 30c-10 -23 -16 -36 -23 -48c-27 -51 -74 -80 -131 -80
c-113 0 -197 105 -197 245c0 143 95 252 220 252c83 0 130 -40 159 -135zM361 233c-28 156 -56 206 -113 206c-70 0 -109 -73 -109 -206c0 -131 38 -205 105 -205c53 0 81 49 117 205z" />
    <glyph glyph-name="beta" unicode="&#x3b2;" horiz-adv-x="547" 
d="M80 -202v712c0 151 71 227 212 227c123 0 196 -65 196 -177c0 -65 -27 -120 -72 -146c-13 -8 -29 -14 -53 -22c92 -9 145 -73 145 -177c0 -136 -81 -230 -198 -230c-65 0 -103 22 -136 81v-268h-94zM249 404h23c75 0 111 49 111 150c0 92 -35 143 -99 143
c-45 0 -84 -29 -100 -73c-6 -19 -10 -53 -10 -98v-291c0 -55 5 -90 18 -120c22 -50 57 -76 101 -76c68 0 110 66 110 175c0 104 -40 150 -131 150l-23 -1v41z" />
    <glyph glyph-name="gamma" unicode="&#x3b3;" horiz-adv-x="502" 
d="M498 466l-126 -292c-61 -139 -68 -162 -68 -217c0 -9 0 -9 5 -64c1 -5 1 -10 1 -16c0 -47 -20 -79 -48 -79c-31 0 -51 26 -51 66c0 16 3 39 14 106c-36 170 -71 282 -116 372c-34 68 -57 89 -95 88h-11v36h102c33 1 61 -26 88 -84c50 -120 81 -231 88 -320
c8 27 14 45 17 53l24 61l108 290h68z" />
    <glyph glyph-name="delta" unicode="&#x3b4;" horiz-adv-x="500" 
d="M199 475l-11 9c-64 54 -84 84 -84 133c0 75 69 120 186 120c100 0 159 -35 159 -95c0 -35 -23 -60 -56 -60c-31 0 -55 23 -55 53c0 11 3 23 9 32s6 9 6 13c0 11 -21 17 -58 17c-57 0 -97 -25 -97 -62c0 -26 17 -50 60 -88c169 -146 208 -204 208 -313
c0 -139 -95 -249 -216 -249c-120 0 -216 110 -216 248c0 116 64 211 165 242zM243 438c-68 -4 -104 -76 -104 -205c0 -133 39 -205 111 -205c70 0 111 73 111 196c0 78 -40 150 -118 214z" />
    <glyph glyph-name="epsilon" unicode="&#x3b5;" horiz-adv-x="444" 
d="M285 256v-43h-50c-59 0 -93 -30 -93 -83s38 -84 104 -84c70 0 109 28 141 101l39 -16c-20 -48 -32 -69 -53 -90c-39 -39 -84 -56 -148 -56c-117 0 -191 55 -191 140c0 62 38 98 117 109c-71 14 -104 47 -104 105c0 92 69 142 195 142c103 0 171 -48 171 -119
c0 -40 -25 -68 -61 -68c-35 0 -60 23 -60 56c0 17 4 27 20 46c5 6 6 9 6 12c0 17 -26 30 -61 30c-64 0 -102 -37 -102 -99c0 -50 32 -83 80 -83h50z" />
    <glyph glyph-name="zeta" unicode="&#x3b6;" horiz-adv-x="415" 
d="M35 591l17 150c84 -10 226 -21 278 -21c29 0 55 4 75 12c12 5 15 6 20 6c11 0 17 -5 17 -16c0 -13 -3 -18 -16 -28c-183 -133 -287 -300 -287 -462c0 -69 21 -129 55 -158c21 -19 26 -21 95 -38c69 -18 99 -46 99 -94c0 -78 -84 -144 -182 -144c-51 0 -80 19 -80 53
c0 26 18 46 42 46c12 0 18 -3 27 -14c23 -27 30 -32 52 -32c40 0 71 29 71 67c0 22 -12 40 -33 49c-14 6 -14 6 -65 16c-50 10 -90 29 -116 56c-47 48 -70 111 -70 190c0 152 75 269 275 432c-87 0 -101 1 -153 7c-15 2 -32 3 -39 3c-23 0 -27 -7 -41 -59l-8 -27z" />
    <glyph glyph-name="eta" unicode="&#x3b7;" horiz-adv-x="579" 
d="M284 36v-36h-253v36h4c43 1 62 5 69 14c4 5 5 11 6 26v7v40v196c-1 70 -15 90 -66 92c-26 0 -31 2 -31 10c0 20 54 45 95 45c39 0 69 -18 80 -49c4 -11 5 -19 8 -43c47 74 98 107 166 107c60 0 110 -29 135 -77c18 -34 21 -51 21 -123v-166c0 -116 -19 -211 -52 -262
c-20 -30 -52 -55 -73 -55c-8 0 -13 5 -13 13c0 4 1 6 7 13c23 27 35 120 37 295v166c0 48 -7 78 -22 100c-15 21 -45 35 -71 35c-43 0 -88 -31 -109 -76c-11 -23 -18 -68 -18 -117v-104v-44c0 -36 9 -41 76 -43h4z" />
    <glyph glyph-name="theta" unicode="&#x3b8;" horiz-adv-x="500" 
d="M139 380h222c0 80 -8 165 -22 221c-13 55 -49 93 -89 93s-76 -38 -89 -93c-14 -56 -22 -141 -22 -221zM361 337h-222c0 -75 9 -161 22 -216s49 -93 89 -93s76 38 89 93c13 56 22 141 22 216zM252 737c51 0 111 -35 142 -82c45 -69 72 -178 72 -294
c0 -117 -26 -224 -72 -294c-31 -48 -91 -82 -144 -82s-113 34 -144 82c-45 69 -72 177 -72 292c0 118 26 228 72 296c32 49 91 82 146 82z" />
    <glyph glyph-name="iota" unicode="&#x3b9;" horiz-adv-x="327" 
d="M18 412v43l188 11v-312c0 -78 10 -98 49 -98c12 0 28 5 42 12c6 3 11 5 14 5c5 0 10 -7 10 -13c0 -31 -62 -69 -112 -69c-40 0 -69 17 -84 50c-9 21 -13 47 -13 97v224c0 43 -5 49 -43 50h-51z" />
    <glyph glyph-name="kappa" unicode="&#x3ba;" horiz-adv-x="600" 
d="M342 290l136 -185c39 -52 60 -64 116 -69v-36h-264v36h19c33 0 44 4 44 18c0 4 -2 10 -7 17l-111 156l-69 -64v-40v-44c0 -36 9 -41 76 -43h7v-36h-259v36h7c43 1 62 5 69 14c4 5 5 11 6 26v47v239c0 43 -5 49 -43 50h-51v43l188 11v-240l153 146c16 16 24 28 24 39
c0 13 -15 19 -47 19h-31v36h263v-36c-69 -9 -109 -29 -169 -87z" />
    <glyph glyph-name="lambda" unicode="&#x3bb;" horiz-adv-x="537" 
d="M93 117l126 343c-7 163 -21 228 -48 228c-8 0 -15 -5 -15 -10c0 -2 1 -5 2 -9c3 -9 5 -18 5 -26c0 -26 -21 -45 -51 -45c-35 0 -60 26 -60 62c0 44 39 77 91 77c77 0 103 -40 162 -245c22 -76 29 -98 39 -125l98 -277c21 -42 34 -53 68 -54h11v-36h-238v36h21
c34 0 46 7 46 26c0 3 0 3 -6 20l-98 323l-103 -292c-9 -25 -10 -29 -10 -39c0 -27 16 -38 54 -38h16v-36h-200v36h6c38 1 62 23 84 81z" />
    <glyph glyph-name="uni03BC" unicode="&#x3bc;" horiz-adv-x="611" 
d="M412 -7v83c-44 -64 -90 -91 -156 -91c-40 0 -72 9 -100 28c1 -4 1 -4 1 -12c1 -14 3 -28 6 -40l12 -51c4 -15 6 -31 6 -43c0 -39 -19 -69 -44 -69c-28 0 -41 24 -41 78c0 34 0 34 8 95c2 16 3 34 3 53c0 13 -1 29 -2 45c-2 29 -3 48 -3 52v25v216c0 43 -5 49 -43 50h-38
v43l175 11v-305c0 -55 2 -65 15 -84c13 -20 39 -31 70 -31c49 0 89 25 110 70c15 32 21 66 21 123v123c0 43 -5 49 -43 50h-51v43l188 11v-350c0 -65 5 -71 63 -73h25v-43z" />
    <glyph glyph-name="nu" unicode="&#x3bd;" horiz-adv-x="504" 
d="M8 430v36h79c57 -3 68 -13 100 -94l100 -270l143 364h60l-201 -481h-35l-146 341c-35 91 -45 102 -89 104h-11z" />
    <glyph glyph-name="xi" unicode="&#x3be;" horiz-adv-x="415" 
d="M346 366v-43h-38c-106 0 -169 -56 -169 -148c0 -69 30 -108 96 -126l48 -12c75 -20 105 -46 105 -94c0 -79 -83 -145 -182 -145c-51 0 -80 19 -80 53c0 27 18 47 42 47c12 0 18 -3 27 -15c22 -27 31 -32 52 -32c41 0 71 29 71 67c0 33 -18 49 -67 59l-43 9
c-63 14 -93 27 -123 54c-34 31 -51 74 -51 129c0 103 58 162 176 178c-95 20 -143 69 -143 147c0 82 56 135 173 166l3 1c-29 1 -53 2 -87 7c-15 2 -32 3 -39 3c-23 0 -28 -7 -42 -59l-7 -26l-33 3l17 152c84 -11 226 -22 278 -22c28 0 54 5 74 13c12 5 15 6 20 6
c11 0 17 -5 17 -16c0 -26 -16 -35 -94 -54c-113 -28 -174 -86 -174 -168c0 -79 55 -134 135 -134h38z" />
    <glyph glyph-name="omicron" unicode="&#x3bf;" horiz-adv-x="500" 
d="M252 481c118 0 214 -111 214 -248c0 -138 -96 -248 -216 -248s-216 110 -216 247c0 140 95 249 218 249zM252 438c-75 0 -113 -70 -113 -206c0 -132 39 -204 111 -204s111 72 111 205c0 132 -39 205 -109 205z" />
    <glyph glyph-name="pi" unicode="&#x3c0;" horiz-adv-x="653" 
d="M496 388v-234c0 -78 10 -98 49 -98c12 0 28 5 43 12c5 3 10 5 14 5s9 -6 9 -13c0 -31 -62 -69 -112 -69c-40 0 -69 17 -84 50c-9 21 -13 47 -13 97v250h-165c1 -30 2 -52 2 -81c0 -119 -18 -212 -52 -264c-20 -30 -52 -55 -73 -55c-8 0 -13 5 -13 13c0 4 1 6 7 13
c24 27 36 126 37 307v67h-29c-28 1 -57 -14 -77 -39c-12 -16 -17 -20 -25 -20s-14 6 -14 13c0 19 30 74 51 93c27 25 54 31 131 31h308c69 0 96 5 123 24c6 4 10 6 13 6c7 0 14 -6 14 -13c0 -5 0 -6 -10 -23l-41 -72h-93z" />
    <glyph glyph-name="rho" unicode="&#x3c1;" horiz-adv-x="520" 
d="M147 66v-268h-94v402c0 106 18 169 61 216c39 43 93 65 157 65c69 0 120 -24 157 -72c35 -45 53 -104 53 -170c0 -148 -85 -254 -202 -254c-62 0 -99 23 -132 81zM267 438c-76 0 -121 -79 -121 -209c0 -116 46 -190 118 -190s112 73 112 203c0 123 -41 196 -109 196z" />
    <glyph glyph-name="sigma1" unicode="&#x3c2;" horiz-adv-x="444" 
d="M168 -103c12 0 17 -3 27 -14c23 -28 30 -32 52 -32c40 0 71 29 71 67c0 32 -20 49 -67 59c-65 13 -91 21 -117 38c-61 38 -100 120 -100 210c0 150 93 256 223 256c89 0 156 -51 156 -119c0 -40 -25 -68 -61 -68c-35 0 -60 23 -60 56c0 17 4 27 20 46c5 6 6 9 6 12
c0 16 -26 30 -56 30c-73 0 -123 -80 -123 -199c0 -76 19 -134 55 -165c21 -19 26 -21 95 -39c69 -17 99 -45 99 -93c0 -78 -84 -144 -182 -144c-51 0 -80 19 -80 53c0 26 18 46 42 46z" />
    <glyph glyph-name="sigma" unicode="&#x3c3;" horiz-adv-x="535" 
d="M405 407c43 -57 61 -110 61 -176c0 -136 -97 -246 -216 -246c-120 0 -216 110 -216 248c0 73 25 137 72 185c43 44 92 63 167 63c30 0 51 -3 95 -13c45 -9 62 -12 86 -12c15 0 28 2 47 7c3 1 6 1 8 1c7 0 12 -10 12 -23c0 -20 -35 -36 -78 -36c-8 0 -23 1 -38 2zM272 424
c-42 0 -84 -24 -105 -61c-19 -32 -28 -76 -28 -134c0 -129 40 -201 111 -201c73 0 111 71 111 207c0 70 -11 128 -28 157c-14 22 -33 32 -61 32z" />
    <glyph glyph-name="tau" unicode="&#x3c4;" horiz-adv-x="491" 
d="M275 388v-234c0 -78 10 -98 49 -98c12 0 28 5 42 12c6 3 11 5 15 5s9 -7 9 -13c0 -31 -62 -69 -112 -69c-40 0 -69 17 -84 50c-9 21 -13 47 -13 97v250h-78c-29 1 -57 -14 -77 -39c-12 -16 -18 -20 -25 -20c-8 0 -14 6 -14 13c0 13 22 59 38 79c26 33 59 45 122 45h22
h166c68 0 95 5 122 24c6 4 10 6 13 6c7 0 14 -7 14 -13c0 -5 -3 -11 -9 -23l-42 -72h-158z" />
    <glyph glyph-name="upsilon" unicode="&#x3c5;" horiz-adv-x="545" 
d="M196 466v-304c0 -37 5 -57 18 -75c18 -26 49 -41 86 -41c86 0 141 76 141 195c0 48 -10 80 -32 108c-15 18 -17 20 -56 40c-16 8 -24 21 -24 38c0 32 24 54 58 54c68 0 111 -77 111 -197c0 -187 -84 -299 -224 -299c-107 0 -172 67 -172 177v200c0 43 -5 49 -43 50h-38
v43z" />
    <glyph glyph-name="phi" unicode="&#x3c6;" horiz-adv-x="652" 
d="M281 -79v64c-139 5 -247 112 -247 245c0 67 29 133 78 179c24 22 49 36 65 36c7 0 12 -5 12 -13c0 -5 -4 -14 -10 -24c-26 -40 -43 -109 -43 -176c0 -127 49 -195 145 -203v309c0 95 35 143 103 143c127 0 234 -113 234 -247c0 -137 -106 -244 -246 -249v-64v-44
c0 -36 9 -41 75 -43h7v-36h-255v36h7c43 1 62 5 69 14c4 5 5 11 6 26v47zM372 357v-328c96 8 144 76 144 206c0 49 -8 89 -26 126c-21 45 -53 75 -83 76c-24 1 -35 -25 -35 -80z" />
    <glyph glyph-name="chi" unicode="&#x3c7;" horiz-adv-x="519" 
d="M298 164l127 -260c28 -53 49 -70 87 -70h7v-36h-245v36h7c39 0 53 7 53 26c0 11 -2 18 -14 43l-76 160l-83 -159c-7 -13 -10 -25 -10 -37c0 -25 13 -33 51 -33h15v-36h-208v36h6c31 -1 58 21 91 75l114 208l-121 237c-33 59 -47 72 -84 77v35h230v-35h-14
c-30 0 -43 -8 -43 -26c0 -9 3 -18 10 -32l76 -156l63 124c17 34 20 42 20 58c0 21 -15 32 -45 32h-19v34h204v-34h-9c-29 -2 -49 -18 -75 -61z" />
    <glyph glyph-name="psi" unicode="&#x3c8;" horiz-adv-x="692" 
d="M420 466v-419c102 10 171 90 171 198c0 61 -22 104 -65 126c-40 20 -46 27 -46 52c0 34 26 58 62 58c64 0 104 -71 104 -184c0 -173 -85 -289 -226 -309v-68v-43c0 -37 9 -42 76 -43h11v-36h-255v36s1 1 3 1h26c49 4 49 5 48 85v65c-143 4 -226 74 -227 190v187
c0 43 -5 49 -43 50h-38v43l175 11v-291c-4 -82 43 -127 133 -129v420h91z" />
    <glyph glyph-name="omega" unicode="&#x3c9;" horiz-adv-x="669" 
d="M334 54c-24 -47 -61 -69 -120 -69c-109 0 -181 88 -181 219c0 122 45 205 140 259c21 11 39 18 49 18c9 0 18 -6 18 -13c0 -5 0 -5 -35 -42c-39 -41 -67 -131 -67 -218c0 -100 37 -163 96 -163c46 0 74 36 74 94c0 22 -2 29 -15 67c-3 10 -5 20 -5 32c0 32 21 59 46 59
s46 -27 46 -59c0 -17 0 -19 -12 -50c-5 -17 -8 -32 -8 -49c0 -58 28 -94 74 -94c59 0 96 63 96 162c0 65 -14 127 -40 180c-11 22 -11 22 -53 66c-6 7 -9 12 -9 15c0 7 9 13 18 13c11 0 33 -9 57 -23c91 -55 132 -135 132 -254c0 -131 -72 -219 -181 -219
c-59 0 -95 20 -120 69z" />
    <glyph glyph-name="iotadieresis" unicode="&#x3ca;" horiz-adv-x="327" 
d="M18 412v43l188 11v-312c0 -78 10 -98 49 -98c12 0 28 5 42 12c6 3 11 5 14 5c5 0 10 -7 10 -13c0 -31 -62 -69 -112 -69c-40 0 -69 17 -84 50c-9 21 -13 47 -13 97v224c0 43 -5 49 -43 50h-51zM70 644c27 0 50 -23 50 -50c0 -28 -22 -50 -51 -50c-26 0 -49 23 -49 50
s23 50 50 50zM269 644c28 0 50 -22 50 -50s-22 -50 -51 -50c-26 0 -49 23 -49 50s23 50 50 50z" />
    <glyph glyph-name="upsilondieresis" unicode="&#x3cb;" horiz-adv-x="545" 
d="M189 644c27 0 50 -23 50 -50c0 -28 -22 -50 -51 -50c-26 0 -49 23 -49 50s23 50 50 50zM388 644c28 0 50 -22 50 -50s-22 -50 -51 -50c-26 0 -49 23 -49 50s23 50 50 50zM196 466v-304c0 -37 5 -57 18 -75c18 -26 49 -41 86 -41c86 0 141 76 141 195c0 48 -10 80 -32 108
c-15 18 -17 20 -56 40c-16 8 -24 21 -24 38c0 32 24 54 58 54c68 0 111 -77 111 -197c0 -187 -84 -299 -224 -299c-107 0 -172 67 -172 177v200c0 43 -5 49 -43 50h-38v43z" />
    <glyph glyph-name="omicrontonos" unicode="&#x3cc;" horiz-adv-x="500" 
d="M252 481c118 0 214 -111 214 -248c0 -138 -96 -248 -216 -248s-216 110 -216 247c0 140 95 249 218 249zM252 438c-75 0 -113 -70 -113 -206c0 -132 39 -204 111 -204s111 72 111 205c0 132 -39 205 -109 205zM249 563l19 181c3 31 18 47 44 47c23 0 43 -19 43 -41
c0 -8 -3 -19 -7 -29l-79 -164z" />
    <glyph glyph-name="upsilontonos" unicode="&#x3cd;" horiz-adv-x="545" 
d="M274 563l19 181c4 31 19 47 45 47c23 0 43 -19 43 -41c0 -8 -3 -18 -8 -29l-78 -164zM196 466v-304c0 -37 5 -57 18 -75c18 -26 49 -41 86 -41c86 0 141 76 141 195c0 48 -10 80 -32 108c-15 18 -17 20 -56 40c-16 8 -24 21 -24 38c0 32 24 54 58 54
c68 0 111 -77 111 -197c0 -187 -84 -299 -224 -299c-107 0 -172 67 -172 177v200c0 43 -5 49 -43 50h-38v43z" />
    <glyph glyph-name="omegatonos" unicode="&#x3ce;" horiz-adv-x="669" 
d="M334 54c-24 -47 -61 -69 -120 -69c-109 0 -181 88 -181 219c0 122 45 205 140 259c21 11 39 18 49 18c9 0 18 -6 18 -13c0 -5 0 -5 -35 -42c-39 -41 -67 -131 -67 -218c0 -100 37 -163 96 -163c46 0 74 36 74 94c0 22 -2 29 -15 67c-3 10 -5 20 -5 32c0 32 21 59 46 59
s46 -27 46 -59c0 -17 0 -19 -12 -50c-5 -17 -8 -32 -8 -49c0 -58 28 -94 74 -94c59 0 96 63 96 162c0 65 -14 127 -40 180c-11 22 -11 22 -53 66c-6 7 -9 12 -9 15c0 7 9 13 18 13c11 0 33 -9 57 -23c91 -55 132 -135 132 -254c0 -131 -72 -219 -181 -219
c-59 0 -95 20 -120 69zM317 563l19 181c3 31 18 47 45 47c23 0 43 -19 43 -41c0 -8 -3 -18 -8 -29l-78 -164z" />
    <glyph glyph-name="theta1" unicode="&#x3d1;" horiz-adv-x="502" 
d="M453 380h56v-43h-56c-10 -224 -95 -352 -234 -352c-57 0 -105 23 -141 68c-30 38 -51 94 -51 137c0 49 29 93 79 120c12 7 21 10 27 10c5 0 7 -5 7 -13c0 -3 -1 -7 -2 -12c-9 -36 -11 -56 -11 -91c0 -108 38 -176 98 -176c40 0 75 32 94 86c18 52 26 110 29 223
c-95 6 -124 11 -177 33c-87 36 -135 101 -135 182c0 105 81 185 189 185c142 0 223 -126 228 -357zM348 380c0 93 -11 178 -29 231c-18 52 -52 83 -92 83c-52 0 -84 -49 -84 -128c0 -120 65 -179 205 -186z" />
    <glyph glyph-name="phi1" unicode="&#x3d5;" horiz-adv-x="652" 
d="M281 -79v64c-140 5 -247 112 -247 248s107 243 247 248v152c0 43 -5 49 -42 50h-49v43l182 11v-256c140 -5 246 -112 246 -248s-107 -243 -246 -248v-64v-44c0 -36 9 -41 75 -43h7v-36h-255v36h7c43 1 62 5 69 14c4 5 5 11 6 25v48zM281 28v410
c-97 -9 -145 -77 -145 -205s48 -196 145 -205zM372 438v-410c96 9 144 77 144 205c0 127 -48 196 -144 205z" />
    <glyph glyph-name="omega1" unicode="&#x3d6;" horiz-adv-x="611" 
d="M200 432l29 -30c-39 -43 -43 -48 -56 -66c-26 -34 -38 -73 -38 -119c0 -77 36 -123 96 -123c25 0 40 6 65 24c-1 7 -3 12 -3 14l-9 39c-3 15 -5 30 -5 45c0 45 27 82 60 82c29 0 49 -26 49 -62c0 -31 -4 -42 -39 -118c29 -17 45 -22 67 -22c58 0 106 50 106 109
c0 34 0 34 -59 117c-22 30 -26 40 -26 56c0 30 20 54 45 54c55 0 91 -66 91 -166c0 -147 -75 -278 -159 -278c-36 0 -55 16 -95 81c-48 -63 -78 -82 -127 -82c-80 0 -142 80 -142 183c0 95 48 179 150 262zM197 590h306v-82h-306v82z" />
    <glyph glyph-name="uni0400" unicode="&#x400;" horiz-adv-x="722" 
d="M630 722l14 -255h-43c-32 173 -73 209 -237 208h-52c-55 -1 -64 -8 -63 -50v-228h24c95 0 134 39 140 137h47v-328h-47c-4 111 -41 148 -144 144h-20v-255c-3 -36 12 -46 72 -48h66c153 4 194 42 232 220h44l-20 -267h-614v47h18c57 0 76 4 84 14c6 9 6 11 6 62v476
c0 51 0 53 -6 62c-8 10 -27 13 -84 14h-18v47h601zM434 787h-40l-159 98c-16 9 -26 24 -26 38c0 20 15 35 35 35c15 0 25 -6 50 -30z" />
    <glyph glyph-name="uni0401" unicode="&#x401;" horiz-adv-x="722" 
d="M630 722l14 -255h-43c-32 173 -73 209 -237 208h-52c-55 -1 -64 -8 -63 -50v-228h24c95 0 134 39 140 137h47v-328h-47c-4 111 -41 148 -144 144h-20v-255c-3 -36 12 -46 72 -48h66c153 4 194 42 232 220h44l-20 -267h-614v47h18c57 0 76 4 84 14c6 9 6 11 6 62v476
c0 51 0 53 -6 62c-8 10 -27 13 -84 14h-18v47h601zM260 902c28 0 50 -22 50 -50s-22 -50 -51 -50c-27 0 -49 23 -49 50c0 28 22 50 50 50zM459 902c28 0 50 -22 50 -50s-22 -50 -51 -50c-27 0 -49 23 -49 50c0 28 22 50 50 50z" />
    <glyph glyph-name="uni0402" unicode="&#x402;" horiz-adv-x="831" 
d="M390 639v-264c55 30 145 52 207 52c147 0 241 -82 241 -210c0 -139 -88 -232 -219 -232c-83 0 -140 42 -140 102c0 45 27 76 68 76s66 -23 66 -62c0 -11 -2 -17 -10 -28c-5 -6 -7 -10 -7 -14c0 -17 16 -27 42 -27c56 0 88 60 88 166c0 111 -52 175 -143 175
c-54 0 -123 -18 -193 -52v-321h-228v47h26c57 1 76 4 84 14c6 9 6 11 6 62v516c0 25 -14 36 -48 36c-67 0 -115 -33 -141 -97c-12 -30 -20 -62 -27 -107h-43l15 251h599l15 -251h-43c-8 50 -18 87 -34 121c-23 52 -73 83 -134 83c-33 0 -47 -11 -47 -36z" />
    <glyph glyph-name="uni0403" unicode="&#x403;" horiz-adv-x="667" 
d="M646 448h-44c-33 180 -78 224 -233 227h-42c-60 -2 -75 -12 -72 -48v-504c0 -50 0 -53 6 -62c8 -10 27 -14 84 -14h18v-47h-328v47h18c57 0 76 4 84 14c6 9 6 11 6 62v476c0 51 0 53 -6 62c-8 10 -27 13 -84 14h-18v47h590zM303 787l140 141c25 24 35 30 51 30
c19 0 34 -15 34 -34c0 -15 -10 -30 -25 -39l-159 -98h-41z" />
    <glyph glyph-name="uni0404" unicode="&#x404;" horiz-adv-x="722" 
d="M178 388h254v-54h-255c5 -206 74 -302 218 -302c124 0 199 74 227 224l46 -9c-23 -168 -124 -262 -284 -262c-198 0 -339 153 -339 369c0 103 30 187 94 263c68 80 148 120 244 120c69 0 106 -14 178 -67l40 59h39l14 -289h-44c-25 82 -38 117 -57 149
c-37 64 -99 101 -169 101c-90 0 -157 -57 -187 -160c-10 -36 -17 -82 -19 -142z" />
    <glyph glyph-name="uni0405" unicode="&#x405;" horiz-adv-x="630" 
d="M546 728l12 -260h-43c-12 51 -31 93 -60 134c-40 57 -98 87 -167 87c-85 0 -142 -48 -142 -118c0 -61 42 -100 131 -123l107 -27c80 -20 119 -37 146 -63c40 -38 60 -90 60 -153c0 -134 -94 -220 -241 -220c-88 0 -143 20 -210 75l-45 -68h-39l-4 285h43
c15 -77 36 -125 78 -171c47 -52 100 -75 174 -75c55 0 88 11 121 39c30 28 45 61 45 101c0 39 -16 72 -46 95c-21 16 -28 18 -102 37l-95 24c-147 38 -201 92 -201 201c0 126 87 209 219 209c71 0 134 -24 182 -69l40 60h37z" />
    <glyph glyph-name="uni0406" unicode="&#x406;" horiz-adv-x="407" 
d="M38 675v47h331v-47h-20c-57 -1 -75 -4 -83 -14c-6 -9 -6 -11 -6 -62v-476c0 -51 0 -53 6 -62c8 -11 27 -14 83 -14h20v-47h-331v47h20c57 0 76 4 84 14c6 9 6 12 6 62v476c0 50 0 53 -6 62c-8 10 -27 13 -84 14h-20z" />
    <glyph glyph-name="uni0407" unicode="&#x407;" horiz-adv-x="407" 
d="M38 675v47h331v-47h-20c-57 -1 -75 -4 -83 -14c-6 -9 -6 -11 -6 -62v-476c0 -51 0 -53 6 -62c8 -11 27 -14 83 -14h20v-47h-331v47h20c57 0 76 4 84 14c6 9 6 12 6 62v476c0 50 0 53 -6 62c-8 10 -27 13 -84 14h-20zM104 902c28 0 50 -22 50 -50s-22 -50 -51 -50
c-27 0 -49 23 -49 50c0 28 22 50 50 50zM303 902c28 0 50 -22 50 -50s-22 -50 -51 -50c-27 0 -49 23 -49 50c0 28 22 50 50 50z" />
    <glyph glyph-name="uni0408" unicode="&#x408;" horiz-adv-x="556" 
d="M209 675v47h328v-47h-19c-57 -1 -76 -4 -83 -14c-7 -9 -7 -11 -7 -62v-331c0 -98 -11 -158 -37 -198c-35 -56 -99 -85 -188 -85c-60 0 -106 14 -140 43c-36 30 -58 79 -58 127c0 71 42 122 100 122c44 0 75 -30 75 -72c0 -41 -27 -72 -63 -72c-12 0 -20 1 -37 5h-3
c-7 0 -12 -7 -12 -16c0 -12 8 -32 19 -46c21 -27 60 -44 102 -44c58 0 99 30 118 86c10 31 13 71 13 159v322c0 51 0 53 -6 62c-8 10 -27 13 -84 14h-18z" />
    <glyph glyph-name="uni0409" unicode="&#x409;" horiz-adv-x="1058" 
d="M159 675v47h619v-47h-18c-57 0 -75 -3 -84 -14c-6 -9 -6 -11 -6 -62v-198h100c100 0 149 -9 193 -35c62 -36 95 -95 95 -169c0 -128 -94 -197 -271 -197h-337v47h18c57 1 76 4 84 14c6 9 6 11 6 62v469c0 57 0 60 -15 69c-9 4 -33 7 -72 7h-58c-44 0 -67 -3 -75 -9
c-11 -10 -11 -11 -11 -67v-94c0 -149 -9 -267 -28 -346c-25 -109 -79 -161 -168 -161c-81 0 -138 53 -138 128c0 52 32 86 80 86c42 0 73 -28 73 -67c0 -24 -8 -38 -31 -55c-12 -10 -17 -16 -17 -22c0 -11 18 -20 39 -20c55 0 96 51 113 141c13 69 19 160 19 304v113
c0 50 0 53 -7 62c-8 11 -27 14 -85 14h-18zM670 354v-256c0 -46 5 -51 61 -51h50c105 0 154 49 154 155c0 103 -51 152 -158 152h-107z" />
    <glyph glyph-name="uni040A" unicode="&#x40a;" horiz-adv-x="1070" 
d="M571 347h-322v-224c0 -51 0 -53 7 -62c8 -10 26 -13 83 -14h19v-47h-329v47h18c57 0 76 4 84 14c6 9 6 12 6 62v476c0 51 0 53 -6 62c-9 11 -27 14 -84 14h-18v47h329v-47h-19c-57 0 -75 -3 -83 -14c-7 -9 -7 -11 -7 -62v-198h322v198c0 50 0 53 -6 62
c-8 10 -27 13 -84 14h-18v47h336v-47h-26c-57 -1 -76 -4 -84 -14c-6 -9 -6 -11 -6 -62v-198h100c100 0 149 -9 193 -35c62 -36 95 -95 95 -168c0 -129 -94 -198 -271 -198h-337v47h18c57 0 76 4 84 14c6 9 6 12 6 62v224zM683 352v-254c0 -46 5 -51 61 -51h50
c105 0 154 49 154 154c0 103 -50 151 -158 151h-107z" />
    <glyph glyph-name="uni040B" unicode="&#x40b;" horiz-adv-x="944" 
d="M390 639v-250c52 29 146 51 216 51c102 0 177 -35 211 -98c18 -32 21 -53 21 -133v-86c0 -50 0 -53 6 -62c8 -10 27 -14 83 -14h10v-47h-320v47h19c57 1 75 4 83 14c7 9 7 10 7 62v98c0 69 -2 81 -13 104c-19 41 -60 61 -122 61c-65 0 -117 -13 -201 -51v-212
c0 -51 0 -53 6 -62c8 -10 27 -13 83 -14h26v-47h-343v47h26c57 1 76 4 84 14c6 9 6 11 6 62v516c0 25 -14 36 -48 36c-67 0 -115 -33 -141 -97c-12 -30 -20 -62 -27 -107h-43l15 251h599l15 -251h-43c-8 50 -18 87 -34 121c-23 52 -73 83 -134 83c-33 0 -47 -11 -47 -36z
" />
    <glyph glyph-name="uni040C" unicode="&#x40c;" horiz-adv-x="763" 
d="M358 0h-328v47h18c57 0 76 4 84 14c6 9 6 12 6 62v476c0 50 0 53 -6 62c-8 10 -27 13 -84 14h-18v47h328v-47h-18c-57 -1 -76 -4 -83 -14c-7 -9 -7 -12 -7 -62v-198h73c83 2 120 46 129 155c7 68 19 102 50 135c27 30 65 46 108 46c72 0 127 -46 127 -107
c0 -46 -35 -82 -80 -82c-43 0 -75 29 -75 68c0 15 3 24 14 38c7 10 10 16 10 22c0 7 -4 10 -13 10c-23 0 -43 -11 -56 -30c-17 -27 -18 -32 -30 -123c-14 -85 -39 -130 -85 -151v-4c100 -11 155 -80 174 -216c10 -63 23 -87 48 -87c28 0 50 45 50 101v17h56v-21
c0 -113 -56 -187 -140 -187c-79 0 -123 56 -143 179c-24 158 -47 187 -144 183h-73v-224c0 -50 0 -53 7 -62c7 -10 26 -14 83 -14h18v-47zM343 787l141 141c24 24 34 30 50 30c19 0 34 -15 34 -35c0 -14 -10 -29 -25 -38l-159 -98h-41z" />
    <glyph glyph-name="uni040D" unicode="&#x40d;" horiz-adv-x="833" 
d="M473 787h-41l-159 98c-15 9 -25 24 -25 38c0 20 15 35 35 35c15 0 25 -6 50 -30zM584 535l-335 -445c0 -38 9 -42 90 -43h19v-47h-329v47h18c57 0 76 4 84 14c6 9 6 12 6 62v476c0 51 0 53 -6 62c-9 11 -27 14 -84 14h-18v47h329v-47h-19c-57 0 -75 -3 -83 -14
c-7 -9 -7 -11 -7 -62v-426l335 445v5v5c1 42 -7 46 -90 47h-14v47h324v-47h-18c-57 0 -75 -3 -84 -14c-6 -9 -6 -10 -6 -62v-476c0 -52 0 -53 6 -62c8 -10 27 -14 84 -14h18v-47h-328v47h18c57 0 76 4 84 14c6 9 6 11 6 62v412z" />
    <glyph glyph-name="uni040E" unicode="&#x40e;" horiz-adv-x="739" 
d="M746 675h-10c-59 -3 -73 -15 -111 -98l-221 -472c-39 -84 -88 -120 -161 -120c-91 0 -161 63 -161 143c0 51 31 85 76 85c41 0 71 -27 71 -64c0 -27 -15 -49 -43 -63c-9 -4 -11 -6 -11 -10c0 -22 33 -45 65 -45c30 0 63 18 84 46c12 16 19 30 29 59l-249 483
c-17 45 -30 55 -77 56h-20v47h312v-47h-40c-45 0 -62 -7 -62 -24c0 -6 5 -25 8 -32l188 -365l145 309c12 26 17 44 17 60c0 32 -30 52 -81 52h-19v47h271v-47zM519 943c35 0 59 -24 59 -58c0 -60 -65 -98 -167 -98c-103 0 -168 38 -168 99c0 33 25 57 59 57
c29 0 51 -20 51 -46c0 -16 -7 -27 -22 -34c-7 -4 -10 -7 -10 -12c0 -16 32 -24 94 -24c55 0 85 9 85 24c0 5 -3 8 -10 12c-15 7 -22 18 -22 34c0 26 23 46 51 46z" />
    <glyph glyph-name="uni040F" unicode="&#x40f;" horiz-adv-x="833" 
d="M475 675v47h329v-47h-18c-57 -1 -76 -4 -84 -14c-6 -9 -6 -12 -6 -62v-476c0 -51 0 -53 6 -62c8 -11 27 -14 84 -14h18v-47h-173l-25 -2c-104 -2 -159 -70 -165 -206h-49c-6 136 -61 204 -165 206l-25 2h-173v47h18c57 0 76 3 84 14c6 9 6 11 6 62v476c0 50 0 53 -6 62
c-8 10 -27 13 -84 14h-18v47h329v-47h-19c-57 -1 -76 -4 -83 -14c-7 -9 -7 -11 -7 -62v-469c0 -57 0 -60 15 -69c9 -4 33 -7 72 -7h161c43 0 67 3 75 9c12 10 12 11 12 67v469c0 51 0 53 -7 62c-7 10 -26 13 -83 14h-19z" />
    <glyph glyph-name="uni0410" unicode="&#x410;" horiz-adv-x="722" 
d="M378 736l255 -625c23 -57 32 -63 84 -64h14v-47h-310v47h42c37 0 62 10 62 26c0 5 -2 11 -8 27l-54 134h-265l-33 -88c-6 -17 -9 -29 -9 -42c0 -38 27 -57 81 -57h20v-47h-265v47h4c57 4 83 28 110 106l230 583h42zM329 572l-111 -284h224z" />
    <glyph glyph-name="uni0411" unicode="&#x411;" horiz-adv-x="667" 
d="M248 401h113c101 0 149 -9 193 -35c62 -36 95 -95 95 -169c0 -128 -94 -197 -271 -197h-350v47h18c57 0 76 4 84 14c6 9 6 11 6 62v476c0 51 0 53 -6 62c-8 10 -27 13 -84 14h-18v47h577l21 -274h-44c-34 180 -78 224 -233 227h-29c-60 -2 -75 -12 -72 -48v-226zM248 354
v-256c0 -46 5 -51 61 -51h64c105 0 153 49 153 155c0 103 -51 152 -157 152h-121z" />
    <glyph glyph-name="uni0412" unicode="&#x412;" horiz-adv-x="722" 
d="M30 722h359c59 0 109 -8 145 -24c58 -25 98 -88 98 -153c0 -50 -25 -99 -66 -130c-26 -19 -48 -28 -96 -38c137 -24 200 -81 200 -181c0 -123 -104 -196 -277 -196h-363v47h18c57 0 76 4 84 14c6 9 6 11 6 62v476c0 51 0 53 -6 62c-8 10 -27 13 -84 14h-18v47zM250 397
h89c129 0 177 38 177 137c0 56 -19 98 -55 120c-21 13 -59 21 -105 21h-40c-53 -1 -66 -11 -66 -50v-228zM250 350v-240c-2 -53 8 -63 58 -63h42c63 0 105 7 136 23c39 19 61 65 61 129c0 110 -56 151 -209 151h-88z" />
    <glyph glyph-name="uni0413" unicode="&#x413;" horiz-adv-x="667" 
d="M646 448h-44c-33 180 -78 224 -233 227h-42c-60 -2 -75 -12 -72 -48v-504c0 -50 0 -53 6 -62c8 -10 27 -14 84 -14h18v-47h-328v47h18c57 0 76 4 84 14c6 9 6 11 6 62v476c0 51 0 53 -6 62c-8 10 -27 13 -84 14h-18v47h590z" />
    <glyph glyph-name="uni0414" unicode="&#x414;" horiz-adv-x="762" 
d="M101 675v47h632v-47h-18c-57 0 -75 -3 -84 -14c-6 -9 -6 -11 -6 -62v-476c0 -51 0 -53 6 -62c7 -10 27 -13 77 -14h25v-255h-49c-8 147 -65 209 -190 208h-255c-125 1 -182 -61 -190 -208h-49v255c67 -2 103 20 136 83c34 63 68 255 74 418v51c0 50 0 53 -7 62
c-8 11 -27 14 -84 14h-18zM150 54h276c43 0 67 3 75 9c12 9 12 11 12 67v462c0 58 0 60 -15 69c-9 4 -33 7 -72 7h-72c-53 0 -73 -4 -80 -14c-6 -9 -6 -12 -6 -62v-26c-10 -261 -54 -453 -118 -512z" />
    <glyph glyph-name="uni0415" unicode="&#x415;" horiz-adv-x="722" 
d="M630 722l14 -255h-43c-32 173 -73 209 -237 208h-52c-55 -1 -64 -8 -63 -50v-228h24c95 0 134 39 140 137h47v-328h-47c-4 111 -41 148 -144 144h-20v-255c-3 -36 12 -46 72 -48h66c153 4 194 42 232 220h44l-20 -267h-614v47h18c57 0 76 4 84 14c6 9 6 11 6 62v476
c0 51 0 53 -6 62c-8 10 -27 13 -84 14h-18v47h601z" />
    <glyph glyph-name="uni0416" unicode="&#x416;" horiz-adv-x="1109" 
d="M392 0v47h18c56 0 75 4 83 14c7 9 7 12 7 62v224h-60c-98 4 -120 -25 -144 -183c-20 -123 -64 -179 -143 -179c-84 0 -140 74 -140 187v21h56v-17c0 -56 22 -101 50 -101c25 0 38 25 48 87c19 136 74 205 174 216v4c-53 25 -77 77 -90 193c-10 76 -36 111 -81 111
c-9 0 -12 -3 -12 -10c0 -6 2 -12 9 -22c11 -15 14 -22 14 -38c0 -39 -32 -68 -76 -68c-45 0 -79 36 -79 82c0 61 54 107 127 107c46 0 85 -18 113 -52c27 -33 38 -64 44 -129c10 -109 47 -153 130 -155h60v198c0 50 0 53 -7 62c-7 10 -26 13 -83 14h-18v47h324v-47h-19
c-56 -1 -74 -4 -82 -14c-6 -9 -7 -12 -6 -62v-198h58c84 2 121 46 130 155c6 67 19 102 49 135c28 30 65 46 108 46c73 0 128 -46 128 -107c0 -46 -35 -82 -80 -82c-44 0 -75 29 -75 68c0 15 3 24 13 38c7 10 10 16 10 22c0 7 -4 10 -13 10c-23 0 -43 -11 -56 -30
c-17 -27 -18 -32 -30 -123c-13 -84 -39 -130 -85 -151v-4c100 -11 156 -80 175 -216c10 -63 23 -87 47 -87c28 0 50 45 50 101v17h56v-21c0 -113 -55 -187 -140 -187c-78 0 -122 56 -142 179c-24 158 -47 187 -145 183h-58v-224c-1 -50 0 -53 6 -62c8 -10 26 -14 82 -14h19
v-47h-324z" />
    <glyph glyph-name="uni0417" unicode="&#x417;" horiz-adv-x="676" 
d="M122 729l40 -59c74 55 110 67 200 67c162 0 262 -71 262 -186c0 -65 -30 -122 -83 -155c-29 -19 -55 -27 -102 -33c70 -10 104 -22 136 -46c39 -30 62 -75 62 -125c0 -58 -30 -113 -82 -149c-53 -38 -133 -58 -229 -58c-103 0 -179 25 -231 76c-35 35 -57 81 -57 122
c0 57 37 98 87 98c48 0 83 -32 83 -77c0 -32 -26 -62 -54 -62h-3c-9 0 -13 -5 -13 -16c0 -16 16 -38 40 -55c35 -25 84 -39 137 -39c117 0 190 61 190 159c0 52 -23 96 -62 119c-28 17 -64 24 -115 24h-37v54h37c48 0 78 7 103 24c39 26 61 72 61 130c0 91 -57 148 -147 148
c-82 0 -144 -40 -184 -117c-15 -30 -28 -64 -48 -133h-44l14 289h39z" />
    <glyph glyph-name="uni0418" unicode="&#x418;" horiz-adv-x="833" 
d="M584 535l-335 -445c0 -38 9 -42 90 -43h19v-47h-329v47h18c57 0 76 4 84 14c6 9 6 12 6 62v476c0 51 0 53 -6 62c-9 11 -27 14 -84 14h-18v47h329v-47h-19c-57 0 -75 -3 -83 -14c-7 -9 -7 -11 -7 -62v-426l335 445v5v5c1 42 -7 46 -90 47h-14v47h324v-47h-18
c-57 0 -75 -3 -84 -14c-6 -9 -6 -10 -6 -62v-476c0 -52 0 -53 6 -62c8 -10 27 -14 84 -14h18v-47h-328v47h18c57 0 76 4 84 14c6 9 6 11 6 62v412z" />
    <glyph glyph-name="uni0419" unicode="&#x419;" horiz-adv-x="833" 
d="M527 943c34 0 59 -24 59 -58c0 -60 -65 -98 -167 -98c-103 0 -167 38 -167 99c0 33 25 57 59 57c29 0 51 -20 51 -46c0 -16 -7 -27 -22 -34c-7 -4 -10 -7 -10 -12c0 -16 32 -24 93 -24c55 0 85 9 85 24c0 5 -3 8 -10 12c-15 7 -22 18 -22 34c0 26 22 46 51 46zM584 535
l-335 -445c0 -38 9 -42 90 -43h19v-47h-329v47h18c57 0 76 4 84 14c6 9 6 12 6 62v476c0 51 0 53 -6 62c-9 11 -27 14 -84 14h-18v47h329v-47h-19c-57 0 -75 -3 -83 -14c-7 -9 -7 -11 -7 -62v-426l335 445v5v5c1 42 -7 46 -90 47h-14v47h324v-47h-18c-57 0 -75 -3 -84 -14
c-6 -9 -6 -10 -6 -62v-476c0 -52 0 -53 6 -62c8 -10 27 -14 84 -14h18v-47h-328v47h18c57 0 76 4 84 14c6 9 6 11 6 62v412z" />
    <glyph glyph-name="uni041A" unicode="&#x41a;" horiz-adv-x="763" 
d="M250 347v-224c0 -50 0 -53 7 -62c7 -10 26 -14 83 -14h18v-47h-328v47h18c57 0 76 4 84 14c6 9 6 12 6 62v476c0 50 0 53 -6 62c-8 10 -27 13 -84 14h-18v47h328v-47h-18c-57 -1 -76 -4 -83 -14c-7 -9 -7 -12 -7 -62v-198h73c83 2 120 46 129 155c7 68 19 102 50 135
c27 30 65 46 108 46c72 0 127 -46 127 -107c0 -46 -35 -82 -80 -82c-43 0 -75 29 -75 68c0 15 3 24 14 38c7 10 10 16 10 22c0 7 -4 10 -13 10c-23 0 -43 -11 -56 -30c-17 -27 -18 -32 -30 -123c-14 -85 -39 -130 -85 -151v-4c100 -11 155 -80 174 -216
c10 -63 23 -87 48 -87c28 0 50 45 50 101v17h56v-21c0 -113 -56 -187 -140 -187c-79 0 -123 56 -143 179c-24 158 -47 187 -144 183h-73z" />
    <glyph glyph-name="uni041B" unicode="&#x41b;" horiz-adv-x="821" 
d="M159 722h633v-47h-18c-57 0 -75 -3 -84 -14c-6 -9 -6 -11 -6 -62v-476c0 -51 0 -53 6 -62c8 -10 26 -13 84 -14h18v-47h-328v47h18c57 1 76 4 84 14c6 9 6 12 6 62v469c0 57 0 60 -15 69c-9 4 -33 7 -72 7h-72c-43 0 -67 -3 -75 -9c-11 -10 -11 -11 -11 -67v-94
c0 -149 -9 -267 -28 -346c-25 -109 -79 -161 -168 -161c-81 0 -138 53 -138 128c0 52 32 86 80 86c42 0 73 -28 73 -67c0 -24 -8 -38 -31 -55c-12 -10 -17 -16 -17 -22c0 -11 18 -20 39 -20c55 0 96 51 113 141c13 69 19 160 19 304v113c0 50 0 53 -7 62
c-8 11 -27 14 -85 14h-18v47z" />
    <glyph glyph-name="uni041C" unicode="&#x41c;" horiz-adv-x="944" 
d="M287 722l192 -533l183 533h251v-47h-18c-57 -1 -76 -4 -84 -14c-6 -9 -6 -11 -6 -62v-476c0 -52 0 -53 6 -63c8 -10 27 -13 84 -13h18v-47h-328v47h18c57 0 76 3 84 13c6 10 6 12 6 63v535l-223 -658h-40l-238 658v-442c0 -136 19 -164 115 -169v-47h-285v47
c97 5 116 33 116 169v383c0 52 0 53 -7 62c-7 10 -26 13 -83 14h-19v47h258z" />
    <glyph glyph-name="uni041D" unicode="&#x41d;" horiz-adv-x="833" 
d="M584 347h-335v-224c0 -51 0 -53 7 -62c8 -10 26 -13 83 -14h19v-47h-329v47h18c57 0 76 4 84 14c6 9 6 12 6 62v476c0 51 0 53 -6 62c-9 11 -27 14 -84 14h-18v47h329v-47h-19c-57 0 -75 -3 -83 -14c-7 -9 -7 -11 -7 -62v-198h335v198c0 51 0 53 -6 62
c-9 11 -27 14 -84 14h-14v47h324v-47h-18c-57 0 -75 -3 -84 -14c-6 -9 -6 -10 -6 -62v-476c0 -52 0 -53 6 -62c8 -10 27 -14 84 -14h18v-47h-328v47h18c57 0 76 4 84 14c6 9 6 11 6 62v224z" />
    <glyph glyph-name="uni041E" unicode="&#x41e;" horiz-adv-x="778" 
d="M393 737c192 0 340 -164 340 -376c0 -214 -148 -376 -344 -376c-86 0 -162 29 -222 84c-76 70 -122 179 -122 291c0 114 45 222 122 293c60 56 137 84 226 84zM392 690c-75 0 -128 -28 -165 -86c-37 -60 -50 -121 -50 -241c0 -125 12 -184 50 -245c36 -56 91 -86 162 -86
s126 30 162 86c37 60 50 121 50 243c0 123 -13 184 -50 243c-36 56 -92 86 -159 86z" />
    <glyph glyph-name="uni041F" unicode="&#x41f;" horiz-adv-x="833" 
d="M29 722h775v-47h-18c-57 0 -75 -3 -84 -14c-6 -9 -6 -10 -6 -62v-476c0 -52 0 -53 6 -62c8 -10 27 -14 84 -14h18v-47h-328v47h18c57 0 76 4 84 14c6 9 6 11 6 62v469c0 58 0 60 -15 68c-9 5 -34 8 -72 8h-161c-43 0 -67 -3 -75 -9c-12 -9 -12 -12 -12 -67v-469
c0 -51 0 -53 7 -62c8 -10 26 -13 83 -14h19v-47h-329v47h18c57 0 76 4 84 14c6 9 6 12 6 62v476c0 51 0 53 -6 62c-9 11 -27 14 -84 14h-18v47z" />
    <glyph glyph-name="uni0420" unicode="&#x420;" horiz-adv-x="667" 
d="M248 321v-198c0 -51 0 -53 6 -62c8 -10 27 -14 84 -14h26v-47h-336v47h18c57 0 76 4 84 14c6 9 6 11 6 62v476c0 51 0 53 -6 62c-8 10 -27 13 -84 14h-18v47h350c177 0 271 -69 271 -197c0 -80 -40 -144 -110 -178c-41 -19 -88 -26 -178 -26h-113zM248 368h121
c106 0 157 49 157 152c0 106 -49 155 -153 155h-64c-56 0 -61 -5 -61 -51v-256z" />
    </font>
</defs>
</svg>
