<?xml version="1.0" standalone="no"?>
<!DOCTYPE svg PUBLIC "-//W3C//DTD SVG 1.1//EN" "http://www.w3.org/Graphics/SVG/1.1/DTD/svg11.dtd" >
<svg xmlns="http://www.w3.org/2000/svg" xmlns:xlink="http://www.w3.org/1999/xlink" version="1.1">
<metadata>
Created by FontForge 20170924 at Fri Jan 20 14:14:33 2012
 By Glenn,,,
Sonsie One is a heavy, medium contrast, large x height script font. It was inspired by hand painted signs seen in Munich. Sonsie One improves on its sources by adding warmth, smoother flow and of touch of funkiness. Sonsie One is best used for display purposes at medium to large sizes.
</metadata>
<defs>
<font id="SonsieOne" horiz-adv-x="1877" >
  <font-face 
    font-family="Sonsie One"
    font-weight="400"
    font-stretch="normal"
    units-per-em="2048"
    panose-1="2 0 0 0 0 0 0 0 0 0"
    ascent="1638"
    descent="-410"
    x-height="1040"
    cap-height="1536"
    bbox="-377 -600 3114 2050"
    underline-thickness="102"
    underline-position="-205"
    unicode-range="U+0001-FB02"
  />
<missing-glyph horiz-adv-x="1875" 
d="M173 -68v1938h1530v-1938h-1530zM525 1283c-23 -23 -34 -40 -34 -56c0 -34 135 -193 272 -333c-97 -81 -187 -155 -252 -212c-56 -49 -148 -110 -148 -165c0 -37 120 -157 155 -157c13 0 24 6 33 14c85 79 229 200 376 323c54 -70 103 -137 139 -187
c35 -50 103 -149 146 -149c29 0 173 118 173 149c0 38 -131 149 -244 279l-44 50c97 81 185 155 246 210c61 54 153 117 153 165c0 44 -81 106 -114 139c-17 16 -32 23 -45 23s-24 -6 -32 -14c-92 -90 -224 -205 -369 -325c-116 146 -224 286 -257 324c-12 13 -23 18 -33 18
c-21 0 -84 -60 -121 -96z" />
    <glyph glyph-name=".notdef" horiz-adv-x="1875" 
d="M173 -68v1938h1530v-1938h-1530zM525 1283c-23 -23 -34 -40 -34 -56c0 -34 135 -193 272 -333c-97 -81 -187 -155 -252 -212c-56 -49 -148 -110 -148 -165c0 -37 120 -157 155 -157c13 0 24 6 33 14c85 79 229 200 376 323c54 -70 103 -137 139 -187
c35 -50 103 -149 146 -149c29 0 173 118 173 149c0 38 -131 149 -244 279l-44 50c97 81 185 155 246 210c61 54 153 117 153 165c0 44 -81 106 -114 139c-17 16 -32 23 -45 23s-24 -6 -32 -14c-92 -90 -224 -205 -369 -325c-116 146 -224 286 -257 324c-12 13 -23 18 -33 18
c-21 0 -84 -60 -121 -96z" />
    <glyph glyph-name="e" unicode="e" horiz-adv-x="1537" 
d="M1682 192c-83 -49 -438 -232 -948 -232c-477 0 -676 152 -676 416c0 416 427 685 951 685c344 0 485 -121 485 -296c0 -289 -368 -393 -848 -428c18 -161 190 -202 334 -202c204 0 453 70 675 141c15 5 27 9 41 9c16 0 35 -7 35 -34c0 -19 -6 -34 -49 -59zM647 447
c223 62 376 193 376 386c0 50 -36 81 -87 81c-162 0 -271 -248 -289 -467z" />
    <glyph glyph-name="i" unicode="i" horiz-adv-x="1027" 
d="M645 1144c-152 0 -259 81 -259 189c0 148 193 270 387 270c154 0 259 -85 259 -193c0 -145 -190 -266 -387 -266zM1130 271c14 7 30 14 49 14c27 0 42 -15 42 -42c0 -19 -14 -30 -31 -43c-121 -91 -542 -240 -840 -240c-156 0 -303 46 -303 166c0 102 251 531 251 818
c0 13 -1 25 -1 38c0 30 31 50 97 50c109 0 378 11 494 11c38 0 52 -28 52 -50c0 -165 -252 -611 -252 -749c0 -40 17 -75 63 -75c95 0 282 56 379 102z" />
    <glyph glyph-name="d" unicode="d" 
d="M523 -40c-229 0 -442 105 -442 386c0 336 264 715 776 715c209 0 327 -63 404 -121c22 140 56 367 56 465c0 10 -1 19 -1 29c0 30 31 50 97 50c96 0 322 -21 448 -21c34 0 52 -26 52 -47c0 -239 -330 -1073 -330 -1176c0 -51 14 -81 61 -81c73 0 239 60 348 116
c8 4 22 10 34 10c25 0 45 -13 45 -41c0 -26 -16 -41 -42 -60c-134 -98 -469 -224 -761 -224c-156 0 -273 32 -315 156c-57 -58 -198 -156 -430 -156zM642 377c0 -97 59 -163 145 -163c82 0 207 43 314 288c38 73 72 172 72 244s-29 120 -120 120c-203 0 -411 -269 -411 -489
z" />
    <glyph glyph-name="o" unicode="o" horiz-adv-x="1707" 
d="M734 -40c-395 0 -671 136 -671 450c0 412 441 651 914 651c294 0 593 -71 631 -370c49 -16 99 -23 147 -23c93 0 149 10 233 53c15 7 29 13 47 13c22 0 38 -12 38 -37c0 -26 -24 -53 -48 -69c-95 -66 -180 -84 -305 -84c-36 0 -75 1 -112 7c-42 -328 -361 -591 -874 -591
zM614 322c0 -92 23 -185 135 -185c179 0 318 329 318 605c0 68 -14 150 -101 150c-181 0 -352 -287 -352 -570z" />
    <glyph glyph-name="h" unicode="h" horiz-adv-x="1880" 
d="M1984 269c17 9 32 16 55 16c17 0 35 -15 35 -38c0 -25 -16 -45 -50 -66c-85 -54 -416 -221 -785 -221c-100 0 -293 10 -293 136c0 144 201 488 201 620c0 69 -63 95 -139 95c-50 0 -105 -9 -152 -24c-111 -323 -215 -676 -237 -759c-8 -30 -43 -37 -53 -37
c-254 0 -404 -11 -515 -11c-14 0 -38 22 -38 39c0 90 413 1056 413 1384c0 10 -1 18 -1 28c0 30 31 50 97 50c94 0 348 3 458 3c33 0 52 -25 52 -46c0 -67 -66 -322 -133 -524c135 58 387 147 576 147c119 0 263 -66 263 -232c0 -183 -186 -478 -186 -579
c0 -59 33 -82 79 -82c135 0 279 63 353 101z" />
    <glyph glyph-name="space" unicode=" " horiz-adv-x="772" 
 />
    <glyph glyph-name="s" unicode="s" horiz-adv-x="1534" 
d="M726 -39c-25 -1 -49 -1 -74 -1c-304 0 -624 66 -674 143c-12 18 -12 33 -12 51c0 25 115 140 158 140c69 0 153 -170 388 -170c68 0 114 37 114 96c0 173 -481 163 -481 436c0 317 556 405 836 405c171 0 438 -20 524 -73c12 -7 16 -22 16 -47c0 -75 -98 -303 -170 -303
c-8 0 -16 4 -22 11c-111 133 -227 237 -379 237c-60 0 -149 -22 -149 -102c0 -141 519 -196 519 -457c0 -72 -22 -130 -59 -178c168 33 315 84 388 123c15 8 27 13 43 13c19 0 36 -13 36 -38s-12 -40 -33 -54c-110 -76 -505 -232 -969 -232z" />
    <glyph glyph-name="n" unicode="n" horiz-adv-x="1880" 
d="M2029 184c-60 -43 -421 -224 -784 -224c-85 0 -297 5 -297 136c0 144 201 488 201 620c0 69 -63 89 -139 89c-46 0 -98 -7 -143 -16c-65 -229 -189 -579 -246 -761c-11 -33 -43 -37 -53 -37c-254 0 -404 -11 -515 -11c-14 0 -38 22 -38 39c0 82 273 624 273 922
c0 13 -1 25 -1 38c0 30 31 50 97 50c109 0 358 11 474 11c38 0 52 -28 52 -50c0 -17 -4 -44 -11 -76c135 57 388 147 578 147c119 0 263 -66 263 -232c0 -190 -186 -475 -186 -579c0 -44 22 -82 74 -82c70 0 267 68 352 104c24 10 39 13 57 13c20 0 37 -11 37 -35
c0 -18 -9 -40 -45 -66z" />
    <glyph glyph-name="p" unicode="p" 
d="M1021 -38c-19 -1 -38 -2 -57 -2c-136 0 -291 42 -388 122c-55 -169 -69 -383 -69 -487c0 -10 1 -19 1 -29c0 -30 -31 -50 -97 -50c-96 0 -339 -12 -465 -12c-34 0 -52 26 -52 47c0 280 374 1049 374 1323c0 21 -4 60 -4 83c0 42 10 72 98 72c109 0 338 11 454 11
c38 0 52 -28 52 -50c0 -41 -14 -94 -14 -137c136 154 309 208 491 208c241 0 402 -120 402 -382c0 -216 -104 -408 -267 -540c277 20 408 77 476 115c34 19 56 31 81 31c22 0 34 -13 34 -37c0 -20 -19 -40 -37 -53c-238 -166 -627 -233 -1013 -233zM1195 644
c0 97 -59 163 -145 163c-82 0 -207 -43 -314 -288c-32 -73 -58 -166 -58 -238s29 -120 120 -120c198 0 397 263 397 483z" />
    <glyph glyph-name="l" unicode="l" horiz-adv-x="1023" 
d="M1168 192c-73 -52 -426 -232 -761 -232c-205 0 -341 33 -341 180c0 141 370 952 370 1245c0 13 -1 25 -1 38c0 30 31 50 97 50c112 0 371 11 490 11c38 0 52 -28 52 -50c0 -175 -383 -1042 -383 -1196c0 -45 14 -74 68 -74c95 0 253 59 369 110c18 8 44 11 58 11
c16 0 31 -11 31 -32c0 -18 -7 -31 -49 -61z" />
    <glyph glyph-name="m" unicode="m" horiz-adv-x="2558" 
d="M2707 184c-71 -53 -423 -224 -822 -224c-118 0 -200 56 -200 136c0 144 155 458 155 590c0 69 -33 99 -109 99c-34 0 -69 -6 -108 -16c-22 -241 -158 -557 -188 -707c-7 -34 -4 -71 -53 -71c-254 0 -350 -11 -465 -11c-24 0 -41 15 -41 50c0 133 199 498 199 686
c0 57 -31 89 -116 89c-36 0 -68 -7 -93 -16c-67 -229 -189 -579 -246 -761c-11 -33 -45 -37 -53 -37c-254 0 -403 -11 -514 -11c-14 0 -38 22 -38 39c0 82 272 624 272 922c0 13 -1 25 -1 38c0 30 31 50 97 50c109 0 358 11 474 11c38 0 52 -28 52 -50c0 -17 -4 -44 -11 -76
c138 76 296 147 465 147c102 0 224 -50 255 -170c159 83 366 170 540 170c119 0 243 -66 243 -232c0 -210 -146 -448 -146 -576c0 -42 29 -74 77 -74c110 0 248 56 320 90c18 8 40 16 58 16c20 0 42 -12 42 -36c0 -18 -3 -34 -45 -65z" />
    <glyph glyph-name="c" unicode="c" horiz-adv-x="1537" 
d="M961 887c-229 0 -315 -298 -315 -488c0 -206 121 -251 304 -251c206 0 512 64 694 125c21 7 38 12 56 12c16 0 31 -11 31 -32s-10 -43 -53 -71c-172 -112 -532 -222 -936 -222c-475 0 -669 170 -669 422c0 422 458 679 941 679c245 0 415 -36 494 -81
c10 -8 16 -21 16 -40c0 -83 -112 -348 -206 -348c-26 0 -50 16 -62 38c-76 136 -146 257 -295 257z" />
    <glyph glyph-name="r" unicode="r" horiz-adv-x="1365" 
d="M910 990c0 -16 -29 -122 -39 -164c94 112 269 235 415 235c92 0 175 -24 175 -80c0 -117 -92 -302 -147 -346c-15 -11 -31 -16 -54 -16c-20 0 -38 5 -58 20c-55 41 -137 90 -264 90c-28 0 -60 -1 -96 -8c-67 -229 -164 -511 -221 -693c-11 -33 -45 -37 -53 -37
c-254 0 -404 -31 -515 -31c-14 0 -38 22 -38 39c0 82 273 644 273 942c0 13 -1 25 -1 38c0 30 31 50 97 50c109 0 358 11 474 11c38 0 52 -28 52 -50z" />
    <glyph glyph-name="b" unicode="b" 
d="M47 96c0 82 379 999 379 1297c0 13 -1 25 -1 38c0 30 31 50 97 50h261c81 0 146 3 201 3c38 0 52 -28 52 -50c0 -85 -90 -332 -184 -582l1 1c115 132 286 208 477 208c259 0 417 -116 417 -390c0 -204 -109 -397 -275 -531c243 21 420 79 513 130c20 11 31 15 47 15
c23 0 39 -12 39 -34c0 -23 -16 -41 -35 -55c-159 -111 -545 -230 -990 -232c-25 -2 -51 -4 -76 -4c-117 0 -279 41 -371 118c-117 -40 -316 -99 -384 -99c-90 0 -168 49 -168 117zM1195 644c0 97 -59 163 -145 163c-82 0 -207 -43 -314 -288c-32 -73 -58 -166 -58 -238
s29 -120 120 -120c198 0 397 263 397 483z" />
    <glyph glyph-name="q" unicode="q" 
d="M523 -40c-229 0 -442 105 -442 386c0 336 264 715 776 715c176 0 307 -65 383 -124c139 46 417 95 485 95c62 0 102 -20 102 -92c0 -50 -158 -420 -283 -770h14c182 0 360 67 439 105c13 6 22 10 38 10c21 0 36 -11 36 -35c0 -23 -16 -43 -35 -57
c-71 -55 -326 -145 -544 -175c-56 -170 -97 -323 -97 -415c0 -13 1 -25 1 -38c0 -30 -31 -50 -97 -50c-109 0 -358 -11 -474 -11c-38 0 -52 28 -52 50c0 78 101 342 186 561c-58 -58 -206 -155 -436 -155zM642 377c0 -97 59 -163 145 -163c82 0 206 34 313 279
c32 73 61 175 61 247c0 62 -31 120 -122 120c-198 0 -397 -263 -397 -483z" />
    <glyph glyph-name="u" unicode="u" horiz-adv-x="1880" 
d="M2015 177c-109 -66 -445 -217 -796 -217c-97 0 -263 18 -291 136c-135 -55 -334 -136 -533 -136c-156 0 -294 47 -294 240c0 246 206 614 206 747c0 58 10 82 98 82c103 0 342 11 452 11c38 0 52 -28 52 -50c0 -105 -223 -479 -223 -663c0 -75 58 -111 132 -111
c56 0 96 7 138 16c65 229 207 482 251 759c5 34 43 37 53 37c254 0 392 12 503 12c14 0 38 -22 38 -39c0 -120 -248 -587 -248 -765c0 -47 17 -76 70 -76c89 0 285 62 371 110c13 7 29 15 42 15c19 0 38 -8 38 -34c0 -31 -23 -52 -59 -74z" />
    <glyph glyph-name="R" unicode="R" horiz-adv-x="2218" 
d="M1126 1079c-38 -63 -92 -201 -148 -358c332 39 531 159 531 388c0 224 -239 250 -426 250c-460 0 -676 -157 -738 -157c-31 0 -53 13 -53 35c0 27 24 59 57 80c244 157 551 259 1092 259c286 0 692 -88 692 -408c0 -279 -280 -392 -680 -454c260 0 428 -93 428 -260
c0 -50 -18 -116 -18 -178c0 -140 208 -42 208 -146c0 -91 -263 -170 -567 -170c-240 0 -355 85 -355 223c0 101 66 214 66 288c0 71 -49 153 -222 153c-15 0 -33 -1 -49 -1c-49 -143 -96 -293 -131 -410c-63 -212 -169 -233 -386 -233c-261 0 -506 103 -506 183
c0 32 33 50 65 50c120 0 162 24 227 157c121 245 202 686 451 806c96 46 270 67 386 67c62 0 123 -5 123 -52c0 -29 -8 -43 -47 -112z" />
    <glyph glyph-name="period" unicode="." horiz-adv-x="1198" 
d="M484 -56c-161 0 -274 86 -274 200c0 156 204 285 409 285c163 0 274 -90 274 -204c0 -153 -201 -281 -409 -281z" />
    <glyph glyph-name="t" unicode="t" horiz-adv-x="1197" 
d="M1343 187c-203 -134 -671 -227 -989 -227c-192 0 -292 65 -292 167c0 133 188 417 272 720c-41 -2 -75 -3 -86 -3c-29 0 -59 14 -59 48c0 32 20 58 55 63c33 5 73 9 117 14c8 47 13 95 13 143c0 13 -1 25 -1 38c0 30 49 52 114 61c115 15 392 95 505 95
c38 0 52 -28 52 -50c0 -64 -20 -147 -50 -238c132 15 240 34 263 34c38 0 74 -12 74 -59c0 -39 -29 -63 -72 -72c-47 -10 -178 -25 -314 -38c-100 -260 -241 -543 -241 -636c0 -54 38 -71 88 -71c182 0 367 35 510 95c19 8 39 14 58 14c18 0 31 -15 31 -35s-9 -37 -48 -63z
" />
    <glyph glyph-name="O" unicode="O" horiz-adv-x="2048" 
d="M1041 1087c-140 -113 -299 -381 -299 -693c0 -159 48 -259 169 -259c232 0 512 405 512 837c0 293 -95 406 -340 406c-299 0 -604 -141 -641 -141c-19 0 -37 6 -37 30c0 80 453 309 869 309c540 0 757 -287 757 -654c0 -597 -538 -962 -1182 -962
c-469 0 -714 168 -714 503c0 488 557 807 951 807c59 0 75 -27 75 -48c0 -38 -48 -70 -120 -135z" />
    <glyph glyph-name="C" unicode="C" 
d="M1373 1453c-240 0 -602 -461 -602 -853c0 -219 112 -392 388 -392c278 0 403 85 493 85c34 0 58 -8 58 -33c0 -133 -447 -300 -809 -300c-471 0 -786 233 -786 596c0 585 697 1020 1242 1020c372 0 564 -180 564 -381c0 -222 -136 -445 -417 -445c-75 0 -207 28 -207 122
c0 58 211 411 211 504c0 66 -64 77 -135 77z" />
    <glyph glyph-name="Q" unicode="Q" horiz-adv-x="2048" 
d="M690 150c262 -200 632 -240 935 -240c134 0 261 20 370 58c24 8 47 14 67 14c31 0 53 -14 53 -51c0 -38 -29 -84 -61 -133c-122 -186 -275 -308 -459 -308c-73 0 -180 23 -253 56c-220 100 -534 365 -652 604zM1041 1087c-140 -113 -299 -381 -299 -693
c0 -159 48 -259 169 -259c232 0 512 405 512 837c0 293 -95 406 -340 406c-299 0 -604 -141 -641 -141c-19 0 -37 6 -37 30c0 80 453 309 869 309c540 0 757 -287 757 -654c0 -597 -538 -962 -1182 -962c-469 0 -714 168 -714 503c0 488 557 807 951 807c59 0 75 -27 75 -48
c0 -38 -48 -70 -120 -135z" />
    <glyph glyph-name="j" unicode="j" horiz-adv-x="1025" 
d="M572 -181c-76 -231 -213 -329 -504 -329c-127 0 -226 18 -302 50c-44 18 -77 46 -77 79c0 32 26 44 52 44c22 0 47 -4 68 -4c113 0 190 241 284 534c72 223 171 594 212 784c7 33 14 55 75 55c101 0 380 11 486 11c33 0 59 -18 59 -49c0 -26 -9 -44 -17 -65
c-119 -293 -174 -526 -233 -753c294 19 414 91 471 105c9 2 20 4 28 4c25 0 45 -13 45 -41c0 -19 -13 -31 -31 -43c-81 -56 -311 -139 -554 -179c-18 -66 -39 -133 -62 -203zM651 1144c-152 0 -259 81 -259 189c0 148 193 270 387 270c154 0 259 -85 259 -193
c0 -145 -190 -266 -387 -266z" />
    <glyph glyph-name="B" unicode="B" horiz-adv-x="2046" 
d="M1121 1089c-31 -49 -66 -143 -102 -256c334 20 502 148 502 323c0 176 -205 213 -453 213c-474 0 -707 -182 -778 -182c-30 0 -52 11 -52 33c0 123 595 356 1122 356c500 0 707 -161 707 -389c0 -211 -232 -388 -646 -404c240 -3 531 -125 531 -360
c0 -346 -341 -463 -665 -463c-187 0 -389 41 -538 104c-74 -74 -179 -84 -328 -84c-260 0 -500 102 -500 182c0 32 34 51 66 51c120 0 163 24 232 157c129 248 199 695 452 816c96 46 263 67 379 67c61 0 121 -5 121 -50c0 -30 -8 -44 -50 -114zM1381 508
c0 146 -181 232 -390 237c-54 -177 -110 -381 -159 -532c-6 -16 -11 -31 -17 -45c24 -3 47 -4 69 -4c269 0 497 98 497 344z" />
    <glyph glyph-name="P" unicode="P" horiz-adv-x="2046" 
d="M1141 1099c-54 -87 -129 -315 -200 -541c33 -2 66 -2 98 -2c260 0 475 194 475 493c0 232 -149 320 -385 320c-446 0 -675 -140 -763 -140c-25 0 -46 14 -46 36c0 30 36 56 72 76c143 77 520 235 1010 235c558 0 707 -233 707 -465c0 -492 -528 -701 -976 -701
c-101 0 -170 4 -233 17c-24 -77 -47 -150 -68 -214c-70 -212 -194 -233 -411 -233c-260 0 -500 102 -500 182c0 32 34 51 66 51c120 0 163 24 232 157c130 251 219 705 472 826c96 46 263 67 379 67c61 0 121 -5 121 -50c0 -30 -8 -44 -50 -114z" />
    <glyph glyph-name="D" unicode="D" horiz-adv-x="2046" 
d="M1041 1360c-372 0 -729 -158 -786 -158c-33 0 -55 12 -55 37c0 27 27 58 60 80c265 177 605 257 946 257c625 0 826 -321 826 -721c0 -422 -316 -895 -892 -895c-140 0 -289 13 -416 84c-60 -59 -141 -64 -280 -64c-259 0 -523 101 -523 181c0 33 35 52 67 52
c120 0 156 24 231 157c129 229 196 696 452 816c98 46 263 67 379 67c60 0 120 -6 120 -50c0 -24 -9 -53 -53 -124c-86 -132 -205 -597 -304 -875l-17 -44c21 -2 43 -3 68 -3c455 0 598 487 598 832c0 250 -135 371 -421 371z" />
    <glyph glyph-name="S" unicode="S" 
d="M879 -40c-324 0 -679 75 -761 118c-16 8 -25 21 -25 40c0 56 107 297 157 297c75 0 308 -265 587 -265c56 0 138 24 138 91c0 148 -618 384 -618 659c0 272 381 356 597 356c62 0 85 -23 85 -45c0 -32 -30 -65 -30 -104c0 -167 658 -407 658 -739
c0 -313 -373 -408 -788 -408zM1774 1057c-180 214 -451 309 -749 309c-272 0 -546 -74 -721 -145c-33 -13 -63 -19 -75 -19c-16 0 -33 14 -33 38c0 102 481 336 1057 336c235 0 525 -19 741 -138c11 -6 14 -25 14 -45c-6 -81 -132 -346 -207 -346c-9 10 -20 10 -27 10z" />
    <glyph glyph-name="y" unicode="y" 
d="M1431 -120c-123 -333 -493 -400 -933 -400c-323 0 -498 73 -498 206c0 199 428 270 921 313c17 56 31 109 39 149c-152 -57 -361 -108 -534 -108c-241 0 -325 90 -325 215c0 242 181 525 181 686c0 13 -1 25 -1 38c0 30 31 50 97 50c47 0 145 -4 233 -4
c81 0 156 15 211 15c38 0 52 -28 52 -50c0 -174 -189 -502 -189 -632c0 -62 51 -90 116 -90c79 0 149 25 205 61c82 221 146 442 197 643c8 33 43 37 53 37c254 0 404 31 515 31c13 0 39 -19 39 -35c0 -33 -184 -571 -299 -901c223 53 405 133 469 167c19 10 33 14 54 14
c24 0 37 -15 37 -34c0 -17 -8 -32 -26 -47c-87 -74 -312 -177 -582 -235c-14 -38 -25 -68 -32 -89zM835 -253c13 33 32 83 50 138c-207 -26 -450 -80 -450 -208c0 -54 70 -108 122 -108c113 0 237 59 278 178z" />
    <glyph glyph-name="g" unicode="g" 
d="M28 -340c0 173 606 291 923 334c21 59 43 122 65 187c-143 -106 -330 -169 -501 -169c-222 0 -434 86 -434 362c0 400 351 687 796 687c182 0 293 -43 365 -100c123 38 312 71 396 71c95 0 168 -46 168 -120c0 -72 -107 -306 -268 -808c179 48 277 90 430 163
c23 11 43 18 63 18c21 0 40 -13 40 -35c0 -19 -10 -34 -36 -53c-104 -78 -281 -156 -539 -228l-27 -89c-98 -326 -580 -400 -972 -400c-269 0 -469 47 -469 180zM642 397c0 -97 59 -153 145 -153c82 0 220 13 327 258c32 73 58 166 58 238s-29 120 -120 120
c-198 0 -410 -243 -410 -463zM863 -253l47 133c-194 -31 -447 -91 -447 -203c0 -53 58 -86 132 -86c113 0 226 37 268 156z" />
    <glyph glyph-name="A" unicode="A" horiz-adv-x="1880" 
d="M1183 -40c-212 0 -333 70 -333 221c0 205 318 796 318 1027c0 115 -95 151 -232 151c-205 0 -297 -40 -382 -40c-25 0 -39 10 -39 30c0 54 322 227 738 227c333 0 515 -109 515 -395c0 -290 -175 -720 -175 -895c0 -67 25 -99 107 -105c48 -4 92 8 92 -35
c0 -29 -13 -55 -42 -75c-56 -39 -206 -111 -567 -111zM1021 1161c-108 -79 -296 -270 -434 -477h14c81 0 162 6 256 6c23 0 70 -2 70 -41c0 -25 -19 -39 -33 -46c-85 -43 -244 -66 -400 -75c-50 -99 -81 -196 -81 -281c0 -31 4 -67 12 -93c9 -29 16 -52 16 -72
c0 -76 -107 -90 -272 -90c-167 0 -203 30 -203 107c0 468 873 1146 1054 1146c27 0 43 -6 43 -25c0 -15 -12 -36 -42 -59z" />
    <glyph glyph-name="k" unicode="k" horiz-adv-x="1704" 
d="M1855 180c-202 -142 -503 -220 -738 -220c-188 0 -253 41 -253 140c0 79 42 152 42 241c0 79 -45 137 -159 147c-97 -266 -123 -381 -128 -460c-2 -28 -32 -37 -53 -37c-254 0 -404 -11 -515 -11c-14 0 -38 22 -38 39c0 90 413 1056 413 1384c0 10 -1 18 -1 28
c0 30 31 50 97 50c94 0 348 3 458 3c33 0 52 -25 52 -46c0 -129 -174 -649 -250 -855c248 65 386 217 386 361c0 13 -1 25 -1 38c0 30 31 50 97 50c70 0 330 11 391 11c38 0 52 -28 52 -50c0 -251 -426 -412 -728 -475c61 9 162 21 248 21c167 0 254 -51 254 -159
c0 -50 -26 -98 -26 -151c0 -43 15 -67 64 -67c70 0 219 66 285 103c21 12 39 20 53 20c18 0 41 -13 41 -40c0 -21 -8 -40 -43 -65z" />
    <glyph glyph-name="E" unicode="E" 
d="M1753 238c0 -147 -507 -278 -884 -278c-456 0 -809 115 -809 397c0 342 544 466 995 467c-228 12 -677 57 -677 305c0 290 447 447 885 447c217 0 501 -19 644 -105c20 -12 38 -29 38 -61c0 -75 -124 -249 -181 -302c-18 -18 -35 -31 -68 -31c-45 0 -84 42 -104 87
c-70 158 -183 245 -336 245c-174 0 -313 -106 -313 -249c0 -130 156 -247 359 -247c27 0 56 6 84 6s38 -16 38 -56c0 -87 -69 -145 -116 -148c-169 -12 -502 -63 -502 -276c0 -193 210 -254 364 -254c164 0 350 41 514 86c11 3 22 5 31 5c24 0 38 -13 38 -38z" />
    <glyph glyph-name="K" unicode="K" horiz-adv-x="2216" 
d="M934 1556c173 0 247 -40 247 -220c0 -290 -413 -960 -413 -1215c0 -20 3 -42 3 -66c0 -45 -63 -67 -105 -67c-216 0 -254 -6 -401 -6c-72 0 -146 4 -146 86c0 29 3 64 9 91c62 261 389 818 389 976c0 73 -20 92 -53 92c-35 0 -81 -24 -118 -24c-25 0 -44 4 -44 31
c0 38 47 87 82 112c140 100 381 210 550 210zM1544 -40c-167 0 -370 25 -370 206c0 144 77 313 77 396c0 180 -190 119 -190 174c0 34 31 56 63 68c342 122 452 309 521 625c14 66 47 87 95 87c78 0 303 23 408 23c31 0 45 -13 45 -42c0 -19 -30 -133 -68 -256
c-117 -375 -374 -469 -738 -514c27 2 53 2 78 2c215 0 394 -20 394 -188c0 -16 -2 -34 -5 -53c-9 -51 -13 -93 -13 -128c0 -144 71 -166 152 -166c48 0 82 -10 82 -50c0 -81 -142 -184 -531 -184z" />
    <glyph glyph-name="f" unicode="f" horiz-adv-x="1366" 
d="M590 -391c-2 -29 -29 -52 -50 -52c-51 0 -323 16 -490 16c-19 0 -34 17 -34 33c14 162 49 370 98 585c-34 19 -65 38 -88 55c-21 14 -51 36 -51 67c0 26 17 37 43 37c10 0 22 -2 33 -7c27 -12 58 -25 90 -38c84 341 201 685 327 893c135 222 296 321 541 321
c211 0 351 -119 351 -368c0 -418 -262 -793 -647 -968c21 -2 40 -3 55 -3c349 0 572 52 715 99c11 4 28 6 36 6c23 0 41 -11 41 -35c0 -20 -12 -34 -31 -46c-158 -94 -471 -170 -882 -181c-30 -165 -49 -309 -57 -414zM870 928c-72 -221 -131 -452 -176 -664
c270 182 467 573 467 937c0 139 -29 176 -75 176c-61 0 -98 -84 -216 -449z" />
    <glyph glyph-name="v" unicode="v" horiz-adv-x="1705" 
d="M884 948c-114 -148 -198 -355 -198 -546c0 -94 45 -180 103 -180c163 0 401 466 445 736c7 43 13 67 67 67c77 0 345 11 391 11c26 0 36 -8 36 -28v-14c0 -85 -38 -191 -99 -302c24 -4 48 -5 72 -5c98 0 193 20 286 72c14 8 30 16 51 16c19 0 36 -14 36 -37
c0 -25 -21 -52 -43 -69c-109 -83 -244 -110 -388 -110c-31 0 -63 1 -93 6c-7 -12 -15 -23 -23 -34c-222 -309 -778 -604 -1032 -604c-127 0 -387 128 -387 489c0 165 74 425 148 556c22 38 44 56 84 57c50 1 510 11 529 11c17 0 33 -8 33 -44c0 -18 -6 -32 -18 -48z" />
    <glyph glyph-name="x" unicode="x" horiz-adv-x="1705" 
d="M718 82c-47 58 -83 128 -114 201c-178 -169 -364 -324 -491 -324c-88 0 -151 137 -151 267c0 42 14 75 45 78c51 5 127 4 196 9c131 10 235 31 346 115c-47 140 -84 276 -134 358c-32 52 -61 66 -125 66c-86 0 -119 -18 -154 -18c-23 0 -38 10 -38 35
c0 73 278 192 575 192c208 0 303 -47 359 -145c27 -49 55 -115 84 -189c182 179 368 344 474 344c70 0 133 -131 133 -275c0 -23 -21 -67 -52 -74c-34 -7 -69 -8 -146 -8c-94 0 -201 -16 -354 -132c55 -146 116 -295 184 -379c28 -36 64 -50 103 -50c90 0 253 58 336 107
c27 16 46 25 68 25c21 0 37 -13 37 -37c0 -22 -16 -39 -43 -63c-202 -177 -439 -237 -714 -237c-203 0 -347 37 -424 134z" />
    <glyph glyph-name="w" unicode="w" horiz-adv-x="2514" 
d="M1233 1029c50 1 510 11 529 11c15 0 39 -5 39 -33c0 -21 -11 -41 -24 -59c-110 -153 -203 -339 -203 -545c0 -92 26 -172 101 -172c212 0 344 381 344 731c0 21 9 59 67 67c34 5 350 11 396 11c26 0 41 -8 41 -42c0 -114 -34 -212 -83 -302c31 -6 62 -9 93 -9
c98 0 193 20 286 72c14 8 30 16 51 16c19 0 36 -14 36 -37c0 -25 -21 -52 -43 -69c-109 -83 -244 -110 -388 -110c-40 0 -80 3 -116 10l-45 -61c-238 -316 -659 -573 -934 -573c-120 0 -239 119 -305 269c-199 -165 -425 -279 -585 -279c-218 0 -377 206 -377 517
c0 119 60 393 139 524c30 49 49 63 101 63c50 0 510 11 529 11c16 0 39 -5 39 -39c0 -20 -11 -37 -24 -53c-101 -126 -203 -319 -203 -524c0 -106 13 -203 98 -203c227 0 341 461 374 741c2 21 15 67 67 67z" />
    <glyph glyph-name="F" unicode="F" 
d="M1160 1019c-41 -85 -77 -184 -110 -290c93 49 262 114 418 114c73 0 144 -18 144 -66c0 -59 -87 -248 -135 -318c-14 -21 -36 -37 -63 -37c-74 0 -205 160 -404 172c-35 -125 -70 -255 -107 -381c-64 -215 -219 -233 -436 -233c-261 0 -506 103 -506 183
c4 32 33 50 65 50c120 0 162 24 227 157c121 245 167 635 415 755c113 54 269 58 383 58c76 0 156 -7 156 -52c0 -29 -24 -60 -47 -112zM1773 1051c-188 165 -485 284 -774 284c-154 0 -433 -43 -609 -122c-33 -15 -64 -22 -75 -22c-16 0 -33 6 -33 31
c0 105 495 354 1120 354c272 0 690 -24 690 -132c-6 -81 -140 -392 -212 -414c-14 -4 -27 -6 -39 -6c-29 0 -51 13 -68 27z" />
    <glyph glyph-name="I" unicode="I" horiz-adv-x="1366" 
d="M375 359c19 40 53 128 91 235c-130 80 -243 205 -243 388c0 367 480 554 853 554c209 0 254 -97 254 -215c0 -197 -175 -596 -321 -1051c-67 -209 -207 -290 -411 -290c-276 0 -526 71 -526 150c0 33 35 48 67 52c129 15 170 39 236 177zM648 1221c0 31 -20 54 -55 54
c-40 0 -162 -77 -162 -309c0 -101 34 -180 77 -249c71 211 140 442 140 504z" />
    <glyph glyph-name="T" unicode="T" horiz-adv-x="1707" 
d="M789 -40c-272 0 -480 36 -480 271c0 233 239 558 424 745c159 160 275 167 384 167c70 0 111 -26 111 -78c0 -18 -5 -38 -15 -62c-68 -141 -143 -381 -143 -563c0 -130 44 -224 169 -224c73 0 138 19 202 19c55 0 89 -14 89 -50s-23 -59 -58 -80
c-205 -123 -429 -145 -683 -145zM375 1515c24 9 77 9 145 9c180 0 562 -16 676 -16c88 0 508 60 545 60c82 0 129 -25 129 -88c0 -73 -100 -358 -183 -358c-65 0 -284 149 -493 149c-182 0 -493 -34 -679 -111c-163 -67 -253 -121 -291 -121c-25 0 -51 14 -51 59
c0 68 79 384 202 417z" />
    <glyph glyph-name="L" unicode="L" 
d="M473 1122c136 404 266 434 702 434c149 0 266 -7 266 -68c0 -27 -29 -52 -77 -81c-202 -123 -301 -542 -438 -936c-58 -166 -137 -288 -257 -340c511 27 720 260 992 545c21 22 43 27 72 27c35 0 74 -24 74 -65c0 -80 -33 -221 -74 -353c-63 -202 -134 -305 -370 -305
c-262 0 -629 12 -853 12c-147 0 -279 -10 -399 -10c-65 0 -99 25 -99 68c0 71 103 86 162 168c138 190 188 597 299 904z" />
    <glyph glyph-name="G" unicode="G" horiz-adv-x="2046" 
d="M1401 1438c-290 0 -612 -412 -612 -822c0 -273 111 -474 373 -474c8 0 16 0 24 1c56 144 105 316 105 346c0 76 -180 52 -180 122c0 76 205 116 549 116c183 0 266 -23 266 -79c0 -24 -10 -48 -26 -79c-90 -180 -169 -565 -240 -673c-76 -116 -221 -182 -509 -182
c-151 0 -250 23 -250 63c0 68 135 95 204 196c11 17 23 38 35 62c-86 -22 -195 -35 -315 -35c-504 0 -690 226 -690 541c0 592 733 1035 1294 1035c430 0 601 -135 601 -338c0 -110 -97 -266 -378 -266c-75 0 -207 28 -207 122c0 37 112 214 112 279c0 49 -91 65 -156 65z
" />
    <glyph glyph-name="H" unicode="H" horiz-adv-x="2046" 
d="M904 1556c173 0 247 -40 247 -220c0 -138 -87 -363 -178 -587c54 1 105 5 174 5c23 0 70 -2 70 -41c0 -25 -19 -39 -33 -46c-63 -32 -163 -53 -271 -66c-78 -194 -145 -373 -145 -480c0 -20 3 -42 3 -66c0 -45 -63 -67 -105 -67c-116 0 -254 -6 -401 -6
c-72 0 -146 4 -146 86c0 29 3 64 9 91c62 261 359 818 359 976c0 73 -20 92 -53 92c-35 0 -81 -24 -118 -24c-25 0 -44 4 -44 31c0 38 44 81 82 112c133 109 381 210 550 210zM2082 1445c0 -357 -341 -908 -341 -1327c0 -20 4 -40 4 -63c0 -45 -63 -67 -105 -67
c-116 0 -224 -6 -371 -6c-72 0 -146 4 -146 86c0 220 288 912 337 1216c8 53 8 101 8 136c0 73 41 90 134 90c190 0 287 18 401 18c53 0 79 -37 79 -83z" />
    <glyph glyph-name="J" unicode="J" horiz-adv-x="1366" 
d="M1055 1536c196 0 275 -41 275 -173c0 -206 -237 -796 -363 -1179c-156 -475 -355 -694 -756 -694c-179 0 -329 86 -329 276c0 291 254 503 522 619c92 280 246 670 246 788c0 42 -13 59 -48 59c-56 0 -138 -35 -224 -72c-26 -11 -59 -20 -86 -20c-32 0 -52 13 -52 41
c0 21 14 40 33 57c180 155 504 298 782 298zM130 -367c40 0 76 128 228 607c-135 -114 -280 -299 -280 -486c0 -82 21 -121 52 -121z" />
    <glyph glyph-name="N" unicode="N" horiz-adv-x="2218" 
d="M914 1556c173 0 247 -40 247 -220c0 -14 -2 -30 -3 -45c270 209 467 286 671 286c193 0 311 -84 311 -247c0 -244 -328 -779 -328 -979c0 -96 67 -142 143 -155c46 -8 101 -17 101 -59c0 -93 -228 -177 -536 -177c-198 0 -340 69 -340 223c0 300 306 757 306 964
c0 77 -79 96 -151 96c-78 0 -145 -32 -198 -62c-84 -329 -359 -844 -359 -1060c0 -20 3 -42 3 -66c0 -45 -63 -67 -105 -67c-216 0 -254 -6 -401 -6c-72 0 -146 4 -146 86c0 29 3 64 9 91c62 261 359 818 359 976c0 73 -20 92 -53 92c-35 0 -81 -24 -118 -24
c-25 0 -44 4 -44 31c0 38 41 79 82 112c134 108 381 210 550 210z" />
    <glyph glyph-name="z" unicode="z" horiz-adv-x="1705" 
d="M495 1061c108 0 500 -151 534 -151c25 0 95 145 147 145c59 0 543 -67 543 -156c0 -145 -578 -543 -831 -727c98 -7 204 -12 312 -12c214 0 388 22 562 95c46 19 80 30 99 30c27 0 38 -15 38 -33c0 -21 -13 -35 -56 -66c-91 -66 -366 -216 -595 -216
c-299 0 -460 88 -500 88c-12 0 -103 -92 -171 -92c-62 0 -350 59 -486 93c-72 18 -113 53 -113 102c0 109 239 139 925 632c-33 2 -66 3 -99 3c-339 0 -514 -206 -585 -206c-30 0 -49 26 -49 53c0 46 114 325 175 382c36 33 80 36 150 36z" />
    <glyph glyph-name="U" unicode="U" horiz-adv-x="2223" 
d="M1166 191c0 10 0 20 1 31c-123 -136 -352 -262 -554 -262c-204 0 -397 80 -397 367c0 306 232 648 303 838c3 9 4 20 4 28c0 51 -49 74 -122 86c-43 7 -68 30 -68 57c0 88 268 200 693 200c113 0 183 -36 183 -112c0 -68 -383 -718 -383 -1035c0 -99 55 -121 135 -121
c92 0 178 36 220 50c72 347 373 937 373 1097c0 83 61 112 148 112c105 0 264 -4 314 -4c69 0 146 -44 146 -117c0 -29 -10 -71 -25 -106c-159 -358 -310 -791 -310 -955c0 -175 225 -114 225 -192c0 -115 -412 -193 -602 -193c-200 0 -284 87 -284 231z" />
    <glyph glyph-name="Z" unicode="Z" 
d="M1697 456c37 0 67 -13 67 -55c0 -93 -88 -280 -127 -343c-36 -58 -98 -98 -309 -98c-148 0 -430 41 -629 128c-102 -91 -159 -126 -221 -126c-106 0 -335 67 -437 115c-41 19 -64 36 -64 74c0 200 1177 944 1333 1273c35 74 78 123 146 123c111 0 445 -141 445 -281
c0 0 -1 0 -1 -10c-35 -247 -788 -851 -1073 -1043c480 14 820 243 870 243zM1144 1402c0 -64 -65 -90 -132 -105c-408 -93 -546 -251 -654 -251c-44 0 -55 39 -55 88c0 119 81 330 204 355c69 14 153 20 237 20c182 0 400 -21 400 -107z" />
    <glyph glyph-name="Y" unicode="Y" horiz-adv-x="2048" 
d="M852 -296c85 110 176 293 267 518c-125 -92 -321 -175 -520 -175c-194 0 -390 100 -390 340c0 245 244 692 270 778c3 9 4 20 4 28c0 51 -49 74 -122 86c-43 7 -68 30 -68 57c0 88 238 200 663 200c111 0 183 -35 183 -109c0 -140 -343 -769 -343 -990
c0 -100 77 -134 170 -134c62 0 137 15 199 35c124 328 244 728 341 1129c12 51 78 59 198 59c105 0 220 -3 270 -3c67 0 143 -36 143 -93c0 -27 -18 -48 -37 -94c-110 -259 -315 -1013 -395 -1215c-206 -524 -488 -631 -858 -631c-65 0 -99 20 -99 53c0 45 96 123 124 161z
" />
    <glyph glyph-name="V" unicode="V" horiz-adv-x="2052" 
d="M367 1160c4 10 6 22 6 32c0 51 -79 64 -152 76c-43 7 -68 30 -68 57c0 81 341 212 723 212c151 0 272 -16 272 -92c0 -16 -5 -32 -16 -51c-249 -422 -318 -640 -318 -949c0 -89 28 -234 78 -234c151 0 623 657 755 1237c5 21 13 59 71 67c36 0 397 11 443 11
c22 0 34 -6 34 -19c0 -71 -50 -219 -79 -293c-259 -667 -985 -1264 -1399 -1264c-249 0 -477 364 -477 739c0 173 70 343 127 471z" />
    <glyph glyph-name="W" unicode="W" horiz-adv-x="2899" 
d="M677 -50c-249 0 -477 364 -477 739c0 173 70 342 127 470c4 10 6 22 6 32c0 51 -79 64 -152 76c-43 7 -68 30 -68 57c0 81 341 212 723 212c151 0 272 -16 272 -92c0 -16 -5 -32 -16 -51c-253 -420 -318 -639 -318 -948c0 -89 28 -234 78 -234c151 0 563 607 695 1217
c4 21 13 59 71 67c36 0 377 11 423 11c24 0 34 -7 34 -23c-93 -434 -420 -837 -420 -1086c0 -83 4 -186 71 -186c151 0 570 469 795 1237c12 41 35 67 71 67s357 11 403 11c22 0 34 -6 34 -20c0 -72 -54 -239 -87 -321c-274 -681 -981 -1235 -1394 -1235
c-136 0 -215 113 -259 280c-218 -172 -442 -280 -612 -280z" />
    <glyph glyph-name="X" unicode="X" horiz-adv-x="1881" 
d="M1855 118c0 -42 -49 -77 -125 -104c-103 -37 -206 -54 -357 -54c-235 0 -443 36 -542 324c-35 102 -70 198 -103 287c-227 -299 -475 -597 -597 -597c-77 0 -149 222 -149 289c0 34 14 82 58 101c257 108 435 198 632 357c-73 190 -135 342 -178 452
c-32 83 -76 102 -168 102c-38 0 -73 -8 -114 -8c-37 0 -60 17 -60 44c0 98 285 265 658 265c198 0 297 -106 371 -336c97 -302 297 -766 389 -937c29 -54 73 -89 157 -106c72 -14 128 -10 128 -79zM1878 1564c90 0 143 -130 143 -349c0 -45 -17 -83 -63 -91
c-198 -35 -330 -70 -528 -163c-17 -8 -36 -13 -53 -13c-33 0 -53 23 -53 57c0 20 9 39 22 62c125 223 380 497 532 497z" />
    <glyph glyph-name="M" unicode="M" horiz-adv-x="3073" 
d="M2085 1328v-9c217 169 409 258 592 258c197 0 318 -99 318 -259c0 -341 -328 -773 -328 -967c0 -96 67 -142 143 -155c52 -9 101 -18 101 -59c0 -93 -227 -177 -535 -177c-198 0 -300 69 -300 223c0 293 319 774 319 976c0 51 -28 94 -101 94c-75 0 -159 -35 -231 -72
c-80 -309 -347 -784 -365 -1116c-2 -43 -26 -77 -61 -77c-216 0 -259 -6 -406 -6c-70 0 -142 4 -142 80c0 29 7 68 14 97c96 401 375 871 375 1004c0 64 -48 91 -116 91c-95 0 -188 -47 -258 -86c-87 -329 -356 -832 -356 -1047c0 -20 3 -42 3 -66c0 -45 -63 -67 -105 -67
c-216 0 -224 -6 -371 -6c-72 0 -146 4 -146 86c0 29 3 64 9 91c62 264 359 816 359 976c0 73 -20 92 -53 92c-35 0 -81 -24 -118 -24c-25 0 -44 4 -44 31c0 38 38 74 82 112c130 112 381 210 550 210c173 0 217 -71 217 -220c0 -16 -2 -33 -4 -51c246 198 464 292 667 292
c193 0 291 -92 291 -249z" />
    <glyph glyph-name="ampersand" unicode="&#x26;" horiz-adv-x="2177" 
d="M1636 1327c0 -194 -154 -311 -356 -396c164 -288 493 -556 685 -705c33 -26 39 -51 39 -73c0 -33 -25 -52 -67 -69c-154 -61 -415 -159 -539 -159c-49 0 -89 21 -122 48c-45 36 -99 86 -157 147c-167 -97 -397 -160 -599 -160c-246 0 -464 100 -464 325
c0 220 156 407 581 539c-47 113 -76 225 -76 328c0 334 286 494 609 494c252 0 466 -84 466 -319zM2230 961c0 -141 -230 -294 -436 -391c-19 -9 -35 -13 -51 -13c-25 0 -49 9 -49 38c0 24 13 46 27 67c96 148 134 246 183 416c9 33 36 46 69 46c87 0 257 -45 257 -163z
M1012 238c-109 129 -220 283 -305 441c-94 -79 -152 -170 -152 -288c0 -144 109 -185 245 -185c68 0 142 12 212 32zM1182 1252c0 -58 11 -116 31 -175c114 82 184 177 184 296c0 108 -43 136 -90 136c-73 0 -125 -94 -125 -257z" />
    <glyph glyph-name="zero" unicode="0" 
d="M911 1309c40 0 63 -10 63 -40c0 -22 -21 -51 -57 -93c-157 -185 -239 -503 -239 -792c0 -163 34 -289 152 -289c217 0 421 509 421 1058c0 204 -117 291 -233 291c-93 0 -222 -46 -260 -46c-30 0 -46 15 -46 40c0 70 217 197 508 197c393 0 593 -281 593 -632
c0 -641 -459 -1056 -960 -1056c-429 0 -654 241 -654 594c0 473 310 768 712 768z" />
    <glyph glyph-name="seven" unicode="7" horiz-adv-x="1614" 
d="M514 1641c35 17 71 20 124 20c186 0 541 -112 823 -219c94 94 150 144 197 144c43 0 131 -72 131 -120c0 -199 -688 -766 -802 -1394c-12 -67 -67 -77 -149 -83c-117 -9 -315 -11 -444 -11c-56 0 -90 24 -90 94c0 328 682 929 1095 1224c-68 9 -147 11 -186 11
c-460 0 -735 -259 -855 -259c-51 0 -81 31 -81 69c0 286 130 471 237 524z" />
    <glyph glyph-name="six" unicode="6" 
d="M1707 1646c46 -7 68 -21 68 -48c0 -28 -15 -49 -60 -54c-573 -70 -942 -465 -942 -989c0 -166 67 -393 249 -393c167 0 294 200 294 430c0 132 -43 218 -135 218c-53 0 -94 -25 -127 -25c-53 0 -72 25 -72 56c0 29 17 63 40 87c76 79 199 143 380 143
c238 0 414 -141 414 -392c0 -421 -392 -719 -830 -719c-459 0 -765 203 -765 641c0 633 624 1056 1294 1056c65 0 140 -3 192 -11z" />
    <glyph glyph-name="two" unicode="2" 
d="M366 129c-38 -55 -92 -120 -134 -120c-79 0 -148 13 -148 106c0 109 237 353 710 656c284 182 415 275 415 424c0 103 -84 137 -196 137c-236 0 -492 -111 -525 -122c-11 -4 -23 -6 -34 -6c-28 0 -54 13 -54 49c0 37 15 64 68 115c168 162 402 268 713 268
c267 0 552 -94 552 -382c0 -507 -884 -619 -1312 -936c384 10 1080 164 1203 164c50 0 79 -27 79 -60c0 -108 -137 -459 -257 -472c-37 -4 -74 -5 -111 -5c-233 0 -768 110 -969 184z" />
    <glyph glyph-name="question" unicode="?" horiz-adv-x="1534" 
d="M394 1209c-14 -8 -40 -13 -63 -13c-27 0 -50 9 -50 38c0 99 146 401 208 435c72 39 284 71 474 71c356 0 684 -104 684 -388c0 -415 -670 -543 -892 -818c-8 -9 -21 -14 -36 -14c-39 0 -174 76 -174 150c0 180 537 483 537 615c0 43 -47 74 -131 74
c-280 0 -423 -69 -557 -150zM538 -56c-161 0 -274 86 -274 200c0 156 204 285 409 285c163 0 274 -90 274 -204c0 -153 -201 -281 -409 -281z" />
    <glyph glyph-name="exclam" unicode="!" horiz-adv-x="1198" 
d="M756 557c-80 0 -196 0 -270 2c-41 1 -67 19 -67 53c0 191 179 745 224 1009c8 49 25 73 72 78c109 12 434 32 523 32c55 0 83 -21 83 -57c0 -12 -3 -26 -6 -35c-170 -465 -357 -689 -463 -1017c-14 -44 -50 -65 -96 -65zM470 -56c-161 0 -274 86 -274 200
c0 156 204 285 409 285c163 0 274 -90 274 -204c0 -153 -201 -281 -409 -281z" />
    <glyph glyph-name="colon" unicode=":" horiz-adv-x="1198" 
d="M470 -56c-161 0 -274 86 -274 200c0 156 204 285 409 285c163 0 274 -90 274 -204c0 -153 -201 -281 -409 -281zM662 644c-161 0 -274 86 -274 200c0 156 204 285 409 285c163 0 274 -90 274 -204c0 -153 -201 -281 -409 -281z" />
    <glyph glyph-name="eight" unicode="8" 
d="M462 1139c0 373 450 532 836 532c349 0 514 -136 514 -334c0 -165 -152 -326 -288 -326c-37 0 -64 21 -64 56c0 78 130 82 130 254c0 114 -86 182 -229 182c-158 0 -292 -85 -292 -212c0 -251 666 -390 666 -797c0 -391 -400 -545 -887 -545c-388 0 -684 153 -684 409
c0 226 234 352 516 430c-121 95 -218 204 -218 351zM535 341c0 -135 136 -223 289 -223c182 0 311 106 311 231c0 140 -177 243 -350 362c-164 -92 -250 -209 -250 -370z" />
    <glyph glyph-name="parenleft" unicode="(" horiz-adv-x="1193" 
d="M1341 1584c-315 -217 -646 -665 -646 -1165c0 -180 42 -365 144 -548c45 -81 113 -135 113 -163c0 -12 -5 -31 -37 -31c-17 0 -63 18 -104 39c-287 148 -443 380 -443 719c0 688 458 1034 906 1255c77 38 121 58 164 58c28 0 45 -10 45 -29c0 -43 -101 -106 -142 -135z
" />
    <glyph glyph-name="parenright" unicode=")" horiz-adv-x="1193" 
d="M12 -179c315 217 646 665 646 1165c0 180 -42 365 -144 548c-45 81 -113 135 -113 163c0 12 5 31 37 31c17 0 63 -18 104 -39c287 -148 443 -380 443 -719c0 -688 -458 -1034 -906 -1255c-77 -38 -121 -58 -164 -58c-28 0 -45 10 -45 29c0 43 101 106 142 135z" />
    <glyph glyph-name="three" unicode="3" 
d="M830 121c135 0 295 131 295 322c0 133 -127 252 -355 305c-91 21 -136 46 -136 81c0 52 60 74 123 82c317 38 496 147 496 297c0 96 -110 180 -233 180c-163 0 -246 -23 -422 -102c-52 -23 -75 -35 -103 -35c-30 0 -54 20 -54 52c0 41 32 74 56 94
c144 121 363 242 772 242c280 0 530 -116 530 -346c0 -240 -269 -385 -573 -442c274 -34 478 -136 478 -408c0 -313 -418 -483 -882 -483c-400 0 -598 73 -677 122c-30 19 -42 31 -42 63c0 68 81 330 146 330c84 0 253 -354 581 -354z" />
    <glyph glyph-name="five" unicode="5" 
d="M1063 959c330 0 673 -50 673 -405c0 -377 -467 -594 -898 -594c-400 0 -598 73 -677 122c-30 19 -42 31 -42 63c0 68 81 330 146 330c76 0 286 -334 558 -334c228 0 368 174 368 349c0 161 -169 263 -452 263c-115 0 -257 -18 -289 -18c-47 0 -100 64 -100 110
c0 47 146 407 268 727c13 34 102 95 136 95c62 0 285 -31 595 -31c153 0 215 10 360 48c46 0 89 -29 89 -67c0 -186 -33 -440 -199 -440c-136 0 -521 85 -800 164l-219 -480c153 59 321 98 483 98z" />
    <glyph glyph-name="one" unicode="1" horiz-adv-x="1186" 
d="M838 164c-6 -25 -9 -51 -9 -72c0 -15 1 -28 1 -37c0 -45 -53 -67 -95 -67c-216 0 -260 -16 -407 -16c-72 0 -146 4 -146 86c0 29 1 63 9 91c139 501 405 944 405 1040c0 36 -39 57 -80 57c-64 0 -161 -54 -230 -54c-34 0 -56 28 -56 53c0 31 18 52 58 79
c259 175 535 309 730 309c120 0 205 -49 205 -184c0 -125 -39 -251 -115 -433c-136 -325 -196 -542 -270 -852z" />
    <glyph glyph-name="four" unicode="4" 
d="M1763 502c-10 -1 -111 -9 -250 -18c-35 -114 -63 -230 -66 -330c-2 -44 -8 -85 -8 -109c0 -45 -53 -67 -95 -67c-84 0 -295 -6 -398 -6c-65 0 -105 26 -105 86c0 29 3 62 9 91c18 90 63 195 119 300c-221 -13 -422 -23 -496 -23c-114 0 -198 5 -227 17
c-44 18 -147 105 -147 158c0 7 2 14 6 20c117 154 439 465 553 902c21 80 55 106 130 106c32 0 470 16 552 16c53 0 72 -21 72 -52c0 -17 -6 -37 -16 -59c-19 -41 -801 -767 -801 -832c0 -25 135 -39 233 -41c78 -2 172 -3 259 -3c94 158 184 295 198 359c10 45 41 67 86 67
c40 0 123 -2 161 -2c90 0 121 -34 121 -114c0 -64 -41 -179 -85 -312c134 -2 204 -4 230 -4c28 0 39 -14 39 -42c0 -43 -10 -61 -16 -77c-6 -17 -26 -27 -58 -31z" />
    <glyph glyph-name="nine" unicode="9" 
d="M307 -47c-46 7 -68 21 -68 48c0 28 15 49 60 54c573 70 942 465 942 989c0 166 -67 393 -249 393c-167 0 -294 -200 -294 -430c0 -132 43 -218 135 -218c53 0 94 25 127 25c53 0 72 -25 72 -56c0 -29 -17 -63 -40 -87c-76 -79 -199 -143 -380 -143
c-238 0 -414 141 -414 392c0 421 392 719 830 719c459 0 765 -203 765 -641c0 -633 -624 -1056 -1294 -1056c-65 0 -140 3 -192 11z" />
    <glyph glyph-name="comma" unicode="," horiz-adv-x="1198" 
d="M554 -32c-19 -3 -40 -5 -62 -5c-199 0 -276 82 -276 184c0 146 164 282 397 282c164 0 286 -92 286 -243c0 -253 -270 -577 -518 -577c-51 0 -66 21 -66 47c0 20 13 34 61 67c74 50 151 148 178 245z" />
    <glyph glyph-name="semicolon" unicode=";" horiz-adv-x="1198" 
d="M549 -32c-19 -3 -40 -5 -62 -5c-199 0 -276 82 -276 184c0 146 164 282 397 282c164 0 286 -92 286 -243c0 -253 -270 -577 -518 -577c-51 0 -66 21 -66 47c0 20 13 34 61 67c74 50 151 148 178 245zM642 644c-161 0 -274 86 -274 200c0 156 204 285 409 285
c163 0 274 -90 274 -204c0 -153 -201 -281 -409 -281z" />
    <glyph glyph-name="at" unicode="@" horiz-adv-x="2961" 
d="M2112 221c0 -57 28 -87 114 -87c265 0 452 210 452 554c0 386 -361 622 -1077 622c-838 0 -1294 -420 -1294 -925c0 -512 476 -686 1062 -686c459 0 946 85 1300 244l34 -85c-372 -191 -870 -288 -1346 -288c-681 0 -1195 214 -1195 806c0 600 534 1078 1476 1078
c710 0 1187 -305 1187 -754c0 -532 -382 -740 -915 -740c-214 0 -373 30 -430 156c-57 -58 -198 -156 -430 -156c-229 0 -462 105 -462 386c0 336 284 715 796 715c169 0 292 -49 363 -112c1 8 1 17 1 25c0 13 -1 25 -1 37c0 30 31 50 97 50c96 0 332 -21 458 -21
c38 0 52 -28 52 -50c0 -175 -242 -615 -242 -769zM1169 377c0 -97 59 -163 145 -163c82 0 207 43 314 288c32 73 58 166 58 238s-29 120 -120 120c-198 0 -397 -263 -397 -483z" />
    <glyph glyph-name="bullet" unicode="&#x2022;" horiz-adv-x="1365" 
d="M668 481c-201 0 -342 107 -342 250c0 194 254 355 510 355c203 0 342 -112 342 -254c0 -191 -251 -351 -510 -351z" />
    <glyph glyph-name="periodcentered" unicode="&#xb7;" horiz-adv-x="1198" 
d="M594 491c-161 0 -274 86 -274 200c0 156 204 285 409 285c163 0 274 -90 274 -204c0 -153 -201 -281 -409 -281z" />
    <glyph glyph-name="exclamdown" unicode="&#xa1;" horiz-adv-x="1198" 
d="M532 663c-46 0 -82 -21 -96 -65c-106 -328 -293 -552 -463 -1017c-3 -9 -6 -23 -6 -35c0 -36 28 -57 83 -57c89 0 414 20 523 32c47 5 64 29 72 78c45 264 224 818 224 1009c0 34 -26 52 -67 53c-74 2 -190 2 -270 2zM818 1276c161 0 274 -86 274 -200
c0 -156 -204 -285 -409 -285c-163 0 -274 90 -274 204c0 153 201 281 409 281z" />
    <glyph glyph-name="questiondown" unicode="&#xbf;" horiz-adv-x="1534" 
d="M1200 20c-134 -81 -277 -150 -557 -150c-84 0 -131 31 -131 74c0 132 537 435 537 615c0 74 -135 150 -174 150c-15 0 -28 -5 -36 -14c-222 -275 -892 -403 -892 -818c0 -284 328 -388 684 -388c190 0 402 32 474 71c62 34 208 336 208 435c0 29 -23 38 -50 38
c-23 0 -49 -5 -63 -13zM1056 1285c161 0 274 -86 274 -200c0 -156 -204 -285 -409 -285c-163 0 -274 90 -274 204c0 153 201 281 409 281z" />
    <glyph glyph-name="copyright" unicode="&#xa9;" horiz-adv-x="2190" 
d="M1370 1263c-139 0 -350 -323 -350 -570c0 -139 65 -248 226 -248s234 54 287 54c19 0 33 -5 33 -21c0 -84 -260 -189 -470 -189c-275 0 -458 147 -458 376c0 369 406 695 723 695c216 0 328 -113 328 -290c0 -140 -79 -283 -243 -283c-43 0 -120 18 -120 77
c0 37 123 291 123 350c0 42 -37 49 -79 49zM265 800c0 513 417 930 930 930s930 -417 930 -930s-417 -930 -930 -930s-930 417 -930 930zM380 801c0 -448 364 -812 812 -812c449 0 814 364 814 812c0 449 -365 814 -814 814c-448 0 -812 -365 -812 -814z" />
    <glyph glyph-name="registered" unicode="&#xae;" horiz-adv-x="2190" 
d="M265 800c0 513 417 930 930 930s930 -417 930 -930s-417 -930 -930 -930s-930 417 -930 930zM380 801c0 -448 364 -812 812 -812c449 0 814 364 814 812c0 449 -365 814 -814 814c-448 0 -812 -365 -812 -814zM1172 1064c-19 -39 -41 -127 -65 -229
c180 23 307 105 307 248c0 139 -146 155 -245 155c-243 0 -378 -97 -410 -97c-17 0 -28 8 -28 21c0 18 12 37 30 50c129 97 311 161 597 161c152 0 386 -55 386 -253c0 -173 -168 -249 -379 -288c137 0 246 -66 246 -170c0 -50 -9 -100 -9 -154c0 -86 110 -26 110 -90
c0 -57 -140 -105 -300 -105c-127 0 -188 52 -188 138c0 79 35 163 35 222c0 44 -46 103 -138 103h-27c-24 -109 -48 -225 -69 -310c-33 -132 -89 -149 -204 -149c-138 0 -268 68 -268 118c0 19 18 31 35 31c63 0 87 14 120 97c66 164 87 486 219 562c50 29 143 41 205 41
c32 0 65 -3 65 -32c0 -14 -2 -22 -25 -70z" />
    <glyph glyph-name="dotaccent" unicode="&#x2d9;" horiz-adv-x="1229" 
d="M556 1224c-140 0 -239 75 -239 174c0 137 178 249 357 249c142 0 238 -78 238 -178c0 -133 -175 -245 -356 -245z" />
    <glyph glyph-name="dotaccent.cap" horiz-adv-x="1229" 
d="M554 1661c-145 0 -250 60 -250 167c0 129 195 216 368 216c146 0 248 -62 248 -168c0 -128 -190 -215 -366 -215z" />
    <glyph glyph-name="uni1E61" unicode="&#x1e61;" horiz-adv-x="1534" 
d="M726 -39c-25 -1 -49 -1 -74 -1c-304 0 -624 66 -674 143c-12 18 -12 33 -12 51c0 25 115 140 158 140c69 0 153 -170 388 -170c68 0 114 37 114 96c0 173 -481 163 -481 436c0 317 556 405 836 405c171 0 438 -20 524 -73c12 -7 16 -22 16 -47c0 -75 -98 -303 -170 -303
c-8 0 -16 4 -22 11c-111 133 -227 237 -379 237c-60 0 -149 -22 -149 -102c0 -141 519 -196 519 -457c0 -72 -22 -130 -59 -178c168 33 315 84 388 123c15 8 27 13 43 13c19 0 36 -13 36 -38s-12 -40 -33 -54c-110 -76 -505 -232 -969 -232zM999 1224
c-140 0 -239 75 -239 174c0 137 178 249 357 249c142 0 238 -78 238 -178c0 -133 -175 -245 -356 -245z" />
    <glyph glyph-name="uni1E57" unicode="&#x1e57;" 
d="M1021 -38c-19 -1 -38 -2 -57 -2c-136 0 -291 42 -388 122c-55 -169 -69 -383 -69 -487c0 -10 1 -19 1 -29c0 -30 -31 -50 -97 -50c-96 0 -339 -12 -465 -12c-34 0 -52 26 -52 47c0 280 374 1049 374 1323c0 21 -4 60 -4 83c0 42 10 72 98 72c109 0 338 11 454 11
c38 0 52 -28 52 -50c0 -41 -14 -94 -14 -137c136 154 309 208 491 208c241 0 402 -120 402 -382c0 -216 -104 -408 -267 -540c277 20 408 77 476 115c34 19 56 31 81 31c22 0 34 -13 34 -37c0 -20 -19 -40 -37 -53c-238 -166 -627 -233 -1013 -233zM1195 644
c0 97 -59 163 -145 163c-82 0 -207 -43 -314 -288c-32 -73 -58 -166 -58 -238s29 -120 120 -120c198 0 397 263 397 483zM1361 1224c-140 0 -239 75 -239 174c0 137 178 249 357 249c142 0 238 -78 238 -178c0 -133 -175 -245 -356 -245z" />
    <glyph glyph-name="uni1E41" unicode="&#x1e41;" horiz-adv-x="2558" 
d="M2707 184c-71 -53 -423 -224 -822 -224c-118 0 -200 56 -200 136c0 144 155 458 155 590c0 69 -33 99 -109 99c-34 0 -69 -6 -108 -16c-22 -241 -158 -557 -188 -707c-7 -34 -4 -71 -53 -71c-254 0 -350 -11 -465 -11c-24 0 -41 15 -41 50c0 133 199 498 199 686
c0 57 -31 89 -116 89c-36 0 -68 -7 -93 -16c-67 -229 -189 -579 -246 -761c-11 -33 -45 -37 -53 -37c-254 0 -403 -11 -514 -11c-14 0 -38 22 -38 39c0 82 272 624 272 922c0 13 -1 25 -1 38c0 30 31 50 97 50c109 0 358 11 474 11c38 0 52 -28 52 -50c0 -17 -4 -44 -11 -76
c138 76 296 147 465 147c102 0 224 -50 255 -170c159 83 366 170 540 170c119 0 243 -66 243 -232c0 -210 -146 -448 -146 -576c0 -42 29 -74 77 -74c110 0 248 56 320 90c18 8 40 16 58 16c20 0 42 -12 42 -36c0 -18 -3 -34 -45 -65zM1469 1224c-140 0 -239 75 -239 174
c0 137 178 249 357 249c142 0 238 -78 238 -178c0 -133 -175 -245 -356 -245z" />
    <glyph glyph-name="uni1E0B" unicode="&#x1e0b;" 
d="M523 -40c-229 0 -442 105 -442 386c0 336 264 715 776 715c209 0 327 -63 404 -121c22 140 56 367 56 465c0 10 -1 19 -1 29c0 30 31 50 97 50c96 0 322 -21 448 -21c34 0 52 -26 52 -47c0 -239 -330 -1073 -330 -1176c0 -51 14 -81 61 -81c73 0 239 60 348 116
c8 4 22 10 34 10c25 0 45 -13 45 -41c0 -26 -16 -41 -42 -60c-134 -98 -469 -224 -761 -224c-156 0 -273 32 -315 156c-57 -58 -198 -156 -430 -156zM642 377c0 -97 59 -163 145 -163c82 0 207 43 314 288c38 73 72 172 72 244s-29 120 -120 120c-203 0 -411 -269 -411 -489
zM759 1224c-140 0 -239 75 -239 174c0 137 178 249 357 249c142 0 238 -78 238 -178c0 -133 -175 -245 -356 -245z" />
    <glyph glyph-name="uni1E03" unicode="&#x1e03;" 
d="M47 96c0 82 379 999 379 1297c0 13 -1 25 -1 38c0 30 31 50 97 50h261c81 0 146 3 201 3c38 0 52 -28 52 -50c0 -85 -90 -332 -184 -582l1 1c115 132 286 208 477 208c259 0 417 -116 417 -390c0 -204 -109 -397 -275 -531c243 21 420 79 513 130c20 11 31 15 47 15
c23 0 39 -12 39 -34c0 -23 -16 -41 -35 -55c-159 -111 -545 -230 -990 -232c-25 -2 -51 -4 -76 -4c-117 0 -279 41 -371 118c-117 -40 -316 -99 -384 -99c-90 0 -168 49 -168 117zM1195 644c0 97 -59 163 -145 163c-82 0 -207 -43 -314 -288c-32 -73 -58 -166 -58 -238
s29 -120 120 -120c198 0 397 263 397 483zM1485 1224c-140 0 -239 75 -239 174c0 137 178 249 357 249c142 0 238 -78 238 -178c0 -133 -175 -245 -356 -245z" />
    <glyph glyph-name="uni1E1F" unicode="&#x1e1f;" horiz-adv-x="1366" 
d="M590 -391c-2 -29 -29 -52 -50 -52c-51 0 -323 16 -490 16c-19 0 -34 17 -34 33c14 162 49 370 98 585c-34 19 -65 38 -88 55c-21 14 -51 36 -51 67c0 26 17 37 43 37c10 0 22 -2 33 -7c27 -12 58 -25 90 -38c84 341 201 685 327 893c135 222 296 321 541 321
c211 0 351 -119 351 -368c0 -418 -262 -793 -647 -968c21 -2 40 -3 55 -3c349 0 572 52 715 99c11 4 28 6 36 6c23 0 41 -11 41 -35c0 -20 -12 -34 -31 -46c-158 -94 -471 -170 -882 -181c-30 -165 -49 -309 -57 -414zM870 928c-72 -221 -131 -452 -176 -664
c270 182 467 573 467 937c0 139 -29 176 -75 176c-61 0 -98 -84 -216 -449zM688 1592c-140 0 -239 75 -239 174c0 137 178 249 357 249c142 0 238 -78 238 -178c0 -133 -175 -245 -356 -245z" />
    <glyph glyph-name="uni1E6B" unicode="&#x1e6b;" horiz-adv-x="1197" 
d="M1343 187c-203 -134 -671 -227 -989 -227c-192 0 -292 65 -292 167c0 133 188 417 272 720c-41 -2 -75 -3 -86 -3c-29 0 -59 14 -59 48c0 32 20 58 55 63c33 5 73 9 117 14c8 47 13 95 13 143c0 13 -1 25 -1 38c0 30 49 52 114 61c115 15 392 95 505 95
c38 0 52 -28 52 -50c0 -64 -20 -147 -50 -238c132 15 240 34 263 34c38 0 74 -12 74 -59c0 -39 -29 -63 -72 -72c-47 -10 -178 -25 -314 -38c-100 -260 -241 -543 -241 -636c0 -54 38 -71 88 -71c182 0 367 35 510 95c19 8 39 14 58 14c18 0 31 -15 31 -35s-9 -37 -48 -63z
M794 1409c-140 0 -239 75 -239 174c0 137 178 249 357 249c142 0 238 -78 238 -178c0 -133 -175 -245 -356 -245z" />
    <glyph glyph-name="acute" unicode="&#xb4;" horiz-adv-x="1229" 
d="M743 1712c15 8 32 11 51 11c92 0 216 -88 216 -173c0 -42 -31 -85 -112 -114c-243 -88 -364 -135 -571 -235c-27 -13 -49 -19 -67 -19c-25 0 -41 13 -41 38c0 69 242 340 524 492z" />
    <glyph glyph-name="ae" unicode="&#xe6;" horiz-adv-x="2554" 
d="M2693 192c-83 -49 -438 -232 -948 -232c-402 0 -560 108 -600 300c-120 -149 -272 -300 -573 -300c-250 0 -491 68 -491 402c0 358 346 669 868 669c140 0 176 -22 176 -59c0 -35 -21 -49 -134 -97c-182 -77 -349 -278 -349 -498c0 -97 59 -163 145 -163
c227 0 454 373 454 790c0 13 -1 25 -1 37c0 30 31 50 97 50c94 0 274 -59 399 -61c89 20 184 31 284 31c344 0 485 -121 485 -296c0 -289 -368 -393 -848 -428c18 -161 190 -202 334 -202c204 0 453 70 675 141c15 5 27 9 41 9c16 0 35 -7 35 -34c0 -19 -6 -34 -49 -59z
M1658 447c223 62 376 193 376 386c0 50 -36 81 -87 81c-162 0 -271 -248 -289 -467z" />
    <glyph glyph-name="acute.cap" horiz-adv-x="1229" 
d="M660 2013c66 25 124 37 166 37c127 0 224 -79 224 -164c0 -43 -26 -102 -113 -114c-140 -19 -444 -55 -650 -118c-26 -8 -47 -13 -73 -13c-22 0 -35 14 -35 39c0 75 221 235 481 333z" />
    <glyph glyph-name="ring" unicode="&#x2da;" horiz-adv-x="1229" 
d="M443 1392c0 -76 65 -115 144 -115c102 0 196 51 196 158c0 63 -52 101 -126 101c-102 0 -214 -36 -214 -144zM684 1677c232 0 349 -86 349 -224c0 -166 -189 -301 -487 -301c-220 0 -351 74 -351 217c0 175 184 308 489 308z" />
    <glyph glyph-name="ring.cap" horiz-adv-x="1229" 
d="M433 1765c0 -76 75 -105 154 -105c98 0 206 37 206 135c0 72 -57 104 -136 104c-102 0 -224 -36 -224 -134zM684 2040c232 0 359 -76 359 -214c0 -166 -199 -291 -497 -291c-220 0 -361 64 -361 207c0 175 194 298 499 298z" />
    <glyph glyph-name="grave" unicode="`" horiz-adv-x="1229" 
d="M485 1716c254 -143 493 -421 493 -490c0 -29 -22 -44 -40 -44c-14 0 -32 10 -68 25c-209 90 -304 127 -489 190c-95 32 -131 78 -131 130c0 90 114 196 198 196c13 0 26 -1 37 -7z" />
    <glyph glyph-name="grave.cap" horiz-adv-x="1229" 
d="M413 2050c264 0 592 -301 592 -376c0 -23 -16 -38 -43 -38c-37 0 -67 9 -123 26c-184 56 -287 74 -483 93c-74 7 -133 61 -133 143c0 98 85 152 190 152z" />
    <glyph glyph-name="dieresis" unicode="&#xa8;" horiz-adv-x="1229" 
d="M199 1216c-132 0 -226 70 -226 164c0 129 168 235 337 235c134 0 226 -74 226 -168c0 -127 -167 -231 -337 -231zM919 1216c-132 0 -226 70 -226 164c0 129 168 235 337 235c134 0 226 -74 226 -168c0 -127 -166 -231 -337 -231z" />
    <glyph glyph-name="dieresis.cap" horiz-adv-x="1229" 
d="M189 1641c-132 0 -236 60 -236 154c0 129 178 225 347 225c134 0 236 -64 236 -158c0 -127 -177 -221 -347 -221zM929 1641c-132 0 -236 60 -236 154c0 129 178 225 347 225c134 0 236 -64 236 -158c0 -127 -176 -221 -347 -221z" />
    <glyph glyph-name="underscore" unicode="_" horiz-adv-x="1125" 
d="M-312 -183h1391c43 0 65 -38 65 -76s-22 -76 -65 -76h-1391c-43 0 -65 38 -65 76s22 76 65 76z" />
    <glyph glyph-name="eth" unicode="&#xf0;" 
d="M684 1322l204 110c-80 50 -182 86 -315 102c-39 5 -54 20 -54 44c0 43 49 53 87 58c54 8 129 11 194 11c134 0 259 -18 371 -52l288 137c5 3 11 4 17 4c42 0 82 -63 82 -113c0 -25 -10 -46 -33 -56l-145 -60c245 -141 391 -380 391 -680c0 -293 -116 -515 -303 -661
c216 31 410 75 497 106c21 8 41 13 57 13c21 0 39 -10 39 -34c0 -22 -12 -39 -35 -55c-143 -99 -654 -206 -1081 -228c-49 -5 -100 -8 -151 -8c-306 0 -708 95 -708 481c0 379 385 610 852 610c82 0 140 -1 195 -8c-18 98 -53 194 -118 276l-272 -129c-7 -4 -20 -5 -29 -5
c-41 0 -72 21 -72 64c0 36 15 58 42 73zM1152 801c0 28 -1 58 -2 87c-17 2 -35 4 -53 4c-275 0 -447 -280 -447 -529c0 -130 46 -220 175 -220c194 0 327 355 327 658z" />
    <glyph glyph-name="macron" unicode="&#xaf;" horiz-adv-x="1229" 
d="M265 1505c102 0 258 -20 386 -20c141 0 265 20 373 20c23 0 35 -25 35 -68c0 -84 -48 -133 -95 -133c-122 0 -224 20 -377 20c-145 0 -257 -20 -372 -20c-24 0 -45 20 -45 71c0 81 50 130 95 130z" />
    <glyph glyph-name="circumflex" unicode="&#x2c6;" horiz-adv-x="1229" 
d="M833 1669c159 -189 276 -354 285 -414c1 -6 1 -11 1 -15c0 -31 -25 -42 -51 -42c-23 0 -48 8 -91 37c-145 99 -195 130 -319 205c-150 -67 -220 -103 -409 -205c-33 -18 -65 -30 -91 -30c-25 0 -48 15 -48 45c0 64 210 274 446 435c51 35 80 42 153 42
c57 0 95 -23 124 -58z" />
    <glyph glyph-name="thorn" unicode="&#xfe;" 
d="M1021 -38c-19 -1 -38 -2 -57 -2c-132 0 -280 40 -378 114c-5 -2 -9 -4 -14 -5c-52 -167 -65 -372 -65 -474c0 -10 1 -19 1 -29c0 -30 -31 -50 -97 -50c-96 0 -339 -12 -465 -12c-34 0 -52 26 -52 47c0 121 103 436 310 1000c135 369 228 624 228 779c0 33 -7 65 -7 101
c0 30 31 50 97 50h261c81 0 146 3 201 3c38 0 52 -28 52 -50c0 -85 -91 -333 -184 -583c138 156 311 210 493 210c241 0 402 -120 402 -382c0 -216 -104 -408 -267 -540c277 20 408 77 476 115c34 19 56 31 81 31c22 0 34 -13 34 -37c0 -20 -19 -40 -37 -53
c-238 -166 -627 -233 -1013 -233zM1195 644c0 97 -59 163 -145 163c-82 0 -207 -43 -314 -288c-32 -73 -58 -166 -58 -238s29 -120 120 -120c198 0 397 263 397 483z" />
    <glyph glyph-name="circumflex.cap" horiz-adv-x="1229" 
d="M831 1991c157 -155 266 -274 266 -329c0 -31 -25 -42 -51 -42c-23 0 -59 6 -93 20c-152 61 -183 75 -307 142c-149 -57 -179 -68 -366 -132c-41 -14 -78 -23 -104 -23c-25 0 -48 15 -48 45c0 60 177 185 416 335c52 33 80 42 153 42c67 0 102 -26 134 -58z" />
    <glyph glyph-name="Thorn" unicode="&#xde;" horiz-adv-x="2046" 
d="M904 1556c173 0 247 -40 247 -220c0 -218 -216 -649 -323 -959c41 -4 82 -6 122 -6c263 0 535 113 535 419c0 120 -49 204 -183 214c-76 6 -113 19 -113 44c0 26 53 66 119 95c80 35 147 47 256 47c228 0 434 -159 434 -415c0 -429 -366 -549 -889 -549
c-106 0 -212 8 -319 29c-14 -52 -22 -97 -22 -134c0 -20 3 -42 3 -66c0 -45 -63 -67 -105 -67c-116 0 -254 -6 -401 -6c-72 0 -146 4 -146 86c0 29 3 64 9 91c62 261 359 818 359 976c0 73 -20 92 -53 92c-35 0 -81 -24 -118 -24c-25 0 -44 4 -44 31c0 38 44 81 82 112
c133 109 381 210 550 210z" />
    <glyph glyph-name="macron.cap" horiz-adv-x="1229" 
d="M235 1949c102 0 288 -20 416 -20c141 0 295 20 403 20c23 0 35 -45 35 -88c0 -84 -48 -153 -95 -153c-122 0 -254 20 -407 20c-145 0 -287 -20 -402 -20c-24 0 -45 40 -45 91c0 81 50 150 95 150z" />
    <glyph glyph-name="hyphen" unicode="-" horiz-adv-x="1479" 
d="M244 534c0 68 3 153 101 163c48 5 72 5 126 5c102 0 278 -9 418 -9c116 0 298 10 354 10c25 0 51 -14 51 -59c0 -68 -3 -153 -101 -163c-48 -5 -72 -5 -126 -5c-102 0 -278 9 -418 9c-116 0 -298 -10 -354 -10c-25 0 -51 14 -51 59z" />
    <glyph glyph-name="equal" unicode="=" horiz-adv-x="1479" 
d="M216 334c0 68 3 153 101 163c48 5 72 5 126 5c102 0 278 -9 418 -9c116 0 298 10 354 10c25 0 51 -14 51 -59c0 -68 -3 -153 -101 -163c-48 -5 -72 -5 -126 -5c-102 0 -278 9 -418 9c-116 0 -298 -10 -354 -10c-25 0 -51 14 -51 59zM320 794c0 68 3 153 101 163
c48 5 72 5 126 5c102 0 278 -9 418 -9c116 0 298 10 354 10c25 0 51 -14 51 -59c0 -68 -3 -153 -101 -163c-48 -5 -72 -5 -126 -5c-102 0 -278 9 -418 9c-116 0 -298 -10 -354 -10c-25 0 -51 14 -51 59z" />
    <glyph glyph-name="OE" unicode="&#x152;" horiz-adv-x="2965" 
d="M2850 238c0 -138 -424 -278 -774 -278c-427 0 -789 215 -789 397c0 68 318 223 318 772c0 151 307 447 755 447c217 0 501 -19 644 -105c20 -12 38 -29 38 -61c0 -75 -124 -249 -181 -302c-18 -18 -35 -31 -68 -31c-45 0 -79 46 -104 87c-90 148 -182 245 -336 245
c-222 0 -303 -156 -303 -299c0 -130 166 -197 349 -197c27 0 56 6 84 6s38 -16 38 -56c0 -87 -69 -148 -116 -148c-280 0 -482 -67 -482 -280c0 -193 206 -250 344 -250c164 0 350 41 514 86c10 3 22 5 31 5c24 0 38 -13 38 -38zM1031 1087c-140 -113 -299 -381 -299 -693
c0 -159 48 -259 169 -259c232 0 512 405 512 837c0 293 -95 406 -340 406c-299 0 -604 -141 -641 -141c-19 0 -37 6 -37 30c0 80 453 309 869 309c540 0 757 -287 757 -654c0 -597 -538 -962 -1182 -962c-469 0 -714 168 -714 503c0 488 557 807 951 807c59 0 75 -27 75 -48
c0 -38 -48 -70 -120 -135z" />
    <glyph glyph-name="eng" unicode="&#x14b;" horiz-adv-x="1880" 
d="M2029 184c-46 -33 -284 -144 -529 -196c-109 -394 -193 -498 -552 -498c-197 0 -379 49 -379 129c0 32 26 44 52 44c22 0 47 -4 68 -4c103 0 193 185 288 440c68 183 172 492 172 617c0 69 -63 89 -139 89c-46 0 -98 -7 -143 -16c-66 -229 -189 -579 -246 -761
c-11 -33 -44 -37 -53 -37c-254 0 -404 -11 -515 -11c-14 0 -38 22 -38 39c0 82 273 624 273 922c0 13 -1 25 -1 38c0 30 31 50 97 50c109 0 358 11 474 11c38 0 52 -28 52 -50c0 -17 -4 -44 -11 -76c135 57 388 147 578 147c112 0 265 -59 265 -203
c0 -189 -124 -457 -194 -694c70 0 356 62 440 108c11 6 31 13 49 13c20 0 37 -11 37 -35c0 -18 -9 -40 -45 -66z" />
    <glyph glyph-name="commaaccent" horiz-adv-x="1229" 
d="M662 -404c-34 -9 -75 -11 -126 -11c-163 0 -267 38 -267 124c0 101 173 182 417 182c114 0 273 -38 273 -188c0 -210 -270 -303 -561 -303c-49 0 -85 10 -85 39c0 36 33 52 73 63c111 30 187 39 276 94z" />
    <glyph glyph-name="a" unicode="a" 
d="M642 377c0 -97 59 -163 145 -163c82 0 207 43 314 288c32 73 58 166 58 238s-29 120 -120 120c-198 0 -397 -263 -397 -483zM2036 196c-69 -62 -378 -236 -798 -236c-114 0 -253 26 -295 156c-57 -58 -188 -156 -420 -156c-229 0 -442 105 -442 386
c0 336 264 715 776 715c169 0 282 -49 353 -112c1 6 1 12 1 19c0 13 -1 27 -1 43c0 30 31 50 97 50c54 0 152 -6 249 -12c77 -5 153 -9 209 -9c38 0 52 -28 52 -50c0 -83 -55 -226 -112 -370c-63 -159 -130 -318 -130 -399c0 -51 22 -65 64 -65c81 0 285 83 350 118
c15 8 28 11 43 11c22 0 39 -9 39 -35c0 -22 -17 -38 -35 -54z" />
    <glyph glyph-name=".null" horiz-adv-x="0" 
 />
    <glyph glyph-name="CR" horiz-adv-x="0" 
 />
    <glyph glyph-name="nbspace" unicode="&#xa0;" horiz-adv-x="772" 
 />
    <glyph glyph-name="uni0001" horiz-adv-x="0" 
 />
    <glyph glyph-name="uni0002" horiz-adv-x="0" 
 />
    <glyph glyph-name="uni0003" horiz-adv-x="0" 
 />
    <glyph glyph-name="uni0004" horiz-adv-x="0" 
 />
    <glyph glyph-name="uni0005" horiz-adv-x="0" 
 />
    <glyph glyph-name="uni0006" horiz-adv-x="0" 
 />
    <glyph glyph-name="uni0007" horiz-adv-x="0" 
 />
    <glyph glyph-name="uni0008" horiz-adv-x="0" 
 />
    <glyph glyph-name="uni0009" unicode="&#x9;" horiz-adv-x="0" 
 />
    <glyph glyph-name="uni0010" horiz-adv-x="0" 
 />
    <glyph glyph-name="uni0011" horiz-adv-x="0" 
 />
    <glyph glyph-name="uni0012" horiz-adv-x="0" 
 />
    <glyph glyph-name="uni0013" horiz-adv-x="0" 
 />
    <glyph glyph-name="uni0014" horiz-adv-x="0" 
 />
    <glyph glyph-name="uni0015" horiz-adv-x="0" 
 />
    <glyph glyph-name="uni0016" horiz-adv-x="0" 
 />
    <glyph glyph-name="uni0017" horiz-adv-x="0" 
 />
    <glyph glyph-name="uni0018" horiz-adv-x="0" 
 />
    <glyph glyph-name="uni0019" horiz-adv-x="0" 
 />
    <glyph glyph-name="commaaccent.cap" horiz-adv-x="1229" 
d="M662 -404c-34 -9 -75 -11 -126 -11c-163 0 -267 38 -267 124c0 101 173 182 417 182c114 0 273 -38 273 -188c0 -210 -270 -303 -561 -303c-49 0 -85 10 -85 39c0 36 33 52 73 63c111 30 187 39 276 94z" />
    <glyph glyph-name="ogonek" unicode="&#x2db;" horiz-adv-x="1229" 
d="M879 96v-76c-96 -47 -223 -170 -223 -287c0 -83 64 -117 152 -117c52 0 81 9 103 9c23 0 43 -11 43 -38c0 -68 -178 -129 -413 -129c-175 0 -266 70 -266 167c0 181 321 387 604 471z" />
    <glyph glyph-name="hungarumlaut" unicode="&#x2dd;" horiz-adv-x="1229" 
d="M448 1720c22 12 48 18 74 18c72 0 147 -42 147 -104c0 -40 -32 -89 -115 -140c-168 -104 -255 -196 -456 -303c-30 -16 -62 -19 -74 -19c-15 0 -34 14 -34 38c0 70 181 356 458 510zM996 1700c19 11 42 15 67 15c82 0 177 -54 177 -122c0 -38 -29 -80 -108 -119
c-178 -88 -306 -176 -507 -283c-30 -16 -62 -19 -74 -19c-15 0 -34 14 -34 38c0 70 202 336 479 490z" />
    <glyph glyph-name="hungarumlaut.cap" horiz-adv-x="1229" 
d="M327 2016c20 15 51 34 84 34c72 0 147 -42 147 -104c0 -40 -32 -89 -115 -140c-168 -104 -147 -73 -348 -180c-30 -16 -56 -19 -68 -19c-25 0 -40 17 -40 42c0 73 128 205 340 367zM885 2012c19 11 42 15 67 15c82 0 177 -54 177 -122c0 -38 -29 -80 -108 -119
c-178 -88 -230 -74 -431 -181c-26 -14 -46 -19 -67 -19c-24 0 -41 14 -41 38c0 70 126 234 403 388z" />
    <glyph glyph-name="caron" unicode="&#x2c7;" horiz-adv-x="1229" 
d="M396 1256c-159 189 -276 354 -285 414c-1 6 -1 11 -1 15c0 31 25 42 51 42c23 0 48 -8 91 -37c145 -99 195 -130 319 -205c150 67 220 103 409 205c33 18 65 30 91 30c25 0 48 -15 48 -45c0 -64 -210 -274 -446 -435c-51 -35 -80 -42 -153 -42c-57 0 -95 23 -124 58z" />
    <glyph glyph-name="caron.cap" horiz-adv-x="1229" 
d="M394 1678c-157 156 -266 274 -266 329c0 31 25 42 51 42c23 0 59 -6 93 -20c152 -61 183 -75 307 -142c149 57 179 68 366 132c41 14 78 23 104 23c25 0 48 -15 48 -45c0 -60 -177 -185 -416 -335c-52 -33 -80 -42 -153 -42c-67 0 -102 26 -134 58z" />
    <glyph glyph-name="oe" unicode="&#x153;" horiz-adv-x="2455" 
d="M2594 192c-83 -49 -438 -232 -948 -232c-216 0 -361 31 -456 89c-123 -56 -275 -89 -456 -89c-395 0 -671 136 -671 450c0 412 441 651 914 651c172 0 335 -24 447 -105c140 68 310 105 497 105c344 0 485 -121 485 -296c0 -289 -368 -393 -848 -428
c18 -161 190 -202 334 -202c204 0 453 70 675 141c15 5 27 9 41 9c16 0 35 -7 35 -34c0 -19 -6 -34 -49 -59zM614 322c0 -92 23 -185 135 -185c179 0 318 329 318 605c0 68 -14 150 -101 150c-181 0 -352 -287 -352 -570zM1559 447c223 62 376 193 376 386
c0 50 -36 81 -87 81c-162 0 -271 -248 -289 -467z" />
    <glyph glyph-name="ellipsis" unicode="&#x2026;" horiz-adv-x="3297" 
d="M490 -56c-161 0 -274 86 -274 200c0 156 204 285 409 285c163 0 274 -90 274 -204c0 -153 -201 -281 -409 -281zM1589 -56c-161 0 -274 86 -274 200c0 156 204 285 409 285c163 0 274 -90 274 -204c0 -153 -201 -281 -409 -281zM2688 -56c-161 0 -274 86 -274 200
c0 156 204 285 409 285c163 0 274 -90 274 -204c0 -153 -201 -281 -409 -281z" />
    <glyph glyph-name="dotlessj" unicode="&#x237;" horiz-adv-x="1025" 
d="M572 -181c-76 -231 -213 -329 -504 -329c-127 0 -226 18 -302 50c-44 18 -77 46 -77 79c0 32 26 44 52 44c22 0 47 -4 68 -4c113 0 190 241 284 534c72 223 171 594 212 784c7 33 14 55 75 55c101 0 380 11 486 11c33 0 59 -18 59 -49c0 -26 -9 -44 -17 -65
c-119 -293 -174 -526 -233 -753c294 19 414 91 471 105c9 2 20 4 28 4c25 0 45 -13 45 -41c0 -19 -13 -31 -31 -43c-81 -56 -311 -139 -554 -179c-18 -66 -39 -133 -62 -203z" />
    <glyph glyph-name="dotlessi" unicode="&#x131;" horiz-adv-x="1027" 
d="M1130 271c14 7 30 14 49 14c27 0 42 -15 42 -42c0 -19 -14 -30 -31 -43c-121 -91 -542 -240 -840 -240c-156 0 -303 46 -303 166c0 102 251 531 251 818c0 13 -1 25 -1 38c0 30 31 50 97 50c109 0 378 11 494 11c38 0 52 -28 52 -50c0 -165 -252 -611 -252 -749
c0 -40 17 -75 63 -75c95 0 282 56 379 102z" />
    <glyph glyph-name="ij" unicode="&#x133;" horiz-adv-x="2052" 
d="M645 1144c-152 0 -259 81 -259 189c0 148 193 270 387 270c154 0 259 -85 259 -193c0 -145 -190 -266 -387 -266zM1130 271c14 7 30 14 49 14c27 0 42 -15 42 -42c0 -19 -14 -30 -31 -43c-121 -91 -542 -240 -840 -240c-156 0 -303 46 -303 166c0 102 251 531 251 818
c0 13 -1 25 -1 38c0 30 31 50 97 50c109 0 378 11 494 11c38 0 52 -28 52 -50c0 -165 -252 -611 -252 -749c0 -40 17 -75 63 -75c95 0 282 56 379 102zM1599 -181c-76 -231 -213 -329 -504 -329c-127 0 -226 18 -302 50c-44 18 -77 46 -77 79c0 32 26 44 52 44
c22 0 47 -4 68 -4c113 0 190 241 284 534c72 223 171 594 212 784c7 33 14 55 75 55c101 0 380 11 486 11c33 0 59 -18 59 -49c0 -26 -9 -44 -17 -65c-119 -293 -174 -526 -233 -753c294 19 414 91 471 105c9 2 20 4 28 4c25 0 45 -13 45 -41c0 -19 -13 -31 -31 -43
c-81 -56 -311 -139 -554 -179c-18 -66 -39 -133 -62 -203zM1678 1144c-152 0 -259 81 -259 189c0 148 193 270 387 270c154 0 259 -85 259 -193c0 -145 -190 -266 -387 -266z" />
    <glyph glyph-name="kgreenlandic" unicode="&#x138;" horiz-adv-x="1704" 
d="M1855 180c-202 -142 -503 -220 -738 -220c-188 0 -253 41 -253 140c0 79 42 152 42 241c0 79 -45 137 -159 147c-97 -266 -123 -381 -128 -460c-2 -28 -32 -37 -53 -37c-254 0 -404 -11 -515 -11c-14 0 -38 22 -38 39c0 90 270 604 270 932c0 10 -1 18 -1 28
c0 30 31 50 97 50c94 0 348 11 458 11c33 0 52 -25 52 -46c0 -106 -40 -233 -106 -411c247 65 385 217 385 361c0 13 -1 25 -1 38c0 30 31 50 97 50c70 0 330 11 391 11c38 0 52 -28 52 -50c0 -251 -426 -412 -728 -475c61 9 162 21 248 21c167 0 254 -51 254 -159
c0 -50 -26 -98 -26 -151c0 -43 15 -67 64 -67c70 0 219 66 285 103c21 12 39 20 53 20c18 0 41 -13 41 -40c0 -21 -8 -40 -43 -65z" />
    <glyph glyph-name="tilde" unicode="&#x2dc;" horiz-adv-x="1229" 
d="M1092 1424c-100 -110 -205 -173 -305 -173c-165 0 -303 126 -425 126c-59 0 -161 -86 -232 -86c-41 0 -69 17 -69 49c0 37 43 83 75 118c100 109 204 172 304 172c166 0 304 -125 426 -125c59 0 161 86 232 86c38 0 69 -17 69 -49c0 -36 -43 -84 -75 -118z" />
    <glyph glyph-name="agrave" unicode="&#xe0;" 
d="M642 377c0 -97 59 -163 145 -163c82 0 207 43 314 288c32 73 58 166 58 238s-29 120 -120 120c-198 0 -397 -263 -397 -483zM2036 196c-69 -62 -378 -236 -798 -236c-114 0 -253 26 -295 156c-57 -58 -188 -156 -420 -156c-229 0 -442 105 -442 386
c0 336 264 715 776 715c169 0 282 -49 353 -112c1 6 1 12 1 19c0 13 -1 27 -1 43c0 30 31 50 97 50c54 0 152 -6 249 -12c77 -5 153 -9 209 -9c38 0 52 -28 52 -50c0 -83 -55 -226 -112 -370c-63 -159 -130 -318 -130 -399c0 -51 22 -65 64 -65c81 0 285 83 350 118
c15 8 28 11 43 11c22 0 39 -9 39 -35c0 -22 -17 -38 -35 -54zM972 1716c254 -143 493 -421 493 -490c0 -29 -22 -44 -40 -44c-14 0 -32 10 -68 25c-209 90 -304 127 -489 190c-95 32 -131 78 -131 130c0 90 114 196 198 196c13 0 26 -1 37 -7z" />
    <glyph glyph-name="aacute" unicode="&#xe1;" 
d="M642 377c0 -97 59 -163 145 -163c82 0 207 43 314 288c32 73 58 166 58 238s-29 120 -120 120c-198 0 -397 -263 -397 -483zM2036 196c-69 -62 -378 -236 -798 -236c-114 0 -253 26 -295 156c-57 -58 -188 -156 -420 -156c-229 0 -442 105 -442 386
c0 336 264 715 776 715c169 0 282 -49 353 -112c1 6 1 12 1 19c0 13 -1 27 -1 43c0 30 31 50 97 50c54 0 152 -6 249 -12c77 -5 153 -9 209 -9c38 0 52 -28 52 -50c0 -83 -55 -226 -112 -370c-63 -159 -130 -318 -130 -399c0 -51 22 -65 64 -65c81 0 285 83 350 118
c15 8 28 11 43 11c22 0 39 -9 39 -35c0 -22 -17 -38 -35 -54zM1320 1712c15 8 32 11 51 11c92 0 216 -88 216 -173c0 -42 -31 -85 -112 -114c-243 -88 -364 -135 -571 -235c-27 -13 -49 -19 -67 -19c-25 0 -41 13 -41 38c0 69 242 340 524 492z" />
    <glyph glyph-name="adieresis" unicode="&#xe4;" 
d="M642 377c0 -97 59 -163 145 -163c82 0 207 43 314 288c32 73 58 166 58 238s-29 120 -120 120c-198 0 -397 -263 -397 -483zM2036 196c-69 -62 -378 -236 -798 -236c-114 0 -253 26 -295 156c-57 -58 -188 -156 -420 -156c-229 0 -442 105 -442 386
c0 336 264 715 776 715c169 0 282 -49 353 -112c1 6 1 12 1 19c0 13 -1 27 -1 43c0 30 31 50 97 50c54 0 152 -6 249 -12c77 -5 153 -9 209 -9c38 0 52 -28 52 -50c0 -83 -55 -226 -112 -370c-63 -159 -130 -318 -130 -399c0 -51 22 -65 64 -65c81 0 285 83 350 118
c15 8 28 11 43 11c22 0 39 -9 39 -35c0 -22 -17 -38 -35 -54zM796 1216c-132 0 -226 70 -226 164c0 129 168 235 337 235c134 0 226 -74 226 -168c0 -127 -167 -231 -337 -231zM1516 1216c-132 0 -226 70 -226 164c0 129 168 235 337 235c134 0 226 -74 226 -168
c0 -127 -166 -231 -337 -231z" />
    <glyph glyph-name="egrave" unicode="&#xe8;" horiz-adv-x="1537" 
d="M1682 192c-83 -49 -438 -232 -948 -232c-477 0 -676 152 -676 416c0 416 427 685 951 685c344 0 485 -121 485 -296c0 -289 -368 -393 -848 -428c18 -161 190 -202 334 -202c204 0 453 70 675 141c15 5 27 9 41 9c16 0 35 -7 35 -34c0 -19 -6 -34 -49 -59zM647 447
c223 62 376 193 376 386c0 50 -36 81 -87 81c-162 0 -271 -248 -289 -467zM802 1716c254 -143 493 -421 493 -490c0 -29 -22 -44 -40 -44c-14 0 -32 10 -68 25c-209 90 -304 127 -489 190c-95 32 -131 78 -131 130c0 90 114 196 198 196c13 0 26 -1 37 -7z" />
    <glyph glyph-name="eacute" unicode="&#xe9;" horiz-adv-x="1537" 
d="M1682 192c-83 -49 -438 -232 -948 -232c-477 0 -676 152 -676 416c0 416 427 685 951 685c344 0 485 -121 485 -296c0 -289 -368 -393 -848 -428c18 -161 190 -202 334 -202c204 0 453 70 675 141c15 5 27 9 41 9c16 0 35 -7 35 -34c0 -19 -6 -34 -49 -59zM647 447
c223 62 376 193 376 386c0 50 -36 81 -87 81c-162 0 -271 -248 -289 -467zM1150 1712c15 8 32 11 51 11c92 0 216 -88 216 -173c0 -42 -31 -85 -112 -114c-243 -88 -364 -135 -571 -235c-27 -13 -49 -19 -67 -19c-25 0 -41 13 -41 38c0 69 242 340 524 492z" />
    <glyph glyph-name="ecircumflex" unicode="&#xea;" horiz-adv-x="1537" 
d="M1682 192c-83 -49 -438 -232 -948 -232c-477 0 -676 152 -676 416c0 416 427 685 951 685c344 0 485 -121 485 -296c0 -289 -368 -393 -848 -428c18 -161 190 -202 334 -202c204 0 453 70 675 141c15 5 27 9 41 9c16 0 35 -7 35 -34c0 -19 -6 -34 -49 -59zM647 447
c223 62 376 193 376 386c0 50 -36 81 -87 81c-162 0 -271 -248 -289 -467zM1223 1669c159 -189 276 -354 285 -414c1 -6 1 -11 1 -15c0 -31 -25 -42 -51 -42c-23 0 -48 8 -91 37c-145 99 -195 130 -319 205c-150 -67 -220 -103 -409 -205c-33 -18 -65 -30 -91 -30
c-25 0 -48 15 -48 45c0 64 210 274 446 435c51 35 80 42 153 42c57 0 95 -23 124 -58z" />
    <glyph glyph-name="edieresis" unicode="&#xeb;" horiz-adv-x="1537" 
d="M1682 192c-83 -49 -438 -232 -948 -232c-477 0 -676 152 -676 416c0 416 427 685 951 685c344 0 485 -121 485 -296c0 -289 -368 -393 -848 -428c18 -161 190 -202 334 -202c204 0 453 70 675 141c15 5 27 9 41 9c16 0 35 -7 35 -34c0 -19 -6 -34 -49 -59zM647 447
c223 62 376 193 376 386c0 50 -36 81 -87 81c-162 0 -271 -248 -289 -467zM626 1216c-132 0 -226 70 -226 164c0 129 168 235 337 235c134 0 226 -74 226 -168c0 -127 -167 -231 -337 -231zM1346 1216c-132 0 -226 70 -226 164c0 129 168 235 337 235
c134 0 226 -74 226 -168c0 -127 -166 -231 -337 -231z" />
    <glyph glyph-name="idieresis" unicode="&#xef;" horiz-adv-x="1027" 
d="M1150 271c14 7 30 14 49 14c27 0 42 -15 42 -42c0 -19 -14 -30 -31 -43c-121 -91 -542 -240 -840 -240c-156 0 -303 46 -303 166c0 102 251 531 251 818c0 13 -1 25 -1 38c0 30 31 50 97 50c109 0 378 11 494 11c38 0 52 -28 52 -50c0 -165 -252 -611 -252 -749
c0 -40 17 -75 63 -75c95 0 282 56 379 102zM327 1216c-132 0 -226 70 -226 164c0 129 168 235 337 235c134 0 226 -74 226 -168c0 -127 -167 -231 -337 -231zM1047 1216c-132 0 -226 70 -226 164c0 129 168 235 337 235c134 0 226 -74 226 -168c0 -127 -166 -231 -337 -231z
" />
    <glyph glyph-name="igrave" unicode="&#xec;" horiz-adv-x="1027" 
d="M1150 271c14 7 30 14 49 14c27 0 42 -15 42 -42c0 -19 -14 -30 -31 -43c-121 -91 -542 -240 -840 -240c-156 0 -303 46 -303 166c0 102 251 531 251 818c0 13 -1 25 -1 38c0 30 31 50 97 50c109 0 378 11 494 11c38 0 52 -28 52 -50c0 -165 -252 -611 -252 -749
c0 -40 17 -75 63 -75c95 0 282 56 379 102zM537 1716c254 -143 493 -421 493 -490c0 -29 -22 -44 -40 -44c-14 0 -32 10 -68 25c-209 90 -304 127 -489 190c-95 32 -131 78 -131 130c0 90 114 196 198 196c13 0 26 -1 37 -7z" />
    <glyph glyph-name="iacute" unicode="&#xed;" horiz-adv-x="1027" 
d="M1150 271c14 7 30 14 49 14c27 0 42 -15 42 -42c0 -19 -14 -30 -31 -43c-121 -91 -542 -240 -840 -240c-156 0 -303 46 -303 166c0 102 251 531 251 818c0 13 -1 25 -1 38c0 30 31 50 97 50c109 0 378 11 494 11c38 0 52 -28 52 -50c0 -165 -252 -611 -252 -749
c0 -40 17 -75 63 -75c95 0 282 56 379 102zM851 1712c15 8 32 11 51 11c92 0 216 -88 216 -173c0 -42 -31 -85 -112 -114c-243 -88 -364 -135 -571 -235c-27 -13 -49 -19 -67 -19c-25 0 -41 13 -41 38c0 69 242 340 524 492z" />
    <glyph glyph-name="icircumflex" unicode="&#xee;" horiz-adv-x="1027" 
d="M1150 271c14 7 30 14 49 14c27 0 42 -15 42 -42c0 -19 -14 -30 -31 -43c-121 -91 -542 -240 -840 -240c-156 0 -303 46 -303 166c0 102 251 531 251 818c0 13 -1 25 -1 38c0 30 31 50 97 50c109 0 378 11 494 11c38 0 52 -28 52 -50c0 -165 -252 -611 -252 -749
c0 -40 17 -75 63 -75c95 0 282 56 379 102zM924 1669c159 -189 276 -354 285 -414c1 -6 1 -11 1 -15c0 -31 -25 -42 -51 -42c-23 0 -48 8 -91 37c-145 99 -195 130 -319 205c-150 -67 -220 -103 -409 -205c-33 -18 -65 -30 -91 -30c-25 0 -48 15 -48 45
c0 64 210 274 446 435c51 35 80 42 153 42c57 0 95 -23 124 -58z" />
    <glyph glyph-name="aring" unicode="&#xe5;" 
d="M642 377c0 -97 59 -163 145 -163c82 0 207 43 314 288c32 73 58 166 58 238s-29 120 -120 120c-198 0 -397 -263 -397 -483zM2036 196c-69 -62 -378 -236 -798 -236c-114 0 -253 26 -295 156c-57 -58 -188 -156 -420 -156c-229 0 -442 105 -442 386
c0 336 264 715 776 715c169 0 282 -49 353 -112c1 6 1 12 1 19c0 13 -1 27 -1 43c0 30 31 50 97 50c54 0 152 -6 249 -12c77 -5 153 -9 209 -9c38 0 52 -28 52 -50c0 -83 -55 -226 -112 -370c-63 -159 -130 -318 -130 -399c0 -51 22 -65 64 -65c81 0 285 83 350 118
c15 8 28 11 43 11c22 0 39 -9 39 -35c0 -22 -17 -38 -35 -54zM1063 1392c0 -76 65 -115 144 -115c102 0 196 51 196 158c0 63 -52 101 -126 101c-102 0 -214 -36 -214 -144zM1304 1677c232 0 349 -86 349 -224c0 -166 -189 -301 -487 -301c-220 0 -351 74 -351 217
c0 175 184 308 489 308z" />
    <glyph glyph-name="itilde" unicode="&#x129;" horiz-adv-x="1027" 
d="M1150 271c14 7 30 14 49 14c27 0 42 -15 42 -42c0 -19 -14 -30 -31 -43c-121 -91 -542 -240 -840 -240c-156 0 -303 46 -303 166c0 102 251 531 251 818c0 13 -1 25 -1 38c0 30 31 50 97 50c109 0 378 11 494 11c38 0 52 -28 52 -50c0 -165 -252 -611 -252 -749
c0 -40 17 -75 63 -75c95 0 282 56 379 102zM1213 1424c-100 -110 -205 -173 -305 -173c-165 0 -303 126 -425 126c-59 0 -161 -86 -232 -86c-41 0 -69 17 -69 49c0 37 43 83 75 118c100 109 204 172 304 172c166 0 304 -125 426 -125c59 0 161 86 232 86c38 0 69 -17 69 -49
c0 -36 -43 -84 -75 -118z" />
    <glyph glyph-name="atilde" unicode="&#xe3;" 
d="M642 377c0 -97 59 -163 145 -163c82 0 207 43 314 288c32 73 58 166 58 238s-29 120 -120 120c-198 0 -397 -263 -397 -483zM2036 196c-69 -62 -378 -236 -798 -236c-114 0 -253 26 -295 156c-57 -58 -188 -156 -420 -156c-229 0 -442 105 -442 386
c0 336 264 715 776 715c169 0 282 -49 353 -112c1 6 1 12 1 19c0 13 -1 27 -1 43c0 30 31 50 97 50c54 0 152 -6 249 -12c77 -5 153 -9 209 -9c38 0 52 -28 52 -50c0 -83 -55 -226 -112 -370c-63 -159 -130 -318 -130 -399c0 -51 22 -65 64 -65c81 0 285 83 350 118
c15 8 28 11 43 11c22 0 39 -9 39 -35c0 -22 -17 -38 -35 -54zM1682 1424c-100 -110 -205 -173 -305 -173c-165 0 -303 126 -425 126c-59 0 -161 -86 -232 -86c-41 0 -69 17 -69 49c0 37 43 83 75 118c100 109 204 172 304 172c166 0 304 -125 426 -125c59 0 161 86 232 86
c38 0 69 -17 69 -49c0 -36 -43 -84 -75 -118z" />
    <glyph glyph-name="ograve" unicode="&#xf2;" horiz-adv-x="1707" 
d="M734 -40c-395 0 -671 136 -671 450c0 412 441 651 914 651c294 0 593 -71 631 -370c49 -16 99 -23 147 -23c93 0 149 10 233 53c15 7 29 13 47 13c22 0 38 -12 38 -37c0 -26 -24 -53 -48 -69c-95 -66 -180 -84 -305 -84c-36 0 -75 1 -112 7c-42 -328 -361 -591 -874 -591
zM614 322c0 -92 23 -185 135 -185c179 0 318 329 318 605c0 68 -14 150 -101 150c-181 0 -352 -287 -352 -570zM850 1716c254 -143 493 -421 493 -490c0 -29 -22 -44 -40 -44c-14 0 -32 10 -68 25c-209 90 -304 127 -489 190c-95 32 -131 78 -131 130c0 90 114 196 198 196
c13 0 26 -1 37 -7z" />
    <glyph glyph-name="oacute" unicode="&#xf3;" horiz-adv-x="1707" 
d="M734 -40c-395 0 -671 136 -671 450c0 412 441 651 914 651c294 0 593 -71 631 -370c49 -16 99 -23 147 -23c93 0 149 10 233 53c15 7 29 13 47 13c22 0 38 -12 38 -37c0 -26 -24 -53 -48 -69c-95 -66 -180 -84 -305 -84c-36 0 -75 1 -112 7c-42 -328 -361 -591 -874 -591
zM614 322c0 -92 23 -185 135 -185c179 0 318 329 318 605c0 68 -14 150 -101 150c-181 0 -352 -287 -352 -570zM1198 1712c15 8 32 11 51 11c92 0 216 -88 216 -173c0 -42 -31 -85 -112 -114c-243 -88 -364 -135 -571 -235c-27 -13 -49 -19 -67 -19c-25 0 -41 13 -41 38
c0 69 242 340 524 492z" />
    <glyph glyph-name="ocircumflex" unicode="&#xf4;" horiz-adv-x="1707" 
d="M734 -40c-395 0 -671 136 -671 450c0 412 441 651 914 651c294 0 593 -71 631 -370c49 -16 99 -23 147 -23c93 0 149 10 233 53c15 7 29 13 47 13c22 0 38 -12 38 -37c0 -26 -24 -53 -48 -69c-95 -66 -180 -84 -305 -84c-36 0 -75 1 -112 7c-42 -328 -361 -591 -874 -591
zM614 322c0 -92 23 -185 135 -185c179 0 318 329 318 605c0 68 -14 150 -101 150c-181 0 -352 -287 -352 -570zM1271 1669c159 -189 276 -354 285 -414c1 -6 1 -11 1 -15c0 -31 -25 -42 -51 -42c-23 0 -48 8 -91 37c-145 99 -195 130 -319 205c-150 -67 -220 -103 -409 -205
c-33 -18 -65 -30 -91 -30c-25 0 -48 15 -48 45c0 64 210 274 446 435c51 35 80 42 153 42c57 0 95 -23 124 -58z" />
    <glyph glyph-name="otilde" unicode="&#xf5;" horiz-adv-x="1707" 
d="M734 -40c-395 0 -671 136 -671 450c0 412 441 651 914 651c294 0 593 -71 631 -370c49 -16 99 -23 147 -23c93 0 149 10 233 53c15 7 29 13 47 13c22 0 38 -12 38 -37c0 -26 -24 -53 -48 -69c-95 -66 -180 -84 -305 -84c-36 0 -75 1 -112 7c-42 -328 -361 -591 -874 -591
zM614 322c0 -92 23 -185 135 -185c179 0 318 329 318 605c0 68 -14 150 -101 150c-181 0 -352 -287 -352 -570zM1560 1424c-100 -110 -205 -173 -305 -173c-165 0 -303 126 -425 126c-59 0 -161 -86 -232 -86c-41 0 -69 17 -69 49c0 37 43 83 75 118
c100 109 204 172 304 172c166 0 304 -125 426 -125c59 0 161 86 232 86c38 0 69 -17 69 -49c0 -36 -43 -84 -75 -118z" />
    <glyph glyph-name="odieresis" unicode="&#xf6;" horiz-adv-x="1707" 
d="M734 -40c-395 0 -671 136 -671 450c0 412 441 651 914 651c294 0 593 -71 631 -370c49 -16 99 -23 147 -23c93 0 149 10 233 53c15 7 29 13 47 13c22 0 38 -12 38 -37c0 -26 -24 -53 -48 -69c-95 -66 -180 -84 -305 -84c-36 0 -75 1 -112 7c-42 -328 -361 -591 -874 -591
zM614 322c0 -92 23 -185 135 -185c179 0 318 329 318 605c0 68 -14 150 -101 150c-181 0 -352 -287 -352 -570zM674 1216c-132 0 -226 70 -226 164c0 129 168 235 337 235c134 0 226 -74 226 -168c0 -127 -167 -231 -337 -231zM1394 1216c-132 0 -226 70 -226 164
c0 129 168 235 337 235c134 0 226 -74 226 -168c0 -127 -166 -231 -337 -231z" />
    <glyph glyph-name="ugrave" unicode="&#xf9;" horiz-adv-x="1880" 
d="M2015 177c-109 -66 -445 -217 -796 -217c-97 0 -263 18 -291 136c-135 -55 -334 -136 -533 -136c-156 0 -294 47 -294 240c0 246 206 614 206 747c0 58 10 82 98 82c103 0 342 11 452 11c38 0 52 -28 52 -50c0 -105 -223 -479 -223 -663c0 -75 58 -111 132 -111
c56 0 96 7 138 16c65 229 207 482 251 759c5 34 43 37 53 37c254 0 392 12 503 12c14 0 38 -22 38 -39c0 -120 -248 -587 -248 -765c0 -47 17 -76 70 -76c89 0 285 62 371 110c13 7 29 15 42 15c19 0 38 -8 38 -34c0 -31 -23 -52 -59 -74zM931 1716
c254 -143 493 -421 493 -490c0 -29 -22 -44 -40 -44c-14 0 -32 10 -68 25c-209 90 -304 127 -489 190c-95 32 -131 78 -131 130c0 90 114 196 198 196c13 0 26 -1 37 -7z" />
    <glyph glyph-name="uacute" unicode="&#xfa;" horiz-adv-x="1880" 
d="M2015 177c-109 -66 -445 -217 -796 -217c-97 0 -263 18 -291 136c-135 -55 -334 -136 -533 -136c-156 0 -294 47 -294 240c0 246 206 614 206 747c0 58 10 82 98 82c103 0 342 11 452 11c38 0 52 -28 52 -50c0 -105 -223 -479 -223 -663c0 -75 58 -111 132 -111
c56 0 96 7 138 16c65 229 207 482 251 759c5 34 43 37 53 37c254 0 392 12 503 12c14 0 38 -22 38 -39c0 -120 -248 -587 -248 -765c0 -47 17 -76 70 -76c89 0 285 62 371 110c13 7 29 15 42 15c19 0 38 -8 38 -34c0 -31 -23 -52 -59 -74zM1279 1712c15 8 32 11 51 11
c92 0 216 -88 216 -173c0 -42 -31 -85 -112 -114c-243 -88 -364 -135 -571 -235c-27 -13 -49 -19 -67 -19c-25 0 -41 13 -41 38c0 69 242 340 524 492z" />
    <glyph glyph-name="ucircumflex" unicode="&#xfb;" horiz-adv-x="1880" 
d="M2015 177c-109 -66 -445 -217 -796 -217c-97 0 -263 18 -291 136c-135 -55 -334 -136 -533 -136c-156 0 -294 47 -294 240c0 246 206 614 206 747c0 58 10 82 98 82c103 0 342 11 452 11c38 0 52 -28 52 -50c0 -105 -223 -479 -223 -663c0 -75 58 -111 132 -111
c56 0 96 7 138 16c65 229 207 482 251 759c5 34 43 37 53 37c254 0 392 12 503 12c14 0 38 -22 38 -39c0 -120 -248 -587 -248 -765c0 -47 17 -76 70 -76c89 0 285 62 371 110c13 7 29 15 42 15c19 0 38 -8 38 -34c0 -31 -23 -52 -59 -74zM1352 1669
c159 -189 276 -354 285 -414c1 -6 1 -11 1 -15c0 -31 -25 -42 -51 -42c-23 0 -48 8 -91 37c-145 99 -195 130 -319 205c-150 -67 -220 -103 -409 -205c-33 -18 -65 -30 -91 -30c-25 0 -48 15 -48 45c0 64 210 274 446 435c51 35 80 42 153 42c57 0 95 -23 124 -58z" />
    <glyph glyph-name="udieresis" unicode="&#xfc;" horiz-adv-x="1880" 
d="M2015 177c-109 -66 -445 -217 -796 -217c-97 0 -263 18 -291 136c-135 -55 -334 -136 -533 -136c-156 0 -294 47 -294 240c0 246 206 614 206 747c0 58 10 82 98 82c103 0 342 11 452 11c38 0 52 -28 52 -50c0 -105 -223 -479 -223 -663c0 -75 58 -111 132 -111
c56 0 96 7 138 16c65 229 207 482 251 759c5 34 43 37 53 37c254 0 392 12 503 12c14 0 38 -22 38 -39c0 -120 -248 -587 -248 -765c0 -47 17 -76 70 -76c89 0 285 62 371 110c13 7 29 15 42 15c19 0 38 -8 38 -34c0 -31 -23 -52 -59 -74zM755 1216c-132 0 -226 70 -226 164
c0 129 168 235 337 235c134 0 226 -74 226 -168c0 -127 -167 -231 -337 -231zM1475 1216c-132 0 -226 70 -226 164c0 129 168 235 337 235c134 0 226 -74 226 -168c0 -127 -166 -231 -337 -231z" />
    <glyph glyph-name="yacute" unicode="&#xfd;" 
d="M1431 -120c-123 -333 -493 -400 -933 -400c-323 0 -498 73 -498 206c0 199 428 270 921 313c17 56 31 109 39 149c-152 -57 -361 -108 -534 -108c-241 0 -325 90 -325 215c0 242 181 525 181 686c0 13 -1 25 -1 38c0 30 31 50 97 50c47 0 145 -4 233 -4
c81 0 156 15 211 15c38 0 52 -28 52 -50c0 -174 -189 -502 -189 -632c0 -62 51 -90 116 -90c79 0 149 25 205 61c82 221 146 442 197 643c8 33 43 37 53 37c254 0 404 31 515 31c13 0 39 -19 39 -35c0 -33 -184 -571 -299 -901c223 53 405 133 469 167c19 10 33 14 54 14
c24 0 37 -15 37 -34c0 -17 -8 -32 -26 -47c-87 -74 -312 -177 -582 -235c-14 -38 -25 -68 -32 -89zM835 -253c13 33 32 83 50 138c-207 -26 -450 -80 -450 -208c0 -54 70 -108 122 -108c113 0 237 59 278 178zM1243 1712c15 8 32 11 51 11c92 0 216 -88 216 -173
c0 -42 -31 -85 -112 -114c-243 -88 -364 -135 -571 -235c-27 -13 -49 -19 -67 -19c-25 0 -41 13 -41 38c0 69 242 340 524 492z" />
    <glyph glyph-name="ydieresis" unicode="&#xff;" 
d="M1431 -120c-123 -333 -493 -400 -933 -400c-323 0 -498 73 -498 206c0 199 428 270 921 313c17 56 31 109 39 149c-152 -57 -361 -108 -534 -108c-241 0 -325 90 -325 215c0 242 181 525 181 686c0 13 -1 25 -1 38c0 30 31 50 97 50c47 0 145 -4 233 -4
c81 0 156 15 211 15c38 0 52 -28 52 -50c0 -174 -189 -502 -189 -632c0 -62 51 -90 116 -90c79 0 149 25 205 61c82 221 146 442 197 643c8 33 43 37 53 37c254 0 404 31 515 31c13 0 39 -19 39 -35c0 -33 -184 -571 -299 -901c223 53 405 133 469 167c19 10 33 14 54 14
c24 0 37 -15 37 -34c0 -17 -8 -32 -26 -47c-87 -74 -312 -177 -582 -235c-14 -38 -25 -68 -32 -89zM835 -253c13 33 32 83 50 138c-207 -26 -450 -80 -450 -208c0 -54 70 -108 122 -108c113 0 237 59 278 178zM719 1216c-132 0 -226 70 -226 164c0 129 168 235 337 235
c134 0 226 -74 226 -168c0 -127 -167 -231 -337 -231zM1439 1216c-132 0 -226 70 -226 164c0 129 168 235 337 235c134 0 226 -74 226 -168c0 -127 -166 -231 -337 -231z" />
    <glyph glyph-name="amacron" unicode="&#x101;" 
d="M642 377c0 -97 59 -163 145 -163c82 0 207 43 314 288c32 73 58 166 58 238s-29 120 -120 120c-198 0 -397 -263 -397 -483zM2036 196c-69 -62 -378 -236 -798 -236c-114 0 -253 26 -295 156c-57 -58 -188 -156 -420 -156c-229 0 -442 105 -442 386
c0 336 264 715 776 715c169 0 282 -49 353 -112c1 6 1 12 1 19c0 13 -1 27 -1 43c0 30 31 50 97 50c54 0 152 -6 249 -12c77 -5 153 -9 209 -9c38 0 52 -28 52 -50c0 -83 -55 -226 -112 -370c-63 -159 -130 -318 -130 -399c0 -51 22 -65 64 -65c81 0 285 83 350 118
c15 8 28 11 43 11c22 0 39 -9 39 -35c0 -22 -17 -38 -35 -54zM818 1505c102 0 258 -20 386 -20c141 0 265 20 373 20c23 0 35 -25 35 -68c0 -84 -48 -133 -95 -133c-122 0 -224 20 -377 20c-145 0 -257 -20 -372 -20c-24 0 -45 20 -45 71c0 81 50 130 95 130z" />
    <glyph glyph-name="cacute" unicode="&#x107;" horiz-adv-x="1537" 
d="M961 887c-229 0 -315 -298 -315 -488c0 -206 121 -251 304 -251c206 0 512 64 694 125c21 7 38 12 56 12c16 0 31 -11 31 -32s-10 -43 -53 -71c-172 -112 -532 -222 -936 -222c-475 0 -669 170 -669 422c0 422 458 679 941 679c245 0 415 -36 494 -81
c10 -8 16 -21 16 -40c0 -83 -112 -348 -206 -348c-26 0 -50 16 -62 38c-76 136 -146 257 -295 257zM1231 1712c15 8 32 11 51 11c92 0 216 -88 216 -173c0 -42 -31 -85 -112 -114c-243 -88 -364 -135 -571 -235c-27 -13 -49 -19 -67 -19c-25 0 -41 13 -41 38
c0 69 242 340 524 492z" />
    <glyph glyph-name="ccircumflex" unicode="&#x109;" horiz-adv-x="1537" 
d="M961 887c-229 0 -315 -298 -315 -488c0 -206 121 -251 304 -251c206 0 512 64 694 125c21 7 38 12 56 12c16 0 31 -11 31 -32s-10 -43 -53 -71c-172 -112 -532 -222 -936 -222c-475 0 -669 170 -669 422c0 422 458 679 941 679c245 0 415 -36 494 -81
c10 -8 16 -21 16 -40c0 -83 -112 -348 -206 -348c-26 0 -50 16 -62 38c-76 136 -146 257 -295 257zM1304 1669c159 -189 276 -354 285 -414c1 -6 1 -11 1 -15c0 -31 -25 -42 -51 -42c-23 0 -48 8 -91 37c-145 99 -195 130 -319 205c-150 -67 -220 -103 -409 -205
c-33 -18 -65 -30 -91 -30c-25 0 -48 15 -48 45c0 64 210 274 446 435c51 35 80 42 153 42c57 0 95 -23 124 -58z" />
    <glyph glyph-name="ccaron" unicode="&#x10d;" horiz-adv-x="1537" 
d="M961 887c-229 0 -315 -298 -315 -488c0 -206 121 -251 304 -251c206 0 512 64 694 125c21 7 38 12 56 12c16 0 31 -11 31 -32s-10 -43 -53 -71c-172 -112 -532 -222 -936 -222c-475 0 -669 170 -669 422c0 422 458 679 941 679c245 0 415 -36 494 -81
c10 -8 16 -21 16 -40c0 -83 -112 -348 -206 -348c-26 0 -50 16 -62 38c-76 136 -146 257 -295 257zM897 1256c-159 189 -276 354 -285 414c-1 6 -1 11 -1 15c0 31 25 42 51 42c23 0 48 -8 91 -37c145 -99 195 -130 319 -205c150 67 220 103 409 205c33 18 65 30 91 30
c25 0 48 -15 48 -45c0 -64 -210 -274 -446 -435c-51 -35 -80 -42 -153 -42c-57 0 -95 23 -124 58z" />
    <glyph glyph-name="cdotaccent" unicode="&#x10b;" horiz-adv-x="1537" 
d="M961 887c-229 0 -315 -298 -315 -488c0 -206 121 -251 304 -251c206 0 512 64 694 125c21 7 38 12 56 12c16 0 31 -11 31 -32s-10 -43 -53 -71c-172 -112 -532 -222 -936 -222c-475 0 -669 170 -669 422c0 422 458 679 941 679c245 0 415 -36 494 -81
c10 -8 16 -21 16 -40c0 -83 -112 -348 -206 -348c-26 0 -50 16 -62 38c-76 136 -146 257 -295 257zM1010 1224c-140 0 -239 75 -239 174c0 137 178 249 357 249c142 0 238 -78 238 -178c0 -133 -175 -245 -356 -245z" />
    <glyph glyph-name="ecaron" unicode="&#x11b;" horiz-adv-x="1537" 
d="M1682 192c-83 -49 -438 -232 -948 -232c-477 0 -676 152 -676 416c0 416 427 685 951 685c344 0 485 -121 485 -296c0 -289 -368 -393 -848 -428c18 -161 190 -202 334 -202c204 0 453 70 675 141c15 5 27 9 41 9c16 0 35 -7 35 -34c0 -19 -6 -34 -49 -59zM647 447
c223 62 376 193 376 386c0 50 -36 81 -87 81c-162 0 -271 -248 -289 -467zM816 1256c-159 189 -276 354 -285 414c-1 6 -1 11 -1 15c0 31 25 42 51 42c23 0 48 -8 91 -37c145 -99 195 -130 319 -205c150 67 220 103 409 205c33 18 65 30 91 30c25 0 48 -15 48 -45
c0 -64 -210 -274 -446 -435c-51 -35 -80 -42 -153 -42c-57 0 -95 23 -124 58z" />
    <glyph glyph-name="emacron" unicode="&#x113;" horiz-adv-x="1537" 
d="M1682 192c-83 -49 -438 -232 -948 -232c-477 0 -676 152 -676 416c0 416 427 685 951 685c344 0 485 -121 485 -296c0 -289 -368 -393 -848 -428c18 -161 190 -202 334 -202c204 0 453 70 675 141c15 5 27 9 41 9c16 0 35 -7 35 -34c0 -19 -6 -34 -49 -59zM647 447
c223 62 376 193 376 386c0 50 -36 81 -87 81c-162 0 -271 -248 -289 -467zM648 1505c102 0 258 -20 386 -20c141 0 265 20 373 20c23 0 35 -25 35 -68c0 -84 -48 -133 -95 -133c-122 0 -224 20 -377 20c-145 0 -257 -20 -372 -20c-24 0 -45 20 -45 71c0 81 50 130 95 130z
" />
    <glyph glyph-name="edotaccent" unicode="&#x117;" horiz-adv-x="1537" 
d="M1682 192c-83 -49 -438 -232 -948 -232c-477 0 -676 152 -676 416c0 416 427 685 951 685c344 0 485 -121 485 -296c0 -289 -368 -393 -848 -428c18 -161 190 -202 334 -202c204 0 453 70 675 141c15 5 27 9 41 9c16 0 35 -7 35 -34c0 -19 -6 -34 -49 -59zM647 447
c223 62 376 193 376 386c0 50 -36 81 -87 81c-162 0 -271 -248 -289 -467zM929 1224c-140 0 -239 75 -239 174c0 137 178 249 357 249c142 0 238 -78 238 -178c0 -133 -175 -245 -356 -245z" />
    <glyph glyph-name="imacron" unicode="&#x12b;" horiz-adv-x="1027" 
d="M1150 271c14 7 30 14 49 14c27 0 42 -15 42 -42c0 -19 -14 -30 -31 -43c-121 -91 -542 -240 -840 -240c-156 0 -303 46 -303 166c0 102 251 531 251 818c0 13 -1 25 -1 38c0 30 31 50 97 50c109 0 378 11 494 11c38 0 52 -28 52 -50c0 -165 -252 -611 -252 -749
c0 -40 17 -75 63 -75c95 0 282 56 379 102zM349 1505c102 0 258 -20 386 -20c141 0 265 20 373 20c23 0 35 -25 35 -68c0 -84 -48 -133 -95 -133c-122 0 -224 20 -377 20c-145 0 -257 -20 -372 -20c-24 0 -45 20 -45 71c0 81 50 130 95 130z" />
    <glyph glyph-name="ygrave" unicode="&#x1ef3;" 
d="M1431 -120c-123 -333 -493 -400 -933 -400c-323 0 -498 73 -498 206c0 199 428 270 921 313c17 56 31 109 39 149c-152 -57 -361 -108 -534 -108c-241 0 -325 90 -325 215c0 242 181 525 181 686c0 13 -1 25 -1 38c0 30 31 50 97 50c47 0 145 -4 233 -4
c81 0 156 15 211 15c38 0 52 -28 52 -50c0 -174 -189 -502 -189 -632c0 -62 51 -90 116 -90c79 0 149 25 205 61c82 221 146 442 197 643c8 33 43 37 53 37c254 0 404 31 515 31c13 0 39 -19 39 -35c0 -33 -184 -571 -299 -901c223 53 405 133 469 167c19 10 33 14 54 14
c24 0 37 -15 37 -34c0 -17 -8 -32 -26 -47c-87 -74 -312 -177 -582 -235c-14 -38 -25 -68 -32 -89zM835 -253c13 33 32 83 50 138c-207 -26 -450 -80 -450 -208c0 -54 70 -108 122 -108c113 0 237 59 278 178zM895 1716c254 -143 493 -421 493 -490c0 -29 -22 -44 -40 -44
c-14 0 -32 10 -68 25c-209 90 -304 127 -489 190c-95 32 -131 78 -131 130c0 90 114 196 198 196c13 0 26 -1 37 -7z" />
    <glyph glyph-name="ycircumflex" unicode="&#x177;" 
d="M1431 -120c-123 -333 -493 -400 -933 -400c-323 0 -498 73 -498 206c0 199 428 270 921 313c17 56 31 109 39 149c-152 -57 -361 -108 -534 -108c-241 0 -325 90 -325 215c0 242 181 525 181 686c0 13 -1 25 -1 38c0 30 31 50 97 50c47 0 145 -4 233 -4
c81 0 156 15 211 15c38 0 52 -28 52 -50c0 -174 -189 -502 -189 -632c0 -62 51 -90 116 -90c79 0 149 25 205 61c82 221 146 442 197 643c8 33 43 37 53 37c254 0 404 31 515 31c13 0 39 -19 39 -35c0 -33 -184 -571 -299 -901c223 53 405 133 469 167c19 10 33 14 54 14
c24 0 37 -15 37 -34c0 -17 -8 -32 -26 -47c-87 -74 -312 -177 -582 -235c-14 -38 -25 -68 -32 -89zM835 -253c13 33 32 83 50 138c-207 -26 -450 -80 -450 -208c0 -54 70 -108 122 -108c113 0 237 59 278 178zM1316 1669c159 -189 276 -354 285 -414c1 -6 1 -11 1 -15
c0 -31 -25 -42 -51 -42c-23 0 -48 8 -91 37c-145 99 -195 130 -319 205c-150 -67 -220 -103 -409 -205c-33 -18 -65 -30 -91 -30c-25 0 -48 15 -48 45c0 64 210 274 446 435c51 35 80 42 153 42c57 0 95 -23 124 -58z" />
    <glyph glyph-name="wgrave" unicode="&#x1e81;" horiz-adv-x="2514" 
d="M1233 1029c50 1 510 11 529 11c15 0 39 -5 39 -33c0 -21 -11 -41 -24 -59c-110 -153 -203 -339 -203 -545c0 -92 26 -172 101 -172c212 0 344 381 344 731c0 21 9 59 67 67c34 5 350 11 396 11c26 0 41 -8 41 -42c0 -114 -34 -212 -83 -302c31 -6 62 -9 93 -9
c98 0 193 20 286 72c14 8 30 16 51 16c19 0 36 -14 36 -37c0 -25 -21 -52 -43 -69c-109 -83 -244 -110 -388 -110c-40 0 -80 3 -116 10l-45 -61c-238 -316 -659 -573 -934 -573c-120 0 -239 119 -305 269c-199 -165 -425 -279 -585 -279c-218 0 -377 206 -377 517
c0 119 60 393 139 524c30 49 49 63 101 63c50 0 510 11 529 11c16 0 39 -5 39 -39c0 -20 -11 -37 -24 -53c-101 -126 -203 -319 -203 -524c0 -106 13 -203 98 -203c227 0 341 461 374 741c2 21 15 67 67 67zM1298 1716c254 -143 493 -421 493 -490c0 -29 -22 -44 -40 -44
c-14 0 -32 10 -68 25c-209 90 -304 127 -489 190c-95 32 -131 78 -131 130c0 90 114 196 198 196c13 0 26 -1 37 -7z" />
    <glyph glyph-name="wacute" unicode="&#x1e83;" horiz-adv-x="2514" 
d="M1233 1029c50 1 510 11 529 11c15 0 39 -5 39 -33c0 -21 -11 -41 -24 -59c-110 -153 -203 -339 -203 -545c0 -92 26 -172 101 -172c212 0 344 381 344 731c0 21 9 59 67 67c34 5 350 11 396 11c26 0 41 -8 41 -42c0 -114 -34 -212 -83 -302c31 -6 62 -9 93 -9
c98 0 193 20 286 72c14 8 30 16 51 16c19 0 36 -14 36 -37c0 -25 -21 -52 -43 -69c-109 -83 -244 -110 -388 -110c-40 0 -80 3 -116 10l-45 -61c-238 -316 -659 -573 -934 -573c-120 0 -239 119 -305 269c-199 -165 -425 -279 -585 -279c-218 0 -377 206 -377 517
c0 119 60 393 139 524c30 49 49 63 101 63c50 0 510 11 529 11c16 0 39 -5 39 -39c0 -20 -11 -37 -24 -53c-101 -126 -203 -319 -203 -524c0 -106 13 -203 98 -203c227 0 341 461 374 741c2 21 15 67 67 67zM1646 1712c15 8 32 11 51 11c92 0 216 -88 216 -173
c0 -42 -31 -85 -112 -114c-243 -88 -364 -135 -571 -235c-27 -13 -49 -19 -67 -19c-25 0 -41 13 -41 38c0 69 242 340 524 492z" />
    <glyph glyph-name="wcircumflex" unicode="&#x175;" horiz-adv-x="2514" 
d="M1233 1029c50 1 510 11 529 11c15 0 39 -5 39 -33c0 -21 -11 -41 -24 -59c-110 -153 -203 -339 -203 -545c0 -92 26 -172 101 -172c212 0 344 381 344 731c0 21 9 59 67 67c34 5 350 11 396 11c26 0 41 -8 41 -42c0 -114 -34 -212 -83 -302c31 -6 62 -9 93 -9
c98 0 193 20 286 72c14 8 30 16 51 16c19 0 36 -14 36 -37c0 -25 -21 -52 -43 -69c-109 -83 -244 -110 -388 -110c-40 0 -80 3 -116 10l-45 -61c-238 -316 -659 -573 -934 -573c-120 0 -239 119 -305 269c-199 -165 -425 -279 -585 -279c-218 0 -377 206 -377 517
c0 119 60 393 139 524c30 49 49 63 101 63c50 0 510 11 529 11c16 0 39 -5 39 -39c0 -20 -11 -37 -24 -53c-101 -126 -203 -319 -203 -524c0 -106 13 -203 98 -203c227 0 341 461 374 741c2 21 15 67 67 67zM1719 1669c159 -189 276 -354 285 -414c1 -6 1 -11 1 -15
c0 -31 -25 -42 -51 -42c-23 0 -48 8 -91 37c-145 99 -195 130 -319 205c-150 -67 -220 -103 -409 -205c-33 -18 -65 -30 -91 -30c-25 0 -48 15 -48 45c0 64 210 274 446 435c51 35 80 42 153 42c57 0 95 -23 124 -58z" />
    <glyph glyph-name="wdieresis" unicode="&#x1e85;" horiz-adv-x="2514" 
d="M1233 1029c50 1 510 11 529 11c15 0 39 -5 39 -33c0 -21 -11 -41 -24 -59c-110 -153 -203 -339 -203 -545c0 -92 26 -172 101 -172c212 0 344 381 344 731c0 21 9 59 67 67c34 5 350 11 396 11c26 0 41 -8 41 -42c0 -114 -34 -212 -83 -302c31 -6 62 -9 93 -9
c98 0 193 20 286 72c14 8 30 16 51 16c19 0 36 -14 36 -37c0 -25 -21 -52 -43 -69c-109 -83 -244 -110 -388 -110c-40 0 -80 3 -116 10l-45 -61c-238 -316 -659 -573 -934 -573c-120 0 -239 119 -305 269c-199 -165 -425 -279 -585 -279c-218 0 -377 206 -377 517
c0 119 60 393 139 524c30 49 49 63 101 63c50 0 510 11 529 11c16 0 39 -5 39 -39c0 -20 -11 -37 -24 -53c-101 -126 -203 -319 -203 -524c0 -106 13 -203 98 -203c227 0 341 461 374 741c2 21 15 67 67 67zM1122 1216c-132 0 -226 70 -226 164c0 129 168 235 337 235
c134 0 226 -74 226 -168c0 -127 -167 -231 -337 -231zM1842 1216c-132 0 -226 70 -226 164c0 129 168 235 337 235c134 0 226 -74 226 -168c0 -127 -166 -231 -337 -231z" />
    <glyph glyph-name="utilde" unicode="&#x169;" horiz-adv-x="1880" 
d="M2015 177c-109 -66 -445 -217 -796 -217c-97 0 -263 18 -291 136c-135 -55 -334 -136 -533 -136c-156 0 -294 47 -294 240c0 246 206 614 206 747c0 58 10 82 98 82c103 0 342 11 452 11c38 0 52 -28 52 -50c0 -105 -223 -479 -223 -663c0 -75 58 -111 132 -111
c56 0 96 7 138 16c65 229 207 482 251 759c5 34 43 37 53 37c254 0 392 12 503 12c14 0 38 -22 38 -39c0 -120 -248 -587 -248 -765c0 -47 17 -76 70 -76c89 0 285 62 371 110c13 7 29 15 42 15c19 0 38 -8 38 -34c0 -31 -23 -52 -59 -74zM1641 1424
c-100 -110 -205 -173 -305 -173c-165 0 -303 126 -425 126c-59 0 -161 -86 -232 -86c-41 0 -69 17 -69 49c0 37 43 83 75 118c100 109 204 172 304 172c166 0 304 -125 426 -125c59 0 161 86 232 86c38 0 69 -17 69 -49c0 -36 -43 -84 -75 -118z" />
    <glyph glyph-name="umacron" unicode="&#x16b;" horiz-adv-x="1880" 
d="M2015 177c-109 -66 -445 -217 -796 -217c-97 0 -263 18 -291 136c-135 -55 -334 -136 -533 -136c-156 0 -294 47 -294 240c0 246 206 614 206 747c0 58 10 82 98 82c103 0 342 11 452 11c38 0 52 -28 52 -50c0 -105 -223 -479 -223 -663c0 -75 58 -111 132 -111
c56 0 96 7 138 16c65 229 207 482 251 759c5 34 43 37 53 37c254 0 392 12 503 12c14 0 38 -22 38 -39c0 -120 -248 -587 -248 -765c0 -47 17 -76 70 -76c89 0 285 62 371 110c13 7 29 15 42 15c19 0 38 -8 38 -34c0 -31 -23 -52 -59 -74zM777 1505c102 0 258 -20 386 -20
c141 0 265 20 373 20c23 0 35 -25 35 -68c0 -84 -48 -133 -95 -133c-122 0 -224 20 -377 20c-145 0 -257 -20 -372 -20c-24 0 -45 20 -45 71c0 81 50 130 95 130z" />
    <glyph glyph-name="uring" unicode="&#x16f;" horiz-adv-x="1880" 
d="M2015 177c-109 -66 -445 -217 -796 -217c-97 0 -263 18 -291 136c-135 -55 -334 -136 -533 -136c-156 0 -294 47 -294 240c0 246 206 614 206 747c0 58 10 82 98 82c103 0 342 11 452 11c38 0 52 -28 52 -50c0 -105 -223 -479 -223 -663c0 -75 58 -111 132 -111
c56 0 96 7 138 16c65 229 207 482 251 759c5 34 43 37 53 37c254 0 392 12 503 12c14 0 38 -22 38 -39c0 -120 -248 -587 -248 -765c0 -47 17 -76 70 -76c89 0 285 62 371 110c13 7 29 15 42 15c19 0 38 -8 38 -34c0 -31 -23 -52 -59 -74zM1022 1392c0 -76 65 -115 144 -115
c102 0 196 51 196 158c0 63 -52 101 -126 101c-102 0 -214 -36 -214 -144zM1263 1677c232 0 349 -86 349 -224c0 -166 -189 -301 -487 -301c-220 0 -351 74 -351 217c0 175 184 308 489 308z" />
    <glyph glyph-name="sacute" unicode="&#x15b;" horiz-adv-x="1534" 
d="M726 -39c-25 -1 -49 -1 -74 -1c-304 0 -624 66 -674 143c-12 18 -12 33 -12 51c0 25 115 140 158 140c69 0 153 -170 388 -170c68 0 114 37 114 96c0 173 -481 163 -481 436c0 317 556 405 836 405c171 0 438 -20 524 -73c12 -7 16 -22 16 -47c0 -75 -98 -303 -170 -303
c-8 0 -16 4 -22 11c-111 133 -227 237 -379 237c-60 0 -149 -22 -149 -102c0 -141 519 -196 519 -457c0 -72 -22 -130 -59 -178c168 33 315 84 388 123c15 8 27 13 43 13c19 0 36 -13 36 -38s-12 -40 -33 -54c-110 -76 -505 -232 -969 -232zM1150 1712c15 8 32 11 51 11
c92 0 216 -88 216 -173c0 -42 -31 -85 -112 -114c-243 -88 -364 -135 -571 -235c-27 -13 -49 -19 -67 -19c-25 0 -41 13 -41 38c0 69 242 340 524 492z" />
    <glyph glyph-name="scircumflex" unicode="&#x15d;" horiz-adv-x="1534" 
d="M726 -39c-25 -1 -49 -1 -74 -1c-304 0 -624 66 -674 143c-12 18 -12 33 -12 51c0 25 115 140 158 140c69 0 153 -170 388 -170c68 0 114 37 114 96c0 173 -481 163 -481 436c0 317 556 405 836 405c171 0 438 -20 524 -73c12 -7 16 -22 16 -47c0 -75 -98 -303 -170 -303
c-8 0 -16 4 -22 11c-111 133 -227 237 -379 237c-60 0 -149 -22 -149 -102c0 -141 519 -196 519 -457c0 -72 -22 -130 -59 -178c168 33 315 84 388 123c15 8 27 13 43 13c19 0 36 -13 36 -38s-12 -40 -33 -54c-110 -76 -505 -232 -969 -232zM1223 1669
c159 -189 276 -354 285 -414c1 -6 1 -11 1 -15c0 -31 -25 -42 -51 -42c-23 0 -48 8 -91 37c-145 99 -195 130 -319 205c-150 -67 -220 -103 -409 -205c-33 -18 -65 -30 -91 -30c-25 0 -48 15 -48 45c0 64 210 274 446 435c51 35 80 42 153 42c57 0 95 -23 124 -58z" />
    <glyph glyph-name="scaron" unicode="&#x161;" horiz-adv-x="1534" 
d="M726 -39c-25 -1 -49 -1 -74 -1c-304 0 -624 66 -674 143c-12 18 -12 33 -12 51c0 25 115 140 158 140c69 0 153 -170 388 -170c68 0 114 37 114 96c0 173 -481 163 -481 436c0 317 556 405 836 405c171 0 438 -20 524 -73c12 -7 16 -22 16 -47c0 -75 -98 -303 -170 -303
c-8 0 -16 4 -22 11c-111 133 -227 237 -379 237c-60 0 -149 -22 -149 -102c0 -141 519 -196 519 -457c0 -72 -22 -130 -59 -178c168 33 315 84 388 123c15 8 27 13 43 13c19 0 36 -13 36 -38s-12 -40 -33 -54c-110 -76 -505 -232 -969 -232zM816 1256
c-159 189 -276 354 -285 414c-1 6 -1 11 -1 15c0 31 25 42 51 42c23 0 48 -8 91 -37c145 -99 195 -130 319 -205c150 67 220 103 409 205c33 18 65 30 91 30c25 0 48 -15 48 -45c0 -64 -210 -274 -446 -435c-51 -35 -80 -42 -153 -42c-57 0 -95 23 -124 58z" />
    <glyph glyph-name="racute" unicode="&#x155;" horiz-adv-x="1365" 
d="M910 990c0 -16 -29 -122 -39 -164c94 112 269 235 415 235c92 0 175 -24 175 -80c0 -117 -92 -302 -147 -346c-15 -11 -31 -16 -54 -16c-20 0 -38 5 -58 20c-55 41 -137 90 -264 90c-28 0 -60 -1 -96 -8c-67 -229 -164 -511 -221 -693c-11 -33 -45 -37 -53 -37
c-254 0 -404 -31 -515 -31c-14 0 -38 22 -38 39c0 82 273 644 273 942c0 13 -1 25 -1 38c0 30 31 50 97 50c109 0 358 11 474 11c38 0 52 -28 52 -50zM1092 1712c15 8 32 11 51 11c92 0 216 -88 216 -173c0 -42 -31 -85 -112 -114c-243 -88 -364 -135 -571 -235
c-27 -13 -49 -19 -67 -19c-25 0 -41 13 -41 38c0 69 242 340 524 492z" />
    <glyph glyph-name="zacute" unicode="&#x17a;" horiz-adv-x="1705" 
d="M495 1061c108 0 500 -151 534 -151c25 0 95 145 147 145c59 0 543 -67 543 -156c0 -145 -578 -543 -831 -727c98 -7 204 -12 312 -12c214 0 388 22 562 95c46 19 80 30 99 30c27 0 38 -15 38 -33c0 -21 -13 -35 -56 -66c-91 -66 -366 -216 -595 -216
c-299 0 -460 88 -500 88c-12 0 -103 -92 -171 -92c-62 0 -350 59 -486 93c-72 18 -113 53 -113 102c0 109 239 139 925 632c-33 2 -66 3 -99 3c-339 0 -514 -206 -585 -206c-30 0 -49 26 -49 53c0 46 114 325 175 382c36 33 80 36 150 36zM1274 1712c15 8 32 11 51 11
c92 0 216 -88 216 -173c0 -42 -31 -85 -112 -114c-243 -88 -364 -135 -571 -235c-27 -13 -49 -19 -67 -19c-25 0 -41 13 -41 38c0 69 242 340 524 492z" />
    <glyph glyph-name="zcaron" unicode="&#x17e;" horiz-adv-x="1705" 
d="M495 1061c108 0 500 -151 534 -151c25 0 95 145 147 145c59 0 543 -67 543 -156c0 -145 -578 -543 -831 -727c98 -7 204 -12 312 -12c214 0 388 22 562 95c46 19 80 30 99 30c27 0 38 -15 38 -33c0 -21 -13 -35 -56 -66c-91 -66 -366 -216 -595 -216
c-299 0 -460 88 -500 88c-12 0 -103 -92 -171 -92c-62 0 -350 59 -486 93c-72 18 -113 53 -113 102c0 109 239 139 925 632c-33 2 -66 3 -99 3c-339 0 -514 -206 -585 -206c-30 0 -49 26 -49 53c0 46 114 325 175 382c36 33 80 36 150 36zM940 1256
c-159 189 -276 354 -285 414c-1 6 -1 11 -1 15c0 31 25 42 51 42c23 0 48 -8 91 -37c145 -99 195 -130 319 -205c150 67 220 103 409 205c33 18 65 30 91 30c25 0 48 -15 48 -45c0 -64 -210 -274 -446 -435c-51 -35 -80 -42 -153 -42c-57 0 -95 23 -124 58z" />
    <glyph glyph-name="zdotaccent" unicode="&#x17c;" horiz-adv-x="1705" 
d="M495 1061c108 0 500 -151 534 -151c25 0 95 145 147 145c59 0 543 -67 543 -156c0 -145 -578 -543 -831 -727c98 -7 204 -12 312 -12c214 0 388 22 562 95c46 19 80 30 99 30c27 0 38 -15 38 -33c0 -21 -13 -35 -56 -66c-91 -66 -366 -216 -595 -216
c-299 0 -460 88 -500 88c-12 0 -103 -92 -171 -92c-62 0 -350 59 -486 93c-72 18 -113 53 -113 102c0 109 239 139 925 632c-33 2 -66 3 -99 3c-339 0 -514 -206 -585 -206c-30 0 -49 26 -49 53c0 46 114 325 175 382c36 33 80 36 150 36zM1053 1224
c-140 0 -239 75 -239 174c0 137 178 249 357 249c142 0 238 -78 238 -178c0 -133 -175 -245 -356 -245z" />
    <glyph glyph-name="omacron" unicode="&#x14d;" horiz-adv-x="1707" 
d="M734 -40c-395 0 -671 136 -671 450c0 412 441 651 914 651c294 0 593 -71 631 -370c49 -16 99 -23 147 -23c93 0 149 10 233 53c15 7 29 13 47 13c22 0 38 -12 38 -37c0 -26 -24 -53 -48 -69c-95 -66 -180 -84 -305 -84c-36 0 -75 1 -112 7c-42 -328 -361 -591 -874 -591
zM614 322c0 -92 23 -185 135 -185c179 0 318 329 318 605c0 68 -14 150 -101 150c-181 0 -352 -287 -352 -570zM696 1505c102 0 258 -20 386 -20c141 0 265 20 373 20c23 0 35 -25 35 -68c0 -84 -48 -133 -95 -133c-122 0 -224 20 -377 20c-145 0 -257 -20 -372 -20
c-24 0 -45 20 -45 71c0 81 50 130 95 130z" />
    <glyph glyph-name="ncaron" unicode="&#x148;" horiz-adv-x="1880" 
d="M2029 184c-60 -43 -421 -224 -784 -224c-85 0 -297 5 -297 136c0 144 201 488 201 620c0 69 -63 89 -139 89c-46 0 -98 -7 -143 -16c-65 -229 -189 -579 -246 -761c-11 -33 -43 -37 -53 -37c-254 0 -404 -11 -515 -11c-14 0 -38 22 -38 39c0 82 273 624 273 922
c0 13 -1 25 -1 38c0 30 31 50 97 50c109 0 358 11 474 11c38 0 52 -28 52 -50c0 -17 -4 -44 -11 -76c135 57 388 147 578 147c119 0 263 -66 263 -232c0 -190 -186 -475 -186 -579c0 -44 22 -82 74 -82c70 0 267 68 352 104c24 10 39 13 57 13c20 0 37 -11 37 -35
c0 -18 -9 -40 -45 -66zM986 1256c-159 189 -276 354 -285 414c-1 6 -1 11 -1 15c0 31 25 42 51 42c23 0 48 -8 91 -37c145 -99 195 -130 319 -205c150 67 220 103 409 205c33 18 65 30 91 30c25 0 48 -15 48 -45c0 -64 -210 -274 -446 -435c-51 -35 -80 -42 -153 -42
c-57 0 -95 23 -124 58z" />
    <glyph glyph-name="gcircumflex" unicode="&#x11d;" 
d="M28 -340c0 173 606 291 923 334c21 59 43 122 65 187c-143 -106 -330 -169 -501 -169c-222 0 -434 86 -434 362c0 400 351 687 796 687c182 0 293 -43 365 -100c123 38 312 71 396 71c95 0 168 -46 168 -120c0 -72 -107 -306 -268 -808c179 48 277 90 430 163
c23 11 43 18 63 18c21 0 40 -13 40 -35c0 -19 -10 -34 -36 -53c-104 -78 -281 -156 -539 -228l-27 -89c-98 -326 -580 -400 -972 -400c-269 0 -469 47 -469 180zM642 397c0 -97 59 -153 145 -153c82 0 220 13 327 258c32 73 58 166 58 238s-29 120 -120 120
c-198 0 -410 -243 -410 -463zM863 -253l47 133c-194 -31 -447 -91 -447 -203c0 -53 58 -86 132 -86c113 0 226 37 268 156zM1329 1669c159 -189 276 -354 285 -414c1 -6 1 -11 1 -15c0 -31 -25 -42 -51 -42c-23 0 -48 8 -91 37c-145 99 -195 130 -319 205
c-150 -67 -220 -103 -409 -205c-33 -18 -65 -30 -91 -30c-25 0 -48 15 -48 45c0 64 210 274 446 435c51 35 80 42 153 42c57 0 95 -23 124 -58z" />
    <glyph glyph-name="gdotaccent" unicode="&#x121;" 
d="M28 -340c0 173 606 291 923 334c21 59 43 122 65 187c-143 -106 -330 -169 -501 -169c-222 0 -434 86 -434 362c0 400 351 687 796 687c182 0 293 -43 365 -100c123 38 312 71 396 71c95 0 168 -46 168 -120c0 -72 -107 -306 -268 -808c179 48 277 90 430 163
c23 11 43 18 63 18c21 0 40 -13 40 -35c0 -19 -10 -34 -36 -53c-104 -78 -281 -156 -539 -228l-27 -89c-98 -326 -580 -400 -972 -400c-269 0 -469 47 -469 180zM642 397c0 -97 59 -153 145 -153c82 0 220 13 327 258c32 73 58 166 58 238s-29 120 -120 120
c-198 0 -410 -243 -410 -463zM863 -253l47 133c-194 -31 -447 -91 -447 -203c0 -53 58 -86 132 -86c113 0 226 37 268 156zM1035 1224c-140 0 -239 75 -239 174c0 137 178 249 357 249c142 0 238 -78 238 -178c0 -133 -175 -245 -356 -245z" />
    <glyph glyph-name="breve" unicode="&#x2d8;" horiz-adv-x="1229" 
d="M615 1502c298 0 372 145 454 145c32 0 50 -13 50 -41c0 -52 -44 -113 -98 -167c-109 -109 -261 -203 -451 -203c-231 0 -347 106 -422 222c-19 29 -38 76 -38 121c0 46 30 67 69 67c81 0 207 -144 436 -144z" />
    <glyph glyph-name="ntilde" unicode="&#xf1;" horiz-adv-x="1880" 
d="M2029 184c-60 -43 -421 -224 -784 -224c-85 0 -297 5 -297 136c0 144 201 488 201 620c0 69 -63 89 -139 89c-46 0 -98 -7 -143 -16c-65 -229 -189 -579 -246 -761c-11 -33 -43 -37 -53 -37c-254 0 -404 -11 -515 -11c-14 0 -38 22 -38 39c0 82 273 624 273 922
c0 13 -1 25 -1 38c0 30 31 50 97 50c109 0 358 11 474 11c38 0 52 -28 52 -50c0 -17 -4 -44 -11 -76c135 57 388 147 578 147c119 0 263 -66 263 -232c0 -190 -186 -475 -186 -579c0 -44 22 -82 74 -82c70 0 267 68 352 104c24 10 39 13 57 13c20 0 37 -11 37 -35
c0 -18 -9 -40 -45 -66zM1682 1424c-100 -110 -205 -173 -305 -173c-165 0 -303 126 -425 126c-59 0 -161 -86 -232 -86c-41 0 -69 17 -69 49c0 37 43 83 75 118c100 109 204 172 304 172c166 0 304 -125 426 -125c59 0 161 86 232 86c38 0 69 -17 69 -49
c0 -36 -43 -84 -75 -118z" />
    <glyph glyph-name="nacute" unicode="&#x144;" horiz-adv-x="1880" 
d="M2029 184c-60 -43 -421 -224 -784 -224c-85 0 -297 5 -297 136c0 144 201 488 201 620c0 69 -63 89 -139 89c-46 0 -98 -7 -143 -16c-65 -229 -189 -579 -246 -761c-11 -33 -43 -37 -53 -37c-254 0 -404 -11 -515 -11c-14 0 -38 22 -38 39c0 82 273 624 273 922
c0 13 -1 25 -1 38c0 30 31 50 97 50c109 0 358 11 474 11c38 0 52 -28 52 -50c0 -17 -4 -44 -11 -76c135 57 388 147 578 147c119 0 263 -66 263 -232c0 -190 -186 -475 -186 -579c0 -44 22 -82 74 -82c70 0 267 68 352 104c24 10 39 13 57 13c20 0 37 -11 37 -35
c0 -18 -9 -40 -45 -66zM1320 1712c15 8 32 11 51 11c92 0 216 -88 216 -173c0 -42 -31 -85 -112 -114c-243 -88 -364 -135 -571 -235c-27 -13 -49 -19 -67 -19c-25 0 -41 13 -41 38c0 69 242 340 524 492z" />
    <glyph glyph-name="abreve" unicode="&#x103;" 
d="M642 377c0 -97 59 -163 145 -163c82 0 207 43 314 288c32 73 58 166 58 238s-29 120 -120 120c-198 0 -397 -263 -397 -483zM2036 196c-69 -62 -378 -236 -798 -236c-114 0 -253 26 -295 156c-57 -58 -188 -156 -420 -156c-229 0 -442 105 -442 386
c0 336 264 715 776 715c169 0 282 -49 353 -112c1 6 1 12 1 19c0 13 -1 27 -1 43c0 30 31 50 97 50c54 0 152 -6 249 -12c77 -5 153 -9 209 -9c38 0 52 -28 52 -50c0 -83 -55 -226 -112 -370c-63 -159 -130 -318 -130 -399c0 -51 22 -65 64 -65c81 0 285 83 350 118
c15 8 28 11 43 11c22 0 39 -9 39 -35c0 -22 -17 -38 -35 -54zM1219 1502c298 0 372 145 454 145c32 0 50 -13 50 -41c0 -52 -44 -113 -98 -167c-109 -109 -261 -203 -451 -203c-231 0 -347 106 -422 222c-19 29 -38 76 -38 121c0 46 30 67 69 67c81 0 207 -144 436 -144z
" />
    <glyph glyph-name="ebreve" unicode="&#x115;" horiz-adv-x="1537" 
d="M1682 192c-83 -49 -438 -232 -948 -232c-477 0 -676 152 -676 416c0 416 427 685 951 685c344 0 485 -121 485 -296c0 -289 -368 -393 -848 -428c18 -161 190 -202 334 -202c204 0 453 70 675 141c15 5 27 9 41 9c16 0 35 -7 35 -34c0 -19 -6 -34 -49 -59zM647 447
c223 62 376 193 376 386c0 50 -36 81 -87 81c-162 0 -271 -248 -289 -467zM1049 1502c298 0 372 145 454 145c32 0 50 -13 50 -41c0 -52 -44 -113 -98 -167c-109 -109 -261 -203 -451 -203c-231 0 -347 106 -422 222c-19 29 -38 76 -38 121c0 46 30 67 69 67
c81 0 207 -144 436 -144z" />
    <glyph glyph-name="gbreve" unicode="&#x11f;" 
d="M28 -340c0 173 606 291 923 334c21 59 43 122 65 187c-143 -106 -330 -169 -501 -169c-222 0 -434 86 -434 362c0 400 351 687 796 687c182 0 293 -43 365 -100c123 38 312 71 396 71c95 0 168 -46 168 -120c0 -72 -107 -306 -268 -808c179 48 277 90 430 163
c23 11 43 18 63 18c21 0 40 -13 40 -35c0 -19 -10 -34 -36 -53c-104 -78 -281 -156 -539 -228l-27 -89c-98 -326 -580 -400 -972 -400c-269 0 -469 47 -469 180zM642 397c0 -97 59 -153 145 -153c82 0 220 13 327 258c32 73 58 166 58 238s-29 120 -120 120
c-198 0 -410 -243 -410 -463zM863 -253l47 133c-194 -31 -447 -91 -447 -203c0 -53 58 -86 132 -86c113 0 226 37 268 156zM1155 1502c298 0 372 145 454 145c32 0 50 -13 50 -41c0 -52 -44 -113 -98 -167c-109 -109 -261 -203 -451 -203c-231 0 -347 106 -422 222
c-19 29 -38 76 -38 121c0 46 30 67 69 67c81 0 207 -144 436 -144z" />
    <glyph glyph-name="ibreve" unicode="&#x12d;" horiz-adv-x="1027" 
d="M1150 271c14 7 30 14 49 14c27 0 42 -15 42 -42c0 -19 -14 -30 -31 -43c-121 -91 -542 -240 -840 -240c-156 0 -303 46 -303 166c0 102 251 531 251 818c0 13 -1 25 -1 38c0 30 31 50 97 50c109 0 378 11 494 11c38 0 52 -28 52 -50c0 -165 -252 -611 -252 -749
c0 -40 17 -75 63 -75c95 0 282 56 379 102zM750 1502c298 0 372 145 454 145c32 0 50 -13 50 -41c0 -52 -44 -113 -98 -167c-109 -109 -261 -203 -451 -203c-231 0 -347 106 -422 222c-19 29 -38 76 -38 121c0 46 30 67 69 67c81 0 207 -144 436 -144z" />
    <glyph glyph-name="ubreve" unicode="&#x16d;" horiz-adv-x="1880" 
d="M2015 177c-109 -66 -445 -217 -796 -217c-97 0 -263 18 -291 136c-135 -55 -334 -136 -533 -136c-156 0 -294 47 -294 240c0 246 206 614 206 747c0 58 10 82 98 82c103 0 342 11 452 11c38 0 52 -28 52 -50c0 -105 -223 -479 -223 -663c0 -75 58 -111 132 -111
c56 0 96 7 138 16c65 229 207 482 251 759c5 34 43 37 53 37c254 0 392 12 503 12c14 0 38 -22 38 -39c0 -120 -248 -587 -248 -765c0 -47 17 -76 70 -76c89 0 285 62 371 110c13 7 29 15 42 15c19 0 38 -8 38 -34c0 -31 -23 -52 -59 -74zM1178 1502c298 0 372 145 454 145
c32 0 50 -13 50 -41c0 -52 -44 -113 -98 -167c-109 -109 -261 -203 -451 -203c-231 0 -347 106 -422 222c-19 29 -38 76 -38 121c0 46 30 67 69 67c81 0 207 -144 436 -144z" />
    <glyph glyph-name="obreve" unicode="&#x14f;" horiz-adv-x="1707" 
d="M734 -40c-395 0 -671 136 -671 450c0 412 441 651 914 651c294 0 593 -71 631 -370c49 -16 99 -23 147 -23c93 0 149 10 233 53c15 7 29 13 47 13c22 0 38 -12 38 -37c0 -26 -24 -53 -48 -69c-95 -66 -180 -84 -305 -84c-36 0 -75 1 -112 7c-42 -328 -361 -591 -874 -591
zM614 322c0 -92 23 -185 135 -185c179 0 318 329 318 605c0 68 -14 150 -101 150c-181 0 -352 -287 -352 -570zM1097 1502c298 0 372 145 454 145c32 0 50 -13 50 -41c0 -52 -44 -113 -98 -167c-109 -109 -261 -203 -451 -203c-231 0 -347 106 -422 222
c-19 29 -38 76 -38 121c0 46 30 67 69 67c81 0 207 -144 436 -144z" />
    <glyph glyph-name="germandbls" unicode="&#xdf;" horiz-adv-x="2047" 
d="M2315 193c-95 -73 -427 -217 -819 -231c-16 0 -32 -1 -48 -1c-26 0 -48 -1 -74 -1c-285 0 -580 64 -628 140c-5 7 -7 16 -7 26c0 61 79 168 149 168c61 0 105 -170 316 -170c98 0 154 53 154 136c0 169 -392 187 -392 420c0 249 405 252 405 565c0 111 -76 172 -157 172
c-148 0 -260 -163 -376 -525c-126 -394 -249 -809 -312 -1283c-4 -29 -29 -52 -50 -52c-48 0 -301 16 -459 16c-19 0 -34 17 -34 33c15 163 45 372 90 587c-34 19 -64 38 -87 53c-21 14 -51 36 -51 67c0 26 17 37 43 37c10 0 22 -2 33 -7c26 -12 56 -24 87 -36
c77 338 188 675 323 861c181 248 384 360 777 360c374 0 633 -109 633 -292c0 -251 -457 -307 -457 -412c0 -141 609 -144 609 -484c0 -75 -22 -141 -62 -196c150 32 282 87 348 128c16 8 27 13 43 13c18 0 36 -13 36 -38s-12 -40 -33 -54z" />
    <glyph glyph-name="eogonek" unicode="&#x119;" horiz-adv-x="1537" 
d="M1682 192c-83 -49 -438 -232 -948 -232c-477 0 -676 152 -676 416c0 416 427 685 951 685c344 0 485 -121 485 -296c0 -289 -368 -393 -848 -428c18 -161 190 -202 334 -202c204 0 453 70 675 141c15 5 27 9 41 9c16 0 35 -7 35 -34c0 -19 -6 -34 -49 -59zM647 447
c223 62 376 193 376 386c0 50 -36 81 -87 81c-162 0 -271 -248 -289 -467zM1175 96v-76c-96 -47 -223 -170 -223 -287c0 -83 64 -117 152 -117c52 0 81 9 103 9c23 0 43 -11 43 -38c0 -68 -178 -129 -413 -129c-175 0 -266 70 -266 167c0 181 321 387 604 471z" />
    <glyph glyph-name="aogonek" unicode="&#x105;" 
d="M642 377c0 -97 59 -163 145 -163c82 0 207 43 314 288c32 73 58 166 58 238s-29 120 -120 120c-198 0 -397 -263 -397 -483zM2036 196c-69 -62 -378 -236 -798 -236c-114 0 -253 26 -295 156c-57 -58 -188 -156 -420 -156c-229 0 -442 105 -442 386
c0 336 264 715 776 715c169 0 282 -49 353 -112c1 6 1 12 1 19c0 13 -1 27 -1 43c0 30 31 50 97 50c54 0 152 -6 249 -12c77 -5 153 -9 209 -9c38 0 52 -28 52 -50c0 -83 -55 -226 -112 -370c-63 -159 -130 -318 -130 -399c0 -51 22 -65 64 -65c81 0 285 83 350 118
c15 8 28 11 43 11c22 0 39 -9 39 -35c0 -22 -17 -38 -35 -54zM1465 96v-76c-96 -47 -223 -170 -223 -287c0 -83 64 -117 152 -117c52 0 81 9 103 9c23 0 43 -11 43 -38c0 -68 -178 -129 -413 -129c-175 0 -266 70 -266 167c0 181 321 387 604 471z" />
    <glyph glyph-name="iogonek" unicode="&#x12f;" horiz-adv-x="1027" 
d="M645 1144c-152 0 -259 81 -259 189c0 148 193 270 387 270c154 0 259 -85 259 -193c0 -145 -190 -266 -387 -266zM1130 271c14 7 30 14 49 14c27 0 42 -15 42 -42c0 -19 -14 -30 -31 -43c-121 -91 -542 -240 -840 -240c-156 0 -303 46 -303 166c0 102 251 531 251 818
c0 13 -1 25 -1 38c0 30 31 50 97 50c109 0 378 11 494 11c38 0 52 -28 52 -50c0 -165 -252 -611 -252 -749c0 -40 17 -75 63 -75c95 0 282 56 379 102zM528 96v-76c-96 -47 -223 -170 -223 -287c0 -83 64 -117 152 -117c52 0 81 9 103 9c23 0 43 -11 43 -38
c0 -68 -178 -129 -413 -129c-175 0 -266 70 -266 167c0 181 321 387 604 471z" />
    <glyph glyph-name="uogonek" unicode="&#x173;" horiz-adv-x="1880" 
d="M2015 177c-109 -66 -445 -217 -796 -217c-97 0 -263 18 -291 136c-135 -55 -334 -136 -533 -136c-156 0 -294 47 -294 240c0 246 206 614 206 747c0 58 10 82 98 82c103 0 342 11 452 11c38 0 52 -28 52 -50c0 -105 -223 -479 -223 -663c0 -75 58 -111 132 -111
c56 0 96 7 138 16c65 229 207 482 251 759c5 34 43 37 53 37c254 0 392 12 503 12c14 0 38 -22 38 -39c0 -120 -248 -587 -248 -765c0 -47 17 -76 70 -76c89 0 285 62 371 110c13 7 29 15 42 15c19 0 38 -8 38 -34c0 -31 -23 -52 -59 -74zM1353 96v-76
c-96 -47 -223 -170 -223 -287c0 -83 64 -117 152 -117c52 0 81 9 103 9c23 0 43 -11 43 -38c0 -68 -178 -129 -413 -129c-175 0 -266 70 -266 167c0 181 321 387 604 471z" />
    <glyph glyph-name="scommaaccent" unicode="&#x219;" horiz-adv-x="1534" 
d="M726 -39c-25 -1 -49 -1 -74 -1c-304 0 -624 66 -674 143c-12 18 -12 33 -12 51c0 25 115 140 158 140c69 0 153 -170 388 -170c68 0 114 37 114 96c0 173 -481 163 -481 436c0 317 556 405 836 405c171 0 438 -20 524 -73c12 -7 16 -22 16 -47c0 -75 -98 -303 -170 -303
c-8 0 -16 4 -22 11c-111 133 -227 237 -379 237c-60 0 -149 -22 -149 -102c0 -141 519 -196 519 -457c0 -72 -22 -130 -59 -178c168 33 315 84 388 123c15 8 27 13 43 13c19 0 36 -13 36 -38s-12 -40 -33 -54c-110 -76 -505 -232 -969 -232zM704 -404
c-34 -9 -75 -11 -126 -11c-163 0 -267 38 -267 124c0 101 173 182 417 182c114 0 273 -38 273 -188c0 -210 -270 -303 -561 -303c-49 0 -85 10 -85 39c0 36 33 52 73 63c111 30 187 39 276 94z" />
    <glyph glyph-name="ncommaaccent" unicode="&#x146;" horiz-adv-x="1880" 
d="M2029 184c-60 -43 -421 -224 -784 -224c-85 0 -297 5 -297 136c0 144 201 488 201 620c0 69 -63 89 -139 89c-46 0 -98 -7 -143 -16c-65 -229 -189 -579 -246 -761c-11 -33 -43 -37 -53 -37c-254 0 -404 -11 -515 -11c-14 0 -38 22 -38 39c0 82 273 624 273 922
c0 13 -1 25 -1 38c0 30 31 50 97 50c109 0 358 11 474 11c38 0 52 -28 52 -50c0 -17 -4 -44 -11 -76c135 57 388 147 578 147c119 0 263 -66 263 -232c0 -190 -186 -475 -186 -579c0 -44 22 -82 74 -82c70 0 267 68 352 104c24 10 39 13 57 13c20 0 37 -11 37 -35
c0 -18 -9 -40 -45 -66zM800 -404c-34 -9 -75 -11 -126 -11c-163 0 -267 38 -267 124c0 101 173 182 417 182c114 0 273 -38 273 -188c0 -210 -270 -303 -561 -303c-49 0 -85 10 -85 39c0 36 33 52 73 63c111 30 187 39 276 94z" />
    <glyph glyph-name="lcommaaccent" unicode="&#x13c;" horiz-adv-x="1023" 
d="M1168 192c-73 -52 -426 -232 -761 -232c-205 0 -341 33 -341 180c0 141 370 952 370 1245c0 13 -1 25 -1 38c0 30 31 50 97 50c112 0 371 11 490 11c38 0 52 -28 52 -50c0 -175 -383 -1042 -383 -1196c0 -45 14 -74 68 -74c95 0 253 59 369 110c18 8 44 11 58 11
c16 0 31 -11 31 -32c0 -18 -7 -31 -49 -61zM410 -404c-34 -9 -75 -11 -126 -11c-163 0 -267 38 -267 124c0 101 173 182 417 182c114 0 273 -38 273 -188c0 -210 -270 -303 -561 -303c-49 0 -85 10 -85 39c0 36 33 52 73 63c111 30 187 39 276 94z" />
    <glyph glyph-name="tcommaaccent" unicode="&#x163;" horiz-adv-x="1197" 
d="M1343 187c-203 -134 -671 -227 -989 -227c-192 0 -292 65 -292 167c0 133 188 417 272 720c-41 -2 -75 -3 -86 -3c-29 0 -59 14 -59 48c0 32 20 58 55 63c33 5 73 9 117 14c8 47 13 95 13 143c0 13 -1 25 -1 38c0 30 49 52 114 61c115 15 392 95 505 95
c38 0 52 -28 52 -50c0 -64 -20 -147 -50 -238c132 15 240 34 263 34c38 0 74 -12 74 -59c0 -39 -29 -63 -72 -72c-47 -10 -178 -25 -314 -38c-100 -260 -241 -543 -241 -636c0 -54 38 -71 88 -71c182 0 367 35 510 95c19 8 39 14 58 14c18 0 31 -15 31 -35s-9 -37 -48 -63z
M410 -404c-34 -9 -75 -11 -126 -11c-163 0 -267 38 -267 124c0 101 173 182 417 182c114 0 273 -38 273 -188c0 -210 -270 -303 -561 -303c-49 0 -85 10 -85 39c0 36 33 52 73 63c111 30 187 39 276 94z" />
    <glyph glyph-name="gcommaaccent" unicode="&#x123;" 
d="M28 -340c0 173 606 291 923 334c21 59 43 122 65 187c-143 -106 -330 -169 -501 -169c-222 0 -434 86 -434 362c0 400 351 687 796 687c182 0 293 -43 365 -100c123 38 312 71 396 71c95 0 168 -46 168 -120c0 -72 -107 -306 -268 -808c179 48 277 90 430 163
c23 11 43 18 63 18c21 0 40 -13 40 -35c0 -19 -10 -34 -36 -53c-104 -78 -281 -156 -539 -228l-27 -89c-98 -326 -580 -400 -972 -400c-269 0 -469 47 -469 180zM642 397c0 -97 59 -153 145 -153c82 0 220 13 327 258c32 73 58 166 58 238s-29 120 -120 120
c-198 0 -410 -243 -410 -463zM863 -253l47 133c-194 -31 -447 -91 -447 -203c0 -53 58 -86 132 -86c113 0 226 37 268 156zM608 1450c34 9 75 11 126 11c163 0 267 -38 267 -124c0 -101 -173 -182 -417 -182c-114 0 -273 38 -273 188c0 210 270 303 561 303
c49 0 85 -10 85 -39c0 -36 -33 -52 -73 -63c-111 -30 -187 -39 -276 -94z" />
    <glyph glyph-name="uhungarumlaut" unicode="&#x171;" horiz-adv-x="1880" 
d="M2015 177c-109 -66 -445 -217 -796 -217c-97 0 -263 18 -291 136c-135 -55 -334 -136 -533 -136c-156 0 -294 47 -294 240c0 246 206 614 206 747c0 58 10 82 98 82c103 0 342 11 452 11c38 0 52 -28 52 -50c0 -105 -223 -479 -223 -663c0 -75 58 -111 132 -111
c56 0 96 7 138 16c65 229 207 482 251 759c5 34 43 37 53 37c254 0 392 12 503 12c14 0 38 -22 38 -39c0 -120 -248 -587 -248 -765c0 -47 17 -76 70 -76c89 0 285 62 371 110c13 7 29 15 42 15c19 0 38 -8 38 -34c0 -31 -23 -52 -59 -74zM1262 1720c22 12 48 18 74 18
c72 0 147 -42 147 -104c0 -40 -32 -89 -115 -140c-168 -104 -255 -196 -456 -303c-30 -16 -62 -19 -74 -19c-15 0 -34 14 -34 38c0 70 181 356 458 510zM1810 1700c19 11 42 15 67 15c82 0 177 -54 177 -122c0 -38 -29 -80 -108 -119c-178 -88 -306 -176 -507 -283
c-30 -16 -62 -19 -74 -19c-15 0 -34 14 -34 38c0 70 202 336 479 490z" />
    <glyph glyph-name="ohungarumlaut" unicode="&#x151;" horiz-adv-x="1707" 
d="M734 -40c-395 0 -671 136 -671 450c0 412 441 651 914 651c294 0 593 -71 631 -370c49 -16 99 -23 147 -23c93 0 149 10 233 53c15 7 29 13 47 13c22 0 38 -12 38 -37c0 -26 -24 -53 -48 -69c-95 -66 -180 -84 -305 -84c-36 0 -75 1 -112 7c-42 -328 -361 -591 -874 -591
zM614 322c0 -92 23 -185 135 -185c179 0 318 329 318 605c0 68 -14 150 -101 150c-181 0 -352 -287 -352 -570zM1181 1720c22 12 48 18 74 18c72 0 147 -42 147 -104c0 -40 -32 -89 -115 -140c-168 -104 -255 -196 -456 -303c-30 -16 -62 -19 -74 -19c-15 0 -34 14 -34 38
c0 70 181 356 458 510zM1729 1700c19 11 42 15 67 15c82 0 177 -54 177 -122c0 -38 -29 -80 -108 -119c-178 -88 -306 -176 -507 -283c-30 -16 -62 -19 -74 -19c-15 0 -34 14 -34 38c0 70 202 336 479 490z" />
    <glyph glyph-name="kcommaaccent" unicode="&#x137;" horiz-adv-x="1704" 
d="M1855 180c-202 -142 -503 -220 -738 -220c-188 0 -253 41 -253 140c0 79 42 152 42 241c0 79 -45 137 -159 147c-97 -266 -123 -381 -128 -460c-2 -28 -32 -37 -53 -37c-254 0 -404 -11 -515 -11c-14 0 -38 22 -38 39c0 90 413 1056 413 1384c0 10 -1 18 -1 28
c0 30 31 50 97 50c94 0 348 3 458 3c33 0 52 -25 52 -46c0 -129 -174 -649 -250 -855c248 65 386 217 386 361c0 13 -1 25 -1 38c0 30 31 50 97 50c70 0 330 11 391 11c38 0 52 -28 52 -50c0 -251 -426 -412 -728 -475c61 9 162 21 248 21c167 0 254 -51 254 -159
c0 -50 -26 -98 -26 -151c0 -43 15 -67 64 -67c70 0 219 66 285 103c21 12 39 20 53 20c18 0 41 -13 41 -40c0 -21 -8 -40 -43 -65zM713 -404c-34 -9 -75 -11 -126 -11c-163 0 -267 38 -267 124c0 101 173 182 417 182c114 0 273 -38 273 -188c0 -210 -270 -303 -561 -303
c-49 0 -85 10 -85 39c0 36 33 52 73 63c111 30 187 39 276 94z" />
    <glyph glyph-name="rcaron" unicode="&#x159;" horiz-adv-x="1365" 
d="M910 990c0 -16 -29 -122 -39 -164c94 112 269 235 415 235c92 0 175 -24 175 -80c0 -117 -92 -302 -147 -346c-15 -11 -31 -16 -54 -16c-20 0 -38 5 -58 20c-55 41 -137 90 -264 90c-28 0 -60 -1 -96 -8c-67 -229 -164 -511 -221 -693c-11 -33 -45 -37 -53 -37
c-254 0 -404 -31 -515 -31c-14 0 -38 22 -38 39c0 82 273 644 273 942c0 13 -1 25 -1 38c0 30 31 50 97 50c109 0 358 11 474 11c38 0 52 -28 52 -50zM758 1256c-159 189 -276 354 -285 414c-1 6 -1 11 -1 15c0 31 25 42 51 42c23 0 48 -8 91 -37c145 -99 195 -130 319 -205
c150 67 220 103 409 205c33 18 65 30 91 30c25 0 48 -15 48 -45c0 -64 -210 -274 -446 -435c-51 -35 -80 -42 -153 -42c-57 0 -95 23 -124 58z" />
    <glyph glyph-name="rcommaaccent" unicode="&#x157;" horiz-adv-x="1365" 
d="M910 990c0 -16 -29 -122 -39 -164c94 112 269 235 415 235c92 0 175 -24 175 -80c0 -117 -92 -302 -147 -346c-15 -11 -31 -16 -54 -16c-20 0 -38 5 -58 20c-55 41 -137 90 -264 90c-28 0 -60 -1 -96 -8c-67 -229 -164 -511 -221 -693c-11 -33 -45 -37 -53 -37
c-254 0 -404 -31 -515 -31c-14 0 -38 22 -38 39c0 82 273 644 273 942c0 13 -1 25 -1 38c0 30 31 50 97 50c109 0 358 11 474 11c38 0 52 -28 52 -50zM324 -404c-34 -9 -75 -11 -126 -11c-163 0 -267 38 -267 124c0 101 173 182 417 182c114 0 273 -38 273 -188
c0 -210 -270 -303 -561 -303c-49 0 -85 10 -85 39c0 36 33 52 73 63c111 30 187 39 276 94z" />
    <glyph glyph-name="cedilla" unicode="&#xb8;" horiz-adv-x="1229" 
d="M768 -112c148 0 245 -82 245 -226c0 -177 -151 -262 -314 -262c-151 0 -264 32 -381 101c-64 38 -103 72 -103 121c0 33 22 53 53 53c17 0 32 -6 53 -18c65 -38 199 -87 288 -87c72 0 113 37 113 95c0 48 -36 87 -113 87c-90 0 -146 7 -146 54c0 48 68 212 154 294
l72 -35l-57 -193c43 9 88 16 136 16z" />
    <glyph glyph-name="ccedilla" unicode="&#xe7;" horiz-adv-x="1537" 
d="M961 887c-229 0 -315 -298 -315 -488c0 -206 121 -251 304 -251c206 0 512 64 694 125c21 7 38 12 56 12c16 0 31 -11 31 -32s-10 -43 -53 -71c-172 -112 -532 -222 -936 -222c-475 0 -669 170 -669 422c0 422 458 679 941 679c245 0 415 -36 494 -81
c10 -8 16 -21 16 -40c0 -83 -112 -348 -206 -348c-26 0 -50 16 -62 38c-76 136 -146 257 -295 257zM959 -112c148 0 245 -82 245 -226c0 -177 -151 -262 -314 -262c-151 0 -264 32 -381 101c-64 38 -103 72 -103 121c0 33 22 53 53 53c17 0 32 -6 53 -18
c65 -38 199 -87 288 -87c72 0 113 37 113 95c0 48 -36 87 -113 87c-90 0 -146 7 -146 54c0 48 68 212 154 294l72 -35l-57 -193c43 9 88 16 136 16z" />
    <glyph glyph-name="hbar" unicode="&#x127;" horiz-adv-x="1880" 
d="M223 1195c100 17 356 39 482 60c139 23 357 80 464 97c25 0 48 -29 48 -94s-35 -107 -75 -114c-120 -20 -323 -33 -474 -58c-143 -24 -348 -79 -462 -98c-25 0 -59 17 -59 92c0 65 37 109 76 115zM1984 269c17 9 32 16 55 16c17 0 35 -15 35 -38c0 -25 -16 -45 -50 -66
c-85 -54 -416 -221 -785 -221c-100 0 -293 10 -293 136c0 144 201 488 201 620c0 69 -63 95 -139 95c-50 0 -105 -9 -152 -24c-111 -323 -215 -676 -237 -759c-8 -30 -43 -37 -53 -37c-254 0 -404 -11 -515 -11c-14 0 -38 22 -38 39c0 90 413 1056 413 1384
c0 10 -1 18 -1 28c0 30 31 50 97 50c94 0 348 3 458 3c33 0 52 -25 52 -46c0 -67 -66 -322 -133 -524c135 58 387 147 576 147c119 0 263 -66 263 -232c0 -183 -186 -478 -186 -579c0 -59 33 -82 79 -82c135 0 279 63 353 101z" />
    <glyph glyph-name="ldot" unicode="&#x140;" horiz-adv-x="1460" 
d="M1168 192c-73 -52 -426 -232 -761 -232c-205 0 -341 33 -341 180c0 141 370 952 370 1245c0 13 -1 25 -1 38c0 30 31 50 97 50c112 0 371 11 490 11c38 0 52 -28 52 -50c0 -175 -383 -1042 -383 -1196c0 -45 14 -74 68 -74c95 0 253 59 369 110c18 8 44 11 58 11
c16 0 31 -11 31 -32c0 -18 -7 -31 -49 -61zM1212 520c-140 0 -239 75 -239 174c0 137 178 249 357 249c142 0 238 -78 238 -178c0 -133 -175 -245 -356 -245z" />
    <glyph glyph-name="lslash" unicode="&#x142;" horiz-adv-x="1023" 
d="M1335 1736c-68 -67 -148 -121 -248 -121c-165 0 -299 85 -421 85s-216 -68 -287 -68c-41 0 -69 17 -69 49c0 37 37 89 75 118c93 71 184 129 301 129c166 0 304 -85 426 -85c91 0 158 60 229 60c38 0 69 -17 69 -49c0 -36 -42 -85 -75 -118zM1168 192
c-73 -52 -426 -232 -761 -232c-205 0 -341 33 -341 180c0 141 370 952 370 1245c0 13 -1 25 -1 38c0 30 31 50 97 50c112 0 371 11 490 11c38 0 52 -28 52 -50c0 -175 -383 -1042 -383 -1196c0 -45 14 -74 68 -74c95 0 253 59 369 110c18 8 44 11 58 11c16 0 31 -11 31 -32
c0 -18 -7 -31 -49 -61z" />
    <glyph glyph-name="dcaron" unicode="&#x10f;" horiz-adv-x="1959" 
d="M1905 832c0 68 55 190 96 431c17 100 32 182 156 182c54 0 102 -23 102 -110c0 -160 -188 -554 -298 -554c-30 0 -56 14 -56 51zM523 -40c-229 0 -442 105 -442 386c0 336 264 715 776 715c209 0 327 -63 404 -121c22 140 56 367 56 465c0 10 -1 19 -1 29
c0 30 31 50 97 50c96 0 322 -21 448 -21c34 0 52 -26 52 -47c0 -239 -330 -1073 -330 -1176c0 -51 14 -81 61 -81c73 0 239 60 348 116c8 4 22 10 34 10c25 0 45 -13 45 -41c0 -26 -16 -41 -42 -60c-134 -98 -469 -224 -761 -224c-156 0 -273 32 -315 156
c-57 -58 -198 -156 -430 -156zM642 377c0 -97 59 -163 145 -163c82 0 207 43 314 288c38 73 72 172 72 244s-29 120 -120 120c-203 0 -411 -269 -411 -489z" />
    <glyph glyph-name="lcaron" unicode="&#x13e;" horiz-adv-x="1112" 
d="M1058 832c0 68 55 190 96 431c17 100 32 182 156 182c54 0 102 -23 102 -110c0 -160 -188 -554 -298 -554c-30 0 -56 14 -56 51zM1168 192c-73 -52 -426 -232 -761 -232c-205 0 -341 33 -341 180c0 141 370 952 370 1245c0 13 -1 25 -1 38c0 30 31 50 97 50
c112 0 371 11 490 11c38 0 52 -28 52 -50c0 -175 -383 -1042 -383 -1196c0 -45 14 -74 68 -74c95 0 253 59 369 110c18 8 44 11 58 11c16 0 31 -11 31 -32c0 -18 -7 -31 -49 -61z" />
    <glyph glyph-name="tcaron" unicode="&#x165;" horiz-adv-x="1279" 
d="M1293 187c-203 -134 -621 -227 -939 -227c-192 0 -292 65 -292 167c0 133 188 417 272 720c-41 -2 -75 -3 -86 -3c-29 0 -59 14 -59 48c0 32 20 58 55 63c33 5 73 9 117 14c8 47 13 95 13 143c0 13 -1 25 -1 38c0 30 49 52 114 61c115 15 392 95 505 95
c38 0 52 -28 52 -50c0 -64 -20 -147 -50 -239c52 7 85 14 102 14c38 0 77 -12 77 -59c0 -39 -29 -61 -72 -72c-35 -9 -92 -17 -158 -23c-100 -258 -239 -538 -239 -630c0 -54 38 -71 88 -71c182 0 317 43 460 95c19 7 39 14 58 14c18 0 31 -15 31 -35s-9 -37 -48 -63z
M1225 832c0 68 55 190 96 431c17 100 32 182 156 182c54 0 102 -23 102 -110c0 -160 -188 -554 -298 -554c-30 0 -56 14 -56 51z" />
    <glyph glyph-name="dcroat" unicode="&#x111;" 
d="M1155 1341c98 -27 339 -117 463 -152c135 -38 356 -81 460 -111c13 -6 21 -20 21 -40c0 -80 -70 -139 -116 -139c-6 0 -12 0 -18 2c-118 34 -306 109 -454 151c-139 39 -348 78 -459 109c-15 7 -30 22 -30 50c0 78 71 133 114 133c7 0 13 -1 19 -3zM523 -40
c-229 0 -442 105 -442 386c0 336 264 715 776 715c209 0 327 -63 404 -121c22 140 56 367 56 465c0 10 -1 19 -1 29c0 30 31 50 97 50c96 0 322 -21 448 -21c34 0 52 -26 52 -47c0 -239 -330 -1073 -330 -1176c0 -51 14 -81 61 -81c73 0 239 60 348 116c8 4 22 10 34 10
c25 0 45 -13 45 -41c0 -26 -16 -41 -42 -60c-134 -98 -469 -224 -761 -224c-156 0 -273 32 -315 156c-57 -58 -198 -156 -430 -156zM642 377c0 -97 59 -163 145 -163c82 0 207 43 314 288c38 73 72 172 72 244s-29 120 -120 120c-203 0 -411 -269 -411 -489z" />
    <glyph glyph-name="tbar" unicode="&#x167;" horiz-adv-x="1197" 
d="M630 690l-3 -4c214 6 459 52 494 52c38 0 74 -12 74 -59c0 -39 -29 -63 -72 -72c-90 -19 -492 -57 -644 -64l6 8c-161 -12 -340 -21 -373 -21c-29 0 -59 14 -59 48c0 32 20 58 55 63c119 18 320 31 522 49zM1343 187c-203 -134 -671 -227 -989 -227
c-192 0 -292 65 -292 167c0 133 188 417 272 720c-41 -2 -75 -3 -86 -3c-29 0 -59 14 -59 48c0 32 20 58 55 63c33 5 73 9 117 14c8 47 13 95 13 143c0 13 -1 25 -1 38c0 30 49 52 114 61c115 15 392 95 505 95c38 0 52 -28 52 -50c0 -64 -20 -147 -50 -238
c132 15 240 34 263 34c38 0 74 -12 74 -59c0 -39 -29 -63 -72 -72c-47 -10 -178 -25 -314 -38c-100 -260 -241 -543 -241 -636c0 -54 38 -71 88 -71c182 0 367 35 510 95c19 8 39 14 58 14c18 0 31 -15 31 -35s-9 -37 -48 -63z" />
    <glyph glyph-name="section" unicode="&#xa7;" horiz-adv-x="1958" 
d="M38 3c-12 18 -12 33 -12 51c0 25 115 140 158 140c69 0 153 -170 388 -170c68 0 114 37 114 96c0 173 -481 163 -481 436c0 258 303 364 567 395c-10 23 -16 50 -16 80c0 317 456 405 736 405c171 0 338 -10 424 -63c12 -7 16 -22 16 -47c0 -75 -58 -273 -130 -273
c-8 0 -16 4 -22 11c-111 133 -202 197 -319 197c-60 0 -149 -22 -149 -102c0 -161 533 -282 533 -530c0 -172 -140 -293 -508 -293c-36 0 -74 0 -111 2c33 -44 54 -94 54 -154c0 -229 -264 -324 -568 -324s-624 66 -674 143zM1237 595c0 85 -116 125 -234 177
c-30 9 -61 14 -93 14c-60 0 -149 -22 -149 -102c0 -55 80 -98 177 -147l3 1c49 -23 107 -39 182 -39c68 0 114 37 114 96z" />
    <glyph glyph-name="dollar" unicode="$" 
d="M1658 1091c-62 68 -160 161 -264 222c-35 -132 -77 -290 -122 -453c182 -135 383 -282 383 -492c0 -272 -281 -379 -627 -403l-49 -176c-10 -35 -25 -61 -55 -61c-36 0 -49 30 -49 62c0 20 10 81 29 170h-37c-75 0 -151 4 -225 11c-25 -92 -44 -158 -50 -182
c-10 -35 -25 -61 -55 -61c-36 0 -49 30 -49 62c0 21 12 92 34 194c-198 25 -364 66 -416 94c-16 8 -25 21 -25 40c0 56 107 297 157 297s174 -121 335 -200c24 105 51 223 80 344c-161 131 -325 282 -325 451c0 265 241 463 584 535c25 82 45 142 60 169c20 40 49 60 78 60
c38 0 55 -26 55 -64c0 -40 -16 -88 -27 -130l-3 -10c45 4 90 6 137 6c31 0 63 -1 95 -2c21 67 39 116 52 140c20 40 49 60 78 60c38 0 55 -26 55 -64c0 -40 -16 -88 -27 -130l-4 -15c150 -13 294 -41 405 -88c23 -10 30 -25 30 -54c0 -81 -131 -346 -207 -346
c-13 0 -21 3 -31 14zM983 1196c0 -84 66 -159 156 -234c38 149 75 290 109 411c-17 4 -34 6 -51 6c-93 0 -174 -40 -203 -118l-7 -24c-2 -13 -4 -27 -4 -41zM776 460l-80 -292c42 -11 85 -18 129 -18c56 0 138 24 138 91c0 61 -82 135 -187 219z" />
    <glyph glyph-name="cent" unicode="&#xa2;" horiz-adv-x="1744" 
d="M1079 1193c20 40 49 60 78 60c38 0 55 -26 55 -64c0 -40 -16 -88 -27 -130c182 -8 292 -37 376 -73c23 -10 31 -19 31 -39c0 -151 -76 -314 -114 -314c-12 0 -21 5 -30 17c-82 114 -196 192 -312 222c-61 -229 -142 -526 -205 -755c139 13 311 159 459 286
c14 12 26 14 40 14c19 0 38 -14 38 -36c0 -21 -35 -330 -79 -357c-59 -36 -193 -60 -501 -63l-51 -184c-10 -35 -25 -61 -55 -61c-36 0 -49 30 -49 62c0 18 11 86 31 183c-442 11 -623 177 -623 421c0 406 425 660 888 678c19 60 36 107 50 133zM710 401
c0 -99 31 -196 94 -248c48 227 115 511 174 729c-191 -40 -268 -298 -268 -481z" />
    <glyph glyph-name="sterling" unicode="&#xa3;" 
d="M169 786c40 2 80 3 121 3h85c16 105 33 211 60 312c124 468 563 476 843 476c171 0 388 -36 474 -89c12 -7 16 -22 16 -47c0 -75 -98 -340 -170 -340c-8 0 -17 4 -22 11c-143 193 -218 292 -321 292c-144 0 -210 -292 -287 -598c133 11 267 23 379 31c24 0 39 -26 39 -76
c0 -119 -68 -132 -145 -132c-70 0 -220 1 -319 2c-16 -55 -32 -109 -49 -160c-58 -168 -139 -290 -260 -341c508 16 682 161 955 446c19 20 46 30 77 30c35 0 69 -24 69 -68c0 -80 -4 -124 -34 -253c-48 -206 -134 -305 -370 -305c-262 0 -629 22 -853 22
c-147 0 -179 -20 -299 -20c-65 0 -99 25 -99 68c0 71 103 86 162 168c66 91 99 226 124 376c-84 -6 -161 -11 -215 -11c-25 0 -49 18 -49 77c0 76 45 124 88 126z" />
    <glyph glyph-name="Euro" unicode="&#x20ac;" 
d="M167 580c33 0 86 -2 146 -5c1 43 6 85 13 126c-51 -3 -98 -4 -132 -4c-24 0 -45 10 -45 61c0 81 50 100 95 100c29 0 75 -2 127 -4c170 429 681 722 1098 722c346 0 525 -180 525 -381c0 -179 -107 -282 -310 -282c-94 0 -193 64 -193 122s119 248 119 341
c0 66 -60 77 -126 77c-178 0 -427 -293 -522 -610c153 6 330 15 401 15c23 0 35 -15 35 -58c0 -84 -48 -103 -95 -103c-75 0 -228 7 -371 13c-5 -37 -8 -74 -8 -110c0 -11 0 -22 1 -33c143 6 296 13 361 13c23 0 35 -15 35 -58c0 -84 -48 -103 -95 -103c-58 0 -165 4 -276 9
c45 -131 150 -220 335 -220c259 0 375 85 459 85c31 0 54 -8 54 -33c0 -133 -416 -300 -753 -300c-385 0 -658 179 -719 467c-82 -4 -158 -8 -209 -8c-24 0 -45 10 -45 61c0 81 50 100 95 100z" />
    <glyph glyph-name="yen" unicode="&#xa5;" horiz-adv-x="2048" 
d="M489 632c45 0 127 -4 215 -9c-71 252 -180 493 -221 570c-24 45 -49 74 -122 86c-43 7 -68 30 -68 57c0 88 175 200 600 200c111 0 161 -38 183 -109c35 -115 116 -432 147 -668c134 252 203 439 269 693c13 51 35 65 86 65c105 0 366 9 396 9c70 0 93 -39 93 -96
c0 -263 -488 -574 -697 -806c100 4 192 8 238 8c23 0 35 -15 35 -58c0 -84 -48 -103 -95 -103c-59 0 -166 4 -278 9c-11 -45 -21 -90 -30 -136c120 5 237 10 291 10c23 0 35 -15 35 -58c0 -84 -48 -103 -95 -103c-54 0 -148 3 -250 8c-3 -32 -4 -63 -4 -92
c0 -17 4 -34 4 -54c0 -45 -63 -67 -105 -67c-116 0 -224 -6 -371 -6c-72 0 -146 4 -146 86c0 36 9 83 22 136c-100 -6 -198 -11 -259 -11c-24 0 -45 10 -45 61c0 81 50 100 95 100c51 0 147 -5 247 -10c13 46 26 92 38 138c-100 -6 -197 -11 -258 -11c-24 0 -45 10 -45 61
c0 81 50 100 95 100z" />
    <glyph glyph-name="quoteright" unicode="&#x2019;" horiz-adv-x="819" 
d="M308 922c0 59 191 256 191 342c0 71 -84 133 -84 202c0 118 137 241 264 241c130 0 188 -72 188 -185c0 -185 -147 -369 -331 -544c-58 -55 -129 -100 -178 -100c-32 0 -50 18 -50 44z" />
    <glyph glyph-name="quoteleft" unicode="&#x2018;" horiz-adv-x="819" 
d="M838 1707c23 0 49 -15 49 -44c0 -59 -185 -259 -185 -346c0 -73 101 -117 101 -202c0 -11 -2 -23 -6 -36c-32 -98 -126 -201 -250 -201c-128 0 -184 80 -184 192c0 171 124 381 310 543c62 54 111 94 165 94z" />
    <glyph glyph-name="quotedblleft" unicode="&#x201c;" horiz-adv-x="1423" 
d="M838 1707c23 0 49 -15 49 -44c0 -59 -185 -259 -185 -346c0 -73 101 -117 101 -202c0 -11 -2 -23 -6 -36c-32 -98 -126 -201 -250 -201c-128 0 -184 80 -184 192c0 171 124 381 310 543c62 54 111 94 165 94zM1408 1707c23 0 49 -15 49 -44c0 -59 -185 -259 -185 -346
c0 -73 101 -117 101 -202c0 -11 -2 -23 -6 -36c-32 -98 -126 -201 -250 -201c-128 0 -184 80 -184 192c0 171 124 381 310 543c62 54 111 94 165 94z" />
    <glyph glyph-name="quotedblright" unicode="&#x201d;" horiz-adv-x="1423" 
d="M308 922c0 59 191 256 191 342c0 71 -84 133 -84 202c0 118 137 241 264 241c130 0 188 -72 188 -185c0 -185 -147 -369 -331 -544c-58 -55 -129 -100 -178 -100c-32 0 -50 18 -50 44zM908 922c0 59 191 256 191 342c0 71 -84 133 -84 202c0 118 137 241 264 241
c130 0 188 -72 188 -185c0 -185 -147 -369 -331 -544c-58 -55 -129 -100 -178 -100c-32 0 -50 18 -50 44z" />
    <glyph glyph-name="quotesinglbase" unicode="&#x201a;" horiz-adv-x="819" 
d="M35 -466c0 59 191 256 191 342c0 71 -84 133 -84 202c0 118 137 241 264 241c130 0 188 -72 188 -185c0 -185 -147 -369 -331 -544c-58 -55 -129 -100 -178 -100c-32 0 -50 18 -50 44z" />
    <glyph glyph-name="quotedblbase" unicode="&#x201e;" horiz-adv-x="1523" 
d="M90 -366c0 59 191 256 191 342c0 71 -84 133 -84 202c0 118 137 241 264 241c130 0 188 -72 188 -185c0 -185 -147 -369 -331 -544c-58 -55 -129 -100 -178 -100c-32 0 -50 18 -50 44zM690 -366c0 59 191 256 191 342c0 71 -84 133 -84 202c0 118 137 241 264 241
c130 0 188 -72 188 -185c0 -185 -147 -369 -331 -544c-58 -55 -129 -100 -178 -100c-32 0 -50 18 -50 44z" />
    <glyph glyph-name="quotesingle" unicode="'" horiz-adv-x="819" 
d="M810 1644c0 -201 -112 -510 -218 -680c-30 -48 -52 -76 -90 -76c-51 0 -67 47 -67 94c0 108 29 297 37 442c3 61 2 123 13 184c20 110 125 143 215 143c60 0 110 -29 110 -107z" />
    <glyph glyph-name="quotedbl" unicode="&#x22;" horiz-adv-x="1329" 
d="M810 1644c0 -201 -112 -510 -218 -680c-30 -48 -52 -76 -90 -76c-51 0 -67 47 -67 94c0 108 29 297 37 442c3 61 2 123 13 184c20 110 125 143 215 143c60 0 110 -29 110 -107zM1310 1644c0 -201 -112 -510 -218 -680c-30 -48 -52 -76 -90 -76c-51 0 -67 47 -67 94
c0 108 29 297 37 442c3 61 2 123 13 184c20 110 125 143 215 143c60 0 110 -29 110 -107z" />
    <glyph glyph-name="oslash" unicode="&#xf8;" horiz-adv-x="1707" 
d="M279 276l48 -161c-120 -80 -204 -159 -300 -222c-6 -4 -13 -6 -21 -6c-40 0 -84 74 -84 125c0 34 14 62 36 76c82 54 216 121 321 188zM1358 763l-48 161l12 8c118 78 210 163 301 222c5 3 9 5 15 5c37 0 81 -86 81 -131c0 -33 -14 -61 -36 -75
c-102 -67 -197 -107 -325 -190zM734 -40c-395 0 -671 136 -671 450c0 412 441 651 914 651c294 0 593 -71 631 -370c49 -16 99 -23 147 -23c93 0 149 10 233 53c15 7 29 13 47 13c22 0 38 -12 38 -37c0 -26 -24 -53 -48 -69c-95 -66 -180 -84 -305 -84c-36 0 -75 1 -112 7
c-42 -328 -361 -591 -874 -591zM614 322c0 -92 23 -185 135 -185c179 0 318 329 318 605c0 68 -14 150 -101 150c-181 0 -352 -287 -352 -570z" />
    <glyph glyph-name="Agrave" unicode="&#xc0;" horiz-adv-x="1880" 
d="M1183 -40c-212 0 -333 70 -333 221c0 205 318 796 318 1027c0 115 -95 151 -232 151c-205 0 -297 -40 -382 -40c-25 0 -39 10 -39 30c0 54 322 227 738 227c333 0 515 -109 515 -395c0 -290 -175 -720 -175 -895c0 -67 25 -99 107 -105c48 -4 92 8 92 -35
c0 -29 -13 -55 -42 -75c-56 -39 -206 -111 -567 -111zM1021 1161c-108 -79 -296 -270 -434 -477h14c81 0 162 6 256 6c23 0 70 -2 70 -41c0 -25 -19 -39 -33 -46c-85 -43 -244 -66 -400 -75c-50 -99 -81 -196 -81 -281c0 -31 4 -67 12 -93c9 -29 16 -52 16 -72
c0 -76 -107 -90 -272 -90c-167 0 -203 30 -203 107c0 468 873 1146 1054 1146c27 0 43 -6 43 -25c0 -15 -12 -36 -42 -59zM1089 2050c264 0 592 -301 592 -376c0 -23 -16 -38 -43 -38c-37 0 -67 9 -123 26c-184 56 -287 74 -483 93c-74 7 -133 61 -133 143
c0 98 85 152 190 152z" />
    <glyph glyph-name="breve.cap" horiz-adv-x="1229" 
d="M613 1846c298 0 372 135 454 135c32 0 50 -13 50 -41c0 -52 -44 -103 -98 -157c-109 -109 -261 -203 -451 -203c-231 0 -347 106 -422 222c-19 29 -38 66 -38 111c0 46 30 67 69 67c81 0 207 -134 436 -134z" />
    <glyph glyph-name="cedilla.cap" horiz-adv-x="1229" 
d="M768 -112c148 0 245 -82 245 -226c0 -177 -151 -262 -314 -262c-151 0 -264 32 -381 101c-64 38 -103 72 -103 121c0 33 22 53 53 53c17 0 32 -6 53 -18c64 -37 178 -86 269 -86c66 0 116 24 116 95c0 57 -52 86 -153 86c-90 0 -146 7 -146 54c0 48 111 210 210 294
l72 -35l-109 -217c62 24 119 40 188 40z" />
    <glyph glyph-name="Aacute" unicode="&#xc1;" horiz-adv-x="1880" 
d="M1183 -40c-212 0 -333 70 -333 221c0 205 318 796 318 1027c0 115 -95 151 -232 151c-205 0 -297 -40 -382 -40c-25 0 -39 10 -39 30c0 54 322 227 738 227c333 0 515 -109 515 -395c0 -290 -175 -720 -175 -895c0 -67 25 -99 107 -105c48 -4 92 8 92 -35
c0 -29 -13 -55 -42 -75c-56 -39 -206 -111 -567 -111zM1021 1161c-108 -79 -296 -270 -434 -477h14c81 0 162 6 256 6c23 0 70 -2 70 -41c0 -25 -19 -39 -33 -46c-85 -43 -244 -66 -400 -75c-50 -99 -81 -196 -81 -281c0 -31 4 -67 12 -93c9 -29 16 -52 16 -72
c0 -76 -107 -90 -272 -90c-167 0 -203 30 -203 107c0 468 873 1146 1054 1146c27 0 43 -6 43 -25c0 -15 -12 -36 -42 -59zM1611 2013c66 25 124 37 166 37c127 0 224 -79 224 -164c0 -43 -26 -102 -113 -114c-140 -19 -444 -55 -650 -118c-26 -8 -47 -13 -73 -13
c-22 0 -35 14 -35 39c0 75 221 235 481 333z" />
    <glyph glyph-name="Acircumflex" unicode="&#xc2;" horiz-adv-x="1880" 
d="M1183 -40c-212 0 -333 70 -333 221c0 205 318 796 318 1027c0 115 -95 151 -232 151c-205 0 -297 -40 -382 -40c-25 0 -39 10 -39 30c0 54 322 227 738 227c333 0 515 -109 515 -395c0 -290 -175 -720 -175 -895c0 -67 25 -99 107 -105c48 -4 92 8 92 -35
c0 -29 -13 -55 -42 -75c-56 -39 -206 -111 -567 -111zM1021 1161c-108 -79 -296 -270 -434 -477h14c81 0 162 6 256 6c23 0 70 -2 70 -41c0 -25 -19 -39 -33 -46c-85 -43 -244 -66 -400 -75c-50 -99 -81 -196 -81 -281c0 -31 4 -67 12 -93c9 -29 16 -52 16 -72
c0 -76 -107 -90 -272 -90c-167 0 -203 30 -203 107c0 468 873 1146 1054 1146c27 0 43 -6 43 -25c0 -15 -12 -36 -42 -59zM1604 1991c157 -155 266 -274 266 -329c0 -31 -25 -42 -51 -42c-23 0 -59 6 -93 20c-152 61 -183 75 -307 142c-149 -57 -179 -68 -366 -132
c-41 -14 -78 -23 -104 -23c-25 0 -48 15 -48 45c0 60 177 185 416 335c52 33 80 42 153 42c67 0 102 -26 134 -58z" />
    <glyph glyph-name="Adieresis" unicode="&#xc4;" horiz-adv-x="1880" 
d="M1183 -40c-212 0 -333 70 -333 221c0 205 318 796 318 1027c0 115 -95 151 -232 151c-205 0 -297 -40 -382 -40c-25 0 -39 10 -39 30c0 54 322 227 738 227c333 0 515 -109 515 -395c0 -290 -175 -720 -175 -895c0 -67 25 -99 107 -105c48 -4 92 8 92 -35
c0 -29 -13 -55 -42 -75c-56 -39 -206 -111 -567 -111zM1021 1161c-108 -79 -296 -270 -434 -477h14c81 0 162 6 256 6c23 0 70 -2 70 -41c0 -25 -19 -39 -33 -46c-85 -43 -244 -66 -400 -75c-50 -99 -81 -196 -81 -281c0 -31 4 -67 12 -93c9 -29 16 -52 16 -72
c0 -76 -107 -90 -272 -90c-167 0 -203 30 -203 107c0 468 873 1146 1054 1146c27 0 43 -6 43 -25c0 -15 -12 -36 -42 -59zM984 1641c-132 0 -236 60 -236 154c0 129 178 225 347 225c134 0 236 -64 236 -158c0 -127 -177 -221 -347 -221zM1724 1641c-132 0 -236 60 -236 154
c0 129 178 225 347 225c134 0 236 -64 236 -158c0 -127 -176 -221 -347 -221z" />
    <glyph glyph-name="Aring" unicode="&#xc5;" horiz-adv-x="1880" 
d="M1183 -40c-212 0 -333 70 -333 221c0 205 318 796 318 1027c0 115 -95 151 -232 151c-205 0 -297 -40 -382 -40c-25 0 -39 10 -39 30c0 54 322 227 738 227c333 0 515 -109 515 -395c0 -290 -175 -720 -175 -895c0 -67 25 -99 107 -105c48 -4 92 8 92 -35
c0 -29 -13 -55 -42 -75c-56 -39 -206 -111 -567 -111zM1021 1161c-108 -79 -296 -270 -434 -477h14c81 0 162 6 256 6c23 0 70 -2 70 -41c0 -25 -19 -39 -33 -46c-85 -43 -244 -66 -400 -75c-50 -99 -81 -196 -81 -281c0 -31 4 -67 12 -93c9 -29 16 -52 16 -72
c0 -76 -107 -90 -272 -90c-167 0 -203 30 -203 107c0 468 873 1146 1054 1146c27 0 43 -6 43 -25c0 -15 -12 -36 -42 -59zM1200 1765c0 -76 75 -105 154 -105c98 0 206 37 206 135c0 72 -57 104 -136 104c-102 0 -224 -36 -224 -134zM1451 2040c232 0 359 -76 359 -214
c0 -166 -199 -291 -497 -291c-220 0 -361 64 -361 207c0 175 194 298 499 298z" />
    <glyph glyph-name="Ccedilla" unicode="&#xc7;" 
d="M1373 1453c-240 0 -602 -461 -602 -853c0 -219 112 -392 388 -392c278 0 403 85 493 85c34 0 58 -8 58 -33c0 -133 -447 -300 -809 -300c-471 0 -786 233 -786 596c0 585 697 1020 1242 1020c372 0 564 -180 564 -381c0 -222 -136 -445 -417 -445c-75 0 -207 28 -207 122
c0 58 211 411 211 504c0 66 -64 77 -135 77zM1092 -112c148 0 245 -82 245 -226c0 -177 -151 -262 -314 -262c-151 0 -264 32 -381 101c-64 38 -103 72 -103 121c0 33 22 53 53 53c17 0 32 -6 53 -18c65 -38 199 -87 288 -87c72 0 113 37 113 95c0 48 -36 87 -113 87
c-90 0 -146 7 -146 54c0 48 68 212 154 294l72 -35l-57 -193c43 9 88 16 136 16z" />
    <glyph glyph-name="Egrave" unicode="&#xc8;" 
d="M1753 238c0 -147 -507 -278 -884 -278c-456 0 -809 115 -809 397c0 342 544 466 995 467c-228 12 -677 57 -677 305c0 290 447 447 885 447c217 0 501 -19 644 -105c20 -12 38 -29 38 -61c0 -75 -124 -249 -181 -302c-18 -18 -35 -31 -68 -31c-45 0 -84 42 -104 87
c-70 158 -183 245 -336 245c-174 0 -313 -106 -313 -249c0 -130 156 -247 359 -247c27 0 56 6 84 6s38 -16 38 -56c0 -87 -69 -145 -116 -148c-169 -12 -502 -63 -502 -276c0 -193 210 -254 364 -254c164 0 350 41 514 86c11 3 22 5 31 5c24 0 38 -13 38 -38zM1028 2050
c264 0 592 -301 592 -376c0 -23 -16 -38 -43 -38c-37 0 -67 9 -123 26c-184 56 -287 74 -483 93c-74 7 -133 61 -133 143c0 98 85 152 190 152z" />
    <glyph glyph-name="Eacute" unicode="&#xc9;" 
d="M1753 238c0 -147 -507 -278 -884 -278c-456 0 -809 115 -809 397c0 342 544 466 995 467c-228 12 -677 57 -677 305c0 290 447 447 885 447c217 0 501 -19 644 -105c20 -12 38 -29 38 -61c0 -75 -124 -249 -181 -302c-18 -18 -35 -31 -68 -31c-45 0 -84 42 -104 87
c-70 158 -183 245 -336 245c-174 0 -313 -106 -313 -249c0 -130 156 -247 359 -247c27 0 56 6 84 6s38 -16 38 -56c0 -87 -69 -145 -116 -148c-169 -12 -502 -63 -502 -276c0 -193 210 -254 364 -254c164 0 350 41 514 86c11 3 22 5 31 5c24 0 38 -13 38 -38zM1550 2013
c66 25 124 37 166 37c127 0 224 -79 224 -164c0 -43 -26 -102 -113 -114c-140 -19 -444 -55 -650 -118c-26 -8 -47 -13 -73 -13c-22 0 -35 14 -35 39c0 75 221 235 481 333z" />
    <glyph glyph-name="Ecircumflex" unicode="&#xca;" 
d="M1753 238c0 -147 -507 -278 -884 -278c-456 0 -809 115 -809 397c0 342 544 466 995 467c-228 12 -677 57 -677 305c0 290 447 447 885 447c217 0 501 -19 644 -105c20 -12 38 -29 38 -61c0 -75 -124 -249 -181 -302c-18 -18 -35 -31 -68 -31c-45 0 -84 42 -104 87
c-70 158 -183 245 -336 245c-174 0 -313 -106 -313 -249c0 -130 156 -247 359 -247c27 0 56 6 84 6s38 -16 38 -56c0 -87 -69 -145 -116 -148c-169 -12 -502 -63 -502 -276c0 -193 210 -254 364 -254c164 0 350 41 514 86c11 3 22 5 31 5c24 0 38 -13 38 -38zM1543 1991
c157 -155 266 -274 266 -329c0 -31 -25 -42 -51 -42c-23 0 -59 6 -93 20c-152 61 -183 75 -307 142c-149 -57 -179 -68 -366 -132c-41 -14 -78 -23 -104 -23c-25 0 -48 15 -48 45c0 60 177 185 416 335c52 33 80 42 153 42c67 0 102 -26 134 -58z" />
    <glyph glyph-name="Edieresis" unicode="&#xcb;" 
d="M1753 238c0 -147 -507 -278 -884 -278c-456 0 -809 115 -809 397c0 342 544 466 995 467c-228 12 -677 57 -677 305c0 290 447 447 885 447c217 0 501 -19 644 -105c20 -12 38 -29 38 -61c0 -75 -124 -249 -181 -302c-18 -18 -35 -31 -68 -31c-45 0 -84 42 -104 87
c-70 158 -183 245 -336 245c-174 0 -313 -106 -313 -249c0 -130 156 -247 359 -247c27 0 56 6 84 6s38 -16 38 -56c0 -87 -69 -145 -116 -148c-169 -12 -502 -63 -502 -276c0 -193 210 -254 364 -254c164 0 350 41 514 86c11 3 22 5 31 5c24 0 38 -13 38 -38zM923 1641
c-132 0 -236 60 -236 154c0 129 178 225 347 225c134 0 236 -64 236 -158c0 -127 -177 -221 -347 -221zM1663 1641c-132 0 -236 60 -236 154c0 129 178 225 347 225c134 0 236 -64 236 -158c0 -127 -176 -221 -347 -221z" />
    <glyph glyph-name="Igrave" unicode="&#xcc;" horiz-adv-x="1366" 
d="M375 359c19 40 53 128 91 235c-130 80 -243 205 -243 388c0 367 480 554 853 554c209 0 254 -97 254 -215c0 -197 -175 -596 -321 -1051c-67 -209 -207 -290 -411 -290c-276 0 -526 71 -526 150c0 33 35 48 67 52c129 15 170 39 236 177zM648 1221c0 31 -20 54 -55 54
c-40 0 -162 -77 -162 -309c0 -101 34 -180 77 -249c71 211 140 442 140 504zM785 2050c264 0 592 -301 592 -376c0 -23 -16 -38 -43 -38c-37 0 -67 9 -123 26c-184 56 -287 74 -483 93c-74 7 -133 61 -133 143c0 98 85 152 190 152z" />
    <glyph glyph-name="Iacute" unicode="&#xcd;" horiz-adv-x="1366" 
d="M375 359c19 40 53 128 91 235c-130 80 -243 205 -243 388c0 367 480 554 853 554c209 0 254 -97 254 -215c0 -197 -175 -596 -321 -1051c-67 -209 -207 -290 -411 -290c-276 0 -526 71 -526 150c0 33 35 48 67 52c129 15 170 39 236 177zM648 1221c0 31 -20 54 -55 54
c-40 0 -162 -77 -162 -309c0 -101 34 -180 77 -249c71 211 140 442 140 504zM1307 2013c66 25 124 37 166 37c127 0 224 -79 224 -164c0 -43 -26 -102 -113 -114c-140 -19 -444 -55 -650 -118c-26 -8 -47 -13 -73 -13c-22 0 -35 14 -35 39c0 75 221 235 481 333z" />
    <glyph glyph-name="Icircumflex" unicode="&#xce;" horiz-adv-x="1366" 
d="M375 359c19 40 53 128 91 235c-130 80 -243 205 -243 388c0 367 480 554 853 554c209 0 254 -97 254 -215c0 -197 -175 -596 -321 -1051c-67 -209 -207 -290 -411 -290c-276 0 -526 71 -526 150c0 33 35 48 67 52c129 15 170 39 236 177zM648 1221c0 31 -20 54 -55 54
c-40 0 -162 -77 -162 -309c0 -101 34 -180 77 -249c71 211 140 442 140 504zM1300 1991c157 -155 266 -274 266 -329c0 -31 -25 -42 -51 -42c-23 0 -59 6 -93 20c-152 61 -183 75 -307 142c-149 -57 -179 -68 -366 -132c-41 -14 -78 -23 -104 -23c-25 0 -48 15 -48 45
c0 60 177 185 416 335c52 33 80 42 153 42c67 0 102 -26 134 -58z" />
    <glyph glyph-name="Idieresis" unicode="&#xcf;" horiz-adv-x="1366" 
d="M375 359c19 40 53 128 91 235c-130 80 -243 205 -243 388c0 367 480 554 853 554c209 0 254 -97 254 -215c0 -197 -175 -596 -321 -1051c-67 -209 -207 -290 -411 -290c-276 0 -526 71 -526 150c0 33 35 48 67 52c129 15 170 39 236 177zM648 1221c0 31 -20 54 -55 54
c-40 0 -162 -77 -162 -309c0 -101 34 -180 77 -249c71 211 140 442 140 504zM680 1641c-132 0 -236 60 -236 154c0 129 178 225 347 225c134 0 236 -64 236 -158c0 -127 -177 -221 -347 -221zM1420 1641c-132 0 -236 60 -236 154c0 129 178 225 347 225
c134 0 236 -64 236 -158c0 -127 -176 -221 -347 -221z" />
    <glyph glyph-name="IJ" unicode="&#x132;" horiz-adv-x="2732" 
d="M375 359c19 40 53 128 91 235c-130 80 -243 205 -243 388c0 367 480 554 853 554c209 0 254 -97 254 -215c0 -197 -175 -596 -321 -1051c-67 -209 -207 -290 -411 -290c-276 0 -526 71 -526 150c0 33 35 48 67 52c129 15 170 39 236 177zM648 1221c0 31 -20 54 -55 54
c-40 0 -162 -77 -162 -309c0 -101 34 -180 77 -249c71 211 140 442 140 504zM2421 1536c196 0 275 -41 275 -173c0 -206 -237 -796 -363 -1179c-156 -475 -355 -694 -756 -694c-179 0 -329 86 -329 276c0 291 254 503 522 619c92 280 246 670 246 788c0 42 -13 59 -48 59
c-56 0 -138 -35 -224 -72c-26 -11 -59 -20 -86 -20c-32 0 -52 13 -52 41c0 21 14 40 33 57c180 155 504 298 782 298zM1496 -367c40 0 76 128 228 607c-135 -114 -280 -299 -280 -486c0 -82 21 -121 52 -121z" />
    <glyph glyph-name="tilde.cap" horiz-adv-x="1229" 
d="M1092 1818c-100 -110 -215 -153 -315 -153c-165 0 -283 102 -405 102c-59 0 -181 -62 -242 -62c-41 0 -69 17 -69 49c0 37 43 83 75 118c100 109 214 152 314 152c166 0 284 -101 406 -101c59 0 181 62 242 62c38 0 69 -17 69 -49c0 -36 -43 -84 -75 -118z" />
    <glyph glyph-name="Atilde" unicode="&#xc3;" horiz-adv-x="1880" 
d="M1183 -40c-212 0 -333 70 -333 221c0 205 318 796 318 1027c0 115 -95 151 -232 151c-205 0 -297 -40 -382 -40c-25 0 -39 10 -39 30c0 54 322 227 738 227c333 0 515 -109 515 -395c0 -290 -175 -720 -175 -895c0 -67 25 -99 107 -105c48 -4 92 8 92 -35
c0 -29 -13 -55 -42 -75c-56 -39 -206 -111 -567 -111zM1021 1161c-108 -79 -296 -270 -434 -477h14c81 0 162 6 256 6c23 0 70 -2 70 -41c0 -25 -19 -39 -33 -46c-85 -43 -244 -66 -400 -75c-50 -99 -81 -196 -81 -281c0 -31 4 -67 12 -93c9 -29 16 -52 16 -72
c0 -76 -107 -90 -272 -90c-167 0 -203 30 -203 107c0 468 873 1146 1054 1146c27 0 43 -6 43 -25c0 -15 -12 -36 -42 -59zM1905 1818c-100 -110 -215 -153 -315 -153c-165 0 -283 102 -405 102c-59 0 -181 -62 -242 -62c-41 0 -69 17 -69 49c0 37 43 83 75 118
c100 109 214 152 314 152c166 0 284 -101 406 -101c59 0 181 62 242 62c38 0 69 -17 69 -49c0 -36 -43 -84 -75 -118z" />
    <glyph glyph-name="Itilde" unicode="&#x128;" horiz-adv-x="1366" 
d="M375 359c19 40 53 128 91 235c-130 80 -243 205 -243 388c0 367 480 554 853 554c209 0 254 -97 254 -215c0 -197 -175 -596 -321 -1051c-67 -209 -207 -290 -411 -290c-276 0 -526 71 -526 150c0 33 35 48 67 52c129 15 170 39 236 177zM648 1221c0 31 -20 54 -55 54
c-40 0 -162 -77 -162 -309c0 -101 34 -180 77 -249c71 211 140 442 140 504zM1601 1818c-100 -110 -215 -153 -315 -153c-165 0 -283 102 -405 102c-59 0 -181 -62 -242 -62c-41 0 -69 17 -69 49c0 37 43 83 75 118c100 109 214 152 314 152c166 0 284 -101 406 -101
c59 0 181 62 242 62c38 0 69 -17 69 -49c0 -36 -43 -84 -75 -118z" />
    <glyph glyph-name="Jcircumflex" unicode="&#x134;" horiz-adv-x="1366" 
d="M1055 1536c196 0 275 -41 275 -173c0 -206 -237 -796 -363 -1179c-156 -475 -355 -694 -756 -694c-179 0 -329 86 -329 276c0 291 254 503 522 619c92 280 246 670 246 788c0 42 -13 59 -48 59c-56 0 -138 -35 -224 -72c-26 -11 -59 -20 -86 -20c-32 0 -52 13 -52 41
c0 21 14 40 33 57c180 155 504 298 782 298zM130 -367c40 0 76 128 228 607c-135 -114 -280 -299 -280 -486c0 -82 21 -121 52 -121zM1318 1991c157 -155 266 -274 266 -329c0 -31 -25 -42 -51 -42c-23 0 -59 6 -93 20c-152 61 -183 75 -307 142
c-149 -57 -179 -68 -366 -132c-41 -14 -78 -23 -104 -23c-25 0 -48 15 -48 45c0 60 177 185 416 335c52 33 80 42 153 42c67 0 102 -26 134 -58z" />
    <glyph glyph-name="Nacute" unicode="&#x143;" horiz-adv-x="2218" 
d="M914 1556c173 0 247 -40 247 -220c0 -14 -2 -30 -3 -45c270 209 467 286 671 286c193 0 311 -84 311 -247c0 -244 -328 -779 -328 -979c0 -96 67 -142 143 -155c46 -8 101 -17 101 -59c0 -93 -228 -177 -536 -177c-198 0 -340 69 -340 223c0 300 306 757 306 964
c0 77 -79 96 -151 96c-78 0 -145 -32 -198 -62c-84 -329 -359 -844 -359 -1060c0 -20 3 -42 3 -66c0 -45 -63 -67 -105 -67c-216 0 -254 -6 -401 -6c-72 0 -146 4 -146 86c0 29 3 64 9 91c62 261 359 818 359 976c0 73 -20 92 -53 92c-35 0 -81 -24 -118 -24
c-25 0 -44 4 -44 31c0 38 41 79 82 112c134 108 381 210 550 210zM1667 2013c66 25 124 37 166 37c127 0 224 -79 224 -164c0 -43 -26 -102 -113 -114c-140 -19 -444 -55 -650 -118c-26 -8 -47 -13 -73 -13c-22 0 -35 14 -35 39c0 75 221 235 481 333z" />
    <glyph glyph-name="Ntilde" unicode="&#xd1;" horiz-adv-x="2218" 
d="M914 1556c173 0 247 -40 247 -220c0 -14 -2 -30 -3 -45c270 209 467 286 671 286c193 0 311 -84 311 -247c0 -244 -328 -779 -328 -979c0 -96 67 -142 143 -155c46 -8 101 -17 101 -59c0 -93 -228 -177 -536 -177c-198 0 -340 69 -340 223c0 300 306 757 306 964
c0 77 -79 96 -151 96c-78 0 -145 -32 -198 -62c-84 -329 -359 -844 -359 -1060c0 -20 3 -42 3 -66c0 -45 -63 -67 -105 -67c-216 0 -254 -6 -401 -6c-72 0 -146 4 -146 86c0 29 3 64 9 91c62 261 359 818 359 976c0 73 -20 92 -53 92c-35 0 -81 -24 -118 -24
c-25 0 -44 4 -44 31c0 38 41 79 82 112c134 108 381 210 550 210zM1961 1818c-100 -110 -215 -153 -315 -153c-165 0 -283 102 -405 102c-59 0 -181 -62 -242 -62c-41 0 -69 17 -69 49c0 37 43 83 75 118c100 109 214 152 314 152c166 0 284 -101 406 -101
c59 0 181 62 242 62c38 0 69 -17 69 -49c0 -36 -43 -84 -75 -118z" />
    <glyph glyph-name="Ugrave" unicode="&#xd9;" horiz-adv-x="2223" 
d="M1166 191c0 10 0 20 1 31c-123 -136 -352 -262 -554 -262c-204 0 -397 80 -397 367c0 306 232 648 303 838c3 9 4 20 4 28c0 51 -49 74 -122 86c-43 7 -68 30 -68 57c0 88 268 200 693 200c113 0 183 -36 183 -112c0 -68 -383 -718 -383 -1035c0 -99 55 -121 135 -121
c92 0 178 36 220 50c72 347 373 937 373 1097c0 83 61 112 148 112c105 0 264 -4 314 -4c69 0 146 -44 146 -117c0 -29 -10 -71 -25 -106c-159 -358 -310 -791 -310 -955c0 -175 225 -114 225 -192c0 -115 -412 -193 -602 -193c-200 0 -284 87 -284 231zM1184 2050
c264 0 592 -301 592 -376c0 -23 -16 -38 -43 -38c-37 0 -67 9 -123 26c-184 56 -287 74 -483 93c-74 7 -133 61 -133 143c0 98 85 152 190 152z" />
    <glyph glyph-name="Uacute" unicode="&#xda;" horiz-adv-x="2223" 
d="M1166 191c0 10 0 20 1 31c-123 -136 -352 -262 -554 -262c-204 0 -397 80 -397 367c0 306 232 648 303 838c3 9 4 20 4 28c0 51 -49 74 -122 86c-43 7 -68 30 -68 57c0 88 268 200 693 200c113 0 183 -36 183 -112c0 -68 -383 -718 -383 -1035c0 -99 55 -121 135 -121
c92 0 178 36 220 50c72 347 373 937 373 1097c0 83 61 112 148 112c105 0 264 -4 314 -4c69 0 146 -44 146 -117c0 -29 -10 -71 -25 -106c-159 -358 -310 -791 -310 -955c0 -175 225 -114 225 -192c0 -115 -412 -193 -602 -193c-200 0 -284 87 -284 231zM1706 2013
c66 25 124 37 166 37c127 0 224 -79 224 -164c0 -43 -26 -102 -113 -114c-140 -19 -444 -55 -650 -118c-26 -8 -47 -13 -73 -13c-22 0 -35 14 -35 39c0 75 221 235 481 333z" />
    <glyph glyph-name="Ucircumflex" unicode="&#xdb;" horiz-adv-x="2223" 
d="M1166 191c0 10 0 20 1 31c-123 -136 -352 -262 -554 -262c-204 0 -397 80 -397 367c0 306 232 648 303 838c3 9 4 20 4 28c0 51 -49 74 -122 86c-43 7 -68 30 -68 57c0 88 268 200 693 200c113 0 183 -36 183 -112c0 -68 -383 -718 -383 -1035c0 -99 55 -121 135 -121
c92 0 178 36 220 50c72 347 373 937 373 1097c0 83 61 112 148 112c105 0 264 -4 314 -4c69 0 146 -44 146 -117c0 -29 -10 -71 -25 -106c-159 -358 -310 -791 -310 -955c0 -175 225 -114 225 -192c0 -115 -412 -193 -602 -193c-200 0 -284 87 -284 231zM1699 1991
c157 -155 266 -274 266 -329c0 -31 -25 -42 -51 -42c-23 0 -59 6 -93 20c-152 61 -183 75 -307 142c-149 -57 -179 -68 -366 -132c-41 -14 -78 -23 -104 -23c-25 0 -48 15 -48 45c0 60 177 185 416 335c52 33 80 42 153 42c67 0 102 -26 134 -58z" />
    <glyph glyph-name="Udieresis" unicode="&#xdc;" horiz-adv-x="2223" 
d="M1166 191c0 10 0 20 1 31c-123 -136 -352 -262 -554 -262c-204 0 -397 80 -397 367c0 306 232 648 303 838c3 9 4 20 4 28c0 51 -49 74 -122 86c-43 7 -68 30 -68 57c0 88 268 200 693 200c113 0 183 -36 183 -112c0 -68 -383 -718 -383 -1035c0 -99 55 -121 135 -121
c92 0 178 36 220 50c72 347 373 937 373 1097c0 83 61 112 148 112c105 0 264 -4 314 -4c69 0 146 -44 146 -117c0 -29 -10 -71 -25 -106c-159 -358 -310 -791 -310 -955c0 -175 225 -114 225 -192c0 -115 -412 -193 -602 -193c-200 0 -284 87 -284 231zM1079 1641
c-132 0 -236 60 -236 154c0 129 178 225 347 225c134 0 236 -64 236 -158c0 -127 -177 -221 -347 -221zM1819 1641c-132 0 -236 60 -236 154c0 129 178 225 347 225c134 0 236 -64 236 -158c0 -127 -176 -221 -347 -221z" />
    <glyph glyph-name="Yacute" unicode="&#xdd;" horiz-adv-x="2048" 
d="M852 -296c85 110 176 293 267 518c-125 -92 -321 -175 -520 -175c-194 0 -390 100 -390 340c0 245 244 692 270 778c3 9 4 20 4 28c0 51 -49 74 -122 86c-43 7 -68 30 -68 57c0 88 238 200 663 200c111 0 183 -35 183 -109c0 -140 -343 -769 -343 -990
c0 -100 77 -134 170 -134c62 0 137 15 199 35c124 328 244 728 341 1129c12 51 78 59 198 59c105 0 220 -3 270 -3c67 0 143 -36 143 -93c0 -27 -18 -48 -37 -94c-110 -259 -315 -1013 -395 -1215c-206 -524 -488 -631 -858 -631c-65 0 -99 20 -99 53c0 45 96 123 124 161z
M1602 2013c66 25 124 37 166 37c127 0 224 -79 224 -164c0 -43 -26 -102 -113 -114c-140 -19 -444 -55 -650 -118c-26 -8 -47 -13 -73 -13c-22 0 -35 14 -35 39c0 75 221 235 481 333z" />
    <glyph glyph-name="Rcaron" unicode="&#x158;" horiz-adv-x="2218" 
d="M1126 1079c-38 -63 -92 -201 -148 -358c332 39 531 159 531 388c0 224 -239 250 -426 250c-460 0 -676 -157 -738 -157c-31 0 -53 13 -53 35c0 27 24 59 57 80c244 157 551 259 1092 259c286 0 692 -88 692 -408c0 -279 -280 -392 -680 -454c260 0 428 -93 428 -260
c0 -50 -18 -116 -18 -178c0 -140 208 -42 208 -146c0 -91 -263 -170 -567 -170c-240 0 -355 85 -355 223c0 101 66 214 66 288c0 71 -49 153 -222 153c-15 0 -33 -1 -49 -1c-49 -143 -96 -293 -131 -410c-63 -212 -169 -233 -386 -233c-261 0 -506 103 -506 183
c0 32 33 50 65 50c120 0 162 24 227 157c121 245 202 686 451 806c96 46 270 67 386 67c62 0 123 -5 123 -52c0 -29 -8 -43 -47 -112zM1216 1678c-157 156 -266 274 -266 329c0 31 25 42 51 42c23 0 59 -6 93 -20c152 -61 183 -75 307 -142c149 57 179 68 366 132
c41 14 78 23 104 23c25 0 48 -15 48 -45c0 -60 -177 -185 -416 -335c-52 -33 -80 -42 -153 -42c-67 0 -102 26 -134 58z" />
    <glyph glyph-name="Racute" unicode="&#x154;" horiz-adv-x="2218" 
d="M1126 1079c-38 -63 -92 -201 -148 -358c332 39 531 159 531 388c0 224 -239 250 -426 250c-460 0 -676 -157 -738 -157c-31 0 -53 13 -53 35c0 27 24 59 57 80c244 157 551 259 1092 259c286 0 692 -88 692 -408c0 -279 -280 -392 -680 -454c260 0 428 -93 428 -260
c0 -50 -18 -116 -18 -178c0 -140 208 -42 208 -146c0 -91 -263 -170 -567 -170c-240 0 -355 85 -355 223c0 101 66 214 66 288c0 71 -49 153 -222 153c-15 0 -33 -1 -49 -1c-49 -143 -96 -293 -131 -410c-63 -212 -169 -233 -386 -233c-261 0 -506 103 -506 183
c0 32 33 50 65 50c120 0 162 24 227 157c121 245 202 686 451 806c96 46 270 67 386 67c62 0 123 -5 123 -52c0 -29 -8 -43 -47 -112zM1530 2013c66 25 124 37 166 37c127 0 224 -79 224 -164c0 -43 -26 -102 -113 -114c-140 -19 -444 -55 -650 -118c-26 -8 -47 -13 -73 -13
c-22 0 -35 14 -35 39c0 75 221 235 481 333z" />
    <glyph glyph-name="Oslash" unicode="&#xd8;" horiz-adv-x="2048" 
d="M429 196l48 -161c-120 -80 -204 -159 -300 -222c-6 -4 -13 -6 -21 -6c-40 0 -84 74 -84 125c0 34 14 62 36 76c82 54 216 121 321 188zM1856 1191l-48 161l12 8c118 78 210 163 301 222c5 3 9 5 15 5c37 0 81 -86 81 -131c0 -33 -14 -61 -36 -75
c-102 -67 -197 -107 -325 -190zM1041 1087c-140 -113 -299 -381 -299 -693c0 -159 48 -259 169 -259c232 0 512 405 512 837c0 293 -95 406 -340 406c-299 0 -604 -141 -641 -141c-19 0 -37 6 -37 30c0 80 453 309 869 309c540 0 757 -287 757 -654
c0 -597 -538 -962 -1182 -962c-469 0 -714 168 -714 503c0 488 557 807 951 807c59 0 75 -27 75 -48c0 -38 -48 -70 -120 -135z" />
    <glyph glyph-name="Odieresis" unicode="&#xd6;" horiz-adv-x="2048" 
d="M1041 1087c-140 -113 -299 -381 -299 -693c0 -159 48 -259 169 -259c232 0 512 405 512 837c0 293 -95 406 -340 406c-299 0 -604 -141 -641 -141c-19 0 -37 6 -37 30c0 80 453 309 869 309c540 0 757 -287 757 -654c0 -597 -538 -962 -1182 -962
c-469 0 -714 168 -714 503c0 488 557 807 951 807c59 0 75 -27 75 -48c0 -38 -48 -70 -120 -135zM1017 1641c-132 0 -236 60 -236 154c0 129 178 225 347 225c134 0 236 -64 236 -158c0 -127 -177 -221 -347 -221zM1757 1641c-132 0 -236 60 -236 154c0 129 178 225 347 225
c134 0 236 -64 236 -158c0 -127 -176 -221 -347 -221z" />
    <glyph glyph-name="Otilde" unicode="&#xd5;" horiz-adv-x="2048" 
d="M1041 1087c-140 -113 -299 -381 -299 -693c0 -159 48 -259 169 -259c232 0 512 405 512 837c0 293 -95 406 -340 406c-299 0 -604 -141 -641 -141c-19 0 -37 6 -37 30c0 80 453 309 869 309c540 0 757 -287 757 -654c0 -597 -538 -962 -1182 -962
c-469 0 -714 168 -714 503c0 488 557 807 951 807c59 0 75 -27 75 -48c0 -38 -48 -70 -120 -135zM1938 1818c-100 -110 -215 -153 -315 -153c-165 0 -283 102 -405 102c-59 0 -181 -62 -242 -62c-41 0 -69 17 -69 49c0 37 43 83 75 118c100 109 214 152 314 152
c166 0 284 -101 406 -101c59 0 181 62 242 62c38 0 69 -17 69 -49c0 -36 -43 -84 -75 -118z" />
    <glyph glyph-name="Ocircumflex" unicode="&#xd4;" horiz-adv-x="2048" 
d="M1041 1087c-140 -113 -299 -381 -299 -693c0 -159 48 -259 169 -259c232 0 512 405 512 837c0 293 -95 406 -340 406c-299 0 -604 -141 -641 -141c-19 0 -37 6 -37 30c0 80 453 309 869 309c540 0 757 -287 757 -654c0 -597 -538 -962 -1182 -962
c-469 0 -714 168 -714 503c0 488 557 807 951 807c59 0 75 -27 75 -48c0 -38 -48 -70 -120 -135zM1637 1991c157 -155 266 -274 266 -329c0 -31 -25 -42 -51 -42c-23 0 -59 6 -93 20c-152 61 -183 75 -307 142c-149 -57 -179 -68 -366 -132c-41 -14 -78 -23 -104 -23
c-25 0 -48 15 -48 45c0 60 177 185 416 335c52 33 80 42 153 42c67 0 102 -26 134 -58z" />
    <glyph glyph-name="Oacute" unicode="&#xd3;" horiz-adv-x="2048" 
d="M1041 1087c-140 -113 -299 -381 -299 -693c0 -159 48 -259 169 -259c232 0 512 405 512 837c0 293 -95 406 -340 406c-299 0 -604 -141 -641 -141c-19 0 -37 6 -37 30c0 80 453 309 869 309c540 0 757 -287 757 -654c0 -597 -538 -962 -1182 -962
c-469 0 -714 168 -714 503c0 488 557 807 951 807c59 0 75 -27 75 -48c0 -38 -48 -70 -120 -135zM1644 2013c66 25 124 37 166 37c127 0 224 -79 224 -164c0 -43 -26 -102 -113 -114c-140 -19 -444 -55 -650 -118c-26 -8 -47 -13 -73 -13c-22 0 -35 14 -35 39
c0 75 221 235 481 333z" />
    <glyph glyph-name="Ograve" unicode="&#xd2;" horiz-adv-x="2048" 
d="M1041 1087c-140 -113 -299 -381 -299 -693c0 -159 48 -259 169 -259c232 0 512 405 512 837c0 293 -95 406 -340 406c-299 0 -604 -141 -641 -141c-19 0 -37 6 -37 30c0 80 453 309 869 309c540 0 757 -287 757 -654c0 -597 -538 -962 -1182 -962
c-469 0 -714 168 -714 503c0 488 557 807 951 807c59 0 75 -27 75 -48c0 -38 -48 -70 -120 -135zM1122 2050c264 0 592 -301 592 -376c0 -23 -16 -38 -43 -38c-37 0 -67 9 -123 26c-184 56 -287 74 -483 93c-74 7 -133 61 -133 143c0 98 85 152 190 152z" />
    <glyph glyph-name="Rcommaaccent" unicode="&#x156;" horiz-adv-x="2218" 
d="M1126 1079c-38 -63 -92 -201 -148 -358c332 39 531 159 531 388c0 224 -239 250 -426 250c-460 0 -676 -157 -738 -157c-31 0 -53 13 -53 35c0 27 24 59 57 80c244 157 551 259 1092 259c286 0 692 -88 692 -408c0 -279 -280 -392 -680 -454c260 0 428 -93 428 -260
c0 -50 -18 -116 -18 -178c0 -140 208 -42 208 -146c0 -91 -263 -170 -567 -170c-240 0 -355 85 -355 223c0 101 66 214 66 288c0 71 -49 153 -222 153c-15 0 -33 -1 -49 -1c-49 -143 -96 -293 -131 -410c-63 -212 -169 -233 -386 -233c-261 0 -506 103 -506 183
c0 32 33 50 65 50c120 0 162 24 227 157c121 245 202 686 451 806c96 46 270 67 386 67c62 0 123 -5 123 -52c0 -29 -8 -43 -47 -112zM965 -404c-34 -9 -75 -11 -126 -11c-163 0 -267 38 -267 124c0 101 173 182 417 182c114 0 273 -38 273 -188c0 -210 -270 -303 -561 -303
c-49 0 -85 10 -85 39c0 36 33 52 73 63c111 30 187 39 276 94z" />
    <glyph glyph-name="Eth" unicode="&#xd0;" horiz-adv-x="2046" 
d="M191 755c40 2 80 3 121 3c64 0 149 -1 214 -1c213 0 422 34 643 49c24 0 39 -26 39 -76c0 -119 -68 -132 -145 -132c-80 0 -169 2 -261 2c-191 0 -478 -48 -650 -48c-25 0 -49 18 -49 77c0 76 45 124 88 126zM1041 1360c-372 0 -729 -158 -786 -158c-33 0 -55 12 -55 37
c0 27 27 58 60 80c265 177 605 257 946 257c625 0 826 -321 826 -721c0 -422 -316 -895 -892 -895c-140 0 -289 13 -416 84c-60 -59 -141 -64 -280 -64c-259 0 -523 101 -523 181c0 33 35 52 67 52c120 0 156 24 231 157c129 229 196 696 452 816c98 46 263 67 379 67
c60 0 120 -6 120 -50c0 -24 -9 -53 -53 -124c-86 -132 -205 -597 -304 -875l-17 -44c21 -2 43 -3 68 -3c455 0 598 487 598 832c0 250 -135 371 -421 371z" />
    <glyph glyph-name="Dcroat" unicode="&#x110;" horiz-adv-x="2046" 
d="M191 755c40 2 80 3 121 3c64 0 149 -1 214 -1c213 0 422 34 643 49c24 0 39 -26 39 -76c0 -119 -68 -132 -145 -132c-80 0 -169 2 -261 2c-191 0 -478 -48 -650 -48c-25 0 -49 18 -49 77c0 76 45 124 88 126zM1041 1360c-372 0 -729 -158 -786 -158c-33 0 -55 12 -55 37
c0 27 27 58 60 80c265 177 605 257 946 257c625 0 826 -321 826 -721c0 -422 -316 -895 -892 -895c-140 0 -289 13 -416 84c-60 -59 -141 -64 -280 -64c-259 0 -523 101 -523 181c0 33 35 52 67 52c120 0 156 24 231 157c129 229 196 696 452 816c98 46 263 67 379 67
c60 0 120 -6 120 -50c0 -24 -9 -53 -53 -124c-86 -132 -205 -597 -304 -875l-17 -44c21 -2 43 -3 68 -3c455 0 598 487 598 832c0 250 -135 371 -421 371z" />
    <glyph glyph-name="lacute" unicode="&#x13a;" horiz-adv-x="1023" 
d="M1168 192c-73 -52 -426 -232 -761 -232c-205 0 -341 33 -341 180c0 141 370 952 370 1245c0 13 -1 25 -1 38c0 30 31 50 97 50c112 0 371 11 490 11c38 0 52 -28 52 -50c0 -175 -383 -1042 -383 -1196c0 -45 14 -74 68 -74c95 0 253 59 369 110c18 8 44 11 58 11
c16 0 31 -11 31 -32c0 -18 -7 -31 -49 -61zM884 2013c66 25 124 37 166 37c127 0 224 -79 224 -164c0 -43 -26 -102 -113 -114c-140 -19 -444 -55 -650 -118c-26 -8 -47 -13 -73 -13c-22 0 -35 14 -35 39c0 75 221 235 481 333z" />
    <glyph glyph-name="Lslash" unicode="&#x141;" 
d="M139 701c100 17 456 49 582 70c139 23 557 120 664 137c25 0 48 -29 48 -94s-35 -107 -75 -114c-120 -20 -523 -73 -674 -98c-143 -24 -448 -89 -562 -108c-25 0 -59 17 -59 92c0 65 37 109 76 115zM473 1122c136 404 266 434 702 434c149 0 266 -7 266 -68
c0 -27 -29 -52 -77 -81c-202 -123 -301 -542 -438 -936c-58 -166 -137 -288 -257 -340c511 27 720 260 992 545c21 22 43 27 72 27c35 0 74 -24 74 -65c0 -80 -33 -221 -74 -353c-63 -202 -134 -305 -370 -305c-262 0 -629 12 -853 12c-147 0 -279 -10 -399 -10
c-65 0 -99 25 -99 68c0 71 103 86 162 168c138 190 188 597 299 904z" />
    <glyph glyph-name="Ldot" unicode="&#x13f;" 
d="M473 1122c136 404 266 434 702 434c149 0 266 -7 266 -68c0 -27 -29 -52 -77 -81c-202 -123 -301 -542 -438 -936c-58 -166 -137 -288 -257 -340c511 27 720 260 992 545c21 22 43 27 72 27c35 0 74 -24 74 -65c0 -80 -33 -221 -74 -353c-63 -202 -134 -305 -370 -305
c-262 0 -629 12 -853 12c-147 0 -279 -10 -399 -10c-65 0 -99 25 -99 68c0 71 103 86 162 168c138 190 188 597 299 904zM1708 838c-140 0 -239 75 -239 174c0 137 178 249 357 249c142 0 238 -78 238 -178c0 -133 -175 -245 -356 -245z" />
    <glyph glyph-name="uni1E1E" unicode="&#x1e1e;" 
d="M1160 1019c-41 -85 -77 -184 -110 -290c93 49 262 114 418 114c73 0 144 -18 144 -66c0 -59 -87 -248 -135 -318c-14 -21 -36 -37 -63 -37c-74 0 -205 160 -404 172c-35 -125 -70 -255 -107 -381c-64 -215 -219 -233 -436 -233c-261 0 -506 103 -506 183
c4 32 33 50 65 50c120 0 162 24 227 157c121 245 167 635 415 755c113 54 269 58 383 58c76 0 156 -7 156 -52c0 -29 -24 -60 -47 -112zM1773 1051c-188 165 -485 284 -774 284c-154 0 -433 -43 -609 -122c-33 -15 -64 -22 -75 -22c-16 0 -33 6 -33 31
c0 105 495 354 1120 354c272 0 690 -24 690 -132c-6 -81 -140 -392 -212 -414c-14 -4 -27 -6 -39 -6c-29 0 -51 13 -68 27zM1337 1661c-145 0 -250 60 -250 167c0 129 195 216 368 216c146 0 248 -62 248 -168c0 -128 -190 -215 -366 -215z" />
    <glyph glyph-name="Amacron" unicode="&#x100;" horiz-adv-x="1880" 
d="M1183 -40c-212 0 -333 70 -333 221c0 205 318 796 318 1027c0 115 -95 151 -232 151c-205 0 -297 -40 -382 -40c-25 0 -39 10 -39 30c0 54 322 227 738 227c333 0 515 -109 515 -395c0 -290 -175 -720 -175 -895c0 -67 25 -99 107 -105c48 -4 92 8 92 -35
c0 -29 -13 -55 -42 -75c-56 -39 -206 -111 -567 -111zM1021 1161c-108 -79 -296 -270 -434 -477h14c81 0 162 6 256 6c23 0 70 -2 70 -41c0 -25 -19 -39 -33 -46c-85 -43 -244 -66 -400 -75c-50 -99 -81 -196 -81 -281c0 -31 4 -67 12 -93c9 -29 16 -52 16 -72
c0 -76 -107 -90 -272 -90c-167 0 -203 30 -203 107c0 468 873 1146 1054 1146c27 0 43 -6 43 -25c0 -15 -12 -36 -42 -59zM1009 1949c102 0 288 -20 416 -20c141 0 295 20 403 20c23 0 35 -45 35 -88c0 -84 -48 -153 -95 -153c-122 0 -254 20 -407 20
c-145 0 -287 -20 -402 -20c-24 0 -45 40 -45 91c0 81 50 150 95 150z" />
    <glyph glyph-name="Abreve" unicode="&#x102;" horiz-adv-x="1880" 
d="M1183 -40c-212 0 -333 70 -333 221c0 205 318 796 318 1027c0 115 -95 151 -232 151c-205 0 -297 -40 -382 -40c-25 0 -39 10 -39 30c0 54 322 227 738 227c333 0 515 -109 515 -395c0 -290 -175 -720 -175 -895c0 -67 25 -99 107 -105c48 -4 92 8 92 -35
c0 -29 -13 -55 -42 -75c-56 -39 -206 -111 -567 -111zM1021 1161c-108 -79 -296 -270 -434 -477h14c81 0 162 6 256 6c23 0 70 -2 70 -41c0 -25 -19 -39 -33 -46c-85 -43 -244 -66 -400 -75c-50 -99 -81 -196 -81 -281c0 -31 4 -67 12 -93c9 -29 16 -52 16 -72
c0 -76 -107 -90 -272 -90c-167 0 -203 30 -203 107c0 468 873 1146 1054 1146c27 0 43 -6 43 -25c0 -15 -12 -36 -42 -59zM1493 1911c298 0 372 135 454 135c32 0 50 -13 50 -41c0 -52 -44 -103 -98 -157c-109 -109 -261 -203 -451 -203c-231 0 -347 106 -422 222
c-19 29 -38 66 -38 111c0 46 30 67 69 67c81 0 207 -134 436 -134z" />
    <glyph glyph-name="Cacute" unicode="&#x106;" 
d="M1373 1453c-240 0 -602 -461 -602 -853c0 -219 112 -392 388 -392c278 0 403 85 493 85c34 0 58 -8 58 -33c0 -133 -447 -300 -809 -300c-471 0 -786 233 -786 596c0 585 697 1020 1242 1020c372 0 564 -180 564 -381c0 -222 -136 -445 -417 -445c-75 0 -207 28 -207 122
c0 58 211 411 211 504c0 66 -64 77 -135 77zM1590 2013c66 25 124 37 166 37c127 0 224 -79 224 -164c0 -43 -26 -102 -113 -114c-140 -19 -444 -55 -650 -118c-26 -8 -47 -13 -73 -13c-22 0 -35 14 -35 39c0 75 221 235 481 333z" />
    <glyph glyph-name="Ccircumflex" unicode="&#x108;" 
d="M1373 1453c-240 0 -602 -461 -602 -853c0 -219 112 -392 388 -392c278 0 403 85 493 85c34 0 58 -8 58 -33c0 -133 -447 -300 -809 -300c-471 0 -786 233 -786 596c0 585 697 1020 1242 1020c372 0 564 -180 564 -381c0 -222 -136 -445 -417 -445c-75 0 -207 28 -207 122
c0 58 211 411 211 504c0 66 -64 77 -135 77zM1583 1991c157 -155 266 -274 266 -329c0 -31 -25 -42 -51 -42c-23 0 -59 6 -93 20c-152 61 -183 75 -307 142c-149 -57 -179 -68 -366 -132c-41 -14 -78 -23 -104 -23c-25 0 -48 15 -48 45c0 60 177 185 416 335
c52 33 80 42 153 42c67 0 102 -26 134 -58z" />
    <glyph glyph-name="Ccaron" unicode="&#x10c;" 
d="M1373 1453c-240 0 -602 -461 -602 -853c0 -219 112 -392 388 -392c278 0 403 85 493 85c34 0 58 -8 58 -33c0 -133 -447 -300 -809 -300c-471 0 -786 233 -786 596c0 585 697 1020 1242 1020c372 0 564 -180 564 -381c0 -222 -136 -445 -417 -445c-75 0 -207 28 -207 122
c0 58 211 411 211 504c0 66 -64 77 -135 77zM1276 1678c-157 156 -266 274 -266 329c0 31 25 42 51 42c23 0 59 -6 93 -20c152 -61 183 -75 307 -142c149 57 179 68 366 132c41 14 78 23 104 23c25 0 48 -15 48 -45c0 -60 -177 -185 -416 -335c-52 -33 -80 -42 -153 -42
c-67 0 -102 26 -134 58z" />
    <glyph glyph-name="Cdotaccent" unicode="&#x10a;" 
d="M1373 1453c-240 0 -602 -461 -602 -853c0 -219 112 -392 388 -392c278 0 403 85 493 85c34 0 58 -8 58 -33c0 -133 -447 -300 -809 -300c-471 0 -786 233 -786 596c0 585 697 1020 1242 1020c372 0 564 -180 564 -381c0 -222 -136 -445 -417 -445c-75 0 -207 28 -207 122
c0 58 211 411 211 504c0 66 -64 77 -135 77zM1277 1661c-145 0 -250 60 -250 167c0 129 195 216 368 216c146 0 248 -62 248 -168c0 -128 -190 -215 -366 -215z" />
    <glyph glyph-name="Ecaron" unicode="&#x11a;" 
d="M1753 238c0 -147 -507 -278 -884 -278c-456 0 -809 115 -809 397c0 342 544 466 995 467c-228 12 -677 57 -677 305c0 290 447 447 885 447c217 0 501 -19 644 -105c20 -12 38 -29 38 -61c0 -75 -124 -249 -181 -302c-18 -18 -35 -31 -68 -31c-45 0 -84 42 -104 87
c-70 158 -183 245 -336 245c-174 0 -313 -106 -313 -249c0 -130 156 -247 359 -247c27 0 56 6 84 6s38 -16 38 -56c0 -87 -69 -145 -116 -148c-169 -12 -502 -63 -502 -276c0 -193 210 -254 364 -254c164 0 350 41 514 86c11 3 22 5 31 5c24 0 38 -13 38 -38zM1236 1678
c-157 156 -266 274 -266 329c0 31 25 42 51 42c23 0 59 -6 93 -20c152 -61 183 -75 307 -142c149 57 179 68 366 132c41 14 78 23 104 23c25 0 48 -15 48 -45c0 -60 -177 -185 -416 -335c-52 -33 -80 -42 -153 -42c-67 0 -102 26 -134 58z" />
    <glyph glyph-name="Emacron" unicode="&#x112;" 
d="M1753 238c0 -147 -507 -278 -884 -278c-456 0 -809 115 -809 397c0 342 544 466 995 467c-228 12 -677 57 -677 305c0 290 447 447 885 447c217 0 501 -19 644 -105c20 -12 38 -29 38 -61c0 -75 -124 -249 -181 -302c-18 -18 -35 -31 -68 -31c-45 0 -84 42 -104 87
c-70 158 -183 245 -336 245c-174 0 -313 -106 -313 -249c0 -130 156 -247 359 -247c27 0 56 6 84 6s38 -16 38 -56c0 -87 -69 -145 -116 -148c-169 -12 -502 -63 -502 -276c0 -193 210 -254 364 -254c164 0 350 41 514 86c11 3 22 5 31 5c24 0 38 -13 38 -38zM948 1949
c102 0 288 -20 416 -20c141 0 295 20 403 20c23 0 35 -45 35 -88c0 -84 -48 -153 -95 -153c-122 0 -254 20 -407 20c-145 0 -287 -20 -402 -20c-24 0 -45 40 -45 91c0 81 50 150 95 150z" />
    <glyph glyph-name="Ebreve" unicode="&#x114;" 
d="M1753 238c0 -147 -507 -278 -884 -278c-456 0 -809 115 -809 397c0 342 544 466 995 467c-228 12 -677 57 -677 305c0 290 447 447 885 447c217 0 501 -19 644 -105c20 -12 38 -29 38 -61c0 -75 -124 -249 -181 -302c-18 -18 -35 -31 -68 -31c-45 0 -84 42 -104 87
c-70 158 -183 245 -336 245c-174 0 -313 -106 -313 -249c0 -130 156 -247 359 -247c27 0 56 6 84 6s38 -16 38 -56c0 -87 -69 -145 -116 -148c-169 -12 -502 -63 -502 -276c0 -193 210 -254 364 -254c164 0 350 41 514 86c11 3 22 5 31 5c24 0 38 -13 38 -38zM1432 1911
c298 0 372 135 454 135c32 0 50 -13 50 -41c0 -52 -44 -103 -98 -157c-109 -109 -261 -203 -451 -203c-231 0 -347 106 -422 222c-19 29 -38 66 -38 111c0 46 30 67 69 67c81 0 207 -134 436 -134z" />
    <glyph glyph-name="Edotaccent" unicode="&#x116;" 
d="M1753 238c0 -147 -507 -278 -884 -278c-456 0 -809 115 -809 397c0 342 544 466 995 467c-228 12 -677 57 -677 305c0 290 447 447 885 447c217 0 501 -19 644 -105c20 -12 38 -29 38 -61c0 -75 -124 -249 -181 -302c-18 -18 -35 -31 -68 -31c-45 0 -84 42 -104 87
c-70 158 -183 245 -336 245c-174 0 -313 -106 -313 -249c0 -130 156 -247 359 -247c27 0 56 6 84 6s38 -16 38 -56c0 -87 -69 -145 -116 -148c-169 -12 -502 -63 -502 -276c0 -193 210 -254 364 -254c164 0 350 41 514 86c11 3 22 5 31 5c24 0 38 -13 38 -38zM1237 1661
c-145 0 -250 60 -250 167c0 129 195 216 368 216c146 0 248 -62 248 -168c0 -128 -190 -215 -366 -215z" />
    <glyph glyph-name="Gcircumflex" unicode="&#x11c;" horiz-adv-x="2046" 
d="M1401 1438c-290 0 -612 -412 -612 -822c0 -273 111 -474 373 -474c8 0 16 0 24 1c56 144 105 316 105 346c0 76 -180 52 -180 122c0 76 205 116 549 116c183 0 266 -23 266 -79c0 -24 -10 -48 -26 -79c-90 -180 -169 -565 -240 -673c-76 -116 -221 -182 -509 -182
c-151 0 -250 23 -250 63c0 68 135 95 204 196c11 17 23 38 35 62c-86 -22 -195 -35 -315 -35c-504 0 -690 226 -690 541c0 592 733 1035 1294 1035c430 0 601 -135 601 -338c0 -110 -97 -266 -378 -266c-75 0 -207 28 -207 122c0 37 112 214 112 279c0 49 -91 65 -156 65z
M1678 1991c157 -155 266 -274 266 -329c0 -31 -25 -42 -51 -42c-23 0 -59 6 -93 20c-152 61 -183 75 -307 142c-149 -57 -179 -68 -366 -132c-41 -14 -78 -23 -104 -23c-25 0 -48 15 -48 45c0 60 177 185 416 335c52 33 80 42 153 42c67 0 102 -26 134 -58z" />
    <glyph glyph-name="Gbreve" unicode="&#x11e;" horiz-adv-x="2046" 
d="M1401 1438c-290 0 -612 -412 -612 -822c0 -273 111 -474 373 -474c8 0 16 0 24 1c56 144 105 316 105 346c0 76 -180 52 -180 122c0 76 205 116 549 116c183 0 266 -23 266 -79c0 -24 -10 -48 -26 -79c-90 -180 -169 -565 -240 -673c-76 -116 -221 -182 -509 -182
c-151 0 -250 23 -250 63c0 68 135 95 204 196c11 17 23 38 35 62c-86 -22 -195 -35 -315 -35c-504 0 -690 226 -690 541c0 592 733 1035 1294 1035c430 0 601 -135 601 -338c0 -110 -97 -266 -378 -266c-75 0 -207 28 -207 122c0 37 112 214 112 279c0 49 -91 65 -156 65z
M1567 1911c298 0 372 135 454 135c32 0 50 -13 50 -41c0 -52 -44 -103 -98 -157c-109 -109 -261 -203 -451 -203c-231 0 -347 106 -422 222c-19 29 -38 66 -38 111c0 46 30 67 69 67c81 0 207 -134 436 -134z" />
    <glyph glyph-name="Gcommaaccent" unicode="&#x122;" horiz-adv-x="2046" 
d="M1401 1438c-290 0 -612 -412 -612 -822c0 -273 111 -452 373 -452h12c58 99 118 264 118 332c0 66 -181 47 -181 115c0 76 205 116 549 116c183 0 266 -23 266 -79c0 -24 -10 -48 -26 -79c-90 -180 -82 -257 -153 -365c-131 -199 -610 -204 -901 -204h-21
c-504 0 -690 226 -690 541c0 592 733 1035 1294 1035c430 0 601 -135 601 -338c0 -110 -97 -266 -378 -266c-75 0 -207 28 -207 122c0 37 112 214 112 279c0 49 -91 65 -156 65zM896 -404c-34 -9 -75 -11 -126 -11c-163 0 -267 38 -267 124c0 101 173 182 417 182
c114 0 273 -38 273 -188c0 -210 -270 -303 -561 -303c-49 0 -85 10 -85 39c0 36 33 52 73 63c111 30 187 39 276 94z" />
    <glyph glyph-name="Gdotaccent" unicode="&#x120;" horiz-adv-x="2046" 
d="M1401 1438c-290 0 -612 -412 -612 -822c0 -273 111 -474 373 -474c8 0 16 0 24 1c56 144 105 316 105 346c0 76 -180 52 -180 122c0 76 205 116 549 116c183 0 266 -23 266 -79c0 -24 -10 -48 -26 -79c-90 -180 -169 -565 -240 -673c-76 -116 -221 -182 -509 -182
c-151 0 -250 23 -250 63c0 68 135 95 204 196c11 17 23 38 35 62c-86 -22 -195 -35 -315 -35c-504 0 -690 226 -690 541c0 592 733 1035 1294 1035c430 0 601 -135 601 -338c0 -110 -97 -266 -378 -266c-75 0 -207 28 -207 122c0 37 112 214 112 279c0 49 -91 65 -156 65z
M1452 1661c-145 0 -250 60 -250 167c0 129 195 216 368 216c146 0 248 -62 248 -168c0 -128 -190 -215 -366 -215z" />
    <glyph glyph-name="Hcircumflex" unicode="&#x124;" horiz-adv-x="2046" 
d="M904 1556c173 0 247 -40 247 -220c0 -138 -87 -363 -178 -587c54 1 105 5 174 5c23 0 70 -2 70 -41c0 -25 -19 -39 -33 -46c-63 -32 -163 -53 -271 -66c-78 -194 -145 -373 -145 -480c0 -20 3 -42 3 -66c0 -45 -63 -67 -105 -67c-116 0 -254 -6 -401 -6
c-72 0 -146 4 -146 86c0 29 3 64 9 91c62 261 359 818 359 976c0 73 -20 92 -53 92c-35 0 -81 -24 -118 -24c-25 0 -44 4 -44 31c0 38 44 81 82 112c133 109 381 210 550 210zM2082 1445c0 -357 -341 -908 -341 -1327c0 -20 4 -40 4 -63c0 -45 -63 -67 -105 -67
c-116 0 -224 -6 -371 -6c-72 0 -146 4 -146 86c0 220 288 912 337 1216c8 53 8 101 8 136c0 73 41 90 134 90c190 0 287 18 401 18c53 0 79 -37 79 -83zM1573 1991c157 -155 266 -274 266 -329c0 -31 -25 -42 -51 -42c-23 0 -59 6 -93 20c-152 61 -183 75 -307 142
c-149 -57 -179 -68 -366 -132c-41 -14 -78 -23 -104 -23c-25 0 -48 15 -48 45c0 60 177 185 416 335c52 33 80 42 153 42c67 0 102 -26 134 -58z" />
    <glyph glyph-name="Imacron" unicode="&#x12a;" horiz-adv-x="1366" 
d="M375 359c19 40 53 128 91 235c-130 80 -243 205 -243 388c0 367 480 554 853 554c209 0 254 -97 254 -215c0 -197 -175 -596 -321 -1051c-67 -209 -207 -290 -411 -290c-276 0 -526 71 -526 150c0 33 35 48 67 52c129 15 170 39 236 177zM648 1221c0 31 -20 54 -55 54
c-40 0 -162 -77 -162 -309c0 -101 34 -180 77 -249c71 211 140 442 140 504zM705 1949c102 0 288 -20 416 -20c141 0 295 20 403 20c23 0 35 -45 35 -88c0 -84 -48 -153 -95 -153c-122 0 -254 20 -407 20c-145 0 -287 -20 -402 -20c-24 0 -45 40 -45 91c0 81 50 150 95 150z
" />
    <glyph glyph-name="Ibreve" unicode="&#x12c;" horiz-adv-x="1366" 
d="M375 359c19 40 53 128 91 235c-130 80 -243 205 -243 388c0 367 480 554 853 554c209 0 254 -97 254 -215c0 -197 -175 -596 -321 -1051c-67 -209 -207 -290 -411 -290c-276 0 -526 71 -526 150c0 33 35 48 67 52c129 15 170 39 236 177zM648 1221c0 31 -20 54 -55 54
c-40 0 -162 -77 -162 -309c0 -101 34 -180 77 -249c71 211 140 442 140 504zM1189 1911c298 0 372 135 454 135c32 0 50 -13 50 -41c0 -52 -44 -103 -98 -157c-109 -109 -261 -203 -451 -203c-231 0 -347 106 -422 222c-19 29 -38 66 -38 111c0 46 30 67 69 67
c81 0 207 -134 436 -134z" />
    <glyph glyph-name="Idotaccent" unicode="&#x130;" horiz-adv-x="1366" 
d="M375 359c19 40 53 128 91 235c-130 80 -243 205 -243 388c0 367 480 554 853 554c209 0 254 -97 254 -215c0 -197 -175 -596 -321 -1051c-67 -209 -207 -290 -411 -290c-276 0 -526 71 -526 150c0 33 35 48 67 52c129 15 170 39 236 177zM648 1221c0 31 -20 54 -55 54
c-40 0 -162 -77 -162 -309c0 -101 34 -180 77 -249c71 211 140 442 140 504zM994 1661c-145 0 -250 60 -250 167c0 129 195 216 368 216c146 0 248 -62 248 -168c0 -128 -190 -215 -366 -215z" />
    <glyph glyph-name="Kcommaaccent" unicode="&#x136;" horiz-adv-x="2216" 
d="M934 1556c173 0 247 -40 247 -220c0 -290 -413 -960 -413 -1215c0 -20 3 -42 3 -66c0 -45 -63 -67 -105 -67c-216 0 -254 -6 -401 -6c-72 0 -146 4 -146 86c0 29 3 64 9 91c62 261 389 818 389 976c0 73 -20 92 -53 92c-35 0 -81 -24 -118 -24c-25 0 -44 4 -44 31
c0 38 47 87 82 112c140 100 381 210 550 210zM1544 -40c-167 0 -370 25 -370 206c0 144 77 313 77 396c0 180 -190 119 -190 174c0 34 31 56 63 68c342 122 452 309 521 625c14 66 47 87 95 87c78 0 303 23 408 23c31 0 45 -13 45 -42c0 -19 -30 -133 -68 -256
c-117 -375 -374 -469 -738 -514c27 2 53 2 78 2c215 0 394 -20 394 -188c0 -16 -2 -34 -5 -53c-9 -51 -13 -93 -13 -128c0 -144 71 -166 152 -166c48 0 82 -10 82 -50c0 -81 -142 -184 -531 -184zM967 -404c-34 -9 -75 -11 -126 -11c-163 0 -267 38 -267 124
c0 101 173 182 417 182c114 0 273 -38 273 -188c0 -210 -270 -303 -561 -303c-49 0 -85 10 -85 39c0 36 33 52 73 63c111 30 187 39 276 94z" />
    <glyph glyph-name="Lcommaaccent" unicode="&#x13b;" 
d="M473 1122c136 404 266 434 702 434c149 0 266 -7 266 -68c0 -27 -29 -52 -77 -81c-202 -123 -301 -542 -438 -936c-58 -166 -137 -288 -257 -340c511 27 720 260 992 545c21 22 43 27 72 27c35 0 74 -24 74 -65c0 -80 -33 -221 -74 -353c-63 -202 -134 -305 -370 -305
c-262 0 -629 12 -853 12c-147 0 -279 -10 -399 -10c-65 0 -99 25 -99 68c0 71 103 86 162 168c138 190 188 597 299 904zM874 -404c-34 -9 -75 -11 -126 -11c-163 0 -267 38 -267 124c0 101 173 182 417 182c114 0 273 -38 273 -188c0 -210 -270 -303 -561 -303
c-49 0 -85 10 -85 39c0 36 33 52 73 63c111 30 187 39 276 94z" />
    <glyph glyph-name="Ncommaaccent" unicode="&#x145;" horiz-adv-x="2218" 
d="M914 1556c173 0 247 -40 247 -220c0 -14 -2 -30 -3 -45c270 209 467 286 671 286c193 0 311 -84 311 -247c0 -244 -328 -779 -328 -979c0 -96 67 -142 143 -155c46 -8 101 -17 101 -59c0 -93 -228 -177 -536 -177c-198 0 -340 69 -340 223c0 300 306 757 306 964
c0 77 -79 96 -151 96c-78 0 -145 -32 -198 -62c-84 -329 -359 -844 -359 -1060c0 -20 3 -42 3 -66c0 -45 -63 -67 -105 -67c-216 0 -254 -6 -401 -6c-72 0 -146 4 -146 86c0 29 3 64 9 91c62 261 359 818 359 976c0 73 -20 92 -53 92c-35 0 -81 -24 -118 -24
c-25 0 -44 4 -44 31c0 38 41 79 82 112c134 108 381 210 550 210zM1015 -404c-34 -9 -75 -11 -126 -11c-163 0 -267 38 -267 124c0 101 173 182 417 182c114 0 273 -38 273 -188c0 -210 -270 -303 -561 -303c-49 0 -85 10 -85 39c0 36 33 52 73 63c111 30 187 39 276 94z
" />
    <glyph glyph-name="Omacron" unicode="&#x14c;" horiz-adv-x="2048" 
d="M1041 1087c-140 -113 -299 -381 -299 -693c0 -159 48 -259 169 -259c232 0 512 405 512 837c0 293 -95 406 -340 406c-299 0 -604 -141 -641 -141c-19 0 -37 6 -37 30c0 80 453 309 869 309c540 0 757 -287 757 -654c0 -597 -538 -962 -1182 -962
c-469 0 -714 168 -714 503c0 488 557 807 951 807c59 0 75 -27 75 -48c0 -38 -48 -70 -120 -135zM1042 1949c102 0 288 -20 416 -20c141 0 295 20 403 20c23 0 35 -45 35 -88c0 -84 -48 -153 -95 -153c-122 0 -254 20 -407 20c-145 0 -287 -20 -402 -20c-24 0 -45 40 -45 91
c0 81 50 150 95 150z" />
    <glyph glyph-name="Obreve" unicode="&#x14e;" horiz-adv-x="2048" 
d="M1041 1087c-140 -113 -299 -381 -299 -693c0 -159 48 -259 169 -259c232 0 512 405 512 837c0 293 -95 406 -340 406c-299 0 -604 -141 -641 -141c-19 0 -37 6 -37 30c0 80 453 309 869 309c540 0 757 -287 757 -654c0 -597 -538 -962 -1182 -962
c-469 0 -714 168 -714 503c0 488 557 807 951 807c59 0 75 -27 75 -48c0 -38 -48 -70 -120 -135zM1526 1911c298 0 372 135 454 135c32 0 50 -13 50 -41c0 -52 -44 -103 -98 -157c-109 -109 -261 -203 -451 -203c-231 0 -347 106 -422 222c-19 29 -38 66 -38 111
c0 46 30 67 69 67c81 0 207 -134 436 -134z" />
    <glyph glyph-name="Tcommaaccent" unicode="&#x162;" horiz-adv-x="1707" 
d="M789 -40c-272 0 -480 36 -480 271c0 233 239 558 424 745c159 160 275 167 384 167c70 0 111 -26 111 -78c0 -18 -5 -38 -15 -62c-68 -141 -143 -381 -143 -563c0 -130 44 -224 169 -224c73 0 138 19 202 19c55 0 89 -14 89 -50s-23 -59 -58 -80
c-205 -123 -429 -145 -683 -145zM375 1515c24 9 77 9 145 9c180 0 562 -16 676 -16c88 0 508 60 545 60c82 0 129 -25 129 -88c0 -73 -100 -358 -183 -358c-65 0 -284 149 -493 149c-182 0 -493 -34 -679 -111c-163 -67 -253 -121 -291 -121c-25 0 -51 14 -51 59
c0 68 79 384 202 417zM819 -404c-34 -9 -75 -11 -126 -11c-163 0 -267 38 -267 124c0 101 173 182 417 182c114 0 273 -38 273 -188c0 -210 -270 -303 -561 -303c-49 0 -85 10 -85 39c0 36 33 52 73 63c111 30 187 39 276 94z" />
    <glyph glyph-name="Utilde" unicode="&#x168;" horiz-adv-x="2223" 
d="M1166 191c0 10 0 20 1 31c-123 -136 -352 -262 -554 -262c-204 0 -397 80 -397 367c0 306 232 648 303 838c3 9 4 20 4 28c0 51 -49 74 -122 86c-43 7 -68 30 -68 57c0 88 268 200 693 200c113 0 183 -36 183 -112c0 -68 -383 -718 -383 -1035c0 -99 55 -121 135 -121
c92 0 178 36 220 50c72 347 373 937 373 1097c0 83 61 112 148 112c105 0 264 -4 314 -4c69 0 146 -44 146 -117c0 -29 -10 -71 -25 -106c-159 -358 -310 -791 -310 -955c0 -175 225 -114 225 -192c0 -115 -412 -193 -602 -193c-200 0 -284 87 -284 231zM2000 1818
c-100 -110 -215 -153 -315 -153c-165 0 -283 102 -405 102c-59 0 -181 -62 -242 -62c-41 0 -69 17 -69 49c0 37 43 83 75 118c100 109 214 152 314 152c166 0 284 -101 406 -101c59 0 181 62 242 62c38 0 69 -17 69 -49c0 -36 -43 -84 -75 -118z" />
    <glyph glyph-name="Umacron" unicode="&#x16a;" horiz-adv-x="2223" 
d="M1166 191c0 10 0 20 1 31c-123 -136 -352 -262 -554 -262c-204 0 -397 80 -397 367c0 306 232 648 303 838c3 9 4 20 4 28c0 51 -49 74 -122 86c-43 7 -68 30 -68 57c0 88 268 200 693 200c113 0 183 -36 183 -112c0 -68 -383 -718 -383 -1035c0 -99 55 -121 135 -121
c92 0 178 36 220 50c72 347 373 937 373 1097c0 83 61 112 148 112c105 0 264 -4 314 -4c69 0 146 -44 146 -117c0 -29 -10 -71 -25 -106c-159 -358 -310 -791 -310 -955c0 -175 225 -114 225 -192c0 -115 -412 -193 -602 -193c-200 0 -284 87 -284 231zM1104 1949
c102 0 288 -20 416 -20c141 0 295 20 403 20c23 0 35 -45 35 -88c0 -84 -48 -153 -95 -153c-122 0 -254 20 -407 20c-145 0 -287 -20 -402 -20c-24 0 -45 40 -45 91c0 81 50 150 95 150z" />
    <glyph glyph-name="Ubreve" unicode="&#x16c;" horiz-adv-x="2223" 
d="M1166 191c0 10 0 20 1 31c-123 -136 -352 -262 -554 -262c-204 0 -397 80 -397 367c0 306 232 648 303 838c3 9 4 20 4 28c0 51 -49 74 -122 86c-43 7 -68 30 -68 57c0 88 268 200 693 200c113 0 183 -36 183 -112c0 -68 -383 -718 -383 -1035c0 -99 55 -121 135 -121
c92 0 178 36 220 50c72 347 373 937 373 1097c0 83 61 112 148 112c105 0 264 -4 314 -4c69 0 146 -44 146 -117c0 -29 -10 -71 -25 -106c-159 -358 -310 -791 -310 -955c0 -175 225 -114 225 -192c0 -115 -412 -193 -602 -193c-200 0 -284 87 -284 231zM1588 1911
c298 0 372 135 454 135c32 0 50 -13 50 -41c0 -52 -44 -103 -98 -157c-109 -109 -261 -203 -451 -203c-231 0 -347 106 -422 222c-19 29 -38 66 -38 111c0 46 30 67 69 67c81 0 207 -134 436 -134z" />
    <glyph glyph-name="Uring" unicode="&#x16e;" horiz-adv-x="2223" 
d="M1166 191c0 10 0 20 1 31c-123 -136 -352 -262 -554 -262c-204 0 -397 80 -397 367c0 306 232 648 303 838c3 9 4 20 4 28c0 51 -49 74 -122 86c-43 7 -68 30 -68 57c0 88 268 200 693 200c113 0 183 -36 183 -112c0 -68 -383 -718 -383 -1035c0 -99 55 -121 135 -121
c92 0 178 36 220 50c72 347 373 937 373 1097c0 83 61 112 148 112c105 0 264 -4 314 -4c69 0 146 -44 146 -117c0 -29 -10 -71 -25 -106c-159 -358 -310 -791 -310 -955c0 -175 225 -114 225 -192c0 -115 -412 -193 -602 -193c-200 0 -284 87 -284 231zM1295 1765
c0 -76 75 -105 154 -105c98 0 206 37 206 135c0 72 -57 104 -136 104c-102 0 -224 -36 -224 -134zM1546 2040c232 0 359 -76 359 -214c0 -166 -199 -291 -497 -291c-220 0 -361 64 -361 207c0 175 194 298 499 298z" />
    <glyph glyph-name="Wgrave" unicode="&#x1e80;" horiz-adv-x="2899" 
d="M677 -50c-249 0 -477 364 -477 739c0 173 70 342 127 470c4 10 6 22 6 32c0 51 -79 64 -152 76c-43 7 -68 30 -68 57c0 81 341 212 723 212c151 0 272 -16 272 -92c0 -16 -5 -32 -16 -51c-253 -420 -318 -639 -318 -948c0 -89 28 -234 78 -234c151 0 563 607 695 1217
c4 21 13 59 71 67c36 0 377 11 423 11c24 0 34 -7 34 -23c-93 -434 -420 -837 -420 -1086c0 -83 4 -186 71 -186c151 0 570 469 795 1237c12 41 35 67 71 67s357 11 403 11c22 0 34 -6 34 -20c0 -72 -54 -239 -87 -321c-274 -681 -981 -1235 -1394 -1235
c-136 0 -215 113 -259 280c-218 -172 -442 -280 -612 -280zM1568 2050c264 0 592 -301 592 -376c0 -23 -16 -38 -43 -38c-37 0 -67 9 -123 26c-184 56 -287 74 -483 93c-74 7 -133 61 -133 143c0 98 85 152 190 152z" />
    <glyph glyph-name="Wacute" unicode="&#x1e82;" horiz-adv-x="2899" 
d="M677 -50c-249 0 -477 364 -477 739c0 173 70 342 127 470c4 10 6 22 6 32c0 51 -79 64 -152 76c-43 7 -68 30 -68 57c0 81 341 212 723 212c151 0 272 -16 272 -92c0 -16 -5 -32 -16 -51c-253 -420 -318 -639 -318 -948c0 -89 28 -234 78 -234c151 0 563 607 695 1217
c4 21 13 59 71 67c36 0 377 11 423 11c24 0 34 -7 34 -23c-93 -434 -420 -837 -420 -1086c0 -83 4 -186 71 -186c151 0 570 469 795 1237c12 41 35 67 71 67s357 11 403 11c22 0 34 -6 34 -20c0 -72 -54 -239 -87 -321c-274 -681 -981 -1235 -1394 -1235
c-136 0 -215 113 -259 280c-218 -172 -442 -280 -612 -280zM2090 2013c66 25 124 37 166 37c127 0 224 -79 224 -164c0 -43 -26 -102 -113 -114c-140 -19 -444 -55 -650 -118c-26 -8 -47 -13 -73 -13c-22 0 -35 14 -35 39c0 75 221 235 481 333z" />
    <glyph glyph-name="Wcircumflex" unicode="&#x174;" horiz-adv-x="2899" 
d="M677 -50c-249 0 -477 364 -477 739c0 173 70 342 127 470c4 10 6 22 6 32c0 51 -79 64 -152 76c-43 7 -68 30 -68 57c0 81 341 212 723 212c151 0 272 -16 272 -92c0 -16 -5 -32 -16 -51c-253 -420 -318 -639 -318 -948c0 -89 28 -234 78 -234c151 0 563 607 695 1217
c4 21 13 59 71 67c36 0 377 11 423 11c24 0 34 -7 34 -23c-93 -434 -420 -837 -420 -1086c0 -83 4 -186 71 -186c151 0 570 469 795 1237c12 41 35 67 71 67s357 11 403 11c22 0 34 -6 34 -20c0 -72 -54 -239 -87 -321c-274 -681 -981 -1235 -1394 -1235
c-136 0 -215 113 -259 280c-218 -172 -442 -280 -612 -280zM2083 1991c157 -155 266 -274 266 -329c0 -31 -25 -42 -51 -42c-23 0 -59 6 -93 20c-152 61 -183 75 -307 142c-149 -57 -179 -68 -366 -132c-41 -14 -78 -23 -104 -23c-25 0 -48 15 -48 45c0 60 177 185 416 335
c52 33 80 42 153 42c67 0 102 -26 134 -58z" />
    <glyph glyph-name="Wdieresis" unicode="&#x1e84;" horiz-adv-x="2899" 
d="M677 -50c-249 0 -477 364 -477 739c0 173 70 342 127 470c4 10 6 22 6 32c0 51 -79 64 -152 76c-43 7 -68 30 -68 57c0 81 341 212 723 212c151 0 272 -16 272 -92c0 -16 -5 -32 -16 -51c-253 -420 -318 -639 -318 -948c0 -89 28 -234 78 -234c151 0 563 607 695 1217
c4 21 13 59 71 67c36 0 377 11 423 11c24 0 34 -7 34 -23c-93 -434 -420 -837 -420 -1086c0 -83 4 -186 71 -186c151 0 570 469 795 1237c12 41 35 67 71 67s357 11 403 11c22 0 34 -6 34 -20c0 -72 -54 -239 -87 -321c-274 -681 -981 -1235 -1394 -1235
c-136 0 -215 113 -259 280c-218 -172 -442 -280 -612 -280zM1463 1641c-132 0 -236 60 -236 154c0 129 178 225 347 225c134 0 236 -64 236 -158c0 -127 -177 -221 -347 -221zM2203 1641c-132 0 -236 60 -236 154c0 129 178 225 347 225c134 0 236 -64 236 -158
c0 -127 -176 -221 -347 -221z" />
    <glyph glyph-name="Ygrave" unicode="&#x1ef2;" horiz-adv-x="2048" 
d="M852 -296c85 110 176 293 267 518c-125 -92 -321 -175 -520 -175c-194 0 -390 100 -390 340c0 245 244 692 270 778c3 9 4 20 4 28c0 51 -49 74 -122 86c-43 7 -68 30 -68 57c0 88 238 200 663 200c111 0 183 -35 183 -109c0 -140 -343 -769 -343 -990
c0 -100 77 -134 170 -134c62 0 137 15 199 35c124 328 244 728 341 1129c12 51 78 59 198 59c105 0 220 -3 270 -3c67 0 143 -36 143 -93c0 -27 -18 -48 -37 -94c-110 -259 -315 -1013 -395 -1215c-206 -524 -488 -631 -858 -631c-65 0 -99 20 -99 53c0 45 96 123 124 161z
M1080 2050c264 0 592 -301 592 -376c0 -23 -16 -38 -43 -38c-37 0 -67 9 -123 26c-184 56 -287 74 -483 93c-74 7 -133 61 -133 143c0 98 85 152 190 152z" />
    <glyph glyph-name="Ycircumflex" unicode="&#x176;" horiz-adv-x="2048" 
d="M852 -296c85 110 176 293 267 518c-125 -92 -321 -175 -520 -175c-194 0 -390 100 -390 340c0 245 244 692 270 778c3 9 4 20 4 28c0 51 -49 74 -122 86c-43 7 -68 30 -68 57c0 88 238 200 663 200c111 0 183 -35 183 -109c0 -140 -343 -769 -343 -990
c0 -100 77 -134 170 -134c62 0 137 15 199 35c124 328 244 728 341 1129c12 51 78 59 198 59c105 0 220 -3 270 -3c67 0 143 -36 143 -93c0 -27 -18 -48 -37 -94c-110 -259 -315 -1013 -395 -1215c-206 -524 -488 -631 -858 -631c-65 0 -99 20 -99 53c0 45 96 123 124 161z
M1595 1991c157 -155 266 -274 266 -329c0 -31 -25 -42 -51 -42c-23 0 -59 6 -93 20c-152 61 -183 75 -307 142c-149 -57 -179 -68 -366 -132c-41 -14 -78 -23 -104 -23c-25 0 -48 15 -48 45c0 60 177 185 416 335c52 33 80 42 153 42c67 0 102 -26 134 -58z" />
    <glyph glyph-name="Ydieresis" unicode="&#x178;" horiz-adv-x="2048" 
d="M852 -296c85 110 176 293 267 518c-125 -92 -321 -175 -520 -175c-194 0 -390 100 -390 340c0 245 244 692 270 778c3 9 4 20 4 28c0 51 -49 74 -122 86c-43 7 -68 30 -68 57c0 88 238 200 663 200c111 0 183 -35 183 -109c0 -140 -343 -769 -343 -990
c0 -100 77 -134 170 -134c62 0 137 15 199 35c124 328 244 728 341 1129c12 51 78 59 198 59c105 0 220 -3 270 -3c67 0 143 -36 143 -93c0 -27 -18 -48 -37 -94c-110 -259 -315 -1013 -395 -1215c-206 -524 -488 -631 -858 -631c-65 0 -99 20 -99 53c0 45 96 123 124 161z
M975 1641c-132 0 -236 60 -236 154c0 129 178 225 347 225c134 0 236 -64 236 -158c0 -127 -177 -221 -347 -221zM1715 1641c-132 0 -236 60 -236 154c0 129 178 225 347 225c134 0 236 -64 236 -158c0 -127 -176 -221 -347 -221z" />
    <glyph glyph-name="Zacute" unicode="&#x179;" 
d="M1697 456c-50 0 -390 -229 -870 -243c285 192 1038 796 1073 1043c0 10 1 10 1 10c0 140 -334 281 -445 281c-68 0 -111 -49 -146 -123c-156 -329 -1333 -1073 -1333 -1273c0 -38 23 -55 64 -74c102 -48 331 -115 437 -115c62 0 119 35 221 126
c199 -87 481 -128 629 -128c211 0 273 40 309 98c39 63 127 250 127 343c0 42 -30 55 -67 55zM1144 1402c0 86 -218 107 -400 107c-84 0 -168 -6 -237 -20c-123 -25 -204 -236 -204 -355c0 -49 11 -88 55 -88c108 0 246 158 654 251c67 15 132 41 132 105zM1472 2013
c66 25 124 37 166 37c127 0 224 -79 224 -164c0 -43 -26 -102 -113 -114c-140 -19 -444 -55 -650 -118c-26 -8 -47 -13 -73 -13c-22 0 -35 14 -35 39c0 75 221 235 481 333z" />
    <glyph glyph-name="Zcaron" unicode="&#x17d;" 
d="M1697 456c-50 0 -390 -229 -870 -243c285 192 1038 796 1073 1043c0 10 1 10 1 10c0 140 -334 281 -445 281c-68 0 -111 -49 -146 -123c-156 -329 -1333 -1073 -1333 -1273c0 -38 23 -55 64 -74c102 -48 331 -115 437 -115c62 0 119 35 221 126
c199 -87 481 -128 629 -128c211 0 273 40 309 98c39 63 127 250 127 343c0 42 -30 55 -67 55zM1144 1402c0 86 -218 107 -400 107c-84 0 -168 -6 -237 -20c-123 -25 -204 -236 -204 -355c0 -49 11 -88 55 -88c108 0 246 158 654 251c67 15 132 41 132 105zM1158 1678
c-157 156 -266 274 -266 329c0 31 25 42 51 42c23 0 59 -6 93 -20c152 -61 183 -75 307 -142c149 57 179 68 366 132c41 14 78 23 104 23c25 0 48 -15 48 -45c0 -60 -177 -185 -416 -335c-52 -33 -80 -42 -153 -42c-67 0 -102 26 -134 58z" />
    <glyph glyph-name="Zdotaccent" unicode="&#x17b;" 
d="M1697 456c-50 0 -390 -229 -870 -243c285 192 1038 796 1073 1043c0 10 1 10 1 10c0 140 -334 281 -445 281c-68 0 -111 -49 -146 -123c-156 -329 -1333 -1073 -1333 -1273c0 -38 23 -55 64 -74c102 -48 331 -115 437 -115c62 0 119 35 221 126
c199 -87 481 -128 629 -128c211 0 273 40 309 98c39 63 127 250 127 343c0 42 -30 55 -67 55zM1144 1402c0 86 -218 107 -400 107c-84 0 -168 -6 -237 -20c-123 -25 -204 -236 -204 -355c0 -49 11 -88 55 -88c108 0 246 158 654 251c67 15 132 41 132 105zM1159 1661
c-145 0 -250 60 -250 167c0 129 195 216 368 216c146 0 248 -62 248 -168c0 -128 -190 -215 -366 -215z" />
    <glyph glyph-name="uni1E02" unicode="&#x1e02;" horiz-adv-x="2046" 
d="M1121 1089c-31 -49 -66 -143 -102 -256c334 20 502 148 502 323c0 176 -205 213 -453 213c-474 0 -707 -182 -778 -182c-30 0 -52 11 -52 33c0 123 595 356 1122 356c500 0 707 -161 707 -389c0 -211 -232 -388 -646 -404c240 -3 531 -125 531 -360
c0 -346 -341 -463 -665 -463c-187 0 -389 41 -538 104c-74 -74 -179 -84 -328 -84c-260 0 -500 102 -500 182c0 32 34 51 66 51c120 0 163 24 232 157c129 248 199 695 452 816c96 46 263 67 379 67c61 0 121 -5 121 -50c0 -30 -8 -44 -50 -114zM1381 508
c0 146 -181 232 -390 237c-54 -177 -110 -381 -159 -532c-6 -16 -11 -31 -17 -45c24 -3 47 -4 69 -4c269 0 497 98 497 344zM1378 1661c-145 0 -250 60 -250 167c0 129 195 216 368 216c146 0 248 -62 248 -168c0 -128 -190 -215 -366 -215z" />
    <glyph glyph-name="uni1E6A" unicode="&#x1e6a;" horiz-adv-x="1707" 
d="M789 -40c-272 0 -480 36 -480 271c0 233 239 558 424 745c159 160 275 167 384 167c70 0 111 -26 111 -78c0 -18 -5 -38 -15 -62c-68 -141 -143 -381 -143 -563c0 -130 44 -224 169 -224c73 0 138 19 202 19c55 0 89 -14 89 -50s-23 -59 -58 -80
c-205 -123 -429 -145 -683 -145zM375 1515c24 9 77 9 145 9c180 0 562 -16 676 -16c88 0 508 60 545 60c82 0 129 -25 129 -88c0 -73 -100 -358 -183 -358c-65 0 -284 149 -493 149c-182 0 -493 -34 -679 -111c-163 -67 -253 -121 -291 -121c-25 0 -51 14 -51 59
c0 68 79 384 202 417zM1161 1661c-145 0 -250 60 -250 167c0 129 195 216 368 216c146 0 248 -62 248 -168c0 -128 -190 -215 -366 -215z" />
    <glyph glyph-name="Tcaron" unicode="&#x164;" horiz-adv-x="1707" 
d="M789 -40c-272 0 -480 36 -480 271c0 233 239 558 424 745c159 160 275 167 384 167c70 0 111 -26 111 -78c0 -18 -5 -38 -15 -62c-68 -141 -143 -381 -143 -563c0 -130 44 -224 169 -224c73 0 138 19 202 19c55 0 89 -14 89 -50s-23 -59 -58 -80
c-205 -123 -429 -145 -683 -145zM375 1515c24 9 77 9 145 9c180 0 562 -16 676 -16c88 0 508 60 545 60c82 0 129 -25 129 -88c0 -73 -100 -358 -183 -358c-65 0 -284 149 -493 149c-182 0 -493 -34 -679 -111c-163 -67 -253 -121 -291 -121c-25 0 -51 14 -51 59
c0 68 79 384 202 417zM1070 1678c-157 156 -266 274 -266 329c0 31 25 42 51 42c23 0 59 -6 93 -20c152 -61 183 -75 307 -142c149 57 179 68 366 132c41 14 78 23 104 23c25 0 48 -15 48 -45c0 -60 -177 -185 -416 -335c-52 -33 -80 -42 -153 -42c-67 0 -102 26 -134 58z
" />
    <glyph glyph-name="uni1E60" unicode="&#x1e60;" 
d="M879 -40c-324 0 -679 75 -761 118c-16 8 -25 21 -25 40c0 56 107 297 157 297c75 0 308 -265 587 -265c56 0 138 24 138 91c0 148 -618 384 -618 659c0 272 381 356 597 356c62 0 85 -23 85 -45c0 -32 -30 -65 -30 -104c0 -167 658 -407 658 -739
c0 -313 -373 -408 -788 -408zM1774 1057c-180 214 -451 309 -749 309c-272 0 -546 -74 -721 -145c-33 -13 -63 -19 -75 -19c-16 0 -33 14 -33 38c0 102 481 336 1057 336c235 0 525 -19 741 -138c11 -6 14 -25 14 -45c-6 -81 -132 -346 -207 -346c-9 10 -20 10 -27 10z
M1268 1661c-145 0 -250 60 -250 167c0 129 195 216 368 216c146 0 248 -62 248 -168c0 -128 -190 -215 -366 -215z" />
    <glyph glyph-name="uni1E56" unicode="&#x1e56;" horiz-adv-x="2046" 
d="M1141 1099c-54 -87 -129 -315 -200 -541c33 -2 66 -2 98 -2c260 0 475 194 475 493c0 232 -149 320 -385 320c-446 0 -675 -140 -763 -140c-25 0 -46 14 -46 36c0 30 36 56 72 76c143 77 520 235 1010 235c558 0 707 -233 707 -465c0 -492 -528 -701 -976 -701
c-101 0 -170 4 -233 17c-24 -77 -47 -150 -68 -214c-70 -212 -194 -233 -411 -233c-260 0 -500 102 -500 182c0 32 34 51 66 51c120 0 163 24 232 157c130 251 219 705 472 826c96 46 263 67 379 67c61 0 121 -5 121 -50c0 -30 -8 -44 -50 -114zM1395 1661
c-145 0 -250 60 -250 167c0 129 195 216 368 216c146 0 248 -62 248 -168c0 -128 -190 -215 -366 -215z" />
    <glyph glyph-name="uni1E40" unicode="&#x1e40;" horiz-adv-x="3073" 
d="M2085 1328v-9c217 169 409 258 592 258c197 0 318 -99 318 -259c0 -341 -328 -773 -328 -967c0 -96 67 -142 143 -155c52 -9 101 -18 101 -59c0 -93 -227 -177 -535 -177c-198 0 -300 69 -300 223c0 293 319 774 319 976c0 51 -28 94 -101 94c-75 0 -159 -35 -231 -72
c-80 -309 -347 -784 -365 -1116c-2 -43 -26 -77 -61 -77c-216 0 -259 -6 -406 -6c-70 0 -142 4 -142 80c0 29 7 68 14 97c96 401 375 871 375 1004c0 64 -48 91 -116 91c-95 0 -188 -47 -258 -86c-87 -329 -356 -832 -356 -1047c0 -20 3 -42 3 -66c0 -45 -63 -67 -105 -67
c-216 0 -224 -6 -371 -6c-72 0 -146 4 -146 86c0 29 3 64 9 91c62 264 359 816 359 976c0 73 -20 92 -53 92c-35 0 -81 -24 -118 -24c-25 0 -44 4 -44 31c0 38 38 74 82 112c130 112 381 210 550 210c173 0 217 -71 217 -220c0 -16 -2 -33 -4 -51c246 198 464 292 667 292
c193 0 291 -92 291 -249zM1768 1661c-145 0 -250 60 -250 167c0 129 195 216 368 216c146 0 248 -62 248 -168c0 -128 -190 -215 -366 -215z" />
    <glyph glyph-name="Scaron" unicode="&#x160;" 
d="M879 -40c-324 0 -679 75 -761 118c-16 8 -25 21 -25 40c0 56 107 297 157 297c75 0 308 -265 587 -265c56 0 138 24 138 91c0 148 -618 384 -618 659c0 272 381 356 597 356c62 0 85 -23 85 -45c0 -32 -30 -65 -30 -104c0 -167 658 -407 658 -739
c0 -313 -373 -408 -788 -408zM1774 1057c-180 214 -451 309 -749 309c-272 0 -546 -74 -721 -145c-33 -13 -63 -19 -75 -19c-16 0 -33 14 -33 38c0 102 481 336 1057 336c235 0 525 -19 741 -138c11 -6 14 -25 14 -45c-6 -81 -132 -346 -207 -346c-9 10 -20 10 -27 10z
M1177 1678c-157 156 -266 274 -266 329c0 31 25 42 51 42c23 0 59 -6 93 -20c152 -61 183 -75 307 -142c149 57 179 68 366 132c41 14 78 23 104 23c25 0 48 -15 48 -45c0 -60 -177 -185 -416 -335c-52 -33 -80 -42 -153 -42c-67 0 -102 26 -134 58z" />
    <glyph glyph-name="Scircumflex" unicode="&#x15c;" 
d="M879 -40c-324 0 -679 75 -761 118c-16 8 -25 21 -25 40c0 56 107 297 157 297c75 0 308 -265 587 -265c56 0 138 24 138 91c0 148 -618 384 -618 659c0 272 381 356 597 356c62 0 85 -23 85 -45c0 -32 -30 -65 -30 -104c0 -167 658 -407 658 -739
c0 -313 -373 -408 -788 -408zM1774 1057c-180 214 -451 309 -749 309c-272 0 -546 -74 -721 -145c-33 -13 -63 -19 -75 -19c-16 0 -33 14 -33 38c0 102 481 336 1057 336c235 0 525 -19 741 -138c11 -6 14 -25 14 -45c-6 -81 -132 -346 -207 -346c-9 10 -20 10 -27 10z
M1484 1991c157 -155 266 -274 266 -329c0 -31 -25 -42 -51 -42c-23 0 -59 6 -93 20c-152 61 -183 75 -307 142c-149 -57 -179 -68 -366 -132c-41 -14 -78 -23 -104 -23c-25 0 -48 15 -48 45c0 60 177 185 416 335c52 33 80 42 153 42c67 0 102 -26 134 -58z" />
    <glyph glyph-name="Sacute" unicode="&#x15a;" 
d="M879 -40c-324 0 -679 75 -761 118c-16 8 -25 21 -25 40c0 56 107 297 157 297c75 0 308 -265 587 -265c56 0 138 24 138 91c0 148 -618 384 -618 659c0 272 381 356 597 356c62 0 85 -23 85 -45c0 -32 -30 -65 -30 -104c0 -167 658 -407 658 -739
c0 -313 -373 -408 -788 -408zM1774 1057c-180 214 -451 309 -749 309c-272 0 -546 -74 -721 -145c-33 -13 -63 -19 -75 -19c-16 0 -33 14 -33 38c0 102 481 336 1057 336c235 0 525 -19 741 -138c11 -6 14 -25 14 -45c-6 -81 -132 -346 -207 -346c-9 10 -20 10 -27 10z
M1491 2013c66 25 124 37 166 37c127 0 224 -79 224 -164c0 -43 -26 -102 -113 -114c-140 -19 -444 -55 -650 -118c-26 -8 -47 -13 -73 -13c-22 0 -35 14 -35 39c0 75 221 235 481 333z" />
    <glyph glyph-name="Dcaron" unicode="&#x10e;" horiz-adv-x="2046" 
d="M1041 1360c-372 0 -729 -158 -786 -158c-33 0 -55 12 -55 37c0 27 27 58 60 80c265 177 605 257 946 257c625 0 826 -321 826 -721c0 -422 -316 -895 -892 -895c-140 0 -289 13 -416 84c-60 -59 -141 -64 -280 -64c-259 0 -523 101 -523 181c0 33 35 52 67 52
c120 0 156 24 231 157c129 229 196 696 452 816c98 46 263 67 379 67c60 0 120 -6 120 -50c0 -24 -9 -53 -53 -124c-86 -132 -205 -597 -304 -875l-17 -44c21 -2 43 -3 68 -3c455 0 598 487 598 832c0 250 -135 371 -421 371zM1165 1678c-157 156 -266 274 -266 329
c0 31 25 42 51 42c23 0 59 -6 93 -20c152 -61 183 -75 307 -142c149 57 179 68 366 132c41 14 78 23 104 23c25 0 48 -15 48 -45c0 -60 -177 -185 -416 -335c-52 -33 -80 -42 -153 -42c-67 0 -102 26 -134 58z" />
    <glyph glyph-name="uni1E0A" unicode="&#x1e0a;" horiz-adv-x="2046" 
d="M1041 1360c-372 0 -729 -158 -786 -158c-33 0 -55 12 -55 37c0 27 27 58 60 80c265 177 605 257 946 257c625 0 826 -321 826 -721c0 -422 -316 -895 -892 -895c-140 0 -289 13 -416 84c-60 -59 -141 -64 -280 -64c-259 0 -523 101 -523 181c0 33 35 52 67 52
c120 0 156 24 231 157c129 229 196 696 452 816c98 46 263 67 379 67c60 0 120 -6 120 -50c0 -24 -9 -53 -53 -124c-86 -132 -205 -597 -304 -875l-17 -44c21 -2 43 -3 68 -3c455 0 598 487 598 832c0 250 -135 371 -421 371zM1256 1661c-145 0 -250 60 -250 167
c0 129 195 216 368 216c146 0 248 -62 248 -168c0 -128 -190 -215 -366 -215z" />
    <glyph glyph-name="Eng" unicode="&#x14a;" horiz-adv-x="2179" 
d="M914 1556c173 0 247 -40 247 -220c0 -12 -1 -25 -2 -38c183 185 469 279 670 279c193 0 311 -84 311 -247c0 -231 -227 -770 -350 -1146c-156 -475 -355 -694 -756 -694c-125 0 -193 11 -193 61c0 52 68 61 175 242c65 110 470 1118 470 1354c0 77 -79 96 -151 96
c-78 0 -144 -27 -197 -56c-81 -328 -360 -848 -360 -1066c0 -20 3 -42 3 -66c0 -45 -63 -67 -105 -67c-216 0 -254 -6 -401 -6c-72 0 -146 4 -146 86c0 29 3 64 9 91c62 261 359 818 359 976c0 73 -20 92 -53 92c-35 0 -81 -24 -118 -24c-25 0 -44 4 -44 31
c0 38 41 79 82 112c134 108 381 210 550 210z" />
    </font>
</defs>
</svg>
