<?xml version="1.0" standalone="no"?>
<!DOCTYPE svg PUBLIC "-//W3C//DTD SVG 1.1//EN" "http://www.w3.org/Graphics/SVG/1.1/DTD/svg11.dtd" >
<svg xmlns="http://www.w3.org/2000/svg" xmlns:xlink="http://www.w3.org/1999/xlink" version="1.1">
<metadata>
Created by FontForge 20230101 at Fri Sep  1 09:42:31 2023
 By Glenn Lewis
Copyright 2019 The Karla Project Authors (https://github.com/googlefonts/karla)
</metadata>
<defs>
<font id="Karla-SemiBoldItalic" horiz-adv-x="1200" >
  <font-face 
    font-family="Karla SemiBold"
    font-weight="600"
    font-style="italic"
    font-stretch="normal"
    units-per-em="2000"
    panose-1="2 11 0 4 3 5 3 3 0 3"
    ascent="1600"
    descent="-400"
    x-height="968"
    cap-height="1288"
    bbox="-221 -499 1894.96 1945"
    underline-thickness="50"
    underline-position="-125"
    slope="-8"
    unicode-range="U+000D-FB02"
  />
<missing-glyph horiz-adv-x="1031" 
d="M10 1645h1011v-1640h-1011v1640zM0 1655v-1660h1031v1660h-1031zM1021 5q-91 127 -179.5 277.5t-180.5 316.5t-192 341.5t-213.5 353.5t-245.5 351q139 -228 269 -453.5t254.5 -438.5t246 -402.5t241.5 -345.5zM10 5q120 156 241.5 345.5t246 402.5t254.5 438.5
t269 453.5q-132 -173 -245.5 -351t-213.5 -353.5t-192 -341.5t-180.5 -316.5t-179.5 -277.5z" />
    <glyph glyph-name="fi" unicode="fi" horiz-adv-x="1224" 
d="M153 823l15 145h131l12 122q10 105 52 169.5t105 95t132 30.5q41 0 85.5 -6t85.5 -18l-53 -167q-23 10 -47.5 16t-47.5 6q-26 0 -51 -11.5t-43 -39t-24 -77.5l-11 -120h166l-14 -145h-166l-76 -823h-195l77 823h-133zM1041 1157q-58 0 -86.5 34t-24.5 93q5 57 40.5 93
t92.5 36t86.5 -35t24.5 -94q-5 -60 -41.5 -93.5t-91.5 -33.5zM835 0l92 970h194l-92 -970h-194z" />
    <glyph glyph-name="fl" unicode="fl" horiz-adv-x="1184" 
d="M153 823l15 145h131l12 122q10 105 52 169.5t105 95t132 30.5q41 0 85.5 -6t85.5 -18l-53 -167q-23 10 -47.5 16t-47.5 6q-26 0 -51 -11.5t-43 -39t-24 -77.5l-11 -120h166l-14 -145h-166l-76 -823h-195l77 823h-133zM820 0l128 1369h195l-129 -1369h-194z" />
    <glyph glyph-name=".notdef" horiz-adv-x="1031" 
d="M10 1645h1011v-1640h-1011v1640zM0 1655v-1660h1031v1660h-1031zM1021 5q-91 127 -179.5 277.5t-180.5 316.5t-192 341.5t-213.5 353.5t-245.5 351q139 -228 269 -453.5t254.5 -438.5t246 -402.5t241.5 -345.5zM10 5q120 156 241.5 345.5t246 402.5t254.5 438.5
t269 453.5q-132 -173 -245.5 -351t-213.5 -353.5t-192 -341.5t-180.5 -316.5t-179.5 -277.5z" />
    <glyph glyph-name=".null" horiz-adv-x="0" 
 />
    <glyph glyph-name="CR" unicode="&#xd;" 
 />
    <glyph glyph-name="uni00A0" unicode="&#xa0;" horiz-adv-x="449" 
 />
    <glyph glyph-name="space" unicode=" " horiz-adv-x="449" 
 />
    <glyph glyph-name="comma" unicode="," horiz-adv-x="436" 
d="M165 -258l-136 80q60 32 107 73t66 95q-47 9 -78 42.5t-25 86.5q5 55 47.5 94t101.5 39q51 0 83 -27.5t47 -73t10 -98.5q-6 -57 -34 -116t-76 -110t-113 -85z" />
    <glyph glyph-name="period" unicode="." horiz-adv-x="370" 
d="M180 -18q-60 0 -95 42t-28 105q6 61 49 103.5t103 42.5q58 0 94.5 -40.5t30.5 -105.5q-5 -65 -50 -106t-104 -41z" />
    <glyph glyph-name="semicolon" unicode=";" horiz-adv-x="533" 
d="M217 -258l-135 80q59 32 106.5 73t65.5 95q-46 9 -77 43t-26 86q5 55 47.5 94t102.5 39q73 0 110 -58t29 -141q-9 -90 -68.5 -176t-154.5 -135zM347 622q-59 0 -94.5 41.5t-29.5 105.5q7 61 48 103.5t102 42.5t97 -42t30 -104q-5 -63 -48.5 -105t-104.5 -42z" />
    <glyph glyph-name="colon" unicode=":" horiz-adv-x="468" 
d="M291 613q-61 0 -94.5 42.5t-28.5 104.5q6 62 48 104t101 42q60 0 96 -42t30 -104q-5 -63 -48.5 -105t-103.5 -42zM231 24q-64 0 -96 44.5t-27 101.5q6 62 48 104.5t102 42.5q62 0 97 -43.5t29 -103.5q-5 -62 -49 -104t-104 -42z" />
    <glyph glyph-name="hyphen" unicode="-" horiz-adv-x="661" 
d="M126 504l19 188h502l-19 -188h-502z" />
    <glyph glyph-name="endash" unicode="&#x2013;" horiz-adv-x="921" 
d="M147 504l17 188h723l-18 -188h-722z" />
    <glyph glyph-name="emdash" unicode="&#x2014;" horiz-adv-x="1362" 
d="M147 504l17 188h1166l-18 -188h-1165z" />
    <glyph glyph-name="exclam" unicode="!" horiz-adv-x="521" 
d="M222 416l60 893h211l-106 -893h-165zM263 -18q-61 0 -95 43.5t-29 102.5q5 61 47.5 104t103.5 43q63 0 98 -43t29 -104q-6 -59 -48.5 -102.5t-105.5 -43.5z" />
    <glyph glyph-name="a" unicode="a" horiz-adv-x="1041" 
d="M435 -26q-108 0 -178.5 43t-102 113t-23.5 150q9 94 58.5 156.5t132.5 95t188 32.5q64 0 123.5 -11.5t114.5 -30.5l10 102q12 109 -24 160t-126 51q-53 0 -94.5 -17t-66.5 -50t-30 -82h-213q10 111 67 178.5t145 98.5t192 31q184 0 273 -92t71 -285l-58 -617h-168
q-1 35 -1 69.5t-1 69.5q-51 -82 -121 -123.5t-168 -41.5zM487 138q65 0 119 31.5t89 87t40 127.5q-46 15 -100.5 25t-102.5 10q-76 0 -132 -31.5t-62 -107.5q-5 -60 35 -101t114 -41z" />
    <glyph glyph-name="b" unicode="b" horiz-adv-x="1092" 
d="M602 -26q-83 0 -147 48.5t-94 145.5l-62 -168h-127l128 1369h195l-51 -529q48 74 116.5 114t150.5 40q97 0 173.5 -53t120 -150t43.5 -229q0 -91 -27 -193.5t-82.5 -192t-139.5 -146t-197 -56.5zM591 169q67 0 115.5 34t81 90t47.5 121t15 127q0 118 -55.5 188.5
t-142.5 70.5q-54 0 -106 -28t-87.5 -81.5t-42.5 -129.5l-11 -130q-6 -77 16.5 -136t67 -92.5t102.5 -33.5z" />
    <glyph glyph-name="c" unicode="c" horiz-adv-x="947" 
d="M493 -26q-109 0 -196.5 62.5t-133.5 177.5t-32 270q15 164 82.5 277.5t166.5 173t209 59.5q81 0 141 -29.5t101 -78t62 -109.5t24 -125l-198 -8q-10 68 -47.5 112t-103.5 44q-55 0 -106 -34t-87.5 -103.5t-46.5 -178.5q-10 -102 11 -172.5t66 -106.5t105 -36
q82 0 128 45.5t53 125.5h197q-9 -102 -60 -185t-136 -132t-199 -49z" />
    <glyph glyph-name="d" unicode="d" horiz-adv-x="1097" 
d="M487 -26q-100 0 -180 54.5t-125.5 154t-45.5 230.5q0 110 30 213t86.5 186.5t136 132.5t179.5 49q85 0 145.5 -38.5t94.5 -112.5l50 526h196l-130 -1369h-158l-10 156q-49 -92 -120.5 -137t-148.5 -45zM534 169q49 0 100 30t88.5 85t43.5 133l14 139q1 9 1.5 15t0.5 14
q0 70 -25.5 117.5t-68.5 72.5t-94 25q-68 0 -117.5 -34t-80.5 -89t-46.5 -119t-15.5 -122q0 -122 55.5 -194.5t144.5 -72.5z" />
    <glyph glyph-name="e" unicode="e" horiz-adv-x="947" 
d="M489 -26q-113 0 -199.5 62.5t-130 177t-28.5 269.5q15 160 80 274t162 175.5t211 61.5q92 0 157 -37t104.5 -100t55 -143t7.5 -168q-2 -28 -6.5 -56.5t-11.5 -57.5h-617l49 36q-12 -91 3 -164t59.5 -114.5t121.5 -41.5q65 0 113 35t67 104h196q-22 -94 -78 -164.5
t-137 -109.5t-178 -39zM328 536l-39 30h486l-49 -27q10 72 1 136.5t-45.5 105t-111.5 40.5q-69 0 -120.5 -38t-82 -102.5t-39.5 -144.5z" />
    <glyph glyph-name="f" unicode="f" horiz-adv-x="648" 
d="M153 823l15 145h131l12 122q10 105 52 169.5t105 95t132 30.5q41 0 85.5 -6t85.5 -18l-53 -167q-23 10 -47.5 16t-47.5 6q-26 0 -51 -11.5t-43 -39t-24 -77.5l-11 -120h166l-14 -145h-166l-76 -823h-195l77 823h-133z" />
    <glyph glyph-name="g" unicode="g" horiz-adv-x="1040" 
d="M443 -499q-135 0 -235 42.5t-151.5 116t-42.5 163.5q8 84 63.5 140t135.5 71q-49 33 -72 78t-19 98q6 69 50.5 117t110.5 67q-43 47 -64.5 109.5t-14.5 140.5q11 107 68 185.5t144.5 121.5t187.5 43q62 0 115.5 -16.5t95.5 -45.5q15 75 56.5 130.5t100.5 86.5t128 31
l-32 -208q-75 0 -119 -29t-53 -93q27 -42 40 -93.5t7 -112.5q-9 -105 -66.5 -183.5t-147.5 -122t-196 -43.5q-39 0 -79 8.5t-75 25.5q-32 -8 -57.5 -34t-30.5 -67q-5 -42 24.5 -68t108.5 -26h305q133 0 205 -56.5t62 -171.5q-8 -103 -78.5 -195.5t-192 -151t-282.5 -58.5z
M451 -328q105 0 181.5 32.5t120.5 82.5t48 105q4 43 -18.5 66t-68.5 23h-319q-82 0 -133 -42.5t-54 -104.5q-4 -74 62.5 -118t180.5 -44zM557 447q59 0 100.5 26.5t65.5 71t29 99.5q8 90 -33 144t-126 54q-87 0 -138.5 -55.5t-58.5 -142.5q-8 -83 32.5 -140t128.5 -57z" />
    <glyph glyph-name="h" unicode="h" horiz-adv-x="1113" 
d="M172 0l128 1369h195l-54 -562q53 92 128 139.5t165 47.5q106 0 173.5 -53t96 -149t17.5 -226l-53 -566h-195l52 566q13 116 -31.5 175t-124.5 59q-65 0 -118 -37t-89.5 -109.5t-50.5 -179.5l-45 -474h-194z" />
    <glyph glyph-name="i" unicode="i" horiz-adv-x="576" 
d="M393 1157q-58 0 -86.5 34t-24.5 93q5 57 40.5 93t92.5 36t86.5 -35t24.5 -94q-5 -60 -41.5 -93.5t-91.5 -33.5zM187 0l92 970h194l-92 -970h-194z" />
    <glyph glyph-name="j" unicode="j" horiz-adv-x="593" 
d="M407 1157q-54 0 -84 33.5t-25 93.5q4 59 41 94t93 35q57 0 86 -35t23 -94q-4 -58 -39.5 -92.5t-94.5 -34.5zM60 -499q-67 0 -125.5 17.5t-116.5 47.5l24 187q42 -28 92 -46t96 -18q69 0 110 43.5t52 149.5l102 1090h194l-104 -1092q-12 -138 -55.5 -221t-111.5 -120.5
t-157 -37.5z" />
    <glyph glyph-name="k" unicode="k" horiz-adv-x="1030" 
d="M778 0l-267 482l-109 -92l-36 -390h-194l128 1369h195l-71 -752l397 351h265l-424 -360l352 -608h-236z" />
    <glyph glyph-name="l" unicode="l" horiz-adv-x="537" 
d="M172 0l128 1369h195l-129 -1369h-194z" />
    <glyph glyph-name="m" unicode="m" horiz-adv-x="1701" 
d="M171 0l92 968h167q2 -43 3 -85.5t2 -85.5q53 97 129 147t169 50q110 0 179 -57t95 -159q55 114 137 165t182 51q106 0 173.5 -53t95.5 -148.5t15 -226.5l-52 -566h-195l53 566q9 114 -34.5 174t-124.5 60q-68 0 -120.5 -40t-84.5 -118.5t-44 -195.5l-40 -446h-195l52 566
q12 116 -33 175t-123 59q-104 0 -175 -92.5t-88 -269.5l-41 -438h-194z" />
    <glyph glyph-name="n" unicode="n" horiz-adv-x="1113" 
d="M171 0l92 968h167l5 -171q53 97 129 147t169 50q107 0 174.5 -53t96 -148.5t16.5 -226.5l-52 -566h-195l52 566q12 116 -33 175t-123 59q-104 0 -175 -92.5t-88 -269.5l-41 -438h-194z" />
    <glyph glyph-name="o" unicode="o" horiz-adv-x="1009" 
d="M504 -26q-120 0 -210 56.5t-134.5 170t-28.5 281.5q16 172 82.5 285.5t167 170t218.5 56.5t207.5 -57t134.5 -170.5t28 -284.5q-16 -168 -82.5 -281.5t-165.5 -170t-217 -56.5zM514 162q102 0 173 82.5t86 237.5q16 159 -33.5 242t-152.5 83t-173 -82.5t-86 -242.5
q-10 -103 8.5 -174.5t64 -108.5t113.5 -37z" />
    <glyph glyph-name="p" unicode="p" horiz-adv-x="1091" 
d="M126 -473l137 1441h159q1 -34 3 -68t3 -68q50 82 120.5 122t148.5 40q103 0 187.5 -60.5t130 -174.5t30.5 -275q-15 -160 -82.5 -274.5t-165.5 -175t-204 -60.5q-76 0 -132 28.5t-89 85.5l-52 -561h-194zM585 169q55 0 112 34.5t99 104.5t52 176q10 100 -13.5 170
t-72 108t-114.5 38q-56 0 -106.5 -28.5t-83.5 -83t-40 -132.5l-17 -165q-6 -70 15.5 -119.5t65 -76t103.5 -26.5z" />
    <glyph glyph-name="q" unicode="q" horiz-adv-x="1086" 
d="M932 -499q-139 40 -189.5 125t-35.5 237l25 272q-39 -76 -100 -118.5t-145 -42.5q-106 0 -192 61t-132 175t-31 274q15 161 81.5 275t162.5 174.5t198 60.5q82 0 147.5 -44.5t98.5 -133.5l58 152h128l-106 -1121q-5 -61 1.5 -95.5t31 -54.5t69.5 -37zM532 169
q52 0 100.5 26t82 76t40.5 120l17 173q1 77 -22 129.5t-65 79.5t-97 27q-65 0 -120.5 -37.5t-92 -108t-46.5 -170.5q-11 -106 17 -176t78.5 -104.5t107.5 -34.5z" />
    <glyph glyph-name="r" unicode="r" horiz-adv-x="732" 
d="M171 0l92 970h194l-18 -190q47 105 112.5 155.5t142.5 50.5q19 0 39.5 -3.5t40.5 -11.5l-25 -215q-25 7 -51.5 10.5t-50.5 3.5q-70 0 -120.5 -40t-81 -116.5t-40.5 -185.5l-40 -428h-194z" />
    <glyph glyph-name="s" unicode="s" horiz-adv-x="947" 
d="M474 -26q-109 0 -192.5 38t-127 109.5t-34.5 170.5h183q-7 -71 40.5 -109.5t130.5 -38.5q84 0 134 36t57 88q6 48 -27.5 73t-85.5 44l-178 73q-97 38 -148 104.5t-41 160.5q9 83 59 143.5t133 94t190 33.5q170 0 251.5 -79.5t73.5 -200.5h-184q-1 53 -40 82t-109 29
q-53 0 -90 -16t-56.5 -41.5t-23.5 -53.5q-6 -44 25 -71.5t80 -44.5l192 -80q93 -35 148 -95.5t45 -154.5q-6 -75 -56 -142t-138.5 -109.5t-210.5 -42.5z" />
    <glyph glyph-name="t" unicode="t" horiz-adv-x="701" 
d="M454 -26q-76 0 -134.5 31t-88 95.5t-21.5 163.5l56 601l41 -39h-172l16 142h170l-49 -45l28 303h194l-28 -303l-41 45h291l-14 -142h-292l49 39l-55 -594q-6 -65 19 -96t80 -31q29 0 62 8t75 25l15 -152q-51 -23 -99.5 -37t-101.5 -14z" />
    <glyph glyph-name="u" unicode="u" horiz-adv-x="1118" 
d="M479 -18q-94 0 -165 38t-107 119.5t-23 213.5l59 617h194l-57 -596q-9 -101 30.5 -152t119.5 -51q67 0 125 39t96.5 114t48.5 182l44 464h194l-90 -970h-196l17 178q-51 -98 -125.5 -147t-164.5 -49z" />
    <glyph glyph-name="v" unicode="v" horiz-adv-x="927" 
d="M116 968h222l145 -750l288 750h222l-421 -968h-217z" />
    <glyph glyph-name="w" unicode="w" horiz-adv-x="1349" 
d="M116 968h203l117 -711l239 659h175l114 -666l253 718h194l-376 -968h-191l-116 604l-223 -604h-191z" />
    <glyph glyph-name="x" unicode="x" horiz-adv-x="978" 
d="M32 0l383 482l-291 488h239l192 -324l243 324h236l-382 -488l290 -482h-236l-194 325l-240 -325h-240z" />
    <glyph glyph-name="y" unicode="y" horiz-adv-x="899" 
d="M188 -499q-60 0 -115.5 16t-111.5 49l19 192q44 -36 88.5 -52.5t91.5 -16.5q45 0 81 28.5t64.5 77.5t51.5 110l36 95l-261 968h221l155 -716l257 716h197l-442 -1148q-43 -110 -93 -180.5t-109 -104.5t-130 -34z" />
    <glyph glyph-name="z" unicode="z" horiz-adv-x="881" 
d="M100 0l16 176l525 616h-468l19 176h682l-18 -176l-512 -616h455l-16 -176h-683z" />
    <glyph glyph-name="A" unicode="A" horiz-adv-x="1102" 
d="M42 0l516 1288h243l261 -1288h-206l-58 290h-437l-114 -290h-205zM425 454h341l-115 576z" />
    <glyph glyph-name="B" unicode="B" horiz-adv-x="1154" 
d="M172 0l121 1288h459q133 0 216 -46.5t118.5 -123.5t26.5 -171q-11 -108 -73 -187t-167 -110q66 -14 114 -54.5t72 -102t17 -137.5q-6 -62 -31.5 -125t-76 -115.5t-133.5 -84t-204 -31.5h-459zM382 189h262q108 0 161.5 49t61.5 130q9 81 -38 130.5t-151 49.5h-262z
M468 1101l-34 -365h257q97 0 154 49.5t65 135.5q7 82 -39.5 131t-143.5 49h-259z" />
    <glyph glyph-name="C" unicode="C" horiz-adv-x="1132" 
d="M584 -26q-154 0 -258.5 81.5t-151.5 232.5t-26 360q20 217 99 365t199 224t264 76q199 0 302.5 -108t121.5 -280l-211 -43q-20 106 -79 170.5t-152 64.5q-80 0 -151 -52t-120.5 -156.5t-64.5 -260.5q-13 -146 10 -253t82 -165.5t154 -58.5q119 0 193 70.5t85 181.5h209
q-14 -143 -80 -243t-174.5 -153t-250.5 -53z" />
    <glyph glyph-name="D" unicode="D" horiz-adv-x="1223" 
d="M291 1288h368q176 0 300.5 -79.5t184 -224t41.5 -340.5q-19 -196 -105.5 -340.5t-226 -224t-316.5 -79.5h-367zM466 1093l-83 -899h173q116 0 206 58.5t145 160t68 231.5t-23.5 231.5t-116.5 159.5t-196 58h-173z" />
    <glyph glyph-name="E" unicode="E" horiz-adv-x="1043" 
d="M170 0l121 1288h738l-19 -187h-544l-34 -363h510l-18 -186h-510l-34 -363h544l-17 -189h-737z" />
    <glyph glyph-name="F" unicode="F" horiz-adv-x="974" 
d="M172 0l121 1288h723l-18 -187h-530l-34 -361h486l-18 -186h-486l-50 -554h-194z" />
    <glyph glyph-name="G" unicode="G" horiz-adv-x="1203" 
d="M586 -26q-140 0 -246.5 82t-159.5 230.5t-34 348.5q15 160 69 285.5t137 213t186.5 133t219.5 45.5q155 0 256.5 -74.5t149.5 -233.5l-201 -55q-41 83 -99.5 125.5t-135.5 42.5q-89 0 -170 -58t-136 -166.5t-69 -257.5q-13 -138 16 -242t93.5 -162t158.5 -58
q76 0 141 35.5t108 106t52 172.5q3 17 2 32.5t-4 42.5l49 -54l-313 9l13 139h455l-60 -656h-158q-1 61 -1 122.5t-2 121.5l13 3q-45 -129 -126.5 -201t-203.5 -72z" />
    <glyph glyph-name="H" unicode="H" horiz-adv-x="1253" 
d="M172 0l121 1288h194l-53 -546h522l52 546h195l-122 -1288h-194l51 554h-522l-50 -554h-194z" />
    <glyph glyph-name="I" unicode="I" horiz-adv-x="537" 
d="M172 0l121 1288h194l-121 -1288h-194z" />
    <glyph glyph-name="J" unicode="J" horiz-adv-x="781" 
d="M29 56l21 218q65 -47 130.5 -69t124.5 -22q83 0 124.5 53t50.5 158l84 894h197l-85 -894q-15 -152 -66 -244.5t-130.5 -134t-177.5 -41.5q-78 0 -145.5 23t-127.5 59z" />
    <glyph glyph-name="K" unicode="K" horiz-adv-x="1157" 
d="M293 1288h196l-51 -546l522 546h268l-563 -579l475 -709h-252l-369 558l-109 -112l-42 -446h-196z" />
    <glyph glyph-name="L" unicode="L" horiz-adv-x="878" 
d="M172 0l121 1288h194l-105 -1099h486l-16 -189h-680z" />
    <glyph glyph-name="M" unicode="M" horiz-adv-x="1562" 
d="M172 0l121 1288h278l260 -793l411 793h270l-122 -1288h-195l95 1041l16 -2l-445 -893h-128l-286 924h17l-98 -1070h-194z" />
    <glyph glyph-name="N" unicode="N" horiz-adv-x="1275" 
d="M168 0l121 1288h214l472 -999l-38 3l95 996h194l-121 -1288h-200l-488 1019l41 -3l-96 -1016h-194z" />
    <glyph glyph-name="O" unicode="O" horiz-adv-x="1213" 
d="M602 -26q-153 0 -262.5 74.5t-161.5 224t-30 371.5q20 226 100 374.5t204.5 221.5t276.5 73q153 0 263 -75t163 -223.5t32 -370.5q-22 -225 -102.5 -373.5t-205 -222.5t-277.5 -74zM620 170q147 0 245.5 122t119.5 354q22 225 -53 349t-222 124q-145 0 -243 -124.5
t-118 -350.5q-23 -231 52 -352.5t219 -121.5z" />
    <glyph glyph-name="P" unicode="P" horiz-adv-x="1034" 
d="M166 0l121 1288h400q130 0 217.5 -48t127 -139.5t27.5 -220.5q-18 -191 -136.5 -297.5t-312.5 -106.5h-204l-44 -476h-196zM424 664h205q102 0 161.5 60t67.5 156q9 98 -38.5 159.5t-150.5 61.5h-205z" />
    <glyph glyph-name="Q" unicode="Q" horiz-adv-x="1219" 
d="M926 -353q-87 0 -155.5 51t-116.5 145l-66 131q-148 3 -254.5 79t-157 223.5t-28.5 367.5q20 226 100 374.5t204.5 221.5t276.5 73q153 0 263 -75t163 -223.5t32 -370.5q-27 -269 -137 -430t-273 -214l30 -59q24 -43 55 -60t66 -19q44 0 87 12.5t91 34.5l-22 -226
q-43 -20 -81.5 -28t-76.5 -8zM620 170q147 0 245.5 122t119.5 354q22 225 -53 349t-222 124q-145 0 -243 -124.5t-118 -350.5q-23 -231 52 -352.5t219 -121.5z" />
    <glyph glyph-name="R" unicode="R" horiz-adv-x="1146" 
d="M172 0l121 1288h422q205 0 305 -107.5t83 -284.5q-15 -140 -95 -237.5t-219 -133.5l267 -525h-252l-220 508h-172l-46 -508h-194zM425 654h211q119 0 187 62t77 161q9 102 -42.5 163t-161.5 61h-228z" />
    <glyph glyph-name="S" unicode="S" horiz-adv-x="1133" 
d="M562 -26q-118 0 -214.5 46.5t-149.5 140.5t-43 238h193q-8 -79 21.5 -128.5t85 -73.5t124.5 -24t124 21t89 59t39 89q7 69 -26.5 109t-109.5 71l-215 97q-131 57 -196 133t-53 212q16 155 135 252t317 97q189 0 285 -99t95 -271h-192q-5 79 -54.5 126.5t-152.5 47.5
q-96 0 -154.5 -45t-66.5 -114q-5 -56 26.5 -90.5t102.5 -63.5l240 -105q122 -53 184.5 -137.5t50.5 -212.5q-11 -113 -71 -197t-165 -131t-249 -47z" />
    <glyph glyph-name="T" unicode="T" horiz-adv-x="944" 
d="M374 0l104 1101h-363l18 187h922l-19 -187h-364l-104 -1101h-194z" />
    <glyph glyph-name="U" unicode="U" horiz-adv-x="1226" 
d="M611 -26q-217 0 -327.5 132t-88.5 375l78 807h194l-78 -807q-15 -164 53 -236t186 -72q119 0 200.5 72t96.5 236l78 807h194l-77 -807q-15 -162 -81.5 -275.5t-175.5 -172.5t-252 -59z" />
    <glyph glyph-name="V" unicode="V" horiz-adv-x="1072" 
d="M156 1288h206l198 -1018l394 1018h204l-522 -1288h-204z" />
    <glyph glyph-name="W" unicode="W" horiz-adv-x="1705" 
d="M154 1288h218l165 -1001l344 903h132l181 -907l382 1005h218l-522 -1288h-205l-155 751l-300 -751h-203z" />
    <glyph glyph-name="X" unicode="X" horiz-adv-x="1212" 
d="M68 0l467 640l-347 648h237l256 -480l314 480h234l-454 -644l367 -644h-243l-268 471l-326 -471h-237z" />
    <glyph glyph-name="Y" unicode="Y" horiz-adv-x="1062" 
d="M427 0l50 531l-329 757h231l217 -534l332 534h228l-485 -757l-49 -531h-195z" />
    <glyph glyph-name="Z" unicode="Z" horiz-adv-x="1115" 
d="M132 0l16 188l712 899l-627 3l20 198h871l-19 -187l-710 -900l624 -4l-17 -197h-870z" />
    <glyph glyph-name="quotesingle" unicode="'" horiz-adv-x="303" 
d="M157 887l19 467h196l-71 -467h-144z" />
    <glyph glyph-name="quoteleft" unicode="&#x2018;" horiz-adv-x="462" 
d="M296 778q-72 0 -110 59t-29 142q5 59 35.5 118t80.5 109t115 84l128 -82q-60 -32 -107 -73t-67 -96q46 -7 77 -39.5t25 -85.5q-5 -57 -46.5 -96.5t-101.5 -39.5z" />
    <glyph glyph-name="quoteright" unicode="&#x2019;" horiz-adv-x="462" 
d="M254 778l-127 82q61 33 107.5 75t65.5 95q-48 8 -78 41t-25 86q6 57 47.5 95t102.5 38q47 0 80 -26.5t48.5 -72t8.5 -101.5q-5 -60 -35.5 -118.5t-80.5 -108.5t-114 -85z" />
    <glyph glyph-name="parenleft" unicode="(" horiz-adv-x="699" 
d="M643 1494l129 -113q-113 -118 -193.5 -239t-127.5 -248t-60 -264q-12 -135 10.5 -262t80 -247.5t149.5 -238.5l-151 -115q-115 124 -184 263t-95 290t-12 310q24 241 136 460t318 404z" />
    <glyph glyph-name="parenright" unicode=")" horiz-adv-x="699" 
d="M174 -233l-131 115q115 118 196 238.5t128 247.5t59 262q13 137 -10 264t-80.5 248t-149.5 239l152 113q170 -185 241 -404t48 -460q-15 -159 -70 -310t-151 -290t-232 -263z" />
    <glyph glyph-name="plus" unicode="+" horiz-adv-x="1000" 
d="M451 986h194l-37 -397h356l-19 -185h-355l-37 -400h-194l37 400h-357l18 185h357z" />
    <glyph glyph-name="minus" unicode="&#x2212;" horiz-adv-x="1000" 
d="M92 402l22 184h795l-22 -184h-795z" />
    <glyph glyph-name="equal" unicode="=" horiz-adv-x="1000" 
d="M172 613l18 187h683l-18 -187h-683zM131 204l18 186h683l-18 -186h-683z" />
    <glyph glyph-name="zero" unicode="0" horiz-adv-x="1122" 
d="M557 -26q-141 0 -240.5 73t-145 222t-23.5 375q20 226 93.5 374t187.5 221.5t255 73.5t241 -73.5t146 -221.5t25 -374t-95.5 -375t-189 -222t-254.5 -73zM576 173q131 0 214 121.5t104 349.5q22 228 -37.5 350.5t-191.5 122.5q-130 0 -213 -122.5t-103 -350.5
q-23 -228 36.5 -349.5t190.5 -121.5z" />
    <glyph glyph-name="one" unicode="1" horiz-adv-x="630" 
d="M432 1295h148l-121 -1295h-195l96 1037q-47 -27 -95 -41t-93 -14l18 208q61 9 120.5 32.5t121.5 72.5z" />
    <glyph glyph-name="two" unicode="2" horiz-adv-x="1077" 
d="M327 242l-5 -44h665l-18 -198h-859l19 213q11 109 48 184t100.5 126.5t153.5 88.5l245 102q83 35 128 89t51 133q8 80 -39 134t-142 54q-92 0 -157 -49t-85 -144h-215q15 127 80 212t166.5 127.5t225.5 42.5q116 0 204.5 -49t135 -136t34.5 -202q-13 -150 -95.5 -245
t-231.5 -158l-250 -103q-78 -33 -116 -73.5t-43 -104.5z" />
    <glyph glyph-name="three" unicode="3" horiz-adv-x="1106" 
d="M553 -26q-90 0 -172.5 27t-144.5 81.5t-94 134.5t-22 185h207q-4 -72 25.5 -123.5t86 -78.5t133.5 -27q113 0 182.5 58.5t78.5 147.5q6 58 -16.5 100.5t-75 66.5t-138.5 24h-149l16 170h123q108 0 176 51.5t76 138.5q7 80 -40.5 133.5t-153.5 53.5q-83 0 -151.5 -38
t-97.5 -133h-204q38 194 165.5 280.5t299.5 86.5q123 0 215.5 -45.5t140 -126t37.5 -186.5q-9 -99 -65.5 -171.5t-156.5 -109.5q103 -38 161 -117t47 -197q-11 -114 -75.5 -201t-171 -136t-242.5 -49z" />
    <glyph glyph-name="four" unicode="4" horiz-adv-x="1054" 
d="M632 0l26 292h-590l15 164l677 847h185l-77 -826h201l-17 -185h-201l-28 -292h-191zM314 456h369l48 522z" />
    <glyph glyph-name="five" unicode="5" horiz-adv-x="1040" 
d="M524 -26q-121 0 -211 47t-136 137.5t-36 219.5h199q-9 -103 49 -154t153 -51q105 0 176 72t82 181q10 102 -48.5 155t-182.5 53h-343l114 654h682l-19 -198h-493l-57 -310q45 8 96 13t90 5q182 0 280.5 -95.5t80.5 -276.5q-11 -127 -74.5 -230t-166.5 -162.5t-235 -59.5z
" />
    <glyph glyph-name="six" unicode="6" horiz-adv-x="1077" 
d="M568 -27q-144 0 -245.5 84.5t-149 230.5t-29.5 333q20 221 96.5 375.5t196 235.5t269.5 81q112 0 193.5 -46.5t124 -130t37.5 -195.5h-207q-4 82 -42.5 129t-117.5 47q-108 0 -190 -82t-127.5 -229.5t-43.5 -346.5q24 124 78.5 195.5t127 101.5t150.5 30q108 0 186 -52
t117 -144t28 -211q-12 -121 -73 -212.5t-159 -142.5t-220 -51zM586 173q91 0 157 58t75 157q10 102 -45.5 160t-145.5 58q-59 0 -110 -28t-84 -77t-38 -113q-9 -99 46.5 -157t144.5 -58z" />
    <glyph glyph-name="seven" unicode="7" horiz-adv-x="883" 
d="M86 0l638 1079h-579l20 209h807l-20 -206l-604 -1082h-262z" />
    <glyph glyph-name="eight" unicode="8" horiz-adv-x="1149" 
d="M570 -26q-145 0 -249 48.5t-156 133t-42 190.5q12 122 95 198t202 93q-52 29 -101 73.5t-78 107.5t-21 146q10 106 70 184.5t163.5 121.5t244.5 43q125 0 220.5 -47.5t146 -130.5t40.5 -189q-9 -98 -77.5 -176.5t-184.5 -100.5l14 -6q122 -55 183.5 -127t49.5 -200
q-10 -105 -75 -187t-178 -128.5t-267 -46.5zM589 173q142 0 218 42.5t82 110.5q3 54 -28.5 92t-90.5 64l-184 80q-107 -8 -180.5 -64t-79.5 -130q-8 -93 68.5 -144t194.5 -51zM663 749q92 2 162.5 52.5t79.5 130.5q6 84 -56.5 134.5t-169.5 50.5q-69 0 -126 -21.5t-92 -58
t-39 -82.5q-6 -54 24 -87.5t90 -60.5z" />
    <glyph glyph-name="nine" unicode="9" horiz-adv-x="1084" 
d="M524 -26q-118 0 -207 51.5t-135 143.5t-34 212h203q-7 -96 45 -152t141 -56q150 0 229 140t102 373q3 32 4.5 62t-0.5 64q-27 -110 -80 -178.5t-124 -100.5t-153 -32q-106 0 -184 52t-117 144t-28 211q11 122 72 213t158.5 141.5t219.5 50.5q137 0 239.5 -81
t153.5 -226.5t33 -339.5q-21 -212 -87.5 -367.5t-179 -240t-271.5 -84.5zM579 681q57 0 107.5 28t84 77t39.5 112q10 100 -47 158.5t-146 58.5q-87 0 -153.5 -58.5t-76.5 -158.5q-11 -102 45.5 -159.5t146.5 -57.5z" />
    <glyph glyph-name="dollar" unicode="$" horiz-adv-x="1214" 
d="M518 -197l15 176q-114 12 -204.5 62t-138 139t-35.5 219h193q-10 -102 44.5 -155t160.5 -66l39 410l-80 31q-145 55 -218.5 132t-61.5 213q14 143 123.5 237.5t303.5 108.5l15 152h142l-16 -154q167 -19 249 -115t91 -250h-192q-5 64 -45.5 112.5t-119.5 62.5l-37 -381
l146 -58q127 -50 187 -129t48 -208q-9 -88 -61.5 -168.5t-150 -134.5t-242.5 -63l-15 -173h-140zM693 175q103 9 156 59t59 114q6 61 -26 105.5t-96 70.5l-58 24zM610 780l32 342q-92 -6 -142.5 -52.5t-55.5 -108.5q-5 -59 23 -94t95 -65z" />
    <glyph glyph-name="question" unicode="?" horiz-adv-x="922" 
d="M349 371l8 83q10 92 34 147t67 92t108 75q49 29 85.5 54.5t58 58t24.5 80.5q5 73 -39 114.5t-132 41.5q-95 0 -153 -48.5t-72 -125.5h-203q25 166 138.5 268t301.5 102q128 0 213.5 -47t126 -127t32.5 -180q-5 -80 -37 -135.5t-80.5 -95.5t-105.5 -74q-60 -35 -96.5 -62
t-55 -62.5t-22.5 -95.5l-6 -63h-195zM414 -26q-64 0 -97 43.5t-26 104.5t48.5 101t104.5 40q65 0 96 -41t27 -101q-5 -64 -47.5 -105.5t-105.5 -41.5z" />
    <glyph glyph-name="sterling" unicode="&#xa3;" horiz-adv-x="1067" 
d="M39 0l18 194h55q67 0 99.5 43.5t40.5 132.5l17 185h-153l13 146h153l17 181q14 141 67 236.5t138 145t196 49.5q143 0 221 -85t82 -252h-190q-3 69 -38.5 105t-93.5 36q-73 0 -124 -56.5t-64 -178.5l-17 -181h313l-13 -146h-313l-16 -171q-7 -65 -26 -112t-58 -78h268
q88 0 131.5 38.5t60.5 120.5h210q-21 -166 -116 -259.5t-303 -93.5h-575z" />
    <glyph glyph-name="grave" unicode="`" horiz-adv-x="709" 
d="M709 1084l-465 212l90 188l441 -265z" />
    <glyph glyph-name="acute" unicode="&#xb4;" horiz-adv-x="702" 
d="M277 1126l-38 135l492 265l52 -188z" />
    <glyph glyph-name="agrave" unicode="&#xe0;" horiz-adv-x="1041" 
d="M435 -26q-108 0 -178.5 43t-102 113t-23.5 150q9 94 58.5 156.5t132.5 95t188 32.5q64 0 123.5 -11.5t114.5 -30.5l10 102q12 109 -24 160t-126 51q-53 0 -94.5 -17t-66.5 -50t-30 -82h-213q10 111 67 178.5t145 98.5t192 31q184 0 273 -92t71 -285l-58 -617h-168
q-1 35 -1 69.5t-1 69.5q-51 -82 -121 -123.5t-168 -41.5zM487 138q65 0 119 31.5t89 87t40 127.5q-46 15 -100.5 25t-102.5 10q-76 0 -132 -31.5t-62 -107.5q-5 -60 35 -101t114 -41zM816 1084l-465 212l90 188l441 -265z" />
    <glyph glyph-name="egrave" unicode="&#xe8;" horiz-adv-x="947" 
d="M489 -26q-113 0 -199.5 62.5t-130 177t-28.5 269.5q15 160 80 274t162 175.5t211 61.5q92 0 157 -37t104.5 -100t55 -143t7.5 -168q-2 -28 -6.5 -56.5t-11.5 -57.5h-617l49 36q-12 -91 3 -164t59.5 -114.5t121.5 -41.5q65 0 113 35t67 104h196q-22 -94 -78 -164.5
t-137 -109.5t-178 -39zM328 536l-39 30h486l-49 -27q10 72 1 136.5t-45.5 105t-111.5 40.5q-69 0 -120.5 -38t-82 -102.5t-39.5 -144.5zM770 1084l-465 212l90 188l441 -265z" />
    <glyph glyph-name="ograve" unicode="&#xf2;" horiz-adv-x="1009" 
d="M504 -26q-120 0 -210 56.5t-134.5 170t-28.5 281.5q16 172 82.5 285.5t167 170t218.5 56.5t207.5 -57t134.5 -170.5t28 -284.5q-16 -168 -82.5 -281.5t-165.5 -170t-217 -56.5zM514 162q102 0 173 82.5t86 237.5q16 159 -33.5 242t-152.5 83t-173 -82.5t-86 -242.5
q-10 -103 8.5 -174.5t64 -108.5t113.5 -37zM840 1084l-465 212l90 188l441 -265z" />
    <glyph glyph-name="Agrave" unicode="&#xc0;" horiz-adv-x="1102" 
d="M42 0l516 1288h243l261 -1288h-206l-58 290h-437l-114 -290h-205zM425 454h341l-115 576zM892 1404l-465 212l90 188l441 -265z" />
    <glyph glyph-name="Egrave" unicode="&#xc8;" horiz-adv-x="1043" 
d="M170 0l121 1288h738l-19 -187h-544l-34 -363h510l-18 -186h-510l-34 -363h544l-17 -189h-737zM863 1404l-465 212l90 188l441 -265z" />
    <glyph glyph-name="ugrave" unicode="&#xf9;" horiz-adv-x="1118" 
d="M479 -18q-94 0 -165 38t-107 119.5t-23 213.5l59 617h194l-57 -596q-9 -101 30.5 -152t119.5 -51q67 0 125 39t96.5 114t48.5 182l44 464h194l-90 -970h-196l17 178q-51 -98 -125.5 -147t-164.5 -49zM855 1084l-465 212l90 188l441 -265z" />
    <glyph glyph-name="aacute" unicode="&#xe1;" horiz-adv-x="1041" 
d="M435 -26q-108 0 -178.5 43t-102 113t-23.5 150q9 94 58.5 156.5t132.5 95t188 32.5q64 0 123.5 -11.5t114.5 -30.5l10 102q12 109 -24 160t-126 51q-53 0 -94.5 -17t-66.5 -50t-30 -82h-213q10 111 67 178.5t145 98.5t192 31q184 0 273 -92t71 -285l-58 -617h-168
q-1 35 -1 69.5t-1 69.5q-51 -82 -121 -123.5t-168 -41.5zM487 138q65 0 119 31.5t89 87t40 127.5q-46 15 -100.5 25t-102.5 10q-76 0 -132 -31.5t-62 -107.5q-5 -60 35 -101t114 -41zM472 1126l-38 135l492 265l52 -188z" />
    <glyph glyph-name="eacute" unicode="&#xe9;" horiz-adv-x="947" 
d="M489 -26q-113 0 -199.5 62.5t-130 177t-28.5 269.5q15 160 80 274t162 175.5t211 61.5q92 0 157 -37t104.5 -100t55 -143t7.5 -168q-2 -28 -6.5 -56.5t-11.5 -57.5h-617l49 36q-12 -91 3 -164t59.5 -114.5t121.5 -41.5q65 0 113 35t67 104h196q-22 -94 -78 -164.5
t-137 -109.5t-178 -39zM328 536l-39 30h486l-49 -27q10 72 1 136.5t-45.5 105t-111.5 40.5q-69 0 -120.5 -38t-82 -102.5t-39.5 -144.5zM426 1126l-38 135l492 265l52 -188z" />
    <glyph glyph-name="oacute" unicode="&#xf3;" horiz-adv-x="1009" 
d="M504 -26q-120 0 -210 56.5t-134.5 170t-28.5 281.5q16 172 82.5 285.5t167 170t218.5 56.5t207.5 -57t134.5 -170.5t28 -284.5q-16 -168 -82.5 -281.5t-165.5 -170t-217 -56.5zM514 162q102 0 173 82.5t86 237.5q16 159 -33.5 242t-152.5 83t-173 -82.5t-86 -242.5
q-10 -103 8.5 -174.5t64 -108.5t113.5 -37zM496 1126l-38 135l492 265l52 -188z" />
    <glyph glyph-name="uacute" unicode="&#xfa;" horiz-adv-x="1118" 
d="M479 -18q-94 0 -165 38t-107 119.5t-23 213.5l59 617h194l-57 -596q-9 -101 30.5 -152t119.5 -51q67 0 125 39t96.5 114t48.5 182l44 464h194l-90 -970h-196l17 178q-51 -98 -125.5 -147t-164.5 -49zM512 1126l-38 135l492 265l52 -188z" />
    <glyph glyph-name="Aacute" unicode="&#xc1;" horiz-adv-x="1102" 
d="M42 0l516 1288h243l261 -1288h-206l-58 290h-437l-114 -290h-205zM425 454h341l-115 576zM548 1446l-38 135l492 265l52 -188z" />
    <glyph glyph-name="Eacute" unicode="&#xc9;" horiz-adv-x="1043" 
d="M170 0l121 1288h738l-19 -187h-544l-34 -363h510l-18 -186h-510l-34 -363h544l-17 -189h-737zM519 1446l-38 135l492 265l52 -188z" />
    <glyph glyph-name="Igrave" unicode="&#xcc;" horiz-adv-x="537" 
d="M172 0l121 1288h194l-121 -1288h-194zM610 1404l-465 212l90 188l441 -265z" />
    <glyph glyph-name="Iacute" unicode="&#xcd;" horiz-adv-x="537" 
d="M172 0l121 1288h194l-121 -1288h-194zM266 1446l-38 135l492 265l52 -188z" />
    <glyph glyph-name="Ograve" unicode="&#xd2;" horiz-adv-x="1213" 
d="M602 -26q-153 0 -262.5 74.5t-161.5 224t-30 371.5q20 226 100 374.5t204.5 221.5t276.5 73q153 0 263 -75t163 -223.5t32 -370.5q-22 -225 -102.5 -373.5t-205 -222.5t-277.5 -74zM620 170q147 0 245.5 122t119.5 354q22 225 -53 349t-222 124q-145 0 -243 -124.5
t-118 -350.5q-23 -231 52 -352.5t219 -121.5zM947 1404l-465 212l90 188l441 -265z" />
    <glyph glyph-name="Oacute" unicode="&#xd3;" horiz-adv-x="1213" 
d="M602 -26q-153 0 -262.5 74.5t-161.5 224t-30 371.5q20 226 100 374.5t204.5 221.5t276.5 73q153 0 263 -75t163 -223.5t32 -370.5q-22 -225 -102.5 -373.5t-205 -222.5t-277.5 -74zM620 170q147 0 245.5 122t119.5 354q22 225 -53 349t-222 124q-145 0 -243 -124.5
t-118 -350.5q-23 -231 52 -352.5t219 -121.5zM604 1446l-38 135l492 265l52 -188z" />
    <glyph glyph-name="Ugrave" unicode="&#xd9;" horiz-adv-x="1226" 
d="M611 -26q-217 0 -327.5 132t-88.5 375l78 807h194l-78 -807q-15 -164 53 -236t186 -72q119 0 200.5 72t96.5 236l78 807h194l-77 -807q-15 -162 -81.5 -275.5t-175.5 -172.5t-252 -59zM955 1404l-465 212l90 188l441 -265z" />
    <glyph glyph-name="Uacute" unicode="&#xda;" horiz-adv-x="1226" 
d="M611 -26q-217 0 -327.5 132t-88.5 375l78 807h194l-78 -807q-15 -164 53 -236t186 -72q119 0 200.5 72t96.5 236l78 807h194l-77 -807q-15 -162 -81.5 -275.5t-175.5 -172.5t-252 -59zM611 1446l-38 135l492 265l52 -188z" />
    <glyph glyph-name="circumflex" unicode="&#x2c6;" horiz-adv-x="892" 
d="M346 1124l-111 107l390 320l333 -320l-135 -107l-218 206z" />
    <glyph glyph-name="acircumflex" unicode="&#xe2;" horiz-adv-x="1041" 
d="M435 -26q-108 0 -178.5 43t-102 113t-23.5 150q9 94 58.5 156.5t132.5 95t188 32.5q64 0 123.5 -11.5t114.5 -30.5l10 102q12 109 -24 160t-126 51q-53 0 -94.5 -17t-66.5 -50t-30 -82h-213q10 111 67 178.5t145 98.5t192 31q184 0 273 -92t71 -285l-58 -617h-168
q-1 35 -1 69.5t-1 69.5q-51 -82 -121 -123.5t-168 -41.5zM487 138q65 0 119 31.5t89 87t40 127.5q-46 15 -100.5 25t-102.5 10q-76 0 -132 -31.5t-62 -107.5q-5 -60 35 -101t114 -41zM369 1124l-111 107l390 320l333 -320l-135 -107l-218 206z" />
    <glyph glyph-name="ecircumflex" unicode="&#xea;" horiz-adv-x="947" 
d="M489 -26q-113 0 -199.5 62.5t-130 177t-28.5 269.5q15 160 80 274t162 175.5t211 61.5q92 0 157 -37t104.5 -100t55 -143t7.5 -168q-2 -28 -6.5 -56.5t-11.5 -57.5h-617l49 36q-12 -91 3 -164t59.5 -114.5t121.5 -41.5q65 0 113 35t67 104h196q-22 -94 -78 -164.5
t-137 -109.5t-178 -39zM328 536l-39 30h486l-49 -27q10 72 1 136.5t-45.5 105t-111.5 40.5q-69 0 -120.5 -38t-82 -102.5t-39.5 -144.5zM322 1124l-111 107l390 320l333 -320l-135 -107l-218 206z" />
    <glyph glyph-name="ocircumflex" unicode="&#xf4;" horiz-adv-x="1009" 
d="M504 -26q-120 0 -210 56.5t-134.5 170t-28.5 281.5q16 172 82.5 285.5t167 170t218.5 56.5t207.5 -57t134.5 -170.5t28 -284.5q-16 -168 -82.5 -281.5t-165.5 -170t-217 -56.5zM514 162q102 0 173 82.5t86 237.5q16 159 -33.5 242t-152.5 83t-173 -82.5t-86 -242.5
q-10 -103 8.5 -174.5t64 -108.5t113.5 -37zM392 1124l-111 107l390 320l333 -320l-135 -107l-218 206z" />
    <glyph glyph-name="ucircumflex" unicode="&#xfb;" horiz-adv-x="1118" 
d="M479 -18q-94 0 -165 38t-107 119.5t-23 213.5l59 617h194l-57 -596q-9 -101 30.5 -152t119.5 -51q67 0 125 39t96.5 114t48.5 182l44 464h194l-90 -970h-196l17 178q-51 -98 -125.5 -147t-164.5 -49zM408 1124l-111 107l390 320l333 -320l-135 -107l-218 206z" />
    <glyph glyph-name="Acircumflex" unicode="&#xc2;" horiz-adv-x="1102" 
d="M42 0l516 1288h243l261 -1288h-206l-58 290h-437l-114 -290h-205zM425 454h341l-115 576zM444 1444l-111 107l390 320l333 -320l-135 -107l-218 206z" />
    <glyph glyph-name="Ecircumflex" unicode="&#xca;" horiz-adv-x="1043" 
d="M170 0l121 1288h738l-19 -187h-544l-34 -363h510l-18 -186h-510l-34 -363h544l-17 -189h-737zM415 1444l-111 107l390 320l333 -320l-135 -107l-218 206z" />
    <glyph glyph-name="Icircumflex" unicode="&#xce;" horiz-adv-x="537" 
d="M172 0l121 1288h194l-121 -1288h-194zM162 1444l-111 107l390 320l333 -320l-135 -107l-218 206z" />
    <glyph glyph-name="Ocircumflex" unicode="&#xd4;" horiz-adv-x="1213" 
d="M602 -26q-153 0 -262.5 74.5t-161.5 224t-30 371.5q20 226 100 374.5t204.5 221.5t276.5 73q153 0 263 -75t163 -223.5t32 -370.5q-22 -225 -102.5 -373.5t-205 -222.5t-277.5 -74zM620 170q147 0 245.5 122t119.5 354q22 225 -53 349t-222 124q-145 0 -243 -124.5
t-118 -350.5q-23 -231 52 -352.5t219 -121.5zM500 1444l-111 107l390 320l333 -320l-135 -107l-218 206z" />
    <glyph glyph-name="Ucircumflex" unicode="&#xdb;" horiz-adv-x="1226" 
d="M611 -26q-217 0 -327.5 132t-88.5 375l78 807h194l-78 -807q-15 -164 53 -236t186 -72q119 0 200.5 72t96.5 236l78 807h194l-77 -807q-15 -162 -81.5 -275.5t-175.5 -172.5t-252 -59zM507 1444l-111 107l390 320l333 -320l-135 -107l-218 206z" />
    <glyph glyph-name="tilde" unicode="&#x2dc;" horiz-adv-x="767" 
d="M308 1187l-72 52q34 119 89 181t120 62q25 0 51.5 -10.5t73.5 -38.5q43 -25 65.5 -37.5t43.5 -12.5q27 0 54 22.5t52 76.5l76 -60q-19 -71 -51.5 -123.5t-71 -82t-77.5 -29.5q-25 0 -55 13t-82 44q-44 26 -62 35t-37 9q-28 0 -57 -21t-60 -80z" />
    <glyph glyph-name="ampersand" unicode="&#x26;" horiz-adv-x="1714" 
d="M633 -26q-131 0 -233.5 51.5t-157.5 140t-44 198.5q13 135 106 212t255 106l-26 29q-52 58 -82 132.5t-23 155.5q8 87 60 157.5t142 111.5t211 41q117 0 196.5 -41.5t117.5 -111t29 -154.5q-11 -121 -93 -210.5t-242 -157.5l220 -240q65 77 122.5 173t105.5 205l125 -81
q-49 -121 -109.5 -228t-131.5 -193l53 -55q27 -26 52.5 -38.5t60.5 -12.5q43 0 78.5 35.5t46.5 116.5h177q-20 -159 -95.5 -250.5t-205.5 -91.5q-42 0 -80 10t-73.5 31t-70.5 51.5t-72 71.5q-92 -78 -197.5 -121t-221.5 -43zM654 169q75 0 145.5 25.5t135.5 73.5l-274 303
q-122 -18 -181.5 -67t-65.5 -128q-9 -86 53 -146.5t187 -60.5zM752 744q73 34 119 69.5t69.5 76t29.5 87.5q4 64 -35 105t-110 41q-83 0 -131.5 -46t-54.5 -110q-6 -48 12.5 -91t59.5 -88z" />
    <glyph glyph-name="at" unicode="@" horiz-adv-x="1808" 
d="M972 -417q-201 0 -359.5 64.5t-265.5 180t-155 268.5t-31 331q18 198 97.5 360.5t207 280t291.5 181.5t351 64q165 0 294.5 -56t217 -155.5t127.5 -231t25 -282.5q-12 -135 -57.5 -240t-113 -177.5t-146 -110t-158.5 -37.5q-81 0 -130.5 36t-58.5 100l-6 32
q-41 -75 -98 -121.5t-150 -46.5q-75 0 -138 47t-97.5 129.5t-23.5 188.5q10 105 52.5 193.5t108 155t145.5 103.5t165 37q117 0 178.5 -77t46.5 -234l-27 -272q-5 -55 9.5 -78.5t46.5 -23.5q31 0 70.5 22.5t78.5 70.5t68.5 123t38.5 180q15 150 -36.5 270t-165 190.5
t-284.5 70.5q-150 0 -277.5 -54.5t-225 -151t-157.5 -224.5t-74 -276q-19 -192 49 -339t215.5 -230.5t368.5 -83.5zM908 198q66 0 113 41t92 123l20 202q6 69 -12.5 107.5t-76.5 38.5q-52 0 -112 -38.5t-105.5 -109.5t-54.5 -170q-8 -93 31 -143.5t105 -50.5z" />
    <glyph glyph-name="dieresis" unicode="&#xa8;" horiz-adv-x="740" 
d="M358 1222q-53 0 -82.5 35t-24.5 87q4 51 39.5 88t90.5 37q47 0 79 -33t29 -88q-5 -58 -44.5 -92t-86.5 -34zM693 1224q-51 0 -81 34.5t-25 86.5q4 50 40.5 88t89.5 38q47 0 78 -33t28 -89q-5 -61 -43.5 -93t-86.5 -32z" />
    <glyph glyph-name="adieresis" unicode="&#xe4;" horiz-adv-x="1041" 
d="M435 -26q-108 0 -178.5 43t-102 113t-23.5 150q9 94 58.5 156.5t132.5 95t188 32.5q64 0 123.5 -11.5t114.5 -30.5l10 102q12 109 -24 160t-126 51q-53 0 -94.5 -17t-66.5 -50t-30 -82h-213q10 111 67 178.5t145 98.5t192 31q184 0 273 -92t71 -285l-58 -617h-168
q-1 35 -1 69.5t-1 69.5q-51 -82 -121 -123.5t-168 -41.5zM487 138q65 0 119 31.5t89 87t40 127.5q-46 15 -100.5 25t-102.5 10q-76 0 -132 -31.5t-62 -107.5q-5 -60 35 -101t114 -41zM463 1222q-53 0 -82.5 35t-24.5 87q4 51 39.5 88t90.5 37q47 0 79 -33t29 -88
q-5 -58 -44.5 -92t-86.5 -34zM798 1224q-51 0 -81 34.5t-25 86.5q4 50 40.5 88t89.5 38q47 0 78 -33t28 -89q-5 -61 -43.5 -93t-86.5 -32z" />
    <glyph glyph-name="edieresis" unicode="&#xeb;" horiz-adv-x="947" 
d="M489 -26q-113 0 -199.5 62.5t-130 177t-28.5 269.5q15 160 80 274t162 175.5t211 61.5q92 0 157 -37t104.5 -100t55 -143t7.5 -168q-2 -28 -6.5 -56.5t-11.5 -57.5h-617l49 36q-12 -91 3 -164t59.5 -114.5t121.5 -41.5q65 0 113 35t67 104h196q-22 -94 -78 -164.5
t-137 -109.5t-178 -39zM328 536l-39 30h486l-49 -27q10 72 1 136.5t-45.5 105t-111.5 40.5q-69 0 -120.5 -38t-82 -102.5t-39.5 -144.5zM416 1222q-53 0 -82.5 35t-24.5 87q4 51 39.5 88t90.5 37q47 0 79 -33t29 -88q-5 -58 -44.5 -92t-86.5 -34zM751 1224q-51 0 -81 34.5
t-25 86.5q4 50 40.5 88t89.5 38q47 0 78 -33t28 -89q-5 -61 -43.5 -93t-86.5 -32z" />
    <glyph glyph-name="odieresis" unicode="&#xf6;" horiz-adv-x="1009" 
d="M504 -26q-120 0 -210 56.5t-134.5 170t-28.5 281.5q16 172 82.5 285.5t167 170t218.5 56.5t207.5 -57t134.5 -170.5t28 -284.5q-16 -168 -82.5 -281.5t-165.5 -170t-217 -56.5zM514 162q102 0 173 82.5t86 237.5q16 159 -33.5 242t-152.5 83t-173 -82.5t-86 -242.5
q-10 -103 8.5 -174.5t64 -108.5t113.5 -37zM486 1222q-53 0 -82.5 35t-24.5 87q4 51 39.5 88t90.5 37q47 0 79 -33t29 -88q-5 -58 -44.5 -92t-86.5 -34zM821 1224q-51 0 -81 34.5t-25 86.5q4 50 40.5 88t89.5 38q47 0 78 -33t28 -89q-5 -61 -43.5 -93t-86.5 -32z" />
    <glyph glyph-name="udieresis" unicode="&#xfc;" horiz-adv-x="1118" 
d="M479 -18q-94 0 -165 38t-107 119.5t-23 213.5l59 617h194l-57 -596q-9 -101 30.5 -152t119.5 -51q67 0 125 39t96.5 114t48.5 182l44 464h194l-90 -970h-196l17 178q-51 -98 -125.5 -147t-164.5 -49zM502 1222q-53 0 -82.5 35t-24.5 87q4 51 39.5 88t90.5 37q47 0 79 -33
t29 -88q-5 -58 -44.5 -92t-86.5 -34zM837 1224q-51 0 -81 34.5t-25 86.5q4 50 40.5 88t89.5 38q47 0 78 -33t28 -89q-5 -61 -43.5 -93t-86.5 -32z" />
    <glyph glyph-name="Adieresis" unicode="&#xc4;" horiz-adv-x="1102" 
d="M42 0l516 1288h243l261 -1288h-206l-58 290h-437l-114 -290h-205zM425 454h341l-115 576zM539 1542q-53 0 -82.5 35t-24.5 87q4 51 39.5 88t90.5 37q47 0 79 -33t29 -88q-5 -58 -44.5 -92t-86.5 -34zM874 1544q-51 0 -81 34.5t-25 86.5q4 50 40.5 88t89.5 38q47 0 78 -33
t28 -89q-5 -61 -43.5 -93t-86.5 -32z" />
    <glyph glyph-name="Edieresis" unicode="&#xcb;" horiz-adv-x="1043" 
d="M170 0l121 1288h738l-19 -187h-544l-34 -363h510l-18 -186h-510l-34 -363h544l-17 -189h-737zM509 1542q-53 0 -82.5 35t-24.5 87q4 51 39.5 88t90.5 37q47 0 79 -33t29 -88q-5 -58 -44.5 -92t-86.5 -34zM844 1544q-51 0 -81 34.5t-25 86.5q4 50 40.5 88t89.5 38
q47 0 78 -33t28 -89q-5 -61 -43.5 -93t-86.5 -32z" />
    <glyph glyph-name="Idieresis" unicode="&#xcf;" horiz-adv-x="537" 
d="M172 0l121 1288h194l-121 -1288h-194zM256 1542q-53 0 -82.5 35t-24.5 87q4 51 39.5 88t90.5 37q47 0 79 -33t29 -88q-5 -58 -44.5 -92t-86.5 -34zM591 1544q-51 0 -81 34.5t-25 86.5q4 50 40.5 88t89.5 38q47 0 78 -33t28 -89q-5 -61 -43.5 -93t-86.5 -32z" />
    <glyph glyph-name="Odieresis" unicode="&#xd6;" horiz-adv-x="1213" 
d="M602 -26q-153 0 -262.5 74.5t-161.5 224t-30 371.5q20 226 100 374.5t204.5 221.5t276.5 73q153 0 263 -75t163 -223.5t32 -370.5q-22 -225 -102.5 -373.5t-205 -222.5t-277.5 -74zM620 170q147 0 245.5 122t119.5 354q22 225 -53 349t-222 124q-145 0 -243 -124.5
t-118 -350.5q-23 -231 52 -352.5t219 -121.5zM594 1542q-53 0 -82.5 35t-24.5 87q4 51 39.5 88t90.5 37q47 0 79 -33t29 -88q-5 -58 -44.5 -92t-86.5 -34zM929 1544q-51 0 -81 34.5t-25 86.5q4 50 40.5 88t89.5 38q47 0 78 -33t28 -89q-5 -61 -43.5 -93t-86.5 -32z" />
    <glyph glyph-name="Udieresis" unicode="&#xdc;" horiz-adv-x="1226" 
d="M611 -26q-217 0 -327.5 132t-88.5 375l78 807h194l-78 -807q-15 -164 53 -236t186 -72q119 0 200.5 72t96.5 236l78 807h194l-77 -807q-15 -162 -81.5 -275.5t-175.5 -172.5t-252 -59zM601 1542q-53 0 -82.5 35t-24.5 87q4 51 39.5 88t90.5 37q47 0 79 -33t29 -88
q-5 -58 -44.5 -92t-86.5 -34zM936 1544q-51 0 -81 34.5t-25 86.5q4 50 40.5 88t89.5 38q47 0 78 -33t28 -89q-5 -61 -43.5 -93t-86.5 -32z" />
    <glyph glyph-name="igrave" unicode="&#xec;" horiz-adv-x="576" 
d="M187 0l92 970h194l-92 -970h-194zM584 1084l-465 212l90 188l441 -265z" />
    <glyph glyph-name="iacute" unicode="&#xed;" horiz-adv-x="576" 
d="M187 0l92 970h194l-92 -970h-194zM240 1126l-38 135l492 265l52 -188z" />
    <glyph glyph-name="icircumflex" unicode="&#xee;" horiz-adv-x="576" 
d="M187 0l92 970h194l-92 -970h-194zM136 1124l-111 107l390 320l333 -320l-135 -107l-218 206z" />
    <glyph glyph-name="idieresis" unicode="&#xef;" horiz-adv-x="576" 
d="M187 0l92 970h194l-92 -970h-194zM230 1222q-53 0 -82.5 35t-24.5 87q4 51 39.5 88t90.5 37q47 0 79 -33t29 -88q-5 -58 -44.5 -92t-86.5 -34zM565 1224q-51 0 -81 34.5t-25 86.5q4 50 40.5 88t89.5 38q47 0 78 -33t28 -89q-5 -61 -43.5 -93t-86.5 -32z" />
    <glyph glyph-name="less" unicode="&#x3c;" horiz-adv-x="1000" 
d="M800 1211l113 -165l-560 -411l482 -408l-143 -165l-547 477l18 194z" />
    <glyph glyph-name="greater" unicode="&#x3e;" horiz-adv-x="1000" 
d="M241 62l-112 165l560 408l-482 411l143 165l548 -478l-18 -194z" />
    <glyph glyph-name="quotedbl" unicode="&#x22;" horiz-adv-x="654" 
d="M511 903l20 466h195l-71 -466h-144zM165 903l19 466h195l-70 -466h-144z" />
    <glyph glyph-name="numbersign" unicode="#" horiz-adv-x="1196" 
d="M250 65l50 266h-168l24 142h170l62 327h-170l28 143h169l51 262h183l-50 -262h252l50 262h183l-51 -262h175l-30 -143h-172l-62 -327h175l-28 -142h-173l-51 -266h-183l51 266h-252l-51 -266h-182zM509 473h252l62 327h-252z" />
    <glyph glyph-name="asterisk" unicode="*" horiz-adv-x="738" 
d="M309 788l-88 96l172 166l-194 76l62 131l173 -102l1 243h136l-43 -243l191 105l39 -133l-207 -76l140 -167l-107 -96l-117 203z" />
    <glyph glyph-name="slash" unicode="/" horiz-adv-x="831" 
d="M82 -158l614 1641h199l-616 -1641h-197z" />
    <glyph glyph-name="percent" unicode="%" horiz-adv-x="1358" 
d="M193 0l906 1288h197l-905 -1288h-198zM1012 -26q-97 0 -162.5 74.5t-51.5 225.5q15 150 95 224.5t176 74.5t162 -74.5t52 -224.5q-14 -151 -94 -225.5t-177 -74.5zM1025 114q41 0 72 37t38 123q10 85 -14 122.5t-66 37.5t-71.5 -37.5t-38.5 -122.5q-7 -86 15.5 -123
t64.5 -37zM418 715q-64 0 -116 33t-79 100t-18 166q9 100 49 166t98 99.5t122 33.5q98 0 164 -75t51 -224q-14 -149 -94 -224t-177 -75zM431 854q42 0 72 37t38 123t-15.5 123t-65.5 37t-71.5 -37t-37.5 -123q-9 -86 14 -123t66 -37z" />
    <glyph glyph-name="backslash" unicode="\" horiz-adv-x="831" 
d="M782 -156l-615 1640h197l617 -1640h-199z" />
    <glyph glyph-name="bar" unicode="|" horiz-adv-x="537" 
d="M148 -244l168 1775h194l-168 -1775h-194z" />
    <glyph glyph-name="bracketleft" unicode="[" horiz-adv-x="618" 
d="M131 -262l171 1812h423l-19 -194h-228l-135 -1423h228l-18 -195h-422z" />
    <glyph glyph-name="bracketright" unicode="]" horiz-adv-x="580" 
d="M-2 -262l19 195h227l149 1423h-227l20 194h424l-191 -1812h-421z" />
    <glyph glyph-name="asciicircum" unicode="^" horiz-adv-x="911" 
d="M78 450l417 747h156l275 -747h-215l-163 491l-255 -491h-215z" />
    <glyph glyph-name="underscore" unicode="_" horiz-adv-x="1362" 
d="M71 -1l17 188h1166l-18 -188h-1165z" />
    <glyph glyph-name="braceleft" unicode="{" horiz-adv-x="684" 
d="M645 -303q-157 0 -248.5 64t-126 175.5t-21.5 255.5l16 183q9 83 -0.5 116t-44.5 33h-41l20 215h40q36 0 52 32.5t23 117.5l18 183q14 144 69.5 255.5t159.5 175t261 63.5l-18 -194q-132 0 -198 -75t-82 -228l-18 -191q-9 -95 -46 -154.5t-89 -87.5l-1 -9
q47 -27 73.5 -87t15.5 -156l-18 -190q-15 -152 38 -227t185 -75z" />
    <glyph glyph-name="braceright" unicode="}" horiz-adv-x="760" 
d="M-40 -303l18 195q132 0 199.5 74.5t80.5 228.5l17 189q9 96 47 156t89 87v9q-39 23 -64 71t-26 122q0 12 0.5 24t1.5 25l17 191q3 32 3.5 47.5t0.5 25.5q-2 116 -56 173t-170 57l19 194q139 0 226.5 -51t129.5 -141t43 -208q0 -23 -0.5 -46.5t-3.5 -48.5l-16 -182
q-1 -19 -2.5 -37t-1.5 -34q0 -40 11 -59.5t38 -19.5h43l-21 -215h-40q-35 0 -51.5 -32.5t-24.5 -116.5l-17 -184q-14 -144 -69.5 -255.5t-159.5 -175t-261 -63.5z" />
    <glyph glyph-name="asciitilde" unicode="~" horiz-adv-x="1000" 
d="M204 418l-99 62q43 124 102.5 194.5t142.5 70.5q38 0 79.5 -13t105.5 -43q64 -29 99.5 -40.5t61.5 -11.5q74 0 126 112l99 -75q-46 -122 -112.5 -182.5t-146.5 -60.5q-29 0 -71 13.5t-106 42.5q-64 28 -97 40t-60 12q-33 0 -63 -27.5t-61 -93.5z" />
    <glyph glyph-name="atilde" unicode="&#xe3;" horiz-adv-x="1041" 
d="M435 -26q-108 0 -178.5 43t-102 113t-23.5 150q9 94 58.5 156.5t132.5 95t188 32.5q64 0 123.5 -11.5t114.5 -30.5l10 102q12 109 -24 160t-126 51q-53 0 -94.5 -17t-66.5 -50t-30 -82h-213q10 111 67 178.5t145 98.5t192 31q184 0 273 -92t71 -285l-58 -617h-168
q-1 35 -1 69.5t-1 69.5q-51 -82 -121 -123.5t-168 -41.5zM487 138q65 0 119 31.5t89 87t40 127.5q-46 15 -100.5 25t-102.5 10q-76 0 -132 -31.5t-62 -107.5q-5 -60 35 -101t114 -41zM400 1187l-72 52q34 119 89 181t120 62q25 0 51.5 -10.5t73.5 -38.5q43 -25 65.5 -37.5
t43.5 -12.5q27 0 54 22.5t52 76.5l76 -60q-19 -71 -51.5 -123.5t-71 -82t-77.5 -29.5q-25 0 -55 13t-82 44q-44 26 -62 35t-37 9q-28 0 -57 -21t-60 -80z" />
    <glyph glyph-name="ntilde" unicode="&#xf1;" horiz-adv-x="1113" 
d="M171 0l92 968h167l5 -171q53 97 129 147t169 50q107 0 174.5 -53t96 -148.5t16.5 -226.5l-52 -566h-195l52 566q12 116 -33 175t-123 59q-104 0 -175 -92.5t-88 -269.5l-41 -438h-194zM436 1187l-72 52q34 119 89 181t120 62q25 0 51.5 -10.5t73.5 -38.5
q43 -25 65.5 -37.5t43.5 -12.5q27 0 54 22.5t52 76.5l76 -60q-19 -71 -51.5 -123.5t-71 -82t-77.5 -29.5q-25 0 -55 13t-82 44q-44 26 -62 35t-37 9q-28 0 -57 -21t-60 -80z" />
    <glyph glyph-name="otilde" unicode="&#xf5;" horiz-adv-x="1009" 
d="M504 -26q-120 0 -210 56.5t-134.5 170t-28.5 281.5q16 172 82.5 285.5t167 170t218.5 56.5t207.5 -57t134.5 -170.5t28 -284.5q-16 -168 -82.5 -281.5t-165.5 -170t-217 -56.5zM514 162q102 0 173 82.5t86 237.5q16 159 -33.5 242t-152.5 83t-173 -82.5t-86 -242.5
q-10 -103 8.5 -174.5t64 -108.5t113.5 -37zM423 1187l-72 52q34 119 89 181t120 62q25 0 51.5 -10.5t73.5 -38.5q43 -25 65.5 -37.5t43.5 -12.5q27 0 54 22.5t52 76.5l76 -60q-19 -71 -51.5 -123.5t-71 -82t-77.5 -29.5q-25 0 -55 13t-82 44q-44 26 -62 35t-37 9
q-28 0 -57 -21t-60 -80z" />
    <glyph glyph-name="Atilde" unicode="&#xc3;" horiz-adv-x="1102" 
d="M42 0l516 1288h243l261 -1288h-206l-58 290h-437l-114 -290h-205zM425 454h341l-115 576zM476 1507l-72 52q34 119 89 181t120 62q25 0 51.5 -10.5t73.5 -38.5q43 -25 65.5 -37.5t43.5 -12.5q27 0 54 22.5t52 76.5l76 -60q-19 -71 -51.5 -123.5t-71 -82t-77.5 -29.5
q-25 0 -55 13t-82 44q-44 26 -62 35t-37 9q-28 0 -57 -21t-60 -80z" />
    <glyph glyph-name="Ntilde" unicode="&#xd1;" horiz-adv-x="1275" 
d="M168 0l121 1288h214l472 -999l-38 3l95 996h194l-121 -1288h-200l-488 1019l41 -3l-96 -1016h-194zM562 1507l-72 52q34 119 89 181t120 62q25 0 51.5 -10.5t73.5 -38.5q43 -25 65.5 -37.5t43.5 -12.5q27 0 54 22.5t52 76.5l76 -60q-19 -71 -51.5 -123.5t-71 -82
t-77.5 -29.5q-25 0 -55 13t-82 44q-44 26 -62 35t-37 9q-28 0 -57 -21t-60 -80z" />
    <glyph glyph-name="Otilde" unicode="&#xd5;" horiz-adv-x="1213" 
d="M602 -26q-153 0 -262.5 74.5t-161.5 224t-30 371.5q20 226 100 374.5t204.5 221.5t276.5 73q153 0 263 -75t163 -223.5t32 -370.5q-22 -225 -102.5 -373.5t-205 -222.5t-277.5 -74zM620 170q147 0 245.5 122t119.5 354q22 225 -53 349t-222 124q-145 0 -243 -124.5
t-118 -350.5q-23 -231 52 -352.5t219 -121.5zM531 1507l-72 52q34 119 89 181t120 62q25 0 51.5 -10.5t73.5 -38.5q43 -25 65.5 -37.5t43.5 -12.5q27 0 54 22.5t52 76.5l76 -60q-19 -71 -51.5 -123.5t-71 -82t-77.5 -29.5q-25 0 -55 13t-82 44q-44 26 -62 35t-37 9
q-28 0 -57 -21t-60 -80z" />
    <glyph glyph-name="Abreve" unicode="&#x102;" horiz-adv-x="1102" 
d="M42 0l516 1288h243l261 -1288h-206l-58 290h-437l-114 -290h-205zM425 454h341l-115 576zM673 1478q-141 0 -211.5 79.5t-51.5 214.5h168q-11 -75 20 -114.5t94 -39.5q64 0 105.5 39.5t52.5 114.5h168q-17 -137 -110 -215.5t-235 -78.5z" />
    <glyph glyph-name="Amacron" unicode="&#x100;" horiz-adv-x="1102" 
d="M42 0l516 1288h243l261 -1288h-206l-58 290h-437l-114 -290h-205zM425 454h341l-115 576zM383 1661h671l-26 -173h-671z" />
    <glyph glyph-name="Aogonek" unicode="&#x104;" horiz-adv-x="1102" 
d="M42 0l516 1288h243l261 -1288h-206l-58 290h-437l-114 -290h-205zM425 454h341l-115 576zM1175 -324q-63 -35 -131.5 -53.5t-132.5 -18.5q-104 0 -171 47.5t-67 133.5q0 74 55.5 144t164.5 113l155 -39q-106 -39 -168 -83.5t-62 -97.5q0 -41 34 -58t77 -17q44 0 90 14.5
t107 46.5z" />
    <glyph glyph-name="Aring" unicode="&#xc5;" horiz-adv-x="1102" 
d="M42 0l516 1288h243l261 -1288h-206l-58 290h-437l-114 -290h-205zM425 454h341l-115 576zM700 1410q-62 0 -113.5 31t-82 82.5t-30.5 112.5q0 62 30.5 113.5t82 82t113.5 30.5t113.5 -30.5t82 -82t30.5 -113.5q0 -61 -30.5 -112.5t-82 -82.5t-113.5 -31zM700 1553
q35 0 59 24t24 59t-24 59t-59 24t-59 -24t-24 -59t24 -59t59 -24z" />
    <glyph glyph-name="AE" unicode="&#xc6;" horiz-adv-x="1541" 
d="M42 0l520 1288h961l-14 -187h-598l82 57l-45 -485l-74 65h565l-15 -186h-565l83 53l-46 -488l-75 72h603l-18 -189h-720l32 350l42 -26h-433l59 28l-139 -352h-205zM724 408l70 747l41 -54h-190l58 54l-293 -742l-25 75h388z" />
    <glyph glyph-name="Cacute" unicode="&#x106;" horiz-adv-x="1132" 
d="M584 -26q-154 0 -258.5 81.5t-151.5 232.5t-26 360q20 217 99 365t199 224t264 76q199 0 302.5 -108t121.5 -280l-211 -43q-20 106 -79 170.5t-152 64.5q-80 0 -151 -52t-120.5 -156.5t-64.5 -260.5q-13 -146 10 -253t82 -165.5t154 -58.5q119 0 193 70.5t85 181.5h209
q-14 -143 -80 -243t-174.5 -153t-250.5 -53zM586 1446l-38 135l492 265l52 -188z" />
    <glyph glyph-name="Ccaron" unicode="&#x10c;" horiz-adv-x="1132" 
d="M584 -26q-154 0 -258.5 81.5t-151.5 232.5t-26 360q20 217 99 365t199 224t264 76q199 0 302.5 -108t121.5 -280l-211 -43q-20 106 -79 170.5t-152 64.5q-80 0 -151 -52t-120.5 -156.5t-64.5 -260.5q-13 -146 10 -253t82 -165.5t154 -58.5q119 0 193 70.5t85 181.5h209
q-14 -143 -80 -243t-174.5 -153t-250.5 -53zM1007 1882l111 -108l-390 -320l-333 320l135 108l218 -206z" />
    <glyph glyph-name="Ccedilla" unicode="&#xc7;" horiz-adv-x="1132" 
d="M584 -26q-154 0 -258.5 81.5t-151.5 232.5t-26 360q20 217 99 365t199 224t264 76q199 0 302.5 -108t121.5 -280l-211 -43q-20 106 -79 170.5t-152 64.5q-80 0 -151 -52t-120.5 -156.5t-64.5 -260.5q-13 -146 10 -253t82 -165.5t154 -58.5q119 0 193 70.5t85 181.5h209
q-14 -143 -80 -243t-174.5 -153t-250.5 -53zM413 -364l25 78q73 -35 128 -39.5t86 14t32 51.5q1 30 -25.5 53t-70 40t-98.5 29l62 210l100 -13l-56 -192l-37 60q96 -17 158.5 -46.5t92.5 -68.5t30 -84q0 -58 -42.5 -93t-109 -46.5t-140 0t-135.5 47.5z" />
    <glyph glyph-name="Cdotaccent" unicode="&#x10a;" horiz-adv-x="1132" 
d="M584 -26q-154 0 -258.5 81.5t-151.5 232.5t-26 360q20 217 99 365t199 224t264 76q199 0 302.5 -108t121.5 -280l-211 -43q-20 106 -79 170.5t-152 64.5q-80 0 -151 -52t-120.5 -156.5t-64.5 -260.5q-13 -146 10 -253t82 -165.5t154 -58.5q119 0 193 70.5t85 181.5h209
q-14 -143 -80 -243t-174.5 -153t-250.5 -53zM744 1544q-51 0 -81.5 34.5t-25.5 86.5q4 50 41 88t93 38q47 0 77 -34t25 -88q-6 -58 -42 -91.5t-87 -33.5z" />
    <glyph glyph-name="Dcaron" unicode="&#x10e;" horiz-adv-x="1223" 
d="M291 1288h368q176 0 300.5 -79.5t184 -224t41.5 -340.5q-19 -196 -105.5 -340.5t-226 -224t-316.5 -79.5h-367zM466 1093l-83 -899h173q116 0 206 58.5t145 160t68 231.5t-23.5 231.5t-116.5 159.5t-196 58h-173zM1029 1882l111 -108l-390 -320l-333 320l135 108
l218 -206z" />
    <glyph glyph-name="Dcroat" unicode="&#x110;" horiz-adv-x="1223" 
d="M120 746h558l-22 -195h-560zM291 1288h368q176 0 300.5 -79.5t184 -224t41.5 -340.5q-19 -196 -105.5 -340.5t-226 -224t-316.5 -79.5h-367zM466 1093l-83 -899h173q116 0 206 58.5t145 160t68 231.5t-23.5 231.5t-116.5 159.5t-196 58h-173z" />
    <glyph glyph-name="Eth" unicode="&#xd0;" horiz-adv-x="1223" 
d="M120 746h558l-22 -195h-560zM291 1288h368q176 0 300.5 -79.5t184 -224t41.5 -340.5q-19 -196 -105.5 -340.5t-226 -224t-316.5 -79.5h-367zM466 1093l-83 -899h173q116 0 206 58.5t145 160t68 231.5t-23.5 231.5t-116.5 159.5t-196 58h-173z" />
    <glyph glyph-name="Ecaron" unicode="&#x11a;" horiz-adv-x="1043" 
d="M170 0l121 1288h738l-19 -187h-544l-34 -363h510l-18 -186h-510l-34 -363h544l-17 -189h-737zM939 1882l111 -108l-390 -320l-333 320l135 108l218 -206z" />
    <glyph glyph-name="Edotaccent" unicode="&#x116;" horiz-adv-x="1043" 
d="M170 0l121 1288h738l-19 -187h-544l-34 -363h510l-18 -186h-510l-34 -363h544l-17 -189h-737zM677 1544q-51 0 -81.5 34.5t-25.5 86.5q4 50 41 88t93 38q47 0 77 -34t25 -88q-6 -58 -42 -91.5t-87 -33.5z" />
    <glyph glyph-name="Emacron" unicode="&#x112;" horiz-adv-x="1043" 
d="M170 0l121 1288h738l-19 -187h-544l-34 -363h510l-18 -186h-510l-34 -363h544l-17 -189h-737zM353 1661h671l-26 -173h-671z" />
    <glyph glyph-name="Eogonek" unicode="&#x118;" horiz-adv-x="1043" 
d="M170 0l121 1288h738l-19 -187h-544l-34 -363h510l-18 -186h-510l-34 -363h544l-17 -189h-737zM977 -322q-63 -35 -131.5 -53.5t-132.5 -18.5q-104 0 -171 47.5t-67 133.5q0 74 55.5 144t164.5 113l155 -39q-106 -39 -168 -83.5t-62 -97.5q0 -41 34 -58t77 -17
q44 0 90 14.5t107 46.5z" />
    <glyph glyph-name="Gbreve" unicode="&#x11e;" horiz-adv-x="1203" 
d="M586 -26q-140 0 -246.5 82t-159.5 230.5t-34 348.5q15 160 69 285.5t137 213t186.5 133t219.5 45.5q155 0 256.5 -74.5t149.5 -233.5l-201 -55q-41 83 -99.5 125.5t-135.5 42.5q-89 0 -170 -58t-136 -166.5t-69 -257.5q-13 -138 16 -242t93.5 -162t158.5 -58
q76 0 141 35.5t108 106t52 172.5q3 17 2 32.5t-4 42.5l49 -54l-313 9l13 139h455l-60 -656h-158q-1 61 -1 122.5t-2 121.5l13 3q-45 -129 -126.5 -201t-203.5 -72zM723 1478q-141 0 -211.5 79.5t-51.5 214.5h168q-11 -75 20 -114.5t94 -39.5q64 0 105.5 39.5t52.5 114.5h168
q-17 -137 -110 -215.5t-235 -78.5z" />
    <glyph glyph-name="uni0122" unicode="&#x122;" horiz-adv-x="1203" 
d="M586 -26q-140 0 -246.5 82t-159.5 230.5t-34 348.5q15 160 69 285.5t137 213t186.5 133t219.5 45.5q155 0 256.5 -74.5t149.5 -233.5l-201 -55q-41 83 -99.5 125.5t-135.5 42.5q-89 0 -170 -58t-136 -166.5t-69 -257.5q-13 -138 16 -242t93.5 -162t158.5 -58
q76 0 141 35.5t108 106t52 172.5q3 17 2 32.5t-4 42.5l49 -54l-313 9l13 139h455l-60 -656h-158q-1 61 -1 122.5t-2 121.5l13 3q-45 -129 -126.5 -201t-203.5 -72zM466 -465l-106 63q48 25 85.5 58t52.5 77q-37 7 -61.5 33t-20.5 69q5 44 37.5 74.5t79.5 30.5q59 0 87.5 -47
t22.5 -110q-7 -69 -53 -137.5t-124 -110.5z" />
    <glyph glyph-name="Gdotaccent" unicode="&#x120;" horiz-adv-x="1203" 
d="M586 -26q-140 0 -246.5 82t-159.5 230.5t-34 348.5q15 160 69 285.5t137 213t186.5 133t219.5 45.5q155 0 256.5 -74.5t149.5 -233.5l-201 -55q-41 83 -99.5 125.5t-135.5 42.5q-89 0 -170 -58t-136 -166.5t-69 -257.5q-13 -138 16 -242t93.5 -162t158.5 -58
q76 0 141 35.5t108 106t52 172.5q3 17 2 32.5t-4 42.5l49 -54l-313 9l13 139h455l-60 -656h-158q-1 61 -1 122.5t-2 121.5l13 3q-45 -129 -126.5 -201t-203.5 -72zM757 1544q-51 0 -81.5 34.5t-25.5 86.5q4 50 41 88t93 38q47 0 77 -34t25 -88q-6 -58 -42 -91.5t-87 -33.5z
" />
    <glyph glyph-name="Hbar" unicode="&#x126;" horiz-adv-x="1253" 
d="M172 0l121 1288h194l-64 -672l-40 28h612l-50 -25l63 669h195l-122 -1288h-194l49 518l41 -34h-612l49 34l-48 -518h-194zM312 789l28 160h766l-27 -160h-767z" />
    <glyph glyph-name="IJ" unicode="&#x132;" horiz-adv-x="1318" 
d="M172 0l121 1288h194l-121 -1288h-194zM566 56l21 218q65 -47 130.5 -69t124.5 -22q83 0 124.5 53t50.5 158l84 894h197l-85 -894q-15 -152 -66 -244.5t-130.5 -134t-177.5 -41.5q-78 0 -145.5 23t-127.5 59z" />
    <glyph glyph-name="Idotaccent" unicode="&#x130;" horiz-adv-x="537" 
d="M172 0l121 1288h194l-121 -1288h-194zM424 1544q-51 0 -81.5 34.5t-25.5 86.5q4 50 41 88t93 38q47 0 77 -34t25 -88q-6 -58 -42 -91.5t-87 -33.5z" />
    <glyph glyph-name="Imacron" unicode="&#x12a;" horiz-adv-x="537" 
d="M172 0l121 1288h194l-121 -1288h-194zM170 1661h504l-20 -173h-503z" />
    <glyph glyph-name="Iogonek" unicode="&#x12e;" horiz-adv-x="537" 
d="M172 0l121 1288h194l-121 -1288h-194zM493 -327q-63 -35 -131.5 -53.5t-132.5 -18.5q-104 0 -171 47.5t-67 133.5q0 74 55.5 144t164.5 113l155 -39q-106 -39 -168 -83.5t-62 -97.5q0 -41 34 -58t77 -17q44 0 90 14.5t107 46.5z" />
    <glyph glyph-name="uni0136" unicode="&#x136;" horiz-adv-x="1157" 
d="M293 1288h196l-51 -546l522 546h268l-563 -579l475 -709h-252l-369 558l-109 -112l-42 -446h-196zM443 -465l-106 63q48 25 85.5 58t52.5 77q-37 7 -61.5 33t-20.5 69q5 44 37.5 74.5t79.5 30.5q59 0 87.5 -47t22.5 -110q-7 -69 -53 -137.5t-124 -110.5z" />
    <glyph glyph-name="Lacute" unicode="&#x139;" horiz-adv-x="878" 
d="M172 0l121 1288h194l-105 -1099h486l-16 -189h-680zM436 1446l-38 135l492 265l52 -188z" />
    <glyph glyph-name="Lcaron" unicode="&#x13d;" horiz-adv-x="878" 
d="M172 0l121 1288h194l-105 -1099h486l-16 -189h-680zM803 883l-105 63q48 25 85 58t53 77q-38 7 -62.5 33t-20.5 69q5 44 38 74.5t80 30.5q58 0 87 -47t23 -110q-7 -69 -53.5 -137.5t-124.5 -110.5z" />
    <glyph glyph-name="uni013B" unicode="&#x13b;" horiz-adv-x="878" 
d="M172 0l121 1288h194l-105 -1099h486l-16 -189h-680zM375 -465l-106 63q48 25 85.5 58t52.5 77q-37 7 -61.5 33t-20.5 69q5 44 37.5 74.5t79.5 30.5q59 0 87.5 -47t22.5 -110q-7 -69 -53 -137.5t-124 -110.5z" />
    <glyph glyph-name="Lslash" unicode="&#x141;" horiz-adv-x="878" 
d="M89 629l-1 181l544 88l1 -180zM172 0l121 1288h194l-105 -1099h486l-16 -189h-680z" />
    <glyph glyph-name="Nacute" unicode="&#x143;" horiz-adv-x="1275" 
d="M168 0l121 1288h214l472 -999l-38 3l95 996h194l-121 -1288h-200l-488 1019l41 -3l-96 -1016h-194zM635 1446l-38 135l492 265l52 -188z" />
    <glyph glyph-name="Ncaron" unicode="&#x147;" horiz-adv-x="1275" 
d="M168 0l121 1288h214l472 -999l-38 3l95 996h194l-121 -1288h-200l-488 1019l41 -3l-96 -1016h-194zM1055 1882l111 -108l-390 -320l-333 320l135 108l218 -206z" />
    <glyph glyph-name="uni0145" unicode="&#x145;" horiz-adv-x="1275" 
d="M168 0l121 1288h214l472 -999l-38 3l95 996h194l-121 -1288h-200l-488 1019l41 -3l-96 -1016h-194zM572 -465l-106 63q48 25 85.5 58t52.5 77q-37 7 -61.5 33t-20.5 69q5 44 37.5 74.5t79.5 30.5q59 0 87.5 -47t22.5 -110q-7 -69 -53 -137.5t-124 -110.5z" />
    <glyph glyph-name="Eng" unicode="&#x14a;" horiz-adv-x="1269" 
d="M452 -404l21 217q65 -47 130.5 -68.5t124.5 -21.5q83 0 126 53t52 157l84 894h192l-83 -893q-14 -152 -65.5 -244.5t-130.5 -134.5t-177 -42q-79 0 -146 23.5t-128 59.5zM168 0l121 1288h214l472 -999l-38 3l95 996h194l-121 -1288l-182 -40l-506 1059l41 -3l-96 -1016
h-194z" />
    <glyph glyph-name="Ohungarumlaut" unicode="&#x150;" horiz-adv-x="1213" 
d="M602 -26q-153 0 -262.5 74.5t-161.5 224t-30 371.5q20 226 100 374.5t204.5 221.5t276.5 73q153 0 263 -75t163 -223.5t32 -370.5q-22 -225 -102.5 -373.5t-205 -222.5t-277.5 -74zM620 170q147 0 245.5 122t119.5 354q22 225 -53 349t-222 124q-145 0 -243 -124.5
t-118 -350.5q-23 -231 52 -352.5t219 -121.5zM911 1423l-108 19l33 334l151 -33zM652 1437l-110 14l13 338l154 -25z" />
    <glyph glyph-name="Omacron" unicode="&#x14c;" horiz-adv-x="1213" 
d="M602 -26q-153 0 -262.5 74.5t-161.5 224t-30 371.5q20 226 100 374.5t204.5 221.5t276.5 73q153 0 263 -75t163 -223.5t32 -370.5q-22 -225 -102.5 -373.5t-205 -222.5t-277.5 -74zM620 170q147 0 245.5 122t119.5 354q22 225 -53 349t-222 124q-145 0 -243 -124.5
t-118 -350.5q-23 -231 52 -352.5t219 -121.5zM438 1661h671l-26 -173h-671z" />
    <glyph glyph-name="Oslash" unicode="&#xd8;" horiz-adv-x="1217" 
d="M-13 0l1161 1286h194l-1164 -1286h-191zM606 -26q-152 0 -262 74.5t-162 224t-30 371.5q20 226 100 374.5t204.5 221.5t276.5 73q153 0 263 -75t163 -223.5t32 -370.5q-22 -225 -102.5 -373.5t-204.5 -222.5t-278 -74zM624 170q147 0 245.5 122t119.5 354q22 225 -53 349
t-222 124q-145 0 -243 -124.5t-118 -350.5q-23 -231 52 -352.5t219 -121.5z" />
    <glyph glyph-name="OE" unicode="&#x152;" horiz-adv-x="1813" 
d="M602 -26q-153 0 -262.5 74.5t-161.5 224t-30 371.5q20 226 100 374.5t204.5 221.5t276.5 73q153 0 263 -75t163 -223.5t32 -370.5q-22 -225 -102.5 -373.5t-205 -222.5t-277.5 -74zM620 170q147 0 245.5 122t119.5 354q22 225 -53 349t-222 124q-145 0 -243 -124.5
t-118 -350.5q-23 -231 52 -352.5t219 -121.5zM940 0l122 1288h738l-19 -187h-544l-34 -363h510l-18 -186h-510l-34 -363h544l-17 -189h-738z" />
    <glyph glyph-name="Thorn" unicode="&#xde;" horiz-adv-x="1034" 
d="M166 0l121 1288h195l-24 -254l-41 45h260q130 0 217.5 -48t127 -139t27.5 -221q-18 -190 -136.5 -297.5t-312.5 -107.5h-249l40 48l-29 -314h-196zM398 393l-45 61h266q102 0 161 61t68 156q9 98 -39 160t-150 62h-265l57 67z" />
    <glyph glyph-name="Racute" unicode="&#x154;" horiz-adv-x="1146" 
d="M172 0l121 1288h422q205 0 305 -107.5t83 -284.5q-15 -140 -95 -237.5t-219 -133.5l267 -525h-252l-220 508h-172l-46 -508h-194zM425 654h211q119 0 187 62t77 161q9 102 -42.5 163t-161.5 61h-228zM570 1446l-38 135l492 265l52 -188z" />
    <glyph glyph-name="Rcaron" unicode="&#x158;" horiz-adv-x="1146" 
d="M172 0l121 1288h422q205 0 305 -107.5t83 -284.5q-15 -140 -95 -237.5t-219 -133.5l267 -525h-252l-220 508h-172l-46 -508h-194zM425 654h211q119 0 187 62t77 161q9 102 -42.5 163t-161.5 61h-228zM991 1882l111 -108l-390 -320l-333 320l135 108l218 -206z" />
    <glyph glyph-name="uni0156" unicode="&#x156;" horiz-adv-x="1146" 
d="M172 0l121 1288h422q205 0 305 -107.5t83 -284.5q-15 -140 -95 -237.5t-219 -133.5l267 -525h-252l-220 508h-172l-46 -508h-194zM425 654h211q119 0 187 62t77 161q9 102 -42.5 163t-161.5 61h-228zM438 -465l-106 63q48 25 85.5 58t52.5 77q-37 7 -61.5 33t-20.5 69
q5 44 37.5 74.5t79.5 30.5q59 0 87.5 -47t22.5 -110q-7 -69 -53 -137.5t-124 -110.5z" />
    <glyph glyph-name="Sacute" unicode="&#x15a;" horiz-adv-x="1133" 
d="M562 -26q-118 0 -214.5 46.5t-149.5 140.5t-43 238h193q-8 -79 21.5 -128.5t85 -73.5t124.5 -24t124 21t89 59t39 89q7 69 -26.5 109t-109.5 71l-215 97q-131 57 -196 133t-53 212q16 155 135 252t317 97q189 0 285 -99t95 -271h-192q-5 79 -54.5 126.5t-152.5 47.5
q-96 0 -154.5 -45t-66.5 -114q-5 -56 26.5 -90.5t102.5 -63.5l240 -105q122 -53 184.5 -137.5t50.5 -212.5q-11 -113 -71 -197t-165 -131t-249 -47zM564 1446l-38 135l492 265l52 -188z" />
    <glyph glyph-name="Scaron" unicode="&#x160;" horiz-adv-x="1133" 
d="M562 -26q-118 0 -214.5 46.5t-149.5 140.5t-43 238h193q-8 -79 21.5 -128.5t85 -73.5t124.5 -24t124 21t89 59t39 89q7 69 -26.5 109t-109.5 71l-215 97q-131 57 -196 133t-53 212q16 155 135 252t317 97q189 0 285 -99t95 -271h-192q-5 79 -54.5 126.5t-152.5 47.5
q-96 0 -154.5 -45t-66.5 -114q-5 -56 26.5 -90.5t102.5 -63.5l240 -105q122 -53 184.5 -137.5t50.5 -212.5q-11 -113 -71 -197t-165 -131t-249 -47zM984 1882l111 -108l-390 -320l-333 320l135 108l218 -206z" />
    <glyph glyph-name="Scedilla" unicode="&#x15e;" horiz-adv-x="1133" 
d="M562 -26q-118 0 -214.5 46.5t-149.5 140.5t-43 238h193q-8 -79 21.5 -128.5t85 -73.5t124.5 -24t124 21t89 59t39 89q7 69 -26.5 109t-109.5 71l-215 97q-131 57 -196 133t-53 212q16 155 135 252t317 97q189 0 285 -99t95 -271h-192q-5 79 -54.5 126.5t-152.5 47.5
q-96 0 -154.5 -45t-66.5 -114q-5 -56 26.5 -90.5t102.5 -63.5l240 -105q122 -53 184.5 -137.5t50.5 -212.5q-11 -113 -71 -197t-165 -131t-249 -47zM389 -364l25 78q73 -35 128 -39.5t86 14t32 51.5q1 30 -25.5 53t-70 40t-98.5 29l62 210l100 -13l-56 -192l-37 60
q96 -17 158.5 -46.5t92.5 -68.5t30 -84q0 -58 -42.5 -93t-109 -46.5t-140 0t-135.5 47.5z" />
    <glyph glyph-name="uni0218" unicode="&#x218;" horiz-adv-x="1133" 
d="M562 -26q-118 0 -214.5 46.5t-149.5 140.5t-43 238h193q-8 -79 21.5 -128.5t85 -73.5t124.5 -24t124 21t89 59t39 89q7 69 -26.5 109t-109.5 71l-215 97q-131 57 -196 133t-53 212q16 155 135 252t317 97q189 0 285 -99t95 -271h-192q-5 79 -54.5 126.5t-152.5 47.5
q-96 0 -154.5 -45t-66.5 -114q-5 -56 26.5 -90.5t102.5 -63.5l240 -105q122 -53 184.5 -137.5t50.5 -212.5q-11 -113 -71 -197t-165 -131t-249 -47zM560 -465l-106 63q48 25 85.5 58t52.5 77q-37 7 -61.5 33t-20.5 69q5 44 37.5 74.5t79.5 30.5q59 0 87.5 -47t22.5 -110
q-7 -69 -53 -137.5t-124 -110.5z" />
    <glyph glyph-name="uni1E9E" unicode="&#x1e9e;" horiz-adv-x="1310" 
d="M1279 389q0 -106 -49 -201.5t-145 -155t-237 -59.5q-70 0 -118.5 8.5t-116.5 34.5l15 170q64 -21 112.5 -34.5t103.5 -13.5q85 0 134 37.5t70 89t21 94.5q0 98 -57.5 150.5t-197.5 52.5h-120l11 123l287 418h-529l-100 -1103h-192l117 1285h941l-14 -163l-284 -403
q90 0 169.5 -34t129 -106t49.5 -190z" />
    <glyph glyph-name="Tbar" unicode="&#x166;" horiz-adv-x="944" 
d="M207 790h671l-26 -173h-671zM374 0l104 1101h-363l18 187h922l-19 -187h-364l-104 -1101h-194z" />
    <glyph glyph-name="Tcaron" unicode="&#x164;" horiz-adv-x="944" 
d="M374 0l104 1101h-363l18 187h922l-19 -187h-364l-104 -1101h-194zM890 1882l111 -108l-390 -320l-333 320l135 108l218 -206z" />
    <glyph glyph-name="uni0162" unicode="&#x162;" horiz-adv-x="944" 
d="M374 0l104 1101h-363l18 187h922l-19 -187h-364l-104 -1101h-194zM240 -364l25 78q73 -35 128 -39.5t86 14t32 51.5q1 30 -25.5 53t-70 40t-98.5 29l62 210l100 -13l-56 -192l-37 60q96 -17 158.5 -46.5t92.5 -68.5t30 -84q0 -58 -42.5 -93t-109 -46.5t-140 0
t-135.5 47.5z" />
    <glyph glyph-name="uni021A" unicode="&#x21a;" horiz-adv-x="944" 
d="M374 0l104 1101h-363l18 187h922l-19 -187h-364l-104 -1101h-194zM411 -465l-106 63q48 25 85.5 58t52.5 77q-37 7 -61.5 33t-20.5 69q5 44 37.5 74.5t79.5 30.5q59 0 87.5 -47t22.5 -110q-7 -69 -53 -137.5t-124 -110.5z" />
    <glyph glyph-name="Ubreve" unicode="&#x16c;" horiz-adv-x="1226" 
d="M611 -26q-217 0 -327.5 132t-88.5 375l78 807h194l-78 -807q-15 -164 53 -236t186 -72q119 0 200.5 72t96.5 236l78 807h194l-77 -807q-15 -162 -81.5 -275.5t-175.5 -172.5t-252 -59zM735 1478q-141 0 -211.5 79.5t-51.5 214.5h168q-11 -75 20 -114.5t94 -39.5
q64 0 105.5 39.5t52.5 114.5h168q-17 -137 -110 -215.5t-235 -78.5z" />
    <glyph glyph-name="Uhungarumlaut" unicode="&#x170;" horiz-adv-x="1226" 
d="M611 -26q-217 0 -327.5 132t-88.5 375l78 807h194l-78 -807q-15 -164 53 -236t186 -72q119 0 200.5 72t96.5 236l78 807h194l-77 -807q-15 -162 -81.5 -275.5t-175.5 -172.5t-252 -59zM919 1423l-108 19l33 334l151 -33zM660 1437l-110 14l13 338l154 -25z" />
    <glyph glyph-name="Umacron" unicode="&#x16a;" horiz-adv-x="1226" 
d="M611 -26q-217 0 -327.5 132t-88.5 375l78 807h194l-78 -807q-15 -164 53 -236t186 -72q119 0 200.5 72t96.5 236l78 807h194l-77 -807q-15 -162 -81.5 -275.5t-175.5 -172.5t-252 -59zM445 1661h671l-26 -173h-671z" />
    <glyph glyph-name="Uogonek" unicode="&#x172;" horiz-adv-x="1226" 
d="M611 -26q-217 0 -327.5 132t-88.5 375l78 807h194l-78 -807q-15 -164 53 -236t186 -72q119 0 200.5 72t96.5 236l78 807h194l-77 -807q-15 -162 -81.5 -275.5t-175.5 -172.5t-252 -59zM896 -331q-63 -35 -131.5 -53.5t-132.5 -18.5q-104 0 -171 47.5t-67 133.5
q0 74 55.5 144t164.5 113l155 -39q-106 -39 -168 -83.5t-62 -97.5q0 -41 34 -58t77 -17q44 0 90 14.5t107 46.5z" />
    <glyph glyph-name="Uring" unicode="&#x16e;" horiz-adv-x="1226" 
d="M611 -26q-217 0 -327.5 132t-88.5 375l78 807h194l-78 -807q-15 -164 53 -236t186 -72q119 0 200.5 72t96.5 236l78 807h194l-77 -807q-15 -162 -81.5 -275.5t-175.5 -172.5t-252 -59zM762 1410q-62 0 -113.5 31t-82 82.5t-30.5 112.5q0 62 30.5 113.5t82 82t113.5 30.5
t113.5 -30.5t82 -82t30.5 -113.5q0 -61 -30.5 -112.5t-82 -82.5t-113.5 -31zM762 1553q35 0 59 24t24 59t-24 59t-59 24t-59 -24t-24 -59t24 -59t59 -24z" />
    <glyph glyph-name="Wacute" unicode="&#x1e82;" horiz-adv-x="1705" 
d="M154 1288h218l165 -1001l344 903h132l181 -907l382 1005h218l-522 -1288h-205l-155 751l-300 -751h-203zM850 1446l-38 135l492 265l52 -188z" />
    <glyph glyph-name="Wcircumflex" unicode="&#x174;" horiz-adv-x="1705" 
d="M154 1288h218l165 -1001l344 903h132l181 -907l382 1005h218l-522 -1288h-205l-155 751l-300 -751h-203zM746 1444l-111 107l390 320l333 -320l-135 -107l-218 206z" />
    <glyph glyph-name="Wdieresis" unicode="&#x1e84;" horiz-adv-x="1705" 
d="M154 1288h218l165 -1001l344 903h132l181 -907l382 1005h218l-522 -1288h-205l-155 751l-300 -751h-203zM840 1542q-53 0 -82.5 35t-24.5 87q4 51 39.5 88t90.5 37q47 0 79 -33t29 -88q-5 -58 -44.5 -92t-86.5 -34zM1175 1544q-51 0 -81 34.5t-25 86.5q4 50 40.5 88
t89.5 38q47 0 78 -33t28 -89q-5 -61 -43.5 -93t-86.5 -32z" />
    <glyph glyph-name="Wgrave" unicode="&#x1e80;" horiz-adv-x="1705" 
d="M154 1288h218l165 -1001l344 903h132l181 -907l382 1005h218l-522 -1288h-205l-155 751l-300 -751h-203zM1194 1404l-465 212l90 188l441 -265z" />
    <glyph glyph-name="Yacute" unicode="&#xdd;" horiz-adv-x="1062" 
d="M427 0l50 531l-329 757h231l217 -534l332 534h228l-485 -757l-49 -531h-195zM528 1446l-38 135l492 265l52 -188z" />
    <glyph glyph-name="Ycircumflex" unicode="&#x176;" horiz-adv-x="1062" 
d="M427 0l50 531l-329 757h231l217 -534l332 534h228l-485 -757l-49 -531h-195zM425 1444l-111 107l390 320l333 -320l-135 -107l-218 206z" />
    <glyph glyph-name="Ydieresis" unicode="&#x178;" horiz-adv-x="1062" 
d="M427 0l50 531l-329 757h231l217 -534l332 534h228l-485 -757l-49 -531h-195zM519 1542q-53 0 -82.5 35t-24.5 87q4 51 39.5 88t90.5 37q47 0 79 -33t29 -88q-5 -58 -44.5 -92t-86.5 -34zM854 1544q-51 0 -81 34.5t-25 86.5q4 50 40.5 88t89.5 38q47 0 78 -33t28 -89
q-5 -61 -43.5 -93t-86.5 -32z" />
    <glyph glyph-name="Ygrave" unicode="&#x1ef2;" horiz-adv-x="1062" 
d="M427 0l50 531l-329 757h231l217 -534l332 534h228l-485 -757l-49 -531h-195zM872 1404l-465 212l90 188l441 -265z" />
    <glyph glyph-name="Zacute" unicode="&#x179;" horiz-adv-x="1115" 
d="M132 0l16 188l712 899l-627 3l20 198h871l-19 -187l-710 -900l624 -4l-17 -197h-870zM555 1446l-38 135l492 265l52 -188z" />
    <glyph glyph-name="Zcaron" unicode="&#x17d;" horiz-adv-x="1115" 
d="M132 0l16 188l712 899l-627 3l20 198h871l-19 -187l-710 -900l624 -4l-17 -197h-870zM976 1882l111 -108l-390 -320l-333 320l135 108l218 -206z" />
    <glyph glyph-name="Zdotaccent" unicode="&#x17b;" horiz-adv-x="1115" 
d="M132 0l16 188l712 899l-627 3l20 198h871l-19 -187l-710 -900l624 -4l-17 -197h-870zM713 1544q-51 0 -81.5 34.5t-25.5 86.5q4 50 41 88t93 38q47 0 77 -34t25 -88q-6 -58 -42 -91.5t-87 -33.5z" />
    <glyph glyph-name="abreve" unicode="&#x103;" horiz-adv-x="1041" 
d="M435 -26q-108 0 -178.5 43t-102 113t-23.5 150q9 94 58.5 156.5t132.5 95t188 32.5q64 0 123.5 -11.5t114.5 -30.5l10 102q12 109 -24 160t-126 51q-53 0 -94.5 -17t-66.5 -50t-30 -82h-213q10 111 67 178.5t145 98.5t192 31q184 0 273 -92t71 -285l-58 -617h-168
q-1 35 -1 69.5t-1 69.5q-51 -82 -121 -123.5t-168 -41.5zM487 138q65 0 119 31.5t89 87t40 127.5q-46 15 -100.5 25t-102.5 10q-76 0 -132 -31.5t-62 -107.5q-5 -60 35 -101t114 -41zM597 1158q-141 0 -211.5 79.5t-51.5 214.5h168q-11 -75 20 -114.5t94 -39.5
q64 0 105.5 39.5t52.5 114.5h168q-17 -137 -110 -215.5t-235 -78.5z" />
    <glyph glyph-name="amacron" unicode="&#x101;" horiz-adv-x="1041" 
d="M435 -26q-108 0 -178.5 43t-102 113t-23.5 150q9 94 58.5 156.5t132.5 95t188 32.5q64 0 123.5 -11.5t114.5 -30.5l10 102q12 109 -24 160t-126 51q-53 0 -94.5 -17t-66.5 -50t-30 -82h-213q10 111 67 178.5t145 98.5t192 31q184 0 273 -92t71 -285l-58 -617h-168
q-1 35 -1 69.5t-1 69.5q-51 -82 -121 -123.5t-168 -41.5zM487 138q65 0 119 31.5t89 87t40 127.5q-46 15 -100.5 25t-102.5 10q-76 0 -132 -31.5t-62 -107.5q-5 -60 35 -101t114 -41zM307 1341h671l-26 -173h-671z" />
    <glyph glyph-name="aogonek" unicode="&#x105;" horiz-adv-x="1041" 
d="M435 -26q-108 0 -178.5 43t-102 113t-23.5 150q9 94 58.5 156.5t132.5 95t188 32.5q64 0 123.5 -11.5t114.5 -30.5l10 102q12 109 -24 160t-126 51q-53 0 -94.5 -17t-66.5 -50t-30 -82h-213q10 111 67 178.5t145 98.5t192 31q184 0 273 -92t71 -285l-58 -617h-168
q-1 35 -1 69.5t-1 69.5q-51 -82 -121 -123.5t-168 -41.5zM487 138q65 0 119 31.5t89 87t40 127.5q-46 15 -100.5 25t-102.5 10q-76 0 -132 -31.5t-62 -107.5q-5 -60 35 -101t114 -41zM1022 -327q-63 -35 -131.5 -53.5t-132.5 -18.5q-104 0 -171 47.5t-67 133.5
q0 74 55.5 144t164.5 113l155 -39q-106 -39 -168 -83.5t-62 -97.5q0 -41 34 -58t77 -17q44 0 90 14.5t107 46.5z" />
    <glyph glyph-name="aring" unicode="&#xe5;" horiz-adv-x="1041" 
d="M435 -26q-108 0 -178.5 43t-102 113t-23.5 150q9 94 58.5 156.5t132.5 95t188 32.5q64 0 123.5 -11.5t114.5 -30.5l10 102q12 109 -24 160t-126 51q-53 0 -94.5 -17t-66.5 -50t-30 -82h-213q10 111 67 178.5t145 98.5t192 31q184 0 273 -92t71 -285l-58 -617h-168
q-1 35 -1 69.5t-1 69.5q-51 -82 -121 -123.5t-168 -41.5zM487 138q65 0 119 31.5t89 87t40 127.5q-46 15 -100.5 25t-102.5 10q-76 0 -132 -31.5t-62 -107.5q-5 -60 35 -101t114 -41zM624 1090q-62 0 -113.5 31t-82 82.5t-30.5 112.5q0 62 30.5 113.5t82 82t113.5 30.5
t113.5 -30.5t82 -82t30.5 -113.5q0 -61 -30.5 -112.5t-82 -82.5t-113.5 -31zM624 1233q35 0 59 24t24 59t-24 59t-59 24t-59 -24t-24 -59t24 -59t59 -24z" />
    <glyph glyph-name="ae" unicode="&#xe6;" horiz-adv-x="1562" 
d="M131 280q8 89 57 152t131.5 97.5t188.5 34.5q69 0 133.5 -14.5t128.5 -37.5l-33 -35l15 147q12 111 -23.5 161t-121.5 50q-50 0 -91 -17t-66.5 -50t-30.5 -82h-213q10 112 67.5 179.5t145 98t186.5 30.5q122 0 194.5 -49t88.5 -160l-25 5q64 97 155 150.5t193 53.5
q87 0 151 -37t104 -100t54 -143.5t1 -167.5q-2 -28 -6.5 -56.5t-11.5 -57.5h-613l50 40q-13 -93 1.5 -166.5t58.5 -115.5t119 -42q66 0 114 35.5t66 103.5h196q-21 -93 -78 -164t-137 -110t-170 -39q-81 0 -147 32t-112.5 86.5t-70.5 123.5h27q-57 -122 -163.5 -182
t-214.5 -60q-95 0 -165 40t-105 109t-28 157zM340 280q-5 -60 35 -101t111 -41q51 0 95.5 21t78.5 59t53.5 88.5t19.5 110.5l21 -40q-49 16 -110 29t-113 13q-46 0 -88.5 -13.5t-70 -43.5t-32.5 -82zM944 530l-39 36h436q8 67 -3.5 125t-48 94t-104.5 36q-70 0 -121.5 -39.5
t-81 -106t-38.5 -145.5z" />
    <glyph glyph-name="cacute" unicode="&#x107;" horiz-adv-x="947" 
d="M493 -26q-109 0 -196.5 62.5t-133.5 177.5t-32 270q15 164 82.5 277.5t166.5 173t209 59.5q81 0 141 -29.5t101 -78t62 -109.5t24 -125l-198 -8q-10 68 -47.5 112t-103.5 44q-55 0 -106 -34t-87.5 -103.5t-46.5 -178.5q-10 -102 11 -172.5t66 -106.5t105 -36
q82 0 128 45.5t53 125.5h197q-9 -102 -60 -185t-136 -132t-199 -49zM486 1126l-38 135l492 265l52 -188z" />
    <glyph glyph-name="ccaron" unicode="&#x10d;" horiz-adv-x="947" 
d="M493 -26q-109 0 -196.5 62.5t-133.5 177.5t-32 270q15 164 82.5 277.5t166.5 173t209 59.5q81 0 141 -29.5t101 -78t62 -109.5t24 -125l-198 -8q-10 68 -47.5 112t-103.5 44q-55 0 -106 -34t-87.5 -103.5t-46.5 -178.5q-10 -102 11 -172.5t66 -106.5t105 -36
q82 0 128 45.5t53 125.5h197q-9 -102 -60 -185t-136 -132t-199 -49zM907 1562l111 -108l-390 -320l-333 320l135 108l218 -206z" />
    <glyph glyph-name="ccedilla" unicode="&#xe7;" horiz-adv-x="947" 
d="M493 -26q-109 0 -196.5 62.5t-133.5 177.5t-32 270q15 164 82.5 277.5t166.5 173t209 59.5q81 0 141 -29.5t101 -78t62 -109.5t24 -125l-198 -8q-10 68 -47.5 112t-103.5 44q-55 0 -106 -34t-87.5 -103.5t-46.5 -178.5q-10 -102 11 -172.5t66 -106.5t105 -36
q82 0 128 45.5t53 125.5h197q-9 -102 -60 -185t-136 -132t-199 -49zM308 -364l25 78q73 -35 128 -39.5t86 14t32 51.5q1 30 -25.5 53t-70 40t-98.5 29l62 210l100 -13l-56 -192l-37 60q96 -17 158.5 -46.5t92.5 -68.5t30 -84q0 -58 -42.5 -93t-109 -46.5t-140 0t-135.5 47.5
z" />
    <glyph glyph-name="cdotaccent" unicode="&#x10b;" horiz-adv-x="947" 
d="M493 -26q-109 0 -196.5 62.5t-133.5 177.5t-32 270q15 164 82.5 277.5t166.5 173t209 59.5q81 0 141 -29.5t101 -78t62 -109.5t24 -125l-198 -8q-10 68 -47.5 112t-103.5 44q-55 0 -106 -34t-87.5 -103.5t-46.5 -178.5q-10 -102 11 -172.5t66 -106.5t105 -36
q82 0 128 45.5t53 125.5h197q-9 -102 -60 -185t-136 -132t-199 -49zM645 1224q-51 0 -81.5 34.5t-25.5 86.5q4 50 41 88t93 38q47 0 77 -34t25 -88q-6 -58 -42 -91.5t-87 -33.5z" />
    <glyph glyph-name="dcaron" unicode="&#x10f;" horiz-adv-x="1097" 
d="M487 -26q-100 0 -180 54.5t-125.5 154t-45.5 230.5q0 110 30 213t86.5 186.5t136 132.5t179.5 49q85 0 145.5 -38.5t94.5 -112.5l50 526h196l-130 -1369h-158l-10 156q-49 -92 -120.5 -137t-148.5 -45zM534 169q49 0 100 30t88.5 85t43.5 133l14 139q1 9 1.5 15t0.5 14
q0 70 -25.5 117.5t-68.5 72.5t-94 25q-68 0 -117.5 -34t-80.5 -89t-46.5 -119t-15.5 -122q0 -122 55.5 -194.5t144.5 -72.5zM1223 986l-105 63q48 25 85 58t53 77q-38 7 -62.5 33t-20.5 69q5 44 38 74.5t80 30.5q58 0 87 -47t23 -110q-7 -69 -53.5 -137.5t-124.5 -110.5z
" />
    <glyph glyph-name="dcroat" unicode="&#x111;" horiz-adv-x="1091" 
d="M487 -26q-100 0 -180 54.5t-125.5 154t-45.5 230.5q0 110 30 213t86.5 186.5t136 132.5t179.5 49q88 0 152 -40t88 -111l50 526h196l-130 -1369h-158l-10 156q-49 -92 -120.5 -137t-148.5 -45zM534 169q49 0 99.5 29.5t87 83t44.5 126.5l13 130q2 16 3 26t1 21
q0 70 -25.5 117.5t-68.5 72.5t-94 25q-68 0 -117.5 -34t-80.5 -89t-46.5 -119t-15.5 -122q0 -122 55.5 -194.5t144.5 -72.5zM605 1098l19 139h523l-19 -139h-523z" />
    <glyph glyph-name="eth" unicode="&#xf0;" horiz-adv-x="1076" 
d="M495 -24q-96 0 -179.5 42.5t-135 131.5t-51.5 226q0 124 41.5 223t110 168.5t151.5 106.5t164 37q48 0 99.5 -16t97 -55.5t73.5 -109t28 -178.5l-11 3q14 231 -30 407t-134.5 316.5t-216.5 264.5l177 93q135 -141 213 -287t110.5 -295.5t32.5 -300.5q0 -204 -47 -351.5
t-125.5 -242t-174 -139t-193.5 -44.5zM510 139q84 0 143 54t90 138t31 173q0 124 -52.5 181.5t-128.5 57.5q-74 0 -133 -49t-94 -131.5t-35 -184.5q0 -110 45.5 -174.5t133.5 -64.5zM540 1064l-65 123l595 335l68 -123z" />
    <glyph glyph-name="ecaron" unicode="&#x11b;" horiz-adv-x="947" 
d="M489 -26q-113 0 -199.5 62.5t-130 177t-28.5 269.5q15 160 80 274t162 175.5t211 61.5q92 0 157 -37t104.5 -100t55 -143t7.5 -168q-2 -28 -6.5 -56.5t-11.5 -57.5h-617l49 36q-12 -91 3 -164t59.5 -114.5t121.5 -41.5q65 0 113 35t67 104h196q-22 -94 -78 -164.5
t-137 -109.5t-178 -39zM328 536l-39 30h486l-49 -27q10 72 1 136.5t-45.5 105t-111.5 40.5q-69 0 -120.5 -38t-82 -102.5t-39.5 -144.5zM847 1562l111 -108l-390 -320l-333 320l135 108l218 -206z" />
    <glyph glyph-name="edotaccent" unicode="&#x117;" horiz-adv-x="947" 
d="M489 -26q-113 0 -199.5 62.5t-130 177t-28.5 269.5q15 160 80 274t162 175.5t211 61.5q92 0 157 -37t104.5 -100t55 -143t7.5 -168q-2 -28 -6.5 -56.5t-11.5 -57.5h-617l49 36q-12 -91 3 -164t59.5 -114.5t121.5 -41.5q65 0 113 35t67 104h196q-22 -94 -78 -164.5
t-137 -109.5t-178 -39zM328 536l-39 30h486l-49 -27q10 72 1 136.5t-45.5 105t-111.5 40.5q-69 0 -120.5 -38t-82 -102.5t-39.5 -144.5zM585 1224q-51 0 -81.5 34.5t-25.5 86.5q4 50 41 88t93 38q47 0 77 -34t25 -88q-6 -58 -42 -91.5t-87 -33.5z" />
    <glyph glyph-name="emacron" unicode="&#x113;" horiz-adv-x="947" 
d="M489 -26q-113 0 -199.5 62.5t-130 177t-28.5 269.5q15 160 80 274t162 175.5t211 61.5q92 0 157 -37t104.5 -100t55 -143t7.5 -168q-2 -28 -6.5 -56.5t-11.5 -57.5h-617l49 36q-12 -91 3 -164t59.5 -114.5t121.5 -41.5q65 0 113 35t67 104h196q-22 -94 -78 -164.5
t-137 -109.5t-178 -39zM328 536l-39 30h486l-49 -27q10 72 1 136.5t-45.5 105t-111.5 40.5q-69 0 -120.5 -38t-82 -102.5t-39.5 -144.5zM260 1341h671l-26 -173h-671z" />
    <glyph glyph-name="eogonek" unicode="&#x119;" horiz-adv-x="947" 
d="M832 -330q-64 -35 -132 -53.5t-133 -18.5q-104 0 -170.5 47t-66.5 130q0 54 26 97.5t68.5 80t92.5 68t98 60.5l106 -34q-58 -37 -115 -71.5t-94 -71.5t-37 -85q0 -43 33.5 -61t77.5 -18t90 14.5t106 47.5zM489 -26q-113 0 -199.5 62.5t-130 177t-28.5 269.5
q15 160 80 274t162 175.5t211 61.5q92 0 157 -37t104.5 -100t55 -143t7.5 -168q-2 -28 -6.5 -56.5t-11.5 -57.5h-617l49 36q-12 -91 3 -164t59.5 -114.5t121.5 -41.5q65 0 113 35t67 104h196q-22 -94 -78 -164.5t-137 -109.5t-178 -39zM328 536l-39 30h486l-49 -27
q10 72 1 136.5t-45.5 105t-111.5 40.5q-69 0 -120.5 -38t-82 -102.5t-39.5 -144.5z" />
    <glyph glyph-name="gbreve" unicode="&#x11f;" horiz-adv-x="1040" 
d="M443 -499q-135 0 -235 42.5t-151.5 116t-42.5 163.5q8 84 63.5 140t135.5 71q-49 33 -72 78t-19 98q6 69 50.5 117t110.5 67q-43 47 -64.5 109.5t-14.5 140.5q11 107 68 185.5t144.5 121.5t187.5 43q62 0 115.5 -16.5t95.5 -45.5q15 75 56.5 130.5t100.5 86.5t128 31
l-32 -208q-75 0 -119 -29t-53 -93q27 -42 40 -93.5t7 -112.5q-9 -105 -66.5 -183.5t-147.5 -122t-196 -43.5q-39 0 -79 8.5t-75 25.5q-32 -8 -57.5 -34t-30.5 -67q-5 -42 24.5 -68t108.5 -26h305q133 0 205 -56.5t62 -171.5q-8 -103 -78.5 -195.5t-192 -151t-282.5 -58.5z
M451 -328q105 0 181.5 32.5t120.5 82.5t48 105q4 43 -18.5 66t-68.5 23h-319q-82 0 -133 -42.5t-54 -104.5q-4 -74 62.5 -118t180.5 -44zM557 447q59 0 100.5 26.5t65.5 71t29 99.5q8 90 -33 144t-126 54q-87 0 -138.5 -55.5t-58.5 -142.5q-8 -83 32.5 -140t128.5 -57z
M632 1158q-141 0 -211.5 79.5t-51.5 214.5h168q-11 -75 20 -114.5t94 -39.5q64 0 105.5 39.5t52.5 114.5h168q-17 -137 -110 -215.5t-235 -78.5z" />
    <glyph glyph-name="uni0123" unicode="&#x123;" horiz-adv-x="1040" 
d="M443 -499q-135 0 -235 42.5t-151.5 116t-42.5 163.5q8 84 63.5 140t135.5 71q-49 33 -72 78t-19 98q6 69 50.5 117t110.5 67q-43 47 -64.5 109.5t-14.5 140.5q11 107 68 185.5t144.5 121.5t187.5 43q62 0 115.5 -16.5t95.5 -45.5q15 75 56.5 130.5t100.5 86.5t128 31
l-32 -208q-75 0 -119 -29t-53 -93q27 -42 40 -93.5t7 -112.5q-9 -105 -66.5 -183.5t-147.5 -122t-196 -43.5q-39 0 -79 8.5t-75 25.5q-32 -8 -57.5 -34t-30.5 -67q-5 -42 24.5 -68t108.5 -26h305q133 0 205 -56.5t62 -171.5q-8 -103 -78.5 -195.5t-192 -151t-282.5 -58.5z
M451 -328q105 0 181.5 32.5t120.5 82.5t48 105q4 43 -18.5 66t-68.5 23h-319q-82 0 -133 -42.5t-54 -104.5q-4 -74 62.5 -118t180.5 -44zM557 447q59 0 100.5 26.5t65.5 71t29 99.5q8 90 -33 144t-126 54q-87 0 -138.5 -55.5t-58.5 -142.5q-8 -83 32.5 -140t128.5 -57z
M698 1512l106 -63q-48 -25 -85 -58t-53 -77q38 -7 62.5 -33t20.5 -69t-37.5 -74t-80.5 -31q-58 0 -86.5 47t-23.5 110q7 69 53 138t124 110z" />
    <glyph glyph-name="gdotaccent" unicode="&#x121;" horiz-adv-x="1040" 
d="M443 -499q-135 0 -235 42.5t-151.5 116t-42.5 163.5q8 84 63.5 140t135.5 71q-49 33 -72 78t-19 98q6 69 50.5 117t110.5 67q-43 47 -64.5 109.5t-14.5 140.5q11 107 68 185.5t144.5 121.5t187.5 43q62 0 115.5 -16.5t95.5 -45.5q15 75 56.5 130.5t100.5 86.5t128 31
l-32 -208q-75 0 -119 -29t-53 -93q27 -42 40 -93.5t7 -112.5q-9 -105 -66.5 -183.5t-147.5 -122t-196 -43.5q-39 0 -79 8.5t-75 25.5q-32 -8 -57.5 -34t-30.5 -67q-5 -42 24.5 -68t108.5 -26h305q133 0 205 -56.5t62 -171.5q-8 -103 -78.5 -195.5t-192 -151t-282.5 -58.5z
M451 -328q105 0 181.5 32.5t120.5 82.5t48 105q4 43 -18.5 66t-68.5 23h-319q-82 0 -133 -42.5t-54 -104.5q-4 -74 62.5 -118t180.5 -44zM557 447q59 0 100.5 26.5t65.5 71t29 99.5q8 90 -33 144t-126 54q-87 0 -138.5 -55.5t-58.5 -142.5q-8 -83 32.5 -140t128.5 -57z
M666 1224q-51 0 -81.5 34.5t-25.5 86.5q4 50 41 88t93 38q47 0 77 -34t25 -88q-6 -58 -42 -91.5t-87 -33.5z" />
    <glyph glyph-name="hbar" unicode="&#x127;" horiz-adv-x="1113" 
d="M164 1095l14 141h536l-14 -141h-536zM172 0l128 1369h195l-54 -562q53 92 128 139.5t165 47.5q106 0 173.5 -53t96 -149t17.5 -226l-53 -566h-195l52 566q13 116 -31.5 175t-124.5 59q-65 0 -118 -37t-89.5 -109.5t-50.5 -179.5l-45 -474h-194z" />
    <glyph glyph-name="dotlessi" unicode="&#x131;" horiz-adv-x="576" 
d="M187 0l92 970h194l-92 -970h-194z" />
    <glyph glyph-name="i.loclTRK" horiz-adv-x="576" 
d="M187 0l92 970h194l-92 -970h-194zM399 1224q-51 0 -81.5 34.5t-25.5 86.5q4 50 41 88t93 38q47 0 77 -34t25 -88q-6 -58 -42 -91.5t-87 -33.5z" />
    <glyph glyph-name="imacron" unicode="&#x12b;" horiz-adv-x="576" 
d="M187 0l92 970h194l-92 -970h-194zM170 1341h443l-17 -173h-443z" />
    <glyph glyph-name="iogonek" unicode="&#x12f;" horiz-adv-x="576" 
d="M187 0l92 970h194l-92 -970h-194zM399 1224q-51 0 -81.5 34.5t-25.5 86.5q4 50 41 88t93 38q47 0 77 -34t25 -88q-6 -58 -42 -91.5t-87 -33.5zM508 -327q-63 -35 -131.5 -53.5t-132.5 -18.5q-104 0 -171 47.5t-67 133.5q0 74 55.5 144t164.5 113l155 -39
q-106 -39 -168 -83.5t-62 -97.5q0 -41 34 -58t77 -17q44 0 90 14.5t107 46.5z" />
    <glyph glyph-name="ij" unicode="&#x133;" horiz-adv-x="1169" 
d="M393 1157q-58 0 -86.5 34t-24.5 93q5 57 40.5 93t92.5 36t86.5 -35t24.5 -94q-5 -60 -41.5 -93.5t-91.5 -33.5zM187 0l92 970h194l-92 -970h-194zM983 1157q-54 0 -84 33.5t-25 93.5q4 59 41 94t93 35q57 0 86 -35t23 -94q-4 -58 -39.5 -92.5t-94.5 -34.5zM636 -499
q-67 0 -125.5 17.5t-116.5 47.5l24 187q42 -28 92 -46t96 -18q69 0 110 43.5t52 149.5l102 1090h194l-104 -1092q-12 -138 -55.5 -221t-111.5 -120.5t-157 -37.5z" />
    <glyph glyph-name="uni0237" unicode="&#x237;" horiz-adv-x="593" 
d="M60 -499q-67 0 -125.5 17.5t-116.5 47.5l24 187q42 -28 92 -46t96 -18q69 0 110 43.5t52 149.5l102 1090h194l-104 -1092q-12 -138 -55.5 -221t-111.5 -120.5t-157 -37.5z" />
    <glyph glyph-name="uni0137" unicode="&#x137;" horiz-adv-x="1030" 
d="M778 0l-267 482l-109 -92l-36 -390h-194l128 1369h195l-71 -752l397 351h265l-424 -360l352 -608h-236zM380 -465l-106 63q48 25 85.5 58t52.5 77q-37 7 -61.5 33t-20.5 69q5 44 37.5 74.5t79.5 30.5q59 0 87.5 -47t22.5 -110q-7 -69 -53 -137.5t-124 -110.5z" />
    <glyph glyph-name="lacute" unicode="&#x13a;" horiz-adv-x="537" 
d="M172 0l128 1369h195l-129 -1369h-194zM287 1545l-38 135l492 265l52 -188z" />
    <glyph glyph-name="lcaron" unicode="&#x13e;" horiz-adv-x="537" 
d="M172 0l128 1369h195l-129 -1369h-194zM652 965l-105 63q48 25 85 58t53 77q-38 7 -62.5 33t-20.5 69q5 44 38 74.5t80 30.5q58 0 87 -47t23 -110q-7 -69 -53.5 -137.5t-124.5 -110.5z" />
    <glyph glyph-name="uni013C" unicode="&#x13c;" horiz-adv-x="537" 
d="M172 0l128 1369h195l-129 -1369h-194zM133 -465l-106 63q48 25 85.5 58t52.5 77q-37 7 -61.5 33t-20.5 69q5 44 37.5 74.5t79.5 30.5q59 0 87.5 -47t22.5 -110q-7 -69 -53 -137.5t-124 -110.5z" />
    <glyph glyph-name="lslash" unicode="&#x142;" horiz-adv-x="537" 
d="M172 0l128 1369h195l-129 -1369h-194zM98 944l537 100l6 -144l-538 -99z" />
    <glyph glyph-name="nacute" unicode="&#x144;" horiz-adv-x="1113" 
d="M171 0l92 968h167l5 -171q53 97 129 147t169 50q107 0 174.5 -53t96 -148.5t16.5 -226.5l-52 -566h-195l52 566q12 116 -33 175t-123 59q-104 0 -175 -92.5t-88 -269.5l-41 -438h-194zM509 1126l-38 135l492 265l52 -188z" />
    <glyph glyph-name="ncaron" unicode="&#x148;" horiz-adv-x="1113" 
d="M171 0l92 968h167l5 -171q53 97 129 147t169 50q107 0 174.5 -53t96 -148.5t16.5 -226.5l-52 -566h-195l52 566q12 116 -33 175t-123 59q-104 0 -175 -92.5t-88 -269.5l-41 -438h-194zM930 1562l111 -108l-390 -320l-333 320l135 108l218 -206z" />
    <glyph glyph-name="uni0146" unicode="&#x146;" horiz-adv-x="1113" 
d="M171 0l92 968h167l5 -171q53 97 129 147t169 50q107 0 174.5 -53t96 -148.5t16.5 -226.5l-52 -566h-195l52 566q12 116 -33 175t-123 59q-104 0 -175 -92.5t-88 -269.5l-41 -438h-194zM421 -465l-106 63q48 25 85.5 58t52.5 77q-37 7 -61.5 33t-20.5 69q5 44 37.5 74.5
t79.5 30.5q59 0 87.5 -47t22.5 -110q-7 -69 -53 -137.5t-124 -110.5z" />
    <glyph glyph-name="eng" unicode="&#x14b;" horiz-adv-x="1164" 
d="M627 -499q-65 0 -122.5 17.5t-115.5 47.5l23 187q43 -28 92.5 -46t97.5 -18q68 0 110 43.5t51 149.5l62 684q10 113 -32.5 173.5t-125.5 60.5q-67 0 -122.5 -40.5t-91.5 -121t-47 -200.5l-41 -438h-194l92 968h167l5 -171q56 101 132 149t169 48q106 0 173 -53.5
t95.5 -149.5t16.5 -225l-65 -686q-13 -138 -56 -221t-112 -120.5t-161 -37.5z" />
    <glyph glyph-name="ohungarumlaut" unicode="&#x151;" horiz-adv-x="1009" 
d="M504 -26q-120 0 -210 56.5t-134.5 170t-28.5 281.5q16 172 82.5 285.5t167 170t218.5 56.5t207.5 -57t134.5 -170.5t28 -284.5q-16 -168 -82.5 -281.5t-165.5 -170t-217 -56.5zM514 162q102 0 173 82.5t86 237.5q16 159 -33.5 242t-152.5 83t-173 -82.5t-86 -242.5
q-10 -103 8.5 -174.5t64 -108.5t113.5 -37zM804 1103l-108 19l33 334l151 -33zM545 1117l-110 14l13 338l154 -25z" />
    <glyph glyph-name="omacron" unicode="&#x14d;" horiz-adv-x="1009" 
d="M504 -26q-120 0 -210 56.5t-134.5 170t-28.5 281.5q16 172 82.5 285.5t167 170t218.5 56.5t207.5 -57t134.5 -170.5t28 -284.5q-16 -168 -82.5 -281.5t-165.5 -170t-217 -56.5zM514 162q102 0 173 82.5t86 237.5q16 159 -33.5 242t-152.5 83t-173 -82.5t-86 -242.5
q-10 -103 8.5 -174.5t64 -108.5t113.5 -37zM330 1341h671l-26 -173h-671z" />
    <glyph glyph-name="oslash" unicode="&#xf8;" horiz-adv-x="1009" 
d="M9 0l885 968h167l-889 -968h-163zM504 -26q-120 0 -210 56.5t-134.5 170t-28.5 281.5q16 172 82.5 285.5t167 170t218.5 56.5t207.5 -57t134.5 -170.5t28 -284.5q-16 -168 -82.5 -281.5t-165.5 -170t-217 -56.5zM514 162q102 0 173 82.5t86 237.5q16 159 -33.5 242
t-152.5 83t-173 -82.5t-86 -242.5q-10 -103 8.5 -174.5t64 -108.5t113.5 -37z" />
    <glyph glyph-name="oe" unicode="&#x153;" horiz-adv-x="1559" 
d="M496 -26q-118 0 -206 56.5t-131 170t-28 281.5q16 172 80.5 285.5t163 170t213.5 56.5q116 0 204 -57t131.5 -170.5t28.5 -284.5q-16 -168 -81 -281.5t-162.5 -170t-212.5 -56.5zM505 162q100 0 169 82.5t84 237.5q16 159 -32.5 242t-148.5 83q-101 0 -169 -82.5
t-83 -242.5q-11 -103 7.5 -174.5t62.5 -108.5t110 -37zM1109 -26q-111 0 -195.5 62.5t-127 177t-27.5 269.5q15 160 78 274t158.5 175.5t205.5 61.5q90 0 154 -37t103 -100t54 -143t7 -168q-2 -28 -6.5 -56.5t-11.5 -57.5h-603l48 36q-12 -91 2.5 -164t58.5 -114.5
t118 -41.5q63 0 110 35t65 104h193q-21 -94 -76 -164.5t-134 -109.5t-174 -39zM952 536l-38 30h474l-49 -27q11 72 2.5 136.5t-44.5 105t-109 40.5q-67 0 -117 -38t-80 -102.5t-39 -144.5z" />
    <glyph glyph-name="thorn" unicode="&#xfe;" horiz-adv-x="1091" 
d="M126 -473l168 1770h195l-47 -496h-31q50 98 125.5 145.5t160.5 47.5q103 0 187.5 -61t130 -174.5t30.5 -274.5q-15 -160 -82.5 -274.5t-165.5 -175t-204 -60.5q-76 0 -132 28.5t-89 85.5l-52 -561h-194zM585 169q55 0 112 34.5t99 104.5t52 176q10 100 -13.5 170t-72 108
t-114.5 38q-56 0 -106 -28t-83.5 -82.5t-40.5 -133.5l-16 -165q-7 -69 14 -119t65 -76.5t104 -26.5z" />
    <glyph glyph-name="racute" unicode="&#x155;" horiz-adv-x="732" 
d="M171 0l92 970h194l-18 -190q47 105 112.5 155.5t142.5 50.5q19 0 39.5 -3.5t40.5 -11.5l-25 -215q-25 7 -51.5 10.5t-50.5 3.5q-70 0 -120.5 -40t-81 -116.5t-40.5 -185.5l-40 -428h-194zM318 1126l-38 135l492 265l52 -188z" />
    <glyph glyph-name="rcaron" unicode="&#x159;" horiz-adv-x="732" 
d="M171 0l92 970h194l-18 -190q47 105 112.5 155.5t142.5 50.5q19 0 39.5 -3.5t40.5 -11.5l-25 -215q-25 7 -51.5 10.5t-50.5 3.5q-70 0 -120.5 -40t-81 -116.5t-40.5 -185.5l-40 -428h-194zM739 1562l111 -108l-390 -320l-333 320l135 108l218 -206z" />
    <glyph glyph-name="uni0157" unicode="&#x157;" horiz-adv-x="732" 
d="M171 0l92 970h194l-18 -190q47 105 112.5 155.5t142.5 50.5q19 0 39.5 -3.5t40.5 -11.5l-25 -215q-25 7 -51.5 10.5t-50.5 3.5q-70 0 -120.5 -40t-81 -116.5t-40.5 -185.5l-40 -428h-194zM231 -465l-106 63q48 25 85.5 58t52.5 77q-37 7 -61.5 33t-20.5 69
q5 44 37.5 74.5t79.5 30.5q59 0 87.5 -47t22.5 -110q-7 -69 -53 -137.5t-124 -110.5z" />
    <glyph glyph-name="sacute" unicode="&#x15b;" horiz-adv-x="947" 
d="M474 -26q-109 0 -192.5 38t-127 109.5t-34.5 170.5h183q-7 -71 40.5 -109.5t130.5 -38.5q84 0 134 36t57 88q6 48 -27.5 73t-85.5 44l-178 73q-97 38 -148 104.5t-41 160.5q9 83 59 143.5t133 94t190 33.5q170 0 251.5 -79.5t73.5 -200.5h-184q-1 53 -40 82t-109 29
q-53 0 -90 -16t-56.5 -41.5t-23.5 -53.5q-6 -44 25 -71.5t80 -44.5l192 -80q93 -35 148 -95.5t45 -154.5q-6 -75 -56 -142t-138.5 -109.5t-210.5 -42.5zM439 1126l-38 135l492 265l52 -188z" />
    <glyph glyph-name="scaron" unicode="&#x161;" horiz-adv-x="947" 
d="M474 -26q-109 0 -192.5 38t-127 109.5t-34.5 170.5h183q-7 -71 40.5 -109.5t130.5 -38.5q84 0 134 36t57 88q6 48 -27.5 73t-85.5 44l-178 73q-97 38 -148 104.5t-41 160.5q9 83 59 143.5t133 94t190 33.5q170 0 251.5 -79.5t73.5 -200.5h-184q-1 53 -40 82t-109 29
q-53 0 -90 -16t-56.5 -41.5t-23.5 -53.5q-6 -44 25 -71.5t80 -44.5l192 -80q93 -35 148 -95.5t45 -154.5q-6 -75 -56 -142t-138.5 -109.5t-210.5 -42.5zM859 1562l111 -108l-390 -320l-333 320l135 108l218 -206z" />
    <glyph glyph-name="scedilla" unicode="&#x15f;" horiz-adv-x="947" 
d="M474 -26q-109 0 -192.5 38t-127 109.5t-34.5 170.5h183q-7 -71 40.5 -109.5t130.5 -38.5q84 0 134 36t57 88q6 48 -27.5 73t-85.5 44l-178 73q-97 38 -148 104.5t-41 160.5q9 83 59 143.5t133 94t190 33.5q170 0 251.5 -79.5t73.5 -200.5h-184q-1 53 -40 82t-109 29
q-53 0 -90 -16t-56.5 -41.5t-23.5 -53.5q-6 -44 25 -71.5t80 -44.5l192 -80q93 -35 148 -95.5t45 -154.5q-6 -75 -56 -142t-138.5 -109.5t-210.5 -42.5zM281 -359l25 78q73 -35 128 -39.5t86 14t32 51.5q1 30 -25.5 53t-70 40t-98.5 29l62 210l100 -13l-56 -192l-37 60
q96 -17 158.5 -46.5t92.5 -68.5t30 -84q0 -58 -42.5 -93t-109 -46.5t-140 0t-135.5 47.5z" />
    <glyph glyph-name="uni0219" unicode="&#x219;" horiz-adv-x="947" 
d="M474 -26q-109 0 -192.5 38t-127 109.5t-34.5 170.5h183q-7 -71 40.5 -109.5t130.5 -38.5q84 0 134 36t57 88q6 48 -27.5 73t-85.5 44l-178 73q-97 38 -148 104.5t-41 160.5q9 83 59 143.5t133 94t190 33.5q170 0 251.5 -79.5t73.5 -200.5h-184q-1 53 -40 82t-109 29
q-53 0 -90 -16t-56.5 -41.5t-23.5 -53.5q-6 -44 25 -71.5t80 -44.5l192 -80q93 -35 148 -95.5t45 -154.5q-6 -75 -56 -142t-138.5 -109.5t-210.5 -42.5zM452 -460l-106 63q48 25 85.5 58t52.5 77q-37 7 -61.5 33t-20.5 69q5 44 37.5 74.5t79.5 30.5q59 0 87.5 -47t22.5 -110
q-7 -69 -53 -137.5t-124 -110.5z" />
    <glyph glyph-name="germandbls" unicode="&#xdf;" horiz-adv-x="1173" 
d="M741 -24q-53 0 -111.5 13t-114.5 42l23 181q45 -23 91.5 -37t95.5 -14t92 18t70 53.5t27 86.5t-26 88t-63.5 67.5t-75.5 60.5t-64 64.5t-26 80.5q0 50 29.5 89t67.5 77t67 80.5t29 97.5q0 64 -46 107t-139 43q-67 0 -117.5 -25.5t-81 -84t-40.5 -157.5l-88 -907h-192
l93 949q13 131 73 224t155 142t213 49q100 0 169 -27t111.5 -71t61.5 -97t19 -105q0 -72 -29 -125.5t-67 -93.5t-67 -75t-29 -71q0 -33 25.5 -61t64 -57.5t76.5 -67t63.5 -89t25.5 -124.5q0 -93 -46 -166t-128 -115.5t-191 -42.5z" />
    <glyph glyph-name="tbar" unicode="&#x167;" horiz-adv-x="701" 
d="M103 556l19 146h575l-19 -146h-575zM454 -26q-76 0 -134.5 31t-88 95.5t-21.5 163.5l56 601l41 -39h-172l16 142h170l-49 -45l28 303h194l-28 -303l-41 45h291l-14 -142h-292l49 39l-55 -594q-6 -65 19 -96t80 -31q29 0 62 8t75 25l15 -152q-51 -23 -99.5 -37t-101.5 -14
z" />
    <glyph glyph-name="tcaron" unicode="&#x165;" horiz-adv-x="701" 
d="M454 -26q-76 0 -134.5 31t-88 95.5t-21.5 163.5l56 601l41 -39h-172l16 142h170l-49 -45l28 303h194l-28 -303l-41 45h291l-14 -142h-292l49 39l-55 -594q-6 -65 19 -96t80 -31q29 0 62 8t75 25l15 -152q-51 -23 -99.5 -37t-101.5 -14zM643 1047l-105 63q48 25 85 58
t53 77q-38 7 -62.5 33t-20.5 69q5 44 38 74.5t80 30.5q58 0 87 -47t23 -110q-7 -69 -53.5 -137.5t-124.5 -110.5z" />
    <glyph glyph-name="uni0163" unicode="&#x163;" horiz-adv-x="701" 
d="M454 -26q-76 0 -134.5 31t-88 95.5t-21.5 163.5l56 601l41 -39h-172l16 142h170l-49 -45l28 303h194l-28 -303l-41 45h291l-14 -142h-292l49 39l-55 -594q-6 -65 19 -96t80 -31q29 0 62 8t75 25l15 -152q-51 -23 -99.5 -37t-101.5 -14zM251 -364l25 78q73 -35 128 -39.5
t86 14t32 51.5q1 30 -25.5 53t-70 40t-98.5 29l62 210l100 -13l-56 -192l-37 60q96 -17 158.5 -46.5t92.5 -68.5t30 -84q0 -58 -42.5 -93t-109 -46.5t-140 0t-135.5 47.5z" />
    <glyph glyph-name="uni021B" unicode="&#x21b;" horiz-adv-x="701" 
d="M454 -26q-76 0 -134.5 31t-88 95.5t-21.5 163.5l56 601l41 -39h-172l16 142h170l-49 -45l28 303h194l-28 -303l-41 45h291l-14 -142h-292l49 39l-55 -594q-6 -65 19 -96t80 -31q29 0 62 8t75 25l15 -152q-51 -23 -99.5 -37t-101.5 -14zM422 -465l-106 63q48 25 85.5 58
t52.5 77q-37 7 -61.5 33t-20.5 69q5 44 37.5 74.5t79.5 30.5q59 0 87.5 -47t22.5 -110q-7 -69 -53 -137.5t-124 -110.5z" />
    <glyph glyph-name="ubreve" unicode="&#x16d;" horiz-adv-x="1118" 
d="M479 -18q-94 0 -165 38t-107 119.5t-23 213.5l59 617h194l-57 -596q-9 -101 30.5 -152t119.5 -51q67 0 125 39t96.5 114t48.5 182l44 464h194l-90 -970h-196l17 178q-51 -98 -125.5 -147t-164.5 -49zM636 1158q-141 0 -211.5 79.5t-51.5 214.5h168q-11 -75 20 -114.5
t94 -39.5q64 0 105.5 39.5t52.5 114.5h168q-17 -137 -110 -215.5t-235 -78.5z" />
    <glyph glyph-name="uhungarumlaut" unicode="&#x171;" horiz-adv-x="1118" 
d="M479 -18q-94 0 -165 38t-107 119.5t-23 213.5l59 617h194l-57 -596q-9 -101 30.5 -152t119.5 -51q67 0 125 39t96.5 114t48.5 182l44 464h194l-90 -970h-196l17 178q-51 -98 -125.5 -147t-164.5 -49zM819 1103l-108 19l33 334l151 -33zM560 1117l-110 14l13 338l154 -25z
" />
    <glyph glyph-name="umacron" unicode="&#x16b;" horiz-adv-x="1118" 
d="M479 -18q-94 0 -165 38t-107 119.5t-23 213.5l59 617h194l-57 -596q-9 -101 30.5 -152t119.5 -51q67 0 125 39t96.5 114t48.5 182l44 464h194l-90 -970h-196l17 178q-51 -98 -125.5 -147t-164.5 -49zM346 1341h671l-26 -173h-671z" />
    <glyph glyph-name="uogonek" unicode="&#x173;" horiz-adv-x="1118" 
d="M479 -18q-94 0 -165 38t-107 119.5t-23 213.5l59 617h194l-57 -596q-9 -101 30.5 -152t119.5 -51q67 0 125 39t96.5 114t48.5 182l44 464h194l-90 -970h-196l17 178q-51 -98 -125.5 -147t-164.5 -49zM1075 -324q-63 -35 -131.5 -53.5t-132.5 -18.5q-104 0 -171 47.5
t-67 133.5q0 74 55.5 144t164.5 113l155 -39q-106 -39 -168 -83.5t-62 -97.5q0 -41 34 -58t77 -17q44 0 90 14.5t107 46.5z" />
    <glyph glyph-name="uring" unicode="&#x16f;" horiz-adv-x="1118" 
d="M479 -18q-94 0 -165 38t-107 119.5t-23 213.5l59 617h194l-57 -596q-9 -101 30.5 -152t119.5 -51q67 0 125 39t96.5 114t48.5 182l44 464h194l-90 -970h-196l17 178q-51 -98 -125.5 -147t-164.5 -49zM663 1090q-62 0 -113.5 31t-82 82.5t-30.5 112.5q0 62 30.5 113.5
t82 82t113.5 30.5t113.5 -30.5t82 -82t30.5 -113.5q0 -61 -30.5 -112.5t-82 -82.5t-113.5 -31zM663 1233q35 0 59 24t24 59t-24 59t-59 24t-59 -24t-24 -59t24 -59t59 -24z" />
    <glyph glyph-name="wacute" unicode="&#x1e83;" horiz-adv-x="1349" 
d="M116 968h203l117 -711l239 659h175l114 -666l253 718h194l-376 -968h-191l-116 604l-223 -604h-191zM627 1126l-38 135l492 265l52 -188z" />
    <glyph glyph-name="wcircumflex" unicode="&#x175;" horiz-adv-x="1349" 
d="M116 968h203l117 -711l239 659h175l114 -666l253 718h194l-376 -968h-191l-116 604l-223 -604h-191zM523 1124l-111 107l390 320l333 -320l-135 -107l-218 206z" />
    <glyph glyph-name="wdieresis" unicode="&#x1e85;" horiz-adv-x="1349" 
d="M116 968h203l117 -711l239 659h175l114 -666l253 718h194l-376 -968h-191l-116 604l-223 -604h-191zM617 1222q-53 0 -82.5 35t-24.5 87q4 51 39.5 88t90.5 37q47 0 79 -33t29 -88q-5 -58 -44.5 -92t-86.5 -34zM952 1224q-51 0 -81 34.5t-25 86.5q4 50 40.5 88t89.5 38
q47 0 78 -33t28 -89q-5 -61 -43.5 -93t-86.5 -32z" />
    <glyph glyph-name="wgrave" unicode="&#x1e81;" horiz-adv-x="1349" 
d="M116 968h203l117 -711l239 659h175l114 -666l253 718h194l-376 -968h-191l-116 604l-223 -604h-191zM971 1084l-465 212l90 188l441 -265z" />
    <glyph glyph-name="yacute" unicode="&#xfd;" horiz-adv-x="899" 
d="M188 -499q-60 0 -115.5 16t-111.5 49l19 192q44 -36 88.5 -52.5t91.5 -16.5q45 0 81 28.5t64.5 77.5t51.5 110l36 95l-261 968h221l155 -716l257 716h197l-442 -1148q-43 -110 -93 -180.5t-109 -104.5t-130 -34zM402 1126l-38 135l492 265l52 -188z" />
    <glyph glyph-name="ycircumflex" unicode="&#x177;" horiz-adv-x="899" 
d="M188 -499q-60 0 -115.5 16t-111.5 49l19 192q44 -36 88.5 -52.5t91.5 -16.5q45 0 81 28.5t64.5 77.5t51.5 110l36 95l-261 968h221l155 -716l257 716h197l-442 -1148q-43 -110 -93 -180.5t-109 -104.5t-130 -34zM298 1124l-111 107l390 320l333 -320l-135 -107l-218 206z
" />
    <glyph glyph-name="ydieresis" unicode="&#xff;" horiz-adv-x="899" 
d="M188 -499q-60 0 -115.5 16t-111.5 49l19 192q44 -36 88.5 -52.5t91.5 -16.5q45 0 81 28.5t64.5 77.5t51.5 110l36 95l-261 968h221l155 -716l257 716h197l-442 -1148q-43 -110 -93 -180.5t-109 -104.5t-130 -34zM392 1222q-53 0 -82.5 35t-24.5 87q4 51 39.5 88t90.5 37
q47 0 79 -33t29 -88q-5 -58 -44.5 -92t-86.5 -34zM727 1224q-51 0 -81 34.5t-25 86.5q4 50 40.5 88t89.5 38q47 0 78 -33t28 -89q-5 -61 -43.5 -93t-86.5 -32z" />
    <glyph glyph-name="ygrave" unicode="&#x1ef3;" horiz-adv-x="899" 
d="M188 -499q-60 0 -115.5 16t-111.5 49l19 192q44 -36 88.5 -52.5t91.5 -16.5q45 0 81 28.5t64.5 77.5t51.5 110l36 95l-261 968h221l155 -716l257 716h197l-442 -1148q-43 -110 -93 -180.5t-109 -104.5t-130 -34zM746 1084l-465 212l90 188l441 -265z" />
    <glyph glyph-name="zacute" unicode="&#x17a;" horiz-adv-x="881" 
d="M100 0l16 176l525 616h-468l19 176h682l-18 -176l-512 -616h455l-16 -176h-683zM393 1126l-38 135l492 265l52 -188z" />
    <glyph glyph-name="zcaron" unicode="&#x17e;" horiz-adv-x="881" 
d="M100 0l16 176l525 616h-468l19 176h682l-18 -176l-512 -616h455l-16 -176h-683zM814 1562l111 -108l-390 -320l-333 320l135 108l218 -206z" />
    <glyph glyph-name="zdotaccent" unicode="&#x17c;" horiz-adv-x="881" 
d="M100 0l16 176l525 616h-468l19 176h682l-18 -176l-512 -616h455l-16 -176h-683zM552 1224q-51 0 -81.5 34.5t-25.5 86.5q4 50 41 88t93 38q47 0 77 -34t25 -88q-6 -58 -42 -91.5t-87 -33.5z" />
    <glyph glyph-name="ordfeminine" unicode="&#xaa;" horiz-adv-x="1041" 
d="M435 -26q-108 0 -178.5 43t-102 113t-23.5 150q9 94 58.5 156.5t132.5 95t188 32.5q64 0 123.5 -11.5t114.5 -30.5l10 102q12 109 -24 160t-126 51q-53 0 -94.5 -17t-66.5 -50t-30 -82h-213q10 111 67 178.5t145 98.5t192 31q184 0 273 -92t71 -285l-58 -617h-168
q-1 35 -1 69.5t-1 69.5q-51 -82 -121 -123.5t-168 -41.5zM487 138q65 0 119 31.5t89 87t40 127.5q-46 15 -100.5 25t-102.5 10q-76 0 -132 -31.5t-62 -107.5q-5 -60 35 -101t114 -41z" />
    <glyph glyph-name="ordmasculine" unicode="&#xba;" horiz-adv-x="1009" 
d="M504 -26q-120 0 -210 56.5t-134.5 170t-28.5 281.5q16 172 82.5 285.5t167 170t218.5 56.5t207.5 -57t134.5 -170.5t28 -284.5q-16 -168 -82.5 -281.5t-165.5 -170t-217 -56.5zM514 162q102 0 173 82.5t86 237.5q16 159 -33.5 242t-152.5 83t-173 -82.5t-86 -242.5
q-10 -103 8.5 -174.5t64 -108.5t113.5 -37z" />
    <glyph glyph-name="uni0394" unicode="&#x394;" horiz-adv-x="1207" 
d="M42 0l528 1285h262l335 -1285h-222l-264 1032l-416 -1032h-223zM163 0l13 184h863l-13 -184h-863z" />
    <glyph glyph-name="uni03A9" unicode="&#x3a9;" horiz-adv-x="1367" 
d="M583 41q-86 0 -166.5 35t-143.5 107.5t-97 186.5t-26 272q11 218 95 366.5t221 225t304 76.5q170 0 295.5 -77t189 -226t44.5 -365q-17 -208 -95.5 -341t-191 -196.5t-230.5 -63.5l6 100q62 0 126 62t111 175t56 266q15 234 -73.5 355.5t-248.5 121.5q-167 0 -271 -127.5
t-120 -351.5q-10 -154 21.5 -266.5t86.5 -173.5t113 -61zM105 -1l10 142h474l-10 -142h-474zM778 -1l10 142h474l-10 -142h-474z" />
    <glyph glyph-name="uni03BC" unicode="&#x3bc;" horiz-adv-x="1119" 
d="M111 -400l132 1370h195l-58 -596q-8 -101 31 -152t120 -51q67 0 124.5 39t96.5 114t49 182l44 464h194l-90 -970h-196l17 178q-51 -98 -125.5 -147t-164.5 -49q-82 0 -138 33l-41 -415h-190z" />
    <glyph glyph-name="pi" unicode="&#x3c0;" horiz-adv-x="1245" 
d="M1127 -9q-108 0 -181.5 48.5t-108 140t-25.5 220.5l40 567h210l-39 -567q-8 -116 43 -167.5t131 -51.5zM316 0l68 966h211l-68 -966h-211zM137 784l13 184h1168l-13 -184h-1168z" />
    <glyph glyph-name="zero.osf" horiz-adv-x="1008" 
d="M501 -26q-122 0 -210.5 67t-129.5 198.5t-23 322.5q18 192 84.5 323t167 198t222.5 67t209.5 -67t128.5 -198t22 -323q-18 -191 -83.5 -322.5t-165.5 -198.5t-222 -67zM520 169q113 0 177 98t82 295q19 199 -27 297t-159 98q-111 0 -175 -98t-84 -297q-17 -197 28.5 -295
t157.5 -98z" />
    <glyph glyph-name="one.osf" horiz-adv-x="630" 
d="M264 0l82 868q-49 -27 -97 -40.5t-93 -15.5l18 209q61 8 120 32t122 74h149l-106 -1127h-195z" />
    <glyph glyph-name="two.osf" horiz-adv-x="1061" 
d="M110 0l17 189q17 167 92.5 253t220.5 122l180 47q100 25 146.5 71.5t53.5 119.5q5 65 -40 112t-133 47q-89 0 -149.5 -41t-77.5 -126h-215q14 118 74.5 197t157 119t218.5 40q118 0 202 -47.5t125.5 -127t31.5 -176.5q-13 -137 -91 -217t-234 -121l-197 -53
q-83 -21 -121 -61.5t-43 -96.5l-6 -52h641l-18 -198h-835z" />
    <glyph glyph-name="three.osf" horiz-adv-x="1046" 
d="M461 -235q-117 0 -214.5 45.5t-150.5 138.5t-40 237h197q-6 -124 58.5 -181t168.5 -57q72 0 130.5 30t94.5 83t42 119t-18.5 119.5t-79.5 85t-139 31.5h-118l16 170h102q109 0 177.5 51t77.5 143q8 82 -42.5 134.5t-145.5 52.5q-83 0 -146 -44.5t-85 -130.5h-207
q39 195 159.5 276.5t293.5 81.5q123 0 209.5 -45.5t128 -124.5t32.5 -178q-11 -102 -67 -169.5t-150 -107.5q105 -45 157 -141t40 -221q-11 -114 -75 -204.5t-168.5 -142t-237.5 -51.5z" />
    <glyph glyph-name="four.osf" horiz-adv-x="1056" 
d="M603 -214l32 315h-590l15 163l678 870h189l-81 -847h201l-17 -186h-200l-31 -315h-196zM275 264h383l52 549z" />
    <glyph glyph-name="five.osf" horiz-adv-x="1051" 
d="M481 -235q-104 0 -190.5 47t-134 138.5t-35.5 224.5h193q-10 -105 42 -159t147 -54q72 0 131.5 33.5t98 93t46.5 137.5q10 114 -50.5 179t-194.5 65h-321l120 673h669l-20 -196h-491l-61 -325q44 12 86 18t88 6q125 0 212 -52t128 -146.5t29 -221.5q-12 -134 -81 -238
t-176 -163.5t-235 -59.5z" />
    <glyph glyph-name="six.osf" horiz-adv-x="1077" 
d="M568 -27q-144 0 -245.5 84.5t-149 230.5t-29.5 333q20 221 96.5 375.5t196 235.5t269.5 81q112 0 193.5 -46.5t124 -130t37.5 -195.5h-207q-4 82 -42.5 129t-117.5 47q-108 0 -190 -82t-127.5 -229.5t-43.5 -346.5q24 124 78.5 195.5t127 101.5t150.5 30q108 0 186 -52
t117 -144t28 -211q-12 -121 -73 -212.5t-159 -142.5t-220 -51zM586 173q91 0 157 58t75 157q10 102 -45.5 160t-145.5 58q-59 0 -110 -28t-84 -77t-38 -113q-9 -99 46.5 -157t144.5 -58z" />
    <glyph glyph-name="seven.osf" horiz-adv-x="883" 
d="M150 1150h809l-18 -186l-650 -1169h-238l687 1166h-606z" />
    <glyph glyph-name="eight.osf" horiz-adv-x="1149" 
d="M570 -26q-145 0 -249 48.5t-156 133t-42 190.5q12 122 95 198t202 93q-52 29 -101 73.5t-78 107.5t-21 146q10 106 70 184.5t163.5 121.5t244.5 43q125 0 220.5 -47.5t146 -130.5t40.5 -189q-9 -98 -77.5 -176.5t-184.5 -100.5l14 -6q122 -55 183.5 -127t49.5 -200
q-10 -105 -75 -187t-178 -128.5t-267 -46.5zM589 173q142 0 218 42.5t82 110.5q3 54 -28.5 92t-90.5 64l-184 80q-107 -8 -180.5 -64t-79.5 -130q-8 -93 68.5 -144t194.5 -51zM663 749q92 2 162.5 52.5t79.5 130.5q6 84 -56.5 134.5t-169.5 50.5q-69 0 -126 -21.5t-92 -58
t-39 -82.5q-6 -54 24 -87.5t90 -60.5z" />
    <glyph glyph-name="nine.osf" horiz-adv-x="1082" 
d="M498 -235q-117 0 -204 51.5t-130.5 143t-32.5 210.5h204q-5 -97 41 -152.5t139 -55.5q147 0 229 142.5t104 383.5q4 38 6 74.5t1 72.5q-31 -151 -124.5 -232t-215.5 -81q-106 0 -188 53t-125 146t-32 212q11 122 72.5 216t159 147.5t218.5 53.5q120 0 205.5 -56
t137.5 -152.5t71.5 -218.5t6.5 -254q-20 -221 -93.5 -379t-188.5 -241.5t-261 -83.5zM561 503q65 0 115.5 31t81.5 83t36 116q10 99 -42 163.5t-150 64.5q-97 0 -159.5 -64.5t-72.5 -163.5q-8 -102 42.5 -166t148.5 -64z" />
    <glyph glyph-name="zero.tf" 
d="M535 -26q-141 0 -240.5 73t-144.5 222t-24 375t94.5 374t187.5 221.5t255 73.5q140 0 240.5 -73.5t146.5 -221.5t25 -374q-22 -226 -96.5 -375t-188.5 -222t-255 -73zM554 173q132 0 214.5 121.5t104.5 349.5t-38 350.5t-191 122.5q-130 0 -212 -122.5t-105 -350.5
t37 -349.5t190 -121.5z" />
    <glyph glyph-name="one.tf" 
d="M232 0l18 198h267l78 839q-47 -27 -95.5 -41t-93.5 -14l19 208q60 9 120 32.5t121 72.5h148l-102 -1097h300l-18 -198h-762z" />
    <glyph glyph-name="two.tf" 
d="M122 0l19 213q10 109 47 184t101 126.5t154 88.5l246 102q83 34 127.5 88.5t50.5 133.5q8 80 -38.5 134t-142.5 54q-91 0 -156.5 -49t-85.5 -144h-215q15 127 80 212t167 127.5t225 42.5q116 0 204.5 -49t135 -136t35.5 -202q-14 -150 -96 -245t-232 -158l-250 -103
q-78 -33 -116 -73.5t-43 -104.5l-5 -44h665l-18 -198h-859z" />
    <glyph glyph-name="three.tf" 
d="M565 -26q-90 0 -172.5 27t-144.5 81.5t-94 134.5t-22 185h207q-4 -72 25.5 -123.5t86 -78.5t133.5 -27q113 0 183.5 58.5t78.5 147.5q5 58 -17.5 100.5t-75 66.5t-138.5 24h-149l17 170h122q109 0 177 51.5t75 138.5q7 80 -40.5 133.5t-153.5 53.5q-83 0 -151.5 -38
t-96.5 -133h-205q38 194 165.5 280.5t299.5 86.5q123 0 215.5 -45.5t140 -126t37.5 -186.5q-9 -99 -65.5 -171.5t-156.5 -109.5q103 -38 161 -117t47 -197q-11 -114 -75.5 -201t-171 -136t-242.5 -49z" />
    <glyph glyph-name="four.tf" 
d="M791 1303h185l-76 -826h200l-17 -185h-200l-28 -292h-192l26 292h-590l15 164zM763 978l-418 -522h369z" />
    <glyph glyph-name="five.tf" 
d="M543 -26q-120 0 -210 47t-136 137.5t-36 219.5h198q-9 -103 49.5 -154t153.5 -51q105 0 177 72t81 181q10 102 -48.5 155t-183.5 53h-342l114 654h681l-18 -198h-493l-57 -310q45 8 96 13t90 5q181 0 278.5 -95.5t82.5 -276.5q-11 -127 -74.5 -230t-167 -162.5
t-235.5 -59.5z" />
    <glyph glyph-name="six.tf" 
d="M568 -27q-144 0 -246 84.5t-149 230.5t-29 333q21 221 97.5 375.5t196 235.5t268.5 81q112 0 193.5 -46.5t124 -130t37.5 -195.5h-207q-3 82 -41.5 129t-117.5 47q-108 0 -190.5 -82t-128 -229.5t-43.5 -346.5q24 124 78.5 195.5t127 101.5t150.5 30q108 0 186 -52
t117 -144t28 -211q-12 -121 -73 -212.5t-158.5 -142.5t-220.5 -51zM586 173q91 0 157.5 58t75.5 157q10 102 -46 160t-146 58q-59 0 -109.5 -28t-83.5 -77t-39 -113q-9 -99 46.5 -157t144.5 -58z" />
    <glyph glyph-name="seven.tf" 
d="M158 0l638 1079h-580l21 209h807l-20 -206l-604 -1082h-262z" />
    <glyph glyph-name="eight.tf" 
d="M557 -26q-146 0 -250 48.5t-156.5 133t-41.5 190.5q12 122 95 198t202 93q-52 29 -101 73.5t-78 107.5t-21 146q9 106 69 184.5t164 121.5t245 43q126 0 221.5 -47.5t146 -130.5t40.5 -189q-9 -99 -79 -178t-187 -100l27 -12q77 -36 129.5 -78.5t77 -100.5t16.5 -141
q-10 -105 -75 -187t-178 -128.5t-266 -46.5zM575 173q142 0 218.5 42.5t81.5 110.5q3 54 -28 92.5t-91 63.5l-184 80q-107 -8 -180 -64t-80 -130q-9 -93 68.5 -144t194.5 -51zM649 749q92 2 163.5 52.5t78.5 130.5q6 84 -56 134.5t-170 50.5q-69 0 -125 -21.5t-91 -57.5
t-41 -81q-6 -56 25 -90t99 -65z" />
    <glyph glyph-name="nine.tf" 
d="M519 -26q-118 0 -207.5 51.5t-135.5 143.5t-34 212h203q-6 -96 45.5 -152t140.5 -56q101 0 168.5 63.5t107.5 179t55 270.5q3 32 4.5 62t-0.5 64q-27 -110 -79.5 -178.5t-124 -100.5t-153.5 -32q-106 0 -184.5 52t-117.5 144t-27 211q12 122 73 213t158.5 141.5
t218.5 50.5q137 0 240 -81t154 -226.5t32 -339.5q-20 -212 -87 -367.5t-179.5 -240t-270.5 -84.5zM573 681q57 0 107.5 28t84 77t39.5 112q10 100 -47 158.5t-146 58.5q-87 0 -153 -58.5t-77 -158.5q-11 -102 45.5 -159.5t146.5 -57.5z" />
    <glyph glyph-name="zero.dnom" horiz-adv-x="1122" 
d="M580 -26q-132 0 -204 103.5t-52 315.5q20 211 112 314.5t224 103.5t205 -103.5t52 -314.5q-20 -212 -112.5 -315.5t-224.5 -103.5zM592 98q83 0 134.5 76t64.5 219t-24 219t-119 76t-133.5 -76t-64.5 -219t23.5 -219t118.5 -76z" />
    <glyph glyph-name="one.dnom" horiz-adv-x="630" 
d="M410 809h93l-76 -809h-122l61 648q-30 -17 -60 -25.5t-59 -8.5l12 130q38 5 75.5 20t75.5 45z" />
    <glyph glyph-name="two.dnom" horiz-adv-x="1077" 
d="M424 151l-3 -27h415l-11 -124h-537l12 133q9 103 56.5 159t132.5 90l153 63q52 21 80 55.5t31 83.5q6 51 -23.5 85t-89.5 34q-57 0 -97.5 -30.5t-52.5 -90.5h-136q10 79 50.5 132.5t104.5 80t141 26.5q72 0 127.5 -30.5t84.5 -85t22 -127.5q-9 -92 -60 -152t-145 -99
l-160 -66q-46 -20 -68.5 -45.5t-26.5 -64.5z" />
    <glyph glyph-name="three.dnom" horiz-adv-x="1106" 
d="M565 -26q-75 0 -140 30t-102 90t-29 147h130q-4 -67 38 -105t115 -38q71 0 114 36.5t49 92.5q5 55 -29.5 87.5t-114.5 32.5h-93l10 106h77q67 0 109.5 32t47.5 87q5 49 -25 82.5t-96 33.5q-52 0 -94.5 -23.5t-60.5 -82.5h-128q23 121 103 175t188 54q115 0 184.5 -62
t60.5 -162q-6 -61 -41 -106.5t-97 -69.5q64 -23 100 -72.5t30 -123.5q-7 -71 -47.5 -125.5t-106.5 -85t-152 -30.5z" />
    <glyph glyph-name="four.dnom" horiz-adv-x="1054" 
d="M607 0l16 183h-369l10 102l423 530h116l-48 -517h125l-10 -115h-125l-18 -183h-120zM409 285h230l30 326z" />
    <glyph glyph-name="five.dnom" horiz-adv-x="1040" 
d="M544 -26q-76 0 -132 29.5t-85 86t-22 137.5h124q-6 -65 31 -97t95 -32q66 0 110.5 45.5t51.5 112.5q6 65 -31 98t-114 33h-214l71 408h426l-11 -123h-308l-37 -194q29 5 60.5 8t56.5 3q114 0 175.5 -59.5t49.5 -173.5q-7 -79 -46.5 -143.5t-103.5 -101.5t-147 -37z" />
    <glyph glyph-name="six.dnom" horiz-adv-x="1077" 
d="M579 -27q-90 0 -153.5 53t-92.5 144.5t-19 207.5q20 207 115.5 320t235.5 113q106 0 166.5 -64t56.5 -168h-130q-2 50 -26 79.5t-74 29.5q-67 0 -118.5 -51t-80 -143t-27.5 -217q23 117 87 161t136 44q101 0 159 -72t48 -183q-11 -114 -89.5 -184t-193.5 -70zM591 98
q56 0 97.5 36.5t47.5 97.5q6 65 -29 101t-91 36q-55 0 -97.5 -38t-46.5 -99q-6 -61 29 -97.5t90 -36.5z" />
    <glyph glyph-name="seven.dnom" horiz-adv-x="883" 
d="M251 0l399 674h-362l12 131h505l-12 -129l-378 -676h-164z" />
    <glyph glyph-name="eight.dnom" horiz-adv-x="1149" 
d="M587 -26q-137 0 -213.5 66.5t-67.5 166.5q8 76 60 123.5t127 58.5q-49 26 -91.5 76t-34.5 127q9 101 88 160t211 59q79 0 138.5 -29.5t91 -81.5t25.5 -119q-6 -62 -49.5 -110.5t-115.5 -62.5l17 -7q73 -33 109.5 -77.5t28.5 -123.5q-9 -99 -95 -162.5t-229 -63.5zM598 98
q89 0 136 27t51 69q2 34 -17.5 58t-56.5 40l-115 49q-67 -4 -113 -39t-50 -82q-5 -57 43 -89.5t122 -32.5zM645 458q57 2 101 33.5t49 81.5q5 52 -34.5 83.5t-106.5 31.5q-64 0 -110.5 -29t-50.5 -72q-2 -34 16 -55t56 -38z" />
    <glyph glyph-name="nine.dnom" horiz-adv-x="1084" 
d="M555 -26q-74 0 -130 32.5t-85 90t-21 132.5h127q-4 -60 28 -95.5t88 -35.5q94 0 143 88t64 233q2 20 3 39t-1 40q-25 -103 -85.5 -148.5t-136.5 -45.5q-100 0 -158.5 71t-48.5 183q12 114 90 183.5t192 69.5q86 0 150 -50.5t96 -141.5t20 -212q-19 -199 -103 -316
t-232 -117zM589 416q53 0 95.5 38t48.5 98q6 62 -29.5 98.5t-91.5 36.5q-54 0 -95.5 -36.5t-47.5 -98.5q-7 -64 28 -100t92 -36z" />
    <glyph glyph-name="zero.numr" horiz-adv-x="1122" 
d="M664 574q-132 0 -204 103.5t-52 315.5q20 211 112 314.5t224 103.5t205 -103.5t52 -314.5q-20 -212 -112.5 -315.5t-224.5 -103.5zM676 698q83 0 134.5 76t64.5 219t-24 219t-119 76t-133.5 -76t-64.5 -219t23.5 -219t118.5 -76z" />
    <glyph glyph-name="one.numr" horiz-adv-x="630" 
d="M494 1409h93l-76 -809h-122l61 648q-30 -17 -60 -25.5t-59 -8.5l12 130q38 5 75.5 20t75.5 45z" />
    <glyph glyph-name="two.numr" horiz-adv-x="1077" 
d="M508 751l-3 -27h415l-11 -124h-537l12 133q9 103 56.5 159t132.5 90l153 63q52 21 80 55.5t31 83.5q6 51 -23.5 85t-89.5 34q-57 0 -97.5 -30.5t-52.5 -90.5h-136q10 79 50.5 132.5t104.5 80t141 26.5q72 0 127.5 -30.5t84.5 -85t22 -127.5q-9 -92 -60 -152t-145 -99
l-160 -66q-46 -20 -68.5 -45.5t-26.5 -64.5z" />
    <glyph glyph-name="three.numr" horiz-adv-x="1106" 
d="M649 574q-75 0 -140 30t-102 90t-29 147h130q-4 -67 38 -105t115 -38q71 0 114 36.5t49 92.5q5 55 -29.5 87.5t-114.5 32.5h-93l10 106h77q67 0 109.5 32t47.5 87q5 49 -25 82.5t-96 33.5q-52 0 -94.5 -23.5t-60.5 -82.5h-128q23 121 103 175t188 54q115 0 184.5 -62
t60.5 -162q-6 -61 -41 -106.5t-97 -69.5q64 -23 100 -72.5t30 -123.5q-7 -71 -47.5 -125.5t-106.5 -85t-152 -30.5z" />
    <glyph glyph-name="four.numr" horiz-adv-x="1054" 
d="M691 600l16 183h-369l10 102l423 530h116l-48 -517h125l-10 -115h-125l-18 -183h-120zM493 885h230l30 326z" />
    <glyph glyph-name="five.numr" horiz-adv-x="1040" 
d="M628 574q-76 0 -132 29.5t-85 86t-22 137.5h124q-6 -65 31 -97t95 -32q66 0 110.5 45.5t51.5 112.5q6 65 -31 98t-114 33h-214l71 408h426l-11 -123h-308l-37 -194q29 5 60.5 8t56.5 3q114 0 175.5 -59.5t49.5 -173.5q-7 -79 -46.5 -143.5t-103.5 -101.5t-147 -37z" />
    <glyph glyph-name="six.numr" horiz-adv-x="1077" 
d="M663 573q-90 0 -153.5 53t-92.5 144.5t-19 207.5q20 207 115.5 320t235.5 113q106 0 166.5 -64t56.5 -168h-130q-2 50 -26 79.5t-74 29.5q-67 0 -118.5 -51t-80 -143t-27.5 -217q23 117 87 161t136 44q101 0 159 -72t48 -183q-11 -114 -89.5 -184t-193.5 -70zM675 698
q56 0 97.5 36.5t47.5 97.5q6 65 -29 101t-91 36q-55 0 -97.5 -38t-46.5 -99q-6 -61 29 -97.5t90 -36.5z" />
    <glyph glyph-name="seven.numr" horiz-adv-x="883" 
d="M335 600l399 674h-362l12 131h505l-12 -129l-378 -676h-164z" />
    <glyph glyph-name="eight.numr" horiz-adv-x="1149" 
d="M671 574q-137 0 -213.5 66.5t-67.5 166.5q8 76 60 123.5t127 58.5q-49 26 -91.5 76t-34.5 127q9 101 88 160t211 59q79 0 138.5 -29.5t91 -81.5t25.5 -119q-6 -62 -49.5 -110.5t-115.5 -62.5l17 -7q73 -33 109.5 -77.5t28.5 -123.5q-9 -99 -95 -162.5t-229 -63.5z
M682 698q89 0 136 27t51 69q2 34 -17.5 58t-56.5 40l-115 49q-67 -4 -113 -39t-50 -82q-5 -57 43 -89.5t122 -32.5zM729 1058q57 2 101 33.5t49 81.5q5 52 -34.5 83.5t-106.5 31.5q-64 0 -110.5 -29t-50.5 -72q-2 -34 16 -55t56 -38z" />
    <glyph glyph-name="nine.numr" horiz-adv-x="1084" 
d="M639 574q-74 0 -130 32.5t-85 90t-21 132.5h127q-4 -60 28 -95.5t88 -35.5q94 0 143 88t64 233q2 20 3 39t-1 40q-25 -103 -85.5 -148.5t-136.5 -45.5q-100 0 -158.5 71t-48.5 183q12 114 90 183.5t192 69.5q86 0 150 -50.5t96 -141.5t20 -212q-19 -199 -103 -316
t-232 -117zM673 1016q53 0 95.5 38t48.5 98q6 62 -29.5 98.5t-91.5 36.5q-54 0 -95.5 -36.5t-47.5 -98.5q-7 -64 28 -100t92 -36z" />
    <glyph glyph-name="fraction" unicode="&#x2044;" horiz-adv-x="606" 
d="M-221 -1l957 1350h151l-959 -1350h-149z" />
    <glyph glyph-name="onehalf" unicode="&#xbd;" horiz-adv-x="1796" 
d="M451 1409h93l-76 -809h-122l61 648q-30 -17 -60 -25.5t-59 -8.5l12 130q38 5 75.5 20t75.5 45zM276 -1l957 1350h151l-959 -1350h-149zM1224 151l-3 -27h415l-11 -124h-537l12 133q9 103 56.5 159t132.5 90l153 63q52 21 80 55.5t31 83.5q6 51 -23.5 85t-89.5 34
q-57 0 -97.5 -30.5t-52.5 -90.5h-136q10 79 50.5 132.5t104.5 80t141 26.5q72 0 127.5 -30.5t84.5 -85t22 -127.5q-9 -92 -60 -152t-145 -99l-160 -66q-46 -20 -68.5 -45.5t-26.5 -64.5z" />
    <glyph glyph-name="onequarter" unicode="&#xbc;" horiz-adv-x="1763" 
d="M451 1409h93l-76 -809h-122l61 648q-30 -17 -60 -25.5t-59 -8.5l12 130q38 5 75.5 20t75.5 45zM288 -1l957 1350h151l-959 -1350h-149zM1355 0l16 183h-369l10 102l423 530h116l-48 -517h125l-10 -115h-125l-18 -183h-120zM1157 285h230l30 326z" />
    <glyph glyph-name="threequarters" unicode="&#xbe;" horiz-adv-x="1965" 
d="M502 574q-75 0 -140 30t-102 90t-29 147h130q-4 -67 38 -105t115 -38q71 0 114 36.5t49 92.5q5 55 -29.5 87.5t-114.5 32.5h-93l10 106h77q67 0 109.5 32t47.5 87q5 49 -25 82.5t-96 33.5q-52 0 -94.5 -23.5t-60.5 -82.5h-128q23 121 103 175t188 54q115 0 184.5 -62
t60.5 -162q-6 -61 -41 -106.5t-97 -69.5q64 -23 100 -72.5t30 -123.5q-7 -71 -47.5 -125.5t-106.5 -85t-152 -30.5zM490 -1l957 1350h151l-959 -1350h-149zM1556 0l16 183h-369l10 102l423 530h116l-48 -517h125l-10 -115h-125l-18 -183h-120zM1358 285h230l30 326z" />
    <glyph glyph-name="oneeighth" unicode="&#x215b;" horiz-adv-x="1820" 
d="M451 1409h93l-76 -809h-122l61 648q-30 -17 -60 -25.5t-59 -8.5l12 130q38 5 75.5 20t75.5 45zM282 -1l957 1350h151l-959 -1350h-149zM1352 -26q-137 0 -213.5 66.5t-67.5 166.5q8 76 60 123.5t127 58.5q-49 26 -91.5 76t-34.5 127q9 101 88 160t211 59
q79 0 138.5 -29.5t91 -81.5t25.5 -119q-6 -62 -49.5 -110.5t-115.5 -62.5l17 -7q73 -33 109.5 -77.5t28.5 -123.5q-9 -99 -95 -162.5t-229 -63.5zM1363 98q89 0 136 27t51 69q2 34 -17.5 58t-56.5 40l-115 49q-67 -4 -113 -39t-50 -82q-5 -57 43 -89.5t122 -32.5zM1410 458
q57 2 101 33.5t49 81.5q5 52 -34.5 83.5t-106.5 31.5q-64 0 -110.5 -29t-50.5 -72q-2 -34 16 -55t56 -38z" />
    <glyph glyph-name="threeeighths" unicode="&#x215c;" horiz-adv-x="2028" 
d="M502 574q-75 0 -140 30t-102 90t-29 147h130q-4 -67 38 -105t115 -38q71 0 114 36.5t49 92.5q5 55 -29.5 87.5t-114.5 32.5h-93l10 106h77q67 0 109.5 32t47.5 87q5 49 -25 82.5t-96 33.5q-52 0 -94.5 -23.5t-60.5 -82.5h-128q23 121 103 175t188 54q115 0 184.5 -62
t60.5 -162q-6 -61 -41 -106.5t-97 -69.5q64 -23 100 -72.5t30 -123.5q-7 -71 -47.5 -125.5t-106.5 -85t-152 -30.5zM501 -1l957 1350h151l-959 -1350h-149zM1560 -26q-137 0 -213.5 66.5t-67.5 166.5q8 76 60 123.5t127 58.5q-49 26 -91.5 76t-34.5 127q9 101 88 160t211 59
q79 0 138.5 -29.5t91 -81.5t25.5 -119q-6 -62 -49.5 -110.5t-115.5 -62.5l17 -7q73 -33 109.5 -77.5t28.5 -123.5q-9 -99 -95 -162.5t-229 -63.5zM1571 98q89 0 136 27t51 69q2 34 -17.5 58t-56.5 40l-115 49q-67 -4 -113 -39t-50 -82q-5 -57 43 -89.5t122 -32.5zM1618 458
q57 2 101 33.5t49 81.5q5 52 -34.5 83.5t-106.5 31.5q-64 0 -110.5 -29t-50.5 -72q-2 -34 16 -55t56 -38z" />
    <glyph glyph-name="fiveeighths" unicode="&#x215d;" horiz-adv-x="1971" 
d="M467 574q-76 0 -132 29.5t-85 86t-22 137.5h124q-6 -65 31 -97t95 -32q66 0 110.5 45.5t51.5 112.5q6 65 -31 98t-114 33h-214l71 408h426l-11 -123h-308l-37 -194q29 5 60.5 8t56.5 3q114 0 175.5 -59.5t49.5 -173.5q-7 -79 -46.5 -143.5t-103.5 -101.5t-147 -37z
M462 -1l957 1350h151l-959 -1350h-149zM1503 -26q-137 0 -213.5 66.5t-67.5 166.5q8 76 60 123.5t127 58.5q-49 26 -91.5 76t-34.5 127q9 101 88 160t211 59q79 0 138.5 -29.5t91 -81.5t25.5 -119q-6 -62 -49.5 -110.5t-115.5 -62.5l17 -7q73 -33 109.5 -77.5t28.5 -123.5
q-9 -99 -95 -162.5t-229 -63.5zM1514 98q89 0 136 27t51 69q2 34 -17.5 58t-56.5 40l-115 49q-67 -4 -113 -39t-50 -82q-5 -57 43 -89.5t122 -32.5zM1561 458q57 2 101 33.5t49 81.5q5 52 -34.5 83.5t-106.5 31.5q-64 0 -110.5 -29t-50.5 -72q-2 -34 16 -55t56 -38z" />
    <glyph glyph-name="seveneighths" unicode="&#x215e;" horiz-adv-x="1965" 
d="M259 600l399 674h-362l12 131h505l-12 -129l-378 -676h-164zM411 -1l957 1350h151l-959 -1350h-149zM1497 -26q-137 0 -213.5 66.5t-67.5 166.5q8 76 60 123.5t127 58.5q-49 26 -91.5 76t-34.5 127q9 101 88 160t211 59q79 0 138.5 -29.5t91 -81.5t25.5 -119
q-6 -62 -49.5 -110.5t-115.5 -62.5l17 -7q73 -33 109.5 -77.5t28.5 -123.5q-9 -99 -95 -162.5t-229 -63.5zM1508 98q89 0 136 27t51 69q2 34 -17.5 58t-56.5 40l-115 49q-67 -4 -113 -39t-50 -82q-5 -57 43 -89.5t122 -32.5zM1555 458q57 2 101 33.5t49 81.5
q5 52 -34.5 83.5t-106.5 31.5q-64 0 -110.5 -29t-50.5 -72q-2 -34 16 -55t56 -38z" />
    <glyph glyph-name="uni2080" unicode="&#x2080;" horiz-adv-x="757" 
d="M363 -26q-87 0 -148 45t-89 137t-14 230q12 139 57.5 230.5t115 136.5t157.5 45q86 0 147.5 -45t90 -136.5t15.5 -230.5q-14 -138 -59.5 -230t-115.5 -137t-157 -45zM375 96q80 0 131 75t65 215q13 141 -24 216t-117 75q-81 0 -132 -75t-63 -216q-14 -140 22.5 -215
t117.5 -75z" />
    <glyph glyph-name="uni2081" unicode="&#x2081;" horiz-adv-x="463" 
d="M274 797h91l-74 -797h-119l59 638q-29 -16 -58.5 -24.5t-57.5 -9.5l11 128q37 5 74 20t74 45z" />
    <glyph glyph-name="uni2082" unicode="&#x2082;" horiz-adv-x="736" 
d="M234 149l-3 -27h409l-11 -122h-529l12 131q6 67 29 113.5t62 78t95 54.5l151 62q51 22 78.5 55t31.5 81q5 50 -24 83.5t-88 33.5q-56 0 -96 -30.5t-52 -88.5h-133q10 78 50 130.5t102 78.5t138 26q72 0 126.5 -30t83 -83.5t21.5 -125.5q-9 -91 -59.5 -149.5t-142.5 -97.5
l-153 -63q-48 -20 -71.5 -45.5t-26.5 -64.5z" />
    <glyph glyph-name="uni2083" unicode="&#x2083;" horiz-adv-x="747" 
d="M362 -26q-56 0 -106.5 17t-88.5 50t-57.5 82.5t-13.5 114.5h127q-2 -44 16 -76t52.5 -49t81.5 -17q70 0 113 36t49 91q3 36 -10.5 62.5t-46.5 41t-85 14.5h-92l10 105h76q66 0 108 31.5t47 85.5q4 48 -25.5 81t-94.5 33q-51 0 -93 -23t-59 -81h-126q23 119 101.5 172
t184.5 53q76 0 132.5 -27.5t86 -77t23.5 -115.5q-6 -61 -41 -105.5t-96 -67.5q63 -24 99 -72.5t29 -120.5q-6 -70 -46 -123.5t-105.5 -84t-149.5 -30.5z" />
    <glyph glyph-name="uni2084" unicode="&#x2084;" horiz-adv-x="672" 
d="M396 0l16 180h-363l9 100l417 522h114l-48 -508h123l-9 -114h-124l-17 -180h-118zM200 280h227l30 322z" />
    <glyph glyph-name="uni2085" unicode="&#x2085;" horiz-adv-x="711" 
d="M355 -26q-74 0 -129.5 29t-83.5 84.5t-22 135.5h122q-6 -64 30 -95.5t95 -31.5q64 0 108 44.5t50 111.5q6 63 -30 96t-112 33h-211l71 402h419l-12 -122h-303l-35 -190q27 4 58.5 7.5t55.5 3.5q112 0 172.5 -59.5t49.5 -170.5q-6 -78 -45 -141t-103 -100t-145 -37z" />
    <glyph glyph-name="uni2086" unicode="&#x2086;" horiz-adv-x="726" 
d="M370 -28q-89 0 -151.5 52t-91.5 142t-18 205q12 136 59 231.5t120.5 145t166.5 49.5q69 0 119 -28.5t76 -80t23 -120.5h-127q-2 50 -26 79t-72 29q-67 0 -117.5 -50t-78.5 -141t-27 -214q14 77 48 121t78.5 62.5t92.5 18.5q66 0 114.5 -32.5t72 -89t17.5 -129.5
q-7 -74 -45 -130.5t-98 -88t-135 -31.5zM381 95q55 0 96 36t47 97q6 63 -28.5 98.5t-89.5 35.5q-36 0 -67.5 -17t-51.5 -47.5t-24 -69.5q-5 -61 29 -97t89 -36z" />
    <glyph glyph-name="uni2087" unicode="&#x2087;" horiz-adv-x="569" 
d="M47 0l392 664h-356l12 128h497l-12 -126l-372 -666h-161z" />
    <glyph glyph-name="uni2088" unicode="&#x2088;" horiz-adv-x="776" 
d="M377 -26q-89 0 -153 30t-96 82t-26 118q7 74 58.5 121t124.5 57q-32 18 -62 45.5t-48 66t-13 89.5q6 66 43 114t101 74.5t150 26.5q77 0 136 -29t90 -80t25 -117q-6 -60 -48 -108t-114 -62l9 -4q75 -34 113 -78t31 -123q-7 -65 -47 -115t-109.5 -79t-164.5 -29zM389 96
q87 0 133.5 26.5t51.5 68.5q2 33 -18 56.5t-56 39.5l-113 49q-66 -5 -111 -39.5t-49 -80.5q-5 -56 42.5 -88t119.5 -32zM435 451q56 1 99 32t50 81q3 52 -35 82.5t-105 30.5q-42 0 -77 -13t-56.5 -35.5t-24.5 -50.5q-4 -33 14.5 -54t55.5 -37z" />
    <glyph glyph-name="uni2089" unicode="&#x2089;" horiz-adv-x="734" 
d="M344 -26q-73 0 -128 32t-83.5 88.5t-21.5 130.5h126q-4 -59 27.5 -94t87.5 -35q92 0 140.5 86.5t62.5 229.5q1 20 2 38.5t0 39.5q-16 -68 -48.5 -110t-76.5 -61.5t-94 -19.5q-66 0 -114 32t-71.5 88t-17.5 130q7 75 44.5 131t97.5 87t135 31q85 0 148 -49.5t94 -139
t20 -209.5q-12 -131 -53 -226.5t-110.5 -147.5t-166.5 -52zM377 410q35 0 66 17t52 47t24 69q6 61 -29 97t-90 36q-53 0 -94 -36t-47 -97q-6 -63 28 -98t90 -35z" />
    <glyph glyph-name="uni2070" unicode="&#x2070;" horiz-adv-x="756" 
d="M435 489q-87 0 -148 45t-89 137t-14 231q12 138 57.5 229.5t115 136.5t157.5 45q86 0 147.5 -45t90 -136.5t15.5 -229.5q-14 -139 -59.5 -231t-115.5 -137t-157 -45zM447 612q80 0 131 74.5t65 215.5q13 140 -24 215.5t-117 75.5q-81 0 -132 -75.5t-63 -215.5
q-14 -141 22.5 -215.5t117.5 -74.5z" />
    <glyph glyph-name="uni00B9" unicode="&#xb9;" horiz-adv-x="462" 
d="M344 1295h91l-74 -797h-120l60 639q-29 -17 -59 -25.5t-58 -8.5l12 128q37 5 73.5 19.5t74.5 44.5z" />
    <glyph glyph-name="uni00B2" unicode="&#xb2;" horiz-adv-x="737" 
d="M305 654l-3 -26h409l-11 -123h-529l12 131q7 68 30 114t61.5 77.5t94.5 54.5l151 63q51 21 78.5 54t31.5 82q5 49 -24 82.5t-87 33.5q-57 0 -97 -30.5t-52 -88.5h-133q10 79 50 131t102.5 78t138.5 26q71 0 125.5 -30t83.5 -83.5t22 -124.5q-9 -92 -60 -150.5t-142 -97.5
l-154 -63q-48 -20 -71.5 -45t-26.5 -65z" />
    <glyph glyph-name="uni00B3" unicode="&#xb3;" horiz-adv-x="747" 
d="M434 489q-56 0 -106.5 17t-88.5 50.5t-57.5 82.5t-13.5 114h127q-2 -44 16 -76t52.5 -48.5t81.5 -16.5q70 0 113 35.5t49 90.5q3 36 -10.5 62.5t-46.5 41t-85 14.5h-92l10 105h76q67 0 108.5 31.5t46.5 85.5q4 48 -25.5 81.5t-94.5 33.5q-50 0 -92.5 -23.5t-59.5 -81.5
h-126q23 119 101.5 172t184.5 53q76 0 132.5 -27.5t86 -77t23.5 -115.5q-6 -61 -41 -105.5t-96 -67.5q63 -23 99 -71.5t29 -121.5q-6 -70 -46 -123.5t-105.5 -84t-149.5 -30.5z" />
    <glyph glyph-name="uni2074" unicode="&#x2074;" horiz-adv-x="673" 
d="M467 501l16 180h-363l9 100l417 522h113l-47 -508h123l-10 -114h-124l-17 -180h-117zM271 781h227l30 322z" />
    <glyph glyph-name="uni2075" unicode="&#x2075;" horiz-adv-x="711" 
d="M426 479q-74 0 -129.5 29t-83.5 84.5t-23 135.5h123q-6 -64 30 -95t94 -31q65 0 109 44t50 112q6 63 -30 95.5t-113 32.5h-210l70 402h419l-11 -121h-303l-36 -191q28 4 59.5 7.5t55.5 3.5q112 0 172.5 -59t49.5 -170q-7 -79 -46 -142t-102.5 -100t-144.5 -37z" />
    <glyph glyph-name="uni2076" unicode="&#x2076;" horiz-adv-x="726" 
d="M442 489q-89 0 -151.5 51.5t-91.5 142t-18 205.5q12 135 59 230.5t120.5 145t166.5 49.5q69 0 119 -28.5t76 -79.5t23 -120h-127q-2 50 -26 79t-72 29q-67 0 -117.5 -50.5t-78.5 -141.5t-27 -213q14 76 48 120t78.5 62.5t92.5 18.5q66 0 114.5 -32t72 -88.5t17.5 -129.5
q-7 -75 -45 -131t-98 -87.5t-135 -31.5zM453 612q55 0 96 36t47 96q6 63 -28.5 98.5t-89.5 35.5q-36 0 -67.5 -17t-51.5 -47t-24 -70q-5 -60 29 -96t89 -36z" />
    <glyph glyph-name="uni2077" unicode="&#x2077;" horiz-adv-x="569" 
d="M116 495l392 665h-356l13 128h497l-13 -127l-372 -666h-161z" />
    <glyph glyph-name="uni2078" unicode="&#x2078;" horiz-adv-x="777" 
d="M450 489q-90 0 -153.5 30t-95.5 82t-26 118q7 74 58.5 121t123.5 58q-31 17 -61.5 44.5t-48 66.5t-12.5 90q6 65 43 113t100.5 74.5t150.5 26.5q77 0 136 -29t90 -80t24 -116q-5 -61 -47.5 -109t-113.5 -62l9 -4q75 -34 112.5 -78t30.5 -123q-6 -64 -46 -114.5
t-109.5 -79.5t-164.5 -29zM462 612q87 0 133.5 26t50.5 68q2 33 -17.5 56.5t-55.5 39.5l-113 49q-66 -5 -111 -39.5t-49 -79.5q-5 -57 42 -88.5t120 -31.5zM508 966q56 1 99 32t49 81q4 52 -34.5 83t-104.5 31q-42 0 -77 -13.5t-57 -35.5t-24 -51q-4 -33 14.5 -54t55.5 -37z
" />
    <glyph glyph-name="uni2079" unicode="&#x2079;" horiz-adv-x="734" 
d="M416 489q-73 0 -128 32t-83.5 88.5t-20.5 130.5h125q-4 -59 27.5 -93.5t87.5 -34.5q92 0 140.5 86t62.5 230q1 20 2 38t0 39q-16 -68 -48.5 -110t-76.5 -61.5t-94 -19.5q-66 0 -114 32t-71.5 88.5t-17.5 129.5q7 75 44.5 131t97.5 87t135 31q85 0 148 -49.5t94 -139
t20 -209.5q-12 -130 -53 -225.5t-110.5 -148t-166.5 -52.5zM449 925q35 0 66 17t52 47t25 69q5 61 -30 97.5t-90 36.5q-53 0 -94 -36.5t-47 -97.5q-6 -63 28 -98t90 -35z" />
    <glyph glyph-name="ellipsis" unicode="&#x2026;" horiz-adv-x="1250" 
d="M180 -18q-60 0 -95 42t-28 105q6 61 49 103.5t103 42.5q58 0 94.5 -40.5t30.5 -105.5q-5 -65 -50 -106t-104 -41zM616 -18q-60 0 -95 42t-28 105q6 61 49 103.5t103 42.5q58 0 94.5 -40.5t30.5 -105.5q-5 -65 -50 -106t-104 -41zM1060 -18q-60 0 -95 42t-28 105
q6 61 49 103.5t103 42.5q58 0 94.5 -40.5t30.5 -105.5q-5 -65 -50 -106t-104 -41z" />
    <glyph glyph-name="exclamdown" unicode="&#xa1;" horiz-adv-x="521" 
d="M457 875l-61 -893h-210l106 893h165zM415 1309q61 0 95.5 -43.5t29.5 -102.5q-6 -61 -48 -104t-104 -43t-97 43t-29 104q6 60 49 103t104 43z" />
    <glyph glyph-name="questiondown" unicode="&#xbf;" horiz-adv-x="921" 
d="M644 892l-8 -82q-9 -92 -33.5 -147t-67.5 -92t-108 -76q-48 -29 -84.5 -54.5t-58 -57.5t-25.5 -81q-4 -73 39.5 -114.5t131.5 -41.5q95 0 153 48.5t73 125.5h202q-24 -165 -138 -267.5t-302 -102.5q-128 0 -213.5 47t-125.5 127.5t-33 179.5q6 80 37.5 135.5t80.5 95.5
t106 74q60 36 96.5 63t54.5 62t22 95l6 63h195zM579 1290q64 0 97 -43.5t26 -105.5q-6 -60 -47.5 -100.5t-105.5 -40.5t-95.5 41.5t-27.5 100.5q5 65 48 106.5t105 41.5z" />
    <glyph glyph-name="periodcentered" unicode="&#xb7;" horiz-adv-x="370" 
d="M243 432q-60 0 -95 42t-28 105q6 61 49 103.5t103 42.5q58 0 94.5 -40.5t30.5 -105.5q-5 -65 -50 -106t-104 -41z" />
    <glyph glyph-name="bullet" unicode="&#x2022;" horiz-adv-x="564" 
d="M330 335q-102 0 -161.5 72t-46.5 178q11 103 83 175t174 72q99 0 160 -69.5t53 -177.5q-10 -110 -85.5 -180t-176.5 -70z" />
    <glyph glyph-name="quotesinglbase" unicode="&#x201a;" horiz-adv-x="474" 
d="M129 -258l-136 80q60 32 107 73t66 95q-47 9 -78 42.5t-25 86.5q5 55 47.5 94t101.5 39q51 0 83 -27.5t47 -73t10 -98.5q-6 -57 -34 -116t-76 -110t-113 -85z" />
    <glyph glyph-name="quotedblbase" unicode="&#x201e;" horiz-adv-x="854" 
d="M509 -258l-136 80q60 32 107 73t66 95q-47 9 -78 42.5t-25 86.5q5 55 47.5 94t101.5 39q51 0 83 -27.5t47 -73t10 -98.5q-6 -57 -34 -116t-76 -110t-113 -85zM129 -258l-136 80q60 32 107 73t66 95q-47 9 -78 42.5t-25 86.5q5 55 47.5 94t101.5 39q51 0 83 -27.5t47 -73
t10 -98.5q-6 -57 -34 -116t-76 -110t-113 -85z" />
    <glyph glyph-name="quotedblleft" unicode="&#x201c;" horiz-adv-x="850" 
d="M670 778q-72 0 -110 59t-29 142q5 59 35.5 118t80.5 109t115 84l128 -82q-60 -32 -107 -73t-67 -96q46 -7 77 -39.5t25 -85.5q-5 -57 -46.5 -96.5t-101.5 -39.5zM296 778q-72 0 -110 59t-29 142q5 59 35.5 118t80.5 109t115 84l128 -82q-60 -32 -107 -73t-67 -96
q46 -7 77 -39.5t25 -85.5q-5 -57 -46.5 -96.5t-101.5 -39.5z" />
    <glyph glyph-name="quotedblright" unicode="&#x201d;" horiz-adv-x="856" 
d="M649 778l-127 82q61 33 107.5 75t65.5 95q-48 8 -78 41t-25 86q6 57 47.5 95t102.5 38q47 0 80 -26.5t48.5 -72t8.5 -101.5q-5 -60 -35.5 -118.5t-80.5 -108.5t-114 -85zM267 778l-127 82q61 33 107.5 75t65.5 95q-48 8 -78 41t-25 86q6 57 47.5 95t102.5 38
q47 0 80 -26.5t48.5 -72t8.5 -101.5q-5 -60 -35.5 -118.5t-80.5 -108.5t-114 -85z" />
    <glyph glyph-name="guillemotleft" unicode="&#xab;" horiz-adv-x="1242" 
d="M489 106l-352 431l473 430l131 -111l-410 -355l4 66l310 -356zM1005 106l-352 431l473 430l131 -111l-410 -355l4 66l310 -356z" />
    <glyph glyph-name="guillemotright" unicode="&#xbb;" horiz-adv-x="1237" 
d="M223 106l-131 105l409 356l-3 -60l-311 355l156 105l352 -430zM734 106l-131 105l409 356l-3 -60l-311 355l156 105l352 -430z" />
    <glyph glyph-name="guilsinglleft" unicode="&#x2039;" horiz-adv-x="726" 
d="M489 106l-352 431l473 430l131 -111l-410 -355l4 66l310 -356z" />
    <glyph glyph-name="guilsinglright" unicode="&#x203a;" horiz-adv-x="726" 
d="M223 106l-131 105l409 356l-3 -60l-311 355l156 105l352 -430z" />
    <glyph glyph-name="florin" unicode="&#x192;" horiz-adv-x="530" 
d="M-18 -490q-41 0 -85 7t-87 18l53 167q24 -10 48.5 -16t47.5 -6q26 0 51 11.5t43.5 39.5t22.5 77l118 1282q10 105 52 169.5t104.5 95t131.5 30.5q41 0 85.5 -6t86.5 -18l-54 -167q-23 10 -47 16t-48 6q-26 0 -51 -11.5t-43 -39t-23 -77.5l-118 -1282q-9 -104 -51.5 -169
t-104.5 -96t-132 -31zM36 823l14 145h493l-15 -145h-492z" />
    <glyph glyph-name="paragraph" unicode="&#xb6;" 
d="M533 476q-215 0 -322.5 106.5t-88.5 297.5q21 193 152 299t343 106h431l-19 -189h-315l-65 -620h-116zM467 -252l161 1537h157l-160 -1537h-158zM762 -252l160 1537h158l-161 -1537h-157z" />
    <glyph glyph-name="section" unicode="&#xa7;" horiz-adv-x="968" 
d="M528 198l1 170q83 3 132.5 40t55.5 89q6 47 -25 72t-87 45l-179 73q-97 38 -147.5 104.5t-40.5 161.5q8 83 58 143.5t133.5 93.5t189.5 33q171 0 252 -80t73 -200h-184q-1 53 -40 82t-108 29q-54 0 -90.5 -16t-56.5 -41.5t-24 -53.5q-5 -44 25.5 -71t80.5 -44l191 -81
q93 -35 148 -95.5t45 -154.5q-6 -75 -56 -142.5t-138 -110.5t-209 -46zM448 -216q-110 0 -193 38t-126.5 109.5t-34.5 170.5h182q-6 -71 41.5 -109.5t129.5 -38.5q85 0 135 36t56 88q6 48 -27 73t-85 44l-178 73q-98 38 -148.5 104.5t-40.5 160.5q13 124 117 198t265 79
l-5 -169q-80 -4 -124 -38t-50 -79q-5 -44 26 -71.5t80 -44.5l191 -80q93 -35 148 -95.5t46 -154.5q-7 -75 -57 -142t-138 -109.5t-210 -42.5z" />
    <glyph glyph-name="copyright" unicode="&#xa9;" horiz-adv-x="1409" 
d="M658 -12q-136 0 -249.5 51t-194.5 141t-119 208.5t-24 255.5q14 135 77.5 254t163.5 209t224 141t260 51q135 0 248.5 -51t194.5 -141t119.5 -209t23.5 -254q-14 -137 -77.5 -255.5t-163 -208.5t-224 -141t-259.5 -51zM670 94q114 0 217.5 43t186.5 118.5t136.5 175
t65.5 213.5q12 113 -20.5 212.5t-100 175t-162.5 118t-209 42.5q-113 0 -216.5 -42.5t-187.5 -117.5t-137 -175t-65 -213t20.5 -213t100 -175.5t163 -118.5t208.5 -43zM681 244q-92 0 -155 49t-91 139.5t-16 216.5q12 131 59.5 219.5t119.5 134t159 45.5q119 0 181.5 -65
t73.5 -168l-127 -25q-11 63 -47 102.5t-92 39.5q-48 0 -91 -31.5t-72.5 -94.5t-38.5 -157q-9 -88 5 -152.5t50 -100t93 -35.5q72 0 116.5 43t51.5 110h124q-8 -86 -47.5 -146.5t-105 -92t-150.5 -31.5z" />
    <glyph glyph-name="registered" unicode="&#xae;" horiz-adv-x="1409" 
d="M658 -12q-136 0 -249.5 51t-194.5 141t-119 208.5t-24 255.5q14 135 77.5 254t163.5 209t224 141t260 51q135 0 248.5 -51t194.5 -141t119.5 -209t23.5 -254q-14 -137 -77.5 -255.5t-163 -208.5t-224 -141t-259.5 -51zM670 94q114 0 217.5 43t186.5 118.5t136.5 175
t65.5 213.5q12 113 -20.5 212.5t-100 175t-162.5 118t-209 42.5q-113 0 -216.5 -42.5t-187.5 -117.5t-137 -175t-65 -213t20.5 -213t100 -175.5t163 -118.5t208.5 -43zM448 246l75 799h261q127 0 189 -67t51 -176q-9 -87 -59 -147.5t-136 -82.5l166 -326h-154l-138 316h-107
l-29 -316h-119zM604 651h131q75 0 117.5 38.5t47.5 100.5q6 64 -26 102t-101 38h-142z" />
    <glyph glyph-name="trademark" unicode="&#x2122;" horiz-adv-x="1253" 
d="M303 968l52 551h-182l9 93h461l-9 -93h-182l-52 -551h-97zM674 968l60 644h139l130 -397l205 397h136l-61 -644h-98l48 521l8 -1l-223 -447h-64l-142 462h8l-49 -535h-97z" />
    <glyph glyph-name="degree" unicode="&#xb0;" horiz-adv-x="701" 
d="M436 990q-74 0 -133 36.5t-90.5 98.5t-25.5 138q7 75 49 136.5t107.5 98.5t139.5 37q76 0 134.5 -37t90 -98.5t25.5 -136.5q-7 -76 -49.5 -138t-107 -98.5t-140.5 -36.5zM447 1114q61 0 108.5 43t51.5 106q6 62 -33.5 104.5t-101.5 42.5t-108 -44t-53 -103
q-5 -62 35 -105.5t101 -43.5z" />
    <glyph glyph-name="brokenbar" unicode="&#xa6;" horiz-adv-x="537" 
d="M148 -244l74 787h194l-74 -787h-194zM242 745l74 786h194l-74 -786h-194z" />
    <glyph glyph-name="dagger" unicode="&#x2020;" 
d="M421 -252l190 1537h252l-242 -1537h-200zM239 773l20 144l428 15l426 -15l-20 -144l-430 -17z" />
    <glyph glyph-name="daggerdbl" unicode="&#x2021;" 
d="M421 -252l190 1537h252l-242 -1537h-200zM239 773l20 144l428 15l426 -15l-20 -144l-430 -17zM176 435l20 143l429 16l425 -16l-19 -143l-430 -17z" />
    <glyph glyph-name="cent" unicode="&#xa2;" horiz-adv-x="947" 
d="M474 950l43 182h188l-43 -182h-188zM286 -160l44 181h189l-44 -181h-189zM437 -26q-109 0 -196.5 62.5t-133.5 177.5t-32 270q15 164 82.5 277.5t166.5 173t209 59.5q81 0 141 -29.5t101 -78t62 -109.5t24 -125l-198 -8q-10 68 -47.5 112t-103.5 44q-55 0 -106 -34
t-87.5 -103.5t-46.5 -178.5q-10 -102 11 -172.5t66 -106.5t105 -36q82 0 128 45.5t53 125.5h197q-9 -102 -60 -185t-136 -132t-199 -49z" />
    <glyph glyph-name="currency" unicode="&#xa4;" 
d="M569 214q-117 0 -210.5 58t-144.5 155t-42 215t73 215t165.5 155t219.5 58q119 0 211.5 -58t143.5 -155t43 -215q-9 -118 -74 -215t-166 -155t-219 -58zM186 155l-105 115l236 221l107 -117zM935 153l-183 201l123 116l187 -202zM584 404q66 0 122 32.5t92 87t40 118.5
q5 68 -24.5 121.5t-81.5 85t-116 31.5q-67 0 -123 -33t-91 -86.5t-40 -118.5q-5 -67 24 -120.5t81 -85.5t117 -32zM337 810l-195 209l124 116l196 -210zM896 807l-109 116l223 205l107 -116z" />
    <glyph glyph-name="Euro" unicode="&#x20ac;" horiz-adv-x="1132" 
d="M584 -26q-154 0 -258.5 81.5t-151.5 232.5t-26 360q20 217 99 365t199 224t264 76q199 0 302.5 -108t121.5 -280l-211 -43q-20 106 -79 170.5t-152 64.5q-80 0 -151 -52t-120.5 -156.5t-64.5 -260.5q-13 -146 10 -253t82 -165.5t154 -58.5q119 0 193 70.5t85 181.5h209
q-14 -143 -80 -243t-174.5 -153t-250.5 -53zM10 471l13 125h662l-10 -125h-665zM41 676l11 123h664l-12 -123h-663z" />
    <glyph glyph-name="uni20A8" unicode="&#x20a8;" horiz-adv-x="1077" 
d="M264 1164l11 124h812l-12 -124h-326q52 -36 82 -84.5t38 -107.5h188l-10 -124h-183q-17 -87 -64 -158.5t-129.5 -120t-206.5 -66.5l430 -503h-275l-421 493l12 124h122q143 0 220.5 65t99.5 166h-420l14 124h412q-12 85 -78.5 138.5t-195.5 53.5h-120z" />
    <glyph glyph-name="yen" unicode="&#xa5;" horiz-adv-x="1062" 
d="M923 401h-732l12 123h732zM899 202h-733l14 125h732zM427 0l50 531l-329 757h231l217 -534l332 534h228l-485 -757l-49 -531h-195z" />
    <glyph glyph-name="cent.tf" 
d="M608 950l43 182h188l-43 -182h-188zM420 -160l44 181h189l-44 -181h-189zM571 -26q-109 0 -196.5 62.5t-133.5 177.5t-32 270q15 164 82.5 277.5t166.5 173t209 59.5q81 0 141 -29.5t101 -78t62 -109.5t24 -125l-198 -8q-10 68 -47.5 112t-103.5 44q-55 0 -106 -34
t-87.5 -103.5t-46.5 -178.5q-10 -102 11 -172.5t66 -106.5t105 -36q82 0 128 45.5t53 125.5h197q-9 -102 -60 -185t-136 -132t-199 -49z" />
    <glyph glyph-name="currency.tf" 
d="M569 214q-117 0 -210.5 58t-144.5 155t-42 215t73 215t165.5 155t219.5 58q119 0 211.5 -58t143.5 -155t43 -215q-9 -118 -74 -215t-166 -155t-219 -58zM186 155l-105 115l236 221l107 -117zM935 153l-183 201l123 116l187 -202zM584 404q66 0 122 32.5t92 87t40 118.5
q5 68 -24.5 121.5t-81.5 85t-116 31.5q-67 0 -123 -33t-91 -86.5t-40 -118.5q-5 -67 24 -120.5t81 -85.5t117 -32zM337 810l-195 209l124 116l196 -210zM896 807l-109 116l223 205l107 -116z" />
    <glyph glyph-name="dollar.tf" 
d="M472 -197l15 176q-114 12 -204.5 62t-138 139t-35.5 219h193q-10 -102 44.5 -155t160.5 -66l39 410l-80 31q-145 55 -218.5 132t-61.5 213q14 143 123.5 237.5t303.5 108.5l15 152h142l-16 -154q167 -19 249 -115t91 -250h-192q-5 64 -45.5 112.5t-119.5 62.5l-37 -381
l146 -58q127 -50 187 -129t48 -208q-9 -88 -61.5 -168.5t-150 -134.5t-242.5 -63l-15 -173h-140zM647 175q103 9 156 59t59 114q6 61 -26 105.5t-96 70.5l-58 24zM564 780l32 342q-92 -6 -142.5 -52.5t-55.5 -108.5q-5 -59 23 -94t95 -65z" />
    <glyph glyph-name="Euro.tf" 
d="M597 -26q-154 0 -258.5 81.5t-151.5 232.5t-26 360q20 217 99 365t199 224t264 76q199 0 302.5 -108t121.5 -280l-211 -43q-20 106 -79 170.5t-152 64.5q-80 0 -151 -52t-120.5 -156.5t-64.5 -260.5q-13 -146 10 -253t82 -165.5t154 -58.5q119 0 193 70.5t85 181.5h209
q-14 -143 -80 -243t-174.5 -153t-250.5 -53zM23 471l13 125h662l-10 -125h-665zM54 676l11 123h664l-12 -123h-663z" />
    <glyph glyph-name="uni20A8.tf" horiz-adv-x="1077" 
d="M160 1164l11 124h812l-12 -124h-326q52 -36 82 -84.5t38 -107.5h188l-10 -124h-183q-17 -87 -64 -158.5t-129.5 -120t-206.5 -66.5l430 -503h-275l-421 493l12 124h122q143 0 220.5 65t99.5 166h-420l14 124h412q-12 85 -78.5 138.5t-195.5 53.5h-120z" />
    <glyph glyph-name="sterling.tf" 
d="M103 0l18 194h55q67 0 99.5 43.5t40.5 132.5l17 185h-153l13 146h153l17 181q14 141 67 236.5t138 145t196 49.5q143 0 221 -85t82 -252h-190q-3 69 -38.5 105t-93.5 36q-73 0 -124 -56.5t-64 -178.5l-17 -181h313l-13 -146h-313l-16 -171q-7 -65 -26 -112t-58 -78h268
q88 0 131.5 38.5t60.5 120.5h210q-21 -166 -116 -259.5t-303 -93.5h-575z" />
    <glyph glyph-name="yen.tf" 
d="M871 401h-732l12 123h732zM847 202h-733l14 125h732zM375 0l50 531l-329 757h231l217 -534l332 534h228l-485 -757l-49 -531h-195z" />
    <glyph glyph-name="uni2215" unicode="&#x2215;" horiz-adv-x="606" 
d="M-221 -1l957 1350h151l-959 -1350h-149z" />
    <glyph glyph-name="multiply" unicode="&#xd7;" horiz-adv-x="1000" 
d="M190 107l-136 137l340 284l-3 -62l-284 284l148 123l284 -284l-68 2l341 283l138 -138l-343 -282l5 62l284 -284l-149 -123l-283 284l68 -2z" />
    <glyph glyph-name="divide" unicode="&#xf7;" horiz-adv-x="1000" 
d="M102 414l22 185h794l-22 -185h-794zM438 26q-60 0 -95.5 42t-28.5 105q7 61 49.5 103.5t102.5 42.5q59 0 95 -41t31 -105q-5 -65 -50 -106t-104 -41zM541 703q-60 0 -95 42.5t-28 104.5t49.5 104t102.5 42q59 0 95 -40.5t30 -105.5q-5 -64 -49.5 -105.5t-104.5 -41.5z
" />
    <glyph glyph-name="notequal" unicode="&#x2260;" horiz-adv-x="1000" 
d="M237 86l338 844h198l-338 -844h-198zM124 212l18 185h696l-19 -185h-695zM165 591l18 188h696l-18 -188h-696z" />
    <glyph glyph-name="greaterequal" unicode="&#x2265;" horiz-adv-x="1000" 
d="M188 354l-52 162l587 168l-9 -59l-573 207l49 185l639 -276l-19 -197zM54 10l22 184h795l-22 -184h-795z" />
    <glyph glyph-name="lessequal" unicode="&#x2264;" horiz-adv-x="1000" 
d="M770 350l-629 183l-1 198l590 267l87 -152l-565 -231l-19 61l587 -164zM48 10l22 184h795l-22 -184h-795z" />
    <glyph glyph-name="plusminus" unicode="&#xb1;" horiz-adv-x="1000" 
d="M456 1106h194l-24 -271h281l-18 -188h-282l-24 -271h-194l26 271h-283l17 188h282zM56 10l22 184h795l-22 -184h-795z" />
    <glyph glyph-name="approxequal" unicode="&#x2248;" horiz-adv-x="1000" 
d="M205 511l-98 63q43 124 102 194.5t148 70.5q37 0 76 -13.5t104 -42.5q64 -28 96.5 -40t58.5 -12q40 0 71.5 26.5t60.5 85.5l99 -75q-47 -123 -112 -183t-146 -60q-34 0 -69 12t-109 43q-79 34 -105.5 43.5t-44.5 9.5q-39 0 -68 -24.5t-64 -97.5zM170 100l-98 62
q43 124 101.5 194.5t147.5 70.5q37 0 76.5 -13.5t103.5 -42.5q64 -28 97 -40t58 -12q40 0 72 26.5t61 85.5l98 -75q-47 -122 -111.5 -182.5t-146.5 -60.5q-34 0 -69 12t-109 43q-79 34 -105 43.5t-45 9.5q-38 0 -67 -24.5t-64 -96.5z" />
    <glyph glyph-name="logicalnot" unicode="&#xac;" horiz-adv-x="1000" 
d="M174 662h702l-51 -366h-143l35 256l38 -50h-603z" />
    <glyph glyph-name="infinity" unicode="&#x221e;" horiz-adv-x="1269" 
d="M323 191q-76 0 -145.5 33t-107.5 101.5t-23 175.5q16 108 73 176.5t135.5 101t154.5 32.5q58 0 117 -20.5t108 -71t75 -138.5h-46q52 88 115 138.5t128.5 71t122.5 20.5q77 0 145.5 -32.5t107 -101t23.5 -176.5q-16 -107 -73.5 -175.5t-135.5 -101.5t-155 -33
q-57 0 -116 20.5t-107.5 71t-75.5 138.5h46q-52 -88 -115 -138.5t-128 -71t-123 -20.5zM375 329q76 0 150.5 50.5t138.5 160.5l-11 -77q-34 110 -94 160.5t-136 50.5q-44 0 -89 -17.5t-78.5 -55.5t-42.5 -100t14 -99.5t63.5 -55t84.5 -17.5zM930 329q43 0 88.5 17.5t79 55
t42.5 99.5t-14.5 100t-64 55.5t-84.5 17.5q-75 0 -149.5 -50.5t-139.5 -160.5l11 77q35 -110 95 -160.5t136 -50.5z" />
    <glyph glyph-name="emptyset" unicode="&#x2205;" 
d="M153 70l-73 80l988 899l72 -81zM572 142q-115 0 -205 56.5t-137.5 151.5t-36.5 210q11 116 76.5 210.5t166 151t216.5 56.5q115 0 204 -56.5t136 -151t36 -210.5q-11 -115 -76 -210.5t-165 -151.5t-215 -56zM583 273q79 0 147.5 39t114 104t52.5 144q8 79 -24.5 143.5
t-93 103.5t-139.5 39t-148 -39t-114.5 -103.5t-53.5 -143.5q-7 -79 25 -144t93.5 -104t140.5 -39z" />
    <glyph glyph-name="integral" unicode="&#x222b;" 
d="M163 -421l52 164q26 -10 53 -15.5t53 -5.5q29 0 57 11t48 39.5t23 78.5l87 1242q7 102 51 166.5t112 95t147 30.5q45 0 93.5 -6.5t94.5 -17.5l-52 -164q-26 10 -53 15.5t-53 5.5q-29 0 -57 -11t-47.5 -39t-23.5 -78l-87 -1242q-6 -102 -50.5 -166.5t-112.5 -95
t-147 -30.5q-45 0 -93.5 6.5t-94.5 16.5z" />
    <glyph glyph-name="product" unicode="&#x220f;" 
d="M12 -473l245 1758h930l-246 -1758h-210l229 1633l48 -58h-623l64 58l-228 -1633h-209z" />
    <glyph glyph-name="summation" unicode="&#x2211;" 
d="M566 406l-372 696l25 183h930l-25 -183h-865l126 58l411 -754h-230zM566 406h230l-623 -755l-109 58h866l-26 -182h-930l25 182z" />
    <glyph glyph-name="radical" unicode="&#x221a;" 
d="M428 1l-166 473l68 -81l-267 -79l-43 123l408 151l158 -450h-90l653 1545h178l-730 -1682h-169z" />
    <glyph glyph-name="uni00B5" unicode="&#xb5;" horiz-adv-x="1119" 
d="M111 -400l132 1370h195l-58 -596q-8 -101 31 -152t120 -51q67 0 124.5 39t96.5 114t49 182l44 464h194l-90 -970h-196l17 178q-51 -98 -125.5 -147t-164.5 -49q-82 0 -138 33l-41 -415h-190z" />
    <glyph glyph-name="partialdiff" unicode="&#x2202;" horiz-adv-x="1059" 
d="M495 -24q-96 0 -179.5 42.5t-135 131.5t-51.5 226q0 124 41.5 223t110 168.5t151.5 106.5t164 37q48 0 99.5 -16t97 -55.5t73.5 -109t28 -178.5l-11 3q14 231 -30 407t-134.5 316.5t-216.5 264.5l177 93q135 -141 213 -287t110.5 -295.5t32.5 -300.5q0 -204 -47 -351.5
t-125.5 -242t-174 -139t-193.5 -44.5zM510 139q84 0 143 54t90 138t31 173q0 124 -52.5 181.5t-128.5 57.5q-74 0 -133 -49t-94 -131.5t-35 -184.5q0 -110 45.5 -174.5t133.5 -64.5z" />
    <glyph glyph-name="perthousand" unicode="&#x2030;" horiz-adv-x="1930" 
d="M193 0l906 1288h197l-905 -1288h-198zM1012 -26q-97 0 -162.5 74.5t-51.5 225.5q15 150 95 224.5t176 74.5t162 -74.5t52 -224.5q-14 -151 -94 -225.5t-177 -74.5zM1025 114q41 0 72 37t38 123q10 85 -14 122.5t-66 37.5t-71.5 -37.5t-38.5 -122.5q-7 -86 15.5 -123
t64.5 -37zM418 715q-64 0 -116 33t-79 100t-18 166q9 100 49 166t98 99.5t122 33.5q98 0 164 -75t51 -224q-14 -149 -94 -224t-177 -75zM431 854q42 0 72 37t38 123t-15.5 123t-65.5 37t-71.5 -37t-37.5 -123q-9 -86 14 -123t66 -37zM1590 -26q-65 0 -117 33t-79.5 100
t-17.5 167q15 150 94.5 224.5t175.5 74.5q65 0 117.5 -33.5t80 -99.5t17.5 -166q-14 -151 -94 -225.5t-177 -74.5zM1602 114q42 0 71.5 37.5t39.5 122.5t-14.5 122.5t-65.5 37.5q-43 0 -73 -37.5t-37 -122.5q-7 -86 15.5 -123t63.5 -37z" />
    <glyph glyph-name="plus.tf" 
d="M457 0l37 397h-357l18 188h357l37 397h194l-37 -397h356l-19 -188h-355l-37 -397h-194z" />
    <glyph glyph-name="minus.tf" 
d="M192 295l22 184h795l-22 -184h-795z" />
    <glyph glyph-name="multiply.tf" 
d="M300 107l-136 137l340 284l-3 -62l-284 284l148 123l284 -284l-68 2l341 283l138 -138l-343 -282l5 62l284 -284l-149 -123l-283 284l68 -2z" />
    <glyph glyph-name="divide.tf" 
d="M246 414l22 185h794l-22 -185h-794zM582 26q-60 0 -95.5 42t-28.5 105q7 61 49.5 103.5t102.5 42.5q59 0 95 -41t31 -105q-5 -65 -50 -106t-104 -41zM685 703q-60 0 -95 42.5t-28 104.5t49.5 104t102.5 42q59 0 95 -40.5t30 -105.5q-5 -64 -49.5 -105.5t-104.5 -41.5z
" />
    <glyph glyph-name="equal.tf" 
d="M274 613l18 187h683l-18 -187h-683zM233 204l18 186h683l-18 -186h-683z" />
    <glyph glyph-name="notequal.tf" 
d="M341 86l338 844h198l-338 -844h-198zM228 212l18 185h696l-19 -185h-695zM269 591l18 188h696l-18 -188h-696z" />
    <glyph glyph-name="greater.tf" 
d="M354 62l-112 165l560 408l-482 411l143 165l548 -478l-18 -194z" />
    <glyph glyph-name="less.tf" 
d="M887 1211l113 -165l-560 -411l482 -408l-143 -165l-547 477l18 194z" />
    <glyph glyph-name="greaterequal.tf" 
d="M324 354l-52 162l587 168l-9 -59l-573 207l49 185l639 -276l-19 -197zM190 10l22 184h795l-22 -184h-795z" />
    <glyph glyph-name="lessequal.tf" 
d="M886 350l-629 183l-1 198l590 267l87 -152l-565 -231l-19 61l587 -164zM164 10l22 184h795l-22 -184h-795z" />
    <glyph glyph-name="plusminus.tf" 
d="M517 1106h194l-24 -271h281l-18 -188h-282l-24 -271h-194l26 271h-283l17 188h282zM117 10l22 184h795l-22 -184h-795z" />
    <glyph glyph-name="approxequal.tf" 
d="M288 511l-98 63q43 124 102 194.5t148 70.5q37 0 76 -13.5t104 -42.5q64 -28 96.5 -40t58.5 -12q40 0 71.5 26.5t60.5 85.5l99 -75q-47 -123 -112 -183t-146 -60q-34 0 -69 12t-109 43q-79 34 -105.5 43.5t-44.5 9.5q-39 0 -68 -24.5t-64 -97.5zM253 100l-98 62
q43 124 101.5 194.5t147.5 70.5q37 0 76.5 -13.5t103.5 -42.5q64 -28 97 -40t58 -12q40 0 72 26.5t61 85.5l98 -75q-47 -122 -111.5 -182.5t-146.5 -60.5q-34 0 -69 12t-109 43q-79 34 -105 43.5t-45 9.5q-38 0 -67 -24.5t-64 -96.5z" />
    <glyph glyph-name="asciitilde.tf" 
d="M250 418l-99 62q43 124 102.5 194.5t142.5 70.5q38 0 79.5 -13t105.5 -43q64 -29 99.5 -40.5t61.5 -11.5q74 0 126 112l99 -75q-46 -122 -112.5 -182.5t-146.5 -60.5q-29 0 -71 13.5t-106 42.5q-64 28 -97 40t-60 12q-33 0 -63 -27.5t-61 -93.5z" />
    <glyph glyph-name="asciicircum.tf" 
d="M176 450l417 747h156l275 -747h-215l-163 491l-255 -491h-215z" />
    <glyph glyph-name="percent.tf" 
d="M47 0l906 1288h197l-905 -1288h-198zM866 -26q-97 0 -162.5 74.5t-51.5 225.5q15 150 95 224.5t176 74.5t162 -74.5t52 -224.5q-14 -151 -94 -225.5t-177 -74.5zM879 114q41 0 72 37t38 123q10 85 -14 122.5t-66 37.5t-71.5 -37.5t-38.5 -122.5q-7 -86 15.5 -123
t64.5 -37zM272 715q-64 0 -116 33t-79 100t-18 166q9 100 49 166t98 99.5t122 33.5q98 0 164 -75t51 -224q-14 -149 -94 -224t-177 -75zM285 854q42 0 72 37t38 123t-15.5 123t-65.5 37t-71.5 -37t-37.5 -123q-9 -86 14 -123t66 -37z" />
    <glyph glyph-name="lozenge" unicode="&#x25ca;" horiz-adv-x="1104" 
d="M146 643l446 642h169l319 -642l-444 -643h-169zM352 602l7 81l236 -496h-50l328 496l-7 -81l-233 495h50z" />
    <glyph glyph-name="uni0308" unicode="&#x308;" horiz-adv-x="0" 
d="M358 1222q-53 0 -82.5 35t-24.5 87q4 51 39.5 88t90.5 37q47 0 79 -33t29 -88q-5 -58 -44.5 -92t-86.5 -34zM693 1224q-51 0 -81 34.5t-25 86.5q4 50 40.5 88t89.5 38q47 0 78 -33t28 -89q-5 -61 -43.5 -93t-86.5 -32z" />
    <glyph glyph-name="uni0307" unicode="&#x307;" horiz-adv-x="0" 
d="M358 1224q-51 0 -81.5 34.5t-25.5 86.5q4 50 41 88t93 38q47 0 77 -34t25 -88q-6 -58 -42 -91.5t-87 -33.5z" />
    <glyph glyph-name="gravecomb" unicode="&#x300;" horiz-adv-x="0" 
d="M709 1084l-465 212l90 188l441 -265z" />
    <glyph glyph-name="acutecomb" unicode="&#x301;" horiz-adv-x="0" 
d="M277 1126l-38 135l492 265l52 -188z" />
    <glyph glyph-name="uni030B" unicode="&#x30b;" horiz-adv-x="0" 
d="M624 1103l-108 19l33 334l151 -33zM365 1117l-110 14l13 338l154 -25z" />
    <glyph glyph-name="uni030C.alt" horiz-adv-x="0" 
d="M315 986l-105 63q48 25 85 58t53 77q-38 7 -62.5 33t-20.5 69q5 44 38 74.5t80 30.5q58 0 87 -47t23 -110q-7 -69 -53.5 -137.5t-124.5 -110.5z" />
    <glyph glyph-name="uni0302" unicode="&#x302;" horiz-adv-x="0" 
d="M346 1124l-111 107l390 320l333 -320l-135 -107l-218 206z" />
    <glyph glyph-name="uni030C" unicode="&#x30c;" horiz-adv-x="0" 
d="M879 1562l111 -108l-390 -320l-333 320l135 108l218 -206z" />
    <glyph glyph-name="uni0306" unicode="&#x306;" horiz-adv-x="0" 
d="M529 1158q-141 0 -211.5 79.5t-51.5 214.5h168q-11 -75 20 -114.5t94 -39.5q64 0 105.5 39.5t52.5 114.5h168q-17 -137 -110 -215.5t-235 -78.5z" />
    <glyph glyph-name="uni030A" unicode="&#x30a;" horiz-adv-x="0" 
d="M475 1090q-62 0 -113.5 31t-82 82.5t-30.5 112.5q0 62 30.5 113.5t82 82t113.5 30.5t113.5 -30.5t82 -82t30.5 -113.5q0 -61 -30.5 -112.5t-82 -82.5t-113.5 -31zM475 1233q35 0 59 24t24 59t-24 59t-59 24t-59 -24t-24 -59t24 -59t59 -24z" />
    <glyph glyph-name="tildecomb" unicode="&#x303;" horiz-adv-x="0" 
d="M308 1187l-72 52q34 119 89 181t120 62q25 0 51.5 -10.5t73.5 -38.5q43 -25 65.5 -37.5t43.5 -12.5q27 0 54 22.5t52 76.5l76 -60q-19 -71 -51.5 -123.5t-71 -82t-77.5 -29.5q-25 0 -55 13t-82 44q-44 26 -62 35t-37 9q-28 0 -57 -21t-60 -80z" />
    <glyph glyph-name="uni0304" unicode="&#x304;" horiz-adv-x="0" 
d="M252 1341h671l-26 -173h-671z" />
    <glyph glyph-name="uni0312" unicode="&#x312;" horiz-adv-x="0" 
d="M417 1512l106 -63q-48 -25 -85.5 -58t-52.5 -77q37 -7 62 -33t20 -69q-4 -43 -37.5 -74t-80.5 -31q-58 0 -86.5 47t-23.5 110q7 69 53.5 138t124.5 110z" />
    <glyph glyph-name="uni0326" unicode="&#x326;" horiz-adv-x="0" 
d="M112 -465l-106 63q48 25 85.5 58t52.5 77q-37 7 -61.5 33t-20.5 69q5 44 37.5 74.5t79.5 30.5q59 0 87.5 -47t22.5 -110q-7 -69 -53 -137.5t-124 -110.5z" />
    <glyph glyph-name="uni0327" unicode="&#x327;" horiz-adv-x="0" 
d="M11 -364l25 78q73 -35 128 -39.5t86 14t32 51.5q1 30 -25.5 53t-70 40t-98.5 29l62 210l100 -13l-56 -192l-37 60q96 -17 158.5 -46.5t92.5 -68.5t30 -84q0 -58 -42.5 -93t-109 -46.5t-140 0t-135.5 47.5z" />
    <glyph glyph-name="uni0328" unicode="&#x328;" horiz-adv-x="0" 
d="M534 -331q-63 -35 -131.5 -53.5t-132.5 -18.5q-104 0 -171 47.5t-67 133.5q0 74 55.5 144t164.5 113l155 -39q-106 -39 -168 -83.5t-62 -97.5q0 -41 34 -58t77 -17q44 0 90 14.5t107 46.5z" />
    <glyph glyph-name="dotaccent" unicode="&#x2d9;" horiz-adv-x="404" 
d="M358 1224q-51 0 -81.5 34.5t-25.5 86.5q4 50 41 88t93 38q47 0 77 -34t25 -88q-6 -58 -42 -91.5t-87 -33.5z" />
    <glyph glyph-name="hungarumlaut" unicode="&#x2dd;" horiz-adv-x="607" 
d="M624 1103l-108 19l33 334l151 -33zM365 1117l-110 14l13 338l154 -25z" />
    <glyph glyph-name="caron" unicode="&#x2c7;" horiz-adv-x="892" 
d="M879 1562l111 -108l-390 -320l-333 320l135 108l218 -206z" />
    <glyph glyph-name="breve" unicode="&#x2d8;" horiz-adv-x="776" 
d="M529 1158q-141 0 -211.5 79.5t-51.5 214.5h168q-11 -75 20 -114.5t94 -39.5q64 0 105.5 39.5t52.5 114.5h168q-17 -137 -110 -215.5t-235 -78.5z" />
    <glyph glyph-name="ring" unicode="&#x2da;" horiz-adv-x="625" 
d="M475 1090q-62 0 -113.5 31t-82 82.5t-30.5 112.5q0 62 30.5 113.5t82 82t113.5 30.5t113.5 -30.5t82 -82t30.5 -113.5q0 -61 -30.5 -112.5t-82 -82.5t-113.5 -31zM475 1233q35 0 59 24t24 59t-24 59t-59 24t-59 -24t-24 -59t24 -59t59 -24z" />
    <glyph glyph-name="macron" unicode="&#xaf;" horiz-adv-x="841" 
d="M252 1341h671l-26 -173h-671z" />
    <glyph glyph-name="cedilla" unicode="&#xb8;" horiz-adv-x="584" 
d="M11 -364l25 78q73 -35 128 -39.5t86 14t32 51.5q1 30 -25.5 53t-70 40t-98.5 29l62 210l100 -13l-56 -192l-37 60q96 -17 158.5 -46.5t92.5 -68.5t30 -84q0 -58 -42.5 -93t-109 -46.5t-140 0t-135.5 47.5z" />
    <glyph glyph-name="ogonek" unicode="&#x2db;" horiz-adv-x="687" 
d="M534 -331q-63 -35 -131.5 -53.5t-132.5 -18.5q-104 0 -171 47.5t-67 133.5q0 74 55.5 144t164.5 113l155 -39q-106 -39 -168 -83.5t-62 -97.5q0 -41 34 -58t77 -17q44 0 90 14.5t107 46.5z" />
    <glyph glyph-name="uni02BC" unicode="&#x2bc;" horiz-adv-x="402" 
d="M281 786l-136 80q60 32 107 73t65 95q-45 9 -76 42t-27 87q6 55 48.5 94t101.5 39q74 0 111 -58t28 -141q-5 -58 -33.5 -117t-76.5 -110t-112 -84z" />
    </font>
</defs>
</svg>
