<?xml version="1.0" standalone="no"?>
<!DOCTYPE svg PUBLIC "-//W3C//DTD SVG 1.1//EN" "http://www.w3.org/Graphics/SVG/1.1/DTD/svg11.dtd" >
<svg xmlns="http://www.w3.org/2000/svg" xmlns:xlink="http://www.w3.org/1999/xlink" version="1.1">
<metadata>
Created by FontForge 20230101 at Wed Dec 13 10:48:37 2023
 By Glenn Lewis
Copyright 2011 The Lora Project Authors (https://github.com/cyrealtype/Lora-Cyrillic), with Reserved Font Name "Lora".
</metadata>
<defs>
<font id="Lora-Medium" horiz-adv-x="0" >
  <font-face 
    font-family="Lora Medium"
    font-weight="500"
    font-stretch="normal"
    units-per-em="1000"
    panose-1="0 0 0 0 0 0 0 0 0 0"
    ascent="800"
    descent="-200"
    x-height="500"
    cap-height="700"
    bbox="-118 -271 1265 1135"
    underline-thickness="50"
    underline-position="-125"
    unicode-range="U+000D-FB02"
  />
<missing-glyph horiz-adv-x="529" 
d="M43 0v500h427v-500h-427zM143 49h228v402h-228v-402z" />
    <glyph glyph-name="fi" unicode="fi" horiz-adv-x="638" 
d="M48 0v42q30 0 42 14t14.5 39t2.5 58l-1 291l-79 -2v58h79q2 129 61.5 193.5t173.5 64.5q63 0 109 -14t71 -36.5t24 -46.5q0 -20 -12 -37t-37 -17q-26 -1 -38.5 15t-12.5 33q0 6 1 12.5t3 12.5q-12 10 -35.5 19.5t-60.5 9.5q-49 0 -81 -21t-47.5 -60.5t-15.5 -94.5v-33
h181q30 0 56 1t43 3.5t20 5.5h38v-386q0 -18 -1 -36.5t-3 -37.5q16 1 32.5 1.5t30.5 1.5v-53h-223v42q30 0 42 14t14.5 39t2.5 58v227q0 16 1 33.5t3 38.5l-236 -6l1 -322q0 -18 -1 -36.5t-3 -37.5q16 1 33.5 1.5t31.5 1.5v-53h-224z" />
    <glyph glyph-name="fl" unicode="fl" horiz-adv-x="650" 
d="M106 526q0 79 23.5 130.5t66.5 76.5t99 25q39 0 68 -5t53 -10.5t47 -5.5q16 0 29.5 4.5t28.5 13.5h37v-631v-36.5t-3 -37.5q16 1 33 1.5t31 1.5v-53h-224v42q30 0 42 14t14.5 39t2.5 58v517q-20 12 -44 20t-47.5 11.5t-45.5 3.5q-41 0 -64.5 -16t-33.5 -45.5t-10 -68.5
v-75h128v-52l-127 -3l1 -320q0 -18 -1 -37t-3 -38q16 1 33.5 1.5t31.5 1.5v-53h-225v42q30 0 42 14t14.5 39t2.5 58v291l-79 -2v58h79v26z" />
    <glyph glyph-name=".notdef" horiz-adv-x="529" 
d="M43 0v500h427v-500h-427zM143 49h228v402h-228v-402z" />
    <glyph glyph-name="A" unicode="A" horiz-adv-x="640" 
d="M-3 0v45q30 0 46 16t27 43.5t24 61.5l202 553h40l219 -561q8 -19 18 -51.5t9 -55.5q17 2 33.5 2.5t31.5 1.5v-55h-243v44q35 1 46.5 15.5t9 35.5t-10.5 42l-30 81l-245 -6l-29 -87q-6 -20 -13 -38t-14 -35q18 2 38.5 2.5t36.5 1.5v-56h-196zM192 266h210l-63 169
q-12 33 -23 65.5t-20 62.5h-1q-8 -25 -18 -55t-23 -65z" />
    <glyph glyph-name="Aacute" unicode="&#xc1;" horiz-adv-x="640" 
d="M-3 0v45q30 0 46 16t27 43.5t24 61.5l202 553h40l219 -561q8 -19 18 -51.5t9 -55.5q17 2 33.5 2.5t31.5 1.5v-55h-243v44q35 1 46.5 15.5t9 35.5t-10.5 42l-30 81l-245 -6l-29 -87q-6 -20 -13 -38t-14 -35q18 2 38.5 2.5t36.5 1.5v-56h-196zM192 266h210l-63 169
q-12 33 -23 65.5t-20 62.5h-1q-8 -25 -18 -55t-23 -65zM279 757l-27 35l121 120q18 16 34 18.5t27.5 -2.5t15.5 -12q6 -9 7 -22t-6 -26.5t-28 -26.5z" />
    <glyph glyph-name="Abreve" unicode="&#x102;" horiz-adv-x="640" 
d="M-3 0v45q30 0 46 16t27 43.5t24 61.5l202 553h40l219 -561q8 -19 18 -51.5t9 -55.5q17 2 33.5 2.5t31.5 1.5v-55h-243v44q35 1 46.5 15.5t9 35.5t-10.5 42l-30 81l-245 -6l-29 -87q-6 -20 -13 -38t-14 -35q18 2 38.5 2.5t36.5 1.5v-56h-196zM192 266h210l-63 169
q-12 33 -23 65.5t-20 62.5h-1q-8 -25 -18 -55t-23 -65zM316 800q-30 0 -60 12t-54.5 36t-39.5 61l31 15q18 -21 50 -37.5t73 -16.5t73 16.5t50 37.5l32 -15q-15 -37 -40 -61t-54 -36t-61 -12z" />
    <glyph glyph-name="uni1EAE" unicode="&#x1eae;" horiz-adv-x="640" 
d="M-3 0v45q30 0 46 16t27 43.5t24 61.5l202 553h40l219 -561q8 -19 18 -51.5t9 -55.5q17 2 33.5 2.5t31.5 1.5v-55h-243v44q35 1 46.5 15.5t9 35.5t-10.5 42l-30 81l-245 -6l-29 -87q-6 -20 -13 -38t-14 -35q18 2 38.5 2.5t36.5 1.5v-56h-196zM192 266h210l-63 169
q-12 33 -23 65.5t-20 62.5h-1q-8 -25 -18 -55t-23 -65zM314 803q-27 0 -54.5 12.5t-50.5 39t-37 68.5l41 21q15 -28 42.5 -49t61.5 -21q35 0 62 22t41 50l39 -18q-23 -64 -60 -94.5t-85 -30.5zM322 933l-34 29l83 136q13 21 27.5 27t27.5 3t20 -9q8 -7 12 -20t0 -28.5
t-21 -31.5z" />
    <glyph glyph-name="uni1EB6" unicode="&#x1eb6;" horiz-adv-x="640" 
d="M-3 0v45q30 0 46 16t27 43.5t24 61.5l202 553h40l219 -561q8 -19 18 -51.5t9 -55.5q17 2 33.5 2.5t31.5 1.5v-55h-243v44q35 1 46.5 15.5t9 35.5t-10.5 42l-30 81l-245 -6l-29 -87q-6 -20 -13 -38t-14 -35q18 2 38.5 2.5t36.5 1.5v-56h-196zM192 266h210l-63 169
q-12 33 -23 65.5t-20 62.5h-1q-8 -25 -18 -55t-23 -65zM321 -186q-22 0 -37.5 16.5t-15.5 39.5q0 24 16 40.5t37 16.5q22 0 37 -16.5t15 -40.5q0 -23 -15.5 -39.5t-36.5 -16.5zM316 800q-30 0 -60 12t-54.5 36t-39.5 61l31 15q18 -21 50 -37.5t73 -16.5t73 16.5t50 37.5
l32 -15q-15 -37 -40 -61t-54 -36t-61 -12z" />
    <glyph glyph-name="uni1EB0" unicode="&#x1eb0;" horiz-adv-x="640" 
d="M-3 0v45q30 0 46 16t27 43.5t24 61.5l202 553h40l219 -561q8 -19 18 -51.5t9 -55.5q17 2 33.5 2.5t31.5 1.5v-55h-243v44q35 1 46.5 15.5t9 35.5t-10.5 42l-30 81l-245 -6l-29 -87q-6 -20 -13 -38t-14 -35q18 2 38.5 2.5t36.5 1.5v-56h-196zM192 266h210l-63 169
q-12 33 -23 65.5t-20 62.5h-1q-8 -25 -18 -55t-23 -65zM314 803q-27 0 -54.5 12.5t-50.5 39t-37 68.5l41 21q15 -28 42.5 -49t61.5 -21q35 0 62 22t41 50l39 -18q-23 -64 -60 -94.5t-85 -30.5zM316 927l-115 106q-18 16 -22 32t0.5 29t12.5 19q7 6 19.5 9t27.5 -2.5
t27 -26.5l84 -137z" />
    <glyph glyph-name="uni1EB2" unicode="&#x1eb2;" horiz-adv-x="640" 
d="M-3 0v45q30 0 46 16t27 43.5t24 61.5l202 553h40l219 -561q8 -19 18 -51.5t9 -55.5q17 2 33.5 2.5t31.5 1.5v-55h-243v44q35 1 46.5 15.5t9 35.5t-10.5 42l-30 81l-245 -6l-29 -87q-6 -20 -13 -38t-14 -35q18 2 38.5 2.5t36.5 1.5v-56h-196zM192 266h210l-63 169
q-12 33 -23 65.5t-20 62.5h-1q-8 -25 -18 -55t-23 -65zM313 803q-26 0 -54 12.5t-51 39t-37 68.5l41 21q16 -28 43 -49t62 -21t61.5 22t40.5 50l40 -18q-24 -64 -60.5 -94.5t-85.5 -30.5zM297 948q0 19 13 31t26 23q9 8 13.5 19t4.5 22q0 20 -14 34t-38 14q-21 0 -34.5 -9.5
t-15.5 -19.5q7 -2 10.5 -7t3.5 -12q0 -12 -9 -20t-23 -8q-16 0 -27.5 11t-11.5 31q0 19 12 37t36.5 29.5t57.5 11.5q55 0 85 -25t30 -60q0 -25 -12.5 -39.5t-29.5 -28.5q-12 -9 -20.5 -17.5t-8.5 -16.5h-48z" />
    <glyph glyph-name="uni1EB4" unicode="&#x1eb4;" horiz-adv-x="640" 
d="M-3 0v45q30 0 46 16t27 43.5t24 61.5l202 553h40l219 -561q8 -19 18 -51.5t9 -55.5q17 2 33.5 2.5t31.5 1.5v-55h-243v44q35 1 46.5 15.5t9 35.5t-10.5 42l-30 81l-245 -6l-29 -87q-6 -20 -13 -38t-14 -35q18 2 38.5 2.5t36.5 1.5v-56h-196zM192 266h210l-63 169
q-12 33 -23 65.5t-20 62.5h-1q-8 -25 -18 -55t-23 -65zM314 803q-27 0 -54.5 12.5t-50.5 39t-37 68.5l41 21q15 -28 42.5 -49t61.5 -21q35 0 61.5 22t40.5 50l40 -18q-23 -64 -60 -94.5t-85 -30.5zM497 1061q-18 -54 -49.5 -78.5t-58.5 -24.5q-30 0 -51.5 12.5t-39 24.5
t-37.5 12q-16 0 -35.5 -9t-33.5 -32l-39 22q15 39 46 65t61 27q32 0 52 -12t37 -24t40 -12q20 0 38.5 13t30.5 35z" />
    <glyph glyph-name="uni01CD" unicode="&#x1cd;" horiz-adv-x="640" 
d="M-3 0v45q30 0 46 16t27 43.5t24 61.5l202 553h40l219 -561q8 -19 18 -51.5t9 -55.5q17 2 33.5 2.5t31.5 1.5v-55h-243v44q35 1 46.5 15.5t9 35.5t-10.5 42l-30 81l-245 -6l-29 -87q-6 -20 -13 -38t-14 -35q18 2 38.5 2.5t36.5 1.5v-56h-196zM192 266h210l-63 169
q-12 33 -23 65.5t-20 62.5h-1q-8 -25 -18 -55t-23 -65zM307 775l-188 144l25 38l171 -88l175 90l22 -36l-198 -148h-7z" />
    <glyph glyph-name="Acircumflex" unicode="&#xc2;" horiz-adv-x="640" 
d="M-3 0v45q30 0 46 16t27 43.5t24 61.5l202 553h40l219 -561q8 -19 18 -51.5t9 -55.5q17 2 33.5 2.5t31.5 1.5v-55h-243v44q35 1 46.5 15.5t9 35.5t-10.5 42l-30 81l-245 -6l-29 -87q-6 -20 -13 -38t-14 -35q18 2 38.5 2.5t36.5 1.5v-56h-196zM192 266h210l-63 169
q-12 33 -23 65.5t-20 62.5h-1q-8 -25 -18 -55t-23 -65zM449 765l-133 85l-132 -85l-26 35l159 144h7l151 -144z" />
    <glyph glyph-name="uni1EA4" unicode="&#x1ea4;" horiz-adv-x="640" 
d="M-3 0v45q30 0 46 16t27 43.5t24 61.5l202 553h40l219 -561q8 -19 18 -51.5t9 -55.5q17 2 33.5 2.5t31.5 1.5v-55h-243v44q35 1 46.5 15.5t9 35.5t-10.5 42l-30 81l-245 -6l-29 -87q-6 -20 -13 -38t-14 -35q18 2 38.5 2.5t36.5 1.5v-56h-196zM192 266h210l-63 169
q-12 33 -23 65.5t-20 62.5h-1q-8 -25 -18 -55t-23 -65zM426 754l-109 70l-110 -70l-21 29l131 119h6l125 -119zM475 833l-34 29l83 136q13 21 27.5 27t27.5 3t20 -9q8 -7 12 -20t0 -28.5t-21 -31.5z" />
    <glyph glyph-name="uni1EAC" unicode="&#x1eac;" horiz-adv-x="640" 
d="M-3 0v45q30 0 46 16t27 43.5t24 61.5l202 553h40l219 -561q8 -19 18 -51.5t9 -55.5q17 2 33.5 2.5t31.5 1.5v-55h-243v44q35 1 46.5 15.5t9 35.5t-10.5 42l-30 81l-245 -6l-29 -87q-6 -20 -13 -38t-14 -35q18 2 38.5 2.5t36.5 1.5v-56h-196zM192 266h210l-63 169
q-12 33 -23 65.5t-20 62.5h-1q-8 -25 -18 -55t-23 -65zM321 -186q-22 0 -37.5 16.5t-15.5 39.5q0 24 16 40.5t37 16.5q22 0 37 -16.5t15 -40.5q0 -23 -15.5 -39.5t-36.5 -16.5zM449 765l-133 85l-132 -85l-26 35l159 144h7l151 -144z" />
    <glyph glyph-name="uni1EA6" unicode="&#x1ea6;" horiz-adv-x="640" 
d="M-3 0v45q30 0 46 16t27 43.5t24 61.5l202 553h40l219 -561q8 -19 18 -51.5t9 -55.5q17 2 33.5 2.5t31.5 1.5v-55h-243v44q35 1 46.5 15.5t9 35.5t-10.5 42l-30 81l-245 -6l-29 -87q-6 -20 -13 -38t-14 -35q18 2 38.5 2.5t36.5 1.5v-56h-196zM192 266h210l-63 169
q-12 33 -23 65.5t-20 62.5h-1q-8 -25 -18 -55t-23 -65zM426 754l-109 70l-110 -70l-21 29l131 119h6l125 -119zM453 868l-115 106q-18 16 -22 31.5t0.5 28.5t12.5 20q7 6 19.5 9t27.5 -3t27 -27l84 -136z" />
    <glyph glyph-name="uni1EA8" unicode="&#x1ea8;" horiz-adv-x="640" 
d="M-3 0v45q30 0 46 16t27 43.5t24 61.5l202 553h40l219 -561q8 -19 18 -51.5t9 -55.5q17 2 33.5 2.5t31.5 1.5v-55h-243v44q35 1 46.5 15.5t9 35.5t-10.5 42l-30 81l-245 -6l-29 -87q-6 -20 -13 -38t-14 -35q18 2 38.5 2.5t36.5 1.5v-56h-196zM192 266h210l-63 169
q-12 33 -23 65.5t-20 62.5h-1q-8 -25 -18 -55t-23 -65zM427 754l-110 70l-109 -69l-22 28l132 119h5l125 -118zM434 865q0 19 13 30.5t25 23.5q9 8 14 18.5t5 21.5q0 21 -14.5 35t-37.5 14q-22 0 -35 -9.5t-15 -19.5q6 -2 10 -7.5t4 -12.5q0 -11 -9.5 -19t-22.5 -8
q-16 0 -28 11t-12 31q0 19 12.5 37t36.5 29.5t58 11.5q55 0 84.5 -25.5t29.5 -59.5q0 -26 -12 -40.5t-29 -27.5q-12 -9 -20.5 -17.5t-8.5 -16.5h-48z" />
    <glyph glyph-name="uni1EAA" unicode="&#x1eaa;" horiz-adv-x="640" 
d="M-3 0v45q30 0 46 16t27 43.5t24 61.5l202 553h40l219 -561q8 -19 18 -51.5t9 -55.5q17 2 33.5 2.5t31.5 1.5v-55h-243v44q35 1 46.5 15.5t9 35.5t-10.5 42l-30 81l-245 -6l-29 -87q-6 -20 -13 -38t-14 -35q18 2 38.5 2.5t36.5 1.5v-56h-196zM192 266h210l-63 169
q-12 33 -23 65.5t-20 62.5h-1q-8 -25 -18 -55t-23 -65zM427 754l-110 70l-109 -70l-22 29l132 119h5l125 -119zM507 1023q-18 -53 -49.5 -77.5t-58.5 -24.5q-30 0 -51.5 12.5t-39 24.5t-37.5 12q-16 0 -35.5 -9t-33.5 -33l-39 23q15 38 46 64.5t61 26.5q32 1 52 -11
t37 -24.5t40 -12.5q20 0 38.5 13.5t30.5 35.5z" />
    <glyph glyph-name="Adieresis" unicode="&#xc4;" horiz-adv-x="640" 
d="M-3 0v45q30 0 46 16t27 43.5t24 61.5l202 553h40l219 -561q8 -19 18 -51.5t9 -55.5q17 2 33.5 2.5t31.5 1.5v-55h-243v44q35 1 46.5 15.5t9 35.5t-10.5 42l-30 81l-245 -6l-29 -87q-6 -20 -13 -38t-14 -35q18 2 38.5 2.5t36.5 1.5v-56h-196zM192 266h210l-63 169
q-12 33 -23 65.5t-20 62.5h-1q-8 -25 -18 -55t-23 -65zM227 783q-24 0 -41.5 19.5t-17.5 47.5q0 29 18 48.5t42 19.5t41 -19.5t17 -48.5q0 -28 -18 -47.5t-41 -19.5zM405 783q-24 0 -41 19.5t-17 47.5q0 29 17.5 48.5t41.5 19.5q25 0 41 -19.5t16 -48.5q0 -28 -17.5 -47.5
t-40.5 -19.5z" />
    <glyph glyph-name="uni1EA0" unicode="&#x1ea0;" horiz-adv-x="640" 
d="M-3 0v45q30 0 46 16t27 43.5t24 61.5l202 553h40l219 -561q8 -19 18 -51.5t9 -55.5q17 2 33.5 2.5t31.5 1.5v-55h-243v44q35 1 46.5 15.5t9 35.5t-10.5 42l-30 81l-245 -6l-29 -87q-6 -20 -13 -38t-14 -35q18 2 38.5 2.5t36.5 1.5v-56h-196zM192 266h210l-63 169
q-12 33 -23 65.5t-20 62.5h-1q-8 -25 -18 -55t-23 -65zM321 -186q-22 0 -37.5 16.5t-15.5 39.5q0 24 16 40.5t37 16.5q22 0 37 -16.5t15 -40.5q0 -23 -15.5 -39.5t-36.5 -16.5z" />
    <glyph glyph-name="Agrave" unicode="&#xc0;" horiz-adv-x="640" 
d="M-3 0v45q30 0 46 16t27 43.5t24 61.5l202 553h40l219 -561q8 -19 18 -51.5t9 -55.5q17 2 33.5 2.5t31.5 1.5v-55h-243v44q35 1 46.5 15.5t9 35.5t-10.5 42l-30 81l-245 -6l-29 -87q-6 -20 -13 -38t-14 -35q18 2 38.5 2.5t36.5 1.5v-56h-196zM192 266h210l-63 169
q-12 33 -23 65.5t-20 62.5h-1q-8 -25 -18 -55t-23 -65zM347 757l-144 84q-19 13 -27 26.5t-7 26.5t7 22q6 7 17 12t27 2.5t33 -18.5l121 -120z" />
    <glyph glyph-name="uni1EA2" unicode="&#x1ea2;" horiz-adv-x="640" 
d="M-3 0v45q30 0 46 16t27 43.5t24 61.5l202 553h40l219 -561q8 -19 18 -51.5t9 -55.5q17 2 33.5 2.5t31.5 1.5v-55h-243v44q35 1 46.5 15.5t9 35.5t-10.5 42l-30 81l-245 -6l-29 -87q-6 -20 -13 -38t-14 -35q18 2 38.5 2.5t36.5 1.5v-56h-196zM192 266h210l-63 169
q-12 33 -23 65.5t-20 62.5h-1q-8 -25 -18 -55t-23 -65zM298 764q0 19 12.5 30.5t25.5 23.5q9 8 14 18.5t5 21.5q0 21 -14.5 35t-37.5 14q-22 0 -35 -9.5t-15 -19.5q6 -2 10 -7.5t4 -12.5q0 -11 -9.5 -19t-22.5 -8q-16 0 -28 11t-12 31q0 19 12.5 37t36.5 29.5t58 11.5
q55 0 84.5 -25.5t29.5 -59.5q0 -26 -12 -40.5t-29 -27.5q-12 -9 -20.5 -17.5t-8.5 -16.5h-48z" />
    <glyph glyph-name="Amacron" unicode="&#x100;" horiz-adv-x="640" 
d="M-3 0v45q30 0 46 16t27 43.5t24 61.5l202 553h40l219 -561q8 -19 18 -51.5t9 -55.5q17 2 33.5 2.5t31.5 1.5v-55h-243v44q35 1 46.5 15.5t9 35.5t-10.5 42l-30 81l-245 -6l-29 -87q-6 -20 -13 -38t-14 -35q18 2 38.5 2.5t36.5 1.5v-56h-196zM192 266h210l-63 169
q-12 33 -23 65.5t-20 62.5h-1q-8 -25 -18 -55t-23 -65zM180 836v72h271v-68z" />
    <glyph glyph-name="Aogonek" unicode="&#x104;" horiz-adv-x="640" 
d="M-3 0v45q30 0 46 16t27 43.5t24 61.5l202 553h40l219 -561q8 -19 18 -51.5t9 -55.5q17 2 33.5 2.5t31.5 1.5v-55h-243v44q35 1 46.5 15.5t9 35.5t-10.5 42l-30 81l-245 -6l-29 -87q-6 -20 -13 -38t-14 -35q18 2 38.5 2.5t36.5 1.5v-56h-196zM192 266h210l-63 169
q-12 33 -23 65.5t-20 62.5h-1q-8 -25 -18 -55t-23 -65zM465 -261q-48 0 -77 27.5t-29 74.5q0 45 32 82.5t82 65.5t103 44v-33q-34 -12 -64 -32t-48.5 -46.5t-17.5 -57.5q0 -27 16 -43t40 -16q16 0 32.5 7.5t31.5 20.5l23 -26q-22 -28 -55 -48t-69 -20z" />
    <glyph glyph-name="Aring" unicode="&#xc5;" horiz-adv-x="640" 
d="M-3 0v45q30 0 46 16t27 43.5t24 61.5l202 553h40l219 -561q8 -19 18 -51.5t9 -55.5q17 2 33.5 2.5t31.5 1.5v-55h-243v44q35 1 46.5 15.5t9 35.5t-10.5 42l-30 81l-245 -6l-29 -87q-6 -20 -13 -38t-14 -35q18 2 38.5 2.5t36.5 1.5v-56h-196zM192 266h210l-63 169
q-12 33 -23 65.5t-20 62.5h-1q-8 -25 -18 -55t-23 -65zM317 727q-30 0 -57 11.5t-45 36t-20 62.5q-1 37 16.5 64.5t45.5 42.5t58 15q28 0 55.5 -11.5t46 -35.5t19.5 -62t-16.5 -66t-45.5 -42.5t-57 -14.5zM321 768q19 1 33 18t14 48q0 44 -16 65.5t-40 19.5q-22 -1 -35 -20
t-13 -51q0 -38 15.5 -59.5t41.5 -20.5z" />
    <glyph glyph-name="Atilde" unicode="&#xc3;" horiz-adv-x="640" 
d="M-3 0v45q30 0 46 16t27 43.5t24 61.5l202 553h40l219 -561q8 -19 18 -51.5t9 -55.5q17 2 33.5 2.5t31.5 1.5v-55h-243v44q35 1 46.5 15.5t9 35.5t-10.5 42l-30 81l-245 -6l-29 -87q-6 -20 -13 -38t-14 -35q18 2 38.5 2.5t36.5 1.5v-56h-196zM192 266h210l-63 169
q-12 33 -23 65.5t-20 62.5h-1q-8 -25 -18 -55t-23 -65zM515 900q-16 -44 -36.5 -69.5t-43 -36.5t-44.5 -11q-27 0 -48 9.5t-38.5 22.5t-33.5 22.5t-35 9.5q-21 0 -39.5 -14t-38.5 -43l-41 25q19 48 53.5 76t67.5 28q28 1 48.5 -8.5t37 -22t33.5 -22.5t36 -10q25 0 46 19.5
t35 45.5z" />
    <glyph glyph-name="AE" unicode="&#xc6;" horiz-adv-x="944" 
d="M-16 0v44q26 0 46 15t37 37.5t31 43.5l349 509l-85 -4v55h500l6 -181h-44q0 57 -18.5 87t-48 40t-64.5 9l-69 -2q-32 0 -47.5 -10.5t-20.5 -34t-5 -63.5v-157h164l-6 86h55v-221h-44q0 43 -12 62t-37 23.5t-63 2.5l-57 -2v-206q0 -27 -0.5 -47.5t-2.5 -33.5l176 -2
q38 0 68 14.5t47 48.5t17 90h45l-6 -203h-520v46q26 2 41 9t22 26t7 57v78l-228 -5l-44 -65q-17 -25 -33.5 -49t-33.5 -45l77 3v-55h-199zM252 265h193v290z" />
    <glyph glyph-name="B" unicode="B" horiz-adv-x="635" 
d="M53 0v44q33 1 47.5 13.5t18.5 37.5t4 63v408q0 27 1 48.5t2 34.5q-17 -1 -37 -2t-36 -2v55q60 1 120 1.5t123 0.5q118 0 185 -42.5t64 -132.5q-1 -31 -18.5 -61.5t-52.5 -54t-87 -34.5v-2q107 -5 160 -55.5t53 -122.5q0 -62 -31.5 -106.5t-85 -67.5t-122.5 -23h-308z
M226 50q17 0 37 -0.5t38.5 -0.5h27.5q72 1 113 39t41 106q0 56 -22.5 87.5t-58.5 44.5t-77 13q-28 0 -50.5 -0.5t-45.5 -1.5v-205q0 -27 -0.5 -48t-2.5 -34zM229 386l66 2q52 1 82.5 22t43.5 54t12 69q0 50 -21 76t-52 36t-61 10q-28 0 -43 -8t-21 -27.5t-6 -57.5v-176z" />
    <glyph glyph-name="C" unicode="C" horiz-adv-x="695" 
d="M594 477q-11 90 -62 138.5t-133 49.5q-52 0 -96 -23t-76 -64.5t-49.5 -98t-17.5 -123.5q0 -91 32 -161.5t88.5 -109.5t128.5 -39q64 0 126.5 30.5t103.5 86.5l33 -28q-45 -62 -96 -95t-101.5 -44.5t-91.5 -11.5q-75 0 -138 27t-108.5 75.5t-70 113t-24.5 139.5
q0 70 22 137t65 121.5t108.5 86.5t152.5 32q51 0 99.5 -14t93.5 -43l-5 50h62v-232h-46z" />
    <glyph glyph-name="Cacute" unicode="&#x106;" horiz-adv-x="695" 
d="M594 477q-11 90 -62 138.5t-133 49.5q-52 0 -96 -23t-76 -64.5t-49.5 -98t-17.5 -123.5q0 -91 32 -161.5t88.5 -109.5t128.5 -39q64 0 126.5 30.5t103.5 86.5l33 -28q-45 -62 -96 -95t-101.5 -44.5t-91.5 -11.5q-75 0 -138 27t-108.5 75.5t-70 113t-24.5 139.5
q0 70 22 137t65 121.5t108.5 86.5t152.5 32q51 0 99.5 -14t93.5 -43l-5 50h62v-232h-46zM357 757l-27 35l121 120q18 16 34 18.5t27.5 -2.5t15.5 -12q6 -9 7 -22t-6 -26.5t-28 -26.5z" />
    <glyph glyph-name="Ccaron" unicode="&#x10c;" horiz-adv-x="695" 
d="M594 477q-11 90 -62 138.5t-133 49.5q-52 0 -96 -23t-76 -64.5t-49.5 -98t-17.5 -123.5q0 -91 32 -161.5t88.5 -109.5t128.5 -39q64 0 126.5 30.5t103.5 86.5l33 -28q-45 -62 -96 -95t-101.5 -44.5t-91.5 -11.5q-75 0 -138 27t-108.5 75.5t-70 113t-24.5 139.5
q0 70 22 137t65 121.5t108.5 86.5t152.5 32q51 0 99.5 -14t93.5 -43l-5 50h62v-232h-46zM385 775l-188 144l25 38l171 -88l175 90l22 -36l-198 -148h-7z" />
    <glyph glyph-name="Ccedilla" unicode="&#xc7;" horiz-adv-x="695" 
d="M594 477q-11 90 -62 138.5t-133 49.5q-52 0 -96 -23t-76 -64.5t-49.5 -98t-17.5 -123.5q0 -91 32 -161.5t88.5 -109.5t128.5 -39q64 0 126.5 30.5t103.5 86.5l33 -28q-45 -62 -96 -95t-101.5 -44.5t-91.5 -11.5q-75 0 -138 27t-108.5 75.5t-70 113t-24.5 139.5
q0 70 22 137t65 121.5t108.5 86.5t152.5 32q51 0 99.5 -14t93.5 -43l-5 50h62v-232h-46zM321 -265l-7 44q21 4 42.5 11t39 17t28.5 22.5t11 27.5q0 21 -12.5 26.5t-30 2t-30.5 -12.5l-38 16l30 120h65l-27 -83q13 8 33.5 12t32.5 4q36 0 56.5 -20t20.5 -52q0 -31 -23 -55
t-57.5 -40.5t-70.5 -26t-63 -13.5z" />
    <glyph glyph-name="Ccircumflex" unicode="&#x108;" horiz-adv-x="695" 
d="M594 477q-11 90 -62 138.5t-133 49.5q-52 0 -96 -23t-76 -64.5t-49.5 -98t-17.5 -123.5q0 -91 32 -161.5t88.5 -109.5t128.5 -39q64 0 126.5 30.5t103.5 86.5l33 -28q-45 -62 -96 -95t-101.5 -44.5t-91.5 -11.5q-75 0 -138 27t-108.5 75.5t-70 113t-24.5 139.5
q0 70 22 137t65 121.5t108.5 86.5t152.5 32q51 0 99.5 -14t93.5 -43l-5 50h62v-232h-46zM527 765l-133 85l-132 -85l-26 35l159 144h7l151 -144z" />
    <glyph glyph-name="Cdotaccent" unicode="&#x10a;" horiz-adv-x="695" 
d="M594 477q-11 90 -62 138.5t-133 49.5q-52 0 -96 -23t-76 -64.5t-49.5 -98t-17.5 -123.5q0 -91 32 -161.5t88.5 -109.5t128.5 -39q64 0 126.5 30.5t103.5 86.5l33 -28q-45 -62 -96 -95t-101.5 -44.5t-91.5 -11.5q-75 0 -138 27t-108.5 75.5t-70 113t-24.5 139.5
q0 70 22 137t65 121.5t108.5 86.5t152.5 32q51 0 99.5 -14t93.5 -43l-5 50h62v-232h-46zM394 802q-26 0 -44 19.5t-18 47.5t19 47.5t43 19.5q26 0 43.5 -19.5t17.5 -47.5t-17.5 -47.5t-43.5 -19.5z" />
    <glyph glyph-name="D" unicode="D" horiz-adv-x="750" 
d="M53 44q33 2 47.5 14t18.5 36t4 61v416q0 22 1 42.5t2 35.5q-17 -1 -37 -2t-36 -2v55l255 1q93 0 167 -24t126 -69.5t79 -110.5t27 -145q0 -67 -23 -130t-70.5 -112.5t-119.5 -79.5t-170 -30h-271v44zM229 133q0 -27 -0.5 -48t-2.5 -34q21 0 42 -0.5t37.5 -0.5h23.5
q62 0 110 23t81.5 64t51 95t17.5 115q0 98 -32 166t-96.5 104t-160.5 37q-33 0 -48 -11.5t-19 -35.5t-4 -61v-413z" />
    <glyph glyph-name="Dcaron" unicode="&#x10e;" horiz-adv-x="750" 
d="M53 44q33 2 47.5 14t18.5 36t4 61v416q0 22 1 42.5t2 35.5q-17 -1 -37 -2t-36 -2v55l255 1q93 0 167 -24t126 -69.5t79 -110.5t27 -145q0 -67 -23 -130t-70.5 -112.5t-119.5 -79.5t-170 -30h-271v44zM229 133q0 -27 -0.5 -48t-2.5 -34q21 0 42 -0.5t37.5 -0.5h23.5
q62 0 110 23t81.5 64t51 95t17.5 115q0 98 -32 166t-96.5 104t-160.5 37q-33 0 -48 -11.5t-19 -35.5t-4 -61v-413zM342 775l-188 144l25 38l171 -88l175 90l22 -36l-198 -148h-7z" />
    <glyph glyph-name="Dcroat" unicode="&#x110;" horiz-adv-x="749" 
d="M23 327v55h379v-53zM53 44q33 2 47.5 14t18.5 36t4 61v416q0 22 1 42.5t2 35.5q-17 -1 -37 -2t-36 -2v55l255 1q93 0 167 -24t126 -69.5t79 -110.5t27 -145q0 -67 -23 -130t-70.5 -112.5t-119.5 -79.5t-170 -30h-271v44zM229 133q0 -27 -0.5 -48t-2.5 -34q21 0 42 -0.5
t37.5 -0.5h23.5q62 0 110 23t81.5 64t51 95t17.5 115q0 98 -32 166t-96.5 104t-160.5 37q-33 0 -48 -11.5t-19 -35.5t-4 -61v-413z" />
    <glyph glyph-name="Eth" unicode="&#xd0;" horiz-adv-x="749" 
d="M23 327v55h379v-53zM53 44q33 2 47.5 14t18.5 36t4 61v416q0 22 1 42.5t2 35.5q-17 -1 -37 -2t-36 -2v55l255 1q93 0 167 -24t126 -69.5t79 -110.5t27 -145q0 -67 -23 -130t-70.5 -112.5t-119.5 -79.5t-170 -30h-271v44zM229 133q0 -27 -0.5 -48t-2.5 -34q21 0 42 -0.5
t37.5 -0.5h23.5q62 0 110 23t81.5 64t51 95t17.5 115q0 98 -32 166t-96.5 104t-160.5 37q-33 0 -48 -11.5t-19 -35.5t-4 -61v-413z" />
    <glyph glyph-name="E" unicode="E" horiz-adv-x="623" 
d="M399 253q0 43 -12.5 62t-37.5 23.5t-62 2.5l-58 -2v-208q0 -27 -0.5 -47.5t-2.5 -33.5l172 2q39 1 70 14.5t49 46.5t18 90h44l-6 -203h-520v44q33 2 47.5 14t18.5 36t4 61v416q0 22 1 42.5t2 35.5q-17 -1 -37 -2t-36 -2v55h488l5 -181h-44q0 57 -18.5 87t-48 40t-63.5 9
l-70 -2q-31 0 -47 -10.5t-21 -34t-5 -63.5v-157h165l-6 86h55v-221h-44z" />
    <glyph glyph-name="Eacute" unicode="&#xc9;" horiz-adv-x="623" 
d="M399 253q0 43 -12.5 62t-37.5 23.5t-62 2.5l-58 -2v-208q0 -27 -0.5 -47.5t-2.5 -33.5l172 2q39 1 70 14.5t49 46.5t18 90h44l-6 -203h-520v44q33 2 47.5 14t18.5 36t4 61v416q0 22 1 42.5t2 35.5q-17 -1 -37 -2t-36 -2v55h488l5 -181h-44q0 57 -18.5 87t-48 40t-63.5 9
l-70 -2q-31 0 -47 -10.5t-21 -34t-5 -63.5v-157h165l-6 86h55v-221h-44zM289 757l-26 35l121 120q18 16 33.5 18.5t27 -2.5t16.5 -12q6 -9 7 -22t-6.5 -26.5t-28.5 -26.5z" />
    <glyph glyph-name="Ebreve" unicode="&#x114;" horiz-adv-x="623" 
d="M399 253q0 43 -12.5 62t-37.5 23.5t-62 2.5l-58 -2v-208q0 -27 -0.5 -47.5t-2.5 -33.5l172 2q39 1 70 14.5t49 46.5t18 90h44l-6 -203h-520v44q33 2 47.5 14t18.5 36t4 61v416q0 22 1 42.5t2 35.5q-17 -1 -37 -2t-36 -2v55h488l5 -181h-44q0 57 -18.5 87t-48 40t-63.5 9
l-70 -2q-31 0 -47 -10.5t-21 -34t-5 -63.5v-157h165l-6 86h55v-221h-44zM326 800q-30 0 -60 12t-54.5 36t-39.5 61l31 15q18 -21 50 -37.5t73 -16.5t73 16.5t50 37.5l32 -15q-15 -37 -40 -61t-54 -36t-61 -12z" />
    <glyph glyph-name="Ecaron" unicode="&#x11a;" horiz-adv-x="623" 
d="M399 253q0 43 -12.5 62t-37.5 23.5t-62 2.5l-58 -2v-208q0 -27 -0.5 -47.5t-2.5 -33.5l172 2q39 1 70 14.5t49 46.5t18 90h44l-6 -203h-520v44q33 2 47.5 14t18.5 36t4 61v416q0 22 1 42.5t2 35.5q-17 -1 -37 -2t-36 -2v55h488l5 -181h-44q0 57 -18.5 87t-48 40t-63.5 9
l-70 -2q-31 0 -47 -10.5t-21 -34t-5 -63.5v-157h165l-6 86h55v-221h-44zM318 775l-188 144l25 38l171 -88l175 90l22 -36l-198 -148h-7z" />
    <glyph glyph-name="Ecircumflex" unicode="&#xca;" horiz-adv-x="623" 
d="M399 253q0 43 -12.5 62t-37.5 23.5t-62 2.5l-58 -2v-208q0 -27 -0.5 -47.5t-2.5 -33.5l172 2q39 1 70 14.5t49 46.5t18 90h44l-6 -203h-520v44q33 2 47.5 14t18.5 36t4 61v416q0 22 1 42.5t2 35.5q-17 -1 -37 -2t-36 -2v55h488l5 -181h-44q0 57 -18.5 87t-48 40t-63.5 9
l-70 -2q-31 0 -47 -10.5t-21 -34t-5 -63.5v-157h165l-6 86h55v-221h-44zM460 765l-133 85l-132 -85l-26 35l159 144h7l151 -144z" />
    <glyph glyph-name="uni1EBE" unicode="&#x1ebe;" horiz-adv-x="623" 
d="M399 253q0 43 -12.5 62t-37.5 23.5t-62 2.5l-58 -2v-208q0 -27 -0.5 -47.5t-2.5 -33.5l172 2q39 1 70 14.5t49 46.5t18 90h44l-6 -203h-520v44q33 2 47.5 14t18.5 36t4 61v416q0 22 1 42.5t2 35.5q-17 -1 -37 -2t-36 -2v55h488l5 -181h-44q0 57 -18.5 87t-48 40t-63.5 9
l-70 -2q-31 0 -47 -10.5t-21 -34t-5 -63.5v-157h165l-6 86h55v-221h-44zM436 754l-109 70l-110 -70l-21 29l131 119h6l125 -119zM485 833l-34 29l83 136q13 21 27.5 27t27.5 3t20 -9q8 -7 12 -20t0 -28.5t-21 -31.5z" />
    <glyph glyph-name="uni1EC6" unicode="&#x1ec6;" horiz-adv-x="623" 
d="M399 253q0 43 -12.5 62t-37.5 23.5t-62 2.5l-58 -2v-208q0 -27 -0.5 -47.5t-2.5 -33.5l172 2q39 1 70 14.5t49 46.5t18 90h44l-6 -203h-520v44q33 2 47.5 14t18.5 36t4 61v416q0 22 1 42.5t2 35.5q-17 -1 -37 -2t-36 -2v55h488l5 -181h-44q0 57 -18.5 87t-48 40t-63.5 9
l-70 -2q-31 0 -47 -10.5t-21 -34t-5 -63.5v-157h165l-6 86h55v-221h-44zM342 -186q-22 0 -37.5 16.5t-15.5 39.5q0 24 16 40.5t37 16.5q22 0 37 -16.5t15 -40.5q0 -23 -15.5 -39.5t-36.5 -16.5zM460 765l-133 85l-132 -85l-26 35l159 144h7l151 -144z" />
    <glyph glyph-name="uni1EC0" unicode="&#x1ec0;" horiz-adv-x="623" 
d="M399 253q0 43 -12.5 62t-37.5 23.5t-62 2.5l-58 -2v-208q0 -27 -0.5 -47.5t-2.5 -33.5l172 2q39 1 70 14.5t49 46.5t18 90h44l-6 -203h-520v44q33 2 47.5 14t18.5 36t4 61v416q0 22 1 42.5t2 35.5q-17 -1 -37 -2t-36 -2v55h488l5 -181h-44q0 57 -18.5 87t-48 40t-63.5 9
l-70 -2q-31 0 -47 -10.5t-21 -34t-5 -63.5v-157h165l-6 86h55v-221h-44zM436 754l-109 70l-110 -70l-21 29l131 119h6l125 -119zM463 868l-115 106q-18 16 -22 31.5t0.5 28.5t12.5 20q7 6 19.5 9t27.5 -3t27 -27l84 -136z" />
    <glyph glyph-name="uni1EC2" unicode="&#x1ec2;" horiz-adv-x="623" 
d="M399 253q0 43 -12.5 62t-37.5 23.5t-62 2.5l-58 -2v-208q0 -27 -0.5 -47.5t-2.5 -33.5l172 2q39 1 70 14.5t49 46.5t18 90h44l-6 -203h-520v44q33 2 47.5 14t18.5 36t4 61v416q0 22 1 42.5t2 35.5q-17 -1 -37 -2t-36 -2v55h488l5 -181h-44q0 57 -18.5 87t-48 40t-63.5 9
l-70 -2q-31 0 -47 -10.5t-21 -34t-5 -63.5v-157h165l-6 86h55v-221h-44zM437 754l-110 70l-109 -69l-22 28l132 119h5l125 -118zM444 865q0 19 13 30.5t25 23.5q9 8 14 18.5t5 21.5q0 21 -14.5 35t-37.5 14q-22 0 -35 -9.5t-15 -19.5q6 -2 10 -7.5t4 -12.5q0 -11 -9.5 -19
t-22.5 -8q-16 0 -28 11t-12 31q0 19 12.5 37t36.5 29.5t58 11.5q55 0 84.5 -25.5t29.5 -59.5q0 -26 -12 -40.5t-29 -27.5q-12 -9 -20.5 -17.5t-8.5 -16.5h-48z" />
    <glyph glyph-name="uni1EC4" unicode="&#x1ec4;" horiz-adv-x="623" 
d="M399 253q0 43 -12.5 62t-37.5 23.5t-62 2.5l-58 -2v-208q0 -27 -0.5 -47.5t-2.5 -33.5l172 2q39 1 70 14.5t49 46.5t18 90h44l-6 -203h-520v44q33 2 47.5 14t18.5 36t4 61v416q0 22 1 42.5t2 35.5q-17 -1 -37 -2t-36 -2v55h488l5 -181h-44q0 57 -18.5 87t-48 40t-63.5 9
l-70 -2q-31 0 -47 -10.5t-21 -34t-5 -63.5v-157h165l-6 86h55v-221h-44zM437 754l-110 70l-109 -70l-22 29l132 119h5l125 -119zM517 1023q-18 -53 -49.5 -77.5t-58.5 -24.5q-30 0 -51.5 12.5t-39 24.5t-37.5 12q-16 0 -35.5 -9t-33.5 -33l-39 23q15 38 46 64.5t61 26.5
q32 1 52 -11t37 -24.5t40 -12.5q20 0 38.5 13.5t30.5 35.5z" />
    <glyph glyph-name="Edieresis" unicode="&#xcb;" horiz-adv-x="623" 
d="M399 253q0 43 -12.5 62t-37.5 23.5t-62 2.5l-58 -2v-208q0 -27 -0.5 -47.5t-2.5 -33.5l172 2q39 1 70 14.5t49 46.5t18 90h44l-6 -203h-520v44q33 2 47.5 14t18.5 36t4 61v416q0 22 1 42.5t2 35.5q-17 -1 -37 -2t-36 -2v55h488l5 -181h-44q0 57 -18.5 87t-48 40t-63.5 9
l-70 -2q-31 0 -47 -10.5t-21 -34t-5 -63.5v-157h165l-6 86h55v-221h-44zM237 783q-24 0 -41.5 19.5t-17.5 47.5q0 29 18 48.5t42 19.5t41 -19.5t17 -48.5q0 -28 -18 -47.5t-41 -19.5zM415 783q-24 0 -41 19.5t-17 47.5q0 29 17.5 48.5t41.5 19.5q25 0 41 -19.5t16 -48.5
q0 -28 -17.5 -47.5t-40.5 -19.5z" />
    <glyph glyph-name="Edotaccent" unicode="&#x116;" horiz-adv-x="623" 
d="M399 253q0 43 -12.5 62t-37.5 23.5t-62 2.5l-58 -2v-208q0 -27 -0.5 -47.5t-2.5 -33.5l172 2q39 1 70 14.5t49 46.5t18 90h44l-6 -203h-520v44q33 2 47.5 14t18.5 36t4 61v416q0 22 1 42.5t2 35.5q-17 -1 -37 -2t-36 -2v55h488l5 -181h-44q0 57 -18.5 87t-48 40t-63.5 9
l-70 -2q-31 0 -47 -10.5t-21 -34t-5 -63.5v-157h165l-6 86h55v-221h-44zM326 802q-26 0 -44 19.5t-18 47.5t19 47.5t43 19.5q26 0 43.5 -19.5t17.5 -47.5t-17.5 -47.5t-43.5 -19.5z" />
    <glyph glyph-name="uni1EB8" unicode="&#x1eb8;" horiz-adv-x="623" 
d="M399 253q0 43 -12.5 62t-37.5 23.5t-62 2.5l-58 -2v-208q0 -27 -0.5 -47.5t-2.5 -33.5l172 2q39 1 70 14.5t49 46.5t18 90h44l-6 -203h-520v44q33 2 47.5 14t18.5 36t4 61v416q0 22 1 42.5t2 35.5q-17 -1 -37 -2t-36 -2v55h488l5 -181h-44q0 57 -18.5 87t-48 40t-63.5 9
l-70 -2q-31 0 -47 -10.5t-21 -34t-5 -63.5v-157h165l-6 86h55v-221h-44zM342 -186q-22 0 -37.5 16.5t-15.5 39.5q0 24 16 40.5t37 16.5q22 0 37 -16.5t15 -40.5q0 -23 -15.5 -39.5t-36.5 -16.5z" />
    <glyph glyph-name="Egrave" unicode="&#xc8;" horiz-adv-x="623" 
d="M399 253q0 43 -12.5 62t-37.5 23.5t-62 2.5l-58 -2v-208q0 -27 -0.5 -47.5t-2.5 -33.5l172 2q39 1 70 14.5t49 46.5t18 90h44l-6 -203h-520v44q33 2 47.5 14t18.5 36t4 61v416q0 22 1 42.5t2 35.5q-17 -1 -37 -2t-36 -2v55h488l5 -181h-44q0 57 -18.5 87t-48 40t-63.5 9
l-70 -2q-31 0 -47 -10.5t-21 -34t-5 -63.5v-157h165l-6 86h55v-221h-44zM357 757l-144 84q-19 13 -27 26.5t-7 26.5t7 22q6 7 17 12t27 2.5t33 -18.5l121 -120z" />
    <glyph glyph-name="uni1EBA" unicode="&#x1eba;" horiz-adv-x="623" 
d="M399 253q0 43 -12.5 62t-37.5 23.5t-62 2.5l-58 -2v-208q0 -27 -0.5 -47.5t-2.5 -33.5l172 2q39 1 70 14.5t49 46.5t18 90h44l-6 -203h-520v44q33 2 47.5 14t18.5 36t4 61v416q0 22 1 42.5t2 35.5q-17 -1 -37 -2t-36 -2v55h488l5 -181h-44q0 57 -18.5 87t-48 40t-63.5 9
l-70 -2q-31 0 -47 -10.5t-21 -34t-5 -63.5v-157h165l-6 86h55v-221h-44zM309 764q0 19 12.5 30.5t25.5 23.5q9 8 14 18.5t5 21.5q0 21 -14.5 35t-37.5 14q-22 0 -35 -9.5t-15 -19.5q6 -2 10 -7.5t4 -12.5q0 -11 -9.5 -19t-22.5 -8q-16 0 -28 11t-12 31q0 19 12.5 37
t36.5 29.5t58 11.5q55 0 84.5 -25.5t29.5 -59.5q0 -26 -12 -40.5t-29 -27.5q-12 -9 -20.5 -17.5t-8.5 -16.5h-48z" />
    <glyph glyph-name="Emacron" unicode="&#x112;" horiz-adv-x="623" 
d="M399 253q0 43 -12.5 62t-37.5 23.5t-62 2.5l-58 -2v-208q0 -27 -0.5 -47.5t-2.5 -33.5l172 2q39 1 70 14.5t49 46.5t18 90h44l-6 -203h-520v44q33 2 47.5 14t18.5 36t4 61v416q0 22 1 42.5t2 35.5q-17 -1 -37 -2t-36 -2v55h488l5 -181h-44q0 57 -18.5 87t-48 40t-63.5 9
l-70 -2q-31 0 -47 -10.5t-21 -34t-5 -63.5v-157h165l-6 86h55v-221h-44zM190 836v72h271v-68z" />
    <glyph glyph-name="Eogonek" unicode="&#x118;" horiz-adv-x="623" 
d="M399 253q0 43 -12.5 62t-37.5 23.5t-62 2.5l-58 -2v-208q0 -27 -0.5 -47.5t-2.5 -33.5l172 2q39 1 70 14.5t49 46.5t18 90h44l-6 -203h-520v44q33 2 47.5 14t18.5 36t4 61v416q0 22 1 42.5t2 35.5q-17 -1 -37 -2t-36 -2v55h488l5 -181h-44q0 57 -18.5 87t-48 40t-63.5 9
l-70 -2q-31 0 -47 -10.5t-21 -34t-5 -63.5v-157h165l-6 86h55v-221h-44zM450 -256q-48 0 -77 27.5t-29 74.5q0 45 32 82.5t82 65.5t103 44v-33q-34 -12 -64 -32t-48.5 -46.5t-17.5 -57.5q0 -27 16 -43t40 -16q16 0 32.5 7.5t31.5 20.5l23 -26q-22 -28 -55 -48t-69 -20z" />
    <glyph glyph-name="uni1EBC" unicode="&#x1ebc;" horiz-adv-x="623" 
d="M399 253q0 43 -12.5 62t-37.5 23.5t-62 2.5l-58 -2v-208q0 -27 -0.5 -47.5t-2.5 -33.5l172 2q39 1 70 14.5t49 46.5t18 90h44l-6 -203h-520v44q33 2 47.5 14t18.5 36t4 61v416q0 22 1 42.5t2 35.5q-17 -1 -37 -2t-36 -2v55h488l5 -181h-44q0 57 -18.5 87t-48 40t-63.5 9
l-70 -2q-31 0 -47 -10.5t-21 -34t-5 -63.5v-157h165l-6 86h55v-221h-44zM525 900q-16 -44 -36.5 -69.5t-43 -36.5t-44.5 -11q-27 0 -48 9.5t-38.5 22.5t-33.5 22.5t-35 9.5q-21 0 -39.5 -14t-38.5 -43l-41 25q19 48 53.5 76t67.5 28q28 1 48.5 -8.5t37 -22t33.5 -22.5
t36 -10q25 0 46 19.5t35 45.5z" />
    <glyph glyph-name="uni018F" unicode="&#x18f;" horiz-adv-x="762" 
d="M385 -15q-82 0 -143.5 25.5t-102.5 72t-61.5 108.5t-20.5 134q0 13 0.5 25.5t2.5 25.5l542 1q-3 60 -20.5 112t-49.5 91t-77 61t-103 22q-54 0 -99 -20t-73.5 -59t-36.5 -96h-46v221h62l-5 -50q32 21 71.5 33.5t79.5 18t72 5.5q92 0 157.5 -30.5t106.5 -82t60.5 -114
t19.5 -126.5q0 -76 -23 -144t-66.5 -121t-105.5 -83t-141 -30zM388 36q50 0 89 23t66 63.5t42 92.5t17 110l-433 -3q0 -56 15 -107.5t43 -92t68.5 -64t92.5 -22.5z" />
    <glyph glyph-name="uni01B7" unicode="&#x1b7;" horiz-adv-x="625" 
d="M340 411q83 2 138.5 -25.5t83.5 -75.5t28 -105q0 -54 -23 -95.5t-62 -69.5t-88 -42t-102 -14q-35 0 -71.5 7.5t-73 24.5t-70.5 45.5t-63 69.5l33 28q42 -56 102.5 -86t123.5 -30q48 0 87.5 17.5t63.5 54t24 92.5q0 76 -44.5 115.5t-135.5 42.5l-46 -1v40zM382 566
q23 28 42.5 47.5t46.5 38.5l-230 -1q-58 0 -89.5 -38t-31.5 -122h-45l6 209h491l-1 -48l-230 -272l-96 24z" />
    <glyph glyph-name="uni01EE" unicode="&#x1ee;" horiz-adv-x="625" 
d="M340 411q83 2 138.5 -25.5t83.5 -75.5t28 -105q0 -54 -23 -95.5t-62 -69.5t-88 -42t-102 -14q-35 0 -71.5 7.5t-73 24.5t-70.5 45.5t-63 69.5l33 28q42 -56 102.5 -86t123.5 -30q48 0 87.5 17.5t63.5 54t24 92.5q0 76 -44.5 115.5t-135.5 42.5l-46 -1v40zM382 566
q23 28 42.5 47.5t46.5 38.5l-230 -1q-58 0 -89.5 -38t-31.5 -122h-45l6 209h491l-1 -48l-230 -272l-96 24zM309 775l-188 144l25 38l171 -88l175 90l22 -36l-198 -148h-7z" />
    <glyph glyph-name="F" unicode="F" horiz-adv-x="556" 
d="M53 0v44q33 2 47.5 14t18.5 36t4 61v416q0 22 1 42.5t2 35.5q-17 -1 -37 -2t-36 -2v55h476l6 -181h-44q0 57 -19 87t-49 40t-65 9l-60 -2q-32 0 -46.5 -13t-18.5 -37t-4 -61v-172l151 -1l-6 87h55v-222h-44q0 44 -12.5 63t-37.5 23t-62 3l-44 -2v-187q0 -27 -0.5 -48.5
t-2.5 -34.5q15 1 32.5 1.5t34.5 1.5t31 1v-55h-271z" />
    <glyph glyph-name="G" unicode="G" horiz-adv-x="759" 
d="M383 -16q-102 0 -179 44t-119 123.5t-42 185.5q0 70 21.5 137t65 122t109 87.5t152.5 32.5q33 0 69 -6t70.5 -18t62.5 -29l-4 46h62v-230h-46q-5 60 -33.5 101.5t-73 63t-98.5 21.5q-53 0 -96.5 -23.5t-75.5 -65t-49.5 -97.5t-17.5 -120q0 -92 30.5 -163.5t86.5 -112.5
t131 -41q24 0 52.5 4.5t57 14t51.5 24.5v112q0 25 0.5 49.5t0.5 45.5q-16 -1 -36 -2t-35 -2v55h239v-44q-24 0 -38.5 -11t-21 -27.5t-8.5 -35t-2 -34.5v-156h-26q-21 0 -49 -6.5t-63 -19.5q-31 -11 -71 -18t-77 -7z" />
    <glyph glyph-name="Gbreve" unicode="&#x11e;" horiz-adv-x="759" 
d="M383 -16q-102 0 -179 44t-119 123.5t-42 185.5q0 70 21.5 137t65 122t109 87.5t152.5 32.5q33 0 69 -6t70.5 -18t62.5 -29l-4 46h62v-230h-46q-5 60 -33.5 101.5t-73 63t-98.5 21.5q-53 0 -96.5 -23.5t-75.5 -65t-49.5 -97.5t-17.5 -120q0 -92 30.5 -163.5t86.5 -112.5
t131 -41q24 0 52.5 4.5t57 14t51.5 24.5v112q0 25 0.5 49.5t0.5 45.5q-16 -1 -36 -2t-35 -2v55h239v-44q-24 0 -38.5 -11t-21 -27.5t-8.5 -35t-2 -34.5v-156h-26q-21 0 -49 -6.5t-63 -19.5q-31 -11 -71 -18t-77 -7zM393 800q-30 0 -60 12t-54.5 36t-39.5 61l31 15
q18 -21 50 -37.5t73 -16.5t73 16.5t50 37.5l32 -15q-15 -37 -40 -61t-54 -36t-61 -12z" />
    <glyph glyph-name="Gcaron" unicode="&#x1e6;" horiz-adv-x="759" 
d="M383 -16q-102 0 -179 44t-119 123.5t-42 185.5q0 70 21.5 137t65 122t109 87.5t152.5 32.5q33 0 69 -6t70.5 -18t62.5 -29l-4 46h62v-230h-46q-5 60 -33.5 101.5t-73 63t-98.5 21.5q-53 0 -96.5 -23.5t-75.5 -65t-49.5 -97.5t-17.5 -120q0 -92 30.5 -163.5t86.5 -112.5
t131 -41q24 0 52.5 4.5t57 14t51.5 24.5v112q0 25 0.5 49.5t0.5 45.5q-16 -1 -36 -2t-35 -2v55h239v-44q-24 0 -38.5 -11t-21 -27.5t-8.5 -35t-2 -34.5v-156h-26q-21 0 -49 -6.5t-63 -19.5q-31 -11 -71 -18t-77 -7zM385 775l-188 144l25 38l171 -88l175 90l22 -36l-198 -148
h-7z" />
    <glyph glyph-name="Gcircumflex" unicode="&#x11c;" horiz-adv-x="759" 
d="M383 -16q-102 0 -179 44t-119 123.5t-42 185.5q0 70 21.5 137t65 122t109 87.5t152.5 32.5q33 0 69 -6t70.5 -18t62.5 -29l-4 46h62v-230h-46q-5 60 -33.5 101.5t-73 63t-98.5 21.5q-53 0 -96.5 -23.5t-75.5 -65t-49.5 -97.5t-17.5 -120q0 -92 30.5 -163.5t86.5 -112.5
t131 -41q24 0 52.5 4.5t57 14t51.5 24.5v112q0 25 0.5 49.5t0.5 45.5q-16 -1 -36 -2t-35 -2v55h239v-44q-24 0 -38.5 -11t-21 -27.5t-8.5 -35t-2 -34.5v-156h-26q-21 0 -49 -6.5t-63 -19.5q-31 -11 -71 -18t-77 -7zM527 765l-133 85l-132 -85l-26 35l159 144h7l151 -144z
" />
    <glyph glyph-name="uni0122" unicode="&#x122;" horiz-adv-x="759" 
d="M383 -16q-102 0 -179 44t-119 123.5t-42 185.5q0 70 21.5 137t65 122t109 87.5t152.5 32.5q33 0 69 -6t70.5 -18t62.5 -29l-4 46h62v-230h-46q-5 60 -33.5 101.5t-73 63t-98.5 21.5q-53 0 -96.5 -23.5t-75.5 -65t-49.5 -97.5t-17.5 -120q0 -92 30.5 -163.5t86.5 -112.5
t131 -41q24 0 52.5 4.5t57 14t51.5 24.5v112q0 25 0.5 49.5t0.5 45.5q-16 -1 -36 -2t-35 -2v55h239v-44q-24 0 -38.5 -11t-21 -27.5t-8.5 -35t-2 -34.5v-156h-26q-21 0 -49 -6.5t-63 -19.5q-31 -11 -71 -18t-77 -7zM394 -267l-33 24q23 40 31 70.5t6 58t-11 56.5l76 19
q18 -32 18 -66q0 -40 -23.5 -81.5t-63.5 -80.5z" />
    <glyph glyph-name="Gdotaccent" unicode="&#x120;" horiz-adv-x="759" 
d="M383 -16q-102 0 -179 44t-119 123.5t-42 185.5q0 70 21.5 137t65 122t109 87.5t152.5 32.5q33 0 69 -6t70.5 -18t62.5 -29l-4 46h62v-230h-46q-5 60 -33.5 101.5t-73 63t-98.5 21.5q-53 0 -96.5 -23.5t-75.5 -65t-49.5 -97.5t-17.5 -120q0 -92 30.5 -163.5t86.5 -112.5
t131 -41q24 0 52.5 4.5t57 14t51.5 24.5v112q0 25 0.5 49.5t0.5 45.5q-16 -1 -36 -2t-35 -2v55h239v-44q-24 0 -38.5 -11t-21 -27.5t-8.5 -35t-2 -34.5v-156h-26q-21 0 -49 -6.5t-63 -19.5q-31 -11 -71 -18t-77 -7zM393 802q-26 0 -44 19.5t-18 47.5t19 47.5t43 19.5
q26 0 43.5 -19.5t17.5 -47.5t-17.5 -47.5t-43.5 -19.5z" />
    <glyph glyph-name="uni01E4" unicode="&#x1e4;" horiz-adv-x="759" 
d="M461 185v43h291v-39zM383 -16q-102 0 -179 44t-119 123.5t-42 185.5q0 70 21.5 137t65 122t109 87.5t152.5 32.5q33 0 69 -6t70.5 -18t62.5 -29l-4 46h62v-230h-46q-5 60 -33.5 101.5t-73 63t-98.5 21.5q-53 0 -96.5 -23.5t-75.5 -65t-49.5 -97.5t-17.5 -120
q0 -92 30.5 -163.5t86.5 -112.5t131 -41q24 0 52.5 4.5t57 14t51.5 24.5v112q0 25 0.5 49.5t0.5 45.5q-16 -1 -36 -2t-35 -2v55h239v-44q-24 0 -38.5 -11t-21 -27.5t-8.5 -35t-2 -34.5v-156h-26q-21 0 -49 -6.5t-63 -19.5q-31 -11 -71 -18t-77 -7z" />
    <glyph glyph-name="H" unicode="H" horiz-adv-x="789" 
d="M53 0v44q33 2 47.5 14t18.5 36t4 61v416q0 22 1 42.5t2 35.5q-17 -1 -37 -2t-36 -2v55h246v-44q-32 -1 -47 -13.5t-19 -36t-4 -61.5v-163h331v189q0 22 1 42.5t2 35.5q-17 -1 -37 -2t-36 -2v55h246v-44q-32 -1 -47 -13.5t-19 -36t-4 -61.5v-411q0 -27 -0.5 -48.5
t-2.5 -34.5q17 2 37 2.5t36 1.5v-55h-246v44q33 2 47.5 14t18.5 36t4 61v175l-331 -3v-193q0 -27 -0.5 -48.5t-2.5 -34.5q17 2 37.5 2.5t35.5 1.5v-55h-246z" />
    <glyph glyph-name="Hbar" unicode="&#x126;" horiz-adv-x="789" 
d="M42 505v46h705v-42zM53 0v44q33 2 47.5 14t18.5 36t4 61v416q0 22 1 42.5t2 35.5q-17 -1 -37 -2t-36 -2v55h246v-44q-32 -1 -47 -13.5t-19 -36t-4 -61.5v-163h331v189q0 22 1 42.5t2 35.5q-17 -1 -37 -2t-36 -2v55h246v-44q-32 -1 -47 -13.5t-19 -36t-4 -61.5v-411
q0 -27 -0.5 -48.5t-2.5 -34.5q17 2 37 2.5t36 1.5v-55h-246v44q33 2 47.5 14t18.5 36t4 61v175l-331 -3v-193q0 -27 -0.5 -48.5t-2.5 -34.5q17 2 37.5 2.5t35.5 1.5v-55h-246z" />
    <glyph glyph-name="uni021E" unicode="&#x21e;" horiz-adv-x="789" 
d="M53 0v44q33 2 47.5 14t18.5 36t4 61v416q0 22 1 42.5t2 35.5q-17 -1 -37 -2t-36 -2v55h246v-44q-32 -1 -47 -13.5t-19 -36t-4 -61.5v-163h331v189q0 22 1 42.5t2 35.5q-17 -1 -37 -2t-36 -2v55h246v-44q-32 -1 -47 -13.5t-19 -36t-4 -61.5v-411q0 -27 -0.5 -48.5
t-2.5 -34.5q17 2 37 2.5t36 1.5v-55h-246v44q33 2 47.5 14t18.5 36t4 61v175l-331 -3v-193q0 -27 -0.5 -48.5t-2.5 -34.5q17 2 37.5 2.5t35.5 1.5v-55h-246zM386 775l-188 144l25 38l171 -88l175 90l22 -36l-198 -148h-7z" />
    <glyph glyph-name="Hcircumflex" unicode="&#x124;" horiz-adv-x="789" 
d="M53 0v44q33 2 47.5 14t18.5 36t4 61v416q0 22 1 42.5t2 35.5q-17 -1 -37 -2t-36 -2v55h246v-44q-32 -1 -47 -13.5t-19 -36t-4 -61.5v-163h331v189q0 22 1 42.5t2 35.5q-17 -1 -37 -2t-36 -2v55h246v-44q-32 -1 -47 -13.5t-19 -36t-4 -61.5v-411q0 -27 -0.5 -48.5
t-2.5 -34.5q17 2 37 2.5t36 1.5v-55h-246v44q33 2 47.5 14t18.5 36t4 61v175l-331 -3v-193q0 -27 -0.5 -48.5t-2.5 -34.5q17 2 37.5 2.5t35.5 1.5v-55h-246zM528 765l-133 85l-132 -85l-26 35l159 144h7l151 -144z" />
    <glyph glyph-name="I" unicode="I" horiz-adv-x="352" 
d="M299 656q-32 -1 -47 -13.5t-19 -36t-4 -61.5v-411q0 -27 -0.5 -48.5t-2.5 -34.5q17 2 37.5 2.5t35.5 1.5v-55h-246v44q33 2 47.5 14t18.5 36t4 61v416q0 22 1 42.5t2 35.5q-17 -1 -37 -2t-36 -2v55h246v-44z" />
    <glyph glyph-name="IJ" unicode="&#x132;" horiz-adv-x="751" 
d="M299 656q-32 -1 -47 -13.5t-19 -36t-4 -61.5v-411q0 -27 -0.5 -48.5t-2.5 -34.5q17 2 37.5 2.5t35.5 1.5v-55h-246v44q33 2 47.5 14t18.5 36t4 61v416q0 22 1 42.5t2 35.5q-17 -1 -37 -2t-36 -2v55h246v-44zM469 -16q-31 0 -58 10.5t-43.5 29t-16.5 43.5q0 24 13 42.5
t39 19.5q29 2 41 -15t12 -36q0 -5 -1.5 -12.5t-4.5 -14.5q6 -10 18 -13t19 -3q27 1 40.5 24.5t13.5 78.5v421v48t1 42q-22 -1 -47 -2t-46 -2v55h273v-44q-29 0 -45.5 -10.5t-23 -31.5t-6.5 -53v-314q0 -142 -43.5 -202.5t-134.5 -60.5z" />
    <glyph glyph-name="Iacute" unicode="&#xcd;" horiz-adv-x="352" 
d="M299 656q-32 -1 -47 -13.5t-19 -36t-4 -61.5v-411q0 -27 -0.5 -48.5t-2.5 -34.5q17 2 37.5 2.5t35.5 1.5v-55h-246v44q33 2 47.5 14t18.5 36t4 61v416q0 22 1 42.5t2 35.5q-17 -1 -37 -2t-36 -2v55h246v-44zM141 757l-26 35l121 120q18 16 33.5 18.5t27 -2.5t16.5 -12
q6 -9 7 -22t-6.5 -26.5t-28.5 -26.5z" />
    <glyph glyph-name="Ibreve" unicode="&#x12c;" horiz-adv-x="352" 
d="M299 656q-32 -1 -47 -13.5t-19 -36t-4 -61.5v-411q0 -27 -0.5 -48.5t-2.5 -34.5q17 2 37.5 2.5t35.5 1.5v-55h-246v44q33 2 47.5 14t18.5 36t4 61v416q0 22 1 42.5t2 35.5q-17 -1 -37 -2t-36 -2v55h246v-44zM178 800q-30 0 -60 12t-54.5 36t-39.5 61l31 15
q18 -21 50 -37.5t73 -16.5t73 16.5t50 37.5l32 -15q-15 -37 -40 -61t-54 -36t-61 -12z" />
    <glyph glyph-name="Icircumflex" unicode="&#xce;" horiz-adv-x="352" 
d="M299 656q-32 -1 -47 -13.5t-19 -36t-4 -61.5v-411q0 -27 -0.5 -48.5t-2.5 -34.5q17 2 37.5 2.5t35.5 1.5v-55h-246v44q33 2 47.5 14t18.5 36t4 61v416q0 22 1 42.5t2 35.5q-17 -1 -37 -2t-36 -2v55h246v-44zM312 765l-133 85l-132 -85l-26 35l159 144h7l151 -144z" />
    <glyph glyph-name="Idieresis" unicode="&#xcf;" horiz-adv-x="352" 
d="M299 656q-32 -1 -47 -13.5t-19 -36t-4 -61.5v-411q0 -27 -0.5 -48.5t-2.5 -34.5q17 2 37.5 2.5t35.5 1.5v-55h-246v44q33 2 47.5 14t18.5 36t4 61v416q0 22 1 42.5t2 35.5q-17 -1 -37 -2t-36 -2v55h246v-44zM89 783q-24 0 -41.5 19.5t-17.5 47.5q0 29 18 48.5t42 19.5
t41 -19.5t17 -48.5q0 -28 -18 -47.5t-41 -19.5zM267 783q-24 0 -41 19.5t-17 47.5q0 29 17.5 48.5t41.5 19.5q25 0 41 -19.5t16 -48.5q0 -28 -17.5 -47.5t-40.5 -19.5z" />
    <glyph glyph-name="Idotaccent" unicode="&#x130;" horiz-adv-x="352" 
d="M299 656q-32 -1 -47 -13.5t-19 -36t-4 -61.5v-411q0 -27 -0.5 -48.5t-2.5 -34.5q17 2 37.5 2.5t35.5 1.5v-55h-246v44q33 2 47.5 14t18.5 36t4 61v416q0 22 1 42.5t2 35.5q-17 -1 -37 -2t-36 -2v55h246v-44zM178 802q-26 0 -44 19.5t-18 47.5t19 47.5t43 19.5
q26 0 43.5 -19.5t17.5 -47.5t-17.5 -47.5t-43.5 -19.5z" />
    <glyph glyph-name="uni1ECA" unicode="&#x1eca;" horiz-adv-x="352" 
d="M299 656q-32 -1 -47 -13.5t-19 -36t-4 -61.5v-411q0 -27 -0.5 -48.5t-2.5 -34.5q17 2 37.5 2.5t35.5 1.5v-55h-246v44q33 2 47.5 14t18.5 36t4 61v416q0 22 1 42.5t2 35.5q-17 -1 -37 -2t-36 -2v55h246v-44zM177 -186q-22 0 -37.5 16.5t-15.5 39.5q0 24 16 40.5t37 16.5
q22 0 37 -16.5t15 -40.5q0 -23 -15.5 -39.5t-36.5 -16.5z" />
    <glyph glyph-name="Igrave" unicode="&#xcc;" horiz-adv-x="352" 
d="M299 656q-32 -1 -47 -13.5t-19 -36t-4 -61.5v-411q0 -27 -0.5 -48.5t-2.5 -34.5q17 2 37.5 2.5t35.5 1.5v-55h-246v44q33 2 47.5 14t18.5 36t4 61v416q0 22 1 42.5t2 35.5q-17 -1 -37 -2t-36 -2v55h246v-44zM209 757l-144 84q-19 13 -27 26.5t-7 26.5t7 22q6 7 17 12
t27 2.5t33 -18.5l121 -120z" />
    <glyph glyph-name="uni1EC8" unicode="&#x1ec8;" horiz-adv-x="352" 
d="M299 656q-32 -1 -47 -13.5t-19 -36t-4 -61.5v-411q0 -27 -0.5 -48.5t-2.5 -34.5q17 2 37.5 2.5t35.5 1.5v-55h-246v44q33 2 47.5 14t18.5 36t4 61v416q0 22 1 42.5t2 35.5q-17 -1 -37 -2t-36 -2v55h246v-44zM161 764q0 19 12.5 30.5t25.5 23.5q9 8 14 18.5t5 21.5
q0 21 -14.5 35t-37.5 14q-22 0 -35 -9.5t-15 -19.5q6 -2 10 -7.5t4 -12.5q0 -11 -9.5 -19t-22.5 -8q-16 0 -28 11t-12 31q0 19 12.5 37t36.5 29.5t58 11.5q55 0 84.5 -25.5t29.5 -59.5q0 -26 -12 -40.5t-29 -27.5q-12 -9 -20.5 -17.5t-8.5 -16.5h-48z" />
    <glyph glyph-name="Imacron" unicode="&#x12a;" horiz-adv-x="352" 
d="M299 656q-32 -1 -47 -13.5t-19 -36t-4 -61.5v-411q0 -27 -0.5 -48.5t-2.5 -34.5q17 2 37.5 2.5t35.5 1.5v-55h-246v44q33 2 47.5 14t18.5 36t4 61v416q0 22 1 42.5t2 35.5q-17 -1 -37 -2t-36 -2v55h246v-44zM42 836v72h271v-68z" />
    <glyph glyph-name="Iogonek" unicode="&#x12e;" horiz-adv-x="352" 
d="M299 656q-32 -1 -47 -13.5t-19 -36t-4 -61.5v-411q0 -27 -0.5 -48.5t-2.5 -34.5q17 2 37.5 2.5t35.5 1.5v-55h-246v44q33 2 47.5 14t18.5 36t4 61v416q0 22 1 42.5t2 35.5q-17 -1 -37 -2t-36 -2v55h246v-44zM184 -261q-48 0 -77 27.5t-29 74.5q0 45 32 82.5t82 65.5
t103 44v-33q-34 -12 -64 -32t-48.5 -46.5t-17.5 -57.5q0 -27 16 -43t40 -16q16 0 32.5 7.5t31.5 20.5l23 -26q-22 -28 -55 -48t-69 -20z" />
    <glyph glyph-name="Itilde" unicode="&#x128;" horiz-adv-x="352" 
d="M299 656q-32 -1 -47 -13.5t-19 -36t-4 -61.5v-411q0 -27 -0.5 -48.5t-2.5 -34.5q17 2 37.5 2.5t35.5 1.5v-55h-246v44q33 2 47.5 14t18.5 36t4 61v416q0 22 1 42.5t2 35.5q-17 -1 -37 -2t-36 -2v55h246v-44zM350 913q-18 -54 -49 -78.5t-59 -24.5q-29 0 -50.5 12.5
t-39.5 24.5t-37 12q-16 0 -35.5 -9t-34.5 -32l-38 22q14 39 45.5 65t61.5 27q31 0 51 -12t37.5 -24t39.5 -12q21 0 39 13t31 35z" />
    <glyph glyph-name="J" unicode="J" horiz-adv-x="399" 
d="M117 -16q-31 0 -58 10.5t-43.5 29t-16.5 43.5q0 24 13 42.5t39 19.5q29 2 41 -15t12 -36q0 -5 -1.5 -12.5t-4.5 -14.5q6 -10 18 -13t19 -3q27 1 40.5 24.5t13.5 78.5v421v48t1 42q-22 -1 -47 -2t-46 -2v55h273v-44q-29 0 -45.5 -10.5t-23 -31.5t-6.5 -53v-314
q0 -142 -43.5 -202.5t-134.5 -60.5z" />
    <glyph glyph-name="Jcircumflex" unicode="&#x134;" horiz-adv-x="399" 
d="M117 -16q-31 0 -58 10.5t-43.5 29t-16.5 43.5q0 24 13 42.5t39 19.5q29 2 41 -15t12 -36q0 -5 -1.5 -12.5t-4.5 -14.5q6 -10 18 -13t19 -3q27 1 40.5 24.5t13.5 78.5v421v48t1 42q-22 -1 -47 -2t-46 -2v55h273v-44q-29 0 -45.5 -10.5t-23 -31.5t-6.5 -53v-314
q0 -142 -43.5 -202.5t-134.5 -60.5zM362 765l-133 85l-132 -85l-26 35l159 144h7l151 -144z" />
    <glyph glyph-name="K" unicode="K" horiz-adv-x="693" 
d="M53 0v44q33 2 47.5 14t18.5 36t4 61v416q0 22 1 42.5t2 35.5q-17 -1 -37 -2t-36 -2v55h246v-44q-32 -1 -47 -13.5t-19 -36t-4 -61.5v-160h74l109 175q15 23 34 49t36 41q-15 -1 -31.5 -1.5t-29.5 -1.5v53h225v-44q-36 -2 -66.5 -12t-59.5 -35t-61 -77l-97 -155
q26 -16 43 -36t33 -41l109 -147q32 -43 55.5 -67t44.5 -33t42 -9v-44h-133q-9 0 -26 15t-36.5 38t-37.5 46l-113 156q-17 23 -34.5 45t-34.5 32h-45v-198q0 -27 -0.5 -48.5t-2.5 -34.5q17 2 37.5 2.5t35.5 1.5v-55h-246z" />
    <glyph glyph-name="uni01E8" unicode="&#x1e8;" horiz-adv-x="693" 
d="M53 0v44q33 2 47.5 14t18.5 36t4 61v416q0 22 1 42.5t2 35.5q-17 -1 -37 -2t-36 -2v55h246v-44q-32 -1 -47 -13.5t-19 -36t-4 -61.5v-160h74l109 175q15 23 34 49t36 41q-15 -1 -31.5 -1.5t-29.5 -1.5v53h225v-44q-36 -2 -66.5 -12t-59.5 -35t-61 -77l-97 -155
q26 -16 43 -36t33 -41l109 -147q32 -43 55.5 -67t44.5 -33t42 -9v-44h-133q-9 0 -26 15t-36.5 38t-37.5 46l-113 156q-17 23 -34.5 45t-34.5 32h-45v-198q0 -27 -0.5 -48.5t-2.5 -34.5q17 2 37.5 2.5t35.5 1.5v-55h-246zM347 775l-188 144l25 38l171 -88l175 90l22 -36
l-198 -148h-7z" />
    <glyph glyph-name="uni0136" unicode="&#x136;" horiz-adv-x="693" 
d="M53 0v44q33 2 47.5 14t18.5 36t4 61v416q0 22 1 42.5t2 35.5q-17 -1 -37 -2t-36 -2v55h246v-44q-32 -1 -47 -13.5t-19 -36t-4 -61.5v-160h74l109 175q15 23 34 49t36 41q-15 -1 -31.5 -1.5t-29.5 -1.5v53h225v-44q-36 -2 -66.5 -12t-59.5 -35t-61 -77l-97 -155
q26 -16 43 -36t33 -41l109 -147q32 -43 55.5 -67t44.5 -33t42 -9v-44h-133q-9 0 -26 15t-36.5 38t-37.5 46l-113 156q-17 23 -34.5 45t-34.5 32h-45v-198q0 -27 -0.5 -48.5t-2.5 -34.5q17 2 37.5 2.5t35.5 1.5v-55h-246zM353 -267l-33 24q23 40 31 70.5t6 58t-11 56.5l76 19
q18 -32 18 -66q0 -40 -23.5 -81.5t-63.5 -80.5z" />
    <glyph glyph-name="L" unicode="L" horiz-adv-x="587" 
d="M53 0v44q33 2 47.5 14t18.5 36t4 61v416q0 22 1 42.5t2 35.5q-17 -1 -37 -2t-36 -2v55h246v-44q-32 -1 -47 -13.5t-19 -36t-4 -61.5v-414q0 -27 -0.5 -47.5t-2.5 -33.5l169 2q62 1 95 40.5t33 125.5h45l-6 -218h-509z" />
    <glyph glyph-name="Lacute" unicode="&#x139;" horiz-adv-x="587" 
d="M53 0v44q33 2 47.5 14t18.5 36t4 61v416q0 22 1 42.5t2 35.5q-17 -1 -37 -2t-36 -2v55h246v-44q-32 -1 -47 -13.5t-19 -36t-4 -61.5v-414q0 -27 -0.5 -47.5t-2.5 -33.5l169 2q62 1 95 40.5t33 125.5h45l-6 -218h-509zM152 757l-26 35l121 120q18 16 33.5 18.5t27 -2.5
t16.5 -12q6 -9 7 -22t-6.5 -26.5t-28.5 -26.5z" />
    <glyph glyph-name="Lcaron" unicode="&#x13d;" horiz-adv-x="587" 
d="M427 484l-30 23q23 43 31 78t6.5 66t-10.5 61l76 -15q9 -17 11.5 -30t0.5 -32q-4 -41 -28 -80t-57 -71zM53 0v44q33 2 47.5 14t18.5 36t4 61v416q0 22 1 42.5t2 35.5q-17 -1 -37 -2t-36 -2v55h246v-44q-32 -1 -47 -13.5t-19 -36t-4 -61.5v-414q0 -27 -0.5 -47.5
t-2.5 -33.5l169 2q62 1 95 40.5t33 125.5h45l-6 -218h-509z" />
    <glyph glyph-name="uni013B" unicode="&#x13b;" horiz-adv-x="587" 
d="M53 0v44q33 2 47.5 14t18.5 36t4 61v416q0 22 1 42.5t2 35.5q-17 -1 -37 -2t-36 -2v55h246v-44q-32 -1 -47 -13.5t-19 -36t-4 -61.5v-414q0 -27 -0.5 -47.5t-2.5 -33.5l169 2q62 1 95 40.5t33 125.5h45l-6 -218h-509zM293 -267l-33 24q23 40 31 70.5t6 58t-11 56.5l76 19
q18 -32 18 -66q0 -40 -23.5 -81.5t-63.5 -80.5z" />
    <glyph glyph-name="Ldot" unicode="&#x13f;" horiz-adv-x="587" 
d="M53 0v44q33 2 47.5 14t18.5 36t4 61v416q0 22 1 42.5t2 35.5q-17 -1 -37 -2t-36 -2v55h246v-44q-32 -1 -47 -13.5t-19 -36t-4 -61.5v-414q0 -27 -0.5 -47.5t-2.5 -33.5l169 2q62 1 95 40.5t33 125.5h45l-6 -218h-509zM389 264q-27 0 -45.5 20t-18.5 49q0 28 19.5 48.5
t44.5 20.5q27 0 45 -20.5t18 -48.5q0 -29 -18.5 -49t-44.5 -20z" />
    <glyph glyph-name="Lslash" unicode="&#x141;" horiz-adv-x="587" 
d="M47 211v76l358 264v-74zM53 0v44q33 2 47.5 14t18.5 36t4 61v416q0 22 1 42.5t2 35.5q-17 -1 -37 -2t-36 -2v55h246v-44q-32 -1 -47 -13.5t-19 -36t-4 -61.5v-414q0 -27 -0.5 -47.5t-2.5 -33.5l169 2q62 1 95 40.5t33 125.5h45l-6 -218h-509z" />
    <glyph glyph-name="M" unicode="M" horiz-adv-x="936" 
d="M424 -10l-82 188t-81 189q-12 28 -25 61t-26 70t-25 75v-50v-46q-1 -31 -2 -72.5t-2.5 -87.5t-2 -91.5t-1.5 -87.5q0 -24 -1 -47t-3 -40q18 2 38.5 2.5t36.5 1.5v-55h-203v44q28 1 43 11t20.5 30t6.5 49l14 432l2 44t2 39q-18 -1 -38 -1.5t-35 -1.5v54h175l165 -394
q12 -27 24 -57.5t24.5 -60t22.5 -55.5h2q11 30 25 66t24 64q43 108 87.5 216t87.5 221h176v-44q-24 0 -40.5 -8.5t-24 -30.5t-5.5 -63l22 -431q2 -20 1.5 -39t-1.5 -32q18 1 38.5 1.5t35.5 1.5v-55h-242v44q29 1 44.5 12t20.5 34.5t3 61.5l-16 291q-1 15 -2 35.5t-2.5 43
t-2.5 43.5q-3 -7 -6 -14.5t-6 -16.5l-215 -544h-51z" />
    <glyph glyph-name="N" unicode="N" horiz-adv-x="766" 
d="M595 -14l-372 494q-11 13 -21 27t-21 29h-1l3 -389q0 -25 -0.5 -50t-2.5 -46q17 2 37.5 2.5t35.5 1.5v-55h-198v44q28 0 42.5 11t20 29t5.5 42v448v40t1 35q-16 -1 -35.5 -2t-34.5 -2v55h132l352 -463q17 -22 30.5 -41t26.5 -36h1l1 411q0 22 1 42.5t2 35.5
q-18 -1 -38 -2t-35 -2v55h198v-44q-32 -1 -46.5 -13.5t-18 -36t-3.5 -61.5l-1 -559h-61z" />
    <glyph glyph-name="Nacute" unicode="&#x143;" horiz-adv-x="766" 
d="M595 -14l-372 494q-11 13 -21 27t-21 29h-1l3 -389q0 -25 -0.5 -50t-2.5 -46q17 2 37.5 2.5t35.5 1.5v-55h-198v44q28 0 42.5 11t20 29t5.5 42v448v40t1 35q-16 -1 -35.5 -2t-34.5 -2v55h132l352 -463q17 -22 30.5 -41t26.5 -36h1l1 411q0 22 1 42.5t2 35.5
q-18 -1 -38 -2t-35 -2v55h198v-44q-32 -1 -46.5 -13.5t-18 -36t-3.5 -61.5l-1 -559h-61zM356 757l-27 35l121 120q18 16 33.5 18.5t27 -2.5t16.5 -12q6 -9 7 -22t-6.5 -26.5t-27.5 -26.5z" />
    <glyph glyph-name="Ncaron" unicode="&#x147;" horiz-adv-x="766" 
d="M595 -14l-372 494q-11 13 -21 27t-21 29h-1l3 -389q0 -25 -0.5 -50t-2.5 -46q17 2 37.5 2.5t35.5 1.5v-55h-198v44q28 0 42.5 11t20 29t5.5 42v448v40t1 35q-16 -1 -35.5 -2t-34.5 -2v55h132l352 -463q17 -22 30.5 -41t26.5 -36h1l1 411q0 22 1 42.5t2 35.5
q-18 -1 -38 -2t-35 -2v55h198v-44q-32 -1 -46.5 -13.5t-18 -36t-3.5 -61.5l-1 -559h-61zM384 775l-188 144l25 38l171 -88l175 90l22 -36l-198 -148h-7z" />
    <glyph glyph-name="uni0145" unicode="&#x145;" horiz-adv-x="766" 
d="M595 -14l-372 494q-11 13 -21 27t-21 29h-1l3 -389q0 -25 -0.5 -50t-2.5 -46q17 2 37.5 2.5t35.5 1.5v-55h-198v44q28 0 42.5 11t20 29t5.5 42v448v40t1 35q-16 -1 -35.5 -2t-34.5 -2v55h132l352 -463q17 -22 30.5 -41t26.5 -36h1l1 411q0 22 1 42.5t2 35.5
q-18 -1 -38 -2t-35 -2v55h198v-44q-32 -1 -46.5 -13.5t-18 -36t-3.5 -61.5l-1 -559h-61zM354 -267l-33 24q23 40 31 70.5t6 58t-11 56.5l76 19q18 -32 18 -66q0 -40 -23.5 -81.5t-63.5 -80.5z" />
    <glyph glyph-name="Ntilde" unicode="&#xd1;" horiz-adv-x="766" 
d="M595 -14l-372 494q-11 13 -21 27t-21 29h-1l3 -389q0 -25 -0.5 -50t-2.5 -46q17 2 37.5 2.5t35.5 1.5v-55h-198v44q28 0 42.5 11t20 29t5.5 42v448v40t1 35q-16 -1 -35.5 -2t-34.5 -2v55h132l352 -463q17 -22 30.5 -41t26.5 -36h1l1 411q0 22 1 42.5t2 35.5
q-18 -1 -38 -2t-35 -2v55h198v-44q-32 -1 -46.5 -13.5t-18 -36t-3.5 -61.5l-1 -559h-61zM591 900q-16 -44 -36.5 -69.5t-43 -36.5t-44.5 -11q-27 0 -48 9.5t-38.5 22.5t-33.5 22.5t-35 9.5q-21 0 -39.5 -14t-38.5 -43l-41 25q19 48 53.5 76t67.5 28q28 1 48.5 -8.5t37 -22
t33.5 -22.5t36 -10q25 0 46 19.5t35 45.5z" />
    <glyph glyph-name="Eng" unicode="&#x14a;" horiz-adv-x="766" 
d="M516 -271q-45 0 -69.5 20t-24.5 45q0 20 13 36.5t36 17.5q26 1 38 -15t12 -33v-6t-1 -6q11 -5 21 -5t17.5 4.5t13.5 11.5q14 15 18.5 41.5t4.5 60.5l1 200h60v-156q0 -109 -38.5 -162.5t-101.5 -53.5zM595 -14l-372 494q-11 13 -21 27t-21 29h-1l3 -389q0 -25 -0.5 -50
t-2.5 -46q17 2 37.5 2.5t35.5 1.5v-55h-198v44q28 0 42.5 11t20 29t5.5 42v448v40t1 35q-16 -1 -35.5 -2t-34.5 -2v55h132l352 -463q17 -22 30.5 -41t26.5 -36h1l1 411q0 22 1 42.5t2 35.5q-18 -1 -38 -2t-35 -2v55h198v-44q-32 -1 -46.5 -13.5t-18 -36t-3.5 -61.5l-1 -559
h-61z" />
    <glyph glyph-name="O" unicode="O" horiz-adv-x="786" 
d="M396 -16q-95 0 -162.5 32t-109.5 85.5t-62 118.5t-20 130q0 63 21.5 127.5t65 118.5t109 87t153.5 33q92 0 158.5 -33t109.5 -87.5t64.5 -118.5t21.5 -127q0 -62 -21.5 -126.5t-65 -119t-108.5 -87.5t-154 -33zM401 36q58 0 100.5 26t70 69.5t40.5 96t13 104.5
q0 64 -15 123.5t-45.5 107t-75.5 75t-104 27.5q-58 0 -101 -27t-70 -70.5t-40.5 -96t-13.5 -105.5q0 -52 14 -110t43 -108t74.5 -81t109.5 -31z" />
    <glyph glyph-name="Oacute" unicode="&#xd3;" horiz-adv-x="786" 
d="M396 -16q-95 0 -162.5 32t-109.5 85.5t-62 118.5t-20 130q0 63 21.5 127.5t65 118.5t109 87t153.5 33q92 0 158.5 -33t109.5 -87.5t64.5 -118.5t21.5 -127q0 -62 -21.5 -126.5t-65 -119t-108.5 -87.5t-154 -33zM401 36q58 0 100.5 26t70 69.5t40.5 96t13 104.5
q0 64 -15 123.5t-45.5 107t-75.5 75t-104 27.5q-58 0 -101 -27t-70 -70.5t-40.5 -96t-13.5 -105.5q0 -52 14 -110t43 -108t74.5 -81t109.5 -31zM351 757l-27 35l121 120q18 16 33.5 18.5t27 -2.5t16.5 -12q6 -9 7 -22t-6.5 -26.5t-27.5 -26.5z" />
    <glyph glyph-name="Obreve" unicode="&#x14e;" horiz-adv-x="786" 
d="M396 -16q-95 0 -162.5 32t-109.5 85.5t-62 118.5t-20 130q0 63 21.5 127.5t65 118.5t109 87t153.5 33q92 0 158.5 -33t109.5 -87.5t64.5 -118.5t21.5 -127q0 -62 -21.5 -126.5t-65 -119t-108.5 -87.5t-154 -33zM401 36q58 0 100.5 26t70 69.5t40.5 96t13 104.5
q0 64 -15 123.5t-45.5 107t-75.5 75t-104 27.5q-58 0 -101 -27t-70 -70.5t-40.5 -96t-13.5 -105.5q0 -52 14 -110t43 -108t74.5 -81t109.5 -31zM388 800q-30 0 -60 12t-54.5 36t-39.5 61l31 15q18 -21 50 -37.5t73 -16.5t73 16.5t50 37.5l32 -15q-15 -37 -40 -61t-54 -36
t-61 -12z" />
    <glyph glyph-name="Ocircumflex" unicode="&#xd4;" horiz-adv-x="786" 
d="M396 -16q-95 0 -162.5 32t-109.5 85.5t-62 118.5t-20 130q0 63 21.5 127.5t65 118.5t109 87t153.5 33q92 0 158.5 -33t109.5 -87.5t64.5 -118.5t21.5 -127q0 -62 -21.5 -126.5t-65 -119t-108.5 -87.5t-154 -33zM401 36q58 0 100.5 26t70 69.5t40.5 96t13 104.5
q0 64 -15 123.5t-45.5 107t-75.5 75t-104 27.5q-58 0 -101 -27t-70 -70.5t-40.5 -96t-13.5 -105.5q0 -52 14 -110t43 -108t74.5 -81t109.5 -31zM521 765l-133 85l-132 -85l-26 35l159 144h7l151 -144z" />
    <glyph glyph-name="uni1ED0" unicode="&#x1ed0;" horiz-adv-x="786" 
d="M396 -16q-95 0 -162.5 32t-109.5 85.5t-62 118.5t-20 130q0 63 21.5 127.5t65 118.5t109 87t153.5 33q92 0 158.5 -33t109.5 -87.5t64.5 -118.5t21.5 -127q0 -62 -21.5 -126.5t-65 -119t-108.5 -87.5t-154 -33zM401 36q58 0 100.5 26t70 69.5t40.5 96t13 104.5
q0 64 -15 123.5t-45.5 107t-75.5 75t-104 27.5q-58 0 -101 -27t-70 -70.5t-40.5 -96t-13.5 -105.5q0 -52 14 -110t43 -108t74.5 -81t109.5 -31zM498 754l-109 70l-110 -70l-21 29l131 119h6l125 -119zM547 833l-34 29l83 136q13 21 27.5 27t27.5 3t20 -9q8 -7 12 -20
t0 -28.5t-21 -31.5z" />
    <glyph glyph-name="uni1ED8" unicode="&#x1ed8;" horiz-adv-x="786" 
d="M396 -16q-95 0 -162.5 32t-109.5 85.5t-62 118.5t-20 130q0 63 21.5 127.5t65 118.5t109 87t153.5 33q92 0 158.5 -33t109.5 -87.5t64.5 -118.5t21.5 -127q0 -62 -21.5 -126.5t-65 -119t-108.5 -87.5t-154 -33zM401 36q58 0 100.5 26t70 69.5t40.5 96t13 104.5
q0 64 -15 123.5t-45.5 107t-75.5 75t-104 27.5q-58 0 -101 -27t-70 -70.5t-40.5 -96t-13.5 -105.5q0 -52 14 -110t43 -108t74.5 -81t109.5 -31zM394 -186q-22 0 -37.5 16.5t-15.5 39.5q0 24 16 40.5t37 16.5q22 0 37 -16.5t15 -40.5q0 -23 -15.5 -39.5t-36.5 -16.5zM521 765
l-133 85l-132 -85l-26 35l159 144h7l151 -144z" />
    <glyph glyph-name="uni1ED2" unicode="&#x1ed2;" horiz-adv-x="786" 
d="M396 -16q-95 0 -162.5 32t-109.5 85.5t-62 118.5t-20 130q0 63 21.5 127.5t65 118.5t109 87t153.5 33q92 0 158.5 -33t109.5 -87.5t64.5 -118.5t21.5 -127q0 -62 -21.5 -126.5t-65 -119t-108.5 -87.5t-154 -33zM401 36q58 0 100.5 26t70 69.5t40.5 96t13 104.5
q0 64 -15 123.5t-45.5 107t-75.5 75t-104 27.5q-58 0 -101 -27t-70 -70.5t-40.5 -96t-13.5 -105.5q0 -52 14 -110t43 -108t74.5 -81t109.5 -31zM498 754l-109 70l-110 -70l-21 29l131 119h6l125 -119zM525 868l-115 106q-18 16 -22 31.5t0.5 28.5t12.5 20q7 6 19.5 9
t27.5 -3t27 -27l84 -136z" />
    <glyph glyph-name="uni1ED4" unicode="&#x1ed4;" horiz-adv-x="786" 
d="M396 -16q-95 0 -162.5 32t-109.5 85.5t-62 118.5t-20 130q0 63 21.5 127.5t65 118.5t109 87t153.5 33q92 0 158.5 -33t109.5 -87.5t64.5 -118.5t21.5 -127q0 -62 -21.5 -126.5t-65 -119t-108.5 -87.5t-154 -33zM401 36q58 0 100.5 26t70 69.5t40.5 96t13 104.5
q0 64 -15 123.5t-45.5 107t-75.5 75t-104 27.5q-58 0 -101 -27t-70 -70.5t-40.5 -96t-13.5 -105.5q0 -52 14 -110t43 -108t74.5 -81t109.5 -31zM498 754l-110 70l-109 -69l-22 28l132 119h5l125 -118zM505 865q0 19 13 30.5t25 23.5q9 8 14 18.5t5 21.5q0 21 -14.5 35
t-37.5 14q-22 0 -35 -9.5t-15 -19.5q6 -2 10 -7.5t4 -12.5q0 -11 -9.5 -19t-22.5 -8q-16 0 -28 11t-12 31q0 19 12.5 37t36.5 29.5t58 11.5q55 0 84.5 -25.5t29.5 -59.5q0 -26 -12 -40.5t-29 -27.5q-12 -9 -20.5 -17.5t-8.5 -16.5h-48z" />
    <glyph glyph-name="uni1ED6" unicode="&#x1ed6;" horiz-adv-x="786" 
d="M396 -16q-95 0 -162.5 32t-109.5 85.5t-62 118.5t-20 130q0 63 21.5 127.5t65 118.5t109 87t153.5 33q92 0 158.5 -33t109.5 -87.5t64.5 -118.5t21.5 -127q0 -62 -21.5 -126.5t-65 -119t-108.5 -87.5t-154 -33zM401 36q58 0 100.5 26t70 69.5t40.5 96t13 104.5
q0 64 -15 123.5t-45.5 107t-75.5 75t-104 27.5q-58 0 -101 -27t-70 -70.5t-40.5 -96t-13.5 -105.5q0 -52 14 -110t43 -108t74.5 -81t109.5 -31zM498 754l-110 70l-109 -70l-22 29l132 119h5l125 -119zM578 1023q-18 -53 -49.5 -77.5t-58.5 -24.5q-30 0 -51.5 12.5t-39 24.5
t-37.5 12q-16 0 -35.5 -9t-33.5 -33l-39 23q15 38 46 64.5t61 26.5q32 1 52 -11t37 -24.5t40 -12.5q20 0 38.5 13.5t30.5 35.5z" />
    <glyph glyph-name="Odieresis" unicode="&#xd6;" horiz-adv-x="786" 
d="M396 -16q-95 0 -162.5 32t-109.5 85.5t-62 118.5t-20 130q0 63 21.5 127.5t65 118.5t109 87t153.5 33q92 0 158.5 -33t109.5 -87.5t64.5 -118.5t21.5 -127q0 -62 -21.5 -126.5t-65 -119t-108.5 -87.5t-154 -33zM401 36q58 0 100.5 26t70 69.5t40.5 96t13 104.5
q0 64 -15 123.5t-45.5 107t-75.5 75t-104 27.5q-58 0 -101 -27t-70 -70.5t-40.5 -96t-13.5 -105.5q0 -52 14 -110t43 -108t74.5 -81t109.5 -31zM299 783q-24 0 -41.5 19.5t-17.5 47.5q0 29 18 48.5t42 19.5t41 -19.5t17 -48.5q0 -28 -18 -47.5t-41 -19.5zM477 783
q-24 0 -41 19.5t-17 47.5q0 29 17.5 48.5t41.5 19.5q25 0 41 -19.5t16 -48.5q0 -28 -17.5 -47.5t-40.5 -19.5z" />
    <glyph glyph-name="uni1ECC" unicode="&#x1ecc;" horiz-adv-x="786" 
d="M396 -16q-95 0 -162.5 32t-109.5 85.5t-62 118.5t-20 130q0 63 21.5 127.5t65 118.5t109 87t153.5 33q92 0 158.5 -33t109.5 -87.5t64.5 -118.5t21.5 -127q0 -62 -21.5 -126.5t-65 -119t-108.5 -87.5t-154 -33zM401 36q58 0 100.5 26t70 69.5t40.5 96t13 104.5
q0 64 -15 123.5t-45.5 107t-75.5 75t-104 27.5q-58 0 -101 -27t-70 -70.5t-40.5 -96t-13.5 -105.5q0 -52 14 -110t43 -108t74.5 -81t109.5 -31zM394 -186q-22 0 -37.5 16.5t-15.5 39.5q0 24 16 40.5t37 16.5q22 0 37 -16.5t15 -40.5q0 -23 -15.5 -39.5t-36.5 -16.5z" />
    <glyph glyph-name="Ograve" unicode="&#xd2;" horiz-adv-x="786" 
d="M396 -16q-95 0 -162.5 32t-109.5 85.5t-62 118.5t-20 130q0 63 21.5 127.5t65 118.5t109 87t153.5 33q92 0 158.5 -33t109.5 -87.5t64.5 -118.5t21.5 -127q0 -62 -21.5 -126.5t-65 -119t-108.5 -87.5t-154 -33zM401 36q58 0 100.5 26t70 69.5t40.5 96t13 104.5
q0 64 -15 123.5t-45.5 107t-75.5 75t-104 27.5q-58 0 -101 -27t-70 -70.5t-40.5 -96t-13.5 -105.5q0 -52 14 -110t43 -108t74.5 -81t109.5 -31zM419 757l-144 84q-19 13 -27 26.5t-7 26.5t7 22q6 7 17 12t27 2.5t33 -18.5l121 -120z" />
    <glyph glyph-name="uni1ECE" unicode="&#x1ece;" horiz-adv-x="786" 
d="M396 -16q-95 0 -162.5 32t-109.5 85.5t-62 118.5t-20 130q0 63 21.5 127.5t65 118.5t109 87t153.5 33q92 0 158.5 -33t109.5 -87.5t64.5 -118.5t21.5 -127q0 -62 -21.5 -126.5t-65 -119t-108.5 -87.5t-154 -33zM401 36q58 0 100.5 26t70 69.5t40.5 96t13 104.5
q0 64 -15 123.5t-45.5 107t-75.5 75t-104 27.5q-58 0 -101 -27t-70 -70.5t-40.5 -96t-13.5 -105.5q0 -52 14 -110t43 -108t74.5 -81t109.5 -31zM370 764q0 19 12.5 30.5t25.5 23.5q9 8 14 18.5t5 21.5q0 21 -14.5 35t-37.5 14q-22 0 -35 -9.5t-15 -19.5q6 -2 10 -7.5
t4 -12.5q0 -11 -9.5 -19t-22.5 -8q-16 0 -28 11t-12 31q0 19 12.5 37t36.5 29.5t58 11.5q55 0 84.5 -25.5t29.5 -59.5q0 -26 -12 -40.5t-29 -27.5q-12 -9 -20.5 -17.5t-8.5 -16.5h-48z" />
    <glyph glyph-name="Ohorn" unicode="&#x1a0;" horiz-adv-x="786" 
d="M396 -16q-95 0 -162.5 32t-109.5 85.5t-62 118.5t-20 130q0 63 21.5 127.5t65 118.5t109 87t153.5 33q92 0 158.5 -33t109.5 -87.5t64.5 -118.5t21.5 -127q0 -62 -21.5 -126.5t-65 -119t-108.5 -87.5t-154 -33zM401 36q58 0 100.5 26t70 69.5t40.5 96t13 104.5
q0 64 -15 123.5t-45.5 107t-75.5 75t-104 27.5q-58 0 -101 -27t-70 -70.5t-40.5 -96t-13.5 -105.5q0 -52 14 -110t43 -108t74.5 -81t109.5 -31zM505 641v56q38 0 59.5 26t21.5 54h87q0 -37 -21 -68t-58.5 -49.5t-88.5 -18.5z" />
    <glyph glyph-name="uni1EDA" unicode="&#x1eda;" horiz-adv-x="786" 
d="M396 -16q-95 0 -162.5 32t-109.5 85.5t-62 118.5t-20 130q0 63 21.5 127.5t65 118.5t109 87t153.5 33q92 0 158.5 -33t109.5 -87.5t64.5 -118.5t21.5 -127q0 -62 -21.5 -126.5t-65 -119t-108.5 -87.5t-154 -33zM401 36q58 0 100.5 26t70 69.5t40.5 96t13 104.5
q0 64 -15 123.5t-45.5 107t-75.5 75t-104 27.5q-58 0 -101 -27t-70 -70.5t-40.5 -96t-13.5 -105.5q0 -52 14 -110t43 -108t74.5 -81t109.5 -31zM505 641v56q38 0 59.5 26t21.5 54h87q0 -37 -21 -68t-58.5 -49.5t-88.5 -18.5zM335 775l-34 29l83 137q14 20 28.5 25.5t27 3
t19.5 -8.5q8 -6 12 -19t-0.5 -28.5t-20.5 -32.5z" />
    <glyph glyph-name="uni1EE2" unicode="&#x1ee2;" horiz-adv-x="786" 
d="M396 -16q-95 0 -162.5 32t-109.5 85.5t-62 118.5t-20 130q0 63 21.5 127.5t65 118.5t109 87t153.5 33q92 0 158.5 -33t109.5 -87.5t64.5 -118.5t21.5 -127q0 -62 -21.5 -126.5t-65 -119t-108.5 -87.5t-154 -33zM401 36q58 0 100.5 26t70 69.5t40.5 96t13 104.5
q0 64 -15 123.5t-45.5 107t-75.5 75t-104 27.5q-58 0 -101 -27t-70 -70.5t-40.5 -96t-13.5 -105.5q0 -52 14 -110t43 -108t74.5 -81t109.5 -31zM505 641v56q38 0 59.5 26t21.5 54h87q0 -37 -21 -68t-58.5 -49.5t-88.5 -18.5zM394 -186q-22 0 -37.5 16.5t-15.5 39.5
q0 24 16 40.5t37 16.5q22 0 37 -16.5t15 -40.5q0 -23 -15.5 -39.5t-36.5 -16.5z" />
    <glyph glyph-name="uni1EDC" unicode="&#x1edc;" horiz-adv-x="786" 
d="M396 -16q-95 0 -162.5 32t-109.5 85.5t-62 118.5t-20 130q0 63 21.5 127.5t65 118.5t109 87t153.5 33q92 0 158.5 -33t109.5 -87.5t64.5 -118.5t21.5 -127q0 -62 -21.5 -126.5t-65 -119t-108.5 -87.5t-154 -33zM401 36q58 0 100.5 26t70 69.5t40.5 96t13 104.5
q0 64 -15 123.5t-45.5 107t-75.5 75t-104 27.5q-58 0 -101 -27t-70 -70.5t-40.5 -96t-13.5 -105.5q0 -52 14 -110t43 -108t74.5 -81t109.5 -31zM505 641v56q38 0 59.5 26t21.5 54h87q0 -37 -21 -68t-58.5 -49.5t-88.5 -18.5zM439 775l-115 106q-17 16 -21 32t0.5 29t12.5 19
q7 6 19.5 9t27 -2.5t27.5 -26.5l83 -137z" />
    <glyph glyph-name="uni1EDE" unicode="&#x1ede;" horiz-adv-x="786" 
d="M396 -16q-95 0 -162.5 32t-109.5 85.5t-62 118.5t-20 130q0 63 21.5 127.5t65 118.5t109 87t153.5 33q92 0 158.5 -33t109.5 -87.5t64.5 -118.5t21.5 -127q0 -62 -21.5 -126.5t-65 -119t-108.5 -87.5t-154 -33zM401 36q58 0 100.5 26t70 69.5t40.5 96t13 104.5
q0 64 -15 123.5t-45.5 107t-75.5 75t-104 27.5q-58 0 -101 -27t-70 -70.5t-40.5 -96t-13.5 -105.5q0 -52 14 -110t43 -108t74.5 -81t109.5 -31zM505 641v56q38 0 59.5 26t21.5 54h87q0 -37 -21 -68t-58.5 -49.5t-88.5 -18.5zM370 764q0 19 12.5 30.5t25.5 23.5q9 8 14 18.5
t5 21.5q0 21 -14.5 35t-37.5 14q-22 0 -35 -9.5t-15 -19.5q6 -2 10 -7.5t4 -12.5q0 -11 -9.5 -19t-22.5 -8q-16 0 -28 11t-12 31q0 19 12.5 37t36.5 29.5t58 11.5q55 0 84.5 -25.5t29.5 -59.5q0 -26 -12 -40.5t-29 -27.5q-12 -9 -20.5 -17.5t-8.5 -16.5h-48z" />
    <glyph glyph-name="uni1EE0" unicode="&#x1ee0;" horiz-adv-x="786" 
d="M396 -16q-95 0 -162.5 32t-109.5 85.5t-62 118.5t-20 130q0 63 21.5 127.5t65 118.5t109 87t153.5 33q92 0 158.5 -33t109.5 -87.5t64.5 -118.5t21.5 -127q0 -62 -21.5 -126.5t-65 -119t-108.5 -87.5t-154 -33zM401 36q58 0 100.5 26t70 69.5t40.5 96t13 104.5
q0 64 -15 123.5t-45.5 107t-75.5 75t-104 27.5q-58 0 -101 -27t-70 -70.5t-40.5 -96t-13.5 -105.5q0 -52 14 -110t43 -108t74.5 -81t109.5 -31zM505 641v56q38 0 59.5 26t21.5 54h87q0 -37 -21 -68t-58.5 -49.5t-88.5 -18.5zM559 913q-18 -54 -49 -78.5t-59 -24.5
q-29 0 -50.5 12.5t-39.5 24.5t-37 12q-16 0 -35.5 -9t-34.5 -32l-38 22q14 39 45.5 65t61.5 27q31 0 51 -12t37.5 -24t39.5 -12q21 0 39 13t31 35z" />
    <glyph glyph-name="Ohungarumlaut" unicode="&#x150;" horiz-adv-x="786" 
d="M396 -16q-95 0 -162.5 32t-109.5 85.5t-62 118.5t-20 130q0 63 21.5 127.5t65 118.5t109 87t153.5 33q92 0 158.5 -33t109.5 -87.5t64.5 -118.5t21.5 -127q0 -62 -21.5 -126.5t-65 -119t-108.5 -87.5t-154 -33zM401 36q58 0 100.5 26t70 69.5t40.5 96t13 104.5
q0 64 -15 123.5t-45.5 107t-75.5 75t-104 27.5q-58 0 -101 -27t-70 -70.5t-40.5 -96t-13.5 -105.5q0 -52 14 -110t43 -108t74.5 -81t109.5 -31zM449 763l-20 35l111 102q19 17 41 18t33 -19q8 -13 5.5 -26t-11 -24t-21.5 -17zM328 764l-33 26l69 113q15 22 35.5 30t37.5 -7
q10 -9 12 -21.5t-3 -25.5t-18 -24z" />
    <glyph glyph-name="Omacron" unicode="&#x14c;" horiz-adv-x="786" 
d="M396 -16q-95 0 -162.5 32t-109.5 85.5t-62 118.5t-20 130q0 63 21.5 127.5t65 118.5t109 87t153.5 33q92 0 158.5 -33t109.5 -87.5t64.5 -118.5t21.5 -127q0 -62 -21.5 -126.5t-65 -119t-108.5 -87.5t-154 -33zM401 36q58 0 100.5 26t70 69.5t40.5 96t13 104.5
q0 64 -15 123.5t-45.5 107t-75.5 75t-104 27.5q-58 0 -101 -27t-70 -70.5t-40.5 -96t-13.5 -105.5q0 -52 14 -110t43 -108t74.5 -81t109.5 -31zM251 836v72h271v-68z" />
    <glyph glyph-name="Oslash" unicode="&#xd8;" horiz-adv-x="786" 
d="M606 765l62 -39l-478 -812l-57 36zM395 -16q-95 0 -162.5 32t-109.5 85.5t-61.5 118.5t-19.5 130q0 63 21 127.5t64.5 118.5t109 87t154.5 33q91 0 158 -33t110 -87.5t64 -118.5t21 -127q0 -62 -21 -126.5t-64.5 -119t-109 -87.5t-154.5 -33zM400 36q59 0 101 26
t69.5 69.5t41 96t13.5 104.5q0 64 -15.5 123.5t-46 107t-75.5 75t-104 27.5q-58 0 -100.5 -27t-70 -70.5t-41 -96t-13.5 -105.5q0 -52 14 -110t43 -108t74.5 -81t109.5 -31z" />
    <glyph glyph-name="Oslashacute" unicode="&#x1fe;" horiz-adv-x="786" 
d="M606 765l62 -39l-478 -812l-57 36zM395 -16q-95 0 -162.5 32t-109.5 85.5t-61.5 118.5t-19.5 130q0 63 21 127.5t64.5 118.5t109 87t154.5 33q91 0 158 -33t110 -87.5t64 -118.5t21 -127q0 -62 -21 -126.5t-64.5 -119t-109 -87.5t-154.5 -33zM400 36q59 0 101 26
t69.5 69.5t41 96t13.5 104.5q0 64 -15.5 123.5t-46 107t-75.5 75t-104 27.5q-58 0 -100.5 -27t-70 -70.5t-41 -96t-13.5 -105.5q0 -52 14 -110t43 -108t74.5 -81t109.5 -31zM356 757l-27 35l121 120q18 16 34 18.5t27.5 -2.5t15.5 -12q6 -9 7 -22t-6 -26.5t-28 -26.5z" />
    <glyph glyph-name="Otilde" unicode="&#xd5;" horiz-adv-x="786" 
d="M396 -16q-95 0 -162.5 32t-109.5 85.5t-62 118.5t-20 130q0 63 21.5 127.5t65 118.5t109 87t153.5 33q92 0 158.5 -33t109.5 -87.5t64.5 -118.5t21.5 -127q0 -62 -21.5 -126.5t-65 -119t-108.5 -87.5t-154 -33zM401 36q58 0 100.5 26t70 69.5t40.5 96t13 104.5
q0 64 -15 123.5t-45.5 107t-75.5 75t-104 27.5q-58 0 -101 -27t-70 -70.5t-40.5 -96t-13.5 -105.5q0 -52 14 -110t43 -108t74.5 -81t109.5 -31zM586 900q-16 -44 -36.5 -69.5t-43 -36.5t-44.5 -11q-27 0 -48 9.5t-38.5 22.5t-33.5 22.5t-35 9.5q-21 0 -39.5 -14t-38.5 -43
l-41 25q19 48 53.5 76t67.5 28q28 1 48.5 -8.5t37 -22t33.5 -22.5t36 -10q25 0 46 19.5t35 45.5z" />
    <glyph glyph-name="OE" unicode="&#x152;" horiz-adv-x="1024" 
d="M801 253q0 43 -12 62t-37 23.5t-63 2.5l-59 -3v-203q0 -27 -0.5 -47.5t-2.5 -33.5l173 -4q39 -1 69.5 13.5t48.5 48.5t18 91h44l-6 -203h-450q-38 -9 -74.5 -12.5t-66.5 -3.5q-105 1 -181 46.5t-117.5 124t-41.5 177.5q0 70 20.5 137.5t64 122.5t110 89t159.5 35
q28 0 62.5 -4.5t64.5 -11.5h418l5 -181h-44q0 57 -18 87t-48 40t-64 9l-70 -2q-31 0 -47 -10.5t-21 -34t-5 -63.5v-157h166q-1 21 -3 43t-3 43h55v-221h-44zM524 638q-27 14 -60.5 20t-65.5 6q-52 0 -96.5 -23t-76 -65t-48.5 -99.5t-17 -127.5q1 -91 32 -159.5t87 -106.5
t131 -40q58 -2 114 16v579z" />
    <glyph glyph-name="P" unicode="P" horiz-adv-x="617" 
d="M53 44q33 2 47.5 14t18.5 36t4 61v416q0 22 1 42.5t2 35.5q-17 -1 -37 -2t-36 -2v55q59 1 120 1.5t124 0.5q94 0 159.5 -22.5t101 -68t36.5 -114.5q1 -39 -14 -80.5t-51 -77t-97.5 -57.5t-154.5 -22q-10 -1 -22.5 -1t-25.5 1v-126q0 -27 -0.5 -48.5t-2.5 -34.5q14 1 30 2
t31.5 1.5t28.5 1.5v-56h-263v44zM229 313q17 -2 29.5 -2.5t29.5 -0.5q56 0 99 21t67 61t24 95q0 48 -14.5 80.5t-40 51t-58.5 26.5t-70 8q-30 0 -44 -12t-18 -35t-4 -59v-234z" />
    <glyph glyph-name="Thorn" unicode="&#xde;" horiz-adv-x="608" 
d="M53 0v44q33 2 47.5 14t18.5 36t4 61v416q0 22 1 42.5t2 35.5q-17 -1 -37 -2t-36 -2v55h246v-44q-41 -1 -54.5 -20.5t-14.5 -60.5l56 1q94 1 160 -19t102 -63.5t38 -112.5q1 -39 -14 -78.5t-51.5 -72t-98 -52t-154.5 -20.5q-11 0 -20 -0.5t-19 0.5q0 -44 -0.5 -69
t-2.5 -38q17 2 37.5 2.5t35.5 1.5v-55h-246zM285 208q95 1 139.5 46.5t44.5 119.5q0 43 -13.5 72t-38 47t-57 26t-71.5 8h-32t-28 -1v-316q15 -2 28 -2.5t28 0.5z" />
    <glyph glyph-name="Q" unicode="Q" horiz-adv-x="787" 
d="M753 -218q-39 0 -66 3t-50.5 14.5t-53.5 37.5q-44 40 -74.5 73.5t-58 53.5t-62.5 20q-93 1 -158.5 33.5t-107 86t-60.5 118t-19 128.5q0 63 21 127.5t64.5 118.5t109 87t154.5 33q91 0 158 -33t110 -87.5t64 -118.5t21 -127q0 -53 -16 -108t-47 -104.5t-78.5 -86.5
t-111.5 -54q26 0 48 -4.5t44.5 -17t50.5 -39.5q35 -32 58 -53.5t38.5 -33.5t28.5 -17.5t29 -5.5v-44h-36zM401 36q58 0 100.5 26t70 69.5t41 96t13.5 104.5q0 64 -15.5 123.5t-46 107t-75.5 75t-104 27.5q-58 0 -101 -27t-70 -70.5t-40.5 -96t-13.5 -105.5q0 -52 14 -110
t43 -108t74.5 -81t109.5 -31z" />
    <glyph glyph-name="R" unicode="R" horiz-adv-x="647" 
d="M53 0v44q33 2 47.5 14t18.5 36t4 61v416q0 22 1 42.5t2 35.5q-17 -1 -37 -2t-36 -2v55q61 1 123 1.5t125 -0.5q94 0 155 -21.5t91.5 -63.5t29.5 -106q1 -40 -16 -79.5t-57 -70.5t-110 -47q20 -12 36 -33t33 -47l61 -94q19 -30 35 -51t36 -32.5t48 -11.5v-44h-139
q-26 22 -44.5 47.5t-39.5 57.5l-69 112q-13 20 -27.5 43t-31.5 39h-31.5h-31.5v-165q0 -27 -0.5 -48.5t-2.5 -34.5q12 1 25.5 1.5t27 1.5t23.5 1v-55h-249zM287 348q55 1 94 17.5t60 51t21 89.5q0 41 -12 69t-34 45.5t-52.5 25t-65.5 7.5q-32 0 -46.5 -12t-18.5 -35t-4 -59
v-196q15 -1 28.5 -2.5t29.5 -0.5z" />
    <glyph glyph-name="Racute" unicode="&#x154;" horiz-adv-x="647" 
d="M53 0v44q33 2 47.5 14t18.5 36t4 61v416q0 22 1 42.5t2 35.5q-17 -1 -37 -2t-36 -2v55q61 1 123 1.5t125 -0.5q94 0 155 -21.5t91.5 -63.5t29.5 -106q1 -40 -16 -79.5t-57 -70.5t-110 -47q20 -12 36 -33t33 -47l61 -94q19 -30 35 -51t36 -32.5t48 -11.5v-44h-139
q-26 22 -44.5 47.5t-39.5 57.5l-69 112q-13 20 -27.5 43t-31.5 39h-31.5h-31.5v-165q0 -27 -0.5 -48.5t-2.5 -34.5q12 1 25.5 1.5t27 1.5t23.5 1v-55h-249zM287 348q55 1 94 17.5t60 51t21 89.5q0 41 -12 69t-34 45.5t-52.5 25t-65.5 7.5q-32 0 -46.5 -12t-18.5 -35t-4 -59
v-196q15 -1 28.5 -2.5t29.5 -0.5zM287 757l-27 35l121 120q18 16 34 18.5t27.5 -2.5t15.5 -12q6 -9 7 -22t-6 -26.5t-28 -26.5z" />
    <glyph glyph-name="Rcaron" unicode="&#x158;" horiz-adv-x="647" 
d="M53 0v44q33 2 47.5 14t18.5 36t4 61v416q0 22 1 42.5t2 35.5q-17 -1 -37 -2t-36 -2v55q61 1 123 1.5t125 -0.5q94 0 155 -21.5t91.5 -63.5t29.5 -106q1 -40 -16 -79.5t-57 -70.5t-110 -47q20 -12 36 -33t33 -47l61 -94q19 -30 35 -51t36 -32.5t48 -11.5v-44h-139
q-26 22 -44.5 47.5t-39.5 57.5l-69 112q-13 20 -27.5 43t-31.5 39h-31.5h-31.5v-165q0 -27 -0.5 -48.5t-2.5 -34.5q12 1 25.5 1.5t27 1.5t23.5 1v-55h-249zM287 348q55 1 94 17.5t60 51t21 89.5q0 41 -12 69t-34 45.5t-52.5 25t-65.5 7.5q-32 0 -46.5 -12t-18.5 -35t-4 -59
v-196q15 -1 28.5 -2.5t29.5 -0.5zM315 775l-188 144l25 38l171 -88l175 90l22 -36l-198 -148h-7z" />
    <glyph glyph-name="uni0156" unicode="&#x156;" horiz-adv-x="647" 
d="M53 0v44q33 2 47.5 14t18.5 36t4 61v416q0 22 1 42.5t2 35.5q-17 -1 -37 -2t-36 -2v55q61 1 123 1.5t125 -0.5q94 0 155 -21.5t91.5 -63.5t29.5 -106q1 -40 -16 -79.5t-57 -70.5t-110 -47q20 -12 36 -33t33 -47l61 -94q19 -30 35 -51t36 -32.5t48 -11.5v-44h-139
q-26 22 -44.5 47.5t-39.5 57.5l-69 112q-13 20 -27.5 43t-31.5 39h-31.5h-31.5v-165q0 -27 -0.5 -48.5t-2.5 -34.5q12 1 25.5 1.5t27 1.5t23.5 1v-55h-249zM287 348q55 1 94 17.5t60 51t21 89.5q0 41 -12 69t-34 45.5t-52.5 25t-65.5 7.5q-32 0 -46.5 -12t-18.5 -35t-4 -59
v-196q15 -1 28.5 -2.5t29.5 -0.5zM315 -267l-33 24q23 40 31 70.5t6 58t-11 56.5l76 19q18 -32 18 -66q0 -40 -23.5 -81.5t-63.5 -80.5z" />
    <glyph glyph-name="S" unicode="S" horiz-adv-x="577" 
d="M450 484q-5 51 -26 92t-58 65.5t-92 23.5q-56 0 -89 -31t-33 -75q0 -39 22 -65.5t59.5 -47.5t84.5 -42q38 -16 77 -36t71 -45.5t51 -61t19 -83.5q0 -56 -29 -100t-82.5 -69t-129.5 -25q-43 0 -90.5 13t-86.5 37l5 -42h-61l-4 220h48q8 -87 62.5 -131.5t130.5 -44.5
q38 0 69 14t49 40t18 61q0 41 -24.5 69t-62 48t-78.5 38t-79.5 38t-69.5 46t-49 61.5t-18 83.5q0 28 10 59t34 59t65.5 45.5t104.5 17.5q38 0 85.5 -11t86.5 -39l-4 42h60v-224h-46z" />
    <glyph glyph-name="Sacute" unicode="&#x15a;" horiz-adv-x="577" 
d="M450 484q-5 51 -26 92t-58 65.5t-92 23.5q-56 0 -89 -31t-33 -75q0 -39 22 -65.5t59.5 -47.5t84.5 -42q38 -16 77 -36t71 -45.5t51 -61t19 -83.5q0 -56 -29 -100t-82.5 -69t-129.5 -25q-43 0 -90.5 13t-86.5 37l5 -42h-61l-4 220h48q8 -87 62.5 -131.5t130.5 -44.5
q38 0 69 14t49 40t18 61q0 41 -24.5 69t-62 48t-78.5 38t-79.5 38t-69.5 46t-49 61.5t-18 83.5q0 28 10 59t34 59t65.5 45.5t104.5 17.5q38 0 85.5 -11t86.5 -39l-4 42h60v-224h-46zM244 757l-26 35l121 120q18 16 33.5 18.5t27 -2.5t16.5 -12q6 -9 7 -22t-6.5 -26.5
t-28.5 -26.5z" />
    <glyph glyph-name="Scaron" unicode="&#x160;" horiz-adv-x="577" 
d="M450 484q-5 51 -26 92t-58 65.5t-92 23.5q-56 0 -89 -31t-33 -75q0 -39 22 -65.5t59.5 -47.5t84.5 -42q38 -16 77 -36t71 -45.5t51 -61t19 -83.5q0 -56 -29 -100t-82.5 -69t-129.5 -25q-43 0 -90.5 13t-86.5 37l5 -42h-61l-4 220h48q8 -87 62.5 -131.5t130.5 -44.5
q38 0 69 14t49 40t18 61q0 41 -24.5 69t-62 48t-78.5 38t-79.5 38t-69.5 46t-49 61.5t-18 83.5q0 28 10 59t34 59t65.5 45.5t104.5 17.5q38 0 85.5 -11t86.5 -39l-4 42h60v-224h-46zM273 775l-188 144l25 38l171 -88l175 90l22 -36l-198 -148h-7z" />
    <glyph glyph-name="Scedilla" unicode="&#x15e;" horiz-adv-x="577" 
d="M450 484q-5 51 -26 92t-58 65.5t-92 23.5q-56 0 -89 -31t-33 -75q0 -39 22 -65.5t59.5 -47.5t84.5 -42q38 -16 77 -36t71 -45.5t51 -61t19 -83.5q0 -56 -29 -100t-82.5 -69t-129.5 -25q-43 0 -90.5 13t-86.5 37l5 -42h-61l-4 220h48q8 -87 62.5 -131.5t130.5 -44.5
q38 0 69 14t49 40t18 61q0 41 -24.5 69t-62 48t-78.5 38t-79.5 38t-69.5 46t-49 61.5t-18 83.5q0 28 10 59t34 59t65.5 45.5t104.5 17.5q38 0 85.5 -11t86.5 -39l-4 42h60v-224h-46zM222 -247l-7 39q21 4 42 10.5t39 15t28.5 20.5t10.5 27q0 19 -13.5 24.5t-30.5 2
t-30 -13.5l-35 16l30 115h62l-27 -81q13 7 32.5 11.5t35.5 4.5q31 0 50 -17.5t19 -49.5t-21.5 -54t-55 -36t-68 -22t-61.5 -12z" />
    <glyph glyph-name="Scircumflex" unicode="&#x15c;" horiz-adv-x="577" 
d="M450 484q-5 51 -26 92t-58 65.5t-92 23.5q-56 0 -89 -31t-33 -75q0 -39 22 -65.5t59.5 -47.5t84.5 -42q38 -16 77 -36t71 -45.5t51 -61t19 -83.5q0 -56 -29 -100t-82.5 -69t-129.5 -25q-43 0 -90.5 13t-86.5 37l5 -42h-61l-4 220h48q8 -87 62.5 -131.5t130.5 -44.5
q38 0 69 14t49 40t18 61q0 41 -24.5 69t-62 48t-78.5 38t-79.5 38t-69.5 46t-49 61.5t-18 83.5q0 28 10 59t34 59t65.5 45.5t104.5 17.5q38 0 85.5 -11t86.5 -39l-4 42h60v-224h-46zM415 765l-133 85l-132 -85l-26 35l159 144h7l151 -144z" />
    <glyph glyph-name="uni0218" unicode="&#x218;" horiz-adv-x="577" 
d="M450 484q-5 51 -26 92t-58 65.5t-92 23.5q-56 0 -89 -31t-33 -75q0 -39 22 -65.5t59.5 -47.5t84.5 -42q38 -16 77 -36t71 -45.5t51 -61t19 -83.5q0 -56 -29 -100t-82.5 -69t-129.5 -25q-43 0 -90.5 13t-86.5 37l5 -42h-61l-4 220h48q8 -87 62.5 -131.5t130.5 -44.5
q38 0 69 14t49 40t18 61q0 41 -24.5 69t-62 48t-78.5 38t-79.5 38t-69.5 46t-49 61.5t-18 83.5q0 28 10 59t34 59t65.5 45.5t104.5 17.5q38 0 85.5 -11t86.5 -39l-4 42h60v-224h-46zM272 -267l-33 24q23 40 31 70.5t6 58t-11 56.5l76 19q18 -32 18 -66q0 -40 -23.5 -81.5
t-63.5 -80.5z" />
    <glyph glyph-name="uni1E9E" unicode="&#x1e9e;" horiz-adv-x="698" 
d="M421 -16q-47 0 -87 16.5t-74 51.5l33 28q22 -18 51 -27.5t57 -9.5q37 0 68 17.5t49.5 54t18.5 92.5q0 76 -42.5 115.5t-131.5 42.5l-39 -1v40l120 162q19 27 38 46.5t45 39.5l-173 -1q-71 0 -107.5 -49.5t-36.5 -143.5l1 -333v-22t-0.5 -30t-1.5 -35t-2 -38h-160v42
q30 0 42 14t14.5 39t2.5 58l-1 290q0 58 15.5 105.5t46.5 81.5t77.5 52t109.5 18h264l-1 -48l-181 -240q54 -1 94.5 -17.5t67.5 -45.5t40.5 -66.5t13.5 -78.5q0 -54 -19 -95.5t-52 -69t-74.5 -41.5t-85.5 -14z" />
    <glyph glyph-name="T" unicode="T" horiz-adv-x="643" 
d="M575 484q-1 57 -13 95t-39.5 57t-75.5 18h-72l-1 -520q0 -27 -0.5 -48.5t-2.5 -34.5q19 2 41.5 2.5t40.5 1.5v-55h-254v44q33 2 47 14t18 36.5t4 60.5v498l-84 -1q-61 0 -89 -41t-28 -127h-47l6 216h590l6 -216h-47z" />
    <glyph glyph-name="Tbar" unicode="&#x166;" horiz-adv-x="643" 
d="M141 316v46h373v-42zM575 484q-1 57 -13 95t-39.5 57t-75.5 18h-72l-1 -520q0 -27 -0.5 -48.5t-2.5 -34.5q19 2 41.5 2.5t40.5 1.5v-55h-254v44q33 2 47 14t18 36.5t4 60.5v498l-84 -1q-61 0 -89 -41t-28 -127h-47l6 216h590l6 -216h-47z" />
    <glyph glyph-name="Tcaron" unicode="&#x164;" horiz-adv-x="643" 
d="M575 484q-1 57 -13 95t-39.5 57t-75.5 18h-72l-1 -520q0 -27 -0.5 -48.5t-2.5 -34.5q19 2 41.5 2.5t40.5 1.5v-55h-254v44q33 2 47 14t18 36.5t4 60.5v498l-84 -1q-61 0 -89 -41t-28 -127h-47l6 216h590l6 -216h-47zM313 775l-188 144l25 38l171 -88l175 90l22 -36
l-198 -148h-7z" />
    <glyph glyph-name="uni0162" unicode="&#x162;" horiz-adv-x="643" 
d="M575 484q-1 57 -13 95t-39.5 57t-75.5 18h-72l-1 -520q0 -27 -0.5 -48.5t-2.5 -34.5q19 2 41.5 2.5t40.5 1.5v-55h-254v44q33 2 47 14t18 36.5t4 60.5v498l-84 -1q-61 0 -89 -41t-28 -127h-47l6 216h590l6 -216h-47zM236 -247l-7 39q21 4 42 10.5t39 15t28.5 20.5
t10.5 27q0 19 -13.5 24.5t-30.5 2t-30 -13.5l-35 16l30 115h62l-27 -81q13 7 32.5 11.5t35.5 4.5q31 0 50 -17.5t19 -49.5t-21.5 -54t-55 -36t-68 -22t-61.5 -12z" />
    <glyph glyph-name="uni021A" unicode="&#x21a;" horiz-adv-x="643" 
d="M575 484q-1 57 -13 95t-39.5 57t-75.5 18h-72l-1 -520q0 -27 -0.5 -48.5t-2.5 -34.5q19 2 41.5 2.5t40.5 1.5v-55h-254v44q33 2 47 14t18 36.5t4 60.5v498l-84 -1q-61 0 -89 -41t-28 -127h-47l6 216h590l6 -216h-47zM286 -267l-33 24q23 40 31 70.5t6 58t-11 56.5l76 19
q18 -32 18 -66q0 -40 -23.5 -81.5t-63.5 -80.5z" />
    <glyph glyph-name="U" unicode="U" horiz-adv-x="755" 
d="M274 656q-29 0 -44 -11t-20 -29.5t-5 -41.5v-259q0 -59 9.5 -107.5t31 -84t59 -55.5t91.5 -21q67 0 110 30t64.5 86t22.5 133l2 275q0 22 1 42.5t2 35.5q-17 -1 -37 -2t-36 -2v55h202v-44q-33 -1 -47.5 -13.5t-18.5 -36t-5 -61.5l-1 -238q0 -72 -16.5 -131.5t-50 -102.5
t-85 -66t-121.5 -23q-81 0 -136 22t-87.5 65.5t-46.5 107t-14 146.5v216q0 27 1.5 59t2.5 49q-17 -1 -37 -1.5t-36 -1.5v54h245v-44z" />
    <glyph glyph-name="Uacute" unicode="&#xda;" horiz-adv-x="755" 
d="M274 656q-29 0 -44 -11t-20 -29.5t-5 -41.5v-259q0 -59 9.5 -107.5t31 -84t59 -55.5t91.5 -21q67 0 110 30t64.5 86t22.5 133l2 275q0 22 1 42.5t2 35.5q-17 -1 -37 -2t-36 -2v55h202v-44q-33 -1 -47.5 -13.5t-18.5 -36t-5 -61.5l-1 -238q0 -72 -16.5 -131.5t-50 -102.5
t-85 -66t-121.5 -23q-81 0 -136 22t-87.5 65.5t-46.5 107t-14 146.5v216q0 27 1.5 59t2.5 49q-17 -1 -37 -1.5t-36 -1.5v54h245v-44zM350 757l-26 35l121 120q18 16 33.5 18.5t27 -2.5t16.5 -12q6 -9 7 -22t-6.5 -26.5t-28.5 -26.5z" />
    <glyph glyph-name="Ubreve" unicode="&#x16c;" horiz-adv-x="755" 
d="M274 656q-29 0 -44 -11t-20 -29.5t-5 -41.5v-259q0 -59 9.5 -107.5t31 -84t59 -55.5t91.5 -21q67 0 110 30t64.5 86t22.5 133l2 275q0 22 1 42.5t2 35.5q-17 -1 -37 -2t-36 -2v55h202v-44q-33 -1 -47.5 -13.5t-18.5 -36t-5 -61.5l-1 -238q0 -72 -16.5 -131.5t-50 -102.5
t-85 -66t-121.5 -23q-81 0 -136 22t-87.5 65.5t-46.5 107t-14 146.5v216q0 27 1.5 59t2.5 49q-17 -1 -37 -1.5t-36 -1.5v54h245v-44zM387 800q-30 0 -60 12t-54.5 36t-39.5 61l31 15q18 -21 50 -37.5t73 -16.5t73 16.5t50 37.5l32 -15q-15 -37 -40 -61t-54 -36t-61 -12z" />
    <glyph glyph-name="uni01D3" unicode="&#x1d3;" horiz-adv-x="755" 
d="M274 656q-29 0 -44 -11t-20 -29.5t-5 -41.5v-259q0 -59 9.5 -107.5t31 -84t59 -55.5t91.5 -21q67 0 110 30t64.5 86t22.5 133l2 275q0 22 1 42.5t2 35.5q-17 -1 -37 -2t-36 -2v55h202v-44q-33 -1 -47.5 -13.5t-18.5 -36t-5 -61.5l-1 -238q0 -72 -16.5 -131.5t-50 -102.5
t-85 -66t-121.5 -23q-81 0 -136 22t-87.5 65.5t-46.5 107t-14 146.5v216q0 27 1.5 59t2.5 49q-17 -1 -37 -1.5t-36 -1.5v54h245v-44zM379 775l-188 144l25 38l171 -88l175 90l22 -36l-198 -148h-7z" />
    <glyph glyph-name="Ucircumflex" unicode="&#xdb;" horiz-adv-x="755" 
d="M274 656q-29 0 -44 -11t-20 -29.5t-5 -41.5v-259q0 -59 9.5 -107.5t31 -84t59 -55.5t91.5 -21q67 0 110 30t64.5 86t22.5 133l2 275q0 22 1 42.5t2 35.5q-17 -1 -37 -2t-36 -2v55h202v-44q-33 -1 -47.5 -13.5t-18.5 -36t-5 -61.5l-1 -238q0 -72 -16.5 -131.5t-50 -102.5
t-85 -66t-121.5 -23q-81 0 -136 22t-87.5 65.5t-46.5 107t-14 146.5v216q0 27 1.5 59t2.5 49q-17 -1 -37 -1.5t-36 -1.5v54h245v-44zM521 765l-133 85l-132 -85l-26 35l159 144h7l151 -144z" />
    <glyph glyph-name="Udieresis" unicode="&#xdc;" horiz-adv-x="755" 
d="M274 656q-29 0 -44 -11t-20 -29.5t-5 -41.5v-259q0 -59 9.5 -107.5t31 -84t59 -55.5t91.5 -21q67 0 110 30t64.5 86t22.5 133l2 275q0 22 1 42.5t2 35.5q-17 -1 -37 -2t-36 -2v55h202v-44q-33 -1 -47.5 -13.5t-18.5 -36t-5 -61.5l-1 -238q0 -72 -16.5 -131.5t-50 -102.5
t-85 -66t-121.5 -23q-81 0 -136 22t-87.5 65.5t-46.5 107t-14 146.5v216q0 27 1.5 59t2.5 49q-17 -1 -37 -1.5t-36 -1.5v54h245v-44zM298 783q-24 0 -41.5 19.5t-17.5 47.5q0 29 18 48.5t42 19.5t41 -19.5t17 -48.5q0 -28 -18 -47.5t-41 -19.5zM476 783q-24 0 -41 19.5
t-17 47.5q0 29 17.5 48.5t41.5 19.5q25 0 41 -19.5t16 -48.5q0 -28 -17.5 -47.5t-40.5 -19.5z" />
    <glyph glyph-name="uni1EE4" unicode="&#x1ee4;" horiz-adv-x="755" 
d="M274 656q-29 0 -44 -11t-20 -29.5t-5 -41.5v-259q0 -59 9.5 -107.5t31 -84t59 -55.5t91.5 -21q67 0 110 30t64.5 86t22.5 133l2 275q0 22 1 42.5t2 35.5q-17 -1 -37 -2t-36 -2v55h202v-44q-33 -1 -47.5 -13.5t-18.5 -36t-5 -61.5l-1 -238q0 -72 -16.5 -131.5t-50 -102.5
t-85 -66t-121.5 -23q-81 0 -136 22t-87.5 65.5t-46.5 107t-14 146.5v216q0 27 1.5 59t2.5 49q-17 -1 -37 -1.5t-36 -1.5v54h245v-44zM378 -186q-22 0 -37.5 16.5t-15.5 39.5q0 24 16 40.5t37 16.5q22 0 37 -16.5t15 -40.5q0 -23 -15.5 -39.5t-36.5 -16.5z" />
    <glyph glyph-name="Ugrave" unicode="&#xd9;" horiz-adv-x="755" 
d="M274 656q-29 0 -44 -11t-20 -29.5t-5 -41.5v-259q0 -59 9.5 -107.5t31 -84t59 -55.5t91.5 -21q67 0 110 30t64.5 86t22.5 133l2 275q0 22 1 42.5t2 35.5q-17 -1 -37 -2t-36 -2v55h202v-44q-33 -1 -47.5 -13.5t-18.5 -36t-5 -61.5l-1 -238q0 -72 -16.5 -131.5t-50 -102.5
t-85 -66t-121.5 -23q-81 0 -136 22t-87.5 65.5t-46.5 107t-14 146.5v216q0 27 1.5 59t2.5 49q-17 -1 -37 -1.5t-36 -1.5v54h245v-44zM418 757l-144 84q-19 13 -27 26.5t-7 26.5t7 22q6 7 17 12t27 2.5t33 -18.5l121 -120z" />
    <glyph glyph-name="uni1EE6" unicode="&#x1ee6;" horiz-adv-x="755" 
d="M274 656q-29 0 -44 -11t-20 -29.5t-5 -41.5v-259q0 -59 9.5 -107.5t31 -84t59 -55.5t91.5 -21q67 0 110 30t64.5 86t22.5 133l2 275q0 22 1 42.5t2 35.5q-17 -1 -37 -2t-36 -2v55h202v-44q-33 -1 -47.5 -13.5t-18.5 -36t-5 -61.5l-1 -238q0 -72 -16.5 -131.5t-50 -102.5
t-85 -66t-121.5 -23q-81 0 -136 22t-87.5 65.5t-46.5 107t-14 146.5v216q0 27 1.5 59t2.5 49q-17 -1 -37 -1.5t-36 -1.5v54h245v-44zM370 764q0 19 12.5 30.5t25.5 23.5q9 8 14 18.5t5 21.5q0 21 -14.5 35t-37.5 14q-22 0 -35 -9.5t-15 -19.5q6 -2 10 -7.5t4 -12.5
q0 -11 -9.5 -19t-22.5 -8q-16 0 -28 11t-12 31q0 19 12.5 37t36.5 29.5t58 11.5q55 0 84.5 -25.5t29.5 -59.5q0 -26 -12 -40.5t-29 -27.5q-12 -9 -20.5 -17.5t-8.5 -16.5h-48z" />
    <glyph glyph-name="Uhorn" unicode="&#x1af;" horiz-adv-x="755" 
d="M274 656q-29 0 -44 -11t-20 -29.5t-5 -41.5v-259q0 -59 9.5 -107.5t31 -84t59 -55.5t91.5 -21q67 0 110 30t64.5 86t22.5 133l2 275q0 22 1 42.5t2 35.5q-17 -1 -37 -2t-36 -2v55h202v-44q-33 -1 -47.5 -13.5t-18.5 -36t-5 -61.5l-1 -238q0 -72 -16.5 -131.5t-50 -102.5
t-85 -66t-121.5 -23q-81 0 -136 22t-87.5 65.5t-46.5 107t-14 146.5v216q0 27 1.5 59t2.5 49q-17 -1 -37 -1.5t-36 -1.5v54h245v-44zM626 641v56q38 0 59.5 26t21.5 54h87q0 -37 -21 -68t-58.5 -49.5t-88.5 -18.5z" />
    <glyph glyph-name="uni1EE8" unicode="&#x1ee8;" horiz-adv-x="755" 
d="M274 656q-29 0 -44 -11t-20 -29.5t-5 -41.5v-259q0 -59 9.5 -107.5t31 -84t59 -55.5t91.5 -21q67 0 110 30t64.5 86t22.5 133l2 275q0 22 1 42.5t2 35.5q-17 -1 -37 -2t-36 -2v55h202v-44q-33 -1 -47.5 -13.5t-18.5 -36t-5 -61.5l-1 -238q0 -72 -16.5 -131.5t-50 -102.5
t-85 -66t-121.5 -23q-81 0 -136 22t-87.5 65.5t-46.5 107t-14 146.5v216q0 27 1.5 59t2.5 49q-17 -1 -37 -1.5t-36 -1.5v54h245v-44zM626 641v56q38 0 59.5 26t21.5 54h87q0 -37 -21 -68t-58.5 -49.5t-88.5 -18.5zM335 775l-34 29l83 137q14 20 28.5 25.5t27 3t19.5 -8.5
q8 -6 12 -19t-0.5 -28.5t-20.5 -32.5z" />
    <glyph glyph-name="uni1EF0" unicode="&#x1ef0;" horiz-adv-x="755" 
d="M274 656q-29 0 -44 -11t-20 -29.5t-5 -41.5v-259q0 -59 9.5 -107.5t31 -84t59 -55.5t91.5 -21q67 0 110 30t64.5 86t22.5 133l2 275q0 22 1 42.5t2 35.5q-17 -1 -37 -2t-36 -2v55h202v-44q-33 -1 -47.5 -13.5t-18.5 -36t-5 -61.5l-1 -238q0 -72 -16.5 -131.5t-50 -102.5
t-85 -66t-121.5 -23q-81 0 -136 22t-87.5 65.5t-46.5 107t-14 146.5v216q0 27 1.5 59t2.5 49q-17 -1 -37 -1.5t-36 -1.5v54h245v-44zM626 641v56q38 0 59.5 26t21.5 54h87q0 -37 -21 -68t-58.5 -49.5t-88.5 -18.5zM378 -186q-22 0 -37.5 16.5t-15.5 39.5q0 24 16 40.5
t37 16.5q22 0 37 -16.5t15 -40.5q0 -23 -15.5 -39.5t-36.5 -16.5z" />
    <glyph glyph-name="uni1EEA" unicode="&#x1eea;" horiz-adv-x="755" 
d="M274 656q-29 0 -44 -11t-20 -29.5t-5 -41.5v-259q0 -59 9.5 -107.5t31 -84t59 -55.5t91.5 -21q67 0 110 30t64.5 86t22.5 133l2 275q0 22 1 42.5t2 35.5q-17 -1 -37 -2t-36 -2v55h202v-44q-33 -1 -47.5 -13.5t-18.5 -36t-5 -61.5l-1 -238q0 -72 -16.5 -131.5t-50 -102.5
t-85 -66t-121.5 -23q-81 0 -136 22t-87.5 65.5t-46.5 107t-14 146.5v216q0 27 1.5 59t2.5 49q-17 -1 -37 -1.5t-36 -1.5v54h245v-44zM626 641v56q38 0 59.5 26t21.5 54h87q0 -37 -21 -68t-58.5 -49.5t-88.5 -18.5zM439 775l-115 106q-17 16 -21 32t0.5 29t12.5 19
q7 6 19.5 9t27 -2.5t27.5 -26.5l83 -137z" />
    <glyph glyph-name="uni1EEC" unicode="&#x1eec;" horiz-adv-x="755" 
d="M274 656q-29 0 -44 -11t-20 -29.5t-5 -41.5v-259q0 -59 9.5 -107.5t31 -84t59 -55.5t91.5 -21q67 0 110 30t64.5 86t22.5 133l2 275q0 22 1 42.5t2 35.5q-17 -1 -37 -2t-36 -2v55h202v-44q-33 -1 -47.5 -13.5t-18.5 -36t-5 -61.5l-1 -238q0 -72 -16.5 -131.5t-50 -102.5
t-85 -66t-121.5 -23q-81 0 -136 22t-87.5 65.5t-46.5 107t-14 146.5v216q0 27 1.5 59t2.5 49q-17 -1 -37 -1.5t-36 -1.5v54h245v-44zM626 641v56q38 0 59.5 26t21.5 54h87q0 -37 -21 -68t-58.5 -49.5t-88.5 -18.5zM370 764q0 19 12.5 30.5t25.5 23.5q9 8 14 18.5t5 21.5
q0 21 -14.5 35t-37.5 14q-22 0 -35 -9.5t-15 -19.5q6 -2 10 -7.5t4 -12.5q0 -11 -9.5 -19t-22.5 -8q-16 0 -28 11t-12 31q0 19 12.5 37t36.5 29.5t58 11.5q55 0 84.5 -25.5t29.5 -59.5q0 -26 -12 -40.5t-29 -27.5q-12 -9 -20.5 -17.5t-8.5 -16.5h-48z" />
    <glyph glyph-name="uni1EEE" unicode="&#x1eee;" horiz-adv-x="755" 
d="M274 656q-29 0 -44 -11t-20 -29.5t-5 -41.5v-259q0 -59 9.5 -107.5t31 -84t59 -55.5t91.5 -21q67 0 110 30t64.5 86t22.5 133l2 275q0 22 1 42.5t2 35.5q-17 -1 -37 -2t-36 -2v55h202v-44q-33 -1 -47.5 -13.5t-18.5 -36t-5 -61.5l-1 -238q0 -72 -16.5 -131.5t-50 -102.5
t-85 -66t-121.5 -23q-81 0 -136 22t-87.5 65.5t-46.5 107t-14 146.5v216q0 27 1.5 59t2.5 49q-17 -1 -37 -1.5t-36 -1.5v54h245v-44zM626 641v56q38 0 59.5 26t21.5 54h87q0 -37 -21 -68t-58.5 -49.5t-88.5 -18.5zM559 913q-18 -54 -49 -78.5t-59 -24.5q-29 0 -50.5 12.5
t-39.5 24.5t-37 12q-16 0 -35.5 -9t-34.5 -32l-38 22q14 39 45.5 65t61.5 27q31 0 51 -12t37.5 -24t39.5 -12q21 0 39 13t31 35z" />
    <glyph glyph-name="Uhungarumlaut" unicode="&#x170;" horiz-adv-x="755" 
d="M274 656q-29 0 -44 -11t-20 -29.5t-5 -41.5v-259q0 -59 9.5 -107.5t31 -84t59 -55.5t91.5 -21q67 0 110 30t64.5 86t22.5 133l2 275q0 22 1 42.5t2 35.5q-17 -1 -37 -2t-36 -2v55h202v-44q-33 -1 -47.5 -13.5t-18.5 -36t-5 -61.5l-1 -238q0 -72 -16.5 -131.5t-50 -102.5
t-85 -66t-121.5 -23q-81 0 -136 22t-87.5 65.5t-46.5 107t-14 146.5v216q0 27 1.5 59t2.5 49q-17 -1 -37 -1.5t-36 -1.5v54h245v-44zM449 763l-20 35l111 102q19 17 41 18t33 -19q8 -13 5.5 -26t-11 -24t-21.5 -17zM328 764l-33 26l69 113q15 22 35.5 30t37.5 -7
q10 -9 12 -21.5t-3 -25.5t-18 -24z" />
    <glyph glyph-name="Umacron" unicode="&#x16a;" horiz-adv-x="755" 
d="M274 656q-29 0 -44 -11t-20 -29.5t-5 -41.5v-259q0 -59 9.5 -107.5t31 -84t59 -55.5t91.5 -21q67 0 110 30t64.5 86t22.5 133l2 275q0 22 1 42.5t2 35.5q-17 -1 -37 -2t-36 -2v55h202v-44q-33 -1 -47.5 -13.5t-18.5 -36t-5 -61.5l-1 -238q0 -72 -16.5 -131.5t-50 -102.5
t-85 -66t-121.5 -23q-81 0 -136 22t-87.5 65.5t-46.5 107t-14 146.5v216q0 27 1.5 59t2.5 49q-17 -1 -37 -1.5t-36 -1.5v54h245v-44zM251 836v72h271v-68z" />
    <glyph glyph-name="Uogonek" unicode="&#x172;" horiz-adv-x="755" 
d="M274 656q-29 0 -44 -11t-20 -29.5t-5 -41.5v-259q0 -59 9.5 -107.5t31 -84t59 -55.5t91.5 -21q67 0 110 30t64.5 86t22.5 133l2 275q0 22 1 42.5t2 35.5q-17 -1 -37 -2t-36 -2v55h202v-44q-33 -1 -47.5 -13.5t-18.5 -36t-5 -61.5l-1 -238q0 -72 -16.5 -131.5t-50 -102.5
t-85 -66t-121.5 -23q-81 0 -136 22t-87.5 65.5t-46.5 107t-14 146.5v216q0 27 1.5 59t2.5 49q-17 -1 -37 -1.5t-36 -1.5v54h245v-44zM388 -256q-48 0 -77 27.5t-29 74.5q0 45 32 82.5t82 65.5t103 44v-33q-34 -12 -64 -32t-48.5 -46.5t-17.5 -57.5q0 -27 16 -43t40 -16
q16 0 32.5 7.5t31.5 20.5l23 -26q-22 -28 -55 -48t-69 -20z" />
    <glyph glyph-name="Uring" unicode="&#x16e;" horiz-adv-x="755" 
d="M274 656q-29 0 -44 -11t-20 -29.5t-5 -41.5v-259q0 -59 9.5 -107.5t31 -84t59 -55.5t91.5 -21q67 0 110 30t64.5 86t22.5 133l2 275q0 22 1 42.5t2 35.5q-17 -1 -37 -2t-36 -2v55h202v-44q-33 -1 -47.5 -13.5t-18.5 -36t-5 -61.5l-1 -238q0 -72 -16.5 -131.5t-50 -102.5
t-85 -66t-121.5 -23q-81 0 -136 22t-87.5 65.5t-46.5 107t-14 146.5v216q0 27 1.5 59t2.5 49q-17 -1 -37 -1.5t-36 -1.5v54h245v-44zM388 768q-25 0 -49 10.5t-40 32.5t-17 54t14 56t39.5 37.5t50.5 13.5q25 0 49 -10t39.5 -31.5t16.5 -54.5t-14 -57.5t-39.5 -37.5
t-49.5 -13zM391 809q17 1 28 15.5t11 39.5q0 33 -12 50.5t-32 17.5q-17 -1 -29 -16t-12 -40q0 -30 12.5 -49t33.5 -18z" />
    <glyph glyph-name="Utilde" unicode="&#x168;" horiz-adv-x="755" 
d="M274 656q-29 0 -44 -11t-20 -29.5t-5 -41.5v-259q0 -59 9.5 -107.5t31 -84t59 -55.5t91.5 -21q67 0 110 30t64.5 86t22.5 133l2 275q0 22 1 42.5t2 35.5q-17 -1 -37 -2t-36 -2v55h202v-44q-33 -1 -47.5 -13.5t-18.5 -36t-5 -61.5l-1 -238q0 -72 -16.5 -131.5t-50 -102.5
t-85 -66t-121.5 -23q-81 0 -136 22t-87.5 65.5t-46.5 107t-14 146.5v216q0 27 1.5 59t2.5 49q-17 -1 -37 -1.5t-36 -1.5v54h245v-44zM559 913q-18 -54 -49 -78.5t-59 -24.5q-29 0 -50.5 12.5t-39.5 24.5t-37 12q-16 0 -35.5 -9t-34.5 -32l-38 22q14 39 45.5 65t61.5 27
q31 0 51 -12t37.5 -24t39.5 -12q21 0 39 13t31 35z" />
    <glyph glyph-name="V" unicode="V" horiz-adv-x="671" 
d="M321 -9l-228 534q-18 42 -27 72t-11 50q-14 -1 -28 -1t-27 -1v55h253l-1 -45q-45 -1 -58.5 -25t6.5 -72q23 -58 45.5 -114t48.5 -117q21 -51 40 -96t33 -80h1q11 33 23 66.5t27 74.5q24 68 42 118t32 89t25 70q8 23 16.5 44.5t16.5 35.5q-18 -1 -39 -2t-38 -2v55h210v-44
q-40 -2 -64 -24t-44 -77q-7 -18 -14.5 -38.5t-18 -48t-24.5 -66.5t-34.5 -95.5t-49 -133.5t-67.5 -182h-46z" />
    <glyph glyph-name="W" unicode="W" horiz-adv-x="1002" 
d="M280 -9l-178 535q-15 45 -23.5 73t-11.5 48q-16 -1 -30 -1t-28 -1v55h260v-44q-51 -2 -64.5 -22t1.5 -76q17 -63 35 -117t36 -114q12 -41 24.5 -76.5t25.5 -82.5h1q5 16 11.5 38t13.5 45.5t13 43t9 29.5q24 76 47.5 149t42.5 132t29 96h52q10 -37 26.5 -86.5t33.5 -102
t33 -101t27 -84.5q13 -41 26.5 -82.5t24.5 -85.5h2q9 30 19.5 63.5t20.5 68.5q20 58 33.5 100t22.5 73t16.5 56t15.5 49q6 19 14 40.5t20 38.5q-19 -1 -40.5 -1.5t-38.5 -1.5v55h210v-44q-30 -3 -49.5 -14t-34.5 -38.5t-34 -81.5q-44 -135 -86.5 -267t-87.5 -264h-50
l-140 409q-11 30 -19.5 59.5t-16.5 57.5q-7 -28 -15 -55.5t-17 -55.5l-133 -415h-49z" />
    <glyph glyph-name="Wacute" unicode="&#x1e82;" horiz-adv-x="1002" 
d="M280 -9l-178 535q-15 45 -23.5 73t-11.5 48q-16 -1 -30 -1t-28 -1v55h260v-44q-51 -2 -64.5 -22t1.5 -76q17 -63 35 -117t36 -114q12 -41 24.5 -76.5t25.5 -82.5h1q5 16 11.5 38t13.5 45.5t13 43t9 29.5q24 76 47.5 149t42.5 132t29 96h52q10 -37 26.5 -86.5t33.5 -102
t33 -101t27 -84.5q13 -41 26.5 -82.5t24.5 -85.5h2q9 30 19.5 63.5t20.5 68.5q20 58 33.5 100t22.5 73t16.5 56t15.5 49q6 19 14 40.5t20 38.5q-19 -1 -40.5 -1.5t-38.5 -1.5v55h210v-44q-30 -3 -49.5 -14t-34.5 -38.5t-34 -81.5q-44 -135 -86.5 -267t-87.5 -264h-50
l-140 409q-11 30 -19.5 59.5t-16.5 57.5q-7 -28 -15 -55.5t-17 -55.5l-133 -415h-49zM482 757l-27 35l121 120q18 16 33.5 18.5t27 -2.5t16.5 -12q6 -9 7 -22t-6.5 -26.5t-27.5 -26.5z" />
    <glyph glyph-name="Wcircumflex" unicode="&#x174;" horiz-adv-x="1002" 
d="M280 -9l-178 535q-15 45 -23.5 73t-11.5 48q-16 -1 -30 -1t-28 -1v55h260v-44q-51 -2 -64.5 -22t1.5 -76q17 -63 35 -117t36 -114q12 -41 24.5 -76.5t25.5 -82.5h1q5 16 11.5 38t13.5 45.5t13 43t9 29.5q24 76 47.5 149t42.5 132t29 96h52q10 -37 26.5 -86.5t33.5 -102
t33 -101t27 -84.5q13 -41 26.5 -82.5t24.5 -85.5h2q9 30 19.5 63.5t20.5 68.5q20 58 33.5 100t22.5 73t16.5 56t15.5 49q6 19 14 40.5t20 38.5q-19 -1 -40.5 -1.5t-38.5 -1.5v55h210v-44q-30 -3 -49.5 -14t-34.5 -38.5t-34 -81.5q-44 -135 -86.5 -267t-87.5 -264h-50
l-140 409q-11 30 -19.5 59.5t-16.5 57.5q-7 -28 -15 -55.5t-17 -55.5l-133 -415h-49zM652 765l-133 85l-132 -85l-26 35l159 144h7l151 -144z" />
    <glyph glyph-name="Wdieresis" unicode="&#x1e84;" horiz-adv-x="1002" 
d="M280 -9l-178 535q-15 45 -23.5 73t-11.5 48q-16 -1 -30 -1t-28 -1v55h260v-44q-51 -2 -64.5 -22t1.5 -76q17 -63 35 -117t36 -114q12 -41 24.5 -76.5t25.5 -82.5h1q5 16 11.5 38t13.5 45.5t13 43t9 29.5q24 76 47.5 149t42.5 132t29 96h52q10 -37 26.5 -86.5t33.5 -102
t33 -101t27 -84.5q13 -41 26.5 -82.5t24.5 -85.5h2q9 30 19.5 63.5t20.5 68.5q20 58 33.5 100t22.5 73t16.5 56t15.5 49q6 19 14 40.5t20 38.5q-19 -1 -40.5 -1.5t-38.5 -1.5v55h210v-44q-30 -3 -49.5 -14t-34.5 -38.5t-34 -81.5q-44 -135 -86.5 -267t-87.5 -264h-50
l-140 409q-11 30 -19.5 59.5t-16.5 57.5q-7 -28 -15 -55.5t-17 -55.5l-133 -415h-49zM430 783q-24 0 -41.5 19.5t-17.5 47.5q0 29 18 48.5t42 19.5t41 -19.5t17 -48.5q0 -28 -18 -47.5t-41 -19.5zM608 783q-24 0 -41 19.5t-17 47.5q0 29 17.5 48.5t41.5 19.5q25 0 41 -19.5
t16 -48.5q0 -28 -17.5 -47.5t-40.5 -19.5z" />
    <glyph glyph-name="Wgrave" unicode="&#x1e80;" horiz-adv-x="1002" 
d="M280 -9l-178 535q-15 45 -23.5 73t-11.5 48q-16 -1 -30 -1t-28 -1v55h260v-44q-51 -2 -64.5 -22t1.5 -76q17 -63 35 -117t36 -114q12 -41 24.5 -76.5t25.5 -82.5h1q5 16 11.5 38t13.5 45.5t13 43t9 29.5q24 76 47.5 149t42.5 132t29 96h52q10 -37 26.5 -86.5t33.5 -102
t33 -101t27 -84.5q13 -41 26.5 -82.5t24.5 -85.5h2q9 30 19.5 63.5t20.5 68.5q20 58 33.5 100t22.5 73t16.5 56t15.5 49q6 19 14 40.5t20 38.5q-19 -1 -40.5 -1.5t-38.5 -1.5v55h210v-44q-30 -3 -49.5 -14t-34.5 -38.5t-34 -81.5q-44 -135 -86.5 -267t-87.5 -264h-50
l-140 409q-11 30 -19.5 59.5t-16.5 57.5q-7 -28 -15 -55.5t-17 -55.5l-133 -415h-49zM550 757l-144 84q-19 13 -27 26.5t-7 26.5t7 22q6 7 17 12t27 2.5t33 -18.5l121 -120z" />
    <glyph glyph-name="X" unicode="X" horiz-adv-x="666" 
d="M20 0v44q41 9 69 38t63 78l126 175q-60 82 -99 135.5t-68 90.5q-18 27 -28.5 46.5t-18.5 39.5q-14 -1 -27 -1t-26 -1v55h274v-44l-33 -1q-34 -1 -43 -12.5t-2.5 -28.5t19.5 -36q19 -29 49 -70t63 -87l89 128q25 33 44.5 59.5t34.5 40.5q-19 -1 -41 -2t-40 -2v55h207v-44
q-29 -4 -55 -23t-49.5 -47t-46.5 -60l-108 -151q35 -45 68.5 -88.5t62.5 -81.5t49 -65q17 -22 33.5 -44t30.5 -43q15 1 27 1t25 1v-55h-263v44q38 -1 50 10t7 27.5t-18 33.5q-24 32 -58.5 75.5t-73.5 97.5q-24 -34 -47.5 -68.5t-47.5 -70.5q-19 -27 -36 -51t-37 -47
q19 1 40 2t39 2v-55h-204z" />
    <glyph glyph-name="Y" unicode="Y" horiz-adv-x="645" 
d="M211 0v44q33 2 47 14t18 36.5t4 60.5l1 105l-178 280q-21 35 -33.5 62t-14.5 45q-16 -1 -30 -1t-28 -1v55h270v-44q-40 1 -58.5 -11t-16.5 -34.5t20 -52.5l79 -126q8 -12 18 -28t20.5 -32.5t19.5 -33.5h2q9 19 20.5 40.5t23.5 47.5l74 141q5 10 13 25t17.5 30.5
t19.5 25.5q-18 -1 -39.5 -1.5t-38.5 -1.5v55h209v-44q-44 -4 -73.5 -32.5t-62.5 -89.5q-33 -63 -65 -123.5t-62 -118.5q0 -16 -0.5 -41t-0.5 -50v-43.5v-23.5q0 -27 -0.5 -48.5t-2.5 -34.5q20 2 42.5 2.5t39.5 1.5v-55h-254z" />
    <glyph glyph-name="Yacute" unicode="&#xdd;" horiz-adv-x="645" 
d="M211 0v44q33 2 47 14t18 36.5t4 60.5l1 105l-178 280q-21 35 -33.5 62t-14.5 45q-16 -1 -30 -1t-28 -1v55h270v-44q-40 1 -58.5 -11t-16.5 -34.5t20 -52.5l79 -126q8 -12 18 -28t20.5 -32.5t19.5 -33.5h2q9 19 20.5 40.5t23.5 47.5l74 141q5 10 13 25t17.5 30.5
t19.5 25.5q-18 -1 -39.5 -1.5t-38.5 -1.5v55h209v-44q-44 -4 -73.5 -32.5t-62.5 -89.5q-33 -63 -65 -123.5t-62 -118.5q0 -16 -0.5 -41t-0.5 -50v-43.5v-23.5q0 -27 -0.5 -48.5t-2.5 -34.5q20 2 42.5 2.5t39.5 1.5v-55h-254zM299 757l-27 35l121 120q18 16 34 18.5
t27.5 -2.5t15.5 -12q6 -9 7 -22t-6 -26.5t-28 -26.5z" />
    <glyph glyph-name="Ycircumflex" unicode="&#x176;" horiz-adv-x="645" 
d="M211 0v44q33 2 47 14t18 36.5t4 60.5l1 105l-178 280q-21 35 -33.5 62t-14.5 45q-16 -1 -30 -1t-28 -1v55h270v-44q-40 1 -58.5 -11t-16.5 -34.5t20 -52.5l79 -126q8 -12 18 -28t20.5 -32.5t19.5 -33.5h2q9 19 20.5 40.5t23.5 47.5l74 141q5 10 13 25t17.5 30.5
t19.5 25.5q-18 -1 -39.5 -1.5t-38.5 -1.5v55h209v-44q-44 -4 -73.5 -32.5t-62.5 -89.5q-33 -63 -65 -123.5t-62 -118.5q0 -16 -0.5 -41t-0.5 -50v-43.5v-23.5q0 -27 -0.5 -48.5t-2.5 -34.5q20 2 42.5 2.5t39.5 1.5v-55h-254zM469 765l-133 85l-132 -85l-26 35l159 144h7
l151 -144z" />
    <glyph glyph-name="Ydieresis" unicode="&#x178;" horiz-adv-x="645" 
d="M211 0v44q33 2 47 14t18 36.5t4 60.5l1 105l-178 280q-21 35 -33.5 62t-14.5 45q-16 -1 -30 -1t-28 -1v55h270v-44q-40 1 -58.5 -11t-16.5 -34.5t20 -52.5l79 -126q8 -12 18 -28t20.5 -32.5t19.5 -33.5h2q9 19 20.5 40.5t23.5 47.5l74 141q5 10 13 25t17.5 30.5
t19.5 25.5q-18 -1 -39.5 -1.5t-38.5 -1.5v55h209v-44q-44 -4 -73.5 -32.5t-62.5 -89.5q-33 -63 -65 -123.5t-62 -118.5q0 -16 -0.5 -41t-0.5 -50v-43.5v-23.5q0 -27 -0.5 -48.5t-2.5 -34.5q20 2 42.5 2.5t39.5 1.5v-55h-254zM247 783q-24 0 -41.5 19.5t-17.5 47.5
q0 29 18 48.5t42 19.5t41 -19.5t17 -48.5q0 -28 -18 -47.5t-41 -19.5zM425 783q-24 0 -41 19.5t-17 47.5q0 29 17.5 48.5t41.5 19.5q25 0 41 -19.5t16 -48.5q0 -28 -17.5 -47.5t-40.5 -19.5z" />
    <glyph glyph-name="uni1EF4" unicode="&#x1ef4;" horiz-adv-x="645" 
d="M211 0v44q33 2 47 14t18 36.5t4 60.5l1 105l-178 280q-21 35 -33.5 62t-14.5 45q-16 -1 -30 -1t-28 -1v55h270v-44q-40 1 -58.5 -11t-16.5 -34.5t20 -52.5l79 -126q8 -12 18 -28t20.5 -32.5t19.5 -33.5h2q9 19 20.5 40.5t23.5 47.5l74 141q5 10 13 25t17.5 30.5
t19.5 25.5q-18 -1 -39.5 -1.5t-38.5 -1.5v55h209v-44q-44 -4 -73.5 -32.5t-62.5 -89.5q-33 -63 -65 -123.5t-62 -118.5q0 -16 -0.5 -41t-0.5 -50v-43.5v-23.5q0 -27 -0.5 -48.5t-2.5 -34.5q20 2 42.5 2.5t39.5 1.5v-55h-254zM323 -186q-22 0 -37.5 16.5t-15.5 39.5
q0 24 16 40.5t37 16.5q22 0 37 -16.5t15 -40.5q0 -23 -15.5 -39.5t-36.5 -16.5z" />
    <glyph glyph-name="Ygrave" unicode="&#x1ef2;" horiz-adv-x="645" 
d="M211 0v44q33 2 47 14t18 36.5t4 60.5l1 105l-178 280q-21 35 -33.5 62t-14.5 45q-16 -1 -30 -1t-28 -1v55h270v-44q-40 1 -58.5 -11t-16.5 -34.5t20 -52.5l79 -126q8 -12 18 -28t20.5 -32.5t19.5 -33.5h2q9 19 20.5 40.5t23.5 47.5l74 141q5 10 13 25t17.5 30.5
t19.5 25.5q-18 -1 -39.5 -1.5t-38.5 -1.5v55h209v-44q-44 -4 -73.5 -32.5t-62.5 -89.5q-33 -63 -65 -123.5t-62 -118.5q0 -16 -0.5 -41t-0.5 -50v-43.5v-23.5q0 -27 -0.5 -48.5t-2.5 -34.5q20 2 42.5 2.5t39.5 1.5v-55h-254zM367 757l-144 84q-19 13 -27 26.5t-7 26.5t7 22
q6 7 17 12t27 2.5t33 -18.5l121 -120z" />
    <glyph glyph-name="uni1EF6" unicode="&#x1ef6;" horiz-adv-x="645" 
d="M211 0v44q33 2 47 14t18 36.5t4 60.5l1 105l-178 280q-21 35 -33.5 62t-14.5 45q-16 -1 -30 -1t-28 -1v55h270v-44q-40 1 -58.5 -11t-16.5 -34.5t20 -52.5l79 -126q8 -12 18 -28t20.5 -32.5t19.5 -33.5h2q9 19 20.5 40.5t23.5 47.5l74 141q5 10 13 25t17.5 30.5
t19.5 25.5q-18 -1 -39.5 -1.5t-38.5 -1.5v55h209v-44q-44 -4 -73.5 -32.5t-62.5 -89.5q-33 -63 -65 -123.5t-62 -118.5q0 -16 -0.5 -41t-0.5 -50v-43.5v-23.5q0 -27 -0.5 -48.5t-2.5 -34.5q20 2 42.5 2.5t39.5 1.5v-55h-254zM318 764q0 19 12.5 30.5t25.5 23.5q9 8 14 18.5
t5 21.5q0 21 -14.5 35t-37.5 14q-22 0 -35 -9.5t-15 -19.5q6 -2 10 -7.5t4 -12.5q0 -11 -9.5 -19t-22.5 -8q-16 0 -28 11t-12 31q0 19 12.5 37t36.5 29.5t58 11.5q55 0 84.5 -25.5t29.5 -59.5q0 -26 -12 -40.5t-29 -27.5q-12 -9 -20.5 -17.5t-8.5 -16.5h-48z" />
    <glyph glyph-name="uni1EF8" unicode="&#x1ef8;" horiz-adv-x="645" 
d="M211 0v44q33 2 47 14t18 36.5t4 60.5l1 105l-178 280q-21 35 -33.5 62t-14.5 45q-16 -1 -30 -1t-28 -1v55h270v-44q-40 1 -58.5 -11t-16.5 -34.5t20 -52.5l79 -126q8 -12 18 -28t20.5 -32.5t19.5 -33.5h2q9 19 20.5 40.5t23.5 47.5l74 141q5 10 13 25t17.5 30.5
t19.5 25.5q-18 -1 -39.5 -1.5t-38.5 -1.5v55h209v-44q-44 -4 -73.5 -32.5t-62.5 -89.5q-33 -63 -65 -123.5t-62 -118.5q0 -16 -0.5 -41t-0.5 -50v-43.5v-23.5q0 -27 -0.5 -48.5t-2.5 -34.5q20 2 42.5 2.5t39.5 1.5v-55h-254zM507 913q-18 -54 -49 -78.5t-59 -24.5
q-29 0 -50.5 12.5t-39.5 24.5t-37 12q-16 0 -35.5 -9t-34.5 -32l-38 22q14 39 45.5 65t61.5 27q31 0 51 -12t37.5 -24t39.5 -12q21 0 39 13t31 35z" />
    <glyph glyph-name="Z" unicode="Z" horiz-adv-x="608" 
d="M42 0v56q62 90 145.5 212t190.5 291q16 25 31.5 48t34.5 45l-227 -1q-57 -1 -89 -38.5t-32 -121.5h-44l6 209h500v-48l-335 -509q-22 -32 -39 -54.5t-35 -40.5l223 1q62 1 103.5 38.5t41.5 120.5h45l-6 -208h-514z" />
    <glyph glyph-name="Zacute" unicode="&#x179;" horiz-adv-x="608" 
d="M42 0v56q62 90 145.5 212t190.5 291q16 25 31.5 48t34.5 45l-227 -1q-57 -1 -89 -38.5t-32 -121.5h-44l6 209h500v-48l-335 -509q-22 -32 -39 -54.5t-35 -40.5l223 1q62 1 103.5 38.5t41.5 120.5h45l-6 -208h-514zM271 757l-26 35l121 120q18 16 33.5 18.5t27 -2.5
t16.5 -12q6 -9 7 -22t-6.5 -26.5t-28.5 -26.5z" />
    <glyph glyph-name="Zcaron" unicode="&#x17d;" horiz-adv-x="608" 
d="M42 0v56q62 90 145.5 212t190.5 291q16 25 31.5 48t34.5 45l-227 -1q-57 -1 -89 -38.5t-32 -121.5h-44l6 209h500v-48l-335 -509q-22 -32 -39 -54.5t-35 -40.5l223 1q62 1 103.5 38.5t41.5 120.5h45l-6 -208h-514zM300 775l-188 144l25 38l171 -88l175 90l22 -36
l-198 -148h-7z" />
    <glyph glyph-name="Zdotaccent" unicode="&#x17b;" horiz-adv-x="608" 
d="M42 0v56q62 90 145.5 212t190.5 291q16 25 31.5 48t34.5 45l-227 -1q-57 -1 -89 -38.5t-32 -121.5h-44l6 209h500v-48l-335 -509q-22 -32 -39 -54.5t-35 -40.5l223 1q62 1 103.5 38.5t41.5 120.5h45l-6 -208h-514zM308 802q-26 0 -44 19.5t-18 47.5t19 47.5t43 19.5
q26 0 43.5 -19.5t17.5 -47.5t-17.5 -47.5t-43.5 -19.5z" />
    <glyph glyph-name="a" unicode="a" horiz-adv-x="519" 
d="M338 0q-2 16 -3 28t-3 25q-34 -34 -73 -51.5t-81 -17.5q-72 0 -108.5 35.5t-36.5 88.5q0 46 27 80t71 55.5t96 32t102 10.5v59q0 32 -6 59.5t-24.5 45t-57.5 17.5q-26 1 -52 -9.5t-40 -34.5q8 -8 10.5 -18.5t2.5 -19.5q0 -14 -12 -31.5t-41 -16.5q-24 0 -36.5 16.5
t-12.5 38.5q0 36 26.5 64t72.5 44t103 16q86 0 128.5 -45t42.5 -142v-69t-0.5 -66t-0.5 -70q0 -15 -1 -34t-3 -40q17 1 35 2t34 1v-53h-159zM329 240q-32 -2 -65.5 -9t-60.5 -21t-43.5 -36t-16.5 -53q2 -34 22.5 -50t48.5 -16q35 0 62 13.5t53 37.5q-1 11 -1 22.5v24.5
q0 9 0.5 33.5t0.5 53.5z" />
    <glyph glyph-name="aacute" unicode="&#xe1;" horiz-adv-x="519" 
d="M338 0q-2 16 -3 28t-3 25q-34 -34 -73 -51.5t-81 -17.5q-72 0 -108.5 35.5t-36.5 88.5q0 46 27 80t71 55.5t96 32t102 10.5v59q0 32 -6 59.5t-24.5 45t-57.5 17.5q-26 1 -52 -9.5t-40 -34.5q8 -8 10.5 -18.5t2.5 -19.5q0 -14 -12 -31.5t-41 -16.5q-24 0 -36.5 16.5
t-12.5 38.5q0 36 26.5 64t72.5 44t103 16q86 0 128.5 -45t42.5 -142v-69t-0.5 -66t-0.5 -70q0 -15 -1 -34t-3 -40q17 1 35 2t34 1v-53h-159zM329 240q-32 -2 -65.5 -9t-60.5 -21t-43.5 -36t-16.5 -53q2 -34 22.5 -50t48.5 -16q35 0 62 13.5t53 37.5q-1 11 -1 22.5v24.5
q0 9 0.5 33.5t0.5 53.5zM199 597l-34 29l83 137q14 20 28.5 25.5t27 3t19.5 -8.5q8 -6 12 -19t-0.5 -28.5t-20.5 -32.5z" />
    <glyph glyph-name="abreve" unicode="&#x103;" horiz-adv-x="519" 
d="M338 0q-2 16 -3 28t-3 25q-34 -34 -73 -51.5t-81 -17.5q-72 0 -108.5 35.5t-36.5 88.5q0 46 27 80t71 55.5t96 32t102 10.5v59q0 32 -6 59.5t-24.5 45t-57.5 17.5q-26 1 -52 -9.5t-40 -34.5q8 -8 10.5 -18.5t2.5 -19.5q0 -14 -12 -31.5t-41 -16.5q-24 0 -36.5 16.5
t-12.5 38.5q0 36 26.5 64t72.5 44t103 16q86 0 128.5 -45t42.5 -142v-69t-0.5 -66t-0.5 -70q0 -15 -1 -34t-3 -40q17 1 35 2t34 1v-53h-159zM329 240q-32 -2 -65.5 -9t-60.5 -21t-43.5 -36t-16.5 -53q2 -34 22.5 -50t48.5 -16q35 0 62 13.5t53 37.5q-1 11 -1 22.5v24.5
q0 9 0.5 33.5t0.5 53.5zM250 625q-27 0 -54.5 12.5t-50.5 39t-37 68.5l41 21q15 -28 42.5 -49t61.5 -21q35 0 61.5 22t40.5 50l40 -18q-23 -64 -60 -94.5t-85 -30.5z" />
    <glyph glyph-name="uni1EAF" unicode="&#x1eaf;" horiz-adv-x="519" 
d="M338 0q-2 16 -3 28t-3 25q-34 -34 -73 -51.5t-81 -17.5q-72 0 -108.5 35.5t-36.5 88.5q0 46 27 80t71 55.5t96 32t102 10.5v59q0 32 -6 59.5t-24.5 45t-57.5 17.5q-26 1 -52 -9.5t-40 -34.5q8 -8 10.5 -18.5t2.5 -19.5q0 -14 -12 -31.5t-41 -16.5q-24 0 -36.5 16.5
t-12.5 38.5q0 36 26.5 64t72.5 44t103 16q86 0 128.5 -45t42.5 -142v-69t-0.5 -66t-0.5 -70q0 -15 -1 -34t-3 -40q17 1 35 2t34 1v-53h-159zM329 240q-32 -2 -65.5 -9t-60.5 -21t-43.5 -36t-16.5 -53q2 -34 22.5 -50t48.5 -16q35 0 62 13.5t53 37.5q-1 11 -1 22.5v24.5
q0 9 0.5 33.5t0.5 53.5zM248 562q-27 0 -54.5 12.5t-50.5 39.5t-37 69l41 21q15 -28 42.5 -49t61.5 -21q35 0 62 22t41 50l39 -18q-23 -64 -60 -95t-85 -31zM256 692l-34 29l83 137q13 21 27.5 26.5t27.5 2.5t20 -8q8 -7 12 -20t0 -29t-21 -32z" />
    <glyph glyph-name="uni1EB7" unicode="&#x1eb7;" horiz-adv-x="519" 
d="M338 0q-2 16 -3 28t-3 25q-34 -34 -73 -51.5t-81 -17.5q-72 0 -108.5 35.5t-36.5 88.5q0 46 27 80t71 55.5t96 32t102 10.5v59q0 32 -6 59.5t-24.5 45t-57.5 17.5q-26 1 -52 -9.5t-40 -34.5q8 -8 10.5 -18.5t2.5 -19.5q0 -14 -12 -31.5t-41 -16.5q-24 0 -36.5 16.5
t-12.5 38.5q0 36 26.5 64t72.5 44t103 16q86 0 128.5 -45t42.5 -142v-69t-0.5 -66t-0.5 -70q0 -15 -1 -34t-3 -40q17 1 35 2t34 1v-53h-159zM329 240q-32 -2 -65.5 -9t-60.5 -21t-43.5 -36t-16.5 -53q2 -34 22.5 -50t48.5 -16q35 0 62 13.5t53 37.5q-1 11 -1 22.5v24.5
q0 9 0.5 33.5t0.5 53.5zM260 -186q-22 0 -37.5 16.5t-15.5 39.5q0 24 16 40.5t37 16.5q22 0 37 -16.5t15 -40.5q0 -23 -15.5 -39.5t-36.5 -16.5zM250 580q-27 0 -54.5 12.5t-50.5 39t-37 68.5l41 21q15 -28 42.5 -49t61.5 -21q35 0 61.5 22t40.5 50l40 -18
q-23 -64 -60 -94.5t-85 -30.5z" />
    <glyph glyph-name="uni1EB1" unicode="&#x1eb1;" horiz-adv-x="519" 
d="M338 0q-2 16 -3 28t-3 25q-34 -34 -73 -51.5t-81 -17.5q-72 0 -108.5 35.5t-36.5 88.5q0 46 27 80t71 55.5t96 32t102 10.5v59q0 32 -6 59.5t-24.5 45t-57.5 17.5q-26 1 -52 -9.5t-40 -34.5q8 -8 10.5 -18.5t2.5 -19.5q0 -14 -12 -31.5t-41 -16.5q-24 0 -36.5 16.5
t-12.5 38.5q0 36 26.5 64t72.5 44t103 16q86 0 128.5 -45t42.5 -142v-69t-0.5 -66t-0.5 -70q0 -15 -1 -34t-3 -40q17 1 35 2t34 1v-53h-159zM329 240q-32 -2 -65.5 -9t-60.5 -21t-43.5 -36t-16.5 -53q2 -34 22.5 -50t48.5 -16q35 0 62 13.5t53 37.5q-1 11 -1 22.5v24.5
q0 9 0.5 33.5t0.5 53.5zM251 684l-115 106q-18 16 -22 31.5t0.5 28.5t12.5 20q7 6 19.5 9t27.5 -3t27 -27l84 -136zM249 561q-27 0 -54.5 12.5t-50.5 39t-37 68.5l41 21q15 -28 42.5 -49t61.5 -21q35 0 62 22t41 50l39 -18q-23 -64 -60 -94.5t-85 -30.5z" />
    <glyph glyph-name="uni1EB3" unicode="&#x1eb3;" horiz-adv-x="519" 
d="M338 0q-2 16 -3 28t-3 25q-34 -34 -73 -51.5t-81 -17.5q-72 0 -108.5 35.5t-36.5 88.5q0 46 27 80t71 55.5t96 32t102 10.5v59q0 32 -6 59.5t-24.5 45t-57.5 17.5q-26 1 -52 -9.5t-40 -34.5q8 -8 10.5 -18.5t2.5 -19.5q0 -14 -12 -31.5t-41 -16.5q-24 0 -36.5 16.5
t-12.5 38.5q0 36 26.5 64t72.5 44t103 16q86 0 128.5 -45t42.5 -142v-69t-0.5 -66t-0.5 -70q0 -15 -1 -34t-3 -40q17 1 35 2t34 1v-53h-159zM329 240q-32 -2 -65.5 -9t-60.5 -21t-43.5 -36t-16.5 -53q2 -34 22.5 -50t48.5 -16q35 0 62 13.5t53 37.5q-1 11 -1 22.5v24.5
q0 9 0.5 33.5t0.5 53.5zM251 563q-26 0 -54 12.5t-51 39.5t-37 69l41 21q16 -28 43 -49.5t62 -21.5t61.5 22t40.5 50l40 -17q-24 -65 -60.5 -95.5t-85.5 -30.5zM231 711q0 19 13 31t25 23q9 8 14 19t5 22q0 20 -14.5 34t-37.5 14q-22 0 -35 -9.5t-15 -19.5q6 -2 10 -7t4 -12
q0 -12 -9.5 -20t-22.5 -8q-16 0 -28 11t-12 31q0 19 12.5 37t36.5 29.5t58 11.5q55 0 84.5 -25t29.5 -60q0 -25 -12 -39.5t-29 -28.5q-12 -9 -20.5 -17.5t-8.5 -16.5h-48z" />
    <glyph glyph-name="uni1EB5" unicode="&#x1eb5;" horiz-adv-x="519" 
d="M338 0q-2 16 -3 28t-3 25q-34 -34 -73 -51.5t-81 -17.5q-72 0 -108.5 35.5t-36.5 88.5q0 46 27 80t71 55.5t96 32t102 10.5v59q0 32 -6 59.5t-24.5 45t-57.5 17.5q-26 1 -52 -9.5t-40 -34.5q8 -8 10.5 -18.5t2.5 -19.5q0 -14 -12 -31.5t-41 -16.5q-24 0 -36.5 16.5
t-12.5 38.5q0 36 26.5 64t72.5 44t103 16q86 0 128.5 -45t42.5 -142v-69t-0.5 -66t-0.5 -70q0 -15 -1 -34t-3 -40q17 1 35 2t34 1v-53h-159zM329 240q-32 -2 -65.5 -9t-60.5 -21t-43.5 -36t-16.5 -53q2 -34 22.5 -50t48.5 -16q35 0 62 13.5t53 37.5q-1 11 -1 22.5v24.5
q0 9 0.5 33.5t0.5 53.5zM240 559q-26 0 -54 12.5t-51 39.5t-37 69l41 21q16 -28 43 -49t62 -21t61.5 22t40.5 50l40 -18q-24 -64 -60.5 -95t-85.5 -31zM423 832q-17 -53 -48.5 -77.5t-58.5 -24.5q-30 0 -51.5 12.5t-39.5 24.5t-37 12q-16 0 -35.5 -9t-33.5 -33l-39 23
q14 38 45.5 64.5t61.5 26.5q32 1 52 -11t37 -24.5t40 -12.5q20 0 38.5 13.5t30.5 35.5z" />
    <glyph glyph-name="uni01CE" unicode="&#x1ce;" horiz-adv-x="519" 
d="M338 0q-2 16 -3 28t-3 25q-34 -34 -73 -51.5t-81 -17.5q-72 0 -108.5 35.5t-36.5 88.5q0 46 27 80t71 55.5t96 32t102 10.5v59q0 32 -6 59.5t-24.5 45t-57.5 17.5q-26 1 -52 -9.5t-40 -34.5q8 -8 10.5 -18.5t2.5 -19.5q0 -14 -12 -31.5t-41 -16.5q-24 0 -36.5 16.5
t-12.5 38.5q0 36 26.5 64t72.5 44t103 16q86 0 128.5 -45t42.5 -142v-69t-0.5 -66t-0.5 -70q0 -15 -1 -34t-3 -40q17 1 35 2t34 1v-53h-159zM329 240q-32 -2 -65.5 -9t-60.5 -21t-43.5 -36t-16.5 -53q2 -34 22.5 -50t48.5 -16q35 0 62 13.5t53 37.5q-1 11 -1 22.5v24.5
q0 9 0.5 33.5t0.5 53.5zM245 590l-153 165l32 38l128 -108h1l127 109l30 -35l-160 -169h-5z" />
    <glyph glyph-name="acircumflex" unicode="&#xe2;" horiz-adv-x="519" 
d="M338 0q-2 16 -3 28t-3 25q-34 -34 -73 -51.5t-81 -17.5q-72 0 -108.5 35.5t-36.5 88.5q0 46 27 80t71 55.5t96 32t102 10.5v59q0 32 -6 59.5t-24.5 45t-57.5 17.5q-26 1 -52 -9.5t-40 -34.5q8 -8 10.5 -18.5t2.5 -19.5q0 -14 -12 -31.5t-41 -16.5q-24 0 -36.5 16.5
t-12.5 38.5q0 36 26.5 64t72.5 44t103 16q86 0 128.5 -45t42.5 -142v-69t-0.5 -66t-0.5 -70q0 -15 -1 -34t-3 -40q17 1 35 2t34 1v-53h-159zM329 240q-32 -2 -65.5 -9t-60.5 -21t-43.5 -36t-16.5 -53q2 -34 22.5 -50t48.5 -16q35 0 62 13.5t53 37.5q-1 11 -1 22.5v24.5
q0 9 0.5 33.5t0.5 53.5zM379 598l-127 108h-2l-129 -101l-30 35l163 162h4l153 -166z" />
    <glyph glyph-name="uni1EA5" unicode="&#x1ea5;" horiz-adv-x="519" 
d="M338 0q-2 16 -3 28t-3 25q-34 -34 -73 -51.5t-81 -17.5q-72 0 -108.5 35.5t-36.5 88.5q0 46 27 80t71 55.5t96 32t102 10.5v59q0 32 -6 59.5t-24.5 45t-57.5 17.5q-26 1 -52 -9.5t-40 -34.5q8 -8 10.5 -18.5t2.5 -19.5q0 -14 -12 -31.5t-41 -16.5q-24 0 -36.5 16.5
t-12.5 38.5q0 36 26.5 64t72.5 44t103 16q86 0 128.5 -45t42.5 -142v-69t-0.5 -66t-0.5 -70q0 -15 -1 -34t-3 -40q17 1 35 2t34 1v-53h-159zM329 240q-32 -2 -65.5 -9t-60.5 -21t-43.5 -36t-16.5 -53q2 -34 22.5 -50t48.5 -16q35 0 62 13.5t53 37.5q-1 11 -1 22.5v24.5
q0 9 0.5 33.5t0.5 53.5zM362 576l-109 70l-110 -70l-21 28l131 120h6l125 -119zM411 654l-34 29l83 137q13 21 27.5 26.5t27.5 2.5t20 -8q8 -7 12 -20t0 -29t-21 -32z" />
    <glyph glyph-name="uni1EAD" unicode="&#x1ead;" horiz-adv-x="519" 
d="M338 0q-2 16 -3 28t-3 25q-34 -34 -73 -51.5t-81 -17.5q-72 0 -108.5 35.5t-36.5 88.5q0 46 27 80t71 55.5t96 32t102 10.5v59q0 32 -6 59.5t-24.5 45t-57.5 17.5q-26 1 -52 -9.5t-40 -34.5q8 -8 10.5 -18.5t2.5 -19.5q0 -14 -12 -31.5t-41 -16.5q-24 0 -36.5 16.5
t-12.5 38.5q0 36 26.5 64t72.5 44t103 16q86 0 128.5 -45t42.5 -142v-69t-0.5 -66t-0.5 -70q0 -15 -1 -34t-3 -40q17 1 35 2t34 1v-53h-159zM329 240q-32 -2 -65.5 -9t-60.5 -21t-43.5 -36t-16.5 -53q2 -34 22.5 -50t48.5 -16q35 0 62 13.5t53 37.5q-1 11 -1 22.5v24.5
q0 9 0.5 33.5t0.5 53.5zM260 -186q-22 0 -37.5 16.5t-15.5 39.5q0 24 16 40.5t37 16.5q22 0 37 -16.5t15 -40.5q0 -23 -15.5 -39.5t-36.5 -16.5zM379 561l-127 108h-2l-129 -101l-30 35l163 162h4l153 -166z" />
    <glyph glyph-name="uni1EA7" unicode="&#x1ea7;" horiz-adv-x="519" 
d="M338 0q-2 16 -3 28t-3 25q-34 -34 -73 -51.5t-81 -17.5q-72 0 -108.5 35.5t-36.5 88.5q0 46 27 80t71 55.5t96 32t102 10.5v59q0 32 -6 59.5t-24.5 45t-57.5 17.5q-26 1 -52 -9.5t-40 -34.5q8 -8 10.5 -18.5t2.5 -19.5q0 -14 -12 -31.5t-41 -16.5q-24 0 -36.5 16.5
t-12.5 38.5q0 36 26.5 64t72.5 44t103 16q86 0 128.5 -45t42.5 -142v-69t-0.5 -66t-0.5 -70q0 -15 -1 -34t-3 -40q17 1 35 2t34 1v-53h-159zM329 240q-32 -2 -65.5 -9t-60.5 -21t-43.5 -36t-16.5 -53q2 -34 22.5 -50t48.5 -16q35 0 62 13.5t53 37.5q-1 11 -1 22.5v24.5
q0 9 0.5 33.5t0.5 53.5zM362 576l-109 70l-110 -70l-21 29l131 119h6l125 -119zM385 692l-115 106q-18 16 -22 31.5t0.5 28.5t12.5 20q7 6 19.5 9t27.5 -3t27 -27l84 -136z" />
    <glyph glyph-name="uni1EA9" unicode="&#x1ea9;" horiz-adv-x="519" 
d="M338 0q-2 16 -3 28t-3 25q-34 -34 -73 -51.5t-81 -17.5q-72 0 -108.5 35.5t-36.5 88.5q0 46 27 80t71 55.5t96 32t102 10.5v59q0 32 -6 59.5t-24.5 45t-57.5 17.5q-26 1 -52 -9.5t-40 -34.5q8 -8 10.5 -18.5t2.5 -19.5q0 -14 -12 -31.5t-41 -16.5q-24 0 -36.5 16.5
t-12.5 38.5q0 36 26.5 64t72.5 44t103 16q86 0 128.5 -45t42.5 -142v-69t-0.5 -66t-0.5 -70q0 -15 -1 -34t-3 -40q17 1 35 2t34 1v-53h-159zM329 240q-32 -2 -65.5 -9t-60.5 -21t-43.5 -36t-16.5 -53q2 -34 22.5 -50t48.5 -16q35 0 62 13.5t53 37.5q-1 11 -1 22.5v24.5
q0 9 0.5 33.5t0.5 53.5zM362 576l-110 70l-109 -70l-22 29l132 119h6l124 -119zM374 685q0 19 13 31l26 24q9 8 13.5 18.5t4.5 21.5q0 20 -14 34.5t-38 14.5q-21 0 -34.5 -10t-15.5 -19q7 -2 10.5 -7.5t3.5 -12.5q0 -12 -9 -20t-23 -8q-16 0 -27.5 11t-11.5 32q0 19 12 36.5
t36.5 29.5t57.5 12q55 0 85 -25.5t30 -59.5q0 -26 -12.5 -40.5t-29.5 -27.5q-12 -10 -20.5 -18t-8.5 -17h-48z" />
    <glyph glyph-name="uni1EAB" unicode="&#x1eab;" horiz-adv-x="519" 
d="M338 0q-2 16 -3 28t-3 25q-34 -34 -73 -51.5t-81 -17.5q-72 0 -108.5 35.5t-36.5 88.5q0 46 27 80t71 55.5t96 32t102 10.5v59q0 32 -6 59.5t-24.5 45t-57.5 17.5q-26 1 -52 -9.5t-40 -34.5q8 -8 10.5 -18.5t2.5 -19.5q0 -14 -12 -31.5t-41 -16.5q-24 0 -36.5 16.5
t-12.5 38.5q0 36 26.5 64t72.5 44t103 16q86 0 128.5 -45t42.5 -142v-69t-0.5 -66t-0.5 -70q0 -15 -1 -34t-3 -40q17 1 35 2t34 1v-53h-159zM329 240q-32 -2 -65.5 -9t-60.5 -21t-43.5 -36t-16.5 -53q2 -34 22.5 -50t48.5 -16q35 0 62 13.5t53 37.5q-1 11 -1 22.5v24.5
q0 9 0.5 33.5t0.5 53.5zM362 576l-110 70l-109 -70l-22 29l132 119h5l125 -119zM440 835q-18 -54 -49.5 -78.5t-58.5 -24.5q-30 0 -51.5 12.5t-39 24.5t-37.5 12q-16 0 -35.5 -9t-33.5 -32l-39 22q15 39 46 65t61 27q32 0 52 -12t37 -24t40 -12q20 0 38.5 13t30.5 35z" />
    <glyph glyph-name="adieresis" unicode="&#xe4;" horiz-adv-x="519" 
d="M338 0q-2 16 -3 28t-3 25q-34 -34 -73 -51.5t-81 -17.5q-72 0 -108.5 35.5t-36.5 88.5q0 46 27 80t71 55.5t96 32t102 10.5v59q0 32 -6 59.5t-24.5 45t-57.5 17.5q-26 1 -52 -9.5t-40 -34.5q8 -8 10.5 -18.5t2.5 -19.5q0 -14 -12 -31.5t-41 -16.5q-24 0 -36.5 16.5
t-12.5 38.5q0 36 26.5 64t72.5 44t103 16q86 0 128.5 -45t42.5 -142v-69t-0.5 -66t-0.5 -70q0 -15 -1 -34t-3 -40q17 1 35 2t34 1v-53h-159zM329 240q-32 -2 -65.5 -9t-60.5 -21t-43.5 -36t-16.5 -53q2 -34 22.5 -50t48.5 -16q35 0 62 13.5t53 37.5q-1 11 -1 22.5v24.5
q0 9 0.5 33.5t0.5 53.5zM336 629q-23 0 -39.5 19t-16.5 46t17 46t39 19q24 0 39.5 -19t15.5 -46t-16.5 -46t-38.5 -19zM166 629q-22 0 -38.5 19t-16.5 46t17 46t39 19q24 0 39.5 -19t15.5 -46t-16.5 -46t-39.5 -19z" />
    <glyph glyph-name="uni1EA1" unicode="&#x1ea1;" horiz-adv-x="519" 
d="M338 0q-2 16 -3 28t-3 25q-34 -34 -73 -51.5t-81 -17.5q-72 0 -108.5 35.5t-36.5 88.5q0 46 27 80t71 55.5t96 32t102 10.5v59q0 32 -6 59.5t-24.5 45t-57.5 17.5q-26 1 -52 -9.5t-40 -34.5q8 -8 10.5 -18.5t2.5 -19.5q0 -14 -12 -31.5t-41 -16.5q-24 0 -36.5 16.5
t-12.5 38.5q0 36 26.5 64t72.5 44t103 16q86 0 128.5 -45t42.5 -142v-69t-0.5 -66t-0.5 -70q0 -15 -1 -34t-3 -40q17 1 35 2t34 1v-53h-159zM329 240q-32 -2 -65.5 -9t-60.5 -21t-43.5 -36t-16.5 -53q2 -34 22.5 -50t48.5 -16q35 0 62 13.5t53 37.5q-1 11 -1 22.5v24.5
q0 9 0.5 33.5t0.5 53.5zM260 -186q-22 0 -37.5 16.5t-15.5 39.5q0 24 16 40.5t37 16.5q22 0 37 -16.5t15 -40.5q0 -23 -15.5 -39.5t-36.5 -16.5z" />
    <glyph glyph-name="agrave" unicode="&#xe0;" horiz-adv-x="519" 
d="M338 0q-2 16 -3 28t-3 25q-34 -34 -73 -51.5t-81 -17.5q-72 0 -108.5 35.5t-36.5 88.5q0 46 27 80t71 55.5t96 32t102 10.5v59q0 32 -6 59.5t-24.5 45t-57.5 17.5q-26 1 -52 -9.5t-40 -34.5q8 -8 10.5 -18.5t2.5 -19.5q0 -14 -12 -31.5t-41 -16.5q-24 0 -36.5 16.5
t-12.5 38.5q0 36 26.5 64t72.5 44t103 16q86 0 128.5 -45t42.5 -142v-69t-0.5 -66t-0.5 -70q0 -15 -1 -34t-3 -40q17 1 35 2t34 1v-53h-159zM329 240q-32 -2 -65.5 -9t-60.5 -21t-43.5 -36t-16.5 -53q2 -34 22.5 -50t48.5 -16q35 0 62 13.5t53 37.5q-1 11 -1 22.5v24.5
q0 9 0.5 33.5t0.5 53.5zM303 597l-115 106q-17 16 -21 32t0.5 29t12.5 19q7 6 19.5 9t27 -2.5t27.5 -26.5l83 -137z" />
    <glyph glyph-name="uni1EA3" unicode="&#x1ea3;" horiz-adv-x="519" 
d="M338 0q-2 16 -3 28t-3 25q-34 -34 -73 -51.5t-81 -17.5q-72 0 -108.5 35.5t-36.5 88.5q0 46 27 80t71 55.5t96 32t102 10.5v59q0 32 -6 59.5t-24.5 45t-57.5 17.5q-26 1 -52 -9.5t-40 -34.5q8 -8 10.5 -18.5t2.5 -19.5q0 -14 -12 -31.5t-41 -16.5q-24 0 -36.5 16.5
t-12.5 38.5q0 36 26.5 64t72.5 44t103 16q86 0 128.5 -45t42.5 -142v-69t-0.5 -66t-0.5 -70q0 -15 -1 -34t-3 -40q17 1 35 2t34 1v-53h-159zM329 240q-32 -2 -65.5 -9t-60.5 -21t-43.5 -36t-16.5 -53q2 -34 22.5 -50t48.5 -16q35 0 62 13.5t53 37.5q-1 11 -1 22.5v24.5
q0 9 0.5 33.5t0.5 53.5zM234 586q0 19 12.5 30.5t25.5 23.5q9 8 14 18.5t5 21.5q0 21 -14.5 35t-37.5 14q-22 0 -35 -9.5t-15 -19.5q6 -2 10 -7.5t4 -12.5q0 -11 -9.5 -19t-22.5 -8q-16 0 -28 11t-12 31q0 19 12.5 37t36.5 29.5t58 11.5q55 0 84.5 -25.5t29.5 -59.5
q0 -26 -12 -40.5t-29 -27.5q-12 -9 -20.5 -17.5t-8.5 -16.5h-48z" />
    <glyph glyph-name="amacron" unicode="&#x101;" horiz-adv-x="519" 
d="M338 0q-2 16 -3 28t-3 25q-34 -34 -73 -51.5t-81 -17.5q-72 0 -108.5 35.5t-36.5 88.5q0 46 27 80t71 55.5t96 32t102 10.5v59q0 32 -6 59.5t-24.5 45t-57.5 17.5q-26 1 -52 -9.5t-40 -34.5q8 -8 10.5 -18.5t2.5 -19.5q0 -14 -12 -31.5t-41 -16.5q-24 0 -36.5 16.5
t-12.5 38.5q0 36 26.5 64t72.5 44t103 16q86 0 128.5 -45t42.5 -142v-69t-0.5 -66t-0.5 -70q0 -15 -1 -34t-3 -40q17 1 35 2t34 1v-53h-159zM329 240q-32 -2 -65.5 -9t-60.5 -21t-43.5 -36t-16.5 -53q2 -34 22.5 -50t48.5 -16q35 0 62 13.5t53 37.5q-1 11 -1 22.5v24.5
q0 9 0.5 33.5t0.5 53.5zM115 658v72h271v-68z" />
    <glyph glyph-name="aogonek" unicode="&#x105;" horiz-adv-x="519" 
d="M338 0q-2 16 -3 28t-3 25q-34 -34 -73 -51.5t-81 -17.5q-72 0 -108.5 35.5t-36.5 88.5q0 46 27 80t71 55.5t96 32t102 10.5v59q0 32 -6 59.5t-24.5 45t-57.5 17.5q-26 1 -52 -9.5t-40 -34.5q8 -8 10.5 -18.5t2.5 -19.5q0 -14 -12 -31.5t-41 -16.5q-24 0 -36.5 16.5
t-12.5 38.5q0 36 26.5 64t72.5 44t103 16q86 0 128.5 -45t42.5 -142v-69t-0.5 -66t-0.5 -70q0 -15 -1 -34t-3 -40q17 1 35 2t34 1v-53h-159zM329 240q-32 -2 -65.5 -9t-60.5 -21t-43.5 -36t-16.5 -53q2 -34 22.5 -50t48.5 -16q35 0 62 13.5t53 37.5q-1 11 -1 22.5v24.5
q0 9 0.5 33.5t0.5 53.5zM359 -256q-48 0 -77 27.5t-29 74.5q0 45 32 82.5t82 65.5t103 44v-33q-34 -12 -64 -32t-48.5 -46.5t-17.5 -57.5q0 -27 16 -43t40 -16q16 0 32.5 7.5t31.5 20.5l23 -26q-22 -28 -55 -48t-69 -20z" />
    <glyph glyph-name="aring" unicode="&#xe5;" horiz-adv-x="519" 
d="M338 0q-2 16 -3 28t-3 25q-34 -34 -73 -51.5t-81 -17.5q-72 0 -108.5 35.5t-36.5 88.5q0 46 27 80t71 55.5t96 32t102 10.5v59q0 32 -6 59.5t-24.5 45t-57.5 17.5q-26 1 -52 -9.5t-40 -34.5q8 -8 10.5 -18.5t2.5 -19.5q0 -14 -12 -31.5t-41 -16.5q-24 0 -36.5 16.5
t-12.5 38.5q0 36 26.5 64t72.5 44t103 16q86 0 128.5 -45t42.5 -142v-69t-0.5 -66t-0.5 -70q0 -15 -1 -34t-3 -40q17 1 35 2t34 1v-53h-159zM329 240q-32 -2 -65.5 -9t-60.5 -21t-43.5 -36t-16.5 -53q2 -34 22.5 -50t48.5 -16q35 0 62 13.5t53 37.5q-1 11 -1 22.5v24.5
q0 9 0.5 33.5t0.5 53.5zM253 590q-25 0 -49 10.5t-40 32.5t-17 54t14 56t39.5 37.5t50.5 13.5q25 0 49 -10t39.5 -31.5t16.5 -54.5t-14 -57.5t-39.5 -37.5t-49.5 -13zM256 631q17 1 28 15.5t11 39.5q0 33 -12 50.5t-32 17.5q-17 -1 -29 -16t-12 -40q0 -30 12.5 -49t33.5 -18
z" />
    <glyph glyph-name="atilde" unicode="&#xe3;" horiz-adv-x="519" 
d="M338 0q-2 16 -3 28t-3 25q-34 -34 -73 -51.5t-81 -17.5q-72 0 -108.5 35.5t-36.5 88.5q0 46 27 80t71 55.5t96 32t102 10.5v59q0 32 -6 59.5t-24.5 45t-57.5 17.5q-26 1 -52 -9.5t-40 -34.5q8 -8 10.5 -18.5t2.5 -19.5q0 -14 -12 -31.5t-41 -16.5q-24 0 -36.5 16.5
t-12.5 38.5q0 36 26.5 64t72.5 44t103 16q86 0 128.5 -45t42.5 -142v-69t-0.5 -66t-0.5 -70q0 -15 -1 -34t-3 -40q17 1 35 2t34 1v-53h-159zM329 240q-32 -2 -65.5 -9t-60.5 -21t-43.5 -36t-16.5 -53q2 -34 22.5 -50t48.5 -16q35 0 62 13.5t53 37.5q-1 11 -1 22.5v24.5
q0 9 0.5 33.5t0.5 53.5zM423 735q-18 -54 -49 -78.5t-59 -24.5q-29 0 -50.5 12.5t-39.5 24.5t-37 12q-16 0 -35.5 -9t-34.5 -32l-38 22q14 39 45.5 65t61.5 27q31 0 51 -12t37.5 -24t39.5 -12q21 0 39 13t31 35z" />
    <glyph glyph-name="ae" unicode="&#xe6;" horiz-adv-x="775" 
d="M176 -16q-67 0 -105.5 34.5t-38.5 87.5q0 46 27 80t70.5 55.5t95.5 32t102 10.5v58q0 33 -6.5 61.5t-25 46.5t-57.5 18q-29 -1 -53.5 -13.5t-36.5 -35.5q7 -6 10 -17t3 -18q0 -14 -12 -32t-39 -17q-23 1 -36 16t-13 39q0 32 24 61t67.5 47t100.5 18q50 0 85.5 -21.5
t51.5 -63.5q28 40 67.5 62.5t94.5 22.5q48 0 88.5 -22.5t65 -73t24.5 -134.5l-298 -6q-4 -72 12 -124t48.5 -80t78.5 -28q42 0 76 21.5t62 58.5l32 -27q-30 -45 -63 -70.5t-67 -36t-68 -10.5q-57 0 -101 23.5t-71 67.5q-42 -52 -92.5 -71.5t-102.5 -19.5zM210 55
q37 -2 68.5 13.5t55.5 42.5q-1 16 -3 38t-3 46t-2 42q-32 -1 -64.5 -8.5t-59.5 -21.5t-43.5 -35.5t-15.5 -52.5q2 -34 23 -48.5t44 -15.5zM439 332h187q0 38 -7.5 68.5t-25.5 48t-50 17.5q-35 0 -56.5 -18.5t-32.5 -49t-15 -66.5z" />
    <glyph glyph-name="b" unicode="b" horiz-adv-x="579" 
d="M72 605q0 17 0.5 34.5t2.5 37.5q-18 -1 -36.5 -1.5t-34.5 -1.5v53q45 0 72 4.5t41.5 10.5t21.5 13h37v-296q30 28 67.5 42.5t78.5 14.5q62 0 111.5 -31t78 -88t28.5 -135q0 -83 -34.5 -146t-91.5 -97.5t-128 -34.5q-32 0 -72.5 12t-73.5 49l-26 -45h-44zM176 155
q0 -47 15 -72.5t38.5 -36t49.5 -10.5q47 -1 79 26t48.5 73.5t16.5 105.5q0 60 -15 108t-46 76.5t-78 27.5q-31 0 -59.5 -14t-48.5 -38v-246z" />
    <glyph glyph-name="c" unicode="c" horiz-adv-x="527" 
d="M284 -16q-67 0 -123 30.5t-89.5 87.5t-33.5 138q0 54 19 103.5t53.5 88.5t82 61.5t105.5 22.5q59 0 101 -18t64.5 -47t22.5 -63q0 -24 -14 -42t-40 -18q-29 -1 -41 17.5t-12 34.5q0 9 3 20.5t11 20.5q-8 21 -26 31t-37 13t-32 3q-61 -1 -102.5 -52.5t-41.5 -148.5
q0 -62 18.5 -111t54.5 -78t86 -30q45 0 87 23.5t68 59.5l32 -28q-29 -45 -66.5 -71t-76 -37t-73.5 -11z" />
    <glyph glyph-name="cacute" unicode="&#x107;" horiz-adv-x="527" 
d="M284 -16q-67 0 -123 30.5t-89.5 87.5t-33.5 138q0 54 19 103.5t53.5 88.5t82 61.5t105.5 22.5q59 0 101 -18t64.5 -47t22.5 -63q0 -24 -14 -42t-40 -18q-29 -1 -41 17.5t-12 34.5q0 9 3 20.5t11 20.5q-8 21 -26 31t-37 13t-32 3q-61 -1 -102.5 -52.5t-41.5 -148.5
q0 -62 18.5 -111t54.5 -78t86 -30q45 0 87 23.5t68 59.5l32 -28q-29 -45 -66.5 -71t-76 -37t-73.5 -11zM243 575l-34 29l83 137q14 20 28.5 25.5t27 3t19.5 -8.5q8 -6 12 -19t-0.5 -28.5t-20.5 -32.5z" />
    <glyph glyph-name="ccaron" unicode="&#x10d;" horiz-adv-x="527" 
d="M284 -16q-67 0 -123 30.5t-89.5 87.5t-33.5 138q0 54 19 103.5t53.5 88.5t82 61.5t105.5 22.5q59 0 101 -18t64.5 -47t22.5 -63q0 -24 -14 -42t-40 -18q-29 -1 -41 17.5t-12 34.5q0 9 3 20.5t11 20.5q-8 21 -26 31t-37 13t-32 3q-61 -1 -102.5 -52.5t-41.5 -148.5
q0 -62 18.5 -111t54.5 -78t86 -30q45 0 87 23.5t68 59.5l32 -28q-29 -45 -66.5 -71t-76 -37t-73.5 -11zM289 568l-153 165l32 38l128 -108h1l127 109l30 -35l-160 -169h-5z" />
    <glyph glyph-name="ccedilla" unicode="&#xe7;" horiz-adv-x="527" 
d="M284 -16q-67 0 -123 30.5t-89.5 87.5t-33.5 138q0 54 19 103.5t53.5 88.5t82 61.5t105.5 22.5q59 0 101 -18t64.5 -47t22.5 -63q0 -24 -14 -42t-40 -18q-29 -1 -41 17.5t-12 34.5q0 9 3 20.5t11 20.5q-8 21 -26 31t-37 13t-32 3q-61 -1 -102.5 -52.5t-41.5 -148.5
q0 -62 18.5 -111t54.5 -78t86 -30q45 0 87 23.5t68 59.5l32 -28q-29 -45 -66.5 -71t-76 -37t-73.5 -11zM247 -247l-7 39q21 4 42 10.5t39 15t28.5 20.5t10.5 27q0 19 -13.5 24.5t-30.5 2t-30 -13.5l-35 16l30 115h62l-27 -81q13 7 32.5 11.5t35.5 4.5q31 0 50 -17.5
t19 -49.5t-21.5 -54t-55 -36t-68 -22t-61.5 -12z" />
    <glyph glyph-name="ccircumflex" unicode="&#x109;" horiz-adv-x="527" 
d="M284 -16q-67 0 -123 30.5t-89.5 87.5t-33.5 138q0 54 19 103.5t53.5 88.5t82 61.5t105.5 22.5q59 0 101 -18t64.5 -47t22.5 -63q0 -24 -14 -42t-40 -18q-29 -1 -41 17.5t-12 34.5q0 9 3 20.5t11 20.5q-8 21 -26 31t-37 13t-32 3q-61 -1 -102.5 -52.5t-41.5 -148.5
q0 -62 18.5 -111t54.5 -78t86 -30q45 0 87 23.5t68 59.5l32 -28q-29 -45 -66.5 -71t-76 -37t-73.5 -11zM423 576l-127 108h-2l-129 -101l-30 35l163 162h4l153 -166z" />
    <glyph glyph-name="cdotaccent" unicode="&#x10b;" horiz-adv-x="527" 
d="M284 -16q-67 0 -123 30.5t-89.5 87.5t-33.5 138q0 54 19 103.5t53.5 88.5t82 61.5t105.5 22.5q59 0 101 -18t64.5 -47t22.5 -63q0 -24 -14 -42t-40 -18q-29 -1 -41 17.5t-12 34.5q0 9 3 20.5t11 20.5q-8 21 -26 31t-37 13t-32 3q-61 -1 -102.5 -52.5t-41.5 -148.5
q0 -62 18.5 -111t54.5 -78t86 -30q45 0 87 23.5t68 59.5l32 -28q-29 -45 -66.5 -71t-76 -37t-73.5 -11zM295 602q-26 0 -44 19.5t-18 47.5t19 47.5t43 19.5q26 0 43.5 -19.5t17.5 -47.5t-17.5 -47.5t-43.5 -19.5z" />
    <glyph glyph-name="d" unicode="d" horiz-adv-x="597" 
d="M250 -16q-61 0 -108.5 30.5t-75 87.5t-27.5 134q0 82 32 145t90 99t132 36q31 0 59.5 -7.5t47.5 -17.5v114q0 15 1 33.5t3 38.5q-18 -1 -37 -2t-34 -1v53q45 0 71.5 4.5t41 10.5t21.5 13h37v-631q0 -15 -1 -34t-3 -40l36 2t33 1v-53h-159q-2 14 -3.5 26t-2.5 24
q-30 -32 -69 -49t-85 -17zM291 47q31 0 60.5 17t48.5 43v27v30v272q-19 14 -44.5 21.5t-52.5 7.5q-49 0 -82.5 -28.5t-49.5 -77.5t-15 -112q2 -54 17 -100t44.5 -73t73.5 -27z" />
    <glyph glyph-name="dcaron" unicode="&#x10f;" horiz-adv-x="597" 
d="M597 550l-31 23q23 43 31.5 78t6.5 66t-10 61l76 -14q8 -18 10.5 -31t0.5 -31q-4 -41 -28 -80t-56 -72zM250 -16q-61 0 -108.5 30.5t-75 87.5t-27.5 134q0 82 32 145t90 99t132 36q31 0 59.5 -7.5t47.5 -17.5v114q0 15 1 33.5t3 38.5q-18 -1 -37 -2t-34 -1v53
q45 0 71.5 4.5t41 10.5t21.5 13h37v-631q0 -15 -1 -34t-3 -40l36 2t33 1v-53h-159q-2 14 -3.5 26t-2.5 24q-30 -32 -69 -49t-85 -17zM291 47q31 0 60.5 17t48.5 43v27v30v272q-19 14 -44.5 21.5t-52.5 7.5q-49 0 -82.5 -28.5t-49.5 -77.5t-15 -112q2 -54 17 -100t44.5 -73
t73.5 -27z" />
    <glyph glyph-name="dcroat" unicode="&#x111;" horiz-adv-x="597" 
d="M250 -16q-61 0 -108.5 30.5t-75 85.5t-27.5 127q0 79 32 140.5t90 97t132 35.5q31 0 59.5 -7.5t47.5 -17.5v130q0 15 1 33.5t3 38.5q-18 -1 -37 -2t-34 -1v53q45 0 71.5 4.5t41 10.5t21.5 13h37v-631q0 -15 -1 -34t-3 -40l36 2t33 1v-53h-159q-2 14 -3.5 26t-2.5 24
q-30 -32 -69 -49t-85 -17zM291 47q31 0 60.5 17t48.5 43v30.5v32.5v250q-19 14 -44.5 21.5t-52.5 7.5q-47 0 -80.5 -27t-50.5 -75t-16 -109q2 -55 17 -98.5t44.5 -68t73.5 -24.5zM238 563v56h343v-53z" />
    <glyph glyph-name="eth" unicode="&#xf0;" horiz-adv-x="553" 
d="M260 -16q-62 0 -111.5 28.5t-79 82t-29.5 128.5q-1 52 13.5 100t42 87t69 62t93.5 24q31 1 67.5 -10.5t59.5 -43.5h2q-9 36 -29.5 75t-50 74.5t-66.5 59.5l-60 -75l-44 38l55 65q-21 11 -46 18.5t-52 10.5l7 52q39 -3 71.5 -12t60.5 -21l53 65l38 -35l-43 -54
q68 -41 117 -107t75.5 -149t26.5 -176q1 -78 -25 -143.5t-79 -104.5t-136 -39zM273 39q34 0 62 21.5t45.5 64.5t17.5 107q0 33 -6 69.5t-19.5 68t-36.5 51.5t-58 21q-40 2 -68 -25.5t-43 -73t-15 -99.5q0 -99 35 -152t86 -53z" />
    <glyph glyph-name="e" unicode="e" horiz-adv-x="541" 
d="M283 -16q-70 0 -125.5 32.5t-87.5 92t-32 140.5q0 70 31.5 131t88.5 98.5t132 37.5q42 0 79.5 -13t67 -40.5t46.5 -71t17 -105.5l-344 -6q0 -68 15.5 -121t50.5 -82t91 -29q27 0 57.5 9.5t58 27.5t46.5 43l31 -27q-30 -45 -69 -70.5t-79.5 -36t-74.5 -10.5zM160 332h231
q0 38 -10.5 68.5t-32.5 48.5t-56 18q-53 0 -87 -33.5t-45 -101.5z" />
    <glyph glyph-name="eacute" unicode="&#xe9;" horiz-adv-x="541" 
d="M283 -16q-70 0 -125.5 32.5t-87.5 92t-32 140.5q0 70 31.5 131t88.5 98.5t132 37.5q42 0 79.5 -13t67 -40.5t46.5 -71t17 -105.5l-344 -6q0 -68 15.5 -121t50.5 -82t91 -29q27 0 57.5 9.5t58 27.5t46.5 43l31 -27q-30 -45 -69 -70.5t-79.5 -36t-74.5 -10.5zM160 332h231
q0 38 -10.5 68.5t-32.5 48.5t-56 18q-53 0 -87 -33.5t-45 -101.5zM229 575l-34 29l83 137q14 20 28.5 25.5t27 3t19.5 -8.5q8 -6 12 -19t-0.5 -28.5t-20.5 -32.5z" />
    <glyph glyph-name="ebreve" unicode="&#x115;" horiz-adv-x="541" 
d="M283 -16q-70 0 -125.5 32.5t-87.5 92t-32 140.5q0 70 31.5 131t88.5 98.5t132 37.5q42 0 79.5 -13t67 -40.5t46.5 -71t17 -105.5l-344 -6q0 -68 15.5 -121t50.5 -82t91 -29q27 0 57.5 9.5t58 27.5t46.5 43l31 -27q-30 -45 -69 -70.5t-79.5 -36t-74.5 -10.5zM160 332h231
q0 38 -10.5 68.5t-32.5 48.5t-56 18q-53 0 -87 -33.5t-45 -101.5zM280 603q-27 0 -54.5 12.5t-50.5 39t-37 68.5l41 21q15 -28 42.5 -49t61.5 -21q35 0 61.5 22t40.5 50l40 -18q-23 -64 -60 -94.5t-85 -30.5z" />
    <glyph glyph-name="ecaron" unicode="&#x11b;" horiz-adv-x="541" 
d="M283 -16q-70 0 -125.5 32.5t-87.5 92t-32 140.5q0 70 31.5 131t88.5 98.5t132 37.5q42 0 79.5 -13t67 -40.5t46.5 -71t17 -105.5l-344 -6q0 -68 15.5 -121t50.5 -82t91 -29q27 0 57.5 9.5t58 27.5t46.5 43l31 -27q-30 -45 -69 -70.5t-79.5 -36t-74.5 -10.5zM160 332h231
q0 38 -10.5 68.5t-32.5 48.5t-56 18q-53 0 -87 -33.5t-45 -101.5zM275 568l-153 165l32 38l128 -108h1l127 109l30 -35l-160 -169h-5z" />
    <glyph glyph-name="ecircumflex" unicode="&#xea;" horiz-adv-x="541" 
d="M283 -16q-70 0 -125.5 32.5t-87.5 92t-32 140.5q0 70 31.5 131t88.5 98.5t132 37.5q42 0 79.5 -13t67 -40.5t46.5 -71t17 -105.5l-344 -6q0 -68 15.5 -121t50.5 -82t91 -29q27 0 57.5 9.5t58 27.5t46.5 43l31 -27q-30 -45 -69 -70.5t-79.5 -36t-74.5 -10.5zM160 332h231
q0 38 -10.5 68.5t-32.5 48.5t-56 18q-53 0 -87 -33.5t-45 -101.5zM409 576l-127 108h-2l-129 -101l-30 35l163 162h4l153 -166z" />
    <glyph glyph-name="uni1EBF" unicode="&#x1ebf;" horiz-adv-x="541" 
d="M283 -16q-70 0 -125.5 32.5t-87.5 92t-32 140.5q0 70 31.5 131t88.5 98.5t132 37.5q42 0 79.5 -13t67 -40.5t46.5 -71t17 -105.5l-344 -6q0 -68 15.5 -121t50.5 -82t91 -29q27 0 57.5 9.5t58 27.5t46.5 43l31 -27q-30 -45 -69 -70.5t-79.5 -36t-74.5 -10.5zM160 332h231
q0 38 -10.5 68.5t-32.5 48.5t-56 18q-53 0 -87 -33.5t-45 -101.5zM392 554l-109 70l-110 -70l-21 28l131 120h6l125 -119zM441 632l-34 29l83 137q13 21 27.5 26.5t27.5 2.5t20 -8q8 -7 12 -20t0 -29t-21 -32z" />
    <glyph glyph-name="uni1EC7" unicode="&#x1ec7;" horiz-adv-x="541" 
d="M283 -16q-70 0 -125.5 32.5t-87.5 92t-32 140.5q0 70 31.5 131t88.5 98.5t132 37.5q42 0 79.5 -13t67 -40.5t46.5 -71t17 -105.5l-344 -6q0 -68 15.5 -121t50.5 -82t91 -29q27 0 57.5 9.5t58 27.5t46.5 43l31 -27q-30 -45 -69 -70.5t-79.5 -36t-74.5 -10.5zM160 332h231
q0 38 -10.5 68.5t-32.5 48.5t-56 18q-53 0 -87 -33.5t-45 -101.5zM286 -186q-22 0 -37.5 16.5t-15.5 39.5q0 24 16 40.5t37 16.5q22 0 37 -16.5t15 -40.5q0 -23 -15.5 -39.5t-36.5 -16.5zM409 576l-127 108h-2l-129 -101l-30 35l163 162h4l153 -166z" />
    <glyph glyph-name="uni1EC1" unicode="&#x1ec1;" horiz-adv-x="541" 
d="M283 -16q-70 0 -125.5 32.5t-87.5 92t-32 140.5q0 70 31.5 131t88.5 98.5t132 37.5q42 0 79.5 -13t67 -40.5t46.5 -71t17 -105.5l-344 -6q0 -68 15.5 -121t50.5 -82t91 -29q27 0 57.5 9.5t58 27.5t46.5 43l31 -27q-30 -45 -69 -70.5t-79.5 -36t-74.5 -10.5zM160 332h231
q0 38 -10.5 68.5t-32.5 48.5t-56 18q-53 0 -87 -33.5t-45 -101.5zM392 554l-109 70l-110 -70l-21 29l131 119h6l125 -119zM415 670l-115 106q-18 16 -22 31.5t0.5 28.5t12.5 20q7 6 19.5 9t27.5 -3t27 -27l84 -136z" />
    <glyph glyph-name="uni1EC3" unicode="&#x1ec3;" horiz-adv-x="541" 
d="M283 -16q-70 0 -125.5 32.5t-87.5 92t-32 140.5q0 70 31.5 131t88.5 98.5t132 37.5q42 0 79.5 -13t67 -40.5t46.5 -71t17 -105.5l-344 -6q0 -68 15.5 -121t50.5 -82t91 -29q27 0 57.5 9.5t58 27.5t46.5 43l31 -27q-30 -45 -69 -70.5t-79.5 -36t-74.5 -10.5zM160 332h231
q0 38 -10.5 68.5t-32.5 48.5t-56 18q-53 0 -87 -33.5t-45 -101.5zM392 554l-110 70l-109 -70l-22 29l132 119h6l124 -119zM404 663q0 19 13 31l26 24q9 8 13.5 18.5t4.5 21.5q0 20 -14 34.5t-38 14.5q-21 0 -34.5 -10t-15.5 -19q7 -2 10.5 -7.5t3.5 -12.5q0 -12 -9 -20
t-23 -8q-16 0 -27.5 11t-11.5 32q0 19 12 36.5t36.5 29.5t57.5 12q55 0 85 -25.5t30 -59.5q0 -26 -12.5 -40.5t-29.5 -27.5q-12 -10 -20.5 -18t-8.5 -17h-48z" />
    <glyph glyph-name="uni1EC5" unicode="&#x1ec5;" horiz-adv-x="541" 
d="M283 -16q-70 0 -125.5 32.5t-87.5 92t-32 140.5q0 70 31.5 131t88.5 98.5t132 37.5q42 0 79.5 -13t67 -40.5t46.5 -71t17 -105.5l-344 -6q0 -68 15.5 -121t50.5 -82t91 -29q27 0 57.5 9.5t58 27.5t46.5 43l31 -27q-30 -45 -69 -70.5t-79.5 -36t-74.5 -10.5zM160 332h231
q0 38 -10.5 68.5t-32.5 48.5t-56 18q-53 0 -87 -33.5t-45 -101.5zM392 554l-110 70l-109 -70l-22 29l132 119h5l125 -119zM470 813q-18 -54 -49.5 -78.5t-58.5 -24.5q-30 0 -51.5 12.5t-39 24.5t-37.5 12q-16 0 -35.5 -9t-33.5 -32l-39 22q15 39 46 65t61 27q32 0 52 -12
t37 -24t40 -12q20 0 38.5 13t30.5 35z" />
    <glyph glyph-name="edieresis" unicode="&#xeb;" horiz-adv-x="541" 
d="M283 -16q-70 0 -125.5 32.5t-87.5 92t-32 140.5q0 70 31.5 131t88.5 98.5t132 37.5q42 0 79.5 -13t67 -40.5t46.5 -71t17 -105.5l-344 -6q0 -68 15.5 -121t50.5 -82t91 -29q27 0 57.5 9.5t58 27.5t46.5 43l31 -27q-30 -45 -69 -70.5t-79.5 -36t-74.5 -10.5zM160 332h231
q0 38 -10.5 68.5t-32.5 48.5t-56 18q-53 0 -87 -33.5t-45 -101.5zM366 607q-23 0 -39.5 19t-16.5 46t17 46t39 19q24 0 39.5 -19t15.5 -46t-16.5 -46t-38.5 -19zM196 607q-22 0 -38.5 19t-16.5 46t17 46t39 19q24 0 39.5 -19t15.5 -46t-16.5 -46t-39.5 -19z" />
    <glyph glyph-name="edotaccent" unicode="&#x117;" horiz-adv-x="541" 
d="M283 -16q-70 0 -125.5 32.5t-87.5 92t-32 140.5q0 70 31.5 131t88.5 98.5t132 37.5q42 0 79.5 -13t67 -40.5t46.5 -71t17 -105.5l-344 -6q0 -68 15.5 -121t50.5 -82t91 -29q27 0 57.5 9.5t58 27.5t46.5 43l31 -27q-30 -45 -69 -70.5t-79.5 -36t-74.5 -10.5zM160 332h231
q0 38 -10.5 68.5t-32.5 48.5t-56 18q-53 0 -87 -33.5t-45 -101.5zM282 602q-26 0 -44 19.5t-18 47.5t19 47.5t43 19.5q26 0 43.5 -19.5t17.5 -47.5t-17.5 -47.5t-43.5 -19.5z" />
    <glyph glyph-name="uni1EB9" unicode="&#x1eb9;" horiz-adv-x="541" 
d="M283 -16q-70 0 -125.5 32.5t-87.5 92t-32 140.5q0 70 31.5 131t88.5 98.5t132 37.5q42 0 79.5 -13t67 -40.5t46.5 -71t17 -105.5l-344 -6q0 -68 15.5 -121t50.5 -82t91 -29q27 0 57.5 9.5t58 27.5t46.5 43l31 -27q-30 -45 -69 -70.5t-79.5 -36t-74.5 -10.5zM160 332h231
q0 38 -10.5 68.5t-32.5 48.5t-56 18q-53 0 -87 -33.5t-45 -101.5zM286 -186q-22 0 -37.5 16.5t-15.5 39.5q0 24 16 40.5t37 16.5q22 0 37 -16.5t15 -40.5q0 -23 -15.5 -39.5t-36.5 -16.5z" />
    <glyph glyph-name="egrave" unicode="&#xe8;" horiz-adv-x="541" 
d="M283 -16q-70 0 -125.5 32.5t-87.5 92t-32 140.5q0 70 31.5 131t88.5 98.5t132 37.5q42 0 79.5 -13t67 -40.5t46.5 -71t17 -105.5l-344 -6q0 -68 15.5 -121t50.5 -82t91 -29q27 0 57.5 9.5t58 27.5t46.5 43l31 -27q-30 -45 -69 -70.5t-79.5 -36t-74.5 -10.5zM160 332h231
q0 38 -10.5 68.5t-32.5 48.5t-56 18q-53 0 -87 -33.5t-45 -101.5zM333 575l-115 106q-17 16 -21 32t0.5 29t12.5 19q7 6 19.5 9t27 -2.5t27.5 -26.5l83 -137z" />
    <glyph glyph-name="uni1EBB" unicode="&#x1ebb;" horiz-adv-x="541" 
d="M283 -16q-70 0 -125.5 32.5t-87.5 92t-32 140.5q0 70 31.5 131t88.5 98.5t132 37.5q42 0 79.5 -13t67 -40.5t46.5 -71t17 -105.5l-344 -6q0 -68 15.5 -121t50.5 -82t91 -29q27 0 57.5 9.5t58 27.5t46.5 43l31 -27q-30 -45 -69 -70.5t-79.5 -36t-74.5 -10.5zM160 332h231
q0 38 -10.5 68.5t-32.5 48.5t-56 18q-53 0 -87 -33.5t-45 -101.5zM264 564q0 19 12.5 30.5t25.5 23.5q9 8 14 18.5t5 21.5q0 21 -14.5 35t-37.5 14q-22 0 -35 -9.5t-15 -19.5q6 -2 10 -7.5t4 -12.5q0 -11 -9.5 -19t-22.5 -8q-16 0 -28 11t-12 31q0 19 12.5 37t36.5 29.5
t58 11.5q55 0 84.5 -25.5t29.5 -59.5q0 -26 -12 -40.5t-29 -27.5q-12 -9 -20.5 -17.5t-8.5 -16.5h-48z" />
    <glyph glyph-name="emacron" unicode="&#x113;" horiz-adv-x="541" 
d="M283 -16q-70 0 -125.5 32.5t-87.5 92t-32 140.5q0 70 31.5 131t88.5 98.5t132 37.5q42 0 79.5 -13t67 -40.5t46.5 -71t17 -105.5l-344 -6q0 -68 15.5 -121t50.5 -82t91 -29q27 0 57.5 9.5t58 27.5t46.5 43l31 -27q-30 -45 -69 -70.5t-79.5 -36t-74.5 -10.5zM160 332h231
q0 38 -10.5 68.5t-32.5 48.5t-56 18q-53 0 -87 -33.5t-45 -101.5zM145 636v72h271v-68z" />
    <glyph glyph-name="eogonek" unicode="&#x119;" horiz-adv-x="541" 
d="M283 -16q-70 0 -125.5 32.5t-87.5 92t-32 140.5q0 70 31.5 131t88.5 98.5t132 37.5q42 0 79.5 -13t67 -40.5t46.5 -71t17 -105.5l-344 -6q0 -68 15.5 -121t50.5 -82t91 -29q27 0 57.5 9.5t58 27.5t46.5 43l31 -27q-30 -45 -69 -70.5t-79.5 -36t-74.5 -10.5zM160 332h231
q0 38 -10.5 68.5t-32.5 48.5t-56 18q-53 0 -87 -33.5t-45 -101.5zM280 -256q-48 0 -77 27.5t-29 74.5q0 45 32 82.5t82 65.5t103 44v-33q-34 -12 -64 -32t-48.5 -46.5t-17.5 -57.5q0 -27 16 -43t40 -16q16 0 32.5 7.5t31.5 20.5l23 -26q-22 -28 -55 -48t-69 -20z" />
    <glyph glyph-name="uni1EBD" unicode="&#x1ebd;" horiz-adv-x="541" 
d="M283 -16q-70 0 -125.5 32.5t-87.5 92t-32 140.5q0 70 31.5 131t88.5 98.5t132 37.5q42 0 79.5 -13t67 -40.5t46.5 -71t17 -105.5l-344 -6q0 -68 15.5 -121t50.5 -82t91 -29q27 0 57.5 9.5t58 27.5t46.5 43l31 -27q-30 -45 -69 -70.5t-79.5 -36t-74.5 -10.5zM160 332h231
q0 38 -10.5 68.5t-32.5 48.5t-56 18q-53 0 -87 -33.5t-45 -101.5zM453 713q-18 -54 -49 -78.5t-59 -24.5q-29 0 -50.5 12.5t-39.5 24.5t-37 12q-16 0 -35.5 -9t-34.5 -32l-38 22q14 39 45.5 65t61.5 27q31 0 51 -12t37.5 -24t39.5 -12q21 0 39 13t31 35z" />
    <glyph glyph-name="uni0259" unicode="&#x259;" horiz-adv-x="541" 
d="M250 -16q-41 0 -78.5 13t-67.5 40.5t-47 71t-16 105.5l344 6q0 69 -15.5 121.5t-47 81.5t-81.5 29q-42 0 -85.5 -21.5t-72.5 -58.5l-31 27q30 46 67.5 71t76 35.5t71.5 10.5q67 0 120 -32.5t84 -90t31 -133.5q0 -75 -31.5 -138t-88 -100.5t-132.5 -37.5zM255 33
q49 0 82 33.5t44 101.5h-232q1 -37 11.5 -68t34 -49t60.5 -18z" />
    <glyph glyph-name="uni0292" unicode="&#x292;" horiz-adv-x="497" 
d="M217 -261q-62 0 -104.5 20t-64 50t-21.5 61q0 25 14 42.5t39 18.5q18 1 29.5 -7t17 -20t5.5 -25q0 -23 -20 -44q15 -26 42.5 -37.5t62.5 -11.5q52 0 87.5 50.5t35.5 142.5q0 60 -16 98.5t-45.5 57.5t-71.5 18q-16 0 -29.5 -0.5t-23.5 -0.5v51l136 189q14 19 29 36.5
t26 25.5l-165 -2q-44 0 -64.5 -37.5t-28.5 -98.5h-41l12 184h393v-42l-167 -230q-5 -8 -12 -14.5t-15 -12.5q66 -5 109.5 -34t65.5 -76.5t22 -109.5q0 -70 -30 -124.5t-83.5 -86t-123.5 -31.5z" />
    <glyph glyph-name="uni01EF" unicode="&#x1ef;" horiz-adv-x="497" 
d="M217 -261q-62 0 -104.5 20t-64 50t-21.5 61q0 25 14 42.5t39 18.5q18 1 29.5 -7t17 -20t5.5 -25q0 -23 -20 -44q15 -26 42.5 -37.5t62.5 -11.5q52 0 87.5 50.5t35.5 142.5q0 60 -16 98.5t-45.5 57.5t-71.5 18q-16 0 -29.5 -0.5t-23.5 -0.5v51l136 189q14 19 29 36.5
t26 25.5l-165 -2q-44 0 -64.5 -37.5t-28.5 -98.5h-41l12 184h393v-42l-167 -230q-5 -8 -12 -14.5t-15 -12.5q66 -5 109.5 -34t65.5 -76.5t22 -109.5q0 -70 -30 -124.5t-83.5 -86t-123.5 -31.5zM243 568l-153 165l32 38l128 -108h1l127 109l30 -35l-160 -169h-5z" />
    <glyph glyph-name="f" unicode="f" horiz-adv-x="348" 
d="M106 524q0 114 44.5 174t140.5 60q30 0 56 -9.5t42 -27t16 -41.5q0 -22 -12.5 -37t-35.5 -16q-26 -1 -37.5 15t-11.5 32q0 5 0.5 11t3.5 12q-7 8 -17.5 11t-19.5 3q-26 0 -40 -15t-20 -38t-6 -47v-111h128v-52l-127 -3l1 -320q0 -18 -1 -37t-3 -38q16 1 33.5 1.5
t31.5 1.5v-53h-225v42q30 0 42 14t14.5 39t2.5 58v291l-79 -2v58h79v24z" />
    <glyph glyph-name="g" unicode="g" horiz-adv-x="554" 
d="M275 -271q-88 0 -141.5 19.5t-77 50t-23.5 64.5q0 27 12.5 50t33.5 40.5t47 27.5q-35 11 -53 31.5t-18 50.5q0 32 25.5 63t73.5 42q-45 20 -72 58t-28 90q-1 60 30.5 105t81 70t103.5 25q31 0 64 -8.5t60 -26.5q11 29 29 53t42.5 38t51.5 14q29 0 44 -15t15 -40
q0 -8 -4.5 -19.5t-15.5 -19.5t-30 -8q-16 0 -28.5 10.5t-15.5 25.5q-21 -4 -34.5 -24.5t-17.5 -41.5q26 -23 40.5 -54.5t14.5 -67.5q0 -57 -30.5 -101t-79.5 -69t-106 -25q-17 0 -32 2.5t-33 2.5q-32 0 -52.5 -15t-15.5 -36q5 -22 42 -29t107 -10q77 -3 132.5 -18.5
t86 -47.5t30.5 -87q0 -41 -22.5 -73t-60 -53.5t-83.5 -32.5t-92 -11zM284 -222q81 0 125.5 30t44.5 68q0 32 -22 49.5t-61.5 25t-92.5 8.5q-26 2 -53 3t-50 5q-23 -16 -35.5 -39t-13.5 -48q0 -46 43 -74t115 -28zM271 184q34 0 56.5 17.5t34 47t11.5 64.5q0 41 -12 77
t-35 58t-59 22q-49 0 -76 -39t-27 -94q0 -44 12.5 -78.5t36.5 -54.5t58 -20z" />
    <glyph glyph-name="gbreve" unicode="&#x11f;" horiz-adv-x="554" 
d="M275 -271q-88 0 -141.5 19.5t-77 50t-23.5 64.5q0 27 12.5 50t33.5 40.5t47 27.5q-35 11 -53 31.5t-18 50.5q0 32 25.5 63t73.5 42q-45 20 -72 58t-28 90q-1 60 30.5 105t81 70t103.5 25q31 0 64 -8.5t60 -26.5q11 29 29 53t42.5 38t51.5 14q29 0 44 -15t15 -40
q0 -8 -4.5 -19.5t-15.5 -19.5t-30 -8q-16 0 -28.5 10.5t-15.5 25.5q-21 -4 -34.5 -24.5t-17.5 -41.5q26 -23 40.5 -54.5t14.5 -67.5q0 -57 -30.5 -101t-79.5 -69t-106 -25q-17 0 -32 2.5t-33 2.5q-32 0 -52.5 -15t-15.5 -36q5 -22 42 -29t107 -10q77 -3 132.5 -18.5
t86 -47.5t30.5 -87q0 -41 -22.5 -73t-60 -53.5t-83.5 -32.5t-92 -11zM284 -222q81 0 125.5 30t44.5 68q0 32 -22 49.5t-61.5 25t-92.5 8.5q-26 2 -53 3t-50 5q-23 -16 -35.5 -39t-13.5 -48q0 -46 43 -74t115 -28zM271 184q34 0 56.5 17.5t34 47t11.5 64.5q0 41 -12 77
t-35 58t-59 22q-49 0 -76 -39t-27 -94q0 -44 12.5 -78.5t36.5 -54.5t58 -20zM262 603q-27 0 -54.5 12.5t-50.5 39t-37 68.5l41 21q15 -28 42.5 -49t61.5 -21q35 0 61.5 22t40.5 50l40 -18q-23 -64 -60 -94.5t-85 -30.5z" />
    <glyph glyph-name="gcaron" unicode="&#x1e7;" horiz-adv-x="554" 
d="M275 -271q-88 0 -141.5 19.5t-77 50t-23.5 64.5q0 27 12.5 50t33.5 40.5t47 27.5q-35 11 -53 31.5t-18 50.5q0 32 25.5 63t73.5 42q-45 20 -72 58t-28 90q-1 60 30.5 105t81 70t103.5 25q31 0 64 -8.5t60 -26.5q11 29 29 53t42.5 38t51.5 14q29 0 44 -15t15 -40
q0 -8 -4.5 -19.5t-15.5 -19.5t-30 -8q-16 0 -28.5 10.5t-15.5 25.5q-21 -4 -34.5 -24.5t-17.5 -41.5q26 -23 40.5 -54.5t14.5 -67.5q0 -57 -30.5 -101t-79.5 -69t-106 -25q-17 0 -32 2.5t-33 2.5q-32 0 -52.5 -15t-15.5 -36q5 -22 42 -29t107 -10q77 -3 132.5 -18.5
t86 -47.5t30.5 -87q0 -41 -22.5 -73t-60 -53.5t-83.5 -32.5t-92 -11zM284 -222q81 0 125.5 30t44.5 68q0 32 -22 49.5t-61.5 25t-92.5 8.5q-26 2 -53 3t-50 5q-23 -16 -35.5 -39t-13.5 -48q0 -46 43 -74t115 -28zM271 184q34 0 56.5 17.5t34 47t11.5 64.5q0 41 -12 77
t-35 58t-59 22q-49 0 -76 -39t-27 -94q0 -44 12.5 -78.5t36.5 -54.5t58 -20zM258 568l-153 165l32 38l128 -108h1l127 109l30 -35l-160 -169h-5z" />
    <glyph glyph-name="gcircumflex" unicode="&#x11d;" horiz-adv-x="554" 
d="M275 -271q-88 0 -141.5 19.5t-77 50t-23.5 64.5q0 27 12.5 50t33.5 40.5t47 27.5q-35 11 -53 31.5t-18 50.5q0 32 25.5 63t73.5 42q-45 20 -72 58t-28 90q-1 60 30.5 105t81 70t103.5 25q31 0 64 -8.5t60 -26.5q11 29 29 53t42.5 38t51.5 14q29 0 44 -15t15 -40
q0 -8 -4.5 -19.5t-15.5 -19.5t-30 -8q-16 0 -28.5 10.5t-15.5 25.5q-21 -4 -34.5 -24.5t-17.5 -41.5q26 -23 40.5 -54.5t14.5 -67.5q0 -57 -30.5 -101t-79.5 -69t-106 -25q-17 0 -32 2.5t-33 2.5q-32 0 -52.5 -15t-15.5 -36q5 -22 42 -29t107 -10q77 -3 132.5 -18.5
t86 -47.5t30.5 -87q0 -41 -22.5 -73t-60 -53.5t-83.5 -32.5t-92 -11zM284 -222q81 0 125.5 30t44.5 68q0 32 -22 49.5t-61.5 25t-92.5 8.5q-26 2 -53 3t-50 5q-23 -16 -35.5 -39t-13.5 -48q0 -46 43 -74t115 -28zM271 184q34 0 56.5 17.5t34 47t11.5 64.5q0 41 -12 77
t-35 58t-59 22q-49 0 -76 -39t-27 -94q0 -44 12.5 -78.5t36.5 -54.5t58 -20zM392 576l-127 108h-2l-129 -101l-30 35l163 162h4l153 -166z" />
    <glyph glyph-name="uni0123" unicode="&#x123;" horiz-adv-x="554" 
d="M275 -271q-88 0 -141.5 19.5t-77 50t-23.5 64.5q0 27 12.5 50t33.5 40.5t47 27.5q-35 11 -53 31.5t-18 50.5q0 32 25.5 63t73.5 42q-45 20 -72 58t-28 90q-1 60 30.5 105t81 70t103.5 25q31 0 64 -8.5t60 -26.5q11 29 29 53t42.5 38t51.5 14q29 0 44 -15t15 -40
q0 -8 -4.5 -19.5t-15.5 -19.5t-30 -8q-16 0 -28.5 10.5t-15.5 25.5q-21 -4 -34.5 -24.5t-17.5 -41.5q26 -23 40.5 -54.5t14.5 -67.5q0 -57 -30.5 -101t-79.5 -69t-106 -25q-17 0 -32 2.5t-33 2.5q-32 0 -52.5 -15t-15.5 -36q5 -22 42 -29t107 -10q77 -3 132.5 -18.5
t86 -47.5t30.5 -87q0 -41 -22.5 -73t-60 -53.5t-83.5 -32.5t-92 -11zM284 -222q81 0 125.5 30t44.5 68q0 32 -22 49.5t-61.5 25t-92.5 8.5q-26 2 -53 3t-50 5q-23 -16 -35.5 -39t-13.5 -48q0 -46 43 -74t115 -28zM271 184q34 0 56.5 17.5t34 47t11.5 64.5q0 41 -12 77
t-35 58t-59 22q-49 0 -76 -39t-27 -94q0 -44 12.5 -78.5t36.5 -54.5t58 -20zM292 799l32 -24q-21 -39 -29.5 -70t-6.5 -58t11 -57l-76 -19q-18 32 -18 66q0 40 24 82t63 80z" />
    <glyph glyph-name="gdotaccent" unicode="&#x121;" horiz-adv-x="554" 
d="M275 -271q-88 0 -141.5 19.5t-77 50t-23.5 64.5q0 27 12.5 50t33.5 40.5t47 27.5q-35 11 -53 31.5t-18 50.5q0 32 25.5 63t73.5 42q-45 20 -72 58t-28 90q-1 60 30.5 105t81 70t103.5 25q31 0 64 -8.5t60 -26.5q11 29 29 53t42.5 38t51.5 14q29 0 44 -15t15 -40
q0 -8 -4.5 -19.5t-15.5 -19.5t-30 -8q-16 0 -28.5 10.5t-15.5 25.5q-21 -4 -34.5 -24.5t-17.5 -41.5q26 -23 40.5 -54.5t14.5 -67.5q0 -57 -30.5 -101t-79.5 -69t-106 -25q-17 0 -32 2.5t-33 2.5q-32 0 -52.5 -15t-15.5 -36q5 -22 42 -29t107 -10q77 -3 132.5 -18.5
t86 -47.5t30.5 -87q0 -41 -22.5 -73t-60 -53.5t-83.5 -32.5t-92 -11zM284 -222q81 0 125.5 30t44.5 68q0 32 -22 49.5t-61.5 25t-92.5 8.5q-26 2 -53 3t-50 5q-23 -16 -35.5 -39t-13.5 -48q0 -46 43 -74t115 -28zM271 184q34 0 56.5 17.5t34 47t11.5 64.5q0 41 -12 77
t-35 58t-59 22q-49 0 -76 -39t-27 -94q0 -44 12.5 -78.5t36.5 -54.5t58 -20zM264 602q-26 0 -44 19.5t-18 47.5t19 47.5t43 19.5q26 0 43.5 -19.5t17.5 -47.5t-17.5 -47.5t-43.5 -19.5z" />
    <glyph glyph-name="uni01E5" unicode="&#x1e5;" horiz-adv-x="577" 
d="M270 -102v47h292v-43zM279 -271q-73 0 -119.5 21.5t-69 54t-22.5 63.5q0 25 13.5 43t39.5 19q20 1 32 -7.5t16.5 -21t4.5 -22.5t-3.5 -21t-10.5 -21q10 -30 42 -43t68 -13q65 0 97.5 41t32.5 116v106q-28 -30 -64.5 -45t-80.5 -15q-61 0 -110 31.5t-77.5 88.5t-28.5 134
q0 83 33 145.5t91 97.5t130 35q47 0 81 -11t57 -11q10 0 19.5 4t17.5 12h36l1 -555q0 -73 -30.5 -123.5t-81.5 -76.5t-114 -26zM297 47q30 0 57.5 16t45.5 42v253q0 39 -11.5 63t-34 35t-56.5 11q-47 0 -78.5 -27.5t-47.5 -74.5t-16 -106q1 -56 16.5 -104.5t47 -78
t77.5 -29.5z" />
    <glyph glyph-name="h" unicode="h" horiz-adv-x="606" 
d="M356 42q30 0 42.5 14t15 39t2.5 58l-1 140q0 79 -24.5 118.5t-78.5 38.5q-33 -1 -64.5 -16t-52.5 -38v-272q0 -18 -1 -36.5t-3 -37.5q16 1 32.5 1.5t30.5 1.5v-53h-223v42q30 0 42 14t15 39t3 58v452q0 17 0.5 34.5t2.5 37.5q-17 -1 -36 -1.5t-35 -1.5v53q45 0 72 4.5
t41.5 10.5t21.5 13h37v-302q22 18 49 32t55.5 22.5t53.5 8.5q89 0 127.5 -54t39.5 -169v-169q0 -18 -0.5 -36.5t-3.5 -37.5q16 1 33 1.5t31 1.5v-53h-224v42z" />
    <glyph glyph-name="hbar" unicode="&#x127;" horiz-adv-x="606" 
d="M15 568v47h341v-43zM356 42q30 0 42.5 14t15 39t2.5 58l-1 140q0 79 -24.5 118.5t-78.5 38.5q-33 -1 -64.5 -16t-52.5 -38v-272q0 -18 -1 -36.5t-3 -37.5q16 1 32.5 1.5t30.5 1.5v-53h-223v42q30 0 42 14t15 39t3 58v452q0 17 0.5 34.5t2.5 37.5q-17 -1 -36 -1.5
t-35 -1.5v53q45 0 72 4.5t41.5 10.5t21.5 13h37v-302q22 18 49 32t55.5 22.5t53.5 8.5q89 0 127.5 -54t39.5 -169v-169q0 -18 -0.5 -36.5t-3.5 -37.5q16 1 33 1.5t31 1.5v-53h-224v42z" />
    <glyph glyph-name="uni021F" unicode="&#x21f;" horiz-adv-x="606" 
d="M356 42q30 0 42.5 14t15 39t2.5 58l-1 140q0 79 -24.5 118.5t-78.5 38.5q-33 -1 -64.5 -16t-52.5 -38v-272q0 -18 -1 -36.5t-3 -37.5q16 1 32.5 1.5t30.5 1.5v-53h-223v42q30 0 42 14t15 39t3 58v452q0 17 0.5 34.5t2.5 37.5q-17 -1 -36 -1.5t-35 -1.5v53q45 0 72 4.5
t41.5 10.5t21.5 13h37v-302q22 18 49 32t55.5 22.5t53.5 8.5q89 0 127.5 -54t39.5 -169v-169q0 -18 -0.5 -36.5t-3.5 -37.5q16 1 33 1.5t31 1.5v-53h-224v42zM330 771l-153 165l32 38l128 -108h1l127 109l30 -35l-160 -169h-5z" />
    <glyph glyph-name="hcircumflex" unicode="&#x125;" horiz-adv-x="606" 
d="M356 42q30 0 42.5 14t15 39t2.5 58l-1 140q0 79 -24.5 118.5t-78.5 38.5q-33 -1 -64.5 -16t-52.5 -38v-272q0 -18 -1 -36.5t-3 -37.5q16 1 32.5 1.5t30.5 1.5v-53h-223v42q30 0 42 14t15 39t3 58v452q0 17 0.5 34.5t2.5 37.5q-17 -1 -36 -1.5t-35 -1.5v53q45 0 72 4.5
t41.5 10.5t21.5 13h37v-302q22 18 49 32t55.5 22.5t53.5 8.5q89 0 127.5 -54t39.5 -169v-169q0 -18 -0.5 -36.5t-3.5 -37.5q16 1 33 1.5t31 1.5v-53h-224v42zM284 779l-127 108h-2l-129 -101l-30 35l163 162h4l153 -166z" />
    <glyph glyph-name="i" unicode="i" horiz-adv-x="296" 
d="M43 42q30 0 42 14t14.5 39t2.5 58v207q0 17 1 34.5t3 37.5q-17 -1 -36 -1.5t-35 -1.5v53q45 0 71.5 4.5t41 10.5t21.5 13h38v-386q0 -18 -1 -36.5t-3 -37.5q16 1 32.5 1.5t30.5 1.5v-53h-223v42zM149 602q-26 0 -44 19.5t-18 47.5t19 47.5t43 19.5q26 0 43.5 -19.5
t17.5 -47.5t-17.5 -47.5t-43.5 -19.5z" />
    <glyph glyph-name="dotlessi" unicode="&#x131;" horiz-adv-x="296" 
d="M43 42q30 0 42 14t14.5 39t2.5 58v207q0 17 1 34.5t3 37.5q-17 -1 -36 -1.5t-35 -1.5v53q45 0 71.5 4.5t41 10.5t21.5 13h38v-386q0 -18 -1 -36.5t-3 -37.5q16 1 32.5 1.5t30.5 1.5v-53h-223v42z" />
    <glyph glyph-name="iacute" unicode="&#xed;" horiz-adv-x="296" 
d="M43 42q30 0 42 14t14.5 39t2.5 58v207q0 17 1 34.5t3 37.5q-17 -1 -36 -1.5t-35 -1.5v53q45 0 71.5 4.5t41 10.5t21.5 13h38v-386q0 -18 -1 -36.5t-3 -37.5q16 1 32.5 1.5t30.5 1.5v-53h-223v42zM97 575l-34 29l83 137q14 20 28.5 25.5t27 3t19.5 -8.5q8 -6 12 -19
t-0.5 -28.5t-20.5 -32.5z" />
    <glyph glyph-name="ibreve" unicode="&#x12d;" horiz-adv-x="296" 
d="M43 42q30 0 42 14t14.5 39t2.5 58v207q0 17 1 34.5t3 37.5q-17 -1 -36 -1.5t-35 -1.5v53q45 0 71.5 4.5t41 10.5t21.5 13h38v-386q0 -18 -1 -36.5t-3 -37.5q16 1 32.5 1.5t30.5 1.5v-53h-223v42zM147 603q-27 0 -54.5 12.5t-50.5 39t-37 68.5l41 21q15 -28 42.5 -49
t61.5 -21q35 0 61.5 22t40.5 50l40 -18q-23 -64 -60 -94.5t-85 -30.5z" />
    <glyph glyph-name="icircumflex" unicode="&#xee;" horiz-adv-x="296" 
d="M43 42q30 0 42 14t14.5 39t2.5 58v207q0 17 1 34.5t3 37.5q-17 -1 -36 -1.5t-35 -1.5v53q45 0 71.5 4.5t41 10.5t21.5 13h38v-386q0 -18 -1 -36.5t-3 -37.5q16 1 32.5 1.5t30.5 1.5v-53h-223v42zM146 780h5l132 -166l-33 -35l-105 97h-1l-104 -93l-34 35z" />
    <glyph glyph-name="idieresis" unicode="&#xef;" horiz-adv-x="296" 
d="M43 42q30 0 42 14t14.5 39t2.5 58v207q0 17 1 34.5t3 37.5q-17 -1 -36 -1.5t-35 -1.5v53q45 0 71.5 4.5t41 10.5t21.5 13h38v-386q0 -18 -1 -36.5t-3 -37.5q16 1 32.5 1.5t30.5 1.5v-53h-223v42zM233 607q-23 0 -39.5 19t-16.5 46t17 46t39 19q24 0 39.5 -19t15.5 -46
t-16.5 -46t-38.5 -19zM63 607q-22 0 -38.5 19t-16.5 46t17 46t39 19q24 0 39.5 -19t15.5 -46t-16.5 -46t-39.5 -19z" />
    <glyph glyph-name="i.loclTRK" horiz-adv-x="296" 
d="M43 42q30 0 42 14t14.5 39t2.5 58v207q0 17 1 34.5t3 37.5q-17 -1 -36 -1.5t-35 -1.5v53q45 0 71.5 4.5t41 10.5t21.5 13h38v-386q0 -18 -1 -36.5t-3 -37.5q16 1 32.5 1.5t30.5 1.5v-53h-223v42zM149 602q-26 0 -44 19.5t-18 47.5t19 47.5t43 19.5q26 0 43.5 -19.5
t17.5 -47.5t-17.5 -47.5t-43.5 -19.5z" />
    <glyph glyph-name="uni1ECB" unicode="&#x1ecb;" horiz-adv-x="296" 
d="M43 42q30 0 42 14t14.5 39t2.5 58v207q0 17 1 34.5t3 37.5q-17 -1 -36 -1.5t-35 -1.5v53q45 0 71.5 4.5t41 10.5t21.5 13h38v-386q0 -18 -1 -36.5t-3 -37.5q16 1 32.5 1.5t30.5 1.5v-53h-223v42zM149 602q-26 0 -44 19.5t-18 47.5t19 47.5t43 19.5q26 0 43.5 -19.5
t17.5 -47.5t-17.5 -47.5t-43.5 -19.5zM149 -186q-22 0 -37.5 16.5t-15.5 39.5q0 24 16 40.5t37 16.5q22 0 37 -16.5t15 -40.5q0 -23 -15.5 -39.5t-36.5 -16.5z" />
    <glyph glyph-name="igrave" unicode="&#xec;" horiz-adv-x="296" 
d="M43 42q30 0 42 14t14.5 39t2.5 58v207q0 17 1 34.5t3 37.5q-17 -1 -36 -1.5t-35 -1.5v53q45 0 71.5 4.5t41 10.5t21.5 13h38v-386q0 -18 -1 -36.5t-3 -37.5q16 1 32.5 1.5t30.5 1.5v-53h-223v42zM201 575l-115 106q-17 16 -21 32t0.5 29t12.5 19q7 6 19.5 9t27 -2.5
t27.5 -26.5l83 -137z" />
    <glyph glyph-name="uni1EC9" unicode="&#x1ec9;" horiz-adv-x="296" 
d="M43 42q30 0 42 14t14.5 39t2.5 58v207q0 17 1 34.5t3 37.5q-17 -1 -36 -1.5t-35 -1.5v53q45 0 71.5 4.5t41 10.5t21.5 13h38v-386q0 -18 -1 -36.5t-3 -37.5q16 1 32.5 1.5t30.5 1.5v-53h-223v42zM131 564q0 19 12.5 30.5t25.5 23.5q9 8 14 18.5t5 21.5q0 21 -14.5 35
t-37.5 14q-22 0 -35 -9.5t-15 -19.5q6 -2 10 -7.5t4 -12.5q0 -11 -9.5 -19t-22.5 -8q-16 0 -28 11t-12 31q0 19 12.5 37t36.5 29.5t58 11.5q55 0 84.5 -25.5t29.5 -59.5q0 -26 -12 -40.5t-29 -27.5q-12 -9 -20.5 -17.5t-8.5 -16.5h-48z" />
    <glyph glyph-name="imacron" unicode="&#x12b;" horiz-adv-x="296" 
d="M43 42q30 0 42 14t14.5 39t2.5 58v207q0 17 1 34.5t3 37.5q-17 -1 -36 -1.5t-35 -1.5v53q45 0 71.5 4.5t41 10.5t21.5 13h38v-386q0 -18 -1 -36.5t-3 -37.5q16 1 32.5 1.5t30.5 1.5v-53h-223v42zM13 636v72h271v-68z" />
    <glyph glyph-name="iogonek" unicode="&#x12f;" horiz-adv-x="296" 
d="M43 42q30 0 42 14t14.5 39t2.5 58v207q0 17 1 34.5t3 37.5q-17 -1 -36 -1.5t-35 -1.5v53q45 0 71.5 4.5t41 10.5t21.5 13h38v-386q0 -18 -1 -36.5t-3 -37.5q16 1 32.5 1.5t30.5 1.5v-53h-223v42zM149 602q-26 0 -44 19.5t-18 47.5t19 47.5t43 19.5q26 0 43.5 -19.5
t17.5 -47.5t-17.5 -47.5t-43.5 -19.5zM155 -261q-48 0 -77 27.5t-29 74.5q0 45 32 82.5t82 65.5t103 44v-33q-34 -12 -64 -32t-48.5 -46.5t-17.5 -57.5q0 -27 16 -43t40 -16q16 0 32.5 7.5t31.5 20.5l23 -26q-22 -28 -55 -48t-69 -20z" />
    <glyph glyph-name="itilde" unicode="&#x129;" horiz-adv-x="296" 
d="M43 42q30 0 42 14t14.5 39t2.5 58v207q0 17 1 34.5t3 37.5q-17 -1 -36 -1.5t-35 -1.5v53q45 0 71.5 4.5t41 10.5t21.5 13h38v-386q0 -18 -1 -36.5t-3 -37.5q16 1 32.5 1.5t30.5 1.5v-53h-223v42zM320 713q-18 -54 -49 -78.5t-59 -24.5q-29 0 -50.5 12.5t-39.5 24.5
t-37 12q-16 0 -35.5 -9t-34.5 -32l-38 22q14 39 45.5 65t61.5 27q31 0 51 -12t37.5 -24t39.5 -12q21 0 39 13t31 35z" />
    <glyph glyph-name="ij" unicode="&#x133;" horiz-adv-x="571" 
d="M43 42q30 0 42 14t14.5 39t2.5 58v207q0 17 1 34.5t3 37.5q-17 -1 -36 -1.5t-35 -1.5v53q45 0 71.5 4.5t41 10.5t21.5 13h38v-386q0 -18 -1 -36.5t-3 -37.5q16 1 32.5 1.5t30.5 1.5v-53h-223v42zM149 602q-26 0 -44 19.5t-18 47.5t19 47.5t43 19.5q26 0 43.5 -19.5
t17.5 -47.5t-17.5 -47.5t-43.5 -19.5zM297 -271q-46 0 -67.5 20t-21.5 45q0 20 13 36.5t37 17.5q25 1 37 -15t12 -33v-6t-1 -6q11 -5 23 -5q26 0 38.5 18t17 45.5t4.5 54.5v459q0 17 1 34.5t3 37.5q-18 -1 -36.5 -1.5t-34.5 -1.5v53q45 0 72 4.5t41.5 10.5t21.5 13h37v-511
q0 -93 -26 -153t-70.5 -88.5t-100.5 -28.5zM438 602q-26 0 -44 19.5t-18 47.5t19 47.5t43 19.5q26 0 43.5 -19.5t17.5 -47.5t-17.5 -47.5t-43.5 -19.5z" />
    <glyph glyph-name="j" unicode="j" horiz-adv-x="275" 
d="M1 -271q-46 0 -67.5 20t-21.5 45q0 20 13 36.5t37 17.5q25 1 37 -15t12 -33v-6t-1 -6q11 -5 23 -5q26 0 38.5 18t17 45.5t4.5 54.5v459q0 17 1 34.5t3 37.5q-18 -1 -36.5 -1.5t-34.5 -1.5v53q45 0 72 4.5t41.5 10.5t21.5 13h37v-511q0 -93 -26 -153t-70.5 -88.5
t-100.5 -28.5zM142 602q-26 0 -44 19.5t-18 47.5t19 47.5t43 19.5q26 0 43.5 -19.5t17.5 -47.5t-17.5 -47.5t-43.5 -19.5z" />
    <glyph glyph-name="uni0237" unicode="&#x237;" horiz-adv-x="275" 
d="M1 -271q-46 0 -67.5 20t-21.5 45q0 20 13 36.5t37 17.5q25 1 37 -15t12 -33v-6t-1 -6q11 -5 23 -5q26 0 38.5 18t17 45.5t4.5 54.5v459q0 17 1 34.5t3 37.5q-18 -1 -36.5 -1.5t-34.5 -1.5v53q45 0 72 4.5t41.5 10.5t21.5 13h37v-511q0 -93 -26 -153t-70.5 -88.5
t-100.5 -28.5z" />
    <glyph glyph-name="jcircumflex" unicode="&#x135;" horiz-adv-x="275" 
d="M1 -271q-46 0 -67.5 20t-21.5 45q0 20 13 36.5t37 17.5q25 1 37 -15t12 -33v-6t-1 -6q11 -5 23 -5q26 0 38.5 18t17 45.5t4.5 54.5v459q0 17 1 34.5t3 37.5q-18 -1 -36.5 -1.5t-34.5 -1.5v53q45 0 72 4.5t41.5 10.5t21.5 13h37v-511q0 -93 -26 -153t-70.5 -88.5
t-100.5 -28.5zM139 780h5l132 -166l-33 -35l-105 97h-1l-104 -93l-34 35z" />
    <glyph glyph-name="k" unicode="k" horiz-adv-x="556" 
d="M32 0v42q30 0 41.5 14t14 39t2.5 58l1 452q0 17 0.5 34.5t2.5 37.5q-17 -1 -36 -1.5t-34 -1.5v53q44 0 70.5 4.5t41.5 10.5t21 13h38v-467h43l105 113l28 28t24 21l-63 -2v52h197v-41q-35 -4 -63.5 -20.5t-51.5 -37.5t-39 -39l-74 -78q19 -9 33 -22.5t30 -34.5l70 -90
q5 -6 16.5 -21.5t27.5 -32.5t33.5 -29t33.5 -12v-42h-99q-29 0 -53.5 27t-53.5 65q-24 32 -44 60.5t-36.5 51.5t-28.5 36l-35 -2v-114q0 -18 -0.5 -36.5t-3.5 -37.5q16 1 33 1.5t31 1.5v-53h-223z" />
    <glyph glyph-name="uni01E9" unicode="&#x1e9;" horiz-adv-x="556" 
d="M32 0v42q30 0 41.5 14t14 39t2.5 58l1 452q0 17 0.5 34.5t2.5 37.5q-17 -1 -36 -1.5t-34 -1.5v53q44 0 70.5 4.5t41.5 10.5t21 13h38v-467h43l105 113l28 28t24 21l-63 -2v52h197v-41q-35 -4 -63.5 -20.5t-51.5 -37.5t-39 -39l-74 -78q19 -9 33 -22.5t30 -34.5l70 -90
q5 -6 16.5 -21.5t27.5 -32.5t33.5 -29t33.5 -12v-42h-99q-29 0 -53.5 27t-53.5 65q-24 32 -44 60.5t-36.5 51.5t-28.5 36l-35 -2v-114q0 -18 -0.5 -36.5t-3.5 -37.5q16 1 33 1.5t31 1.5v-53h-223zM295 830l-188 144l25 38l171 -88l175 90l22 -36l-198 -148h-7z" />
    <glyph glyph-name="uni0137" unicode="&#x137;" horiz-adv-x="556" 
d="M32 0v42q30 0 41.5 14t14 39t2.5 58l1 452q0 17 0.5 34.5t2.5 37.5q-17 -1 -36 -1.5t-34 -1.5v53q44 0 70.5 4.5t41.5 10.5t21 13h38v-467h43l105 113l28 28t24 21l-63 -2v52h197v-41q-35 -4 -63.5 -20.5t-51.5 -37.5t-39 -39l-74 -78q19 -9 33 -22.5t30 -34.5l70 -90
q5 -6 16.5 -21.5t27.5 -32.5t33.5 -29t33.5 -12v-42h-99q-29 0 -53.5 27t-53.5 65q-24 32 -44 60.5t-36.5 51.5t-28.5 36l-35 -2v-114q0 -18 -0.5 -36.5t-3.5 -37.5q16 1 33 1.5t31 1.5v-53h-223zM257 -267l-33 24q23 40 31 70.5t6 58t-11 56.5l76 19q18 -32 18 -66
q0 -40 -23.5 -81.5t-63.5 -80.5z" />
    <glyph glyph-name="l" unicode="l" horiz-adv-x="285" 
d="M31 42q30 0 42 14t14.5 39t2.5 58v452q0 17 0.5 34.5t2.5 37.5q-17 -1 -36 -1.5t-34 -1.5v53q45 0 71.5 4.5t41 10.5t21.5 13h38v-631q0 -18 -1 -36.5t-3 -37.5q16 1 32.5 1.5t30.5 1.5v-53h-223v42z" />
    <glyph glyph-name="lacute" unicode="&#x13a;" horiz-adv-x="285" 
d="M31 42q30 0 42 14t14.5 39t2.5 58v452q0 17 0.5 34.5t2.5 37.5q-17 -1 -36 -1.5t-34 -1.5v53q45 0 71.5 4.5t41 10.5t21.5 13h38v-631q0 -18 -1 -36.5t-3 -37.5q16 1 32.5 1.5t30.5 1.5v-53h-223v42zM91 776l-34 29l83 137q14 20 28.5 25.5t27 3t19.5 -8.5q8 -6 12 -19
t-0.5 -28.5t-20.5 -32.5z" />
    <glyph glyph-name="lcaron" unicode="&#x13e;" horiz-adv-x="285" 
d="M282 547l-30 23q23 43 31.5 78t6.5 66t-10 61l75 -14q9 -18 11.5 -31t0.5 -32q-4 -40 -28 -79.5t-57 -71.5zM31 42q30 0 42 14t14.5 39t2.5 58v452q0 17 0.5 34.5t2.5 37.5q-17 -1 -36 -1.5t-34 -1.5v53q45 0 71.5 4.5t41 10.5t21.5 13h38v-631q0 -18 -1 -36.5t-3 -37.5
q16 1 32.5 1.5t30.5 1.5v-53h-223v42z" />
    <glyph glyph-name="uni013C" unicode="&#x13c;" horiz-adv-x="285" 
d="M31 42q30 0 42 14t14.5 39t2.5 58v452q0 17 0.5 34.5t2.5 37.5q-17 -1 -36 -1.5t-34 -1.5v53q45 0 71.5 4.5t41 10.5t21.5 13h38v-631q0 -18 -1 -36.5t-3 -37.5q16 1 32.5 1.5t30.5 1.5v-53h-223v42zM120 -267l-33 24q23 40 31 70.5t6 58t-11 56.5l76 19q18 -32 18 -66
q0 -40 -23.5 -81.5t-63.5 -80.5z" />
    <glyph glyph-name="ldot" unicode="&#x140;" horiz-adv-x="430" 
d="M31 42q30 0 42 14t14.5 39t2.5 58v452q0 17 0.5 34.5t2.5 37.5q-17 -1 -36 -1.5t-34 -1.5v53q45 0 71.5 4.5t41 10.5t21.5 13h38v-631q0 -18 -1 -36.5t-3 -37.5q16 1 32.5 1.5t30.5 1.5v-53h-223v42zM320 264q-27 0 -45.5 20t-18.5 49q0 28 19.5 48.5t44.5 20.5
q27 0 45 -20.5t18 -48.5q0 -29 -18.5 -49t-44.5 -20z" />
    <glyph glyph-name="lslash" unicode="&#x142;" horiz-adv-x="313" 
d="M21 220v77l293 209v-74zM51 42q30 0 42 14t14.5 39t2.5 58v452q0 17 0.5 34.5t2.5 37.5q-17 -1 -36 -1.5t-34 -1.5v53q45 0 71.5 4.5t41 10.5t21.5 13h38v-631q0 -18 -1 -36.5t-3 -37.5q16 1 32.5 1.5t30.5 1.5v-53h-223v42z" />
    <glyph glyph-name="m" unicode="m" horiz-adv-x="903" 
d="M43 0v42q30 0 42 14t14.5 39t2.5 58v208q0 16 0.5 34.5t3.5 36.5q-17 -1 -36 -1.5t-35 -1.5v53q45 0 70.5 4.5t39 10.5t20.5 13h36q2 -10 2.5 -23.5t1.5 -28.5q31 26 70.5 42t76.5 16q49 0 81.5 -17.5t51.5 -49.5q35 29 79 48t86 19q85 0 126 -50.5t40 -168.5l-1 -173
q0 -18 -0.5 -36.5t-3.5 -37.5q16 1 33 1.5t31 1.5v-53h-220v42q28 0 39.5 14t14 39t2.5 58v144q-1 79 -26 116t-76 37q-29 0 -57 -12.5t-50 -31.5q5 -17 7.5 -37.5t2.5 -42.5q-1 -50 -1 -100.5v-101.5q0 -18 -1 -36.5t-3 -37.5q16 1 32.5 1.5t30.5 1.5v-53h-222v42
q30 0 41.5 14t14 39t2.5 58v145q1 79 -22.5 116.5t-74.5 36.5q-29 0 -56 -12.5t-47 -31.5q0 -12 0.5 -25t0.5 -28v-230q0 -18 -1 -36.5t-3 -37.5q16 1 32 1.5t30 1.5v-53h-222z" />
    <glyph glyph-name="n" unicode="n" horiz-adv-x="617" 
d="M43 0v42q30 0 42 14t14.5 39t2.5 58l1 208q0 16 0.5 34.5t3.5 36.5q-18 -1 -36.5 -1.5t-34.5 -1.5v53q45 0 70.5 4.5t39 10.5t20.5 13h36q1 -9 1.5 -17t1 -17t1.5 -23q22 18 48 32t54.5 22.5t54.5 8.5q89 0 128.5 -54t39.5 -169v-169q0 -18 -1 -36.5t-3 -37.5
q16 1 32.5 1.5t30.5 1.5v-53h-223v42q30 0 42 14t14.5 39t2.5 58v140q-1 79 -25.5 119t-78.5 39q-32 0 -63 -16t-52 -39v-21.5v-23.5v-227q0 -18 -1 -36.5t-3 -37.5q16 1 32.5 1.5t30.5 1.5v-53h-223z" />
    <glyph glyph-name="nacute" unicode="&#x144;" horiz-adv-x="617" 
d="M43 0v42q30 0 42 14t14.5 39t2.5 58l1 208q0 16 0.5 34.5t3.5 36.5q-18 -1 -36.5 -1.5t-34.5 -1.5v53q45 0 70.5 4.5t39 10.5t20.5 13h36q1 -9 1.5 -17t1 -17t1.5 -23q22 18 48 32t54.5 22.5t54.5 8.5q89 0 128.5 -54t39.5 -169v-169q0 -18 -1 -36.5t-3 -37.5
q16 1 32.5 1.5t30.5 1.5v-53h-223v42q30 0 42 14t14.5 39t2.5 58v140q-1 79 -25.5 119t-78.5 39q-32 0 -63 -16t-52 -39v-21.5v-23.5v-227q0 -18 -1 -36.5t-3 -37.5q16 1 32.5 1.5t30.5 1.5v-53h-223zM275 575l-34 29l83 137q14 20 28.5 25.5t27 3t19.5 -8.5q8 -6 12 -19
t-0.5 -28.5t-20.5 -32.5z" />
    <glyph glyph-name="napostrophe" unicode="&#x149;" horiz-adv-x="617" 
d="M90 579l-31 23q11 14 23.5 40t21 57.5t5.5 61.5q-7 -3 -12.5 -4t-11.5 -1q-21 0 -37 14.5t-16 39.5q0 29 17.5 46.5t42.5 17.5q39 0 58.5 -27.5t19.5 -68.5q0 -27 -9.5 -63t-27.5 -71.5t-43 -64.5zM43 0v42q30 0 42 14t14.5 39t2.5 58l1 208q0 16 0.5 34.5t3.5 36.5
q-18 -1 -36.5 -1.5t-34.5 -1.5v53q45 0 70.5 4.5t39 10.5t20.5 13h36q1 -9 1.5 -17t1 -17t1.5 -23q22 18 48 32t54.5 22.5t54.5 8.5q89 0 128.5 -54t39.5 -169v-169q0 -18 -1 -36.5t-3 -37.5q16 1 32.5 1.5t30.5 1.5v-53h-223v42q30 0 42 14t14.5 39t2.5 58v140
q-1 79 -25.5 119t-78.5 39q-32 0 -63 -16t-52 -39v-21.5v-23.5v-227q0 -18 -1 -36.5t-3 -37.5q16 1 32.5 1.5t30.5 1.5v-53h-223z" />
    <glyph glyph-name="ncaron" unicode="&#x148;" horiz-adv-x="617" 
d="M43 0v42q30 0 42 14t14.5 39t2.5 58l1 208q0 16 0.5 34.5t3.5 36.5q-18 -1 -36.5 -1.5t-34.5 -1.5v53q45 0 70.5 4.5t39 10.5t20.5 13h36q1 -9 1.5 -17t1 -17t1.5 -23q22 18 48 32t54.5 22.5t54.5 8.5q89 0 128.5 -54t39.5 -169v-169q0 -18 -1 -36.5t-3 -37.5
q16 1 32.5 1.5t30.5 1.5v-53h-223v42q30 0 42 14t14.5 39t2.5 58v140q-1 79 -25.5 119t-78.5 39q-32 0 -63 -16t-52 -39v-21.5v-23.5v-227q0 -18 -1 -36.5t-3 -37.5q16 1 32.5 1.5t30.5 1.5v-53h-223zM321 568l-153 165l32 38l128 -108h1l127 109l30 -35l-160 -169h-5z" />
    <glyph glyph-name="uni0146" unicode="&#x146;" horiz-adv-x="617" 
d="M43 0v42q30 0 42 14t14.5 39t2.5 58l1 208q0 16 0.5 34.5t3.5 36.5q-18 -1 -36.5 -1.5t-34.5 -1.5v53q45 0 70.5 4.5t39 10.5t20.5 13h36q1 -9 1.5 -17t1 -17t1.5 -23q22 18 48 32t54.5 22.5t54.5 8.5q89 0 128.5 -54t39.5 -169v-169q0 -18 -1 -36.5t-3 -37.5
q16 1 32.5 1.5t30.5 1.5v-53h-223v42q30 0 42 14t14.5 39t2.5 58v140q-1 79 -25.5 119t-78.5 39q-32 0 -63 -16t-52 -39v-21.5v-23.5v-227q0 -18 -1 -36.5t-3 -37.5q16 1 32.5 1.5t30.5 1.5v-53h-223zM286 -267l-33 24q23 40 31 70.5t6 58t-11 56.5l76 19q18 -32 18 -66
q0 -40 -23.5 -81.5t-63.5 -80.5z" />
    <glyph glyph-name="ntilde" unicode="&#xf1;" horiz-adv-x="617" 
d="M43 0v42q30 0 42 14t14.5 39t2.5 58l1 208q0 16 0.5 34.5t3.5 36.5q-18 -1 -36.5 -1.5t-34.5 -1.5v53q45 0 70.5 4.5t39 10.5t20.5 13h36q1 -9 1.5 -17t1 -17t1.5 -23q22 18 48 32t54.5 22.5t54.5 8.5q89 0 128.5 -54t39.5 -169v-169q0 -18 -1 -36.5t-3 -37.5
q16 1 32.5 1.5t30.5 1.5v-53h-223v42q30 0 42 14t14.5 39t2.5 58v140q-1 79 -25.5 119t-78.5 39q-32 0 -63 -16t-52 -39v-21.5v-23.5v-227q0 -18 -1 -36.5t-3 -37.5q16 1 32.5 1.5t30.5 1.5v-53h-223zM499 713q-18 -54 -49 -78.5t-59 -24.5q-29 0 -50.5 12.5t-39.5 24.5
t-37 12q-16 0 -35.5 -9t-34.5 -32l-38 22q14 39 45.5 65t61.5 27q31 0 51 -12t37.5 -24t39.5 -12q21 0 39 13t31 35z" />
    <glyph glyph-name="eng" unicode="&#x14b;" horiz-adv-x="597" 
d="M334 -271q-46 0 -67.5 20t-21.5 45q0 20 13 36.5t37 17.5q25 1 37 -15t12 -33v-6t-1 -6q6 -3 13 -4t13 -1q25 3 37 20t16 43.5t4 54.5v392q-1 79 -25.5 119t-78.5 39q-32 0 -63 -16t-52 -39v-23.5v-25.5v-223q0 -18 -1 -36.5t-3 -37.5q16 1 32.5 1.5t30.5 1.5v-53h-223
v42q30 0 42 14t14.5 39t2.5 58l1 208q0 16 0.5 34.5t3.5 36.5q-18 -1 -36.5 -1.5t-34.5 -1.5v53q45 0 70.5 4.5t39 10.5t20.5 13h36q1 -9 1.5 -17t1 -17t1.5 -23q22 18 48 32t54.5 22.5t54.5 8.5q89 0 128.5 -54t39.5 -169v-294q0 -93 -26 -153t-70.5 -88.5t-100.5 -28.5z
" />
    <glyph glyph-name="o" unicode="o" horiz-adv-x="579" 
d="M290 -16q-71 0 -128 32t-90.5 89.5t-33.5 132.5q0 81 33.5 143.5t90.5 98.5t127 36q71 0 128 -32.5t90.5 -90t33.5 -132.5q0 -79 -33 -142t-89.5 -99t-128.5 -36zM297 34q48 1 75.5 30t39.5 74.5t12 94.5q0 43 -7.5 84.5t-23.5 75.5t-42 54.5t-63 19.5q-47 0 -76.5 -29
t-43 -74.5t-13.5 -96.5q0 -59 15 -112t46.5 -87t80.5 -34z" />
    <glyph glyph-name="oacute" unicode="&#xf3;" horiz-adv-x="579" 
d="M290 -16q-71 0 -128 32t-90.5 89.5t-33.5 132.5q0 81 33.5 143.5t90.5 98.5t127 36q71 0 128 -32.5t90.5 -90t33.5 -132.5q0 -79 -33 -142t-89.5 -99t-128.5 -36zM297 34q48 1 75.5 30t39.5 74.5t12 94.5q0 43 -7.5 84.5t-23.5 75.5t-42 54.5t-63 19.5q-47 0 -76.5 -29
t-43 -74.5t-13.5 -96.5q0 -59 15 -112t46.5 -87t80.5 -34zM237 575l-34 29l83 137q14 20 28.5 25.5t27 3t19.5 -8.5q8 -6 12 -19t-0.5 -28.5t-20.5 -32.5z" />
    <glyph glyph-name="obreve" unicode="&#x14f;" horiz-adv-x="579" 
d="M290 -16q-71 0 -128 32t-90.5 89.5t-33.5 132.5q0 81 33.5 143.5t90.5 98.5t127 36q71 0 128 -32.5t90.5 -90t33.5 -132.5q0 -79 -33 -142t-89.5 -99t-128.5 -36zM297 34q48 1 75.5 30t39.5 74.5t12 94.5q0 43 -7.5 84.5t-23.5 75.5t-42 54.5t-63 19.5q-47 0 -76.5 -29
t-43 -74.5t-13.5 -96.5q0 -59 15 -112t46.5 -87t80.5 -34zM287 603q-27 0 -54.5 12.5t-50.5 39t-37 68.5l41 21q15 -28 42.5 -49t61.5 -21q35 0 61.5 22t40.5 50l40 -18q-23 -64 -60 -94.5t-85 -30.5z" />
    <glyph glyph-name="ocircumflex" unicode="&#xf4;" horiz-adv-x="579" 
d="M290 -16q-71 0 -128 32t-90.5 89.5t-33.5 132.5q0 81 33.5 143.5t90.5 98.5t127 36q71 0 128 -32.5t90.5 -90t33.5 -132.5q0 -79 -33 -142t-89.5 -99t-128.5 -36zM297 34q48 1 75.5 30t39.5 74.5t12 94.5q0 43 -7.5 84.5t-23.5 75.5t-42 54.5t-63 19.5q-47 0 -76.5 -29
t-43 -74.5t-13.5 -96.5q0 -59 15 -112t46.5 -87t80.5 -34zM417 576l-127 108h-2l-129 -101l-30 35l163 162h4l153 -166z" />
    <glyph glyph-name="uni1ED1" unicode="&#x1ed1;" horiz-adv-x="579" 
d="M290 -16q-71 0 -128 32t-90.5 89.5t-33.5 132.5q0 81 33.5 143.5t90.5 98.5t127 36q71 0 128 -32.5t90.5 -90t33.5 -132.5q0 -79 -33 -142t-89.5 -99t-128.5 -36zM297 34q48 1 75.5 30t39.5 74.5t12 94.5q0 43 -7.5 84.5t-23.5 75.5t-42 54.5t-63 19.5q-47 0 -76.5 -29
t-43 -74.5t-13.5 -96.5q0 -59 15 -112t46.5 -87t80.5 -34zM399 554l-109 70l-110 -70l-21 28l131 120h6l125 -119zM448 632l-34 29l83 137q13 21 27.5 26.5t27.5 2.5t20 -8q8 -7 12 -20t0 -29t-21 -32z" />
    <glyph glyph-name="uni1ED9" unicode="&#x1ed9;" horiz-adv-x="579" 
d="M290 -16q-71 0 -128 32t-90.5 89.5t-33.5 132.5q0 81 33.5 143.5t90.5 98.5t127 36q71 0 128 -32.5t90.5 -90t33.5 -132.5q0 -79 -33 -142t-89.5 -99t-128.5 -36zM297 34q48 1 75.5 30t39.5 74.5t12 94.5q0 43 -7.5 84.5t-23.5 75.5t-42 54.5t-63 19.5q-47 0 -76.5 -29
t-43 -74.5t-13.5 -96.5q0 -59 15 -112t46.5 -87t80.5 -34zM290 -186q-22 0 -37.5 16.5t-15.5 39.5q0 24 16 40.5t37 16.5q22 0 37 -16.5t15 -40.5q0 -23 -15.5 -39.5t-36.5 -16.5zM417 576l-127 108h-2l-129 -101l-30 35l163 162h4l153 -166z" />
    <glyph glyph-name="uni1ED3" unicode="&#x1ed3;" horiz-adv-x="579" 
d="M290 -16q-71 0 -128 32t-90.5 89.5t-33.5 132.5q0 81 33.5 143.5t90.5 98.5t127 36q71 0 128 -32.5t90.5 -90t33.5 -132.5q0 -79 -33 -142t-89.5 -99t-128.5 -36zM297 34q48 1 75.5 30t39.5 74.5t12 94.5q0 43 -7.5 84.5t-23.5 75.5t-42 54.5t-63 19.5q-47 0 -76.5 -29
t-43 -74.5t-13.5 -96.5q0 -59 15 -112t46.5 -87t80.5 -34zM399 554l-109 70l-110 -70l-21 29l131 119h6l125 -119zM422 670l-115 106q-18 16 -22 31.5t0.5 28.5t12.5 20q7 6 19.5 9t27.5 -3t27 -27l84 -136z" />
    <glyph glyph-name="uni1ED5" unicode="&#x1ed5;" horiz-adv-x="579" 
d="M290 -16q-71 0 -128 32t-90.5 89.5t-33.5 132.5q0 81 33.5 143.5t90.5 98.5t127 36q71 0 128 -32.5t90.5 -90t33.5 -132.5q0 -79 -33 -142t-89.5 -99t-128.5 -36zM297 34q48 1 75.5 30t39.5 74.5t12 94.5q0 43 -7.5 84.5t-23.5 75.5t-42 54.5t-63 19.5q-47 0 -76.5 -29
t-43 -74.5t-13.5 -96.5q0 -59 15 -112t46.5 -87t80.5 -34zM400 554l-110 70l-109 -70l-22 29l132 119h6l124 -119zM412 663q0 19 13 31l26 24q9 8 13.5 18.5t4.5 21.5q0 20 -14 34.5t-38 14.5q-21 0 -34.5 -10t-15.5 -19q7 -2 10.5 -7.5t3.5 -12.5q0 -12 -9 -20t-23 -8
q-16 0 -27.5 11t-11.5 32q0 19 12 36.5t36.5 29.5t57.5 12q55 0 85 -25.5t30 -59.5q0 -26 -12.5 -40.5t-29.5 -27.5q-12 -10 -20.5 -18t-8.5 -17h-48z" />
    <glyph glyph-name="uni1ED7" unicode="&#x1ed7;" horiz-adv-x="579" 
d="M290 -16q-71 0 -128 32t-90.5 89.5t-33.5 132.5q0 81 33.5 143.5t90.5 98.5t127 36q71 0 128 -32.5t90.5 -90t33.5 -132.5q0 -79 -33 -142t-89.5 -99t-128.5 -36zM297 34q48 1 75.5 30t39.5 74.5t12 94.5q0 43 -7.5 84.5t-23.5 75.5t-42 54.5t-63 19.5q-47 0 -76.5 -29
t-43 -74.5t-13.5 -96.5q0 -59 15 -112t46.5 -87t80.5 -34zM400 554l-110 70l-109 -70l-22 29l132 119h5l125 -119zM478 813q-18 -54 -49.5 -78.5t-58.5 -24.5q-30 0 -51.5 12.5t-39 24.5t-37.5 12q-16 0 -35.5 -9t-33.5 -32l-39 22q15 39 46 65t61 27q32 0 52 -12t37 -24
t40 -12q20 0 38.5 13t30.5 35z" />
    <glyph glyph-name="odieresis" unicode="&#xf6;" horiz-adv-x="579" 
d="M290 -16q-71 0 -128 32t-90.5 89.5t-33.5 132.5q0 81 33.5 143.5t90.5 98.5t127 36q71 0 128 -32.5t90.5 -90t33.5 -132.5q0 -79 -33 -142t-89.5 -99t-128.5 -36zM297 34q48 1 75.5 30t39.5 74.5t12 94.5q0 43 -7.5 84.5t-23.5 75.5t-42 54.5t-63 19.5q-47 0 -76.5 -29
t-43 -74.5t-13.5 -96.5q0 -59 15 -112t46.5 -87t80.5 -34zM373 607q-23 0 -39.5 19t-16.5 46t17 46t39 19q24 0 39.5 -19t15.5 -46t-16.5 -46t-38.5 -19zM203 607q-22 0 -38.5 19t-16.5 46t17 46t39 19q24 0 39.5 -19t15.5 -46t-16.5 -46t-39.5 -19z" />
    <glyph glyph-name="uni1ECD" unicode="&#x1ecd;" horiz-adv-x="579" 
d="M290 -16q-71 0 -128 32t-90.5 89.5t-33.5 132.5q0 81 33.5 143.5t90.5 98.5t127 36q71 0 128 -32.5t90.5 -90t33.5 -132.5q0 -79 -33 -142t-89.5 -99t-128.5 -36zM297 34q48 1 75.5 30t39.5 74.5t12 94.5q0 43 -7.5 84.5t-23.5 75.5t-42 54.5t-63 19.5q-47 0 -76.5 -29
t-43 -74.5t-13.5 -96.5q0 -59 15 -112t46.5 -87t80.5 -34zM290 -186q-22 0 -37.5 16.5t-15.5 39.5q0 24 16 40.5t37 16.5q22 0 37 -16.5t15 -40.5q0 -23 -15.5 -39.5t-36.5 -16.5z" />
    <glyph glyph-name="ograve" unicode="&#xf2;" horiz-adv-x="579" 
d="M290 -16q-71 0 -128 32t-90.5 89.5t-33.5 132.5q0 81 33.5 143.5t90.5 98.5t127 36q71 0 128 -32.5t90.5 -90t33.5 -132.5q0 -79 -33 -142t-89.5 -99t-128.5 -36zM297 34q48 1 75.5 30t39.5 74.5t12 94.5q0 43 -7.5 84.5t-23.5 75.5t-42 54.5t-63 19.5q-47 0 -76.5 -29
t-43 -74.5t-13.5 -96.5q0 -59 15 -112t46.5 -87t80.5 -34zM341 575l-115 106q-17 16 -21 32t0.5 29t12.5 19q7 6 19.5 9t27 -2.5t27.5 -26.5l83 -137z" />
    <glyph glyph-name="uni1ECF" unicode="&#x1ecf;" horiz-adv-x="579" 
d="M290 -16q-71 0 -128 32t-90.5 89.5t-33.5 132.5q0 81 33.5 143.5t90.5 98.5t127 36q71 0 128 -32.5t90.5 -90t33.5 -132.5q0 -79 -33 -142t-89.5 -99t-128.5 -36zM297 34q48 1 75.5 30t39.5 74.5t12 94.5q0 43 -7.5 84.5t-23.5 75.5t-42 54.5t-63 19.5q-47 0 -76.5 -29
t-43 -74.5t-13.5 -96.5q0 -59 15 -112t46.5 -87t80.5 -34zM272 564q0 19 12.5 30.5t25.5 23.5q9 8 14 18.5t5 21.5q0 21 -14.5 35t-37.5 14q-22 0 -35 -9.5t-15 -19.5q6 -2 10 -7.5t4 -12.5q0 -11 -9.5 -19t-22.5 -8q-16 0 -28 11t-12 31q0 19 12.5 37t36.5 29.5t58 11.5
q55 0 84.5 -25.5t29.5 -59.5q0 -26 -12 -40.5t-29 -27.5q-12 -9 -20.5 -17.5t-8.5 -16.5h-48z" />
    <glyph glyph-name="ohorn" unicode="&#x1a1;" horiz-adv-x="579" 
d="M290 -16q-71 0 -128 32t-90.5 89.5t-33.5 132.5q0 81 33.5 143.5t90.5 98.5t127 36q71 0 128 -32.5t90.5 -90t33.5 -132.5q0 -79 -33 -142t-89.5 -99t-128.5 -36zM297 34q48 1 75.5 30t39.5 74.5t12 94.5q0 43 -7.5 84.5t-23.5 75.5t-42 54.5t-63 19.5q-47 0 -76.5 -29
t-43 -74.5t-13.5 -96.5q0 -59 15 -112t46.5 -87t80.5 -34zM378 441v56q38 0 59.5 26t21.5 54h87q0 -37 -21 -68t-58.5 -49.5t-88.5 -18.5z" />
    <glyph glyph-name="uni1EDB" unicode="&#x1edb;" horiz-adv-x="579" 
d="M290 -16q-71 0 -128 32t-90.5 89.5t-33.5 132.5q0 81 33.5 143.5t90.5 98.5t127 36q71 0 128 -32.5t90.5 -90t33.5 -132.5q0 -79 -33 -142t-89.5 -99t-128.5 -36zM297 34q48 1 75.5 30t39.5 74.5t12 94.5q0 43 -7.5 84.5t-23.5 75.5t-42 54.5t-63 19.5q-47 0 -76.5 -29
t-43 -74.5t-13.5 -96.5q0 -59 15 -112t46.5 -87t80.5 -34zM378 441v56q38 0 59.5 26t21.5 54h87q0 -37 -21 -68t-58.5 -49.5t-88.5 -18.5zM237 575l-34 29l83 137q14 20 28.5 25.5t27 3t19.5 -8.5q8 -6 12 -19t-0.5 -28.5t-20.5 -32.5z" />
    <glyph glyph-name="uni1EE3" unicode="&#x1ee3;" horiz-adv-x="579" 
d="M290 -16q-71 0 -128 32t-90.5 89.5t-33.5 132.5q0 81 33.5 143.5t90.5 98.5t127 36q71 0 128 -32.5t90.5 -90t33.5 -132.5q0 -79 -33 -142t-89.5 -99t-128.5 -36zM297 34q48 1 75.5 30t39.5 74.5t12 94.5q0 43 -7.5 84.5t-23.5 75.5t-42 54.5t-63 19.5q-47 0 -76.5 -29
t-43 -74.5t-13.5 -96.5q0 -59 15 -112t46.5 -87t80.5 -34zM378 441v56q38 0 59.5 26t21.5 54h87q0 -37 -21 -68t-58.5 -49.5t-88.5 -18.5zM290 -186q-22 0 -37.5 16.5t-15.5 39.5q0 24 16 40.5t37 16.5q22 0 37 -16.5t15 -40.5q0 -23 -15.5 -39.5t-36.5 -16.5z" />
    <glyph glyph-name="uni1EDD" unicode="&#x1edd;" horiz-adv-x="579" 
d="M290 -16q-71 0 -128 32t-90.5 89.5t-33.5 132.5q0 81 33.5 143.5t90.5 98.5t127 36q71 0 128 -32.5t90.5 -90t33.5 -132.5q0 -79 -33 -142t-89.5 -99t-128.5 -36zM297 34q48 1 75.5 30t39.5 74.5t12 94.5q0 43 -7.5 84.5t-23.5 75.5t-42 54.5t-63 19.5q-47 0 -76.5 -29
t-43 -74.5t-13.5 -96.5q0 -59 15 -112t46.5 -87t80.5 -34zM378 441v56q38 0 59.5 26t21.5 54h87q0 -37 -21 -68t-58.5 -49.5t-88.5 -18.5zM341 575l-115 106q-17 16 -21 32t0.5 29t12.5 19q7 6 19.5 9t27 -2.5t27.5 -26.5l83 -137z" />
    <glyph glyph-name="uni1EDF" unicode="&#x1edf;" horiz-adv-x="579" 
d="M290 -16q-71 0 -128 32t-90.5 89.5t-33.5 132.5q0 81 33.5 143.5t90.5 98.5t127 36q71 0 128 -32.5t90.5 -90t33.5 -132.5q0 -79 -33 -142t-89.5 -99t-128.5 -36zM297 34q48 1 75.5 30t39.5 74.5t12 94.5q0 43 -7.5 84.5t-23.5 75.5t-42 54.5t-63 19.5q-47 0 -76.5 -29
t-43 -74.5t-13.5 -96.5q0 -59 15 -112t46.5 -87t80.5 -34zM378 441v56q38 0 59.5 26t21.5 54h87q0 -37 -21 -68t-58.5 -49.5t-88.5 -18.5zM272 564q0 19 12.5 30.5t25.5 23.5q9 8 14 18.5t5 21.5q0 21 -14.5 35t-37.5 14q-22 0 -35 -9.5t-15 -19.5q6 -2 10 -7.5t4 -12.5
q0 -11 -9.5 -19t-22.5 -8q-16 0 -28 11t-12 31q0 19 12.5 37t36.5 29.5t58 11.5q55 0 84.5 -25.5t29.5 -59.5q0 -26 -12 -40.5t-29 -27.5q-12 -9 -20.5 -17.5t-8.5 -16.5h-48z" />
    <glyph glyph-name="uni1EE1" unicode="&#x1ee1;" horiz-adv-x="579" 
d="M290 -16q-71 0 -128 32t-90.5 89.5t-33.5 132.5q0 81 33.5 143.5t90.5 98.5t127 36q71 0 128 -32.5t90.5 -90t33.5 -132.5q0 -79 -33 -142t-89.5 -99t-128.5 -36zM297 34q48 1 75.5 30t39.5 74.5t12 94.5q0 43 -7.5 84.5t-23.5 75.5t-42 54.5t-63 19.5q-47 0 -76.5 -29
t-43 -74.5t-13.5 -96.5q0 -59 15 -112t46.5 -87t80.5 -34zM378 441v56q38 0 59.5 26t21.5 54h87q0 -37 -21 -68t-58.5 -49.5t-88.5 -18.5zM461 713q-18 -54 -49 -78.5t-59 -24.5q-29 0 -50.5 12.5t-39.5 24.5t-37 12q-16 0 -35.5 -9t-34.5 -32l-38 22q14 39 45.5 65t61.5 27
q31 0 51 -12t37.5 -24t39.5 -12q21 0 39 13t31 35z" />
    <glyph glyph-name="ohungarumlaut" unicode="&#x151;" horiz-adv-x="579" 
d="M290 -16q-71 0 -128 32t-90.5 89.5t-33.5 132.5q0 81 33.5 143.5t90.5 98.5t127 36q71 0 128 -32.5t90.5 -90t33.5 -132.5q0 -79 -33 -142t-89.5 -99t-128.5 -36zM297 34q48 1 75.5 30t39.5 74.5t12 94.5q0 43 -7.5 84.5t-23.5 75.5t-42 54.5t-63 19.5q-47 0 -76.5 -29
t-43 -74.5t-13.5 -96.5q0 -59 15 -112t46.5 -87t80.5 -34zM308 586l-25 33l113 126q18 19 40 23t35 -13q9 -11 7.5 -24.5t-10 -26t-19.5 -20.5zM202 587l-36 24l59 131q13 28 33 37t37 -3q11 -6 15 -18.5t0 -27.5t-16 -30z" />
    <glyph glyph-name="omacron" unicode="&#x14d;" horiz-adv-x="579" 
d="M290 -16q-71 0 -128 32t-90.5 89.5t-33.5 132.5q0 81 33.5 143.5t90.5 98.5t127 36q71 0 128 -32.5t90.5 -90t33.5 -132.5q0 -79 -33 -142t-89.5 -99t-128.5 -36zM297 34q48 1 75.5 30t39.5 74.5t12 94.5q0 43 -7.5 84.5t-23.5 75.5t-42 54.5t-63 19.5q-47 0 -76.5 -29
t-43 -74.5t-13.5 -96.5q0 -59 15 -112t46.5 -87t80.5 -34zM153 636v72h271v-68z" />
    <glyph glyph-name="oslash" unicode="&#xf8;" horiz-adv-x="579" 
d="M117 -78l-45 34l387 612l54 -35zM290 -16q-71 0 -128 32t-90.5 89.5t-33.5 132.5q0 81 33.5 143.5t90.5 98.5t127 36q71 0 128 -32.5t90.5 -90t33.5 -132.5q0 -79 -33 -142t-89.5 -99t-128.5 -36zM297 34q48 1 75.5 30t39.5 74.5t12 94.5q0 43 -7.5 84.5t-23.5 75.5
t-42 54.5t-63 19.5q-47 0 -76.5 -29t-43 -74.5t-13.5 -96.5q0 -59 15 -112t46.5 -87t80.5 -34z" />
    <glyph glyph-name="oslashacute" unicode="&#x1ff;" horiz-adv-x="579" 
d="M117 -78l-45 34l387 612l54 -35zM290 -16q-71 0 -128 32t-90.5 89.5t-33.5 132.5q0 81 33.5 143.5t90.5 98.5t127 36q71 0 128 -32.5t90.5 -90t33.5 -132.5q0 -79 -33 -142t-89.5 -99t-128.5 -36zM297 34q48 1 75.5 30t39.5 74.5t12 94.5q0 43 -7.5 84.5t-23.5 75.5
t-42 54.5t-63 19.5q-47 0 -76.5 -29t-43 -74.5t-13.5 -96.5q0 -59 15 -112t46.5 -87t80.5 -34zM238 575l-34 29l83 137q14 20 28.5 25.5t27 3t19.5 -8.5q8 -6 12 -19t-0.5 -28.5t-20.5 -32.5z" />
    <glyph glyph-name="otilde" unicode="&#xf5;" horiz-adv-x="579" 
d="M290 -16q-71 0 -128 32t-90.5 89.5t-33.5 132.5q0 81 33.5 143.5t90.5 98.5t127 36q71 0 128 -32.5t90.5 -90t33.5 -132.5q0 -79 -33 -142t-89.5 -99t-128.5 -36zM297 34q48 1 75.5 30t39.5 74.5t12 94.5q0 43 -7.5 84.5t-23.5 75.5t-42 54.5t-63 19.5q-47 0 -76.5 -29
t-43 -74.5t-13.5 -96.5q0 -59 15 -112t46.5 -87t80.5 -34zM461 713q-18 -54 -49 -78.5t-59 -24.5q-29 0 -50.5 12.5t-39.5 24.5t-37 12q-16 0 -35.5 -9t-34.5 -32l-38 22q14 39 45.5 65t61.5 27q31 0 51 -12t37.5 -24t39.5 -12q21 0 39 13t31 35z" />
    <glyph glyph-name="oe" unicode="&#x153;" horiz-adv-x="885" 
d="M280 -16q-71 0 -125.5 32t-85.5 89.5t-31 132.5q0 81 31 143.5t85.5 98.5t124.5 36q63 0 106 -25.5t74 -72.5h1q30 42 74.5 70t105.5 28q41 0 77.5 -13t64 -41t43 -71.5t15.5 -104.5l-328 -6q0 -67 15 -119.5t48.5 -82.5t88.5 -30q42 0 84 21.5t70 58.5l32 -27
q-30 -45 -67.5 -70.5t-75.5 -36t-72 -10.5q-56 0 -104.5 24t-76.5 70h-1q-30 -43 -74 -68.5t-99 -25.5zM286 34q38 0 62 20t36.5 51.5t16.5 69.5t4 73q-2 42 -9 81.5t-22 70.5t-38.5 49.5t-56.5 17.5q-46 0 -73.5 -29t-39 -74.5t-11.5 -96.5q0 -59 13 -112t41.5 -87
t76.5 -34zM517 331h214q-1 39 -11 69.5t-30.5 48.5t-53.5 18q-51 1 -80 -35t-39 -101z" />
    <glyph glyph-name="p" unicode="p" horiz-adv-x="598" 
d="M34 -255v42q30 0 42 14t14.5 39t2.5 58l1 463q0 16 1 34.5t3 36.5q-17 -1 -36 -1.5t-35 -1.5v53q45 0 70.5 4.5t39 10.5t20.5 13h36q1 -10 2 -24l2 -28q32 28 71 43t78 15q58 0 106.5 -30.5t78 -86.5t29.5 -133q0 -83 -34 -147t-91.5 -99.5t-127.5 -35.5q-32 0 -59 7.5
t-51 20.5v-143q0 -18 -0.5 -36.5t-2.5 -37.5q16 1 32.5 1.5t30.5 1.5v-53h-223zM300 36q48 0 79.5 28.5t47 77t15.5 109.5q0 51 -14 97.5t-44.5 76t-79.5 28.5q-31 0 -59 -15t-47 -37q0 -13 0.5 -28t0.5 -37.5v-57t-0.5 -86t-0.5 -124.5q20 -15 46.5 -24t55.5 -8z" />
    <glyph glyph-name="thorn" unicode="&#xfe;" horiz-adv-x="576" 
d="M11 -255v42q30 0 42 14t14.5 39t2.5 58l2 707q0 17 0.5 35.5t2.5 36.5q-17 -1 -36 -1.5t-34 -1.5v53q45 0 71.5 4.5t40.5 10.5t21 13h37v-293q31 25 68.5 39.5t76.5 14.5q61 0 110 -30.5t77.5 -87.5t28.5 -134q0 -84 -33.5 -147t-90.5 -98t-128 -35q-33 0 -59.5 7
t-49.5 20v-142q0 -18 -1 -36.5t-3 -37.5q16 1 32.5 1.5t30.5 1.5v-53h-223zM277 36q47 0 78.5 28t47.5 76t16 109q0 51 -14.5 98t-45 77t-79.5 29q-31 0 -58.5 -13t-46.5 -35v-338q20 -15 46.5 -23.5t55.5 -7.5z" />
    <glyph glyph-name="q" unicode="q" horiz-adv-x="575" 
d="M341 -255v42q30 0 42 14t14.5 39t2.5 58l1 147q-28 -31 -65 -46t-81 -15q-61 0 -110 31.5t-77.5 88.5t-28.5 134q0 83 33 145.5t91 97.5t130 35q47 0 81 -11t57 -11q10 0 19.5 4t17.5 12h36l1 -641q0 -18 -0.5 -36.5t-3.5 -37.5q16 1 33 1.5t31 1.5v-53h-224zM297 47
q30 0 58 16t45 42v253q0 39 -11.5 63t-34 35t-56.5 11q-47 0 -78.5 -27.5t-47.5 -74.5t-16 -106q1 -56 16.5 -104.5t47 -78t77.5 -29.5z" />
    <glyph glyph-name="r" unicode="r" horiz-adv-x="449" 
d="M43 42q30 0 42 14t14.5 39t2.5 58v208q0 16 0.5 34.5t3.5 36.5q-17 -1 -36 -1.5t-35 -1.5v53h34q42 0 64 9t32 19h36q2 -14 3 -39t2 -56q19 28 44 50.5t54.5 36.5t61.5 14q31 0 53.5 -16.5t22.5 -53.5q0 -10 -5.5 -23t-18 -22.5t-33.5 -9.5q-21 1 -36.5 16t-14.5 41
q-24 0 -48 -14.5t-44.5 -38.5t-34.5 -52v-219q0 -18 -0.5 -36.5t-3.5 -37.5q16 1 33 1.5t31 1.5v-53h-224v42z" />
    <glyph glyph-name="racute" unicode="&#x155;" horiz-adv-x="449" 
d="M43 42q30 0 42 14t14.5 39t2.5 58v208q0 16 0.5 34.5t3.5 36.5q-17 -1 -36 -1.5t-35 -1.5v53h34q42 0 64 9t32 19h36q2 -14 3 -39t2 -56q19 28 44 50.5t54.5 36.5t61.5 14q31 0 53.5 -16.5t22.5 -53.5q0 -10 -5.5 -23t-18 -22.5t-33.5 -9.5q-21 1 -36.5 16t-14.5 41
q-24 0 -48 -14.5t-44.5 -38.5t-34.5 -52v-219q0 -18 -0.5 -36.5t-3.5 -37.5q16 1 33 1.5t31 1.5v-53h-224v42zM214 575l-34 29l83 137q14 20 28.5 25.5t27 3t19.5 -8.5q8 -6 12 -19t-0.5 -28.5t-20.5 -32.5z" />
    <glyph glyph-name="rcaron" unicode="&#x159;" horiz-adv-x="449" 
d="M43 42q30 0 42 14t14.5 39t2.5 58v208q0 16 0.5 34.5t3.5 36.5q-17 -1 -36 -1.5t-35 -1.5v53h34q42 0 64 9t32 19h36q2 -14 3 -39t2 -56q19 28 44 50.5t54.5 36.5t61.5 14q31 0 53.5 -16.5t22.5 -53.5q0 -10 -5.5 -23t-18 -22.5t-33.5 -9.5q-21 1 -36.5 16t-14.5 41
q-24 0 -48 -14.5t-44.5 -38.5t-34.5 -52v-219q0 -18 -0.5 -36.5t-3.5 -37.5q16 1 33 1.5t31 1.5v-53h-224v42zM260 568l-153 165l32 38l128 -108h1l127 109l30 -35l-160 -169h-5z" />
    <glyph glyph-name="uni0157" unicode="&#x157;" horiz-adv-x="449" 
d="M43 42q30 0 42 14t14.5 39t2.5 58v208q0 16 0.5 34.5t3.5 36.5q-17 -1 -36 -1.5t-35 -1.5v53h34q42 0 64 9t32 19h36q2 -14 3 -39t2 -56q19 28 44 50.5t54.5 36.5t61.5 14q31 0 53.5 -16.5t22.5 -53.5q0 -10 -5.5 -23t-18 -22.5t-33.5 -9.5q-21 1 -36.5 16t-14.5 41
q-24 0 -48 -14.5t-44.5 -38.5t-34.5 -52v-219q0 -18 -0.5 -36.5t-3.5 -37.5q16 1 33 1.5t31 1.5v-53h-224v42zM189 -267l-33 24q23 40 31 70.5t6 58t-11 56.5l76 19q18 -32 18 -66q0 -40 -23.5 -81.5t-63.5 -80.5z" />
    <glyph glyph-name="s" unicode="s" horiz-adv-x="470" 
d="M256 -16q-47 0 -87 12.5t-64 29.5l3 -33h-53l-5 172h42q2 -37 23 -67t54.5 -47t72.5 -17q23 0 45 7.5t37 23t15 38.5q0 25 -15.5 41.5t-42 29.5t-60.5 26q-30 12 -60.5 25t-56.5 31t-41 44.5t-15 65.5q0 23 9 49.5t29 49t54 37t84 14.5q27 0 60.5 -9t62.5 -31l-1 35h53
v-176h-43q-3 35 -18.5 65t-43.5 49t-68 19q-39 0 -63.5 -19.5t-24.5 -48.5t18.5 -47t48.5 -31t65 -26q42 -17 79 -37t60 -50t23 -76q0 -50 -25.5 -83.5t-65.5 -49.5t-85 -16z" />
    <glyph glyph-name="sacute" unicode="&#x15b;" horiz-adv-x="470" 
d="M256 -16q-47 0 -87 12.5t-64 29.5l3 -33h-53l-5 172h42q2 -37 23 -67t54.5 -47t72.5 -17q23 0 45 7.5t37 23t15 38.5q0 25 -15.5 41.5t-42 29.5t-60.5 26q-30 12 -60.5 25t-56.5 31t-41 44.5t-15 65.5q0 23 9 49.5t29 49t54 37t84 14.5q27 0 60.5 -9t62.5 -31l-1 35h53
v-176h-43q-3 35 -18.5 65t-43.5 49t-68 19q-39 0 -63.5 -19.5t-24.5 -48.5t18.5 -47t48.5 -31t65 -26q42 -17 79 -37t60 -50t23 -76q0 -50 -25.5 -83.5t-65.5 -49.5t-85 -16zM179 575l-34 29l83 137q14 20 28.5 25.5t27 3t19.5 -8.5q8 -6 12 -19t-0.5 -28.5t-20.5 -32.5z
" />
    <glyph glyph-name="scaron" unicode="&#x161;" horiz-adv-x="470" 
d="M256 -16q-47 0 -87 12.5t-64 29.5l3 -33h-53l-5 172h42q2 -37 23 -67t54.5 -47t72.5 -17q23 0 45 7.5t37 23t15 38.5q0 25 -15.5 41.5t-42 29.5t-60.5 26q-30 12 -60.5 25t-56.5 31t-41 44.5t-15 65.5q0 23 9 49.5t29 49t54 37t84 14.5q27 0 60.5 -9t62.5 -31l-1 35h53
v-176h-43q-3 35 -18.5 65t-43.5 49t-68 19q-39 0 -63.5 -19.5t-24.5 -48.5t18.5 -47t48.5 -31t65 -26q42 -17 79 -37t60 -50t23 -76q0 -50 -25.5 -83.5t-65.5 -49.5t-85 -16zM225 568l-153 165l32 38l128 -108h1l127 109l30 -35l-160 -169h-5z" />
    <glyph glyph-name="scedilla" unicode="&#x15f;" horiz-adv-x="470" 
d="M256 -16q-47 0 -87 12.5t-64 29.5l3 -33h-53l-5 172h42q2 -37 23 -67t54.5 -47t72.5 -17q23 0 45 7.5t37 23t15 38.5q0 25 -15.5 41.5t-42 29.5t-60.5 26q-30 12 -60.5 25t-56.5 31t-41 44.5t-15 65.5q0 23 9 49.5t29 49t54 37t84 14.5q27 0 60.5 -9t62.5 -31l-1 35h53
v-176h-43q-3 35 -18.5 65t-43.5 49t-68 19q-39 0 -63.5 -19.5t-24.5 -48.5t18.5 -47t48.5 -31t65 -26q42 -17 79 -37t60 -50t23 -76q0 -50 -25.5 -83.5t-65.5 -49.5t-85 -16zM184 -247l-7 39q21 4 42 10.5t39 15t28.5 20.5t10.5 27q0 19 -13.5 24.5t-30.5 2t-30 -13.5
l-35 16l30 115h62l-27 -81q13 7 32.5 11.5t35.5 4.5q31 0 50 -17.5t19 -49.5t-21.5 -54t-55 -36t-68 -22t-61.5 -12z" />
    <glyph glyph-name="scircumflex" unicode="&#x15d;" horiz-adv-x="470" 
d="M256 -16q-47 0 -87 12.5t-64 29.5l3 -33h-53l-5 172h42q2 -37 23 -67t54.5 -47t72.5 -17q23 0 45 7.5t37 23t15 38.5q0 25 -15.5 41.5t-42 29.5t-60.5 26q-30 12 -60.5 25t-56.5 31t-41 44.5t-15 65.5q0 23 9 49.5t29 49t54 37t84 14.5q27 0 60.5 -9t62.5 -31l-1 35h53
v-176h-43q-3 35 -18.5 65t-43.5 49t-68 19q-39 0 -63.5 -19.5t-24.5 -48.5t18.5 -47t48.5 -31t65 -26q42 -17 79 -37t60 -50t23 -76q0 -50 -25.5 -83.5t-65.5 -49.5t-85 -16zM359 576l-127 108h-2l-129 -101l-30 35l163 162h4l153 -166z" />
    <glyph glyph-name="uni0219" unicode="&#x219;" horiz-adv-x="470" 
d="M256 -16q-47 0 -87 12.5t-64 29.5l3 -33h-53l-5 172h42q2 -37 23 -67t54.5 -47t72.5 -17q23 0 45 7.5t37 23t15 38.5q0 25 -15.5 41.5t-42 29.5t-60.5 26q-30 12 -60.5 25t-56.5 31t-41 44.5t-15 65.5q0 23 9 49.5t29 49t54 37t84 14.5q27 0 60.5 -9t62.5 -31l-1 35h53
v-176h-43q-3 35 -18.5 65t-43.5 49t-68 19q-39 0 -63.5 -19.5t-24.5 -48.5t18.5 -47t48.5 -31t65 -26q42 -17 79 -37t60 -50t23 -76q0 -50 -25.5 -83.5t-65.5 -49.5t-85 -16zM233 -267l-33 24q23 40 31 70.5t6 58t-11 56.5l76 19q18 -32 18 -66q0 -40 -23.5 -81.5
t-63.5 -80.5z" />
    <glyph glyph-name="germandbls" unicode="&#xdf;" horiz-adv-x="711" 
d="M515 -16q-29 0 -61.5 9t-57.5 25l3 -26h-54l-5 172h42q4 -56 37 -93t93 -37q30 0 55 18t25 53t-30.5 56t-77.5 42q-37 17 -73 36.5t-58.5 49.5t-22.5 78q0 62 41 103.5t122 44.5q1 67 -13.5 105.5t-37 56.5t-46.5 23t-44 5q-52 -1 -83 -30t-45 -81.5t-14 -125.5l1 -343
q0 -18 -1 -37t-3 -38q16 1 33.5 1.5t31.5 1.5v-53h-225v42q30 0 42 14t14.5 39t2.5 58l-1 291l-78 -2v58h79q3 83 33.5 140.5t85.5 87.5t132 30q36 0 70.5 -8.5t65 -26.5t54 -46t36.5 -67t13 -89q0 -13 -1 -26.5t-3 -27.5q-23 2 -52.5 2t-56.5 -5.5t-44.5 -20t-17.5 -43.5
q0 -25 15 -43t40 -32t57 -28q40 -17 75.5 -38.5t57.5 -51t22 -73.5q0 -51 -23 -84t-61.5 -49.5t-88.5 -16.5z" />
    <glyph glyph-name="longs" unicode="&#x17f;" horiz-adv-x="348" 
d="M47 0v42q30 0 42 14t14.5 39t2.5 58v291l-79 -2v58h79v24q0 114 44.5 174t140.5 60q30 0 56 -9.5t42 -27t16 -41.5q0 -22 -12.5 -37t-35.5 -16q-26 -1 -37.5 15t-11.5 32q0 5 0.5 11t3.5 12q-7 8 -17.5 11t-19.5 3q-26 0 -40 -15t-20 -38t-6 -47l2 -486q0 -18 -1 -37
t-3 -38q16 1 33.5 1.5t31.5 1.5v-53h-225z" />
    <glyph glyph-name="t" unicode="t" horiz-adv-x="396" 
d="M234 -16q-25 0 -50.5 6.5t-46.5 26t-33 56.5t-12 98l2 273h-74v56q27 1 55 20t49 51t29 69h47v-140h154v-52l-154 -2l-2 -267q0 -38 6.5 -66.5t22 -44t42.5 -15.5q23 0 47.5 14t46.5 46l34 -30q-24 -35 -48 -55t-46 -29.5t-40 -12t-29 -2.5z" />
    <glyph glyph-name="tbar" unicode="&#x167;" horiz-adv-x="396" 
d="M31 282v46h315v-42zM234 -16q-25 0 -50.5 6.5t-46.5 26t-33 56.5t-12 98l2 273h-74v56q27 1 55 20t49 51t29 69h47v-140h154v-52l-154 -2l-2 -267q0 -38 6.5 -66.5t22 -44t42.5 -15.5q23 0 47.5 14t46.5 46l34 -30q-24 -35 -48 -55t-46 -29.5t-40 -12t-29 -2.5z" />
    <glyph glyph-name="tcaron" unicode="&#x165;" horiz-adv-x="396" 
d="M306 561l-31 23q23 43 31.5 78t6.5 66t-10 61l76 -14q8 -18 10.5 -31t0.5 -32q-4 -40 -28 -79.5t-56 -71.5zM234 -16q-25 0 -50.5 6.5t-46.5 26t-33 56.5t-12 98l2 273h-74v56q27 1 55 20t49 51t29 69h47v-140h154v-52l-154 -2l-2 -267q0 -38 6.5 -66.5t22 -44
t42.5 -15.5q23 0 47.5 14t46.5 46l34 -30q-24 -35 -48 -55t-46 -29.5t-40 -12t-29 -2.5z" />
    <glyph glyph-name="uni0163" unicode="&#x163;" horiz-adv-x="396" 
d="M234 -16q-25 0 -50.5 6.5t-46.5 26t-33 56.5t-12 98l2 273h-74v56q27 1 55 20t49 51t29 69h47v-140h154v-52l-154 -2l-2 -267q0 -38 6.5 -66.5t22 -44t42.5 -15.5q23 0 47.5 14t46.5 46l34 -30q-24 -35 -48 -55t-46 -29.5t-40 -12t-29 -2.5zM166 -247l-7 39q21 4 42 10.5
t39 15t28.5 20.5t10.5 27q0 19 -13.5 24.5t-30.5 2t-30 -13.5l-35 16l30 115h62l-27 -81q13 7 32.5 11.5t35.5 4.5q31 0 50 -17.5t19 -49.5t-21.5 -54t-55 -36t-68 -22t-61.5 -12z" />
    <glyph glyph-name="uni021B" unicode="&#x21b;" horiz-adv-x="396" 
d="M234 -16q-25 0 -50.5 6.5t-46.5 26t-33 56.5t-12 98l2 273h-74v56q27 1 55 20t49 51t29 69h47v-140h154v-52l-154 -2l-2 -267q0 -38 6.5 -66.5t22 -44t42.5 -15.5q23 0 47.5 14t46.5 46l34 -30q-24 -35 -48 -55t-46 -29.5t-40 -12t-29 -2.5zM216 -267l-33 24
q23 40 31 70.5t6 58t-11 56.5l76 19q18 -32 18 -66q0 -40 -23.5 -81.5t-63.5 -80.5z" />
    <glyph glyph-name="u" unicode="u" horiz-adv-x="604" 
d="M253 -16q-56 0 -92.5 21t-54.5 69.5t-18 128.5v157q0 17 0.5 35.5t3.5 36.5q-17 -1 -36 -1.5t-34 -1.5v53h24q50 0 75 9t35 19h38v-305q0 -79 22 -118t74 -38q34 0 65.5 20t51.5 47v237q0 22 1 41.5t4 37.5q-18 -1 -37 -1.5t-35 -1.5v53h29q44 0 69 9t36 19h38l-1 -368
q0 -16 -1 -43.5t-3 -48.5q17 1 35.5 2t34.5 1v-53h-159q-2 16 -3.5 30t-3.5 27q-31 -29 -72 -51t-86 -22z" />
    <glyph glyph-name="uacute" unicode="&#xfa;" horiz-adv-x="604" 
d="M253 -16q-56 0 -92.5 21t-54.5 69.5t-18 128.5v157q0 17 0.5 35.5t3.5 36.5q-17 -1 -36 -1.5t-34 -1.5v53h24q50 0 75 9t35 19h38v-305q0 -79 22 -118t74 -38q34 0 65.5 20t51.5 47v237q0 22 1 41.5t4 37.5q-18 -1 -37 -1.5t-35 -1.5v53h29q44 0 69 9t36 19h38l-1 -368
q0 -16 -1 -43.5t-3 -48.5q17 1 35.5 2t34.5 1v-53h-159q-2 16 -3.5 30t-3.5 27q-31 -29 -72 -51t-86 -22zM251 575l-34 29l83 137q14 20 28.5 25.5t27 3t19.5 -8.5q8 -6 12 -19t-0.5 -28.5t-20.5 -32.5z" />
    <glyph glyph-name="ubreve" unicode="&#x16d;" horiz-adv-x="604" 
d="M253 -16q-56 0 -92.5 21t-54.5 69.5t-18 128.5v157q0 17 0.5 35.5t3.5 36.5q-17 -1 -36 -1.5t-34 -1.5v53h24q50 0 75 9t35 19h38v-305q0 -79 22 -118t74 -38q34 0 65.5 20t51.5 47v237q0 22 1 41.5t4 37.5q-18 -1 -37 -1.5t-35 -1.5v53h29q44 0 69 9t36 19h38l-1 -368
q0 -16 -1 -43.5t-3 -48.5q17 1 35.5 2t34.5 1v-53h-159q-2 16 -3.5 30t-3.5 27q-31 -29 -72 -51t-86 -22zM301 603q-27 0 -54.5 12.5t-50.5 39t-37 68.5l41 21q15 -28 42.5 -49t61.5 -21q35 0 61.5 22t40.5 50l40 -18q-23 -64 -60 -94.5t-85 -30.5z" />
    <glyph glyph-name="uni01D4" unicode="&#x1d4;" horiz-adv-x="604" 
d="M253 -16q-56 0 -92.5 21t-54.5 69.5t-18 128.5v157q0 17 0.5 35.5t3.5 36.5q-17 -1 -36 -1.5t-34 -1.5v53h24q50 0 75 9t35 19h38v-305q0 -79 22 -118t74 -38q34 0 65.5 20t51.5 47v237q0 22 1 41.5t4 37.5q-18 -1 -37 -1.5t-35 -1.5v53h29q44 0 69 9t36 19h38l-1 -368
q0 -16 -1 -43.5t-3 -48.5q17 1 35.5 2t34.5 1v-53h-159q-2 16 -3.5 30t-3.5 27q-31 -29 -72 -51t-86 -22zM297 568l-153 165l32 38l128 -108h1l127 109l30 -35l-160 -169h-5z" />
    <glyph glyph-name="ucircumflex" unicode="&#xfb;" horiz-adv-x="604" 
d="M253 -16q-56 0 -92.5 21t-54.5 69.5t-18 128.5v157q0 17 0.5 35.5t3.5 36.5q-17 -1 -36 -1.5t-34 -1.5v53h24q50 0 75 9t35 19h38v-305q0 -79 22 -118t74 -38q34 0 65.5 20t51.5 47v237q0 22 1 41.5t4 37.5q-18 -1 -37 -1.5t-35 -1.5v53h29q44 0 69 9t36 19h38l-1 -368
q0 -16 -1 -43.5t-3 -48.5q17 1 35.5 2t34.5 1v-53h-159q-2 16 -3.5 30t-3.5 27q-31 -29 -72 -51t-86 -22zM431 576l-127 108h-2l-129 -101l-30 35l163 162h4l153 -166z" />
    <glyph glyph-name="udieresis" unicode="&#xfc;" horiz-adv-x="604" 
d="M253 -16q-56 0 -92.5 21t-54.5 69.5t-18 128.5v157q0 17 0.5 35.5t3.5 36.5q-17 -1 -36 -1.5t-34 -1.5v53h24q50 0 75 9t35 19h38v-305q0 -79 22 -118t74 -38q34 0 65.5 20t51.5 47v237q0 22 1 41.5t4 37.5q-18 -1 -37 -1.5t-35 -1.5v53h29q44 0 69 9t36 19h38l-1 -368
q0 -16 -1 -43.5t-3 -48.5q17 1 35.5 2t34.5 1v-53h-159q-2 16 -3.5 30t-3.5 27q-31 -29 -72 -51t-86 -22zM387 607q-23 0 -39.5 19t-16.5 46t17 46t39 19q24 0 39.5 -19t15.5 -46t-16.5 -46t-38.5 -19zM217 607q-22 0 -38.5 19t-16.5 46t17 46t39 19q24 0 39.5 -19t15.5 -46
t-16.5 -46t-39.5 -19z" />
    <glyph glyph-name="uni1EE5" unicode="&#x1ee5;" horiz-adv-x="604" 
d="M253 -16q-56 0 -92.5 21t-54.5 69.5t-18 128.5v157q0 17 0.5 35.5t3.5 36.5q-17 -1 -36 -1.5t-34 -1.5v53h24q50 0 75 9t35 19h38v-305q0 -79 22 -118t74 -38q34 0 65.5 20t51.5 47v237q0 22 1 41.5t4 37.5q-18 -1 -37 -1.5t-35 -1.5v53h29q44 0 69 9t36 19h38l-1 -368
q0 -16 -1 -43.5t-3 -48.5q17 1 35.5 2t34.5 1v-53h-159q-2 16 -3.5 30t-3.5 27q-31 -29 -72 -51t-86 -22zM303 -186q-22 0 -37.5 16.5t-15.5 39.5q0 24 16 40.5t37 16.5q22 0 37 -16.5t15 -40.5q0 -23 -15.5 -39.5t-36.5 -16.5z" />
    <glyph glyph-name="ugrave" unicode="&#xf9;" horiz-adv-x="604" 
d="M253 -16q-56 0 -92.5 21t-54.5 69.5t-18 128.5v157q0 17 0.5 35.5t3.5 36.5q-17 -1 -36 -1.5t-34 -1.5v53h24q50 0 75 9t35 19h38v-305q0 -79 22 -118t74 -38q34 0 65.5 20t51.5 47v237q0 22 1 41.5t4 37.5q-18 -1 -37 -1.5t-35 -1.5v53h29q44 0 69 9t36 19h38l-1 -368
q0 -16 -1 -43.5t-3 -48.5q17 1 35.5 2t34.5 1v-53h-159q-2 16 -3.5 30t-3.5 27q-31 -29 -72 -51t-86 -22zM355 575l-115 106q-17 16 -21 32t0.5 29t12.5 19q7 6 19.5 9t27 -2.5t27.5 -26.5l83 -137z" />
    <glyph glyph-name="uni1EE7" unicode="&#x1ee7;" horiz-adv-x="604" 
d="M253 -16q-56 0 -92.5 21t-54.5 69.5t-18 128.5v157q0 17 0.5 35.5t3.5 36.5q-17 -1 -36 -1.5t-34 -1.5v53h24q50 0 75 9t35 19h38v-305q0 -79 22 -118t74 -38q34 0 65.5 20t51.5 47v237q0 22 1 41.5t4 37.5q-18 -1 -37 -1.5t-35 -1.5v53h29q44 0 69 9t36 19h38l-1 -368
q0 -16 -1 -43.5t-3 -48.5q17 1 35.5 2t34.5 1v-53h-159q-2 16 -3.5 30t-3.5 27q-31 -29 -72 -51t-86 -22zM285 564q0 19 12.5 30.5t25.5 23.5q9 8 14 18.5t5 21.5q0 21 -14.5 35t-37.5 14q-22 0 -35 -9.5t-15 -19.5q6 -2 10 -7.5t4 -12.5q0 -11 -9.5 -19t-22.5 -8
q-16 0 -28 11t-12 31q0 19 12.5 37t36.5 29.5t58 11.5q55 0 84.5 -25.5t29.5 -59.5q0 -26 -12 -40.5t-29 -27.5q-12 -9 -20.5 -17.5t-8.5 -16.5h-48z" />
    <glyph glyph-name="uhorn" unicode="&#x1b0;" horiz-adv-x="604" 
d="M253 -16q-56 0 -92.5 21t-54.5 69.5t-18 128.5v157q0 17 0.5 35.5t3.5 36.5q-17 -1 -36 -1.5t-34 -1.5v53h24q50 0 75 9t35 19h38v-305q0 -79 22 -118t74 -38q34 0 65.5 20t51.5 47v237q0 22 1 41.5t4 37.5q-18 -1 -37 -1.5t-35 -1.5v53h29q44 0 69 9t36 19h38l-1 -368
q0 -16 -1 -43.5t-3 -48.5q17 1 35.5 2t34.5 1v-53h-159q-2 16 -3.5 30t-3.5 27q-31 -29 -72 -51t-86 -22zM488 441v56q38 0 59.5 26t21.5 54h87q0 -37 -21 -68t-58.5 -49.5t-88.5 -18.5z" />
    <glyph glyph-name="uni1EE9" unicode="&#x1ee9;" horiz-adv-x="604" 
d="M253 -16q-56 0 -92.5 21t-54.5 69.5t-18 128.5v157q0 17 0.5 35.5t3.5 36.5q-17 -1 -36 -1.5t-34 -1.5v53h24q50 0 75 9t35 19h38v-305q0 -79 22 -118t74 -38q34 0 65.5 20t51.5 47v237q0 22 1 41.5t4 37.5q-18 -1 -37 -1.5t-35 -1.5v53h29q44 0 69 9t36 19h38l-1 -368
q0 -16 -1 -43.5t-3 -48.5q17 1 35.5 2t34.5 1v-53h-159q-2 16 -3.5 30t-3.5 27q-31 -29 -72 -51t-86 -22zM488 441v56q38 0 59.5 26t21.5 54h87q0 -37 -21 -68t-58.5 -49.5t-88.5 -18.5zM251 575l-34 29l83 137q14 20 28.5 25.5t27 3t19.5 -8.5q8 -6 12 -19t-0.5 -28.5
t-20.5 -32.5z" />
    <glyph glyph-name="uni1EF1" unicode="&#x1ef1;" horiz-adv-x="604" 
d="M253 -16q-56 0 -92.5 21t-54.5 69.5t-18 128.5v157q0 17 0.5 35.5t3.5 36.5q-17 -1 -36 -1.5t-34 -1.5v53h24q50 0 75 9t35 19h38v-305q0 -79 22 -118t74 -38q34 0 65.5 20t51.5 47v237q0 22 1 41.5t4 37.5q-18 -1 -37 -1.5t-35 -1.5v53h29q44 0 69 9t36 19h38l-1 -368
q0 -16 -1 -43.5t-3 -48.5q17 1 35.5 2t34.5 1v-53h-159q-2 16 -3.5 30t-3.5 27q-31 -29 -72 -51t-86 -22zM488 441v56q38 0 59.5 26t21.5 54h87q0 -37 -21 -68t-58.5 -49.5t-88.5 -18.5zM303 -186q-22 0 -37.5 16.5t-15.5 39.5q0 24 16 40.5t37 16.5q22 0 37 -16.5t15 -40.5
q0 -23 -15.5 -39.5t-36.5 -16.5z" />
    <glyph glyph-name="uni1EEB" unicode="&#x1eeb;" horiz-adv-x="604" 
d="M253 -16q-56 0 -92.5 21t-54.5 69.5t-18 128.5v157q0 17 0.5 35.5t3.5 36.5q-17 -1 -36 -1.5t-34 -1.5v53h24q50 0 75 9t35 19h38v-305q0 -79 22 -118t74 -38q34 0 65.5 20t51.5 47v237q0 22 1 41.5t4 37.5q-18 -1 -37 -1.5t-35 -1.5v53h29q44 0 69 9t36 19h38l-1 -368
q0 -16 -1 -43.5t-3 -48.5q17 1 35.5 2t34.5 1v-53h-159q-2 16 -3.5 30t-3.5 27q-31 -29 -72 -51t-86 -22zM488 441v56q38 0 59.5 26t21.5 54h87q0 -37 -21 -68t-58.5 -49.5t-88.5 -18.5zM355 575l-115 106q-17 16 -21 32t0.5 29t12.5 19q7 6 19.5 9t27 -2.5t27.5 -26.5
l83 -137z" />
    <glyph glyph-name="uni1EED" unicode="&#x1eed;" horiz-adv-x="604" 
d="M253 -16q-56 0 -92.5 21t-54.5 69.5t-18 128.5v157q0 17 0.5 35.5t3.5 36.5q-17 -1 -36 -1.5t-34 -1.5v53h24q50 0 75 9t35 19h38v-305q0 -79 22 -118t74 -38q34 0 65.5 20t51.5 47v237q0 22 1 41.5t4 37.5q-18 -1 -37 -1.5t-35 -1.5v53h29q44 0 69 9t36 19h38l-1 -368
q0 -16 -1 -43.5t-3 -48.5q17 1 35.5 2t34.5 1v-53h-159q-2 16 -3.5 30t-3.5 27q-31 -29 -72 -51t-86 -22zM488 441v56q38 0 59.5 26t21.5 54h87q0 -37 -21 -68t-58.5 -49.5t-88.5 -18.5zM285 564q0 19 12.5 30.5t25.5 23.5q9 8 14 18.5t5 21.5q0 21 -14.5 35t-37.5 14
q-22 0 -35 -9.5t-15 -19.5q6 -2 10 -7.5t4 -12.5q0 -11 -9.5 -19t-22.5 -8q-16 0 -28 11t-12 31q0 19 12.5 37t36.5 29.5t58 11.5q55 0 84.5 -25.5t29.5 -59.5q0 -26 -12 -40.5t-29 -27.5q-12 -9 -20.5 -17.5t-8.5 -16.5h-48z" />
    <glyph glyph-name="uni1EEF" unicode="&#x1eef;" horiz-adv-x="604" 
d="M253 -16q-56 0 -92.5 21t-54.5 69.5t-18 128.5v157q0 17 0.5 35.5t3.5 36.5q-17 -1 -36 -1.5t-34 -1.5v53h24q50 0 75 9t35 19h38v-305q0 -79 22 -118t74 -38q34 0 65.5 20t51.5 47v237q0 22 1 41.5t4 37.5q-18 -1 -37 -1.5t-35 -1.5v53h29q44 0 69 9t36 19h38l-1 -368
q0 -16 -1 -43.5t-3 -48.5q17 1 35.5 2t34.5 1v-53h-159q-2 16 -3.5 30t-3.5 27q-31 -29 -72 -51t-86 -22zM488 441v56q38 0 59.5 26t21.5 54h87q0 -37 -21 -68t-58.5 -49.5t-88.5 -18.5zM474 713q-18 -54 -49 -78.5t-59 -24.5q-29 0 -50.5 12.5t-39.5 24.5t-37 12
q-16 0 -35.5 -9t-34.5 -32l-38 22q14 39 45.5 65t61.5 27q31 0 51 -12t37.5 -24t39.5 -12q21 0 39 13t31 35z" />
    <glyph glyph-name="uhungarumlaut" unicode="&#x171;" horiz-adv-x="604" 
d="M253 -16q-56 0 -92.5 21t-54.5 69.5t-18 128.5v157q0 17 0.5 35.5t3.5 36.5q-17 -1 -36 -1.5t-34 -1.5v53h24q50 0 75 9t35 19h38v-305q0 -79 22 -118t74 -38q34 0 65.5 20t51.5 47v237q0 22 1 41.5t4 37.5q-18 -1 -37 -1.5t-35 -1.5v53h29q44 0 69 9t36 19h38l-1 -368
q0 -16 -1 -43.5t-3 -48.5q17 1 35.5 2t34.5 1v-53h-159q-2 16 -3.5 30t-3.5 27q-31 -29 -72 -51t-86 -22zM321 586l-25 33l113 126q18 19 40 23t35 -13q9 -11 7.5 -24.5t-10 -26t-19.5 -20.5zM215 587l-36 24l59 131q13 28 33 37t37 -3q11 -6 15 -18.5t0 -27.5t-16 -30z" />
    <glyph glyph-name="umacron" unicode="&#x16b;" horiz-adv-x="604" 
d="M253 -16q-56 0 -92.5 21t-54.5 69.5t-18 128.5v157q0 17 0.5 35.5t3.5 36.5q-17 -1 -36 -1.5t-34 -1.5v53h24q50 0 75 9t35 19h38v-305q0 -79 22 -118t74 -38q34 0 65.5 20t51.5 47v237q0 22 1 41.5t4 37.5q-18 -1 -37 -1.5t-35 -1.5v53h29q44 0 69 9t36 19h38l-1 -368
q0 -16 -1 -43.5t-3 -48.5q17 1 35.5 2t34.5 1v-53h-159q-2 16 -3.5 30t-3.5 27q-31 -29 -72 -51t-86 -22zM167 636v72h271v-68z" />
    <glyph glyph-name="uogonek" unicode="&#x173;" horiz-adv-x="604" 
d="M253 -16q-56 0 -92.5 21t-54.5 69.5t-18 128.5v157q0 17 0.5 35.5t3.5 36.5q-17 -1 -36 -1.5t-34 -1.5v53h24q50 0 75 9t35 19h38v-305q0 -79 22 -118t74 -38q34 0 65.5 20t51.5 47v237q0 22 1 41.5t4 37.5q-18 -1 -37 -1.5t-35 -1.5v53h29q44 0 69 9t36 19h38l-1 -368
q0 -16 -1 -43.5t-3 -48.5q17 1 35.5 2t34.5 1v-53h-159q-2 16 -3.5 30t-3.5 27q-31 -29 -72 -51t-86 -22zM465 -261q-48 0 -77 27.5t-29 74.5q0 45 32 82.5t82 65.5t103 44v-33q-34 -12 -64 -32t-48.5 -46.5t-17.5 -57.5q0 -27 16 -43t40 -16q16 0 32.5 7.5t31.5 20.5
l23 -26q-22 -28 -55 -48t-69 -20z" />
    <glyph glyph-name="uring" unicode="&#x16f;" horiz-adv-x="604" 
d="M253 -16q-56 0 -92.5 21t-54.5 69.5t-18 128.5v157q0 17 0.5 35.5t3.5 36.5q-17 -1 -36 -1.5t-34 -1.5v53h24q50 0 75 9t35 19h38v-305q0 -79 22 -118t74 -38q34 0 65.5 20t51.5 47v237q0 22 1 41.5t4 37.5q-18 -1 -37 -1.5t-35 -1.5v53h29q44 0 69 9t36 19h38l-1 -368
q0 -16 -1 -43.5t-3 -48.5q17 1 35.5 2t34.5 1v-53h-159q-2 16 -3.5 30t-3.5 27q-31 -29 -72 -51t-86 -22zM304 568q-25 0 -49 10.5t-40 32.5t-17 54t14 56t39.5 37.5t50.5 13.5q25 0 49 -10t39.5 -31.5t16.5 -54.5t-14 -57.5t-39.5 -37.5t-49.5 -13zM307 609q17 1 28 15.5
t11 39.5q0 33 -12 50.5t-32 17.5q-17 -1 -29 -16t-12 -40q0 -30 12.5 -49t33.5 -18z" />
    <glyph glyph-name="utilde" unicode="&#x169;" horiz-adv-x="604" 
d="M253 -16q-56 0 -92.5 21t-54.5 69.5t-18 128.5v157q0 17 0.5 35.5t3.5 36.5q-17 -1 -36 -1.5t-34 -1.5v53h24q50 0 75 9t35 19h38v-305q0 -79 22 -118t74 -38q34 0 65.5 20t51.5 47v237q0 22 1 41.5t4 37.5q-18 -1 -37 -1.5t-35 -1.5v53h29q44 0 69 9t36 19h38l-1 -368
q0 -16 -1 -43.5t-3 -48.5q17 1 35.5 2t34.5 1v-53h-159q-2 16 -3.5 30t-3.5 27q-31 -29 -72 -51t-86 -22zM474 713q-18 -54 -49 -78.5t-59 -24.5q-29 0 -50.5 12.5t-39.5 24.5t-37 12q-16 0 -35.5 -9t-34.5 -32l-38 22q14 39 45.5 65t61.5 27q31 0 51 -12t37.5 -24t39.5 -12
q21 0 39 13t31 35z" />
    <glyph glyph-name="v" unicode="v" horiz-adv-x="516" 
d="M232 -3l-148 333q-15 34 -22.5 56t-10 37.5t-4.5 26.5l-41 -3v53h201v-41q-27 -1 -35 -15t-3.5 -36.5t14.5 -48.5l69 -160q8 -18 15.5 -37t15.5 -39h1q6 17 12.5 35.5t12.5 35.5l68 187q8 24 16.5 41l14.5 29l-64 -4v53h169v-41q-22 -2 -38 -19t-29.5 -46t-28.5 -65
l-130 -332h-55z" />
    <glyph glyph-name="w" unicode="w" horiz-adv-x="804" 
d="M208 -3l-127 372q-8 22 -13 36.5t-8 25t-5 19.5l-48 -3v53h221v-41q-40 -1 -45 -28.5t9 -69.5l42 -134q7 -24 14 -48.5t14 -48.5q8 25 16 52t18 58l83 260h64l94 -286q7 -22 14.5 -45.5t14.5 -45.5q7 22 14.5 44t13.5 43l57 169q8 23 14.5 40.5t15.5 31.5l-58 -4v53h180
v-41q-24 -1 -40 -9.5t-27.5 -21t-18.5 -28t-12 -30.5l-134 -373h-62l-86 253q-5 16 -11 34.5t-12.5 38.5t-12.5 38q-5 -21 -12.5 -44.5t-14.5 -45t-12 -37.5l-81 -237h-59z" />
    <glyph glyph-name="wacute" unicode="&#x1e83;" horiz-adv-x="804" 
d="M208 -3l-127 372q-8 22 -13 36.5t-8 25t-5 19.5l-48 -3v53h221v-41q-40 -1 -45 -28.5t9 -69.5l42 -134q7 -24 14 -48.5t14 -48.5q8 25 16 52t18 58l83 260h64l94 -286q7 -22 14.5 -45.5t14.5 -45.5q7 22 14.5 44t13.5 43l57 169q8 23 14.5 40.5t15.5 31.5l-58 -4v53h180
v-41q-24 -1 -40 -9.5t-27.5 -21t-18.5 -28t-12 -30.5l-134 -373h-62l-86 253q-5 16 -11 34.5t-12.5 38.5t-12.5 38q-5 -21 -12.5 -44.5t-14.5 -45t-12 -37.5l-81 -237h-59zM354 575l-34 29l83 137q14 20 28.5 25.5t27 3t19.5 -8.5q8 -6 12 -19t-0.5 -28.5t-20.5 -32.5z" />
    <glyph glyph-name="wcircumflex" unicode="&#x175;" horiz-adv-x="804" 
d="M208 -3l-127 372q-8 22 -13 36.5t-8 25t-5 19.5l-48 -3v53h221v-41q-40 -1 -45 -28.5t9 -69.5l42 -134q7 -24 14 -48.5t14 -48.5q8 25 16 52t18 58l83 260h64l94 -286q7 -22 14.5 -45.5t14.5 -45.5q7 22 14.5 44t13.5 43l57 169q8 23 14.5 40.5t15.5 31.5l-58 -4v53h180
v-41q-24 -1 -40 -9.5t-27.5 -21t-18.5 -28t-12 -30.5l-134 -373h-62l-86 253q-5 16 -11 34.5t-12.5 38.5t-12.5 38q-5 -21 -12.5 -44.5t-14.5 -45t-12 -37.5l-81 -237h-59zM534 576l-127 108h-2l-129 -101l-30 35l163 162h4l153 -166z" />
    <glyph glyph-name="wdieresis" unicode="&#x1e85;" horiz-adv-x="804" 
d="M208 -3l-127 372q-8 22 -13 36.5t-8 25t-5 19.5l-48 -3v53h221v-41q-40 -1 -45 -28.5t9 -69.5l42 -134q7 -24 14 -48.5t14 -48.5q8 25 16 52t18 58l83 260h64l94 -286q7 -22 14.5 -45.5t14.5 -45.5q7 22 14.5 44t13.5 43l57 169q8 23 14.5 40.5t15.5 31.5l-58 -4v53h180
v-41q-24 -1 -40 -9.5t-27.5 -21t-18.5 -28t-12 -30.5l-134 -373h-62l-86 253q-5 16 -11 34.5t-12.5 38.5t-12.5 38q-5 -21 -12.5 -44.5t-14.5 -45t-12 -37.5l-81 -237h-59zM490 607q-23 0 -39.5 19t-16.5 46t17 46t39 19q24 0 39.5 -19t15.5 -46t-16.5 -46t-38.5 -19z
M320 607q-22 0 -38.5 19t-16.5 46t17 46t39 19q24 0 39.5 -19t15.5 -46t-16.5 -46t-39.5 -19z" />
    <glyph glyph-name="wgrave" unicode="&#x1e81;" horiz-adv-x="804" 
d="M208 -3l-127 372q-8 22 -13 36.5t-8 25t-5 19.5l-48 -3v53h221v-41q-40 -1 -45 -28.5t9 -69.5l42 -134q7 -24 14 -48.5t14 -48.5q8 25 16 52t18 58l83 260h64l94 -286q7 -22 14.5 -45.5t14.5 -45.5q7 22 14.5 44t13.5 43l57 169q8 23 14.5 40.5t15.5 31.5l-58 -4v53h180
v-41q-24 -1 -40 -9.5t-27.5 -21t-18.5 -28t-12 -30.5l-134 -373h-62l-86 253q-5 16 -11 34.5t-12.5 38.5t-12.5 38q-5 -21 -12.5 -44.5t-14.5 -45t-12 -37.5l-81 -237h-59zM458 575l-115 106q-17 16 -21 32t0.5 29t12.5 19q7 6 19.5 9t27 -2.5t27.5 -26.5l83 -137z" />
    <glyph glyph-name="x" unicode="x" horiz-adv-x="536" 
d="M29 0v41q28 8 46 26t43 50l96 120q-15 19 -34 43t-36 47t-29 37q-20 26 -33.5 48.5t-19.5 36.5l-40 -2v53h211v-41q-40 -1 -42.5 -19.5t28.5 -59.5l54 -71l74 89q14 16 24.5 29t21.5 24l-62 -4v53h168v-41q-25 -8 -43.5 -20.5t-36 -31t-40.5 -46.5l-73 -89l130 -159
q12 -15 23.5 -29.5t22.5 -33.5l41 3v-53h-207v41q26 1 33.5 13t-12.5 36l-90 108l-71 -95q-12 -16 -22.5 -28.5t-23.5 -25.5l67 4v-53h-168z" />
    <glyph glyph-name="y" unicode="y" horiz-adv-x="536" 
d="M130 -271q-33 0 -56.5 17.5t-23.5 50.5q0 21 13.5 38t35.5 17q24 1 34.5 -15t10.5 -33v-6t-1 -7q3 -2 9 -1q11 1 24 12t24 31q12 22 27 61t33 90l-157 328q-27 56 -37.5 87.5t-13.5 49.5l-48 -2v53h221v-41h-2q-41 -4 -44.5 -31t18.5 -74l110 -242q19 51 38.5 111
t40.5 123q7 19 14.5 40.5t16 39.5t16.5 25l-65 -4v53h164v-41q-35 -12 -54.5 -44t-37.5 -81l-125 -352q-29 -83 -54 -139.5t-55.5 -85t-75.5 -28.5z" />
    <glyph glyph-name="yacute" unicode="&#xfd;" horiz-adv-x="536" 
d="M130 -271q-33 0 -56.5 17.5t-23.5 50.5q0 21 13.5 38t35.5 17q24 1 34.5 -15t10.5 -33v-6t-1 -7q3 -2 9 -1q11 1 24 12t24 31q12 22 27 61t33 90l-157 328q-27 56 -37.5 87.5t-13.5 49.5l-48 -2v53h221v-41h-2q-41 -4 -44.5 -31t18.5 -74l110 -242q19 51 38.5 111
t40.5 123q7 19 14.5 40.5t16 39.5t16.5 25l-65 -4v53h164v-41q-35 -12 -54.5 -44t-37.5 -81l-125 -352q-29 -83 -54 -139.5t-55.5 -85t-75.5 -28.5zM238 575l-34 29l83 137q14 20 28.5 25.5t27 3t19.5 -8.5q8 -6 12 -19t-0.5 -28.5t-20.5 -32.5z" />
    <glyph glyph-name="ycircumflex" unicode="&#x177;" horiz-adv-x="536" 
d="M130 -271q-33 0 -56.5 17.5t-23.5 50.5q0 21 13.5 38t35.5 17q24 1 34.5 -15t10.5 -33v-6t-1 -7q3 -2 9 -1q11 1 24 12t24 31q12 22 27 61t33 90l-157 328q-27 56 -37.5 87.5t-13.5 49.5l-48 -2v53h221v-41h-2q-41 -4 -44.5 -31t18.5 -74l110 -242q19 51 38.5 111
t40.5 123q7 19 14.5 40.5t16 39.5t16.5 25l-65 -4v53h164v-41q-35 -12 -54.5 -44t-37.5 -81l-125 -352q-29 -83 -54 -139.5t-55.5 -85t-75.5 -28.5zM418 576l-127 108h-2l-129 -101l-30 35l163 162h4l153 -166z" />
    <glyph glyph-name="ydieresis" unicode="&#xff;" horiz-adv-x="536" 
d="M130 -271q-33 0 -56.5 17.5t-23.5 50.5q0 21 13.5 38t35.5 17q24 1 34.5 -15t10.5 -33v-6t-1 -7q3 -2 9 -1q11 1 24 12t24 31q12 22 27 61t33 90l-157 328q-27 56 -37.5 87.5t-13.5 49.5l-48 -2v53h221v-41h-2q-41 -4 -44.5 -31t18.5 -74l110 -242q19 51 38.5 111
t40.5 123q7 19 14.5 40.5t16 39.5t16.5 25l-65 -4v53h164v-41q-35 -12 -54.5 -44t-37.5 -81l-125 -352q-29 -83 -54 -139.5t-55.5 -85t-75.5 -28.5zM374 607q-23 0 -39.5 19t-16.5 46t17 46t39 19q24 0 39.5 -19t15.5 -46t-16.5 -46t-38.5 -19zM204 607q-22 0 -38.5 19
t-16.5 46t17 46t39 19q24 0 39.5 -19t15.5 -46t-16.5 -46t-39.5 -19z" />
    <glyph glyph-name="uni1EF5" unicode="&#x1ef5;" horiz-adv-x="536" 
d="M130 -271q-33 0 -56.5 17.5t-23.5 50.5q0 21 13.5 38t35.5 17q24 1 34.5 -15t10.5 -33v-6t-1 -7q3 -2 9 -1q11 1 24 12t24 31q12 22 27 61t33 90l-157 328q-27 56 -37.5 87.5t-13.5 49.5l-48 -2v53h221v-41h-2q-41 -4 -44.5 -31t18.5 -74l110 -242q19 51 38.5 111
t40.5 123q7 19 14.5 40.5t16 39.5t16.5 25l-65 -4v53h164v-41q-35 -12 -54.5 -44t-37.5 -81l-125 -352q-29 -83 -54 -139.5t-55.5 -85t-75.5 -28.5zM371 -186q-22 0 -37.5 16.5t-15.5 39.5q0 24 16 40.5t37 16.5q22 0 37 -16.5t15 -40.5q0 -23 -15.5 -39.5t-36.5 -16.5z" />
    </font>
</defs>
</svg>
