<?xml version="1.0" standalone="no"?>
<!DOCTYPE svg PUBLIC "-//W3C//DTD SVG 1.1//EN" "http://www.w3.org/Graphics/SVG/1.1/DTD/svg11.dtd" >
<svg xmlns="http://www.w3.org/2000/svg" xmlns:xlink="http://www.w3.org/1999/xlink" version="1.1">
<metadata>
Created by FontForge 20170924 at Thu Mar  7 09:13:48 2013
 By Glenn,,,
Copyright (c) 2009 by Nathanael Bonnell. All rights reserved.
</metadata>
<defs>
<font id="SolveigBold" horiz-adv-x="416" >
  <font-face 
    font-family="Solveig Bold"
    font-weight="400"
    font-stretch="normal"
    units-per-em="1000"
    panose-1="2 0 5 3 7 0 0 2 0 3"
    ascent="716"
    descent="-284"
    x-height="405"
    cap-height="583"
    bbox="-181 -284 1119 858"
    underline-thickness="42"
    underline-position="-108"
    stemh="45"
    stemv="109"
    unicode-range="U+0020-FB02"
  />
<missing-glyph horiz-adv-x="524" 
d="M55 583c131 -4 282 -4 421 0c-17 -148 -13 -437 -6 -585h-1c-132 3 -269 3 -421 0v2c12 135 15 459 7 583zM405 51c9 140 11 326 6 478c-140 3 -156 3 -292 1c-12 -175 -12 -339 -5 -478c139 -3 156 -3 291 -1z" />
    <glyph glyph-name="fi" unicode="fi" horiz-adv-x="513" 
d="M40 403h33c1 27 -1 70 1 116c3 98 98 183 169 189c17 1 54 -8 73 -16c-2 -12 -9 -30 -15 -39c-17 4 -35 8 -56 8c-22 0 -45 -29 -55 -55c-14 -37 -11 -57 -10 -203c44 -1 79 1 110 3c0 -14 -3 -33 -8 -49c-34 3 -55 4 -101 4c-1 -71 1 -307 15 -363c-25 4 -110 3 -133 0
c11 125 10 243 10 362c-7 0 -21 1 -34 0c0 12 0 30 1 43zM409 612c43 0 53 -28 53 -42c0 -24 -33 -51 -74 -51c-30 0 -51 13 -51 42c0 21 26 51 72 51zM332 -1c11 95 10 308 -1 392c30 0 94 7 124 16c-10 -66 -6 -330 8 -409c-36 7 -102 5 -131 1z" />
    <glyph glyph-name="fl" unicode="fl" horiz-adv-x="520" 
d="M40 403h33c1 27 -1 70 1 116c3 98 98 183 169 189c17 1 54 -8 73 -16c-2 -12 -9 -30 -15 -39c-17 4 -35 8 -56 8c-22 0 -45 -29 -55 -55c-14 -37 -11 -57 -10 -203c44 -1 79 1 110 3c0 -14 -3 -33 -8 -49c-34 3 -55 4 -101 4c-1 -71 1 -307 15 -363c-25 4 -110 3 -133 0
c11 125 10 243 10 362c-7 0 -21 1 -34 0c0 12 0 30 1 43zM338 -3c12 96 8 624 -7 692c32 2 95 13 131 27c-17 -182 -7 -651 8 -718c-35 4 -89 5 -132 -1z" />
    <glyph glyph-name=".notdef" horiz-adv-x="524" 
d="M55 583c131 -4 282 -4 421 0c-17 -148 -13 -437 -6 -585h-1c-132 3 -269 3 -421 0v2c12 135 15 459 7 583zM405 51c9 140 11 326 6 478c-140 3 -156 3 -292 1c-12 -175 -12 -339 -5 -478c139 -3 156 -3 291 -1z" />
    <glyph glyph-name="space" unicode=" " horiz-adv-x="221" 
 />
    <glyph glyph-name="exclam" unicode="!" horiz-adv-x="225" 
d="M135 160l-43 -1c-7 137 -28 363 -39 419c35 1 83 3 128 10c-16 -86 -40 -334 -46 -428zM120 90c46 0 55 -30 55 -45c0 -20 -20 -55 -76 -55c-30 0 -54 15 -54 45c0 24 28 55 75 55z" />
    <glyph glyph-name="quotedbl" unicode="&#x22;" horiz-adv-x="340" 
d="M116 332l-39 -1c-10 98 -31 220 -40 247c27 0 95 5 127 10c-18 -53 -37 -159 -48 -256zM282 332l-39 -1c-10 98 -31 220 -39 247c27 0 94 5 126 10c-17 -53 -36 -159 -48 -256z" />
    <glyph glyph-name="numbersign" unicode="#" 
d="M291 582c-1 -58 -2 -98 -2 -146c25 0 52 1 71 1c1 -11 -1 -41 -6 -51c-21 0 -43 1 -65 2c-1 -63 -1 -105 -1 -168c25 0 53 1 72 1c1 -11 -1 -40 -6 -50c-22 0 -44 2 -66 2c0 -54 0 -106 2 -171c-11 -4 -40 -8 -52 -5c1 65 3 122 3 176c-38 1 -57 1 -100 1
c0 -54 1 -107 3 -172c-11 -4 -39 -8 -50 -5l2 177h-67c-3 11 0 40 3 49c20 -1 42 -2 64 -2c0 64 1 104 1 168h-68c-3 10 1 42 3 49c20 -1 42 -1 65 -1v144c8 3 41 3 47 1c-1 -58 -2 -97 -2 -145c43 -1 61 -1 100 -1v145c9 3 43 3 49 1zM141 221c43 -1 60 -1 100 -1
c0 64 1 104 1 168c-37 1 -57 1 -100 1c-1 -64 -1 -106 -1 -168z" />
    <glyph glyph-name="dollar" unicode="$" horiz-adv-x="338" 
d="M142 -16c-1 36 -3 76 -3 87c-33 1 -77 3 -101 11c-1 10 3 36 7 43c97 -14 161 -13 161 47c0 44 -47 74 -89 103c-66 45 -75 78 -75 115c0 58 43 97 108 120c1 26 2 64 2 83c10 4 37 2 43 1c-1 -20 2 -63 3 -77c15 3 44 4 71 4c3 -11 2 -30 0 -42
c-78 -1 -135 -18 -135 -65c0 -27 33 -47 77 -74c72 -45 90 -84 90 -136c0 -45 -24 -106 -110 -128c-4 -12 -5 -73 -5 -92c-7 -2 -36 -2 -44 0z" />
    <glyph glyph-name="percent" unicode="%" horiz-adv-x="800" 
d="M655 583l-469 -593c-10 3 -31 7 -40 16l470 592c9 -2 33 -9 39 -15zM212 593c103 0 148 -69 148 -156c0 -45 -23 -104 -64 -136c-19 -16 -75 -38 -116 -38c-104 0 -143 90 -143 154c0 57 30 112 70 140c28 17 79 36 105 36zM204 549c-26 0 -81 -30 -81 -131
c0 -46 22 -113 69 -113c52 0 88 58 86 130c-3 75 -37 114 -74 114zM604 320c103 0 148 -69 148 -156c0 -45 -23 -104 -64 -135c-19 -16 -75 -39 -116 -39c-104 0 -143 90 -143 154c0 58 30 113 70 140c28 18 79 36 105 36zM596 277c-26 0 -81 -30 -81 -132
c0 -46 22 -113 69 -113c52 0 88 59 86 131c-3 75 -37 114 -74 114z" />
    <glyph glyph-name="ampersand" unicode="&#x26;" horiz-adv-x="638" 
d="M607 328l2 -4c-33 -42 -90 -111 -146 -164c43 -51 120 -130 168 -161c-47 5 -155 1 -174 -3l-78 96c-81 -66 -140 -104 -210 -104c-92 0 -137 72 -137 138c0 91 50 154 138 219c-25 35 -46 69 -46 115c2 66 94 132 184 132c16 0 57 -10 82 -22c-1 -12 -10 -33 -15 -38
c-22 9 -65 14 -81 9c-40 -10 -59 -37 -59 -65s16 -51 37 -81c7 -12 98 -134 162 -200c20 17 55 68 65 107c31 4 68 11 108 26zM197 310c-30 -22 -58 -56 -66 -116c-11 -69 32 -120 93 -120c42 0 73 10 126 52c-58 66 -97 111 -153 184z" />
    <glyph glyph-name="quotesingle" unicode="'" horiz-adv-x="190" 
d="M116 332l-39 -1c-10 98 -31 220 -40 247c27 0 95 5 127 10c-18 -53 -37 -159 -48 -256z" />
    <glyph glyph-name="parenleft" unicode="(" horiz-adv-x="244" 
d="M177 -92c-66 95 -135 224 -134 363c1 129 70 240 138 334c8 -1 24 -8 33 -13c-33 -71 -66 -182 -66 -319c0 -110 13 -222 63 -353c-10 -6 -24 -11 -34 -12z" />
    <glyph glyph-name="parenright" unicode=")" horiz-adv-x="244" 
d="M33 588c10 7 23 13 34 15c70 -87 134 -175 134 -325c0 -128 -50 -251 -138 -371c-13 1 -26 11 -34 16c50 107 67 218 67 355c0 110 -13 203 -63 310z" />
    <glyph glyph-name="asterisk" unicode="*" 
d="M185 485l1 1c1 30 4 98 4 114c10 4 31 2 38 1c-1 -17 2 -92 4 -115c29 7 87 23 103 28c6 -8 10 -29 12 -36c-17 -4 -79 -26 -102 -36c16 -25 63 -84 73 -97c-5 -9 -25 -20 -31 -23c-9 13 -61 74 -79 92c-23 -23 -71 -77 -81 -91c-10 3 -27 18 -32 22c10 13 62 76 75 97
c-28 11 -84 32 -101 36c0 11 9 30 12 36c16 -5 81 -23 104 -29z" />
    <glyph glyph-name="plus" unicode="+" 
d="M237 365c-2 -50 -2 -92 -2 -142c52 -1 98 0 133 1c1 -11 -1 -37 -6 -47c-45 2 -81 3 -127 3c0 -51 0 -95 1 -145c-11 -2 -37 -3 -48 -3c1 51 2 96 2 148c-46 1 -86 0 -141 -1c-3 9 1 41 3 47c45 -2 88 -3 138 -3c1 50 0 92 -1 141c9 1 42 1 48 1z" />
    <glyph glyph-name="comma" unicode="," horiz-adv-x="181" 
d="M99 96c23 0 55 -17 55 -66c0 -46 -50 -152 -90 -219c-12 1 -25 6 -34 13c23 59 34 100 33 126c-1 32 -27 61 -27 90c0 28 22 56 63 56z" />
    <glyph glyph-name="hyphen" unicode="-" horiz-adv-x="266" 
d="M47 277c34 2 148 13 169 20c3 -12 5 -41 0 -60c-24 -1 -139 -14 -167 -20c-4 10 -4 49 -2 60z" />
    <glyph glyph-name="period" unicode="." horiz-adv-x="216" 
d="M120 90c46 0 55 -30 55 -45c0 -20 -20 -55 -76 -55c-30 0 -54 15 -54 45c0 24 28 55 75 55z" />
    <glyph glyph-name="slash" unicode="/" horiz-adv-x="299" 
d="M280 599l-213 -647c-11 0 -36 1 -47 6l214 647c9 1 41 -2 46 -6z" />
    <glyph glyph-name="zero" unicode="0" horiz-adv-x="452" 
d="M207 -15c-117 0 -170 141 -170 310c0 69 19 150 51 203c27 43 103 97 152 97c139 0 176 -125 174 -281c0 -104 -34 -217 -81 -267c-25 -27 -77 -62 -126 -62zM221 534c-52 0 -71 -112 -71 -212c-4 -209 53 -274 83 -274c47 0 67 73 67 241c0 222 -49 245 -79 245z" />
    <glyph glyph-name="one" unicode="1" horiz-adv-x="344" 
d="M245 588c8 -3 14 -5 20 -10c-16 -75 -10 -476 -2 -581c-27 5 -97 5 -129 1c16 93 22 423 14 505c-45 -2 -75 -7 -115 -16c-3 8 -7 29 -7 37c75 18 162 41 219 64z" />
    <glyph glyph-name="two" unicode="2" horiz-adv-x="422" 
d="M60 528c56 31 118 63 194 63c80 0 109 -64 109 -123c0 -75 -63 -168 -101 -223c-29 -39 -38 -55 -113 -142c53 -4 203 1 244 12c-17 -43 -23 -88 -26 -121c-97 11 -237 9 -330 3c-7 9 -9 22 -11 30c83 80 228 279 228 417c0 39 -18 78 -56 78c-41 0 -89 -16 -122 -29
c-9 8 -14 24 -16 35z" />
    <glyph glyph-name="three" unicode="3" horiz-adv-x="370" 
d="M35 554c24 14 102 39 148 39c98 0 120 -58 120 -100c0 -43 -42 -91 -109 -128c91 1 147 -55 147 -139c0 -169 -187 -237 -323 -234c-3 8 -5 33 -2 43c160 -6 208 114 208 188c0 63 -30 99 -73 99c-15 0 -39 -2 -52 -7c-7 10 -10 30 -10 40c67 22 107 60 107 116
c0 38 -21 61 -63 61c-29 0 -66 -8 -85 -16c-6 5 -12 28 -13 38z" />
    <glyph glyph-name="four" unicode="4" 
d="M244 -2c8 45 11 92 11 161c-3 0 -159 2 -217 -1c-6 4 -14 20 -16 27c95 138 187 276 278 414c9 -3 30 -17 37 -25c-69 -103 -172 -259 -235 -366c63 -4 102 -1 153 -2c0 28 1 62 -2 145c26 2 91 18 117 30c-8 -62 -10 -81 -10 -174c15 0 25 1 42 2c2 -16 2 -38 -1 -52
c-24 1 -32 2 -41 1c-1 -34 2 -108 10 -159c-25 5 -91 6 -126 -1z" />
    <glyph glyph-name="five" unicode="5" horiz-adv-x="350" 
d="M306 586c-20 -38 -28 -71 -35 -106c-40 6 -121 6 -154 2c-8 -19 -15 -48 -20 -73c124 11 217 -24 217 -161c0 -94 -74 -198 -202 -272c-10 6 -21 19 -25 33c72 52 135 105 135 199c-1 94 -87 125 -172 106c-5 1 -19 16 -19 16c23 66 58 203 68 254c50 -4 160 -6 207 2z
" />
    <glyph glyph-name="six" unicode="6" horiz-adv-x="438" 
d="M261 602c10 -3 29 -16 35 -23c-107 -135 -154 -257 -154 -365c0 -140 34 -174 72 -174c41 0 81 24 81 100c0 73 -28 98 -57 98c-13 0 -25 -2 -40 -8c-10 8 -13 28 -13 34c30 17 73 30 98 30c100 1 126 -71 126 -130c0 -94 -89 -180 -218 -180c-147 0 -164 135 -164 199
c0 134 107 288 234 419z" />
    <glyph glyph-name="seven" unicode="7" horiz-adv-x="419" 
d="M67 -32c35 136 107 308 238 510c-78 6 -211 -2 -264 -12c14 43 21 84 24 124c74 -11 265 -9 334 -4c8 -5 16 -17 19 -27c-136 -169 -229 -407 -239 -552c-36 -7 -73 -19 -112 -39z" />
    <glyph glyph-name="eight" unicode="8" horiz-adv-x="415" 
d="M276 582c-1 -13 -8 -31 -14 -39c-9 3 -29 8 -45 8c-53 0 -76 -35 -76 -57c0 -35 48 -67 83 -89c51 51 93 112 118 197c9 1 28 -3 35 -6c-12 -123 -29 -149 -116 -214c11 -8 21 -15 33 -22c72 -47 100 -102 99 -176c-1 -110 -103 -197 -209 -197c-120 0 -159 91 -159 149
c0 90 49 141 111 192c-26 18 -39 32 -54 49c-37 45 -41 109 11 169c24 28 56 47 127 47c17 0 42 -4 56 -11zM174 304c-30 -36 -45 -91 -45 -142c0 -70 40 -100 94 -100c59 0 87 38 87 71c0 72 -54 112 -136 171z" />
    <glyph glyph-name="nine" unicode="9" horiz-adv-x="424" 
d="M157 -23c-16 3 -32 16 -39 27c109 132 161 241 161 363c0 158 -46 178 -72 178c-22 0 -70 -22 -70 -100c0 -67 23 -92 47 -92c13 0 27 2 38 6c7 -9 10 -30 11 -37c-21 -12 -59 -23 -89 -23c-65 0 -116 43 -116 137c0 43 35 163 206 163c115 0 159 -80 159 -196
c0 -134 -114 -299 -236 -426z" />
    <glyph glyph-name="colon" unicode=":" horiz-adv-x="162" 
d="M107 90c46 0 55 -30 55 -45c0 -20 -20 -55 -76 -55c-30 0 -54 15 -54 45c0 24 28 55 75 55zM107 354c46 0 55 -30 55 -45c0 -20 -20 -55 -76 -55c-30 0 -54 15 -54 45c0 24 28 55 75 55z" />
    <glyph glyph-name="semicolon" unicode=";" horiz-adv-x="184" 
d="M99 96c23 0 55 -17 55 -66c0 -46 -50 -152 -90 -219c-12 1 -25 6 -34 13c23 59 34 100 33 126c-1 32 -27 61 -27 90c0 28 22 56 63 56zM105 354c46 0 55 -30 55 -45c0 -20 -20 -55 -76 -55c-30 0 -54 15 -54 45c0 24 28 55 75 55z" />
    <glyph glyph-name="less" unicode="&#x3c;" 
d="M53 211c108 56 246 136 290 164c10 -10 21 -38 22 -48c-60 -34 -176 -90 -237 -126l233 -136c-2 -11 -11 -38 -24 -45c-59 38 -183 115 -284 171c-1 6 -1 14 0 20z" />
    <glyph glyph-name="equal" unicode="=" 
d="M52 308c101 -2 241 -2 316 -1c1 -11 -1 -38 -6 -48c-96 2 -188 3 -313 2c-3 9 1 42 3 47zM52 185c101 -3 241 -3 316 -2c1 -11 -1 -37 -6 -47c-96 3 -188 3 -313 3c-3 8 1 40 3 46z" />
    <glyph glyph-name="greater" unicode="&#x3e;" 
d="M364 184c-108 -56 -246 -137 -290 -164c-10 9 -21 37 -22 48c60 33 176 89 237 125l-233 136c2 12 11 38 23 46c60 -39 184 -115 285 -172c1 -6 1 -14 0 -19z" />
    <glyph glyph-name="question" unicode="?" horiz-adv-x="262" 
d="M98 150c-29 43 -48 82 -47 113c1 69 80 119 80 182c0 48 -26 89 -71 123c6 10 17 25 26 33c82 -46 148 -117 148 -180c0 -85 -106 -143 -107 -220c0 -10 3 -25 9 -41c-10 -4 -28 -9 -38 -10zM125 90c46 0 56 -30 56 -45c0 -20 -21 -55 -76 -55c-31 0 -55 15 -55 45
c0 24 29 55 75 55z" />
    <glyph glyph-name="at" unicode="@" horiz-adv-x="766" 
d="M521 165c-5 -34 0 -74 20 -87c96 48 147 137 147 266c0 133 -112 174 -207 174c-206 0 -399 -177 -399 -401c0 -163 85 -253 231 -253c38 0 109 17 133 25l12 -35c-36 -14 -114 -34 -152 -34c-182 0 -274 117 -274 293c0 256 231 445 455 445c108 0 247 -52 247 -213
c0 -139 -57 -272 -272 -359c-20 14 -48 31 -60 86c-4 14 -3 47 5 78c-62 -54 -98 -94 -180 -163c-34 24 -53 85 -53 132c0 97 68 267 252 272c43 1 127 0 162 -3c-12 -13 -21 -35 -30 -64c-15 -45 -28 -103 -37 -159zM449 348c-8 1 -15 1 -22 1c-105 -1 -143 -98 -143 -177
c0 -26 4 -51 14 -65c38 28 93 76 120 104c9 26 29 105 31 137z" />
    <glyph glyph-name="A" unicode="A" horiz-adv-x="585" 
d="M395 -2c-11 55 -30 129 -51 201l-171 -19c-25 -61 -46 -122 -60 -178c-20 1 -88 -3 -113 -9c81 115 169 278 238 448c28 72 33 99 39 137c12 5 43 12 66 14c39 -158 134 -453 213 -594c-42 5 -138 3 -161 0zM279 431c-8 -17 -15 -37 -23 -55c-21 -50 -44 -101 -66 -152
c44 1 102 6 144 9l-37 125c-5 18 -14 51 -18 73z" />
    <glyph glyph-name="B" unicode="B" horiz-adv-x="504" 
d="M55 582c36 -4 125 1 171 1c101 1 213 -7 213 -106c0 -42 -37 -102 -122 -132l1 -4c82 0 161 -36 161 -122c0 -95 -103 -219 -291 -221c-35 0 -101 -1 -140 2c9 205 11 470 7 582zM172 541c-5 -207 -6 -309 0 -496c11 -3 17 -3 29 -3c90 1 162 62 159 168
c-3 60 -37 101 -132 98c-5 5 -7 22 -6 32c41 12 98 44 98 121c0 66 -52 82 -99 82c-21 1 -34 0 -49 -2z" />
    <glyph glyph-name="C" unicode="C" horiz-adv-x="548" 
d="M293 -13c-215 3 -260 183 -260 258c0 155 108 350 339 350c28 0 86 -15 125 -34c-1 -9 -11 -29 -16 -34c-34 13 -89 23 -119 23c-93 0 -206 -81 -206 -289c0 -164 97 -214 169 -215c51 0 118 18 178 43c8 -8 14 -24 15 -33c-56 -32 -157 -69 -225 -69z" />
    <glyph glyph-name="D" unicode="D" horiz-adv-x="588" 
d="M278 582c177 -3 282 -68 282 -210c0 -213 -181 -368 -375 -372c-38 -1 -86 -1 -137 3c14 58 23 392 16 580c42 -2 187 -1 214 -1zM184 540c-7 -150 -8 -332 -3 -493c114 -8 255 96 255 289c0 152 -87 199 -175 204c-35 2 -54 2 -77 0z" />
    <glyph glyph-name="E" unicode="E" horiz-adv-x="447" 
d="M55 583c85 -3 243 -2 358 0l-3 -40c-100 -1 -136 -2 -229 -7c-4 -40 -5 -164 -5 -188c70 -1 128 2 204 7l2 -40c-64 -3 -140 -8 -206 -15c-1 -59 0 -183 3 -248c75 -5 134 -10 251 -9l3 -45c-235 4 -271 4 -385 0c13 86 16 533 7 585z" />
    <glyph glyph-name="F" unicode="F" horiz-adv-x="435" 
d="M432 582l-4 -40c-101 -3 -153 -3 -245 -9c-2 -24 -8 -114 -7 -188c80 0 131 1 207 6l1 -41c-24 -1 -141 -9 -208 -16c-2 -58 -2 -242 7 -296c-26 4 -111 5 -135 2c12 117 14 424 9 583c84 -4 260 -4 375 -1z" />
    <glyph glyph-name="G" unicode="G" horiz-adv-x="613" 
d="M290 -14c-205 4 -255 154 -255 256c0 149 99 353 330 353c28 0 97 -15 140 -33c-2 -12 -10 -32 -17 -39c-52 13 -95 21 -130 21c-89 0 -201 -91 -201 -290c0 -113 59 -212 170 -213c40 -1 74 7 114 16c6 109 5 175 -3 285c31 -2 98 -2 127 6c-11 -64 -17 -248 -4 -298
c-97 -33 -163 -62 -271 -64z" />
    <glyph glyph-name="H" unicode="H" horiz-adv-x="638" 
d="M59 583c18 -1 107 -3 129 0c-8 -76 -11 -180 -11 -232c76 0 206 6 287 14c1 76 1 168 -3 218c26 -3 104 -4 128 0c-15 -127 -14 -437 -5 -585c-17 1 -107 3 -129 0c7 71 9 260 9 329c-46 -2 -225 -19 -288 -27c-2 -58 -5 -238 0 -302c-25 3 -104 5 -128 2
c14 117 19 424 11 583z" />
    <glyph glyph-name="I" unicode="I" horiz-adv-x="231" 
d="M55 583c17 -4 106 -2 127 0c-15 -196 -13 -437 -6 -585c-25 3 -104 5 -128 2c13 133 14 424 7 583z" />
    <glyph glyph-name="J" unicode="J" horiz-adv-x="231" 
d="M57 583c17 -4 104 -2 125 0c-11 -142 -8 -288 -8 -433c0 -161 -40 -259 -124 -336c-66 -60 -146 -68 -192 -39c2 11 6 30 13 41c18 -5 35 -9 57 -8c59 2 132 47 134 325c0 121 -1 340 -5 450z" />
    <glyph glyph-name="K" unicode="K" horiz-adv-x="613" 
d="M181 583c-5 -66 -8 -138 -8 -191c115 50 296 139 401 209c-15 -34 -26 -80 -32 -107c-62 -23 -152 -58 -191 -77c73 -136 178 -315 258 -418c-41 3 -127 4 -160 -1c-54 124 -136 283 -195 382c-36 -15 -56 -23 -83 -36c-3 -132 0 -253 5 -346c-26 3 -104 5 -128 2
c13 133 14 424 7 583c17 -4 105 -2 126 0z" />
    <glyph glyph-name="L" unicode="L" horiz-adv-x="427" 
d="M57 583c18 -4 104 -2 126 0c-12 -173 -13 -353 -8 -528c75 -10 128 -11 245 -14l-4 -43c-235 3 -254 3 -368 0c12 106 17 453 9 585z" />
    <glyph glyph-name="M" unicode="M" horiz-adv-x="859" 
d="M603 402c-10 -25 -19 -49 -30 -74c-44 -100 -88 -200 -127 -323c-24 -15 -46 -21 -63 -24c-23 92 -81 228 -131 350c-7 18 -18 47 -24 69c-50 -136 -87 -266 -111 -397c-20 1 -82 -3 -107 -9c82 157 119 265 172 424c24 72 33 121 43 163c11 4 34 10 46 12
c49 -157 111 -310 171 -446c7 14 14 32 21 46c36 78 67 149 107 248c28 72 36 98 46 140c11 4 38 9 50 10c41 -188 114 -448 173 -593c-42 5 -122 3 -145 0c-24 135 -43 215 -74 332c-5 18 -12 50 -17 72z" />
    <glyph glyph-name="N" unicode="N" horiz-adv-x="615" 
d="M557 3l-33 -10c-104 130 -270 273 -365 359c-16 15 -30 29 -40 41c-2 -135 14 -351 22 -384c-27 -4 -62 -9 -94 -23c16 111 20 414 15 596c8 4 22 7 35 11c97 -123 231 -239 352 -345c16 -14 32 -27 46 -43c0 172 -6 270 -18 370c21 2 70 12 91 21
c-14 -38 -20 -283 -19 -493c0 -27 4 -67 8 -100z" />
    <glyph glyph-name="O" unicode="O" horiz-adv-x="662" 
d="M357 594c154 0 268 -112 269 -279c0 -104 -46 -201 -130 -267c-39 -30 -129 -65 -192 -65c-231 0 -269 204 -269 293c2 83 44 204 146 267c38 23 119 51 176 51zM326 539c-73 0 -169 -55 -169 -261c0 -96 46 -238 179 -238c74 0 169 66 169 271c0 178 -113 228 -179 228z
" />
    <glyph glyph-name="P" unicode="P" horiz-adv-x="493" 
d="M48 -1c14 84 13 506 4 584c38 -4 120 0 199 0c124 0 217 -22 217 -136c0 -71 -53 -142 -240 -184c-5 8 -10 31 -10 37c80 23 127 64 127 144c0 58 -37 92 -98 92c-32 0 -59 -1 -76 -3c-8 -111 5 -479 10 -534c-20 3 -109 3 -133 0z" />
    <glyph glyph-name="Q" unicode="Q" horiz-adv-x="662" 
d="M357 594c154 0 268 -112 269 -279c0 -104 -46 -201 -130 -267c-25 -18 -69 -40 -114 -53c88 -49 206 -99 293 -119c-49 -20 -102 -56 -131 -75c-79 69 -150 125 -233 182h-7c-231 0 -269 204 -269 293c2 83 44 204 146 267c38 23 119 51 176 51zM326 538
c-73 0 -169 -54 -169 -260c0 -96 46 -236 179 -236c74 0 169 64 169 269c0 178 -113 227 -179 227z" />
    <glyph glyph-name="R" unicode="R" horiz-adv-x="550" 
d="M200 582c108 0 268 9 269 -98c0 -47 -31 -99 -130 -134c49 -105 133 -255 211 -351c-38 3 -121 4 -156 -5c-32 72 -124 261 -176 339c5 6 11 21 14 22c83 17 108 48 108 112c0 47 -35 73 -119 72c-22 -1 -27 -1 -45 -3c-8 -98 -7 -347 7 -536c-32 3 -105 2 -135 -5
c14 113 9 514 1 588c27 -3 117 -1 151 -1z" />
    <glyph glyph-name="S" unicode="S" horiz-adv-x="327" 
d="M25 0c0 12 4 32 9 43c101 -18 150 17 150 86c0 52 -27 93 -77 157c-35 45 -55 81 -55 128c0 61 53 137 160 188c9 -7 19 -25 19 -35c-60 -38 -85 -78 -85 -113s22 -69 65 -115c52 -56 79 -121 79 -183c0 -56 -34 -165 -194 -165c-15 0 -56 4 -71 9z" />
    <glyph glyph-name="T" unicode="T" horiz-adv-x="462" 
d="M6 583c193 -5 278 -4 451 0c2 -8 1 -31 0 -42c-68 -4 -117 -8 -165 -15c-4 -93 -6 -325 6 -528c-27 4 -95 4 -131 1c7 47 12 477 8 529c-46 8 -88 9 -170 13c-1 8 -2 30 1 42z" />
    <glyph glyph-name="U" unicode="U" horiz-adv-x="582" 
d="M35 582c37 -2 104 -2 133 2c-6 -130 2 -279 19 -402c15 -105 66 -135 115 -135c100 0 139 80 150 149c19 110 20 298 12 377c27 3 67 11 93 24c-19 -114 -34 -272 -51 -384c-20 -129 -84 -227 -222 -227c-134 0 -195 71 -214 205c-12 133 -18 277 -35 391z" />
    <glyph glyph-name="V" unicode="V" horiz-adv-x="549" 
d="M26 584c38 -5 102 -4 141 1c24 -127 57 -230 107 -372c6 -19 16 -42 21 -66c57 125 125 309 159 428c25 1 76 6 102 17c-37 -52 -185 -389 -202 -429c-18 -43 -45 -104 -56 -147c-18 -16 -39 -26 -67 -34c-59 203 -123 403 -205 602z" />
    <glyph glyph-name="W" unicode="W" horiz-adv-x="893" 
d="M26 584c38 -5 102 -4 141 1c24 -127 49 -225 93 -368c6 -18 13 -46 18 -69c57 125 146 313 180 432c11 6 35 13 55 16c23 -127 56 -236 106 -379c6 -18 16 -47 22 -71c58 125 123 310 156 429c25 1 77 6 103 17c-37 -52 -183 -388 -200 -429c-18 -43 -43 -104 -54 -147
c-18 -16 -39 -26 -68 -34c-36 127 -72 249 -114 374c-5 15 -12 36 -16 53c-46 -99 -99 -221 -110 -246c-18 -43 -45 -104 -56 -147c-18 -16 -39 -26 -68 -34c-40 162 -117 412 -188 602z" />
    <glyph glyph-name="X" unicode="X" horiz-adv-x="622" 
d="M333 385c62 77 97 133 123 190c23 1 76 7 115 17c-59 -53 -161 -178 -211 -245c69 -109 135 -233 233 -348c-26 3 -141 3 -168 0c-35 94 -106 214 -143 272c-51 -71 -129 -190 -163 -263c-39 -6 -84 -10 -134 -25c93 91 205 240 270 328c-44 74 -183 262 -198 272
c23 -3 128 -6 167 0c41 -82 74 -139 109 -198z" />
    <glyph glyph-name="Y" unicode="Y" horiz-adv-x="506" 
d="M5 583c49 -4 117 -3 158 0c30 -81 70 -156 121 -228c61 79 102 147 138 222c26 2 69 3 105 11c-96 -108 -136 -162 -224 -287c-3 -140 -1 -229 10 -302c-37 3 -101 4 -131 0c7 63 12 219 7 303c-40 79 -141 231 -184 281z" />
    <glyph glyph-name="Z" unicode="Z" horiz-adv-x="527" 
d="M79 587c123 -9 340 -9 383 0c8 -8 10 -20 11 -29c-20 -16 -42 -41 -61 -66c-93 -128 -180 -264 -261 -393c59 -4 266 -4 345 12c-10 -31 -21 -87 -25 -117c-195 13 -392 9 -448 0c-5 5 -9 26 -8 32c21 14 52 43 70 68c99 127 197 279 265 392c-107 3 -226 -1 -290 -13
c11 36 18 86 19 114z" />
    <glyph glyph-name="bracketleft" unicode="[" horiz-adv-x="241" 
d="M228 -22c4 -8 5 -32 3 -42c-68 -4 -135 -10 -204 -22c15 119 14 556 6 669c39 -3 156 -2 197 0c2 -8 1 -34 -2 -40c-21 -1 -56 -3 -77 -6c-10 -155 -10 -354 -5 -560c36 -2 55 -1 82 1z" />
    <glyph glyph-name="backslash" unicode="\" horiz-adv-x="299" 
d="M22 600c5 4 43 6 52 5c67 -215 137 -431 210 -647c-11 -5 -43 -5 -53 -4c-67 215 -138 431 -209 646z" />
    <glyph glyph-name="bracketright" unicode="]" horiz-adv-x="242" 
d="M215 583c-14 -124 -15 -541 -6 -649c-49 -2 -147 -12 -196 -22c-3 7 -5 29 -4 39c32 7 52 9 82 21c9 159 4 403 4 567c-20 2 -61 2 -81 2c-2 10 -2 31 -1 41c54 -3 146 -2 202 1z" />
    <glyph glyph-name="asciicircum" unicode="^" horiz-adv-x="375" 
d="M204 592c41 -86 101 -201 123 -236c-12 -8 -40 -14 -52 -14c-26 60 -52 117 -80 168c-33 -51 -70 -115 -99 -168c-19 2 -38 11 -47 21c33 47 96 148 139 229c5 1 12 1 16 0z" />
    <glyph glyph-name="underscore" unicode="_" horiz-adv-x="529" 
d="M5 -89c226 -3 298 -3 523 -2c1 -11 -1 -33 -6 -43c-226 2 -296 3 -520 2c-4 9 0 37 3 43z" />
    <glyph glyph-name="grave" unicode="`" 
d="M143 586c39 -30 109 -71 168 -101c-1 -8 -8 -26 -14 -35c-69 20 -125 32 -194 44c16 28 35 72 40 92z" />
    <glyph glyph-name="a" unicode="a" horiz-adv-x="430" 
d="M66 378c65 21 128 31 173 31c55 0 134 -14 132 -86c-1 -53 -2 -200 1 -257c1 -16 1 -42 8 -67c-36 4 -81 3 -118 -3c-2 11 -2 28 -2 37c-49 -23 -111 -43 -141 -43c-37 0 -58 7 -77 44c-10 21 -16 55 -14 84c5 56 71 81 114 92c34 8 75 15 118 20c3 24 3 66 -1 86
c-5 34 -46 41 -86 41c-26 0 -73 -10 -97 -17c-4 5 -10 25 -10 38zM201 62c16 2 33 3 58 10c-1 39 0 84 1 117c-24 -3 -50 -9 -61 -12c-40 -12 -67 -35 -59 -77c6 -33 23 -43 61 -38z" />
    <glyph glyph-name="b" unicode="b" horiz-adv-x="511" 
d="M50 685c31 2 113 18 139 28c-14 -107 -13 -220 -15 -339c54 21 96 35 139 35c87 0 155 -50 159 -152c6 -117 -84 -268 -256 -268c-68 0 -150 28 -167 46c19 115 21 580 1 650zM174 46c16 -10 32 -12 50 -12c67 0 134 50 132 204c-1 60 -38 106 -92 106
c-34 0 -62 -7 -91 -15c-2 -55 -2 -245 1 -283z" />
    <glyph glyph-name="c" unicode="c" horiz-adv-x="411" 
d="M365 390c-3 -15 -9 -29 -15 -39c-20 5 -60 13 -87 13c-30 0 -112 -20 -112 -184c0 -98 52 -133 101 -133c28 0 76 10 114 20c6 -8 11 -25 12 -36c-62 -21 -120 -39 -170 -39c-140 0 -172 112 -172 180c0 124 94 237 235 237c20 0 71 -11 94 -19z" />
    <glyph glyph-name="d" unicode="d" horiz-adv-x="516" 
d="M257 410c38 0 59 -4 87 -9c1 81 -5 242 -15 286c46 3 100 11 139 28c-16 -71 -23 -578 -4 -674c-62 -20 -156 -54 -236 -54c-113 0 -193 57 -190 187c3 138 101 236 219 236zM260 361c-42 0 -102 -46 -106 -184c-4 -107 51 -138 93 -138c38 0 68 6 93 16
c4 88 4 234 3 298c-27 7 -53 8 -83 8z" />
    <glyph glyph-name="e" unicode="e" horiz-adv-x="428" 
d="M37 176c2 88 61 235 210 235c89 0 115 -23 129 -55c10 -23 5 -64 -9 -84c-16 -24 -47 -42 -139 -44c-25 0 -50 4 -75 6c-13 -98 13 -190 95 -190c47 0 95 11 135 21c5 -9 9 -25 9 -35c-50 -18 -133 -40 -183 -40c-135 0 -174 102 -172 186zM209 272c24 0 46 3 57 20
c9 13 10 40 5 55s-17 25 -40 25c-41 0 -66 -57 -71 -98c15 -2 31 -2 49 -2z" />
    <glyph glyph-name="f" unicode="f" horiz-adv-x="281" 
d="M40 403h33c1 27 -1 70 1 116c3 98 98 183 169 189c17 1 54 -8 73 -16c-2 -12 -9 -30 -15 -39c-17 4 -35 8 -56 8c-22 0 -45 -29 -55 -55c-14 -37 -11 -57 -10 -203c44 -1 79 1 110 3c0 -14 -3 -33 -8 -49c-34 3 -55 4 -101 4c-1 -71 1 -307 15 -363c-25 4 -110 3 -133 0
c11 125 10 243 10 362c-7 0 -21 1 -34 0c0 12 0 30 1 43z" />
    <glyph glyph-name="g" unicode="g" horiz-adv-x="435" 
d="M217 408c51 0 99 -11 116 -24c24 6 52 19 71 28c9 -7 15 -22 18 -34c-22 -10 -40 -19 -56 -30c4 -6 6 -15 6 -28c0 -93 -126 -118 -176 -121c-27 -51 30 -81 90 -115c94 -53 143 -91 143 -186c0 -90 -102 -179 -235 -179c-159 0 -189 94 -189 140c0 82 37 136 130 214
c-39 46 -28 81 19 127c-79 5 -127 41 -129 91c-1 63 75 117 192 117zM162 44c-35 -35 -56 -88 -56 -149c0 -50 35 -122 117 -122c90 0 113 53 113 86c0 67 -38 102 -100 135c-29 16 -56 35 -74 50zM201 367c-33 0 -59 -24 -58 -73c1 -13 8 -51 53 -51c38 0 60 27 59 67
c-1 36 -20 57 -54 57z" />
    <glyph glyph-name="h" unicode="h" horiz-adv-x="527" 
d="M52 687c46 4 98 14 140 31c-18 -80 -20 -263 -19 -341c41 16 111 36 131 36c121 0 150 -77 157 -140c4 -37 13 -238 20 -274c-37 2 -96 5 -127 -1c9 70 2 213 -4 264c-10 72 -43 87 -77 88c-29 0 -72 -10 -100 -20c0 -94 1 -216 7 -332c-29 4 -69 6 -130 0
c17 108 19 542 2 689z" />
    <glyph glyph-name="i" unicode="i" horiz-adv-x="232" 
d="M128 612c43 0 53 -28 53 -42c0 -24 -33 -51 -74 -51c-30 0 -51 13 -51 42c0 21 26 51 72 51zM51 -1c11 95 10 308 -1 392c30 0 94 7 124 16c-10 -66 -6 -330 8 -409c-36 7 -102 5 -131 1z" />
    <glyph glyph-name="j" unicode="j" horiz-adv-x="232" 
d="M174 407c-6 -54 -9 -270 -5 -360c5 -150 -45 -224 -134 -296c-47 -39 -112 -41 -142 -22c0 10 5 26 10 35c140 -28 154 133 157 215c2 93 0 341 -10 412c31 0 95 9 124 16zM129 612c43 0 53 -28 53 -42c0 -24 -33 -51 -73 -51c-31 0 -52 13 -52 42c0 21 26 51 72 51z" />
    <glyph glyph-name="k" unicode="k" horiz-adv-x="519" 
d="M57 -3c13 122 7 621 -7 689c32 3 103 14 133 24c-16 -133 -13 -250 -9 -427c94 33 216 82 318 135c-12 -21 -30 -72 -33 -91c-53 -10 -88 -19 -143 -39c31 -65 145 -234 199 -289c-34 5 -134 5 -158 -2c-24 49 -94 189 -139 256c-21 -6 -27 -8 -43 -14
c-1 -70 6 -168 12 -241c-35 4 -87 5 -130 -1z" />
    <glyph glyph-name="l" unicode="l" horiz-adv-x="239" 
d="M57 -3c12 96 8 624 -7 692c32 2 95 13 131 27c-17 -182 -7 -651 8 -718c-35 4 -89 5 -132 -1z" />
    <glyph glyph-name="m" unicode="m" horiz-adv-x="752" 
d="M581 -2c1 67 -5 219 -8 246c-12 95 -41 99 -68 99c-24 0 -51 -10 -83 -24c6 -20 9 -66 9 -92c1 -38 4 -135 13 -228c-29 4 -98 3 -126 0c4 99 2 233 -2 281c-5 59 -37 65 -65 65c-23 0 -51 -8 -78 -20c-4 -78 -2 -191 5 -327c-28 4 -96 7 -128 0c13 126 10 308 2 403
c29 0 92 6 125 14c-3 -17 -4 -28 -5 -41c39 17 81 36 122 36c50 0 84 -10 109 -48c43 25 93 49 133 49c67 0 146 -21 155 -207c2 -71 9 -177 15 -205c-30 3 -94 5 -125 -1z" />
    <glyph glyph-name="n" unicode="n" horiz-adv-x="517" 
d="M50 400c29 3 86 7 127 15c-3 -18 -4 -30 -5 -43c42 18 105 39 129 39c108 0 151 -59 158 -153c14 -195 18 -234 21 -260c-30 4 -93 6 -126 0c6 51 -1 212 -3 237c-11 93 -40 112 -83 112c-26 0 -71 -8 -96 -15c-4 -79 -1 -198 5 -334c-28 4 -95 7 -127 0
c13 126 10 307 0 402z" />
    <glyph glyph-name="o" unicode="o" horiz-adv-x="491" 
d="M252 405c131 0 198 -81 198 -196c0 -81 -46 -144 -86 -174c-31 -25 -104 -45 -147 -45c-146 0 -188 123 -186 189c0 72 35 143 81 177c27 21 105 49 140 49zM229 351c-25 0 -85 -29 -85 -164c0 -73 38 -145 105 -145c51 0 92 60 88 165c-3 92 -50 144 -108 144z" />
    <glyph glyph-name="p" unicode="p" horiz-adv-x="496" 
d="M47 -281c16 136 22 579 8 674c42 2 81 8 118 19c-1 -12 -1 -20 -1 -32c34 15 64 29 106 29c129 0 183 -78 180 -178c-5 -146 -110 -239 -240 -239c-24 0 -34 3 -48 8c3 -140 6 -219 20 -269c-30 -1 -123 -9 -143 -12zM171 47c15 -3 24 -7 46 -7c62 0 125 38 125 189
c0 86 -46 123 -95 123c-25 0 -46 -6 -75 -17c-4 -73 -1 -245 -1 -288z" />
    <glyph glyph-name="q" unicode="q" horiz-adv-x="496" 
d="M310 -282c11 36 12 278 11 307c-40 -21 -73 -31 -112 -31c-150 0 -172 118 -172 157c0 180 132 258 226 258c18 0 32 -6 55 -14c22 0 91 13 112 19c-3 -34 -2 -191 -1 -350c0 -211 8 -299 25 -334c-16 0 -111 -7 -144 -12zM318 349c-32 9 -38 10 -62 9
c-27 -1 -109 -24 -109 -190c0 -60 23 -116 95 -116c27 0 52 7 79 20c2 67 -2 251 -3 277z" />
    <glyph glyph-name="r" unicode="r" horiz-adv-x="305" 
d="M166 411c-3 -19 -6 -55 -7 -108l3 -3c27 75 50 101 126 122c5 -5 14 -21 14 -31c-55 -41 -131 -105 -135 -230c-2 -41 -1 -73 5 -162c-23 2 -88 3 -120 -1c10 100 10 306 -2 400c35 2 74 5 116 13z" />
    <glyph glyph-name="s" unicode="s" horiz-adv-x="286" 
d="M31 -3c-1 10 1 32 4 40c73 -11 93 14 93 59c0 31 -15 62 -36 90c-29 38 -39 65 -39 94c0 45 49 100 144 139c7 -5 16 -24 18 -34c-47 -27 -63 -52 -63 -77c0 -24 23 -55 41 -76c38 -47 55 -82 55 -119c0 -34 -25 -120 -157 -120c-9 0 -51 2 -60 4z" />
    <glyph glyph-name="t" unicode="t" horiz-adv-x="332" 
d="M156 561c8 1 23 0 31 -4c-4 -27 -11 -115 -11 -152c29 -1 92 1 124 4c0 -13 -2 -33 -9 -49c-34 2 -90 3 -116 2c-4 -37 -4 -191 -1 -233c3 -37 7 -69 42 -70c22 -1 53 4 83 10c4 -9 8 -27 8 -37c-54 -16 -131 -40 -162 -40c-46 0 -73 14 -77 97c-3 47 1 201 3 273h-37
c-2 15 -1 31 1 43h39c29 45 57 94 82 156z" />
    <glyph glyph-name="u" unicode="u" horiz-adv-x="506" 
d="M173 410c-9 -71 -13 -142 -12 -215c2 -111 20 -130 67 -130c30 0 65 7 103 18c4 39 4 242 -6 313c19 0 99 8 127 14c-13 -92 -10 -367 4 -407c-30 0 -89 -3 -122 -8c-3 16 -2 27 -2 42c-49 -22 -102 -44 -168 -44c-83 0 -115 52 -114 166c1 107 0 206 -5 240
c32 1 103 5 128 11z" />
    <glyph glyph-name="v" unicode="v" horiz-adv-x="447" 
d="M165 406c3 -49 37 -158 63 -237c4 -13 9 -27 11 -40c59 119 98 220 107 266c22 1 71 7 101 20c-70 -112 -124 -211 -171 -310c-14 -32 -35 -76 -43 -103c-12 -8 -42 -14 -57 -16c-38 148 -118 348 -155 419c25 -5 125 -2 144 1z" />
    <glyph glyph-name="w" unicode="w" horiz-adv-x="685" 
d="M411 413c6 -46 40 -160 67 -242c4 -12 9 -29 11 -42c54 119 86 220 92 266c21 1 73 7 104 20c-70 -112 -114 -211 -158 -310c-14 -32 -34 -76 -41 -103c-13 -8 -44 -14 -60 -16c-28 95 -51 163 -74 225c-6 15 -11 32 -15 52l-75 -159c-15 -32 -33 -75 -41 -102
c-13 -8 -43 -14 -58 -16c-38 148 -105 348 -142 419c25 -5 125 -2 144 1c3 -49 25 -151 48 -231c5 -13 10 -30 12 -42c59 118 102 222 110 267c22 9 45 13 76 13z" />
    <glyph glyph-name="x" unicode="x" horiz-adv-x="483" 
d="M460 411l1 -4c-63 -52 -125 -123 -165 -169c52 -91 84 -141 170 -240c-28 4 -140 4 -161 1c-37 76 -59 123 -89 170c-52 -72 -72 -98 -105 -167c-30 -4 -80 -6 -110 -13l-1 3c59 55 136 146 193 218c-46 78 -83 134 -137 194c40 -4 130 -6 166 0c9 -45 33 -96 51 -128
c39 44 67 84 85 122c29 2 79 7 102 13z" />
    <glyph glyph-name="y" unicode="y" horiz-adv-x="499" 
d="M496 409l3 -5c-70 -110 -146 -249 -202 -375c-33 -71 -29 -60 -62 -140c-37 -88 -86 -146 -200 -173c-9 9 -15 23 -16 34c91 59 143 109 200 233c-45 107 -135 317 -211 421c33 -9 131 -1 156 3c10 -55 69 -209 118 -296c52 104 104 232 110 287c20 -1 68 3 104 11z" />
    <glyph glyph-name="z" unicode="z" horiz-adv-x="425" 
d="M65 405c84 -5 199 -6 299 1c6 -6 9 -18 11 -28c-24 -19 -47 -43 -65 -65c-62 -77 -129 -171 -160 -214c67 -4 175 1 243 12c-12 -37 -22 -81 -26 -116c-103 11 -297 7 -342 3c-4 4 -9 19 -10 30c22 14 50 39 69 61c77 93 120 158 164 218c-72 3 -146 -2 -204 -12
c7 22 18 82 21 110z" />
    <glyph glyph-name="braceleft" unicode="{" horiz-adv-x="287" 
d="M247 -87c-81 63 -144 94 -145 187c-1 41 0 51 -3 78c-6 57 -14 85 -59 105c-1 10 -1 25 3 35c39 12 56 42 62 102c2 16 3 45 4 65c4 65 69 93 137 137c7 -6 18 -30 19 -39c-21 -21 -47 -39 -55 -85c-3 -17 -4 -44 -11 -77c-13 -61 -38 -75 -102 -120
c52 -33 86 -53 99 -138l7 -62c11 -84 27 -107 67 -151c-2 -16 -14 -31 -23 -37z" />
    <glyph glyph-name="bar" unicode="|" horiz-adv-x="248" 
d="M151 602c-3 -226 -3 -462 -2 -687c-11 -3 -40 -9 -51 -7c1 226 3 468 2 693c9 3 45 3 51 1z" />
    <glyph glyph-name="braceright" unicode="}" horiz-adv-x="296" 
d="M35 590c2 9 16 29 23 33c72 -48 135 -75 135 -144c0 -20 1 -52 4 -70c9 -48 16 -73 59 -93c1 -6 1 -21 -1 -31c-41 -24 -57 -57 -63 -118c-1 -11 -2 -48 -4 -74c-5 -86 -70 -124 -140 -176c-8 4 -20 21 -23 29c23 23 49 54 57 104c4 26 10 83 14 108
c12 82 53 109 105 142c-69 44 -92 55 -104 126c-4 19 -6 48 -8 66c-6 56 -21 68 -54 98z" />
    <glyph glyph-name="asciitilde" unicode="~" 
d="M270 215c-24 0 -82 20 -110 21c-24 0 -51 -10 -79 -26c-8 6 -12 19 -14 25c33 27 89 58 112 58c35 0 81 -18 114 -18c22 0 49 8 75 21c6 -6 10 -16 12 -23c-39 -33 -85 -58 -110 -58z" />
    <glyph glyph-name="uni00A0" unicode="&#xa0;" horiz-adv-x="221" 
 />
    <glyph glyph-name="exclamdown" unicode="&#xa1;" horiz-adv-x="195" 
d="M73 220l43 1c7 -137 28 -363 39 -419c-35 -1 -83 -3 -128 -10c16 86 40 334 46 428zM88 290c-46 0 -55 30 -55 45c0 20 20 55 76 55c30 0 54 -15 54 -45c0 -24 -28 -55 -75 -55z" />
    <glyph glyph-name="cent" unicode="&#xa2;" horiz-adv-x="390" 
d="M197 -8c-101 4 -161 78 -161 180c0 107 65 205 175 230c2 30 5 89 5 106c10 3 38 2 45 1c-1 -17 1 -77 2 -101c30 0 58 -4 89 -16c-3 -12 -8 -31 -15 -38c-14 4 -39 8 -65 8c-35 0 -121 -25 -121 -182c0 -94 60 -134 106 -134c32 0 66 4 105 17c6 -9 11 -27 13 -37
c-49 -16 -84 -27 -125 -31c-3 -29 -5 -94 -5 -109c-7 -3 -35 -4 -44 -1c0 31 -3 89 -4 107z" />
    <glyph glyph-name="sterling" unicode="&#xa3;" horiz-adv-x="400" 
d="M328 560c-3 -10 -12 -27 -17 -33c-9 5 -47 17 -73 17c-45 0 -64 -41 -63 -100c1 -35 14 -62 24 -98c33 0 78 0 121 3c0 -14 -3 -33 -8 -45c-32 1 -66 3 -104 2c10 -75 -31 -144 -69 -205c79 0 157 0 242 10c-11 -30 -16 -77 -20 -113c-31 4 -277 6 -345 -3
c11 30 25 92 26 110c46 -2 37 -3 57 -3c41 96 25 149 3 204c-18 0 -38 -1 -54 -2c-2 12 -1 32 2 43c17 -1 26 -2 38 -1c-16 40 -24 70 -24 103c0 76 61 143 160 143c21 0 74 -13 104 -32z" />
    <glyph glyph-name="currency" unicode="&#xa4;" 
d="M71 477c0 22 7 40 18 59c-12 15 -27 26 -42 40c3 9 25 31 35 36c15 -13 29 -27 45 -37c19 11 35 15 59 15c25 0 45 -3 64 -18c17 11 30 23 45 38c9 -5 29 -24 33 -34c-14 -15 -29 -30 -42 -45c9 -17 13 -31 13 -54c0 -24 -6 -42 -19 -60c11 -16 25 -27 40 -41
c-4 -9 -27 -31 -37 -36c-15 12 -30 27 -46 37c-16 -9 -32 -14 -53 -14c-25 0 -43 6 -60 16c-15 -12 -28 -27 -42 -42c-9 4 -31 23 -36 33c13 15 31 30 41 45c-8 17 -16 35 -16 62zM121 475c0 -36 24 -66 63 -66c36 0 65 30 65 66c0 39 -29 66 -65 66s-63 -30 -63 -66z" />
    <glyph glyph-name="yen" unicode="&#xa5;" horiz-adv-x="506" 
d="M5 583c49 -4 117 -3 158 0c30 -81 70 -156 121 -228c61 79 102 147 138 222c26 2 69 3 105 11c-96 -107 -136 -161 -222 -284c52 0 95 1 107 1c1 -11 0 -35 -5 -45l-104 2c-1 -19 -1 -37 -1 -54c53 0 98 0 110 1c1 -11 0 -35 -5 -45l-105 2c1 -68 3 -121 11 -167
c-37 3 -101 4 -131 0c4 36 7 102 8 167c-45 1 -84 1 -105 0c-3 9 1 39 4 45c17 -2 56 -3 102 -3c0 19 0 38 -1 55h-105c-3 8 1 38 4 44c16 -2 54 -3 99 -3c-41 79 -140 229 -183 279z" />
    <glyph glyph-name="brokenbar" unicode="&#xa6;" horiz-adv-x="248" 
d="M151 603c-3 -109 -2 -199 -1 -308c-11 -1 -40 -1 -51 0c1 109 2 199 1 308c9 1 45 0 51 0zM150 228c-3 -109 -2 -204 -1 -313c-11 -4 -40 -7 -51 -5c1 109 2 210 1 318c9 2 36 2 51 0z" />
    <glyph glyph-name="section" unicode="&#xa7;" horiz-adv-x="409" 
d="M57 -267c-2 10 1 41 6 53c9 -3 26 -4 40 -4c61 0 108 44 108 108c0 60 -53 122 -107 184c-53 62 -70 107 -71 155c0 42 14 89 44 138c44 76 97 150 168 234c13 -7 31 -23 37 -32c-50 -57 -78 -103 -77 -134c0 -47 36 -84 68 -116c80 -81 100 -130 100 -211
c0 -44 -14 -111 -69 -212c-83 -154 -150 -167 -206 -167c-10 0 -29 1 -41 4zM305 67c0 65 -54 120 -112 182c-30 32 -57 67 -58 113c-21 -34 -28 -55 -28 -89c0 -43 36 -86 76 -130c55 -60 91 -106 99 -170c16 33 23 56 23 94z" />
    <glyph glyph-name="dieresis" unicode="&#xa8;" 
d="M142 542c32 0 48 -16 48 -37c0 -28 -32 -44 -64 -44c-22 0 -41 13 -41 33c0 25 29 48 57 48zM297 542c31 0 47 -16 47 -37c0 -28 -31 -44 -64 -44c-21 0 -41 13 -41 33c0 25 30 48 58 48z" />
    <glyph glyph-name="copyright" unicode="&#xa9;" horiz-adv-x="712" 
d="M23 269c0 184 149 333 333 333s333 -149 333 -333s-149 -333 -333 -333s-333 149 -333 333zM67 268c0 -158 131 -292 289 -292c166 0 292 134 292 292c0 161 -131 295 -292 295c-158 0 -289 -134 -289 -295zM348 37c-143 3 -199 106 -199 199c0 127 90 268 258 268
c22 0 62 -12 87 -29c0 -1 -12 -38 -16 -38c-20 9 -50 16 -76 16c-99 0 -150 -95 -150 -214c0 -86 42 -140 115 -142c35 -1 83 9 129 32c5 -4 13 -28 15 -39c-42 -23 -111 -53 -163 -53z" />
    <glyph glyph-name="ordfeminine" unicode="&#xaa;" horiz-adv-x="395" 
d="M59 565c56 18 117 27 157 27c47 0 124 -11 122 -78c-1 -46 -2 -167 1 -216c1 -14 1 -39 6 -60c-31 3 -78 3 -110 -2c-2 10 -2 27 -2 35c-42 -21 -98 -40 -123 -40c-33 0 -53 6 -69 38c-9 18 -12 46 -9 71c5 48 68 79 105 88c29 7 59 14 96 19c3 20 3 47 0 64
c-5 30 -39 29 -74 29c-23 0 -71 -8 -92 -14c-3 5 -8 27 -8 39zM182 300c14 1 29 4 51 11c-1 34 0 64 0 93c-20 -2 -43 -8 -52 -12c-31 -11 -47 -31 -43 -65c3 -27 21 -30 44 -27z" />
    <glyph glyph-name="guillemotleft" unicode="&#xab;" horiz-adv-x="359" 
d="M176 62c-4 -5 -28 -14 -41 -15c-23 44 -59 97 -102 152c33 42 81 111 106 156c8 0 35 -8 41 -15c-21 -52 -34 -96 -46 -140c10 -43 20 -83 42 -138zM315 62c-4 -5 -28 -14 -41 -15c-23 44 -59 97 -102 152c33 42 81 111 106 156c8 0 35 -8 41 -15
c-21 -52 -34 -96 -46 -140c10 -43 20 -83 42 -138z" />
    <glyph glyph-name="logicalnot" unicode="&#xac;" 
d="M38 282c101 -3 242 -2 317 -1c-2 -52 -2 -107 -1 -157c-11 -4 -36 -4 -48 -4c1 40 2 75 2 113c-88 2 -159 3 -273 2c-3 8 1 41 3 47z" />
    <glyph glyph-name="uni00AD" unicode="&#xad;" horiz-adv-x="0" 
d="M-85 271c30 3 148 21 169 26c3 -12 6 -34 0 -53c-24 -2 -139 -18 -167 -24c-3 10 -3 40 -2 51z" />
    <glyph glyph-name="registered" unicode="&#xae;" horiz-adv-x="712" 
d="M23 269c0 184 149 333 333 333s333 -149 333 -333s-149 -333 -333 -333s-333 149 -333 333zM67 268c0 -158 131 -292 289 -292c73 0 139 27 190 71c-32 1 -89 4 -107 -3c-28 73 -79 189 -122 261c3 8 11 16 17 22c68 6 93 37 93 76c0 37 -38 44 -87 45h-40
c-6 -75 -4 -257 2 -400c-23 3 -84 4 -107 -6c12 86 7 394 3 450c20 -3 118 -1 144 -1c60 0 189 3 189 -77c-1 -37 -31 -80 -112 -102c33 -76 74 -161 140 -253c55 53 89 128 89 209c0 161 -131 295 -292 295c-158 0 -289 -134 -289 -295z" />
    <glyph glyph-name="macron" unicode="&#xaf;" 
d="M92 520c101 -3 158 -3 233 -2c0 -11 -1 -36 -6 -46c-97 2 -105 3 -230 2c-3 9 1 40 3 46z" />
    <glyph glyph-name="degree" unicode="&#xb0;" horiz-adv-x="329" 
d="M45 477c0 62 57 120 120 120c66 0 119 -44 119 -120c0 -63 -57 -119 -120 -119c-66 0 -119 45 -119 119zM95 476c0 -39 27 -70 69 -70c38 0 69 31 69 70c0 42 -31 71 -69 71c-39 0 -69 -31 -69 -71z" />
    <glyph glyph-name="plusminus" unicode="&#xb1;" 
d="M38 77c44 -2 84 -2 134 -3c1 43 2 74 2 117c-46 1 -84 1 -139 0c-3 9 1 42 3 47c44 -1 86 -2 136 -2v129c8 2 44 2 49 1c-1 -49 -1 -80 -1 -130c52 -1 97 -1 132 1c1 -11 -1 -38 -6 -48c-45 2 -80 2 -126 2v-117c53 0 97 0 132 1c1 -10 -1 -38 -6 -48
c-97 2 -188 3 -313 2c-3 8 1 42 3 48z" />
    <glyph glyph-name="twosuperior" unicode="&#xb2;" horiz-adv-x="285" 
d="M34 553c31 18 89 38 133 38c63 0 75 -41 75 -73c0 -68 -71 -150 -124 -203c32 -6 138 -2 147 0c-9 -22 -19 -57 -24 -80c-40 4 -142 7 -208 2c-4 6 -8 17 -8 25c69 72 124 153 124 233c0 26 -13 38 -36 38c-19 0 -47 -6 -68 -13c-5 7 -10 26 -11 33z" />
    <glyph glyph-name="threesuperior" unicode="&#xb3;" horiz-adv-x="260" 
d="M156 450l1 -3c54 -2 90 -28 90 -80c0 -104 -139 -155 -221 -146c0 9 3 34 5 40c66 0 120 25 120 104c0 44 -25 52 -68 46c-6 7 -9 25 -9 35c27 8 60 23 60 66c0 26 -20 31 -37 31c-22 0 -39 -4 -53 -7c-4 7 -9 24 -9 33c15 7 76 24 104 24c59 0 80 -31 80 -62
c0 -25 -16 -60 -63 -81z" />
    <glyph glyph-name="acute" unicode="&#xb4;" 
d="M315 597c4 -21 21 -64 37 -93c-69 -11 -123 -24 -192 -43c-6 8 -14 25 -14 33c59 30 129 72 169 103z" />
    <glyph glyph-name="mu" unicode="&#xb5;" horiz-adv-x="476" 
d="M173 410c-9 -71 -13 -142 -12 -215c2 -111 20 -130 67 -130c30 0 65 7 103 18c4 39 4 242 -6 313c19 0 99 8 127 14c-13 -92 -10 -367 4 -407c-30 0 -89 -3 -122 -8c-3 16 -2 27 -2 42c-49 -22 -102 -44 -168 -44c-28 0 -50 6 -67 18c7 -109 30 -236 39 -276
c-35 0 -84 -2 -129 -10c17 84 40 319 43 434c2 107 0 206 -5 240c32 1 103 5 128 11z" />
    <glyph glyph-name="mu" unicode="&#x3bc;" horiz-adv-x="476" 
d="M173 410c-9 -71 -13 -142 -12 -215c2 -111 20 -130 67 -130c30 0 65 7 103 18c4 39 4 242 -6 313c19 0 99 8 127 14c-13 -92 -10 -367 4 -407c-30 0 -89 -3 -122 -8c-3 16 -2 27 -2 42c-49 -22 -102 -44 -168 -44c-28 0 -50 6 -67 18c7 -109 30 -236 39 -276
c-35 0 -84 -2 -129 -10c17 84 40 319 43 434c2 107 0 206 -5 240c32 1 103 5 128 11z" />
    <glyph glyph-name="paragraph" unicode="&#xb6;" horiz-adv-x="543" 
d="M226 336c5 -6 5 -30 6 -40c-32 -9 -63 -13 -82 -13c-90 0 -125 47 -125 112c0 62 71 190 293 189c33 0 108 0 176 -6c-16 -69 -15 -432 -10 -580c-26 3 -93 5 -117 2c7 123 8 374 6 537c-16 2 -28 1 -44 1c-5 -199 -7 -435 -5 -540c-26 4 -27 4 -53 1c9 206 12 352 6 539
c-98 -2 -136 -62 -136 -141c0 -37 22 -64 43 -64c15 0 27 0 42 3z" />
    <glyph glyph-name="periodcentered" unicode="&#xb7;" horiz-adv-x="176" 
d="M98 342c46 0 55 -31 55 -46c0 -20 -20 -55 -76 -55c-30 0 -54 15 -54 46c0 23 28 55 75 55z" />
    <glyph glyph-name="cedilla" unicode="&#xb8;" 
d="M121 -117c17 29 45 96 58 129l45 -10c-10 -21 -16 -37 -24 -60c27 -16 48 -31 48 -80c0 -20 -29 -80 -72 -128c-11 2 -26 11 -35 18c18 27 27 50 27 78c0 16 -15 34 -47 53z" />
    <glyph glyph-name="onesuperior" unicode="&#xb9;" horiz-adv-x="258" 
d="M190 591l18 -7c-8 -47 -4 -288 0 -351c-16 3 -91 3 -110 1c10 56 13 233 7 282c-28 -2 -44 -5 -71 -11c-2 3 -7 22 -8 32c56 13 127 40 164 54z" />
    <glyph glyph-name="ordmasculine" unicode="&#xba;" horiz-adv-x="435" 
d="M229 593c109 0 171 -68 171 -172c0 -72 -36 -126 -73 -153c-32 -23 -96 -40 -129 -40c-126 0 -163 104 -162 166c0 63 30 126 71 156c23 18 91 43 122 43zM206 537c-29 0 -64 -42 -64 -135c0 -75 32 -115 84 -115c42 0 69 54 67 132c-3 90 -44 118 -87 118z" />
    <glyph glyph-name="guillemotright" unicode="&#xbb;" horiz-adv-x="359" 
d="M44 340c4 5 28 14 41 15c23 -44 59 -97 102 -152c-33 -42 -81 -111 -106 -156c-8 0 -35 8 -41 15c21 52 34 96 46 140c-10 43 -20 83 -42 138zM183 340c4 5 28 14 41 15c23 -44 59 -97 102 -152c-33 -42 -81 -111 -106 -156c-8 0 -35 8 -41 15c21 52 34 96 46 140
c-10 43 -20 83 -42 138z" />
    <glyph glyph-name="onequarter" unicode="&#xbc;" horiz-adv-x="650" 
d="M486 -1c6 28 8 45 7 88c-2 0 -105 1 -139 0c-4 2 -14 29 -14 38c52 64 153 207 186 257c3 -2 29 -19 33 -26c-48 -63 -117 -164 -158 -229c39 -1 61 0 92 -1c1 17 1 35 4 81c22 6 74 26 89 39c-3 -40 -5 -60 -5 -119h26c1 -9 1 -33 -1 -41c-14 0 -19 1 -25 0
c0 -20 2 -56 7 -86c-15 2 -84 2 -102 -1zM190 591l18 -7c-8 -47 -4 -288 0 -351c-16 3 -91 3 -110 1c10 56 13 233 7 282c-28 -2 -44 -5 -71 -11c-2 3 -7 22 -8 32c56 13 127 40 164 54zM549 582c-149 -200 -293 -402 -431 -602c-11 3 -30 16 -39 25
c148 201 292 402 431 603c10 -2 35 -20 39 -26z" />
    <glyph glyph-name="onehalf" unicode="&#xbd;" horiz-adv-x="585" 
d="M412 313c31 18 90 38 134 38c63 0 75 -41 75 -73c0 -67 -72 -149 -125 -203c33 -6 139 -2 148 0c-10 -22 -20 -57 -24 -80c-40 5 -142 7 -208 3c-4 6 -8 16 -9 24c70 72 125 153 125 233c0 27 -14 39 -37 39c-19 0 -46 -7 -67 -14c-6 7 -11 26 -12 33zM190 591l18 -7
c-8 -47 -4 -288 0 -351c-16 3 -91 3 -110 1c10 56 13 233 7 282c-28 -2 -44 -5 -71 -11c-2 3 -7 22 -8 32c56 13 127 40 164 54zM549 582c-149 -200 -293 -402 -431 -602c-11 3 -30 16 -39 25c148 201 292 402 431 603c10 -2 35 -20 39 -26z" />
    <glyph glyph-name="threequarters" unicode="&#xbe;" horiz-adv-x="670" 
d="M156 450l1 -3c54 -2 90 -28 90 -80c0 -104 -139 -155 -221 -146c0 9 3 34 5 40c66 0 120 25 120 104c0 44 -25 52 -68 46c-6 7 -9 25 -9 35c27 8 60 23 60 66c0 26 -20 31 -37 31c-22 0 -39 -4 -53 -7c-4 7 -9 24 -9 33c15 7 76 24 104 24c59 0 80 -31 80 -62
c0 -25 -16 -60 -63 -81zM507 -1c6 28 7 45 7 88c-2 0 -105 1 -139 0c-5 2 -14 29 -15 38c53 64 154 207 187 257c3 -2 29 -19 33 -26c-48 -63 -118 -164 -158 -229c39 -1 61 0 92 -1c0 17 1 35 4 81c22 6 73 26 89 39c-4 -40 -5 -60 -5 -119h26c1 -9 1 -33 -1 -41
c-14 0 -19 1 -25 0c0 -20 1 -56 6 -86c-15 2 -83 2 -101 -1zM570 582c-149 -200 -293 -402 -431 -602c-12 3 -30 16 -39 25c148 201 292 402 431 603c10 -2 35 -20 39 -26z" />
    <glyph glyph-name="questiondown" unicode="&#xbf;" horiz-adv-x="262" 
d="M162 233c29 -43 48 -82 47 -113c-1 -69 -80 -119 -80 -182c0 -48 26 -89 71 -123c-6 -10 -17 -25 -26 -33c-82 46 -148 117 -148 180c0 85 106 143 107 220c0 10 -3 25 -9 41c10 4 28 9 38 10zM135 293c-46 0 -56 30 -56 45c0 20 21 55 76 55c31 0 55 -15 55 -45
c0 -24 -29 -55 -75 -55z" />
    <glyph glyph-name="Agrave" unicode="&#xc0;" horiz-adv-x="585" 
d="M395 -2c-11 55 -30 129 -51 201l-171 -19c-25 -61 -46 -122 -60 -178c-20 1 -88 -3 -113 -9c81 115 169 278 238 448c28 72 33 99 39 137c12 5 43 12 66 14c39 -158 134 -453 213 -594c-42 5 -138 3 -161 0zM279 431c-8 -17 -15 -37 -23 -55c-21 -50 -44 -101 -66 -152
c44 1 102 6 144 9l-37 125c-5 18 -14 51 -18 73zM225 765c39 -30 109 -71 168 -101c-1 -8 -8 -26 -14 -35c-69 20 -125 32 -194 44c16 28 35 72 40 92z" />
    <glyph glyph-name="Aacute" unicode="&#xc1;" horiz-adv-x="585" 
d="M395 -2c-11 55 -30 129 -51 201l-171 -19c-25 -61 -46 -122 -60 -178c-20 1 -88 -3 -113 -9c81 115 169 278 238 448c28 72 33 99 39 137c12 5 43 12 66 14c39 -158 134 -453 213 -594c-42 5 -138 3 -161 0zM279 431c-8 -17 -15 -37 -23 -55c-21 -50 -44 -101 -66 -152
c44 1 102 6 144 9l-37 125c-5 18 -14 51 -18 73zM386 776c4 -21 21 -64 37 -93c-69 -11 -123 -24 -192 -43c-6 8 -14 25 -14 33c59 30 129 72 169 103z" />
    <glyph glyph-name="Acircumflex" unicode="&#xc2;" horiz-adv-x="585" 
d="M395 -2c-11 55 -30 129 -51 201l-171 -19c-25 -61 -46 -122 -60 -178c-20 1 -88 -3 -113 -9c81 115 169 278 238 448c28 72 33 99 39 137c12 5 43 12 66 14c39 -158 134 -453 213 -594c-42 5 -138 3 -161 0zM279 431c-8 -17 -15 -37 -23 -55c-21 -50 -44 -101 -66 -152
c44 1 102 6 144 9l-37 125c-5 18 -14 51 -18 73zM203 627c-6 5 -16 22 -18 32c33 22 79 52 122 86c32 -28 78 -60 112 -82c-3 -9 -13 -28 -19 -34c-38 15 -62 22 -94 31c-34 -8 -74 -21 -103 -33z" />
    <glyph glyph-name="Atilde" unicode="&#xc3;" horiz-adv-x="585" 
d="M395 -2c-11 55 -30 129 -51 201l-171 -19c-25 -61 -46 -122 -60 -178c-20 1 -88 -3 -113 -9c81 115 169 278 238 448c28 72 33 99 39 137c12 5 43 12 66 14c39 -158 134 -453 213 -594c-42 5 -138 3 -161 0zM279 431c-8 -17 -15 -37 -23 -55c-21 -50 -44 -101 -66 -152
c44 1 102 6 144 9l-37 125c-5 18 -14 51 -18 73zM344 635c-36 2 -59 19 -87 20c-13 2 -32 -9 -52 -27c-12 4 -21 13 -29 21c25 40 69 95 96 93c31 -3 49 -18 86 -20c28 -2 45 12 61 27c13 -5 23 -11 32 -20c-37 -61 -81 -96 -107 -94z" />
    <glyph glyph-name="Adieresis" unicode="&#xc4;" horiz-adv-x="585" 
d="M395 -2c-11 55 -30 129 -51 201l-171 -19c-25 -61 -46 -122 -60 -178c-20 1 -88 -3 -113 -9c81 115 169 278 238 448c28 72 33 99 39 137c12 5 43 12 66 14c39 -158 134 -453 213 -594c-42 5 -138 3 -161 0zM279 431c-8 -17 -15 -37 -23 -55c-21 -50 -44 -101 -66 -152
c44 1 102 6 144 9l-37 125c-5 18 -14 51 -18 73zM235 710c32 0 48 -16 48 -37c0 -28 -32 -44 -64 -44c-22 0 -41 13 -41 33c0 25 29 48 57 48zM390 710c31 0 47 -16 47 -37c0 -28 -31 -44 -64 -44c-21 0 -41 13 -41 33c0 25 30 48 58 48z" />
    <glyph glyph-name="Aring" unicode="&#xc5;" horiz-adv-x="585" 
d="M395 -2c-11 55 -30 129 -51 201l-171 -19c-25 -61 -46 -122 -60 -178c-20 1 -88 -3 -113 -9c81 115 169 278 238 448c28 72 33 99 39 137c12 5 43 12 66 14c39 -158 134 -453 213 -594c-42 5 -138 3 -161 0zM325 750c44 0 88 -20 88 -57c0 -52 -60 -78 -108 -77
c-54 2 -80 32 -80 62c0 40 47 72 100 72zM279 431c-8 -17 -15 -37 -23 -55c-21 -50 -44 -101 -66 -152c44 1 102 6 144 9l-37 125c-5 18 -14 51 -18 73zM321 715c-20 0 -35 -15 -35 -33c0 -11 8 -29 29 -29c22 0 37 13 37 35c0 15 -14 27 -31 27z" />
    <glyph glyph-name="AE" unicode="&#xc6;" horiz-adv-x="801" 
d="M384 583c142 -3 279 -2 383 0l-2 -40c-101 -2 -137 -2 -229 -7c-4 -40 -5 -163 -5 -186c69 -2 122 1 199 6l1 -41c-64 -3 -134 -8 -201 -15c-1 -59 1 -183 3 -248c75 -4 134 -7 252 -8l2 -46c-234 4 -270 4 -384 0c4 31 7 105 9 194c-57 -5 -165 -14 -209 -19
c-38 -67 -61 -114 -85 -171c-20 1 -96 -3 -122 -9c115 143 209 288 310 448c43 72 60 99 78 142zM232 226c50 0 133 5 181 10c2 104 -1 210 -3 279c-65 -96 -136 -221 -178 -289z" />
    <glyph glyph-name="Ccedilla" unicode="&#xc7;" horiz-adv-x="548" 
d="M219 -117c14 23 34 70 49 105c-194 16 -235 185 -235 257c0 155 108 350 339 350c28 0 86 -15 125 -34c-1 -9 -11 -29 -16 -34c-34 13 -89 23 -119 23c-93 0 -206 -81 -206 -289c0 -164 97 -214 169 -215c51 0 118 18 178 43c8 -8 14 -24 15 -33
c-51 -29 -136 -61 -202 -68c-6 -14 -12 -28 -18 -46c27 -16 48 -31 48 -80c0 -20 -29 -80 -71 -128c-12 2 -27 11 -35 18c17 27 26 50 26 78c0 16 -15 34 -47 53z" />
    <glyph glyph-name="Egrave" unicode="&#xc8;" horiz-adv-x="447" 
d="M55 583c85 -3 243 -2 358 0l-3 -40c-100 -1 -136 -2 -229 -7c-4 -40 -5 -164 -5 -188c70 -1 128 2 204 7l2 -40c-64 -3 -140 -8 -206 -15c-1 -59 0 -183 3 -248c75 -5 134 -10 251 -9l3 -45c-235 4 -271 4 -385 0c13 86 16 533 7 585zM177 765c39 -30 109 -71 168 -101
c-1 -8 -8 -26 -14 -35c-69 20 -125 32 -194 44c16 28 35 72 40 92z" />
    <glyph glyph-name="Eacute" unicode="&#xc9;" horiz-adv-x="447" 
d="M55 583c85 -3 243 -2 358 0l-3 -40c-100 -1 -136 -2 -229 -7c-4 -40 -5 -164 -5 -188c70 -1 128 2 204 7l2 -40c-64 -3 -140 -8 -206 -15c-1 -59 0 -183 3 -248c75 -5 134 -10 251 -9l3 -45c-235 4 -271 4 -385 0c13 86 16 533 7 585zM305 776c4 -21 21 -64 37 -93
c-69 -11 -123 -24 -192 -43c-6 8 -14 25 -14 33c59 30 129 72 169 103z" />
    <glyph glyph-name="Ecircumflex" unicode="&#xca;" horiz-adv-x="447" 
d="M55 583c85 -3 243 -2 358 0l-3 -40c-100 -1 -136 -2 -229 -7c-4 -40 -5 -164 -5 -188c70 -1 128 2 204 7l2 -40c-64 -3 -140 -8 -206 -15c-1 -59 0 -183 3 -248c75 -5 134 -10 251 -9l3 -45c-235 4 -271 4 -385 0c13 86 16 533 7 585zM142 627c-6 5 -16 22 -18 32
c33 22 79 52 122 86c32 -28 78 -60 112 -82c-3 -9 -13 -28 -19 -34c-38 15 -62 22 -94 31c-34 -8 -74 -21 -103 -33z" />
    <glyph glyph-name="Edieresis" unicode="&#xcb;" horiz-adv-x="447" 
d="M55 583c85 -3 243 -2 358 0l-3 -40c-100 -1 -136 -2 -229 -7c-4 -40 -5 -164 -5 -188c70 -1 128 2 204 7l2 -40c-64 -3 -140 -8 -206 -15c-1 -59 0 -183 3 -248c75 -5 134 -10 251 -9l3 -45c-235 4 -271 4 -385 0c13 86 16 533 7 585zM179 734c32 0 48 -16 48 -37
c0 -28 -32 -44 -64 -44c-22 0 -41 13 -41 33c0 25 29 48 57 48zM334 734c31 0 47 -16 47 -37c0 -28 -31 -44 -64 -44c-21 0 -41 13 -41 33c0 25 30 48 58 48z" />
    <glyph glyph-name="Igrave" unicode="&#xcc;" horiz-adv-x="231" 
d="M55 583c17 -4 106 -2 127 0c-15 -196 -13 -437 -6 -585c-25 3 -104 5 -128 2c13 133 14 424 7 583zM13 765c39 -30 109 -71 168 -101c-1 -8 -8 -26 -14 -35c-69 20 -125 32 -194 44c16 28 35 72 40 92z" />
    <glyph glyph-name="Iacute" unicode="&#xcd;" horiz-adv-x="231" 
d="M55 583c17 -4 106 -2 127 0c-15 -196 -13 -437 -6 -585c-25 3 -104 5 -128 2c13 133 14 424 7 583zM178 776c4 -21 21 -64 37 -93c-69 -11 -123 -24 -192 -43c-6 8 -14 25 -14 33c59 30 129 72 169 103z" />
    <glyph glyph-name="Icircumflex" unicode="&#xce;" horiz-adv-x="231" 
d="M55 583c17 -4 106 -2 127 0c-15 -196 -13 -437 -6 -585c-25 3 -104 5 -128 2c13 133 14 424 7 583zM21 627c-6 5 -16 22 -18 32c33 22 79 52 122 86c32 -28 78 -60 112 -82c-3 -9 -13 -28 -19 -34c-38 15 -62 22 -94 31c-34 -8 -74 -21 -103 -33z" />
    <glyph glyph-name="Idieresis" unicode="&#xcf;" horiz-adv-x="231" 
d="M47 710c32 0 48 -15 48 -37c0 -27 -32 -44 -64 -44c-21 0 -41 14 -41 33c0 26 30 48 57 48zM199 710c32 0 47 -15 47 -37c0 -27 -31 -44 -64 -44c-21 0 -41 14 -41 33c0 26 30 48 58 48zM55 583c17 -4 106 -2 127 0c-15 -196 -13 -437 -6 -585c-25 3 -104 5 -128 2
c13 133 14 424 7 583z" />
    <glyph glyph-name="Eth" unicode="&#xd0;" horiz-adv-x="579" 
d="M278 582c177 -3 282 -68 282 -210c0 -213 -181 -368 -375 -372c-38 -1 -86 -1 -137 3c8 33 14 156 17 291l-53 -1c-2 10 1 37 4 43c16 -1 32 -1 49 -1c2 88 2 178 -1 248c42 -2 187 -1 214 -1zM184 540c-3 -65 -5 -135 -6 -207c45 0 88 1 119 2c1 -10 -1 -34 -6 -44
c-38 2 -75 2 -113 3c-1 -83 0 -167 3 -247c114 -8 255 96 255 289c0 152 -87 199 -175 204c-35 2 -54 2 -77 0z" />
    <glyph glyph-name="Ntilde" unicode="&#xd1;" horiz-adv-x="615" 
d="M557 3l-33 -10c-104 130 -270 273 -365 359c-16 15 -30 29 -40 41c-2 -135 14 -351 22 -384c-27 -4 -62 -9 -94 -23c16 111 20 414 15 596c8 4 22 7 35 11c97 -123 231 -239 352 -345c16 -14 32 -27 46 -43c0 172 -6 270 -18 370c21 2 70 12 91 21
c-14 -38 -20 -283 -19 -493c0 -27 4 -67 8 -100zM353 635c-36 2 -59 19 -87 20c-13 2 -32 -9 -52 -27c-12 4 -21 13 -29 21c25 40 69 95 96 93c31 -3 49 -18 86 -20c28 -2 45 12 61 27c13 -5 23 -11 32 -20c-37 -61 -81 -96 -107 -94z" />
    <glyph glyph-name="Ograve" unicode="&#xd2;" horiz-adv-x="662" 
d="M357 594c154 0 268 -112 269 -279c0 -104 -46 -201 -130 -267c-39 -30 -129 -65 -192 -65c-231 0 -269 204 -269 293c2 83 44 204 146 267c38 23 119 51 176 51zM326 539c-73 0 -169 -55 -169 -261c0 -96 46 -238 179 -238c74 0 169 66 169 271c0 178 -113 228 -179 228z
M266 765c39 -30 109 -71 168 -101c-1 -8 -8 -26 -14 -35c-69 20 -125 32 -194 44c16 28 35 72 40 92z" />
    <glyph glyph-name="Oacute" unicode="&#xd3;" horiz-adv-x="662" 
d="M357 594c154 0 268 -112 269 -279c0 -104 -46 -201 -130 -267c-39 -30 -129 -65 -192 -65c-231 0 -269 204 -269 293c2 83 44 204 146 267c38 23 119 51 176 51zM326 539c-73 0 -169 -55 -169 -261c0 -96 46 -238 179 -238c74 0 169 66 169 271c0 178 -113 228 -179 228z
M420 776c4 -21 21 -64 37 -93c-69 -11 -123 -24 -192 -43c-6 8 -14 25 -14 33c59 30 129 72 169 103z" />
    <glyph glyph-name="Ocircumflex" unicode="&#xd4;" horiz-adv-x="662" 
d="M357 594c154 0 268 -112 269 -279c0 -104 -46 -201 -130 -267c-39 -30 -129 -65 -192 -65c-231 0 -269 204 -269 293c2 83 44 204 146 267c38 23 119 51 176 51zM326 539c-73 0 -169 -55 -169 -261c0 -96 46 -238 179 -238c74 0 169 66 169 271c0 178 -113 228 -179 228z
M244 627c-6 5 -16 22 -18 32c33 22 79 52 122 86c32 -28 78 -60 112 -82c-3 -9 -13 -28 -19 -34c-38 15 -62 22 -94 31c-34 -8 -74 -21 -103 -33z" />
    <glyph glyph-name="Otilde" unicode="&#xd5;" horiz-adv-x="662" 
d="M357 594c154 0 268 -112 269 -279c0 -104 -46 -201 -130 -267c-39 -30 -129 -65 -192 -65c-231 0 -269 204 -269 293c2 83 44 204 146 267c38 23 119 51 176 51zM326 539c-73 0 -169 -55 -169 -261c0 -96 46 -238 179 -238c74 0 169 66 169 271c0 178 -113 228 -179 228z
M383 635c-36 2 -59 19 -87 20c-13 2 -32 -9 -52 -27c-12 4 -21 13 -29 21c25 40 69 95 96 93c31 -3 49 -18 86 -20c28 -2 45 12 61 27c13 -5 23 -11 32 -20c-37 -61 -81 -96 -107 -94z" />
    <glyph glyph-name="Odieresis" unicode="&#xd6;" horiz-adv-x="662" 
d="M357 594c154 0 268 -112 269 -279c0 -104 -46 -201 -130 -267c-39 -30 -129 -65 -192 -65c-231 0 -269 204 -269 293c2 83 44 204 146 267c38 23 119 51 176 51zM326 539c-73 0 -169 -55 -169 -261c0 -96 46 -238 179 -238c74 0 169 66 169 271c0 178 -113 228 -179 228z
M281 734c32 0 48 -16 48 -37c0 -28 -32 -44 -64 -44c-22 0 -41 13 -41 33c0 25 29 48 57 48zM436 734c31 0 47 -16 47 -37c0 -28 -31 -44 -64 -44c-21 0 -41 13 -41 33c0 25 30 48 58 48z" />
    <glyph glyph-name="multiply" unicode="&#xd7;" 
d="M89 367c40 -44 83 -89 125 -133c44 44 86 88 127 132c9 -7 28 -29 31 -39c-33 -31 -93 -91 -126 -124c42 -44 86 -86 131 -129c-7 -9 -27 -30 -35 -39c-43 47 -84 91 -129 134c-34 -32 -93 -92 -131 -132c-8 3 -30 32 -32 37c32 30 95 92 131 128c-41 44 -83 87 -126 129
c3 6 30 33 34 36z" />
    <glyph glyph-name="Oslash" unicode="&#xd8;" horiz-adv-x="662" 
d="M357 594c29 0 56 -4 82 -11l24 50c13 0 39 -8 45 -14c-9 -17 -17 -35 -26 -53c87 -43 143 -134 144 -251c0 -104 -46 -201 -130 -267c-39 -30 -129 -65 -192 -65c-38 0 -71 5 -99 15l-30 -62c-14 2 -35 7 -46 15l33 66c-106 62 -127 193 -127 259c2 83 44 204 146 267
c38 23 119 51 176 51zM444 488c-66 -133 -139 -282 -204 -416c25 -20 57 -32 96 -32c74 0 169 66 169 271c0 86 -26 142 -61 177zM326 539c-73 0 -169 -55 -169 -261c0 -53 14 -121 50 -171l200 409c-28 17 -58 23 -81 23z" />
    <glyph glyph-name="Ugrave" unicode="&#xd9;" horiz-adv-x="582" 
d="M35 582c37 -2 104 -2 133 2c-6 -130 2 -279 19 -402c15 -105 66 -135 115 -135c100 0 139 80 150 149c19 110 20 298 12 377c27 3 67 11 93 24c-19 -114 -34 -272 -51 -384c-20 -129 -84 -227 -222 -227c-134 0 -195 71 -214 205c-12 133 -18 277 -35 391zM230 765
c39 -30 109 -71 168 -101c-1 -8 -8 -26 -14 -35c-69 20 -125 32 -194 44c16 28 35 72 40 92z" />
    <glyph glyph-name="Uacute" unicode="&#xda;" horiz-adv-x="582" 
d="M35 582c37 -2 104 -2 133 2c-6 -130 2 -279 19 -402c15 -105 66 -135 115 -135c100 0 139 80 150 149c19 110 20 298 12 377c27 3 67 11 93 24c-19 -114 -34 -272 -51 -384c-20 -129 -84 -227 -222 -227c-134 0 -195 71 -214 205c-12 133 -18 277 -35 391zM380 776
c4 -21 21 -64 37 -93c-69 -11 -123 -24 -192 -43c-6 8 -14 25 -14 33c59 30 129 72 169 103z" />
    <glyph glyph-name="Ucircumflex" unicode="&#xdb;" horiz-adv-x="582" 
d="M35 582c37 -2 104 -2 133 2c-6 -130 2 -279 19 -402c15 -105 66 -135 115 -135c100 0 139 80 150 149c19 110 20 298 12 377c27 3 67 11 93 24c-19 -114 -34 -272 -51 -384c-20 -129 -84 -227 -222 -227c-134 0 -195 71 -214 205c-12 133 -18 277 -35 391zM211 627
c-6 5 -16 22 -18 32c33 22 79 52 122 86c32 -28 78 -60 112 -82c-3 -9 -13 -28 -19 -34c-38 15 -62 22 -94 31c-34 -8 -74 -21 -103 -33z" />
    <glyph glyph-name="Udieresis" unicode="&#xdc;" horiz-adv-x="582" 
d="M35 582c37 -2 104 -2 133 2c-6 -130 2 -279 19 -402c15 -105 66 -135 115 -135c100 0 139 80 150 149c19 110 20 298 12 377c27 3 67 11 93 24c-19 -114 -34 -272 -51 -384c-20 -129 -84 -227 -222 -227c-134 0 -195 71 -214 205c-12 133 -18 277 -35 391zM244 734
c32 0 48 -16 48 -37c0 -28 -32 -44 -64 -44c-22 0 -41 13 -41 33c0 25 29 48 57 48zM399 734c31 0 47 -16 47 -37c0 -28 -31 -44 -64 -44c-21 0 -41 13 -41 33c0 25 30 48 58 48z" />
    <glyph glyph-name="Yacute" unicode="&#xdd;" horiz-adv-x="506" 
d="M5 583c49 -4 117 -3 158 0c30 -81 70 -156 121 -228c61 79 102 147 138 222c26 2 69 3 105 11c-96 -108 -136 -162 -224 -287c-3 -140 -1 -229 10 -302c-37 3 -101 4 -131 0c7 63 12 219 7 303c-40 79 -141 231 -184 281zM362 776c4 -21 21 -64 37 -93
c-69 -11 -123 -24 -192 -43c-6 8 -14 25 -14 33c59 30 129 72 169 103z" />
    <glyph glyph-name="Thorn" unicode="&#xde;" horiz-adv-x="496" 
d="M55 583c17 -4 106 -2 127 0c-3 -38 -5 -77 -7 -118c26 1 53 1 80 1c123 0 216 -22 216 -136c0 -71 -52 -142 -240 -183c-5 7 -9 30 -10 36c81 24 127 65 127 145c0 58 -36 92 -97 92c-33 0 -60 -1 -77 -3c-5 -154 -3 -311 2 -419c-25 3 -104 5 -128 2
c13 133 14 424 7 583z" />
    <glyph glyph-name="germandbls" unicode="&#xdf;" horiz-adv-x="475" 
d="M36 403h33c1 27 -2 78 0 125c3 83 86 188 189 188c120 0 152 -76 152 -133c0 -48 -28 -104 -63 -159c-22 -34 -30 -54 -30 -78c1 -26 37 -67 64 -94c47 -46 64 -80 64 -133c0 -50 -42 -126 -153 -126c-9 0 -46 0 -55 4c-1 10 2 38 5 45c63 -9 94 16 94 58
c0 32 -25 73 -49 100c-32 38 -53 80 -53 109c0 36 14 63 45 116c12 21 30 60 30 133c0 65 -33 99 -66 99c-31 0 -52 -22 -57 -50c-9 -42 -12 -45 -11 -204c1 -116 2 -349 17 -405c-25 4 -110 3 -133 0c11 125 10 240 10 360c-7 0 -21 1 -34 0c0 11 0 32 1 45z" />
    <glyph glyph-name="agrave" unicode="&#xe0;" horiz-adv-x="430" 
d="M66 378c65 21 128 31 173 31c55 0 134 -14 132 -86c-1 -53 -2 -200 1 -257c1 -16 1 -42 8 -67c-36 4 -81 3 -118 -3c-2 11 -2 28 -2 37c-49 -23 -111 -43 -141 -43c-37 0 -58 7 -77 44c-10 21 -16 55 -14 84c5 56 71 81 114 92c34 8 75 15 118 20c3 24 3 66 -1 86
c-5 34 -46 41 -86 41c-26 0 -73 -10 -97 -17c-4 5 -10 25 -10 38zM201 62c16 2 33 3 58 10c-1 39 0 84 1 117c-24 -3 -50 -9 -61 -12c-40 -12 -67 -35 -59 -77c6 -33 23 -43 61 -38zM147 586c39 -30 109 -71 168 -101c-1 -8 -8 -26 -14 -35c-69 20 -125 32 -194 44
c16 28 35 72 40 92z" />
    <glyph glyph-name="aacute" unicode="&#xe1;" horiz-adv-x="430" 
d="M66 378c65 21 128 31 173 31c55 0 134 -14 132 -86c-1 -53 -2 -200 1 -257c1 -16 1 -42 8 -67c-36 4 -81 3 -118 -3c-2 11 -2 28 -2 37c-49 -23 -111 -43 -141 -43c-37 0 -58 7 -77 44c-10 21 -16 55 -14 84c5 56 71 81 114 92c34 8 75 15 118 20c3 24 3 66 -1 86
c-5 34 -46 41 -86 41c-26 0 -73 -10 -97 -17c-4 5 -10 25 -10 38zM201 62c16 2 33 3 58 10c-1 39 0 84 1 117c-24 -3 -50 -9 -61 -12c-40 -12 -67 -35 -59 -77c6 -33 23 -43 61 -38zM284 597c4 -21 21 -64 37 -93c-69 -11 -123 -24 -192 -43c-6 8 -14 25 -14 33
c59 30 129 72 169 103z" />
    <glyph glyph-name="acircumflex" unicode="&#xe2;" horiz-adv-x="430" 
d="M66 378c65 21 128 31 173 31c55 0 134 -14 132 -86c-1 -53 -2 -200 1 -257c1 -16 1 -42 8 -67c-36 4 -81 3 -118 -3c-2 11 -2 28 -2 37c-49 -23 -111 -43 -141 -43c-37 0 -58 7 -77 44c-10 21 -16 55 -14 84c5 56 71 81 114 92c34 8 75 15 118 20c3 24 3 66 -1 86
c-5 34 -46 41 -86 41c-26 0 -73 -10 -97 -17c-4 5 -10 25 -10 38zM201 62c16 2 33 3 58 10c-1 39 0 84 1 117c-24 -3 -50 -9 -61 -12c-40 -12 -67 -35 -59 -77c6 -33 23 -43 61 -38zM112 447c-6 5 -16 22 -18 32c33 22 79 52 122 86c32 -28 78 -60 112 -82
c-3 -9 -13 -28 -19 -34c-38 15 -62 22 -94 31c-34 -8 -74 -21 -103 -33z" />
    <glyph glyph-name="atilde" unicode="&#xe3;" horiz-adv-x="430" 
d="M66 378c65 21 128 31 173 31c55 0 134 -14 132 -86c-1 -53 -2 -200 1 -257c1 -16 1 -42 8 -67c-36 4 -81 3 -118 -3c-2 11 -2 28 -2 37c-49 -23 -111 -43 -141 -43c-37 0 -58 7 -77 44c-10 21 -16 55 -14 84c5 56 71 81 114 92c34 8 75 15 118 20c3 24 3 66 -1 86
c-5 34 -46 41 -86 41c-26 0 -73 -10 -97 -17c-4 5 -10 25 -10 38zM201 62c16 2 33 3 58 10c-1 39 0 84 1 117c-24 -3 -50 -9 -61 -12c-40 -12 -67 -35 -59 -77c6 -33 23 -43 61 -38zM257 469c-36 2 -59 19 -87 20c-13 2 -32 -9 -52 -27c-12 4 -21 13 -29 21
c25 40 69 95 96 93c31 -3 49 -18 86 -20c28 -2 45 12 61 27c13 -5 23 -11 32 -20c-37 -61 -81 -96 -107 -94z" />
    <glyph glyph-name="adieresis" unicode="&#xe4;" horiz-adv-x="430" 
d="M66 378c65 21 128 31 173 31c55 0 134 -14 132 -86c-1 -53 -2 -200 1 -257c1 -16 1 -42 8 -67c-36 4 -81 3 -118 -3c-2 11 -2 28 -2 37c-49 -23 -111 -43 -141 -43c-37 0 -58 7 -77 44c-10 21 -16 55 -14 84c5 56 71 81 114 92c34 8 75 15 118 20c3 24 3 66 -1 86
c-5 34 -46 41 -86 41c-26 0 -73 -10 -97 -17c-4 5 -10 25 -10 38zM201 62c16 2 33 3 58 10c-1 39 0 84 1 117c-24 -3 -50 -9 -61 -12c-40 -12 -67 -35 -59 -77c6 -33 23 -43 61 -38zM145 542c32 0 48 -16 48 -37c0 -28 -32 -44 -64 -44c-22 0 -41 13 -41 33
c0 25 29 48 57 48zM300 542c31 0 47 -16 47 -37c0 -28 -31 -44 -64 -44c-21 0 -41 13 -41 33c0 25 30 48 58 48z" />
    <glyph glyph-name="aring" unicode="&#xe5;" horiz-adv-x="430" 
d="M66 378c65 21 128 31 173 31c55 0 134 -14 132 -86c-1 -53 -2 -200 1 -257c1 -16 1 -42 8 -67c-36 4 -81 3 -118 -3c-2 11 -2 28 -2 37c-49 -23 -111 -43 -141 -43c-37 0 -58 7 -77 44c-10 21 -16 55 -14 84c5 56 71 81 114 92c34 8 75 15 118 20c3 24 3 66 -1 86
c-5 34 -46 41 -86 41c-26 0 -73 -10 -97 -17c-4 5 -10 25 -10 38zM201 62c16 2 33 3 58 10c-1 39 0 84 1 117c-24 -3 -50 -9 -61 -12c-40 -12 -67 -35 -59 -77c6 -33 23 -43 61 -38zM227 578c44 0 88 -20 88 -57c0 -52 -60 -78 -108 -77c-54 2 -80 32 -80 62
c0 40 47 72 100 72zM223 543c-20 0 -35 -15 -35 -33c0 -11 8 -29 29 -29c22 0 37 13 37 35c0 15 -14 27 -31 27z" />
    <glyph glyph-name="ae" unicode="&#xe6;" horiz-adv-x="652" 
d="M442 -10c-70 0 -118 24 -146 61c-50 -29 -132 -61 -170 -61c-37 0 -62 8 -80 45c-11 21 -16 54 -12 83c6 56 73 84 115 95c34 9 69 16 112 22c3 24 3 61 0 81c-6 34 -46 38 -87 38c-25 0 -73 -10 -97 -17c-4 5 -10 28 -10 41c65 21 128 31 174 31c39 0 89 -7 115 -37
c34 25 73 39 112 39c131 0 142 -58 142 -85c0 -48 -43 -99 -173 -100c-25 0 -35 1 -60 5c-9 -58 -3 -186 96 -186c53 0 94 10 134 22c5 -7 11 -28 11 -37c-50 -19 -112 -40 -176 -40zM261 176v13c-24 -3 -50 -10 -61 -14c-35 -13 -57 -36 -53 -75c4 -31 28 -33 55 -31
c20 2 48 10 72 20c-8 26 -13 56 -13 87zM434 271c34 0 59 11 59 52c0 9 -3 45 -38 45c-40 0 -66 -53 -72 -93c12 -2 32 -4 51 -4z" />
    <glyph glyph-name="ccedilla" unicode="&#xe7;" horiz-adv-x="411" 
d="M131 -117c14 24 36 75 50 111c-117 13 -145 114 -145 178c0 124 94 237 235 237c20 0 71 -11 94 -19c-3 -15 -9 -29 -15 -39c-20 5 -60 13 -87 13c-30 0 -112 -20 -112 -184c0 -98 52 -133 101 -133c28 0 76 10 114 20c6 -8 11 -25 12 -36c-53 -19 -103 -34 -148 -38
c-8 -17 -14 -31 -20 -51c27 -16 48 -31 48 -80c0 -20 -29 -80 -72 -128c-11 2 -26 11 -35 18c18 27 27 50 27 78c0 16 -15 34 -47 53z" />
    <glyph glyph-name="egrave" unicode="&#xe8;" horiz-adv-x="428" 
d="M37 176c2 88 61 235 210 235c89 0 115 -23 129 -55c10 -23 5 -64 -9 -84c-16 -24 -47 -42 -139 -44c-25 0 -50 4 -75 6c-13 -98 13 -190 95 -190c47 0 95 11 135 21c5 -9 9 -25 9 -35c-50 -18 -133 -40 -183 -40c-135 0 -174 102 -172 186zM209 272c24 0 46 3 57 20
c9 13 10 40 5 55s-17 25 -40 25c-41 0 -66 -57 -71 -98c15 -2 31 -2 49 -2zM156 586c39 -30 109 -71 168 -101c-1 -8 -8 -26 -14 -35c-69 20 -125 32 -194 44c16 28 35 72 40 92z" />
    <glyph glyph-name="eacute" unicode="&#xe9;" horiz-adv-x="428" 
d="M37 176c2 88 61 235 210 235c89 0 115 -23 129 -55c10 -23 5 -64 -9 -84c-16 -24 -47 -42 -139 -44c-25 0 -50 4 -75 6c-13 -98 13 -190 95 -190c47 0 95 11 135 21c5 -9 9 -25 9 -35c-50 -18 -133 -40 -183 -40c-135 0 -174 102 -172 186zM209 272c24 0 46 3 57 20
c9 13 10 40 5 55s-17 25 -40 25c-41 0 -66 -57 -71 -98c15 -2 31 -2 49 -2zM299 597c4 -21 21 -64 37 -93c-69 -11 -123 -24 -192 -43c-6 8 -14 25 -14 33c59 30 129 72 169 103z" />
    <glyph glyph-name="ecircumflex" unicode="&#xea;" horiz-adv-x="428" 
d="M37 176c2 88 61 235 210 235c89 0 115 -23 129 -55c10 -23 5 -64 -9 -84c-16 -24 -47 -42 -139 -44c-25 0 -50 4 -75 6c-13 -98 13 -190 95 -190c47 0 95 11 135 21c5 -9 9 -25 9 -35c-50 -18 -133 -40 -183 -40c-135 0 -174 102 -172 186zM209 272c24 0 46 3 57 20
c9 13 10 40 5 55s-17 25 -40 25c-41 0 -66 -57 -71 -98c15 -2 31 -2 49 -2zM130 447c-6 5 -16 22 -18 32c33 22 79 52 122 86c32 -28 78 -60 112 -82c-3 -9 -13 -28 -19 -34c-38 15 -62 22 -94 31c-34 -8 -74 -21 -103 -33z" />
    <glyph glyph-name="edieresis" unicode="&#xeb;" horiz-adv-x="428" 
d="M37 176c2 88 61 235 210 235c89 0 115 -23 129 -55c10 -23 5 -64 -9 -84c-16 -24 -47 -42 -139 -44c-25 0 -50 4 -75 6c-13 -98 13 -190 95 -190c47 0 95 11 135 21c5 -9 9 -25 9 -35c-50 -18 -133 -40 -183 -40c-135 0 -174 102 -172 186zM209 272c24 0 46 3 57 20
c9 13 10 40 5 55s-17 25 -40 25c-41 0 -66 -57 -71 -98c15 -2 31 -2 49 -2zM158 542c32 0 48 -16 48 -37c0 -28 -32 -44 -64 -44c-22 0 -41 13 -41 33c0 25 29 48 57 48zM313 542c31 0 47 -16 47 -37c0 -28 -31 -44 -64 -44c-21 0 -41 13 -41 33c0 25 30 48 58 48z" />
    <glyph glyph-name="igrave" unicode="&#xec;" horiz-adv-x="232" 
d="M62 635c27 -42 79 -104 126 -151c-3 -7 -16 -22 -25 -28c-59 41 -107 71 -168 105c24 21 56 56 67 74zM51 -1c11 95 10 308 -1 392c30 0 94 7 124 16c-10 -66 -6 -330 8 -409c-36 7 -102 5 -131 1z" />
    <glyph glyph-name="iacute" unicode="&#xed;" horiz-adv-x="232" 
d="M168 618c9 -19 35 -57 59 -81c-65 -28 -115 -53 -177 -88c-8 7 -19 22 -22 29c51 43 109 100 140 140zM51 -1c11 95 10 308 -1 392c30 0 94 7 124 16c-10 -66 -6 -330 8 -409c-36 7 -102 5 -131 1z" />
    <glyph glyph-name="icircumflex" unicode="&#xee;" horiz-adv-x="232" 
d="M51 -1c11 95 10 308 -1 392c30 0 94 7 124 16c-10 -66 -6 -330 8 -409c-36 7 -102 5 -131 1zM17 447c-6 5 -16 22 -18 32c33 22 79 52 122 86c32 -28 78 -60 112 -82c-3 -9 -13 -28 -19 -34c-38 15 -62 22 -94 31c-34 -8 -74 -21 -103 -33z" />
    <glyph glyph-name="idieresis" unicode="&#xef;" horiz-adv-x="232" 
d="M45 542c32 0 48 -16 48 -37c0 -28 -32 -44 -64 -44c-22 0 -41 13 -41 33c0 25 29 48 57 48zM197 542c31 0 47 -16 47 -37c0 -28 -31 -44 -64 -44c-21 0 -41 13 -41 33c0 25 30 48 58 48zM51 -1c11 95 10 308 -1 392c30 0 94 7 124 16c-10 -66 -6 -330 8 -409
c-36 7 -102 5 -131 1z" />
    <glyph glyph-name="eth" unicode="&#xf0;" horiz-adv-x="500" 
d="M73 533c51 18 121 44 186 68c-51 47 -119 56 -187 53c-3 12 -2 40 0 46c13 0 28 2 40 2c97 0 171 -28 225 -71c26 10 49 19 67 27c4 -10 14 -35 14 -46l-45 -15c63 -70 89 -163 89 -249c0 -125 -20 -230 -88 -295c-29 -28 -100 -65 -158 -65c-144 0 -189 116 -182 208
c12 154 129 212 227 210c36 0 51 -5 83 -14c-8 79 -28 135 -55 174c-66 -23 -132 -48 -202 -77c-6 7 -15 38 -14 44zM241 50c105 0 112 139 105 290c-31 11 -69 14 -80 13c-61 -4 -112 -42 -116 -161c-4 -96 50 -142 91 -142z" />
    <glyph glyph-name="ntilde" unicode="&#xf1;" horiz-adv-x="517" 
d="M50 400c29 3 86 7 127 15c-3 -18 -4 -30 -5 -43c42 18 105 39 129 39c108 0 151 -59 158 -153c14 -195 18 -234 21 -260c-30 4 -93 6 -126 0c6 51 -1 212 -3 237c-11 93 -40 112 -83 112c-26 0 -71 -8 -96 -15c-4 -79 -1 -198 5 -334c-28 4 -95 7 -127 0
c13 126 10 307 0 402zM301 469c-36 2 -59 19 -87 20c-13 2 -32 -9 -52 -27c-12 4 -21 13 -29 21c25 40 69 95 96 93c31 -3 49 -18 86 -20c28 -2 45 12 61 27c13 -5 23 -11 32 -20c-37 -61 -81 -96 -107 -94z" />
    <glyph glyph-name="ograve" unicode="&#xf2;" horiz-adv-x="491" 
d="M252 405c131 0 198 -81 198 -196c0 -81 -46 -144 -86 -174c-31 -25 -104 -45 -147 -45c-146 0 -188 123 -186 189c0 72 35 143 81 177c27 21 105 49 140 49zM229 351c-25 0 -85 -29 -85 -164c0 -73 38 -145 105 -145c51 0 92 60 88 165c-3 92 -50 144 -108 144zM175 586
c39 -30 109 -71 168 -101c-1 -8 -8 -26 -14 -35c-69 20 -125 32 -194 44c16 28 35 72 40 92z" />
    <glyph glyph-name="oacute" unicode="&#xf3;" horiz-adv-x="491" 
d="M252 405c131 0 198 -81 198 -196c0 -81 -46 -144 -86 -174c-31 -25 -104 -45 -147 -45c-146 0 -188 123 -186 189c0 72 35 143 81 177c27 21 105 49 140 49zM229 351c-25 0 -85 -29 -85 -164c0 -73 38 -145 105 -145c51 0 92 60 88 165c-3 92 -50 144 -108 144zM309 597
c4 -21 21 -64 37 -93c-69 -11 -123 -24 -192 -43c-6 8 -14 25 -14 33c59 30 129 72 169 103z" />
    <glyph glyph-name="ocircumflex" unicode="&#xf4;" horiz-adv-x="491" 
d="M252 405c131 0 198 -81 198 -196c0 -81 -46 -144 -86 -174c-31 -25 -104 -45 -147 -45c-146 0 -188 123 -186 189c0 72 35 143 81 177c27 21 105 49 140 49zM229 351c-25 0 -85 -29 -85 -164c0 -73 38 -145 105 -145c51 0 92 60 88 165c-3 92 -50 144 -108 144zM143 447
c-6 5 -16 22 -18 32c33 22 79 52 122 86c32 -28 78 -60 112 -82c-3 -9 -13 -28 -19 -34c-38 15 -62 22 -94 31c-34 -8 -74 -21 -103 -33z" />
    <glyph glyph-name="otilde" unicode="&#xf5;" horiz-adv-x="491" 
d="M252 405c131 0 198 -81 198 -196c0 -81 -46 -144 -86 -174c-31 -25 -104 -45 -147 -45c-146 0 -188 123 -186 189c0 72 35 143 81 177c27 21 105 49 140 49zM229 351c-25 0 -85 -29 -85 -164c0 -73 38 -145 105 -145c51 0 92 60 88 165c-3 92 -50 144 -108 144zM284 469
c-36 2 -59 19 -87 20c-13 2 -32 -9 -52 -27c-12 4 -21 13 -29 21c25 40 69 95 96 93c31 -3 49 -18 86 -20c28 -2 45 12 61 27c13 -5 23 -11 32 -20c-37 -61 -81 -96 -107 -94z" />
    <glyph glyph-name="odieresis" unicode="&#xf6;" horiz-adv-x="491" 
d="M252 405c131 0 198 -81 198 -196c0 -81 -46 -144 -86 -174c-31 -25 -104 -45 -147 -45c-146 0 -188 123 -186 189c0 72 35 143 81 177c27 21 105 49 140 49zM229 351c-25 0 -85 -29 -85 -164c0 -73 38 -145 105 -145c51 0 92 60 88 165c-3 92 -50 144 -108 144zM174 542
c32 0 48 -16 48 -37c0 -28 -32 -44 -64 -44c-22 0 -41 13 -41 33c0 25 29 48 57 48zM329 542c31 0 47 -16 47 -37c0 -28 -31 -44 -64 -44c-21 0 -41 13 -41 33c0 25 30 48 58 48z" />
    <glyph glyph-name="divide" unicode="&#xf7;" horiz-adv-x="388" 
d="M37 232c100 -2 240 -2 315 -1c1 -11 0 -40 -5 -50c-96 3 -188 3 -313 3c-3 8 0 42 3 48zM201 366c30 0 46 -14 46 -35c0 -25 -35 -40 -62 -40c-21 0 -39 12 -39 30c0 23 29 45 55 45zM201 115c30 0 46 -14 46 -34c0 -26 -35 -41 -62 -41c-21 0 -39 12 -39 30
c0 24 29 45 55 45z" />
    <glyph glyph-name="oslash" unicode="&#xf8;" horiz-adv-x="491" 
d="M258 405c20 0 37 -2 54 -5l21 49c14 -1 32 -7 44 -15l-22 -48c67 -31 101 -95 101 -177c0 -81 -46 -144 -86 -174c-31 -25 -104 -45 -147 -45c-16 0 -32 1 -45 4c-8 -17 -16 -35 -24 -55c-15 2 -34 6 -45 14l25 56c-74 37 -98 120 -97 170c0 72 35 143 81 177
c27 21 105 49 140 49zM317 303c-40 -87 -72 -157 -111 -246c13 -10 30 -15 49 -15c51 0 92 60 88 165c-1 40 -11 73 -26 96zM235 351c-25 0 -85 -29 -85 -164c0 -33 8 -67 23 -93c39 85 71 154 111 243c-15 9 -31 14 -49 14z" />
    <glyph glyph-name="ugrave" unicode="&#xf9;" horiz-adv-x="506" 
d="M173 410c-9 -71 -13 -142 -12 -215c2 -111 20 -130 67 -130c30 0 65 7 103 18c4 39 4 242 -6 313c19 0 99 8 127 14c-13 -92 -10 -367 4 -407c-30 0 -89 -3 -122 -8c-3 16 -2 27 -2 42c-49 -22 -102 -44 -168 -44c-83 0 -115 52 -114 166c1 107 0 206 -5 240
c32 1 103 5 128 11zM174 586c39 -30 109 -71 168 -101c-1 -8 -8 -26 -14 -35c-69 20 -125 32 -194 44c16 28 35 72 40 92z" />
    <glyph glyph-name="uacute" unicode="&#xfa;" horiz-adv-x="506" 
d="M173 410c-9 -71 -13 -142 -12 -215c2 -111 20 -130 67 -130c30 0 65 7 103 18c4 39 4 242 -6 313c19 0 99 8 127 14c-13 -92 -10 -367 4 -407c-30 0 -89 -3 -122 -8c-3 16 -2 27 -2 42c-49 -22 -102 -44 -168 -44c-83 0 -115 52 -114 166c1 107 0 206 -5 240
c32 1 103 5 128 11zM327 597c4 -21 21 -64 37 -93c-69 -11 -123 -24 -192 -43c-6 8 -14 25 -14 33c59 30 129 72 169 103z" />
    <glyph glyph-name="ucircumflex" unicode="&#xfb;" horiz-adv-x="506" 
d="M173 410c-9 -71 -13 -142 -12 -215c2 -111 20 -130 67 -130c30 0 65 7 103 18c4 39 4 242 -6 313c19 0 99 8 127 14c-13 -92 -10 -367 4 -407c-30 0 -89 -3 -122 -8c-3 16 -2 27 -2 42c-49 -22 -102 -44 -168 -44c-83 0 -115 52 -114 166c1 107 0 206 -5 240
c32 1 103 5 128 11zM149 447c-6 5 -16 22 -18 32c33 22 79 52 122 86c32 -28 78 -60 112 -82c-3 -9 -13 -28 -19 -34c-38 15 -62 22 -94 31c-34 -8 -74 -21 -103 -33z" />
    <glyph glyph-name="udieresis" unicode="&#xfc;" horiz-adv-x="506" 
d="M173 410c-9 -71 -13 -142 -12 -215c2 -111 20 -130 67 -130c30 0 65 7 103 18c4 39 4 242 -6 313c19 0 99 8 127 14c-13 -92 -10 -367 4 -407c-30 0 -89 -3 -122 -8c-3 16 -2 27 -2 42c-49 -22 -102 -44 -168 -44c-83 0 -115 52 -114 166c1 107 0 206 -5 240
c32 1 103 5 128 11zM179 542c32 0 48 -16 48 -37c0 -28 -32 -44 -64 -44c-22 0 -41 13 -41 33c0 25 29 48 57 48zM334 542c31 0 47 -16 47 -37c0 -28 -31 -44 -64 -44c-21 0 -41 13 -41 33c0 25 30 48 58 48z" />
    <glyph glyph-name="yacute" unicode="&#xfd;" horiz-adv-x="499" 
d="M496 409l3 -5c-70 -110 -146 -249 -202 -375c-33 -71 -29 -60 -62 -140c-37 -88 -86 -146 -200 -173c-9 9 -15 23 -16 34c91 59 143 109 200 233c-45 107 -135 317 -211 421c33 -9 131 -1 156 3c10 -55 69 -209 118 -296c52 104 104 232 110 287c20 -1 68 3 104 11z
M347 597c4 -21 21 -64 37 -93c-69 -11 -123 -24 -192 -43c-6 8 -14 25 -14 33c59 30 129 72 169 103z" />
    <glyph glyph-name="thorn" unicode="&#xfe;" horiz-adv-x="496" 
d="M47 -283c15 127 16 522 16 659s-6 282 -13 312c29 2 95 14 131 27c-7 -75 -10 -216 -9 -335c34 15 64 29 106 29c129 0 183 -78 180 -178c-5 -146 -110 -239 -240 -239c-24 0 -34 3 -48 8c3 -140 6 -221 20 -270c-30 -1 -123 -9 -143 -13zM171 47c15 -3 24 -7 46 -7
c62 0 125 38 125 189c0 86 -46 123 -95 123c-25 0 -46 -6 -75 -17c-4 -73 -1 -245 -1 -288z" />
    <glyph glyph-name="ydieresis" unicode="&#xff;" horiz-adv-x="499" 
d="M496 409l3 -5c-70 -110 -146 -249 -202 -375c-33 -71 -29 -60 -62 -140c-37 -88 -86 -146 -200 -173c-9 9 -15 23 -16 34c91 59 143 109 200 233c-45 107 -135 317 -211 421c33 -9 131 -1 156 3c10 -55 69 -209 118 -296c52 104 104 232 110 287c20 -1 68 3 104 11z
M200 542c32 0 48 -16 48 -37c0 -28 -32 -44 -64 -44c-22 0 -41 13 -41 33c0 25 29 48 57 48zM355 542c31 0 47 -16 47 -37c0 -28 -31 -44 -64 -44c-21 0 -41 13 -41 33c0 25 30 48 58 48z" />
    <glyph glyph-name="Amacron" unicode="&#x100;" horiz-adv-x="585" 
d="M395 -2c-11 55 -30 129 -51 201l-171 -19c-25 -61 -46 -122 -60 -178c-20 1 -88 -3 -113 -9c81 115 169 278 238 448c28 72 33 99 39 137c12 5 43 12 66 14c39 -158 134 -453 213 -594c-42 5 -138 3 -161 0zM279 431c-8 -17 -15 -37 -23 -55c-21 -50 -44 -101 -66 -152
c44 1 102 6 144 9l-37 125c-5 18 -14 51 -18 73zM191 695c101 -3 158 -3 233 -2c0 -11 -1 -36 -6 -46c-97 2 -105 3 -230 2c-3 9 1 40 3 46z" />
    <glyph glyph-name="amacron" unicode="&#x101;" horiz-adv-x="430" 
d="M66 378c65 21 128 31 173 31c55 0 134 -14 132 -86c-1 -53 -2 -200 1 -257c1 -16 1 -42 8 -67c-36 4 -81 3 -118 -3c-2 11 -2 28 -2 37c-49 -23 -111 -43 -141 -43c-37 0 -58 7 -77 44c-10 21 -16 55 -14 84c5 56 71 81 114 92c34 8 75 15 118 20c3 24 3 66 -1 86
c-5 34 -46 41 -86 41c-26 0 -73 -10 -97 -17c-4 5 -10 25 -10 38zM201 62c16 2 33 3 58 10c-1 39 0 84 1 117c-24 -3 -50 -9 -61 -12c-40 -12 -67 -35 -59 -77c6 -33 23 -43 61 -38zM104 522c101 -3 158 -3 233 -2c0 -11 -1 -36 -6 -46c-97 2 -105 3 -230 2c-3 9 1 40 3 46z
" />
    <glyph glyph-name="Abreve" unicode="&#x102;" horiz-adv-x="585" 
d="M395 -2c-11 55 -30 129 -51 201l-171 -19c-25 -61 -46 -122 -60 -178c-20 1 -88 -3 -113 -9c81 115 169 278 238 448c28 72 33 99 39 137c12 5 43 12 66 14c39 -158 134 -453 213 -594c-42 5 -138 3 -161 0zM388 750c7 0 29 -3 34 -8c-13 -60 -68 -106 -120 -106
c-57 0 -96 49 -107 106c6 4 26 8 36 9c15 -27 41 -41 74 -41c37 0 66 17 83 40zM279 431c-8 -17 -15 -37 -23 -55c-21 -50 -44 -101 -66 -152c44 1 102 6 144 9l-37 125c-5 18 -14 51 -18 73z" />
    <glyph glyph-name="abreve" unicode="&#x103;" horiz-adv-x="430" 
d="M66 378c65 21 128 31 173 31c55 0 134 -14 132 -86c-1 -53 -2 -200 1 -257c1 -16 1 -42 8 -67c-36 4 -81 3 -118 -3c-2 11 -2 28 -2 37c-49 -23 -111 -43 -141 -43c-37 0 -58 7 -77 44c-10 21 -16 55 -14 84c5 56 71 81 114 92c34 8 75 15 118 20c3 24 3 66 -1 86
c-5 34 -46 41 -86 41c-26 0 -73 -10 -97 -17c-4 5 -10 25 -10 38zM201 62c16 2 33 3 58 10c-1 39 0 84 1 117c-24 -3 -50 -9 -61 -12c-40 -12 -67 -35 -59 -77c6 -33 23 -43 61 -38zM294 564c7 0 29 -3 34 -8c-13 -60 -68 -106 -120 -106c-57 0 -96 49 -107 106
c6 4 26 8 36 9c15 -27 41 -41 74 -41c37 0 66 17 83 40z" />
    <glyph glyph-name="Aogonek" unicode="&#x104;" horiz-adv-x="585" 
d="M506 -98c3 -8 7 -27 7 -36c-28 -8 -71 -19 -99 -19c-48 0 -68 29 -68 61c0 29 21 62 49 90c-11 55 -30 129 -51 201l-171 -19c-25 -61 -46 -122 -60 -178c-20 1 -88 -3 -113 -9c81 115 169 278 238 448c28 72 33 99 39 137c12 5 43 12 66 14c39 -158 134 -453 213 -594
c-26 3 -74 4 -111 3c-10 -18 -15 -45 -15 -65c0 -28 12 -38 32 -38c15 0 35 3 44 4zM279 431c-8 -17 -15 -37 -23 -55c-21 -50 -44 -101 -66 -152c44 1 102 6 144 9l-37 125c-5 18 -14 51 -18 73z" />
    <glyph glyph-name="aogonek" unicode="&#x105;" horiz-adv-x="430" 
d="M375 -98c2 -8 7 -27 7 -36c-28 -8 -71 -19 -99 -19c-48 0 -68 29 -68 61c0 29 20 60 47 88c-2 11 -2 28 -2 37c-49 -23 -111 -43 -141 -43c-37 0 -58 7 -77 44c-10 21 -16 55 -14 84c5 56 71 81 114 92c34 8 75 15 118 20c3 24 3 66 -1 86c-5 34 -46 41 -86 41
c-26 0 -73 -10 -97 -17c-4 5 -10 25 -10 38c65 21 128 31 173 31c55 0 134 -14 132 -86c-1 -53 -2 -200 1 -257c1 -16 1 -42 8 -67c-20 2 -43 3 -66 2c-10 -18 -16 -45 -16 -65c0 -28 12 -38 32 -38c15 0 36 3 45 4zM201 62c16 2 33 3 58 10c-1 39 0 84 1 117
c-24 -3 -50 -9 -61 -12c-40 -12 -67 -35 -59 -77c6 -33 23 -43 61 -38z" />
    <glyph glyph-name="Cacute" unicode="&#x106;" horiz-adv-x="548" 
d="M293 -13c-215 3 -260 183 -260 258c0 155 108 350 339 350c28 0 86 -15 125 -34c-1 -9 -11 -29 -16 -34c-34 13 -89 23 -119 23c-93 0 -206 -81 -206 -289c0 -164 97 -214 169 -215c51 0 118 18 178 43c8 -8 14 -24 15 -33c-56 -32 -157 -69 -225 -69zM382 776
c4 -21 21 -64 37 -93c-69 -11 -123 -24 -192 -43c-6 8 -14 25 -14 33c59 30 129 72 169 103z" />
    <glyph glyph-name="cacute" unicode="&#x107;" horiz-adv-x="411" 
d="M365 390c-3 -15 -9 -29 -15 -39c-20 5 -60 13 -87 13c-30 0 -112 -20 -112 -184c0 -98 52 -133 101 -133c28 0 76 10 114 20c6 -8 11 -25 12 -36c-62 -21 -120 -39 -170 -39c-140 0 -172 112 -172 180c0 124 94 237 235 237c20 0 71 -11 94 -19zM287 597
c4 -21 21 -64 37 -93c-69 -11 -123 -24 -192 -43c-6 8 -14 25 -14 33c59 30 129 72 169 103z" />
    <glyph glyph-name="Ccircumflex" unicode="&#x108;" horiz-adv-x="548" 
d="M293 -13c-215 3 -260 183 -260 258c0 155 108 350 339 350c28 0 86 -15 125 -34c-1 -9 -11 -29 -16 -34c-34 13 -89 23 -119 23c-93 0 -206 -81 -206 -289c0 -164 97 -214 169 -215c51 0 118 18 178 43c8 -8 14 -24 15 -33c-56 -32 -157 -69 -225 -69zM224 627
c-6 5 -16 22 -18 32c33 22 79 52 122 86c32 -28 78 -60 112 -82c-3 -9 -13 -28 -19 -34c-38 15 -62 22 -94 31c-34 -8 -74 -21 -103 -33z" />
    <glyph glyph-name="ccircumflex" unicode="&#x109;" horiz-adv-x="411" 
d="M365 390c-3 -15 -9 -29 -15 -39c-20 5 -60 13 -87 13c-30 0 -112 -20 -112 -184c0 -98 52 -133 101 -133c28 0 76 10 114 20c6 -8 11 -25 12 -36c-62 -21 -120 -39 -170 -39c-140 0 -172 112 -172 180c0 124 94 237 235 237c20 0 71 -11 94 -19zM124 447
c-6 5 -16 22 -18 32c33 22 79 52 122 86c32 -28 78 -60 112 -82c-3 -9 -13 -28 -19 -34c-38 15 -62 22 -94 31c-34 -8 -74 -21 -103 -33z" />
    <glyph glyph-name="Cdotaccent" unicode="&#x10a;" horiz-adv-x="548" 
d="M293 -13c-215 3 -260 183 -260 258c0 155 108 350 339 350c28 0 86 -15 125 -34c-1 -9 -11 -29 -16 -34c-34 13 -89 23 -119 23c-93 0 -206 -81 -206 -289c0 -164 97 -214 169 -215c51 0 118 18 178 43c8 -8 14 -24 15 -33c-56 -32 -157 -69 -225 -69zM345 731
c39 0 48 -24 48 -37c0 -22 -30 -48 -67 -48c-27 0 -47 12 -47 38c0 21 23 47 66 47z" />
    <glyph glyph-name="cdotaccent" unicode="&#x10b;" horiz-adv-x="411" 
d="M365 390c-3 -15 -9 -29 -15 -39c-20 5 -60 13 -87 13c-30 0 -112 -20 -112 -184c0 -98 52 -133 101 -133c28 0 76 10 114 20c6 -8 11 -25 12 -36c-62 -21 -120 -39 -170 -39c-140 0 -172 112 -172 180c0 124 94 237 235 237c20 0 71 -11 94 -19zM244 548
c39 0 48 -24 48 -37c0 -22 -30 -48 -67 -48c-27 0 -47 12 -47 38c0 21 23 47 66 47z" />
    <glyph glyph-name="Ccaron" unicode="&#x10c;" horiz-adv-x="548" 
d="M293 -13c-215 3 -260 183 -260 258c0 155 108 350 339 350c28 0 86 -15 125 -34c-1 -9 -11 -29 -16 -34c-34 13 -89 23 -119 23c-93 0 -206 -81 -206 -289c0 -164 97 -214 169 -215c51 0 118 18 178 43c8 -8 14 -24 15 -33c-56 -32 -157 -69 -225 -69zM423 742
c6 -5 16 -22 18 -32c-33 -22 -79 -52 -122 -86c-32 28 -78 60 -112 82c3 9 13 28 19 34c38 -15 62 -22 94 -31c34 8 74 21 103 33z" />
    <glyph glyph-name="ccaron" unicode="&#x10d;" horiz-adv-x="411" 
d="M365 390c-3 -15 -9 -29 -15 -39c-20 5 -60 13 -87 13c-30 0 -112 -20 -112 -184c0 -98 52 -133 101 -133c28 0 76 10 114 20c6 -8 11 -25 12 -36c-62 -21 -120 -39 -170 -39c-140 0 -172 112 -172 180c0 124 94 237 235 237c20 0 71 -11 94 -19zM329 557
c6 -5 16 -22 18 -32c-33 -22 -79 -52 -122 -86c-32 28 -78 60 -112 82c3 9 13 28 19 34c38 -15 62 -22 94 -31c34 8 74 21 103 33z" />
    <glyph glyph-name="Dcaron" unicode="&#x10e;" horiz-adv-x="588" 
d="M278 582c177 -3 282 -68 282 -210c0 -213 -181 -368 -375 -372c-38 -1 -86 -1 -137 3c14 58 23 392 16 580c42 -2 187 -1 214 -1zM184 540c-7 -150 -8 -332 -3 -493c114 -8 255 96 255 289c0 152 -87 199 -175 204c-35 2 -54 2 -77 0zM376 733c6 -5 16 -22 18 -32
c-33 -22 -79 -52 -122 -86c-32 28 -78 60 -112 82c3 9 13 28 19 34c38 -15 62 -22 94 -31c34 8 74 21 103 33z" />
    <glyph glyph-name="dcaron" unicode="&#x10f;" horiz-adv-x="516" 
d="M540 697c24 0 55 -17 55 -66c0 -47 -36 -125 -71 -185c-11 1 -25 6 -34 13c13 30 20 65 19 92c-1 32 -27 61 -27 90c0 28 22 56 58 56zM257 410c38 0 59 -4 87 -9c1 81 -5 242 -15 286c46 3 100 11 139 28c-16 -71 -23 -578 -4 -674c-62 -20 -156 -54 -236 -54
c-113 0 -193 57 -190 187c3 138 101 236 219 236zM260 361c-42 0 -102 -46 -106 -184c-4 -107 51 -138 93 -138c38 0 68 6 93 16c4 88 4 234 3 298c-27 7 -53 8 -83 8z" />
    <glyph glyph-name="Dcroat" unicode="&#x110;" horiz-adv-x="588" 
d="M278 582c177 -3 282 -68 282 -210c0 -213 -181 -368 -375 -372c-38 -1 -86 -1 -137 3c8 33 14 156 17 291l-53 -1c-2 10 1 37 4 43c16 -1 32 -1 49 -1c2 88 2 178 -1 248c42 -2 187 -1 214 -1zM184 540c-3 -65 -5 -135 -6 -207c45 0 88 1 119 2c1 -10 -1 -34 -6 -44
c-38 2 -75 2 -113 3c-1 -83 0 -167 3 -247c114 -8 255 96 255 289c0 152 -87 199 -175 204c-35 2 -54 2 -77 0z" />
    <glyph glyph-name="dcroat" unicode="&#x111;" horiz-adv-x="516" 
d="M257 410c37 0 59 -4 87 -9c0 28 0 66 -2 106h-130c-3 8 1 35 4 41c41 -1 84 -2 125 -2c-3 60 -7 117 -12 141c46 3 99 11 139 28c-5 -23 -10 -87 -12 -169h41c1 -10 -1 -32 -6 -42c-13 1 -25 1 -36 1c-5 -175 -3 -403 9 -464c-62 -20 -156 -54 -236 -54
c-113 0 -194 57 -190 187c3 138 101 236 219 236zM260 361c-42 0 -102 -46 -107 -184c-3 -107 52 -138 94 -138c38 0 68 6 93 16c4 88 4 234 3 298c-27 7 -53 8 -83 8z" />
    <glyph glyph-name="Emacron" unicode="&#x112;" horiz-adv-x="447" 
d="M55 583c85 -3 243 -2 358 0l-3 -40c-100 -1 -136 -2 -229 -7c-4 -40 -5 -164 -5 -188c70 -1 128 2 204 7l2 -40c-64 -3 -140 -8 -206 -15c-1 -59 0 -183 3 -248c75 -5 134 -10 251 -9l3 -45c-235 4 -271 4 -385 0c13 86 16 533 7 585zM129 695c101 -3 158 -3 233 -2
c0 -11 -1 -36 -6 -46c-97 2 -105 3 -230 2c-3 9 1 40 3 46z" />
    <glyph glyph-name="emacron" unicode="&#x113;" horiz-adv-x="428" 
d="M37 176c2 88 61 235 210 235c89 0 115 -23 129 -55c10 -23 5 -64 -9 -84c-16 -24 -47 -42 -139 -44c-25 0 -50 4 -75 6c-13 -98 13 -190 95 -190c47 0 95 11 135 21c5 -9 9 -25 9 -35c-50 -18 -133 -40 -183 -40c-135 0 -174 102 -172 186zM209 272c24 0 46 3 57 20
c9 13 10 40 5 55s-17 25 -40 25c-41 0 -66 -57 -71 -98c15 -2 31 -2 49 -2zM116 520c101 -3 158 -3 233 -2c0 -11 -1 -36 -6 -46c-97 2 -105 3 -230 2c-3 9 1 40 3 46z" />
    <glyph glyph-name="Ebreve" unicode="&#x114;" horiz-adv-x="447" 
d="M55 583c85 -3 243 -2 358 0l-3 -40c-100 -1 -136 -2 -229 -7c-4 -40 -5 -164 -5 -188c70 -1 128 2 204 7l2 -40c-64 -3 -140 -8 -206 -15c-1 -59 0 -183 3 -248c75 -5 134 -10 251 -9l3 -45c-235 4 -271 4 -385 0c13 86 16 533 7 585zM320 748c7 0 29 -3 34 -8
c-13 -60 -68 -106 -120 -106c-57 0 -96 49 -107 106c6 4 26 8 36 9c15 -27 41 -41 74 -41c37 0 66 17 83 40z" />
    <glyph glyph-name="ebreve" unicode="&#x115;" horiz-adv-x="428" 
d="M37 176c2 88 61 235 210 235c89 0 115 -23 129 -55c10 -23 5 -64 -9 -84c-16 -24 -47 -42 -139 -44c-25 0 -50 4 -75 6c-13 -98 13 -190 95 -190c47 0 95 11 135 21c5 -9 9 -25 9 -35c-50 -18 -133 -40 -183 -40c-135 0 -174 102 -172 186zM209 272c24 0 46 3 57 20
c9 13 10 40 5 55s-17 25 -40 25c-41 0 -66 -57 -71 -98c15 -2 31 -2 49 -2zM310 564c7 0 29 -3 34 -8c-13 -60 -68 -106 -120 -106c-57 0 -96 49 -107 106c6 4 26 8 36 9c15 -27 41 -41 74 -41c37 0 66 17 83 40z" />
    <glyph glyph-name="Edotaccent" unicode="&#x116;" horiz-adv-x="447" 
d="M55 583c85 -3 243 -2 358 0l-3 -40c-100 -1 -136 -2 -229 -7c-4 -40 -5 -164 -5 -188c70 -1 128 2 204 7l2 -40c-64 -3 -140 -8 -206 -15c-1 -59 0 -183 3 -248c75 -5 134 -10 251 -9l3 -45c-235 4 -271 4 -385 0c13 86 16 533 7 585zM255 727c39 0 48 -24 48 -37
c0 -22 -30 -48 -67 -48c-27 0 -47 12 -47 38c0 21 23 47 66 47z" />
    <glyph glyph-name="edotaccent" unicode="&#x117;" horiz-adv-x="428" 
d="M37 176c2 88 61 235 210 235c89 0 115 -23 129 -55c10 -23 5 -64 -9 -84c-16 -24 -47 -42 -139 -44c-25 0 -50 4 -75 6c-13 -98 13 -190 95 -190c47 0 95 11 135 21c5 -9 9 -25 9 -35c-50 -18 -133 -40 -183 -40c-135 0 -174 102 -172 186zM209 272c24 0 46 3 57 20
c9 13 10 40 5 55s-17 25 -40 25c-41 0 -66 -57 -71 -98c15 -2 31 -2 49 -2zM238 548c39 0 48 -24 48 -37c0 -22 -30 -48 -67 -48c-27 0 -47 12 -47 38c0 21 23 47 66 47z" />
    <glyph glyph-name="Eogonek" unicode="&#x118;" horiz-adv-x="447" 
d="M429 -98c3 -8 8 -27 8 -36c-29 -8 -71 -19 -100 -19c-47 0 -68 29 -68 61c0 30 23 63 51 92c-137 2 -179 1 -272 -2c13 86 16 533 7 585c85 -3 243 -2 358 0l-3 -40c-100 -1 -136 -2 -229 -7c-4 -40 -5 -164 -5 -188c70 -1 128 2 204 7l2 -40c-64 -3 -140 -8 -206 -15
c-1 -59 0 -183 3 -248c75 -5 134 -10 251 -9l3 -45l-66 2c-9 -19 -14 -44 -14 -64c0 -28 12 -38 32 -38c15 0 35 3 44 4z" />
    <glyph glyph-name="eogonek" unicode="&#x119;" horiz-adv-x="428" 
d="M361 -98c3 -8 7 -27 7 -36c-28 -8 -70 -19 -99 -19c-48 0 -68 29 -68 61c0 27 19 57 43 85c-13 -3 -25 -3 -35 -3c-135 0 -174 102 -172 186c2 88 61 235 210 235c89 0 115 -23 129 -55c10 -23 5 -64 -9 -84c-16 -24 -47 -42 -139 -44c-25 0 -50 4 -75 6
c-13 -98 13 -190 95 -190c47 0 95 11 135 21c5 -9 9 -25 9 -35c-25 -9 -59 -19 -92 -27c0 0 0 -1 1 -1c-11 -18 -16 -45 -16 -66c0 -28 12 -38 32 -38c15 0 35 3 44 4zM209 272c24 0 46 3 57 20c9 13 10 40 5 55s-17 25 -40 25c-41 0 -66 -57 -71 -98c15 -2 31 -2 49 -2z
" />
    <glyph glyph-name="Ecaron" unicode="&#x11a;" horiz-adv-x="447" 
d="M55 583c85 -3 243 -2 358 0l-3 -40c-100 -1 -136 -2 -229 -7c-4 -40 -5 -164 -5 -188c70 -1 128 2 204 7l2 -40c-64 -3 -140 -8 -206 -15c-1 -59 0 -183 3 -248c75 -5 134 -10 251 -9l3 -45c-235 4 -271 4 -385 0c13 86 16 533 7 585zM338 733c6 -5 16 -22 18 -32
c-33 -22 -79 -52 -122 -86c-32 28 -78 60 -112 82c3 9 13 28 19 34c38 -15 62 -22 94 -31c34 8 74 21 103 33z" />
    <glyph glyph-name="ecaron" unicode="&#x11b;" horiz-adv-x="428" 
d="M37 176c2 88 61 235 210 235c89 0 115 -23 129 -55c10 -23 5 -64 -9 -84c-16 -24 -47 -42 -139 -44c-25 0 -50 4 -75 6c-13 -98 13 -190 95 -190c47 0 95 11 135 21c5 -9 9 -25 9 -35c-50 -18 -133 -40 -183 -40c-135 0 -174 102 -172 186zM209 272c24 0 46 3 57 20
c9 13 10 40 5 55s-17 25 -40 25c-41 0 -66 -57 -71 -98c15 -2 31 -2 49 -2zM324 557c6 -5 16 -22 18 -32c-33 -22 -79 -52 -122 -86c-32 28 -78 60 -112 82c3 9 13 28 19 34c38 -15 62 -22 94 -31c34 8 74 21 103 33z" />
    <glyph glyph-name="Gcircumflex" unicode="&#x11c;" horiz-adv-x="613" 
d="M290 -14c-205 4 -255 154 -255 256c0 149 99 353 330 353c28 0 97 -15 140 -33c-2 -12 -10 -32 -17 -39c-52 13 -95 21 -130 21c-89 0 -201 -91 -201 -290c0 -113 59 -212 170 -213c40 -1 74 7 114 16c6 109 5 175 -3 285c31 -2 98 -2 127 6c-11 -64 -17 -248 -4 -298
c-97 -33 -163 -62 -271 -64zM238 627c-6 5 -16 22 -18 32c33 22 79 52 122 86c32 -28 78 -60 112 -82c-3 -9 -13 -28 -19 -34c-38 15 -62 22 -94 31c-34 -8 -74 -21 -103 -33z" />
    <glyph glyph-name="gcircumflex" unicode="&#x11d;" horiz-adv-x="435" 
d="M217 408c51 0 99 -11 116 -24c24 6 52 19 71 28c9 -7 15 -22 18 -34c-22 -10 -40 -19 -56 -30c4 -6 6 -15 6 -28c0 -93 -126 -118 -176 -121c-27 -51 30 -81 90 -115c94 -53 143 -91 143 -186c0 -90 -102 -179 -235 -179c-159 0 -189 94 -189 140c0 82 37 136 130 214
c-39 46 -28 81 19 127c-79 5 -127 41 -129 91c-1 63 75 117 192 117zM162 44c-35 -35 -56 -88 -56 -149c0 -50 35 -122 117 -122c90 0 113 53 113 86c0 67 -38 102 -100 135c-29 16 -56 35 -74 50zM201 367c-33 0 -59 -24 -58 -73c1 -13 8 -51 53 -51c38 0 60 27 59 67
c-1 36 -20 57 -54 57zM103 447c-6 5 -16 22 -18 32c33 22 79 52 122 86c32 -28 78 -60 112 -82c-3 -9 -13 -28 -19 -34c-38 15 -62 22 -94 31c-34 -8 -74 -21 -103 -33z" />
    <glyph glyph-name="Gbreve" unicode="&#x11e;" horiz-adv-x="613" 
d="M290 -14c-205 4 -255 154 -255 256c0 149 99 353 330 353c28 0 97 -15 140 -33c-2 -12 -10 -32 -17 -39c-52 13 -95 21 -130 21c-89 0 -201 -91 -201 -290c0 -113 59 -212 170 -213c40 -1 74 7 114 16c6 109 5 175 -3 285c31 -2 98 -2 127 6c-11 -64 -17 -248 -4 -298
c-97 -33 -163 -62 -271 -64zM418 752c7 0 29 -3 34 -8c-13 -60 -68 -106 -120 -106c-57 0 -96 49 -107 106c6 4 26 8 36 9c15 -27 41 -41 74 -41c37 0 66 17 83 40z" />
    <glyph glyph-name="gbreve" unicode="&#x11f;" horiz-adv-x="435" 
d="M217 408c51 0 99 -11 116 -24c24 6 52 19 71 28c9 -7 15 -22 18 -34c-22 -10 -40 -19 -56 -30c4 -6 6 -15 6 -28c0 -93 -126 -118 -176 -121c-27 -51 30 -81 90 -115c94 -53 143 -91 143 -186c0 -90 -102 -179 -235 -179c-159 0 -189 94 -189 140c0 82 37 136 130 214
c-39 46 -28 81 19 127c-79 5 -127 41 -129 91c-1 63 75 117 192 117zM162 44c-35 -35 -56 -88 -56 -149c0 -50 35 -122 117 -122c90 0 113 53 113 86c0 67 -38 102 -100 135c-29 16 -56 35 -74 50zM201 367c-33 0 -59 -24 -58 -73c1 -13 8 -51 53 -51c38 0 60 27 59 67
c-1 36 -20 57 -54 57zM284 564c7 0 29 -3 34 -8c-13 -60 -68 -106 -120 -106c-57 0 -96 49 -107 106c6 4 26 8 36 9c15 -27 41 -41 74 -41c37 0 66 17 83 40z" />
    <glyph glyph-name="Gdotaccent" unicode="&#x120;" horiz-adv-x="613" 
d="M290 -14c-205 4 -255 154 -255 256c0 149 99 353 330 353c28 0 97 -15 140 -33c-2 -12 -10 -32 -17 -39c-52 13 -95 21 -130 21c-89 0 -201 -91 -201 -290c0 -113 59 -212 170 -213c40 -1 74 7 114 16c6 109 5 175 -3 285c31 -2 98 -2 127 6c-11 -64 -17 -248 -4 -298
c-97 -33 -163 -62 -271 -64zM351 735c39 0 48 -24 48 -37c0 -22 -30 -48 -67 -48c-27 0 -47 12 -47 38c0 21 23 47 66 47z" />
    <glyph glyph-name="gdotaccent" unicode="&#x121;" horiz-adv-x="435" 
d="M217 408c51 0 99 -11 116 -24c24 6 52 19 71 28c9 -7 15 -22 18 -34c-22 -10 -40 -19 -56 -30c4 -6 6 -15 6 -28c0 -93 -126 -118 -176 -121c-27 -51 30 -81 90 -115c94 -53 143 -91 143 -186c0 -90 -102 -179 -235 -179c-159 0 -189 94 -189 140c0 82 37 136 130 214
c-39 46 -28 81 19 127c-79 5 -127 41 -129 91c-1 63 75 117 192 117zM162 44c-35 -35 -56 -88 -56 -149c0 -50 35 -122 117 -122c90 0 113 53 113 86c0 67 -38 102 -100 135c-29 16 -56 35 -74 50zM201 367c-33 0 -59 -24 -58 -73c1 -13 8 -51 53 -51c38 0 60 27 59 67
c-1 36 -20 57 -54 57zM211 548c39 0 48 -24 48 -37c0 -22 -30 -48 -67 -48c-27 0 -47 12 -47 38c0 21 23 47 66 47z" />
    <glyph glyph-name="Gcommaaccent" unicode="&#x122;" horiz-adv-x="613" 
d="M318 -39c24 0 52 -18 52 -63c0 -37 -38 -109 -82 -171c-12 3 -24 8 -34 16c15 29 24 53 25 74c0 36 -18 61 -19 86c-1 31 22 58 58 58zM290 -14c-205 4 -255 154 -255 256c0 149 99 353 330 353c28 0 97 -15 140 -33c-2 -12 -10 -32 -17 -39c-52 13 -95 21 -130 21
c-89 0 -201 -91 -201 -290c0 -113 59 -212 170 -213c40 -1 74 7 114 16c6 109 5 175 -3 285c31 -2 98 -2 127 6c-11 -64 -17 -248 -4 -298c-97 -33 -163 -62 -271 -64z" />
    <glyph glyph-name="gcommaaccent" unicode="&#x123;" horiz-adv-x="435" 
d="M196 441c-23 0 -51 18 -51 62c0 38 39 109 83 171c12 -2 23 -8 33 -16c-15 -28 -25 -53 -25 -73c0 -37 18 -61 19 -87c1 -31 -22 -57 -59 -57zM217 408c51 0 99 -11 116 -24c24 6 52 19 71 28c9 -7 15 -22 18 -34c-22 -10 -40 -19 -56 -30c4 -6 6 -15 6 -28
c0 -93 -126 -118 -176 -121c-27 -51 30 -81 90 -115c94 -53 143 -91 143 -186c0 -90 -102 -179 -235 -179c-159 0 -189 94 -189 140c0 82 37 136 130 214c-39 46 -28 81 19 127c-79 5 -127 41 -129 91c-1 63 75 117 192 117zM162 44c-35 -35 -56 -88 -56 -149
c0 -50 35 -122 117 -122c90 0 113 53 113 86c0 67 -38 102 -100 135c-29 16 -56 35 -74 50zM201 367c-33 0 -59 -24 -58 -73c1 -13 8 -51 53 -51c38 0 60 27 59 67c-1 36 -20 57 -54 57z" />
    <glyph glyph-name="Hcircumflex" unicode="&#x124;" horiz-adv-x="638" 
d="M59 583c18 -1 107 -3 129 0c-8 -76 -11 -180 -11 -232c76 0 206 6 287 14c1 76 1 168 -3 218c26 -3 104 -4 128 0c-15 -127 -14 -437 -5 -585c-17 1 -107 3 -129 0c7 71 9 260 9 329c-46 -2 -225 -19 -288 -27c-2 -58 -5 -238 0 -302c-25 3 -104 5 -128 2
c14 117 19 424 11 583zM216 627c-6 5 -16 22 -18 32c33 22 79 52 122 86c32 -28 78 -60 112 -82c-3 -9 -13 -28 -19 -34c-38 15 -62 22 -94 31c-34 -8 -74 -21 -103 -33z" />
    <glyph glyph-name="hcircumflex" unicode="&#x125;" horiz-adv-x="527" 
d="M52 687c46 4 95 12 137 24c-18 -80 -17 -257 -16 -334c39 17 83 36 123 36c97 0 143 -33 156 -135c4 -37 12 -243 19 -279c-37 2 -96 5 -127 -1c10 70 3 213 -4 264c-10 72 -32 86 -68 87c-39 1 -71 -11 -99 -23c0 -94 1 -212 7 -328c-29 4 -69 6 -130 0
c17 108 19 542 2 689zM30 731c-6 5 -16 22 -18 32c33 22 79 52 122 86c32 -28 78 -60 112 -82c-3 -9 -13 -28 -19 -34c-38 15 -62 22 -94 31c-34 -8 -74 -21 -103 -33z" />
    <glyph glyph-name="Hbar" unicode="&#x126;" horiz-adv-x="638" 
d="M59 583c18 -1 107 -3 129 0c-4 -32 -6 -69 -8 -104c99 -1 186 -2 285 -1c-1 41 -2 79 -4 105c26 -3 104 -4 128 0c-3 -28 -6 -64 -7 -104h28c1 -11 -1 -30 -6 -40h-24c-5 -145 -2 -335 4 -441c-17 1 -107 3 -129 0c7 71 9 260 9 329c-46 -2 -225 -19 -288 -27
c-2 -58 -5 -238 0 -302c-25 3 -104 5 -128 2c11 87 16 283 14 442h-42c-4 8 0 33 3 39c13 -1 26 -1 39 -1zM465 440c-100 1 -188 2 -286 2c-1 -36 -2 -68 -2 -91c76 0 206 6 287 14c0 24 1 50 1 75z" />
    <glyph glyph-name="hbar" unicode="&#x127;" horiz-adv-x="527" 
d="M52 687c46 4 98 14 140 31c-8 -37 -13 -94 -16 -153h116c1 -11 -1 -33 -6 -43c-41 1 -76 2 -111 2c-2 -57 -2 -112 -2 -147c41 16 111 36 131 36c121 0 150 -77 157 -140c4 -37 13 -238 20 -274c-37 2 -96 5 -127 -1c9 70 2 213 -4 264c-10 72 -43 87 -77 88
c-29 0 -72 -10 -100 -20c0 -94 1 -216 7 -332c-29 4 -69 6 -130 0c12 80 17 339 11 527h-54c-3 8 1 36 4 42l49 -1c-2 48 -5 91 -8 121z" />
    <glyph glyph-name="Itilde" unicode="&#x128;" horiz-adv-x="231" 
d="M55 583c17 -4 106 -2 127 0c-15 -196 -13 -437 -6 -585c-25 3 -104 5 -128 2c13 133 14 424 7 583zM154 635c-36 2 -59 19 -87 20c-13 2 -32 -9 -52 -27c-12 4 -21 13 -29 21c25 40 69 95 96 93c31 -3 49 -18 86 -20c28 -2 45 12 61 27c13 -5 23 -11 32 -20
c-37 -61 -81 -96 -107 -94z" />
    <glyph glyph-name="itilde" unicode="&#x129;" horiz-adv-x="232" 
d="M51 -1c11 95 10 308 -1 392c30 0 94 7 124 16c-10 -66 -6 -330 8 -409c-36 7 -102 5 -131 1zM148 469c-36 2 -59 19 -87 20c-13 2 -32 -9 -52 -27c-12 4 -21 13 -29 21c25 40 69 95 96 93c31 -3 49 -18 86 -20c28 -2 45 12 61 27c13 -5 23 -11 32 -20
c-37 -61 -81 -96 -107 -94z" />
    <glyph glyph-name="Imacron" unicode="&#x12a;" horiz-adv-x="231" 
d="M22 699c100 -3 128 -3 203 -2c1 -11 -1 -36 -6 -46c-97 2 -76 3 -201 2c-3 9 1 40 4 46zM55 583c17 -4 106 -2 127 0c-15 -196 -13 -437 -6 -585c-25 3 -104 5 -128 2c13 133 14 424 7 583z" />
    <glyph glyph-name="imacron" unicode="&#x12b;" horiz-adv-x="232" 
d="M5 520c101 -3 151 -3 226 -2c0 -11 -1 -36 -6 -46c-97 2 -98 3 -223 2c-4 9 0 40 3 46zM51 -1c11 95 10 308 -1 392c30 0 94 7 124 16c-10 -66 -6 -330 8 -409c-36 7 -102 5 -131 1z" />
    <glyph glyph-name="Ibreve" unicode="&#x12c;" horiz-adv-x="231" 
d="M55 583c17 -4 106 -2 127 0c-15 -196 -13 -437 -6 -585c-25 3 -104 5 -128 2c13 133 14 424 7 583zM206 748c7 0 29 -3 34 -8c-13 -60 -68 -106 -120 -106c-57 0 -96 49 -107 106c6 4 26 8 36 9c15 -27 41 -41 74 -41c37 0 66 17 83 40z" />
    <glyph glyph-name="ibreve" unicode="&#x12d;" horiz-adv-x="232" 
d="M51 -1c11 95 10 308 -1 392c30 0 94 7 124 16c-10 -66 -6 -330 8 -409c-36 7 -102 5 -131 1zM199 564c7 0 29 -3 34 -8c-13 -60 -68 -106 -120 -106c-57 0 -96 49 -107 106c6 4 26 8 36 9c15 -27 41 -41 74 -41c37 0 66 17 83 40z" />
    <glyph glyph-name="Iogonek" unicode="&#x12e;" horiz-adv-x="231" 
d="M55 583c17 -4 106 -2 127 0c-15 -196 -13 -437 -6 -585c-15 2 -49 3 -79 4c-8 -19 -11 -44 -11 -65c0 -23 16 -40 50 -40c21 0 51 4 66 6c2 -8 7 -27 7 -36c-28 -8 -84 -21 -118 -21c-62 0 -87 28 -87 62c0 30 17 63 44 92c13 133 14 424 7 583z" />
    <glyph glyph-name="iogonek" unicode="&#x12f;" horiz-adv-x="232" 
d="M202 -97c2 -8 7 -27 7 -36c-28 -8 -84 -21 -118 -21c-62 0 -87 28 -87 62c0 31 18 66 47 95c11 96 10 305 -1 388c30 0 94 7 124 16c-10 -66 -6 -330 8 -409c-23 4 -55 5 -85 4c-8 -18 -11 -44 -11 -65c0 -23 16 -40 50 -40c21 0 51 4 66 6zM128 612c43 0 53 -28 53 -42
c0 -24 -33 -51 -74 -51c-30 0 -51 13 -51 42c0 21 26 51 72 51z" />
    <glyph glyph-name="Idotaccent" unicode="&#x130;" horiz-adv-x="231" 
d="M55 583c17 -4 106 -2 127 0c-15 -196 -13 -437 -6 -585c-25 3 -104 5 -128 2c13 133 14 424 7 583zM131 727c39 0 48 -24 48 -37c0 -22 -30 -48 -67 -48c-27 0 -47 12 -47 38c0 21 23 47 66 47z" />
    <glyph glyph-name="dotlessi" unicode="&#x131;" horiz-adv-x="232" 
d="M51 -1c11 95 10 308 -1 392c30 0 94 7 124 16c-10 -66 -6 -330 8 -409c-36 7 -102 5 -131 1z" />
    <glyph glyph-name="IJ" unicode="&#x132;" horiz-adv-x="461" 
d="M55 583c17 -4 106 -2 127 0c-15 -196 -13 -437 -6 -585c-25 3 -104 5 -128 2c13 133 14 424 7 583zM288 583c17 -4 104 -2 125 0c-11 -142 -8 -288 -8 -433c0 -161 -40 -259 -124 -336c-66 -60 -146 -68 -192 -39c2 11 6 30 13 41c18 -5 35 -9 57 -8c59 2 132 47 134 325
c0 121 -1 340 -5 450z" />
    <glyph glyph-name="ij" unicode="&#x133;" horiz-adv-x="464" 
d="M128 612c43 0 53 -28 53 -42c0 -24 -33 -51 -74 -51c-30 0 -51 13 -51 42c0 21 26 51 72 51zM51 -1c11 95 10 308 -1 392c30 0 94 7 124 16c-10 -66 -6 -330 8 -409c-36 7 -102 5 -131 1zM406 407c-6 -54 -9 -270 -5 -360c5 -150 -45 -224 -134 -296
c-47 -39 -112 -41 -142 -22c0 10 5 26 10 35c140 -28 154 133 157 215c2 93 0 341 -10 412c31 0 95 9 124 16zM361 612c43 0 53 -28 53 -42c0 -24 -33 -51 -73 -51c-31 0 -52 13 -52 42c0 21 26 51 72 51z" />
    <glyph glyph-name="Jcircumflex" unicode="&#x134;" horiz-adv-x="231" 
d="M57 583c17 -4 104 -2 125 0c-11 -142 -8 -288 -8 -433c0 -161 -40 -259 -124 -336c-66 -60 -146 -68 -192 -39c2 11 6 30 13 41c18 -5 35 -9 57 -8c59 2 132 47 134 325c0 121 -1 340 -5 450zM16 627c-6 5 -16 22 -18 32c33 22 79 52 122 86c32 -28 78 -60 112 -82
c-3 -9 -13 -28 -19 -34c-38 15 -62 22 -94 31c-34 -8 -74 -21 -103 -33z" />
    <glyph glyph-name="jcircumflex" unicode="&#x135;" horiz-adv-x="232" 
d="M169 394c-7 -53 -6 -262 -6 -349c0 -145 -51 -228 -114 -285c-40 -36 -104 -43 -133 -25c0 10 5 26 7 35c126 -12 132 130 134 210c3 90 1 329 -8 397c29 0 91 10 120 17zM12 447c-6 5 -16 22 -18 32c33 22 79 52 122 86c32 -28 78 -60 112 -82c-3 -9 -13 -28 -19 -34
c-38 15 -62 22 -94 31c-34 -8 -74 -21 -103 -33z" />
    <glyph glyph-name="Kcommaaccent" unicode="&#x136;" horiz-adv-x="613" 
d="M305 -39c23 0 51 -18 51 -63c0 -37 -38 -109 -82 -171c-11 3 -24 8 -33 16c15 29 24 53 24 74c1 36 -18 61 -19 86c0 31 22 58 59 58zM181 583c-5 -66 -8 -138 -8 -191c115 50 296 139 401 209c-15 -34 -26 -80 -32 -107c-62 -23 -152 -58 -191 -77
c73 -136 178 -315 258 -418c-41 3 -127 4 -160 -1c-54 124 -136 283 -195 382c-36 -15 -56 -23 -83 -36c-3 -132 0 -253 5 -346c-26 3 -104 5 -128 2c13 133 14 424 7 583c17 -4 105 -2 126 0z" />
    <glyph glyph-name="kcommaaccent" unicode="&#x137;" horiz-adv-x="519" 
d="M268 -39c24 0 51 -18 51 -63c0 -37 -37 -109 -82 -171c-11 3 -24 8 -33 16c15 29 24 53 24 74c1 36 -17 61 -18 86c-1 31 22 58 58 58zM57 -3c13 122 7 621 -7 689c32 3 103 14 133 24c-16 -133 -13 -250 -9 -427c94 33 216 82 318 135c-12 -21 -30 -72 -33 -91
c-53 -10 -88 -19 -143 -39c31 -65 145 -234 199 -289c-34 5 -134 5 -158 -2c-24 49 -94 189 -139 256c-21 -6 -27 -8 -43 -14c-1 -70 6 -168 12 -241c-35 4 -87 5 -130 -1z" />
    <glyph glyph-name="kgreenlandic" unicode="&#x138;" horiz-adv-x="519" 
d="M58 -3c6 58 9 289 -4 394c30 0 94 9 124 16c-3 -19 -4 -53 -4 -122c94 30 216 80 318 133c-12 -21 -31 -71 -33 -89c-53 -11 -88 -20 -143 -39c31 -65 174 -265 199 -291c-34 5 -134 5 -158 -2c-24 49 -94 190 -139 257c-21 -7 -26 -10 -43 -16c-1 -70 6 -167 13 -240
c-35 4 -87 5 -130 -1z" />
    <glyph glyph-name="Lacute" unicode="&#x139;" horiz-adv-x="427" 
d="M57 583c18 -4 104 -2 126 0c-12 -173 -13 -353 -8 -528c75 -10 128 -11 245 -14l-4 -43c-235 3 -254 3 -368 0c12 106 17 453 9 585zM216 776c4 -21 21 -64 37 -93c-69 -11 -123 -24 -192 -43c-6 8 -14 25 -14 33c59 30 129 72 169 103z" />
    <glyph glyph-name="lacute" unicode="&#x13a;" horiz-adv-x="239" 
d="M57 -3c12 96 8 621 -7 689c29 2 95 9 131 21c-17 -181 -7 -642 8 -709c-35 4 -89 5 -132 -1zM181 858c4 -21 21 -64 37 -93c-69 -11 -123 -24 -192 -43c-6 8 -14 25 -14 33c59 30 129 72 169 103z" />
    <glyph glyph-name="Lcommaaccent" unicode="&#x13b;" horiz-adv-x="427" 
d="M236 -39c23 0 51 -18 51 -63c0 -37 -38 -109 -82 -171c-11 3 -24 8 -34 16c15 29 25 53 25 74c0 36 -18 61 -19 86c-1 31 22 58 59 58zM57 583c18 -4 104 -2 126 0c-12 -173 -13 -353 -8 -528c75 -10 128 -11 245 -14l-4 -43c-235 3 -254 3 -368 0c12 106 17 453 9 585z
" />
    <glyph glyph-name="lcommaaccent" unicode="&#x13c;" horiz-adv-x="239" 
d="M124 -39c24 0 52 -18 52 -63c0 -37 -38 -109 -82 -171c-12 3 -24 8 -34 16c15 29 24 53 25 74c0 36 -18 61 -19 86c-1 31 22 58 58 58zM57 -3c12 96 8 624 -7 692c32 2 95 13 131 27c-17 -182 -7 -651 8 -718c-35 4 -89 5 -132 -1z" />
    <glyph glyph-name="Lcaron" unicode="&#x13d;" horiz-adv-x="427" 
d="M57 583c18 -4 104 -2 126 0c-12 -173 -13 -353 -8 -528c75 -10 128 -11 245 -14l-4 -43c-235 3 -254 3 -368 0c12 106 17 453 9 585zM334 585c23 0 55 -17 55 -66c0 -46 -50 -152 -90 -219c-12 1 -25 6 -34 13c23 59 34 100 33 126c-1 32 -27 61 -27 90c0 28 22 56 63 56
z" />
    <glyph glyph-name="lcaron" unicode="&#x13e;" horiz-adv-x="239" 
d="M263 701c24 0 55 -17 55 -66c0 -47 -36 -124 -71 -185c-11 1 -25 6 -34 13c13 30 20 66 19 92c-1 32 -27 61 -27 90c0 28 22 56 58 56zM57 -3c12 96 8 624 -7 692c32 2 95 13 131 27c-17 -182 -7 -651 8 -718c-35 4 -89 5 -132 -1z" />
    <glyph glyph-name="Ldot" unicode="&#x13f;" horiz-adv-x="427" 
d="M57 583c18 -4 104 -2 126 0c-12 -173 -13 -353 -8 -528c75 -10 128 -11 245 -14l-4 -43c-235 3 -254 3 -368 0c12 106 17 453 9 585zM335 342c46 0 55 -31 55 -46c0 -20 -20 -55 -76 -55c-30 0 -54 15 -54 46c0 23 28 55 75 55z" />
    <glyph glyph-name="ldot" unicode="&#x140;" horiz-adv-x="330" 
d="M57 -3c12 96 8 624 -7 692c32 2 95 13 131 27c-17 -182 -7 -651 8 -718c-35 4 -89 5 -132 -1zM290 350c46 0 55 -31 55 -46c0 -20 -20 -55 -76 -55c-30 0 -54 15 -54 46c0 23 28 55 75 55z" />
    <glyph glyph-name="Lslash" unicode="&#x141;" horiz-adv-x="427" 
d="M57 583c18 -4 104 -2 126 0c-7 -89 -9 -180 -11 -272c48 18 91 35 116 45c5 -7 15 -28 17 -42l-133 -48c0 -71 1 -142 3 -211c75 -10 128 -11 245 -14l-4 -43c-235 3 -254 3 -368 0c5 44 9 129 11 224l-32 -12c-7 8 -17 36 -17 41l50 18c2 120 1 246 -3 314z" />
    <glyph glyph-name="lslash" unicode="&#x142;" horiz-adv-x="239" 
d="M57 -3c6 43 8 171 7 306l-45 -30c-9 8 -20 25 -24 37l69 40c-2 154 -7 305 -14 339c32 2 95 13 131 27c-6 -71 -9 -183 -9 -299l44 30c10 -8 21 -28 24 -38l-67 -40c1 -169 8 -333 16 -371c-35 4 -89 5 -132 -1z" />
    <glyph glyph-name="Nacute" unicode="&#x143;" horiz-adv-x="615" 
d="M557 3l-33 -10c-104 130 -270 273 -365 359c-16 15 -30 29 -40 41c-2 -135 14 -351 22 -384c-27 -4 -62 -9 -94 -23c16 111 20 414 15 596c8 4 22 7 35 11c97 -123 231 -239 352 -345c16 -14 32 -27 46 -43c0 172 -6 270 -18 370c21 2 70 12 91 21
c-14 -38 -20 -283 -19 -493c0 -27 4 -67 8 -100zM379 776c4 -21 21 -64 37 -93c-69 -11 -123 -24 -192 -43c-6 8 -14 25 -14 33c59 30 129 72 169 103z" />
    <glyph glyph-name="nacute" unicode="&#x144;" horiz-adv-x="517" 
d="M50 400c29 3 86 7 127 15c-3 -18 -4 -30 -5 -43c42 18 105 39 129 39c108 0 151 -59 158 -153c14 -195 18 -234 21 -260c-30 4 -93 6 -126 0c6 51 -1 212 -3 237c-11 93 -40 112 -83 112c-26 0 -71 -8 -96 -15c-4 -79 -1 -198 5 -334c-28 4 -95 7 -127 0
c13 126 10 307 0 402zM326 597c4 -21 21 -64 37 -93c-69 -11 -123 -24 -192 -43c-6 8 -14 25 -14 33c59 30 129 72 169 103z" />
    <glyph glyph-name="Ncommaaccent" unicode="&#x145;" horiz-adv-x="615" 
d="M316 -39c24 0 51 -18 51 -63c0 -37 -37 -109 -82 -171c-11 3 -24 8 -33 16c15 29 24 53 24 74c1 36 -18 61 -18 86c-1 31 22 58 58 58zM557 3l-33 -10c-104 130 -270 273 -365 359c-16 15 -30 29 -40 41c-2 -135 14 -351 22 -384c-27 -4 -62 -9 -94 -23
c16 111 20 414 15 596c8 4 22 7 35 11c97 -123 231 -239 352 -345c16 -14 32 -27 46 -43c0 172 -6 270 -18 370c21 2 70 12 91 21c-14 -38 -20 -283 -19 -493c0 -27 4 -67 8 -100z" />
    <glyph glyph-name="ncommaaccent" unicode="&#x146;" horiz-adv-x="517" 
d="M264 -39c24 0 51 -18 51 -63c0 -37 -37 -109 -82 -171c-11 3 -23 8 -33 16c15 29 24 53 25 74c0 36 -18 61 -19 86c-1 31 22 58 58 58zM50 400c29 3 86 7 127 15c-3 -18 -4 -30 -5 -43c42 18 105 39 129 39c108 0 151 -59 158 -153c14 -195 18 -234 21 -260
c-30 4 -93 6 -126 0c6 51 -1 212 -3 237c-11 93 -40 112 -83 112c-26 0 -71 -8 -96 -15c-4 -79 -1 -198 5 -334c-28 4 -95 7 -127 0c13 126 10 307 0 402z" />
    <glyph glyph-name="Ncaron" unicode="&#x147;" horiz-adv-x="615" 
d="M557 3l-33 -10c-104 130 -270 273 -365 359c-16 15 -30 29 -40 41c-2 -135 14 -351 22 -384c-27 -4 -62 -9 -94 -23c16 111 20 414 15 596c8 4 22 7 35 11c97 -123 231 -239 352 -345c16 -14 32 -27 46 -43c0 172 -6 270 -18 370c21 2 70 12 91 21
c-14 -38 -20 -283 -19 -493c0 -27 4 -67 8 -100zM414 733c6 -5 16 -22 18 -32c-33 -22 -79 -52 -122 -86c-32 28 -78 60 -112 82c3 9 13 28 19 34c38 -15 62 -22 94 -31c34 8 74 21 103 33z" />
    <glyph glyph-name="ncaron" unicode="&#x148;" horiz-adv-x="517" 
d="M50 400c29 3 86 7 127 15c-3 -18 -4 -30 -5 -43c42 18 105 39 129 39c108 0 151 -59 158 -153c14 -195 18 -234 21 -260c-30 4 -93 6 -126 0c6 51 -1 212 -3 237c-11 93 -40 112 -83 112c-26 0 -71 -8 -96 -15c-4 -79 -1 -198 5 -334c-28 4 -95 7 -127 0
c13 126 10 307 0 402zM359 557c6 -5 16 -22 18 -32c-33 -22 -79 -52 -122 -86c-32 28 -78 60 -112 82c3 9 13 28 19 34c38 -15 62 -22 94 -31c34 8 74 21 103 33z" />
    <glyph glyph-name="napostrophe" unicode="&#x149;" horiz-adv-x="671" 
d="M117 595c23 0 55 -17 55 -66c0 -46 -50 -152 -90 -219c-12 1 -25 6 -34 13c23 59 34 100 33 126c-1 32 -27 61 -27 90c0 28 22 56 63 56zM204 400c29 3 86 7 127 15c-3 -18 -4 -30 -5 -43c42 18 105 39 129 39c108 0 151 -59 158 -153c14 -195 18 -234 21 -260
c-30 4 -93 6 -126 0c6 51 -1 212 -3 237c-11 93 -40 112 -83 112c-26 0 -71 -8 -96 -15c-4 -79 -1 -198 5 -334c-28 4 -95 7 -127 0c13 126 10 307 0 402z" />
    <glyph glyph-name="Eng" unicode="&#x14a;" horiz-adv-x="596" 
d="M429 133c2 88 2 177 -2 268c-5 101 -36 132 -115 132c-35 0 -91 -16 -142 -33c-4 -85 -1 -373 6 -502c-28 4 -97 7 -128 0c13 122 9 494 2 585c23 -3 93 -4 123 1c-2 -11 -3 -22 -3 -36c58 26 133 47 177 47c150 0 188 -44 192 -195c2 -79 2 -159 1 -250
c-2 -161 -39 -259 -123 -336c-67 -60 -147 -68 -193 -39c2 11 7 30 13 41c19 -5 36 -9 57 -8c59 2 128 47 135 325z" />
    <glyph glyph-name="eng" unicode="&#x14b;" horiz-adv-x="504" 
d="M343 -21c2 49 4 177 -1 256c-7 94 -36 111 -83 111c-26 0 -62 -9 -87 -16c-4 -79 -1 -196 5 -332c-28 4 -95 7 -127 0c13 126 10 307 0 402c29 3 86 7 127 15c-3 -18 -4 -30 -5 -43c42 18 89 39 116 39c93 0 156 -51 163 -153c4 -68 2 -136 1 -211
c-4 -150 -54 -234 -119 -293c-41 -37 -107 -44 -137 -25c0 10 5 26 8 35c129 -12 136 133 139 215z" />
    <glyph glyph-name="Omacron" unicode="&#x14c;" horiz-adv-x="662" 
d="M357 594c154 0 268 -112 269 -279c0 -104 -46 -201 -130 -267c-39 -30 -129 -65 -192 -65c-231 0 -269 204 -269 293c2 83 44 204 146 267c38 23 119 51 176 51zM326 539c-73 0 -169 -55 -169 -261c0 -96 46 -238 179 -238c74 0 169 66 169 271c0 178 -113 228 -179 228z
M219 699c101 -3 158 -3 233 -2c0 -11 -1 -36 -6 -46c-97 2 -105 3 -230 2c-3 9 1 40 3 46z" />
    <glyph glyph-name="omacron" unicode="&#x14d;" horiz-adv-x="491" 
d="M252 405c131 0 198 -81 198 -196c0 -81 -46 -144 -86 -174c-31 -25 -104 -45 -147 -45c-146 0 -188 123 -186 189c0 72 35 143 81 177c27 21 105 49 140 49zM229 351c-25 0 -85 -29 -85 -164c0 -73 38 -145 105 -145c51 0 92 60 88 165c-3 92 -50 144 -108 144zM127 520
c101 -3 158 -3 233 -2c0 -11 -1 -36 -6 -46c-97 2 -105 3 -230 2c-3 9 1 40 3 46z" />
    <glyph glyph-name="Obreve" unicode="&#x14e;" horiz-adv-x="662" 
d="M357 594c154 0 268 -112 269 -279c0 -104 -46 -201 -130 -267c-39 -30 -129 -65 -192 -65c-231 0 -269 204 -269 293c2 83 44 204 146 267c38 23 119 51 176 51zM326 539c-73 0 -169 -55 -169 -261c0 -96 46 -238 179 -238c74 0 169 66 169 271c0 178 -113 228 -179 228z
M415 752c7 0 29 -3 34 -8c-13 -60 -68 -106 -120 -106c-57 0 -96 49 -107 106c6 4 26 8 36 9c15 -27 41 -41 74 -41c37 0 66 17 83 40z" />
    <glyph glyph-name="obreve" unicode="&#x14f;" horiz-adv-x="491" 
d="M252 405c131 0 198 -81 198 -196c0 -81 -46 -144 -86 -174c-31 -25 -104 -45 -147 -45c-146 0 -188 123 -186 189c0 72 35 143 81 177c27 21 105 49 140 49zM229 351c-25 0 -85 -29 -85 -164c0 -73 38 -145 105 -145c51 0 92 60 88 165c-3 92 -50 144 -108 144zM321 564
c7 0 29 -3 34 -8c-13 -60 -68 -106 -120 -106c-57 0 -96 49 -107 106c6 4 26 8 36 9c15 -27 41 -41 74 -41c37 0 66 17 83 40z" />
    <glyph glyph-name="Ohungarumlaut" unicode="&#x150;" horiz-adv-x="662" 
d="M337 780c26 -16 55 -27 91 -35c-60 -36 -108 -82 -165 -130c-9 1 -25 8 -34 15c44 49 84 107 108 150zM475 780c25 -16 54 -27 91 -35c-60 -36 -109 -82 -166 -130c-9 1 -25 8 -33 15c44 49 83 107 108 150zM357 594c154 0 268 -112 269 -279c0 -104 -46 -201 -130 -267
c-39 -30 -129 -65 -192 -65c-231 0 -269 204 -269 293c2 83 44 204 146 267c38 23 119 51 176 51zM326 539c-73 0 -169 -55 -169 -261c0 -96 46 -238 179 -238c74 0 169 66 169 271c0 178 -113 228 -179 228z" />
    <glyph glyph-name="ohungarumlaut" unicode="&#x151;" horiz-adv-x="491" 
d="M252 405c131 0 198 -81 198 -196c0 -81 -46 -144 -86 -174c-31 -25 -104 -45 -147 -45c-146 0 -188 123 -186 189c0 72 35 143 81 177c27 21 105 49 140 49zM229 351c-25 0 -85 -29 -85 -164c0 -73 38 -145 105 -145c51 0 92 60 88 165c-3 92 -50 144 -108 144zM201 619
c28 -10 63 -14 90 -15c-40 -54 -72 -116 -102 -174c-11 0 -31 3 -37 8c22 59 38 131 49 181zM320 614c28 -8 62 -12 89 -14c-40 -54 -73 -117 -104 -174c-11 0 -31 3 -38 9c23 59 41 129 53 179z" />
    <glyph glyph-name="OE" unicode="&#x152;" horiz-adv-x="780" 
d="M388 583c85 -2 243 -2 358 0l-3 -40c-100 -2 -136 -2 -229 -7c-4 -40 -5 -163 -5 -186c70 -2 122 1 199 6l2 -41c-65 -3 -135 -8 -201 -15c-1 -59 0 -183 3 -248c75 -4 134 -7 251 -8l3 -46c-234 4 -271 4 -383 0c-22 0 -62 -3 -79 -3c-231 0 -269 192 -269 281
c2 83 43 194 144 260c24 15 95 47 154 48c15 0 37 0 55 -1zM336 50c8 0 37 1 50 2c6 119 9 363 6 478c-15 3 -37 3 -50 3c-73 0 -185 -49 -185 -255c0 -96 46 -228 179 -228z" />
    <glyph glyph-name="oe" unicode="&#x153;" horiz-adv-x="730" 
d="M257 405c64 0 115 -21 149 -58c38 41 90 64 140 64c131 0 142 -58 142 -85c0 -48 -43 -99 -172 -100c-25 0 -35 1 -60 5c-8 -58 -4 -186 95 -186c53 0 94 10 135 22c4 -7 10 -28 10 -37c-50 -19 -112 -40 -176 -40s-109 21 -138 55c-4 -5 -8 -8 -12 -10
c-37 -30 -105 -45 -147 -45c-143 0 -188 118 -186 189c0 72 38 143 84 177c27 21 100 49 136 49zM237 350c-25 0 -85 -28 -85 -163c0 -70 34 -143 99 -143c52 0 92 58 88 163c-3 103 -53 143 -102 143zM512 271c34 0 59 11 59 52c0 9 -3 45 -38 45c-40 0 -65 -53 -70 -93
c12 -2 31 -4 49 -4z" />
    <glyph glyph-name="Racute" unicode="&#x154;" horiz-adv-x="550" 
d="M200 582c108 0 268 9 269 -98c0 -47 -31 -99 -130 -134c49 -105 133 -255 211 -351c-38 3 -121 4 -156 -5c-32 72 -124 261 -176 339c5 6 11 21 14 22c83 17 108 48 108 112c0 47 -35 73 -119 72c-22 -1 -27 -1 -45 -3c-8 -98 -7 -347 7 -536c-32 3 -105 2 -135 -5
c14 113 9 514 1 588c27 -3 117 -1 151 -1zM326 776c4 -21 21 -64 37 -93c-69 -11 -123 -24 -192 -43c-6 8 -14 25 -14 33c59 30 129 72 169 103z" />
    <glyph glyph-name="racute" unicode="&#x155;" horiz-adv-x="305" 
d="M166 411c-3 -19 -6 -55 -7 -108l3 -3c27 75 50 101 126 122c5 -5 14 -21 14 -31c-55 -41 -131 -105 -135 -230c-2 -41 -1 -73 5 -162c-23 2 -88 3 -120 -1c10 100 10 306 -2 400c35 2 74 5 116 13zM235 597c4 -21 21 -64 37 -93c-69 -11 -123 -24 -192 -43
c-6 8 -14 25 -14 33c59 30 129 72 169 103z" />
    <glyph glyph-name="Rcommaaccent" unicode="&#x156;" horiz-adv-x="550" 
d="M283 -39c23 0 51 -18 51 -63c0 -37 -38 -109 -82 -171c-11 3 -24 8 -34 16c15 29 25 53 25 74c0 36 -18 61 -19 86c-1 31 22 58 59 58zM200 582c108 0 268 9 269 -98c0 -47 -31 -99 -130 -134c49 -105 133 -255 211 -351c-38 3 -121 4 -156 -5c-32 72 -124 261 -176 339
c5 6 11 21 14 22c83 17 108 48 108 112c0 47 -35 73 -119 72c-22 -1 -27 -1 -45 -3c-8 -98 -7 -347 7 -536c-32 3 -105 2 -135 -5c14 113 9 514 1 588c27 -3 117 -1 151 -1z" />
    <glyph glyph-name="rcommaaccent" unicode="&#x157;" horiz-adv-x="305" 
d="M117 -39c24 0 51 -18 51 -63c0 -37 -37 -109 -82 -171c-11 3 -24 8 -33 16c15 29 24 53 24 74c1 36 -17 61 -18 86c-1 31 22 58 58 58zM166 411c-3 -19 -6 -55 -7 -108l3 -3c27 75 50 101 126 122c5 -5 14 -21 14 -31c-55 -41 -131 -105 -135 -230c-2 -41 -1 -73 5 -162
c-23 2 -88 3 -120 -1c10 100 10 306 -2 400c35 2 74 5 116 13z" />
    <glyph glyph-name="Rcaron" unicode="&#x158;" horiz-adv-x="550" 
d="M200 582c108 0 268 9 269 -98c0 -47 -31 -99 -130 -134c49 -105 133 -255 211 -351c-38 3 -121 4 -156 -5c-32 72 -124 261 -176 339c5 6 11 21 14 22c83 17 108 48 108 112c0 47 -35 73 -119 72c-22 -1 -27 -1 -45 -3c-8 -98 -7 -347 7 -536c-32 3 -105 2 -135 -5
c14 113 9 514 1 588c27 -3 117 -1 151 -1zM348 733c6 -5 16 -22 18 -32c-33 -22 -79 -52 -122 -86c-32 28 -78 60 -112 82c3 9 13 28 19 34c38 -15 62 -22 94 -31c34 8 74 21 103 33z" />
    <glyph glyph-name="rcaron" unicode="&#x159;" horiz-adv-x="305" 
d="M166 411c-3 -19 -6 -55 -7 -108l3 -3c27 75 50 101 126 122c5 -5 14 -21 14 -31c-55 -41 -131 -105 -135 -230c-2 -41 -1 -73 5 -162c-23 2 -88 3 -120 -1c10 100 10 306 -2 400c35 2 74 5 116 13zM265 557c6 -5 16 -22 18 -32c-33 -22 -79 -52 -122 -86
c-32 28 -78 60 -112 82c3 9 13 28 19 34c38 -15 62 -22 94 -31c34 8 74 21 103 33z" />
    <glyph glyph-name="Sacute" unicode="&#x15a;" horiz-adv-x="327" 
d="M25 0c0 12 4 32 9 43c101 -18 150 17 150 86c0 52 -27 93 -77 157c-35 45 -55 81 -55 128c0 61 53 137 160 188c9 -7 19 -25 19 -35c-60 -38 -85 -78 -85 -113s22 -69 65 -115c52 -56 79 -121 79 -183c0 -56 -34 -165 -194 -165c-15 0 -56 4 -71 9zM217 776
c4 -21 21 -64 37 -93c-69 -11 -123 -24 -192 -43c-6 8 -14 25 -14 33c59 30 129 72 169 103z" />
    <glyph glyph-name="sacute" unicode="&#x15b;" horiz-adv-x="286" 
d="M31 -3c-1 10 1 32 4 40c73 -11 93 14 93 59c0 31 -15 62 -36 90c-29 38 -39 65 -39 94c0 45 49 100 144 139c7 -5 16 -24 18 -34c-47 -27 -63 -52 -63 -77c0 -24 23 -55 41 -76c38 -47 55 -82 55 -119c0 -34 -25 -120 -157 -120c-9 0 -51 2 -60 4zM205 597
c4 -21 21 -64 37 -93c-69 -11 -123 -24 -192 -43c-6 8 -14 25 -14 33c59 30 129 72 169 103z" />
    <glyph glyph-name="Scircumflex" unicode="&#x15c;" horiz-adv-x="327" 
d="M25 0c0 12 4 32 9 43c101 -18 150 17 150 86c0 52 -27 93 -77 157c-35 45 -55 81 -55 128c0 61 53 137 160 188c9 -7 19 -25 19 -35c-60 -38 -85 -78 -85 -113s22 -69 65 -115c52 -56 79 -121 79 -183c0 -56 -34 -165 -194 -165c-15 0 -56 4 -71 9zM47 627
c-6 5 -16 22 -18 32c33 22 79 52 122 86c32 -28 78 -60 112 -82c-3 -9 -13 -28 -19 -34c-38 15 -62 22 -94 31c-34 -8 -74 -21 -103 -33z" />
    <glyph glyph-name="scircumflex" unicode="&#x15d;" horiz-adv-x="286" 
d="M31 -3c-1 10 1 32 4 40c73 -11 93 14 93 59c0 31 -15 62 -36 90c-29 38 -39 65 -39 94c0 45 49 100 144 139c7 -5 16 -24 18 -34c-47 -27 -63 -52 -63 -77c0 -24 23 -55 41 -76c38 -47 55 -82 55 -119c0 -34 -25 -120 -157 -120c-9 0 -51 2 -60 4zM34 447
c-6 5 -16 22 -18 32c33 22 79 52 122 86c32 -28 78 -60 112 -82c-3 -9 -13 -28 -19 -34c-38 15 -62 22 -94 31c-34 -8 -74 -21 -103 -33z" />
    <glyph glyph-name="Scedilla" unicode="&#x15e;" horiz-adv-x="327" 
d="M63 -116c14 24 35 73 49 108c-5 -1 -11 -1 -16 -1c-15 0 -56 4 -71 9c0 12 4 32 9 43c101 -18 150 17 150 86c0 52 -27 93 -77 157c-35 45 -55 81 -55 128c0 61 53 137 160 188c9 -7 19 -25 19 -35c-60 -38 -85 -78 -85 -113s22 -69 65 -115c52 -56 79 -121 79 -183
c0 -47 -24 -131 -126 -157c-9 -19 -15 -34 -22 -56c27 -16 48 -31 48 -80c0 -20 -29 -80 -72 -128c-11 2 -26 11 -35 18c18 27 27 50 27 78c0 16 -15 34 -47 53z" />
    <glyph glyph-name="scedilla" unicode="&#x15f;" horiz-adv-x="286" 
d="M49 -115c14 24 35 73 49 108h-7c-9 0 -51 2 -60 4c-1 10 1 32 4 40c73 -11 93 14 93 59c0 31 -15 62 -36 90c-29 38 -39 65 -39 94c0 45 49 100 144 139c7 -5 16 -24 18 -34c-47 -27 -63 -52 -63 -77c0 -24 23 -55 41 -76c38 -47 55 -82 55 -119c0 -28 -17 -92 -98 -113
c-9 -19 -15 -34 -22 -56c27 -16 48 -31 48 -80c0 -20 -29 -80 -72 -128c-11 2 -26 11 -35 18c18 27 27 50 27 78c0 16 -15 34 -47 53z" />
    <glyph glyph-name="Scaron" unicode="&#x160;" horiz-adv-x="327" 
d="M25 0c0 12 4 32 9 43c101 -18 150 17 150 86c0 52 -27 93 -77 157c-35 45 -55 81 -55 128c0 61 53 137 160 188c9 -7 19 -25 19 -35c-60 -38 -85 -78 -85 -113s22 -69 65 -115c52 -56 79 -121 79 -183c0 -56 -34 -165 -194 -165c-15 0 -56 4 -71 9zM254 733
c6 -5 16 -22 18 -32c-33 -22 -79 -52 -122 -86c-32 28 -78 60 -112 82c3 9 13 28 19 34c38 -15 62 -22 94 -31c34 8 74 21 103 33z" />
    <glyph glyph-name="scaron" unicode="&#x161;" horiz-adv-x="286" 
d="M31 -3c-1 10 1 32 4 40c73 -11 93 14 93 59c0 31 -15 62 -36 90c-29 38 -39 65 -39 94c0 45 49 100 144 139c7 -5 16 -24 18 -34c-47 -27 -63 -52 -63 -77c0 -24 23 -55 41 -76c38 -47 55 -82 55 -119c0 -34 -25 -120 -157 -120c-9 0 -51 2 -60 4zM238 557
c6 -5 16 -22 18 -32c-33 -22 -79 -52 -122 -86c-32 28 -78 60 -112 82c3 9 13 28 19 34c38 -15 62 -22 94 -31c34 8 74 21 103 33z" />
    <glyph glyph-name="uni0162" unicode="&#x162;" horiz-adv-x="462" 
d="M154 -117c15 26 39 83 53 118l-40 -2c7 47 12 477 8 529c-46 8 -88 9 -170 13c-1 8 -2 30 1 42c193 -5 278 -4 451 0c2 -8 1 -31 0 -42c-68 -4 -117 -8 -165 -15c-4 -93 -6 -325 6 -528c-10 2 -25 2 -42 3c-9 -20 -15 -36 -23 -59c27 -16 48 -31 48 -80
c0 -20 -29 -80 -72 -128c-11 2 -26 11 -35 18c18 27 27 50 27 78c0 16 -15 34 -47 53z" />
    <glyph glyph-name="uni0163" unicode="&#x163;" horiz-adv-x="332" 
d="M68 -117c14 25 36 76 51 111c-31 6 -48 29 -51 95c-3 47 1 201 3 273h-37c-2 15 -1 31 1 43h39c29 45 57 94 82 156c8 1 23 0 31 -4c-4 -27 -11 -115 -11 -152c29 -1 92 1 124 4c0 -13 -2 -33 -9 -49c-34 2 -90 3 -116 2c-4 -37 -4 -191 -1 -233c3 -37 7 -69 42 -70
c22 -1 53 4 83 10c4 -9 8 -27 8 -37c-44 -13 -103 -31 -140 -37c-8 -18 -13 -33 -20 -53c27 -16 48 -31 48 -80c0 -20 -29 -80 -72 -128c-11 2 -26 11 -35 18c18 27 27 50 27 78c0 16 -15 34 -47 53z" />
    <glyph glyph-name="Tcaron" unicode="&#x164;" horiz-adv-x="462" 
d="M6 583c193 -5 278 -4 451 0c2 -8 1 -31 0 -42c-68 -4 -117 -8 -165 -15c-4 -93 -6 -325 6 -528c-27 4 -95 4 -131 1c7 47 12 477 8 529c-46 8 -88 9 -170 13c-1 8 -2 30 1 42zM335 733c6 -5 16 -22 18 -32c-33 -22 -79 -52 -122 -86c-32 28 -78 60 -112 82
c3 9 13 28 19 34c38 -15 62 -22 94 -31c34 8 74 21 103 33z" />
    <glyph glyph-name="tcaron" unicode="&#x165;" horiz-adv-x="332" 
d="M270 697c24 0 55 -17 55 -66c0 -47 -35 -125 -71 -185c-11 1 -25 6 -34 13c13 30 20 65 19 92c-1 32 -27 61 -27 90c0 28 22 56 58 56zM156 561c8 1 23 0 31 -4c-4 -27 -11 -115 -11 -152c29 -1 92 1 124 4c0 -13 -2 -33 -9 -49c-34 2 -90 3 -116 2
c-4 -37 -4 -191 -1 -233c3 -37 7 -69 42 -70c22 -1 53 4 83 10c4 -9 8 -27 8 -37c-54 -16 -131 -40 -162 -40c-46 0 -73 14 -77 97c-3 47 1 201 3 273h-37c-2 15 -1 31 1 43h39c29 45 57 94 82 156z" />
    <glyph glyph-name="Tbar" unicode="&#x166;" horiz-adv-x="462" 
d="M6 583c193 -5 278 -4 451 0c2 -8 1 -31 0 -42c-68 -4 -117 -8 -165 -15c-2 -41 -4 -110 -4 -190h97c0 -11 -1 -31 -6 -41c-32 1 -61 2 -90 2c0 -93 3 -199 9 -299c-27 4 -95 4 -131 1c4 26 7 168 9 299h-97c-3 8 1 34 3 40l94 -2c1 91 1 171 -1 192c-46 8 -88 9 -170 13
c-1 8 -2 30 1 42z" />
    <glyph glyph-name="tbar" unicode="&#x167;" horiz-adv-x="332" 
d="M156 561c8 1 23 0 31 -4c-4 -27 -11 -115 -11 -152c29 -1 92 1 124 4c0 -13 -2 -33 -9 -49c-34 2 -90 3 -116 2c-2 -17 -3 -57 -3 -100c40 0 77 1 114 2c1 -11 -1 -36 -6 -46c-46 2 -76 3 -108 3c0 -39 0 -75 2 -92c3 -37 7 -69 42 -70c22 -1 53 4 83 10
c4 -9 8 -27 8 -37c-54 -16 -131 -40 -162 -40c-46 0 -73 14 -77 97c-1 24 -1 77 -1 132h-35c-1 12 0 32 2 42c12 0 23 -1 34 -1l3 100h-37c-2 15 -1 31 1 43h39c29 45 57 94 82 156z" />
    <glyph glyph-name="Utilde" unicode="&#x168;" horiz-adv-x="582" 
d="M35 582c37 -2 104 -2 133 2c-6 -130 2 -279 19 -402c15 -105 66 -135 115 -135c100 0 139 80 150 149c19 110 20 298 12 377c27 3 67 11 93 24c-19 -114 -34 -272 -51 -384c-20 -129 -84 -227 -222 -227c-134 0 -195 71 -214 205c-12 133 -18 277 -35 391zM350 635
c-36 2 -59 19 -87 20c-13 2 -32 -9 -52 -27c-12 4 -21 13 -29 21c25 40 69 95 96 93c31 -3 49 -18 86 -20c28 -2 45 12 61 27c13 -5 23 -11 32 -20c-37 -61 -81 -96 -107 -94z" />
    <glyph glyph-name="utilde" unicode="&#x169;" horiz-adv-x="506" 
d="M173 410c-9 -71 -13 -142 -12 -215c2 -111 20 -130 67 -130c30 0 65 7 103 18c4 39 4 242 -6 313c19 0 99 8 127 14c-13 -92 -10 -367 4 -407c-30 0 -89 -3 -122 -8c-3 16 -2 27 -2 42c-49 -22 -102 -44 -168 -44c-83 0 -115 52 -114 166c1 107 0 206 -5 240
c32 1 103 5 128 11zM288 469c-36 2 -59 19 -87 20c-13 2 -32 -9 -52 -27c-12 4 -21 13 -29 21c25 40 69 95 96 93c31 -3 49 -18 86 -20c28 -2 45 12 61 27c13 -5 23 -11 32 -20c-37 -61 -81 -96 -107 -94z" />
    <glyph glyph-name="Umacron" unicode="&#x16a;" horiz-adv-x="582" 
d="M35 582c37 -2 104 -2 133 2c-6 -130 2 -279 19 -402c15 -105 66 -135 115 -135c100 0 139 80 150 149c19 110 20 298 12 377c27 3 67 11 93 24c-19 -114 -34 -272 -51 -384c-20 -129 -84 -227 -222 -227c-134 0 -195 71 -214 205c-12 133 -18 277 -35 391zM202 699
c101 -3 158 -3 233 -2c0 -11 -1 -36 -6 -46c-97 2 -105 3 -230 2c-3 9 1 40 3 46z" />
    <glyph glyph-name="umacron" unicode="&#x16b;" horiz-adv-x="506" 
d="M173 410c-9 -71 -13 -142 -12 -215c2 -111 20 -130 67 -130c30 0 65 7 103 18c4 39 4 242 -6 313c19 0 99 8 127 14c-13 -92 -10 -367 4 -407c-30 0 -89 -3 -122 -8c-3 16 -2 27 -2 42c-49 -22 -102 -44 -168 -44c-83 0 -115 52 -114 166c1 107 0 206 -5 240
c32 1 103 5 128 11zM132 520c101 -3 158 -3 233 -2c0 -11 -1 -36 -6 -46c-97 2 -105 3 -230 2c-3 9 1 40 3 46z" />
    <glyph glyph-name="Ubreve" unicode="&#x16c;" horiz-adv-x="582" 
d="M35 582c37 -2 104 -2 133 2c-6 -130 2 -279 19 -402c15 -105 66 -135 115 -135c100 0 139 80 150 149c19 110 20 298 12 377c27 3 67 11 93 24c-19 -114 -34 -272 -51 -384c-20 -129 -84 -227 -222 -227c-134 0 -195 71 -214 205c-12 133 -18 277 -35 391zM398 748
c7 0 29 -3 34 -8c-13 -60 -68 -106 -120 -106c-57 0 -96 49 -107 106c6 4 26 8 36 9c15 -27 41 -41 74 -41c37 0 66 17 83 40z" />
    <glyph glyph-name="ubreve" unicode="&#x16d;" horiz-adv-x="506" 
d="M173 410c-9 -71 -13 -142 -12 -215c2 -111 20 -130 67 -130c30 0 65 7 103 18c4 39 4 242 -6 313c19 0 99 8 127 14c-13 -92 -10 -367 4 -407c-30 0 -89 -3 -122 -8c-3 16 -2 27 -2 42c-49 -22 -102 -44 -168 -44c-83 0 -115 52 -114 166c1 107 0 206 -5 240
c32 1 103 5 128 11zM333 564c7 0 29 -3 34 -8c-13 -60 -68 -106 -120 -106c-57 0 -96 49 -107 106c6 4 26 8 36 9c15 -27 41 -41 74 -41c37 0 66 17 83 40z" />
    <glyph glyph-name="Uring" unicode="&#x16e;" horiz-adv-x="582" 
d="M35 582c37 -2 104 -2 133 2c-6 -130 2 -279 19 -402c15 -105 66 -135 115 -135c100 0 139 80 150 149c19 110 20 298 12 377c27 3 67 11 93 24c-19 -114 -34 -272 -51 -384c-20 -129 -84 -227 -222 -227c-134 0 -195 71 -214 205c-12 133 -18 277 -35 391zM325 757
c44 0 88 -20 88 -57c0 -52 -60 -78 -108 -77c-54 2 -80 32 -80 62c0 40 47 72 100 72zM321 722c-20 0 -35 -15 -35 -33c0 -11 8 -29 29 -29c22 0 37 13 37 35c0 15 -14 27 -31 27z" />
    <glyph glyph-name="uring" unicode="&#x16f;" horiz-adv-x="506" 
d="M173 410c-9 -71 -13 -142 -12 -215c2 -111 20 -130 67 -130c30 0 65 7 103 18c4 39 4 242 -6 313c19 0 99 8 127 14c-13 -92 -10 -367 4 -407c-30 0 -89 -3 -122 -8c-3 16 -2 27 -2 42c-49 -22 -102 -44 -168 -44c-83 0 -115 52 -114 166c1 107 0 206 -5 240
c32 1 103 5 128 11zM255 578c44 0 88 -20 88 -57c0 -52 -60 -78 -108 -77c-54 2 -80 32 -80 62c0 40 47 72 100 72zM251 543c-20 0 -35 -15 -35 -33c0 -11 8 -29 29 -29c22 0 37 13 37 35c0 15 -14 27 -31 27z" />
    <glyph glyph-name="Uhungarumlaut" unicode="&#x170;" horiz-adv-x="582" 
d="M304 780c26 -16 55 -27 91 -35c-60 -36 -108 -82 -165 -130c-9 1 -26 8 -34 15c44 49 83 107 108 150zM442 777c25 -17 54 -27 90 -35c-60 -36 -108 -82 -165 -130c-9 1 -25 8 -34 14c44 50 84 107 109 151zM35 582c37 -2 104 -2 133 2c-6 -130 2 -279 19 -402
c15 -105 66 -135 115 -135c100 0 139 80 150 149c19 110 20 298 12 377c27 3 67 11 93 24c-19 -114 -34 -272 -51 -384c-20 -129 -84 -227 -222 -227c-134 0 -195 71 -214 205c-12 133 -18 277 -35 391z" />
    <glyph glyph-name="uhungarumlaut" unicode="&#x171;" horiz-adv-x="506" 
d="M173 410c-9 -71 -13 -142 -12 -215c2 -111 20 -130 67 -130c30 0 65 7 103 18c4 39 4 242 -6 313c19 0 99 8 127 14c-13 -92 -10 -367 4 -407c-30 0 -89 -3 -122 -8c-3 16 -2 27 -2 42c-49 -22 -102 -44 -168 -44c-83 0 -115 52 -114 166c1 107 0 206 -5 240
c32 1 103 5 128 11zM207 619c28 -10 63 -14 90 -15c-40 -54 -72 -116 -102 -174c-11 0 -31 3 -37 8c22 59 38 131 49 181zM326 614c28 -8 62 -12 89 -14c-40 -54 -73 -117 -104 -174c-11 0 -31 3 -38 9c23 59 41 129 53 179z" />
    <glyph glyph-name="Uogonek" unicode="&#x172;" horiz-adv-x="582" 
d="M385 -107c3 -7 7 -27 7 -35c-28 -9 -70 -19 -99 -19c-47 0 -68 29 -68 61c0 28 20 59 46 86c-125 5 -183 76 -201 205c-12 133 -18 277 -35 391c37 -2 104 -2 133 2c-6 -130 2 -279 19 -402c15 -105 66 -135 115 -135c100 0 139 80 150 149c19 110 20 298 12 377
c27 3 67 11 93 24c-19 -114 -34 -272 -51 -384c-19 -116 -72 -208 -184 -224c-9 -18 -13 -43 -13 -62c0 -27 12 -38 32 -38c15 0 35 3 44 4z" />
    <glyph glyph-name="uogonek" unicode="&#x173;" horiz-adv-x="506" 
d="M448 -98c3 -8 7 -27 7 -36c-28 -8 -70 -19 -99 -19c-48 0 -68 29 -68 61c0 28 20 60 46 87c-3 16 -2 27 -2 42c-49 -22 -102 -44 -168 -44c-83 0 -115 52 -114 166c1 107 0 206 -5 240c32 1 103 5 128 11c-9 -71 -13 -142 -12 -215c2 -111 20 -130 67 -130
c30 0 65 7 103 18c4 39 4 242 -6 313c19 0 99 8 127 14c-13 -92 -10 -367 4 -407c-17 0 -44 -1 -69 -3c-10 -18 -15 -44 -15 -64c0 -28 12 -38 32 -38c15 0 35 3 44 4z" />
    <glyph glyph-name="Wcircumflex" unicode="&#x174;" horiz-adv-x="893" 
d="M26 584c38 -5 102 -4 141 1c24 -127 49 -225 93 -368c6 -18 13 -46 18 -69c57 125 146 313 180 432c11 6 35 13 55 16c23 -127 56 -236 106 -379c6 -18 16 -47 22 -71c58 125 123 310 156 429c25 1 77 6 103 17c-37 -52 -183 -388 -200 -429c-18 -43 -43 -104 -54 -147
c-18 -16 -39 -26 -68 -34c-36 127 -72 249 -114 374c-5 15 -12 36 -16 53c-46 -99 -99 -221 -110 -246c-18 -43 -45 -104 -56 -147c-18 -16 -39 -26 -68 -34c-40 162 -117 412 -188 602zM381 627c-6 5 -16 22 -18 32c33 22 79 52 122 86c32 -28 78 -60 112 -82
c-3 -9 -13 -28 -19 -34c-38 15 -62 22 -94 31c-34 -8 -74 -21 -103 -33z" />
    <glyph glyph-name="wcircumflex" unicode="&#x175;" horiz-adv-x="685" 
d="M411 413c6 -46 40 -160 67 -242c4 -12 9 -29 11 -42c54 119 86 220 92 266c21 1 73 7 104 20c-70 -112 -114 -211 -158 -310c-14 -32 -34 -76 -41 -103c-13 -8 -44 -14 -60 -16c-28 95 -51 163 -74 225c-6 15 -11 32 -15 52l-75 -159c-15 -32 -33 -75 -41 -102
c-13 -8 -43 -14 -58 -16c-38 148 -105 348 -142 419c25 -5 125 -2 144 1c3 -49 25 -151 48 -231c5 -13 10 -30 12 -42c59 118 102 222 110 267c22 9 45 13 76 13zM274 447c-6 5 -16 22 -18 32c33 22 79 52 122 86c32 -28 78 -60 112 -82c-3 -9 -13 -28 -19 -34
c-38 15 -62 22 -94 31c-34 -8 -74 -21 -103 -33z" />
    <glyph glyph-name="Ycircumflex" unicode="&#x176;" horiz-adv-x="506" 
d="M5 583c49 -4 117 -3 158 0c30 -81 70 -156 121 -228c61 79 102 147 138 222c26 2 69 3 105 11c-96 -108 -136 -162 -224 -287c-3 -140 -1 -229 10 -302c-37 3 -101 4 -131 0c7 63 12 219 7 303c-40 79 -141 231 -184 281zM191 627c-6 5 -16 22 -18 32c33 22 79 52 122 86
c32 -28 78 -60 112 -82c-3 -9 -13 -28 -19 -34c-38 15 -62 22 -94 31c-34 -8 -74 -21 -103 -33z" />
    <glyph glyph-name="ycircumflex" unicode="&#x177;" horiz-adv-x="499" 
d="M496 409l3 -5c-70 -110 -146 -249 -202 -375c-33 -71 -29 -60 -62 -140c-37 -88 -86 -146 -200 -173c-9 9 -15 23 -16 34c91 59 143 109 200 233c-45 107 -135 317 -211 421c33 -9 131 -1 156 3c10 -55 69 -209 118 -296c52 104 104 232 110 287c20 -1 68 3 104 11z
M176 447c-6 5 -16 22 -18 32c33 22 79 52 122 86c32 -28 78 -60 112 -82c-3 -9 -13 -28 -19 -34c-38 15 -62 22 -94 31c-34 -8 -74 -21 -103 -33z" />
    <glyph glyph-name="Ydieresis" unicode="&#x178;" horiz-adv-x="506" 
d="M5 583c49 -4 117 -3 158 0c30 -81 70 -156 121 -228c61 79 102 147 138 222c26 2 69 3 105 11c-96 -108 -136 -162 -224 -287c-3 -140 -1 -229 10 -302c-37 3 -101 4 -131 0c7 63 12 219 7 303c-40 79 -141 231 -184 281zM220 734c32 0 48 -16 48 -37
c0 -28 -32 -44 -64 -44c-22 0 -41 13 -41 33c0 25 29 48 57 48zM375 734c31 0 47 -16 47 -37c0 -28 -31 -44 -64 -44c-21 0 -41 13 -41 33c0 25 30 48 58 48z" />
    <glyph glyph-name="Zacute" unicode="&#x179;" horiz-adv-x="527" 
d="M79 587c123 -9 340 -9 383 0c8 -8 10 -20 11 -29c-20 -16 -42 -41 -61 -66c-93 -128 -180 -264 -261 -393c59 -4 266 -4 345 12c-10 -31 -21 -87 -25 -117c-195 13 -392 9 -448 0c-5 5 -9 26 -8 32c21 14 52 43 70 68c99 127 197 279 265 392c-107 3 -226 -1 -290 -13
c11 36 18 86 19 114zM345 776c4 -21 21 -64 37 -93c-69 -11 -123 -24 -192 -43c-6 8 -14 25 -14 33c59 30 129 72 169 103z" />
    <glyph glyph-name="zacute" unicode="&#x17a;" horiz-adv-x="425" 
d="M65 405c84 -5 199 -6 299 1c6 -6 9 -18 11 -28c-24 -19 -47 -43 -65 -65c-62 -77 -129 -171 -160 -214c67 -4 175 1 243 12c-12 -37 -22 -81 -26 -116c-103 11 -297 7 -342 3c-4 4 -9 19 -10 30c22 14 50 39 69 61c77 93 120 158 164 218c-72 3 -146 -2 -204 -12
c7 22 18 82 21 110zM286 597c4 -21 21 -64 37 -93c-69 -11 -123 -24 -192 -43c-6 8 -14 25 -14 33c59 30 129 72 169 103z" />
    <glyph glyph-name="Zdotaccent" unicode="&#x17b;" horiz-adv-x="527" 
d="M79 587c123 -9 340 -9 383 0c8 -8 10 -20 11 -29c-20 -16 -42 -41 -61 -66c-93 -128 -180 -264 -261 -393c59 -4 266 -4 345 12c-10 -31 -21 -87 -25 -117c-195 13 -392 9 -448 0c-5 5 -9 26 -8 32c21 14 52 43 70 68c99 127 197 279 265 392c-107 3 -226 -1 -290 -13
c11 36 18 86 19 114zM285 735c39 0 48 -24 48 -37c0 -22 -30 -48 -67 -48c-27 0 -47 12 -47 38c0 21 23 47 66 47z" />
    <glyph glyph-name="zdotaccent" unicode="&#x17c;" horiz-adv-x="425" 
d="M65 405c84 -5 199 -6 299 1c6 -6 9 -18 11 -28c-24 -19 -47 -43 -65 -65c-62 -77 -129 -171 -160 -214c67 -4 175 1 243 12c-12 -37 -22 -81 -26 -116c-103 11 -297 7 -342 3c-4 4 -9 19 -10 30c22 14 50 39 69 61c77 93 120 158 164 218c-72 3 -146 -2 -204 -12
c7 22 18 82 21 110zM231 548c39 0 48 -24 48 -37c0 -22 -30 -48 -67 -48c-27 0 -47 12 -47 38c0 21 23 47 66 47z" />
    <glyph glyph-name="Zcaron" unicode="&#x17d;" horiz-adv-x="527" 
d="M79 587c123 -9 340 -9 383 0c8 -8 10 -20 11 -29c-20 -16 -42 -41 -61 -66c-93 -128 -180 -264 -261 -393c59 -4 266 -4 345 12c-10 -31 -21 -87 -25 -117c-195 13 -392 9 -448 0c-5 5 -9 26 -8 32c21 14 52 43 70 68c99 127 197 279 265 392c-107 3 -226 -1 -290 -13
c11 36 18 86 19 114zM377 733c6 -5 16 -22 18 -32c-33 -22 -79 -52 -122 -86c-32 28 -78 60 -112 82c3 9 13 28 19 34c38 -15 62 -22 94 -31c34 8 74 21 103 33z" />
    <glyph glyph-name="zcaron" unicode="&#x17e;" horiz-adv-x="425" 
d="M65 405c84 -5 199 -6 299 1c6 -6 9 -18 11 -28c-24 -19 -47 -43 -65 -65c-62 -77 -129 -171 -160 -214c67 -4 175 1 243 12c-12 -37 -22 -81 -26 -116c-103 11 -297 7 -342 3c-4 4 -9 19 -10 30c22 14 50 39 69 61c77 93 120 158 164 218c-72 3 -146 -2 -204 -12
c7 22 18 82 21 110zM321 557c6 -5 16 -22 18 -32c-33 -22 -79 -52 -122 -86c-32 28 -78 60 -112 82c3 9 13 28 19 34c38 -15 62 -22 94 -31c34 8 74 21 103 33z" />
    <glyph glyph-name="longs" unicode="&#x17f;" horiz-adv-x="253" 
d="M40 403h33c1 27 -1 70 1 116c3 98 98 183 169 189c17 1 41 -6 60 -13c-2 -12 -8 -30 -15 -39c-10 4 -24 5 -37 5c-21 0 -46 -25 -56 -52c-14 -41 -16 -47 -15 -206c0 -116 2 -349 16 -405c-25 4 -110 3 -133 0c11 125 10 240 10 360c-7 0 -21 1 -34 0c0 11 0 32 1 45z
" />
    <glyph glyph-name="florin" unicode="&#x192;" horiz-adv-x="451" 
d="M42 290c9 0 65 -1 79 -1c18 78 22 112 88 196c51 63 120 111 184 111c18 -1 44 -15 62 -36c-4 -7 -18 -27 -28 -32c-17 9 -40 18 -54 18c-43 -1 -90 -51 -116 -142c-14 -51 -13 -68 -22 -115c35 -1 122 0 157 1c0 -16 -8 -40 -13 -50c-22 1 -106 3 -152 3
c-11 -74 -21 -141 -39 -201c-60 -201 -206 -321 -323 -321c-15 0 -34 12 -46 22c3 13 9 27 16 37c61 -23 135 12 170 61c41 55 63 104 82 200c15 83 22 164 28 202c-11 1 -62 0 -83 0c2 12 5 37 10 47z" />
    <glyph glyph-name="Scommaaccent" unicode="&#x218;" horiz-adv-x="327" 
d="M144 -39c23 0 51 -18 51 -63c0 -37 -38 -109 -82 -171c-11 3 -24 8 -34 16c15 29 25 53 25 74c0 36 -18 61 -19 86c-1 31 22 58 59 58zM25 0c0 12 4 32 9 43c101 -18 150 17 150 86c0 52 -27 93 -77 157c-35 45 -55 81 -55 128c0 61 53 137 160 188c9 -7 19 -25 19 -35
c-60 -38 -85 -78 -85 -113s22 -69 65 -115c52 -56 79 -121 79 -183c0 -56 -34 -165 -194 -165c-15 0 -56 4 -71 9z" />
    <glyph glyph-name="scommaaccent" unicode="&#x219;" horiz-adv-x="286" 
d="M132 -39c23 0 51 -18 51 -63c0 -37 -38 -109 -82 -171c-12 3 -24 8 -34 16c15 29 25 53 25 74c0 36 -18 61 -19 86c-1 31 22 58 59 58zM31 -3c-1 10 1 32 4 40c73 -11 93 14 93 59c0 31 -15 62 -36 90c-29 38 -39 65 -39 94c0 45 49 100 144 139c7 -5 16 -24 18 -34
c-47 -27 -63 -52 -63 -77c0 -24 23 -55 41 -76c38 -47 55 -82 55 -119c0 -34 -25 -120 -157 -120c-9 0 -51 2 -60 4z" />
    <glyph glyph-name="uni021A" unicode="&#x21a;" horiz-adv-x="462" 
d="M234 -39c24 0 51 -18 51 -63c0 -37 -37 -109 -82 -171c-11 3 -24 8 -33 16c15 29 24 53 24 74c1 36 -18 61 -18 86c-1 31 22 58 58 58zM6 583c193 -5 278 -4 451 0c2 -8 1 -31 0 -42c-68 -4 -117 -8 -165 -15c-4 -93 -6 -325 6 -528c-27 4 -95 4 -131 1
c7 47 12 477 8 529c-46 8 -88 9 -170 13c-1 8 -2 30 1 42z" />
    <glyph glyph-name="uni021B" unicode="&#x21b;" horiz-adv-x="332" 
d="M155 -39c24 0 51 -18 51 -63c0 -37 -37 -109 -82 -171c-11 3 -23 8 -33 16c15 29 24 53 25 74c0 36 -18 61 -19 86c-1 31 22 58 58 58zM156 561c8 1 23 0 31 -4c-4 -27 -11 -115 -11 -152c29 -1 92 1 124 4c0 -13 -2 -33 -9 -49c-34 2 -90 3 -116 2
c-4 -37 -4 -191 -1 -233c3 -37 7 -69 42 -70c22 -1 53 4 83 10c4 -9 8 -27 8 -37c-54 -16 -131 -40 -162 -40c-46 0 -73 14 -77 97c-3 47 1 201 3 273h-37c-2 15 -1 31 1 43h39c29 45 57 94 82 156z" />
    <glyph glyph-name="circumflex" unicode="&#x2c6;" 
d="M97 447c-6 5 -16 22 -18 32c33 22 79 52 122 86c32 -28 78 -60 112 -82c-3 -9 -13 -28 -19 -34c-38 15 -62 22 -94 31c-34 -8 -74 -21 -103 -33z" />
    <glyph glyph-name="caron" unicode="&#x2c7;" 
d="M291 587c6 -6 16 -23 18 -33c-33 -21 -79 -51 -122 -86c-32 28 -78 61 -112 82c2 9 13 28 19 34c38 -15 62 -22 94 -31c33 8 74 21 103 34z" />
    <glyph glyph-name="breve" unicode="&#x2d8;" 
d="M279 564c7 0 29 -3 34 -8c-13 -60 -68 -106 -120 -106c-57 0 -96 49 -107 106c6 4 26 8 36 9c15 -27 41 -41 74 -41c37 0 66 17 83 40z" />
    <glyph glyph-name="dotaccent" unicode="&#x2d9;" 
d="M227 548c39 0 48 -24 48 -37c0 -22 -30 -48 -67 -48c-27 0 -47 12 -47 38c0 21 23 47 66 47z" />
    <glyph glyph-name="ring" unicode="&#x2da;" 
d="M228 578c44 0 88 -20 88 -57c0 -52 -60 -78 -108 -77c-54 2 -80 32 -80 62c0 40 47 72 100 72zM224 543c-20 0 -35 -15 -35 -33c0 -11 8 -29 29 -29c22 0 37 13 37 35c0 15 -14 27 -31 27z" />
    <glyph glyph-name="ogonek" unicode="&#x2db;" 
d="M364 -98c3 -8 7 -27 7 -36c-28 -8 -71 -19 -99 -19c-48 0 -68 29 -68 61c0 35 31 75 66 107c8 -1 26 -8 34 -13c-11 -18 -16 -45 -16 -66c0 -28 12 -38 32 -38c15 0 35 3 44 4z" />
    <glyph glyph-name="tilde" unicode="&#x2dc;" 
d="M231 469c-36 2 -59 19 -87 20c-13 2 -32 -9 -52 -27c-12 4 -21 13 -29 21c25 40 69 95 96 93c31 -3 49 -18 86 -20c28 -2 45 12 61 27c13 -5 23 -11 32 -20c-37 -61 -81 -96 -107 -94z" />
    <glyph glyph-name="hungarumlaut" unicode="&#x2dd;" 
d="M128 619c28 -10 63 -14 90 -15c-40 -54 -72 -116 -102 -174c-11 0 -31 3 -37 8c22 59 38 131 49 181zM247 614c28 -8 62 -12 89 -14c-40 -54 -73 -117 -104 -174c-11 0 -31 3 -38 9c23 59 41 129 53 179z" />
    <glyph glyph-name="pi" unicode="&#x3c0;" horiz-adv-x="559" 
d="M500 112c6 -3 23 -16 26 -22c-31 -57 -69 -101 -113 -101c-55 0 -76 53 -76 115c-1 75 7 132 11 201c-65 2 -104 1 -159 0l-11 -296c-35 -4 -73 -11 -109 -24c33 82 59 181 76 320c-48 0 -80 -2 -110 -5c7 20 16 81 21 108c95 -11 344 -7 460 0c-8 -20 -16 -79 -22 -106
c-22 2 -57 3 -99 3c-5 -72 -5 -101 -3 -160c0 -31 12 -67 48 -67c19 0 46 15 60 34z" />
    <glyph glyph-name="endash" unicode="&#x2013;" horiz-adv-x="375" 
d="M28 271c101 -2 247 -2 322 -1c0 -11 -1 -37 -6 -47c-97 3 -194 4 -319 3c-3 8 1 40 3 45z" />
    <glyph glyph-name="emdash" unicode="&#x2014;" horiz-adv-x="595" 
d="M27 272c226 -2 320 -3 545 -2c1 -11 -1 -35 -6 -45c-226 2 -317 2 -542 1c-3 8 1 40 3 46z" />
    <glyph glyph-name="quoteleft" unicode="&#x2018;" horiz-adv-x="191" 
d="M82 317c-23 0 -55 17 -55 66c0 46 50 152 90 219c12 -1 25 -6 34 -13c-23 -59 -34 -100 -33 -126c1 -32 27 -61 27 -90c0 -28 -22 -56 -63 -56z" />
    <glyph glyph-name="quoteright" unicode="&#x2019;" horiz-adv-x="191" 
d="M109 595c23 0 55 -17 55 -66c0 -46 -50 -152 -90 -219c-12 1 -25 6 -34 13c23 59 34 100 33 126c-1 32 -27 61 -27 90c0 28 22 56 63 56z" />
    <glyph glyph-name="quotesinglbase" unicode="&#x201a;" horiz-adv-x="191" 
d="M97 96c23 0 55 -17 55 -66c0 -46 -50 -152 -90 -219c-12 1 -25 6 -34 13c23 59 34 100 33 126c-1 32 -27 61 -27 90c0 28 22 56 63 56z" />
    <glyph glyph-name="quotedblleft" unicode="&#x201c;" horiz-adv-x="341" 
d="M232 317c-23 0 -55 17 -55 66c0 46 50 152 90 219c12 -1 25 -6 34 -13c-23 -59 -34 -100 -33 -126c1 -32 27 -61 27 -90c0 -28 -22 -56 -63 -56zM82 317c-23 0 -55 17 -55 66c0 46 50 152 90 219c12 -1 25 -6 34 -13c-23 -59 -34 -100 -33 -126c1 -32 27 -61 27 -90
c0 -28 -22 -56 -63 -56z" />
    <glyph glyph-name="quotedblright" unicode="&#x201d;" horiz-adv-x="341" 
d="M109 595c23 0 55 -17 55 -66c0 -46 -50 -152 -90 -219c-12 1 -25 6 -34 13c23 59 34 100 33 126c-1 32 -27 61 -27 90c0 28 22 56 63 56zM259 595c23 0 55 -17 55 -66c0 -46 -50 -152 -90 -219c-12 1 -25 6 -34 13c23 59 34 100 33 126c-1 32 -27 61 -27 90
c0 28 22 56 63 56z" />
    <glyph glyph-name="quotedblbase" unicode="&#x201e;" horiz-adv-x="341" 
d="M97 95c23 0 55 -17 55 -66c0 -46 -50 -152 -90 -219c-12 1 -25 6 -34 13c23 59 34 100 33 126c-1 32 -27 61 -27 90c0 28 22 56 63 56zM247 95c23 0 55 -17 55 -66c0 -46 -50 -152 -90 -219c-12 1 -25 6 -34 13c23 59 34 100 33 126c-1 32 -27 61 -27 90
c0 28 22 56 63 56z" />
    <glyph glyph-name="dagger" unicode="&#x2020;" horiz-adv-x="220" 
d="M16 448c20 -3 52 -3 76 -3c-1 61 -19 120 -29 141c27 -2 69 -6 99 1c-13 -35 -30 -82 -35 -143c28 0 61 2 80 3c0 -11 -1 -30 -4 -40c-24 3 -53 3 -77 3c-5 -105 18 -238 45 -323c-31 -35 -52 -69 -71 -125c-16 59 -35 88 -62 125c27 82 54 226 53 324
c-27 0 -50 0 -77 -2c-2 8 0 33 2 39z" />
    <glyph glyph-name="daggerdbl" unicode="&#x2021;" horiz-adv-x="213" 
d="M19 501c20 -2 46 -2 69 -2c-6 38 -20 70 -28 86c26 -2 69 -2 99 2c-18 -23 -27 -51 -35 -88h77c0 -5 -1 -31 -5 -38c-24 2 -49 3 -73 3c-3 -65 11 -118 51 -166c-38 -47 -56 -117 -55 -177c25 0 52 0 77 1c0 -10 0 -34 -2 -37c-20 2 -50 2 -74 2c6 -38 20 -71 30 -88
c-26 1 -70 4 -100 0c15 22 27 51 34 88h-72c0 5 1 30 5 37c24 -2 45 -2 69 -2c3 64 -13 133 -47 175c36 43 51 107 50 167c-24 0 -48 0 -72 -1c-1 9 0 35 2 38z" />
    <glyph glyph-name="bullet" unicode="&#x2022;" horiz-adv-x="231" 
d="M122 305c34 0 53 -18 53 -44c0 -34 -39 -54 -73 -54c-25 0 -45 16 -45 39c0 31 32 59 65 59z" />
    <glyph glyph-name="ellipsis" unicode="&#x2026;" horiz-adv-x="674" 
d="M120 90c46 0 55 -30 55 -45c0 -20 -20 -55 -76 -55c-30 0 -54 15 -54 45c0 24 28 55 75 55zM349 90c46 0 55 -30 55 -45c0 -20 -20 -55 -76 -55c-30 0 -54 15 -54 45c0 24 28 55 75 55zM578 90c46 0 55 -30 55 -45c0 -20 -20 -55 -76 -55c-30 0 -54 15 -54 45
c0 24 28 55 75 55z" />
    <glyph glyph-name="perthousand" unicode="&#x2030;" horiz-adv-x="1168" 
d="M655 583l-469 -593c-10 3 -31 7 -40 16l470 592c9 -2 33 -9 39 -15zM212 593c103 0 148 -69 148 -156c0 -45 -23 -104 -64 -136c-19 -16 -75 -38 -116 -38c-104 0 -143 90 -143 154c0 57 30 112 70 140c28 17 79 36 105 36zM204 549c-26 0 -81 -30 -81 -131
c0 -46 22 -113 69 -113c52 0 88 58 86 130c-3 75 -37 114 -74 114zM604 320c103 0 148 -69 148 -156c0 -45 -23 -104 -64 -135c-19 -16 -75 -39 -116 -39c-104 0 -143 90 -143 154c0 58 30 113 70 140c28 18 79 36 105 36zM596 277c-26 0 -81 -30 -81 -132
c0 -46 22 -113 69 -113c52 0 88 59 86 131c-3 75 -37 114 -74 114zM972 320c103 0 147 -69 147 -156c0 -45 -22 -104 -63 -135c-19 -16 -76 -39 -116 -39c-104 0 -143 90 -143 154c0 58 30 113 70 140c28 18 78 36 105 36zM964 277c-26 0 -81 -30 -81 -132
c0 -46 22 -113 69 -113c52 0 88 59 86 131c-3 75 -37 114 -74 114z" />
    <glyph glyph-name="guilsinglleft" unicode="&#x2039;" horiz-adv-x="220" 
d="M176 62c-4 -5 -28 -14 -41 -15c-23 44 -59 97 -102 152c33 42 81 111 106 156c8 0 35 -8 41 -15c-21 -52 -34 -96 -46 -140c10 -43 20 -83 42 -138z" />
    <glyph glyph-name="guilsinglright" unicode="&#x203a;" horiz-adv-x="220" 
d="M44 340c4 5 28 14 41 15c23 -44 59 -97 102 -152c-33 -42 -81 -111 -106 -156c-8 0 -35 8 -41 15c21 52 34 96 46 140c-10 43 -20 83 -42 138z" />
    <glyph glyph-name="fraction" unicode="&#x2044;" horiz-adv-x="583" 
d="M524 582c-149 -200 -293 -402 -431 -602c-11 3 -30 16 -39 25c148 201 292 402 431 603c10 -2 35 -20 39 -26z" />
    <glyph glyph-name="Euro" unicode="&#x20ac;" 
d="M12 272c8 -1 16 -1 25 -1c0 21 1 40 5 60h-33c-3 9 1 34 3 40c12 -1 24 -1 35 -1c11 52 29 100 50 129c26 37 99 96 146 96c52 0 84 -17 122 -47c-5 -8 -13 -20 -25 -24c-32 18 -57 28 -94 28c-55 0 -89 -89 -95 -183c57 0 95 0 144 1c0 -11 -3 -31 -9 -41
c-64 1 -85 2 -137 2c-2 -21 -3 -41 -2 -61h119c0 -10 -5 -31 -9 -41c-51 2 -70 3 -110 3c0 -91 14 -190 89 -190c27 0 73 16 113 43c9 -5 19 -14 24 -24c-41 -34 -116 -76 -170 -76c-132 0 -163 124 -166 247h-29c-2 8 1 34 4 40z" />
    <glyph glyph-name="trademark" unicode="&#x2122;" horiz-adv-x="773" 
d="M586 446c-5 -15 -12 -29 -18 -44c-25 -60 -39 -88 -62 -162c-15 -9 -38 -13 -49 -14c-23 67 -38 108 -69 181c-5 10 -13 32 -17 45c-28 -81 -45 -137 -57 -216c-12 0 -55 -2 -70 -6c41 91 68 159 100 254c14 44 23 73 29 99c6 2 29 5 39 6c32 -90 63 -148 98 -230
c4 9 9 22 14 31c22 46 24 49 48 109c17 42 23 58 29 84c6 2 31 5 44 5c25 -113 72 -268 107 -355c-25 3 -104 2 -118 0c-9 72 -21 100 -37 170c-2 11 -8 30 -11 43zM5 584c116 -3 188 -3 291 -1c2 -4 1 -26 1 -32c-41 -2 -75 -5 -104 -9c-3 -56 -4 -187 3 -309
c-16 2 -81 2 -103 0c5 28 8 278 5 310c-27 5 -44 6 -93 8c-1 5 -2 25 0 33z" />
    <glyph glyph-name="partialdiff" unicode="&#x2202;" horiz-adv-x="424" 
d="M407 352c-30 -196 -170 -323 -317 -371c-28 27 -65 79 -65 167c1 125 92 257 222 257c28 0 44 -1 56 -3c18 122 -41 180 -174 169c-2 7 -3 36 3 42c216 22 311 -73 275 -261zM298 356c-19 4 -28 4 -54 4c-74 0 -115 -83 -115 -178c0 -43 11 -81 34 -113
c45 27 83 70 110 160c6 21 21 73 25 127z" />
    <glyph glyph-name="increment" unicode="&#x2206;" horiz-adv-x="536" 
d="M516 3l-2 -5c-173 3 -345 5 -518 -1l-1 4c83 141 148 282 214 440c28 72 36 98 45 140c11 4 39 9 50 10c49 -182 144 -455 212 -588zM251 427c-30 -76 -113 -269 -151 -379c108 -4 183 -3 266 -1c-29 108 -61 209 -98 320c-5 17 -12 39 -17 60z" />
    <glyph glyph-name="product" unicode="&#x220f;" horiz-adv-x="608" 
d="M171 -158c-25 2 -99 2 -123 -1c12 135 15 620 7 743c131 -3 365 -3 504 1c-16 -148 -13 -596 -6 -744c-25 3 -99 3 -123 0c12 123 14 529 9 692c-140 3 -129 3 -264 2c-13 -189 -11 -555 -4 -693z" />
    <glyph glyph-name="summation" unicode="&#x2211;" horiz-adv-x="500" 
d="M500 -42c-9 -30 -21 -93 -25 -118c-66 6 -276 5 -445 2c-5 5 -16 22 -17 29c75 92 163 228 238 359c-59 96 -164 263 -215 327c1 1 2 15 15 27c137 -2 335 -3 428 11c-9 -17 -19 -49 -24 -70c-98 10 -169 15 -272 15c11 -14 20 -28 28 -42c50 -80 80 -132 139 -213
c-72 -101 -156 -238 -214 -338c59 -2 285 -7 364 11z" />
    <glyph glyph-name="minus" unicode="&#x2212;" 
d="M50 271c101 -2 247 -2 322 -1c0 -11 -1 -37 -6 -47c-97 3 -194 4 -319 3c-3 8 1 40 3 45z" />
    <glyph glyph-name="radical" unicode="&#x221a;" horiz-adv-x="481" 
d="M183 417c7 -46 39 -151 64 -226c4 -13 8 -25 11 -37c48 115 170 456 177 523c19 -1 74 8 91 12c-42 -72 -192 -455 -236 -574c-11 -31 -29 -88 -32 -115c-12 -7 -40 -12 -55 -16c-38 128 -94 296 -116 350c-20 -5 -38 -11 -61 -21c-5 7 -16 32 -16 39
c42 13 117 41 173 65z" />
    <glyph glyph-name="infinity" unicode="&#x221e;" horiz-adv-x="733" 
d="M198 -10c-114 -1 -162 95 -163 189c0 73 31 144 82 181c32 24 73 45 110 45c107 0 119 -29 154 -88c59 72 108 88 152 88c127 0 160 -97 160 -197c0 -58 -26 -129 -75 -170c-22 -20 -77 -48 -118 -48c-80 0 -116 21 -152 90c-42 -59 -99 -90 -150 -90zM401 269
c33 -98 46 -219 119 -219c36 0 64 42 63 147c-1 82 -39 140 -78 140c-41 0 -75 -30 -104 -68zM208 342c-32 0 -62 -34 -62 -151c0 -87 47 -129 85 -129c30 0 69 23 99 66c-29 80 -56 214 -122 214z" />
    <glyph glyph-name="integral" unicode="&#x222b;" horiz-adv-x="273" 
d="M58 283c-1 27 -1 69 1 116c4 97 98 182 169 189c17 0 41 -6 60 -14c-2 -11 -8 -29 -15 -38c-10 4 -24 5 -37 5c-21 0 -45 -25 -55 -52c-15 -42 -20 -47 -16 -206c2 -60 6 -128 4 -236c-3 -150 -51 -234 -116 -293c-41 -37 -108 -44 -137 -25c0 10 5 26 8 35
c129 -12 134 133 139 215c2 46 0 170 -5 304z" />
    <glyph glyph-name="notequal" unicode="&#x2260;" 
d="M52 308c49 -1 103 -2 159 -2l27 86c9 1 43 -6 48 -10c-9 -23 -18 -49 -27 -76c39 0 82 0 109 1c1 -11 -1 -38 -6 -48l-119 2l-25 -79c57 0 113 0 150 1c1 -11 -1 -37 -6 -47l-157 3l-26 -91c-10 0 -38 4 -49 9l28 82h-109c-3 8 1 40 3 46l120 -3c8 27 17 53 25 79h-148
c-3 9 1 42 3 47z" />
    <glyph glyph-name="lozenge" unicode="&#x25ca;" horiz-adv-x="449" 
d="M221 603c10 4 24 2 32 1c50 -111 125 -241 172 -302c-45 -66 -140 -203 -190 -306c-11 -3 -27 -3 -34 -1c-66 144 -136 256 -177 305c56 61 144 198 197 303zM220 66c43 90 76 185 87 233c-15 62 -44 158 -73 239c-42 -96 -73 -183 -88 -237c18 -79 45 -154 74 -235z" />
    </font>
</defs>
</svg>
