<?xml version="1.0" standalone="no"?>
<!DOCTYPE svg PUBLIC "-//W3C//DTD SVG 1.1//EN" "http://www.w3.org/Graphics/SVG/1.1/DTD/svg11.dtd" >
<svg xmlns="http://www.w3.org/2000/svg" xmlns:xlink="http://www.w3.org/1999/xlink" version="1.1">
<metadata>
Created by FontForge 20170924 at Wed Aug 20 14:56:25 2014
 By Glenn,,,
No Rights Reserved.
</metadata>
<defs>
<font id="Aileron-Thin" horiz-adv-x="543" >
  <font-face 
    font-family="Aileron Thin"
    font-weight="250"
    font-stretch="normal"
    units-per-em="1000"
    panose-1="0 0 3 0 0 0 0 0 0 0"
    ascent="770"
    descent="-230"
    x-height="520"
    cap-height="690"
    bbox="-188 -223 1076 895"
    underline-thickness="50"
    underline-position="-100"
    stemh="32"
    stemv="38"
    unicode-range="U+0020-FB02"
  />
<missing-glyph horiz-adv-x="500" 
d="M0 0v700h500v-700h-500zM250 395l170 255h-340zM280 350l170 -255v510zM80 50h340l-170 255zM50 605v-510l170 255z" />
    <glyph glyph-name="fi" unicode="fi" horiz-adv-x="428" 
d="M355 523v-523h-38v491h-198v-491h-38v491h-57v32h57v37c0 16 0 35 2 55c8 82 72 139 183 139c21 0 33 -1 51 -5v-33c-134 16 -189 -37 -196 -103c-2 -20 -2 -36 -2 -51v-39h236z" />
    <glyph glyph-name="fl" unicode="fl" horiz-adv-x="411" 
d="M327 64c2 -33 16 -41 58 -36v-30c-12 -3 -24 -3 -37 -3c-33 0 -57 13 -59 59c-1 20 -1 38 -1 73v584c-15 8 -34 11 -59 11c-80 0 -112 -52 -118 -109c-2 -20 -2 -36 -2 -51v-39h108v-32h-108v-491h-38v491h-47v32h47v37c0 16 0 35 2 55c8 82 59 139 156 139
c40 0 73 -7 97 -19v-607c0 -30 0 -49 1 -64z" />
    <glyph glyph-name=".notdef" horiz-adv-x="500" 
d="M0 0v700h500v-700h-500zM250 395l170 255h-340zM280 350l170 -255v510zM80 50h340l-170 255zM50 605v-510l170 255z" />
    <glyph glyph-name="A" unicode="A" horiz-adv-x="622" 
d="M467 263h-295l-97 -263h-41l263 690h50l260 -690h-41zM185 296h270l-134 363z" />
    <glyph glyph-name="Aacute" unicode="&#xc1;" horiz-adv-x="622" 
d="M333 736h-28l53 94h41zM467 263h-295l-97 -263h-41l263 690h50l260 -690h-41zM185 296h270l-134 363z" />
    <glyph glyph-name="Abreve" unicode="&#x102;" horiz-adv-x="622" 
d="M322 722c-61 0 -98 41 -98 108h27c1 -51 30 -78 71 -78s71 27 72 78h26c0 -67 -37 -108 -98 -108zM467 263h-295l-97 -263h-41l263 690h50l260 -690h-41zM185 296h270l-134 363z" />
    <glyph glyph-name="Acircumflex" unicode="&#xc2;" horiz-adv-x="622" 
d="M275 736h-34l66 94h32l65 -94h-35l-47 74zM467 263h-295l-97 -263h-41l263 690h50l260 -690h-41zM185 296h270l-134 363z" />
    <glyph glyph-name="Adieresis" unicode="&#xc4;" horiz-adv-x="622" 
d="M278 757c-14 0 -26 12 -26 26c0 15 12 27 26 27c15 0 27 -12 27 -27c0 -14 -12 -26 -27 -26zM366 757c-15 0 -27 12 -27 26c0 15 12 27 27 27c14 0 26 -12 26 -27c0 -14 -12 -26 -26 -26zM467 263h-295l-97 -263h-41l263 690h50l260 -690h-41zM185 296h270l-134 363z" />
    <glyph glyph-name="Agrave" unicode="&#xc0;" horiz-adv-x="622" 
d="M309 736l-66 94h41l53 -94h-28zM467 263h-295l-97 -263h-41l263 690h50l260 -690h-41zM185 296h270l-134 363z" />
    <glyph glyph-name="Amacron" unicode="&#x100;" horiz-adv-x="622" 
d="M405 768h-165v29h165v-29zM467 263h-295l-97 -263h-41l263 690h50l260 -690h-41zM185 296h270l-134 363z" />
    <glyph glyph-name="Aogonek" unicode="&#x104;" horiz-adv-x="622" 
d="M607 0h-12c-64 -25 -113 -77 -113 -143c0 -37 18 -52 45 -52c22 0 42 9 63 29v-30c-21 -18 -45 -27 -74 -27c-38 0 -71 17 -71 73c0 71 48 129 117 159l-95 254h-295l-97 -263h-41l263 690h50zM185 296h270l-134 363z" />
    <glyph glyph-name="Aring" unicode="&#xc5;" horiz-adv-x="622" 
d="M322 721c-39 0 -70 25 -70 65s31 66 70 66s70 -26 70 -66s-31 -65 -70 -65zM322 827c-25 0 -39 -18 -39 -41s14 -41 39 -41s40 18 40 41s-15 41 -40 41zM467 263h-295l-97 -263h-41l263 690h50l260 -690h-41zM185 296h270l-134 363z" />
    <glyph glyph-name="Atilde" unicode="&#xc3;" horiz-adv-x="622" 
d="M270 782c-10 0 -16 -6 -16 -21h-24c0 34 14 49 40 49c16 0 31 -4 58 -13c24 -8 37 -12 46 -12c10 0 16 6 16 21h25c0 -34 -14 -49 -40 -49c-17 0 -32 4 -59 13c-24 8 -37 12 -46 12zM467 263h-295l-97 -263h-41l263 690h50l260 -690h-41zM185 296h270l-134 363z" />
    <glyph glyph-name="AE" unicode="&#xc6;" horiz-adv-x="900" 
d="M869 33v-33h-410l-13 263h-259l-160 -263h-43l425 690h450v-32h-393l14 -297h356v-32h-355l14 -296h374zM445 296l-17 361l-220 -361h237z" />
    <glyph glyph-name="B" unicode="B" horiz-adv-x="597" 
d="M404 365c102 -19 154 -82 154 -177c0 -114 -88 -177 -188 -185c-28 -3 -47 -3 -73 -3h-200v690h181c29 0 47 0 81 -2c106 -9 173 -68 173 -165c0 -85 -49 -141 -128 -158zM135 657v-280h158c16 0 33 1 55 2c72 6 143 42 143 139c0 99 -73 134 -148 138c-22 1 -39 1 -63 1
h-145zM358 35c80 6 159 50 159 150c0 81 -41 151 -158 157c-23 2 -37 2 -53 2h-171v-311h177c16 0 33 1 46 2z" />
    <glyph glyph-name="C" unicode="C" horiz-adv-x="683" 
d="M366 704c157 0 243 -97 266 -223l1 -10h-38l-2 10c-22 109 -99 190 -230 190c-143 0 -271 -119 -271 -326c0 -215 118 -326 263 -326c140 0 215 86 238 199l2 10h38l-1 -10c-23 -128 -110 -232 -279 -232c-179 0 -303 138 -303 357c0 214 135 361 316 361z" />
    <glyph glyph-name="Cacute" unicode="&#x106;" horiz-adv-x="683" 
d="M361 736h-28l53 94h41zM366 704c157 0 243 -97 266 -223l1 -10h-38l-2 10c-22 109 -99 190 -230 190c-143 0 -271 -119 -271 -326c0 -215 118 -326 263 -326c140 0 215 86 238 199l2 10h38l-1 -10c-23 -128 -110 -232 -279 -232c-179 0 -303 138 -303 357
c0 214 135 361 316 361z" />
    <glyph glyph-name="Ccaron" unicode="&#x10c;" horiz-adv-x="683" 
d="M335 736l-66 94h35l47 -74l47 74h34l-65 -94h-32zM595 228h38l-1 -10c-23 -128 -110 -232 -279 -232c-179 0 -303 138 -303 357c0 214 135 361 316 361c157 0 243 -97 266 -223l1 -10h-38l-2 10c-22 109 -99 190 -230 190c-143 0 -271 -119 -271 -326
c0 -215 118 -326 263 -326c140 0 215 86 238 199z" />
    <glyph glyph-name="Ccedilla" unicode="&#xc7;" horiz-adv-x="683" 
d="M595 228h38l-1 -10c-22 -125 -106 -227 -267 -232l-18 -34c54 -6 86 -30 86 -79c0 -57 -51 -83 -106 -83c-21 0 -38 3 -52 10v27c15 -8 31 -11 53 -11c44 0 74 19 74 57s-30 59 -98 56l30 58c-169 9 -284 145 -284 356c0 214 135 361 316 361c157 0 243 -97 266 -223
l1 -10h-38l-2 10c-22 109 -99 190 -230 190c-143 0 -271 -119 -271 -326c0 -215 118 -326 263 -326c140 0 215 86 238 199z" />
    <glyph glyph-name="Cdotaccent" unicode="&#x10a;" horiz-adv-x="683" 
d="M350 810c15 0 27 -12 27 -27c0 -14 -12 -26 -27 -26c-14 0 -26 12 -26 26c0 15 12 27 26 27zM366 704c157 0 243 -97 266 -223l1 -10h-38l-2 10c-22 109 -99 190 -230 190c-143 0 -271 -119 -271 -326c0 -215 118 -326 263 -326c140 0 215 86 238 199l2 10h38l-1 -10
c-23 -128 -110 -232 -279 -232c-179 0 -303 138 -303 357c0 214 135 361 316 361z" />
    <glyph glyph-name="D" unicode="D" horiz-adv-x="687" 
d="M376 688c119 -11 273 -104 273 -339c0 -233 -154 -332 -263 -345c-35 -4 -55 -4 -88 -4h-201v690h202c33 0 49 0 77 -2zM381 38c111 14 226 115 226 311c0 201 -123 293 -234 305c-22 3 -39 3 -75 3h-163v-624h161c33 0 55 1 85 5z" />
    <glyph glyph-name="Eth" unicode="&#xd0;" horiz-adv-x="689" 
d="M378 688c120 -11 273 -104 273 -339c0 -233 -153 -332 -263 -345c-35 -4 -55 -4 -88 -4h-200v319h-60v29h60v342h201c34 0 50 0 77 -2zM384 38c111 14 226 115 226 311c0 201 -124 293 -235 305c-22 3 -39 3 -75 3h-162v-309h172v-29h-172v-286h161c32 0 54 1 85 5z" />
    <glyph glyph-name="Dcaron" unicode="&#x10e;" horiz-adv-x="687" 
d="M334 736l-66 94h35l47 -74l47 74h34l-65 -94h-32zM376 688c119 -11 273 -104 273 -339c0 -233 -154 -332 -263 -345c-35 -4 -55 -4 -88 -4h-201v690h202c33 0 49 0 77 -2zM381 38c111 14 226 115 226 311c0 201 -123 293 -234 305c-22 3 -39 3 -75 3h-163v-624h161
c33 0 55 1 85 5z" />
    <glyph glyph-name="Dcroat" unicode="&#x110;" horiz-adv-x="689" 
d="M378 688c120 -11 273 -104 273 -339c0 -233 -153 -332 -263 -345c-35 -4 -55 -4 -88 -4h-200v319h-60v29h60v342h201c34 0 50 0 77 -2zM384 38c111 14 226 115 226 311c0 201 -124 293 -235 305c-22 3 -39 3 -75 3h-162v-309h172v-29h-172v-286h161c32 0 54 1 85 5z" />
    <glyph glyph-name="E" unicode="E" horiz-adv-x="565" 
d="M534 33v-33h-437v690h427v-32h-389v-297h366v-32h-366v-296h399z" />
    <glyph glyph-name="Eacute" unicode="&#xc9;" horiz-adv-x="565" 
d="M313 736h-28l53 94h41zM534 33v-33h-437v690h427v-32h-389v-297h366v-32h-366v-296h399z" />
    <glyph glyph-name="Ecaron" unicode="&#x11a;" horiz-adv-x="565" 
d="M287 736l-66 94h35l47 -74l47 74h34l-65 -94h-32zM534 33v-33h-437v690h427v-32h-389v-297h366v-32h-366v-296h399z" />
    <glyph glyph-name="Ecircumflex" unicode="&#xca;" horiz-adv-x="565" 
d="M255 736h-34l66 94h32l65 -94h-35l-47 74zM534 33v-33h-437v690h427v-32h-389v-297h366v-32h-366v-296h399z" />
    <glyph glyph-name="Edieresis" unicode="&#xcb;" horiz-adv-x="565" 
d="M258 757c-14 0 -26 12 -26 26c0 15 12 27 26 27c15 0 27 -12 27 -27c0 -14 -12 -26 -27 -26zM346 757c-15 0 -27 12 -27 26c0 15 12 27 27 27c14 0 26 -12 26 -27c0 -14 -12 -26 -26 -26zM534 33v-33h-437v690h427v-32h-389v-297h366v-32h-366v-296h399z" />
    <glyph glyph-name="Edotaccent" unicode="&#x116;" horiz-adv-x="565" 
d="M302 757c-14 0 -26 12 -26 26c0 15 12 27 26 27c15 0 27 -12 27 -27c0 -14 -12 -26 -27 -26zM534 33v-33h-437v690h427v-32h-389v-297h366v-32h-366v-296h399z" />
    <glyph glyph-name="Egrave" unicode="&#xc8;" horiz-adv-x="565" 
d="M289 736l-66 94h41l53 -94h-28zM534 33v-33h-437v690h427v-32h-389v-297h366v-32h-366v-296h399z" />
    <glyph glyph-name="Emacron" unicode="&#x112;" horiz-adv-x="565" 
d="M385 768h-165v29h165v-29zM534 33v-33h-437v690h427v-32h-389v-297h366v-32h-366v-296h399z" />
    <glyph glyph-name="Eogonek" unicode="&#x118;" horiz-adv-x="565" 
d="M534 33v-33c-64 -25 -113 -77 -113 -143c0 -37 18 -52 45 -52c22 0 42 9 63 29v-30c-21 -18 -45 -27 -74 -27c-38 0 -71 17 -71 73c0 64 39 118 98 150h-385v690h427v-32h-389v-297h366v-32h-366v-296h399z" />
    <glyph glyph-name="F" unicode="F" horiz-adv-x="540" 
d="M135 658v-297h356v-32h-356v-329h-38v690h427v-32h-389z" />
    <glyph glyph-name="G" unicode="G" horiz-adv-x="698" 
d="M384 314h253v-314h-35v167l-23 -64c-53 -83 -138 -117 -224 -117c-181 0 -305 138 -305 357c0 214 137 361 324 361c157 0 243 -97 265 -223l2 -10h-38l-2 10c-22 109 -99 190 -231 190c-148 0 -278 -119 -278 -326c0 -215 118 -326 266 -326c106 0 241 72 241 262h-215
v33z" />
    <glyph glyph-name="Gbreve" unicode="&#x11e;" horiz-adv-x="698" 
d="M361 722c-61 0 -98 41 -98 108h27c1 -51 30 -78 71 -78s71 27 72 78h26c0 -67 -37 -108 -98 -108zM384 314h253v-314h-35v167l-23 -64c-53 -83 -138 -117 -224 -117c-181 0 -305 138 -305 357c0 214 137 361 324 361c157 0 243 -97 265 -223l2 -10h-38l-2 10
c-22 109 -99 190 -231 190c-148 0 -278 -119 -278 -326c0 -215 118 -326 266 -326c106 0 241 72 241 262h-215v33z" />
    <glyph glyph-name="Gcommaaccent" unicode="&#x122;" horiz-adv-x="698" 
d="M384 314h253v-314h-35v167l-23 -64c-53 -83 -138 -117 -224 -117c-181 0 -305 138 -305 357c0 214 137 361 324 361c157 0 243 -97 265 -223l2 -10h-38l-2 10c-22 109 -99 190 -231 190c-148 0 -278 -119 -278 -326c0 -215 118 -326 266 -326c106 0 241 72 241 262h-215
v33zM345 -51h36v-7l-52 -121h-29z" />
    <glyph glyph-name="Gdotaccent" unicode="&#x120;" horiz-adv-x="698" 
d="M361 757c-14 0 -26 12 -26 26c0 15 12 27 26 27c15 0 27 -12 27 -27c0 -14 -12 -26 -27 -26zM384 314h253v-314h-35v167l-23 -64c-53 -83 -138 -117 -224 -117c-181 0 -305 138 -305 357c0 214 137 361 324 361c157 0 243 -97 265 -223l2 -10h-38l-2 10
c-22 109 -99 190 -231 190c-148 0 -278 -119 -278 -326c0 -215 118 -326 266 -326c106 0 241 72 241 262h-215v33z" />
    <glyph glyph-name="H" unicode="H" horiz-adv-x="674" 
d="M601 690v-690h-38v322h-428v-322h-38v690h38v-335h428v335h38z" />
    <glyph glyph-name="Hbar" unicode="&#x126;" horiz-adv-x="674" 
d="M641 516h-40v-516h-38v322h-428v-322h-38v516h-40v29h40v145h38v-145h428v145h38v-145h40v-29zM563 516h-428v-161h428v161z" />
    <glyph glyph-name="I" unicode="I" horiz-adv-x="208" 
d="M135 0h-38v690h38v-690z" />
    <glyph glyph-name="IJ" unicode="&#x132;" horiz-adv-x="715" 
d="M135 0h-38v690h38v-690zM652 690v-429c0 -30 0 -56 -2 -89c-6 -98 -66 -186 -197 -186c-119 0 -190 70 -195 208l-1 33h38l1 -33c5 -127 71 -175 162 -175c93 0 146 58 154 157c2 21 2 48 2 80v434h38z" />
    <glyph glyph-name="Iacute" unicode="&#xcd;" horiz-adv-x="208" 
d="M127 736h-28l53 94h41zM135 0h-38v690h38v-690z" />
    <glyph glyph-name="Icircumflex" unicode="&#xce;" horiz-adv-x="208" 
d="M198 736h-35l-47 74l-47 -74h-34l66 94h32zM97 690h38v-690h-38v690z" />
    <glyph glyph-name="Idieresis" unicode="&#xcf;" horiz-adv-x="208" 
d="M72 810c15 0 27 -12 27 -27c0 -14 -12 -26 -27 -26c-14 0 -26 12 -26 26c0 15 12 27 26 27zM160 810c14 0 26 -12 26 -27c0 -14 -12 -26 -26 -26c-15 0 -27 12 -27 26c0 15 12 27 27 27zM135 0h-38v690h38v-690z" />
    <glyph glyph-name="Idotaccent" unicode="&#x130;" horiz-adv-x="208" 
d="M116 810c15 0 27 -12 27 -27c0 -14 -12 -26 -27 -26c-14 0 -26 12 -26 26c0 15 12 27 26 27zM135 0h-38v690h38v-690z" />
    <glyph glyph-name="Igrave" unicode="&#xcc;" horiz-adv-x="208" 
d="M131 736h-28l-66 94h41zM135 0h-38v690h38v-690z" />
    <glyph glyph-name="Imacron" unicode="&#x12a;" horiz-adv-x="208" 
d="M199 768h-165v29h165v-29zM135 0h-38v690h38v-690z" />
    <glyph glyph-name="Iogonek" unicode="&#x12e;" horiz-adv-x="208" 
d="M135 690v-690h-6c-64 -25 -113 -77 -113 -143c0 -37 18 -52 45 -52c22 0 42 9 63 29v-30c-21 -18 -45 -27 -74 -27c-38 0 -72 17 -72 73c0 71 49 130 119 160v680h38z" />
    <glyph glyph-name="J" unicode="J" horiz-adv-x="507" 
d="M444 690v-429c0 -30 0 -56 -2 -89c-6 -98 -66 -186 -197 -186c-119 0 -190 70 -195 208l-1 33h38l1 -33c5 -127 71 -175 162 -175c93 0 146 58 154 157c2 21 2 48 2 80v434h38z" />
    <glyph glyph-name="K" unicode="K" horiz-adv-x="567" 
d="M214 355l340 -355h-55l-314 330l-50 -50v-280h-38v690h38v-367l381 367h47z" />
    <glyph glyph-name="Kcommaaccent" unicode="&#x136;" horiz-adv-x="567" 
d="M214 355l340 -355h-55l-314 330l-50 -50v-280h-38v690h38v-367l381 367h47zM291 -51h36v-7l-52 -121h-29z" />
    <glyph glyph-name="L" unicode="L" horiz-adv-x="548" 
d="M534 33v-33h-437v690h38v-657h399z" />
    <glyph glyph-name="Lacute" unicode="&#x139;" horiz-adv-x="548" 
d="M127 736h-28l53 94h41zM534 33v-33h-437v690h38v-657h399z" />
    <glyph glyph-name="Lcaron" unicode="&#x13d;" horiz-adv-x="548" 
d="M534 33v-33h-437v690h38v-657h399z" />
    <glyph glyph-name="Lcommaaccent" unicode="&#x13b;" horiz-adv-x="548" 
d="M534 33v-33h-437v690h38v-657h399zM285 -51h36v-7l-52 -121h-29z" />
    <glyph glyph-name="Ldot" unicode="&#x13f;" horiz-adv-x="548" 
d="M534 33v-33h-437v690h38v-657h399zM346 371c-16 0 -29 13 -29 29s13 29 29 29s28 -13 28 -29s-12 -29 -28 -29z" />
    <glyph glyph-name="Lslash" unicode="&#x141;" horiz-adv-x="578" 
d="M563 33v-33h-436v307l-113 -67v35l113 67v348h38v-325l169 100v-35l-169 -100v-297h398z" />
    <glyph glyph-name="M" unicode="M" horiz-adv-x="812" 
d="M739 690v-690h-37v389c0 87 -1 185 1 269c-31 -84 -69 -183 -104 -269l-157 -389h-48l-157 390c-34 85 -73 184 -104 267c2 -84 2 -181 2 -268v-389h-38v690h62l260 -657l262 657h58z" />
    <glyph glyph-name="N" unicode="N" horiz-adv-x="657" 
d="M585 0h-59l-393 654c2 -90 2 -196 2 -286v-368h-38v690h58l394 -654c-2 90 -2 197 -2 287v367h37z" />
    <glyph glyph-name="Nacute" unicode="&#x143;" horiz-adv-x="657" 
d="M352 736h-28l53 94h41zM585 0h-59l-393 654c2 -90 2 -196 2 -286v-368h-38v690h58l394 -654c-2 90 -2 197 -2 287v367h37z" />
    <glyph glyph-name="Ncaron" unicode="&#x147;" horiz-adv-x="657" 
d="M326 736l-66 94h35l47 -74l47 74h34l-65 -94h-32zM526 0l-393 654c2 -90 2 -196 2 -286v-368h-38v690h58l394 -654c-2 90 -2 197 -2 287v367h37l1 -690h-59z" />
    <glyph glyph-name="Ncommaaccent" unicode="&#x145;" horiz-adv-x="657" 
d="M585 0h-59l-393 654c2 -90 2 -196 2 -286v-368h-38v690h58l394 -654c-2 90 -2 197 -2 287v367h37zM362 -58l-52 -121h-29l45 128h36v-7z" />
    <glyph glyph-name="Eng" unicode="&#x14a;" horiz-adv-x="657" 
d="M585 690v-757c0 -18 0 -27 -1 -41c-7 -83 -55 -113 -142 -115v33c71 0 104 27 104 107v61l-413 674c2 -90 2 -194 2 -284v-368h-38v690h58l394 -644c-2 90 -2 192 -2 282v362h38z" />
    <glyph glyph-name="Ntilde" unicode="&#xd1;" horiz-adv-x="657" 
d="M289 810c16 0 31 -4 58 -13c24 -8 37 -12 46 -12c10 0 16 6 16 21h25c0 -34 -14 -49 -40 -49c-17 0 -32 4 -59 13c-24 8 -37 12 -46 12c-10 0 -16 -6 -16 -21h-24c0 34 14 49 40 49zM585 0h-59l-393 654c2 -90 2 -196 2 -286v-368h-38v690h58l394 -654
c-2 90 -2 197 -2 287v367h37z" />
    <glyph glyph-name="O" unicode="O" horiz-adv-x="719" 
d="M366 704c193 0 315 -151 315 -359c0 -207 -122 -359 -315 -359c-194 0 -316 152 -316 359c0 208 122 359 316 359zM366 19c151 0 273 119 273 326c0 208 -122 326 -273 326c-152 0 -274 -118 -274 -326c0 -207 122 -326 274 -326z" />
    <glyph glyph-name="Oacute" unicode="&#xd3;" horiz-adv-x="719" 
d="M377 736h-28l53 94h41zM366 704c193 0 315 -151 315 -359c0 -207 -122 -359 -315 -359c-194 0 -316 152 -316 359c0 208 122 359 316 359zM366 19c151 0 273 119 273 326c0 208 -122 326 -273 326c-152 0 -274 -118 -274 -326c0 -207 122 -326 274 -326z" />
    <glyph glyph-name="Ocircumflex" unicode="&#xd4;" horiz-adv-x="719" 
d="M319 736h-34l66 94h32l65 -94h-35l-47 74zM366 704c193 0 315 -151 315 -359c0 -207 -122 -359 -315 -359c-194 0 -316 152 -316 359c0 208 122 359 316 359zM366 19c151 0 273 119 273 326c0 208 -122 326 -273 326c-152 0 -274 -118 -274 -326
c0 -207 122 -326 274 -326z" />
    <glyph glyph-name="Odieresis" unicode="&#xd6;" horiz-adv-x="719" 
d="M322 757c-14 0 -26 12 -26 26c0 15 12 27 26 27c15 0 27 -12 27 -27c0 -14 -12 -26 -27 -26zM410 757c-15 0 -27 12 -27 26c0 15 12 27 27 27c14 0 26 -12 26 -27c0 -14 -12 -26 -26 -26zM366 704c193 0 315 -151 315 -359c0 -207 -122 -359 -315 -359
c-194 0 -316 152 -316 359c0 208 122 359 316 359zM366 19c151 0 273 119 273 326c0 208 -122 326 -273 326c-152 0 -274 -118 -274 -326c0 -207 122 -326 274 -326z" />
    <glyph glyph-name="Ograve" unicode="&#xd2;" horiz-adv-x="719" 
d="M353 736l-66 94h41l53 -94h-28zM366 704c193 0 315 -151 315 -359c0 -207 -122 -359 -315 -359c-194 0 -316 152 -316 359c0 208 122 359 316 359zM366 19c151 0 273 119 273 326c0 208 -122 326 -273 326c-152 0 -274 -118 -274 -326c0 -207 122 -326 274 -326z" />
    <glyph glyph-name="Ohungarumlaut" unicode="&#x150;" horiz-adv-x="719" 
d="M328 736h-28l53 94h41zM392 736l53 94h41l-66 -94h-28zM366 704c193 0 315 -151 315 -359c0 -207 -122 -359 -315 -359c-194 0 -316 152 -316 359c0 208 122 359 316 359zM366 19c151 0 273 119 273 326c0 208 -122 326 -273 326c-152 0 -274 -118 -274 -326
c0 -207 122 -326 274 -326z" />
    <glyph glyph-name="Omacron" unicode="&#x14c;" horiz-adv-x="719" 
d="M449 768h-165v29h165v-29zM366 704c193 0 315 -151 315 -359c0 -207 -122 -359 -315 -359c-194 0 -316 152 -316 359c0 208 122 359 316 359zM366 19c151 0 273 119 273 326c0 208 -122 326 -273 326c-152 0 -274 -118 -274 -326c0 -207 122 -326 274 -326z" />
    <glyph glyph-name="Oslash" unicode="&#xd8;" horiz-adv-x="721" 
d="M687 644l-69 -69c41 -61 64 -140 64 -230c0 -207 -122 -359 -315 -359c-98 0 -178 39 -233 105l-66 -66l-22 21l69 69c-41 61 -64 141 -64 230c0 208 122 359 316 359c98 0 178 -39 232 -105l67 67zM93 345c0 -81 19 -149 51 -201l428 428c-50 64 -123 99 -205 99
c-152 0 -274 -118 -274 -326zM640 345c0 82 -19 149 -51 201l-428 -428c50 -64 123 -99 206 -99c151 0 273 119 273 326z" />
    <glyph glyph-name="Otilde" unicode="&#xd5;" horiz-adv-x="719" 
d="M314 782c-10 0 -16 -6 -16 -21h-24c0 34 14 49 40 49c16 0 31 -4 58 -13c24 -8 37 -12 46 -12c10 0 16 6 16 21h25c0 -34 -14 -49 -40 -49c-17 0 -32 4 -59 13c-24 8 -37 12 -46 12zM366 704c193 0 315 -151 315 -359c0 -207 -122 -359 -315 -359
c-194 0 -316 152 -316 359c0 208 122 359 316 359zM366 19c151 0 273 119 273 326c0 208 -122 326 -273 326c-152 0 -274 -118 -274 -326c0 -207 122 -326 274 -326z" />
    <glyph glyph-name="OE" unicode="&#x152;" horiz-adv-x="1107" 
d="M1076 33v-33h-437v189l-30 -76c-62 -90 -140 -127 -246 -127c-191 0 -313 155 -313 359c0 206 122 359 313 359c112 0 177 -34 246 -125l30 -79v190h427v-32h-389v-297h366v-32h-366v-296h399zM366 19c159 0 273 121 273 326c0 206 -114 326 -273 326
c-152 0 -274 -120 -274 -326c0 -205 122 -326 274 -326z" />
    <glyph glyph-name="P" unicode="P" horiz-adv-x="540" 
d="M362 685c97 -12 170 -68 170 -185c0 -120 -75 -181 -170 -194c-32 -4 -62 -4 -97 -4h-130v-302h-38v690h168c35 0 65 -1 97 -5zM358 340c75 11 133 58 133 160c0 97 -58 141 -133 151c-29 4 -56 5 -91 5h-132v-321h132c35 0 62 1 91 5z" />
    <glyph glyph-name="Thorn" unicode="&#xde;" horiz-adv-x="638" 
d="M363 575c95 -12 169 -64 169 -176c0 -114 -74 -172 -169 -184c-31 -4 -61 -5 -96 -5h-132v-210h-38v690h38v-110h132c35 0 65 -1 96 -5zM357 249c75 10 134 53 134 150c0 92 -59 132 -134 142c-29 4 -56 5 -90 5h-132v-302h132c34 0 61 1 90 5z" />
    <glyph glyph-name="Q" unicode="Q" horiz-adv-x="720" 
d="M681 345c0 -117 -37 -236 -155 -309c56 -2 94 -21 141 -61l-22 -27c-56 42 -93 54 -140 54c-23 0 -40 -3 -68 -9c-24 -5 -43 -7 -71 -7c-194 0 -316 152 -316 359c0 208 122 359 316 359c193 0 315 -151 315 -359zM92 345c0 -207 122 -326 274 -326
c151 0 273 119 273 326c0 208 -122 326 -273 326c-152 0 -274 -118 -274 -326z" />
    <glyph glyph-name="R" unicode="R" horiz-adv-x="583" 
d="M508 187c11 -100 25 -145 46 -187h-43c-16 44 -30 85 -41 181c-9 76 -42 142 -122 146c-21 1 -44 1 -60 1h-153v-328h-38v690h182c35 0 65 -1 97 -5c105 -13 168 -69 168 -172c0 -89 -56 -150 -137 -167c61 -21 93 -83 101 -159zM135 361h154c27 0 44 0 73 2
c86 7 141 63 141 147c0 86 -49 131 -136 142c-28 4 -53 5 -88 5h-144v-296z" />
    <glyph glyph-name="Racute" unicode="&#x154;" horiz-adv-x="583" 
d="M319 736h-28l53 94h41zM508 187c11 -100 25 -145 46 -187h-43c-16 44 -30 85 -41 181c-9 76 -42 142 -122 146c-21 1 -44 1 -60 1h-153v-328h-38v690h182c35 0 65 -1 97 -5c105 -13 168 -69 168 -172c0 -89 -56 -150 -137 -167c61 -21 93 -83 101 -159zM135 361h154
c27 0 44 0 73 2c86 7 141 63 141 147c0 86 -49 131 -136 142c-28 4 -53 5 -88 5h-144v-296z" />
    <glyph glyph-name="Rcaron" unicode="&#x158;" horiz-adv-x="583" 
d="M293 736l-66 94h35l47 -74l47 74h34l-65 -94h-32zM508 187c11 -100 25 -145 46 -187h-43c-16 44 -30 85 -41 181c-9 76 -42 142 -122 146c-21 1 -44 1 -60 1h-153v-328h-38v690h182c35 0 65 -1 97 -5c105 -13 168 -69 168 -172c0 -89 -56 -150 -137 -167
c61 -21 93 -83 101 -159zM135 361h154c27 0 44 0 73 2c86 7 141 63 141 147c0 86 -49 131 -136 142c-28 4 -53 5 -88 5h-144v-296z" />
    <glyph glyph-name="Rcommaaccent" unicode="&#x156;" horiz-adv-x="583" 
d="M508 187c11 -100 25 -145 46 -187h-43c-16 44 -30 85 -41 181c-9 76 -42 142 -122 146c-21 1 -44 1 -60 1h-153v-328h-38v690h182c35 0 65 -1 97 -5c105 -13 168 -69 168 -172c0 -89 -56 -150 -137 -167c61 -21 93 -83 101 -159zM135 361h154c27 0 44 0 73 2
c86 7 141 63 141 147c0 86 -49 131 -136 142c-28 4 -53 5 -88 5h-144v-296zM284 -51h36v-7l-52 -121h-29z" />
    <glyph glyph-name="S" unicode="S" horiz-adv-x="566" 
d="M292 704c132 0 203 -87 216 -194h-40c-15 102 -84 161 -179 161c-84 0 -174 -46 -174 -139s57 -124 187 -160c145 -39 216 -90 216 -200c0 -107 -97 -186 -227 -186c-129 0 -234 65 -249 198h40c15 -107 104 -165 210 -165c105 0 185 59 185 147c0 95 -56 133 -191 170
c-142 38 -212 82 -212 190c0 105 100 178 218 178z" />
    <glyph glyph-name="Sacute" unicode="&#x15a;" horiz-adv-x="566" 
d="M297 736h-28l53 94h41zM292 704c132 0 203 -87 216 -194h-40c-15 102 -84 161 -179 161c-84 0 -174 -46 -174 -139s57 -124 187 -160c145 -39 216 -90 216 -200c0 -107 -97 -186 -227 -186c-129 0 -234 65 -249 198h40c15 -107 104 -165 210 -165c105 0 185 59 185 147
c0 95 -56 133 -191 170c-142 38 -212 82 -212 190c0 105 100 178 218 178z" />
    <glyph glyph-name="Scaron" unicode="&#x160;" horiz-adv-x="566" 
d="M271 736l-66 94h35l47 -74l47 74h34l-65 -94h-32zM302 372c145 -39 216 -90 216 -200c0 -107 -97 -186 -227 -186c-129 0 -234 65 -249 198h40c15 -107 104 -165 210 -165c105 0 185 59 185 147c0 95 -56 133 -191 170c-142 38 -212 82 -212 190c0 105 100 178 218 178
c132 0 203 -87 216 -194h-40c-15 102 -84 161 -179 161c-84 0 -174 -46 -174 -139s57 -124 187 -160z" />
    <glyph glyph-name="Scedilla" unicode="&#x15e;" horiz-adv-x="566" 
d="M518 172c0 -106 -95 -185 -224 -186l-18 -34c54 -6 86 -30 86 -79c0 -57 -51 -83 -106 -83c-21 0 -38 3 -52 10v27c15 -8 31 -11 53 -11c44 0 74 19 74 57s-30 59 -98 56l30 58c-116 9 -207 74 -221 197h40c15 -107 104 -165 210 -165c105 0 185 59 185 147
c0 95 -56 133 -191 170c-142 38 -212 82 -212 190c0 105 100 178 218 178c132 0 203 -87 216 -194h-40c-15 102 -84 161 -179 161c-84 0 -174 -46 -174 -139s57 -124 187 -160c145 -39 216 -90 216 -200z" />
    <glyph glyph-name="Scommaaccent" unicode="&#x218;" horiz-adv-x="566" 
d="M292 704c132 0 203 -87 216 -194h-40c-15 102 -84 161 -179 161c-84 0 -174 -46 -174 -139s57 -124 187 -160c145 -39 216 -90 216 -200c0 -107 -97 -186 -227 -186c-129 0 -234 65 -249 198h40c15 -107 104 -165 210 -165c105 0 185 59 185 147c0 95 -56 133 -191 170
c-142 38 -212 82 -212 190c0 105 100 178 218 178zM307 -58l-52 -121h-29l45 128h36v-7z" />
    <glyph glyph-name="T" unicode="T" horiz-adv-x="588" 
d="M590 658h-260v-658h-38v658h-259v32h557v-32z" />
    <glyph glyph-name="Tbar" unicode="&#x166;" horiz-adv-x="588" 
d="M330 658v-310h136v-29h-136v-319h-38v319h-136v29h136v310h-259v32h557v-32h-260z" />
    <glyph glyph-name="Tcaron" unicode="&#x164;" horiz-adv-x="588" 
d="M296 736l-66 94h35l47 -74l47 74h34l-65 -94h-32zM590 658h-260v-658h-38v658h-259v32h557v-32z" />
    <glyph glyph-name="Tcedilla" unicode="&#x162;" horiz-adv-x="588" 
d="M330 658v-650h1l-1 -2v-6h-3l-26 -48c54 -6 86 -30 86 -79c0 -57 -51 -83 -106 -83c-21 0 -38 3 -52 10v27c15 -8 31 -11 53 -11c44 0 74 19 74 57s-30 59 -98 56l37 71h-3v658h-259v32h557v-32h-260z" />
    <glyph glyph-name="uni021A" unicode="&#x21a;" horiz-adv-x="588" 
d="M590 690v-32h-260v-658h-38v658h-259v32h557zM296 -51h36v-7l-52 -121h-29z" />
    <glyph glyph-name="U" unicode="U" horiz-adv-x="621" 
d="M554 690v-451c0 -17 -1 -38 -3 -66c-8 -108 -83 -187 -229 -187c-145 0 -220 79 -228 187c-2 28 -3 49 -3 66v451h38v-452c0 -23 1 -42 3 -62c8 -87 66 -157 190 -157c125 0 183 70 191 157c2 20 3 39 3 62v452h38z" />
    <glyph glyph-name="Uacute" unicode="&#xda;" horiz-adv-x="621" 
d="M333 736h-28l53 94h41zM554 690v-451c0 -17 -1 -38 -3 -66c-8 -108 -83 -187 -229 -187c-145 0 -220 79 -228 187c-2 28 -3 49 -3 66v451h38v-452c0 -23 1 -42 3 -62c8 -87 66 -157 190 -157c125 0 183 70 191 157c2 20 3 39 3 62v452h38z" />
    <glyph glyph-name="Ucircumflex" unicode="&#xdb;" horiz-adv-x="621" 
d="M275 736h-34l66 94h32l65 -94h-35l-47 74zM554 690v-451c0 -17 -1 -38 -3 -66c-8 -108 -83 -187 -229 -187c-145 0 -220 79 -228 187c-2 28 -3 49 -3 66v451h38v-452c0 -23 1 -42 3 -62c8 -87 66 -157 190 -157c125 0 183 70 191 157c2 20 3 39 3 62v452h38z" />
    <glyph glyph-name="Udieresis" unicode="&#xdc;" horiz-adv-x="621" 
d="M278 810c15 0 27 -12 27 -27c0 -14 -12 -26 -27 -26c-14 0 -26 12 -26 26c0 15 12 27 26 27zM366 810c14 0 26 -12 26 -27c0 -14 -12 -26 -26 -26c-15 0 -27 12 -27 26c0 15 12 27 27 27zM554 690v-451c0 -17 -1 -38 -3 -66c-8 -108 -83 -187 -229 -187
c-145 0 -220 79 -228 187c-2 28 -3 49 -3 66v451h38v-452c0 -23 1 -42 3 -62c8 -87 66 -157 190 -157c125 0 183 70 191 157c2 20 3 39 3 62v452h38z" />
    <glyph glyph-name="Ugrave" unicode="&#xd9;" horiz-adv-x="621" 
d="M337 736h-28l-66 94h41zM554 690v-451c0 -17 -1 -38 -3 -66c-8 -108 -83 -187 -229 -187c-145 0 -220 79 -228 187c-2 28 -3 49 -3 66v451h38v-452c0 -23 1 -42 3 -62c8 -87 66 -157 190 -157c125 0 183 70 191 157c2 20 3 39 3 62v452h38z" />
    <glyph glyph-name="Uhungarumlaut" unicode="&#x170;" horiz-adv-x="621" 
d="M284 736h-28l53 94h41zM376 736h-28l53 94h41zM554 690v-451c0 -17 -1 -38 -3 -66c-8 -108 -83 -187 -229 -187c-145 0 -220 79 -228 187c-2 28 -3 49 -3 66v451h38v-452c0 -23 1 -42 3 -62c8 -87 66 -157 190 -157c125 0 183 70 191 157c2 20 3 39 3 62v452h38z" />
    <glyph glyph-name="Umacron" unicode="&#x16a;" horiz-adv-x="621" 
d="M405 768h-165v29h165v-29zM554 690v-451c0 -17 -1 -38 -3 -66c-8 -108 -83 -187 -229 -187c-145 0 -220 79 -228 187c-2 28 -3 49 -3 66v451h38v-452c0 -23 1 -42 3 -62c8 -87 66 -157 190 -157c125 0 183 70 191 157c2 20 3 39 3 62v452h38z" />
    <glyph glyph-name="Uogonek" unicode="&#x172;" horiz-adv-x="621" 
d="M554 690v-451c0 -17 -1 -38 -3 -66c-6 -81 -50 -145 -132 -173c-64 -25 -113 -77 -113 -143c0 -37 18 -52 45 -52c22 0 42 9 63 29v-30c-21 -18 -45 -27 -74 -27c-38 0 -71 17 -71 73s30 104 77 137l-24 -1c-145 0 -220 79 -228 187c-2 28 -3 49 -3 66v451h38v-452
c0 -23 1 -42 3 -62c8 -87 66 -157 190 -157c125 0 183 70 191 157c2 20 3 39 3 62v452h38z" />
    <glyph glyph-name="Uring" unicode="&#x16e;" horiz-adv-x="621" 
d="M322 852c39 0 70 -26 70 -66s-31 -65 -70 -65s-70 25 -70 65s31 66 70 66zM322 827c-25 0 -39 -18 -39 -41s14 -41 39 -41s40 18 40 41s-15 41 -40 41zM554 690v-451c0 -17 -1 -38 -3 -66c-8 -108 -83 -187 -229 -187c-145 0 -220 79 -228 187c-2 28 -3 49 -3 66v451h38
v-452c0 -23 1 -42 3 -62c8 -87 66 -157 190 -157c125 0 183 70 191 157c2 20 3 39 3 62v452h38z" />
    <glyph glyph-name="V" unicode="V" horiz-adv-x="593" 
d="M339 0h-52l-259 690h41l245 -659l246 659h41z" />
    <glyph glyph-name="W" unicode="W" horiz-adv-x="855" 
d="M856 690l-188 -690h-49l-178 643l-189 -643h-51l-175 690h42l161 -654l187 644h52l177 -643l172 653h39z" />
    <glyph glyph-name="Wacute" unicode="&#x1e82;" horiz-adv-x="855" 
d="M445 736h-28l53 94h41zM856 690l-188 -690h-49l-178 643l-189 -643h-51l-175 690h42l161 -654l187 644h52l177 -643l172 653h39z" />
    <glyph glyph-name="Wcircumflex" unicode="&#x174;" horiz-adv-x="855" 
d="M387 736h-34l66 94h32l65 -94h-35l-47 74zM856 690l-188 -690h-49l-178 643l-189 -643h-51l-175 690h42l161 -654l187 644h52l177 -643l172 653h39z" />
    <glyph glyph-name="Wdieresis" unicode="&#x1e84;" horiz-adv-x="855" 
d="M390 757c-14 0 -26 12 -26 26c0 15 12 27 26 27c15 0 27 -12 27 -27c0 -14 -12 -26 -27 -26zM478 757c-15 0 -27 12 -27 26c0 15 12 27 27 27c14 0 26 -12 26 -27c0 -14 -12 -26 -26 -26zM856 690l-188 -690h-49l-178 643l-189 -643h-51l-175 690h42l161 -654l187 644h52
l177 -643l172 653h39z" />
    <glyph glyph-name="Wgrave" unicode="&#x1e80;" horiz-adv-x="855" 
d="M421 736l-66 94h41l53 -94h-28zM856 690l-188 -690h-49l-178 643l-189 -643h-51l-175 690h42l161 -654l187 644h52l177 -643l172 653h39z" />
    <glyph glyph-name="X" unicode="X" horiz-adv-x="585" 
d="M321 347l252 -347h-48l-226 320l-226 -320h-46l248 345l-230 345h43l211 -316l229 316h47z" />
    <glyph glyph-name="Y" unicode="Y" horiz-adv-x="554" 
d="M305 280v-280h-38v280l-245 410h44l222 -372l218 372h44z" />
    <glyph glyph-name="Yacute" unicode="&#xdd;" horiz-adv-x="554" 
d="M297 736h-28l53 94h41zM305 280v-280h-38v280l-245 410h44l222 -372l218 372h44z" />
    <glyph glyph-name="Ycircumflex" unicode="&#x176;" horiz-adv-x="554" 
d="M239 736h-34l66 94h32l65 -94h-35l-47 74zM305 280v-280h-38v280l-245 410h44l222 -372l218 372h44z" />
    <glyph glyph-name="Ydieresis" unicode="&#x178;" horiz-adv-x="554" 
d="M242 757c-14 0 -26 12 -26 26c0 15 12 27 26 27c15 0 27 -12 27 -27c0 -14 -12 -26 -27 -26zM330 757c-15 0 -27 12 -27 26c0 15 12 27 27 27c14 0 26 -12 26 -27c0 -14 -12 -26 -26 -26zM305 280v-280h-38v280l-245 410h44l222 -372l218 372h44z" />
    <glyph glyph-name="Ygrave" unicode="&#x1ef2;" horiz-adv-x="554" 
d="M273 736l-66 94h41l53 -94h-28zM305 280v-280h-38v280l-245 410h44l222 -372l218 372h44z" />
    <glyph glyph-name="Z" unicode="Z" horiz-adv-x="551" 
d="M526 33v-33h-487v29l437 628h-409v33h453v-32l-435 -625h441z" />
    <glyph glyph-name="Zacute" unicode="&#x179;" horiz-adv-x="551" 
d="M293 736h-28l53 94h41zM526 33v-33h-487v29l437 628h-409v33h453v-32l-435 -625h441z" />
    <glyph glyph-name="Zcaron" unicode="&#x17d;" horiz-adv-x="551" 
d="M267 736l-66 94h35l47 -74l47 74h34l-65 -94h-32zM526 33v-33h-487v29l437 628h-409v33h453v-32l-435 -625h441z" />
    <glyph glyph-name="Zdotaccent" unicode="&#x17b;" horiz-adv-x="551" 
d="M282 757c-14 0 -26 12 -26 26c0 15 12 27 26 27c15 0 27 -12 27 -27c0 -14 -12 -26 -27 -26zM526 33v-33h-487v29l437 628h-409v33h453v-32l-435 -625h441z" />
    <glyph glyph-name="a" unicode="a" horiz-adv-x="503" 
d="M401 0l-7 115l-25 -53c-36 -51 -94 -76 -160 -76c-99 0 -165 49 -165 144c0 122 140 177 315 177h34v24c0 24 0 45 -2 67c-6 71 -52 111 -135 111c-73 0 -141 -39 -152 -131h-39c7 94 84 163 191 163c109 0 165 -51 173 -139c2 -26 2 -43 2 -69v-172c0 -55 3 -94 9 -161
h-39zM218 18c105 0 175 87 175 189v68c-152 10 -307 -30 -307 -143c0 -71 44 -114 132 -114z" />
    <glyph glyph-name="aacute" unicode="&#xe1;" horiz-adv-x="503" 
d="M268 580h-28l60 110h41zM401 0l-7 115l-25 -53c-36 -51 -94 -76 -160 -76c-99 0 -165 49 -165 144c0 122 140 177 315 177h34v24c0 24 0 45 -2 67c-6 71 -52 111 -135 111c-73 0 -141 -39 -152 -131h-39c7 94 84 163 191 163c109 0 165 -51 173 -139c2 -26 2 -43 2 -69
v-172c0 -55 3 -94 9 -161h-39zM218 18c105 0 175 87 175 189v68c-152 10 -307 -30 -307 -143c0 -71 44 -114 132 -114z" />
    <glyph glyph-name="abreve" unicode="&#x103;" horiz-adv-x="503" 
d="M257 569c-64 0 -94 46 -94 121h27c1 -59 25 -91 67 -91s65 32 66 91h27c0 -75 -29 -121 -93 -121zM401 0l-7 115l-25 -53c-36 -51 -94 -76 -160 -76c-99 0 -165 49 -165 144c0 122 140 177 315 177h34v24c0 24 0 45 -2 67c-6 71 -52 111 -135 111
c-73 0 -141 -39 -152 -131h-39c7 94 84 163 191 163c109 0 165 -51 173 -139c2 -26 2 -43 2 -69v-172c0 -55 3 -94 9 -161h-39zM218 18c105 0 175 87 175 189v68c-152 10 -307 -30 -307 -143c0 -71 44 -114 132 -114z" />
    <glyph glyph-name="acircumflex" unicode="&#xe2;" horiz-adv-x="503" 
d="M209 580h-33l66 110h32l65 -110h-34l-48 86zM401 0l-7 115l-25 -53c-36 -51 -94 -76 -160 -76c-99 0 -165 49 -165 144c0 122 140 177 315 177h34v24c0 24 0 45 -2 67c-6 71 -52 111 -135 111c-73 0 -141 -39 -152 -131h-39c7 94 84 163 191 163c109 0 165 -51 173 -139
c2 -26 2 -43 2 -69v-172c0 -55 3 -94 9 -161h-39zM218 18c105 0 175 87 175 189v68c-152 10 -307 -30 -307 -143c0 -71 44 -114 132 -114z" />
    <glyph glyph-name="adieresis" unicode="&#xe4;" horiz-adv-x="503" 
d="M209 606c-15 0 -27 12 -27 26c0 15 12 27 27 27c14 0 26 -12 26 -27c0 -14 -12 -26 -26 -26zM305 606c-14 0 -26 12 -26 26c0 15 12 27 26 27c15 0 27 -12 27 -27c0 -14 -12 -26 -27 -26zM401 0l-7 115l-25 -53c-36 -51 -94 -76 -160 -76c-99 0 -165 49 -165 144
c0 122 140 177 315 177h34v24c0 24 0 45 -2 67c-6 71 -52 111 -135 111c-73 0 -141 -39 -152 -131h-39c7 94 84 163 191 163c109 0 165 -51 173 -139c2 -26 2 -43 2 -69v-172c0 -55 3 -94 9 -161h-39zM218 18c105 0 175 87 175 189v68c-152 10 -307 -30 -307 -143
c0 -71 44 -114 132 -114z" />
    <glyph glyph-name="agrave" unicode="&#xe0;" horiz-adv-x="503" 
d="M235 580l-73 110h41l60 -110h-28zM401 0l-7 115l-25 -53c-36 -51 -94 -76 -160 -76c-99 0 -165 49 -165 144c0 122 140 177 315 177h34v24c0 24 0 45 -2 67c-6 71 -52 111 -135 111c-73 0 -141 -39 -152 -131h-39c7 94 84 163 191 163c109 0 165 -51 173 -139
c2 -26 2 -43 2 -69v-172c0 -55 3 -94 9 -161h-39zM218 18c105 0 175 87 175 189v68c-152 10 -307 -30 -307 -143c0 -71 44 -114 132 -114z" />
    <glyph glyph-name="amacron" unicode="&#x101;" horiz-adv-x="503" 
d="M340 616h-165v29h165v-29zM401 0l-7 115l-25 -53c-36 -51 -94 -76 -160 -76c-99 0 -165 49 -165 144c0 122 140 177 315 177h34v24c0 24 0 45 -2 67c-6 71 -52 111 -135 111c-73 0 -141 -39 -152 -131h-39c7 94 84 163 191 163c109 0 165 -51 173 -139c2 -26 2 -43 2 -69
v-172c0 -55 3 -94 9 -161h-39zM218 18c105 0 175 87 175 189v68c-152 10 -307 -30 -307 -143c0 -71 44 -114 132 -114z" />
    <glyph glyph-name="aogonek" unicode="&#x105;" horiz-adv-x="503" 
d="M440 0h-13c-67 -17 -115 -77 -115 -143c0 -37 18 -52 45 -52c22 0 42 9 63 29v-30c-21 -18 -45 -27 -74 -27c-38 0 -71 17 -71 73c0 74 52 139 125 163l-6 102l-25 -53c-36 -51 -94 -76 -160 -76c-99 0 -165 49 -165 144c0 122 140 177 315 177h34v24c0 24 0 45 -2 67
c-6 71 -52 111 -135 111c-73 0 -141 -39 -152 -131h-39c7 94 84 163 191 163c109 0 165 -51 173 -139c2 -26 2 -43 2 -69v-172c0 -55 3 -94 9 -161zM218 18c105 0 175 87 175 189v68c-152 10 -307 -30 -307 -143c0 -71 44 -114 132 -114z" />
    <glyph glyph-name="aring" unicode="&#xe5;" horiz-adv-x="503" 
d="M257 570c-39 0 -69 27 -69 68s30 67 69 67s69 -26 69 -67s-30 -68 -69 -68zM257 681c-25 0 -39 -19 -39 -43s14 -43 39 -43s40 19 40 43s-15 43 -40 43zM401 0l-7 115l-25 -53c-36 -51 -94 -76 -160 -76c-99 0 -165 49 -165 144c0 122 140 177 315 177h34v24
c0 24 0 45 -2 67c-6 71 -52 111 -135 111c-73 0 -141 -39 -152 -131h-39c7 94 84 163 191 163c109 0 165 -51 173 -139c2 -26 2 -43 2 -69v-172c0 -55 3 -94 9 -161h-39zM218 18c105 0 175 87 175 189v68c-152 10 -307 -30 -307 -143c0 -71 44 -114 132 -114z" />
    <glyph glyph-name="atilde" unicode="&#xe3;" horiz-adv-x="503" 
d="M205 643c-10 0 -16 -5 -16 -20h-24c0 33 14 48 40 48c16 0 31 -4 58 -13c24 -8 37 -12 46 -12c10 0 16 6 16 21h25c0 -33 -14 -48 -40 -48c-17 0 -32 4 -59 13c-24 8 -37 11 -46 11zM401 0l-7 115l-25 -53c-36 -51 -94 -76 -160 -76c-99 0 -165 49 -165 144
c0 122 140 177 315 177h34v24c0 24 0 45 -2 67c-6 71 -52 111 -135 111c-73 0 -141 -39 -152 -131h-39c7 94 84 163 191 163c109 0 165 -51 173 -139c2 -26 2 -43 2 -69v-172c0 -55 3 -94 9 -161h-39zM218 18c105 0 175 87 175 189v68c-152 10 -307 -30 -307 -143
c0 -71 44 -114 132 -114z" />
    <glyph glyph-name="ae" unicode="&#xe6;" horiz-adv-x="914" 
d="M877 278c0 -5 0 -12 -2 -25h-418c5 -169 91 -235 191 -235c79 0 156 46 182 146h39c-29 -119 -121 -178 -224 -178c-87 0 -178 45 -209 156l-23 -58c-51 -69 -116 -98 -195 -98c-92 0 -174 44 -174 144c0 122 157 156 340 156h34v25c0 127 -46 198 -158 198
c-74 0 -148 -39 -158 -131h-39c5 94 87 163 197 163c105 0 166 -46 186 -136c36 89 118 136 209 136c154 0 222 -126 222 -263zM457 286h380c-5 164 -90 223 -184 223c-102 0 -191 -71 -196 -223zM418 224v29c-162 7 -332 -15 -332 -121c0 -71 54 -114 140 -114
c110 0 192 83 192 206z" />
    <glyph glyph-name="b" unicode="b" horiz-adv-x="561" 
d="M300 541c142 0 231 -114 231 -272c0 -189 -115 -283 -244 -283c-61 0 -108 18 -147 60l-30 62v-108h-38v735h38v-319l31 59c43 48 92 66 159 66zM287 18c118 0 202 97 202 245c0 134 -67 246 -193 246c-100 0 -186 -58 -186 -225v-52c0 -163 96 -214 177 -214z" />
    <glyph glyph-name="c" unicode="c" horiz-adv-x="520" 
d="M273 541c117 0 198 -73 214 -181h-39c-18 93 -79 150 -177 150c-95 0 -199 -78 -199 -241c0 -172 95 -251 195 -251c85 0 157 50 176 142h39c-22 -110 -108 -174 -218 -174c-130 0 -234 98 -234 277c0 173 111 278 243 278z" />
    <glyph glyph-name="cacute" unicode="&#x107;" horiz-adv-x="520" 
d="M277 580h-28l60 110h41zM273 541c117 0 198 -73 214 -181h-39c-18 93 -79 150 -177 150c-95 0 -199 -78 -199 -241c0 -172 95 -251 195 -251c85 0 157 50 176 142h39c-22 -110 -108 -174 -218 -174c-130 0 -234 98 -234 277c0 173 111 278 243 278z" />
    <glyph glyph-name="ccaron" unicode="&#x10d;" horiz-adv-x="520" 
d="M251 580l-66 110h34l48 -86l48 86h33l-65 -110h-32zM267 18c85 0 157 50 176 142h39c-22 -110 -108 -174 -218 -174c-130 0 -234 98 -234 277c0 173 111 278 243 278c117 0 198 -73 214 -181h-39c-18 93 -79 150 -177 150c-95 0 -199 -78 -199 -241
c0 -172 95 -251 195 -251z" />
    <glyph glyph-name="ccedilla" unicode="&#xe7;" horiz-adv-x="520" 
d="M267 18c85 0 157 50 176 142h39c-22 -110 -108 -174 -218 -174l-18 -34c54 -6 86 -30 86 -79c0 -57 -51 -83 -106 -83c-21 0 -38 3 -52 10v27c15 -8 31 -11 53 -11c44 0 74 19 74 57s-30 59 -98 56l31 59c-116 14 -204 110 -204 275c0 173 111 278 243 278
c117 0 198 -73 214 -181h-39c-18 93 -79 150 -177 150c-95 0 -199 -78 -199 -241c0 -172 95 -251 195 -251z" />
    <glyph glyph-name="cdotaccent" unicode="&#x10b;" horiz-adv-x="520" 
d="M266 666c16 0 29 -13 29 -29s-13 -29 -29 -29s-29 13 -29 29s13 29 29 29zM273 541c117 0 198 -73 214 -181h-39c-18 93 -79 150 -177 150c-95 0 -199 -78 -199 -241c0 -172 95 -251 195 -251c85 0 157 50 176 142h39c-22 -110 -108 -174 -218 -174
c-130 0 -234 98 -234 277c0 173 111 278 243 278z" />
    <glyph glyph-name="d" unicode="d" horiz-adv-x="562" 
d="M489 735v-735h-38v112l-31 -60c-43 -48 -92 -66 -159 -66c-142 0 -231 114 -231 273c0 188 115 282 244 282c61 0 108 -18 147 -60l30 -61v315h38zM265 18c100 0 186 58 186 226v51c0 163 -96 214 -177 214c-118 0 -202 -97 -202 -245c0 -133 67 -246 193 -246z" />
    <glyph glyph-name="eth" unicode="&#xf0;" horiz-adv-x="538" 
d="M457 686l-60 -25c62 -69 94 -179 94 -354c0 -226 -99 -320 -236 -321c-144 -1 -225 116 -225 271c0 167 93 287 235 287c49 0 91 -12 129 -41l49 -64c-9 93 -37 161 -81 208l-160 -66l-11 28l146 60c-29 22 -62 38 -101 47l24 29c44 -14 82 -33 113 -61l73 30zM449 283
v21c0 130 -78 208 -181 208c-108 0 -196 -90 -196 -252c0 -156 81 -242 187 -242c118 0 190 98 190 265z" />
    <glyph glyph-name="dcaron" unicode="&#x10f;" horiz-adv-x="562" 
d="M451 735h38v-735h-38v112l-31 -60c-43 -48 -92 -66 -159 -66c-142 0 -231 114 -231 273c0 188 115 282 244 282c61 0 108 -18 147 -60l30 -61v315zM600 734v-7l-52 -120h-29l45 127h36zM265 18c100 0 186 58 186 226v51c0 163 -96 214 -177 214
c-118 0 -202 -97 -202 -245c0 -133 67 -246 193 -246z" />
    <glyph glyph-name="dcroat" unicode="&#x111;" horiz-adv-x="564" 
d="M532 609h-43v-609h-38v112l-31 -60c-43 -48 -92 -66 -159 -66c-142 0 -231 114 -231 273c0 188 115 282 244 282c61 0 108 -18 147 -60l30 -61v189h-117v29h117v97h38v-97h43v-29zM265 18c100 0 186 58 186 226v51c0 163 -96 214 -177 214c-118 0 -202 -97 -202 -245
c0 -133 67 -246 193 -246z" />
    <glyph glyph-name="e" unicode="e" horiz-adv-x="528" 
d="M491 278c0 -5 0 -12 -1 -25h-420c6 -171 100 -235 192 -235c80 0 156 46 182 146h39c-29 -119 -121 -178 -223 -178c-126 0 -230 94 -230 279c0 167 105 276 239 276c149 0 222 -126 222 -263zM267 509c-92 0 -191 -72 -197 -223h382c-6 163 -96 223 -185 223z" />
    <glyph glyph-name="eacute" unicode="&#xe9;" horiz-adv-x="528" 
d="M272 580h-28l60 110h41zM491 278c0 -5 0 -12 -1 -25h-420c6 -171 100 -235 192 -235c80 0 156 46 182 146h39c-29 -119 -121 -178 -223 -178c-126 0 -230 94 -230 279c0 167 105 276 239 276c149 0 222 -126 222 -263zM267 509c-92 0 -191 -72 -197 -223h382
c-6 163 -96 223 -185 223z" />
    <glyph glyph-name="ecaron" unicode="&#x11b;" horiz-adv-x="528" 
d="M246 580l-66 110h34l48 -86l48 86h33l-65 -110h-32zM491 278c0 -5 0 -12 -1 -25h-420c6 -171 100 -235 192 -235c80 0 156 46 182 146h39c-29 -119 -121 -178 -223 -178c-126 0 -230 94 -230 279c0 167 105 276 239 276c149 0 222 -126 222 -263zM267 509
c-92 0 -191 -72 -197 -223h382c-6 163 -96 223 -185 223z" />
    <glyph glyph-name="ecircumflex" unicode="&#xea;" horiz-adv-x="528" 
d="M213 580h-33l66 110h32l65 -110h-34l-48 86zM491 278c0 -5 0 -12 -1 -25h-420c6 -171 100 -235 192 -235c80 0 156 46 182 146h39c-29 -119 -121 -178 -223 -178c-126 0 -230 94 -230 279c0 167 105 276 239 276c149 0 222 -126 222 -263zM267 509
c-92 0 -191 -72 -197 -223h382c-6 163 -96 223 -185 223z" />
    <glyph glyph-name="edieresis" unicode="&#xeb;" horiz-adv-x="528" 
d="M213 606c-15 0 -27 12 -27 26c0 15 12 27 27 27c14 0 26 -12 26 -27c0 -14 -12 -26 -26 -26zM309 606c-14 0 -26 12 -26 26c0 15 12 27 26 27c15 0 27 -12 27 -27c0 -14 -12 -26 -27 -26zM491 278c0 -5 0 -12 -1 -25h-420c6 -171 100 -235 192 -235c80 0 156 46 182 146
h39c-29 -119 -121 -178 -223 -178c-126 0 -230 94 -230 279c0 167 105 276 239 276c149 0 222 -126 222 -263zM267 509c-92 0 -191 -72 -197 -223h382c-6 163 -96 223 -185 223z" />
    <glyph glyph-name="edotaccent" unicode="&#x117;" horiz-adv-x="528" 
d="M261 608c-16 0 -29 13 -29 29s13 29 29 29s29 -13 29 -29s-13 -29 -29 -29zM491 278c0 -5 0 -12 -1 -25h-420c6 -171 100 -235 192 -235c80 0 156 46 182 146h39c-29 -119 -121 -178 -223 -178c-126 0 -230 94 -230 279c0 167 105 276 239 276c149 0 222 -126 222 -263z
M267 509c-92 0 -191 -72 -197 -223h382c-6 163 -96 223 -185 223z" />
    <glyph glyph-name="egrave" unicode="&#xe8;" horiz-adv-x="528" 
d="M253 580l-73 110h41l60 -110h-28zM491 278c0 -5 0 -12 -1 -25h-420c6 -171 100 -235 192 -235c80 0 156 46 182 146h39c-29 -119 -121 -178 -223 -178c-126 0 -230 94 -230 279c0 167 105 276 239 276c149 0 222 -126 222 -263zM267 509c-92 0 -191 -72 -197 -223h382
c-6 163 -96 223 -185 223z" />
    <glyph glyph-name="emacron" unicode="&#x113;" horiz-adv-x="528" 
d="M344 616h-165v29h165v-29zM491 278c0 -5 0 -12 -1 -25h-420c6 -171 100 -235 192 -235c80 0 156 46 182 146h39c-29 -119 -121 -178 -223 -178c-126 0 -230 94 -230 279c0 167 105 276 239 276c149 0 222 -126 222 -263zM267 509c-92 0 -191 -72 -197 -223h382
c-6 163 -96 223 -185 223z" />
    <glyph glyph-name="eogonek" unicode="&#x119;" horiz-adv-x="528" 
d="M491 278c0 -5 0 -12 -1 -25h-420c6 -171 100 -235 192 -235c80 0 156 46 182 146h39c-21 -85 -74 -140 -140 -164l-2 -1c-4 -1 -9 -3 -13 -4c-59 -21 -100 -77 -100 -138c0 -37 18 -52 45 -52c22 0 42 9 63 29v-30c-21 -18 -45 -27 -74 -27c-38 0 -71 17 -71 73
c0 54 28 104 73 136h-4c-126 0 -230 94 -230 279c0 167 105 276 239 276c149 0 222 -126 222 -263zM267 509c-92 0 -191 -72 -197 -223h382c-6 163 -96 223 -185 223z" />
    <glyph glyph-name="f" unicode="f" horiz-adv-x="245" 
d="M121 650c-2 -20 -2 -36 -2 -51v-76h108v-32h-108v-491h-38v491h-57v32h57v74c0 16 0 36 2 56c7 69 53 101 104 101c20 0 32 -1 50 -5v-33c-75 17 -110 -15 -116 -66z" />
    <glyph glyph-name="g" unicode="g" horiz-adv-x="562" 
d="M489 530v-392c0 -71 0 -112 -1 -145c-4 -128 -86 -211 -225 -211c-110 0 -195 45 -210 163l-2 13h39l1 -13c12 -92 86 -130 174 -130c119 0 182 73 185 181c1 33 1 57 1 98v18l-31 -60c-43 -48 -92 -66 -159 -66c-142 0 -231 114 -231 273c0 188 115 282 244 282
c61 0 108 -18 147 -60l30 -61v110h38zM265 18c100 0 186 58 186 226v51c0 163 -96 214 -177 214c-118 0 -202 -97 -202 -245c0 -133 67 -246 193 -246z" />
    <glyph glyph-name="gbreve" unicode="&#x11f;" horiz-adv-x="562" 
d="M277 569c-64 0 -94 46 -94 121h27c1 -59 25 -91 67 -91s65 32 66 91h27c0 -75 -29 -121 -93 -121zM489 530v-392c0 -71 0 -112 -1 -145c-4 -128 -86 -211 -225 -211c-110 0 -195 45 -210 163l-2 13h39l1 -13c12 -92 86 -130 174 -130c119 0 182 73 185 181
c1 33 1 57 1 98v18l-31 -60c-43 -48 -92 -66 -159 -66c-142 0 -231 114 -231 273c0 188 115 282 244 282c61 0 108 -18 147 -60l30 -61v110h38zM265 18c100 0 186 58 186 226v51c0 163 -96 214 -177 214c-118 0 -202 -97 -202 -245c0 -133 67 -246 193 -246z" />
    <glyph glyph-name="gcommaaccent" unicode="&#x123;" horiz-adv-x="562" 
d="M293 581h-36v7l52 121h30zM489 530v-392c0 -71 0 -112 -1 -145c-4 -128 -86 -211 -225 -211c-110 0 -195 45 -210 163l-2 13h39l1 -13c12 -92 86 -130 174 -130c119 0 182 73 185 181c1 33 1 57 1 98v18l-31 -60c-43 -48 -92 -66 -159 -66c-142 0 -231 114 -231 273
c0 188 115 282 244 282c61 0 108 -18 147 -60l30 -61v110h38zM265 18c100 0 186 58 186 226v51c0 163 -96 214 -177 214c-118 0 -202 -97 -202 -245c0 -133 67 -246 193 -246z" />
    <glyph glyph-name="gdotaccent" unicode="&#x121;" horiz-adv-x="562" 
d="M277 608c-16 0 -29 13 -29 29s13 29 29 29s29 -13 29 -29s-13 -29 -29 -29zM489 530v-392c0 -71 0 -112 -1 -145c-4 -128 -86 -211 -225 -211c-110 0 -195 45 -210 163l-2 13h39l1 -13c12 -92 86 -130 174 -130c119 0 182 73 185 181c1 33 1 57 1 98v18l-31 -60
c-43 -48 -92 -66 -159 -66c-142 0 -231 114 -231 273c0 188 115 282 244 282c61 0 108 -18 147 -60l30 -61v110h38zM265 18c100 0 186 58 186 226v51c0 163 -96 214 -177 214c-118 0 -202 -97 -202 -245c0 -133 67 -246 193 -246z" />
    <glyph glyph-name="h" unicode="h" horiz-adv-x="546" 
d="M475 381c3 -27 4 -44 4 -87v-294h-38v285c0 35 -1 58 -4 85c-9 82 -54 139 -149 138c-93 0 -178 -65 -178 -216v-292h-38v740h38v-326l24 55c40 50 96 72 158 72c109 0 173 -60 183 -160z" />
    <glyph glyph-name="hbar" unicode="&#x127;" horiz-adv-x="557" 
d="M487 381c2 -27 3 -44 3 -87v-294h-38v285c0 35 -1 58 -3 85c-9 82 -54 139 -150 138c-93 0 -178 -65 -178 -216v-292h-38v609h-51v29h51v102h38v-102h109v-29h-109v-195l24 55c41 50 96 72 159 72c108 0 172 -60 183 -160z" />
    <glyph glyph-name="i" unicode="i" horiz-adv-x="183" 
d="M91 666c16 0 29 -13 29 -29s-13 -29 -29 -29s-29 13 -29 29s13 29 29 29zM110 0h-38v527h38v-527z" />
    <glyph glyph-name="dotlessi" unicode="&#x131;" horiz-adv-x="183" 
d="M110 0h-38v527h38v-527z" />
    <glyph glyph-name="iacute" unicode="&#xed;" horiz-adv-x="183" 
d="M102 580h-28l60 110h41zM110 0h-38v527h38v-527z" />
    <glyph glyph-name="icircumflex" unicode="&#xee;" horiz-adv-x="183" 
d="M173 580h-34l-48 86l-48 -86h-33l66 110h32zM72 527h38v-527h-38v527z" />
    <glyph glyph-name="idieresis" unicode="&#xef;" horiz-adv-x="183" 
d="M43 659c14 0 26 -12 26 -27c0 -14 -12 -26 -26 -26c-15 0 -27 12 -27 26c0 15 12 27 27 27zM139 659c15 0 27 -12 27 -27c0 -14 -12 -26 -27 -26c-14 0 -26 12 -26 26c0 15 12 27 26 27zM110 0h-38v527h38v-527z" />
    <glyph glyph-name="igrave" unicode="&#xec;" horiz-adv-x="183" 
d="M96 580h-28l-73 110h41zM110 0h-38v527h38v-527z" />
    <glyph glyph-name="ij" unicode="&#x133;" horiz-adv-x="358" 
d="M91 666c16 0 29 -13 29 -29s-13 -29 -29 -29s-29 13 -29 29s13 29 29 29zM267 666c16 0 29 -13 29 -29s-13 -29 -29 -29s-28 13 -28 29s12 29 28 29zM110 0h-38v527h38v-527zM286 527v-593c0 -20 0 -37 -1 -55c-4 -61 -41 -89 -93 -89c-12 0 -23 1 -36 3v32
c55 -9 88 4 91 59c1 14 1 25 1 40v603h38z" />
    <glyph glyph-name="imacron" unicode="&#x12b;" horiz-adv-x="183" 
d="M174 616h-165v29h165v-29zM110 0h-38v527h38v-527z" />
    <glyph glyph-name="iogonek" unicode="&#x12f;" horiz-adv-x="183" 
d="M91 666c16 0 29 -13 29 -29s-13 -29 -29 -29s-29 13 -29 29s13 29 29 29zM72 527h38v-527h-12c-67 -17 -116 -77 -116 -143c0 -37 19 -52 46 -52c22 0 42 9 63 29v-30c-21 -18 -45 -27 -74 -27c-38 0 -72 17 -72 73c0 74 53 139 127 163v514z" />
    <glyph glyph-name="j" unicode="j" horiz-adv-x="175" 
d="M84 666c16 0 29 -13 29 -29s-13 -29 -29 -29s-28 13 -28 29s12 29 28 29zM103 527v-593c0 -20 0 -37 -1 -55c-4 -61 -41 -89 -93 -89c-12 0 -23 1 -36 3v32c55 -9 88 4 91 59c1 14 1 25 1 40v603h38z" />
    <glyph glyph-name="k" unicode="k" horiz-adv-x="474" 
d="M157 249l-47 -45v-204h-38v735h38v-488l294 280h52l-271 -254l273 -273h-54z" />
    <glyph glyph-name="kcommaaccent" unicode="&#x137;" horiz-adv-x="474" 
d="M458 0h-54l-247 249l-47 -45v-204h-38v735h38v-488l294 280h52l-271 -254zM224 -51h36v-7l-52 -121h-29z" />
    <glyph glyph-name="l" unicode="l" horiz-adv-x="192" 
d="M107 735v-607c0 -30 0 -49 1 -64c2 -33 15 -41 58 -36v-30c-12 -3 -25 -3 -37 -3c-33 0 -57 13 -59 59c-1 20 -1 38 -1 73v608h38z" />
    <glyph glyph-name="lacute" unicode="&#x13a;" horiz-adv-x="192" 
d="M98 785h-28l60 110h41zM107 735v-607c0 -30 0 -49 1 -64c2 -33 15 -41 58 -36v-30c-12 -3 -25 -3 -37 -3c-33 0 -57 13 -59 59c-1 20 -1 38 -1 73v608h38z" />
    <glyph glyph-name="lcaron" unicode="&#x13e;" horiz-adv-x="192" 
d="M107 735v-607c0 -30 0 -49 1 -64c2 -33 15 -41 58 -36v-30c-12 -3 -25 -3 -37 -3c-33 0 -57 13 -59 59c-1 20 -1 38 -1 73v608h38z" />
    <glyph glyph-name="lcommaaccent" unicode="&#x13c;" horiz-adv-x="192" 
d="M107 735v-607c0 -30 0 -49 1 -64c2 -33 15 -41 58 -36v-30c-12 -3 -25 -3 -37 -3c-33 0 -57 13 -59 59c-1 20 -1 38 -1 73v608h38zM134 -58l-52 -121h-29l45 128h36v-7z" />
    <glyph glyph-name="ldot" unicode="&#x140;" horiz-adv-x="223" 
d="M107 735v-607c0 -30 0 -49 1 -64c2 -33 15 -41 58 -36v-30c-12 -3 -25 -3 -37 -3c-33 0 -57 13 -59 59c-1 20 -1 38 -1 73v608h38zM188 429c16 0 29 -13 29 -29s-13 -29 -29 -29s-29 13 -29 29s13 29 29 29z" />
    <glyph glyph-name="lslash" unicode="&#x142;" horiz-adv-x="223" 
d="M128 317v-189c0 -30 0 -49 1 -64c2 -33 15 -41 58 -36v-30c-12 -3 -25 -3 -37 -3c-33 0 -57 13 -59 59c-1 20 -1 38 -1 73v164l-59 -40v37l59 40v407h38v-382l59 40v-36z" />
    <glyph glyph-name="m" unicode="m" horiz-adv-x="821" 
d="M749 387c3 -27 4 -44 4 -87v-300h-38v283c0 40 -1 64 -4 91c-9 82 -49 135 -129 135c-83 0 -150 -64 -150 -217v-292h-38v283c0 40 -1 64 -4 91c-10 82 -50 135 -130 135c-82 0 -150 -64 -150 -217v-292h-38v527h38v-103l26 58c34 40 80 59 133 59c85 0 136 -47 154 -127
l35 68c34 40 79 59 132 59c95 0 148 -58 159 -154z" />
    <glyph glyph-name="n" unicode="n" horiz-adv-x="546" 
d="M475 381c3 -27 4 -44 4 -87v-294h-38v285c0 35 -1 58 -4 85c-9 82 -54 138 -149 138c-93 0 -178 -65 -178 -216v-292h-38v527h38v-113l24 55c40 50 96 72 158 72c109 0 173 -60 183 -160z" />
    <glyph glyph-name="nacute" unicode="&#x144;" horiz-adv-x="546" 
d="M284 580h-28l60 110h41zM475 381c3 -27 4 -44 4 -87v-294h-38v285c0 35 -1 58 -4 85c-9 82 -54 138 -149 138c-93 0 -178 -65 -178 -216v-292h-38v527h38v-113l24 55c40 50 96 72 158 72c109 0 173 -60 183 -160z" />
    <glyph glyph-name="ncaron" unicode="&#x148;" horiz-adv-x="546" 
d="M258 580l-66 110h34l48 -86l48 86h33l-65 -110h-32zM475 381c3 -27 4 -44 4 -87v-294h-38v285c0 35 -1 58 -4 85c-9 82 -54 138 -149 138c-93 0 -178 -65 -178 -216v-292h-38v527h38v-113l24 55c40 50 96 72 158 72c109 0 173 -60 183 -160z" />
    <glyph glyph-name="ncommaaccent" unicode="&#x146;" horiz-adv-x="546" 
d="M475 381c3 -27 4 -44 4 -87v-294h-38v285c0 35 -1 58 -4 85c-9 82 -54 138 -149 138c-93 0 -178 -65 -178 -216v-292h-38v527h38v-113l24 55c40 50 96 72 158 72c109 0 173 -60 183 -160zM254 -51h36v-7l-52 -121h-29z" />
    <glyph glyph-name="eng" unicode="&#x14b;" horiz-adv-x="546" 
d="M475 381c3 -27 4 -44 4 -87v-348c0 -18 0 -27 -1 -41c-7 -84 -55 -115 -145 -115v33c65 0 102 19 107 81c1 13 1 24 1 38v343c0 35 -1 58 -4 85c-9 82 -54 138 -149 138c-93 0 -178 -65 -178 -216v-292h-38v527h38v-113l24 55c40 50 96 72 158 72c109 0 173 -60 183 -160
z" />
    <glyph glyph-name="ntilde" unicode="&#xf1;" horiz-adv-x="546" 
d="M221 643c-10 0 -16 -5 -16 -20h-24c0 33 14 48 40 48c16 0 31 -4 58 -13c24 -8 37 -12 46 -12c10 0 16 6 16 21h25c0 -33 -14 -48 -40 -48c-17 0 -32 4 -59 13c-24 8 -37 11 -46 11zM475 381c3 -27 4 -44 4 -87v-294h-38v285c0 35 -1 58 -4 85c-9 82 -54 138 -149 138
c-93 0 -178 -65 -178 -216v-292h-38v527h38v-113l24 55c40 50 96 72 158 72c109 0 173 -60 183 -160z" />
    <glyph glyph-name="o" unicode="o" horiz-adv-x="562" 
d="M281 541c156 0 251 -115 251 -278c0 -162 -95 -277 -251 -277s-251 115 -251 277c0 163 95 278 251 278zM281 18c112 0 210 82 210 245c0 164 -98 246 -210 246s-209 -82 -209 -246c0 -163 97 -245 209 -245z" />
    <glyph glyph-name="oacute" unicode="&#xf3;" horiz-adv-x="562" 
d="M292 580h-28l60 110h41zM281 541c156 0 251 -115 251 -278c0 -162 -95 -277 -251 -277s-251 115 -251 277c0 163 95 278 251 278zM281 18c112 0 210 82 210 245c0 164 -98 246 -210 246s-209 -82 -209 -246c0 -163 97 -245 209 -245z" />
    <glyph glyph-name="ocircumflex" unicode="&#xf4;" horiz-adv-x="562" 
d="M233 580h-33l66 110h32l65 -110h-34l-48 86zM281 541c156 0 251 -115 251 -278c0 -162 -95 -277 -251 -277s-251 115 -251 277c0 163 95 278 251 278zM281 18c112 0 210 82 210 245c0 164 -98 246 -210 246s-209 -82 -209 -246c0 -163 97 -245 209 -245z" />
    <glyph glyph-name="odieresis" unicode="&#xf6;" horiz-adv-x="562" 
d="M233 606c-15 0 -27 12 -27 26c0 15 12 27 27 27c14 0 26 -12 26 -27c0 -14 -12 -26 -26 -26zM329 606c-14 0 -26 12 -26 26c0 15 12 27 26 27c15 0 27 -12 27 -27c0 -14 -12 -26 -27 -26zM281 541c156 0 251 -115 251 -278c0 -162 -95 -277 -251 -277s-251 115 -251 277
c0 163 95 278 251 278zM281 18c112 0 210 82 210 245c0 164 -98 246 -210 246s-209 -82 -209 -246c0 -163 97 -245 209 -245z" />
    <glyph glyph-name="ograve" unicode="&#xf2;" horiz-adv-x="562" 
d="M273 580l-73 110h41l60 -110h-28zM281 541c156 0 251 -115 251 -278c0 -162 -95 -277 -251 -277s-251 115 -251 277c0 163 95 278 251 278zM281 18c112 0 210 82 210 245c0 164 -98 246 -210 246s-209 -82 -209 -246c0 -163 97 -245 209 -245z" />
    <glyph glyph-name="ohungarumlaut" unicode="&#x151;" horiz-adv-x="562" 
d="M239 580h-28l60 110h41zM344 580h-28l60 110h41zM281 541c156 0 251 -115 251 -278c0 -162 -95 -277 -251 -277s-251 115 -251 277c0 163 95 278 251 278zM281 18c112 0 210 82 210 245c0 164 -98 246 -210 246s-209 -82 -209 -246c0 -163 97 -245 209 -245z" />
    <glyph glyph-name="omacron" unicode="&#x14d;" horiz-adv-x="562" 
d="M364 616h-165v29h165v-29zM281 541c156 0 251 -115 251 -278c0 -162 -95 -277 -251 -277s-251 115 -251 277c0 163 95 278 251 278zM281 18c112 0 210 82 210 245c0 164 -98 246 -210 246s-209 -82 -209 -246c0 -163 97 -245 209 -245z" />
    <glyph glyph-name="oslash" unicode="&#xf8;" horiz-adv-x="601" 
d="M575 516l-77 -77c31 -47 48 -107 48 -176c0 -162 -95 -277 -251 -277c-75 0 -135 26 -178 72l-69 -69l-22 22l71 71c-34 47 -53 109 -53 181c0 163 95 278 251 278c78 0 140 -29 184 -77l74 74zM86 263c0 -63 15 -114 39 -153l327 327c-39 48 -96 72 -157 72
c-112 0 -209 -82 -209 -246zM505 263c0 60 -13 110 -35 148l-326 -326c39 -45 93 -67 151 -67c113 0 210 82 210 245z" />
    <glyph glyph-name="otilde" unicode="&#xf5;" horiz-adv-x="562" 
d="M229 643c-10 0 -16 -5 -16 -20h-24c0 33 14 48 40 48c16 0 31 -4 58 -13c24 -8 37 -12 46 -12c10 0 16 6 16 21h25c0 -33 -14 -48 -40 -48c-17 0 -32 4 -59 13c-24 8 -37 11 -46 11zM281 541c156 0 251 -115 251 -278c0 -162 -95 -277 -251 -277s-251 115 -251 277
c0 163 95 278 251 278zM281 18c112 0 210 82 210 245c0 164 -98 246 -210 246s-209 -82 -209 -246c0 -163 97 -245 209 -245z" />
    <glyph glyph-name="oe" unicode="&#x153;" horiz-adv-x="989" 
d="M952 278c0 -5 0 -12 -2 -25h-418c5 -169 99 -235 191 -235c79 0 156 46 182 146h39c-29 -119 -121 -178 -224 -178c-93 0 -178 53 -211 169c-33 -109 -117 -169 -228 -169c-156 0 -251 115 -251 277c0 163 95 278 251 278c112 0 198 -60 231 -170c33 111 121 170 218 170
c150 0 222 -126 222 -263zM281 18c112 0 210 82 210 245c0 164 -98 246 -210 246s-209 -82 -209 -246c0 -163 97 -245 209 -245zM532 286h381c-6 164 -96 223 -185 223c-93 0 -190 -71 -196 -223z" />
    <glyph glyph-name="p" unicode="p" horiz-adv-x="561" 
d="M300 541c142 0 231 -114 231 -272c0 -189 -115 -283 -244 -283c-61 0 -108 18 -147 60l-30 62v-304h-38v729h38v-117l31 59c43 48 92 66 159 66zM287 18c118 0 202 97 202 245c0 134 -67 246 -193 246c-100 0 -186 -58 -186 -225v-52c0 -163 96 -214 177 -214z" />
    <glyph glyph-name="thorn" unicode="&#xfe;" horiz-adv-x="561" 
d="M300 541c142 0 231 -114 231 -272c0 -189 -115 -283 -244 -283c-61 0 -108 18 -147 60l-30 62v-304h-38v931h38v-319l31 59c43 48 92 66 159 66zM287 18c118 0 202 97 202 245c0 134 -67 246 -193 246c-100 0 -186 -58 -186 -225v-52c0 -163 96 -214 177 -214z" />
    <glyph glyph-name="q" unicode="q" horiz-adv-x="563" 
d="M490 533v-729h-38v310l-32 -62c-43 -48 -92 -66 -159 -66c-142 0 -231 114 -231 273c0 188 115 282 244 282c61 0 108 -18 147 -60l31 -63v115h38zM452 233v69l-1 -7c0 163 -96 214 -177 214c-118 0 -202 -97 -202 -245c0 -133 67 -246 193 -246c100 0 186 58 186 226z
" />
    <glyph glyph-name="r" unicode="r" horiz-adv-x="275" 
d="M245 541c10 0 19 -1 27 -3v-31c-95 7 -162 -55 -162 -215v-292h-38v527h38v-107l28 64c26 36 64 57 107 57z" />
    <glyph glyph-name="racute" unicode="&#x155;" horiz-adv-x="275" 
d="M153 580h-28l60 110h41zM245 541c10 0 19 -1 27 -3v-31c-95 7 -162 -55 -162 -215v-292h-38v527h38v-107l28 64c26 36 64 57 107 57z" />
    <glyph glyph-name="rcaron" unicode="&#x159;" horiz-adv-x="275" 
d="M127 580l-66 110h34l48 -86l48 86h33l-65 -110h-32zM245 541c10 0 19 -1 27 -3v-31c-95 7 -162 -55 -162 -215v-292h-38v527h38v-107l28 64c26 36 64 57 107 57z" />
    <glyph glyph-name="rcommaaccent" unicode="&#x157;" horiz-adv-x="275" 
d="M245 541c10 0 19 -1 27 -3v-31c-95 7 -162 -55 -162 -215v-292h-38v527h38v-107l28 64c26 36 64 57 107 57zM74 -51h36v-7l-52 -121h-29z" />
    <glyph glyph-name="s" unicode="s" horiz-adv-x="441" 
d="M218 541c112 0 169 -69 183 -159h-39c-20 85 -66 127 -146 127c-70 0 -127 -41 -127 -110s55 -96 136 -115c121 -28 181 -68 181 -157c0 -88 -77 -141 -182 -141c-101 0 -185 50 -198 170h39c16 -102 81 -138 162 -138c76 0 140 37 140 107c0 67 -41 97 -158 125
c-86 21 -159 56 -159 146c0 85 69 145 168 145z" />
    <glyph glyph-name="sacute" unicode="&#x15b;" horiz-adv-x="441" 
d="M229 580h-28l60 110h41zM218 541c112 0 169 -69 183 -159h-39c-20 85 -66 127 -146 127c-70 0 -127 -41 -127 -110s55 -96 136 -115c121 -28 181 -68 181 -157c0 -88 -77 -141 -182 -141c-101 0 -185 50 -198 170h39c16 -102 81 -138 162 -138c76 0 140 37 140 107
c0 67 -41 97 -158 125c-86 21 -159 56 -159 146c0 85 69 145 168 145z" />
    <glyph glyph-name="scaron" unicode="&#x161;" horiz-adv-x="441" 
d="M203 580l-66 110h34l48 -86l48 86h33l-65 -110h-32zM225 284c121 -28 181 -68 181 -157c0 -88 -77 -141 -182 -141c-101 0 -185 50 -198 170h39c16 -102 81 -138 162 -138c76 0 140 37 140 107c0 67 -41 97 -158 125c-86 21 -159 56 -159 146c0 85 69 145 168 145
c112 0 169 -69 183 -159h-39c-20 85 -66 127 -146 127c-70 0 -127 -41 -127 -110s55 -96 136 -115z" />
    <glyph glyph-name="scedilla" unicode="&#x15f;" horiz-adv-x="441" 
d="M406 127c0 -85 -72 -137 -171 -141l-18 -34c54 -6 86 -30 86 -79c0 -57 -51 -83 -106 -83c-21 0 -38 3 -52 10v27c15 -8 31 -11 53 -11c44 0 74 19 74 57s-30 59 -98 56l30 58c-92 6 -166 57 -178 169h39c16 -102 81 -138 162 -138c76 0 140 37 140 107
c0 67 -41 97 -158 125c-86 21 -159 56 -159 146c0 85 69 145 168 145c112 0 169 -69 183 -159h-39c-20 85 -66 127 -146 127c-70 0 -127 -41 -127 -110s55 -96 136 -115c121 -28 181 -68 181 -157z" />
    <glyph glyph-name="scommaaccent" unicode="&#x219;" horiz-adv-x="441" 
d="M218 541c112 0 169 -69 183 -159h-39c-20 85 -66 127 -146 127c-70 0 -127 -41 -127 -110s55 -96 136 -115c121 -28 181 -68 181 -157c0 -88 -77 -141 -182 -141c-101 0 -185 50 -198 170h39c16 -102 81 -138 162 -138c76 0 140 37 140 107c0 67 -41 97 -158 125
c-86 21 -159 56 -159 146c0 85 69 145 168 145zM247 -58l-52 -121h-29l45 128h36v-7z" />
    <glyph glyph-name="germandbls" unicode="&#xdf;" horiz-adv-x="552" 
d="M283 754c105 0 188 -62 188 -167c0 -35 -8 -66 -32 -103c-56 -27 -86 -51 -86 -90c0 -36 14 -61 60 -101c64 -55 95 -100 95 -158c0 -88 -70 -139 -179 -139c-33 0 -66 2 -105 10v35c41 -10 74 -13 104 -13c86 0 138 39 138 106c0 41 -16 73 -80 132
c-60 54 -75 81 -75 128c0 51 33 81 97 114c15 24 21 51 21 78c0 86 -63 135 -149 135c-91 0 -160 -60 -168 -171c-1 -14 -2 -33 -2 -59v-491h-38v488c0 20 1 46 2 64c7 131 96 202 209 202z" />
    <glyph glyph-name="t" unicode="t" horiz-adv-x="255" 
d="M130 82c4 -52 27 -67 102 -56v-30c-16 -2 -37 -3 -56 -3c-52 0 -79 23 -83 74c-2 22 -2 40 -2 70v356h-65v30h65v112h38v-112h102v-30h-102v-358c0 -26 0 -39 1 -53z" />
    <glyph glyph-name="tbar" unicode="&#x167;" horiz-adv-x="255" 
d="M130 82c4 -52 27 -67 102 -56v-30c-16 -2 -37 -3 -56 -3c-52 0 -79 23 -83 74c-2 22 -2 40 -2 70v184h-59v29h59v143h-65v30h65v112h38v-112h102v-30h-102v-143h68v-29h-68v-186c0 -26 0 -39 1 -53z" />
    <glyph glyph-name="tcaron" unicode="&#x165;" horiz-adv-x="242" 
d="M260 734v-6l-52 -121h-29l45 127h36zM130 82c4 -52 27 -67 102 -56v-30c-16 -2 -37 -3 -56 -3c-52 0 -79 23 -83 74c-2 22 -2 40 -2 70v356h-65v30h65v112h38v-112h102v-30h-102v-358c0 -26 0 -39 1 -53z" />
    <glyph glyph-name="tcedilla" unicode="&#x163;" horiz-adv-x="255" 
d="M173 -7l-22 -41c54 -6 86 -30 86 -79c0 -57 -51 -83 -106 -83c-21 0 -38 3 -52 10v27c15 -8 31 -11 53 -11c44 0 74 19 74 57s-30 59 -98 56l35 68c-30 8 -47 31 -50 70c-2 22 -2 40 -2 70v356h-65v30h65v112h38v-112h102v-30h-102v-358c0 -26 0 -39 1 -53
c4 -52 27 -67 102 -56v-30c-16 -2 -37 -3 -56 -3h-3z" />
    <glyph glyph-name="uni021B" unicode="&#x21b;" horiz-adv-x="255" 
d="M130 82c4 -52 27 -67 102 -56v-30c-16 -2 -37 -3 -56 -3c-52 0 -79 23 -83 74c-2 22 -2 40 -2 70v356h-65v30h65v112h38v-112h102v-30h-102v-358c0 -26 0 -39 1 -53zM145 -51h36v-7l-52 -121h-29z" />
    <glyph glyph-name="u" unicode="u" 
d="M470 527v-527h-38v113l-24 -55c-41 -49 -96 -72 -158 -72c-107 0 -171 60 -183 155c-3 27 -4 45 -4 88v298h38v-288c0 -32 1 -56 4 -83c10 -82 57 -137 150 -137s177 66 177 216v292h38z" />
    <glyph glyph-name="uacute" unicode="&#xfa;" 
d="M277 580h-28l60 110h41zM470 527v-527h-38v113l-24 -55c-41 -49 -96 -72 -158 -72c-107 0 -171 60 -183 155c-3 27 -4 45 -4 88v298h38v-288c0 -32 1 -56 4 -83c10 -82 57 -137 150 -137s177 66 177 216v292h38z" />
    <glyph glyph-name="ucircumflex" unicode="&#xfb;" 
d="M218 580h-33l66 110h32l65 -110h-34l-48 86zM470 527v-527h-38v113l-24 -55c-41 -49 -96 -72 -158 -72c-107 0 -171 60 -183 155c-3 27 -4 45 -4 88v298h38v-288c0 -32 1 -56 4 -83c10 -82 57 -137 150 -137s177 66 177 216v292h38z" />
    <glyph glyph-name="udieresis" unicode="&#xfc;" 
d="M218 606c-15 0 -27 12 -27 26c0 15 12 27 27 27c14 0 26 -12 26 -27c0 -14 -12 -26 -26 -26zM314 606c-14 0 -26 12 -26 26c0 15 12 27 26 27c15 0 27 -12 27 -27c0 -14 -12 -26 -27 -26zM470 527v-527h-38v113l-24 -55c-41 -49 -96 -72 -158 -72
c-107 0 -171 60 -183 155c-3 27 -4 45 -4 88v298h38v-288c0 -32 1 -56 4 -83c10 -82 57 -137 150 -137s177 66 177 216v292h38z" />
    <glyph glyph-name="ugrave" unicode="&#xf9;" 
d="M247 580l-73 110h41l60 -110h-28zM470 527v-527h-38v113l-24 -55c-41 -49 -96 -72 -158 -72c-107 0 -171 60 -183 155c-3 27 -4 45 -4 88v298h38v-288c0 -32 1 -56 4 -83c10 -82 57 -137 150 -137s177 66 177 216v292h38z" />
    <glyph glyph-name="uhungarumlaut" unicode="&#x171;" 
d="M224 580h-28l60 110h41zM329 580h-28l60 110h41zM470 527v-527h-38v113l-24 -55c-41 -49 -96 -72 -158 -72c-107 0 -171 60 -183 155c-3 27 -4 45 -4 88v298h38v-288c0 -32 1 -56 4 -83c10 -82 57 -137 150 -137s177 66 177 216v292h38z" />
    <glyph glyph-name="umacron" unicode="&#x16b;" 
d="M349 616h-165v29h165v-29zM470 527v-527h-38v113l-24 -55c-41 -49 -96 -72 -158 -72c-107 0 -171 60 -183 155c-3 27 -4 45 -4 88v298h38v-288c0 -32 1 -56 4 -83c10 -82 57 -137 150 -137s177 66 177 216v292h38z" />
    <glyph glyph-name="uogonek" unicode="&#x173;" 
d="M470 527v-527h-12c-67 -17 -115 -77 -115 -143c0 -37 18 -52 45 -52c22 0 42 9 63 29v-30c-21 -18 -45 -27 -74 -27c-38 0 -71 17 -71 73c0 74 52 139 126 163v100l-24 -55c-41 -49 -96 -72 -158 -72c-107 0 -171 60 -183 155c-3 27 -4 45 -4 88v298h38v-288
c0 -32 1 -56 4 -83c10 -82 57 -137 150 -137s177 66 177 216v292h38z" />
    <glyph glyph-name="uring" unicode="&#x16f;" 
d="M266 570c-39 0 -69 27 -69 68s30 67 69 67s69 -26 69 -67s-30 -68 -69 -68zM266 681c-25 0 -39 -19 -39 -43s14 -43 39 -43s40 19 40 43s-15 43 -40 43zM470 527v-527h-38v113l-24 -55c-41 -49 -96 -72 -158 -72c-107 0 -171 60 -183 155c-3 27 -4 45 -4 88v298h38v-288
c0 -32 1 -56 4 -83c10 -82 57 -137 150 -137s177 66 177 216v292h38z" />
    <glyph glyph-name="v" unicode="v" horiz-adv-x="480" 
d="M472 527l-206 -527h-50l-206 527h43l189 -498l189 498h41z" />
    <glyph glyph-name="w" unicode="w" horiz-adv-x="733" 
d="M726 527l-167 -527h-46l-142 487l-142 -487h-51l-168 527h44l150 -490l142 489h50l143 -487l146 488h41z" />
    <glyph glyph-name="wacute" unicode="&#x1e83;" horiz-adv-x="733" 
d="M381 580h-28l60 110h41zM726 527l-167 -527h-46l-142 487l-142 -487h-51l-168 527h44l150 -490l142 489h50l143 -487l146 488h41z" />
    <glyph glyph-name="wcircumflex" unicode="&#x175;" horiz-adv-x="733" 
d="M322 580h-33l66 110h32l65 -110h-34l-48 86zM726 527l-167 -527h-46l-142 487l-142 -487h-51l-168 527h44l150 -490l142 489h50l143 -487l146 488h41z" />
    <glyph glyph-name="wdieresis" unicode="&#x1e85;" horiz-adv-x="733" 
d="M322 606c-15 0 -27 12 -27 26c0 15 12 27 27 27c14 0 26 -12 26 -27c0 -14 -12 -26 -26 -26zM418 606c-14 0 -26 12 -26 26c0 15 12 27 26 27c15 0 27 -12 27 -27c0 -14 -12 -26 -27 -26zM726 527l-167 -527h-46l-142 487l-142 -487h-51l-168 527h44l150 -490l142 489h50
l143 -487l146 488h41z" />
    <glyph glyph-name="wgrave" unicode="&#x1e81;" horiz-adv-x="733" 
d="M361 580l-73 110h41l60 -110h-28zM726 527l-167 -527h-46l-142 487l-142 -487h-51l-168 527h44l150 -490l142 489h50l143 -487l146 488h41z" />
    <glyph glyph-name="x" unicode="x" horiz-adv-x="433" 
d="M234 266l187 -266h-46l-163 240l-166 -240h-45l188 265l-180 262h45l159 -236l162 236h45z" />
    <glyph glyph-name="y" unicode="y" horiz-adv-x="471" 
d="M464 527l-207 -538c-64 -167 -110 -199 -175 -199c-15 0 -26 1 -37 3v33c13 -3 25 -3 37 -3c43 0 80 26 121 126l15 38l-208 540h43l184 -497l184 497h43z" />
    <glyph glyph-name="yacute" unicode="&#xfd;" horiz-adv-x="471" 
d="M248 580h-28l60 110h41zM464 527l-207 -538c-64 -167 -110 -199 -175 -199c-15 0 -26 1 -37 3v33c13 -3 25 -3 37 -3c43 0 80 26 121 126l15 38l-208 540h43l184 -497l184 497h43z" />
    <glyph glyph-name="ycircumflex" unicode="&#x177;" horiz-adv-x="471" 
d="M189 580h-33l66 110h32l65 -110h-34l-48 86zM464 527l-207 -538c-64 -167 -110 -199 -175 -199c-15 0 -26 1 -37 3v33c13 -3 25 -3 37 -3c43 0 80 26 121 126l15 38l-208 540h43l184 -497l184 497h43z" />
    <glyph glyph-name="ydieresis" unicode="&#xff;" horiz-adv-x="471" 
d="M189 606c-15 0 -27 12 -27 26c0 15 12 27 27 27c14 0 26 -12 26 -27c0 -14 -12 -26 -26 -26zM285 606c-14 0 -26 12 -26 26c0 15 12 27 26 27c15 0 27 -12 27 -27c0 -14 -12 -26 -27 -26zM464 527l-207 -538c-64 -167 -110 -199 -175 -199c-15 0 -26 1 -37 3v33
c13 -3 25 -3 37 -3c43 0 80 26 121 126l15 38l-208 540h43l184 -497l184 497h43z" />
    <glyph glyph-name="ygrave" unicode="&#x1ef3;" horiz-adv-x="471" 
d="M227 580l-73 110h41l60 -110h-28zM464 527l-207 -538c-64 -167 -110 -199 -175 -199c-15 0 -26 1 -37 3v33c13 -3 25 -3 37 -3c43 0 80 26 121 126l15 38l-208 540h43l184 -497l184 497h43z" />
    <glyph glyph-name="z" unicode="z" horiz-adv-x="449" 
d="M425 31v-31h-410v30l359 457h-333v33h380v-32l-360 -457h364z" />
    <glyph glyph-name="zacute" unicode="&#x17a;" horiz-adv-x="449" 
d="M235 580h-28l60 110h41zM425 31v-31h-410v30l359 457h-333v33h380v-32l-360 -457h364z" />
    <glyph glyph-name="zcaron" unicode="&#x17e;" horiz-adv-x="449" 
d="M209 580l-66 110h34l48 -86l48 86h33l-65 -110h-32zM425 31v-31h-410v30l359 457h-333v33h380v-32l-360 -457h364z" />
    <glyph glyph-name="zdotaccent" unicode="&#x17c;" horiz-adv-x="449" 
d="M224 608c-16 0 -29 13 -29 29s13 29 29 29s29 -13 29 -29s-13 -29 -29 -29zM425 31v-31h-410v30l359 457h-333v33h380v-32l-360 -457h364z" />
    <glyph glyph-name="zero" unicode="0" 
d="M271 704c172 0 234 -151 234 -359s-62 -359 -234 -359c-171 0 -234 152 -234 359c0 209 63 359 234 359zM271 19c143 0 192 138 192 326s-49 326 -192 326c-142 0 -192 -137 -192 -326c0 -187 50 -326 192 -326z" />
    <glyph glyph-name="one" unicode="1" 
d="M363 690v-690h-38v649l-190 -116v41l156 98c25 15 36 18 50 18h22z" />
    <glyph glyph-name="two" unicode="2" 
d="M492 33v-33h-447v24l242 238c120 118 160 176 160 251c0 88 -56 158 -158 158c-100 0 -167 -68 -178 -176l-1 -10h-38l1 10c13 129 99 209 218 209c132 0 198 -85 198 -188c0 -90 -58 -164 -176 -278l-211 -205h390z" />
    <glyph glyph-name="three" unicode="3" 
d="M346 360c95 -18 154 -75 154 -175c0 -124 -102 -199 -231 -199c-123 0 -209 69 -223 208l-1 10h38l1 -10c11 -105 78 -175 187 -175c107 0 187 59 187 165c0 89 -61 152 -197 152h-17v33h17c89 0 184 58 184 158c0 96 -67 144 -155 144c-96 0 -165 -59 -176 -164l-1 -10
h-38l1 10c12 124 99 197 217 197c125 0 194 -74 194 -173c0 -84 -60 -152 -141 -171z" />
    <glyph glyph-name="four" unicode="4" 
d="M515 194h-96v-194h-38v194h-357v22l361 474h34v-463h96v-33zM381 227v409c-19 -30 -47 -68 -82 -113l-225 -296h307z" />
    <glyph glyph-name="five" unicode="5" 
d="M283 438c135 0 212 -97 212 -224c0 -144 -107 -228 -229 -228c-106 0 -199 58 -213 193l-1 10h38l1 -10c12 -94 73 -160 175 -160c95 0 187 62 187 193c0 118 -71 193 -175 193c-77 0 -139 -33 -176 -111h-37l61 393h360v-33h-328l-51 -308l39 48c39 28 82 44 137 44z
" />
    <glyph glyph-name="six" unicode="6" 
d="M282 460c143 0 222 -107 222 -238c0 -133 -96 -236 -233 -236c-140 0 -228 91 -228 316c0 284 100 402 248 402c121 0 182 -69 201 -178l2 -10h-39l-2 10c-20 98 -73 145 -163 145c-107 0 -203 -68 -209 -353l25 54c43 58 104 88 176 88zM272 19c115 0 190 88 190 200
c0 119 -69 208 -185 208c-104 0 -189 -79 -189 -194c0 -119 67 -214 184 -214z" />
    <glyph glyph-name="seven" unicode="7" 
d="M507 690v-18l-359 -672h-42l352 657h-412v33h461z" />
    <glyph glyph-name="eight" unicode="8" 
d="M361 361c90 -24 141 -91 141 -181c0 -130 -110 -195 -231 -195c-129 0 -231 65 -231 195c0 90 60 157 151 180c-73 22 -118 82 -118 163c0 102 75 181 206 181c135 0 205 -79 205 -181c0 -81 -49 -142 -123 -162zM115 523c0 -100 78 -148 164 -148s164 48 164 148
c0 89 -62 148 -164 148s-164 -59 -164 -148zM273 18c94 0 187 52 187 161c0 93 -60 163 -185 163s-193 -70 -193 -163c0 -109 92 -161 191 -161z" />
    <glyph glyph-name="nine" unicode="9" 
d="M271 704c141 0 229 -91 229 -316c0 -277 -99 -402 -248 -402c-121 0 -182 69 -202 179l-1 10h39l2 -10c20 -99 74 -146 164 -146c105 0 200 75 207 351l-25 -52c-42 -58 -103 -88 -175 -88c-143 0 -222 108 -222 238c0 133 95 236 232 236zM266 263c104 0 188 79 188 194
c0 119 -66 214 -183 214c-116 0 -190 -88 -190 -200c0 -118 69 -208 185 -208z" />
    <glyph glyph-name="fraction" unicode="&#x2044;" horiz-adv-x="114" 
d="M-146 0h-42l448 690h41z" />
    <glyph glyph-name="asterisk" unicode="*" horiz-adv-x="538" 
d="M281 284l158 58l10 -31l-160 -49l113 -147l-27 -19l-106 153l-106 -153l-27 19l113 147l-160 49l10 31l158 -58l-5 190h34z" />
    <glyph glyph-name="backslash" unicode="\" horiz-adv-x="273" 
d="M278 -30h-32l-251 750h32z" />
    <glyph glyph-name="bullet" unicode="&#x2022;" horiz-adv-x="222" 
d="M111 365c34 0 60 -26 60 -60s-26 -60 -60 -60s-60 26 -60 60s26 60 60 60z" />
    <glyph glyph-name="colon" unicode=":" horiz-adv-x="168" 
d="M70 541c18 0 31 -13 31 -31c0 -17 -13 -31 -31 -31c-17 0 -31 14 -31 31c0 18 14 31 31 31zM70 48c18 0 31 -13 31 -31s-13 -31 -31 -31c-17 0 -31 13 -31 31s14 31 31 31z" />
    <glyph glyph-name="comma" unicode="," horiz-adv-x="168" 
d="M86 37l-61 -154h-34l54 160h40z" />
    <glyph glyph-name="ellipsis" unicode="&#x2026;" horiz-adv-x="418" 
d="M70 48c18 0 31 -13 31 -31s-13 -31 -31 -31c-17 0 -31 13 -31 31s14 31 31 31zM195 48c18 0 31 -13 31 -31s-13 -31 -31 -31c-17 0 -31 13 -31 31s14 31 31 31zM320 48c18 0 31 -13 31 -31s-13 -31 -31 -31c-17 0 -31 13 -31 31s14 31 31 31z" />
    <glyph glyph-name="exclam" unicode="!" horiz-adv-x="212" 
d="M123 128h-34l-6 562h46zM106 48c18 0 31 -13 31 -31s-13 -31 -31 -31c-17 0 -31 13 -31 31s14 31 31 31z" />
    <glyph glyph-name="exclamdown" unicode="&#xa1;" horiz-adv-x="212" 
d="M106 482c-17 0 -31 14 -31 31c0 18 14 31 31 31c18 0 31 -13 31 -31c0 -17 -13 -31 -31 -31zM89 403h34l6 -563h-46z" />
    <glyph glyph-name="numbersign" unicode="#" 
d="M371 422l-33 -154h116v-29h-122l-51 -239h-30l51 239h-106l-51 -239h-30l51 239h-107v29h113l33 154h-116v30h122l51 238h30l-51 -238h106l51 238h30l-51 -238h107v-30h-113zM341 422h-106l-33 -154h106z" />
    <glyph glyph-name="period" unicode="." horiz-adv-x="168" 
d="M70 48c18 0 31 -13 31 -31s-13 -31 -31 -31c-17 0 -31 13 -31 31s14 31 31 31z" />
    <glyph glyph-name="periodcentered" unicode="&#xb7;" horiz-adv-x="153" 
d="M76 339c20 0 34 -14 34 -34c0 -19 -14 -34 -34 -34c-19 0 -33 15 -33 34c0 20 14 34 33 34z" />
    <glyph glyph-name="question" unicode="?" horiz-adv-x="516" 
d="M259 704c128 0 196 -79 196 -179c0 -71 -37 -134 -96 -191c-84 -81 -99 -118 -100 -206h-36c2 97 16 135 102 221c62 63 88 113 88 176c0 91 -61 146 -154 146c-105 0 -166 -69 -174 -177h-39c5 125 91 210 213 210zM242 48c17 0 31 -13 31 -31s-14 -31 -31 -31
c-18 0 -31 13 -31 31s13 31 31 31z" />
    <glyph glyph-name="questiondown" unicode="&#xbf;" horiz-adv-x="477" 
d="M283 478c-17 0 -31 14 -31 31c0 18 14 31 31 31c18 0 31 -13 31 -31c0 -17 -13 -31 -31 -31zM266 -178c-127 0 -195 79 -195 180c0 70 36 133 96 191c83 80 98 118 99 206h36c-2 -97 -16 -135 -102 -222c-61 -63 -87 -112 -87 -175c0 -92 61 -147 154 -147
c104 0 165 69 173 177h39c-5 -125 -90 -210 -213 -210z" />
    <glyph glyph-name="quotedbl" unicode="&#x22;" horiz-adv-x="197" 
d="M72 490h-30l-5 245h39zM161 490h-30l-5 245h39z" />
    <glyph glyph-name="quotesingle" unicode="'" horiz-adv-x="103" 
d="M61 490h-30l-4 245h39z" />
    <glyph glyph-name="semicolon" unicode=";" horiz-adv-x="168" 
d="M70 541c18 0 31 -13 31 -31c0 -17 -13 -31 -31 -31c-17 0 -31 14 -31 31c0 18 14 31 31 31zM86 39l-60 -156h-35l54 163h41v-7z" />
    <glyph glyph-name="slash" unicode="/" horiz-adv-x="273" 
d="M27 -30h-32l251 750h32z" />
    <glyph glyph-name="underscore" unicode="_" horiz-adv-x="500" 
d="M450 -82h-400v30h400v-30z" />
    <glyph glyph-name="braceleft" unicode="{" horiz-adv-x="298" 
d="M281 750h-17c-61 0 -99 -20 -99 -79c0 -23 3 -39 11 -96c9 -67 11 -96 11 -121c0 -44 -20 -91 -79 -103c58 -13 79 -61 79 -105c0 -24 -2 -54 -11 -121c-8 -56 -11 -73 -11 -96c0 -59 38 -79 99 -79h17v-30h-16c-78 0 -131 27 -131 110c0 21 2 42 12 105
c8 57 10 85 10 110c0 44 -21 84 -81 90v30c60 6 81 46 81 90c0 25 -2 53 -10 110c-10 64 -12 84 -12 105c0 83 53 110 131 110h16v-30z" />
    <glyph glyph-name="braceright" unicode="}" horiz-adv-x="298" 
d="M142 455c0 -44 21 -84 81 -90v-30c-60 -6 -81 -46 -81 -90c0 -25 2 -53 10 -110c10 -63 12 -84 12 -105c0 -83 -53 -110 -131 -110h-16v30h17c61 0 99 20 99 79c0 23 -3 40 -11 96c-9 67 -11 97 -11 121c0 44 20 91 79 103c-58 13 -79 62 -79 105c0 25 2 54 11 121
c8 57 11 73 11 96c0 59 -38 79 -99 79h-17v30h16c78 0 131 -27 131 -110c0 -21 -2 -41 -12 -105c-8 -57 -10 -85 -10 -110z" />
    <glyph glyph-name="bracketleft" unicode="[" horiz-adv-x="310" 
d="M279 780v-30h-124v-800h124v-30h-155v860h155z" />
    <glyph glyph-name="bracketright" unicode="]" horiz-adv-x="307" 
d="M184 -80h-156v30h125v800h-125v30h156v-860z" />
    <glyph glyph-name="parenleft" unicode="(" horiz-adv-x="299" 
d="M233 780h31c-72 -120 -115 -272 -115 -430c0 -157 43 -310 115 -430h-31c-71 108 -117 272 -117 430s46 322 117 430z" />
    <glyph glyph-name="parenright" unicode=")" horiz-adv-x="299" 
d="M33 780h31c71 -108 117 -272 117 -430s-46 -322 -117 -430h-31c73 120 115 273 115 430c0 158 -42 310 -115 430z" />
    <glyph glyph-name="emdash" unicode="&#x2014;" horiz-adv-x="1000" 
d="M930 276h-860v30h860v-30z" />
    <glyph glyph-name="endash" unicode="&#x2013;" horiz-adv-x="500" 
d="M430 276h-360v30h360v-30z" />
    <glyph glyph-name="hyphen" unicode="-" horiz-adv-x="274" 
d="M242 267h-210v30h210v-30z" />
    <glyph glyph-name="guillemotleft" unicode="&#xab;" horiz-adv-x="516" 
d="M311 414l-137 -166l137 -166h-40l-137 166l137 166h40zM444 414l-137 -166l137 -166h-40l-137 166l137 166h40z" />
    <glyph glyph-name="guillemotright" unicode="&#xbb;" horiz-adv-x="516" 
d="M249 248l-137 -166h-40l137 166l-137 166h40zM382 248l-137 -166h-40l137 166l-137 166h40z" />
    <glyph glyph-name="guilsinglleft" unicode="&#x2039;" horiz-adv-x="383" 
d="M311 414l-137 -166l137 -166h-40l-137 166l137 166h40z" />
    <glyph glyph-name="guilsinglright" unicode="&#x203a;" horiz-adv-x="383" 
d="M249 248l-137 -166h-40l137 166l-137 166h40z" />
    <glyph glyph-name="quotedblbase" unicode="&#x201e;" horiz-adv-x="263" 
d="M86 37l-61 -154h-34l54 160h40zM181 37l-61 -154h-34l54 160h40z" />
    <glyph glyph-name="quotedblleft" unicode="&#x201c;" horiz-adv-x="257" 
d="M24 496l79 240h34l-72 -246h-40zM134 496l79 240h34l-72 -246h-40z" />
    <glyph glyph-name="quotedblright" unicode="&#x201d;" horiz-adv-x="257" 
d="M123 729l-79 -239h-34l72 245h41v-6zM233 729l-79 -239h-34l72 245h41v-6z" />
    <glyph glyph-name="quoteleft" unicode="&#x2018;" horiz-adv-x="147" 
d="M24 496l79 239h34l-72 -245h-40z" />
    <glyph glyph-name="quoteright" unicode="&#x2019;" horiz-adv-x="147" 
d="M123 729l-79 -239h-34l72 245h41v-6z" />
    <glyph glyph-name="quotesinglbase" unicode="&#x201a;" horiz-adv-x="168" 
d="M86 37l-61 -154h-34l54 160h40z" />
    <glyph glyph-name="space" unicode=" " horiz-adv-x="192" 
 />
    <glyph glyph-name="cent" unicode="&#xa2;" horiz-adv-x="538" 
d="M295 513v-495c80 6 144 55 163 142h39c-21 -104 -99 -167 -202 -173v-77h-31v76c-123 7 -219 106 -219 279c0 161 98 266 219 278v77h31v-76c113 -3 191 -75 206 -181h-39c-16 90 -74 146 -167 150zM86 270c0 -162 85 -243 178 -251v493c-88 -12 -178 -92 -178 -242z" />
    <glyph glyph-name="currency" unicode="&#xa4;" 
d="M448 301c0 -45 -15 -86 -40 -117l58 -58l-23 -22l-57 58c-31 -26 -71 -41 -115 -41s-84 15 -114 41l-57 -58l-23 23l58 57c-26 31 -41 71 -41 117s15 86 41 117l-58 58l23 22l57 -57c31 25 70 40 114 40s84 -15 114 -41l58 58l23 -22l-58 -58c25 -31 40 -72 40 -117z
M271 151c84 0 144 65 144 150s-60 150 -144 150c-83 0 -143 -65 -143 -150s60 -150 143 -150z" />
    <glyph glyph-name="dollar" unicode="$" 
d="M296 671v-306c128 -38 193 -102 193 -203c0 -94 -72 -170 -193 -176v-76h-31v76c-112 6 -202 71 -213 196h40c11 -99 78 -156 173 -162v309c-100 28 -184 77 -184 193c0 108 80 174 184 181v77h31v-76c119 -6 180 -90 193 -191h-39c-11 94 -65 153 -154 158zM122 525
c0 -93 60 -130 143 -155v300c-77 -6 -143 -54 -143 -145zM296 323v-304c96 5 152 59 152 139c0 82 -50 133 -152 165z" />
    <glyph glyph-name="Euro" unicode="&#x20ac;" 
d="M347 671c-107 0 -208 -68 -228 -256h352l-11 -30h-343c-1 -13 -1 -26 -1 -39c0 -14 0 -28 1 -41h319l-9 -30h-308c16 -178 97 -256 230 -256c52 0 98 12 142 40v-36c-49 -28 -98 -37 -147 -37c-156 0 -251 86 -267 289h-72l10 30h60l-1 37c0 15 0 29 1 43h-47l10 30h40
c21 196 129 289 271 289c74 0 122 -18 163 -60l-21 -27c-39 40 -82 54 -144 54z" />
    <glyph glyph-name="sterling" unicode="&#xa3;" 
d="M485 33v-33h-427v31c79 21 145 80 145 173c0 48 -15 87 -46 139h-90v30h73c-25 45 -43 89 -43 145c0 111 85 186 193 186c128 0 186 -83 194 -196h-40c-8 106 -60 163 -156 163c-83 0 -149 -62 -149 -148c0 -53 16 -94 47 -150h230v-30h-213c27 -47 40 -92 40 -135
c0 -78 -39 -137 -116 -175h358z" />
    <glyph glyph-name="yen" unicode="&#xa5;" 
d="M309 346h160v-30h-178l-1 -1v-74h179v-30h-179v-211h-38v211h-178v30h178v74l-1 1h-177v30h159l-211 344h49l201 -341l201 341h47z" />
    <glyph glyph-name="approxequal" unicode="&#x2248;" 
d="M168 440c36 0 61 -11 111 -38c46 -24 66 -33 97 -33c43 0 66 16 93 59l22 -18c-29 -49 -66 -72 -116 -72c-36 0 -60 11 -111 38c-46 24 -66 33 -97 33c-43 0 -65 -16 -93 -58l-22 18c29 49 66 71 116 71zM168 265c36 0 61 -11 111 -38c46 -24 66 -33 97 -33
c43 0 66 16 93 59l22 -18c-29 -49 -66 -72 -116 -72c-36 0 -60 11 -111 38c-46 24 -66 33 -97 33c-43 0 -65 -16 -93 -58l-22 18c29 49 66 71 116 71z" />
    <glyph glyph-name="asciitilde" unicode="~" 
d="M452 352h30c0 -84 -34 -121 -93 -121c-37 0 -59 8 -126 45c-56 31 -81 43 -112 43c-43 0 -60 -33 -60 -91h-30c0 83 34 121 92 121c39 0 61 -10 127 -46c58 -32 82 -42 111 -42c44 0 61 32 61 91z" />
    <glyph glyph-name="divide" unicode="&#xf7;" 
d="M272 507c19 0 33 -14 33 -34c0 -19 -14 -33 -33 -33s-34 14 -34 33c0 20 15 34 34 34zM474 303h-405v30h405v-30zM272 194c19 0 33 -14 33 -33s-14 -34 -33 -34s-34 15 -34 34s15 33 34 33z" />
    <glyph glyph-name="emptyset" unicode="&#x2205;" horiz-adv-x="838" 
d="M776 690l-83 -83c59 -66 95 -154 95 -252c0 -212 -167 -375 -369 -375c-97 0 -186 38 -253 100l-82 -82l-22 22l83 83c-59 66 -95 154 -95 252c0 212 167 375 369 375c97 0 186 -38 253 -100l82 82zM84 355c0 -89 32 -169 84 -229l481 481c-60 58 -141 93 -230 93
c-184 0 -335 -150 -335 -345zM419 11c184 0 335 149 335 344c0 89 -32 169 -84 229l-481 -481c60 -57 141 -92 230 -92z" />
    <glyph glyph-name="equal" unicode="=" 
d="M481 395h-420v29h420v-29zM481 210h-420v29h420v-29z" />
    <glyph glyph-name="greater" unicode="&#x3e;" 
d="M462 281v-32l-401 -196v35l364 177l-364 176v37z" />
    <glyph glyph-name="greaterequal" unicode="&#x2265;" 
d="M466 299v-32l-405 -174v35l370 155l-370 155v35zM61 30h405v-30h-405v30z" />
    <glyph glyph-name="infinity" unicode="&#x221e;" horiz-adv-x="992" 
d="M727 544c146 0 235 -117 235 -280c0 -162 -89 -278 -235 -278c-112 0 -192 68 -232 205c-37 -137 -116 -205 -230 -205c-146 0 -235 116 -235 278c0 163 89 280 235 280c111 0 193 -67 232 -204c36 134 116 204 230 204zM265 18c91 0 190 63 207 247
c-27 184 -116 247 -207 247c-100 0 -193 -84 -193 -248c0 -163 93 -246 193 -246zM727 18c100 0 194 83 194 246c0 164 -94 248 -194 248c-91 0 -191 -63 -207 -247c26 -184 116 -247 207 -247z" />
    <glyph glyph-name="integral" unicode="&#x222b;" 
d="M306 754c24 0 47 -8 65 -26l-14 -25c-16 17 -33 21 -51 21c-38 0 -67 -40 -67 -137c0 -49 5 -106 40 -286c31 -163 41 -230 41 -298c0 -120 -50 -163 -101 -163c-24 0 -47 8 -65 26l14 25c17 -17 33 -21 51 -21c39 0 68 40 68 137c0 49 -6 106 -40 286
c-31 164 -42 230 -42 299c0 119 50 162 101 162z" />
    <glyph glyph-name="less" unicode="&#x3c;" 
d="M480 442l-363 -176l363 -177v-36l-401 196v32l401 197v-36z" />
    <glyph glyph-name="lessequal" unicode="&#x2264;" 
d="M482 438l-369 -155l369 -154v-36l-405 174v32l405 174v-35zM77 30h405v-30h-405v30z" />
    <glyph glyph-name="logicalnot" unicode="&#xac;" 
d="M445 210h-31v130h-324v30h355v-160z" />
    <glyph glyph-name="minus" unicode="&#x2212;" 
d="M474 303h-405v30h405v-30z" />
    <glyph glyph-name="multiply" unicode="&#xd7;" 
d="M294 314l147 -148l-22 -22l-147 148l-148 -148l-22 22l148 148l-148 147l22 22l148 -147l147 147l22 -22z" />
    <glyph glyph-name="notequal" unicode="&#x2260;" 
d="M334 395l-91 -156h238v-29h-255l-63 -108h-35l63 108h-130v29h147l91 156h-238v29h255l63 108h35l-63 -108h130v-29h-147z" />
    <glyph glyph-name="partialdiff" unicode="&#x2202;" 
d="M248 758c182 0 233 -195 233 -428c0 -222 -75 -344 -228 -344c-118 0 -204 90 -204 228c0 151 90 252 226 252c77 0 135 -39 165 -93c-5 191 -53 353 -195 353c-57 0 -97 -15 -141 -51l-19 25c50 42 99 58 163 58zM255 18c120 0 182 97 185 306c-36 79 -100 110 -163 110
c-117 0 -187 -90 -187 -217s72 -199 165 -199z" />
    <glyph glyph-name="percent" unicode="%" horiz-adv-x="709" 
d="M197 703c82 0 133 -67 133 -159c0 -90 -51 -159 -133 -159c-83 0 -133 69 -133 159c0 92 50 159 133 159zM152 0h-41l447 690h41zM197 672c-61 0 -94 -51 -94 -128c0 -76 33 -128 94 -128c60 0 94 52 94 128c0 77 -34 128 -94 128zM513 304c82 0 133 -67 133 -159
c0 -90 -51 -159 -133 -159c-83 0 -133 69 -133 159c0 92 50 159 133 159zM513 273c-61 0 -94 -51 -94 -128c0 -76 33 -128 94 -128c60 0 94 52 94 128c0 77 -34 128 -94 128z" />
    <glyph glyph-name="perthousand" unicode="&#x2030;" horiz-adv-x="1024" 
d="M330 544c0 -90 -51 -159 -133 -159c-83 0 -133 69 -133 159c0 92 50 159 133 159c82 0 133 -67 133 -159zM599 690l-447 -690h-41l447 690h41zM103 544c0 -76 33 -128 94 -128c60 0 94 52 94 128c0 77 -34 128 -94 128c-61 0 -94 -51 -94 -128zM513 304
c82 0 133 -67 133 -159c0 -90 -51 -159 -133 -159c-83 0 -133 69 -133 159c0 92 50 159 133 159zM827 304c83 0 133 -67 133 -159c0 -90 -50 -159 -133 -159c-82 0 -133 69 -133 159c0 92 51 159 133 159zM513 17c60 0 94 52 94 128c0 77 -34 128 -94 128
c-61 0 -94 -51 -94 -128c0 -76 33 -128 94 -128zM827 17c61 0 94 52 94 128c0 77 -33 128 -94 128c-60 0 -94 -51 -94 -128c0 -76 34 -128 94 -128z" />
    <glyph glyph-name="plus" unicode="+" 
d="M474 302h-187v-215h-31v215h-187v30h187v216h31v-216h187v-30z" />
    <glyph glyph-name="plusminus" unicode="&#xb1;" 
d="M276 333h187v-30h-187v-202h-31v202h-187v30h187v201h31v-201zM463 0h-405v30h405v-30z" />
    <glyph glyph-name="product" unicode="&#x220f;" 
d="M503 657h-58v-767h-38v767h-272v-767h-38v767h-57v33h463v-33z" />
    <glyph glyph-name="radical" unicode="&#x221a;" 
d="M506 780l-217 -940h-43l-131 440h-66v30h90l127 -438l208 908h32z" />
    <glyph glyph-name="summation" unicode="&#x2211;" 
d="M507 -77v-33h-474v32l284 379l-254 357v32h438v-33h-393l255 -357l-285 -377h429z" />
    <glyph glyph-name="lozenge" unicode="&#x25ca;" horiz-adv-x="479" 
d="M423 345l-167 -345h-33l-167 345l167 345h33zM389 345l-150 312l-148 -312l149 -313z" />
    <glyph glyph-name="ampersand" unicode="&#x26;" horiz-adv-x="644" 
d="M619 363v-34h-106v-326c-57 -11 -129 -17 -179 -17c-161 0 -265 37 -265 176c0 103 75 169 183 184c-83 13 -148 64 -148 168c0 110 94 190 229 190c49 0 82 -3 120 -10v-34c-41 8 -74 11 -123 11c-106 0 -184 -58 -184 -155c0 -122 91 -148 170 -152c19 -1 39 -1 61 -1
h98v142h38v-142h106zM111 165c0 -114 85 -146 225 -146c42 0 98 3 139 11v299h-98c-22 0 -41 0 -61 -2c-115 -10 -205 -52 -205 -162z" />
    <glyph glyph-name="asciicircum" unicode="^" 
d="M428 215l-155 371l-156 -371h-35l173 401h37l171 -401h-35z" />
    <glyph glyph-name="at" unicode="@" horiz-adv-x="851" 
d="M608 465l-53 -223c-9 -40 -11 -57 -11 -74c0 -39 24 -63 69 -63c80 0 149 86 149 227c0 192 -125 302 -297 302s-372 -144 -372 -388c0 -211 144 -320 303 -320c98 0 177 22 268 86l15 -27c-108 -73 -189 -89 -284 -89c-168 0 -336 113 -336 348c0 263 213 420 411 420
c193 0 325 -134 325 -328c0 -175 -94 -261 -189 -261c-50 0 -98 22 -101 92l-18 -39c-35 -42 -73 -61 -116 -61c-57 0 -128 33 -128 154c0 138 91 262 213 262c39 0 64 -14 79 -33l17 -52l17 67h39zM524 272l9 40c19 82 -16 139 -78 139c-92 0 -170 -102 -170 -226
c0 -87 38 -126 94 -126c60 0 117 53 145 173z" />
    <glyph glyph-name="bar" unicode="|" horiz-adv-x="250" 
d="M141 -200h-31v1000h31v-1000z" />
    <glyph glyph-name="brokenbar" unicode="&#xa6;" horiz-adv-x="250" 
d="M141 350h-31v340h31v-340zM141 -160h-31v340h31v-340z" />
    <glyph glyph-name="copyright" unicode="&#xa9;" horiz-adv-x="838" 
d="M419 731c206 0 368 -166 368 -376s-162 -376 -368 -376s-368 166 -368 376s162 376 368 376zM419 700c-188 0 -336 -153 -336 -345s148 -344 336 -344s336 152 336 344s-148 345 -336 345zM423 570c90 0 158 -51 172 -144h-40c-13 66 -55 111 -132 111
c-93 0 -148 -83 -148 -181c0 -104 59 -180 145 -180c71 0 119 39 134 110h40c-20 -93 -83 -143 -179 -143c-99 0 -180 81 -180 212c0 133 82 215 188 215z" />
    <glyph glyph-name="dagger" unicode="&#x2020;" horiz-adv-x="550" 
d="M479 396l-185 3l4 -559h-44l2 559l-185 -3v37l185 -3l-3 260h45l-4 -260l185 3v-37z" />
    <glyph glyph-name="daggerdbl" unicode="&#x2021;" horiz-adv-x="550" 
d="M294 399v-269l185 3v-37l-185 3l4 -259h-44l2 259l-185 -3v37l185 -3v269l-185 -3v37l185 -3l-3 260h45l-4 -260l185 3v-37z" />
    <glyph glyph-name="degree" unicode="&#xb0;" horiz-adv-x="282" 
d="M141 704c62 0 107 -43 107 -105s-45 -106 -107 -106s-107 44 -107 106s45 105 107 105zM141 674c-44 0 -74 -30 -74 -75c0 -46 30 -76 74 -76s74 30 74 76c0 45 -30 75 -74 75z" />
    <glyph glyph-name="paragraph" unicode="&#xb6;" horiz-adv-x="538" 
d="M466 690v-800h-31v770h-119v-770h-31v430h-23c-18 0 -39 0 -56 1c-102 6 -157 89 -157 184s55 178 157 184c17 1 38 1 56 1h204z" />
    <glyph glyph-name="registered" unicode="&#xae;" horiz-adv-x="519" 
d="M259 764c123 0 210 -87 210 -209c0 -124 -87 -211 -210 -211s-210 87 -210 211c0 122 87 209 210 209zM259 371c107 0 181 77 181 184c0 106 -74 182 -181 182c-106 0 -180 -76 -180 -182c0 -107 74 -184 180 -184zM294 550c16 -5 24 -19 27 -40c4 -26 10 -43 17 -54h-33
c-5 12 -9 26 -13 49c-2 19 -11 29 -31 29h-36v-78h-28v204h55c8 0 15 0 24 -1c35 -4 59 -22 59 -58c0 -26 -16 -44 -41 -51zM225 558h26c9 0 16 0 22 1c18 3 32 15 32 37c0 25 -15 35 -32 38c-6 1 -10 1 -16 1h-32v-77z" />
    <glyph glyph-name="section" unicode="&#xa7;" horiz-adv-x="538" 
d="M507 256c0 -83 -59 -134 -133 -152c55 -31 80 -74 80 -135c0 -90 -80 -143 -183 -143c-105 0 -177 51 -199 167h39c23 -93 79 -135 163 -135c76 0 139 39 139 108c0 70 -36 113 -182 145c-90 20 -186 74 -186 171c0 86 57 134 130 152c-44 26 -76 65 -76 124
c0 90 69 146 167 146c111 0 168 -66 184 -158h-39c-21 83 -67 126 -146 126c-67 0 -125 -38 -125 -109c0 -80 73 -115 159 -133c127 -26 208 -78 208 -174zM321 126c74 4 145 45 145 126c0 75 -63 116 -183 143c-21 5 -42 10 -63 18c-65 -7 -134 -39 -134 -128
c0 -74 77 -121 161 -139c28 -6 52 -12 74 -20z" />
    <glyph glyph-name="trademark" unicode="&#x2122;" horiz-adv-x="523" 
d="M215 660v-24h-81v-180h-29v180h-82v24h192zM451 659v-203h-27l2 174l-64 -171h-31l-63 170l1 -173h-28v203h42l64 -178l64 178h40z" />
    <glyph glyph-name="acute" unicode="&#xb4;" horiz-adv-x="300" 
d="M161 580h-28l60 110h41z" />
    <glyph glyph-name="breve" unicode="&#x2d8;" horiz-adv-x="300" 
d="M216 690h27c0 -75 -29 -121 -93 -121s-94 46 -94 121h27c1 -59 25 -91 67 -91s65 32 66 91z" />
    <glyph glyph-name="caron" unicode="&#x2c7;" horiz-adv-x="300" 
d="M232 690l-65 -110h-32l-66 110h34l48 -86l48 86h33z" />
    <glyph glyph-name="cedilla" unicode="&#xb8;" horiz-adv-x="300" 
d="M170 8l-30 -56c54 -6 86 -30 86 -79c0 -57 -51 -83 -106 -83c-21 0 -38 3 -52 10v27c15 -8 31 -11 53 -11c44 0 74 19 74 57s-30 59 -98 56l41 79h32z" />
    <glyph glyph-name="circumflex" unicode="&#x2c6;" horiz-adv-x="300" 
d="M198 580l-48 86l-48 -86h-33l66 110h32l65 -110h-34z" />
    <glyph glyph-name="dieresis" unicode="&#xa8;" horiz-adv-x="300" 
d="M102 659c14 0 26 -12 26 -27c0 -14 -12 -26 -26 -26c-15 0 -27 12 -27 26c0 15 12 27 27 27zM198 659c15 0 27 -12 27 -27c0 -14 -12 -26 -27 -26c-14 0 -26 12 -26 26c0 15 12 27 26 27z" />
    <glyph glyph-name="dotaccent" unicode="&#x2d9;" horiz-adv-x="300" 
d="M150 666c16 0 29 -13 29 -29s-13 -29 -29 -29s-29 13 -29 29s13 29 29 29z" />
    <glyph glyph-name="grave" unicode="`" horiz-adv-x="300" 
d="M167 580h-28l-73 110h41z" />
    <glyph glyph-name="hungarumlaut" unicode="&#x2dd;" horiz-adv-x="300" 
d="M108 580h-28l60 110h41zM213 580h-28l60 110h41z" />
    <glyph glyph-name="macron" unicode="&#xaf;" horiz-adv-x="300" 
d="M233 616h-165v29h165v-29z" />
    <glyph glyph-name="ogonek" unicode="&#x2db;" horiz-adv-x="300" 
d="M150 13l26 -13c-67 -17 -115 -77 -115 -143c0 -37 18 -52 45 -52c22 0 42 9 63 29v-30c-21 -18 -45 -27 -74 -27c-38 0 -71 17 -71 73c0 74 52 139 126 163z" />
    <glyph glyph-name="ring" unicode="&#x2da;" horiz-adv-x="300" 
d="M150 705c39 0 69 -26 69 -67s-30 -68 -69 -68s-69 27 -69 68s30 67 69 67zM150 681c-25 0 -39 -19 -39 -43s14 -43 39 -43s40 19 40 43s-15 43 -40 43z" />
    <glyph glyph-name="tilde" unicode="&#x2dc;" horiz-adv-x="300" 
d="M98 671c16 0 31 -4 58 -13c24 -8 37 -12 46 -12c10 0 16 6 16 21h25c0 -33 -14 -48 -40 -48c-17 0 -32 4 -59 13c-24 8 -37 11 -46 11c-10 0 -16 -5 -16 -20h-24c0 33 14 48 40 48z" />
    <glyph glyph-name="uni0326" unicode="&#x326;" horiz-adv-x="0" 
d="M171 -58l-52 -121h-29l45 128h36v-7z" />
    </font>
</defs>
</svg>
