<?xml version="1.0" standalone="no"?>
<!DOCTYPE svg PUBLIC "-//W3C//DTD SVG 1.1//EN" "http://www.w3.org/Graphics/SVG/1.1/DTD/svg11.dtd" >
<svg xmlns="http://www.w3.org/2000/svg" xmlns:xlink="http://www.w3.org/1999/xlink" version="1.1">
<metadata>
Created by FontForge 20230101 at Fri Mar 25 09:43:40 2022
 By Glenn Lewis
Copyright 2010 The Crimson Text Project Authors (https://github.com/googlefonts/Crimson)
</metadata>
<defs>
<font id="CrimsonText-SemiBold" horiz-adv-x="0" >
  <font-face 
    font-family="Crimson Text SemiBold"
    font-weight="600"
    font-stretch="normal"
    units-per-em="1024"
    panose-1="0 0 0 0 0 0 0 0 0 0"
    ascent="819"
    descent="-205"
    x-height="432"
    cap-height="662"
    bbox="-222 -246 1548 1060"
    underline-thickness="50"
    underline-position="-125"
    unicode-range="U+000D-FB02"
  />
<missing-glyph horiz-adv-x="374" 
d="M34 0v682h272v-682h-272zM68 34h204v614h-204v-614z" />
    <glyph glyph-name="f_f" unicode="ff" horiz-adv-x="744" 
d="M30 -3q-4 4 -4 19q0 14 4 14q8 0 21 4t24.5 10t12.5 10q4 17 6 36t2 38v236q0 7 -4 7h-54q-2 0 -2 6q0 7 2.5 18t6 20t5.5 9h42q4 0 4 6v10q0 51 19.5 94.5t52 77t72 52t80.5 18.5q47 0 86.5 -17t58.5 -38q26 31 68 50t79 19q82 0 104 -37q9 -80 -40 -80q-13 0 -24 9.5
t-21.5 22.5t-22.5 23t-28 11q-26 2 -45.5 -22.5t-30 -63.5t-10.5 -84v-46q0 -5 5 -5h111q5 0 5 -7q0 -22 -12 -46h-103q-6 0 -6 -6v-221q0 -63 7 -90q2 -4 13 -10t24 -10t18 -4q3 0 3.5 -14t-1.5 -19q-31 2 -63 4t-53 2q-31 0 -63.5 -2t-54.5 -4q-4 4 -4 19q0 14 4 14
q8 0 21 4t24.5 10t12.5 10q4 17 6 36t2 38l1 236q0 7 -5 7h-180q-6 0 -6 -6v-221q0 -63 7 -90q2 -4 13 -10t24 -10t18 -4q3 0 3.5 -14t-1.5 -19q-31 2 -63 4t-53 2q-31 0 -63.5 -2t-54.5 -4zM204 424h182q5 0 5 6q0 28 2.5 49t5.5 33q3 14 3 22q0 16 -12 38t-19 29
q-11 12 -28.5 21t-40.5 9q-53 0 -77.5 -44t-24.5 -112v-46q0 -5 4 -5z" />
    <glyph glyph-name="f_f_i" unicode="ffi" horiz-adv-x="882" 
d="M30 -3q-4 4 -4 19q0 14 4 14q8 0 21 4t24.5 10t12.5 10q8 37 8 79v231q0 7 -4 7h-54q-2 0 -2 6q0 7 2.5 18t6 20t5.5 9h42q4 0 4 6v10q0 51 19.5 94.5t52 77t72 52t80.5 18.5q47 0 86.5 -17t58.5 -38q18 20 45.5 35.5t58 24.5t55.5 9q58 0 98 -15q64 -19 64 -67
q0 -26 -17 -43t-43 -17q-40 0 -56 34q-28 57 -79 57q-28 0 -51 -25t-35.5 -63.5t-10.5 -81.5v-46q0 -5 5 -5h160q85 0 118 13l5 1l4 2q9 0 9 -20q-4 -28 -5.5 -49.5t-1.5 -36.5v-194q0 -59 7 -86q2 -4 13 -10t24 -10t18 -4q3 0 3.5 -14t-1.5 -19q-31 2 -63 4t-53 2
q-31 0 -63.5 -2t-54.5 -4q-4 4 -4 19q0 14 4 14q8 0 21 4t24.5 10t12.5 10q8 37 8 79v161q0 45 -15 61q-14 17 -66 17h-103q-6 0 -6 -6v-226q0 -59 7 -86q2 -4 13 -10t24 -10t18 -4q3 0 3.5 -14t-1.5 -19q-31 2 -63 4t-53 2q-31 0 -63.5 -2t-54.5 -4q-4 4 -4 19q0 14 4 14
q8 0 21 4t24.5 10t12.5 10q8 37 8 79l1 231q0 7 -5 7h-180q-6 0 -6 -6v-225q0 -59 7 -86q2 -4 13 -10t24 -10t18 -4q3 0 3.5 -14t-1.5 -19q-31 2 -63 4t-53 2q-31 0 -63.5 -2t-54.5 -4zM204 424h182q5 0 5 6v3q0 48 10 88q5 15 -4.5 36t-18.5 34q-11 14 -29 27t-47 13
q-53 0 -78 -44t-24 -112v-46q0 -5 4 -5z" />
    <glyph glyph-name="f_f_l" unicode="ffl" horiz-adv-x="890" 
d="M30 -3q-4 4 -4 19q0 14 4 14q8 0 21 4t24.5 10t12.5 10q8 37 8 79v231q0 7 -4 7h-54q-2 0 -2 6q0 7 2.5 18t6 20.5t5.5 9.5h42q4 0 4 5v10q0 51 19.5 94.5t52 76.5t72 51.5t80.5 18.5q47 0 86.5 -16.5t58.5 -37.5q17 20 44.5 35.5t58.5 24t56 8.5q18 0 42.5 -10t37.5 -10
q16 0 37 5t36 10q5 2 9.5 3.5t8.5 1.5t8 -6t5 -11q-11 -39 -11 -94v-444q0 -59 7 -86q2 -4 13 -10t24 -10t18 -4q3 0 3.5 -14t-1.5 -19q-31 2 -63 4t-53 2q-31 0 -63.5 -2t-54.5 -4q-4 4 -4 19q0 14 4 14q8 0 21 4t24.5 10t12.5 10q8 37 8 79v375q0 47 -13 76q-9 21 -34 41
t-56 20q-28 0 -50.5 -25t-35 -63.5t-11.5 -81.5l1 -46q0 -5 5 -5h111q5 0 5 -7q0 -21 -12 -45h-103q-6 0 -6 -6l1 -226q0 -59 7 -86q2 -4 13 -10t24 -10t18 -4q3 0 3.5 -14t-1.5 -19q-31 2 -63 4t-53 2q-31 0 -63.5 -2t-54.5 -4q-4 4 -4 19q0 14 4 14q8 0 21 4t24.5 10
t12.5 10q8 37 8 79v231q0 7 -5 7h-180q-7 0 -7 -6l1 -225q0 -59 7 -86q2 -4 13 -10t24 -10t18 -4q3 0 3.5 -14t-1.5 -19q-31 2 -63 4t-53 2q-31 0 -63.5 -2t-54.5 -4zM204 425h182q5 0 5 5v3q0 48 10 88q1 3 1 13q0 16 -8 31.5t-16 25.5q-11 14 -29 27t-47 13q-53 0 -78 -44
t-25 -112v-46q0 -4 5 -4z" />
    <glyph glyph-name="fi" unicode="fi" horiz-adv-x="587" 
d="M30 -3q-4 4 -4 19q0 14 4 14q8 0 21 4t24.5 10t12.5 10q4 17 6 36t2 38l1 237q0 7 -6 7h-52q-4 0 -4 6q0 7 3 17.5t7 19.5t6 9h40q6 0 6 6v9q0 51 19 97.5t52 82t75 56t88 20.5q56 0 96 -14q29 -9 46.5 -26.5t17.5 -40.5q0 -26 -17.5 -43t-42.5 -17q-40 0 -56 34
q-28 57 -78 57q-28 0 -50.5 -24.5t-35 -63t-12.5 -82.5v-46q0 -5 6 -5h160q82 0 118 13l4 2q2 1 4 1q10 0 10 -20q-4 -32 -6 -53.5t-2 -32.5v-190q0 -63 7 -90q2 -4 13 -10t24 -10t18 -4q3 0 3.5 -14t-1.5 -19q-31 2 -63 4t-53 2q-31 0 -63.5 -2t-54.5 -4q-4 4 -4 19
q0 14 4 14q8 0 21 4t24.5 10t12.5 10q4 17 6 36t2 38v166q0 44 -14 61t-66 17h-104q-6 0 -6 -6l1 -222q0 -63 7 -90q2 -4 13 -10t24 -10t18 -4q3 0 3.5 -14t-1.5 -19q-31 2 -63 4t-53 2q-31 0 -63.5 -2t-54.5 -4z" />
    <glyph glyph-name="fl" unicode="fl" horiz-adv-x="595" 
d="M30 -3q-4 4 -4 19q0 14 4 14q8 0 21 4t24.5 10t12.5 10q8 37 8 79v232q0 7 -6 7h-52q-4 0 -4 6q0 7 3 17.5t7 19.5t6 9h40q6 0 6 6v9q0 51 19 97.5t52 82t75 56t88 20.5q18 0 42.5 -10t37.5 -10q16 0 37 4.5t36 9.5l17 5q4 0 8 -5.5t5 -10.5q-11 -39 -11 -94v-444
q0 -59 7 -86q2 -4 13 -10t24 -10t18 -4q3 0 3.5 -14t-1.5 -19q-31 2 -63 4t-53 2q-31 0 -63.5 -2t-54.5 -4q-4 4 -4 19q0 14 4 14q8 0 21 4t24.5 10t12.5 10q8 37 8 79v375q0 48 -12 76q-9 21 -34 41t-56 20q-28 0 -50.5 -24.5t-35 -63t-12.5 -82.5v-46q0 -5 6 -5h110
q6 0 6 -7q0 -21 -12 -45h-104q-6 0 -6 -6l2 -226q0 -59 7 -86q2 -4 13 -10t24 -10t18 -4q3 0 3.5 -14t-1.5 -19q-31 2 -63 4t-53 2q-31 0 -63.5 -2t-54.5 -4z" />
    <glyph glyph-name=".notdef" horiz-adv-x="374" 
d="M34 0v682h272v-682h-272zM68 34h204v614h-204v-614z" />
    <glyph glyph-name="A" unicode="A" horiz-adv-x="736" 
d="M31 -3q-4 4 -4 15q0 18 2 18q8 0 23.5 4t30 10.5t18.5 13.5q10 15 19 34.5t19 43.5l186 450q24 61 37 72q7 7 17 7q7 0 12 -5l210 -524q8 -19 15.5 -37.5t14.5 -35.5q4 -10 18 -17.5t29 -11.5t23 -4q4 0 4 -18q0 -11 -2 -15l-126 6l-130 -6q-4 4 -4 19q0 14 4 14
q12 0 33 6t25 14q3 6 3 13q0 10 -5 27t-14 42l-35 93q-4 4 -7 4q-16 1 -37.5 1.5t-48.5 0.5q-54 0 -114 -3q-6 0 -6 -4l-38 -93q-10 -25 -14.5 -41.5t-4.5 -23.5q0 -12 11 -20q6 -4 18.5 -7.5t25.5 -6t18 -2.5q3 -1 3 -14q0 -7 -0.5 -11.5t-1.5 -7.5q-37 2 -60.5 4t-43.5 2
t-48 -1t-75 -5zM343 285q36 0 82 3l2 4l-76 200l-82 -200q0 -4 2 -4q35 -3 72 -3z" />
    <glyph glyph-name="Aacute" unicode="&#xc1;" horiz-adv-x="736" 
d="M31 -3q-4 4 -4 15q0 18 2 18q8 0 23.5 4t30 10.5t18.5 13.5q10 15 19 34.5t19 43.5l186 450q24 61 37 72q7 7 17 7q7 0 12 -5l210 -524q8 -19 15.5 -37.5t14.5 -35.5q4 -10 18 -17.5t29 -11.5t23 -4q4 0 4 -18q0 -11 -2 -15l-126 6l-130 -6q-4 4 -4 19q0 14 4 14
q12 0 33 6t25 14q3 6 3 13q0 10 -5 27t-14 42l-35 93q-4 4 -7 4q-16 1 -37.5 1.5t-48.5 0.5q-54 0 -114 -3q-6 0 -6 -4l-38 -93q-10 -25 -14.5 -41.5t-4.5 -23.5q0 -12 11 -20q6 -4 18.5 -7.5t25.5 -6t18 -2.5q3 -1 3 -14q0 -7 -0.5 -11.5t-1.5 -7.5q-37 2 -60.5 4t-43.5 2
t-48 -1t-75 -5zM343 285q36 0 82 3l2 4l-76 200l-82 -200q0 -4 2 -4q35 -3 72 -3zM331 733q-4 0 -8 5.5t-4 11.5q0 3 13 17.5t32.5 33.5t39.5 37t35 29q6 3 18 3q22 0 38 -9t16 -24q0 -11 -16.5 -24.5t-41.5 -27.5t-51 -26t-45.5 -19t-25.5 -7z" />
    <glyph glyph-name="Abreve" unicode="&#x102;" horiz-adv-x="736" 
d="M31 -3q-4 4 -4 15q0 18 2 18q8 0 23.5 4t30 10.5t18.5 13.5q10 15 19 34.5t19 43.5l186 450q24 61 37 72q7 7 17 7q7 0 12 -5l210 -524q8 -19 15.5 -37.5t14.5 -35.5q4 -10 18 -17.5t29 -11.5t23 -4q4 0 4 -18q0 -11 -2 -15l-126 6l-130 -6q-4 4 -4 19q0 14 4 14
q12 0 33 6t25 14q3 6 3 13q0 10 -5 27t-14 42l-35 93q-4 4 -7 4q-16 1 -37.5 1.5t-48.5 0.5q-54 0 -114 -3q-6 0 -6 -4l-38 -93q-10 -25 -14.5 -41.5t-4.5 -23.5q0 -12 11 -20q6 -4 18.5 -7.5t25.5 -6t18 -2.5q3 -1 3 -14q0 -7 -0.5 -11.5t-1.5 -7.5q-37 2 -60.5 4t-43.5 2
t-48 -1t-75 -5zM343 285q36 0 82 3l2 4l-76 200l-82 -200q0 -4 2 -4q35 -3 72 -3zM378 748q-33 0 -62 20t-45 61q-2 6 -2 7q0 4 8 12t14 8q2 0 3 -2q12 -26 35.5 -39t48.5 -13q26 0 49 13t35 39q1 2 3 2q6 0 14 -8t8 -12q0 -1 -2 -7q-16 -41 -45 -61t-62 -20z" />
    <glyph glyph-name="uni1EAE" unicode="&#x1eae;" horiz-adv-x="736" 
d="M31 -3q-4 4 -4 15q0 18 2 18q8 0 23.5 4t30 10.5t18.5 13.5q10 15 19 34.5t19 43.5l186 450q24 61 37 72q7 7 17 7q7 0 12 -5l210 -524q8 -19 15.5 -37.5t14.5 -35.5q4 -10 18 -17.5t29 -11.5t23 -4q4 0 4 -18q0 -11 -2 -15l-126 6l-130 -6q-4 4 -4 19q0 14 4 14
q12 0 33 6t25 14q3 6 3 13q0 10 -5 27t-14 42l-35 93q-4 4 -7 4q-16 1 -37.5 1.5t-48.5 0.5q-54 0 -114 -3q-6 0 -6 -4l-38 -93q-10 -25 -14.5 -41.5t-4.5 -23.5q0 -12 11 -20q6 -4 18.5 -7.5t25.5 -6t18 -2.5q3 -1 3 -14q0 -7 -0.5 -11.5t-1.5 -7.5q-37 2 -60.5 4t-43.5 2
t-48 -1t-75 -5zM343 285q36 0 82 3l2 4l-76 200l-82 -200q0 -4 2 -4q35 -3 72 -3zM354 810q-4 0 -7.5 5.5t-3.5 9.5q0 3 11 15t28 28.5t34.5 32.5t30.5 25q5 3 15 3q19 0 33 -7.5t14 -21.5q0 -10 -20.5 -25t-49 -30t-53 -25t-32.5 -10zM376 706q-33 0 -62 20t-45 61
q-2 6 -2 7q0 4 8 12t14 8q2 0 3 -2q12 -26 35.5 -39t48.5 -13q26 0 49 13t35 39q1 2 3 2q6 0 14 -8t8 -12q0 -1 -2 -7q-16 -41 -45 -61t-62 -20z" />
    <glyph glyph-name="uni1EB6" unicode="&#x1eb6;" horiz-adv-x="736" 
d="M31 -3q-4 4 -4 15q0 18 2 18q8 0 23.5 4t30 10.5t18.5 13.5q10 15 19 34.5t19 43.5l186 450q24 61 37 72q7 7 17 7q7 0 12 -5l210 -524q8 -19 15.5 -37.5t14.5 -35.5q4 -10 18 -17.5t29 -11.5t23 -4q4 0 4 -18q0 -11 -2 -15l-126 6l-130 -6q-4 4 -4 19q0 14 4 14
q12 0 33 6t25 14q3 6 3 13q0 10 -5 27t-14 42l-35 93q-4 4 -7 4q-16 1 -37.5 1.5t-48.5 0.5q-54 0 -114 -3q-6 0 -6 -4l-38 -93q-10 -25 -14.5 -41.5t-4.5 -23.5q0 -12 11 -20q6 -4 18.5 -7.5t25.5 -6t18 -2.5q3 -1 3 -14q0 -7 -0.5 -11.5t-1.5 -7.5q-37 2 -60.5 4t-43.5 2
t-48 -1t-75 -5zM343 285q36 0 82 3l2 4l-76 200l-82 -200q0 -4 2 -4q35 -3 72 -3zM368 -182q-25 0 -43.5 18.5t-18.5 43.5q0 26 18.5 44t43.5 18q26 0 44 -18t18 -44q0 -25 -18 -43.5t-44 -18.5zM378 748q-33 0 -62 20t-45 61q-2 6 -2 7q0 4 8 12t14 8q2 0 3 -2
q12 -26 35.5 -39t48.5 -13q26 0 49 13t35 39q1 2 3 2q6 0 14 -8t8 -12q0 -1 -2 -7q-16 -41 -45 -61t-62 -20z" />
    <glyph glyph-name="uni1EB0" unicode="&#x1eb0;" horiz-adv-x="736" 
d="M31 -3q-4 4 -4 15q0 18 2 18q8 0 23.5 4t30 10.5t18.5 13.5q10 15 19 34.5t19 43.5l186 450q24 61 37 72q7 7 17 7q7 0 12 -5l210 -524q8 -19 15.5 -37.5t14.5 -35.5q4 -10 18 -17.5t29 -11.5t23 -4q4 0 4 -18q0 -11 -2 -15l-126 6l-130 -6q-4 4 -4 19q0 14 4 14
q12 0 33 6t25 14q3 6 3 13q0 10 -5 27t-14 42l-35 93q-4 4 -7 4q-16 1 -37.5 1.5t-48.5 0.5q-54 0 -114 -3q-6 0 -6 -4l-38 -93q-10 -25 -14.5 -41.5t-4.5 -23.5q0 -12 11 -20q6 -4 18.5 -7.5t25.5 -6t18 -2.5q3 -1 3 -14q0 -7 -0.5 -11.5t-1.5 -7.5q-37 2 -60.5 4t-43.5 2
t-48 -1t-75 -5zM343 285q36 0 82 3l2 4l-76 200l-82 -200q0 -4 2 -4q35 -3 72 -3zM407 812q-8 0 -32.5 10t-53 25t-49 30t-20.5 25q0 14 14 21.5t33 7.5q11 0 15 -3q13 -9 30.5 -25t34.5 -32.5t28 -28.5t11 -15q0 -4 -3.5 -9.5t-7.5 -5.5zM375 708q-33 0 -62 20t-45 61
q-2 6 -2 7q0 4 8 12t14 8q2 0 3 -2q12 -26 35.5 -39t48.5 -13q26 0 49 13t35 39q1 2 3 2q6 0 14 -8t8 -12q0 -1 -2 -7q-16 -41 -45 -61t-62 -20z" />
    <glyph glyph-name="uni1EB2" unicode="&#x1eb2;" horiz-adv-x="736" 
d="M31 -3q-4 4 -4 15q0 18 2 18q8 0 23.5 4t30 10.5t18.5 13.5q10 15 19 34.5t19 43.5l186 450q24 61 37 72q7 7 17 7q7 0 12 -5l210 -524q8 -19 15.5 -37.5t14.5 -35.5q4 -10 18 -17.5t29 -11.5t23 -4q4 0 4 -18q0 -11 -2 -15l-126 6l-130 -6q-4 4 -4 19q0 14 4 14
q12 0 33 6t25 14q3 6 3 13q0 10 -5 27t-14 42l-35 93q-4 4 -7 4q-16 1 -37.5 1.5t-48.5 0.5q-54 0 -114 -3q-6 0 -6 -4l-38 -93q-10 -25 -14.5 -41.5t-4.5 -23.5q0 -12 11 -20q6 -4 18.5 -7.5t25.5 -6t18 -2.5q3 -1 3 -14q0 -7 -0.5 -11.5t-1.5 -7.5q-37 2 -60.5 4t-43.5 2
t-48 -1t-75 -5zM343 285q36 0 82 3l2 4l-76 200l-82 -200q0 -4 2 -4q35 -3 72 -3zM380 809q-12 0 -21.5 8t-9.5 20q0 11 11.5 17.5t23.5 18.5q9 9 14.5 16.5t5.5 15.5t-6 12t-14 4q-18 0 -36 -18q-9 -9 -14.5 -13.5t-11.5 -4.5q-10 0 -15 10t-5 24q10 14 37.5 30t58.5 16
q28 0 47.5 -15t19.5 -40q0 -16 -14 -30t-29 -25q-14 -10 -22.5 -14t-8.5 -12q0 -6 5 -14q0 -6 -16 -6zM376 706q-33 0 -62 20t-45 61q-2 6 -2 7q0 4 8 12t14 8q2 0 3 -2q12 -26 35.5 -39t48.5 -13q26 0 49 13t35 39q1 2 3 2q6 0 14 -8t8 -12q0 -1 -2 -7q-16 -41 -45 -61
t-62 -20z" />
    <glyph glyph-name="uni1EB4" unicode="&#x1eb4;" horiz-adv-x="736" 
d="M31 -3q-4 4 -4 15q0 18 2 18q8 0 23.5 4t30 10.5t18.5 13.5q10 15 19 34.5t19 43.5l186 450q24 61 37 72q7 7 17 7q7 0 12 -5l210 -524q8 -19 15.5 -37.5t14.5 -35.5q4 -10 18 -17.5t29 -11.5t23 -4q4 0 4 -18q0 -11 -2 -15l-126 6l-130 -6q-4 4 -4 19q0 14 4 14
q12 0 33 6t25 14q3 6 3 13q0 10 -5 27t-14 42l-35 93q-4 4 -7 4q-16 1 -37.5 1.5t-48.5 0.5q-54 0 -114 -3q-6 0 -6 -4l-38 -93q-10 -25 -14.5 -41.5t-4.5 -23.5q0 -12 11 -20q6 -4 18.5 -7.5t25.5 -6t18 -2.5q3 -1 3 -14q0 -7 -0.5 -11.5t-1.5 -7.5q-37 2 -60.5 4t-43.5 2
t-48 -1t-75 -5zM343 285q36 0 82 3l2 4l-76 200l-82 -200q0 -4 2 -4q35 -3 72 -3zM446 838q-30 0 -75 27q-46 26 -75 26q-15 0 -34 -22t-23 -22q-7 0 -7 17t16 39q30 40 67 40q28 0 74 -26q45 -27 75 -27q15 0 35 23q19 22 22 22q5 0 5 -18q0 -20 -14 -40q-28 -39 -66 -39z
M376 706q-33 0 -62 20t-45 61q-2 6 -2 7q0 4 8 12t14 8q2 0 3 -2q12 -26 35.5 -39t48.5 -13q26 0 49 13t35 39q1 2 3 2q6 0 14 -8t8 -12q0 -1 -2 -7q-16 -41 -45 -61t-62 -20z" />
    <glyph glyph-name="uni01CD" unicode="&#x1cd;" horiz-adv-x="736" 
d="M31 -3q-4 4 -4 15q0 18 2 18q8 0 23.5 4t30 10.5t18.5 13.5q10 15 19 34.5t19 43.5l186 450q24 61 37 72q7 7 17 7q7 0 12 -5l210 -524q8 -19 15.5 -37.5t14.5 -35.5q4 -10 18 -17.5t29 -11.5t23 -4q4 0 4 -18q0 -11 -2 -15l-126 6l-130 -6q-4 4 -4 19q0 14 4 14
q12 0 33 6t25 14q3 6 3 13q0 10 -5 27t-14 42l-35 93q-4 4 -7 4q-16 1 -37.5 1.5t-48.5 0.5q-54 0 -114 -3q-6 0 -6 -4l-38 -93q-10 -25 -14.5 -41.5t-4.5 -23.5q0 -12 11 -20q6 -4 18.5 -7.5t25.5 -6t18 -2.5q3 -1 3 -14q0 -7 -0.5 -11.5t-1.5 -7.5q-37 2 -60.5 4t-43.5 2
t-48 -1t-75 -5zM343 285q36 0 82 3l2 4l-76 200l-82 -200q0 -4 2 -4q35 -3 72 -3zM375 734q-4 0 -12 8q-8 11 -18.5 22.5t-23.5 24.5q-11 11 -22 21l-22 20t-17 14.5t-7 5.5q0 20 10 20q6 0 27 -10t45 -24t40 -26q93 60 112 60q10 0 10 -20q-2 -2 -21 -18.5t-48 -43.5
q-5 -5 -15.5 -17t-25.5 -29q-6 -8 -12 -8z" />
    <glyph glyph-name="Acircumflex" unicode="&#xc2;" horiz-adv-x="736" 
d="M31 -3q-4 4 -4 15q0 18 2 18q8 0 23.5 4t30 10.5t18.5 13.5q10 15 19 34.5t19 43.5l186 450q24 61 37 72q7 7 17 7q7 0 12 -5l210 -524q8 -19 15.5 -37.5t14.5 -35.5q4 -10 18 -17.5t29 -11.5t23 -4q4 0 4 -18q0 -11 -2 -15l-126 6l-130 -6q-4 4 -4 19q0 14 4 14
q12 0 33 6t25 14q3 6 3 13q0 10 -5 27t-14 42l-35 93q-4 4 -7 4q-16 1 -37.5 1.5t-48.5 0.5q-54 0 -114 -3q-6 0 -6 -4l-38 -93q-10 -25 -14.5 -41.5t-4.5 -23.5q0 -12 11 -20q6 -4 18.5 -7.5t25.5 -6t18 -2.5q3 -1 3 -14q0 -7 -0.5 -11.5t-1.5 -7.5q-37 2 -60.5 4t-43.5 2
t-48 -1t-75 -5zM343 285q36 0 82 3l2 4l-76 200l-82 -200q0 -4 2 -4q35 -3 72 -3zM263 723q-10 0 -10 19l24 21l22 20l22 20q13 13 23.5 24.5t18.5 22.5q8 9 12 9q5 0 12 -9q15 -17 25.5 -29t15.5 -17q29 -27 48 -43.5t21 -18.5q0 -19 -10 -19q-19 0 -112 60
q-16 -11 -40 -25.5t-45 -24.5t-27 -10z" />
    <glyph glyph-name="uni1EA4" unicode="&#x1ea4;" horiz-adv-x="736" 
d="M31 -3q-4 4 -4 15q0 18 2 18q8 0 23.5 4t30 10.5t18.5 13.5q10 15 19 34.5t19 43.5l186 450q24 61 37 72q7 7 17 7q7 0 12 -5l210 -524q8 -19 15.5 -37.5t14.5 -35.5q4 -10 18 -17.5t29 -11.5t23 -4q4 0 4 -18q0 -11 -2 -15l-126 6l-130 -6q-4 4 -4 19q0 14 4 14
q12 0 33 6t25 14q3 6 3 13q0 10 -5 27t-14 42l-35 93q-4 4 -7 4q-16 1 -37.5 1.5t-48.5 0.5q-54 0 -114 -3q-6 0 -6 -4l-38 -93q-10 -25 -14.5 -41.5t-4.5 -23.5q0 -12 11 -20q6 -4 18.5 -7.5t25.5 -6t18 -2.5q3 -1 3 -14q0 -7 -0.5 -11.5t-1.5 -7.5q-37 2 -60.5 4t-43.5 2
t-48 -1t-75 -5zM343 285q36 0 82 3l2 4l-76 200l-82 -200q0 -4 2 -4q35 -3 72 -3zM461 825q-4 0 -7 4.5t-3 8.5q0 2 10 13.5t25.5 26.5t31 29t27.5 23q3 2 14 2q17 0 29.5 -7t12.5 -19q0 -9 -18.5 -22.5t-44.5 -27t-48 -22.5t-29 -9zM263 723q-10 0 -10 19l24 21l22 20
l22 20q13 13 23.5 24.5t18.5 22.5q8 9 12 9q5 0 12 -9q15 -17 25.5 -29t15.5 -17q29 -27 48 -43.5t21 -18.5q0 -19 -10 -19q-19 0 -112 60q-16 -11 -40 -25.5t-45 -24.5t-27 -10z" />
    <glyph glyph-name="uni1EAC" unicode="&#x1eac;" horiz-adv-x="736" 
d="M31 -3q-4 4 -4 15q0 18 2 18q8 0 23.5 4t30 10.5t18.5 13.5q10 15 19 34.5t19 43.5l186 450q24 61 37 72q7 7 17 7q7 0 12 -5l210 -524q8 -19 15.5 -37.5t14.5 -35.5q4 -10 18 -17.5t29 -11.5t23 -4q4 0 4 -18q0 -11 -2 -15l-126 6l-130 -6q-4 4 -4 19q0 14 4 14
q12 0 33 6t25 14q3 6 3 13q0 10 -5 27t-14 42l-35 93q-4 4 -7 4q-16 1 -37.5 1.5t-48.5 0.5q-54 0 -114 -3q-6 0 -6 -4l-38 -93q-10 -25 -14.5 -41.5t-4.5 -23.5q0 -12 11 -20q6 -4 18.5 -7.5t25.5 -6t18 -2.5q3 -1 3 -14q0 -7 -0.5 -11.5t-1.5 -7.5q-37 2 -60.5 4t-43.5 2
t-48 -1t-75 -5zM343 285q36 0 82 3l2 4l-76 200l-82 -200q0 -4 2 -4q35 -3 72 -3zM368 -182q-25 0 -43.5 18.5t-18.5 43.5q0 26 18.5 44t43.5 18q26 0 44 -18t18 -44q0 -25 -18 -43.5t-44 -18.5zM263 723q-10 0 -10 19l24 21l22 20l22 20q13 13 23.5 24.5t18.5 22.5
q8 9 12 9q5 0 12 -9q15 -17 25.5 -29t15.5 -17q29 -27 48 -43.5t21 -18.5q0 -19 -10 -19q-19 0 -112 60q-16 -11 -40 -25.5t-45 -24.5t-27 -10z" />
    <glyph glyph-name="uni1EA6" unicode="&#x1ea6;" horiz-adv-x="736" 
d="M31 -3q-4 4 -4 15q0 18 2 18q8 0 23.5 4t30 10.5t18.5 13.5q10 15 19 34.5t19 43.5l186 450q24 61 37 72q7 7 17 7q7 0 12 -5l210 -524q8 -19 15.5 -37.5t14.5 -35.5q4 -10 18 -17.5t29 -11.5t23 -4q4 0 4 -18q0 -11 -2 -15l-126 6l-130 -6q-4 4 -4 19q0 14 4 14
q12 0 33 6t25 14q3 6 3 13q0 10 -5 27t-14 42l-35 93q-4 4 -7 4q-16 1 -37.5 1.5t-48.5 0.5q-54 0 -114 -3q-6 0 -6 -4l-38 -93q-10 -25 -14.5 -41.5t-4.5 -23.5q0 -12 11 -20q6 -4 18.5 -7.5t25.5 -6t18 -2.5q3 -1 3 -14q0 -7 -0.5 -11.5t-1.5 -7.5q-37 2 -60.5 4t-43.5 2
t-48 -1t-75 -5zM343 285q36 0 82 3l2 4l-76 200l-82 -200q0 -4 2 -4q35 -3 72 -3zM525 823q-8 0 -30.5 10t-48.5 25t-44.5 30t-17.5 25q1 14 15 20.5t33 6.5q11 0 15 -3q11 -9 26 -25t29.5 -32.5t23.5 -28.5t9 -15q-1 -4 -3.5 -8.5t-6.5 -4.5zM263 723q-10 0 -10 19l24 21
l22 20l22 20q13 13 23.5 24.5t18.5 22.5q8 9 12 9q5 0 12 -9q15 -17 25.5 -29t15.5 -17q29 -27 48 -43.5t21 -18.5q0 -19 -10 -19q-19 0 -112 60q-16 -11 -40 -25.5t-45 -24.5t-27 -10z" />
    <glyph glyph-name="uni1EA8" unicode="&#x1ea8;" horiz-adv-x="736" 
d="M31 -3q-4 4 -4 15q0 18 2 18q8 0 23.5 4t30 10.5t18.5 13.5q10 15 19 34.5t19 43.5l186 450q24 61 37 72q7 7 17 7q7 0 12 -5l210 -524q8 -19 15.5 -37.5t14.5 -35.5q4 -10 18 -17.5t29 -11.5t23 -4q4 0 4 -18q0 -11 -2 -15l-126 6l-130 -6q-4 4 -4 19q0 14 4 14
q12 0 33 6t25 14q3 6 3 13q0 10 -5 27t-14 42l-35 93q-4 4 -7 4q-16 1 -37.5 1.5t-48.5 0.5q-54 0 -114 -3q-6 0 -6 -4l-38 -93q-10 -25 -14.5 -41.5t-4.5 -23.5q0 -12 11 -20q6 -4 18.5 -7.5t25.5 -6t18 -2.5q3 -1 3 -14q0 -7 -0.5 -11.5t-1.5 -7.5q-37 2 -60.5 4t-43.5 2
t-48 -1t-75 -5zM343 285q36 0 82 3l2 4l-76 200l-82 -200q0 -4 2 -4q35 -3 72 -3zM263 723q-10 0 -10 19l24 21l22 20l22 20q13 13 23.5 24.5t18.5 22.5q8 9 12 9q5 0 12 -9q15 -17 25.5 -29t15.5 -17q29 -27 48 -43.5t21 -18.5q0 -19 -10 -19q-19 0 -112 60
q-16 -11 -40 -25.5t-45 -24.5t-27 -10zM469 817q-12 0 -21.5 8t-9.5 20q0 11 11.5 17.5t23.5 18.5q9 9 14.5 16.5t5.5 15.5t-6 12t-14 4q-18 0 -36 -18q-9 -9 -14.5 -13.5t-11.5 -4.5q-10 0 -15 10t-5 24q10 14 37.5 30t58.5 16q28 0 47.5 -15t19.5 -40q0 -16 -14 -30
t-29 -25q-14 -10 -22.5 -14t-8.5 -12q0 -6 5 -14q0 -6 -16 -6z" />
    <glyph glyph-name="uni1EAA" unicode="&#x1eaa;" horiz-adv-x="736" 
d="M31 -3q-4 4 -4 15q0 18 2 18q8 0 23.5 4t30 10.5t18.5 13.5q10 15 19 34.5t19 43.5l186 450q24 61 37 72q7 7 17 7q7 0 12 -5l210 -524q8 -19 15.5 -37.5t14.5 -35.5q4 -10 18 -17.5t29 -11.5t23 -4q4 0 4 -18q0 -11 -2 -15l-126 6l-130 -6q-4 4 -4 19q0 14 4 14
q12 0 33 6t25 14q3 6 3 13q0 10 -5 27t-14 42l-35 93q-4 4 -7 4q-16 1 -37.5 1.5t-48.5 0.5q-54 0 -114 -3q-6 0 -6 -4l-38 -93q-10 -25 -14.5 -41.5t-4.5 -23.5q0 -12 11 -20q6 -4 18.5 -7.5t25.5 -6t18 -2.5q3 -1 3 -14q0 -7 -0.5 -11.5t-1.5 -7.5q-37 2 -60.5 4t-43.5 2
t-48 -1t-75 -5zM343 285q36 0 82 3l2 4l-76 200l-82 -200q0 -4 2 -4q35 -3 72 -3zM263 723q-10 0 -10 19l24 21l22 20l22 20q13 13 23.5 24.5t18.5 22.5q8 9 12 9q5 0 12 -9q15 -17 25.5 -29t15.5 -17q29 -27 48 -43.5t21 -18.5q0 -19 -10 -19q-19 0 -112 60
q-16 -11 -40 -25.5t-45 -24.5t-27 -10zM527 868q-36 0 -91 31q-55 30 -91 30q-15 0 -27.5 -13t-23 -25.5t-19.5 -12.5q-8 0 -8 19q0 17 18 44q37 46 83 46q36 0 91 -30q55 -31 91 -31q17 0 43 26q24 25 26 25q7 0 7 -20q0 -18 -17 -44q-34 -45 -82 -45z" />
    <glyph glyph-name="Adieresis" unicode="&#xc4;" horiz-adv-x="736" 
d="M31 -3q-4 4 -4 15q0 18 2 18q8 0 23.5 4t30 10.5t18.5 13.5q10 15 19 34.5t19 43.5l186 450q24 61 37 72q7 7 17 7q7 0 12 -5l210 -524q8 -19 15.5 -37.5t14.5 -35.5q4 -10 18 -17.5t29 -11.5t23 -4q4 0 4 -18q0 -11 -2 -15l-126 6l-130 -6q-4 4 -4 19q0 14 4 14
q12 0 33 6t25 14q3 6 3 13q0 10 -5 27t-14 42l-35 93q-4 4 -7 4q-16 1 -37.5 1.5t-48.5 0.5q-54 0 -114 -3q-6 0 -6 -4l-38 -93q-10 -25 -14.5 -41.5t-4.5 -23.5q0 -12 11 -20q6 -4 18.5 -7.5t25.5 -6t18 -2.5q3 -1 3 -14q0 -7 -0.5 -11.5t-1.5 -7.5q-37 2 -60.5 4t-43.5 2
t-48 -1t-75 -5zM343 285q36 0 82 3l2 4l-76 200l-82 -200q0 -4 2 -4q35 -3 72 -3zM469 726q-25 0 -42 17t-17 42q0 23 17 40t42 17q23 0 40 -17t17 -40q0 -25 -17 -42t-40 -17zM284 726q-25 0 -42 17t-17 42q0 23 17 40t42 17q23 0 40 -17t17 -40q0 -25 -17 -42t-40 -17z
" />
    <glyph glyph-name="uni1EA0" unicode="&#x1ea0;" horiz-adv-x="736" 
d="M31 -3q-4 4 -4 15q0 18 2 18q8 0 23.5 4t30 10.5t18.5 13.5q10 15 19 34.5t19 43.5l186 450q24 61 37 72q7 7 17 7q7 0 12 -5l210 -524q8 -19 15.5 -37.5t14.5 -35.5q4 -10 18 -17.5t29 -11.5t23 -4q4 0 4 -18q0 -11 -2 -15l-126 6l-130 -6q-4 4 -4 19q0 14 4 14
q12 0 33 6t25 14q3 6 3 13q0 10 -5 27t-14 42l-35 93q-4 4 -7 4q-16 1 -37.5 1.5t-48.5 0.5q-54 0 -114 -3q-6 0 -6 -4l-38 -93q-10 -25 -14.5 -41.5t-4.5 -23.5q0 -12 11 -20q6 -4 18.5 -7.5t25.5 -6t18 -2.5q3 -1 3 -14q0 -7 -0.5 -11.5t-1.5 -7.5q-37 2 -60.5 4t-43.5 2
t-48 -1t-75 -5zM343 285q36 0 82 3l2 4l-76 200l-82 -200q0 -4 2 -4q35 -3 72 -3zM368 -182q-25 0 -43.5 18.5t-18.5 43.5q0 26 18.5 44t43.5 18q26 0 44 -18t18 -44q0 -25 -18 -43.5t-44 -18.5z" />
    <glyph glyph-name="Agrave" unicode="&#xc0;" horiz-adv-x="736" 
d="M31 -3q-4 4 -4 15q0 18 2 18q8 0 23.5 4t30 10.5t18.5 13.5q10 15 19 34.5t19 43.5l186 450q24 61 37 72q7 7 17 7q7 0 12 -5l210 -524q8 -19 15.5 -37.5t14.5 -35.5q4 -10 18 -17.5t29 -11.5t23 -4q4 0 4 -18q0 -11 -2 -15l-126 6l-130 -6q-4 4 -4 19q0 14 4 14
q12 0 33 6t25 14q3 6 3 13q0 10 -5 27t-14 42l-35 93q-4 4 -7 4q-16 1 -37.5 1.5t-48.5 0.5q-54 0 -114 -3q-6 0 -6 -4l-38 -93q-10 -25 -14.5 -41.5t-4.5 -23.5q0 -12 11 -20q6 -4 18.5 -7.5t25.5 -6t18 -2.5q3 -1 3 -14q0 -7 -0.5 -11.5t-1.5 -7.5q-37 2 -60.5 4t-43.5 2
t-48 -1t-75 -5zM343 285q36 0 82 3l2 4l-76 200l-82 -200q0 -4 2 -4q35 -3 72 -3zM420 733q-7 0 -27.5 7.5t-46.5 20t-50 26.5t-40 27t-16 23q0 15 16 24t38 9q12 0 18 -3q15 -11 35 -29t39.5 -37t32.5 -33.5t13 -17.5q0 -6 -4 -11.5t-8 -5.5z" />
    <glyph glyph-name="uni1EA2" unicode="&#x1ea2;" horiz-adv-x="736" 
d="M31 -3q-4 4 -4 15q0 18 2 18q8 0 23.5 4t30 10.5t18.5 13.5q10 15 19 34.5t19 43.5l186 450q24 61 37 72q7 7 17 7q7 0 12 -5l210 -524q8 -19 15.5 -37.5t14.5 -35.5q4 -10 18 -17.5t29 -11.5t23 -4q4 0 4 -18q0 -11 -2 -15l-126 6l-130 -6q-4 4 -4 19q0 14 4 14
q12 0 33 6t25 14q3 6 3 13q0 10 -5 27t-14 42l-35 93q-4 4 -7 4q-16 1 -37.5 1.5t-48.5 0.5q-54 0 -114 -3q-6 0 -6 -4l-38 -93q-10 -25 -14.5 -41.5t-4.5 -23.5q0 -12 11 -20q6 -4 18.5 -7.5t25.5 -6t18 -2.5q3 -1 3 -14q0 -7 -0.5 -11.5t-1.5 -7.5q-37 2 -60.5 4t-43.5 2
t-48 -1t-75 -5zM343 285q36 0 82 3l2 4l-76 200l-82 -200q0 -4 2 -4q35 -3 72 -3zM395 690q-12 0 -21.5 8t-9.5 20q0 11 11.5 17.5t23.5 18.5q9 9 14.5 16.5t5.5 15.5t-6 12t-14 4q-18 0 -36 -18q-9 -9 -14.5 -13.5t-11.5 -4.5q-10 0 -15 10t-5 24q10 14 37.5 30t58.5 16
q28 0 47.5 -15t19.5 -40q0 -16 -14 -30t-29 -25q-14 -10 -22.5 -14t-8.5 -12q0 -6 5 -14q0 -6 -16 -6z" />
    <glyph glyph-name="Amacron" unicode="&#x100;" horiz-adv-x="736" 
d="M31 -3q-4 4 -4 15q0 18 2 18q8 0 23.5 4t30 10.5t18.5 13.5q10 15 19 34.5t19 43.5l186 450q24 61 37 72q7 7 17 7q7 0 12 -5l210 -524q8 -19 15.5 -37.5t14.5 -35.5q4 -10 18 -17.5t29 -11.5t23 -4q4 0 4 -18q0 -11 -2 -15l-126 6l-130 -6q-4 4 -4 19q0 14 4 14
q12 0 33 6t25 14q3 6 3 13q0 10 -5 27t-14 42l-35 93q-4 4 -7 4q-16 1 -37.5 1.5t-48.5 0.5q-54 0 -114 -3q-6 0 -6 -4l-38 -93q-10 -25 -14.5 -41.5t-4.5 -23.5q0 -12 11 -20q6 -4 18.5 -7.5t25.5 -6t18 -2.5q3 -1 3 -14q0 -7 -0.5 -11.5t-1.5 -7.5q-37 2 -60.5 4t-43.5 2
t-48 -1t-75 -5zM343 285q36 0 82 3l2 4l-76 200l-82 -200q0 -4 2 -4q35 -3 72 -3zM245 748q-6 0 -6 4q0 20 4 35q4 16 10 16h268q6 0 6 -8q-2 -20 -10 -47h-272z" />
    <glyph glyph-name="Aogonek" unicode="&#x104;" horiz-adv-x="736" 
d="M31 -3q-4 4 -4 15q0 18 2 18q8 0 23.5 4t30 10.5t18.5 13.5q10 15 19 34.5t19 43.5l186 450q24 61 37 72q7 7 17 7q7 0 12 -5l210 -524q8 -19 15.5 -37.5t14.5 -35.5q4 -10 18 -17.5t29 -11.5t23 -4q4 0 4 -18q0 -11 -2 -15l-126 6l-130 -6q-4 4 -4 19q0 14 4 14
q12 0 33 6t25 14q3 6 3 13q0 10 -5 27t-14 42l-35 93q-4 4 -7 4q-16 1 -37.5 1.5t-48.5 0.5q-54 0 -114 -3q-6 0 -6 -4l-38 -93q-10 -25 -14.5 -41.5t-4.5 -23.5q0 -12 11 -20q6 -4 18.5 -7.5t25.5 -6t18 -2.5q3 -1 3 -14q0 -7 -0.5 -11.5t-1.5 -7.5q-37 2 -60.5 4t-43.5 2
t-48 -1t-75 -5zM343 285q36 0 82 3l2 4l-76 200l-82 -200q0 -4 2 -4q35 -3 72 -3zM525 -218q-32 0 -54 23t-22 54q0 25 18.5 54t47 54t56.5 37l44 -2q-24 -13 -46 -32.5t-36.5 -41t-14.5 -41.5q0 -15 10.5 -26t30.5 -11q14 0 28.5 5t23.5 10q8 5 18 12t11 8q4 0 4 -16
q0 -11 -5 -19q-18 -24 -49.5 -46t-64.5 -22z" />
    <glyph glyph-name="Aring" unicode="&#xc5;" horiz-adv-x="736" 
d="M31 -3q-4 4 -4 15q0 18 2 18q8 0 23.5 4t30 10.5t18.5 13.5q10 15 19 34.5t19 43.5l186 450q24 61 37 72q7 7 17 7q7 0 12 -5l210 -524q8 -19 15.5 -37.5t14.5 -35.5q4 -10 18 -17.5t29 -11.5t23 -4q4 0 4 -18q0 -11 -2 -15l-126 6l-130 -6q-4 4 -4 19q0 14 4 14
q12 0 33 6t25 14q3 6 3 13q0 10 -5 27t-14 42l-35 93q-4 4 -7 4q-16 1 -37.5 1.5t-48.5 0.5q-54 0 -114 -3q-6 0 -6 -4l-38 -93q-10 -25 -14.5 -41.5t-4.5 -23.5q0 -12 11 -20q6 -4 18.5 -7.5t25.5 -6t18 -2.5q3 -1 3 -14q0 -7 -0.5 -11.5t-1.5 -7.5q-37 2 -60.5 4t-43.5 2
t-48 -1t-75 -5zM343 285q36 0 82 3l2 4l-76 200l-82 -200q0 -4 2 -4q35 -3 72 -3zM375 664q-38 0 -66 28t-28 67t27.5 66t66.5 27q38 0 65 -27t27 -66t-27 -67t-65 -28zM375 704q22 0 37.5 16t15.5 39t-15.5 38.5t-37.5 15.5q-23 0 -38.5 -16t-15.5 -38q0 -23 16 -39t38 -16
z" />
    <glyph glyph-name="uni1E00" unicode="&#x1e00;" horiz-adv-x="736" 
d="M31 -3q-4 4 -4 15q0 18 2 18q8 0 23.5 4t30 10.5t18.5 13.5q10 15 19 34.5t19 43.5l186 450q24 61 37 72q7 7 17 7q7 0 12 -5l210 -524q8 -19 15.5 -37.5t14.5 -35.5q4 -10 18 -17.5t29 -11.5t23 -4q4 0 4 -18q0 -11 -2 -15l-126 6l-130 -6q-4 4 -4 19q0 14 4 14
q12 0 33 6t25 14q3 6 3 13q0 10 -5 27t-14 42l-35 93q-4 4 -7 4q-16 1 -37.5 1.5t-48.5 0.5q-54 0 -114 -3q-6 0 -6 -4l-38 -93q-10 -25 -14.5 -41.5t-4.5 -23.5q0 -12 11 -20q6 -4 18.5 -7.5t25.5 -6t18 -2.5q3 -1 3 -14q0 -7 -0.5 -11.5t-1.5 -7.5q-37 2 -60.5 4t-43.5 2
t-48 -1t-75 -5zM343 285q36 0 82 3l2 4l-76 200l-82 -200q0 -4 2 -4q35 -3 72 -3zM366 -246q-35 0 -64.5 26.5t-29.5 67.5q0 39 28 66.5t65 27.5q38 0 65.5 -27.5t27.5 -66.5q0 -40 -28.5 -67t-63.5 -27zM365 -206q23 0 38.5 16t15.5 38q0 24 -15 39.5t-39 15.5
q-22 0 -37.5 -15.5t-15.5 -39.5q0 -22 15.5 -38t37.5 -16z" />
    <glyph glyph-name="Atilde" unicode="&#xc3;" horiz-adv-x="736" 
d="M31 -3q-4 4 -4 15q0 18 2 18q8 0 23.5 4t30 10.5t18.5 13.5q10 15 19 34.5t19 43.5l186 450q24 61 37 72q7 7 17 7q7 0 12 -5l210 -524q8 -19 15.5 -37.5t14.5 -35.5q4 -10 18 -17.5t29 -11.5t23 -4q4 0 4 -18q0 -11 -2 -15l-126 6l-130 -6q-4 4 -4 19q0 14 4 14
q12 0 33 6t25 14q3 6 3 13q0 10 -5 27t-14 42l-35 93q-4 4 -7 4q-16 1 -37.5 1.5t-48.5 0.5q-54 0 -114 -3q-6 0 -6 -4l-38 -93q-10 -25 -14.5 -41.5t-4.5 -23.5q0 -12 11 -20q6 -4 18.5 -7.5t25.5 -6t18 -2.5q3 -1 3 -14q0 -7 -0.5 -11.5t-1.5 -7.5q-37 2 -60.5 4t-43.5 2
t-48 -1t-75 -5zM343 285q36 0 82 3l2 4l-76 200l-82 -200q0 -4 2 -4q35 -3 72 -3zM453 741q-36 0 -91 31q-55 30 -91 30q-15 0 -27.5 -13t-23 -25.5t-19.5 -12.5q-8 0 -8 19q0 17 18 44q37 46 83 46q36 0 91 -30q55 -31 91 -31q17 0 43 26q24 25 26 25q7 0 7 -20
q0 -18 -17 -44q-34 -45 -82 -45z" />
    <glyph glyph-name="AE" unicode="&#xc6;" horiz-adv-x="914" 
d="M5 -6q-2 3 -1 16q2 14 7 14q8 0 23.5 5t31 12.5t21.5 14.5q13 15 26.5 34.5t28.5 43.5l283 450q5 8 5 16l-2 5q-3 8 -21 13.5t-30 5.5q-4 0 -4 16q0 14 4 18q30 -2 61.5 -3t65.5 -1q22 0 61 1t94 3q56 2 98 3t70 1q2 -15 6 -36t10 -47l13 -59q-5 -5 -21 -5q-11 0 -14 7
q-33 89 -128 89h-52q-75 0 -76 -13q-6 -28 -6 -81v-157q0 -6 44 -6h56q57 0 69 5q11 5 17 35q3 13 6 25q1 7 16 7q14 0 19 -5v-189q-4 -4 -19 -4q-13 0 -16 8q-4 14 -7 23.5t-5 16.5q-5 11 -6 12.5t-10 7.5q-14 8 -92 8q-72 0 -72 -8v-155q0 -55 9 -81q4 -13 68 -13h37
q79 0 119 21q16 8 36 35t31 61q2 6 14 6q22 0 28 -6l-32 -89q-6 -16 -13 -40.5t-9 -39.5q-28 0 -72.5 0.5t-105.5 1.5q-61 2 -101.5 3t-62.5 0l-128 -6q-4 4 -4 18q0 18 4 18q9 0 22.5 2.5t25.5 7.5t14 10q4 14 5.5 34.5t1.5 48.5v90q-1 4 -5 4q-16 1 -30 1.5t-27 0.5
q-54 0 -114 -3q-7 0 -7 -4l-58 -93q-30 -49 -33 -65q-3 -13 6 -22q8 -7 28 -12t29 -5q3 -1 0.5 -13t-5.5 -18q-6 1 -24.5 2t-40.5 2.5t-40 1.5t-43 -1.5t-46.5 -2.5t-30.5 -2zM379 283l52 3q5 0 10 3t5 7v200q0 4 -4 4q-5 0 -8 -6l-127 -204q-1 -4 1 -4q17 -1 34.5 -2.5
t36.5 -0.5z" />
    <glyph glyph-name="AEacute" unicode="&#x1fc;" horiz-adv-x="914" 
d="M5 -6q-2 3 -1 16q2 14 7 14q8 0 23.5 5t31 12.5t21.5 14.5q13 15 26.5 34.5t28.5 43.5l283 450q5 8 5 16l-2 5q-3 8 -21 13.5t-30 5.5q-4 0 -4 16q0 14 4 18q30 -2 61.5 -3t65.5 -1q22 0 61 1t94 3q56 2 98 3t70 1q2 -15 6 -36t10 -47l13 -59q-5 -5 -21 -5q-11 0 -14 7
q-33 89 -128 89h-52q-75 0 -76 -13q-6 -28 -6 -81v-157q0 -6 44 -6h56q57 0 69 5q11 5 17 35q3 13 6 25q1 7 16 7q14 0 19 -5v-189q-4 -4 -19 -4q-13 0 -16 8q-4 14 -7 23.5t-5 16.5q-5 11 -6 12.5t-10 7.5q-14 8 -92 8q-72 0 -72 -8v-155q0 -55 9 -81q4 -13 68 -13h37
q79 0 119 21q16 8 36 35t31 61q2 6 14 6q22 0 28 -6l-32 -89q-6 -16 -13 -40.5t-9 -39.5q-28 0 -72.5 0.5t-105.5 1.5q-61 2 -101.5 3t-62.5 0l-128 -6q-4 4 -4 18q0 18 4 18q9 0 22.5 2.5t25.5 7.5t14 10q4 14 5.5 34.5t1.5 48.5v90q-1 4 -5 4q-16 1 -30 1.5t-27 0.5
q-54 0 -114 -3q-7 0 -7 -4l-58 -93q-30 -49 -33 -65q-3 -13 6 -22q8 -7 28 -12t29 -5q3 -1 0.5 -13t-5.5 -18q-6 1 -24.5 2t-40.5 2.5t-40 1.5t-43 -1.5t-46.5 -2.5t-30.5 -2zM379 283l52 3q5 0 10 3t5 7v200q0 4 -4 4q-5 0 -8 -6l-127 -204q-1 -4 1 -4q17 -1 34.5 -2.5
t36.5 -0.5zM570 733q-4 0 -8 5.5t-4 11.5q0 3 13 17.5t32.5 33.5t39.5 37t35 29q6 3 18 3q22 0 38 -9t16 -24q0 -11 -16.5 -24.5t-41.5 -27.5t-51 -26t-45.5 -19t-25.5 -7z" />
    <glyph glyph-name="uni01E2" unicode="&#x1e2;" horiz-adv-x="914" 
d="M5 -6q-2 3 -1 16q2 14 7 14q8 0 23.5 5t31 12.5t21.5 14.5q13 15 26.5 34.5t28.5 43.5l283 450q5 8 5 16l-2 5q-3 8 -21 13.5t-30 5.5q-4 0 -4 16q0 14 4 18q30 -2 61.5 -3t65.5 -1q22 0 61 1t94 3q56 2 98 3t70 1q2 -15 6 -36t10 -47l13 -59q-5 -5 -21 -5q-11 0 -14 7
q-33 89 -128 89h-52q-75 0 -76 -13q-6 -28 -6 -81v-157q0 -6 44 -6h56q57 0 69 5q11 5 17 35q3 13 6 25q1 7 16 7q14 0 19 -5v-189q-4 -4 -19 -4q-13 0 -16 8q-4 14 -7 23.5t-5 16.5q-5 11 -6 12.5t-10 7.5q-14 8 -92 8q-72 0 -72 -8v-155q0 -55 9 -81q4 -13 68 -13h37
q79 0 119 21q16 8 36 35t31 61q2 6 14 6q22 0 28 -6l-32 -89q-6 -16 -13 -40.5t-9 -39.5q-28 0 -72.5 0.5t-105.5 1.5q-61 2 -101.5 3t-62.5 0l-128 -6q-4 4 -4 18q0 18 4 18q9 0 22.5 2.5t25.5 7.5t14 10q4 14 5.5 34.5t1.5 48.5v90q-1 4 -5 4q-16 1 -30 1.5t-27 0.5
q-54 0 -114 -3q-7 0 -7 -4l-58 -93q-30 -49 -33 -65q-3 -13 6 -22q8 -7 28 -12t29 -5q3 -1 0.5 -13t-5.5 -18q-6 1 -24.5 2t-40.5 2.5t-40 1.5t-43 -1.5t-46.5 -2.5t-30.5 -2zM379 283l52 3q5 0 10 3t5 7v200q0 4 -4 4q-5 0 -8 -6l-127 -204q-1 -4 1 -4q17 -1 34.5 -2.5
t36.5 -0.5zM484 748q-6 0 -6 4q0 20 4 35q4 16 10 16h268q6 0 6 -8q-2 -20 -10 -47h-272z" />
    <glyph glyph-name="B" unicode="B" horiz-adv-x="586" 
d="M30 -3q-3 3 -3 16q0 17 3 17q9 0 23.5 3t28 8t15.5 11q7 20 7 91v378q0 61 -7 82q-2 8 -14.5 13.5t-28 8.5t-25.5 3q-4 0 -4 15q0 14 4 18q66 -3 133 -3l86 1h60q75 0 142 -36q34 -19 55.5 -54t21.5 -81q0 -35 -21 -67q-21 -31 -39.5 -43.5t-31.5 -17.5q-8 -3 -4 -6
q25 -4 54.5 -26.5t51.5 -58.5t22 -82q0 -57 -31.5 -99.5t-88.5 -65t-134 -22.5l-142 1zM277 372q37 0 56 6q73 16 73 98q0 135 -115 135q-46 0 -64 -5q-8 -2 -8 -11l-2 -96v-117q0 -10 60 -10zM293 50q22 0 43 4.5t46 16.5q24 11 39.5 38.5t15.5 66.5q0 64 -35.5 105.5
t-114.5 41.5q-14 0 -29.5 -1.5t-32.5 -3.5q-8 -5 -8 -20v-186q0 -41 12 -52q13 -10 64 -10z" />
    <glyph glyph-name="uni1E02" unicode="&#x1e02;" horiz-adv-x="586" 
d="M30 -3q-3 3 -3 16q0 17 3 17q9 0 23.5 3t28 8t15.5 11q7 20 7 91v378q0 61 -7 82q-2 8 -14.5 13.5t-28 8.5t-25.5 3q-4 0 -4 15q0 14 4 18q66 -3 133 -3l86 1h60q75 0 142 -36q34 -19 55.5 -54t21.5 -81q0 -35 -21 -67q-21 -31 -39.5 -43.5t-31.5 -17.5q-8 -3 -4 -6
q25 -4 54.5 -26.5t51.5 -58.5t22 -82q0 -57 -31.5 -99.5t-88.5 -65t-134 -22.5l-142 1zM277 372q37 0 56 6q73 16 73 98q0 135 -115 135q-46 0 -64 -5q-8 -2 -8 -11l-2 -96v-117q0 -10 60 -10zM293 50q22 0 43 4.5t46 16.5q24 11 39.5 38.5t15.5 66.5q0 64 -35.5 105.5
t-114.5 41.5q-14 0 -29.5 -1.5t-32.5 -3.5q-8 -5 -8 -20v-186q0 -41 12 -52q13 -10 64 -10zM294 770q-25 0 -43 18t-18 43t18 42.5t43 17.5t42.5 -17.5t17.5 -42.5t-17.5 -43t-42.5 -18z" />
    <glyph glyph-name="uni1E04" unicode="&#x1e04;" horiz-adv-x="586" 
d="M30 -3q-3 3 -3 16q0 17 3 17q9 0 23.5 3t28 8t15.5 11q7 20 7 91v378q0 61 -7 82q-2 8 -14.5 13.5t-28 8.5t-25.5 3q-4 0 -4 15q0 14 4 18q66 -3 133 -3l86 1h60q75 0 142 -36q34 -19 55.5 -54t21.5 -81q0 -35 -21 -67q-21 -31 -39.5 -43.5t-31.5 -17.5q-8 -3 -4 -6
q25 -4 54.5 -26.5t51.5 -58.5t22 -82q0 -57 -31.5 -99.5t-88.5 -65t-134 -22.5l-142 1zM277 372q37 0 56 6q73 16 73 98q0 135 -115 135q-46 0 -64 -5q-8 -2 -8 -11l-2 -96v-117q0 -10 60 -10zM293 50q22 0 43 4.5t46 16.5q24 11 39.5 38.5t15.5 66.5q0 64 -35.5 105.5
t-114.5 41.5q-14 0 -29.5 -1.5t-32.5 -3.5q-8 -5 -8 -20v-186q0 -41 12 -52q13 -10 64 -10zM293 -182q-25 0 -43.5 18.5t-18.5 43.5q0 26 18.5 44t43.5 18q26 0 44 -18t18 -44q0 -25 -18 -43.5t-44 -18.5z" />
    <glyph glyph-name="Bmacronbelow" unicode="&#x1e06;" horiz-adv-x="586" 
d="M30 -3q-3 3 -3 16q0 17 3 17q9 0 23.5 3t28 8t15.5 11q7 20 7 91v378q0 61 -7 82q-2 8 -14.5 13.5t-28 8.5t-25.5 3q-4 0 -4 15q0 14 4 18q66 -3 133 -3l86 1h60q75 0 142 -36q34 -19 55.5 -54t21.5 -81q0 -35 -21 -67q-21 -31 -39.5 -43.5t-31.5 -17.5q-8 -3 -4 -6
q25 -4 54.5 -26.5t51.5 -58.5t22 -82q0 -57 -31.5 -99.5t-88.5 -65t-134 -22.5l-142 1zM277 372q37 0 56 6q73 16 73 98q0 135 -115 135q-46 0 -64 -5q-8 -2 -8 -11l-2 -96v-117q0 -10 60 -10zM293 50q22 0 43 4.5t46 16.5q24 11 39.5 38.5t15.5 66.5q0 64 -35.5 105.5
t-114.5 41.5q-14 0 -29.5 -1.5t-32.5 -3.5q-8 -5 -8 -20v-186q0 -41 12 -52q13 -10 64 -10zM146 -128q-6 0 -6 4q0 20 4 35q4 16 10 16h268q6 0 6 -8q-2 -20 -10 -47h-272z" />
    <glyph glyph-name="C" unicode="C" horiz-adv-x="639" 
d="M343 -6q-66 0 -123.5 26t-101.5 71t-68.5 104.5t-24.5 126.5q0 71 25 133.5t70 110t105 74.5t129 27q113 0 236 -27q2 0 3.5 -19.5t2.5 -46t2 -49.5t1 -31q0 -15 -24 -15q-7 0 -14 4q-4 18 -14.5 37t-31.5 43t-62 39.5t-95 15.5q-65 0 -111.5 -37.5t-71 -99.5t-24.5 -138
q0 -84 27.5 -152t80.5 -108.5t127 -40.5q88 0 141 56q16 17 24.5 38.5t13.5 38t9 16.5q35 0 39 -9q0 -6 -4.5 -28.5t-10.5 -49t-12.5 -46.5t-10.5 -22q-87 -42 -232 -42z" />
    <glyph glyph-name="Cacute" unicode="&#x106;" horiz-adv-x="639" 
d="M343 -6q-66 0 -123.5 26t-101.5 71t-68.5 104.5t-24.5 126.5q0 71 25 133.5t70 110t105 74.5t129 27q113 0 236 -27q2 0 3.5 -19.5t2.5 -46t2 -49.5t1 -31q0 -15 -24 -15q-7 0 -14 4q-4 18 -14.5 37t-31.5 43t-62 39.5t-95 15.5q-65 0 -111.5 -37.5t-71 -99.5t-24.5 -138
q0 -84 27.5 -152t80.5 -108.5t127 -40.5q88 0 141 56q16 17 24.5 38.5t13.5 38t9 16.5q35 0 39 -9q0 -6 -4.5 -28.5t-10.5 -49t-12.5 -46.5t-10.5 -22q-87 -42 -232 -42zM336 733q-4 0 -8 5.5t-4 11.5q0 3 13 17.5t32.5 33.5t39.5 37t35 29q6 3 18 3q22 0 38 -9t16 -24
q0 -11 -16.5 -24.5t-41.5 -27.5t-51 -26t-45.5 -19t-25.5 -7z" />
    <glyph glyph-name="Ccaron" unicode="&#x10c;" horiz-adv-x="639" 
d="M343 -6q-66 0 -123.5 26t-101.5 71t-68.5 104.5t-24.5 126.5q0 71 25 133.5t70 110t105 74.5t129 27q113 0 236 -27q2 0 3.5 -19.5t2.5 -46t2 -49.5t1 -31q0 -15 -24 -15q-7 0 -14 4q-4 18 -14.5 37t-31.5 43t-62 39.5t-95 15.5q-65 0 -111.5 -37.5t-71 -99.5t-24.5 -138
q0 -84 27.5 -152t80.5 -108.5t127 -40.5q88 0 141 56q16 17 24.5 38.5t13.5 38t9 16.5q35 0 39 -9q0 -6 -4.5 -28.5t-10.5 -49t-12.5 -46.5t-10.5 -22q-87 -42 -232 -42zM380 734q-4 0 -12 8q-8 11 -18.5 22.5t-23.5 24.5q-11 11 -22 21l-22 20t-17 14.5t-7 5.5q0 20 10 20
q6 0 27 -10t45 -24t40 -26q93 60 112 60q10 0 10 -20q-2 -2 -21 -18.5t-48 -43.5q-5 -5 -15.5 -17t-25.5 -29q-6 -8 -12 -8z" />
    <glyph glyph-name="Ccedilla" unicode="&#xc7;" horiz-adv-x="639" 
d="M343 -6q-66 0 -123.5 26t-101.5 71t-68.5 104.5t-24.5 126.5q0 71 25 133.5t70 110t105 74.5t129 27q113 0 236 -27q2 0 3.5 -19.5t2.5 -46t2 -49.5t1 -31q0 -15 -24 -15q-7 0 -14 4q-4 18 -14.5 37t-31.5 43t-62 39.5t-95 15.5q-65 0 -111.5 -37.5t-71 -99.5t-24.5 -138
q0 -84 27.5 -152t80.5 -108.5t127 -40.5q88 0 141 56q16 17 24.5 38.5t13.5 38t9 16.5q35 0 39 -9q0 -6 -4.5 -28.5t-10.5 -49t-12.5 -46.5t-10.5 -22q-87 -42 -232 -42zM310 -179q-28 0 -48 15q-3 15 -3 18q0 6 4 11t9 5q3 0 21 -8t29 -8q23 0 36 10.5t13 25.5
q0 16 -9.5 26.5t-23.5 10.5q-17 0 -32 -7q-2 0 -8.5 6.5t-5.5 9.5q6 10 15 25.5t20 37.5h31l-19 -29h26q24 0 41 -17.5t17 -40.5q0 -41 -31.5 -66t-81.5 -25z" />
    <glyph glyph-name="uni1E08" unicode="&#x1e08;" horiz-adv-x="639" 
d="M343 -6q-66 0 -123.5 26t-101.5 71t-68.5 104.5t-24.5 126.5q0 71 25 133.5t70 110t105 74.5t129 27q113 0 236 -27q2 0 3.5 -19.5t2.5 -46t2 -49.5t1 -31q0 -15 -24 -15q-7 0 -14 4q-4 18 -14.5 37t-31.5 43t-62 39.5t-95 15.5q-65 0 -111.5 -37.5t-71 -99.5t-24.5 -138
q0 -84 27.5 -152t80.5 -108.5t127 -40.5q88 0 141 56q16 17 24.5 38.5t13.5 38t9 16.5q35 0 39 -9q0 -6 -4.5 -28.5t-10.5 -49t-12.5 -46.5t-10.5 -22q-87 -42 -232 -42zM336 733q-4 0 -8 5.5t-4 11.5q0 3 13 17.5t32.5 33.5t39.5 37t35 29q6 3 18 3q22 0 38 -9t16 -24
q0 -11 -16.5 -24.5t-41.5 -27.5t-51 -26t-45.5 -19t-25.5 -7zM310 -179q-28 0 -48 15q-3 15 -3 18q0 6 4 11t9 5q3 0 21 -8t29 -8q23 0 36 10.5t13 25.5q0 16 -9.5 26.5t-23.5 10.5q-17 0 -32 -7q-2 0 -8.5 6.5t-5.5 9.5q6 10 15 25.5t20 37.5h31l-19 -29h26q24 0 41 -17.5
t17 -40.5q0 -41 -31.5 -66t-81.5 -25z" />
    <glyph glyph-name="Ccircumflex" unicode="&#x108;" horiz-adv-x="639" 
d="M343 -6q-66 0 -123.5 26t-101.5 71t-68.5 104.5t-24.5 126.5q0 71 25 133.5t70 110t105 74.5t129 27q113 0 236 -27q2 0 3.5 -19.5t2.5 -46t2 -49.5t1 -31q0 -15 -24 -15q-7 0 -14 4q-4 18 -14.5 37t-31.5 43t-62 39.5t-95 15.5q-65 0 -111.5 -37.5t-71 -99.5t-24.5 -138
q0 -84 27.5 -152t80.5 -108.5t127 -40.5q88 0 141 56q16 17 24.5 38.5t13.5 38t9 16.5q35 0 39 -9q0 -6 -4.5 -28.5t-10.5 -49t-12.5 -46.5t-10.5 -22q-87 -42 -232 -42zM268 723q-10 0 -10 19l24 21l22 20l22 20q13 13 23.5 24.5t18.5 22.5q8 9 12 9q5 0 12 -9
q15 -17 25.5 -29t15.5 -17q29 -27 48 -43.5t21 -18.5q0 -19 -10 -19q-19 0 -112 60q-16 -11 -40 -25.5t-45 -24.5t-27 -10z" />
    <glyph glyph-name="Cdotaccent" unicode="&#x10a;" horiz-adv-x="639" 
d="M343 -6q-66 0 -123.5 26t-101.5 71t-68.5 104.5t-24.5 126.5q0 71 25 133.5t70 110t105 74.5t129 27q113 0 236 -27q2 0 3.5 -19.5t2.5 -46t2 -49.5t1 -31q0 -15 -24 -15q-7 0 -14 4q-4 18 -14.5 37t-31.5 43t-62 39.5t-95 15.5q-65 0 -111.5 -37.5t-71 -99.5t-24.5 -138
q0 -84 27.5 -152t80.5 -108.5t127 -40.5q88 0 141 56q16 17 24.5 38.5t13.5 38t9 16.5q35 0 39 -9q0 -6 -4.5 -28.5t-10.5 -49t-12.5 -46.5t-10.5 -22q-87 -42 -232 -42zM381 770q-25 0 -43 18t-18 43t18 42.5t43 17.5t42.5 -17.5t17.5 -42.5t-17.5 -43t-42.5 -18z" />
    <glyph glyph-name="D" unicode="D" horiz-adv-x="708" 
d="M30 -3q-3 3 -3 16q0 17 3 17q9 0 23.5 3t28 8t15.5 11q7 20 7 91v378q0 61 -7 82q-2 8 -14.5 13.5t-28 8.5t-25.5 3q-4 0 -4 15q0 14 4 18q66 -3 133 -3h173q81 0 145.5 -25.5t109 -70.5t68 -103t23.5 -123q0 -96 -41.5 -172.5t-119.5 -121.5t-186 -45q-10 0 -30.5 0.5
t-51.5 1.5t-53 2t-36 0zM350 48q203 0 203 292q0 75 -24.5 135.5t-71 96.5t-114.5 36h-5q-96 0 -108 -16q-13 -17 -13 -62v-392q0 -55 11 -74q16 -16 122 -16z" />
    <glyph glyph-name="Eth" unicode="&#xd0;" horiz-adv-x="718" 
d="M36 -4q-4 4 -4 16q0 18 4 18q8 0 23 3t28.5 8t15.5 11q7 17 7 91v165h-56q-6 0 -6 14q0 21 6 28h56v171q0 58 -7 82q-2 6 -15.5 11.5t-29 9.5t-23.5 4q-4 0 -4 15t3 18q68 -3 134 -3h174q83 0 150.5 -27.5t109.5 -73.5q41 -46 62.5 -103t21.5 -118q0 -96 -41 -172.5
t-118 -121.5t-187 -45l-75 2q-29 2 -53 2.5t-43 -0.5q-28 0 -61 -1t-53 -2zM356 48q100 0 153 73.5t53 218.5q0 72 -22 131q-22 60 -72 98.5t-118 38.5h-6q-96 0 -108 -16q-13 -16 -13 -62v-180h177q6 0 6 -12q0 -16 -6 -30h-177v-170q0 -56 12 -74q6 -5 28.5 -9t49 -5.5
t43.5 -1.5z" />
    <glyph glyph-name="Dcaron" unicode="&#x10e;" horiz-adv-x="708" 
d="M30 -3q-3 3 -3 16q0 17 3 17q9 0 23.5 3t28 8t15.5 11q7 20 7 91v378q0 61 -7 82q-2 8 -14.5 13.5t-28 8.5t-25.5 3q-4 0 -4 15q0 14 4 18q66 -3 133 -3h173q81 0 145.5 -25.5t109 -70.5t68 -103t23.5 -123q0 -96 -41.5 -172.5t-119.5 -121.5t-186 -45q-10 0 -30.5 0.5
t-51.5 1.5t-53 2t-36 0zM350 48q203 0 203 292q0 75 -24.5 135.5t-71 96.5t-114.5 36h-5q-96 0 -108 -16q-13 -17 -13 -62v-392q0 -55 11 -74q16 -16 122 -16zM333 734q-4 0 -12 8q-8 11 -18.5 22.5t-23.5 24.5q-11 11 -22 21l-22 20t-17 14.5t-7 5.5q0 20 10 20q6 0 27 -10
t45 -24t40 -26q93 60 112 60q10 0 10 -20q-2 -2 -21 -18.5t-48 -43.5q-5 -5 -15.5 -17t-25.5 -29q-6 -8 -12 -8z" />
    <glyph glyph-name="uni1E10" unicode="&#x1e10;" horiz-adv-x="708" 
d="M30 -3q-3 3 -3 16q0 17 3 17q9 0 23.5 3t28 8t15.5 11q7 20 7 91v378q0 61 -7 82q-2 8 -14.5 13.5t-28 8.5t-25.5 3q-4 0 -4 15q0 14 4 18q66 -3 133 -3h173q81 0 145.5 -25.5t109 -70.5t68 -103t23.5 -123q0 -96 -41.5 -172.5t-119.5 -121.5t-186 -45q-10 0 -30.5 0.5
t-51.5 1.5t-53 2t-36 0zM350 48q203 0 203 292q0 75 -24.5 135.5t-71 96.5t-114.5 36h-5q-96 0 -108 -16q-13 -17 -13 -62v-392q0 -55 11 -74q16 -16 122 -16zM320 -222q-7 0 -15.5 4t-8.5 7q11 10 27.5 24t16.5 29q0 16 -20 30q-21 14 -21 31q0 23 25.5 38t65.5 15
q9 -8 15.5 -25.5t6.5 -32.5q0 -67 -87 -120h-5z" />
    <glyph glyph-name="uni1E12" unicode="&#x1e12;" horiz-adv-x="708" 
d="M30 -3q-3 3 -3 16q0 17 3 17q9 0 23.5 3t28 8t15.5 11q7 20 7 91v378q0 61 -7 82q-2 8 -14.5 13.5t-28 8.5t-25.5 3q-4 0 -4 15q0 14 4 18q66 -3 133 -3h173q81 0 145.5 -25.5t109 -70.5t68 -103t23.5 -123q0 -96 -41.5 -172.5t-119.5 -121.5t-186 -45q-10 0 -30.5 0.5
t-51.5 1.5t-53 2t-36 0zM350 48q203 0 203 292q0 75 -24.5 135.5t-71 96.5t-114.5 36h-5q-96 0 -108 -16q-13 -17 -13 -62v-392q0 -55 11 -74q16 -16 122 -16zM238 -207q-10 0 -10 19l24 21l22 20l22 20q13 13 23.5 24.5t18.5 22.5q8 9 12 9q5 0 12 -9q15 -17 25.5 -29
t15.5 -17q29 -27 48 -43.5t21 -18.5q0 -19 -10 -19q-19 0 -112 60q-16 -11 -40 -25.5t-45 -24.5t-27 -10z" />
    <glyph glyph-name="Dcroat" unicode="&#x110;" horiz-adv-x="718" 
d="M36 -4q-4 4 -4 16q0 18 4 18q8 0 23 3t28.5 8t15.5 11q7 17 7 91v165h-56q-6 0 -6 14q0 21 6 28h56v171q0 58 -7 82q-2 6 -15.5 11.5t-29 9.5t-23.5 4q-4 0 -4 15t3 18q68 -3 134 -3h174q83 0 150.5 -27.5t109.5 -73.5q41 -46 62.5 -103t21.5 -118q0 -96 -41 -172.5
t-118 -121.5t-187 -45l-75 2q-29 2 -53 2.5t-43 -0.5q-28 0 -61 -1t-53 -2zM356 48q100 0 153 73.5t53 218.5q0 72 -22 131q-22 60 -72 98.5t-118 38.5h-6q-96 0 -108 -16q-13 -16 -13 -62v-180h177q6 0 6 -12q0 -16 -6 -30h-177v-170q0 -56 12 -74q6 -5 28.5 -9t49 -5.5
t43.5 -1.5z" />
    <glyph glyph-name="uni1E0A" unicode="&#x1e0a;" horiz-adv-x="708" 
d="M30 -3q-3 3 -3 16q0 17 3 17q9 0 23.5 3t28 8t15.5 11q7 20 7 91v378q0 61 -7 82q-2 8 -14.5 13.5t-28 8.5t-25.5 3q-4 0 -4 15q0 14 4 18q66 -3 133 -3h173q81 0 145.5 -25.5t109 -70.5t68 -103t23.5 -123q0 -96 -41.5 -172.5t-119.5 -121.5t-186 -45q-10 0 -30.5 0.5
t-51.5 1.5t-53 2t-36 0zM350 48q203 0 203 292q0 75 -24.5 135.5t-71 96.5t-114.5 36h-5q-96 0 -108 -16q-13 -17 -13 -62v-392q0 -55 11 -74q16 -16 122 -16zM334 770q-25 0 -43 18t-18 43t18 42.5t43 17.5t42.5 -17.5t17.5 -42.5t-17.5 -43t-42.5 -18z" />
    <glyph glyph-name="uni1E0C" unicode="&#x1e0c;" horiz-adv-x="708" 
d="M30 -3q-3 3 -3 16q0 17 3 17q9 0 23.5 3t28 8t15.5 11q7 20 7 91v378q0 61 -7 82q-2 8 -14.5 13.5t-28 8.5t-25.5 3q-4 0 -4 15q0 14 4 18q66 -3 133 -3h173q81 0 145.5 -25.5t109 -70.5t68 -103t23.5 -123q0 -96 -41.5 -172.5t-119.5 -121.5t-186 -45q-10 0 -30.5 0.5
t-51.5 1.5t-53 2t-36 0zM350 48q203 0 203 292q0 75 -24.5 135.5t-71 96.5t-114.5 36h-5q-96 0 -108 -16q-13 -17 -13 -62v-392q0 -55 11 -74q16 -16 122 -16zM354 -182q-25 0 -43.5 18.5t-18.5 43.5q0 26 18.5 44t43.5 18q26 0 44 -18t18 -44q0 -25 -18 -43.5t-44 -18.5z
" />
    <glyph glyph-name="Dmacronbelow" unicode="&#x1e0e;" horiz-adv-x="708" 
d="M30 -3q-3 3 -3 16q0 17 3 17q9 0 23.5 3t28 8t15.5 11q7 20 7 91v378q0 61 -7 82q-2 8 -14.5 13.5t-28 8.5t-25.5 3q-4 0 -4 15q0 14 4 18q66 -3 133 -3h173q81 0 145.5 -25.5t109 -70.5t68 -103t23.5 -123q0 -96 -41.5 -172.5t-119.5 -121.5t-186 -45q-10 0 -30.5 0.5
t-51.5 1.5t-53 2t-36 0zM350 48q203 0 203 292q0 75 -24.5 135.5t-71 96.5t-114.5 36h-5q-96 0 -108 -16q-13 -17 -13 -62v-392q0 -55 11 -74q16 -16 122 -16zM186 -154q-6 0 -6 4q0 20 4 35q4 16 10 16h268q6 0 6 -8q-2 -20 -10 -47h-272z" />
    <glyph glyph-name="Dtail" unicode="&#x189;" horiz-adv-x="718" 
d="M36 -4q-4 4 -4 16q0 18 4 18q8 0 23 3t28.5 8t15.5 11q7 17 7 91v165h-56q-6 0 -6 14q0 21 6 28h56v171q0 58 -7 82q-2 6 -15.5 11.5t-29 9.5t-23.5 4q-4 0 -4 15t3 18q68 -3 134 -3h174q83 0 150.5 -27.5t109.5 -73.5q41 -46 62.5 -103t21.5 -118q0 -96 -41 -172.5
t-118 -121.5t-187 -45l-75 2q-29 2 -53 2.5t-43 -0.5q-28 0 -61 -1t-53 -2zM356 48q100 0 153 73.5t53 218.5q0 72 -22 131q-22 60 -72 98.5t-118 38.5h-6q-96 0 -108 -16q-13 -16 -13 -62v-180h177q6 0 6 -12q0 -16 -6 -30h-177v-170q0 -56 12 -74q6 -5 28.5 -9t49 -5.5
t43.5 -1.5z" />
    <glyph glyph-name="Dtail" unicode="&#x256;" horiz-adv-x="718" 
d="M36 -4q-4 4 -4 16q0 18 4 18q8 0 23 3t28.5 8t15.5 11q7 17 7 91v165h-56q-6 0 -6 14q0 21 6 28h56v171q0 58 -7 82q-2 6 -15.5 11.5t-29 9.5t-23.5 4q-4 0 -4 15t3 18q68 -3 134 -3h174q83 0 150.5 -27.5t109.5 -73.5q41 -46 62.5 -103t21.5 -118q0 -96 -41 -172.5
t-118 -121.5t-187 -45l-75 2q-29 2 -53 2.5t-43 -0.5q-28 0 -61 -1t-53 -2zM356 48q100 0 153 73.5t53 218.5q0 72 -22 131q-22 60 -72 98.5t-118 38.5h-6q-96 0 -108 -16q-13 -16 -13 -62v-180h177q6 0 6 -12q0 -16 -6 -30h-177v-170q0 -56 12 -74q6 -5 28.5 -9t49 -5.5
t43.5 -1.5z" />
    <glyph glyph-name="Dtail" unicode="&#x256;" horiz-adv-x="718" 
d="M36 -4q-4 4 -4 16q0 18 4 18q8 0 23 3t28.5 8t15.5 11q7 17 7 91v165h-56q-6 0 -6 14q0 21 6 28h56v171q0 58 -7 82q-2 6 -15.5 11.5t-29 9.5t-23.5 4q-4 0 -4 15t3 18q68 -3 134 -3h174q83 0 150.5 -27.5t109.5 -73.5q41 -46 62.5 -103t21.5 -118q0 -96 -41 -172.5
t-118 -121.5t-187 -45l-75 2q-29 2 -53 2.5t-43 -0.5q-28 0 -61 -1t-53 -2zM356 48q100 0 153 73.5t53 218.5q0 72 -22 131q-22 60 -72 98.5t-118 38.5h-6q-96 0 -108 -16q-13 -16 -13 -62v-180h177q6 0 6 -12q0 -16 -6 -30h-177v-170q0 -56 12 -74q6 -5 28.5 -9t49 -5.5
t43.5 -1.5z" />
    <glyph glyph-name="E" unicode="E" horiz-adv-x="584" 
d="M30 -3q-3 3 -3 16q0 17 3 17q9 0 23.5 3t28 8t15.5 11q7 20 7 91v378q0 61 -7 82q-2 8 -14.5 13.5t-28 8.5t-25.5 3q-4 0 -4 15q0 14 4 18q33 -2 66 -3.5t67 -1.5q22 0 61 1.5t94 3.5q111 3 168 3q2 -15 6 -36t10 -47l13 -59q-5 -5 -21 -5q-11 0 -14 7q-33 89 -128 89
h-52q-75 0 -76 -13q-6 -28 -6 -81v-157q0 -6 44 -6h56q57 0 69 5q11 5 17 35q3 13 6 25q1 7 16 7q14 0 19 -5v-189q-4 -4 -19 -4q-13 0 -16 8q-4 14 -7 23.5t-5 16.5q-5 11 -6 12.5t-10 7.5q-14 8 -92 8q-72 0 -72 -8v-155q0 -55 9 -81q4 -13 68 -13h37q79 0 119 21
q16 8 36 35t31 61q2 6 14 6q22 0 28 -6l-32 -89q-6 -16 -13 -40.5t-9 -39.5q-40 0 -165 3q-63 2 -107 2t-70 -1z" />
    <glyph glyph-name="Eacute" unicode="&#xc9;" horiz-adv-x="584" 
d="M30 -3q-3 3 -3 16q0 17 3 17q9 0 23.5 3t28 8t15.5 11q7 20 7 91v378q0 61 -7 82q-2 8 -14.5 13.5t-28 8.5t-25.5 3q-4 0 -4 15q0 14 4 18q33 -2 66 -3.5t67 -1.5q22 0 61 1.5t94 3.5q111 3 168 3q2 -15 6 -36t10 -47l13 -59q-5 -5 -21 -5q-11 0 -14 7q-33 89 -128 89
h-52q-75 0 -76 -13q-6 -28 -6 -81v-157q0 -6 44 -6h56q57 0 69 5q11 5 17 35q3 13 6 25q1 7 16 7q14 0 19 -5v-189q-4 -4 -19 -4q-13 0 -16 8q-4 14 -7 23.5t-5 16.5q-5 11 -6 12.5t-10 7.5q-14 8 -92 8q-72 0 -72 -8v-155q0 -55 9 -81q4 -13 68 -13h37q79 0 119 21
q16 8 36 35t31 61q2 6 14 6q22 0 28 -6l-32 -89q-6 -16 -13 -40.5t-9 -39.5q-40 0 -165 3q-63 2 -107 2t-70 -1zM248 733q-4 0 -8 5.5t-4 11.5q0 3 13 17.5t32.5 33.5t39.5 37t35 29q6 3 18 3q22 0 38 -9t16 -24q0 -11 -16.5 -24.5t-41.5 -27.5t-51 -26t-45.5 -19t-25.5 -7z
" />
    <glyph glyph-name="Ebreve" unicode="&#x114;" horiz-adv-x="584" 
d="M30 -3q-3 3 -3 16q0 17 3 17q9 0 23.5 3t28 8t15.5 11q7 20 7 91v378q0 61 -7 82q-2 8 -14.5 13.5t-28 8.5t-25.5 3q-4 0 -4 15q0 14 4 18q33 -2 66 -3.5t67 -1.5q22 0 61 1.5t94 3.5q111 3 168 3q2 -15 6 -36t10 -47l13 -59q-5 -5 -21 -5q-11 0 -14 7q-33 89 -128 89
h-52q-75 0 -76 -13q-6 -28 -6 -81v-157q0 -6 44 -6h56q57 0 69 5q11 5 17 35q3 13 6 25q1 7 16 7q14 0 19 -5v-189q-4 -4 -19 -4q-13 0 -16 8q-4 14 -7 23.5t-5 16.5q-5 11 -6 12.5t-10 7.5q-14 8 -92 8q-72 0 -72 -8v-155q0 -55 9 -81q4 -13 68 -13h37q79 0 119 21
q16 8 36 35t31 61q2 6 14 6q22 0 28 -6l-32 -89q-6 -16 -13 -40.5t-9 -39.5q-40 0 -165 3q-63 2 -107 2t-70 -1zM295 748q-33 0 -62 20t-45 61q-2 6 -2 7q0 4 8 12t14 8q2 0 3 -2q12 -26 35.5 -39t48.5 -13q26 0 49 13t35 39q1 2 3 2q6 0 14 -8t8 -12q0 -1 -2 -7
q-16 -41 -45 -61t-62 -20z" />
    <glyph glyph-name="Ecaron" unicode="&#x11a;" horiz-adv-x="584" 
d="M30 -3q-3 3 -3 16q0 17 3 17q9 0 23.5 3t28 8t15.5 11q7 20 7 91v378q0 61 -7 82q-2 8 -14.5 13.5t-28 8.5t-25.5 3q-4 0 -4 15q0 14 4 18q33 -2 66 -3.5t67 -1.5q22 0 61 1.5t94 3.5q111 3 168 3q2 -15 6 -36t10 -47l13 -59q-5 -5 -21 -5q-11 0 -14 7q-33 89 -128 89
h-52q-75 0 -76 -13q-6 -28 -6 -81v-157q0 -6 44 -6h56q57 0 69 5q11 5 17 35q3 13 6 25q1 7 16 7q14 0 19 -5v-189q-4 -4 -19 -4q-13 0 -16 8q-4 14 -7 23.5t-5 16.5q-5 11 -6 12.5t-10 7.5q-14 8 -92 8q-72 0 -72 -8v-155q0 -55 9 -81q4 -13 68 -13h37q79 0 119 21
q16 8 36 35t31 61q2 6 14 6q22 0 28 -6l-32 -89q-6 -16 -13 -40.5t-9 -39.5q-40 0 -165 3q-63 2 -107 2t-70 -1zM292 734q-4 0 -12 8q-8 11 -18.5 22.5t-23.5 24.5q-11 11 -22 21l-22 20t-17 14.5t-7 5.5q0 20 10 20q6 0 27 -10t45 -24t40 -26q93 60 112 60q10 0 10 -20
q-2 -2 -21 -18.5t-48 -43.5q-5 -5 -15.5 -17t-25.5 -29q-6 -8 -12 -8z" />
    <glyph glyph-name="Ecircumflex" unicode="&#xca;" horiz-adv-x="584" 
d="M30 -3q-3 3 -3 16q0 17 3 17q9 0 23.5 3t28 8t15.5 11q7 20 7 91v378q0 61 -7 82q-2 8 -14.5 13.5t-28 8.5t-25.5 3q-4 0 -4 15q0 14 4 18q33 -2 66 -3.5t67 -1.5q22 0 61 1.5t94 3.5q111 3 168 3q2 -15 6 -36t10 -47l13 -59q-5 -5 -21 -5q-11 0 -14 7q-33 89 -128 89
h-52q-75 0 -76 -13q-6 -28 -6 -81v-157q0 -6 44 -6h56q57 0 69 5q11 5 17 35q3 13 6 25q1 7 16 7q14 0 19 -5v-189q-4 -4 -19 -4q-13 0 -16 8q-4 14 -7 23.5t-5 16.5q-5 11 -6 12.5t-10 7.5q-14 8 -92 8q-72 0 -72 -8v-155q0 -55 9 -81q4 -13 68 -13h37q79 0 119 21
q16 8 36 35t31 61q2 6 14 6q22 0 28 -6l-32 -89q-6 -16 -13 -40.5t-9 -39.5q-40 0 -165 3q-63 2 -107 2t-70 -1zM180 723q-10 0 -10 19l24 21l22 20l22 20q13 13 23.5 24.5t18.5 22.5q8 9 12 9q5 0 12 -9q15 -17 25.5 -29t15.5 -17q29 -27 48 -43.5t21 -18.5q0 -19 -10 -19
q-19 0 -112 60q-16 -11 -40 -25.5t-45 -24.5t-27 -10z" />
    <glyph glyph-name="uni1EBE" unicode="&#x1ebe;" horiz-adv-x="584" 
d="M30 -3q-3 3 -3 16q0 17 3 17q9 0 23.5 3t28 8t15.5 11q7 20 7 91v378q0 61 -7 82q-2 8 -14.5 13.5t-28 8.5t-25.5 3q-4 0 -4 15q0 14 4 18q33 -2 66 -3.5t67 -1.5q22 0 61 1.5t94 3.5q111 3 168 3q2 -15 6 -36t10 -47l13 -59q-5 -5 -21 -5q-11 0 -14 7q-33 89 -128 89
h-52q-75 0 -76 -13q-6 -28 -6 -81v-157q0 -6 44 -6h56q57 0 69 5q11 5 17 35q3 13 6 25q1 7 16 7q14 0 19 -5v-189q-4 -4 -19 -4q-13 0 -16 8q-4 14 -7 23.5t-5 16.5q-5 11 -6 12.5t-10 7.5q-14 8 -92 8q-72 0 -72 -8v-155q0 -55 9 -81q4 -13 68 -13h37q79 0 119 21
q16 8 36 35t31 61q2 6 14 6q22 0 28 -6l-32 -89q-6 -16 -13 -40.5t-9 -39.5q-40 0 -165 3q-63 2 -107 2t-70 -1zM378 825q-4 0 -7 4.5t-3 8.5q0 2 10 13.5t25.5 26.5t31 29t27.5 23q3 2 14 2q17 0 29.5 -7t12.5 -19q0 -9 -18.5 -22.5t-44.5 -27t-48 -22.5t-29 -9zM180 723
q-10 0 -10 19l24 21l22 20l22 20q13 13 23.5 24.5t18.5 22.5q8 9 12 9q5 0 12 -9q15 -17 25.5 -29t15.5 -17q29 -27 48 -43.5t21 -18.5q0 -19 -10 -19q-19 0 -112 60q-16 -11 -40 -25.5t-45 -24.5t-27 -10z" />
    <glyph glyph-name="uni1E18" unicode="&#x1e18;" horiz-adv-x="584" 
d="M30 -3q-3 3 -3 16q0 17 3 17q9 0 23.5 3t28 8t15.5 11q7 20 7 91v378q0 61 -7 82q-2 8 -14.5 13.5t-28 8.5t-25.5 3q-4 0 -4 15q0 14 4 18q33 -2 66 -3.5t67 -1.5q22 0 61 1.5t94 3.5q111 3 168 3q2 -15 6 -36t10 -47l13 -59q-5 -5 -21 -5q-11 0 -14 7q-33 89 -128 89
h-52q-75 0 -76 -13q-6 -28 -6 -81v-157q0 -6 44 -6h56q57 0 69 5q11 5 17 35q3 13 6 25q1 7 16 7q14 0 19 -5v-189q-4 -4 -19 -4q-13 0 -16 8q-4 14 -7 23.5t-5 16.5q-5 11 -6 12.5t-10 7.5q-14 8 -92 8q-72 0 -72 -8v-155q0 -55 9 -81q4 -13 68 -13h37q79 0 119 21
q16 8 36 35t31 61q2 6 14 6q22 0 28 -6l-32 -89q-6 -16 -13 -40.5t-9 -39.5q-40 0 -165 3q-63 2 -107 2t-70 -1zM180 -207q-10 0 -10 19l24 21l22 20l22 20q13 13 23.5 24.5t18.5 22.5q8 9 12 9q5 0 12 -9q15 -17 25.5 -29t15.5 -17q29 -27 48 -43.5t21 -18.5q0 -19 -10 -19
q-19 0 -112 60q-16 -11 -40 -25.5t-45 -24.5t-27 -10z" />
    <glyph glyph-name="uni1EC6" unicode="&#x1ec6;" horiz-adv-x="584" 
d="M30 -3q-3 3 -3 16q0 17 3 17q9 0 23.5 3t28 8t15.5 11q7 20 7 91v378q0 61 -7 82q-2 8 -14.5 13.5t-28 8.5t-25.5 3q-4 0 -4 15q0 14 4 18q33 -2 66 -3.5t67 -1.5q22 0 61 1.5t94 3.5q111 3 168 3q2 -15 6 -36t10 -47l13 -59q-5 -5 -21 -5q-11 0 -14 7q-33 89 -128 89
h-52q-75 0 -76 -13q-6 -28 -6 -81v-157q0 -6 44 -6h56q57 0 69 5q11 5 17 35q3 13 6 25q1 7 16 7q14 0 19 -5v-189q-4 -4 -19 -4q-13 0 -16 8q-4 14 -7 23.5t-5 16.5q-5 11 -6 12.5t-10 7.5q-14 8 -92 8q-72 0 -72 -8v-155q0 -55 9 -81q4 -13 68 -13h37q79 0 119 21
q16 8 36 35t31 61q2 6 14 6q22 0 28 -6l-32 -89q-6 -16 -13 -40.5t-9 -39.5q-40 0 -165 3q-63 2 -107 2t-70 -1zM292 -182q-25 0 -43.5 18.5t-18.5 43.5q0 26 18.5 44t43.5 18q26 0 44 -18t18 -44q0 -25 -18 -43.5t-44 -18.5zM180 723q-10 0 -10 19l24 21l22 20l22 20
q13 13 23.5 24.5t18.5 22.5q8 9 12 9q5 0 12 -9q15 -17 25.5 -29t15.5 -17q29 -27 48 -43.5t21 -18.5q0 -19 -10 -19q-19 0 -112 60q-16 -11 -40 -25.5t-45 -24.5t-27 -10z" />
    <glyph glyph-name="uni1EC0" unicode="&#x1ec0;" horiz-adv-x="584" 
d="M30 -3q-3 3 -3 16q0 17 3 17q9 0 23.5 3t28 8t15.5 11q7 20 7 91v378q0 61 -7 82q-2 8 -14.5 13.5t-28 8.5t-25.5 3q-4 0 -4 15q0 14 4 18q33 -2 66 -3.5t67 -1.5q22 0 61 1.5t94 3.5q111 3 168 3q2 -15 6 -36t10 -47l13 -59q-5 -5 -21 -5q-11 0 -14 7q-33 89 -128 89
h-52q-75 0 -76 -13q-6 -28 -6 -81v-157q0 -6 44 -6h56q57 0 69 5q11 5 17 35q3 13 6 25q1 7 16 7q14 0 19 -5v-189q-4 -4 -19 -4q-13 0 -16 8q-4 14 -7 23.5t-5 16.5q-5 11 -6 12.5t-10 7.5q-14 8 -92 8q-72 0 -72 -8v-155q0 -55 9 -81q4 -13 68 -13h37q79 0 119 21
q16 8 36 35t31 61q2 6 14 6q22 0 28 -6l-32 -89q-6 -16 -13 -40.5t-9 -39.5q-40 0 -165 3q-63 2 -107 2t-70 -1zM442 823q-8 0 -30.5 10t-48.5 25t-44.5 30t-17.5 25q1 14 15 20.5t33 6.5q11 0 15 -3q11 -9 26 -25t29.5 -32.5t23.5 -28.5t9 -15q-1 -4 -3.5 -8.5t-6.5 -4.5z
M180 723q-10 0 -10 19l24 21l22 20l22 20q13 13 23.5 24.5t18.5 22.5q8 9 12 9q5 0 12 -9q15 -17 25.5 -29t15.5 -17q29 -27 48 -43.5t21 -18.5q0 -19 -10 -19q-19 0 -112 60q-16 -11 -40 -25.5t-45 -24.5t-27 -10z" />
    <glyph glyph-name="uni1EC2" unicode="&#x1ec2;" horiz-adv-x="584" 
d="M30 -3q-3 3 -3 16q0 17 3 17q9 0 23.5 3t28 8t15.5 11q7 20 7 91v378q0 61 -7 82q-2 8 -14.5 13.5t-28 8.5t-25.5 3q-4 0 -4 15q0 14 4 18q33 -2 66 -3.5t67 -1.5q22 0 61 1.5t94 3.5q111 3 168 3q2 -15 6 -36t10 -47l13 -59q-5 -5 -21 -5q-11 0 -14 7q-33 89 -128 89
h-52q-75 0 -76 -13q-6 -28 -6 -81v-157q0 -6 44 -6h56q57 0 69 5q11 5 17 35q3 13 6 25q1 7 16 7q14 0 19 -5v-189q-4 -4 -19 -4q-13 0 -16 8q-4 14 -7 23.5t-5 16.5q-5 11 -6 12.5t-10 7.5q-14 8 -92 8q-72 0 -72 -8v-155q0 -55 9 -81q4 -13 68 -13h37q79 0 119 21
q16 8 36 35t31 61q2 6 14 6q22 0 28 -6l-32 -89q-6 -16 -13 -40.5t-9 -39.5q-40 0 -165 3q-63 2 -107 2t-70 -1zM180 723q-10 0 -10 19l24 21l22 20l22 20q13 13 23.5 24.5t18.5 22.5q8 9 12 9q5 0 12 -9q15 -17 25.5 -29t15.5 -17q29 -27 48 -43.5t21 -18.5q0 -19 -10 -19
q-19 0 -112 60q-16 -11 -40 -25.5t-45 -24.5t-27 -10zM386 817q-12 0 -21.5 8t-9.5 20q0 11 11.5 17.5t23.5 18.5q9 9 14.5 16.5t5.5 15.5t-6 12t-14 4q-18 0 -36 -18q-9 -9 -14.5 -13.5t-11.5 -4.5q-10 0 -15 10t-5 24q10 14 37.5 30t58.5 16q28 0 47.5 -15t19.5 -40
q0 -16 -14 -30t-29 -25q-14 -10 -22.5 -14t-8.5 -12q0 -6 5 -14q0 -6 -16 -6z" />
    <glyph glyph-name="uni1EC4" unicode="&#x1ec4;" horiz-adv-x="584" 
d="M30 -3q-3 3 -3 16q0 17 3 17q9 0 23.5 3t28 8t15.5 11q7 20 7 91v378q0 61 -7 82q-2 8 -14.5 13.5t-28 8.5t-25.5 3q-4 0 -4 15q0 14 4 18q33 -2 66 -3.5t67 -1.5q22 0 61 1.5t94 3.5q111 3 168 3q2 -15 6 -36t10 -47l13 -59q-5 -5 -21 -5q-11 0 -14 7q-33 89 -128 89
h-52q-75 0 -76 -13q-6 -28 -6 -81v-157q0 -6 44 -6h56q57 0 69 5q11 5 17 35q3 13 6 25q1 7 16 7q14 0 19 -5v-189q-4 -4 -19 -4q-13 0 -16 8q-4 14 -7 23.5t-5 16.5q-5 11 -6 12.5t-10 7.5q-14 8 -92 8q-72 0 -72 -8v-155q0 -55 9 -81q4 -13 68 -13h37q79 0 119 21
q16 8 36 35t31 61q2 6 14 6q22 0 28 -6l-32 -89q-6 -16 -13 -40.5t-9 -39.5q-40 0 -165 3q-63 2 -107 2t-70 -1zM180 723q-10 0 -10 19l24 21l22 20l22 20q13 13 23.5 24.5t18.5 22.5q8 9 12 9q5 0 12 -9q15 -17 25.5 -29t15.5 -17q29 -27 48 -43.5t21 -18.5q0 -19 -10 -19
q-19 0 -112 60q-16 -11 -40 -25.5t-45 -24.5t-27 -10zM394 868q-36 0 -91 31q-55 30 -91 30q-15 0 -27.5 -13t-23 -25.5t-19.5 -12.5q-8 0 -8 19q0 17 18 44q37 46 83 46q36 0 91 -30q55 -31 91 -31q17 0 43 26q24 25 26 25q7 0 7 -20q0 -18 -17 -44q-34 -45 -82 -45z" />
    <glyph glyph-name="Edieresis" unicode="&#xcb;" horiz-adv-x="584" 
d="M30 -3q-3 3 -3 16q0 17 3 17q9 0 23.5 3t28 8t15.5 11q7 20 7 91v378q0 61 -7 82q-2 8 -14.5 13.5t-28 8.5t-25.5 3q-4 0 -4 15q0 14 4 18q33 -2 66 -3.5t67 -1.5q22 0 61 1.5t94 3.5q111 3 168 3q2 -15 6 -36t10 -47l13 -59q-5 -5 -21 -5q-11 0 -14 7q-33 89 -128 89
h-52q-75 0 -76 -13q-6 -28 -6 -81v-157q0 -6 44 -6h56q57 0 69 5q11 5 17 35q3 13 6 25q1 7 16 7q14 0 19 -5v-189q-4 -4 -19 -4q-13 0 -16 8q-4 14 -7 23.5t-5 16.5q-5 11 -6 12.5t-10 7.5q-14 8 -92 8q-72 0 -72 -8v-155q0 -55 9 -81q4 -13 68 -13h37q79 0 119 21
q16 8 36 35t31 61q2 6 14 6q22 0 28 -6l-32 -89q-6 -16 -13 -40.5t-9 -39.5q-40 0 -165 3q-63 2 -107 2t-70 -1zM386 726q-25 0 -42 17t-17 42q0 23 17 40t42 17q23 0 40 -17t17 -40q0 -25 -17 -42t-40 -17zM201 726q-25 0 -42 17t-17 42q0 23 17 40t42 17q23 0 40 -17
t17 -40q0 -25 -17 -42t-40 -17z" />
    <glyph glyph-name="Edotaccent" unicode="&#x116;" horiz-adv-x="584" 
d="M30 -3q-3 3 -3 16q0 17 3 17q9 0 23.5 3t28 8t15.5 11q7 20 7 91v378q0 61 -7 82q-2 8 -14.5 13.5t-28 8.5t-25.5 3q-4 0 -4 15q0 14 4 18q33 -2 66 -3.5t67 -1.5q22 0 61 1.5t94 3.5q111 3 168 3q2 -15 6 -36t10 -47l13 -59q-5 -5 -21 -5q-11 0 -14 7q-33 89 -128 89
h-52q-75 0 -76 -13q-6 -28 -6 -81v-157q0 -6 44 -6h56q57 0 69 5q11 5 17 35q3 13 6 25q1 7 16 7q14 0 19 -5v-189q-4 -4 -19 -4q-13 0 -16 8q-4 14 -7 23.5t-5 16.5q-5 11 -6 12.5t-10 7.5q-14 8 -92 8q-72 0 -72 -8v-155q0 -55 9 -81q4 -13 68 -13h37q79 0 119 21
q16 8 36 35t31 61q2 6 14 6q22 0 28 -6l-32 -89q-6 -16 -13 -40.5t-9 -39.5q-40 0 -165 3q-63 2 -107 2t-70 -1zM293 770q-25 0 -43 18t-18 43t18 42.5t43 17.5t42.5 -17.5t17.5 -42.5t-17.5 -43t-42.5 -18z" />
    <glyph glyph-name="uni1EB8" unicode="&#x1eb8;" horiz-adv-x="584" 
d="M30 -3q-3 3 -3 16q0 17 3 17q9 0 23.5 3t28 8t15.5 11q7 20 7 91v378q0 61 -7 82q-2 8 -14.5 13.5t-28 8.5t-25.5 3q-4 0 -4 15q0 14 4 18q33 -2 66 -3.5t67 -1.5q22 0 61 1.5t94 3.5q111 3 168 3q2 -15 6 -36t10 -47l13 -59q-5 -5 -21 -5q-11 0 -14 7q-33 89 -128 89
h-52q-75 0 -76 -13q-6 -28 -6 -81v-157q0 -6 44 -6h56q57 0 69 5q11 5 17 35q3 13 6 25q1 7 16 7q14 0 19 -5v-189q-4 -4 -19 -4q-13 0 -16 8q-4 14 -7 23.5t-5 16.5q-5 11 -6 12.5t-10 7.5q-14 8 -92 8q-72 0 -72 -8v-155q0 -55 9 -81q4 -13 68 -13h37q79 0 119 21
q16 8 36 35t31 61q2 6 14 6q22 0 28 -6l-32 -89q-6 -16 -13 -40.5t-9 -39.5q-40 0 -165 3q-63 2 -107 2t-70 -1zM292 -182q-25 0 -43.5 18.5t-18.5 43.5q0 26 18.5 44t43.5 18q26 0 44 -18t18 -44q0 -25 -18 -43.5t-44 -18.5z" />
    <glyph glyph-name="Egrave" unicode="&#xc8;" horiz-adv-x="584" 
d="M30 -3q-3 3 -3 16q0 17 3 17q9 0 23.5 3t28 8t15.5 11q7 20 7 91v378q0 61 -7 82q-2 8 -14.5 13.5t-28 8.5t-25.5 3q-4 0 -4 15q0 14 4 18q33 -2 66 -3.5t67 -1.5q22 0 61 1.5t94 3.5q111 3 168 3q2 -15 6 -36t10 -47l13 -59q-5 -5 -21 -5q-11 0 -14 7q-33 89 -128 89
h-52q-75 0 -76 -13q-6 -28 -6 -81v-157q0 -6 44 -6h56q57 0 69 5q11 5 17 35q3 13 6 25q1 7 16 7q14 0 19 -5v-189q-4 -4 -19 -4q-13 0 -16 8q-4 14 -7 23.5t-5 16.5q-5 11 -6 12.5t-10 7.5q-14 8 -92 8q-72 0 -72 -8v-155q0 -55 9 -81q4 -13 68 -13h37q79 0 119 21
q16 8 36 35t31 61q2 6 14 6q22 0 28 -6l-32 -89q-6 -16 -13 -40.5t-9 -39.5q-40 0 -165 3q-63 2 -107 2t-70 -1zM337 733q-7 0 -27.5 7.5t-46.5 20t-50 26.5t-40 27t-16 23q0 15 16 24t38 9q12 0 18 -3q15 -11 35 -29t39.5 -37t32.5 -33.5t13 -17.5q0 -6 -4 -11.5t-8 -5.5z
" />
    <glyph glyph-name="uni1EBA" unicode="&#x1eba;" horiz-adv-x="584" 
d="M30 -3q-3 3 -3 16q0 17 3 17q9 0 23.5 3t28 8t15.5 11q7 20 7 91v378q0 61 -7 82q-2 8 -14.5 13.5t-28 8.5t-25.5 3q-4 0 -4 15q0 14 4 18q33 -2 66 -3.5t67 -1.5q22 0 61 1.5t94 3.5q111 3 168 3q2 -15 6 -36t10 -47l13 -59q-5 -5 -21 -5q-11 0 -14 7q-33 89 -128 89
h-52q-75 0 -76 -13q-6 -28 -6 -81v-157q0 -6 44 -6h56q57 0 69 5q11 5 17 35q3 13 6 25q1 7 16 7q14 0 19 -5v-189q-4 -4 -19 -4q-13 0 -16 8q-4 14 -7 23.5t-5 16.5q-5 11 -6 12.5t-10 7.5q-14 8 -92 8q-72 0 -72 -8v-155q0 -55 9 -81q4 -13 68 -13h37q79 0 119 21
q16 8 36 35t31 61q2 6 14 6q22 0 28 -6l-32 -89q-6 -16 -13 -40.5t-9 -39.5q-40 0 -165 3q-63 2 -107 2t-70 -1zM312 690q-12 0 -21.5 8t-9.5 20q0 11 11.5 17.5t23.5 18.5q9 9 14.5 16.5t5.5 15.5t-6 12t-14 4q-18 0 -36 -18q-9 -9 -14.5 -13.5t-11.5 -4.5q-10 0 -15 10
t-5 24q10 14 37.5 30t58.5 16q28 0 47.5 -15t19.5 -40q0 -16 -14 -30t-29 -25q-14 -10 -22.5 -14t-8.5 -12q0 -6 5 -14q0 -6 -16 -6z" />
    <glyph glyph-name="Emacron" unicode="&#x112;" horiz-adv-x="584" 
d="M30 -3q-3 3 -3 16q0 17 3 17q9 0 23.5 3t28 8t15.5 11q7 20 7 91v378q0 61 -7 82q-2 8 -14.5 13.5t-28 8.5t-25.5 3q-4 0 -4 15q0 14 4 18q33 -2 66 -3.5t67 -1.5q22 0 61 1.5t94 3.5q111 3 168 3q2 -15 6 -36t10 -47l13 -59q-5 -5 -21 -5q-11 0 -14 7q-33 89 -128 89
h-52q-75 0 -76 -13q-6 -28 -6 -81v-157q0 -6 44 -6h56q57 0 69 5q11 5 17 35q3 13 6 25q1 7 16 7q14 0 19 -5v-189q-4 -4 -19 -4q-13 0 -16 8q-4 14 -7 23.5t-5 16.5q-5 11 -6 12.5t-10 7.5q-14 8 -92 8q-72 0 -72 -8v-155q0 -55 9 -81q4 -13 68 -13h37q79 0 119 21
q16 8 36 35t31 61q2 6 14 6q22 0 28 -6l-32 -89q-6 -16 -13 -40.5t-9 -39.5q-40 0 -165 3q-63 2 -107 2t-70 -1zM162 748q-6 0 -6 4q0 20 4 35q4 16 10 16h268q6 0 6 -8q-2 -20 -10 -47h-272z" />
    <glyph glyph-name="Eogonek" unicode="&#x118;" horiz-adv-x="584" 
d="M372 -221q-32 0 -54 23t-22 54q0 26 16.5 53t43 50.5t56.5 37.5q-85 2 -149.5 3t-108.5 1l-133 -5q-3 3 -3 17q0 17 3 17q9 0 23.5 3t28 8t15.5 11q7 20 7 91v378q0 57 -7 82q-2 6 -15.5 11.5t-29 9.5t-23.5 4q-4 0 -4 15q0 14 4 18q74 -3 145.5 -2.5t143.5 1.5
q56 1 97.5 1.5t69.5 0.5q2 -15 6 -36t10 -47l13 -59q-5 -5 -21 -5q-11 0 -14 7q-33 89 -128 89h-52q-75 0 -76 -13q-6 -28 -6 -81v-157q0 -6 44 -6t82 1.5t43 3.5q7 3 11.5 15.5t7.5 26t4 18.5q1 7 16 7q14 0 19 -5v-189q-4 -4 -19 -4q-13 0 -16 8q-4 14 -8 31.5t-20 28.5
q-14 8 -92 8q-72 0 -72 -8v-155q0 -55 9 -81q4 -13 68 -13h37q79 0 119 21q16 8 36 35t31 61q2 6 14 6q22 0 28 -6q-49 -141 -54 -168q-19 -1 -42 -12.5t-43.5 -28.5t-33.5 -35.5t-13 -35.5q0 -15 11 -26.5t31 -11.5q24 0 48.5 14.5t31.5 21.5q4 0 4 -16t-4 -20
q-18 -24 -49.5 -45.5t-64.5 -21.5z" />
    <glyph glyph-name="uni1EBC" unicode="&#x1ebc;" horiz-adv-x="584" 
d="M30 -3q-3 3 -3 16q0 17 3 17q9 0 23.5 3t28 8t15.5 11q7 20 7 91v378q0 61 -7 82q-2 8 -14.5 13.5t-28 8.5t-25.5 3q-4 0 -4 15q0 14 4 18q33 -2 66 -3.5t67 -1.5q22 0 61 1.5t94 3.5q111 3 168 3q2 -15 6 -36t10 -47l13 -59q-5 -5 -21 -5q-11 0 -14 7q-33 89 -128 89
h-52q-75 0 -76 -13q-6 -28 -6 -81v-157q0 -6 44 -6h56q57 0 69 5q11 5 17 35q3 13 6 25q1 7 16 7q14 0 19 -5v-189q-4 -4 -19 -4q-13 0 -16 8q-4 14 -7 23.5t-5 16.5q-5 11 -6 12.5t-10 7.5q-14 8 -92 8q-72 0 -72 -8v-155q0 -55 9 -81q4 -13 68 -13h37q79 0 119 21
q16 8 36 35t31 61q2 6 14 6q22 0 28 -6l-32 -89q-6 -16 -13 -40.5t-9 -39.5q-40 0 -165 3q-63 2 -107 2t-70 -1zM370 741q-36 0 -91 31q-55 30 -91 30q-15 0 -27.5 -13t-23 -25.5t-19.5 -12.5q-8 0 -8 19q0 17 18 44q37 46 83 46q36 0 91 -30q55 -31 91 -31q17 0 43 26
q24 25 26 25q7 0 7 -20q0 -18 -17 -44q-34 -45 -82 -45z" />
    <glyph glyph-name="uni1E1A" unicode="&#x1e1a;" horiz-adv-x="600" 
d="M30 -3q-3 3 -3 16q0 17 3 17q9 0 23.5 3t28 8t15.5 11q7 20 7 91v378q0 61 -7 82q-2 8 -14.5 13.5t-28 8.5t-25.5 3q-4 0 -4 15q0 14 4 18q33 -2 66 -3.5t67 -1.5q22 0 61 1.5t94 3.5q111 3 168 3q2 -15 6 -36t10 -47l13 -59q-5 -5 -21 -5q-11 0 -14 7q-33 89 -128 89
h-52q-75 0 -76 -13q-6 -28 -6 -81v-157q0 -6 44 -6h56q57 0 69 5q11 5 17 35q3 13 6 25q1 7 16 7q14 0 19 -5v-189q-4 -4 -19 -4q-13 0 -16 8q-4 14 -7 23.5t-5 16.5q-5 11 -6 12.5t-10 7.5q-14 8 -92 8q-72 0 -72 -8v-155q0 -55 9 -81q4 -13 68 -13h37q79 0 119 21
q16 8 36 35t31 61q2 6 14 6q22 0 28 -6l-32 -89q-6 -16 -13 -40.5t-9 -39.5q-40 0 -165 3q-63 2 -107 2t-70 -1zM366 -183q-30 0 -75 27q-46 26 -75 26q-15 0 -34 -22t-23 -22q-7 0 -7 17t16 39q30 40 67 40q28 0 74 -26q45 -27 75 -27q15 0 35 23q19 22 22 22q5 0 5 -18
q0 -20 -14 -40q-28 -39 -66 -39z" />
    <glyph glyph-name="F" unicode="F" horiz-adv-x="538" 
d="M30 -3q-3 3 -3 16q0 17 3 17q9 0 23.5 3t28 8t15.5 11q7 20 7 91v378q0 61 -7 82q-2 8 -14.5 13.5t-28 8.5t-25.5 3q-4 0 -4 15q0 14 4 18q32 -2 65 -3t67 -1q47 -1 159 3q56 2 97 3t67 1q2 -15 6 -36t10 -47l13 -59q-5 -5 -21 -5q-11 0 -14 7q-33 89 -128 89h-52
q-75 0 -76 -13q-2 -12 -3.5 -32t-1.5 -49v-157q0 -6 44 -6h55q57 0 69 5q11 5 17 35q3 13 6 25q1 7 16 7q14 0 19 -5v-189q-4 -4 -19 -4q-13 0 -16 8q-4 14 -7 23.5t-5 16.5q-5 11 -6 12.5t-10 7.5q-14 8 -92 8q-71 0 -71 -8v-157q0 -53 11 -83q3 -6 19 -12.5t34.5 -11
t25.5 -4.5q5 0 5 -17q0 -11 -3 -16q-120 6 -142 6q-30 0 -64 -1.5t-53 -3.5z" />
    <glyph glyph-name="uni1E1E" unicode="&#x1e1e;" horiz-adv-x="538" 
d="M30 -3q-3 3 -3 16q0 17 3 17q9 0 23.5 3t28 8t15.5 11q7 20 7 91v378q0 61 -7 82q-2 8 -14.5 13.5t-28 8.5t-25.5 3q-4 0 -4 15q0 14 4 18q32 -2 65 -3t67 -1q47 -1 159 3q56 2 97 3t67 1q2 -15 6 -36t10 -47l13 -59q-5 -5 -21 -5q-11 0 -14 7q-33 89 -128 89h-52
q-75 0 -76 -13q-2 -12 -3.5 -32t-1.5 -49v-157q0 -6 44 -6h55q57 0 69 5q11 5 17 35q3 13 6 25q1 7 16 7q14 0 19 -5v-189q-4 -4 -19 -4q-13 0 -16 8q-4 14 -7 23.5t-5 16.5q-5 11 -6 12.5t-10 7.5q-14 8 -92 8q-71 0 -71 -8v-157q0 -53 11 -83q3 -6 19 -12.5t34.5 -11
t25.5 -4.5q5 0 5 -17q0 -11 -3 -16q-120 6 -142 6q-30 0 -64 -1.5t-53 -3.5zM270 770q-25 0 -43 18t-18 43t18 42.5t43 17.5t42.5 -17.5t17.5 -42.5t-17.5 -43t-42.5 -18z" />
    <glyph glyph-name="G" unicode="G" horiz-adv-x="702" 
d="M342 -8q-66 0 -123.5 26t-101 72t-68 105.5t-24.5 126.5q0 71 25.5 133t70.5 110t104.5 75t128.5 27q90 0 232 -37q3 -1 9 -66q4 -50 6 -70t-21 -20q-14 0 -22 6q-3 14 -8.5 28t-19.5 36q-25 36 -69.5 55t-102.5 19q-65 0 -112 -35.5t-71.5 -98t-24.5 -144.5
q0 -71 26 -138q17 -44 47.5 -80.5t72 -58t90.5 -21.5q64 0 96 19q10 7 10 23l-1 72v7q0 61 -7 81q-2 9 -15 14.5t-29 8t-28 2.5q-4 0 -4 15q0 14 4 18q12 0 61 -3q50 -3 79 -3l121 6q3 -9 3 -17q0 -17 -4 -17q-6 0 -26.5 -6t-29.5 -10q-13 -7 -13 -73l1 -42v-23q0 -16 5 -31
l5 -15q0 -14 -22 -24q-39 -17 -59 -25q-19 -7 -72.5 -17t-118.5 -10z" />
    <glyph glyph-name="Gbreve" unicode="&#x11e;" horiz-adv-x="702" 
d="M342 -8q-66 0 -123.5 26t-101 72t-68 105.5t-24.5 126.5q0 71 25.5 133t70.5 110t104.5 75t128.5 27q90 0 232 -37q3 -1 9 -66q4 -50 6 -70t-21 -20q-14 0 -22 6q-3 14 -8.5 28t-19.5 36q-25 36 -69.5 55t-102.5 19q-65 0 -112 -35.5t-71.5 -98t-24.5 -144.5
q0 -71 26 -138q17 -44 47.5 -80.5t72 -58t90.5 -21.5q64 0 96 19q10 7 10 23l-1 72v7q0 61 -7 81q-2 9 -15 14.5t-29 8t-28 2.5q-4 0 -4 15q0 14 4 18q12 0 61 -3q50 -3 79 -3l121 6q3 -9 3 -17q0 -17 -4 -17q-6 0 -26.5 -6t-29.5 -10q-13 -7 -13 -73l1 -42v-23q0 -16 5 -31
l5 -15q0 -14 -22 -24q-39 -17 -59 -25q-19 -7 -72.5 -17t-118.5 -10zM354 748q-33 0 -62 20t-45 61q-2 6 -2 7q0 4 8 12t14 8q2 0 3 -2q12 -26 35.5 -39t48.5 -13q26 0 49 13t35 39q1 2 3 2q6 0 14 -8t8 -12q0 -1 -2 -7q-16 -41 -45 -61t-62 -20z" />
    <glyph glyph-name="Gcircumflex" unicode="&#x11c;" horiz-adv-x="702" 
d="M342 -8q-66 0 -123.5 26t-101 72t-68 105.5t-24.5 126.5q0 71 25.5 133t70.5 110t104.5 75t128.5 27q90 0 232 -37q3 -1 9 -66q4 -50 6 -70t-21 -20q-14 0 -22 6q-3 14 -8.5 28t-19.5 36q-25 36 -69.5 55t-102.5 19q-65 0 -112 -35.5t-71.5 -98t-24.5 -144.5
q0 -71 26 -138q17 -44 47.5 -80.5t72 -58t90.5 -21.5q64 0 96 19q10 7 10 23l-1 72v7q0 61 -7 81q-2 9 -15 14.5t-29 8t-28 2.5q-4 0 -4 15q0 14 4 18q12 0 61 -3q50 -3 79 -3l121 6q3 -9 3 -17q0 -17 -4 -17q-6 0 -26.5 -6t-29.5 -10q-13 -7 -13 -73l1 -42v-23q0 -16 5 -31
l5 -15q0 -14 -22 -24q-39 -17 -59 -25q-19 -7 -72.5 -17t-118.5 -10zM239 723q-10 0 -10 19l24 21l22 20l22 20q13 13 23.5 24.5t18.5 22.5q8 9 12 9q5 0 12 -9q15 -17 25.5 -29t15.5 -17q29 -27 48 -43.5t21 -18.5q0 -19 -10 -19q-19 0 -112 60q-16 -11 -40 -25.5
t-45 -24.5t-27 -10z" />
    <glyph glyph-name="uni0122" unicode="&#x122;" horiz-adv-x="702" 
d="M342 -8q-66 0 -123.5 26t-101 72t-68 105.5t-24.5 126.5q0 71 25.5 133t70.5 110t104.5 75t128.5 27q90 0 232 -37q3 -1 9 -66q4 -50 6 -70t-21 -20q-14 0 -22 6q-3 14 -8.5 28t-19.5 36q-25 36 -69.5 55t-102.5 19q-65 0 -112 -35.5t-71.5 -98t-24.5 -144.5
q0 -71 26 -138q17 -44 47.5 -80.5t72 -58t90.5 -21.5q64 0 96 19q10 7 10 23l-1 72v7q0 61 -7 81q-2 9 -15 14.5t-29 8t-28 2.5q-4 0 -4 15q0 14 4 18q12 0 61 -3q50 -3 79 -3l121 6q3 -9 3 -17q0 -17 -4 -17q-6 0 -26.5 -6t-29.5 -10q-13 -7 -13 -73l1 -42v-23q0 -16 5 -31
l5 -15q0 -14 -22 -24q-39 -17 -59 -25q-19 -7 -72.5 -17t-118.5 -10zM317 -222q-7 0 -15.5 4t-8.5 7q11 10 27.5 24t16.5 29q0 16 -20 30q-21 14 -21 31q0 23 25.5 38t65.5 15q9 -8 15.5 -25.5t6.5 -32.5q0 -67 -87 -120h-5z" />
    <glyph glyph-name="Gdotaccent" unicode="&#x120;" horiz-adv-x="702" 
d="M342 -8q-66 0 -123.5 26t-101 72t-68 105.5t-24.5 126.5q0 71 25.5 133t70.5 110t104.5 75t128.5 27q90 0 232 -37q3 -1 9 -66q4 -50 6 -70t-21 -20q-14 0 -22 6q-3 14 -8.5 28t-19.5 36q-25 36 -69.5 55t-102.5 19q-65 0 -112 -35.5t-71.5 -98t-24.5 -144.5
q0 -71 26 -138q17 -44 47.5 -80.5t72 -58t90.5 -21.5q64 0 96 19q10 7 10 23l-1 72v7q0 61 -7 81q-2 9 -15 14.5t-29 8t-28 2.5q-4 0 -4 15q0 14 4 18q12 0 61 -3q50 -3 79 -3l121 6q3 -9 3 -17q0 -17 -4 -17q-6 0 -26.5 -6t-29.5 -10q-13 -7 -13 -73l1 -42v-23q0 -16 5 -31
l5 -15q0 -14 -22 -24q-39 -17 -59 -25q-19 -7 -72.5 -17t-118.5 -10zM352 770q-25 0 -43 18t-18 43t18 42.5t43 17.5t42.5 -17.5t17.5 -42.5t-17.5 -43t-42.5 -18z" />
    <glyph glyph-name="uni1E20" unicode="&#x1e20;" horiz-adv-x="702" 
d="M342 -8q-66 0 -123.5 26t-101 72t-68 105.5t-24.5 126.5q0 71 25.5 133t70.5 110t104.5 75t128.5 27q90 0 232 -37q3 -1 9 -66q4 -50 6 -70t-21 -20q-14 0 -22 6q-3 14 -8.5 28t-19.5 36q-25 36 -69.5 55t-102.5 19q-65 0 -112 -35.5t-71.5 -98t-24.5 -144.5
q0 -71 26 -138q17 -44 47.5 -80.5t72 -58t90.5 -21.5q64 0 96 19q10 7 10 23l-1 72v7q0 61 -7 81q-2 9 -15 14.5t-29 8t-28 2.5q-4 0 -4 15q0 14 4 18q12 0 61 -3q50 -3 79 -3l121 6q3 -9 3 -17q0 -17 -4 -17q-6 0 -26.5 -6t-29.5 -10q-13 -7 -13 -73l1 -42v-23q0 -16 5 -31
l5 -15q0 -14 -22 -24q-39 -17 -59 -25q-19 -7 -72.5 -17t-118.5 -10zM221 748q-6 0 -6 4q0 20 4 35q4 16 10 16h268q6 0 6 -8q-2 -20 -10 -47h-272z" />
    <glyph glyph-name="H" unicode="H" horiz-adv-x="708" 
d="M30 -3q-4 4 -4 14q0 19 4 19q8 0 23 3t28 8.5t15 10.5q4 16 6 37t2 47v386q0 58 -8 84q-2 6 -14.5 11t-27 8.5t-22.5 3.5q-4 0 -4 15q0 16 2 18l56 -3q50 -3 77 -3l128 6q3 -9 3 -16q0 -17 -4 -17q-6 0 -21 -4t-28.5 -9t-15.5 -10q-4 -16 -6 -37.5t-2 -50.5v-146l2 -3
q49 -1 83 -1.5t53 -0.5q21 0 54 0.5t78 1.5q2 2 2 4v149q0 58 -8 84q-2 6 -14.5 11t-27 8.5t-22.5 3.5q-4 0 -4 15q0 16 2 18l56 -3q50 -3 77 -3l128 6q3 -9 3 -16q0 -17 -4 -17q-6 0 -21 -4t-28.5 -9t-15.5 -10q-4 -16 -6 -37.5t-2 -50.5v-376q0 -55 9 -90q2 -4 14.5 -9.5
t27 -9t20.5 -3.5q4 0 4 -19q0 -6 -2 -14l-127 6q-35 0 -72 -2t-61 -4q-4 4 -4 14q0 19 4 19q8 0 23 3t28 8.5t15 10.5q4 16 6 37t2 47v172l-2 4q-47 1 -80 1.5t-52 0.5q-138 -1 -138 -5v-167q0 -55 9 -90q2 -4 14.5 -9.5t27 -9t20.5 -3.5q4 0 4 -19q0 -6 -2 -14l-127 6
q-35 0 -72 -2t-61 -4z" />
    <glyph glyph-name="Hbar" unicode="&#x126;" horiz-adv-x="732" 
d="M42 -4q-4 4 -4 16q0 18 3 18q8 0 23.5 3t28.5 8.5t15 10.5q7 24 7 84v344h-47q-5 0 -5 14q0 18 6 28h46q-1 32 -2.5 52.5t-4.5 30.5q-2 6 -14.5 11.5t-27 9t-23.5 3.5q-4 0 -4 17q0 13 3 16l55 -3q47 -3 75 -3q10 0 130 6q3 -4 3 -19q0 -14 -4 -14q-6 0 -21 -3.5
t-28 -8.5t-15 -11q-4 -12 -5.5 -33t-2.5 -51q6 -1 40.5 -1.5t96.5 -0.5q47 0 81 0.5t54 1.5q-1 29 -2.5 50t-4.5 34q-2 6 -14.5 11t-27.5 8.5t-23 3.5q-4 0 -4 15q0 14 3 18q36 -2 73 -4t63 -2l124 6q1 -4 1.5 -8t0.5 -8q0 -17 -4 -17q-6 0 -21 -3.5t-28 -8.5t-15 -11
q-7 -27 -7 -84h51q6 0 6 -14q0 -17 -6 -28h-52v-340q0 -29 2 -51t6 -37q2 -5 15 -10.5t28 -8.5t21 -3q4 0 4 -18q0 -8 -3 -16q-2 1 -25.5 2.5t-52.5 3t-47 1.5t-47.5 -1.5t-55 -3t-31.5 -2.5q-4 4 -4 19t4 15q8 0 23 3t28 8.5t15 10.5q7 24 7 84v163l-2 4q-47 1 -80 1.5
t-53 0.5q-136 -1 -138 -5v-160q0 -55 9 -88q2 -4 15 -9.5t27.5 -9t20.5 -3.5q4 0 4 -14q0 -12 -2 -20q-39 3 -70.5 5t-59.5 2q-18 0 -45.5 -1.5t-52 -3t-32.5 -2.5zM366 358q22 0 55 0.5t78 1.5q2 2 2 4v116h-273v-117q0 -3 2 -3q49 -1 83 -1.5t53 -0.5z" />
    <glyph glyph-name="uni1E2A" unicode="&#x1e2a;" horiz-adv-x="708" 
d="M30 -3q-4 4 -4 14q0 19 4 19q8 0 23 3t28 8.5t15 10.5q4 16 6 37t2 47v386q0 58 -8 84q-2 6 -14.5 11t-27 8.5t-22.5 3.5q-4 0 -4 15q0 16 2 18l56 -3q50 -3 77 -3l128 6q3 -9 3 -16q0 -17 -4 -17q-6 0 -21 -4t-28.5 -9t-15.5 -10q-4 -16 -6 -37.5t-2 -50.5v-146l2 -3
q49 -1 83 -1.5t53 -0.5q21 0 54 0.5t78 1.5q2 2 2 4v149q0 58 -8 84q-2 6 -14.5 11t-27 8.5t-22.5 3.5q-4 0 -4 15q0 16 2 18l56 -3q50 -3 77 -3l128 6q3 -9 3 -16q0 -17 -4 -17q-6 0 -21 -4t-28.5 -9t-15.5 -10q-4 -16 -6 -37.5t-2 -50.5v-376q0 -55 9 -90q2 -4 14.5 -9.5
t27 -9t20.5 -3.5q4 0 4 -19q0 -6 -2 -14l-127 6q-35 0 -72 -2t-61 -4q-4 4 -4 14q0 19 4 19q8 0 23 3t28 8.5t15 10.5q4 16 6 37t2 47v172l-2 4q-47 1 -80 1.5t-52 0.5q-138 -1 -138 -5v-167q0 -55 9 -90q2 -4 14.5 -9.5t27 -9t20.5 -3.5q4 0 4 -19q0 -6 -2 -14l-127 6
q-35 0 -72 -2t-61 -4zM352 -185q-35 1 -59.5 19t-37 42.5t-14.5 42.5q0 5 10 11.5t15 6.5q2 0 4 -9q3 -9 12.5 -23.5t27 -25.5t42.5 -11t42.5 11t27.5 25.5t12 23.5t4 9q5 0 15 -6.5t10 -11.5q-1 -18 -14 -42.5t-37 -42.5t-60 -19z" />
    <glyph glyph-name="uni1E28" unicode="&#x1e28;" horiz-adv-x="708" 
d="M30 -3q-4 4 -4 14q0 19 4 19q8 0 23 3t28 8.5t15 10.5q4 16 6 37t2 47v386q0 58 -8 84q-2 6 -14.5 11t-27 8.5t-22.5 3.5q-4 0 -4 15q0 16 2 18l56 -3q50 -3 77 -3l128 6q3 -9 3 -16q0 -17 -4 -17q-6 0 -21 -4t-28.5 -9t-15.5 -10q-4 -16 -6 -37.5t-2 -50.5v-146l2 -3
q49 -1 83 -1.5t53 -0.5q21 0 54 0.5t78 1.5q2 2 2 4v149q0 58 -8 84q-2 6 -14.5 11t-27 8.5t-22.5 3.5q-4 0 -4 15q0 16 2 18l56 -3q50 -3 77 -3l128 6q3 -9 3 -16q0 -17 -4 -17q-6 0 -21 -4t-28.5 -9t-15.5 -10q-4 -16 -6 -37.5t-2 -50.5v-376q0 -55 9 -90q2 -4 14.5 -9.5
t27 -9t20.5 -3.5q4 0 4 -19q0 -6 -2 -14l-127 6q-35 0 -72 -2t-61 -4q-4 4 -4 14q0 19 4 19q8 0 23 3t28 8.5t15 10.5q4 16 6 37t2 47v172l-2 4q-47 1 -80 1.5t-52 0.5q-138 -1 -138 -5v-167q0 -55 9 -90q2 -4 14.5 -9.5t27 -9t20.5 -3.5q4 0 4 -19q0 -6 -2 -14l-127 6
q-35 0 -72 -2t-61 -4zM124 -174q-28 0 -48 15q-3 15 -3 18q0 6 4 11t9 5q3 0 21 -8t29 -8q23 0 36 10.5t13 25.5q0 16 -9.5 26.5t-23.5 10.5q-17 0 -32 -7q-2 0 -8.5 6.5t-5.5 9.5q6 10 15 25.5t20 37.5h31l-19 -29h26q24 0 41 -17.5t17 -40.5q0 -41 -31.5 -66t-81.5 -25z
" />
    <glyph glyph-name="Hcircumflex" unicode="&#x124;" horiz-adv-x="708" 
d="M30 -3q-4 4 -4 14q0 19 4 19q8 0 23 3t28 8.5t15 10.5q4 16 6 37t2 47v386q0 58 -8 84q-2 6 -14.5 11t-27 8.5t-22.5 3.5q-4 0 -4 15q0 16 2 18l56 -3q50 -3 77 -3l128 6q3 -9 3 -16q0 -17 -4 -17q-6 0 -21 -4t-28.5 -9t-15.5 -10q-4 -16 -6 -37.5t-2 -50.5v-146l2 -3
q49 -1 83 -1.5t53 -0.5q21 0 54 0.5t78 1.5q2 2 2 4v149q0 58 -8 84q-2 6 -14.5 11t-27 8.5t-22.5 3.5q-4 0 -4 15q0 16 2 18l56 -3q50 -3 77 -3l128 6q3 -9 3 -16q0 -17 -4 -17q-6 0 -21 -4t-28.5 -9t-15.5 -10q-4 -16 -6 -37.5t-2 -50.5v-376q0 -55 9 -90q2 -4 14.5 -9.5
t27 -9t20.5 -3.5q4 0 4 -19q0 -6 -2 -14l-127 6q-35 0 -72 -2t-61 -4q-4 4 -4 14q0 19 4 19q8 0 23 3t28 8.5t15 10.5q4 16 6 37t2 47v172l-2 4q-47 1 -80 1.5t-52 0.5q-138 -1 -138 -5v-167q0 -55 9 -90q2 -4 14.5 -9.5t27 -9t20.5 -3.5q4 0 4 -19q0 -6 -2 -14l-127 6
q-35 0 -72 -2t-61 -4zM242 723q-10 0 -10 19l24 21l22 20l22 20q13 13 23.5 24.5t18.5 22.5q8 9 12 9q5 0 12 -9q15 -17 25.5 -29t15.5 -17q29 -27 48 -43.5t21 -18.5q0 -19 -10 -19q-19 0 -112 60q-16 -11 -40 -25.5t-45 -24.5t-27 -10z" />
    <glyph glyph-name="uni1E26" unicode="&#x1e26;" horiz-adv-x="708" 
d="M30 -3q-4 4 -4 14q0 19 4 19q8 0 23 3t28 8.5t15 10.5q4 16 6 37t2 47v386q0 58 -8 84q-2 6 -14.5 11t-27 8.5t-22.5 3.5q-4 0 -4 15q0 16 2 18l56 -3q50 -3 77 -3l128 6q3 -9 3 -16q0 -17 -4 -17q-6 0 -21 -4t-28.5 -9t-15.5 -10q-4 -16 -6 -37.5t-2 -50.5v-146l2 -3
q49 -1 83 -1.5t53 -0.5q21 0 54 0.5t78 1.5q2 2 2 4v149q0 58 -8 84q-2 6 -14.5 11t-27 8.5t-22.5 3.5q-4 0 -4 15q0 16 2 18l56 -3q50 -3 77 -3l128 6q3 -9 3 -16q0 -17 -4 -17q-6 0 -21 -4t-28.5 -9t-15.5 -10q-4 -16 -6 -37.5t-2 -50.5v-376q0 -55 9 -90q2 -4 14.5 -9.5
t27 -9t20.5 -3.5q4 0 4 -19q0 -6 -2 -14l-127 6q-35 0 -72 -2t-61 -4q-4 4 -4 14q0 19 4 19q8 0 23 3t28 8.5t15 10.5q4 16 6 37t2 47v172l-2 4q-47 1 -80 1.5t-52 0.5q-138 -1 -138 -5v-167q0 -55 9 -90q2 -4 14.5 -9.5t27 -9t20.5 -3.5q4 0 4 -19q0 -6 -2 -14l-127 6
q-35 0 -72 -2t-61 -4zM448 726q-25 0 -42 17t-17 42q0 23 17 40t42 17q23 0 40 -17t17 -40q0 -25 -17 -42t-40 -17zM263 726q-25 0 -42 17t-17 42q0 23 17 40t42 17q23 0 40 -17t17 -40q0 -25 -17 -42t-40 -17z" />
    <glyph glyph-name="uni1E22" unicode="&#x1e22;" horiz-adv-x="708" 
d="M30 -3q-4 4 -4 14q0 19 4 19q8 0 23 3t28 8.5t15 10.5q4 16 6 37t2 47v386q0 58 -8 84q-2 6 -14.5 11t-27 8.5t-22.5 3.5q-4 0 -4 15q0 16 2 18l56 -3q50 -3 77 -3l128 6q3 -9 3 -16q0 -17 -4 -17q-6 0 -21 -4t-28.5 -9t-15.5 -10q-4 -16 -6 -37.5t-2 -50.5v-146l2 -3
q49 -1 83 -1.5t53 -0.5q21 0 54 0.5t78 1.5q2 2 2 4v149q0 58 -8 84q-2 6 -14.5 11t-27 8.5t-22.5 3.5q-4 0 -4 15q0 16 2 18l56 -3q50 -3 77 -3l128 6q3 -9 3 -16q0 -17 -4 -17q-6 0 -21 -4t-28.5 -9t-15.5 -10q-4 -16 -6 -37.5t-2 -50.5v-376q0 -55 9 -90q2 -4 14.5 -9.5
t27 -9t20.5 -3.5q4 0 4 -19q0 -6 -2 -14l-127 6q-35 0 -72 -2t-61 -4q-4 4 -4 14q0 19 4 19q8 0 23 3t28 8.5t15 10.5q4 16 6 37t2 47v172l-2 4q-47 1 -80 1.5t-52 0.5q-138 -1 -138 -5v-167q0 -55 9 -90q2 -4 14.5 -9.5t27 -9t20.5 -3.5q4 0 4 -19q0 -6 -2 -14l-127 6
q-35 0 -72 -2t-61 -4zM355 770q-25 0 -43 18t-18 43t18 42.5t43 17.5t42.5 -17.5t17.5 -42.5t-17.5 -43t-42.5 -18z" />
    <glyph glyph-name="uni1E24" unicode="&#x1e24;" horiz-adv-x="708" 
d="M30 -3q-4 4 -4 14q0 19 4 19q8 0 23 3t28 8.5t15 10.5q4 16 6 37t2 47v386q0 58 -8 84q-2 6 -14.5 11t-27 8.5t-22.5 3.5q-4 0 -4 15q0 16 2 18l56 -3q50 -3 77 -3l128 6q3 -9 3 -16q0 -17 -4 -17q-6 0 -21 -4t-28.5 -9t-15.5 -10q-4 -16 -6 -37.5t-2 -50.5v-146l2 -3
q49 -1 83 -1.5t53 -0.5q21 0 54 0.5t78 1.5q2 2 2 4v149q0 58 -8 84q-2 6 -14.5 11t-27 8.5t-22.5 3.5q-4 0 -4 15q0 16 2 18l56 -3q50 -3 77 -3l128 6q3 -9 3 -16q0 -17 -4 -17q-6 0 -21 -4t-28.5 -9t-15.5 -10q-4 -16 -6 -37.5t-2 -50.5v-376q0 -55 9 -90q2 -4 14.5 -9.5
t27 -9t20.5 -3.5q4 0 4 -19q0 -6 -2 -14l-127 6q-35 0 -72 -2t-61 -4q-4 4 -4 14q0 19 4 19q8 0 23 3t28 8.5t15 10.5q4 16 6 37t2 47v172l-2 4q-47 1 -80 1.5t-52 0.5q-138 -1 -138 -5v-167q0 -55 9 -90q2 -4 14.5 -9.5t27 -9t20.5 -3.5q4 0 4 -19q0 -6 -2 -14l-127 6
q-35 0 -72 -2t-61 -4zM354 -182q-25 0 -43.5 18.5t-18.5 43.5q0 26 18.5 44t43.5 18q26 0 44 -18t18 -44q0 -25 -18 -43.5t-44 -18.5z" />
    <glyph glyph-name="I" unicode="I" horiz-adv-x="323" 
d="M30 -3q-4 4 -4 14q0 19 4 19q8 0 23 3t28 8.5t15 10.5q4 16 6 37t2 47v386q0 58 -8 84q-2 6 -14.5 11t-27 8.5t-22.5 3.5q-4 0 -4 15q0 16 2 18l56 -3q25 -1 44.5 -2.5t32.5 -0.5l128 6q3 -9 3 -16q0 -17 -4 -17q-6 0 -21 -4t-28.5 -9t-15.5 -10q-4 -16 -6 -37.5
t-2 -50.5v-376q0 -55 9 -90q2 -4 14.5 -9.5t27 -9t20.5 -3.5q4 0 4 -19q0 -6 -2 -14l-127 6q-35 2 -72 -1t-61 -5z" />
    <glyph glyph-name="IJ" unicode="&#x132;" horiz-adv-x="649" 
d="M30 -3q-4 4 -4 14q0 19 4 19q8 0 23 3t28 8.5t15 10.5q4 16 6 37t2 47v386q0 58 -8 84q-2 6 -14.5 11t-27 8.5t-22.5 3.5q-4 0 -4 15q0 16 2 18l56 -3q25 -1 44.5 -2.5t32.5 -0.5l128 6q3 -9 3 -16q0 -17 -4 -17q-6 0 -21 -4t-28.5 -9t-15.5 -10q-4 -16 -6 -37.5
t-2 -50.5v-376q0 -55 9 -90q2 -4 14.5 -9.5t27 -9t20.5 -3.5q4 0 4 -19q0 -6 -2 -14l-127 6q-35 2 -72 -1t-61 -5zM274 -222q-15 0 -33 6t-22 10q-13 16 -13 45q0 23 19 39t44 16q20 0 46 -26q24 -26 38 -26q36 0 59 68q21 69 21 196v418q0 28 -1.5 48.5t-5.5 33.5
q-2 8 -14.5 13t-27.5 7.5t-26 2.5q-4 0 -4 15q0 16 2 18q42 -3 75.5 -5t61.5 -1l127 6q3 -9 3 -16q0 -17 -4 -17q-6 0 -21 -4t-28 -9t-15 -10q-4 -16 -6 -37.5t-2 -50.5v-404q0 -98 -34 -174t-95.5 -119t-143.5 -43z" />
    <glyph glyph-name="Iacute" unicode="&#xcd;" horiz-adv-x="323" 
d="M30 -3q-4 4 -4 14q0 19 4 19q8 0 23 3t28 8.5t15 10.5q4 16 6 37t2 47v386q0 58 -8 84q-2 6 -14.5 11t-27 8.5t-22.5 3.5q-4 0 -4 15q0 16 2 18l56 -3q25 -1 44.5 -2.5t32.5 -0.5l128 6q3 -9 3 -16q0 -17 -4 -17q-6 0 -21 -4t-28.5 -9t-15.5 -10q-4 -16 -6 -37.5
t-2 -50.5v-376q0 -55 9 -90q2 -4 14.5 -9.5t27 -9t20.5 -3.5q4 0 4 -19q0 -6 -2 -14l-127 6q-35 2 -72 -1t-61 -5zM118 733q-4 0 -8 5.5t-4 11.5q0 3 13 17.5t32.5 33.5t39.5 37t35 29q6 3 18 3q22 0 38 -9t16 -24q0 -11 -16.5 -24.5t-41.5 -27.5t-51 -26t-45.5 -19
t-25.5 -7z" />
    <glyph glyph-name="Ibreve" unicode="&#x12c;" horiz-adv-x="323" 
d="M30 -3q-4 4 -4 14q0 19 4 19q8 0 23 3t28 8.5t15 10.5q4 16 6 37t2 47v386q0 58 -8 84q-2 6 -14.5 11t-27 8.5t-22.5 3.5q-4 0 -4 15q0 16 2 18l56 -3q25 -1 44.5 -2.5t32.5 -0.5l128 6q3 -9 3 -16q0 -17 -4 -17q-6 0 -21 -4t-28.5 -9t-15.5 -10q-4 -16 -6 -37.5
t-2 -50.5v-376q0 -55 9 -90q2 -4 14.5 -9.5t27 -9t20.5 -3.5q4 0 4 -19q0 -6 -2 -14l-127 6q-35 2 -72 -1t-61 -5zM165 748q-33 0 -62 20t-45 61q-2 6 -2 7q0 4 8 12t14 8q2 0 3 -2q12 -26 35.5 -39t48.5 -13q26 0 49 13t35 39q1 2 3 2q6 0 14 -8t8 -12q0 -1 -2 -7
q-16 -41 -45 -61t-62 -20z" />
    <glyph glyph-name="uni01CF" unicode="&#x1cf;" horiz-adv-x="323" 
d="M30 -3q-4 4 -4 14q0 19 4 19q8 0 23 3t28 8.5t15 10.5q4 16 6 37t2 47v386q0 58 -8 84q-2 6 -14.5 11t-27 8.5t-22.5 3.5q-4 0 -4 15q0 16 2 18l56 -3q25 -1 44.5 -2.5t32.5 -0.5l128 6q3 -9 3 -16q0 -17 -4 -17q-6 0 -21 -4t-28.5 -9t-15.5 -10q-4 -16 -6 -37.5
t-2 -50.5v-376q0 -55 9 -90q2 -4 14.5 -9.5t27 -9t20.5 -3.5q4 0 4 -19q0 -6 -2 -14l-127 6q-35 2 -72 -1t-61 -5zM162 734q-4 0 -12 8q-8 11 -18.5 22.5t-23.5 24.5q-11 11 -22 21l-22 20t-17 14.5t-7 5.5q0 20 10 20q6 0 27 -10t45 -24t40 -26q93 60 112 60q10 0 10 -20
q-2 -2 -21 -18.5t-48 -43.5q-5 -5 -15.5 -17t-25.5 -29q-6 -8 -12 -8z" />
    <glyph glyph-name="Icircumflex" unicode="&#xce;" horiz-adv-x="323" 
d="M30 -3q-4 4 -4 14q0 19 4 19q8 0 23 3t28 8.5t15 10.5q4 16 6 37t2 47v386q0 58 -8 84q-2 6 -14.5 11t-27 8.5t-22.5 3.5q-4 0 -4 15q0 16 2 18l56 -3q25 -1 44.5 -2.5t32.5 -0.5l128 6q3 -9 3 -16q0 -17 -4 -17q-6 0 -21 -4t-28.5 -9t-15.5 -10q-4 -16 -6 -37.5
t-2 -50.5v-376q0 -55 9 -90q2 -4 14.5 -9.5t27 -9t20.5 -3.5q4 0 4 -19q0 -6 -2 -14l-127 6q-35 2 -72 -1t-61 -5zM50 723q-10 0 -10 19l24 21l22 20l22 20q13 13 23.5 24.5t18.5 22.5q8 9 12 9q5 0 12 -9q15 -17 25.5 -29t15.5 -17q29 -27 48 -43.5t21 -18.5q0 -19 -10 -19
q-19 0 -112 60q-16 -11 -40 -25.5t-45 -24.5t-27 -10z" />
    <glyph glyph-name="Idieresis" unicode="&#xcf;" horiz-adv-x="323" 
d="M30 -3q-4 4 -4 14q0 19 4 19q8 0 23 3t28 8.5t15 10.5q4 16 6 37t2 47v386q0 58 -8 84q-2 6 -14.5 11t-27 8.5t-22.5 3.5q-4 0 -4 15q0 16 2 18l56 -3q25 -1 44.5 -2.5t32.5 -0.5l128 6q3 -9 3 -16q0 -17 -4 -17q-6 0 -21 -4t-28.5 -9t-15.5 -10q-4 -16 -6 -37.5
t-2 -50.5v-376q0 -55 9 -90q2 -4 14.5 -9.5t27 -9t20.5 -3.5q4 0 4 -19q0 -6 -2 -14l-127 6q-35 2 -72 -1t-61 -5zM256 726q-25 0 -42 17t-17 42q0 23 17 40t42 17q23 0 40 -17t17 -40q0 -25 -17 -42t-40 -17zM71 726q-25 0 -42 17t-17 42q0 23 17 40t42 17q23 0 40 -17
t17 -40q0 -25 -17 -42t-40 -17z" />
    <glyph glyph-name="uni1E2E" unicode="&#x1e2e;" horiz-adv-x="323" 
d="M30 -3q-4 4 -4 14q0 19 4 19q8 0 23 3t28 8.5t15 10.5q4 16 6 37t2 47v386q0 58 -8 84q-2 6 -14.5 11t-27 8.5t-22.5 3.5q-4 0 -4 15q0 16 2 18l56 -3q25 -1 44.5 -2.5t32.5 -0.5l128 6q3 -9 3 -16q0 -17 -4 -17q-6 0 -21 -4t-28.5 -9t-15.5 -10q-4 -16 -6 -37.5
t-2 -50.5v-376q0 -55 9 -90q2 -4 14.5 -9.5t27 -9t20.5 -3.5q4 0 4 -19q0 -6 -2 -14l-127 6q-35 2 -72 -1t-61 -5zM256 726q-25 0 -42 17t-17 42q0 23 17 40t42 17q23 0 40 -17t17 -40q0 -25 -17 -42t-40 -17zM71 726q-25 0 -42 17t-17 42q0 23 17 40t42 17q23 0 40 -17
t17 -40q0 -25 -17 -42t-40 -17zM118 889q-4 0 -8 5.5t-4 11.5q0 3 13 17.5t32.5 33.5t39.5 37t35 29q6 3 18 3q22 0 38 -9t16 -24q0 -11 -16.5 -24.5t-41.5 -27.5t-51 -26t-45.5 -19t-25.5 -7z" />
    <glyph glyph-name="Idotaccent" unicode="&#x130;" horiz-adv-x="323" 
d="M30 -3q-4 4 -4 14q0 19 4 19q8 0 23 3t28 8.5t15 10.5q4 16 6 37t2 47v386q0 58 -8 84q-2 6 -14.5 11t-27 8.5t-22.5 3.5q-4 0 -4 15q0 16 2 18l56 -3q25 -1 44.5 -2.5t32.5 -0.5l128 6q3 -9 3 -16q0 -17 -4 -17q-6 0 -21 -4t-28.5 -9t-15.5 -10q-4 -16 -6 -37.5
t-2 -50.5v-376q0 -55 9 -90q2 -4 14.5 -9.5t27 -9t20.5 -3.5q4 0 4 -19q0 -6 -2 -14l-127 6q-35 2 -72 -1t-61 -5zM163 770q-25 0 -43 18t-18 43t18 42.5t43 17.5t42.5 -17.5t17.5 -42.5t-17.5 -43t-42.5 -18z" />
    <glyph glyph-name="uni1ECA" unicode="&#x1eca;" horiz-adv-x="323" 
d="M30 -3q-4 4 -4 14q0 19 4 19q8 0 23 3t28 8.5t15 10.5q4 16 6 37t2 47v386q0 58 -8 84q-2 6 -14.5 11t-27 8.5t-22.5 3.5q-4 0 -4 15q0 16 2 18l56 -3q25 -1 44.5 -2.5t32.5 -0.5l128 6q3 -9 3 -16q0 -17 -4 -17q-6 0 -21 -4t-28.5 -9t-15.5 -10q-4 -16 -6 -37.5
t-2 -50.5v-376q0 -55 9 -90q2 -4 14.5 -9.5t27 -9t20.5 -3.5q4 0 4 -19q0 -6 -2 -14l-127 6q-35 2 -72 -1t-61 -5zM162 -182q-25 0 -43.5 18.5t-18.5 43.5q0 26 18.5 44t43.5 18q26 0 44 -18t18 -44q0 -25 -18 -43.5t-44 -18.5z" />
    <glyph glyph-name="Igrave" unicode="&#xcc;" horiz-adv-x="323" 
d="M30 -3q-4 4 -4 14q0 19 4 19q8 0 23 3t28 8.5t15 10.5q4 16 6 37t2 47v386q0 58 -8 84q-2 6 -14.5 11t-27 8.5t-22.5 3.5q-4 0 -4 15q0 16 2 18l56 -3q25 -1 44.5 -2.5t32.5 -0.5l128 6q3 -9 3 -16q0 -17 -4 -17q-6 0 -21 -4t-28.5 -9t-15.5 -10q-4 -16 -6 -37.5
t-2 -50.5v-376q0 -55 9 -90q2 -4 14.5 -9.5t27 -9t20.5 -3.5q4 0 4 -19q0 -6 -2 -14l-127 6q-35 2 -72 -1t-61 -5zM207 733q-7 0 -27.5 7.5t-46.5 20t-50 26.5t-40 27t-16 23q0 15 16 24t38 9q12 0 18 -3q15 -11 35 -29t39.5 -37t32.5 -33.5t13 -17.5q0 -6 -4 -11.5t-8 -5.5
z" />
    <glyph glyph-name="uni1EC8" unicode="&#x1ec8;" horiz-adv-x="323" 
d="M30 -3q-4 4 -4 14q0 19 4 19q8 0 23 3t28 8.5t15 10.5q4 16 6 37t2 47v386q0 58 -8 84q-2 6 -14.5 11t-27 8.5t-22.5 3.5q-4 0 -4 15q0 16 2 18l56 -3q25 -1 44.5 -2.5t32.5 -0.5l128 6q3 -9 3 -16q0 -17 -4 -17q-6 0 -21 -4t-28.5 -9t-15.5 -10q-4 -16 -6 -37.5
t-2 -50.5v-376q0 -55 9 -90q2 -4 14.5 -9.5t27 -9t20.5 -3.5q4 0 4 -19q0 -6 -2 -14l-127 6q-35 2 -72 -1t-61 -5zM182 690q-12 0 -21.5 8t-9.5 20q0 11 11.5 17.5t23.5 18.5q9 9 14.5 16.5t5.5 15.5t-6 12t-14 4q-18 0 -36 -18q-9 -9 -14.5 -13.5t-11.5 -4.5q-10 0 -15 10
t-5 24q10 14 37.5 30t58.5 16q28 0 47.5 -15t19.5 -40q0 -16 -14 -30t-29 -25q-14 -10 -22.5 -14t-8.5 -12q0 -6 5 -14q0 -6 -16 -6z" />
    <glyph glyph-name="Imacron" unicode="&#x12a;" horiz-adv-x="323" 
d="M30 -3q-4 4 -4 14q0 19 4 19q8 0 23 3t28 8.5t15 10.5q4 16 6 37t2 47v386q0 58 -8 84q-2 6 -14.5 11t-27 8.5t-22.5 3.5q-4 0 -4 15q0 16 2 18l56 -3q25 -1 44.5 -2.5t32.5 -0.5l128 6q3 -9 3 -16q0 -17 -4 -17q-6 0 -21 -4t-28.5 -9t-15.5 -10q-4 -16 -6 -37.5
t-2 -50.5v-376q0 -55 9 -90q2 -4 14.5 -9.5t27 -9t20.5 -3.5q4 0 4 -19q0 -6 -2 -14l-127 6q-35 2 -72 -1t-61 -5zM32 748q-6 0 -6 4q0 20 4 35q4 16 10 16h268q6 0 6 -8q-2 -20 -10 -47h-272z" />
    <glyph glyph-name="Iogonek" unicode="&#x12e;" horiz-adv-x="323" 
d="M30 -3q-4 4 -4 14q0 19 4 19q8 0 23 3t28 8.5t15 10.5q4 16 6 37t2 47v386q0 58 -8 84q-2 6 -14.5 11t-27 8.5t-22.5 3.5q-4 0 -4 15q0 16 2 18l56 -3q25 -1 44.5 -2.5t32.5 -0.5l128 6q3 -9 3 -16q0 -17 -4 -17q-6 0 -21 -4t-28.5 -9t-15.5 -10q-4 -16 -6 -37.5
t-2 -50.5v-376q0 -55 9 -90q2 -4 14.5 -9.5t27 -9t20.5 -3.5q4 0 4 -19q0 -6 -2 -14l-127 6q-35 2 -72 -1t-61 -5zM127 -219q-32 0 -54 23t-22 54q0 25 18.5 54t47 54t56.5 37l44 -2q-24 -13 -46 -32.5t-36.5 -41t-14.5 -41.5q0 -15 10.5 -26t30.5 -11q14 0 28.5 5t23.5 10
q8 5 18 12t11 8q4 0 4 -16q0 -11 -5 -19q-18 -24 -49.5 -46t-64.5 -22z" />
    <glyph glyph-name="Itilde" unicode="&#x128;" horiz-adv-x="323" 
d="M30 -3q-4 4 -4 14q0 19 4 19q8 0 23 3t28 8.5t15 10.5q4 16 6 37t2 47v386q0 58 -8 84q-2 6 -14.5 11t-27 8.5t-22.5 3.5q-4 0 -4 15q0 16 2 18l56 -3q25 -1 44.5 -2.5t32.5 -0.5l128 6q3 -9 3 -16q0 -17 -4 -17q-6 0 -21 -4t-28.5 -9t-15.5 -10q-4 -16 -6 -37.5
t-2 -50.5v-376q0 -55 9 -90q2 -4 14.5 -9.5t27 -9t20.5 -3.5q4 0 4 -19q0 -6 -2 -14l-127 6q-35 2 -72 -1t-61 -5zM240 741q-36 0 -91 31q-55 30 -91 30q-15 0 -27.5 -13t-23 -25.5t-19.5 -12.5q-8 0 -8 19q0 17 18 44q37 46 83 46q36 0 91 -30q55 -31 91 -31q17 0 43 26
q24 25 26 25q7 0 7 -20q0 -18 -17 -44q-34 -45 -82 -45z" />
    <glyph glyph-name="J" unicode="J" horiz-adv-x="363" 
d="M-12 -222q-15 0 -33 6t-22 10q-13 16 -13 45q0 23 19 39t44 16q20 0 46 -26q24 -26 38 -26q36 0 59 68q21 69 21 196v418q0 28 -1.5 48.5t-5.5 33.5q-2 8 -14.5 13t-27.5 7.5t-26 2.5q-4 0 -4 15q0 16 2 18q42 -3 75.5 -5t61.5 -1l127 6q3 -9 3 -16q0 -17 -4 -17
q-6 0 -21 -4t-28 -9t-15 -10q-4 -16 -6 -37.5t-2 -50.5v-404q0 -98 -34 -174t-95.5 -119t-143.5 -43z" />
    <glyph glyph-name="Jcircumflex" unicode="&#x134;" horiz-adv-x="363" 
d="M-12 -222q-15 0 -33 6t-22 10q-13 16 -13 45q0 23 19 39t44 16q20 0 46 -26q24 -26 38 -26q36 0 59 68q21 69 21 196v418q0 28 -1.5 48.5t-5.5 33.5q-2 8 -14.5 13t-27.5 7.5t-26 2.5q-4 0 -4 15q0 16 2 18q42 -3 75.5 -5t61.5 -1l127 6q3 -9 3 -16q0 -17 -4 -17
q-6 0 -21 -4t-28 -9t-15 -10q-4 -16 -6 -37.5t-2 -50.5v-404q0 -98 -34 -174t-95.5 -119t-143.5 -43zM90 723q-10 0 -10 19l24 21l22 20l22 20q13 13 23.5 24.5t18.5 22.5q8 9 12 9q5 0 12 -9q15 -17 25.5 -29t15.5 -17q29 -27 48 -43.5t21 -18.5q0 -19 -10 -19
q-19 0 -112 60q-16 -11 -40 -25.5t-45 -24.5t-27 -10z" />
    <glyph glyph-name="K" unicode="K" horiz-adv-x="706" 
d="M30 -3q-4 4 -4 14q0 19 4 19q8 0 23 3t28 8.5t15 10.5q4 16 6 37t2 47v386q0 58 -8 84q-2 6 -14.5 11t-27 8.5t-22.5 3.5q-4 0 -4 15q0 16 2 18l56 -3q50 -3 77 -3l128 6q3 -9 3 -16q0 -17 -4 -17q-6 0 -21 -4t-28.5 -9t-15.5 -10q-4 -16 -6 -37.5t-2 -50.5v-161
q0 -5 5 -7h9q21 0 52 34q80 86 176 200q16 19 16 30q0 7 -10.5 10.5t-24.5 5.5t-24 2q-4 0 -5 11.5t1 18.5q111 -6 121 -6q31 0 62 2.5t51 3.5q2 -4 1.5 -17t-3.5 -13q-69 -7 -101 -42l-186 -212q-11 -14 2 -28l234 -278q12 -14 30.5 -23.5t36 -14t26.5 -4.5q5 0 5 -19
q0 -8 -3 -14q-120 6 -137 6q-16 0 -35 -0.5t-41 -1.5l-63 -4q-4 4 -4 19q0 14 4 14q11 0 28 7t17 15q0 9 -25 42.5t-70.5 86t-106.5 115.5q-4 4 -22 4q-16 0 -16 -12v-148q0 -53 9 -88q2 -4 14.5 -9.5t27 -9t20.5 -3.5q4 0 4 -19q0 -6 -2 -14l-127 6q-35 0 -72 -2t-61 -4z
" />
    <glyph glyph-name="uni1E30" unicode="&#x1e30;" horiz-adv-x="706" 
d="M30 -3q-4 4 -4 14q0 19 4 19q8 0 23 3t28 8.5t15 10.5q4 16 6 37t2 47v386q0 58 -8 84q-2 6 -14.5 11t-27 8.5t-22.5 3.5q-4 0 -4 15q0 16 2 18l56 -3q50 -3 77 -3l128 6q3 -9 3 -16q0 -17 -4 -17q-6 0 -21 -4t-28.5 -9t-15.5 -10q-4 -16 -6 -37.5t-2 -50.5v-161
q0 -5 5 -7h9q21 0 52 34q80 86 176 200q16 19 16 30q0 7 -10.5 10.5t-24.5 5.5t-24 2q-4 0 -5 11.5t1 18.5q111 -6 121 -6q31 0 62 2.5t51 3.5q2 -4 1.5 -17t-3.5 -13q-69 -7 -101 -42l-186 -212q-11 -14 2 -28l234 -278q12 -14 30.5 -23.5t36 -14t26.5 -4.5q5 0 5 -19
q0 -8 -3 -14q-120 6 -137 6q-16 0 -35 -0.5t-41 -1.5l-63 -4q-4 4 -4 19q0 14 4 14q11 0 28 7t17 15q0 9 -25 42.5t-70.5 86t-106.5 115.5q-4 4 -22 4q-16 0 -16 -12v-148q0 -53 9 -88q2 -4 14.5 -9.5t27 -9t20.5 -3.5q4 0 4 -19q0 -6 -2 -14l-127 6q-35 0 -72 -2t-61 -4z
M317 733q-4 0 -8 5.5t-4 11.5q0 3 13 17.5t32.5 33.5t39.5 37t35 29q6 3 18 3q22 0 38 -9t16 -24q0 -11 -16.5 -24.5t-41.5 -27.5t-51 -26t-45.5 -19t-25.5 -7z" />
    <glyph glyph-name="uni0136" unicode="&#x136;" horiz-adv-x="706" 
d="M30 -3q-4 4 -4 14q0 19 4 19q8 0 23 3t28 8.5t15 10.5q4 16 6 37t2 47v386q0 58 -8 84q-2 6 -14.5 11t-27 8.5t-22.5 3.5q-4 0 -4 15q0 16 2 18l56 -3q50 -3 77 -3l128 6q3 -9 3 -16q0 -17 -4 -17q-6 0 -21 -4t-28.5 -9t-15.5 -10q-4 -16 -6 -37.5t-2 -50.5v-161
q0 -5 5 -7h9q21 0 52 34q80 86 176 200q16 19 16 30q0 7 -10.5 10.5t-24.5 5.5t-24 2q-4 0 -5 11.5t1 18.5q111 -6 121 -6q31 0 62 2.5t51 3.5q2 -4 1.5 -17t-3.5 -13q-69 -7 -101 -42l-186 -212q-11 -14 2 -28l234 -278q12 -14 30.5 -23.5t36 -14t26.5 -4.5q5 0 5 -19
q0 -8 -3 -14q-120 6 -137 6q-16 0 -35 -0.5t-41 -1.5l-63 -4q-4 4 -4 19q0 14 4 14q11 0 28 7t17 15q0 9 -25 42.5t-70.5 86t-106.5 115.5q-4 4 -22 4q-16 0 -16 -12v-148q0 -53 9 -88q2 -4 14.5 -9.5t27 -9t20.5 -3.5q4 0 4 -19q0 -6 -2 -14l-127 6q-35 0 -72 -2t-61 -4z
M327 -222q-7 0 -15.5 4t-8.5 7q11 10 27.5 24t16.5 29q0 16 -20 30q-21 14 -21 31q0 23 25.5 38t65.5 15q9 -8 15.5 -25.5t6.5 -32.5q0 -67 -87 -120h-5z" />
    <glyph glyph-name="uni1E32" unicode="&#x1e32;" horiz-adv-x="706" 
d="M30 -3q-4 4 -4 14q0 19 4 19q8 0 23 3t28 8.5t15 10.5q4 16 6 37t2 47v386q0 58 -8 84q-2 6 -14.5 11t-27 8.5t-22.5 3.5q-4 0 -4 15q0 16 2 18l56 -3q50 -3 77 -3l128 6q3 -9 3 -16q0 -17 -4 -17q-6 0 -21 -4t-28.5 -9t-15.5 -10q-4 -16 -6 -37.5t-2 -50.5v-161
q0 -5 5 -7h9q21 0 52 34q80 86 176 200q16 19 16 30q0 7 -10.5 10.5t-24.5 5.5t-24 2q-4 0 -5 11.5t1 18.5q111 -6 121 -6q31 0 62 2.5t51 3.5q2 -4 1.5 -17t-3.5 -13q-69 -7 -101 -42l-186 -212q-11 -14 2 -28l234 -278q12 -14 30.5 -23.5t36 -14t26.5 -4.5q5 0 5 -19
q0 -8 -3 -14q-120 6 -137 6q-16 0 -35 -0.5t-41 -1.5l-63 -4q-4 4 -4 19q0 14 4 14q11 0 28 7t17 15q0 9 -25 42.5t-70.5 86t-106.5 115.5q-4 4 -22 4q-16 0 -16 -12v-148q0 -53 9 -88q2 -4 14.5 -9.5t27 -9t20.5 -3.5q4 0 4 -19q0 -6 -2 -14l-127 6q-35 0 -72 -2t-61 -4z
M361 -182q-25 0 -43.5 18.5t-18.5 43.5q0 26 18.5 44t43.5 18q26 0 44 -18t18 -44q0 -25 -18 -43.5t-44 -18.5z" />
    <glyph glyph-name="Kmacronbelow" unicode="&#x1e34;" horiz-adv-x="706" 
d="M30 -3q-4 4 -4 14q0 19 4 19q8 0 23 3t28 8.5t15 10.5q4 16 6 37t2 47v386q0 58 -8 84q-2 6 -14.5 11t-27 8.5t-22.5 3.5q-4 0 -4 15q0 16 2 18l56 -3q50 -3 77 -3l128 6q3 -9 3 -16q0 -17 -4 -17q-6 0 -21 -4t-28.5 -9t-15.5 -10q-4 -16 -6 -37.5t-2 -50.5v-161
q0 -5 5 -7h9q21 0 52 34q80 86 176 200q16 19 16 30q0 7 -10.5 10.5t-24.5 5.5t-24 2q-4 0 -5 11.5t1 18.5q111 -6 121 -6q31 0 62 2.5t51 3.5q2 -4 1.5 -17t-3.5 -13q-69 -7 -101 -42l-186 -212q-11 -14 2 -28l234 -278q12 -14 30.5 -23.5t36 -14t26.5 -4.5q5 0 5 -19
q0 -8 -3 -14q-120 6 -137 6q-16 0 -35 -0.5t-41 -1.5l-63 -4q-4 4 -4 19q0 14 4 14q11 0 28 7t17 15q0 9 -25 42.5t-70.5 86t-106.5 115.5q-4 4 -22 4q-16 0 -16 -12v-148q0 -53 9 -88q2 -4 14.5 -9.5t27 -9t20.5 -3.5q4 0 4 -19q0 -6 -2 -14l-127 6q-35 0 -72 -2t-61 -4z
M236 -118q-6 0 -6 4q0 20 4 35q4 16 10 16h268q6 0 6 -8q-2 -20 -10 -47h-272z" />
    <glyph glyph-name="L" unicode="L" horiz-adv-x="584" 
d="M30 -3q-3 3 -3 16q0 17 3 17q9 0 23.5 3t28 8t15.5 11q7 20 7 91v378q0 59 -8 85q-2 6 -14.5 11t-27 8.5t-22.5 3.5q-4 0 -4 15q0 16 2 18l56 -3q25 -1 44.5 -2.5t32.5 -0.5l128 6q3 -9 3 -16q0 -17 -4 -17q-6 0 -21 -4t-28.5 -9t-15.5 -10q-4 -16 -6 -37.5t-2 -50.5
v-376q0 -48 9 -80q4 -13 68 -13h37q79 0 119 21q16 8 36 35t31 61q2 6 14 6q22 0 28 -6l-32 -89q-6 -16 -13 -40.5t-9 -39.5q-40 0 -165 3q-63 2 -107 2t-70 -1z" />
    <glyph glyph-name="Lacute" unicode="&#x139;" horiz-adv-x="584" 
d="M30 -3q-3 3 -3 16q0 17 3 17q9 0 23.5 3t28 8t15.5 11q7 20 7 91v378q0 59 -8 85q-2 6 -14.5 11t-27 8.5t-22.5 3.5q-4 0 -4 15q0 16 2 18l56 -3q25 -1 44.5 -2.5t32.5 -0.5l128 6q3 -9 3 -16q0 -17 -4 -17q-6 0 -21 -4t-28.5 -9t-15.5 -10q-4 -16 -6 -37.5t-2 -50.5
v-376q0 -48 9 -80q4 -13 68 -13h37q79 0 119 21q16 8 36 35t31 61q2 6 14 6q22 0 28 -6l-32 -89q-6 -16 -13 -40.5t-9 -39.5q-40 0 -165 3q-63 2 -107 2t-70 -1zM118 733q-4 0 -8 5.5t-4 11.5q0 3 13 17.5t32.5 33.5t39.5 37t35 29q6 3 18 3q22 0 38 -9t16 -24
q0 -11 -16.5 -24.5t-41.5 -27.5t-51 -26t-45.5 -19t-25.5 -7z" />
    <glyph glyph-name="Lcaron" unicode="&#x13d;" horiz-adv-x="584" 
d="M30 -3q-3 3 -3 16q0 17 3 17q9 0 23.5 3t28 8t15.5 11q7 20 7 91v378q0 59 -8 85q-2 6 -14.5 11t-27 8.5t-22.5 3.5q-4 0 -4 15q0 16 2 18l56 -3q25 -1 44.5 -2.5t32.5 -0.5l128 6q3 -9 3 -16q0 -17 -4 -17q-6 0 -21 -4t-28.5 -9t-15.5 -10q-4 -16 -6 -37.5t-2 -50.5
v-376q0 -48 9 -80q4 -13 68 -13h37q79 0 119 21q16 8 36 35t31 61q2 6 14 6q22 0 28 -6l-32 -89q-6 -16 -13 -40.5t-9 -39.5q-40 0 -165 3q-63 2 -107 2t-70 -1zM480 488q-4 0 -11 7t-7 11q0 2 10 11.5t20 25t10 35.5q0 8 -14 28q-14 19 -14 38q0 51 78 51q14 -20 14 -67
q0 -25 -12.5 -53.5t-31.5 -52t-37 -34.5h-5z" />
    <glyph glyph-name="uni1E3C" unicode="&#x1e3c;" horiz-adv-x="584" 
d="M30 -3q-3 3 -3 16q0 17 3 17q9 0 23.5 3t28 8t15.5 11q7 20 7 91v378q0 59 -8 85q-2 6 -14.5 11t-27 8.5t-22.5 3.5q-4 0 -4 15q0 16 2 18l56 -3q25 -1 44.5 -2.5t32.5 -0.5l128 6q3 -9 3 -16q0 -17 -4 -17q-6 0 -21 -4t-28.5 -9t-15.5 -10q-4 -16 -6 -37.5t-2 -50.5
v-376q0 -48 9 -80q4 -13 68 -13h37q79 0 119 21q16 8 36 35t31 61q2 6 14 6q22 0 28 -6l-32 -89q-6 -16 -13 -40.5t-9 -39.5q-40 0 -165 3q-63 2 -107 2t-70 -1zM181 -207q-10 0 -10 19l24 21l22 20l22 20q13 13 23.5 24.5t18.5 22.5q8 9 12 9q5 0 12 -9q15 -17 25.5 -29
t15.5 -17q29 -27 48 -43.5t21 -18.5q0 -19 -10 -19q-19 0 -112 60q-16 -11 -40 -25.5t-45 -24.5t-27 -10z" />
    <glyph glyph-name="uni013B" unicode="&#x13b;" horiz-adv-x="584" 
d="M30 -3q-3 3 -3 16q0 17 3 17q9 0 23.5 3t28 8t15.5 11q7 20 7 91v378q0 59 -8 85q-2 6 -14.5 11t-27 8.5t-22.5 3.5q-4 0 -4 15q0 16 2 18l56 -3q25 -1 44.5 -2.5t32.5 -0.5l128 6q3 -9 3 -16q0 -17 -4 -17q-6 0 -21 -4t-28.5 -9t-15.5 -10q-4 -16 -6 -37.5t-2 -50.5
v-376q0 -48 9 -80q4 -13 68 -13h37q79 0 119 21q16 8 36 35t31 61q2 6 14 6q22 0 28 -6l-32 -89q-6 -16 -13 -40.5t-9 -39.5q-40 0 -165 3q-63 2 -107 2t-70 -1zM258 -222q-7 0 -15.5 4t-8.5 7q11 10 27.5 24t16.5 29q0 16 -20 30q-21 14 -21 31q0 23 25.5 38t65.5 15
q9 -8 15.5 -25.5t6.5 -32.5q0 -67 -87 -120h-5z" />
    <glyph glyph-name="Ldot" unicode="&#x13f;" horiz-adv-x="584" 
d="M30 -3q-3 3 -3 16q0 17 3 17q9 0 23.5 3t28 8t15.5 11q7 20 7 91v378q0 59 -8 85q-2 6 -14.5 11t-27 8.5t-22.5 3.5q-4 0 -4 15q0 16 2 18l56 -3q25 -1 44.5 -2.5t32.5 -0.5l128 6q3 -9 3 -16q0 -17 -4 -17q-6 0 -21 -4t-28.5 -9t-15.5 -10q-4 -16 -6 -37.5t-2 -50.5
v-376q0 -48 9 -80q4 -13 68 -13h37q79 0 119 21q16 8 36 35t31 61q2 6 14 6q22 0 28 -6l-32 -89q-6 -16 -13 -40.5t-9 -39.5q-40 0 -165 3q-63 2 -107 2t-70 -1zM428 265q-34 0 -50.5 21.5t-16.5 46.5t16.5 46t50.5 21q33 0 49.5 -21t16.5 -47q0 -25 -16.5 -46t-49.5 -21z
" />
    <glyph glyph-name="uni1E36" unicode="&#x1e36;" horiz-adv-x="584" 
d="M30 -3q-3 3 -3 16q0 17 3 17q9 0 23.5 3t28 8t15.5 11q7 20 7 91v378q0 59 -8 85q-2 6 -14.5 11t-27 8.5t-22.5 3.5q-4 0 -4 15q0 16 2 18l56 -3q25 -1 44.5 -2.5t32.5 -0.5l128 6q3 -9 3 -16q0 -17 -4 -17q-6 0 -21 -4t-28.5 -9t-15.5 -10q-4 -16 -6 -37.5t-2 -50.5
v-376q0 -48 9 -80q4 -13 68 -13h37q79 0 119 21q16 8 36 35t31 61q2 6 14 6q22 0 28 -6l-32 -89q-6 -16 -13 -40.5t-9 -39.5q-40 0 -165 3q-63 2 -107 2t-70 -1zM292 -182q-25 0 -43.5 18.5t-18.5 43.5q0 26 18.5 44t43.5 18q26 0 44 -18t18 -44q0 -25 -18 -43.5t-44 -18.5z
" />
    <glyph glyph-name="uni1E38" unicode="&#x1e38;" horiz-adv-x="584" 
d="M30 -3q-3 3 -3 16q0 17 3 17q9 0 23.5 3t28 8t15.5 11q7 20 7 91v378q0 59 -8 85q-2 6 -14.5 11t-27 8.5t-22.5 3.5q-4 0 -4 15q0 16 2 18l56 -3q25 -1 44.5 -2.5t32.5 -0.5l128 6q3 -9 3 -16q0 -17 -4 -17q-6 0 -21 -4t-28.5 -9t-15.5 -10q-4 -16 -6 -37.5t-2 -50.5
v-376q0 -48 9 -80q4 -13 68 -13h37q79 0 119 21q16 8 36 35t31 61q2 6 14 6q22 0 28 -6l-32 -89q-6 -16 -13 -40.5t-9 -39.5q-40 0 -165 3q-63 2 -107 2t-70 -1zM292 -182q-25 0 -43.5 18.5t-18.5 43.5q0 26 18.5 44t43.5 18q26 0 44 -18t18 -44q0 -25 -18 -43.5t-44 -18.5z
M32 748q-6 0 -6 4q0 20 4 35q4 16 10 16h268q6 0 6 -8q-2 -20 -10 -47h-272z" />
    <glyph glyph-name="Lmacronbelow" unicode="&#x1e3a;" horiz-adv-x="600" 
d="M30 -3q-3 3 -3 16q0 17 3 17q9 0 23.5 3t28 8t15.5 11q7 20 7 91v378q0 59 -8 85q-2 6 -14.5 11t-27 8.5t-22.5 3.5q-4 0 -4 15q0 16 2 18l56 -3q25 -1 44.5 -2.5t32.5 -0.5l128 6q3 -9 3 -16q0 -17 -4 -17q-6 0 -21 -4t-28.5 -9t-15.5 -10q-4 -16 -6 -37.5t-2 -50.5
v-376q0 -48 9 -80q4 -13 68 -13h37q79 0 119 21q16 8 36 35t31 61q2 6 14 6q22 0 28 -6l-32 -89q-6 -16 -13 -40.5t-9 -39.5q-40 0 -165 3q-63 2 -107 2t-70 -1zM155 -125q-6 0 -6 4q0 20 4 35q4 16 10 16h268q6 0 6 -8q-2 -20 -10 -47h-272z" />
    <glyph glyph-name="Lslash" unicode="&#x141;" horiz-adv-x="565" 
d="M494 -3q-27 0 -69.5 0.5t-100.5 1.5q-115 3 -171 3l-133 -4q-4 4 -4 16q0 16 4 16q9 0 23.5 3t28 8t15.5 11q7 20 7 91v62l-51 -34q-3 0 -10.5 8t-9.5 15q-8 20 -3 22l74 51v256q0 57 -8 83q-2 6 -14.5 11t-27 8.5t-22.5 3.5q-4 0 -4 15q0 16 2 18l56 -3q50 -3 77 -3
l128 6q3 -9 3 -16q0 -17 -4 -17q-6 0 -21 -4t-28.5 -9t-15.5 -10q-4 -16 -6 -37t-2 -49v-174l161 112q6 0 12 -10q14 -23 14 -29q1 -6 -4 -11l-183 -125v-141q0 -48 9 -80q4 -13 68 -13h36q80 0 120 21q16 8 36 35t31 61q2 6 14 6q21 0 27 -6l-32 -89q-6 -16 -13 -40.5
t-9 -39.5z" />
    <glyph glyph-name="M" unicode="M" horiz-adv-x="913" 
d="M30 -3q-4 4 -4 16q0 17 4 17q11 0 30.5 4.5t37.5 13t21 18.5q10 19 11 67q3 113 6 207t5.5 157.5t2.5 82.5t-3 28q-2 6 -17.5 11t-33 8t-26.5 3q-4 0 -4 17q0 11 4 15l52 -3q36 -3 62 -3l98 6q14 -42 43 -110t68.5 -158t82.5 -198q0 -2 3 -2t3 3q44 106 79 192.5
t61 154.5l36 116q30 -3 82 -3q20 0 49.5 1.5t69.5 3.5q3 -4 3 -16q0 -17 -4 -17h-2q-27 0 -49 -16q-15 -10 -13 -54t5.5 -147.5t8.5 -265.5q2 -56 16 -92q3 -6 15.5 -11.5t26.5 -9t20 -3.5q4 0 4 -18q0 -7 -2 -15l-123 6q-35 0 -72 -2t-61 -4q-4 4 -4 15q0 18 4 18
q11 0 32 6.5t28 14.5q10 13 10 35v56l-10 304q-5 62 -12 62q-3 0 -5 -6l-191 -466q-17 -38 -38 -38q-2 0 -4.5 0.5t-5.5 1.5l-224 538q-4 -124 -7.5 -236t-8.5 -210q0 -22 3 -31q4 -7 22 -14.5t37.5 -12t27.5 -4.5q4 0 4 -18q0 -7 -2 -15l-126 6q-27 0 -71 -3q-45 -3 -55 -3
z" />
    <glyph glyph-name="uni1E3E" unicode="&#x1e3e;" horiz-adv-x="913" 
d="M30 -3q-4 4 -4 16q0 17 4 17q11 0 30.5 4.5t37.5 13t21 18.5q10 19 11 67q3 113 6 207t5.5 157.5t2.5 82.5t-3 28q-2 6 -17.5 11t-33 8t-26.5 3q-4 0 -4 17q0 11 4 15l52 -3q36 -3 62 -3l98 6q14 -42 43 -110t68.5 -158t82.5 -198q0 -2 3 -2t3 3q44 106 79 192.5
t61 154.5l36 116q30 -3 82 -3q20 0 49.5 1.5t69.5 3.5q3 -4 3 -16q0 -17 -4 -17h-2q-27 0 -49 -16q-15 -10 -13 -54t5.5 -147.5t8.5 -265.5q2 -56 16 -92q3 -6 15.5 -11.5t26.5 -9t20 -3.5q4 0 4 -18q0 -7 -2 -15l-123 6q-35 0 -72 -2t-61 -4q-4 4 -4 15q0 18 4 18
q11 0 32 6.5t28 14.5q10 13 10 35v56l-10 304q-5 62 -12 62q-3 0 -5 -6l-191 -466q-17 -38 -38 -38q-2 0 -4.5 0.5t-5.5 1.5l-224 538q-4 -124 -7.5 -236t-8.5 -210q0 -22 3 -31q4 -7 22 -14.5t37.5 -12t27.5 -4.5q4 0 4 -18q0 -7 -2 -15l-126 6q-27 0 -71 -3q-45 -3 -55 -3
zM413 733q-4 0 -8 5.5t-4 11.5q0 3 13 17.5t32.5 33.5t39.5 37t35 29q6 3 18 3q22 0 38 -9t16 -24q0 -11 -16.5 -24.5t-41.5 -27.5t-51 -26t-45.5 -19t-25.5 -7z" />
    <glyph glyph-name="uni1E40" unicode="&#x1e40;" horiz-adv-x="913" 
d="M30 -3q-4 4 -4 16q0 17 4 17q11 0 30.5 4.5t37.5 13t21 18.5q10 19 11 67q3 113 6 207t5.5 157.5t2.5 82.5t-3 28q-2 6 -17.5 11t-33 8t-26.5 3q-4 0 -4 17q0 11 4 15l52 -3q36 -3 62 -3l98 6q14 -42 43 -110t68.5 -158t82.5 -198q0 -2 3 -2t3 3q44 106 79 192.5
t61 154.5l36 116q30 -3 82 -3q20 0 49.5 1.5t69.5 3.5q3 -4 3 -16q0 -17 -4 -17h-2q-27 0 -49 -16q-15 -10 -13 -54t5.5 -147.5t8.5 -265.5q2 -56 16 -92q3 -6 15.5 -11.5t26.5 -9t20 -3.5q4 0 4 -18q0 -7 -2 -15l-123 6q-35 0 -72 -2t-61 -4q-4 4 -4 15q0 18 4 18
q11 0 32 6.5t28 14.5q10 13 10 35v56l-10 304q-5 62 -12 62q-3 0 -5 -6l-191 -466q-17 -38 -38 -38q-2 0 -4.5 0.5t-5.5 1.5l-224 538q-4 -124 -7.5 -236t-8.5 -210q0 -22 3 -31q4 -7 22 -14.5t37.5 -12t27.5 -4.5q4 0 4 -18q0 -7 -2 -15l-126 6q-27 0 -71 -3q-45 -3 -55 -3
zM458 770q-25 0 -43 18t-18 43t18 42.5t43 17.5t42.5 -17.5t17.5 -42.5t-17.5 -43t-42.5 -18z" />
    <glyph glyph-name="uni1E42" unicode="&#x1e42;" horiz-adv-x="913" 
d="M30 -3q-4 4 -4 16q0 17 4 17q11 0 30.5 4.5t37.5 13t21 18.5q10 19 11 67q3 113 6 207t5.5 157.5t2.5 82.5t-3 28q-2 6 -17.5 11t-33 8t-26.5 3q-4 0 -4 17q0 11 4 15l52 -3q36 -3 62 -3l98 6q14 -42 43 -110t68.5 -158t82.5 -198q0 -2 3 -2t3 3q44 106 79 192.5
t61 154.5l36 116q30 -3 82 -3q20 0 49.5 1.5t69.5 3.5q3 -4 3 -16q0 -17 -4 -17h-2q-27 0 -49 -16q-15 -10 -13 -54t5.5 -147.5t8.5 -265.5q2 -56 16 -92q3 -6 15.5 -11.5t26.5 -9t20 -3.5q4 0 4 -18q0 -7 -2 -15l-123 6q-35 0 -72 -2t-61 -4q-4 4 -4 15q0 18 4 18
q11 0 32 6.5t28 14.5q10 13 10 35v56l-10 304q-5 62 -12 62q-3 0 -5 -6l-191 -466q-17 -38 -38 -38q-2 0 -4.5 0.5t-5.5 1.5l-224 538q-4 -124 -7.5 -236t-8.5 -210q0 -22 3 -31q4 -7 22 -14.5t37.5 -12t27.5 -4.5q4 0 4 -18q0 -7 -2 -15l-126 6q-27 0 -71 -3q-45 -3 -55 -3
zM457 -182q-25 0 -43.5 18.5t-18.5 43.5q0 26 18.5 44t43.5 18q26 0 44 -18t18 -44q0 -25 -18 -43.5t-44 -18.5z" />
    <glyph glyph-name="N" unicode="N" horiz-adv-x="753" 
d="M613 -5q-15 0 -32 23l-398 528v-405q0 -58 8 -82q4 -8 20.5 -14.5t35 -10.5t26.5 -4q3 0 3.5 -14t-1.5 -19l-125 6q-18 0 -42.5 -1.5t-46 -2.5t-30.5 -2q-4 4 -4 17q0 16 4 16q12 0 29 3.5t32.5 10t20.5 16.5q10 20 10 84v392q0 53 -11 73q-2 5 -18 9t-33.5 7t-27.5 3
q-4 0 -4.5 15t3.5 19q53 -2 82.5 -3.5t36.5 -1.5q17 0 39.5 1.5t50.5 3.5q22 -40 71 -107t116 -154.5t141 -190.5q1 6 1.5 16.5t0.5 24.5v272q0 54 -10 80q-3 8 -18 14t-32 9t-28 3q-4 0 -4.5 14.5t2.5 18.5q53 -4 84.5 -5.5t41.5 -1.5q13 0 30 1t37 3q41 3 51 3q2 -6 2 -16
q0 -17 -4 -17q-9 0 -26 -3.5t-33 -9.5t-22 -15q-11 -28 -11 -83v-379q0 -18 1 -53t3 -87q-4 -4 -22 -4z" />
    <glyph glyph-name="Nacute" unicode="&#x143;" horiz-adv-x="753" 
d="M613 -5q-15 0 -32 23l-398 528v-405q0 -58 8 -82q4 -8 20.5 -14.5t35 -10.5t26.5 -4q3 0 3.5 -14t-1.5 -19l-125 6q-18 0 -42.5 -1.5t-46 -2.5t-30.5 -2q-4 4 -4 17q0 16 4 16q12 0 29 3.5t32.5 10t20.5 16.5q10 20 10 84v392q0 53 -11 73q-2 5 -18 9t-33.5 7t-27.5 3
q-4 0 -4.5 15t3.5 19q53 -2 82.5 -3.5t36.5 -1.5q17 0 39.5 1.5t50.5 3.5q22 -40 71 -107t116 -154.5t141 -190.5q1 6 1.5 16.5t0.5 24.5v272q0 54 -10 80q-3 8 -18 14t-32 9t-28 3q-4 0 -4.5 14.5t2.5 18.5q53 -4 84.5 -5.5t41.5 -1.5q13 0 30 1t37 3q41 3 51 3q2 -6 2 -16
q0 -17 -4 -17q-9 0 -26 -3.5t-33 -9.5t-22 -15q-11 -28 -11 -83v-379q0 -18 1 -53t3 -87q-4 -4 -22 -4zM333 733q-4 0 -8 5.5t-4 11.5q0 3 13 17.5t32.5 33.5t39.5 37t35 29q6 3 18 3q22 0 38 -9t16 -24q0 -11 -16.5 -24.5t-41.5 -27.5t-51 -26t-45.5 -19t-25.5 -7z" />
    <glyph glyph-name="Ncaron" unicode="&#x147;" horiz-adv-x="753" 
d="M613 -5q-15 0 -32 23l-398 528v-405q0 -58 8 -82q4 -8 20.5 -14.5t35 -10.5t26.5 -4q3 0 3.5 -14t-1.5 -19l-125 6q-18 0 -42.5 -1.5t-46 -2.5t-30.5 -2q-4 4 -4 17q0 16 4 16q12 0 29 3.5t32.5 10t20.5 16.5q10 20 10 84v392q0 53 -11 73q-2 5 -18 9t-33.5 7t-27.5 3
q-4 0 -4.5 15t3.5 19q53 -2 82.5 -3.5t36.5 -1.5q17 0 39.5 1.5t50.5 3.5q22 -40 71 -107t116 -154.5t141 -190.5q1 6 1.5 16.5t0.5 24.5v272q0 54 -10 80q-3 8 -18 14t-32 9t-28 3q-4 0 -4.5 14.5t2.5 18.5q53 -4 84.5 -5.5t41.5 -1.5q13 0 30 1t37 3q41 3 51 3q2 -6 2 -16
q0 -17 -4 -17q-9 0 -26 -3.5t-33 -9.5t-22 -15q-11 -28 -11 -83v-379q0 -18 1 -53t3 -87q-4 -4 -22 -4zM377 734q-4 0 -12 8q-8 11 -18.5 22.5t-23.5 24.5q-11 11 -22 21l-22 20t-17 14.5t-7 5.5q0 20 10 20q6 0 27 -10t45 -24t40 -26q93 60 112 60q10 0 10 -20
q-2 -2 -21 -18.5t-48 -43.5q-5 -5 -15.5 -17t-25.5 -29q-6 -8 -12 -8z" />
    <glyph glyph-name="uni1E4A" unicode="&#x1e4a;" horiz-adv-x="753" 
d="M265 -207q-10 0 -10 19l24 21l22 20l22 20q13 13 23.5 24.5t18.5 22.5q8 9 12 9q5 0 12 -9q15 -17 25.5 -29t15.5 -17q29 -27 48 -43.5t21 -18.5q0 -19 -10 -19q-19 0 -112 60q-16 -11 -40 -25.5t-45 -24.5t-27 -10zM613 -5q-15 0 -32 23l-398 528v-405q0 -58 8 -82
q4 -8 20.5 -14.5t35 -10.5t26.5 -4q3 0 3.5 -14t-1.5 -19l-125 6q-18 0 -42.5 -1.5t-46 -2.5t-30.5 -2q-4 4 -4 17q0 16 4 16q12 0 29 3.5t32.5 10t20.5 16.5q10 20 10 84v392q0 53 -11 73q-2 5 -18 9t-33.5 7t-27.5 3q-4 0 -4.5 15t3.5 19q53 -2 82.5 -3.5t36.5 -1.5
q17 0 39.5 1.5t50.5 3.5q22 -40 71 -107t116 -154.5t141 -190.5q1 6 1.5 16.5t0.5 24.5v272q0 54 -10 80q-3 8 -18 14t-32 9t-28 3q-4 0 -4.5 14.5t2.5 18.5q53 -4 84.5 -5.5t41.5 -1.5q13 0 30 1t37 3q41 3 51 3q2 -6 2 -16q0 -17 -4 -17q-9 0 -26 -3.5t-33 -9.5t-22 -15
q-11 -28 -11 -83v-379q0 -18 1 -53t3 -87q-4 -4 -22 -4z" />
    <glyph glyph-name="uni0145" unicode="&#x145;" horiz-adv-x="753" 
d="M613 -5q-15 0 -32 23l-398 528v-405q0 -58 8 -82q4 -8 20.5 -14.5t35 -10.5t26.5 -4q3 0 3.5 -14t-1.5 -19l-125 6q-18 0 -42.5 -1.5t-46 -2.5t-30.5 -2q-4 4 -4 17q0 16 4 16q12 0 29 3.5t32.5 10t20.5 16.5q10 20 10 84v392q0 53 -11 73q-2 5 -18 9t-33.5 7t-27.5 3
q-4 0 -4.5 15t3.5 19q53 -2 82.5 -3.5t36.5 -1.5q17 0 39.5 1.5t50.5 3.5q22 -40 71 -107t116 -154.5t141 -190.5q1 6 1.5 16.5t0.5 24.5v272q0 54 -10 80q-3 8 -18 14t-32 9t-28 3q-4 0 -4.5 14.5t2.5 18.5q53 -4 84.5 -5.5t41.5 -1.5q13 0 30 1t37 3q41 3 51 3q2 -6 2 -16
q0 -17 -4 -17q-9 0 -26 -3.5t-33 -9.5t-22 -15q-11 -28 -11 -83v-379q0 -18 1 -53t3 -87q-4 -4 -22 -4zM343 -222q-7 0 -15.5 4t-8.5 7q11 10 27.5 24t16.5 29q0 16 -20 30q-21 14 -21 31q0 23 25.5 38t65.5 15q9 -8 15.5 -25.5t6.5 -32.5q0 -67 -87 -120h-5z" />
    <glyph glyph-name="uni1E44" unicode="&#x1e44;" horiz-adv-x="753" 
d="M613 -5q-15 0 -32 23l-398 528v-405q0 -58 8 -82q4 -8 20.5 -14.5t35 -10.5t26.5 -4q3 0 3.5 -14t-1.5 -19l-125 6q-18 0 -42.5 -1.5t-46 -2.5t-30.5 -2q-4 4 -4 17q0 16 4 16q12 0 29 3.5t32.5 10t20.5 16.5q10 20 10 84v392q0 53 -11 73q-2 5 -18 9t-33.5 7t-27.5 3
q-4 0 -4.5 15t3.5 19q53 -2 82.5 -3.5t36.5 -1.5q17 0 39.5 1.5t50.5 3.5q22 -40 71 -107t116 -154.5t141 -190.5q1 6 1.5 16.5t0.5 24.5v272q0 54 -10 80q-3 8 -18 14t-32 9t-28 3q-4 0 -4.5 14.5t2.5 18.5q53 -4 84.5 -5.5t41.5 -1.5q13 0 30 1t37 3q41 3 51 3q2 -6 2 -16
q0 -17 -4 -17q-9 0 -26 -3.5t-33 -9.5t-22 -15q-11 -28 -11 -83v-379q0 -18 1 -53t3 -87q-4 -4 -22 -4zM378 770q-25 0 -43 18t-18 43t18 42.5t43 17.5t42.5 -17.5t17.5 -42.5t-17.5 -43t-42.5 -18z" />
    <glyph glyph-name="uni1E46" unicode="&#x1e46;" horiz-adv-x="753" 
d="M613 -5q-15 0 -32 23l-398 528v-405q0 -58 8 -82q4 -8 20.5 -14.5t35 -10.5t26.5 -4q3 0 3.5 -14t-1.5 -19l-125 6q-18 0 -42.5 -1.5t-46 -2.5t-30.5 -2q-4 4 -4 17q0 16 4 16q12 0 29 3.5t32.5 10t20.5 16.5q10 20 10 84v392q0 53 -11 73q-2 5 -18 9t-33.5 7t-27.5 3
q-4 0 -4.5 15t3.5 19q53 -2 82.5 -3.5t36.5 -1.5q17 0 39.5 1.5t50.5 3.5q22 -40 71 -107t116 -154.5t141 -190.5q1 6 1.5 16.5t0.5 24.5v272q0 54 -10 80q-3 8 -18 14t-32 9t-28 3q-4 0 -4.5 14.5t2.5 18.5q53 -4 84.5 -5.5t41.5 -1.5q13 0 30 1t37 3q41 3 51 3q2 -6 2 -16
q0 -17 -4 -17q-9 0 -26 -3.5t-33 -9.5t-22 -15q-11 -28 -11 -83v-379q0 -18 1 -53t3 -87q-4 -4 -22 -4zM377 -182q-25 0 -43.5 18.5t-18.5 43.5q0 26 18.5 44t43.5 18q26 0 44 -18t18 -44q0 -25 -18 -43.5t-44 -18.5z" />
    <glyph glyph-name="Nmacronbelow" unicode="&#x1e48;" horiz-adv-x="753" 
d="M613 -5q-15 0 -32 23l-398 528v-405q0 -58 8 -82q4 -8 20.5 -14.5t35 -10.5t26.5 -4q3 0 3.5 -14t-1.5 -19l-125 6q-18 0 -42.5 -1.5t-46 -2.5t-30.5 -2q-4 4 -4 17q0 16 4 16q12 0 29 3.5t32.5 10t20.5 16.5q10 20 10 84v392q0 53 -11 73q-2 5 -18 9t-33.5 7t-27.5 3
q-4 0 -4.5 15t3.5 19q53 -2 82.5 -3.5t36.5 -1.5q17 0 39.5 1.5t50.5 3.5q22 -40 71 -107t116 -154.5t141 -190.5q1 6 1.5 16.5t0.5 24.5v272q0 54 -10 80q-3 8 -18 14t-32 9t-28 3q-4 0 -4.5 14.5t2.5 18.5q53 -4 84.5 -5.5t41.5 -1.5q13 0 30 1t37 3q41 3 51 3q2 -6 2 -16
q0 -17 -4 -17q-9 0 -26 -3.5t-33 -9.5t-22 -15q-11 -28 -11 -83v-379q0 -18 1 -53t3 -87q-4 -4 -22 -4zM239 -127q-6 0 -6 4q0 20 4 35q4 16 10 16h268q6 0 6 -8q-2 -20 -10 -47h-272z" />
    <glyph glyph-name="Ntilde" unicode="&#xd1;" horiz-adv-x="753" 
d="M613 -5q-15 0 -32 23l-398 528v-405q0 -58 8 -82q4 -8 20.5 -14.5t35 -10.5t26.5 -4q3 0 3.5 -14t-1.5 -19l-125 6q-18 0 -42.5 -1.5t-46 -2.5t-30.5 -2q-4 4 -4 17q0 16 4 16q12 0 29 3.5t32.5 10t20.5 16.5q10 20 10 84v392q0 53 -11 73q-2 5 -18 9t-33.5 7t-27.5 3
q-4 0 -4.5 15t3.5 19q53 -2 82.5 -3.5t36.5 -1.5q17 0 39.5 1.5t50.5 3.5q22 -40 71 -107t116 -154.5t141 -190.5q1 6 1.5 16.5t0.5 24.5v272q0 54 -10 80q-3 8 -18 14t-32 9t-28 3q-4 0 -4.5 14.5t2.5 18.5q53 -4 84.5 -5.5t41.5 -1.5q13 0 30 1t37 3q41 3 51 3q2 -6 2 -16
q0 -17 -4 -17q-9 0 -26 -3.5t-33 -9.5t-22 -15q-11 -28 -11 -83v-379q0 -18 1 -53t3 -87q-4 -4 -22 -4zM455 741q-36 0 -91 31q-55 30 -91 30q-15 0 -27.5 -13t-23 -25.5t-19.5 -12.5q-8 0 -8 19q0 17 18 44q37 46 83 46q36 0 91 -30q55 -31 91 -31q17 0 43 26q24 25 26 25
q7 0 7 -20q0 -18 -17 -44q-34 -45 -82 -45z" />
    <glyph glyph-name="Eng" unicode="&#x14a;" horiz-adv-x="746" 
d="M390 -222q-15 0 -32.5 6t-21.5 10q-14 20 -14 45q0 23 18.5 39t43.5 16q20 0 46 -26t39 -26q34 0 62 51q28 50 37 142l-384 511v-405q0 -58 8 -82q4 -8 20.5 -14.5t35 -10.5t26.5 -4q3 0 3.5 -15t-1.5 -19q-55 0 -84 0.5t-41.5 1.5t-18.5 1.5t-13.5 0.5t-26.5 -0.5
t-60 -3.5q-4 4 -4 17q0 17 4 17q12 0 29 3.5t32.5 10t20.5 16.5q10 20 10 84v393q0 51 -11 73q-2 5 -18 9t-33.5 7t-27.5 3q-4 0 -4.5 14.5t3.5 18.5q53 -2 82.5 -3.5t36.5 -1.5q16 0 38.5 1.5t51.5 3.5q22 -40 71 -107t116 -154.5t141 -190.5q1 6 1.5 16.5t0.5 24.5v273
q0 61 -10 80q-4 6 -20 12t-33 10t-25 4q-4 0 -4.5 14t2.5 18q53 -4 84.5 -5.5t41.5 -1.5q13 0 30 1t37 3q41 3 51 3q2 -6 2 -16q0 -16 -4 -16q-9 0 -26 -3.5t-33 -9.5t-22 -15q-11 -30 -11 -83v-405q0 -103 -27 -178t-81 -116.5t-134 -41.5z" />
    <glyph glyph-name="O" unicode="O" horiz-adv-x="693" 
d="M119 89q-94 98 -94 239q0 70 25 131.5t69 108t102 73t124 26.5t124 -26.5t102.5 -73t69.5 -108t25 -131.5q0 -141 -94 -239q-65 -68 -146 -90.5t-161.5 0t-145.5 90.5zM361 40q57 0 96.5 36.5t60.5 98t21 134.5q0 76 -20 145q-13 45 -39.5 82.5t-64 59.5t-85.5 22
q-57 0 -96.5 -36t-60 -97t-20.5 -135q0 -75 21 -143q14 -45 40 -83t63.5 -61t83.5 -23z" />
    <glyph glyph-name="Oacute" unicode="&#xd3;" horiz-adv-x="693" 
d="M119 89q-94 98 -94 239q0 70 25 131.5t69 108t102 73t124 26.5t124 -26.5t102.5 -73t69.5 -108t25 -131.5q0 -141 -94 -239q-65 -68 -146 -90.5t-161.5 0t-145.5 90.5zM361 40q57 0 96.5 36.5t60.5 98t21 134.5q0 76 -20 145q-13 45 -39.5 82.5t-64 59.5t-85.5 22
q-57 0 -96.5 -36t-60 -97t-20.5 -135q0 -75 21 -143q14 -45 40 -83t63.5 -61t83.5 -23zM303 733q-4 0 -8 5.5t-4 11.5q0 3 13 17.5t32.5 33.5t39.5 37t35 29q6 3 18 3q22 0 38 -9t16 -24q0 -11 -16.5 -24.5t-41.5 -27.5t-51 -26t-45.5 -19t-25.5 -7z" />
    <glyph glyph-name="Obreve" unicode="&#x14e;" horiz-adv-x="693" 
d="M119 89q-94 98 -94 239q0 70 25 131.5t69 108t102 73t124 26.5t124 -26.5t102.5 -73t69.5 -108t25 -131.5q0 -141 -94 -239q-65 -68 -146 -90.5t-161.5 0t-145.5 90.5zM361 40q57 0 96.5 36.5t60.5 98t21 134.5q0 76 -20 145q-13 45 -39.5 82.5t-64 59.5t-85.5 22
q-57 0 -96.5 -36t-60 -97t-20.5 -135q0 -75 21 -143q14 -45 40 -83t63.5 -61t83.5 -23zM350 748q-33 0 -62 20t-45 61q-2 6 -2 7q0 4 8 12t14 8q2 0 3 -2q12 -26 35.5 -39t48.5 -13q26 0 49 13t35 39q1 2 3 2q6 0 14 -8t8 -12q0 -1 -2 -7q-16 -41 -45 -61t-62 -20z" />
    <glyph glyph-name="uni01D1" unicode="&#x1d1;" horiz-adv-x="693" 
d="M119 89q-94 98 -94 239q0 70 25 131.5t69 108t102 73t124 26.5t124 -26.5t102.5 -73t69.5 -108t25 -131.5q0 -141 -94 -239q-65 -68 -146 -90.5t-161.5 0t-145.5 90.5zM361 40q57 0 96.5 36.5t60.5 98t21 134.5q0 76 -20 145q-13 45 -39.5 82.5t-64 59.5t-85.5 22
q-57 0 -96.5 -36t-60 -97t-20.5 -135q0 -75 21 -143q14 -45 40 -83t63.5 -61t83.5 -23zM347 734q-4 0 -12 8q-8 11 -18.5 22.5t-23.5 24.5q-11 11 -22 21l-22 20t-17 14.5t-7 5.5q0 20 10 20q6 0 27 -10t45 -24t40 -26q93 60 112 60q10 0 10 -20q-2 -2 -21 -18.5t-48 -43.5
q-5 -5 -15.5 -17t-25.5 -29q-6 -8 -12 -8z" />
    <glyph glyph-name="Ocircumflex" unicode="&#xd4;" horiz-adv-x="693" 
d="M119 89q-94 98 -94 239q0 70 25 131.5t69 108t102 73t124 26.5t124 -26.5t102.5 -73t69.5 -108t25 -131.5q0 -141 -94 -239q-65 -68 -146 -90.5t-161.5 0t-145.5 90.5zM361 40q57 0 96.5 36.5t60.5 98t21 134.5q0 76 -20 145q-13 45 -39.5 82.5t-64 59.5t-85.5 22
q-57 0 -96.5 -36t-60 -97t-20.5 -135q0 -75 21 -143q14 -45 40 -83t63.5 -61t83.5 -23zM235 723q-10 0 -10 19l24 21l22 20l22 20q13 13 23.5 24.5t18.5 22.5q8 9 12 9q5 0 12 -9q15 -17 25.5 -29t15.5 -17q29 -27 48 -43.5t21 -18.5q0 -19 -10 -19q-19 0 -112 60
q-16 -11 -40 -25.5t-45 -24.5t-27 -10z" />
    <glyph glyph-name="uni1ED0" unicode="&#x1ed0;" horiz-adv-x="693" 
d="M119 89q-94 98 -94 239q0 70 25 131.5t69 108t102 73t124 26.5t124 -26.5t102.5 -73t69.5 -108t25 -131.5q0 -141 -94 -239q-65 -68 -146 -90.5t-161.5 0t-145.5 90.5zM361 40q57 0 96.5 36.5t60.5 98t21 134.5q0 76 -20 145q-13 45 -39.5 82.5t-64 59.5t-85.5 22
q-57 0 -96.5 -36t-60 -97t-20.5 -135q0 -75 21 -143q14 -45 40 -83t63.5 -61t83.5 -23zM433 825q-4 0 -7 4.5t-3 8.5q0 2 10 13.5t25.5 26.5t31 29t27.5 23q3 2 14 2q17 0 29.5 -7t12.5 -19q0 -9 -18.5 -22.5t-44.5 -27t-48 -22.5t-29 -9zM235 723q-10 0 -10 19l24 21l22 20
l22 20q13 13 23.5 24.5t18.5 22.5q8 9 12 9q5 0 12 -9q15 -17 25.5 -29t15.5 -17q29 -27 48 -43.5t21 -18.5q0 -19 -10 -19q-19 0 -112 60q-16 -11 -40 -25.5t-45 -24.5t-27 -10z" />
    <glyph glyph-name="uni1ED8" unicode="&#x1ed8;" horiz-adv-x="693" 
d="M119 89q-94 98 -94 239q0 70 25 131.5t69 108t102 73t124 26.5t124 -26.5t102.5 -73t69.5 -108t25 -131.5q0 -141 -94 -239q-65 -68 -146 -90.5t-161.5 0t-145.5 90.5zM361 40q57 0 96.5 36.5t60.5 98t21 134.5q0 76 -20 145q-13 45 -39.5 82.5t-64 59.5t-85.5 22
q-57 0 -96.5 -36t-60 -97t-20.5 -135q0 -75 21 -143q14 -45 40 -83t63.5 -61t83.5 -23zM347 -182q-25 0 -43.5 18.5t-18.5 43.5q0 26 18.5 44t43.5 18q26 0 44 -18t18 -44q0 -25 -18 -43.5t-44 -18.5zM235 723q-10 0 -10 19l24 21l22 20l22 20q13 13 23.5 24.5t18.5 22.5
q8 9 12 9q5 0 12 -9q15 -17 25.5 -29t15.5 -17q29 -27 48 -43.5t21 -18.5q0 -19 -10 -19q-19 0 -112 60q-16 -11 -40 -25.5t-45 -24.5t-27 -10z" />
    <glyph glyph-name="uni1ED2" unicode="&#x1ed2;" horiz-adv-x="693" 
d="M119 89q-94 98 -94 239q0 70 25 131.5t69 108t102 73t124 26.5t124 -26.5t102.5 -73t69.5 -108t25 -131.5q0 -141 -94 -239q-65 -68 -146 -90.5t-161.5 0t-145.5 90.5zM361 40q57 0 96.5 36.5t60.5 98t21 134.5q0 76 -20 145q-13 45 -39.5 82.5t-64 59.5t-85.5 22
q-57 0 -96.5 -36t-60 -97t-20.5 -135q0 -75 21 -143q14 -45 40 -83t63.5 -61t83.5 -23zM497 823q-8 0 -30.5 10t-48.5 25t-44.5 30t-17.5 25q1 14 15 20.5t33 6.5q11 0 15 -3q11 -9 26 -25t29.5 -32.5t23.5 -28.5t9 -15q-1 -4 -3.5 -8.5t-6.5 -4.5zM235 723q-10 0 -10 19
l24 21l22 20l22 20q13 13 23.5 24.5t18.5 22.5q8 9 12 9q5 0 12 -9q15 -17 25.5 -29t15.5 -17q29 -27 48 -43.5t21 -18.5q0 -19 -10 -19q-19 0 -112 60q-16 -11 -40 -25.5t-45 -24.5t-27 -10z" />
    <glyph glyph-name="uni1ED4" unicode="&#x1ed4;" horiz-adv-x="693" 
d="M119 89q-94 98 -94 239q0 70 25 131.5t69 108t102 73t124 26.5t124 -26.5t102.5 -73t69.5 -108t25 -131.5q0 -141 -94 -239q-65 -68 -146 -90.5t-161.5 0t-145.5 90.5zM361 40q57 0 96.5 36.5t60.5 98t21 134.5q0 76 -20 145q-13 45 -39.5 82.5t-64 59.5t-85.5 22
q-57 0 -96.5 -36t-60 -97t-20.5 -135q0 -75 21 -143q14 -45 40 -83t63.5 -61t83.5 -23zM235 723q-10 0 -10 19l24 21l22 20l22 20q13 13 23.5 24.5t18.5 22.5q8 9 12 9q5 0 12 -9q15 -17 25.5 -29t15.5 -17q29 -27 48 -43.5t21 -18.5q0 -19 -10 -19q-19 0 -112 60
q-16 -11 -40 -25.5t-45 -24.5t-27 -10zM441 817q-12 0 -21.5 8t-9.5 20q0 11 11.5 17.5t23.5 18.5q9 9 14.5 16.5t5.5 15.5t-6 12t-14 4q-18 0 -36 -18q-9 -9 -14.5 -13.5t-11.5 -4.5q-10 0 -15 10t-5 24q10 14 37.5 30t58.5 16q28 0 47.5 -15t19.5 -40q0 -16 -14 -30
t-29 -25q-14 -10 -22.5 -14t-8.5 -12q0 -6 5 -14q0 -6 -16 -6z" />
    <glyph glyph-name="uni1ED6" unicode="&#x1ed6;" horiz-adv-x="693" 
d="M119 89q-94 98 -94 239q0 70 25 131.5t69 108t102 73t124 26.5t124 -26.5t102.5 -73t69.5 -108t25 -131.5q0 -141 -94 -239q-65 -68 -146 -90.5t-161.5 0t-145.5 90.5zM361 40q57 0 96.5 36.5t60.5 98t21 134.5q0 76 -20 145q-13 45 -39.5 82.5t-64 59.5t-85.5 22
q-57 0 -96.5 -36t-60 -97t-20.5 -135q0 -75 21 -143q14 -45 40 -83t63.5 -61t83.5 -23zM235 723q-10 0 -10 19l24 21l22 20l22 20q13 13 23.5 24.5t18.5 22.5q8 9 12 9q5 0 12 -9q15 -17 25.5 -29t15.5 -17q29 -27 48 -43.5t21 -18.5q0 -19 -10 -19q-19 0 -112 60
q-16 -11 -40 -25.5t-45 -24.5t-27 -10zM439 868q-36 0 -91 31q-55 30 -91 30q-15 0 -27.5 -13t-23 -25.5t-19.5 -12.5q-8 0 -8 19q0 17 18 44q37 46 83 46q36 0 91 -30q55 -31 91 -31q17 0 43 26q24 25 26 25q7 0 7 -20q0 -18 -17 -44q-34 -45 -82 -45z" />
    <glyph glyph-name="Odieresis" unicode="&#xd6;" horiz-adv-x="693" 
d="M119 89q-94 98 -94 239q0 70 25 131.5t69 108t102 73t124 26.5t124 -26.5t102.5 -73t69.5 -108t25 -131.5q0 -141 -94 -239q-65 -68 -146 -90.5t-161.5 0t-145.5 90.5zM361 40q57 0 96.5 36.5t60.5 98t21 134.5q0 76 -20 145q-13 45 -39.5 82.5t-64 59.5t-85.5 22
q-57 0 -96.5 -36t-60 -97t-20.5 -135q0 -75 21 -143q14 -45 40 -83t63.5 -61t83.5 -23zM441 726q-25 0 -42 17t-17 42q0 23 17 40t42 17q23 0 40 -17t17 -40q0 -25 -17 -42t-40 -17zM256 726q-25 0 -42 17t-17 42q0 23 17 40t42 17q23 0 40 -17t17 -40q0 -25 -17 -42
t-40 -17z" />
    <glyph glyph-name="uni1ECC" unicode="&#x1ecc;" horiz-adv-x="693" 
d="M119 89q-94 98 -94 239q0 70 25 131.5t69 108t102 73t124 26.5t124 -26.5t102.5 -73t69.5 -108t25 -131.5q0 -141 -94 -239q-65 -68 -146 -90.5t-161.5 0t-145.5 90.5zM361 40q57 0 96.5 36.5t60.5 98t21 134.5q0 76 -20 145q-13 45 -39.5 82.5t-64 59.5t-85.5 22
q-57 0 -96.5 -36t-60 -97t-20.5 -135q0 -75 21 -143q14 -45 40 -83t63.5 -61t83.5 -23zM347 -182q-25 0 -43.5 18.5t-18.5 43.5q0 26 18.5 44t43.5 18q26 0 44 -18t18 -44q0 -25 -18 -43.5t-44 -18.5z" />
    <glyph glyph-name="Ograve" unicode="&#xd2;" horiz-adv-x="693" 
d="M119 89q-94 98 -94 239q0 70 25 131.5t69 108t102 73t124 26.5t124 -26.5t102.5 -73t69.5 -108t25 -131.5q0 -141 -94 -239q-65 -68 -146 -90.5t-161.5 0t-145.5 90.5zM361 40q57 0 96.5 36.5t60.5 98t21 134.5q0 76 -20 145q-13 45 -39.5 82.5t-64 59.5t-85.5 22
q-57 0 -96.5 -36t-60 -97t-20.5 -135q0 -75 21 -143q14 -45 40 -83t63.5 -61t83.5 -23zM392 733q-7 0 -27.5 7.5t-46.5 20t-50 26.5t-40 27t-16 23q0 15 16 24t38 9q12 0 18 -3q15 -11 35 -29t39.5 -37t32.5 -33.5t13 -17.5q0 -6 -4 -11.5t-8 -5.5z" />
    <glyph glyph-name="uni1ECE" unicode="&#x1ece;" horiz-adv-x="693" 
d="M119 89q-94 98 -94 239q0 70 25 131.5t69 108t102 73t124 26.5t124 -26.5t102.5 -73t69.5 -108t25 -131.5q0 -141 -94 -239q-65 -68 -146 -90.5t-161.5 0t-145.5 90.5zM361 40q57 0 96.5 36.5t60.5 98t21 134.5q0 76 -20 145q-13 45 -39.5 82.5t-64 59.5t-85.5 22
q-57 0 -96.5 -36t-60 -97t-20.5 -135q0 -75 21 -143q14 -45 40 -83t63.5 -61t83.5 -23zM367 690q-12 0 -21.5 8t-9.5 20q0 11 11.5 17.5t23.5 18.5q9 9 14.5 16.5t5.5 15.5t-6 12t-14 4q-18 0 -36 -18q-9 -9 -14.5 -13.5t-11.5 -4.5q-10 0 -15 10t-5 24q10 14 37.5 30
t58.5 16q28 0 47.5 -15t19.5 -40q0 -16 -14 -30t-29 -25q-14 -10 -22.5 -14t-8.5 -12q0 -6 5 -14q0 -6 -16 -6z" />
    <glyph glyph-name="Ohorn" unicode="&#x1a0;" horiz-adv-x="693" 
d="M119 89q-94 98 -94 239q0 70 25 131.5t69 108t102 73t124 26.5q37 0 71 -8.5t65 -23.5q40 -19 69 -29t48 -10q36 0 36 28q0 11 -5.5 17.5t-11.5 14t-6 20.5q0 17 19 30.5t55 9.5q11 -10 18 -25t7 -37q0 -28 -19 -51t-47.5 -36.5t-58.5 -13.5q38 -45 59.5 -102.5
t21.5 -122.5q0 -141 -94 -239q-65 -68 -146 -90.5t-161.5 0t-145.5 90.5zM153 350q0 -75 21 -143q14 -45 40 -83t63.5 -61t83.5 -23q57 0 96.5 36.5t60.5 98t21 134.5q0 76 -20 145q-13 45 -39.5 82.5t-64 59.5t-85.5 22q-57 0 -96.5 -36t-60 -97t-20.5 -135z" />
    <glyph glyph-name="uni1EDA" unicode="&#x1eda;" horiz-adv-x="693" 
d="M119 89q-94 98 -94 239q0 70 25 131.5t69 108t102 73t124 26.5q37 0 71 -8.5t65 -23.5q40 -19 69 -29t48 -10q36 0 36 28q0 11 -5.5 17.5t-11.5 14t-6 20.5q0 17 19 30.5t55 9.5q11 -10 18 -25t7 -37q0 -28 -19 -51t-47.5 -36.5t-58.5 -13.5q38 -45 59.5 -102.5
t21.5 -122.5q0 -141 -94 -239q-65 -68 -146 -90.5t-161.5 0t-145.5 90.5zM153 350q0 -75 21 -143q14 -45 40 -83t63.5 -61t83.5 -23q57 0 96.5 36.5t60.5 98t21 134.5q0 76 -20 145q-13 45 -39.5 82.5t-64 59.5t-85.5 22q-57 0 -96.5 -36t-60 -97t-20.5 -135zM303 733
q-4 0 -8 5.5t-4 11.5q0 3 13 17.5t32.5 33.5t39.5 37t35 29q6 3 18 3q22 0 38 -9t16 -24q0 -11 -16.5 -24.5t-41.5 -27.5t-51 -26t-45.5 -19t-25.5 -7z" />
    <glyph glyph-name="uni1EE2" unicode="&#x1ee2;" horiz-adv-x="693" 
d="M119 89q-94 98 -94 239q0 70 25 131.5t69 108t102 73t124 26.5q37 0 71 -8.5t65 -23.5q40 -19 69 -29t48 -10q36 0 36 28q0 11 -5.5 17.5t-11.5 14t-6 20.5q0 17 19 30.5t55 9.5q11 -10 18 -25t7 -37q0 -28 -19 -51t-47.5 -36.5t-58.5 -13.5q38 -45 59.5 -102.5
t21.5 -122.5q0 -141 -94 -239q-65 -68 -146 -90.5t-161.5 0t-145.5 90.5zM153 350q0 -75 21 -143q14 -45 40 -83t63.5 -61t83.5 -23q57 0 96.5 36.5t60.5 98t21 134.5q0 76 -20 145q-13 45 -39.5 82.5t-64 59.5t-85.5 22q-57 0 -96.5 -36t-60 -97t-20.5 -135zM347 -182
q-25 0 -43.5 18.5t-18.5 43.5q0 26 18.5 44t43.5 18q26 0 44 -18t18 -44q0 -25 -18 -43.5t-44 -18.5z" />
    <glyph glyph-name="uni1EDC" unicode="&#x1edc;" horiz-adv-x="693" 
d="M119 89q-94 98 -94 239q0 70 25 131.5t69 108t102 73t124 26.5q37 0 71 -8.5t65 -23.5q40 -19 69 -29t48 -10q36 0 36 28q0 11 -5.5 17.5t-11.5 14t-6 20.5q0 17 19 30.5t55 9.5q11 -10 18 -25t7 -37q0 -28 -19 -51t-47.5 -36.5t-58.5 -13.5q38 -45 59.5 -102.5
t21.5 -122.5q0 -141 -94 -239q-65 -68 -146 -90.5t-161.5 0t-145.5 90.5zM153 350q0 -75 21 -143q14 -45 40 -83t63.5 -61t83.5 -23q57 0 96.5 36.5t60.5 98t21 134.5q0 76 -20 145q-13 45 -39.5 82.5t-64 59.5t-85.5 22q-57 0 -96.5 -36t-60 -97t-20.5 -135zM392 733
q-7 0 -27.5 7.5t-46.5 20t-50 26.5t-40 27t-16 23q0 15 16 24t38 9q12 0 18 -3q15 -11 35 -29t39.5 -37t32.5 -33.5t13 -17.5q0 -6 -4 -11.5t-8 -5.5z" />
    <glyph glyph-name="uni1EDE" unicode="&#x1ede;" horiz-adv-x="693" 
d="M119 89q-94 98 -94 239q0 70 25 131.5t69 108t102 73t124 26.5q37 0 71 -8.5t65 -23.5q40 -19 69 -29t48 -10q36 0 36 28q0 11 -5.5 17.5t-11.5 14t-6 20.5q0 17 19 30.5t55 9.5q11 -10 18 -25t7 -37q0 -28 -19 -51t-47.5 -36.5t-58.5 -13.5q38 -45 59.5 -102.5
t21.5 -122.5q0 -141 -94 -239q-65 -68 -146 -90.5t-161.5 0t-145.5 90.5zM153 350q0 -75 21 -143q14 -45 40 -83t63.5 -61t83.5 -23q57 0 96.5 36.5t60.5 98t21 134.5q0 76 -20 145q-13 45 -39.5 82.5t-64 59.5t-85.5 22q-57 0 -96.5 -36t-60 -97t-20.5 -135zM367 690
q-12 0 -21.5 8t-9.5 20q0 11 11.5 17.5t23.5 18.5q9 9 14.5 16.5t5.5 15.5t-6 12t-14 4q-18 0 -36 -18q-9 -9 -14.5 -13.5t-11.5 -4.5q-10 0 -15 10t-5 24q10 14 37.5 30t58.5 16q28 0 47.5 -15t19.5 -40q0 -16 -14 -30t-29 -25q-14 -10 -22.5 -14t-8.5 -12q0 -6 5 -14
q0 -6 -16 -6z" />
    <glyph glyph-name="uni1EE0" unicode="&#x1ee0;" horiz-adv-x="693" 
d="M119 89q-94 98 -94 239q0 70 25 131.5t69 108t102 73t124 26.5q37 0 71 -8.5t65 -23.5q40 -19 69 -29t48 -10q36 0 36 28q0 11 -5.5 17.5t-11.5 14t-6 20.5q0 17 19 30.5t55 9.5q11 -10 18 -25t7 -37q0 -28 -19 -51t-47.5 -36.5t-58.5 -13.5q38 -45 59.5 -102.5
t21.5 -122.5q0 -141 -94 -239q-65 -68 -146 -90.5t-161.5 0t-145.5 90.5zM153 350q0 -75 21 -143q14 -45 40 -83t63.5 -61t83.5 -23q57 0 96.5 36.5t60.5 98t21 134.5q0 76 -20 145q-13 45 -39.5 82.5t-64 59.5t-85.5 22q-57 0 -96.5 -36t-60 -97t-20.5 -135zM425 741
q-36 0 -91 31q-55 30 -91 30q-15 0 -27.5 -13t-23 -25.5t-19.5 -12.5q-8 0 -8 19q0 17 18 44q37 46 83 46q36 0 91 -30q55 -31 91 -31q17 0 43 26q24 25 26 25q7 0 7 -20q0 -18 -17 -44q-34 -45 -82 -45z" />
    <glyph glyph-name="Ohungarumlaut" unicode="&#x150;" horiz-adv-x="693" 
d="M119 89q-94 98 -94 239q0 70 25 131.5t69 108t102 73t124 26.5t124 -26.5t102.5 -73t69.5 -108t25 -131.5q0 -141 -94 -239q-65 -68 -146 -90.5t-161.5 0t-145.5 90.5zM361 40q57 0 96.5 36.5t60.5 98t21 134.5q0 76 -20 145q-13 45 -39.5 82.5t-64 59.5t-85.5 22
q-57 0 -96.5 -36t-60 -97t-20.5 -135q0 -75 21 -143q14 -45 40 -83t63.5 -61t83.5 -23zM280 732q-5 0 -10 5.5t-5 10.5q0 3 10 19t25 38t31 44t28 37q8 8 34 8q21 0 32 -8.5t11 -17.5q0 -10 -14 -26.5t-35.5 -35.5t-44 -36t-40 -27.5t-22.5 -10.5zM413 732q-5 0 -9.5 5.5
t-4.5 10.5q0 3 9.5 19t24 38.5t30 44.5t28.5 36q8 8 34 8q20 0 32 -9t12 -17q0 -10 -14 -26.5t-35.5 -35.5t-44 -36t-40 -27.5t-22.5 -10.5z" />
    <glyph glyph-name="Omacron" unicode="&#x14c;" horiz-adv-x="693" 
d="M119 89q-94 98 -94 239q0 70 25 131.5t69 108t102 73t124 26.5t124 -26.5t102.5 -73t69.5 -108t25 -131.5q0 -141 -94 -239q-65 -68 -146 -90.5t-161.5 0t-145.5 90.5zM361 40q57 0 96.5 36.5t60.5 98t21 134.5q0 76 -20 145q-13 45 -39.5 82.5t-64 59.5t-85.5 22
q-57 0 -96.5 -36t-60 -97t-20.5 -135q0 -75 21 -143q14 -45 40 -83t63.5 -61t83.5 -23zM217 748q-6 0 -6 4q0 20 4 35q4 16 10 16h268q6 0 6 -8q-2 -20 -10 -47h-272z" />
    <glyph glyph-name="Oslash" unicode="&#xd8;" horiz-adv-x="698" 
d="M159 -16q-10 4 -22.5 11.5t-10.5 11.5l29 49q-59 46 -94 117t-35 155q0 71 25 132.5t69 108t102 72.5t123 26q80 0 151 -40l27 45q38 -15 33 -22l-26 -44q61 -44 99.5 -115.5t38.5 -162.5q0 -93 -43 -170q-43 -78 -117.5 -123t-160.5 -45q-43 0 -83.5 11.5t-74.5 31.5z
M154 350q0 -54 12.5 -109.5t38.5 -100.5l254 424q-24 25 -55.5 39.5t-71.5 14.5q-58 0 -97.5 -36.5t-60 -97t-20.5 -134.5zM362 40q46 0 79.5 23t55.5 61.5t32.5 86.5t10.5 98q0 59 -13 118t-42 104l-255 -427q25 -29 57.5 -46.5t74.5 -17.5z" />
    <glyph glyph-name="Oslashacute" unicode="&#x1fe;" horiz-adv-x="698" 
d="M159 -16q-10 4 -22.5 11.5t-10.5 11.5l29 49q-59 46 -94 117t-35 155q0 71 25 132.5t69 108t102 72.5t123 26q80 0 151 -40l27 45q38 -15 33 -22l-26 -44q61 -44 99.5 -115.5t38.5 -162.5q0 -93 -43 -170q-43 -78 -117.5 -123t-160.5 -45q-43 0 -83.5 11.5t-74.5 31.5z
M154 350q0 -54 12.5 -109.5t38.5 -100.5l254 424q-24 25 -55.5 39.5t-71.5 14.5q-58 0 -97.5 -36.5t-60 -97t-20.5 -134.5zM362 40q46 0 79.5 23t55.5 61.5t32.5 86.5t10.5 98q0 59 -13 118t-42 104l-255 -427q25 -29 57.5 -46.5t74.5 -17.5zM305 737q-4 0 -8 5.5t-4 11.5
q0 3 13 17.5t32.5 33.5t39.5 37t35 29q6 3 18 3q22 0 38 -9t16 -24q0 -11 -16.5 -24.5t-41.5 -27.5t-51 -26t-45.5 -19t-25.5 -7z" />
    <glyph glyph-name="Otilde" unicode="&#xd5;" horiz-adv-x="693" 
d="M119 89q-94 98 -94 239q0 70 25 131.5t69 108t102 73t124 26.5t124 -26.5t102.5 -73t69.5 -108t25 -131.5q0 -141 -94 -239q-65 -68 -146 -90.5t-161.5 0t-145.5 90.5zM361 40q57 0 96.5 36.5t60.5 98t21 134.5q0 76 -20 145q-13 45 -39.5 82.5t-64 59.5t-85.5 22
q-57 0 -96.5 -36t-60 -97t-20.5 -135q0 -75 21 -143q14 -45 40 -83t63.5 -61t83.5 -23zM425 741q-36 0 -91 31q-55 30 -91 30q-15 0 -27.5 -13t-23 -25.5t-19.5 -12.5q-8 0 -8 19q0 17 18 44q37 46 83 46q36 0 91 -30q55 -31 91 -31q17 0 43 26q24 25 26 25q7 0 7 -20
q0 -18 -17 -44q-34 -45 -82 -45z" />
    <glyph glyph-name="uni1E4E" unicode="&#x1e4e;" horiz-adv-x="693" 
d="M119 89q-94 98 -94 239q0 70 25 131.5t69 108t102 73t124 26.5t124 -26.5t102.5 -73t69.5 -108t25 -131.5q0 -141 -94 -239q-65 -68 -146 -90.5t-161.5 0t-145.5 90.5zM361 40q57 0 96.5 36.5t60.5 98t21 134.5q0 76 -20 145q-13 45 -39.5 82.5t-64 59.5t-85.5 22
q-57 0 -96.5 -36t-60 -97t-20.5 -135q0 -75 21 -143q14 -45 40 -83t63.5 -61t83.5 -23zM425 741q-36 0 -91 31q-55 30 -91 30q-15 0 -27.5 -13t-23 -25.5t-19.5 -12.5q-8 0 -8 19q0 17 18 44q37 46 83 46q36 0 91 -30q55 -31 91 -31q17 0 43 26q24 25 26 25q7 0 7 -20
q0 -18 -17 -44q-34 -45 -82 -45zM428 904q-25 0 -42 17t-17 42q0 23 17 40t42 17q23 0 40 -17t17 -40q0 -25 -17 -42t-40 -17zM243 904q-25 0 -42 17t-17 42q0 23 17 40t42 17q23 0 40 -17t17 -40q0 -25 -17 -42t-40 -17z" />
    <glyph glyph-name="OE" unicode="&#x152;" horiz-adv-x="1011" 
d="M350 -8q-66 0 -123.5 26t-101.5 72t-68.5 107t-24.5 131q0 71 24.5 132t68.5 108t102 73t125 26q15 0 44.5 -1t73.5 -3t74.5 -3.5t47.5 -1.5q44 0 155 3q110 3 167 3q2 -14 6 -34t10 -46l14 -62q-5 -5 -21 -5q-11 0 -14 7q-33 89 -128 89h-53q-75 0 -76 -13
q-2 -12 -3.5 -32t-1.5 -49v-157q0 -6 43 -6h57q57 0 69 5q11 5 17 35q3 13 6 25q1 7 15 7q15 0 20 -5v-189q-4 -4 -19 -4q-13 0 -16 8q-4 14 -7 23.5t-5 16.5q-5 11 -6 12.5t-10 7.5q-14 8 -92 8q-72 0 -72 -8v-155q0 -55 9 -81q4 -13 68 -13h36q80 0 120 21q16 8 36 35
t31 61q2 6 14 6q21 0 27 -6l-32 -89q-6 -16 -13 -40.5t-9 -39.5q-27 0 -69 0.5t-100 1.5q-115 3 -172 3q-31 0 -59 -1t-54 -3q-87 -6 -130 -6zM377 38h28t21 1q17 1 37 8t32 21q39 41 39 145v261q0 76 -39 109q-26 22 -62.5 28.5t-94.5 6.5q-60 0 -100 -40q-42 -40 -60 -99
t-18 -129q0 -77 22 -143q15 -46 42.5 -84.5t66.5 -61.5t86 -23z" />
    <glyph glyph-name="P" unicode="P" horiz-adv-x="546" 
d="M30 -4q-3 5 -3 18q0 16 3 16q9 0 24 3t28.5 8t15.5 11q6 18 6 91v378q0 57 -6 82q-2 6 -15.5 11.5t-29 9.5t-23.5 4q-4 0 -4 15t4 18q105 -3 133 -3q14 0 31 0.5t36 1.5l68 1q30 0 59.5 -5.5t59.5 -19.5q48 -22 75.5 -62.5t27.5 -95.5q0 -47 -24 -92q-25 -45 -74.5 -76.5
t-111.5 -31.5q-21 0 -42 7.5t-29 18.5q-7 7 -5.5 19.5t4.5 12.5q21 -10 56 -10q48 0 76 39.5t28 99.5q0 67 -27 106t-83 39q-43 0 -58 -7q-12 -6 -12 -104v-357q0 -58 8 -85q2 -8 17.5 -14t33.5 -9.5t27 -3.5q4 0 4 -17q0 -9 -2 -17q-109 6 -142 6q-27 0 -60.5 -1.5
t-53.5 -2.5z" />
    <glyph glyph-name="uni1E54" unicode="&#x1e54;" horiz-adv-x="546" 
d="M30 -4q-3 5 -3 18q0 16 3 16q9 0 24 3t28.5 8t15.5 11q6 18 6 91v378q0 57 -6 82q-2 6 -15.5 11.5t-29 9.5t-23.5 4q-4 0 -4 15t4 18q105 -3 133 -3q14 0 31 0.5t36 1.5l68 1q30 0 59.5 -5.5t59.5 -19.5q48 -22 75.5 -62.5t27.5 -95.5q0 -47 -24 -92q-25 -45 -74.5 -76.5
t-111.5 -31.5q-21 0 -42 7.5t-29 18.5q-7 7 -5.5 19.5t4.5 12.5q21 -10 56 -10q48 0 76 39.5t28 99.5q0 67 -27 106t-83 39q-43 0 -58 -7q-12 -6 -12 -104v-357q0 -58 8 -85q2 -8 17.5 -14t33.5 -9.5t27 -3.5q4 0 4 -17q0 -9 -2 -17q-109 6 -142 6q-27 0 -60.5 -1.5
t-53.5 -2.5zM229 733q-4 0 -8 5.5t-4 11.5q0 3 13 17.5t32.5 33.5t39.5 37t35 29q6 3 18 3q22 0 38 -9t16 -24q0 -11 -16.5 -24.5t-41.5 -27.5t-51 -26t-45.5 -19t-25.5 -7z" />
    <glyph glyph-name="uni1E56" unicode="&#x1e56;" horiz-adv-x="546" 
d="M30 -4q-3 5 -3 18q0 16 3 16q9 0 24 3t28.5 8t15.5 11q6 18 6 91v378q0 57 -6 82q-2 6 -15.5 11.5t-29 9.5t-23.5 4q-4 0 -4 15t4 18q105 -3 133 -3q14 0 31 0.5t36 1.5l68 1q30 0 59.5 -5.5t59.5 -19.5q48 -22 75.5 -62.5t27.5 -95.5q0 -47 -24 -92q-25 -45 -74.5 -76.5
t-111.5 -31.5q-21 0 -42 7.5t-29 18.5q-7 7 -5.5 19.5t4.5 12.5q21 -10 56 -10q48 0 76 39.5t28 99.5q0 67 -27 106t-83 39q-43 0 -58 -7q-12 -6 -12 -104v-357q0 -58 8 -85q2 -8 17.5 -14t33.5 -9.5t27 -3.5q4 0 4 -17q0 -9 -2 -17q-109 6 -142 6q-27 0 -60.5 -1.5
t-53.5 -2.5zM274 770q-25 0 -43 18t-18 43t18 42.5t43 17.5t42.5 -17.5t17.5 -42.5t-17.5 -43t-42.5 -18z" />
    <glyph glyph-name="Thorn" unicode="&#xde;" horiz-adv-x="564" 
d="M32 -4q-4 4 -4 16q0 18 4 18q8 0 23 3t28 8.5t15 10.5q7 25 7 84v386q0 66 -7 84q-3 6 -16 11t-27 8.5t-22 3.5q-4 0 -4 15t3 18l132 -6q19 0 128 6q3 -7 3 -16q0 -17 -4 -17q-6 0 -21 -3.5t-28.5 -8.5t-15.5 -11q-7 -28 -7 -84q0 -6 -0.5 -9l-0.5 -3q0 -6 4 -6
q12 0 34.5 6t47.5 6q27 0 54.5 -5.5t57.5 -19.5q46 -22 75 -60t29 -97q0 -49 -26.5 -95t-73.5 -75.5t-109 -29.5q-22 0 -43 7.5t-28 17.5q-9 14 -6.5 23t5.5 9q23 -9 56 -9q47 0 75 39.5t28 98.5q0 146 -110 146q-44 0 -58 -6q-6 -3 -9 -15t-3 -54v-251q0 -55 9 -88
q2 -4 15 -9.5t27.5 -9t20.5 -3.5q4 0 4 -18q0 -5 -0.5 -9t-1.5 -7q-37 3 -68.5 5t-59.5 2q-17 0 -45.5 -1.5t-53.5 -3t-33 -2.5z" />
    <glyph glyph-name="Q" unicode="Q" horiz-adv-x="744" 
d="M568 -140q-37 0 -79.5 17.5t-75.5 39.5q-33 23 -77 47.5t-78 35.5q-36 11 -74.5 37t-74.5 66q-37 40 -61 99.5t-24 125.5q0 93 43 170q43 78 116.5 123.5t160.5 45.5t160 -45q74 -46 117 -124t43 -170q0 -67 -22.5 -126.5t-57.5 -99.5q-34 -40 -72 -65t-72 -32
q41 -20 68.5 -36t43.5 -24q18 -9 48 -16.5t67 -7.5q26 0 45.5 4.5t26.5 4.5q12 0 12 -20v-5q-84 -45 -183 -45zM360 42q57 0 97 36t61 97t21 134q0 116 -48 206q-25 45 -67 72t-96 27q-57 0 -97 -36t-61 -95.5t-21 -132.5q0 -74 21 -142q14 -45 41 -83t65 -60.5t84 -22.5z
" />
    <glyph glyph-name="R" unicode="R" horiz-adv-x="685" 
d="M633 -6q-104 0 -164 48q-35 27 -64.5 63t-51.5 70.5t-36 56.5q-18 26 -34.5 47t-48.5 21q-16 0 -16 -17v-141q0 -58 8 -85q2 -8 17.5 -14t33.5 -9.5t27 -3.5q4 0 4 -17q0 -9 -2 -17q-109 6 -142 6q-27 0 -60.5 -1t-53.5 -3l-20 -2q-3 5 -3 18q0 16 3 16q9 0 24 3t28.5 8
t15.5 11q6 18 6 91v378q0 57 -6 82q-2 6 -15.5 11.5t-29 9.5t-23.5 4q-4 0 -4 15t4 18q107 -3 133 -3q49 1 76 1t41 0.5t24 0.5q53 0 104 -19t84.5 -58t33.5 -99q0 -36 -16 -70t-43 -60t-61 -40q-8 -3 -4 -10q28 -50 56 -92.5t56 -77.5q35 -43 75.5 -73.5t74.5 -30.5
q4 -5 4 -16t-4 -18q-6 -1 -13.5 -1.5t-17.5 -0.5zM282 348h26q37 0 66.5 35t29.5 91q0 136 -116 136q-43 0 -58 -7q-12 -5 -12 -104v-115q0 -22 17 -29t47 -7z" />
    <glyph glyph-name="Racute" unicode="&#x154;" horiz-adv-x="685" 
d="M633 -6q-104 0 -164 48q-35 27 -64.5 63t-51.5 70.5t-36 56.5q-18 26 -34.5 47t-48.5 21q-16 0 -16 -17v-141q0 -58 8 -85q2 -8 17.5 -14t33.5 -9.5t27 -3.5q4 0 4 -17q0 -9 -2 -17q-109 6 -142 6q-27 0 -60.5 -1t-53.5 -3l-20 -2q-3 5 -3 18q0 16 3 16q9 0 24 3t28.5 8
t15.5 11q6 18 6 91v378q0 57 -6 82q-2 6 -15.5 11.5t-29 9.5t-23.5 4q-4 0 -4 15t4 18q107 -3 133 -3q49 1 76 1t41 0.5t24 0.5q53 0 104 -19t84.5 -58t33.5 -99q0 -36 -16 -70t-43 -60t-61 -40q-8 -3 -4 -10q28 -50 56 -92.5t56 -77.5q35 -43 75.5 -73.5t74.5 -30.5
q4 -5 4 -16t-4 -18q-6 -1 -13.5 -1.5t-17.5 -0.5zM282 348h26q37 0 66.5 35t29.5 91q0 136 -116 136q-43 0 -58 -7q-12 -5 -12 -104v-115q0 -22 17 -29t47 -7zM229 733q-4 0 -8 5.5t-4 11.5q0 3 13 17.5t32.5 33.5t39.5 37t35 29q6 3 18 3q22 0 38 -9t16 -24
q0 -11 -16.5 -24.5t-41.5 -27.5t-51 -26t-45.5 -19t-25.5 -7z" />
    <glyph glyph-name="Rcaron" unicode="&#x158;" horiz-adv-x="685" 
d="M633 -6q-104 0 -164 48q-35 27 -64.5 63t-51.5 70.5t-36 56.5q-18 26 -34.5 47t-48.5 21q-16 0 -16 -17v-141q0 -58 8 -85q2 -8 17.5 -14t33.5 -9.5t27 -3.5q4 0 4 -17q0 -9 -2 -17q-109 6 -142 6q-27 0 -60.5 -1t-53.5 -3l-20 -2q-3 5 -3 18q0 16 3 16q9 0 24 3t28.5 8
t15.5 11q6 18 6 91v378q0 57 -6 82q-2 6 -15.5 11.5t-29 9.5t-23.5 4q-4 0 -4 15t4 18q107 -3 133 -3q49 1 76 1t41 0.5t24 0.5q53 0 104 -19t84.5 -58t33.5 -99q0 -36 -16 -70t-43 -60t-61 -40q-8 -3 -4 -10q28 -50 56 -92.5t56 -77.5q35 -43 75.5 -73.5t74.5 -30.5
q4 -5 4 -16t-4 -18q-6 -1 -13.5 -1.5t-17.5 -0.5zM282 348h26q37 0 66.5 35t29.5 91q0 136 -116 136q-43 0 -58 -7q-12 -5 -12 -104v-115q0 -22 17 -29t47 -7zM273 734q-4 0 -12 8q-8 11 -18.5 22.5t-23.5 24.5q-11 11 -22 21l-22 20t-17 14.5t-7 5.5q0 20 10 20q6 0 27 -10
t45 -24t40 -26q93 60 112 60q10 0 10 -20q-2 -2 -21 -18.5t-48 -43.5q-5 -5 -15.5 -17t-25.5 -29q-6 -8 -12 -8z" />
    <glyph glyph-name="uni0156" unicode="&#x156;" horiz-adv-x="685" 
d="M633 -6q-104 0 -164 48q-35 27 -64.5 63t-51.5 70.5t-36 56.5q-18 26 -34.5 47t-48.5 21q-16 0 -16 -17v-141q0 -58 8 -85q2 -8 17.5 -14t33.5 -9.5t27 -3.5q4 0 4 -17q0 -9 -2 -17q-109 6 -142 6q-27 0 -60.5 -1t-53.5 -3l-20 -2q-3 5 -3 18q0 16 3 16q9 0 24 3t28.5 8
t15.5 11q6 18 6 91v378q0 57 -6 82q-2 6 -15.5 11.5t-29 9.5t-23.5 4q-4 0 -4 15t4 18q107 -3 133 -3q49 1 76 1t41 0.5t24 0.5q53 0 104 -19t84.5 -58t33.5 -99q0 -36 -16 -70t-43 -60t-61 -40q-8 -3 -4 -10q28 -50 56 -92.5t56 -77.5q35 -43 75.5 -73.5t74.5 -30.5
q4 -5 4 -16t-4 -18q-6 -1 -13.5 -1.5t-17.5 -0.5zM282 348h26q37 0 66.5 35t29.5 91q0 136 -116 136q-43 0 -58 -7q-12 -5 -12 -104v-115q0 -22 17 -29t47 -7zM309 -222q-7 0 -15.5 4t-8.5 7q11 10 27.5 24t16.5 29q0 16 -20 30q-21 14 -21 31q0 23 25.5 38t65.5 15
q9 -8 15.5 -25.5t6.5 -32.5q0 -67 -87 -120h-5z" />
    <glyph glyph-name="uni1E58" unicode="&#x1e58;" horiz-adv-x="685" 
d="M633 -6q-104 0 -164 48q-35 27 -64.5 63t-51.5 70.5t-36 56.5q-18 26 -34.5 47t-48.5 21q-16 0 -16 -17v-141q0 -58 8 -85q2 -8 17.5 -14t33.5 -9.5t27 -3.5q4 0 4 -17q0 -9 -2 -17q-109 6 -142 6q-27 0 -60.5 -1t-53.5 -3l-20 -2q-3 5 -3 18q0 16 3 16q9 0 24 3t28.5 8
t15.5 11q6 18 6 91v378q0 57 -6 82q-2 6 -15.5 11.5t-29 9.5t-23.5 4q-4 0 -4 15t4 18q107 -3 133 -3q49 1 76 1t41 0.5t24 0.5q53 0 104 -19t84.5 -58t33.5 -99q0 -36 -16 -70t-43 -60t-61 -40q-8 -3 -4 -10q28 -50 56 -92.5t56 -77.5q35 -43 75.5 -73.5t74.5 -30.5
q4 -5 4 -16t-4 -18q-6 -1 -13.5 -1.5t-17.5 -0.5zM282 348h26q37 0 66.5 35t29.5 91q0 136 -116 136q-43 0 -58 -7q-12 -5 -12 -104v-115q0 -22 17 -29t47 -7zM274 770q-25 0 -43 18t-18 43t18 42.5t43 17.5t42.5 -17.5t17.5 -42.5t-17.5 -43t-42.5 -18z" />
    <glyph glyph-name="uni1E5A" unicode="&#x1e5a;" horiz-adv-x="685" 
d="M633 -6q-104 0 -164 48q-35 27 -64.5 63t-51.5 70.5t-36 56.5q-18 26 -34.5 47t-48.5 21q-16 0 -16 -17v-141q0 -58 8 -85q2 -8 17.5 -14t33.5 -9.5t27 -3.5q4 0 4 -17q0 -9 -2 -17q-109 6 -142 6q-27 0 -60.5 -1t-53.5 -3l-20 -2q-3 5 -3 18q0 16 3 16q9 0 24 3t28.5 8
t15.5 11q6 18 6 91v378q0 57 -6 82q-2 6 -15.5 11.5t-29 9.5t-23.5 4q-4 0 -4 15t4 18q107 -3 133 -3q49 1 76 1t41 0.5t24 0.5q53 0 104 -19t84.5 -58t33.5 -99q0 -36 -16 -70t-43 -60t-61 -40q-8 -3 -4 -10q28 -50 56 -92.5t56 -77.5q35 -43 75.5 -73.5t74.5 -30.5
q4 -5 4 -16t-4 -18q-6 -1 -13.5 -1.5t-17.5 -0.5zM282 348h26q37 0 66.5 35t29.5 91q0 136 -116 136q-43 0 -58 -7q-12 -5 -12 -104v-115q0 -22 17 -29t47 -7zM343 -182q-25 0 -43.5 18.5t-18.5 43.5q0 26 18.5 44t43.5 18q26 0 44 -18t18 -44q0 -25 -18 -43.5t-44 -18.5z
" />
    <glyph glyph-name="Rmacronbelow" unicode="&#x1e5e;" horiz-adv-x="685" 
d="M633 -6q-104 0 -164 48q-35 27 -64.5 63t-51.5 70.5t-36 56.5q-18 26 -34.5 47t-48.5 21q-16 0 -16 -17v-141q0 -58 8 -85q2 -8 17.5 -14t33.5 -9.5t27 -3.5q4 0 4 -17q0 -9 -2 -17q-109 6 -142 6q-27 0 -60.5 -1t-53.5 -3l-20 -2q-3 5 -3 18q0 16 3 16q9 0 24 3t28.5 8
t15.5 11q6 18 6 91v378q0 57 -6 82q-2 6 -15.5 11.5t-29 9.5t-23.5 4q-4 0 -4 15t4 18q107 -3 133 -3q49 1 76 1t41 0.5t24 0.5q53 0 104 -19t84.5 -58t33.5 -99q0 -36 -16 -70t-43 -60t-61 -40q-8 -3 -4 -10q28 -50 56 -92.5t56 -77.5q35 -43 75.5 -73.5t74.5 -30.5
q4 -5 4 -16t-4 -18q-6 -1 -13.5 -1.5t-17.5 -0.5zM282 348h26q37 0 66.5 35t29.5 91q0 136 -116 136q-43 0 -58 -7q-12 -5 -12 -104v-115q0 -22 17 -29t47 -7zM216 -120q-6 0 -6 4q0 20 4 35q4 16 10 16h268q6 0 6 -8q-2 -20 -10 -47h-272z" />
    <glyph glyph-name="S" unicode="S" horiz-adv-x="492" 
d="M243 -10q-62 0 -184 28q-6 24 -11.5 57.5t-9 63.5t-3.5 41q2 8 16 8q26 0 29 -8q4 -18 14 -39.5t28 -45.5q17 -25 46.5 -40.5t66.5 -15.5q47 0 78 28t31 84q0 40 -23.5 62.5t-50.5 41.5q-7 4 -22 13t-29.5 18.5t-22.5 13.5q-19 12 -31.5 20t-23.5 16.5t-27 21.5
q-32 26 -49.5 59t-17.5 73q0 50 29.5 90.5t76.5 64t99 23.5q28 0 49 -3t32 -6t27 -7t51 -12q12 -67 12 -154q-1 -9 -12 -9q-27 0 -29 9q-4 31 -22 61.5t-46.5 51.5t-64.5 21q-46 0 -70.5 -26t-24.5 -70q0 -28 10 -43.5t26 -33.5q11 -12 36 -30t56 -37.5t60 -36.5
q55 -32 85 -69.5t30 -99.5q0 -53 -30 -95t-78.5 -65.5t-105.5 -23.5z" />
    <glyph glyph-name="Sacute" unicode="&#x15a;" horiz-adv-x="492" 
d="M243 -10q-62 0 -184 28q-6 24 -11.5 57.5t-9 63.5t-3.5 41q2 8 16 8q26 0 29 -8q4 -18 14 -39.5t28 -45.5q17 -25 46.5 -40.5t66.5 -15.5q47 0 78 28t31 84q0 40 -23.5 62.5t-50.5 41.5q-7 4 -22 13t-29.5 18.5t-22.5 13.5q-19 12 -31.5 20t-23.5 16.5t-27 21.5
q-32 26 -49.5 59t-17.5 73q0 50 29.5 90.5t76.5 64t99 23.5q28 0 49 -3t32 -6t27 -7t51 -12q12 -67 12 -154q-1 -9 -12 -9q-27 0 -29 9q-4 31 -22 61.5t-46.5 51.5t-64.5 21q-46 0 -70.5 -26t-24.5 -70q0 -28 10 -43.5t26 -33.5q11 -12 36 -30t56 -37.5t60 -36.5
q55 -32 85 -69.5t30 -99.5q0 -53 -30 -95t-78.5 -65.5t-105.5 -23.5zM203 733q-4 0 -8 5.5t-4 11.5q0 3 13 17.5t32.5 33.5t39.5 37t35 29q6 3 18 3q22 0 38 -9t16 -24q0 -11 -16.5 -24.5t-41.5 -27.5t-51 -26t-45.5 -19t-25.5 -7z" />
    <glyph glyph-name="uni1E64" unicode="&#x1e64;" horiz-adv-x="492" 
d="M243 -10q-62 0 -184 28q-6 24 -11.5 57.5t-9 63.5t-3.5 41q2 8 16 8q26 0 29 -8q4 -18 14 -39.5t28 -45.5q17 -25 46.5 -40.5t66.5 -15.5q47 0 78 28t31 84q0 40 -23.5 62.5t-50.5 41.5q-7 4 -22 13t-29.5 18.5t-22.5 13.5q-19 12 -31.5 20t-23.5 16.5t-27 21.5
q-32 26 -49.5 59t-17.5 73q0 50 29.5 90.5t76.5 64t99 23.5q28 0 49 -3t32 -6t27 -7t51 -12q12 -67 12 -154q-1 -9 -12 -9q-27 0 -29 9q-4 31 -22 61.5t-46.5 51.5t-64.5 21q-46 0 -70.5 -26t-24.5 -70q0 -28 10 -43.5t26 -33.5q11 -12 36 -30t56 -37.5t60 -36.5
q55 -32 85 -69.5t30 -99.5q0 -53 -30 -95t-78.5 -65.5t-105.5 -23.5zM203 733q-4 0 -8 5.5t-4 11.5q0 3 13 17.5t32.5 33.5t39.5 37t35 29q6 3 18 3q22 0 38 -9t16 -24q0 -11 -16.5 -24.5t-41.5 -27.5t-51 -26t-45.5 -19t-25.5 -7zM317 939q-25 0 -43 18t-18 43t18 42.5
t43 17.5t42.5 -17.5t17.5 -42.5t-17.5 -43t-42.5 -18z" />
    <glyph glyph-name="Scaron" unicode="&#x160;" horiz-adv-x="492" 
d="M243 -10q-62 0 -184 28q-6 24 -11.5 57.5t-9 63.5t-3.5 41q2 8 16 8q26 0 29 -8q4 -18 14 -39.5t28 -45.5q17 -25 46.5 -40.5t66.5 -15.5q47 0 78 28t31 84q0 40 -23.5 62.5t-50.5 41.5q-7 4 -22 13t-29.5 18.5t-22.5 13.5q-19 12 -31.5 20t-23.5 16.5t-27 21.5
q-32 26 -49.5 59t-17.5 73q0 50 29.5 90.5t76.5 64t99 23.5q28 0 49 -3t32 -6t27 -7t51 -12q12 -67 12 -154q-1 -9 -12 -9q-27 0 -29 9q-4 31 -22 61.5t-46.5 51.5t-64.5 21q-46 0 -70.5 -26t-24.5 -70q0 -28 10 -43.5t26 -33.5q11 -12 36 -30t56 -37.5t60 -36.5
q55 -32 85 -69.5t30 -99.5q0 -53 -30 -95t-78.5 -65.5t-105.5 -23.5zM247 734q-4 0 -12 8q-8 11 -18.5 22.5t-23.5 24.5q-11 11 -22 21l-22 20t-17 14.5t-7 5.5q0 20 10 20q6 0 27 -10t45 -24t40 -26q93 60 112 60q10 0 10 -20q-2 -2 -21 -18.5t-48 -43.5q-5 -5 -15.5 -17
t-25.5 -29q-6 -8 -12 -8z" />
    <glyph glyph-name="uni1E66" unicode="&#x1e66;" horiz-adv-x="492" 
d="M243 -10q-62 0 -184 28q-6 24 -11.5 57.5t-9 63.5t-3.5 41q2 8 16 8q26 0 29 -8q4 -18 14 -39.5t28 -45.5q17 -25 46.5 -40.5t66.5 -15.5q47 0 78 28t31 84q0 40 -23.5 62.5t-50.5 41.5q-7 4 -22 13t-29.5 18.5t-22.5 13.5q-19 12 -31.5 20t-23.5 16.5t-27 21.5
q-32 26 -49.5 59t-17.5 73q0 50 29.5 90.5t76.5 64t99 23.5q28 0 49 -3t32 -6t27 -7t51 -12q12 -67 12 -154q-1 -9 -12 -9q-27 0 -29 9q-4 31 -22 61.5t-46.5 51.5t-64.5 21q-46 0 -70.5 -26t-24.5 -70q0 -28 10 -43.5t26 -33.5q11 -12 36 -30t56 -37.5t60 -36.5
q55 -32 85 -69.5t30 -99.5q0 -53 -30 -95t-78.5 -65.5t-105.5 -23.5zM247 734q-4 0 -12 8q-8 11 -18.5 22.5t-23.5 24.5q-11 11 -22 21l-22 20t-17 14.5t-7 5.5q0 20 10 20q6 0 27 -10t45 -24t40 -26q93 60 112 60q10 0 10 -20q-2 -2 -21 -18.5t-48 -43.5q-5 -5 -15.5 -17
t-25.5 -29q-6 -8 -12 -8zM247 891q-25 0 -43 18t-18 43q0 24 17 43.5t45 19.5q26 0 44 -18t18 -44q0 -28 -19.5 -45t-43.5 -17z" />
    <glyph glyph-name="Scedilla" unicode="&#x15e;" horiz-adv-x="492" 
d="M243 -10q-62 0 -184 28q-6 24 -11.5 57.5t-9 63.5t-3.5 41q2 8 16 8q26 0 29 -8q4 -18 14 -39.5t28 -45.5q17 -25 46.5 -40.5t66.5 -15.5q47 0 78 28t31 84q0 40 -23.5 62.5t-50.5 41.5q-7 4 -22 13t-29.5 18.5t-22.5 13.5q-19 12 -31.5 20t-23.5 16.5t-27 21.5
q-32 26 -49.5 59t-17.5 73q0 50 29.5 90.5t76.5 64t99 23.5q28 0 49 -3t32 -6t27 -7t51 -12q12 -67 12 -154q-1 -9 -12 -9q-27 0 -29 9q-4 31 -22 61.5t-46.5 51.5t-64.5 21q-46 0 -70.5 -26t-24.5 -70q0 -28 10 -43.5t26 -33.5q11 -12 36 -30t56 -37.5t60 -36.5
q55 -32 85 -69.5t30 -99.5q0 -53 -30 -95t-78.5 -65.5t-105.5 -23.5zM219 -154q-28 0 -40 12q-3 12 -3 16q0 5 4 9.5t7 4.5q8 0 19 -7t24 -7q20 0 30.5 9t10.5 22q0 14 -8 22.5t-20 8.5q-13 0 -28 -6q-2 0 -7.5 5.5t-4.5 8.5q4 6 10.5 18t12.5 22.5t7 12.5h27l-16 -25l22 1
q21 0 35 -15t14 -35q0 -35 -27 -56t-69 -21z" />
    <glyph glyph-name="Scircumflex" unicode="&#x15c;" horiz-adv-x="492" 
d="M243 -10q-62 0 -184 28q-6 24 -11.5 57.5t-9 63.5t-3.5 41q2 8 16 8q26 0 29 -8q4 -18 14 -39.5t28 -45.5q17 -25 46.5 -40.5t66.5 -15.5q47 0 78 28t31 84q0 40 -23.5 62.5t-50.5 41.5q-7 4 -22 13t-29.5 18.5t-22.5 13.5q-19 12 -31.5 20t-23.5 16.5t-27 21.5
q-32 26 -49.5 59t-17.5 73q0 50 29.5 90.5t76.5 64t99 23.5q28 0 49 -3t32 -6t27 -7t51 -12q12 -67 12 -154q-1 -9 -12 -9q-27 0 -29 9q-4 31 -22 61.5t-46.5 51.5t-64.5 21q-46 0 -70.5 -26t-24.5 -70q0 -28 10 -43.5t26 -33.5q11 -12 36 -30t56 -37.5t60 -36.5
q55 -32 85 -69.5t30 -99.5q0 -53 -30 -95t-78.5 -65.5t-105.5 -23.5zM135 723q-10 0 -10 19l24 21l22 20l22 20q13 13 23.5 24.5t18.5 22.5q8 9 12 9q5 0 12 -9q15 -17 25.5 -29t15.5 -17q29 -27 48 -43.5t21 -18.5q0 -19 -10 -19q-19 0 -112 60q-16 -11 -40 -25.5
t-45 -24.5t-27 -10z" />
    <glyph glyph-name="uni0218" unicode="&#x218;" horiz-adv-x="492" 
d="M243 -10q-62 0 -184 28q-6 24 -11.5 57.5t-9 63.5t-3.5 41q2 8 16 8q26 0 29 -8q4 -18 14 -39.5t28 -45.5q17 -25 46.5 -40.5t66.5 -15.5q47 0 78 28t31 84q0 40 -23.5 62.5t-50.5 41.5q-7 4 -22 13t-29.5 18.5t-22.5 13.5q-19 12 -31.5 20t-23.5 16.5t-27 21.5
q-32 26 -49.5 59t-17.5 73q0 50 29.5 90.5t76.5 64t99 23.5q28 0 49 -3t32 -6t27 -7t51 -12q12 -67 12 -154q-1 -9 -12 -9q-27 0 -29 9q-4 31 -22 61.5t-46.5 51.5t-64.5 21q-46 0 -70.5 -26t-24.5 -70q0 -28 10 -43.5t26 -33.5q11 -12 36 -30t56 -37.5t60 -36.5
q55 -32 85 -69.5t30 -99.5q0 -53 -30 -95t-78.5 -65.5t-105.5 -23.5zM212 -222q-7 0 -15.5 4t-8.5 7q11 10 27.5 24t16.5 29q0 16 -20 30q-21 14 -21 31q0 23 25.5 38t65.5 15q9 -8 15.5 -25.5t6.5 -32.5q0 -67 -87 -120h-5z" />
    <glyph glyph-name="uni1E60" unicode="&#x1e60;" horiz-adv-x="492" 
d="M243 -10q-62 0 -184 28q-6 24 -11.5 57.5t-9 63.5t-3.5 41q2 8 16 8q26 0 29 -8q4 -18 14 -39.5t28 -45.5q17 -25 46.5 -40.5t66.5 -15.5q47 0 78 28t31 84q0 40 -23.5 62.5t-50.5 41.5q-7 4 -22 13t-29.5 18.5t-22.5 13.5q-19 12 -31.5 20t-23.5 16.5t-27 21.5
q-32 26 -49.5 59t-17.5 73q0 50 29.5 90.5t76.5 64t99 23.5q28 0 49 -3t32 -6t27 -7t51 -12q12 -67 12 -154q-1 -9 -12 -9q-27 0 -29 9q-4 31 -22 61.5t-46.5 51.5t-64.5 21q-46 0 -70.5 -26t-24.5 -70q0 -28 10 -43.5t26 -33.5q11 -12 36 -30t56 -37.5t60 -36.5
q55 -32 85 -69.5t30 -99.5q0 -53 -30 -95t-78.5 -65.5t-105.5 -23.5zM248 770q-25 0 -43 18t-18 43t18 42.5t43 17.5t42.5 -17.5t17.5 -42.5t-17.5 -43t-42.5 -18z" />
    <glyph glyph-name="uni1E62" unicode="&#x1e62;" horiz-adv-x="492" 
d="M243 -10q-62 0 -184 28q-6 24 -11.5 57.5t-9 63.5t-3.5 41q2 8 16 8q26 0 29 -8q4 -18 14 -39.5t28 -45.5q17 -25 46.5 -40.5t66.5 -15.5q47 0 78 28t31 84q0 40 -23.5 62.5t-50.5 41.5q-7 4 -22 13t-29.5 18.5t-22.5 13.5q-19 12 -31.5 20t-23.5 16.5t-27 21.5
q-32 26 -49.5 59t-17.5 73q0 50 29.5 90.5t76.5 64t99 23.5q28 0 49 -3t32 -6t27 -7t51 -12q12 -67 12 -154q-1 -9 -12 -9q-27 0 -29 9q-4 31 -22 61.5t-46.5 51.5t-64.5 21q-46 0 -70.5 -26t-24.5 -70q0 -28 10 -43.5t26 -33.5q11 -12 36 -30t56 -37.5t60 -36.5
q55 -32 85 -69.5t30 -99.5q0 -53 -30 -95t-78.5 -65.5t-105.5 -23.5zM246 -182q-25 0 -43.5 18.5t-18.5 43.5q0 26 18.5 44t43.5 18q26 0 44 -18t18 -44q0 -25 -18 -43.5t-44 -18.5z" />
    <glyph glyph-name="uni1E68" unicode="&#x1e68;" horiz-adv-x="492" 
d="M243 -10q-62 0 -184 28q-6 24 -11.5 57.5t-9 63.5t-3.5 41q2 8 16 8q26 0 29 -8q4 -18 14 -39.5t28 -45.5q17 -25 46.5 -40.5t66.5 -15.5q47 0 78 28t31 84q0 40 -23.5 62.5t-50.5 41.5q-7 4 -22 13t-29.5 18.5t-22.5 13.5q-19 12 -31.5 20t-23.5 16.5t-27 21.5
q-32 26 -49.5 59t-17.5 73q0 50 29.5 90.5t76.5 64t99 23.5q28 0 49 -3t32 -6t27 -7t51 -12q12 -67 12 -154q-1 -9 -12 -9q-27 0 -29 9q-4 31 -22 61.5t-46.5 51.5t-64.5 21q-46 0 -70.5 -26t-24.5 -70q0 -28 10 -43.5t26 -33.5q11 -12 36 -30t56 -37.5t60 -36.5
q55 -32 85 -69.5t30 -99.5q0 -53 -30 -95t-78.5 -65.5t-105.5 -23.5zM246 -182q-25 0 -43.5 18.5t-18.5 43.5q0 26 18.5 44t43.5 18q26 0 44 -18t18 -44q0 -25 -18 -43.5t-44 -18.5zM248 770q-25 0 -43 18t-18 43t18 42.5t43 17.5t42.5 -17.5t17.5 -42.5t-17.5 -43
t-42.5 -18z" />
    <glyph glyph-name="T" unicode="T" horiz-adv-x="664" 
d="M200 -4q-4 4 -4 16q0 18 4 18q8 0 23 3t28 8.5t15 10.5q8 29 8 83v362q0 84 -9 97q-8 17 -95 17q-49 0 -72 -19.5t-38 -73.5q-1 -6 -10 -6q-18 0 -26 8l19 152q22 -5 39 -7.5t30 -2.5q90 -2 144.5 -3.5t85 -2t45.5 -0.5t24.5 0.5t22.5 1t40 2t77 2.5q13 0 30 2.5t39 7.5
l19 -153q-7 -7 -27 -7q-8 0 -10 5q-14 55 -37 74.5t-72 19.5q-92 0 -97 -17q-9 -28 -9 -94v-361q0 -54 9 -87q1 -4 13.5 -9.5t27.5 -9t21 -3.5q4 0 4 -18q0 -5 -0.5 -9t-1.5 -7q-37 3 -68 5t-59 2q-18 0 -46.5 -1.5t-53.5 -3t-33 -2.5z" />
    <glyph glyph-name="Tbar" unicode="&#x166;" horiz-adv-x="656" 
d="M198 -4q-4 4 -4 16q0 17 4 17q8 0 23 3.5t28 9t15 10.5q4 16 6 36.5t2 46.5v174h-114q-5 0 -5 14q0 19 6 28h113v146q0 81 -9 97q-9 17 -95 17q-49 0 -72.5 -19t-37.5 -74q-1 -6 -10 -6q-18 0 -26 8l19 152q22 -5 39 -8t30 -3q50 0 108.5 -2.5t110.5 -2.5t111 2.5
t109 2.5q13 0 30 3t39 8l18 -153q-7 -7 -26 -7q-8 0 -10 5q-14 55 -37 74.5t-72 19.5q-92 0 -97 -17q-4 -14 -6 -37.5t-2 -56.5v-149h118q6 0 6 -12q0 -16 -6 -30h-118v-170q0 -28 2 -49.5t6 -37.5q2 -4 14.5 -9.5t27 -9.5t20.5 -4q4 0 4 -17q0 -5 -0.5 -9t-1.5 -7l-53 3
q-24 2 -42.5 3t-31.5 1q-18 0 -46 -1.5t-53 -3t-34 -2.5z" />
    <glyph glyph-name="Tcaron" unicode="&#x164;" horiz-adv-x="664" 
d="M200 -4q-4 4 -4 16q0 18 4 18q8 0 23 3t28 8.5t15 10.5q8 29 8 83v362q0 84 -9 97q-8 17 -95 17q-49 0 -72 -19.5t-38 -73.5q-1 -6 -10 -6q-18 0 -26 8l19 152q22 -5 39 -7.5t30 -2.5q90 -2 144.5 -3.5t85 -2t45.5 -0.5t24.5 0.5t22.5 1t40 2t77 2.5q13 0 30 2.5t39 7.5
l19 -153q-7 -7 -27 -7q-8 0 -10 5q-14 55 -37 74.5t-72 19.5q-92 0 -97 -17q-9 -28 -9 -94v-361q0 -54 9 -87q1 -4 13.5 -9.5t27.5 -9t21 -3.5q4 0 4 -18q0 -5 -0.5 -9t-1.5 -7q-37 3 -68 5t-59 2q-18 0 -46.5 -1.5t-53.5 -3t-33 -2.5zM332 734q-4 0 -12 8q-8 11 -18.5 22.5
t-23.5 24.5q-11 11 -22 21l-22 20t-17 14.5t-7 5.5q0 20 10 20q6 0 27 -10t45 -24t40 -26q93 60 112 60q10 0 10 -20q-2 -2 -21 -18.5t-48 -43.5q-5 -5 -15.5 -17t-25.5 -29q-6 -8 -12 -8z" />
    <glyph glyph-name="uni0162" unicode="&#x162;" horiz-adv-x="664" 
d="M200 -4q-4 4 -4 16q0 18 4 18q8 0 23 3t28 8.5t15 10.5q8 29 8 83v362q0 84 -9 97q-8 17 -95 17q-49 0 -72 -19.5t-38 -73.5q-1 -6 -10 -6q-18 0 -26 8l19 152q22 -5 39 -7.5t30 -2.5q90 -2 144.5 -3.5t85 -2t45.5 -0.5t24.5 0.5t22.5 1t40 2t77 2.5q13 0 30 2.5t39 7.5
l19 -153q-7 -7 -27 -7q-8 0 -10 5q-14 55 -37 74.5t-72 19.5q-92 0 -97 -17q-9 -28 -9 -94v-361q0 -54 9 -87q1 -4 13.5 -9.5t27.5 -9t21 -3.5q4 0 4 -18q0 -5 -0.5 -9t-1.5 -7q-37 3 -68 5t-59 2q-18 0 -46.5 -1.5t-53.5 -3t-33 -2.5zM305 -145q-28 0 -40 12q-3 12 -3 16
q0 5 4 9.5t7 4.5q8 0 19 -7t24 -7q20 0 30.5 9t10.5 22q0 14 -8 22.5t-20 8.5q-13 0 -28 -6q-2 0 -7.5 5.5t-4.5 8.5q4 6 10.5 18t12.5 22.5t7 12.5h27l-16 -25l22 1q21 0 35 -15t14 -35q0 -35 -27 -56t-69 -21z" />
    <glyph glyph-name="uni1E70" unicode="&#x1e70;" horiz-adv-x="664" 
d="M200 -4q-4 4 -4 16q0 18 4 18q8 0 23 3t28 8.5t15 10.5q8 29 8 83v362q0 84 -9 97q-8 17 -95 17q-49 0 -72 -19.5t-38 -73.5q-1 -6 -10 -6q-18 0 -26 8l19 152q22 -5 39 -7.5t30 -2.5q90 -2 144.5 -3.5t85 -2t45.5 -0.5t24.5 0.5t22.5 1t40 2t77 2.5q13 0 30 2.5t39 7.5
l19 -153q-7 -7 -27 -7q-8 0 -10 5q-14 55 -37 74.5t-72 19.5q-92 0 -97 -17q-9 -28 -9 -94v-361q0 -54 9 -87q1 -4 13.5 -9.5t27.5 -9t21 -3.5q4 0 4 -18q0 -5 -0.5 -9t-1.5 -7q-37 3 -68 5t-59 2q-18 0 -46.5 -1.5t-53.5 -3t-33 -2.5zM220 -197q-10 0 -10 19l24 21l22 20
l22 20q13 13 23.5 24.5t18.5 22.5q8 9 12 9q5 0 12 -9q15 -17 25.5 -29t15.5 -17q29 -27 48 -43.5t21 -18.5q0 -19 -10 -19q-19 0 -112 60q-16 -11 -40 -25.5t-45 -24.5t-27 -10z" />
    <glyph glyph-name="uni021A" unicode="&#x21a;" horiz-adv-x="664" 
d="M200 -4q-4 4 -4 16q0 18 4 18q8 0 23 3t28 8.5t15 10.5q8 29 8 83v362q0 84 -9 97q-8 17 -95 17q-49 0 -72 -19.5t-38 -73.5q-1 -6 -10 -6q-18 0 -26 8l19 152q22 -5 39 -7.5t30 -2.5q90 -2 144.5 -3.5t85 -2t45.5 -0.5t24.5 0.5t22.5 1t40 2t77 2.5q13 0 30 2.5t39 7.5
l19 -153q-7 -7 -27 -7q-8 0 -10 5q-14 55 -37 74.5t-72 19.5q-92 0 -97 -17q-9 -28 -9 -94v-361q0 -54 9 -87q1 -4 13.5 -9.5t27.5 -9t21 -3.5q4 0 4 -18q0 -5 -0.5 -9t-1.5 -7q-37 3 -68 5t-59 2q-18 0 -46.5 -1.5t-53.5 -3t-33 -2.5zM298 -213q-7 0 -15.5 4t-8.5 7
q11 10 27.5 24t16.5 29q0 16 -20 30q-21 14 -21 31q0 23 25.5 38t65.5 15q9 -8 15.5 -25.5t6.5 -32.5q0 -67 -87 -120h-5z" />
    <glyph glyph-name="uni1E6A" unicode="&#x1e6a;" horiz-adv-x="664" 
d="M200 -4q-4 4 -4 16q0 18 4 18q8 0 23 3t28 8.5t15 10.5q8 29 8 83v362q0 84 -9 97q-8 17 -95 17q-49 0 -72 -19.5t-38 -73.5q-1 -6 -10 -6q-18 0 -26 8l19 152q22 -5 39 -7.5t30 -2.5q90 -2 144.5 -3.5t85 -2t45.5 -0.5t24.5 0.5t22.5 1t40 2t77 2.5q13 0 30 2.5t39 7.5
l19 -153q-7 -7 -27 -7q-8 0 -10 5q-14 55 -37 74.5t-72 19.5q-92 0 -97 -17q-9 -28 -9 -94v-361q0 -54 9 -87q1 -4 13.5 -9.5t27.5 -9t21 -3.5q4 0 4 -18q0 -5 -0.5 -9t-1.5 -7q-37 3 -68 5t-59 2q-18 0 -46.5 -1.5t-53.5 -3t-33 -2.5zM333 770q-25 0 -43 18t-18 43t18 42.5
t43 17.5t42.5 -17.5t17.5 -42.5t-17.5 -43t-42.5 -18z" />
    <glyph glyph-name="uni1E6C" unicode="&#x1e6c;" horiz-adv-x="664" 
d="M200 -4q-4 4 -4 16q0 18 4 18q8 0 23 3t28 8.5t15 10.5q8 29 8 83v362q0 84 -9 97q-8 17 -95 17q-49 0 -72 -19.5t-38 -73.5q-1 -6 -10 -6q-18 0 -26 8l19 152q22 -5 39 -7.5t30 -2.5q90 -2 144.5 -3.5t85 -2t45.5 -0.5t24.5 0.5t22.5 1t40 2t77 2.5q13 0 30 2.5t39 7.5
l19 -153q-7 -7 -27 -7q-8 0 -10 5q-14 55 -37 74.5t-72 19.5q-92 0 -97 -17q-9 -28 -9 -94v-361q0 -54 9 -87q1 -4 13.5 -9.5t27.5 -9t21 -3.5q4 0 4 -18q0 -5 -0.5 -9t-1.5 -7q-37 3 -68 5t-59 2q-18 0 -46.5 -1.5t-53.5 -3t-33 -2.5zM332 -173q-25 0 -43.5 18.5
t-18.5 43.5q0 26 18.5 44t43.5 18q26 0 44 -18t18 -44q0 -25 -18 -43.5t-44 -18.5z" />
    <glyph glyph-name="Tmacronbelow" unicode="&#x1e6e;" horiz-adv-x="664" 
d="M200 -4q-4 4 -4 16q0 18 4 18q8 0 23 3t28 8.5t15 10.5q8 29 8 83v362q0 84 -9 97q-8 17 -95 17q-49 0 -72 -19.5t-38 -73.5q-1 -6 -10 -6q-18 0 -26 8l19 152q22 -5 39 -7.5t30 -2.5q90 -2 144.5 -3.5t85 -2t45.5 -0.5t24.5 0.5t22.5 1t40 2t77 2.5q13 0 30 2.5t39 7.5
l19 -153q-7 -7 -27 -7q-8 0 -10 5q-14 55 -37 74.5t-72 19.5q-92 0 -97 -17q-9 -28 -9 -94v-361q0 -54 9 -87q1 -4 13.5 -9.5t27.5 -9t21 -3.5q4 0 4 -18q0 -5 -0.5 -9t-1.5 -7q-37 3 -68 5t-59 2q-18 0 -46.5 -1.5t-53.5 -3t-33 -2.5zM194 -110q-6 0 -6 4q0 20 4 35
q4 16 10 16h268q6 0 6 -8q-2 -20 -10 -47h-272z" />
    <glyph glyph-name="U" unicode="U" horiz-adv-x="733" 
d="M358 -2q-120 0 -189 72.5t-69 233.5v218q0 63 -8 84q-2 6 -14.5 11t-27 8.5t-22.5 3.5q-4 0 -4 15t3 18l133 -6q19 0 128 6q1 -4 1.5 -8t0.5 -8q0 -17 -4 -17q-6 0 -21.5 -3.5t-28.5 -8.5t-14 -11q-4 -15 -6 -37t-2 -51v-230q0 -103 44.5 -164.5t123.5 -61.5
q77 0 123.5 50.5t46.5 167.5v244q0 61 -10 80q-4 6 -19.5 12t-32.5 10t-26 4q-4 0 -4.5 14t2.5 18q54 -4 85.5 -5.5t40.5 -1.5q13 0 29.5 1t37.5 3q41 3 51 3q1 -4 1.5 -7.5t0.5 -8.5q0 -16 -4 -16q-9 0 -26 -3.5t-33 -9.5t-22 -15q-11 -27 -11 -83v-235q0 -156 -73 -223
q-35 -33 -79.5 -48t-101.5 -15z" />
    <glyph glyph-name="Uacute" unicode="&#xda;" horiz-adv-x="733" 
d="M358 -2q-120 0 -189 72.5t-69 233.5v218q0 63 -8 84q-2 6 -14.5 11t-27 8.5t-22.5 3.5q-4 0 -4 15t3 18l133 -6q19 0 128 6q1 -4 1.5 -8t0.5 -8q0 -17 -4 -17q-6 0 -21.5 -3.5t-28.5 -8.5t-14 -11q-4 -15 -6 -37t-2 -51v-230q0 -103 44.5 -164.5t123.5 -61.5
q77 0 123.5 50.5t46.5 167.5v244q0 61 -10 80q-4 6 -19.5 12t-32.5 10t-26 4q-4 0 -4.5 14t2.5 18q54 -4 85.5 -5.5t40.5 -1.5q13 0 29.5 1t37.5 3q41 3 51 3q1 -4 1.5 -7.5t0.5 -8.5q0 -16 -4 -16q-9 0 -26 -3.5t-33 -9.5t-22 -15q-11 -27 -11 -83v-235q0 -156 -73 -223
q-35 -33 -79.5 -48t-101.5 -15zM323 733q-4 0 -8 5.5t-4 11.5q0 3 13 17.5t32.5 33.5t39.5 37t35 29q6 3 18 3q22 0 38 -9t16 -24q0 -11 -16.5 -24.5t-41.5 -27.5t-51 -26t-45.5 -19t-25.5 -7z" />
    <glyph glyph-name="Ubreve" unicode="&#x16c;" horiz-adv-x="733" 
d="M358 -2q-120 0 -189 72.5t-69 233.5v218q0 63 -8 84q-2 6 -14.5 11t-27 8.5t-22.5 3.5q-4 0 -4 15t3 18l133 -6q19 0 128 6q1 -4 1.5 -8t0.5 -8q0 -17 -4 -17q-6 0 -21.5 -3.5t-28.5 -8.5t-14 -11q-4 -15 -6 -37t-2 -51v-230q0 -103 44.5 -164.5t123.5 -61.5
q77 0 123.5 50.5t46.5 167.5v244q0 61 -10 80q-4 6 -19.5 12t-32.5 10t-26 4q-4 0 -4.5 14t2.5 18q54 -4 85.5 -5.5t40.5 -1.5q13 0 29.5 1t37.5 3q41 3 51 3q1 -4 1.5 -7.5t0.5 -8.5q0 -16 -4 -16q-9 0 -26 -3.5t-33 -9.5t-22 -15q-11 -27 -11 -83v-235q0 -156 -73 -223
q-35 -33 -79.5 -48t-101.5 -15zM370 748q-33 0 -62 20t-45 61q-2 6 -2 7q0 4 8 12t14 8q2 0 3 -2q12 -26 35.5 -39t48.5 -13q26 0 49 13t35 39q1 2 3 2q6 0 14 -8t8 -12q0 -1 -2 -7q-16 -41 -45 -61t-62 -20z" />
    <glyph glyph-name="uni01D3" unicode="&#x1d3;" horiz-adv-x="733" 
d="M358 -2q-120 0 -189 72.5t-69 233.5v218q0 63 -8 84q-2 6 -14.5 11t-27 8.5t-22.5 3.5q-4 0 -4 15t3 18l133 -6q19 0 128 6q1 -4 1.5 -8t0.5 -8q0 -17 -4 -17q-6 0 -21.5 -3.5t-28.5 -8.5t-14 -11q-4 -15 -6 -37t-2 -51v-230q0 -103 44.5 -164.5t123.5 -61.5
q77 0 123.5 50.5t46.5 167.5v244q0 61 -10 80q-4 6 -19.5 12t-32.5 10t-26 4q-4 0 -4.5 14t2.5 18q54 -4 85.5 -5.5t40.5 -1.5q13 0 29.5 1t37.5 3q41 3 51 3q1 -4 1.5 -7.5t0.5 -8.5q0 -16 -4 -16q-9 0 -26 -3.5t-33 -9.5t-22 -15q-11 -27 -11 -83v-235q0 -156 -73 -223
q-35 -33 -79.5 -48t-101.5 -15zM367 734q-4 0 -12 8q-8 11 -18.5 22.5t-23.5 24.5q-11 11 -22 21l-22 20t-17 14.5t-7 5.5q0 20 10 20q6 0 27 -10t45 -24t40 -26q93 60 112 60q10 0 10 -20q-2 -2 -21 -18.5t-48 -43.5q-5 -5 -15.5 -17t-25.5 -29q-6 -8 -12 -8z" />
    <glyph glyph-name="Ucircumflex" unicode="&#xdb;" horiz-adv-x="733" 
d="M358 -2q-120 0 -189 72.5t-69 233.5v218q0 63 -8 84q-2 6 -14.5 11t-27 8.5t-22.5 3.5q-4 0 -4 15t3 18l133 -6q19 0 128 6q1 -4 1.5 -8t0.5 -8q0 -17 -4 -17q-6 0 -21.5 -3.5t-28.5 -8.5t-14 -11q-4 -15 -6 -37t-2 -51v-230q0 -103 44.5 -164.5t123.5 -61.5
q77 0 123.5 50.5t46.5 167.5v244q0 61 -10 80q-4 6 -19.5 12t-32.5 10t-26 4q-4 0 -4.5 14t2.5 18q54 -4 85.5 -5.5t40.5 -1.5q13 0 29.5 1t37.5 3q41 3 51 3q1 -4 1.5 -7.5t0.5 -8.5q0 -16 -4 -16q-9 0 -26 -3.5t-33 -9.5t-22 -15q-11 -27 -11 -83v-235q0 -156 -73 -223
q-35 -33 -79.5 -48t-101.5 -15zM255 723q-10 0 -10 19l24 21l22 20l22 20q13 13 23.5 24.5t18.5 22.5q8 9 12 9q5 0 12 -9q15 -17 25.5 -29t15.5 -17q29 -27 48 -43.5t21 -18.5q0 -19 -10 -19q-19 0 -112 60q-16 -11 -40 -25.5t-45 -24.5t-27 -10z" />
    <glyph glyph-name="uni1E76" unicode="&#x1e76;" horiz-adv-x="733" 
d="M358 -2q-120 0 -189 72.5t-69 233.5v218q0 63 -8 84q-2 6 -14.5 11t-27 8.5t-22.5 3.5q-4 0 -4 15t3 18l133 -6q19 0 128 6q1 -4 1.5 -8t0.5 -8q0 -17 -4 -17q-6 0 -21.5 -3.5t-28.5 -8.5t-14 -11q-4 -15 -6 -37t-2 -51v-230q0 -103 44.5 -164.5t123.5 -61.5
q77 0 123.5 50.5t46.5 167.5v244q0 61 -10 80q-4 6 -19.5 12t-32.5 10t-26 4q-4 0 -4.5 14t2.5 18q54 -4 85.5 -5.5t40.5 -1.5q13 0 29.5 1t37.5 3q41 3 51 3q1 -4 1.5 -7.5t0.5 -8.5q0 -16 -4 -16q-9 0 -26 -3.5t-33 -9.5t-22 -15q-11 -27 -11 -83v-235q0 -156 -73 -223
q-35 -33 -79.5 -48t-101.5 -15zM254 -207q-10 0 -10 19l24 21l22 20l22 20q13 13 23.5 24.5t18.5 22.5q8 9 12 9q5 0 12 -9q15 -17 25.5 -29t15.5 -17q29 -27 48 -43.5t21 -18.5q0 -19 -10 -19q-19 0 -112 60q-16 -11 -40 -25.5t-45 -24.5t-27 -10z" />
    <glyph glyph-name="Udieresis" unicode="&#xdc;" horiz-adv-x="733" 
d="M358 -2q-120 0 -189 72.5t-69 233.5v218q0 63 -8 84q-2 6 -14.5 11t-27 8.5t-22.5 3.5q-4 0 -4 15t3 18l133 -6q19 0 128 6q1 -4 1.5 -8t0.5 -8q0 -17 -4 -17q-6 0 -21.5 -3.5t-28.5 -8.5t-14 -11q-4 -15 -6 -37t-2 -51v-230q0 -103 44.5 -164.5t123.5 -61.5
q77 0 123.5 50.5t46.5 167.5v244q0 61 -10 80q-4 6 -19.5 12t-32.5 10t-26 4q-4 0 -4.5 14t2.5 18q54 -4 85.5 -5.5t40.5 -1.5q13 0 29.5 1t37.5 3q41 3 51 3q1 -4 1.5 -7.5t0.5 -8.5q0 -16 -4 -16q-9 0 -26 -3.5t-33 -9.5t-22 -15q-11 -27 -11 -83v-235q0 -156 -73 -223
q-35 -33 -79.5 -48t-101.5 -15zM461 726q-25 0 -42 17t-17 42q0 23 17 40t42 17q23 0 40 -17t17 -40q0 -25 -17 -42t-40 -17zM276 726q-25 0 -42 17t-17 42q0 23 17 40t42 17q23 0 40 -17t17 -40q0 -25 -17 -42t-40 -17z" />
    <glyph glyph-name="uni01D7" unicode="&#x1d7;" horiz-adv-x="733" 
d="M358 -2q-120 0 -189 72.5t-69 233.5v218q0 63 -8 84q-2 6 -14.5 11t-27 8.5t-22.5 3.5q-4 0 -4 15t3 18l133 -6q19 0 128 6q1 -4 1.5 -8t0.5 -8q0 -17 -4 -17q-6 0 -21.5 -3.5t-28.5 -8.5t-14 -11q-4 -15 -6 -37t-2 -51v-230q0 -103 44.5 -164.5t123.5 -61.5
q77 0 123.5 50.5t46.5 167.5v244q0 61 -10 80q-4 6 -19.5 12t-32.5 10t-26 4q-4 0 -4.5 14t2.5 18q54 -4 85.5 -5.5t40.5 -1.5q13 0 29.5 1t37.5 3q41 3 51 3q1 -4 1.5 -7.5t0.5 -8.5q0 -16 -4 -16q-9 0 -26 -3.5t-33 -9.5t-22 -15q-11 -27 -11 -83v-235q0 -156 -73 -223
q-35 -33 -79.5 -48t-101.5 -15zM461 726q-25 0 -42 17t-17 42q0 23 17 40t42 17q23 0 40 -17t17 -40q0 -25 -17 -42t-40 -17zM276 726q-25 0 -42 17t-17 42q0 23 17 40t42 17q23 0 40 -17t17 -40q0 -25 -17 -42t-40 -17zM323 889q-4 0 -8 5.5t-4 11.5q0 3 13 17.5t32.5 33.5
t39.5 37t35 29q6 3 18 3q22 0 38 -9t16 -24q0 -11 -16.5 -24.5t-41.5 -27.5t-51 -26t-45.5 -19t-25.5 -7z" />
    <glyph glyph-name="uni1E72" unicode="&#x1e72;" horiz-adv-x="733" 
d="M358 -2q-120 0 -189 72.5t-69 233.5v218q0 63 -8 84q-2 6 -14.5 11t-27 8.5t-22.5 3.5q-4 0 -4 15t3 18l133 -6q19 0 128 6q1 -4 1.5 -8t0.5 -8q0 -17 -4 -17q-6 0 -21.5 -3.5t-28.5 -8.5t-14 -11q-4 -15 -6 -37t-2 -51v-230q0 -103 44.5 -164.5t123.5 -61.5
q77 0 123.5 50.5t46.5 167.5v244q0 61 -10 80q-4 6 -19.5 12t-32.5 10t-26 4q-4 0 -4.5 14t2.5 18q54 -4 85.5 -5.5t40.5 -1.5q13 0 29.5 1t37.5 3q41 3 51 3q1 -4 1.5 -7.5t0.5 -8.5q0 -16 -4 -16q-9 0 -26 -3.5t-33 -9.5t-22 -15q-11 -27 -11 -83v-235q0 -156 -73 -223
q-35 -33 -79.5 -48t-101.5 -15zM460 -159q-25 0 -42 17t-17 42q0 23 17 40t42 17q23 0 40 -17t17 -40q0 -25 -17 -42t-40 -17zM275 -159q-25 0 -42 17t-17 42q0 23 17 40t42 17q23 0 40 -17t17 -40q0 -25 -17 -42t-40 -17z" />
    <glyph glyph-name="uni01D9" unicode="&#x1d9;" horiz-adv-x="733" 
d="M358 -2q-120 0 -189 72.5t-69 233.5v218q0 63 -8 84q-2 6 -14.5 11t-27 8.5t-22.5 3.5q-4 0 -4 15t3 18l133 -6q19 0 128 6q1 -4 1.5 -8t0.5 -8q0 -17 -4 -17q-6 0 -21.5 -3.5t-28.5 -8.5t-14 -11q-4 -15 -6 -37t-2 -51v-230q0 -103 44.5 -164.5t123.5 -61.5
q77 0 123.5 50.5t46.5 167.5v244q0 61 -10 80q-4 6 -19.5 12t-32.5 10t-26 4q-4 0 -4.5 14t2.5 18q54 -4 85.5 -5.5t40.5 -1.5q13 0 29.5 1t37.5 3q41 3 51 3q1 -4 1.5 -7.5t0.5 -8.5q0 -16 -4 -16q-9 0 -26 -3.5t-33 -9.5t-22 -15q-11 -27 -11 -83v-235q0 -156 -73 -223
q-35 -33 -79.5 -48t-101.5 -15zM461 726q-25 0 -42 17t-17 42q0 23 17 40t42 17q23 0 40 -17t17 -40q0 -25 -17 -42t-40 -17zM276 726q-25 0 -42 17t-17 42q0 23 17 40t42 17q23 0 40 -17t17 -40q0 -25 -17 -42t-40 -17zM367 885q-6 0 -11 9q-11 18 -20.5 31.5t-17.5 23.5
l-25 30t-35 41q0 23 9 23q6 0 24 -11.5t39.5 -28t36.5 -30.5q17 14 38 30.5t39 28t23 11.5q9 0 9 -23q-2 -2 -19.5 -21t-42.5 -51q-13 -16 -21 -30t-16 -24q-6 -9 -10 -9z" />
    <glyph glyph-name="uni01DB" unicode="&#x1db;" horiz-adv-x="733" 
d="M358 -2q-120 0 -189 72.5t-69 233.5v218q0 63 -8 84q-2 6 -14.5 11t-27 8.5t-22.5 3.5q-4 0 -4 15t3 18l133 -6q19 0 128 6q1 -4 1.5 -8t0.5 -8q0 -17 -4 -17q-6 0 -21.5 -3.5t-28.5 -8.5t-14 -11q-4 -15 -6 -37t-2 -51v-230q0 -103 44.5 -164.5t123.5 -61.5
q77 0 123.5 50.5t46.5 167.5v244q0 61 -10 80q-4 6 -19.5 12t-32.5 10t-26 4q-4 0 -4.5 14t2.5 18q54 -4 85.5 -5.5t40.5 -1.5q13 0 29.5 1t37.5 3q41 3 51 3q1 -4 1.5 -7.5t0.5 -8.5q0 -16 -4 -16q-9 0 -26 -3.5t-33 -9.5t-22 -15q-11 -27 -11 -83v-235q0 -156 -73 -223
q-35 -33 -79.5 -48t-101.5 -15zM461 726q-25 0 -42 17t-17 42q0 23 17 40t42 17q23 0 40 -17t17 -40q0 -25 -17 -42t-40 -17zM276 726q-25 0 -42 17t-17 42q0 23 17 40t42 17q23 0 40 -17t17 -40q0 -25 -17 -42t-40 -17zM412 889q-7 0 -27.5 7.5t-46.5 20t-50 26.5t-40 27
t-16 23q0 15 16 24t38 9q12 0 18 -3q15 -11 35 -29t39.5 -37t32.5 -33.5t13 -17.5q0 -6 -4 -11.5t-8 -5.5z" />
    <glyph glyph-name="uni1EE4" unicode="&#x1ee4;" horiz-adv-x="733" 
d="M358 -2q-120 0 -189 72.5t-69 233.5v218q0 63 -8 84q-2 6 -14.5 11t-27 8.5t-22.5 3.5q-4 0 -4 15t3 18l133 -6q19 0 128 6q1 -4 1.5 -8t0.5 -8q0 -17 -4 -17q-6 0 -21.5 -3.5t-28.5 -8.5t-14 -11q-4 -15 -6 -37t-2 -51v-230q0 -103 44.5 -164.5t123.5 -61.5
q77 0 123.5 50.5t46.5 167.5v244q0 61 -10 80q-4 6 -19.5 12t-32.5 10t-26 4q-4 0 -4.5 14t2.5 18q54 -4 85.5 -5.5t40.5 -1.5q13 0 29.5 1t37.5 3q41 3 51 3q1 -4 1.5 -7.5t0.5 -8.5q0 -16 -4 -16q-9 0 -26 -3.5t-33 -9.5t-22 -15q-11 -27 -11 -83v-235q0 -156 -73 -223
q-35 -33 -79.5 -48t-101.5 -15zM367 -182q-25 0 -43.5 18.5t-18.5 43.5q0 26 18.5 44t43.5 18q26 0 44 -18t18 -44q0 -25 -18 -43.5t-44 -18.5z" />
    <glyph glyph-name="Ugrave" unicode="&#xd9;" horiz-adv-x="733" 
d="M358 -2q-120 0 -189 72.5t-69 233.5v218q0 63 -8 84q-2 6 -14.5 11t-27 8.5t-22.5 3.5q-4 0 -4 15t3 18l133 -6q19 0 128 6q1 -4 1.5 -8t0.5 -8q0 -17 -4 -17q-6 0 -21.5 -3.5t-28.5 -8.5t-14 -11q-4 -15 -6 -37t-2 -51v-230q0 -103 44.5 -164.5t123.5 -61.5
q77 0 123.5 50.5t46.5 167.5v244q0 61 -10 80q-4 6 -19.5 12t-32.5 10t-26 4q-4 0 -4.5 14t2.5 18q54 -4 85.5 -5.5t40.5 -1.5q13 0 29.5 1t37.5 3q41 3 51 3q1 -4 1.5 -7.5t0.5 -8.5q0 -16 -4 -16q-9 0 -26 -3.5t-33 -9.5t-22 -15q-11 -27 -11 -83v-235q0 -156 -73 -223
q-35 -33 -79.5 -48t-101.5 -15zM412 733q-7 0 -27.5 7.5t-46.5 20t-50 26.5t-40 27t-16 23q0 15 16 24t38 9q12 0 18 -3q15 -11 35 -29t39.5 -37t32.5 -33.5t13 -17.5q0 -6 -4 -11.5t-8 -5.5z" />
    <glyph glyph-name="uni1EE6" unicode="&#x1ee6;" horiz-adv-x="733" 
d="M358 -2q-120 0 -189 72.5t-69 233.5v218q0 63 -8 84q-2 6 -14.5 11t-27 8.5t-22.5 3.5q-4 0 -4 15t3 18l133 -6q19 0 128 6q1 -4 1.5 -8t0.5 -8q0 -17 -4 -17q-6 0 -21.5 -3.5t-28.5 -8.5t-14 -11q-4 -15 -6 -37t-2 -51v-230q0 -103 44.5 -164.5t123.5 -61.5
q77 0 123.5 50.5t46.5 167.5v244q0 61 -10 80q-4 6 -19.5 12t-32.5 10t-26 4q-4 0 -4.5 14t2.5 18q54 -4 85.5 -5.5t40.5 -1.5q13 0 29.5 1t37.5 3q41 3 51 3q1 -4 1.5 -7.5t0.5 -8.5q0 -16 -4 -16q-9 0 -26 -3.5t-33 -9.5t-22 -15q-11 -27 -11 -83v-235q0 -156 -73 -223
q-35 -33 -79.5 -48t-101.5 -15zM387 690q-12 0 -21.5 8t-9.5 20q0 11 11.5 17.5t23.5 18.5q9 9 14.5 16.5t5.5 15.5t-6 12t-14 4q-18 0 -36 -18q-9 -9 -14.5 -13.5t-11.5 -4.5q-10 0 -15 10t-5 24q10 14 37.5 30t58.5 16q28 0 47.5 -15t19.5 -40q0 -16 -14 -30t-29 -25
q-14 -10 -22.5 -14t-8.5 -12q0 -6 5 -14q0 -6 -16 -6z" />
    <glyph glyph-name="Uhorn" unicode="&#x1af;" horiz-adv-x="790" 
d="M358 -2q-120 0 -189 72.5t-69 233.5v218q0 63 -8 84q-2 6 -14.5 11t-27 8.5t-22.5 3.5q-4 0 -4 15t3 18l133 -6q9 -1 41 1t87 5q1 -4 1.5 -8t0.5 -8q0 -17 -4 -17q-6 0 -21.5 -3.5t-28.5 -8.5t-14 -11q-4 -15 -6 -37t-2 -51v-230q0 -103 44.5 -164.5t123.5 -61.5
q77 0 123.5 50.5t46.5 167.5v244q0 61 -10 80q-4 6 -19.5 12t-32.5 10t-26 4q-4 0 -4.5 14t2.5 18q54 -4 85.5 -5.5t40.5 -1.5h29.5t37.5 1q29 2 54 7.5t25 26.5q0 11 -5.5 17.5t-11.5 14t-6 20.5q0 17 19 30.5t55 9.5q11 -10 18 -25t7 -37q0 -29 -19 -48.5t-44 -30.5
t-43 -15q-9 -2 -26 -5.5t-33 -8.5t-22 -14q-5 -13 -8 -31.5t-3 -47.5v-235q0 -156 -73 -223q-35 -33 -79.5 -48t-101.5 -15z" />
    <glyph glyph-name="uni1EE8" unicode="&#x1ee8;" horiz-adv-x="790" 
d="M358 -2q-120 0 -189 72.5t-69 233.5v218q0 63 -8 84q-2 6 -14.5 11t-27 8.5t-22.5 3.5q-4 0 -4 15t3 18l133 -6q9 -1 41 1t87 5q1 -4 1.5 -8t0.5 -8q0 -17 -4 -17q-6 0 -21.5 -3.5t-28.5 -8.5t-14 -11q-4 -15 -6 -37t-2 -51v-230q0 -103 44.5 -164.5t123.5 -61.5
q77 0 123.5 50.5t46.5 167.5v244q0 61 -10 80q-4 6 -19.5 12t-32.5 10t-26 4q-4 0 -4.5 14t2.5 18q54 -4 85.5 -5.5t40.5 -1.5h29.5t37.5 1q29 2 54 7.5t25 26.5q0 11 -5.5 17.5t-11.5 14t-6 20.5q0 17 19 30.5t55 9.5q11 -10 18 -25t7 -37q0 -29 -19 -48.5t-44 -30.5
t-43 -15q-9 -2 -26 -5.5t-33 -8.5t-22 -14q-5 -13 -8 -31.5t-3 -47.5v-235q0 -156 -73 -223q-35 -33 -79.5 -48t-101.5 -15zM323 733q-4 0 -8 5.5t-4 11.5q0 3 13 17.5t32.5 33.5t39.5 37t35 29q6 3 18 3q22 0 38 -9t16 -24q0 -11 -16.5 -24.5t-41.5 -27.5t-51 -26
t-45.5 -19t-25.5 -7z" />
    <glyph glyph-name="uni1EF0" unicode="&#x1ef0;" horiz-adv-x="790" 
d="M358 -2q-120 0 -189 72.5t-69 233.5v218q0 63 -8 84q-2 6 -14.5 11t-27 8.5t-22.5 3.5q-4 0 -4 15t3 18l133 -6q9 -1 41 1t87 5q1 -4 1.5 -8t0.5 -8q0 -17 -4 -17q-6 0 -21.5 -3.5t-28.5 -8.5t-14 -11q-4 -15 -6 -37t-2 -51v-230q0 -103 44.5 -164.5t123.5 -61.5
q77 0 123.5 50.5t46.5 167.5v244q0 61 -10 80q-4 6 -19.5 12t-32.5 10t-26 4q-4 0 -4.5 14t2.5 18q54 -4 85.5 -5.5t40.5 -1.5h29.5t37.5 1q29 2 54 7.5t25 26.5q0 11 -5.5 17.5t-11.5 14t-6 20.5q0 17 19 30.5t55 9.5q11 -10 18 -25t7 -37q0 -29 -19 -48.5t-44 -30.5
t-43 -15q-9 -2 -26 -5.5t-33 -8.5t-22 -14q-5 -13 -8 -31.5t-3 -47.5v-235q0 -156 -73 -223q-35 -33 -79.5 -48t-101.5 -15zM367 -182q-25 0 -43.5 18.5t-18.5 43.5q0 26 18.5 44t43.5 18q26 0 44 -18t18 -44q0 -25 -18 -43.5t-44 -18.5z" />
    <glyph glyph-name="uni1EEA" unicode="&#x1eea;" horiz-adv-x="790" 
d="M358 -2q-120 0 -189 72.5t-69 233.5v218q0 63 -8 84q-2 6 -14.5 11t-27 8.5t-22.5 3.5q-4 0 -4 15t3 18l133 -6q9 -1 41 1t87 5q1 -4 1.5 -8t0.5 -8q0 -17 -4 -17q-6 0 -21.5 -3.5t-28.5 -8.5t-14 -11q-4 -15 -6 -37t-2 -51v-230q0 -103 44.5 -164.5t123.5 -61.5
q77 0 123.5 50.5t46.5 167.5v244q0 61 -10 80q-4 6 -19.5 12t-32.5 10t-26 4q-4 0 -4.5 14t2.5 18q54 -4 85.5 -5.5t40.5 -1.5h29.5t37.5 1q29 2 54 7.5t25 26.5q0 11 -5.5 17.5t-11.5 14t-6 20.5q0 17 19 30.5t55 9.5q11 -10 18 -25t7 -37q0 -29 -19 -48.5t-44 -30.5
t-43 -15q-9 -2 -26 -5.5t-33 -8.5t-22 -14q-5 -13 -8 -31.5t-3 -47.5v-235q0 -156 -73 -223q-35 -33 -79.5 -48t-101.5 -15zM412 733q-7 0 -27.5 7.5t-46.5 20t-50 26.5t-40 27t-16 23q0 15 16 24t38 9q12 0 18 -3q15 -11 35 -29t39.5 -37t32.5 -33.5t13 -17.5
q0 -6 -4 -11.5t-8 -5.5z" />
    <glyph glyph-name="uni1EEC" unicode="&#x1eec;" horiz-adv-x="790" 
d="M358 -2q-120 0 -189 72.5t-69 233.5v218q0 63 -8 84q-2 6 -14.5 11t-27 8.5t-22.5 3.5q-4 0 -4 15t3 18l133 -6q9 -1 41 1t87 5q1 -4 1.5 -8t0.5 -8q0 -17 -4 -17q-6 0 -21.5 -3.5t-28.5 -8.5t-14 -11q-4 -15 -6 -37t-2 -51v-230q0 -103 44.5 -164.5t123.5 -61.5
q77 0 123.5 50.5t46.5 167.5v244q0 61 -10 80q-4 6 -19.5 12t-32.5 10t-26 4q-4 0 -4.5 14t2.5 18q54 -4 85.5 -5.5t40.5 -1.5h29.5t37.5 1q29 2 54 7.5t25 26.5q0 11 -5.5 17.5t-11.5 14t-6 20.5q0 17 19 30.5t55 9.5q11 -10 18 -25t7 -37q0 -29 -19 -48.5t-44 -30.5
t-43 -15q-9 -2 -26 -5.5t-33 -8.5t-22 -14q-5 -13 -8 -31.5t-3 -47.5v-235q0 -156 -73 -223q-35 -33 -79.5 -48t-101.5 -15zM387 690q-12 0 -21.5 8t-9.5 20q0 11 11.5 17.5t23.5 18.5q9 9 14.5 16.5t5.5 15.5t-6 12t-14 4q-18 0 -36 -18q-9 -9 -14.5 -13.5t-11.5 -4.5
q-10 0 -15 10t-5 24q10 14 37.5 30t58.5 16q28 0 47.5 -15t19.5 -40q0 -16 -14 -30t-29 -25q-14 -10 -22.5 -14t-8.5 -12q0 -6 5 -14q0 -6 -16 -6z" />
    <glyph glyph-name="uni1EEE" unicode="&#x1eee;" horiz-adv-x="790" 
d="M358 -2q-120 0 -189 72.5t-69 233.5v218q0 63 -8 84q-2 6 -14.5 11t-27 8.5t-22.5 3.5q-4 0 -4 15t3 18l133 -6q9 -1 41 1t87 5q1 -4 1.5 -8t0.5 -8q0 -17 -4 -17q-6 0 -21.5 -3.5t-28.5 -8.5t-14 -11q-4 -15 -6 -37t-2 -51v-230q0 -103 44.5 -164.5t123.5 -61.5
q77 0 123.5 50.5t46.5 167.5v244q0 61 -10 80q-4 6 -19.5 12t-32.5 10t-26 4q-4 0 -4.5 14t2.5 18q54 -4 85.5 -5.5t40.5 -1.5h29.5t37.5 1q29 2 54 7.5t25 26.5q0 11 -5.5 17.5t-11.5 14t-6 20.5q0 17 19 30.5t55 9.5q11 -10 18 -25t7 -37q0 -29 -19 -48.5t-44 -30.5
t-43 -15q-9 -2 -26 -5.5t-33 -8.5t-22 -14q-5 -13 -8 -31.5t-3 -47.5v-235q0 -156 -73 -223q-35 -33 -79.5 -48t-101.5 -15zM445 741q-36 0 -91 31q-55 30 -91 30q-15 0 -27.5 -13t-23 -25.5t-19.5 -12.5q-8 0 -8 19q0 17 18 44q37 46 83 46q36 0 91 -30q55 -31 91 -31
q17 0 43 26q24 25 26 25q7 0 7 -20q0 -18 -17 -44q-34 -45 -82 -45z" />
    <glyph glyph-name="Uhungarumlaut" unicode="&#x170;" horiz-adv-x="733" 
d="M358 -2q-120 0 -189 72.5t-69 233.5v218q0 63 -8 84q-2 6 -14.5 11t-27 8.5t-22.5 3.5q-4 0 -4 15t3 18l133 -6q19 0 128 6q1 -4 1.5 -8t0.5 -8q0 -17 -4 -17q-6 0 -21.5 -3.5t-28.5 -8.5t-14 -11q-4 -15 -6 -37t-2 -51v-230q0 -103 44.5 -164.5t123.5 -61.5
q77 0 123.5 50.5t46.5 167.5v244q0 61 -10 80q-4 6 -19.5 12t-32.5 10t-26 4q-4 0 -4.5 14t2.5 18q54 -4 85.5 -5.5t40.5 -1.5q13 0 29.5 1t37.5 3q41 3 51 3q1 -4 1.5 -7.5t0.5 -8.5q0 -16 -4 -16q-9 0 -26 -3.5t-33 -9.5t-22 -15q-11 -27 -11 -83v-235q0 -156 -73 -223
q-35 -33 -79.5 -48t-101.5 -15zM300 732q-5 0 -10 5.5t-5 10.5q0 3 10 19t25 38t31 44t28 37q8 8 34 8q21 0 32 -8.5t11 -17.5q0 -10 -14 -26.5t-35.5 -35.5t-44 -36t-40 -27.5t-22.5 -10.5zM433 732q-5 0 -9.5 5.5t-4.5 10.5q0 3 9.5 19t24 38.5t30 44.5t28.5 36q8 8 34 8
q20 0 32 -9t12 -17q0 -10 -14 -26.5t-35.5 -35.5t-44 -36t-40 -27.5t-22.5 -10.5z" />
    <glyph glyph-name="Umacron" unicode="&#x16a;" horiz-adv-x="733" 
d="M358 -2q-120 0 -189 72.5t-69 233.5v218q0 63 -8 84q-2 6 -14.5 11t-27 8.5t-22.5 3.5q-4 0 -4 15t3 18l133 -6q19 0 128 6q1 -4 1.5 -8t0.5 -8q0 -17 -4 -17q-6 0 -21.5 -3.5t-28.5 -8.5t-14 -11q-4 -15 -6 -37t-2 -51v-230q0 -103 44.5 -164.5t123.5 -61.5
q77 0 123.5 50.5t46.5 167.5v244q0 61 -10 80q-4 6 -19.5 12t-32.5 10t-26 4q-4 0 -4.5 14t2.5 18q54 -4 85.5 -5.5t40.5 -1.5q13 0 29.5 1t37.5 3q41 3 51 3q1 -4 1.5 -7.5t0.5 -8.5q0 -16 -4 -16q-9 0 -26 -3.5t-33 -9.5t-22 -15q-11 -27 -11 -83v-235q0 -156 -73 -223
q-35 -33 -79.5 -48t-101.5 -15zM237 748q-6 0 -6 4q0 20 4 35q4 16 10 16h268q6 0 6 -8q-2 -20 -10 -47h-272z" />
    <glyph glyph-name="Uogonek" unicode="&#x172;" horiz-adv-x="721" 
d="M384 -221q-32 0 -54 23t-22 54q0 25 14 53t36 53t46 40q-12 -2 -26.5 -3t-31.5 -1q-258 0 -258 306v218q0 58 -8 84q-2 6 -14.5 11t-27 8.5t-22.5 3.5q-4 0 -4 15q0 16 2 18l56 -3q50 -3 77 -3l128 6q3 -9 3 -16q0 -17 -4 -17q-6 0 -21 -4t-28.5 -9t-15.5 -10
q-4 -16 -6 -37.5t-2 -50.5v-230q0 -102 44.5 -164t124.5 -62q170 0 170 218v244q0 61 -10 80q-4 6 -20 12t-33 10t-25 4q-4 0 -4.5 14t2.5 18q53 -4 84.5 -5.5t40.5 -1.5q13 0 30 1t37 3q41 3 51 3q3 -6 3 -16q0 -16 -4 -16q-9 0 -26.5 -3.5t-33.5 -9.5t-22 -15
q-10 -24 -10 -83v-235q0 -95 -26.5 -153.5t-81.5 -96.5q-46 -32 -80 -73.5t-34 -76.5q0 -15 10 -26.5t30 -11.5q14 0 28.5 5t23.5 10l29 21q5 0 5 -16q0 -11 -6 -19q-18 -24 -49.5 -46t-64.5 -22z" />
    <glyph glyph-name="Uring" unicode="&#x16e;" horiz-adv-x="733" 
d="M358 -2q-120 0 -189 72.5t-69 233.5v218q0 63 -8 84q-2 6 -14.5 11t-27 8.5t-22.5 3.5q-4 0 -4 15t3 18l133 -6q19 0 128 6q1 -4 1.5 -8t0.5 -8q0 -17 -4 -17q-6 0 -21.5 -3.5t-28.5 -8.5t-14 -11q-4 -15 -6 -37t-2 -51v-230q0 -103 44.5 -164.5t123.5 -61.5
q77 0 123.5 50.5t46.5 167.5v244q0 61 -10 80q-4 6 -19.5 12t-32.5 10t-26 4q-4 0 -4.5 14t2.5 18q54 -4 85.5 -5.5t40.5 -1.5q13 0 29.5 1t37.5 3q41 3 51 3q1 -4 1.5 -7.5t0.5 -8.5q0 -16 -4 -16q-9 0 -26 -3.5t-33 -9.5t-22 -15q-11 -27 -11 -83v-235q0 -156 -73 -223
q-35 -33 -79.5 -48t-101.5 -15zM368 732q-35 0 -64.5 26.5t-29.5 67.5q0 39 28 66.5t65 27.5q38 0 65.5 -27.5t27.5 -66.5q0 -40 -28.5 -67t-63.5 -27zM367 772q23 0 38.5 16t15.5 38q0 24 -15 39.5t-39 15.5q-22 0 -37.5 -15.5t-15.5 -39.5q0 -22 15.5 -38t37.5 -16z" />
    <glyph glyph-name="Utilde" unicode="&#x168;" horiz-adv-x="733" 
d="M358 -2q-120 0 -189 72.5t-69 233.5v218q0 63 -8 84q-2 6 -14.5 11t-27 8.5t-22.5 3.5q-4 0 -4 15t3 18l133 -6q19 0 128 6q1 -4 1.5 -8t0.5 -8q0 -17 -4 -17q-6 0 -21.5 -3.5t-28.5 -8.5t-14 -11q-4 -15 -6 -37t-2 -51v-230q0 -103 44.5 -164.5t123.5 -61.5
q77 0 123.5 50.5t46.5 167.5v244q0 61 -10 80q-4 6 -19.5 12t-32.5 10t-26 4q-4 0 -4.5 14t2.5 18q54 -4 85.5 -5.5t40.5 -1.5q13 0 29.5 1t37.5 3q41 3 51 3q1 -4 1.5 -7.5t0.5 -8.5q0 -16 -4 -16q-9 0 -26 -3.5t-33 -9.5t-22 -15q-11 -27 -11 -83v-235q0 -156 -73 -223
q-35 -33 -79.5 -48t-101.5 -15zM445 741q-36 0 -91 31q-55 30 -91 30q-15 0 -27.5 -13t-23 -25.5t-19.5 -12.5q-8 0 -8 19q0 17 18 44q37 46 83 46q36 0 91 -30q55 -31 91 -31q17 0 43 26q24 25 26 25q7 0 7 -20q0 -18 -17 -44q-34 -45 -82 -45z" />
    <glyph glyph-name="uni1E74" unicode="&#x1e74;" horiz-adv-x="733" 
d="M358 -2q-120 0 -189 72.5t-69 233.5v218q0 63 -8 84q-2 6 -14.5 11t-27 8.5t-22.5 3.5q-4 0 -4 15t3 18l133 -6q19 0 128 6q1 -4 1.5 -8t0.5 -8q0 -17 -4 -17q-6 0 -21.5 -3.5t-28.5 -8.5t-14 -11q-4 -15 -6 -37t-2 -51v-230q0 -103 44.5 -164.5t123.5 -61.5
q77 0 123.5 50.5t46.5 167.5v244q0 61 -10 80q-4 6 -19.5 12t-32.5 10t-26 4q-4 0 -4.5 14t2.5 18q54 -4 85.5 -5.5t40.5 -1.5q13 0 29.5 1t37.5 3q41 3 51 3q1 -4 1.5 -7.5t0.5 -8.5q0 -16 -4 -16q-9 0 -26 -3.5t-33 -9.5t-22 -15q-11 -27 -11 -83v-235q0 -156 -73 -223
q-35 -33 -79.5 -48t-101.5 -15zM433 -163q-30 0 -75 27q-46 26 -75 26q-15 0 -34 -22t-23 -22q-7 0 -7 17t16 39q30 40 67 40q28 0 74 -26q45 -27 75 -27q15 0 35 23q19 22 22 22q5 0 5 -18q0 -20 -14 -40q-28 -39 -66 -39z" />
    <glyph glyph-name="V" unicode="V" horiz-adv-x="715" 
d="M348 -10q-10 0 -16 10l-206 512q-22 58 -38 89q-7 13 -31 20.5t-38 7.5q-4 0 -4 15q0 14 3 18l55 -3q48 -3 75 -3q14 0 137 6q3 -4 3 -18q0 -15 -4 -15q-20 0 -41 -9t-21 -26q0 -20 76 -205q12 -31 20 -49q18 -47 35 -85.5t28 -59.5t11 -17l146 345q20 48 20 69
q0 18 -23.5 27.5t-47.5 9.5q-4 0 -3.5 14.5t2.5 18.5q9 0 48 -3t63 -3q26 0 60 3l49 3q2 -6 2 -15q0 -17 -2 -17q-13 0 -34.5 -7.5t-33.5 -21.5q-14 -22 -43 -88l-208 -487q-15 -36 -39 -36z" />
    <glyph glyph-name="uni1E7E" unicode="&#x1e7e;" horiz-adv-x="715" 
d="M348 -10q-10 0 -16 10l-206 512q-22 58 -38 89q-7 13 -31 20.5t-38 7.5q-4 0 -4 15q0 14 3 18l55 -3q48 -3 75 -3q14 0 137 6q3 -4 3 -18q0 -15 -4 -15q-20 0 -41 -9t-21 -26q0 -20 76 -205q12 -31 20 -49q18 -47 35 -85.5t28 -59.5t11 -17l146 345q20 48 20 69
q0 18 -23.5 27.5t-47.5 9.5q-4 0 -3.5 14.5t2.5 18.5q9 0 48 -3t63 -3q26 0 60 3l49 3q2 -6 2 -15q0 -17 -2 -17q-13 0 -34.5 -7.5t-33.5 -21.5q-14 -22 -43 -88l-208 -487q-15 -36 -39 -36zM358 -182q-25 0 -43.5 18.5t-18.5 43.5q0 26 18.5 44t43.5 18q26 0 44 -18t18 -44
q0 -25 -18 -43.5t-44 -18.5z" />
    <glyph glyph-name="uni1E7C" unicode="&#x1e7c;" horiz-adv-x="715" 
d="M348 -10q-10 0 -16 10l-206 512q-22 58 -38 89q-7 13 -31 20.5t-38 7.5q-4 0 -4 15q0 14 3 18l55 -3q48 -3 75 -3q14 0 137 6q3 -4 3 -18q0 -15 -4 -15q-20 0 -41 -9t-21 -26q0 -20 76 -205q12 -31 20 -49q18 -47 35 -85.5t28 -59.5t11 -17l146 345q20 48 20 69
q0 18 -23.5 27.5t-47.5 9.5q-4 0 -3.5 14.5t2.5 18.5q9 0 48 -3t63 -3q26 0 60 3l49 3q2 -6 2 -15q0 -17 -2 -17q-13 0 -34.5 -7.5t-33.5 -21.5q-14 -22 -43 -88l-208 -487q-15 -36 -39 -36zM436 741q-36 0 -91 31q-55 30 -91 30q-15 0 -27.5 -13t-23 -25.5t-19.5 -12.5
q-8 0 -8 19q0 17 18 44q37 46 83 46q36 0 91 -30q55 -31 91 -31q17 0 43 26q24 25 26 25q7 0 7 -20q0 -18 -17 -44q-34 -45 -82 -45z" />
    <glyph glyph-name="W" unicode="W" horiz-adv-x="1078" 
d="M394 -10q-6 0 -10 4l-265 526q-14 28 -27 49.5t-25 37.5q-8 10 -27.5 16t-31.5 6q-4 0 -4 16q0 14 3 17l134 -6q12 0 121 6q1 -6 1.5 -19t-3.5 -14q-16 0 -32 -7.5t-16 -23.5q0 -18 18 -53l196 -387q3 -5 7.5 -2.5t6.5 6.5l73 142l-107 216q-29 60 -51 85q-9 10 -26.5 17
t-31.5 7q-4 0 -4 17q0 13 3 16l132 -6l118 6q2 -6 2.5 -19t-2.5 -14q-17 0 -32.5 -8t-15.5 -23q0 -16 18 -52l61 -125l59 121q18 36 18 55q0 12 -11.5 19.5t-27.5 10.5t-28 3q-4 0 -4 14t3 18q89 -6 110 -6q28 0 58.5 2t56.5 4q2 -8 2 -18q0 -12 -3 -14q-8 0 -22.5 -4
t-28 -11t-20.5 -15q-23 -26 -57 -94l-73 -148l97 -198q6 -10 13 5q10 23 33.5 74t60.5 129l81 172q18 38 18 56q0 12 -11.5 19.5t-26.5 11t-26 3.5q-4 0 -4.5 14t3.5 18q51 -3 82.5 -4.5t53 -1t41 2t46.5 3.5q1 -4 1.5 -8.5t0.5 -11.5q0 -12 -4 -12q-12 0 -34.5 -8.5
t-33.5 -19.5q-13 -16 -28 -39.5t-30 -55.5l-229 -485q-7 -16 -18 -24t-19 -8q-6 0 -10 4l-122 246l-114 -218q-8 -16 -18.5 -24.5t-17.5 -7.5z" />
    <glyph glyph-name="Wacute" unicode="&#x1e82;" horiz-adv-x="1078" 
d="M394 -10q-6 0 -10 4l-265 526q-14 28 -27 49.5t-25 37.5q-8 10 -27.5 16t-31.5 6q-4 0 -4 16q0 14 3 17l134 -6q12 0 121 6q1 -6 1.5 -19t-3.5 -14q-16 0 -32 -7.5t-16 -23.5q0 -18 18 -53l196 -387q3 -5 7.5 -2.5t6.5 6.5l73 142l-107 216q-29 60 -51 85q-9 10 -26.5 17
t-31.5 7q-4 0 -4 17q0 13 3 16l132 -6l118 6q2 -6 2.5 -19t-2.5 -14q-17 0 -32.5 -8t-15.5 -23q0 -16 18 -52l61 -125l59 121q18 36 18 55q0 12 -11.5 19.5t-27.5 10.5t-28 3q-4 0 -4 14t3 18q89 -6 110 -6q28 0 58.5 2t56.5 4q2 -8 2 -18q0 -12 -3 -14q-8 0 -22.5 -4
t-28 -11t-20.5 -15q-23 -26 -57 -94l-73 -148l97 -198q6 -10 13 5q10 23 33.5 74t60.5 129l81 172q18 38 18 56q0 12 -11.5 19.5t-26.5 11t-26 3.5q-4 0 -4.5 14t3.5 18q51 -3 82.5 -4.5t53 -1t41 2t46.5 3.5q1 -4 1.5 -8.5t0.5 -11.5q0 -12 -4 -12q-12 0 -34.5 -8.5
t-33.5 -19.5q-13 -16 -28 -39.5t-30 -55.5l-229 -485q-7 -16 -18 -24t-19 -8q-6 0 -10 4l-122 246l-114 -218q-8 -16 -18.5 -24.5t-17.5 -7.5zM545 733q-4 0 -8 5.5t-4 11.5q0 3 13 17.5t32.5 33.5t39.5 37t35 29q6 3 18 3q22 0 38 -9t16 -24q0 -11 -16.5 -24.5t-41.5 -27.5
t-51 -26t-45.5 -19t-25.5 -7z" />
    <glyph glyph-name="Wcircumflex" unicode="&#x174;" horiz-adv-x="1078" 
d="M394 -10q-6 0 -10 4l-265 526q-14 28 -27 49.5t-25 37.5q-8 10 -27.5 16t-31.5 6q-4 0 -4 16q0 14 3 17l134 -6q12 0 121 6q1 -6 1.5 -19t-3.5 -14q-16 0 -32 -7.5t-16 -23.5q0 -18 18 -53l196 -387q3 -5 7.5 -2.5t6.5 6.5l73 142l-107 216q-29 60 -51 85q-9 10 -26.5 17
t-31.5 7q-4 0 -4 17q0 13 3 16l132 -6l118 6q2 -6 2.5 -19t-2.5 -14q-17 0 -32.5 -8t-15.5 -23q0 -16 18 -52l61 -125l59 121q18 36 18 55q0 12 -11.5 19.5t-27.5 10.5t-28 3q-4 0 -4 14t3 18q89 -6 110 -6q28 0 58.5 2t56.5 4q2 -8 2 -18q0 -12 -3 -14q-8 0 -22.5 -4
t-28 -11t-20.5 -15q-23 -26 -57 -94l-73 -148l97 -198q6 -10 13 5q10 23 33.5 74t60.5 129l81 172q18 38 18 56q0 12 -11.5 19.5t-26.5 11t-26 3.5q-4 0 -4.5 14t3.5 18q51 -3 82.5 -4.5t53 -1t41 2t46.5 3.5q1 -4 1.5 -8.5t0.5 -11.5q0 -12 -4 -12q-12 0 -34.5 -8.5
t-33.5 -19.5q-13 -16 -28 -39.5t-30 -55.5l-229 -485q-7 -16 -18 -24t-19 -8q-6 0 -10 4l-122 246l-114 -218q-8 -16 -18.5 -24.5t-17.5 -7.5zM477 723q-10 0 -10 19l24 21l22 20l22 20q13 13 23.5 24.5t18.5 22.5q8 9 12 9q5 0 12 -9q15 -17 25.5 -29t15.5 -17
q29 -27 48 -43.5t21 -18.5q0 -19 -10 -19q-19 0 -112 60q-16 -11 -40 -25.5t-45 -24.5t-27 -10z" />
    <glyph glyph-name="Wdieresis" unicode="&#x1e84;" horiz-adv-x="1078" 
d="M394 -10q-6 0 -10 4l-265 526q-14 28 -27 49.5t-25 37.5q-8 10 -27.5 16t-31.5 6q-4 0 -4 16q0 14 3 17l134 -6q12 0 121 6q1 -6 1.5 -19t-3.5 -14q-16 0 -32 -7.5t-16 -23.5q0 -18 18 -53l196 -387q3 -5 7.5 -2.5t6.5 6.5l73 142l-107 216q-29 60 -51 85q-9 10 -26.5 17
t-31.5 7q-4 0 -4 17q0 13 3 16l132 -6l118 6q2 -6 2.5 -19t-2.5 -14q-17 0 -32.5 -8t-15.5 -23q0 -16 18 -52l61 -125l59 121q18 36 18 55q0 12 -11.5 19.5t-27.5 10.5t-28 3q-4 0 -4 14t3 18q89 -6 110 -6q28 0 58.5 2t56.5 4q2 -8 2 -18q0 -12 -3 -14q-8 0 -22.5 -4
t-28 -11t-20.5 -15q-23 -26 -57 -94l-73 -148l97 -198q6 -10 13 5q10 23 33.5 74t60.5 129l81 172q18 38 18 56q0 12 -11.5 19.5t-26.5 11t-26 3.5q-4 0 -4.5 14t3.5 18q51 -3 82.5 -4.5t53 -1t41 2t46.5 3.5q1 -4 1.5 -8.5t0.5 -11.5q0 -12 -4 -12q-12 0 -34.5 -8.5
t-33.5 -19.5q-13 -16 -28 -39.5t-30 -55.5l-229 -485q-7 -16 -18 -24t-19 -8q-6 0 -10 4l-122 246l-114 -218q-8 -16 -18.5 -24.5t-17.5 -7.5zM683 726q-25 0 -42 17t-17 42q0 23 17 40t42 17q23 0 40 -17t17 -40q0 -25 -17 -42t-40 -17zM498 726q-25 0 -42 17t-17 42
q0 23 17 40t42 17q23 0 40 -17t17 -40q0 -25 -17 -42t-40 -17z" />
    <glyph glyph-name="uni1E86" unicode="&#x1e86;" horiz-adv-x="1078" 
d="M394 -10q-6 0 -10 4l-265 526q-14 28 -27 49.5t-25 37.5q-8 10 -27.5 16t-31.5 6q-4 0 -4 16q0 14 3 17l134 -6q12 0 121 6q1 -6 1.5 -19t-3.5 -14q-16 0 -32 -7.5t-16 -23.5q0 -18 18 -53l196 -387q3 -5 7.5 -2.5t6.5 6.5l73 142l-107 216q-29 60 -51 85q-9 10 -26.5 17
t-31.5 7q-4 0 -4 17q0 13 3 16l132 -6l118 6q2 -6 2.5 -19t-2.5 -14q-17 0 -32.5 -8t-15.5 -23q0 -16 18 -52l61 -125l59 121q18 36 18 55q0 12 -11.5 19.5t-27.5 10.5t-28 3q-4 0 -4 14t3 18q89 -6 110 -6q28 0 58.5 2t56.5 4q2 -8 2 -18q0 -12 -3 -14q-8 0 -22.5 -4
t-28 -11t-20.5 -15q-23 -26 -57 -94l-73 -148l97 -198q6 -10 13 5q10 23 33.5 74t60.5 129l81 172q18 38 18 56q0 12 -11.5 19.5t-26.5 11t-26 3.5q-4 0 -4.5 14t3.5 18q51 -3 82.5 -4.5t53 -1t41 2t46.5 3.5q1 -4 1.5 -8.5t0.5 -11.5q0 -12 -4 -12q-12 0 -34.5 -8.5
t-33.5 -19.5q-13 -16 -28 -39.5t-30 -55.5l-229 -485q-7 -16 -18 -24t-19 -8q-6 0 -10 4l-122 246l-114 -218q-8 -16 -18.5 -24.5t-17.5 -7.5zM590 770q-25 0 -43 18t-18 43t18 42.5t43 17.5t42.5 -17.5t17.5 -42.5t-17.5 -43t-42.5 -18z" />
    <glyph glyph-name="uni1E88" unicode="&#x1e88;" horiz-adv-x="1078" 
d="M394 -10q-6 0 -10 4l-265 526q-14 28 -27 49.5t-25 37.5q-8 10 -27.5 16t-31.5 6q-4 0 -4 16q0 14 3 17l134 -6q12 0 121 6q1 -6 1.5 -19t-3.5 -14q-16 0 -32 -7.5t-16 -23.5q0 -18 18 -53l196 -387q3 -5 7.5 -2.5t6.5 6.5l73 142l-107 216q-29 60 -51 85q-9 10 -26.5 17
t-31.5 7q-4 0 -4 17q0 13 3 16l132 -6l118 6q2 -6 2.5 -19t-2.5 -14q-17 0 -32.5 -8t-15.5 -23q0 -16 18 -52l61 -125l59 121q18 36 18 55q0 12 -11.5 19.5t-27.5 10.5t-28 3q-4 0 -4 14t3 18q89 -6 110 -6q28 0 58.5 2t56.5 4q2 -8 2 -18q0 -12 -3 -14q-8 0 -22.5 -4
t-28 -11t-20.5 -15q-23 -26 -57 -94l-73 -148l97 -198q6 -10 13 5q10 23 33.5 74t60.5 129l81 172q18 38 18 56q0 12 -11.5 19.5t-26.5 11t-26 3.5q-4 0 -4.5 14t3.5 18q51 -3 82.5 -4.5t53 -1t41 2t46.5 3.5q1 -4 1.5 -8.5t0.5 -11.5q0 -12 -4 -12q-12 0 -34.5 -8.5
t-33.5 -19.5q-13 -16 -28 -39.5t-30 -55.5l-229 -485q-7 -16 -18 -24t-19 -8q-6 0 -10 4l-122 246l-114 -218q-8 -16 -18.5 -24.5t-17.5 -7.5zM539 -182q-25 0 -43.5 18.5t-18.5 43.5q0 26 18.5 44t43.5 18q26 0 44 -18t18 -44q0 -25 -18 -43.5t-44 -18.5z" />
    <glyph glyph-name="Wgrave" unicode="&#x1e80;" horiz-adv-x="1078" 
d="M394 -10q-6 0 -10 4l-265 526q-14 28 -27 49.5t-25 37.5q-8 10 -27.5 16t-31.5 6q-4 0 -4 16q0 14 3 17l134 -6q12 0 121 6q1 -6 1.5 -19t-3.5 -14q-16 0 -32 -7.5t-16 -23.5q0 -18 18 -53l196 -387q3 -5 7.5 -2.5t6.5 6.5l73 142l-107 216q-29 60 -51 85q-9 10 -26.5 17
t-31.5 7q-4 0 -4 17q0 13 3 16l132 -6l118 6q2 -6 2.5 -19t-2.5 -14q-17 0 -32.5 -8t-15.5 -23q0 -16 18 -52l61 -125l59 121q18 36 18 55q0 12 -11.5 19.5t-27.5 10.5t-28 3q-4 0 -4 14t3 18q89 -6 110 -6q28 0 58.5 2t56.5 4q2 -8 2 -18q0 -12 -3 -14q-8 0 -22.5 -4
t-28 -11t-20.5 -15q-23 -26 -57 -94l-73 -148l97 -198q6 -10 13 5q10 23 33.5 74t60.5 129l81 172q18 38 18 56q0 12 -11.5 19.5t-26.5 11t-26 3.5q-4 0 -4.5 14t3.5 18q51 -3 82.5 -4.5t53 -1t41 2t46.5 3.5q1 -4 1.5 -8.5t0.5 -11.5q0 -12 -4 -12q-12 0 -34.5 -8.5
t-33.5 -19.5q-13 -16 -28 -39.5t-30 -55.5l-229 -485q-7 -16 -18 -24t-19 -8q-6 0 -10 4l-122 246l-114 -218q-8 -16 -18.5 -24.5t-17.5 -7.5zM634 733q-7 0 -27.5 7.5t-46.5 20t-50 26.5t-40 27t-16 23q0 15 16 24t38 9q12 0 18 -3q15 -11 35 -29t39.5 -37t32.5 -33.5
t13 -17.5q0 -6 -4 -11.5t-8 -5.5z" />
    <glyph glyph-name="X" unicode="X" horiz-adv-x="752" 
d="M28 -4q-4 8 -4 14q0 20 4 20q10 0 27.5 3.5t35 10t25.5 16.5l204 273l-137 209q-36 57 -60 72t-55 15q-3 0 -3 15q0 14 3 18q39 -2 71.5 -4t62.5 -2q27 0 136 6q1 -3 1 -18t-3 -15q-17 0 -37 -6.5t-20 -20.5q0 -10 10 -26l113 -171l33 42l39 49q32 41 49 66.5t17 35.5
q0 11 -22.5 21t-49.5 10q-4 0 -4.5 14.5t3.5 18.5q102 -6 125 -6q14 0 123 6q2 -6 2 -18q0 -15 -3 -15q-10 0 -29 -3.5t-37 -11t-27 -19.5l-188 -238l191 -286q16 -21 43.5 -31t48.5 -10q4 0 4 -20q0 -6 -2 -14q-109 6 -126 6q-41 0 -83.5 -2t-68.5 -4q-4 4 -3.5 19t4.5 15
q9 0 22.5 3.5t24 10t10.5 14.5q0 6 -4 11l-140 213q-152 -203 -152 -222q0 -11 21 -20q19 -10 50 -10q5 0 5 -19q0 -9 -2 -15q-97 6 -123 6q-15 0 -125 -6z" />
    <glyph glyph-name="uni1E8C" unicode="&#x1e8c;" horiz-adv-x="752" 
d="M28 -4q-4 8 -4 14q0 20 4 20q10 0 27.5 3.5t35 10t25.5 16.5l204 273l-137 209q-36 57 -60 72t-55 15q-3 0 -3 15q0 14 3 18q39 -2 71.5 -4t62.5 -2q27 0 136 6q1 -3 1 -18t-3 -15q-17 0 -37 -6.5t-20 -20.5q0 -10 10 -26l113 -171l33 42l39 49q32 41 49 66.5t17 35.5
q0 11 -22.5 21t-49.5 10q-4 0 -4.5 14.5t3.5 18.5q102 -6 125 -6q14 0 123 6q2 -6 2 -18q0 -15 -3 -15q-10 0 -29 -3.5t-37 -11t-27 -19.5l-188 -238l191 -286q16 -21 43.5 -31t48.5 -10q4 0 4 -20q0 -6 -2 -14q-109 6 -126 6q-41 0 -83.5 -2t-68.5 -4q-4 4 -3.5 19t4.5 15
q9 0 22.5 3.5t24 10t10.5 14.5q0 6 -4 11l-140 213q-152 -203 -152 -222q0 -11 21 -20q19 -10 50 -10q5 0 5 -19q0 -9 -2 -15q-97 6 -123 6q-15 0 -125 -6zM470 726q-25 0 -42 17t-17 42q0 23 17 40t42 17q23 0 40 -17t17 -40q0 -25 -17 -42t-40 -17zM285 726q-25 0 -42 17
t-17 42q0 23 17 40t42 17q23 0 40 -17t17 -40q0 -25 -17 -42t-40 -17z" />
    <glyph glyph-name="uni1E8A" unicode="&#x1e8a;" horiz-adv-x="752" 
d="M28 -4q-4 8 -4 14q0 20 4 20q10 0 27.5 3.5t35 10t25.5 16.5l204 273l-137 209q-36 57 -60 72t-55 15q-3 0 -3 15q0 14 3 18q39 -2 71.5 -4t62.5 -2q27 0 136 6q1 -3 1 -18t-3 -15q-17 0 -37 -6.5t-20 -20.5q0 -10 10 -26l113 -171l33 42l39 49q32 41 49 66.5t17 35.5
q0 11 -22.5 21t-49.5 10q-4 0 -4.5 14.5t3.5 18.5q102 -6 125 -6q14 0 123 6q2 -6 2 -18q0 -15 -3 -15q-10 0 -29 -3.5t-37 -11t-27 -19.5l-188 -238l191 -286q16 -21 43.5 -31t48.5 -10q4 0 4 -20q0 -6 -2 -14q-109 6 -126 6q-41 0 -83.5 -2t-68.5 -4q-4 4 -3.5 19t4.5 15
q9 0 22.5 3.5t24 10t10.5 14.5q0 6 -4 11l-140 213q-152 -203 -152 -222q0 -11 21 -20q19 -10 50 -10q5 0 5 -19q0 -9 -2 -15q-97 6 -123 6q-15 0 -125 -6zM377 770q-25 0 -43 18t-18 43t18 42.5t43 17.5t42.5 -17.5t17.5 -42.5t-17.5 -43t-42.5 -18z" />
    <glyph glyph-name="Y" unicode="Y" horiz-adv-x="657" 
d="M200 -4q-4 4 -4 16q0 16 3 16q8 0 23 3.5t27.5 9.5t14.5 11q8 30 8 88v148q0 5 -6 20l-23 44q-7 14 -14.5 27t-13.5 24l-79 140q-15 26 -28 44t-24 25q-10 7 -29.5 12.5t-28.5 5.5q-3 0 -3.5 10t1.5 14q12 1 45 1.5t87 0.5q18 0 138 6q2 -4 1.5 -18t-3.5 -14
q-16 0 -36 -7t-20 -21q0 -9 9 -26l106 -194q6 -5 10 2q21 32 43 66.5t40 65.5t29 54t11 32q0 11 -18 20q-21 8 -49 8q-4 0 -4 14t3 18q101 -6 120 -6q28 0 57.5 2t52.5 4q1 -4 1.5 -8t0.5 -8q0 -16 -4 -16q-15 0 -41.5 -9t-38.5 -24q-12 -17 -33.5 -50.5t-46.5 -74
t-47.5 -78.5t-37 -64.5t-14.5 -31.5v-156q0 -29 2 -51.5t6 -38.5q2 -4 14.5 -10t27 -10t19.5 -4q4 0 4 -16q0 -5 -0.5 -9t-1.5 -7q-36 3 -66.5 5t-58.5 2q-18 0 -46 -1.5t-52.5 -3t-32.5 -2.5z" />
    <glyph glyph-name="Yacute" unicode="&#xdd;" horiz-adv-x="657" 
d="M200 -4q-4 4 -4 16q0 16 3 16q8 0 23 3.5t27.5 9.5t14.5 11q8 30 8 88v148q0 5 -6 20l-23 44q-7 14 -14.5 27t-13.5 24l-79 140q-15 26 -28 44t-24 25q-10 7 -29.5 12.5t-28.5 5.5q-3 0 -3.5 10t1.5 14q12 1 45 1.5t87 0.5q18 0 138 6q2 -4 1.5 -18t-3.5 -14
q-16 0 -36 -7t-20 -21q0 -9 9 -26l106 -194q6 -5 10 2q21 32 43 66.5t40 65.5t29 54t11 32q0 11 -18 20q-21 8 -49 8q-4 0 -4 14t3 18q101 -6 120 -6q28 0 57.5 2t52.5 4q1 -4 1.5 -8t0.5 -8q0 -16 -4 -16q-15 0 -41.5 -9t-38.5 -24q-12 -17 -33.5 -50.5t-46.5 -74
t-47.5 -78.5t-37 -64.5t-14.5 -31.5v-156q0 -29 2 -51.5t6 -38.5q2 -4 14.5 -10t27 -10t19.5 -4q4 0 4 -16q0 -5 -0.5 -9t-1.5 -7q-36 3 -66.5 5t-58.5 2q-18 0 -46 -1.5t-52.5 -3t-32.5 -2.5zM319 733q-4 0 -8 5.5t-4 11.5q0 3 13 17.5t32.5 33.5t39.5 37t35 29q6 3 18 3
q22 0 38 -9t16 -24q0 -11 -16.5 -24.5t-41.5 -27.5t-51 -26t-45.5 -19t-25.5 -7z" />
    <glyph glyph-name="Ycircumflex" unicode="&#x176;" horiz-adv-x="657" 
d="M200 -4q-4 4 -4 16q0 16 3 16q8 0 23 3.5t27.5 9.5t14.5 11q8 30 8 88v148q0 5 -6 20l-23 44q-7 14 -14.5 27t-13.5 24l-79 140q-15 26 -28 44t-24 25q-10 7 -29.5 12.5t-28.5 5.5q-3 0 -3.5 10t1.5 14q12 1 45 1.5t87 0.5q18 0 138 6q2 -4 1.5 -18t-3.5 -14
q-16 0 -36 -7t-20 -21q0 -9 9 -26l106 -194q6 -5 10 2q21 32 43 66.5t40 65.5t29 54t11 32q0 11 -18 20q-21 8 -49 8q-4 0 -4 14t3 18q101 -6 120 -6q28 0 57.5 2t52.5 4q1 -4 1.5 -8t0.5 -8q0 -16 -4 -16q-15 0 -41.5 -9t-38.5 -24q-12 -17 -33.5 -50.5t-46.5 -74
t-47.5 -78.5t-37 -64.5t-14.5 -31.5v-156q0 -29 2 -51.5t6 -38.5q2 -4 14.5 -10t27 -10t19.5 -4q4 0 4 -16q0 -5 -0.5 -9t-1.5 -7q-36 3 -66.5 5t-58.5 2q-18 0 -46 -1.5t-52.5 -3t-32.5 -2.5zM251 723q-10 0 -10 19l24 21l22 20l22 20q13 13 23.5 24.5t18.5 22.5q8 9 12 9
q5 0 12 -9q15 -17 25.5 -29t15.5 -17q29 -27 48 -43.5t21 -18.5q0 -19 -10 -19q-19 0 -112 60q-16 -11 -40 -25.5t-45 -24.5t-27 -10z" />
    <glyph glyph-name="Ydieresis" unicode="&#x178;" horiz-adv-x="657" 
d="M200 -4q-4 4 -4 16q0 16 3 16q8 0 23 3.5t27.5 9.5t14.5 11q8 30 8 88v148q0 5 -6 20l-23 44q-7 14 -14.5 27t-13.5 24l-79 140q-15 26 -28 44t-24 25q-10 7 -29.5 12.5t-28.5 5.5q-3 0 -3.5 10t1.5 14q12 1 45 1.5t87 0.5q18 0 138 6q2 -4 1.5 -18t-3.5 -14
q-16 0 -36 -7t-20 -21q0 -9 9 -26l106 -194q6 -5 10 2q21 32 43 66.5t40 65.5t29 54t11 32q0 11 -18 20q-21 8 -49 8q-4 0 -4 14t3 18q101 -6 120 -6q28 0 57.5 2t52.5 4q1 -4 1.5 -8t0.5 -8q0 -16 -4 -16q-15 0 -41.5 -9t-38.5 -24q-12 -17 -33.5 -50.5t-46.5 -74
t-47.5 -78.5t-37 -64.5t-14.5 -31.5v-156q0 -29 2 -51.5t6 -38.5q2 -4 14.5 -10t27 -10t19.5 -4q4 0 4 -16q0 -5 -0.5 -9t-1.5 -7q-36 3 -66.5 5t-58.5 2q-18 0 -46 -1.5t-52.5 -3t-32.5 -2.5zM457 726q-25 0 -42 17t-17 42q0 23 17 40t42 17q23 0 40 -17t17 -40
q0 -25 -17 -42t-40 -17zM272 726q-25 0 -42 17t-17 42q0 23 17 40t42 17q23 0 40 -17t17 -40q0 -25 -17 -42t-40 -17z" />
    <glyph glyph-name="uni1E8E" unicode="&#x1e8e;" horiz-adv-x="657" 
d="M200 -4q-4 4 -4 16q0 16 3 16q8 0 23 3.5t27.5 9.5t14.5 11q8 30 8 88v148q0 5 -6 20l-23 44q-7 14 -14.5 27t-13.5 24l-79 140q-15 26 -28 44t-24 25q-10 7 -29.5 12.5t-28.5 5.5q-3 0 -3.5 10t1.5 14q12 1 45 1.5t87 0.5q18 0 138 6q2 -4 1.5 -18t-3.5 -14
q-16 0 -36 -7t-20 -21q0 -9 9 -26l106 -194q6 -5 10 2q21 32 43 66.5t40 65.5t29 54t11 32q0 11 -18 20q-21 8 -49 8q-4 0 -4 14t3 18q101 -6 120 -6q28 0 57.5 2t52.5 4q1 -4 1.5 -8t0.5 -8q0 -16 -4 -16q-15 0 -41.5 -9t-38.5 -24q-12 -17 -33.5 -50.5t-46.5 -74
t-47.5 -78.5t-37 -64.5t-14.5 -31.5v-156q0 -29 2 -51.5t6 -38.5q2 -4 14.5 -10t27 -10t19.5 -4q4 0 4 -16q0 -5 -0.5 -9t-1.5 -7q-36 3 -66.5 5t-58.5 2q-18 0 -46 -1.5t-52.5 -3t-32.5 -2.5zM364 770q-25 0 -43 18t-18 43t18 42.5t43 17.5t42.5 -17.5t17.5 -42.5
t-17.5 -43t-42.5 -18z" />
    <glyph glyph-name="uni1EF4" unicode="&#x1ef4;" horiz-adv-x="657" 
d="M200 -4q-4 4 -4 16q0 16 3 16q8 0 23 3.5t27.5 9.5t14.5 11q8 30 8 88v148q0 5 -6 20l-23 44q-7 14 -14.5 27t-13.5 24l-79 140q-15 26 -28 44t-24 25q-10 7 -29.5 12.5t-28.5 5.5q-3 0 -3.5 10t1.5 14q12 1 45 1.5t87 0.5q18 0 138 6q2 -4 1.5 -18t-3.5 -14
q-16 0 -36 -7t-20 -21q0 -9 9 -26l106 -194q6 -5 10 2q21 32 43 66.5t40 65.5t29 54t11 32q0 11 -18 20q-21 8 -49 8q-4 0 -4 14t3 18q101 -6 120 -6q28 0 57.5 2t52.5 4q1 -4 1.5 -8t0.5 -8q0 -16 -4 -16q-15 0 -41.5 -9t-38.5 -24q-12 -17 -33.5 -50.5t-46.5 -74
t-47.5 -78.5t-37 -64.5t-14.5 -31.5v-156q0 -29 2 -51.5t6 -38.5q2 -4 14.5 -10t27 -10t19.5 -4q4 0 4 -16q0 -5 -0.5 -9t-1.5 -7q-36 3 -66.5 5t-58.5 2q-18 0 -46 -1.5t-52.5 -3t-32.5 -2.5zM329 -182q-25 0 -43.5 18.5t-18.5 43.5q0 26 18.5 44t43.5 18q26 0 44 -18
t18 -44q0 -25 -18 -43.5t-44 -18.5z" />
    <glyph glyph-name="Ygrave" unicode="&#x1ef2;" horiz-adv-x="657" 
d="M200 -4q-4 4 -4 16q0 16 3 16q8 0 23 3.5t27.5 9.5t14.5 11q8 30 8 88v148q0 5 -6 20l-23 44q-7 14 -14.5 27t-13.5 24l-79 140q-15 26 -28 44t-24 25q-10 7 -29.5 12.5t-28.5 5.5q-3 0 -3.5 10t1.5 14q12 1 45 1.5t87 0.5q18 0 138 6q2 -4 1.5 -18t-3.5 -14
q-16 0 -36 -7t-20 -21q0 -9 9 -26l106 -194q6 -5 10 2q21 32 43 66.5t40 65.5t29 54t11 32q0 11 -18 20q-21 8 -49 8q-4 0 -4 14t3 18q101 -6 120 -6q28 0 57.5 2t52.5 4q1 -4 1.5 -8t0.5 -8q0 -16 -4 -16q-15 0 -41.5 -9t-38.5 -24q-12 -17 -33.5 -50.5t-46.5 -74
t-47.5 -78.5t-37 -64.5t-14.5 -31.5v-156q0 -29 2 -51.5t6 -38.5q2 -4 14.5 -10t27 -10t19.5 -4q4 0 4 -16q0 -5 -0.5 -9t-1.5 -7q-36 3 -66.5 5t-58.5 2q-18 0 -46 -1.5t-52.5 -3t-32.5 -2.5zM408 733q-7 0 -27.5 7.5t-46.5 20t-50 26.5t-40 27t-16 23q0 15 16 24t38 9
q12 0 18 -3q15 -11 35 -29t39.5 -37t32.5 -33.5t13 -17.5q0 -6 -4 -11.5t-8 -5.5z" />
    <glyph glyph-name="uni1EF6" unicode="&#x1ef6;" horiz-adv-x="657" 
d="M200 -4q-4 4 -4 16q0 16 3 16q8 0 23 3.5t27.5 9.5t14.5 11q8 30 8 88v148q0 5 -6 20l-23 44q-7 14 -14.5 27t-13.5 24l-79 140q-15 26 -28 44t-24 25q-10 7 -29.5 12.5t-28.5 5.5q-3 0 -3.5 10t1.5 14q12 1 45 1.5t87 0.5q18 0 138 6q2 -4 1.5 -18t-3.5 -14
q-16 0 -36 -7t-20 -21q0 -9 9 -26l106 -194q6 -5 10 2q21 32 43 66.5t40 65.5t29 54t11 32q0 11 -18 20q-21 8 -49 8q-4 0 -4 14t3 18q101 -6 120 -6q28 0 57.5 2t52.5 4q1 -4 1.5 -8t0.5 -8q0 -16 -4 -16q-15 0 -41.5 -9t-38.5 -24q-12 -17 -33.5 -50.5t-46.5 -74
t-47.5 -78.5t-37 -64.5t-14.5 -31.5v-156q0 -29 2 -51.5t6 -38.5q2 -4 14.5 -10t27 -10t19.5 -4q4 0 4 -16q0 -5 -0.5 -9t-1.5 -7q-36 3 -66.5 5t-58.5 2q-18 0 -46 -1.5t-52.5 -3t-32.5 -2.5zM383 690q-12 0 -21.5 8t-9.5 20q0 11 11.5 17.5t23.5 18.5q9 9 14.5 16.5
t5.5 15.5t-6 12t-14 4q-18 0 -36 -18q-9 -9 -14.5 -13.5t-11.5 -4.5q-10 0 -15 10t-5 24q10 14 37.5 30t58.5 16q28 0 47.5 -15t19.5 -40q0 -16 -14 -30t-29 -25q-14 -10 -22.5 -14t-8.5 -12q0 -6 5 -14q0 -6 -16 -6z" />
    <glyph glyph-name="uni0232" unicode="&#x232;" horiz-adv-x="657" 
d="M200 -4q-4 4 -4 16q0 16 3 16q8 0 23 3.5t27.5 9.5t14.5 11q8 30 8 88v148q0 5 -6 20l-23 44q-7 14 -14.5 27t-13.5 24l-79 140q-15 26 -28 44t-24 25q-10 7 -29.5 12.5t-28.5 5.5q-3 0 -3.5 10t1.5 14q12 1 45 1.5t87 0.5q18 0 138 6q2 -4 1.5 -18t-3.5 -14
q-16 0 -36 -7t-20 -21q0 -9 9 -26l106 -194q6 -5 10 2q21 32 43 66.5t40 65.5t29 54t11 32q0 11 -18 20q-21 8 -49 8q-4 0 -4 14t3 18q101 -6 120 -6q28 0 57.5 2t52.5 4q1 -4 1.5 -8t0.5 -8q0 -16 -4 -16q-15 0 -41.5 -9t-38.5 -24q-12 -17 -33.5 -50.5t-46.5 -74
t-47.5 -78.5t-37 -64.5t-14.5 -31.5v-156q0 -29 2 -51.5t6 -38.5q2 -4 14.5 -10t27 -10t19.5 -4q4 0 4 -16q0 -5 -0.5 -9t-1.5 -7q-36 3 -66.5 5t-58.5 2q-18 0 -46 -1.5t-52.5 -3t-32.5 -2.5zM233 748q-6 0 -6 4q0 20 4 35q4 16 10 16h268q6 0 6 -8q-2 -20 -10 -47h-272z
" />
    <glyph glyph-name="uni1EF8" unicode="&#x1ef8;" horiz-adv-x="657" 
d="M200 -4q-4 4 -4 16q0 16 3 16q8 0 23 3.5t27.5 9.5t14.5 11q8 30 8 88v148q0 5 -6 20l-23 44q-7 14 -14.5 27t-13.5 24l-79 140q-15 26 -28 44t-24 25q-10 7 -29.5 12.5t-28.5 5.5q-3 0 -3.5 10t1.5 14q12 1 45 1.5t87 0.5q18 0 138 6q2 -4 1.5 -18t-3.5 -14
q-16 0 -36 -7t-20 -21q0 -9 9 -26l106 -194q6 -5 10 2q21 32 43 66.5t40 65.5t29 54t11 32q0 11 -18 20q-21 8 -49 8q-4 0 -4 14t3 18q101 -6 120 -6q28 0 57.5 2t52.5 4q1 -4 1.5 -8t0.5 -8q0 -16 -4 -16q-15 0 -41.5 -9t-38.5 -24q-12 -17 -33.5 -50.5t-46.5 -74
t-47.5 -78.5t-37 -64.5t-14.5 -31.5v-156q0 -29 2 -51.5t6 -38.5q2 -4 14.5 -10t27 -10t19.5 -4q4 0 4 -16q0 -5 -0.5 -9t-1.5 -7q-36 3 -66.5 5t-58.5 2q-18 0 -46 -1.5t-52.5 -3t-32.5 -2.5zM441 741q-36 0 -91 31q-55 30 -91 30q-15 0 -27.5 -13t-23 -25.5t-19.5 -12.5
q-8 0 -8 19q0 17 18 44q37 46 83 46q36 0 91 -30q55 -31 91 -31q17 0 43 26q24 25 26 25q7 0 7 -20q0 -18 -17 -44q-34 -45 -82 -45z" />
    <glyph glyph-name="Z" unicode="Z" horiz-adv-x="622" 
d="M40 0q-8 10 -8 26q0 13 4 17l376 561h-192q-36 -1 -60 -8t-39 -25q-15 -19 -23 -36.5t-18 -50.5q-2 -5 -12 -5q-26 0 -32 7q13 62 20.5 107t10.5 71q5 -1 26 -2.5t47.5 -3t50 -2t33.5 -0.5h109q41 0 96 2.5t125 7.5q3 -1 6.5 -13t3.5 -20q-1 -3 -93 -142l-277 -412
q-6 -10 -6 -15q0 -10 14 -10h192q117 0 161 119q2 5 13 5q20 0 28 -8q-22 -67 -34 -110t-15 -60h-507z" />
    <glyph glyph-name="Zacute" unicode="&#x179;" horiz-adv-x="622" 
d="M40 0q-8 10 -8 26q0 13 4 17l376 561h-192q-36 -1 -60 -8t-39 -25q-15 -19 -23 -36.5t-18 -50.5q-2 -5 -12 -5q-26 0 -32 7q13 62 20.5 107t10.5 71q5 -1 26 -2.5t47.5 -3t50 -2t33.5 -0.5h109q41 0 96 2.5t125 7.5q3 -1 6.5 -13t3.5 -20q-1 -3 -93 -142l-277 -412
q-6 -10 -6 -15q0 -10 14 -10h192q117 0 161 119q2 5 13 5q20 0 28 -8q-22 -67 -34 -110t-15 -60h-507zM267 733q-4 0 -8 5.5t-4 11.5q0 3 13 17.5t32.5 33.5t39.5 37t35 29q6 3 18 3q22 0 38 -9t16 -24q0 -11 -16.5 -24.5t-41.5 -27.5t-51 -26t-45.5 -19t-25.5 -7z" />
    <glyph glyph-name="Zcaron" unicode="&#x17d;" horiz-adv-x="622" 
d="M40 0q-8 10 -8 26q0 13 4 17l376 561h-192q-36 -1 -60 -8t-39 -25q-15 -19 -23 -36.5t-18 -50.5q-2 -5 -12 -5q-26 0 -32 7q13 62 20.5 107t10.5 71q5 -1 26 -2.5t47.5 -3t50 -2t33.5 -0.5h109q41 0 96 2.5t125 7.5q3 -1 6.5 -13t3.5 -20q-1 -3 -93 -142l-277 -412
q-6 -10 -6 -15q0 -10 14 -10h192q117 0 161 119q2 5 13 5q20 0 28 -8q-22 -67 -34 -110t-15 -60h-507zM311 734q-4 0 -12 8q-8 11 -18.5 22.5t-23.5 24.5q-11 11 -22 21l-22 20t-17 14.5t-7 5.5q0 20 10 20q6 0 27 -10t45 -24t40 -26q93 60 112 60q10 0 10 -20
q-2 -2 -21 -18.5t-48 -43.5q-5 -5 -15.5 -17t-25.5 -29q-6 -8 -12 -8z" />
    <glyph glyph-name="uni1E90" unicode="&#x1e90;" horiz-adv-x="622" 
d="M40 0q-8 10 -8 26q0 13 4 17l376 561h-192q-36 -1 -60 -8t-39 -25q-15 -19 -23 -36.5t-18 -50.5q-2 -5 -12 -5q-26 0 -32 7q13 62 20.5 107t10.5 71q5 -1 26 -2.5t47.5 -3t50 -2t33.5 -0.5h109q41 0 96 2.5t125 7.5q3 -1 6.5 -13t3.5 -20q-1 -3 -93 -142l-277 -412
q-6 -10 -6 -15q0 -10 14 -10h192q117 0 161 119q2 5 13 5q20 0 28 -8q-22 -67 -34 -110t-15 -60h-507zM199 723q-10 0 -10 19l24 21l22 20l22 20q13 13 23.5 24.5t18.5 22.5q8 9 12 9q5 0 12 -9q15 -17 25.5 -29t15.5 -17q29 -27 48 -43.5t21 -18.5q0 -19 -10 -19
q-19 0 -112 60q-16 -11 -40 -25.5t-45 -24.5t-27 -10z" />
    <glyph glyph-name="Zdotaccent" unicode="&#x17b;" horiz-adv-x="622" 
d="M40 0q-8 10 -8 26q0 13 4 17l376 561h-192q-36 -1 -60 -8t-39 -25q-15 -19 -23 -36.5t-18 -50.5q-2 -5 -12 -5q-26 0 -32 7q13 62 20.5 107t10.5 71q5 -1 26 -2.5t47.5 -3t50 -2t33.5 -0.5h109q41 0 96 2.5t125 7.5q3 -1 6.5 -13t3.5 -20q-1 -3 -93 -142l-277 -412
q-6 -10 -6 -15q0 -10 14 -10h192q117 0 161 119q2 5 13 5q20 0 28 -8q-22 -67 -34 -110t-15 -60h-507zM312 770q-25 0 -43 18t-18 43t18 42.5t43 17.5t42.5 -17.5t17.5 -42.5t-17.5 -43t-42.5 -18z" />
    <glyph glyph-name="uni1E92" unicode="&#x1e92;" horiz-adv-x="622" 
d="M40 0q-8 10 -8 26q0 13 4 17l376 561h-192q-36 -1 -60 -8t-39 -25q-15 -19 -23 -36.5t-18 -50.5q-2 -5 -12 -5q-26 0 -32 7q13 62 20.5 107t10.5 71q5 -1 26 -2.5t47.5 -3t50 -2t33.5 -0.5h109q41 0 96 2.5t125 7.5q3 -1 6.5 -13t3.5 -20q-1 -3 -93 -142l-277 -412
q-6 -10 -6 -15q0 -10 14 -10h192q117 0 161 119q2 5 13 5q20 0 28 -8q-22 -67 -34 -110t-15 -60h-507zM311 -182q-25 0 -43.5 18.5t-18.5 43.5q0 26 18.5 44t43.5 18q26 0 44 -18t18 -44q0 -25 -18 -43.5t-44 -18.5z" />
    <glyph glyph-name="Zmacronbelow" unicode="&#x1e94;" horiz-adv-x="622" 
d="M40 0q-8 10 -8 26q0 13 4 17l376 561h-192q-36 -1 -60 -8t-39 -25q-15 -19 -23 -36.5t-18 -50.5q-2 -5 -12 -5q-26 0 -32 7q13 62 20.5 107t10.5 71q5 -1 26 -2.5t47.5 -3t50 -2t33.5 -0.5h109q41 0 96 2.5t125 7.5q3 -1 6.5 -13t3.5 -20q-1 -3 -93 -142l-277 -412
q-6 -10 -6 -15q0 -10 14 -10h192q117 0 161 119q2 5 13 5q20 0 28 -8q-22 -67 -34 -110t-15 -60h-507zM176 -122q-6 0 -6 4q0 20 4 35q4 16 10 16h268q6 0 6 -8q-2 -20 -10 -47h-272z" />
    <glyph glyph-name="T_h" horiz-adv-x="1108" 
d="M200 -3q-4 4 -4 14q0 19 4 19q8 0 23 3t28 8.5t15 10.5q4 16 6 37t2 47v361q0 81 -9 97q-9 17 -95 17q-49 0 -72.5 -19t-37.5 -74q-1 -6 -10 -6q-18 0 -26 8l19 152q39 -10 69 -10q43 0 110 -3q68 -3 109 -3q90 0 220 6q47 2 91.5 10.5t87.5 21.5h2q4 0 8.5 -6t5.5 -10
q-11 -39 -11 -94v-198q0 -6 3 -6q1 -1 4 2q21 21 55 40.5t69 19.5q42 0 75 -24t52 -62t19 -80v-132q0 -63 7 -90q2 -4 13 -10t24 -10t18 -4q3 0 3.5 -14t-1.5 -19q-31 2 -63 4t-53 2q-31 0 -63.5 -2t-54.5 -4q-4 4 -4 19q0 14 4 14q8 0 21 4t24.5 10t12.5 10q9 39 9 67
l1 105q1 78 -20 111.5t-68 33.5q-25 0 -48.5 -15t-33.5 -28q-5 -8 -5 -10v-178q0 -62 6 -86q2 -4 13 -10t24 -10t18 -4q3 0 3.5 -14t-1.5 -19q-31 2 -63 4t-53 2q-31 0 -63.5 -2t-54.5 -4q-4 4 -4 19q0 14 4 14q8 0 21 4t24.5 10t12.5 10q4 17 6 36t2 38l2 410q0 39 -23 56
t-96 17q-112 0 -117 -17q-9 -31 -9 -94v-358q0 -55 9 -90q2 -4 14.5 -9.5t27 -9t20.5 -3.5q4 0 4 -19q0 -6 -2 -14l-127 6q-35 0 -72 -2t-61 -4z" />
    <glyph glyph-name="a" unicode="a" horiz-adv-x="452" 
d="M141 -7q-50 0 -81.5 27.5t-31.5 75.5q0 33 21.5 60t60.5 46q14 7 25.5 11.5t21.5 8.5q35 11 58.5 18t33.5 10q9 5 9 16v55q0 35 -16 55t-43 20q-30 0 -47 -18.5t-17 -52.5q0 -20 -15 -29.5t-34 -9.5q-37 0 -52 24q0 24 18 47.5t47.5 42.5t65.5 30.5t72 11.5
q62 0 93 -32.5t31 -111.5v-197q0 -41 33 -41q15 0 34 13q6 -1 6 -11q0 -19 -6 -30q-15 -12 -40 -25t-48 -13t-45 17t-29 37q-8 -7 -12 -10t-13 -10q-21 -14 -46 -24.5t-54 -10.5zM192 58q27 0 46.5 14t19.5 32v102l-64 -22q-23 -10 -41 -24t-18 -40q0 -32 16 -47t41 -15z
" />
    <glyph glyph-name="aacute" unicode="&#xe1;" horiz-adv-x="452" 
d="M141 -7q-50 0 -81.5 27.5t-31.5 75.5q0 33 21.5 60t60.5 46q14 7 25.5 11.5t21.5 8.5q35 11 58.5 18t33.5 10q9 5 9 16v55q0 35 -16 55t-43 20q-30 0 -47 -18.5t-17 -52.5q0 -20 -15 -29.5t-34 -9.5q-37 0 -52 24q0 24 18 47.5t47.5 42.5t65.5 30.5t72 11.5
q62 0 93 -32.5t31 -111.5v-197q0 -41 33 -41q15 0 34 13q6 -1 6 -11q0 -19 -6 -30q-15 -12 -40 -25t-48 -13t-45 17t-29 37q-8 -7 -12 -10t-13 -10q-21 -14 -46 -24.5t-54 -10.5zM192 58q27 0 46.5 14t19.5 32v102l-64 -22q-23 -10 -41 -24t-18 -40q0 -32 16 -47t41 -15z
M182 506q-5 0 -10 5.5t-5 10.5q0 3 10 19t25 38t31 44t28 37q8 8 34 8q21 0 31.5 -9t10.5 -17q0 -10 -14 -26.5t-35.5 -35.5t-44 -36t-39.5 -27.5t-22 -10.5z" />
    <glyph glyph-name="abreve" unicode="&#x103;" horiz-adv-x="452" 
d="M141 -7q-50 0 -81.5 27.5t-31.5 75.5q0 33 21.5 60t60.5 46q14 7 25.5 11.5t21.5 8.5q35 11 58.5 18t33.5 10q9 5 9 16v55q0 35 -16 55t-43 20q-30 0 -47 -18.5t-17 -52.5q0 -20 -15 -29.5t-34 -9.5q-37 0 -52 24q0 24 18 47.5t47.5 42.5t65.5 30.5t72 11.5
q62 0 93 -32.5t31 -111.5v-197q0 -41 33 -41q15 0 34 13q6 -1 6 -11q0 -19 -6 -30q-15 -12 -40 -25t-48 -13t-45 17t-29 37q-8 -7 -12 -10t-13 -10q-21 -14 -46 -24.5t-54 -10.5zM192 58q27 0 46.5 14t19.5 32v102l-64 -22q-23 -10 -41 -24t-18 -40q0 -32 16 -47t41 -15z
M224 506q-35 1 -59.5 19t-37 42.5t-14.5 42.5q0 5 10 11.5t15 6.5q2 0 4 -9q3 -9 12.5 -23.5t27 -25.5t42.5 -11t42.5 11t27.5 25.5t12 23.5t4 9q5 0 15 -6.5t10 -11.5q-1 -18 -14 -42.5t-37 -42.5t-60 -19z" />
    <glyph glyph-name="uni1EAF" unicode="&#x1eaf;" horiz-adv-x="452" 
d="M141 -7q-50 0 -81.5 27.5t-31.5 75.5q0 33 21.5 60t60.5 46q14 7 25.5 11.5t21.5 8.5q35 11 58.5 18t33.5 10q9 5 9 16v55q0 35 -16 55t-43 20q-30 0 -47 -18.5t-17 -52.5q0 -20 -15 -29.5t-34 -9.5q-37 0 -52 24q0 24 18 47.5t47.5 42.5t65.5 30.5t72 11.5
q62 0 93 -32.5t31 -111.5v-197q0 -41 33 -41q15 0 34 13q6 -1 6 -11q0 -19 -6 -30q-15 -12 -40 -25t-48 -13t-45 17t-29 37q-8 -7 -12 -10t-13 -10q-21 -14 -46 -24.5t-54 -10.5zM192 58q27 0 46.5 14t19.5 32v102l-64 -22q-23 -10 -41 -24t-18 -40q0 -32 16 -47t41 -15z
M203 606q-4 0 -7.5 5.5t-3.5 9.5q0 3 11 15t28 28.5t34.5 32.5t30.5 25q5 3 15 3q19 0 33 -7.5t14 -21.5q0 -10 -20.5 -25t-49 -30t-53 -25t-32.5 -10zM224 496q-35 1 -59.5 19t-37 42.5t-14.5 42.5q0 5 10 11.5t15 6.5q2 0 4 -9q3 -9 12.5 -23.5t27 -25.5t42.5 -11t42.5 11
t27.5 25.5t12 23.5t4 9q5 0 15 -6.5t10 -11.5q-1 -18 -14 -42.5t-37 -42.5t-60 -19z" />
    </font>
</defs>
</svg>
