<?xml version="1.0" standalone="no"?>
<!DOCTYPE svg PUBLIC "-//W3C//DTD SVG 1.1//EN" "http://www.w3.org/Graphics/SVG/1.1/DTD/svg11.dtd" >
<svg xmlns="http://www.w3.org/2000/svg" xmlns:xlink="http://www.w3.org/1999/xlink" version="1.1">
<metadata>
Created by FontForge 20230101 at Fri Oct 21 06:11:42 2022
 By Glenn Lewis
Copyright 2019 The Chivo Project Authors (https://github.com/Omnibus-Type/Chivo)
</metadata>
<defs>
<font id="Chivo-Bold" horiz-adv-x="0" >
  <font-face 
    font-family="Chivo"
    font-weight="700"
    font-stretch="normal"
    units-per-em="1000"
    panose-1="0 0 0 0 0 0 0 0 0 0"
    ascent="800"
    descent="-200"
    x-height="511"
    cap-height="686"
    bbox="-160 -375 1265 1131"
    underline-thickness="72"
    underline-position="-206"
    unicode-range="U+0020-FEFF"
  />
<missing-glyph horiz-adv-x="500" 
d="M0 0v700h500v-700h-500zM80 50h340l-170 255zM50 95l170 255l-170 255v-510zM450 95v510l-170 -255zM250 395l170 255h-340z" />
    <glyph glyph-name="f_f" unicode="ff" horiz-adv-x="768" 
d="M96 0v396h-62v115h62v77q0 75 45 107.5t115 32.5q16 0 37.5 -2.5t43 -7t35.5 -10.5v-92q-11 4 -31 7.5t-31 3.5q-12 0 -25.5 -3.5t-22.5 -16t-9 -40.5v-56h214v77q0 75 44.5 107.5t115.5 32.5q16 0 37.5 -2.5t43 -7t35.5 -10.5v-92q-11 4 -31 7.5t-31 3.5
q-12 0 -25.5 -3.5t-22.5 -16t-9 -40.5v-56h120v-115h-120v-396h-157v396h-214v-396h-157z" />
    <glyph glyph-name="f_f_i" unicode="ffi" horiz-adv-x="1051" 
d="M96 0v396h-62v115h62v77q0 75 45 107.5t115 32.5q16 0 37.5 -2.5t43 -7t35.5 -10.5v-92q-11 4 -31 7.5t-31 3.5q-12 0 -25.5 -3.5t-22.5 -16t-9 -40.5v-56h214v77q0 75 44.5 107.5t115.5 32.5q16 0 37.5 -2.5t43 -7t35.5 -10.5v-92q-11 4 -31 7.5t-31 3.5
q-12 0 -25.5 -3.5t-22.5 -16t-9 -40.5v-56h120v-115h-120v-396h-157v396h-214v-396h-157zM829 0v511h157v-511h-157zM828 602v118h159v-118h-159z" />
    <glyph glyph-name="f_f_l" unicode="ffl" horiz-adv-x="1051" 
d="M96 0v396h-62v115h62v77q0 75 45 107.5t115 32.5q16 0 37.5 -2.5t43 -7t35.5 -10.5v-92q-11 4 -31 7.5t-31 3.5q-12 0 -25.5 -3.5t-22.5 -16t-9 -40.5v-56h214v77q0 75 44.5 107.5t115.5 32.5q16 0 37.5 -2.5t43 -7t35.5 -10.5v-92q-11 4 -31 7.5t-31 3.5
q-12 0 -25.5 -3.5t-22.5 -16t-9 -40.5v-56h120v-115h-120v-396h-157v396h-214v-396h-157zM830 0v720h157v-720h-157z" />
    <glyph glyph-name="fi" unicode="fi" horiz-adv-x="673" 
d="M93 0v396h-62v115h62v77q0 75 45 107.5t116 32.5q16 0 37.5 -2.5t42.5 -7t35 -10.5v-92q-11 4 -31 7.5t-31 3.5q-12 0 -25.5 -3.5t-22.5 -16t-9 -40.5v-56h120v-115h-120v-396h-157zM439 0v511h156v-511h-156zM438 602v118h158v-118h-158z" />
    <glyph glyph-name="fl" unicode="fl" horiz-adv-x="677" 
d="M93 0v396h-62v115h62v77q0 75 45 107.5t116 32.5q16 0 37.5 -2.5t42.5 -7t35 -10.5v-92q-11 4 -31 7.5t-31 3.5q-12 0 -25.5 -3.5t-22.5 -16t-9 -40.5v-56h120v-115h-120v-396h-157zM439 0v720h158v-720h-158z" />
    <glyph glyph-name=".notdef" horiz-adv-x="500" 
d="M0 0v700h500v-700h-500zM80 50h340l-170 255zM50 95l170 255l-170 255v-510zM450 95v510l-170 -255zM250 395l170 255h-340z" />
    <glyph glyph-name="A" unicode="A" horiz-adv-x="693" 
d="M1 0l245 686h202l244 -686h-174l-49 136h-258l-48 -136h-162zM251 254h178l-86 259h-5z" />
    <glyph glyph-name="Aacute" unicode="&#xc1;" horiz-adv-x="693" 
d="M1 0l245 686h202l244 -686h-174l-49 136h-258l-48 -136h-162zM251 254h178l-86 259h-5zM292 749l95 140h140l1 -3l-121 -137h-115z" />
    <glyph glyph-name="Abreve" unicode="&#x102;" horiz-adv-x="693" 
d="M1 0l245 686h202l244 -686h-174l-49 136h-258l-48 -136h-162zM251 254h178l-86 259h-5zM341 748q-85 0 -125.5 38.5t-42.5 98.5h88q5 -28 25.5 -42t58.5 -14q39 0 60 14t27 42h87q-2 -60 -48.5 -98.5t-129.5 -38.5z" />
    <glyph glyph-name="uni1EAE" unicode="&#x1eae;" horiz-adv-x="693" 
d="M1 0l245 686h202l244 -686h-174l-49 136h-258l-48 -136h-162zM251 254h178l-86 259h-5zM341 757q-62 0 -102.5 17.5t-60.5 48.5t-20 70h88q6 -28 30.5 -42t68.5 -14q46 0 70 14t32 42h86q0 -39 -23 -70t-66.5 -48.5t-102.5 -17.5zM290 908l92 145h127l2 -3l-122 -142h-99
z" />
    <glyph glyph-name="uni1EB6" unicode="&#x1eb6;" horiz-adv-x="693" 
d="M1 0l245 686h202l244 -686h-174l-49 136h-258l-48 -136h-162zM251 254h178l-86 259h-5zM341 748q-85 0 -125.5 38.5t-42.5 98.5h88q5 -28 25.5 -42t58.5 -14q39 0 60 14t27 42h87q-2 -60 -48.5 -98.5t-129.5 -38.5zM287 -183v122h124v-122h-124z" />
    <glyph glyph-name="uni1EB0" unicode="&#x1eb0;" horiz-adv-x="693" 
d="M1 0l245 686h202l244 -686h-174l-49 136h-258l-48 -136h-162zM251 254h178l-86 259h-5zM344 757q-61 0 -102 17.5t-62 48.5t-21 70h87q7 -28 31.5 -42t69.5 -14t69.5 14t30.5 42h87q0 -39 -22.5 -70t-64.5 -48.5t-103 -17.5zM303 908l-121 142l1 3h127l93 -145h-100z" />
    <glyph glyph-name="uni1EB2" unicode="&#x1eb2;" horiz-adv-x="693" 
d="M1 0l245 686h202l244 -686h-174l-49 136h-258l-48 -136h-162zM251 254h178l-86 259h-5zM344 757q-61 0 -102 17.5t-62 48.5t-21 70h87q7 -28 31.5 -42t69.5 -14t69.5 14t30.5 42h87q0 -39 -22.5 -70t-64.5 -48.5t-103 -17.5zM327 908v57q24 2 37.5 13t13.5 29
q0 15 -11.5 23.5t-30.5 8.5q-11 0 -25 -2.5t-30 -7.5v74q15 5 30.5 6.5t29.5 1.5q46 0 77 -24t31 -69q0 -31 -18 -55.5t-45.5 -38.5t-58.5 -16z" />
    <glyph glyph-name="uni1EB4" unicode="&#x1eb4;" horiz-adv-x="693" 
d="M1 0l245 686h202l244 -686h-174l-49 136h-258l-48 -136h-162zM251 254h178l-86 259h-5zM343 757q-61 0 -102 17.5t-62 48.5t-21 70h87q7 -28 31.5 -42t69.5 -14t69.5 14t30.5 42h87q0 -39 -22.5 -70t-64.5 -48.5t-103 -17.5zM156 934q0 35 14.5 64t41 46.5t63.5 17.5
q33 0 56 -8.5t43.5 -17.5t45.5 -9q20 0 33 9.5t18 25.5h65q0 -34 -14.5 -63.5t-41 -47t-63.5 -17.5q-32 0 -54.5 9t-43 18t-47.5 9q-20 0 -32.5 -9.5t-17.5 -26.5h-66z" />
    <glyph glyph-name="uni01CD" unicode="&#x1cd;" horiz-adv-x="693" 
d="M1 0l245 686h202l244 -686h-174l-49 136h-258l-48 -136h-162zM251 254h178l-86 259h-5zM272 753l-112 132h114l89 -102h-34l90 102h113l-112 -132h-148z" />
    <glyph glyph-name="Acircumflex" unicode="&#xc2;" horiz-adv-x="693" 
d="M1 0l245 686h202l244 -686h-174l-49 136h-258l-48 -136h-162zM251 254h178l-86 259h-5zM159 753l113 132h149l112 -132h-114l-89 102h33l-90 -102h-114z" />
    <glyph glyph-name="uni1EA4" unicode="&#x1ea4;" horiz-adv-x="693" 
d="M1 0l245 686h202l244 -686h-174l-49 136h-258l-48 -136h-162zM251 254h178l-86 259h-5zM152 758l137 132h114l138 -132h-108l-87 63l-88 -63h-106zM295 933l83 131h127l1 -3l-112 -128h-99z" />
    <glyph glyph-name="uni1EAC" unicode="&#x1eac;" horiz-adv-x="693" 
d="M1 0l245 686h202l244 -686h-174l-49 136h-258l-48 -136h-162zM251 254h178l-86 259h-5zM159 753l113 132h149l112 -132h-114l-89 102h33l-90 -102h-114zM287 -183v122h124v-122h-124z" />
    <glyph glyph-name="uni1EA6" unicode="&#x1ea6;" horiz-adv-x="693" 
d="M1 0l245 686h202l244 -686h-174l-49 136h-258l-48 -136h-162zM251 254h178l-86 259h-5zM152 758l138 132h114l137 -132h-107l-88 63l-87 -63h-107zM298 933l-112 128l2 3h127l83 -131h-100z" />
    <glyph glyph-name="uni1EA8" unicode="&#x1ea8;" horiz-adv-x="693" 
d="M1 0l245 686h202l244 -686h-174l-49 136h-258l-48 -136h-162zM251 254h178l-86 259h-5zM152 758l137 132h114l138 -132h-108l-87 63l-88 -63h-106zM328 928v57q24 2 37 13t13 29q0 16 -11 24.5t-30 8.5q-11 0 -25.5 -2.5t-30.5 -8.5v74q16 5 31 6.5t30 1.5q46 0 76.5 -24
t30.5 -69q0 -31 -17.5 -55.5t-45.5 -38.5t-58 -16z" />
    <glyph glyph-name="uni1EAA" unicode="&#x1eaa;" horiz-adv-x="693" 
d="M1 0l245 686h202l244 -686h-174l-49 136h-258l-48 -136h-162zM251 254h178l-86 259h-5zM152 758l137 132h114l138 -132h-108l-87 63l-88 -63h-106zM157 929q0 35 14 64t41 46.5t63 17.5q33 0 56 -9t44 -18t46 -9q19 0 32.5 9.5t17.5 26.5h65q0 -35 -14 -64t-40.5 -46.5
t-63.5 -17.5q-32 0 -55 8.5t-43.5 17.5t-47.5 10q-19 0 -32 -10t-18 -26h-65z" />
    <glyph glyph-name="uni0200" unicode="&#x200;" horiz-adv-x="693" 
d="M1 0l245 686h202l244 -686h-174l-49 136h-258l-48 -136h-162zM251 254h178l-86 259h-5zM398 752l-122 142l5 3h126l93 -145h-102zM202 752l-122 142l2 3h129l93 -145h-102z" />
    <glyph glyph-name="Adieresis" unicode="&#xc4;" horiz-adv-x="693" 
d="M1 0l245 686h202l244 -686h-174l-49 136h-258l-48 -136h-162zM251 254h178l-86 259h-5zM164 757v122h124v-122h-124zM404 757v122h124v-122h-124z" />
    <glyph glyph-name="uni1EA0" unicode="&#x1ea0;" horiz-adv-x="693" 
d="M1 0l245 686h202l244 -686h-174l-49 136h-258l-48 -136h-162zM251 254h178l-86 259h-5zM287 -183v122h124v-122h-124z" />
    <glyph glyph-name="Agrave" unicode="&#xc0;" horiz-adv-x="693" 
d="M1 0l245 686h202l244 -686h-174l-49 136h-258l-48 -136h-162zM251 254h178l-86 259h-5zM294 749l-121 137l1 3h140l95 -140h-115z" />
    <glyph glyph-name="uni1EA2" unicode="&#x1ea2;" horiz-adv-x="693" 
d="M1 0l245 686h202l244 -686h-174l-49 136h-258l-48 -136h-162zM251 254h178l-86 259h-5zM320 729v70q30 3 46 16t16 35q0 19 -13.5 29.5t-36.5 10.5q-14 0 -31 -3t-38 -10v92q20 5 38.5 7.5t36.5 2.5q56 0 94 -30t38 -85q0 -38 -22 -67.5t-56 -47.5t-72 -20z" />
    <glyph glyph-name="uni0202" unicode="&#x202;" horiz-adv-x="693" 
d="M1 0l245 686h202l244 -686h-174l-49 136h-258l-48 -136h-162zM251 254h178l-86 259h-5zM158 756q0 39 23.5 70t66.5 48.5t102 17.5q62 0 102.5 -17.5t60.5 -48.5t20 -70h-87q-6 28 -30 42t-70 14q-45 0 -69.5 -14t-31.5 -42h-87z" />
    <glyph glyph-name="Amacron" unicode="&#x100;" horiz-adv-x="693" 
d="M1 0l245 686h202l244 -686h-174l-49 136h-258l-48 -136h-162zM251 254h178l-86 259h-5zM179 775v83h334v-83h-334z" />
    <glyph glyph-name="Aogonek" unicode="&#x104;" horiz-adv-x="693" 
d="M1 0l245 686h202l244 -686h-174l-49 136h-258l-48 -136h-162zM251 254h178l-86 259h-5zM576 -146q-25 0 -48.5 7.5t-38.5 24t-15 43.5q0 24 13.5 42.5t30.5 28.5h92q-19 -11 -32 -24t-13 -30q0 -19 12 -26.5t28 -7.5q15 0 31 4t30 9l14 -44q-23 -13 -49.5 -20t-54.5 -7z
" />
    <glyph glyph-name="Aring" unicode="&#xc5;" horiz-adv-x="693" 
d="M1 0l245 686h202l244 -686h-174l-49 136h-258l-48 -136h-162zM251 254h178l-86 259h-5zM345 724q-45 0 -75 28t-30 74t31 75t76 29t75 -28t30 -74q0 -45 -30.5 -74.5t-76.5 -29.5zM346 785q19 0 30 12.5t11 29.5q0 18 -11.5 30t-29.5 12t-29 -12.5t-11 -29.5
q0 -18 11.5 -30t28.5 -12z" />
    <glyph glyph-name="Aringacute" unicode="&#x1fa;" horiz-adv-x="693" 
d="M1 0l245 686h202l244 -686h-174l-49 136h-258l-48 -136h-162zM251 254h178l-86 259h-5zM299 989l61 119h115l1 -2l-87 -117h-90zM346 741q-45 0 -75 28t-30 74t31 75t76 29t75 -28.5t30 -74.5q0 -45 -30.5 -74t-76.5 -29zM347 802q19 0 30 12.5t11 29.5t-11.5 29
t-29.5 12t-29 -12t-11 -30q0 -17 11.5 -29t28.5 -12z" />
    <glyph glyph-name="Atilde" unicode="&#xc3;" horiz-adv-x="693" 
d="M1 0l245 686h202l244 -686h-174l-49 136h-258l-48 -136h-162zM251 254h178l-86 259h-5zM151 750q3 39 16.5 70t39 50t61.5 19t63 -10.5t49 -21.5t44 -11q21 0 32.5 11.5t15.5 30.5h69q-2 -37 -16 -68.5t-39 -50.5t-62 -19q-36 0 -63 10.5t-49.5 21.5t-44.5 11
q-19 0 -30 -11t-17 -32h-69z" />
    <glyph glyph-name="AE" unicode="&#xc6;" horiz-adv-x="1001" 
d="M-4 0l340 686h628l-18 -128h-382l34 -146h329v-124h-302l36 -158h289l17 -130h-445l-30 136h-267l-68 -136h-161zM283 254h184l-59 258h-4z" />
    <glyph glyph-name="AEacute" unicode="&#x1fc;" horiz-adv-x="1001" 
d="M-4 0l340 686h628l-18 -128h-382l34 -146h329v-124h-302l36 -158h289l17 -130h-445l-30 136h-267l-68 -136h-161zM283 254h184l-59 258h-4zM419 749l95 140h140l1 -3l-121 -137h-115z" />
    <glyph glyph-name="B" unicode="B" horiz-adv-x="655" 
d="M71 0v686h345q52 0 93.5 -19t65.5 -55t24 -87q0 -49 -17 -82.5t-43.5 -53.5t-56.5 -30v-5q22 -5 45 -15.5t43 -29t32.5 -45.5t12.5 -65q0 -59 -27.5 -103.5t-72.5 -70t-101 -25.5h-343zM228 124h143q25 0 43 11.5t28.5 31.5t10.5 45q0 26 -11 43t-29.5 26t-40.5 9h-144
v-166zM228 410h138q24 0 40.5 11.5t25 31t8.5 41.5q0 37 -18.5 54.5t-50.5 17.5h-143v-156z" />
    <glyph glyph-name="C" unicode="C" horiz-adv-x="678" 
d="M343 -10q-62 0 -116.5 18.5t-95 57t-63.5 97t-23 138.5v84q0 78 23.5 136t64.5 97t94.5 58.5t113.5 19.5h22q57 0 107.5 -16.5t88.5 -51t59.5 -88t21.5 -127.5h-157q0 61 -15.5 95t-45.5 48t-71 14q-29 0 -52.5 -8.5t-40.5 -26.5t-26.5 -46.5t-9.5 -68.5v-154
q0 -52 16 -85.5t45 -49t68 -15.5q46 0 76.5 14t46.5 47.5t16 94.5h150q0 -69 -21 -122t-59 -88.5t-88 -53.5t-107 -18h-22z" />
    <glyph glyph-name="Cacute" unicode="&#x106;" horiz-adv-x="678" 
d="M343 -10q-62 0 -116.5 18.5t-95 57t-63.5 97t-23 138.5v84q0 78 23.5 136t64.5 97t94.5 58.5t113.5 19.5h22q57 0 107.5 -16.5t88.5 -51t59.5 -88t21.5 -127.5h-157q0 61 -15.5 95t-45.5 48t-71 14q-29 0 -52.5 -8.5t-40.5 -26.5t-26.5 -46.5t-9.5 -68.5v-154
q0 -52 16 -85.5t45 -49t68 -15.5q46 0 76.5 14t46.5 47.5t16 94.5h150q0 -69 -21 -122t-59 -88.5t-88 -53.5t-107 -18h-22zM291 749l95 140h140l1 -3l-121 -137h-115z" />
    <glyph glyph-name="Ccaron" unicode="&#x10c;" horiz-adv-x="678" 
d="M343 -10q-62 0 -116.5 18.5t-95 57t-63.5 97t-23 138.5v84q0 78 23.5 136t64.5 97t94.5 58.5t113.5 19.5h22q57 0 107.5 -16.5t88.5 -51t59.5 -88t21.5 -127.5h-157q0 61 -15.5 95t-45.5 48t-71 14q-29 0 -52.5 -8.5t-40.5 -26.5t-26.5 -46.5t-9.5 -68.5v-154
q0 -52 16 -85.5t45 -49t68 -15.5q46 0 76.5 14t46.5 47.5t16 94.5h150q0 -69 -21 -122t-59 -88.5t-88 -53.5t-107 -18h-22zM271 753l-112 132h114l89 -102h-34l90 102h113l-112 -132h-148z" />
    <glyph glyph-name="Ccedilla" unicode="&#xc7;" horiz-adv-x="678" 
d="M343 -10q-62 0 -116.5 18.5t-95 57t-63.5 97t-23 138.5v84q0 78 23.5 136t64.5 97t94.5 58.5t113.5 19.5h22q57 0 107.5 -16.5t88.5 -51t59.5 -88t21.5 -127.5h-157q0 61 -15.5 95t-45.5 48t-71 14q-29 0 -52.5 -8.5t-40.5 -26.5t-26.5 -46.5t-9.5 -68.5v-154
q0 -52 16 -85.5t45 -49t68 -15.5q46 0 76.5 14t46.5 47.5t16 94.5h150q0 -69 -21 -122t-59 -88.5t-88 -53.5t-107 -18h-22zM337 -210q-29 0 -58 7.5t-50 21.5l23 56q14 -10 32.5 -18t47.5 -8q20 0 33.5 8.5t13.5 26.5q0 16 -11 23t-27 7h-21v56h31q28 0 53 -8t41 -27t16 -52
q0 -34 -19.5 -54.5t-48 -29.5t-56.5 -9z" />
    <glyph glyph-name="Ccircumflex" unicode="&#x108;" horiz-adv-x="678" 
d="M343 -10q-62 0 -116.5 18.5t-95 57t-63.5 97t-23 138.5v84q0 78 23.5 136t64.5 97t94.5 58.5t113.5 19.5h22q57 0 107.5 -16.5t88.5 -51t59.5 -88t21.5 -127.5h-157q0 61 -15.5 95t-45.5 48t-71 14q-29 0 -52.5 -8.5t-40.5 -26.5t-26.5 -46.5t-9.5 -68.5v-154
q0 -52 16 -85.5t45 -49t68 -15.5q46 0 76.5 14t46.5 47.5t16 94.5h150q0 -69 -21 -122t-59 -88.5t-88 -53.5t-107 -18h-22zM158 753l113 132h149l112 -132h-114l-89 102h33l-90 -102h-114z" />
    <glyph glyph-name="Cdotaccent" unicode="&#x10a;" horiz-adv-x="678" 
d="M343 -10q-62 0 -116.5 18.5t-95 57t-63.5 97t-23 138.5v84q0 78 23.5 136t64.5 97t94.5 58.5t113.5 19.5h22q57 0 107.5 -16.5t88.5 -51t59.5 -88t21.5 -127.5h-157q0 61 -15.5 95t-45.5 48t-71 14q-29 0 -52.5 -8.5t-40.5 -26.5t-26.5 -46.5t-9.5 -68.5v-154
q0 -52 16 -85.5t45 -49t68 -15.5q46 0 76.5 14t46.5 47.5t16 94.5h150q0 -69 -21 -122t-59 -88.5t-88 -53.5t-107 -18h-22zM283 755v122h124v-122h-124z" />
    <glyph glyph-name="D" unicode="D" horiz-adv-x="691" 
d="M71 0v686h284q61 0 113.5 -19.5t93 -57t63 -93t22.5 -127.5v-75q0 -72 -22.5 -129.5t-63 -99t-93 -63.5t-113.5 -22h-284zM239 128h102q36 0 65.5 17t46.5 50.5t17 83.5v139q0 50 -17 81t-46.5 46t-65.5 15h-102v-432z" />
    <glyph glyph-name="uni01C4" unicode="&#x1c4;" horiz-adv-x="1294" 
d="M71 0v686h284q61 0 113.5 -19.5t93 -57t63 -93t22.5 -127.5v-75q0 -72 -22.5 -129.5t-63 -99t-93 -63.5t-113.5 -22h-284zM239 128h102q36 0 65.5 17t46.5 50.5t17 83.5v139q0 50 -17 81t-46.5 46t-65.5 15h-102v-432zM712 0v51l309 507h-285v128h521v-50l-305 -507h313
v-129h-553zM928 753l-112 132h114l89 -102h-34l90 102h113l-112 -132h-148z" />
    <glyph glyph-name="Eth" unicode="&#xd0;" horiz-adv-x="691" 
d="M71 0v686h284q61 0 113.5 -19.5t93 -57t63 -93t22.5 -127.5v-75q0 -72 -22.5 -129.5t-63 -99t-93 -63.5t-113.5 -22h-284zM239 128h102q36 0 65.5 17t46.5 50.5t17 83.5v139q0 50 -17 81t-46.5 46t-65.5 15h-102v-432zM5 297v103h379v-103h-379z" />
    <glyph glyph-name="Dcaron" unicode="&#x10e;" horiz-adv-x="691" 
d="M71 0v686h284q61 0 113.5 -19.5t93 -57t63 -93t22.5 -127.5v-75q0 -72 -22.5 -129.5t-63 -99t-93 -63.5t-113.5 -22h-284zM239 128h102q36 0 65.5 17t46.5 50.5t17 83.5v139q0 50 -17 81t-46.5 46t-65.5 15h-102v-432zM249 753l-112 132h114l89 -102h-34l90 102h113
l-112 -132h-148z" />
    <glyph glyph-name="Dcroat" unicode="&#x110;" horiz-adv-x="691" 
d="M71 0v686h284q61 0 113.5 -19.5t93 -57t63 -93t22.5 -127.5v-75q0 -72 -22.5 -129.5t-63 -99t-93 -63.5t-113.5 -22h-284zM239 128h102q36 0 65.5 17t46.5 50.5t17 83.5v139q0 50 -17 81t-46.5 46t-65.5 15h-102v-432zM5 297v103h379v-103h-379z" />
    <glyph glyph-name="uni01C5" unicode="&#x1c5;" horiz-adv-x="1180" 
d="M71 0v686h284q61 0 113.5 -19.5t93 -57t63 -93t22.5 -127.5v-75q0 -72 -22.5 -129.5t-63 -99t-93 -63.5t-113.5 -22h-284zM239 128h102q36 0 65.5 17t46.5 50.5t17 83.5v139q0 50 -17 81t-46.5 46t-65.5 15h-102v-432zM721 0v52l213 357h-200v102h406v-50l-214 -358h222
v-103h-427zM1140 762l-132 -179h-124l-132 179h116l114 -158h-71l114 158h115z" />
    <glyph glyph-name="E" unicode="E" horiz-adv-x="598" 
d="M71 0v686h490l-17 -128h-308v-146h288v-124h-288v-160h310l18 -128h-493z" />
    <glyph glyph-name="Eacute" unicode="&#xc9;" horiz-adv-x="598" 
d="M71 0v686h490l-17 -128h-308v-146h288v-124h-288v-160h310l18 -128h-493zM264 749l95 140h140l1 -3l-121 -137h-115z" />
    <glyph glyph-name="Ebreve" unicode="&#x114;" horiz-adv-x="598" 
d="M71 0v686h490l-17 -128h-308v-146h288v-124h-288v-160h310l18 -128h-493zM313 748q-85 0 -125.5 38.5t-42.5 98.5h88q5 -28 25.5 -42t58.5 -14q39 0 60 14t27 42h87q-2 -60 -48.5 -98.5t-129.5 -38.5z" />
    <glyph glyph-name="Ecaron" unicode="&#x11a;" horiz-adv-x="598" 
d="M71 0v686h490l-17 -128h-308v-146h288v-124h-288v-160h310l18 -128h-493zM244 753l-112 132h114l89 -102h-34l90 102h113l-112 -132h-148z" />
    <glyph glyph-name="Ecircumflex" unicode="&#xca;" horiz-adv-x="598" 
d="M71 0v686h490l-17 -128h-308v-146h288v-124h-288v-160h310l18 -128h-493zM131 753l113 132h149l112 -132h-114l-89 102h33l-90 -102h-114z" />
    <glyph glyph-name="uni1EBE" unicode="&#x1ebe;" horiz-adv-x="598" 
d="M71 0v686h490l-17 -128h-308v-146h288v-124h-288v-160h310l18 -128h-493zM124 758l137 132h114l138 -132h-108l-87 63l-88 -63h-106zM267 933l83 131h127l1 -3l-112 -128h-99z" />
    <glyph glyph-name="uni1EC6" unicode="&#x1ec6;" horiz-adv-x="598" 
d="M71 0v686h490l-17 -128h-308v-146h288v-124h-288v-160h310l18 -128h-493zM131 753l113 132h149l112 -132h-114l-89 102h33l-90 -102h-114zM271 -183v122h124v-122h-124z" />
    <glyph glyph-name="uni1EC0" unicode="&#x1ec0;" horiz-adv-x="598" 
d="M71 0v686h490l-17 -128h-308v-146h288v-124h-288v-160h310l18 -128h-493zM124 758l138 132h114l137 -132h-107l-88 63l-87 -63h-107zM270 933l-112 128l2 3h127l83 -131h-100z" />
    <glyph glyph-name="uni1EC2" unicode="&#x1ec2;" horiz-adv-x="598" 
d="M71 0v686h490l-17 -128h-308v-146h288v-124h-288v-160h310l18 -128h-493zM124 758l137 132h114l138 -132h-108l-87 63l-88 -63h-106zM300 928v57q24 2 37 13t13 29q0 16 -11 24.5t-30 8.5q-11 0 -25.5 -2.5t-30.5 -8.5v74q16 5 31 6.5t30 1.5q46 0 76.5 -24t30.5 -69
q0 -31 -17.5 -55.5t-45.5 -38.5t-58 -16z" />
    <glyph glyph-name="uni1EC4" unicode="&#x1ec4;" horiz-adv-x="598" 
d="M71 0v686h490l-17 -128h-308v-146h288v-124h-288v-160h310l18 -128h-493zM124 758l137 132h114l138 -132h-108l-87 63l-88 -63h-106zM129 929q0 35 14 64t41 46.5t63 17.5q33 0 56 -9t44 -18t46 -9q19 0 32.5 9.5t17.5 26.5h65q0 -35 -14 -64t-40.5 -46.5t-63.5 -17.5
q-32 0 -55 8.5t-43.5 17.5t-47.5 10q-19 0 -32 -10t-18 -26h-65z" />
    <glyph glyph-name="uni0204" unicode="&#x204;" horiz-adv-x="598" 
d="M71 0v686h490l-17 -128h-308v-146h288v-124h-288v-160h310l18 -128h-493zM370 752l-122 142l5 3h126l93 -145h-102zM174 752l-122 142l2 3h129l93 -145h-102z" />
    <glyph glyph-name="Edieresis" unicode="&#xcb;" horiz-adv-x="598" 
d="M71 0v686h490l-17 -128h-308v-146h288v-124h-288v-160h310l18 -128h-493zM136 757v122h124v-122h-124zM376 757v122h124v-122h-124z" />
    <glyph glyph-name="Edotaccent" unicode="&#x116;" horiz-adv-x="598" 
d="M71 0v686h490l-17 -128h-308v-146h288v-124h-288v-160h310l18 -128h-493zM256 755v122h124v-122h-124z" />
    <glyph glyph-name="uni1EB8" unicode="&#x1eb8;" horiz-adv-x="598" 
d="M71 0v686h490l-17 -128h-308v-146h288v-124h-288v-160h310l18 -128h-493zM271 -183v122h124v-122h-124z" />
    <glyph glyph-name="Egrave" unicode="&#xc8;" horiz-adv-x="598" 
d="M71 0v686h490l-17 -128h-308v-146h288v-124h-288v-160h310l18 -128h-493zM266 749l-121 137l1 3h140l95 -140h-115z" />
    <glyph glyph-name="uni1EBA" unicode="&#x1eba;" horiz-adv-x="598" 
d="M71 0v686h490l-17 -128h-308v-146h288v-124h-288v-160h310l18 -128h-493zM292 729v70q30 3 46 16t16 35q0 19 -13.5 29.5t-36.5 10.5q-14 0 -31 -3t-38 -10v92q20 5 38.5 7.5t36.5 2.5q56 0 94 -30t38 -85q0 -38 -22 -67.5t-56 -47.5t-72 -20z" />
    <glyph glyph-name="uni0206" unicode="&#x206;" horiz-adv-x="598" 
d="M71 0v686h490l-17 -128h-308v-146h288v-124h-288v-160h310l18 -128h-493zM130 756q0 39 23.5 70t66.5 48.5t102 17.5q62 0 102.5 -17.5t60.5 -48.5t20 -70h-87q-6 28 -30 42t-70 14q-45 0 -69.5 -14t-31.5 -42h-87z" />
    <glyph glyph-name="Emacron" unicode="&#x112;" horiz-adv-x="598" 
d="M71 0v686h490l-17 -128h-308v-146h288v-124h-288v-160h310l18 -128h-493zM151 775v83h334v-83h-334z" />
    <glyph glyph-name="Eogonek" unicode="&#x118;" horiz-adv-x="598" 
d="M71 0v686h490l-17 -128h-308v-146h288v-124h-288v-160h310l18 -128h-493zM512 -146q-25 0 -48.5 7.5t-38.5 24t-15 43.5q0 24 13.5 42.5t30.5 28.5h92q-19 -11 -32 -24t-13 -30q0 -19 12 -26.5t28 -7.5q15 0 31 4t30 9l14 -44q-23 -13 -49.5 -20t-54.5 -7z" />
    <glyph glyph-name="uni1EBC" unicode="&#x1ebc;" horiz-adv-x="598" 
d="M71 0v686h490l-17 -128h-308v-146h288v-124h-288v-160h310l18 -128h-493zM123 750q3 39 16.5 70t39 50t61.5 19t63 -10.5t49 -21.5t44 -11q21 0 32.5 11.5t15.5 30.5h69q-2 -37 -16 -68.5t-39 -50.5t-62 -19q-36 0 -63 10.5t-49.5 21.5t-44.5 11q-19 0 -30 -11t-17 -32
h-69z" />
    <glyph glyph-name="uni018F" unicode="&#x18f;" horiz-adv-x="709" 
d="M336 -10q-59 0 -111 19t-90.5 56t-60 92.5t-21.5 128.5v71h178v-112q0 -39 9.5 -65t27 -42t41 -23t50.5 -7q29 0 52 7.5t40.5 23.5t26.5 42.5t9 65.5v173q0 40 -8.5 68t-24 46.5t-39.5 27t-54 8.5q-36 0 -66 -12t-48.5 -37t-18.5 -65v-12h-170v20q0 54 24 96.5t64 72.5
t90 46t101 16h44q61 0 112.5 -21t90 -61t59.5 -98t21 -131v-83q0 -73 -22 -130.5t-61 -97.5t-91 -61.5t-112 -21.5h-42zM96 239v118h533v-118h-533z" />
    <glyph glyph-name="F" unicode="F" horiz-adv-x="559" 
d="M71 0v686h471l-17 -128h-289v-157h262v-125h-262v-276h-165z" />
    <glyph glyph-name="uni0191" unicode="&#x191;" horiz-adv-x="558" 
d="M68 -186q-16 0 -38 2.5t-43 7t-35 10.5v94q12 -5 31.5 -9.5t30.5 -4.5q21 0 39 12.5t18 56.5v703h471l-17 -128h-290v-157h262v-125h-262v-315q0 -75 -47.5 -111t-119.5 -36z" />
    <glyph glyph-name="G" unicode="G" horiz-adv-x="693" 
d="M323 -10q-60 0 -111 21t-88.5 61t-58 98t-20.5 131v84q0 74 22 131.5t62.5 97.5t96 61t120.5 21h22q56 0 105 -17t86 -49.5t58 -79.5t21 -108h-155q0 46 -16.5 74t-46 41t-68.5 13q-29 0 -52.5 -8.5t-41 -27t-27 -47t-9.5 -67.5v-154q0 -39 9.5 -67t27 -46.5t41 -27.5
t52.5 -9t53.5 6.5t42 21t27 38t9.5 58.5v24h-148v111h302v-238q0 -48 2 -78.5t5 -58.5h-91l-25 79q-31 -41 -85.5 -65t-112.5 -24h-8z" />
    <glyph glyph-name="Gbreve" unicode="&#x11e;" horiz-adv-x="693" 
d="M323 -10q-60 0 -111 21t-88.5 61t-58 98t-20.5 131v84q0 74 22 131.5t62.5 97.5t96 61t120.5 21h22q56 0 105 -17t86 -49.5t58 -79.5t21 -108h-155q0 46 -16.5 74t-46 41t-68.5 13q-29 0 -52.5 -8.5t-41 -27t-27 -47t-9.5 -67.5v-154q0 -39 9.5 -67t27 -46.5t41 -27.5
t52.5 -9t53.5 6.5t42 21t27 38t9.5 58.5v24h-148v111h302v-238q0 -48 2 -78.5t5 -58.5h-91l-25 79q-31 -41 -85.5 -65t-112.5 -24h-8zM348 748q-85 0 -125.5 38.5t-42.5 98.5h88q5 -28 25.5 -42t58.5 -14q39 0 60 14t27 42h87q-2 -60 -48.5 -98.5t-129.5 -38.5z" />
    <glyph glyph-name="Gcaron" unicode="&#x1e6;" horiz-adv-x="693" 
d="M323 -10q-60 0 -111 21t-88.5 61t-58 98t-20.5 131v84q0 74 22 131.5t62.5 97.5t96 61t120.5 21h22q56 0 105 -17t86 -49.5t58 -79.5t21 -108h-155q0 46 -16.5 74t-46 41t-68.5 13q-29 0 -52.5 -8.5t-41 -27t-27 -47t-9.5 -67.5v-154q0 -39 9.5 -67t27 -46.5t41 -27.5
t52.5 -9t53.5 6.5t42 21t27 38t9.5 58.5v24h-148v111h302v-238q0 -48 2 -78.5t5 -58.5h-91l-25 79q-31 -41 -85.5 -65t-112.5 -24h-8zM279 753l-112 132h114l89 -102h-34l90 102h113l-112 -132h-148z" />
    <glyph glyph-name="Gcircumflex" unicode="&#x11c;" horiz-adv-x="693" 
d="M323 -10q-60 0 -111 21t-88.5 61t-58 98t-20.5 131v84q0 74 22 131.5t62.5 97.5t96 61t120.5 21h22q56 0 105 -17t86 -49.5t58 -79.5t21 -108h-155q0 46 -16.5 74t-46 41t-68.5 13q-29 0 -52.5 -8.5t-41 -27t-27 -47t-9.5 -67.5v-154q0 -39 9.5 -67t27 -46.5t41 -27.5
t52.5 -9t53.5 6.5t42 21t27 38t9.5 58.5v24h-148v111h302v-238q0 -48 2 -78.5t5 -58.5h-91l-25 79q-31 -41 -85.5 -65t-112.5 -24h-8zM166 753l113 132h149l112 -132h-114l-89 102h33l-90 -102h-114z" />
    <glyph glyph-name="uni0122" unicode="&#x122;" horiz-adv-x="693" 
d="M323 -10q-60 0 -111 21t-88.5 61t-58 98t-20.5 131v84q0 74 22 131.5t62.5 97.5t96 61t120.5 21h22q56 0 105 -17t86 -49.5t58 -79.5t21 -108h-155q0 46 -16.5 74t-46 41t-68.5 13q-29 0 -52.5 -8.5t-41 -27t-27 -47t-9.5 -67.5v-154q0 -39 9.5 -67t27 -46.5t41 -27.5
t52.5 -9t53.5 6.5t42 21t27 38t9.5 58.5v24h-148v111h302v-238q0 -48 2 -78.5t5 -58.5h-91l-25 79q-31 -41 -85.5 -65t-112.5 -24h-8zM281 -375v16q31 32 46 67.5t15 72.5h-61v146h134v-124q0 -50 -16 -96.5t-48 -81.5h-70z" />
    <glyph glyph-name="Gdotaccent" unicode="&#x120;" horiz-adv-x="693" 
d="M323 -10q-60 0 -111 21t-88.5 61t-58 98t-20.5 131v84q0 74 22 131.5t62.5 97.5t96 61t120.5 21h22q56 0 105 -17t86 -49.5t58 -79.5t21 -108h-155q0 46 -16.5 74t-46 41t-68.5 13q-29 0 -52.5 -8.5t-41 -27t-27 -47t-9.5 -67.5v-154q0 -39 9.5 -67t27 -46.5t41 -27.5
t52.5 -9t53.5 6.5t42 21t27 38t9.5 58.5v24h-148v111h302v-238q0 -48 2 -78.5t5 -58.5h-91l-25 79q-31 -41 -85.5 -65t-112.5 -24h-8zM291 755v122h124v-122h-124z" />
    <glyph glyph-name="uni01E4" unicode="&#x1e4;" horiz-adv-x="693" 
d="M323 -10q-60 0 -111 21t-88.5 61t-58 98t-20.5 131v84q0 74 22 131.5t62.5 97.5t96 61t120.5 21h22q56 0 105 -17t86 -49.5t58 -79.5t21 -108h-155q0 46 -16.5 74t-46 41t-68.5 13q-29 0 -52.5 -8.5t-41 -27t-27 -47t-9.5 -67.5v-164q0 -39 9.5 -67t27 -46.5t41 -27.5
t52.5 -9t53.5 6.5t42 21t27 38t9.5 58.5v49h-148v96h302v-238q0 -48 2 -78.5t5 -58.5h-91l-25 79q-31 -41 -85.5 -65t-112.5 -24h-8zM369 167v68h319v-68h-319z" />
    <glyph glyph-name="H" unicode="H" horiz-adv-x="696" 
d="M71 0v686h168v-269h219v269h167v-686h-166v284h-219v-284h-169z" />
    <glyph glyph-name="Hbar" unicode="&#x126;" horiz-adv-x="696" 
d="M71 0v686h168v-269h219v269h167v-686h-166v284h-219v-284h-169zM16 493v103h667v-103h-667z" />
    <glyph glyph-name="Hcircumflex" unicode="&#x124;" horiz-adv-x="696" 
d="M71 0v686h168v-269h219v269h167v-686h-166v284h-219v-284h-169zM160 753l113 132h149l112 -132h-114l-89 102h33l-90 -102h-114z" />
    <glyph glyph-name="uni1E24" unicode="&#x1e24;" horiz-adv-x="696" 
d="M71 0v686h168v-269h219v269h167v-686h-166v284h-219v-284h-169zM287 -183v122h124v-122h-124z" />
    <glyph glyph-name="I" unicode="I" horiz-adv-x="423" 
d="M47 0v122h81v442h-81v122h329v-122h-80v-442h80v-122h-329z" />
    <glyph glyph-name="IJ" unicode="&#x132;" horiz-adv-x="963" 
d="M47 0v122h81v442h-81v122h329v-122h-80v-442h80v-122h-329zM654 -10q-63 0 -110.5 22t-74 64t-26.5 102v57h154v-48q0 -35 19 -53t48 -18q19 0 34.5 8t24.5 24t9 39v499h165v-497q0 -61 -28.5 -105.5t-78 -69t-113.5 -24.5h-23z" />
    <glyph glyph-name="Iacute" unicode="&#xcd;" horiz-adv-x="423" 
d="M47 0v122h81v442h-81v122h329v-122h-80v-442h80v-122h-329zM157 749l95 140h140l1 -3l-121 -137h-115z" />
    <glyph glyph-name="Ibreve" unicode="&#x12c;" horiz-adv-x="423" 
d="M47 0v122h81v442h-81v122h329v-122h-80v-442h80v-122h-329zM206 748q-85 0 -125.5 38.5t-42.5 98.5h88q5 -28 25.5 -42t58.5 -14q39 0 60 14t27 42h87q-2 -60 -48.5 -98.5t-129.5 -38.5z" />
    <glyph glyph-name="uni01CF" unicode="&#x1cf;" horiz-adv-x="423" 
d="M47 0v122h81v442h-81v122h329v-122h-80v-442h80v-122h-329zM137 753l-112 132h114l89 -102h-34l90 102h113l-112 -132h-148z" />
    <glyph glyph-name="Icircumflex" unicode="&#xce;" horiz-adv-x="423" 
d="M47 0v122h81v442h-81v122h329v-122h-80v-442h80v-122h-329zM24 753l113 132h149l112 -132h-114l-89 102h33l-90 -102h-114z" />
    <glyph glyph-name="uni0208" unicode="&#x208;" horiz-adv-x="423" 
d="M47 0v122h81v442h-81v122h329v-122h-80v-442h80v-122h-329zM263 752l-122 142l5 3h126l93 -145h-102zM67 752l-122 142l2 3h129l93 -145h-102z" />
    <glyph glyph-name="Idieresis" unicode="&#xcf;" horiz-adv-x="423" 
d="M47 0v122h81v442h-81v122h329v-122h-80v-442h80v-122h-329zM29 757v122h124v-122h-124zM269 757v122h124v-122h-124z" />
    <glyph glyph-name="Idotaccent" unicode="&#x130;" horiz-adv-x="423" 
d="M47 0v122h81v442h-81v122h329v-122h-80v-442h80v-122h-329zM149 755v122h124v-122h-124z" />
    <glyph glyph-name="uni1ECA" unicode="&#x1eca;" horiz-adv-x="423" 
d="M47 0v122h81v442h-81v122h329v-122h-80v-442h80v-122h-329zM153 -183v122h124v-122h-124z" />
    <glyph glyph-name="Igrave" unicode="&#xcc;" horiz-adv-x="423" 
d="M47 0v122h81v442h-81v122h329v-122h-80v-442h80v-122h-329zM159 749l-121 137l1 3h140l95 -140h-115z" />
    <glyph glyph-name="uni1EC8" unicode="&#x1ec8;" horiz-adv-x="423" 
d="M47 0v122h81v442h-81v122h329v-122h-80v-442h80v-122h-329zM185 729v70q30 3 46 16t16 35q0 19 -13.5 29.5t-36.5 10.5q-14 0 -31 -3t-38 -10v92q20 5 38.5 7.5t36.5 2.5q56 0 94 -30t38 -85q0 -38 -22 -67.5t-56 -47.5t-72 -20z" />
    <glyph glyph-name="uni020A" unicode="&#x20a;" horiz-adv-x="423" 
d="M47 0v122h81v442h-81v122h329v-122h-80v-442h80v-122h-329zM23 756q0 39 23.5 70t66.5 48.5t102 17.5q62 0 102.5 -17.5t60.5 -48.5t20 -70h-87q-6 28 -30 42t-70 14q-45 0 -69.5 -14t-31.5 -42h-87z" />
    <glyph glyph-name="Imacron" unicode="&#x12a;" horiz-adv-x="423" 
d="M47 0v122h81v442h-81v122h329v-122h-80v-442h80v-122h-329zM44 775v83h334v-83h-334z" />
    <glyph glyph-name="Iogonek" unicode="&#x12e;" horiz-adv-x="423" 
d="M47 0v122h81v442h-81v122h329v-122h-80v-442h80v-122h-329zM339 -146q-25 0 -48.5 7.5t-38.5 24t-15 43.5q0 24 13.5 42.5t30.5 28.5h92q-19 -11 -32 -24t-13 -30q0 -19 12 -26.5t28 -7.5q15 0 31 4t30 9l14 -44q-23 -13 -49.5 -20t-54.5 -7z" />
    <glyph glyph-name="uni0197" unicode="&#x197;" horiz-adv-x="423" 
d="M55 403h313v-117h-313v117zM47 0v122h81v442h-81v122h329v-122h-80v-442h80v-122h-329z" />
    <glyph glyph-name="Itilde" unicode="&#x128;" horiz-adv-x="423" 
d="M47 0v122h81v442h-81v122h329v-122h-80v-442h80v-122h-329zM16 750q3 39 16.5 70t39 50t61.5 19t63 -10.5t49 -21.5t44 -11q21 0 32.5 11.5t15.5 30.5h69q-2 -37 -16 -68.5t-39 -50.5t-62 -19q-36 0 -63 10.5t-49.5 21.5t-44.5 11q-19 0 -30 -11t-17 -32h-69z" />
    <glyph glyph-name="J" unicode="J" horiz-adv-x="540" 
d="M231 -10q-63 0 -110.5 22t-74 64t-26.5 102v57h154v-48q0 -35 19 -53t48 -18q19 0 34.5 8t24.5 24t9 39v499h165v-497q0 -61 -28.5 -105.5t-78 -69t-113.5 -24.5h-23z" />
    <glyph glyph-name="Jcircumflex" unicode="&#x134;" horiz-adv-x="540" 
d="M231 -10q-63 0 -110.5 22t-74 64t-26.5 102v57h154v-48q0 -35 19 -53t48 -18q19 0 34.5 8t24.5 24t9 39v499h165v-497q0 -61 -28.5 -105.5t-78 -69t-113.5 -24.5h-23zM200 753l113 132h149l112 -132h-114l-89 102h33l-90 -102h-114z" />
    <glyph glyph-name="K" unicode="K" horiz-adv-x="668" 
d="M71 0v686h168v-309l241 309h179l-223 -281l232 -405h-188l-154 276l-87 -103v-173h-168z" />
    <glyph glyph-name="uni0136" unicode="&#x136;" horiz-adv-x="668" 
d="M71 0v686h168v-309l241 309h179l-223 -281l232 -405h-188l-154 276l-87 -103v-173h-168zM282 -375v16q31 32 46 67.5t15 72.5h-61v146h134v-124q0 -50 -16 -96.5t-48 -81.5h-70z" />
    <glyph glyph-name="L" unicode="L" horiz-adv-x="542" 
d="M71 0v686h168v-554h275l17 -132h-460z" />
    <glyph glyph-name="uni01C7" unicode="&#x1c7;" horiz-adv-x="1081" 
d="M71 0v686h168v-554h275l17 -132h-460zM773 -10q-63 0 -110.5 22t-74 64t-26.5 102v57h154v-48q0 -35 19 -53t48 -18q19 0 34.5 8t24.5 24t9 39v499h165v-497q0 -61 -28.5 -105.5t-78 -69t-113.5 -24.5h-23z" />
    <glyph glyph-name="Lacute" unicode="&#x139;" horiz-adv-x="542" 
d="M71 0v686h168v-554h275l17 -132h-460zM100 749l95 140h140l1 -3l-121 -137h-115z" />
    <glyph glyph-name="Lcaron" unicode="&#x13d;" horiz-adv-x="542" 
d="M71 0v686h168v-554h275l17 -132h-460zM390 408v16q28 29 42.5 61t14.5 66h-58v135h128v-114q0 -47 -16 -88.5t-46 -75.5h-65z" />
    <glyph glyph-name="uni013B" unicode="&#x13b;" horiz-adv-x="542" 
d="M71 0v686h168v-554h275l17 -132h-460zM245 -375v16q31 32 46 67.5t15 72.5h-61v146h134v-124q0 -50 -16 -96.5t-48 -81.5h-70z" />
    <glyph glyph-name="Ldot" unicode="&#x13f;" horiz-adv-x="542" 
d="M71 0v686h168v-554h275l17 -132h-460zM334 327v151h156v-151h-156z" />
    <glyph glyph-name="uni01C8" unicode="&#x1c8;" horiz-adv-x="830" 
d="M71 0v686h168v-554h275l17 -132h-460zM605 -186q-16 0 -38 2.5t-43 7t-35 10.5v94q12 -5 31.5 -9.5t30.5 -4.5q21 0 39 12.5t18 56.5v528h157v-550q0 -75 -44 -111t-116 -36zM607 602v118h160v-118h-160z" />
    <glyph glyph-name="Lslash" unicode="&#x141;" horiz-adv-x="542" 
d="M71 0v686h168v-554h275l17 -132h-460zM5 265v88l345 172v-88z" />
    <glyph glyph-name="M" unicode="M" horiz-adv-x="982" 
d="M71 0v686h272l146 -435h4l145 435h273v-686h-166v492h-5l-163 -492h-188l-162 492h-5v-492h-151z" />
    <glyph glyph-name="N" unicode="N" horiz-adv-x="695" 
d="M71 0v686h140l222 -328l35 -61l4 2v387h153v-686h-144l-229 339l-24 45l-4 -1v-383h-153z" />
    <glyph glyph-name="uni01CA" unicode="&#x1ca;" horiz-adv-x="1235" 
d="M71 0v686h140l222 -328l35 -61l4 2v387h153v-686h-144l-229 339l-24 45l-4 -1v-383h-153zM926 -10q-63 0 -110.5 22t-74 64t-26.5 102v57h154v-48q0 -35 19 -53t48 -18q19 0 34.5 8t24.5 24t9 39v499h165v-497q0 -61 -28.5 -105.5t-78 -69t-113.5 -24.5h-23z" />
    <glyph glyph-name="Nacute" unicode="&#x143;" horiz-adv-x="695" 
d="M71 0v686h140l222 -328l35 -61l4 2v387h153v-686h-144l-229 339l-24 45l-4 -1v-383h-153zM297 749l95 140h140l1 -3l-121 -137h-115z" />
    <glyph glyph-name="Ncaron" unicode="&#x147;" horiz-adv-x="695" 
d="M71 0v686h140l222 -328l35 -61l4 2v387h153v-686h-144l-229 339l-24 45l-4 -1v-383h-153zM277 753l-112 132h114l89 -102h-34l90 102h113l-112 -132h-148z" />
    <glyph glyph-name="uni0145" unicode="&#x145;" horiz-adv-x="695" 
d="M71 0v686h140l222 -328l35 -61l4 2v387h153v-686h-144l-229 339l-24 45l-4 -1v-383h-153zM283 -375v16q31 32 46 67.5t15 72.5h-61v146h134v-124q0 -50 -16 -96.5t-48 -81.5h-70z" />
    <glyph glyph-name="uni019D" unicode="&#x19d;" horiz-adv-x="695" 
d="M68 -186q-16 0 -38 2.5t-43 7t-35 10.5v94q12 -5 31.5 -9.5t30.5 -4.5q21 0 39 12.5t18 56.5v703h139l223 -328l34 -61l5 2v387h152v-686h-143l-229 339l-24 45l-5 -1v-422q0 -75 -41.5 -111t-113.5 -36z" />
    <glyph glyph-name="uni01CB" unicode="&#x1cb;" horiz-adv-x="983" 
d="M71 0v686h140l222 -328l35 -61l4 2v387h153v-686h-144l-229 339l-24 45l-4 -1v-383h-153zM758 -186q-16 0 -38 2.5t-43 7t-35 10.5v94q12 -5 31.5 -9.5t30.5 -4.5q21 0 39 12.5t18 56.5v528h157v-550q0 -75 -44 -111t-116 -36zM760 602v118h160v-118h-160z" />
    <glyph glyph-name="Ntilde" unicode="&#xd1;" horiz-adv-x="695" 
d="M71 0v686h140l222 -328l35 -61l4 2v387h153v-686h-144l-229 339l-24 45l-4 -1v-383h-153zM156 750q3 39 16.5 70t39 50t61.5 19t63 -10.5t49 -21.5t44 -11q21 0 32.5 11.5t15.5 30.5h69q-2 -37 -16 -68.5t-39 -50.5t-62 -19q-36 0 -63 10.5t-49.5 21.5t-44.5 11
q-19 0 -30 -11t-17 -32h-69z" />
    <glyph glyph-name="Eng" unicode="&#x14a;" horiz-adv-x="695" 
d="M464 -186q-15 0 -37 2.5t-43.5 7t-35.5 10.5v94q12 -5 31.5 -9.5t30.5 -4.5q21 0 39 12.5t18 56.5v38l-215 318l-24 45l-4 -1v-383h-153v686h140l222 -328l35 -61l4 2v387h153v-725q0 -75 -44.5 -111t-116.5 -36z" />
    <glyph glyph-name="O" unicode="O" horiz-adv-x="710" 
d="M335 -10q-60 0 -112.5 21t-92.5 61t-62.5 98t-22.5 131v83q0 73 22.5 131t62.5 98t92.5 61t112.5 21h41q60 0 112.5 -21t92.5 -61t62.5 -98t22.5 -131v-83q0 -73 -22.5 -131t-62.5 -98t-92.5 -61t-112.5 -21h-41zM355 116q29 0 53 9t42.5 27.5t28.5 46.5t10 67v153
q0 39 -10 67t-28.5 46.5t-42.5 27.5t-52 9t-52.5 -9t-43 -27.5t-28.5 -46.5t-10 -67v-153q0 -39 10 -67t28.5 -46.5t42.5 -27.5t52 -9z" />
    <glyph glyph-name="Oacute" unicode="&#xd3;" horiz-adv-x="710" 
d="M335 -10q-60 0 -112.5 21t-92.5 61t-62.5 98t-22.5 131v83q0 73 22.5 131t62.5 98t92.5 61t112.5 21h41q60 0 112.5 -21t92.5 -61t62.5 -98t22.5 -131v-83q0 -73 -22.5 -131t-62.5 -98t-92.5 -61t-112.5 -21h-41zM355 116q29 0 53 9t42.5 27.5t28.5 46.5t10 67v153
q0 39 -10 67t-28.5 46.5t-42.5 27.5t-52 9t-52.5 -9t-43 -27.5t-28.5 -46.5t-10 -67v-153q0 -39 10 -67t28.5 -46.5t42.5 -27.5t52 -9zM301 749l95 140h140l1 -3l-121 -137h-115z" />
    <glyph glyph-name="Obreve" unicode="&#x14e;" horiz-adv-x="710" 
d="M335 -10q-60 0 -112.5 21t-92.5 61t-62.5 98t-22.5 131v83q0 73 22.5 131t62.5 98t92.5 61t112.5 21h41q60 0 112.5 -21t92.5 -61t62.5 -98t22.5 -131v-83q0 -73 -22.5 -131t-62.5 -98t-92.5 -61t-112.5 -21h-41zM355 116q29 0 53 9t42.5 27.5t28.5 46.5t10 67v153
q0 39 -10 67t-28.5 46.5t-42.5 27.5t-52 9t-52.5 -9t-43 -27.5t-28.5 -46.5t-10 -67v-153q0 -39 10 -67t28.5 -46.5t42.5 -27.5t52 -9zM350 748q-85 0 -125.5 38.5t-42.5 98.5h88q5 -28 25.5 -42t58.5 -14q39 0 60 14t27 42h87q-2 -60 -48.5 -98.5t-129.5 -38.5z" />
    <glyph glyph-name="uni01D1" unicode="&#x1d1;" horiz-adv-x="710" 
d="M335 -10q-60 0 -112.5 21t-92.5 61t-62.5 98t-22.5 131v83q0 73 22.5 131t62.5 98t92.5 61t112.5 21h41q60 0 112.5 -21t92.5 -61t62.5 -98t22.5 -131v-83q0 -73 -22.5 -131t-62.5 -98t-92.5 -61t-112.5 -21h-41zM355 116q29 0 53 9t42.5 27.5t28.5 46.5t10 67v153
q0 39 -10 67t-28.5 46.5t-42.5 27.5t-52 9t-52.5 -9t-43 -27.5t-28.5 -46.5t-10 -67v-153q0 -39 10 -67t28.5 -46.5t42.5 -27.5t52 -9zM281 753l-112 132h114l89 -102h-34l90 102h113l-112 -132h-148z" />
    <glyph glyph-name="Ocircumflex" unicode="&#xd4;" horiz-adv-x="710" 
d="M335 -10q-60 0 -112.5 21t-92.5 61t-62.5 98t-22.5 131v83q0 73 22.5 131t62.5 98t92.5 61t112.5 21h41q60 0 112.5 -21t92.5 -61t62.5 -98t22.5 -131v-83q0 -73 -22.5 -131t-62.5 -98t-92.5 -61t-112.5 -21h-41zM355 116q29 0 53 9t42.5 27.5t28.5 46.5t10 67v153
q0 39 -10 67t-28.5 46.5t-42.5 27.5t-52 9t-52.5 -9t-43 -27.5t-28.5 -46.5t-10 -67v-153q0 -39 10 -67t28.5 -46.5t42.5 -27.5t52 -9zM168 753l113 132h149l112 -132h-114l-89 102h33l-90 -102h-114z" />
    <glyph glyph-name="uni1ED0" unicode="&#x1ed0;" horiz-adv-x="710" 
d="M335 -10q-60 0 -112.5 21t-92.5 61t-62.5 98t-22.5 131v83q0 73 22.5 131t62.5 98t92.5 61t112.5 21h41q60 0 112.5 -21t92.5 -61t62.5 -98t22.5 -131v-83q0 -73 -22.5 -131t-62.5 -98t-92.5 -61t-112.5 -21h-41zM355 116q29 0 53 9t42.5 27.5t28.5 46.5t10 67v153
q0 39 -10 67t-28.5 46.5t-42.5 27.5t-52 9t-52.5 -9t-43 -27.5t-28.5 -46.5t-10 -67v-153q0 -39 10 -67t28.5 -46.5t42.5 -27.5t52 -9zM161 758l137 132h114l138 -132h-108l-87 63l-88 -63h-106zM304 933l83 131h127l1 -3l-112 -128h-99z" />
    <glyph glyph-name="uni1ED8" unicode="&#x1ed8;" horiz-adv-x="710" 
d="M335 -10q-60 0 -112.5 21t-92.5 61t-62.5 98t-22.5 131v83q0 73 22.5 131t62.5 98t92.5 61t112.5 21h41q60 0 112.5 -21t92.5 -61t62.5 -98t22.5 -131v-83q0 -73 -22.5 -131t-62.5 -98t-92.5 -61t-112.5 -21h-41zM355 116q29 0 53 9t42.5 27.5t28.5 46.5t10 67v153
q0 39 -10 67t-28.5 46.5t-42.5 27.5t-52 9t-52.5 -9t-43 -27.5t-28.5 -46.5t-10 -67v-153q0 -39 10 -67t28.5 -46.5t42.5 -27.5t52 -9zM168 753l113 132h149l112 -132h-114l-89 102h33l-90 -102h-114zM304 -183v122h124v-122h-124z" />
    <glyph glyph-name="uni1ED2" unicode="&#x1ed2;" horiz-adv-x="710" 
d="M335 -10q-60 0 -112.5 21t-92.5 61t-62.5 98t-22.5 131v83q0 73 22.5 131t62.5 98t92.5 61t112.5 21h41q60 0 112.5 -21t92.5 -61t62.5 -98t22.5 -131v-83q0 -73 -22.5 -131t-62.5 -98t-92.5 -61t-112.5 -21h-41zM355 116q29 0 53 9t42.5 27.5t28.5 46.5t10 67v153
q0 39 -10 67t-28.5 46.5t-42.5 27.5t-52 9t-52.5 -9t-43 -27.5t-28.5 -46.5t-10 -67v-153q0 -39 10 -67t28.5 -46.5t42.5 -27.5t52 -9zM161 758l138 132h114l137 -132h-107l-88 63l-87 -63h-107zM307 933l-112 128l2 3h127l83 -131h-100z" />
    <glyph glyph-name="uni1ED4" unicode="&#x1ed4;" horiz-adv-x="710" 
d="M335 -10q-60 0 -112.5 21t-92.5 61t-62.5 98t-22.5 131v83q0 73 22.5 131t62.5 98t92.5 61t112.5 21h41q60 0 112.5 -21t92.5 -61t62.5 -98t22.5 -131v-83q0 -73 -22.5 -131t-62.5 -98t-92.5 -61t-112.5 -21h-41zM355 116q29 0 53 9t42.5 27.5t28.5 46.5t10 67v153
q0 39 -10 67t-28.5 46.5t-42.5 27.5t-52 9t-52.5 -9t-43 -27.5t-28.5 -46.5t-10 -67v-153q0 -39 10 -67t28.5 -46.5t42.5 -27.5t52 -9zM161 758l137 132h114l138 -132h-108l-87 63l-88 -63h-106zM337 928v57q24 2 37 13t13 29q0 16 -11 24.5t-30 8.5q-11 0 -25.5 -2.5
t-30.5 -8.5v74q16 5 31 6.5t30 1.5q46 0 76.5 -24t30.5 -69q0 -31 -17.5 -55.5t-45.5 -38.5t-58 -16z" />
    <glyph glyph-name="uni1ED6" unicode="&#x1ed6;" horiz-adv-x="710" 
d="M335 -10q-60 0 -112.5 21t-92.5 61t-62.5 98t-22.5 131v83q0 73 22.5 131t62.5 98t92.5 61t112.5 21h41q60 0 112.5 -21t92.5 -61t62.5 -98t22.5 -131v-83q0 -73 -22.5 -131t-62.5 -98t-92.5 -61t-112.5 -21h-41zM355 116q29 0 53 9t42.5 27.5t28.5 46.5t10 67v153
q0 39 -10 67t-28.5 46.5t-42.5 27.5t-52 9t-52.5 -9t-43 -27.5t-28.5 -46.5t-10 -67v-153q0 -39 10 -67t28.5 -46.5t42.5 -27.5t52 -9zM161 758l137 132h114l138 -132h-108l-87 63l-88 -63h-106zM166 929q0 35 14 64t41 46.5t63 17.5q33 0 56 -9t44 -18t46 -9q19 0 32.5 9.5
t17.5 26.5h65q0 -35 -14 -64t-40.5 -46.5t-63.5 -17.5q-32 0 -55 8.5t-43.5 17.5t-47.5 10q-19 0 -32 -10t-18 -26h-65z" />
    <glyph glyph-name="uni020C" unicode="&#x20c;" horiz-adv-x="710" 
d="M335 -10q-60 0 -112.5 21t-92.5 61t-62.5 98t-22.5 131v83q0 73 22.5 131t62.5 98t92.5 61t112.5 21h41q60 0 112.5 -21t92.5 -61t62.5 -98t22.5 -131v-83q0 -73 -22.5 -131t-62.5 -98t-92.5 -61t-112.5 -21h-41zM355 116q29 0 53 9t42.5 27.5t28.5 46.5t10 67v153
q0 39 -10 67t-28.5 46.5t-42.5 27.5t-52 9t-52.5 -9t-43 -27.5t-28.5 -46.5t-10 -67v-153q0 -39 10 -67t28.5 -46.5t42.5 -27.5t52 -9zM407 752l-122 142l5 3h126l93 -145h-102zM211 752l-122 142l2 3h129l93 -145h-102z" />
    <glyph glyph-name="Odieresis" unicode="&#xd6;" horiz-adv-x="710" 
d="M335 -10q-60 0 -112.5 21t-92.5 61t-62.5 98t-22.5 131v83q0 73 22.5 131t62.5 98t92.5 61t112.5 21h41q60 0 112.5 -21t92.5 -61t62.5 -98t22.5 -131v-83q0 -73 -22.5 -131t-62.5 -98t-92.5 -61t-112.5 -21h-41zM355 116q29 0 53 9t42.5 27.5t28.5 46.5t10 67v153
q0 39 -10 67t-28.5 46.5t-42.5 27.5t-52 9t-52.5 -9t-43 -27.5t-28.5 -46.5t-10 -67v-153q0 -39 10 -67t28.5 -46.5t42.5 -27.5t52 -9zM173 757v122h124v-122h-124zM413 757v122h124v-122h-124z" />
    <glyph glyph-name="uni022A" unicode="&#x22a;" horiz-adv-x="710" 
d="M335 -10q-60 0 -112.5 21t-92.5 61t-62.5 98t-22.5 131v83q0 73 22.5 131t62.5 98t92.5 61t112.5 21h41q60 0 112.5 -21t92.5 -61t62.5 -98t22.5 -131v-83q0 -73 -22.5 -131t-62.5 -98t-92.5 -61t-112.5 -21h-41zM355 116q29 0 53 9t42.5 27.5t28.5 46.5t10 67v153
q0 39 -10 67t-28.5 46.5t-42.5 27.5t-52 9t-52.5 -9t-43 -27.5t-28.5 -46.5t-10 -67v-153q0 -39 10 -67t28.5 -46.5t42.5 -27.5t52 -9zM188 933v87h336v-87h-336zM190 765v122h124v-122h-124zM398 765v122h124v-122h-124z" />
    <glyph glyph-name="uni0230" unicode="&#x230;" horiz-adv-x="710" 
d="M335 -10q-60 0 -112.5 21t-92.5 61t-62.5 98t-22.5 131v83q0 73 22.5 131t62.5 98t92.5 61t112.5 21h41q60 0 112.5 -21t92.5 -61t62.5 -98t22.5 -131v-83q0 -73 -22.5 -131t-62.5 -98t-92.5 -61t-112.5 -21h-41zM355 116q29 0 53 9t42.5 27.5t28.5 46.5t10 67v153
q0 39 -10 67t-28.5 46.5t-42.5 27.5t-52 9t-52.5 -9t-43 -27.5t-28.5 -46.5t-10 -67v-153q0 -39 10 -67t28.5 -46.5t42.5 -27.5t52 -9zM191 933v87h330v-87h-330zM294 765v122h124v-122h-124z" />
    <glyph glyph-name="uni1ECC" unicode="&#x1ecc;" horiz-adv-x="710" 
d="M335 -10q-60 0 -112.5 21t-92.5 61t-62.5 98t-22.5 131v83q0 73 22.5 131t62.5 98t92.5 61t112.5 21h41q60 0 112.5 -21t92.5 -61t62.5 -98t22.5 -131v-83q0 -73 -22.5 -131t-62.5 -98t-92.5 -61t-112.5 -21h-41zM355 116q29 0 53 9t42.5 27.5t28.5 46.5t10 67v153
q0 39 -10 67t-28.5 46.5t-42.5 27.5t-52 9t-52.5 -9t-43 -27.5t-28.5 -46.5t-10 -67v-153q0 -39 10 -67t28.5 -46.5t42.5 -27.5t52 -9zM304 -183v122h124v-122h-124z" />
    <glyph glyph-name="Ograve" unicode="&#xd2;" horiz-adv-x="710" 
d="M335 -10q-60 0 -112.5 21t-92.5 61t-62.5 98t-22.5 131v83q0 73 22.5 131t62.5 98t92.5 61t112.5 21h41q60 0 112.5 -21t92.5 -61t62.5 -98t22.5 -131v-83q0 -73 -22.5 -131t-62.5 -98t-92.5 -61t-112.5 -21h-41zM355 116q29 0 53 9t42.5 27.5t28.5 46.5t10 67v153
q0 39 -10 67t-28.5 46.5t-42.5 27.5t-52 9t-52.5 -9t-43 -27.5t-28.5 -46.5t-10 -67v-153q0 -39 10 -67t28.5 -46.5t42.5 -27.5t52 -9zM303 749l-121 137l1 3h140l95 -140h-115z" />
    <glyph glyph-name="uni1ECE" unicode="&#x1ece;" horiz-adv-x="710" 
d="M335 -10q-60 0 -112.5 21t-92.5 61t-62.5 98t-22.5 131v83q0 73 22.5 131t62.5 98t92.5 61t112.5 21h41q60 0 112.5 -21t92.5 -61t62.5 -98t22.5 -131v-83q0 -73 -22.5 -131t-62.5 -98t-92.5 -61t-112.5 -21h-41zM355 116q29 0 53 9t42.5 27.5t28.5 46.5t10 67v153
q0 39 -10 67t-28.5 46.5t-42.5 27.5t-52 9t-52.5 -9t-43 -27.5t-28.5 -46.5t-10 -67v-153q0 -39 10 -67t28.5 -46.5t42.5 -27.5t52 -9zM329 729v70q30 3 46 16t16 35q0 19 -13.5 29.5t-36.5 10.5q-14 0 -31 -3t-38 -10v92q20 5 38.5 7.5t36.5 2.5q56 0 94 -30t38 -85
q0 -38 -22 -67.5t-56 -47.5t-72 -20z" />
    <glyph glyph-name="Ohorn" unicode="&#x1a0;" horiz-adv-x="710" 
d="M335 -10q-60 0 -112.5 21t-92.5 61t-62.5 98t-22.5 131v83q0 73 22.5 131t62.5 98t92.5 61t112.5 21h41q60 0 112.5 -21t92.5 -61t62.5 -98t22.5 -131v-83q0 -73 -22.5 -131t-62.5 -98t-92.5 -61t-112.5 -21h-41zM355 116q29 0 53 9t42.5 27.5t28.5 46.5t10 67v153
q0 39 -10 67t-28.5 46.5t-42.5 27.5t-52 9t-52.5 -9t-43 -27.5t-28.5 -46.5t-10 -67v-153q0 -39 10 -67t28.5 -46.5t42.5 -27.5t52 -9zM513 575v82q46 9 62 44t16 96h134q0 -56 -27 -104t-74.5 -79.5t-110.5 -38.5z" />
    <glyph glyph-name="uni1EDA" unicode="&#x1eda;" horiz-adv-x="710" 
d="M335 -10q-60 0 -112.5 21t-92.5 61t-62.5 98t-22.5 131v83q0 73 22.5 131t62.5 98t92.5 61t112.5 21h41q60 0 112.5 -21t92.5 -61t62.5 -98t22.5 -131v-83q0 -73 -22.5 -131t-62.5 -98t-92.5 -61t-112.5 -21h-41zM355 116q29 0 53 9t42.5 27.5t28.5 46.5t10 67v153
q0 39 -10 67t-28.5 46.5t-42.5 27.5t-52 9t-52.5 -9t-43 -27.5t-28.5 -46.5t-10 -67v-153q0 -39 10 -67t28.5 -46.5t42.5 -27.5t52 -9zM513 575v82q46 9 62 44t16 96h134q0 -56 -27 -104t-74.5 -79.5t-110.5 -38.5zM301 749l95 140h140l1 -3l-121 -137h-115z" />
    <glyph glyph-name="uni1EE2" unicode="&#x1ee2;" horiz-adv-x="710" 
d="M335 -10q-60 0 -112.5 21t-92.5 61t-62.5 98t-22.5 131v83q0 73 22.5 131t62.5 98t92.5 61t112.5 21h41q60 0 112.5 -21t92.5 -61t62.5 -98t22.5 -131v-83q0 -73 -22.5 -131t-62.5 -98t-92.5 -61t-112.5 -21h-41zM355 116q29 0 53 9t42.5 27.5t28.5 46.5t10 67v153
q0 39 -10 67t-28.5 46.5t-42.5 27.5t-52 9t-52.5 -9t-43 -27.5t-28.5 -46.5t-10 -67v-153q0 -39 10 -67t28.5 -46.5t42.5 -27.5t52 -9zM513 575v82q46 9 62 44t16 96h134q0 -56 -27 -104t-74.5 -79.5t-110.5 -38.5zM304 -183v122h124v-122h-124z" />
    <glyph glyph-name="uni1EDC" unicode="&#x1edc;" horiz-adv-x="710" 
d="M335 -10q-60 0 -112.5 21t-92.5 61t-62.5 98t-22.5 131v83q0 73 22.5 131t62.5 98t92.5 61t112.5 21h41q60 0 112.5 -21t92.5 -61t62.5 -98t22.5 -131v-83q0 -73 -22.5 -131t-62.5 -98t-92.5 -61t-112.5 -21h-41zM355 116q29 0 53 9t42.5 27.5t28.5 46.5t10 67v153
q0 39 -10 67t-28.5 46.5t-42.5 27.5t-52 9t-52.5 -9t-43 -27.5t-28.5 -46.5t-10 -67v-153q0 -39 10 -67t28.5 -46.5t42.5 -27.5t52 -9zM513 575v82q46 9 62 44t16 96h134q0 -56 -27 -104t-74.5 -79.5t-110.5 -38.5zM303 749l-121 137l1 3h140l95 -140h-115z" />
    <glyph glyph-name="uni1EDE" unicode="&#x1ede;" horiz-adv-x="710" 
d="M335 -10q-60 0 -112.5 21t-92.5 61t-62.5 98t-22.5 131v83q0 73 22.5 131t62.5 98t92.5 61t112.5 21h41q60 0 112.5 -21t92.5 -61t62.5 -98t22.5 -131v-83q0 -73 -22.5 -131t-62.5 -98t-92.5 -61t-112.5 -21h-41zM355 116q29 0 53 9t42.5 27.5t28.5 46.5t10 67v153
q0 39 -10 67t-28.5 46.5t-42.5 27.5t-52 9t-52.5 -9t-43 -27.5t-28.5 -46.5t-10 -67v-153q0 -39 10 -67t28.5 -46.5t42.5 -27.5t52 -9zM513 575v82q46 9 62 44t16 96h134q0 -56 -27 -104t-74.5 -79.5t-110.5 -38.5zM329 729v70q30 3 46 16t16 35q0 19 -13.5 29.5t-36.5 10.5
q-14 0 -31 -3t-38 -10v92q20 5 38.5 7.5t36.5 2.5q56 0 94 -30t38 -85q0 -38 -22 -67.5t-56 -47.5t-72 -20z" />
    <glyph glyph-name="uni1EE0" unicode="&#x1ee0;" horiz-adv-x="710" 
d="M335 -10q-60 0 -112.5 21t-92.5 61t-62.5 98t-22.5 131v83q0 73 22.5 131t62.5 98t92.5 61t112.5 21h41q60 0 112.5 -21t92.5 -61t62.5 -98t22.5 -131v-83q0 -73 -22.5 -131t-62.5 -98t-92.5 -61t-112.5 -21h-41zM355 116q29 0 53 9t42.5 27.5t28.5 46.5t10 67v153
q0 39 -10 67t-28.5 46.5t-42.5 27.5t-52 9t-52.5 -9t-43 -27.5t-28.5 -46.5t-10 -67v-153q0 -39 10 -67t28.5 -46.5t42.5 -27.5t52 -9zM513 575v82q46 9 62 44t16 96h134q0 -56 -27 -104t-74.5 -79.5t-110.5 -38.5zM160 750q3 39 16.5 70t39 50t61.5 19t63 -10.5t49 -21.5
t44 -11q21 0 32.5 11.5t15.5 30.5h69q-2 -37 -16 -68.5t-39 -50.5t-62 -19q-36 0 -63 10.5t-49.5 21.5t-44.5 11q-19 0 -30 -11t-17 -32h-69z" />
    <glyph glyph-name="Ohungarumlaut" unicode="&#x150;" horiz-adv-x="710" 
d="M335 -10q-60 0 -112.5 21t-92.5 61t-62.5 98t-22.5 131v83q0 73 22.5 131t62.5 98t92.5 61t112.5 21h41q60 0 112.5 -21t92.5 -61t62.5 -98t22.5 -131v-83q0 -73 -22.5 -131t-62.5 -98t-92.5 -61t-112.5 -21h-41zM355 116q29 0 53 9t42.5 27.5t28.5 46.5t10 67v153
q0 39 -10 67t-28.5 46.5t-42.5 27.5t-52 9t-52.5 -9t-43 -27.5t-28.5 -46.5t-10 -67v-153q0 -39 10 -67t28.5 -46.5t42.5 -27.5t52 -9zM381 749l96 140h129l2 -3l-122 -137h-105zM190 749l96 140h126l5 -3l-123 -137h-104z" />
    <glyph glyph-name="uni020E" unicode="&#x20e;" horiz-adv-x="710" 
d="M335 -10q-60 0 -112.5 21t-92.5 61t-62.5 98t-22.5 131v83q0 73 22.5 131t62.5 98t92.5 61t112.5 21h41q60 0 112.5 -21t92.5 -61t62.5 -98t22.5 -131v-83q0 -73 -22.5 -131t-62.5 -98t-92.5 -61t-112.5 -21h-41zM355 116q29 0 53 9t42.5 27.5t28.5 46.5t10 67v153
q0 39 -10 67t-28.5 46.5t-42.5 27.5t-52 9t-52.5 -9t-43 -27.5t-28.5 -46.5t-10 -67v-153q0 -39 10 -67t28.5 -46.5t42.5 -27.5t52 -9zM167 756q0 39 23.5 70t66.5 48.5t102 17.5q62 0 102.5 -17.5t60.5 -48.5t20 -70h-87q-6 28 -30 42t-70 14q-45 0 -69.5 -14t-31.5 -42
h-87z" />
    <glyph glyph-name="Omacron" unicode="&#x14c;" horiz-adv-x="710" 
d="M335 -10q-60 0 -112.5 21t-92.5 61t-62.5 98t-22.5 131v83q0 73 22.5 131t62.5 98t92.5 61t112.5 21h41q60 0 112.5 -21t92.5 -61t62.5 -98t22.5 -131v-83q0 -73 -22.5 -131t-62.5 -98t-92.5 -61t-112.5 -21h-41zM355 116q29 0 53 9t42.5 27.5t28.5 46.5t10 67v153
q0 39 -10 67t-28.5 46.5t-42.5 27.5t-52 9t-52.5 -9t-43 -27.5t-28.5 -46.5t-10 -67v-153q0 -39 10 -67t28.5 -46.5t42.5 -27.5t52 -9zM188 775v83h334v-83h-334z" />
    <glyph glyph-name="uni01EA" unicode="&#x1ea;" horiz-adv-x="710" 
d="M335 -10q-60 0 -112.5 21t-92.5 61t-62.5 98t-22.5 131v83q0 73 22.5 131t62.5 98t92.5 61t112.5 21h41q60 0 112.5 -21t92.5 -61t62.5 -98t22.5 -131v-83q0 -73 -22.5 -131t-62.5 -98t-92.5 -61t-112.5 -21h-41zM355 116q29 0 53 9t42.5 27.5t28.5 46.5t10 67v153
q0 39 -10 67t-28.5 46.5t-42.5 27.5t-52 9t-52.5 -9t-43 -27.5t-28.5 -46.5t-10 -67v-153q0 -39 10 -67t28.5 -46.5t42.5 -27.5t52 -9zM422 -146q-25 0 -48.5 7.5t-38.5 24t-15 43.5q0 24 13.5 42.5t30.5 28.5h92q-19 -11 -32 -24t-13 -30q0 -19 12 -26.5t28 -7.5q15 0 31 4
t30 9l14 -44q-23 -13 -49.5 -20t-54.5 -7z" />
    <glyph glyph-name="Oslash" unicode="&#xd8;" horiz-adv-x="710" 
d="M335 -10q-60 0 -112.5 21t-92.5 61t-62.5 98t-22.5 131v83q0 73 22.5 131t62.5 98t92.5 61t112.5 21h41q60 0 112.5 -21t92.5 -61t62.5 -98t22.5 -131v-83q0 -73 -22.5 -131t-62.5 -98t-92.5 -61t-112.5 -21h-41zM355 116q29 0 53 9t42.5 27.5t28.5 46.5t10 67v153
q0 39 -10 67t-28.5 46.5t-42.5 27.5t-52 9t-52.5 -9t-43 -27.5t-28.5 -46.5t-10 -67v-153q0 -39 10 -67t28.5 -46.5t42.5 -27.5t52 -9zM60 -79l497 819h90l-497 -819h-90z" />
    <glyph glyph-name="Oslashacute" unicode="&#x1fe;" horiz-adv-x="710" 
d="M335 -10q-60 0 -112.5 21t-92.5 61t-62.5 98t-22.5 131v83q0 73 22.5 131t62.5 98t92.5 61t112.5 21h41q60 0 112.5 -21t92.5 -61t62.5 -98t22.5 -131v-83q0 -73 -22.5 -131t-62.5 -98t-92.5 -61t-112.5 -21h-41zM355 116q29 0 53 9t42.5 27.5t28.5 46.5t10 67v153
q0 39 -10 67t-28.5 46.5t-42.5 27.5t-52 9t-52.5 -9t-43 -27.5t-28.5 -46.5t-10 -67v-153q0 -39 10 -67t28.5 -46.5t42.5 -27.5t52 -9zM60 -79l497 819h90l-497 -819h-90zM308 751l92 145h138l1 -3l-122 -142h-109z" />
    <glyph glyph-name="Otilde" unicode="&#xd5;" horiz-adv-x="710" 
d="M335 -10q-60 0 -112.5 21t-92.5 61t-62.5 98t-22.5 131v83q0 73 22.5 131t62.5 98t92.5 61t112.5 21h41q60 0 112.5 -21t92.5 -61t62.5 -98t22.5 -131v-83q0 -73 -22.5 -131t-62.5 -98t-92.5 -61t-112.5 -21h-41zM355 116q29 0 53 9t42.5 27.5t28.5 46.5t10 67v153
q0 39 -10 67t-28.5 46.5t-42.5 27.5t-52 9t-52.5 -9t-43 -27.5t-28.5 -46.5t-10 -67v-153q0 -39 10 -67t28.5 -46.5t42.5 -27.5t52 -9zM160 750q3 39 16.5 70t39 50t61.5 19t63 -10.5t49 -21.5t44 -11q21 0 32.5 11.5t15.5 30.5h69q-2 -37 -16 -68.5t-39 -50.5t-62 -19
q-36 0 -63 10.5t-49.5 21.5t-44.5 11q-19 0 -30 -11t-17 -32h-69z" />
    <glyph glyph-name="uni022C" unicode="&#x22c;" horiz-adv-x="710" 
d="M335 -10q-60 0 -112.5 21t-92.5 61t-62.5 98t-22.5 131v83q0 73 22.5 131t62.5 98t92.5 61t112.5 21h41q60 0 112.5 -21t92.5 -61t62.5 -98t22.5 -131v-83q0 -73 -22.5 -131t-62.5 -98t-92.5 -61t-112.5 -21h-41zM355 116q29 0 53 9t42.5 27.5t28.5 46.5t10 67v153
q0 39 -10 67t-28.5 46.5t-42.5 27.5t-52 9t-52.5 -9t-43 -27.5t-28.5 -46.5t-10 -67v-153q0 -39 10 -67t28.5 -46.5t42.5 -27.5t52 -9zM177 937v79h355v-79h-355zM153 744q0 37 15 68t43 49t66 18q35 0 60.5 -9t48.5 -18.5t49 -9.5q21 0 34.5 10t18.5 27h69q0 -36 -15 -67
t-43 -49.5t-67 -18.5q-34 0 -59 9.5t-48 19t-51 9.5q-20 0 -33.5 -10.5t-18.5 -27.5h-69z" />
    <glyph glyph-name="OE" unicode="&#x152;" horiz-adv-x="1006" 
d="M335 -10q-60 0 -112.5 21t-92.5 61t-62.5 98t-22.5 131v83q0 73 22 131t62 98t93.5 61t116.5 21q52 0 87.5 -11.5t62.5 -35.5v38h482l-32 -128h-283v-151h264v-125h-264v-154h300l25 -128h-492v37q-25 -25 -61 -36t-93 -11zM354 117q29 0 54 9t43 27.5t28 46.5t10 67v153
q0 40 -10.5 68t-29 46t-42.5 27t-53 9q-28 0 -51.5 -9t-41.5 -27.5t-28 -46.5t-10 -67v-153q0 -39 10 -67.5t28 -47t41.5 -27t51.5 -8.5z" />
    <glyph glyph-name="P" unicode="P" horiz-adv-x="639" 
d="M71 0v686h342q56 0 102.5 -26t73.5 -71t27 -101v-17q0 -56 -28 -103.5t-74.5 -76.5t-103.5 -29h-172v-262h-167zM238 387h128q25 0 43 11t28.5 30.5t10.5 45.5q0 34 -22 60t-61 26h-127v-173z" />
    <glyph glyph-name="Thorn" unicode="&#xde;" horiz-adv-x="643" 
d="M71 0v686h167v-112h175q56 0 102 -27t73.5 -73t27.5 -103q0 -63 -27.5 -112.5t-74 -77t-103.5 -27.5h-173v-154h-167zM238 276h132q38 0 58 23.5t20 61.5q0 40 -20.5 63.5t-57.5 23.5h-132v-172z" />
    <glyph glyph-name="Q" unicode="Q" horiz-adv-x="710" 
d="M500 -155q-71 0 -115.5 24t-67.5 58.5t-30 67.5q-51 8 -95.5 31.5t-77.5 62.5t-51 92t-18 120v83q0 73 22.5 131t62.5 98t92.5 61t112.5 21h41q60 0 112.5 -21t92.5 -61t62.5 -98t22.5 -131v-83q0 -83 -27.5 -144.5t-76 -100t-109.5 -54.5q6 -14 15.5 -26.5t26.5 -20.5
t45 -8q19 0 41.5 4.5t44 10t36.5 10.5v-89q-13 -6 -35.5 -15.5t-54 -16t-72.5 -6.5zM355 116q29 0 53 9t42.5 27.5t28.5 46.5t10 67v153q0 39 -10 67t-28.5 46.5t-42.5 27.5t-52 9t-52.5 -9t-43 -27.5t-28.5 -46.5t-10 -67v-153q0 -39 10 -67t28.5 -46.5t42.5 -27.5t52 -9z
" />
    <glyph glyph-name="R" unicode="R" horiz-adv-x="679" 
d="M561 -8q-37 0 -64.5 11.5t-43 39.5t-15.5 78q0 30 -6 55.5t-18 44.5t-31 30t-46 11h-101v-262h-165v686h358q49 0 91.5 -20.5t69.5 -58.5t27 -92q0 -44 -17 -80t-44.5 -62t-60.5 -39v-5q21 -6 40.5 -19.5t34.5 -34t24.5 -47.5t9.5 -60q0 -24 2 -45t7 -37.5t15.5 -27.5
t26.5 -16v-35q-20 -8 -45 -11.5t-49 -3.5zM236 387h137q21 0 38 13.5t27 35.5t10 48q0 37 -21 56.5t-52 19.5h-139v-173z" />
    <glyph glyph-name="Racute" unicode="&#x154;" horiz-adv-x="679" 
d="M561 -8q-37 0 -64.5 11.5t-43 39.5t-15.5 78q0 30 -6 55.5t-18 44.5t-31 30t-46 11h-101v-262h-165v686h358q49 0 91.5 -20.5t69.5 -58.5t27 -92q0 -44 -17 -80t-44.5 -62t-60.5 -39v-5q21 -6 40.5 -19.5t34.5 -34t24.5 -47.5t9.5 -60q0 -24 2 -45t7 -37.5t15.5 -27.5
t26.5 -16v-35q-20 -8 -45 -11.5t-49 -3.5zM236 387h137q21 0 38 13.5t27 35.5t10 48q0 37 -21 56.5t-52 19.5h-139v-173zM270 749l95 140h140l1 -3l-121 -137h-115z" />
    <glyph glyph-name="Rcaron" unicode="&#x158;" horiz-adv-x="679" 
d="M561 -8q-37 0 -64.5 11.5t-43 39.5t-15.5 78q0 30 -6 55.5t-18 44.5t-31 30t-46 11h-101v-262h-165v686h358q49 0 91.5 -20.5t69.5 -58.5t27 -92q0 -44 -17 -80t-44.5 -62t-60.5 -39v-5q21 -6 40.5 -19.5t34.5 -34t24.5 -47.5t9.5 -60q0 -24 2 -45t7 -37.5t15.5 -27.5
t26.5 -16v-35q-20 -8 -45 -11.5t-49 -3.5zM236 387h137q21 0 38 13.5t27 35.5t10 48q0 37 -21 56.5t-52 19.5h-139v-173zM250 753l-112 132h114l89 -102h-34l90 102h113l-112 -132h-148z" />
    <glyph glyph-name="uni0156" unicode="&#x156;" horiz-adv-x="679" 
d="M561 -8q-37 0 -64.5 11.5t-43 39.5t-15.5 78q0 30 -6 55.5t-18 44.5t-31 30t-46 11h-101v-262h-165v686h358q49 0 91.5 -20.5t69.5 -58.5t27 -92q0 -44 -17 -80t-44.5 -62t-60.5 -39v-5q21 -6 40.5 -19.5t34.5 -34t24.5 -47.5t9.5 -60q0 -24 2 -45t7 -37.5t15.5 -27.5
t26.5 -16v-35q-20 -8 -45 -11.5t-49 -3.5zM236 387h137q21 0 38 13.5t27 35.5t10 48q0 37 -21 56.5t-52 19.5h-139v-173zM281 -375v16q31 32 46 67.5t15 72.5h-61v146h134v-124q0 -50 -16 -96.5t-48 -81.5h-70z" />
    <glyph glyph-name="uni0210" unicode="&#x210;" horiz-adv-x="679" 
d="M561 -8q-37 0 -64.5 11.5t-43 39.5t-15.5 78q0 30 -6 55.5t-18 44.5t-31 30t-46 11h-101v-262h-165v686h358q49 0 91.5 -20.5t69.5 -58.5t27 -92q0 -44 -17 -80t-44.5 -62t-60.5 -39v-5q21 -6 40.5 -19.5t34.5 -34t24.5 -47.5t9.5 -60q0 -24 2 -45t7 -37.5t15.5 -27.5
t26.5 -16v-35q-20 -8 -45 -11.5t-49 -3.5zM236 387h137q21 0 38 13.5t27 35.5t10 48q0 37 -21 56.5t-52 19.5h-139v-173zM376 752l-122 142l5 3h126l93 -145h-102zM180 752l-122 142l2 3h129l93 -145h-102z" />
    <glyph glyph-name="uni0212" unicode="&#x212;" horiz-adv-x="679" 
d="M561 -8q-37 0 -64.5 11.5t-43 39.5t-15.5 78q0 30 -6 55.5t-18 44.5t-31 30t-46 11h-101v-262h-165v686h358q49 0 91.5 -20.5t69.5 -58.5t27 -92q0 -44 -17 -80t-44.5 -62t-60.5 -39v-5q21 -6 40.5 -19.5t34.5 -34t24.5 -47.5t9.5 -60q0 -24 2 -45t7 -37.5t15.5 -27.5
t26.5 -16v-35q-20 -8 -45 -11.5t-49 -3.5zM236 387h137q21 0 38 13.5t27 35.5t10 48q0 37 -21 56.5t-52 19.5h-139v-173zM136 756q0 39 23.5 70t66.5 48.5t102 17.5q62 0 102.5 -17.5t60.5 -48.5t20 -70h-87q-6 28 -30 42t-70 14q-45 0 -69.5 -14t-31.5 -42h-87z" />
    <glyph glyph-name="S" unicode="S" horiz-adv-x="645" 
d="M310 -10q-74 0 -136 22t-99.5 69t-37.5 123v10.5t1 11.5h154q-1 -4 -1 -7.5v-8.5q0 -27 13.5 -47.5t40 -32t67.5 -11.5q44 0 71 8t39 24.5t12 40.5q0 27 -20.5 43t-54.5 26t-75 19t-81.5 22.5t-74.5 35.5t-55 58.5t-21 92.5q0 69 38 115t100 69t137 23q73 0 132.5 -21
t95 -65.5t35.5 -114.5v-13h-152v9q0 25 -12.5 43t-37 28t-59.5 10q-34 0 -58.5 -7t-37.5 -20.5t-13 -35.5q0 -28 21 -44t55 -25.5t75.5 -18.5t82.5 -21.5t75.5 -34.5t55 -57.5t20.5 -89.5q0 -82 -38.5 -132t-105.5 -73t-151 -23z" />
    <glyph glyph-name="Sacute" unicode="&#x15a;" horiz-adv-x="645" 
d="M310 -10q-74 0 -136 22t-99.5 69t-37.5 123v10.5t1 11.5h154q-1 -4 -1 -7.5v-8.5q0 -27 13.5 -47.5t40 -32t67.5 -11.5q44 0 71 8t39 24.5t12 40.5q0 27 -20.5 43t-54.5 26t-75 19t-81.5 22.5t-74.5 35.5t-55 58.5t-21 92.5q0 69 38 115t100 69t137 23q73 0 132.5 -21
t95 -65.5t35.5 -114.5v-13h-152v9q0 25 -12.5 43t-37 28t-59.5 10q-34 0 -58.5 -7t-37.5 -20.5t-13 -35.5q0 -28 21 -44t55 -25.5t75.5 -18.5t82.5 -21.5t75.5 -34.5t55 -57.5t20.5 -89.5q0 -82 -38.5 -132t-105.5 -73t-151 -23zM268 749l95 140h140l1 -3l-121 -137h-115z
" />
    <glyph glyph-name="Scaron" unicode="&#x160;" horiz-adv-x="645" 
d="M310 -10q-74 0 -136 22t-99.5 69t-37.5 123v10.5t1 11.5h154q-1 -4 -1 -7.5v-8.5q0 -27 13.5 -47.5t40 -32t67.5 -11.5q44 0 71 8t39 24.5t12 40.5q0 27 -20.5 43t-54.5 26t-75 19t-81.5 22.5t-74.5 35.5t-55 58.5t-21 92.5q0 69 38 115t100 69t137 23q73 0 132.5 -21
t95 -65.5t35.5 -114.5v-13h-152v9q0 25 -12.5 43t-37 28t-59.5 10q-34 0 -58.5 -7t-37.5 -20.5t-13 -35.5q0 -28 21 -44t55 -25.5t75.5 -18.5t82.5 -21.5t75.5 -34.5t55 -57.5t20.5 -89.5q0 -82 -38.5 -132t-105.5 -73t-151 -23zM248 753l-112 132h114l89 -102h-34l90 102
h113l-112 -132h-148z" />
    <glyph glyph-name="Scedilla" unicode="&#x15e;" horiz-adv-x="645" 
d="M310 -10q-74 0 -136 22t-99.5 69t-37.5 123v10.5t1 11.5h154q-1 -4 -1 -7.5v-8.5q0 -27 13.5 -47.5t40 -32t67.5 -11.5q44 0 71 8t39 24.5t12 40.5q0 27 -20.5 43t-54.5 26t-75 19t-81.5 22.5t-74.5 35.5t-55 58.5t-21 92.5q0 69 38 115t100 69t137 23q73 0 132.5 -21
t95 -65.5t35.5 -114.5v-13h-152v9q0 25 -12.5 43t-37 28t-59.5 10q-34 0 -58.5 -7t-37.5 -20.5t-13 -35.5q0 -28 21 -44t55 -25.5t75.5 -18.5t82.5 -21.5t75.5 -34.5t55 -57.5t20.5 -89.5q0 -82 -38.5 -132t-105.5 -73t-151 -23zM319 -210q-29 0 -58 7.5t-50 21.5l23 56
q14 -10 32.5 -18t47.5 -8q20 0 33.5 8.5t13.5 26.5q0 16 -11 23t-27 7h-21v56h31q28 0 53 -8t41 -27t16 -52q0 -34 -19.5 -54.5t-48 -29.5t-56.5 -9z" />
    <glyph glyph-name="Scircumflex" unicode="&#x15c;" horiz-adv-x="645" 
d="M310 -10q-74 0 -136 22t-99.5 69t-37.5 123v10.5t1 11.5h154q-1 -4 -1 -7.5v-8.5q0 -27 13.5 -47.5t40 -32t67.5 -11.5q44 0 71 8t39 24.5t12 40.5q0 27 -20.5 43t-54.5 26t-75 19t-81.5 22.5t-74.5 35.5t-55 58.5t-21 92.5q0 69 38 115t100 69t137 23q73 0 132.5 -21
t95 -65.5t35.5 -114.5v-13h-152v9q0 25 -12.5 43t-37 28t-59.5 10q-34 0 -58.5 -7t-37.5 -20.5t-13 -35.5q0 -28 21 -44t55 -25.5t75.5 -18.5t82.5 -21.5t75.5 -34.5t55 -57.5t20.5 -89.5q0 -82 -38.5 -132t-105.5 -73t-151 -23zM135 753l113 132h149l112 -132h-114l-89 102
h33l-90 -102h-114z" />
    <glyph glyph-name="uni0218" unicode="&#x218;" horiz-adv-x="645" 
d="M310 -10q-74 0 -136 22t-99.5 69t-37.5 123v10.5t1 11.5h154q-1 -4 -1 -7.5v-8.5q0 -27 13.5 -47.5t40 -32t67.5 -11.5q44 0 71 8t39 24.5t12 40.5q0 27 -20.5 43t-54.5 26t-75 19t-81.5 22.5t-74.5 35.5t-55 58.5t-21 92.5q0 69 38 115t100 69t137 23q73 0 132.5 -21
t95 -65.5t35.5 -114.5v-13h-152v9q0 25 -12.5 43t-37 28t-59.5 10q-34 0 -58.5 -7t-37.5 -20.5t-13 -35.5q0 -28 21 -44t55 -25.5t75.5 -18.5t82.5 -21.5t75.5 -34.5t55 -57.5t20.5 -89.5q0 -82 -38.5 -132t-105.5 -73t-151 -23zM261 -375v16q31 32 46 67.5t15 72.5h-61v146
h134v-124q0 -50 -16 -96.5t-48 -81.5h-70z" />
    <glyph glyph-name="uni1E62" unicode="&#x1e62;" horiz-adv-x="645" 
d="M310 -10q-74 0 -136 22t-99.5 69t-37.5 123v10.5t1 11.5h154q-1 -4 -1 -7.5v-8.5q0 -27 13.5 -47.5t40 -32t67.5 -11.5q44 0 71 8t39 24.5t12 40.5q0 27 -20.5 43t-54.5 26t-75 19t-81.5 22.5t-74.5 35.5t-55 58.5t-21 92.5q0 69 38 115t100 69t137 23q73 0 132.5 -21
t95 -65.5t35.5 -114.5v-13h-152v9q0 25 -12.5 43t-37 28t-59.5 10q-34 0 -58.5 -7t-37.5 -20.5t-13 -35.5q0 -28 21 -44t55 -25.5t75.5 -18.5t82.5 -21.5t75.5 -34.5t55 -57.5t20.5 -89.5q0 -82 -38.5 -132t-105.5 -73t-151 -23zM269 -183v122h124v-122h-124z" />
    <glyph glyph-name="uni1E9E" unicode="&#x1e9e;" horiz-adv-x="780" 
d="M491 -10q-111 0 -163 50t-52 147v19h142q0 -46 15 -69.5t62 -23.5t65.5 24.5t18.5 69.5q0 32 -13 52.5t-34.5 30.5t-49.5 10h-116v102h103q25 0 46.5 9t34.5 27.5t13 47.5q0 33 -20.5 52.5t-55.5 27.5t-80 8q-49 0 -87 -13t-59 -45.5t-21 -92.5v-423h-174v386
q0 87 26.5 147t75 95.5t112.5 51.5t138 16q88 0 156.5 -21t108 -63.5t39.5 -106.5q0 -53 -30 -89.5t-72 -55.5l1 -4q50 -16 84.5 -56t34.5 -106q0 -67 -32 -112.5t-88 -68.5t-129 -23z" />
    <glyph glyph-name="T" unicode="T" horiz-adv-x="584" 
d="M208 0v556h-188v130h545v-130h-189v-556h-168z" />
    <glyph glyph-name="Tbar" unicode="&#x166;" horiz-adv-x="584" 
d="M208 0v556h-188v130h545v-130h-189v-556h-168zM102 283v103h379v-103h-379z" />
    <glyph glyph-name="Tcaron" unicode="&#x164;" horiz-adv-x="584" 
d="M208 0v556h-188v130h545v-130h-189v-556h-168zM217 753l-112 132h114l89 -102h-34l90 102h113l-112 -132h-148z" />
    <glyph glyph-name="uni0162" unicode="&#x162;" horiz-adv-x="584" 
d="M208 0v556h-188v130h545v-130h-189v-556h-168zM283 -210q-29 0 -58 7.5t-50 21.5l23 56q14 -10 32.5 -18t47.5 -8q20 0 33.5 8.5t13.5 26.5q0 16 -11 23t-27 7h-21v56h31q28 0 53 -8t41 -27t16 -52q0 -34 -19.5 -54.5t-48 -29.5t-56.5 -9z" />
    <glyph glyph-name="uni021A" unicode="&#x21a;" horiz-adv-x="584" 
d="M208 0v556h-188v130h545v-130h-189v-556h-168zM225 -375v16q31 32 46 67.5t15 72.5h-61v146h134v-124q0 -50 -16 -96.5t-48 -81.5h-70z" />
    <glyph glyph-name="uni1E6C" unicode="&#x1e6c;" horiz-adv-x="584" 
d="M208 0v556h-188v130h545v-130h-189v-556h-168zM233 -183v122h124v-122h-124z" />
    <glyph glyph-name="U" unicode="U" horiz-adv-x="685" 
d="M319 -10q-78 0 -135 29t-87.5 81t-30.5 121v465h167v-464q0 -47 30.5 -76.5t79.5 -29.5t79 29.5t30 76.5v464h167v-465q0 -69 -34 -121t-94.5 -81t-138.5 -29h-33z" />
    <glyph glyph-name="Uacute" unicode="&#xda;" horiz-adv-x="685" 
d="M319 -10q-78 0 -135 29t-87.5 81t-30.5 121v465h167v-464q0 -47 30.5 -76.5t79.5 -29.5t79 29.5t30 76.5v464h167v-465q0 -69 -34 -121t-94.5 -81t-138.5 -29h-33zM289 749l95 140h140l1 -3l-121 -137h-115z" />
    <glyph glyph-name="uni0244" unicode="&#x244;" horiz-adv-x="685" 
d="M14 445h658v-113h-658v113zM319 -10q-78 0 -135 29t-87.5 81t-30.5 120v466h167v-464q0 -47 30.5 -76.5t78.5 -29.5q50 0 80 29.5t30 76.5v464h167v-466q0 -68 -34 -120t-94.5 -81t-138.5 -29h-33z" />
    <glyph glyph-name="Ubreve" unicode="&#x16c;" horiz-adv-x="685" 
d="M319 -10q-78 0 -135 29t-87.5 81t-30.5 121v465h167v-464q0 -47 30.5 -76.5t79.5 -29.5t79 29.5t30 76.5v464h167v-465q0 -69 -34 -121t-94.5 -81t-138.5 -29h-33zM338 748q-85 0 -125.5 38.5t-42.5 98.5h88q5 -28 25.5 -42t58.5 -14q39 0 60 14t27 42h87
q-2 -60 -48.5 -98.5t-129.5 -38.5z" />
    <glyph glyph-name="uni01D3" unicode="&#x1d3;" horiz-adv-x="685" 
d="M319 -10q-78 0 -135 29t-87.5 81t-30.5 121v465h167v-464q0 -47 30.5 -76.5t79.5 -29.5t79 29.5t30 76.5v464h167v-465q0 -69 -34 -121t-94.5 -81t-138.5 -29h-33zM269 753l-112 132h114l89 -102h-34l90 102h113l-112 -132h-148z" />
    <glyph glyph-name="Ucircumflex" unicode="&#xdb;" horiz-adv-x="685" 
d="M319 -10q-78 0 -135 29t-87.5 81t-30.5 121v465h167v-464q0 -47 30.5 -76.5t79.5 -29.5t79 29.5t30 76.5v464h167v-465q0 -69 -34 -121t-94.5 -81t-138.5 -29h-33zM156 753l113 132h149l112 -132h-114l-89 102h33l-90 -102h-114z" />
    <glyph glyph-name="uni0214" unicode="&#x214;" horiz-adv-x="685" 
d="M319 -10q-78 0 -135 29t-87.5 81t-30.5 121v465h167v-464q0 -47 30.5 -76.5t79.5 -29.5t79 29.5t30 76.5v464h167v-465q0 -69 -34 -121t-94.5 -81t-138.5 -29h-33zM395 752l-122 142l5 3h126l93 -145h-102zM199 752l-122 142l2 3h129l93 -145h-102z" />
    <glyph glyph-name="Udieresis" unicode="&#xdc;" horiz-adv-x="685" 
d="M319 -10q-78 0 -135 29t-87.5 81t-30.5 121v465h167v-464q0 -47 30.5 -76.5t79.5 -29.5t79 29.5t30 76.5v464h167v-465q0 -69 -34 -121t-94.5 -81t-138.5 -29h-33zM161 757v122h124v-122h-124zM401 757v122h124v-122h-124z" />
    <glyph glyph-name="uni01D7" unicode="&#x1d7;" horiz-adv-x="685" 
d="M319 -10q-78 0 -135 29t-87.5 81t-30.5 121v465h167v-464q0 -47 30.5 -76.5t79.5 -29.5t79 29.5t30 76.5v464h167v-465q0 -69 -34 -121t-94.5 -81t-138.5 -29h-33zM296 930l82 131h128l1 -3l-112 -128h-99zM178 765v122h124v-122h-124zM386 765v122h124v-122h-124z" />
    <glyph glyph-name="uni01D9" unicode="&#x1d9;" horiz-adv-x="685" 
d="M319 -10q-78 0 -135 29t-87.5 81t-30.5 121v465h167v-464q0 -47 30.5 -76.5t79.5 -29.5t79 29.5t30 76.5v464h167v-465q0 -69 -34 -121t-94.5 -81t-138.5 -29h-33zM290 930l-138 125h111l82 -63l82 63h109l-137 -125h-109zM178 765v122h124v-122h-124zM386 765v122h124
v-122h-124z" />
    <glyph glyph-name="uni01DB" unicode="&#x1db;" horiz-adv-x="685" 
d="M319 -10q-78 0 -135 29t-87.5 81t-30.5 121v465h167v-464q0 -47 30.5 -76.5t79.5 -29.5t79 29.5t30 76.5v464h167v-465q0 -69 -34 -121t-94.5 -81t-138.5 -29h-33zM293 930l-112 128l1 3h127l83 -131h-99zM178 765v122h123v-122h-123zM385 765v122h124v-122h-124z" />
    <glyph glyph-name="uni01D5" unicode="&#x1d5;" horiz-adv-x="685" 
d="M319 -10q-78 0 -135 29t-87.5 81t-30.5 121v465h167v-464q0 -47 30.5 -76.5t79.5 -29.5t79 29.5t30 76.5v464h167v-465q0 -69 -34 -121t-94.5 -81t-138.5 -29h-33zM176 933v87h336v-87h-336zM178 765v122h124v-122h-124zM386 765v122h124v-122h-124z" />
    <glyph glyph-name="uni1EE4" unicode="&#x1ee4;" horiz-adv-x="685" 
d="M319 -10q-78 0 -135 29t-87.5 81t-30.5 121v465h167v-464q0 -47 30.5 -76.5t79.5 -29.5t79 29.5t30 76.5v464h167v-465q0 -69 -34 -121t-94.5 -81t-138.5 -29h-33zM285 -183v122h124v-122h-124z" />
    <glyph glyph-name="Ugrave" unicode="&#xd9;" horiz-adv-x="685" 
d="M319 -10q-78 0 -135 29t-87.5 81t-30.5 121v465h167v-464q0 -47 30.5 -76.5t79.5 -29.5t79 29.5t30 76.5v464h167v-465q0 -69 -34 -121t-94.5 -81t-138.5 -29h-33zM291 749l-121 137l1 3h140l95 -140h-115z" />
    <glyph glyph-name="uni1EE6" unicode="&#x1ee6;" horiz-adv-x="685" 
d="M319 -10q-78 0 -135 29t-87.5 81t-30.5 121v465h167v-464q0 -47 30.5 -76.5t79.5 -29.5t79 29.5t30 76.5v464h167v-465q0 -69 -34 -121t-94.5 -81t-138.5 -29h-33zM317 729v70q30 3 46 16t16 35q0 19 -13.5 29.5t-36.5 10.5q-14 0 -31 -3t-38 -10v92q20 5 38.5 7.5
t36.5 2.5q56 0 94 -30t38 -85q0 -38 -22 -67.5t-56 -47.5t-72 -20z" />
    <glyph glyph-name="Uhorn" unicode="&#x1af;" horiz-adv-x="685" 
d="M319 -10q-78 0 -135 29t-87.5 81t-30.5 121v465h167v-464q0 -47 30.5 -76.5t79.5 -29.5t79 29.5t30 76.5v464h167v-465q0 -69 -34 -121t-94.5 -81t-138.5 -29h-33zM522 605v82q46 9 62 44t16 96h134q0 -56 -27 -104t-74.5 -79.5t-110.5 -38.5z" />
    <glyph glyph-name="uni1EE8" unicode="&#x1ee8;" horiz-adv-x="685" 
d="M319 -10q-78 0 -135 29t-87.5 81t-30.5 121v465h167v-464q0 -47 30.5 -76.5t79.5 -29.5t79 29.5t30 76.5v464h167v-465q0 -69 -34 -121t-94.5 -81t-138.5 -29h-33zM522 605v82q46 9 62 44t16 96h134q0 -56 -27 -104t-74.5 -79.5t-110.5 -38.5zM290 749l95 140h140l1 -3
l-121 -137h-115z" />
    <glyph glyph-name="uni1EF0" unicode="&#x1ef0;" horiz-adv-x="685" 
d="M319 -10q-78 0 -135 29t-87.5 81t-30.5 121v465h167v-464q0 -47 30.5 -76.5t79.5 -29.5t79 29.5t30 76.5v464h167v-465q0 -69 -34 -121t-94.5 -81t-138.5 -29h-33zM522 605v82q46 9 62 44t16 96h134q0 -56 -27 -104t-74.5 -79.5t-110.5 -38.5zM285 -183v122h124v-122
h-124z" />
    <glyph glyph-name="uni1EEA" unicode="&#x1eea;" horiz-adv-x="685" 
d="M319 -10q-78 0 -135 29t-87.5 81t-30.5 121v465h167v-464q0 -47 30.5 -76.5t79.5 -29.5t79 29.5t30 76.5v464h167v-465q0 -69 -34 -121t-94.5 -81t-138.5 -29h-33zM522 605v82q46 9 62 44t16 96h134q0 -56 -27 -104t-74.5 -79.5t-110.5 -38.5zM291 749l-121 137l1 3h140
l95 -140h-115z" />
    <glyph glyph-name="uni1EEC" unicode="&#x1eec;" horiz-adv-x="685" 
d="M319 -10q-78 0 -135 29t-87.5 81t-30.5 121v465h167v-464q0 -47 30.5 -76.5t79.5 -29.5t79 29.5t30 76.5v464h167v-465q0 -69 -34 -121t-94.5 -81t-138.5 -29h-33zM522 605v82q46 9 62 44t16 96h134q0 -56 -27 -104t-74.5 -79.5t-110.5 -38.5zM318 729v70q30 3 46 16
t16 35q0 19 -13.5 29.5t-36.5 10.5q-14 0 -31 -3t-38 -10v92q20 5 38.5 7.5t36.5 2.5q56 0 94 -30t38 -85q0 -38 -22 -67.5t-56 -47.5t-72 -20z" />
    <glyph glyph-name="uni1EEE" unicode="&#x1eee;" horiz-adv-x="685" 
d="M319 -10q-78 0 -135 29t-87.5 81t-30.5 121v465h167v-464q0 -47 30.5 -76.5t79.5 -29.5t79 29.5t30 76.5v464h167v-465q0 -69 -34 -121t-94.5 -81t-138.5 -29h-33zM522 605v82q46 9 62 44t16 96h134q0 -56 -27 -104t-74.5 -79.5t-110.5 -38.5zM149 750q3 39 16.5 70
t39 50t61.5 19t63 -10.5t49 -21.5t44 -11q21 0 32.5 11.5t15.5 30.5h69q-2 -37 -16 -68.5t-39 -50.5t-62 -19q-36 0 -63 10.5t-49.5 21.5t-44.5 11q-19 0 -30 -11t-17 -32h-69z" />
    <glyph glyph-name="Uhungarumlaut" unicode="&#x170;" horiz-adv-x="685" 
d="M319 -10q-78 0 -135 29t-87.5 81t-30.5 121v465h167v-464q0 -47 30.5 -76.5t79.5 -29.5t79 29.5t30 76.5v464h167v-465q0 -69 -34 -121t-94.5 -81t-138.5 -29h-33zM369 749l96 140h129l2 -3l-122 -137h-105zM178 749l96 140h126l5 -3l-123 -137h-104z" />
    <glyph glyph-name="uni0216" unicode="&#x216;" horiz-adv-x="685" 
d="M319 -10q-78 0 -135 29t-87.5 81t-30.5 121v465h167v-464q0 -47 30.5 -76.5t79.5 -29.5t79 29.5t30 76.5v464h167v-465q0 -69 -34 -121t-94.5 -81t-138.5 -29h-33zM155 756q0 39 23.5 70t66.5 48.5t102 17.5q62 0 102.5 -17.5t60.5 -48.5t20 -70h-87q-6 28 -30 42t-70 14
q-45 0 -69.5 -14t-31.5 -42h-87z" />
    <glyph glyph-name="Umacron" unicode="&#x16a;" horiz-adv-x="685" 
d="M319 -10q-78 0 -135 29t-87.5 81t-30.5 121v465h167v-464q0 -47 30.5 -76.5t79.5 -29.5t79 29.5t30 76.5v464h167v-465q0 -69 -34 -121t-94.5 -81t-138.5 -29h-33zM176 775v83h334v-83h-334z" />
    <glyph glyph-name="Uogonek" unicode="&#x172;" horiz-adv-x="685" 
d="M319 -10q-78 0 -135 29t-87.5 81t-30.5 121v465h167v-464q0 -47 30.5 -76.5t79.5 -29.5t79 29.5t30 76.5v464h167v-465q0 -69 -34 -121t-94.5 -81t-138.5 -29h-33zM397 -146q-25 0 -48.5 7.5t-38.5 24t-15 43.5q0 24 13.5 42.5t30.5 28.5h92q-19 -11 -32 -24t-13 -30
q0 -19 12 -26.5t28 -7.5q15 0 31 4t30 9l14 -44q-23 -13 -49.5 -20t-54.5 -7z" />
    <glyph glyph-name="Uring" unicode="&#x16e;" horiz-adv-x="685" 
d="M319 -10q-78 0 -135 29t-87.5 81t-30.5 121v465h167v-464q0 -47 30.5 -76.5t79.5 -29.5t79 29.5t30 76.5v464h167v-465q0 -69 -34 -121t-94.5 -81t-138.5 -29h-33zM342 724q-45 0 -75 28t-30 74t31 75t76 29t75 -28t30 -74q0 -45 -30.5 -74.5t-76.5 -29.5zM343 785
q19 0 30 12.5t11 29.5q0 18 -11.5 30t-29.5 12t-29 -12.5t-11 -29.5q0 -18 11.5 -30t28.5 -12z" />
    <glyph glyph-name="Utilde" unicode="&#x168;" horiz-adv-x="685" 
d="M319 -10q-78 0 -135 29t-87.5 81t-30.5 121v465h167v-464q0 -47 30.5 -76.5t79.5 -29.5t79 29.5t30 76.5v464h167v-465q0 -69 -34 -121t-94.5 -81t-138.5 -29h-33zM148 750q3 39 16.5 70t39 50t61.5 19t63 -10.5t49 -21.5t44 -11q21 0 32.5 11.5t15.5 30.5h69
q-2 -37 -16 -68.5t-39 -50.5t-62 -19q-36 0 -63 10.5t-49.5 21.5t-44.5 11q-19 0 -30 -11t-17 -32h-69z" />
    <glyph glyph-name="V" unicode="V" horiz-adv-x="642" 
d="M223 0l-220 686h174l149 -474h4l149 474h160l-222 -686h-194z" />
    <glyph glyph-name="W" unicode="W" horiz-adv-x="992" 
d="M201 0l-191 686h173l116 -436h4l118 436h169l116 -436h4l116 436h156l-190 -686h-184l-107 399h-6l-107 -399h-187z" />
    <glyph glyph-name="Wacute" unicode="&#x1e82;" horiz-adv-x="992" 
d="M201 0l-191 686h173l116 -436h4l118 436h169l116 -436h4l116 436h156l-190 -686h-184l-107 399h-6l-107 -399h-187zM443 749l95 140h140l1 -3l-121 -137h-115z" />
    <glyph glyph-name="Wcircumflex" unicode="&#x174;" horiz-adv-x="992" 
d="M201 0l-191 686h173l116 -436h4l118 436h169l116 -436h4l116 436h156l-190 -686h-184l-107 399h-6l-107 -399h-187zM310 753l113 132h149l112 -132h-114l-89 102h33l-90 -102h-114z" />
    <glyph glyph-name="Wdieresis" unicode="&#x1e84;" horiz-adv-x="992" 
d="M201 0l-191 686h173l116 -436h4l118 436h169l116 -436h4l116 436h156l-190 -686h-184l-107 399h-6l-107 -399h-187zM315 757v122h124v-122h-124zM555 757v122h124v-122h-124z" />
    <glyph glyph-name="Wgrave" unicode="&#x1e80;" horiz-adv-x="992" 
d="M201 0l-191 686h173l116 -436h4l118 436h169l116 -436h4l116 436h156l-190 -686h-184l-107 399h-6l-107 -399h-187zM445 749l-121 137l1 3h140l95 -140h-115z" />
    <glyph glyph-name="X" unicode="X" horiz-adv-x="663" 
d="M-3 0l227 362l-204 324h193l124 -205h4l124 205h179l-205 -325l227 -361h-195l-145 242h-4l-145 -242h-180z" />
    <glyph glyph-name="Y" unicode="Y" horiz-adv-x="626" 
d="M229 0v264l-232 422h188l133 -264h4l136 264h170l-231 -422v-264h-168z" />
    <glyph glyph-name="Yacute" unicode="&#xdd;" horiz-adv-x="626" 
d="M229 0v264l-232 422h188l133 -264h4l136 264h170l-231 -422v-264h-168zM268 749l95 140h140l1 -3l-121 -137h-115z" />
    <glyph glyph-name="Ycircumflex" unicode="&#x176;" horiz-adv-x="626" 
d="M229 0v264l-232 422h188l133 -264h4l136 264h170l-231 -422v-264h-168zM135 753l113 132h149l112 -132h-114l-89 102h33l-90 -102h-114z" />
    <glyph glyph-name="Ydieresis" unicode="&#x178;" horiz-adv-x="626" 
d="M229 0v264l-232 422h188l133 -264h4l136 264h170l-231 -422v-264h-168zM140 757v122h124v-122h-124zM380 757v122h124v-122h-124z" />
    <glyph glyph-name="uni1EF4" unicode="&#x1ef4;" horiz-adv-x="626" 
d="M229 0v264l-232 422h188l133 -264h4l136 264h170l-231 -422v-264h-168zM262 -183v122h124v-122h-124z" />
    <glyph glyph-name="Ygrave" unicode="&#x1ef2;" horiz-adv-x="626" 
d="M229 0v264l-232 422h188l133 -264h4l136 264h170l-231 -422v-264h-168zM269 749l-121 137l1 3h140l95 -140h-115z" />
    <glyph glyph-name="uni1EF6" unicode="&#x1ef6;" horiz-adv-x="626" 
d="M229 0v264l-232 422h188l133 -264h4l136 264h170l-231 -422v-264h-168zM296 729v70q30 3 46 16t16 35q0 19 -13.5 29.5t-36.5 10.5q-14 0 -31 -3t-38 -10v92q20 5 38.5 7.5t36.5 2.5q56 0 94 -30t38 -85q0 -38 -22 -67.5t-56 -47.5t-72 -20z" />
    <glyph glyph-name="uni0232" unicode="&#x232;" horiz-adv-x="626" 
d="M229 0v264l-232 422h188l133 -264h4l136 264h170l-231 -422v-264h-168zM155 775v83h334v-83h-334z" />
    <glyph glyph-name="uni1EF8" unicode="&#x1ef8;" horiz-adv-x="626" 
d="M229 0v264l-232 422h188l133 -264h4l136 264h170l-231 -422v-264h-168zM127 750q3 39 16.5 70t39 50t61.5 19t63 -10.5t49 -21.5t44 -11q21 0 32.5 11.5t15.5 30.5h69q-2 -37 -16 -68.5t-39 -50.5t-62 -19q-36 0 -63 10.5t-49.5 21.5t-44.5 11q-19 0 -30 -11t-17 -32h-69
z" />
    <glyph glyph-name="Z" unicode="Z" horiz-adv-x="605" 
d="M23 0v51l309 507h-285v128h521v-50l-305 -507h313v-129h-553z" />
    <glyph glyph-name="Zacute" unicode="&#x179;" horiz-adv-x="605" 
d="M23 0v51l309 507h-285v128h521v-50l-305 -507h313v-129h-553zM259 749l95 140h140l1 -3l-121 -137h-115z" />
    <glyph glyph-name="Zcaron" unicode="&#x17d;" horiz-adv-x="605" 
d="M23 0v51l309 507h-285v128h521v-50l-305 -507h313v-129h-553zM239 753l-112 132h114l89 -102h-34l90 102h113l-112 -132h-148z" />
    <glyph glyph-name="Zdotaccent" unicode="&#x17b;" horiz-adv-x="605" 
d="M23 0v51l309 507h-285v128h521v-50l-305 -507h313v-129h-553zM251 755v122h124v-122h-124z" />
    <glyph glyph-name="Cacute.loclPLK" horiz-adv-x="678" 
d="M343 -10q-62 0 -116.5 18.5t-95 57t-63.5 97t-23 138.5v84q0 78 23.5 136t64.5 97t94.5 58.5t113.5 19.5h22q57 0 107.5 -16.5t88.5 -51t59.5 -88t21.5 -127.5h-157q0 61 -15.5 95t-45.5 48t-71 14q-29 0 -52.5 -8.5t-40.5 -26.5t-26.5 -46.5t-9.5 -68.5v-154
q0 -52 16 -85.5t45 -49t68 -15.5q46 0 76.5 14t46.5 47.5t16 94.5h150q0 -69 -21 -122t-59 -88.5t-88 -53.5t-107 -18h-22zM307 751l32 145h128l1 -3l-62 -142h-99z" />
    <glyph glyph-name="Nacute.loclPLK" horiz-adv-x="695" 
d="M71 0v686h140l222 -328l35 -61l4 2v387h153v-686h-144l-229 339l-24 45l-4 -1v-383h-153zM313 751l32 145h128l1 -3l-62 -142h-99z" />
    <glyph glyph-name="Oacute.loclPLK" horiz-adv-x="710" 
d="M335 -10q-60 0 -112.5 21t-92.5 61t-62.5 98t-22.5 131v83q0 73 22.5 131t62.5 98t92.5 61t112.5 21h41q60 0 112.5 -21t92.5 -61t62.5 -98t22.5 -131v-83q0 -73 -22.5 -131t-62.5 -98t-92.5 -61t-112.5 -21h-41zM355 116q29 0 53 9t42.5 27.5t28.5 46.5t10 67v153
q0 39 -10 67t-28.5 46.5t-42.5 27.5t-52 9t-52.5 -9t-43 -27.5t-28.5 -46.5t-10 -67v-153q0 -39 10 -67t28.5 -46.5t42.5 -27.5t52 -9zM317 751l32 145h128l1 -3l-62 -142h-99z" />
    <glyph glyph-name="Sacute.loclPLK" horiz-adv-x="645" 
d="M310 -10q-74 0 -136 22t-99.5 69t-37.5 123v10.5t1 11.5h154q-1 -4 -1 -7.5v-8.5q0 -27 13.5 -47.5t40 -32t67.5 -11.5q44 0 71 8t39 24.5t12 40.5q0 27 -20.5 43t-54.5 26t-75 19t-81.5 22.5t-74.5 35.5t-55 58.5t-21 92.5q0 69 38 115t100 69t137 23q73 0 132.5 -21
t95 -65.5t35.5 -114.5v-13h-152v9q0 25 -12.5 43t-37 28t-59.5 10q-34 0 -58.5 -7t-37.5 -20.5t-13 -35.5q0 -28 21 -44t55 -25.5t75.5 -18.5t82.5 -21.5t75.5 -34.5t55 -57.5t20.5 -89.5q0 -82 -38.5 -132t-105.5 -73t-151 -23zM284 751l32 145h128l1 -3l-62 -142h-99z" />
    <glyph glyph-name="Zacute.loclPLK" horiz-adv-x="605" 
d="M23 0v51l309 507h-285v128h521v-50l-305 -507h313v-129h-553zM275 751l32 145h128l1 -3l-62 -142h-99z" />
    <glyph glyph-name="uni026A" unicode="&#x26a;" horiz-adv-x="392" 
d="M15 0v116h103v280h-103v115h362v-115h-102v-280h102v-116h-362z" />
    <glyph glyph-name="Ismallstroke" unicode="&#x1d7b;" horiz-adv-x="288" 
d="M6 328h276v-111h-276v111zM65 0v511h157v-511h-157z" />
    <glyph glyph-name="a" unicode="a" horiz-adv-x="613" 
d="M196 -10q-41 0 -78 14t-60.5 45.5t-23.5 85.5t23.5 88.5t68 53.5t107 26.5t139.5 7.5v41q0 40 -22 56.5t-62 16.5q-36 0 -61 -16t-25 -47v-7h-151q-1 3 -1 7.5v9.5q0 43 28 77t79.5 53t120.5 19h25q112 0 167 -43.5t55 -115.5v-236q0 -19 9.5 -27.5t20.5 -8.5
q10 0 20 3.5t19 7.5v-89q-13 -10 -35 -16t-56 -6q-38 0 -64.5 11.5t-40.5 30.5t-18 44q-28 -36 -73 -61t-111 -25zM274 90q25 0 47.5 11.5t36.5 34t14 55.5v41q-58 0 -97 -8t-58.5 -25t-19.5 -47q0 -35 21.5 -48.5t55.5 -13.5z" />
    <glyph glyph-name="aacute" unicode="&#xe1;" horiz-adv-x="613" 
d="M196 -10q-41 0 -78 14t-60.5 45.5t-23.5 85.5t23.5 88.5t68 53.5t107 26.5t139.5 7.5v41q0 40 -22 56.5t-62 16.5q-36 0 -61 -16t-25 -47v-7h-151q-1 3 -1 7.5v9.5q0 43 28 77t79.5 53t120.5 19h25q112 0 167 -43.5t55 -115.5v-236q0 -19 9.5 -27.5t20.5 -8.5
q10 0 20 3.5t19 7.5v-89q-13 -10 -35 -16t-56 -6q-38 0 -64.5 11.5t-40.5 30.5t-18 44q-28 -36 -73 -61t-111 -25zM274 90q25 0 47.5 11.5t36.5 34t14 55.5v41q-58 0 -97 -8t-58.5 -25t-19.5 -47q0 -35 21.5 -48.5t55.5 -13.5zM232 586l85 174h134l1 -3l-114 -171h-106z" />
    <glyph glyph-name="abreve" unicode="&#x103;" horiz-adv-x="613" 
d="M196 -10q-41 0 -78 14t-60.5 45.5t-23.5 85.5t23.5 88.5t68 53.5t107 26.5t139.5 7.5v41q0 40 -22 56.5t-62 16.5q-36 0 -61 -16t-25 -47v-7h-151q-1 3 -1 7.5v9.5q0 43 28 77t79.5 53t120.5 19h25q112 0 167 -43.5t55 -115.5v-236q0 -19 9.5 -27.5t20.5 -8.5
q10 0 20 3.5t19 7.5v-89q-13 -10 -35 -16t-56 -6q-38 0 -64.5 11.5t-40.5 30.5t-18 44q-28 -36 -73 -61t-111 -25zM274 90q25 0 47.5 11.5t36.5 34t14 55.5v41q-58 0 -97 -8t-58.5 -25t-19.5 -47q0 -35 21.5 -48.5t55.5 -13.5zM283 588q-60 0 -99 20.5t-58 55.5t-21 81h88
q6 -39 29 -57.5t65 -18.5q44 0 67 18.5t30 57.5h87q-1 -46 -24 -81t-64 -55.5t-100 -20.5z" />
    <glyph glyph-name="uni1EAF" unicode="&#x1eaf;" horiz-adv-x="613" 
d="M196 -10q-41 0 -78 14t-60.5 45.5t-23.5 85.5t23.5 88.5t68 53.5t107 26.5t139.5 7.5v41q0 40 -22 56.5t-62 16.5q-36 0 -61 -16t-25 -47v-7h-151q-1 3 -1 7.5v9.5q0 43 28 77t79.5 53t120.5 19h25q112 0 167 -43.5t55 -115.5v-236q0 -19 9.5 -27.5t20.5 -8.5
q10 0 20 3.5t19 7.5v-89q-13 -10 -35 -16t-56 -6q-38 0 -64.5 11.5t-40.5 30.5t-18 44q-28 -36 -73 -61t-111 -25zM274 90q25 0 47.5 11.5t36.5 34t14 55.5v41q-58 0 -97 -8t-58.5 -25t-19.5 -47q0 -35 21.5 -48.5t55.5 -13.5zM283 596q-62 0 -102.5 17.5t-60.5 48.5t-20 70
h88q6 -28 30.5 -42t68.5 -14q46 0 70 14t32 42h86q0 -39 -23 -70t-66.5 -48.5t-102.5 -17.5zM233 747l92 145h127l2 -3l-122 -142h-99z" />
    <glyph glyph-name="uni1EB7" unicode="&#x1eb7;" horiz-adv-x="613" 
d="M196 -10q-41 0 -78 14t-60.5 45.5t-23.5 85.5t23.5 88.5t68 53.5t107 26.5t139.5 7.5v41q0 40 -22 56.5t-62 16.5q-36 0 -61 -16t-25 -47v-7h-151q-1 3 -1 7.5v9.5q0 43 28 77t79.5 53t120.5 19h25q112 0 167 -43.5t55 -115.5v-236q0 -19 9.5 -27.5t20.5 -8.5
q10 0 20 3.5t19 7.5v-89q-13 -10 -35 -16t-56 -6q-38 0 -64.5 11.5t-40.5 30.5t-18 44q-28 -36 -73 -61t-111 -25zM274 90q25 0 47.5 11.5t36.5 34t14 55.5v41q-58 0 -97 -8t-58.5 -25t-19.5 -47q0 -35 21.5 -48.5t55.5 -13.5zM242 -183v122h124v-122h-124zM283 588
q-60 0 -99 20.5t-58 55.5t-21 81h88q6 -39 29 -57.5t65 -18.5q44 0 67 18.5t30 57.5h87q-1 -46 -24 -81t-64 -55.5t-100 -20.5z" />
    <glyph glyph-name="uni1EB1" unicode="&#x1eb1;" horiz-adv-x="613" 
d="M196 -10q-41 0 -78 14t-60.5 45.5t-23.5 85.5t23.5 88.5t68 53.5t107 26.5t139.5 7.5v41q0 40 -22 56.5t-62 16.5q-36 0 -61 -16t-25 -47v-7h-151q-1 3 -1 7.5v9.5q0 43 28 77t79.5 53t120.5 19h25q112 0 167 -43.5t55 -115.5v-236q0 -19 9.5 -27.5t20.5 -8.5
q10 0 20 3.5t19 7.5v-89q-13 -10 -35 -16t-56 -6q-38 0 -64.5 11.5t-40.5 30.5t-18 44q-28 -36 -73 -61t-111 -25zM274 90q25 0 47.5 11.5t36.5 34t14 55.5v41q-58 0 -97 -8t-58.5 -25t-19.5 -47q0 -35 21.5 -48.5t55.5 -13.5zM285 601q-61 0 -102 17.5t-62 48.5t-21 70h87
q7 -28 31.5 -42t69.5 -14t69.5 14t30.5 42h87q0 -39 -22.5 -70t-64.5 -48.5t-103 -17.5zM243 752l-121 142l1 3h127l93 -145h-100z" />
    <glyph glyph-name="uni1EB3" unicode="&#x1eb3;" horiz-adv-x="613" 
d="M196 -10q-41 0 -78 14t-60.5 45.5t-23.5 85.5t23.5 88.5t68 53.5t107 26.5t139.5 7.5v41q0 40 -22 56.5t-62 16.5q-36 0 -61 -16t-25 -47v-7h-151q-1 3 -1 7.5v9.5q0 43 28 77t79.5 53t120.5 19h25q112 0 167 -43.5t55 -115.5v-236q0 -19 9.5 -27.5t20.5 -8.5
q10 0 20 3.5t19 7.5v-89q-13 -10 -35 -16t-56 -6q-38 0 -64.5 11.5t-40.5 30.5t-18 44q-28 -36 -73 -61t-111 -25zM274 90q25 0 47.5 11.5t36.5 34t14 55.5v41q-58 0 -97 -8t-58.5 -25t-19.5 -47q0 -35 21.5 -48.5t55.5 -13.5zM285 601q-61 0 -102 17.5t-62 48.5t-21 70h87
q7 -28 31.5 -42t69.5 -14t69.5 14t30.5 42h87q0 -39 -22.5 -70t-64.5 -48.5t-103 -17.5zM268 752v57q24 2 37.5 13t13.5 29q0 15 -11.5 23.5t-30.5 8.5q-11 0 -25 -2.5t-30 -7.5v74q15 5 30.5 6.5t29.5 1.5q46 0 77 -24t31 -69q0 -31 -18 -55.5t-45.5 -38.5t-58.5 -16z" />
    <glyph glyph-name="uni1EB5" unicode="&#x1eb5;" horiz-adv-x="613" 
d="M196 -10q-41 0 -78 14t-60.5 45.5t-23.5 85.5t23.5 88.5t68 53.5t107 26.5t139.5 7.5v41q0 40 -22 56.5t-62 16.5q-36 0 -61 -16t-25 -47v-7h-151q-1 3 -1 7.5v9.5q0 43 28 77t79.5 53t120.5 19h25q112 0 167 -43.5t55 -115.5v-236q0 -19 9.5 -27.5t20.5 -8.5
q10 0 20 3.5t19 7.5v-89q-13 -10 -35 -16t-56 -6q-38 0 -64.5 11.5t-40.5 30.5t-18 44q-28 -36 -73 -61t-111 -25zM274 90q25 0 47.5 11.5t36.5 34t14 55.5v41q-58 0 -97 -8t-58.5 -25t-19.5 -47q0 -35 21.5 -48.5t55.5 -13.5zM285 601q-61 0 -102 17.5t-62 48.5t-21 70h87
q7 -28 31.5 -42t69.5 -14t69.5 14t30.5 42h87q0 -39 -22.5 -70t-64.5 -48.5t-103 -17.5zM98 778q0 35 14.5 64.5t41 46.5t63.5 17q33 0 56 -8.5t43.5 -17.5t45.5 -9q20 0 33 9.5t18 25.5h65q0 -34 -14.5 -63.5t-41 -47t-63.5 -17.5q-32 0 -54.5 9t-43 18t-47.5 9
q-20 0 -32.5 -9.5t-17.5 -26.5h-66z" />
    <glyph glyph-name="uni01CE" unicode="&#x1ce;" horiz-adv-x="613" 
d="M196 -10q-41 0 -78 14t-60.5 45.5t-23.5 85.5t23.5 88.5t68 53.5t107 26.5t139.5 7.5v41q0 40 -22 56.5t-62 16.5q-36 0 -61 -16t-25 -47v-7h-151q-1 3 -1 7.5v9.5q0 43 28 77t79.5 53t120.5 19h25q112 0 167 -43.5t55 -115.5v-236q0 -19 9.5 -27.5t20.5 -8.5
q10 0 20 3.5t19 7.5v-89q-13 -10 -35 -16t-56 -6q-38 0 -64.5 11.5t-40.5 30.5t-18 44q-28 -36 -73 -61t-111 -25zM274 90q25 0 47.5 11.5t36.5 34t14 55.5v41q-58 0 -97 -8t-58.5 -25t-19.5 -47q0 -35 21.5 -48.5t55.5 -13.5zM482 762l-132 -179h-124l-132 179h116
l114 -158h-71l114 158h115z" />
    <glyph glyph-name="acircumflex" unicode="&#xe2;" horiz-adv-x="613" 
d="M196 -10q-41 0 -78 14t-60.5 45.5t-23.5 85.5t23.5 88.5t68 53.5t107 26.5t139.5 7.5v41q0 40 -22 56.5t-62 16.5q-36 0 -61 -16t-25 -47v-7h-151q-1 3 -1 7.5v9.5q0 43 28 77t79.5 53t120.5 19h25q112 0 167 -43.5t55 -115.5v-236q0 -19 9.5 -27.5t20.5 -8.5
q10 0 20 3.5t19 7.5v-89q-13 -10 -35 -16t-56 -6q-38 0 -64.5 11.5t-40.5 30.5t-18 44q-28 -36 -73 -61t-111 -25zM274 90q25 0 47.5 11.5t36.5 34t14 55.5v41q-58 0 -97 -8t-58.5 -25t-19.5 -47q0 -35 21.5 -48.5t55.5 -13.5zM94 581l132 179h124l132 -179h-116l-117 158
h77l-117 -158h-115z" />
    <glyph glyph-name="uni1EA5" unicode="&#x1ea5;" horiz-adv-x="613" 
d="M196 -10q-41 0 -78 14t-60.5 45.5t-23.5 85.5t23.5 88.5t68 53.5t107 26.5t139.5 7.5v41q0 40 -22 56.5t-62 16.5q-36 0 -61 -16t-25 -47v-7h-151q-1 3 -1 7.5v9.5q0 43 28 77t79.5 53t120.5 19h25q112 0 167 -43.5t55 -115.5v-236q0 -19 9.5 -27.5t20.5 -8.5
q10 0 20 3.5t19 7.5v-89q-13 -10 -35 -16t-56 -6q-38 0 -64.5 11.5t-40.5 30.5t-18 44q-28 -36 -73 -61t-111 -25zM274 90q25 0 47.5 11.5t36.5 34t14 55.5v41q-58 0 -97 -8t-58.5 -25t-19.5 -47q0 -35 21.5 -48.5t55.5 -13.5zM96 591l137 146h109l138 -146h-106l-87 76
l-87 -76h-104zM239 782l92 145h128l1 -3l-122 -142h-99z" />
    <glyph glyph-name="uni1EAD" unicode="&#x1ead;" horiz-adv-x="613" 
d="M196 -10q-41 0 -78 14t-60.5 45.5t-23.5 85.5t23.5 88.5t68 53.5t107 26.5t139.5 7.5v41q0 40 -22 56.5t-62 16.5q-36 0 -61 -16t-25 -47v-7h-151q-1 3 -1 7.5v9.5q0 43 28 77t79.5 53t120.5 19h25q112 0 167 -43.5t55 -115.5v-236q0 -19 9.5 -27.5t20.5 -8.5
q10 0 20 3.5t19 7.5v-89q-13 -10 -35 -16t-56 -6q-38 0 -64.5 11.5t-40.5 30.5t-18 44q-28 -36 -73 -61t-111 -25zM274 90q25 0 47.5 11.5t36.5 34t14 55.5v41q-58 0 -97 -8t-58.5 -25t-19.5 -47q0 -35 21.5 -48.5t55.5 -13.5zM242 -183v122h124v-122h-124zM94 581l132 179
h124l132 -179h-116l-117 158h77l-117 -158h-115z" />
    <glyph glyph-name="uni1EA7" unicode="&#x1ea7;" horiz-adv-x="613" 
d="M196 -10q-41 0 -78 14t-60.5 45.5t-23.5 85.5t23.5 88.5t68 53.5t107 26.5t139.5 7.5v41q0 40 -22 56.5t-62 16.5q-36 0 -61 -16t-25 -47v-7h-151q-1 3 -1 7.5v9.5q0 43 28 77t79.5 53t120.5 19h25q112 0 167 -43.5t55 -115.5v-236q0 -19 9.5 -27.5t20.5 -8.5
q10 0 20 3.5t19 7.5v-89q-13 -10 -35 -16t-56 -6q-38 0 -64.5 11.5t-40.5 30.5t-18 44q-28 -36 -73 -61t-111 -25zM274 90q25 0 47.5 11.5t36.5 34t14 55.5v41q-58 0 -97 -8t-58.5 -25t-19.5 -47q0 -35 21.5 -48.5t55.5 -13.5zM96 591l138 146h109l137 -146h-105l-87 76
l-87 -76h-105zM240 782l-122 142l1 3h128l92 -145h-99z" />
    <glyph glyph-name="uni1EA9" unicode="&#x1ea9;" horiz-adv-x="613" 
d="M196 -10q-41 0 -78 14t-60.5 45.5t-23.5 85.5t23.5 88.5t68 53.5t107 26.5t139.5 7.5v41q0 40 -22 56.5t-62 16.5q-36 0 -61 -16t-25 -47v-7h-151q-1 3 -1 7.5v9.5q0 43 28 77t79.5 53t120.5 19h25q112 0 167 -43.5t55 -115.5v-236q0 -19 9.5 -27.5t20.5 -8.5
q10 0 20 3.5t19 7.5v-89q-13 -10 -35 -16t-56 -6q-38 0 -64.5 11.5t-40.5 30.5t-18 44q-28 -36 -73 -61t-111 -25zM274 90q25 0 47.5 11.5t36.5 34t14 55.5v41q-58 0 -97 -8t-58.5 -25t-19.5 -47q0 -35 21.5 -48.5t55.5 -13.5zM97 591l137 147h109l138 -147h-106l-87 77
l-87 -77h-104zM268 778v56q24 3 37.5 14t13.5 29q0 15 -11.5 23.5t-30.5 8.5q-11 0 -25 -2.5t-30 -7.5v74q15 5 30.5 6.5t29.5 1.5q46 0 77 -24t31 -69q0 -31 -18 -55.5t-45.5 -38.5t-58.5 -16z" />
    <glyph glyph-name="uni1EAB" unicode="&#x1eab;" horiz-adv-x="613" 
d="M196 -10q-41 0 -78 14t-60.5 45.5t-23.5 85.5t23.5 88.5t68 53.5t107 26.5t139.5 7.5v41q0 40 -22 56.5t-62 16.5q-36 0 -61 -16t-25 -47v-7h-151q-1 3 -1 7.5v9.5q0 43 28 77t79.5 53t120.5 19h25q112 0 167 -43.5t55 -115.5v-236q0 -19 9.5 -27.5t20.5 -8.5
q10 0 20 3.5t19 7.5v-89q-13 -10 -35 -16t-56 -6q-38 0 -64.5 11.5t-40.5 30.5t-18 44q-28 -36 -73 -61t-111 -25zM274 90q25 0 47.5 11.5t36.5 34t14 55.5v41q-58 0 -97 -8t-58.5 -25t-19.5 -47q0 -35 21.5 -48.5t55.5 -13.5zM96 591l137 146h109l138 -146h-106l-87 76
l-87 -76h-104zM98 776q0 35 14 64t41 46.5t63 17.5q33 0 56 -9t44 -18t46 -9q19 0 32.5 9.5t17.5 26.5h65q0 -35 -14 -64t-40.5 -46.5t-63.5 -17.5q-32 0 -55 8.5t-43.5 17.5t-47.5 10q-19 0 -32 -10t-18 -26h-65z" />
    <glyph glyph-name="uni0201" unicode="&#x201;" horiz-adv-x="613" 
d="M196 -10q-41 0 -78 14t-60.5 45.5t-23.5 85.5t23.5 88.5t68 53.5t107 26.5t139.5 7.5v41q0 40 -22 56.5t-62 16.5q-36 0 -61 -16t-25 -47v-7h-151q-1 3 -1 7.5v9.5q0 43 28 77t79.5 53t120.5 19h25q112 0 167 -43.5t55 -115.5v-236q0 -19 9.5 -27.5t20.5 -8.5
q10 0 20 3.5t19 7.5v-89q-13 -10 -35 -16t-56 -6q-38 0 -64.5 11.5t-40.5 30.5t-18 44q-28 -36 -73 -61t-111 -25zM274 90q25 0 47.5 11.5t36.5 34t14 55.5v41q-58 0 -97 -8t-58.5 -25t-19.5 -47q0 -35 21.5 -48.5t55.5 -13.5zM345 592l-122 142l4 3h127l93 -145h-102z
M149 592l-122 142l2 3h129l92 -145h-101z" />
    <glyph glyph-name="adieresis" unicode="&#xe4;" horiz-adv-x="613" 
d="M196 -10q-41 0 -78 14t-60.5 45.5t-23.5 85.5t23.5 88.5t68 53.5t107 26.5t139.5 7.5v41q0 40 -22 56.5t-62 16.5q-36 0 -61 -16t-25 -47v-7h-151q-1 3 -1 7.5v9.5q0 43 28 77t79.5 53t120.5 19h25q112 0 167 -43.5t55 -115.5v-236q0 -19 9.5 -27.5t20.5 -8.5
q10 0 20 3.5t19 7.5v-89q-13 -10 -35 -16t-56 -6q-38 0 -64.5 11.5t-40.5 30.5t-18 44q-28 -36 -73 -61t-111 -25zM274 90q25 0 47.5 11.5t36.5 34t14 55.5v41q-58 0 -97 -8t-58.5 -25t-19.5 -47q0 -35 21.5 -48.5t55.5 -13.5zM106 606v122h124v-122h-124zM346 606v122h124
v-122h-124z" />
    <glyph glyph-name="uni1EA1" unicode="&#x1ea1;" horiz-adv-x="613" 
d="M196 -10q-41 0 -78 14t-60.5 45.5t-23.5 85.5t23.5 88.5t68 53.5t107 26.5t139.5 7.5v41q0 40 -22 56.5t-62 16.5q-36 0 -61 -16t-25 -47v-7h-151q-1 3 -1 7.5v9.5q0 43 28 77t79.5 53t120.5 19h25q112 0 167 -43.5t55 -115.5v-236q0 -19 9.5 -27.5t20.5 -8.5
q10 0 20 3.5t19 7.5v-89q-13 -10 -35 -16t-56 -6q-38 0 -64.5 11.5t-40.5 30.5t-18 44q-28 -36 -73 -61t-111 -25zM274 90q25 0 47.5 11.5t36.5 34t14 55.5v41q-58 0 -97 -8t-58.5 -25t-19.5 -47q0 -35 21.5 -48.5t55.5 -13.5zM242 -183v122h124v-122h-124z" />
    <glyph glyph-name="agrave" unicode="&#xe0;" horiz-adv-x="613" 
d="M196 -10q-41 0 -78 14t-60.5 45.5t-23.5 85.5t23.5 88.5t68 53.5t107 26.5t139.5 7.5v41q0 40 -22 56.5t-62 16.5q-36 0 -61 -16t-25 -47v-7h-151q-1 3 -1 7.5v9.5q0 43 28 77t79.5 53t120.5 19h25q112 0 167 -43.5t55 -115.5v-236q0 -19 9.5 -27.5t20.5 -8.5
q10 0 20 3.5t19 7.5v-89q-13 -10 -35 -16t-56 -6q-38 0 -64.5 11.5t-40.5 30.5t-18 44q-28 -36 -73 -61t-111 -25zM274 90q25 0 47.5 11.5t36.5 34t14 55.5v41q-58 0 -97 -8t-58.5 -25t-19.5 -47q0 -35 21.5 -48.5t55.5 -13.5zM238 586l-114 171l1 3h134l85 -174h-106z" />
    <glyph glyph-name="uni1EA3" unicode="&#x1ea3;" horiz-adv-x="613" 
d="M196 -10q-41 0 -78 14t-60.5 45.5t-23.5 85.5t23.5 88.5t68 53.5t107 26.5t139.5 7.5v41q0 40 -22 56.5t-62 16.5q-36 0 -61 -16t-25 -47v-7h-151q-1 3 -1 7.5v9.5q0 43 28 77t79.5 53t120.5 19h25q112 0 167 -43.5t55 -115.5v-236q0 -19 9.5 -27.5t20.5 -8.5
q10 0 20 3.5t19 7.5v-89q-13 -10 -35 -16t-56 -6q-38 0 -64.5 11.5t-40.5 30.5t-18 44q-28 -36 -73 -61t-111 -25zM274 90q25 0 47.5 11.5t36.5 34t14 55.5v41q-58 0 -97 -8t-58.5 -25t-19.5 -47q0 -35 21.5 -48.5t55.5 -13.5zM278 570v70q30 3 46 15.5t16 35.5
q0 19 -13.5 29t-36.5 10q-14 0 -31 -2.5t-38 -9.5v91q20 6 38.5 8t36.5 2q56 0 94 -29.5t38 -84.5q0 -39 -22 -68.5t-56 -47t-72 -19.5z" />
    <glyph glyph-name="uni0203" unicode="&#x203;" horiz-adv-x="613" 
d="M196 -10q-41 0 -78 14t-60.5 45.5t-23.5 85.5t23.5 88.5t68 53.5t107 26.5t139.5 7.5v41q0 40 -22 56.5t-62 16.5q-36 0 -61 -16t-25 -47v-7h-151q-1 3 -1 7.5v9.5q0 43 28 77t79.5 53t120.5 19h25q112 0 167 -43.5t55 -115.5v-236q0 -19 9.5 -27.5t20.5 -8.5
q10 0 20 3.5t19 7.5v-89q-13 -10 -35 -16t-56 -6q-38 0 -64.5 11.5t-40.5 30.5t-18 44q-28 -36 -73 -61t-111 -25zM274 90q25 0 47.5 11.5t36.5 34t14 55.5v41q-58 0 -97 -8t-58.5 -25t-19.5 -47q0 -35 21.5 -48.5t55.5 -13.5zM100 596q0 39 23.5 70t66.5 48.5t102 17.5
q62 0 102.5 -17.5t60.5 -48.5t20 -70h-87q-6 28 -30 42t-70 14q-45 0 -69.5 -14t-31.5 -42h-87z" />
    <glyph glyph-name="amacron" unicode="&#x101;" horiz-adv-x="613" 
d="M196 -10q-41 0 -78 14t-60.5 45.5t-23.5 85.5t23.5 88.5t68 53.5t107 26.5t139.5 7.5v41q0 40 -22 56.5t-62 16.5q-36 0 -61 -16t-25 -47v-7h-151q-1 3 -1 7.5v9.5q0 43 28 77t79.5 53t120.5 19h25q112 0 167 -43.5t55 -115.5v-236q0 -19 9.5 -27.5t20.5 -8.5
q10 0 20 3.5t19 7.5v-89q-13 -10 -35 -16t-56 -6q-38 0 -64.5 11.5t-40.5 30.5t-18 44q-28 -36 -73 -61t-111 -25zM274 90q25 0 47.5 11.5t36.5 34t14 55.5v41q-58 0 -97 -8t-58.5 -25t-19.5 -47q0 -35 21.5 -48.5t55.5 -13.5zM116 613v83h344v-83h-344z" />
    <glyph glyph-name="aogonek" unicode="&#x105;" horiz-adv-x="613" 
d="M196 -10q-41 0 -78 14t-60.5 45.5t-23.5 85.5t23.5 88.5t68 53.5t107 26.5t139.5 7.5v41q0 40 -22 56.5t-62 16.5q-36 0 -61 -16t-25 -47v-7h-151q-1 3 -1 7.5v9.5q0 43 28 77t79.5 53t120.5 19h25q112 0 167 -43.5t55 -115.5v-236q0 -19 9.5 -27.5t20.5 -8.5
q10 0 20 3.5t19 7.5v-89q-13 -10 -35 -16t-56 -6q-38 0 -64.5 11.5t-40.5 30.5t-18 44q-28 -36 -73 -61t-111 -25zM274 90q25 0 47.5 11.5t36.5 34t14 55.5v41q-58 0 -97 -8t-58.5 -25t-19.5 -47q0 -35 21.5 -48.5t55.5 -13.5zM537 -146q-25 0 -48.5 7.5t-38.5 24t-15 43.5
q0 24 13.5 42.5t30.5 28.5h92q-19 -11 -32 -24t-13 -30q0 -19 12 -26.5t28 -7.5q15 0 31 4t30 9l14 -44q-23 -13 -49.5 -20t-54.5 -7z" />
    <glyph glyph-name="aring" unicode="&#xe5;" horiz-adv-x="613" 
d="M196 -10q-41 0 -78 14t-60.5 45.5t-23.5 85.5t23.5 88.5t68 53.5t107 26.5t139.5 7.5v41q0 40 -22 56.5t-62 16.5q-36 0 -61 -16t-25 -47v-7h-151q-1 3 -1 7.5v9.5q0 43 28 77t79.5 53t120.5 19h25q112 0 167 -43.5t55 -115.5v-236q0 -19 9.5 -27.5t20.5 -8.5
q10 0 20 3.5t19 7.5v-89q-13 -10 -35 -16t-56 -6q-38 0 -64.5 11.5t-40.5 30.5t-18 44q-28 -36 -73 -61t-111 -25zM274 90q25 0 47.5 11.5t36.5 34t14 55.5v41q-58 0 -97 -8t-58.5 -25t-19.5 -47q0 -35 21.5 -48.5t55.5 -13.5zM287 572q-45 0 -75 28t-30 74t30.5 75t76.5 29
q45 0 75 -28.5t30 -74.5q0 -45 -30.5 -74t-76.5 -29zM288 633q18 0 29 12.5t11 29.5t-11.5 29t-28.5 12q-19 0 -30 -12t-11 -30q0 -17 11.5 -29t29.5 -12z" />
    <glyph glyph-name="aringacute" unicode="&#x1fb;" horiz-adv-x="613" 
d="M196 -10q-41 0 -78 14t-60.5 45.5t-23.5 85.5t23.5 88.5t68 53.5t107 26.5t139.5 7.5v41q0 40 -22 56.5t-62 16.5q-36 0 -61 -16t-25 -47v-7h-151q-1 3 -1 7.5v9.5q0 43 28 77t79.5 53t120.5 19h25q112 0 167 -43.5t55 -115.5v-236q0 -19 9.5 -27.5t20.5 -8.5
q10 0 20 3.5t19 7.5v-89q-13 -10 -35 -16t-56 -6q-38 0 -64.5 11.5t-40.5 30.5t-18 44q-28 -36 -73 -61t-111 -25zM274 90q25 0 47.5 11.5t36.5 34t14 55.5v41q-58 0 -97 -8t-58.5 -25t-19.5 -47q0 -35 21.5 -48.5t55.5 -13.5zM245 830l64 131h110l1 -2l-91 -129h-84z
M288 572q-45 0 -75 28t-30 74t31 75t76 29t75 -28.5t30 -74.5q0 -45 -30.5 -74t-76.5 -29zM289 633q19 0 30 12.5t11 29.5t-11.5 29t-29.5 12t-29 -12t-11 -30q0 -17 11.5 -29t28.5 -12z" />
    <glyph glyph-name="atilde" unicode="&#xe3;" horiz-adv-x="613" 
d="M196 -10q-41 0 -78 14t-60.5 45.5t-23.5 85.5t23.5 88.5t68 53.5t107 26.5t139.5 7.5v41q0 40 -22 56.5t-62 16.5q-36 0 -61 -16t-25 -47v-7h-151q-1 3 -1 7.5v9.5q0 43 28 77t79.5 53t120.5 19h25q112 0 167 -43.5t55 -115.5v-236q0 -19 9.5 -27.5t20.5 -8.5
q10 0 20 3.5t19 7.5v-89q-13 -10 -35 -16t-56 -6q-38 0 -64.5 11.5t-40.5 30.5t-18 44q-28 -36 -73 -61t-111 -25zM274 90q25 0 47.5 11.5t36.5 34t14 55.5v41q-58 0 -97 -8t-58.5 -25t-19.5 -47q0 -35 21.5 -48.5t55.5 -13.5zM86 591q2 42 16.5 77.5t41 56t64.5 20.5
q37 0 64.5 -14t50.5 -28.5t45 -14.5q23 0 36 15.5t18 42.5h68q-2 -42 -16.5 -77.5t-40.5 -56.5t-64 -21q-37 0 -65.5 14.5t-51.5 29t-46 14.5q-21 0 -33.5 -15.5t-17.5 -42.5h-69z" />
    <glyph glyph-name="ae" unicode="&#xe6;" horiz-adv-x="915" 
d="M204 -10q-43 0 -82 13.5t-63.5 45.5t-24.5 85q0 54 23.5 88.5t68 54t107 27t139.5 7.5v41q0 40 -22.5 56.5t-61.5 16.5q-36 0 -61.5 -16t-25.5 -47v-7h-150q-1 3 -1.5 7.5t-0.5 9.5q0 43 28.5 77t79.5 53t120 19h25q59 0 99 -16t64 -49q30 33 68.5 49t88.5 16h19
q72 0 124 -28t80.5 -78.5t28.5 -116.5v-63h-341q0 -42 9.5 -74.5t31.5 -51.5t60 -19q28 0 49 12t32.5 34.5t11.5 54.5h146q0 -58 -28.5 -103.5t-81 -71.5t-124.5 -26h-12q-69 0 -117.5 28t-81.5 77q-28 -33 -61 -56.5t-72.5 -36t-90.5 -12.5zM274 90q25 0 47.5 11.5t36.5 34
t14 55.5v41q-58 0 -97 -8t-58.5 -25t-19.5 -47q0 -35 21 -48.5t56 -13.5zM533 311h186q0 57 -25 83.5t-66 26.5q-40 0 -66.5 -28t-28.5 -82z" />
    <glyph glyph-name="aeacute" unicode="&#x1fd;" horiz-adv-x="915" 
d="M204 -10q-43 0 -82 13.5t-63.5 45.5t-24.5 85q0 54 23.5 88.5t68 54t107 27t139.5 7.5v41q0 40 -22.5 56.5t-61.5 16.5q-36 0 -61.5 -16t-25.5 -47v-7h-150q-1 3 -1.5 7.5t-0.5 9.5q0 43 28.5 77t79.5 53t120 19h25q59 0 99 -16t64 -49q30 33 68.5 49t88.5 16h19
q72 0 124 -28t80.5 -78.5t28.5 -116.5v-63h-341q0 -42 9.5 -74.5t31.5 -51.5t60 -19q28 0 49 12t32.5 34.5t11.5 54.5h146q0 -58 -28.5 -103.5t-81 -71.5t-124.5 -26h-12q-69 0 -117.5 28t-81.5 77q-28 -33 -61 -56.5t-72.5 -36t-90.5 -12.5zM274 90q25 0 47.5 11.5t36.5 34
t14 55.5v41q-58 0 -97 -8t-58.5 -25t-19.5 -47q0 -35 21 -48.5t56 -13.5zM533 311h186q0 57 -25 83.5t-66 26.5q-40 0 -66.5 -28t-28.5 -82zM406 586l85 174h134l1 -3l-114 -171h-106z" />
    <glyph glyph-name="b" unicode="b" horiz-adv-x="601" 
d="M343 -10q-111 0 -170 88l-54 -78h-57v720h157v-267q23 30 58 49t86 19q54 0 99.5 -25.5t72.5 -80t27 -140.5v-22q0 -89 -30.5 -147.5t-80 -87t-108.5 -28.5zM308 90q25 0 44.5 13t31 38t11.5 62v108q0 34 -11 58t-30 36.5t-44 12.5t-45.5 -12.5t-33 -36.5t-12.5 -59v-108
q0 -37 12 -62t32.5 -37.5t44.5 -12.5z" />
    <glyph glyph-name="c" unicode="c" horiz-adv-x="563" 
d="M276 -10q-65 0 -119 32.5t-86 89t-32 127.5v34q0 54 19 99t52.5 78.5t77 52t93.5 18.5h22q71 0 121.5 -27t77.5 -75t27 -112h-136q0 38 -11 63.5t-31 38t-50 12.5q-40 0 -67.5 -27.5t-27.5 -77.5v-119q0 -50 25.5 -78.5t71.5 -28.5q33 0 54.5 11t32.5 36t11 67h128
q0 -68 -29.5 -116t-81.5 -73t-120 -25h-22z" />
    <glyph glyph-name="cacute" unicode="&#x107;" horiz-adv-x="563" 
d="M276 -10q-65 0 -119 32.5t-86 89t-32 127.5v34q0 54 19 99t52.5 78.5t77 52t93.5 18.5h22q71 0 121.5 -27t77.5 -75t27 -112h-136q0 38 -11 63.5t-31 38t-50 12.5q-40 0 -67.5 -27.5t-27.5 -77.5v-119q0 -50 25.5 -78.5t71.5 -28.5q33 0 54.5 11t32.5 36t11 67h128
q0 -68 -29.5 -116t-81.5 -73t-120 -25h-22zM241 586l85 174h134l1 -3l-114 -171h-106z" />
    <glyph glyph-name="ccaron" unicode="&#x10d;" horiz-adv-x="563" 
d="M276 -10q-65 0 -119 32.5t-86 89t-32 127.5v34q0 54 19 99t52.5 78.5t77 52t93.5 18.5h22q71 0 121.5 -27t77.5 -75t27 -112h-136q0 38 -11 63.5t-31 38t-50 12.5q-40 0 -67.5 -27.5t-27.5 -77.5v-119q0 -50 25.5 -78.5t71.5 -28.5q33 0 54.5 11t32.5 36t11 67h128
q0 -68 -29.5 -116t-81.5 -73t-120 -25h-22zM491 762l-132 -179h-124l-132 179h116l114 -158h-71l114 158h115z" />
    <glyph glyph-name="ccedilla" unicode="&#xe7;" horiz-adv-x="563" 
d="M276 -10q-65 0 -119 32.5t-86 89t-32 127.5v34q0 54 19 99t52.5 78.5t77 52t93.5 18.5h22q71 0 121.5 -27t77.5 -75t27 -112h-136q0 38 -11 63.5t-31 38t-50 12.5q-40 0 -67.5 -27.5t-27.5 -77.5v-119q0 -50 25.5 -78.5t71.5 -28.5q33 0 54.5 11t32.5 36t11 67h128
q0 -68 -29.5 -116t-81.5 -73t-120 -25h-22zM294 -210q-29 0 -58 7.5t-50 21.5l23 56q14 -10 32.5 -18t47.5 -8q20 0 33.5 8.5t13.5 26.5q0 16 -11 23t-27 7h-21v56h31q28 0 53 -8t41 -27t16 -52q0 -34 -19.5 -54.5t-48 -29.5t-56.5 -9z" />
    <glyph glyph-name="ccircumflex" unicode="&#x109;" horiz-adv-x="563" 
d="M276 -10q-65 0 -119 32.5t-86 89t-32 127.5v34q0 54 19 99t52.5 78.5t77 52t93.5 18.5h22q71 0 121.5 -27t77.5 -75t27 -112h-136q0 38 -11 63.5t-31 38t-50 12.5q-40 0 -67.5 -27.5t-27.5 -77.5v-119q0 -50 25.5 -78.5t71.5 -28.5q33 0 54.5 11t32.5 36t11 67h128
q0 -68 -29.5 -116t-81.5 -73t-120 -25h-22zM103 581l132 179h124l132 -179h-116l-117 158h77l-117 -158h-115z" />
    <glyph glyph-name="cdotaccent" unicode="&#x10b;" horiz-adv-x="563" 
d="M276 -10q-65 0 -119 32.5t-86 89t-32 127.5v34q0 54 19 99t52.5 78.5t77 52t93.5 18.5h22q71 0 121.5 -27t77.5 -75t27 -112h-136q0 38 -11 63.5t-31 38t-50 12.5q-40 0 -67.5 -27.5t-27.5 -77.5v-119q0 -50 25.5 -78.5t71.5 -28.5q33 0 54.5 11t32.5 36t11 67h128
q0 -68 -29.5 -116t-81.5 -73t-120 -25h-22zM236 608v122h124v-122h-124z" />
    <glyph glyph-name="d" unicode="d" horiz-adv-x="602" 
d="M246 -10q-62 0 -108.5 28.5t-72.5 87t-26 147.5v11q0 86 28 143t74.5 85.5t100.5 28.5q53 0 88 -19.5t53 -48.5v267h157v-720h-124l-16 66q-23 -31 -60.5 -53.5t-93.5 -22.5zM294 90q25 0 45 12.5t32 37.5t12 62v108q0 35 -12 59t-32 36.5t-45 12.5q-37 0 -62.5 -28.5
t-25.5 -79.5v-107q0 -37 11.5 -62t31.5 -38t45 -13z" />
    <glyph glyph-name="eth" unicode="&#xf0;" horiz-adv-x="604" 
d="M290 -10q-72 0 -129 32t-89.5 89.5t-32.5 134.5v19q0 67 25.5 124.5t72.5 92.5t109 35q19 0 36.5 -2.5t30.5 -7.5q-12 18 -34.5 40.5t-45.5 43.5l-76 -36l-50 43l82 39q-19 17 -41 32.5t-43 24.5l93 41q23 -10 47 -22t47 -27l80 38l46 -44l-70 -33q61 -47 110.5 -108.5
t78 -131t28.5 -142.5v-19q0 -77 -32.5 -134.5t-89 -89.5t-129.5 -32h-24zM302 90q27 0 48.5 13t34.5 37.5t13 57.5v115q0 34 -13 58t-34.5 37t-48.5 13t-48.5 -13t-34.5 -37t-13 -58v-115q0 -33 13 -57.5t34.5 -37.5t48.5 -13z" />
    <glyph glyph-name="dcaron" unicode="&#x10f;" horiz-adv-x="700" 
d="M624 386l33 147h-67v151h156v-132l-45 -166h-77zM246 -10q-62 0 -108.5 28.5t-72.5 87t-26 147.5v11q0 86 28 143t74.5 85.5t100.5 28.5q53 0 88 -19.5t53 -48.5v267h157v-720h-124l-16 66q-23 -31 -60.5 -53.5t-93.5 -22.5zM294 90q25 0 45 12.5t32 37.5t12 62v108
q0 35 -12 59t-32 36.5t-45 12.5q-37 0 -62.5 -28.5t-25.5 -79.5v-107q0 -37 11.5 -62t31.5 -38t45 -13z" />
    <glyph glyph-name="dcroat" unicode="&#x111;" horiz-adv-x="602" 
d="M246 -10q-62 0 -108.5 28.5t-72.5 87t-26 147.5v11q0 86 28 143t74.5 85.5t100.5 28.5q53 0 88 -19.5t53 -48.5v267h157v-720h-124l-16 66q-23 -31 -60.5 -53.5t-93.5 -22.5zM294 90q25 0 45 12.5t32 37.5t12 62v108q0 35 -12 59t-32 36.5t-45 12.5q-37 0 -62.5 -28.5
t-25.5 -79.5v-107q0 -37 11.5 -62t31.5 -38t45 -13zM215 566v103h379v-103h-379z" />
    <glyph glyph-name="uni01C6" unicode="&#x1c6;" horiz-adv-x="1090" 
d="M246 -10q-62 0 -108.5 28.5t-72.5 87t-26 147.5v11q0 86 28 143t74.5 85.5t100.5 28.5q53 0 88 -19.5t53 -48.5v267h157v-720h-124l-16 66q-23 -31 -60.5 -53.5t-93.5 -22.5zM294 90q25 0 45 12.5t32 37.5t12 62v108q0 35 -12 59t-32 36.5t-45 12.5q-37 0 -62.5 -28.5
t-25.5 -79.5v-107q0 -37 11.5 -62t31.5 -38t45 -13zM632 0v52l213 357h-200v102h406v-50l-214 -358h222v-103h-427zM1051 762l-132 -179h-124l-132 179h116l114 -158h-71l114 158h115z" />
    <glyph glyph-name="e" unicode="e" horiz-adv-x="589" 
d="M294 -10q-75 0 -132.5 29.5t-90 86t-32.5 136.5v27q0 81 33.5 137.5t91.5 85.5t133 29h19q72 0 124 -28t80 -78.5t28 -116.5v-63h-342q0 -42 9.5 -75t31 -51.5t56.5 -18.5q31 0 52.5 12t33.5 34.5t12 54.5h146q0 -58 -30.5 -103.5t-84.5 -71.5t-126 -26h-12zM206 311h187
q0 57 -25 83.5t-66 26.5t-67.5 -28t-28.5 -82z" />
    <glyph glyph-name="eacute" unicode="&#xe9;" horiz-adv-x="589" 
d="M294 -10q-75 0 -132.5 29.5t-90 86t-32.5 136.5v27q0 81 33.5 137.5t91.5 85.5t133 29h19q72 0 124 -28t80 -78.5t28 -116.5v-63h-342q0 -42 9.5 -75t31 -51.5t56.5 -18.5q31 0 52.5 12t33.5 34.5t12 54.5h146q0 -58 -30.5 -103.5t-84.5 -71.5t-126 -26h-12zM206 311h187
q0 57 -25 83.5t-66 26.5t-67.5 -28t-28.5 -82zM245 586l85 174h134l1 -3l-114 -171h-106z" />
    <glyph glyph-name="ebreve" unicode="&#x115;" horiz-adv-x="589" 
d="M294 -10q-75 0 -132.5 29.5t-90 86t-32.5 136.5v27q0 81 33.5 137.5t91.5 85.5t133 29h19q72 0 124 -28t80 -78.5t28 -116.5v-63h-342q0 -42 9.5 -75t31 -51.5t56.5 -18.5q31 0 52.5 12t33.5 34.5t12 54.5h146q0 -58 -30.5 -103.5t-84.5 -71.5t-126 -26h-12zM206 311h187
q0 57 -25 83.5t-66 26.5t-67.5 -28t-28.5 -82zM296 588q-60 0 -99 20.5t-58 55.5t-21 81h88q6 -39 29 -57.5t65 -18.5q44 0 67 18.5t30 57.5h87q-1 -46 -24 -81t-64 -55.5t-100 -20.5z" />
    <glyph glyph-name="ecaron" unicode="&#x11b;" horiz-adv-x="589" 
d="M294 -10q-75 0 -132.5 29.5t-90 86t-32.5 136.5v27q0 81 33.5 137.5t91.5 85.5t133 29h19q72 0 124 -28t80 -78.5t28 -116.5v-63h-342q0 -42 9.5 -75t31 -51.5t56.5 -18.5q31 0 52.5 12t33.5 34.5t12 54.5h146q0 -58 -30.5 -103.5t-84.5 -71.5t-126 -26h-12zM206 311h187
q0 57 -25 83.5t-66 26.5t-67.5 -28t-28.5 -82zM495 762l-132 -179h-124l-132 179h116l114 -158h-71l114 158h115z" />
    <glyph glyph-name="ecircumflex" unicode="&#xea;" horiz-adv-x="589" 
d="M294 -10q-75 0 -132.5 29.5t-90 86t-32.5 136.5v27q0 81 33.5 137.5t91.5 85.5t133 29h19q72 0 124 -28t80 -78.5t28 -116.5v-63h-342q0 -42 9.5 -75t31 -51.5t56.5 -18.5q31 0 52.5 12t33.5 34.5t12 54.5h146q0 -58 -30.5 -103.5t-84.5 -71.5t-126 -26h-12zM206 311h187
q0 57 -25 83.5t-66 26.5t-67.5 -28t-28.5 -82zM107 581l132 179h124l132 -179h-116l-117 158h77l-117 -158h-115z" />
    <glyph glyph-name="uni1EBF" unicode="&#x1ebf;" horiz-adv-x="589" 
d="M294 -10q-75 0 -132.5 29.5t-90 86t-32.5 136.5v27q0 81 33.5 137.5t91.5 85.5t133 29h19q72 0 124 -28t80 -78.5t28 -116.5v-63h-342q0 -42 9.5 -75t31 -51.5t56.5 -18.5q31 0 52.5 12t33.5 34.5t12 54.5h146q0 -58 -30.5 -103.5t-84.5 -71.5t-126 -26h-12zM206 311h187
q0 57 -25 83.5t-66 26.5t-67.5 -28t-28.5 -82zM109 591l137 146h109l138 -146h-106l-87 76l-87 -76h-104zM252 782l92 145h128l1 -3l-122 -142h-99z" />
    <glyph glyph-name="uni1EC7" unicode="&#x1ec7;" horiz-adv-x="589" 
d="M294 -10q-75 0 -132.5 29.5t-90 86t-32.5 136.5v27q0 81 33.5 137.5t91.5 85.5t133 29h19q72 0 124 -28t80 -78.5t28 -116.5v-63h-342q0 -42 9.5 -75t31 -51.5t56.5 -18.5q31 0 52.5 12t33.5 34.5t12 54.5h146q0 -58 -30.5 -103.5t-84.5 -71.5t-126 -26h-12zM206 311h187
q0 57 -25 83.5t-66 26.5t-67.5 -28t-28.5 -82zM248 -183v122h124v-122h-124zM107 581l132 179h124l132 -179h-116l-117 158h77l-117 -158h-115z" />
    <glyph glyph-name="uni1EC1" unicode="&#x1ec1;" horiz-adv-x="589" 
d="M294 -10q-75 0 -132.5 29.5t-90 86t-32.5 136.5v27q0 81 33.5 137.5t91.5 85.5t133 29h19q72 0 124 -28t80 -78.5t28 -116.5v-63h-342q0 -42 9.5 -75t31 -51.5t56.5 -18.5q31 0 52.5 12t33.5 34.5t12 54.5h146q0 -58 -30.5 -103.5t-84.5 -71.5t-126 -26h-12zM206 311h187
q0 57 -25 83.5t-66 26.5t-67.5 -28t-28.5 -82zM108 591l138 146h109l137 -146h-105l-87 76l-87 -76h-105zM252 782l-122 142l1 3h128l92 -145h-99z" />
    <glyph glyph-name="uni1EC3" unicode="&#x1ec3;" horiz-adv-x="589" 
d="M294 -10q-75 0 -132.5 29.5t-90 86t-32.5 136.5v27q0 81 33.5 137.5t91.5 85.5t133 29h19q72 0 124 -28t80 -78.5t28 -116.5v-63h-342q0 -42 9.5 -75t31 -51.5t56.5 -18.5q31 0 52.5 12t33.5 34.5t12 54.5h146q0 -58 -30.5 -103.5t-84.5 -71.5t-126 -26h-12zM206 311h187
q0 57 -25 83.5t-66 26.5t-67.5 -28t-28.5 -82zM110 591l137 147h109l138 -147h-106l-87 77l-87 -77h-104zM281 778v56q24 3 37.5 14t13.5 29q0 15 -11.5 23.5t-30.5 8.5q-11 0 -25 -2.5t-30 -7.5v74q15 5 30.5 6.5t29.5 1.5q46 0 77 -24t31 -69q0 -31 -18 -55.5t-45.5 -38.5
t-58.5 -16z" />
    <glyph glyph-name="uni1EC5" unicode="&#x1ec5;" horiz-adv-x="589" 
d="M294 -10q-75 0 -132.5 29.5t-90 86t-32.5 136.5v27q0 81 33.5 137.5t91.5 85.5t133 29h19q72 0 124 -28t80 -78.5t28 -116.5v-63h-342q0 -42 9.5 -75t31 -51.5t56.5 -18.5q31 0 52.5 12t33.5 34.5t12 54.5h146q0 -58 -30.5 -103.5t-84.5 -71.5t-126 -26h-12zM206 311h187
q0 57 -25 83.5t-66 26.5t-67.5 -28t-28.5 -82zM109 591l137 146h109l138 -146h-106l-87 76l-87 -76h-104zM111 776q0 35 14 64t41 46.5t63 17.5q33 0 56 -9t44 -18t46 -9q19 0 32.5 9.5t17.5 26.5h65q0 -35 -14 -64t-40.5 -46.5t-63.5 -17.5q-32 0 -55 8.5t-43.5 17.5
t-47.5 10q-19 0 -32 -10t-18 -26h-65z" />
    <glyph glyph-name="uni0205" unicode="&#x205;" horiz-adv-x="589" 
d="M294 -10q-75 0 -132.5 29.5t-90 86t-32.5 136.5v27q0 81 33.5 137.5t91.5 85.5t133 29h19q72 0 124 -28t80 -78.5t28 -116.5v-63h-342q0 -42 9.5 -75t31 -51.5t56.5 -18.5q31 0 52.5 12t33.5 34.5t12 54.5h146q0 -58 -30.5 -103.5t-84.5 -71.5t-126 -26h-12zM206 311h187
q0 57 -25 83.5t-66 26.5t-67.5 -28t-28.5 -82zM357 592l-122 142l4 3h127l93 -145h-102zM161 592l-122 142l2 3h129l92 -145h-101z" />
    <glyph glyph-name="edieresis" unicode="&#xeb;" horiz-adv-x="589" 
d="M294 -10q-75 0 -132.5 29.5t-90 86t-32.5 136.5v27q0 81 33.5 137.5t91.5 85.5t133 29h19q72 0 124 -28t80 -78.5t28 -116.5v-63h-342q0 -42 9.5 -75t31 -51.5t56.5 -18.5q31 0 52.5 12t33.5 34.5t12 54.5h146q0 -58 -30.5 -103.5t-84.5 -71.5t-126 -26h-12zM206 311h187
q0 57 -25 83.5t-66 26.5t-67.5 -28t-28.5 -82zM119 606v122h124v-122h-124zM359 606v122h124v-122h-124z" />
    <glyph glyph-name="edotaccent" unicode="&#x117;" horiz-adv-x="589" 
d="M294 -10q-75 0 -132.5 29.5t-90 86t-32.5 136.5v27q0 81 33.5 137.5t91.5 85.5t133 29h19q72 0 124 -28t80 -78.5t28 -116.5v-63h-342q0 -42 9.5 -75t31 -51.5t56.5 -18.5q31 0 52.5 12t33.5 34.5t12 54.5h146q0 -58 -30.5 -103.5t-84.5 -71.5t-126 -26h-12zM206 311h187
q0 57 -25 83.5t-66 26.5t-67.5 -28t-28.5 -82zM240 608v122h124v-122h-124z" />
    <glyph glyph-name="uni1EB9" unicode="&#x1eb9;" horiz-adv-x="589" 
d="M294 -10q-75 0 -132.5 29.5t-90 86t-32.5 136.5v27q0 81 33.5 137.5t91.5 85.5t133 29h19q72 0 124 -28t80 -78.5t28 -116.5v-63h-342q0 -42 9.5 -75t31 -51.5t56.5 -18.5q31 0 52.5 12t33.5 34.5t12 54.5h146q0 -58 -30.5 -103.5t-84.5 -71.5t-126 -26h-12zM206 311h187
q0 57 -25 83.5t-66 26.5t-67.5 -28t-28.5 -82zM248 -183v122h124v-122h-124z" />
    <glyph glyph-name="egrave" unicode="&#xe8;" horiz-adv-x="589" 
d="M294 -10q-75 0 -132.5 29.5t-90 86t-32.5 136.5v27q0 81 33.5 137.5t91.5 85.5t133 29h19q72 0 124 -28t80 -78.5t28 -116.5v-63h-342q0 -42 9.5 -75t31 -51.5t56.5 -18.5q31 0 52.5 12t33.5 34.5t12 54.5h146q0 -58 -30.5 -103.5t-84.5 -71.5t-126 -26h-12zM206 311h187
q0 57 -25 83.5t-66 26.5t-67.5 -28t-28.5 -82zM250 586l-114 171l1 3h134l85 -174h-106z" />
    <glyph glyph-name="uni1EBB" unicode="&#x1ebb;" horiz-adv-x="589" 
d="M294 -10q-75 0 -132.5 29.5t-90 86t-32.5 136.5v27q0 81 33.5 137.5t91.5 85.5t133 29h19q72 0 124 -28t80 -78.5t28 -116.5v-63h-342q0 -42 9.5 -75t31 -51.5t56.5 -18.5q31 0 52.5 12t33.5 34.5t12 54.5h146q0 -58 -30.5 -103.5t-84.5 -71.5t-126 -26h-12zM206 311h187
q0 57 -25 83.5t-66 26.5t-67.5 -28t-28.5 -82zM290 570v70q30 3 46 15.5t16 35.5q0 19 -13.5 29t-36.5 10q-14 0 -31 -2.5t-38 -9.5v91q20 6 38.5 8t36.5 2q56 0 94 -29.5t38 -84.5q0 -39 -22 -68.5t-56 -47t-72 -19.5z" />
    <glyph glyph-name="uni0207" unicode="&#x207;" horiz-adv-x="589" 
d="M294 -10q-75 0 -132.5 29.5t-90 86t-32.5 136.5v27q0 81 33.5 137.5t91.5 85.5t133 29h19q72 0 124 -28t80 -78.5t28 -116.5v-63h-342q0 -42 9.5 -75t31 -51.5t56.5 -18.5q31 0 52.5 12t33.5 34.5t12 54.5h146q0 -58 -30.5 -103.5t-84.5 -71.5t-126 -26h-12zM206 311h187
q0 57 -25 83.5t-66 26.5t-67.5 -28t-28.5 -82zM113 596q0 39 23.5 70t66.5 48.5t102 17.5q62 0 102.5 -17.5t60.5 -48.5t20 -70h-87q-6 28 -30 42t-70 14q-45 0 -69.5 -14t-31.5 -42h-87z" />
    <glyph glyph-name="emacron" unicode="&#x113;" horiz-adv-x="589" 
d="M294 -10q-75 0 -132.5 29.5t-90 86t-32.5 136.5v27q0 81 33.5 137.5t91.5 85.5t133 29h19q72 0 124 -28t80 -78.5t28 -116.5v-63h-342q0 -42 9.5 -75t31 -51.5t56.5 -18.5q31 0 52.5 12t33.5 34.5t12 54.5h146q0 -58 -30.5 -103.5t-84.5 -71.5t-126 -26h-12zM206 311h187
q0 57 -25 83.5t-66 26.5t-67.5 -28t-28.5 -82zM129 613v83h344v-83h-344z" />
    <glyph glyph-name="eogonek" unicode="&#x119;" horiz-adv-x="589" 
d="M294 -10q-75 0 -132.5 29.5t-90 86t-32.5 136.5v27q0 81 33.5 137.5t91.5 85.5t133 29h19q72 0 124 -28t80 -78.5t28 -116.5v-63h-342q0 -42 9.5 -75t31 -51.5t56.5 -18.5q31 0 52.5 12t33.5 34.5t12 54.5h146q0 -58 -30.5 -103.5t-84.5 -71.5t-126 -26h-12zM206 311h187
q0 57 -25 83.5t-66 26.5t-67.5 -28t-28.5 -82zM349 -146q-25 0 -48.5 7.5t-38.5 24t-15 43.5q0 24 13.5 42.5t30.5 28.5h92q-19 -11 -32 -24t-13 -30q0 -19 12 -26.5t28 -7.5q15 0 31 4t30 9l14 -44q-23 -13 -49.5 -20t-54.5 -7z" />
    <glyph glyph-name="uni1EBD" unicode="&#x1ebd;" horiz-adv-x="589" 
d="M294 -10q-75 0 -132.5 29.5t-90 86t-32.5 136.5v27q0 81 33.5 137.5t91.5 85.5t133 29h19q72 0 124 -28t80 -78.5t28 -116.5v-63h-342q0 -42 9.5 -75t31 -51.5t56.5 -18.5q31 0 52.5 12t33.5 34.5t12 54.5h146q0 -58 -30.5 -103.5t-84.5 -71.5t-126 -26h-12zM206 311h187
q0 57 -25 83.5t-66 26.5t-67.5 -28t-28.5 -82zM99 591q2 42 16.5 77.5t41 56t64.5 20.5q37 0 64.5 -14t50.5 -28.5t45 -14.5q23 0 36 15.5t18 42.5h68q-2 -42 -16.5 -77.5t-40.5 -56.5t-64 -21q-37 0 -65.5 14.5t-51.5 29t-46 14.5q-21 0 -33.5 -15.5t-17.5 -42.5h-69z" />
    <glyph glyph-name="uni0259" unicode="&#x259;" horiz-adv-x="589" 
d="M295 521q75 0 132.5 -29t90 -85.5t32.5 -137.5v-27q0 -80 -33.5 -136.5t-91.5 -86t-133 -29.5h-19q-71 0 -123.5 28.5t-80.5 79t-28 116.5v62h342q0 44 -9.5 76.5t-31 50.5t-56.5 18q-30 0 -52 -11.5t-34 -34t-12 -55.5h-146q0 59 30.5 104t84.5 71t126 26h12zM383 201
h-187q0 -57 25 -84t66 -27t67.5 28t28.5 83z" />
    <glyph glyph-name="f" unicode="f" horiz-adv-x="397" 
d="M96 0v396h-62v115h62v77q0 75 45 107.5t115 32.5q16 0 37.5 -2.5t43 -7t35.5 -10.5v-92q-11 4 -31 7.5t-31 3.5q-12 0 -25.5 -3.5t-22.5 -16t-9 -40.5v-56h120v-115h-120v-396h-157z" />
    <glyph glyph-name="g" unicode="g" horiz-adv-x="584" 
d="M147 -188q-34 0 -63 16.5t-47 44t-18 61.5q0 36 20 67t55 48q-22 14 -34.5 36.5t-12.5 48.5q0 37 25 64.5t62 39.5q-31 17 -52 45t-21 69q0 44 24 82.5t73 62.5t123 24q30 0 55 -2.5t44 -7.5q41 23 58 47.5t18 44.5h120q0 -36 -13 -62.5t-37 -43.5t-57 -26l-1 -3
q24 -20 39 -47t15 -59q0 -44 -25.5 -81t-70 -59t-102.5 -22h-73q-31 0 -46.5 -11.5t-15.5 -28.5q0 -18 14 -29.5t48 -11.5h168q74 0 115.5 -42t41.5 -105q0 -43 -22 -79.5t-61 -58.5t-90 -22h-256zM210 -93h163q25 0 42.5 15.5t17.5 38.5q0 20 -16 35t-39 15h-168
q-25 0 -41.5 -15t-16.5 -37q0 -21 16.5 -36.5t41.5 -15.5zM294 283q38 0 61 22.5t23 54.5t-23 55t-61 23t-61 -23t-23 -55t23 -54.5t61 -22.5z" />
    <glyph glyph-name="gbreve" unicode="&#x11f;" horiz-adv-x="584" 
d="M147 -188q-34 0 -63 16.5t-47 44t-18 61.5q0 36 20 67t55 48q-22 14 -34.5 36.5t-12.5 48.5q0 37 25 64.5t62 39.5q-31 17 -52 45t-21 69q0 44 24 82.5t73 62.5t123 24q30 0 55 -2.5t44 -7.5q41 23 58 47.5t18 44.5h120q0 -36 -13 -62.5t-37 -43.5t-57 -26l-1 -3
q24 -20 39 -47t15 -59q0 -44 -25.5 -81t-70 -59t-102.5 -22h-73q-31 0 -46.5 -11.5t-15.5 -28.5q0 -18 14 -29.5t48 -11.5h168q74 0 115.5 -42t41.5 -105q0 -43 -22 -79.5t-61 -58.5t-90 -22h-256zM210 -93h163q25 0 42.5 15.5t17.5 38.5q0 20 -16 35t-39 15h-168
q-25 0 -41.5 -15t-16.5 -37q0 -21 16.5 -36.5t41.5 -15.5zM294 283q38 0 61 22.5t23 54.5t-23 55t-61 23t-61 -23t-23 -55t23 -54.5t61 -22.5zM289 588q-60 0 -99 20.5t-58 55.5t-21 81h88q6 -39 29 -57.5t65 -18.5q44 0 67 18.5t30 57.5h87q-1 -46 -24 -81t-64 -55.5
t-100 -20.5z" />
    <glyph glyph-name="gcaron" unicode="&#x1e7;" horiz-adv-x="584" 
d="M147 -188q-34 0 -63 16.5t-47 44t-18 61.5q0 36 20 67t55 48q-22 14 -34.5 36.5t-12.5 48.5q0 37 25 64.5t62 39.5q-31 17 -52 45t-21 69q0 40 17.5 71.5t48.5 53t73 33t91 11.5q37 0 69.5 -5.5t54.5 -16.5q28 5 44 18t23 30.5t7 32.5h114q0 -56 -33 -86.5t-82 -40.5
l-1 -3q15 -16 25 -37t10 -51q0 -44 -25.5 -81t-70 -59t-102.5 -22h-73q-31 0 -46.5 -11.5t-15.5 -28.5q0 -18 14 -29.5t48 -11.5h168q74 0 115.5 -42t41.5 -105q0 -43 -21.5 -79.5t-60.5 -58.5t-90 -22h-257zM210 -93h163q25 0 42.5 15.5t17.5 38.5q0 20 -16 35t-39 15h-168
q-25 0 -41.5 -15t-16.5 -37q0 -21 16.5 -36.5t41.5 -15.5zM294 283q38 0 61 22.5t23 54.5t-23 55t-61 23t-61 -23t-23 -55t23 -54.5t61 -22.5zM214 593l-112 132h114l89 -102h-34l90 102h113l-112 -132h-148z" />
    <glyph glyph-name="gcircumflex" unicode="&#x11d;" horiz-adv-x="584" 
d="M147 -188q-34 0 -63 16.5t-47 44t-18 61.5q0 36 20 67t55 48q-22 14 -34.5 36.5t-12.5 48.5q0 37 25 64.5t62 39.5q-31 17 -52 45t-21 69q0 40 17.5 71.5t48.5 53t73 33t91 11.5q37 0 69.5 -5.5t54.5 -16.5q28 5 44 18t23 30.5t7 32.5h114q0 -56 -33 -86.5t-82 -40.5
l-1 -3q15 -16 25 -37t10 -51q0 -44 -25.5 -81t-70 -59t-102.5 -22h-73q-31 0 -46.5 -11.5t-15.5 -28.5q0 -18 14 -29.5t48 -11.5h168q74 0 115.5 -42t41.5 -105q0 -43 -21.5 -79.5t-60.5 -58.5t-90 -22h-257zM210 -93h163q25 0 42.5 15.5t17.5 38.5q0 20 -16 35t-39 15h-168
q-25 0 -41.5 -15t-16.5 -37q0 -21 16.5 -36.5t41.5 -15.5zM294 283q38 0 61 22.5t23 54.5t-23 55t-61 23t-61 -23t-23 -55t23 -54.5t61 -22.5zM101 593l113 132h149l112 -132h-114l-89 102h33l-90 -102h-114z" />
    <glyph glyph-name="uni0123" unicode="&#x123;" horiz-adv-x="584" 
d="M147 -188q-34 0 -63 16.5t-47 44t-18 61.5q0 36 20 67t55 48q-22 14 -34.5 36.5t-12.5 48.5q0 37 25 64.5t62 39.5q-31 17 -52 45t-21 69q0 44 24 82.5t73 62.5t123 24q30 0 55 -2.5t44 -7.5q41 23 58 47.5t18 44.5h120q0 -36 -13 -62.5t-37 -43.5t-57 -26l-1 -3
q24 -20 39 -47t15 -59q0 -44 -25.5 -81t-70 -59t-102.5 -22h-73q-31 0 -46.5 -11.5t-15.5 -28.5q0 -18 14 -29.5t48 -11.5h168q74 0 115.5 -42t41.5 -105q0 -43 -22 -79.5t-61 -58.5t-90 -22h-256zM210 -93h163q25 0 42.5 15.5t17.5 38.5q0 20 -16 35t-39 15h-168
q-25 0 -41.5 -15t-16.5 -37q0 -21 16.5 -36.5t41.5 -15.5zM294 283q38 0 61 22.5t23 54.5t-23 55t-61 23t-61 -23t-23 -55t23 -54.5t61 -22.5zM359 900v-16q-30 -32 -45 -67.5t-15 -72.5h60v-146h-134v124q0 50 16 96.5t49 81.5h69z" />
    <glyph glyph-name="gdotaccent" unicode="&#x121;" horiz-adv-x="584" 
d="M147 -188q-34 0 -63 16.5t-47 44t-18 61.5q0 36 20 67t55 48q-22 14 -34.5 36.5t-12.5 48.5q0 37 25 64.5t62 39.5q-31 17 -52 45t-21 69q0 44 24 82.5t73 62.5t123 24q30 0 55 -2.5t44 -7.5q41 23 58 47.5t18 44.5h120q0 -36 -13 -62.5t-37 -43.5t-57 -26l-1 -3
q24 -20 39 -47t15 -59q0 -44 -25.5 -81t-70 -59t-102.5 -22h-73q-31 0 -46.5 -11.5t-15.5 -28.5q0 -18 14 -29.5t48 -11.5h168q74 0 115.5 -42t41.5 -105q0 -43 -22 -79.5t-61 -58.5t-90 -22h-256zM210 -93h163q25 0 42.5 15.5t17.5 38.5q0 20 -16 35t-39 15h-168
q-25 0 -41.5 -15t-16.5 -37q0 -21 16.5 -36.5t41.5 -15.5zM294 283q38 0 61 22.5t23 54.5t-23 55t-61 23t-61 -23t-23 -55t23 -54.5t61 -22.5zM233 608v122h124v-122h-124z" />
    <glyph glyph-name="uni01E5" unicode="&#x1e5;" horiz-adv-x="584" 
d="M147 -188q-34 0 -63 16.5t-47 44t-18 61.5q0 36 20 67t55 48q-22 14 -34.5 36.5t-12.5 48.5q0 37 25 64.5t62 39.5q-31 17 -52 45t-21 69q0 44 24 82.5t73 62.5t123 24q30 0 55 -2.5t44 -7.5q41 23 58 47.5t18 44.5h120q0 -36 -13 -62.5t-37 -43.5t-57 -26l-1 -3
q24 -20 39 -47t15 -59q0 -44 -25.5 -81t-70 -59t-102.5 -22h-73q-31 0 -46.5 -11.5t-15.5 -28.5q0 -18 14 -29.5t48 -11.5h168q74 0 115.5 -42t41.5 -105q0 -43 -22 -79.5t-61 -58.5t-90 -22h-256zM206 -108h170q26 0 44.5 18.5t18.5 42.5q0 21 -16.5 39t-41.5 18h-175
q-25 0 -42.5 -18t-17.5 -41q0 -22 17.5 -40.5t42.5 -18.5zM294 283q38 0 61 22.5t23 54.5t-23 55t-61 23t-61 -23t-23 -55t23 -54.5t61 -22.5zM-41 -83v72h116l36 -8h375l33 8h107v-72h-110l-31 8h-379l-37 -8h-110z" />
    <glyph glyph-name="h" unicode="h" horiz-adv-x="598" 
d="M62 0v720h157v-272q29 36 66 54.5t84 18.5q50 0 87.5 -20t59 -56t21.5 -85v-360h-157v324q0 41 -21.5 62t-55.5 21q-23 0 -42 -12t-30.5 -31.5t-11.5 -44.5v-319h-157z" />
    <glyph glyph-name="hbar" unicode="&#x127;" horiz-adv-x="598" 
d="M62 0v720h157v-272q29 36 66 54.5t84 18.5q50 0 87.5 -20t59 -56t21.5 -85v-360h-157v324q0 41 -21.5 62t-55.5 21q-23 0 -42 -12t-30.5 -31.5t-11.5 -44.5v-319h-157zM-1 556v103h379v-103h-379z" />
    <glyph glyph-name="hcircumflex" unicode="&#x125;" horiz-adv-x="598" 
d="M62 0v720h157v-272q29 36 66 54.5t84 18.5q50 0 87.5 -20t59 -56t21.5 -85v-360h-157v324q0 41 -21.5 62t-55.5 21q-23 0 -42 -12t-30.5 -31.5t-11.5 -44.5v-319h-157zM-48 753l113 132h149l112 -132h-114l-89 102h33l-90 -102h-114z" />
    <glyph glyph-name="uni1E25" unicode="&#x1e25;" horiz-adv-x="598" 
d="M62 0v720h157v-272q29 36 66 54.5t84 18.5q50 0 87.5 -20t59 -56t21.5 -85v-360h-157v324q0 41 -21.5 62t-55.5 21q-23 0 -42 -12t-30.5 -31.5t-11.5 -44.5v-319h-157zM244 -183v122h124v-122h-124z" />
    <glyph glyph-name="i" unicode="i" horiz-adv-x="288" 
d="M66 0v511h157v-511h-157zM64 602v118h160v-118h-160z" />
    <glyph glyph-name="dotlessi" unicode="&#x131;" horiz-adv-x="285" 
d="M64 0v511h157v-511h-157z" />
    <glyph glyph-name="iacute" unicode="&#xed;" horiz-adv-x="285" 
d="M64 0v511h157v-511h-157zM87 586l85 174h134l1 -3l-114 -171h-106z" />
    <glyph glyph-name="ibreve" unicode="&#x12d;" horiz-adv-x="285" 
d="M64 0v511h157v-511h-157zM138 588q-50 0 -82.5 18.5t-48.5 53.5t-17 85h88q2 -42 18.5 -60t45.5 -18q30 0 47 18t20 60h87q-1 -50 -20 -85t-54 -53.5t-84 -18.5z" />
    <glyph glyph-name="uni01D0" unicode="&#x1d0;" horiz-adv-x="285" 
d="M64 0v511h157v-511h-157zM304 760l-107 -179h-109l-106 179h103l94 -157h-71l94 157h102z" />
    <glyph glyph-name="icircumflex" unicode="&#xee;" horiz-adv-x="285" 
d="M64 0v511h157v-511h-157zM-18 581l107 179h109l106 -179h-103l-94 157h71l-94 -157h-102z" />
    <glyph glyph-name="uni0209" unicode="&#x209;" horiz-adv-x="285" 
d="M64 0v511h157v-511h-157zM200 592l-122 142l4 3h127l93 -145h-102zM4 592l-122 142l2 3h129l92 -145h-101z" />
    <glyph glyph-name="idieresis" unicode="&#xef;" horiz-adv-x="285" 
d="M64 0v511h157v-511h-157zM-16 606v122h124v-122h-124zM179 606v122h123v-122h-123z" />
    <glyph glyph-name="i.loclTRK" horiz-adv-x="285" 
d="M64 0v511h157v-511h-157zM83 608v122h124v-122h-124z" />
    <glyph glyph-name="uni1ECB" unicode="&#x1ecb;" horiz-adv-x="288" 
d="M66 0v511h157v-511h-157zM64 602v118h160v-118h-160zM89 -183v122h124v-122h-124z" />
    <glyph glyph-name="igrave" unicode="&#xec;" horiz-adv-x="285" 
d="M64 0v511h157v-511h-157zM93 586l-114 171l1 3h134l85 -174h-106z" />
    <glyph glyph-name="uni1EC9" unicode="&#x1ec9;" horiz-adv-x="285" 
d="M64 0v511h157v-511h-157zM133 570v70q30 3 46 15.5t16 35.5q0 19 -13.5 29t-36.5 10q-14 0 -31 -2.5t-38 -9.5v91q20 6 38.5 8t36.5 2q56 0 94 -29.5t38 -84.5q0 -39 -22 -68.5t-56 -47t-72 -19.5z" />
    <glyph glyph-name="uni020B" unicode="&#x20b;" horiz-adv-x="285" 
d="M64 0v511h157v-511h-157zM-10 588q1 51 20 85.5t54 53t84 18.5q50 0 82.5 -18.5t48.5 -53t17 -85.5h-88q-2 42 -18.5 60t-45.5 18q-30 0 -47 -18t-20 -60h-87z" />
    <glyph glyph-name="ij" unicode="&#x133;" horiz-adv-x="584" 
d="M66 0v511h157v-511h-157zM64 602v118h160v-118h-160zM359 -186q-16 0 -38 2.5t-43 7t-35 10.5v94q12 -5 31.5 -9.5t30.5 -4.5q21 0 39 12.5t18 56.5v528h157v-550q0 -75 -44 -111t-116 -36zM361 602v118h160v-118h-160z" />
    <glyph glyph-name="imacron" unicode="&#x12b;" horiz-adv-x="285" 
d="M64 0v511h157v-511h-157zM6 613v83h274v-83h-274z" />
    <glyph glyph-name="iogonek" unicode="&#x12f;" horiz-adv-x="288" 
d="M66 0v511h157v-511h-157zM64 602v118h160v-118h-160zM125 -146q-25 0 -48.5 7.5t-38.5 24t-15 43.5q0 24 13.5 42.5t30.5 28.5h92q-19 -11 -32 -24t-13 -30q0 -19 12 -26.5t28 -7.5q15 0 31 4t30 9l14 -44q-23 -13 -49.5 -20t-54.5 -7z" />
    <glyph glyph-name="uni0268" unicode="&#x268;" horiz-adv-x="288" 
d="M6 328h276v-111h-276v111zM66 0v511h157v-511h-157zM64 602v118h160v-118h-160z" />
    <glyph glyph-name="itilde" unicode="&#x129;" horiz-adv-x="285" 
d="M64 0v511h157v-511h-157zM-29 591q2 42 15.5 77t37.5 56t58 21q32 0 52 -14t36.5 -28.5t34.5 -14.5q17 0 27.5 16t14.5 42h68q-1 -41 -14.5 -76.5t-37.5 -56.5t-59 -21q-30 0 -51.5 14t-38 28.5t-34.5 14.5q-16 0 -26 -16.5t-14 -41.5h-69z" />
    <glyph glyph-name="j" unicode="j" horiz-adv-x="288" 
d="M63 -186q-16 0 -38 2.5t-43 7t-35 10.5v94q12 -5 31.5 -9.5t30.5 -4.5q21 0 39 12.5t18 56.5v528h157v-550q0 -75 -44 -111t-116 -36zM65 602v118h160v-118h-160z" />
    <glyph glyph-name="uni0237" unicode="&#x237;" horiz-adv-x="288" 
d="M57 -186q-15 0 -37 2.5t-43 7t-35 10.5v94q11 -5 31 -9.5t31 -4.5q21 0 39 12.5t18 56.5v528h157v-550q0 -75 -44.5 -111t-116.5 -36z" />
    <glyph glyph-name="jcircumflex" unicode="&#x135;" horiz-adv-x="288" 
d="M57 -186q-15 0 -37 2.5t-43 7t-35 10.5v94q11 -5 31 -9.5t31 -4.5q21 0 39 12.5t18 56.5v528h157v-550q0 -75 -44.5 -111t-116.5 -36zM-25 581l107 179h109l106 -179h-103l-94 157h71l-94 -157h-102z" />
    <glyph glyph-name="k" unicode="k" horiz-adv-x="584" 
d="M62 0v720h157v-436l175 227h181l-190 -233l196 -278h-186l-121 171l-55 -53v-118h-157z" />
    <glyph glyph-name="uni0137" unicode="&#x137;" horiz-adv-x="584" 
d="M62 0v720h157v-436l175 227h181l-190 -233l196 -278h-186l-121 171l-55 -53v-118h-157zM229 -375v16q31 32 46 67.5t15 72.5h-61v146h134v-124q0 -50 -16 -96.5t-48 -81.5h-70z" />
    <glyph glyph-name="kgreenlandic" unicode="&#x138;" horiz-adv-x="584" 
d="M62 0v512h157v-228l175 227h181l-190 -233l196 -278h-186l-121 171l-55 -53v-118h-157z" />
    <glyph glyph-name="l" unicode="l" horiz-adv-x="283" 
d="M62 0v720h157v-720h-157z" />
    <glyph glyph-name="lacute" unicode="&#x13a;" horiz-adv-x="283" 
d="M62 0v720h157v-720h-157zM81 749l95 140h140l1 -3l-121 -137h-115z" />
    <glyph glyph-name="lcaron" unicode="&#x13e;" horiz-adv-x="401" 
d="M281 408v15q27 30 41.5 61.5t15.5 66.5h-58v135h128v-114q0 -47 -16 -89t-46 -75h-65zM62 0v720h157v-720h-157z" />
    <glyph glyph-name="uni013C" unicode="&#x13c;" horiz-adv-x="283" 
d="M62 0v720h157v-720h-157zM73 -375v16q31 32 46 67.5t15 72.5h-61v146h134v-124q0 -50 -16 -96.5t-48 -81.5h-70z" />
    <glyph glyph-name="ldot" unicode="&#x140;" horiz-adv-x="405" 
d="M265 302v151h156v-151h-156zM62 0v720h157v-720h-157z" />
    <glyph glyph-name="uni01C9" unicode="&#x1c9;" horiz-adv-x="571" 
d="M62 0v720h157v-720h-157zM346 -186q-16 0 -38 2.5t-43 7t-35 10.5v94q12 -5 31.5 -9.5t30.5 -4.5q21 0 39 12.5t18 56.5v528h157v-550q0 -75 -44 -111t-116 -36zM348 602v118h160v-118h-160z" />
    <glyph glyph-name="lslash" unicode="&#x142;" horiz-adv-x="283" 
d="M62 0v720h157v-720h-157zM-7 240v88l296 148v-88z" />
    <glyph glyph-name="m" unicode="m" horiz-adv-x="871" 
d="M62 0v511h118l18 -74q28 39 62.5 61.5t86.5 22.5q50 0 88 -18.5t60 -61.5q24 41 61.5 60.5t87.5 19.5t87.5 -19.5t58 -55.5t20.5 -86v-360h-155v324q0 41 -18.5 61.5t-50.5 20.5q-20 0 -36.5 -11t-26 -30t-9.5 -44v-321h-155v324q0 41 -19 61.5t-50 20.5q-21 0 -37.5 -11
t-26 -30t-9.5 -44v-321h-155z" />
    <glyph glyph-name="n" unicode="n" horiz-adv-x="598" 
d="M62 0v511h117l18 -74q31 43 72 63.5t96 20.5q52 0 90.5 -19.5t59.5 -55.5t21 -86v-360h-157v324q0 41 -21 62t-55 21q-23 0 -42 -12t-30.5 -31.5t-11.5 -44.5v-319h-157z" />
    <glyph glyph-name="nacute" unicode="&#x144;" horiz-adv-x="598" 
d="M62 0v511h117l18 -74q31 43 72 63.5t96 20.5q52 0 90.5 -19.5t59.5 -55.5t21 -86v-360h-157v324q0 41 -21 62t-55 21q-23 0 -42 -12t-30.5 -31.5t-11.5 -44.5v-319h-157zM240 586l85 174h134l1 -3l-114 -171h-106z" />
    <glyph glyph-name="napostrophe" unicode="&#x149;" horiz-adv-x="598" 
d="M62 0v511h117l18 -74q31 43 72 63.5t96 20.5q52 0 90.5 -19.5t59.5 -55.5t21 -86v-360h-157v324q0 41 -21 62t-55 21q-23 0 -42 -12t-30.5 -31.5t-11.5 -44.5v-319h-157zM3 551v14q25 29 39 58.5t14 62.5h-54v127h120v-107q0 -45 -15 -84.5t-42 -70.5h-62z" />
    <glyph glyph-name="ncaron" unicode="&#x148;" horiz-adv-x="598" 
d="M62 0v511h117l18 -74q31 43 72 63.5t96 20.5q52 0 90.5 -19.5t59.5 -55.5t21 -86v-360h-157v324q0 41 -21 62t-55 21q-23 0 -42 -12t-30.5 -31.5t-11.5 -44.5v-319h-157zM490 762l-132 -179h-124l-132 179h116l114 -158h-71l114 158h115z" />
    <glyph glyph-name="uni0146" unicode="&#x146;" horiz-adv-x="598" 
d="M62 0v511h117l18 -74q31 43 72 63.5t96 20.5q52 0 90.5 -19.5t59.5 -55.5t21 -86v-360h-157v324q0 41 -21 62t-55 21q-23 0 -42 -12t-30.5 -31.5t-11.5 -44.5v-319h-157zM233 -375v16q31 32 46 67.5t15 72.5h-61v146h134v-124q0 -50 -16 -96.5t-48 -81.5h-70z" />
    <glyph glyph-name="uni0272" unicode="&#x272;" horiz-adv-x="601" 
d="M63 -186q-16 0 -38 2.5t-43 7t-35 10.5v94q12 -5 31.5 -9.5t30.5 -4.5q21 0 39 12.5t18 56.5v528h117l17 -74q31 43 72.5 63.5t96.5 20.5q51 0 89.5 -19.5t60 -55.5t21.5 -86v-360h-157v325q0 40 -21 61t-56 21q-22 0 -41.5 -12t-30.5 -31.5t-11 -44.5v-358
q0 -75 -44 -111t-116 -36z" />
    <glyph glyph-name="uni01CC" unicode="&#x1cc;" horiz-adv-x="886" 
d="M62 0v511h117l18 -74q31 43 72 63.5t96 20.5q52 0 90.5 -19.5t59.5 -55.5t21 -86v-360h-157v324q0 41 -21 62t-55 21q-23 0 -42 -12t-30.5 -31.5t-11.5 -44.5v-319h-157zM661 -186q-16 0 -38 2.5t-43 7t-35 10.5v94q12 -5 31.5 -9.5t30.5 -4.5q21 0 39 12.5t18 56.5v528
h157v-550q0 -75 -44 -111t-116 -36zM663 602v118h160v-118h-160z" />
    <glyph glyph-name="ntilde" unicode="&#xf1;" horiz-adv-x="598" 
d="M62 0v511h117l18 -74q31 43 72 63.5t96 20.5q52 0 90.5 -19.5t59.5 -55.5t21 -86v-360h-157v324q0 41 -21 62t-55 21q-23 0 -42 -12t-30.5 -31.5t-11.5 -44.5v-319h-157zM94 591q2 42 16.5 77.5t41 56t64.5 20.5q37 0 64.5 -14t50.5 -28.5t45 -14.5q23 0 36 15.5t18 42.5
h68q-2 -42 -16.5 -77.5t-40.5 -56.5t-64 -21q-37 0 -65.5 14.5t-51.5 29t-46 14.5q-21 0 -33.5 -15.5t-17.5 -42.5h-69z" />
    <glyph glyph-name="eng" unicode="&#x14b;" horiz-adv-x="598" 
d="M376 -186q-16 0 -38 2.5t-43 7t-35 10.5v94q12 -5 31.5 -9.5t30.5 -4.5q21 0 39 12.5t18 56.5v341q0 41 -21 62t-55 21q-23 0 -42 -12t-30.5 -31.5t-11.5 -44.5v-319h-157v511h117l18 -74q31 43 72 63.5t96 20.5q52 0 90.5 -19.5t59.5 -55.5t21 -86v-399q0 -75 -44 -111
t-116 -36z" />
    <glyph glyph-name="o" unicode="o" horiz-adv-x="604" 
d="M290 -10q-72 0 -129 32t-89.5 89.5t-32.5 134.5v19q0 78 32.5 135.5t89.5 89t129 31.5h24q72 0 129 -31.5t89.5 -89t32.5 -135.5v-19q0 -77 -32.5 -135t-89.5 -89.5t-129 -31.5h-24zM302 90q27 0 48.5 13t34.5 37.5t13 57.5v115q0 34 -13 58t-34.5 37t-48.5 13t-48.5 -13
t-34.5 -37t-13 -58v-115q0 -33 13 -57.5t34.5 -37.5t48.5 -13z" />
    <glyph glyph-name="oacute" unicode="&#xf3;" horiz-adv-x="604" 
d="M290 -10q-72 0 -129 32t-89.5 89.5t-32.5 134.5v19q0 78 32.5 135.5t89.5 89t129 31.5h24q72 0 129 -31.5t89.5 -89t32.5 -135.5v-19q0 -77 -32.5 -135t-89.5 -89.5t-129 -31.5h-24zM302 90q27 0 48.5 13t34.5 37.5t13 57.5v115q0 34 -13 58t-34.5 37t-48.5 13t-48.5 -13
t-34.5 -37t-13 -58v-115q0 -33 13 -57.5t34.5 -37.5t48.5 -13zM247 586l85 174h134l1 -3l-114 -171h-106z" />
    <glyph glyph-name="obreve" unicode="&#x14f;" horiz-adv-x="604" 
d="M290 -10q-72 0 -129 32t-89.5 89.5t-32.5 134.5v19q0 78 32.5 135.5t89.5 89t129 31.5h24q72 0 129 -31.5t89.5 -89t32.5 -135.5v-19q0 -77 -32.5 -135t-89.5 -89.5t-129 -31.5h-24zM302 90q27 0 48.5 13t34.5 37.5t13 57.5v115q0 34 -13 58t-34.5 37t-48.5 13t-48.5 -13
t-34.5 -37t-13 -58v-115q0 -33 13 -57.5t34.5 -37.5t48.5 -13zM298 588q-60 0 -99 20.5t-58 55.5t-21 81h88q6 -39 29 -57.5t65 -18.5q44 0 67 18.5t30 57.5h87q-1 -46 -24 -81t-64 -55.5t-100 -20.5z" />
    <glyph glyph-name="uni01D2" unicode="&#x1d2;" horiz-adv-x="604" 
d="M290 -10q-72 0 -129 32t-89.5 89.5t-32.5 134.5v19q0 78 32.5 135.5t89.5 89t129 31.5h24q72 0 129 -31.5t89.5 -89t32.5 -135.5v-19q0 -77 -32.5 -135t-89.5 -89.5t-129 -31.5h-24zM302 90q27 0 48.5 13t34.5 37.5t13 57.5v115q0 34 -13 58t-34.5 37t-48.5 13t-48.5 -13
t-34.5 -37t-13 -58v-115q0 -33 13 -57.5t34.5 -37.5t48.5 -13zM497 762l-132 -179h-124l-132 179h116l114 -158h-71l114 158h115z" />
    <glyph glyph-name="ocircumflex" unicode="&#xf4;" horiz-adv-x="604" 
d="M290 -10q-72 0 -129 32t-89.5 89.5t-32.5 134.5v19q0 78 32.5 135.5t89.5 89t129 31.5h24q72 0 129 -31.5t89.5 -89t32.5 -135.5v-19q0 -77 -32.5 -135t-89.5 -89.5t-129 -31.5h-24zM302 90q27 0 48.5 13t34.5 37.5t13 57.5v115q0 34 -13 58t-34.5 37t-48.5 13t-48.5 -13
t-34.5 -37t-13 -58v-115q0 -33 13 -57.5t34.5 -37.5t48.5 -13zM109 581l132 179h124l132 -179h-116l-117 158h77l-117 -158h-115z" />
    <glyph glyph-name="uni1ED1" unicode="&#x1ed1;" horiz-adv-x="604" 
d="M290 -10q-72 0 -129 32t-89.5 89.5t-32.5 134.5v19q0 78 32.5 135.5t89.5 89t129 31.5h24q72 0 129 -31.5t89.5 -89t32.5 -135.5v-19q0 -77 -32.5 -135t-89.5 -89.5t-129 -31.5h-24zM302 90q27 0 48.5 13t34.5 37.5t13 57.5v115q0 34 -13 58t-34.5 37t-48.5 13t-48.5 -13
t-34.5 -37t-13 -58v-115q0 -33 13 -57.5t34.5 -37.5t48.5 -13zM111 591l137 146h109l138 -146h-106l-87 76l-87 -76h-104zM254 782l92 145h128l1 -3l-122 -142h-99z" />
    <glyph glyph-name="uni1ED9" unicode="&#x1ed9;" horiz-adv-x="604" 
d="M290 -10q-72 0 -129 32t-89.5 89.5t-32.5 134.5v19q0 78 32.5 135.5t89.5 89t129 31.5h24q72 0 129 -31.5t89.5 -89t32.5 -135.5v-19q0 -77 -32.5 -135t-89.5 -89.5t-129 -31.5h-24zM302 90q27 0 48.5 13t34.5 37.5t13 57.5v115q0 34 -13 58t-34.5 37t-48.5 13t-48.5 -13
t-34.5 -37t-13 -58v-115q0 -33 13 -57.5t34.5 -37.5t48.5 -13zM245 -183v122h124v-122h-124zM109 581l132 179h124l132 -179h-116l-117 158h77l-117 -158h-115z" />
    <glyph glyph-name="uni1ED3" unicode="&#x1ed3;" horiz-adv-x="604" 
d="M290 -10q-72 0 -129 32t-89.5 89.5t-32.5 134.5v19q0 78 32.5 135.5t89.5 89t129 31.5h24q72 0 129 -31.5t89.5 -89t32.5 -135.5v-19q0 -77 -32.5 -135t-89.5 -89.5t-129 -31.5h-24zM302 90q27 0 48.5 13t34.5 37.5t13 57.5v115q0 34 -13 58t-34.5 37t-48.5 13t-48.5 -13
t-34.5 -37t-13 -58v-115q0 -33 13 -57.5t34.5 -37.5t48.5 -13zM110 591l138 146h109l137 -146h-105l-87 76l-87 -76h-105zM254 782l-122 142l1 3h128l92 -145h-99z" />
    <glyph glyph-name="uni1ED5" unicode="&#x1ed5;" horiz-adv-x="604" 
d="M290 -10q-72 0 -129 32t-89.5 89.5t-32.5 134.5v19q0 78 32.5 135.5t89.5 89t129 31.5h24q72 0 129 -31.5t89.5 -89t32.5 -135.5v-19q0 -77 -32.5 -135t-89.5 -89.5t-129 -31.5h-24zM302 90q27 0 48.5 13t34.5 37.5t13 57.5v115q0 34 -13 58t-34.5 37t-48.5 13t-48.5 -13
t-34.5 -37t-13 -58v-115q0 -33 13 -57.5t34.5 -37.5t48.5 -13zM112 591l137 147h109l138 -147h-106l-87 77l-87 -77h-104zM283 778v56q24 3 37.5 14t13.5 29q0 15 -11.5 23.5t-30.5 8.5q-11 0 -25 -2.5t-30 -7.5v74q15 5 30.5 6.5t29.5 1.5q46 0 77 -24t31 -69
q0 -31 -18 -55.5t-45.5 -38.5t-58.5 -16z" />
    <glyph glyph-name="uni1ED7" unicode="&#x1ed7;" horiz-adv-x="604" 
d="M290 -10q-72 0 -129 32t-89.5 89.5t-32.5 134.5v19q0 78 32.5 135.5t89.5 89t129 31.5h24q72 0 129 -31.5t89.5 -89t32.5 -135.5v-19q0 -77 -32.5 -135t-89.5 -89.5t-129 -31.5h-24zM302 90q27 0 48.5 13t34.5 37.5t13 57.5v115q0 34 -13 58t-34.5 37t-48.5 13t-48.5 -13
t-34.5 -37t-13 -58v-115q0 -33 13 -57.5t34.5 -37.5t48.5 -13zM111 591l137 146h109l138 -146h-106l-87 76l-87 -76h-104zM113 776q0 35 14 64t41 46.5t63 17.5q33 0 56 -9t44 -18t46 -9q19 0 32.5 9.5t17.5 26.5h65q0 -35 -14 -64t-40.5 -46.5t-63.5 -17.5q-32 0 -55 8.5
t-43.5 17.5t-47.5 10q-19 0 -32 -10t-18 -26h-65z" />
    <glyph glyph-name="uni020D" unicode="&#x20d;" horiz-adv-x="604" 
d="M290 -10q-72 0 -129 32t-89.5 89.5t-32.5 134.5v19q0 78 32.5 135.5t89.5 89t129 31.5h24q72 0 129 -31.5t89.5 -89t32.5 -135.5v-19q0 -77 -32.5 -135t-89.5 -89.5t-129 -31.5h-24zM302 90q27 0 48.5 13t34.5 37.5t13 57.5v115q0 34 -13 58t-34.5 37t-48.5 13t-48.5 -13
t-34.5 -37t-13 -58v-115q0 -33 13 -57.5t34.5 -37.5t48.5 -13zM359 592l-122 142l4 3h127l93 -145h-102zM163 592l-122 142l2 3h129l92 -145h-101z" />
    <glyph glyph-name="odieresis" unicode="&#xf6;" horiz-adv-x="604" 
d="M290 -10q-72 0 -129 32t-89.5 89.5t-32.5 134.5v19q0 78 32.5 135.5t89.5 89t129 31.5h24q72 0 129 -31.5t89.5 -89t32.5 -135.5v-19q0 -77 -32.5 -135t-89.5 -89.5t-129 -31.5h-24zM302 90q27 0 48.5 13t34.5 37.5t13 57.5v115q0 34 -13 58t-34.5 37t-48.5 13t-48.5 -13
t-34.5 -37t-13 -58v-115q0 -33 13 -57.5t34.5 -37.5t48.5 -13zM121 606v122h124v-122h-124zM361 606v122h124v-122h-124z" />
    <glyph glyph-name="uni022B" unicode="&#x22b;" horiz-adv-x="604" 
d="M290 -10q-72 0 -129 32t-89.5 89.5t-32.5 134.5v19q0 78 32.5 135.5t89.5 89t129 31.5h24q72 0 129 -31.5t89.5 -89t32.5 -135.5v-19q0 -77 -32.5 -135t-89.5 -89.5t-129 -31.5h-24zM302 90q27 0 48.5 13t34.5 37.5t13 57.5v115q0 34 -13 58t-34.5 37t-48.5 13t-48.5 -13
t-34.5 -37t-13 -58v-115q0 -33 13 -57.5t34.5 -37.5t48.5 -13zM135 771v88h336v-88h-336zM137 604v121h124v-121h-124zM345 604v121h124v-121h-124z" />
    <glyph glyph-name="uni0231" unicode="&#x231;" horiz-adv-x="604" 
d="M290 -10q-72 0 -129 32t-89.5 89.5t-32.5 134.5v19q0 78 32.5 135.5t89.5 89t129 31.5h24q72 0 129 -31.5t89.5 -89t32.5 -135.5v-19q0 -77 -32.5 -135t-89.5 -89.5t-129 -31.5h-24zM302 90q27 0 48.5 13t34.5 37.5t13 57.5v115q0 34 -13 58t-34.5 37t-48.5 13t-48.5 -13
t-34.5 -37t-13 -58v-115q0 -33 13 -57.5t34.5 -37.5t48.5 -13zM138 770v88h330v-88h-330zM240 603v121h124v-121h-124z" />
    <glyph glyph-name="uni1ECD" unicode="&#x1ecd;" horiz-adv-x="604" 
d="M290 -10q-72 0 -129 32t-89.5 89.5t-32.5 134.5v19q0 78 32.5 135.5t89.5 89t129 31.5h24q72 0 129 -31.5t89.5 -89t32.5 -135.5v-19q0 -77 -32.5 -135t-89.5 -89.5t-129 -31.5h-24zM302 90q27 0 48.5 13t34.5 37.5t13 57.5v115q0 34 -13 58t-34.5 37t-48.5 13t-48.5 -13
t-34.5 -37t-13 -58v-115q0 -33 13 -57.5t34.5 -37.5t48.5 -13zM245 -183v122h124v-122h-124z" />
    <glyph glyph-name="ograve" unicode="&#xf2;" horiz-adv-x="604" 
d="M290 -10q-72 0 -129 32t-89.5 89.5t-32.5 134.5v19q0 78 32.5 135.5t89.5 89t129 31.5h24q72 0 129 -31.5t89.5 -89t32.5 -135.5v-19q0 -77 -32.5 -135t-89.5 -89.5t-129 -31.5h-24zM302 90q27 0 48.5 13t34.5 37.5t13 57.5v115q0 34 -13 58t-34.5 37t-48.5 13t-48.5 -13
t-34.5 -37t-13 -58v-115q0 -33 13 -57.5t34.5 -37.5t48.5 -13zM252 586l-114 171l1 3h134l85 -174h-106z" />
    <glyph glyph-name="uni1ECF" unicode="&#x1ecf;" horiz-adv-x="604" 
d="M290 -10q-72 0 -129 32t-89.5 89.5t-32.5 134.5v19q0 78 32.5 135.5t89.5 89t129 31.5h24q72 0 129 -31.5t89.5 -89t32.5 -135.5v-19q0 -77 -32.5 -135t-89.5 -89.5t-129 -31.5h-24zM302 90q27 0 48.5 13t34.5 37.5t13 57.5v115q0 34 -13 58t-34.5 37t-48.5 13t-48.5 -13
t-34.5 -37t-13 -58v-115q0 -33 13 -57.5t34.5 -37.5t48.5 -13zM292 570v70q30 3 46 15.5t16 35.5q0 19 -13.5 29t-36.5 10q-14 0 -31 -2.5t-38 -9.5v91q20 6 38.5 8t36.5 2q56 0 94 -29.5t38 -84.5q0 -39 -22 -68.5t-56 -47t-72 -19.5z" />
    <glyph glyph-name="ohorn" unicode="&#x1a1;" horiz-adv-x="604" 
d="M290 -10q-72 0 -129 32t-89.5 89.5t-32.5 134.5v19q0 78 32.5 135.5t89.5 89t129 31.5h24q72 0 129 -31.5t89.5 -89t32.5 -135.5v-19q0 -77 -32.5 -135t-89.5 -89.5t-129 -31.5h-24zM302 90q27 0 48.5 13t34.5 37.5t13 57.5v115q0 34 -13 58t-34.5 37t-48.5 13t-48.5 -13
t-34.5 -37t-13 -58v-115q0 -33 13 -57.5t34.5 -37.5t48.5 -13zM435 396v81q49 8 66.5 43t17.5 99h134q0 -57 -27.5 -105.5t-77 -80t-113.5 -37.5z" />
    <glyph glyph-name="uni1EDB" unicode="&#x1edb;" horiz-adv-x="604" 
d="M290 -10q-72 0 -129 32t-89.5 89.5t-32.5 134.5v19q0 78 32.5 135.5t89.5 89t129 31.5h24q72 0 129 -31.5t89.5 -89t32.5 -135.5v-19q0 -77 -32.5 -135t-89.5 -89.5t-129 -31.5h-24zM302 90q27 0 48.5 13t34.5 37.5t13 57.5v115q0 34 -13 58t-34.5 37t-48.5 13t-48.5 -13
t-34.5 -37t-13 -58v-115q0 -33 13 -57.5t34.5 -37.5t48.5 -13zM435 396v81q49 8 66.5 43t17.5 99h134q0 -57 -27.5 -105.5t-77 -80t-113.5 -37.5zM246 586l85 174h134l1 -3l-114 -171h-106z" />
    <glyph glyph-name="uni1EE3" unicode="&#x1ee3;" horiz-adv-x="604" 
d="M290 -10q-72 0 -129 32t-89.5 89.5t-32.5 134.5v19q0 78 32.5 135.5t89.5 89t129 31.5h24q72 0 129 -31.5t89.5 -89t32.5 -135.5v-19q0 -77 -32.5 -135t-89.5 -89.5t-129 -31.5h-24zM302 90q27 0 48.5 13t34.5 37.5t13 57.5v115q0 34 -13 58t-34.5 37t-48.5 13t-48.5 -13
t-34.5 -37t-13 -58v-115q0 -33 13 -57.5t34.5 -37.5t48.5 -13zM435 396v81q49 8 66.5 43t17.5 99h134q0 -57 -27.5 -105.5t-77 -80t-113.5 -37.5zM245 -183v122h124v-122h-124z" />
    <glyph glyph-name="uni1EDD" unicode="&#x1edd;" horiz-adv-x="604" 
d="M290 -10q-72 0 -129 32t-89.5 89.5t-32.5 134.5v19q0 78 32.5 135.5t89.5 89t129 31.5h24q72 0 129 -31.5t89.5 -89t32.5 -135.5v-19q0 -77 -32.5 -135t-89.5 -89.5t-129 -31.5h-24zM302 90q27 0 48.5 13t34.5 37.5t13 57.5v115q0 34 -13 58t-34.5 37t-48.5 13t-48.5 -13
t-34.5 -37t-13 -58v-115q0 -33 13 -57.5t34.5 -37.5t48.5 -13zM435 396v81q49 8 66.5 43t17.5 99h134q0 -57 -27.5 -105.5t-77 -80t-113.5 -37.5zM252 586l-114 171l1 3h134l85 -174h-106z" />
    <glyph glyph-name="uni1EDF" unicode="&#x1edf;" horiz-adv-x="604" 
d="M290 -10q-72 0 -129 32t-89.5 89.5t-32.5 134.5v19q0 78 32.5 135.5t89.5 89t129 31.5h24q72 0 129 -31.5t89.5 -89t32.5 -135.5v-19q0 -77 -32.5 -135t-89.5 -89.5t-129 -31.5h-24zM302 90q27 0 48.5 13t34.5 37.5t13 57.5v115q0 34 -13 58t-34.5 37t-48.5 13t-48.5 -13
t-34.5 -37t-13 -58v-115q0 -33 13 -57.5t34.5 -37.5t48.5 -13zM435 396v81q49 8 66.5 43t17.5 99h134q0 -57 -27.5 -105.5t-77 -80t-113.5 -37.5zM292 570v70q30 3 46 15.5t16 35.5q0 19 -13.5 29t-36.5 10q-14 0 -31 -2.5t-38 -9.5v91q20 6 38.5 8t36.5 2q56 0 94 -29.5
t38 -84.5q0 -39 -22 -68.5t-56 -47t-72 -19.5z" />
    <glyph glyph-name="uni1EE1" unicode="&#x1ee1;" horiz-adv-x="604" 
d="M290 -10q-72 0 -129 32t-89.5 89.5t-32.5 134.5v19q0 78 32.5 135.5t89.5 89t129 31.5h24q72 0 129 -31.5t89.5 -89t32.5 -135.5v-19q0 -77 -32.5 -135t-89.5 -89.5t-129 -31.5h-24zM302 90q27 0 48.5 13t34.5 37.5t13 57.5v115q0 34 -13 58t-34.5 37t-48.5 13t-48.5 -13
t-34.5 -37t-13 -58v-115q0 -33 13 -57.5t34.5 -37.5t48.5 -13zM435 396v81q49 8 66.5 43t17.5 99h134q0 -57 -27.5 -105.5t-77 -80t-113.5 -37.5zM100 591q2 42 16.5 77.5t41 56t64.5 20.5q37 0 64.5 -14t50.5 -28.5t45 -14.5q23 0 36 15.5t18 42.5h68q-2 -42 -16.5 -77.5
t-40.5 -56.5t-64 -21q-37 0 -65.5 14.5t-51.5 29t-46 14.5q-21 0 -33.5 -15.5t-17.5 -42.5h-69z" />
    <glyph glyph-name="ohungarumlaut" unicode="&#x151;" horiz-adv-x="604" 
d="M290 -10q-72 0 -129 32t-89.5 89.5t-32.5 134.5v19q0 78 32.5 135.5t89.5 89t129 31.5h24q72 0 129 -31.5t89.5 -89t32.5 -135.5v-19q0 -77 -32.5 -135t-89.5 -89.5t-129 -31.5h-24zM302 90q27 0 48.5 13t34.5 37.5t13 57.5v115q0 34 -13 58t-34.5 37t-48.5 13t-48.5 -13
t-34.5 -37t-13 -58v-115q0 -33 13 -57.5t34.5 -37.5t48.5 -13zM331 592l92 145h129l2 -3l-117 -142h-106zM138 592l91 145h127l4 -3l-116 -142h-106z" />
    <glyph glyph-name="uni020F" unicode="&#x20f;" horiz-adv-x="604" 
d="M290 -10q-72 0 -129 32t-89.5 89.5t-32.5 134.5v19q0 78 32.5 135.5t89.5 89t129 31.5h24q72 0 129 -31.5t89.5 -89t32.5 -135.5v-19q0 -77 -32.5 -135t-89.5 -89.5t-129 -31.5h-24zM302 90q27 0 48.5 13t34.5 37.5t13 57.5v115q0 34 -13 58t-34.5 37t-48.5 13t-48.5 -13
t-34.5 -37t-13 -58v-115q0 -33 13 -57.5t34.5 -37.5t48.5 -13zM115 596q0 39 23.5 70t66.5 48.5t102 17.5q62 0 102.5 -17.5t60.5 -48.5t20 -70h-87q-6 28 -30 42t-70 14q-45 0 -69.5 -14t-31.5 -42h-87z" />
    <glyph glyph-name="omacron" unicode="&#x14d;" horiz-adv-x="604" 
d="M290 -10q-72 0 -129 32t-89.5 89.5t-32.5 134.5v19q0 78 32.5 135.5t89.5 89t129 31.5h24q72 0 129 -31.5t89.5 -89t32.5 -135.5v-19q0 -77 -32.5 -135t-89.5 -89.5t-129 -31.5h-24zM302 90q27 0 48.5 13t34.5 37.5t13 57.5v115q0 34 -13 58t-34.5 37t-48.5 13t-48.5 -13
t-34.5 -37t-13 -58v-115q0 -33 13 -57.5t34.5 -37.5t48.5 -13zM131 613v83h344v-83h-344z" />
    <glyph glyph-name="uni01EB" unicode="&#x1eb;" horiz-adv-x="604" 
d="M290 -10q-72 0 -129 32t-89.5 89.5t-32.5 134.5v19q0 78 32.5 135.5t89.5 89t129 31.5h24q72 0 129 -31.5t89.5 -89t32.5 -135.5v-19q0 -77 -32.5 -135t-89.5 -89.5t-129 -31.5h-24zM302 90q27 0 48.5 13t34.5 37.5t13 57.5v115q0 34 -13 58t-34.5 37t-48.5 13t-48.5 -13
t-34.5 -37t-13 -58v-115q0 -33 13 -57.5t34.5 -37.5t48.5 -13zM354 -146q-25 0 -48.5 7.5t-38.5 24t-15 43.5q0 24 13.5 42.5t30.5 28.5h92q-19 -11 -32 -24t-13 -30q0 -19 12 -26.5t28 -7.5q15 0 31 4t30 9l14 -44q-23 -13 -49.5 -20t-54.5 -7z" />
    <glyph glyph-name="oslash" unicode="&#xf8;" horiz-adv-x="604" 
d="M290 -10q-72 0 -129 32t-89.5 89.5t-32.5 134.5v19q0 78 32.5 135.5t89.5 89t129 31.5h24q72 0 129 -31.5t89.5 -89t32.5 -135.5v-19q0 -77 -32.5 -135t-89.5 -89.5t-129 -31.5h-24zM302 90q27 0 48.5 13t34.5 37.5t13 57.5v115q0 34 -13 58t-34.5 37t-48.5 13t-48.5 -13
t-34.5 -37t-13 -58v-115q0 -33 13 -57.5t34.5 -37.5t48.5 -13zM67 -53l394 624h79l-394 -624h-79z" />
    <glyph glyph-name="oslashacute" unicode="&#x1ff;" horiz-adv-x="604" 
d="M290 -10q-72 0 -129 32t-89.5 89.5t-32.5 134.5v19q0 78 32.5 135.5t89.5 89t129 31.5h24q72 0 129 -31.5t89.5 -89t32.5 -135.5v-19q0 -77 -32.5 -135t-89.5 -89.5t-129 -31.5h-24zM302 90q27 0 48.5 13t34.5 37.5t13 57.5v115q0 34 -13 58t-34.5 37t-48.5 13t-48.5 -13
t-34.5 -37t-13 -58v-115q0 -33 13 -57.5t34.5 -37.5t48.5 -13zM67 -53l394 624h79l-394 -624h-79zM244 586l85 174h134l1 -3l-114 -171h-106z" />
    <glyph glyph-name="otilde" unicode="&#xf5;" horiz-adv-x="604" 
d="M290 -10q-72 0 -129 32t-89.5 89.5t-32.5 134.5v19q0 78 32.5 135.5t89.5 89t129 31.5h24q72 0 129 -31.5t89.5 -89t32.5 -135.5v-19q0 -77 -32.5 -135t-89.5 -89.5t-129 -31.5h-24zM302 90q27 0 48.5 13t34.5 37.5t13 57.5v115q0 34 -13 58t-34.5 37t-48.5 13t-48.5 -13
t-34.5 -37t-13 -58v-115q0 -33 13 -57.5t34.5 -37.5t48.5 -13zM101 591q2 42 16.5 77.5t41 56t64.5 20.5q37 0 64.5 -14t50.5 -28.5t45 -14.5q23 0 36 15.5t18 42.5h68q-2 -42 -16.5 -77.5t-40.5 -56.5t-64 -21q-37 0 -65.5 14.5t-51.5 29t-46 14.5q-21 0 -33.5 -15.5
t-17.5 -42.5h-69z" />
    <glyph glyph-name="uni022D" unicode="&#x22d;" horiz-adv-x="604" 
d="M290 -10q-72 0 -129 32t-89.5 89.5t-32.5 134.5v19q0 78 32.5 135.5t89.5 89t129 31.5h24q72 0 129 -31.5t89.5 -89t32.5 -135.5v-19q0 -77 -32.5 -135t-89.5 -89.5t-129 -31.5h-24zM302 90q27 0 48.5 13t34.5 37.5t13 57.5v115q0 34 -13 58t-34.5 37t-48.5 13t-48.5 -13
t-34.5 -37t-13 -58v-115q0 -33 13 -57.5t34.5 -37.5t48.5 -13zM100 597q0 37 15 67.5t43 49t66 18.5q35 0 60.5 -9.5t48.5 -19t49 -9.5q21 0 34.5 10.5t18.5 27.5h69q0 -37 -15 -67.5t-43 -49t-67 -18.5q-34 0 -59 9t-48 18.5t-51 10.5q-20 0 -33.5 -10.5t-18.5 -27.5h-69z
M124 784v79h355v-79h-355z" />
    <glyph glyph-name="oe" unicode="&#x153;" horiz-adv-x="947" 
d="M290 -10q-72 0 -129 32t-89.5 89.5t-32.5 134.5v19q0 78 32.5 135.5t89.5 89t129 31.5h24q50 0 92.5 -17t73.5 -49q31 33 76 49.5t99 16.5h19q72 0 124 -28t80 -78.5t28 -116.5v-63h-341q0 -42 9.5 -75t30.5 -51.5t56 -18.5q31 0 52.5 12t33.5 34.5t12 54.5h146
q0 -58 -29.5 -103.5t-82.5 -71.5t-125 -26h-12q-54 0 -98 17.5t-77 50.5q-31 -33 -73.5 -50.5t-93.5 -17.5h-24zM302 90q27 0 48.5 13t34.5 37.5t13 57.5v115q0 34 -13 58t-34.5 37t-48.5 13t-48.5 -13t-34.5 -37t-13 -58v-115q0 -33 13 -57.5t34.5 -37.5t48.5 -13zM565 311
h186q0 57 -25 83.5t-66 26.5q-40 0 -66.5 -28t-28.5 -82z" />
    <glyph glyph-name="p" unicode="p" horiz-adv-x="601" 
d="M62 -181v692h123l17 -64q22 31 59.5 52.5t89.5 21.5q60 0 107.5 -25.5t75.5 -81.5t28 -146v-21q0 -85 -28 -142.5t-74 -86t-100 -28.5t-88.5 19.5t-52.5 48.5v-239h-157zM308 91q25 0 44.5 13t31 37.5t11.5 57.5v108q0 37 -11.5 62t-31 37.5t-44.5 12.5
q-24 0 -44.5 -12.5t-32.5 -37t-12 -62.5v-108q0 -34 11.5 -58t32 -37t45.5 -13z" />
    <glyph glyph-name="thorn" unicode="&#xfe;" horiz-adv-x="601" 
d="M62 -181v901h157v-252q23 24 56 38.5t76 14.5q60 0 108 -25.5t75.5 -81.5t27.5 -146v-21q0 -85 -28 -142.5t-74 -86t-100 -28.5q-53 0 -87.5 19.5t-53.5 48.5v-239h-157zM308 91q25 0 44.5 13t31 37.5t11.5 57.5v108q0 37 -11.5 62t-31 37.5t-44.5 12.5
q-24 0 -44.5 -12.5t-32.5 -37t-12 -62.5v-108q0 -34 12 -58t32.5 -37t44.5 -13z" />
    <glyph glyph-name="q" unicode="q" horiz-adv-x="602" 
d="M382 -180v238q-18 -24 -53 -46t-88 -22q-61 0 -106 28t-70.5 85t-25.5 142v11q0 90 30.5 148.5t80.5 87.5t109 29q55 0 95 -19.5t69 -62.5l60 72h56v-691h-157zM293 91q25 0 45.5 13t32 37t11.5 58v108q0 38 -11.5 62.5t-32 37t-45.5 12.5q-24 0 -44 -13t-31.5 -37.5
t-11.5 -61.5v-108q0 -34 11.5 -58t31.5 -37t44 -13z" />
    <glyph glyph-name="r" unicode="r" horiz-adv-x="501" 
d="M62 0v511h118l18 -74q3 4 11.5 17.5t25.5 29t42 26.5t59 11q51 0 83 -19t47.5 -54.5t15.5 -84.5q0 -11 -1 -25.5t-2 -26.5h-130v22q0 17 -6.5 34t-20.5 27.5t-38 10.5q-18 0 -31 -7t-21 -18.5t-11.5 -25t-3.5 -27.5v-327h-155z" />
    <glyph glyph-name="racute" unicode="&#x155;" horiz-adv-x="501" 
d="M62 0v511h118l18 -74q3 4 11.5 17.5t25.5 29t42 26.5t59 11q51 0 83 -19t47.5 -54.5t15.5 -84.5q0 -11 -1 -25.5t-2 -26.5h-130v22q0 17 -6.5 34t-20.5 27.5t-38 10.5q-18 0 -31 -7t-21 -18.5t-11.5 -25t-3.5 -27.5v-327h-155zM211 586l85 174h134l1 -3l-114 -171h-106z
" />
    <glyph glyph-name="rcaron" unicode="&#x159;" horiz-adv-x="501" 
d="M62 0v511h118l18 -74q3 4 11.5 17.5t25.5 29t42 26.5t59 11q51 0 83 -19t47.5 -54.5t15.5 -84.5q0 -11 -1 -25.5t-2 -26.5h-130v22q0 17 -6.5 34t-20.5 27.5t-38 10.5q-18 0 -31 -7t-21 -18.5t-11.5 -25t-3.5 -27.5v-327h-155zM461 762l-132 -179h-124l-132 179h116
l114 -158h-71l114 158h115z" />
    <glyph glyph-name="uni0157" unicode="&#x157;" horiz-adv-x="500" 
d="M62 0v511h118l18 -74q3 4 11.5 17.5t25.5 29t42 26.5t59 11q51 0 83 -19t47.5 -54.5t15.5 -84.5q0 -11 -1 -25.5t-2 -26.5h-130v22q0 17 -6.5 34t-20.5 27.5t-38 10.5q-18 0 -31 -7t-21 -18.5t-11.5 -25t-3.5 -27.5v-327h-155zM71 -375v16q31 32 46 67.5t15 72.5h-61v146
h134v-124q0 -50 -16 -96.5t-48 -81.5h-70z" />
    <glyph glyph-name="uni0211" unicode="&#x211;" horiz-adv-x="501" 
d="M62 0v511h118l18 -74q3 4 11.5 17.5t25.5 29t42 26.5t59 11q51 0 83 -19t47.5 -54.5t15.5 -84.5q0 -11 -1 -25.5t-2 -26.5h-130v22q0 17 -6.5 34t-20.5 27.5t-38 10.5q-18 0 -31 -7t-21 -18.5t-11.5 -25t-3.5 -27.5v-327h-155zM324 592l-122 142l4 3h127l93 -145h-102z
M128 592l-122 142l2 3h129l92 -145h-101z" />
    <glyph glyph-name="uni0213" unicode="&#x213;" horiz-adv-x="501" 
d="M62 0v511h118l18 -74q3 4 11.5 17.5t25.5 29t42 26.5t59 11q51 0 83 -19t47.5 -54.5t15.5 -84.5q0 -11 -1 -25.5t-2 -26.5h-130v22q0 17 -6.5 34t-20.5 27.5t-38 10.5q-18 0 -31 -7t-21 -18.5t-11.5 -25t-3.5 -27.5v-327h-155zM79 596q0 39 23.5 70t66.5 48.5t102 17.5
q62 0 102.5 -17.5t60.5 -48.5t20 -70h-87q-6 28 -30 42t-70 14q-45 0 -69.5 -14t-31.5 -42h-87z" />
    <glyph glyph-name="s" unicode="s" horiz-adv-x="552" 
d="M249 -10q-46 0 -85 11t-68.5 31.5t-46 49t-16.5 63.5v9t1 10h131q-1 -2 -1 -4v-4q0 -24 16 -38.5t41 -21t52 -6.5q20 0 43.5 5t40.5 16t17 30q0 21 -17.5 32t-46.5 17t-63.5 11.5t-69.5 14t-64 25t-46.5 44.5t-17.5 73q0 41 18.5 72t51 51t72.5 30t82 10h23q38 0 75 -9.5
t67 -27.5t48 -43.5t18 -56.5q0 -6 -0.5 -12.5t-0.5 -10.5h-133v8q0 10 -6 20t-18 17.5t-28.5 12t-38.5 4.5q-18 0 -35 -3.5t-29.5 -9.5t-19.5 -14.5t-7 -18.5q0 -20 17.5 -30t47 -15.5t64.5 -10t70 -13t64 -25t47 -45t18 -74.5q0 -49 -19 -82.5t-51.5 -53.5t-73.5 -29
t-85 -9h-38z" />
    <glyph glyph-name="sacute" unicode="&#x15b;" horiz-adv-x="552" 
d="M249 -10q-46 0 -85 11t-68.5 31.5t-46 49t-16.5 63.5v9t1 10h131q-1 -2 -1 -4v-4q0 -24 16 -38.5t41 -21t52 -6.5q20 0 43.5 5t40.5 16t17 30q0 21 -17.5 32t-46.5 17t-63.5 11.5t-69.5 14t-64 25t-46.5 44.5t-17.5 73q0 41 18.5 72t51 51t72.5 30t82 10h23q38 0 75 -9.5
t67 -27.5t48 -43.5t18 -56.5q0 -6 -0.5 -12.5t-0.5 -10.5h-133v8q0 10 -6 20t-18 17.5t-28.5 12t-38.5 4.5q-18 0 -35 -3.5t-29.5 -9.5t-19.5 -14.5t-7 -18.5q0 -20 17.5 -30t47 -15.5t64.5 -10t70 -13t64 -25t47 -45t18 -74.5q0 -49 -19 -82.5t-51.5 -53.5t-73.5 -29
t-85 -9h-38zM218 586l85 174h134l1 -3l-114 -171h-106z" />
    <glyph glyph-name="scaron" unicode="&#x161;" horiz-adv-x="552" 
d="M249 -10q-46 0 -85 11t-68.5 31.5t-46 49t-16.5 63.5v9t1 10h131q-1 -2 -1 -4v-4q0 -24 16 -38.5t41 -21t52 -6.5q20 0 43.5 5t40.5 16t17 30q0 21 -17.5 32t-46.5 17t-63.5 11.5t-69.5 14t-64 25t-46.5 44.5t-17.5 73q0 41 18.5 72t51 51t72.5 30t82 10h23q38 0 75 -9.5
t67 -27.5t48 -43.5t18 -56.5q0 -6 -0.5 -12.5t-0.5 -10.5h-133v8q0 10 -6 20t-18 17.5t-28.5 12t-38.5 4.5q-18 0 -35 -3.5t-29.5 -9.5t-19.5 -14.5t-7 -18.5q0 -20 17.5 -30t47 -15.5t64.5 -10t70 -13t64 -25t47 -45t18 -74.5q0 -49 -19 -82.5t-51.5 -53.5t-73.5 -29
t-85 -9h-38zM468 762l-132 -179h-124l-132 179h116l114 -158h-71l114 158h115z" />
    <glyph glyph-name="scedilla" unicode="&#x15f;" horiz-adv-x="552" 
d="M249 -10q-46 0 -85 11t-68.5 31.5t-46 49t-16.5 63.5v9t1 10h131q-1 -2 -1 -4v-4q0 -24 16 -38.5t41 -21t52 -6.5q20 0 43.5 5t40.5 16t17 30q0 21 -17.5 32t-46.5 17t-63.5 11.5t-69.5 14t-64 25t-46.5 44.5t-17.5 73q0 41 18.5 72t51 51t72.5 30t82 10h23q38 0 75 -9.5
t67 -27.5t48 -43.5t18 -56.5q0 -6 -0.5 -12.5t-0.5 -10.5h-133v8q0 10 -6 20t-18 17.5t-28.5 12t-38.5 4.5q-18 0 -35 -3.5t-29.5 -9.5t-19.5 -14.5t-7 -18.5q0 -20 17.5 -30t47 -15.5t64.5 -10t70 -13t64 -25t47 -45t18 -74.5q0 -49 -19 -82.5t-51.5 -53.5t-73.5 -29
t-85 -9h-38zM268 -210q-29 0 -58 7.5t-50 21.5l23 56q14 -10 32.5 -18t47.5 -8q20 0 33.5 8.5t13.5 26.5q0 16 -11 23t-27 7h-21v56h31q28 0 53 -8t41 -27t16 -52q0 -34 -19.5 -54.5t-48 -29.5t-56.5 -9z" />
    <glyph glyph-name="scircumflex" unicode="&#x15d;" horiz-adv-x="552" 
d="M249 -10q-46 0 -85 11t-68.5 31.5t-46 49t-16.5 63.5v9t1 10h131q-1 -2 -1 -4v-4q0 -24 16 -38.5t41 -21t52 -6.5q20 0 43.5 5t40.5 16t17 30q0 21 -17.5 32t-46.5 17t-63.5 11.5t-69.5 14t-64 25t-46.5 44.5t-17.5 73q0 41 18.5 72t51 51t72.5 30t82 10h23q38 0 75 -9.5
t67 -27.5t48 -43.5t18 -56.5q0 -6 -0.5 -12.5t-0.5 -10.5h-133v8q0 10 -6 20t-18 17.5t-28.5 12t-38.5 4.5q-18 0 -35 -3.5t-29.5 -9.5t-19.5 -14.5t-7 -18.5q0 -20 17.5 -30t47 -15.5t64.5 -10t70 -13t64 -25t47 -45t18 -74.5q0 -49 -19 -82.5t-51.5 -53.5t-73.5 -29
t-85 -9h-38zM80 581l132 179h124l132 -179h-116l-117 158h77l-117 -158h-115z" />
    <glyph glyph-name="uni0219" unicode="&#x219;" horiz-adv-x="552" 
d="M249 -10q-46 0 -85 11t-68.5 31.5t-46 49t-16.5 63.5v9t1 10h131q-1 -2 -1 -4v-4q0 -24 16 -38.5t41 -21t52 -6.5q20 0 43.5 5t40.5 16t17 30q0 21 -17.5 32t-46.5 17t-63.5 11.5t-69.5 14t-64 25t-46.5 44.5t-17.5 73q0 41 18.5 72t51 51t72.5 30t82 10h23q38 0 75 -9.5
t67 -27.5t48 -43.5t18 -56.5q0 -6 -0.5 -12.5t-0.5 -10.5h-133v8q0 10 -6 20t-18 17.5t-28.5 12t-38.5 4.5q-18 0 -35 -3.5t-29.5 -9.5t-19.5 -14.5t-7 -18.5q0 -20 17.5 -30t47 -15.5t64.5 -10t70 -13t64 -25t47 -45t18 -74.5q0 -49 -19 -82.5t-51.5 -53.5t-73.5 -29
t-85 -9h-38zM210 -375v16q31 32 46 67.5t15 72.5h-61v146h134v-124q0 -50 -16 -96.5t-48 -81.5h-70z" />
    <glyph glyph-name="uni1E63" unicode="&#x1e63;" horiz-adv-x="552" 
d="M249 -10q-46 0 -85 11t-68.5 31.5t-46 49t-16.5 63.5v9t1 10h131q-1 -2 -1 -4v-4q0 -24 16 -38.5t41 -21t52 -6.5q20 0 43.5 5t40.5 16t17 30q0 21 -17.5 32t-46.5 17t-63.5 11.5t-69.5 14t-64 25t-46.5 44.5t-17.5 73q0 41 18.5 72t51 51t72.5 30t82 10h23q38 0 75 -9.5
t67 -27.5t48 -43.5t18 -56.5q0 -6 -0.5 -12.5t-0.5 -10.5h-133v8q0 10 -6 20t-18 17.5t-28.5 12t-38.5 4.5q-18 0 -35 -3.5t-29.5 -9.5t-19.5 -14.5t-7 -18.5q0 -20 17.5 -30t47 -15.5t64.5 -10t70 -13t64 -25t47 -45t18 -74.5q0 -49 -19 -82.5t-51.5 -53.5t-73.5 -29
t-85 -9h-38zM218 -183v122h124v-122h-124z" />
    <glyph glyph-name="germandbls" unicode="&#xdf;" horiz-adv-x="642" 
d="M97 -66v462h-60v115h60q3 69 38 117.5t91 74t119 25.5q44 0 86 -10.5t76 -33.5t54 -58t20 -84q0 -32 -11.5 -62t-33 -52.5t-51.5 -34.5l1 -4q53 -19 86.5 -67.5t33.5 -106.5q0 -69 -30.5 -117t-84 -73t-120.5 -25h-71v120h46q28 0 52 14t38 38.5t14 53.5t-14 53.5
t-37.5 38.5t-52.5 14h-46v101h42q25 0 45 11.5t32 31.5t12 44q0 25 -11 45t-30.5 31.5t-44.5 11.5q-40 0 -65.5 -27t-25.5 -69v-578h-157z" />
    <glyph glyph-name="longs" unicode="&#x17f;" horiz-adv-x="397" 
d="M96 0v396h-62v115h62v77q0 75 45 107.5t115 32.5q16 0 37.5 -2.5t43 -7t35.5 -10.5v-92q-11 4 -31 7.5t-31 3.5q-12 0 -25.5 -3.5t-22.5 -16t-9 -40.5v-567h-157z" />
    <glyph glyph-name="t" unicode="t" horiz-adv-x="399" 
d="M248 -10q-47 0 -83 12t-56.5 41.5t-20.5 78.5v274h-56v115h61l55 163h97v-163h119v-115h-119v-237q0 -44 18 -56.5t39 -12.5q11 0 30.5 4.5t31.5 9.5v-94q-14 -6 -35.5 -11t-43 -7t-37.5 -2z" />
    <glyph glyph-name="tbar" unicode="&#x167;" horiz-adv-x="399" 
d="M248 -10q-47 0 -83 12t-56.5 41.5t-20.5 78.5v274h-56v115h61l55 163h97v-163h119v-115h-119v-237q0 -44 18 -56.5t39 -12.5q11 0 30.5 4.5t31.5 9.5v-94q-14 -6 -35.5 -11t-43 -7t-37.5 -2zM32 212v103h332v-103h-332z" />
    <glyph glyph-name="tcaron" unicode="&#x165;" horiz-adv-x="399" 
d="M248 -10q-47 0 -83 12t-56.5 41.5t-20.5 78.5v274h-56v115h61l55 163h97v-163h119v-115h-119v-237q0 -44 18 -56.5t39 -12.5q11 0 30.5 4.5t31.5 9.5v-94q-14 -6 -35.5 -11t-43 -7t-37.5 -2zM301 568v16q28 29 42.5 61t14.5 66h-58v135h128v-114q0 -47 -16 -88.5
t-46 -75.5h-65z" />
    <glyph glyph-name="uni0163" unicode="&#x163;" horiz-adv-x="399" 
d="M248 -10q-47 0 -83 12t-56.5 41.5t-20.5 78.5v274h-56v115h61l55 163h97v-163h119v-115h-119v-237q0 -44 18 -56.5t39 -12.5q11 0 30.5 4.5t31.5 9.5v-94q-14 -6 -35.5 -11t-43 -7t-37.5 -2zM214 -210q-29 0 -58 7.5t-50 21.5l23 56q14 -10 32.5 -18t47.5 -8
q20 0 33.5 8.5t13.5 26.5q0 16 -11 23t-27 7h-21v56h31q28 0 53 -8t41 -27t16 -52q0 -34 -19.5 -54.5t-48 -29.5t-56.5 -9z" />
    <glyph glyph-name="uni021B" unicode="&#x21b;" horiz-adv-x="399" 
d="M248 -10q-47 0 -83 12t-56.5 41.5t-20.5 78.5v274h-56v115h61l55 163h97v-163h119v-115h-119v-237q0 -44 18 -56.5t39 -12.5q11 0 30.5 4.5t31.5 9.5v-94q-14 -6 -35.5 -11t-43 -7t-37.5 -2zM156 -375v16q31 32 46 67.5t15 72.5h-61v146h134v-124q0 -50 -16 -96.5
t-48 -81.5h-70z" />
    <glyph glyph-name="uni1E6D" unicode="&#x1e6d;" horiz-adv-x="399" 
d="M248 -10q-47 0 -83 12t-56.5 41.5t-20.5 78.5v274h-56v115h61l55 163h97v-163h119v-115h-119v-237q0 -44 18 -56.5t39 -12.5q11 0 30.5 4.5t31.5 9.5v-94q-14 -6 -35.5 -11t-43 -7t-37.5 -2zM164 -183v122h124v-122h-124z" />
    <glyph glyph-name="u" unicode="u" horiz-adv-x="625" 
d="M225 -10q-78 0 -122.5 43.5t-44.5 124.5v353h157v-320q0 -43 18.5 -64.5t55.5 -21.5q24 0 43.5 11.5t31 32t11.5 44.5v318h157v-385q0 -19 9.5 -27.5t20.5 -8.5q10 0 20 3.5t19 7.5v-89q-13 -10 -35 -16t-55 -6q-39 0 -64 10.5t-39 29.5t-21 43q-25 -39 -68 -61t-94 -22z
" />
    <glyph glyph-name="uacute" unicode="&#xfa;" horiz-adv-x="625" 
d="M225 -10q-78 0 -122.5 43.5t-44.5 124.5v353h157v-320q0 -43 18.5 -64.5t55.5 -21.5q24 0 43.5 11.5t31 32t11.5 44.5v318h157v-385q0 -19 9.5 -27.5t20.5 -8.5q10 0 20 3.5t19 7.5v-89q-13 -10 -35 -16t-55 -6q-39 0 -64 10.5t-39 29.5t-21 43q-25 -39 -68 -61t-94 -22z
M240 586l85 174h134l1 -3l-114 -171h-106z" />
    <glyph glyph-name="uni0289" unicode="&#x289;" horiz-adv-x="625" 
d="M-2 354h595v-111h-595v111zM225 -10q-78 0 -122.5 43.5t-44.5 124.5v353h157v-320q0 -43 18.5 -64.5t55.5 -21.5q24 0 43.5 11.5t31 32t11.5 44.5v318h157v-385q0 -19 9.5 -27.5t20.5 -8.5q10 0 20 3.5t19 7.5v-89q-13 -10 -35 -16t-55 -6q-39 0 -64 10.5t-39 29.5
t-21 43q-25 -39 -68 -61t-94 -22z" />
    <glyph glyph-name="ubreve" unicode="&#x16d;" horiz-adv-x="625" 
d="M225 -10q-78 0 -122.5 43.5t-44.5 124.5v353h157v-320q0 -43 18.5 -64.5t55.5 -21.5q24 0 43.5 11.5t31 32t11.5 44.5v318h157v-385q0 -19 9.5 -27.5t20.5 -8.5q10 0 20 3.5t19 7.5v-89q-13 -10 -35 -16t-55 -6q-39 0 -64 10.5t-39 29.5t-21 43q-25 -39 -68 -61t-94 -22z
M291 588q-60 0 -99 20.5t-58 55.5t-21 81h88q6 -39 29 -57.5t65 -18.5q44 0 67 18.5t30 57.5h87q-1 -46 -24 -81t-64 -55.5t-100 -20.5z" />
    <glyph glyph-name="uni01D4" unicode="&#x1d4;" horiz-adv-x="625" 
d="M225 -10q-78 0 -122.5 43.5t-44.5 124.5v353h157v-320q0 -43 18.5 -64.5t55.5 -21.5q24 0 43.5 11.5t31 32t11.5 44.5v318h157v-385q0 -19 9.5 -27.5t20.5 -8.5q10 0 20 3.5t19 7.5v-89q-13 -10 -35 -16t-55 -6q-39 0 -64 10.5t-39 29.5t-21 43q-25 -39 -68 -61t-94 -22z
M490 762l-132 -179h-124l-132 179h116l114 -158h-71l114 158h115z" />
    <glyph glyph-name="ucircumflex" unicode="&#xfb;" horiz-adv-x="625" 
d="M225 -10q-78 0 -122.5 43.5t-44.5 124.5v353h157v-320q0 -43 18.5 -64.5t55.5 -21.5q24 0 43.5 11.5t31 32t11.5 44.5v318h157v-385q0 -19 9.5 -27.5t20.5 -8.5q10 0 20 3.5t19 7.5v-89q-13 -10 -35 -16t-55 -6q-39 0 -64 10.5t-39 29.5t-21 43q-25 -39 -68 -61t-94 -22z
M102 581l132 179h124l132 -179h-116l-117 158h77l-117 -158h-115z" />
    <glyph glyph-name="uni0215" unicode="&#x215;" horiz-adv-x="625" 
d="M225 -10q-78 0 -122.5 43.5t-44.5 124.5v353h157v-320q0 -43 18.5 -64.5t55.5 -21.5q24 0 43.5 11.5t31 32t11.5 44.5v318h157v-385q0 -19 9.5 -27.5t20.5 -8.5q10 0 20 3.5t19 7.5v-89q-13 -10 -35 -16t-55 -6q-39 0 -64 10.5t-39 29.5t-21 43q-25 -39 -68 -61t-94 -22z
M353 592l-122 142l4 3h127l93 -145h-102zM157 592l-122 142l2 3h129l92 -145h-101z" />
    <glyph glyph-name="udieresis" unicode="&#xfc;" horiz-adv-x="625" 
d="M225 -10q-78 0 -122.5 43.5t-44.5 124.5v353h157v-320q0 -43 18.5 -64.5t55.5 -21.5q24 0 43.5 11.5t31 32t11.5 44.5v318h157v-385q0 -19 9.5 -27.5t20.5 -8.5q10 0 20 3.5t19 7.5v-89q-13 -10 -35 -16t-55 -6q-39 0 -64 10.5t-39 29.5t-21 43q-25 -39 -68 -61t-94 -22z
M114 606v122h124v-122h-124zM354 606v122h124v-122h-124z" />
    <glyph glyph-name="uni01D8" unicode="&#x1d8;" horiz-adv-x="625" 
d="M225 -10q-78 0 -122.5 43.5t-44.5 124.5v353h157v-320q0 -43 18.5 -64.5t55.5 -21.5q24 0 43.5 11.5t31 32t11.5 44.5v318h157v-385q0 -19 9.5 -27.5t20.5 -8.5q10 0 20 3.5t19 7.5v-89q-13 -10 -35 -16t-55 -6q-39 0 -64 10.5t-39 29.5t-21 43q-25 -39 -68 -61t-94 -22z
M249 772l93 145h127l1 -3l-122 -142h-99zM130 604v121h124v-121h-124zM338 604v121h124v-121h-124z" />
    <glyph glyph-name="uni01DA" unicode="&#x1da;" horiz-adv-x="625" 
d="M225 -10q-78 0 -122.5 43.5t-44.5 124.5v353h157v-320q0 -43 18.5 -64.5t55.5 -21.5q24 0 43.5 11.5t31 32t11.5 44.5v318h157v-385q0 -19 9.5 -27.5t20.5 -8.5q10 0 20 3.5t19 7.5v-89q-13 -10 -35 -16t-55 -6q-39 0 -64 10.5t-39 29.5t-21 43q-25 -39 -68 -61t-94 -22z
M243 771l-138 145h111l82 -82l82 82h109l-138 -145h-108zM130 604v121h124v-121h-124zM338 604v121h124v-121h-124z" />
    <glyph glyph-name="uni01DC" unicode="&#x1dc;" horiz-adv-x="625" 
d="M225 -10q-78 0 -122.5 43.5t-44.5 124.5v353h157v-320q0 -43 18.5 -64.5t55.5 -21.5q24 0 43.5 11.5t31 32t11.5 44.5v318h157v-385q0 -19 9.5 -27.5t20.5 -8.5q10 0 20 3.5t19 7.5v-89q-13 -10 -35 -16t-55 -6q-39 0 -64 10.5t-39 29.5t-21 43q-25 -39 -68 -61t-94 -22z
M244 771l-122 142l1 3h128l92 -145h-99zM130 604v121h124v-121h-124zM338 604v121h124v-121h-124z" />
    <glyph glyph-name="uni01D6" unicode="&#x1d6;" horiz-adv-x="625" 
d="M225 -10q-78 0 -122.5 43.5t-44.5 124.5v353h157v-320q0 -43 18.5 -64.5t55.5 -21.5q24 0 43.5 11.5t31 32t11.5 44.5v318h157v-385q0 -19 9.5 -27.5t20.5 -8.5q10 0 20 3.5t19 7.5v-89q-13 -10 -35 -16t-55 -6q-39 0 -64 10.5t-39 29.5t-21 43q-25 -39 -68 -61t-94 -22z
M128 771v88h336v-88h-336zM130 604v121h124v-121h-124zM338 604v121h124v-121h-124z" />
    <glyph glyph-name="uni1EE5" unicode="&#x1ee5;" horiz-adv-x="625" 
d="M225 -10q-78 0 -122.5 43.5t-44.5 124.5v353h157v-320q0 -43 18.5 -64.5t55.5 -21.5q24 0 43.5 11.5t31 32t11.5 44.5v318h157v-385q0 -19 9.5 -27.5t20.5 -8.5q10 0 20 3.5t19 7.5v-89q-13 -10 -35 -16t-55 -6q-39 0 -64 10.5t-39 29.5t-21 43q-25 -39 -68 -61t-94 -22z
M260 -183v122h124v-122h-124z" />
    <glyph glyph-name="ugrave" unicode="&#xf9;" horiz-adv-x="625" 
d="M225 -10q-78 0 -122.5 43.5t-44.5 124.5v353h157v-320q0 -43 18.5 -64.5t55.5 -21.5q24 0 43.5 11.5t31 32t11.5 44.5v318h157v-385q0 -19 9.5 -27.5t20.5 -8.5q10 0 20 3.5t19 7.5v-89q-13 -10 -35 -16t-55 -6q-39 0 -64 10.5t-39 29.5t-21 43q-25 -39 -68 -61t-94 -22z
M246 586l-114 171l1 3h134l85 -174h-106z" />
    <glyph glyph-name="uni1EE7" unicode="&#x1ee7;" horiz-adv-x="625" 
d="M225 -10q-78 0 -122.5 43.5t-44.5 124.5v353h157v-320q0 -43 18.5 -64.5t55.5 -21.5q24 0 43.5 11.5t31 32t11.5 44.5v318h157v-385q0 -19 9.5 -27.5t20.5 -8.5q10 0 20 3.5t19 7.5v-89q-13 -10 -35 -16t-55 -6q-39 0 -64 10.5t-39 29.5t-21 43q-25 -39 -68 -61t-94 -22z
M286 570v70q30 3 46 15.5t16 35.5q0 19 -13.5 29t-36.5 10q-14 0 -31 -2.5t-38 -9.5v91q20 6 38.5 8t36.5 2q56 0 94 -29.5t38 -84.5q0 -39 -22 -68.5t-56 -47t-72 -19.5z" />
    <glyph glyph-name="uhorn" unicode="&#x1b0;" horiz-adv-x="625" 
d="M225 -10q-78 0 -122.5 43.5t-44.5 124.5v353h157v-320q0 -43 18.5 -64.5t55.5 -21.5q24 0 43.5 11.5t31 32t11.5 44.5v318h157v-385q0 -19 9.5 -27.5t20.5 -8.5q10 0 20 3.5t19 7.5v-89q-13 -10 -35 -16t-55 -6q-39 0 -64 10.5t-39 29.5t-21 43q-25 -39 -68 -61t-94 -22z
M429 431v81q49 8 66.5 43t17.5 99h134q0 -57 -27.5 -105.5t-77 -80t-113.5 -37.5z" />
    <glyph glyph-name="uni1EE9" unicode="&#x1ee9;" horiz-adv-x="625" 
d="M225 -10q-78 0 -122.5 43.5t-44.5 124.5v353h157v-320q0 -43 18.5 -64.5t55.5 -21.5q24 0 43.5 11.5t31 32t11.5 44.5v318h157v-385q0 -19 9.5 -27.5t20.5 -8.5q10 0 20 3.5t19 7.5v-89q-13 -10 -35 -16t-55 -6q-39 0 -64 10.5t-39 29.5t-21 43q-25 -39 -68 -61t-94 -22z
M429 431v81q49 8 66.5 43t17.5 99h134q0 -57 -27.5 -105.5t-77 -80t-113.5 -37.5zM240 586l85 174h134l1 -3l-114 -171h-106z" />
    <glyph glyph-name="uni1EF1" unicode="&#x1ef1;" horiz-adv-x="625" 
d="M225 -10q-78 0 -122.5 43.5t-44.5 124.5v353h157v-320q0 -43 18.5 -64.5t55.5 -21.5q24 0 43.5 11.5t31 32t11.5 44.5v318h157v-385q0 -19 9.5 -27.5t20.5 -8.5q10 0 20 3.5t19 7.5v-89q-13 -10 -35 -16t-55 -6q-39 0 -64 10.5t-39 29.5t-21 43q-25 -39 -68 -61t-94 -22z
M429 431v81q49 8 66.5 43t17.5 99h134q0 -57 -27.5 -105.5t-77 -80t-113.5 -37.5zM260 -183v122h124v-122h-124z" />
    <glyph glyph-name="uni1EEB" unicode="&#x1eeb;" horiz-adv-x="625" 
d="M225 -10q-78 0 -122.5 43.5t-44.5 124.5v353h157v-320q0 -43 18.5 -64.5t55.5 -21.5q24 0 43.5 11.5t31 32t11.5 44.5v318h157v-385q0 -19 9.5 -27.5t20.5 -8.5q10 0 20 3.5t19 7.5v-89q-13 -10 -35 -16t-55 -6q-39 0 -64 10.5t-39 29.5t-21 43q-25 -39 -68 -61t-94 -22z
M429 431v81q49 8 66.5 43t17.5 99h134q0 -57 -27.5 -105.5t-77 -80t-113.5 -37.5zM246 586l-114 171l1 3h134l85 -174h-106z" />
    <glyph glyph-name="uni1EED" unicode="&#x1eed;" horiz-adv-x="625" 
d="M225 -10q-78 0 -122.5 43.5t-44.5 124.5v353h157v-320q0 -43 18.5 -64.5t55.5 -21.5q24 0 43.5 11.5t31 32t11.5 44.5v318h157v-385q0 -19 9.5 -27.5t20.5 -8.5q10 0 20 3.5t19 7.5v-89q-13 -10 -35 -16t-55 -6q-39 0 -64 10.5t-39 29.5t-21 43q-25 -39 -68 -61t-94 -22z
M429 431v81q49 8 66.5 43t17.5 99h134q0 -57 -27.5 -105.5t-77 -80t-113.5 -37.5zM286 570v70q30 3 46 15.5t16 35.5q0 19 -13.5 29t-36.5 10q-14 0 -31 -2.5t-38 -9.5v91q20 6 38.5 8t36.5 2q56 0 94 -29.5t38 -84.5q0 -39 -22 -68.5t-56 -47t-72 -19.5z" />
    <glyph glyph-name="uni1EEF" unicode="&#x1eef;" horiz-adv-x="625" 
d="M228 -10q-78 0 -124 44t-46 123v354h157v-318q0 -41 20.5 -64.5t57.5 -23.5q24 0 42.5 11.5t29 32t10.5 44.5v318h157v-385q0 -19 9.5 -27.5t20.5 -8.5q10 0 20 3.5t19 7.5v-89q-13 -10 -35 -16t-55 -6q-39 0 -64 10.5t-39 29.5t-21 43q-25 -39 -66.5 -61t-92.5 -22z
M99 592q0 31 16.5 60t45.5 47.5t68 18.5q32 0 53.5 -9t42 -18.5t46.5 -9.5q21 0 34 10t18 27h69q0 -30 -16.5 -59t-45 -48t-67.5 -19q-24 0 -40.5 5t-31 12.5t-31 13.5t-40.5 7q-20 0 -33.5 -10.5t-18.5 -27.5h-69zM429 430l7 81q49 8 66.5 43t17.5 99h127
q0 -57 -27.5 -105.5t-77 -80t-113.5 -37.5z" />
    <glyph glyph-name="uhungarumlaut" unicode="&#x171;" horiz-adv-x="625" 
d="M225 -10q-78 0 -122.5 43.5t-44.5 124.5v353h157v-320q0 -43 18.5 -64.5t55.5 -21.5q24 0 43.5 11.5t31 32t11.5 44.5v318h157v-385q0 -19 9.5 -27.5t20.5 -8.5q10 0 20 3.5t19 7.5v-89q-13 -10 -35 -16t-55 -6q-39 0 -64 10.5t-39 29.5t-21 43q-25 -39 -68 -61t-94 -22z
M324 592l92 145h129l2 -3l-117 -142h-106zM131 592l91 145h127l4 -3l-116 -142h-106z" />
    <glyph glyph-name="uni0217" unicode="&#x217;" horiz-adv-x="625" 
d="M225 -10q-78 0 -122.5 43.5t-44.5 124.5v353h157v-320q0 -43 18.5 -64.5t55.5 -21.5q24 0 43.5 11.5t31 32t11.5 44.5v318h157v-385q0 -19 9.5 -27.5t20.5 -8.5q10 0 20 3.5t19 7.5v-89q-13 -10 -35 -16t-55 -6q-39 0 -64 10.5t-39 29.5t-21 43q-25 -39 -68 -61t-94 -22z
M108 596q0 39 23.5 70t66.5 48.5t102 17.5q62 0 102.5 -17.5t60.5 -48.5t20 -70h-87q-6 28 -30 42t-70 14q-45 0 -69.5 -14t-31.5 -42h-87z" />
    <glyph glyph-name="umacron" unicode="&#x16b;" horiz-adv-x="625" 
d="M225 -10q-78 0 -122.5 43.5t-44.5 124.5v353h157v-320q0 -43 18.5 -64.5t55.5 -21.5q24 0 43.5 11.5t31 32t11.5 44.5v318h157v-385q0 -19 9.5 -27.5t20.5 -8.5q10 0 20 3.5t19 7.5v-89q-13 -10 -35 -16t-55 -6q-39 0 -64 10.5t-39 29.5t-21 43q-25 -39 -68 -61t-94 -22z
M124 613v83h344v-83h-344z" />
    <glyph glyph-name="uogonek" unicode="&#x173;" horiz-adv-x="625" 
d="M225 -10q-78 0 -122.5 43.5t-44.5 124.5v353h157v-320q0 -43 18.5 -64.5t55.5 -21.5q24 0 43.5 11.5t31 32t11.5 44.5v318h157v-385q0 -19 9.5 -27.5t20.5 -8.5q10 0 20 3.5t19 7.5v-89q-13 -10 -35 -16t-55 -6q-39 0 -64 10.5t-39 29.5t-21 43q-25 -39 -68 -61t-94 -22z
M537 -146q-25 0 -48.5 7.5t-38.5 24t-15 43.5q0 24 13.5 42.5t30.5 28.5h92q-19 -11 -32 -24t-13 -30q0 -19 12 -26.5t28 -7.5q15 0 31 4t30 9l14 -44q-23 -13 -49.5 -20t-54.5 -7z" />
    <glyph glyph-name="uring" unicode="&#x16f;" horiz-adv-x="625" 
d="M225 -10q-78 0 -122.5 43.5t-44.5 124.5v353h157v-320q0 -43 18.5 -64.5t55.5 -21.5q24 0 43.5 11.5t31 32t11.5 44.5v318h157v-385q0 -19 9.5 -27.5t20.5 -8.5q10 0 20 3.5t19 7.5v-89q-13 -10 -35 -16t-55 -6q-39 0 -64 10.5t-39 29.5t-21 43q-25 -39 -68 -61t-94 -22z
M295 572q-45 0 -75 28t-30 74t30.5 75t76.5 29q45 0 75 -28.5t30 -74.5q0 -45 -30.5 -74t-76.5 -29zM296 633q18 0 29 12.5t11 29.5t-11.5 29t-28.5 12q-19 0 -30 -12t-11 -30q0 -17 11.5 -29t29.5 -12z" />
    <glyph glyph-name="utilde" unicode="&#x169;" horiz-adv-x="625" 
d="M225 -10q-78 0 -122.5 43.5t-44.5 124.5v353h157v-320q0 -43 18.5 -64.5t55.5 -21.5q24 0 43.5 11.5t31 32t11.5 44.5v318h157v-385q0 -19 9.5 -27.5t20.5 -8.5q10 0 20 3.5t19 7.5v-89q-13 -10 -35 -16t-55 -6q-39 0 -64 10.5t-39 29.5t-21 43q-25 -39 -68 -61t-94 -22z
M94 591q2 42 16.5 77.5t41 56t64.5 20.5q37 0 64.5 -14t50.5 -28.5t45 -14.5q23 0 36 15.5t18 42.5h68q-2 -42 -16.5 -77.5t-40.5 -56.5t-64 -21q-37 0 -65.5 14.5t-51.5 29t-46 14.5q-21 0 -33.5 -15.5t-17.5 -42.5h-69z" />
    <glyph glyph-name="v" unicode="v" horiz-adv-x="546" 
d="M183 0l-176 511h168l102 -332h6l103 332h153l-178 -511h-178z" />
    <glyph glyph-name="w" unicode="w" horiz-adv-x="843" 
d="M165 0l-154 511h164l81 -302h6l85 302h160l84 -302h7l81 302h152l-154 -511h-173l-79 278h-6l-78 -278h-176z" />
    <glyph glyph-name="wacute" unicode="&#x1e83;" horiz-adv-x="843" 
d="M165 0l-154 511h164l81 -302h6l85 302h160l84 -302h7l81 302h152l-154 -511h-173l-79 278h-6l-78 -278h-176zM364 586l85 174h134l1 -3l-114 -171h-106z" />
    <glyph glyph-name="wcircumflex" unicode="&#x175;" horiz-adv-x="843" 
d="M165 0l-154 511h164l81 -302h6l85 302h160l84 -302h7l81 302h152l-154 -511h-173l-79 278h-6l-78 -278h-176zM226 581l132 179h124l132 -179h-116l-117 158h77l-117 -158h-115z" />
    <glyph glyph-name="wdieresis" unicode="&#x1e85;" horiz-adv-x="843" 
d="M165 0l-154 511h164l81 -302h6l85 302h160l84 -302h7l81 302h152l-154 -511h-173l-79 278h-6l-78 -278h-176zM238 606v122h124v-122h-124zM478 606v122h124v-122h-124z" />
    <glyph glyph-name="wgrave" unicode="&#x1e81;" horiz-adv-x="843" 
d="M165 0l-154 511h164l81 -302h6l85 302h160l84 -302h7l81 302h152l-154 -511h-173l-79 278h-6l-78 -278h-176zM370 586l-114 171l1 3h134l85 -174h-106z" />
    <glyph glyph-name="x" unicode="x" horiz-adv-x="567" 
d="M6 0l176 268l-160 243h181l86 -143h3l87 143h170l-163 -247l173 -264h-181l-99 165h-3l-100 -165h-170z" />
    <glyph glyph-name="y" unicode="y" horiz-adv-x="542" 
d="M129 -186q-28 0 -50 3.5t-39 10.5v109q11 -5 30.5 -9t38.5 -4q29 0 45.5 11.5t26.5 31.5t18 45l-194 499h168l105 -312h7l97 312h155l-181 -481q-22 -61 -53 -110t-73.5 -77.5t-100.5 -28.5z" />
    <glyph glyph-name="yacute" unicode="&#xfd;" horiz-adv-x="542" 
d="M129 -186q-28 0 -50 3.5t-39 10.5v109q11 -5 30.5 -9t38.5 -4q29 0 45.5 11.5t26.5 31.5t18 45l-194 499h168l105 -312h7l97 312h155l-181 -481q-22 -61 -53 -110t-73.5 -77.5t-100.5 -28.5zM221 586l85 174h134l1 -3l-114 -171h-106z" />
    <glyph glyph-name="ycircumflex" unicode="&#x177;" horiz-adv-x="542" 
d="M129 -186q-28 0 -50 3.5t-39 10.5v109q11 -5 30.5 -9t38.5 -4q29 0 45.5 11.5t26.5 31.5t18 45l-194 499h168l105 -312h7l97 312h155l-181 -481q-22 -61 -53 -110t-73.5 -77.5t-100.5 -28.5zM83 581l132 179h124l132 -179h-116l-117 158h77l-117 -158h-115z" />
    <glyph glyph-name="ydieresis" unicode="&#xff;" horiz-adv-x="542" 
d="M129 -186q-28 0 -50 3.5t-39 10.5v109q11 -5 30.5 -9t38.5 -4q29 0 45.5 11.5t26.5 31.5t18 45l-194 499h168l105 -312h7l97 312h155l-181 -481q-22 -61 -53 -110t-73.5 -77.5t-100.5 -28.5zM95 606v122h124v-122h-124zM335 606v122h124v-122h-124z" />
    <glyph glyph-name="uni1EF5" unicode="&#x1ef5;" horiz-adv-x="542" 
d="M129 -186q-28 0 -50 3.5t-39 10.5v109q11 -5 30.5 -9t38.5 -4q29 0 45.5 11.5t26.5 31.5t18 45l-194 499h168l105 -312h7l97 312h155l-181 -481q-22 -61 -53 -110t-73.5 -77.5t-100.5 -28.5zM363 -168v122h124v-122h-124z" />
    <glyph glyph-name="ygrave" unicode="&#x1ef3;" horiz-adv-x="542" 
d="M129 -186q-28 0 -50 3.5t-39 10.5v109q11 -5 30.5 -9t38.5 -4q29 0 45.5 11.5t26.5 31.5t18 45l-194 499h168l105 -312h7l97 312h155l-181 -481q-22 -61 -53 -110t-73.5 -77.5t-100.5 -28.5zM227 586l-114 171l1 3h134l85 -174h-106z" />
    <glyph glyph-name="uni1EF7" unicode="&#x1ef7;" horiz-adv-x="542" 
d="M129 -186q-28 0 -50 3.5t-39 10.5v109q11 -5 30.5 -9t38.5 -4q29 0 45.5 11.5t26.5 31.5t18 45l-194 499h168l105 -312h7l97 312h155l-181 -481q-22 -61 -53 -110t-73.5 -77.5t-100.5 -28.5zM267 570v70q30 3 46 15.5t16 35.5q0 19 -13.5 29t-36.5 10q-14 0 -31 -2.5
t-38 -9.5v91q20 6 38.5 8t36.5 2q56 0 94 -29.5t38 -84.5q0 -39 -22 -68.5t-56 -47t-72 -19.5z" />
    <glyph glyph-name="uni0233" unicode="&#x233;" horiz-adv-x="542" 
d="M129 -186q-28 0 -50 3.5t-39 10.5v109q11 -5 30.5 -9t38.5 -4q29 0 45.5 11.5t26.5 31.5t18 45l-194 499h168l105 -312h7l97 312h155l-181 -481q-22 -61 -53 -110t-73.5 -77.5t-100.5 -28.5zM105 613v83h344v-83h-344z" />
    <glyph glyph-name="uni1EF9" unicode="&#x1ef9;" horiz-adv-x="542" 
d="M129 -186q-28 0 -50 3.5t-39 10.5v109q11 -5 30.5 -9t38.5 -4q29 0 45.5 11.5t26.5 31.5t18 45l-194 499h168l105 -312h7l97 312h155l-181 -481q-22 -61 -53 -110t-73.5 -77.5t-100.5 -28.5zM75 591q2 42 16.5 77.5t41 56t64.5 20.5q37 0 64.5 -14t50.5 -28.5t45 -14.5
q23 0 36 15.5t18 42.5h68q-2 -42 -16.5 -77.5t-40.5 -56.5t-64 -21q-37 0 -65.5 14.5t-51.5 29t-46 14.5q-21 0 -33.5 -15.5t-17.5 -42.5h-69z" />
    <glyph glyph-name="z" unicode="z" horiz-adv-x="489" 
d="M30 0v52l213 357h-200v102h406v-50l-214 -358h222v-103h-427z" />
    <glyph glyph-name="zacute" unicode="&#x17a;" horiz-adv-x="489" 
d="M30 0v52l213 357h-200v102h406v-50l-214 -358h222v-103h-427zM199 586l85 174h134l1 -3l-114 -171h-106z" />
    <glyph glyph-name="zcaron" unicode="&#x17e;" horiz-adv-x="489" 
d="M30 0v52l213 357h-200v102h406v-50l-214 -358h222v-103h-427zM449 762l-132 -179h-124l-132 179h116l114 -158h-71l114 158h115z" />
    <glyph glyph-name="zdotaccent" unicode="&#x17c;" horiz-adv-x="489" 
d="M30 0v52l213 357h-200v102h406v-50l-214 -358h222v-103h-427zM195 608v122h124v-122h-124z" />
    <glyph glyph-name="g.alt" horiz-adv-x="584" 
d="M147 -188q-34 0 -63 16.5t-47 44t-18 61.5q0 36 20 67t55 48q-22 14 -34.5 36.5t-12.5 48.5q0 37 25 64.5t62 39.5q-31 17 -52 45t-21 69q0 40 17.5 71.5t48.5 53t73 33t91 11.5q37 0 69.5 -5.5t54.5 -16.5q28 5 44 18t23 30.5t7 32.5h114q0 -56 -33 -86.5t-82 -40.5
l-1 -3q15 -16 25 -37t10 -51q0 -44 -25.5 -81t-70 -59t-102.5 -22h-73q-31 0 -46.5 -11.5t-15.5 -28.5q0 -18 14 -29.5t48 -11.5h168q74 0 115.5 -42t41.5 -105q0 -43 -21.5 -79.5t-60.5 -58.5t-90 -22h-257zM210 -93h163q25 0 42.5 15.5t17.5 38.5q0 20 -16 35t-39 15h-168
q-25 0 -41.5 -15t-16.5 -37q0 -21 16.5 -36.5t41.5 -15.5zM294 283q38 0 61 22.5t23 54.5t-23 55t-61 23t-61 -23t-23 -55t23 -54.5t61 -22.5z" />
    <glyph glyph-name="cacute.loclPLK" horiz-adv-x="563" 
d="M276 -10q-65 0 -119 32.5t-86 89t-32 127.5v34q0 54 19 99t52.5 78.5t77 52t93.5 18.5h22q71 0 121.5 -27t77.5 -75t27 -112h-136q0 38 -11 63.5t-31 38t-50 12.5q-40 0 -67.5 -27.5t-27.5 -77.5v-119q0 -50 25.5 -78.5t71.5 -28.5q33 0 54.5 11t32.5 36t11 67h128
q0 -68 -29.5 -116t-81.5 -73t-120 -25h-22zM249 592l32 145h127l2 -3l-62 -142h-99z" />
    <glyph glyph-name="nacute.loclPLK" horiz-adv-x="598" 
d="M62 0v511h117l18 -74q31 43 72 63.5t96 20.5q52 0 90.5 -19.5t59.5 -55.5t21 -86v-360h-157v324q0 41 -21 62t-55 21q-23 0 -42 -12t-30.5 -31.5t-11.5 -44.5v-319h-157zM248 592l32 145h127l2 -3l-62 -142h-99z" />
    <glyph glyph-name="oacute.loclPLK" horiz-adv-x="604" 
d="M290 -10q-72 0 -129 32t-89.5 89.5t-32.5 134.5v19q0 78 32.5 135.5t89.5 89t129 31.5h24q72 0 129 -31.5t89.5 -89t32.5 -135.5v-19q0 -77 -32.5 -135t-89.5 -89.5t-129 -31.5h-24zM302 90q27 0 48.5 13t34.5 37.5t13 57.5v115q0 34 -13 58t-34.5 37t-48.5 13t-48.5 -13
t-34.5 -37t-13 -58v-115q0 -33 13 -57.5t34.5 -37.5t48.5 -13zM255 592l32 145h127l2 -3l-62 -142h-99z" />
    <glyph glyph-name="sacute.loclPLK" horiz-adv-x="552" 
d="M249 -10q-46 0 -85 11t-68.5 31.5t-46 49t-16.5 63.5v9t1 10h131q-1 -2 -1 -4v-4q0 -24 16 -38.5t41 -21t52 -6.5q20 0 43.5 5t40.5 16t17 30q0 21 -17.5 32t-46.5 17t-63.5 11.5t-69.5 14t-64 25t-46.5 44.5t-17.5 73q0 41 18.5 72t51 51t72.5 30t82 10h23q38 0 75 -9.5
t67 -27.5t48 -43.5t18 -56.5q0 -6 -0.5 -12.5t-0.5 -10.5h-133v8q0 10 -6 20t-18 17.5t-28.5 12t-38.5 4.5q-18 0 -35 -3.5t-29.5 -9.5t-19.5 -14.5t-7 -18.5q0 -20 17.5 -30t47 -15.5t64.5 -10t70 -13t64 -25t47 -45t18 -74.5q0 -49 -19 -82.5t-51.5 -53.5t-73.5 -29
t-85 -9h-38zM226 592l32 145h127l2 -3l-62 -142h-99z" />
    <glyph glyph-name="zacute.loclPLK" horiz-adv-x="489" 
d="M30 0v52l213 357h-200v102h406v-50l-214 -358h222v-103h-427zM207 592l32 145h127l2 -3l-62 -142h-99z" />
    <glyph glyph-name="uni207F" unicode="&#x207f;" horiz-adv-x="368" 
d="M40 381v310h73l11 -46q18 26 43.5 39t58.5 13q47 0 75 -26t28 -71v-219h-94v198q0 25 -12.5 37t-35.5 12q-24 0 -39 -14t-15 -37v-196h-93z" />
    <glyph glyph-name="ordfeminine" unicode="&#xaa;" horiz-adv-x="419" 
d="M144 375q-27 0 -50.5 9t-37 29.5t-13.5 53.5q0 43 25 65t70.5 30t106.5 8v21q0 23 -12.5 33.5t-35.5 10.5q-18 0 -34 -9t-16 -27v-5h-93q-1 3 -1.5 6t-0.5 5q0 40 38 65.5t100 25.5h16q68 0 100.5 -27t32.5 -70v-141q0 -11 6 -15.5t11 -4.5q6 0 11.5 2.5t13.5 5.5v-57
q-10 -6 -23.5 -10t-32.5 -4q-35 0 -53 13.5t-22 35.5q-17 -20 -43.5 -34.5t-62.5 -14.5zM188 438q23 0 40 15t17 44v23q-33 0 -56 -4.5t-34 -15t-11 -27.5q0 -20 12 -27.5t32 -7.5z" />
    <glyph glyph-name="ordmasculine" unicode="&#xba;" horiz-adv-x="396" 
d="M196 378q-71 0 -113.5 41.5t-42.5 112.5v12q0 72 44.5 113t114.5 41q72 0 115 -42t43 -112v-12q0 -72 -45 -113t-116 -41zM198 441q23 0 39.5 16.5t16.5 46.5v68q0 29 -16.5 46t-39.5 17q-22 0 -38.5 -17t-16.5 -46v-68q0 -30 16.5 -46.5t38.5 -16.5z" />
    <glyph glyph-name="uni0394" unicode="&#x394;" horiz-adv-x="653" 
d="M37 0v81l227 605h124l228 -605v-81h-579zM159 94h335l-167 463z" />
    <glyph glyph-name="uni0394" unicode="&#x3b4;" horiz-adv-x="653" 
d="M37 0v81l227 605h124l228 -605v-81h-579zM159 94h335l-167 463z" />
    <glyph glyph-name="uni0394" unicode="&#x3b4;" horiz-adv-x="653" 
d="M37 0v81l227 605h124l228 -605v-81h-579zM159 94h335l-167 463z" />
    <glyph glyph-name="uni03A9" unicode="&#x3a9;" horiz-adv-x="747" 
d="M44 0v131h20l101 -16q-47 43 -74.5 99.5t-27.5 130.5v39q0 73 22.5 131t62.5 98t92.5 61t112.5 21h42q60 0 112.5 -21.5t92.5 -61.5t62.5 -97.5t22.5 -130.5v-39q0 -74 -28 -130.5t-75 -99.5l101 16h20v-131h-288v70q26 7 47 24t33 46.5t12 72.5v207q0 39 -10 67.5
t-28 47t-42 27t-51 8.5q-30 0 -54.5 -9t-42.5 -27t-28 -46.5t-10 -67.5v-207q0 -42 12 -71.5t32.5 -47t47.5 -24.5v-70h-289z" />
    <glyph glyph-name="uni03A9" unicode="&#x3c9;" horiz-adv-x="747" 
d="M44 0v131h20l101 -16q-47 43 -74.5 99.5t-27.5 130.5v39q0 73 22.5 131t62.5 98t92.5 61t112.5 21h42q60 0 112.5 -21.5t92.5 -61.5t62.5 -97.5t22.5 -130.5v-39q0 -74 -28 -130.5t-75 -99.5l101 16h20v-131h-288v70q26 7 47 24t33 46.5t12 72.5v207q0 39 -10 67.5
t-28 47t-42 27t-51 8.5q-30 0 -54.5 -9t-42.5 -27t-28 -46.5t-10 -67.5v-207q0 -42 12 -71.5t32.5 -47t47.5 -24.5v-70h-289z" />
    <glyph glyph-name="uni03A9" unicode="&#x3c9;" horiz-adv-x="747" 
d="M44 0v131h20l101 -16q-47 43 -74.5 99.5t-27.5 130.5v39q0 73 22.5 131t62.5 98t92.5 61t112.5 21h42q60 0 112.5 -21.5t92.5 -61.5t62.5 -97.5t22.5 -130.5v-39q0 -74 -28 -130.5t-75 -99.5l101 16h20v-131h-288v70q26 7 47 24t33 46.5t12 72.5v207q0 39 -10 67.5
t-28 47t-42 27t-51 8.5q-30 0 -54.5 -9t-42.5 -27t-28 -46.5t-10 -67.5v-207q0 -42 12 -71.5t32.5 -47t47.5 -24.5v-70h-289z" />
    <glyph glyph-name="uni03BC" unicode="&#x3bc;" horiz-adv-x="639" 
d="M63 -161v672h157v-325q0 -39 20 -60t58 -21q23 0 42 11.5t30 32t11 44.5v318h157v-385q0 -19 9.5 -27.5t20.5 -8.5q10 0 20 3.5t19 7.5v-89q-13 -10 -35 -16t-56 -6q-38 0 -63.5 10.5t-39 29.5t-21.5 43q-14 -30 -43.5 -54.5t-72.5 -24.5q-17 0 -34.5 4.5t-29.5 14.5
q3 -14 6 -31.5t3 -34.5v-108h-158z" />
    <glyph glyph-name="pi" unicode="&#x3c0;" horiz-adv-x="693" 
d="M80 0q14 39 26 91t21 108.5t14.5 111t6.5 97.5q-40 0 -68 -2.5t-48 -8.5l-14 81q20 15 66 24t124 9h465l-12 -103h-82v-248q0 -59 4.5 -97.5t10.5 -62.5h-149q-10 14 -14.5 53.5t-4.5 95.5v259h-128q-1 -36 -5.5 -80t-10.5 -91t-14.5 -92t-18 -82.5t-20.5 -62.5h-149z
" />
    <glyph glyph-name="uni2099" unicode="&#x2099;" horiz-adv-x="368" 
d="M40 -119v310h73l11 -46q18 26 43.5 39t58.5 13q47 0 75 -26t28 -71v-219h-94v198q0 25 -12.5 37t-35.5 12q-24 0 -39 -14t-15 -37v-196h-93z" />
    <glyph glyph-name="zero" unicode="0" horiz-adv-x="615" 
d="M291 -10q-67 0 -122 32t-87.5 87t-32.5 123v222q0 69 32.5 124t87.5 86.5t122 31.5h34q68 0 122.5 -31.5t86.5 -86.5t32 -124v-222q0 -68 -32 -123t-86.5 -87t-122.5 -32h-34zM307 108q29 0 51.5 14t36 37.5t13.5 52.5v263q0 29 -13.5 52.5t-36 37.5t-50.5 14
q-29 0 -51.5 -14t-36 -37.5t-13.5 -52.5v-263q0 -29 13.5 -52.5t36 -37.5t50.5 -14z" />
    <glyph glyph-name="one" unicode="1" horiz-adv-x="615" 
d="M80 0v124h164v390h-164v92q40 3 86.5 16t93 32.5t86.5 41.5h54v-572h160v-124h-480z" />
    <glyph glyph-name="two" unicode="2" horiz-adv-x="615" 
d="M48 0v35q0 60 22 104.5t70 79.5l193 142q31 23 48 52.5t17 64.5q0 43 -25 67.5t-76 24.5q-30 0 -53 -12.5t-36.5 -35t-13.5 -50.5v-13.5t1 -12.5h-143v9.5v8.5q0 67 30.5 119t86 82.5t131.5 30.5h23q73 0 125.5 -27t81 -75t28.5 -112q0 -51 -17.5 -90t-50 -71t-75.5 -62
l-125 -88q-7 -5 -14.5 -11t-13 -12.5t-9.5 -12.5h307v-135h-512z" />
    <glyph glyph-name="three" unicode="3" horiz-adv-x="615" 
d="M276 -10q-79 0 -132 26t-79.5 71t-26.5 100v19h142q0 -54 32.5 -74.5t83.5 -20.5q53 0 85 22.5t32 73.5q0 32 -13.5 52.5t-36 30.5t-50.5 10h-96v102h83q27 0 49 10t35 30t13 50q0 27 -13.5 45.5t-36.5 28t-52 9.5q-48 0 -75 -23t-27 -64h-135v22q0 54 30.5 96t85 66
t124.5 24h23q68 0 120.5 -24t82 -66t29.5 -95q0 -36 -13 -65t-35.5 -50t-51.5 -35v-7q51 -16 84.5 -54.5t33.5 -104.5q0 -59 -33.5 -105.5t-93 -73t-137.5 -26.5h-31z" />
    <glyph glyph-name="four" unicode="4" horiz-adv-x="615" 
d="M332 0v161h-299v121q16 27 35.5 65.5t40.5 84t41 93.5t36 92t26 79h143q-8 -37 -26 -82.5t-41 -94.5t-49 -94.5t-50.5 -83t-45.5 -60.5h189v145q10 15 23 39.5t25.5 52t22.5 53.5t15 43h65v-333h94v-120h-94v-161h-151z" />
    <glyph glyph-name="five" unicode="5" horiz-adv-x="615" 
d="M306 -10q-78 0 -136 28.5t-90.5 80t-32.5 122.5h143q0 -30 13.5 -54.5t38.5 -38t58 -13.5q36 0 60.5 14.5t37 40t12.5 56.5q0 49 -30 80t-79 31q-31 0 -57.5 -14.5t-41.5 -35.5l-127 18l29 381h418v-138h-297l-11 -143q20 19 55 34t83 15q62 0 111 -24.5t76.5 -73
t27.5 -120.5q0 -70 -33.5 -125.5t-92.5 -88t-135 -32.5z" />
    <glyph glyph-name="six" unicode="6" horiz-adv-x="615" 
d="M301 -10q-70 0 -125.5 31.5t-88 86t-32.5 124.5v222q0 71 33 125.5t89 85.5t125 31h21q65 0 117.5 -26.5t84 -77t31.5 -123.5h-143q0 50 -28 78t-70 28q-29 0 -52.5 -13.5t-37 -36t-13.5 -51.5v-101q27 30 66.5 46t79.5 16q61 0 109.5 -24t76.5 -70t28 -114
q0 -70 -33.5 -123.5t-90.5 -83.5t-126 -30h-21zM315 105q34 0 56.5 14.5t34 41t11.5 61.5q0 36 -12 62t-35 40t-55 14q-33 0 -56 -14t-35 -40t-12 -61q0 -37 12 -63.5t35.5 -40.5t55.5 -14z" />
    <glyph glyph-name="seven" unicode="7" horiz-adv-x="615" 
d="M151 0q0 80 20 155t54 144.5t75.5 132.5t83.5 118h-319v136h499v-74q-63 -82 -108.5 -156t-74 -146t-42 -148t-11.5 -162h-177z" />
    <glyph glyph-name="eight" unicode="8" horiz-adv-x="615" 
d="M302 -10q-75 0 -132 22.5t-88.5 66.5t-31.5 109q0 63 29.5 101.5t77.5 59.5v4q-36 23 -60 56t-24 91q0 64 32 107.5t86 66t120 22.5t118.5 -22.5t83 -66t30.5 -107.5q0 -39 -11.5 -66.5t-30 -46.5t-42.5 -34v-4q48 -22 77.5 -59.5t29.5 -101.5q0 -63 -33 -107.5
t-92 -67.5t-139 -23zM308 99q51 0 75 28t24 76t-26 74.5t-73 26.5q-48 0 -73.5 -27.5t-25.5 -74.5q0 -49 25 -76t74 -27zM308 396q41 0 66.5 25.5t25.5 71.5t-25 71t-68 25t-67.5 -25.5t-24.5 -70.5q0 -47 26 -72t67 -25z" />
    <glyph glyph-name="nine" unicode="9" horiz-adv-x="615" 
d="M307 -10q-75 0 -130 27.5t-85 78.5t-30 122h143q0 -48 27.5 -77t71.5 -29q29 0 52.5 13t37.5 36t14 51v102q-27 -32 -66 -47.5t-73 -15.5q-62 0 -112 24.5t-79.5 72t-29.5 114.5q0 72 33.5 124.5t92 81t133.5 28.5t133.5 -30.5t91.5 -85t33 -126.5v-222
q0 -72 -33.5 -126.5t-91.5 -85t-133 -30.5zM305 349q34 0 56.5 14.5t34.5 41t12 60.5q0 37 -12.5 63t-35.5 40t-55 14q-33 0 -56 -14.5t-35 -41t-12 -61.5t12 -61.5t35 -40.5t56 -14z" />
    <glyph glyph-name="zero.zero" horiz-adv-x="615" 
d="M130 130l291 460h79l-291 -460h-79zM291 -10q-67 0 -122 32t-87.5 87t-32.5 123v222q0 69 32.5 124t87.5 86.5t122 31.5h34q68 0 122.5 -31.5t86.5 -86.5t32 -124v-222q0 -68 -32 -123t-86.5 -87t-122.5 -32h-34zM307 108q29 0 51.5 14t36 37.5t13.5 52.5v263
q0 29 -13.5 52.5t-36 37.5t-50.5 14q-29 0 -51.5 -14t-36 -37.5t-13.5 -52.5v-263q0 -29 13.5 -52.5t36 -37.5t50.5 -14z" />
    <glyph glyph-name="zero.lf" horiz-adv-x="615" 
d="M291 -10q-67 0 -122 32t-87.5 87t-32.5 123v222q0 69 32.5 124t87.5 86.5t122 31.5h34q68 0 122.5 -31.5t86.5 -86.5t32 -124v-222q0 -68 -32 -123t-86.5 -87t-122.5 -32h-34zM307 108q29 0 51.5 14t36 37.5t13.5 52.5v263q0 29 -13.5 52.5t-36 37.5t-50.5 14
q-29 0 -51.5 -14t-36 -37.5t-13.5 -52.5v-263q0 -29 13.5 -52.5t36 -37.5t50.5 -14z" />
    <glyph glyph-name="one.lf" horiz-adv-x="615" 
d="M80 0v124h164v390h-164v92q40 3 86.5 16t93 32.5t86.5 41.5h54v-572h160v-124h-480z" />
    <glyph glyph-name="two.lf" horiz-adv-x="615" 
d="M48 0v35q0 60 22 104.5t70 79.5l193 142q31 23 48 52.5t17 64.5q0 43 -25 67.5t-76 24.5q-30 0 -53 -12.5t-36.5 -35t-13.5 -50.5v-13.5t1 -12.5h-143v9.5v8.5q0 67 30.5 119t86 82.5t131.5 30.5h23q73 0 125.5 -27t81 -75t28.5 -112q0 -51 -17.5 -90t-50 -71t-75.5 -62
l-125 -88q-7 -5 -14.5 -11t-13 -12.5t-9.5 -12.5h307v-135h-512z" />
    <glyph glyph-name="three.lf" horiz-adv-x="615" 
d="M276 -10q-79 0 -132 26t-79.5 71t-26.5 100v19h142q0 -54 32.5 -74.5t83.5 -20.5q53 0 85 22.5t32 73.5q0 32 -13.5 52.5t-36 30.5t-50.5 10h-96v102h83q27 0 49 10t35 30t13 50q0 27 -13.5 45.5t-36.5 28t-52 9.5q-48 0 -75 -23t-27 -64h-135v22q0 54 30.5 96t85 66
t124.5 24h23q68 0 120.5 -24t82 -66t29.5 -95q0 -36 -13 -65t-35.5 -50t-51.5 -35v-7q51 -16 84.5 -54.5t33.5 -104.5q0 -59 -33.5 -105.5t-93 -73t-137.5 -26.5h-31z" />
    <glyph glyph-name="four.lf" horiz-adv-x="615" 
d="M332 0v161h-299v121q16 27 35.5 65.5t40.5 84t41 93.5t36 92t26 79h143q-8 -37 -26 -82.5t-41 -94.5t-49 -94.5t-50.5 -83t-45.5 -60.5h189v145q10 15 23 39.5t25.5 52t22.5 53.5t15 43h65v-333h94v-120h-94v-161h-151z" />
    <glyph glyph-name="five.lf" horiz-adv-x="615" 
d="M306 -10q-78 0 -136 28.5t-90.5 80t-32.5 122.5h143q0 -30 13.5 -54.5t38.5 -38t58 -13.5q36 0 60.5 14.5t37 40t12.5 56.5q0 49 -30 80t-79 31q-31 0 -57.5 -14.5t-41.5 -35.5l-127 18l29 381h418v-138h-297l-11 -143q20 19 55 34t83 15q62 0 111 -24.5t76.5 -73
t27.5 -120.5q0 -70 -33.5 -125.5t-92.5 -88t-135 -32.5z" />
    <glyph glyph-name="six.lf" horiz-adv-x="615" 
d="M301 -10q-70 0 -125.5 31.5t-88 86t-32.5 124.5v222q0 71 33 125.5t89 85.5t125 31h21q65 0 117.5 -26.5t84 -77t31.5 -123.5h-143q0 50 -28 78t-70 28q-29 0 -52.5 -13.5t-37 -36t-13.5 -51.5v-101q27 30 66.5 46t79.5 16q61 0 109.5 -24t76.5 -70t28 -114
q0 -70 -33.5 -123.5t-90.5 -83.5t-126 -30h-21zM315 105q34 0 56.5 14.5t34 41t11.5 61.5q0 36 -12 62t-35 40t-55 14q-33 0 -56 -14t-35 -40t-12 -61q0 -37 12 -63.5t35.5 -40.5t55.5 -14z" />
    <glyph glyph-name="seven.lf" horiz-adv-x="615" 
d="M151 0q0 80 20 155t54 144.5t75.5 132.5t83.5 118h-319v136h499v-74q-63 -82 -108.5 -156t-74 -146t-42 -148t-11.5 -162h-177z" />
    <glyph glyph-name="eight.lf" horiz-adv-x="615" 
d="M302 -10q-75 0 -132 22.5t-88.5 66.5t-31.5 109q0 63 29.5 101.5t77.5 59.5v4q-36 23 -60 56t-24 91q0 64 32 107.5t86 66t120 22.5t118.5 -22.5t83 -66t30.5 -107.5q0 -39 -11.5 -66.5t-30 -46.5t-42.5 -34v-4q48 -22 77.5 -59.5t29.5 -101.5q0 -63 -33 -107.5
t-92 -67.5t-139 -23zM308 99q51 0 75 28t24 76t-26 74.5t-73 26.5q-48 0 -73.5 -27.5t-25.5 -74.5q0 -49 25 -76t74 -27zM308 396q41 0 66.5 25.5t25.5 71.5t-25 71t-68 25t-67.5 -25.5t-24.5 -70.5q0 -47 26 -72t67 -25z" />
    <glyph glyph-name="nine.lf" horiz-adv-x="615" 
d="M307 -10q-75 0 -130 27.5t-85 78.5t-30 122h143q0 -48 27.5 -77t71.5 -29q29 0 52.5 13t37.5 36t14 51v102q-27 -32 -66 -47.5t-73 -15.5q-62 0 -112 24.5t-79.5 72t-29.5 114.5q0 72 33.5 124.5t92 81t133.5 28.5t133.5 -30.5t91.5 -85t33 -126.5v-222
q0 -72 -33.5 -126.5t-91.5 -85t-133 -30.5zM305 349q34 0 56.5 14.5t34.5 41t12 60.5q0 37 -12.5 63t-35.5 40t-55 14q-33 0 -56 -14.5t-35 -41t-12 -61.5t12 -61.5t35 -40.5t56 -14z" />
    <glyph glyph-name="zero.osf" horiz-adv-x="615" 
d="M291 -10q-67 0 -122 32t-87.5 87t-32.5 123v87q0 69 32.5 124t87.5 86.5t122 31.5h34q68 0 122.5 -31.5t86.5 -86.5t32 -124v-87q0 -68 -32 -123t-86.5 -87t-122.5 -32h-34zM307 108q29 0 51.5 14t36 37.5t13.5 52.5v128q0 29 -13.5 52.5t-36 37.5t-50.5 14
q-29 0 -51.5 -14t-36 -37.5t-13.5 -52.5v-128q0 -29 13.5 -52.5t36 -37.5t50.5 -14z" />
    <glyph glyph-name="one.osf" horiz-adv-x="573" 
d="M64 0v115h164v265h-164v91q40 3 82.5 16t86 32.5t82.5 41.5h55v-446h159v-115h-465z" />
    <glyph glyph-name="two.osf" horiz-adv-x="606" 
d="M54 0v66q0 57 24.5 94.5t63 62.5t82.5 41t83 29q25 9 45 17.5t32 23t12 40.5q0 34 -24 51.5t-74 17.5q-49 0 -77.5 -22.5t-28.5 -62.5v-10t1 -10h-134v10v9q0 64 28.5 109.5t82.5 70t128 24.5h23q108 0 168 -48.5t60 -129.5q0 -50 -18 -83.5t-47.5 -54.5t-63.5 -34.5
t-67 -24.5q-24 -7 -50 -16.5t-45.5 -22t-24.5 -30.5h318v-117h-497z" />
    <glyph glyph-name="three.osf" horiz-adv-x="606" 
d="M290 -10q-73 0 -130.5 17.5t-91 57.5t-33.5 105v20h134q0 -35 16.5 -55t44.5 -28t60 -8q57 0 90.5 21.5t33.5 58.5q0 30 -26 42t-73 12h-89v94h76q45 0 70 15.5t25 45.5q0 31 -28.5 47.5t-78.5 16.5q-31 0 -55 -9t-38 -27t-14 -47h-127v19q0 60 35 98.5t93.5 56.5
t126.5 18q79 0 131 -19.5t77.5 -52.5t25.5 -73q0 -46 -27 -77t-78 -45v-7q51 -7 87 -37t36 -89q0 -43 -29 -82t-89.5 -64t-154.5 -25z" />
    <glyph glyph-name="four.osf" horiz-adv-x="587" 
d="M325 0v92h-295v115q38 46 71.5 105t60.5 122.5t42 121.5h144q-11 -46 -31.5 -94.5t-48.5 -95.5t-61 -88t-67 -73h185v102q15 21 31 49.5t30.5 58t19.5 52.5h66v-262h86v-113h-86v-92h-147z" />
    <glyph glyph-name="five.osf" horiz-adv-x="593" 
d="M297 -10q-71 0 -128.5 20t-90.5 60.5t-33 100.5h141q0 -35 32 -51.5t75 -16.5q32 0 56 10.5t37.5 29t13.5 42.5q0 41 -28.5 61t-72.5 20q-31 0 -57.5 -10t-42.5 -30l-127 18l29 303h404v-113h-290l-11 -97q24 16 57 26t78 10q70 0 116.5 -24.5t70 -65.5t23.5 -90
q0 -56 -27.5 -102t-83.5 -73.5t-141 -27.5z" />
    <glyph glyph-name="six.osf" horiz-adv-x="600" 
d="M294 -10q-70 0 -124 22t-85 69t-31 122v134q0 70 31 120.5t85.5 77t123.5 26.5h21q63 0 113.5 -17.5t80.5 -57t30 -104.5h-135q0 26 -12.5 41t-34.5 21.5t-51 6.5q-47 0 -75 -23.5t-28 -71.5v-58q29 30 66 41.5t73 11.5q75 0 122 -23t69.5 -61.5t22.5 -85.5
q0 -51 -26 -94.5t-79 -70t-135 -26.5h-22zM306 97q53 0 79 23.5t26 58.5q0 36 -26 59t-79 23q-35 0 -58.5 -10.5t-34.5 -29t-11 -41.5q0 -27 11 -45.5t34 -28t59 -9.5z" />
    <glyph glyph-name="seven.osf" horiz-adv-x="509" 
d="M107 0q1 54 17.5 112.5t44 114.5t63.5 105t75 84h-276v131h463v-74q-80 -83 -128 -161t-69 -154.5t-21 -157.5h-169z" />
    <glyph glyph-name="eight.osf" horiz-adv-x="592" 
d="M295 -10q-88 0 -143 23t-80.5 60t-25.5 78q0 51 27 84t78 47v4q-44 22 -63 50t-19 69q0 42 26 77.5t76.5 57t123.5 21.5q75 0 125.5 -21t76.5 -55.5t26 -77.5q0 -40 -19.5 -69t-63.5 -52v-4q52 -14 79.5 -47t27.5 -83q0 -41 -26 -78t-81.5 -60.5t-144.5 -23.5zM296 91
q54 0 77.5 22t23.5 54q0 34 -24 54.5t-78 20.5q-53 0 -76.5 -20.5t-23.5 -53.5t23.5 -55t77.5 -22zM296 324q49 0 71 18.5t22 49.5t-21.5 50.5t-72.5 19.5q-49 0 -71 -19.5t-22 -50.5t22 -49.5t72 -18.5z" />
    <glyph glyph-name="nine.osf" horiz-adv-x="600" 
d="M285 -10q-62 0 -113 18t-81 57.5t-30 104.5h135q0 -26 13 -41t35 -21.5t51 -6.5q46 0 74.5 21t28.5 68v58q-29 -29 -69 -40.5t-75 -11.5q-75 0 -121 23t-67 62.5t-21 89.5q0 51 25.5 94.5t79 69.5t135.5 26h21q70 0 124.5 -21.5t85.5 -68.5t31 -122v-134
q0 -70 -31 -120.5t-85.5 -77.5t-123.5 -27h-22zM295 285q36 0 58.5 11t34 29.5t11.5 40.5q0 28 -11 46.5t-34 28t-59 9.5t-59.5 -11t-34.5 -29.5t-11 -42.5q0 -35 26 -58.5t79 -23.5z" />
    <glyph glyph-name="zero.tosf" horiz-adv-x="604" 
d="M291 -10q-67 0 -122 32t-87.5 87t-32.5 123v87q0 69 32.5 124t87.5 86.5t122 31.5h34q68 0 122.5 -31.5t86.5 -86.5t32 -124v-87q0 -68 -32 -123t-86.5 -87t-122.5 -32h-34zM307 108q29 0 51.5 14t36 37.5t13.5 52.5v128q0 29 -13.5 52.5t-36 37.5t-50.5 14
q-29 0 -51.5 -14t-36 -37.5t-13.5 -52.5v-128q0 -29 13.5 -52.5t36 -37.5t50.5 -14z" />
    <glyph glyph-name="one.tosf" horiz-adv-x="601" 
d="M78 0v115h164v265h-164v91q40 3 82.5 16t86 32.5t82.5 41.5h55v-446h159v-115h-465z" />
    <glyph glyph-name="two.tosf" horiz-adv-x="604" 
d="M62 0v66q0 57 24.5 94.5t63 62.5t82.5 41t83 29q25 9 45 17.5t32 23t12 40.5q0 34 -24 51.5t-74 17.5q-49 0 -77.5 -22.5t-28.5 -62.5v-10t1 -10h-134v10v9q0 64 28.5 109.5t82.5 70t128 24.5h23q108 0 168 -48.5t60 -129.5q0 -50 -18 -83.5t-47.5 -54.5t-63.5 -34.5
t-67 -24.5q-24 -7 -50 -16.5t-45.5 -22t-24.5 -30.5h318v-117h-497z" />
    <glyph glyph-name="three.tosf" horiz-adv-x="604" 
d="M299 -10q-73 0 -130.5 17.5t-91 57.5t-33.5 105v20h134q0 -35 16.5 -55t44.5 -28t60 -8q57 0 90.5 21.5t33.5 58.5q0 30 -26 42t-73 12h-89v94h76q45 0 70 15.5t25 45.5q0 31 -28.5 47.5t-78.5 16.5q-31 0 -55 -9t-38 -27t-14 -47h-127v19q0 60 35 98.5t93.5 56.5
t126.5 18q79 0 131 -19.5t77.5 -52.5t25.5 -73q0 -46 -27 -77t-78 -45v-7q51 -7 87 -37t36 -89q0 -43 -29 -82t-89.5 -64t-154.5 -25z" />
    <glyph glyph-name="four.tosf" horiz-adv-x="612" 
d="M338 0v92h-295v115q38 46 71.5 105t60.5 122.5t42 121.5h144q-11 -46 -31.5 -94.5t-48.5 -95.5t-61 -88t-67 -73h185v102q15 21 31 49.5t30.5 58t19.5 52.5h66v-262h86v-113h-86v-92h-147z" />
    <glyph glyph-name="five.tosf" horiz-adv-x="607" 
d="M305 -10q-71 0 -128.5 20t-90.5 60.5t-33 100.5h141q0 -35 32 -51.5t75 -16.5q32 0 56 10.5t37.5 29t13.5 42.5q0 41 -28.5 61t-72.5 20q-31 0 -57.5 -10t-42.5 -30l-127 18l29 303h404v-113h-290l-11 -97q24 16 57 26t78 10q70 0 116.5 -24.5t70 -65.5t23.5 -90
q0 -56 -27.5 -102t-83.5 -73.5t-141 -27.5z" />
    <glyph glyph-name="six.tosf" horiz-adv-x="604" 
d="M302 -10q-70 0 -124 22t-85 69t-31 122v134q0 70 31 120.5t85.5 77t123.5 26.5h21q63 0 113.5 -17.5t80.5 -57t30 -104.5h-135q0 26 -12.5 41t-34.5 21.5t-51 6.5q-47 0 -75 -23.5t-28 -71.5v-58q29 30 66 41.5t73 11.5q75 0 122 -23t69.5 -61.5t22.5 -85.5
q0 -51 -26 -94.5t-79 -70t-135 -26.5h-22zM314 97q53 0 79 23.5t26 58.5q0 36 -26 59t-79 23q-35 0 -58.5 -10.5t-34.5 -29t-11 -41.5q0 -27 11 -45.5t34 -28t59 -9.5z" />
    <glyph glyph-name="seven.tosf" horiz-adv-x="604" 
d="M145 0q1 54 17.5 112.5t44 114.5t63.5 105t75 84h-276v131h463v-74q-80 -83 -128 -161t-69 -154.5t-21 -157.5h-169z" />
    <glyph glyph-name="eight.tosf" horiz-adv-x="604" 
d="M302 -10q-88 0 -143 23t-80.5 60t-25.5 78q0 51 27 84t78 47v4q-44 22 -63 50t-19 69q0 42 26 77.5t76.5 57t123.5 21.5q75 0 125.5 -21t76.5 -55.5t26 -77.5q0 -40 -19.5 -69t-63.5 -52v-4q52 -14 79.5 -47t27.5 -83q0 -41 -26 -78t-81.5 -60.5t-144.5 -23.5zM303 91
q54 0 77.5 22t23.5 54q0 34 -24 54.5t-78 20.5q-53 0 -76.5 -20.5t-23.5 -53.5t23.5 -55t77.5 -22zM303 324q49 0 71 18.5t22 49.5t-21.5 50.5t-72.5 19.5q-49 0 -71 -19.5t-22 -50.5t22 -49.5t72 -18.5z" />
    <glyph glyph-name="nine.tosf" horiz-adv-x="604" 
d="M295 -10q-62 0 -113 18t-81 57.5t-30 104.5h135q0 -26 13 -41t35 -21.5t51 -6.5q46 0 74.5 21t28.5 68v58q-29 -29 -69 -40.5t-75 -11.5q-75 0 -121 23t-67 62.5t-21 89.5q0 51 25.5 94.5t79 69.5t135.5 26h21q70 0 124.5 -21.5t85.5 -68.5t31 -122v-134
q0 -70 -31 -120.5t-85.5 -77.5t-123.5 -27h-22zM305 285q36 0 58.5 11t34 29.5t11.5 40.5q0 28 -11 46.5t-34 28t-59 9.5t-59.5 -11t-34.5 -29.5t-11 -42.5q0 -35 26 -58.5t79 -23.5z" />
    <glyph glyph-name="zero.lf.zero" horiz-adv-x="615" 
d="M130 130l291 460h79l-291 -460h-79zM291 -10q-67 0 -122 32t-87.5 87t-32.5 123v222q0 69 32.5 124t87.5 86.5t122 31.5h34q68 0 122.5 -31.5t86.5 -86.5t32 -124v-222q0 -68 -32 -123t-86.5 -87t-122.5 -32h-34zM307 108q29 0 51.5 14t36 37.5t13.5 52.5v263
q0 29 -13.5 52.5t-36 37.5t-50.5 14q-29 0 -51.5 -14t-36 -37.5t-13.5 -52.5v-263q0 -29 13.5 -52.5t36 -37.5t50.5 -14z" />
    <glyph glyph-name="zero.osf.zero" horiz-adv-x="615" 
d="M223 91l-35 70l191 299l34 -69zM291 -10q-67 0 -122 32t-87.5 87t-32.5 123v87q0 69 32.5 124t87.5 86.5t122 31.5h34q68 0 122.5 -31.5t86.5 -86.5t32 -124v-87q0 -68 -32 -123t-86.5 -87t-122.5 -32h-34zM307 108q29 0 51.5 14t36 37.5t13.5 52.5v128q0 29 -13.5 52.5
t-36 37.5t-50.5 14q-29 0 -51.5 -14t-36 -37.5t-13.5 -52.5v-128q0 -29 13.5 -52.5t36 -37.5t50.5 -14z" />
    <glyph glyph-name="zero.tosf.zero" horiz-adv-x="604" 
d="M155 96l224 355h79l-224 -355h-79zM291 -10q-67 0 -122 32t-87.5 87t-32.5 123v87q0 69 32.5 124t87.5 86.5t122 31.5h34q68 0 122.5 -31.5t86.5 -86.5t32 -124v-87q0 -68 -32 -123t-86.5 -87t-122.5 -32h-34zM307 108q29 0 51.5 14t36 37.5t13.5 52.5v128
q0 29 -13.5 52.5t-36 37.5t-50.5 14q-29 0 -51.5 -14t-36 -37.5t-13.5 -52.5v-128q0 -29 13.5 -52.5t36 -37.5t50.5 -14z" />
    <glyph glyph-name="zero.dnom" horiz-adv-x="373" 
d="M178 -3q-39 0 -68 18t-45 46.5t-16 60.5v138q0 32 16 60.5t45 46.5t68 18h16q40 0 69 -18t45 -46.5t16 -60.5v-138q0 -31 -16 -60t-45 -47t-69 -18h-16zM186 60q20 0 32 7.5t18 20t6 25.5v157q0 13 -6 25.5t-18 20.5t-32 8q-18 0 -30.5 -8t-18.5 -20.5t-6 -25.5v-157
q0 -13 6 -25.5t18.5 -20t30.5 -7.5z" />
    <glyph glyph-name="one.dnom" horiz-adv-x="338" 
d="M44 0v70h87v203h-87v53q35 2 72.5 16.5t70.5 32.5h32v-305h78v-70h-253z" />
    <glyph glyph-name="two.dnom" horiz-adv-x="374" 
d="M45 1v19q0 32 12 55.5t36 42.5l106 82q16 12 25 28t9 35q0 22 -14 35.5t-41 13.5q-22 0 -36.5 -14t-14.5 -36v-7.5v-8.5h-80v6.5v5.5q0 53 38 89.5t100 36.5q67 0 102.5 -32t35.5 -86q0 -38 -16.5 -65t-42.5 -47l-76 -54q-9 -6 -14.5 -12t-9.5 -11h159v-76h-278z" />
    <glyph glyph-name="three.dnom" horiz-adv-x="357" 
d="M174 -3q-75 0 -109 28.5t-34 79.5v12h79v-7q0 -19 16.5 -32t42.5 -13q27 0 44.5 13t17.5 39q0 27 -15 38t-36 11h-53v58h46q21 0 35.5 11t14.5 37q0 22 -14.5 33.5t-38.5 11.5q-22 0 -37 -12t-15 -29v-6h-77v13q0 45 37.5 73.5t97.5 28.5q62 0 98 -27t36 -74
q0 -31 -15 -53t-36 -31q26 -10 43.5 -30.5t17.5 -57.5q0 -50 -40 -82.5t-106 -32.5z" />
    <glyph glyph-name="four.dnom" horiz-adv-x="362" 
d="M187 0v86h-159v68q9 16 23 43.5t28 59.5t26 63.5t18 54.5h81q-5 -24 -18 -55t-29.5 -62.5t-33.5 -59t-31 -44.5h95v76q8 11 17 30t17.5 38.5t11.5 32.5h38v-177h51v-68h-51v-86h-84z" />
    <glyph glyph-name="five.dnom" horiz-adv-x="360" 
d="M171 -3q-37 0 -69.5 14t-52 41.5t-18.5 68.5h81q-1 -28 16 -42t43 -14t44.5 17t18.5 44t-16.5 44t-44.5 17q-16 0 -31 -6.5t-24 -19.5l-73 10l17 209h231v-78h-162l-6 -73q17 13 38 19t43 6q51 0 84 -32.5t33 -88.5q0 -42 -21 -72.5t-55.5 -47t-75.5 -16.5z" />
    <glyph glyph-name="six.dnom" horiz-adv-x="358" 
d="M170 -3q-38 0 -69.5 17t-50.5 47t-19 69v122q0 40 19 69.5t50 46.5t70 17h16q35 0 63.5 -14t46 -41.5t17.5 -67.5h-82q0 26 -15 40.5t-39 14.5q-25 0 -40.5 -16t-15.5 -40v-48q14 15 35 22t40 7q42 0 70 -16.5t41.5 -43t13.5 -55.5q0 -32 -16 -61.5t-47 -49t-76 -19.5
h-12zM176 65q28 0 42 18.5t14 40.5q0 23 -14 41t-42 18t-42 -18t-14 -41q0 -22 14 -40.5t42 -18.5z" />
    <glyph glyph-name="seven.dnom" horiz-adv-x="351" 
d="M88 0q0 57 18 108t46.5 96t58.5 84h-167v78h268v-43q-44 -58 -72.5 -108.5t-41.5 -102t-12 -112.5h-98z" />
    <glyph glyph-name="eight.dnom" horiz-adv-x="363" 
d="M181 -3q-61 0 -102 27.5t-41 80.5q0 36 16.5 57.5t42.5 31.5q-20 13 -33 34t-13 50q0 51 38 79t92 28q55 0 93.5 -28t38.5 -79q0 -28 -12 -48t-35 -36q26 -11 42.5 -32t16.5 -57q0 -51 -38.5 -79.5t-105.5 -28.5zM181 63q28 0 42.5 13.5t14.5 37.5t-14.5 37.5t-42.5 13.5
q-27 0 -41.5 -14t-14.5 -37q0 -25 14.5 -38t41.5 -13zM181 225q26 0 39.5 13t13.5 35t-14 34.5t-39 12.5t-39 -13t-14 -34q0 -23 14.5 -35.5t38.5 -12.5z" />
    <glyph glyph-name="nine.dnom" horiz-adv-x="358" 
d="M173 -3q-35 0 -64 14.5t-46 42.5t-17 67h81q0 -26 15.5 -41t39.5 -15t39.5 16t15.5 40v49q-14 -15 -35 -22t-39 -7q-42 0 -69.5 16.5t-41.5 43t-14 55.5q0 31 15.5 61t46.5 49t76 19h12q39 0 70.5 -17t50.5 -46.5t19 -69.5v-122q0 -39 -19 -69t-50.5 -47t-69.5 -17h-16z
M182 199q28 0 42 18.5t14 40.5t-14 40.5t-42 18.5t-42 -18.5t-14 -40.5t14 -40.5t42 -18.5z" />
    <glyph glyph-name="zero.numr" horiz-adv-x="373" 
d="M178 308q-39 0 -68 18t-45 46.5t-16 60.5v138q0 32 16 60.5t45 46.5t68 18h16q40 0 69 -18t45 -46.5t16 -60.5v-138q0 -31 -16 -60t-45 -47t-69 -18h-16zM186 371q20 0 32 7.5t18 20t6 25.5v157q0 13 -6 25.5t-18 20.5t-32 8q-18 0 -30.5 -8t-18.5 -20.5t-6 -25.5v-157
q0 -13 6 -25.5t18.5 -20t30.5 -7.5z" />
    <glyph glyph-name="one.numr" horiz-adv-x="338" 
d="M44 312v70h87v203h-87v53q35 2 72.5 16.5t70.5 32.5h32v-305h78v-70h-253z" />
    <glyph glyph-name="two.numr" horiz-adv-x="374" 
d="M45 312v19q0 32 12 55.5t36 42.5l106 82q16 12 25 28t9 35q0 22 -14 35.5t-41 13.5q-22 0 -36.5 -14t-14.5 -36v-7.5v-8.5h-80v6.5v5.5q0 53 38 89.5t100 36.5q67 0 102.5 -32t35.5 -86q0 -38 -16.5 -65t-42.5 -47l-76 -54q-9 -6 -14.5 -12t-9.5 -11h159v-76h-278z" />
    <glyph glyph-name="three.numr" horiz-adv-x="357" 
d="M174 308q-75 0 -109 28.5t-34 79.5v12h79v-7q0 -19 16.5 -32t42.5 -13q27 0 44.5 13t17.5 39q0 27 -15 38t-36 11h-53v58h46q21 0 35.5 11t14.5 37q0 22 -14.5 33.5t-38.5 11.5q-22 0 -37 -12t-15 -29v-6h-77v13q0 45 37.5 73.5t97.5 28.5q62 0 98 -27t36 -74
q0 -31 -15 -53t-36 -31q26 -10 43.5 -30.5t17.5 -57.5q0 -50 -40 -82.5t-106 -32.5z" />
    <glyph glyph-name="four.numr" horiz-adv-x="362" 
d="M187 312v86h-159v68q9 16 23 43.5t28 59.5t26 63.5t18 54.5h81q-5 -24 -18 -55t-29.5 -62.5t-33.5 -59t-31 -44.5h95v76q8 11 17 30t17.5 38.5t11.5 32.5h38v-177h51v-68h-51v-86h-84z" />
    <glyph glyph-name="five.numr" horiz-adv-x="360" 
d="M171 308q-37 0 -69.5 14t-52 41.5t-18.5 68.5h81q-1 -28 16 -42t43 -14t44.5 17t18.5 44t-16.5 44t-44.5 17q-16 0 -31 -6.5t-24 -19.5l-73 10l17 209h231v-78h-162l-6 -73q17 13 38 19t43 6q51 0 84 -32.5t33 -88.5q0 -42 -21 -72.5t-55.5 -47t-75.5 -16.5z" />
    <glyph glyph-name="six.numr" horiz-adv-x="358" 
d="M170 308q-38 0 -69.5 17t-50.5 47t-19 69v122q0 40 19 69.5t50 46.5t70 17h16q35 0 63.5 -14t46 -41.5t17.5 -67.5h-82q0 26 -15 40.5t-39 14.5q-25 0 -40.5 -16t-15.5 -40v-48q14 15 35 22t40 7q42 0 70 -16.5t41.5 -43t13.5 -55.5q0 -32 -16 -61.5t-47 -49t-76 -19.5
h-12zM176 376q28 0 42 18.5t14 40.5q0 23 -14 41t-42 18t-42 -18t-14 -41q0 -22 14 -40.5t42 -18.5z" />
    <glyph glyph-name="seven.numr" horiz-adv-x="351" 
d="M88 312q0 57 18 108t46.5 96t58.5 84h-167v78h268v-43q-44 -58 -72.5 -108.5t-41.5 -102t-12 -112.5h-98z" />
    <glyph glyph-name="eight.numr" horiz-adv-x="363" 
d="M181 309q-61 0 -102 27.5t-41 80.5q0 36 16.5 57.5t42.5 31.5q-20 13 -33 34t-13 50q0 51 38 79t92 28q55 0 93.5 -28t38.5 -79q0 -28 -12 -48t-35 -36q26 -11 42.5 -32t16.5 -57q0 -51 -38.5 -79.5t-105.5 -28.5zM181 375q28 0 42.5 13.5t14.5 37.5t-14.5 37.5
t-42.5 13.5q-27 0 -41.5 -14t-14.5 -37q0 -25 14.5 -38t41.5 -13zM181 537q26 0 39.5 13t13.5 35t-14 34.5t-39 12.5t-39 -13t-14 -34q0 -23 14.5 -35.5t38.5 -12.5z" />
    <glyph glyph-name="nine.numr" horiz-adv-x="358" 
d="M173 309q-35 0 -64 14.5t-46 42.5t-17 67h81q0 -26 15.5 -41t39.5 -15t39.5 16t15.5 40v49q-14 -15 -35 -22t-39 -7q-42 0 -69.5 16.5t-41.5 43t-14 55.5q0 31 15.5 61t46.5 49t76 19h12q39 0 70.5 -17t50.5 -46.5t19 -69.5v-122q0 -39 -19 -69t-50.5 -47t-69.5 -17h-16z
M182 511q28 0 42 18.5t14 40.5t-14 40.5t-42 18.5t-42 -18.5t-14 -40.5t14 -40.5t42 -18.5z" />
    <glyph glyph-name="fraction" unicode="&#x2044;" horiz-adv-x="175" 
d="M-160 0l420 686h75l-417 -686h-78z" />
    <glyph glyph-name="onehalf" unicode="&#xbd;" horiz-adv-x="886" 
d="M44 312v70h87v203h-87v53q35 2 72.5 16.5t70.5 32.5h32v-305h78v-70h-253zM178 0l420 686h75l-417 -686h-78zM557 1v19q0 32 12 55.5t36 42.5l106 82q16 12 25 28t9 35q0 22 -14 35.5t-41 13.5q-22 0 -36.5 -14t-14.5 -36v-7.5v-8.5h-80v6.5v5.5q0 53 38 89.5t100 36.5
q67 0 102.5 -32t35.5 -86q0 -38 -16.5 -65t-42.5 -47l-76 -54q-9 -6 -14.5 -12t-9.5 -11h159v-76h-278z" />
    <glyph glyph-name="onequarter" unicode="&#xbc;" horiz-adv-x="874" 
d="M44 312v70h87v203h-87v53q35 2 72.5 16.5t70.5 32.5h32v-305h78v-70h-253zM178 0l420 686h75l-417 -686h-78zM699 0v86h-159v68q9 16 23 43.5t28 59.5t26 63.5t18 54.5h81q-5 -24 -18 -55t-29.5 -62.5t-33.5 -59t-31 -44.5h95v76q8 11 17 30t17.5 38.5t11.5 32.5h38v-177
h51v-68h-51v-86h-84z" />
    <glyph glyph-name="threequarters" unicode="&#xbe;" horiz-adv-x="894" 
d="M174 308q-75 0 -109 28.5t-34 79.5v12h79v-7q0 -19 16.5 -32t42.5 -13q27 0 44.5 13t17.5 39q0 27 -15 38t-36 11h-53v58h46q21 0 35.5 11t14.5 37q0 22 -14.5 33.5t-38.5 11.5q-22 0 -37 -12t-15 -29v-6h-77v13q0 45 37.5 73.5t97.5 28.5q62 0 98 -27t36 -74
q0 -31 -15 -53t-36 -31q26 -10 43.5 -30.5t17.5 -57.5q0 -50 -40 -82.5t-106 -32.5zM197 0l420 686h75l-417 -686h-78zM719 0v86h-159v68q9 16 23 43.5t28 59.5t26 63.5t18 54.5h81q-5 -24 -18 -55t-29.5 -62.5t-33.5 -59t-31 -44.5h95v76q8 11 17 30t17.5 38.5t11.5 32.5
h38v-177h51v-68h-51v-86h-84z" />
    <glyph glyph-name="uni2080" unicode="&#x2080;" horiz-adv-x="373" 
d="M178 -187q-39 0 -68 18t-45 46.5t-16 60.5v138q0 32 16 60.5t45 46.5t68 18h16q40 0 69 -18t45 -46.5t16 -60.5v-138q0 -31 -16 -60t-45 -47t-69 -18h-16zM186 -124q20 0 32 7.5t18 20t6 25.5v157q0 13 -6 25.5t-18 20.5t-32 8q-18 0 -30.5 -8t-18.5 -20.5t-6 -25.5v-157
q0 -13 6 -25.5t18.5 -20t30.5 -7.5z" />
    <glyph glyph-name="uni2081" unicode="&#x2081;" horiz-adv-x="338" 
d="M44 -178v70h87v203h-87v53q35 2 72.5 16.5t70.5 32.5h32v-305h78v-70h-253z" />
    <glyph glyph-name="uni2082" unicode="&#x2082;" horiz-adv-x="374" 
d="M45 -178v19q0 32 12 55.5t36 42.5l106 82q16 12 25 28t9 35q0 22 -14 35.5t-41 13.5q-22 0 -36.5 -14t-14.5 -36v-7.5v-8.5h-80v6.5v5.5q0 53 38 89.5t100 36.5q67 0 102.5 -32t35.5 -86q0 -38 -16.5 -65t-42.5 -47l-76 -54q-9 -6 -14.5 -12t-9.5 -11h159v-76h-278z" />
    </font>
</defs>
</svg>
