<?xml version="1.0" standalone="no"?>
<!DOCTYPE svg PUBLIC "-//W3C//DTD SVG 1.1//EN" "http://www.w3.org/Graphics/SVG/1.1/DTD/svg11.dtd" >
<svg xmlns="http://www.w3.org/2000/svg" xmlns:xlink="http://www.w3.org/1999/xlink" version="1.1">
<metadata>
Created by FontForge 20170924 at Sat Nov 24 07:43:12 2007
 By Glenn,,,
Copyright (c) 2007 by WC Fonts. All rights reserved.
</metadata>
<defs>
<font id="WCSoldOutABta" horiz-adv-x="669" >
  <font-face 
    font-family="WC Sold Out A Bta"
    font-weight="400"
    font-stretch="normal"
    units-per-em="1000"
    panose-1="2 0 5 5 0 0 0 2 0 4"
    ascent="750"
    descent="-250"
    x-height="543"
    cap-height="969"
    bbox="-230.4 -790.625 1823 1563"
    underline-thickness="50"
    underline-position="-100"
    unicode-range="U+0020-FB02"
  />
<missing-glyph horiz-adv-x="500" 
 />
    <glyph glyph-name=".notdef" horiz-adv-x="500" 
 />
    <glyph glyph-name="Euro" unicode="&#x20ac;" horiz-adv-x="1245" 
d="M520 347q11 0 11 -11v-20q0 -11 -11 -11h-19q-5 0 -8.5 3t-3.5 8v20q0 5 3.5 8t8.5 3h19zM963 212q8 0 8 -7q0 -8 -8 -8h-15q-7 0 -7 8q0 7 7 7h15zM662 347q5 0 8.5 -3t3.5 -8v-20q0 -5 -3.5 -8t-8.5 -3h-19q-11 0 -11 11v20q0 11 11 11h19zM1239 60q2 -8 3 -14.5
t1 -14.5q0 -28 -10.5 -52.5t-28.5 -42.5t-42.5 -28.5t-52.5 -10.5q-35 0 -64 16t-47 43l-89 146q-20 -22 -47 -34.5t-59 -12.5q-46 0 -82.5 26.5t-50.5 68.5h-90q-14 -42 -50 -68.5t-83 -26.5q-32 0 -58.5 12.5t-46.5 34.5l-89 -146q-18 -27 -47 -43t-64 -16
q-28 0 -52.5 10.5t-42.5 28.5t-28.5 42.5t-10.5 52.5q0 14 3 29l64 371q8 42 33 74.5t60 52.5q1 39 14.5 61.5t30 34t32 14t21.5 2.5q7 0 23 -3t33 -14.5t30 -35t13 -65.5q1 -1 2 -1q9 6 27.5 18t41.5 24t47.5 21.5t45.5 11.5q21 1 38 -6t31 -19t24 -26.5t18 -27.5h238
q2 2 3.5 2.5t3.5 2.5q1 42 14 65.5t29.5 35t32.5 14.5t23 3t22.5 -2.5t32 -14t29.5 -34t15 -61.5q35 -20 59.5 -52.5t32.5 -74.5zM246 381q0 5 -3 8.5t-8 3.5t-8 -3.5t-3 -8.5v-64q0 -3 -2 -6q-3 -5 -10 -5q-2 0 -6 2t-4 10v20q0 11 -11 11q-6 0 -8 -3.5t-3 -7t-2.5 -7
t-7.5 -3.5q-3 0 -7 1.5t-4 9.5v42q0 5 -3.5 8.5t-8.5 3.5t-8 -3.5t-3 -8.5v-42q0 -11 11 -11q1 0 6.5 -2t5.5 -10v-20q0 -12 11 -12q6 0 7.5 3.5t2.5 7.5t3 7.5t8 3.5q3 0 7 -2t4 -9q0 -11 11 -11t11 11q1 3 3 7t8 4q11 0 11 12v63zM285 359q0 12 12 12h22q12 0 12 11
t-12 11h-45q-5 0 -8 -3.5t-3 -8.5v-64q0 -11 11 -11q3 -1 6.5 -3t3.5 -8q0 -5 3.5 -8t8.5 -3h23q12 0 12 11t-12 11h-22q-1 0 -6.5 2t-5.5 9v42zM531 601q-14 -1 -31 -6.5t-33.5 -13.5t-32.5 -17t-29 -17h206q-14 23 -34 39.5t-46 14.5zM402 349q-1 0 -6.5 1.5t-5.5 9.5
q0 2 2 5q4 6 10 6h41q5 0 8.5 3t3.5 8t-3.5 8t-8.5 3h-42q-11 0 -11 -12v1q0 -1 -1.5 -6t-9.5 -5q-11 0 -11 -11t11 -11q3 -1 7 -3t4 -8q0 -10 11 -10h20q6 0 8 -3.5t3 -7.5q0 -1 -1.5 -6t-9.5 -5h-41q-12 0 -12 -11t12 -11h41q12 0 12 11q1 3 3 7t8 4q11 0 11 12v20
q0 5 -3.5 8t-8.5 3h-41zM552 336q0 5 -3.5 8t-7.5 3q-6 0 -8 5q-2 2 -2 5q0 11 -11 11h-41q-11 0 -11 -12v-40q0 -11 11 -11q6 -1 8 -5t2 -5q0 -11 11 -11h20q11 0 11 11q1 2 2.5 6t8.5 4q10 0 10 11v20zM599 283q11 0 11 12t-11 12q-7 0 -10 5q-2 2 -2 5v71q0 11 -11 11
t-11 -11v-72q2 -10 12 -10q6 0 7.5 -4t2.5 -7q0 -12 12 -12zM695 388q0 11 -11 11q-10 0 -10 -10v-12q0 -4 -3.5 -6.5t-8.5 -2.5h-19q-11 0 -11 -11q-1 -3 -3 -6.5t-8 -3.5q-11 0 -11 -11v-20q0 -11 11 -11q6 0 8 -4l3 -6q0 -11 11 -11h19q11 0 11 10q0 1 2 6t9 5
q11 0 11 11v72zM947 316q0 -11 11 -11q5 0 8 -5q1 -3 2 -5q0 -11 11 -11h20q11 0 11 11q0 10 -11 10h-21q-5 0 -7 3.5t-3 7.5v20q0 11 11 11h20q11 0 11 10q0 11 -11 11h-20q-6 0 -8 3.5t-3 7t-3 7t-8 3.5q-10 0 -10 -12v-61zM831 359q0 12 -10 12q-7 0 -9 3.5t-3 7.5
t-3 7.5t-9 3.5h-19q-7 0 -9 -3.5t-3.5 -7.5t-3.5 -7.5t-8 -3.5q-10 0 -10 -12v-42q0 -11 10 -11q6 0 8 -3.5t3.5 -7.5t3.5 -7.5t9 -3.5h19q7 0 9 3.5t3.5 7.5t3.5 7.5t8 3.5q10 0 10 11v42zM919 284q11 0 11 11v62q0 11 -11 11q-10 0 -10 -11v-41q0 -11 -12 -11h-19
q-7 0 -9 5t-2 6v41q0 11 -11 11q-10 0 -10 -11v-41q0 -11 11 -11q6 0 8 -3.5t2 -5.5q0 -12 11 -12h41zM986 250q0 8 -8 8h-45q-8 0 -8 -8v-60q0 -9 8 -9h30q4 0 5.5 2.5t2.5 5.5t2 5.5t6 2.5q7 0 7 8q0 7 -7 7q-8 2 -8 8q0 8 8 8q7 0 7 8v14zM1018 196q-4 0 -5.5 3t-1.5 5
v14q0 8 8 8h14q8 0 8 7q0 8 -8 8h-14q-8 0 -8 7.5t-8 7.5q-7 0 -7 -8v-44q0 -8 8 -8q4 0 6 -4q1 -2 1 -3q0 -8 8 -8h14q8 0 8 8q0 7 -8 7h-15zM1040 334q0 -8 8 -8h30q9 0 9 8q0 2 1.5 5t6.5 3q7 0 7 8v30q0 9 -7 9q-8 0 -8 7q0 8 -9 8h-30q-8 0 -8 -8q-1 -4 -3.5 -5
t-5.5 -2t-5 -3t-2 -6v-30q0 -8 8 -8q4 0 5.5 -3zM1105 218q0 4 -2.5 5.5t-5 2.5l-5 2t-2.5 5q0 8 -8 8h-29q-8 0 -8 -8q0 -7 8 -7h14q8 0 8 -8q0 -7 -8 -7h-14q-8 0 -8 -7q0 -8 7.5 -8t7.5 -7q0 -8 8 -8h29q8 0 8 8v29zM1048 342q-6 0 -7 3.5t-1 4.5v30q0 1 1 5t7 4h30
q6 0 7.5 -3.5t1.5 -5.5v-30q0 -2 -1 -4q-2 -4 -7 -4h-31zM1048 350q0 -4 4 -4q5 0 4 4t4 4h8q5 0 4 -4t4 -4q4 0 4 4t-3.5 3.5t-4.5 3.5q0 4 4 4t4 5v7q0 4 -5 4t-3.5 4t-3.5 4h-16q-4 0 -4 -4v-31zM1082 212q9 0 9 -8q0 -9 -9 -9q-8 0 -8 9q0 8 8 8zM1060 361q-4 0 -4 5v7
q0 4 4 4h8q1 0 3 -2q1 -1 1 -2v-7q-2 -5 -4 -5h-8zM797 371q9 0 10.5 -5.5t1.5 -6.5v-42q0 -1 -2 -6t-10 -5h-19q-8 0 -10 5t-2 6v42q0 1 1.5 6.5t10.5 5.5h19zM963 243q8 0 8 -8t-8 -8h-15q-7 0 -7 8t7 8h15z" />
    <glyph glyph-name="copyright" unicode="&#xa9;" horiz-adv-x="594" 
 />
    <glyph glyph-name="C" unicode="C" horiz-adv-x="1371" 
d="M1345 405q9 0 9 -9v-48q0 -5 -9 -7l-34 -11q-14 -2 -21.5 -8.5t-12.5 -17.5q-8 -36 -25 -67t-42 -57q3 -13 9.5 -35t13 -46t13 -46t11.5 -36q3 -9 6 -22t3 -25.5t-5 -23.5t-18 -15t-22 1t-15 15.5t-8.5 25t-2.5 30.5q1 8 0.5 25t-3 38t-8 42.5t-14.5 39.5
q-29 -19 -64 -30t-73 -11q-71 0 -129 36.5t-90 95.5q-14 21 -23.5 35t-17.5 25q-8 13 -14.5 23t-16.5 23q-1 1 -7 3q-10 5 -23 5q-7 1 -12.5 1h-10.5h-13h-11t-12 -1q-13 0 -23 -5q-6 -2 -7 -3q-9 -13 -16 -23t-15 -23q-8 -11 -17.5 -25t-23.5 -35q-32 -59 -90 -95.5
t-130 -36.5q-38 0 -72 11t-63 30q-10 -18 -15.5 -39.5t-8 -42.5t-3 -38t0.5 -25q0 -16 -2.5 -30.5t-8.5 -25t-15 -15.5t-22 -1t-18 15t-4.5 23.5t4 25.5t6.5 22q4 14 10.5 36t13 46t12.5 46t9 35q-51 52 -67 124q-5 11 -12.5 17.5t-19.5 8.5l-36 11q-9 2 -9 7v48q0 9 9 9h33
q13 0 24 6.5t17 19.5q12 38 34.5 70t54 55t69 36t79.5 13q72 0 130 -36t90 -95q8 -9 17 -18.5t20 -16.5q13 -9 27 -9q2 1 7 2.5t11 3.5q11 5 23.5 6.5t26.5 2.5q14 0 26.5 -2.5t22.5 -6.5l18 -6q13 0 27 9q11 7 20.5 16.5t17.5 18.5q32 59 89.5 95t128.5 36q42 0 80 -13
t69.5 -36t54 -55t34.5 -70q5 -12 16 -19t25 -7h33zM331 136q46 0 86.5 17.5t70.5 47.5t47 70t17 86q0 45 -17 85t-47 70t-70.5 47t-86.5 17q-45 0 -85 -17t-70 -47t-47 -70t-17 -85q0 -46 17 -86t47 -70t70 -47.5t85 -17.5zM785 357q0 27 6 54q-10 -6 -21 -10t-23 -4h-4
l-4 3q-1 0 -18 6.5t-38 6.5q-22 0 -39 -6.5t-19 -6.5l-3 -3h-4q-11 0 -22.5 4t-21.5 10q4 -14 5 -27t1 -27v-18q5 6 9 12t9 14l1 1l1 1q10 8 19 11q6 2 11 3l10 2q11 2 20 3t16 1h14q7 0 16 -1t19 -3l10 -2t10 -3q10 -2 20 -11l1 -1l1 -1q5 -8 9.5 -14t8.5 -12v18zM1033 136
q46 0 86 17.5t70 47.5t47 70t17 86q0 45 -17 85t-47 70t-70 47t-86 17t-86 -17t-70 -47t-47 -70t-17 -85q0 -46 17 -86t47 -70t70 -47.5t86 -17.5z" />
    <glyph glyph-name="w" unicode="w" horiz-adv-x="1162" 
d="M422 611q0 -6 -0.5 -12t-1.5 -11q-4 -34 -7 -75q-2 -35 -4.5 -83t-1.5 -105v-98q-1 -57 1.5 -105t4.5 -83q3 -41 7 -75q1 -6 1.5 -12t0.5 -12q0 -44 -24 -74.5t-59 -30.5t-59 30.5t-24 74.5v12t2 12q3 34 6 75q2 35 4.5 83t2.5 105v98q0 57 -2.5 105t-4.5 83q-3 41 -6 75
q-2 5 -2 11v12q0 44 24 75t59 31t59 -31t24 -75zM182 556q0 -5 -0.5 -11t-1.5 -11q-4 -32 -7 -72q-2 -34 -4.5 -79.5t-1.5 -99.5v-94q-1 -54 1.5 -100t4.5 -80q3 -40 7 -71q1 -6 1.5 -11.5t0.5 -11.5q0 -42 -24 -61.5t-59 -19.5t-59.5 19.5t-24.5 61.5q0 6 0.5 12t1.5 11
q3 31 7 71q2 34 4.5 80t2.5 100v94q0 54 -2.5 99.5t-4.5 79.5q-4 40 -7 72q-1 5 -1.5 11t-0.5 11q0 42 24.5 66.5t59.5 24.5t59 -24.5t24 -66.5zM662 556q0 -5 -0.5 -11t-0.5 -11q-4 -32 -7 -72q-3 -34 -5 -79.5t-2 -99.5v-94q0 -54 2 -100t5 -80q3 -40 7 -71
q0 -6 0.5 -11.5t0.5 -11.5q0 -42 -24 -61.5t-59 -19.5t-59 19.5t-24 61.5v12t2 11q4 31 7 71q2 34 4 80t2 100v94q0 54 -2 99.5t-4 79.5q-3 40 -7 72q-2 5 -2 11v11q0 42 24 66.5t59 24.5t59 -24.5t24 -66.5zM903 611q0 -6 -0.5 -12t-1.5 -11q-4 -34 -7 -75q-2 -35 -4.5 -83
t-1.5 -105h-1v-98h1q-1 -57 1.5 -105t4.5 -83q3 -41 7 -75q1 -6 1.5 -12t0.5 -12q0 -44 -24.5 -74.5t-59.5 -30.5t-59 30.5t-24 74.5q0 6 0.5 12t1.5 12q4 34 7 75q2 35 4 83t2 105v98q0 57 -2 105t-4 83q-3 41 -7 75q-1 5 -1.5 11t-0.5 12q0 44 24 75t59 31q17 0 32.5 -8.5
t27 -23t18 -33.5t6.5 -41zM1128 189q-1 -54 1.5 -100t4.5 -80q3 -40 7 -71q1 -6 1.5 -11.5t0.5 -11.5q0 -42 -24 -61.5t-59 -19.5t-59.5 19.5t-24.5 61.5q0 6 0.5 12t1.5 11q3 31 7 71q2 34 4.5 80t2.5 100v94q0 54 -2.5 99.5t-4.5 79.5q-4 40 -7 72q-1 5 -1.5 11t-0.5 11
q0 42 24.5 66.5t59.5 24.5t59 -24.5t24 -66.5q0 -5 -0.5 -11t-1.5 -11q-4 -32 -7 -72q-2 -34 -4.5 -79.5t-1.5 -99.5v-94z" />
    <glyph glyph-name="nine" unicode="9" horiz-adv-x="890" 
d="M822 255q0 -12 8 -20t20 -8q7 0 13 3q-23 -65 -63.5 -119.5t-95 -94t-120.5 -61.5t-138 -22q-89 0 -167 32.5t-137 88.5t-95.5 132.5t-41.5 163.5q7 -9 21 -9h111q13 0 21.5 8.5t8.5 20.5t-8.5 20.5t-21.5 8.5h-111q-13 0 -22 -9q3 89 39 167t95.5 135.5t138.5 91
t169 33.5q74 0 141.5 -23t123 -64.5t96 -98.5t61.5 -124q-8 6 -18 6q-12 0 -20 -9t-8 -22v-53q-2 -12 -7.5 -20.5t-17.5 -9.5h-4q-16 0 -21 -8.5t-7.5 -19t-6.5 -20t-18 -10.5h-4q-12 0 -20.5 -8.5t-8.5 -21.5v-54q0 -13 8.5 -21.5t20.5 -8.5t20 8.5t8 21.5v54v5q1 3 6 14
t23 11q12 0 20.5 8.5t8.5 20.5q0 3 -1 4q1 4 6.5 14.5t22.5 10.5q12 0 20.5 9t8.5 21v35q9 -44 9 -89q0 -27 -3.5 -53.5t-9.5 -51.5q-9 14 -25 14q-12 0 -20 -8.5t-8 -20.5zM736 513q-12 0 -20.5 -8t-8.5 -20t8.5 -20.5t20.5 -8.5t20 8.5t8 20.5t-8 20t-20 8zM386 425
q0 17 -9 22.5t-19.5 8.5t-19.5 8t-9 21q0 12 -9 20t-22 8h-53q-14 0 -22.5 -8.5t-8.5 -20.5q0 -1 -1.5 -5.5t-4.5 -9.5t-9 -9t-15 -4q-11 0 -19 -9t-8 -20t8 -19.5t20 -8.5q1 0 5.5 -1t10 -4.5t9.5 -9t4 -14.5q0 -12 9 -20.5t22 -8.5h53q32 0 32 -31q-2 -9 -9 -17.5
t-22 -8.5h-54q-13 0 -22 -8.5t-9 -20.5t9 -20t22 -8h53q13 0 22 8t9 20q1 8 6 18.5t23 10.5q12 0 20 9t8 22v110zM650 425q0 13 -8.5 22t-20.5 9q-15 0 -21.5 9.5t-7.5 18.5q0 12 -8.5 20.5t-21.5 8.5h-54q-13 0 -21.5 -8.5t-8.5 -20.5q-1 -9 -7.5 -18.5t-21.5 -9.5
q-12 0 -20.5 -9t-8.5 -22v-110q0 -13 8.5 -22t20.5 -9q16 0 21 -9t8 -19.5t8 -19.5t22 -9h54q13 0 21.5 8.5t8.5 20.5q1 8 7.5 18t21.5 10q12 0 20.5 9t8.5 22v110zM562 456q20 0 25 -12.5t5 -18.5v-110q0 -1 -0.5 -6t-3 -10.5t-8 -10t-15.5 -4.5h-57q-11 0 -17 4.5t-9 9.5
t-3.5 10t-0.5 7v110q0 1 0.5 6t3.5 10.5t9 10t17 4.5h54zM301 456q11 0 19.5 -9t8.5 -20t-8 -19.5t-20 -8.5h-59q-12 0 -20 8.5t-8 19.5t8 20t20 9h59z" />
    <glyph glyph-name="two" unicode="2" horiz-adv-x="888" 
d="M827 255q0 -12 8.5 -20.5t20.5 -8.5q2 0 3.5 0.5t3.5 0.5q-23 -64 -63.5 -118t-95 -93t-120 -61t-137.5 -22q-92 0 -172.5 34.5t-140.5 94.5t-94.5 140.5t-34.5 172.5q0 61 16 117.5t44.5 105.5t69 89.5t89.5 69t105.5 44.5t117.5 16q73 0 140 -23t122 -63.5t96 -97
t62 -122.5q-6 2 -11 2q-12 0 -20.5 -9t-8.5 -22v-53q-1 -12 -6.5 -20.5t-17.5 -10.5q0 1 -4 1q-16 0 -21 -8.5t-7.5 -19t-6.5 -20t-18 -10.5h-4q-12 0 -20.5 -9t-8.5 -22v-53q0 -13 8.5 -22t20.5 -9t20 9t8 22v53v5q1 4 6 15t23 11q12 0 20 8.5t8 20.5v4q1 4 6.5 14.5
t22.5 10.5q12 0 20.5 9t8.5 21v4q2 -14 3 -28.5t1 -29.5q0 -52 -12 -100q-9 9 -21 9t-20.5 -8.5t-8.5 -20.5zM742 513q-12 0 -20.5 -8t-8.5 -20t8.5 -20.5t20.5 -8.5t20 8.5t8 20.5t-8 20t-20 8zM166 341q13 0 21.5 8.5t8.5 20.5t-8.5 20.5t-21.5 8.5h-111q-13 0 -22 -8.5
t-9 -20.5t9 -20.5t22 -8.5h111zM274 284q-12 0 -20.5 8t-8.5 20t8.5 20.5t20.5 8.5h53q13 0 21.5 8t9.5 20q0 9 6.5 19.5t21.5 10.5q12 0 20.5 8t8.5 20t-8.5 20.5t-20.5 8.5q-2 0 -6.5 1t-9 4.5t-8.5 9t-4 14.5q0 12 -9 20t-22 8h-111q-13 0 -21.5 -8t-8.5 -20t8.5 -20.5
t21.5 -8.5h112q12 0 21 -8.5t9 -20.5t-8.5 -20t-20.5 -8h-55q-14 0 -22.5 -9t-8.5 -21q0 -2 -1 -6.5t-4.5 -9t-9 -8.5t-14.5 -4q-12 0 -20 -9t-8 -22v-53q0 -13 8.5 -22t21.5 -9h169q13 0 21.5 8.5t8.5 20.5t-8.5 20.5t-21.5 8.5h-111zM665 425q0 13 -8.5 22t-20.5 9
q-15 0 -21.5 9.5t-7.5 18.5q0 12 -8.5 20.5t-21.5 8.5h-54q-13 0 -21.5 -8.5t-8.5 -20.5q-1 -9 -7.5 -18.5t-21.5 -9.5q-12 0 -20.5 -9t-8.5 -22v-111q0 -13 8.5 -21.5t20.5 -8.5q16 0 21 -9t8 -20t8 -20t22 -9h54q13 0 21.5 9t8.5 21v-1q1 8 7.5 18.5t21.5 10.5
q12 0 20.5 8.5t8.5 21.5v111zM577 456q20 0 25 -12.5t5 -18.5v-111l-0.5 -5t-3 -10.5t-8 -10t-15.5 -4.5h-57q-11 0 -17 4.5t-9 9.5t-3.5 10t-0.5 6v111q0 1 0.5 6t3.5 10.5t9 10t17 4.5h54z" />
    <glyph glyph-name="m" unicode="m" horiz-adv-x="798" 
d="M766 545q7 -5 19.5 -21t12.5 -47q0 -15 -6 -27.5t-16 -22t-21.5 -16.5t-22.5 -10t-24.5 -9t-26.5 -12.5t-23 -14t-14 -14.5q-8 -13 -27 -26.5t-34 -13.5q-8 0 -17 7.5t-15 15.5q-20 -24 -38 -47t-32 -40q-17 -21 -31 -39q-12 -25 -21 -57q-8 -27 -14 -64.5t-6 -84.5v-119
q0 -17 -11.5 -29t-28.5 -12t-29 12t-12 29v119q0 47 -6.5 84.5t-14.5 64.5q-9 32 -20 57q-53 65 -96 120q-18 23 -36.5 46t-33.5 42.5t-26 33t-14 18.5q-10 15 -29 27.5t-32 19.5q-21 -2 -21 22q0 31 28.5 57t78.5 45t117.5 29.5t145.5 10.5q66 0 124.5 -7.5t105.5 -21.5
t80 -33.5t48 -43.5q11 -8 23 -16.5t16 -11.5zM769 481q6 31 -4 43.5t-27 12.5q0 -24 -21 -22q-12 -7 -31.5 -19.5t-29.5 -27.5q-3 -4 -11.5 -15.5t-21 -27.5t-28 -35.5t-31.5 -39.5l12 -9q5 2 10 6q5 3 11 7.5t13 12.5q14 15 28.5 29t33.5 19q9 3 24.5 7.5t30.5 12.5
t27 19.5t15 26.5z" />
    <glyph glyph-name="zero" unicode="0" horiz-adv-x="884" 
d="M412 439q17 0 21 -10.5t4 -15.5v-91q0 -1 -0.5 -5t-2.5 -8.5t-6.5 -8.5t-12.5 -4h-47q-9 0 -14 3.5t-7.5 8t-3 9t-0.5 5.5v91q0 1 0.5 5.5t3 9t7.5 8t14 3.5h44zM827 272q0 -10 7 -16.5t17 -6.5t15 4q-20 -69 -60.5 -128t-96 -101.5t-124 -66.5t-144.5 -24
q-88 0 -166 32.5t-137.5 88.5t-96 132t-41.5 163q7 -5 16 -5h92q11 0 18 6.5t7 17.5q0 10 -7 17t-18 7h-92q-5 0 -9 -2l-8 -4q2 90 37.5 168.5t95.5 137t139.5 92t169.5 33.5q79 0 149.5 -26t127.5 -72t97 -109t57 -136q-9 12 -21 12q-10 0 -17 -7t-7 -18v-44q-1 -11 -5 -18
t-15 -8q0 1 -3 1q-13 0 -17 -7t-6 -16t-5.5 -17t-15.5 -9q-1 1 -4 1q-10 0 -17 -7.5t-7 -18.5v-44q0 -11 7 -18t17 -7q11 0 17.5 7t6.5 18v44v4q1 3 5 12.5t19 9.5q10 0 16.5 6.5t6.5 17.5v3q1 3 5.5 12t18.5 9q11 0 17.5 7t6.5 18v41q8 -43 8 -83q0 -24 -2.5 -47t-7.5 -46
q-7 14 -22 14q-10 0 -17 -6.5t-7 -17.5zM756 486q-10 0 -17 -6.5t-7 -16.5q0 -11 7 -17.5t17 -6.5q11 0 17.5 6.5t6.5 17.5q0 10 -6.5 16.5t-17.5 6.5zM242 249q11 0 18 6.5t7 16.5q0 11 -6.5 17.5t-17.5 6.5q-10 0 -16.5 7.5t-6.5 18.5v139q0 11 -7.5 18t-18.5 7h-44
q-11 0 -18 -6.5t-7 -16.5q0 -11 6.5 -17.5t17.5 -6.5q10 0 16.5 -7.5t6.5 -18.5v-91q0 -11 -6.5 -18.5t-16.5 -7.5q-11 0 -17.5 -6.5t-6.5 -17.5q0 -10 7 -16.5t18 -6.5h92zM485 413q0 11 -6.5 18.5t-16.5 7.5q-13 0 -18 7.5t-6 15.5h-1q0 10 -7 17t-18 7h-44
q-11 0 -18 -6.5t-7 -17.5q-1 -8 -6.5 -15.5t-17.5 -7.5q-10 0 -17 -7.5t-7 -18.5v-91q0 -11 7 -18.5t17 -7.5q14 0 18 -7.5t6 -16t6.5 -16t18.5 -7.5h44q11 0 18 7t7 17h1q1 6 6 14.5t18 8.5q10 0 16.5 7.5t6.5 18.5v91zM704 413q0 11 -6.5 18.5t-17.5 7.5q-12 0 -17.5 7.5
t-6.5 15.5q0 10 -7 17t-18 7h-44q-11 0 -18.5 -6.5t-7.5 -17.5q0 -8 -5.5 -15.5t-18.5 -7.5q-10 0 -16.5 -7.5t-6.5 -18.5v-91q0 -11 6.5 -18.5t16.5 -7.5q14 0 18 -7.5t6.5 -16t7 -16t18.5 -7.5h44q11 0 18 7t7 17q1 6 6 14.5t18 8.5q11 0 17.5 7.5t6.5 18.5v91zM631 439
q17 0 21 -10.5t4 -15.5v-91q0 -1 -0.5 -5t-2.5 -8.5t-6.5 -8.5t-12.5 -4h-47q-9 0 -14 3.5t-8 8t-3.5 9t-0.5 5.5v91q0 1 0.5 5.5t3.5 9t8 8t14 3.5h44z" />
    <glyph glyph-name="space" unicode=" " horiz-adv-x="500" 
 />
    <glyph glyph-name="H" unicode="H" horiz-adv-x="1016" 
d="M999 613q-29 -46 -56.5 -91.5t-55.5 -91.5q-2 -3 1 -11.5t7.5 -19t9 -19.5t5.5 -12q13 -32 25.5 -65t24.5 -66q5 -11 8.5 -21.5t8.5 -21.5q3 -8 10 -5t15 5q9 2 14 -4.5t-1 -15.5q-4 -7 -11 -8.5t-15 -3.5q3 -6 5.5 -12.5t0.5 -13.5q-2 -5 -7.5 -10t-10.5 -1
q-7 5 -9 10.5t-4 10t-5.5 7t-12.5 -0.5q-54 -14 -108 -27.5t-109 -27.5q-4 -1 -12.5 -2.5l-17 -3t-16 -4.5t-10.5 -7q-6 -10 -10 -12t-8.5 -0.5t-10 4t-14.5 0.5q-27 -7 -54 -13.5t-54 -12.5q-17 -5 -22.5 -20.5t-12.5 -31.5q-20 -43 -39 -85.5t-39 -86.5l-42 -93
q-3 -8 -13.5 -7t-15.5 7q-6 8 -2 15.5t7 15.5q3 6 8.5 15t-0.5 13q-7 5 -13 9.5t-13 9.5q-26 19 -51 37t-51 37l-165 120q-1 -3 -2.5 -8t-4 -11t-4.5 -11t-5 -6q-4 -2 -15 1t-12 9t1.5 13.5t6 15t7.5 14.5t6 12l76 178q-13 7 -19 6t-20 -2q-19 0 -15 17q2 9 10 13t18.5 5.5
t21.5 2t19 1.5q4 1 9 10.5t9.5 22t7.5 23.5t5 15q8 20 17 40.5t17 40.5q-7 -2 -17 -6.5t-20.5 -9t-20.5 -6.5t-17 0q-6 2 -11.5 8t-0.5 14q2 4 13 6t15 3q40 13 79 25.5t79 25.5q21 6 42 12.5t42 13.5q8 2 16.5 3.5t16.5 3.5q8 1 16.5 5t16.5 3q7 -1 11.5 9t8.5 15
q6 11 11 17.5t-1 17.5q-3 7 0 12.5t8.5 8.5t10 2.5t4.5 -7.5l30 48t30 47q27 42 53.5 84t53.5 84q2 3 4.5 8t5.5 10t7 8.5t8 2.5q14 -4 12.5 -13t-6.5 -17q-6 -8 -8 -13t10 -9q11 -3 21.5 -6.5t21.5 -6.5q48 -14 95.5 -28.5t95.5 -28.5q20 -7 41 -12.5t41 -13.5q9 -3 14 -3
t8 3.5t6 9t8 12.5l10 14t14 1q7 -5 7.5 -10.5t-2 -11.5t-6.5 -11.5t-7 -10.5q-16 -26 -31.5 -51.5t-31.5 -51.5zM971 650q-10 -22 -19 -43t-18 -43q21 35 42.5 69t43.5 68q-14 5 -20 3.5t-12 -15.5q-5 -10 -8.5 -19.5t-8.5 -19.5zM232 416q-17 -40 -33.5 -80t-33.5 -80
q26 4 51.5 7t51.5 7q12 1 18.5 2.5t11 4.5t8.5 8t10 15l114 180q-50 -16 -99 -31.5t-99 -32.5zM364 -198q26 57 51 114l50 114q-5 -2 -19 -6.5t-29 -8.5t-27.5 -4.5t-16.5 5.5q-1 2 -1 6.5t1 9t1.5 8l0.5 3.5q-7 5 -13.5 9t-13.5 8l-210 132q-18 -44 -36 -87l-36 -86
q75 -54 149 -108.5t149 -108.5zM500 468q3 5 8.5 11.5t3.5 11.5q-5 8 -10 16.5t-10 16.5l-135 -213q26 22 50 45.5t45 50.5q13 15 24.5 30t23.5 31zM510 553q5 -9 10.5 -18.5t10.5 -18.5q42 71 76.5 144t66.5 148q-14 -11 -24 -30t-19 -33q-11 -17 -21.5 -34.5t-21.5 -34.5z
M735 240q-43 -47 -88 -85.5t-102 -67.5l36 8l36 8q10 2 24 3.5t19 10.5zM884 166q11 2 21.5 4.5t21.5 4.5q-38 19 -75.5 37.5t-75.5 36.5q-19 -32 -38 -63.5t-39 -63.5q35 8 70.5 17t70.5 17q5 1 11 0t10 0q2 1 2.5 3t2.5 3q5 1 9 1.5t9 2.5zM942 201q-19 48 -38 96.5
t-39 97.5l-30 -51q10 -2 11.5 -6t-2 -8.5t-9.5 -9t-10 -6.5q-14 -8 -20.5 -19t-14.5 -25q38 -17 76 -34.5t76 -34.5z" />
    <glyph glyph-name="bracketleft" unicode="[" horiz-adv-x="1191" 
d="M1141 491q19 -13 24 -29t0.5 -32.5t-16 -31.5t-26.5 -25q-29 -20 -62.5 -35.5t-69.5 -17.5h-7.5h-11.5t-11 -1t-5 -4q-1 -11 -1 -22v-22q-1 -20 -2 -40.5t-3 -40.5q-3 -43 -17.5 -75t-54.5 -54q-34 -20 -73 -31t-77 -19q-82 -14 -164 -10.5t-163 22.5q-36 8 -71 23
t-60 44q-14 16 -21.5 33.5t-11 36t-4 38.5t-1.5 40t-1.5 41t-0.5 41q0 16 -0.5 19t-15.5 5l-45 3q-35 3 -74.5 21.5t-62.5 45.5q-12 13 -15.5 26t4.5 30q8 15 17.5 28.5t26.5 20.5q29 12 63 9.5t65 -5.5q-1 22 7.5 44t22.5 40.5t32.5 32.5t38.5 22q46 19 94 28t97 12
q-6 10 -11 20.5t-5.5 20.5t5 18t20.5 14q22 8 45.5 11t46.5 2q24 -1 50 -3.5t49 -12.5q10 -5 18 -12t10 -19q1 -12 -6.5 -22.5t-14.5 -20.5q49 -6 99.5 -15t95.5 -30q21 -10 39.5 -26t32.5 -35.5t22 -42.5t8 -47q39 3 77 3q18 -1 38.5 -2t36.5 -12zM72 460q11 -5 25 -6.5
t27 -2.5q-5 2 -12 5.5t-14 5.5t-14 2t-12 -4zM1079 427q7 1 20.5 2t15.5 10q-9 -2 -18.5 -5t-17.5 -7z" />
    <glyph glyph-name="eight" unicode="8" horiz-adv-x="888" 
d="M325 456q12 -1 20 -9t8 -20q0 -11 -8 -19.5t-20 -8.5h-59q-11 0 -19.5 8.5t-8.5 19.5q0 12 8 20t20 9h59zM581 456q20 0 25 -12.5t5 -18.5v-110q0 -1 -0.5 -6t-3 -10.5t-8 -10t-15.5 -4.5h-56q-11 0 -17 4.5t-9 9.5t-4 10t-1 7v110q0 1 1 6t4 10.5t9 10t17 4.5h53z
M325 341q12 0 20 -8.5t8 -19.5t-8 -20t-20 -9h-59q-11 0 -19.5 9t-8.5 20t8 19.5t20 8.5h59zM818 255q0 -12 8.5 -20t20.5 -8q10 0 17 5q-22 -65 -63 -120t-95.5 -95t-120.5 -62t-139 -22q-88 0 -166 32.5t-137.5 88.5t-96 132.5t-41.5 163.5q9 -9 22 -9h110q13 0 22 8.5
t9 20.5t-9 20.5t-22 8.5h-110q-15 0 -22 -9q3 89 38.5 167t95 135.5t138.5 91t169 33.5q75 0 143 -23.5t123.5 -65.5t96 -100t61.5 -127q-9 12 -23 12q-12 0 -20.5 -9t-8.5 -22v-53q-1 -12 -6.5 -20.5t-17.5 -9.5h-5q-16 0 -20.5 -8.5t-7 -19t-6.5 -20t-18 -10.5h-4
q-13 0 -21 -8.5t-8 -21.5v-54q0 -13 8 -21.5t21 -8.5q12 0 20 8.5t8 21.5v54q0 4 -1 5q1 3 6.5 14t22.5 11q12 0 20.5 8.5t8.5 20.5v4q1 4 6.5 14.5t22.5 10.5q12 0 20.5 9t8.5 21v50q12 -50 12 -104q0 -55 -14 -111q-7 20 -27 20q-12 0 -20.5 -8.5t-8.5 -20.5zM733 513
q-13 0 -21 -8t-8 -20t8 -20.5t21 -8.5q12 0 20 8.5t8 20.5t-8 20t-20 8zM382 342q-14 0 -21.5 9.5t-7.5 18.5q0 10 7.5 19.5t21.5 9.5q12 0 20 8t8 20q0 13 -9 21t-21 8q-15 2 -20 11.5t-8 20t-8.5 18.5t-21.5 8h-53q-17 0 -22 -8t-8 -18.5t-8 -20t-20 -11.5q-12 0 -21 -8
t-9 -21q0 -12 8 -20t20 -8q14 0 21.5 -9.5t7.5 -19.5q0 -9 -7.5 -18.5t-21.5 -9.5q-12 0 -20 -8.5t-8 -20.5q0 -13 9 -21t21 -8q15 -2 20 -11.5t8 -19.5t8 -18t22 -8h53q16 0 21.5 8t8.5 18t8 19.5t20 11.5q12 0 21 8t9 21q0 12 -8 20.5t-20 8.5zM669 425q0 13 -8 22t-20 9
q-15 0 -21.5 9.5t-7.5 18.5h-1q0 12 -8.5 20.5t-21.5 8.5h-53q-14 0 -22.5 -8.5t-8.5 -20.5q-1 -9 -7.5 -18.5t-21.5 -9.5q-12 0 -20 -9t-8 -22v-110q0 -13 8 -22t20 -9q17 0 22 -9t7.5 -19.5t8 -19.5t22.5 -9h53q13 0 21.5 8.5t8.5 20.5h1q1 8 7 18t22 10q12 0 20 9t8 22
v110z" />
    <glyph glyph-name="five" unicode="5" horiz-adv-x="890" 
d="M830 255q0 -12 8.5 -20.5t20.5 -8.5q2 0 2.5 0.5t2.5 0.5q-23 -64 -64 -118t-95.5 -93t-120 -61t-137.5 -22q-88 0 -166 32t-137.5 88.5t-96 132t-41.5 162.5q7 -7 20 -7h110q13 0 22 8.5t9 20.5t-9 20.5t-22 8.5h-110q-11 0 -20 -7q3 88 39 165.5t95.5 135.5t138.5 91
t168 33q73 0 140 -23t122 -63.5t96 -96.5t62 -122q-2 1 -8 1q-12 0 -20.5 -9t-8.5 -22v-53q-1 -12 -6.5 -20.5t-17.5 -10.5q0 1 -5 1q-16 0 -20.5 -8.5t-7 -19t-6.5 -20t-18 -10.5h-4q-13 0 -21 -9t-8 -22v-53q0 -13 8 -22t21 -9q12 0 20 9t8 22v53q0 4 -1 5q2 4 7 15t22 11
q12 0 20.5 8.5t8.5 20.5v4q1 4 6.5 14.5t22.5 10.5q21 0 28 22q1 -11 1.5 -23t0.5 -23q0 -49 -11 -98q-9 7 -19 7q-12 0 -20.5 -8.5t-8.5 -20.5zM745 513q-13 0 -21 -8t-8 -20t8 -20.5t21 -8.5q12 0 20 8.5t8 20.5t-8 20t-20 8zM394 284q12 0 20 8.5t8 20.5t-8 20t-20 8h-3
q-1 0 -5.5 1.5t-9 4.5t-8 9t-3.5 15v-1q-1 12 -9.5 20.5t-21.5 8.5h-53q-12 0 -21 8t-9 20t9 20.5t21 8.5h53q13 0 22 8.5t9 20.5t-9 20t-22 8h-110q-13 0 -22 -9t-9 -22v-110q0 -13 9 -22t22 -9h112q2 0 7 -1t10 -4t8.5 -9.5t3.5 -17.5q0 -1 -1.5 -5t-5 -8.5t-9.5 -8
t-15 -3.5h-110q-13 0 -22 -8.5t-9 -20.5t9 -20.5t22 -8.5h110q13 0 22 8.5t9 20.5q0 1 0.5 6t3.5 10t9 9t16 4zM672 425q0 13 -8 22t-20 9q-16 0 -22 9.5t-7 18.5h-1q0 12 -8.5 20.5t-21.5 8.5h-53q-14 0 -22.5 -8.5t-8.5 -20.5q-1 -9 -7.5 -18.5t-21.5 -9.5q-12 0 -20 -9
t-8 -22v-111q0 -13 8 -21.5t20 -8.5q17 0 22 -9t7.5 -20t8 -20t22.5 -9h53q13 0 21.5 9t8.5 21l1 -1q1 8 7 18.5t22 10.5q12 0 20 8.5t8 21.5v111zM584 456q20 0 25 -12.5t5 -18.5v-111l-0.5 -5t-3 -10.5t-8 -10t-15.5 -4.5h-56q-11 0 -17 4.5t-9 9.5t-4 10t-1 6v111
q0 1 1 6t4 10.5t9 10t17 4.5h53z" />
    <glyph glyph-name="U" unicode="U" horiz-adv-x="882" 
d="M842 250q1 -2 2 -3.5t2 -3.5t1 -3q0 -4 -2.5 -13t-7 -21t-9.5 -26.5t-11 -29.5q-13 -34 -31 -75q-5 -11 -10 -17t-10 -8q-5 -3 -10 -3q-4 -11 -13 -21q-8 -8 -21.5 -16.5t-36.5 -12.5q-20 -4 -40.5 -0.5t-43.5 12.5q-67 -34 -105.5 -48.5t-58.5 -19.5q-24 -5 -31 -1
q-5 -8 -11.5 -11.5t-11.5 -5.5q-6 -2 -13 -2l-26 -9q-3 2 -4 7q-2 3 -3 5l-7 -2q-2 0 -5 1.5t-6 3.5q-4 2 -7 5q-9 -1 -13 3q-2 2 -2 3q-7 3 -11 6q-11 5 -12 8q-2 2 0.5 4t5.5 3q1 0 1 2q0 1 -1 1q-3 0 -3 3v3l-1 11l-5 7.5t-7 6.5q-2 1 -8.5 5t-15.5 9t-18 10.5t-16 9.5
q-8 -8 -21 -12.5t-27 -7.5t-25.5 -3.5t-14.5 0.5t-13 3t-21 4q-12 3 -27 5q15 -1 28.5 3t24.5 9q12 5 23 13q-4 3 -8 7q-3 3 -6 5t-5 4q-4 2 -4 5q-1 1 0 2v18q-1 0 -2 1t-2 1t-2 2q-2 1 -2.5 13.5t-0.5 27.5v28v16q0 21 0.5 43t1.5 36q-4 9 -5 17q-1 4 -1 10q0 26 -1 50
q-1 20 -2 39.5t-2 27.5q-3 17 -18 29.5t-30 27.5q-8 8 -11 17t-4 17q-1 10 0 19q-5 8 -4 15.5t3 12.5q3 6 7 10q-2 1 0 4.5t4 5.5q1 1 5 3q2 1 3 2q3 7 8 13l-4 9q-2 2 -5 4q-6 4 -7 6q9 25 26 49q14 20 38.5 41.5t62.5 37.5q4 2 13 0t10 -6l32 -7q39 17 83.5 27t94 10.5
t103.5 -9.5t112 -34q52 -22 90 -52.5t64 -66t41.5 -73.5t23.5 -75q19 -86 9 -181zM174 130q11 14 23 25t22 18q-13 4 -24 8t-19 8q-12 -29 -11 -47t3 -18t6 6zM355 26q10 25 18 50.5t13 44.5q-27 13 -56 21q-32 -15 -53.5 -32.5t-35.5 -34.5q8 -5 22.5 -14.5t29 -20.5
t27 -21.5t17.5 -17.5q8 2 11.5 10t6.5 15z" />
    <glyph glyph-name="V" unicode="V" horiz-adv-x="719" 
d="M658 579q24 -68 22 -128q-2 -70 -15.5 -133.5t-39.5 -119.5q-54 -114 -155 -188q5 -2 9.5 -2.5t8.5 -2.5q2 0 6.5 0.5t6.5 0.5q1 -1 4.5 -1.5t6.5 -2.5q4 -2 8 -3l1 -2v-7q8 -5 13 -9.5t7 -7.5q3 -4 4 -7l9 -46q-7 -12 -32 -22q-21 -8 -61.5 -15t-111.5 -7t-109 8t-57 19
q-22 11 -26 27l8 38q4 15 24 27q17 10 54.5 18.5t105.5 8.5q53 0 88 -6q111 74 166 192q51 108 53 244q1 54 -17 108t-42 99.5t-47.5 78.5t-32.5 44q-2 -2 -9.5 -4.5t-15.5 1.5l-3 -8q27 -25 36 -49t14 -55q1 -1 3 -2q3 -3 3 -6q-1 -6 -23 -7q-7 -1 -42.5 -0.5t-83.5 2.5
q-15 -10 -36 -10q-27 0 -40 13q-20 1 -38.5 2t-34.5 3q-35 4 -71.5 8t-69 8t-58 9t-38.5 10l-2 2q-3 3 -2 6q1 4 4 4h3q6 20 17 39q10 17 26 35.5t42 35.5q23 14 51.5 25t61 16.5t68.5 3.5t73 -14l4 4q1 1 5 2q6 2 17 -1l44 76q5 5 11 9q5 3 12 4t17 -3q18 -7 37 -18.5
t24 -23.5q5 -11 2.5 -17.5t-4.5 -11.5q-2 -3 -4 -9q-1 -3 -2 -5q7 -4 11 -9t6.5 -10.5t0.5 -12.5q4 -6 6 -11t2 -9.5t-3 -9.5q10 -12 29 -39t40 -64q33 -59 51 -112z" />
    <glyph glyph-name="colon" unicode=":" horiz-adv-x="1091" 
d="M1012 231q25 -3 42.5 -19.5t17.5 -41.5q0 -26 -18 -41t-42 -20q-48 -10 -108.5 -14t-126 -3.5t-133.5 5t-132 10.5q-54 -16 -121 -27q-71 -11 -131.5 -12.5t-107 5.5t-77 22t-41.5 38q-14 27 -7 50q3 10 11 19.5t24 17.5t40.5 13.5t60.5 8.5q0 21 2 52.5t5 60.5
q4 34 8 71q6 42 35 78.5t76.5 63t110.5 41.5t137 15t138 -15.5t111.5 -42.5t76 -63t32.5 -77l20 -187q12 -2 27 -3t29 -2.5t25 -2t16 -0.5z" />
    <glyph glyph-name="ordfeminine" unicode="&#xaa;" horiz-adv-x="893" 
 />
    <glyph glyph-name="seven" unicode="7" horiz-adv-x="886" 
d="M823 257q0 -12 8.5 -20.5t20.5 -8.5q4 0 10 2q-23 -65 -63.5 -119t-95 -93t-120.5 -61t-138 -22q-92 0 -172.5 34.5t-140.5 94.5t-94.5 140.5t-34.5 172.5q0 61 16 117.5t44.5 105.5t69 89.5t89.5 69t105.5 44.5t117.5 16q74 0 141 -23t122.5 -64t96 -97.5t61.5 -123.5
q-8 4 -14 4q-12 0 -20.5 -9t-8.5 -22v-53q-2 -12 -7 -20.5t-17 -10.5q-1 1 -5 1q-16 0 -20.5 -8.5t-7 -19t-6.5 -20t-18 -10.5h-5q-12 0 -20.5 -9t-8.5 -22v-53q0 -13 8.5 -22t20.5 -9t20.5 9t8.5 22v53q0 4 -1 5q1 4 6.5 15t22.5 11q12 0 20.5 8.5t8.5 20.5q0 3 -1 4
q2 4 7 14.5t23 10.5q12 0 20 9t8 21v24q4 -20 5.5 -39t1.5 -39q0 -54 -12 -103q-9 12 -23 12q-12 0 -20.5 -8.5t-8.5 -20.5zM737 515q-12 0 -20.5 -8t-8.5 -20t8.5 -20.5t20.5 -8.5t20.5 8.5t8.5 20.5t-8.5 20t-20.5 8zM161 343q13 0 22 8.5t9 20.5t-9 20.5t-22 8.5h-110
q-13 0 -22 -8.5t-9 -20.5t9 -20.5t22 -8.5h110zM410 485q0 13 -9 21.5t-21 8.5h-168q-13 0 -22 -8t-9 -20t9 -20.5t22 -8.5h112q13 0 22 -8.5t9 -20.5t-9 -20t-22 -8q-12 0 -20 -8.5t-8 -21.5q0 -3 -6 -15t-23 -12q-12 0 -20.5 -9t-8.5 -22v-54q0 -13 8.5 -22t20.5 -9
t20.5 9t8.5 22v55q0 1 1 5.5t4 10t8.5 10t14.5 4.5q12 0 20 7.5t9 19.5q0 1 0.5 5.5t3 10t8.5 10t17 4.5q12 0 20 9t8 22v53zM651 427q0 13 -8 22t-21 9q-15 0 -21 9.5t-7 18.5h-1q0 12 -8.5 20.5t-21.5 8.5h-53q-14 0 -22.5 -8.5t-8.5 -20.5q-1 -9 -7.5 -18.5t-21.5 -9.5
q-12 0 -20 -9t-8 -22v-111q0 -13 8 -21.5t20 -8.5q17 0 22 -9t7.5 -20t8 -20t22.5 -9h53q13 0 21.5 9t8.5 21l1 -1q1 8 7 18.5t21 10.5q13 0 21 8.5t8 21.5v111zM563 458q20 0 25 -12.5t5 -18.5v-111l-0.5 -5t-3 -10.5t-8 -10t-15.5 -4.5h-56q-11 0 -17 4.5t-9 9.5t-4 10
t-1 6v111q0 1 0.5 6t3.5 10.5t9.5 10t17.5 4.5h53z" />
    <glyph glyph-name="fraction" unicode="&#x2044;" horiz-adv-x="567" 
 />
    <glyph glyph-name="hungarumlaut" unicode="&#x2dd;" horiz-adv-x="1254" 
 />
    <glyph glyph-name="A" unicode="A" horiz-adv-x="1195" 
d="M985 159q0 -5 1 -18t6.5 -28t17 -29t32.5 -22l1 -1q26 -8 40 -20v-51q-16 -14 -47.5 -22.5t-70.5 -8.5q-41 0 -71 9l-132 -27q10 -10 24 -14l1 -1q27 -9 42 -21v-53q-17 -14 -49.5 -23t-73.5 -9t-73.5 9t-49.5 23v53h1l-58 -11v-2q2 -5 0 -9.5t-7 -5.5l-47 -10
q-1 -17 -11.5 -29t-27.5 -16q-23 -5 -45 9t-30 37q-8 24 2 44t33 25q17 3 34 -4t29 -21l47 9q13 2 16 -10l1 -2l117 24q16 10 25.5 24t14 28t5.5 25.5t1 16.5v150q-20 0 -33 15t-21 34.5t-11.5 39.5t-4.5 30q-2 14 -7 22t-11 13q-7 5 -16 8q-37 2 -55 23.5t-25 46.5
q-9 29 -7 66q8 1 30.5 2.5t53 3t65 2t65.5 0.5h42.5t44.5 -1q-13 15 -18.5 34t-7.5 36q-3 19 -2 40q7 1 28.5 2.5t49.5 3t60 2t61 0.5h44.5t45.5 -1l15 42h-2q-11 4 -7 12l11 35q-11 9 -16 21.5t0 25.5q1 2 1.5 3.5t2.5 3.5q8 13 24 17.5t33 -1.5q20 -7 29.5 -23t4.5 -33
l-2 -4l-2 -4q-13 -19 -38 -19l-12 -34q0 -2 -1 -2q-3 -7 -12 -3h-2l-13 -38q35 -1 61 -2.5t35 -3.5q1 -37 -7 -66q-7 -26 -24 -47.5t-51 -23.5q-9 -3 -15 -8t-10.5 -13.5t-5.5 -22.5q-1 -10 -4.5 -29.5t-11 -39.5t-20 -35t-30.5 -15v-133zM943 292q-23 1 -36 23t-20 48
q-10 -10 -23.5 -16.5t-31.5 -7.5q-9 -3 -16 -8q-6 -5 -11.5 -13t-6.5 -22q-1 -10 -4.5 -30t-11.5 -39.5t-21.5 -34.5t-32.5 -15h-1v-150q0 -7 3 -29t19 -43l115 23q-11 6 -18 12v51q5 5 12.5 8.5t15.5 7.5l9 3q1 0 1 0.5t1 0.5l1 1q21 8 32.5 22t17 29t6.5 28t1 18v133z
M382 -46q-39 0 -70.5 9t-48.5 23v37q-18 -8 -43 -13t-54 -5q-39 0 -70.5 9t-47.5 23v50q5 5 12.5 9t15.5 8l9 3q1 0 1 0.5t1 0.5l1 1q20 8 31.5 22t17 29t6.5 28t1 18v126q-10 1 -16 8t-10 16t-5.5 18.5t-2.5 15.5l-79 387h-3q-2 3 -2 6q0 1 1 2q12 3 32.5 7.5t46.5 7
t56 2.5t60 -4l11 46h-1q-11 4 -8 14l10 41q-11 9 -16.5 23t-1.5 29q5 20 22.5 31t37.5 6t30.5 -23t5.5 -38q-3 -15 -14.5 -25t-25.5 -12l-11 -42q-2 -10 -13 -8l-1 1l-12 -45q12 -2 23.5 -4.5t21.5 -6.5v-2v-6h-3l-30 -175q63 3 134 3h1q47 0 91 -1t85 -3v-2q0 -4 -1 -7h-4
l-150 -275h-1v-162q0 -5 1 -18t6.5 -28t17 -29t32.5 -22l1 -1q27 -8 40 -21v-50q-16 -14 -47.5 -23t-70.5 -9zM245 108q27 -8 40 -21v-37q4 2 7 3q2 1 8 3q1 0 1 0.5t1 0.5l1 1q21 8 32.5 22t17 29t6.5 28t1 18v162h-1l-122 225l-26 -152q-1 -6 -2 -14.5t-3.5 -17t-7 -15.5
t-11.5 -10v-127q0 -5 1 -18t6.5 -28t17 -29t31.5 -22z" />
    <glyph glyph-name="asciicircum" unicode="^" horiz-adv-x="894" 
d="M874 249q9 -42 3 -89t-32 -82q-28 -38 -70 -54t-87 -23t-91.5 -7t-92.5 -2q-48 -1 -95 0t-95 9t-97.5 18t-93.5 33q-21 10 -37 27t-27.5 37t-19.5 42t-14 44q-11 45 -13.5 92.5t2.5 93.5q2 19 7 43.5t15 45.5t26.5 33.5t42.5 8.5q22 -4 34.5 -22t24 -38t25.5 -36.5
t40 -17.5q23 -1 47 2t47 6q24 3 48 3h48q9 25 -3.5 48.5t-32.5 45t-41 43t-29 42.5q-9 24 -9.5 50t5.5 52t17.5 50t26.5 44q29 37 68.5 60.5t84.5 33.5q23 6 45 9t45 -8q15 -7 28 -18.5t26 -22.5q18 -15 33 -31t25 -37q5 -11 7.5 -17.5t13.5 -8.5q21 -4 44 2q10 2 20.5 6.5
t20 5.5t16.5 -4.5t9 -21.5q3 -20 -9 -37t-26 -30q4 -1 10 -3.5t10.5 -6.5t5.5 -9t-4 -11q-11 -11 -30.5 -13t-33.5 -5q-29 -8 -50 -35t-23 -57q-1 -24 6.5 -42t20 -33t29 -28t32.5 -28q36 -32 61.5 -68t35.5 -84z" />
    <glyph glyph-name="breve" unicode="&#x2d8;" horiz-adv-x="821" 
 />
    <glyph glyph-name="D" unicode="D" horiz-adv-x="1233" 
d="M533 110q-3 2 -19 12t-38.5 29.5t-49 49t-51 70.5t-44 93.5t-27.5 118.5q-2 17 43.5 39.5t154.5 39.5q-2 5 1 8q4 6 10 0q3 4 10 1l8 -5l2 2h-1q-6 4 -3 10q3 5 10 2l2 -1l-3 5q-4 6 1 10q3 2 8 0l3 7q2 7 9 5v1q-2 7 6 7l30 6q4 0 6 -1l8 8q3 6 10 2q0 -1 0.5 -1t0.5 -1
l7 8q5 5 9 2q3 4 7 4q5 -2 6 -7q3 3 7 2q4 -2 4 -5h4q3 -1 4 -4l4 3q6 5 10 -1q1 0 1 -1l2 1q6 5 10 -1q3 -5 -2 -10h1q1 0 3 -2q1 -1 2 -1q5 4 9 -2q1 3 5 3l14 3q0 2 2 2q4 4 8 0l6 1q6 0 8 -6q2 0 4 -3l5 -7l18 15l2 13q2 8 8 6h1q4 2 6 2q5 0 5 -5q5 2 7 -2q4 -5 -1 -10
q1 -1 1.5 -2t1.5 -2l8 -29v-4l1 -1l12 19q4 6 9 2q6 -2 2 -8h4q2 0 4 -3q2 6 7 4q7 0 5 -8v-1q2 2 3 2q1 1 2 1l-7 16q-2 7 4 9q2 2 4.5 0t4.5 -4q3 5 10 2l8 -4l1 5q0 7 7 7q6 -2 6 -9l-1 -6q5 4 9 -2l18 -25q2 -4 1 -6l17 8q6 3 10 -3v-4l4 2q6 3 10 -3v-4
q47 -5 87.5 -13.5t70.5 -22.5l7 4q7 2 10 -3q1 -5 -2 -8q24 -14 37 -32q2 -3 -1.5 -25t-13 -56t-27 -75.5t-43 -83.5t-60.5 -80t-81 -64q-2 -23 -19 -40.5t-45 -30t-64.5 -19t-75.5 -6.5q-40 0 -68 3t-48.5 7.5t-36 10.5t-29.5 12q-11 6 -19 15q-2 2 -4 4.5t-4 5.5
q-5 10 -7 18.5t-3 14.5zM1068 -110q8 -2 12.5 -13t1.5 -25t-11 -23.5t-16 -7.5q-99 30 -209 63q-94 29 -212.5 65.5t-241.5 74.5l441 -361h-1q8 -6 11 -17.5t-2 -24.5q-5 -15 -17 -23t-24 -4q-2 0 -10 5q-7 5 -20 15.5t-36 30.5l-40.5 36t-75 66.5t-95 84.5t-101.5 90
t-93.5 83t-71.5 64q-25 8 -48.5 16t-46.5 16q-81 25 -151 47.5t-122 39.5t-82.5 27.5l-30.5 10.5q-8 3 -6 12q1 4 5 6q2 1 4 1l408 -112l-182 176q-3 3 -1 8q3 10 12 8l279 -222z" />
    <glyph glyph-name="parenright" unicode=")" horiz-adv-x="1183" 
d="M1152 275q1 -11 -2 -21.5t-8.5 -19.5t-10.5 -15.5t-6 -7.5q-2 -3 -10.5 -11t-37.5 -38q-14 -21 -29.5 -36.5t-29.5 -26.5q-16 -12 -31 -20q-29 -30 -64.5 -42.5t-74.5 -12.5q-35 -66 -74.5 -107.5t-78.5 -65t-74.5 -33.5t-62.5 -13t-52.5 0.5t-46 9t-34.5 10.5t-17 7
q-6 3 -29 13t-65 17q-54 9 -90 28t-58 39t-32.5 39t-13.5 28q-14 54 -12 94t10 66q10 31 26 53q6 18 16.5 33.5t21.5 28.5t20.5 21.5t14.5 13.5q-1 4 -1 11l31 28q-14 6 -25.5 14t-19.5 15q-10 8 -18 16q-47 35 -85 75q-16 17 -32 36.5t-29 40.5t-21.5 42.5t-10.5 43.5
q-3 43 10.5 74.5t32 52t35.5 31.5t22 13q3 1 13.5 5t22.5 8.5l24 9t19 7.5l-2 3v10l55 22q4 -5 9 -12q6 2 20.5 5.5t36 6.5t50.5 3.5t65 -4.5q42 -6 78.5 -26.5t65 -44t46.5 -43.5t23 -25q5 -6 13.5 -16.5t18 -21.5t18 -21t14.5 -14q3 -3 17 -15.5t33 -32.5t41 -46
t41.5 -56.5t34.5 -64.5t21 -69l19 20q3 4 7 8q8 8 12 11q15 9 36 7t44 -9.5t46 -19.5t41 -22q37 -21 48.5 -43.5t14.5 -43.5zM820 422q-22 41 -44.5 73t-42.5 54q-23 26 -45 45q40 -55 54.5 -95.5t17.5 -55.5l25 5h7q7 0 10 -5q2 -5 3 -9t1 -5q0 -4 -16 -15l-13 -7l34 5
l6 -2q2 -2 5 -3.5t5 -4.5q-2 7 -3.5 12t-3.5 8zM486 329h-28q13 -8 26 -20t25 -26t22 -27.5t16 -22.5q28 -42 62.5 -66t60.5 -36q4 7 8 19.5t8 27t8 29.5t8 28q4 11 7.5 26.5t6.5 31.5t5 31t4 25h-20t-36 -5q-11 -3 -31.5 -5.5t-42 -5t-40.5 -3.5t-26 -1h-43zM487 399
q0 -1 5 -3q5 0 5 1t-5 3t-5 -1zM502 362q0 -2 3 -2q2 0 3 1l-1 1q-1 0 -2 1q-3 0 -3 -1zM99 707q-1 -2 2 -7.5t6.5 -11.5t7 -10.5t3.5 -5.5t1 -1h2l12 16l-8 14q-3 5 -5.5 10.5t-3.5 7.5q-2 3 -6 -1l-2.5 -2.5l-3.5 -3.5zM184 410q26 -18 50 -25.5t41 -9.5q20 -3 37 1
q8 8 16 14q7 5 13 10.5t9 7.5q2 2 5 1.5t5 -0.5q3 -1 4 -1q2 -1 4 -3t2.5 -3t1.5 -2l2 -2v-2q36 20 66.5 24.5t44.5 6.5q7 1 21 2.5t31.5 4t37 6t37.5 6.5q28 6 52 7.5t36 2.5q2 1 3 2t3 2t6 1q-13 33 -29 58.5t-31 45t-27 32.5t-18 19t-21.5 23.5t-35 37t-39.5 36.5t-36 23
q-44 17 -75.5 25.5t-55 10.5t-40 -0.5t-31.5 -6.5q3 -11 3 -13q2 -7 -6.5 -9t-10.5 -4q-1 0 -7 -2.5t-13 -5.5t-12.5 -5t-6.5 -2q-2 2 -9 16q-11 -7 -19 -13.5t-13 -11.5q-6 -6 -11 -13q0 -2 -5 -7q-3 -2 -5 -4q-3 -6 -7 -12q-3 -5 -7.5 -11t-8.5 -11q-5 -5 -9 -6.5t-7 -1.5
q-4 0 -7 2l-26 40q-16 -24 -20 -48.5t0 -49t14.5 -47.5t23.5 -43q31 -48 80 -93zM226 271l2 4l-1 2zM154 193q-10 -71 4.5 -116.5t37.5 -72.5t47 -39t35 -15q-2 2 -13.5 15.5t-26 36t-29 51.5t-23.5 63q-6 23 -0.5 51.5t19.5 51.5l9 30q-13 -7 -24 -16.5t-19 -18.5
q-10 -11 -17 -21zM374 -36q15 -5 37 -6.5t46.5 1t50 11t46.5 23.5q36 26 55 48t24 30q-31 13 -51.5 27t-32.5 26.5t-17.5 21.5t-6.5 11q-2 2 -7 10.5t-14.5 21t-22.5 27.5t-29 30q-17 14 -35 25.5t-33 19.5q-18 9 -35 16h-2l-23 -12q1 -7 0 -13q-1 -5 -2.5 -9.5t-5.5 -6.5
l-44 -27q-5 -2 -9 -2q-10 0 -17 5l-22 -25q-1 -8 -1 -17q0 -8 -0.5 -16t1.5 -16q1 -6 4.5 -20.5t10.5 -34t18 -42t27.5 -43.5t38.5 -38t51 -26zM681 -82q43 28 69.5 57.5t40.5 52.5q-29 5 -58 12t-57 16q-5 -8 -18.5 -27.5t-40.5 -43.5t-68 -48.5t-100 -43.5
q15 -11 39 -17.5t54 -5t65.5 12.5t73.5 35zM841 310q0 12 -3.5 37.5t-8.5 47.5q-2 -4 -2 -5q-2 -2 -10 -9t-13 -10t-9.5 -1.5t-5.5 2.5t-1 5.5t9 12.5l-19 -3l-2 -6l-5 -11l-4 -15q0 -1 -1 -2t-2 -1l-8 4l-1 -1l9 -3q-3 -32 -9.5 -66t-14.5 -66.5t-16 -59.5t-14 -44
q14 -3 44.5 -9.5t65.5 -13.5q2 12 6.5 36.5t6.5 51.5q0 14 1.5 32.5t2.5 37t2.5 34.5t1.5 25zM930 347q-1 0 -2 -1t0 -6q0 -3 3 -6.5t6 -6.5q4 -4 9 -7l6 11l-2 5q-1 -1 -4 -1q-1 0 -2 1zM1060 183q7 11 9.5 19.5t4.5 15.5q1 8 1 14q-7 -5 -15 -9q-7 -5 -16 -10t-17 -10
q-17 -11 -33 -6.5t-25 9.5q-32 18 -53.5 37t-27.5 24q-1 -69 -7 -114t-12 -68h2q26 -4 47.5 -1.5t36.5 7.5q18 5 31 13q15 15 29 30q12 12 24.5 25.5t20.5 23.5z" />
    <glyph glyph-name="dotaccent" unicode="&#x2d9;" horiz-adv-x="904" 
 />
    <glyph glyph-name="asterisk" unicode="*" horiz-adv-x="853" 
d="M874 962q25 -10 22.5 -25.5t-15 -33t-25.5 -35t-9 -32.5q1 -3 4.5 -7l7 -8t6.5 -7.5t3 -5.5q-2 -5 -9.5 -10.5t-9.5 -11.5q-5 -14 -7 -23.5t-18 -10.5q-20 -2 -39 -3.5t-38 -3.5q-50 -5 -98.5 -9.5t-97.5 -9.5q7 -2 20 -4t25.5 -5.5t22 -10t10.5 -16.5q1 -8 -6 -13
t-12 -8q-3 -2 -2.5 -9t0.5 -10q-2 -29 -3.5 -59.5t-17.5 -56.5q-9 -15 -19 -27t-17 -28q34 -5 67.5 -9.5t67.5 -9.5l66 -9q14 -2 17.5 -5.5t4.5 -17.5q0 -8 0.5 -12.5t1.5 -7.5t3 -6t5 -9q3 -8 3 -16t-0.5 -16.5t-0.5 -17.5q0 -162 -3 -324q0 -9 1 -19.5t0.5 -20.5
t-3.5 -18.5t-11 -14.5q-5 -4 -5 -10t0.5 -13t-1 -13.5t-9.5 -10.5q-28 -13 -55.5 -25.5t-55.5 -24.5q-23 -10 -48 -23t-52 -23t-54 -15t-52 1q-64 16 -128.5 28t-128.5 26l-56 12t-56 13q-10 2 -12 8t-2 12.5t-1 12.5t-10 8t-12 12.5t-3.5 23t0 25.5t0.5 20q-1 27 -1.5 61
t-1.5 69.5t-2 69.5t-2 61t-1 44v19q1 6 0.5 12.5t-1.5 13.5q0 8 6.5 13.5t5.5 7.5v39q0 8 14 14.5t31.5 11.5t33.5 8.5t22 5.5q32 9 62.5 18.5t61.5 18.5q-9 19 -23 33t-23 33q-8 16 -9.5 34t-3.5 35q0 2 -0.5 9.5t-0.5 15t-1 14t-3 6.5q-10 3 -18 12t-1 20q6 9 18.5 15
t26.5 9t28.5 4.5t23.5 3.5q43 6 83 9q-1 8 6.5 10t13.5 1q2 5 9 10.5t2 14.5q-3 5 -5.5 7.5t-3 4t1.5 4t8 7.5q3 3 5 8.5t4 9.5t6 6t12 -2t8.5 -12.5t8.5 -13.5q5 -4 3 -11t-4 -13.5t-1 -11.5t12 -4q13 1 25 2l24 2q72 6 142.5 11.5t142.5 11.5q-2 9 -5.5 16.5t-11.5 12.5
t-2.5 9.5t8.5 8.5q15 17 6.5 34.5t-21.5 29.5l-12.5 12.5t-11 13.5t-6.5 15t3 17q7 14 21.5 20t28.5 9q11 2 23 6.5t23 1.5q14 -5 28 -8t28 -8z" />
    <glyph glyph-name="fi" unicode="&#xfb01;" horiz-adv-x="935" 
 />
    <glyph glyph-name="J" unicode="J" horiz-adv-x="999" 
d="M977 450q10 -29 3 -64t-22 -68.5t-34.5 -63.5t-34.5 -49q-16 -20 -25.5 -32.5t-15.5 -20.5q-7 -10 -11 -15q-1 -3 -2 -5l-2 -6l-3 -4q1 -2 1 -3v-4l-3 -3t-4 -5l-6 -8h-3l-5 -6h-3h-3q-9 -9 -17 -20q-7 -10 -13.5 -23t-9.5 -30q-2 -6 -0.5 -18t5.5 -13h1q1 0 2 1q2 0 5 2
t7 2t12 -3.5t8 -14.5q0 -10 -7 -14.5t-8 -4.5l-3 -2l-11 -4h-3q-3 0 -3 1q-3 0 -7 1q-8 2 -10 5q-2 4 -8 13t-9 21q-3 -8 -6 -13.5t-5 -9.5q-3 -4 -4 -7q4 -12 2 -19q-1 -4 -3 -6q0 -8 -4 -16q-2 -4 -4 -6q-1 -7 -6 -10q-3 -2 -6 -2v-6q0 -2 -4 -10l-4 -8q1 -23 4 -38.5
t7.5 -25.5t9 -16t8.5 -10q14 -8 14 -18q-1 -5 -3 -11t-9 -6q-7 -1 -15 5q-4 3 -7 6q0 1 -1 3l-1.5 3l-1.5 3q-6 8 -13.5 23t-15.5 30q-9 18 -18 37q-3 2 -4.5 6t-2.5 7q-1 4 0 7q-38 -21 -76 -27t-68.5 -4.5t-50 7t-20.5 5.5q-3 0 -3 -1v-1q-1 -11 -7 -22q-3 -5 -6 -9
q-2 -6 -5.5 -17.5t-8 -24.5t-9 -25.5t-8.5 -20.5t-8 -12.5t-9 -6.5q-5 -3 -11 -4q-4 0 -7 2q-6 4 -6 14t6 18q3 4 6 6q5 6 8.5 18.5t5 25.5t2 23.5t-0.5 12.5q-2 4 -2 7q-1 2 -1 4l-1 4q0 5 -2.5 7.5l-5.5 5.5q-6 7 -6 12q-1 3 -1.5 3.5t-1.5 2.5q-1 1 -2 1h-1q0 -2 -1 -3
q-2 -3 -7 -3q-8 0 -8 3q-1 1 -1 2h-1q-1 -2 -1 -1q-1 0 -2 9q-2 10 3.5 12.5t6.5 3.5v4q0 1 -1 2q-4 2 -4 5q-1 1 0 2l1 9q-4 3 -9 10.5t-9 15.5t-7.5 14.5t-4.5 7.5q-2 3 -4 2t-2 -2q-1 -1 -1 -2t-1 -1q-36 25 -57.5 57t-33 62t-15.5 53.5t-5 30.5q-3 17 -6 26q-2 6 -4 11
q-3 4 -1 9q1 2 3 3q-1 2 -0.5 3.5t0.5 3.5t1 4q-4 38 -9.5 67t-12.5 53.5t-16.5 46t-21.5 44.5t-28.5 37t-32.5 21.5t-27.5 10.5t-13.5 3q-5 2 -10 2.5t-6 4.5t3.5 5t6.5 1q1 0 8 0.5t15 1.5q10 1 22 3q1 8 5 11.5t9 3.5q4 0 9 -5l4 -4q25 -11 44 -29t32.5 -38t22.5 -39.5
t15 -34.5q7 -15 14 -38.5t13 -47t10.5 -43t6.5 -25.5q4 -10 6 -20q1 -5 1 -10q11 -36 21.5 -46.5t24.5 -12.5q12 -1 17 6q3 3 3 7q3 24 9 53q5 25 14 57.5t23 70.5q11 29 11.5 63t-3.5 63.5t-9.5 49.5t-6.5 20q-3 1 -5 2q-5 1 -6 3q-1 1 -1 3v1q-3 1 -3 8q0 2 5.5 5.5
t7.5 4.5q1 0 11 5.5t23.5 15.5t28 23t24.5 30t17 27t12 15.5t8.5 8t6.5 4.5q5 3 12.5 3.5t10.5 0.5l3 3l2 2h1q1 0 1 3q-2 1 1 4q1 1 2 1v3v1q-2 0 -2 3q0 1 1 3q-3 0 -3 2v2q-2 1 -5.5 4.5l-5.5 5.5q-7 8 -5 14.5t3 10.5t4 12.5t4 16.5q1 7 -0.5 11.5t-3.5 6.5q-2 3 -2 4
t1 1t6 1q8 0 8 6q-1 2 0 3.5t4 0.5q5 -3 9 5q2 4 7 4t6 -4q4 -7 8 -5q4 1 4 -4q-2 -6 6 -6q5 -1 5.5 -1t0.5 -1t-1 -4q-2 -2 -3.5 -6.5t-0.5 -11.5q1 -8 3.5 -16.5t3.5 -12.5t2.5 -10.5t-3.5 -14.5q-2 -2 -5 -5.5t-5 -4.5v-2q0 -2 -3 -2q1 -2 1 -3q0 -3 -1 -3v-1v-3l1 -1
q1 -1 1 -4q-1 -1 0 -2v-1h1q2 -1 3 -2t1.5 -2t1.5 -2h-1q8 0 11 -1q13 -3 29 -22q3 -5 9.5 -14.5t13.5 -20t12.5 -19.5t7.5 -12q2 -2 5.5 -6.5t11 -11t20 -14.5t32.5 -18q3 -1 7 -3q1 0 2 -2t0 -4q0 -2 -3 -6.5t-12 -7.5q-1 -1 -1 -2q-1 -1 -1 -3q-1 -2 -6.5 -22.5
t-13.5 -69.5q-2 -13 -2 -21v-13q0 -6 2.5 -10.5t4.5 -6.5h1v3h4q1 -1 12 -1.5t15 0.5q5 2 10.5 5t7.5 11q0 5 0.5 9.5t0.5 8.5v9v2q0 1 -0.5 1t-0.5 1q-1 0 -1 1l-1 1l4 11l11 22l3 2l1 3l3 1l8 10l2 4q2 5 4 5q0 2 1 4q2 5 5 5q1 0 1 1q0 2 1 2l9 5l2 4l4 6h3l2 3l1 9v1v2
l5 10h2q2 0 2.5 1.5t1.5 2.5q1 2 1.5 5.5t2.5 5.5t5 3.5t9 -0.5q2 -2 3.5 -1.5t2.5 0.5q2 1 6 6.5t14 5.5q9 0 15.5 -7t4.5 -17q0 -4 3 -6q1 -1 7.5 -4.5t14.5 -8.5q9 -5 21 -11l2 -2q1 -1 4 -1q2 0 3 1q1 0 2 1q7 -3 16 -14q8 -9 16.5 -27t18.5 -47zM870 252q1 2 10 16.5
t19 36.5t18 47.5t8 49.5q0 47 -21.5 72.5t-52.5 25.5q-16 0 -26.5 -4t-17.5 -9q-8 -6 -14 -13q0 -1 1 -2q2 -2 2 -4q-1 -2 -1 -3t-1 -2t-1 -2v-1v-3q-1 -1 -3 -4t-4 -7q-3 -4 -6 -11q0 -1 -1 -2t-2 -1h-2q-1 0 -1 -1v-18q0 -1 1 -1h3q2 -1 5.5 -3t4.5 -4q2 -5 5 -5h6t7 -4
q2 -1 4 -3t3 -5.5t1 -9.5q0 -3 -1 -7q-2 -7 -9 -11q-1 -2 -4 -4q-5 -3 -16 -3q-2 1 -3 1q-3 0 -3 1q-2 0 -4 1q-4 2 -4 3q-2 0 -4 1l-5 2q-3 0 -5 1q-4 1 -6 5q-1 2 -7.5 2.5t-15.5 -4.5q-6 -3 -10 -7q-4 -3 -8 -6.5t-7 -6.5q0 -1 -1 -2q-2 -2 -3 -2l1 -1h-1h-3h-1
q-6 -4 -1 -25q27 -72 38 -136t14 -102h2l22 40q0 1 1 3q0 4 2 4v3q0 3 2 3v4l11 17h2q1 0 1.5 0.5t2.5 0.5l8 6h1h3q18 25 32 45q12 17 22.5 31.5t12.5 16.5z" />
    <glyph glyph-name="E" unicode="E" horiz-adv-x="823" 
d="M804 134q1 -2 1 -4q0 -4 -2 -4q-7 0 -9 6h-12q2 -14 3.5 -30.5t0.5 -33.5q-2 -57 -18.5 -93t-39.5 -42l-29 -5q-9 -1 -18.5 9.5t-17 29.5t-12 44.5t-3.5 54.5v4l-20 2q-1 -2 -4 -9t-8 -7q-3 0 -5 6.5t-4 12.5l-86 9l1 -2q0 -5 -1 -7t-2 -3q1 -14 -2.5 -23t-8.5 -15
q-5 -7 -13 -12l-27 1q-5 2 -8 5.5t-5 6.5q-3 4 -4 7l-6 1l-1 -5l-51 -15l-23 -14q-11 -2 -17.5 0t-10.5 4q-4 3 -6 7l-11 3q-7 -17 -21 -28t-31 -10t-30 11.5t-19 27.5l-15 1q1 -25 -3 -52q-8 -66 -31 -108.5t-50 -44.5h-29q-23 2 -38.5 16.5t-25 38t-12 54t1.5 63.5
q7 51 28.5 89t49.5 52l1 4h-3q-2 0 -2 2q0 1 2 1h3v4h-3q-2 0 -2 1l2 2h3v3l-3 1q-1 0 -1 1q0 2 1 2h3v3h-2q-2 0 -2 2t2 2h2v3h-2q-2 0 -2 2t2 2h2v3h-2q-2 0 -2 2t2 2l3 -1v4h-3q-2 0 -2 2q0 1 2 1h3v4h-3q-1 0 -1 2q0 1 1 1h3v2q-7 5 -14 5l22 11l1 24q1 1 2 3q1 3 7 4
q-1 10 2 21q2 9 7.5 19t18.5 18q-1 5 -1.5 11t-0.5 13q0 4 0.5 8t1.5 9h-9q1 55 3 99q0 19 0.5 37t1 33t1 24.5t0.5 11.5q0 5 0.5 9.5t1.5 9.5q1 2 1 4t1 4q0 2 1 3v1l15 45q-25 13 -25 42q1 17 11.5 29t26.5 15q2 5 5.5 10t10.5 9q2 9 4 17.5t4 15.5v4q0 11 -7 19
q-2 1 -4 3l-59 -4q-5 -19 -15 -19l-26 9q-10 3 -10 21v1l-89 2q-2 0 -3.5 3.5t-1.5 8.5t2 9t4 3l88 -2q3 7 8 9q3 6 8 6l25 -1q5 0 8.5 -6.5t3.5 -16.5l32 -2q11 0 19.5 -3t14.5 -8v15q-1 0 -2 1t-1 5q0 3 1 6.5t3 3.5l111 -3h2q2 -2 4 -5q1 -3 3.5 -9t4.5 -11q10 3 22 3h11
q2 11 8 9q5 0 7 -8q1 1 3 1l86 -2q3 0 4.5 -3.5t1.5 -8.5q0 -12 -6 -12l-86 2q-1 0 -3 2q-4 -9 -8 -9q-7 2 -9 15l-9 1q-12 0 -23.5 -5t-20.5 -13l-4 -4l-4 -4q1 -5 1.5 -11.5t0.5 -14.5q-1 -22 -11.5 -49.5t-41.5 -57.5l-19 -59l-2 -10q-1 -5 -1.5 -9.5t-0.5 -7.5l-3 -106
q-1 -19 -1.5 -36.5t-0.5 -31.5q-1 -17 -1 -31h-9v-18l10 -16l22 -10l24 -26l79 4l9 5v6l-4 5v7h26l20 21h2l2 76q-60 2 -103 12.5t-66 27.5q5 6 9 10l7.5 7.5t5.5 4.5t11 3.5t19.5 5.5t19 6t9.5 3q3 1 10.5 6t9.5 9q1 2 6 17.5t11.5 41.5t14.5 60.5t16 73.5q2 10 6 20
q3 8 6 15.5t8 12.5q9 8 23.5 12.5t46.5 3.5q17 -1 40 -1t45 -1l52 -2q6 0 11 -2q10 -3 17 -15q3 -6 4 -15.5t1 -18.5q0 -11 -1 -21l11 -200q1 -7 0 -11q-2 -10 -6 -13q-7 -3 -20 -5q-7 -1 -15 -2l-25 -13l-36 1q-10 -7 -23 -12q-11 -5 -27.5 -10t-36.5 -8v-14h7
q12 0 20 -7.5t8 -17.5q0 -11 -8.5 -18t-20.5 -6q-5 0 -8 1v-19q4 -2 16.5 -17.5t14.5 -45.5l4 -9q0 -6 1 -10q2 -10 2 -12q7 -1 11 -4q4 -2 7 -6t3 -9l10 -18l101 -10q10 18 22 32q11 12 26 22t35 10q19 -1 34.5 -6t27.5 -16t20 -30t13 -47zM170 788h-5l-31 2q0 -3 -1 -5z
M242 682q-5 14 -6.5 27t-1.5 17q-7 -6 -9.5 -15.5t-3.5 -17.5l6 -3q3 -4 7.5 -9t7.5 -5v6zM289 749q-7 -9 -9 -16l-29 -89q23 26 30.5 48.5t8.5 39.5q0 5 -0.5 9t-0.5 8zM259 745q-2 -3 -5.5 -6.5t-8.5 -6.5l-6 -6v-6q1 -2 1.5 -6t1.5 -9q1 -4 1.5 -8t1.5 -8l6 -1l16 49
q1 2 1.5 3.5t1.5 3.5zM252 741q1 1 1.5 2t1.5 2h-2zM214 746q-2 -10 -5.5 -21.5t-6.5 -23.5q8 -3 13 -7h3q1 10 5 22t16 17l7 8l1 4zM195 569q1 -5 1 -10.5v-11.5q-1 -11 -2.5 -22.5t-4.5 -23.5q-10 -37 -12 -82v-5h28l3 125q0 5 0.5 9.5t1.5 9.5q1 2 1 4.5t1 4.5q0 2 1 3
l8 25q-5 0 -7 -1q-5 -7 -10 -13t-9 -12zM204 392v10h-3v-10h3zM190 362l-1 -16h14v16h-13zM177 402v-9h10v9h-10zM174 419q0 23 3.5 43.5t8.5 39.5q6 22 6 45v17q-14 -22 -18.5 -40.5t-5.5 -34.5q-1 -14 1 -24.5t3 -17.5q1 -4 1 -8v-8t-0.5 -8t-0.5 -9h1q0 4 1 5zM174 402
h-4q-1 -3 -1 -6.5t-1 -6.5h4l1 4h1v9zM192 717q-6 -5 -10 -13h6h1q1 3 1.5 6.5t1.5 6.5zM159 540q0 -2 -0.5 -8.5t-0.5 -17.5h4q3 14 9.5 30.5t19.5 33.5q-1 4 -1 6.5t-1 5.5q-4 11 -13 19l-13 -41l-2 -10q-1 -5 -1.5 -9.5t-0.5 -8.5zM164 446l-1 -31q1 4 1 8v8v15zM155 389
h4q2 8 2 12h-6v-12zM128 174h4l-2 3h-2v-3zM107 -108q18 12 30 37l-44 1q4 -20 14 -38zM149 27q-5 29 -17 49q-8 -6 -13 -11l-1 -38h31zM134 134q8 5 16 7l-16 30q-1 -1 -2 -1h-4v-3h4q2 0 2 -2t-2 -2h-4v-3h4q2 0 2 -2t-2 -2l-4 1v-4h4q2 0 2 -2q-1 -1 -2 -1h-5v-4h5
q1 0 1 -2q0 -1 -1 -1h-5v-3h10zM154 365q0 3 2 7h-2v-7zM178 355q0 5 -1 8h-11v9h-2q-1 -9 -5 -20q-4 -17 -4 -33v-12l16 9l1 31l6 -1v9zM186 124q15 -22 21 -62l1 58l-18 1zM209 50h-1v-5zM257 141l1 1zM443 389q-8 -1 -15.5 -1.5t-15.5 -0.5l-2 -75l31 -1l1 27q-6 6 -6 15
q2 10 7 15v21zM440 517q-1 -18 11 -31t50 -14q28 -1 47 6t20 35q1 25 -17.5 35t-47.5 11q-32 1 -47 -11.5t-16 -30.5zM529 124l-2 2q-1 1 -3 2t-3.5 2t-2.5 1l-31 1l3 -9q3 -1 7 -3q3 -2 6.5 -3.5t5.5 -2.5q3 -2 7 -10q2 -4 3 -7l4 -1v11q0 2 2 4l4 5v8zM606 101h-2
q-2 1 -4 3q-3 3 -3 8v5l-56 6v-9q0 -2 -2 -4l-4 -5v-10l71 -7v13zM649 83q0 5 0.5 8.5t0.5 8.5h-3v-5h-12v-11z" />
    <glyph glyph-name="ring" unicode="&#x2da;" horiz-adv-x="658" 
 />
    <glyph glyph-name="daggerdbl" unicode="&#x2021;" horiz-adv-x="908" 
 />
    <glyph glyph-name="W" unicode="W" horiz-adv-x="1270" 
d="M1414 371q0 -2 -2 -4q-1 -2 -1 -3l-344 33q0 -8 0.5 -14.5t0.5 -14.5q0 -96 -36.5 -181t-100 -148t-148.5 -99.5t-181 -36.5q-83 0 -157 27.5t-134 75.5t-102 114t-60 143l-336 -100q-5 4 -7.5 13t-4.5 17q-2 10 -3 21q42 11 96 26q46 13 109 30t138 38q-2 15 -3 30
t-1 30q0 59 14 115l-275 26q-3 6 -2.5 15t2.5 18q2 10 5 21q35 -5 79 -10q38 -5 90 -10.5t115 -13.5q25 67 68 123t100 96.5t125.5 63t143.5 22.5q72 0 138 -21t121.5 -58.5t98.5 -89.5t70 -114q66 18 120.5 33t94 25.5t61.5 16.5l22 6q2 0 3.5 -2.5t2.5 -4.5v-5v-3
l-295 -88q10 -26 16 -52.5t10 -54.5q75 -9 138 -17t110 -13q54 -6 98 -11q2 -1 2.5 -4.5t0.5 -5.5zM922 439q-6 27 -15 50l-57 -17q2 -6 4.5 -12.5t4.5 -12.5q16 -2 31.5 -4t31.5 -4zM602 696q-48 0 -92.5 -13.5t-83 -37.5t-68.5 -58t-50 -75q16 -2 31.5 -3.5t31.5 -3.5
q9 14 19 27.5t22 25.5q37 37 85.5 58t104.5 21t104.5 -21t85.5 -58q14 -13 25 -28t20 -32q15 5 29.5 8.5t28.5 7.5q-20 40 -50 73.5t-68 57.5t-82.5 37.5t-92.5 13.5zM275 368v-11t1 -12q14 4 28.5 7.5t29.5 8.5v7q0 51 17 96l-60 6q-8 -24 -12 -49.5t-4 -52.5zM602 41
q68 0 127.5 26t104 70t70.5 103.5t26 127.5q0 21 -3 42l-60 6q2 -12 3 -23.5t1 -24.5q0 -56 -21 -104.5t-58 -84.5q-37 -37 -85.5 -58t-104.5 -21t-104.5 21t-85.5 58q-28 28 -47 63.5t-27 76.5l-56 -17q11 -56 40.5 -103.5t71.5 -82.5t95.5 -55t112.5 -20z" />
    <glyph glyph-name="fl" unicode="&#xfb02;" horiz-adv-x="937" 
 />
    <glyph glyph-name="quotedblbase" unicode="&#x201e;" horiz-adv-x="1030" 
 />
    <glyph glyph-name="percent" unicode="%" horiz-adv-x="1216" 
d="M1209 264q8 -14 -4 -21.5t-31.5 -11.5t-39 -5t-26.5 -2q-39 -6 -78.5 -12t-78.5 -11q-39 -6 -79 -9.5t-78 -12.5q8 -11 17 -16.5t19.5 -8.5t22 -4.5t23.5 -3.5l22.5 -4.5t20.5 -9.5q12 -9 12.5 -20t1.5 -25q0 -12 -5 -22t-12.5 -19t-15.5 -17.5t-15 -16.5
q-19 -22 -37 -43t-37 -42l-72 -84q-8 -10 -15 -18.5t-15.5 -14t-18.5 -7t-24 3.5q-9 3 -21 6.5t-19 11.5q-8 9 -6.5 23t1.5 25q1 10 -4.5 20t-14 18t-19 14.5t-19.5 9.5q-48 19 -95 40.5t-98 29.5q-21 3 -45 -4.5t-47.5 -13.5t-46 -5t-40.5 21q-7 7 -8.5 18t0 22t6 21
t10.5 16q20 20 42 38t42 36q6 5 17.5 13.5t23.5 18t20 19t7 16.5q-2 9 -2 19t-5 18q-8 11 -20 20t-23 17q-41 33 -75.5 73t-66.5 82.5t-63.5 85.5t-66.5 82q-3 3 -11.5 11t-14 16t-4 14t17.5 6q27 -1 54.5 -4.5t53.5 -6.5q28 -3 55 -6.5t55 -7.5q12 -2 24.5 -3t25.5 -3
q3 -1 10.5 -3t10.5 0q3 1 3 6.5t5 7.5q44 11 91.5 16.5t92.5 7.5q10 0 18 2t15 2t13 -4t11 -15q11 -22 12 -45.5t1 -47.5q50 -16 98.5 -31.5t98.5 -32.5q14 52 27.5 104t27.5 104q4 18 8 18.5t7 -7t5 -20t3 -19.5q4 -24 6.5 -48.5t5.5 -49.5q3 -28 6 -55.5t7 -56.5
q1 -8 14.5 -11t20.5 -7q8 -5 7.5 -12.5t-0.5 -15.5q-2 -17 -3 -25t15 -13q26 -11 56 -22l50 -18t50 -20q32 -13 67 -29q4 -2 13.5 -5t19.5 -7t18.5 -8.5t11.5 -9.5z" />
    <glyph glyph-name="plus" unicode="+" horiz-adv-x="1229" 
d="M1189 150q0 -2 -1 -3q-2 -3 -3 -3q1 0 2 -1q2 -2 2 -3v-38q-1 -2 -2 -3q-1 -3 -4 -4q-1 0 -13 -3.5t-30.5 -8.5t-42.5 -11.5t-49 -13.5q-58 -16 -132 -37q0 -1 -1 -1t-1.5 -0.5t-2.5 0.5q-1 0 -19 2t-47.5 4.5t-68 6.5t-79.5 8t-81.5 8t-75.5 8q12 -5 22 -8.5t18 -5.5
q9 -3 16 -5q0 -1 1 -1l2 -2q0 -1 0.5 -2.5t0.5 -3.5q0 -3 1 -5q0 -2 -1 -3q-1 -3 -5 -5l-5 -29l22 -2l22 -2q4 0 8 -0.5t8 -0.5q13 10 31 18.5t41.5 11.5t51.5 0t63 -16q6 1 11 -1q11 -4 19 -13q10 -1 19.5 -2t19.5 -3q11 -2 22 -5.5t21 -9.5q8 -5 14 -12q2 -3 3.5 -7
t1.5 -8q-1 -9 -9 -10t-15 0q-12 2 -24 4.5t-23 5.5q-1 0 -1 0.5t-1 0.5q-3 -11 -5 -16.5t-4 -7.5q-2 -3 -3 -3q-52 0 -95 -1q-18 0 -36 -0.5t-33 -1t-25.5 -0.5h-13.5q-6 0 -17.5 0.5t-23.5 2.5t-22 5.5t-13 9.5q3 7 8 16q5 7 11.5 16t17.5 18q-14 2 -27 2.5t-26 2.5l-2 -10
q0 -1 -1 -2q-3 -3 -4 -3t-18.5 -2t-45 -5t-62.5 -7t-71 -8q-85 -10 -194 -21q-2 -1 -4 -1q-4 0 -6 2q-1 0 -9.5 7t-22 17.5t-30.5 24.5l-34 28q-41 33 -92 75v8q5 3 14 6q13 4 44 9v3l11 2l3 9l1 1q1 0 1 0.5t2 0.5h19l7 -5l3 9h1q1 0 1.5 0.5t2.5 0.5h6h12l7 -4l4 7h1
q1 0 1.5 0.5t2.5 0.5h19l5 -3l3 6l1 1q1 0 1.5 0.5t1.5 0.5h4t6 1l8 2l2 -1q1 -1 1.5 -1t1.5 -1l1 -1h1l3 8h1l2 1h4t6 1l8 2h2l9 -4l10 -4l4 7l1 1l2 1h3q4 0 6 1l8 2h1l2 -1l2 -1q1 -1 2 -1l2 -4l3 -1l9 1l35 -14v-3h41h2q1 0 2 -0.5t3 -0.5q1 -1 22 -8l51 -17l5 57l2 1
l-1 2l6 65q0 1 2 2l4 2t6 2q4 0 18.5 1t29.5 3q18 2 39 3l8 12l206 17l27 -1l-26 62q-50 1 -99 1.5t-88 1.5q-46 1 -87 1l-7 5q-1 0 -1 1q0 3 1 5q0 1 6 21t16 53t23 74.5t26 85.5q31 102 71 231q1 2 2 3q2 2 5 3q1 0 22.5 5t56 12t78.5 16.5t90 18.5l244 50h1q1 0 1.5 -0.5
t1.5 -0.5l4 -4l2 -2v-2q0 -1 -0.5 -2t-0.5 -2t-5.5 -25.5t-14.5 -64.5t-20.5 -91t-23.5 -104q-28 -124 -63 -281q-1 -3 -2 -5q-2 -5 -5 -5h-4q-1 -1 -2 -1q-1 -1 -5 -1h-43l19 -47q2 -4 4 -9.5t7 -10.5l105 -4l2 -9l101 -3q1 0 3 -1q4 -2 4 -6v-77zM931 -39q-19 7 -43 10
q5 -4 8 -10t1 -17q6 -2 12.5 -3t12.5 -3q8 -2 15.5 -4t15.5 -1h4l2 2v1q0 3 -1 4q-3 8 -11 13t-16 8zM891 254l-27 64q-8 1 -15 1h-15l24 -64z" />
    <glyph glyph-name="perthousand" unicode="&#x2030;" horiz-adv-x="1010" 
 />
    <glyph glyph-name="exclam" unicode="!" horiz-adv-x="935" 
d="M919 361v-2q-1 0 -4.5 1.5t-4.5 1.5l3 -4q1 -2 1 -8q0 -5 -1 -8.5t-3 -6.5q3 -8 3 -17q0 -4 -2 -10q1 -3 1 -9q-2 -9 -4 -14q2 -3 2 -13q0 -4 -2 -8q1 -3 1 -9q-2 -11 -6 -15l-2 -2l-2 -2q1 -1 1 -1.5t1 -1.5l1 -2q3 -8 2 -18q0 -4 -2 -10q1 -4 0 -10q0 -3 -2 -7
q1 -4 0 -8q0 -5 -3 -8v-8q0 -8 -3 -12q1 -2 1.5 -4t1.5 -4q1 -6 0.5 -10t-1.5 -7l-1 -2l-1 -1q2 -8 2 -13q0 -7 -1 -9q0 -2 0.5 -4.5t0.5 -5.5v-2v-2q0 -3 -2 -9q1 -2 1 -8q0 -11 -5 -16q0 -4 1 -6v-2q1 -1 1 -4t-1 -5q0 -2 -4 -4q-1 -1 -3 -1q-3 -1 -7 -1q-1 -1 -1.5 -2
t-2.5 -2q-2 0 -3 -1q-10 -1 -20 4q-2 1 -3 1t-2 1q-2 1 -3 1t-2 1q-2 0 -2.5 0.5t-1.5 0.5q-1 1 -3 1q-4 2 -5 2l-4 2q-9 3 -13 8l-1 -1q-5 -2 -9 -2.5t-7 -0.5h-4q-1 1 -3 1q-2 1 -3 1t-2 1q-6 2 -8 2l-1 1h-3l-7.5 -5t-5.5 -3h-1q-2 -2 -3 -2t-3 -1q-2 -2 -4 -3l-3 -3h-1
q-8 -4 -13 -5q-3 -5 -9 -9q-5 -3 -8 -3q-2 -4 -6 -5q-4 -4 -10 -4q-2 -1 -2.5 -1.5t-2.5 -1.5q-3 -4 -8 -8l-6 -3h-1v-1q-6 -2 -8 -3q-3 -3 -7 -5t-10 -4q-4 -2 -11 -2v-1l-1 -1q-2 -2 -3.5 -4.5t-5.5 -4.5q-2 -1 -3.5 -1.5t-3.5 -1.5q-4 -4 -6 -5q-7 -4 -13 -4h-1
q-3 -6 -9 -11q-2 -1 -6 -1.5t-19 -1.5v-1q-4 -4 -12 -7q-3 -1 -8 -1q-4 -2 -7 -3q-7 -1 -13 0h-1q-2 -2 -4.5 -4t-7.5 -3q-3 -1 -7 -1l1 -1h-2q-2 1 -3 1t-3 1q-5 1 -9 4q-5 -1 -9.5 -1.5t-9.5 0.5h-10.5t-10.5 -1q-6 -1 -13 -1q0 -1 -1 -1q-2 0 -3 2v4q0 1 1 2q-1 2 -1 5v6
q0 1 -2 1q-1 0 -1.5 0.5t-1.5 0.5q-3 0 -5 1q0 -2 -2 -2q-1 -2 -3 -4q-1 -3 -4 -4l-1 -2q-5 -6 -14 -9q-6 -2 -8 -2q-1 -1 -6 -4q-8 -5 -16 -5h-2h-2v-1q0 -2 -0.5 -3t-0.5 -2v-6q-1 -1 -1 -2q-4 -9 -12 -14q-3 -2 -7 -2.5t-6 -1.5l-1 1q-4 -9 -12 -14l-9 -3l-4 -2t-5 -2
q-7 -1 -13 0q-6 3 -8 7q0 1 -0.5 1.5t-0.5 1.5q0 2 -1 4l-2 2l-4 4q0 1 -0.5 1t-0.5 1q-2 3 -4 6.5t-2 9.5q-2 5 0 8q-2 6 -2 8q0 1 -0.5 1.5t-0.5 1.5q-1 2 -2 5t-1 7v8q-1 2 -1 4t-1 4q-1 8 1 16l1 2q0 1 0.5 1.5t0.5 1.5l-1 1t-1.5 1t-1.5 1q-2 2 -4 3t-2.5 1.5t-2.5 1.5
l-2 1q-2 2 -4 3.5t-4 3.5q-4 2 -5 4q-1 1 -8 6t-15.5 11.5t-15.5 12.5t-8 9q0 5 4 9l-3 3q-8 2 -16 8q-3 3 -5 7q-4 2 -7 5q-5 4 -6 9q-2 0 -2 2q-5 3 -6 7q0 -1 1 -1l-2 2l1 -1q-4 2 -7 5q-5 6 -6 10q-5 5 -10 11l-10 12q-1 2 -5 6l-3 6q-1 1 -1.5 2t-1.5 2q0 1 -2 3
q-3 2 -6 3.5t-6 6.5q-2 2 -3 4l-2 4q-4 4 -5 7q-3 4 -4 7.5t-2 7.5q-1 0 -1.5 0.5t-1.5 0.5q-4 2 -5 2l-2 2q-7 3 -11 13q-2 2 -2 4l-3 6q-4 9 -2 18v1q-4 3 -5 8q-2 2 -2 4.5t-1 4.5t-2 3.5t-2 4.5q-4 9 -2 17l1 1q-6 6 -7 12h-2q0 -1 -1 -1q-1 -1 -2 -1t-2 0.5t-3 6.5
t-3.5 18t-2.5 18t-3 17t-1 13h2q0 6 3 11q0 1 1 2l2 2q-2 6 2 10q-1 2 -1 5q0 7 3 9v4q0 5 4 6v2q0 3 1 4v1q1 0 1 2q1 2 5 6q6 69 31.5 130.5t66.5 111.5t95.5 86.5t118.5 54.5l1 3q-1 0 -1 1q-1 0 -1 2q-2 1 -3 2q-2 2 -1 5q-1 1 -1 3q0 4 3 5l2 2q2 2 5 2q2 0 4 1t7 1
q1 1 4 3q2 1 4.5 2t5.5 0q3 -2 7 0h3h1q1 0 3 1q2 0 3 0.5t3 -0.5l2 1l3 17h3l2 1q17 0 31 1q12 0 23 0.5t13 -0.5v-2v-3q-1 -2 -3.5 -6t-2.5 -6q1 0 3 -1q1 -1 2 -1.5t2 -1.5h4q4 0 10 -3q5 -5 8.5 -8t8.5 -3v-1q0 -1 1 -2q76 -7 142.5 -38t118.5 -80t86 -114t45 -139l2 -4
q0 -1 1 -2q1 0 2 -1q0 -1 1 -1q1 1 2 1h4q1 0 2 -4.5t2.5 -10t3 -10.5t1.5 -6q0 -4 0.5 -16t0.5 -15v-6zM253 356q2 -4 2 -5t1 -2q1 0 1.5 0.5t1.5 0.5q1 -1 4 -1h2q3 -1 6.5 -2t6.5 -3q4 -3 6 -6q3 0 7 -2q0 -1 2 -1q1 0 2 -1q5 8 13 11l2 1q1 0 5 2q2 0 4 2q1 1 1.5 1
t1.5 1q1 0 1 0.5t1 0.5q-2 4 -3 5q-2 4 -2 5q-1 1 -1 1.5t-1 1.5l-1 2q-2 2 -3 4.5t-1 7.5q-1 3 -0.5 5t0.5 4q-1 3 -1 10q-1 8 3 14l1 2q-1 2 -1 9q1 10 6 16l1 2q1 2 2 2.5t2 1.5l2 2l-2 2q-1 1 -1.5 2t-1.5 2l-1 2q-4 8 -3 16q0 3 0.5 5t0.5 4v8q0 3 2 7q-2 3 0 8
q0 3 2 9q-2 3 0 9q1 10 6 16l2 2q2 2 3 2q-2 2 -2 3l-1 2q-38 -29 -60 -72t-23 -94l3 -3v-6v-6.5t1 -7.5q0 -1 0.5 -1t0.5 -1zM413 -58q1 1 1.5 1t1.5 1q-77 9 -146 44l1 -1q3 -4 5 -8q4 -7 2 -16q0 -1 -1 -2q0 -2 -1 -4q2 -2 3 -4.5t3 -4.5q3 -10 2 -16q0 -1 -0.5 -1
t-0.5 -1q0 -2 -0.5 -2.5t-0.5 -1.5q-2 -2 -2 -4q-1 -1 -1 -2l2 -2l3 -3q0 -1 0.5 -1t0.5 -1q3 -4 5 -13v-8q1 -3 3 -7q1 -2 1 -4h1q8 1 16 -2l2 -1q2 -2 5 -2q2 -2 5 -2q1 0 1.5 -0.5t1.5 -0.5h2q1 2 1 2.5t1 2.5q0 2 0.5 3t0.5 2q1 1 1 3q1 1 1 3q2 6 7 11q3 5 7 6q2 4 5 7
q6 6 17 8q1 0 3 2q1 2 6 7t13 7h3h3h6q1 0 2 -0.5t3 -0.5q0 1 1 1q1 1 1 1.5t1 1.5zM509 161q35 6 66 22.5t54.5 41t39 55.5t20.5 66q-4 1 -3 8q1 8 1 18.5t-0.5 20t-1 16t-0.5 7.5q0 2 0.5 2.5t0.5 1.5q-14 68 -64.5 115t-120.5 58q1 -2 0.5 -3t-8.5 0q-5 1 -16.5 0
t-23.5 -2t-21 -1.5t-10 -0.5q-1 1 -1 4q-39 -9 -75 -32v-8l-3 -9q1 -3 0 -9q0 -2 -2 -8q2 -3 0 -8q0 -7 -4 -13l-2 -2l-2 -2q-1 -3 -4 -4q2 -2 3 -4q1 -1 1 -1.5t1 -1.5q0 -1 1 -2q2 -8 2 -15q-1 -2 -1 -4.5t-1 -4.5q0 -2 0.5 -4t-0.5 -5q0 -4 -1 -5q1 -3 0 -6q0 -6 -1 -8
q0 -2 0.5 -4t-0.5 -5q0 -7 -3 -13l-2 -2l-2 -2q0 -1 -0.5 -1t-0.5 -1l2 -2q3 -3 4 -5l1 -2q2 -4 3 -8t-1 -10l-3 -6t-4 -6q2 -4 3 -8t-1 -10q-1 -2 -2 -4.5t-2 -4.5q0 -5 -3 -9q-5 -6 -9 -9q-7 -3 -11 -2q-1 0 -2 1l-4 2h-3h-5h-3q-4 1 -7.5 2t-8.5 5q-3 2 -5 5q-8 -2 -9 -2
q2 -13 6 -22l1 -3l-3 -2q20 -58 67.5 -97.5t110.5 -49.5l-1 3h12q5 0 10.5 -0.5t8.5 -0.5h9.5t13 0.5t12 1t6.5 0.5zM896 284q1 1 1 2v1q-1 1 -1 1.5t-1 1.5q0 1 -0.5 2t-0.5 2q-13 -68 -46 -127t-81 -106q3 2 6 3t8 1h2h3q5 0 7 -1h6q2 0 3 -1h4q8 -1 13 -6q4 1 9 0
q9 -1 15 -7q1 0 3 -2q1 -1 1 -1.5t1 -1.5q2 -2 3 -4q1 0 1 -1h2q1 1 4 1h3q3 2 7.5 1.5t5.5 -0.5q0 2 2 6q0 2 -0.5 4.5t0.5 4.5q0 3 0.5 5.5t0.5 4.5t-1 2q-3 11 -2 17l1 2q0 2 0.5 3t0.5 3q2 2 2 5q0 1 0.5 1.5t0.5 1.5v2q-1 3 -1.5 5.5t-0.5 6.5q0 6 1 9q-1 2 -1 8v5v5
q0 4 2 10q-1 2 -1 9q2 9 4 13v8l1 3q0 1 2 5q0 2 0.5 2.5t0.5 2.5v1q-2 8 -1 13q0 3 0.5 5t1.5 4q0 2 -0.5 4t0.5 4q0 4 2 10q0 2 -0.5 5t0.5 6q0 3 2 9q-1 3 -1 10q1 7 5 15q0 1 0.5 1t0.5 1z" />
    <glyph glyph-name="dagger" unicode="&#x2020;" horiz-adv-x="1098" 
 />
    <glyph glyph-name="numbersign" unicode="#" horiz-adv-x="1287" 
d="M870 338v-31l296 -349q5 -3 5 -7l3 -3h-3q-2 -5 -10.5 -7.5t-19.5 -2.5q-12 0 -21 3.5t-9 8.5q0 7 16 11l-297 338l-102 -9l59 -160q15 -2 15 -6q0 -2 -7.5 -4t-17.5 -2q-11 0 -18 2t-7 4q0 3 12 5l-67 158l-197 -18l-152 -424q18 -3 18 -13q0 -6 -9.5 -10.5t-23.5 -4.5
t-24 4.5t-10 10.5q0 5 5 8t13 5l144 430l-106 54l-246 -273h-4v-6q13 -2 13 -5q0 -2 -7 -4t-18 -2q-10 0 -17.5 2t-7.5 4q0 4 16 6v5h-12l245 286v29l-62 50l-29 -2l-307 148v17l911 46l538 -101v-18l-266 -21zM397 386l-36 44l-46 -4v-5l44 -39zM676 337l-11 23l-186 -15
l16 -24zM683 456l-266 -22l31 -44l213 18zM1012 482l-292 -23l-23 -53l134 -51z" />
    <glyph glyph-name="Scaron" unicode="&#x160;" horiz-adv-x="916" 
 />
    <glyph glyph-name="F" unicode="F" horiz-adv-x="1057" 
d="M1121 320q4 -2 4 -8q0 -3 -1 -5q-39 -17 -85 -36q-39 -17 -90 -38t-108 -45q2 -8 2 -12q1 -15 -3.5 -29t-11.5 -26.5t-16.5 -24t-19.5 -21.5q-53 -54 -119 -86q-30 -14 -62 -23.5t-64 -15.5q-61 -11 -122 -14t-123 1q-21 2 -41.5 4t-41.5 4q-13 2 -25 3t-26 0
q-29 -1 -57 -3.5t-57 -5.5q-12 -2 -23 -1t-23 6q-18 7 -37 21q-4 2 1.5 2t7.5 -2q11 -8 26 -16t29 -6q5 1 9 1t9 1q-14 5 -23 13q-2 2 4 3.5t8 -0.5q5 -5 13.5 -10t16.5 -3q3 2 7 0q2 0 5 0.5t5 0.5l22 2l22 2v1q-1 11 7 18.5t16 12.5q8 4 13 5v1q0 3 1 4l9 48
q-32 19 -55 43.5t-37 48.5q-16 42 -20 87q-3 38 6 84t44 91q35 44 76.5 68t76.5 35q41 13 82 15q5 18 9 34q4 14 7 26t5 17t5 9t5 7q3 4 6 6q19 14 36 26q14 11 27 21t18 15q9 10 26.5 18t27.5 13q5 2 12 3t15 1q9 0 18 -2q73 -19 132 -34q25 -6 49 -12.5t43.5 -11.5
t31.5 -8.5t14 -3.5q6 -2 8.5 -5t6.5 -18q4 -22 7 -59t5 -74q2 -43 3 -90q4 0 6.5 -4.5t4.5 -9.5q2 -6 3 -13q37 -20 71 -32t60 -19q31 -8 58 -11q11 5 21 9q8 3 16.5 5.5t11.5 1.5zM167 -45q8 6 8.5 14.5t-4.5 16.5q-1 0 -1.5 -0.5t-1.5 -0.5q-9 -5 -18.5 -12.5t-8.5 -18.5
q7 1 13 1h13zM822 135q5 11 8 23.5t1 25.5q-57 -24 -116.5 -48.5t-113.5 -46t-100 -39.5t-76 -29q-35 -13 -68 -16.5t-63 -0.5t-57 12t-50 22q-2 -11 -4.5 -21.5t-4.5 -21.5q-1 -2 -1 -3t-1 -2h1q6 -8 6 -18t-8 -17q5 0 8.5 -0.5t8.5 -0.5q40 -5 80 -8.5t81 -4.5
q66 -1 131 5.5t128 27.5q67 22 124 66q25 19 48.5 42.5t37.5 52.5z" />
    <glyph glyph-name="ellipsis" unicode="&#x2026;" horiz-adv-x="833" 
 />
    <glyph glyph-name="OE" unicode="&#x152;" horiz-adv-x="821" 
 />
    <glyph glyph-name="underscore" unicode="_" horiz-adv-x="1605" 
d="M1579 564q2 -8 6.5 -19t7.5 -22.5t2.5 -21.5t-7.5 -15q-14 -10 -31 -23t-35 -15q-24 -2 -48.5 -4.5t-48.5 -2.5q-32 0 -64.5 4.5t-64.5 -1.5q-42 -8 -78.5 -0.5t-72.5 24.5q-15 6 -20 -4t-5 -26t2 -33.5t1 -25.5q-2 -27 -6 -55t-10 -54q-3 -12 -11.5 -22t-19 -18
t-22.5 -14.5t-22 -11.5q-24 -11 -50.5 -24t-54 -23.5t-55.5 -17t-55 -4.5q-65 5 -123.5 27.5t-116.5 50.5q-8 -27 -28.5 -42.5t-37.5 -35.5q-6 -8 -11.5 -17t-12 -16.5t-14 -12.5t-17.5 -4q-15 1 -33.5 -10.5t-31.5 -17.5q-20 -10 -40.5 -19.5t-40.5 -17.5q-11 -4 -24 -3.5
t-27 3t-27 6t-24 5.5q-23 5 -46 6.5t-46 8.5q-22 6 -36.5 10.5t-37.5 0.5q-5 -1 -14.5 -3.5t-11.5 2.5q-2 9 -2.5 14.5t-10.5 3.5q0 42 4.5 82.5t4.5 83.5q0 8 -0.5 21.5t0 27.5t3 26.5t8.5 18.5q5 6 19 11t30.5 9t32 7t23.5 4q25 3 51 8.5t52.5 9t52.5 3t51 -9.5
q21 -7 41.5 -11.5t41.5 -9.5t41 -11.5t39 -17.5q0 45 5.5 86t22.5 83q11 26 22 50t24 49q12 24 29.5 32.5t44.5 14.5q58 11 116.5 25t116.5 30q22 6 48.5 0.5t52 -17.5t49.5 -26.5t42 -26.5q13 35 43 65.5t58 54.5q24 20 51 23.5t59 3.5q17 0 29.5 2.5t30.5 -3.5
q13 -5 25 -10.5t23 -11.5q17 -10 33.5 -16.5t30.5 -18.5q23 -18 43.5 -35t33.5 -44q4 -10 11 -18.5t14.5 -16.5t13.5 -17t9 -20z" />
    <glyph glyph-name="circumflex" unicode="&#x2c6;" horiz-adv-x="1084" 
 />
    <glyph glyph-name="X" unicode="X" horiz-adv-x="1252" 
d="M1216 189q1 -2 4.5 -7.5t7.5 -11.5t6.5 -11.5t1.5 -7.5q-2 -5 -15.5 -7t-19.5 -3q-22 -5 -44 -7.5t-45 -2.5t-47 2.5t-47 5.5q-5 1 -17 2.5t-24.5 4.5t-23 6.5t-11.5 8.5q-1 3 1.5 8t5.5 10.5t6 10.5t5 7l12 24t12 23q10 20 19 39.5t20 39.5q4 8 10.5 18.5t7.5 19.5
q1 7 -8.5 13t-12.5 13t-3 11t-1 5.5t-4.5 1.5h-13.5q-13 -1 -25 -1t-25 -1q-95 -2 -189 -1.5t-188 8.5q-46 4 -92.5 10t-93 11.5t-93 9t-92.5 2.5q-22 0 -44.5 -2.5t-43.5 -10.5q-9 -3 -18.5 -9t-19 -9.5t-18.5 -2.5t-16 11q-6 8 -14.5 16.5t-12.5 17.5q-4 10 -3 22t1 23
q0 5 -1 18t3 18q6 6 17 4t18 -3q47 -5 94.5 -6.5t94.5 -3t94 -3.5t94 -7q46 -5 92 -11t92 -8q47 -2 95 -4t94 5q26 5 51 14.5t52 12.5q26 4 52.5 0.5t53.5 -5.5q-4 26 6 33.5t35 6.5q9 0 23.5 1t28.5 0t24.5 -5.5t10.5 -16.5q4 -45 9 -88t13 -88q8 -47 23.5 -89t35.5 -85z
" />
    <glyph glyph-name="scaron" unicode="&#x161;" horiz-adv-x="916" 
 />
    <glyph glyph-name="K" unicode="K" horiz-adv-x="1755" 
d="M1734 377v-76l-6 -2q-4 -1 -8 -3t-7.5 -3t-8.5 -2q-1 0 -3 -4l-3 -2v-2l-2 -4h-59q-5 -26 -11.5 -43.5t-8.5 -24.5q-8 -12 -24.5 -15t-35.5 -10q-9 -2 -18 -3t-20 -3q30 -18 49.5 -30.5t21.5 -14.5q6 -6 8 -19q1 -6 1 -13q-5 -6 -9 -10t-8.5 -8t-9.5 -6q-9 -4 -17 2
q-4 3 -7 6l-123 84q-17 -2 -34.5 -2h-34.5q-57 0 -113 4t-108 11q-50 7 -77.5 15.5t-43.5 19.5q-1 1 -2 1.5t-3 2.5q-3 -13 -10 -15q-5 -2 -14 3.5t-19 17t-18.5 27t-13.5 33.5h-119q-5 -18 -13.5 -33.5t-18 -27t-18.5 -17t-15 -3.5q-6 1 -9 15q-2 -2 -3 -2.5l-3 -1.5
q-16 -11 -43.5 -19.5t-78.5 -15.5t-107 -11t-113 -4h-34t-34 2l-123 -84l-8 -6q-4 -2 -8 -3t-9 1t-9.5 6t-8.5 8t-8 10q-1 7 0 13q2 13 8 19q2 2 21.5 14.5t48.5 30.5q-9 2 -18.5 3t-18.5 3q-15 5 -33.5 9t-26.5 18q-2 5 -8 22.5t-11 43.5h-59l-2 4q-1 1 -1 2l-2 2
q-2 4 -4 4q-5 1 -8.5 2t-7.5 3t-8 3l-5 2v76l3 4q2 0 17.5 8t42.5 8h27v9q1 7 5.5 13.5t12.5 15.5q15 20 39 31q13 6 49.5 12t81.5 11t90 8.5t76 3.5t81.5 -4.5t101.5 -15.5q26 -5 48.5 -11t41.5 -14q22 -6 45.5 -10t43 -6.5t34 -3.5t19.5 -1t19 1t33.5 3.5t43 6.5t46.5 10
q19 8 41.5 14t46.5 11q52 11 103 15.5t82 4.5t76 -3.5t89.5 -8.5t80.5 -11t49 -12q13 -5 23 -13.5t18 -17.5t12 -15.5t5 -13.5v-9h26q14 0 25 -2.5t19 -5.5q9 -4 16 -8zM108 328v8q0 4 -0.5 8.5t-0.5 10.5q-17 -2 -25 -6t-13 -7q10 -5 25 -11zM125 397h28v40
q-11 -8 -18.5 -17.5t-9.5 -13.5v-9zM253 196q38 23 78 48t72 43h-273q3 -16 6.5 -34t12.5 -33l2 -1q2 -2 5.5 -3t5.5 -2q8 -3 17 -5t18 -5l28 -4zM724 233q8 7 12 12q-1 10 -2 20.5t-1 19.5l-232 6l-152 -102q11 -2 22 -2h22q56 0 111.5 4t106.5 11q50 7 75.5 15t37.5 16z
M761 347q1 12 2.5 25t3.5 31q-8 -1 -13.5 -1h-10.5t-10 -1q0 5 -1 16t-3 21q-17 8 -40.5 14t-48.5 11q-50 11 -100.5 15.5t-79.5 4.5q-20 0 -47 -1.5t-57 -4t-60 -6t-55.5 -7.5t-44 -8t-24.5 -7h-1v-90h-9h-19.5t-16.5 -1v-30q0 -4 0.5 -7.5t0.5 -5.5h329q44 20 69.5 26
t42.5 6h193zM934 328q5 11 16 15.5t20 5.5q-2 18 -3.5 33.5t-2.5 22.5q-23 2 -48.5 3t-40.5 3q-15 -2 -41 -3t-49 -3q0 -7 -1.5 -22.5t-4.5 -33.5q10 -1 20.5 -5.5t15.5 -15.5h119zM1597 397h28v9q1 0 -2 3q-2 3 -4.5 6.5t-6.5 7.5l-7 7t-8 7v-40zM1356 187h21.5t21.5 2
l-151 102l-233 -6v-19.5t-2 -20.5l12 -12q12 -8 38 -16t75 -15q51 -7 106.5 -11t111.5 -4zM1601 220q2 5 8 23t10 44h-274q33 -18 73.5 -43t78.5 -48q14 2 27.5 4t27.5 4q14 4 27 7.5t18 7.5q1 0 1.5 0.5t1.5 0.5h1zM1624 358q-8 1 -17 1h-19h-10v90q-9 5 -44.5 11t-80 11
t-89.5 8.5t-74 3.5q-15 0 -35.5 -1t-44.5 -3.5t-50 -6.5t-51 -9q-51 -9 -88 -25q-2 -10 -3 -21t-1 -16q-5 1 -10 1h-11t-13 1q0 -13 2 -26t4 -30h193q16 0 42 -6t70 -26h329zM1656 331q7 3 13 6t11 5l-2.5 2.5t-4.5 2.5q-5 2 -12.5 4t-18.5 4q0 -6 -0.5 -10.5t-0.5 -8.5v-8
q6 1 15 3z" />
    <glyph glyph-name="bullet" unicode="&#x2022;" horiz-adv-x="1183" 
 />
    <glyph glyph-name="Lslash" unicode="&#x141;" horiz-adv-x="1247" 
 />
    <glyph glyph-name="q" unicode="q" horiz-adv-x="761" 
d="M721 224q3 -5 7 -9q6 -8 8 -21q-4 -3 -9 -5q-11 -4 -25 0l-77 57q8 -26 11 -59.5t-11.5 -66t-52 -60t-110.5 -41.5q3 -19 5.5 -48t5 -61.5l5 -65t4 -59.5t2.5 -44.5t1 -19.5q0 -6 -3 -9q-1 -2 -2 -2h-102q-7 0 -11 2q-2 1 -2 2q0 6 -1 19t-2.5 30t-3.5 37.5t-3 41.5
q-4 48 -9 105v-207q0 -11 -5 -13q-2 -2 -4 -1h-29q-5 0 -7 3.5t-2.5 8.5t-0.5 10v8t-0.5 36t-1 76.5t-1 86t-0.5 63.5q-47 11 -81 34.5t-57 56.5t-35.5 73.5t-14.5 85.5q-6 3 -11 7q-11 7 -18 13q-2 2 -11 8.5t-18 19t-16 32t-6 46.5t12 62.5t38 80.5q7 13 9 33
q1 10 15.5 31.5t44.5 47.5q9 8 20 15q10 6 24 10.5t33 4.5q38 -1 58 -8t34 -11q13 -4 38.5 -10t61.5 -3q17 1 28 2t17 3q7 2 9 3q15 10 27 19q11 8 21 15t15 11t18 19t27.5 33.5t27.5 35.5t17 24q4 6 12.5 8.5t16.5 1.5q4 -1 10.5 -2.5t13.5 -4.5t12 -8.5t7 -13.5
q0 -6 1 -11t1.5 -8.5t0.5 -5.5t-2.5 -11t-6.5 -20t-7.5 -21.5l-5.5 -16.5q3 -4 5 -8q3 -8 2 -22q3 -8 7 -17q2 -8 4.5 -17t2.5 -20q1 -1 5 -7q2 -6 2 -11q0 -7 -2 -11t-8 -12q-4 -4 -7 -5q-1 0 -1.5 -0.5t-1.5 -0.5q-10 -19 -36 -42.5t-82 -36.5q6 -31 12 -63q5 -27 12 -58
t15 -57zM691 590q0 -1 -2 -7q2 2 2.5 3.5t1.5 3.5q2 3 2 7t-1 5l-3 -9v-3zM634 266q2 2 -3 5t-7 1q0 -4 4 -5q3 -4 6 -1z" />
    <glyph glyph-name="semicolon" unicode=";" horiz-adv-x="1078" 
d="M1044 693q2 -10 2 -19q0 -8 -2 -15.5t-7 -10.5q-5 -4 -9 -2t-6 5q-3 4 -4 9l-23 -12q7 -15 11 -27q3 -11 2.5 -22t-9.5 -17q-17 -13 -34.5 -4t-24.5 25l-14 -10q39 -51 56.5 -96t22.5 -79q6 -40 1 -74q1 -4 1 -8v-8.5t-1 -9.5q-22 -66 -82 -128q-26 -26 -62 -54
t-85.5 -54.5t-114 -50t-146.5 -41.5t-147 -21.5t-115.5 3.5t-88 22t-63.5 33q-62 43 -86 109q-9 39 7 87t64 96.5t131.5 94t209.5 78.5q6 2 10 2q10 0 14 -6q-6 33 -3 66q2 29 12 62.5t36 64.5q25 30 65 49t90 19.5t106 -21.5t112 -73q5 7 18.5 18t39.5 8q7 19 20 30
q11 10 30 13t50 -12l26 7zM563 606q-17 -8 -29.5 -20.5t-20.5 -24.5q-10 -14 -16 -29q3 -42 13.5 -77t25.5 -64q5 0 9.5 -0.5t9.5 -1.5q0 10 3 22t12 22.5t25 17t43 4.5q-1 19 7 33q7 12 24 21.5t50 8.5q0 10 4 19q3 8 10.5 15t21.5 10q-23 18 -49 30.5t-51.5 18.5t-49.5 5
t-42 -10zM287 228q20 5 36 2t27 -10l88 67q5 4 11 8q11 7 23 6q-2 6 -3.5 15t0 18.5t6.5 20t16 19.5q-5 7 -7.5 13t-4.5 10t-3 8q-88 -16 -154.5 -47t-111.5 -65.5t-68 -65t-23 -44.5q0 -25 18 -42.5t50 -28.5q6 13 16.5 31.5t23.5 36t28.5 31t31.5 17.5zM423 93
q66 5 119.5 19t92.5 29q45 18 81 38q-58 23 -99 54t-70 62q-3 -5 -6 -12t-5 -14q5 -8 8.5 -16.5t4.5 -19.5q-2 -6 -7 -10t-15 -7t-30 -2l-86 -72q9 -21 12 -49zM853 273q24 51 13 105t-38 99q-8 5 -15 11t-10 11q-5 -3 -9 -7q-9 -7 -9 -14q9 -16 13 -29q4 -11 4.5 -22.5
t-8.5 -16.5t-19.5 -2.5t-20 8.5t-16.5 13t-8 11q-7 -4 -12 -8q-11 -9 -11 -15q10 -16 15 -29q5 -11 5 -23t-11 -17t-21.5 -2.5t-18.5 8.5t-13.5 13t-5.5 12q-8 -4 -15 -9q-6 -5 -11.5 -10.5t-6.5 -13.5q8 -8 14.5 -17.5t8 -18t-2.5 -15.5t-17 -11q26 -21 52 -34.5t46 -21.5
q24 -10 45 -14q18 0 33 9t26 20q13 13 24 30z" />
    <glyph glyph-name="oe" unicode="&#x153;" horiz-adv-x="1252" 
 />
    <glyph glyph-name="L" unicode="L" horiz-adv-x="690" 
d="M649 429q-2 -35 -4 -69q-2 -29 -2.5 -61.5t-0.5 -58.5t-1 -68.5t-2.5 -85t-2 -76.5t0.5 -43t3.5 -24l5 -30t3.5 -27.5t0 -17.5q-2 -5 -4.5 -12t-11 -14.5t-25 -14.5t-44.5 -13h-1q0 -6 -2 -7.5t-9 -3.5q-6 -1 -14 1q-4 1 -7 3v1q-36 -8 -84 -18.5t-92 -20.5
q-51 -11 -103 -23q0 -8 -2 -9t-9 -3q-6 -1 -14 1q-4 1 -7 3v5q-11 0 -21.5 3.5t-18.5 12.5q-9 10 -18 19l-16 16q-9 8 -16 15q-6 1 -12 5q-5 4 -11.5 12t-11.5 23q-5 14 -8 24t-5 16q-2 7 -2 11q-1 7 -1 17q0 8 -0.5 19t-0.5 25q-1 2 -2 3.5t-1 2.5q0 2 3 -1q-1 14 -1 30.5
t-1 33.5q-8 14 -17 30t-14 24h-5l-10 -3q-5 23 -7 48q-2 21 -1 46t7 50q0 1 1 2q2 2 3 2l4 -1l7 8q0 6 1.5 15t4.5 19t7.5 20t10.5 16q-2 22 -2.5 44t-1.5 40q-1 21 -1 40l-3 5q0 24 1 45q1 18 3 37t7 31q3 8 17 17t50 12q9 1 31 3l-4 168l-8 2q-1 0 -1 1v4v52l6 28
q2 11 4 20.5t3 11.5q0 3 2 6q2 6 8 6q1 0 7.5 0.5t17.5 1.5v11q0 1 2 2q2 2 7 2q2 0 26.5 1t56 2.5t63 3.5t47.5 4q1 0 3 -1t4 -5q1 -3 1 -8h12q3 0 7 -1q7 -2 9 -8t1.5 -11t-1.5 -10q0 -3 -1.5 -16.5t-3 -30t-3 -31t-1.5 -19.5h-7l1 -86q5 0 13 -2v-8q1 -3 3 -6l2 -6t2 -5
l75 -37q6 1 9.5 1h4.5q3 1 6 0.5t4 -2.5q2 -3 7 -4.5t11 -2.5q14 -2 15 -9q14 -1 26 -5q11 -3 21 -9t17 -17q6 -11 8 -32.5t2 -44.5q0 -26 -2 -56zM55 241l13 18v17zM65 82q2 -4 5 -8.5t5 -8.5q-1 27 -1.5 53.5t-1 47.5t-1 35.5t-0.5 18.5v7t-1 12q-2 -5 -4.5 -8.5
t-3.5 -7.5h3l-4 -26q-2 -11 -3 -23.5t0 -22.5t2 -21.5t2.5 -21t2.5 -16.5t1 -8v-2h-1zM207 841q-1 -7 -2 -13q-1 -5 -1.5 -11t-0.5 -8q0 -4 4 -8q2 -2 5 -2l55 -3l7 -3h7q2 0 4 3q1 1 2 3h34v-13h10v13l60 9v17l7 31l-90 -6q-34 -2 -62.5 -3.5t-30.5 -1.5q-4 0 -6 -2z
M253 618q8 7 17.5 14.5t20.5 12.5q2 4 5 7l3 2l-1 16q13 4 29 8q14 3 32.5 5t41.5 0l-2 81l-208 -16l3 -165q3 0 6 0.5t6 0.5l30 17zM259 602q1 -1 4 -1q1 0 4 3t6 7l8 10l-24 -17zM266 591q41 5 78.5 9.5t58.5 6.5l-1 40q-20 1 -42 -1t-33 -8q-1 -1 -3 -1t-3 -0.5t-3 -0.5
q-6 -3 -15 -12q-5 -5 -16.5 -16t-20.5 -17zM467 612q0 4 2 6l2 2l-38 26q-1 1 -5 1l1 -37q5 0 15.5 0.5t22.5 1.5z" />
    <glyph glyph-name="lslash" unicode="&#x142;" horiz-adv-x="1132" 
 />
    <glyph glyph-name="r" unicode="r" horiz-adv-x="719" 
d="M679 762q5 -2 7.5 -5.5t3.5 -6.5q1 -4 1 -8q-20 -195 -35 -356q-7 -69 -13 -137t-11.5 -125t-8.5 -98.5t-4 -57.5q-8 -26 -36 -40t-59 -20q-36 -7 -79 -7h-1q-41 0 -75 7q-29 6 -55.5 20t-34.5 40q-1 17 -4.5 61t-8.5 106q-7 8 -22 19.5t-42 27.5q-60 35 -107 100
t-72 156q-12 45 -13 80.5t3.5 60.5t11.5 39.5t11 19.5q21 26 50 32t63 -2q29 -6 44 -13t26 0q-2 20 -3.5 36t-2.5 27q-1 13 -2 24q0 4 1 8q1 3 3.5 6.5t7.5 5.5q51 16 105 18t116 3h1q66 0 109 -2.5t69 -6.5t38 -7.5t18 -4.5zM238 220q9 0 20 7q-6 66 -12.5 136t-11.5 135
q-4 10 -10.5 24.5t-13.5 29.5t-14.5 27.5t-13.5 18.5q-8 7 -20.5 15.5t-27.5 12t-31 0.5t-31 -19t-19.5 -49.5t3.5 -78t30.5 -96t60.5 -102.5q20 -24 45.5 -44t45.5 -17z" />
    <glyph glyph-name="guilsinglright" unicode="&#x203a;" horiz-adv-x="1240" 
 />
    <glyph glyph-name="tilde" unicode="&#x2dc;" horiz-adv-x="1069" 
 />
    <glyph glyph-name="Zcaron" unicode="&#x17d;" horiz-adv-x="935" 
 />
    <glyph glyph-name="quoteleft" unicode="&#x2018;" horiz-adv-x="908" 
 />
    <glyph glyph-name="g" unicode="g" horiz-adv-x="857" 
d="M833 708q-20 -24 -38 -56q-16 -27 -32 -66.5t-26 -90.5l-45 -409l5 -5l20 -104q0 -3 1 -6q0 -2 0.5 -4.5t-1.5 -4.5t-12.5 -8t-38 -13t-75.5 -12.5t-124 -5.5t-125 4.5t-79.5 11t-45 14.5t-21.5 15v15l18 94v64q-7 7 -7 16h-52q-9 0 -2 9q5 9 16 9h38v15q0 9 7 16v512
q-22 -2 -40 -8q-16 -5 -32.5 -16t-25.5 -31t-14.5 -40.5t-7.5 -52.5t-2.5 -83t-0.5 -132q-4 -10 -14 -18q-8 -7 -22 -12t-34 -5q-6 103 -5 192q0 38 2 76.5t6.5 72.5t11 61t17.5 42q11 16 26.5 30t41.5 26.5t67.5 23t104.5 18.5t120 5t101 -11q51 -9 94 -22q18 -5 34 -9
q14 -4 26.5 -9t17.5 -10v-6q10 -6 24.5 -12.5t33 -16.5t41 -25t48.5 -38z" />
    <glyph glyph-name="u" unicode="u" horiz-adv-x="1145" 
d="M1110 266q6 -1 10 -4q4 -2 7.5 -6t3.5 -9q0 -11 -10.5 -17t-16.5 -8q-5 -2 -13.5 -4.5t-13.5 8.5q-10 1 -27 1q-14 0 -36 -1t-52 -6q-31 -5 -74 -13t-84 -16q-48 -10 -98 -20q2 -3 3 -5q2 -6 2 -7q-1 -2 -3 -8t-3.5 -13t-2 -14t1.5 -10q3 -7 8.5 -15.5t8.5 -12.5
q4 -5 3 -8.5t-3 -6.5q0 -2 -23.5 -20t-63.5 -38.5t-94.5 -35t-117.5 -8.5t-108.5 25t-77.5 48t-53.5 64.5t-34.5 74.5l-26 -16q2 -6 3 -10t0 -7.5t-3 -3.5l-8 -2q-26 21 -49 60q-20 33 -38.5 87t-25.5 136q-3 36 28 63q13 12 34.5 22.5t55 18.5t80.5 12t110 2
q69 -2 121 -7.5t98.5 -16.5t94.5 -29t109 -46q43 -17 71 -34.5t28 -26.5q0 -5 -3 -10.5t-8.5 -10t-13.5 -6t-19 1.5q-21 7 -43.5 20t-57.5 37q-18 12 -49.5 28.5t-73 31t-90 23.5t-100.5 6q-12 -1 -17.5 -2t-10 -1.5t-10 -1.5t-17.5 -2t-34 -2t-45 -2.5t-41.5 -3t-24.5 -3.5
v-16q0 -7 0.5 -13.5t2.5 -9.5q3 -7 8.5 -12.5t7.5 -10.5t5.5 -8t4.5 -10q2 -7 -1 -11.5t-6 -9.5q-2 -3 -8.5 -12.5t-13.5 -20.5q-8 -12 -18 -26q1 -2 5 -5q5 -6 16 -10q5 -2 33.5 -12t75.5 -22.5t111 -24.5t141 -18h100q14 0 19 1q72 6 134 12q27 2 53.5 4.5t50.5 5t43 4
t30 2.5q21 2 46 2.5t47 0.5h50zM792 395q-7 0 -7 -9t7 -9q6 0 6 9t-6 9z" />
    <glyph glyph-name="slash" unicode="/" 
d="M650 733q3 -10 1 -19.5t-4 -16.5q-3 -7 -10.5 -29.5t-4.5 -58.5l3 -36t2.5 -53.5t-3.5 -62t-14.5 -61t-30.5 -50t-52 -29.5l1 -1q1 -1 1 -2t2 -2q1 -1 11 -14t18.5 -37.5t9.5 -61t-14 -84.5q-2 -5 -3 -15t-1 -14q0 -2 0.5 -10t-1 -19t-6.5 -23t-16 -21l-4 -12
q-5 -4 -20 -7q-13 -3 -38 -5t-68 -2l-4 -3q0 -1 -1 -1q-1 -1 -4 -1q-1 0 -22 -0.5t-47.5 -0.5h-51h-31.5q-2 0 -4 1l-4 2q-2 1 -4.5 2.5t-7.5 1.5q-2 0 -20.5 1t-39.5 2t-38.5 2t-18.5 1t-10 0.5t-20 5t-20.5 13t-11.5 25.5q-8 10 -13 22q-5 11 -8 25t0 33q-1 7 -3 14
q-2 6 -3 11.5t-2 9.5t-4.5 20.5t-3.5 38.5t6.5 46.5t24.5 44.5v4q-9 12 -13 25q-4 11 -5 24.5t5 27.5t13 23t13 15q7 7 14 12l5 5q2 2 3.5 4t2.5 4q2 4 13.5 10.5t14.5 8.5q0 7 1 13q2 12 6 16t2.5 7.5t-3.5 3.5q-1 0 -8 9t-14 29.5t-10.5 53.5t3.5 81q1 8 2.5 18t1.5 20
q0 3 -1 16.5t-1 32t1.5 40t5.5 40.5t12 33.5t22 19.5q26 10 48 0.5t40 -34.5q9 -12 16 -24t12 -22q6 -11 11 -22l18 -2q8 -1 15 -1.5t12 -0.5q1 1 3 2q4 2 5 5q1 2 7.5 17t19.5 32.5t32 32t45 14.5q25 0 38 -17.5t19 -39.5t6.5 -41.5t0.5 -22.5t1 -16.5t2 -29.5t2 -29.5
t1 -15.5t3.5 -19t3.5 -42.5t-6 -56t-24 -60.5q3 -8 7 -16q3 -7 5.5 -15.5t2.5 -15.5h8q3 0 7 1t7 4q2 6 6.5 26.5t8.5 46t6.5 52t2.5 44.5q-1 36 -3 51.5t-2 20.5v13t5.5 20.5t19.5 19t42 7.5h4q2 0 6 -2q5 0 10 -1t9.5 -2.5t8.5 -4.5q2 -2 5 -3q2 -1 3.5 -2t2.5 -1
q3 -1 7 -3q8 -4 11 -13z" />
    <glyph glyph-name="quotedbl" unicode="&#x22;" horiz-adv-x="702" 
d="M678 -153q2 -2 2 -5v-4v-2q0 -1 -3 -4l-18 -9q-7 -4 -15 -8q-9 -3 -20 -6q-10 -2 -23.5 -3.5t-31.5 -1.5t-47 -0.5t-60 0t-59.5 1.5t-44.5 3q-17 2 -37 6.5t-38 12t-33 18t-21 24.5q-11 28 -20.5 43t-20.5 26l-34 -15q-17 5 -33 12q-14 6 -29.5 15t-27.5 22l-28 79l-6 10
v9l2 2q-2 9 -4 19q-2 8 -3 18.5t0 20.5q1 4 3 16.5t5 26.5t6 27t5 18q1 8 2 15q1 6 2.5 12t3.5 8v8q0 3 0.5 6t0.5 5q-3 18 -4 33q-1 13 -1 25.5t3 18.5q-1 12 -1 23v18t2 12q-3 45 -6 83l-2 32t-2 29.5t-1 23.5v14l3 14l-2 8l-2 6t-1 5t-1 13.5t3 19.5q-2 5 -3 9l-2 8t0 7
q0 5 -1 22.5t-1.5 39t0.5 41.5t5 29q-5 15 -7 30q-2 13 0.5 27t11.5 27q-1 2 -1 4q0 4 4 7q5 3 14 2.5t14 -2.5q1 2 5 5q3 2 7.5 3.5t12.5 0.5q8 -2 15 -3t13 -3q7 -2 14 -3q2 -1 5 -3q5 -3 8 -12l19 -16q20 22 43 39q20 14 45 23.5t53 4.5q2 2 5.5 4t7.5 0q2 -2 9.5 -5
t15.5 -6q9 -4 19 -8q3 -1 6 -4q6 -6 7 -13q11 -9 18.5 -26.5t9.5 -49.5q2 -9 1 -21q-1 -11 -3.5 -28t-8.5 -40q1 -11 0 -22q-1 -9 -2.5 -19.5t-5.5 -19.5q-2 -14 -3 -26q-2 -11 -2.5 -20.5t-1.5 -12.5q2 -6 3 -15q1 -8 -0.5 -19.5t-6.5 -28.5q1 -20 0 -38q-1 -17 -3 -35
t-7 -32q1 -11 1 -23q0 -11 -1 -24t-5 -27q-2 -18 -4 -33q-2 -13 -3 -25.5t-1 -16.5q1 -7 0.5 -16.5t0.5 -12.5q0 -1 2 -10.5t4 -22.5t3.5 -25.5t1.5 -18.5q2 -9 6 -19q3 -8 6.5 -17t7.5 -15t23 -27.5t47 -50.5t62.5 -60.5t69.5 -57.5q10 -8 22.5 -19t22.5 -23.5t16 -24.5
t4 -22l17 -7q0 -1 1 -2q0 -1 0.5 -2.5t0.5 -2.5z" />
    <glyph glyph-name="quoteright" unicode="&#x2019;" horiz-adv-x="1112" 
 />
    <glyph glyph-name="minus" unicode="&#x2212;" horiz-adv-x="1235" 
 />
    <glyph glyph-name="dieresis" unicode="&#xa8;" horiz-adv-x="966" 
 />
    <glyph glyph-name="N" unicode="N" horiz-adv-x="1032" 
d="M1013 585q2 0 4 -1q4 -2 4 -6q-1 -4 -13.5 -7.5t-26.5 -7.5q-3 -1 -20 -7t-44 -16t-61.5 -23t-71.5 -27q7 -11 16.5 -27t11.5 -18l2 -4t1 -4v-5l-12 -145q-16 -45 -50 -79q-15 -15 -35.5 -29t-48 -25t-62 -17.5t-77.5 -6.5t-77.5 8.5t-61.5 22t-47.5 31t-34.5 35.5
q-34 42 -48 97v46q-6 7 -12.5 19t-7.5 29q-2 20 7.5 35t17.5 23l-67 23q0 -2 -0.5 -3t-0.5 -3q-2 -5 -2 -10v-11q0 -11 1 -23.5t3 -21.5q4 0 4 -3q0 -2 -1 -3q6 0 6 -6q0 -3 -1 -4q5 -1 7 -8l2 -14q1 -3 -1 -7q3 -8 5 -16.5t3 -18.5q6 -3 8 -13q1 -4 1 -9q0 -12 4 -27
q2 -13 7.5 -30t13.5 -37t27 -36t39 -27t37.5 -18l22.5 -9q11 -4 43.5 -12t82.5 -26q19 -7 41 -15t43.5 -15t39.5 -13t30 -9q10 -3 18.5 -5t14.5 -4q2 0 4 -0.5t5 -0.5t3 -3t-3 -3t-6 1q0 -2 -2 -2h-9v-1l-1 -1q9 -2 15 -3q2 -2 1 -4q0 -2 -3 -2q-4 2 -9 2.5t-11 1.5h1
q3 -2 2 -4q0 -2 -2 -2h-1q-1 1 -5 1q8 -2 13.5 -4t10.5 -4l9 -3q2 0 2 -3q-1 -2 -3 -2h-1l-9 3q-4 1 -14 5v-2q-2 -2 -3 -2h-1q0 1 -1 1q-3 0 -4 1q-4 1 -14 3v-1v-1l16 -5q2 0 2 -3q0 -2 -3 -2h-1l-18 6v-2q-2 -2 -3 -2h-1l-2 1q7 -3 14 -5t12 -4q2 -1 4.5 -1.5t4.5 -1.5
t3 -1q2 -1 2 -4q0 -2 -3 -2l-1 1q-5 1 -10 3t-10.5 3.5t-12.5 4.5q2 -2 0 -4l-1 -1q6 -4 13 -6q3 -1 5 -2q2 -3 1 -4q-2 -2 -4 -1l-10 5q-4 2 -7.5 3.5t-8.5 3.5h-1q0 -1 -2 -1q8 -6 14 -11.5t10 -9.5q4 -5 8 -9q1 -2 -1 -4q-1 -1 -2 -1t-1 0.5t-1 0.5v1l-1 1t-1.5 2t-2.5 2
q-2 3 -6 7l-9 9l-2 2q-1 1 -2 1q-2 -2 -3 -2l-1 1l-1 1q-2 0 -4 2q0 -2 -2 -2q9 -4 16 -9q4 -2 7 -4q2 -2 0 -4q-1 -1 -2 -1t-2 1q-3 3 -10 6q-3 2 -5.5 3t-5.5 3l-1 -1q0 -2 -2 -2q2 -2 4 -2l1 -1q4 0 1 -3q0 -2 -2 -2h-2l-1 1q-2 0 -4 2q-1 1 -2 1t-2 1q9 -5 17 -11
t12 -13q2 -2 0 -4h-2q-2 0 -2 1q-7 10 -25 20q2 -2 3.5 -2.5t2.5 -1.5t2 -1q3 -2 1 -4q0 -1 -2 -1h-2l-1 1q-1 1 -2 1.5t-2 1.5q-2 2 -10 6q2 -2 3.5 -2.5t2.5 -1.5t2 -1q2 -2 0 -4q0 -1 -2 -1h-2l-3 3q-4 -2 -11 -2.5t-14 0.5t-12.5 2t-7.5 2q-35 10 -59 19t-40 17.5
t-24.5 15t-12.5 11.5q-32 5 -51.5 14.5t-30.5 20.5q-8 7 -11 12q-24 11 -48.5 25t-45 29t-34.5 30t-17 28q-6 21 -7 43.5t0 43t3 37t4 25.5q-3 0 -5 2q-3 4 -2 18t2 24q-4 3 -5 8l-2 13q-2 7 3 10q-3 1 -3 5q-2 5 5 7q-2 2 -2 3q0 2 2 4q-2 9 -3.5 21.5t-1.5 25.5
q0 6 0.5 11.5t1.5 10.5q1 4 3 10l-169 58q-4 1 -7 3q-7 3 -7 6q0 4 8 6l16 4q2 0 23 4.5t54 11.5t74.5 16t84.5 18q101 21 229 49h4q2 0 3.5 0.5t3.5 0.5q1 0 23 -4t58 -11t82 -15.5t94 -17.5q112 -21 255 -48zM633 3h1q3 -2 9 -4q-2 2 -4.5 2.5t-4.5 2.5zM385 53
q-9 2 -18.5 5t-19.5 8q1 -3 4 -4q10 -9 27 -18t46 -14q-1 1 -1 2v1q-4 1 -10 4t-12 7q-7 4 -16 9z" />
    <glyph glyph-name="emdash" unicode="&#x2014;" horiz-adv-x="898" 
 />
    <glyph glyph-name="quotedblleft" unicode="&#x201c;" horiz-adv-x="1274" 
 />
    <glyph glyph-name="M" unicode="M" horiz-adv-x="1488" 
d="M1454 195q4 -12 7.5 -28t5.5 -31.5t2.5 -28.5t-0.5 -19q-20 -10 -45 -18q-21 -7 -50 -12.5t-64 -6.5q-18 -7 -32 -11q-12 -4 -23 -7.5t-14 -1.5l-11 12q-5 1 -9 1q-9 0 -11 -5q-7 -3 -9.5 -4.5t-3 -2.5t-1.5 -1h-5t-23 -1t-43.5 -1t-48.5 1t-37 5q-16 7 -29 14
q-11 6 -20.5 12t-11.5 11q-5 1 -10 3q-11 3 -21 5q-6 1 -31 1h-54q-33 0 -73 -1l-12 10q-5 4 -8 8t-1 7l-4 10q-3 -1 -7 -3q-5 -3 -19 -6q1 -3 4 -5t6 -3q4 -2 8 -2v-33q-63 -6 -118 -9.5t-104 -4.5v28q-5 0 -11 -0.5t-12 -0.5v-28q-32 0 -61 1t-56 3v27q-5 0 -11 0.5
t-11 1.5v-28q-34 3 -64 7.5t-56 9.5v26q-5 1 -11 1.5t-11 2.5v-25q-62 15 -102.5 35t-65 41t-35.5 40t-15 31q-2 2 -6 8q1 24 5 46q3 19 7 37t11 28q6 9 11.5 13t13 6t18 3.5t26.5 6.5q11 3 30.5 6t42 6t47 5.5t45 5t35 4t18.5 3.5q6 2 21.5 8t31.5 12q18 7 40 15q0 1 1 1
l2 1q1 2 1 5.5t3 6.5q7 9 16 2l1 -1q14 8 33.5 19.5t41.5 25.5l1 8q2 12 14 10q3 0 7 -4l30 18t29 18q-1 2 0 5q0 4 4 8q7 8 16 1q26 17 45 30t24 19q17 20 33.5 23.5t21.5 3.5q6 13 14 21q6 7 14.5 10.5t18.5 -1.5l70 48l13 6l90 59q1 0 2 1q1 0 2.5 0.5t3.5 0.5l25 21
q5 1 9 1q10 0 16 -5q6 -6 3 -20.5t-8 -22.5q-2 -4 -12 -16.5t-20 -27.5t-17 -30.5t-4 -26.5t4.5 -17.5t3.5 -11t5.5 -8.5t9.5 -10t20.5 -20t32 -28.5t34 -27t26.5 -15.5q20 -6 40.5 -10t33.5 -2q6 1 17 4.5t22 8.5t21 12.5t14 15.5q4 9 9 22.5t12.5 27t18 23.5t25.5 11
q29 2 43.5 -3t26.5 -19q2 -7 5 -13q5 -12 14 -24q4 -6 13.5 -21t19 -39t16 -56.5t4.5 -74.5q5 1 9 0q7 -2 3 -8q-2 -4 -3.5 -25t-2 -48t0.5 -55.5t3 -46.5zM1206 172q-18 -1 -29 -5.5t-17 -10.5t-7.5 -13t-1.5 -12l114 5v1q0 3 -1 9.5t-6.5 12.5t-17.5 10t-34 3zM1234 88
q20 2 25.5 13t6.5 22l-116 -4q3 -16 11.5 -23t20 -9t25 -1t27.5 2z" />
    <glyph glyph-name="logicalnot" unicode="&#xac;" horiz-adv-x="762" 
 />
    <glyph glyph-name="Ydieresis" unicode="&#x178;" horiz-adv-x="933" 
 />
    <glyph glyph-name="less" unicode="&#x3c;" horiz-adv-x="635" 
d="M273 860q-3 3 -3 5q1 7 14.5 11.5t33.5 4.5q-11 0 -18.5 -2.5t-7.5 -6.5q0 -3 7.5 -5.5t18.5 -2.5t18.5 2.5t7.5 5.5q0 4 -7.5 6.5t-18.5 2.5q20 0 33.5 -4.5t14.5 -11.5q0 -2 -4 -5q-2 -2 -6.5 -3.5t-10.5 -2.5q-12 -3 -27 -3q-11 0 -19.5 1t-15.5 3zM613 -134
q1 -6 -4 -15q-6 -9 -13 -13q-9 -6 -21 -9q-6 -2 -12.5 -3t-13.5 -1l-474 -1q-15 0 -26 4q-6 2 -10.5 4t-9.5 4q-4 3 -7 6t-5 7q-4 6 -2 16l45 243q2 7 7 12q6 6 14 9q7 4 19 7q6 2 11.5 2h11.5l28 1l-23 -148q0 -23 15 -42.5t41 -34.5q26 -14 60.5 -22.5t73.5 -8.5t73.5 8.5
t60.5 22.5q26 15 41 34.5t15 42.5l-24 149l40 1q12 0 23 -3q12 -2 19 -6q5 -2 8 -4.5t6 -4.5q4 -6 6 -12zM171 266q0 3 2 3l8 2q-7 18 -8 29q-2 6 -2 12q0 3 3 3t3 -2v-2q0 -4 1 -6v-4l10 3q-5 8 -6.5 14.5t-3.5 11.5q-2 6 -2 11q0 3 3 3t3 -3v-2q0 -2 0.5 -3t0.5 -3l10 3
q-8 15 -10 24t-2 10q0 3 3 3t3 -3v-1v-2l1 -1q2 0 3 1q2 0 2.5 0.5t2.5 0.5q-7 14 -8 22t-1 9q-2 2 2 2q3 1 3 -2v-1l7 2q-3 6 -4 11t-2 9t-1 7t2 3h2l1 1l8 3q-3 7 -5 12t-3 10q-1 4 -1 9q0 3 2 3q3 0 3 -3l1 -1l9 3q-5 12 -7 20.5t-2 11.5q0 1 2 3q3 0 3 -3q1 0 1 -1l8 3
q-4 11 -5.5 18.5l-2.5 12.5q0 3 3 3q1 0 3 -2v-2l8 4q-3 8 -5 16t-3 17v1q0 3 3 3t3 -3v-1v-1l4 4l45 288l2 -2q3 -2 8 -3.5t11 -3.5q12 -3 28 -3q19 0 36 5q6 1 11 5l2 2l45 -290l3 -2v1v3q0 3 3 3t3 -3v-3q-1 -9 -3 -17l-4 -16l7 -4v4q0 3 3 3t3 -3q-1 -5 -2.5 -14
t-5.5 -20l8 -3v2q0 3 3 3t3 -3t-2 -11.5t-7 -21.5l8 -3h1v1q0 3 3 3t3 -3q-1 -5 -2 -9q-2 -5 -3.5 -10t-4.5 -12l9 -3l1 -1h1q3 0 3 -3t-1 -7q-2 -10 -7 -20l8 -2v1q0 3 3 2q2 0 2 -2q0 -1 -1.5 -9t-8.5 -21q2 -1 4 -1.5t5 -1.5q0 2 0.5 2.5t0.5 1.5q0 3 3 3q2 0 2 -3
q0 -1 -1.5 -10t-9.5 -24l9 -3l2 8q0 3 3 3q2 0 2 -3q0 -5 -2 -11q-2 -5 -4 -11.5t-6 -14.5l10 -3q1 3 1 5.5t1 4.5v2q0 2 3 2t2 -3l-2 -12t-2.5 -13.5t-4.5 -15.5l7 -2q3 0 2 -3q0 -2 -2 -2l43 -273q0 -22 -14.5 -41t-39.5 -33q-26 -14 -60 -22t-72 -8q-39 0 -72.5 8
t-59.5 22t-40 33t-14 41l43 273h-1q-1 0 -3 2zM189 265q17 -6 37 -9q-9 8 -17 17l-21 -6q0 -1 1 -2zM340 373q-6 4 -12 7t-11 7l-22 -14l22 -15zM345 377q5 5 9.5 8.5t9.5 7.5l-21 12q-5 -3 -10 -7t-11 -8zM290 377q6 3 11.5 6.5t10.5 6.5l-19 15q-6 -3 -11.5 -6t-10.5 -6
q5 -4 9.5 -7.5t9.5 -8.5zM312 355q-6 4 -11.5 7.5t-10.5 7.5q-6 -2 -11.5 -5t-11.5 -6l22 -17l12 6t11 7zM317 352q-5 -4 -11 -7t-12 -7l23 -15q13 7 24 15zM323 355q5 -4 11 -7l12 -6q6 5 11 8.5t10 8.5l-22 11zM352 339l19 -9l20 19q-5 2 -9 4t-9 4zM389 381q-5 2 -10 4.5
t-10 5.5l-19 -17l22 -11zM369 398q5 5 9 9.5t7 8.5l-19 9l-18 -16q5 -3 10.5 -5.5t10.5 -5.5zM361 428l-19 12q-5 -4 -9.5 -7.5t-9.5 -7.5q2 -2 4 -2.5t4 -2.5l6 -4l6 -4zM338 408q-5 3 -10 6.5t-10 6.5q-5 -3 -10 -6.5t-10 -6.5q5 -3 9.5 -6.5t9.5 -8.5zM292 412
q5 3 10 6.5t10 6.5q-5 4 -9.5 7.5t-9.5 7.5l-20 -12l18 -16h1zM268 425l-19 -9l17 -18q5 3 10.5 5.5t10.5 5.5h-1zM285 374q-6 5 -10 9t-9 8q-10 -6 -20 -10l17 -18zM283 339q-12 9 -21 18q-5 -2 -9 -4t-9 -4l20 -19zM287 307q-7 5 -13 8.5t-11 8.5l-19 -8l22 -18zM292 310
q5 2 10 4.5t10 5.5q-14 7 -24 15l-19 -9zM317 317q-5 -3 -9.5 -6t-9.5 -5l19 -12l20 12q-5 2 -10 5zM323 320q5 -3 9.5 -5.5t9.5 -4.5q7 4 13 8t11 8l-19 9zM371 324q-9 -8 -23 -17l20 -9q7 5 12.5 9t10.5 9zM395 320l19 20l-17 6q-9 -9 -21 -18zM403 362q3 2 4.5 5t3.5 5
q-4 2 -8 3.5t-9 3.5q-4 -5 -8 -9l-9 -9q5 -2 9 -4t9 -4zM408 405l-17 8l-17 -17q10 -6 20 -10zM403 439l-17 8q0 -1 -0.5 -1t-0.5 -1l-14 -16l18 -9zM385 454q4 5 7 9.5t6 9.5l-15 8q-4 -6 -7 -8q-2 -3 -8 -9zM381 450q-4 2 -8 4.5t-9 5.5q-4 -5 -8 -8.5t-9 -7.5l18 -12
l16 17v1zM341 447q5 4 9 8t9 8h-1q-5 3 -9.5 6.5t-9.5 6.5l-17 -15zM317 457l-19 -13q5 -5 10 -8t10 -7q5 3 9.5 6.5t9.5 7.5h-1zM313 461l-17 15l-20 -13q5 -4 9 -8t9 -8zM288 444q-5 4 -9 7.5t-8 8.5q-10 -6 -18 -10l3 -3q3 -4 6 -7.5t7 -7.5zM267 464q-6 6 -8 9
q-5 5 -7 8l-15 -8q4 -9 13 -19zM248 447l-16 -8q3 -5 6 -9.5t8 -9.5l18 9l-12 14zM260 396q-5 4 -8.5 8t-7.5 9l-17 -8l13 -17q0 -1 0.5 -1t0.5 -1h1q2 2 5.5 3t6.5 3q2 1 3.5 1.5t3.5 1.5zM241 379q-5 -2 -9 -3.5t-8 -3.5l4 -7l11 -12q5 2 9.5 4t8.5 4q-4 5 -8 9t-8 9z
M238 346l-17 -6q4 -5 8.5 -10t9.5 -10l19 8zM238 314q-5 -2 -9.5 -3.5t-9.5 -3.5l9.5 -9.5t10.5 -9.5l21 7zM244 283q5 -4 10.5 -7.5t11.5 -7.5q5 2 10.5 4.5t10.5 5.5q-11 5 -21 14zM272 294q5 -3 10 -6.5t11 -6.5q5 2 9.5 4.5t9.5 5.5l-20 12zM298 277l19 -10l20 10
q-5 3 -10 5.5t-10 5.5zM323 291q8 -5 19 -10q6 3 11 6.5t10 6.5l-20 9zM369 292q-11 -9 -21 -14q5 -3 10.5 -5.5t10.5 -4.5l22 15zM374 295q5 -2 10.5 -3.5t11.5 -3.5l20 19q-5 2 -9.5 3.5t-9.5 3.5zM421 305q-8 -10 -19 -19q5 -2 10.5 -3.5t10.5 -3.5q5 5 9 10.5t6 10.5
q-9 4 -17 5zM419 312q3 3 5 5.5t4 5.5l6 10q-5 1 -15 5q-4 -5 -8.5 -10t-9.5 -10zM417 344q5 6 8 11l6 10q-4 1 -7 2t-7 3l-6 -8l-10 -11zM415 377q5 5 8 10.5t5 9.5l-15 6l-14 -19q4 -2 8 -3.5t8 -3.5zM422 431l-14 6l-14 -19l17 -8zM417 464l-14 6l-13 -19q4 -2 7.5 -3.5
t8.5 -3.5zM401 478q3 5 5.5 10t4.5 10l-12 6l-12 -18q4 -2 7 -4t7 -4zM381 489q7 8 13 19l-10.5 7t-9.5 6q-3 -5 -6 -9.5t-7 -9.5q5 -4 10 -7zM378 485q-6 3 -10.5 6t-9.5 6l-5 -6l-10 -11q5 -3 9.5 -6.5t9.5 -6.5h1q2 2 4.5 5t4.5 5t6 8zM349 494q2 2 3 3.5t2 3.5
q-12 8 -18 16q-6 -9 -15 -18q7 -8 18 -15zM335 480q-11 7 -18 15l-17 -15l17 -16q5 4 9 8t9 8zM296 484q5 4 9 7.5t8 7.5q-4 5 -7.5 9t-6.5 9q-6 -8 -18 -16l5 -7zM277 497l-20 -12l15 -18l20 13l-10 10zM273 502q-4 5 -7 9.5t-5 9.5q-5 -3 -9.5 -6l-10.5 -7q3 -5 6.5 -10
t6.5 -10zM236 504l-13 -6q2 -5 4.5 -10t6.5 -10q7 3 14 8zM245 451q-4 5 -7.5 9.5t-5.5 9.5l-14 -6q2 -5 4.5 -10t6.5 -10zM240 418q-4 5 -7 9.5t-6 9.5l-14 -6q2 -5 4.5 -10t6.5 -11zM236 384q-5 5 -8 9.5t-6 9.5l-15 -6q5 -11 12 -20h1q4 2 8 3.5t9 3.5h-1zM219 370
q-5 -2 -8 -3t-6 -3q2 -4 4.5 -8.5t7.5 -9.5q0 -1 1 -2l16 7l-10 11zM234 318q-5 5 -9.5 10t-8.5 10q-10 -4 -15 -5q1 -5 4 -7l10 -14zM233 286q-6 5 -10.5 9.5l-9.5 9.5l-17 -5q3 -5 6.5 -10.5t8.5 -10.5q14 3 22 7zM215 274q5 -5 10 -9.5t11 -9.5l24 10q-11 7 -22 16
q-5 -2 -11 -3.5t-12 -3.5zM283 250q-5 3 -9 6t-9 5l-19 -8q8 -1 17 -2t18 -1h2zM289 253l22 11l-19 10l-21 -10zM337 249l2 1q-6 2 -11.5 5t-10.5 5l-21 -10l2 -1h39zM345 253l19 11q-6 2 -11.5 5t-10.5 5q-5 -2 -9.5 -5t-9.5 -5zM354 250q18 0 35 3l-19 8q-5 -2 -9 -5
t-9 -6h2zM399 255q11 8 20 19q-5 2 -11 3.5t-11 3.5q-5 -4 -10.5 -8t-11.5 -8zM446 264q0 2 1 3l-22 6q-6 -9 -17 -17q11 2 20.5 4t17.5 4zM444 299q-5 -8 -15 -22l10 -2t10 -3q4 13 6 24zM439 331q-2 -5 -5 -8q-3 -7 -9 -13l16 -5l9 23zM446 359q-2 1 -4 1.5t-6 2.5
l-13 -21l14 -4q3 6 5 11.5t4 9.5zM433 395q-2 -4 -5 -9.5t-8 -10.5q4 -2 7 -2.5t6 -2.5q4 7 5.5 13t3.5 9h-1zM427 429q-2 -5 -4.5 -10.5t-6.5 -10.5l14 -6q7 17 7 24h-1zM422 462l-11 -20l13 -6q4 8 5.5 13.5t2.5 9.5h-1h-1zM416 496q-2 -5 -4.5 -10.5t-5.5 -10.5
q8 -4 13 -5q3 7 4.5 12.5t2.5 9.5q-1 0 -1 1zM412 530q-2 -5 -4.5 -10.5t-5.5 -10.5l11 -6q3 7 4.5 12.5t2.5 10.5h-1zM387 554q7 -8 21 -15q2 5 3 10.5t3 10.5h-1l-6 7q-9 -3 -18 -5zM406 533q-6 4 -11 8t-10 7q-3 -9 -9 -22q5 -3 10 -6.5t11 -6.5q2 5 4.5 10t4.5 10z
M382 561q0 -1 1 -1v1h-1zM356 557q0 -3 -2 -7l6 -9q2 -2 5 -5.5t7 -6.5q6 13 9 24l-5 7zM356 538q-2 2 -2.5 3t-2.5 2q-4 -11 -12 -22q4 -4 8.5 -8t9.5 -8q8 12 12 19zM349 557l1 -1v1h-1zM324 555q-1 -2 -1.5 -3.5t-2.5 -3.5q3 -5 7 -11t9 -11q7 11 12 23l-5 7
q-5 0 -9.5 -0.5t-9.5 -0.5zM317 555h1q-1 0 -1 -1v1zM332 521q-9 10 -15 21q-5 -11 -15 -21q6 -9 15 -18q9 9 15 18zM291 556q-1 -2 -1.5 -3.5t-2.5 -3.5q5 -12 12 -23q10 10 15 22l-3 7q-5 0 -10 0.5t-10 0.5zM284 557q0 -1 1 -1v1h-1zM295 521q-4 6 -7 11.5t-5 10.5l-4 -5
q-3 -3 -6 -6.5t-8 -7.5l13 -19zM254 553q1 -11 9 -24l12 13l6 7l-3 8l-19 3q-1 -2 -5 -6v-1zM252 560l1 1h-1v-1zM258 526q-6 13 -9 22q-4 -3 -8.5 -7t-11.5 -8q2 -5 4.5 -10t5.5 -10q10 5 19 13zM222 560q1 -5 2 -10.5t3 -10.5q7 4 11.5 8t8.5 7q0 2 -0.5 4t-0.5 4
q-5 1 -9.5 2t-9.5 3zM215 526q2 -10 6 -23l12 6q-2 5 -4.5 10.5t-4.5 10.5l-8 -4h-1zM209 492q1 -4 2.5 -9.5t4.5 -12.5q6 1 13 5q-6 10 -11 21l-8 -3q0 -1 -1 -1zM203 459q1 -3 2 -7t3 -9l2 -7l14 6q-4 5 -6.5 10t-4.5 10l-9 -3h-1zM198 423q0 -4 3 -13l4 -8l14 6
q-8 10 -11 21l-9 -3h-1h-1q0 -1 0.5 -1.5t0.5 -1.5zM201 370q2 0 2.5 0.5t2.5 0.5l4 2t5 2h-1q-7 9 -12 20l-9 -3l2 -8zM190 358q1 -8 8 -20l14 4q-8 12 -12 21q-4 -2 -6 -2.5t-4 -1.5v-1zM185 328q2 -10 9 -23l16 5q-3 3 -5.5 6.5t-4.5 6.5l-5 8zM180 296q0 -3 2 -11l4 -13
q5 2 9.5 3t9.5 2q-5 6 -8 11.5t-6 10.5z" />
    <glyph glyph-name="O" unicode="O" horiz-adv-x="823" 
d="M872 900q7 0 10 -10t3.5 -22.5t-1 -23.5t-1.5 -13t-5 -21t-21 -43t-47 -47.5t-84 -35.5q-4 -11 -8 -23q-3 -11 -6.5 -24.5t-5.5 -27.5t-3.5 -28.5t-7 -28t-18.5 -26t-38 -22.5l-4 -21q3 -16 5 -32q2 -14 2.5 -29t-2.5 -26q0 -21 2 -37.5t4 -23.5q1 -4 2.5 -11.5
t1.5 -17.5t-3 -21.5t-11 -23.5q-16 -23 -27 -39t-11 -18q0 -1 -1 -1t0 -3.5t4.5 -13.5t11.5 -31t18.5 -55.5t20 -68.5t17 -60.5t8.5 -31.5q3 -11 6 -21.5t5 -13.5q2 -2 9.5 -13.5t4.5 -23.5q-3 -13 -9 -20t-28 -5q-10 -2 -19 0q-8 2 -14.5 6t-8.5 13q-4 18 -5 27t-10 17
t-13.5 23.5t-6.5 57.5t-13.5 72t-19.5 43q-4 7 -8 14.5t-8 15.5t-9 17l-10 19q0 -14 -1 -26q-1 -11 -2 -21.5t-4 -18.5q-3 -7 -9 -23t-11.5 -33t-9.5 -31.5t-4 -17.5q0 -7 3.5 -11t7.5 -21q1 -5 -9 -12t-14 -9q-2 -1 -10 -2t-17.5 -1t-18.5 2t-15 6h-13q-6 0 -13 0.5
t-12 2.5q-6 2 -9.5 8.5t-5.5 13.5q-3 8 -3 18q-1 2 -3 5q-4 6 -10 11q-8 6 -21 23.5t-27 53.5q-14 35 -23 55.5t-14 28.5q-3 4 -8 10.5t-10 12.5q-6 7 -12 15q-1 0 -3 1q-2 0 -4 0.5t-6 -0.5t-12.5 -2t-17.5 -3q-11 -2 -23 -3q-7 -2 -12 -5t-10 -7t-8 -12t-7.5 -16.5
t-10 -26t-11 -47.5t-9.5 -79q-2 -9 -1.5 -18.5t2.5 -15.5l3 -9t3 -12.5t0.5 -12.5t-3.5 -8q-6 -5 -14.5 -8.5t-17.5 -4.5l-3 -2q-10 -1 -18 1q-7 2 -13 6t-7 13v14q0 5 0.5 11t0.5 8q-1 4 -4 14.5t-4 18.5q0 9 2.5 31.5t17.5 63.5q14 41 19 65.5t9 41.5t12.5 48t36.5 66
q1 2 7 3t8 1q3 0 10.5 3t7.5 14t2 38.5t17 69.5q2 5 2.5 12.5t-7.5 12.5q-4 2 -19.5 10.5t-31 24t-26 37t-3.5 49.5q1 7 3.5 16.5t7 17.5t10 14t12.5 5t11 -5t8 -10t8.5 -13.5t12.5 -15.5t18.5 -20t21 -23.5t19.5 -20t12 -10.5q7 -3 13 -5.5t23 -0.5q9 1 19 2t24 -0.5
t32.5 -7t44.5 -17.5q25 -12 40 -20.5t25.5 -13.5t19 -5.5t22.5 2.5q3 2 4 6q1 3 0.5 8t-5.5 13q-18 0 -34 6q-14 5 -27.5 17t-18.5 35q-12 46 -16.5 67.5t-6.5 23.5q-5 0 -10 1t-11 1.5t-14 0.5t-26.5 3.5t-41.5 17t-47 41t-42 75.5q-5 13 -7 22.5t7 19.5q5 5 18 4.5
t26 -5.5q6 -2 32 -13t55 -23q33 -14 75 -31q15 16 34 28q17 11 40 20t52 11q29 1 55.5 -3.5t46.5 -11.5q24 -8 45 -18q2 -2 6 -2q8 0 14 5q4 3 24.5 22.5t48.5 41.5t58.5 39.5t54.5 16.5zM465 155q2 4 0.5 13t-4.5 17q-2 4 -3 7t-2 5q-1 3 -1 5q-13 0 -32.5 7t-38.5 16
q-22 10 -47 23q-2 -2 -6 -2.5t-8 -1.5q-5 -1 -10 -1q-3 -10 -3.5 -21.5t0.5 -22.5q1 -12 4 -25q4 -12 12.5 -29.5t18.5 -35t18.5 -32.5t12.5 -22q8 -14 15 -20.5t11 -9.5q3 -3 6 -3h2q0 1 8 21t18 44t19 45t10 23z" />
    <glyph glyph-name="s" unicode="s" horiz-adv-x="1713" 
d="M644 581h9v-33h-9v11h-7v7h7v15zM1666 80q8 0 13 -5t5 -13t-5 -13t-13 -5h-156q-16 -35 -48.5 -57.5t-74.5 -22.5q-37 0 -67.5 18t-48.5 47h-5q-8 0 -11 8h-852q-17 -32 -49 -52.5t-71 -20.5q-37 0 -67.5 18t-48.5 48l-8 -7h-23l-34 82l8 2h-1h-21q1 -3 3.5 -6.5
t5.5 -6.5l7 -7v-15q-3 0 -5 2l-2 2q-13 2 -22 8t-15 13q-7 8 -12 17v-44h-8v-44q0 -6 -6 -6t-6 6v56q0 2 2 4v5h-3v19h-5v49h3v22h6q2 5 5.5 7.5t6.5 2.5q2 0 3 -1t3 -2t3 -2q3 8 8 13q3 3 6 5h3q-3 9 -8.5 19.5t-10.5 20.5q-6 11 -14 23q-1 7 2 10.5t6 5.5q-3 10 -3 24
q0 15 4.5 26t10.5 19q6 9 15 15v-1q8 6 36.5 16.5t93.5 23.5v11h-8l-2 2q-1 1 -1 4q0 6 10 6v14q0 6 1 10q2 10 10 14q2 1 7.5 -4.5t5.5 -14.5v-29q0 -2 -1 -4t-2 -3t-2 -3q31 5 70 11t89 12l23 4q0 1 1 3t4 5q1 2 6.5 6.5t12.5 9.5q8 6 17 13h4q2 0 4 0.5t4 0.5l115 144
q0 2 1 7t8 3l1 5l-4 4q-3 3 -1 7q1 3 9 3q4 0 7 -1q14 12 61 22q20 4 49 8t69 7t92.5 5t120.5 2q134 0 216 -4.5t128.5 -12t65.5 -17.5t28 -22q2 0 4 1q2 0 3.5 0.5t3.5 -1.5t2 -6q0 -2 -1 -4l1 -9q1 0 3 -1q4 -2 6 -5t1 -5.5t-2 -3.5l108 -147l1 -2l1 -1q3 -3 3 -8l7 -8
q6 -5 11 -9q5 -5 10.5 -10t12.5 -12h3h5h4q0 5 6 5h3q6 0 6 -6t-6 -6h-2q1 -1 1 -5q0 -5 -3 -8q14 -20 22 -44.5t8 -32.5l-7 -4v-10h10v-6h11q2 -4 5 -8l4 -8t2 -9q0 -10 -3.5 -17.5t-5.5 -7.5h-11v-53h6v-20l6 -4q2 -2 4.5 -4t2.5 -3v-11h-16v-24q-3 -4 -7 -7q-8 -6 -12 -6
l-8 33q-7 -10 -15 -19q-7 -8 -15 -15.5t-16 -9.5l-4 -4h-33l-2 -9h128zM490 443q2 -1 6 0q6 0 12 7q3 4 17 26t31 47q18 29 42 65q2 4 3 8q2 7 -3 10q-2 1 -8 3.5t-11 4.5l-124 -155zM671 420q-11 10 -22 19.5t-23 18.5q6 -10 12 -19.5t14 -18.5h19zM819 600h-138
q-22 0 -34 -14.5t-26 -37.5l-90 -129h34v19h3v8h7v-8h8v-18h48q-11 14 -20 29t-17 29q1 0 1 -0.5t1 -0.5q-1 0 -1 0.5t-1 0.5q3 2 10 2t11 -2q21 -11 40 -26.5t37 -31.5h127v180zM974 570q0 12 -9 21t-21 9h-115v-162q3 4 8 4t8 -5q1 1 2 1q11 0 11 -13v-5l116 1v149z
M1368 451q-2 5 -4 11.5t-6 13.5l-44 80q-6 11 -14.5 21.5t-21.5 12.5l-231 10q-12 0 -21 -9t-9 -21v-120q0 -10 6.5 -16.5t16.5 -6.5h314v3v9q0 12 11 12h3zM1517 452q8 0 16 3l-104 141l-2 -1q-3 -1 -5 -3t-2 -5t3 -8q2 -5 15 -25t27 -42q17 -26 36 -57q2 -1 5 -2
q6 -2 11 -1z" />
    <glyph glyph-name="quotedblright" unicode="&#x201d;" horiz-adv-x="1593" 
 />
    <glyph glyph-name="guillemotleft" unicode="&#xab;" horiz-adv-x="1181" 
 />
    <glyph glyph-name="section" unicode="&#xa7;" horiz-adv-x="1054" 
 />
    <glyph glyph-name="h" unicode="h" horiz-adv-x="1128" 
d="M1109 492v-296h-11q-1 -4 -5 -7q-8 -6 -18 -6h-45q-5 0 -9 -3q-8 -6 -8 -15q0 -12 4 -13.5t6 -3.5l5.5 -5.5t3.5 -16.5v-34l-9 -16q-2 -3 -7 -6q-5 -2 -12.5 -4t-21.5 -2h-828q-14 0 -21.5 2t-12.5 4q-5 3 -7 6l-9 16v34q0 13 3.5 16.5l5.5 5.5t6 3.5t4 13.5q0 5 -3 9
t-6 6q-4 3 -8 3h-45q-7 0 -11 2t-7 4q-4 3 -5 7h-11v296h11q1 3 5 6q3 2 7 4.5t11 2.5h45q4 0 8 3q3 2 6 6t3 10q0 11 -4 13t-6 4q-2 1 -5.5 4.5t-3.5 16.5v34l9 17q2 2 7 5q5 2 12.5 4t21.5 2h828q14 0 21.5 -2t12.5 -4q5 -3 7 -5l9 -17v-34q0 -13 -3.5 -16.5t-5.5 -4.5
q-2 -2 -6 -4t-4 -13q0 -10 8 -16q4 -3 9 -3h45q6 0 10.5 -2.5t7.5 -4.5q4 -3 5 -6h11zM1021 377l-7 32q-3 15 -15 15q-13 0 -16 -15q-1 -8 -1.5 -10.5t-1.5 -9.5q-2 -16 -17 -16h-8q-7 0 -12.5 5.5l-10.5 10.5l-18 20q-11 11 -15.5 13t-11.5 2q-6 0 -10.5 -2t-15.5 -13
l-9 -10q-15 -17 -20 -21.5t-15 -4.5q-17 0 -20 20q-1 5 -1.5 6.5t-1 2.5t-0.5 2t-1 5q-3 15 -15 15q-13 0 -16 -15q-1 -4 -1 -7.5t-1 -6.5q-1 -4 -1 -6q0 -16 -17 -16h-101q-14 0 -22 11q-9 11 -22.5 18t-28.5 7q-16 0 -29 -7t-22 -18q-8 -11 -22 -11h-102q-16 0 -16 16
l-4 20q-2 15 -15 15q-14 0 -15 -15q-1 -4 -1 -5t-0.5 -2t-1 -2.5t-1.5 -6.5q-3 -20 -20 -20q-10 0 -15 4.5t-20 21.5l-9 10q-11 11 -15.5 13t-10.5 2q-7 0 -11.5 -2t-15.5 -13l-19 -20q-5 -5 -10 -10.5t-12 -5.5h-8q-15 0 -17 16q-1 7 -1.5 9.5t-2.5 10.5q-2 15 -15 15
q-14 0 -15 -15l-7 -32v-65l7 -32q1 -16 15 -16q13 0 15 16q2 7 2.5 9.5t1.5 9.5q2 17 17 17h8q7 0 12 -6t10 -11l19 -19q11 -12 15.5 -14t11.5 -2q6 0 10.5 2.5t15.5 13.5l9 9q15 17 20 22t15 5q17 0 20 -21q1 -5 1.5 -6.5t1 -2t0.5 -1.5t1 -5q1 -16 15 -16q13 0 15 16
q1 3 1.5 6.5t1.5 6.5q1 4 1 6q0 7 4.5 12t11.5 5h102q13 0 22 -11t22 -18t29 -7q15 0 28.5 7t22.5 18t22 11h101q8 0 12.5 -5t4.5 -12q0 -2 1 -6q1 -3 1 -6.5t1 -6.5q3 -16 16 -16q12 0 15 16q1 4 1 5t0.5 1.5t1 2t1.5 6.5q3 21 20 21q10 0 15 -5t20 -22l9 -9
q11 -11 15.5 -13.5t10.5 -2.5q7 0 11.5 2t15.5 14l18 19q5 5 10.5 11t12.5 6h8q15 0 17 -17q1 -7 1.5 -9.5t1.5 -9.5q3 -16 16 -16q12 0 15 16l7 32v65z" />
    <glyph glyph-name="brokenbar" unicode="&#xa6;" horiz-adv-x="833" 
 />
    <glyph glyph-name="degree" unicode="&#xb0;" horiz-adv-x="479" 
 />
    <glyph glyph-name="Q" unicode="Q" horiz-adv-x="886" 
d="M442 819q91 0 170.5 -34.5t138.5 -93.5t93.5 -138.5t34.5 -170.5q0 -90 -34.5 -170t-93.5 -139t-138.5 -93.5t-170.5 -34.5q-90 0 -170 34.5t-139 93.5t-93.5 139t-34.5 170q0 91 34.5 170.5t93.5 138.5t139 93.5t170 34.5zM127 541q-2 -12 4 -22.5t18 -14.5l188 -61
q9 -2 12 5h1q0 1 0.5 1t0.5 1q6 7 1 15l-117 159q-8 11 -20.5 13t-23.5 -5q-20 -20 -36 -42.5t-28 -48.5zM96 321q6 -9 16 -12.5t21 -0.5l189 61q5 3 7 11v2v3q-2 8 -8 11l-188 61q-11 3 -22 -1t-16 -14q-2 -14 -3.5 -28.5t-1.5 -28.5q0 -33 6 -64zM201 128q22 -5 35 13
l116 160q3 6 0 12q-1 2 -4 5q-4 6 -12 4l-188 -62q-10 -3 -16 -11.5t-6 -18.5q29 -57 75 -102zM417 264q0 5 -6 9q-6 2 -8 2q-6 1 -11 -4l-116 -160q-13 -18 -1 -36q28 -15 59 -25t64 -14q8 4 13.5 11.5t5.5 18.5v-1v199zM417 700q0 13 -9.5 22.5t-22.5 9.5q-2 0 -3.5 -0.5
t-3.5 -0.5q-50 -9 -92 -31q-1 0 -2 -1q-11 -8 -13.5 -21.5t5.5 -24.5l117 -160q2 -2 7 -2.5t6 -0.5q2 0 3 1q8 2 8 11v198zM693 632q-11 7 -23.5 5t-20.5 -13l-117 -160q-3 -7 0 -13q2 -1 2.5 -2t1.5 -2q4 -6 12 -4l188 61q12 4 18 15t4 22q-24 49 -65 91zM467 501
q2 -9 9 -10q1 -1 3 -1q8 -3 13 4l117 160q8 11 5.5 24t-13.5 21l-4 2q-42 21 -91 30q-2 0 -3 0.5t-3 0.5q-14 0 -23.5 -9.5t-9.5 -23.5v-198zM610 75q10 19 -2 36l-116 161q-5 5 -11 3q-3 0 -7 -2q-7 -4 -7 -10v-198q0 -10 5.5 -17.5t13.5 -11.5q34 4 64.5 14t59.5 25z
M683 128q46 43 75 102q0 10 -6 18.5t-16 12.5l-189 61q-5 1 -11 -3q-1 -2 -2 -3.5t-2 -3.5q-4 -6 1 -12l116 -160q6 -8 15.5 -11t18.5 -1zM752 308q11 -3 21 0.5t15 12.5q6 31 6 64q0 14 -1 28t-3 28q-6 11 -17 15t-22 0l-188 -61q-7 -4 -7 -9v-4v-3q0 -7 8 -10z" />
    <glyph glyph-name="glyph86" horiz-adv-x="0" 
 />
    <glyph glyph-name="c" unicode="c" horiz-adv-x="853" 
d="M841 -17q0 -1 2 -7t4 -14t3.5 -16.5t1.5 -14.5q0 -7 -4 -9q-1 -1 -11.5 -4.5t-29 -7t-43.5 -6t-56 -1.5q-3 0 -6 2.5t-3 7.5q0 3 -1.5 21.5t-3.5 40.5t-4 41t-2 22t-1 15t-2 25.5t-1.5 25.5t-0.5 16t-1 14t-2.5 21t-2.5 20.5t-2 12.5t-4 19t-6 34.5t-6 35t-3 19.5t-1 15
t-2.5 26t-2.5 26t-1 16q-1 4 -1 11.5t-1 15.5q-1 9 -2 19l-8 -34q-3 -14 -6 -31t-4 -30q-2 -27 -0.5 -56.5t11.5 -57.5q4 -14 11 -38t14 -61t13 -86.5t10 -114.5q0 -3 1 -10t1.5 -15.5t1 -16t0.5 -10.5q-1 -7 -10.5 -12t-14.5 -7q-3 -1 -21.5 -5.5t-46 -9t-59.5 -8t-62 -2.5
q-1 -1 -4 -2q-2 -1 -5 -1t-8 2q-51 -5 -100 -4q-43 1 -91 7.5t-86 23.5q-6 3 -6.5 10.5t-0.5 10.5q0 1 1.5 14.5t3 33t4 42t4 43t3 35t1.5 17.5q0 4 2 28t5 53t6.5 57t6.5 42q7 26 10 43t-1 36q-2 9 -4 21t-4 23q-2 12 -3 25q-3 -13 -6 -29q-2 -14 -5.5 -33.5t-5.5 -43.5
l-6.5 -52l-6.5 -52t-5.5 -42t-2.5 -23v-15t-0.5 -21t-0.5 -22.5v-18.5q0 -8 -1.5 -25.5t-3 -36.5t-3.5 -35t-3 -21q0 -4 -1 -6t-8 -4q-3 -1 -17 -2.5t-33.5 -2t-43 0.5t-45.5 6q-5 1 -8.5 6t-0.5 13q1 4 3.5 12t4.5 16q3 10 6 21v4q-3 1 -5 5q-2 2 -3.5 6t-0.5 9q0 4 1 12.5
t4 18t8 18t13 11.5q8 54 15 97q3 18 5.5 36t5 32.5t4 24.5t1.5 13q1 4 3 27t4.5 51t4.5 53t2 34q1 9 3.5 42.5t6 72.5t6.5 72t4 41t4 22.5t6 29.5t6 26.5t3 13.5q1 3 6 11.5t16 6.5q0 1 3 3q6 4 20 9q8 3 28.5 9.5t42.5 14.5q26 9 55 19q6 18 15 36q8 15 18 31t23 28
q4 4 10 4q2 0 5 -3t2 -11q0 -4 -0.5 -14t0.5 -22.5t3.5 -26t7.5 -24.5q2 -8 6 -14t6 -10q1 -2 4 -6.5t6.5 -10t6 -10.5t3.5 -6q2 -3 3 -8t1 -7v-3h3l1 5q1 3 3 8.5t10 12.5q3 4 10 14.5t15 23.5t15 26.5t11 22.5q8 20 11 32q2 7 3 14v6q0 6 5 9q8 4 16 -7q2 -3 7 -10
t10.5 -18t10.5 -24.5t6 -28.5l153 -58q2 1 6 0q2 -1 5.5 -2.5t6.5 -5.5t5.5 -12.5t4.5 -17.5t3.5 -17.5t2.5 -12.5t3.5 -14.5t5 -22t5 -21t2.5 -10.5q2 -3 3.5 -17.5t2.5 -26.5q0 -6 1 -21.5t2 -35.5t2.5 -43t4.5 -45t6.5 -52.5t8 -64t9 -66.5t10.5 -60t11 -51.5t9 -42.5
q4 -22 9 -40l3 -3q1 -2 3 -4h3q4 0 4 -3q0 -2 0.5 -2.5t0.5 -1.5v-2l-2 -2l9 -39l-1 -2q1 -1 2 -3q2 -4 2 -6l-2 -2q-1 -1 -4 -1l-3 -4q0 -1 -1 -2q-3 -3 -1 -4z" />
    <glyph glyph-name="currency" unicode="&#xa4;" horiz-adv-x="1088" 
 />
    <glyph glyph-name="y" unicode="y" horiz-adv-x="372" 
d="M251 495q-20 -17 -30.5 -28t-15.5 -20t-6 -19t-1 -25v-324q0 -14 3 -26q2 -11 6 -22t12 -17q15 -13 38.5 -18.5t37.5 -9.5q12 -4 24 -7t12 -6q0 -2 -2.5 -3.5t-16 -3t-43.5 -2.5t-84 -1t-83.5 1t-43 2.5t-16 3t-2.5 3.5q0 3 12 6t24 7q14 4 37.5 9.5t38.5 18.5q8 6 12 17
t6 22q3 12 3 26v324q0 15 -0.5 25t-5.5 19t-15.5 20t-30.5 28q-26 22 -44 44.5t-29.5 43.5t-18.5 41t-11 39q-4 16 -4 48.5t3 67t8 63.5t13 37q7 7 30 11t48 5.5t46 1.5h24h24t45.5 -1.5t47 -5.5t30.5 -11q8 -8 13.5 -37t8.5 -63.5t2.5 -67t-3.5 -48.5q-9 -38 -30 -80.5
t-73 -87.5z" />
    <glyph glyph-name="P" unicode="P" horiz-adv-x="944" 
d="M884 633q9 -7 17 -14q7 -6 12.5 -13.5t5.5 -14.5t-2.5 -9.5t-6.5 -3t-8 0.5t-7 1t-20.5 1.5t-39 3.5t-41 3.5t-25.5 1.5q-12 -2 -32 -7.5t-28 -13.5q3 -8 3 -17q0 -8 -3 -17t-11 -17q-17 -17 -27 -31.5t-10 -19.5q0 -3 0.5 -19t1.5 -35q1 -22 2 -48q1 -8 4 -15
q2 -7 4.5 -14t6.5 -15q3 -8 8 -19.5t10.5 -24t10.5 -23.5t8 -17l16 4q7 2 14.5 3.5t14.5 1.5q2 -2 4 -6q2 -3 3.5 -7t1.5 -8l-2 -3q2 -5 3 -9t1.5 -8.5t1.5 -9.5h1h2q2 -7 4 -15q2 -7 2.5 -14.5t1.5 -14.5v-3l5 -104l-21 -46l-3 -3v-4q-2 -2 -3 -4t-2 -3v-1q0 -1 -0.5 -1.5
t-0.5 -1.5t-2.5 -5.5t-8 -10t-14 -10t-20.5 -4.5q-7 -1 -19.5 3.5t-41.5 17.5q-29 12 -71.5 27.5t-107.5 35.5q-14 5 -28 8.5t-25 7.5q-13 4 -25 8h-6q-7 0 -9 -1q-3 -2 -11 -9t-11 -13l-2 -4q-1 -2 -1 -6q-1 1 -1 3v5q-3 -5 -7 -9t-10 -7t-15 -2q-4 0 -6.5 5t1.5 16t12 21
t19 14v2q-10 0 -20 1q-8 1 -17.5 3t-17.5 7q-3 1 -9 9q-3 4 -5 7q-18 5 -38 15q-18 8 -41.5 22t-52.5 37q-5 4 -15.5 15t-23 28t-26 41t-25.5 55h-14l-5 21l-5 -2l-12 31l11 13l-10 5l-12 60q0 1 -0.5 3.5t1.5 4.5l5 5q2 2 3 4v9q0 9 4 16v2q14 113 68 192q23 34 56.5 63.5
t81.5 48.5t111 23t145 -14q18 -1 33 -4q13 -2 24 -6t14 -12l17 2l164 -95zM350 282q1 -1 6 -4l4 -2l-1 2zM435 227q2 5 4 9q3 8 6 11l-32 13l2 -14q3 -2 6 -6q2 -3 4.5 -6.5t4.5 -5.5zM525 200q2 0 5 -1q2 -1 5 -1.5t5 -1.5l-15 10v-6z" />
    <glyph glyph-name="x" unicode="x" horiz-adv-x="1149" 
d="M1110 444q2 -1 2.5 -2t1.5 -2l2 -2q0 -1 -0.5 -3.5t-3.5 -5.5q-1 -2 -6 -7t-11.5 -12t-12.5 -14t-10 -12q-8 -10 -26 -39.5t-38 -91.5q-10 -30 -23 -60.5t-31.5 -56t-43 -44t-56.5 -25.5q-3 1 -6 1q-7 0 -8 -2q-1 -1 -8.5 -9.5t-18 -19t-23.5 -21t-25 -16.5h-601
q-65 38 -102 91q-16 22 -27.5 50t-14 61t6.5 70.5t34 80.5q-2 0 -4 1q-4 2 -4 3q0 5 4 13q1 1 4.5 6.5t8.5 12.5q5 8 11 17l-1 2h-1q-1 0 -2 1q-1 0 -10 2.5t-19 8.5t-18 17t-7 30q0 10 3.5 22.5t14.5 29.5q5 8 7.5 12.5t4.5 6.5l2 2l-1 8q1 3 3 6q2 2 3.5 5t3.5 6v3
q0 3 -2 3q-1 0 -2 1q-1 0 -1 1l1 14v1l2 1q4 2 4 3q1 1 6.5 10.5t21.5 12.5q2 1 3 3q2 4 3 4q3 7 7 13q3 5 5.5 10.5t4.5 7.5q2 4 5 7l7 7q1 5 4 9q2 4 4.5 8t7.5 8q1 4 4 8q6 8 10 11q2 4 5 8q2 3 5 6t6 5q2 2 5 6q4 6 12 12q4 3 8 7q5 5 11 9q6 5 11 9q5 3 9.5 6t7.5 4
q5 2 9 5q9 6 16 7l10 5q9 4 17 6l10 5q9 4 22 6l12 4q5 2 10 3.5t8 1.5q3 1 7 2q3 1 6.5 2t8.5 1q4 2 8 3q10 2 20 2q4 1 9 2t10.5 1h11.5q5 0 10 1q5 0 11 0.5t12 -0.5q7 1 12 1h9.5t7.5 -1q9 1 16 1h12t8 -2h2h2q1 1 13 0.5t15 -2.5h10l10 -2t10 -3q7 0 13 -1q12 -2 20 -5
q6 -2 11 -4q10 -4 14 -7l10 -4q4 -2 8.5 -4t6.5 -5q6 -2 11 -6q5 -3 9.5 -6.5t7.5 -6.5q5 -2 9 -6q6 -5 12 -13q4 -2 8 -6l6.5 -6.5t7.5 -8.5q1 -2 4 -5q2 -2 4.5 -5.5t4.5 -7.5q2 -3 6 -7q2 -3 5.5 -6.5t5.5 -8.5l1 -4q2 -2 5 -6q2 -3 4.5 -6.5t4.5 -7.5t5 -8q5 -9 8 -17
l4 -4q2 -2 3 -4l2 -4q1 -1 3 -2t5 -1h2h2q3 -3 9 -7q2 -2 2 -4v-2l3 -3q1 -2 2 -4.5t1 -6.5q0 -6 -2 -12q-1 -3 -1 -4v-2v-4q2 -2 6 -10l5 -10q0 -2 2 -4q1 -1 2 -1h1l1 -1q1 -1 4.5 -10t5.5 -25q6 -9 10 -19q4 -8 7 -19t2 -22q-2 -23 -13 -36t-36 -20q-1 0 -1 -1q0 -2 2 -3
q1 -1 4.5 -5.5t8 -10.5t8 -12t3.5 -10q0 -1 1 -1t3 2q1 1 11.5 9.5t22.5 18.5t22.5 18.5t12.5 10.5q2 1 12 10t22.5 19t24.5 19t18 11h7h2l30 -14q13 -6 28.5 -14t29.5 -16zM42 465q12 -15 26 -19t22 -3q-1 8 -2.5 17t-4.5 17q-4 14 -6.5 22t-2.5 14l-1 1h-1q-2 -2 -6.5 -8
t-9.5 -13.5t-9.5 -13.5t-5.5 -7q-2 -3 0 -5q0 -1 1 -2zM144 610q0 -2 1 -3q2 -3 6 -2q3 0 3 2v2l6 23q-2 -4 -5 -8q-6 -8 -8 -8zM140 590l6 -4v3l-4 5zM112 542q3 -2 6.5 -3.5t2.5 0.5q-1 1 -1.5 2t-2.5 2t-3 2zM130 509q0 6 1 10q0 4 0.5 7t0.5 4q0 3 -3 3q-2 -1 -6 0t-6 1
q-2 -1 -6.5 0.5t-6.5 1.5q-1 -1 -1 -4q0 -2 1 -3q6 -5 10 -9l10 -10q1 -1 4 -1h2zM134 546q3 0 3 2v2h-5q-2 0 -4 1q0 -3 1 -4t2 -1h3zM135 563q6 -1 7 6q0 3 -5 5l-6 2h-4q-4 -1 -2 -5q1 -2 2 -5l2 -2q1 -1 6 -1zM786 429q0 1 -4 7t-8.5 15t-7.5 21t-1 25q1 13 2.5 19.5
t2 13t-1 15t-5.5 25.5h-8q-2 0 -6 4l-4 4v7q-4 5 -6 11q-2 5 0 12t10 15q-3 14 -6 26q-2 11 -4.5 20.5t-4.5 14.5q-4 4 -7 8q-7 7 -7 13q-5 3 -9 7q-8 6 -11 14l-8 6q-8 6 -9 11q-3 0 -7 2q-8 4 -9 11q-7 3 -13 6q-5 2 -9.5 4.5t-5.5 4.5q-6 1 -11 3t-8.5 4t-4.5 4l-8 2
q-3 1 -6 1.5t-4 2.5q-7 0 -12 1t-9 1.5t-5 2.5q-7 -1 -12 -1t-9 -0.5t-5 1.5q-7 -1 -13 -2q-5 -1 -10 -1t-8 2l-12 -2q-5 -1 -8.5 -1.5t-5.5 -0.5q-1 -2 -3 -4t-3 -3.5t-2 -0.5q-1 0 -11.5 3t-12.5 10q-8 -2 -15 -3q-6 -1 -11 -1.5t-7 1.5q-7 -3 -13 -4q-13 -4 -17 2
q-4 -2 -8 -3l-8 -2t-6 0l-12 -4q-5 -2 -8.5 -3t-5.5 0q-5 -2 -9 -4q-8 -3 -18 -3q-2 -2 -6 -5q-7 -5 -18 -7q-6 -3 -11 -6q-10 -5 -15 -5q-3 -3 -7 -6q-7 -5 -15 -5l-5 -5q-4 -4 -14 -8q-3 -4 -6 -7l-4.5 -4.5t-4.5 -2.5q-2 -3 -5 -7q-2 -3 -5 -6t-6 -4q-1 -2 -2 -5
q-2 -6 -5 -6l2 -4q2 -3 0 -10q-1 -4 -4.5 -15.5t-8.5 -25.5q-5 -16 -12 -35q0 -2 1 -5q2 -6 5 -8v-3q0 -2 0.5 -3t0.5 -3t-2 -6q-1 -2 -1 -3q0 -4 -1 -8q-1 -3 -3 -6t-6 -3q-3 -1 -5 -3q-4 -4 -4 -5q-1 -2 -2.5 -7.5t-1.5 -7.5v-7.5t-0.5 -14.5t-1 -15.5t-0.5 -10.5
q-2 -6 1 -9v-4.5v-7.5t-0.5 -8t-1.5 -5q-3 -2 -3 -4v-3q2 -1 6.5 -0.5t6.5 7.5t6 10.5t7 5.5q1 1 7 6t14 13.5t16 18.5t13 21q0 1 1 3l3 3q1 1 5 1.5t9 0.5h37q8 11 22 22q11 9 30 18.5t47 16.5q8 2 20.5 5.5t12.5 13.5q0 2 -2 6.5t-10 4.5q-1 0 -3 2t-2 11q0 8 13.5 14.5
t52.5 6.5q40 0 58 -6.5t18 -14.5q0 -9 -2 -11t-4 -2q-7 0 -9.5 -4.5t-2.5 -6.5q0 -10 12.5 -13.5t21.5 -5.5q28 -7 46.5 -16.5t30.5 -18.5q13 -11 22 -22h41q10 0 14 -2q1 0 1 -1q0 -2 1 -2q1 -2 2 -3q5 -11 13 -21t16 -18.5t14 -13.5t7 -6q3 -2 8.5 -5.5t7.5 -10.5
q1 -4 8 -8t9 -3v3zM815 538q1 0 1 1v2q-1 1 -8 6.5t-12 19.5h-5q-5 0 -5 -2v-29v-22.5t-2 -15.5l4 8q4 9 5 16q1 8 9.5 12t12.5 4zM826 446q1 0 7 0.5t13 3t13 5.5t8 7q0 2 1.5 4.5t-1.5 7.5q-4 5 -10.5 17.5t-11.5 17.5l-2 2q-1 1 -4 1q-3 -10 -6 -19q-2 -8 -4 -15.5
t-2 -11.5q0 -8 -2 -13t1 -7z" />
    <glyph glyph-name="e" unicode="e" horiz-adv-x="1847" 
d="M1817 155q6 -3 6 -10t-6 -10q-3 -17 -19 -17h-49l8 -26l23 -20l-2 -4h34v-14h-69q-2 -7 -9 -7q-6 0 -8 7h-21q-5 -6 -12 -10t-15 -4q-11 0 -19.5 6.5t-12.5 17.5q-5 -3 -11 -4t-11 -2q-6 -1 -12 -1h-78q-17 -42 -55.5 -69t-86.5 -27q-49 0 -87.5 27t-55.5 69h-122h-8.5
t-10.5 -2q-3 -1 -7 -1.5t-8 -1.5t-8 -1h-186q-10 0 -20 1t-15 4l-4.5 3t-3.5 1h-3h-401q-17 -41 -54.5 -66.5t-85.5 -25.5q-27 0 -51.5 8.5t-44 24t-33.5 37t-20 46.5h-16q0 -4 -2.5 -6.5l-4.5 -4.5q-4 -3 -7 -4h-32l-10 5h-15q-8 0 -11 7q-2 4 -3 8q-5 2 -9 7t-7 12t-5 19
h-13q-14 0 -19 15q-7 3 -7 11q0 7 7 11q4 16 19 16h19q4 15 9.5 29t10.5 25l12 24l-2 8q10 19 30 39.5t44.5 39t50.5 33.5t49 24q53 20 109 29t106 11l4 -5h9l5 6q8 1 16.5 1h16.5l2 -4l26 1l1 -3h27l1 5h9v1q0 3 4 3q5 0 5 -3v-2h2l15 21h9l2 4h5l-13 -22l85 139l14 15
q7 3 27.5 10.5t57 15.5t91 14t129.5 6t138.5 -12t109.5 -26q54 -17 97 -37l5 1l3 -8q9 -6 23.5 -16.5t31.5 -22.5t35.5 -25t33.5 -25q18 -15 29 -23l4 3l4 -10l36 -30l1 -4q20 -15 42 -37l42 -42q23 -24 45 -49q10 -4 19 -8q8 -3 14.5 -6t8.5 -4q4 -2 6 -7.5t3 -7.5
q2 -3 -1 -6q-1 -2 -2 -2l-16 -5l-9 -8l16 -57h63q16 0 19 -16zM710 417l26 122q-20 -5 -28 -10.5t-12 -10.5q-8 -7 -21 -27t-22 -39l6 -2l-2 -8q-2 -7 1 -10q2 -3 10.5 -5.5t19.5 -2.5l-16 34v3q0 2 3 4q4 2 6 0l2 -2l22 -46h5zM729 424l21 120q-3 -1 -5.5 -1.5t-5.5 -1.5
l-25 -124h1q0 1 2 3q2 4 7 4h5zM735 423h4t4 -1l22 125q-2 -1 -4.5 -1t-4.5 -1zM989 438l-13 -25q6 1 9 3q2 2 2 4.5t1 4.5q0 3 1 6v7zM989 533q0 5 -2 12t-4 9q-1 1 -5 3t-17.5 3.5t-39.5 1t-71 -3.5q-26 -2 -45.5 -5t-35.5 -5l-22 -126q1 0 1.5 -0.5t1.5 -0.5h1l4 -6v-2
h121l4 8t3 5q0 2 1.5 9t1.5 12q0 2 -0.5 10t1.5 17.5t8 19.5t18 16q6 3 12 4q12 2 21 -11q5 4 9 8q4 3 8.5 6t9.5 3t9.5 -3t6.5 -6v22zM1057 411l-27 71v-35q0 -4 -1 -14.5t1 -14.5q1 -4 11 -6q4 -1 9 -1h7zM1280 411q15 0 23 4.5t12.5 10.5t5.5 12.5t1 11.5
q0 20 -18.5 35.5t-46.5 27t-60.5 19.5t-61.5 12.5t-49.5 7t-23.5 2.5q-9 0 -17 -1t-11 -3q-4 -4 -4 -8q-1 -3 0 -6v-44l31 -81h219zM1481 433q15 -2 24 4t12 10q-9 8 -23.5 19t-31.5 24l-44 32t-38 27q-4 3 -10 7q0 -18 14 -39t32.5 -39.5t37 -31t27.5 -13.5z" />
    <glyph glyph-name="exclamdown" unicode="&#xa1;" horiz-adv-x="899" 
 />
    <glyph glyph-name="S" unicode="S" horiz-adv-x="727" 
d="M189 205q-35 80 -47.5 161t-12.5 149q0 38 2.5 69t5.5 54q1 9 2 16.5t2 12.5q11 2 20.5 3.5t17.5 3.5q8 1 19.5 7.5t24.5 14.5t24.5 16t19.5 12q30 14 63.5 22.5t69.5 8.5q61 0 115.5 -23t94.5 -63.5t63.5 -94.5t23.5 -115q0 -39 -10.5 -75.5t-27.5 -68.5q-2 -5 -9.5 -17
t-15.5 -26q-5 -3 -12 -7.5t-13 -8.5q-13 -8 -26.5 -14.5t-29.5 -11.5q-34 -11 -71.5 -18t-74.5 -10h-4q-27 -2 -54.5 -2.5t-55.5 -0.5q-11 0 -22 0.5t-22 0.5q-7 1 -13 1t-11 1q-14 1 -23.5 2t-12.5 1zM657 230q3 -1 3.5 -5t-1.5 -8q-4 -7 -13 -7.5t-11 -2.5v-3q2 -1 4.5 -2
t4.5 -2q6 -2 10 -4q5 -4 -1 -12q-2 -2 -5.5 -3t-5.5 2q-3 3 -5 9q-2 2 -2.5 4.5t-2.5 3.5t-3 0q-2 -2 -1 -11t-4 -13q-7 -5 -12 0q-3 4 -1 8t5 7.5t5 6.5t1 5q-2 1 -5 -1t-7 -4.5t-8 -3.5t-7 3q-1 1 -1 4q-2 -2 -4.5 -4t-5.5 -4q1 0 1 -0.5t1 -0.5q4 -3 2.5 -6.5t-4.5 -6.5
t-5.5 -6t-1.5 -4q1 -2 4.5 -0.5t8 3.5t9 3.5t7.5 -0.5t2 -6.5t-4 -7.5q-6 -5 -15 -1.5t-11 1.5t-1 -3q1 -2 2.5 -3.5l3.5 -3.5t4.5 -3.5t3.5 -3.5q2 -3 0 -6t-5 -5q-8 -4 -11 3q-1 3 -1 10q0 6 -2 10q0 1 -2 1q-3 -2 -5.5 -10.5t-8.5 -10.5q-9 -4 -11 5q-2 4 1.5 7t7.5 5.5
t7.5 4.5t2.5 4t-4.5 1t-8 -1.5t-9 -0.5t-5.5 5q-1 4 1 8q-3 -2 -6.5 -2.5t-8.5 -2.5q5 0 7 -5q1 -5 -2 -7.5t-7 -4.5t-7.5 -3.5t-3.5 -3.5t4 -2t8.5 0.5t9 -0.5t5.5 -5q3 -6 -6 -10q-6 -2 -13 4t-10 5q-1 0 -1 -2q0 -3 4 -9t5 -9q1 -7 -6 -9q-8 0 -9 6q-1 2 -0.5 5t0.5 5
q2 7 1 10q0 3 -2 1q-3 -1 -7.5 -8.5t-9.5 -8.5q-8 -2 -10 6q-1 4 2.5 7t8 4.5t8 3t3.5 3.5t-4 1.5t-8.5 -0.5t-8.5 1.5t-5 6.5q0 5 5 8q-5 -1 -9.5 -1.5t-9.5 -1.5q6 -2 7 -7q0 -5 -3.5 -7t-8 -3.5t-8 -2.5t-3.5 -3t4 -2t9 -0.5t9 -2t4 -5.5q2 -7 -7 -9q-6 -1 -12 5.5
t-9 6.5q-2 0 -2 -2t1 -4.5t2 -4.5q4 -6 4 -10q1 -6 -7 -8q-8 0 -8 7q0 2 0.5 4.5t0.5 5.5q2 6 2 9q0 2 -2 2q-3 0 -8 -7.5t-10 -8.5q-9 0 -9 8q0 4 3.5 6.5t8 3.5t8 2t3.5 3t-4 2t-8.5 0.5t-8.5 2t-4 6.5t4 7h-7.5t-8.5 -1q5 -2 5 -6q0 -5 -3.5 -7t-8 -3t-8.5 -2t-4 -3
t4 -2.5t9 -1t9 -2.5t4 -6q0 -8 -8 -8q-6 0 -11.5 6.5t-9.5 6.5q-1 0 -1 -2q0 -3 2 -9q3 -5 3 -10q1 -7 -7 -7t-8 7q0 2 2 10q3 4 3 9q0 2 -2 2q-3 0 -8.5 -7.5t-10.5 -7.5q-9 0 -9 8q0 4 4 6t8.5 3t8 2t3.5 3t-4 2.5t-8.5 1t-8 2.5t-3.5 7q0 3 3 6h-14q3 -3 3 -6
q0 -6 -5 -7.5t-10 -2.5q0 -5 1 -8q5 -1 9.5 -2.5t4.5 -6.5q0 -8 -8 -8q-2 0 -4 2q3 -27 6 -53.5t3 -52.5q0 -5 -1 -8q10 -13 19 -26.5t17 -28.5q8 -14 10 -31t4 -33q2 -24 2.5 -47.5t-0.5 -46.5q0 -43 -2.5 -85t-4.5 -84q-1 -23 2 -45.5t8 -44.5q7 -31 17.5 -61t27.5 -58
q-4 -9 -9 -16q-5 -6 -10.5 -12t-13.5 -7q-21 34 -33.5 73t-18.5 78q-4 24 -3.5 47t2.5 47q2 47 4.5 93t0.5 94q-1 20 -2.5 40.5t-6.5 40.5q-2 11 -7 20.5t-11 19.5q0 -1 -0.5 -2t-0.5 -3q-5 -26 -10.5 -52.5t-10.5 -52.5q-12 -54 -23.5 -108t-16.5 -109q-2 -22 -2.5 -43.5
t3.5 -42.5q4 -23 10 -46.5t14 -46.5q17 -50 39.5 -97.5t44.5 -95.5q2 -5 -4 -8.5t-15 -4t-17.5 1t-10.5 6.5q-17 36 -33.5 71.5t-32.5 72.5q-11 28 -20 56.5t-17 57.5q-5 22 -8 43t-2 44q1 25 4 50t8 50q9 56 21.5 110t23.5 110q5 23 9 47t6 48v6q-36 51 -65 101
q-11 17 -20.5 34.5t-19.5 35.5q-2 5 -5 10t-5 10q-1 -1 -4 -1q-2 -1 -4.5 -1t-4.5 -1q-2 -2 -1 -2q1 -3 9 -3.5t10 -5.5q3 -5 -4 -9q-4 -2 -7 0t-5.5 5t-4 5.5t-3.5 1.5t-1.5 -4t1.5 -7t1 -7.5t-4 -5.5q-8 -4 -10 3q-2 4 2.5 11t2.5 10h-1h-2q-2 -1 -7 -6q-2 -2 -4 -3.5
t-4 -2.5q-7 -3 -9 3q-4 6 4 9q4 2 10 2q2 1 4.5 1t4.5 1q1 0 1 2q-1 2 -9.5 3.5t-10.5 6.5q-2 7 5 9q4 2 7 -0.5t5 -5.5t4 -5.5t4 -1.5t1 4t-1.5 7t0 7.5t4.5 5.5q8 2 10 -4q1 -2 0 -5t-2.5 -6t-3 -5.5t-0.5 -3.5q0 -2 2 0q2 1 8 5l3 3q-10 20 -18 44h-5q-2 0 -4.5 -0.5
t-4.5 -0.5q-2 -2 -1 -3q1 -2 9 -3.5t10 -5.5q2 -7 -5 -10q-5 -2 -7.5 0.5t-5 6t-4 6t-3.5 1.5t-1.5 -4t1.5 -7t0 -7.5t-5 -5.5q-7 -2 -10 4q-2 5 3.5 11.5t4.5 9.5h-3q-2 -1 -8 -5t-8 -5q-7 -3 -9 3q-2 7 4 9q3 1 10 1t10 1q1 0 1 2q-1 3 -9 4.5t-10 6.5q-2 7 5 9q4 1 7 -1
t5 -5.5t4 -6.5t4 -2t1.5 4t-1 7t0 7.5t5.5 5.5q7 2 9 -4q2 -5 -3.5 -11.5t-4.5 -8.5q1 -1 3 -1q2 1 8 5l3 3q-4 11 -7.5 22.5t-6.5 23.5q-2 -1 -5 -1q-6 1 -9 0q-2 0 -2 -2q1 -3 8.5 -5t9.5 -6q2 -7 -5 -9q-5 -2 -7.5 0.5t-4.5 6t-3.5 6.5t-3.5 2q-2 0 -2 -3.5t0.5 -7.5
t-0.5 -7.5t-5 -4.5q-7 -4 -9 4q-2 5 3.5 11.5t4.5 8.5q0 1 -2 1q-2 -1 -8 -5t-9 -5q-7 -1 -9 4q-2 6 5 9q2 1 5 0.5t6 -0.5q7 0 9 1q2 0 2 2q-1 2 -9 4.5t-9 7.5q-2 7 5 9q4 1 7 -1.5t5 -6t3.5 -6.5t3.5 -3q2 1 1.5 4t-0.5 7t0.5 7.5t5.5 4.5q4 2 6.5 0t2.5 -4q2 -5 -4 -11
t-5 -8q0 -1 2 -1q3 0 9 4q1 1 2 1.5t2 1.5q-3 11 -5.5 22.5t-4.5 23.5h-6h-10q-3 0 -1 -2q0 -2 7.5 -5t9.5 -7q2 -7 -6 -9q-5 -1 -7.5 1.5t-4 6t-3 6.5t-3.5 3t-1.5 -3.5t0.5 -7.5t-1.5 -7.5t-5.5 -4.5q-7 -2 -9 5q-2 5 4.5 11t5.5 8q0 1 -3 1q-2 0 -8 -4q-3 -2 -9 -4
q-7 -1 -9 5q0 7 6 8q7 0 10 -1h10q3 0 1 2q0 3 -7.5 6t-9.5 8q0 7 7 8q4 1 6.5 -2t4 -6.5t3 -6.5t3.5 -3t2 3.5v7.5t1 7.5t6 4.5q7 0 9 -6q1 -5 -5.5 -10.5t-5.5 -7.5q0 -1 2 -1q3 0 9 4l6 3q-2 11 -3.5 23t-3.5 23q-5 0 -8 1q-2 0 -4.5 0.5t-4.5 -0.5q-2 0 -2 -1q1 -3 8 -6
t8 -8q2 -6 -6 -8q-5 -1 -7 2t-3.5 6.5t-2.5 6.5t-3 3t-2.5 -3.5t-0.5 -7t-1.5 -7t-5.5 -4.5q-9 -2 -9 5q-1 5 5.5 10.5t5.5 8.5q0 1 -2 1q-3 0 -9 -4q-2 -1 -4.5 -2t-4.5 -1q-8 -2 -8 5q-2 6 6 8q2 0 5 -0.5t5 -0.5q2 -1 4.5 -1h4.5t2 2t-7.5 5.5t-8.5 8.5q0 8 7 8
q4 1 6.5 -2t4 -7t2.5 -7t3 -3t2 3.5t0.5 7.5t1.5 7.5t6 3.5q9 2 9 -6q1 -5 -5.5 -10t-6.5 -7t2 -2q6 2 9 4q2 1 4 1.5t4 1.5q-2 11 -2.5 23t-1.5 23q-2 0 -4.5 0.5t-4.5 0.5q-8 2 -10 2l-2 -2q1 -3 8 -6.5t8 -8.5q0 -7 -7 -7q-5 -1 -7 2t-3 6.5l-2 7t-3 3.5t-2.5 -3.5
t-1 -7.5t-2.5 -7.5t-6 -3.5q-8 -2 -8 6q-1 5 6 10t6 8q0 1 -2 1q-3 0 -9 -3q-2 -1 -4.5 -1.5t-4.5 -1.5q-8 0 -8 6q0 7 7 7q2 0 4.5 -0.5t5.5 -0.5q6 -2 9 -2q2 0 2 2t-7.5 6t-7.5 9q0 8 7 8q4 0 6.5 -3t3.5 -7t2 -7t3 -3t2 3.5t1 7t2.5 7t6.5 3.5q8 0 8 -6q0 -5 -6.5 -10
t-6.5 -7q0 -3 2 -1q3 0 9 2q2 1 4.5 2t4.5 1q-1 12 -1 23.5t-1 22.5q-2 0 -4.5 0.5t-4.5 0.5q-8 2 -9 2q-3 0 -2 -1q0 -3 7 -7t7 -9q0 -7 -8 -7q-5 0 -6.5 3t-2.5 7t-1.5 7t-2.5 3t-3 -3.5t-1.5 -7t-2.5 -7t-6 -3.5q-8 0 -8 7q0 5 7 9.5t6 7.5l-2 1q-1 0 -9 -2q-2 -1 -5 -2
t-5 -1q-7 0 -7 6q0 7 7 7q4 0 10 -2q8 -2 9 -2q2 0 2 2t-7 6.5t-7 9.5q0 7 8 7q4 0 6 -3.5t3 -7t1.5 -7t2.5 -3.5t3 3.5t1.5 7t2.5 7t7 3.5q7 0 7 -7q0 -5 -7 -9.5t-7 -6.5t3 -2q2 0 4 1t5 1q4 3 9 3q0 12 0.5 23.5t0.5 22.5q-2 0 -10 2q-2 1 -4.5 2t-4.5 1t-2 -2t7 -6.5
t7 -9.5q0 -7 -8 -7q-5 0 -6.5 3.5t-2.5 7t-1.5 7t-2.5 3.5t-3 -3t-2 -7t-3 -7t-6 -3q-3 0 -5.5 2t-1.5 5q0 5 7 9t7 7q0 2 -2 2q-3 0 -9 -2t-10 -2q-7 0 -7 7q0 6 8 6q2 0 4.5 -1t4.5 -2q8 -2 9 -2q3 0 3 1q0 3 -7 7.5t-6 9.5q0 7 8 7q4 0 6 -3.5t2.5 -7.5t1 -7.5t2.5 -3.5
t2.5 3.5t1.5 7t3 6.5t7 3q8 0 8 -7q-1 -5 -8 -9t-7 -7l2 -1q2 0 4 0.5t5 0.5q6 2 10 2q2 30 3 47q-1 1 -1.5 1t-1.5 1q-2 1 -4.5 2t-4.5 1t-2 -1q0 -3 6.5 -8.5t5.5 -10.5q0 -7 -8 -7q-5 1 -6.5 4.5t-2 8t-0.5 8t-2 3.5t-3 -3.5t-2 -7.5t-3.5 -7t-6.5 -3q-9 0 -7 8
q0 5 7.5 9.5t7.5 6.5t-2 2q-2 1 -9 -1q-2 0 -5 -0.5t-5 -0.5q-7 1 -7 8q2 7 8 6q4 0 10 -4q2 -1 4.5 -2t4.5 -1t2 1q0 3 -6.5 9t-5.5 11q2 8 9 6q4 -1 5.5 -4.5t2 -8t0.5 -8t2 -3.5t3 3t2.5 7t3.5 7.5t7 2.5q3 -1 5 -3h2q4 1 7.5 1t6.5 1q0 -6 -0.5 -13.5t-1.5 -15.5v-1
q0 -1 -1 -2q-2 -20 -3 -46t-1 -56q0 -89 15 -177.5t56 -176.5l1 -1v-2h2q4 -1 9 -1t10.5 -0.5t13.5 -0.5q18 -2 40.5 -2h43.5q36 0 75.5 1t83.5 7q16 2 34 4.5t35 6.5q14 3 27.5 7t27.5 9q9 3 17 7q4 1 12 5q-1 -2 -1 -3t-1 -3q5 2 11.5 0.5t8.5 0.5v3l-4 2t-5 2q-2 2 -6 4
q-58 -25 -128.5 -35.5t-135.5 -12.5h-15t-19.5 0.5t-20 0.5h-15.5q-26 1 -46.5 1t-47.5 2h-2q-10 18 -17.5 37t-14.5 39q-6 21 -11.5 42t-10.5 43q0 2 -0.5 4.5t-0.5 4.5q-9 48 -12.5 94.5t-3.5 87.5q0 26 1 49t3 43q1 11 2 21t3 21q7 2 13 2.5t11 1.5q-4 -21 -8 -60.5
t-4 -91.5q0 -69 12.5 -150.5t48.5 -162.5v-1h2q16 -2 37 -4q17 -2 41.5 -3t53.5 -1q42 0 89.5 3.5t94.5 14.5q2 1 4 1t4 1h1q26 5 51 14q6 2 13 5t13 6q1 1 3 2q1 1 2 1t2 1q10 5 16 9t14 9q-4 -8 -8 -15t-8 -13q2 -2 6 -8t6 -8t2 0q2 2 -0.5 10t-0.5 11q1 4 9 2
q5 -2 5 -5.5t-1.5 -7.5t-3.5 -7.5t0 -4.5q2 -2 4.5 1t5.5 6.5t7 6.5t8 2zM89 640q1 4 1 7.5t1 6.5q-2 -5 -9 -8t-7 -6l2 -2q2 0 4.5 0.5t4.5 0.5q1 0 1.5 0.5t1.5 0.5zM258 123q-1 4 -1 10q-5 -1 -10 -1.5t-5 -2.5q-1 -2 5 -3t11 -3zM244 147q-1 -1 -2 -3t-5 -6q0 -2 2 -2
t5.5 4t7.5 7h-8zM263 75l-3 33q-1 0 -1.5 -0.5t-1.5 -0.5q-6 1 -11 8t-8 7q-2 0 -2 -2zM304 143q1 3 4 3h-4v-3zM356 135q2 0 2 2q0 4 -3 9v2q-5 -1 -14 -1q5 -2 9 -7t6 -5zM365 135q2 0 6 5.5t9 8.5q-4 0 -7.5 -0.5t-6.5 -0.5q-1 0 -1 -2q-2 -6 -2 -9q0 -2 2 -2zM427 139
q3 0 1 2q0 4 -3 9q0 1 -1 2q-4 0 -7 -0.5t-7 -0.5q5 -2 9.5 -7t7.5 -5zM435 140q3 0 6.5 6.5t8.5 8.5q-4 0 -7.5 -0.5t-7.5 -0.5v-3q-2 -6 -2 -9q0 -2 2 -2zM497 149q4 0 1 3q0 2 -4 8q0 1 -0.5 1t-0.5 1q-10 -2 -15 -2q5 -1 10.5 -6.5t8.5 -4.5zM505 151q3 1 5.5 7.5
t7.5 9.5q-8 -2 -14 -4l-1 -2q0 -3 -0.5 -5t0.5 -4q0 -2 2 -2zM564 170q2 0 0 2q-2 4 -6 7v1l-6 -2t-7 -2q5 -1 11 -4.5t8 -1.5zM571 173q2 2 2.5 6t1.5 9q-2 -1 -4.5 -2t-4.5 -2v-1q1 -2 1 -4.5t1 -4.5q1 -1 3 -1z" />
    <glyph glyph-name="guillemotright" unicode="&#xbb;" horiz-adv-x="512" 
 />
    <glyph glyph-name="a" unicode="a" horiz-adv-x="1204" 
d="M776 793q114 -11 187.5 -57.5t117.5 -111t63.5 -138t24.5 -139t1 -113.5t-7 -62l-138 -155l-29 9q-5 2 -9 3q-10 2 -14 2q-2 0 -21 -12t-50 -29.5t-70 -37t-79 -34.5t-78 -22t-67 0q-5 -13 -14.5 -40t-19.5 -54.5t-17.5 -49t-8.5 -22.5q-2 -5 -6 -6l-6 -2l-32 9
q-2 -3 -8 -13.5t-13.5 -21.5t-13.5 -21t-7 -12q-2 -3 -8 -5q-3 -1 -5 -1l-41 37q9 12 22 30.5t25 37.5t21 34t11 19q5 8 6 8t1 -1q9 14 14.5 32.5t8.5 35.5q4 19 5 38l5 5l9 -5l9 28q-9 18 -12 44t6 65q7 31 12.5 63t9.5 58.5t6 45t2 21.5l-190 6q-65 -19 -123 -34
q-51 -13 -102 -24.5t-82 -13.5q-24 -1 -38.5 0.5t-15.5 8.5q-1 10 7 16t22 11q7 2 31.5 13.5t51.5 23.5q32 14 69 32q5 129 53 235q21 45 53 89t79.5 80.5t112 62t149.5 33.5q10 14 27 22.5t37 8.5q22 0 39 -8t27 -22zM684 187q-1 -5 -5.5 -26.5t-9.5 -46.5q-6 -29 -13 -64
q41 2 68.5 18t44 35.5t23.5 37t8 22.5q2 5 0.5 13t-3.5 16q-3 9 -5 19q-10 3 -19 6q-8 2 -15.5 4.5t-11.5 4.5q-8 2 -22 -1.5t-21 -8.5q-4 -3 -7 -8l-6 -10q-4 -5 -6 -11zM727 -13q21 1 38 7.5t29 14.5q14 9 24 21z" />
    <glyph glyph-name="R" unicode="R" horiz-adv-x="460" 
d="M346 792q45 -28 71.5 -75t26.5 -104q0 -33 -9.5 -63.5t-27 -56t-42 -45t-53.5 -31.5v-482l-71 -94l-86 76l8 12q3 5 6.5 10t5.5 7l2 4q0 1 -1 2t-2 3t-2 3l-17 21l20 26q2 1 4 3q4 4 4 8q0 3 -2 7q-1 2 -1 3l-18 19q7 11 13 21q5 8 9.5 16.5t6.5 11.5q1 4 1 10q0 3 -1 5
l-11 23l6 12q2 5 5 10t5 9q2 5 2 8t-1 5q-1 3 -3 5l-27 29l8 20l-19 39q0 6 1 12q1 5 1.5 10t0.5 8q0 5 -4 7q-2 1 -3 1l-14 -2q-4 -2 -8 -1t-7.5 4t-6.5 11t-3 13.5t2 10.5t6 10q6 7 10 13q4 5 7 10.5t4 8.5q0 7 -2 15q-3 14 -17 31q-47 28 -75.5 76t-28.5 107
q0 44 16.5 82.5t45.5 67.5t67.5 45.5t82.5 16.5q32 0 61 -9t54 -25zM232 652q22 0 37 15.5t15 36.5q0 22 -15 37t-37 15t-37 -15t-15 -37q0 -21 15 -36.5t37 -15.5z" />
    <glyph glyph-name="trademark" unicode="&#x2122;" horiz-adv-x="957" 
 />
    <glyph glyph-name="Ccedilla" unicode="&#xc7;" horiz-adv-x="1334" 
 />
    <glyph glyph-name="twosuperior" unicode="&#xb2;" horiz-adv-x="1332" 
 />
    <glyph glyph-name="threesuperior" unicode="&#xb3;" horiz-adv-x="901" 
 />
    <glyph glyph-name="acute" unicode="&#xb4;" horiz-adv-x="840" 
 />
    <glyph glyph-name="paragraph" unicode="&#xb6;" horiz-adv-x="728" 
 />
    <glyph glyph-name="periodcentered" unicode="&#xb7;" horiz-adv-x="1011" 
 />
    <glyph glyph-name="cedilla" unicode="&#xb8;" horiz-adv-x="981" 
 />
    <glyph glyph-name="onequarter" unicode="&#xbc;" horiz-adv-x="811" 
 />
    <glyph glyph-name="onehalf" unicode="&#xbd;" horiz-adv-x="725" 
 />
    <glyph glyph-name="Agrave" unicode="&#xc0;" horiz-adv-x="850" 
 />
    <glyph glyph-name="Aacute" unicode="&#xc1;" horiz-adv-x="742" 
 />
    <glyph glyph-name="Acircumflex" unicode="&#xc2;" horiz-adv-x="986" 
 />
    <glyph glyph-name="Atilde" unicode="&#xc3;" horiz-adv-x="765" 
 />
    <glyph glyph-name="Adieresis" unicode="&#xc4;" horiz-adv-x="1057" 
 />
    <glyph glyph-name="Aring" unicode="&#xc5;" horiz-adv-x="1188" 
 />
    <glyph glyph-name="AE" unicode="&#xc6;" horiz-adv-x="860" 
 />
    <glyph glyph-name="Egrave" unicode="&#xc8;" horiz-adv-x="1242" 
 />
    <glyph glyph-name="Eacute" unicode="&#xc9;" horiz-adv-x="893" 
 />
    <glyph glyph-name="Ecircumflex" unicode="&#xca;" horiz-adv-x="833" 
 />
    <glyph glyph-name="Edieresis" unicode="&#xcb;" horiz-adv-x="670" 
 />
    <glyph glyph-name="Igrave" unicode="&#xcc;" horiz-adv-x="955" 
 />
    <glyph glyph-name="Icircumflex" unicode="&#xce;" horiz-adv-x="854" 
 />
    <glyph glyph-name="Idieresis" unicode="&#xcf;" horiz-adv-x="833" 
 />
    <glyph glyph-name="Eth" unicode="&#xd0;" horiz-adv-x="772" 
 />
    <glyph glyph-name="Ntilde" unicode="&#xd1;" horiz-adv-x="730" 
 />
    <glyph glyph-name="Oacute" unicode="&#xd3;" horiz-adv-x="957" 
 />
    <glyph glyph-name="Ocircumflex" unicode="&#xd4;" horiz-adv-x="974" 
 />
    <glyph glyph-name="Otilde" unicode="&#xd5;" horiz-adv-x="898" 
 />
    <glyph glyph-name="Odieresis" unicode="&#xd6;" horiz-adv-x="938" 
 />
    <glyph glyph-name="multiply" unicode="&#xd7;" horiz-adv-x="736" 
 />
    <glyph glyph-name="Oslash" unicode="&#xd8;" horiz-adv-x="1151" 
 />
    <glyph glyph-name="Ugrave" unicode="&#xd9;" horiz-adv-x="1032" 
 />
    <glyph glyph-name="Uacute" unicode="&#xda;" horiz-adv-x="692" 
 />
    <glyph glyph-name="Ucircumflex" unicode="&#xdb;" horiz-adv-x="852" 
 />
    <glyph glyph-name="Yacute" unicode="&#xdd;" horiz-adv-x="1059" 
 />
    <glyph glyph-name="Thorn" unicode="&#xde;" horiz-adv-x="1018" 
 />
    <glyph glyph-name="adieresis" unicode="&#xe4;" horiz-adv-x="901" 
 />
    <glyph glyph-name="ae" unicode="&#xe6;" horiz-adv-x="1076" 
 />
    <glyph glyph-name="egrave" unicode="&#xe8;" horiz-adv-x="1157" 
 />
    <glyph glyph-name="eacute" unicode="&#xe9;" horiz-adv-x="664" 
 />
    <glyph glyph-name="ecircumflex" unicode="&#xea;" horiz-adv-x="1042" 
 />
    <glyph glyph-name="igrave" unicode="&#xec;" horiz-adv-x="1066" 
 />
    <glyph glyph-name="icircumflex" unicode="&#xee;" horiz-adv-x="725" 
 />
    <glyph glyph-name="idieresis" unicode="&#xef;" horiz-adv-x="1327" 
 />
    <glyph glyph-name="eth" unicode="&#xf0;" horiz-adv-x="893" 
 />
    <glyph glyph-name="ograve" unicode="&#xf2;" horiz-adv-x="833" 
 />
    <glyph glyph-name="oacute" unicode="&#xf3;" horiz-adv-x="833" 
 />
    <glyph glyph-name="ocircumflex" unicode="&#xf4;" horiz-adv-x="1252" 
 />
    <glyph glyph-name="otilde" unicode="&#xf5;" horiz-adv-x="881" 
 />
    <glyph glyph-name="odieresis" unicode="&#xf6;" horiz-adv-x="1054" 
 />
    <glyph glyph-name="divide" unicode="&#xf7;" horiz-adv-x="966" 
 />
    <glyph glyph-name="ydieresis" unicode="&#xff;" horiz-adv-x="594" 
 />
    <glyph glyph-name="ugrave" unicode="&#xf9;" horiz-adv-x="1132" 
 />
    <glyph glyph-name="ucircumflex" unicode="&#xfb;" horiz-adv-x="725" 
 />
    <glyph glyph-name="udieresis" unicode="&#xfc;" horiz-adv-x="1011" 
 />
    <glyph glyph-name="yacute" unicode="&#xfd;" horiz-adv-x="871" 
 />
    <glyph glyph-name="notequal" unicode="&#x2260;" horiz-adv-x="540" 
 />
    <glyph glyph-name="ogonek" unicode="&#x2db;" horiz-adv-x="716" 
 />
    <glyph glyph-name="infinity" unicode="&#x221e;" horiz-adv-x="541" 
 />
    <glyph glyph-name="partialdiff" unicode="&#x2202;" horiz-adv-x="667" 
 />
    <glyph glyph-name="caron" unicode="&#x2c7;" horiz-adv-x="524" 
 />
    <glyph glyph-name="greaterequal" unicode="&#x2265;" horiz-adv-x="535" 
 />
    <glyph glyph-name="Omega" unicode="&#x3a9;" horiz-adv-x="1098" 
 />
    <glyph glyph-name="lozenge" unicode="&#x25ca;" horiz-adv-x="759" 
 />
    <glyph glyph-name="summation" unicode="&#x2211;" horiz-adv-x="1006" 
 />
    <glyph glyph-name="radical" unicode="&#x221a;" horiz-adv-x="1010" 
 />
    <glyph glyph-name="n" unicode="n" horiz-adv-x="1258" 
d="M1239 60q2 -8 3 -14.5t1 -14.5q0 -28 -10.5 -52.5t-28.5 -42.5t-42.5 -28.5t-52.5 -10.5q-35 0 -64 16t-47 43l-89 146q-20 -22 -47 -34.5t-59 -12.5q-46 0 -82.5 26.5t-50.5 68.5h-90q-14 -42 -50 -68.5t-83 -26.5q-32 0 -58.5 12.5t-46.5 34.5l-89 -146
q-18 -27 -47 -43t-64 -16q-28 0 -52.5 10.5t-42.5 28.5t-28.5 42.5t-10.5 52.5q0 14 3 29l64 371q8 42 33 74.5t60 52.5q1 39 14.5 61.5t30 34t32 14t21.5 2.5q7 0 23 -3t33 -14.5t30 -35t13 -65.5q1 -1 2 -1q9 6 27.5 18t41.5 24t47.5 21.5t45.5 11.5q21 1 38 -6t31 -19
t24 -26.5t18 -27.5h238q2 2 3.5 2.5t3.5 2.5q1 42 14 65.5t29.5 35t32.5 14.5t23 3t22.5 -2.5t32 -14t29.5 -34t15 -61.5q35 -20 59.5 -52.5t32.5 -74.5zM531 601q-14 -1 -31 -6.5t-33.5 -13.5t-32.5 -17t-29 -17h206q-14 23 -34 39.5t-46 14.5z" />
    <glyph glyph-name="I" unicode="I" horiz-adv-x="1546" 
d="M1525 856q0 -10 -5 -15q0 -4 -1 -11q-1 -6 -3.5 -17t-8.5 -28q-4 -8 -12.5 -21.5t-14.5 -18.5q-2 -2 -8 -3.5t-8 -1.5q-1 -1 -2 -1.5t-2 -1.5t-2 -3l1 -9q-1 -1 -1 -2q-1 -1 -2 -1q-1 -1 -8 -1.5t-15 -1.5q-10 -1 -22 -3l1 -6q0 -1 -1 -2q-2 -2 -4 -3q-1 0 -5.5 -0.5
t-11.5 -1.5q-1 -1 -1 -1.5t-1 -1.5l-1 -1v-5l-1 -1v-1q0 -1 -0.5 -2t-0.5 -2q-2 -8 -5 -11q-2 -2 -4.5 -7t-7.5 -10l-10.5 -10.5t-11.5 -9.5h-1q-2 -1 -4.5 -1.5t-5.5 -2.5q-3 -1 -9 -3.5t-13 -4.5l19 -6q2 -1 5 -2q4 -2 6 -6q2 -5 -4 -13q-2 -2 -2.5 -4t-2.5 -4
q-2 -3 -3 -4q1 -10 -3 -19q-3 -8 -11 -16.5t-22 -13.5l-19 -31v-10q0 -2 1 -3q1 -2 7 -5q2 -2 4 -2.5t4 -1.5l2 -1l1 -1q2 -2 2 -4t-1 -7t-3 -10l39 -2q1 -1 3 -2q3 -3 3 -6q0 -2 -4 -6l-3 -3l-25 -3v-2q0 -3 2 -4v-6l4 -25h5l-1 9l6 4l5 -6q4 0 5 -1t1 -6l70 -81q2 0 3 -1
q2 -2 3 -2q0 -1 2 -5q0 -2 2 -7.5t4 -11.5q3 -7 5 -16q-1 -1 -1 -2q-2 -2 -3 -2l-35 41l-7 -2l2 -7l35 -49q0 -2 1 -4q0 -2 0.5 -3.5t-1.5 -3.5t-4.5 -0.5t-5.5 3.5q-4 2 -8 5l-32 37q-6 -3 -11 -7q-10 -7 -20 -10q18 -23 28 -51t10 -59q0 -38 -14 -70.5t-38.5 -57
t-57.5 -38.5t-70 -14q-48 0 -87 21.5t-63 57.5q-2 0 -3 0.5t-2 0.5h-2v10q-1 2 -1.5 3.5t-2.5 3.5l-5 1l-9 2l-4 -3q-11 2 -19.5 3t-14.5 2h-13l-3 -5l-5 -1l-4 -1l-6 3l-19 -1l-16 -66q2 -2 2 -4q0 -7 -10 -7q-10 2 -10 8q0 4 5 6l1 7l-5 2l-6 -27h-4v-2l8 -2l-1 -4l12 -4
q0 -2 -1 -4.5t-2 -5.5q-1 -4 -2 -7l-13 3l-1 -3h-6q-1 -5 4 -9.5t12 -9.5q8 -5 18 -11v-3q1 -2 6 -4.5t7 -2.5q1 0 5.5 0.5t7.5 0.5q0 5 2 7q5 5 10 0l10 -10q5 -5 1 -11q-5 -5 -10 0l-3 2q-5 -1 -11.5 -1h-11.5q-4 0 -11.5 2.5t-16 6t-16.5 8t-13 9.5t-6 10.5t0 10.5t4 11
l4 33q-3 3 -3 7q0 7 6 9l4 37q-2 0 -8.5 0.5t-16.5 1.5l-5 -57l-6 6h-6l6 52l-18 2t-19 2q-14 2 -23 4.5t-16 4.5q-8 3 -13 5h-8l-2 -2l-16 -1l-10 -9l-40 12l-13 12l-4 -7l-6 1l-5 2l-9 2l-2 -5l-4 -1l-8 6l-3 1v4l-3 2l-2 9q-49 -5 -93.5 -7.5t-78.5 -4t-54.5 -1.5h-21.5
t-4.5 3.5t-7.5 8t-7.5 8.5t-4.5 5q-2 1 -3.5 1.5t-3.5 1.5t-4 1l-2 1q-11 -21 -28 -40t-39.5 -33.5t-49 -22.5t-54.5 -8q-37 0 -62 14.5t-40.5 33t-22 36.5t-6.5 26q0 2 1.5 18t9.5 39q-8 6 -9 12q-1 7 2.5 16t12.5 23q4 7 15.5 19.5t25 26.5t26.5 26t20 17q-2 1 -7 7
t-10 14t-9.5 17t-4.5 17q0 3 2 8t10 11q5 19 13 37q6 15 15 31t20 27l12 16q5 6 9.5 11t8.5 7q18 20 37 42q17 19 38 42l42 46q1 1 3 2q2 2 4 2v6q-2 2 -3 4q-2 4 -2 8t8.5 25t43.5 63q9 11 15 17t10.5 10t9 7.5t11.5 9.5q2 0 5 2l12 9q-8 5 -10.5 14t-2.5 14q-2 3 -4.5 6
t-3.5 8q-1 0 -2 1l-2 2q-1 11 2 20q2 8 9 15t21 11q3 1 7 -0.5t7 -6.5t7 -17.5t6 -23.5q5 7 8 15.5t6 18.5h1l4 -2q3 -2 20 -14t31 -25q2 -2 6.5 -11.5t-0.5 -26.5t-15 -35.5t-34 -40.5l12 -10q3 0 8 -1q5 -2 12.5 -4.5t19.5 -8.5v6q-1 2 -1 4t-1 4t-1 4q0 7 4 13q2 3 3 5h3
q0 1 1 2l1 1l1 1h1q-2 14 7 28.5t14 19.5t11 8.5t15 1.5q19 -4 30.5 -12t17 -17.5t6.5 -18.5t1 -15t-5.5 -9.5t-13 -5.5t-15 -3t-11.5 -1q-5 -1 -11 0t-12 3q-7 2 -15 4l-16 -7l-2 -20l1 -1l5 1v-2l4 -2l4 -2l1 -1q3 -2 6 -5q6 -6 6 -8v-9l53 -30q1 1 3 0q5 -2 3 -8l9 -4
q3 -1 1 -9q-2 -7 -8 -5l-9 5q-2 -2 -7 -2q0 1 -0.5 1t-0.5 1l-56 30l-2 1l-11 -8h-2q-3 0 -4 1l-6 3q-2 1 -3 2l-2 -2q14 -12 23 -29.5t12 -23.5l1 -2q0 -6 -6 -7t-8 5q0 5 5 7q-1 4 -7.5 12.5t-13.5 17.5q-5 7 -8.5 8.5t-5.5 1.5l-1 -1q-3 -4 -6 -7l-6 -8q-1 -2 -8 -7.5
t-27 -4.5q9 -7 15 -15q5 -7 9.5 -16t5.5 -20q1 -15 -28 -36q-8 -5 -21.5 -14.5t-27.5 -19.5q-17 -11 -35 -24q0 -4 -1 -8t-1.5 -8t0.5 -6q1 -6 10 -29.5t35 -55.5t34.5 -41.5t11.5 -12.5t9 -7t14 -4t17.5 2.5t26.5 9.5q8 4 14 6.5t10 4.5l8 4q1 1 2 1h2l3 2q0 1 1 2
q0 1 0.5 2t0.5 3q0 5 -4 13t-10 13l-30 11q-2 1 -4 5q-4 6 -4 17q0 6 6.5 17t17.5 25t25.5 29.5t29.5 29.5q32 29 48 36t21 8q5 2 18 2t30 -1q9 0 28.5 -0.5t43.5 0t48 3t42 7.5q3 5 8 10q9 9 33 24q3 6 6 11q2 5 5 9.5t7 7.5q6 6 19.5 7t21.5 0t21.5 -2t27.5 -6l164 37h4
q4 0 6 -1q3 -3 5 -4t3 -2l12 4l12 11l15 5v5l-9 1v2v3l1 1q-2 0 -4 1q-4 2 -6 4l-10 10q-1 1 -2 3t-1 8v4q-5 4 -9 11q-8 11 -14 34q-1 0 -2 1q-2 2 -2 3q-1 2 -3 12l-2 10l-2 2l-3 3q-1 1 -1 4t-1 5l-2 6l-1 3h-5q-1 1 -2 3q-2 5 0 8l5 1v8q0 8 3 11q-1 23 2 42
q2 17 7.5 33.5t17.5 24.5t31 12.5t37.5 6.5t32.5 2.5t16 0.5h13.5t28 -2t36.5 -6.5t38 -14.5v-1q7 -2 16 -8q8 -5 18 -15.5t22 -27.5q1 -3 3 -5q2 -3 4 -7v-8q0 -2 1 -4h-1v-3q0 -2 1 -4q0 -2 0.5 -3.5t0.5 -3.5zM483 747l6 -5h5l-9 8zM438 841q2 3 4.5 5.5t4.5 5.5
q-2 -1 -9 -1v-10zM130 150q1 5 4 9q2 4 5.5 8t8.5 8q-7 0 -15 0.5t-16 1.5q-7 -15 -7 -29q0 -2 0.5 -4.5t0.5 -4.5zM245 133l-7 10q-3 -1 -5 0q-2 0 -3 1l-2 -11q2 0 6 -4q2 -2 3 -4h6zM1136 350q-1 0 -1 3q0 1 1 3l-3 7l-1 4l-3 11l-97 -45q13 2 22.5 1.5t16.5 -1.5
q8 -1 13 -3q6 2 14 5q7 2 16 5.5t22 6.5v3zM1248 92q21 16 30 41q0 2 -1 5t-5 3h-21l-11 -11v-10q0 -4 -1 -7t-3 -7l2 -9q1 -3 2 -5q2 -4 8 0zM1258 205v-8l-5 -2l1 -3h21q1 1 2 3q2 4 2 6q-11 25 -30 41l3 -24v-8zM1278 149q2 0 2 2t-2 2t-2 -2t2 -2zM1282 378q-5 5 -12 11
t-12 12q-6 5 -13 9t-12 6q-6 3 -12 4l-51 -23l6 -9l6 -3l1 -5l2 -1l1 -5l3 -3l1 -4l4 -4v-3l4 -6q8 -1 14 -2t11 -2q5 -2 10 -3l61 19zM1318 692q-1 -2 -1.5 -2.5t-1.5 -2.5h7q1 0 2 -1t2 -1.5t2 -2.5q3 -5 -3 -11q4 2 5 2q3 2 7 6q1 2 1 3t1 2v2l-1 7l-2 -1v3
q-11 -2 -18 -3zM1305 687h3v4q-1 0 -2 -1h-1v-3zM1374 698h-1v2q-5 -1 -11.5 -1.5t-12.5 -1.5l1 -4h-2l1 -7q0 -4 -2 -9q-2 -3 -4.5 -6.5t-7.5 -6.5q-5 -2 -13 -5.5t-17 -8.5q-7 -3 -13.5 -6t-12.5 -5l4 -1q6 0 14.5 1t15.5 3h1h1q8 2 14.5 4.5t11.5 4.5q4 3 8.5 7.5
l9.5 9.5q9 10 11 15q2 4 3 7q1 2 1 5v3z" />
    <glyph glyph-name="j" unicode="j" horiz-adv-x="1179" 
d="M1140 349q4 -10 8 -19q2 -8 3.5 -15t-3.5 -9t-26.5 6t-47.5 20t-49.5 25.5t-30.5 21.5l-2 16l-51 53q-7 6 -15 10q-7 4 -15.5 7.5t-18.5 5.5q18 -19 49.5 -52.5l63 -67t55.5 -59t27 -29.5q13 -17 4 -27q-3 -3 -8 -3t-10 2q-6 2 -12 6l-79 48q-35 37 -64 68
q-25 26 -47.5 50t-28.5 30t-11 6.5t-9 -1.5q-2 -2 -4 -3t-4 -3q5 -5 22 -23t40.5 -43t49.5 -52.5t48.5 -51.5t38 -41t17.5 -20q13 -17 4 -26q-3 -3 -8 -3t-10 2q-6 2 -12 5l-78 47q-36 39 -67 72l-26 28t-24 25.5t-19 20t-11 11.5q-10 10 -21 4q-2 -2 -4 -3t-4 -3
q2 -2 18.5 -20t40.5 -44t51.5 -55.5t51.5 -56t41 -45t19 -21.5q8 -10 7 -17.5t-6 -12.5q-6 -6 -16 -2q-5 1 -10 4l-83 57q-37 41 -68 75q-13 14 -26 28.5t-23.5 26.5t-18.5 20.5t-11 11.5q-7 6 -12 6t-10 -2q-5 -3 -9 -7v2q-2 -2 -3 -2q4 -5 22 -24.5t42 -46t51.5 -57
t51 -57t40 -44.5t18.5 -21q7 -10 6 -17.5t-6 -12.5q-6 -6 -16 -2q-5 1 -10 4l-81 56q-38 44 -70 80q-14 15 -27 30.5t-24.5 28t-19.5 21.5t-11 12q-6 6 -11 6.5t-10 -1.5q-5 -4 -8.5 -7.5t-8.5 -6.5q2 -2 19.5 -21.5t42.5 -47.5t54 -60.5t54.5 -60.5t43 -48t20.5 -23
q7 -10 6 -17.5t-6 -12.5q-4 -4 -15 -2q-5 1 -11 3l-86 61q-39 45 -72 83q-14 16 -27.5 31.5t-25 28.5t-19.5 22.5t-11 12.5q-7 6 -12 6t-10 -2q-5 -3 -9 -7v1q-2 -2 -4.5 -3.5t-4.5 -3.5q6 -8 25.5 -30t45 -51t53.5 -61t51.5 -59.5t40 -46.5t18.5 -22q8 -9 7 -16.5t-6 -12.5
q-4 -4 -15 -2q-5 1 -11 3l-91 66q-39 45 -72 83q-14 16 -27.5 32t-25 29t-20 22t-11.5 12q-6 7 -11.5 7t-10.5 -2q-5 -5 -9 -8.5t-7 -5.5q-4 -3 -6 -5l234 -266q6 -10 10 -18q2 -8 1.5 -14.5t-9.5 -9.5q-17 -5 -44 6t-64 28q-19 8 -47.5 25.5t-59 38t-60 41t-50.5 35.5
q-11 7 -31.5 23.5t-47 38.5t-57 47t-60.5 50q-71 59 -155 129q-2 26 -1 49q1 20 5 38t15 26q5 3 29.5 18.5t60.5 38t80.5 49.5t89.5 55q106 65 239 146l135 18q10 1 22 -1q11 -2 25 -7.5t31 -19.5h12l381 -359v0z" />
    <glyph glyph-name="bar" unicode="|" horiz-adv-x="765" 
d="M711 105q-6 -21 -14.5 -40t-10.5 -43q-1 -7 -1.5 -14.5t0.5 -15.5q2 -8 3.5 -14.5t5.5 -12.5q1 -2 5.5 -2.5t6.5 -2.5q2 0 6 -4q5 -5 5 -13t-6 -13q-3 -2 -8.5 -4.5t-6.5 -5.5q-1 -2 -0.5 -4.5t-0.5 -4.5l-2 -2q-5 -1 -13 0.5t-10 3.5q-1 1 -1 6q-1 5 -1.5 9t-2.5 9
q-1 6 -3 11.5t-4 10.5q-3 11 -5.5 21.5t-3.5 24.5q-1 8 0 16l2 16q1 12 2 23t2 23q2 15 0 30q-1 3 -1 6.5t-1 5.5t-4.5 4t-5.5 4q-5 2 -9.5 4.5t-10.5 4.5q-7 2 -15 2.5t-16 0.5q-8 -1 -14.5 -1t-13.5 -1q-8 0 -17 -1.5t-17 -3.5q-2 0 -4.5 -0.5t-4.5 -0.5h-6q-2 -1 -1.5 -3
t0.5 -4q2 -14 3 -27.5t3 -27.5q0 -3 1 -7.5t0 -7.5q0 -1 -3 -3.5t-3 -3.5q-2 0 -4 0.5t-4 0.5q-6 1 -12 1t-11 1q0 4 -0.5 15.5t-1.5 23.5t-2.5 22t-2.5 11h-1q-2 1 -10 -1t-10 -2q-11 -2 -22 -2.5t-23 -1.5q-3 0 -7 -0.5t-8 -0.5q-8 1 -16 0.5t-16 0.5t-14.5 1.5t-14.5 1.5
q-12 2 -23.5 5t-23.5 5l-42 9h-3v-1q-2 -2 -2.5 -5.5t-1.5 -5.5q-4 -15 -6.5 -31.5t-4.5 -33.5q0 -6 -3 -7q-10 0 -15 -1h-7q-2 0 -4.5 1.5t-4.5 2.5q2 16 3.5 31t4.5 29q1 5 2 9.5t2 9.5q0 2 1 4t0 4l-4 1t-9.5 1.5t-10.5 1.5t-6 1q-38 3 -62 -8q-2 -1 -7 -4.5t-6 -4.5
q-1 -2 -2 -8t-1 -9q-1 -8 -0.5 -16t1.5 -15q2 -17 4 -32.5t4 -32.5q1 -8 -0.5 -14.5t-2.5 -11.5q-3 -14 -6.5 -25.5t-6.5 -25.5q-1 -3 -2 -13.5t-3 -12.5q-2 -1 -4 -1t-4 -1q-8 -1 -11.5 0t-4.5 9q-1 2 -1 3.5t-1 3.5q-2 3 -5.5 4t-6.5 3q-5 1 -9 9q-5 10 0 17.5t13 9.5
q2 1 6.5 1t5.5 1q3 2 4.5 12.5t1.5 15.5q2 13 -0.5 22.5t-4.5 20.5t-6 22t-7 22q-7 21 -11 43.5t-6 48.5q-1 10 0.5 20t3.5 18q3 16 6 29.5t8 27.5q3 8 5.5 16.5t4.5 16.5q1 2 2 5t2 5q1 5 0 11.5t0 12.5q1 8 0 15t-2 15q0 6 -0.5 12.5t-1.5 12.5q0 2 0.5 4t-0.5 4v1
q-2 1 -5 0.5t-5 -0.5l-5 2.5t-4 1.5q-9 5 -12 13q-1 2 -3 8q0 5 1 8q0 2 0.5 3.5t0.5 3.5q2 4 2 5q1 1 1 2q1 2 2 2.5t2 2.5q2 2 2.5 3t1.5 2q11 10 27 11q5 1 9 0.5t9 0.5q2 0 3.5 0.5t3.5 0.5q3 1 7 1t6 2h1q3 3 6 7t6 7q2 2 5 2.5t5 2.5v1q1 2 0 4l-2 4q-2 12 6 18
q2 2 4 2t4 1t2.5 2t2.5 2q5 3 14 1q3 0 4 2q4 11 3.5 26.5t-2.5 28.5q-4 24 -10.5 43.5l-13.5 40.5q-5 16 -9.5 31.5t-6.5 34.5q0 3 -0.5 6.5t0.5 7.5q0 5 0.5 11t1.5 11q0 2 1 5l2 6q6 22 19 35.5t31 24.5q2 1 3 2t3 2q11 5 22.5 9.5t23.5 8.5q11 3 22 4.5t23 3.5q2 0 4 2
t4 2q7 2 15.5 2t16.5 1q2 0 5.5 -0.5t5.5 0.5l1 1h2q1 0 1.5 0.5t1.5 0.5h4q2 0 3.5 -1t4.5 0q2 0 4 0.5t4 0.5t4.5 -0.5t4.5 -0.5q1 0 2.5 0.5t2.5 0.5q2 -1 2.5 -2t2.5 0q1 0 1.5 1t1.5 1q2 1 5 0.5t5 -0.5h1q3 -1 7.5 -1h7.5q2 0 3.5 0.5t3.5 0.5l9 -3q9 -1 18 -0.5
t17 -1.5q2 0 5.5 -1t5.5 -2l2 -2q11 -2 20 -4t19 -4q20 -6 36.5 -13t30.5 -18q6 -4 8 -7q6 -6 8 -10q3 -2 5 -5q8 -13 12.5 -34t2.5 -43q-2 -17 -6 -33t-9 -31q-8 -25 -16.5 -48t-10.5 -53q-1 -9 -1 -19t3 -18q0 -1 2 -5.5t2 -5.5q2 0 3.5 1t2.5 1q5 1 8.5 -1t6.5 -3
t5.5 -1.5t4.5 -2.5q3 -2 4.5 -8.5t-0.5 -11.5q-3 -3 -2 -6q0 -1 4 -1q3 -2 5.5 -4t5.5 -4t5.5 -4t5.5 -4q2 -2 3 -3.5t3 -2.5h1q2 -2 5.5 -3.5t6.5 -3.5q3 -3 4 -3q5 -2 11 -1.5t12 -0.5q14 -1 25.5 -5.5t17.5 -14.5q4 -6 5 -12q2 -14 -5 -22t-15 -13q-2 -1 -6 -2t-5 -3
t-1.5 -7t-1.5 -8q-2 -9 -4 -18.5t-3 -19.5q-1 -5 0 -8l2 -6q2 -8 3 -14t3 -13q7 -26 15 -49.5t11 -53.5q2 -25 -1 -48t-8 -43z" />
    <glyph glyph-name="bracketright" unicode="]" horiz-adv-x="1851" 
d="M1821 205q1 -6 1 -10q0 -10 -8 -13q-7 -2 -13.5 -2t-11.5 1q-24 -6 -49.5 -10t-48.5 -6t-41 -3.5t-27 -1.5q10 -28 10 -54q0 -30 -11.5 -56.5t-31 -46t-46 -31t-56.5 -11.5q-52 0 -91 31t-50 79q-8 7 -15 14.5t-13 13.5q-7 7 -13 14h-14q0 -8 -7 -11q-6 -3 -14 -3t-14 3
q-7 3 -7 10h-3l-220 -21v6h-7v-6h-29v10h-18v-9l-216 -7v7l-180 -6q2 -10 3 -25t3 -19q1 -4 0 -7q-1 -2 -2 -3q-8 -1 -15 0l-14 2t-14 4q-9 3 -14.5 18.5t-8.5 27.5l-22 -1l-60 -38q-17 -38 -52.5 -61t-79.5 -23q-30 0 -56.5 11t-46 30.5t-31 45.5t-11.5 56q-17 5 -33.5 8.5
t-31.5 5.5q-10 -8 -21 -8q-15 0 -23 11h-18h-6l-6 94l12 11l31 -52l6 -4h4q8 0 12 -2q0 7 1.5 31t9.5 53q-8 5 -8 17q0 9 5 15t12 6q3 0 4 -1q6 13 15 24l-10 -2q-5 0 -8.5 12.5t-3.5 29.5t3.5 29.5t8.5 12.5q2 0 10.5 -1.5t18.5 -5.5t19.5 -9.5t14.5 -14.5q24 15 55.5 26.5
t66 20t70.5 14t69 9.5q78 9 162 11l6 3h18l142 186v19q20 12 51 23q26 9 66.5 17.5t97.5 11.5h-1q19 1 42 3q77 3 143 3t123 -6.5t106 -22.5t91 -45q2 -2 8 -6l3 3q19 -15 37 -33q16 -15 34 -34.5t34 -41.5l-3 -4q27 -33 54 -69t51 -70t44.5 -64t34.5 -52h21q3 -6 6 -13
q5 -14 0 -28v-4q0 -5 -3 -6q-2 -2 -4 -3l-4 -2q-3 -1 -5 -2v-3h31zM989 553h-209l-42 -57v-3l28 -27h198q4 -1 8 -1h5.5t4.5 2q3 4 5 9t2 25v52zM989 564h-200h-1l-2 -4h203v4zM989 617q0 3 -2 7q-2 2 -5.5 4.5t-8.5 2.5q-3 0 -24 -1t-48.5 -6.5t-56.5 -17.5t-49 -34h194v45
zM1251 466q8 0 14.5 0.5t10.5 6.5q6 8 2.5 21t-11 26.5t-16.5 25.5t-14 18q-20 24 -51 37t-60 20t-51.5 8.5t-26.5 1.5q-6 0 -9 -2.5t-5 -4.5q-2 -4 -2 -7v-116q0 -20 2.5 -25l4.5 -9q1 0 1 -1l46 14q1 -2 4 -4q2 -2 4 -4.5t4 -5.5h153zM1281 109q1 1 3 4l-26 -1q0 -2 3 -3
q3 -3 10 -3t10 3zM1472 476q2 3 2.5 9.5t-5.5 19.5q-26 40 -52.5 62.5t-47.5 33.5q-25 13 -48 17v-20q16 -16 26.5 -34.5t16.5 -35.5t8.5 -30.5t3.5 -19.5q5 5 11.5 11t14.5 6q6 0 10 -1.5t6 -3.5q3 -2 4 -4q5 4 10 7q4 2 8.5 3t7.5 -3t1 -5.5t-6.5 -2t-10 -2t-9.5 -6.5
q-5 -5 -5 -14h30q11 0 16.5 5.5z" />
    <glyph glyph-name="backslash" unicode="\" horiz-adv-x="412" 
d="M398 301q4 -8 3.5 -22.5t-2.5 -22.5q-2 -10 -9 -15.5t-15 -10.5q-9 -8 -9.5 -12t1.5 -14q2 -5 -1 -8.5t1 -8.5q7 -8 6.5 -19t-0.5 -21q0 -24 1 -48.5t0 -48.5q0 -6 -2 -7.5t-5 -2t-6 -0.5t-5 -3t0.5 -6t4.5 -8q2 -7 -7.5 -10.5t-20 -6t-17 -5.5t1.5 -9q7 -6 2 -8.5
t-6 -8.5q0 -2 4.5 -4t4.5 -4q-1 -2 -4 -6t-3 -3q0 -3 5 -6.5t4 -6.5q0 -2 -2.5 -3.5t-4.5 -2.5q-8 -4 -4.5 -4t4.5 -4q0 -2 3 -3.5t3 -5.5q0 -2 -3.5 -3.5t-5.5 -2.5q-3 -3 0.5 -4.5t5.5 -3.5q7 -4 3 -5t-4 -4q0 -1 -2.5 -3t-2.5 -4q-1 -2 3.5 -3t4.5 -3q0 -5 -6 -9.5
t-1 -6.5q9 -5 7.5 -8t-7.5 -8q-4 -3 1.5 -4.5t5.5 -3.5q-1 -3 -1 -5t-0.5 -3.5t-0.5 -0.5q1 -1 -2 -3t-3 -4t4.5 -3.5t4.5 -4.5q0 -4 -2.5 -5.5t-4 -3t-1.5 -3t5 -4.5q4 -3 3.5 -5t-2.5 -3.5t-5 -3t-3 -3.5t3.5 -3.5t5.5 -3.5q3 -5 0 -6t-3 -3q1 -2 -3.5 -3t0.5 -4t5 -8
q-1 -5 -5.5 -8.5t-6.5 -8.5q-3 -7 -2 -11.5t-6 -9.5q-8 -6 -23.5 -6.5t-24.5 -1.5q-2 -1 -3 -8t-6 -9q-2 -1 -6.5 -1t-4.5 -2l-2 -28v-16t-5 -15q-5 -2 -19 -2.5t-19 2.5q-6 5 -4.5 16t1.5 19v22q0 4 -4 4t-6 2t-4.5 6.5t-4.5 6.5q-8 5 -21.5 4.5t-23.5 4.5q-3 1 -7 6t-7 11
t-4 11t2 8q4 3 -1.5 7t-5.5 8q0 2 4.5 3.5t4.5 3.5q0 3 -4 5t-4 4q0 5 3 7t4 7q0 3 -2 4.5l-4 3t-2 3.5t4 5q3 3 2.5 4.5t-2.5 3.5t-4 3.5t-1 4.5t3.5 4.5t4 2t1 2t-4.5 5.5q-5 3 -4 5t4 3.5t5 3t1 3.5q-4 5 -9 8t5 8q4 3 3.5 4.5t-3 3.5t-5 3.5t-1.5 4.5t3.5 4.5t4 3t1 3
t-5.5 5.5q-4 3 -3.5 4.5t3 3t4.5 3.5t1 5q-2 5 -7 6.5t4 7.5q4 3 3.5 4.5t-2.5 3t-4.5 3.5t-2.5 5t2.5 4.5t4.5 2.5t2 2.5t-5 5.5q-7 4 -1 7t7 8q1 4 -5 5.5t0 8.5q-11 3 -23 4t-23 9q-6 5 -2 10t6 11q-10 3 -14 10t-4.5 15.5t0.5 18.5t1 19q0 22 0.5 43.5t3.5 41.5
q2 10 2 21.5t-8 20.5q-6 7 -14.5 11.5t-13.5 12.5q-3 6 -4 20.5t1 21.5q3 11 10 14t15 9q9 7 11 16.5t7 19.5q10 19 30 20q2 1 12 1.5t11 2.5v17t1 17q0 23 -0.5 46.5t1.5 46.5q1 8 6.5 15.5t1.5 15.5q-4 7 -7.5 13t0.5 14q1 3 5 6.5t6.5 7t2.5 7.5t-7 7q-10 5 -8 11.5
t6 13.5l7.5 13.5t-8.5 12.5q-10 7 -4.5 14.5t10.5 13.5q4 6 3.5 9.5t-3 6t-6 5t-4.5 7.5q-2 6 1 9.5t6.5 6.5t6 6.5t1.5 9.5q-1 4 -3.5 6.5t-5 4t-4 4.5t0.5 9q3 11 8 26t19 17q9 1 15.5 1.5t11.5 2t8 5.5t3 12q0 2 -1.5 6t1.5 6v6q0 3 1 7q0 2 -0.5 2.5t-2.5 3.5t0.5 3
t2.5 2t-1.5 3.5t-1.5 3.5t2 3t2 4q0 1 -2 2.5t-2 3.5q0 3 3 3.5t-2 3.5q-4 3 -1 4t3 3t-2 4t-2 5q0 2 2.5 2.5t2.5 2.5t-3 2.5t0 4.5q2 4 3 8.5t5 7.5q6 4 20 4t20 -3q8 -5 7.5 -8.5t0.5 -8.5q0 -2 3 -5.5t-1 -5.5t1 -5q5 -4 1 -4.5t-4 -2.5l1 -3l3 -3q5 -4 0 -4t-5 -2t2 -3
t3 -3q3 -3 -1 -3.5t-4 -2.5t2 -3l4 -2q1 -1 -1 -2.5t-3 -2.5q0 -1 1 -4t1 -2q0 -1 -0.5 -2t-0.5 -2q-1 -1 -1 -2l3 -6q0 -2 -3 -5q0 -2 1.5 -4.5t1.5 -1.5q0 -1 -1 -2t-2 -3t-2 -3q3 -9 8.5 -11.5t13 -3.5l15 -2t13.5 -5q7 -5 9 -15t4 -18q3 -11 2 -15t-8 -12q-5 -5 -2.5 -9
t6.5 -8.5t7 -9.5t0 -12t-8.5 -9.5t-4.5 -10.5q2 -9 8.5 -9.5t6.5 -11.5q0 -10 -6.5 -12t-7.5 -10q-1 -5 0.5 -7t4 -3.5t5 -2.5t4.5 -4q4 -7 0 -13t-8.5 -11.5t-5 -10.5t9.5 -11q8 -4 7 -9.5t-4.5 -11.5t-6 -12t1.5 -11q12 -15 10.5 -38t-1.5 -41q0 -9 -1.5 -21t-0.5 -22
t5.5 -17t16.5 -7q15 0 21 -6t9 -14t6 -17t11 -16q5 -5 13.5 -8t12.5 -11z" />
    <glyph glyph-name="asciitilde" unicode="~" horiz-adv-x="556" 
d="M534 460v-10.5t-1 -9.5v-4h-1v-7v-3h-1v-2h-1v-4v-1h-1v-4h-1v-2q0 -1 -0.5 -1.5t-0.5 -2.5l-1 -1v-2h-1v-3h-1q0 -2 -1 -3v-2h-1v-1v-2h-1v-1q-1 0 -1 -1v-2h-2v-2q-1 -1 -2 -3h-1v-2q-3 0 -5.5 -0.5t-5.5 -0.5q0 -2 -0.5 -2.5t-0.5 -2.5v-3h-1v-1h-1v-3v-1h-1
q0 -2 -1 -3q0 -6 -0.5 -11.5t-0.5 -11.5v-7t-1 -6v-19q5 -1 9 -1h9v-1h1q1 -2 1 -2.5t1 -2.5v-7h1v-2h1v-28v-11t-2 -10v-11v-2h-1v-4h-1v-5h-1v-11h-1v-7q-1 -2 -1 -3t-1 -3h-8q1 -2 0 -7.5t0 -9.5q1 -2 0 -6t0 -6h1q0 -1 0.5 -1.5t0.5 -2.5h2q1 -2 1 -7q2 -2 1 -6.5
t-1 -6.5v-8q-1 0 -1 -1v-3q-1 -1 -2 -1.5t-2 -1.5v-1h-46q-2 -1 -7 -1h-19q-1 1 -2 1v4v1h-1v11q-2 5 -1.5 11t0.5 11v9.5t-1 7.5v4v3h-1q-1 2 0 4t-1 4v1h-2q-1 1 -3 4q-2 2 -0.5 5.5t0.5 5.5q-2 5 -2 12v14q0 25 1 46.5t1 46.5h-1v-10.5t-2 -9.5v-17q-1 -3 -1 -11v-7
l-3 -6q-2 0 -2 -0.5t-2 -1.5v-1h-3q1 -3 2 -5v-1h1v-2v-3h1v-1h1v-3v-7v-7h-1v-1h-1v-2v-2h-1v-2h-2v-1h-2v-1h-1v-1h-2v-1q-7 0 -10 -1q0 -10 -2 -20h-2v-2h-8q-1 -2 -1 -5.5v-6.5q-1 -1 -0.5 -8.5t0.5 -9.5q0 -13 -0.5 -26t-0.5 -26h3q1 -1 1.5 -1t1.5 -2h1v-2v-1h1v-7v-4
h1v-2h1v-8v-3h1v-7h1v-3v-5h1v-6v-2h1v-8h1v-2v-7h1v-3h1v-3v-8h1v-2h1v-7v-3h1v-4v-7h1v-2h1v-4v-2h1q0 -4 1 -6l2 -1l2 -1q0 -1 0.5 -1t0.5 -1h2q2 -3 1 -7h2q0 -1 0.5 -1.5t0.5 -2.5h1v-21q-2 -1 -1.5 -1.5t-0.5 -1.5q-2 -1 -4 -3h-1q-1 0 -1 -1h-6v-33v-9t-1 -8
t-0.5 -6.5t-0.5 -5.5v-6v-13h-1q-1 -1 -1 -2q-4 0 -6.5 -0.5t-4.5 -0.5q-1 -1 -1 -2h-1q-1 -2 -1 -3t-3 -2v-1q-3 0 -4 0.5l-3 1.5q0 2 -0.5 3t-0.5 3h-185l-1.5 -6t-5.5 -2h-4v1q-1 1 -2 1q0 4 -1 5q-2 2 -5.5 1t-5.5 0h-1v1q-2 1 -1.5 0.5t-0.5 1.5h-1v4v2h1v9
q-2 5 -1.5 11t0.5 12v39q-2 0 -2 0.5t-2 0.5v1q-3 0 -4.5 1.5t-3.5 2.5q-1 1 -1 2h-1q-1 4 -1 7.5t-1 7.5h1v3h1v5v1h1q0 3 1 5l1 1v1q1 1 1 4q2 0 3 1t3 2v1h2q0 9 2 13v8v2h1v7h1v4v6h1v4v4h1v7h1v2v9h1v2h1v2v10h1v1v9h1v2h1v6v5h1v3h1v6v3h1v2h1v1q1 1 1 2l4 2v14
q-2 2 -1.5 9t0.5 9v31q0 5 0.5 9.5t-1.5 8.5q-4 0 -6 0.5t-5 1.5q-1 5 -1 10.5t-1 10.5h-10v1q-2 1 -2.5 1.5t-2.5 0.5v1h-1q-1 2 -1 2.5t-1 2.5v4h-1q0 8 -1 12h1q0 3 1 4h1q0 4 1 6t1 4q-1 1 -3 1v1h-3q0 2 -2 2v2h-1v1h-1q1 1 1 2h-1v15q-2 8 -1.5 17t-1.5 16q-1 3 0 7
t0 7q-1 -1 -2 -1q0 -5 -0.5 -11t1.5 -11v-17h1v-6v-12h1v-18v-21q2 -5 1.5 -16t-1.5 -14v-10q-2 -1 -2 -1.5t-3 -0.5v-12h-1v-1h-1v-53q-1 -2 -1 -5.5t-1 -6.5q-4 -2 -10 -1.5t-11 0.5q-1 1 -6.5 0.5t-7.5 -0.5q-10 1 -19.5 1h-19.5l-2 2v2q0 1 -1 1v3h-1v2h-1v8v14h1
q0 1 0.5 1.5t0.5 1.5h2v5q2 5 1.5 15t-1.5 15h-7q0 1 -0.5 1t-0.5 1v1h-1v5v2h-1v13h-1v1q0 1 -1 1v3v1h-1v5h-1v2v4h-1v8h-1v2v18q-1 2 -0.5 6t-0.5 6q0 1 -0.5 2.5t0.5 3.5q0 5 0.5 10.5t0.5 10.5q1 2 1 3.5t1 3.5h2v1h9t9 1q0 5 -0.5 10t-0.5 10h-1q-1 3 -0.5 7t-0.5 6
v11v6h-1v5q-1 0 -1 2h-1v2v2h-1v4h-1v2h-2v3q-3 0 -5 0.5t-6 0.5v1h-1q0 3 -2 5l-1 1v2q-1 0 -2 1v2q0 1 -2 1v3l-1 1v2l-1 1q0 2 -1 4v1h-1v3h-1v1q0 2 -0.5 3t-0.5 2v2h-1v5h-1v1v6h-1v3h-1v7q-1 5 -1 13.5t2 12.5q0 6 1 9v1h1v5h1v1v3h1v3h1v4h1v1v2h1q1 2 1 5h1v3h1
q1 1 1 3h2v2q1 0 1 0.5t1 0.5q2 1 4 0.5t4 0.5q0 3 1 4q0 1 1 1v2h1v1h1v5h1v2q1 1 1 3h1v3q1 1 1 2h1q0 1 1 3q12 1 23.5 1t23.5 1h12q2 1 4 0.5t4 1.5h1v3v4h1v5h1v3v2h1q2 2 10 2v3q0 1 1 1q0 2 0.5 3t0.5 2l1 1v4h1v3h1v2h1v2v1q1 1 2 1v1q1 1 1 3h2v1q4 0 7.5 0.5
t7.5 0.5q0 1 1 1v1h1v5h1v2h1v3h1v2h1v2h1v2q2 0 4 2v1h2h1v1q2 1 2 0.5t1 1.5q-2 1 -1.5 1.5t-1.5 2.5h-1q-2 2 -2 5h-2v1q-2 0 -4 2h-2l-1 1h-1v1h-19v2h-2q-1 22 -1 43.5t-1 43.5q-4 0 -7 1v-1h-2v1h-1q0 1 -2 1v6.5t-1 5.5v18q0 2 -1 5t0 5h1v1h1v2q9 1 19 1h19h16v-2h1
v-2l2 -1l2 -1q0 -1 2.5 -1h4.5v1h1v1h2l2 1v1q2 0 4 2l1 1h1q0 1 1 2h2q0 1 1 1h1q0 1 1 2h1h1v1q1 0 1 0.5t1 0.5q0 2 1 3h1v2h1q1 2 1 1t0 1h2q0 1 1 2h1v6v16q2 1 2.5 1.5t2.5 0.5v1q1 1 3 1l1 1h3v2h3v1q3 0 5 1l1 1h5h1v1h4v1h1h2v1h6v1h9v1h1q3 2 5 1l4 -2h13h2v-1h5
v-1h3v-1h3l1 -1h3v-1h1h3v-1h2v-1h3v-2h4q0 -1 1 -1v-1h2v-1h2q2 -2 2 -3q1 -1 1 -3v-4v-14q3 0 5 -1v-1q1 0 2 -2h1v-1h1l1.5 -3l1.5 -3h3q0 -1 1 -2h2v-1h3v-2h2v-1q2 0 2 -1q1 0 1.5 -0.5t1.5 -0.5v-1h2v-1q1 -1 4 -1v-1q2 1 6 1v3q1 0 1.5 0.5t1.5 0.5h30q2 1 6 1h8h6
v-1q2 0 4 -1v-3v-1q-1 -1 0 -2q1 -2 0.5 -3.5t-0.5 -2.5v-29h-2q0 -2 0 -1.5t-1 -0.5q-1 0 -1 -1q-2 -1 -3.5 -0.5t-2.5 -0.5q-2 -1 -1.5 -4t0.5 -5v-25q-2 -2 -1 -6.5t0 -7.5v-11v-14t-1 -13q-3 -1 -7 -1h-8h-6l-1 -1q-1 0 -5 -2l-1 -1q-2 0 -2 -1v-1h-2v-2l-2 -1v-1
q0 -1 -1 -1v-1q-2 -2 -2 -3v-1h3q1 0 1 -1q1 0 2 -0.5t2 -0.5q0 -1 0.5 -1t0.5 -1h1v-1q0 -1 2 -1v-2l1 -1v-2h1v-2q0 -1 0.5 -1.5t0.5 -1.5v-2h1v-2h1v-3h11q1 0 5 -2l1 -2v-3h2v-2v-2h1q0 -3 1 -4l1 -1v-2l1 -1v-2h1v-2v-2h1q1 -1 0.5 -1.5t0.5 -1.5q2 -2 4 -1t4 0v-1h1
q1 0 1 -0.5t1 -0.5q0 -2 2 -6v-6h1v-4q12 -1 24 -1.5t24 -0.5h11t8 -2t2 -3.5t1 -3.5h1v-3q1 0 1 -1v-2h1v-2h1v-4v-1q1 -1 2 -1v-3v-1q2 -1 5 -0.5t5 0.5q0 -1 0.5 -1t0.5 -1v-1l1 -1v-1h2v-2l1 -1v-3h1v-1h1v-3l1 -1v-3h1q0 -2 0.5 -3t0.5 -2l1 -1v-5h1v-1v-4h1v-1h1v-4
q1 -4 1 -12h1v0z" />
    <glyph glyph-name="p" unicode="p" horiz-adv-x="907" 
d="M680 680q47 0 88.5 -17.5t72 -48.5t48.5 -72t18 -88t-18 -88.5t-48.5 -72.5t-72 -48.5t-88.5 -17.5t-88 -18t-72 -48.5t-48.5 -72t-17.5 -88.5q0 47 -18 88.5t-48.5 72t-72 48.5t-88.5 18t-88.5 17.5t-72 48.5t-48.5 72.5t-18 88.5t18 88t48.5 72t72 48.5t88.5 17.5
t88.5 -17.5t72 -48.5t48.5 -72t18 -88q0 47 17.5 88t48.5 72t72 48.5t88 17.5z" />
    <glyph glyph-name="florin" unicode="&#x192;" horiz-adv-x="844" 
d="M824 69q-5 3 -8 8q2 -9 2.5 -20t-2 -18t-9.5 -8t-20 8q-2 -14 -7.5 -27.5t-22.5 -14.5q-14 -2 -28 4t-25 13q-9 -22 -23 -36t-31.5 -18.5t-37 -0.5t-38.5 18q-11 -17 -30 -29.5t-40 -12.5q-11 -1 -21 2t-20 8q-3 1 -8 4t-10 6.5t-10 6t-7 2.5t-8 -6.5t-9 -8.5
q-5 -3 -9.5 -5.5t-9.5 -4.5q-20 -9 -40 -7t-37 12.5t-26 29.5q-18 -12 -34 -21t-39 -5q-20 3 -37 14.5t-25 30.5q-34 -20 -61 -10t-35 49q-6 -5 -12.5 -9t-13.5 -8q-3 10 -1 20.5t6 19.5q-8 -10 -10 -5t0 13t6 15t7 15q9 20 17.5 38.5t17.5 38.5q16 36 32 72.5t32 72.5
q32 72 63.5 144.5t61.5 146.5q5 11 7 20t0 21q-1 9 -4.5 18.5t-3.5 17.5q-1 8 3.5 16t6.5 16q2 10 3.5 19.5t4.5 19.5q12 41 39.5 71t70.5 37q40 6 76.5 -8.5t58.5 -49.5t31 -76q2 -8 5 -17.5t4 -19.5t-0.5 -18.5t-8.5 -14.5q11 -37 29.5 -72.5t34.5 -70.5q17 -37 34.5 -74
t35.5 -75q17 -37 34.5 -74t34.5 -75q10 -20 19.5 -41t19.5 -42q6 -14 15.5 -31.5t9.5 -33.5z" />
    <glyph glyph-name="one" unicode="1" horiz-adv-x="886" 
d="M445 817q91 0 171.5 -35t140.5 -95t95 -140.5t35 -171.5q0 -61 -16 -117.5t-44.5 -105.5t-69 -89.5t-89.5 -69t-105.5 -44.5t-117.5 -16q-92 0 -172.5 34.5t-140.5 94.5t-94.5 140.5t-34.5 172.5q0 61 16 117.5t44.5 105.5t69 89.5t89.5 69t105.5 44.5t117.5 16zM691 513
q-12 0 -20.5 -8t-8.5 -20t8.5 -20.5t20.5 -8.5t20 8.5t8 20.5t-8 20t-20 8zM172 341q13 0 22 8.5t9 20.5t-9 20.5t-22 8.5h-111q-13 0 -21.5 -8.5t-8.5 -20.5t8.5 -20.5t21.5 -8.5h111zM333 226q13 0 22 8.5t9 20.5t-8.5 20.5t-20.5 8.5t-20 8.5t-8 21.5v168q0 13 -9 22
t-22 9h-53q-13 0 -22 -8t-9 -20t8.5 -20.5t20.5 -8.5t20.5 -9t8.5 -22v-111q0 -13 -8.5 -21.5t-20.5 -8.5t-20.5 -8.5t-8.5 -20.5t9 -20.5t22 -8.5h110zM604 425q0 13 -8 22t-20 9q-15 0 -21.5 9.5t-7.5 18.5q0 12 -9 20.5t-22 8.5h-53q-14 0 -22.5 -8.5t-8.5 -20.5
q0 -9 -7 -18.5t-21 -9.5q-12 0 -20.5 -9t-8.5 -22v-111q0 -13 8.5 -21.5t20.5 -8.5q16 0 21 -9t7.5 -20t8 -20t22.5 -9h53q13 0 22 9t9 21v-1q1 8 7 18.5t22 10.5q12 0 20 8.5t8 21.5v111zM805 226q12 0 20.5 8.5t8.5 20.5t-8.5 20.5t-20.5 8.5t-20.5 -8.5t-8.5 -20.5
t8.5 -20.5t20.5 -8.5zM805 399q12 0 20.5 9t8.5 21v53q0 13 -8.5 22t-20.5 9t-20.5 -9t-8.5 -22v-53q-1 -12 -6.5 -20.5t-17.5 -10.5q0 1 -5 1q-16 0 -20.5 -8.5t-7 -19t-6.5 -20t-18 -10.5h-4q-12 0 -20.5 -9t-8.5 -22v-53q0 -13 8.5 -22t20.5 -9t20 9t8 22v53v5q1 4 6 15
t22 11q12 0 20.5 8.5t8.5 20.5v4q1 4 6.5 14.5t22.5 10.5zM516 456q20 0 25.5 -12.5t5.5 -18.5v-111l-0.5 -5t-3 -10.5t-8 -10t-15.5 -4.5h-57q-11 0 -17 4.5t-9 9.5t-4 10t-1 6v111q0 1 1 6t4 10.5t9 10t17 4.5h53z" />
    <glyph glyph-name="cent" unicode="&#xa2;" horiz-adv-x="915" 
d="M885 38q2 -1 4 -3q5 -5 5 -9q0 -2 -0.5 -5.5t-0.5 -7.5q-1 -4 -1 -9q-3 -3 -7 -6q-4 -2 -9 -5.5t-10 -5.5q-6 -2 -23.5 -6.5t-43 -8.5t-56.5 -6t-62 0q-17 4 -43.5 14.5t-48.5 21.5q-11 5 -24.5 10t-24.5 8q-13 4 -27 6l1 -24l-69 2q11 -8 21 -15q8 -6 15.5 -11l10.5 -7
q5 -4 7 -15.5t1 -19.5l11 -4l-2 -24q-37 -12 -77 -18q-35 -6 -78 -7.5t-86 6.5q-23 3 -48 16t-54 45l-7 2l-29 -10l-58 26q-2 1 -4 3q-3 3 -3 12v47l4 6q0 39 -1 72q-1 29 -2 55.5t-2 36.5q-2 10 -6.5 44t-9.5 73.5t-9.5 73.5t-5.5 44q-1 6 -2.5 27.5t-3 52.5t-2.5 68
t-0.5 74.5t3.5 73t10 62.5q12 3 29 5q14 2 33.5 2t42.5 -4t38.5 -10.5t29.5 -13.5t30.5 -12.5t42.5 -7.5q2 -50 3 -113q1 -54 0 -129t-6 -169q-1 -24 -3.5 -55t3 -66.5t24 -73.5t60.5 -76q-1 2 -1 4q0 3 4 6q-3 18 -6 39q-2 18 -3 40.5t1 46.5l-4 38q-2 17 -3.5 36.5
t-3.5 37.5t-5.5 57t-6.5 83t-4.5 83.5t0.5 58.5t3 46t2 52.5t1 46v25.5v11.5t1 11.5q0 6 1 11q13 8 33 15q17 6 45 11t69 5t70.5 -8t49.5 -18q23 -11 38 -26q-5 -69 -9 -128q-2 -25 -4 -50.5t-3.5 -48t-3 -39.5t-2.5 -26q-2 -18 -5 -49t-5.5 -65t-3 -64.5t4.5 -47.5
q4 -17 11.5 -39t21.5 -44.5t36 -42.5t56 -33q22 -10 39.5 -13t31.5 -5q7 -1 16.5 -3.5t19.5 -5.5t18 -6.5t11 -5.5q3 -3 4.5 -7.5t2.5 -9.5l2 -12v0z" />
    <glyph glyph-name="six" unicode="6" horiz-adv-x="886" 
d="M830 255q0 -12 8.5 -20.5t20.5 -8.5q1 0 2 0.5t2 0.5q-23 -64 -63.5 -118t-95 -93t-120 -61t-137.5 -22q-88 0 -166 32t-137.5 88.5t-96 132t-41.5 162.5q7 -7 19 -7h111q13 0 22 8.5t9 20.5t-9 20.5t-22 8.5h-111q-10 0 -20 -7q3 88 39 165.5t96 135.5t139 91t168 33
q73 0 140 -23t122 -63.5t95.5 -96.5t62.5 -122q-2 1 -8 1q-12 0 -20.5 -9t-8.5 -22v-53q-1 -12 -6.5 -20.5t-17.5 -10.5q-1 1 -5 1q-16 0 -20.5 -8.5t-7 -19t-6.5 -20t-18 -10.5h-5q-12 0 -20.5 -9t-8.5 -22v-53q0 -13 8.5 -22t20.5 -9t20.5 9t8.5 22v53q0 4 -1 5q2 4 7 15
t22 11q12 0 20.5 8.5t8.5 20.5v4q1 4 6.5 14.5t22.5 10.5q22 0 27 22q3 -23 3 -46q0 -49 -11 -98q-9 7 -19 7q-12 0 -20.5 -8.5t-8.5 -20.5zM744 513q-12 0 -20.5 -8t-8.5 -20t8.5 -20.5t20.5 -8.5t20.5 8.5t8.5 20.5t-8.5 20t-20.5 8zM395 284q11 0 19 8.5t8 20.5
q0 11 -8 19.5t-20 8.5q-2 0 -6.5 1t-9.5 4.5t-9 9t-4 14.5q0 12 -9 20.5t-22 8.5h-53q-18 0 -25 8t-7 23q2 8 9 17t22 9h54q13 0 22 8.5t9 20.5t-9 20t-22 8h-53q-13 0 -22 -8t-9 -20q-1 -8 -6 -18.5t-23 -10.5q-12 0 -20 -9t-8 -22v-111q0 -17 9 -22t19.5 -8t19.5 -8t9 -21
q0 -12 9 -20.5t22 -8.5h53q14 0 22.5 9t8.5 21q0 1 1.5 5.5t4.5 9.5t9 9t15 4zM672 425q0 13 -8 22t-21 9q-15 0 -21 9.5t-7 18.5h-1q0 12 -8.5 20.5t-21.5 8.5h-53q-14 0 -22.5 -8.5t-8.5 -20.5q-1 -9 -7.5 -18.5t-21.5 -9.5q-12 0 -20 -9t-8 -22v-111q0 -13 8 -21.5
t20 -8.5q17 0 22 -9t7.5 -20t8 -20t22.5 -9h53q13 0 21.5 9t8.5 21l1 -1q1 8 7 18.5t21 10.5q13 0 21 8.5t8 21.5v111zM337 341q12 0 20 -8.5t8 -19.5q0 -12 -8.5 -20.5t-19.5 -8.5h-59q-11 0 -19.5 8.5t-8.5 20.5q0 11 8 19.5t20 8.5h59zM584 456q20 0 25 -12.5t5 -18.5
v-111l-0.5 -5t-3 -10.5t-8 -10t-15.5 -4.5h-56q-11 0 -17 4.5t-9 9.5t-4 10t-1 6v111q0 1 0.5 6t3.5 10.5t9.5 10t17.5 4.5h53z" />
    <glyph glyph-name="Delta" unicode="&#x2206;" 
 />
    <glyph glyph-name="germandbls" unicode="&#xdf;" 
d="M400 501q0 1 1 1q-1 0 -1 -1zM399 481v-1v1zM535 351q-8 4 -21 2t-26.5 -6t-26.5 -8.5t-22 -6.5v-2q7 -2 14 -2.5t15 -1.5q6 -1 11.5 0t8.5 1h11t15 -1.5t11.5 -4.5t1.5 -8q-3 -4 -17.5 -2.5t-32 5t-33 7.5t-19.5 4q5 -9 1 -17t-5 -19q-2 -15 -6 -15t-18 2q1 6 1 12.5
t1 12.5q-26 -10 -56 -5q5 -2 8 -12t0 -12q-2 -1 -2 -5t1 -8t1 -7.5t-1 -4.5q-5 -3 0 -5t1.5 -4t-3.5 -4q0 -4 0.5 -7t0.5 -5q0 -7 0.5 -13t-0.5 -11q0 -4 0.5 -7t0.5 -7q0 -2 1.5 -2t1.5 -4t-2 -4t-2 -2q0 -3 2 -3t2 -4q0 -3 -1.5 -2.5t-1.5 -1.5q0 -3 2 -3t2 -4t-2 -4
t-2 -3q-2 -24 -1.5 -50t0.5 -52q5 5 12.5 12t15 11t14 1.5t11.5 -15.5q1 -3 0.5 -10l-1 -14t0 -12.5t5.5 -5.5q39 -2 77.5 -2.5t76.5 -1.5q6 0 14.5 0.5t17 -0.5t15 -4.5t8.5 -10.5q2 -8 2 -16v-16q0 -2 4.5 -4t9.5 -5.5t9.5 -7.5t5.5 -10q0 -8 -6 -15.5t-14.5 -12.5
t-17.5 -5t-15 7q-19 22 -19 51q-43 -2 -86 -2.5t-86 -2.5q6 -8 16.5 -16t21.5 -16.5t19.5 -17.5t10.5 -19q1 -3 0.5 -8.5t-0.5 -11t1 -10.5t4 -6q9 -3 15.5 -9.5t9.5 -14t1 -15.5t-11 -15q-9 -6 -20 -13t-22 1q-8 5 -13.5 16.5t-9.5 20.5q-4 8 -4 21v21q0 5 -9.5 12
t-13.5 10q-12 11 -24 21.5t-24 20.5q-4 3 -7 6t-7 5q-4 4 -11.5 2.5t-12.5 1.5q-6 3 -15.5 1.5t-19 -5t-19 -7.5t-16.5 -6q-26 -8 -53 -17t-53 -18q-5 -1 -10 -2.5t-4 -7.5q0 -4 -1 -12t-3.5 -15.5t-6.5 -12t-10 -1.5q-5 -5 -9.5 -12.5t-13.5 -8.5q-14 -2 -21 6.5t-10 19.5
t3.5 24.5t22.5 17.5q4 1 2.5 11t0.5 15q1 8 9.5 14t19 10t21 7t16.5 6q6 2 16 4.5t20.5 5.5t19.5 7t12 9q-21 4 -40.5 7.5t-39.5 7.5q0 -9 -2 -19t-11 -14q-2 2 -3 0l-2.5 -5t-3.5 -6.5t-5 -5.5q-11 -5 -16.5 -2.5t-8.5 8.5t-4.5 13t-3.5 11q0 -2 -2 -8q-1 -3 -1 -6
q-6 2 -4.5 8t6.5 12.5t11 12t9 5.5q1 9 2 17q1 7 2.5 13.5t4.5 9.5q6 4 23 3.5t39.5 -3t47.5 -6.5t45.5 -6.5t34 -1.5t13.5 7v115q0 4 -4.5 14.5t-0.5 13.5t0.5 12t-0.5 12q2 2 2 12.5v12.5v23q0 5 -1.5 13.5t-1.5 17.5t2 15.5t9 7.5q4 1 1.5 3t-7.5 4t-10.5 4t-6.5 3
q-5 2 -12 1t-12 -1q-50 2 -101 6q-11 1 -26.5 1t-31.5 2.5t-29.5 7.5t-20.5 16q-19 31 4 58q-30 13 -38.5 28.5t-6.5 47.5q1 16 1.5 31t1.5 30q1 18 0 36t2 36q2 11 7.5 17t13 8t16.5 2.5t18 0.5l44 2t45 2q17 0 25 -9.5t11 -26.5q5 -33 13 -70t2 -70q49 6 97 7t97 0
q1 -1 -1 2t-4 5q2 1 5 1q1 0 -2 3t-3 2q0 3 3.5 1.5t3.5 2.5q0 3 -2.5 2t-3.5 2q2 0 3.5 0.5t3.5 0.5q0 -1 -2.5 2.5t-3.5 3.5q2 1 6 1.5t-3 3.5q-3 2 -6.5 2t-7.5 1q-14 1 -29 2t-30 3t-29.5 7.5t-26.5 14.5t-20 22t-9 31q-2 28 8.5 57t20.5 55q9 23 19.5 47t27.5 44
q22 25 51 29.5t60 4.5q25 1 48.5 3.5t48.5 4.5q22 3 33 -3t14.5 -17.5t2.5 -27t-2 -31.5q-5 -53 -3 -105h31t32 -2q8 -1 12 -6t6 -12t2 -14.5v-13.5q0 -35 0.5 -71t-0.5 -71q0 -26 -16.5 -49t-33.5 -41q-4 -4 -13.5 -8.5t-20.5 -8t-22 -5t-17 1.5zM541 473q-1 -4 -2.5 -12
t-2.5 -16.5t-0.5 -16t4.5 -10.5q6 -5 12.5 -10.5t13.5 -9t14 -3.5t13 8q10 11 21.5 25t12.5 29t-1.5 31t-4.5 31q-2 19 -4.5 38t-5.5 38q-2 18 -11 18t-25 -1q0 -10 -1 -19.5t-4 -18.5q-3 -8 -9.5 -17.5t-8.5 -17.5q-3 -17 -6 -33t-5 -33zM530 371q5 5 2.5 9t-7.5 8
q-6 4 -16 8q-13 -9 -31.5 -18.5t-26.5 -20.5q20 5 38.5 7t40.5 7zM450 474q24 0 52 -5q1 11 1.5 21.5t1.5 21.5q-11 0 -22.5 -1.5t-22.5 -2.5q-6 0 -7 -1.5t0 -3t2.5 -2.5t1.5 -2q-2 -2 -6 -2l3 -3q2 -2 3 -2q-4 -2 -6 -2q1 -2 2 -3q1 -3 3 -3q-1 -1 -5 -1q-1 0 2 -3l2 -2
q-2 -2 -5 -1v-3zM147 449q21 8 31 15.5t5 33.5v-4q-5 25 -11 50.5t-13 50.5q-4 10 -6.5 13.5t-13.5 2.5q-17 -1 -33 -2t-33 -3q-8 -1 -13 -15t-7.5 -31.5t-3.5 -34t-2 -22.5l-6 -39q-2 -22 8 -29t30 -14q17 8 34 14.5t34 13.5z" />
    <glyph glyph-name="Udieresis" unicode="&#xdc;" 
 />
    <glyph glyph-name="aacute" unicode="&#xe1;" 
 />
    <glyph glyph-name="agrave" unicode="&#xe0;" 
 />
    <glyph glyph-name="acircumflex" unicode="&#xe2;" 
 />
    <glyph glyph-name="atilde" unicode="&#xe3;" 
 />
    <glyph glyph-name="aring" unicode="&#xe5;" 
 />
    <glyph glyph-name="ccedilla" unicode="&#xe7;" 
 />
    <glyph glyph-name="edieresis" unicode="&#xeb;" 
 />
    <glyph glyph-name="iacute" unicode="&#xed;" 
 />
    <glyph glyph-name="ntilde" unicode="&#xf1;" 
 />
    <glyph glyph-name="uacute" unicode="&#xfa;" 
 />
    <glyph glyph-name="sterling" unicode="&#xa3;" 
 />
    <glyph glyph-name="registered" unicode="&#xae;" 
 />
    <glyph glyph-name="plusminus" unicode="&#xb1;" 
 />
    <glyph glyph-name="lessequal" unicode="&#x2264;" 
 />
    <glyph glyph-name="mu" unicode="&#xb5;" 
 />
    <glyph glyph-name="product" unicode="&#x220f;" 
 />
    <glyph glyph-name="pi" unicode="&#x3c0;" 
 />
    <glyph glyph-name="integral" unicode="&#x222b;" 
 />
    <glyph glyph-name="ordmasculine" unicode="&#xba;" 
 />
    <glyph glyph-name="oslash" unicode="&#xf8;" 
 />
    <glyph glyph-name="approxequal" unicode="&#x2248;" 
 />
    <glyph glyph-name="endash" unicode="&#x2013;" 
 />
    <glyph glyph-name="guilsinglleft" unicode="&#x2039;" 
 />
    <glyph glyph-name="quotesinglbase" unicode="&#x201a;" 
 />
    <glyph glyph-name="Iacute" unicode="&#xcd;" 
 />
    <glyph glyph-name="Ograve" unicode="&#xd2;" 
 />
    <glyph glyph-name="dotlessi" unicode="&#x131;" 
 />
    <glyph glyph-name="onesuperior" unicode="&#xb9;" 
 />
    <glyph glyph-name="threequarters" unicode="&#xbe;" 
 />
    <glyph glyph-name="thorn" unicode="&#xfe;" 
 />
    <glyph glyph-name="zcaron" unicode="&#x17e;" 
 />
    <glyph glyph-name="yen" unicode="&#xa5;" horiz-adv-x="1247" 
d="M1231 838q11 -30 8.5 -52t-12.5 -37l-4 -62l-76 -82l25 -17q3 -2 5 -5q4 -6 2 -9q-4 -5 -13 -7q-5 -2 -11 -2l-29 -2l-15 4l-95 -103q2 1 4 1q5 0 5 -3v-23q-1 0 -3 -1q-4 -2 -7 -3q-2 0 -10.5 -2.5t-21 -5.5t-29 -7t-32.5 -8q-39 -10 -88 -21l-10 -8q-5 -3 -11 -5.5
t-13 -2.5q-7 -1 -11.5 0.5t-6.5 3.5q-3 2 -4 4l-19 -4l-1 -7l114 -43l11 7l78 -42l2 -2q2 -2 2 -6q0 -2 -1 -22t-3 -46l190 -109v-29h-10v-6q4 -4 4 -8q0 -5 -5.5 -8.5t-13.5 -3.5t-13 3.5t-5 8.5q0 6 7 9v10l-61 37l-494 -145l45 -37v-33l-4 -2l-2 -2v-3q5 -5 5 -10
q0 -7 -6.5 -11t-15.5 -4t-15.5 4t-6.5 11q0 6 8 12v14l-83 72q-7 0 -11 4q-3 2 -4 4v6l-14 11q-8 -2 -14 -2h-11h-1q-23 0 -31 7.5t-8 8.5v11h2q-7 3 -7 10q0 6 5 9v11l-4 5l-1 31l19 3l43 -36l9 -2v18l3 4l1 18l4 4v4l50 12h15l49 -37l33 69l24 99q-10 7 -18 12t-11 8
q-3 2 -4.5 6t-1.5 7q-1 4 0 8v26l-11 -10v-16l-12 5l-272 -252q-13 -12 -28 -22q-13 -8 -28.5 -15t-29.5 -8q-15 -1 -28 5t-24 14.5t-18.5 16.5t-10.5 11l-91 91q-10 11 -17 22q-7 10 -12 22.5t-4 25.5q0 4 1 12t5.5 19t13.5 25t27 30q9 8 24.5 22t35 31.5t41.5 37t43 38.5
q50 45 108 97q6 5 13 9q5 3 11.5 4.5t11.5 -0.5q4 -2 10.5 -6.5t13.5 -8.5l16 -10l-2 -6l6 -2v40v6q0 7 4 10q2 1 2.5 2.5t3 2.5t7 2t15.5 3l52 8q7 11 19 28.5t23.5 34.5t21.5 31t13 19q4 5 10.5 14t14 18.5t14.5 17.5t13 13q12 8 27 8t23 -2l151 -33q20 19 38 36.5
t32 31.5q17 16 31 30q13 10 25 18q11 7 22 12t20 6l75 36q11 3 24 5q11 1 26.5 0t35.5 -6q19 -5 33.5 -10t26 -12t20 -16.5t14.5 -24.5zM431 17q4 0 9 0.5t10 1.5l-27 23q-7 -7 -18 -7q-6 0 -8 1v-7l1 -1t1.5 -2t2.5 -2q4 -2 11 -4.5t18 -2.5zM609 122h3l75 101l8 -6l3 5h6
l9 11l-19 7l-19 -4q-4 1 -8 4q-4 2 -8 5t-9 6l-25 -92zM649 45l-23 17l-15 -4v-24zM677 115l144 40l6 41l-92 30l-12 -17l2 -6l-3 -5l5 -4zM702 60l-9 5l-2 -8zM956 133l53 16l-25 15l-26 -7zM701 83v-10l8 -10l187 53l6 25zM788 303l-24 -36l71 -23l8 53l-46 15v-7z
M734 334l-10 -54l20 -6l30 37l-2 2v8zM737 346h-1l-1 -3zM773 697q-7 2 -25.5 6t-38.5 8.5t-36 8.5t-18 4q-4 0 -6 5q-1 2 -1 4l-8 -5l-92 -133q19 3 35.5 6t30.5 5q15 3 29 5q9 2 18 3q8 1 14.5 1t11.5 -2q-2 2 8 10z" />
    <glyph glyph-name="dollar" unicode="$" horiz-adv-x="740" 
d="M723 520q13 0 13 -14q0 -13 -13 -13h-62q-7 0 -11 6h-23q-1 -50 -19 -93.5t-50 -77.5l16 -16q6 1 11 -4l44 -44q9 -9 0 -18q-9 -11 -18 0l-44 44q-6 3 -4 11l-16 16q-7 -7 -14 -12.5t-15 -11.5l30 -316h-13v-26l11 -24v-24h-357v24l12 24v26h-13l29 316q-7 5 -13.5 10.5
t-12.5 11.5l-16 -16q0 -7 -4 -11l-44 -44q-9 -10 -19 0q-9 9 0 18l44 44q5 5 12 4l16 16q-32 33 -51 76.5t-21 93.5h-22q-6 -6 -11 -6h-62q-13 0 -13 14q0 13 13 13h62q6 0 11 -6h22q2 50 20 93.5t50 77.5l-16 16q-8 0 -12 4l-44 44q-9 9 0 18q10 10 19 0l44 -44q4 -4 4 -11
l16 -16q33 32 76.5 51t93.5 21v22q-6 4 -6 11v62q0 13 13 13q14 0 14 -13v-62q0 -3 -2 -5.5t-4 -5.5v-22q50 -2 93.5 -20t77.5 -50l16 16q-2 7 4 11l44 44q9 11 18 0q9 -9 0 -18l-44 -44q-4 -4 -11 -4l-16 -16q32 -33 50.5 -76.5t20.5 -93.5h23q4 6 11 6h62zM236 495
q-3 -5 -10 -5h-38q-6 0 -10 6h-10q2 -37 16.5 -69.5t37.5 -58.5l2 2zM271 548q6 13 16 25l-18 18q-8 0 -12 4l-26 27q-6 4 -4 11l-7 7q-23 -26 -36.5 -58.5t-15.5 -70.5h10q3 6 10 6h38q6 0 11 -6l4 35zM359 705q-38 -2 -70 -16.5t-58 -37.5l7 -7q6 1 11 -4l27 -27
q4 -4 4 -11l18 -18q24 23 61 26v26q-6 3 -6 11v38q0 7 6 10v10zM374 610q35 -2 62 -24l18 18q-2 6 4 12l26 26q7 5 12 4l7 7q-26 23 -59 36.5t-70 15.5v-10q6 -4 6 -10v-38q0 -7 -6 -11v-26zM515 370q23 26 37 58.5t15 70.5h-9q-3 -6 -11 -6h-38q-5 0 -10 5l12 -123z
M567 514q-2 37 -16 69.5t-38 58.5l-6 -7q0 -7 -4 -11l-27 -27q-4 -4 -11 -4l-18 -18q11 -13 17 -27l31 -2l3 -32h1q4 6 10 6h38q7 0 11 -6h9z" />
    <glyph glyph-name="ampersand" unicode="&#x26;" horiz-adv-x="1057" 
d="M1029 380q3 -7 5 -13t3 -12.5t-1 -11.5q-4 -10 -14 -9.5t-20 1.5q-3 0 -27 2t-62 5t-85.5 6.5t-96.5 7.5q-115 9 -260 21h-8q-4 0 -8.5 -0.5t-9.5 0.5l-60 -106q-7 -13 -23 -20q3 -2 3 -5v-31q22 -2 53.5 -8.5t66 -20.5t68.5 -36.5t61 -57t44 -82.5t17 -111q0 -5 -1 -15
t-14.5 -20.5t-46.5 -18t-97 -7.5h-342q-65 0 -97.5 7.5t-46.5 18t-14.5 20.5t-0.5 15q0 63 17 111t44 82.5t61 57t68.5 36.5t66 20.5t53.5 8.5v31q0 2 2 4l-7 3q-17 10 -22.5 29t4.5 36l80 140q-11 30 -26 69t-31 82.5t-33 89.5t-33 89q-38 101 -77 210q-2 5 -3 9t-0.5 8.5
t3.5 7.5l-10 25v9q0 4 0.5 8t2.5 7q4 5 11.5 7.5t22.5 -2.5q4 -1 30.5 -9t68 -20.5t92.5 -28t104 -31.5q124 -38 280 -84q7 -2 14 -5q5 -2 11 -4.5t8 -5.5q5 -5 13 -15t19 -39q3 -7 12.5 -30.5t22.5 -57t29 -73.5t32 -81q38 -96 84 -213z" />
    <glyph glyph-name="quotesingle" unicode="'" horiz-adv-x="967" 
d="M946 183q5 -23 -1 -42.5t-18.5 -36t-30 -29.5t-35.5 -23q-42 -24 -86.5 -42t-90.5 -33q-85 -28 -178 -40.5t-183 -5.5q-48 4 -94.5 10.5t-91.5 23.5q-17 6 -36 15.5t-36 22t-30 28t-18 34.5t-2 39t11.5 38.5t21 34.5t27.5 28q14 11 33.5 21t29.5 24q10 16 20.5 32.5
t17.5 34.5l-1 -1q0 1 1 2t1 2v-1q4 7 6.5 13.5t6.5 13.5q21 40 43 79t43 79q22 43 44.5 86t53.5 80q32 38 73 47.5t89 6.5q41 -3 70 -23.5t54 -49.5q7 46 15.5 98t17 98t16 80t12.5 44q-1 -30 -4 -66q-2 -31 -6.5 -71.5t-12.5 -86.5q27 57 72 111t117 91q-9 -70 -31 -138
q-19 -58 -52 -122.5t-87 -114.5q3 -5 6 -9.5t5 -9.5q11 -19 21 -37.5t27 -34.5q21 -19 28 -39t15 -44q3 -8 9.5 -17t5.5 -18q0 -4 -1 -10t-1.5 -13t0 -12.5t3.5 -8.5q13 -16 30.5 -31.5t33.5 -32t29 -35t18 -39.5z" />
    <glyph glyph-name="parenleft" unicode="(" horiz-adv-x="759" 
d="M738 544q-8 -43 -29.5 -78t-51.5 -63t-66.5 -49t-74.5 -36q42 -9 76.5 -32t58.5 -55.5t35.5 -72.5t6.5 -83q-5 -48 -27 -87t-54 -70t-72.5 -53.5t-83.5 -36.5q-40 -13 -82 -13.5t-82.5 10t-78.5 30.5t-69 47q-35 30 -58 66t-32.5 76t-4 82t27.5 83q12 23 30.5 42.5
t40.5 34.5t47 24.5t50 13.5q-38 12 -74.5 33.5t-67.5 50.5t-53.5 64.5t-31.5 76.5q-7 35 5.5 52.5t36.5 23.5t55.5 2.5t63 -11.5t58.5 -16.5t42 -13.5q-8 16 -15 34t-11 36t-4 36.5t7 36.5q6 16 17.5 31.5t27.5 27t34.5 19t36.5 7.5q36 0 68.5 -23t48.5 -55q17 -36 10 -75
t-27 -72q15 5 42.5 13.5t59 15t63.5 8.5t56.5 -5t37.5 -25t7 -52zM188 493q5 6 2.5 12t-7.5 11.5t-11.5 10t-9.5 6.5q-8 5 -23.5 9.5t-23.5 -3.5q-3 -4 -0.5 -9t7.5 -10.5t10.5 -9.5t8.5 -6q3 -3 9.5 -6.5t13.5 -6t13.5 -2.5t10.5 4zM560 193q-13 14 -30.5 26.5t-36.5 16.5
q-6 1 -17 0.5t-22 0t-19 3.5t-8 11q-10 -13 -25.5 -19t-31.5 -5t-31 8.5t-23 21.5q1 -14 -7 -15.5t-19 -1.5q-15 0 -29 -1t-28 -6q-25 -10 -43.5 -29.5t-29.5 -44.5q-12 -27 -9 -54t16.5 -50t35 -40.5t46.5 -27.5q34 -13 79.5 -19t90.5 -1t84.5 23.5t61.5 54.5
q23 35 23 75.5t-28 72.5zM605 501l11 5.5t12.5 8.5t7.5 10.5t-2 11.5q-3 4 -10 4.5t-14.5 -1t-14 -4t-10.5 -3.5q-4 -2 -10.5 -6t-12 -9.5t-8 -11t2.5 -10.5q8 -8 24 -3.5t24 8.5z" />
    <glyph glyph-name="comma" unicode="," horiz-adv-x="621" 
d="M577 330v-383q0 -8 -2 -16q-2 -7 -4.5 -14.5t-8.5 -14.5q-12 -14 -34.5 -17t-51.5 -5q-15 -1 -46 -3.5t-63 -4.5q-37 -3 -80 -6q-10 -1 -18 1t-14.5 5.5t-11.5 11.5q-8 3 -15 7q-6 4 -12.5 9.5t-10.5 13.5t-6 13.5t-4 9.5t-2 8l-5 5q-2 2 -4 3.5t-4 3.5q-3 3 -31 16
q-2 2 -4 2l-52 -3q-6 1 -11 3t-9.5 4t-8.5 6q-8 4 -13 8t-9 9.5t-4 13.5v33.5v75.5t0.5 103t0.5 116q0 138 1 312q-1 5 1 11q3 12 22 24q4 3 9 6q5 2 12 4.5t18 2.5h38l45 24l5 5q5 5 8 12q2 7 6.5 19.5t13.5 18.5q5 2 9 5.5t9 5.5q4 3 10 5q7 5 18 9t40 2q7 0 20.5 -1
t31 -2t37 -2.5t38.5 -2.5q45 -3 97 -6q7 -1 13 -3q13 -4 22 -14q10 -11 12 -24t2 -27v-398zM76 688q-4 -2 -7 -5q-6 -6 -6 -9q0 -9 5 -9l44 23h-36zM77 -12h19.5t22.5 1l-52 26l-4 -4q-3 -5 -1 -10q2 -7 4.5 -10t10.5 -3zM257 790q-8 0 -11.5 -7.5t-5.5 -16.5q-2 -11 -2 -23
l288 -17q2 1 1.5 11t-0.5 15q-7 16 -19 21q-6 3 -13 3q-62 4 -112 7q-21 1 -42.5 2t-38.5 2t-29.5 2t-15.5 1zM488 -96q13 1 21.5 5.5t13 10t6 11t1.5 8.5q0 4 -2 12q-1 4 -1 6l-290 -18q0 -1 0.5 -4t1.5 -16q0 -8 1.5 -13.5t3.5 -8.5q2 -4 4 -6q58 3 107 6l42 2t39 2
t31.5 2t20.5 1z" />
    <glyph glyph-name="hyphen" unicode="-" horiz-adv-x="792" 
d="M771 317q0 -12 -11 -17l4 -6t2 -8q0 -8 -5.5 -13t-13.5 -5q12 -5 12 -18q0 -8 -5.5 -13.5t-13.5 -5.5q-2 0 -3 1l-9 -18q9 -5 9 -16q0 -8 -5 -13.5t-13 -5.5q-3 0 -9 2l-11 -20q4 -6 4 -11q0 -8 -5.5 -13.5t-13.5 -5.5q-4 0 -8 2l-8 -10t-9 -12q12 -5 12 -17
q0 -8 -5.5 -13.5t-13.5 -5.5q-6 0 -10 3l-9 -22q9 -5 9 -16q0 -8 -5 -13.5t-13 -5.5h-1l-9 -22q2 -4 2 -8q0 -8 -5.5 -13.5t-13.5 -5.5h-1q-4 -4 -7 -7.5t-6 -5.5q3 -5 3 -11q0 -8 -5 -13.5t-13 -5.5q-3 0 -9 2q-2 -16 -18 -16q-15 0 -19 16h-2q-2 -16 -18 -16q-7 0 -12 4.5
t-6 10.5q-2 0 -4.5 0.5t-4.5 0.5q-5 -9 -16 -9q-6 0 -11 4t-7 10q-2 1 -3 1t-2 1q-7 -10 -17 -10q-8 0 -13.5 5t-5.5 13v2q-2 0 -3 0.5t-3 0.5q-4 -13 -18 -13q-11 0 -16 9q-4 -1 -7.5 -2t-7.5 -1q-4 -14 -18 -14q-13 0 -18 12h-10q-1 -8 -6 -13t-13 -5t-13 5t-6 13h-2
q-2 -15 -18 -15q-13 0 -18 13h-10q-5 -6 -13 -6q-13 0 -18 12q-10 4 -19 13q-13 3 -13 18v3q0 2 -1 2h-4q-19 0 -19 19q0 14 12 17q-1 8 -6 22q0 -1 -2 -1q-8 0 -13.5 5.5t-5.5 13.5q0 10 10 17q-2 5 -4 10.5t-4 11.5q-11 5 -11 17q0 3 2 9l-7 21q-4 -2 -7 -2
q-8 0 -13.5 5.5t-5.5 13.5q0 6 4 11t9 7l-7 19q-2 0 -3.5 -0.5t-3.5 -0.5q-8 0 -13.5 5.5t-5.5 13.5q0 12 12 17q-8 18 -12 33q-5 -7 -15 -7q-8 0 -13 5.5t-5 13.5q0 14 14 18q-4 6 -4 11q0 11 10 16q0 4 -0.5 7.5t-0.5 6.5q-2 0 -3 -0.5t-3 -0.5q-8 0 -13.5 5.5t-5.5 13.5
q0 12 10 17v5q0 8 5 13t13 5h4q3 10 7 16v2q0 5 7 11.5t8 6.5q0 19 19 19q7 0 12 -5l18 9q3 13 18 13q1 52 13 85t27 53q17 23 39 35q-6 10 -6 18q0 4 2 6l16.5 5.5t21.5 8.5q12 5 26 12q6 10 10 19q4 8 7.5 14.5t3.5 8.5q0 3 3.5 7t7.5 7q-3 6 -3 13q0 13 9 22t22 9
q10 0 18 -6t11 -15q8 17 27 17q13 0 22 -9t9 -22q0 -6 -1 -9q5 -1 8 -4t5 -6q3 -4 4 -9l10 -14q4 -5 7.5 -9.5t5.5 -5.5q1 -1 10 -4.5t19.5 -7t20 -6.5t13.5 -4q5 -1 7 -9q1 -4 1 -8q37 -11 60 -34t36 -50t18.5 -54.5t8.5 -46.5h3q8 0 13 -5.5t5 -13.5q0 -14 -12 -17
q1 -2 1.5 -3.5t2.5 -3.5q5 10 16 10q8 0 13.5 -5.5t5.5 -13.5v-3h3q8 0 13 -5t5 -13q0 -13 -11 -18l12 -10q4 2 9 2q8 0 13 -5.5t5 -13.5t-5 -13q0 -2 0.5 -3.5t0.5 -3.5q4 2 7 2q8 0 13.5 -5.5t5.5 -13.5zM287 665q20 8 46.5 11t50.5 3q28 0 58 -2q-7 6 -12 11l-14 14
q-2 2 -3 2t-3 1q-2 0 -3 1l-19 16q-10 0 -17.5 6t-11.5 15q-9 -17 -27 -17q-2 0 -3 1q-4 -11 -10 -17q-3 -4 -6 -5q-1 -4 -5 -10t-9 -13q-5 -8 -12 -17z" />
    <glyph glyph-name="period" unicode="." horiz-adv-x="1034" 
d="M977 499q10 -2 19 -6q8 -4 15 -10t9 -17q0 -9 -0.5 -19.5t-1.5 -18.5q-1 -10 -1 -19l-2 -8q-2 -3 -3.5 -6t-3.5 -3q-3 -1 -7 -1h-8h-9q-36 -6 -70 -12q-30 -5 -63.5 -11.5t-62.5 -13.5q-7 -2 -16 -3.5t-16 -1.5q-3 0 -8 1l-10 2q-6 1 -12 3q-2 2 -5 6q-2 2 -6 5.5t-9 7.5
q0 -2 -1 -3q-2 -3 -4 -3h-10q-4 0 -9 1l-2 -2q-7 -2 -17 -2q-8 0 -19 2t-22 7h-2q-3 0 -3 -1q-2 -4 -4 -7t-3 -5q-1 -7 -3 -14q-2 -6 -3 -13t-1 -15l163 -25q12 -2 23 -5q10 -2 20 -5t16 -5q14 -5 27.5 -8t15.5 -3v-3l26 -4q1 0 3 -1q3 -3 3 -5h3q1 -18 2 -37q1 -17 1.5 -37
t2.5 -39q1 -37 -3.5 -71t-20.5 -50q-1 -2 -3 -1.5t-4 1.5q-5 0 -22 5l-20 6l-2 12l-689 151h-8q-4 0 -9 0.5t-11 2.5t-10.5 2.5t-7.5 2.5q-4 1 -6 3l-2 5h-2q-6 7 -13 16q-6 8 -13.5 17.5t-15.5 22.5q-17 25 -22 33.5t-5 15.5v13.5t2 13.5q2 3 3.5 8t3.5 10t5 12h4v5v2
q0 1 1 2q0 3 4 3q1 0 2 -0.5t3 -0.5h4q5 2 9 5q4 2 7 4t5 3q2 0 8 -2q3 -1 6 -1l2 3l17 -3h33l249 -41l76 98q11 16 27 28q13 11 32 19.5t43 7.5h30q7 5 26 15.5t43 16.5l108 -13q-1 0 -1 0.5t1 0.5q0 1 3 1q0 -1 1 -1l2 -1v1h1h2q0 -1 1 -1l2 -1v1h1l2 1q0 -1 1 -1t2 -1
q1 1 3 1h1q0 -1 1 -1l2 -1v1h3l3 -3v2l2 1q1 0 1 -1h1q1 0 1 -1q0 -2 1 -2v1l1 1q1 0 1 0.5t1 0.5l1 -1q2 -2 3 -2l1 1h1h1q0 -1 1 -1t1 -0.5t2 -0.5v1l1 1q1 0 2 -1t3 -2v1l1 1h1q0 -1 1 -1l4 -2q-1 1 0 2h1q3 0 5 -2v1l1 1l1 -1t2 -1l2 -2v2q0 1 1 1h1q0 -1 2 -2t2 -2v3h2
l1 -1q2 -2 3 -2q0 1 1 1h1q3 0 5 -2v1q0 1 1 1h1q0 1 4 -3v2h1h1q1 -1 2 -1t1 -0.5t1 -0.5q3 0 1 0.5t0 0.5h1q2 0 4 -2h1v1q0 1 1 1l2 -1q0 -1 1 -1l2 -2v3h3l3 -3v2h1h2l1 -1q0 -2 2 -2h1v1q0 2 2 2v-2q1 0 3 -2h1v1v1h2h1l2 -2h1v1h2h1l2 -2q5 0 3 0.5t0 0.5q0 1 1 1v-1
q1 0 1 -0.5t2 -0.5l2 -1v1v1h1l3 -2h2v1h1h1l1 -1q0 -1 1 -2l2 2l1 1l1 -1l1 -1q0 -1 1 -1l3 -1v1v2h1l2 -3h3v1h1l4 -2q2 0 1 1q1 1 1 0h1q0 -1 1 -1h2h2v1h1v-1q0 -1 1 -1h2h3v0z" />
    <glyph glyph-name="three" unicode="3" horiz-adv-x="894" 
d="M883 431q3 -29 3 -58q0 -50 -11 -100q-9 9 -21 9t-20.5 -8.5t-8.5 -20.5t8.5 -20.5t20.5 -8.5q2 0 3.5 0.5t3.5 0.5q-23 -64 -64 -118t-95 -93t-119.5 -61t-137.5 -22q-92 0 -172.5 34.5t-140.5 94.5t-94.5 140.5t-34.5 172.5q0 91 34.5 171.5t94.5 140.5t140.5 95
t172.5 35q73 0 140 -23t122 -63.5t96 -97t62 -122.5q-6 2 -11 2q-12 0 -20.5 -9t-8.5 -22v-53q-1 -12 -6.5 -20.5t-17.5 -10.5q-1 1 -5 1q-16 0 -20.5 -8.5t-7 -19t-6.5 -20t-18 -10.5h-5q-12 0 -20 -9t-8 -22v-53q0 -13 8 -22t20 -9q13 0 21 9t8 22v53q0 4 -1 5q2 4 7 15
t22 11q12 0 20.5 8.5t8.5 20.5v4q1 4 6.5 14.5t22.5 10.5q12 0 20.5 9t8.5 21v4zM739 511q-12 0 -20 -8t-8 -20t8 -20.5t20 -8.5q13 0 21 8.5t8 20.5t-8 20t-21 8zM163 339q13 0 22 8.5t9 20.5t-9 20.5t-22 8.5h-110q-13 0 -22 -8.5t-9 -20.5t9 -20.5t22 -8.5h110zM384 339
l-5 0.5t-10 3.5t-9.5 9t-4.5 17q0 2 1 6.5t4 9.5t9 8.5t16 3.5q11 0 19.5 8t8.5 20q0 16 -9 20.5t-20 7t-20 8t-9 22.5q0 12 -8.5 20t-21.5 8h-111q-13 0 -22 -8t-9 -20t9 -20.5t22 -8.5h113q8 0 14 -4q5 -3 9.5 -9t4.5 -17q0 -5 -5 -16t-25 -11h-54q-13 0 -21.5 -8.5
t-8.5 -20.5t8.5 -20.5t21.5 -8.5h57q8 0 14 -4q5 -3 9.5 -8.5t4.5 -16.5q0 -5 -5 -16.5t-25 -11.5h-112q-13 0 -22 -8.5t-9 -20.5t9 -20.5t22 -8.5h168q13 0 22 9t9 22v53q0 13 -8.5 22t-19.5 9h-1zM662 423q0 13 -8 22t-20 9q-15 0 -21.5 9.5t-7.5 18.5q0 12 -9 20.5
t-22 8.5h-53q-14 0 -22 -8.5t-8 -20.5q-1 -9 -8 -18.5t-21 -9.5q-12 0 -20.5 -9t-8.5 -22v-111q0 -13 8.5 -21.5t20.5 -8.5q16 0 21 -9t7.5 -20t8 -20t22.5 -9h53q13 0 22 9t9 21v-1q1 8 7 18.5t22 10.5q12 0 20 8.5t8 21.5v111zM574 454q21 0 26 -12.5t5 -18.5v-111
l-0.5 -5t-3 -10.5t-8 -10t-15.5 -4.5h-57q-11 0 -17 4.5t-9 9.5t-3.5 10t-0.5 6v111q0 1 0.5 6t3.5 10.5t9 10t17 4.5h53z" />
    <glyph glyph-name="four" unicode="4" horiz-adv-x="894" 
d="M584 456q20 0 25.5 -12.5t5.5 -18.5v-111l-0.5 -5t-3 -10.5t-8.5 -10t-16 -4.5h-56q-11 0 -17 4.5t-9 9.5t-4 10t-1 6v111q0 1 1 6t4 10.5t9 10t17 4.5h53zM830 255q0 -12 8.5 -20.5t20.5 -8.5q2 0 2.5 0.5t2.5 0.5q-23 -64 -64 -118t-95.5 -93t-120 -61t-137.5 -22
q-88 0 -166 32t-137.5 88.5t-96 132t-41.5 162.5q8 -7 20 -7h110q13 0 22 8.5t9 20.5t-9 20.5t-22 8.5h-110q-11 0 -20 -7q3 88 39 165.5t95.5 135.5t138.5 91t168 33q74 0 141 -23t122 -63.5t95.5 -96.5t62.5 -122q-3 1 -9 1q-12 0 -20.5 -9t-8.5 -22v-53
q-1 -12 -6.5 -20.5t-17.5 -10.5q0 1 -4 1q-16 0 -21 -8.5t-7.5 -19t-6.5 -20t-18 -10.5h-4q-12 0 -20.5 -9t-8.5 -22v-53q0 -13 8.5 -22t20.5 -9t20 9t8 22v53v5q1 4 6 15t23 11q12 0 20 8.5t8 20.5v4q1 4 6.5 14.5t22.5 10.5q23 0 28 22q1 -11 1.5 -23t0.5 -23
q0 -49 -11 -98q-9 7 -19 7q-12 0 -20.5 -8.5t-8.5 -20.5zM745 513q-12 0 -20.5 -8t-8.5 -20t8.5 -20.5t20.5 -8.5t20 8.5t8 20.5t-8 20t-20 8zM394 284q12 0 20 8.5t8 20.5t-8.5 20t-21.5 8h-114q-12 0 -20 8.5t-8 20.5q0 15 9 20t19.5 8.5t19.5 9t9 21.5v53q0 13 -8 22
t-20 9t-20 -9t-8 -22v-53q0 -16 -9 -21.5t-20 -8.5t-20 -9t-9 -22v-54q0 -13 9 -21.5t21 -8.5h54q16 0 21.5 -9t8.5 -20t8 -20t21 -9q15 0 20.5 9t9 20t8.5 20t20 9zM672 425q0 13 -8 22t-20 9q-15 0 -21.5 9.5t-7.5 18.5q0 12 -9 20.5t-22 8.5h-53q-14 0 -22.5 -8.5
t-8.5 -20.5q-1 -9 -7.5 -18.5t-21.5 -9.5q-12 0 -20 -9t-8 -22v-111q0 -13 8 -21.5t20 -8.5q17 0 22 -9t7.5 -20t8 -20t22.5 -9h53q13 0 22 9t9 21v-1q1 8 7 18.5t22 10.5q12 0 20 8.5t8 21.5v111z" />
    <glyph glyph-name="equal" unicode="=" horiz-adv-x="1057" 
d="M996 194q3 -2 11.5 -7t17 -12.5t15 -16.5t5.5 -18q-2 -18 -27.5 -38t-76.5 -37q-50 -17 -119 -35t-165 -23q-7 0 -21 1t-30.5 2.5t-33 3.5t-27.5 4t-35 5.5t-49 7.5q-29 4 -62 10l-72 24q-31 11 -66 22.5t-64 20.5l-3 -16q0 -2 -1 -3q-2 -3 -4 -3q-3 0 -19 8.5t-27 17.5
q-6 -3 -13.5 -8t-15 -9.5t-12.5 -8.5t-6 -5q-2 -4 -4 -10l-3 -6q-1 -1 -2 -1q-3 0 -3 1q-1 1 -3 3.5t-4 4.5l-6 6q-2 16 -4 29q-2 11 -3.5 22t-2.5 16q-2 8 -2 10t2 4q1 1 2 1.5t2 2.5q1 1 2 3q-10 6 -18 17q-7 9 -12.5 24.5t-6.5 38.5q0 5 2 9q4 9 12 16v9q0 2 1 4t1.5 3.5
t1.5 2.5v3q0 3 1 6q0 1 2.5 7.5t6 14.5t7 17.5t5.5 16.5q0 8 1 32t10 52q1 13 5.5 32.5t13.5 40.5t24.5 42t39.5 38q9 12 20 23q10 10 24 20.5t33 18.5q11 15 28 26q14 10 34.5 18.5t47.5 10.5q17 10 38 15q18 5 43 5t55 -8q20 0 44 -4q20 -4 45.5 -13t53.5 -27
q49 -21 91 -60q36 -33 72 -89t54 -142q2 -8 3 -16.5t4 -13.5q1 -2 7 -12.5t13 -23.5t13 -25t7 -18t2 -13t1 -13v-13zM183 106q1 1 1 6q-11 4 -19.5 6t-14.5 4v-2q7 -5 16.5 -10.5t11.5 -6.5q3 -2 5 3z" />
    <glyph glyph-name="greater" unicode="&#x3e;" horiz-adv-x="605" 
d="M263 -159q-6 0 -9 4t-4 6t-3 5.5t-4 5.5q-2 1 -11.5 10t-21 19.5t-21.5 20t-12 11.5q-5 6 -5 13v2q0 9 9 11v12q-9 2 -9 11t9 11v11q-9 4 -9 11q0 9 9 11v12q-9 2 -9 11q0 7 6 10v1q3 2 2 6.5t-7 24.5q-7 20 -14 33t-9 18q-4 8 -4.5 18t-1.5 19q-2 23 -3.5 46.5
t-9.5 46.5q-16 45 -41 84.5t-46 82.5q-21 41 -27.5 87t0.5 91.5t27.5 87t53.5 73.5q39 38 90 60t114 25h1q56 0 109 -21.5t95 -63.5q33 -32 53.5 -73.5t27.5 -87t0.5 -91.5t-27.5 -87q-21 -43 -46 -82.5t-41 -84.5q-8 -23 -9.5 -46.5t-3.5 -46.5q-1 -9 -1.5 -19t-4.5 -18
q-3 -5 -10 -18t-13 -33q-7 -20 -7.5 -24.5t1.5 -6.5l1 -1q5 -3 5 -10q0 -10 -9 -11v-12q9 -2 9 -11q0 -8 -9 -11v-11q9 -2 9 -11q0 -10 -9 -11v-12q9 -2 9 -11v-2q0 -3 -0.5 -6t-3.5 -7q-2 -2 -12 -11.5t-21.5 -20t-21.5 -19.5t-11 -10q-2 -2 -4 -5.5t-3 -5.5t-4 -6t-9 -4
h-79z" />
    <glyph glyph-name="question" unicode="?" horiz-adv-x="1251" 
d="M1218 253q-1 -11 -9.5 -43t-33.5 -70q-13 -19 -31 -29t-35 -15q-20 -6 -42 -7v-5q-3 -14 -12 -27t-19 -24q-11 -13 -25 -25q0 -15 -27.5 -25.5t-66.5 -10.5q-40 0 -67.5 10.5t-27.5 25.5v3q-15 10 -26 26.5t-18.5 35.5t-12 38t-7.5 35q-11 -19 -49.5 -31t-89.5 -12
t-89.5 12t-50.5 30q-17 23 -26.5 53.5t-12.5 51.5q-6 -11 -10 -23.5t-5 -26.5q-1 -19 -1 -38v-34q0 -18 -1 -35q0 -3 -0.5 -16t-3.5 -29.5t-10.5 -33t-21.5 -27.5v-4q0 -15 -28 -26t-68 -11q-41 0 -69 11t-28 26q-4 4 -10.5 12.5t-12.5 21.5t-10.5 32t-4.5 44v33
q-23 0 -45 8q-19 6 -38.5 20.5t-33.5 40.5q-3 7 -6 15t-5 21.5t-3 34t-1 53.5h119q14 20 56.5 33.5t99.5 13.5q51 0 90 -11l47 -11v24q-58 0 -87.5 19.5t-42.5 42.5q-15 27 -15 63v107h135l9 13q0 2 1 4q0 1 2 7q11 33 47.5 53.5t95.5 25.5l2 61q0 7 12 11.5t29 4.5
t29.5 -4.5t12.5 -11.5l4 -62q57 -7 94.5 -27t41.5 -46l7 -1q46 0 70.5 -3t35.5 -6.5t13 -7t2 -4.5q0 -2 -4.5 -3.5t-7.5 -3.5q-32 -20 -53.5 -42t-34.5 -42.5t-18.5 -35.5t-6.5 -19l-7 -171q23 10 54.5 15.5t67.5 5.5q62 0 107.5 -14.5t57.5 -37.5h122z" />
    <glyph glyph-name="at" unicode="@" horiz-adv-x="582" 
d="M535 887q1 -2 4 -18.5t7 -43t8 -61t6 -72.5t1 -77t-6 -74q-1 -2 -4 -4q-2 -2 -5.5 -4.5t-7.5 -4.5q-4 -3 -12.5 -7t-17 -8.5t-15.5 -8t-8 -3.5q-2 -2 -4.5 -0.5t-7.5 3.5l-15 6l-38 -20l-10 -544q0 -8 -1 -14q-1 -5 -2 -11t-4 -9t-12.5 -9.5t-19.5 -12.5q-11 -8 -25 -16
l-11 -2q-4 -11 -14 -20q-8 -8 -23.5 -15.5t-41.5 -9.5l-7 -6q-23 -10 -44 -19q-18 -8 -37 -15t-31 -9q-4 -2 -8 -3q-8 -2 -16 4q-5 3 -14 9t-18.5 12.5t-17.5 13t-10 10.5q-2 2 -5 7q-2 5 -4 14.5t-2 26.5q0 8 -0.5 36.5t-1.5 69.5t-2 90.5t-2 100.5q-3 119 -6 264v2
q0 2 1 3l-2 1q-1 2 -1 6q0 2 -0.5 5.5t0.5 5.5q0 1 1 2t1 1.5t2 1.5l56 26q0 3 3 3v1q-3 0 -3 4q0 3 3 3v1q-3 0 -3 3t3 3l1 2q-3 0 -3 3t3 3v1q-3 0 -3 3t3 3v2q-3 0 -3 3t3 3v4q-10 8 -10 18q1 14 19.5 23.5t44.5 8.5q3 0 6 -0.5t6 -0.5l6 12q1 0 2 1q1 0 5 2q1 1 13 5.5
t31 10.5q13 9 36 11q17 5 34 8.5t32 5.5q4 0 9.5 -1t8.5 -2q2 -1 9 -3.5t9 -4.5t2.5 -6.5t-0.5 -6.5v-6q0 -2 1 -4l31 7l-14 115v1q0 1 -4 3q-2 1 -10 3.5t-17 6.5q-11 4 -23 9q-2 0 -4 2q-4 4 -4 11q0 4 -0.5 19.5t-0.5 33.5t1 34t3 22q1 2 5.5 4t9.5 4q6 3 13 5l98 43
l88 -31q1 0 2 -1t5 -7z" />
    <glyph glyph-name="B" unicode="B" horiz-adv-x="1034" 
d="M808 -601v2q-3 61 -14.5 107.5t-29.5 81.5q-9 16 -19 30.5t-21 27.5q-6 7 -12 13.5t-13 11.5q-43 35 -92 47.5t-92 14.5h-11q-49 0 -101.5 -18.5t-94.5 -62.5q-15 -17 -28 -36.5t-24 -41.5l-2 -3q-15 -34 -23.5 -76.5t-9.5 -95.5v-2h-202l216 436v1l20 31l-3 6v1l5 17
q0 1 1 1h1v9h14v24l-19 18q0 1 -1 1v1l1 5l1 1h34l89 314l3 13l-12 31q-1 1 -1 2v4q0 1 1 1l2 2v8l1 1v8l1 2l20 17h2h4q17 103 27.5 204.5t18.5 203.5q7 100 13 222t10 271v2v1v14l-5 6q-1 1 -2 1v11q-8 6 -1 14l1 1v2q-8 6 -1 14l1 1v32l8 7l1 6q-5 1 -8 5q-1 1 -1 4v2v2
q1 1 1.5 2t2.5 2l-3 3q-1 1 -1 3v5q3 3 5 4h-10l46 105l2 7v43q0 9 10 9t10 -9v-39l43 -112l-6 -3l1 -1q3 -2 3 -4v-2q1 -1 1 -3q0 -1 -0.5 -1.5t-0.5 -1.5l-3 -3q3 -2 3 -4v-2q1 -1 1 -2q0 -2 -0.5 -2.5t-0.5 -1.5q-3 -3 -9 -5l1 -6l8 -7q1 0 1 -1v-31l1 -1q7 -8 -1 -14v-2
l1 -2q7 -7 -1 -13v-9q0 -1 -1 -2l-2 -1l-3 -5v-6h-2v-9v-1h1q0 -2 -1 -2q2 -71 4.5 -135t5.5 -124q3 -49 6 -97.5t7 -97.5q9 -113 19 -224t27 -223h3h2l20 -16q2 -2 2 -3v-7l-1 -1h1v-9l2 -2q1 0 1 -1v-4v-1l-12 -28l6 -27q21 -77 42.5 -152.5t43.5 -151.5h35q1 0 1 -1l1 -5
q1 0 0 -1l-27 -27v-1l2 -6v-1l4 -8h14v-9h1q2 0 2 -1l5 -17v-1l-3 -6l19 -31l1 -1l217 -436h-201zM559 1353l1 -1v3l-1 1v-3zM466 1383l-3 -2v-1l3 2v1zM466 1398q-2 -2 -3 -2v-1v-1q2 2 3 2v2zM813 -515q2 -8 2 -12h4zM817 -340h14l-20 13zM804 -360h-16l24 -15zM856 -468
h-17l25 -16zM869 -447h16l-23 15zM846 -447l-11 22l-12 -22h23zM817 -539q0 -5 0.5 -9t0.5 -9h15l-9 18h-7zM840 -574l-2 5h-19v-1q0 -2 -2 -4h23zM859 -544l16 28l-42 27zM900 -559l-12 25l-14 -25h26zM941 -559l-26 17l8 -17h18zM917 -483l-15 -26l40 -26zM902 -468h-23
l11 -22zM850 -400l37 -24l-24 48zM849 -360h-22l10 -20zM799 -294l35 -23l-22 46zM791 -236h3v1l-1 1zM777 -256l9 -18l10 18h-19zM785 -230l2 -2l1 2l-1 1zM780 -236h3l-2 2l-1 -1v-1zM777 -230l-2 2l-1 -2l1 -1zM766 -185l-8 -7l8 -7l7 6l-1 1zM764 -228h-1l-1 -2l2 -1
l1 1zM756 -105l2 -3h3v3h-5zM756 -182l3 2l-3 3v-5zM756 -208l3 3l-3 3v-6zM756 -235l1 -1h2l1 1l-2 1zM751 -230l1 -1l2 1l-2 2zM740 -256l21 -14l-7 14h-14zM748 -208v6l-4 -3l3 -3h1zM746 -234l-1 -1v-1h3v1zM746 -192l-8 7l-7 -7l7 -7zM739 -229l2 -2l1 1l-1 2h-1z
M744 -179l4 -3v5zM734 -170l4 -4l4 4h-8zM729 -182l3 3l-3 3v-6zM722 -108h2v1h-2v-1zM717 -179l3 -4v7zM710 -199l8 7l-8 7l-7 -7zM702 -203l1 -3l1 1zM704 -179l-3 3v-6zM717 -205l2 -3h1v6zM715 -170h-9l4 -4zM714 -107h-12v-1h12v1zM702 -87h1l-2 1v-1h1zM690 -49h14
l-4 13zM690 -178l2 -4v6zM670 -76v-5h3q0 1 -2 7zM670 3q1 -1 1 -3h5zM670 -83v-4h5q0 1 -0.5 2t-0.5 2h-4zM667 -107v-1h11v1h-11zM680 -29l6 8h-9zM667 31l16 -11q-2 5 -3.5 11t-3.5 11zM667 -81h2v3zM662 -87h7v4q-3 0 -4 1zM651 -21l6 -5q0 2 -0.5 2.5t-0.5 2.5h-5z
M652 77l-1 2v-2h1zM640 -39l3 -10h11zM654 -170h-5l4 -4l2 2zM643 -183l4 4l-4 3v-7zM645 -192l8 -7l7 7l-7 7zM659 -205l3 -3h1v6zM661 -108v1h-1v-1h1zM661 56h-5q1 -1 1 -4zM648 107l12 -9l-5 18zM641 0h9q-2 4 -2 8zM641 131h-3q0 -2 1 -3zM631 345l1 -1v2l-1 1v-2z
M631 181l8 -7l-3 14zM633 56l3 -2q-1 1 -1 2h-2zM634 152l-1 1v-1h1zM621 39l6 -24l10 13zM618 -192l7 -7l7 7l-7 7zM619 -179l-4 3v-7zM625 -98v-1h2v1h-2zM625 -96q0 -1 1 -1q0 2 -0.5 3t-0.5 2v-4zM621 -170l4 -4l4 4h-8zM631 -205l3 -3v5zM634 -182v5l-3 -2zM569 -82
q-2 1 -4 1v-6h3h1v5zM565 -79q1 0 1.5 -0.5t1.5 -0.5h1v8h-4v-7zM569 -89q-3 0 -4 1v-7h3h1v6zM569 -97q-2 0 -2.5 0.5t-1.5 0.5v-3h4v2zM562 -105h-1v-3h12v3h-11zM578 -83q-2 0 -4 0.5t-4 0.5v-6q5 0 8 -1v6zM570 -80q2 -1 8 -1v8h-8v-7zM578 -90q-6 0 -8 1v-7h8v6z
M578 -98q-6 0 -8 1v-2h8v1zM565 -170l4 -4l5 4h-9zM559 -176v-7l4 3zM562 -192l7 -7l8 7l-8 7zM579 -182v5l-3 -3zM579 -72h5q4 0 8 0.5t9 1.5v4h-36v-4q2 0 3 -1q2 0 5 -0.5t5 -0.5h1zM597 -96q1 1 4 1v7q-2 -1 -4 -1v-7zM601 -96q-2 -1 -4 -1v-2h4v3zM597 -88q1 1 4 1v6
q-2 0 -2.5 -0.5t-1.5 -0.5v-6zM597 -80q2 0 4 1v7q-3 0 -4 -1v-7zM588 -90v-7q2 1 7 1v6h-7zM588 -89q2 0 3.5 0.5t3.5 0.5v6q-2 0 -3.5 -0.5t-3.5 -0.5v-6zM595 -97q-2 -1 -7 -1v-1h7v2zM593 -170l4 -4l5 4h-9zM595 -73h-7v-8q5 0 7 1v7zM586 -97v7h-7v-6q2 -1 5 -1h2z
M579 -98v-1h7v1h-7zM586 -89v6h-7v-6h7zM586 -81v7h-2q-3 0 -5 1v-8h7zM579 -108h12v3h-12v-3zM587 -183l4 4l-4 3v-7zM590 -192l7 -7l8 7l-8 7zM606 -182v5l-2 -2zM608 -108v3h-12v-3h12zM613 -49q-19 68 -32 135.5t-22 122.5h-91q-9 -55 -22.5 -122.5t-31.5 -135.5h199z
M520 -108v3h-11v-3h11zM510 -170l4 -4l4 4h-8zM506 -82q-2 0 -3.5 -0.5t-3.5 -0.5v-6q2 0 3.5 0.5t3.5 0.5v6zM499 -81q4 0 7 1v7q-5 0 -7 -1v-7zM499 -90v-7q2 1 7 1v6h-7zM504 -176v-7l3 4zM494 -72q5 0 8.5 0.5t8.5 1.5v4h-35v-4q2 0 3 -1q2 0 4.5 -0.5t5.5 -0.5h5z
M497 -97v7h-7v-6q1 -1 4 -1h3zM490 -98v-1h7v1h-7zM497 -89v6h-7v-6h7zM497 -81v7h-3q-3 0 -4 1v-8h7zM485 -108v3h-12v-3h12zM476 -176v-7l4 4zM479 -82q-1 1 -3 1v-6h3v5zM476 -79q1 -1 3 -1v8h-3v-7zM479 -89q-2 0 -3 1v-7h3v6zM479 -97q-2 0 -3 1v-3h3v2zM488 -83
q-2 1 -7 1v-6q5 0 7 -1v6zM481 -80q2 -1 7 -1v8h-7v-7zM488 -90q-5 0 -7 1v-7h7v6zM488 -98q-5 0 -7 1v-2h7v1zM482 -170l4 -4l4 4h-8zM507 -88q2 1 4 1v6q-1 0 -1.5 -0.5t-2.5 -0.5v-6zM507 -89v-7q2 1 4 1v6h-4zM507 -80q3 0 4 1v7h-4v-1v-7zM507 -99h4v3q-1 -1 -4 -1v-2z
M392 56l-1 -2l3 2h-2zM394 152v1l-2 -1h2zM390 28l10 -13l6 25zM406 -97v7h-2h-1q-2 -4 -2 -7h5zM400 -98v-1h6v1h-6zM406 -89v6h-1l-2 -6h1h2zM406 -81v3q0 -2 -1 -3h1zM392 -177v-5l3 3zM392 -208l3 3l-3 3v-6zM402 -199l7 7l-7 7l-8 -7zM406 -170h-9l5 -4zM415 -108v3
h-12v-3h12zM408 104l9 -11q2 5 2.5 10.5t1.5 10.5zM419 152l-3 5q-1 -2 -1 -5h4zM420 226l2 1l-1 1l-2 -1zM410 227l-1 1l-2 -1l1 -1zM415 -99v2q-2 -1 -7 -1v-1h7zM408 -97q2 1 7 1v6h-7v-7zM408 -89q2 0 3.5 0.5t3.5 0.5v6q-2 0 -3.5 -0.5t-3.5 -0.5v-6zM408 -81q5 0 7 1
v7q-5 0 -7 -1v-7zM408 -72q3 0 6 0.5t7 1.5v4h-11q-2 -4 -2 -6zM417 -88q1 1 4 1v6q-2 0 -2.5 -0.5t-1.5 -0.5v-6zM421 -88q-2 -1 -4 -1v-7q1 1 4 1v7zM417 -80q2 0 4 1v7q-3 0 -4 -1v-7zM417 -99h4v3q-2 -1 -4 -1v-2zM420 -182l3 3l-3 2v-5zM433 -108v3h-12v-3h12z
M425 -170l5 -4l4 4h-9zM434 -99v2q-3 0 -4 1v-3h4zM434 -95v6q-3 0 -4 1v-7h4zM434 -87v5q-1 1 -4 1v-6h4zM430 -79q1 -1 4 -1v8h-4v-7zM430 -70q2 0 4 -1q2 0 4.5 -0.5t4.5 -0.5h1h5q4 0 8 0.5t9 1.5v4h-36v-4zM462 -96q1 1 4 1v7q-1 -1 -4 -1v-7zM466 -96q-1 -1 -4 -1v-2
h4v3zM462 -88q1 1 4 1v6q-1 0 -2 -0.5t-2 -0.5v-6zM462 -80q3 0 4 1v7q-3 0 -4 -1v-7zM453 -97q3 1 7 1v6h-7v-7zM460 -97q-2 -1 -7 -1v-1h7v2zM453 -89q2 0 3.5 0.5t3.5 0.5v6q-2 0 -3.5 -0.5t-3.5 -0.5v-6zM453 -81q5 0 7 1v7q-4 0 -7 -1v-7zM452 -97v7h-8v-6q2 -1 5 -1h3
zM444 -98v-1h8v1h-8zM452 -89v6h-8v-6h8zM452 -81v7h-3q-3 0 -5 1v-8h8zM443 -88v5q-3 1 -7 1v-6h7zM443 -90q-5 0 -7 1v-7h7v6zM436 -80q2 -1 7 -1v8h-7v-7zM436 -99h7v1q-5 0 -7 1v-2zM438 -108h12v3h-12v-3zM448 -182l3 3l-3 2v-5zM450 -192l7 -7l8 7l-8 7zM462 -170h-9
l4 -4zM468 -108v3h-12v-3h12zM528 984l8 -8l8 8h-16zM543 996l-8 8l-8 -8h16zM527 950h19l-10 9zM528 939l9 -9l9 9h-18zM537 914l-9 -10h20zM528 892l10 -10l10 10h-20zM528 856h22l-11 10zM529 844l11 -10l11 10h-22zM540 819l-12 -12h25zM529 796l7 -6l9 -2l8 8h-24z
M530 746l14 -11l13 11h-27zM532 708h27l-14 11zM599 222l2 -1l1 1l-2 2zM600 231l2 1l-2 2l-1 -1zM597 209l4 -4q0 3 -1 4h-3zM592 186l2 -9q0 -2 0.5 -3.5t0.5 -3.5l7 8zM590 233l-2 1l-2 -1l2 -2zM588 224l-2 -2l2 -1l2 1zM592 248l-8 8l-2 -3v-5h10zM586 346l-2 2v-2h2z
M596 227l-2 2l-1 -2l1 -1zM595 261l-1 4h-3zM596 377h-32l18 -14zM574 354v1l-14 11l2 -12h12zM564 349v-3h1l3 3h-4zM549 233l-2 1l-1 -1l1 -1zM547 225l-1 -1l2 -2l1 1zM553 248l-13 11l-11 -11h24zM542 230l-1 -1l1 -2l1 1zM537 233l-1 1l-1 -1l1 -1zM536 225l-1 -1l1 -1
l1 1zM526 233l-1 1l-2 -1l2 -1zM525 225l-1 -1l1 -1l1 1zM530 265h-11v-10zM515 233l-2 2l-1 -1l1 -1h2zM513 225l-1 -1l2 -1l1 1zM520 346v1l-2 2h-9l-3 -2v-1h14zM503 234l-1 1l-1 -1l1 -1zM502 225l-1 -1l1 -1l1 1zM508 255v10h-11zM498 248l-11 11l-13 -11h24zM496 230
l-1 -1l2 -1l1 1zM492 234l-1 1l-1 -1l1 -1zM491 225l-2 -1l2 -1l1 1zM485 230l-1 -1l1 -1l1 1zM481 234l-2 1l-1 -2l1 -1zM479 225l-2 -2l2 -1l1 2zM465 354q0 3 0.5 6t0.5 6l-14 -11l1 -1h12zM458 349l3 -3h1v3h-4zM523 359l7 -5h11l-2 16zM538 561l11 11l-13 10zM538 349
l1 -2v2h-1zM497 354l7 5l-16 11l-3 -16h12zM487 349v-2l2 2h-2zM513 366l16 11h-31zM533 389l-19 17l-19 -17h38zM514 422l11 10h-23zM495 423l-3 -20l13 11zM497 667l2 18l-12 -9zM495 634l-12 -10l10 -9zM489 561q0 5 0.5 10.5t0.5 10.5l-12 -10zM484 508q0 5 0.5 10
t1.5 10l-13 -10zM472 228l1 -1l2 2l-2 1zM474 421l-14 -11l11 -11zM478 454l2 21l-13 -10zM507 229l1 -1l1 1l-1 1zM518 229l1 -1l1 1l-1 1zM530 230l-1 -1l1 -1l2 1zM543 508l11 10l-13 10zM549 454l11 11l-14 10zM552 228l2 -1l1 1l-2 1zM553 421q1 -5 1.5 -11t0.5 -11
l11 11zM593 389l-17 14l-15 -14h32zM589 432h-32l18 -14zM586 444l-17 14l-14 -14h31zM582 486h-31l17 -13zM579 498l-16 13l-14 -13h30zM576 539h-30l16 -13zM574 551l-16 13l-14 -13h30zM571 593h-30l16 -13zM569 604l-16 13l-14 -13h30zM544 624l-12 10q0 -5 0.5 -9.5
t0.5 -9.5zM566 645h-29l15 -13zM564 657l-15 12l-13 -12h28zM561 696h-28l15 -12zM528 685q0 -5 0.5 -9t0.5 -9l10 9zM522 414l12 -11l-2 20zM528 444l-15 16l-14 -16h29zM527 462q0 3 -0.5 6t-0.5 6l-5 -5zM521 486h-16l8 -9zM501 474l-2 -12l7 7zM501 718q1 5 1 9.5v8.5
l-11 -9zM503 1009v6l-3 -3zM499 968l4 -5v9zM485 1040h15l-7 7zM493 1064l7 7h-14zM484 1028l8 -8l7 8h-15zM483 996h17l-8 8zM483 984l8 -8l8 8h-16zM481 950h19l-10 9zM498 921l5 -5v11zM480 939l9 -9l10 9h-19zM489 914l-10 -10h20zM497 874l6 -6v12zM479 892l9 -10
l10 10h-19zM488 866l-11 -10h22zM495 826l8 -7v14zM476 844l10 -10l12 10h-22zM486 819l-13 -12h25zM473 796l9 -8l8 2l7 6h-24zM469 746l13 -11l15 11h-28zM482 719l-15 -12h28zM466 696l13 -12l15 12h-28zM478 669l-15 -12h28zM461 645l13 -13l16 13h-29zM474 617l-16 -13
h29zM456 593l14 -13l16 13h-30zM469 564l-17 -13h31zM451 539l14 -13l16 13h-30zM464 511l-16 -13h30zM445 486l14 -13l17 13h-31zM458 457l-17 -13h31zM438 432l14 -14l17 14h-31zM451 403l-18 -14h32zM431 377l13 -14l18 14h-31zM440 233l-1 1l-2 -1l2 -2zM438 224l-1 -2
l2 -1l1 1zM444 248q1 1 1 4l-2 4l-8 -8h9zM443 346v1l-3 -1h3zM436 265h-4v-4zM432 229l-1 -2l1 -1l2 1zM425 178l7 -8q2 10 2 16zM430 209h-3q-1 -1 -1 -3zM424 222l2 -1l2 1l-2 2zM426 231l2 2l-1 1l-2 -2zM605 114l5 -21l8 11zM618 226l2 1l-2 1l-1 -1zM610 -99h4v2
q-1 0 -2 0.5t-2 0.5v-3zM614 -95v6q-3 0 -4 1v-7h4zM614 -87v5q-1 1 -4 1v-6h4zM610 -79q1 0 1.5 -0.5t2.5 -0.5v8h-4v-7zM610 -70q3 0 4 -1h5q-1 1 -1 2t-1 3h-7v-4zM619 -73h-3v-7q2 -1 6 -1zM616 -99h7v1q-5 0 -7 1v-2zM623 -96v6q-5 0 -7 1v-7h7zM616 -88q4 0 7 -1v3
q0 1 -0.5 1.5t-0.5 1.5q-2 1 -6 1v-6zM623 77h7l-2 7zM627 209h-6q1 -2 1 -6zM623 232l1 -1l1 1l-1 1zM623 222l1 -1l1 1l-1 1zM614 248h8l-1 4l-3 3zM611 232l1 -1l2 1l-2 1zM612 152q0 3 -1 5l-4 -5h5zM606 265l1 -6l3 5l-1 1h-3zM606 228l-1 -1l2 -1l1 1zM605 349h-2v-2
l2 -1v3zM602 367l-10 -11l2 -2h10zM594 422l-10 -11l13 -11zM588 476l-11 -10l13 -11zM571 519l13 -10l-2 20zM578 562q0 5 -0.5 10t-1.5 10l-10 -10zM573 615q0 5 -0.5 10t-0.5 10l-11 -10zM567 686l-10 -9l12 -9zM559 785h1v1zM553 727l12 -9l-2 18zM557 819q0 10 -1 14
l-7 -6zM559 1383q0 -1 -2 -1h2v1zM561 1396l2 -1h1l-1 1l-1 1l-1 1v-2zM561 1383l1 -1l1 -1q1 0 1 -1l-3 2v1zM554 1399q0 1 2 1h2l-2 2h-2v-3zM554 1396h3h2q0 2 -1 2h-2h-2v-2zM554 881l-7 -6l7 -7v13zM552 916q-1 4 -1 11l-5 -5zM549 972l-5 -4l5 -5v9zM547 1009
q0 4 -1 7l-3 -4zM545 1058l-3 -2l3 -3v5zM543 1100l-2 -2l2 -2v4zM540 1139l1 -2v3zM527 1237h8l-4 4zM527 1225l4 -4l4 4h-8zM527 1201h9l-5 4zM527 1189l5 -4l4 4h-9zM527 1164h9l-4 4zM527 1152l5 -5l5 5h-10zM527 1125h11l-6 5zM527 1113l6 -7l6 7h-12zM527 1083h13
l-7 7zM527 1071l7 -7l7 7h-14zM527 1040h14l-7 7zM527 1028l8 -8l7 8h-15zM524 1096l1 2l-1 2v-4zM524 1053l2 3l-2 2v-5zM524 1009l3 3l-3 3v-6zM524 963l4 5l-4 4v-9zM524 916l5 5l-5 6v-11zM524 868l6 6l-6 6v-12zM524 819l8 7l-8 7v-14zM524 736l2 -18l10 9zM513 604h1
q0 1 -0.5 2t-0.5 2v-4zM509 554q0 -1 -0.5 -1.5t-0.5 -1.5h10v3l-5 9zM509 539l4 -6l5 6h-9zM503 498h20l-10 14zM502 1098l1 -2v4zM501 1056l2 -3v5zM492 1237h8l-4 4zM492 1225l3 -4l4 4h-7zM491 1201h9l-5 4zM491 1189l4 -4l4 4h-8zM490 1164h10l-5 4zM489 1152l5 -5l6 5
h-11zM489 1125h11l-6 5zM488 1113l6 -7l6 7h-12zM487 1083h13l-6 7zM485 1137l1 2l-1 1v-3zM484 1096l2 2l-2 2v-4zM482 1053l3 3l-3 2v-5zM480 1009l4 3l-4 4v-7zM478 963l4 5l-4 4v-9zM476 927q0 -3 -0.5 -5.5t-0.5 -5.5l6 6zM473 881v-6.5t-1 -6.5l8 7zM472 1356v3h-1v-3
h1zM469 1382l-1 1v-1h1zM472 1396v2h-3h-1v-2h4zM470 833v-6.5t-1 -7.5l9 8zM468 1353v3l-1 -1v-3zM467 784l2 1l-2 1v-2zM463 736v-9t-1 -9l11 9zM459 686q0 -5 -0.5 -9.5t-0.5 -9.5l11 10zM455 635q0 -5 -0.5 -10t-1.5 -10l12 10zM450 582q0 -5 -0.5 -10t-1.5 -10l13 10z
M445 529q-1 -5 -1.5 -10t-0.5 -10l12 10zM436 455l14 11l-11 10zM429 401l14 10l-11 11zM425 367q-1 -4 -1.5 -7t-0.5 -6h10l2 2zM422 349q0 -1 -0.5 -1.5t-0.5 -1.5l2 1v2h-1zM417 264l3 -5l1 6h-3zM415 233l-2 -1l1 -1l2 1zM405 248h8l-5 7l-3 -3v-4zM401 232l2 -1l1 1
l-1 1zM401 222l1 -1l2 1l-1 1zM400 209l4 -6l2 6h-6zM397 77h7l-5 6zM393 344l1 1v1h1v2l-2 -1v-3zM391 188q-2 -6 -4 -14l9 7zM385 131l3 -3q0 1 0.5 1.5t0.5 1.5h-4zM379 8l-2 -8h9zM372 116q-2 -5 -3 -9t-2 -9l12 9zM373 -170l-1 -2l2 -2l4 4h-5zM376 -67v1h-1zM375 -21
h-4q-1 -2 -1 -5zM376 77v2l-2 -2h2zM366 56l3 -4l2 4h-5zM366 -192l8 -7l7 7l-7 7zM364 -202v-6h1l3 3zM363 -87h2l-2 2v-2zM355 0q1 1 1 3l-5 -3h4zM355 -74q0 -3 -1 -4v-3h6zM351 -87h2v4zM350 -107v-1h12v1h-12zM361 -83h-2h-5v-4h7v4zM344 20l16 11l-9 11zM341 -21l6 -8
l3 8h-9zM322 -49h14l-9 13zM335 -176v-6l1 4zM323 -179l3 -3v6zM312 -170l4 -4l5 4h-9zM307 -183l3 4l-3 3v-7zM295 -179l3 -3v6zM267 -235v-1h3v1l-1 1zM270 -208v6l-3 -3zM266 -270l21 14h-15zM270 -182v5l-3 -3zM288 -229l-1 1h-1l-1 -2l1 -1zM289 -199l7 7l-7 7l-8 -7z
M284 -170l5 -4l4 4h-9zM279 -182l3 3l-3 2v-5zM279 -208l3 3l-3 3v-6zM279 -236h2l1 1l-2 1l-1 -1v-1zM273 -230l1 -1l2 1l-1 2h-1zM265 -108h5l2 3h-7v-3zM250 -230l1 -1l2 1l-1 2h-1zM244 -236h3v1l-1 1zM238 -230l2 -2l1 2l-1 1zM233 -236h2l-1 2l-1 -1v-1zM230 -256
l11 -18l8 18h-19zM163 -484l25 16h-17zM165 -432l-23 -15h16zM204 -447l-13 22l-10 -22h23zM215 -375l24 15h-17zM216 -327l-20 -13h13zM192 -317l36 23l-13 23zM178 -360l12 -20l9 20h-21zM140 -424l37 24l-14 24zM112 -541l-26 -18h18zM124 -509l-14 25l-25 -51zM125 -468
l12 -22l11 22h-23zM153 -559l-14 25l-12 -25h26zM168 -544l25 55l-41 -27zM210 -574q-2 2 -2 4v1h-19l-3 -5h24zM210 -539h-8l-8 -18h14zM211 -527q2 8 2 12l-5 -12h3zM243 -382l-38 -24l14 -26zM254 -340l-12 22l-10 -22h22zM255 -205l-3 3v-6zM261 -199l7 7l-7 7l-7 -7v-1
zM263 -228l-2 -2l2 -1l2 1zM257 -234l-1 -1v-1h2l1 1zM290 -278l-34 -23l13 -23zM293 -235l-1 2l-2 -2l1 -1h2v1zM295 -205l3 -3v6zM299 -229l-1 1h-1l-1 -2l2 -1zM302 -236h2l1 1l-2 2l-1 -2v-1zM303 -320v-1l2 -2zM305 -332q1 1 1 2l-3 1zM307 -313l-1 -1l1 -2v3z
M310 -205l-3 3v-6zM311 -229l-1 1h-1l-1 -1l1 -2zM316 -199l8 7l-8 7l-7 -7zM323 -205l1 -1l1 3zM314 -296v-1l10 -7l-6 12zM315 -322l-1 2v-2h1zM324 -314q0 1 0.5 1t0.5 1l-4 3zM328 -299l-1 15l-4 -4zM332 -266q3 3 7 6t8 5l-2 5q-2 0 -2 3q-1 3 -4 4l-8 -17v-1
q2 -2 0 -5h1zM334 -305q1 0 2 1l-2 5v-6zM337 -278l10 -9l-6 14l-5 -4zM346 -297q0 1 2 1l-5 5zM352 -283l-1 16v1l-5 -3zM355 -208h1v2zM356 -242q1 -3 0 -5l1 -2q4 2 7 4t7 4v1q0 2 -0.5 2.5t-0.5 2.5v1q-2 4 -3 4.5t-3 0.5q-3 0 -5 -2q-3 -3 -3 -8v-3zM359 -289l-2 5v-5
h2zM369 -283q1 0 2 1l-4 5zM371 -273l-5 16l-5 -3l1 -2zM377 -254l-1 2q-1 0 -5 -2l5 -15zM381 -277q1 0 1 0.5t1 0.5l-1 5zM384 -202l-4 -3l3 -3h1v6zM384 -176l-4 -3l4 -4v7zM384 -49l3 10l-14 -10h11zM385 -235q3 2 7.5 3.5t5.5 1.5v2h-12q-1 -2 -1 -5v-2zM394 -272
q1 1 2 1l-4 6zM396 -261l-4 17l-5 -3v-3zM403 -244l-1 3q-1 0 -2 -0.5t-3 -0.5l4 -16zM408 -267l-1 5l-1 -5h2zM412 -202l-4 -3l3 -3h1v6zM412 -176l-4 -3l4 -4v7zM421 -263l-4 6l2 -6h2zM422 -253l-3 18l-6 -2l1 -4zM423 -205l-3 3v-6zM429 -233q-3 0 -5 -1l3 -16l2 15v2z
M430 -199l7 7l-7 7l-8 -7zM433 -260l-1 6l-1 -6h2zM439 -202l-3 -3l3 -3v6zM439 -176l-3 -3l3 -4v7zM445 -258q0 1 2 1l-3 5zM448 -247l-2 18q-2 0 -3 -0.5t-2 -0.5l-1 -1l1 -3zM448 -208l3 3l-3 3v-6zM456 -228h-5l2 -16l3 14v2zM458 -250l-1 -6l1 1v5zM467 -202l-3 -3
l3 -3v6zM467 -176l-3 -3l3 -4v7zM472 -254l-3 6l1 -6h2zM474 -243l-1 15h-5v-1zM477 -208l3 3l-4 3v-6h1zM479 -241l4 12v1h-4v-13zM484 -247l-2 -6h2v6zM486 -199l7 7l-7 7l-7 -7zM495 -182v5l-3 -2zM492 -205l3 -3v6zM497 -252l-2 5l1 -5h1zM499 -228h-4l4 -12v12z
M503 -105h-12v-3h12v3zM506 -99v2q-3 -1 -7 -1v-1h7zM504 -202v-6h1l2 3zM505 -238l2 10h-3zM508 -249l-1 -3h1v3zM521 -192l-7 7l-8 -7l8 -7zM520 -252l-1 3v-3h1zM523 -228h-3l2 -10zM523 -202l-3 -3l3 -3v6zM523 -177l-3 -2l3 -3v5zM524 -97q-3 0 -4 1v-3h4v2zM524 -89
q-3 0 -4 1v-7h4v6zM524 -82q-1 1 -4 1v-6h4v5zM524 -72h-4v-7q1 -1 4 -1v8zM520 -70q2 0 4 -1q2 0 4.5 -0.5t4.5 -0.5h1h5q6 0 16 2v4h-35v-4zM534 -83v-6h7v6h-7zM541 -81v7h-2q-3 0 -5 1v-8h7zM534 -90v-6q2 -1 5 -1h2v7h-7zM534 -98v-1h7v1h-7zM537 -170l4 -4l5 4h-9z
M550 -82q-2 0 -3.5 -0.5t-3.5 -0.5v-6q2 0 3.5 0.5t3.5 0.5v6zM543 -81q5 0 7 1v7q-5 0 -7 -1v-7zM543 -90v-7q2 1 7 1v6h-7zM550 -97q-2 -1 -7 -1v-1h7v2zM555 -108v3h-11v-3h11zM555 -99v3q-1 -1 -3 -1v-2h3zM552 -96q1 1 3 1v6h-3v-7zM552 -88q1 1 3 1v6q-1 0 -1.5 -0.5
t-1.5 -0.5v-6zM552 -80q2 0 3 1v7q-2 0 -3 -1v-7zM525 -88q5 0 8 -1v6q-2 0 -4 0.5t-4 0.5v-6zM533 -90q-5 0 -8 1v-7h8v6zM525 -80q3 -1 8 -1v8h-8v-7zM525 -99h8v1q-5 0 -8 1v-2zM526 -108h12v3h-12v-3zM532 -176v-7l3 4zM532 -247l-2 -5h1zM532 -228h-3l-1 -12zM535 -205
l-3 3v-6zM541 -199l8 7l-7 7l-8 -7zM545 -253l-2 6v-6h2zM548 -228h-4l3 -12zM551 -202l-3 -3l3 -3v6zM551 -177l-3 -2l3 -3v5zM557 -248l-2 -6h2v6zM559 -228h-6v-15l6 14v1zM563 -205l-4 3v-6h1zM568 -255q1 0 1 -0.5t1 -0.5l-1 6zM575 -228h-5v-2l3 -14zM576 -205l3 -3v5
zM583 -251l-3 -6q1 0 2 -1zM586 -230q-2 0 -2.5 0.5t-2.5 0.5l-2 -18l7 14v2v1zM591 -205l-4 3v-6h1zM595 -260l-1 6l-1 -6h2zM603 -234q-2 1 -3 1t-2 1l-1 -3l2 -15zM604 -205l2 -3v5zM609 -257l-4 -6h3zM613 -237q-1 1 -2 1t-3 1l-3 -18l8 12v4zM614 -108h12v3h-12v-3z
M616 -208l3 3l-4 3v-6h1zM620 -262l-1 -5h1v5zM629 -242l-4 2l-1 -4l1 -14zM635 -265l-4 -6l2 -1zM640 -246q-1 0 -5 2l-5 -17l9 11zM642 -233q0 3 -2 5h-11v-1l13 -6v2zM645 -271l-1 -5l1 -1v6zM647 -205l-4 3v-6h1zM651 -269l5 15l-5 3l-1 -3zM659 -277l-3 -5l1 -1z
M666 -259l-5 3l-5 -17l9 11zM669 -284l-1 -4q0 -1 1 -1v5zM670 -242q1 1 1 3q0 5 -3 8q-4 2 -5 2q-4 0 -6 -5v-2q0 -1 -0.5 -1.5t-0.5 -2.5v-1l14 -7v6zM672 -208l-1 1v-1h1zM675 -283l6 14l-5 3v-1zM684 -291l-5 -4l2 -2zM690 -276q-1 1 -2 1.5t-2 2.5l-6 -15l10 9v2z
M693 -299l-2 -5l1 -1zM696 -260l-8 17q-2 0 -4 -4q-2 -3 -3 -3l-1 -4l15 -11q0 3 1 4v1zM704 -287l-4 3l-2 -15zM706 -309l-5 -3l2 -2zM713 -320l-1 -1q0 -1 1 -1v2zM713 -297l-4 6l-7 -13l10 7h1zM718 -231l1 2l-1 1h-2v-1zM719 -316l2 2l-1 1zM723 -329l-2 -1q0 -1 1 -1z
M724 -322l-1 2l-1 -3zM725 -235l-2 2l-1 -2l1 -1h1zM731 -339l-1 -1v-1zM731 -230l-2 2h-1l-1 -1l2 -2zM732 -205l-3 3v-6zM734 -236h2v1l-1 2l-2 -2zM771 -301l-35 23l22 -46zM771 -235l-1 1l-2 -1v-1h3v1zM772 -205l3 -3v6zM773 -340h22l-11 21zM822 -406l-38 24l23 -50z
" />
    <glyph glyph-name="G" unicode="G" horiz-adv-x="822" 
d="M789 468q8 -17 11.5 -37t4.5 -37q1 -20 -1 -40q-1 0 -2 -1t-1 -7v-342q-1 -2 -2 -5t-5 -13l-8.5 -17t-8.5 -9t-8.5 9l-8.5 17q-2 4 -3 7.5t-2 5.5q-1 3 -2 5q1 83 2 149q0 28 0.5 55t1 48.5t1 35.5t0.5 16q-7 -5 -12 -10t-8.5 -12t-3.5 -15v-353l-2 -6l-2 -6t-3 -7
q-4 -8 -8.5 -16.5t-8.5 -8.5t-8.5 8.5t-8.5 16.5q-2 4 -3 7l-2 6l-2 6q1 113 2 204q0 39 0.5 76t1 66.5t0.5 48v20.5q0 14 -3.5 21.5t-8.5 12.5t-11 8q-3 -2 -5.5 -5t-4.5 -6q-3 -4 -5 -7v-352l-2 -6l-2 -6t-3 -7l-8.5 -17t-8.5 -9t-8.5 9l-8.5 17q-2 4 -3 7l-2 6l-2 6
q0 101 1 182q0 34 0.5 67t1 59.5t0.5 43v18.5q-7 -8 -11 -14q-5 -6 -8 -11.5t-3 -9.5v-422l-2 -6l-2 -6t-3 -7q-4 -8 -8.5 -16.5t-8.5 -8.5t-8.5 8.5t-8.5 16.5q-2 4 -3 7l-2 6l-2 6q1 120 2 216q0 40 0.5 79.5t1 70.5t0.5 50.5v21.5q0 8 -4.5 14t-9.5 11q-6 5 -14 10
q-2 -1 -6 -9q-2 -4 -3 -7v-370l-2 -6l-2 -6t-3 -7l-8.5 -17t-8.5 -9t-8.5 9l-8.5 17q-2 4 -3 7l-2 6l-2 6q1 96 3 173q0 33 0.5 64.5t1 56.5t1 40.5t0.5 17.5l-2 12q-1 5 -1.5 9.5t-2.5 6.5q-7 -5 -11 -9q-5 -5 -8 -10t-3 -10v-438l-2 -6l-2 -6t-3 -7q-4 -8 -8.5 -16.5
t-8.5 -8.5h-1q-4 0 -8 8.5t-9 16.5q-2 4 -3 7l-2 6t-1 6v438q0 5 -3.5 10t-7.5 10q-5 4 -11 9q-2 -2 -3 -6.5t-2 -9.5t-1 -12v-17.5t0.5 -40.5t1 -56.5t1.5 -64.5q1 -77 3 -173l-2 -6l-2 -6t-3 -7l-8.5 -17t-8.5 -9t-8.5 9l-8.5 17q-2 4 -3 7l-2 6l-2 6v370q-1 3 -3 7
q-3 6 -6 9q-8 -5 -14 -10q-5 -5 -9.5 -11t-4.5 -14v-21.5t0.5 -50.5t1 -70.5t0.5 -79.5q1 -96 2 -216l-2 -6l-2 -6t-3 -7q-4 -8 -8.5 -16.5t-8.5 -8.5t-8.5 8.5t-8.5 16.5q-2 4 -3 7l-2 6l-2 6v422q0 4 -3.5 9.5t-7.5 11.5q-5 6 -11 14v-18.5v-43t0.5 -59.5t0.5 -67
q1 -81 2 -182l-2 -6l-2 -6t-3 -7l-8.5 -17t-8.5 -9t-8.5 9l-8.5 17q-2 4 -3 7l-2 6l-2 6v352q-2 3 -5 7q-2 3 -5 6l-5 5q-7 -3 -12 -8t-8.5 -12.5t-3.5 -21.5v-20.5t0.5 -48t1 -66.5t0.5 -76q1 -91 2 -204q0 -3 -1 -6l-2 -6t-3 -7q-4 -8 -8.5 -16.5t-8.5 -8.5t-8.5 8.5
t-8.5 16.5q-2 4 -3 7l-2 6l-2 6v353q0 8 -3.5 15t-8.5 12t-12 10v-16t0.5 -35.5t1 -48.5t0.5 -55q1 -66 3 -149q-1 -2 -2 -5t-5 -13l-8.5 -17t-8.5 -9t-8.5 9l-8.5 17q-2 4 -3 7.5t-2 5.5q-1 3 -2 5v342q0 5 -2 7l-1 1q-2 20 -1 40q1 17 4.5 37t11.5 37t27.5 31t45.5 26
t58 22t66 20q34 9 49.5 22t20.5 26.5t4 26t-1 20.5t-11 20t-29 24t-41.5 22t-47.5 15q-24 4 -38.5 12.5t-22 18t-10 19t-2.5 15.5q0 7 8 21t39 28t93.5 25t170.5 11t170.5 -11t93.5 -25t39 -28t8 -21q0 -6 -2.5 -15.5t-10 -19t-22 -18t-38.5 -12.5q-24 -5 -47.5 -15
t-41.5 -22t-29 -24t-11 -20t-1.5 -20.5t4 -26t21 -26.5t49.5 -22q34 -10 66 -20t58 -22t45.5 -26t27.5 -31z" />
    <glyph glyph-name="T" unicode="T" horiz-adv-x="783" 
d="M767 406q3 -34 -1.5 -66.5t-11 -59.5t-14 -45.5t-10.5 -24.5l-100 -42q-5 -1 -9 -1q-9 0 -13 4l-1 -123l6 -16q5 -15 5 -24v-27.5t-10 -49t-35.5 -48t-76.5 -23.5q-26 -1 -55 -1.5t-59.5 -0.5h-61h-58.5q-65 0 -131 1q-23 1 -43 10q-17 8 -34 23t-26 44q-5 26 -5.5 46
t1.5 34q2 16 7 28q-1 84 -1 158v64v63t0.5 55t1.5 42q1 14 1 40t2 58t8.5 67.5t20 69.5t36 64.5t57.5 52.5q31 0 64 -6q28 -5 60.5 -16.5t62.5 -33.5q27 -32 54.5 -74.5t49.5 -81.5q26 -46 49 -93q8 6 18 17q8 10 17.5 26t18.5 40t23.5 34t30 11.5t30.5 -3.5t26 -11
q10 -6 27 -22t33.5 -40t29.5 -54.5t16 -64.5zM122 498q4 -8 22 -27t53.5 -35t90 -20.5t132.5 17.5q-33 74 -66 139q-14 28 -30.5 56.5t-33 54.5t-33.5 47t-32 35q-29 -9 -54 -21q-21 -11 -40.5 -26t-26.5 -35q-6 -20 -7.5 -45t1.5 -50.5t9 -49t15 -40.5zM646 234
q25 106 31 174t1.5 107t-13.5 54t-14 17t-13 0t-15 -5q-9 -4 -17 -8q13 -66 14.5 -121.5t-0.5 -96.5q-4 -48 -11 -86q7 -12 14 -19t12 -11q6 -4 11 -5z" />
    <glyph glyph-name="Y" unicode="Y" horiz-adv-x="1123" 
d="M971 139q26 2 49 -7.5t40 -27t25.5 -41t5.5 -48.5q-3 -26 -17 -47t-34.5 -34t-45.5 -16.5t-50 5.5q-24 9 -42 27q-3 3 -6.5 8.5t-6.5 11.5t-6.5 11.5t-6.5 7.5q-5 3 -13 3t-17.5 -1t-18.5 -2.5t-15 -1.5l-3.5 -5.5t-7 -12.5t-7.5 -13t-5 -7q-17 -19 -40 -27.5t-47 -7.5
t-46 11.5t-37 30.5q-3 5 -7 14.5t-7 11.5t-11.5 1t-12.5 -1h-36q-8 0 -7.5 -2.5t-4.5 -8.5q-17 -20 -32.5 -36.5t-43.5 -20.5q-24 -4 -48 0.5t-44 19.5q-10 8 -18.5 18.5t-13.5 22.5q-3 6 -9.5 8t-14 2t-15.5 -1t-14 -1q-9 0 -13 -1.5t-6.5 -5t-5 -8.5t-6.5 -12
q-14 -18 -33 -30q-20 -14 -45.5 -15.5t-48.5 6.5q-25 9 -44 26.5t-25 44.5q-3 14 -3.5 28.5t1.5 28.5q1 4 3.5 11t-0.5 10l-18 19q-9 10 -5.5 20.5t12 21t19 19.5t16.5 15q17 18 35 29t37 25q-9 -2 -20 -0.5t-17 4.5q-17 16 -22 39t-3 48.5t8 50.5t12 44l15 53q2 8 0 11.5
t-5.5 5t-8 3.5t-7.5 8t0.5 18t8.5 24.5t10.5 24.5t7.5 18q15 46 24 94.5t13 95.5q3 28 -1 51q-2 11 -6 25t-2 25q1 10 5 13.5t10 2t12.5 -5.5t13.5 -9v3q4 21 9 41t19 36q9 10 20 8.5t21.5 -8.5t19.5 -16.5t15 -14.5q10 -9 18.5 -18.5t17.5 -18.5q3 -3 7.5 -8.5t9.5 -11.5
t10 -10.5t9 -5.5q4 0 10 2t12.5 5t13 5.5t11.5 2.5q9 2 19 1t17 -9t3 -15t-5 -16q0 -14 -0.5 -27t12.5 -21q11 -6 22 -12.5t21 -14.5q6 -5 11.5 -17.5t9.5 -14.5q13 -4 14 -12.5t11 -15.5q7 -5 6 -12.5t-1 -15.5q0 -27 -6.5 -43t-34.5 -24q19 -26 40.5 -47t45.5 -42
q5 9 9.5 17t15.5 3q17 -7 34 -18q6 -3 16 -9t10 -12q1 -6 -8 -18t-12 -17q-2 -4 6.5 -12t23.5 -17t33.5 -18.5t35.5 -18t30.5 -14.5t17.5 -7q23 -7 47.5 -11.5t47.5 -9.5q17 -3 37 -7.5t31 -18.5q14 -17 15 -39.5t-2 -41.5q-2 -10 -9.5 -15t-17.5 -7.5t-21 -2.5t-19 -1z
M101 0q4 -9 11 -4.5t6 12.5q-6 5 -13.5 2.5t-3.5 -10.5zM128 -31q5 7 2 11.5t-10 7.5q-10 -4 -3.5 -9.5t11.5 -9.5zM152 -38q4 -1 5 1t-1 5t-5.5 5t-7.5 2q-5 -8 -2 -10t11 -3zM174 -39q10 -3 11.5 5t-5.5 13q-8 -1 -11 -8t5 -10zM177 133q22 -5 18 -0.5t-18 18.5
q-15 15 -21.5 16t-23.5 -12q-2 -2 -6.5 -5.5t-7.5 -7.5t-3 -7.5t6 -6.5q14 4 28 6t28 -1zM207 -17q-4 0 -7.5 0.5t-6.5 -0.5l7 -8zM398 -19h-9q2 -2 3 -2.5t2 -2.5zM425 -30q1 9 -8.5 10t-12.5 -8q4 -5 11.5 -8t9.5 6zM435 -37q5 -2 14 0.5t4 10.5q-4 8 -12.5 3.5
t-5.5 -14.5zM460 -19q2 -9 7.5 -8t9.5 8h-17zM610 101q14 -1 21 6t18 15q9 7 20.5 10t22.5 5q-17 14 -37 28q-5 5 -17 4t-20 0q-44 4 -88 12q-45 8 -88 15.5t-89 10.5q19 -17 36 -32.5t39 -28.5q11 -7 21.5 -8.5t22.5 -6.5q10 -4 18 -10.5t19 -8.5q25 -6 50 -8t51 -3z
M677 -28q4 4 4 11h-17q7 -9 13 -11zM689 -32q5 -5 12 -5t7 8q0 11 -8.5 9t-10.5 -12zM729 -32q9 5 3 12t-15 3q-2 -6 1 -12.5t11 -2.5zM751 -17h-8l6 -2zM948 -23q6 -6 9.5 0.5t-1.5 11.5q-5 -1 -9 -4.5t1 -7.5zM980 -32q8 0 6.5 7t-9.5 7q-3 -4 -3.5 -9.5t6.5 -4.5z
M1015 -17q0 3 -2 4.5t-5 0.5t-5.5 -3.5t-1.5 -6.5q2 -3 7.5 -1.5t6.5 6.5zM1025 -7q2 4 4 7.5t3 7.5q-2 -2 -5 -3.5t-5 -3.5q1 -3 0.5 -4.5t2.5 -3.5z" />
    <glyph glyph-name="Z" unicode="Z" horiz-adv-x="522" 
d="M379 611q0 11 9 20q0 2 -0.5 3.5t-0.5 3.5v42q0 3 2 9q-9 3 -12 8q-2 3 -3 5v37h-64q-21 -21 -39 -47q-16 -23 -32.5 -54t-25.5 -68h-1q-1 0 -1 -0.5t-1 -0.5q5 -2 13 -6q-5 -39 -3 -80q2 -35 9 -77.5t27 -84.5q6 -11 25 -31.5t41 -43.5t43.5 -44.5t32.5 -33.5t26 -31.5
t22.5 -46.5t3 -62t-31.5 -78q-7 -9 -26.5 -19.5t-46 -17t-57.5 -7t-59 10.5q-42 16 -85 54l-2 -2q-9 -11 -20 0l-4 4q-5 5 -5 10.5t5 9.5l2 2q-26 28 -45.5 60t-27.5 66h-3q-14 0 -14 14v6q0 12 13 14q-1 26 1.5 49.5t7.5 44.5h-4q-12 0 -12 13t12 13h9h1q7 29 13.5 53
t7.5 46q1 21 1 42.5v39t-0.5 30t-0.5 17.5q0 4 1.5 13.5t4 20t5.5 19.5t6 13l12 3q15 38 39 74q20 31 51 65.5t75 62.5q-3 8 -5.5 19.5t-2.5 22.5q0 21 10 38q12 20 36 27q12 4 24 4q23 0 39 -13t26 -29q4 -8 7 -15.5t5 -14.5q12 -2 17 -5.5t7 -7.5t1 -10v-93l-3 -3
q-2 -2 -4.5 -3.5t-6.5 -2.5q2 -4 2 -8v-42q0 -3 -2 -7q10 -8 10 -20v-121q2 -16 8 -29t12 -24q7 -12 16 -23q0 -1 1 -2q14 -14 22.5 -32t8.5 -39q0 -20 -7.5 -37t-20.5 -30t-30.5 -20.5t-36.5 -7.5q-20 0 -37.5 7.5t-30 20.5t-20 30t-7.5 37q0 21 8.5 39t22.5 32q0 1 0.5 1
t0.5 1q9 11 16 23q6 11 12 24t8 29v121zM375 789q-2 6 0 10t6.5 7.5t15.5 5.5q-2 6 -4.5 12t-5.5 11q-9 15 -21.5 25t-30.5 10q-9 0 -19 -3q-11 -4 -17.5 -9t-11.5 -11q-7 -13 -7 -31q0 -9 2 -17.5t4 -16.5q3 2 6 3.5t6 3.5h77z" />
    <glyph glyph-name="grave" unicode="`" horiz-adv-x="1184" 
d="M1139 296q18 -37 10 -66t-32 -51.5t-59.5 -39t-73 -28.5t-73 -20t-58.5 -14q-103 -24 -210.5 -30t-213.5 -1q-51 3 -106.5 5t-108 13t-97 37t-71.5 78q-17 34 -13 63t22.5 54t47 45.5t60.5 36.5t62.5 28t53.5 20q7 24 13 52t13.5 55.5t19 52.5t29.5 44q35 38 85 61.5
t101 27.5q52 4 103 -5t101 -25q26 -8 52 -17.5t51 -20.5q13 -6 23 -10.5t17.5 -10.5t13 -15t9.5 -25q6 -26 9 -51.5t5 -50.5q1 -11 1 -31.5t6 -28.5q3 -3 10 -5.5t15.5 -4.5t16 -3.5l12.5 -2.5q48 -14 89.5 -42t64.5 -74z" />
    <glyph glyph-name="b" unicode="b" horiz-adv-x="978" 
d="M892 328q9 -4 22 -11.5t24 -20.5t17.5 -31.5t4.5 -43.5q0 -2 -1 -7.5t-4 -7.5q-2 -2 -13.5 3.5t-16.5 8.5l-60 33v-107q0 -5 -1 -8q-2 -6 -4 -11q-6 -6 -16 -9q-6 -2 -12 -3t-14 -1h-34q-4 -11 -5 -24q-1 -6 2 -16.5t6 -18.5q6 -2 6 -9v-35q0 -9 -9 -9h-70q-9 0 -9 9v35
q0 4 4 8l2 8l2 8l2 8v36h-452v-36l2 -8t1.5 -8t1.5 -8q5 -3 5 -8v-35q0 -9 -10 -9h-70q-9 0 -9 9v35q0 7 7 9q2 8 5.5 18.5t2.5 16.5q-1 7 -2.5 13t-2.5 11h-34q-8 0 -14.5 1t-11.5 3q-10 3 -16 9q-4 5 -4 11q-1 3 -1 8v107q-24 -14 -40 -22.5t-21 -10.5q-5 -3 -16 -8.5
t-14 -3.5q-2 2 -3 7.5t-2 7.5q-2 25 5 43.5t18 31.5t24 20.5t22 11.5q36 15 72.5 33t67 34.5t52.5 30t29 19.5q7 5 16.5 19t19 29.5t19 30.5t16.5 23q15 17 31 27.5t29.5 16.5t25 8t17.5 3v90q0 8 3.5 15.5t7.5 13.5q5 6 9.5 10.5t8.5 7.5q5 4 12 11t13 16q15 20 15 38
q0 23 -16 45q-8 11 -19.5 18.5t-25.5 9.5q-5 1 -8 1h-7q-11 0 -19.5 -2.5t-14.5 -4.5q-6 -3 -9 -5.5t-4 -3.5l-26 -28l-3 -3l-1 -1l-19 -11q-1 0 -1.5 -0.5t-1.5 -0.5q-8 0 -8 8q0 4 4 6l16 10l29 30l5.5 5.5t11.5 6.5q8 4 18 6.5t23 2.5h8t9 -1q17 -2 31 -11.5t24 -21.5
q19 -27 19 -55q0 -14 -5 -25.5t-12 -21.5q-8 -10 -15.5 -17.5l-12.5 -12.5q-4 -3 -8 -6.5t-7 -8.5q-8 -11 -8 -20v-90q6 -1 17.5 -3t25 -8t29 -16.5t30.5 -27.5q7 -8 16.5 -23t19.5 -30.5t19.5 -29.5t16.5 -19q7 -6 29 -19.5t52.5 -30t67 -34.5t72.5 -33zM853 257l-364 197
q-1 -1 -20.5 -11t-49.5 -26.5t-68.5 -37t-78.5 -42t-78.5 -42.5t-69.5 -38v-112v-1q0 -4 1 -6q0 -4 2 -6q1 -1 3.5 -2.5t6.5 -2.5q9 -3 23 -3h34l5 12.5t3 15.5q0 6 -1 13t-1 13v3q0 13 9 21.5t21 8.5q11 0 19.5 -7.5t9.5 -18.5q6 -6 6 -16q-1 -5 -1 -10v-8q0 -4 -1 -7v-20
h452v20q-1 3 -1 7q-1 3 -1 8v10q-1 8 5 16q2 11 10.5 18.5t19.5 7.5q12 0 20.5 -8.5t8.5 -21.5v-3q0 -6 -0.5 -13t-0.5 -13q0 -8 3 -15.5l5 -12.5h34q14 0 22 3q5 1 6.5 2t2.5 2l4 7v6v113z" />
    <glyph glyph-name="d" unicode="d" horiz-adv-x="724" 
d="M691 469q8 -11 13 -33t5 -61q0 -35 -5 -85.5t-18 -122.5q-4 -21 -9 -52t-11 -63t-12.5 -60.5t-14.5 -44.5q-3 -8 -7 -12q0 -1 -2 -3t-5 -2t-5 1q-2 2 -2 3q-2 2 -4 6q-1 4 -2 8.5t-2 10.5q-2 12 -3 27.5t-2 33.5q-2 36 -2.5 78t-1.5 77q-1 23 -2 41t-3 26q-2 11 -5 23.5
t-7 25.5q-8 28 -20 40q-9 9 -19 9q-9 0 -20 -7l1 -2q2 -5 0 -8q-1 -2 -2 -3l-9 -4q0 -2 -3 -2h-2l-13 -11q5 -10 2 -26q0 -2 -0.5 -7.5t-1.5 -12.5q-1 -8 -1 -17q1 -1 3 -2t7 -6q3 -1 6 -3l3.5 -3.5l2.5 -2.5q6 -5 10 -10t7 -9.5t3 -9.5q-1 -17 -5 -26q-2 -11 -6 -22
q-4 -9 -10.5 -17.5t-17.5 -12.5l-4 -53q-1 -2 0 -5q1 -2 2.5 -5.5t6.5 -6.5q26 -12 41 -35t15 -52q0 -20 -8.5 -37.5t-22.5 -31t-33.5 -21t-41.5 -7.5t-41 7.5t-33.5 20.5t-23 31t-8.5 38q0 22 10.5 41t28.5 33l11 10q12 9 13 14q1 3 1 6l1 53q-12 4 -18.5 12t-10.5 17
q-4 10 -6 22l-2.5 10t-1.5 15l-10 -10q2 -4 2 -8q0 -10 -7 -17t-17 -7q-5 0 -11 2l-4 -2q0 -1 -0.5 -1t-0.5 -1v-2q-2 -3 -4 -7q-2 -3 -3.5 -6t-1.5 -4q-2 -3 -7 0q-8 -22 -16 -30q-9 -9 -18 -9h-1h-1h-1q-8 0 -16.5 3.5t-17.5 8.5t-18.5 13t-20.5 18q-41 40 -82 103
q-20 31 -37.5 65t-31 69.5t-21.5 71t-8 68.5v2q0 33 8.5 59.5t22.5 47.5q14 20 31.5 35t36.5 25q24 14 46 21t36 10q2 8 9 14t16 6q11 0 17 -6q6 13 21 13q9 0 16 -7q7 14 21 14q9 0 16 -7q7 14 21 14q9 0 15 -6q5 2 12.5 4.5t14.5 5t12.5 4.5l5.5 2q2 0 14 0.5t23 2.5
q1 5 1.5 9t1.5 8t1 9q-2 1 -4 3q-3 3 -3 8q0 10 6 10v1q0 2 -1 2t-5.5 1t-9.5 2t-9.5 9t-4.5 17q0 4 -0.5 8.5t-0.5 9.5q-1 5 -1 10v3q0 3 3 5q6 2 14 3t16 1h15h10h1q31 0 41 -1.5t13 -2.5q2 -2 2 -5v-3q-1 -5 -1 -10v-18q0 -8 -4.5 -16.5t-9.5 -9.5l-10 -2t-7 -1
q-1 0 -1 -2v-1q7 0 7 -10q0 -4 -4 -8l-3 -3q1 -2 1 -5q0 -7 1 -11q4 -1 8 -7q2 8 7.5 12.5t13.5 4.5q11 0 18 -11q2 1 4.5 1.5t3.5 1.5t4.5 -0.5t4.5 -5.5q1 -5 -0.5 -9t-4.5 -4q-5 0 -9 1q-2 -20 -21 -20q-11 0 -18 10q-3 -10 -13 -15q16 0 39 -1.5t44 -5.5t36.5 -10.5
t17.5 -16.5q1 -3 -0.5 -5.5t-3.5 -4.5q-3 -3 -5 -4l-13 -29q-6 -6 -17 -11q-10 -5 -27.5 -9t-46.5 -6q0 -4 -3 -7v-4q6 -4 5 -12q-2 -8 -3 -15t-6 -15l-1 -1q2 -1 7.5 -5t6.5 -11q1 -8 0 -17t-2 -17q0 -3 -3 -19.5t-7 -39.5t-8.5 -48.5t-8.5 -46.5q10 6 16 6l6 6v3q0 8 6 14
t15 6h1l3 3v4q0 8 6 14t14 6h3l2 1q0 2 -0.5 3t-0.5 3q0 8 6 13.5t15 5.5q6 0 11 -3q6 4 18.5 12t25.5 14q13 5 22 5h5l12 -4q4 -2 8 -5.5t8 -9.5zM322 160q-2 2 -2 5q-2 -8 -2 -10l1 1h1zM414 280q-2 15 3 23.5t10 13.5l-4 9q-1 1 -2 1q-3 0 -3 1v4v2l-11 6l2 2l3 3l-8 12
l-1 1q-2 2 -1 3h-2q-4 0 -2 3l-4 4q-2 2 4 7q-8 12 -15 18q-9 7 -13 6q-4 0 -5 -1q-2 -1 -6 -5q-3 -4 -6.5 -10.5t-5.5 -14.5q-13 -38 -17 -107q-1 -21 -2.5 -38.5t-3.5 -32.5q6 8 18 8q4 0 6 -1l11 14q-1 2 -1 7q0 15 14 22q1 1 8 -4zM434 326q1 1 1 4t-2.5 18l-6 36
t-7.5 44.5t-7.5 44.5t-6 35.5t-2.5 17.5q-1 8 -2 17t0 17q1 6 9 12q4 3 8 4q-6 8 -7 15.5t-3 15.5q-1 4 0.5 6t3.5 4t4 2q-7 5 -5 11q-28 2 -44.5 6t-26.5 9q-11 4 -16 10l-13 29q-2 1 -4 3q-4 4 -5 7h-1q-9 0 -15 6q-6 -14 -22 -14q-9 0 -15 6q-8 -13 -23 -13q-16 0 -23 15
h-1q-19 -4 -42 -12q-24 -10 -50.5 -27t-45.5 -45q-13 -19 -21 -43t-8 -55v-1q1 -42 14 -87.5t33 -90.5q21 -45 47 -85.5t52 -71.5q36 -42 66 -61q15 -9 26 -9h1h1q4 0 8 4q5 5 11 21q7 17 12.5 48t8.5 82q3 48 9 81q3 17 7 29.5t9 21.5q9 14 17 19q6 3 12 3q12 0 24 -10
q5 -5 11 -12t11 -16q3 -3 1 -7q2 -4 2 -7l5 -13q1 0 2 1q2 2 4 2v-14q1 0 2 -1t1 -1.5t1 -1.5q0 -1 -0.5 -1t-0.5 -1v-2zM677 169q13 71 18 121t5 85q0 29 -3 47.5t-7 29.5q-5 11 -9.5 16.5t-9.5 7.5q-3 2 -5.5 2t-4.5 1h-3q-8 0 -16 -4q-9 -3 -18 -9q-8 -4 -14.5 -8.5
t-11.5 -7.5q3 -3 3 -9q0 -8 -6 -14t-14 -6h-2l-3 -3q0 -1 0.5 -2t0.5 -2q0 -8 -6 -13.5t-14 -6.5l-5 -5q0 -1 0.5 -1t0.5 -1q0 -8 -6 -14t-14 -6l-6 -8q1 -6 -3 -14q12 6 21 6q15 0 27 -12q5 -5 9 -12.5t8 -15.5q7 -16 11 -34t7 -33q2 -8 2.5 -20.5t1.5 -29.5l3 -77
q1 -42 2 -83t4 -67q2 -8 2.5 -13.5t2.5 -9.5q0 -2 1 -2q2 2 2.5 4t2.5 5q5 8 8 21q4 13 7.5 29.5t7.5 33.5q7 36 12.5 72.5t10.5 61.5z" />
    <glyph glyph-name="f" unicode="f" horiz-adv-x="649" 
d="M629 -84q5 -14 13.5 -29.5t19.5 -29.5l-5 -4q-11 15 -19.5 30.5t-14.5 29.5q-6 15 -8.5 27.5t-2.5 20.5v2v14q0 36 -9.5 52t-15.5 19q-4 2 -11 2q-4 0 -10 -2l3 -6q3 -7 1.5 -11t-3.5 -9q0 -1 0.5 -2t0.5 -2q5 -13 11.5 -28.5t8.5 -24.5q1 -3 1 -7v-2l-2 -2h-1
q-2 0 -2 0.5t-1 0.5l-1 1q0 1 -0.5 1.5t-0.5 1.5l-4 8q-2 6 -4 11.5t-4 13.5l2 -11q7 -31 18 -65t29 -59l-6 -4q-18 26 -29 60.5t-18 66.5q-2 8 -3 14.5t-2 13.5q-11 -16 -32.5 -45t-45.5 -59q-34 -43 -61.5 -71.5t-44.5 -42.5q-6 -5 -15.5 -10.5t-19.5 -10.5t-18.5 -8.5
t-12.5 -4.5t-6 16.5t-8 46.5t-19 65t-38 72q-35 49 -67.5 75t-52.5 36q1 -4 1 -16q0 -16 -3.5 -42t-13.5 -65l-6 2q10 39 13 64.5t3 40.5v13q-11 -12 -24 -12q-7 0 -11 3q-3 -3 -5.5 -6.5t-4.5 -6.5q-15 -21 -28 -31l-11 -6q-5 -18 -5 -33q0 -20 5 -36t7 -20v-1l-6 -3
q-3 8 -6 18q-2 8 -4 18.5t-2 23.5q0 16 4 31q-2 -1 -5 -1q-8 0 -11 6q-2 4 -2 12q0 16 17 31l6 4q3 9 9 24.5t13.5 31t15 27t13.5 10.5l4 -18l57 -21q9 1 21.5 -1.5t32.5 -10.5q14 -5 42.5 -16.5t63 -22t71.5 -17.5t69 -4t53.5 9.5t35.5 12.5q16 7 27 15l3 -3q1 -2 2 -3.5
t1 -3.5t2 -10l6 2t7 1q6 0 14 -3q8 -5 18.5 -22.5t10.5 -54.5v-6.5t-1 -7.5v-2q0 -15 11 -45zM24 10q4 13 13 26q13 18 34 29l-2 5q-11 -5 -23 -10.5t-21 -13.5q-15 -13 -15 -26q0 -3 2 -9q2 -2 5 -2q4 0 7 1zM62 45q4 7 10 13q-10 -6 -17 -12.5t-12 -13.5q-7 -8 -10 -18
l3 3q14 10 26 28zM74 89q0 1 1 2l-10 3l-3 -2l-15.5 -15.5t-16.5 -19.5q6 5 13 8.5t14 6.5l12 5q0 7 5 12zM83 72l4 4l-9 -3q-1 0 -2 -1v-3zM76 79q5 2 8.5 3t7.5 2l-10 4l-3 -3q-3 -2 -3 -6zM89 58q12 0 21 14l-4 2q-5 -2 -9.5 -3.5t-9.5 -3.5q-4 -4 -5 -7q4 -2 7 -2z
M98 78q1 1 4 1v2l-1 -1h-1zM106 93q2 2 4 2q-6 0 -16 -2q-3 0 -4 -1l10 -4zM116 102q6 4 9 5l-42 16v-2v-3q0 -4 -2 -4q-2 -1 -4.5 -5.5t-6.5 -9.5l11 -4q2 2 4 2q7 3 14.5 4t15.5 1h1zM130 471q-12 28 -13 52.5t4 46t14 42t19 40.5q12 25 18.5 49t8.5 41q-12 38 -23 77.5
t-19 79.5q-2 11 -4 23t0 23q2 10 9 15.5t15 9.5q32 14 69.5 8t68.5 -20q24 -11 44.5 -27t39.5 -35q17 -17 33.5 -33t33.5 -32l29 -28q2 0 4 -1q3 -2 13 -11t22 -21t25 -24.5t24 -20.5q10 -8 25.5 -25t29.5 -37t22.5 -41.5t5.5 -39.5t-12 -30t-20.5 -19t-24 -9.5t-22.5 -1.5
q-20 2 -38 7.5t-32 9.5q-11 -1 -21.5 -3t-21.5 -4q-2 0 -4.5 -0.5t-4.5 -0.5q-5 -4 -13 -10.5t-21 -14.5q-30 -24 -57.5 -38.5t-53 -21.5t-48 -8t-41.5 2q-45 6 -83 31zM175 804q4 -14 8 -27.5t9 -27.5q14 -23 41.5 -50.5t69.5 -50.5q22 -13 44.5 -28.5t42 -30.5t34.5 -27
t21 -18q2 0 4.5 0.5t4.5 0.5q10 2 20 3.5t21 3.5q0 10 8 28q4 7 11 24.5t11.5 38.5t5.5 41t-7 33t-17.5 26.5t-17.5 24.5l-20 26l1 2l-15 14q-45 42 -90 87q-32 32 -74 55t-90 22q-11 0 -25 -2.5t-22 -10.5q-8 -6 -8 -15t1 -17q3 -32 11 -63t17 -62z" />
    </font>
</defs>
</svg>
