<?xml version="1.0" standalone="no"?>
<!DOCTYPE svg PUBLIC "-//W3C//DTD SVG 1.1//EN" "http://www.w3.org/Graphics/SVG/1.1/DTD/svg11.dtd" >
<svg xmlns="http://www.w3.org/2000/svg" xmlns:xlink="http://www.w3.org/1999/xlink" version="1.1">
<metadata>
Created by FontForge 20170924 at Tue Dec  6 14:36:04 2011
 By Glenn,,,
Created by gluk (gluksza@wp.pl | www.glukfonts.pl) with FontForge.

</metadata>
<defs>
<font id="Znikomit" horiz-adv-x="1400" >
  <font-face 
    font-family="Znikomit"
    font-weight="100"
    font-stretch="normal"
    units-per-em="2000"
    panose-1="2 0 2 3 0 0 0 0 0 0"
    ascent="1520"
    descent="-480"
    x-height="1040"
    cap-height="1520"
    bbox="-960 -514 3640 1994.46"
    underline-thickness="25"
    underline-position="-320"
    stemh="20"
    stemv="25"
    unicode-range="U+0020-FFFD"
  />
<missing-glyph horiz-adv-x="690" 
d="M590 0h-490v1200h490v-1200zM124 26h442v1150h-442v-1150z" />
    <glyph glyph-name="f_j" unicode="fj" horiz-adv-x="1080" 
d="M892 1380c0 21 18 40 40 40c21 0 40 -18 40 -40c0 -21 -18 -40 -40 -40c-21 0 -40 18 -40 40zM666 -447c122 0 254 88 254 367v1055c0 37 -28 50 -105 50h-45v15h45l130 3v-1123c0 -286 -141 -400 -294 -400c-35 0 -80 16 -107 37c-6 4 -9 10 -9 16c0 11 11 22 21 22
c4 0 10 -2 14 -5c29 -23 63 -37 96 -37zM80 1000v20h124c17 0 35 4 32 35c-4 40 -8 81 -8 124c0 222 109 341 277 341c135 0 225 -79 225 -198c0 -12 -8 -21 -21 -21s-20 9 -20 21c0 107 -74 178 -184 178c-152 0 -253 -113 -253 -322c0 -42 5 -82 9 -121
c3 -30 27 -37 40 -37h329v-20h-329c-27 0 -36 -13 -36 -35v-900c0 -29 13 -50 150 -50h25v-15h-390v15h40c137 0 150 21 150 50v901c0 24 -11 34 -36 34h-124z" />
    <glyph glyph-name="f_f" unicode="ff" horiz-adv-x="1440" 
d="M80 1000v20h124c17 0 35 4 32 35c-4 40 -8 81 -8 124c0 205 119 341 298 341c146 0 244 -79 244 -198c0 -12 -8 -21 -21 -21s-20 9 -20 21c0 107 -82 178 -203 178c-164 0 -274 -129 -274 -322c0 -42 5 -82 9 -121c3 -30 27 -37 40 -37h309v-20h-309
c-27 0 -36 -13 -36 -35v-900c0 -29 13 -50 150 -50h25v-15h-390v15h40c137 0 150 21 150 50v901c0 24 -11 34 -36 34h-124zM760 1000v20h164c17 0 35 4 32 35c-4 40 -8 81 -8 124c0 240 171 341 318 341c153 0 264 -92 264 -218c0 -12 -8 -21 -21 -21s-21 9 -21 21
c0 115 -93 198 -222 198c-137 0 -294 -91 -294 -322c0 -42 5 -82 9 -121c3 -30 27 -37 40 -37h259v-20h-259c-27 0 -36 -13 -36 -35v-900c0 -29 13 -50 150 -50h25v-15h-390v15h40c137 0 150 21 150 50v901c0 24 -11 34 -36 34h-164z" />
    <glyph glyph-name="f_i" unicode="fi" horiz-adv-x="1220" 
d="M930 1380c0 21 18 40 40 40c21 0 40 -18 40 -40c0 -21 -18 -40 -40 -40c-21 0 -40 18 -40 40zM985 70c0 -29 13 -55 150 -55h35v-15h-400v15h40c137 0 150 26 150 55v905c0 37 -28 50 -105 50h-25v15h25l130 3v-973zM80 1000v20h124c17 0 35 4 32 35c-4 40 -8 81 -8 124
c0 222 109 341 277 341c135 0 225 -79 225 -198c0 -12 -8 -21 -21 -21s-20 9 -20 21c0 107 -74 178 -184 178c-152 0 -253 -113 -253 -322c0 -42 5 -82 9 -121c3 -30 27 -37 40 -37h329v-20h-329c-27 0 -36 -13 -36 -35v-900c0 -29 13 -50 150 -50h25v-15h-390v15h40
c137 0 150 21 150 50v901c0 24 -11 34 -36 34h-124z" />
    <glyph glyph-name="f_f_i" unicode="ffi" horiz-adv-x="1940" 
d="M1650 1380c0 21 18 40 40 40c21 0 40 -18 40 -40c0 -21 -18 -40 -40 -40c-21 0 -40 18 -40 40zM1705 70c0 -29 13 -55 150 -55h35v-15h-400v15h40c137 0 150 26 150 55v905c0 37 -28 50 -105 50h-25v15h25l130 3v-973zM780 1000v20h144c17 0 35 4 32 35
c-4 40 -8 81 -8 124c0 222 109 341 277 341c135 0 225 -79 225 -198c0 -12 -8 -21 -21 -21s-20 9 -20 21c0 107 -74 178 -184 178c-152 0 -253 -113 -253 -322c0 -42 5 -82 9 -121c3 -30 27 -37 40 -37h329v-20h-329c-27 0 -36 -13 -36 -35v-900c0 -29 13 -50 150 -50h25
v-15h-390v15h40c137 0 150 21 150 50v901c0 24 -11 34 -36 34h-144zM80 1000v20h124c17 0 35 4 32 35c-4 40 -8 81 -8 124c0 205 119 341 298 341c146 0 244 -79 244 -198c0 -12 -8 -21 -21 -21s-20 9 -20 21c0 107 -82 178 -203 178c-164 0 -274 -129 -274 -322
c0 -42 5 -82 9 -121c3 -30 27 -37 40 -37h309v-20h-309c-27 0 -36 -13 -36 -35v-900c0 -29 13 -50 150 -50h25v-15h-390v15h40c137 0 150 21 150 50v901c0 24 -11 34 -36 34h-124z" />
    <glyph glyph-name="f_f_l" unicode="ffl" horiz-adv-x="1940" 
d="M760 1000v20h164c17 0 35 4 32 35c-4 40 -8 81 -8 124c0 222 109 341 277 341c135 0 225 -79 225 -198c0 -12 -8 -21 -21 -21s-20 9 -20 21c0 107 -74 178 -184 178c-152 0 -253 -113 -253 -322c0 -42 5 -82 9 -121c3 -30 27 -37 40 -37h329v-20h-329
c-27 0 -36 -13 -36 -35v-900c0 -29 13 -50 150 -50h25v-15h-390v15h40c137 0 150 21 150 50v901c0 24 -11 34 -36 34h-164zM80 1000v20h124c17 0 35 4 32 35c-4 40 -8 81 -8 124c0 205 119 341 298 341c146 0 244 -79 244 -198c0 -12 -8 -21 -21 -21s-20 9 -20 21
c0 107 -82 178 -203 178c-164 0 -274 -129 -274 -322c0 -42 5 -82 9 -121c3 -30 27 -37 40 -37h309v-20h-309c-27 0 -36 -13 -36 -35v-900c0 -29 13 -50 150 -50h25v-15h-390v15h40c137 0 150 21 150 50v901c0 24 -11 34 -36 34h-124zM1705 70c0 -29 13 -55 150 -55h35v-15
h-400v15h40c137 0 150 26 150 55v1385c0 37 -28 50 -105 50h-45v15h45l130 3v-1453z" />
    <glyph glyph-name="f_t" unicode="ft" horiz-adv-x="1550" 
d="M760 1000v20h90c87 0 100 17 100 123v177h20v-266c0 -22 9 -34 36 -34h474v-20h-474c-27 0 -36 -13 -36 -35v-575c0 -218 110 -375 261 -375c90 0 188 38 241 122l16 -10c-57 -91 -162 -132 -257 -132c-166 0 -286 166 -286 395v575c0 22 -9 35 -36 35h-149zM80 1000v20
h124c17 0 35 4 32 35c-4 40 -8 81 -8 124c0 222 109 341 277 341c135 0 225 -79 225 -198c0 -12 -8 -21 -21 -21s-20 9 -20 21c0 107 -74 178 -184 178c-152 0 -253 -113 -253 -322c0 -42 5 -82 9 -121c3 -30 27 -37 40 -37h329v-20h-329c-27 0 -36 -13 -36 -35v-900
c0 -29 13 -50 150 -50h25v-15h-390v15h40c137 0 150 21 150 50v901c0 24 -11 34 -36 34h-124z" />
    <glyph glyph-name=".notdef" horiz-adv-x="690" 
d="M590 0h-490v1200h490v-1200zM124 26h442v1150h-442v-1150z" />
    <glyph glyph-name="space" unicode=" " horiz-adv-x="800" 
 />
    <glyph glyph-name="exclam" unicode="!" horiz-adv-x="320" 
d="M160 1520h25v-69c0 -171 -5 -363 -5 -971h-20v1040zM130 35c0 21 18 40 40 40c21 0 40 -18 40 -40c0 -21 -18 -40 -40 -40c-21 0 -40 18 -40 40z" />
    <glyph glyph-name="quotedbl" unicode="&#x22;" horiz-adv-x="360" 
d="M240 1525c7 0 12 -6 12 -8c5 -27 8 -58 8 -90c0 -68 -9 -139 -16 -198l-8 -64l-20 3l9 64c7 57 10 129 10 195c0 30 -3 60 -8 86c0 3 4 12 13 12zM120 1525c7 0 12 -6 12 -8c5 -27 8 -58 8 -90c0 -68 -9 -139 -16 -198l-8 -64l-20 3l9 64c7 57 10 129 10 195
c0 30 -3 60 -8 86c0 3 4 12 13 12z" />
    <glyph glyph-name="numbersign" unicode="#" horiz-adv-x="880" 
d="M307 910l-34 -380h300l34 380h-300zM251 270h-20l21 240h-159l1 20h159l34 380h-160l2 20h159l21 240h20l-21 -240h300l21 240h20l-21 -240h159l-1 -20h-159l-34 -380h160l-2 -20h-159l-21 -240h-20l21 240h-300z" />
    <glyph glyph-name="dollar" unicode="$" horiz-adv-x="1040" 
d="M525 -40h-25v115c-130 3 -220 30 -322 117c-26 24 -49 46 -63 46c-13 0 -19 -17 -21 -64l-4 -94h-15l12 330h15v-11c0 -79 36 -146 93 -193c97 -79 179 -108 305 -111v676c-185 82 -360 158 -360 290c0 176 149 304 355 304h5v115h25v-116c83 -4 189 -24 284 -100
c20 -16 31 -30 39 -30c11 0 15 15 15 46c0 5 -1 10 -1 15c0 0 -1 26 -2 65h16l11 -300c0 -4 -3 -7 -8 -7s-8 3 -8 7l-1 8c-10 76 -26 142 -73 180c-89 72 -191 92 -272 96v-551c210 -93 435 -201 435 -409c0 -179 -183 -309 -435 -309v-115zM525 760v-665
c238 0 410 121 410 289c0 187 -207 286 -410 376zM500 804v541h-5c-191 0 -330 -119 -330 -284c0 -111 159 -180 335 -257z" />
    <glyph glyph-name="percent" unicode="%" horiz-adv-x="1440" 
d="M168 73l-16 14l1120 1280l16 -14zM1080 580c162 0 280 -122 280 -290s-118 -290 -280 -290s-280 122 -280 290s118 290 280 290zM1080 560c-148 0 -255 -113 -255 -270s107 -270 255 -270s255 113 255 270s-107 270 -255 270zM360 1440c162 0 280 -122 280 -290
s-118 -290 -280 -290s-280 122 -280 290s118 290 280 290zM360 1420c-148 0 -255 -113 -255 -270s107 -270 255 -270s255 113 255 270s-107 270 -255 270z" />
    <glyph glyph-name="ampersand" unicode="&#x26;" horiz-adv-x="1500" 
d="M960 1375l20 1l9 -321h-20l-2 59c-2 63 -6 84 -36 120c-53 63 -131 126 -273 126c-154 0 -266 -115 -266 -275c0 -75 27 -153 81 -221l541 -684c10 -13 23 -29 38 -46c121 78 191 190 191 317c0 103 -41 203 -90 271c-39 54 -72 88 -116 88c-25 -2 -50 -6 -74 -19
c-30 -16 -50 -43 -50 -81c0 -12 3 -26 7 -40c1 -1 1 -3 1 -4c0 -6 -6 -9 -10 -9c-3 0 -8 1 -10 7c-5 17 -8 32 -8 47c0 44 22 80 59 99c37 20 74 25 110 25c35 0 70 -5 104 -5c32 0 64 4 96 21c28 15 50 42 50 81c0 12 -3 25 -7 40c0 1 -1 2 -1 4c0 4 3 10 10 10
c6 0 9 -6 10 -8c5 -17 8 -33 8 -48c0 -46 -24 -80 -59 -98c-39 -20 -77 -26 -113 -26c-13 0 -21 -4 -21 -12c0 -15 22 -41 45 -76c48 -71 84 -169 84 -267c0 -136 -76 -252 -202 -333c65 -65 163 -103 221 -103s97 13 126 36c4 3 10 5 14 5c10 0 20 -7 20 -18
c0 -37 -98 -53 -146 -53c-86 0 -176 38 -252 122c-119 -71 -280 -112 -464 -112c-299 0 -515 165 -515 393c0 218 136 382 330 382c19 0 46 -2 74 -8c37 -7 37 23 25 38l-41 52c-56 71 -89 153 -89 233c0 171 121 295 289 295c128 0 204 -50 264 -107c25 -24 42 -33 40 26z
M1035 123l-37 44l-412 522c-31 40 -135 61 -186 61c-181 0 -305 -152 -305 -362c0 -216 206 -373 490 -373c181 0 336 40 450 108z" />
    <glyph glyph-name="quotesingle" unicode="'" horiz-adv-x="240" 
d="M120 1525c7 0 12 -6 12 -8c5 -27 8 -58 8 -90c0 -68 -9 -139 -16 -198l-8 -64l-20 3l9 64c7 57 10 129 10 195c0 30 -3 60 -8 86c0 3 4 12 13 12z" />
    <glyph glyph-name="parenleft" unicode="(" horiz-adv-x="640" 
d="M540 1560l10 -17c-242 -145 -444 -512 -445 -983c0 -471 203 -838 445 -983l-10 -17c-250 150 -460 524 -460 1000c1 476 210 850 460 1000z" />
    <glyph glyph-name="parenright" unicode=")" horiz-adv-x="640" 
d="M100 1560c250 -150 459 -524 460 -1000c0 -476 -210 -850 -460 -1000l-10 17c242 145 445 512 445 983c-1 471 -203 838 -445 983z" />
    <glyph glyph-name="asterisk" unicode="*" horiz-adv-x="720" 
d="M337 1143c0 2 -4 4 -4 6l-69 22c-120 37 -119 26 -166 34c-4 7 -9 16 -4 33s15 18 22 22c43 -21 35 -28 154 -68l69 -24c2 2 5 0 7 2c2 1 2 5 4 6l-1 73c-2 126 -12 121 -18 168c6 6 10 14 28 14s24 -8 30 -14c-6 -47 -16 -42 -18 -168l-1 -73c2 -1 3 -5 5 -6
c2 -2 5 0 7 -2l69 24c119 40 111 47 154 68c7 -4 17 -5 22 -22s0 -26 -4 -33c-47 -8 -46 3 -166 -34l-69 -22c0 -2 -4 -4 -4 -6c-1 -2 0 -6 -1 -8l44 -59c75 -101 79 -91 112 -126c-1 -8 0 -18 -14 -28s-25 -8 -33 -6c-22 42 -11 44 -83 147l-42 60c-2 0 -6 2 -8 2
c-3 0 -3 -2 -6 -2l-42 -60c-73 -102 -63 -103 -86 -145c-8 -1 -16 -6 -30 5s-15 21 -16 29c33 34 38 24 114 124l44 58c-1 2 1 7 0 9z" />
    <glyph glyph-name="plus" unicode="+" horiz-adv-x="1040" 
d="M960 770l-1 -20h-429v-430h-20v430h-430v20h430v430h20v-430h430z" />
    <glyph glyph-name="comma" unicode="," horiz-adv-x="320" 
d="M120 35c0 21 18 40 40 40c21 0 40 -18 40 -40c0 -89 -28 -143 -93 -214l-15 13c55 60 83 110 83 164h-1c-4 -2 -9 -3 -14 -3c-21 0 -40 18 -40 40z" />
    <glyph glyph-name="hyphen" unicode="-" horiz-adv-x="720" 
d="M642 770l-4 -20h-560l4 20h560z" />
    <glyph glyph-name="period" unicode="." horiz-adv-x="320" 
d="M120 35c0 21 18 40 40 40c21 0 40 -18 40 -40c0 -21 -18 -40 -40 -40c-21 0 -40 18 -40 40z" />
    <glyph glyph-name="slash" unicode="/" horiz-adv-x="1200" 
d="M1137 1531l-1053 -1644l-21 13l1053 1644z" />
    <glyph glyph-name="zero" unicode="0" horiz-adv-x="1080" 
d="M1020 710c0 -415 -202 -715 -480 -715s-480 300 -480 715s202 715 480 715s480 -300 480 -715zM995 710c0 403 -191 695 -455 695s-455 -292 -455 -695s191 -695 455 -695s455 292 455 695z" />
    <glyph glyph-name="one" unicode="1" horiz-adv-x="540" 
d="M260 1262c0 27 -1 47 -21 47c-7 0 -18 -2 -31 -9c-25 -12 -60 -20 -108 -20v20c160 0 154 81 160 140c15 0 25 -11 25 -25v-1345c0 -29 13 -55 150 -55h55v-15h-440v15h60c137 0 150 26 150 55v1192z" />
    <glyph glyph-name="two" unicode="2" horiz-adv-x="1000" 
d="M501 1405c-152 0 -354 -88 -378 -316l-3 -29c0 -4 -3 -7 -8 -7s-8 3 -8 7l14 360h16c-1 -56 -4 -101 -4 -119c0 -31 4 -46 15 -46c8 0 21 9 38 29c84 97 213 141 318 141c223 0 384 -147 384 -350c0 -131 -46 -271 -263 -502l-334 -356c-69 -74 -129 -130 -171 -163
c-14 -11 -22 -18 -22 -23c0 -4 7 -6 24 -6h716c49 0 85 37 85 88v172h20v-275c0 -4 -3 -10 -10 -10h-880c-4 0 -10 3 -10 10v12c0 4 3 9 9 10c16 2 107 76 223 199l334 356c216 230 254 364 254 488c0 191 -151 330 -359 330z" />
    <glyph glyph-name="three" unicode="3" horiz-adv-x="1080" 
d="M520 1405c-152 0 -353 -88 -377 -316l-3 -29c0 -4 -3 -7 -8 -7s-8 3 -8 7l14 360h16c-1 -39 -3 -104 -3 -104c0 -5 -1 -10 -1 -15c0 -31 4 -46 15 -46c8 0 21 9 38 29c84 97 212 141 317 141c238 0 410 -128 410 -305c0 -130 -102 -245 -300 -296v-4
c240 -35 400 -160 400 -395c0 -249 -223 -430 -530 -430c-282 0 -390 148 -438 225c-1 2 -2 4 -2 5v95h20v-22c0 -30 20 -104 47 -135c61 -70 170 -148 373 -148c293 0 505 172 505 410c0 223 -144 341 -378 375h-17c-15 0 -22 5 -22 10v24c0 5 7 10 22 10h17
c193 50 278 159 278 276c0 165 -162 285 -385 285z" />
    <glyph glyph-name="four" unicode="4" horiz-adv-x="1140" 
d="M610 0v15h100c137 0 150 26 150 55v170c0 22 -9 35 -36 35h-774v30c108 126 240 270 334 408c118 173 203 365 203 592c0 43 -35 72 -35 100c0 11 8 21 19 21c9 0 15 -2 19 -8c18 -27 19 -63 19 -98c0 -235 -83 -433 -203 -610c-88 -129 -196 -251 -305 -376
c-15 -17 -19 -34 8 -34h715c27 0 36 12 36 34v691c0 14 10 25 25 25v-716c0 -22 9 -34 36 -34h129v-25h-129c-27 0 -36 -13 -36 -35v-170c0 -29 13 -55 150 -55h45v-15h-470z" />
    <glyph glyph-name="five" unicode="5" horiz-adv-x="1100" 
d="M80 325v-30c0 -30 19 -105 47 -135c93 -99 227 -145 365 -145c355 0 528 240 528 485c0 241 -167 480 -500 480c-127 0 -279 -57 -381 -138l-35 -2l37 505c1 15 2 47 2 65v10h789c6 0 10 -5 10 -9l18 -230l-17 -2l-10 107c-6 73 -47 109 -116 109h-654
c0 -13 0 -22 -2 -52l-31 -431c-3 -39 18 -38 37 -25c102 68 237 113 353 113c345 0 520 -250 520 -500c0 -255 -182 -505 -548 -505c-169 0 -335 68 -430 218l-2 2v110h20z" />
    <glyph glyph-name="six" unicode="6" horiz-adv-x="1060" 
d="M830 1270h-20v22c0 27 -24 76 -66 88c-60 17 -122 25 -184 25c-280 0 -475 -249 -475 -717c0 -16 1 -23 3 -23s6 9 10 23c60 204 239 342 442 342c267 0 460 -218 460 -520c0 -299 -205 -515 -490 -515c-271 0 -450 279 -450 693c1 473 205 737 500 737
c90 0 182 -17 264 -51c3 -1 6 -4 6 -9v-95zM540 1010c-226 0 -419 -179 -443 -435c-1 -13 -3 -37 -3 -42c38 -316 195 -518 416 -518c272 0 465 208 465 495c0 290 -183 500 -435 500z" />
    <glyph glyph-name="seven" unicode="7" horiz-adv-x="1060" 
d="M501 25c0 -19 -7 -29 -21 -29c-15 0 -20 13 -20 48c0 20 2 42 2 65c24 563 235 813 421 1093l105 158c16 24 11 35 -18 35h-769c-69 0 -113 -36 -117 -111l-4 -84h-20l10 220h975v-10l-146 -220c-179 -269 -370 -503 -407 -1009c0 -7 -1 -14 -1 -21c0 -48 10 -99 10 -135
z" />
    <glyph glyph-name="eight" unicode="8" horiz-adv-x="1120" 
d="M1060 395c0 -231 -199 -400 -500 -400c-298 0 -500 175 -500 423c0 246 203 355 429 402c-166 41 -289 149 -289 311c0 174 157 294 360 294c209 0 360 -124 360 -294c0 -173 -140 -268 -311 -308c231 -48 451 -166 451 -428zM900 1131c0 156 -138 274 -340 274
c-196 0 -334 -115 -335 -274c0 -161 132 -267 321 -297l10 -1c190 32 344 124 344 298zM1035 395c0 266 -241 375 -494 415c-244 -41 -461 -144 -461 -392c0 -235 190 -403 480 -403c294 0 475 162 475 380z" />
    <glyph glyph-name="nine" unicode="9" horiz-adv-x="1060" 
d="M230 150h20v-22c0 -27 24 -76 66 -88c60 -17 122 -25 184 -25c280 0 475 249 475 717c0 16 -1 23 -3 23s-6 -9 -10 -23c-60 -204 -239 -342 -442 -342c-267 0 -460 218 -460 520c0 299 205 515 490 515c271 0 450 -279 450 -693c-1 -473 -205 -737 -500 -737
c-90 0 -182 17 -264 51c-3 1 -6 4 -6 9v95zM520 410c226 0 419 179 443 435c1 13 3 31 3 42c-38 316 -195 518 -416 518c-272 0 -465 -208 -465 -495c0 -290 183 -500 435 -500z" />
    <glyph glyph-name="colon" unicode=":" horiz-adv-x="320" 
d="M120 965c0 21 18 40 40 40c21 0 40 -18 40 -40c0 -21 -18 -40 -40 -40c-21 0 -40 18 -40 40zM120 35c0 21 18 40 40 40c21 0 40 -18 40 -40c0 -21 -18 -40 -40 -40c-21 0 -40 18 -40 40z" />
    <glyph glyph-name="semicolon" unicode=";" horiz-adv-x="400" 
d="M120 965c0 21 18 40 40 40c21 0 40 -18 40 -40c0 -21 -18 -40 -40 -40c-21 0 -40 18 -40 40zM120 35c0 21 18 40 40 40c21 0 40 -18 40 -40c0 -89 -28 -143 -93 -214l-15 13c55 60 83 110 83 164h-1c-4 -2 -9 -3 -14 -3c-21 0 -40 18 -40 40z" />
    <glyph glyph-name="less" unicode="&#x3c;" horiz-adv-x="720" 
d="M618 342l-11 -17l-547 388v14l547 373l12 -16l-529 -360v-7z" />
    <glyph glyph-name="equal" unicode="=" horiz-adv-x="1040" 
d="M80 510v20h880v-20h-880zM80 910v20h880v-20h-880z" />
    <glyph glyph-name="greater" unicode="&#x3e;" horiz-adv-x="720" 
d="M102 342l528 375v7l-529 360l12 16l547 -373v-14l-547 -388z" />
    <glyph glyph-name="question" unicode="?" horiz-adv-x="960" 
d="M94 1519h16c-1 -39 -3 -104 -3 -104c0 -5 -1 -10 -1 -15c0 -31 4 -46 15 -46c8 0 21 9 38 29c84 97 212 141 317 141c234 0 404 -136 404 -324c0 -215 -110 -335 -311 -453c-87 -51 -155 -84 -155 -157c0 -17 6 -85 11 -129l-20 -2l-16 118c0 5 -1 9 -1 13
c0 87 85 131 168 180c199 116 299 224 299 430c0 176 -159 304 -379 304c-152 0 -353 -88 -377 -316l-3 -29c0 -4 -3 -7 -8 -7s-8 3 -8 7zM380 35c0 21 18 40 40 40c21 0 40 -18 40 -40c0 -21 -18 -40 -40 -40c-21 0 -40 18 -40 40z" />
    <glyph glyph-name="at" unicode="@" horiz-adv-x="1800" 
d="M1146 300c-7 -36 -16 -76 -16 -99c0 -85 63 -146 150 -146c242 0 420 246 420 599c0 374 -291 642 -690 642c-530 0 -910 -370 -910 -878c0 -395 295 -678 698 -678c129 0 275 25 431 102l8 -18c-159 -79 -307 -104 -439 -104c-413 0 -718 291 -718 698
c0 519 390 898 930 898c409 0 710 -276 710 -662c0 -358 -180 -619 -440 -619c-102 0 -175 70 -175 166c0 22 6 53 12 83c2 10 3 16 3 20c0 3 -1 5 -2 5c-3 0 -9 -8 -17 -20c-88 -137 -200 -254 -337 -254c-217 0 -312 150 -312 380c0 347 274 565 600 565h227zM1136 380
l105 533c1 4 1 8 1 12c0 21 -14 35 -47 35h-143c-314 0 -575 -208 -575 -545c0 -221 81 -360 287 -360c126 0 235 109 321 244z" />
    <glyph glyph-name="A" unicode="A" 
d="M327 500h712l-322 900c-18 50 -20 62 -21 67h-23zM20 0v15h5c86 0 115 20 134 74l510 1424c2 5 6 7 9 7h27c7 0 10 -6 10 -10c0 -20 5 -49 25 -104l469 -1308c23 -63 52 -83 131 -83h40v-15h-390v15h100c81 0 106 7 106 34c0 11 -4 26 -11 45l-139 386h-726l-143 -397
c-3 -10 -5 -18 -5 -25c0 -36 44 -43 147 -43h41v-15h-340z" />
    <glyph glyph-name="B" unicode="B" horiz-adv-x="1340" 
d="M50 1520h550c350 0 520 -146 520 -336c0 -163 -94 -299 -294 -327h-4v-4h4c387 -42 454 -255 454 -413c0 -258 -222 -440 -520 -440h-710v15h40c137 0 150 26 150 55v1379c0 31 -18 56 -150 56h-40v15zM266 1500l-1 -1480h495c290 0 495 176 495 420
c0 151 -54 350 -431 393l-104 12h-398v20h398l104 12c189 27 271 152 271 307c0 175 -149 316 -495 316h-334z" />
    <glyph glyph-name="C" unicode="C" horiz-adv-x="1141" 
d="M1041 1540h15l14 -380c0 -5 -3 -8 -7 -8c-5 0 -8 3 -8 8c-11 254 -270 345 -380 345c-354 0 -590 -297 -590 -743c0 -438 222 -747 590 -747c177 0 309 77 397 164l14 -14c-91 -89 -228 -170 -411 -170c-382 0 -610 323 -610 767c0 458 244 763 610 763
c80 0 234 -45 326 -162c11 -13 19 -18 26 -18c17 0 19 28 19 35v33z" />
    <glyph glyph-name="D" unicode="D" horiz-adv-x="1420" 
d="M50 1520h575c423 0 730 -319 730 -760s-307 -760 -730 -760h-575v15h40c137 0 150 27 150 56v1384c0 31 -18 50 -150 50h-40v15zM266 1500l-1 -1480h355c412 0 710 311 710 740s-298 740 -710 740h-354z" />
    <glyph glyph-name="E" unicode="E" horiz-adv-x="1290" 
d="M50 1520h1070c7 0 10 -6 10 -9l25 -380l-20 -2l-16 254c-6 88 -39 117 -127 117h-726l-1 -740h395c40 0 40 188 40 270v60h20v-680h-20v60c0 88 0 270 -40 270h-395v-720h807c91 0 121 32 127 117l16 254l20 -2l-25 -380c0 -7 -7 -9 -10 -9h-1150v15h40
c137 0 150 27 150 56v1384c0 31 -18 50 -150 50h-40v15z" />
    <glyph glyph-name="F" unicode="F" horiz-adv-x="1245" 
d="M50 1520h1115c7 0 10 -6 10 -9l25 -380l-20 -2l-18 254c-6 88 -37 117 -125 117h-771l-1 -700h450c40 0 45 188 45 270v60h15v-680h-15v60c0 88 -5 270 -45 270h-450v-709c0 -29 13 -56 150 -56h40v-15h-405v15h40c137 0 150 27 150 56v1383c0 31 -18 51 -150 51h-40v15z
" />
    <glyph glyph-name="G" unicode="G" horiz-adv-x="1315" 
d="M1041 1540h15l14 -380c0 -5 -3 -8 -7 -8c-5 0 -8 3 -8 8c-11 254 -270 345 -380 345c-351 0 -585 -297 -585 -743c0 -433 229 -747 545 -747c138 0 277 85 377 165c33 27 74 65 93 87v392c0 31 -18 51 -150 51h-200v20h530v-20h-21c-123 0 -139 -22 -139 -51v-664
c0 -3 -3 -10 -10 -10c-4 0 -10 3 -10 10v148c0 33 -2 55 -19 55c-12 0 -30 -10 -61 -33c-103 -82 -247 -170 -390 -170c-331 0 -570 322 -570 767c0 458 244 763 610 763c80 0 234 -45 326 -162c11 -13 19 -18 26 -18c17 0 19 28 19 35v33z" />
    <glyph glyph-name="H" unicode="H" horiz-adv-x="1460" 
d="M50 1520h440v-15h-75c-137 0 -150 -23 -150 -52v-633h930v633c0 29 -13 52 -150 52h-75v15h440v-15h-40c-137 0 -150 -23 -150 -52v-1381c0 -29 13 -57 150 -57h40v-15h-440v15h75c137 0 150 28 150 57v728h-930v-728c0 -29 13 -57 150 -57h75v-15h-440v15h40
c137 0 150 28 150 57v1381c0 29 -13 52 -150 52h-40v15z" />
    <glyph glyph-name="I" unicode="I" horiz-adv-x="500" 
d="M450 0h-400v15h40c137 0 150 26 150 55v1383c0 31 -18 52 -150 52h-40v15h400v-15h-35c-132 0 -150 -21 -150 -52v-1383c0 -29 13 -55 150 -55h35v-15z" />
    <glyph glyph-name="J" unicode="J" horiz-adv-x="540" 
d="M50 1520h460v-15h-35c-132 0 -150 -19 -150 -50v-1425c0 -296 -161 -510 -384 -510c-35 0 -80 16 -107 37c-6 4 -9 10 -9 16c0 11 11 22 21 22c4 0 10 -2 14 -5c29 -23 63 -37 96 -37c200 0 344 200 344 477v1425c0 31 -18 50 -150 50h-100v15z" />
    <glyph glyph-name="K" unicode="K" horiz-adv-x="1305" 
d="M50 1520h420v-15h-55c-132 0 -150 -22 -150 -53v-652h167c22 0 54 20 68 37l477 603c15 19 23 32 23 42c0 16 -22 23 -72 23h-110v15h382v-15h-15c-48 0 -133 -3 -192 -77l-504 -638l509 -647c64 -81 116 -127 161 -127c38 0 55 13 84 36c4 3 9 5 13 5c10 0 19 -8 19 -19
c0 -6 -3 -12 -9 -16c-27 -21 -60 -37 -95 -37c-74 0 -115 45 -194 146l-482 613c-11 15 -41 36 -63 36h-167v-710c0 -29 13 -55 150 -55h55v-15h-420v15h40c137 0 150 26 150 55v1382c0 31 -18 53 -150 53h-40v15z" />
    <glyph glyph-name="L" unicode="L" horiz-adv-x="1290" 
d="M50 1520h400v-15h-35c-132 0 -150 -22 -150 -53v-1432h807c91 0 121 32 127 117l16 254l20 -2l-25 -380c0 -7 -7 -9 -10 -9h-1150v15h40c137 0 150 27 150 56v1381c0 31 -18 53 -150 53h-40v15z" />
    <glyph glyph-name="M" unicode="M" horiz-adv-x="1880" 
d="M130 1520h189c3 0 7 -2 9 -6l599 -1270c7 -15 13 -22 19 -22s13 7 20 22l590 1270c2 4 6 6 9 6h185v-15c-120 0 -163 -11 -163 -92c0 -7 1 -23 1 -23l103 -1309c2 -31 11 -65 138 -65h21v-16h-420v16h117c107 0 120 20 120 46c0 5 -1 16 -1 16l-108 1392l-590 -1269
c-7 -16 -10 -56 -10 -56h-28s-2 42 -9 56l-603 1278l-108 -1400v-10c0 -29 13 -53 129 -53h112v-16h-421v16h22c127 0 136 34 138 65l101 1310s1 16 1 23c0 81 -43 91 -162 91v15z" />
    <glyph glyph-name="N" unicode="N" horiz-adv-x="1430" 
d="M50 1520h229c4 0 7 -3 8 -5l890 -1427c7 -12 15 -18 21 -18c7 0 12 9 12 26v1354c0 31 -18 55 -150 55h-40v15h380v-15h-20c-132 0 -150 -24 -150 -55v-1450h-21c-3 0 -7 1 -9 5l-933 1495h-9c9 -36 12 -55 12 -111v-1319c0 -29 13 -55 150 -55h35v-15h-395v15h40
c137 0 150 26 150 55v1320c0 106 -68 115 -188 115h-12v15z" />
    <glyph glyph-name="O" unicode="O" horiz-adv-x="1410" 
d="M705 -5c-371 0 -640 321 -640 765s269 765 640 765s640 -321 640 -765s-269 -765 -640 -765zM705 15c357 0 615 313 615 745s-258 745 -615 745s-615 -313 -615 -745s258 -745 615 -745z" />
    <glyph glyph-name="P" unicode="P" horiz-adv-x="1295" 
d="M50 1520h610c424 0 570 -319 570 -520c0 -205 -150 -520 -570 -520h-395v-410c0 -29 13 -55 150 -55h35v-15h-400v15h40c137 0 150 26 150 55v1385c0 31 -18 50 -150 50h-40v15zM265 500h392c408 0 548 303 548 500c0 193 -136 500 -548 500h-391z" />
    <glyph glyph-name="Q" unicode="Q" horiz-adv-x="1410" 
d="M726 -5c20 -121 44 -229 182 -229c79 0 152 35 190 127l18 -7c-41 -100 -122 -145 -208 -145c-159 0 -184 126 -206 254c-369 2 -637 322 -637 765s269 763 640 763s640 -320 640 -763c0 -435 -259 -753 -619 -765zM508 257c-79 0 -143 -45 -143 -101c0 -13 4 -28 17 -41
c91 -63 198 -98 317 -100c-21 123 -45 242 -191 242zM352 138c-1 6 -2 12 -2 18c0 67 71 121 158 121c168 0 193 -132 215 -262c348 10 597 320 597 745c0 431 -258 743 -615 743s-615 -312 -615 -743c0 -272 99 -489 262 -622z" />
    <glyph glyph-name="R" unicode="R" horiz-adv-x="1385" 
d="M50 1520h585c331 0 570 -185 570 -440c0 -240 -211 -418 -511 -438c157 -40 226 -149 294 -336c45 -125 103 -287 223 -287c38 0 55 13 84 36c4 3 10 5 14 5c6 0 12 -3 16 -9c3 -4 5 -9 5 -13c0 -6 -3 -12 -9 -16c-34 -26 -65 -37 -115 -37c-141 0 -194 197 -237 315
c-87 241 -169 340 -444 340h-260v-570c0 -29 13 -55 150 -55h35v-15h-400v15h40c137 0 150 26 150 55v1385c0 31 -18 50 -150 50h-40v15zM266 1500l-1 -840h260h107c319 0 548 176 548 420s-229 420 -548 420h-366z" />
    <glyph glyph-name="S" unicode="S" horiz-adv-x="1146" 
d="M556 1503c-225 0 -382 -114 -382 -272c0 -243 269 -325 435 -422c178 -104 477 -205 477 -495c0 -185 -206 -319 -490 -319c-154 0 -325 47 -427 146c-24 26 -44 47 -58 47c-13 0 -20 -17 -21 -64l-5 -144h-15l13 380h15v-11c0 -221 262 -332 498 -332
c273 0 465 124 465 297c0 275 -280 367 -462 473c-159 93 -450 184 -450 444c0 174 177 294 407 294c107 0 251 -38 341 -141c17 -20 30 -29 38 -29c11 0 15 15 15 46c0 16 -4 84 -5 139h16l15 -380c0 -4 -3 -7 -8 -7s-8 3 -8 7l-3 29c-25 238 -247 314 -401 314z" />
    <glyph glyph-name="T" unicode="T" horiz-adv-x="1310" 
d="M76 1520h1158c3 0 10 -2 10 -9l21 -320l-16 -2l-12 186c-7 95 -36 125 -137 125h-430v-1430c0 -29 13 -55 150 -55h35v-15h-400v15h40c137 0 150 26 150 55v1430h-435c-101 0 -130 -30 -137 -125l-12 -186l-16 2l21 320c0 7 7 9 10 9z" />
    <glyph glyph-name="U" unicode="U" 
d="M30 1520h440v-15h-75c-137 0 -150 -26 -150 -55v-965c0 -271 186 -470 455 -470c277 0 480 195 480 470v965c0 29 -13 55 -150 55h-75v15h415v-15h-20c-137 0 -150 -26 -150 -55v-965c0 -286 -213 -490 -500 -490c-280 0 -480 208 -480 490v965c0 29 -13 55 -150 55h-40
v15z" />
    <glyph glyph-name="V" unicode="V" horiz-adv-x="1350" 
d="M10 1520h393v-15h-76c-108 0 -147 -2 -147 -36c0 -9 2 -19 7 -32l490 -1412l490 1412c5 13 7 23 7 32c0 34 -39 36 -147 36h-81v15h394v-15h-5c-83 0 -131 -19 -150 -74l-497 -1434h-27l-497 1434c-19 55 -67 74 -150 74h-4v15z" />
    <glyph glyph-name="W" unicode="W" horiz-adv-x="2120" 
d="M10 1520h399v-15h-71h-23c-95 0 -135 -1 -135 -35c0 -8 2 -17 6 -28l463 -1361c7 -22 15 -32 22 -32s14 10 21 31l358 1054l-103 302c-19 55 -70 69 -153 69v15h399v-15h-71h-23c-95 0 -135 -1 -135 -35c0 -8 2 -17 6 -28l463 -1361c7 -22 15 -32 22 -32s14 10 21 31
l463 1362c4 11 6 20 6 27c0 34 -41 36 -137 36h-23h-69v15h394v-15c-83 0 -134 -14 -153 -69l-489 -1439h-32l-376 1106l-376 -1106h-32l-489 1439c-19 55 -70 69 -153 69v15z" />
    <glyph glyph-name="X" unicode="X" horiz-adv-x="1320" 
d="M60 1520h410v-15h-73c-87 0 -134 -14 -134 -38c0 -5 2 -12 7 -20l375 -598c3 -5 9 -12 15 -12s12 6 15 11l375 599c5 8 7 15 7 20c0 24 -47 38 -134 38h-73v15h410v-15h-29c-35 0 -121 -1 -163 -68l-373 -594c-7 -11 -10 -25 -10 -39c0 -12 3 -23 9 -32l431 -687
c30 -47 79 -62 120 -67c15 -2 29 -3 40 -3h15s1 -15 0 -15h-413v15h96c104 0 134 14 134 29c0 5 -3 15 -13 31l-432 687c-3 5 -8 11 -14 11s-12 -8 -15 -13l-432 -685c-10 -16 -13 -26 -13 -31c0 -15 30 -29 134 -29h101v-15h-413c-1 0 0 15 0 15h15c11 0 25 1 40 3
c41 5 90 20 120 67l429 684c6 9 9 20 9 32c0 14 -4 29 -11 40l-375 596c-42 67 -157 68 -157 68h-30v15z" />
    <glyph glyph-name="Y" unicode="Y" horiz-adv-x="1320" 
d="M10 1520h404v-15h-142c-63 0 -99 -5 -99 -33c0 -9 4 -21 11 -35l474 -867l474 867c7 14 11 26 11 35c0 28 -36 33 -99 33h-142v15h408v-15h-36c-34 0 -83 -2 -124 -78l-480 -877v-480c0 -29 13 -55 150 -55h35v-15h-400v15h40c137 0 150 26 150 55v472l-4 8l-480 877
c-41 76 -90 78 -124 78h-27v15z" />
    <glyph glyph-name="Z" unicode="Z" horiz-adv-x="1220" 
d="M121 1520h1030v-20c-39 0 -104 -37 -163 -132l-766 -1228c-36 -58 -78 -95 -114 -120h919c69 0 111 38 117 111l11 140l15 -2l-20 -260c0 -6 -6 -9 -10 -9h-1090v20c42 0 99 40 156 132l766 1228c20 31 42 56 63 76c9 8 13 16 13 23c0 12 -11 21 -29 21h-784
c-69 0 -110 -36 -116 -109l-11 -142l-17 2l20 260c0 4 4 9 10 9z" />
    <glyph glyph-name="bracketleft" unicode="[" horiz-adv-x="360" 
d="M265 1540l-160 2v-1964l160 2h40v-20h-225v2000h225v-20h-40z" />
    <glyph glyph-name="backslash" unicode="\" horiz-adv-x="1200" 
d="M63 1531l21 13l1053 -1644l-21 -13z" />
    <glyph glyph-name="bracketright" unicode="]" horiz-adv-x="360" 
d="M95 1540h-40v20h225v-2000h-225v20h40l160 -2v1964z" />
    <glyph glyph-name="asciicircum" unicode="^" horiz-adv-x="1095" 
d="M542 1528c3 3 4 4 8 4s5 0 8 -4l420 -546l-16 -12l-396 515c-4 6 -11 8 -16 8c-7 0 -13 -4 -16 -8l-412 -516l-15 13z" />
    <glyph glyph-name="underscore" unicode="_" horiz-adv-x="1580" 
d="M1440 -420h-1360v20h1360v-20z" />
    <glyph glyph-name="grave" unicode="`" horiz-adv-x="480" 
d="M403 1240l-14 -14l-293 268c-6 6 -1 14 2 17s11 6 17 0z" />
    <glyph glyph-name="a" unicode="a" horiz-adv-x="1110" 
d="M875 646c-67 -111 -309 -115 -419 -126c-202 -21 -366 -85 -366 -260c0 -142 153 -245 365 -245c237 0 420 218 420 430v201zM571 1045c191 0 329 -136 329 -324v-486l16 -95c14 -84 33 -119 61 -120l107 10l2 -20l-109 -15h-1c-49 0 -72 60 -85 141c-5 31 -16 90 -16 98
v22c0 18 -3 27 -7 27s-9 -7 -15 -21c-69 -148 -218 -267 -398 -267c-226 0 -390 111 -390 265c0 192 185 259 389 280c124 13 379 22 416 143c3 11 5 22 5 32v6c-1 175 -124 304 -301 304c-200 0 -362 -89 -362 -199c0 -13 -8 -21 -21 -21s-21 8 -21 21
c0 121 180 219 401 219z" />
    <glyph glyph-name="b" unicode="b" horiz-adv-x="1075" 
d="M30 1520h35l130 3v-626c122 90 253 148 382 148c251 0 433 -221 433 -525s-186 -525 -443 -525c-149 0 -270 77 -342 198c-6 10 -14 19 -20 19c-5 0 -10 -6 -11 -26l-4 -186h-20v1455c0 37 -28 50 -105 50h-35v15zM195 872v-563c54 -175 191 -294 372 -294
c242 0 418 212 418 505s-171 505 -408 505c-127 0 -258 -59 -382 -153z" />
    <glyph glyph-name="c" unicode="c" horiz-adv-x="1010" 
d="M65 518c0 306 207 527 490 527c212 0 380 -115 380 -200c0 -13 -8 -21 -21 -21s-21 8 -21 21c0 96 -171 180 -341 180c-269 0 -462 -211 -462 -507c0 -294 200 -503 485 -503c128 0 264 43 367 130l13 -15c-107 -91 -248 -135 -380 -135c-296 0 -510 218 -510 523z" />
    <glyph glyph-name="d" unicode="d" horiz-adv-x="1125" 
d="M880 311v561c-124 95 -255 153 -382 153c-237 0 -408 -212 -408 -505s176 -505 418 -505c181 0 318 121 372 296zM905 1523v-1274l9 -100c7 -74 35 -135 65 -136l97 18l4 -20l-98 -16h-2c-52 0 -84 78 -91 152l-4 45c-2 17 -5 27 -11 27s-12 -7 -20 -21
c-72 -123 -195 -203 -346 -203c-257 0 -443 221 -443 525s182 525 433 525c129 0 261 -58 382 -148v558c0 37 -28 50 -105 50h-45v15h45z" />
    <glyph glyph-name="e" unicode="e" horiz-adv-x="1090" 
d="M949 550c35 0 45 35 45 68c0 11 -1 21 -3 30c-39 223 -198 377 -436 377c-252 0 -452 -186 -464 -475h858zM90 530v-10c0 -292 187 -505 455 -505c226 0 364 98 439 231l18 -10c-78 -139 -225 -241 -457 -241c-281 0 -480 224 -480 525v21c9 295 214 504 490 504
c286 0 470 -215 470 -505c0 -7 -6 -10 -10 -10h-925z" />
    <glyph glyph-name="f" unicode="f" horiz-adv-x="720" 
d="M80 1000v20h124c17 0 35 4 32 35c-4 40 -8 81 -8 124c0 240 171 341 318 341c153 0 264 -92 264 -218c0 -12 -8 -21 -21 -21s-21 9 -21 21c0 115 -93 198 -222 198c-137 0 -294 -91 -294 -322c0 -42 5 -82 9 -121c3 -30 27 -37 40 -37h259v-20h-259
c-27 0 -36 -13 -36 -35v-900c0 -29 13 -50 150 -50h25v-15h-390v15h40c137 0 150 21 150 50v901c0 24 -11 34 -36 34h-124z" />
    <glyph glyph-name="g" unicode="g" horiz-adv-x="1120" 
d="M245 145c-69 -67 -205 -208 -205 -356c0 -138 202 -244 503 -244c347 0 527 85 527 246c0 234 -180 269 -371 278c-158 8 -322 -2 -399 71c-13 12 -21 20 -30 20c-7 0 -14 -5 -25 -15zM530 1025c-216 0 -375 -116 -375 -345c0 -211 140 -345 375 -345
c206 0 355 118 355 345c0 208 -131 345 -355 345zM530 1045c109 0 200 -32 264 -88c8 -7 14 -11 20 -11s10 4 14 14c18 51 55 84 107 85c23 0 98 -1 98 -28c0 -13 -8 -23 -20 -23c-26 0 -46 31 -80 31c-50 0 -86 -42 -96 -113c48 -61 73 -140 73 -232
c0 -239 -166 -365 -380 -365c-72 0 -136 12 -191 35c-32 -31 -61 -64 -61 -107c0 -28 4 -44 13 -61c48 -89 220 -80 409 -89c188 -9 390 -45 390 -302c0 -181 -201 -271 -547 -271c-301 0 -523 109 -523 269c0 161 144 306 213 372c20 20 25 43 25 74v8c0 49 32 86 62 116
c-120 58 -190 172 -190 321c0 242 177 365 400 365z" />
    <glyph glyph-name="h" unicode="h" horiz-adv-x="1290" 
d="M90 1520h45l130 3v-832c0 -17 2 -31 7 -31c4 0 9 7 16 25c79 202 255 360 442 360c214 0 330 -98 330 -280v-695c0 -29 13 -55 150 -55h40v-15h-420v15h55c137 0 150 26 150 55v692c0 169 -107 260 -305 260c-232 0 -465 -280 -465 -560v-392c0 -29 13 -55 150 -55h55
v-15h-420v15h40c137 0 150 26 150 55v1385c0 37 -28 50 -105 50h-45v15z" />
    <glyph glyph-name="i" unicode="i" horiz-adv-x="500" 
d="M210 1380c0 21 18 40 40 40c21 0 40 -18 40 -40c0 -21 -18 -40 -40 -40c-21 0 -40 18 -40 40zM265 70c0 -29 13 -55 150 -55h35v-15h-400v15h40c137 0 150 26 150 55v905c0 37 -28 50 -105 50h-25v15h25l130 3v-973z" />
    <glyph glyph-name="j" unicode="j" horiz-adv-x="380" 
d="M175 1380c0 21 18 40 40 40c21 0 40 -18 40 -40c0 -21 -18 -40 -40 -40c-21 0 -40 18 -40 40zM-54 -447c122 0 254 88 254 367v1055c0 37 -28 50 -105 50h-45v15h45l130 3v-1123c0 -286 -141 -400 -294 -400c-35 0 -80 16 -107 37c-6 4 -9 10 -9 16c0 11 11 22 21 22
c4 0 10 -2 14 -5c29 -23 63 -37 96 -37z" />
    <glyph glyph-name="k" unicode="k" horiz-adv-x="1118" 
d="M90 1520h45l130 3v-963h167c22 0 54 20 68 37l287 363c17 21 21 33 21 40c0 18 -31 25 -77 25h-103v15h381v-15c-56 0 -147 -2 -206 -77l-314 -398l320 -407c64 -81 115 -127 160 -127c38 0 57 13 86 36c4 3 10 5 14 5c10 0 19 -8 19 -19c0 -6 -3 -12 -9 -16
c-27 -21 -62 -37 -97 -37c-74 0 -115 45 -194 146l-293 373c-11 15 -41 36 -63 36h-167v-470c0 -29 13 -55 150 -55h35v-15h-400v15h40c137 0 150 26 150 55v1385c0 37 -28 50 -105 50h-45v15z" />
    <glyph glyph-name="l" unicode="l" horiz-adv-x="500" 
d="M265 70c0 -29 13 -55 150 -55h35v-15h-400v15h40c137 0 150 26 150 55v1385c0 37 -28 50 -105 50h-45v15h45l130 3v-1453z" />
    <glyph glyph-name="m" unicode="m" horiz-adv-x="1930" 
d="M110 1040h25l130 3v-354c0 -23 2 -29 5 -29s8 12 12 26c67 202 221 359 408 359c188 0 295 -98 295 -280v-76c0 -23 2 -29 5 -29s8 13 12 27c68 201 222 358 408 358c188 0 290 -98 290 -280v-695c0 -29 13 -55 150 -55h40v-15h-395v15h30c137 0 150 26 150 55v692
c0 169 -89 260 -265 260c-236 0 -425 -270 -425 -560v-392c0 -29 13 -55 150 -55h30v-15h-385v15h30c137 0 150 26 150 55v692c0 169 -94 260 -270 260c-236 0 -425 -270 -425 -560v-392c0 -29 13 -55 150 -55h55v-15h-420v15h40c137 0 150 26 150 55v905
c0 37 -28 50 -105 50h-25v15z" />
    <glyph glyph-name="n" unicode="n" horiz-adv-x="1290" 
d="M110 1040h25l130 3v-352c0 -17 2 -31 7 -31c4 0 9 7 16 25c79 202 255 360 442 360c214 0 330 -98 330 -280v-695c0 -29 13 -55 150 -55h40v-15h-420v15h55c137 0 150 26 150 55v692c0 169 -103 260 -305 260c-236 0 -465 -270 -465 -560v-392c0 -29 13 -55 150 -55h55
v-15h-420v15h40c137 0 150 26 150 55v905c0 37 -28 50 -105 50h-25v15z" />
    <glyph glyph-name="o" unicode="o" horiz-adv-x="1110" 
d="M555 1045c284 0 490 -221 490 -525s-206 -525 -490 -525s-490 221 -490 525s206 525 490 525zM555 1025c-270 0 -465 -212 -465 -505s195 -505 465 -505s465 212 465 505s-195 505 -465 505z" />
    <glyph glyph-name="p" unicode="p" horiz-adv-x="1145" 
d="M265 872v-563c54 -175 191 -294 372 -294c242 0 418 212 418 505s-171 505 -408 505c-127 0 -258 -59 -382 -153zM265 -410c0 -29 13 -55 150 -55h75v-15h-440v15h40c137 0 150 26 150 55v1385c0 37 -28 50 -105 50h-25v15h25l130 3v-146c122 90 253 148 382 148
c251 0 433 -221 433 -525s-186 -525 -443 -525c-145 0 -262 74 -335 188c-10 16 -20 28 -27 28c-6 0 -10 -11 -10 -37v-584z" />
    <glyph glyph-name="q" unicode="q" horiz-adv-x="1005" 
d="M905 1040v-1455c0 -29 3 -50 140 -50h10v-15h-355v15h30c137 0 150 21 150 50v589c0 26 -4 37 -10 37c-7 0 -17 -12 -27 -28c-73 -114 -190 -188 -335 -188c-257 0 -443 221 -443 525s182 525 433 525c129 0 260 -58 382 -148l5 143h20zM880 872
c-124 94 -255 153 -382 153c-237 0 -408 -212 -408 -505s176 -505 418 -505c181 0 318 119 372 294v563z" />
    <glyph glyph-name="r" unicode="r" horiz-adv-x="830" 
d="M782 895c0 -14 -10 -24 -25 -24s-25 10 -25 24c0 77 -32 130 -116 130c-201 0 -351 -220 -351 -470v-485c0 -29 13 -55 150 -55h55v-15h-420v15h40c137 0 150 26 150 55v905c0 37 -28 50 -105 50h-25v15h25l130 3v-330c48 186 180 332 351 332c93 0 166 -61 166 -150z
" />
    <glyph glyph-name="s" unicode="s" horiz-adv-x="1010" 
d="M485 1045c87 0 207 -15 314 -101c20 -16 31 -30 39 -30c11 0 15 15 15 46c0 5 -1 24 -3 80h16l11 -300c0 -4 -3 -7 -8 -7s-8 3 -8 7l-1 8c-10 76 -26 142 -73 180c-100 82 -217 97 -302 97c-191 0 -330 -94 -330 -224c0 -249 795 -165 795 -557
c0 -144 -183 -249 -435 -249c-144 0 -239 25 -347 117c-26 24 -49 46 -63 46c-13 0 -19 -17 -21 -64l-4 -94h-15l12 330h15v-11c0 -79 36 -146 93 -193c103 -84 189 -111 330 -111c238 0 410 96 410 229c0 367 -795 275 -795 557c0 142 149 244 355 244z" />
    <glyph glyph-name="t" unicode="t" horiz-adv-x="830" 
d="M40 1000v20h90c87 0 100 17 100 123v177h20v-266c0 -22 9 -34 36 -34h474v-20h-474c-27 0 -36 -13 -36 -35v-575c0 -218 110 -375 261 -375c90 0 188 38 241 122l16 -10c-57 -91 -162 -132 -257 -132c-166 0 -286 166 -286 395v575c0 22 -9 35 -36 35h-149z" />
    <glyph glyph-name="u" unicode="u" horiz-adv-x="1220" 
d="M50 1025v15h25l130 3v-765c0 -169 103 -260 305 -260c236 0 465 270 465 560v397c0 37 -28 50 -105 50h-25v15h25l130 3v-794l9 -100c7 -74 35 -133 65 -134l96 16l4 -20l-97 -16h-2c-52 0 -84 78 -91 152l-9 101v101c0 17 -2 31 -7 31c-4 0 -9 -7 -16 -25
c-79 -202 -255 -360 -442 -360c-214 0 -330 98 -330 280v700c0 37 -28 50 -105 50h-25z" />
    <glyph glyph-name="v" unicode="v" horiz-adv-x="1200" 
d="M782 1040h398v-15h-11c-83 0 -126 -21 -148 -74l-401 -954h-27l-389 893c-45 103 -60 118 -125 118c-14 0 -29 -2 -47 -8c-2 -1 -5 -2 -7 -2c-12 0 -19 6 -19 19c0 26 49 28 68 28c88 0 104 -38 153 -149l358 -816c9 -21 17 -31 24 -31s14 10 23 31l371 877
c6 13 9 23 9 32c0 32 -43 36 -150 36h-80v15z" />
    <glyph glyph-name="w" unicode="w" horiz-adv-x="1860" 
d="M680 1040h403v-15h-81c-107 0 -151 -4 -151 -36c0 -9 3 -19 9 -32l385 -877c9 -21 17 -31 24 -31s14 10 23 31l371 877c6 13 9 23 9 32c0 32 -43 36 -150 36h-80v15h398v-15h-11c-83 0 -126 -21 -148 -74l-401 -954h-27l-301 689c-7 15 -14 23 -21 23s-14 -8 -20 -22
l-291 -690h-27l-389 893c-45 103 -60 118 -125 118c-14 0 -29 -2 -47 -8c-2 -1 -5 -2 -7 -2c-12 0 -19 6 -19 19c0 26 49 28 68 28c88 0 104 -38 153 -149l358 -816c9 -21 17 -31 24 -31s14 10 23 31l288 681l-83 190c-23 53 -64 74 -147 74h-10v15z" />
    <glyph glyph-name="x" unicode="x" horiz-adv-x="1160" 
d="M553 546c7 9 12 18 12 30c0 14 -3 26 -11 37l-197 279c-60 85 -102 124 -147 124c-38 0 -57 -11 -86 -34c-4 -3 -10 -5 -14 -5c-10 0 -21 9 -21 20c0 6 3 12 9 16c27 21 62 37 97 37c74 0 110 -42 184 -147l195 -278c4 -5 14 -20 19 -20s14 11 18 16l268 344
c6 8 11 21 11 26c0 24 -22 34 -109 34h-101v15h410v-15h-33c-35 0 -109 -5 -158 -68l-269 -345c-8 -10 -13 -19 -13 -33c0 -12 5 -21 11 -30l299 -429c52 -74 89 -105 173 -105h40v-15h-414v15h101c73 0 100 12 100 43c0 15 -8 31 -23 52l-298 429c-3 5 -10 14 -16 14
s-15 -12 -19 -17l-361 -461c-12 -15 -13 -26 -13 -31c0 -15 20 -29 124 -29h92v-15h-393c-1 0 0 15 0 15h19c65 0 114 17 155 70z" />
    <glyph glyph-name="y" unicode="y" horiz-adv-x="1160" 
d="M742 1040h398v-15h-11c-70 0 -107 -21 -128 -74l-419 -996c-111 -264 -233 -434 -427 -434c-165 0 -275 78 -275 195c0 17 4 34 11 51c4 10 12 15 21 15c4 0 7 0 11 -2c10 -4 16 -13 16 -22c0 -3 -1 -7 -2 -10c-7 -17 -11 -33 -11 -49c0 -95 92 -158 230 -158
c182 0 299 164 407 421l6 13c1 2 1 4 1 7c0 14 -9 41 -15 56l-352 852c-43 104 -59 118 -124 118c-14 0 -29 -2 -47 -8c-2 -1 -5 -2 -7 -2c-12 0 -19 6 -19 19c0 26 49 28 68 28c88 0 107 -37 153 -149l343 -827c9 -21 12 -29 19 -29s10 9 19 30l375 887c5 13 9 23 9 32
c0 32 -43 36 -150 36h-100v15z" />
    <glyph glyph-name="z" unicode="z" horiz-adv-x="1060" 
d="M121 1040h871v-20c-39 0 -93 -45 -163 -132l-607 -748c-43 -53 -78 -95 -114 -120h759c69 0 111 38 117 111l11 140l15 -2l-20 -260c0 -6 -6 -9 -10 -9h-930l1 20c42 0 87 48 155 132l607 748c25 31 48 56 69 77c9 9 14 18 14 25c0 11 -11 18 -28 18h-633
c-69 0 -110 -36 -116 -109l-11 -142l-7 2l10 260c0 4 4 9 10 9z" />
    <glyph glyph-name="braceleft" unicode="{" horiz-adv-x="560" 
d="M520 -420v-20c-168 0 -290 122 -290 290v499c0 158 -108 190 -150 190c-28 0 -40 2 -40 8v26c0 7 14 8 40 8c45 0 150 36 150 190v499c0 168 122 290 290 290v-20c-154 0 -265 -113 -265 -270v-499c0 -156 -107 -205 -165 -210v-2c53 -5 165 -49 165 -210v-499
c0 -157 111 -270 265 -270z" />
    <glyph glyph-name="bar" unicode="|" horiz-adv-x="200" 
d="M105 -400h-25v1920h25v-1920z" />
    <glyph glyph-name="braceright" unicode="}" horiz-adv-x="560" 
d="M40 -420c154 0 265 113 265 270v499c0 161 112 205 165 210v2c-58 5 -165 54 -165 210v499c0 157 -111 270 -265 270v20c168 0 290 -122 290 -290v-499c0 -154 105 -190 150 -190c26 0 40 -1 40 -8v-26c0 -6 -12 -8 -40 -8c-42 0 -150 -32 -150 -190v-499
c0 -168 -122 -290 -290 -290v20z" />
    <glyph glyph-name="asciitilde" unicode="~" horiz-adv-x="800" 
d="M692 798c9 -2 8 -10 8 -12c-13 -72 -61 -106 -113 -106c-137 0 -254 128 -374 128c-45 0 -83 -27 -94 -87c-2 -9 -9 -9 -11 -9s-10 3 -8 12c12 68 57 106 113 106c134 0 252 -128 374 -128c42 0 82 24 93 88c0 2 3 10 12 8z" />
    <glyph glyph-name="uni00A0" unicode="&#xa0;" horiz-adv-x="532" 
 />
    <glyph glyph-name="exclamdown" unicode="&#xa1;" horiz-adv-x="400" 
d="M280 -480h-25v69c0 171 5 363 5 971h20v-1040zM310 1005c0 -21 -18 -40 -40 -40c-21 0 -40 18 -40 40c0 21 18 40 40 40c21 0 40 -18 40 -40z" />
    <glyph glyph-name="cent" unicode="&#xa2;" horiz-adv-x="1000" 
d="M545 -40h-25v114c-275 19 -470 233 -470 524c0 299 197 517 470 527v115h25v-115c210 -2 375 -116 375 -200c0 -13 -8 -21 -21 -21s-21 8 -21 21c0 94 -166 177 -333 180v-1012h15c128 0 264 43 367 130l13 -15c-107 -91 -248 -135 -380 -135h-15v-113zM520 94v1011
c-260 -9 -445 -217 -445 -507c0 -280 181 -485 445 -504z" />
    <glyph glyph-name="sterling" unicode="&#xa3;" horiz-adv-x="1145" 
d="M934 1077v194c-15 19 -87 134 -278 134c-171 0 -283 -133 -283 -342v-320h349l-4 -20h-345v-86c0 -157 -7 -288 -24 -391c192 -63 402 -226 576 -226c70 0 132 35 154 133l16 70l20 -4l-16 -70c-23 -106 -95 -154 -174 -154c-184 0 -395 165 -580 230
c-29 -149 -83 -230 -179 -230c-76 0 -130 56 -130 142c0 80 72 134 178 134c36 0 74 -7 112 -18c16 98 22 227 22 384v86h-190l4 20h186v320c0 217 124 362 308 362c209 0 287 -134 295 -143l3 -3v-202h-20zM323 232c-38 12 -74 19 -109 19c-100 0 -158 -49 -158 -114
c0 -77 46 -122 110 -122c82 0 131 73 157 217z" />
    <glyph glyph-name="currency" unicode="&#xa4;" horiz-adv-x="720" 
d="M356 942c57 0 109 -16 156 -53c15 -12 32 -4 39 3l94 94l14 -15l-94 -94c-13 -13 -10 -30 -3 -39c34 -45 50 -96 50 -152c0 -74 -27 -120 -47 -148c-11 -15 -4 -32 3 -39l87 -87l-15 -13l-85 84c-13 13 -32 8 -40 2c-47 -38 -99 -55 -159 -55s-109 18 -152 50
c-14 11 -31 5 -39 -3l-87 -86l-13 15l85 85c13 13 9 31 3 39c-39 50 -53 102 -53 156c0 63 19 114 55 159c12 15 5 33 -2 40l-93 94l15 13l94 -94c13 -13 31 -9 39 -3c30 21 78 47 148 47zM193 849c-45 -45 -68 -100 -68 -163c0 -64 23 -118 68 -163s100 -68 163 -68
c64 0 118 23 163 68s68 100 68 163c0 64 -23 118 -68 163s-100 68 -163 68c-64 0 -118 -23 -163 -68z" />
    <glyph glyph-name="yen" unicode="&#xa5;" horiz-adv-x="1280" 
d="M340 460v20h285v2l-4 8l-458 837c-41 76 -90 78 -124 78h-27v15h404v-15h-142c-63 0 -99 -5 -99 -33c0 -9 4 -21 11 -35l452 -827l452 827c7 14 11 26 11 35c0 28 -36 33 -99 33h-142v15h408v-15h-36c-34 0 -83 -2 -124 -78l-458 -837v-10h330v-20h-330v-180h330v-20
h-330v-190c0 -29 13 -55 150 -55h35v-15h-400v15h40c137 0 150 26 150 55v190h-285v20h285v180h-285z" />
    <glyph glyph-name="brokenbar" unicode="&#xa6;" horiz-adv-x="200" 
d="M80 800v720h25v-720h-25zM105 400v-800h-25v800h25z" />
    <glyph glyph-name="section" unicode="&#xa7;" horiz-adv-x="1280" 
d="M1028 1460l12 -300c0 -4 -3 -7 -8 -7s-8 3 -8 7l-3 29c-25 238 -247 314 -401 314c-198 0 -342 -114 -342 -272c0 -502 952 -248 952 -797c0 -163 -197 -285 -431 -313c132 -58 228 -146 228 -312c0 -171 -154 -294 -367 -294c-107 0 -251 38 -341 141
c-17 20 -30 29 -38 29c-11 0 -14 -15 -14 -46v-15l1 -44h-16l-12 300c0 4 3 7 8 7s8 -3 8 -7l3 -29c25 -238 247 -314 401 -314c198 0 342 114 342 272c0 502 -952 248 -952 797c0 163 197 286 432 313c-132 58 -229 145 -229 312c0 171 154 294 367 294
c107 0 251 -38 341 -141c17 -20 30 -29 38 -29c11 0 15 15 15 46c0 5 -1 10 -1 15l-1 44h16zM755 139c245 16 450 134 450 295c0 347 -398 360 -679 467c-246 -16 -451 -134 -451 -295c0 -347 399 -360 680 -467z" />
    <glyph glyph-name="dieresis" unicode="&#xa8;" horiz-adv-x="800" 
d="M120 1340c0 21 18 40 40 40c21 0 40 -18 40 -40c0 -21 -18 -40 -40 -40c-21 0 -40 18 -40 40zM600 1340c0 21 18 40 40 40c21 0 40 -18 40 -40c0 -21 -18 -40 -40 -40c-21 0 -40 18 -40 40z" />
    <glyph glyph-name="copyright" unicode="&#xa9;" horiz-adv-x="1880" 
d="M1820 758c0 -445 -394 -807 -880 -807s-880 362 -880 807c0 443 394 803 880 803s880 -360 880 -803zM1800 758c0 432 -385 783 -860 783s-860 -351 -860 -783c0 -434 385 -787 860 -787s860 353 860 787zM495 756c0 274 172 457 430 457c212 0 370 -115 370 -200
c0 -13 -8 -21 -21 -21s-21 8 -21 21c0 96 -161 180 -331 180c-241 0 -402 -175 -402 -437c0 -266 165 -443 420 -443c128 0 252 38 355 125l13 -15c-107 -91 -236 -130 -368 -130c-270 0 -445 185 -445 463z" />
    <glyph glyph-name="ordfeminine" unicode="&#xaa;" horiz-adv-x="880" 
d="M594 1256c-55 -67 -203 -67 -268 -74c-133 -14 -233 -57 -233 -166c0 -91 97 -156 232 -156c154 0 269 142 269 276v120zM400 1530c128 0 219 -92 219 -214v-316l10 -62c10 -58 21 -75 35 -75c0 0 0 1 69 7h3l3 -19l-75 -11h-1c-37 0 -50 46 -58 95l-11 62v2v15
c0 12 1 20 -5 7c-45 -102 -145 -181 -264 -181c-150 0 -257 75 -257 176c0 129 126 172 256 185c84 9 244 17 267 91c3 9 3 15 3 20v4c-1 114 -81 194 -192 194c-132 0 -231 -60 -231 -126c0 -12 -10 -17 -18 -17c-12 0 -17 9 -17 17c0 84 123 146 264 146z" />
    <glyph glyph-name="guillemotleft" unicode="&#xab;" horiz-adv-x="680" 
d="M344 832l16 -14l-258 -294v-8l258 -292l-16 -14l-260 295c-1 1 -10 11 -10 14v2c0 2 8 12 10 14zM584 832l16 -14l-258 -294v-8l258 -292l-16 -14l-260 295c-1 1 -10 11 -10 14v2c0 2 8 12 10 14z" />
    <glyph glyph-name="logicalnot" unicode="&#xac;" horiz-adv-x="1120" 
d="M80 480h960v-480h-20v455h-940v25z" />
    <glyph glyph-name="uni00AD" unicode="&#xad;" horiz-adv-x="720" 
d="M642 770l-4 -20h-560l4 20h560z" />
    <glyph glyph-name="registered" unicode="&#xae;" horiz-adv-x="1880" 
d="M1820 758c0 -445 -394 -807 -880 -807s-880 362 -880 807c0 443 394 803 880 803s880 -360 880 -803zM1800 758c0 432 -385 783 -860 783s-860 -351 -860 -783c0 -434 385 -787 860 -787s860 353 860 787zM506 1335h412c259 0 431 -126 431 -314
c0 -180 -157 -297 -373 -317c111 -34 165 -118 213 -251c35 -96 77 -213 164 -213c29 0 40 10 61 26c5 4 10 5 12 5c7 0 12 -4 14 -8c4 -5 4 -9 4 -11c0 -7 -3 -12 -7 -14c-27 -21 -51 -29 -88 -29c-109 0 -149 152 -180 238c-66 182 -130 254 -334 254h-161v-427
c0 -21 10 -39 111 -39h29v-15h-308v15h33c105 0 111 20 111 39v1010c0 21 -14 36 -111 36h-33v15zM675 721h241c240 0 408 120 408 300c0 176 -163 294 -408 294h-241v-594z" />
    <glyph glyph-name="macron" unicode="&#xaf;" horiz-adv-x="800" 
d="M720 1390h-640v20h640v-20z" />
    <glyph glyph-name="degree" unicode="&#xb0;" horiz-adv-x="420" 
d="M210 1450c59 0 130 -58 130 -130c0 -68 -67 -130 -130 -130c-59 0 -130 58 -130 130c0 68 67 130 130 130zM210 1430c-51 0 -110 -54 -110 -110c0 -60 61 -110 110 -110c51 0 110 54 110 110c0 60 -61 110 -110 110z" />
    <glyph glyph-name="plusminus" unicode="&#xb1;" horiz-adv-x="1040" 
d="M960 850l-1 -20h-429v-430h-20v430h-430v20h430v430h20v-430h430zM960 220h-880v20h880v-20z" />
    <glyph glyph-name="uni00B2" unicode="&#xb2;" horiz-adv-x="580" 
d="M77 1725h12l-2 -58c0 -24 2 -35 10 -35c6 0 18 7 31 22c43 49 117 75 177 75c131 0 218 -80 218 -200c0 -74 -21 -153 -144 -285l-147 -157c-53 -57 -99 -101 -132 -127c-11 -9 -17 -13 -17 -17c0 -3 5 -5 18 -5h367c38 0 66 28 66 68v133h16v-213c0 -3 -3 -7 -8 -7h-494
c-3 0 -8 2 -8 7v10c0 3 2 6 7 7c12 2 83 59 173 155l145 154c122 131 139 207 139 277c0 111 -80 185 -199 185c-86 0 -210 -49 -224 -211l-2 -23c0 -3 -2 -5 -6 -5s-6 2 -6 5z" />
    <glyph glyph-name="uni00B3" unicode="&#xb3;" horiz-adv-x="640" 
d="M321 1729c140 0 233 -71 233 -175c0 -74 -59 -139 -171 -168v-2c136 -20 227 -92 227 -225c0 -146 -121 -244 -301 -244c-160 0 -221 85 -248 128c-1 1 -1 2 -1 3v77h15v-35c0 -17 10 -56 26 -74c35 -40 93 -84 208 -84c169 0 281 92 281 229c0 126 -75 192 -208 211h-10
c-9 0 -13 3 -13 6v17c0 3 4 6 13 6h10c109 29 152 88 152 155c0 95 -84 160 -213 160c-86 0 -207 -45 -224 -211l-2 -22c0 -3 -2 -6 -6 -6s-7 3 -7 6l10 244h13c-1 -34 -3 -49 -3 -57c0 -24 3 -36 12 -36c6 0 17 8 30 23c43 49 117 74 177 74z" />
    <glyph glyph-name="acute" unicode="&#xb4;" horiz-adv-x="480" 
d="M76 1238l288 271c6 6 14 3 17 0s8 -11 2 -17l-293 -268z" />
    <glyph glyph-name="uni00B5" unicode="&#xb5;" horiz-adv-x="1220" 
d="M1000 1043v-794l9 -100c7 -74 35 -133 65 -134l96 16l4 -20l-97 -16h-2c-52 0 -84 78 -91 152l-9 101v140c0 18 -1 26 -2 26c-2 0 -4 -10 -9 -26c-72 -218 -257 -393 -454 -393c-162 0 -268 56 -310 163v-263c0 -107 24 -189 24 -239c0 -21 -18 -36 -44 -36v1355
c0 37 -28 50 -105 50h-25v15h25l130 3v-765c0 -169 103 -260 305 -260c236 0 465 270 465 560v397c0 37 -28 50 -105 50h-25v15h25z" />
    <glyph glyph-name="paragraph" unicode="&#xb6;" horiz-adv-x="1060" 
d="M380 800c-88 0 -164 32 -226 94s-94 138 -94 226s32 164 94 226s138 94 226 94h610v-15h-40c-133 0 -160 -20 -160 -60v-1690c0 -40 27 -60 160 -60h40v-15h-225v1765c0 40 -40 60 -180 60s-180 -20 -180 -60v-1765h-225v15h40c133 0 160 20 160 60v1125z" />
    <glyph glyph-name="periodcentered" unicode="&#xb7;" horiz-adv-x="400" 
d="M120 535c0 21 18 40 40 40c21 0 40 -18 40 -40c0 -21 -18 -40 -40 -40c-21 0 -40 18 -40 40z" />
    <glyph glyph-name="cedilla" unicode="&#xb8;" horiz-adv-x="900" 
d="M362 15l-35 -139c27 8 49 16 85 16c94 0 173 -77 173 -176c0 -85 -80 -156 -180 -156c-68 0 -133 32 -165 86c-1 2 -4 9 3 13s13 -1 14 -3c28 -46 85 -76 148 -76c92 0 160 64 160 136c0 88 -71 156 -153 156c-43 0 -65 -10 -96 -20c-7 -2 -11 2 -12 6c-1 3 0 5 0 6
l38 156z" />
    <glyph glyph-name="uni00B9" unicode="&#xb9;" horiz-adv-x="390" 
d="M187 1591c0 21 0 37 -16 37c-5 0 -14 -2 -24 -7c-19 -9 -47 -16 -84 -16v16c124 0 119 62 124 108c12 0 20 -8 20 -19v-737c0 -22 10 -43 116 -43h27v-10h-310v10h31c106 0 116 21 116 43v618z" />
    <glyph glyph-name="ordmasculine" unicode="&#xba;" horiz-adv-x="800" 
d="M372 1530c189 0 322 -147 322 -345c0 -202 -137 -345 -322 -345c-189 0 -322 147 -322 345c0 202 137 345 322 345zM372 1510c-175 0 -297 -138 -297 -325c0 -191 126 -325 297 -325c175 0 297 138 297 325c0 191 -126 325 -297 325z" />
    <glyph glyph-name="guillemotright" unicode="&#xbb;" horiz-adv-x="680" 
d="M336 208l-16 14l258 294v8l-258 292l16 14l260 -295c1 -1 10 -11 10 -14v-2c0 -2 -8 -12 -10 -14zM96 208l-16 14l258 294v8l-258 292l16 14l260 -295c1 -1 10 -11 10 -14v-2c0 -2 -8 -12 -10 -14z" />
    <glyph glyph-name="onequarter" unicode="&#xbc;" 
d="M1203 1364l15 -13l-1121 -1275l-15 13zM217 1361c0 21 0 37 -16 37c-5 0 -14 -2 -24 -7c-19 -9 -47 -16 -84 -16v16c124 0 119 62 124 108c12 0 20 -8 20 -19v-737c0 -22 10 -43 116 -43h27v-10h-310v10h31c106 0 116 21 116 43v618zM760 168c-12 -13 -15 -26 6 -26h383
c21 0 28 9 28 26v373c0 11 8 19 20 19v-392c0 -17 7 -26 28 -26h100v-20h-100c-21 0 -28 -10 -28 -27v-78c0 -22 10 -43 116 -43h37v-10h-366v10h77c106 0 116 21 116 43v78c0 17 -7 27 -28 27h-429v24c62 72 135 151 188 228c67 99 115 203 115 330c0 24 -20 39 -20 56
c0 8 6 13 12 13c7 0 11 -2 13 -5c11 -16 11 -37 11 -56c0 -135 -47 -241 -115 -341c-50 -74 -103 -132 -164 -203z" />
    <glyph glyph-name="onehalf" unicode="&#xbd;" horiz-adv-x="1470" 
d="M1203 1364l15 -13l-1121 -1275l-15 13zM927 770h12l-2 -58c0 -24 2 -35 10 -35c6 0 18 7 31 22c43 49 117 75 177 75c131 0 218 -80 218 -200c0 -74 -21 -153 -144 -285l-147 -157c-53 -57 -99 -101 -132 -127c-11 -9 -17 -13 -17 -17c0 -3 5 -5 18 -5h367
c38 0 66 28 66 68v133h16v-213c0 -3 -3 -7 -8 -7h-494c-3 0 -8 2 -8 7v10c0 3 2 6 7 7c12 2 83 59 173 155l145 154c122 131 139 207 139 277c0 111 -80 185 -199 185c-86 0 -210 -49 -224 -211l-2 -23c0 -3 -2 -5 -6 -5s-6 2 -6 5zM217 1361c0 21 0 37 -16 37
c-5 0 -14 -2 -24 -7c-19 -9 -47 -16 -84 -16v16c124 0 119 62 124 108c12 0 20 -8 20 -19v-737c0 -22 10 -43 116 -43h27v-10h-310v10h31c106 0 116 21 116 43v618z" />
    <glyph glyph-name="threequarters" unicode="&#xbe;" horiz-adv-x="1500" 
d="M321 1499c140 0 233 -71 233 -175c0 -74 -59 -139 -171 -168v-2c136 -20 227 -92 227 -225c0 -146 -121 -244 -301 -244c-160 0 -221 85 -248 128c-1 1 -1 2 -1 3v77h15v-35c0 -17 10 -56 26 -74c35 -40 93 -84 208 -84c169 0 281 92 281 229c0 126 -75 192 -208 211h-10
c-9 0 -13 3 -13 6v17c0 3 4 6 13 6h10c109 29 152 88 152 155c0 95 -84 160 -213 160c-86 0 -207 -45 -224 -211l-2 -22c0 -3 -2 -6 -6 -6s-7 3 -7 6l10 244h13c-1 -34 -3 -49 -3 -57c0 -24 3 -36 12 -36c6 0 17 8 30 23c43 49 117 74 177 74zM1323 1364l15 -13l-1121 -1275
l-15 13zM860 168c-12 -13 -15 -26 6 -26h383c21 0 28 9 28 26v373c0 11 8 19 20 19v-392c0 -17 7 -26 28 -26h100v-20h-100c-21 0 -28 -10 -28 -27v-78c0 -22 10 -43 116 -43h37v-10h-366v10h77c106 0 116 21 116 43v78c0 17 -7 27 -28 27h-429v24c62 72 135 151 188 228
c67 99 115 203 115 330c0 24 -20 39 -20 56c0 8 6 13 12 13c7 0 11 -2 13 -5c11 -16 11 -37 11 -56c0 -135 -47 -241 -115 -341c-50 -74 -103 -132 -164 -203z" />
    <glyph glyph-name="questiondown" unicode="&#xbf;" horiz-adv-x="960" 
d="M866 -479h-16c1 39 3 104 3 104c0 5 1 10 1 15c0 31 -4 46 -15 46c-8 0 -21 -9 -38 -29c-84 -97 -212 -141 -317 -141c-234 0 -404 136 -404 324c0 215 110 335 311 453c87 51 155 84 155 157c0 17 -6 85 -11 129l20 2l16 -118c0 -5 1 -9 1 -13c0 -87 -85 -131 -168 -180
c-199 -116 -299 -224 -299 -430c0 -176 159 -304 379 -304c152 0 353 88 377 316l3 29c0 4 3 7 8 7s8 -3 8 -7zM580 1005c0 -21 -18 -40 -40 -40c-21 0 -40 18 -40 40c0 21 18 40 40 40c21 0 40 -18 40 -40z" />
    <glyph glyph-name="Agrave" unicode="&#xc0;" 
d="M792 1640l-14 -14l-293 268c-6 6 -1 14 2 17s11 6 17 0zM327 500h712l-322 900c-18 50 -20 62 -21 67h-23zM20 0v15h5c86 0 115 20 134 74l510 1424c2 5 6 7 9 7h27c7 0 10 -6 10 -10c0 -20 5 -49 25 -104l469 -1308c23 -63 52 -83 131 -83h40v-15h-390v15h100
c81 0 106 7 106 34c0 11 -4 26 -11 45l-139 386h-726l-143 -397c-3 -10 -5 -18 -5 -25c0 -36 44 -43 147 -43h41v-15h-340z" />
    <glyph glyph-name="Aacute" unicode="&#xc1;" 
d="M586 1640l288 271c6 6 14 3 17 0s8 -11 2 -17l-293 -268zM327 500h712l-322 900c-18 50 -20 62 -21 67h-23zM20 0v15h5c86 0 115 20 134 74l510 1424c2 5 6 7 9 7h27c7 0 10 -6 10 -10c0 -20 5 -49 25 -104l469 -1308c23 -63 52 -83 131 -83h40v-15h-390v15h100
c81 0 106 7 106 34c0 11 -4 26 -11 45l-139 386h-726l-143 -397c-3 -10 -5 -18 -5 -25c0 -36 44 -43 147 -43h41v-15h-340z" />
    <glyph glyph-name="Acircumflex" unicode="&#xc2;" 
d="M379 1610l-14 15l313 275h22l313 -275l-14 -15l-307 270h-6zM327 500h712l-322 900c-18 50 -20 62 -21 67h-23zM20 0v15h5c86 0 115 20 134 74l510 1424c2 5 6 7 9 7h27c7 0 10 -6 10 -10c0 -20 5 -49 25 -104l469 -1308c23 -63 52 -83 131 -83h40v-15h-390v15h100
c81 0 106 7 106 34c0 11 -4 26 -11 45l-139 386h-726l-143 -397c-3 -10 -5 -18 -5 -25c0 -36 44 -43 147 -43h41v-15h-340z" />
    <glyph glyph-name="Atilde" unicode="&#xc3;" 
d="M941 1848c9 -2 8 -10 8 -12c-13 -72 -61 -106 -113 -106c-127 0 -184 108 -294 108c-45 0 -82 -27 -93 -87c-2 -9 -10 -9 -12 -9s-10 3 -8 12c12 68 57 106 113 106c124 0 182 -108 294 -108c42 0 82 24 93 88c0 2 3 10 12 8zM327 500h712l-322 900c-18 50 -20 62 -21 67
h-23zM20 0v15h5c86 0 115 20 134 74l510 1424c2 5 6 7 9 7h27c7 0 10 -6 10 -10c0 -20 5 -49 25 -104l469 -1308c23 -63 52 -83 131 -83h40v-15h-390v15h100c81 0 106 7 106 34c0 11 -4 26 -11 45l-139 386h-726l-143 -397c-3 -10 -5 -18 -5 -25c0 -36 44 -43 147 -43h41
v-15h-340z" />
    <glyph glyph-name="Adieresis" unicode="&#xc4;" 
d="M409 1740c0 21 18 40 40 40c21 0 40 -18 40 -40c0 -21 -18 -40 -40 -40c-21 0 -40 18 -40 40zM889 1740c0 21 18 40 40 40c21 0 40 -18 40 -40c0 -21 -18 -40 -40 -40c-21 0 -40 18 -40 40zM327 500h712l-322 900c-18 50 -20 62 -21 67h-23zM20 0v15h5
c86 0 115 20 134 74l510 1424c2 5 6 7 9 7h27c7 0 10 -6 10 -10c0 -20 5 -49 25 -104l469 -1308c23 -63 52 -83 131 -83h40v-15h-390v15h100c81 0 106 7 106 34c0 11 -4 26 -11 45l-139 386h-726l-143 -397c-3 -10 -5 -18 -5 -25c0 -36 44 -43 147 -43h41v-15h-340z" />
    <glyph glyph-name="Aring" unicode="&#xc5;" 
d="M690 1787c-78 0 -130 -56 -130 -130c0 -78 56 -130 130 -130c78 0 130 56 130 130c0 78 -56 130 -130 130zM690 1807c84 0 150 -61 150 -150c0 -76 -50 -137 -125 -148c0 -20 6 -49 25 -103l469 -1308c23 -63 52 -83 131 -83h40v-15h-390v15h100c81 0 106 7 106 34
c0 11 -4 26 -11 45l-139 386h-726l-143 -397c-3 -10 -5 -18 -5 -25c0 -36 44 -43 147 -43h41v-15h-340v15h5c86 0 115 20 134 74l508 1420c-73 10 -127 67 -127 148c0 84 61 150 150 150zM327 500h712l-322 900c-18 50 -20 62 -21 67h-23z" />
    <glyph glyph-name="AE" unicode="&#xc6;" horiz-adv-x="2000" 
d="M1830 1520c7 0 10 -6 10 -9l25 -380l-20 -2l-16 254c-6 88 -39 117 -127 117h-626l-1 -740h315c40 0 40 188 40 270v60h20v-680h-20v60c0 88 0 270 -40 270h-315v-720h707c91 0 121 32 127 117l16 254l20 -2l-25 -380c0 -7 -7 -9 -10 -9h-1050v15h40c137 0 150 27 150 56
v409h-702l-170 -397c-5 -11 -7 -19 -7 -27c0 -36 51 -41 149 -41h40v-15h-340v15h5c86 0 111 21 134 74l579 1351c2 6 4 12 4 19c0 22 -14 46 -49 46h-38v15h45h1130zM357 500h693v930c0 51 -18 70 -70 70h-151c-43 0 -61 -39 -72 -65z" />
    <glyph glyph-name="Ccedilla" unicode="&#xc7;" horiz-adv-x="1141" 
d="M1041 1540h15l14 -380c0 -5 -3 -8 -7 -8c-5 0 -8 3 -8 8c-11 254 -270 345 -380 345c-354 0 -590 -297 -590 -743c0 -438 222 -747 590 -747c177 0 309 77 397 164l14 -14c-91 -89 -228 -170 -411 -170h-22l-33 -129c27 8 49 16 85 16c94 0 173 -77 173 -176
c0 -85 -80 -156 -180 -156c-68 0 -133 32 -165 86c-1 2 -4 9 3 13s13 -1 14 -3c28 -46 85 -76 148 -76c92 0 160 64 160 136c0 88 -71 156 -153 156c-43 0 -65 -10 -96 -20c-7 -2 -11 2 -12 6c-1 3 0 5 0 6l35 142c-356 24 -567 339 -567 766c0 458 244 763 610 763
c80 0 234 -45 326 -162c11 -13 19 -18 26 -18c17 0 19 28 19 35v33z" />
    <glyph glyph-name="Egrave" unicode="&#xc8;" horiz-adv-x="1290" 
d="M803 1640l-14 -14l-293 268c-6 6 -1 14 2 17s11 6 17 0zM50 1520h1070c7 0 10 -6 10 -9l25 -380l-20 -2l-16 254c-6 88 -39 117 -127 117h-726l-1 -740h395c40 0 40 188 40 270v60h20v-680h-20v60c0 88 0 270 -40 270h-395v-720h807c91 0 121 32 127 117l16 254l20 -2
l-25 -380c0 -7 -7 -9 -10 -9h-1150v15h40c137 0 150 27 150 56v1384c0 31 -18 50 -150 50h-40v15z" />
    <glyph glyph-name="Eacute" unicode="&#xc9;" horiz-adv-x="1290" 
d="M597 1640l288 271c6 6 14 3 17 0s8 -11 2 -17l-293 -268zM50 1520h1070c7 0 10 -6 10 -9l25 -380l-20 -2l-16 254c-6 88 -39 117 -127 117h-726l-1 -740h395c40 0 40 188 40 270v60h20v-680h-20v60c0 88 0 270 -40 270h-395v-720h807c91 0 121 32 127 117l16 254l20 -2
l-25 -380c0 -7 -7 -9 -10 -9h-1150v15h40c137 0 150 27 150 56v1384c0 31 -18 50 -150 50h-40v15z" />
    <glyph glyph-name="Ecircumflex" unicode="&#xca;" horiz-adv-x="1290" 
d="M390 1610l-14 15l313 275h22l313 -275l-14 -15l-307 270h-6zM50 1520h1070c7 0 10 -6 10 -9l25 -380l-20 -2l-16 254c-6 88 -39 117 -127 117h-726l-1 -740h395c40 0 40 188 40 270v60h20v-680h-20v60c0 88 0 270 -40 270h-395v-720h807c91 0 121 32 127 117l16 254
l20 -2l-25 -380c0 -7 -7 -9 -10 -9h-1150v15h40c137 0 150 27 150 56v1384c0 31 -18 50 -150 50h-40v15z" />
    <glyph glyph-name="Edieresis" unicode="&#xcb;" horiz-adv-x="1290" 
d="M420 1740c0 21 18 40 40 40c21 0 40 -18 40 -40c0 -21 -18 -40 -40 -40c-21 0 -40 18 -40 40zM900 1740c0 21 18 40 40 40c21 0 40 -18 40 -40c0 -21 -18 -40 -40 -40c-21 0 -40 18 -40 40zM50 1520h1070c7 0 10 -6 10 -9l25 -380l-20 -2l-16 254c-6 88 -39 117 -127 117
h-726l-1 -740h395c40 0 40 188 40 270v60h20v-680h-20v60c0 88 0 270 -40 270h-395v-720h807c91 0 121 32 127 117l16 254l20 -2l-25 -380c0 -7 -7 -9 -10 -9h-1150v15h40c137 0 150 27 150 56v1384c0 31 -18 50 -150 50h-40v15z" />
    <glyph glyph-name="Igrave" unicode="&#xcc;" horiz-adv-x="500" 
d="M356 1640l-14 -14l-293 268c-6 6 -1 14 2 17s11 6 17 0zM450 0h-400v15h40c137 0 150 26 150 55v1383c0 31 -18 52 -150 52h-40v15h400v-15h-35c-132 0 -150 -21 -150 -52v-1383c0 -29 13 -55 150 -55h35v-15z" />
    <glyph glyph-name="Iacute" unicode="&#xcd;" horiz-adv-x="500" 
d="M150 1640l288 271c6 6 14 3 17 0s8 -11 2 -17l-293 -268zM450 0h-400v15h40c137 0 150 26 150 55v1383c0 31 -18 52 -150 52h-40v15h400v-15h-35c-132 0 -150 -21 -150 -52v-1383c0 -29 13 -55 150 -55h35v-15z" />
    <glyph glyph-name="Icircumflex" unicode="&#xce;" horiz-adv-x="500" 
d="M-57 1610l-14 15l313 275h22l313 -275l-14 -15l-307 270h-6zM450 0h-400v15h40c137 0 150 26 150 55v1383c0 31 -18 52 -150 52h-40v15h400v-15h-35c-132 0 -150 -21 -150 -52v-1383c0 -29 13 -55 150 -55h35v-15z" />
    <glyph glyph-name="Idieresis" unicode="&#xcf;" horiz-adv-x="500" 
d="M-17 1740c0 21 18 40 40 40c21 0 40 -18 40 -40c0 -21 -18 -40 -40 -40c-21 0 -40 18 -40 40zM437 1740c0 21 18 40 40 40c21 0 40 -18 40 -40c0 -21 -18 -40 -40 -40c-21 0 -40 18 -40 40zM450 0h-400v15h40c137 0 150 26 150 55v1383c0 31 -18 52 -150 52h-40v15h400
v-15h-35c-132 0 -150 -21 -150 -52v-1383c0 -29 13 -55 150 -55h35v-15z" />
    <glyph glyph-name="Eth" unicode="&#xd0;" horiz-adv-x="1460" 
d="M306 1500v-730h336l-4 -20h-333v-730h355c412 0 710 311 710 740s-298 740 -710 740h-354zM90 1520h575c423 0 730 -319 730 -760s-307 -760 -730 -760h-575v15h40c137 0 150 27 150 56v679h-202l4 20h198v685c0 31 -18 50 -150 50h-40v15z" />
    <glyph glyph-name="Ntilde" unicode="&#xd1;" horiz-adv-x="1430" 
d="M1017 1848c9 -2 8 -10 8 -12c-13 -72 -61 -106 -113 -106c-127 0 -184 108 -294 108c-45 0 -82 -27 -93 -87c-2 -9 -10 -9 -12 -9s-10 3 -8 12c12 68 57 106 113 106c124 0 182 -108 294 -108c42 0 82 24 93 88c0 2 3 10 12 8zM50 1520h229c4 0 7 -3 8 -5l890 -1427
c7 -12 15 -18 21 -18c7 0 12 9 12 26v1354c0 31 -18 55 -150 55h-40v15h380v-15h-20c-132 0 -150 -24 -150 -55v-1450h-21c-3 0 -7 1 -9 5l-933 1495h-9c9 -36 12 -55 12 -111v-1319c0 -29 13 -55 150 -55h35v-15h-395v15h40c137 0 150 26 150 55v1320
c0 106 -68 115 -188 115h-12v15z" />
    <glyph glyph-name="Ograve" unicode="&#xd2;" horiz-adv-x="1410" 
d="M808 1640l-14 -14l-293 268c-6 6 -1 14 2 17s11 6 17 0zM705 -5c-371 0 -640 321 -640 765s269 765 640 765s640 -321 640 -765s-269 -765 -640 -765zM705 15c357 0 615 313 615 745s-258 745 -615 745s-615 -313 -615 -745s258 -745 615 -745z" />
    <glyph glyph-name="Oacute" unicode="&#xd3;" horiz-adv-x="1410" 
d="M602 1640l288 271c6 6 14 3 17 0s8 -11 2 -17l-293 -268zM705 -5c-371 0 -640 321 -640 765s269 765 640 765s640 -321 640 -765s-269 -765 -640 -765zM705 15c357 0 615 313 615 745s-258 745 -615 745s-615 -313 -615 -745s258 -745 615 -745z" />
    <glyph glyph-name="Ocircumflex" unicode="&#xd4;" horiz-adv-x="1410" 
d="M395 1610l-14 15l313 275h22l313 -275l-14 -15l-307 270h-6zM705 -5c-371 0 -640 321 -640 765s269 765 640 765s640 -321 640 -765s-269 -765 -640 -765zM705 15c357 0 615 313 615 745s-258 745 -615 745s-615 -313 -615 -745s258 -745 615 -745z" />
    <glyph glyph-name="Otilde" unicode="&#xd5;" horiz-adv-x="1410" 
d="M957 1848c9 -2 8 -10 8 -12c-13 -72 -61 -106 -113 -106c-127 0 -184 108 -294 108c-45 0 -82 -27 -93 -87c-2 -9 -10 -9 -12 -9s-10 3 -8 12c12 68 57 106 113 106c124 0 182 -108 294 -108c42 0 82 24 93 88c0 2 3 10 12 8zM705 -5c-371 0 -640 321 -640 765
s269 765 640 765s640 -321 640 -765s-269 -765 -640 -765zM705 15c357 0 615 313 615 745s-258 745 -615 745s-615 -313 -615 -745s258 -745 615 -745z" />
    <glyph glyph-name="Odieresis" unicode="&#xd6;" horiz-adv-x="1410" 
d="M425 1740c0 21 18 40 40 40c21 0 40 -18 40 -40c0 -21 -18 -40 -40 -40c-21 0 -40 18 -40 40zM905 1740c0 21 18 40 40 40c21 0 40 -18 40 -40c0 -21 -18 -40 -40 -40c-21 0 -40 18 -40 40zM705 -5c-371 0 -640 321 -640 765s269 765 640 765s640 -321 640 -765
s-269 -765 -640 -765zM705 15c357 0 615 313 615 745s-258 745 -615 745s-615 -313 -615 -745s258 -745 615 -745z" />
    <glyph glyph-name="multiply" unicode="&#xd7;" horiz-adv-x="720" 
d="M606 980l14 -14l-245 -246l246 -246l-15 -15l-246 246l-246 -246l-15 15l246 246l-246 246l15 15l246 -246z" />
    <glyph glyph-name="Oslash" unicode="&#xd8;" horiz-adv-x="1410" 
d="M705 1525c168 0 315 -66 426 -180l151 201l16 -12l-153 -204c125 -137 200 -336 200 -570c0 -444 -269 -765 -640 -765c-168 0 -315 66 -426 180l-151 -201l-16 12l153 204c-125 137 -200 336 -200 570c0 444 269 765 640 765zM705 15c357 0 615 313 615 745
c0 226 -71 419 -189 552l-839 -1119c107 -113 250 -178 413 -178zM705 1505c-357 0 -615 -313 -615 -745c0 -226 71 -419 189 -552l839 1119c-107 113 -250 178 -413 178z" />
    <glyph glyph-name="Ugrave" unicode="&#xd9;" 
d="M818 1640l-14 -14l-293 268c-6 6 -1 14 2 17s11 6 17 0zM30 1520h440v-15h-75c-137 0 -150 -26 -150 -55v-965c0 -271 186 -470 455 -470c277 0 480 195 480 470v965c0 29 -13 55 -150 55h-75v15h415v-15h-20c-137 0 -150 -26 -150 -55v-965c0 -286 -213 -490 -500 -490
c-280 0 -480 208 -480 490v965c0 29 -13 55 -150 55h-40v15z" />
    <glyph glyph-name="Uacute" unicode="&#xda;" 
d="M612 1640l288 271c6 6 14 3 17 0s8 -11 2 -17l-293 -268zM30 1520h440v-15h-75c-137 0 -150 -26 -150 -55v-965c0 -271 186 -470 455 -470c277 0 480 195 480 470v965c0 29 -13 55 -150 55h-75v15h415v-15h-20c-137 0 -150 -26 -150 -55v-965c0 -286 -213 -490 -500 -490
c-280 0 -480 208 -480 490v965c0 29 -13 55 -150 55h-40v15z" />
    <glyph glyph-name="Ucircumflex" unicode="&#xdb;" 
d="M405 1610l-14 15l313 275h22l313 -275l-14 -15l-307 270h-6zM30 1520h440v-15h-75c-137 0 -150 -26 -150 -55v-965c0 -271 186 -470 455 -470c277 0 480 195 480 470v965c0 29 -13 55 -150 55h-75v15h415v-15h-20c-137 0 -150 -26 -150 -55v-965
c0 -286 -213 -490 -500 -490c-280 0 -480 208 -480 490v965c0 29 -13 55 -150 55h-40v15z" />
    <glyph glyph-name="Udieresis" unicode="&#xdc;" 
d="M435 1740c0 21 18 40 40 40c21 0 40 -18 40 -40c0 -21 -18 -40 -40 -40c-21 0 -40 18 -40 40zM915 1740c0 21 18 40 40 40c21 0 40 -18 40 -40c0 -21 -18 -40 -40 -40c-21 0 -40 18 -40 40zM30 1520h440v-15h-75c-137 0 -150 -26 -150 -55v-965c0 -271 186 -470 455 -470
c277 0 480 195 480 470v965c0 29 -13 55 -150 55h-75v15h415v-15h-20c-137 0 -150 -26 -150 -55v-965c0 -286 -213 -490 -500 -490c-280 0 -480 208 -480 490v965c0 29 -13 55 -150 55h-40v15z" />
    <glyph glyph-name="Yacute" unicode="&#xdd;" horiz-adv-x="1320" 
d="M555 1640l288 271c6 6 14 3 17 0s8 -11 2 -17l-293 -268zM10 1520h404v-15h-142c-63 0 -99 -5 -99 -33c0 -9 4 -21 11 -35l474 -867l474 867c7 14 11 26 11 35c0 28 -36 33 -99 33h-142v15h408v-15h-36c-34 0 -83 -2 -124 -78l-480 -877v-480c0 -29 13 -55 150 -55h35
v-15h-400v15h40c137 0 150 26 150 55v472l-4 8l-480 877c-41 76 -90 78 -124 78h-27v15z" />
    <glyph glyph-name="Thorn" unicode="&#xde;" horiz-adv-x="1215" 
d="M265 1450v-70h355c424 0 530 -279 530 -480c0 -205 -110 -480 -530 -480h-355v-350c0 -29 13 -55 150 -55h35v-15h-400v15h40c137 0 150 26 150 55v1380c0 29 -13 55 -150 55h-40v15h400v-15h-35c-137 0 -150 -26 -150 -55zM265 440h352c408 0 508 263 508 460
c0 193 -96 460 -508 460h-352v-920z" />
    <glyph glyph-name="germandbls" unicode="&#xdf;" horiz-adv-x="1180" 
d="M100 1000v20h140v115c0 234 130 390 326 390c198 0 305 -91 305 -260c0 -285 -341 -290 -341 -464c0 -249 600 -165 600 -557c0 -149 -122 -249 -335 -249c-94 0 -179 25 -287 117c-26 24 -49 46 -63 46c-13 0 -19 -17 -21 -64l-4 -94h-15l12 330h15v-11
c0 -79 36 -146 93 -193c103 -84 179 -111 270 -111c198 0 310 92 310 229c0 367 -595 275 -595 557c0 192 336 192 336 464c0 156 -98 240 -280 240c-184 0 -306 -148 -306 -370v-1070c0 -38 1 -45 10 -50v-15h-200v15h20c137 0 150 21 150 50v935h-140z" />
    <glyph glyph-name="agrave" unicode="&#xe0;" horiz-adv-x="1110" 
d="M623 1240l-14 -14l-293 268c-6 6 -1 14 2 17s11 6 17 0zM875 646c-67 -111 -309 -115 -419 -126c-202 -21 -366 -85 -366 -260c0 -142 153 -245 365 -245c237 0 420 218 420 430v201zM571 1045c191 0 329 -136 329 -324v-486l16 -95c14 -84 33 -119 61 -120l107 10l2 -20
l-109 -15h-1c-49 0 -72 60 -85 141c-5 31 -16 90 -16 98v22c0 18 -3 27 -7 27s-9 -7 -15 -21c-69 -148 -218 -267 -398 -267c-226 0 -390 111 -390 265c0 192 185 259 389 280c124 13 379 22 416 143c3 11 5 22 5 32v6c-1 175 -124 304 -301 304c-200 0 -362 -89 -362 -199
c0 -13 -8 -21 -21 -21s-21 8 -21 21c0 121 180 219 401 219z" />
    <glyph glyph-name="aacute" unicode="&#xe1;" horiz-adv-x="1110" 
d="M417 1240l288 271c6 6 14 3 17 0s8 -11 2 -17l-293 -268zM875 646c-67 -111 -309 -115 -419 -126c-202 -21 -366 -85 -366 -260c0 -142 153 -245 365 -245c237 0 420 218 420 430v201zM571 1045c191 0 329 -136 329 -324v-486l16 -95c14 -84 33 -119 61 -120l107 10
l2 -20l-109 -15h-1c-49 0 -72 60 -85 141c-5 31 -16 90 -16 98v22c0 18 -3 27 -7 27s-9 -7 -15 -21c-69 -148 -218 -267 -398 -267c-226 0 -390 111 -390 265c0 192 185 259 389 280c124 13 379 22 416 143c3 11 5 22 5 32v6c-1 175 -124 304 -301 304
c-200 0 -362 -89 -362 -199c0 -13 -8 -21 -21 -21s-21 8 -21 21c0 121 180 219 401 219z" />
    <glyph glyph-name="acircumflex" unicode="&#xe2;" horiz-adv-x="1110" 
d="M210 1210l-14 15l313 275h22l313 -275l-14 -15l-307 270h-6zM875 646c-67 -111 -309 -115 -419 -126c-202 -21 -366 -85 -366 -260c0 -142 153 -245 365 -245c237 0 420 218 420 430v201zM571 1045c191 0 329 -136 329 -324v-486l16 -95c14 -84 33 -119 61 -120l107 10
l2 -20l-109 -15h-1c-49 0 -72 60 -85 141c-5 31 -16 90 -16 98v22c0 18 -3 27 -7 27s-9 -7 -15 -21c-69 -148 -218 -267 -398 -267c-226 0 -390 111 -390 265c0 192 185 259 389 280c124 13 379 22 416 143c3 11 5 22 5 32v6c-1 175 -124 304 -301 304
c-200 0 -362 -89 -362 -199c0 -13 -8 -21 -21 -21s-21 8 -21 21c0 121 180 219 401 219z" />
    <glyph glyph-name="atilde" unicode="&#xe3;" horiz-adv-x="1110" 
d="M772 1448c9 -2 8 -10 8 -12c-13 -72 -61 -106 -113 -106c-127 0 -184 108 -294 108c-45 0 -82 -27 -93 -87c-2 -9 -10 -9 -12 -9s-10 3 -8 12c12 68 57 106 113 106c124 0 182 -108 294 -108c42 0 82 24 93 88c0 2 3 10 12 8zM875 646c-67 -111 -309 -115 -419 -126
c-202 -21 -366 -85 -366 -260c0 -142 153 -245 365 -245c237 0 420 218 420 430v201zM571 1045c191 0 329 -136 329 -324v-486l16 -95c14 -84 33 -119 61 -120l107 10l2 -20l-109 -15h-1c-49 0 -72 60 -85 141c-5 31 -16 90 -16 98v22c0 18 -3 27 -7 27s-9 -7 -15 -21
c-69 -148 -218 -267 -398 -267c-226 0 -390 111 -390 265c0 192 185 259 389 280c124 13 379 22 416 143c3 11 5 22 5 32v6c-1 175 -124 304 -301 304c-200 0 -362 -89 -362 -199c0 -13 -8 -21 -21 -21s-21 8 -21 21c0 121 180 219 401 219z" />
    <glyph glyph-name="adieresis" unicode="&#xe4;" horiz-adv-x="1110" 
d="M240 1340c0 21 18 40 40 40c21 0 40 -18 40 -40c0 -21 -18 -40 -40 -40c-21 0 -40 18 -40 40zM720 1340c0 21 18 40 40 40c21 0 40 -18 40 -40c0 -21 -18 -40 -40 -40c-21 0 -40 18 -40 40zM875 646c-67 -111 -309 -115 -419 -126c-202 -21 -366 -85 -366 -260
c0 -142 153 -245 365 -245c237 0 420 218 420 430v201zM571 1045c191 0 329 -136 329 -324v-486l16 -95c14 -84 33 -119 61 -120l107 10l2 -20l-109 -15h-1c-49 0 -72 60 -85 141c-5 31 -16 90 -16 98v22c0 18 -3 27 -7 27s-9 -7 -15 -21c-69 -148 -218 -267 -398 -267
c-226 0 -390 111 -390 265c0 192 185 259 389 280c124 13 379 22 416 143c3 11 5 22 5 32v6c-1 175 -124 304 -301 304c-200 0 -362 -89 -362 -199c0 -13 -8 -21 -21 -21s-21 8 -21 21c0 121 180 219 401 219z" />
    <glyph glyph-name="aring" unicode="&#xe5;" horiz-adv-x="1110" 
d="M571 1465c84 0 150 -61 150 -150c0 -84 -61 -150 -150 -150c-84 0 -150 61 -150 150c0 84 61 150 150 150zM571 1445c-78 0 -130 -56 -130 -130c0 -78 56 -130 130 -130c78 0 130 56 130 130c0 78 -56 130 -130 130zM875 646c-67 -111 -309 -115 -419 -126
c-202 -21 -366 -85 -366 -260c0 -142 153 -245 365 -245c237 0 420 218 420 430v201zM571 1045c191 0 329 -136 329 -324v-486l16 -95c14 -84 33 -119 61 -120l107 10l2 -20l-109 -15h-1c-49 0 -72 60 -85 141c-5 31 -16 90 -16 98v22c0 18 -3 27 -7 27s-9 -7 -15 -21
c-69 -148 -218 -267 -398 -267c-226 0 -390 111 -390 265c0 192 185 259 389 280c124 13 379 22 416 143c3 11 5 22 5 32v6c-1 175 -124 304 -301 304c-200 0 -362 -89 -362 -199c0 -13 -8 -21 -21 -21s-21 8 -21 21c0 121 180 219 401 219z" />
    <glyph glyph-name="ae" unicode="&#xe6;" horiz-adv-x="1900" 
d="M901 550h858c35 0 45 35 45 68c0 11 -1 21 -3 30c-39 223 -198 377 -436 377c-261 0 -451 -195 -464 -475zM900 530v-10c0 -292 187 -505 455 -505c226 0 364 98 439 231l18 -10c-78 -139 -225 -241 -457 -241c-231 0 -407 152 -462 373c-4 -13 -18 -59 -40 -106
c-68 -148 -218 -267 -398 -267c-226 0 -390 111 -390 265c0 192 185 259 389 280c122 13 257 7 421 10v171c-1 175 -124 304 -301 304c-200 0 -362 -89 -362 -199c0 -13 -8 -21 -21 -21s-21 8 -21 21c0 121 180 219 401 219c191 0 329 -136 329 -324v-25
c63 210 240 349 465 349c286 0 470 -215 470 -505c0 -7 -6 -10 -10 -10h-925zM875 530c-166 -4 -358 -4 -419 -10c-202 -21 -366 -85 -366 -260c0 -142 153 -245 365 -245c237 0 420 218 420 430v75v10z" />
    <glyph glyph-name="ccedilla" unicode="&#xe7;" horiz-adv-x="1010" 
d="M65 518c0 306 207 527 490 527c212 0 380 -115 380 -200c0 -13 -8 -21 -21 -21s-21 8 -21 21c0 96 -171 180 -341 180c-269 0 -462 -211 -462 -507c0 -294 200 -503 485 -503c128 0 264 43 367 130l13 -15c-107 -91 -248 -135 -380 -135c-11 0 -21 0 -32 1l-33 -132
c27 8 49 16 85 16c94 0 173 -77 173 -176c0 -85 -80 -156 -180 -156c-68 0 -133 32 -165 86c-1 2 -4 9 3 13s13 -1 14 -3c28 -46 85 -76 148 -76c92 0 160 64 160 136c0 88 -71 156 -153 156c-43 0 -65 -10 -96 -20c-7 -2 -11 2 -12 6c-1 3 0 5 0 6l35 145
c-268 25 -457 235 -457 521z" />
    <glyph glyph-name="egrave" unicode="&#xe8;" horiz-adv-x="1090" 
d="M678 1240l-14 -14l-293 268c-6 6 -1 14 2 17s11 6 17 0zM949 550c35 0 45 35 45 68c0 11 -1 21 -3 30c-39 223 -198 377 -436 377c-252 0 -452 -186 -464 -475h858zM90 530v-10c0 -292 187 -505 455 -505c226 0 364 98 439 231l18 -10c-78 -139 -225 -241 -457 -241
c-281 0 -480 224 -480 525v21c9 295 214 504 490 504c286 0 470 -215 470 -505c0 -7 -6 -10 -10 -10h-925z" />
    <glyph glyph-name="eacute" unicode="&#xe9;" horiz-adv-x="1090" 
d="M472 1240l288 271c6 6 14 3 17 0s8 -11 2 -17l-293 -268zM949 550c35 0 45 35 45 68c0 11 -1 21 -3 30c-39 223 -198 377 -436 377c-252 0 -452 -186 -464 -475h858zM90 530v-10c0 -292 187 -505 455 -505c226 0 364 98 439 231l18 -10c-78 -139 -225 -241 -457 -241
c-281 0 -480 224 -480 525v21c9 295 214 504 490 504c286 0 470 -215 470 -505c0 -7 -6 -10 -10 -10h-925z" />
    <glyph glyph-name="ecircumflex" unicode="&#xea;" horiz-adv-x="1090" 
d="M265 1210l-14 15l313 275h22l313 -275l-14 -15l-307 270h-6zM949 550c35 0 45 35 45 68c0 11 -1 21 -3 30c-39 223 -198 377 -436 377c-252 0 -452 -186 -464 -475h858zM90 530v-10c0 -292 187 -505 455 -505c226 0 364 98 439 231l18 -10c-78 -139 -225 -241 -457 -241
c-281 0 -480 224 -480 525v21c9 295 214 504 490 504c286 0 470 -215 470 -505c0 -7 -6 -10 -10 -10h-925z" />
    <glyph glyph-name="edieresis" unicode="&#xeb;" horiz-adv-x="1090" 
d="M295 1340c0 21 18 40 40 40c21 0 40 -18 40 -40c0 -21 -18 -40 -40 -40c-21 0 -40 18 -40 40zM775 1340c0 21 18 40 40 40c21 0 40 -18 40 -40c0 -21 -18 -40 -40 -40c-21 0 -40 18 -40 40zM949 550c35 0 45 35 45 68c0 11 -1 21 -3 30c-39 223 -198 377 -436 377
c-252 0 -452 -186 -464 -475h858zM90 530v-10c0 -292 187 -505 455 -505c226 0 364 98 439 231l18 -10c-78 -139 -225 -241 -457 -241c-281 0 -480 224 -480 525v21c9 295 214 504 490 504c286 0 470 -215 470 -505c0 -7 -6 -10 -10 -10h-925z" />
    <glyph glyph-name="igrave" unicode="&#xec;" horiz-adv-x="500" 
d="M353 1240l-14 -14l-293 268c-6 6 -1 14 2 17s11 6 17 0zM265 70c0 -29 13 -55 150 -55h35v-15h-400v15h40c137 0 150 26 150 55v905c0 37 -28 50 -105 50h-25v15h25l130 3v-973z" />
    <glyph glyph-name="iacute" unicode="&#xed;" horiz-adv-x="500" 
d="M147 1240l288 271c6 6 14 3 17 0s8 -11 2 -17l-293 -268zM265 70c0 -29 13 -55 150 -55h35v-15h-400v15h40c137 0 150 26 150 55v905c0 37 -28 50 -105 50h-25v15h25l130 3v-973z" />
    <glyph glyph-name="icircumflex" unicode="&#xee;" horiz-adv-x="500" 
d="M-60 1210l-14 15l313 275h22l313 -275l-14 -15l-307 270h-6zM265 70c0 -29 13 -55 150 -55h35v-15h-400v15h40c137 0 150 26 150 55v905c0 37 -28 50 -105 50h-25v15h25l130 3v-973z" />
    <glyph glyph-name="idieresis" unicode="&#xef;" horiz-adv-x="500" 
d="M-10 1340c0 21 18 40 40 40c21 0 40 -18 40 -40c0 -21 -18 -40 -40 -40c-21 0 -40 18 -40 40zM430 1340c0 21 18 40 40 40c21 0 40 -18 40 -40c0 -21 -18 -40 -40 -40c-21 0 -40 18 -40 40zM265 70c0 -29 13 -55 150 -55h35v-15h-400v15h40c137 0 150 26 150 55v905
c0 37 -28 50 -105 50h-25v15h25l130 3v-973z" />
    <glyph glyph-name="eth" unicode="&#xf0;" horiz-adv-x="1120" 
d="M578 1206l-16 14l106 120c-66 35 -138 53 -211 53c-20 0 -39 0 -59 -3c-37 -5 -75 -12 -113 -24l-6 19c40 12 78 19 116 24c21 3 41 4 62 4c78 0 154 -18 225 -56l109 123l16 -14l-106 -120c165 -97 295 -298 334 -597c7 -54 10 -106 10 -156c0 -350 -162 -597 -462 -597
c-272 0 -513 219 -513 530c0 273 189 515 471 515c202 0 399 -132 474 -341c-1 15 -3 30 -5 45c-38 296 -164 492 -323 585zM541 1021c-268 0 -446 -232 -446 -494c0 -299 230 -511 489 -511c284 0 436 238 436 575c0 198 -220 430 -479 430z" />
    <glyph glyph-name="ntilde" unicode="&#xf1;" horiz-adv-x="1290" 
d="M932 1448c9 -2 8 -10 8 -12c-13 -72 -61 -106 -113 -106c-127 0 -184 108 -294 108c-45 0 -82 -27 -93 -87c-2 -9 -10 -9 -12 -9s-10 3 -8 12c12 68 57 106 113 106c124 0 182 -108 294 -108c42 0 82 24 93 88c0 2 3 10 12 8zM110 1040h25l130 3v-352c0 -17 2 -31 7 -31
c4 0 9 7 16 25c79 202 255 360 442 360c214 0 330 -98 330 -280v-695c0 -29 13 -55 150 -55h40v-15h-420v15h55c137 0 150 26 150 55v692c0 169 -103 260 -305 260c-236 0 -465 -270 -465 -560v-392c0 -29 13 -55 150 -55h55v-15h-420v15h40c137 0 150 26 150 55v905
c0 37 -28 50 -105 50h-25v15z" />
    <glyph glyph-name="ograve" unicode="&#xf2;" horiz-adv-x="1110" 
d="M653 1240l-14 -14l-293 268c-6 6 -1 14 2 17s11 6 17 0zM555 1045c284 0 490 -221 490 -525s-206 -525 -490 -525s-490 221 -490 525s206 525 490 525zM555 1025c-270 0 -465 -212 -465 -505s195 -505 465 -505s465 212 465 505s-195 505 -465 505z" />
    <glyph glyph-name="oacute" unicode="&#xf3;" horiz-adv-x="1110" 
d="M447 1240l288 271c6 6 14 3 17 0s8 -11 2 -17l-293 -268zM555 1045c284 0 490 -221 490 -525s-206 -525 -490 -525s-490 221 -490 525s206 525 490 525zM555 1025c-270 0 -465 -212 -465 -505s195 -505 465 -505s465 212 465 505s-195 505 -465 505z" />
    <glyph glyph-name="ocircumflex" unicode="&#xf4;" horiz-adv-x="1110" 
d="M240 1210l-14 15l313 275h22l313 -275l-14 -15l-307 270h-6zM555 1045c284 0 490 -221 490 -525s-206 -525 -490 -525s-490 221 -490 525s206 525 490 525zM555 1025c-270 0 -465 -212 -465 -505s195 -505 465 -505s465 212 465 505s-195 505 -465 505z" />
    <glyph glyph-name="otilde" unicode="&#xf5;" horiz-adv-x="1110" 
d="M802 1448c9 -2 8 -10 8 -12c-13 -72 -61 -106 -113 -106c-127 0 -184 108 -294 108c-45 0 -82 -27 -93 -87c-2 -9 -10 -9 -12 -9s-10 3 -8 12c12 68 57 106 113 106c124 0 182 -108 294 -108c42 0 82 24 93 88c0 2 3 10 12 8zM555 1045c284 0 490 -221 490 -525
s-206 -525 -490 -525s-490 221 -490 525s206 525 490 525zM555 1025c-270 0 -465 -212 -465 -505s195 -505 465 -505s465 212 465 505s-195 505 -465 505z" />
    <glyph glyph-name="odieresis" unicode="&#xf6;" horiz-adv-x="1110" 
d="M270 1340c0 21 18 40 40 40c21 0 40 -18 40 -40c0 -21 -18 -40 -40 -40c-21 0 -40 18 -40 40zM750 1340c0 21 18 40 40 40c21 0 40 -18 40 -40c0 -21 -18 -40 -40 -40c-21 0 -40 18 -40 40zM555 1045c284 0 490 -221 490 -525s-206 -525 -490 -525s-490 221 -490 525
s206 525 490 525zM555 1025c-270 0 -465 -212 -465 -505s195 -505 465 -505s465 212 465 505s-195 505 -465 505z" />
    <glyph glyph-name="divide" unicode="&#xf7;" horiz-adv-x="880" 
d="M800 740h-720v20h720v-20zM400 1055c0 21 18 40 40 40c21 0 40 -18 40 -40c0 -21 -18 -40 -40 -40c-21 0 -40 18 -40 40zM400 455c0 21 18 40 40 40c21 0 40 -18 40 -40c0 -21 -18 -40 -40 -40c-21 0 -40 18 -40 40z" />
    <glyph glyph-name="oslash" unicode="&#xf8;" horiz-adv-x="1110" 
d="M555 1045c124 0 233 -42 317 -115l110 136l16 -12l-111 -138c99 -94 158 -233 158 -396c0 -304 -206 -525 -490 -525c-124 0 -233 42 -317 115l-110 -136l-16 12l111 138c-99 94 -158 233 -158 396c0 304 206 525 490 525zM555 1025c-270 0 -465 -212 -465 -505
c0 -156 55 -289 147 -379l621 771c-80 71 -184 113 -303 113zM555 15c270 0 465 212 465 505c0 156 -55 289 -147 379l-621 -771c80 -71 184 -113 303 -113z" />
    <glyph glyph-name="ugrave" unicode="&#xf9;" horiz-adv-x="1220" 
d="M693 1240l-14 -14l-293 268c-6 6 -1 14 2 17s11 6 17 0zM50 1025v15h25l130 3v-765c0 -169 103 -260 305 -260c236 0 465 270 465 560v397c0 37 -28 50 -105 50h-25v15h25l130 3v-794l9 -100c7 -74 35 -133 65 -134l96 16l4 -20l-97 -16h-2c-52 0 -84 78 -91 152l-9 101
v101c0 17 -2 31 -7 31c-4 0 -9 -7 -16 -25c-79 -202 -255 -360 -442 -360c-214 0 -330 98 -330 280v700c0 37 -28 50 -105 50h-25z" />
    <glyph glyph-name="uacute" unicode="&#xfa;" horiz-adv-x="1220" 
d="M487 1240l288 271c6 6 14 3 17 0s8 -11 2 -17l-293 -268zM50 1025v15h25l130 3v-765c0 -169 103 -260 305 -260c236 0 465 270 465 560v397c0 37 -28 50 -105 50h-25v15h25l130 3v-794l9 -100c7 -74 35 -133 65 -134l96 16l4 -20l-97 -16h-2c-52 0 -84 78 -91 152l-9 101
v101c0 17 -2 31 -7 31c-4 0 -9 -7 -16 -25c-79 -202 -255 -360 -442 -360c-214 0 -330 98 -330 280v700c0 37 -28 50 -105 50h-25z" />
    <glyph glyph-name="ucircumflex" unicode="&#xfb;" horiz-adv-x="1220" 
d="M280 1210l-14 15l313 275h22l313 -275l-14 -15l-307 270h-6zM50 1025v15h25l130 3v-765c0 -169 103 -260 305 -260c236 0 465 270 465 560v397c0 37 -28 50 -105 50h-25v15h25l130 3v-794l9 -100c7 -74 35 -133 65 -134l96 16l4 -20l-97 -16h-2c-52 0 -84 78 -91 152
l-9 101v101c0 17 -2 31 -7 31c-4 0 -9 -7 -16 -25c-79 -202 -255 -360 -442 -360c-214 0 -330 98 -330 280v700c0 37 -28 50 -105 50h-25z" />
    <glyph glyph-name="udieresis" unicode="&#xfc;" horiz-adv-x="1220" 
d="M310 1340c0 21 18 40 40 40c21 0 40 -18 40 -40c0 -21 -18 -40 -40 -40c-21 0 -40 18 -40 40zM790 1340c0 21 18 40 40 40c21 0 40 -18 40 -40c0 -21 -18 -40 -40 -40c-21 0 -40 18 -40 40zM50 1025v15h25l130 3v-765c0 -169 103 -260 305 -260c236 0 465 270 465 560
v397c0 37 -28 50 -105 50h-25v15h25l130 3v-794l9 -100c7 -74 35 -133 65 -134l96 16l4 -20l-97 -16h-2c-52 0 -84 78 -91 152l-9 101v101c0 17 -2 31 -7 31c-4 0 -9 -7 -16 -25c-79 -202 -255 -360 -442 -360c-214 0 -330 98 -330 280v700c0 37 -28 50 -105 50h-25z" />
    <glyph glyph-name="yacute" unicode="&#xfd;" horiz-adv-x="1160" 
d="M742 1040h398v-15h-11c-70 0 -107 -21 -128 -74l-419 -996c-111 -264 -233 -434 -427 -434c-165 0 -275 78 -275 195c0 17 4 34 11 51c4 10 12 15 21 15c4 0 7 0 11 -2c10 -4 16 -13 16 -22c0 -3 -1 -7 -2 -10c-7 -17 -11 -33 -11 -49c0 -95 92 -158 230 -158
c182 0 299 164 407 421l6 13c1 2 1 4 1 7c0 14 -9 41 -15 56l-352 852c-43 104 -59 118 -124 118c-14 0 -29 -2 -47 -8c-2 -1 -5 -2 -7 -2c-12 0 -19 6 -19 19c0 26 49 28 68 28c88 0 107 -37 153 -149l343 -827c9 -21 12 -29 19 -29s10 9 19 30l375 887c5 13 9 23 9 32
c0 32 -43 36 -150 36h-100v15zM497 1240l288 271c6 6 14 3 17 0s8 -11 2 -17l-293 -268z" />
    <glyph glyph-name="thorn" unicode="&#xfe;" horiz-adv-x="1145" 
d="M265 872v-563c54 -175 191 -294 372 -294c242 0 418 212 418 505s-171 505 -408 505c-127 0 -258 -59 -382 -153zM265 -410c0 -29 13 -55 150 -55h75v-15h-440v15h40c137 0 150 26 150 55v1865c0 37 -28 50 -105 50h-25v15h25l130 3v-626c122 90 253 148 382 148
c251 0 433 -221 433 -525s-186 -525 -443 -525c-145 0 -262 74 -335 188c-10 16 -20 28 -27 28c-6 0 -10 -11 -10 -37v-584z" />
    <glyph glyph-name="ydieresis" unicode="&#xff;" horiz-adv-x="1160" 
d="M742 1040h398v-15h-11c-70 0 -107 -21 -128 -74l-419 -996c-111 -264 -233 -434 -427 -434c-165 0 -275 78 -275 195c0 17 4 34 11 51c4 10 12 15 21 15c4 0 7 0 11 -2c10 -4 16 -13 16 -22c0 -3 -1 -7 -2 -10c-7 -17 -11 -33 -11 -49c0 -95 92 -158 230 -158
c182 0 299 164 407 421l6 13c1 2 1 4 1 7c0 14 -9 41 -15 56l-352 852c-43 104 -59 118 -124 118c-14 0 -29 -2 -47 -8c-2 -1 -5 -2 -7 -2c-12 0 -19 6 -19 19c0 26 49 28 68 28c88 0 107 -37 153 -149l343 -827c9 -21 12 -29 19 -29s10 9 19 30l375 887c5 13 9 23 9 32
c0 32 -43 36 -150 36h-100v15zM320 1340c0 21 18 40 40 40c21 0 40 -18 40 -40c0 -21 -18 -40 -40 -40c-21 0 -40 18 -40 40zM800 1340c0 21 18 40 40 40c21 0 40 -18 40 -40c0 -21 -18 -40 -40 -40c-21 0 -40 18 -40 40z" />
    <glyph glyph-name="Amacron" unicode="&#x100;" 
d="M1009 1800h-640v20h640v-20zM327 500h712l-322 900c-18 50 -20 62 -21 67h-23zM20 0v15h5c86 0 115 20 134 74l510 1424c2 5 6 7 9 7h27c7 0 10 -6 10 -10c0 -20 5 -49 25 -104l469 -1308c23 -63 52 -83 131 -83h40v-15h-390v15h100c81 0 106 7 106 34c0 11 -4 26 -11 45
l-139 386h-726l-143 -397c-3 -10 -5 -18 -5 -25c0 -36 44 -43 147 -43h41v-15h-340z" />
    <glyph glyph-name="amacron" unicode="&#x101;" horiz-adv-x="1110" 
d="M840 1400h-640v20h640v-20zM875 646c-67 -111 -309 -115 -419 -126c-202 -21 -366 -85 -366 -260c0 -142 153 -245 365 -245c237 0 420 218 420 430v201zM571 1045c191 0 329 -136 329 -324v-486l16 -95c14 -84 33 -119 61 -120l107 10l2 -20l-109 -15h-1
c-49 0 -72 60 -85 141c-5 31 -16 90 -16 98v22c0 18 -3 27 -7 27s-9 -7 -15 -21c-69 -148 -218 -267 -398 -267c-226 0 -390 111 -390 265c0 192 185 259 389 280c124 13 379 22 416 143c3 11 5 22 5 32v6c-1 175 -124 304 -301 304c-200 0 -362 -89 -362 -199
c0 -13 -8 -21 -21 -21s-21 8 -21 21c0 121 180 219 401 219z" />
    <glyph glyph-name="Abreve" unicode="&#x102;" 
d="M689 1730c105 0 189 37 249 111l17 -12c-42 -53 -119 -119 -266 -119c-151 0 -226 69 -266 119l17 12c64 -78 148 -111 249 -111zM327 500h712l-322 900c-18 50 -20 62 -21 67h-23zM20 0v15h5c86 0 115 20 134 74l510 1424c2 5 6 7 9 7h27c7 0 10 -6 10 -10
c0 -20 5 -49 25 -104l469 -1308c23 -63 52 -83 131 -83h40v-15h-390v15h100c81 0 106 7 106 34c0 11 -4 26 -11 45l-139 386h-726l-143 -397c-3 -10 -5 -18 -5 -25c0 -36 44 -43 147 -43h41v-15h-340z" />
    <glyph glyph-name="abreve" unicode="&#x103;" horiz-adv-x="1110" 
d="M520 1330c105 0 189 37 249 111l17 -12c-42 -53 -119 -119 -266 -119c-151 0 -226 69 -266 119l17 12c64 -78 148 -111 249 -111zM875 646c-67 -111 -309 -115 -419 -126c-202 -21 -366 -85 -366 -260c0 -142 153 -245 365 -245c237 0 420 218 420 430v201zM571 1045
c191 0 329 -136 329 -324v-486l16 -95c14 -84 33 -119 61 -120l107 10l2 -20l-109 -15h-1c-49 0 -72 60 -85 141c-5 31 -16 90 -16 98v22c0 18 -3 27 -7 27s-9 -7 -15 -21c-69 -148 -218 -267 -398 -267c-226 0 -390 111 -390 265c0 192 185 259 389 280
c124 13 379 22 416 143c3 11 5 22 5 32v6c-1 175 -124 304 -301 304c-200 0 -362 -89 -362 -199c0 -13 -8 -21 -21 -21s-21 8 -21 21c0 121 180 219 401 219z" />
    <glyph glyph-name="Aogonek" unicode="&#x104;" 
d="M20 0v15h5c86 0 115 20 134 74l510 1424c2 5 6 7 9 7h27c7 0 10 -6 10 -10c0 -20 5 -49 25 -104l469 -1308c23 -63 52 -83 131 -83h40v-15h-136c-38 0 -65 -7 -91 -24c-69 -46 -128 -116 -128 -218c1 -71 45 -139 139 -139c52 0 112 22 168 86c6 7 13 2 15 1
c1 -1 6 -7 0 -14c-60 -68 -125 -93 -183 -93c-106 0 -163 78 -164 159c0 116 76 194 156 242c27 16 39 29 39 50c0 11 -3 25 -10 44l-139 386h-726l-143 -397c-3 -10 -5 -18 -5 -25c0 -36 44 -43 147 -43h41v-15h-340zM327 500h712l-322 900c-18 50 -20 62 -21 67h-23z" />
    <glyph glyph-name="aogonek" unicode="&#x105;" horiz-adv-x="1130" 
d="M455 15c238 0 420 218 420 430v201c-67 -111 -308 -115 -419 -126c-202 -21 -366 -85 -366 -260c0 -142 153 -245 365 -245zM571 1045c191 0 328 -138 329 -324v-276v-210l16 -95c14 -84 31 -119 59 -120l109 10l2 -20l-11 -2c-100 -16 -303 -69 -303 -249
c1 -71 45 -139 139 -139c52 0 111 22 168 86c6 7 13 2 15 1c1 -1 6 -7 0 -14c-60 -68 -125 -93 -183 -93c-106 0 -163 78 -164 159c0 134 111 204 210 239c-36 14 -54 69 -66 138l-16 96v2v84c-55 -174 -218 -323 -420 -323c-226 0 -390 111 -390 265c0 192 185 259 389 280
c125 13 379 22 416 143c4 11 5 22 5 32v6c-1 175 -123 304 -301 304c-200 0 -362 -89 -362 -199c0 -13 -8 -21 -21 -21s-21 8 -21 21c0 121 180 219 401 219zM875 646z" />
    <glyph glyph-name="Cacute" unicode="&#x106;" horiz-adv-x="1141" 
d="M572 1640l288 271c6 6 14 3 17 0s8 -11 2 -17l-293 -268zM1041 1540h15l14 -380c0 -5 -3 -8 -7 -8c-5 0 -8 3 -8 8c-11 254 -270 345 -380 345c-354 0 -590 -297 -590 -743c0 -438 222 -747 590 -747c177 0 309 77 397 164l14 -14c-91 -89 -228 -170 -411 -170
c-382 0 -610 323 -610 767c0 458 244 763 610 763c80 0 234 -45 326 -162c11 -13 19 -18 26 -18c17 0 19 28 19 35v33z" />
    <glyph glyph-name="cacute" unicode="&#x107;" horiz-adv-x="1010" 
d="M432 1240l288 271c6 6 14 3 17 0s8 -11 2 -17l-293 -268zM65 518c0 306 207 527 490 527c212 0 380 -115 380 -200c0 -13 -8 -21 -21 -21s-21 8 -21 21c0 96 -171 180 -341 180c-269 0 -462 -211 -462 -507c0 -294 200 -503 485 -503c128 0 264 43 367 130l13 -15
c-107 -91 -248 -135 -380 -135c-296 0 -510 218 -510 523z" />
    <glyph glyph-name="Ccircumflex" unicode="&#x108;" horiz-adv-x="1141" 
d="M365 1610l-14 15l313 275h22l313 -275l-14 -15l-307 270h-6zM1041 1540h15l14 -380c0 -5 -3 -8 -7 -8c-5 0 -8 3 -8 8c-11 254 -270 345 -380 345c-354 0 -590 -297 -590 -743c0 -438 222 -747 590 -747c177 0 309 77 397 164l14 -14c-91 -89 -228 -170 -411 -170
c-382 0 -610 323 -610 767c0 458 244 763 610 763c80 0 234 -45 326 -162c11 -13 19 -18 26 -18c17 0 19 28 19 35v33z" />
    <glyph glyph-name="ccircumflex" unicode="&#x109;" horiz-adv-x="1010" 
d="M225 1210l-14 15l313 275h22l313 -275l-14 -15l-307 270h-6zM65 518c0 306 207 527 490 527c212 0 380 -115 380 -200c0 -13 -8 -21 -21 -21s-21 8 -21 21c0 96 -171 180 -341 180c-269 0 -462 -211 -462 -507c0 -294 200 -503 485 -503c128 0 264 43 367 130l13 -15
c-107 -91 -248 -135 -380 -135c-296 0 -510 218 -510 523z" />
    <glyph glyph-name="Cdotaccent" unicode="&#x10a;" horiz-adv-x="1141" 
d="M635 1780c0 21 18 40 40 40c21 0 40 -18 40 -40c0 -21 -18 -40 -40 -40c-21 0 -40 18 -40 40zM1041 1540h15l14 -380c0 -5 -3 -8 -7 -8c-5 0 -8 3 -8 8c-11 254 -270 345 -380 345c-354 0 -590 -297 -590 -743c0 -438 222 -747 590 -747c177 0 309 77 397 164l14 -14
c-91 -89 -228 -170 -411 -170c-382 0 -610 323 -610 767c0 458 244 763 610 763c80 0 234 -45 326 -162c11 -13 19 -18 26 -18c17 0 19 28 19 35v33z" />
    <glyph glyph-name="cdotaccent" unicode="&#x10b;" horiz-adv-x="1010" 
d="M495 1380c0 21 18 40 40 40c21 0 40 -18 40 -40c0 -21 -18 -40 -40 -40c-21 0 -40 18 -40 40zM65 518c0 306 207 527 490 527c212 0 380 -115 380 -200c0 -13 -8 -21 -21 -21s-21 8 -21 21c0 96 -171 180 -341 180c-269 0 -462 -211 -462 -507c0 -294 200 -503 485 -503
c128 0 264 43 367 130l13 -15c-107 -91 -248 -135 -380 -135c-296 0 -510 218 -510 523z" />
    <glyph glyph-name="Ccaron" unicode="&#x10c;" horiz-adv-x="1141" 
d="M365 1910l307 -270h6l307 270l14 -15l-313 -275h-22l-313 275zM1041 1540h15l14 -380c0 -5 -3 -8 -7 -8c-5 0 -8 3 -8 8c-11 254 -270 345 -380 345c-354 0 -590 -297 -590 -743c0 -438 222 -747 590 -747c177 0 309 77 397 164l14 -14c-91 -89 -228 -170 -411 -170
c-382 0 -610 323 -610 767c0 458 244 763 610 763c80 0 234 -45 326 -162c11 -13 19 -18 26 -18c17 0 19 28 19 35v33z" />
    <glyph glyph-name="ccaron" unicode="&#x10d;" horiz-adv-x="1010" 
d="M225 1510l307 -270h6l307 270l14 -15l-313 -275h-22l-313 275zM65 518c0 306 207 527 490 527c212 0 380 -115 380 -200c0 -13 -8 -21 -21 -21s-21 8 -21 21c0 96 -171 180 -341 180c-269 0 -462 -211 -462 -507c0 -294 200 -503 485 -503c128 0 264 43 367 130l13 -15
c-107 -91 -248 -135 -380 -135c-296 0 -510 218 -510 523z" />
    <glyph glyph-name="Dcaron" unicode="&#x10e;" horiz-adv-x="1420" 
d="M50 1520h575c423 0 730 -319 730 -760s-307 -760 -730 -760h-575v15h40c137 0 150 27 150 56v1384c0 31 -18 50 -150 50h-40v15zM266 1500l-1 -1480h355c412 0 710 311 710 740s-298 740 -710 740h-354zM345 1910l307 -270h6l307 270l14 -15l-313 -275h-22l-313 275z" />
    <glyph glyph-name="dcaron" unicode="&#x10f;" horiz-adv-x="1145" 
d="M1088 1483c0 21 18 40 40 40c21 0 40 -18 40 -40c0 -89 -28 -143 -93 -214l-15 13c55 60 83 110 83 164h-1c-4 -2 -9 -3 -14 -3c-21 0 -40 18 -40 40zM880 311v561c-124 95 -255 153 -382 153c-237 0 -408 -212 -408 -505s176 -505 418 -505c181 0 318 121 372 296z
M905 1523v-1274l9 -100c7 -74 35 -135 65 -136l97 18l4 -20l-98 -16h-2c-52 0 -84 78 -91 152l-4 45c-2 17 -5 27 -11 27s-12 -7 -20 -21c-72 -123 -195 -203 -346 -203c-257 0 -443 221 -443 525s182 525 433 525c129 0 261 -58 382 -148v558c0 37 -28 50 -105 50h-45v15
h45z" />
    <glyph glyph-name="Dcroat" unicode="&#x110;" horiz-adv-x="1460" 
d="M306 1500v-730h336l-4 -20h-333v-730h355c412 0 710 311 710 740s-298 740 -710 740h-354zM90 1520h575c423 0 730 -319 730 -760s-307 -760 -730 -760h-575v15h40c137 0 150 27 150 56v679h-202l4 20h198v685c0 31 -18 50 -150 50h-40v15z" />
    <glyph glyph-name="dcroat" unicode="&#x111;" horiz-adv-x="1125" 
d="M1042 1260l-4 -20h-133v-991l9 -100c7 -74 35 -135 65 -136l97 18l4 -20l-98 -16h-2c-52 0 -84 78 -91 152l-4 45c-2 17 -5 27 -11 27s-12 -7 -20 -21c-72 -123 -195 -203 -346 -203c-257 0 -443 221 -443 525s182 525 433 525c129 0 261 -58 382 -148v343h-402l4 20h398
v195c0 37 -28 50 -105 50h-45v15h45l130 3v-263h137zM880 311v561c-124 95 -255 153 -382 153c-237 0 -408 -212 -408 -505s176 -505 418 -505c181 0 318 121 372 296z" />
    <glyph glyph-name="Emacron" unicode="&#x112;" horiz-adv-x="1290" 
d="M50 1520h1070c7 0 10 -6 10 -9l25 -380l-20 -2l-16 254c-6 88 -39 117 -127 117h-726l-1 -740h395c40 0 40 188 40 270v60h20v-680h-20v60c0 88 0 270 -40 270h-395v-720h807c91 0 121 32 127 117l16 254l20 -2l-25 -380c0 -7 -7 -9 -10 -9h-1150v15h40
c137 0 150 27 150 56v1384c0 31 -18 50 -150 50h-40v15zM980 1800h-640v20h640v-20z" />
    <glyph glyph-name="emacron" unicode="&#x113;" horiz-adv-x="1090" 
d="M895 1400h-640v20h640v-20zM949 550c35 0 45 35 45 68c0 11 -1 21 -3 30c-39 223 -198 377 -436 377c-252 0 -452 -186 -464 -475h858zM90 530v-10c0 -292 187 -505 455 -505c226 0 364 98 439 231l18 -10c-78 -139 -225 -241 -457 -241c-281 0 -480 224 -480 525v21
c9 295 214 504 490 504c286 0 470 -215 470 -505c0 -7 -6 -10 -10 -10h-925z" />
    <glyph glyph-name="Ebreve" unicode="&#x114;" horiz-adv-x="1290" 
d="M660 1730c105 0 189 37 249 111l17 -12c-42 -53 -119 -119 -266 -119c-151 0 -226 69 -266 119l17 12c64 -78 148 -111 249 -111zM50 1520h1070c7 0 10 -6 10 -9l25 -380l-20 -2l-16 254c-6 88 -39 117 -127 117h-726l-1 -740h395c40 0 40 188 40 270v60h20v-680h-20v60
c0 88 0 270 -40 270h-395v-720h807c91 0 121 32 127 117l16 254l20 -2l-25 -380c0 -7 -7 -9 -10 -9h-1150v15h40c137 0 150 27 150 56v1384c0 31 -18 50 -150 50h-40v15z" />
    <glyph glyph-name="ebreve" unicode="&#x115;" horiz-adv-x="1090" 
d="M575 1330c105 0 189 37 249 111l17 -12c-42 -53 -119 -119 -266 -119c-151 0 -226 69 -266 119l17 12c64 -78 148 -111 249 -111zM949 550c35 0 45 35 45 68c0 11 -1 21 -3 30c-39 223 -198 377 -436 377c-252 0 -452 -186 -464 -475h858zM90 530v-10
c0 -292 187 -505 455 -505c226 0 364 98 439 231l18 -10c-78 -139 -225 -241 -457 -241c-281 0 -480 224 -480 525v21c9 295 214 504 490 504c286 0 470 -215 470 -505c0 -7 -6 -10 -10 -10h-925z" />
    <glyph glyph-name="Edotaccent" unicode="&#x116;" horiz-adv-x="1290" 
d="M620 1780c0 21 18 40 40 40c21 0 40 -18 40 -40c0 -21 -18 -40 -40 -40c-21 0 -40 18 -40 40zM50 1520h1070c7 0 10 -6 10 -9l25 -380l-20 -2l-16 254c-6 88 -39 117 -127 117h-726l-1 -740h395c40 0 40 188 40 270v60h20v-680h-20v60c0 88 0 270 -40 270h-395v-720h807
c91 0 121 32 127 117l16 254l20 -2l-25 -380c0 -7 -7 -9 -10 -9h-1150v15h40c137 0 150 27 150 56v1384c0 31 -18 50 -150 50h-40v15z" />
    <glyph glyph-name="edotaccent" unicode="&#x117;" horiz-adv-x="1090" 
d="M535 1380c0 21 18 40 40 40c21 0 40 -18 40 -40c0 -21 -18 -40 -40 -40c-21 0 -40 18 -40 40zM949 550c35 0 45 35 45 68c0 11 -1 21 -3 30c-39 223 -198 377 -436 377c-252 0 -452 -186 -464 -475h858zM90 530v-10c0 -292 187 -505 455 -505c226 0 364 98 439 231
l18 -10c-78 -139 -225 -241 -457 -241c-281 0 -480 224 -480 525v21c9 295 214 504 490 504c286 0 470 -215 470 -505c0 -7 -6 -10 -10 -10h-925z" />
    <glyph glyph-name="Eogonek" unicode="&#x118;" horiz-adv-x="1290" 
d="M1215 391l20 -2l-25 -380c0 -7 -7 -9 -10 -9c-50 0 -79 -3 -109 -19c-82 -44 -164 -108 -164 -223c1 -71 45 -139 139 -139c52 0 112 22 168 86c6 7 13 2 15 1c1 -1 6 -7 0 -14c-60 -68 -125 -93 -183 -93c-106 0 -163 78 -164 159c0 124 91 195 178 242h-1030v15h40
c137 0 150 27 150 56v1384c0 31 -18 50 -150 50h-40v15h1070c7 0 10 -6 10 -9l25 -380l-20 -2l-16 254c-6 88 -39 117 -127 117h-726l-1 -740h395c40 0 40 188 40 270v60h20v-680h-20v60c0 88 0 270 -40 270h-395v-720h807c91 0 121 32 127 117z" />
    <glyph glyph-name="eogonek" unicode="&#x119;" horiz-adv-x="1090" 
d="M90 530v-10c0 -292 187 -505 455 -505c226 0 364 98 439 231l18 -10c-34 -60 -81 -114 -142 -155c-79 -66 -268 -145 -268 -324c1 -71 45 -138 139 -138c52 0 112 22 168 86c6 7 14 2 15 1s6 -7 0 -14c-60 -68 -125 -93 -183 -93c-106 0 -163 77 -164 158
c0 129 93 209 176 267c-58 -19 -123 -29 -198 -29c-281 0 -480 224 -480 525v21c9 295 214 504 490 504c286 0 470 -215 470 -505c0 -7 -6 -10 -10 -10h-925zM91 550h858c35 0 45 35 45 68c0 11 -1 21 -3 30c-39 223 -198 377 -436 377c-252 0 -451 -185 -464 -475z" />
    <glyph glyph-name="Ecaron" unicode="&#x11a;" horiz-adv-x="1290" 
d="M350 1910l307 -270h6l307 270l14 -15l-313 -275h-22l-313 275zM50 1520h1070c7 0 10 -6 10 -9l25 -380l-20 -2l-16 254c-6 88 -39 117 -127 117h-726l-1 -740h395c40 0 40 188 40 270v60h20v-680h-20v60c0 88 0 270 -40 270h-395v-720h807c91 0 121 32 127 117l16 254
l20 -2l-25 -380c0 -7 -7 -9 -10 -9h-1150v15h40c137 0 150 27 150 56v1384c0 31 -18 50 -150 50h-40v15z" />
    <glyph glyph-name="ecaron" unicode="&#x11b;" horiz-adv-x="1090" 
d="M265 1510l307 -270h6l307 270l14 -15l-313 -275h-22l-313 275zM949 550c35 0 45 35 45 68c0 11 -1 21 -3 30c-39 223 -198 377 -436 377c-252 0 -452 -186 -464 -475h858zM90 530v-10c0 -292 187 -505 455 -505c226 0 364 98 439 231l18 -10
c-78 -139 -225 -241 -457 -241c-281 0 -480 224 -480 525v21c9 295 214 504 490 504c286 0 470 -215 470 -505c0 -7 -6 -10 -10 -10h-925z" />
    <glyph glyph-name="Gcircumflex" unicode="&#x11c;" horiz-adv-x="1315" 
d="M365 1610l-14 15l313 275h22l313 -275l-14 -15l-307 270h-6zM1041 1540h15l14 -380c0 -5 -3 -8 -7 -8c-5 0 -8 3 -8 8c-11 254 -270 345 -380 345c-351 0 -585 -297 -585 -743c0 -433 229 -747 545 -747c138 0 277 85 377 165c33 27 74 65 93 87v392c0 31 -18 51 -150 51
h-200v20h530v-20h-21c-123 0 -139 -22 -139 -51v-664c0 -3 -3 -10 -10 -10c-4 0 -10 3 -10 10v148c0 33 -2 55 -19 55c-12 0 -30 -10 -61 -33c-103 -82 -247 -170 -390 -170c-331 0 -570 322 -570 767c0 458 244 763 610 763c80 0 234 -45 326 -162c11 -13 19 -18 26 -18
c17 0 19 28 19 35v33z" />
    <glyph glyph-name="gcircumflex" unicode="&#x11d;" horiz-adv-x="1120" 
d="M220 1210l-14 15l313 275h22l313 -275l-14 -15l-307 270h-6zM245 145c-69 -67 -205 -208 -205 -356c0 -138 202 -244 503 -244c347 0 527 85 527 246c0 234 -180 269 -371 278c-158 8 -322 -2 -399 71c-13 12 -21 20 -30 20c-7 0 -14 -5 -25 -15zM530 1025
c-216 0 -375 -116 -375 -345c0 -211 140 -345 375 -345c206 0 355 118 355 345c0 208 -131 345 -355 345zM530 1045c109 0 200 -32 264 -88c8 -7 14 -11 20 -11s10 4 14 14c18 51 55 84 107 85c23 0 98 -1 98 -28c0 -13 -8 -23 -20 -23c-26 0 -46 31 -80 31
c-50 0 -86 -42 -96 -113c48 -61 73 -140 73 -232c0 -239 -166 -365 -380 -365c-72 0 -136 12 -191 35c-32 -31 -61 -64 -61 -107c0 -28 4 -44 13 -61c48 -89 220 -80 409 -89c188 -9 390 -45 390 -302c0 -181 -201 -271 -547 -271c-301 0 -523 109 -523 269
c0 161 144 306 213 372c20 20 25 43 25 74v8c0 49 32 86 62 116c-120 58 -190 172 -190 321c0 242 177 365 400 365z" />
    <glyph glyph-name="Gbreve" unicode="&#x11e;" horiz-adv-x="1315" 
d="M675 1730c105 0 189 37 249 111l17 -12c-42 -53 -119 -119 -266 -119c-151 0 -226 69 -266 119l17 12c64 -78 148 -111 249 -111zM1046 1413l-5 127h15l14 -380c0 -5 -3 -8 -7 -8c-5 0 -8 3 -8 8c-11 254 -270 345 -380 345c-351 0 -585 -297 -585 -743
c0 -433 229 -747 545 -747c138 0 277 85 377 165c33 27 74 65 93 87v392c0 31 -18 51 -150 51h-200v20h530v-20h-21c-123 0 -139 -22 -139 -51v-664c0 -3 -3 -10 -10 -10c-4 0 -10 3 -10 10v148c0 33 -2 55 -19 55c-12 0 -30 -10 -61 -33c-103 -82 -247 -170 -390 -170
c-331 0 -570 322 -570 767c0 458 244 763 610 763c80 0 234 -45 326 -162c11 -13 19 -18 26 -18c17 0 19 28 19 35v33z" />
    <glyph glyph-name="gbreve" unicode="&#x11f;" horiz-adv-x="1120" 
d="M530 1330c105 0 189 37 249 111l17 -12c-42 -53 -119 -119 -266 -119c-151 0 -226 69 -266 119l17 12c64 -78 148 -111 249 -111zM245 145c-69 -67 -205 -208 -205 -356c0 -138 202 -244 503 -244c347 0 527 85 527 246c0 234 -180 269 -371 278c-158 8 -322 -2 -399 71
c-13 12 -21 20 -30 20c-7 0 -14 -5 -25 -15zM530 1025c-216 0 -375 -116 -375 -345c0 -211 140 -345 375 -345c206 0 355 118 355 345c0 208 -131 345 -355 345zM530 1045c109 0 200 -32 264 -88c8 -7 14 -11 20 -11s10 4 14 14c18 51 55 84 107 85c23 0 98 -1 98 -28
c0 -13 -8 -23 -20 -23c-26 0 -46 31 -80 31c-50 0 -86 -42 -96 -113c48 -61 73 -140 73 -232c0 -239 -166 -365 -380 -365c-72 0 -136 12 -191 35c-32 -31 -61 -64 -61 -107c0 -28 4 -44 13 -61c48 -89 220 -80 409 -89c188 -9 390 -45 390 -302c0 -181 -201 -271 -547 -271
c-301 0 -523 109 -523 269c0 161 144 306 213 372c20 20 25 43 25 74v8c0 49 32 86 62 116c-120 58 -190 172 -190 321c0 242 177 365 400 365z" />
    <glyph glyph-name="Gdotaccent" unicode="&#x120;" horiz-adv-x="1315" 
d="M635 1780c0 21 18 40 40 40c21 0 40 -18 40 -40c0 -21 -18 -40 -40 -40c-21 0 -40 18 -40 40zM1046 1413l-5 127h15l14 -380c0 -5 -3 -8 -7 -8c-5 0 -8 3 -8 8c-11 254 -270 345 -380 345c-351 0 -585 -297 -585 -743c0 -433 229 -747 545 -747c138 0 277 85 377 165
c33 27 74 65 93 87v392c0 31 -18 51 -150 51h-200v20h530v-20h-21c-123 0 -139 -22 -139 -51v-664c0 -3 -3 -10 -10 -10c-4 0 -10 3 -10 10v148c0 33 -2 55 -19 55c-12 0 -30 -10 -61 -33c-103 -82 -247 -170 -390 -170c-331 0 -570 322 -570 767c0 458 244 763 610 763
c80 0 234 -45 326 -162c11 -13 19 -18 26 -18c17 0 19 28 19 35v33z" />
    <glyph glyph-name="gdotaccent" unicode="&#x121;" horiz-adv-x="1120" 
d="M490 1380c0 21 18 40 40 40c21 0 40 -18 40 -40c0 -21 -18 -40 -40 -40c-21 0 -40 18 -40 40zM245 145c-69 -67 -205 -208 -205 -356c0 -138 202 -244 503 -244c347 0 527 85 527 246c0 234 -180 269 -371 278c-158 8 -322 -2 -399 71c-13 12 -21 20 -30 20
c-7 0 -14 -5 -25 -15zM530 1025c-216 0 -375 -116 -375 -345c0 -211 140 -345 375 -345c206 0 355 118 355 345c0 208 -131 345 -355 345zM530 1045c109 0 200 -32 264 -88c8 -7 14 -11 20 -11s10 4 14 14c18 51 55 84 107 85c23 0 98 -1 98 -28c0 -13 -8 -23 -20 -23
c-26 0 -46 31 -80 31c-50 0 -86 -42 -96 -113c48 -61 73 -140 73 -232c0 -239 -166 -365 -380 -365c-72 0 -136 12 -191 35c-32 -31 -61 -64 -61 -107c0 -28 4 -44 13 -61c48 -89 220 -80 409 -89c188 -9 390 -45 390 -302c0 -181 -201 -271 -547 -271
c-301 0 -523 109 -523 269c0 161 144 306 213 372c20 20 25 43 25 74v8c0 49 32 86 62 116c-120 58 -190 172 -190 321c0 242 177 365 400 365z" />
    <glyph glyph-name="Gcommaaccent" unicode="&#x122;" horiz-adv-x="1315" 
d="M599 -183c0 21 18 40 40 40c21 0 40 -18 40 -40c0 -89 -28 -143 -93 -214l-15 13c55 60 83 110 83 164h-1c-4 -2 -9 -3 -14 -3c-21 0 -40 18 -40 40zM1046 1413l-5 127h15l14 -380c0 -5 -3 -8 -7 -8c-5 0 -8 3 -8 8c-11 254 -270 345 -380 345
c-351 0 -585 -297 -585 -743c0 -433 229 -747 545 -747c138 0 277 85 377 165c33 27 74 65 93 87v392c0 31 -18 51 -150 51h-200v20h530v-20h-21c-123 0 -139 -22 -139 -51v-664c0 -3 -3 -10 -10 -10c-4 0 -10 3 -10 10v148c0 33 -2 55 -19 55c-12 0 -30 -10 -61 -33
c-103 -82 -247 -170 -390 -170c-331 0 -570 322 -570 767c0 458 244 763 610 763c80 0 234 -45 326 -162c11 -13 19 -18 26 -18c17 0 19 28 19 35v33z" />
    <glyph glyph-name="gcommaaccent" unicode="&#x123;" horiz-adv-x="1120" 
d="M565 1333c0 -21 -18 -40 -40 -40c-21 0 -40 18 -40 40c0 89 28 143 93 214l15 -13c-55 -60 -83 -110 -83 -164h1c4 2 9 3 14 3c21 0 40 -18 40 -40zM245 145c-69 -67 -205 -208 -205 -356c0 -138 202 -244 503 -244c347 0 527 85 527 246c0 234 -180 269 -371 278
c-158 8 -322 -2 -399 71c-13 12 -21 20 -30 20c-7 0 -14 -5 -25 -15zM530 1025c-216 0 -375 -116 -375 -345c0 -211 140 -345 375 -345c206 0 355 118 355 345c0 208 -131 345 -355 345zM530 1045c109 0 200 -32 264 -88c8 -7 14 -11 20 -11s10 4 14 14c18 51 55 84 107 85
c23 0 98 -1 98 -28c0 -13 -8 -23 -20 -23c-26 0 -46 31 -80 31c-50 0 -86 -42 -96 -113c48 -61 73 -140 73 -232c0 -239 -166 -365 -380 -365c-72 0 -136 12 -191 35c-32 -31 -61 -64 -61 -107c0 -28 4 -44 13 -61c48 -89 220 -80 409 -89c188 -9 390 -45 390 -302
c0 -181 -201 -271 -547 -271c-301 0 -523 109 -523 269c0 161 144 306 213 372c20 20 25 43 25 74v8c0 49 32 86 62 116c-120 58 -190 172 -190 321c0 242 177 365 400 365z" />
    <glyph glyph-name="Hcircumflex" unicode="&#x124;" horiz-adv-x="1460" 
d="M420 1610l-14 15l313 275h22l313 -275l-14 -15l-307 270h-6zM50 1520h440v-15h-75c-137 0 -150 -23 -150 -52v-633h930v633c0 29 -13 52 -150 52h-75v15h440v-15h-40c-137 0 -150 -23 -150 -52v-1381c0 -29 13 -57 150 -57h40v-15h-440v15h75c137 0 150 28 150 57v728
h-930v-728c0 -29 13 -57 150 -57h75v-15h-440v15h40c137 0 150 28 150 57v1381c0 29 -13 52 -150 52h-40v15z" />
    <glyph glyph-name="hcircumflex" unicode="&#x125;" horiz-adv-x="1290" 
d="M375 1610l-14 15l313 275h22l313 -275l-14 -15l-307 270h-6zM90 1520h45l130 3v-832c0 -17 2 -31 7 -31c4 0 9 7 16 25c79 202 255 360 442 360c214 0 330 -98 330 -280v-695c0 -29 13 -55 150 -55h40v-15h-420v15h55c137 0 150 26 150 55v692c0 169 -107 260 -305 260
c-232 0 -465 -280 -465 -560v-392c0 -29 13 -55 150 -55h55v-15h-420v15h40c137 0 150 26 150 55v1385c0 37 -28 50 -105 50h-45v15z" />
    <glyph glyph-name="Hbar" unicode="&#x126;" horiz-adv-x="1460" 
d="M50 1520h440v-15h-75c-137 0 -150 -23 -150 -52v-233h930v233c0 29 -13 52 -150 52h-75v15h440v-15h-40c-137 0 -150 -23 -150 -52v-233h142l-4 -20h-138v-1128c0 -29 13 -57 150 -57h40v-15h-440v15h75c137 0 150 28 150 57v728h-930v-728c0 -29 13 -57 150 -57h75v-15
h-440v15h40c137 0 150 28 150 57v1128h-122l4 20h118v233c0 29 -13 52 -150 52h-40v15zM1195 1200h-930v-380h930v380z" />
    <glyph glyph-name="hbar" unicode="&#x127;" horiz-adv-x="1290" 
d="M90 1520h45l130 3v-263h347l-4 -20h-343v-549c0 -17 2 -31 7 -31c4 0 9 7 16 25c79 202 255 360 442 360c214 0 330 -98 330 -280v-695c0 -29 13 -55 150 -55h40v-15h-420v15h55c137 0 150 26 150 55v692c0 169 -107 260 -305 260c-232 0 -465 -280 -465 -560v-392
c0 -29 13 -55 150 -55h55v-15h-420v15h40c137 0 150 26 150 55v1170h-192l4 20h188v195c0 37 -28 50 -105 50h-45v15z" />
    <glyph glyph-name="Itilde" unicode="&#x128;" horiz-adv-x="500" 
d="M505 1848c9 -2 8 -10 8 -12c-13 -72 -61 -106 -113 -106c-127 0 -184 108 -294 108c-45 0 -82 -27 -93 -87c-2 -9 -10 -9 -12 -9s-10 3 -8 12c12 68 57 106 113 106c124 0 182 -108 294 -108c42 0 82 24 93 88c0 2 3 10 12 8zM450 0h-400v15h40c137 0 150 26 150 55v1383
c0 31 -18 52 -150 52h-40v15h400v-15h-35c-132 0 -150 -21 -150 -52v-1383c0 -29 13 -55 150 -55h35v-15z" />
    <glyph glyph-name="itilde" unicode="&#x129;" horiz-adv-x="500" 
d="M502 1448c9 -2 8 -10 8 -12c-13 -72 -61 -106 -113 -106c-127 0 -184 108 -294 108c-45 0 -82 -27 -93 -87c-2 -9 -10 -9 -12 -9s-10 3 -8 12c12 68 57 106 113 106c124 0 182 -108 294 -108c42 0 82 24 93 88c0 2 3 10 12 8zM265 70c0 -29 13 -55 150 -55h35v-15h-400
v15h40c137 0 150 26 150 55v905c0 37 -28 50 -105 50h-25v15h25l130 3v-973z" />
    <glyph glyph-name="Imacron" unicode="&#x12a;" horiz-adv-x="500" 
d="M573 1800h-640v20h640v-20zM450 0h-400v15h40c137 0 150 26 150 55v1383c0 31 -18 52 -150 52h-40v15h400v-15h-35c-132 0 -150 -21 -150 -52v-1383c0 -29 13 -55 150 -55h35v-15z" />
    <glyph glyph-name="imacron" unicode="&#x12b;" horiz-adv-x="500" 
d="M265 70c0 -29 13 -55 150 -55h35v-15h-400v15h40c137 0 150 26 150 55v905c0 37 -28 50 -105 50h-25v15h25l130 3v-973zM490 1400h-480v20h480v-20z" />
    <glyph glyph-name="Ibreve" unicode="&#x12c;" horiz-adv-x="500" 
d="M253 1730c105 0 189 37 249 111l17 -12c-42 -53 -119 -119 -266 -119c-151 0 -226 69 -266 119l17 12c64 -78 148 -111 249 -111zM450 0h-400v15h40c137 0 150 26 150 55v1383c0 31 -18 52 -150 52h-40v15h400v-15h-35c-132 0 -150 -21 -150 -52v-1383
c0 -29 13 -55 150 -55h35v-15z" />
    <glyph glyph-name="ibreve" unicode="&#x12d;" horiz-adv-x="500" 
d="M250 1330c105 0 189 37 249 111l17 -12c-42 -53 -119 -119 -266 -119c-151 0 -226 69 -266 119l17 12c64 -78 148 -111 249 -111zM265 70c0 -29 13 -55 150 -55h35v-15h-400v15h40c137 0 150 26 150 55v905c0 37 -28 50 -105 50h-25v15h25l130 3v-973z" />
    <glyph glyph-name="Iogonek" unicode="&#x12e;" horiz-adv-x="500" 
d="M213 0h-163v15h40c137 0 150 26 150 55v1383c0 31 -18 52 -150 52h-40v15h400v-15h-35c-132 0 -150 -21 -150 -52v-1383c0 -29 13 -55 150 -55h35v-15h-162c-28 0 -53 -10 -66 -20c-66 -53 -125 -122 -125 -222c1 -71 45 -138 139 -138c52 0 112 22 168 86c6 7 14 2 15 1
s6 -7 0 -14c-60 -68 -125 -93 -183 -93c-106 0 -163 77 -164 158c0 111 69 186 141 242z" />
    <glyph glyph-name="iogonek" unicode="&#x12f;" horiz-adv-x="500" 
d="M50 0v15h40c137 0 150 26 150 55v905c0 37 -28 50 -105 50h-25v15h25l130 3v-973c0 -29 13 -55 150 -55h35v-15h-162c-28 0 -53 -10 -66 -20c-66 -53 -125 -122 -125 -222c1 -71 45 -138 139 -138c52 0 112 22 168 86c6 7 14 2 15 1s6 -7 0 -14
c-60 -68 -125 -93 -183 -93c-106 0 -163 77 -164 158c0 111 69 186 141 242h-163zM210 1380c0 21 18 40 40 40c21 0 40 -18 40 -40c0 -21 -18 -40 -40 -40c-21 0 -40 18 -40 40z" />
    <glyph glyph-name="Idotaccent" unicode="&#x130;" horiz-adv-x="500" 
d="M213 1780c0 21 18 40 40 40c21 0 40 -18 40 -40c0 -21 -18 -40 -40 -40c-21 0 -40 18 -40 40zM450 0h-400v15h40c137 0 150 26 150 55v1383c0 31 -18 52 -150 52h-40v15h400v-15h-35c-132 0 -150 -21 -150 -52v-1383c0 -29 13 -55 150 -55h35v-15z" />
    <glyph glyph-name="dotlessi" unicode="&#x131;" horiz-adv-x="500" 
d="M265 70c0 -29 13 -55 150 -55h35v-15h-400v15h40c137 0 150 26 150 55v905c0 37 -28 50 -105 50h-25v15h25l130 3v-973z" />
    <glyph glyph-name="IJ" unicode="&#x132;" horiz-adv-x="1040" 
d="M550 1520h460v-15h-35c-132 0 -150 -19 -150 -50v-1425c0 -296 -161 -510 -384 -510c-35 0 -80 16 -107 37c-6 4 -9 10 -9 16c0 11 11 22 21 22c4 0 10 -2 14 -5c29 -23 63 -37 96 -37c200 0 344 200 344 477v1425c0 31 -18 50 -150 50h-100v15zM450 0h-400v15h40
c137 0 150 26 150 55v1383c0 31 -18 52 -150 52h-40v15h400v-15h-35c-132 0 -150 -21 -150 -52v-1383c0 -29 13 -55 150 -55h35v-15z" />
    <glyph glyph-name="ij" unicode="&#x133;" horiz-adv-x="860" 
d="M675 1380c0 21 18 40 40 40c21 0 40 -18 40 -40c0 -21 -18 -40 -40 -40c-21 0 -40 18 -40 40zM446 -447c122 0 254 88 254 367v1055c0 37 -28 50 -105 50h-45v15h45l130 3v-1123c0 -286 -141 -400 -294 -400c-35 0 -80 16 -107 37c-6 4 -9 10 -9 16c0 11 11 22 21 22
c4 0 10 -2 14 -5c29 -23 63 -37 96 -37zM210 1380c0 21 18 40 40 40c21 0 40 -18 40 -40c0 -21 -18 -40 -40 -40c-21 0 -40 18 -40 40zM265 70c0 -29 13 -55 150 -55h35v-15h-400v15h40c137 0 150 26 150 55v905c0 37 -28 50 -105 50h-25v15h25l130 3v-973z" />
    <glyph glyph-name="Jcircumflex" unicode="&#x134;" horiz-adv-x="540" 
d="M2 1610l-14 15l313 275h22l313 -275l-14 -15l-307 270h-6zM50 1520h460v-15h-35c-132 0 -150 -19 -150 -50v-1425c0 -296 -161 -510 -384 -510c-35 0 -80 16 -107 37c-6 4 -9 10 -9 16c0 11 11 22 21 22c4 0 10 -2 14 -5c29 -23 63 -37 96 -37c200 0 344 200 344 477
v1425c0 31 -18 50 -150 50h-100v15z" />
    <glyph glyph-name="jcircumflex" unicode="&#x135;" horiz-adv-x="380" 
d="M-98 1210l-14 15l313 275h22l313 -275l-14 -15l-307 270h-6zM-34 -447c122 0 254 88 254 367v1055c0 37 -28 50 -105 50h-45v15h45l130 3v-1123c0 -286 -141 -400 -294 -400c-35 0 -80 16 -107 37c-6 4 -9 10 -9 16c0 11 11 22 21 22c4 0 10 -2 14 -5
c29 -23 63 -37 96 -37z" />
    <glyph glyph-name="Kcommaaccent" unicode="&#x136;" horiz-adv-x="1305" 
d="M646 -186c0 21 18 40 40 40c21 0 40 -18 40 -40c0 -89 -28 -143 -93 -214l-15 13c55 60 83 110 83 164h-1c-4 -2 -9 -3 -14 -3c-21 0 -40 18 -40 40zM50 1520h420v-15h-55c-132 0 -150 -22 -150 -53v-652h167c22 0 54 20 68 37l477 603c15 19 23 32 23 42
c0 16 -22 23 -72 23h-110v15h382v-15h-15c-48 0 -133 -3 -192 -77l-504 -638l509 -647c64 -81 116 -127 161 -127c38 0 55 13 84 36c4 3 9 5 13 5c10 0 19 -8 19 -19c0 -6 -3 -12 -9 -16c-27 -21 -60 -37 -95 -37c-74 0 -115 45 -194 146l-482 613c-11 15 -41 36 -63 36
h-167v-710c0 -29 13 -55 150 -55h55v-15h-420v15h40c137 0 150 26 150 55v1382c0 31 -18 53 -150 53h-40v15z" />
    <glyph glyph-name="kcommaaccent" unicode="&#x137;" horiz-adv-x="1118" 
d="M566 -186c0 21 18 40 40 40c21 0 40 -18 40 -40c0 -89 -28 -143 -93 -214l-15 13c55 60 83 110 83 164h-1c-4 -2 -9 -3 -14 -3c-21 0 -40 18 -40 40zM90 1520h45l130 3v-963h167c22 0 54 20 68 37l287 363c17 21 21 33 21 40c0 18 -31 25 -77 25h-103v15h381v-15
c-56 0 -147 -2 -206 -77l-314 -398l320 -407c64 -81 115 -127 160 -127c38 0 57 13 86 36c4 3 10 5 14 5c10 0 19 -8 19 -19c0 -6 -3 -12 -9 -16c-27 -21 -62 -37 -97 -37c-74 0 -115 45 -194 146l-293 373c-11 15 -41 36 -63 36h-167v-470c0 -29 13 -55 150 -55h35v-15
h-400v15h40c137 0 150 26 150 55v1385c0 37 -28 50 -105 50h-45v15z" />
    <glyph glyph-name="kgreenlandic" unicode="&#x138;" horiz-adv-x="1118" 
d="M90 1040h45l130 3v-483h167c22 0 54 20 68 37l287 363c17 21 21 33 21 40c0 15 -31 20 -77 20h-103v20h381v-20c-37 -2 -141 10 -206 -72l-314 -398l320 -407c64 -81 115 -127 160 -127c38 0 57 13 86 36c4 3 10 5 14 5c10 0 19 -8 19 -19c0 -6 -3 -12 -9 -16
c-27 -21 -62 -37 -97 -37c-74 0 -115 45 -194 146l-293 373c-11 15 -41 36 -63 36h-167v-470c0 -29 13 -55 150 -55h35v-15h-400v15h40c137 0 150 26 150 55v905c0 37 -28 50 -105 50h-45v15z" />
    <glyph glyph-name="Lacute" unicode="&#x139;" horiz-adv-x="1290" 
d="M497 1640l288 271c6 6 14 3 17 0s8 -11 2 -17l-293 -268zM50 1520h400v-15h-35c-132 0 -150 -22 -150 -53v-1432h807c91 0 121 32 127 117l16 254l20 -2l-25 -380c0 -7 -7 -9 -10 -9h-1150v15h40c137 0 150 27 150 56v1381c0 31 -18 53 -150 53h-40v15z" />
    <glyph glyph-name="lacute" unicode="&#x13a;" horiz-adv-x="500" 
d="M152 1600l288 271c6 6 14 3 17 0s8 -11 2 -17l-293 -268zM265 70c0 -29 13 -55 150 -55h35v-15h-400v15h40c137 0 150 26 150 55v1385c0 37 -28 50 -105 50h-45v15h45l130 3v-1453z" />
    <glyph glyph-name="Lcommaaccent" unicode="&#x13b;" horiz-adv-x="1290" 
d="M619 -160c0 21 18 40 40 40c21 0 40 -18 40 -40c0 -89 -28 -143 -93 -214l-15 13c55 60 83 110 83 164h-1c-4 -2 -9 -3 -14 -3c-21 0 -40 18 -40 40zM50 1520h400v-15h-35c-132 0 -150 -22 -150 -53v-1432h807c91 0 121 32 127 117l16 254l20 -2l-25 -380
c0 -7 -7 -9 -10 -9h-1150v15h40c137 0 150 27 150 56v1381c0 31 -18 53 -150 53h-40v15z" />
    <glyph glyph-name="lcommaaccent" unicode="&#x13c;" horiz-adv-x="500" 
d="M224 -160c0 21 18 40 40 40c21 0 40 -18 40 -40c0 -89 -28 -143 -93 -214l-15 13c55 60 83 110 83 164h-1c-4 -2 -9 -3 -14 -3c-21 0 -40 18 -40 40zM265 70c0 -29 13 -55 150 -55h35v-15h-400v15h40c137 0 150 26 150 55v1385c0 37 -28 50 -105 50h-45v15h45l130 3
v-1453z" />
    <glyph glyph-name="Lcaron" unicode="&#x13d;" horiz-adv-x="1290" 
d="M1233 1483c0 21 18 40 40 40c21 0 40 -18 40 -40c0 -89 -28 -143 -93 -214l-15 13c55 60 83 110 83 164h-1c-4 -2 -9 -3 -14 -3c-21 0 -40 18 -40 40zM50 1520h400v-15h-35c-132 0 -150 -22 -150 -53v-1432h807c91 0 121 32 127 117l16 254l20 -2l-25 -380
c0 -7 -7 -9 -10 -9h-1150v15h40c137 0 150 27 150 56v1381c0 31 -18 53 -150 53h-40v15z" />
    <glyph glyph-name="lcaron" unicode="&#x13e;" horiz-adv-x="500" 
d="M460 1483c0 21 18 40 40 40c21 0 40 -18 40 -40c0 -89 -28 -143 -93 -214l-15 13c55 60 83 110 83 164h-1c-4 -2 -9 -3 -14 -3c-21 0 -40 18 -40 40zM265 70c0 -29 13 -55 150 -55h35v-15h-400v15h40c137 0 150 26 150 55v1385c0 37 -28 50 -105 50h-45v15h45l130 3
v-1453z" />
    <glyph glyph-name="Ldot" unicode="&#x13f;" horiz-adv-x="1290" 
d="M842 761c0 21 18 40 40 40c21 0 40 -18 40 -40c0 -21 -18 -40 -40 -40c-21 0 -40 18 -40 40zM50 1520h400v-15h-35c-132 0 -150 -22 -150 -53v-1432h807c91 0 121 32 127 117l16 254l20 -2l-25 -380c0 -7 -7 -9 -10 -9h-1150v15h40c137 0 150 27 150 56v1381
c0 31 -18 53 -150 53h-40v15z" />
    <glyph glyph-name="ldot" unicode="&#x140;" horiz-adv-x="600" 
d="M265 70c0 -29 13 -55 150 -55h35v-15h-400v15h40c137 0 150 26 150 55v1385c0 37 -28 50 -105 50h-45v15h45l130 3v-1453zM440 715c0 21 18 40 40 40c21 0 40 -18 40 -40c0 -21 -18 -40 -40 -40c-21 0 -40 18 -40 40z" />
    <glyph glyph-name="Lslash" unicode="&#x141;" horiz-adv-x="1330" 
d="M90 1520h400v-15h-35c-132 0 -150 -22 -150 -53v-685l444 300c7 5 13 -1 14 -3s4 -9 -3 -14l-455 -307v-723h807c91 0 121 32 127 117l16 254l20 -2l-25 -380c0 -7 -7 -9 -10 -9h-1150v15h40c137 0 150 27 150 56v656l-228 -154l-11 16l239 161v702c0 31 -18 53 -150 53
h-40v15z" />
    <glyph glyph-name="lslash" unicode="&#x142;" horiz-adv-x="520" 
d="M285 70c0 -29 13 -55 150 -55h35v-15h-400v15h40c137 0 150 26 150 55v769l-208 -136l-11 16l219 144v592c0 37 -28 50 -105 50h-25v15h25l130 3v-643l224 147c7 5 13 -1 14 -3s4 -9 -3 -14l-235 -154v-786z" />
    <glyph glyph-name="Nacute" unicode="&#x143;" horiz-adv-x="1430" 
d="M662 1640l288 271c6 6 14 3 17 0s8 -11 2 -17l-293 -268zM50 1520h229c4 0 7 -3 8 -5l890 -1427c7 -12 15 -18 21 -18c7 0 12 9 12 26v1354c0 31 -18 55 -150 55h-40v15h380v-15h-20c-132 0 -150 -24 -150 -55v-1450h-21c-3 0 -7 1 -9 5l-933 1495h-9
c9 -36 12 -55 12 -111v-1319c0 -29 13 -55 150 -55h35v-15h-395v15h40c137 0 150 26 150 55v1320c0 106 -68 115 -188 115h-12v15z" />
    <glyph glyph-name="nacute" unicode="&#x144;" horiz-adv-x="1290" 
d="M557 1240l288 271c6 6 14 3 17 0s8 -11 2 -17l-293 -268zM110 1040h25l130 3v-352c0 -17 2 -31 7 -31c4 0 9 7 16 25c79 202 255 360 442 360c214 0 330 -98 330 -280v-695c0 -29 13 -55 150 -55h40v-15h-420v15h55c137 0 150 26 150 55v692c0 169 -103 260 -305 260
c-236 0 -465 -270 -465 -560v-392c0 -29 13 -55 150 -55h55v-15h-420v15h40c137 0 150 26 150 55v905c0 37 -28 50 -105 50h-25v15z" />
    <glyph glyph-name="Ncommaaccent" unicode="&#x145;" horiz-adv-x="1430" 
d="M619 -160c0 21 18 40 40 40c21 0 40 -18 40 -40c0 -89 -28 -143 -93 -214l-15 13c55 60 83 110 83 164h-1c-4 -2 -9 -3 -14 -3c-21 0 -40 18 -40 40zM50 1520h229c4 0 7 -3 8 -5l890 -1427c7 -12 15 -18 21 -18c7 0 12 9 12 26v1354c0 31 -18 55 -150 55h-40v15h380v-15
h-20c-132 0 -150 -24 -150 -55v-1450h-21c-3 0 -7 1 -9 5l-933 1495h-9c9 -36 12 -55 12 -111v-1319c0 -29 13 -55 150 -55h35v-15h-395v15h40c137 0 150 26 150 55v1320c0 106 -68 115 -188 115h-12v15z" />
    <glyph glyph-name="ncommaaccent" unicode="&#x146;" horiz-adv-x="1290" 
d="M624 -160c0 21 18 40 40 40c21 0 40 -18 40 -40c0 -89 -28 -143 -93 -214l-15 13c55 60 83 110 83 164h-1c-4 -2 -9 -3 -14 -3c-21 0 -40 18 -40 40zM110 1040h25l130 3v-352c0 -17 2 -31 7 -31c4 0 9 7 16 25c79 202 255 360 442 360c214 0 330 -98 330 -280v-695
c0 -29 13 -55 150 -55h40v-15h-420v15h55c137 0 150 26 150 55v692c0 169 -103 260 -305 260c-236 0 -465 -270 -465 -560v-392c0 -29 13 -55 150 -55h55v-15h-420v15h40c137 0 150 26 150 55v905c0 37 -28 50 -105 50h-25v15z" />
    <glyph glyph-name="Ncaron" unicode="&#x147;" horiz-adv-x="1430" 
d="M415 1933l307 -270h6l307 270l14 -15l-313 -275h-22l-313 275zM50 1520h229c4 0 7 -3 8 -5l890 -1427c7 -12 15 -18 21 -18c7 0 12 9 12 26v1354c0 31 -18 55 -150 55h-40v15h380v-15h-20c-132 0 -150 -24 -150 -55v-1450h-21c-3 0 -7 1 -9 5l-933 1495h-9
c9 -36 12 -55 12 -111v-1319c0 -29 13 -55 150 -55h35v-15h-395v15h40c137 0 150 26 150 55v1320c0 106 -68 115 -188 115h-12v15z" />
    <glyph glyph-name="ncaron" unicode="&#x148;" horiz-adv-x="1290" 
d="M340 1455l307 -270h6l307 270l14 -15l-313 -275h-22l-313 275zM110 1040h25l130 3v-352c0 -17 2 -31 7 -31c4 0 9 7 16 25c79 202 255 360 442 360c214 0 330 -98 330 -280v-695c0 -29 13 -55 150 -55h40v-15h-420v15h55c137 0 150 26 150 55v692
c0 169 -103 260 -305 260c-236 0 -465 -270 -465 -560v-392c0 -29 13 -55 150 -55h55v-15h-420v15h40c137 0 150 26 150 55v905c0 37 -28 50 -105 50h-25v15z" />
    <glyph glyph-name="napostrophe" unicode="&#x149;" horiz-adv-x="1430" 
d="M250 1040h25l130 3v-352c0 -17 2 -31 7 -31c4 0 9 7 16 25c79 202 255 360 442 360c214 0 330 -98 330 -280v-695c0 -29 13 -55 150 -55h40v-15h-420v15h55c137 0 150 26 150 55v692c0 169 -103 260 -305 260c-236 0 -465 -270 -465 -560v-392c0 -29 13 -55 150 -55h55
v-15h-420v15h40c137 0 150 26 150 55v905c0 37 -28 50 -105 50h-25v15zM120 1316c0 21 18 40 40 40c21 0 40 -18 40 -40c0 -89 -28 -143 -93 -214l-15 13c55 60 83 110 83 164h-1c-4 -2 -9 -3 -14 -3c-21 0 -40 18 -40 40z" />
    <glyph glyph-name="Eng" unicode="&#x14a;" horiz-adv-x="1280" 
d="M1135 360v862c0 182 -135 280 -385 280c-236 0 -485 -268 -485 -558v-874c0 -29 13 -55 150 -55h55v-15h-420v15h40c137 0 150 26 150 55v1385c0 37 -28 50 -105 50h-25v15h25l130 3v-352c0 -17 2 -31 7 -31c4 0 9 7 16 25c79 202 275 360 462 360
c266 0 410 -105 410 -300v-865c0 -286 -141 -400 -294 -400c-35 0 -80 16 -107 37c-6 4 -9 10 -9 16c0 11 11 22 21 22c4 0 10 -2 14 -5c29 -23 63 -37 96 -37c122 0 254 88 254 367z" />
    <glyph glyph-name="eng" unicode="&#x14b;" horiz-adv-x="1190" 
d="M1035 -80v842c0 169 -103 260 -305 260c-236 0 -465 -270 -465 -560v-392c0 -29 13 -55 150 -55h55v-15h-420v15h40c137 0 150 26 150 55v905c0 37 -28 50 -105 50h-25v15h25l130 3v-352c0 -17 2 -31 7 -31c4 0 9 7 16 25c79 202 255 360 442 360c214 0 330 -98 330 -280
v-845c0 -286 -141 -400 -294 -400c-35 0 -80 16 -107 37c-6 4 -9 10 -9 16c0 11 11 22 21 22c4 0 10 -2 14 -5c29 -23 63 -37 96 -37c122 0 254 88 254 367z" />
    <glyph glyph-name="Omacron" unicode="&#x14c;" horiz-adv-x="1410" 
d="M1025 1800h-640v20h640v-20zM705 -5c-371 0 -640 321 -640 765s269 765 640 765s640 -321 640 -765s-269 -765 -640 -765zM705 15c357 0 615 313 615 745s-258 745 -615 745s-615 -313 -615 -745s258 -745 615 -745z" />
    <glyph glyph-name="omacron" unicode="&#x14d;" horiz-adv-x="1110" 
d="M870 1400h-640v20h640v-20zM555 1045c284 0 490 -221 490 -525s-206 -525 -490 -525s-490 221 -490 525s206 525 490 525zM555 1025c-270 0 -465 -212 -465 -505s195 -505 465 -505s465 212 465 505s-195 505 -465 505z" />
    <glyph glyph-name="Obreve" unicode="&#x14e;" horiz-adv-x="1410" 
d="M705 1730c105 0 189 37 249 111l17 -12c-42 -53 -119 -119 -266 -119c-151 0 -226 69 -266 119l17 12c64 -78 148 -111 249 -111zM705 -5c-371 0 -640 321 -640 765s269 765 640 765s640 -321 640 -765s-269 -765 -640 -765zM705 15c357 0 615 313 615 745
s-258 745 -615 745s-615 -313 -615 -745s258 -745 615 -745z" />
    <glyph glyph-name="obreve" unicode="&#x14f;" horiz-adv-x="1110" 
d="M550 1330c105 0 189 37 249 111l17 -12c-42 -53 -119 -119 -266 -119c-151 0 -226 69 -266 119l17 12c64 -78 148 -111 249 -111zM555 1045c284 0 490 -221 490 -525s-206 -525 -490 -525s-490 221 -490 525s206 525 490 525zM555 1025c-270 0 -465 -212 -465 -505
s195 -505 465 -505s465 212 465 505s-195 505 -465 505z" />
    <glyph glyph-name="Ohungarumlaut" unicode="&#x150;" horiz-adv-x="1410" 
d="M387 1640l317 265c7 6 14 2 17 -1s7 -11 0 -17l-321 -262zM784 1640l317 265c7 6 14 2 17 -1s7 -11 0 -17l-321 -262zM705 -5c-371 0 -640 321 -640 765s269 765 640 765s640 -321 640 -765s-269 -765 -640 -765zM705 15c357 0 615 313 615 745s-258 745 -615 745
s-615 -313 -615 -745s258 -745 615 -745z" />
    <glyph glyph-name="ohungarumlaut" unicode="&#x151;" horiz-adv-x="1110" 
d="M232 1240l317 265c7 6 14 2 17 -1s7 -11 0 -17l-321 -262zM629 1240l317 265c7 6 14 2 17 -1s7 -11 0 -17l-321 -262zM555 1045c284 0 490 -221 490 -525s-206 -525 -490 -525s-490 221 -490 525s206 525 490 525zM555 1025c-270 0 -465 -212 -465 -505
s195 -505 465 -505s465 212 465 505s-195 505 -465 505z" />
    <glyph glyph-name="OE" unicode="&#x152;" horiz-adv-x="1950" 
d="M693 -5c-365 0 -628 326 -628 765c0 443 269 763 640 763l1075 -3c7 0 10 -6 10 -9l25 -380l-20 -2l-16 254c-6 88 -39 117 -127 117h-666l-1 -740h335c40 0 40 188 40 270v60h20v-680h-20v60c0 88 0 270 -40 270h-335v-720h747c91 0 121 32 127 117l16 254l20 -2
l-25 -380c0 -7 -7 -9 -10 -9h-898c-90 -2 -179 -5 -269 -5zM705 15h105c137 0 150 27 150 56v1382c0 31 -18 50 -150 50h-105c-357 0 -615 -312 -615 -743c0 -432 258 -745 615 -745z" />
    <glyph glyph-name="oe" unicode="&#x153;" horiz-adv-x="1965" 
d="M1006 550h818c35 0 45 35 45 68c0 11 -1 21 -3 30c-39 223 -178 377 -416 377c-252 0 -430 -184 -444 -475zM535 1025c-270 0 -445 -212 -445 -505s175 -505 445 -505s445 212 445 505s-175 505 -445 505zM992 387c-46 -234 -216 -392 -457 -392
c-284 0 -470 221 -470 525s186 525 470 525c241 0 411 -159 457 -393c47 235 218 393 458 393c286 0 450 -215 450 -505c0 -7 -6 -10 -10 -10h-885v-10c0 -292 167 -505 435 -505c226 0 344 98 419 231l18 -10c-78 -139 -205 -241 -437 -241c-238 0 -403 160 -448 392z" />
    <glyph glyph-name="Racute" unicode="&#x154;" horiz-adv-x="1385" 
d="M532 1640l288 271c6 6 14 3 17 0s8 -11 2 -17l-293 -268zM50 1520h585c331 0 570 -185 570 -440c0 -240 -211 -418 -511 -438c157 -40 226 -149 294 -336c45 -125 103 -287 223 -287c38 0 55 13 84 36c4 3 10 5 14 5c6 0 12 -3 16 -9c3 -4 5 -9 5 -13c0 -6 -3 -12 -9 -16
c-34 -26 -65 -37 -115 -37c-141 0 -194 197 -237 315c-87 241 -169 340 -444 340h-260v-570c0 -29 13 -55 150 -55h35v-15h-400v15h40c137 0 150 26 150 55v1385c0 31 -18 50 -150 50h-40v15zM266 1500l-1 -840h260h107c319 0 548 176 548 420s-229 420 -548 420h-366z" />
    <glyph glyph-name="racute" unicode="&#x155;" horiz-adv-x="830" 
d="M337 1240l288 271c6 6 14 3 17 0s8 -11 2 -17l-293 -268zM782 895c0 -14 -10 -24 -25 -24s-25 10 -25 24c0 77 -32 130 -116 130c-201 0 -351 -220 -351 -470v-485c0 -29 13 -55 150 -55h55v-15h-420v15h40c137 0 150 26 150 55v905c0 37 -28 50 -105 50h-25v15h25l130 3
v-330c48 186 180 332 351 332c93 0 166 -61 166 -150z" />
    <glyph glyph-name="Rcommaaccent" unicode="&#x156;" horiz-adv-x="1385" 
d="M630 -185c0 21 18 40 40 40c21 0 40 -18 40 -40c0 -89 -28 -143 -93 -214l-15 13c55 60 83 110 83 164h-1c-4 -2 -9 -3 -14 -3c-21 0 -40 18 -40 40zM50 1520h585c331 0 570 -185 570 -440c0 -240 -211 -418 -511 -438c157 -40 226 -149 294 -336
c45 -125 103 -287 223 -287c38 0 55 13 84 36c4 3 10 5 14 5c6 0 12 -3 16 -9c3 -4 5 -9 5 -13c0 -6 -3 -12 -9 -16c-34 -26 -65 -37 -115 -37c-141 0 -194 197 -237 315c-87 241 -169 340 -444 340h-260v-570c0 -29 13 -55 150 -55h35v-15h-400v15h40c137 0 150 26 150 55
v1385c0 31 -18 50 -150 50h-40v15zM266 1500l-1 -840h260h107c319 0 548 176 548 420s-229 420 -548 420h-366z" />
    <glyph glyph-name="rcommaaccent" unicode="&#x157;" horiz-adv-x="830" 
d="M234 -160c0 21 18 40 40 40c21 0 40 -18 40 -40c0 -89 -28 -143 -93 -214l-15 13c55 60 83 110 83 164h-1c-4 -2 -9 -3 -14 -3c-21 0 -40 18 -40 40zM782 895c0 -14 -10 -24 -25 -24s-25 10 -25 24c0 77 -32 130 -116 130c-201 0 -351 -220 -351 -470v-485
c0 -29 13 -55 150 -55h55v-15h-420v15h40c137 0 150 26 150 55v905c0 37 -28 50 -105 50h-25v15h25l130 3v-330c48 186 180 332 351 332c93 0 166 -61 166 -150z" />
    <glyph glyph-name="Rcaron" unicode="&#x158;" horiz-adv-x="1385" 
d="M325 1910l307 -270h6l307 270l14 -15l-313 -275h-22l-313 275zM50 1520h585c331 0 570 -185 570 -440c0 -240 -211 -418 -511 -438c157 -40 226 -149 294 -336c45 -125 103 -287 223 -287c38 0 55 13 84 36c4 3 10 5 14 5c6 0 12 -3 16 -9c3 -4 5 -9 5 -13
c0 -6 -3 -12 -9 -16c-34 -26 -65 -37 -115 -37c-141 0 -194 197 -237 315c-87 241 -169 340 -444 340h-260v-570c0 -29 13 -55 150 -55h35v-15h-400v15h40c137 0 150 26 150 55v1385c0 31 -18 50 -150 50h-40v15zM266 1500l-1 -840h260h107c319 0 548 176 548 420
s-229 420 -548 420h-366z" />
    <glyph glyph-name="rcaron" unicode="&#x159;" horiz-adv-x="830" 
d="M106 1455l307 -270h6l307 270l14 -15l-313 -275h-22l-313 275zM782 895c0 -14 -10 -24 -25 -24s-25 10 -25 24c0 77 -32 130 -116 130c-201 0 -351 -220 -351 -470v-485c0 -29 13 -55 150 -55h55v-15h-420v15h40c137 0 150 26 150 55v905c0 37 -28 50 -105 50h-25v15h25
l130 3v-330c48 186 180 332 351 332c93 0 166 -61 166 -150z" />
    <glyph glyph-name="Sacute" unicode="&#x15a;" horiz-adv-x="1146" 
d="M453 1640l288 271c6 6 14 3 17 0s8 -11 2 -17l-293 -268zM556 1503c-225 0 -382 -114 -382 -272c0 -243 269 -325 435 -422c178 -104 477 -205 477 -495c0 -185 -206 -319 -490 -319c-154 0 -325 47 -427 146c-24 26 -44 47 -58 47c-13 0 -20 -17 -21 -64l-5 -144h-15
l13 380h15v-11c0 -221 262 -332 498 -332c273 0 465 124 465 297c0 275 -280 367 -462 473c-159 93 -450 184 -450 444c0 174 177 294 407 294c107 0 251 -38 341 -141c17 -20 30 -29 38 -29c11 0 15 15 15 46c0 5 -1 10 -1 15c0 0 -3 85 -4 124h16l15 -380
c0 -4 -3 -7 -8 -7s-8 3 -8 7l-3 29c-25 238 -247 314 -401 314z" />
    <glyph glyph-name="sacute" unicode="&#x15b;" horiz-adv-x="1010" 
d="M485 1045c87 0 207 -15 314 -101c20 -16 31 -30 39 -30c11 0 15 15 15 46c0 5 -1 24 -3 80h16l11 -300c0 -4 -3 -7 -8 -7s-8 3 -8 7l-1 8c-10 76 -26 142 -73 180c-100 82 -217 97 -302 97c-191 0 -330 -94 -330 -224c0 -249 795 -165 795 -557
c0 -144 -183 -249 -435 -249c-144 0 -239 25 -347 117c-26 24 -49 46 -63 46c-13 0 -19 -17 -21 -64l-4 -94h-15l12 330h15v-11c0 -79 36 -146 93 -193c103 -84 189 -111 330 -111c238 0 410 96 410 229c0 367 -795 275 -795 557c0 142 149 244 355 244zM387 1240l288 271
c6 6 14 3 17 0s8 -11 2 -17l-293 -268z" />
    <glyph glyph-name="Scircumflex" unicode="&#x15c;" horiz-adv-x="1146" 
d="M246 1610l-14 15l313 275h22l313 -275l-14 -15l-307 270h-6zM556 1503c-225 0 -382 -114 -382 -272c0 -243 269 -325 435 -422c178 -104 477 -205 477 -495c0 -185 -206 -319 -490 -319c-154 0 -325 47 -427 146c-24 26 -44 47 -58 47c-13 0 -20 -17 -21 -64l-5 -144h-15
l13 380h15v-11c0 -221 262 -332 498 -332c273 0 465 124 465 297c0 275 -280 367 -462 473c-159 93 -450 184 -450 444c0 174 177 294 407 294c107 0 251 -38 341 -141c17 -20 30 -29 38 -29c11 0 15 15 15 46c0 5 -1 10 -1 15c0 0 -3 85 -4 124h16l15 -380
c0 -4 -3 -7 -8 -7s-8 3 -8 7l-3 29c-25 238 -247 314 -401 314z" />
    <glyph glyph-name="scircumflex" unicode="&#x15d;" horiz-adv-x="1010" 
d="M485 1045c87 0 207 -15 314 -101c20 -16 31 -30 39 -30c11 0 15 15 15 46c0 5 -1 24 -3 80h16l11 -300c0 -4 -3 -7 -8 -7s-8 3 -8 7l-1 8c-10 76 -26 142 -73 180c-100 82 -217 97 -302 97c-191 0 -330 -94 -330 -224c0 -249 795 -165 795 -557
c0 -144 -183 -249 -435 -249c-144 0 -239 25 -347 117c-26 24 -49 46 -63 46c-13 0 -19 -17 -21 -64l-4 -94h-15l12 330h15v-11c0 -79 36 -146 93 -193c103 -84 189 -111 330 -111c238 0 410 96 410 229c0 367 -795 275 -795 557c0 142 149 244 355 244zM180 1210l-14 15
l313 275h22l313 -275l-14 -15l-307 270h-6z" />
    <glyph glyph-name="Scedilla" unicode="&#x15e;" horiz-adv-x="1146" 
d="M556 1503c-225 0 -382 -114 -382 -272c0 -243 269 -325 435 -422c178 -104 477 -205 477 -495c0 -185 -206 -319 -490 -319c-24 0 -49 1 -73 3l-33 -132c27 8 49 16 85 16c94 0 173 -77 173 -176c0 -85 -80 -156 -180 -156c-68 0 -133 32 -165 86c-1 2 -4 9 3 13
s13 -1 14 -3c28 -46 85 -76 148 -76c92 0 160 64 160 136c0 88 -71 156 -153 156c-43 0 -65 -10 -96 -20c-7 -2 -11 2 -12 6c-1 3 0 5 0 6l36 147c-126 15 -252 61 -334 140c-24 26 -44 47 -58 47c-13 0 -20 -17 -21 -64l-5 -144h-15l13 380h15v-11
c0 -221 262 -332 498 -332c273 0 465 124 465 297c0 275 -280 367 -462 473c-159 93 -450 184 -450 444c0 174 177 294 407 294c107 0 251 -38 341 -141c17 -20 30 -29 38 -29c11 0 15 15 15 46c0 5 -1 10 -1 15c0 0 -3 85 -4 124h16l15 -380c0 -4 -3 -7 -8 -7s-8 3 -8 7
l-3 29c-25 238 -247 314 -401 314z" />
    <glyph glyph-name="scedilla" unicode="&#x15f;" horiz-adv-x="1010" 
d="M485 1045c87 0 207 -15 314 -101c20 -16 31 -30 39 -30c11 0 15 15 15 46c0 3 -2 23 -3 80h16l11 -300c0 -4 -3 -7 -8 -7s-8 3 -8 7l-1 8c-10 76 -26 142 -73 180c-100 82 -217 97 -302 97c-191 0 -330 -94 -330 -224c0 -249 795 -165 795 -557
c0 -143 -180 -247 -428 -249l-32 -129c27 8 49 16 85 16c94 0 173 -77 173 -176c0 -85 -80 -156 -180 -156c-68 0 -133 32 -165 86c-1 2 -4 9 3 13s13 -1 14 -3c28 -46 85 -76 148 -76c92 0 160 64 160 136c0 88 -71 156 -153 156c-43 0 -65 -10 -96 -20c-7 -2 -11 2 -12 6
c-1 3 0 5 0 6l34 141c-136 2 -228 28 -333 117c-26 24 -49 46 -63 46c-13 0 -19 -17 -21 -64l-4 -94h-15l12 330h15v-11c0 -79 36 -146 93 -193c103 -84 189 -111 330 -111c238 0 410 96 410 229c0 367 -795 275 -795 557c0 142 149 244 355 244z" />
    <glyph glyph-name="Scaron" unicode="&#x160;" horiz-adv-x="1146" 
d="M246 1910l307 -270h6l307 270l14 -15l-313 -275h-22l-313 275zM556 1503c-225 0 -382 -114 -382 -272c0 -243 269 -325 435 -422c178 -104 477 -205 477 -495c0 -185 -206 -319 -490 -319c-154 0 -325 47 -427 146c-24 26 -44 47 -58 47c-13 0 -20 -17 -21 -64l-5 -144
h-15l13 380h15v-11c0 -221 262 -332 498 -332c273 0 465 124 465 297c0 275 -280 367 -462 473c-159 93 -450 184 -450 444c0 174 177 294 407 294c107 0 251 -38 341 -141c17 -20 30 -29 38 -29c11 0 15 15 15 46c0 5 -1 10 -1 15c0 0 -3 85 -4 124h16l15 -380
c0 -4 -3 -7 -8 -7s-8 3 -8 7l-3 29c-25 238 -247 314 -401 314z" />
    <glyph glyph-name="scaron" unicode="&#x161;" horiz-adv-x="1010" 
d="M485 1045c87 0 207 -15 314 -101c20 -16 31 -30 39 -30c11 0 15 15 15 46c0 5 -1 24 -3 80h16l11 -300c0 -4 -3 -7 -8 -7s-8 3 -8 7l-1 8c-10 76 -26 142 -73 180c-100 82 -217 97 -302 97c-191 0 -330 -94 -330 -224c0 -249 795 -165 795 -557
c0 -144 -183 -249 -435 -249c-144 0 -239 25 -347 117c-26 24 -49 46 -63 46c-13 0 -19 -17 -21 -64l-4 -94h-15l12 330h15v-11c0 -79 36 -146 93 -193c103 -84 189 -111 330 -111c238 0 410 96 410 229c0 367 -795 275 -795 557c0 142 149 244 355 244zM180 1510l307 -270
h6l307 270l14 -15l-313 -275h-22l-313 275z" />
    <glyph glyph-name="Tcommaaccent" unicode="&#x162;" horiz-adv-x="1310" 
d="M670 1500v-1430c0 -29 13 -55 150 -55h35v-15h-213l-32 -129c27 8 49 16 85 16c94 0 173 -77 173 -176c0 -85 -80 -156 -180 -156c-68 0 -133 32 -165 86c-1 2 -4 9 3 13s13 -1 14 -3c28 -46 85 -76 148 -76c92 0 160 64 160 136c0 88 -71 156 -153 156
c-43 0 -65 -10 -96 -20c-7 -2 -11 2 -12 6c-1 3 0 5 0 6l34 141h-166v15h40c137 0 150 26 150 55v1430h-435c-101 0 -130 -30 -137 -125l-12 -186l-16 2l21 320c0 7 7 9 10 9h1158c3 0 10 -2 10 -9l21 -320l-16 -2l-12 186c-7 95 -36 125 -137 125h-430z" />
    <glyph glyph-name="tcommaaccent" unicode="&#x163;" horiz-adv-x="830" 
d="M40 1000v20h90c87 0 100 17 100 123v177h20v-266c0 -22 9 -34 36 -34h474v-20h-474c-27 0 -36 -13 -36 -35v-575c0 -218 110 -375 261 -375c90 0 188 38 241 122l16 -10c-57 -91 -162 -132 -257 -132c-18 0 -35 1 -51 5l-34 -134c27 8 49 16 85 16c94 0 173 -77 173 -176
c0 -85 -80 -156 -180 -156c-68 0 -133 32 -165 86c-1 2 -4 9 3 13s13 -1 14 -3c28 -46 85 -76 148 -76c92 0 160 64 160 136c0 88 -71 156 -153 156c-43 0 -65 -10 -96 -20c-7 -2 -11 2 -12 6c-1 3 0 5 0 6l37 152c-128 40 -215 189 -215 384v575c0 22 -9 35 -36 35h-149z
" />
    <glyph glyph-name="Tcaron" unicode="&#x164;" horiz-adv-x="1310" 
d="M347 1910l307 -270h6l307 270l14 -15l-313 -275h-22l-313 275zM76 1520h1158c3 0 10 -2 10 -9l21 -320l-16 -2l-12 186c-7 95 -36 125 -137 125h-430v-1430c0 -29 13 -55 150 -55h35v-15h-400v15h40c137 0 150 26 150 55v1430h-435c-101 0 -130 -30 -137 -125l-12 -186
l-16 2l21 320c0 7 7 9 10 9z" />
    <glyph glyph-name="tcaron" unicode="&#x165;" horiz-adv-x="850" 
d="M785 1320c0 21 18 40 40 40c21 0 40 -18 40 -40c0 -89 -28 -143 -93 -214l-15 13c55 60 83 110 83 164h-1c-4 -2 -9 -3 -14 -3c-21 0 -40 18 -40 40zM40 1000v20h90c87 0 100 17 100 123v177h20v-266c0 -22 9 -34 36 -34h474v-20h-474c-27 0 -36 -13 -36 -35v-575
c0 -218 110 -375 261 -375c90 0 188 38 241 122l16 -10c-57 -91 -162 -132 -257 -132c-166 0 -286 166 -286 395v575c0 22 -9 35 -36 35h-149z" />
    <glyph glyph-name="Tbar" unicode="&#x166;" horiz-adv-x="1310" 
d="M670 1500v-440h275l-4 -20h-271v-970c0 -29 13 -55 150 -55h35v-15h-400v15h40c137 0 150 26 150 55v970h-264l4 20h260v440h-435c-101 0 -130 -30 -137 -125l-12 -186l-16 2l21 320c0 7 7 9 10 9h1158c3 0 10 -2 10 -9l21 -320l-16 -2l-12 186c-7 95 -36 125 -137 125
h-430z" />
    <glyph glyph-name="tbar" unicode="&#x167;" horiz-adv-x="830" 
d="M40 1000v20h90c87 0 100 17 100 123v177h20v-266c0 -22 9 -34 36 -34h474v-20h-474c-27 0 -36 -13 -36 -35v-225h395l-4 -20h-391v-330c0 -218 110 -375 261 -375c90 0 188 38 241 122l16 -10c-57 -91 -162 -132 -257 -132c-166 0 -286 166 -286 395v330h-144l4 20h140
v225c0 22 -9 35 -36 35h-149z" />
    <glyph glyph-name="Utilde" unicode="&#x168;" 
d="M967 1848c9 -2 8 -10 8 -12c-13 -72 -61 -106 -113 -106c-127 0 -184 108 -294 108c-45 0 -82 -27 -93 -87c-2 -9 -10 -9 -12 -9s-10 3 -8 12c12 68 57 106 113 106c124 0 182 -108 294 -108c42 0 82 24 93 88c0 2 3 10 12 8zM30 1520h440v-15h-75
c-137 0 -150 -26 -150 -55v-965c0 -271 186 -470 455 -470c277 0 480 195 480 470v965c0 29 -13 55 -150 55h-75v15h415v-15h-20c-137 0 -150 -26 -150 -55v-965c0 -286 -213 -490 -500 -490c-280 0 -480 208 -480 490v965c0 29 -13 55 -150 55h-40v15z" />
    <glyph glyph-name="utilde" unicode="&#x169;" horiz-adv-x="1220" 
d="M842 1448c9 -2 8 -10 8 -12c-13 -72 -61 -106 -113 -106c-127 0 -184 108 -294 108c-45 0 -82 -27 -93 -87c-2 -9 -10 -9 -12 -9s-10 3 -8 12c12 68 57 106 113 106c124 0 182 -108 294 -108c42 0 82 24 93 88c0 2 3 10 12 8zM50 1025v15h25l130 3v-765
c0 -169 103 -260 305 -260c236 0 465 270 465 560v397c0 37 -28 50 -105 50h-25v15h25l130 3v-794l9 -100c7 -74 35 -133 65 -134l96 16l4 -20l-97 -16h-2c-52 0 -84 78 -91 152l-9 101v101c0 17 -2 31 -7 31c-4 0 -9 -7 -16 -25c-79 -202 -255 -360 -442 -360
c-214 0 -330 98 -330 280v700c0 37 -28 50 -105 50h-25z" />
    <glyph glyph-name="Umacron" unicode="&#x16a;" 
d="M1035 1800h-640v20h640v-20zM30 1520h440v-15h-75c-137 0 -150 -26 -150 -55v-965c0 -271 186 -470 455 -470c277 0 480 195 480 470v965c0 29 -13 55 -150 55h-75v15h415v-15h-20c-137 0 -150 -26 -150 -55v-965c0 -286 -213 -490 -500 -490c-280 0 -480 208 -480 490
v965c0 29 -13 55 -150 55h-40v15z" />
    <glyph glyph-name="umacron" unicode="&#x16b;" horiz-adv-x="1220" 
d="M910 1400h-640v20h640v-20zM50 1025v15h25l130 3v-765c0 -169 103 -260 305 -260c236 0 465 270 465 560v397c0 37 -28 50 -105 50h-25v15h25l130 3v-794l9 -100c7 -74 35 -133 65 -134l96 16l4 -20l-97 -16h-2c-52 0 -84 78 -91 152l-9 101v101c0 17 -2 31 -7 31
c-4 0 -9 -7 -16 -25c-79 -202 -255 -360 -442 -360c-214 0 -330 98 -330 280v700c0 37 -28 50 -105 50h-25z" />
    <glyph glyph-name="Ubreve" unicode="&#x16c;" 
d="M715 1730c105 0 189 37 249 111l17 -12c-42 -53 -119 -119 -266 -119c-151 0 -226 69 -266 119l17 12c64 -78 148 -111 249 -111zM30 1520h440v-15h-75c-137 0 -150 -26 -150 -55v-965c0 -271 186 -470 455 -470c277 0 480 195 480 470v965c0 29 -13 55 -150 55h-75v15
h415v-15h-20c-137 0 -150 -26 -150 -55v-965c0 -286 -213 -490 -500 -490c-280 0 -480 208 -480 490v965c0 29 -13 55 -150 55h-40v15z" />
    <glyph glyph-name="ubreve" unicode="&#x16d;" horiz-adv-x="1220" 
d="M590 1330c105 0 189 37 249 111l17 -12c-42 -53 -119 -119 -266 -119c-151 0 -226 69 -266 119l17 12c64 -78 148 -111 249 -111zM50 1025v15h25l130 3v-765c0 -169 103 -260 305 -260c236 0 465 270 465 560v397c0 37 -28 50 -105 50h-25v15h25l130 3v-794l9 -100
c7 -74 35 -133 65 -134l96 16l4 -20l-97 -16h-2c-52 0 -84 78 -91 152l-9 101v101c0 17 -2 31 -7 31c-4 0 -9 -7 -16 -25c-79 -202 -255 -360 -442 -360c-214 0 -330 98 -330 280v700c0 37 -28 50 -105 50h-25z" />
    <glyph glyph-name="Uring" unicode="&#x16e;" 
d="M700 1943c84 0 150 -61 150 -150c0 -84 -61 -150 -150 -150c-84 0 -150 61 -150 150c0 84 61 150 150 150zM700 1923c-78 0 -130 -56 -130 -130c0 -78 56 -130 130 -130c78 0 130 56 130 130c0 78 -56 130 -130 130zM30 1520h440v-15h-75c-137 0 -150 -26 -150 -55v-965
c0 -271 186 -470 455 -470c277 0 480 195 480 470v965c0 29 -13 55 -150 55h-75v15h415v-15h-20c-137 0 -150 -26 -150 -55v-965c0 -286 -213 -490 -500 -490c-280 0 -480 208 -480 490v965c0 29 -13 55 -150 55h-40v15z" />
    <glyph glyph-name="uring" unicode="&#x16f;" horiz-adv-x="1220" 
d="M590 1470c84 0 150 -61 150 -150c0 -84 -61 -150 -150 -150c-84 0 -150 61 -150 150c0 84 61 150 150 150zM590 1450c-78 0 -130 -56 -130 -130c0 -78 56 -130 130 -130c78 0 130 56 130 130c0 78 -56 130 -130 130zM50 1025v15h25l130 3v-765c0 -169 103 -260 305 -260
c236 0 465 270 465 560v397c0 37 -28 50 -105 50h-25v15h25l130 3v-794l9 -100c7 -74 35 -133 65 -134l96 16l4 -20l-97 -16h-2c-52 0 -84 78 -91 152l-9 101v101c0 17 -2 31 -7 31c-4 0 -9 -7 -16 -25c-79 -202 -255 -360 -442 -360c-214 0 -330 98 -330 280v700
c0 37 -28 50 -105 50h-25z" />
    <glyph glyph-name="Uhungarumlaut" unicode="&#x170;" 
d="M497 1640l317 265c7 6 14 2 17 -1s7 -11 0 -17l-321 -262zM894 1640l317 265c7 6 14 2 17 -1s7 -11 0 -17l-321 -262zM30 1520h440v-15h-75c-137 0 -150 -26 -150 -55v-965c0 -271 186 -470 455 -470c277 0 480 195 480 470v965c0 29 -13 55 -150 55h-75v15h415v-15h-20
c-137 0 -150 -26 -150 -55v-965c0 -286 -213 -490 -500 -490c-280 0 -480 208 -480 490v965c0 29 -13 55 -150 55h-40v15z" />
    <glyph glyph-name="uhungarumlaut" unicode="&#x171;" horiz-adv-x="1220" 
d="M352 1240l317 265c7 6 14 2 17 -1s7 -11 0 -17l-321 -262zM749 1240l317 265c7 6 14 2 17 -1s7 -11 0 -17l-321 -262zM50 1025v15h25l130 3v-765c0 -169 103 -260 305 -260c236 0 465 270 465 560v397c0 37 -28 50 -105 50h-25v15h25l130 3v-794l9 -100
c7 -74 35 -133 65 -134l96 16l4 -20l-97 -16h-2c-52 0 -84 78 -91 152l-9 101v101c0 17 -2 31 -7 31c-4 0 -9 -7 -16 -25c-79 -202 -255 -360 -442 -360c-214 0 -330 98 -330 280v700c0 37 -28 50 -105 50h-25z" />
    <glyph glyph-name="Uogonek" unicode="&#x172;" 
d="M1200 1450v-965c0 -247 -158 -432 -385 -479c-34 -7 -48 -12 -71 -28c-89 -62 -237 -141 -237 -300c1 -71 45 -138 139 -138c52 0 112 22 168 86c6 7 14 2 15 1s6 -7 0 -14c-60 -68 -125 -93 -183 -93c-106 0 -163 77 -164 158c0 171 164 259 251 318
c-11 -1 -22 -1 -33 -1c-280 0 -480 208 -480 490v965c0 29 -13 55 -150 55h-40v15h440v-15h-75c-137 0 -150 -26 -150 -55v-965c0 -271 186 -470 455 -470c277 0 480 195 480 470v965c0 29 -13 55 -150 55h-75v15h415v-15h-20c-137 0 -150 -26 -150 -55z" />
    <glyph glyph-name="uogonek" unicode="&#x173;" horiz-adv-x="1220" 
d="M50 1025v15h25l130 3v-765c0 -169 103 -260 305 -260c236 0 465 270 465 560v397c0 37 -28 50 -105 50h-25v15h25l130 3v-794l9 -104c8 -85 38 -129 66 -130l96 16l4 -20l-11 -2c-100 -16 -298 -70 -298 -250c1 -71 45 -139 139 -139c52 0 111 22 168 86c6 7 13 2 15 1
c1 -1 6 -7 0 -14c-60 -68 -125 -93 -183 -93c-106 0 -163 78 -164 159c0 134 112 205 211 240c-36 14 -61 72 -67 142l-10 107v101c0 17 -2 31 -7 31c-4 0 -9 -7 -16 -25c-79 -202 -255 -360 -442 -360c-214 0 -330 98 -330 280v700c0 37 -28 50 -105 50h-25z" />
    <glyph glyph-name="Wcircumflex" unicode="&#x174;" horiz-adv-x="2120" 
d="M736 1610l-14 15l313 275h22l313 -275l-14 -15l-307 270h-6zM10 1520h399v-15h-71h-23c-95 0 -135 -1 -135 -35c0 -8 2 -17 6 -28l463 -1361c7 -22 15 -32 22 -32s14 10 21 31l358 1054l-103 302c-19 55 -70 69 -153 69v15h399v-15h-71h-23c-95 0 -135 -1 -135 -35
c0 -8 2 -17 6 -28l463 -1361c7 -22 15 -32 22 -32s14 10 21 31l463 1362c4 11 6 20 6 27c0 34 -41 36 -137 36h-23h-69v15h394v-15c-83 0 -134 -14 -153 -69l-489 -1439h-32l-376 1106l-376 -1106h-32l-489 1439c-19 55 -70 69 -153 69v15z" />
    <glyph glyph-name="wcircumflex" unicode="&#x175;" horiz-adv-x="1860" 
d="M570 1210l-14 15l313 275h22l313 -275l-14 -15l-307 270h-6zM680 1040h403v-15h-81c-107 0 -151 -4 -151 -36c0 -9 3 -19 9 -32l385 -877c9 -21 17 -31 24 -31s14 10 23 31l371 877c6 13 9 23 9 32c0 32 -43 36 -150 36h-80v15h398v-15h-11c-83 0 -126 -21 -148 -74
l-401 -954h-27l-301 689c-7 15 -14 23 -21 23s-14 -8 -20 -22l-291 -690h-27l-389 893c-45 103 -60 118 -125 118c-14 0 -29 -2 -47 -8c-2 -1 -5 -2 -7 -2c-12 0 -19 6 -19 19c0 26 49 28 68 28c88 0 104 -38 153 -149l358 -816c9 -21 17 -31 24 -31s14 10 23 31l288 681
l-83 190c-23 53 -64 74 -147 74h-10v15z" />
    <glyph glyph-name="Ycircumflex" unicode="&#x176;" horiz-adv-x="1320" 
d="M348 1610l-14 15l313 275h22l313 -275l-14 -15l-307 270h-6zM10 1520h404v-15h-142c-63 0 -99 -5 -99 -33c0 -9 4 -21 11 -35l474 -867l474 867c7 14 11 26 11 35c0 28 -36 33 -99 33h-142v15h408v-15h-36c-34 0 -83 -2 -124 -78l-480 -877v-480c0 -29 13 -55 150 -55h35
v-15h-400v15h40c137 0 150 26 150 55v472l-4 8l-480 877c-41 76 -90 78 -124 78h-27v15z" />
    <glyph glyph-name="ycircumflex" unicode="&#x177;" horiz-adv-x="1160" 
d="M742 1040h398v-15h-11c-70 0 -107 -21 -128 -74l-419 -996c-111 -264 -233 -434 -427 -434c-165 0 -275 78 -275 195c0 17 4 34 11 51c4 10 12 15 21 15c4 0 7 0 11 -2c10 -4 16 -13 16 -22c0 -3 -1 -7 -2 -10c-7 -17 -11 -33 -11 -49c0 -95 92 -158 230 -158
c182 0 299 164 407 421l6 13c1 2 1 4 1 7c0 14 -9 41 -15 56l-352 852c-43 104 -59 118 -124 118c-14 0 -29 -2 -47 -8c-2 -1 -5 -2 -7 -2c-12 0 -19 6 -19 19c0 26 49 28 68 28c88 0 107 -37 153 -149l343 -827c9 -21 12 -29 19 -29s10 9 19 30l375 887c5 13 9 23 9 32
c0 32 -43 36 -150 36h-100v15zM250 1210l-14 15l313 275h22l313 -275l-14 -15l-307 270h-6z" />
    <glyph glyph-name="Ydieresis" unicode="&#x178;" horiz-adv-x="1320" 
d="M378 1740c0 21 18 40 40 40c21 0 40 -18 40 -40c0 -21 -18 -40 -40 -40c-21 0 -40 18 -40 40zM858 1740c0 21 18 40 40 40c21 0 40 -18 40 -40c0 -21 -18 -40 -40 -40c-21 0 -40 18 -40 40zM10 1520h404v-15h-142c-63 0 -99 -5 -99 -33c0 -9 4 -21 11 -35l474 -867
l474 867c7 14 11 26 11 35c0 28 -36 33 -99 33h-142v15h408v-15h-36c-34 0 -83 -2 -124 -78l-480 -877v-480c0 -29 13 -55 150 -55h35v-15h-400v15h40c137 0 150 26 150 55v472l-4 8l-480 877c-41 76 -90 78 -124 78h-27v15z" />
    <glyph glyph-name="Zacute" unicode="&#x179;" horiz-adv-x="1220" 
d="M487 1640l288 271c6 6 14 3 17 0s8 -11 2 -17l-293 -268zM121 1520h1030v-20c-39 0 -104 -37 -163 -132l-766 -1228c-36 -58 -78 -95 -114 -120h919c69 0 111 38 117 111l11 140l15 -2l-20 -260c0 -6 -6 -9 -10 -9h-1090v20c42 0 99 40 156 132l766 1228
c20 31 42 56 63 76c9 8 13 16 13 23c0 12 -11 21 -29 21h-784c-69 0 -110 -36 -116 -109l-11 -142l-17 2l20 260c0 4 4 9 10 9z" />
    <glyph glyph-name="zacute" unicode="&#x17a;" horiz-adv-x="1060" 
d="M447 1240l288 271c6 6 14 3 17 0s8 -11 2 -17l-293 -268zM121 1040h871v-20c-39 0 -93 -45 -163 -132l-607 -748c-43 -53 -78 -95 -114 -120h759c69 0 111 38 117 111l11 140l15 -2l-20 -260c0 -6 -6 -9 -10 -9h-930l1 20c42 0 87 48 155 132l607 748c25 31 48 56 69 77
c9 9 14 18 14 25c0 11 -11 18 -28 18h-633c-69 0 -110 -36 -116 -109l-11 -142l-7 2l10 260c0 4 4 9 10 9z" />
    <glyph glyph-name="Zdotaccent" unicode="&#x17b;" horiz-adv-x="1220" 
d="M550 1780c0 21 18 40 40 40c21 0 40 -18 40 -40c0 -21 -18 -40 -40 -40c-21 0 -40 18 -40 40zM121 1520h1030v-20c-39 0 -104 -37 -163 -132l-766 -1228c-36 -58 -78 -95 -114 -120h919c69 0 111 38 117 111l11 140l15 -2l-20 -260c0 -6 -6 -9 -10 -9h-1090v20
c42 0 99 40 156 132l766 1228c20 31 42 56 63 76c9 8 13 16 13 23c0 12 -11 21 -29 21h-784c-69 0 -110 -36 -116 -109l-11 -142l-17 2l20 260c0 4 4 9 10 9z" />
    <glyph glyph-name="zdotaccent" unicode="&#x17c;" horiz-adv-x="1060" 
d="M520 1380c0 21 18 40 40 40c21 0 40 -18 40 -40c0 -21 -18 -40 -40 -40c-21 0 -40 18 -40 40zM235 1020c-69 0 -110 -36 -116 -109l-11 -142l-7 2l10 260c0 4 4 9 10 9h871v-20c-39 0 -93 -45 -163 -132l-607 -748c-43 -53 -78 -95 -114 -120h759c69 0 111 38 117 111
l11 140l15 -2l-20 -260c0 -6 -6 -9 -10 -9h-930l1 20c42 0 87 48 155 132l607 748c25 31 48 56 69 77c9 9 14 18 14 25c0 11 -11 18 -28 18h-633z" />
    <glyph glyph-name="Zcaron" unicode="&#x17d;" horiz-adv-x="1220" 
d="M280 1910l307 -270h6l307 270l14 -15l-313 -275h-22l-313 275zM121 1520h1030v-20c-39 0 -104 -37 -163 -132l-766 -1228c-36 -58 -78 -95 -114 -120h919c69 0 111 38 117 111l11 140l15 -2l-20 -260c0 -6 -6 -9 -10 -9h-1090v20c42 0 99 40 156 132l766 1228
c20 31 42 56 63 76c9 8 13 16 13 23c0 12 -11 21 -29 21h-784c-69 0 -110 -36 -116 -109l-11 -142l-17 2l20 260c0 4 4 9 10 9z" />
    <glyph glyph-name="zcaron" unicode="&#x17e;" horiz-adv-x="1060" 
d="M240 1510l307 -270h6l307 270l14 -15l-313 -275h-22l-313 275zM235 1020c-69 0 -110 -36 -116 -109l-11 -142l-7 2l10 260c0 4 4 9 10 9h871v-20c-39 0 -93 -45 -163 -132l-607 -748c-43 -53 -78 -95 -114 -120h759c69 0 111 38 117 111l11 140l15 -2l-20 -260
c0 -6 -6 -9 -10 -9h-930l1 20c42 0 87 48 155 132l607 748c25 31 48 56 69 77c9 9 14 18 14 25c0 11 -11 18 -28 18h-633z" />
    <glyph glyph-name="florin" unicode="&#x192;" horiz-adv-x="720" 
d="M710 1486c3 -1 8 -9 2 -17c-6 -9 -12 -8 -15 -6c-35 24 -81 37 -133 37c-137 0 -295 -91 -307 -322l-7 -122c-2 -30 21 -36 34 -36h149l-1 -20h-149c-27 0 -36 -13 -37 -35l-68 -1280h-25l68 1281c1 24 -10 34 -35 34h-124l1 20h124c17 0 36 5 38 36l7 123
c13 240 186 341 333 341c56 0 106 -12 145 -34z" />
    <glyph glyph-name="uni01C4" unicode="&#x1c4;" horiz-adv-x="2625" 
d="M1685 1910l307 -270h6l307 270l14 -15l-313 -275h-22l-313 275zM1526 1520h1030v-20c-39 0 -104 -37 -163 -132l-766 -1228c-36 -58 -78 -95 -114 -120h919c69 0 111 38 117 111l11 140l15 -2l-20 -260c0 -6 -6 -9 -10 -9h-1090v20c42 0 99 40 156 132l766 1228
c20 31 42 56 63 76c9 8 13 16 13 23c0 12 -11 21 -29 21h-784c-69 0 -110 -36 -116 -109l-11 -142l-17 2l20 260c0 4 4 9 10 9zM50 1520h575c423 0 730 -319 730 -760s-307 -760 -730 -760h-575v15h40c137 0 150 27 150 56v1384c0 31 -18 50 -150 50h-40v15zM266 1500
l-1 -1480h355c412 0 710 311 710 740s-298 740 -710 740h-354z" />
    <glyph glyph-name="uni01C5" unicode="&#x1c5;" horiz-adv-x="2485" 
d="M50 0v15h40c137 0 150 27 150 56v1384c0 31 -18 50 -150 50h-40v15h600c423 0 730 -319 730 -760s-307 -760 -730 -760h-600zM265 20h380c412 0 710 311 710 740s-298 740 -710 740h-379zM1665 1510l307 -270h6l307 270l14 -15l-313 -275h-22l-313 275zM1690 1020
c-69 0 -110 -36 -116 -109l-11 -142l-7 2l10 260c0 4 4 9 10 9h841v-20c-39 0 -93 -45 -163 -132l-607 -748c-43 -53 -78 -95 -114 -120h759c69 0 111 38 117 111l11 140l15 -2l-20 -260c0 -6 -6 -9 -10 -9h-930l1 20c42 0 87 48 155 132l607 748c25 31 48 56 69 77
c9 9 14 18 14 25c0 11 -11 18 -28 18h-603z" />
    <glyph glyph-name="uni01C6" unicode="&#x1c6;" horiz-adv-x="2185" 
d="M1365 1510l307 -270h6l307 270l14 -15l-313 -275h-22l-313 275zM1360 1020c-69 0 -110 -36 -116 -109l-11 -142l-7 2l10 260c0 4 4 9 10 9h871v-20c-39 0 -93 -45 -163 -132l-607 -748c-43 -53 -78 -95 -114 -120h759c69 0 111 38 117 111l11 140l15 -2l-20 -260
c0 -6 -6 -9 -10 -9h-930l1 20c42 0 87 48 155 132l607 748c25 31 48 56 69 77c9 9 14 18 14 25c0 11 -11 18 -28 18h-633zM880 311v561c-124 95 -255 153 -382 153c-237 0 -408 -212 -408 -505s176 -505 418 -505c181 0 318 121 372 296zM905 1523v-1274l9 -100
c7 -74 35 -135 65 -136l97 18l4 -20l-98 -16h-2c-52 0 -84 78 -91 152l-4 45c-2 17 -5 27 -11 27s-12 -7 -20 -21c-72 -123 -195 -203 -346 -203c-257 0 -443 221 -443 525s182 525 433 525c129 0 261 -58 382 -148v558c0 37 -28 50 -105 50h-45v15h45z" />
    <glyph glyph-name="uni01C7" unicode="&#x1c7;" horiz-adv-x="1830" 
d="M1340 1520h460v-15h-35c-132 0 -150 -19 -150 -50v-1425c0 -296 -161 -510 -384 -510c-35 0 -80 16 -107 37c-6 4 -9 10 -9 16c0 11 11 22 21 22c4 0 10 -2 14 -5c29 -23 63 -37 96 -37c200 0 344 200 344 477v1425c0 31 -18 50 -150 50h-100v15zM50 1520h400v-15h-35
c-132 0 -150 -22 -150 -53v-1432h807c91 0 121 32 127 117l16 254l20 -2l-25 -380c0 -7 -7 -9 -10 -9h-1150v15h40c137 0 150 27 150 56v1381c0 31 -18 53 -150 53h-40v15z" />
    <glyph glyph-name="uni01C8" unicode="&#x1c8;" horiz-adv-x="1670" 
d="M1482 1380c0 21 18 40 40 40c21 0 40 -18 40 -40c0 -21 -18 -40 -40 -40c-21 0 -40 18 -40 40zM1236 -447c122 0 254 88 254 367v1055c0 37 -28 50 -105 50h-45v15h45l130 3v-1123c0 -286 -141 -400 -294 -400c-35 0 -80 16 -107 37c-6 4 -9 10 -9 16c0 11 11 22 21 22
c4 0 10 -2 14 -5c29 -23 63 -37 96 -37zM50 1520h400v-15h-35c-132 0 -150 -22 -150 -53v-1432h807c91 0 121 32 127 117l16 254l20 -2l-25 -380c0 -7 -7 -9 -10 -9h-1150v15h40c137 0 150 27 150 56v1381c0 31 -18 53 -150 53h-40v15z" />
    <glyph glyph-name="uni01C9" unicode="&#x1c9;" horiz-adv-x="880" 
d="M692 1380c0 21 18 40 40 40c21 0 40 -18 40 -40c0 -21 -18 -40 -40 -40c-21 0 -40 18 -40 40zM446 -447c122 0 254 88 254 367v1055c0 37 -28 50 -105 50h-45v15h45l130 3v-1123c0 -286 -141 -400 -294 -400c-35 0 -80 16 -107 37c-6 4 -9 10 -9 16c0 11 11 22 21 22
c4 0 10 -2 14 -5c29 -23 63 -37 96 -37zM265 70c0 -29 13 -55 150 -55h35v-15h-400v15h40c137 0 150 26 150 55v1385c0 37 -28 50 -105 50h-45v15h45l130 3v-1453z" />
    <glyph glyph-name="uni01CA" unicode="&#x1ca;" horiz-adv-x="1970" 
d="M1480 1520h460v-15h-35c-132 0 -150 -19 -150 -50v-1425c0 -296 -161 -510 -384 -510c-35 0 -80 16 -107 37c-6 4 -9 10 -9 16c0 11 11 22 21 22c4 0 10 -2 14 -5c29 -23 63 -37 96 -37c200 0 344 200 344 477v1425c0 31 -18 50 -150 50h-100v15zM50 1520h229
c4 0 7 -3 8 -5l890 -1427c7 -12 15 -18 21 -18c7 0 12 9 12 26v1354c0 31 -18 55 -150 55h-40v15h380v-15h-20c-132 0 -150 -24 -150 -55v-1450h-21c-3 0 -7 1 -9 5l-933 1495h-9c9 -36 12 -55 12 -111v-1319c0 -29 13 -55 150 -55h35v-15h-395v15h40c137 0 150 26 150 55
v1320c0 106 -68 115 -188 115h-12v15z" />
    <glyph glyph-name="uni01CB" unicode="&#x1cb;" horiz-adv-x="1810" 
d="M1622 1380c0 21 18 40 40 40c21 0 40 -18 40 -40c0 -21 -18 -40 -40 -40c-21 0 -40 18 -40 40zM1376 -447c122 0 254 88 254 367v1055c0 37 -28 50 -105 50h-45v15h45l130 3v-1123c0 -286 -141 -400 -294 -400c-35 0 -80 16 -107 37c-6 4 -9 10 -9 16c0 11 11 22 21 22
c4 0 10 -2 14 -5c29 -23 63 -37 96 -37zM50 1520h229c4 0 7 -3 8 -5l890 -1427c7 -12 15 -18 21 -18c7 0 12 9 12 26v1354c0 31 -18 55 -150 55h-40v15h380v-15h-20c-132 0 -150 -24 -150 -55v-1450h-21c-3 0 -7 1 -9 5l-933 1495h-9c9 -36 12 -55 12 -111v-1319
c0 -29 13 -55 150 -55h35v-15h-395v15h40c137 0 150 26 150 55v1320c0 106 -68 115 -188 115h-12v15z" />
    <glyph glyph-name="uni01CC" unicode="&#x1cc;" horiz-adv-x="1670" 
d="M1482 1380c0 21 18 40 40 40c21 0 40 -18 40 -40c0 -21 -18 -40 -40 -40c-21 0 -40 18 -40 40zM1236 -447c122 0 254 88 254 367v1055c0 37 -28 50 -105 50h-45v15h45l130 3v-1123c0 -286 -141 -400 -294 -400c-35 0 -80 16 -107 37c-6 4 -9 10 -9 16c0 11 11 22 21 22
c4 0 10 -2 14 -5c29 -23 63 -37 96 -37zM110 1040h25l130 3v-352c0 -17 2 -31 7 -31c4 0 9 7 16 25c79 202 255 360 442 360c214 0 330 -98 330 -280v-695c0 -29 13 -55 150 -55h40v-15h-420v15h55c137 0 150 26 150 55v692c0 169 -103 260 -305 260
c-236 0 -465 -270 -465 -560v-392c0 -29 13 -55 150 -55h55v-15h-420v15h40c137 0 150 26 150 55v905c0 37 -28 50 -105 50h-25v15z" />
    <glyph glyph-name="uni01CD" unicode="&#x1cd;" 
d="M379 1910l307 -270h6l307 270l14 -15l-313 -275h-22l-313 275zM327 500h712l-322 900c-18 50 -20 62 -21 67h-23zM20 0v15h5c86 0 115 20 134 74l510 1424c2 5 6 7 9 7h27c7 0 10 -6 10 -10c0 -20 5 -49 25 -104l469 -1308c23 -63 52 -83 131 -83h40v-15h-390v15h100
c81 0 106 7 106 34c0 11 -4 26 -11 45l-139 386h-726l-143 -397c-3 -10 -5 -18 -5 -25c0 -36 44 -43 147 -43h41v-15h-340z" />
    <glyph glyph-name="uni01CE" unicode="&#x1ce;" horiz-adv-x="1110" 
d="M210 1510l307 -270h6l307 270l14 -15l-313 -275h-22l-313 275zM875 646c-67 -111 -309 -115 -419 -126c-202 -21 -366 -85 -366 -260c0 -142 153 -245 365 -245c237 0 420 218 420 430v201zM571 1045c191 0 329 -136 329 -324v-486l16 -95c14 -84 33 -119 61 -120l107 10
l2 -20l-109 -15h-1c-49 0 -72 60 -85 141c-5 31 -16 90 -16 98v22c0 18 -3 27 -7 27s-9 -7 -15 -21c-69 -148 -218 -267 -398 -267c-226 0 -390 111 -390 265c0 192 185 259 389 280c124 13 379 22 416 143c3 11 5 22 5 32v6c-1 175 -124 304 -301 304
c-200 0 -362 -89 -362 -199c0 -13 -8 -21 -21 -21s-21 8 -21 21c0 121 180 219 401 219z" />
    <glyph glyph-name="uni01CF" unicode="&#x1cf;" horiz-adv-x="500" 
d="M-57 1910l307 -270h6l307 270l14 -15l-313 -275h-22l-313 275zM450 0h-400v15h40c137 0 150 26 150 55v1383c0 31 -18 52 -150 52h-40v15h400v-15h-35c-132 0 -150 -21 -150 -52v-1383c0 -29 13 -55 150 -55h35v-15z" />
    <glyph glyph-name="uni01D0" unicode="&#x1d0;" horiz-adv-x="500" 
d="M-60 1510l307 -270h6l307 270l14 -15l-313 -275h-22l-313 275zM265 70c0 -29 13 -55 150 -55h35v-15h-400v15h40c137 0 150 26 150 55v905c0 37 -28 50 -105 50h-25v15h25l130 3v-973z" />
    <glyph glyph-name="uni01D1" unicode="&#x1d1;" horiz-adv-x="1410" 
d="M395 1910l307 -270h6l307 270l14 -15l-313 -275h-22l-313 275zM705 -5c-371 0 -640 321 -640 765s269 765 640 765s640 -321 640 -765s-269 -765 -640 -765zM705 15c357 0 615 313 615 745s-258 745 -615 745s-615 -313 -615 -745s258 -745 615 -745z" />
    <glyph glyph-name="uni01D2" unicode="&#x1d2;" horiz-adv-x="1110" 
d="M240 1510l307 -270h6l307 270l14 -15l-313 -275h-22l-313 275zM555 1045c284 0 490 -221 490 -525s-206 -525 -490 -525s-490 221 -490 525s206 525 490 525zM555 1025c-270 0 -465 -212 -465 -505s195 -505 465 -505s465 212 465 505s-195 505 -465 505z" />
    <glyph glyph-name="uni01D3" unicode="&#x1d3;" 
d="M405 1910l307 -270h6l307 270l14 -15l-313 -275h-22l-313 275zM30 1520h440v-15h-75c-137 0 -150 -26 -150 -55v-965c0 -271 186 -470 455 -470c277 0 480 195 480 470v965c0 29 -13 55 -150 55h-75v15h415v-15h-20c-137 0 -150 -26 -150 -55v-965
c0 -286 -213 -490 -500 -490c-280 0 -480 208 -480 490v965c0 29 -13 55 -150 55h-40v15z" />
    <glyph glyph-name="uni01D4" unicode="&#x1d4;" horiz-adv-x="1220" 
d="M280 1510l307 -270h6l307 270l14 -15l-313 -275h-22l-313 275zM50 1025v15h25l130 3v-765c0 -169 103 -260 305 -260c236 0 465 270 465 560v397c0 37 -28 50 -105 50h-25v15h25l130 3v-794l9 -100c7 -74 35 -133 65 -134l96 16l4 -20l-97 -16h-2c-52 0 -84 78 -91 152
l-9 101v101c0 17 -2 31 -7 31c-4 0 -9 -7 -16 -25c-79 -202 -255 -360 -442 -360c-214 0 -330 98 -330 280v700c0 37 -28 50 -105 50h-25z" />
    <glyph glyph-name="uni01E2" unicode="&#x1e2;" horiz-adv-x="2000" 
d="M1400 1800h-640v20h640v-20zM1830 1520c7 0 10 -6 10 -9l25 -380l-20 -2l-16 254c-6 88 -39 117 -127 117h-626l-1 -740h315c40 0 40 188 40 270v60h20v-680h-20v60c0 88 0 270 -40 270h-315v-720h707c91 0 121 32 127 117l16 254l20 -2l-25 -380c0 -7 -7 -9 -10 -9
h-1050v15h40c137 0 150 27 150 56v409h-702l-170 -397c-5 -11 -7 -19 -7 -27c0 -36 51 -41 149 -41h40v-15h-340v15h5c86 0 111 21 134 74l579 1351c2 6 4 12 4 19c0 22 -14 46 -49 46h-38v15h45h1130zM357 500h693v930c0 51 -18 70 -70 70h-151c-43 0 -61 -39 -72 -65z" />
    <glyph glyph-name="uni01E3" unicode="&#x1e3;" horiz-adv-x="1900" 
d="M1236 1400h-640v20h640v-20zM901 550h858c35 0 45 35 45 68c0 11 -1 21 -3 30c-39 223 -198 377 -436 377c-261 0 -451 -195 -464 -475zM900 530v-10c0 -292 187 -505 455 -505c226 0 364 98 439 231l18 -10c-78 -139 -225 -241 -457 -241c-231 0 -407 152 -462 373
c-4 -13 -18 -59 -40 -106c-68 -148 -218 -267 -398 -267c-226 0 -390 111 -390 265c0 192 185 259 389 280c122 13 257 7 421 10v171c-1 175 -124 304 -301 304c-200 0 -362 -89 -362 -199c0 -13 -8 -21 -21 -21s-21 8 -21 21c0 121 180 219 401 219
c191 0 329 -136 329 -324v-25c63 210 240 349 465 349c286 0 470 -215 470 -505c0 -7 -6 -10 -10 -10h-925zM875 530c-166 -4 -358 -4 -419 -10c-202 -21 -366 -85 -366 -260c0 -142 153 -245 365 -245c237 0 420 218 420 430v75v10z" />
    <glyph glyph-name="Gcaron" unicode="&#x1e6;" horiz-adv-x="1315" 
d="M365 1910l307 -270h6l307 270l14 -15l-313 -275h-22l-313 275zM1046 1413l-5 127h15l14 -380c0 -5 -3 -8 -7 -8c-5 0 -8 3 -8 8c-11 254 -270 345 -380 345c-351 0 -585 -297 -585 -743c0 -433 229 -747 545 -747c138 0 277 85 377 165c33 27 74 65 93 87v392
c0 31 -18 51 -150 51h-200v20h530v-20h-21c-123 0 -139 -22 -139 -51v-664c0 -3 -3 -10 -10 -10c-4 0 -10 3 -10 10v148c0 33 -2 55 -19 55c-12 0 -30 -10 -61 -33c-103 -82 -247 -170 -390 -170c-331 0 -570 322 -570 767c0 458 244 763 610 763c80 0 234 -45 326 -162
c11 -13 19 -18 26 -18c17 0 19 28 19 35v33z" />
    <glyph glyph-name="gcaron" unicode="&#x1e7;" horiz-adv-x="1120" 
d="M220 1510l307 -270h6l307 270l14 -15l-313 -275h-22l-313 275zM245 145c-69 -67 -205 -208 -205 -356c0 -138 202 -244 503 -244c347 0 527 85 527 246c0 234 -180 269 -371 278c-158 8 -322 -2 -399 71c-13 12 -21 20 -30 20c-7 0 -14 -5 -25 -15zM530 1025
c-216 0 -375 -116 -375 -345c0 -211 140 -345 375 -345c206 0 355 118 355 345c0 208 -131 345 -355 345zM530 1045c109 0 200 -32 264 -88c8 -7 14 -11 20 -11s10 4 14 14c18 51 55 84 107 85c23 0 98 -1 98 -28c0 -13 -8 -23 -20 -23c-26 0 -46 31 -80 31
c-50 0 -86 -42 -96 -113c48 -61 73 -140 73 -232c0 -239 -166 -365 -380 -365c-72 0 -136 12 -191 35c-32 -31 -61 -64 -61 -107c0 -28 4 -44 13 -61c48 -89 220 -80 409 -89c188 -9 390 -45 390 -302c0 -181 -201 -271 -547 -271c-301 0 -523 109 -523 269
c0 161 144 306 213 372c20 20 25 43 25 74v8c0 49 32 86 62 116c-120 58 -190 172 -190 321c0 242 177 365 400 365z" />
    <glyph glyph-name="uni01E8" unicode="&#x1e8;" horiz-adv-x="1305" 
d="M330 1910l307 -270h6l307 270l14 -15l-313 -275h-22l-313 275zM50 1520h420v-15h-55c-132 0 -150 -22 -150 -53v-652h167c22 0 54 20 68 37l477 603c15 19 23 32 23 42c0 16 -22 23 -72 23h-110v15h382v-15h-15c-48 0 -133 -3 -192 -77l-504 -638l509 -647
c64 -81 116 -127 161 -127c38 0 55 13 84 36c4 3 9 5 13 5c10 0 19 -8 19 -19c0 -6 -3 -12 -9 -16c-27 -21 -60 -37 -95 -37c-74 0 -115 45 -194 146l-482 613c-11 15 -41 36 -63 36h-167v-710c0 -29 13 -55 150 -55h55v-15h-420v15h40c137 0 150 26 150 55v1382
c0 31 -18 53 -150 53h-40v15z" />
    <glyph glyph-name="uni01E9" unicode="&#x1e9;" horiz-adv-x="1118" 
d="M90 1520h45l130 3v-963h167c22 0 54 20 68 37l287 363c17 21 21 33 21 40c0 18 -31 25 -77 25h-103v15h381v-15c-56 0 -147 -2 -206 -77l-314 -398l320 -407c64 -81 115 -127 160 -127c38 0 57 13 86 36c4 3 10 5 14 5c10 0 19 -8 19 -19c0 -6 -3 -12 -9 -16
c-27 -21 -62 -37 -97 -37c-74 0 -115 45 -194 146l-293 373c-11 15 -41 36 -63 36h-167v-470c0 -29 13 -55 150 -55h35v-15h-400v15h40c137 0 150 26 150 55v1385c0 37 -28 50 -105 50h-45v15zM145 1870l307 -270h6l307 270l14 -15l-313 -275h-22l-313 275z" />
    <glyph glyph-name="uni01EA" unicode="&#x1ea;" horiz-adv-x="1410" 
d="M705 15c357 0 615 313 615 745s-258 745 -615 745s-615 -313 -615 -745s258 -745 615 -745zM705 -5c-371 0 -640 321 -640 765s269 765 640 765s640 -321 640 -765c0 -387 -203 -680 -501 -749c-33 -8 -47 -15 -70 -31c-88 -62 -239 -142 -239 -302
c1 -71 45 -138 139 -138c52 0 112 22 168 86c6 7 14 2 15 1s6 -7 0 -14c-60 -68 -125 -93 -183 -93c-106 0 -163 77 -164 158c0 173 168 261 254 320c-19 -2 -39 -3 -59 -3z" />
    <glyph glyph-name="uni01EB" unicode="&#x1eb;" horiz-adv-x="1110" 
d="M555 1025c-270 0 -465 -212 -465 -505s195 -505 465 -505s465 212 465 505s-195 505 -465 505zM555 1045c284 0 490 -221 490 -525c0 -268 -160 -472 -393 -516c-30 -6 -40 -11 -60 -25c-88 -62 -239 -141 -239 -301c1 -71 45 -138 139 -138c52 0 112 22 168 86
c6 7 14 2 15 1s6 -7 0 -14c-60 -68 -125 -93 -183 -93c-106 0 -163 77 -164 158c0 172 166 259 252 318c-8 0 -16 -1 -25 -1c-284 0 -490 221 -490 525s206 525 490 525z" />
    <glyph glyph-name="uni01EC" unicode="&#x1ec;" horiz-adv-x="1410" 
d="M1025 1643h-640v20h640v-20zM705 15c357 0 615 313 615 745s-258 745 -615 745s-615 -313 -615 -745s258 -745 615 -745zM705 -5c-371 0 -640 321 -640 765s269 765 640 765s640 -321 640 -765c0 -387 -203 -680 -501 -749c-33 -8 -47 -15 -70 -31
c-88 -62 -239 -142 -239 -302c1 -71 45 -138 139 -138c52 0 112 22 168 86c6 7 14 2 15 1s6 -7 0 -14c-60 -68 -125 -93 -183 -93c-106 0 -163 77 -164 158c0 173 168 261 254 320c-19 -2 -39 -3 -59 -3z" />
    <glyph glyph-name="uni01ED" unicode="&#x1ed;" horiz-adv-x="1110" 
d="M875 1165h-640v20h640v-20zM555 1025c-270 0 -465 -212 -465 -505s195 -505 465 -505s465 212 465 505s-195 505 -465 505zM555 1045c284 0 490 -221 490 -525c0 -268 -160 -472 -393 -516c-30 -6 -40 -11 -60 -25c-88 -62 -239 -141 -239 -301c1 -71 45 -138 139 -138
c52 0 112 22 168 86c6 7 14 2 15 1s6 -7 0 -14c-60 -68 -125 -93 -183 -93c-106 0 -163 77 -164 158c0 172 166 259 252 318c-8 0 -16 -1 -25 -1c-284 0 -490 221 -490 525s206 525 490 525z" />
    <glyph glyph-name="uni01F0" unicode="&#x1f0;" horiz-adv-x="380" 
d="M-98 1510l307 -270h6l307 270l14 -15l-313 -275h-22l-313 275zM-34 -447c122 0 254 88 254 367v1055c0 37 -28 50 -105 50h-45v15h45l130 3v-1123c0 -286 -141 -400 -294 -400c-35 0 -80 16 -107 37c-6 4 -9 10 -9 16c0 11 11 22 21 22c4 0 10 -2 14 -5
c29 -23 63 -37 96 -37z" />
    <glyph glyph-name="uni01F1" unicode="&#x1f1;" horiz-adv-x="2625" 
d="M1526 1520h1030v-20c-39 0 -104 -37 -163 -132l-766 -1228c-36 -58 -78 -95 -114 -120h919c69 0 111 38 117 111l11 140l15 -2l-20 -260c0 -6 -6 -9 -10 -9h-1090v20c42 0 99 40 156 132l766 1228c20 31 42 56 63 76c9 8 13 16 13 23c0 12 -11 21 -29 21h-784
c-69 0 -110 -36 -116 -109l-11 -142l-17 2l20 260c0 4 4 9 10 9zM50 1520h575c423 0 730 -319 730 -760s-307 -760 -730 -760h-575v15h40c137 0 150 27 150 56v1384c0 31 -18 50 -150 50h-40v15zM266 1500l-1 -1480h355c412 0 710 311 710 740s-298 740 -710 740h-354z" />
    <glyph glyph-name="uni01F2" unicode="&#x1f2;" horiz-adv-x="2485" 
d="M50 0v15h40c137 0 150 27 150 56v1384c0 31 -18 50 -150 50h-40v15h600c423 0 730 -319 730 -760s-307 -760 -730 -760h-600zM265 20h380c412 0 710 311 710 740s-298 740 -710 740h-379zM1690 1020c-69 0 -110 -36 -116 -109l-11 -142l-7 2l10 260c0 4 4 9 10 9h841v-20
c-39 0 -93 -45 -163 -132l-607 -748c-43 -53 -78 -95 -114 -120h759c69 0 111 38 117 111l11 140l15 -2l-20 -260c0 -6 -6 -9 -10 -9h-930l1 20c42 0 87 48 155 132l607 748c25 31 48 56 69 77c9 9 14 18 14 25c0 11 -11 18 -28 18h-603z" />
    <glyph glyph-name="uni01F3" unicode="&#x1f3;" horiz-adv-x="2185" 
d="M1360 1020c-69 0 -110 -36 -116 -109l-11 -142l-7 2l10 260c0 4 4 9 10 9h871v-20c-39 0 -93 -45 -163 -132l-607 -748c-43 -53 -78 -95 -114 -120h759c69 0 111 38 117 111l11 140l15 -2l-20 -260c0 -6 -6 -9 -10 -9h-930l1 20c42 0 87 48 155 132l607 748
c25 31 48 56 69 77c9 9 14 18 14 25c0 11 -11 18 -28 18h-633zM880 311v561c-124 95 -255 153 -382 153c-237 0 -408 -212 -408 -505s176 -505 418 -505c181 0 318 121 372 296zM905 1523v-1274l9 -100c7 -74 35 -135 65 -136l97 18l4 -20l-98 -16h-2c-52 0 -84 78 -91 152
l-4 45c-2 17 -5 27 -11 27s-12 -7 -20 -21c-72 -123 -195 -203 -346 -203c-257 0 -443 221 -443 525s182 525 433 525c129 0 261 -58 382 -148v558c0 37 -28 50 -105 50h-45v15h45z" />
    <glyph glyph-name="uni01F4" unicode="&#x1f4;" horiz-adv-x="1315" 
d="M572 1640l288 271c6 6 14 3 17 0s8 -11 2 -17l-293 -268zM1046 1413l-5 127h15l14 -380c0 -5 -3 -8 -7 -8c-5 0 -8 3 -8 8c-11 254 -270 345 -380 345c-351 0 -585 -297 -585 -743c0 -433 229 -747 545 -747c138 0 277 85 377 165c33 27 74 65 93 87v392
c0 31 -18 51 -150 51h-200v20h530v-20h-21c-123 0 -139 -22 -139 -51v-664c0 -3 -3 -10 -10 -10c-4 0 -10 3 -10 10v148c0 33 -2 55 -19 55c-12 0 -30 -10 -61 -33c-103 -82 -247 -170 -390 -170c-331 0 -570 322 -570 767c0 458 244 763 610 763c80 0 234 -45 326 -162
c11 -13 19 -18 26 -18c17 0 19 28 19 35v33z" />
    <glyph glyph-name="uni01F5" unicode="&#x1f5;" horiz-adv-x="1120" 
d="M427 1240l288 271c6 6 14 3 17 0s8 -11 2 -17l-293 -268zM245 145c-69 -67 -205 -208 -205 -356c0 -138 202 -244 503 -244c347 0 527 85 527 246c0 234 -180 269 -371 278c-158 8 -322 -2 -399 71c-13 12 -21 20 -30 20c-7 0 -14 -5 -25 -15zM530 1025
c-216 0 -375 -116 -375 -345c0 -211 140 -345 375 -345c206 0 355 118 355 345c0 208 -131 345 -355 345zM530 1045c109 0 200 -32 264 -88c8 -7 14 -11 20 -11s10 4 14 14c18 51 55 84 107 85c23 0 98 -1 98 -28c0 -13 -8 -23 -20 -23c-26 0 -46 31 -80 31
c-50 0 -86 -42 -96 -113c48 -61 73 -140 73 -232c0 -239 -166 -365 -380 -365c-72 0 -136 12 -191 35c-32 -31 -61 -64 -61 -107c0 -28 4 -44 13 -61c48 -89 220 -80 409 -89c188 -9 390 -45 390 -302c0 -181 -201 -271 -547 -271c-301 0 -523 109 -523 269
c0 161 144 306 213 372c20 20 25 43 25 74v8c0 49 32 86 62 116c-120 58 -190 172 -190 321c0 242 177 365 400 365z" />
    <glyph glyph-name="uni01F8" unicode="&#x1f8;" horiz-adv-x="1430" 
d="M868 1640l-14 -14l-293 268c-6 6 -1 14 2 17s11 6 17 0zM50 1520h229c4 0 7 -3 8 -5l890 -1427c7 -12 15 -18 21 -18c7 0 12 9 12 26v1354c0 31 -18 55 -150 55h-40v15h380v-15h-20c-132 0 -150 -24 -150 -55v-1450h-21c-3 0 -7 1 -9 5l-933 1495h-9
c9 -36 12 -55 12 -111v-1319c0 -29 13 -55 150 -55h35v-15h-395v15h40c137 0 150 26 150 55v1320c0 106 -68 115 -188 115h-12v15z" />
    <glyph glyph-name="uni01F9" unicode="&#x1f9;" horiz-adv-x="1290" 
d="M783 1240l-14 -14l-293 268c-6 6 -1 14 2 17s11 6 17 0zM110 1040h25l130 3v-352c0 -17 2 -31 7 -31c4 0 9 7 16 25c79 202 255 360 442 360c214 0 330 -98 330 -280v-695c0 -29 13 -55 150 -55h40v-15h-420v15h55c137 0 150 26 150 55v692c0 169 -103 260 -305 260
c-236 0 -465 -270 -465 -560v-392c0 -29 13 -55 150 -55h55v-15h-420v15h40c137 0 150 26 150 55v905c0 37 -28 50 -105 50h-25v15z" />
    <glyph glyph-name="AEacute" unicode="&#x1fc;" horiz-adv-x="2000" 
d="M977 1640l288 271c6 6 14 3 17 0s8 -11 2 -17l-293 -268zM1830 1520c7 0 10 -6 10 -9l25 -380l-20 -2l-16 254c-6 88 -39 117 -127 117h-626l-1 -740h315c40 0 40 188 40 270v60h20v-680h-20v60c0 88 0 270 -40 270h-315v-720h707c91 0 121 32 127 117l16 254l20 -2
l-25 -380c0 -7 -7 -9 -10 -9h-1050v15h40c137 0 150 27 150 56v409h-702l-170 -397c-5 -11 -7 -19 -7 -27c0 -36 51 -41 149 -41h40v-15h-340v15h5c86 0 111 21 134 74l579 1351c2 6 4 12 4 19c0 22 -14 46 -49 46h-38v15h45h1130zM357 500h693v930c0 51 -18 70 -70 70h-151
c-43 0 -61 -39 -72 -65z" />
    <glyph glyph-name="aeacute" unicode="&#x1fd;" horiz-adv-x="1900" 
d="M813 1240l288 271c6 6 14 3 17 0s8 -11 2 -17l-293 -268zM901 550h858c35 0 45 35 45 68c0 11 -1 21 -3 30c-39 223 -198 377 -436 377c-261 0 -451 -195 -464 -475zM900 530v-10c0 -292 187 -505 455 -505c226 0 364 98 439 231l18 -10c-78 -139 -225 -241 -457 -241
c-231 0 -407 152 -462 373c-4 -13 -18 -59 -40 -106c-68 -148 -218 -267 -398 -267c-226 0 -390 111 -390 265c0 192 185 259 389 280c122 13 257 7 421 10v171c-1 175 -124 304 -301 304c-200 0 -362 -89 -362 -199c0 -13 -8 -21 -21 -21s-21 8 -21 21
c0 121 180 219 401 219c191 0 329 -136 329 -324v-25c63 210 240 349 465 349c286 0 470 -215 470 -505c0 -7 -6 -10 -10 -10h-925zM875 530c-166 -4 -358 -4 -419 -10c-202 -21 -366 -85 -366 -260c0 -142 153 -245 365 -245c237 0 420 218 420 430v75v10z" />
    <glyph glyph-name="Oslashacute" unicode="&#x1fe;" horiz-adv-x="1410" 
d="M691 1680l288 271c6 6 14 3 17 0s8 -11 2 -17l-293 -268zM705 1525c168 0 315 -66 426 -180l151 201l16 -12l-153 -204c125 -137 200 -336 200 -570c0 -444 -269 -765 -640 -765c-168 0 -315 66 -426 180l-151 -201l-16 12l153 204c-125 137 -200 336 -200 570
c0 444 269 765 640 765zM705 15c357 0 615 313 615 745c0 226 -71 419 -189 552l-839 -1119c107 -113 250 -178 413 -178zM705 1505c-357 0 -615 -313 -615 -745c0 -226 71 -419 189 -552l839 1119c-107 113 -250 178 -413 178z" />
    <glyph glyph-name="oslashacute" unicode="&#x1ff;" horiz-adv-x="1110" 
d="M541 1179l288 271c6 6 14 3 17 0s8 -11 2 -17l-293 -268zM555 1045c124 0 233 -42 317 -115l110 136l16 -12l-111 -138c99 -94 158 -233 158 -396c0 -304 -206 -525 -490 -525c-124 0 -233 42 -317 115l-110 -136l-16 12l111 138c-99 94 -158 233 -158 396
c0 304 206 525 490 525zM555 1025c-270 0 -465 -212 -465 -505c0 -156 55 -289 147 -379l621 771c-80 71 -184 113 -303 113zM555 15c270 0 465 212 465 505c0 156 -55 289 -147 379l-621 -771c80 -71 184 -113 303 -113z" />
    <glyph glyph-name="uni0200" unicode="&#x200;" 
d="M572 1640l-14 -14l-293 268c-6 6 -1 14 2 17s11 6 17 0zM972 1640l-14 -14l-293 268c-6 6 -1 14 2 17s11 6 17 0zM327 500h712l-322 900c-18 50 -20 62 -21 67h-23zM20 0v15h5c86 0 115 20 134 74l510 1424c2 5 6 7 9 7h27c7 0 10 -6 10 -10c0 -20 5 -49 25 -104
l469 -1308c23 -63 52 -83 131 -83h40v-15h-390v15h100c81 0 106 7 106 34c0 11 -4 26 -11 45l-139 386h-726l-143 -397c-3 -10 -5 -18 -5 -25c0 -36 44 -43 147 -43h41v-15h-340z" />
    <glyph glyph-name="uni0201" unicode="&#x201;" horiz-adv-x="1110" 
d="M403 1240l-14 -14l-293 268c-6 6 -1 14 2 17s11 6 17 0zM803 1240l-14 -14l-293 268c-6 6 -1 14 2 17s11 6 17 0zM875 646c-67 -111 -309 -115 -419 -126c-202 -21 -366 -85 -366 -260c0 -142 153 -245 365 -245c237 0 420 218 420 430v201zM571 1045
c191 0 329 -136 329 -324v-486l16 -95c14 -84 33 -119 61 -120l107 10l2 -20l-109 -15h-1c-49 0 -72 60 -85 141c-5 31 -16 90 -16 98v22c0 18 -3 27 -7 27s-9 -7 -15 -21c-69 -148 -218 -267 -398 -267c-226 0 -390 111 -390 265c0 192 185 259 389 280
c124 13 379 22 416 143c3 11 5 22 5 32v6c-1 175 -124 304 -301 304c-200 0 -362 -89 -362 -199c0 -13 -8 -21 -21 -21s-21 8 -21 21c0 121 180 219 401 219z" />
    <glyph glyph-name="uni0202" unicode="&#x202;" 
d="M689 1831c-105 0 -189 -37 -249 -111l-17 12c42 53 119 119 266 119c151 0 226 -69 266 -119l-17 -12c-64 78 -148 111 -249 111zM327 500h712l-322 900c-18 50 -20 62 -21 67h-23zM20 0v15h5c86 0 115 20 134 74l510 1424c2 5 6 7 9 7h27c7 0 10 -6 10 -10
c0 -20 5 -49 25 -104l469 -1308c23 -63 52 -83 131 -83h40v-15h-390v15h100c81 0 106 7 106 34c0 11 -4 26 -11 45l-139 386h-726l-143 -397c-3 -10 -5 -18 -5 -25c0 -36 44 -43 147 -43h41v-15h-340z" />
    <glyph glyph-name="uni0203" unicode="&#x203;" horiz-adv-x="1110" 
d="M520 1431c-105 0 -189 -37 -249 -111l-17 12c42 53 119 119 266 119c151 0 226 -69 266 -119l-17 -12c-64 78 -148 111 -249 111zM875 646c-67 -111 -309 -115 -419 -126c-202 -21 -366 -85 -366 -260c0 -142 153 -245 365 -245c237 0 420 218 420 430v201zM571 1045
c191 0 329 -136 329 -324v-486l16 -95c14 -84 33 -119 61 -120l107 10l2 -20l-109 -15h-1c-49 0 -72 60 -85 141c-5 31 -16 90 -16 98v22c0 18 -3 27 -7 27s-9 -7 -15 -21c-69 -148 -218 -267 -398 -267c-226 0 -390 111 -390 265c0 192 185 259 389 280
c124 13 379 22 416 143c3 11 5 22 5 32v6c-1 175 -124 304 -301 304c-200 0 -362 -89 -362 -199c0 -13 -8 -21 -21 -21s-21 8 -21 21c0 121 180 219 401 219z" />
    <glyph glyph-name="uni0204" unicode="&#x204;" horiz-adv-x="1290" 
d="M543 1640l-14 -14l-293 268c-6 6 -1 14 2 17s11 6 17 0zM943 1640l-14 -14l-293 268c-6 6 -1 14 2 17s11 6 17 0zM50 1520h1070c7 0 10 -6 10 -9l25 -380l-20 -2l-16 254c-6 88 -39 117 -127 117h-726l-1 -740h395c40 0 40 188 40 270v60h20v-680h-20v60
c0 88 0 270 -40 270h-395v-720h807c91 0 121 32 127 117l16 254l20 -2l-25 -380c0 -7 -7 -9 -10 -9h-1150v15h40c137 0 150 27 150 56v1384c0 31 -18 50 -150 50h-40v15z" />
    <glyph glyph-name="uni0205" unicode="&#x205;" horiz-adv-x="1090" 
d="M458 1240l-14 -14l-293 268c-6 6 -1 14 2 17s11 6 17 0zM858 1240l-14 -14l-293 268c-6 6 -1 14 2 17s11 6 17 0zM949 550c35 0 45 35 45 68c0 11 -1 21 -3 30c-39 223 -198 377 -436 377c-252 0 -452 -186 -464 -475h858zM90 530v-10c0 -292 187 -505 455 -505
c226 0 364 98 439 231l18 -10c-78 -139 -225 -241 -457 -241c-281 0 -480 224 -480 525v21c9 295 214 504 490 504c286 0 470 -215 470 -505c0 -7 -6 -10 -10 -10h-925z" />
    <glyph glyph-name="uni0206" unicode="&#x206;" horiz-adv-x="1290" 
d="M660 1831c-105 0 -189 -37 -249 -111l-17 12c42 53 119 119 266 119c151 0 226 -69 266 -119l-17 -12c-64 78 -148 111 -249 111zM50 1520h1070c7 0 10 -6 10 -9l25 -380l-20 -2l-16 254c-6 88 -39 117 -127 117h-726l-1 -740h395c40 0 40 188 40 270v60h20v-680h-20v60
c0 88 0 270 -40 270h-395v-720h807c91 0 121 32 127 117l16 254l20 -2l-25 -380c0 -7 -7 -9 -10 -9h-1150v15h40c137 0 150 27 150 56v1384c0 31 -18 50 -150 50h-40v15z" />
    <glyph glyph-name="uni0207" unicode="&#x207;" horiz-adv-x="1090" 
d="M575 1431c-105 0 -189 -37 -249 -111l-17 12c42 53 119 119 266 119c151 0 226 -69 266 -119l-17 -12c-64 78 -148 111 -249 111zM949 550c35 0 45 35 45 68c0 11 -1 21 -3 30c-39 223 -198 377 -436 377c-252 0 -452 -186 -464 -475h858zM90 530v-10
c0 -292 187 -505 455 -505c226 0 364 98 439 231l18 -10c-78 -139 -225 -241 -457 -241c-281 0 -480 224 -480 525v21c9 295 214 504 490 504c286 0 470 -215 470 -505c0 -7 -6 -10 -10 -10h-925z" />
    <glyph glyph-name="uni0208" unicode="&#x208;" horiz-adv-x="500" 
d="M233 1640l-14 -14l-273 268c-6 6 -1 14 2 17s11 6 17 0zM495 1640l-14 -14l-273 268c-6 6 -1 14 2 17s11 6 17 0zM450 0h-400v15h40c137 0 150 26 150 55v1383c0 31 -18 52 -150 52h-40v15h400v-15h-35c-132 0 -150 -21 -150 -52v-1383c0 -29 13 -55 150 -55h35v-15z" />
    <glyph glyph-name="uni0209" unicode="&#x209;" horiz-adv-x="500" 
d="M265 70c0 -29 13 -55 150 -55h35v-15h-400v15h40c137 0 150 26 150 55v905c0 37 -28 50 -105 50h-25v15h25l130 3v-973zM233 1240l-14 -14l-273 268c-6 6 -1 14 2 17s11 6 17 0zM495 1240l-14 -14l-273 268c-6 6 -1 14 2 17s11 6 17 0z" />
    <glyph glyph-name="uni020A" unicode="&#x20a;" horiz-adv-x="500" 
d="M253 1831c-105 0 -189 -37 -249 -111l-17 12c42 53 119 119 266 119c151 0 226 -69 266 -119l-17 -12c-64 78 -148 111 -249 111zM450 0h-400v15h40c137 0 150 26 150 55v1383c0 31 -18 52 -150 52h-40v15h400v-15h-35c-132 0 -150 -21 -150 -52v-1383
c0 -29 13 -55 150 -55h35v-15z" />
    <glyph glyph-name="uni020B" unicode="&#x20b;" horiz-adv-x="500" 
d="M250 1431c-105 0 -189 -37 -249 -111l-17 12c42 53 119 119 266 119c151 0 226 -69 266 -119l-17 -12c-64 78 -148 111 -249 111zM265 70c0 -29 13 -55 150 -55h35v-15h-400v15h40c137 0 150 26 150 55v905c0 37 -28 50 -105 50h-25v15h25l130 3v-973z" />
    <glyph glyph-name="uni020C" unicode="&#x20c;" horiz-adv-x="1410" 
d="M588 1640l-14 -14l-293 268c-6 6 -1 14 2 17s11 6 17 0zM988 1640l-14 -14l-293 268c-6 6 -1 14 2 17s11 6 17 0zM705 -5c-371 0 -640 321 -640 765s269 765 640 765s640 -321 640 -765s-269 -765 -640 -765zM705 15c357 0 615 313 615 745s-258 745 -615 745
s-615 -313 -615 -745s258 -745 615 -745z" />
    <glyph glyph-name="uni020D" unicode="&#x20d;" horiz-adv-x="1110" 
d="M433 1240l-14 -14l-293 268c-6 6 -1 14 2 17s11 6 17 0zM833 1240l-14 -14l-293 268c-6 6 -1 14 2 17s11 6 17 0zM555 1045c284 0 490 -221 490 -525s-206 -525 -490 -525s-490 221 -490 525s206 525 490 525zM555 1025c-270 0 -465 -212 -465 -505s195 -505 465 -505
s465 212 465 505s-195 505 -465 505z" />
    <glyph glyph-name="uni020E" unicode="&#x20e;" horiz-adv-x="1410" 
d="M705 1831c-105 0 -189 -37 -249 -111l-17 12c42 53 119 119 266 119c151 0 226 -69 266 -119l-17 -12c-64 78 -148 111 -249 111zM705 -5c-371 0 -640 321 -640 765s269 765 640 765s640 -321 640 -765s-269 -765 -640 -765zM705 15c357 0 615 313 615 745
s-258 745 -615 745s-615 -313 -615 -745s258 -745 615 -745z" />
    <glyph glyph-name="uni020F" unicode="&#x20f;" horiz-adv-x="1110" 
d="M550 1431c-105 0 -189 -37 -249 -111l-17 12c42 53 119 119 266 119c151 0 226 -69 266 -119l-17 -12c-64 78 -148 111 -249 111zM555 1045c284 0 490 -221 490 -525s-206 -525 -490 -525s-490 221 -490 525s206 525 490 525zM555 1025c-270 0 -465 -212 -465 -505
s195 -505 465 -505s465 212 465 505s-195 505 -465 505z" />
    <glyph glyph-name="uni0210" unicode="&#x210;" horiz-adv-x="1385" 
d="M518 1640l-14 -14l-293 268c-6 6 -1 14 2 17s11 6 17 0zM918 1640l-14 -14l-293 268c-6 6 -1 14 2 17s11 6 17 0zM50 1520h585c331 0 570 -185 570 -440c0 -240 -211 -418 -511 -438c157 -40 226 -149 294 -336c45 -125 103 -287 223 -287c38 0 55 13 84 36
c4 3 10 5 14 5c6 0 12 -3 16 -9c3 -4 5 -9 5 -13c0 -6 -3 -12 -9 -16c-34 -26 -65 -37 -115 -37c-141 0 -194 197 -237 315c-87 241 -169 340 -444 340h-260v-570c0 -29 13 -55 150 -55h35v-15h-400v15h40c137 0 150 26 150 55v1385c0 31 -18 50 -150 50h-40v15zM266 1500
l-1 -840h260h107c319 0 548 176 548 420s-229 420 -548 420h-366z" />
    <glyph glyph-name="uni0211" unicode="&#x211;" horiz-adv-x="830" 
d="M323 1240l-14 -14l-293 268c-6 6 -1 14 2 17s11 6 17 0zM723 1240l-14 -14l-293 268c-6 6 -1 14 2 17s11 6 17 0zM782 895c0 -14 -10 -24 -25 -24s-25 10 -25 24c0 77 -32 130 -116 130c-201 0 -351 -220 -351 -470v-485c0 -29 13 -55 150 -55h55v-15h-420v15h40
c137 0 150 26 150 55v905c0 37 -28 50 -105 50h-25v15h25l130 3v-330c48 186 180 332 351 332c93 0 166 -61 166 -150z" />
    <glyph glyph-name="uni0212" unicode="&#x212;" horiz-adv-x="1385" 
d="M635 1831c-105 0 -189 -37 -249 -111l-17 12c42 53 119 119 266 119c151 0 226 -69 266 -119l-17 -12c-64 78 -148 111 -249 111zM50 1520h585c331 0 570 -185 570 -440c0 -240 -211 -418 -511 -438c157 -40 226 -149 294 -336c45 -125 103 -287 223 -287
c38 0 55 13 84 36c4 3 10 5 14 5c6 0 12 -3 16 -9c3 -4 5 -9 5 -13c0 -6 -3 -12 -9 -16c-34 -26 -65 -37 -115 -37c-141 0 -194 197 -237 315c-87 241 -169 340 -444 340h-260v-570c0 -29 13 -55 150 -55h35v-15h-400v15h40c137 0 150 26 150 55v1385c0 31 -18 50 -150 50
h-40v15zM266 1500l-1 -840h260h107c319 0 548 176 548 420s-229 420 -548 420h-366z" />
    <glyph glyph-name="uni0213" unicode="&#x213;" horiz-adv-x="830" 
d="M440 1431c-105 0 -189 -37 -249 -111l-17 12c42 53 119 119 266 119c151 0 226 -69 266 -119l-17 -12c-64 78 -148 111 -249 111zM782 895c0 -14 -10 -24 -25 -24s-25 10 -25 24c0 77 -32 130 -116 130c-201 0 -351 -220 -351 -470v-485c0 -29 13 -55 150 -55h55v-15
h-420v15h40c137 0 150 26 150 55v905c0 37 -28 50 -105 50h-25v15h25l130 3v-330c48 186 180 332 351 332c93 0 166 -61 166 -150z" />
    <glyph glyph-name="uni0214" unicode="&#x214;" 
d="M598 1640l-14 -14l-293 268c-6 6 -1 14 2 17s11 6 17 0zM998 1640l-14 -14l-293 268c-6 6 -1 14 2 17s11 6 17 0zM30 1520h440v-15h-75c-137 0 -150 -26 -150 -55v-965c0 -271 186 -470 455 -470c277 0 480 195 480 470v965c0 29 -13 55 -150 55h-75v15h415v-15h-20
c-137 0 -150 -26 -150 -55v-965c0 -286 -213 -490 -500 -490c-280 0 -480 208 -480 490v965c0 29 -13 55 -150 55h-40v15z" />
    <glyph glyph-name="uni0215" unicode="&#x215;" horiz-adv-x="1220" 
d="M473 1240l-14 -14l-293 268c-6 6 -1 14 2 17s11 6 17 0zM873 1240l-14 -14l-293 268c-6 6 -1 14 2 17s11 6 17 0zM50 1025v15h25l130 3v-765c0 -169 103 -260 305 -260c236 0 465 270 465 560v397c0 37 -28 50 -105 50h-25v15h25l130 3v-794l9 -100
c7 -74 35 -133 65 -134l96 16l4 -20l-97 -16h-2c-52 0 -84 78 -91 152l-9 101v101c0 17 -2 31 -7 31c-4 0 -9 -7 -16 -25c-79 -202 -255 -360 -442 -360c-214 0 -330 98 -330 280v700c0 37 -28 50 -105 50h-25z" />
    <glyph glyph-name="uni0216" unicode="&#x216;" 
d="M715 1831c-105 0 -189 -37 -249 -111l-17 12c42 53 119 119 266 119c151 0 226 -69 266 -119l-17 -12c-64 78 -148 111 -249 111zM30 1520h440v-15h-75c-137 0 -150 -26 -150 -55v-965c0 -271 186 -470 455 -470c277 0 480 195 480 470v965c0 29 -13 55 -150 55h-75v15
h415v-15h-20c-137 0 -150 -26 -150 -55v-965c0 -286 -213 -490 -500 -490c-280 0 -480 208 -480 490v965c0 29 -13 55 -150 55h-40v15z" />
    <glyph glyph-name="uni0217" unicode="&#x217;" horiz-adv-x="1220" 
d="M590 1431c-105 0 -189 -37 -249 -111l-17 12c42 53 119 119 266 119c151 0 226 -69 266 -119l-17 -12c-64 78 -148 111 -249 111zM50 1025v15h25l130 3v-765c0 -169 103 -260 305 -260c236 0 465 270 465 560v397c0 37 -28 50 -105 50h-25v15h25l130 3v-794l9 -100
c7 -74 35 -133 65 -134l96 16l4 -20l-97 -16h-2c-52 0 -84 78 -91 152l-9 101v101c0 17 -2 31 -7 31c-4 0 -9 -7 -16 -25c-79 -202 -255 -360 -442 -360c-214 0 -330 98 -330 280v700c0 37 -28 50 -105 50h-25z" />
    <glyph glyph-name="Scommaaccent" unicode="&#x218;" horiz-adv-x="1146" 
d="M562 -186c0 21 18 40 40 40c21 0 40 -18 40 -40c0 -89 -28 -143 -93 -214l-15 13c55 60 83 110 83 164h-1c-4 -2 -9 -3 -14 -3c-21 0 -40 18 -40 40zM556 1503c-225 0 -382 -114 -382 -272c0 -243 269 -325 435 -422c178 -104 477 -205 477 -495
c0 -185 -206 -319 -490 -319c-154 0 -325 47 -427 146c-24 26 -44 47 -58 47c-13 0 -20 -17 -21 -64l-5 -144h-15l13 380h15v-11c0 -221 262 -332 498 -332c273 0 465 124 465 297c0 275 -280 367 -462 473c-159 93 -450 184 -450 444c0 174 177 294 407 294
c107 0 251 -38 341 -141c17 -20 30 -29 38 -29c11 0 15 15 15 46c0 5 -1 10 -1 15c0 0 -3 85 -4 124h16l15 -380c0 -4 -3 -7 -8 -7s-8 3 -8 7l-3 29c-25 238 -247 314 -401 314z" />
    <glyph glyph-name="scommaaccent" unicode="&#x219;" horiz-adv-x="1010" 
d="M489 -186c0 21 18 40 40 40c21 0 40 -18 40 -40c0 -89 -28 -143 -93 -214l-15 13c55 60 83 110 83 164h-1c-4 -2 -9 -3 -14 -3c-21 0 -40 18 -40 40zM485 1045c87 0 207 -15 314 -101c20 -16 31 -30 39 -30c11 0 15 15 15 46c0 5 -1 10 -1 15c0 0 -1 26 -2 65h16l11 -300
c0 -4 -3 -7 -8 -7s-8 3 -8 7l-1 8c-10 76 -26 142 -73 180c-100 82 -217 97 -302 97c-191 0 -330 -94 -330 -224c0 -249 795 -165 795 -557c0 -144 -183 -249 -435 -249c-144 0 -239 25 -347 117c-26 24 -49 46 -63 46c-13 0 -19 -17 -21 -64l-4 -94h-15l12 330h15v-11
c0 -79 36 -146 93 -193c103 -84 189 -111 330 -111c238 0 410 96 410 229c0 367 -795 275 -795 557c0 142 149 244 355 244z" />
    <glyph glyph-name="uni021A" unicode="&#x21a;" horiz-adv-x="1310" 
d="M619 -186c0 21 18 40 40 40c21 0 40 -18 40 -40c0 -89 -28 -143 -93 -214l-15 13c55 60 83 110 83 164h-1c-4 -2 -9 -3 -14 -3c-21 0 -40 18 -40 40zM76 1520h1158c3 0 10 -2 10 -9l21 -320l-16 -2l-12 186c-7 95 -36 125 -137 125h-430v-1430c0 -29 13 -55 150 -55h35
v-15h-400v15h40c137 0 150 26 150 55v1430h-435c-101 0 -130 -30 -137 -125l-12 -186l-16 2l21 320c0 7 7 9 10 9z" />
    <glyph glyph-name="uni021B" unicode="&#x21b;" horiz-adv-x="830" 
d="M476 -186c0 21 18 40 40 40c21 0 40 -18 40 -40c0 -89 -28 -143 -93 -214l-15 13c55 60 83 110 83 164h-1c-4 -2 -9 -3 -14 -3c-21 0 -40 18 -40 40zM40 1000v20h90c87 0 100 17 100 123v177h20v-266c0 -22 9 -34 36 -34h474v-20h-474c-27 0 -36 -13 -36 -35v-575
c0 -218 110 -375 261 -375c90 0 188 38 241 122l16 -10c-57 -91 -162 -132 -257 -132c-166 0 -286 166 -286 395v575c0 22 -9 35 -36 35h-149z" />
    <glyph glyph-name="uni021E" unicode="&#x21e;" horiz-adv-x="1460" 
d="M420 1910l307 -270h6l307 270l14 -15l-313 -275h-22l-313 275zM50 1520h440v-15h-75c-137 0 -150 -23 -150 -52v-633h930v633c0 29 -13 52 -150 52h-75v15h440v-15h-40c-137 0 -150 -23 -150 -52v-1381c0 -29 13 -57 150 -57h40v-15h-440v15h75c137 0 150 28 150 57v728
h-930v-728c0 -29 13 -57 150 -57h75v-15h-440v15h40c137 0 150 28 150 57v1381c0 29 -13 52 -150 52h-40v15z" />
    <glyph glyph-name="uni021F" unicode="&#x21f;" horiz-adv-x="1290" 
d="M145 1870l307 -270h6l307 270l14 -15l-313 -275h-22l-313 275zM90 1520h45l130 3v-832c0 -17 2 -31 7 -31c4 0 9 7 16 25c79 202 255 360 442 360c214 0 330 -98 330 -280v-695c0 -29 13 -55 150 -55h40v-15h-420v15h55c137 0 150 26 150 55v692c0 169 -107 260 -305 260
c-232 0 -465 -280 -465 -560v-392c0 -29 13 -55 150 -55h55v-15h-420v15h40c137 0 150 26 150 55v1385c0 37 -28 50 -105 50h-45v15z" />
    <glyph glyph-name="uni0226" unicode="&#x226;" 
d="M649 1780c0 21 18 40 40 40c21 0 40 -18 40 -40c0 -21 -18 -40 -40 -40c-21 0 -40 18 -40 40zM327 500h712l-322 900c-18 50 -20 62 -21 67h-23zM20 0v15h5c86 0 115 20 134 74l510 1424c2 5 6 7 9 7h27c7 0 10 -6 10 -10c0 -20 5 -49 25 -104l469 -1308
c23 -63 52 -83 131 -83h40v-15h-390v15h100c81 0 106 7 106 34c0 11 -4 26 -11 45l-139 386h-726l-143 -397c-3 -10 -5 -18 -5 -25c0 -36 44 -43 147 -43h41v-15h-340z" />
    <glyph glyph-name="uni0227" unicode="&#x227;" horiz-adv-x="1110" 
d="M480 1380c0 21 18 40 40 40c21 0 40 -18 40 -40c0 -21 -18 -40 -40 -40c-21 0 -40 18 -40 40zM875 646c-67 -111 -309 -115 -419 -126c-202 -21 -366 -85 -366 -260c0 -142 153 -245 365 -245c237 0 420 218 420 430v201zM571 1045c191 0 329 -136 329 -324v-486l16 -95
c14 -84 33 -119 61 -120l107 10l2 -20l-109 -15h-1c-49 0 -72 60 -85 141c-5 31 -16 90 -16 98v22c0 18 -3 27 -7 27s-9 -7 -15 -21c-69 -148 -218 -267 -398 -267c-226 0 -390 111 -390 265c0 192 185 259 389 280c124 13 379 22 416 143c3 11 5 22 5 32v6
c-1 175 -124 304 -301 304c-200 0 -362 -89 -362 -199c0 -13 -8 -21 -21 -21s-21 8 -21 21c0 121 180 219 401 219z" />
    <glyph glyph-name="uni0228" unicode="&#x228;" horiz-adv-x="1290" 
d="M1215 391l20 -2l-25 -380c0 -7 -7 -9 -10 -9h-568l-32 -129c27 8 49 16 85 16c94 0 173 -77 173 -176c0 -85 -80 -156 -180 -156c-68 0 -133 32 -165 86c-1 2 -4 9 3 13s13 -1 14 -3c28 -46 85 -76 148 -76c92 0 160 64 160 136c0 88 -71 156 -153 156
c-43 0 -65 -10 -96 -20c-7 -2 -11 2 -12 6c-1 3 0 5 0 6l34 141h-561v15h40c137 0 150 27 150 56v1384c0 31 -18 50 -150 50h-40v15h1070c7 0 10 -6 10 -9l25 -380l-20 -2l-16 254c-6 88 -39 117 -127 117h-726l-1 -740h395c40 0 40 188 40 270v60h20v-680h-20v60
c0 88 0 270 -40 270h-395v-720h807c91 0 121 32 127 117z" />
    <glyph glyph-name="uni0229" unicode="&#x229;" horiz-adv-x="1090" 
d="M90 530v-10c0 -292 187 -505 455 -505c226 0 364 98 439 231l18 -10c-78 -139 -225 -241 -457 -241c-11 0 -21 0 -32 1l-33 -130c27 8 49 16 85 16c94 0 173 -77 173 -176c0 -85 -80 -156 -180 -156c-68 0 -133 32 -165 86c-1 2 -4 9 3 13s13 -1 14 -3
c28 -46 85 -76 148 -76c92 0 160 64 160 136c0 88 -71 156 -153 156c-43 0 -65 -10 -96 -20c-7 -2 -11 2 -12 6c-1 3 0 5 0 6l35 144c-253 26 -427 240 -427 522v21c9 295 214 504 490 504c286 0 470 -215 470 -505c0 -7 -6 -10 -10 -10h-925zM91 550h858c35 0 45 35 45 68
c0 11 -1 21 -3 30c-39 223 -198 377 -436 377c-252 0 -464 -195 -464 -475z" />
    <glyph glyph-name="uni022E" unicode="&#x22e;" horiz-adv-x="1410" 
d="M665 1780c0 21 18 40 40 40c21 0 40 -18 40 -40c0 -21 -18 -40 -40 -40c-21 0 -40 18 -40 40zM705 -5c-371 0 -640 321 -640 765s269 765 640 765s640 -321 640 -765s-269 -765 -640 -765zM705 15c357 0 615 313 615 745s-258 745 -615 745s-615 -313 -615 -745
s258 -745 615 -745z" />
    <glyph glyph-name="uni022F" unicode="&#x22f;" horiz-adv-x="1110" 
d="M510 1380c0 21 18 40 40 40c21 0 40 -18 40 -40c0 -21 -18 -40 -40 -40c-21 0 -40 18 -40 40zM555 1045c284 0 490 -221 490 -525s-206 -525 -490 -525s-490 221 -490 525s206 525 490 525zM555 1025c-270 0 -465 -212 -465 -505s195 -505 465 -505s465 212 465 505
s-195 505 -465 505z" />
    <glyph glyph-name="uni0232" unicode="&#x232;" horiz-adv-x="1320" 
d="M978 1800h-640v20h640v-20zM10 1520h404v-15h-142c-63 0 -99 -5 -99 -33c0 -9 4 -21 11 -35l474 -867l474 867c7 14 11 26 11 35c0 28 -36 33 -99 33h-142v15h408v-15h-36c-34 0 -83 -2 -124 -78l-480 -877v-480c0 -29 13 -55 150 -55h35v-15h-400v15h40
c137 0 150 26 150 55v472l-4 8l-480 877c-41 76 -90 78 -124 78h-27v15z" />
    <glyph glyph-name="uni0233" unicode="&#x233;" horiz-adv-x="1160" 
d="M742 1040h398v-15h-11c-70 0 -107 -21 -128 -74l-419 -996c-111 -264 -233 -434 -427 -434c-165 0 -275 78 -275 195c0 17 4 34 11 51c4 10 12 15 21 15c4 0 7 0 11 -2c10 -4 16 -13 16 -22c0 -3 -1 -7 -2 -10c-7 -17 -11 -33 -11 -49c0 -95 92 -158 230 -158
c182 0 299 164 407 421l6 13c1 2 1 4 1 7c0 14 -9 41 -15 56l-352 852c-43 104 -59 118 -124 118c-14 0 -29 -2 -47 -8c-2 -1 -5 -2 -7 -2c-12 0 -19 6 -19 19c0 26 49 28 68 28c88 0 107 -37 153 -149l343 -827c9 -21 12 -29 19 -29s10 9 19 30l375 887c5 13 9 23 9 32
c0 32 -43 36 -150 36h-100v15zM880 1400h-640v20h640v-20z" />
    <glyph glyph-name="uni0237" unicode="&#x237;" horiz-adv-x="380" 
d="M-34 -447c122 0 254 88 254 367v1055c0 37 -28 50 -105 50h-45v15h45l130 3v-1123c0 -286 -141 -400 -294 -400c-35 0 -80 16 -107 37c-6 4 -9 10 -9 16c0 11 11 22 21 22c4 0 10 -2 14 -5c29 -23 63 -37 96 -37z" />
    <glyph glyph-name="circumflex" unicode="&#x2c6;" horiz-adv-x="880" 
d="M130 1210l-14 15l313 275h22l313 -275l-14 -15l-307 270h-6z" />
    <glyph glyph-name="caron" unicode="&#x2c7;" horiz-adv-x="880" 
d="M130 1510l307 -270h6l307 270l14 -15l-313 -275h-22l-313 275z" />
    <glyph glyph-name="uni02C9" unicode="&#x2c9;" horiz-adv-x="800" 
d="M720 1400h-640v20h640v-20z" />
    <glyph glyph-name="uni02CA" unicode="&#x2ca;" horiz-adv-x="480" 
d="M77 1240l288 271c6 6 14 3 17 0s8 -11 2 -17l-293 -268z" />
    <glyph glyph-name="uni02CB" unicode="&#x2cb;" horiz-adv-x="480" 
d="M403 1240l-14 -14l-293 268c-6 6 -1 14 2 17s11 6 17 0z" />
    <glyph glyph-name="breve" unicode="&#x2d8;" horiz-adv-x="640" 
d="M320 1330c105 0 189 37 249 111l17 -12c-42 -53 -119 -119 -266 -119c-151 0 -226 69 -266 119l17 12c64 -78 148 -111 249 -111z" />
    <glyph glyph-name="dotaccent" unicode="&#x2d9;" horiz-adv-x="320" 
d="M120 1380c0 21 18 40 40 40c21 0 40 -18 40 -40c0 -21 -18 -40 -40 -40c-21 0 -40 18 -40 40z" />
    <glyph glyph-name="ring" unicode="&#x2da;" horiz-adv-x="560" 
d="M280 1470c84 0 150 -61 150 -150c0 -84 -61 -150 -150 -150c-84 0 -150 61 -150 150c0 84 61 150 150 150zM280 1450c-78 0 -130 -56 -130 -130c0 -78 56 -130 130 -130c78 0 130 56 130 130c0 78 -56 130 -130 130z" />
    <glyph glyph-name="ogonek" unicode="&#x2db;" horiz-adv-x="560" 
d="M404 83c-78 -66 -269 -145 -269 -325c1 -71 45 -138 139 -138c52 0 112 22 168 86c6 7 14 2 15 1s6 -7 0 -14c-60 -68 -125 -93 -183 -93c-106 0 -163 77 -164 158c0 194 211 280 281 340z" />
    <glyph glyph-name="tilde" unicode="&#x2dc;" horiz-adv-x="560" 
d="M532 1448c9 -2 8 -10 8 -12c-13 -72 -61 -106 -113 -106c-127 0 -184 108 -294 108c-45 0 -82 -27 -93 -87c-2 -9 -10 -9 -12 -9s-10 3 -8 12c12 68 57 106 113 106c124 0 182 -108 294 -108c42 0 82 24 93 88c0 2 3 10 12 8z" />
    <glyph glyph-name="hungarumlaut" unicode="&#x2dd;" horiz-adv-x="960" 
d="M102 1240l317 265c7 6 14 2 17 -1s7 -11 0 -17l-321 -262zM499 1240l317 265c7 6 14 2 17 -1s7 -11 0 -17l-321 -262z" />
    <glyph glyph-name="uni02F5" unicode="&#x2f5;" horiz-adv-x="880" 
d="M403 1240l-14 -14l-293 268c-6 6 -1 14 2 17s11 6 17 0zM803 1240l-14 -14l-293 268c-6 6 -1 14 2 17s11 6 17 0z" />
    <glyph glyph-name="gravecomb" unicode="&#x300;" horiz-adv-x="0" 
d="M-77 1240l-14 -14l-293 268c-6 6 -1 14 2 17s11 6 17 0z" />
    <glyph glyph-name="acutecomb" unicode="&#x301;" horiz-adv-x="0" 
d="M-403 1240l288 271c6 6 14 3 17 0s8 -11 2 -17l-293 -268z" />
    <glyph glyph-name="uni0302" unicode="&#x302;" horiz-adv-x="0" 
d="M-750 1210l-14 15l313 275h22l313 -275l-14 -15l-307 270h-6z" />
    <glyph glyph-name="tildecomb" unicode="&#x303;" horiz-adv-x="0" 
d="M-28 1448c9 -2 8 -10 8 -12c-13 -72 -61 -106 -113 -106c-127 0 -184 108 -294 108c-45 0 -82 -27 -93 -87c-2 -9 -10 -9 -12 -9s-10 3 -8 12c12 68 57 106 113 106c124 0 182 -108 294 -108c42 0 82 24 93 88c0 2 3 10 12 8z" />
    <glyph glyph-name="uni0304" unicode="&#x304;" horiz-adv-x="0" 
d="M-80 1400h-640v20h640v-20z" />
    <glyph glyph-name="uni0305" unicode="&#x305;" horiz-adv-x="0" 
d="M0 1400h-800v20h800v-20z" />
    <glyph glyph-name="uni0306" unicode="&#x306;" horiz-adv-x="0" 
d="M-320 1330c105 0 189 37 249 111l17 -12c-42 -53 -119 -119 -266 -119c-151 0 -226 69 -266 119l17 12c64 -78 148 -111 249 -111z" />
    <glyph glyph-name="uni0307" unicode="&#x307;" horiz-adv-x="0" 
d="M-200 1380c0 21 18 40 40 40c21 0 40 -18 40 -40c0 -21 -18 -40 -40 -40c-21 0 -40 18 -40 40z" />
    <glyph glyph-name="uni0308" unicode="&#x308;" horiz-adv-x="0" 
d="M-680 1340c0 21 18 40 40 40c21 0 40 -18 40 -40c0 -21 -18 -40 -40 -40c-21 0 -40 18 -40 40zM-200 1340c0 21 18 40 40 40c21 0 40 -18 40 -40c0 -21 -18 -40 -40 -40c-21 0 -40 18 -40 40z" />
    <glyph glyph-name="hookabovecomb" unicode="&#x309;" horiz-adv-x="320" 
d="M60 1340c0 55 45 100 100 100s100 -45 100 -100s-45 -100 -100 -100s-100 45 -100 100z" />
    <glyph glyph-name="uni030A" unicode="&#x30a;" horiz-adv-x="0" 
d="M-280 1470c84 0 150 -61 150 -150c0 -84 -61 -150 -150 -150c-84 0 -150 61 -150 150c0 84 61 150 150 150zM-280 1450c-78 0 -130 -56 -130 -130c0 -78 56 -130 130 -130c78 0 130 56 130 130c0 78 -56 130 -130 130z" />
    <glyph glyph-name="uni030B" unicode="&#x30b;" horiz-adv-x="0" 
d="M-858 1240l317 265c7 6 14 2 17 -1s7 -11 0 -17l-321 -262zM-461 1240l317 265c7 6 14 2 17 -1s7 -11 0 -17l-321 -262z" />
    <glyph glyph-name="uni030C" unicode="&#x30c;" horiz-adv-x="0" 
d="M-750 1510l307 -270h6l307 270l14 -15l-313 -275h-22l-313 275z" />
    <glyph glyph-name="uni030D" unicode="&#x30d;" horiz-adv-x="320" 
d="M60 1340c0 55 45 100 100 100s100 -45 100 -100s-45 -100 -100 -100s-100 45 -100 100z" />
    <glyph glyph-name="uni030E" unicode="&#x30e;" horiz-adv-x="0" 
d="M-160 1392v-254h-20v254h20zM-20 1392v-254h-20v254h20z" />
    <glyph glyph-name="uni030F" unicode="&#x30f;" horiz-adv-x="0" 
d="M-477 1240l-14 -14l-293 268c-6 6 -1 14 2 17s11 6 17 0zM-77 1240l-14 -14l-293 268c-6 6 -1 14 2 17s11 6 17 0z" />
    <glyph glyph-name="uni0310" unicode="&#x310;" horiz-adv-x="0" 
d="M-360 1460c0 21 18 40 40 40c21 0 40 -18 40 -40c0 -21 -18 -40 -40 -40c-21 0 -40 18 -40 40zM-320 1296c101 0 185 33 249 111l17 -12c-40 -50 -115 -119 -266 -119c-147 0 -224 66 -266 119l17 12c60 -74 144 -111 249 -111z" />
    <glyph glyph-name="uni0311" unicode="&#x311;" horiz-adv-x="0" 
d="M-320 1431c-105 0 -189 -37 -249 -111l-17 12c42 53 119 119 266 119c151 0 226 -69 266 -119l-17 -12c-64 78 -148 111 -249 111z" />
    <glyph glyph-name="uni0312" unicode="&#x312;" horiz-adv-x="0" 
d="M-100 1296c0 -21 -18 -40 -40 -40c-21 0 -40 18 -40 40c0 89 28 143 93 214l15 -13c-55 -60 -83 -110 -83 -164h1c4 2 9 3 14 3c21 0 40 -18 40 -40z" />
    <glyph glyph-name="uni0313" unicode="&#x313;" horiz-adv-x="0" 
d="M-152 1470c0 21 18 40 40 40c21 0 40 -18 40 -40c0 -89 -28 -143 -93 -214l-15 13c55 60 83 110 83 164h-1c-4 -2 -9 -3 -14 -3c-21 0 -40 18 -40 40z" />
    <glyph glyph-name="uni0314" unicode="&#x314;" horiz-adv-x="0" 
d="M-100 1470c0 -22 -19 -40 -40 -40c-5 0 -10 1 -14 3h-1c0 -54 28 -104 83 -164l-15 -13c-65 71 -93 125 -93 214c0 22 19 40 40 40c22 0 40 -19 40 -40z" />
    <glyph glyph-name="uni0400" unicode="&#x400;" horiz-adv-x="1290" 
d="M773 1640l-14 -14l-293 268c-6 6 -1 14 2 17s11 6 17 0zM50 1520h1070c7 0 10 -6 10 -9l25 -380l-20 -2l-16 254c-6 88 -39 117 -127 117h-726l-1 -740h395c40 0 40 188 40 270v60h20v-680h-20v60c0 88 0 270 -40 270h-395v-720h807c91 0 121 32 127 117l16 254l20 -2
l-25 -380c0 -7 -7 -9 -10 -9h-1150v15h40c137 0 150 27 150 56v1384c0 31 -18 50 -150 50h-40v15z" />
    <glyph glyph-name="afii10023" unicode="&#x401;" horiz-adv-x="1290" 
d="M380 1740c0 21 18 40 40 40c21 0 40 -18 40 -40c0 -21 -18 -40 -40 -40c-21 0 -40 18 -40 40zM860 1740c0 21 18 40 40 40c21 0 40 -18 40 -40c0 -21 -18 -40 -40 -40c-21 0 -40 18 -40 40zM50 1520h1070c7 0 10 -6 10 -9l25 -380l-20 -2l-16 254c-6 88 -39 117 -127 117
h-726l-1 -740h395c40 0 40 188 40 270v60h20v-680h-20v60c0 88 0 270 -40 270h-395v-720h807c91 0 121 32 127 117l16 254l20 -2l-25 -380c0 -7 -7 -9 -10 -9h-1150v15h40c137 0 150 27 150 56v1384c0 31 -18 50 -150 50h-40v15z" />
    <glyph glyph-name="afii10051" unicode="&#x402;" horiz-adv-x="1580" 
d="M630 1500v-809c0 -17 2 -31 7 -31c4 0 9 7 16 25c79 202 255 360 442 360c210 0 350 -120 350 -300v-355c0 -286 -141 -400 -294 -400c-35 0 -80 16 -107 37c-6 4 -9 10 -9 16c0 11 11 22 21 22c4 0 10 -2 14 -5c29 -23 63 -37 96 -37c122 0 254 88 254 367v352
c0 168 -130 280 -325 280c-236 0 -465 -270 -465 -560v-392c0 -29 13 -55 150 -55h55v-15h-420v15h40c137 0 150 26 150 55v1430h-395c-101 0 -130 -30 -137 -125l-12 -186l-16 2l21 320c0 7 7 9 10 9h1078c3 0 10 -2 10 -9l21 -320l-16 -2l-12 186c-7 95 -36 125 -137 125
h-390z" />
    <glyph glyph-name="afii10052" unicode="&#x403;" horiz-adv-x="1165" 
d="M557 1640l288 271c6 6 14 3 17 0s8 -11 2 -17l-293 -268zM265 71c0 -29 13 -56 150 -56h40v-15h-405v15h40c137 0 150 27 150 56v1383c0 31 -18 51 -150 51h-40v15h1035c7 0 10 -6 10 -9l25 -380l-20 -2l-16 254c-6 88 -39 117 -127 117h-691z" />
    <glyph glyph-name="afii10053" unicode="&#x404;" horiz-adv-x="1141" 
d="M85 750c4 -432 225 -735 590 -735c177 0 309 77 397 164l14 -14c-91 -89 -228 -170 -411 -170c-382 0 -610 323 -610 767c0 458 244 763 610 763c80 0 234 -45 326 -162c11 -13 19 -18 26 -18c17 0 19 28 19 35v33l-5 127h15l14 -380c0 -5 -3 -8 -7 -8c-5 0 -8 3 -8 8
c-11 254 -270 345 -380 345c-352 0 -587 -293 -590 -735h556l-4 -20h-552z" />
    <glyph glyph-name="afii10054" unicode="&#x405;" horiz-adv-x="1146" 
d="M556 1503c-225 0 -382 -114 -382 -272c0 -243 269 -325 435 -422c178 -104 477 -205 477 -495c0 -185 -206 -319 -490 -319c-154 0 -325 47 -427 146c-24 26 -44 47 -58 47c-13 0 -20 -17 -21 -64l-5 -144h-15l13 380h15v-11c0 -221 262 -332 498 -332
c273 0 465 124 465 297c0 275 -280 367 -462 473c-159 93 -450 184 -450 444c0 174 177 294 407 294c107 0 251 -38 341 -141c17 -20 30 -29 38 -29c11 0 15 15 15 46c0 5 -1 10 -1 15c0 0 -3 85 -4 124h16l15 -380c0 -4 -3 -7 -8 -7s-8 3 -8 7l-3 29
c-25 238 -247 314 -401 314z" />
    <glyph glyph-name="afii10055" unicode="&#x406;" horiz-adv-x="500" 
d="M450 0h-400v15h40c137 0 150 26 150 55v1383c0 31 -18 52 -150 52h-40v15h400v-15h-35c-132 0 -150 -21 -150 -52v-1383c0 -29 13 -55 150 -55h35v-15z" />
    <glyph glyph-name="afii10056" unicode="&#x407;" horiz-adv-x="500" 
d="M-30 1685c0 21 18 40 40 40c21 0 40 -18 40 -40c0 -21 -18 -40 -40 -40c-21 0 -40 18 -40 40zM450 1685c0 21 18 40 40 40c21 0 40 -18 40 -40c0 -21 -18 -40 -40 -40c-21 0 -40 18 -40 40zM450 0h-400v15h40c137 0 150 26 150 55v1383c0 31 -18 52 -150 52h-40v15h400
v-15h-35c-132 0 -150 -21 -150 -52v-1383c0 -29 13 -55 150 -55h35v-15z" />
    <glyph glyph-name="afii10057" unicode="&#x408;" horiz-adv-x="540" 
d="M50 1520h460v-15h-35c-132 0 -150 -19 -150 -50v-1425c0 -296 -161 -510 -384 -510c-35 0 -80 16 -107 37c-6 4 -9 10 -9 16c0 11 11 22 21 22c4 0 10 -2 14 -5c29 -23 63 -37 96 -37c200 0 344 200 344 477v1425c0 31 -18 50 -150 50h-100v15z" />
    <glyph glyph-name="afii10058" unicode="&#x409;" horiz-adv-x="1995" 
d="M1224 1520v-25h-79c-77 0 -105 -13 -105 -50v-640h375c302 0 520 -166 520 -395c0 -238 -202 -410 -480 -410h-630v15h40c137 0 150 26 150 55v1425h-580l-148 -1114c-33 -249 -78 -363 -244 -407c-7 -2 -13 -1 -18 3c-9 7 -11 21 -5 29c2 3 8 7 13 8
c146 37 196 116 229 367l148 1114h-5c-29 0 -81 5 -195 5h-38v20h1052zM1040 785v-765h415c264 0 455 164 455 390c0 218 -208 375 -495 375h-375z" />
    <glyph glyph-name="afii10059" unicode="&#x40a;" horiz-adv-x="2135" 
d="M1180 785v-765h415c264 0 455 164 455 390c0 218 -208 375 -495 375h-375zM1365 1520v-15h-35c-132 0 -150 -21 -150 -52v-648h375c302 0 520 -166 520 -395c0 -238 -202 -410 -480 -410h-630v15h40c137 0 150 26 150 55v715h-890v-713c0 -29 13 -57 150 -57h75v-15h-440
v15h40c137 0 150 28 150 57v1381c0 29 -13 52 -150 52h-40v15h440v-15h-75c-137 0 -150 -23 -150 -52v-648h890v648c0 31 -18 52 -150 52h-40v15h400z" />
    <glyph glyph-name="afii10060" unicode="&#x40b;" horiz-adv-x="1675" 
d="M1635 0h-420v15h55c137 0 150 26 150 55v672c0 168 -130 280 -325 280c-236 0 -465 -270 -465 -560v-392c0 -29 13 -55 150 -55h55v-15h-420v15h40c137 0 150 26 150 55v1430h-395c-101 0 -130 -30 -137 -125l-12 -186l-16 2l21 320c0 7 7 9 10 9h1078c3 0 10 -2 10 -9
l21 -320l-16 -2l-12 186c-7 95 -36 125 -137 125h-390v-809c0 -17 2 -31 7 -31c4 0 9 7 16 25c79 202 255 360 442 360c210 0 350 -120 350 -300v-675c0 -29 13 -55 150 -55h40v-15z" />
    <glyph glyph-name="afii10061" unicode="&#x40c;" horiz-adv-x="1305" 
d="M537 1640l288 271c6 6 14 3 17 0s8 -11 2 -17l-293 -268zM50 1520h420v-15h-55c-132 0 -150 -22 -150 -53v-652h167c22 0 54 20 68 37l477 603c15 19 23 32 23 42c0 16 -22 23 -72 23h-110v15h382v-15h-15c-48 0 -133 -3 -192 -77l-504 -638l509 -647
c64 -81 116 -127 161 -127c38 0 55 13 84 36c4 3 9 5 13 5c10 0 19 -8 19 -19c0 -6 -3 -12 -9 -16c-27 -21 -60 -37 -95 -37c-74 0 -115 45 -194 146l-482 613c-11 15 -41 36 -63 36h-167v-710c0 -29 13 -55 150 -55h55v-15h-420v15h40c137 0 150 26 150 55v1382
c0 31 -18 53 -150 53h-40v15z" />
    <glyph glyph-name="uni040D" unicode="&#x40d;" 
d="M813 1720l-14 -14l-293 268c-6 6 -1 14 2 17s11 6 17 0zM1345 1520v-15h-30c-137 0 -150 -28 -150 -57v-1381c0 -29 13 -52 150 -52h30v-15h-420v15h65c137 0 150 23 150 52v1328l-798 -1189c-43 -65 -74 -118 -74 -152c0 -25 17 -39 58 -39h64v-15h-335v15h30
c137 0 150 28 150 57v1381c0 29 -13 52 -150 52h-30v15h420v-15h-65c-137 0 -150 -23 -150 -52v-1328l798 1189c43 65 74 118 74 152c0 25 -17 39 -58 39h-64v15h335z" />
    <glyph glyph-name="afii10062" unicode="&#x40e;" horiz-adv-x="1230" 
d="M598 1730c105 0 189 37 249 111l17 -12c-42 -53 -119 -119 -266 -119c-151 0 -226 69 -266 119l17 12c64 -78 148 -111 249 -111zM812 1520h398v-15h-11c-83 0 -126 -21 -148 -74l-533 -1266c-36 -85 -136 -170 -260 -170c-39 0 -80 9 -116 37c-6 4 -9 10 -9 16
c0 11 11 22 21 22c4 0 10 -2 14 -5c33 -26 70 -35 107 -35c107 0 195 71 225 143l94 223c1 2 1 4 1 7c0 14 -9 41 -15 56l-365 912c-41 105 -59 118 -124 118c-14 0 -29 -2 -47 -8c-2 -1 -5 -2 -7 -2c-12 0 -19 6 -19 19c0 26 49 28 68 28c88 0 109 -36 153 -149l356 -887
c8 -21 12 -29 19 -29s10 9 19 30l400 946c6 13 9 23 9 32c0 32 -43 36 -150 36h-80v15z" />
    <glyph glyph-name="afii10145" unicode="&#x40f;" 
d="M50 0v15h40c137 0 150 23 150 52v1381c0 29 -13 57 -150 57h-40v15h440v-15h-75c-137 0 -150 -28 -150 -57v-1428h870v1428c0 29 -13 57 -150 57h-75v15h440v-15h-40c-137 0 -150 -28 -150 -57v-1381c0 -42 8 -47 80 -47h110v-20h-215h-424c0 -85 8 -221 8 -257
c0 -5 -3 -11 -5 -14c-6 -8 -18 -10 -27 -3c-5 4 -7 9 -7 16c0 33 9 174 9 258h-424h-215z" />
    <glyph glyph-name="afii10017" unicode="&#x410;" 
d="M327 500h712l-322 900c-18 50 -20 62 -21 67h-23zM20 0v15h5c86 0 115 20 134 74l510 1424c2 5 6 7 9 7h27c7 0 10 -6 10 -10c0 -20 5 -49 25 -104l469 -1308c23 -63 52 -83 131 -83h40v-15h-390v15h100c81 0 106 7 106 34c0 11 -4 26 -11 45l-139 386h-726l-143 -397
c-3 -10 -5 -18 -5 -25c0 -36 44 -43 147 -43h41v-15h-340z" />
    <glyph glyph-name="afii10018" unicode="&#x411;" horiz-adv-x="1340" 
d="M50 1520h1035c7 0 10 -6 10 -9l25 -380l-20 -2l-16 254c-6 88 -39 117 -127 117h-692v-635h455c364 0 560 -149 560 -425c0 -258 -222 -440 -520 -440h-710v15h40c137 0 150 26 150 55v1384c0 31 -18 51 -150 51h-40v15zM265 845v-825h495c290 0 495 176 495 420
c0 263 -187 405 -535 405h-455z" />
    <glyph glyph-name="afii10019" unicode="&#x412;" horiz-adv-x="1340" 
d="M50 1520h550c350 0 520 -146 520 -336c0 -163 -94 -299 -294 -327h-4v-4h4c387 -42 454 -255 454 -413c0 -258 -222 -440 -520 -440h-710v15h40c137 0 150 26 150 55v1379c0 31 -18 56 -150 56h-40v15zM266 1500l-1 -1480h495c290 0 495 176 495 420
c0 151 -54 350 -431 393l-104 12h-398v20h398l104 12c189 27 271 152 271 307c0 175 -149 316 -495 316h-334z" />
    <glyph glyph-name="afii10020" unicode="&#x413;" horiz-adv-x="1165" 
d="M265 71c0 -29 13 -56 150 -56h40v-15h-405v15h40c137 0 150 27 150 56v1383c0 31 -18 51 -150 51h-40v15h1035c7 0 10 -6 10 -9l25 -380l-20 -2l-16 254c-6 88 -39 117 -127 117h-691z" />
    <glyph glyph-name="afii10021" unicode="&#x414;" horiz-adv-x="1440" 
d="M1126 1495h-611l-110 -1115c-19 -188 -53 -265 -139 -310h710c137 0 150 26 150 55v1370zM1335 1520v-25h-79c-77 0 -105 -13 -105 -50v-1320c0 -29 13 -55 150 -55h60h4c3 0 10 -2 10 -9l21 -320l-21 -2l-12 186c-7 95 -36 125 -137 125h-1011
c-101 0 -130 -30 -137 -125l-12 -186l-21 2l21 320c0 7 7 9 10 9c12 0 72 2 77 3c146 37 202 55 227 307l110 1115l-105 5v20h950z" />
    <glyph glyph-name="afii10022" unicode="&#x415;" horiz-adv-x="1290" 
d="M50 1520h1070c7 0 10 -6 10 -9l25 -380l-20 -2l-16 254c-6 88 -39 117 -127 117h-726l-1 -740h395c40 0 40 188 40 270v60h20v-680h-20v60c0 88 0 270 -40 270h-395v-720h807c91 0 121 32 127 117l16 254l20 -2l-25 -380c0 -7 -7 -9 -10 -9h-1150v15h40
c137 0 150 27 150 56v1384c0 31 -18 50 -150 50h-40v15z" />
    <glyph glyph-name="afii10024" unicode="&#x416;" horiz-adv-x="1945" 
d="M770 1520h420v-15h-55c-132 0 -150 -22 -150 -53v-652h87c22 0 54 20 68 37l477 603c15 19 23 32 23 42c0 16 -22 23 -72 23h-110v15h382v-15h-15c-48 0 -133 -3 -192 -77l-504 -638l509 -647c64 -81 116 -127 161 -127c38 0 55 13 84 36c4 3 9 5 13 5c10 0 19 -8 19 -19
c0 -6 -3 -12 -9 -16c-27 -21 -60 -37 -95 -37c-74 0 -115 45 -194 146l-482 613c-11 15 -41 36 -63 36h-87v-710c0 -29 13 -55 150 -55h55v-15h-420v15h40c137 0 150 26 150 55v710h-87c-22 0 -52 -21 -63 -36l-482 -613c-79 -101 -120 -146 -194 -146c-35 0 -68 16 -95 37
c-6 4 -9 10 -9 16c0 11 9 19 19 19c4 0 9 -2 13 -5c29 -23 46 -36 84 -36c45 0 97 46 161 127l509 647l-504 638c-59 74 -144 77 -192 77h-15v15h382v-15h-110c-50 0 -72 -7 -72 -23c0 -10 8 -23 23 -42l477 -603c14 -17 46 -37 68 -37h87v652c0 31 -18 53 -150 53h-40v15z
" />
    </font>
</defs>
</svg>
