<?xml version="1.0" standalone="no"?>
<!DOCTYPE svg PUBLIC "-//W3C//DTD SVG 1.1//EN" "http://www.w3.org/Graphics/SVG/1.1/DTD/svg11.dtd" >
<svg xmlns="http://www.w3.org/2000/svg" xmlns:xlink="http://www.w3.org/1999/xlink" version="1.1">
<metadata>
Created by FontForge 20230101 at Wed Oct 28 13:53:46 2020
 By Glenn Lewis
Copyright 2020 The Josefin Slab Project Authors (https://github.com/googlefonts/josefinslab/), with Reserved Font Name Josefin.
</metadata>
<defs>
<font id="JosefinSlab-Italic" horiz-adv-x="538" >
  <font-face 
    font-family="Josefin Slab"
    font-weight="400"
    font-style="italic"
    font-stretch="normal"
    units-per-em="1000"
    panose-1="2 0 0 0 0 0 0 0 0 0"
    ascent="750"
    descent="-250"
    x-height="375"
    cap-height="700"
    bbox="-54 -250 1271 931"
    underline-thickness="50"
    underline-position="-100"
    slope="-12"
    unicode-range="U+000D-2215"
  />
<missing-glyph horiz-adv-x="300" 
 />
    <glyph glyph-name=".notdef" horiz-adv-x="300" 
 />
    <glyph glyph-name="space" unicode=" " horiz-adv-x="300" 
 />
    <glyph glyph-name="A" unicode="A" horiz-adv-x="812" 
d="M40 39l-5 -39h193l5 39h-74l148 262h282q19 -66 37 -131t37 -131h-74l-4 -39h192l5 39h-77q-50 175 -98.5 346.5t-98.5 346.5q-97 -175 -195 -346.5t-196 -346.5h-77zM329 340q37 66 77 135t73 133q3 5 5.5 10l11.5 23l5 -29l77 -272h-249z" />
    <glyph glyph-name="B" unicode="B" horiz-adv-x="526" 
d="M40 39l-5 -39h239q41 0 82 11.5t75 34.5q33 22 56 55.5t29 78.5q5 36 -3 65t-26 51t-43 36t-54 20q66 17 103 64t45 109q7 46 -3.5 79.5t-35.5 54.5q-24 21 -61.5 31t-83.5 10h-221l-6 -39h61l-87 -622h-61zM183 332h116q38 0 72 -9t60 -26q25 -18 37.5 -46.5t6.5 -67.5
q-5 -36 -23 -63t-45 -44q-27 -19 -61 -28t-71 -9h-133zM229 661h129q36 0 65 -8.5t47 -26.5q17 -16 24.5 -42t2.5 -62q-5 -33 -19 -60t-35 -46q-24 -21 -54.5 -33t-67.5 -12h-132z" />
    <glyph glyph-name="C" unicode="C" horiz-adv-x="610" 
d="M613 546h39l16 112q-37 24 -81 37t-95 13q-74 0 -143 -28.5t-124 -76.5q-55 -49 -92.5 -114.5t-47.5 -139.5q-11 -74 8 -139t61 -113q42 -49 103 -77t135 -28q51 0 98 13.5t91 36.5l-19 33q-39 -21 -81 -32.5t-86 -11.5q-65 0 -118.5 25t-89.5 69q-37 42 -53.5 100
t-7.5 123q9 66 42 124.5t82 101.5q49 44 110 69.5t126 25.5q39 0 74 -9t65 -27z" />
    <glyph glyph-name="D" unicode="D" horiz-adv-x="632" 
d="M40 40l-5 -40h176q106 0 184 32.5t131 83.5t82 113t38 121q11 80 -8 145t-60 111q-42 45 -102.5 69.5t-132.5 24.5h-210l-6 -39h63l-87 -621h-63zM231 661h106q64 0 118 -22t91 -62q37 -41 53.5 -98.5t6.5 -128.5q-9 -59 -37.5 -114.5t-75.5 -98.5q-47 -44 -113 -70.5
t-149 -26.5h-87z" />
    <glyph glyph-name="E" unicode="E" horiz-adv-x="571" 
d="M40 39l-5 -39h501l21 154h-39l-17 -115h-348l41 294h335l6 40h-335l40 288h335l-16 -115h39l22 154h-487l-6 -39h72l-87 -622h-72z" />
    <glyph glyph-name="F" unicode="F" horiz-adv-x="557" 
d="M40 39l-5 -39h201l5 39h-88l41 294h335l6 40h-335l40 288h335l-16 -115h39l22 154h-487l-6 -39h72l-87 -622h-72z" />
    <glyph glyph-name="G" unicode="G" horiz-adv-x="609" 
d="M565 298h-186l-5 -39h145l-28 -195q-35 -17 -72 -26t-75 -9q-65 0 -118.5 25.5t-90.5 68.5q-37 42 -53.5 100t-7.5 123q9 66 42.5 124.5t82.5 101.5q49 44 110 69.5t126 25.5q45 0 83.5 -11.5t70.5 -33.5l28 34q-38 24 -81.5 37t-94.5 13q-74 0 -143 -28.5t-124 -76.5
q-56 -49 -93.5 -114.5t-47.5 -139.5t9 -139t61 -113q42 -49 103 -77t135 -28q51 0 98 13.5t90 36.5z" />
    <glyph glyph-name="H" unicode="H" horiz-adv-x="738" 
d="M600 700l-5 -39h82l-41 -288h-430l40 288h82l6 39h-201l-6 -39h78l-87 -622h-78l-5 -39h201l5 39h-82l41 294h430l-41 -294h-82l-5 -39h201l5 39h-78l88 622h77l6 39h-201z" />
    <glyph glyph-name="I" unicode="I" horiz-adv-x="271" 
d="M40 39l-5 -39h201l5 39h-82l87 622h82l6 39h-201l-6 -39h78l-87 -622h-78z" />
    <glyph glyph-name="J" unicode="J" horiz-adv-x="277" 
d="M93 700l-6 -39h166l-80 -568q-6 -46 -23.5 -81.5t-43.5 -59.5q-26 -26 -58 -39.5t-67 -15.5l-5 -40q42 1 82 17t72 46q32 29 54 71.5t30 98.5l86 610h-207z" />
    <glyph glyph-name="K" unicode="K" horiz-adv-x="686" 
d="M463 39l-5 -39h193l5 39h-82q-62 96 -123.5 191t-123.5 191l285 240h86l6 39h-193l-6 -39h54l-337 -284l-21 -21q1 8 2.5 15t3.5 15l38 275h75l6 39h-193l-6 -39h77l-87 -622h-77l-5 -39h201l5 39h-83q10 68 19 136t19 136l99 83q57 -89 114 -177.5t115 -177.5h-61z" />
    <glyph glyph-name="L" unicode="L" horiz-adv-x="568" 
d="M40 39l-5 -39h498l21 154h-39l-17 -115h-348l87 622h83l6 39h-193l-6 -39h69l-87 -622h-69z" />
    <glyph glyph-name="M" unicode="M" horiz-adv-x="967" 
d="M35 0h201l5 39h-79l75 531q1 12 2 24.5t2 21.5q6 -10 10.5 -18t12.5 -20l244 -390l358 395q7 7 15 16.5t14 16.5l-4.5 -22.5t-3.5 -24.5l-75 -530h-76l-5 -39h201l5 39h-84l87 622h81l6 39h-105l-405 -445l-279 445h-105l-6 -39h81l-87 -622h-81z" />
    <glyph glyph-name="N" unicode="N" horiz-adv-x="846" 
d="M727 -32l96 693h84l6 39h-201l-5 -39h75l-79 -569l-2 -32l-15 26l-441 614h-108l-6 -39h81l-87 -622h-80l-6 -39h201l5 39h-79l79 563l2 29l15 -23z" />
    <glyph glyph-name="O" unicode="O" horiz-adv-x="786" 
d="M85 349q-11 -74 8 -139t61 -113q42 -49 103 -77t135 -28t143.5 28t125.5 77q55 48 92 113t48 139q10 74 -9 139.5t-61 114.5q-42 48 -103.5 76.5t-135.5 28.5t-143 -28.5t-124 -76.5q-55 -49 -92.5 -114.5t-47.5 -139.5zM126 348q9 66 42 124.5t83 101.5
q49 43 109.5 68.5t126.5 25.5q65 0 119.5 -25.5t91.5 -68.5t54 -101t8 -124t-42.5 -124t-83.5 -100q-49 -44 -111 -69t-128 -25q-64 0 -118 25t-90 69q-37 43 -53.5 100t-7.5 123z" />
    <glyph glyph-name="P" unicode="P" horiz-adv-x="495" 
d="M40 39l-5 -39h201l5 39h-99l40 291h111q103 0 165 50.5t74 136.5q7 49 -10 84t-46 57t-65 32t-67 10h-211l-6 -39h61l-87 -622h-61zM188 369l41 292h105q38 0 68.5 -12t52.5 -31q20 -20 30 -46t6 -55q-3 -24 -15 -50t-35 -47q-23 -22 -59.5 -36.5t-89.5 -14.5h-104z" />
    <glyph glyph-name="Q" unicode="Q" horiz-adv-x="808" 
d="M126 348q9 66 42 124.5t82 101.5q49 44 110 69.5t126 25.5q66 0 120.5 -25.5t91.5 -69.5q37 -43 54 -101t8 -124t-42.5 -124t-83.5 -100q-50 -43 -111.5 -68.5t-127.5 -25.5q-65 0 -118.5 25.5t-89.5 68.5q-37 42 -53.5 100t-7.5 123zM85 349q-11 -74 8 -139t61 -113
q42 -49 103 -77t135 -28q18 0 36.5 2t38.5 6h307l6 39h-214q43 20 80.5 49.5t68.5 66.5q33 41 55.5 90.5t30.5 103.5q10 74 -9 139.5t-61 114.5q-42 48 -103.5 76.5t-135.5 28.5t-143 -28.5t-124 -76.5q-55 -49 -92.5 -114.5t-47.5 -139.5z" />
    <glyph glyph-name="R" unicode="R" horiz-adv-x="572" 
d="M40 39l-5 -39h201l5 39h-99l40 291h85q13 0 23.5 0.5t22.5 0.5l111 -331h113l5 39h-88l-98 296q76 15 121 63t55 119q7 49 -10 84t-46 57t-65 32t-67 10h-211l-6 -39h61l-87 -622h-61zM188 369l41 292h105q38 0 68.5 -12t52.5 -31q20 -20 30 -46t6 -55q-3 -24 -15 -50
t-35 -47q-23 -22 -59.5 -36.5t-89.5 -14.5h-104z" />
    <glyph glyph-name="S" unicode="S" horiz-adv-x="478" 
d="M48 75q9 -13 26 -27.5t41 -26.5q25 -13 57 -21t71 -8q43 0 84 13.5t73 39.5q32 25 53.5 61t27.5 80q6 50 -5 83t-33 55q-22 21 -51.5 34.5t-61.5 23.5t-62 20t-52 25t-34.5 37.5t-6.5 59.5q3 28 15.5 53.5t33.5 45.5q21 19 48.5 30.5t61.5 11.5q41 0 70.5 -9.5
t46.5 -21.5l-13 -88h40l15 108q-17 15 -36.5 25.5t-39.5 15.5t-39.5 7t-36.5 2q-50 0 -87.5 -16.5t-63.5 -43.5t-40 -60.5t-18 -66.5q-4 -43 8.5 -70.5t34.5 -45.5q23 -18 53.5 -29t61.5 -20q31 -10 60.5 -20.5t51.5 -28.5q21 -19 32.5 -47t4.5 -72q-5 -35 -23.5 -63.5
t-45.5 -48.5q-27 -19 -59.5 -30t-66.5 -11q-56 0 -93 18t-62 43l13 90h-39z" />
    <glyph glyph-name="T" unicode="T" horiz-adv-x="623" 
d="M214 39l-5 -39h201l5 39h-78l88 622h216l-16 -115h39l22 154h-553l-22 -154h39l17 115h217l-88 -622h-82z" />
    <glyph glyph-name="U" unicode="U" horiz-adv-x="696" 
d="M134 700l-6 -39h77l-61 -435q-8 -57 4 -101t39 -73q28 -30 69 -45t92 -15q50 0 95 15t81 45q36 29 60 73t32 101l61 435h77l6 39h-201l-6 -39h83l-60 -432q-8 -48 -27.5 -84.5t-48.5 -61.5q-30 -26 -68 -39t-80 -13t-76 13t-56 38t-31.5 62t-2.5 85l60 432h83l6 39h-201z
" />
    <glyph glyph-name="V" unicode="V" horiz-adv-x="831" 
d="M137 700l-6 -39h84q50 -175 99.5 -347t98.5 -346q97 174 194.5 346t195.5 347h89l6 39h-201l-5 -39h69q-81 -145 -161.5 -287.5t-160.5 -285.5l-14 -29l-4 29q-42 143 -82 285.5t-81 287.5h74l6 39h-201z" />
    <glyph glyph-name="W" unicode="W" horiz-adv-x="1204" 
d="M137 700l-6 -39h84q50 -175 99.5 -347t98.5 -346q61 109 126.5 223t121.5 221l5 -27l119 -417q98 174 195.5 346t194.5 347h90l6 39h-201l-6 -39h69q-81 -145 -171.5 -305t-150.5 -268l-13 -29l-5 29q-43 143 -82.5 285.5t-80.5 287.5h75l5 39h-200l-6 -39h84
q15 -52 29.5 -102.5t28.5 -101.5q-55 -99 -114 -200.5t-107 -197.5l-4 29q-43 143 -83 285.5t-80 287.5h74l6 39h-201z" />
    <glyph glyph-name="X" unicode="X" horiz-adv-x="704" 
d="M133 700l-6 -39h94l153 -302l-251 -320h-83l-5 -39h201l5 39h-68q52 67 104 133t104 133l13 19q6 -13 12 -26.5t13 -26.5l118 -232h-64l-5 -39h201l5 39h-86q-40 80 -80.5 157.5t-79.5 157.5q60 77 119.5 153t119.5 154h94l6 39h-201l-5 -39h57l-198 -253l-13 -19l-7 19
q-32 63 -64 125.5t-65 127.5h57l6 39h-201z" />
    <glyph glyph-name="Y" unicode="Y" horiz-adv-x="746" 
d="M279 39l-4 -39h200l5 39h-78l32 226q73 99 145.5 197.5t145.5 198.5h78l6 39h-201l-5 -39h72l-245 -332l-14 -28h-1l-9 28q-37 83 -75 165.5t-76 166.5h73l6 39h-201l-6 -39h78l90 -198l90 -198l-31 -226h-75z" />
    <glyph glyph-name="Z" unicode="Z" horiz-adv-x="629" 
d="M622 201h-40l-23 -161h-467l565 621l6 39h-471l5 35h-42l-11 -74h461l-565 -621l-5 -40h559z" />
    <glyph glyph-name="a" unicode="a" 
d="M62 188q-6 -41 4.5 -76t33.5 -62t56.5 -42t75.5 -15q38 0 71.5 13t58.5 34q15 11 26 23t17 24q-2 -12 -4 -23t-3 -23l-6 -41h111l6 39h-74l47 336h-33q-4 -22 -8.5 -44t-7.5 -44q-5 17 -17.5 35t-31.5 32q-19 13 -43.5 21t-54.5 8q-41 0 -79 -15.5t-68 -41.5
q-31 -27 -51 -63t-26 -75zM103 188q5 32 20.5 60.5t39.5 49.5t54 33t63 12t60 -12t45 -33t26 -49.5t4 -60.5q-5 -33 -21 -61t-40 -48q-24 -22 -54.5 -34t-62.5 -12t-57.5 11t-43.5 31q-20 21 -28.5 50t-4.5 63z" />
    <glyph glyph-name="b" unicode="b" 
d="M147 0l5 38q2 12 3.5 24t2.5 25q10 -35 48.5 -64.5t99.5 -29.5q41 0 79 15t68 42t50.5 62t26.5 76q6 40 -4.5 76t-33.5 62t-57 41.5t-74 15.5q-58 0 -102.5 -26.5t-67.5 -65.5q2 11 4 23.5t3 25.5l58 410h-111l-6 -39h71l-95 -672h-74l-6 -39h112zM488 188
q-4 -33 -20 -61t-40 -48q-24 -22 -54 -34t-63 -12q-31 0 -56.5 11t-43.5 30q-20 21 -29 50.5t-5 63.5q4 32 20.5 60.5t40.5 49.5t53.5 33t63.5 12q32 0 58.5 -11.5t44.5 -31.5q18 -22 26.5 -50.5t3.5 -61.5z" />
    <glyph glyph-name="c" unicode="c" horiz-adv-x="391" 
d="M361 36l-22 31q-22 -16 -48.5 -25t-54.5 -9q-32 0 -58 11t-43 31q-20 21 -28.5 50t-3.5 63q4 32 20 60.5t40 49.5t54 33t63 12q24 0 45 -7t38 -20l-10 -74h37l14 98q-22 20 -52 31.5t-66 11.5q-42 0 -79.5 -15.5t-67.5 -41.5q-31 -26 -51 -62t-26 -76q-6 -41 4.5 -76
t34.5 -62q22 -27 55.5 -42t74.5 -15q36 0 68.5 11.5t61.5 31.5z" />
    <glyph glyph-name="d" unicode="d" 
d="M398 41l-6 -41h111l6 39h-74l100 711h-112l-5 -39h70l-46 -333q-4 -21 -6.5 -43.5t-5.5 -44.5q-11 38 -50.5 65.5t-93.5 27.5q-41 0 -79 -15.5t-68 -41.5q-31 -26 -51 -62t-26 -76q-6 -41 4.5 -76t33.5 -62t56.5 -42t75.5 -15q60 0 105 27t68 67q-1 -12 -3 -23t-4 -23z
M103 188q5 32 20.5 60.5t39.5 49.5t54 33t63 12t60.5 -12t45.5 -34q18 -21 25.5 -49t3.5 -60q-5 -33 -21 -61t-40 -48q-24 -22 -54.5 -34t-62.5 -12t-58 11.5t-45 31.5q-19 21 -27 49.5t-4 62.5z" />
    <glyph glyph-name="e" unicode="e" horiz-adv-x="441" 
d="M280 343q38 0 67 -21.5t42 -55.5q-72 -27 -143 -53.5t-143 -53.5q-2 35 11 68t38 59q24 26 57 41.5t71 15.5zM438 243q-5 30 -17.5 55.5t-31.5 43.5q-20 19 -46.5 30t-56.5 11q-42 0 -79.5 -15.5t-67.5 -41.5q-31 -26 -51 -62t-26 -76q-6 -41 4.5 -76t34.5 -62
q22 -27 55.5 -42t74.5 -15q39 0 73.5 14t64.5 38q-6 8 -11 15.5t-11 14.5q-22 -19 -51 -30.5t-60 -11.5q-47 0 -80.5 24t-46.5 63q83 32 164.5 62t164.5 61z" />
    <glyph glyph-name="f" unicode="f" horiz-adv-x="303" 
d="M40 39l-5 -39h193l5 39h-91l41 296h125l6 40h-125l20 144q7 45 25.5 81t45.5 60q26 24 57 37t65 14l6 39q-44 -2 -84 -17.5t-72 -44.5t-54 -72t-30 -98l-20 -143h-61l-6 -40h61l-41 -296h-61z" />
    <glyph glyph-name="g" unicode="g" 
d="M483 375q-4 -22 -8.5 -44t-7.5 -44q-7 20 -19.5 37.5t-30.5 30.5q-19 13 -43 20.5t-54 7.5q-41 0 -79 -15.5t-68 -41.5q-31 -27 -51 -63t-26 -75q-6 -41 4.5 -76t33.5 -61q23 -27 56.5 -42.5t75.5 -15.5q59 0 102.5 26t66.5 64q-2 -12 -4 -23t-4 -23l-9 -69
q-5 -39 -21.5 -72t-39.5 -56q-24 -24 -55 -36t-62 -12q-34 0 -64.5 11.5t-49.5 37.5l-34 -31q23 -30 61.5 -45t87.5 -15q40 1 75.5 16t65.5 42q29 28 49 68t27 90l52 370h75l5 39h-107zM137 188q5 32 20.5 60.5t39.5 49.5t54 33t63 12t60 -12t45 -33t26 -49.5t4 -60.5
q-5 -33 -21 -61t-40 -48q-24 -22 -54 -34t-63 -12q-32 0 -57.5 11.5t-43.5 30.5q-20 21 -28.5 50t-4.5 63z" />
    <glyph glyph-name="h" unicode="h" horiz-adv-x="545" 
d="M322 39l-5 -39h193l5 39h-74l33 232q5 50 -23 81t-83 31q-57 -1 -104 -29t-75 -76l10 45l60 427h-115l-6 -39h74l-94 -672h-78l-5 -39h193l5 39h-74l23 166q4 30 20.5 55t39.5 44q24 18 53.5 28t59.5 10q42 -2 60.5 -25.5t15.5 -56.5l-31 -221h-78z" />
    <glyph glyph-name="i" unicode="i" horiz-adv-x="263" 
d="M40 39l-5 -39h193l5 39h-75l47 336h-118l-6 -39h78l-42 -297h-77zM172 508q-3 -14 6 -23.5t22 -9.5q12 0 23 9.5t14 23.5q1 14 -7.5 23.5t-20.5 9.5q-13 0 -24 -9.5t-13 -23.5z" />
    <glyph glyph-name="j" unicode="j" horiz-adv-x="184" 
d="M61 375l-6 -39h73l-48 -342q-6 -47 -25.5 -83.5t-48.5 -61.5l26 -29q34 29 58 73t32 103l53 379h-114zM142 508q-2 -14 6.5 -23.5t21.5 -9.5q12 0 23 9.5t14 23.5q1 14 -7.5 23.5t-20.5 9.5q-13 0 -24 -9.5t-13 -23.5z" />
    <glyph glyph-name="k" unicode="k" horiz-adv-x="503" 
d="M288 39l-5 -39h185l5 39h-87q-28 47 -55.5 93.5t-54.5 94.5q34 29 63 53.5t65 55.5h72l6 39h-185l-6 -39h61l-176 -146l79 560h-112l-5 -39h70l-95 -672h-73l-5 -39h193l5 39h-79l15 100l72 61q23 -41 47 -80.5t49 -80.5h-49z" />
    <glyph glyph-name="l" unicode="l" horiz-adv-x="263" 
d="M40 39l-5 -39h193l5 39h-79l101 711h-112l-5 -39h70l-95 -672h-73z" />
    <glyph glyph-name="m" unicode="m" horiz-adv-x="827" 
d="M605 39l-5 -39h192l5 39h-74l33 232q5 50 -22.5 81t-83.5 31q-55 -1 -101.5 -28t-74.5 -72q1 45 -27 72.5t-79 27.5q-57 -1 -104 -29.5t-75 -75.5q2 17 3 30.5t3 30.5l3 36h-105l-5 -39h71l-41 -297h-78l-5 -39h193l5 39h-74l23 166q4 30 20.5 55t39.5 44q24 18 53.5 28
t59.5 10q42 -2 60.5 -25.5t15.5 -56.5l-31 -221h-78l-5 -39h193l5 39h-74l24 170q5 29 21.5 53.5t40.5 42.5q23 17 51.5 27t59.5 10q41 -2 59.5 -25.5t15.5 -56.5l-31 -221h-77z" />
    <glyph glyph-name="n" unicode="n" horiz-adv-x="545" 
d="M322 39l-5 -39h193l5 39h-74l33 232q5 50 -23 81t-83 31q-56 0 -104 -29t-75 -76q2 17 3 30.5t3 30.5l3 36h-105l-5 -39h71l-41 -297h-78l-5 -39h193l5 39h-74l23 166q4 30 20.5 55t39.5 44q24 18 53.5 28t59.5 10q42 -2 60.5 -25.5t15.5 -56.5l-31 -221h-78z" />
    <glyph glyph-name="o" unicode="o" horiz-adv-x="465" 
d="M63 188q-6 -41 4.5 -76t33.5 -62t56.5 -42t74.5 -15t79.5 15t69.5 42q30 27 50 62t26 76q6 40 -4.5 76t-33.5 63q-23 26 -57.5 41.5t-74.5 15.5q-42 0 -79.5 -15.5t-68.5 -41.5q-30 -27 -50 -63t-26 -76zM104 188q4 32 20 60t40 50q24 21 53.5 33t62.5 12q32 0 59 -12
t45 -33q18 -22 26 -50t4 -60q-5 -33 -21 -61t-40 -48q-24 -22 -54.5 -34t-62.5 -12t-58.5 12t-44.5 34q-18 20 -26 48t-3 61z" />
    <glyph glyph-name="p" unicode="p" 
d="M3 -211l-5 -39h192l5 39h-85l35 250q2 14 2.5 22.5t1.5 21.5q11 -37 49.5 -64t95.5 -27q41 0 79 15.5t68 41.5t50.5 62t26.5 76t-4.5 75.5t-32.5 62.5q-24 27 -57.5 42t-74.5 15q-29 0 -56.5 -8.5t-49.5 -21.5q-24 -14 -41.5 -32t-27.5 -35q3 22 5 45t5 45h-107l-6 -39
h74l-77 -547h-65zM477 187q-5 -32 -21 -60.5t-40 -49.5t-54 -33t-63 -12t-59.5 12t-44.5 33t-26 49.5t-3 60.5q4 33 20 61t40 49t54 33t63 12t60 -12t45 -32q17 -21 25.5 -49.5t3.5 -61.5z" />
    <glyph glyph-name="q" unicode="q" horiz-adv-x="539" 
d="M309 -211l-5 -39h193l4 39h-67l76 547h76l5 39h-108q-4 -22 -8.5 -45t-7.5 -45q-12 40 -50 68.5t-97 28.5q-41 0 -79 -15t-68 -42q-31 -27 -51 -62.5t-26 -75.5t4.5 -76t33.5 -62t56.5 -41.5t74.5 -15.5q58 0 102.5 26t67.5 65q-3 -14 -4.5 -24.5t-3.5 -22.5l-35 -247
h-83zM137 187q5 33 20.5 61t39.5 49t54 33t63 12t59.5 -11.5t44.5 -31.5q19 -21 27 -50t4 -62q-5 -32 -21 -60.5t-40 -49.5t-54.5 -33t-62.5 -12t-58 11t-44 31q-19 21 -27.5 50t-4.5 63z" />
    <glyph glyph-name="r" unicode="r" horiz-adv-x="343" 
d="M40 39l-5 -39h193l5 39h-74l23 166q4 29 19.5 54t38.5 43q23 19 52.5 29.5t60.5 10.5l8 41q-23 -1 -47 -8t-47 -20q-23 -14 -43 -33.5t-35 -43.5q2 17 3 30.5t3 30.5l3 36h-105l-5 -39h71l-41 -297h-78z" />
    <glyph glyph-name="s" unicode="s" horiz-adv-x="322" 
d="M56 29q18 -19 49.5 -28t64.5 -9t58.5 11t42.5 29q16 16 24.5 34t10.5 39q3 32 -7 51t-28 31q-19 12 -42 19.5t-42 16.5q-20 8 -32 20.5t-9 34.5q2 17 10 29t19 20q11 7 25.5 10.5t26.5 3.5q15 0 30 -3.5t28 -12.5l-8 -52h38l10 73q-9 11 -24 18.5t-30 11.5q-15 3 -27.5 4
t-16.5 1q-18 0 -38 -6.5t-38 -19.5t-30.5 -32t-16.5 -46q-4 -33 7 -51.5t30 -28.5q20 -10 43 -17t42 -15q20 -9 30.5 -23t7.5 -40q-2 -18 -10 -30.5t-21 -21.5q-14 -9 -28 -13.5t-32 -4.5q-22 0 -41.5 4.5t-34.5 14.5l7 51h-38z" />
    <glyph glyph-name="t" unicode="t" horiz-adv-x="314" 
d="M208 619l-34 -244h-87l-6 -40h88l-47 -335h123l5 39h-82l42 296h115l6 40h-116l34 244h-41z" />
    <glyph glyph-name="u" unicode="u" 
d="M396 0h108l5 36h-71l47 339h-115l-5 -39h74l-23 -166q-5 -30 -21 -55t-40 -43q-24 -19 -53 -29t-60 -10q-41 2 -59.5 25.5t-15.5 56.5l36 260h-115l-6 -39h74l-32 -232q-5 -50 23 -81t83 -31t103 28.5t75 76.5l-6 -45z" />
    <glyph glyph-name="v" unicode="v" horiz-adv-x="588" 
d="M90 375l-6 -39h77q33 -91 67 -180t68 -179q58 90 116.5 179t116.5 180h73l6 39h-175l-5 -39h59q-48 -73 -94.5 -145t-86.5 -139q-22 71 -48.5 142t-53.5 142h65l6 39h-185z" />
    <glyph glyph-name="w" unicode="w" horiz-adv-x="848" 
d="M700 375l-6 -39h59q-46 -72 -90.5 -142t-86.5 -142q-23 71 -48.5 141.5t-50.5 142.5h66l5 39h-184l-6 -39h73l22 -60q-38 -54 -77.5 -114t-71.5 -110q-23 71 -48.5 141.5t-50.5 142.5h58l6 39h-179l-6 -39h79q32 -91 64.5 -180t65.5 -179l175 267l97 -267q57 90 114 179
t115 180h69l5 39h-168z" />
    <glyph glyph-name="x" unicode="x" horiz-adv-x="503" 
d="M87 375l-6 -39h81q21 -37 42.5 -72t42.5 -71q-34 -39 -67 -77t-66 -77h-74l-5 -39h184l5 39h-59q25 30 51 59.5t51 60.5q18 -30 35.5 -59.5t35.5 -60.5h-58l-5 -39h193l5 39h-84q-21 36 -42 71t-42 71l133 155h76l6 39h-184l-5 -39h58l-105 -123l-72 123h62l6 39h-193z
" />
    <glyph glyph-name="y" unicode="y" horiz-adv-x="601" 
d="M97 -211l-5 -39h193l5 39h-65q88 138 174.5 273.5t175.5 273.5h72l6 39h-175l-5 -39h58q-49 -76 -97.5 -151t-90.5 -148q-24 75 -51 149t-55 150h64l6 39h-185l-6 -39h77q30 -86 61 -170t61 -168q-33 -52 -66.5 -104t-67.5 -105h-84z" />
    <glyph glyph-name="z" unicode="z" horiz-adv-x="431" 
d="M409 94h-37l-8 -54h-267l326 295l6 40h-293l5 35h-37l-11 -74h274l-327 -296l-5 -40h361z" />
    <glyph glyph-name="zero" unicode="0" horiz-adv-x="616" 
d="M36 327q-10 -72 2.5 -133t43.5 -106q30 -44 74.5 -69.5t98.5 -25.5q53 0 105.5 24.5t95.5 68.5q44 44 75 105t41 133q9 59 1 118.5t-34 107.5q-27 47 -72.5 77.5t-112.5 30.5q-68 0 -123 -29.5t-95 -76.5q-41 -48 -66 -107t-34 -118zM78 327q8 59 32 111.5t59 93.5
q35 40 80.5 63t97.5 23q53 0 91.5 -24.5t62.5 -63.5q23 -41 31 -94.5t-1 -112.5q-10 -64 -36.5 -118t-63.5 -92q-38 -39 -82 -59.5t-87 -20.5q-45 0 -82.5 21.5t-62.5 60.5q-26 39 -37 93t-2 119z" />
    <glyph glyph-name="one" unicode="1" horiz-adv-x="265" 
d="M10 39l-6 -39h200l6 39h-80l86 611h-137l-6 -40h96l-80 -571h-79z" />
    <glyph glyph-name="two" unicode="2" horiz-adv-x="504" 
d="M112 40l110 102t102 103q46 52 78.5 105.5t40.5 108.5q6 42 -2.5 78t-29.5 63t-53 42.5t-74 15.5q-46 0 -84 -15.5t-66 -41.5q-28 -27 -45 -62t-23 -75q-6 -41 4.5 -76.5t32.5 -58.5l29 24q-17 22 -23 49.5t-2 61.5q3 22 13.5 48.5t30.5 50.5q20 23 51 39t76 16
q22 0 46.5 -8.5t43.5 -28.5q19 -21 29 -53.5t3 -80.5q-7 -47 -42.5 -100t-89.5 -109q-54 -57 -122 -116.5t-140 -121.5h414l21 145h-39l-15 -105h-275z" />
    <glyph glyph-name="three" unicode="3" horiz-adv-x="515" 
d="M172 347q15 11 31.5 16t33.5 5q35 0 64.5 -13.5t49.5 -35.5q20 -23 29.5 -53.5t4.5 -65.5q-6 -34 -23.5 -64.5t-44.5 -53.5q-26 -23 -59 -36.5t-68 -13.5q-37 0 -66.5 16t-47.5 42l-33 -30q24 -31 60.5 -49.5t82.5 -18.5q43 0 83.5 16.5t73.5 45.5q32 27 54.5 65t28.5 81
q5 42 -5 78t-32 62q-23 27 -56 43.5t-73 19.5l212 247h-323l-14 -100h39l9 59h209z" />
    <glyph glyph-name="four" unicode="4" horiz-adv-x="514" 
d="M244 39l-6 -39h201l6 39h-83l20 144h97l6 40h-97l61 435l-433 -475h325l-21 -144h-76zM390 537l-44 -314h-240z" />
    <glyph glyph-name="five" unicode="5" horiz-adv-x="543" 
d="M476 650h-287l-47 -328q21 21 51.5 32.5t65.5 11.5t64.5 -13t49.5 -35q19 -23 28.5 -53t4.5 -65q-5 -34 -22.5 -64.5t-44.5 -53.5q-26 -23 -59 -36.5t-68 -13.5q-33 0 -60 12t-45 34l-35 -28q24 -27 58.5 -42.5t76.5 -15.5q43 0 83.5 16.5t73.5 45.5q33 27 55 65t28 81
q6 44 -5 81.5t-36 65.5t-61 43.5t-79 15.5q-19 0 -37 -3.5t-35 -10.5l30 218h207l-9 -60h40z" />
    <glyph glyph-name="six" unicode="6" horiz-adv-x="520" 
d="M75 199q4 35 21.5 65.5t43.5 52.5q25 23 57.5 36t67.5 13q34 0 63.5 -13t49.5 -36q20 -22 29 -52.5t4 -65.5q-5 -34 -23 -64.5t-44 -52.5q-26 -24 -59 -37t-67 -13q-35 0 -63.5 13t-47.5 37q-20 22 -29 52.5t-3 64.5zM32 195q-5 -43 6.5 -80t35.5 -64q25 -27 60.5 -43
t77.5 -16q43 0 83.5 16.5t73.5 44.5q32 28 54.5 65.5t28.5 80.5t-5.5 80.5t-35.5 66.5q-25 28 -61 44t-79 16q-33 0 -62.5 -13.5t-51.5 -35.5q17 24 44 52.5t65 61.5q34 30 79.5 63t102.5 68q-6 8 -11.5 16t-10.5 17q-62 -42 -127.5 -88.5t-121.5 -100.5t-95.5 -116.5
t-49.5 -134.5z" />
    <glyph glyph-name="seven" unicode="7" horiz-adv-x="469" 
d="M465 650h-406l-14 -100h40l8 59h301l-360 -609h48z" />
    <glyph glyph-name="eight" unicode="8" horiz-adv-x="510" 
d="M170 506q3 23 14.5 43t28.5 35q16 15 37.5 24.5t44.5 9.5q22 0 40.5 -9t31.5 -24q12 -15 17.5 -35.5t2.5 -43.5q-4 -22 -15 -40.5t-28 -31.5q-16 -13 -36.5 -20t-42.5 -7q-23 0 -41.5 7t-31.5 20t-19.5 31.5t-2.5 40.5zM70 200q6 35 23 65t42 53q25 22 57.5 35t67.5 13
t64 -13.5t49 -35.5q20 -23 29 -52.5t3 -64.5q-4 -34 -21.5 -64.5t-44.5 -53.5t-59.5 -36.5t-67.5 -13.5t-63 13.5t-47 36.5t-27.5 53.5t-4.5 64.5zM28 200q-6 -43 5.5 -81t35.5 -65q24 -29 59.5 -45.5t78.5 -16.5t83.5 16.5t73.5 45.5q32 27 54 65t28 81q5 37 -2 69t-24 58
q-14 22 -35 38t-47 25q35 16 59.5 47t30.5 71q4 31 -4 58t-25 48q-18 20 -43.5 32t-57.5 12q-31 0 -59.5 -11.5t-51.5 -31.5q-24 -21 -39 -47.5t-19 -57.5q-6 -40 10.5 -72t47.5 -48q-29 -9 -54 -26t-46 -39q-23 -26 -38.5 -57.5t-20.5 -67.5z" />
    <glyph glyph-name="nine" unicode="9" horiz-adv-x="525" 
d="M436 427q-4 -35 -21.5 -65.5t-43.5 -52.5q-26 -23 -58.5 -36t-66.5 -13t-63.5 13t-48.5 36q-21 22 -30 52.5t-4 65.5t23 65t44 53t59 36t67 13q35 0 63.5 -13t48.5 -36q19 -23 27.5 -53t3.5 -65zM478 427q6 43 -5 80.5t-35 65.5q-25 28 -60.5 44.5t-78.5 16.5
q-44 0 -84.5 -16.5t-72.5 -44.5q-33 -28 -55 -65.5t-28 -80.5t5.5 -80.5t35.5 -65.5q25 -29 61 -45t79 -16q33 0 62.5 13.5t51.5 36.5q-16 -24 -42 -51.5t-61 -59.5q-36 -31 -83 -65t-105 -69q6 -9 11 -17t11 -16q61 40 126.5 86.5t120.5 99.5q57 54 96.5 116t49.5 133z" />
    <glyph glyph-name="uni00B9" unicode="&#xb9;" horiz-adv-x="258" 
d="M49 394l-2 -19h99l3 19h-39l41 305h-68l-3 -20h49l-41 -285h-39z" />
    <glyph glyph-name="uni00B2" unicode="&#xb2;" horiz-adv-x="398" 
d="M132 395q27 25 54.5 50t50.5 51t39 52.5t20 52.5q3 21 -1.5 39t-14.5 31q-10 14 -26 21.5t-37 7.5q-23 0 -41.5 -7.5t-31.5 -20.5q-14 -14 -23 -31.5t-12 -36.5q-2 -20 3 -37.5t16 -29.5l14 12q-8 11 -11 25t-1 30q2 11 6.5 24t14.5 25t25.5 19.5t38.5 7.5
q10 0 22.5 -4.5t21.5 -13.5q9 -11 14 -26.5t1 -40.5q-3 -23 -20.5 -49t-44.5 -54q-26 -28 -60 -57t-69 -60h205l10 72h-20l-7 -52h-136z" />
    <glyph glyph-name="uni00B3" unicode="&#xb3;" horiz-adv-x="419" 
d="M134 551q8 5 16 7.5t17 2.5q16 0 30.5 -6.5t24.5 -17.5t14.5 -26t2.5 -32q-3 -17 -12 -32t-21 -26q-13 -12 -29.5 -18.5t-33.5 -6.5q-18 0 -32.5 8t-23.5 20l-16 -14q11 -16 29 -25t41 -9q21 0 41 8t36 22t27 32.5t14 40.5q3 20 -2 37.5t-16 31.5q-12 13 -28 21t-35 10
l104 121h-159l-7 -49h19l4 29h103z" />
    <glyph glyph-name="ordfeminine" unicode="&#xaa;" horiz-adv-x="585" 
d="M103 442q-5 -30 3 -55t24 -45q16 -19 41 -30t54 -11q25 0 46.5 7t38.5 19q13 9 23.5 19.5t16.5 21.5l-2 -16t-3 -17l-4 -29h80l4 28h-54l35 242h-24q-3 -15 -6.5 -31.5t-5.5 -31.5q-3 13 -12 25.5t-23 22.5t-31.5 15.5t-39.5 5.5q-29 0 -56.5 -11t-49.5 -30t-36.5 -45
t-18.5 -54zM133 442q2 23 13.5 43.5t29.5 35.5q17 15 38.5 23.5t45.5 8.5q23 0 43 -8.5t32 -23.5q14 -15 20 -35.5t2 -43.5q-3 -24 -14.5 -44.5t-29.5 -34.5q-17 -16 -38.5 -24.5t-45.5 -8.5q-23 0 -41.5 8t-31.5 22q-14 15 -20.5 36t-2.5 46z" />
    <glyph glyph-name="ordmasculine" unicode="&#xba;" horiz-adv-x="469" 
d="M110 442q-4 -30 3.5 -55t24.5 -45q16 -19 40 -30t54 -11t57.5 11t49.5 30q22 20 36.5 45t19.5 55q4 28 -3.5 54t-24.5 46q-17 19 -41.5 30t-53.5 11q-30 0 -57.5 -11t-48.5 -30q-22 -20 -36.5 -46t-19.5 -54zM140 442q3 22 14.5 42.5t28.5 36.5q17 15 38.5 24t44.5 9
q24 0 43.5 -9t32.5 -24q13 -16 19 -36.5t2 -42.5q-3 -24 -14.5 -44.5t-28.5 -34.5q-17 -16 -39.5 -24.5t-44.5 -8.5q-24 0 -43 8.5t-32 24.5q-13 14 -18.5 34.5t-2.5 44.5z" />
    <glyph glyph-name="onehalf" unicode="&#xbd;" horiz-adv-x="1069" 
d="M104 262l-4 -28h142l4 28h-57l61 433h-97l-4 -28h68l-57 -405h-56zM625 28q39 36 78 72.5t72 72.5q33 38 55.5 75.5t28.5 75.5q4 30 -2 56t-20 45q-15 19 -38 30t-52 11q-33 0 -59.5 -11t-46.5 -30t-32.5 -44t-16.5 -53t3.5 -53.5t23.5 -42.5l20 18q-12 15 -16 34.5
t-1 43.5q2 16 9.5 35t21.5 36q14 16 35.5 27t53.5 11q16 0 33.5 -6t30.5 -20q14 -14 21 -37.5t1 -57.5q-5 -34 -30 -71t-63 -77t-86 -82t-99 -86h293l15 103h-28l-10 -75h-195zM227 -19h41q97 190 192 377t192 377h-41q-97 -190 -192 -377t-192 -377z" />
    <glyph glyph-name="onequarter" unicode="&#xbc;" horiz-adv-x="968" 
d="M227 -19h41q97 190 192 377t192 377h-41q-97 -190 -192 -377t-192 -377zM655 29l-4 -29h149l4 29h-61l15 107h72l4 31h-72l46 323l-322 -354h241l-15 -107h-57zM764 400l-33 -233h-178zM114 262l-4 -28h142l4 28h-56l60 433h-97l-3 -28h67l-56 -405h-57z" />
    <glyph glyph-name="threequarters" unicode="&#xbe;" horiz-adv-x="1276" 
d="M219 474q12 8 24.5 11.5t25.5 3.5q27 0 49.5 -10t38.5 -27t23 -41t3 -50q-4 -27 -17.5 -50.5t-34.5 -41.5t-46 -28t-52 -10q-29 0 -51.5 12t-36.5 32l-26 -23q19 -24 47 -38t64 -14q33 0 64 12.5t57 34.5q25 22 42 51t22 63q4 32 -4 59.5t-25 48.5q-17 20 -42.5 33
t-56.5 15l164 191h-250l-11 -77h30l7 45h162zM402 -19h41q97 190 192 377.5t192 377.5h-41q-97 -190 -192 -377.5t-192 -377.5zM854 29l-5 -29h150l4 29h-61l15 107h72l4 31h-72l46 323l-323 -354h242l-16 -107h-56zM963 400l-33 -233h-179z" />
    <glyph glyph-name="AE" unicode="&#xc6;" horiz-adv-x="776" 
d="M763 546h40l22 154h-334q-94 -166 -186.5 -330.5t-186.5 -330.5h-78l-5 -39h193l5 39h-73q37 64 73 128t72 129h134l-41 -296h343l21 154h-40l-16 -115h-262l41 294h249l6 40h-249l41 288h248zM445 335h-118q40 72 81 142t77 143z" />
    <glyph glyph-name="ae" unicode="&#xe6;" horiz-adv-x="593" 
d="M543 264q-41 -15 -82 -30.5t-83 -31.5l5 39q5 31 3 52.5t-13 35.5q15 6 30 9.5t32 3.5q38 0 67 -21.5t41 -56.5zM331 160l-8 -54q-4 -24 -16.5 -39t-29.5 -22q-17 -9 -38 -12t-40 -3q-20 0 -40 3t-36 10q-16 8 -25 22t-6 36q3 24 22.5 36.5t45.5 17.5q25 5 50.5 5h40.5
h80zM193 -10q33 0 59.5 5.5t46.5 16.5q19 -11 41 -16t46 -5q39 0 74 14t64 39q-6 7 -11 14.5t-10 15.5q-24 -20 -52 -31.5t-59 -11.5q-18 0 -34 3.5t-29 9.5q17 16 26 35.5t12 48.5l5 31l221 82q-5 29 -17 53.5t-29 43.5q-20 20 -47.5 32t-58.5 12q-23 0 -45 -5t-43 -14
q-16 9 -42 14t-63 5q-17 0 -37 -3.5t-39 -10.5q-19 -5 -35.5 -13t-27.5 -18l21 -28q9 6 21.5 11.5t27.5 10.5t31.5 8t30.5 3q37 0 59 -6t32 -19q11 -12 12 -30.5t-2 -43.5l-5 -41h-124q-28 0 -56 -4.5t-50 -17.5q-22 -11 -37.5 -30.5t-19.5 -48.5q-5 -32 3.5 -53.5
t27.5 -34.5t48 -18t64 -5z" />
    <glyph glyph-name="eth" unicode="&#xf0;" horiz-adv-x="464" 
d="M103 188q5 33 20.5 61.5t39.5 49.5t53.5 33t62.5 12t60 -11.5t45 -32.5t26.5 -49t4.5 -61q-4 -32 -20 -60.5t-40 -48.5q-24 -22 -54 -34t-63 -13q-33 0 -60 12t-45 33q-18 20 -26 48t-4 61zM456 192q7 52 0 107.5t-25 110.5t-44.5 107.5t-56.5 98.5q18 18 36.5 35
t37.5 35q-6 7 -12 12.5t-12 11.5q-18 -17 -35 -33t-35 -33q-19 25 -39.5 47t-42.5 40q-7 -8 -15 -14.5t-15 -12.5q22 -21 42 -43.5t38 -46.5q-20 -18 -39.5 -36.5t-39.5 -36.5l13 -13t12 -13q18 17 36.5 34.5t36.5 34.5q50 -73 73.5 -139.5t29.5 -117.5q-18 27 -48.5 42.5
t-67.5 14.5q-42 0 -79 -16t-67 -42q-31 -27 -51 -63t-25 -76q-5 -41 6 -76t35 -61q23 -27 56.5 -41.5t74.5 -14.5t79 16t68 43t49.5 62.5t25.5 76.5z" />
    <glyph glyph-name="Thorn" unicode="&#xde;" horiz-adv-x="505" 
d="M40 39l-5 -39h201l5 39h-89l17 126h111q103 0 165 50.5t74 136.5q7 49 -10 84t-46 57t-65 32t-67 10h-109l17 126h81l6 39h-193l-6 -39h71l-87 -622h-71zM175 204l41 292h106q37 0 67.5 -12t52.5 -31q21 -20 30.5 -46t5.5 -55q-3 -24 -14.5 -50t-35.5 -47
q-23 -22 -59.5 -36.5t-89.5 -14.5h-104z" />
    <glyph glyph-name="thorn" unicode="&#xfe;" horiz-adv-x="503" 
d="M-48 -211l-6 -39h200l5 39h-82l35 250q2 13 3 23.5t2 20.5q12 -39 49.5 -65t94.5 -26q41 0 79 15.5t68 41.5q31 26 51.5 61.5t26.5 76.5q5 40 -5.5 75.5t-32.5 62.5q-23 26 -57 41t-75 15q-29 0 -56 -8t-50 -21q-24 -14 -39 -30t-25 -34q1 12 3.5 23.5t3.5 24.5l53 375
h75l6 39h-193l-6 -39h77l-129 -922h-76zM436 187q-4 -32 -20 -60.5t-41 -49.5q-23 -21 -53.5 -33t-63.5 -12t-59.5 12t-44.5 33q-18 22 -25.5 50t-3.5 60q4 33 20 61t40 49q25 21 54.5 33t62.5 12q32 0 58.5 -11.5t43.5 -30.5q20 -21 28.5 -50t3.5 -63z" />
    <glyph glyph-name="germandbls" unicode="&#xdf;" horiz-adv-x="549" 
d="M42 39l-6 -39h115l60 425q6 44 22.5 79t41.5 60q24 25 54 39t63 14q23 1 41 -8.5t31 -25.5q11 -16 16 -36t2 -41q-3 -23 -14.5 -41.5t-28.5 -31.5t-37 -19.5t-42 -6.5l-3 -21q-1 -6 -1 -10.5t-1 -9.5q35 0 64 -13.5t49 -35.5q20 -23 29 -53t4 -64q-4 -34 -22 -64.5
t-45 -53.5q-26 -23 -59 -37t-68 -14q-22 0 -41 5.5t-36 16.5l-22 -36q21 -13 45 -19t50 -6q43 0 83.5 16t73.5 45q32 28 54 66t28 81q5 36 -2 68.5t-25 58.5q-14 21 -35 37.5t-46 24.5q35 17 59.5 48t30.5 70q4 31 -3.5 58t-25.5 48q-17 20 -42.5 32t-55.5 13
q-39 -2 -77 -17.5t-68 -45.5q-31 -29 -53 -72.5t-30 -97.5l-3 -29h-63l-6 -40h63l-44 -317h-74z" />
    <glyph glyph-name="dollar" unicode="$" horiz-adv-x="567" 
d="M388 546h40l15 108q-14 13 -30 22t-33 14q-19 7 -37 9.5t-34 3.5l8 61h-41l-8 -62q-44 -3 -77.5 -20.5t-56.5 -44.5q-23 -26 -36 -57.5t-16 -62.5q-3 -40 7 -66.5t29 -43.5q19 -18 45.5 -29t55.5 -20l-46 -325q-48 3 -80 19t-54 40l13 90h-39l-15 -107q8 -13 23.5 -27
t39.5 -26q20 -10 47 -18t60 -10l-9 -62h41l8 61q41 2 79 16.5t69 40.5q29 25 49 59.5t26 76.5q6 53 -6.5 87.5t-37.5 55.5q-24 21 -56.5 34t-66.5 24l39 277q34 -2 58.5 -10.5t39.5 -19.5zM389 184q-5 -35 -22.5 -63t-43.5 -47q-24 -18 -52 -28.5t-57 -12.5l44 312
q28 -10 54.5 -20.5t44.5 -28.5q19 -18 28.5 -44.5t3.5 -67.5zM125 524q3 25 14 48.5t29 43.5q17 18 40.5 30t53.5 15l-37 -261q-21 8 -39.5 16t-33.5 21q-16 14 -24 35t-3 52z" />
    <glyph glyph-name="cent" unicode="&#xa2;" horiz-adv-x="385" 
d="M349 67q-20 -15 -44 -23.5t-49 -9.5l43 308q22 -1 40.5 -7.5t33.5 -18.5l-11 -75h37l15 100q-20 18 -48 29t-61 13l8 55h-41l-8 -58q-36 -6 -68.5 -22.5t-58.5 -42.5q-26 -25 -43 -57.5t-23 -69.5q-5 -37 3 -69.5t27 -57.5t46 -42t62 -22l-8 -65h41l8 62q34 2 63.5 12.5
t56.5 29.5zM112 188q4 29 17.5 54t32.5 45t44 33t52 17l-43 -299q-24 4 -44 15.5t-33 29.5q-16 20 -23 47t-3 58z" />
    <glyph glyph-name="sterling" unicode="&#xa3;" horiz-adv-x="574" 
d="M510 0l20 144h-42l-15 -104h-326q17 14 24 37.5t11 52.5l24 166h124l5 40h-124l22 158q4 25 15.5 43.5t33.5 31.5q18 12 43 18.5t61 6.5q29 0 50.5 -5t34.5 -14t22 -22t16 -30l33 18q-7 20 -18 37t-29 30q-17 12 -44.5 19t-60.5 7q-85 0 -136 -32t-61 -102l-23 -164h-65
l-6 -40h65l-17 -125q-6 -39 -11 -64.5t-13 -39.5q-7 -15 -18.5 -21t-28.5 -6h-44l-5 -40h483z" />
    <glyph glyph-name="yen" unicode="&#xa5;" horiz-adv-x="746" 
d="M554 100l5 40h-142l16 123h142l6 40h-119q66 90 131.5 178.5t131.5 179.5h78l6 39h-201l-5 -39h72l-245 -332l-14 -28h-1l-9 28q-35 85 -74 167t-77 165h73l6 39h-201l-6 -39h78l163 -358h-120l-6 -40h143l-17 -123h-142l-6 -40h143l-9 -61h-75l-4 -39h200l5 39h-78l9 61
h143z" />
    <glyph glyph-name="currency" unicode="&#xa4;" horiz-adv-x="500" 
d="M166 361q3 21 14 39.5t26 31.5q16 15 35.5 23.5t41.5 8.5q20 0 37.5 -8t29.5 -22t18 -33t2 -40q-2 -22 -13 -40.5t-27 -32.5q-15 -14 -35 -22t-41 -8q-20 0 -37 7.5t-29 20.5q-13 13 -19 32.5t-3 42.5zM125 361q-4 -25 1 -47t17 -40l-40 -35l26 -29l39 35
q16 -14 36 -20.5t44 -6.5q23 0 45 7t42 21q8 -9 15.5 -17.5t15.5 -17.5l33 29l-30 35q17 17 28 39t15 47q3 24 -1 45t-15 39l36 31l-26 30l-36 -33q-16 14 -37 22.5t-45 8.5q-25 0 -47.5 -8t-42.5 -22l-28 32l-33 -29q6 -8 13.5 -16t14.5 -17q-17 -17 -27 -38t-13 -45z" />
    <glyph glyph-name="exclam" unicode="!" horiz-adv-x="201" 
d="M48 22q14 0 24.5 9.5t12.5 23.5t-6.5 23t-20.5 9t-23.5 -9t-13.5 -23t5.5 -23.5t21.5 -9.5zM130 750l-82 -584h41l82 584h-41z" />
    <glyph glyph-name="exclamdown" unicode="&#xa1;" horiz-adv-x="200" 
d="M205 518q-12 0 -23 -9.5t-14 -23.5q-2 -14 7 -23t21 -9t23 9t13 23t-6.5 23.5t-20.5 9.5zM164 374l-82 -584h41l82 584h-41z" />
    <glyph glyph-name="question" unicode="?" horiz-adv-x="452" 
d="M100 579q11 25 28 46t38 35q22 15 48 23.5t56 8.5q33 0 60 -11.5t44 -32.5q18 -21 25.5 -49.5t3.5 -61.5q-5 -37 -25 -69.5t-57 -59.5q-26 -19 -50.5 -33.5t-43.5 -28.5q-21 -15 -35 -34.5t-18 -50.5l-14 -97h42l11 78q4 31 14.5 49.5t25.5 31.5q15 12 33 22t36 23
q51 32 83 73t40 96q6 40 -4.5 75.5t-32.5 62.5q-23 26 -57 41.5t-75 15.5q-40 0 -73.5 -12.5t-59.5 -31.5q-27 -20 -46.5 -45.5t-31.5 -51.5q8 -3 17 -6zM160 15q12 0 23 9.5t14 23.5q2 14 -7 23.5t-21 9.5t-23 -9.5t-13 -23.5q-3 -14 6 -23.5t21 -9.5z" />
    <glyph glyph-name="questiondown" unicode="&#xbf;" horiz-adv-x="426" 
d="M356.012 -39.9297q-10.998 -24.9961 -27.9961 -45.9941q-16.998 -20.9971 -37.9951 -34.9961q-21.9971 -14.998 -47.9941 -23.4971t-55.9932 -8.49902q-32.9961 0 -59.9932 11.499q-26.9961 11.499 -43.9941 32.4961q-17.998 20.9971 -25.4971 49.4941
q-7.49902 28.4961 -3.5 61.4922q5 36.9951 24.9971 69.4912q19.998 32.4961 56.9932 59.4932q25.9971 18.998 50.4941 33.4961t43.4941 28.4961q20.998 14.998 34.9961 34.4961q13.998 19.4971 17.998 50.4941l13.998 96.9873h-41.9951l-10.998 -77.9902
q-4 -30.9961 -14.499 -49.4941q-10.498 -18.4971 -25.4961 -31.4961q-14.998 -11.998 -32.9961 -21.9971t-35.9961 -22.9971q-50.9932 -31.9961 -82.9893 -72.9912t-39.9951 -95.9883q-6 -39.9951 4.49902 -75.4902q10.499 -35.4961 32.4961 -62.4932
q22.9971 -25.9961 56.9932 -41.4941t74.9902 -15.498q39.9961 0 73.4912 12.498q33.4961 12.498 59.4932 31.4961q26.9961 19.998 46.4941 45.4941q19.498 25.4971 31.4961 51.4941q-7.99902 3 -16.998 5.99902q-8.99902 3 -17.998 5.99902zM296.02 524.002
q-11.998 0 -22.9971 -9.49902t-13.998 -23.4971q-2 -13.998 6.99902 -23.4971t20.9971 -9.49902q11.999 0 22.9971 9.49902q10.999 9.49902 12.999 23.4971q2.99902 13.998 -6 23.4971t-20.9971 9.49902z" />
    <glyph glyph-name="comma" unicode="," horiz-adv-x="200" 
d="M155 86h-47q-27 -52 -53 -103t-52 -103h37q29 52 57.5 103t57.5 103z" />
    <glyph glyph-name="period" unicode="." horiz-adv-x="163" 
d="M53 33q-3 -14 6 -23.5t22 -9.5q12 0 23 9.5t13 23.5q3 13 -6 22.5t-21 9.5q-13 0 -24 -9.5t-13 -22.5z" />
    <glyph glyph-name="colon" unicode=":" horiz-adv-x="175" 
d="M69 283q-1 -14 7.5 -23.5t20.5 -9.5q13 0 24 9.5t13 23.5q3 13 -6 22.5t-21 9.5q-13 0 -24 -9.5t-14 -22.5zM34 33q-2 -14 7 -23.5t21 -9.5q13 0 24 9.5t13 23.5q2 13 -6.5 22.5t-20.5 9.5q-13 0 -24.5 -9.5t-13.5 -22.5z" />
    <glyph glyph-name="semicolon" unicode=";" horiz-adv-x="201" 
d="M104 283q-2 -14 6.5 -23.5t21.5 -9.5q12 0 23 9.5t14 23.5q2 13 -7 22.5t-21 9.5q-13 0 -24 -9.5t-13 -22.5zM125 86h-47q-27 -52 -53 -103t-52 -103h37q29 52 57.5 103t57.5 103z" />
    <glyph glyph-name="periodcentered" unicode="&#xb7;" horiz-adv-x="165" 
d="M53 281q-2 -14 6.5 -23.5t21.5 -9.5q12 0 23 9.5t14 23.5q2 14 -7 23.5t-21 9.5q-13 0 -24 -9.5t-13 -23.5z" />
    <glyph glyph-name="bullet" unicode="&#x2022;" horiz-adv-x="479" 
d="M162 300q-3 -20 2.5 -36.5t16.5 -28.5q10 -11 25.5 -17.5t32.5 -6.5q19 0 36 7t31 18q14 12 23.5 28.5t11.5 35.5q3 18 -1.5 34t-14.5 29t-26 20t-35 7t-36.5 -7t-31.5 -19q-13 -13 -22 -29.5t-12 -34.5z" />
    <glyph glyph-name="underscore" unicode="_" horiz-adv-x="600" 
d="M497 0l5 40h-400l-5 -40h400z" />
    <glyph glyph-name="hyphen" unicode="-" horiz-adv-x="300" 
d="M50 170h184l5 40h-184z" />
    <glyph glyph-name="hyphen" unicode="&#xad;" horiz-adv-x="300" 
d="M50 170h184l5 40h-184z" />
    <glyph glyph-name="hyphen" unicode="&#xad;" horiz-adv-x="300" 
d="M50 170h184l5 40h-184z" />
    <glyph glyph-name="endash" unicode="&#x2013;" horiz-adv-x="509" 
d="M100 177h301l5 40h-301z" />
    <glyph glyph-name="emdash" unicode="&#x2014;" horiz-adv-x="700" 
d="M99 177h502l5 40h-502z" />
    <glyph glyph-name="quotesingle" unicode="'" horiz-adv-x="153" 
d="M39 472h40q10 63 19.5 124t19.5 124h-44z" />
    <glyph glyph-name="quotedbl" unicode="&#x22;" horiz-adv-x="309" 
d="M178 472h39q10 63 19.5 124t19.5 124h-43zM45 472h39q10 63 19.5 124t19.5 124h-43z" />
    <glyph glyph-name="quoteleft" unicode="&#x2018;" horiz-adv-x="164" 
d="M104 590q-18 20 -23.5 49.5t6.5 64.5q-8 2 -15.5 3.5t-15.5 3.5q-14 -41 -7 -78t33 -63q5 5 10.5 10t11.5 10z" />
    <glyph glyph-name="quoteright" unicode="&#x2019;" horiz-adv-x="164" 
d="M69 570q32 26 50 63t15 78q-8 -2 -16.5 -3.5t-16.5 -3.5q2 -35 -11.5 -64.5t-37.5 -49.5q5 -5 8.5 -10t8.5 -10z" />
    <glyph glyph-name="quotesinglbase" unicode="&#x201a;" horiz-adv-x="146" 
d="M39 -49q32 26 50 63t15 78q-8 -2 -16.5 -3.5t-16.5 -3.5q2 -35 -11.5 -64.5t-37.5 -49.5q5 -5 8.5 -10t8.5 -10z" />
    <glyph glyph-name="quotedblleft" unicode="&#x201c;" horiz-adv-x="249" 
d="M202 590q-18 20 -23 49.5t6 64.5q-8 2 -15 3.5t-16 3.5q-14 -41 -6.5 -78t32.5 -63q6 5 11.5 10t10.5 10zM98 590q-18 20 -23 49.5t6 64.5q-8 2 -15 3.5t-16 3.5q-14 -41 -6.5 -78t32.5 -63q6 5 11.5 10t10.5 10z" />
    <glyph glyph-name="quotedblright" unicode="&#x201d;" horiz-adv-x="248" 
d="M51 570q32 26 49.5 63t14.5 78q-8 -2 -16 -3.5t-17 -3.5q2 -35 -11.5 -64.5t-37.5 -49.5q5 -5 9 -10t9 -10zM155 570q32 26 49.5 63t14.5 78q-8 -2 -16 -3.5t-17 -3.5q2 -35 -11.5 -64.5t-37.5 -49.5q5 -5 9 -10t9 -10z" />
    <glyph glyph-name="quotedblbase" unicode="&#x201e;" horiz-adv-x="276" 
d="M39 -49q32 26 50 63t15 78q-8 -2 -16.5 -3.5t-16.5 -3.5q2 -35 -11.5 -64.5t-37.5 -49.5q5 -5 8.5 -10t8.5 -10zM143 -49q32 26 50 63t15 78q-8 -2 -16.5 -3.5t-16.5 -3.5q2 -35 -11.5 -64.5t-37.5 -49.5q5 -5 8.5 -10t8.5 -10z" />
    <glyph glyph-name="parenleft" unicode="(" horiz-adv-x="406" 
d="M134 292q-11 -75 -6.5 -143t19.5 -126t38 -105.5t50 -80.5l34 23q-24 33 -45.5 78t-35.5 100t-18 119t6 135t32 135t52 119q29 55 63 100t67 78l-28 23q-36 -33 -72 -80.5t-67 -105.5q-32 -58 -55.5 -126t-33.5 -143z" />
    <glyph glyph-name="parenright" unicode=")" horiz-adv-x="400" 
d="M292 290q10 75 5.5 143t-19.5 126t-38 105.5t-50 80.5l-33 -23q24 -33 45.5 -78t35.5 -100t18 -119t-6 -135t-32.5 -135t-51.5 -119t-63 -100t-67 -78l27 -23q36 33 72 80.5t68 105.5q31 58 54.5 126t34.5 143z" />
    <glyph glyph-name="bracketleft" unicode="[" horiz-adv-x="338" 
d="M20 -149h174l6 40h-132l114 815h132l5 40h-174z" />
    <glyph glyph-name="bracketright" unicode="]" horiz-adv-x="342" 
d="M313 746h-174l-6 -40h132l-114 -815h-132l-5 -40h174z" />
    <glyph glyph-name="braceleft" unicode="{" horiz-adv-x="291" 
d="M89 275q21 -1 34 -11.5t19 -26.5q10 -20 10.5 -47.5t-3.5 -49.5l-20 -148q-9 -61 -4.5 -89.5t20.5 -39.5q11 -8 27.5 -9.5t35.5 -1.5h47l6 40h-52q-13 0 -21.5 3.5t-13.5 11.5q-7 11 -7 34.5t5 58.5l20 142q6 46 3 74t-13 46q-7 13 -16 21.5t-18 15.5q13 6 26 16.5
t25 27.5q12 18 21.5 45t15.5 68l20 141q4 36 11 58.5t17 34.5q7 9 17 12.5t22 3.5h52l6 40h-47q-20 0 -38 -1.5t-33 -11.5q-16 -11 -27.5 -35.5t-17.5 -69.5l-23 -172q-3 -20 -9.5 -43.5t-18.5 -43.5t-29 -33.5t-41 -14.5z" />
    <glyph glyph-name="braceright" unicode="}" horiz-adv-x="320" 
d="M357 321q-21 1 -34 11.5t-20 26.5q-12 26 -9.5 61t6.5 58l20 150q7 50 1 74.5t-20 33.5q-12 9 -28.5 9.5t-34.5 0.5h-47l-5 -40h52q13 0 22 -4.5t14 -14.5q5 -12 4.5 -33.5t-4.5 -56.5l-20 -141q-7 -49 -3.5 -77t13.5 -45q7 -13 16 -21.5t18 -13.5q-11 -6 -23.5 -15.5
t-24.5 -25.5q-13 -15 -23 -38t-14 -55l-23 -165q-5 -34 -10.5 -56t-14.5 -34q-8 -10 -18 -14t-24 -4h-52l-6 -40h47q20 0 38 1t33 11q15 11 27 35t18 71l20 148q3 18 8.5 44.5t16.5 50.5q11 25 29.5 42.5t46.5 19.5z" />
    <glyph glyph-name="guilsinglleft" unicode="&#x2039;" horiz-adv-x="392" 
d="M288 77l6 47q-23 29 -47.5 57.5t-48.5 57.5q33 29 64.5 57t64.5 56l6 48q-49 -41 -97 -80.5t-97 -80.5z" />
    <glyph glyph-name="guilsinglright" unicode="&#x203a;" horiz-adv-x="392" 
d="M123 124l-6 -47l193 162q-37 41 -74 80.5t-74 80.5l-6 -48q23 -28 47 -56t48 -57q-33 -29 -64 -57.5t-64 -57.5z" />
    <glyph glyph-name="plus" unicode="+" horiz-adv-x="543" 
d="M219 51h42l23 160h159l6 41h-160l23 159h-42l-22 -159h-159l-6 -41h159z" />
    <glyph glyph-name="plusminus" unicode="&#xb1;" horiz-adv-x="524" 
d="M257 211h42l22 160h159l6 41h-159l23 159h-42l-23 -159h-159l-6 -41h160zM446 122l5 40h-360l-5 -40h360z" />
    <glyph glyph-name="multiply" unicode="&#xd7;" horiz-adv-x="500" 
d="M377 0l33 29q-25 29 -49.5 57t-48.5 57q32 28 64.5 56t64.5 56q-6 7 -12 14.5t-12 14.5q-33 -29 -65 -56.5t-64 -56.5l-97 113l-34 -30l97 -112q-32 -29 -64 -57l-64 -56q6 -7 12.5 -14.5t12.5 -14.5q32 29 64 57l64 56q24 -28 48.5 -56t49.5 -57z" />
    <glyph glyph-name="divide" unicode="&#xf7;" horiz-adv-x="501" 
d="M428 208l5 41h-360l-5 -41h360zM235 354q-1 -14 7.5 -23.5t20.5 -9.5q13 0 24 9.5t13 23.5q3 13 -6 22.5t-21 9.5q-13 0 -24 -9.5t-14 -22.5zM200 104q-2 -14 7 -23.5t21 -9.5q13 0 24 9.5t13 23.5q2 13 -6.5 22.5t-20.5 9.5q-13 0 -24.5 -9.5t-13.5 -22.5z" />
    <glyph glyph-name="equal" unicode="=" horiz-adv-x="708" 
d="M595 175h-506l-6 -40h506zM622 369h-506l-6 -40h506z" />
    <glyph glyph-name="less" unicode="&#x3c;" horiz-adv-x="680" 
d="M524 39q-79 51 -158 100t-158 99q94 50 186.5 99t186.5 100l7 54q-119 -63 -237 -126.5t-236 -126.5q101 -63 201 -126.5t201 -126.5z" />
    <glyph glyph-name="greater" unicode="&#x3e;" horiz-adv-x="650" 
d="M79 -15q119 63 237 126.5t237 126.5q-102 63 -202 126.5t-201 126.5l-7 -54q80 -51 159 -100t158 -99q-93 -50 -186.5 -99t-186.5 -100z" />
    <glyph glyph-name="logicalnot" unicode="&#xac;" horiz-adv-x="559" 
d="M419 148h41l13 96h-360l-4 -32h318z" />
    <glyph glyph-name="slash" unicode="/" horiz-adv-x="345" 
d="M-36 -19h41q97 190 192 377.5t192 377.5h-41q-97 -190 -192 -377.5t-192 -377.5z" />
    <glyph glyph-name="backslash" unicode="\" horiz-adv-x="345" 
d="M109 736h-46q43 -190 85.5 -377.5t85.5 -377.5h46q-43 190 -85.5 377.5t-85.5 377.5z" />
    <glyph glyph-name="percent" unicode="%" horiz-adv-x="726" 
d="M426 112q3 15 10.5 29t18.5 24q12 11 26.5 16.5t30.5 5.5t29.5 -6t21.5 -16q9 -9 13 -23t1 -30q-2 -16 -9.5 -30t-19.5 -24q-11 -10 -25.5 -16t-30.5 -6q-13 0 -24.5 4.5t-20.5 11.5q-12 10 -17.5 25.5t-3.5 34.5zM486 -4q23 0 45.5 9t41.5 25q18 15 30.5 36.5t15.5 45.5
t-3 45t-20 37q-14 15 -34 24t-44 9t-46.5 -9t-40.5 -24q-18 -16 -30.5 -37t-15.5 -45t3 -45.5t20 -36.5q14 -16 34 -25t44 -9zM161 388q3 16 10.5 30t18.5 24q12 10 26.5 16t30.5 6t28.5 -5.5t21.5 -15.5t13.5 -24.5t2.5 -30.5q-3 -16 -10 -29.5t-19 -23.5t-26.5 -16
t-30.5 -6q-15 0 -27.5 5t-21.5 14q-10 10 -14.5 24.5t-2.5 31.5zM221 273q23 0 45.5 9t40.5 25q18 15 31 36t16 46q3 24 -3 45t-20 37q-14 15 -34 24t-44 9t-46.5 -9t-40.5 -24q-18 -16 -30.5 -37t-15.5 -45q-3 -25 3 -46t20 -36q14 -16 34 -25t44 -9zM159 0h45
q93 126 184.5 250t184.5 250h-45q-93 -126 -184.5 -250t-184.5 -250z" />
    <glyph glyph-name="bar" unicode="|" horiz-adv-x="239" 
d="M96 -232h41l130 932h-41z" />
    <glyph glyph-name="brokenbar" unicode="&#xa6;" horiz-adv-x="215" 
d="M130 -233l49 350h-41l-49 -350h41zM211 350l50 350h-41l-50 -350h41z" />
    <glyph glyph-name="copyright" unicode="&#xa9;" horiz-adv-x="793" 
d="M402 138q-48 0 -88 17.5t-68 49.5q-27 32 -39.5 74.5t-5.5 91.5q7 51 31.5 94t61.5 75q36 32 81 49.5t93 17.5q49 0 89 -17.5t68 -49.5q27 -32 39 -75t5 -94q-7 -49 -31 -91.5t-60 -74.5q-37 -32 -82 -49.5t-94 -17.5zM400 115q54 0 103.5 19.5t89.5 53.5q39 35 65.5 82
t35.5 102q8 56 -5.5 103.5t-43.5 81.5t-74.5 53.5t-98.5 19.5t-104 -19.5t-90 -53.5t-66.5 -81.5t-34.5 -103.5q-8 -55 6 -102t44 -82q30 -34 74.5 -53.5t98.5 -19.5zM518 464h19l7 51q-17 11 -37 16.5t-43 5.5q-33 0 -64.5 -12.5t-55.5 -34.5q-25 -22 -42 -51.5t-22 -63.5
q-5 -33 4 -62.5t28 -51.5q18 -22 46 -35t61 -13q23 0 44.5 6t41.5 17l-9 15q-18 -9 -37 -14.5t-39 -5.5q-30 0 -54 11.5t-40 30.5q-16 20 -24 46t-3 55q3 30 18 56.5t37 46.5t49.5 31.5t57.5 11.5q18 0 33.5 -4t29.5 -12z" />
    <glyph glyph-name="registered" unicode="&#xae;" horiz-adv-x="801" 
d="M402 138q-48 0 -88 17.5t-68 49.5q-27 32 -39.5 74.5t-5.5 91.5q7 51 31.5 94t61.5 75q36 32 81 49.5t93 17.5q49 0 89 -17.5t68 -49.5q27 -32 39 -75t5 -94q-7 -49 -31 -91.5t-60 -74.5q-37 -32 -82 -49.5t-94 -17.5zM400 115q54 0 103.5 19.5t89.5 53.5q39 35 66 82
t35 102q8 56 -5.5 103.5t-43.5 81.5t-74.5 53.5t-98.5 19.5t-104 -19.5t-90 -53.5t-66.5 -81.5t-34.5 -103.5q-8 -55 6 -102t44 -82q30 -34 74.5 -53.5t98.5 -19.5zM313 229l-2 -19h94l2 19h-47l20 137h40q6 0 11 0.5t10 0.5l53 -157h53l3 19h-42l-46 140q36 7 57.5 29
t25.5 57q3 22 -5 38.5t-21 27.5q-14 11 -31 15.5t-32 4.5h-99l-3 -19h28l-41 -293h-28zM383 385l19 137h50q35 0 56.5 -20t17.5 -47q-2 -13 -7.5 -25t-16.5 -21q-11 -11 -28 -17.5t-42 -6.5h-49z" />
    <glyph glyph-name="degree" unicode="&#xb0;" horiz-adv-x="282" 
d="M141 503q-23 0 -37.5 16.5t-11.5 40.5q4 23 23 40t42 17q24 0 38.5 -17t10.5 -40q-3 -24 -22 -40.5t-43 -16.5zM63 559q-6 -36 16 -60t59 -24q18 0 34 6t29 17t22 27t12 34q5 37 -16.5 61.5t-56.5 24.5q-18 0 -34 -6t-30 -17t-23 -27t-12 -36z" />
    <glyph glyph-name="asterisk" unicode="*" horiz-adv-x="335" 
d="M208 575q26 14 51 27.5t50 27.5q-2 8 -6 16.5t-9 17.5l-101 -53l17 109h-44l-16 -109q-21 14 -42 27t-43 27l-24 -34q22 -14 42 -27.5t41 -27.5q-25 -13 -49.5 -26t-48.5 -26q4 -10 8 -18.5t8 -18.5q25 13 49.5 25.5t48.5 26.5l-15 -105h40q4 26 8.5 52.5t8.5 52.5
q26 -17 42 -27.5t42 -27.5q7 10 14 19t13 19q-21 13 -42.5 26.5t-42.5 26.5z" />
    <glyph glyph-name="numbersign" unicode="#" horiz-adv-x="571" 
d="M208 393h142q-9 -36 -18 -71.5t-19 -70.5h-142q9 35 18.5 70.5t18.5 71.5zM248 0h42q13 53 26.5 105t27.5 106h123l10 40h-122q9 35 18.5 70.5t18.5 71.5h123q2 10 4.5 20t4.5 20h-122q14 53 27.5 105t28.5 105h-42q-14 -53 -27.5 -105t-28.5 -105h-142q14 53 27.5 105
t28.5 105h-42q-14 -53 -27.5 -105t-28.5 -105h-107q-2 -10 -4.5 -20t-4.5 -20h106q-9 -36 -18 -71.5t-19 -70.5h-107l-11 -40h108q-14 -54 -27.5 -106t-27.5 -105h42q13 53 26.5 105t27.5 106h143q-14 -54 -27.5 -106t-27.5 -105z" />
    <glyph glyph-name="ampersand" unicode="&#x26;" horiz-adv-x="700" 
d="M457 375l-20 -146q-3 -17 -8.5 -32.5t-15.5 -30.5l-162 342q-9 19 -12.5 38t-0.5 38q2 21 14 44.5t33 43.5q19 18 44.5 28t55.5 8q26 -1 50 -12t44 -24l21 34q-21 14 -49 26t-61 14q-38 3 -70 -9t-58 -34q-28 -24 -44 -53.5t-20 -58.5q-3 -24 0.5 -48t14.5 -47l55 -117
q-38 -6 -71.5 -25t-59.5 -47t-42 -63t-18 -74q-2 -38 9.5 -70.5t34.5 -55.5q23 -24 55.5 -38t71.5 -14q48 0 91.5 21t75.5 55l42 -87l35 22l-51 105q12 18 19.5 38.5t11.5 41.5q4 20 6.5 40t4.5 38l10 69h101l6 40h-143zM118 173q2 35 17.5 67t41.5 54q22 21 49.5 33
t59.5 14l111 -234q-25 -34 -62 -54.5t-82 -20.5q-29 0 -53.5 10t-42.5 27q-20 19 -30 46t-9 58z" />
    <glyph glyph-name="at" unicode="@" horiz-adv-x="990" 
d="M332 188q4 32 20 60.5t41 49.5q24 21 53.5 33t63.5 12q31 0 57.5 -11.5t44.5 -31.5q19 -21 27.5 -50t3.5 -62q-4 -33 -20 -61t-40 -48q-25 -22 -55 -34t-62 -12t-58 11t-44 31q-19 21 -28 50t-4 63zM894 188q13 84 -9 158.5t-69 129.5t-116.5 87t-153.5 32
q-85 0 -163 -32t-142 -87q-63 -55 -105 -129t-53 -158q-12 -84 9 -158t69 -129q47 -55 116.5 -87t153.5 -32q73 0 135 20.5t117 58.5q-6 8 -10.5 15t-10.5 15q-50 -32 -107 -50.5t-118 -18.5q-76 0 -138.5 29t-104.5 78q-43 49 -62.5 115.5t-8.5 142.5t49 143t95 117
q56 49 126.5 78t146.5 29q75 0 137.5 -29t104.5 -78q43 -50 62 -117t8 -143q-6 -42 -20 -71.5t-32 -47.5q-17 -15 -37.5 -22t-42.5 -7h-56l47 335h-33q-5 -23 -9 -45t-8 -43q-13 39 -50.5 67.5t-95.5 28.5q-41 0 -79.5 -15.5t-68.5 -42.5q-30 -26 -50.5 -62t-26.5 -75
q-6 -41 5 -76t33 -62q23 -27 57 -42t75 -15q59 0 105 27.5t69 66.5q-2 -12 -3.5 -23.5t-3.5 -22.5l-6 -41h89q26 0 54 8t53 29q26 22 46.5 58t30.5 93z" />
    <glyph glyph-name="section" unicode="&#xa7;" horiz-adv-x="500" 
d="M231 330q-2 10 -0.5 20t5.5 20q4 15 13 29t23 24q13 10 29 14t34 1q13 -3 24.5 -11t18.5 -20q8 -12 9.5 -27t-2.5 -32q-4 -15 -13.5 -28.5t-22.5 -22.5q-14 -10 -30 -14.5t-33 -1.5q-20 3 -34.5 15.5t-20.5 33.5zM260 152q12 -26 17.5 -44t5.5 -31q0 -14 -8 -24t-20 -17
q-12 -8 -25.5 -14t-25.5 -13l17 -35q16 8 33.5 17t33.5 20q15 10 25.5 23t12.5 32q3 15 -0.5 36t-16.5 48l-42 94q12 -4 24 -6t25 0q22 2 42 12t35 25q16 18 26.5 39t13.5 42q3 17 1.5 33.5t-8.5 31.5q-13 28 -31 66t-31 70q-12 28 -19 49.5t-6 34.5q1 14 9 23t21 18
q11 7 24 13t26 13q-5 9 -8.5 18t-7.5 17q-17 -10 -35 -18.5t-34 -18.5q-15 -10 -25.5 -23t-12.5 -32q-3 -14 2 -36.5t17 -50.5q9 -23 19 -46.5t20 -44.5q-11 5 -23 6.5t-25 0.5q-23 -1 -42 -11t-34 -26q-17 -17 -27.5 -38.5t-12.5 -43.5q-4 -18 -0.5 -38t10.5 -37z" />
    <glyph glyph-name="paragraph" unicode="&#xb6;" horiz-adv-x="512" 
d="M242 0l100 714h122l-100 -714h134l4 36h-93l96 678h93l5 36h-297q-34 0 -65.5 -13t-56.5 -35t-42 -52t-22 -64t3.5 -64t27.5 -52t47 -34.5t62 -12.5l-59 -423h41z" />
    <glyph glyph-name="asciicircum" unicode="^" horiz-adv-x="470" 
d="M244 660q-36 -45 -72.5 -90.5t-72.5 -90.5h33q26 30 52 61t52 61q19 -33 35 -61t35 -61h33q-24 45 -47.5 90.5t-47.5 90.5z" />
    <glyph glyph-name="asciitilde" unicode="~" horiz-adv-x="489" 
d="M272 491q14 -16 30 -26t37 -10q17 0 33.5 5.5t30.5 16.5q12 10 20.5 23t11.5 30q-8 1 -13 1t-12 1q-4 -16 -12.5 -25.5t-18.5 -15.5t-20 -8t-17 -2q-14 0 -25 5.5t-24 22.5q-14 16 -30 26t-38 10q-15 0 -30 -4.5t-28 -14.5q-13 -9 -23.5 -23t-13.5 -33q5 -1 11.5 -1
t12.5 -1q4 14 11.5 23.5t16.5 14.5q10 8 21 10.5t20 2.5q14 0 24.5 -5.5t24.5 -22.5z" />
    <glyph glyph-name="Aacute" unicode="&#xc1;" horiz-adv-x="812" 
d="M499 750h33q33 37 58.5 66.5t59.5 66.5h-43q-27 -33 -54 -66.5t-54 -66.5zM40 39l-5 -39h193l5 39h-74l148 262h282q19 -66 37 -131t37 -131h-74l-4 -39h192l5 39h-77q-50 175 -98.5 346.5t-98.5 346.5q-97 -175 -195 -346.5t-196 -346.5h-77zM329 340q37 66 77 135
t73 133q3 5 5.5 10l11.5 23l5 -29l77 -272h-249z" />
    <glyph glyph-name="Acircumflex" unicode="&#xc2;" horiz-adv-x="812" 
d="M534 931q-36 -45 -72.5 -90.5t-72.5 -90.5h33q26 30 52 61t52 61q19 -33 35 -61t35 -61h33q-24 45 -47.5 90.5t-47.5 90.5zM40 39l-5 -39h193l5 39h-74l148 262h282q19 -66 37 -131t37 -131h-74l-4 -39h192l5 39h-77q-50 175 -98.5 346.5t-98.5 346.5
q-97 -175 -195 -346.5t-196 -346.5h-77zM329 340q37 66 77 135t73 133q3 5 5.5 10l11.5 23l5 -29l77 -272h-249z" />
    <glyph glyph-name="Adieresis" unicode="&#xc4;" horiz-adv-x="812" 
d="M561 798q-2 -14 7 -23.5t22 -9.5q12 0 23 9.5t13 23.5t-6.5 23.5t-20.5 9.5q-13 0 -24 -9.5t-14 -23.5zM396 798q-2 -14 7 -23.5t22 -9.5q12 0 23 9.5t13 23.5t-7 23.5t-21 9.5q-13 0 -24 -9.5t-13 -23.5zM40 39l-5 -39h193l5 39h-74l148 262h282q19 -66 37 -131t37 -131
h-74l-4 -39h192l5 39h-77q-50 175 -98.5 346.5t-98.5 346.5q-97 -175 -195 -346.5t-196 -346.5h-77zM329 340q37 66 77 135t73 133q3 5 5.5 10l11.5 23l5 -29l77 -272h-249z" />
    <glyph glyph-name="Agrave" unicode="&#xc0;" horiz-adv-x="812" 
d="M40 39l-5 -39h193l5 39h-74l148 262h282q19 -66 37 -131t37 -131h-74l-4 -39h192l5 39h-77q-50 175 -98.5 346.5t-98.5 346.5q-97 -175 -195 -346.5t-196 -346.5h-77zM329 340q37 66 77 135t73 133q3 5 5.5 10l11.5 23l5 -29l77 -272h-249zM459 883h-42
q19 -33 36.5 -66.5t35.5 -66.5h33q-16 33 -31.5 66.5t-31.5 66.5z" />
    <glyph glyph-name="Aring" unicode="&#xc5;" horiz-adv-x="812" 
d="M40 39l-5 -39h193l5 39h-74l148 262h282q19 -66 37 -131t37 -131h-74l-4 -39h192l5 39h-77q-50 175 -98.5 346.5t-98.5 346.5q-97 -175 -195 -346.5t-196 -346.5h-77zM329 340q37 66 77 135t73 133q3 5 5.5 10l11.5 23l5 -29l77 -272h-249zM473 835q2 18 17 31.5t33 13.5
q19 0 30.5 -13.5t9.5 -31.5q-3 -19 -18 -32.5t-33 -13.5q-19 0 -30.5 13.5t-8.5 32.5zM444 835q-6 -32 13 -53t50 -21q33 0 56 21t29 53q4 31 -14.5 52.5t-49.5 21.5q-32 0 -55.5 -21.5t-28.5 -52.5z" />
    <glyph glyph-name="Atilde" unicode="&#xc3;" horiz-adv-x="812" 
d="M500 788q14 -16 30 -26t37 -10q17 0 33.5 5.5t30.5 16.5q12 10 20.5 23t11.5 30q-8 1 -13 1t-12 1q-4 -16 -12.5 -25.5t-18.5 -15.5t-20 -8t-17 -2q-14 0 -25 5.5t-24 22.5q-14 16 -30 26t-38 10q-15 0 -30 -4.5t-28 -14.5q-13 -9 -23.5 -23t-13.5 -33q5 -1 11.5 -1
t12.5 -1q4 14 11.5 23.5t16.5 14.5q10 8 21 10.5t20 2.5q14 0 24.5 -5.5t24.5 -22.5zM40 39l-5 -39h193l5 39h-74l148 262h282q19 -66 37 -131t37 -131h-74l-4 -39h192l5 39h-77q-50 175 -98.5 346.5t-98.5 346.5q-97 -175 -195 -346.5t-196 -346.5h-77zM329 340
q37 66 77 135t73 133q3 5 5.5 10l11.5 23l5 -29l77 -272h-249z" />
    <glyph glyph-name="Ccedilla" unicode="&#xc7;" horiz-adv-x="610" 
d="M633 465h40l27 193q-37 24 -81 37t-95 13q-74 0 -143 -28.5t-124 -77.5q-55 -48 -92.5 -113.5t-47.5 -139.5q-10 -71 6.5 -134t55.5 -111t95.5 -77t126.5 -34l-3 -16q-2 -19 8.5 -29.5t23.5 -20.5t23.5 -23.5t6.5 -38.5q-3 -14 -9 -26.5t-15 -20.5q-10 -10 -22 -14.5
t-26 -4.5q-23 0 -37 12.5t-17 31.5l-28 -12q6 -32 29 -48.5t52 -16.5q21 0 39 7.5t32 20.5q13 13 22 31.5t13 41.5q2 18 -4.5 37.5t-26.5 34.5q-10 7 -20.5 14.5t-12.5 25.5q-1 1 -1 4.5t1 8.5q49 1 94.5 14t89.5 36l-19 33q-40 -21 -81.5 -32.5t-85.5 -11.5
q-65 0 -118.5 25.5t-90.5 67.5q-36 43 -53 101t-7 123q9 66 41.5 124.5t82.5 101.5q49 44 110 69.5t126 25.5q39 0 73.5 -9t65.5 -27z" />
    <glyph glyph-name="Eacute" unicode="&#xc9;" horiz-adv-x="571" 
d="M40 39l-5 -39h501l21 154h-39l-17 -115h-348l41 294h335l6 40h-335l40 288h335l-16 -115h39l22 154h-487l-6 -39h72l-87 -622h-72zM400 750h33q33 37 58.5 66.5t59.5 66.5h-43q-27 -33 -54 -66.5t-54 -66.5z" />
    <glyph glyph-name="Ecircumflex" unicode="&#xca;" horiz-adv-x="571" 
d="M40 39l-5 -39h501l21 154h-39l-17 -115h-348l41 294h335l6 40h-335l40 288h335l-16 -115h39l22 154h-487l-6 -39h72l-87 -622h-72zM423 931q-36 -45 -72.5 -90.5t-72.5 -90.5h33q26 30 52 61t52 61q19 -33 35 -61t35 -61h33q-24 45 -47.5 90.5t-47.5 90.5z" />
    <glyph glyph-name="Edieresis" unicode="&#xcb;" horiz-adv-x="571" 
d="M40 39l-5 -39h501l21 154h-39l-17 -115h-348l41 294h335l6 40h-335l40 288h335l-16 -115h39l22 154h-487l-6 -39h72l-87 -622h-72zM449 798q-2 -14 7 -23.5t22 -9.5q12 0 23 9.5t13 23.5t-6.5 23.5t-20.5 9.5q-13 0 -24 -9.5t-14 -23.5zM284 798q-2 -14 7 -23.5t22 -9.5
q12 0 23 9.5t13 23.5t-7 23.5t-21 9.5q-13 0 -24 -9.5t-13 -23.5z" />
    <glyph glyph-name="Egrave" unicode="&#xc8;" horiz-adv-x="571" 
d="M40 39l-5 -39h501l21 154h-39l-17 -115h-348l41 294h335l6 40h-335l40 288h335l-16 -115h39l22 154h-487l-6 -39h72l-87 -622h-72zM335 883h-42q19 -33 36.5 -66.5t35.5 -66.5h33q-16 33 -31.5 66.5t-31.5 66.5z" />
    <glyph glyph-name="Eth" unicode="&#xd0;" horiz-adv-x="632" 
d="M96 372l-6 -40h54l-41 -293h-63l-5 -39h176q106 0 184 32.5t131 83.5t82 113t38 121q11 80 -8 145t-60 111q-42 45 -102.5 69.5t-132.5 24.5h-210l-6 -39h63l-41 -289h-53zM231 661h106q64 0 118 -22t91 -62q37 -41 53.5 -98.5t6.5 -128.5q-9 -59 -37 -114.5t-75 -98.5
q-48 -44 -113.5 -70.5t-149.5 -26.5h-87l41 292h207l6 40h-208z" />
    <glyph glyph-name="Iacute" unicode="&#xcd;" horiz-adv-x="271" 
d="M40 39l-5 -39h201l5 39h-82l87 622h82l6 39h-201l-6 -39h78l-87 -622h-78zM225 750h33q33 37 58.5 66.5t59.5 66.5h-43q-27 -33 -54 -66.5t-54 -66.5z" />
    <glyph glyph-name="Icircumflex" unicode="&#xce;" horiz-adv-x="271" 
d="M40 39l-5 -39h201l5 39h-82l87 622h82l6 39h-201l-6 -39h78l-87 -622h-78zM266 931q-36 -45 -72.5 -90.5t-72.5 -90.5h33q26 30 52 61t52 61q19 -33 35 -61t35 -61h33q-24 45 -47.5 90.5t-47.5 90.5z" />
    <glyph glyph-name="Idieresis" unicode="&#xcf;" horiz-adv-x="271" 
d="M40 39l-5 -39h201l5 39h-82l87 622h82l6 39h-201l-6 -39h78l-87 -622h-78zM299 798q-2 -14 7 -23.5t22 -9.5q12 0 23 9.5t13 23.5t-6.5 23.5t-20.5 9.5q-13 0 -24 -9.5t-14 -23.5zM134 798q-2 -14 7 -23.5t22 -9.5q12 0 23 9.5t13 23.5t-7 23.5t-21 9.5q-13 0 -24 -9.5
t-13 -23.5z" />
    <glyph glyph-name="Igrave" unicode="&#xcc;" horiz-adv-x="271" 
d="M40 39l-5 -39h201l5 39h-82l87 622h82l6 39h-201l-6 -39h78l-87 -622h-78zM180 883h-42q19 -33 36.5 -66.5t35.5 -66.5h33q-16 33 -31.5 66.5t-31.5 66.5z" />
    <glyph glyph-name="Ntilde" unicode="&#xd1;" horiz-adv-x="808" 
d="M727 -32l96 693h84l6 39h-201l-5 -39h75l-79 -569l-2 -32l-15 26l-441 614h-108l-6 -39h81l-87 -622h-80l-6 -39h201l5 39h-79l79 563l2 29l15 -23zM503 784q14 -16 30 -26t37 -10q17 0 33.5 5.5t30.5 16.5q12 10 20.5 23t11.5 30q-8 1 -13 1t-12 1q-4 -16 -12.5 -25.5
t-18.5 -15.5t-20 -8t-17 -2q-14 0 -25 5.5t-24 22.5q-14 16 -30 26t-38 10q-15 0 -30 -4.5t-28 -14.5q-13 -9 -23.5 -23t-13.5 -33q5 -1 11.5 -1t12.5 -1q4 14 11.5 23.5t16.5 14.5q10 8 21 10.5t20 2.5q14 0 24.5 -5.5t24.5 -22.5z" />
    <glyph glyph-name="Oacute" unicode="&#xd3;" horiz-adv-x="786" 
d="M85 349q-11 -74 8 -139t61 -113q42 -49 103 -77t135 -28t143.5 28t125.5 77q55 48 92 113t48 139q10 74 -9 139.5t-61 114.5q-42 48 -103.5 76.5t-135.5 28.5t-143 -28.5t-124 -76.5q-55 -49 -92.5 -114.5t-47.5 -139.5zM126 348q9 66 42 124.5t83 101.5
q49 43 109.5 68.5t126.5 25.5q65 0 119.5 -25.5t91.5 -68.5t54 -101t8 -124t-42.5 -124t-83.5 -100q-49 -44 -111 -69t-128 -25q-64 0 -118 25t-90 69q-37 43 -53.5 100t-7.5 123zM491 750h33q33 37 58.5 66.5t59.5 66.5h-43q-27 -33 -54 -66.5t-54 -66.5z" />
    <glyph glyph-name="Ocircumflex" unicode="&#xd4;" horiz-adv-x="786" 
d="M85 349q-11 -74 8 -139t61 -113q42 -49 103 -77t135 -28t143.5 28t125.5 77q55 48 92 113t48 139q10 74 -9 139.5t-61 114.5q-42 48 -103.5 76.5t-135.5 28.5t-143 -28.5t-124 -76.5q-55 -49 -92.5 -114.5t-47.5 -139.5zM126 348q9 66 42 124.5t83 101.5
q49 43 109.5 68.5t126.5 25.5q65 0 119.5 -25.5t91.5 -68.5t54 -101t8 -124t-42.5 -124t-83.5 -100q-49 -44 -111 -69t-128 -25q-64 0 -118 25t-90 69q-37 43 -53.5 100t-7.5 123zM524 931q-36 -45 -72.5 -90.5t-72.5 -90.5h33q26 30 52 61t52 61q19 -33 35 -61t35 -61h33
q-24 45 -47.5 90.5t-47.5 90.5z" />
    <glyph glyph-name="Odieresis" unicode="&#xd6;" horiz-adv-x="786" 
d="M85 349q-11 -74 8 -139t61 -113q42 -49 103 -77t135 -28t143.5 28t125.5 77q55 48 92 113t48 139q10 74 -9 139.5t-61 114.5q-42 48 -103.5 76.5t-135.5 28.5t-143 -28.5t-124 -76.5q-55 -49 -92.5 -114.5t-47.5 -139.5zM126 348q9 66 42 124.5t83 101.5
q49 43 109.5 68.5t126.5 25.5q65 0 119.5 -25.5t91.5 -68.5t54 -101t8 -124t-42.5 -124t-83.5 -100q-49 -44 -111 -69t-128 -25q-64 0 -118 25t-90 69q-37 43 -53.5 100t-7.5 123zM550 798q-2 -14 7 -23.5t22 -9.5q12 0 23 9.5t13 23.5t-6.5 23.5t-20.5 9.5q-13 0 -24 -9.5
t-14 -23.5zM385 798q-2 -14 7 -23.5t22 -9.5q12 0 23 9.5t13 23.5t-7 23.5t-21 9.5q-13 0 -24 -9.5t-13 -23.5z" />
    <glyph glyph-name="Ograve" unicode="&#xd2;" horiz-adv-x="786" 
d="M85 349q-11 -74 8 -139t61 -113q42 -49 103 -77t135 -28t143.5 28t125.5 77q55 48 92 113t48 139q10 74 -9 139.5t-61 114.5q-42 48 -103.5 76.5t-135.5 28.5t-143 -28.5t-124 -76.5q-55 -49 -92.5 -114.5t-47.5 -139.5zM126 348q9 66 42 124.5t83 101.5
q49 43 109.5 68.5t126.5 25.5q65 0 119.5 -25.5t91.5 -68.5t54 -101t8 -124t-42.5 -124t-83.5 -100q-49 -44 -111 -69t-128 -25q-64 0 -118 25t-90 69q-37 43 -53.5 100t-7.5 123zM451 883h-42q19 -33 36.5 -66.5t35.5 -66.5h33q-16 33 -31.5 66.5t-31.5 66.5z" />
    <glyph glyph-name="Oslash" unicode="&#xd8;" horiz-adv-x="786" 
d="M126 348q10 66 42.5 124.5t82.5 101.5q49 44 109.5 69.5t126.5 25.5q52 0 97 -16.5t81 -46.5q-134 -135 -238.5 -241.5t-238.5 -241.5q-37 43 -54 100.5t-8 124.5zM395 31q-54 0 -100 18t-82 49q120 122 238 242t238 242q41 -44 61 -104t10 -129q-9 -66 -42.5 -123.5
t-83.5 -100.5q-49 -43 -111 -68.5t-128 -25.5zM85 349q-10 -76 9.5 -142t63.5 -115q-19 -19 -38 -39t-39 -40q6 -6 12.5 -12t12.5 -13q19 20 38.5 40t38.5 40q41 -36 94 -56t115 -20q74 0 143.5 28t125.5 77q55 48 92 113t48 139q11 79 -11 147t-69 117q18 19 36 37l37 37
l-25 25l-73 -75q-41 33 -92.5 52t-111.5 19q-74 0 -143 -28.5t-124 -76.5q-55 -49 -92.5 -114.5t-47.5 -139.5z" />
    <glyph glyph-name="Otilde" unicode="&#xd5;" horiz-adv-x="786" 
d="M85 349q-11 -74 8 -139t61 -113q42 -49 103 -77t135 -28t143.5 28t125.5 77q55 48 92 113t48 139q10 74 -9 139.5t-61 114.5q-42 48 -103.5 76.5t-135.5 28.5t-143 -28.5t-124 -76.5q-55 -49 -92.5 -114.5t-47.5 -139.5zM126 348q9 66 42 124.5t83 101.5
q49 43 109.5 68.5t126.5 25.5q65 0 119.5 -25.5t91.5 -68.5t54 -101t8 -124t-42.5 -124t-83.5 -100q-49 -44 -111 -69t-128 -25q-64 0 -118 25t-90 69q-37 43 -53.5 100t-7.5 123zM494 797q14 -16 30 -26t37 -10q17 0 33.5 5.5t30.5 16.5q12 10 20.5 23t11.5 30q-8 1 -13 1
t-12 1q-4 -16 -12.5 -25.5t-18.5 -15.5t-20 -8t-17 -2q-14 0 -25 5.5t-24 22.5q-14 16 -30 26t-38 10q-15 0 -30 -4.5t-28 -14.5q-13 -9 -23.5 -23t-13.5 -33q5 -1 11.5 -1t12.5 -1q4 14 11.5 23.5t16.5 14.5q10 8 21 10.5t20 2.5q14 0 24.5 -5.5t24.5 -22.5z" />
    <glyph glyph-name="Uacute" unicode="&#xda;" horiz-adv-x="696" 
d="M134 700l-6 -39h77l-61 -435q-8 -57 4 -101t39 -73q28 -30 69 -45t92 -15q50 0 95 15t81 45q36 29 60 73t32 101l61 435h77l6 39h-201l-6 -39h83l-60 -432q-8 -48 -27.5 -84.5t-48.5 -61.5q-30 -26 -68 -39t-80 -13t-76 13t-56 38t-31.5 62t-2.5 85l60 432h83l6 39h-201z
M437 750h33q33 37 58.5 66.5t59.5 66.5h-43q-27 -33 -54 -66.5t-54 -66.5z" />
    <glyph glyph-name="Ucircumflex" unicode="&#xdb;" horiz-adv-x="696" 
d="M134 700l-6 -39h77l-61 -435q-8 -57 4 -101t39 -73q28 -30 69 -45t92 -15q50 0 95 15t81 45q36 29 60 73t32 101l61 435h77l6 39h-201l-6 -39h83l-60 -432q-8 -48 -27.5 -84.5t-48.5 -61.5q-30 -26 -68 -39t-80 -13t-76 13t-56 38t-31.5 62t-2.5 85l60 432h83l6 39h-201z
M480 931q-36 -45 -72.5 -90.5t-72.5 -90.5h33q26 30 52 61t52 61q19 -33 35 -61t35 -61h33q-24 45 -47.5 90.5t-47.5 90.5z" />
    <glyph glyph-name="Udieresis" unicode="&#xdc;" horiz-adv-x="696" 
d="M134 700l-6 -39h77l-61 -435q-8 -57 4 -101t39 -73q28 -30 69 -45t92 -15q50 0 95 15t81 45q36 29 60 73t32 101l61 435h77l6 39h-201l-6 -39h83l-60 -432q-8 -48 -27.5 -84.5t-48.5 -61.5q-30 -26 -68 -39t-80 -13t-76 13t-56 38t-31.5 62t-2.5 85l60 432h83l6 39h-201z
M509 799q-2 -14 7 -23.5t22 -9.5q12 0 23 9.5t13 23.5t-6.5 23.5t-20.5 9.5q-13 0 -24 -9.5t-14 -23.5zM344 799q-2 -14 7 -23.5t22 -9.5q12 0 23 9.5t13 23.5t-7 23.5t-21 9.5q-13 0 -24 -9.5t-13 -23.5z" />
    <glyph glyph-name="Ugrave" unicode="&#xd9;" horiz-adv-x="696" 
d="M134 700l-6 -39h77l-61 -435q-8 -57 4 -101t39 -73q28 -30 69 -45t92 -15q50 0 95 15t81 45q36 29 60 73t32 101l61 435h77l6 39h-201l-6 -39h83l-60 -432q-8 -48 -27.5 -84.5t-48.5 -61.5q-30 -26 -68 -39t-80 -13t-76 13t-56 38t-31.5 62t-2.5 85l60 432h83l6 39h-201z
M409 883h-42q19 -33 36.5 -66.5t35.5 -66.5h33q-16 33 -31.5 66.5t-31.5 66.5z" />
    <glyph glyph-name="Yacute" unicode="&#xdd;" horiz-adv-x="746" 
d="M279 39l-4 -39h200l5 39h-78l32 226q73 99 145.5 197.5t145.5 198.5h78l6 39h-201l-5 -39h72l-245 -332l-14 -28h-1l-9 28q-37 83 -75 165.5t-76 166.5h73l6 39h-201l-6 -39h78l90 -198l90 -198l-31 -226h-75zM474 750h33q33 37 58.5 66.5t59.5 66.5h-43
q-27 -33 -54 -66.5t-54 -66.5z" />
    <glyph glyph-name="aacute" unicode="&#xe1;" 
d="M62 188q-6 -41 4.5 -76t33.5 -62t56.5 -42t75.5 -15q38 0 71.5 13t58.5 34q15 11 26 23t17 24q-2 -12 -4 -23t-3 -23l-6 -41h111l6 39h-74l47 336h-33q-4 -22 -8.5 -44t-7.5 -44q-5 17 -17.5 35t-31.5 32q-19 13 -43.5 21t-54.5 8q-41 0 -79 -15.5t-68 -41.5
q-31 -27 -51 -63t-26 -75zM103 188q5 32 20.5 60.5t39.5 49.5t54 33t63 12t60 -12t45 -33t26 -49.5t4 -60.5q-5 -33 -21 -61t-40 -48q-24 -22 -54.5 -34t-62.5 -12t-57.5 11t-43.5 31q-20 21 -28.5 50t-4.5 63zM308 479h33q33 37 58.5 66.5t59.5 66.5h-43q-27 -33 -54 -66.5
t-54 -66.5z" />
    <glyph glyph-name="acircumflex" unicode="&#xe2;" 
d="M62 188q-6 -41 4.5 -76t33.5 -62t56.5 -42t75.5 -15q38 0 71.5 13t58.5 34q15 11 26 23t17 24q-2 -12 -4 -23t-3 -23l-6 -41h111l6 39h-74l47 336h-33q-4 -22 -8.5 -44t-7.5 -44q-5 17 -17.5 35t-31.5 32q-19 13 -43.5 21t-54.5 8q-41 0 -79 -15.5t-68 -41.5
q-31 -27 -51 -63t-26 -75zM103 188q5 32 20.5 60.5t39.5 49.5t54 33t63 12t60 -12t45 -33t26 -49.5t4 -60.5q-5 -33 -21 -61t-40 -48q-24 -22 -54.5 -34t-62.5 -12t-57.5 11t-43.5 31q-20 21 -28.5 50t-4.5 63zM348 660q-36 -45 -72.5 -90.5t-72.5 -90.5h33q26 30 52 61
t52 61q19 -33 35 -61t35 -61h33q-24 45 -47.5 90.5t-47.5 90.5z" />
    <glyph glyph-name="adieresis" unicode="&#xe4;" 
d="M62 188q-6 -41 4.5 -76t33.5 -62t56.5 -42t75.5 -15q38 0 71.5 13t58.5 34q15 11 26 23t17 24q-2 -12 -4 -23t-3 -23l-6 -41h111l6 39h-74l47 336h-33q-4 -22 -8.5 -44t-7.5 -44q-5 17 -17.5 35t-31.5 32q-19 13 -43.5 21t-54.5 8q-41 0 -79 -15.5t-68 -41.5
q-31 -27 -51 -63t-26 -75zM103 188q5 32 20.5 60.5t39.5 49.5t54 33t63 12t60 -12t45 -33t26 -49.5t4 -60.5q-5 -33 -21 -61t-40 -48q-24 -22 -54.5 -34t-62.5 -12t-57.5 11t-43.5 31q-20 21 -28.5 50t-4.5 63zM369 508q-2 -14 7 -23.5t22 -9.5q12 0 23 9.5t13 23.5
t-6.5 23.5t-20.5 9.5q-13 0 -24 -9.5t-14 -23.5zM204 508q-2 -14 7 -23.5t22 -9.5q12 0 23 9.5t13 23.5t-7 23.5t-21 9.5q-13 0 -24 -9.5t-13 -23.5z" />
    <glyph glyph-name="agrave" unicode="&#xe0;" 
d="M62 188q-6 -41 4.5 -76t33.5 -62t56.5 -42t75.5 -15q38 0 71.5 13t58.5 34q15 11 26 23t17 24q-2 -12 -4 -23t-3 -23l-6 -41h111l6 39h-74l47 336h-33q-4 -22 -8.5 -44t-7.5 -44q-5 17 -17.5 35t-31.5 32q-19 13 -43.5 21t-54.5 8q-41 0 -79 -15.5t-68 -41.5
q-31 -27 -51 -63t-26 -75zM103 188q5 32 20.5 60.5t39.5 49.5t54 33t63 12t60 -12t45 -33t26 -49.5t4 -60.5q-5 -33 -21 -61t-40 -48q-24 -22 -54.5 -34t-62.5 -12t-57.5 11t-43.5 31q-20 21 -28.5 50t-4.5 63zM242 612h-42q19 -33 36.5 -66.5t35.5 -66.5h33
q-16 33 -31.5 66.5t-31.5 66.5z" />
    <glyph glyph-name="aring" unicode="&#xe5;" 
d="M62 188q-6 -41 4.5 -76t33.5 -62t56.5 -42t75.5 -15q38 0 71.5 13t58.5 34q15 11 26 23t17 24q-2 -12 -4 -23t-3 -23l-6 -41h111l6 39h-74l47 336h-33q-4 -22 -8.5 -44t-7.5 -44q-5 17 -17.5 35t-31.5 32q-19 13 -43.5 21t-54.5 8q-41 0 -79 -15.5t-68 -41.5
q-31 -27 -51 -63t-26 -75zM103 188q5 32 20.5 60.5t39.5 49.5t54 33t63 12t60 -12t45 -33t26 -49.5t4 -60.5q-5 -33 -21 -61t-40 -48q-24 -22 -54.5 -34t-62.5 -12t-57.5 11t-43.5 31q-20 21 -28.5 50t-4.5 63zM264 548q2 18 17 31.5t33 13.5q19 0 30.5 -13.5t9.5 -31.5
q-3 -19 -18 -32.5t-33 -13.5q-19 0 -30.5 13.5t-8.5 32.5zM235 548q-6 -32 13 -53t50 -21q33 0 56 21t29 53q4 31 -14.5 52.5t-49.5 21.5q-32 0 -55.5 -21.5t-28.5 -52.5z" />
    <glyph glyph-name="atilde" unicode="&#xe3;" 
d="M62 188q-6 -41 4.5 -76t33.5 -62t56.5 -42t75.5 -15q38 0 71.5 13t58.5 34q15 11 26 23t17 24q-2 -12 -4 -23t-3 -23l-6 -41h111l6 39h-74l47 336h-33q-4 -22 -8.5 -44t-7.5 -44q-5 17 -17.5 35t-31.5 32q-19 13 -43.5 21t-54.5 8q-41 0 -79 -15.5t-68 -41.5
q-31 -27 -51 -63t-26 -75zM103 188q5 32 20.5 60.5t39.5 49.5t54 33t63 12t60 -12t45 -33t26 -49.5t4 -60.5q-5 -33 -21 -61t-40 -48q-24 -22 -54.5 -34t-62.5 -12t-57.5 11t-43.5 31q-20 21 -28.5 50t-4.5 63zM290 491q14 -16 30 -26t37 -10q17 0 33.5 5.5t30.5 16.5
q12 10 20.5 23t11.5 30q-8 1 -13 1t-12 1q-4 -16 -12.5 -25.5t-18.5 -15.5t-20 -8t-17 -2q-14 0 -25 5.5t-24 22.5q-14 16 -30 26t-38 10q-15 0 -30 -4.5t-28 -14.5q-13 -9 -23.5 -23t-13.5 -33q5 -1 11.5 -1t12.5 -1q4 14 11.5 23.5t16.5 14.5q10 8 21 10.5t20 2.5
q14 0 24.5 -5.5t24.5 -22.5z" />
    <glyph glyph-name="ccedilla" unicode="&#xe7;" horiz-adv-x="391" 
d="M328 67q-22 -16 -48.5 -25t-54.5 -9q-33 0 -59.5 12t-44.5 34q-18 20 -25.5 48t-3.5 61q4 32 20 60.5t40 49.5t54 33t63 12q24 0 44.5 -7t38.5 -20l-10 -75h38l13 99q-22 20 -52.5 31.5t-65.5 11.5q-42 0 -79.5 -15.5t-67.5 -41.5t-50.5 -62t-26.5 -76q-5 -38 3.5 -71.5
t28.5 -58.5q20 -26 49 -42.5t65 -19.5l-2 -19q-3 -19 7.5 -29.5t24.5 -20.5q12 -10 22.5 -23.5t7.5 -38.5q-3 -14 -9 -26.5t-15 -20.5q-9 -9 -21.5 -14t-26.5 -5q-13 0 -22.5 4t-16.5 11q-6 5 -10 12.5t-5 16.5l-29 -12q3 -16 10.5 -28t17.5 -20q11 -8 24.5 -12.5t28.5 -4.5
q18 0 34.5 6t30.5 16q16 13 26.5 33t14.5 46q3 18 -3.5 37.5t-25.5 34.5q-7 5 -15.5 10t-14.5 13q-4 5 -5 12.5t0 18.5q28 0 60.5 11t63.5 32z" />
    <glyph glyph-name="eacute" unicode="&#xe9;" horiz-adv-x="441" 
d="M280 343q38 0 67 -21.5t42 -55.5q-72 -27 -143 -53.5t-143 -53.5q-2 35 11 68t38 59q24 26 57 41.5t71 15.5zM438 243q-5 30 -17.5 55.5t-31.5 43.5q-20 19 -46.5 30t-56.5 11q-42 0 -79.5 -15.5t-67.5 -41.5q-31 -26 -51 -62t-26 -76q-6 -41 4.5 -76t34.5 -62
q22 -27 55.5 -42t74.5 -15q39 0 73.5 14t64.5 38q-6 8 -11 15.5t-11 14.5q-22 -19 -51 -30.5t-60 -11.5q-47 0 -80.5 24t-46.5 63q83 32 164.5 62t164.5 61zM277 479h33q33 37 58.5 66.5t59.5 66.5h-43q-27 -33 -54 -66.5t-54 -66.5z" />
    <glyph glyph-name="ecircumflex" unicode="&#xea;" horiz-adv-x="441" 
d="M280 343q38 0 67 -21.5t42 -55.5q-72 -27 -143 -53.5t-143 -53.5q-2 35 11 68t38 59q24 26 57 41.5t71 15.5zM438 243q-5 30 -17.5 55.5t-31.5 43.5q-20 19 -46.5 30t-56.5 11q-42 0 -79.5 -15.5t-67.5 -41.5q-31 -26 -51 -62t-26 -76q-6 -41 4.5 -76t34.5 -62
q22 -27 55.5 -42t74.5 -15q39 0 73.5 14t64.5 38q-6 8 -11 15.5t-11 14.5q-22 -19 -51 -30.5t-60 -11.5q-47 0 -80.5 24t-46.5 63q83 32 164.5 62t164.5 61zM327 660q-36 -45 -72.5 -90.5t-72.5 -90.5h33q26 30 52 61t52 61q19 -33 35 -61t35 -61h33q-24 45 -47.5 90.5
t-47.5 90.5z" />
    <glyph glyph-name="edieresis" unicode="&#xeb;" horiz-adv-x="441" 
d="M280 343q38 0 67 -21.5t42 -55.5q-72 -27 -143 -53.5t-143 -53.5q-2 35 11 68t38 59q24 26 57 41.5t71 15.5zM438 243q-5 30 -17.5 55.5t-31.5 43.5q-20 19 -46.5 30t-56.5 11q-42 0 -79.5 -15.5t-67.5 -41.5q-31 -26 -51 -62t-26 -76q-6 -41 4.5 -76t34.5 -62
q22 -27 55.5 -42t74.5 -15q39 0 73.5 14t64.5 38q-6 8 -11 15.5t-11 14.5q-22 -19 -51 -30.5t-60 -11.5q-47 0 -80.5 24t-46.5 63q83 32 164.5 62t164.5 61zM308 508q-2 -14 7 -23.5t22 -9.5q12 0 23 9.5t13 23.5t-6.5 23.5t-20.5 9.5q-13 0 -24 -9.5t-14 -23.5zM143 508
q-2 -14 7 -23.5t22 -9.5q12 0 23 9.5t13 23.5t-7 23.5t-21 9.5q-13 0 -24 -9.5t-13 -23.5z" />
    <glyph glyph-name="egrave" unicode="&#xe8;" horiz-adv-x="441" 
d="M280 343q38 0 67 -21.5t42 -55.5q-72 -27 -143 -53.5t-143 -53.5q-2 35 11 68t38 59q24 26 57 41.5t71 15.5zM438 243q-5 30 -17.5 55.5t-31.5 43.5q-20 19 -46.5 30t-56.5 11q-42 0 -79.5 -15.5t-67.5 -41.5q-31 -26 -51 -62t-26 -76q-6 -41 4.5 -76t34.5 -62
q22 -27 55.5 -42t74.5 -15q39 0 73.5 14t64.5 38q-6 8 -11 15.5t-11 14.5q-22 -19 -51 -30.5t-60 -11.5q-47 0 -80.5 24t-46.5 63q83 32 164.5 62t164.5 61zM210 612h-42q19 -33 36.5 -66.5t35.5 -66.5h33q-16 33 -31.5 66.5t-31.5 66.5z" />
    <glyph glyph-name="iacute" unicode="&#xed;" horiz-adv-x="263" 
d="M40 39l-5 -39h193l5 39h-75l47 336h-118l-6 -39h78l-42 -297h-77zM173 479h33q33 37 58.5 66.5t59.5 66.5h-43q-27 -33 -54 -66.5t-54 -66.5z" />
    <glyph glyph-name="icircumflex" unicode="&#xee;" horiz-adv-x="263" 
d="M40 39l-5 -39h193l5 39h-75l47 336h-118l-6 -39h78l-42 -297h-77zM208 660q-36 -45 -72.5 -90.5t-72.5 -90.5h33q26 30 52 61t52 61q19 -33 35 -61t35 -61h33q-24 45 -47.5 90.5t-47.5 90.5z" />
    <glyph glyph-name="idieresis" unicode="&#xef;" horiz-adv-x="263" 
d="M40 39l-5 -39h193l5 39h-75l47 336h-118l-6 -39h78l-42 -297h-77zM238 508q-2 -14 7 -23.5t22 -9.5q12 0 23 9.5t13 23.5t-6.5 23.5t-20.5 9.5q-13 0 -24 -9.5t-14 -23.5zM73 508q-2 -14 7 -23.5t22 -9.5q12 0 23 9.5t13 23.5t-7 23.5t-21 9.5q-13 0 -24 -9.5t-13 -23.5z
" />
    <glyph glyph-name="igrave" unicode="&#xec;" horiz-adv-x="263" 
d="M40 39l-5 -39h193l5 39h-75l47 336h-118l-6 -39h78l-42 -297h-77zM137 612h-42q19 -33 36.5 -66.5t35.5 -66.5h33q-16 33 -31.5 66.5t-31.5 66.5z" />
    <glyph glyph-name="ntilde" unicode="&#xf1;" horiz-adv-x="545" 
d="M322 39l-5 -39h193l5 39h-74l33 232q5 50 -23 81t-83 31q-56 0 -104 -29t-75 -76q2 17 3 30.5t3 30.5l3 36h-105l-5 -39h71l-41 -297h-78l-5 -39h193l5 39h-74l23 166q4 30 20.5 55t39.5 44q24 18 53.5 28t59.5 10q42 -2 60.5 -25.5t15.5 -56.5l-31 -221h-78zM337 483
q14 -16 30 -26t37 -10q17 0 33.5 5.5t30.5 16.5q12 10 20.5 23t11.5 30q-8 1 -13 1t-12 1q-4 -16 -12.5 -25.5t-18.5 -15.5t-20 -8t-17 -2q-14 0 -25 5.5t-24 22.5q-14 16 -30 26t-38 10q-15 0 -30 -4.5t-28 -14.5q-13 -9 -23.5 -23t-13.5 -33q5 -1 11.5 -1t12.5 -1
q4 14 11.5 23.5t16.5 14.5q10 8 21 10.5t20 2.5q14 0 24.5 -5.5t24.5 -22.5z" />
    <glyph glyph-name="oacute" unicode="&#xf3;" horiz-adv-x="465" 
d="M63 188q-6 -41 4.5 -76t33.5 -62t56.5 -42t74.5 -15t79.5 15t69.5 42q30 27 50 62t26 76q6 40 -4.5 76t-33.5 63q-23 26 -57.5 41.5t-74.5 15.5q-42 0 -79.5 -15.5t-68.5 -41.5q-30 -27 -50 -63t-26 -76zM104 188q4 32 20 60t40 50q24 21 53.5 33t62.5 12q32 0 59 -12
t45 -33q18 -22 26 -50t4 -60q-5 -33 -21 -61t-40 -48q-24 -22 -54.5 -34t-62.5 -12t-58.5 12t-44.5 34q-18 20 -26 48t-3 61zM300 479h33q33 37 58.5 66.5t59.5 66.5h-43q-27 -33 -54 -66.5t-54 -66.5z" />
    <glyph glyph-name="ocircumflex" unicode="&#xf4;" horiz-adv-x="465" 
d="M63 188q-6 -41 4.5 -76t33.5 -62t56.5 -42t74.5 -15t79.5 15t69.5 42q30 27 50 62t26 76q6 40 -4.5 76t-33.5 63q-23 26 -57.5 41.5t-74.5 15.5q-42 0 -79.5 -15.5t-68.5 -41.5q-30 -27 -50 -63t-26 -76zM104 188q4 32 20 60t40 50q24 21 53.5 33t62.5 12q32 0 59 -12
t45 -33q18 -22 26 -50t4 -60q-5 -33 -21 -61t-40 -48q-24 -22 -54.5 -34t-62.5 -12t-58.5 12t-44.5 34q-18 20 -26 48t-3 61zM331 660q-36 -45 -72.5 -90.5t-72.5 -90.5h33q26 30 52 61t52 61q19 -33 35 -61t35 -61h33q-24 45 -47.5 90.5t-47.5 90.5z" />
    <glyph glyph-name="odieresis" unicode="&#xf6;" horiz-adv-x="465" 
d="M63 188q-6 -41 4.5 -76t33.5 -62t56.5 -42t74.5 -15t79.5 15t69.5 42q30 27 50 62t26 76q6 40 -4.5 76t-33.5 63q-23 26 -57.5 41.5t-74.5 15.5q-42 0 -79.5 -15.5t-68.5 -41.5q-30 -27 -50 -63t-26 -76zM104 188q4 32 20 60t40 50q24 21 53.5 33t62.5 12q32 0 59 -12
t45 -33q18 -22 26 -50t4 -60q-5 -33 -21 -61t-40 -48q-24 -22 -54.5 -34t-62.5 -12t-58.5 12t-44.5 34q-18 20 -26 48t-3 61zM349 508q-2 -14 7 -23.5t22 -9.5q12 0 23 9.5t13 23.5t-6.5 23.5t-20.5 9.5q-13 0 -24 -9.5t-14 -23.5zM184 508q-2 -14 7 -23.5t22 -9.5
q12 0 23 9.5t13 23.5t-7 23.5t-21 9.5q-13 0 -24 -9.5t-13 -23.5z" />
    <glyph glyph-name="ograve" unicode="&#xf2;" horiz-adv-x="465" 
d="M63 188q-6 -41 4.5 -76t33.5 -62t56.5 -42t74.5 -15t79.5 15t69.5 42q30 27 50 62t26 76q6 40 -4.5 76t-33.5 63q-23 26 -57.5 41.5t-74.5 15.5q-42 0 -79.5 -15.5t-68.5 -41.5q-30 -27 -50 -63t-26 -76zM104 188q4 32 20 60t40 50q24 21 53.5 33t62.5 12q32 0 59 -12
t45 -33q18 -22 26 -50t4 -60q-5 -33 -21 -61t-40 -48q-24 -22 -54.5 -34t-62.5 -12t-58.5 12t-44.5 34q-18 20 -26 48t-3 61zM243 612h-42q19 -33 36.5 -66.5t35.5 -66.5h33q-16 33 -31.5 66.5t-31.5 66.5z" />
    <glyph glyph-name="oslash" unicode="&#xf8;" horiz-adv-x="463" 
d="M104 188q4 32 20 60.5t40 49.5t54 33t63 12q22 0 42.5 -6t36.5 -18q-64 -64 -115.5 -117t-115.5 -118q-16 21 -22.5 47.5t-2.5 56.5zM238 33q-26 0 -48.5 8t-40.5 23q59 59 116.5 118t116.5 118q20 -21 29 -49.5t4 -62.5q-4 -33 -20 -61t-40 -48q-24 -22 -54.5 -34
t-62.5 -12zM63 188q-5 -40 4 -74.5t31 -60.5q-12 -13 -24 -24.5t-23 -23.5l10 -10t11 -10q11 12 23 24t23 24q23 -19 51.5 -29.5t62.5 -10.5q41 0 79.5 15t68.5 42t50.5 62t26.5 76q5 42 -6.5 79.5t-37.5 63.5q10 11 18.5 19.5t18.5 19.5l-10 10l-10 10q-9 -10 -19 -20
t-20 -19q-21 15 -47.5 23.5t-56.5 8.5q-42 0 -79.5 -15.5t-67.5 -41.5t-50.5 -62t-26.5 -76z" />
    <glyph glyph-name="otilde" unicode="&#xf5;" horiz-adv-x="465" 
d="M63 188q-6 -41 4.5 -76t33.5 -62t56.5 -42t74.5 -15t79.5 15t69.5 42q30 27 50 62t26 76q6 40 -4.5 76t-33.5 63q-23 26 -57.5 41.5t-74.5 15.5q-42 0 -79.5 -15.5t-68.5 -41.5q-30 -27 -50 -63t-26 -76zM104 188q4 32 20 60t40 50q24 21 53.5 33t62.5 12q32 0 59 -12
t45 -33q18 -22 26 -50t4 -60q-5 -33 -21 -61t-40 -48q-24 -22 -54.5 -34t-62.5 -12t-58.5 12t-44.5 34q-18 20 -26 48t-3 61zM290 491q14 -16 30 -26t37 -10q17 0 33.5 5.5t30.5 16.5q12 10 20.5 23t11.5 30q-8 1 -13 1t-12 1q-4 -16 -12.5 -25.5t-18.5 -15.5t-20 -8t-17 -2
q-14 0 -25 5.5t-24 22.5q-14 16 -30 26t-38 10q-15 0 -30 -4.5t-28 -14.5q-13 -9 -23.5 -23t-13.5 -33q5 -1 11.5 -1t12.5 -1q4 14 11.5 23.5t16.5 14.5q10 8 21 10.5t20 2.5q14 0 24.5 -5.5t24.5 -22.5z" />
    <glyph glyph-name="uacute" unicode="&#xfa;" 
d="M396 0h108l5 36h-71l47 339h-115l-5 -39h74l-23 -166q-5 -30 -21 -55t-40 -43q-24 -19 -53 -29t-60 -10q-41 2 -59.5 25.5t-15.5 56.5l36 260h-115l-6 -39h74l-32 -232q-5 -50 23 -81t83 -31t103 28.5t75 76.5l-6 -45zM309 479h33q33 37 58.5 66.5t59.5 66.5h-43
q-27 -33 -54 -66.5t-54 -66.5z" />
    <glyph glyph-name="ucircumflex" unicode="&#xfb;" 
d="M396 0h108l5 36h-71l47 339h-115l-5 -39h74l-23 -166q-5 -30 -21 -55t-40 -43q-24 -19 -53 -29t-60 -10q-41 2 -59.5 25.5t-15.5 56.5l36 260h-115l-6 -39h74l-32 -232q-5 -50 23 -81t83 -31t103 28.5t75 76.5l-6 -45zM352 660q-36 -45 -72.5 -90.5t-72.5 -90.5h33
q26 30 52 61t52 61q19 -33 35 -61t35 -61h33q-24 45 -47.5 90.5t-47.5 90.5z" />
    <glyph glyph-name="udieresis" unicode="&#xfc;" 
d="M396 0h108l5 36h-71l47 339h-115l-5 -39h74l-23 -166q-5 -30 -21 -55t-40 -43q-24 -19 -53 -29t-60 -10q-41 2 -59.5 25.5t-15.5 56.5l36 260h-115l-6 -39h74l-32 -232q-5 -50 23 -81t83 -31t103 28.5t75 76.5l-6 -45zM387 508q-2 -14 7 -23.5t22 -9.5q12 0 23 9.5
t13 23.5t-6.5 23.5t-20.5 9.5q-13 0 -24 -9.5t-14 -23.5zM222 508q-2 -14 7 -23.5t22 -9.5q12 0 23 9.5t13 23.5t-7 23.5t-21 9.5q-13 0 -24 -9.5t-13 -23.5z" />
    <glyph glyph-name="ugrave" unicode="&#xf9;" 
d="M396 0h108l5 36h-71l47 339h-115l-5 -39h74l-23 -166q-5 -30 -21 -55t-40 -43q-24 -19 -53 -29t-60 -10q-41 2 -59.5 25.5t-15.5 56.5l36 260h-115l-6 -39h74l-32 -232q-5 -50 23 -81t83 -31t103 28.5t75 76.5l-6 -45zM254 612h-42q19 -33 36.5 -66.5t35.5 -66.5h33
q-16 33 -31.5 66.5t-31.5 66.5z" />
    <glyph glyph-name="yacute" unicode="&#xfd;" horiz-adv-x="601" 
d="M97 -211l-5 -39h193l5 39h-65q88 138 174.5 273.5t175.5 273.5h72l6 39h-175l-5 -39h58q-49 -76 -97.5 -151t-90.5 -148q-24 75 -51 149t-55 150h64l6 39h-185l-6 -39h77q30 -86 61 -170t61 -168q-33 -52 -66.5 -104t-67.5 -105h-84zM391 479h33q33 37 58.5 66.5
t59.5 66.5h-43q-27 -33 -54 -66.5t-54 -66.5z" />
    <glyph glyph-name="ydieresis" unicode="&#xff;" horiz-adv-x="601" 
d="M97 -211l-5 -39h193l5 39h-65q88 138 174.5 273.5t175.5 273.5h72l6 39h-175l-5 -39h58q-49 -76 -97.5 -151t-90.5 -148q-24 75 -51 149t-55 150h64l6 39h-185l-6 -39h77q30 -86 61 -170t61 -168q-33 -52 -66.5 -104t-67.5 -105h-84zM457 508q-2 -14 7 -23.5t22 -9.5
q12 0 23 9.5t13 23.5t-6.5 23.5t-20.5 9.5q-13 0 -24 -9.5t-14 -23.5zM292 508q-2 -14 7 -23.5t22 -9.5q12 0 23 9.5t13 23.5t-7 23.5t-21 9.5q-13 0 -24 -9.5t-13 -23.5z" />
    <glyph glyph-name="grave" unicode="`" horiz-adv-x="200" 
d="M27 612h-42q19 -33 36.5 -66.5t35.5 -66.5h33q-16 33 -31.5 66.5t-31.5 66.5z" />
    <glyph glyph-name="acute" unicode="&#xb4;" horiz-adv-x="240" 
d="M100 479h33q33 37 58.5 66.5t59.5 66.5h-43q-27 -33 -54 -66.5t-54 -66.5z" />
    <glyph glyph-name="macron" unicode="&#xaf;" horiz-adv-x="399" 
d="M85 487h230l3 29h-230z" />
    <glyph glyph-name="dieresis" unicode="&#xa8;" horiz-adv-x="370" 
d="M238 508q-2 -14 7 -23.5t22 -9.5q12 0 23 9.5t13 23.5t-6.5 23.5t-20.5 9.5q-13 0 -24 -9.5t-14 -23.5zM73 508q-2 -14 7 -23.5t22 -9.5q12 0 23 9.5t13 23.5t-7 23.5t-21 9.5q-13 0 -24 -9.5t-13 -23.5z" />
    <glyph glyph-name="ring" unicode="&#x2da;" horiz-adv-x="200" 
d="M133 552q2 18 17 31.5t33 13.5q19 0 30.5 -13.5t9.5 -31.5q-3 -19 -18 -32.5t-33 -13.5q-19 0 -30.5 13.5t-8.5 32.5zM104 552q-6 -32 13 -53t50 -21q33 0 56 21t29 53q4 31 -14.5 52.5t-49.5 21.5q-32 0 -55.5 -21.5t-28.5 -52.5z" />
    <glyph glyph-name="cedilla" unicode="&#xb8;" horiz-adv-x="452" 
d="M222 0l-3 -23q-3 -19 8 -29.5t24 -20.5t23 -23.5t7 -38.5q-5 -28 -24.5 -47t-47.5 -19q-23 0 -37 12.5t-17 31.5q-7 -3 -14.5 -6t-14.5 -6q7 -32 29.5 -48.5t52.5 -16.5q21 0 39.5 7.5t33.5 22.5q12 13 20.5 31t12.5 40q2 18 -4.5 37.5t-26.5 34.5q-6 4 -12.5 8t-11.5 10
t-8 14.5t-1 22.5l1 6h-29z" />
    <glyph glyph-name="guillemotright" unicode="&#xbb;" horiz-adv-x="601" 
d="M123 124l-6 -47l193 162q-37 41 -74 80.5t-74 80.5l-6 -47q23 -29 47 -57.5t48 -56.5q-32 -29 -63.5 -57.5t-64.5 -57.5zM294 124l-6 -47l193 162q-37 41 -74 80.5t-74 80.5l-6 -48q23 -28 47 -56t48 -57q-32 -29 -63.5 -57.5t-64.5 -57.5z" />
    <glyph glyph-name="nonmarkingreturn" unicode="&#xd;" horiz-adv-x="300" 
 />
    <glyph glyph-name="dotlessi" unicode="&#x131;" horiz-adv-x="263" 
d="M40 39l-5 -39h193l5 39h-75l47 336h-118l-6 -39h78l-42 -297h-77z" />
    <glyph glyph-name="guillemotleft" unicode="&#xab;" horiz-adv-x="601" 
d="M459 77l6 47q-23 29 -47.5 57.5t-48.5 57.5q33 29 64.5 57t64.5 57l6 47q-49 -41 -97 -80.5t-97 -80.5zM288 77l6 47q-23 29 -47.5 57.5t-48.5 57.5q33 29 64.5 57t64.5 56l6 48q-49 -41 -97 -80.5t-97 -80.5z" />
    <glyph glyph-name="uni03BC" unicode="&#xb5;" horiz-adv-x="533" 
d="M392 375l-6 -39h74l-22 -166q-5 -30 -21 -55t-40 -43q-24 -19 -53 -29t-60 -10q-42 2 -60.5 25.5t-14.5 56.5l35 260h-115l-5 -39h74l-75 -537h41l32 230q11 -17 29.5 -27t45.5 -10q55 0 103.5 28.5t75.5 76.5l-6 -45l-6 -52h108l5 36h-71l47 339h-115z" />
    <glyph glyph-name="uni00A0" unicode="&#xa0;" horiz-adv-x="300" 
 />
    <glyph glyph-name="OE" unicode="&#x152;" horiz-adv-x="934" 
d="M75 327q-5 -70 17 -131t64 -106q42 -46 101.5 -72t129.5 -26q23 0 43.5 2t43.5 6h392l14 114h-39l-10 -75h-316l37 294h303l6 40h-303l37 288h303l-11 -75h40l16 114h-375q-24 4 -46.5 5.5t-41.5 1.5q-81 0 -151 -29t-125 -82q-56 -52 -90.5 -121.5t-38.5 -147.5z
M116 327q3 70 33.5 132t80.5 108q49 47 112.5 74t132.5 27q22 0 41.5 -1.5t36.5 -5.5l-78 -622q-21 -5 -42 -6.5t-42 -1.5q-62 0 -113.5 23.5t-88.5 63.5q-38 40 -57 93.5t-16 115.5z" />
    <glyph glyph-name="oe" unicode="&#x153;" horiz-adv-x="666" 
d="M581 45l-23 30q-22 -20 -50.5 -31t-59.5 -11q-48 0 -81.5 24t-47.5 63q37 14 77 29t81 31q43 16 86.5 32t82.5 31q-6 31 -19.5 57.5t-33.5 45.5q-19 18 -44 28t-55 10q-32 0 -62 -9.5t-56 -25.5q-22 16 -49.5 25.5t-59.5 9.5q-43 0 -82 -16.5t-69 -44.5q-31 -29 -50 -67
t-22 -80q-2 -39 10 -72t36 -57q22 -26 54.5 -40t72.5 -14q32 0 61.5 9t56.5 26q22 -17 49 -26t59 -9q39 0 74 14t64 38zM261 343q24 0 43.5 -6t36.5 -18q-31 -27 -50 -64t-20 -79q-2 -35 8 -65.5t30 -52.5q-20 -12 -42.5 -18.5t-45.5 -6.5q-31 0 -56 11t-43 31
q-19 19 -28.5 45.5t-8.5 56.5q2 33 16.5 63.5t39.5 53.5q24 23 54.5 36t65.5 13zM597 266q-33 -13 -69 -26.5t-72 -26.5q-37 -14 -73 -27.5t-70 -26.5q-1 6 -0.5 12.5t1.5 12.5q2 32 16 60.5t37 50.5q24 22 55 35t66 13q41 0 68 -21.5t41 -55.5z" />
    <glyph glyph-name="circumflex" unicode="&#x2c6;" horiz-adv-x="427" 
d="M282 623l-139 -144h33l98 85l76 -85h33z" />
    <glyph glyph-name="tilde" unicode="&#x2dc;" horiz-adv-x="544" 
d="M310 483q14 -16 31 -25.5t38 -9.5q13 0 28 4t27 13q14 9 23 23.5t12 34.5l-25 2q-3 -16 -10.5 -26t-16.5 -15q-10 -6 -20 -8t-18 -2q-14 0 -25.5 5.5t-25.5 22.5q-15 17 -31.5 26.5t-37.5 9.5q-16 0 -32 -5t-29 -16q-12 -9 -20 -23t-10 -31l26 -3q2 15 9 24t15 15
q10 7 21.5 10t19.5 3q14 0 25 -6t26 -23z" />
    <glyph glyph-name="ellipsis" unicode="&#x2026;" horiz-adv-x="531" 
d="M54 27q-2 -12 5.5 -19.5t19.5 -7.5q11 0 21.5 8.5t12.5 20.5q1 12 -6.5 19.5t-18.5 7.5q-12 0 -22.5 -8t-11.5 -21zM222 27q-1 -12 6 -19.5t19 -7.5q11 0 21.5 8.5t12.5 20.5q1 12 -6.5 19.5t-18.5 7.5q-12 0 -22.5 -8t-11.5 -21zM390 27q-1 -12 6 -19.5t19 -7.5t22 8.5
t12 20.5q1 12 -6.5 19.5t-18.5 7.5q-12 0 -22.5 -8t-11.5 -21z" />
    <glyph glyph-name="fraction" unicode="&#x2044;" horiz-adv-x="342" 
d="M-35 0h42l392 755h-42z" />
    <glyph glyph-name="uni2074" unicode="&#x2074;" horiz-adv-x="408" 
d="M195 395l-3 -20h101l3 20h-42l10 73h49l3 20h-48l31 219l-219 -239h163l-10 -73h-38zM269 648l-23 -160h-122z" />
    <glyph glyph-name="Euro" unicode="&#x20ac;" horiz-adv-x="569" 
d="M68 413l-6 -41h64q-3 -11 -4.5 -22.5t-3.5 -22.5q-2 -10 -2.5 -19t-1.5 -18h-59l-5 -40h65q2 -51 17 -95t41 -77q31 -40 74 -62.5t93 -22.5q33 0 65.5 9t63.5 28l-24 29q-25 -14 -49.5 -20t-49.5 -6q-42 0 -77 19t-61 54q-22 26 -35 62.5t-15 81.5h218l5 40h-225
q1 9 1.5 18t2.5 19q2 11 4 22.5t4 22.5h223l7 41h-216q13 37 33 72t46 61q30 32 72 52t93 20q23 0 43.5 -5t39.5 -14l22 34q-12 8 -38 16.5t-61 8.5q-61 0 -112 -24t-89 -64q-32 -33 -55.5 -74.5t-36.5 -82.5h-71z" />
    <glyph glyph-name="minus" unicode="&#x2212;" horiz-adv-x="531" 
d="M75 188h360l5 40h-360z" />
    <glyph glyph-name="uni2215" unicode="&#x2215;" horiz-adv-x="312" 
d="M17 -17l331 752h-43l-332 -752h44z" />
  </font>
</defs>
</svg>
