<?xml version="1.0" standalone="no"?>
<!DOCTYPE svg PUBLIC "-//W3C//DTD SVG 1.1//EN" "http://www.w3.org/Graphics/SVG/1.1/DTD/svg11.dtd" >
<svg xmlns="http://www.w3.org/2000/svg" xmlns:xlink="http://www.w3.org/1999/xlink" version="1.1">
<metadata>
Created by FontForge 20170924 at Fri Sep 21 18:10:22 2012
 By Glenn,,,
Copyright (c) 2011-2012 by Jovanny Lemonad. All rights reserved.
</metadata>
<defs>
<font id="YesevaOne" horiz-adv-x="560" >
  <font-face 
    font-family="Yeseva One"
    font-weight="400"
    font-stretch="normal"
    units-per-em="1000"
    panose-1="2 0 5 3 9 0 0 2 0 3"
    ascent="800"
    descent="-200"
    x-height="500"
    cap-height="700"
    bbox="-130 -310 1275 940"
    underline-thickness="50"
    underline-position="-100"
    stemh="25"
    stemv="165"
    unicode-range="U+0020-2122"
  />
<missing-glyph horiz-adv-x="285" 
 />
    <glyph glyph-name=".notdef" horiz-adv-x="285" 
 />
    <glyph glyph-name="l" unicode="l" horiz-adv-x="340" 
d="M40 700h130c60 0 90 -30 90 -90v-580l60 -15v-15h-280v15l60 15v640l-60 15v15z" />
    <glyph glyph-name="a" unicode="a" horiz-adv-x="605" 
d="M235 235c0 0 -20 -45 -20 -105c0 -80 30 -110 60 -110c60 0 90 80 90 80v145c-60 0 -130 -10 -130 -10zM275 515c160 0 250 -90 250 -215v-270l60 -15v-15h-90c-95 0 -115 75 -115 75s-40 -90 -145 -90c-125 0 -185 60 -185 135c0 60 35 110 35 110s145 35 280 40v30
c0 155 -40 195 -110 195c-30 0 -50 -10 -50 -10v-150s-20 -5 -40 -5c-45 0 -75 30 -75 75c0 55 55 110 185 110z" />
    <glyph glyph-name="n" unicode="n" horiz-adv-x="665" 
d="M425 90v260c0 90 -40 130 -75 130c-60 0 -90 -80 -90 -80v-370l60 -15v-15h-280v15l60 15v440l-60 15v15h90c95 0 115 -75 115 -75s40 90 145 90c115 0 195 -80 195 -165v-320l60 -15v-15h-130c-60 0 -90 30 -90 90z" />
    <glyph glyph-name="m" unicode="m" horiz-adv-x="950" 
d="M710 90v260c0 95 -35 130 -65 130c-50 0 -80 -80 -80 -80v-370l60 -15v-15h-280v15l60 15v320c0 95 -35 130 -65 130c-50 0 -80 -80 -80 -80v-370l60 -15v-15h-280v15l60 15v440l-60 15v15h90c95 0 115 -75 115 -75s40 90 135 90c80 0 140 -40 170 -95c0 0 40 95 135 95
c110 0 185 -75 185 -165v-320l60 -15v-15h-130c-60 0 -90 30 -90 90z" />
    <glyph glyph-name="o" unicode="o" horiz-adv-x="610" 
d="M305 5c45 0 95 50 95 245s-50 245 -95 245s-95 -50 -95 -245s50 -245 95 -245zM305 515c165 0 265 -100 265 -265s-100 -265 -265 -265s-265 100 -265 265s100 265 265 265z" />
    <glyph glyph-name="b" unicode="b" horiz-adv-x="615" 
d="M240 445v-345s30 -80 90 -80c35 0 75 40 75 230c0 195 -40 235 -90 235c-40 0 -75 -40 -75 -40zM20 700h130c60 0 90 -30 90 -90v-135s45 40 115 40c130 0 220 -90 220 -265s-90 -265 -205 -265c-105 0 -145 90 -145 90s-20 -80 -135 -80h-10v675l-60 15v15z" />
    <glyph glyph-name="c" unicode="c" horiz-adv-x="530" 
d="M330 495c-70 0 -120 -50 -120 -245c0 -190 50 -240 120 -240c80 0 145 65 145 130h25c0 -80 -75 -155 -190 -155c-170 0 -270 100 -270 265s100 265 270 265c130 0 185 -55 185 -110c0 -45 -30 -75 -75 -75c-20 0 -40 5 -40 5v150s-20 10 -50 10z" />
    <glyph glyph-name="d" unicode="d" horiz-adv-x="620" 
d="M375 100v345s-35 40 -75 40c-50 0 -90 -40 -90 -235c0 -190 40 -230 75 -230c60 0 90 80 90 80zM315 700h130c60 0 90 -30 90 -90v-580l60 -15v-15h-90c-95 0 -115 75 -115 75s-40 -90 -145 -90c-115 0 -205 90 -205 265s90 265 220 265c70 0 115 -40 115 -40v195l-60 15
v15z" />
    <glyph glyph-name="f" unicode="f" horiz-adv-x="425" 
d="M95 455h-70v25h70v50c0 105 80 185 210 185c110 0 165 -55 165 -110c0 -45 -30 -75 -75 -75c-20 0 -40 5 -40 5v155s-15 5 -30 5c-40 0 -70 -30 -70 -165v-50h160v-25h-160v-425l60 -15v-15h-280v15l60 15v425z" />
    <glyph glyph-name="e" unicode="e" 
d="M210 250c90 0 140 10 140 10s10 35 10 75c0 120 -40 160 -75 160s-75 -40 -75 -245zM310 -15c-170 0 -270 100 -270 265s100 265 245 265c150 0 240 -90 240 -200c0 -35 -10 -60 -10 -60s-145 -30 -305 -30c0 -165 50 -215 120 -215c80 0 145 65 145 130h25
c0 -80 -75 -155 -190 -155z" />
    <glyph glyph-name="g" unicode="g" horiz-adv-x="605" 
d="M280 505c65 0 120 -15 150 -35c0 0 25 60 95 60c45 0 80 -35 80 -85c0 -40 -25 -65 -55 -65c-20 0 -35 5 -35 5v120c-45 0 -65 -50 -65 -50c35 -30 50 -70 50 -115c0 -95 -70 -165 -220 -165c-50 0 -95 10 -130 25c0 0 -40 -15 -40 -35s15 -35 80 -35h190
c100 0 160 -60 160 -165c0 -100 -80 -180 -265 -180c-190 0 -250 60 -250 110c0 45 30 75 75 75c24 0 40 -5 40 -5v-140s60 -20 125 -20c175 0 235 60 235 120c0 35 -30 65 -120 65h-190c-105 0 -155 50 -155 110c0 80 95 110 95 110c-50 30 -70 75 -70 130
c0 95 70 165 220 165zM280 195c40 0 70 30 70 145s-30 145 -70 145s-70 -30 -70 -145s30 -145 70 -145z" />
    <glyph glyph-name="h" unicode="h" horiz-adv-x="665" 
d="M425 90v260c0 90 -40 130 -75 130c-60 0 -90 -80 -90 -80v-370l60 -15v-15h-280v15l60 15v640l-60 15v15h130c60 0 90 -30 90 -90v-160s40 65 130 65c115 0 195 -80 195 -165v-320l60 -15v-15h-130c-60 0 -90 30 -90 90z" />
    <glyph glyph-name="j" unicode="j" horiz-adv-x="330" 
d="M90 625c0 45 40 85 85 85s85 -40 85 -85s-40 -85 -85 -85s-85 40 -85 85zM5 -50v-140s10 -5 20 -5c35 0 70 35 70 165v500l-60 15v15h130c60 0 90 -30 90 -90v-440c0 -105 -80 -185 -220 -185c-105 0 -145 40 -145 95c0 45 30 75 75 75c20 0 40 -5 40 -5z" />
    <glyph glyph-name="r" unicode="r" horiz-adv-x="505" 
d="M385 340v140c-80 0 -125 -80 -125 -80v-370l60 -15v-15h-280v15l60 15v440l-60 15v15h90c95 0 115 -75 115 -75s50 80 149 80c71 0 106 -35 106 -95c0 -45 -30 -75 -75 -75c-20 0 -40 5 -40 5z" />
    <glyph glyph-name="t" unicode="t" horiz-adv-x="450" 
d="M85 500v50c0 60 30 90 90 90h70v-140h140v-25h-140v-305c0 -130 30 -160 75 -160s90 45 90 130h25c0 -100 -55 -155 -135 -155c-135 0 -215 80 -215 185v305h-70v25h70z" />
    <glyph glyph-name="x" unicode="x" horiz-adv-x="555" 
d="M90 45l124 159l-169 266l-50 15v15h135c70 0 103 -35 135 -85l51 -81l94 121l-75 30v15h190v-15l-80 -30l-114 -145l179 -280l50 -15v-15h-135c-70 0 -103 35 -135 85l-60 94l-105 -134l75 -30v-15h-190v15z" />
    <glyph glyph-name="k" unicode="k" horiz-adv-x="600" 
d="M40 700h130c60 0 90 -30 90 -90v-350l185 195l-75 30v15h190v-15l-80 -30l-115 -120l195 -305l50 -15v-15h-130c-70 0 -104 35 -135 85l-85 135v-190l60 -15v-15h-280v15l60 15v640l-60 15v15z" />
    <glyph glyph-name="p" unicode="p" horiz-adv-x="625" 
d="M250 400v-345s35 -40 75 -40c50 0 90 40 90 235c0 190 -40 230 -75 230c-60 0 -90 -80 -90 -80zM90 -170v640l-60 15v15h90c95 0 115 -75 115 -75s40 90 145 90c115 0 205 -90 205 -265s-90 -265 -220 -265c-70 0 -115 40 -115 40v-195l60 -15v-15h-280v15z" />
    <glyph glyph-name="q" unicode="q" horiz-adv-x="615" 
d="M375 55v345s-30 80 -90 80c-35 0 -75 -40 -75 -230c0 -195 40 -235 90 -235c40 0 75 40 75 40zM375 -170v195s-45 -40 -115 -40c-130 0 -220 90 -220 265s90 265 205 265c105 0 145 -90 145 -90s20 80 135 80h10v-675l60 -15v-15h-280v15z" />
    <glyph glyph-name="s" unicode="s" horiz-adv-x="540" 
d="M275 -15c-95 0 -150 55 -150 55c-20 -30 -55 -45 -55 -45h-25v170h40s45 -155 170 -155c55 0 85 30 85 80c0 110 -290 120 -290 290c0 75 60 135 210 135c80 0 136 -55 136 -55c20 30 55 45 55 45h25v-170h-40s-46 155 -156 155c-35 0 -65 -30 -65 -70
c0 -120 290 -130 290 -290c0 -85 -60 -145 -230 -145z" />
    <glyph glyph-name="u" unicode="u" horiz-adv-x="650" 
d="M25 500h130c60 0 90 -30 90 -90v-260c0 -90 40 -130 75 -130c60 0 90 80 90 80v370l-60 15v15h280v-15l-60 -15v-475h-10c-115 0 -135 80 -135 80s-40 -90 -145 -90c-115 0 -195 80 -195 165v320l-60 15v15z" />
    <glyph glyph-name="v" unicode="v" 
d="M359 184l111 271l-75 30v15h185v-15l-80 -30l-190 -465h-30l-250 480l-50 15v15h125c75 0 109 -35 135 -85z" />
    <glyph glyph-name="y" unicode="y" 
d="M365 184l105 271l-75 30v15h185v-15l-80 -30l-200 -515c-43 -110 -90 -155 -150 -155s-95 35 -95 90c0 50 30 80 75 80c20 0 40 -5 40 -5v-135c35 5 64 35 100 125l20 50l-260 480l-50 15v15h125c75 0 108 -35 135 -85z" />
    <glyph glyph-name="w" unicode="w" horiz-adv-x="835" 
d="M260 -10l-230 480l-50 15v15h115c75 0 111 -35 135 -85l110 -230l57 146l-67 139l-50 15v15h115c75 0 111 -35 135 -85l110 -230l105 270l-75 30v15h185v-15l-80 -30l-185 -465h-30l-148 308l-122 -308h-30z" />
    <glyph glyph-name="z" unicode="z" horiz-adv-x="545" 
d="M325 475h-180c0 -95 -65 -150 -65 -150h-30v175h455v-25l-285 -450h190c0 95 65 150 65 150h30v-175h-465v25z" />
    <glyph glyph-name="A" unicode="A" horiz-adv-x="680" 
d="M90 45l75 -30v-15h-185v15l80 30l275 665h30l285 -680l50 -15v-15h-120c-75 0 -115 40 -134 85l-51 120h-239zM275 493l-109 -263h219z" />
    <glyph glyph-name="B" unicode="B" horiz-adv-x="680" 
d="M110 670l-60 15v15h270c215 0 295 -80 295 -175c0 -155 -235 -155 -235 -155s270 0 270 -180c0 -110 -80 -190 -310 -190h-290v15l60 15v640zM340 355h-65v-330h65c80 0 140 60 140 165s-60 165 -140 165zM275 675v-295h45c65 0 125 60 125 145c0 90 -60 150 -125 150
h-45z" />
    <glyph glyph-name="C" unicode="C" horiz-adv-x="650" 
d="M361 715c94 0 159 -65 159 -65c20 35 55 55 55 55h25v-190h-40s-45 175 -180 175c-80 0 -160 -80 -160 -340s80 -340 185 -340c95 0 185 90 185 190h25c0 -115 -100 -215 -230 -215c-210 0 -340 130 -340 365s130 365 316 365z" />
    <glyph glyph-name="D" unicode="D" horiz-adv-x="715" 
d="M50 700h255c240 0 370 -130 370 -350s-130 -350 -370 -350h-255v15l60 15v640l-60 15v15zM305 675h-30v-650h30c115 0 195 80 195 325s-80 325 -195 325z" />
    <glyph glyph-name="E" unicode="E" horiz-adv-x="645" 
d="M275 360h115c10 55 45 100 45 100h30v-225h-30s-35 45 -45 100h-115v-310h235c0 105 65 155 65 155h30v-180h-555v15l60 15v640l-60 15v15h535v-180h-30s-65 50 -65 155h-215v-315z" />
    <glyph glyph-name="F" unicode="F" horiz-adv-x="610" 
d="M275 360h115c10 55 45 100 45 100h30v-225h-30s-35 45 -45 100h-115v-305l60 -15v-15h-285v15l60 15v640l-60 15v15h535v-180h-30s-65 50 -65 155h-215v-315z" />
    <glyph glyph-name="G" unicode="G" horiz-adv-x="700" 
d="M365 20c60 0 90 80 90 80v230l-60 15v15h285v-15l-60 -15v-335h-15c-115 0 -135 80 -135 80s-40 -90 -145 -90c-150 0 -280 130 -280 365s130 365 316 365c94 0 159 -65 159 -65c20 35 55 55 55 55h25v-190h-40s-45 175 -180 175c-80 0 -160 -80 -160 -340
s70 -330 145 -330z" />
    <glyph glyph-name="H" unicode="H" horiz-adv-x="765" 
d="M110 670l-60 15v15h285v-15l-60 -15v-310h215v310l-60 15v15h285v-15l-60 -15v-640l60 -15v-15h-285v15l60 15v305h-215v-305l60 -15v-15h-285v15l60 15v640z" />
    <glyph glyph-name="I" unicode="I" horiz-adv-x="385" 
d="M110 670l-60 15v15h285v-15l-60 -15v-640l60 -15v-15h-285v15l60 15v640z" />
    <glyph glyph-name="J" unicode="J" horiz-adv-x="550" 
d="M165 5c70 0 120 50 120 195v470l-60 15v15h285v-15l-60 -15v-470c0 -135 -80 -215 -265 -215c-130 0 -185 55 -185 110c0 45 30 75 75 75c20 0 40 -5 40 -5v-150s20 -10 50 -10z" />
    <glyph glyph-name="K" unicode="K" horiz-adv-x="690" 
d="M650 30l50 -15v-15h-140c-65 0 -105 40 -135 85l-150 230v-285l60 -15v-15h-285v15l60 15v640l-60 15v15h285v-15l-60 -15v-314l245 299l-75 30v15h190v-15l-80 -30l-175 -215z" />
    <glyph glyph-name="L" unicode="L" horiz-adv-x="610" 
d="M50 700h285v-15l-60 -15v-645h215c0 105 65 155 65 155h30v-180h-535v15l60 15v640l-60 15v15z" />
    <glyph glyph-name="M" unicode="M" horiz-adv-x="985" 
d="M830 700h105v-15l-60 -15v-640l60 -15v-15h-285v15l60 15v545l-235 -585h-30l-305 585v-530l80 -30v-15h-190v15l80 30v625l-60 15v15h125c75 0 109 -35 135 -85l218 -417l167 417c22 55 50 85 135 85z" />
    <glyph glyph-name="O" unicode="O" horiz-adv-x="740" 
d="M520 350c0 265 -80 345 -150 345s-150 -80 -150 -345s80 -345 150 -345s150 80 150 345zM695 350c0 -235 -130 -365 -325 -365s-325 130 -325 365s130 365 325 365s325 -130 325 -365z" />
    <glyph glyph-name="N" unicode="N" horiz-adv-x="740" 
d="M605 255v400l-80 30v15h190v-15l-80 -30v-670h-30l-465 545v-485l80 -30v-15h-190v15l80 30v620l-70 20v15h105c80 0 115 -40 140 -70z" />
    <glyph glyph-name="P" unicode="P" horiz-adv-x="675" 
d="M275 295h55c80 0 140 60 140 190s-60 190 -140 190h-55v-380zM330 270h-55v-240l60 -15v-15h-285v15l60 15v640l-60 15v15h280c230 0 310 -80 310 -215s-80 -215 -310 -215z" />
    <glyph glyph-name="Q" unicode="Q" horiz-adv-x="740" 
d="M695 350c0 -200 -95 -324 -245 -355c0 -110 25 -135 50 -135c20 0 30 10 30 10l10 -25s-20 -15 -70 -15c-110 0 -180 70 -180 165c-150 30 -245 155 -245 355c0 235 130 365 325 365s325 -130 325 -365zM520 350c0 265 -80 345 -150 345s-150 -80 -150 -345
s80 -345 150 -345s150 80 150 345z" />
    <glyph glyph-name="R" unicode="R" horiz-adv-x="700" 
d="M440 85l-100 225h-65v-280l70 -15v-15h-295v15l60 15v640l-60 15v15h265c240 0 320 -80 320 -195c0 -185 -240 -185 -240 -185s125 0 165 -90l90 -200l50 -15v-15h-140c-60 0 -98 35 -120 85zM275 335h40c90 0 150 60 150 170s-60 170 -150 170h-40v-340z" />
    <glyph glyph-name="T" unicode="T" horiz-adv-x="635" 
d="M460 0h-285v15l60 15v645h-115c0 -105 -65 -155 -65 -155h-30v180h585v-180h-30s-65 50 -65 155h-115v-645l60 -15v-15z" />
    <glyph glyph-name="S" unicode="S" horiz-adv-x="595" 
d="M275 10c75 0 125 50 125 125c0 155 -355 165 -355 405c0 95 80 175 245 175c95 0 160 -65 160 -65c20 35 55 55 55 55h25v-190h-40s-45 175 -180 175c-50 0 -95 -45 -95 -110c0 -170 355 -180 355 -400c0 -105 -90 -195 -275 -195c-115 0 -180 65 -180 65
c-20 -35 -55 -55 -55 -55h-25v190h40s45 -175 200 -175z" />
    <glyph glyph-name="U" unicode="U" horiz-adv-x="710" 
d="M595 250v405l-80 30v15h190v-15l-80 -30v-405c0 -165 -100 -265 -230 -265c-200 0 -300 100 -300 265v420l-60 15v15h285v-15l-60 -15v-420c0 -180 60 -240 155 -240c90 0 180 90 180 240z" />
    <glyph glyph-name="V" unicode="V" horiz-adv-x="665" 
d="M412 212l163 443l-75 30v15h185v-15l-80 -30l-245 -665h-30l-300 680l-50 15v15h120c75 0 115 -40 135 -85z" />
    <glyph glyph-name="X" unicode="X" horiz-adv-x="665" 
d="M95 45l170 251l-220 374l-50 15v15h145c70 0 105 -35 135 -85l96 -164l139 204l-75 30v15h190v-15l-80 -30l-157 -231l232 -394l50 -15v-15h-145c-70 0 -105 35 -135 85l-108 183l-152 -223l75 -30v-15h-190v15z" />
    <glyph glyph-name="Z" unicode="Z" horiz-adv-x="635" 
d="M225 25h270c0 105 65 155 65 155h30v-180h-550v25l371 650h-261c0 -105 -65 -155 -65 -155h-30v180h540v-25z" />
    <glyph glyph-name="W" unicode="W" horiz-adv-x="985" 
d="M305 -10l-270 685l-55 10v15h120c75 0 118 -40 135 -85l151 -385l88 258l-74 187l-55 10v15h120c75 0 117 -40 135 -85l151 -385l144 425l-75 30v15h185v-15l-80 -30l-225 -665h-30l-180 457l-155 -457h-30z" />
    <glyph glyph-name="Y" unicode="Y" horiz-adv-x="665" 
d="M255 260l-205 410l-50 15v15h125c75 0 110 -35 135 -85l148 -295l152 335l-75 30v15h190v-15l-80 -30l-175 -385v-240l60 -15v-15h-285v15l60 15v230z" />
    <glyph glyph-name="zero" unicode="0" horiz-adv-x="670" 
d="M335 -15c-160 0 -290 130 -290 365s130 365 290 365s290 -130 290 -365s-130 -365 -290 -365zM335 5c55 0 115 60 115 345s-60 345 -115 345s-115 -60 -115 -345s60 -345 115 -345z" />
    <glyph glyph-name="one" unicode="1" horiz-adv-x="415" 
d="M305 700v-665l70 -20v-15h-305v15l70 20v549l-105 -74l-20 25l182 165h108z" />
    <glyph glyph-name="two" unicode="2" horiz-adv-x="575" 
d="M519 510c0 -240 -384 -230 -454 -430h370c10 80 60 120 60 120h30v-200h-495v45c0 245 319 300 319 505c0 90 -50 140 -115 140c-50 0 -80 -15 -80 -15v-160s-20 -5 -40 -5c-45 0 -75 30 -75 75c0 60 70 130 215 130c185 0 265 -80 265 -205z" />
    <glyph glyph-name="three" unicode="3" horiz-adv-x="585" 
d="M240 -15c-145 0 -215 70 -215 130c0 45 30 75 75 75c20 0 40 -5 40 -5v-160s30 -15 80 -15c90 0 145 55 145 170c0 120 -55 175 -135 175h-50v25h50c55 0 105 50 105 155s-50 155 -110 155c-40 0 -70 -15 -70 -15v-160s-20 -5 -40 -5c-45 0 -75 30 -75 75
c0 60 70 130 205 130c175 0 260 -85 260 -180c0 -160 -215 -165 -215 -165s245 -5 245 -190c0 -110 -85 -195 -295 -195z" />
    <glyph glyph-name="four" unicode="4" horiz-adv-x="600" 
d="M470 35l70 -20v-15h-305v15l70 20v150h-285l-20 30l375 495h95v-480h105v-45h-105v-150zM55 230h250v330z" />
    <glyph glyph-name="five" unicode="5" horiz-adv-x="570" 
d="M230 10c75 0 130 55 130 205c0 145 -53 200 -140 200c-75 0 -140 -65 -140 -65l-20 15l40 335h295c10 80 60 120 60 120h30v-195h-363l-27 -230s60 45 145 45c200 0 290 -90 290 -225c0 -140 -90 -230 -280 -230c-145 0 -215 70 -215 130c0 45 30 75 75 75
c20 0 40 -5 40 -5v-160s30 -15 80 -15z" />
    <glyph glyph-name="space" unicode=" " horiz-adv-x="280" 
 />
    <glyph glyph-name="six" unicode="6" horiz-adv-x="620" 
d="M320 5c35 0 85 50 85 200s-50 200 -90 200c-50 0 -90 -45 -90 -165c0 -185 50 -235 95 -235zM365 690c-90 0 -145 -55 -145 -320c0 0 35 60 115 60c150 0 240 -90 240 -215c0 -140 -90 -230 -255 -230c-160 0 -270 110 -270 365c0 245 115 365 295 365
c125 0 195 -70 195 -130c0 -45 -30 -75 -75 -75c-20 0 -40 5 -40 5v160s-30 15 -60 15z" />
    <glyph glyph-name="seven" unicode="7" horiz-adv-x="530" 
d="M30 700h475v-45c0 -195 -185 -305 -185 -655h-175c0 340 265 430 330 625h-355c-10 -80 -60 -120 -60 -120h-30v195z" />
    <glyph glyph-name="nine" unicode="9" horiz-adv-x="620" 
d="M300 695c-35 0 -85 -50 -85 -200s50 -200 90 -200c50 0 90 45 90 165c0 185 -50 235 -95 235zM255 10c90 0 145 55 145 320c0 0 -35 -60 -115 -60c-150 0 -240 90 -240 215c0 140 90 230 255 230c160 0 270 -110 270 -365c0 -245 -115 -365 -295 -365
c-125 0 -195 70 -195 130c0 45 30 75 75 75c20 0 40 -5 40 -5v-160s30 -15 60 -15z" />
    <glyph glyph-name="ampersand" unicode="&#x26;" horiz-adv-x="690" 
d="M300 10c65 0 110 60 110 60l-180 255s-40 -35 -40 -165c0 -100 50 -150 110 -150zM640 375l-80 -30c0 -80 -43 -155 -43 -155l113 -160l50 -15v-15h-140c-55 0 -95 20 -115 50c0 0 -50 -65 -145 -65c-190 0 -260 70 -260 175c0 150 195 185 195 185l-55 80
c-24 35 -50 80 -50 135c0 85 70 155 205 155c85 0 140 -65 140 -65c20 35 55 55 55 55h25v-190h-40s-45 175 -160 175c-40 0 -75 -35 -75 -90c0 -50 40 -105 62 -135l178 -250s35 55 35 130l-80 30v15h185v-15z" />
    <glyph glyph-name="quotesingle" unicode="'" horiz-adv-x="210" 
d="M105 710c35 0 60 -25 60 -70l-40 -195h-40l-40 195c0 45 25 70 60 70z" />
    <glyph glyph-name="exclam" unicode="!" horiz-adv-x="310" 
d="M250 600l-80 -385h-30l-80 385c0 70 45 115 95 115s95 -45 95 -115zM230 70c0 -45 -35 -80 -75 -80s-75 35 -75 80s35 80 75 80s75 -35 75 -80z" />
    <glyph glyph-name="quotedbl" unicode="&#x22;" horiz-adv-x="370" 
d="M105 710c35 0 60 -25 60 -70l-40 -195h-40l-40 195c0 45 25 70 60 70zM265 710c35 0 60 -25 60 -70l-40 -195h-40l-40 195c0 45 25 70 60 70z" />
    <glyph glyph-name="numbersign" unicode="#" horiz-adv-x="650" 
d="M325 700l-48 -185h180l48 185h60l-48 -185h113v-50h-126l-59 -230h135v-50h-148l-47 -185h-60l47 185h-180l-47 -185h-60l47 185h-112v50h125l59 230h-134v50h147l48 185h60zM264 465l-59 -230h180l59 230h-180z" />
    <glyph glyph-name="dollar" unicode="$" horiz-adv-x="595" 
d="M320 780v-67c81 -9 135 -63 135 -63c20 35 55 55 55 55h25v-190h-40s-44 170 -175 174v-246c103 -67 250 -121 250 -263c0 -100 -82 -186 -250 -194v-66h-30v65c-112 2 -175 65 -175 65c-20 -35 -55 -55 -55 -55h-25v190h40s45 -175 200 -175c5 0 10 0 15 1v256
c-103 62 -240 122 -240 273c0 94 78 173 240 175v65h30zM400 135c0 48 -34 82 -80 113v-231c49 16 80 59 80 118zM220 580c0 -49 29 -85 70 -116v222c-39 -12 -70 -52 -70 -106z" />
    <glyph glyph-name="percent" unicode="%" horiz-adv-x="750" 
d="M605 700h55l-515 -700h-55zM610 165c0 125 -30 155 -55 155s-55 -30 -55 -155s30 -155 55 -155s55 30 55 155zM720 165c0 -105 -70 -175 -165 -175s-165 70 -165 175s70 175 165 175s165 -70 165 -175zM250 535c0 125 -30 155 -55 155s-55 -30 -55 -155s30 -155 55 -155
s55 30 55 155zM360 535c0 -105 -70 -175 -165 -175s-165 70 -165 175s70 175 165 175s165 -70 165 -175z" />
    <glyph glyph-name="parenleft" unicode="(" horiz-adv-x="355" 
d="M220 265c0 -205 40 -385 120 -490l-10 -15c-150 100 -280 270 -280 505s130 405 280 505l10 -15c-80 -105 -120 -285 -120 -490z" />
    <glyph glyph-name="parenright" unicode=")" horiz-adv-x="355" 
d="M135 265c0 205 -40 385 -120 490l10 15c150 -100 280 -270 280 -505s-130 -405 -280 -505l-10 15c80 105 120 285 120 490z" />
    <glyph glyph-name="asterisk" unicode="*" horiz-adv-x="390" 
d="M195 370c-25 0 -45 20 -45 45l30 100l-70 -75c-22 -13 -54 -8 -65 15c-11 22 -2 48 20 60l100 25l-100 25c-22 12 -31 38 -20 60c11 23 43 28 65 15l70 -75l-30 100c0 25 20 45 45 45s45 -20 45 -45l-30 -100l70 75c22 13 54 8 65 -15c11 -22 2 -48 -20 -60l-100 -25
l100 -25c22 -12 31 -38 20 -60c-11 -23 -43 -28 -65 -15l-70 75l30 -100c0 -25 -20 -45 -45 -45z" />
    <glyph glyph-name="plus" unicode="+" horiz-adv-x="515" 
d="M280 95h-45v215h-200v45h200v215h45v-215h200v-45h-200v-215z" />
    <glyph glyph-name="period" unicode="." horiz-adv-x="240" 
d="M195 65c0 -40 -35 -75 -75 -75s-75 35 -75 75s35 75 75 75s75 -35 75 -75z" />
    <glyph glyph-name="comma" unicode="," horiz-adv-x="245" 
d="M80 -130l-10 25s80 25 95 110c0 0 -20 -15 -45 -15c-40 0 -75 35 -75 75s35 75 75 75c45 0 80 -35 80 -90c0 -145 -120 -180 -120 -180z" />
    <glyph glyph-name="hyphen" unicode="-" horiz-adv-x="470" 
d="M35 345h400v-45h-400v45z" />
    <glyph glyph-name="slash" unicode="/" horiz-adv-x="350" 
d="M325 750h45l-345 -800h-45z" />
    <glyph glyph-name="backslash" unicode="\" horiz-adv-x="350" 
d="M-20 750h45l345 -800h-45z" />
    <glyph glyph-name="equal" unicode="=" horiz-adv-x="460" 
d="M35 430h390v-45h-390v45zM35 280h390v-45h-390v45z" />
    <glyph glyph-name="colon" unicode=":" horiz-adv-x="240" 
d="M195 65c0 -40 -35 -75 -75 -75s-75 35 -75 75s35 75 75 75s75 -35 75 -75zM195 435c0 -40 -35 -75 -75 -75s-75 35 -75 75s35 75 75 75s75 -35 75 -75z" />
    <glyph glyph-name="semicolon" unicode=";" horiz-adv-x="245" 
d="M80 -130l-10 25s80 25 95 110c0 0 -20 -15 -45 -15c-40 0 -75 35 -75 75s35 75 75 75c45 0 80 -35 80 -90c0 -145 -120 -180 -120 -180zM195 435c0 -40 -35 -75 -75 -75s-75 35 -75 75s35 75 75 75s75 -35 75 -75z" />
    <glyph glyph-name="greater" unicode="&#x3e;" horiz-adv-x="505" 
d="M35 500l445 -250l-445 -250v55l345 195l-345 195v55z" />
    <glyph glyph-name="question" unicode="?" 
d="M210 690c-50 0 -80 -15 -80 -15v-160s-20 -5 -40 -5c-45 0 -75 30 -75 75c0 60 70 130 215 130c205 0 295 -90 295 -205c0 -110 -80 -190 -250 -215l-5 -80h-40l-5 95c75 30 125 80 125 200c0 130 -49 180 -140 180zM320 70c0 -45 -35 -80 -75 -80s-75 35 -75 80
s35 80 75 80s75 -35 75 -80z" />
    <glyph glyph-name="bracketleft" unicode="[" horiz-adv-x="350" 
d="M85 720h255v-25h-95v-890h95v-25h-255v940z" />
    <glyph glyph-name="bracketright" unicode="]" horiz-adv-x="350" 
d="M10 720h255v-940h-255v25h95v890h-95v25z" />
    <glyph glyph-name="underscore" unicode="_" horiz-adv-x="390" 
d="M0 -55h390v-45h-390v45z" />
    <glyph glyph-name="braceleft" unicode="{" horiz-adv-x="370" 
d="M30 235v30c45 0 75 30 75 100v205c0 80 70 150 195 150h60v-25h-10c-50 0 -85 -35 -85 -105v-185c0 -150 -160 -155 -160 -155s160 -5 160 -155v-185c0 -70 35 -105 85 -105h10v-25h-60c-125 0 -195 70 -195 150v205c0 70 -30 100 -75 100z" />
    <glyph glyph-name="braceright" unicode="}" horiz-adv-x="370" 
d="M340 265v-30c-45 0 -75 -30 -75 -100v-205c0 -80 -70 -150 -195 -150h-60v25h10c50 0 85 35 85 105v185c0 150 160 155 160 155s-160 5 -160 155v185c0 70 -35 105 -85 105h-10v25h60c125 0 195 -70 195 -150v-205c0 -70 30 -100 75 -100z" />
    <glyph glyph-name="asciicircum" unicode="^" horiz-adv-x="480" 
d="M30 430l210 290l210 -290h-60l-150 205l-150 -205h-60z" />
    <glyph glyph-name="at" unicode="@" horiz-adv-x="840" 
d="M345 260c0 -115 30 -150 60 -150c35 0 50 60 50 60v305c-60 0 -110 -50 -110 -215zM75 290c0 -205 155 -360 345 -360c110 0 190 60 190 60l15 -25s-85 -65 -205 -65c-210 0 -380 170 -380 390s170 390 380 390s380 -170 380 -390c0 -135 -80 -215 -165 -215
c-150 0 -160 80 -160 80s-20 -80 -110 -80c-95 0 -165 70 -165 185c0 150 90 240 255 240h145v-325c0 -50 25 -75 55 -75c45 0 110 65 110 190c0 205 -155 360 -345 360s-345 -155 -345 -360z" />
    <glyph glyph-name="copyright" unicode="&#xa9;" horiz-adv-x="840" 
d="M460 545c-45 0 -95 -50 -95 -195c0 -140 50 -190 100 -190c65 0 115 50 115 110h25c0 -70 -65 -135 -160 -135c-140 0 -220 80 -220 215s80 215 215 215c110 0 160 -50 160 -100c0 -40 -25 -65 -65 -65c-20 0 -40 5 -40 5v135s-15 5 -35 5zM40 350c0 220 170 390 380 390
s380 -170 380 -390s-170 -390 -380 -390s-380 170 -380 390zM765 350c0 210 -150 360 -345 360s-345 -150 -345 -360s150 -360 345 -360s345 150 345 360z" />
    <glyph glyph-name="registered" unicode="&#xae;" horiz-adv-x="840" 
d="M660 140h-100c-50 0 -82 30 -95 60l-55 125h-20v-160l50 -10v-15h-230v15l50 10v370l-50 10v15h190c170 0 220 -50 220 -120c0 -100 -140 -105 -140 -105s70 -5 95 -60l50 -110l35 -10v-15zM400 535h-10v-190h10c53 0 80 35 80 95s-35 95 -80 95zM40 350
c0 220 170 390 380 390s380 -170 380 -390s-170 -390 -380 -390s-380 170 -380 390zM765 350c0 210 -150 360 -345 360s-345 -150 -345 -360s150 -360 345 -360s345 150 345 360z" />
    <glyph glyph-name="section" unicode="&#xa7;" horiz-adv-x="520" 
d="M230 -210c-130 0 -185 55 -185 110c0 45 30 75 75 75c20 0 40 -5 40 -5v-150s20 -10 50 -10c65 0 105 40 105 115c0 140 -275 140 -275 310c0 57 42 112 135 135c-60 40 -115 90 -115 180s70 160 225 160c120 0 175 -55 175 -110c0 -45 -30 -75 -75 -75
c-20 0 -40 5 -40 5v155s-20 5 -40 5c-40 0 -80 -40 -80 -110c0 -145 255 -145 255 -315c0 -50 -40 -105 -135 -125c68 -38 135 -86 135 -185c0 -95 -70 -165 -250 -165zM320 150c0 0 10 15 10 65c0 85 -130 140 -130 140s-10 -15 -10 -65c0 -85 130 -140 130 -140z" />
    <glyph glyph-name="trademark" unicode="&#x2122;" horiz-adv-x="890" 
d="M360 700v-125h-20s-40 40 -40 105h-50v-285l40 -10v-15h-190v15l40 10v285h-50c0 -65 -40 -105 -40 -105h-20v125h330zM450 400l50 -15v-15h-125v15l50 15v275l-40 10v15h85c35 0 66 -30 80 -55l83 -147l67 147c11 25 40 55 75 55h80v-15l-40 -10v-280l40 -10v-15h-190
v15l40 10v195l-105 -230h-20l-130 230v-190z" />
    <glyph glyph-name="paragraph" unicode="&#xb6;" horiz-adv-x="590" 
d="M325 -200h-55v470c-155 0 -235 80 -235 215s80 215 235 215h295v-30h-80v-870h-55v870h-105v-870z" />
    <glyph glyph-name="guillemotright" unicode="&#xbb;" horiz-adv-x="440" 
d="M425 250l-260 -230l-25 25l185 205l-185 205l25 25zM245 250l-190 -175l-25 25l120 150l-120 150l25 25z" />
    <glyph glyph-name="guillemotleft" unicode="&#xab;" horiz-adv-x="440" 
d="M275 20l-260 230l260 230l25 -25l-185 -205l185 -205zM385 75l-190 175l190 175l25 -25l-120 -150l120 -150z" />
    <glyph glyph-name="ordmasculine" unicode="&#xba;" horiz-adv-x="390" 
d="M250 535c0 125 -30 155 -55 155s-55 -30 -55 -155s30 -155 55 -155s55 30 55 155zM360 535c0 -105 -70 -175 -165 -175s-165 70 -165 175s70 175 165 175s165 -70 165 -175z" />
    <glyph glyph-name="onesuperior" unicode="&#xb9;" horiz-adv-x="285" 
d="M215 700v-305l40 -10v-15h-190v15l40 10v225l-60 -45l-15 15l110 110h75z" />
    <glyph glyph-name="twosuperior" unicode="&#xb2;" horiz-adv-x="345" 
d="M175 710c95 0 140 -45 140 -100c0 -120 -195 -120 -255 -195h190c5 45 40 80 40 80h20v-125h-280v30c0 120 175 120 175 230c0 35 -25 60 -50 60c-19 0 -40 -5 -40 -5v-100s-15 -5 -35 -5c-30 0 -50 20 -50 50c0 40 40 80 145 80z" />
    <glyph glyph-name="threesuperior" unicode="&#xb3;" horiz-adv-x="360" 
d="M175 360c-105 0 -145 40 -145 80c0 30 20 50 50 50c20 0 35 -5 35 -5v-100s21 -5 40 -5c40 0 65 26 65 75c0 51 -25 75 -60 75h-26v20h26c20 0 45 25 45 70s-25 70 -45 70c-19 0 -40 -5 -40 -5v-100s-15 -5 -35 -5c-30 0 -50 20 -50 50c0 40 40 80 145 80
c90 0 135 -45 135 -90c0 -75 -110 -80 -110 -80s125 -5 125 -85c0 -50 -45 -95 -155 -95z" />
    <glyph glyph-name="onequarter" unicode="&#xbc;" horiz-adv-x="705" 
d="M580 700h55l-515 -700h-55zM205 700v-305l40 -10v-15h-190v15l40 10v225l-60 -45l-15 15l110 110h75zM535 340c95 0 140 -45 140 -100c0 -120 -195 -120 -255 -195h190c5 45 40 80 40 80h20v-125h-280v30c0 120 175 120 175 230c0 35 -25 60 -50 60c-19 0 -40 -5 -40 -5
v-100s-15 -5 -35 -5c-30 0 -50 20 -50 50c0 40 40 80 145 80z" />
    <glyph glyph-name="onehalf" unicode="&#xbd;" horiz-adv-x="687" 
d="M590 700h55l-515 -700h-55zM205 700v-305l40 -10v-15h-190v15l40 10v225l-60 -45l-15 15l110 110h75zM340 75l-15 25l210 230h60v-225h62v-30h-62v-50l40 -10v-15h-190v15l40 10v50h-145zM485 235l-120 -130h120v130z" />
    <glyph glyph-name="threequarters" unicode="&#xbe;" horiz-adv-x="707" 
d="M360 75l-15 25l210 230h60v-225h62v-30h-62v-50l40 -10v-15h-190v15l40 10v50h-145zM505 235l-120 -130h120v130zM620 700h55l-515 -700h-55zM175 360c-105 0 -145 40 -145 80c0 30 20 50 50 50c20 0 35 -5 35 -5v-100s21 -5 40 -5c40 0 65 26 65 75c0 51 -25 75 -60 75
h-26v20h26c20 0 45 25 45 70s-25 70 -45 70c-19 0 -40 -5 -40 -5v-100s-15 -5 -35 -5c-30 0 -50 20 -50 50c0 40 40 80 145 80c90 0 135 -45 135 -90c0 -75 -110 -80 -110 -80s125 -5 125 -85c0 -50 -45 -95 -155 -95z" />
    <glyph glyph-name="ordfeminine" unicode="&#xaa;" horiz-adv-x="415" 
d="M155 520c0 0 -15 -25 -15 -60c0 -50 25 -75 45 -75c30 0 50 53 50 53v87c-40 0 -80 -5 -80 -5zM195 710c95 0 150 -55 150 -150v-165l40 -10v-15h-60c-70 0 -80 50 -80 50s-20 -60 -90 -60c-85 0 -125 40 -125 90c0 40 20 65 20 65s95 30 185 30v35c0 85 -25 110 -60 110
c-19 0 -40 -5 -40 -5v-100s-15 -5 -35 -5c-30 0 -50 20 -50 50c0 40 40 80 145 80z" />
    <glyph glyph-name="i" unicode="i" horiz-adv-x="340" 
d="M95 625c0 45 40 85 85 85s85 -40 85 -85s-40 -85 -85 -85s-85 40 -85 85zM40 500h130c60 0 90 -30 90 -90v-380l60 -15v-15h-280v15l60 15v440l-60 15v15z" />
    <glyph glyph-name="grave" unicode="`" horiz-adv-x="220" 
d="M20 700h130l40 -150h-35z" />
    <glyph glyph-name="bar" unicode="|" horiz-adv-x="225" 
d="M85 700h55v-900h-55v900z" />
    <glyph glyph-name="asciitilde" unicode="~" horiz-adv-x="515" 
d="M380 345c45 0 80 35 80 75h25c0 -130 -54 -185 -135 -185c-95 0 -130 75 -215 75c-45 0 -80 -35 -80 -75h-25c0 130 55 185 135 185c95 0 135 -75 215 -75z" />
    <glyph glyph-name="quotesinglbase" unicode="&#x201a;" horiz-adv-x="245" 
d="M80 -130l-10 25s80 25 95 110c0 0 -20 -15 -45 -15c-40 0 -75 35 -75 75s35 75 75 75c45 0 80 -35 80 -90c0 -145 -120 -180 -120 -180z" />
    <glyph glyph-name="quotedblbase" unicode="&#x201e;" horiz-adv-x="435" 
d="M80 -130l-10 25s80 25 95 110c0 0 -20 -15 -45 -15c-40 0 -75 35 -75 75s35 75 75 75c45 0 80 -35 80 -90c0 -145 -120 -180 -120 -180zM270 -130l-10 25s80 25 95 110c0 0 -20 -15 -45 -15c-40 0 -75 35 -75 75s35 75 75 75c45 0 80 -35 80 -90
c0 -145 -120 -180 -120 -180z" />
    <glyph glyph-name="quotedblright" unicode="&#x201d;" horiz-adv-x="435" 
d="M80 440l-10 25s80 25 95 110c0 0 -20 -15 -45 -15c-40 0 -75 35 -75 75s35 75 75 75c45 0 80 -35 80 -90c0 -145 -120 -180 -120 -180zM270 440l-10 25s80 25 95 110c0 0 -20 -15 -45 -15c-40 0 -75 35 -75 75s35 75 75 75c45 0 80 -35 80 -90
c0 -145 -120 -180 -120 -180z" />
    <glyph glyph-name="quotedblleft" unicode="&#x201c;" horiz-adv-x="435" 
d="M355 710l10 -25s-80 -25 -95 -110c0 0 20 15 45 15c40 0 75 -35 75 -75s-35 -75 -75 -75c-45 0 -80 35 -80 90c0 145 120 180 120 180zM165 710l10 -25s-80 -25 -95 -110c0 0 20 15 45 15c40 0 75 -35 75 -75s-35 -75 -75 -75c-45 0 -80 35 -80 90c0 145 120 180 120 180
z" />
    <glyph glyph-name="endash" unicode="&#x2013;" 
d="M530 295h-500v40h500v-40z" />
    <glyph glyph-name="emdash" unicode="&#x2014;" horiz-adv-x="780" 
d="M750 295h-720v40h720v-40z" />
    <glyph glyph-name="guilsinglright" unicode="&#x203a;" horiz-adv-x="365" 
d="M60 490l290 -240l-290 -240l-30 35l235 205l-235 205z" />
    <glyph glyph-name="logicalnot" unicode="&#xac;" horiz-adv-x="470" 
d="M395 220v100h-365v45h410v-145h-45z" />
    <glyph glyph-name="dieresis" unicode="&#xa8;" horiz-adv-x="365" 
d="M20 630c0 40 30 70 70 70s70 -30 70 -70s-30 -70 -70 -70s-70 30 -70 70zM205 630c0 40 30 70 70 70s70 -30 70 -70s-30 -70 -70 -70s-70 30 -70 70z" />
    <glyph glyph-name="periodcentered" unicode="&#xb7;" horiz-adv-x="280" 
d="M215 350c0 -45 -35 -80 -75 -80s-75 35 -75 80s35 80 75 80s75 -35 75 -80z" />
    <glyph glyph-name="bullet" unicode="&#x2022;" horiz-adv-x="330" 
d="M265 330c0 -60 -40 -100 -100 -100s-100 40 -100 100s40 100 100 100s100 -40 100 -100z" />
    <glyph glyph-name="acute" unicode="&#xb4;" horiz-adv-x="220" 
d="M70 700h130l-135 -150h-35z" />
    <glyph glyph-name="exclamdown" unicode="&#xa1;" horiz-adv-x="310" 
d="M170 285l80 -385c0 -70 -45 -115 -95 -115s-95 45 -95 115l80 385h30zM230 430c0 -45 -35 -80 -75 -80s-75 35 -75 80s35 80 75 80s75 -35 75 -80z" />
    <glyph glyph-name="questiondown" unicode="&#xbf;" 
d="M350 -190c50 0 80 15 80 15v160s20 5 40 5c45 0 75 -30 75 -75c0 -60 -70 -130 -215 -130c-205 0 -295 90 -295 205c0 110 80 190 250 215l5 80h40l5 -95c-75 -30 -125 -80 -125 -200c0 -130 49 -180 140 -180zM240 430c0 45 35 80 75 80s75 -35 75 -80s-35 -80 -75 -80
s-75 35 -75 80z" />
    <glyph glyph-name="divide" unicode="&#xf7;" horiz-adv-x="500" 
d="M470 310h-440v45h440v-45zM325 150c0 -40 -35 -75 -75 -75s-75 35 -75 75s35 75 75 75s75 -35 75 -75zM325 515c0 -40 -35 -75 -75 -75s-75 35 -75 75s35 75 75 75s75 -35 75 -75z" />
    <glyph glyph-name="multiply" unicode="&#xd7;" horiz-adv-x="406" 
d="M376 198l-32 -31l-141 141l-141 -141l-32 31l141 142l-141 141l32 32l141 -141l141 141l32 -32l-141 -141z" />
    <glyph glyph-name="ellipsis" unicode="&#x2026;" horiz-adv-x="700" 
d="M195 65c0 -40 -35 -75 -75 -75s-75 35 -75 75s35 75 75 75s75 -35 75 -75zM425 65c0 -40 -35 -75 -75 -75s-75 35 -75 75s35 75 75 75s75 -35 75 -75zM655 65c0 -40 -35 -75 -75 -75s-75 35 -75 75s35 75 75 75s75 -35 75 -75z" />
    <glyph glyph-name="Euro" unicode="&#x20ac;" horiz-adv-x="695" 
d="M20 420h74c24 190 146 295 312 295c94 0 159 -65 159 -65c20 35 55 55 55 55h25v-190h-40s-45 175 -180 175c-73 0 -144 -66 -158 -270h198v-30h-200v-90h190v-30h-187c15 -197 88 -260 182 -260c95 0 185 90 185 190h25c0 -115 -100 -215 -230 -215
c-185 0 -308 100 -335 285h-85v30h81s-1 35 -1 50s1 40 1 40h-71v30z" />
    <glyph glyph-name="perthousand" unicode="&#x2030;" horiz-adv-x="1090" 
d="M605 700h55l-515 -700h-55zM590 165c0 125 -30 155 -55 155s-55 -30 -55 -155s30 -155 55 -155s55 30 55 155zM700 165c0 -105 -70 -175 -165 -175s-165 70 -165 175s70 175 165 175s165 -70 165 -175zM250 535c0 125 -30 155 -55 155s-55 -30 -55 -155s30 -155 55 -155
s55 30 55 155zM360 535c0 -105 -70 -175 -165 -175s-165 70 -165 175s70 175 165 175s165 -70 165 -175zM950 165c0 125 -30 155 -55 155s-55 -30 -55 -155s30 -155 55 -155s55 30 55 155zM1060 165c0 -105 -70 -175 -165 -175s-165 70 -165 175s70 175 165 175
s165 -70 165 -175z" />
    <glyph glyph-name="uni00AD" unicode="&#xad;" horiz-adv-x="460" 
d="M30 345h400v-45h-400v45z" />
    <glyph glyph-name="degree" unicode="&#xb0;" horiz-adv-x="370" 
d="M340 555c0 -85 -60 -155 -155 -155s-155 70 -155 155s60 155 155 155s155 -70 155 -155zM265 555c0 70 -35 105 -80 105s-80 -35 -80 -105s35 -105 80 -105s80 35 80 105z" />
    <glyph glyph-name="plusminus" unicode="&#xb1;" horiz-adv-x="505" 
d="M275 135h-45v185h-200v45h200v205h45v-205h200v-45h-200v-185zM40 95h425v-45h-425v45z" />
    <glyph glyph-name="brokenbar" unicode="&#xa6;" horiz-adv-x="225" 
d="M85 700h55v-360h-55v360zM140 -200h-55v360h55v-360z" />
    <glyph glyph-name="yen" unicode="&#xa5;" horiz-adv-x="665" 
d="M130 190v30h125v40l-10 20h-115v30h100l-180 360l-50 15v15h125c75 0 110 -35 135 -85l148 -293l152 333l-75 30v15h190v-15l-80 -30l-158 -345h108v-30h-121l-4 -10v-50h125v-30h-125v-160l60 -15v-15h-285v15l60 15v160h-125z" />
    <glyph glyph-name="cent" unicode="&#xa2;" horiz-adv-x="530" 
d="M300 580h30v-66c115 -5 165 -57 165 -109c0 -45 -30 -75 -75 -75c-20 0 -40 5 -40 5v150s-20 10 -50 10v-485c80 0 145 65 145 130h25c0 -76 -67 -146 -170 -154v-66h-30v65c-165 4 -260 103 -260 265c0 161 95 261 260 265v65zM210 250c0 -162 36 -222 90 -237v478
c-54 -14 -90 -75 -90 -241z" />
    <glyph glyph-name="currency" unicode="&#xa4;" horiz-adv-x="690" 
d="M50 185v30h75v55h-75v30h75v370l-60 15v15h280c230 0 310 -80 310 -215s-80 -215 -310 -215h-55v-55h220v-30h-220v-155l60 -15v-15h-285v15l60 15v155h-75zM290 300h55c80 0 140 60 140 185c0 130 -60 190 -140 190h-55v-375z" />
    <glyph glyph-name="tilde" unicode="&#x2dc;" horiz-adv-x="315" 
d="M205 580c-60 0 -80 50 -120 50c-25 0 -45 -20 -45 -45h-20c0 80 35 115 90 115c60 0 80 -50 120 -50c25 0 45 20 45 45h20c0 -80 -35 -115 -90 -115z" />
    <glyph glyph-name="less" unicode="&#x3c;" horiz-adv-x="505" 
d="M25 250l445 250v-55l-345 -195l345 -195v-55z" />
    <glyph glyph-name="guilsinglleft" unicode="&#x2039;" horiz-adv-x="365" 
d="M15 250l290 240l30 -35l-235 -205l235 -205l-30 -35z" />
    <glyph glyph-name="caron" unicode="&#x2c7;" horiz-adv-x="330" 
d="M310 860l-115 -150h-60l-115 150h35l110 -80l110 80h35z" />
    <glyph glyph-name="circumflex" unicode="&#x2c6;" horiz-adv-x="330" 
d="M20 550l145 165l145 -165h-35l-110 70l-110 -70h-35z" />
    <glyph glyph-name="mu" unicode="&#xb5;" horiz-adv-x="655" 
d="M160 -200h-130v15l60 15v640l-60 15v15h130c60 0 90 -30 90 -90v-250c0 -90 40 -130 75 -130c60 0 90 80 90 80v360l-60 15v15h280v-15l-60 -15v-475h-10c-115 0 -135 90 -135 90s-30 -90 -105 -90c-50 0 -75 35 -75 35v-140c0 -60 -30 -90 -90 -90z" />
    <glyph glyph-name="mu" unicode="&#x3bc;" horiz-adv-x="655" 
d="M160 -200h-130v15l60 15v640l-60 15v15h130c60 0 90 -30 90 -90v-250c0 -90 40 -130 75 -130c60 0 90 80 90 80v360l-60 15v15h280v-15l-60 -15v-475h-10c-115 0 -135 90 -135 90s-30 -90 -105 -90c-50 0 -75 35 -75 35v-140c0 -60 -30 -90 -90 -90z" />
    <glyph glyph-name="kgreenlandic" unicode="&#x138;" horiz-adv-x="600" 
d="M40 500h130c60 0 90 -30 90 -90v-150l185 195l-75 30v15h190v-15l-80 -30l-115 -120l195 -305l50 -15v-15h-130c-70 0 -104 35 -135 85l-85 135v-190l60 -15v-15h-280v15l60 15v440l-60 15v15z" />
    <glyph glyph-name="Lslash" unicode="&#x141;" horiz-adv-x="620" 
d="M60 700h285v-15l-60 -15v-219l80 49v-35l-80 -49v-391h215c0 105 65 155 65 155h30v-180h-535v15l60 15v286l-85 -51v35l85 51v319l-60 15v15z" />
    <glyph glyph-name="cedilla" unicode="&#xb8;" horiz-adv-x="201" 
d="M51 -75v75h35v-50c60 0 95 -35 95 -75s-35 -75 -105 -75c-30 0 -56 5 -56 5v30s16 -10 36 -10c30 0 50 20 50 50s-20 50 -55 50z" />
    <glyph glyph-name="ae" unicode="&#xe6;" horiz-adv-x="875" 
d="M625 -15c-130 0 -175 95 -175 95s-65 -95 -195 -95c-145 0 -205 60 -205 135c0 60 35 100 35 100s145 35 280 40v40c0 155 -40 195 -110 195c-30 0 -50 -10 -50 -10v-150s-20 -5 -40 -5c-45 0 -75 30 -75 75c0 55 55 110 185 110s175 -90 175 -90s45 90 160 90
c140 0 230 -90 230 -200c0 -30 -10 -50 -10 -50s-145 -30 -305 -30v-22c2 -156 51 -203 120 -203c80 0 145 65 145 130h25c0 -80 -75 -155 -190 -155zM525 260c90 0 140 10 140 10s10 35 10 65c0 120 -40 160 -75 160c-34 0 -73 -38 -75 -230v-5zM235 225
c0 0 -20 -45 -20 -105c0 -80 30 -110 60 -110c70 0 90 95 90 95v130c-60 0 -130 -10 -130 -10z" />
    <glyph glyph-name="oe" unicode="&#x153;" horiz-adv-x="915" 
d="M665 -15c-135 0 -185 90 -185 90s-40 -90 -185 -90c-155 0 -255 100 -255 265s100 265 255 265c145 0 185 -90 185 -90s40 90 170 90c140 0 230 -90 230 -200c0 -40 -10 -60 -10 -60s-145 -30 -305 -30c0 -165 50 -215 120 -215c80 0 145 65 145 130h25
c0 -80 -75 -155 -190 -155zM305 5c45 0 95 50 95 245s-50 245 -95 245s-95 -50 -95 -245s50 -245 95 -245zM565 250c90 0 140 10 140 10s10 35 10 75c0 120 -40 160 -75 160s-75 -40 -75 -245z" />
    <glyph glyph-name="AE" unicode="&#xc6;" horiz-adv-x="991" 
d="M465 30v235h-257l-122 -220l75 -30v-15h-191v15l80 30l366 655h514v-180h-30s-65 50 -65 155h-205v-315h105c10 55 45 100 45 100h30v-225h-30s-35 45 -45 100h-105v-310h225c0 105 65 155 65 155h30v-180h-545v15zM438 675l-215 -385h242v385h-27z" />
    <glyph glyph-name="OE" unicode="&#x152;" horiz-adv-x="985" 
d="M415 700h510v-180h-30s-65 50 -65 155h-205v-315h105c10 55 45 100 45 100h30v-225h-30s-35 45 -45 100h-105v-310h225c0 105 65 155 65 155h30v-180h-530c-240 0 -370 130 -370 350s130 350 370 350zM460 675h-45c-115 0 -195 -80 -195 -325s80 -325 195 -325h45v650z
" />
    <glyph glyph-name="Thorn" unicode="&#xde;" horiz-adv-x="700" 
d="M275 610h45c240 0 350 -110 350 -260s-110 -260 -350 -260h-45v-60l60 -15v-15h-285v15l60 15v640l-60 15v15h285v-15l-60 -15v-60zM275 585v-470h45c95 0 175 80 175 235s-80 235 -175 235h-45z" />
    <glyph glyph-name="thorn" unicode="&#xfe;" horiz-adv-x="625" 
d="M30 700h130c60 0 90 -30 90 -90v-160s45 65 130 65c115 0 205 -90 205 -265s-90 -265 -220 -265c-70 0 -115 40 -115 40v-195l60 -15v-15h-280v15l60 15v840l-60 15v15zM250 400v-345s35 -40 75 -40c50 0 90 40 90 235c0 190 -40 230 -75 230c-55 0 -90 -80 -90 -80z" />
    <glyph glyph-name="nbspace" unicode="&#xa0;" horiz-adv-x="-229" 
 />
    <glyph glyph-name="eth" unicode="&#xf0;" horiz-adv-x="605" 
d="M388 729l-38 -70c135 -59 215 -189 215 -389c0 -184 -100 -285 -266 -285c-164 0 -264 100 -264 245c0 146 100 245 235 245c95 0 135 -75 135 -75c-5 92 -37 155 -85 205l-41 -75l-21 13l44 80c-45 37 -101 57 -165 57v20c72 0 135 -11 190 -31l40 73zM205 230
c0 -175 50 -225 94 -225c46 0 96 50 96 225v10c0 160 -50 215 -106 215c-34 0 -84 -50 -84 -225z" />
    <glyph glyph-name="macron" unicode="&#xaf;" horiz-adv-x="300" 
d="M280 655h-260v45h260v-45z" />
    <glyph glyph-name="germandbls" unicode="&#xdf;" horiz-adv-x="690" 
d="M470 10c20 0 40 20 40 70c0 130 -190 140 -190 290c0 110 85 120 85 220c0 65 -35 100 -75 100c-45 0 -80 -35 -80 -190v-500h-220v15l60 15v470c0 125 90 215 240 215c125 0 205 -80 205 -145c0 -110 -60 -120 -60 -190c0 -100 190 -110 190 -250
c0 -85 -60 -145 -175 -145c-70 0 -100 45 -100 45c-20 -30 -55 -35 -55 -35h-25v170h40s45 -155 120 -155z" />
    <glyph glyph-name="sterling" unicode="&#xa3;" horiz-adv-x="600" 
d="M290 510l-6 -130h176v-30h-177l-8 -180c-5 -105 -95 -115 -95 -115h295c10 80 60 120 60 120h30v-175h-530v24c40 6 70 36 75 146l8 180h-73v30h74l6 130c6 125 85 205 230 205c130 0 175 -54 175 -109c0 -45 -30 -75 -75 -75c-20 0 -40 5 -40 5v150s-10 9 -40 9
c-45 0 -78 -35 -85 -185z" />
    <glyph glyph-name="dagger" unicode="&#x2020;" horiz-adv-x="540" 
d="M450 470l60 -65l-60 -65l-150 50l65 -450l-95 -150l-95 150l65 450l-150 -50l-60 65l60 65l150 -50l-45 200l75 90l75 -90l-45 -200z" />
    <glyph glyph-name="daggerdbl" unicode="&#x2021;" horiz-adv-x="540" 
d="M300 405l36 -130l-36 -140l130 50l60 -65l-60 -65l-130 50l55 -215l-85 -100l-85 100l55 215l-130 -50l-60 65l60 65l130 -50l-35 140l35 130l-150 -50l-60 65l60 65l150 -50l-40 190l70 85l70 -85l-40 -190l150 50l60 -65l-60 -65z" />
    <glyph glyph-name="foundryicon" horiz-adv-x="1305" 
d="M195 270h-165l165 165v-165zM395 350c0 -45 -40 -85 -85 -85s-85 40 -85 85s40 85 85 85s85 -40 85 -85zM395 430h180l-90 -165zM725 270v140l140 -140h-140zM710 270h-180l90 165zM885 430v-140l-140 140h140zM921 270v140l140 -140h-140zM1081 430v-140l-140 140h140z
M1095 430h180l-90 -165z" />
    <glyph glyph-name="eight" unicode="8" horiz-adv-x="615" 
d="M535 555c0 -65 -65 -130 -135 -150c115 -50 185 -120 185 -230c0 -100 -90 -190 -290 -190c-175 0 -255 80 -255 180c0 75 75 150 165 180c-80 45 -135 100 -135 190c0 100 80 180 255 180c130 0 210 -80 210 -160zM420 145c0 65 -70 135 -175 180
c-70 -25 -120 -75 -120 -160s70 -155 160 -155c85 0 135 50 135 135zM235 565c0 -55 45 -100 135 -140c45 20 85 60 85 130c0 75 -60 135 -120 135c-55 0 -100 -45 -100 -125z" />
    <glyph glyph-name="Scaron" unicode="&#x160;" horiz-adv-x="595" 
d="M275 10c75 0 125 50 125 125c0 155 -355 165 -355 405c0 95 80 175 245 175c95 0 160 -65 160 -65c20 35 55 55 55 55h25v-190h-40s-45 175 -180 175c-50 0 -95 -45 -95 -110c0 -170 355 -180 355 -400c0 -105 -90 -195 -275 -195c-115 0 -180 65 -180 65
c-20 -35 -55 -55 -55 -55h-25v190h40s45 -175 200 -175zM442 915l-115 -150h-60l-115 150h35l110 -80l110 80h35z" />
    <glyph glyph-name="Zcaron" unicode="&#x17d;" horiz-adv-x="635" 
d="M225 25h270c0 105 65 155 65 155h30v-180h-550v25l371 650h-261c0 -105 -65 -155 -65 -155h-30v180h540v-25zM457 915l-115 -150h-60l-115 150h35l110 -80l110 80h35z" />
    <glyph glyph-name="scaron" unicode="&#x161;" horiz-adv-x="540" 
d="M275 -15c-95 0 -150 55 -150 55c-20 -30 -55 -45 -55 -45h-25v170h40s45 -155 170 -155c55 0 85 30 85 80c0 110 -290 120 -290 290c0 75 60 135 210 135c80 0 136 -55 136 -55c20 30 55 45 55 45h25v-170h-40s-46 155 -156 155c-35 0 -65 -30 -65 -70
c0 -120 290 -130 290 -290c0 -85 -60 -145 -230 -145zM410 715l-115 -150h-60l-115 150h35l110 -80l110 80h35z" />
    <glyph glyph-name="zcaron" unicode="&#x17e;" horiz-adv-x="545" 
d="M325 475h-180c0 -95 -65 -150 -65 -150h-30v175h455v-25l-285 -450h190c0 95 65 150 65 150h30v-175h-465v25zM415 715l-115 -150h-60l-115 150h35l110 -80l110 80h35z" />
    <glyph glyph-name="Ydieresis" unicode="&#x178;" horiz-adv-x="665" 
d="M255 260l-205 410l-50 15v15h125c75 0 110 -35 135 -85l148 -295l152 335l-75 30v15h190v-15l-80 -30l-175 -385v-240l60 -15v-15h-285v15l60 15v230zM190 825c0 40 30 70 70 70s70 -30 70 -70s-30 -70 -70 -70s-70 30 -70 70zM375 825c0 40 30 70 70 70s70 -30 70 -70
s-30 -70 -70 -70s-70 30 -70 70z" />
    <glyph glyph-name="quoteleft" unicode="&#x2018;" horiz-adv-x="245" 
d="M165 710l10 -25s-80 -25 -95 -110c0 0 20 15 45 15c40 0 75 -35 75 -75s-35 -75 -75 -75c-45 0 -80 35 -80 90c0 145 120 180 120 180z" />
    <glyph glyph-name="quoteright" unicode="&#x2019;" horiz-adv-x="245" 
d="M80 440l-10 25s80 25 95 110c0 0 -20 -15 -45 -15c-40 0 -75 35 -75 75s35 75 75 75c45 0 80 -35 80 -90c0 -145 -120 -180 -120 -180z" />
    <glyph glyph-name="Agrave" unicode="&#xc0;" horiz-adv-x="680" 
d="M90 45l75 -30v-15h-185v15l80 30l275 665h30l285 -680l50 -15v-15h-120c-75 0 -115 40 -134 85l-51 120h-239zM275 493l-109 -263h219zM200 900h130l40 -150h-35z" />
    <glyph glyph-name="Aacute" unicode="&#xc1;" horiz-adv-x="680" 
d="M90 45l75 -30v-15h-185v15l80 30l275 665h30l285 -680l50 -15v-15h-120c-75 0 -115 40 -134 85l-51 120h-239zM275 493l-109 -263h219zM370 900h130l-135 -150h-35z" />
    <glyph glyph-name="Acircumflex" unicode="&#xc2;" horiz-adv-x="680" 
d="M90 45l75 -30v-15h-185v15l80 30l275 665h30l285 -680l50 -15v-15h-120c-75 0 -115 40 -134 85l-51 120h-239zM275 493l-109 -263h219zM210 740l145 165l145 -165h-35l-110 70l-110 -70h-35z" />
    <glyph glyph-name="Atilde" unicode="&#xc3;" horiz-adv-x="680" 
d="M90 45l75 -30v-15h-185v15l80 30l275 665h30l285 -680l50 -15v-15h-120c-75 0 -115 40 -134 85l-51 120h-239zM275 493l-109 -263h219zM402 765c-60 0 -80 50 -120 50c-25 0 -45 -20 -45 -45h-20c0 80 35 115 90 115c60 0 80 -50 120 -50c25 0 45 20 45 45h20
c0 -80 -35 -115 -90 -115z" />
    <glyph glyph-name="Adieresis" unicode="&#xc4;" horiz-adv-x="680" 
d="M90 45l75 -30v-15h-185v15l80 30l275 665h30l285 -680l50 -15v-15h-120c-75 0 -115 40 -134 85l-51 120h-239zM275 493l-109 -263h219zM192 830c0 40 30 70 70 70s70 -30 70 -70s-30 -70 -70 -70s-70 30 -70 70zM377 830c0 40 30 70 70 70s70 -30 70 -70s-30 -70 -70 -70
s-70 30 -70 70z" />
    <glyph glyph-name="Ccedilla" unicode="&#xc7;" horiz-adv-x="650" 
d="M361 715c94 0 159 -65 159 -65c20 35 55 55 55 55h25v-190h-40s-45 175 -180 175c-80 0 -160 -80 -160 -340s80 -340 185 -340c95 0 185 90 185 190h25c0 -115 -100 -215 -230 -215h-12v-35c60 0 95 -35 95 -75s-35 -75 -105 -75c-30 0 -56 5 -56 5v30s16 -10 36 -10
c30 0 50 20 50 50s-20 50 -55 50v63c-183 17 -293 145 -293 362c0 235 130 365 316 365z" />
    <glyph glyph-name="Egrave" unicode="&#xc8;" horiz-adv-x="645" 
d="M275 360h115c10 55 45 100 45 100h30v-225h-30s-35 45 -45 100h-115v-310h235c0 105 65 155 65 155h30v-180h-555v15l60 15v640l-60 15v15h535v-180h-30s-65 50 -65 155h-215v-315zM217 900h130l40 -150h-35z" />
    <glyph glyph-name="Eacute" unicode="&#xc9;" horiz-adv-x="645" 
d="M275 360h115c10 55 45 100 45 100h30v-225h-30s-35 45 -45 100h-115v-310h235c0 105 65 155 65 155h30v-180h-555v15l60 15v640l-60 15v15h535v-180h-30s-65 50 -65 155h-215v-315zM337 900h130l-135 -150h-35z" />
    <glyph glyph-name="Ecircumflex" unicode="&#xca;" horiz-adv-x="645" 
d="M275 360h115c10 55 45 100 45 100h30v-225h-30s-35 45 -45 100h-115v-310h235c0 105 65 155 65 155h30v-180h-555v15l60 15v640l-60 15v15h535v-180h-30s-65 50 -65 155h-215v-315zM197 760l145 165l145 -165h-35l-110 70l-110 -70h-35z" />
    <glyph glyph-name="Edieresis" unicode="&#xcb;" horiz-adv-x="645" 
d="M275 360h115c10 55 45 100 45 100h30v-225h-30s-35 45 -45 100h-115v-310h235c0 105 65 155 65 155h30v-180h-555v15l60 15v640l-60 15v15h535v-180h-30s-65 50 -65 155h-215v-315zM180 840c0 40 30 70 70 70s70 -30 70 -70s-30 -70 -70 -70s-70 30 -70 70zM365 840
c0 40 30 70 70 70s70 -30 70 -70s-30 -70 -70 -70s-70 30 -70 70z" />
    <glyph glyph-name="Igrave" unicode="&#xcc;" horiz-adv-x="385" 
d="M110 670l-60 15v15h285v-15l-60 -15v-640l60 -15v-15h-285v15l60 15v640zM47 900h130l40 -150h-35z" />
    <glyph glyph-name="Iacute" unicode="&#xcd;" horiz-adv-x="385" 
d="M110 670l-60 15v15h285v-15l-60 -15v-640l60 -15v-15h-285v15l60 15v640zM207 900h130l-135 -150h-35z" />
    <glyph glyph-name="Icircumflex" unicode="&#xce;" horiz-adv-x="385" 
d="M110 670l-60 15v15h285v-15l-60 -15v-640l60 -15v-15h-285v15l60 15v640zM47 765l145 165l145 -165h-35l-110 70l-110 -70h-35z" />
    <glyph glyph-name="Idieresis" unicode="&#xcf;" horiz-adv-x="385" 
d="M110 670l-60 15v15h285v-15l-60 -15v-640l60 -15v-15h-285v15l60 15v640zM30 845c0 40 30 70 70 70s70 -30 70 -70s-30 -70 -70 -70s-70 30 -70 70zM215 845c0 40 30 70 70 70s70 -30 70 -70s-30 -70 -70 -70s-70 30 -70 70z" />
    <glyph glyph-name="Ntilde" unicode="&#xd1;" horiz-adv-x="740" 
d="M605 255v400l-80 30v15h190v-15l-80 -30v-670h-30l-465 545v-485l80 -30v-15h-190v15l80 30v620l-70 20v15h105c80 0 115 -40 140 -70zM440 765c-60 0 -80 50 -120 50c-25 0 -45 -20 -45 -45h-20c0 80 35 115 90 115c60 0 80 -50 120 -50c25 0 45 20 45 45h20
c0 -80 -35 -115 -90 -115z" />
    <glyph glyph-name="Ograve" unicode="&#xd2;" horiz-adv-x="740" 
d="M520 350c0 265 -80 345 -150 345s-150 -80 -150 -345s80 -345 150 -345s150 80 150 345zM695 350c0 -235 -130 -365 -325 -365s-325 130 -325 365s130 365 325 365s325 -130 325 -365zM225 900h130l40 -150h-35z" />
    <glyph glyph-name="Oacute" unicode="&#xd3;" horiz-adv-x="740" 
d="M520 350c0 265 -80 345 -150 345s-150 -80 -150 -345s80 -345 150 -345s150 80 150 345zM695 350c0 -235 -130 -365 -325 -365s-325 130 -325 365s130 365 325 365s325 -130 325 -365zM385 900h130l-135 -150h-35z" />
    <glyph glyph-name="Ocircumflex" unicode="&#xd4;" horiz-adv-x="740" 
d="M520 350c0 265 -80 345 -150 345s-150 -80 -150 -345s80 -345 150 -345s150 80 150 345zM695 350c0 -235 -130 -365 -325 -365s-325 130 -325 365s130 365 325 365s325 -130 325 -365zM225 765l145 165l145 -165h-35l-110 70l-110 -70h-35z" />
    <glyph glyph-name="Otilde" unicode="&#xd5;" horiz-adv-x="740" 
d="M520 350c0 265 -80 345 -150 345s-150 -80 -150 -345s80 -345 150 -345s150 80 150 345zM695 350c0 -235 -130 -365 -325 -365s-325 130 -325 365s130 365 325 365s325 -130 325 -365zM422 775c-60 0 -80 50 -120 50c-25 0 -45 -20 -45 -45h-20c0 80 35 115 90 115
c60 0 80 -50 120 -50c25 0 45 20 45 45h20c0 -80 -35 -115 -90 -115z" />
    <glyph glyph-name="Odieresis" unicode="&#xd6;" horiz-adv-x="740" 
d="M520 350c0 265 -80 345 -150 345s-150 -80 -150 -345s80 -345 150 -345s150 80 150 345zM695 350c0 -235 -130 -365 -325 -365s-325 130 -325 365s130 365 325 365s325 -130 325 -365zM207 845c0 40 30 70 70 70s70 -30 70 -70s-30 -70 -70 -70s-70 30 -70 70zM392 845
c0 40 30 70 70 70s70 -30 70 -70s-30 -70 -70 -70s-70 30 -70 70z" />
    <glyph glyph-name="Ugrave" unicode="&#xd9;" horiz-adv-x="710" 
d="M595 250v405l-80 30v15h190v-15l-80 -30v-405c0 -165 -100 -265 -230 -265c-200 0 -300 100 -300 265v420l-60 15v15h285v-15l-60 -15v-420c0 -180 60 -240 155 -240c90 0 180 90 180 240zM270 900h130l40 -150h-35z" />
    <glyph glyph-name="Uacute" unicode="&#xda;" horiz-adv-x="710" 
d="M595 250v405l-80 30v15h190v-15l-80 -30v-405c0 -165 -100 -265 -230 -265c-200 0 -300 100 -300 265v420l-60 15v15h285v-15l-60 -15v-420c0 -180 60 -240 155 -240c90 0 180 90 180 240zM410 900h130l-135 -150h-35z" />
    <glyph glyph-name="Ucircumflex" unicode="&#xdb;" horiz-adv-x="710" 
d="M595 250v405l-80 30v15h190v-15l-80 -30v-405c0 -165 -100 -265 -230 -265c-200 0 -300 100 -300 265v420l-60 15v15h285v-15l-60 -15v-420c0 -180 60 -240 155 -240c90 0 180 90 180 240zM260 760l145 165l145 -165h-35l-110 70l-110 -70h-35z" />
    <glyph glyph-name="Udieresis" unicode="&#xdc;" horiz-adv-x="710" 
d="M595 250v405l-80 30v15h190v-15l-80 -30v-405c0 -165 -100 -265 -230 -265c-200 0 -300 100 -300 265v420l-60 15v15h285v-15l-60 -15v-420c0 -180 60 -240 155 -240c90 0 180 90 180 240zM232 840c0 40 30 70 70 70s70 -30 70 -70s-30 -70 -70 -70s-70 30 -70 70z
M417 840c0 40 30 70 70 70s70 -30 70 -70s-30 -70 -70 -70s-70 30 -70 70z" />
    <glyph glyph-name="Yacute" unicode="&#xdd;" horiz-adv-x="665" 
d="M255 260l-205 410l-50 15v15h125c75 0 110 -35 135 -85l148 -295l152 335l-75 30v15h190v-15l-80 -30l-175 -385v-240l60 -15v-15h-285v15l60 15v230zM357 900h130l-135 -150h-35z" />
    <glyph glyph-name="ring" unicode="&#x2da;" horiz-adv-x="270" 
d="M240 600c0 -55 -45 -100 -105 -100s-105 45 -105 100s45 100 105 100s105 -45 105 -100zM190 600c0 40 -25 65 -55 65s-55 -25 -55 -65s25 -65 55 -65s55 25 55 65z" />
    <glyph glyph-name="ogonek" unicode="&#x2db;" horiz-adv-x="220" 
d="M155 0h45s-95 -40 -95 -125c0 -25 15 -40 40 -40s45 20 45 20v-30s-25 -15 -65 -15c-70 0 -105 35 -105 75c0 85 135 115 135 115z" />
    <glyph glyph-name="Amacron" unicode="&#x100;" horiz-adv-x="680" 
d="M90 45l75 -30v-15h-185v15l80 30l275 665h30l285 -680l50 -15v-15h-120c-75 0 -115 40 -134 85l-51 120h-239zM275 493l-109 -263h219zM490 784h-260v45h260v-45z" />
    <glyph glyph-name="Aogonek" unicode="&#x104;" horiz-adv-x="680" 
d="M90 45l75 -30v-15h-185v15l80 30l275 665h30l285 -680l50 -15v-15s-95 -40 -95 -125c0 -25 15 -40 40 -40s45 20 45 20v-30s-25 -15 -65 -15c-70 0 -105 35 -105 75c0 81 122 112 134 115h-74c-75 0 -115 40 -134 85l-51 120h-239zM275 493l-109 -263h219z" />
    <glyph glyph-name="Aring" unicode="&#xc5;" horiz-adv-x="680" 
d="M90 45l75 -30v-15h-185v15l80 30l262 633c-46 12 -77 51 -77 97c0 55 45 100 105 100s105 -45 105 -100c0 -46 -32 -85 -77 -97l272 -648l50 -15v-15h-120c-75 0 -115 40 -134 85l-51 120h-239zM275 493l-109 -263h219zM405 775c0 40 -25 65 -55 65s-55 -25 -55 -65
s25 -65 55 -65s55 25 55 65z" />
    <glyph glyph-name="Cacute" unicode="&#x106;" horiz-adv-x="650" 
d="M361 715c94 0 159 -65 159 -65c20 35 55 55 55 55h25v-190h-40s-45 175 -180 175c-80 0 -160 -80 -160 -340s80 -340 185 -340c95 0 185 90 185 190h25c0 -115 -100 -215 -230 -215c-210 0 -340 130 -340 365s130 365 316 365zM362 900h130l-135 -150h-35z" />
    <glyph glyph-name="Ccaron" unicode="&#x10c;" horiz-adv-x="650" 
d="M361 715c94 0 159 -65 159 -65c20 35 55 55 55 55h25v-190h-40s-45 175 -180 175c-80 0 -160 -80 -160 -340s80 -340 185 -340c95 0 185 90 185 190h25c0 -115 -100 -215 -230 -215c-210 0 -340 130 -340 365s130 365 316 365zM497 915l-115 -150h-60l-115 150h35
l110 -80l110 80h35z" />
    <glyph glyph-name="Ccircumflex" unicode="&#x108;" horiz-adv-x="650" 
d="M361 715c94 0 159 -65 159 -65c20 35 55 55 55 55h25v-190h-40s-45 175 -180 175c-80 0 -160 -80 -160 -340s80 -340 185 -340c95 0 185 90 185 190h25c0 -115 -100 -215 -230 -215c-210 0 -340 130 -340 365s130 365 316 365zM202 765l145 165l145 -165h-35l-110 70
l-110 -70h-35z" />
    <glyph glyph-name="Dcaron" unicode="&#x10e;" horiz-adv-x="715" 
d="M50 700h255c240 0 370 -130 370 -350s-130 -350 -370 -350h-255v15l60 15v640l-60 15v15zM305 675h-30v-650h30c115 0 195 80 195 325s-80 325 -195 325zM482 910l-115 -150h-60l-115 150h35l110 -80l110 80h35z" />
    <glyph glyph-name="Dcroat" unicode="&#x110;" horiz-adv-x="720" 
d="M50 370h65v300l-60 15v15h255c240 0 370 -130 370 -350s-130 -350 -370 -350h-255v15l60 15v310h-65v30zM310 675h-30v-305h120v-30h-120v-315h30c115 0 195 80 195 325s-80 325 -195 325z" />
    <glyph glyph-name="Ecaron" unicode="&#x11a;" horiz-adv-x="645" 
d="M275 360h115c10 55 45 100 45 100h30v-225h-30s-35 45 -45 100h-115v-310h235c0 105 65 155 65 155h30v-180h-555v15l60 15v640l-60 15v15h535v-180h-30s-65 50 -65 155h-215v-315zM497 910l-115 -150h-60l-115 150h35l110 -80l110 80h35z" />
    <glyph glyph-name="Emacron" unicode="&#x112;" horiz-adv-x="645" 
d="M275 360h115c10 55 45 100 45 100h30v-225h-30s-35 45 -45 100h-115v-310h235c0 105 65 155 65 155h30v-180h-555v15l60 15v640l-60 15v15h535v-180h-30s-65 50 -65 155h-215v-315zM482 794h-260v45h260v-45z" />
    <glyph glyph-name="Eogonek" unicode="&#x118;" horiz-adv-x="645" 
d="M110 670l-60 15v15h535v-180h-30s-65 50 -65 155h-215v-315h115c10 55 45 100 45 100h30v-225h-30s-35 45 -45 100h-115v-310h235c0 105 65 155 65 155h30v-180h-160s-95 -40 -95 -125c0 -25 15 -40 40 -40s45 20 45 20v-30s-25 -15 -65 -15c-70 0 -105 35 -105 75
c0 81 122 112 134 115h-349v15l60 15v640z" />
    <glyph glyph-name="Gcircumflex" unicode="&#x11c;" horiz-adv-x="700" 
d="M365 20c60 0 90 80 90 80v230l-60 15v15h285v-15l-60 -15v-335h-15c-115 0 -135 80 -135 80s-40 -90 -145 -90c-150 0 -280 130 -280 365s130 365 316 365c94 0 159 -65 159 -65c20 35 55 55 55 55h25v-190h-40s-45 175 -180 175c-80 0 -160 -80 -160 -340
s70 -330 145 -330zM210 770l145 165l145 -165h-35l-110 70l-110 -70h-35z" />
    <glyph glyph-name="Imacron" unicode="&#x12a;" horiz-adv-x="385" 
d="M110 670l-60 15v15h285v-15l-60 -15v-640l60 -15v-15h-285v15l60 15v640zM320 780h-260v45h260v-45z" />
    <glyph glyph-name="Iogonek" unicode="&#x12e;" horiz-adv-x="385" 
d="M110 670l-60 15v15h285v-15l-60 -15v-640l60 -15v-15h-60s-95 -40 -95 -125c0 -25 15 -40 40 -40s45 20 45 20v-30s-25 -15 -65 -15c-70 0 -105 35 -105 75c0 81 122 112 134 115h-179v15l60 15v640z" />
    <glyph glyph-name="Itilde" unicode="&#x128;" horiz-adv-x="375" 
d="M105 670l-60 15v15h285v-15l-60 -15v-640l60 -15v-15h-285v15l60 15v640zM235 775c-60 0 -80 50 -120 50c-25 0 -45 -20 -45 -45h-20c0 80 35 115 90 115c60 0 80 -50 120 -50c25 0 45 20 45 45h20c0 -80 -35 -115 -90 -115z" />
    <glyph glyph-name="Jcircumflex" unicode="&#x134;" horiz-adv-x="550" 
d="M165 5c70 0 120 50 120 195v470l-60 15v15h285v-15l-60 -15v-470c0 -135 -80 -215 -265 -215c-130 0 -185 55 -185 110c0 45 30 75 75 75c20 0 40 -5 40 -5v-150s20 -10 50 -10zM217 760l145 165l145 -165h-35l-110 70l-110 -70h-35z" />
    <glyph glyph-name="Lacute" unicode="&#x139;" horiz-adv-x="610" 
d="M50 700h285v-15l-60 -15v-645h215c0 105 65 155 65 155h30v-180h-535v15l60 15v640l-60 15v15zM200 900h130l-135 -150h-35z" />
    <glyph glyph-name="Lcaron" unicode="&#x13d;" horiz-adv-x="610" 
d="M50 700h285v-15l-60 -15v-645h215c0 105 65 155 65 155h30v-180h-535v15l60 15v640l-60 15v15zM402 449l-10 20s70 25 85 105c0 0 -15 -15 -40 -15c-40 0 -70 30 -70 70s30 70 70 70c45 0 75 -30 75 -85c0 -130 -110 -165 -110 -165z" />
    <glyph glyph-name="Nacute" unicode="&#x143;" horiz-adv-x="740" 
d="M605 255v400l-80 30v15h190v-15l-80 -30v-670h-30l-465 545v-485l80 -30v-15h-190v15l80 30v620l-70 20v15h105c80 0 115 -40 140 -70zM377 890h130l-135 -150h-35z" />
    <glyph glyph-name="Ncaron" unicode="&#x147;" horiz-adv-x="740" 
d="M605 255v400l-80 30v15h190v-15l-80 -30v-670h-30l-465 545v-485l80 -30v-15h-190v15l80 30v620l-70 20v15h105c80 0 115 -40 140 -70zM527 890l-115 -150h-60l-115 150h35l110 -80l110 80h35z" />
    <glyph glyph-name="Omacron" unicode="&#x14c;" horiz-adv-x="740" 
d="M520 350c0 265 -80 345 -150 345s-150 -80 -150 -345s80 -345 150 -345s150 80 150 345zM695 350c0 -235 -130 -365 -325 -365s-325 130 -325 365s130 365 325 365s325 -130 325 -365zM500 795h-260v45h260v-45z" />
    <glyph glyph-name="Racute" unicode="&#x154;" horiz-adv-x="700" 
d="M440 85l-100 225h-65v-280l70 -15v-15h-295v15l60 15v640l-60 15v15h265c240 0 320 -80 320 -195c0 -185 -240 -185 -240 -185s125 0 165 -90l90 -200l50 -15v-15h-140c-60 0 -98 35 -120 85zM275 335h40c90 0 150 60 150 170s-60 170 -150 170h-40v-340zM347 900h130
l-135 -150h-35z" />
    <glyph glyph-name="Rcaron" unicode="&#x158;" horiz-adv-x="700" 
d="M440 85l-100 225h-65v-280l70 -15v-15h-295v15l60 15v640l-60 15v15h265c240 0 320 -80 320 -195c0 -185 -240 -185 -240 -185s125 0 165 -90l90 -200l50 -15v-15h-140c-60 0 -98 35 -120 85zM275 335h40c90 0 150 60 150 170s-60 170 -150 170h-40v-340zM497 910
l-115 -150h-60l-115 150h35l110 -80l110 80h35z" />
    <glyph glyph-name="Sacute" unicode="&#x15a;" horiz-adv-x="595" 
d="M275 10c75 0 125 50 125 125c0 155 -355 165 -355 405c0 95 80 175 245 175c95 0 160 -65 160 -65c20 35 55 55 55 55h25v-190h-40s-45 175 -180 175c-50 0 -95 -45 -95 -110c0 -170 355 -180 355 -400c0 -105 -90 -195 -275 -195c-115 0 -180 65 -180 65
c-20 -35 -55 -55 -55 -55h-25v190h40s45 -175 200 -175zM302 900h130l-135 -150h-35z" />
    <glyph glyph-name="Scedilla" unicode="&#x15e;" horiz-adv-x="595" 
d="M275 10c75 0 125 50 125 125c0 155 -350 165 -350 405c0 95 80 175 245 175c95 0 160 -65 160 -65c20 35 55 55 55 55h25v-190h-40s-45 175 -180 175c-50 0 -95 -45 -95 -110c0 -170 350 -180 350 -400c0 -102 -85 -189 -257 -195v-35c60 0 95 -35 95 -75
s-35 -75 -105 -75c-30 0 -56 5 -56 5v30s16 -10 36 -10c30 0 50 20 50 50s-20 50 -55 50v61c-105 6 -163 64 -163 64c-20 -35 -55 -55 -55 -55h-25v190h40s45 -175 200 -175z" />
    <glyph glyph-name="Scircumflex" unicode="&#x15c;" horiz-adv-x="595" 
d="M275 10c75 0 125 50 125 125c0 155 -355 165 -355 405c0 95 80 175 245 175c95 0 160 -65 160 -65c20 35 55 55 55 55h25v-190h-40s-45 175 -180 175c-50 0 -95 -45 -95 -110c0 -170 355 -180 355 -400c0 -105 -90 -195 -275 -195c-115 0 -180 65 -180 65
c-20 -35 -55 -55 -55 -55h-25v190h40s45 -175 200 -175zM157 775l145 165l145 -165h-35l-110 70l-110 -70h-35z" />
    <glyph glyph-name="Tcaron" unicode="&#x164;" horiz-adv-x="635" 
d="M460 0h-285v15l60 15v645h-115c0 -105 -65 -155 -65 -155h-30v180h585v-180h-30s-65 50 -65 155h-115v-645l60 -15v-15zM462 910l-115 -150h-60l-115 150h35l110 -80l110 80h35z" />
    <glyph glyph-name="Umacron" unicode="&#x16a;" horiz-adv-x="710" 
d="M595 250v405l-80 30v15h190v-15l-80 -30v-405c0 -165 -100 -265 -230 -265c-200 0 -300 100 -300 265v420l-60 15v15h285v-15l-60 -15v-420c0 -180 60 -240 155 -240c90 0 180 90 180 240zM535 784h-260v45h260v-45z" />
    <glyph glyph-name="Uogonek" unicode="&#x172;" horiz-adv-x="710" 
d="M595 250v405l-80 30v15h190v-15l-80 -30v-405c0 -134 -66 -225 -160 -254c-23 -12 -85 -51 -85 -121c0 -25 15 -40 40 -40s45 20 45 20v-30s-25 -15 -65 -15c-70 0 -105 35 -105 75c0 52 50 84 89 100c-193 4 -289 103 -289 265v420l-60 15v15h285v-15l-60 -15v-420
c0 -180 60 -240 155 -240c90 0 180 90 180 240z" />
    <glyph glyph-name="Uring" unicode="&#x16e;" horiz-adv-x="710" 
d="M595 250v405l-80 30v15h190v-15l-80 -30v-405c0 -165 -100 -265 -230 -265c-200 0 -300 100 -300 265v420l-60 15v15h285v-15l-60 -15v-420c0 -180 60 -240 155 -240c90 0 180 90 180 240zM520 830c0 -55 -45 -100 -105 -100s-105 45 -105 100s45 100 105 100
s105 -45 105 -100zM470 830c0 40 -25 65 -55 65s-55 -25 -55 -65s25 -65 55 -65s55 25 55 65z" />
    <glyph glyph-name="Utilde" unicode="&#x168;" horiz-adv-x="710" 
d="M595 250v405l-80 30v15h190v-15l-80 -30v-405c0 -165 -100 -265 -230 -265c-200 0 -300 100 -300 265v420l-60 15v15h285v-15l-60 -15v-420c0 -180 60 -240 155 -240c90 0 180 90 180 240zM452 765c-60 0 -80 50 -120 50c-25 0 -45 -20 -45 -45h-20c0 80 35 115 90 115
c60 0 80 -50 120 -50c25 0 45 20 45 45h20c0 -80 -35 -115 -90 -115z" />
    <glyph glyph-name="Wacute" unicode="&#x1e82;" horiz-adv-x="985" 
d="M305 -10l-270 685l-55 10v15h120c75 0 118 -40 135 -85l151 -385l88 258l-74 187l-55 10v15h120c75 0 117 -40 135 -85l151 -385l144 425l-75 30v15h185v-15l-80 -30l-225 -665h-30l-180 457l-155 -457h-30zM502 900h130l-135 -150h-35z" />
    <glyph glyph-name="Wcircumflex" unicode="&#x174;" horiz-adv-x="985" 
d="M305 -10l-270 685l-55 10v15h120c75 0 118 -40 135 -85l151 -385l88 258l-74 187l-55 10v15h120c75 0 117 -40 135 -85l151 -385l144 425l-75 30v15h185v-15l-80 -30l-225 -665h-30l-180 457l-155 -457h-30zM352 770l145 165l145 -165h-35l-110 70l-110 -70h-35z" />
    <glyph glyph-name="Wdieresis" unicode="&#x1e84;" horiz-adv-x="985" 
d="M305 -10l-270 685l-55 10v15h120c75 0 118 -40 135 -85l151 -385l88 258l-74 187l-55 10v15h120c75 0 117 -40 135 -85l151 -385l144 425l-75 30v15h185v-15l-80 -30l-225 -665h-30l-180 457l-155 -457h-30zM335 840c0 40 30 70 70 70s70 -30 70 -70s-30 -70 -70 -70
s-70 30 -70 70zM520 840c0 40 30 70 70 70s70 -30 70 -70s-30 -70 -70 -70s-70 30 -70 70z" />
    <glyph glyph-name="Wgrave" unicode="&#x1e80;" horiz-adv-x="985" 
d="M305 -10l-270 685l-55 10v15h120c75 0 118 -40 135 -85l151 -385l88 258l-74 187l-55 10v15h120c75 0 117 -40 135 -85l151 -385l144 425l-75 30v15h185v-15l-80 -30l-225 -665h-30l-180 457l-155 -457h-30zM332 900h130l40 -150h-35z" />
    <glyph glyph-name="Ycircumflex" unicode="&#x176;" horiz-adv-x="665" 
d="M255 260l-205 410l-50 15v15h125c75 0 110 -35 135 -85l148 -295l152 335l-75 30v15h190v-15l-80 -30l-175 -385v-240l60 -15v-15h-285v15l60 15v230zM207 750l145 165l145 -165h-35l-110 70l-110 -70h-35z" />
    <glyph glyph-name="Ygrave" unicode="&#x1ef2;" horiz-adv-x="665" 
d="M255 260l-205 410l-50 15v15h125c75 0 110 -35 135 -85l148 -295l152 335l-75 30v15h190v-15l-80 -30l-175 -385v-240l60 -15v-15h-285v15l60 15v230zM217 900h130l40 -150h-35z" />
    <glyph glyph-name="Zacute" unicode="&#x179;" horiz-adv-x="635" 
d="M225 25h270c0 105 65 155 65 155h30v-180h-550v25l371 650h-261c0 -105 -65 -155 -65 -155h-30v180h540v-25zM317 900h130l-135 -150h-35z" />
    <glyph glyph-name="Hcircumflex" unicode="&#x124;" horiz-adv-x="765" 
d="M110 670l-60 15v15h285v-15l-60 -15v-310h215v310l-60 15v15h285v-15l-60 -15v-640l60 -15v-15h-285v15l60 15v305h-215v-305l60 -15v-15h-285v15l60 15v640zM237 765l145 165l145 -165h-35l-110 70l-110 -70h-35z" />
    <glyph glyph-name="dotaccent" unicode="&#x2d9;" horiz-adv-x="180" 
d="M20 630c0 40 30 70 70 70s70 -30 70 -70s-30 -70 -70 -70s-70 30 -70 70z" />
    <glyph glyph-name="hungarumlaut" unicode="&#x2dd;" horiz-adv-x="315" 
d="M65 700h100l-110 -150h-35zM195 700h100l-110 -150h-35z" />
    <glyph glyph-name="Uhungarumlaut" unicode="&#x170;" horiz-adv-x="710" 
d="M595 250v405l-80 30v15h190v-15l-80 -30v-405c0 -165 -100 -265 -230 -265c-200 0 -300 100 -300 265v420l-60 15v15h285v-15l-60 -15v-420c0 -180 60 -240 155 -240c90 0 180 90 180 240zM355 905h100l-110 -150h-35zM485 905h100l-110 -150h-35z" />
    <glyph glyph-name="Ohungarumlaut" unicode="&#x150;" horiz-adv-x="740" 
d="M520 350c0 265 -80 345 -150 345s-150 -80 -150 -345s80 -345 150 -345s150 80 150 345zM695 350c0 -235 -130 -365 -325 -365s-325 130 -325 365s130 365 325 365s325 -130 325 -365zM327 905h100l-110 -150h-35zM457 905h100l-110 -150h-35z" />
    <glyph glyph-name="Oslash" unicode="&#xd8;" horiz-adv-x="740" 
d="M695 350c0 -235 -130 -365 -325 -365c-82 0 -153 24 -207 71l-43 -56h-35l57 75c-58 62 -97 155 -97 275c0 235 130 365 325 365c82 0 153 -25 207 -71l43 56h35l-58 -76c59 -62 98 -154 98 -274zM520 350c0 62 -5 114 -12 157l-269 -351c28 -113 82 -151 131 -151
c70 0 150 80 150 345zM220 350c0 -63 4 -115 12 -158l268 351c-28 113 -82 152 -130 152c-70 0 -150 -80 -150 -345z" />
    <glyph glyph-name="Cdotaccent" unicode="&#x10a;" horiz-adv-x="650" 
d="M361 715c94 0 159 -65 159 -65c20 35 55 55 55 55h25v-190h-40s-45 175 -180 175c-80 0 -160 -80 -160 -340s80 -340 185 -340c95 0 185 90 185 190h25c0 -115 -100 -215 -230 -215c-210 0 -340 130 -340 365s130 365 316 365zM287 845c0 40 30 70 70 70s70 -30 70 -70
s-30 -70 -70 -70s-70 30 -70 70z" />
    <glyph glyph-name="Idotaccent" unicode="&#x130;" horiz-adv-x="385" 
d="M110 670l-60 15v15h285v-15l-60 -15v-640l60 -15v-15h-285v15l60 15v640zM122 840c0 40 30 70 70 70s70 -30 70 -70s-30 -70 -70 -70s-70 30 -70 70z" />
    <glyph glyph-name="Edotaccent" unicode="&#x116;" horiz-adv-x="645" 
d="M275 360h115c10 55 45 100 45 100h30v-225h-30s-35 45 -45 100h-115v-310h235c0 105 65 155 65 155h30v-180h-555v15l60 15v640l-60 15v15h535v-180h-30s-65 50 -65 155h-215v-315zM282 840c0 40 30 70 70 70s70 -30 70 -70s-30 -70 -70 -70s-70 30 -70 70z" />
    <glyph glyph-name="Gdotaccent" unicode="&#x120;" horiz-adv-x="700" 
d="M365 20c60 0 90 80 90 80v230l-60 15v15h285v-15l-60 -15v-335h-15c-115 0 -135 80 -135 80s-40 -90 -145 -90c-150 0 -280 130 -280 365s130 365 316 365c94 0 159 -65 159 -65c20 35 55 55 55 55h25v-190h-40s-45 175 -180 175c-80 0 -160 -80 -160 -340
s70 -330 145 -330zM285 845c0 40 30 70 70 70s70 -30 70 -70s-30 -70 -70 -70s-70 30 -70 70z" />
    <glyph glyph-name="Zdotaccent" unicode="&#x17b;" horiz-adv-x="635" 
d="M225 25h270c0 105 65 155 65 155h30v-180h-550v25l371 650h-261c0 -105 -65 -155 -65 -155h-30v180h540v-25zM252 840c0 40 30 70 70 70s70 -30 70 -70s-30 -70 -70 -70s-70 30 -70 70z" />
    <glyph glyph-name="commaaccent" horiz-adv-x="185" 
d="M55 -250l-10 20s70 25 85 105c0 0 -15 -15 -40 -15c-40 0 -70 30 -70 70s30 70 70 70c45 0 75 -30 75 -85c0 -130 -110 -165 -110 -165z" />
    <glyph glyph-name="breve" unicode="&#x2d8;" horiz-adv-x="330" 
d="M165 570c35 0 55 11 55 10v110s20 5 35 5c35 0 60 -25 60 -60c0 -45 -40 -85 -150 -85s-150 40 -150 85c0 35 25 60 60 60c15 0 35 -5 35 -5v-110c0 1 20 -10 55 -10z" />
    <glyph glyph-name="Abreve" unicode="&#x102;" horiz-adv-x="680" 
d="M90 45l75 -30v-15h-185v15l80 30l275 665h30l285 -680l50 -15v-15h-120c-75 0 -115 40 -134 85l-51 120h-239zM275 493l-109 -263h219zM350 775c35 0 55 11 55 10v110s20 5 35 5c35 0 60 -25 60 -60c0 -45 -40 -85 -150 -85s-150 40 -150 85c0 35 25 60 60 60
c15 0 35 -5 35 -5v-110c0 1 20 -10 55 -10z" />
    <glyph glyph-name="Ebreve" unicode="&#x114;" horiz-adv-x="645" 
d="M275 360h115c10 55 45 100 45 100h30v-225h-30s-35 45 -45 100h-115v-310h235c0 105 65 155 65 155h30v-180h-555v15l60 15v640l-60 15v15h535v-180h-30s-65 50 -65 155h-215v-315zM342 790c35 0 55 11 55 10v110s20 5 35 5c35 0 60 -25 60 -60c0 -45 -40 -85 -150 -85
s-150 40 -150 85c0 35 25 60 60 60c15 0 35 -5 35 -5v-110c0 1 20 -10 55 -10z" />
    <glyph glyph-name="Gbreve" unicode="&#x11e;" horiz-adv-x="700" 
d="M365 20c60 0 90 80 90 80v230l-60 15v15h285v-15l-60 -15v-335h-15c-115 0 -135 80 -135 80s-40 -90 -145 -90c-150 0 -280 130 -280 365s130 365 316 365c94 0 159 -65 159 -65c20 35 55 55 55 55h25v-190h-40s-45 175 -180 175c-80 0 -160 -80 -160 -340
s70 -330 145 -330zM350 790c35 0 55 11 55 10v110s20 5 35 5c35 0 60 -25 60 -60c0 -45 -40 -85 -150 -85s-150 40 -150 85c0 35 25 60 60 60c15 0 35 -5 35 -5v-110c0 1 20 -10 55 -10z" />
    <glyph glyph-name="Gcommaaccent" unicode="&#x122;" horiz-adv-x="700" 
d="M365 20c60 0 90 80 90 80v230l-60 15v15h285v-15l-60 -15v-335h-15c-115 0 -135 80 -135 80s-40 -90 -145 -90c-150 0 -280 130 -280 365s130 365 316 365c94 0 159 -65 159 -65c20 35 55 55 55 55h25v-190h-40s-45 175 -180 175c-80 0 -160 -80 -160 -340
s70 -330 145 -330zM317 -310l-10 20s70 25 85 105c0 0 -15 -15 -40 -15c-40 0 -70 30 -70 70s30 70 70 70c45 0 75 -30 75 -85c0 -130 -110 -165 -110 -165z" />
    <glyph glyph-name="Ibreve" unicode="&#x12c;" horiz-adv-x="385" 
d="M110 670l-60 15v15h285v-15l-60 -15v-640l60 -15v-15h-285v15l60 15v640zM195 785c35 0 55 11 55 10v110s20 5 35 5c35 0 60 -25 60 -60c0 -45 -40 -85 -150 -85s-150 40 -150 85c0 35 25 60 60 60c15 0 35 -5 35 -5v-110c0 1 20 -10 55 -10z" />
    <glyph glyph-name="Kcommaaccent" unicode="&#x136;" horiz-adv-x="690" 
d="M650 30l50 -15v-15h-140c-65 0 -105 40 -135 85l-150 230v-285l60 -15v-15h-285v15l60 15v640l-60 15v15h285v-15l-60 -15v-314l245 299l-75 30v15h190v-15l-80 -30l-175 -215zM340 -285l-10 20s70 25 85 105c0 0 -15 -15 -40 -15c-40 0 -70 30 -70 70s30 70 70 70
c45 0 75 -30 75 -85c0 -130 -110 -165 -110 -165z" />
    <glyph glyph-name="Lcommaaccent" unicode="&#x13b;" horiz-adv-x="610" 
d="M50 700h285v-15l-60 -15v-645h215c0 105 65 155 65 155h30v-180h-535v15l60 15v640l-60 15v15zM317 -305l-10 20s70 25 85 105c0 0 -15 -15 -40 -15c-40 0 -70 30 -70 70s30 70 70 70c45 0 75 -30 75 -85c0 -130 -110 -165 -110 -165z" />
    <glyph glyph-name="Ldot" unicode="&#x13f;" horiz-adv-x="610" 
d="M50 700h285v-15l-60 -15v-645h215c0 105 65 155 65 155h30v-180h-535v15l60 15v640l-60 15v15zM345 350c0 40 30 70 70 70s70 -30 70 -70s-30 -70 -70 -70s-70 30 -70 70z" />
    <glyph glyph-name="Ncommaaccent" unicode="&#x145;" horiz-adv-x="740" 
d="M605 255v400l-80 30v15h190v-15l-80 -30v-670h-30l-465 545v-485l80 -30v-15h-190v15l80 30v620l-70 20v15h105c80 0 115 -40 140 -70zM335 -245l-10 20s70 25 85 105c0 0 -15 -15 -40 -15c-40 0 -70 30 -70 70s30 70 70 70c45 0 75 -30 75 -85
c0 -130 -110 -165 -110 -165z" />
    <glyph glyph-name="Obreve" unicode="&#x14e;" horiz-adv-x="740" 
d="M520 350c0 265 -80 345 -150 345s-150 -80 -150 -345s80 -345 150 -345s150 80 150 345zM695 350c0 -235 -130 -365 -325 -365s-325 130 -325 365s130 365 325 365s325 -130 325 -365zM370 785c35 0 55 11 55 10v110s20 5 35 5c35 0 60 -25 60 -60
c0 -45 -40 -85 -150 -85s-150 40 -150 85c0 35 25 60 60 60c15 0 35 -5 35 -5v-110c0 1 20 -10 55 -10z" />
    <glyph glyph-name="Oslashacute" unicode="&#x1fe;" horiz-adv-x="740" 
d="M695 350c0 -235 -130 -365 -325 -365c-82 0 -153 24 -207 71l-43 -56h-35l57 75c-58 62 -97 155 -97 275c0 235 130 365 325 365c82 0 153 -25 207 -71l43 56h35l-58 -76c59 -62 98 -154 98 -274zM520 350c0 62 -5 114 -12 157l-269 -351c28 -113 82 -151 131 -151
c70 0 150 80 150 345zM220 350c0 -63 4 -115 12 -158l268 351c-28 113 -82 152 -130 152c-70 0 -150 -80 -150 -345zM375 900h130l-135 -150h-35z" />
    <glyph glyph-name="Rcommaaccent" unicode="&#x156;" horiz-adv-x="700" 
d="M440 85l-100 225h-65v-280l70 -15v-15h-295v15l60 15v640l-60 15v15h265c240 0 320 -80 320 -195c0 -185 -240 -185 -240 -185s125 0 165 -90l90 -200l50 -15v-15h-140c-60 0 -98 35 -120 85zM275 335h40c90 0 150 60 150 170s-60 170 -150 170h-40v-340zM348 -285
l-10 20s70 25 85 105c0 0 -15 -15 -40 -15c-40 0 -70 30 -70 70s30 70 70 70c45 0 75 -30 75 -85c0 -130 -110 -165 -110 -165z" />
    <glyph glyph-name="Scommaaccent" unicode="&#x218;" horiz-adv-x="595" 
d="M275 10c75 0 125 50 125 125c0 155 -355 165 -355 405c0 95 80 175 245 175c95 0 160 -65 160 -65c20 35 55 55 55 55h25v-190h-40s-45 175 -180 175c-50 0 -95 -45 -95 -110c0 -170 355 -180 355 -400c0 -105 -90 -195 -275 -195c-115 0 -180 65 -180 65
c-20 -35 -55 -55 -55 -55h-25v190h40s45 -175 200 -175zM278 -305l-10 20s70 25 85 105c0 0 -15 -15 -40 -15c-40 0 -70 30 -70 70s30 70 70 70c45 0 75 -30 75 -85c0 -130 -110 -165 -110 -165z" />
    <glyph glyph-name="Tcommaaccent" unicode="&#x162;" horiz-adv-x="635" 
d="M460 0h-285v15l60 15v645h-115c0 -105 -65 -155 -65 -155h-30v180h585v-180h-30s-65 50 -65 155h-115v-645l60 -15v-15zM280 -305l-10 20s70 25 85 105c0 0 -15 -15 -40 -15c-40 0 -70 30 -70 70s30 70 70 70c45 0 75 -30 75 -85c0 -130 -110 -165 -110 -165z" />
    <glyph glyph-name="Ubreve" unicode="&#x16c;" horiz-adv-x="710" 
d="M595 250v405l-80 30v15h190v-15l-80 -30v-405c0 -165 -100 -265 -230 -265c-200 0 -300 100 -300 265v420l-60 15v15h285v-15l-60 -15v-420c0 -180 60 -240 155 -240c90 0 180 90 180 240zM400 775c35 0 55 11 55 10v110s20 5 35 5c35 0 60 -25 60 -60
c0 -45 -40 -85 -150 -85s-150 40 -150 85c0 35 25 60 60 60c15 0 35 -5 35 -5v-110c0 1 20 -10 55 -10z" />
    <glyph glyph-name="aacute" unicode="&#xe1;" horiz-adv-x="605" 
d="M235 235c0 0 -20 -45 -20 -105c0 -80 30 -110 60 -110c60 0 90 80 90 80v145c-60 0 -130 -10 -130 -10zM275 515c160 0 250 -90 250 -215v-270l60 -15v-15h-90c-95 0 -115 75 -115 75s-40 -90 -145 -90c-125 0 -185 60 -185 135c0 60 35 110 35 110s145 35 280 40v30
c0 155 -40 195 -110 195c-30 0 -50 -10 -50 -10v-150s-20 -5 -40 -5c-45 0 -75 30 -75 75c0 55 55 110 185 110zM295 710h130l-135 -150h-35z" />
    <glyph glyph-name="abreve" unicode="&#x103;" horiz-adv-x="605" 
d="M235 235c0 0 -20 -45 -20 -105c0 -80 30 -110 60 -110c60 0 90 80 90 80v145c-60 0 -130 -10 -130 -10zM275 515c160 0 250 -90 250 -215v-270l60 -15v-15h-90c-95 0 -115 75 -115 75s-40 -90 -145 -90c-125 0 -185 60 -185 135c0 60 35 110 35 110s145 35 280 40v30
c0 155 -40 195 -110 195c-30 0 -50 -10 -50 -10v-150s-20 -5 -40 -5c-45 0 -75 30 -75 75c0 55 55 110 185 110zM300 595c35 0 55 11 55 10v110s20 5 35 5c35 0 60 -25 60 -60c0 -45 -40 -85 -150 -85s-150 40 -150 85c0 35 25 60 60 60c15 0 35 -5 35 -5v-110
c0 1 20 -10 55 -10z" />
    <glyph glyph-name="acircumflex" unicode="&#xe2;" horiz-adv-x="605" 
d="M235 235c0 0 -20 -45 -20 -105c0 -80 30 -110 60 -110c60 0 90 80 90 80v145c-60 0 -130 -10 -130 -10zM275 515c160 0 250 -90 250 -215v-270l60 -15v-15h-90c-95 0 -115 75 -115 75s-40 -90 -145 -90c-125 0 -185 60 -185 135c0 60 35 110 35 110s145 35 280 40v30
c0 155 -40 195 -110 195c-30 0 -50 -10 -50 -10v-150s-20 -5 -40 -5c-45 0 -75 30 -75 75c0 55 55 110 185 110zM155 565l145 165l145 -165h-35l-110 70l-110 -70h-35z" />
    <glyph glyph-name="adieresis" unicode="&#xe4;" horiz-adv-x="605" 
d="M235 235c0 0 -20 -45 -20 -105c0 -80 30 -110 60 -110c60 0 90 80 90 80v145c-60 0 -130 -10 -130 -10zM275 515c160 0 250 -90 250 -215v-270l60 -15v-15h-90c-95 0 -115 75 -115 75s-40 -90 -145 -90c-125 0 -185 60 -185 135c0 60 35 110 35 110s145 35 280 40v30
c0 155 -40 195 -110 195c-30 0 -50 -10 -50 -10v-150s-20 -5 -40 -5c-45 0 -75 30 -75 75c0 55 55 110 185 110zM137 645c0 40 30 70 70 70s70 -30 70 -70s-30 -70 -70 -70s-70 30 -70 70zM322 645c0 40 30 70 70 70s70 -30 70 -70s-30 -70 -70 -70s-70 30 -70 70z" />
    <glyph glyph-name="agrave" unicode="&#xe0;" horiz-adv-x="605" 
d="M235 235c0 0 -20 -45 -20 -105c0 -80 30 -110 60 -110c60 0 90 80 90 80v145c-60 0 -130 -10 -130 -10zM275 515c160 0 250 -90 250 -215v-270l60 -15v-15h-90c-95 0 -115 75 -115 75s-40 -90 -145 -90c-125 0 -185 60 -185 135c0 60 35 110 35 110s145 35 280 40v30
c0 155 -40 195 -110 195c-30 0 -50 -10 -50 -10v-150s-20 -5 -40 -5c-45 0 -75 30 -75 75c0 55 55 110 185 110zM155 710h130l40 -150h-35z" />
    <glyph glyph-name="amacron" unicode="&#x101;" horiz-adv-x="605" 
d="M235 235c0 0 -20 -45 -20 -105c0 -80 30 -110 60 -110c60 0 90 80 90 80v145c-60 0 -130 -10 -130 -10zM275 515c160 0 250 -90 250 -215v-270l60 -15v-15h-90c-95 0 -115 75 -115 75s-40 -90 -145 -90c-125 0 -185 60 -185 135c0 60 35 110 35 110s145 35 280 40v30
c0 155 -40 195 -110 195c-30 0 -50 -10 -50 -10v-150s-20 -5 -40 -5c-45 0 -75 30 -75 75c0 55 55 110 185 110zM430 600h-260v45h260v-45z" />
    <glyph glyph-name="aogonek" unicode="&#x105;" horiz-adv-x="605" 
d="M275 515c160 0 250 -90 250 -215v-270l60 -15v-15s-95 -40 -95 -125c0 -25 15 -40 40 -40s45 20 45 20v-30s-25 -15 -65 -15c-70 0 -105 35 -105 75c0 81 122 112 134 115h-44c-91 0 -113 67 -115 74c-1 -2 -42 -89 -145 -89c-125 0 -185 60 -185 135c0 60 35 110 35 110
s145 35 280 40v30c0 155 -40 195 -110 195c-30 0 -50 -10 -50 -10v-150s-20 -5 -40 -5c-45 0 -75 30 -75 75c0 55 55 110 185 110zM235 235c0 0 -20 -45 -20 -105c0 -80 30 -110 60 -110c60 0 90 80 90 80v145c-60 0 -130 -10 -130 -10z" />
    <glyph glyph-name="aring" unicode="&#xe5;" horiz-adv-x="605" 
d="M235 235c0 0 -20 -45 -20 -105c0 -80 30 -110 60 -110c60 0 90 80 90 80v145c-60 0 -130 -10 -130 -10zM275 515c160 0 250 -90 250 -215v-270l60 -15v-15h-90c-95 0 -115 75 -115 75s-40 -90 -145 -90c-125 0 -185 60 -185 135c0 60 35 110 35 110s145 35 280 40v30
c0 155 -40 195 -110 195c-30 0 -50 -10 -50 -10v-150s-20 -5 -40 -5c-45 0 -75 30 -75 75c0 55 55 110 185 110zM405 665c0 -55 -45 -100 -105 -100s-105 45 -105 100s45 100 105 100s105 -45 105 -100zM355 665c0 40 -25 65 -55 65s-55 -25 -55 -65s25 -65 55 -65
s55 25 55 65z" />
    <glyph glyph-name="atilde" unicode="&#xe3;" horiz-adv-x="605" 
d="M235 235c0 0 -20 -45 -20 -105c0 -80 30 -110 60 -110c60 0 90 80 90 80v145c-60 0 -130 -10 -130 -10zM275 515c160 0 250 -90 250 -215v-270l60 -15v-15h-90c-95 0 -115 75 -115 75s-40 -90 -145 -90c-125 0 -185 60 -185 135c0 60 35 110 35 110s145 35 280 40v30
c0 155 -40 195 -110 195c-30 0 -50 -10 -50 -10v-150s-20 -5 -40 -5c-45 0 -75 30 -75 75c0 55 55 110 185 110zM347 585c-60 0 -80 50 -120 50c-25 0 -45 -20 -45 -45h-20c0 80 35 115 90 115c60 0 80 -50 120 -50c25 0 45 20 45 45h20c0 -80 -35 -115 -90 -115z" />
    <glyph glyph-name="cacute" unicode="&#x107;" horiz-adv-x="530" 
d="M330 495c-70 0 -120 -50 -120 -245c0 -190 50 -240 120 -240c80 0 145 65 145 130h25c0 -80 -75 -155 -190 -155c-170 0 -270 100 -270 265s100 265 270 265c130 0 185 -55 185 -110c0 -45 -30 -75 -75 -75c-20 0 -40 5 -40 5v150s-20 10 -50 10zM295 710h130l-135 -150
h-35z" />
    <glyph glyph-name="ccaron" unicode="&#x10d;" horiz-adv-x="530" 
d="M330 495c-70 0 -120 -50 -120 -245c0 -190 50 -240 120 -240c80 0 145 65 145 130h25c0 -80 -75 -155 -190 -155c-170 0 -270 100 -270 265s100 265 270 265c130 0 185 -55 185 -110c0 -45 -30 -75 -75 -75c-20 0 -40 5 -40 5v150s-20 10 -50 10zM420 715l-115 -150h-60
l-115 150h35l110 -80l110 80h35z" />
    <glyph glyph-name="ccedilla" unicode="&#xe7;" horiz-adv-x="530" 
d="M330 495c-70 0 -120 -50 -120 -245c0 -190 50 -240 120 -240c80 0 145 65 145 130h25c0 -80 -75 -155 -190 -155h-5v-35c60 0 95 -35 95 -75s-35 -75 -105 -75c-30 0 -56 5 -56 5v30s16 -10 36 -10c30 0 50 20 50 50s-20 50 -55 50v62c-145 13 -230 112 -230 263
c0 165 100 265 270 265c130 0 185 -55 185 -110c0 -45 -30 -75 -75 -75c-20 0 -40 5 -40 5v150s-20 10 -50 10z" />
    <glyph glyph-name="ccircumflex" unicode="&#x109;" horiz-adv-x="530" 
d="M330 495c-70 0 -120 -50 -120 -245c0 -190 50 -240 120 -240c80 0 145 65 145 130h25c0 -80 -75 -155 -190 -155c-170 0 -270 100 -270 265s100 265 270 265c130 0 185 -55 185 -110c0 -45 -30 -75 -75 -75c-20 0 -40 5 -40 5v150s-20 10 -50 10zM140 565l145 165
l145 -165h-35l-110 70l-110 -70h-35z" />
    <glyph glyph-name="cdotaccent" unicode="&#x10b;" horiz-adv-x="530" 
d="M330 495c-70 0 -120 -50 -120 -245c0 -190 50 -240 120 -240c80 0 145 65 145 130h25c0 -80 -75 -155 -190 -155c-170 0 -270 100 -270 265s100 265 270 265c130 0 185 -55 185 -110c0 -45 -30 -75 -75 -75c-20 0 -40 5 -40 5v150s-20 10 -50 10zM225 645
c0 40 30 70 70 70s70 -30 70 -70s-30 -70 -70 -70s-70 30 -70 70z" />
    <glyph glyph-name="dcaron" unicode="&#x10f;" horiz-adv-x="760" 
d="M375 100v345s-35 40 -75 40c-50 0 -90 -40 -90 -235c0 -190 40 -230 75 -230c60 0 90 80 90 80zM315 700h130c60 0 90 -30 90 -90v-580l60 -15v-15h-90c-95 0 -115 75 -115 75s-40 -90 -145 -90c-115 0 -205 90 -205 265s90 265 220 265c70 0 115 -40 115 -40v195l-60 15
v15zM625 450l-10 20s70 25 85 105c0 0 -15 -15 -40 -15c-40 0 -70 30 -70 70s30 70 70 70c45 0 75 -30 75 -85c0 -130 -110 -165 -110 -165z" />
    <glyph glyph-name="dcroat" unicode="&#x111;" horiz-adv-x="625" 
d="M315 700h130c60 0 90 -30 90 -90v-20h65v-30h-65v-530l60 -15v-15h-90c-95 0 -115 75 -115 75s-40 -90 -145 -90c-115 0 -205 90 -205 255s90 255 220 255c70 0 115 -40 115 -40v105h-125v30h125v80l-60 15v15zM375 100v325c0 -1 -35 40 -75 40c-50 0 -90 -40 -90 -225
c0 -180 40 -220 75 -220c60 0 90 80 90 80z" />
    <glyph glyph-name="eacute" unicode="&#xe9;" 
d="M210 250c90 0 140 10 140 10s10 35 10 75c0 120 -40 160 -75 160s-75 -40 -75 -245zM310 -15c-170 0 -270 100 -270 265s100 265 245 265c150 0 240 -90 240 -200c0 -35 -10 -60 -10 -60s-145 -30 -305 -30c0 -165 50 -215 120 -215c80 0 145 65 145 130h25
c0 -80 -75 -155 -190 -155zM290 710h130l-135 -150h-35z" />
    <glyph glyph-name="ebreve" unicode="&#x115;" 
d="M210 250c90 0 140 10 140 10s10 35 10 75c0 120 -40 160 -75 160s-75 -40 -75 -245zM310 -15c-170 0 -270 100 -270 265s100 265 245 265c150 0 240 -90 240 -200c0 -35 -10 -60 -10 -60s-145 -30 -305 -30c0 -165 50 -215 120 -215c80 0 145 65 145 130h25
c0 -80 -75 -155 -190 -155zM280 595c35 0 55 11 55 10v110s20 5 35 5c35 0 60 -25 60 -60c0 -45 -40 -85 -150 -85s-150 40 -150 85c0 35 25 60 60 60c15 0 35 -5 35 -5v-110c0 1 20 -10 55 -10z" />
    <glyph glyph-name="ecaron" unicode="&#x11b;" 
d="M210 250c90 0 140 10 140 10s10 35 10 75c0 120 -40 160 -75 160s-75 -40 -75 -245zM310 -15c-170 0 -270 100 -270 265s100 265 245 265c150 0 240 -90 240 -200c0 -35 -10 -60 -10 -60s-145 -30 -305 -30c0 -165 50 -215 120 -215c80 0 145 65 145 130h25
c0 -80 -75 -155 -190 -155zM435 715l-115 -150h-60l-115 150h35l110 -80l110 80h35z" />
    <glyph glyph-name="ecircumflex" unicode="&#xea;" 
d="M210 250c90 0 140 10 140 10s10 35 10 75c0 120 -40 160 -75 160s-75 -40 -75 -245zM310 -15c-170 0 -270 100 -270 265s100 265 245 265c150 0 240 -90 240 -200c0 -35 -10 -60 -10 -60s-145 -30 -305 -30c0 -165 50 -215 120 -215c80 0 145 65 145 130h25
c0 -80 -75 -155 -190 -155zM140 565l145 165l145 -165h-35l-110 70l-110 -70h-35z" />
    <glyph glyph-name="edieresis" unicode="&#xeb;" 
d="M210 250c90 0 140 10 140 10s10 35 10 75c0 120 -40 160 -75 160s-75 -40 -75 -245zM310 -15c-170 0 -270 100 -270 265s100 265 245 265c150 0 240 -90 240 -200c0 -35 -10 -60 -10 -60s-145 -30 -305 -30c0 -165 50 -215 120 -215c80 0 145 65 145 130h25
c0 -80 -75 -155 -190 -155zM122 645c0 40 30 70 70 70s70 -30 70 -70s-30 -70 -70 -70s-70 30 -70 70zM307 645c0 40 30 70 70 70s70 -30 70 -70s-30 -70 -70 -70s-70 30 -70 70z" />
    <glyph glyph-name="edotaccent" unicode="&#x117;" 
d="M210 250c90 0 140 10 140 10s10 35 10 75c0 120 -40 160 -75 160s-75 -40 -75 -245zM310 -15c-170 0 -270 100 -270 265s100 265 245 265c150 0 240 -90 240 -200c0 -35 -10 -60 -10 -60s-145 -30 -305 -30c0 -165 50 -215 120 -215c80 0 145 65 145 130h25
c0 -80 -75 -155 -190 -155zM215 645c0 40 30 70 70 70s70 -30 70 -70s-30 -70 -70 -70s-70 30 -70 70z" />
    <glyph glyph-name="egrave" unicode="&#xe8;" 
d="M210 250c90 0 140 10 140 10s10 35 10 75c0 120 -40 160 -75 160s-75 -40 -75 -245zM310 -15c-170 0 -270 100 -270 265s100 265 245 265c150 0 240 -90 240 -200c0 -35 -10 -60 -10 -60s-145 -30 -305 -30c0 -165 50 -215 120 -215c80 0 145 65 145 130h25
c0 -80 -75 -155 -190 -155zM140 710h130l40 -150h-35z" />
    <glyph glyph-name="emacron" unicode="&#x113;" 
d="M210 250c90 0 140 10 140 10s10 35 10 75c0 120 -40 160 -75 160s-75 -40 -75 -245zM310 -15c-170 0 -270 100 -270 265s100 265 245 265c150 0 240 -90 240 -200c0 -35 -10 -60 -10 -60s-145 -30 -305 -30c0 -165 50 -215 120 -215c80 0 145 65 145 130h25
c0 -80 -75 -155 -190 -155zM415 600h-260v45h260v-45z" />
    <glyph glyph-name="eogonek" unicode="&#x119;" 
d="M205 -115c0 52 50 84 90 100c-160 5 -255 105 -255 265c0 165 100 265 245 265c150 0 240 -90 240 -200c0 -40 -10 -60 -10 -60s-145 -30 -305 -30c0 -165 50 -215 120 -215c80 0 145 65 145 130h25c0 -65 -50 -127 -130 -147c-26 -15 -80 -52 -80 -118
c0 -25 15 -40 40 -40s45 20 45 20v-30s-25 -15 -65 -15c-70 0 -105 35 -105 75zM210 250c90 0 140 10 140 10s10 35 10 75c0 120 -40 160 -75 160s-75 -40 -75 -245z" />
    <glyph glyph-name="gbreve" unicode="&#x11f;" horiz-adv-x="605" 
d="M280 505c65 0 120 -15 150 -35c0 0 25 60 95 60c45 0 80 -35 80 -85c0 -40 -25 -65 -55 -65c-20 0 -35 5 -35 5v120c-45 0 -65 -50 -65 -50c35 -30 50 -70 50 -115c0 -95 -70 -165 -220 -165c-50 0 -95 10 -130 25c0 0 -40 -15 -40 -35s15 -35 80 -35h190
c100 0 160 -60 160 -165c0 -100 -80 -180 -265 -180c-190 0 -250 60 -250 110c0 45 30 75 75 75c24 0 40 -5 40 -5v-140s60 -20 125 -20c175 0 235 60 235 120c0 35 -30 65 -120 65h-190c-105 0 -155 50 -155 110c0 80 95 110 95 110c-50 30 -70 75 -70 130
c0 95 70 165 220 165zM280 195c40 0 70 30 70 145s-30 145 -70 145s-70 -30 -70 -145s30 -145 70 -145zM280 590c35 0 55 11 55 10v110s20 5 35 5c35 0 60 -25 60 -60c0 -45 -40 -85 -150 -85s-150 40 -150 85c0 35 25 60 60 60c15 0 35 -5 35 -5v-110c0 1 20 -10 55 -10z
" />
    <glyph glyph-name="gcircumflex" unicode="&#x11d;" horiz-adv-x="605" 
d="M280 505c65 0 120 -15 150 -35c0 0 25 60 95 60c45 0 80 -35 80 -85c0 -40 -25 -65 -55 -65c-20 0 -35 5 -35 5v120c-45 0 -65 -50 -65 -50c35 -30 50 -70 50 -115c0 -95 -70 -165 -220 -165c-50 0 -95 10 -130 25c0 0 -40 -15 -40 -35s15 -35 80 -35h190
c100 0 160 -60 160 -165c0 -100 -80 -180 -265 -180c-190 0 -250 60 -250 110c0 45 30 75 75 75c24 0 40 -5 40 -5v-140s60 -20 125 -20c175 0 235 60 235 120c0 35 -30 65 -120 65h-190c-105 0 -155 50 -155 110c0 80 95 110 95 110c-50 30 -70 75 -70 130
c0 95 70 165 220 165zM280 195c40 0 70 30 70 145s-30 145 -70 145s-70 -30 -70 -145s30 -145 70 -145zM145 560l145 165l145 -165h-35l-110 70l-110 -70h-35z" />
    <glyph glyph-name="gcommaaccent" unicode="&#x123;" horiz-adv-x="605" 
d="M280 505c65 0 120 -15 150 -35c0 0 25 60 95 60c45 0 80 -35 80 -85c0 -40 -25 -65 -55 -65c-20 0 -35 5 -35 5v120c-45 0 -65 -50 -65 -50c35 -30 50 -70 50 -115c0 -95 -70 -165 -220 -165c-50 0 -95 10 -130 25c0 0 -40 -15 -40 -35s15 -35 80 -35h190
c100 0 160 -60 160 -165c0 -100 -80 -180 -265 -180c-190 0 -250 60 -250 110c0 45 30 75 75 75c24 0 40 -5 40 -5v-140s60 -20 125 -20c175 0 235 60 235 120c0 35 -30 65 -120 65h-190c-105 0 -155 50 -155 110c0 80 95 110 95 110c-50 30 -70 75 -70 130
c0 95 70 165 220 165zM280 195c40 0 70 30 70 145s-30 145 -70 145s-70 -30 -70 -145s30 -145 70 -145zM320 820l10 -20s-70 -25 -85 -105c0 0 15 15 40 15c40 0 70 -30 70 -70s-30 -70 -70 -70c-45 0 -75 30 -75 85c0 130 110 165 110 165z" />
    <glyph glyph-name="gdotaccent" unicode="&#x121;" horiz-adv-x="605" 
d="M280 505c65 0 120 -15 150 -35c0 0 25 60 95 60c45 0 80 -35 80 -85c0 -40 -25 -65 -55 -65c-20 0 -35 5 -35 5v120c-45 0 -65 -50 -65 -50c35 -30 50 -70 50 -115c0 -95 -70 -165 -220 -165c-50 0 -95 10 -130 25c0 0 -40 -15 -40 -35s15 -35 80 -35h190
c100 0 160 -60 160 -165c0 -100 -80 -180 -265 -180c-190 0 -250 60 -250 110c0 45 30 75 75 75c24 0 40 -5 40 -5v-140s60 -20 125 -20c175 0 235 60 235 120c0 35 -30 65 -120 65h-190c-105 0 -155 50 -155 110c0 80 95 110 95 110c-50 30 -70 75 -70 130
c0 95 70 165 220 165zM280 195c40 0 70 30 70 145s-30 145 -70 145s-70 -30 -70 -145s30 -145 70 -145zM210 640c0 40 30 70 70 70s70 -30 70 -70s-30 -70 -70 -70s-70 30 -70 70z" />
    <glyph glyph-name="hbar" unicode="&#x127;" horiz-adv-x="670" 
d="M390 545h-125v-125s40 65 130 65c115 0 195 -80 195 -165v-290l60 -15v-15h-130c-60 0 -90 30 -90 90v230c0 90 -40 130 -75 130c-60 0 -90 -80 -90 -80v-340l60 -15v-15h-280v15l60 15v515h-65v25h65v100l-60 15v15h130c60 0 90 -30 90 -90v-40h125v-25z" />
    <glyph glyph-name="hcircumflex" unicode="&#x125;" horiz-adv-x="665" 
d="M425 90v260c0 90 -40 130 -75 130c-60 0 -90 -80 -90 -80v-370l60 -15v-15h-280v15l60 15v640l-60 15v15h130c60 0 90 -30 90 -90v-160s40 65 130 65c115 0 195 -80 195 -165v-320l60 -15v-15h-130c-60 0 -90 30 -90 90zM20 740l145 165l145 -165h-35l-110 70l-110 -70
h-35z" />
    <glyph glyph-name="dotlessi" unicode="&#x131;" horiz-adv-x="340" 
d="M40 500h130c60 0 90 -30 90 -90v-380l60 -15v-15h-280v15l60 15v440l-60 15v15z" />
    <glyph glyph-name="iacute" unicode="&#xed;" horiz-adv-x="340" 
d="M40 500h130c60 0 90 -30 90 -90v-380l60 -15v-15h-280v15l60 15v440l-60 15v15zM175 700h130l-135 -150h-35z" />
    <glyph glyph-name="ibreve" unicode="&#x12d;" horiz-adv-x="340" 
d="M40 500h130c60 0 90 -30 90 -90v-380l60 -15v-15h-280v15l60 15v440l-60 15v15zM170 585c35 0 55 11 55 10v110s20 5 35 5c35 0 60 -25 60 -60c0 -45 -40 -85 -150 -85s-150 40 -150 85c0 35 25 60 60 60c15 0 35 -5 35 -5v-110c0 1 20 -10 55 -10z" />
    <glyph glyph-name="icircumflex" unicode="&#xee;" horiz-adv-x="340" 
d="M40 500h130c60 0 90 -30 90 -90v-380l60 -15v-15h-280v15l60 15v440l-60 15v15zM25 560l145 165l145 -165h-35l-110 70l-110 -70h-35z" />
    <glyph glyph-name="idieresis" unicode="&#xef;" horiz-adv-x="340" 
d="M40 500h130c60 0 90 -30 90 -90v-380l60 -15v-15h-280v15l60 15v440l-60 15v15zM-2 640c0 40 30 70 70 70s70 -30 70 -70s-30 -70 -70 -70s-70 30 -70 70zM183 640c0 40 30 70 70 70s70 -30 70 -70s-30 -70 -70 -70s-70 30 -70 70z" />
    <glyph glyph-name="igrave" unicode="&#xec;" horiz-adv-x="340" 
d="M40 500h130c60 0 90 -30 90 -90v-380l60 -15v-15h-280v15l60 15v440l-60 15v15zM25 700h130l40 -150h-35z" />
    <glyph glyph-name="imacron" unicode="&#x12b;" horiz-adv-x="340" 
d="M40 500h130c60 0 90 -30 90 -90v-380l60 -15v-15h-280v15l60 15v440l-60 15v15zM300 600h-260v45h260v-45z" />
    <glyph glyph-name="iogonek" unicode="&#x12f;" horiz-adv-x="340" 
d="M40 500h130c60 0 90 -30 90 -90v-380l60 -15v-15h-60s-95 -40 -95 -125c0 -25 15 -40 40 -40s45 20 45 20v-30s-25 -15 -65 -15c-70 0 -105 35 -105 75c0 81 122 112 134 115h-174v15l60 15v440l-60 15v15zM95 625c0 45 40 85 85 85s85 -40 85 -85s-40 -85 -85 -85
s-85 40 -85 85z" />
    <glyph glyph-name="itilde" unicode="&#x129;" horiz-adv-x="343" 
d="M43 500h130c60 0 90 -30 90 -90v-380l60 -15v-15h-280v15l60 15v440l-60 15v15zM220 575c-60 0 -80 50 -120 50c-25 0 -45 -20 -45 -45h-20c0 80 35 115 90 115c60 0 80 -50 120 -50c25 0 45 20 45 45h20c0 -80 -35 -115 -90 -115z" />
    <glyph glyph-name="ij" unicode="&#x133;" horiz-adv-x="640" 
d="M315 -50v-140s10 -5 20 -5c35 0 70 35 70 165v505h-145v-445l60 -15v-15h-280v15l60 15v440l-60 15v15h435c60 0 90 -30 90 -90v-440c0 -105 -80 -185 -220 -185c-105 0 -145 40 -145 95c0 45 30 75 75 75c20 0 40 -5 40 -5zM400 625c0 45 40 85 85 85s85 -40 85 -85
s-40 -85 -85 -85s-85 40 -85 85zM95 625c0 45 40 85 85 85s85 -40 85 -85s-40 -85 -85 -85s-85 40 -85 85z" />
    <glyph glyph-name="jcircumflex" unicode="&#x135;" horiz-adv-x="340" 
d="M5 -50v-140s10 -5 20 -5c35 0 70 35 70 165v500l-60 15v15h130c60 0 90 -30 90 -90v-440c0 -105 -80 -185 -220 -185c-105 0 -145 40 -145 95c0 45 30 75 75 75c20 0 40 -5 40 -5zM10 565l145 165l145 -165h-35l-110 70l-110 -70h-35z" />
    <glyph glyph-name="lacute" unicode="&#x13a;" horiz-adv-x="340" 
d="M40 700h130c60 0 90 -30 90 -90v-580l60 -15v-15h-280v15l60 15v640l-60 15v15zM177 900h130l-135 -150h-35z" />
    <glyph glyph-name="lcaron" unicode="&#x13e;" horiz-adv-x="485" 
d="M40 700h130c60 0 90 -30 90 -90v-580l60 -15v-15h-280v15l60 15v640l-60 15v15zM350 450l-10 20s70 25 85 105c0 0 -15 -15 -40 -15c-40 0 -70 30 -70 70s30 70 70 70c45 0 75 -30 75 -85c0 -130 -110 -165 -110 -165z" />
    <glyph glyph-name="lcommaaccent" unicode="&#x13c;" horiz-adv-x="340" 
d="M40 700h130c60 0 90 -30 90 -90v-580l60 -15v-15h-280v15l60 15v640l-60 15v15zM148 -305l-10 20s70 25 85 105c0 0 -15 -15 -40 -15c-40 0 -70 30 -70 70s30 70 70 70c45 0 75 -30 75 -85c0 -130 -110 -165 -110 -165z" />
    <glyph glyph-name="ldot" unicode="&#x140;" horiz-adv-x="485" 
d="M40 700h130c60 0 90 -30 90 -90v-580l60 -15v-15h-280v15l60 15v640l-60 15v15zM315 350c0 40 30 70 70 70s70 -30 70 -70s-30 -70 -70 -70s-70 30 -70 70z" />
    <glyph glyph-name="lslash" unicode="&#x142;" horiz-adv-x="365" 
d="M45 700h130c60 0 90 -30 90 -90v-159l80 49v-35l-80 -49v-386l60 -15v-15h-280v15l60 15v287l-85 -52v35l85 52v318l-60 15v15z" />
    <glyph glyph-name="nacute" unicode="&#x144;" horiz-adv-x="665" 
d="M425 90v260c0 90 -40 130 -75 130c-60 0 -90 -80 -90 -80v-370l60 -15v-15h-280v15l60 15v440l-60 15v15h90c95 0 115 -75 115 -75s40 90 145 90c115 0 195 -80 195 -165v-320l60 -15v-15h-130c-60 0 -90 30 -90 90zM347 710h130l-135 -150h-35z" />
    <glyph glyph-name="ncaron" unicode="&#x148;" horiz-adv-x="665" 
d="M425 90v260c0 90 -40 130 -75 130c-60 0 -90 -80 -90 -80v-370l60 -15v-15h-280v15l60 15v440l-60 15v15h90c95 0 115 -75 115 -75s40 90 145 90c115 0 195 -80 195 -165v-320l60 -15v-15h-130c-60 0 -90 30 -90 90zM472 715l-115 -150h-60l-115 150h35l110 -80l110 80
h35z" />
    <glyph glyph-name="ncommaaccent" unicode="&#x146;" horiz-adv-x="665" 
d="M425 90v260c0 90 -40 130 -75 130c-60 0 -90 -80 -90 -80v-370l60 -15v-15h-280v15l60 15v440l-60 15v15h90c95 0 115 -75 115 -75s40 90 145 90c115 0 195 -80 195 -165v-320l60 -15v-15h-130c-60 0 -90 30 -90 90zM325 -295l-10 20s70 25 85 105c0 0 -15 -15 -40 -15
c-40 0 -70 30 -70 70s30 70 70 70c45 0 75 -30 75 -85c0 -130 -110 -165 -110 -165z" />
    <glyph glyph-name="ntilde" unicode="&#xf1;" horiz-adv-x="665" 
d="M425 90v260c0 90 -40 130 -75 130c-60 0 -90 -80 -90 -80v-370l60 -15v-15h-280v15l60 15v440l-60 15v15h90c95 0 115 -75 115 -75s40 90 145 90c115 0 195 -80 195 -165v-320l60 -15v-15h-130c-60 0 -90 30 -90 90zM390 575c-60 0 -80 50 -120 50c-25 0 -45 -20 -45 -45
h-20c0 80 35 115 90 115c60 0 80 -50 120 -50c25 0 45 20 45 45h20c0 -80 -35 -115 -90 -115z" />
    <glyph glyph-name="oacute" unicode="&#xf3;" horiz-adv-x="600" 
d="M300 5c45 0 95 50 95 245s-50 245 -95 245s-95 -50 -95 -245s50 -245 95 -245zM300 515c165 0 265 -100 265 -265s-100 -265 -265 -265s-265 100 -265 265s100 265 265 265zM305 710h130l-135 -150h-35z" />
    <glyph glyph-name="obreve" unicode="&#x14f;" horiz-adv-x="610" 
d="M305 5c45 0 95 50 95 245s-50 245 -95 245s-95 -50 -95 -245s50 -245 95 -245zM305 515c165 0 265 -100 265 -265s-100 -265 -265 -265s-265 100 -265 265s100 265 265 265zM305 595c35 0 55 11 55 10v110s20 5 35 5c35 0 60 -25 60 -60c0 -45 -40 -85 -150 -85
s-150 40 -150 85c0 35 25 60 60 60c15 0 35 -5 35 -5v-110c0 1 20 -10 55 -10z" />
    <glyph glyph-name="ocircumflex" unicode="&#xf4;" horiz-adv-x="610" 
d="M305 5c45 0 95 50 95 245s-50 245 -95 245s-95 -50 -95 -245s50 -245 95 -245zM305 515c165 0 265 -100 265 -265s-100 -265 -265 -265s-265 100 -265 265s100 265 265 265zM160 565l145 165l145 -165h-35l-110 70l-110 -70h-35z" />
    <glyph glyph-name="odieresis" unicode="&#xf6;" horiz-adv-x="610" 
d="M305 5c45 0 95 50 95 245s-50 245 -95 245s-95 -50 -95 -245s50 -245 95 -245zM305 515c165 0 265 -100 265 -265s-100 -265 -265 -265s-265 100 -265 265s100 265 265 265zM142 645c0 40 30 70 70 70s70 -30 70 -70s-30 -70 -70 -70s-70 30 -70 70zM327 645
c0 40 30 70 70 70s70 -30 70 -70s-30 -70 -70 -70s-70 30 -70 70z" />
    <glyph glyph-name="ograve" unicode="&#xf2;" horiz-adv-x="610" 
d="M305 5c45 0 95 50 95 245s-50 245 -95 245s-95 -50 -95 -245s50 -245 95 -245zM305 515c165 0 265 -100 265 -265s-100 -265 -265 -265s-265 100 -265 265s100 265 265 265zM160 710h130l40 -150h-35z" />
    <glyph glyph-name="ohungarumlaut" unicode="&#x151;" horiz-adv-x="610" 
d="M305 5c45 0 95 50 95 245s-50 245 -95 245s-95 -50 -95 -245s50 -245 95 -245zM305 515c165 0 265 -100 265 -265s-100 -265 -265 -265s-265 100 -265 265s100 265 265 265zM252 710h100l-110 -150h-35zM382 710h100l-110 -150h-35z" />
    <glyph glyph-name="omacron" unicode="&#x14d;" horiz-adv-x="610" 
d="M305 5c45 0 95 50 95 245s-50 245 -95 245s-95 -50 -95 -245s50 -245 95 -245zM305 515c165 0 265 -100 265 -265s-100 -265 -265 -265s-265 100 -265 265s100 265 265 265zM435 600h-260v45h260v-45z" />
    <glyph glyph-name="oslash" unicode="&#xf8;" horiz-adv-x="610" 
d="M495 500h35l-41 -50c49 -45 81 -114 81 -200c0 -165 -100 -265 -265 -265c-65 0 -121 16 -163 47l-27 -32h-35l41 49c-49 46 -81 115 -81 201c0 165 100 265 265 265c65 0 120 -17 163 -48zM305 5c45 0 95 50 95 245c0 33 -2 63 -4 88l-177 -213c16 -93 52 -120 86 -120z
M210 250c0 -34 1 -63 4 -89l177 213c-17 93 -53 121 -86 121c-45 0 -95 -50 -95 -245z" />
    <glyph glyph-name="oslashacute" unicode="&#x1ff;" horiz-adv-x="610" 
d="M495 500h35l-41 -50c49 -45 81 -114 81 -200c0 -165 -100 -265 -265 -265c-65 0 -121 16 -163 47l-27 -32h-35l41 49c-49 46 -81 115 -81 201c0 165 100 265 265 265c65 0 120 -17 163 -48zM305 5c45 0 95 50 95 245c0 33 -2 63 -4 88l-177 -213c16 -93 52 -120 86 -120z
M210 250c0 -34 1 -63 4 -89l177 213c-17 93 -53 121 -86 121c-45 0 -95 -50 -95 -245zM300 710h130l-135 -150h-35z" />
    <glyph glyph-name="otilde" unicode="&#xf5;" horiz-adv-x="610" 
d="M305 5c45 0 95 50 95 245s-50 245 -95 245s-95 -50 -95 -245s50 -245 95 -245zM305 515c165 0 265 -100 265 -265s-100 -265 -265 -265s-265 100 -265 265s100 265 265 265zM352 575c-60 0 -80 50 -120 50c-25 0 -45 -20 -45 -45h-20c0 80 35 115 90 115
c60 0 80 -50 120 -50c25 0 45 20 45 45h20c0 -80 -35 -115 -90 -115z" />
    <glyph glyph-name="racute" unicode="&#x155;" horiz-adv-x="505" 
d="M385 340v140c-80 0 -125 -80 -125 -80v-370l60 -15v-15h-280v15l60 15v440l-60 15v15h90c95 0 115 -75 115 -75s50 80 149 80c71 0 106 -35 106 -95c0 -45 -30 -75 -75 -75c-20 0 -40 5 -40 5zM270 710h130l-135 -150h-35z" />
    <glyph glyph-name="rcaron" unicode="&#x159;" horiz-adv-x="505" 
d="M385 340v140c-80 0 -125 -80 -125 -80v-370l60 -15v-15h-280v15l60 15v440l-60 15v15h90c95 0 115 -75 115 -75s50 80 149 80c71 0 106 -35 106 -95c0 -45 -30 -75 -75 -75c-20 0 -40 5 -40 5zM415 710l-115 -150h-60l-115 150h35l110 -80l110 80h35z" />
    <glyph glyph-name="rcommaaccent" unicode="&#x157;" horiz-adv-x="505" 
d="M385 340v140c-80 0 -125 -80 -125 -80v-370l60 -15v-15h-280v15l60 15v440l-60 15v15h90c95 0 115 -75 115 -75s50 80 149 80c71 0 106 -35 106 -95c0 -45 -30 -75 -75 -75c-20 0 -40 5 -40 5zM143 -295l-10 20s70 25 85 105c0 0 -15 -15 -40 -15c-40 0 -70 30 -70 70
s30 70 70 70c45 0 75 -30 75 -85c0 -130 -110 -165 -110 -165z" />
    <glyph glyph-name="sacute" unicode="&#x15b;" horiz-adv-x="540" 
d="M275 -15c-95 0 -150 55 -150 55c-20 -30 -55 -45 -55 -45h-25v170h40s45 -155 170 -155c55 0 85 30 85 80c0 110 -290 120 -290 290c0 75 60 135 210 135c80 0 136 -55 136 -55c20 30 55 45 55 45h25v-170h-40s-46 155 -156 155c-35 0 -65 -30 -65 -70
c0 -120 290 -130 290 -290c0 -85 -60 -145 -230 -145zM247 710h130l-135 -150h-35z" />
    <glyph glyph-name="scircumflex" unicode="&#x15d;" horiz-adv-x="540" 
d="M275 -15c-95 0 -150 55 -150 55c-20 -30 -55 -45 -55 -45h-25v170h40s45 -155 170 -155c55 0 85 30 85 80c0 110 -290 120 -290 290c0 75 60 135 210 135c80 0 136 -55 136 -55c20 30 55 45 55 45h25v-170h-40s-46 155 -156 155c-35 0 -65 -30 -65 -70
c0 -120 290 -130 290 -290c0 -85 -60 -145 -230 -145zM122 565l145 165l145 -165h-35l-110 70l-110 -70h-35z" />
    <glyph glyph-name="scommaaccent" unicode="&#x219;" horiz-adv-x="540" 
d="M275 -15c-95 0 -150 55 -150 55c-20 -30 -55 -45 -55 -45h-25v170h40s45 -155 170 -155c55 0 85 30 85 80c0 110 -290 120 -290 290c0 75 60 135 210 135c80 0 136 -55 136 -55c20 30 55 45 55 45h25v-170h-40s-46 155 -156 155c-35 0 -65 -30 -65 -70
c0 -120 290 -130 290 -290c0 -85 -60 -145 -230 -145zM245 -305l-10 20s70 25 85 105c0 0 -15 -15 -40 -15c-40 0 -70 30 -70 70s30 70 70 70c45 0 75 -30 75 -85c0 -130 -110 -165 -110 -165z" />
    <glyph glyph-name="scedilla" unicode="&#x15f;" horiz-adv-x="540" 
d="M243 -75v62c-76 10 -118 53 -118 53c-20 -30 -55 -45 -55 -45h-25v170h40s45 -155 170 -155c55 0 85 30 85 80c0 110 -285 120 -285 290c0 75 60 135 210 135c80 0 136 -55 136 -55c20 30 55 45 55 45h25v-170h-40s-46 155 -156 155c-35 0 -65 -30 -65 -70
c0 -120 285 -130 285 -290c0 -85 -60 -145 -227 -145v-35c60 0 95 -35 95 -75s-35 -75 -105 -75c-30 0 -56 5 -56 5v30s16 -10 36 -10c30 0 50 20 50 50s-20 50 -55 50z" />
    <glyph glyph-name="tcaron" unicode="&#x165;" horiz-adv-x="545" 
d="M85 500v50c0 60 30 90 90 90h70v-140h140v-25h-140v-305c0 -130 30 -160 75 -160s90 45 90 130h25c0 -100 -55 -155 -135 -155c-135 0 -215 80 -215 185v305h-70v25h70zM420 390l-10 20s70 25 85 105c0 0 -15 -15 -40 -15c-40 0 -70 30 -70 70s30 70 70 70
c45 0 75 -30 75 -85c0 -130 -110 -165 -110 -165z" />
    <glyph glyph-name="tcommaaccent" unicode="&#x163;" horiz-adv-x="450" 
d="M85 500v50c0 60 30 90 90 90h70v-140h140v-25h-140v-305c0 -130 30 -160 75 -160s90 45 90 130h25c0 -100 -55 -155 -135 -155c-135 0 -215 80 -215 185v305h-70v25h70zM235 -310l-10 20s70 25 85 105c0 0 -15 -15 -40 -15c-40 0 -70 30 -70 70s30 70 70 70
c45 0 75 -30 75 -85c0 -130 -110 -165 -110 -165z" />
    <glyph glyph-name="uacute" unicode="&#xfa;" horiz-adv-x="650" 
d="M25 500h130c60 0 90 -30 90 -90v-260c0 -90 40 -130 75 -130c60 0 90 80 90 80v370l-60 15v15h280v-15l-60 -15v-475h-10c-115 0 -135 80 -135 80s-40 -90 -145 -90c-115 0 -195 80 -195 165v320l-60 15v15zM335 700h130l-135 -150h-35z" />
    <glyph glyph-name="ubreve" unicode="&#x16d;" horiz-adv-x="650" 
d="M25 500h130c60 0 90 -30 90 -90v-260c0 -90 40 -130 75 -130c60 0 90 80 90 80v370l-60 15v15h280v-15l-60 -15v-475h-10c-115 0 -135 80 -135 80s-40 -90 -145 -90c-115 0 -195 80 -195 165v320l-60 15v15zM320 590c35 0 55 11 55 10v110s20 5 35 5c35 0 60 -25 60 -60
c0 -45 -40 -85 -150 -85s-150 40 -150 85c0 35 25 60 60 60c15 0 35 -5 35 -5v-110c0 1 20 -10 55 -10z" />
    <glyph glyph-name="ucircumflex" unicode="&#xfb;" horiz-adv-x="650" 
d="M25 500h130c60 0 90 -30 90 -90v-260c0 -90 40 -130 75 -130c60 0 90 80 90 80v370l-60 15v15h280v-15l-60 -15v-475h-10c-115 0 -135 80 -135 80s-40 -90 -145 -90c-115 0 -195 80 -195 165v320l-60 15v15zM185 565l145 165l145 -165h-35l-110 70l-110 -70h-35z" />
    <glyph glyph-name="udieresis" unicode="&#xfc;" horiz-adv-x="650" 
d="M25 500h130c60 0 90 -30 90 -90v-260c0 -90 40 -130 75 -130c60 0 90 80 90 80v370l-60 15v15h280v-15l-60 -15v-475h-10c-115 0 -135 80 -135 80s-40 -90 -145 -90c-115 0 -195 80 -195 165v320l-60 15v15zM167 645c0 40 30 70 70 70s70 -30 70 -70s-30 -70 -70 -70
s-70 30 -70 70zM352 645c0 40 30 70 70 70s70 -30 70 -70s-30 -70 -70 -70s-70 30 -70 70z" />
    <glyph glyph-name="uhungarumlaut" unicode="&#x171;" horiz-adv-x="650" 
d="M25 500h130c60 0 90 -30 90 -90v-260c0 -90 40 -130 75 -130c60 0 90 80 90 80v370l-60 15v15h280v-15l-60 -15v-475h-10c-115 0 -135 80 -135 80s-40 -90 -145 -90c-115 0 -195 80 -195 165v320l-60 15v15zM257 710h100l-110 -150h-35zM387 710h100l-110 -150h-35z" />
    <glyph glyph-name="ugrave" unicode="&#xf9;" horiz-adv-x="650" 
d="M25 500h130c60 0 90 -30 90 -90v-260c0 -90 40 -130 75 -130c60 0 90 80 90 80v370l-60 15v15h280v-15l-60 -15v-475h-10c-115 0 -135 80 -135 80s-40 -90 -145 -90c-115 0 -195 80 -195 165v320l-60 15v15zM175 710h130l40 -150h-35z" />
    <glyph glyph-name="umacron" unicode="&#x16b;" horiz-adv-x="650" 
d="M25 500h130c60 0 90 -30 90 -90v-260c0 -90 40 -130 75 -130c60 0 90 80 90 80v370l-60 15v15h280v-15l-60 -15v-475h-10c-115 0 -135 80 -135 80s-40 -90 -145 -90c-115 0 -195 80 -195 165v320l-60 15v15zM450 600h-260v45h260v-45z" />
    <glyph glyph-name="uogonek" unicode="&#x173;" horiz-adv-x="650" 
d="M25 500h130c60 0 90 -30 90 -90v-260c0 -90 40 -130 75 -130c60 0 90 80 90 80v370l-60 15v15h280v-15l-60 -15v-470s-95 -40 -95 -125c0 -25 15 -40 40 -40s45 20 45 20v-30s-25 -15 -65 -15c-70 0 -105 35 -105 75c0 75 103 111 129 118c-79 15 -94 72 -94 72
s-40 -90 -145 -90c-115 0 -195 80 -195 165v320l-60 15v15z" />
    <glyph glyph-name="uring" unicode="&#x16f;" horiz-adv-x="650" 
d="M25 500h130c60 0 90 -30 90 -90v-260c0 -90 40 -130 75 -130c60 0 90 80 90 80v370l-60 15v15h280v-15l-60 -15v-475h-10c-115 0 -135 80 -135 80s-40 -90 -145 -90c-115 0 -195 80 -195 165v320l-60 15v15zM425 655c0 -55 -45 -100 -105 -100s-105 45 -105 100
s45 100 105 100s105 -45 105 -100zM375 655c0 40 -25 65 -55 65s-55 -25 -55 -65s25 -65 55 -65s55 25 55 65z" />
    <glyph glyph-name="utilde" unicode="&#x169;" horiz-adv-x="650" 
d="M25 500h130c60 0 90 -30 90 -90v-260c0 -90 40 -130 75 -130c60 0 90 80 90 80v370l-60 15v15h280v-15l-60 -15v-475h-10c-115 0 -135 80 -135 80s-40 -90 -145 -90c-115 0 -195 80 -195 165v320l-60 15v15zM377 575c-60 0 -80 50 -120 50c-25 0 -45 -20 -45 -45h-20
c0 80 35 115 90 115c60 0 80 -50 120 -50c25 0 45 20 45 45h20c0 -80 -35 -115 -90 -115z" />
    <glyph glyph-name="wacute" unicode="&#x1e83;" horiz-adv-x="835" 
d="M260 -10l-230 480l-50 15v15h115c75 0 111 -35 135 -85l110 -230l57 146l-67 139l-50 15v15h115c75 0 111 -35 135 -85l110 -230l105 270l-75 30v15h185v-15l-80 -30l-185 -465h-30l-148 308l-122 -308h-30zM417 710h130l-135 -150h-35z" />
    <glyph glyph-name="wcircumflex" unicode="&#x175;" horiz-adv-x="835" 
d="M260 -10l-230 480l-50 15v15h115c75 0 111 -35 135 -85l110 -230l57 146l-67 139l-50 15v15h115c75 0 111 -35 135 -85l110 -230l105 270l-75 30v15h185v-15l-80 -30l-185 -465h-30l-148 308l-122 -308h-30zM267 565l145 165l145 -165h-35l-110 70l-110 -70h-35z" />
    <glyph glyph-name="wdieresis" unicode="&#x1e85;" horiz-adv-x="835" 
d="M260 -10l-230 480l-50 15v15h115c75 0 111 -35 135 -85l110 -230l57 146l-67 139l-50 15v15h115c75 0 111 -35 135 -85l110 -230l105 270l-75 30v15h185v-15l-80 -30l-185 -465h-30l-148 308l-122 -308h-30zM250 645c0 40 30 70 70 70s70 -30 70 -70s-30 -70 -70 -70
s-70 30 -70 70zM435 645c0 40 30 70 70 70s70 -30 70 -70s-30 -70 -70 -70s-70 30 -70 70z" />
    <glyph glyph-name="wgrave" unicode="&#x1e81;" horiz-adv-x="835" 
d="M260 -10l-230 480l-50 15v15h115c75 0 111 -35 135 -85l110 -230l57 146l-67 139l-50 15v15h115c75 0 111 -35 135 -85l110 -230l105 270l-75 30v15h185v-15l-80 -30l-185 -465h-30l-148 308l-122 -308h-30zM257 710h130l40 -150h-35z" />
    <glyph glyph-name="yacute" unicode="&#xfd;" 
d="M365 184l105 271l-75 30v15h185v-15l-80 -30l-200 -515c-43 -110 -90 -155 -150 -155s-95 35 -95 90c0 50 30 80 75 80c20 0 40 -5 40 -5v-135c35 5 64 35 100 125l20 50l-260 480l-50 15v15h125c75 0 108 -35 135 -85zM317 700h130l-135 -150h-35z" />
    <glyph glyph-name="ycircumflex" unicode="&#x177;" 
d="M365 184l105 271l-75 30v15h185v-15l-80 -30l-200 -515c-43 -110 -90 -155 -150 -155s-95 35 -95 90c0 50 30 80 75 80c20 0 40 -5 40 -5v-135c35 5 64 35 100 125l20 50l-260 480l-50 15v15h125c75 0 108 -35 135 -85zM162 560l145 165l145 -165h-35l-110 70l-110 -70
h-35z" />
    <glyph glyph-name="ydieresis" unicode="&#xff;" 
d="M365 184l105 271l-75 30v15h185v-15l-80 -30l-200 -515c-43 -110 -90 -155 -150 -155s-95 35 -95 90c0 50 30 80 75 80c20 0 40 -5 40 -5v-135c35 5 64 35 100 125l20 50l-260 480l-50 15v15h125c75 0 108 -35 135 -85zM145 645c0 40 30 70 70 70s70 -30 70 -70
s-30 -70 -70 -70s-70 30 -70 70zM330 645c0 40 30 70 70 70s70 -30 70 -70s-30 -70 -70 -70s-70 30 -70 70z" />
    <glyph glyph-name="ygrave" unicode="&#x1ef3;" 
d="M365 184l105 271l-75 30v15h185v-15l-80 -30l-200 -515c-43 -110 -90 -155 -150 -155s-95 35 -95 90c0 50 30 80 75 80c20 0 40 -5 40 -5v-135c35 5 64 35 100 125l20 50l-260 480l-50 15v15h125c75 0 108 -35 135 -85zM167 700h130l40 -150h-35z" />
    <glyph glyph-name="zacute" unicode="&#x17a;" horiz-adv-x="545" 
d="M325 475h-180c0 -95 -65 -150 -65 -150h-30v175h455v-25l-285 -450h190c0 95 65 150 65 150h30v-175h-465v25zM282 710h130l-135 -150h-35z" />
    <glyph glyph-name="zdotaccent" unicode="&#x17c;" horiz-adv-x="545" 
d="M325 475h-180c0 -95 -65 -150 -65 -150h-30v175h455v-25l-285 -450h190c0 95 65 150 65 150h30v-175h-465v25zM207 640c0 40 30 70 70 70s70 -30 70 -70s-30 -70 -70 -70s-70 30 -70 70z" />
    <glyph glyph-name="kcommaaccent" unicode="&#x137;" horiz-adv-x="600" 
d="M40 700h130c60 0 90 -30 90 -90v-350l185 195l-75 30v15h190v-15l-80 -30l-115 -120l195 -305l50 -15v-15h-130c-70 0 -104 35 -135 85l-85 135v-190l60 -15v-15h-280v15l60 15v640l-60 15v15zM295 -295l-10 20s70 25 85 105c0 0 -15 -15 -40 -15c-40 0 -70 30 -70 70
s30 70 70 70c45 0 75 -30 75 -85c0 -130 -110 -165 -110 -165z" />
    <glyph glyph-name="Eth" unicode="&#xd0;" horiz-adv-x="715" 
d="M50 370h65v300l-60 15v15h255c240 0 370 -130 370 -350s-130 -350 -370 -350h-255v15l60 15v310h-65v30zM310 675h-30v-305h120v-30h-120v-315h30c115 0 195 80 195 325s-80 325 -195 325z" />
    <glyph glyph-name="florin" unicode="&#x192;" horiz-adv-x="450" 
d="M65 -30l75 485h-70l5 25h70l10 50c21 105 100 185 240 185c100 0 145 -45 145 -95c0 -55 -35 -90 -85 -90c-20 0 -40 5 -40 5l25 155s-15 5 -30 5c-35 0 -69 -35 -95 -165l-10 -50h160l-5 -25h-160l-75 -485c-16 -105 -95 -185 -230 -185c-75 0 -125 50 -125 145h25
c0 -85 35 -120 80 -120c35 0 71 35 90 160z" />
    <glyph glyph-name="afii10017" unicode="&#x410;" horiz-adv-x="680" 
d="M90 45l75 -30v-15h-185v15l80 30l275 665h30l285 -680l50 -15v-15h-120c-75 0 -115 40 -134 85l-51 120h-239zM275 493l-109 -263h219z" />
    <glyph glyph-name="afii10019" unicode="&#x412;" horiz-adv-x="680" 
d="M110 670l-60 15v15h270c215 0 295 -80 295 -175c0 -155 -235 -155 -235 -155s270 0 270 -180c0 -110 -80 -190 -310 -190h-290v15l60 15v640zM340 355h-65v-330h65c80 0 140 60 140 165s-60 165 -140 165zM275 675v-295h45c65 0 125 60 125 145c0 90 -60 150 -125 150
h-45z" />
    <glyph glyph-name="afii10035" unicode="&#x421;" horiz-adv-x="650" 
d="M361 715c94 0 159 -65 159 -65c20 35 55 55 55 55h25v-190h-40s-45 175 -180 175c-80 0 -160 -80 -160 -340s80 -340 185 -340c95 0 185 90 185 190h25c0 -115 -100 -215 -230 -215c-210 0 -340 130 -340 365s130 365 316 365z" />
    <glyph glyph-name="afii10022" unicode="&#x415;" horiz-adv-x="645" 
d="M275 360h115c10 55 45 100 45 100h30v-225h-30s-35 45 -45 100h-115v-310h235c0 105 65 155 65 155h30v-180h-555v15l60 15v640l-60 15v15h535v-180h-30s-65 50 -65 155h-215v-315z" />
    <glyph glyph-name="afii10020" unicode="&#x413;" horiz-adv-x="610" 
d="M335 0h-285v15l60 15v640l-60 15v15h535v-180h-30s-65 50 -65 155h-215v-645l60 -15v-15z" />
    <glyph glyph-name="afii10030" unicode="&#x41c;" horiz-adv-x="985" 
d="M830 700h105v-15l-60 -15v-640l60 -15v-15h-285v15l60 15v545l-235 -585h-30l-305 585v-530l80 -30v-15h-190v15l80 30v625l-70 15v15h135c75 0 109 -35 135 -85l218 -417l167 417c22 55 50 85 135 85z" />
    <glyph glyph-name="afii10031" unicode="&#x41d;" horiz-adv-x="765" 
d="M110 670l-60 15v15h285v-15l-60 -15v-310h215v310l-60 15v15h285v-15l-60 -15v-640l60 -15v-15h-285v15l60 15v305h-215v-305l60 -15v-15h-285v15l60 15v640z" />
    <glyph glyph-name="afii10032" unicode="&#x41e;" horiz-adv-x="740" 
d="M520 350c0 265 -80 345 -150 345s-150 -80 -150 -345s80 -345 150 -345s150 80 150 345zM695 350c0 -235 -130 -365 -325 -365s-325 130 -325 365s130 365 325 365s325 -130 325 -365z" />
    <glyph glyph-name="afii10034" unicode="&#x420;" horiz-adv-x="675" 
d="M275 295h55c80 0 140 60 140 190s-60 190 -140 190h-55v-380zM330 270h-55v-240l60 -15v-15h-285v15l60 15v640l-60 15v15h280c230 0 310 -80 310 -215s-80 -215 -310 -215z" />
    <glyph glyph-name="afii10036" unicode="&#x422;" horiz-adv-x="635" 
d="M460 0h-285v15l60 15v645h-115c0 -105 -65 -155 -65 -155h-30v180h585v-180h-30s-65 50 -65 155h-115v-645l60 -15v-15z" />
    <glyph glyph-name="afii10039" unicode="&#x425;" horiz-adv-x="665" 
d="M95 45l170 251l-220 374l-50 15v15h145c70 0 105 -35 135 -85l96 -164l139 204l-75 30v15h190v-15l-80 -30l-157 -231l232 -394l50 -15v-15h-145c-70 0 -105 35 -135 85l-108 183l-152 -223l75 -30v-15h-190v15z" />
    <glyph glyph-name="afii10065" unicode="&#x430;" horiz-adv-x="605" 
d="M235 235c0 0 -20 -45 -20 -105c0 -80 30 -110 60 -110c60 0 90 80 90 80v145c-60 0 -130 -10 -130 -10zM275 515c160 0 250 -90 250 -215v-270l60 -15v-15h-90c-95 0 -115 75 -115 75s-40 -90 -145 -90c-125 0 -185 60 -185 135c0 60 35 110 35 110s145 35 280 40v30
c0 155 -40 195 -110 195c-30 0 -50 -10 -50 -10v-150s-20 -5 -40 -5c-45 0 -75 30 -75 75c0 55 55 110 185 110z" />
    <glyph glyph-name="afii10070" unicode="&#x435;" 
d="M210 250c90 0 140 10 140 10s10 35 10 75c0 120 -40 160 -75 160s-75 -40 -75 -245zM310 -15c-170 0 -270 100 -270 265s100 265 245 265c150 0 240 -90 240 -200c0 -35 -10 -60 -10 -60s-145 -30 -305 -30c0 -165 50 -215 120 -215c80 0 145 65 145 130h25
c0 -80 -75 -155 -190 -155z" />
    <glyph glyph-name="afii10080" unicode="&#x43e;" horiz-adv-x="610" 
d="M305 5c45 0 95 50 95 245s-50 245 -95 245s-95 -50 -95 -245s50 -245 95 -245zM305 515c165 0 265 -100 265 -265s-100 -265 -265 -265s-265 100 -265 265s100 265 265 265z" />
    <glyph glyph-name="afii10082" unicode="&#x440;" horiz-adv-x="625" 
d="M250 400v-345s35 -40 75 -40c50 0 90 40 90 235c0 190 -40 230 -75 230c-60 0 -90 -80 -90 -80zM90 -170v640l-60 15v15h90c95 0 115 -75 115 -75s40 90 145 90c115 0 205 -90 205 -265s-90 -265 -220 -265c-70 0 -115 40 -115 40v-195l60 -15v-15h-280v15z" />
    <glyph glyph-name="afii10083" unicode="&#x441;" horiz-adv-x="530" 
d="M330 495c-70 0 -120 -50 -120 -245c0 -190 50 -240 120 -240c80 0 145 65 145 130h25c0 -80 -75 -155 -190 -155c-170 0 -270 100 -270 265s100 265 270 265c130 0 185 -55 185 -110c0 -45 -30 -75 -75 -75c-20 0 -40 5 -40 5v150s-20 10 -50 10z" />
    <glyph glyph-name="afii10018" unicode="&#x411;" horiz-adv-x="670" 
d="M275 410h55c230 0 310 -80 310 -205s-80 -205 -310 -205h-280v15l60 15v640l-60 15v15h530v-180h-30s-65 50 -65 155h-210v-265zM330 385h-55v-360h55c80 0 140 60 140 180s-60 180 -140 180z" />
    <glyph glyph-name="afii10033" unicode="&#x41f;" horiz-adv-x="765" 
d="M110 670l-60 15v15h665v-15l-60 -15v-640l60 -15v-15h-285v15l60 15v645h-215v-645l60 -15v-15h-285v15l60 15v640z" />
    <glyph glyph-name="afii10079" unicode="&#x43d;" horiz-adv-x="670" 
d="M410 470l-60 15v15h280v-15l-60 -15v-440l60 -15v-15h-280v15l60 15v210h-150v-210l60 -15v-15h-280v15l60 15v440l-60 15v15h280v-15l-60 -15v-205h150v205z" />
    <glyph glyph-name="afii10081" unicode="&#x43f;" horiz-adv-x="670" 
d="M40 485v15h590v-15l-60 -15v-440l60 -15v-15h-280v15l60 15v445h-150v-445l60 -15v-15h-280v15l60 15v440z" />
    <glyph glyph-name="afii10084" unicode="&#x442;" horiz-adv-x="550" 
d="M430 475h-75v-445l60 -15v-15h-280v15l60 15v445h-75c0 -95 -65 -150 -65 -150h-30v175h500v-175h-30s-65 55 -65 150z" />
    <glyph glyph-name="afii10028" unicode="&#x41a;" horiz-adv-x="710" 
d="M390 380h25c95 0 135 -40 150 -85l90 -265l50 -15v-15h-120c-75 0 -108 35 -125 85l-95 275h-90v-330l60 -15v-15h-285v15l60 15v640l-60 15v15h285v-15l-60 -15v-285h50c50 0 84 35 100 95l35 130c16 60 55 100 105 100c60 0 100 -40 100 -90s-35 -85 -80 -85
c-20 0 -40 5 -40 5v140c-21 -5 -44 -30 -55 -70l-35 -130c-21 -80 -65 -100 -65 -100z" />
    <glyph glyph-name="afii10024" unicode="&#x416;" horiz-adv-x="1025" 
d="M295 380h24c-2 1 -43 22 -64 100l-35 130c-11 40 -34 65 -55 70v-140s-20 -5 -40 -5c-45 0 -80 35 -80 85s40 90 100 90c50 0 89 -40 105 -100l35 -130c16 -60 50 -95 100 -95h45v285l-60 15v15h285v-15l-60 -15v-285h45c50 0 84 35 100 95l35 130c16 60 55 100 105 100
c60 0 100 -40 100 -90s-35 -85 -80 -85c-20 0 -40 5 -40 5v140c-21 -5 -44 -30 -55 -70l-35 -130c-21 -80 -65 -100 -65 -100h25c95 0 135 -40 150 -85l90 -265l50 -15v-15h-120c-75 0 -108 35 -125 85l-95 275h-85v-330l60 -15v-15h-285v15l60 15v330h-85l-95 -275
c-17 -50 -50 -85 -125 -85h-120v15l50 15l90 265c15 45 55 85 150 85z" />
    <glyph glyph-name="afii10026" unicode="&#x418;" horiz-adv-x="785" 
d="M110 670l-60 15v15h285v-15l-60 -15v-505l235 430v75l-60 15v15h285v-15l-60 -15v-640l60 -15v-15h-285v15l60 15v505l-235 -430v-75l60 -15v-15h-285v15l60 15v640z" />
    <glyph glyph-name="afii10027" unicode="&#x419;" horiz-adv-x="785" 
d="M390 790c35 0 55 11 55 10v110s20 5 35 5c35 0 60 -25 60 -60c0 -45 -40 -85 -150 -85s-150 40 -150 85c0 35 25 60 60 60c15 0 35 -5 35 -5v-110c0 1 20 -10 55 -10zM110 670l-60 15v15h285v-15l-60 -15v-505l235 430v75l-60 15v15h285v-15l-60 -15v-640l60 -15v-15
h-285v15l60 15v505l-235 -430v-75l60 -15v-15h-285v15l60 15v640z" />
    <glyph glyph-name="afii10021" unicode="&#x414;" horiz-adv-x="700" 
d="M225 675l-20 -425c-8 -160 -100 -225 -100 -225h320v650h-200zM-10 25h80s97 65 105 225l20 415l-70 20v15h525v-15l-60 -15v-645h95v-195h-30s-85 60 -85 170h-465c0 -110 -85 -170 -85 -170h-30v195z" />
    <glyph glyph-name="afii10025" unicode="&#x417;" horiz-adv-x="615" 
d="M290 715c175 0 265 -90 265 -180c0 -165 -235 -165 -235 -165s265 0 265 -190c0 -105 -90 -195 -310 -195c-150 0 -250 100 -250 215h25c0 -100 90 -190 205 -190c100 0 160 60 160 170c0 115 -60 175 -140 175h-80v25h70c70 0 120 50 120 155s-50 155 -115 155
c-130 0 -175 -175 -175 -175h-40v190h25s35 -20 55 -55c0 0 65 65 155 65z" />
    <glyph glyph-name="afii10040" unicode="&#x426;" horiz-adv-x="765" 
d="M635 0h-585v15l60 15v640l-60 15v15h285v-15l-60 -15v-645h215v645l-60 15v15h285v-15l-60 -15v-645h95v-195h-30s-85 60 -85 170z" />
    <glyph glyph-name="afii10042" unicode="&#x428;" horiz-adv-x="1085" 
d="M50 15l60 15v640l-60 15v15h285v-15l-60 -15v-645h185v645l-60 15v15h285v-15l-60 -15v-645h185v645l-60 15v15h285v-15l-60 -15v-640l60 -15v-15h-985v15z" />
    <glyph glyph-name="afii10043" unicode="&#x429;" horiz-adv-x="1085" 
d="M975 670v-645h95v-195h-30s-85 60 -85 170h-905v15l60 15v640l-60 15v15h285v-15l-60 -15v-645h185v645l-60 15v15h285v-15l-60 -15v-645h185v645l-60 15v15h285v-15z" />
    <glyph glyph-name="afii10049" unicode="&#x42f;" horiz-adv-x="705" 
d="M360 310l-100 -225c-22 -50 -60 -85 -120 -85h-135v15l50 15l90 200c40 90 155 90 155 90s-230 0 -230 185c0 115 80 195 320 195h265v-15l-60 -15v-640l60 -15v-15h-295v15l70 15v280h-70zM390 335h40v340h-40c-90 0 -150 -60 -150 -170s60 -170 150 -170z" />
    <glyph glyph-name="afii10047" unicode="&#x42d;" horiz-adv-x="650" 
d="M289 715c186 0 316 -130 316 -365s-130 -365 -340 -365c-130 0 -230 100 -230 215h25c0 -100 90 -190 185 -190c105 0 180 75 185 325h-130c-10 -55 -45 -100 -45 -100h-30v225h30s35 -45 45 -100h130c0 250 -80 330 -160 330c-135 0 -180 -175 -180 -175h-40v190h25
s35 -20 55 -55c0 0 65 65 159 65z" />
    <glyph glyph-name="afii10046" unicode="&#x42c;" horiz-adv-x="675" 
d="M275 420h65c230 0 310 -80 310 -210s-80 -210 -310 -210h-290v15l60 15v640l-60 15v15h285v-15l-60 -15v-250zM340 395h-65v-370h65c80 0 140 60 140 185s-60 185 -140 185z" />
    <glyph glyph-name="afii10045" unicode="&#x42b;" horiz-adv-x="1015" 
d="M740 670l-60 15v15h285v-15l-60 -15v-640l60 -15v-15h-285v15l60 15v640zM275 420h65c230 0 310 -80 310 -210s-80 -210 -310 -210h-290v15l60 15v640l-60 15v15h285v-15l-60 -15v-250zM340 395h-65v-370h65c80 0 140 60 140 185s-60 185 -140 185z" />
    <glyph glyph-name="afii10044" unicode="&#x42a;" horiz-adv-x="755" 
d="M200 675h-80c0 -105 -65 -155 -65 -155h-30v180h400v-15l-60 -15v-250h55c230 0 310 -80 310 -210s-80 -210 -310 -210h-280v15l60 15v645zM420 395h-55v-370h55c80 0 140 60 140 185s-60 185 -140 185z" />
    <glyph glyph-name="afii10041" unicode="&#x427;" horiz-adv-x="725" 
d="M450 320v350l-60 15v15h285v-15l-60 -15v-640l60 -15v-15h-285v15l60 15v265s-50 -30 -130 -30c-170 0 -240 70 -240 175v230l-60 15v15h285v-15l-60 -15v-230c0 -110 40 -150 115 -150c50 0 90 30 90 30z" />
    <glyph glyph-name="afii10048" unicode="&#x42e;" horiz-adv-x="1015" 
d="M665 715c175 0 305 -130 305 -365s-130 -365 -305 -365c-170 0 -300 125 -305 350h-85v-305l60 -15v-15h-285v15l60 15v640l-60 15v15h285v-15l-60 -15v-310h85c5 230 130 355 305 355zM665 695c-60 0 -130 -70 -130 -345s70 -345 130 -345s130 70 130 345
s-70 345 -130 345z" />
    <glyph glyph-name="afii10029" unicode="&#x41b;" horiz-adv-x="710" 
d="M90 -15c-60 0 -100 40 -100 90s35 85 80 85c20 0 40 -5 40 -5v-140c35 10 76 50 85 235l20 415l-70 20v15h515v-15l-60 -15v-640l60 -15v-15h-285v15l60 15v645h-190l-20 -425c-10 -205 -70 -265 -135 -265z" />
    <glyph glyph-name="afii10038" unicode="&#x424;" horiz-adv-x="895" 
d="M365 30v55c-225 10 -345 130 -345 275s120 265 345 275v50l-60 15v15h285v-15l-60 -15v-50c225 -10 345 -130 345 -275s-120 -265 -345 -275v-55l60 -15v-15h-285v15zM530 615v-510c90 10 170 90 170 255s-80 245 -170 255zM365 105v510c-90 -10 -170 -90 -170 -255
s80 -245 170 -255z" />
    <glyph glyph-name="afii10037" unicode="&#x423;" horiz-adv-x="660" 
d="M345 140l-305 530l-50 15v15h130c70 0 109 -40 135 -85l169 -293l146 333l-75 30v15h185v-15l-80 -30l-225 -515c-48 -110 -95 -155 -150 -155c-60 0 -100 40 -100 90s35 85 80 85c20 0 40 -5 40 -5v-140c30 5 65 40 100 125z" />
    <glyph glyph-name="afii10078" unicode="&#x43c;" horiz-adv-x="810" 
d="M670 500h100v-15l-60 -15v-440l60 -15v-15h-280v15l60 15v350l-176 -390h-24l-220 390v-335l80 -30v-15h-190v15l80 30v425l-70 15v15h135c70 0 105 -35 130 -80l136 -241l109 241c23 50 55 80 130 80z" />
    <glyph glyph-name="afii10088" unicode="&#x446;" horiz-adv-x="675" 
d="M545 0h-505v15l60 15v440l-60 15v15h280v-15l-60 -15v-445h150v445l-60 15v15h280v-15l-60 -15v-445h90v-190h-30s-85 55 -85 165z" />
    <glyph glyph-name="afii10090" unicode="&#x448;" horiz-adv-x="940" 
d="M40 0v15l60 15v440l-60 15v15h275v-15l-55 -15v-445h130v445l-55 15v15h270v-15l-55 -15v-445h130v445l-55 15v15h275v-15l-60 -15v-440l60 -15v-15h-860z" />
    <glyph glyph-name="afii10091" unicode="&#x449;" horiz-adv-x="945" 
d="M815 0h-775v15l60 15v440l-60 15v15h275v-15l-55 -15v-445h130v445l-55 15v15h270v-15l-55 -15v-445h130v445l-55 15v15h275v-15l-60 -15v-445h90v-190h-30s-85 55 -85 165z" />
    <glyph glyph-name="afii10068" unicode="&#x433;" horiz-adv-x="530" 
d="M100 470l-60 15v15h465v-175h-30s-65 55 -65 150h-150v-445l60 -15v-15h-280v15l60 15v440z" />
    <glyph glyph-name="afii10067" unicode="&#x432;" horiz-adv-x="605" 
d="M315 0h-275v15l60 15v440l-60 15v15h255c185 0 250 -65 250 -125c0 -115 -190 -115 -190 -115s220 0 220 -125c0 -70 -65 -135 -260 -135zM315 245h-55v-220h55c55 0 95 40 95 110s-40 110 -95 110zM295 475h-35v-205h35c44 0 85 40 85 105c0 60 -40 100 -85 100z" />
    <glyph glyph-name="afii10074" unicode="&#x438;" horiz-adv-x="680" 
d="M420 470l-60 15v15h280v-15l-60 -15v-440l60 -15v-15h-280v15l60 15v330l-160 -275v-55l60 -15v-15h-280v15l60 15v440l-60 15v15h280v-15l-60 -15v-330l160 275v55z" />
    <glyph glyph-name="afii10075" unicode="&#x439;" horiz-adv-x="680" 
d="M420 470l-60 15v15h280v-15l-60 -15v-440l60 -15v-15h-280v15l60 15v330l-160 -275v-55l60 -15v-15h-280v15l60 15v440l-60 15v15h280v-15l-60 -15v-330l160 275v55zM340 590c35 0 55 11 55 10v110s20 5 35 5c35 0 60 -25 60 -60c0 -45 -40 -85 -150 -85s-150 40 -150 85
c0 35 25 60 60 60c15 0 35 -5 35 -5v-110c0 1 20 -10 55 -10z" />
    <glyph glyph-name="afii10073" unicode="&#x437;" horiz-adv-x="530" 
d="M220 10c75 0 115 40 115 115s-40 115 -95 115h-65v25h45c55 0 95 40 95 115s-40 115 -95 115c-35 0 -60 -10 -60 -10v-150s-20 -5 -40 -5c-45 0 -75 30 -75 75c0 55 55 110 195 110c175 0 240 -65 240 -135c0 -125 -190 -125 -190 -125s210 0 210 -130
c0 -75 -65 -140 -260 -140c-135 0 -210 75 -210 155h25c0 -65 65 -130 165 -130z" />
    <glyph glyph-name="afii10096" unicode="&#x44e;" horiz-adv-x="885" 
d="M590 -15c-150 0 -250 95 -255 255h-75v-210l60 -15v-15h-280v15l60 15v440l-60 15v15h280v-15l-60 -15v-205h75c5 155 105 250 255 250c155 0 255 -100 255 -265s-100 -265 -255 -265zM590 5c40 0 85 45 85 245s-45 245 -85 245s-85 -45 -85 -245s45 -245 85 -245z" />
    <glyph glyph-name="afii10095" unicode="&#x44d;" horiz-adv-x="530" 
d="M200 495c-30 0 -50 -10 -50 -10v-150s-20 -5 -40 -5c-45 0 -75 30 -75 75c0 55 55 110 185 110c170 0 270 -100 270 -265s-100 -265 -270 -265c-115 0 -190 75 -190 155h25c0 -65 65 -130 145 -130c65 0 115 45 120 220h-75c-10 -40 -40 -75 -40 -75h-25v175h25
s30 -35 40 -75h75c0 190 -50 240 -120 240z" />
    <glyph glyph-name="afii10094" unicode="&#x44c;" horiz-adv-x="590" 
d="M260 300h50c195 0 260 -65 260 -150s-65 -150 -260 -150h-270v15l60 15v440l-60 15v15h280v-15l-60 -15v-170zM310 275h-50v-250h50c55 0 95 40 95 125s-40 125 -95 125z" />
    <glyph glyph-name="afii10092" unicode="&#x44a;" horiz-adv-x="670" 
d="M190 475h-70c0 -95 -65 -150 -65 -150h-30v175h385v-15l-60 -15v-170h40c195 0 260 -65 260 -150s-65 -150 -260 -150h-260v15l60 15v445zM390 275h-40v-250h40c55 0 95 40 95 125s-40 125 -95 125z" />
    <glyph glyph-name="afii10093" unicode="&#x44b;" horiz-adv-x="910" 
d="M260 300h50c195 0 260 -65 260 -150s-65 -150 -260 -150h-270v15l60 15v440l-60 15v15h280v-15l-60 -15v-170zM310 275h-50v-250h50c55 0 95 40 95 125s-40 125 -95 125zM810 470v-440l60 -15v-15h-280v15l60 15v440l-60 15v15h280v-15z" />
    <glyph glyph-name="afii10076" unicode="&#x43a;" horiz-adv-x="625" 
d="M350 270h30c85 0 125 -40 140 -85l50 -155l50 -15v-15h-105c-75 0 -115 40 -130 85l-55 165h-70v-220l60 -15v-15h-280v15l60 15v440l-60 15v15h280v-15l-60 -15v-195h35c40 0 70 30 80 65l25 90c14 50 45 80 90 80c60 0 95 -35 95 -90c0 -50 -30 -80 -75 -80
c-20 0 -40 5 -40 5v135c-20 -5 -32 -20 -40 -50l-25 -90c-15 -55 -55 -70 -55 -70z" />
    <glyph glyph-name="afii10072" unicode="&#x436;" horiz-adv-x="880" 
d="M605 270h30c85 0 125 -40 140 -85l50 -155l50 -15v-15h-105c-75 0 -115 40 -130 85l-55 165h-65v-220l60 -15v-15h-280v15l60 15v220h-65l-55 -165c-15 -45 -55 -85 -130 -85h-105v15l50 15l50 155c15 45 55 85 140 85h30s-40 15 -55 70l-25 90c-8 30 -20 45 -40 50v-135
s-20 -5 -40 -5c-45 0 -75 30 -75 80c0 55 35 90 95 90c45 0 76 -30 90 -80l25 -90c10 -35 35 -65 75 -65h35v195l-60 15v15h280v-15l-60 -15v-195h30c40 0 70 30 80 65l25 90c14 50 45 80 90 80c60 0 95 -35 95 -90c0 -50 -30 -80 -75 -80c-20 0 -40 5 -40 5v135
c-20 -5 -32 -20 -40 -50l-25 -90c-15 -55 -55 -70 -55 -70z" />
    <glyph glyph-name="afii10086" unicode="&#x444;" horiz-adv-x="810" 
d="M485 485v-470c65 5 125 65 125 235s-60 230 -125 235zM325 505v165l-60 15v15h130c60 0 90 -30 90 -90v-105c185 -5 295 -115 295 -255s-110 -250 -295 -255v-165l60 -15v-15h-280v15l60 15v165c-185 5 -295 115 -295 255s110 250 295 255zM325 15v470
c-65 -5 -125 -65 -125 -235s60 -230 125 -235z" />
    <glyph glyph-name="afii10089" unicode="&#x447;" horiz-adv-x="635" 
d="M375 230v240l-60 15v15h280v-15l-60 -15v-440l60 -15v-15h-280v15l60 15v175s-40 -25 -105 -25c-135 0 -195 60 -195 145v145l-60 15v15h280v-15l-60 -15v-145c0 -90 30 -120 75 -120c35 0 65 25 65 25z" />
    <glyph glyph-name="afii10069" unicode="&#x434;" horiz-adv-x="615" 
d="M105 25h245v450h-155l-20 -305c-7 -100 -70 -145 -70 -145zM95 500h475v-15l-60 -15v-445h90v-190h-30s-85 55 -85 165h-380c0 -110 -85 -165 -85 -165h-30v190h80s68 45 75 145l20 295l-70 20v15z" />
    <glyph glyph-name="afii10077" unicode="&#x43b;" horiz-adv-x="625" 
d="M170 170l20 295l-70 20v15h465v-15l-60 -15v-440l60 -15v-15h-280v15l60 15v445h-145l-20 -305c-9 -135 -60 -185 -115 -185c-60 0 -95 35 -95 90c0 45 35 80 75 80c20 0 40 -5 40 -5v-135c25 10 57 40 65 155z" />
    <glyph glyph-name="afii10097" unicode="&#x44f;" horiz-adv-x="630" 
d="M370 220h-80l-45 -140c-13 -40 -55 -80 -120 -80h-120v15l50 15l40 120c27 80 150 80 150 80s-180 0 -180 130c0 75 65 140 260 140h265v-15l-60 -15v-440l60 -15v-15h-280v15l60 15v190zM325 245h45v230h-45c-55 0 -95 -40 -95 -115s40 -115 95 -115z" />
    <glyph glyph-name="afii10066" unicode="&#x431;" horiz-adv-x="600" 
d="M305 435c-40 0 -85 -45 -85 -215s45 -215 85 -215s85 45 85 215s-45 215 -85 215zM85 300c20 70 100 155 220 155c165 0 255 -90 255 -235s-90 -235 -255 -235s-255 90 -255 255v60c0 250 90 337 225 360l230 40l15 50h15v-90c0 -60 -30 -90 -85 -100l-230 -40
c-65 -11 -135 -80 -135 -220z" />
    <glyph glyph-name="afii10023" unicode="&#x401;" horiz-adv-x="645" 
d="M180 840c0 40 30 70 70 70s70 -30 70 -70s-30 -70 -70 -70s-70 30 -70 70zM365 840c0 40 30 70 70 70s70 -30 70 -70s-30 -70 -70 -70s-70 30 -70 70zM275 360h115c10 55 45 100 45 100h30v-225h-30s-35 45 -45 100h-115v-310h235c0 105 65 155 65 155h30v-180h-555v15
l60 15v640l-60 15v15h535v-180h-30s-65 50 -65 155h-215v-315z" />
    <glyph glyph-name="afii10071" unicode="&#x451;" 
d="M130 650c0 40 30 70 70 70s70 -30 70 -70s-30 -70 -70 -70s-70 30 -70 70zM315 650c0 40 30 70 70 70s70 -30 70 -70s-30 -70 -70 -70s-70 30 -70 70zM210 250c90 0 140 10 140 10s10 35 10 75c0 120 -40 160 -75 160s-75 -40 -75 -245zM310 -15
c-170 0 -270 100 -270 265s100 265 245 265c150 0 240 -90 240 -200c0 -35 -10 -60 -10 -60s-145 -30 -305 -30c0 -165 50 -215 120 -215c80 0 145 65 145 130h25c0 -80 -75 -155 -190 -155z" />
    <glyph glyph-name="afii61352" unicode="&#x2116;" horiz-adv-x="1100" 
d="M605 255v400l-80 30v15h190v-15l-80 -30v-670h-30l-465 545v-485l80 -30v-15h-190v15l80 30v620l-70 20v15h105c80 0 115 -40 140 -70zM950 535c0 125 -30 155 -55 155s-55 -30 -55 -155s30 -155 55 -155s55 30 55 155zM1060 535c0 -105 -70 -175 -165 -175
s-165 70 -165 175s70 175 165 175s165 -70 165 -175zM1040 265h-290v40h290v-40z" />
    <glyph glyph-name="afii10101" unicode="&#x454;" horiz-adv-x="530" 
d="M330 495c-70 0 -120 -50 -120 -240h75c10 40 40 75 40 75h25v-175h-25s-30 35 -40 75h-75c5 -175 55 -220 120 -220c80 0 145 65 145 130h25c0 -80 -75 -155 -190 -155c-170 0 -270 100 -270 265s100 265 270 265c130 0 185 -55 185 -110c0 -45 -30 -75 -75 -75
c-20 0 -40 5 -40 5v150s-20 10 -50 10z" />
    <glyph glyph-name="afii10053" unicode="&#x404;" horiz-adv-x="650" 
d="M361 715c94 0 159 -65 159 -65c20 35 55 55 55 55h25v-190h-40s-45 175 -180 175c-80 0 -160 -80 -160 -330h130c10 55 45 100 45 100h30v-225h-30s-35 45 -45 100h-130c5 -250 80 -325 185 -325c95 0 185 90 185 190h25c0 -115 -100 -215 -230 -215
c-210 0 -340 130 -340 365s130 365 316 365z" />
    <glyph glyph-name="afii10062" unicode="&#x40e;" horiz-adv-x="660" 
d="M345 140l-305 530l-50 15v15h130c70 0 109 -40 135 -85l169 -293l146 333l-75 30v15h185v-15l-80 -30l-225 -515c-48 -110 -95 -155 -150 -155c-60 0 -100 40 -100 90s35 85 80 85c20 0 40 -5 40 -5v-140c30 5 65 40 100 125zM355 764c35 0 55 11 55 10v110s20 5 35 5
c35 0 60 -25 60 -60c0 -45 -40 -85 -150 -85s-150 40 -150 85c0 35 25 60 60 60c15 0 35 -5 35 -5v-110c0 1 20 -10 55 -10z" />
    <glyph glyph-name="afii10110" unicode="&#x45e;" 
d="M365 184l105 271l-75 30v15h185v-15l-80 -30l-200 -515c-43 -110 -90 -155 -150 -155s-95 35 -95 90c0 50 30 80 75 80c20 0 40 -5 40 -5v-135c35 5 64 35 100 125l20 50l-260 480l-50 15v15h125c75 0 108 -35 135 -85zM292 570c35 0 55 11 55 10v110s20 5 35 5
c35 0 60 -25 60 -60c0 -45 -40 -85 -150 -85s-150 40 -150 85c0 35 25 60 60 60c15 0 35 -5 35 -5v-110c0 1 20 -10 55 -10z" />
    <glyph glyph-name="afii10057" unicode="&#x408;" horiz-adv-x="550" 
d="M165 5c70 0 120 50 120 195v470l-60 15v15h285v-15l-60 -15v-470c0 -135 -80 -215 -265 -215c-130 0 -185 55 -185 110c0 45 30 75 75 75c20 0 40 -5 40 -5v-150s20 -10 50 -10z" />
    <glyph glyph-name="afii10105" unicode="&#x458;" horiz-adv-x="330" 
d="M90 625c0 45 40 85 85 85s85 -40 85 -85s-40 -85 -85 -85s-85 40 -85 85zM5 -50v-140s10 -5 20 -5c35 0 70 35 70 165v500l-60 15v15h130c60 0 90 -30 90 -90v-440c0 -105 -80 -185 -220 -185c-105 0 -145 40 -145 95c0 45 30 75 75 75c20 0 40 -5 40 -5z" />
    <glyph glyph-name="afii10054" unicode="&#x405;" horiz-adv-x="595" 
d="M275 10c75 0 125 50 125 125c0 155 -355 165 -355 405c0 95 80 175 245 175c95 0 160 -65 160 -65c20 35 55 55 55 55h25v-190h-40s-45 175 -180 175c-50 0 -95 -45 -95 -110c0 -170 355 -180 355 -400c0 -105 -90 -195 -275 -195c-115 0 -180 65 -180 65
c-20 -35 -55 -55 -55 -55h-25v190h40s45 -175 200 -175z" />
    <glyph glyph-name="afii10104" unicode="&#x457;" horiz-adv-x="340" 
d="M40 500h130c60 0 90 -30 90 -90v-380l60 -15v-15h-280v15l60 15v440l-60 15v15zM8 630c0 40 30 70 70 70s70 -30 70 -70s-30 -70 -70 -70s-70 30 -70 70zM193 630c0 40 30 70 70 70s70 -30 70 -70s-30 -70 -70 -70s-70 30 -70 70z" />
    <glyph glyph-name="afii10055" unicode="&#x406;" horiz-adv-x="385" 
d="M110 670l-60 15v15h285v-15l-60 -15v-640l60 -15v-15h-285v15l60 15v640z" />
    <glyph glyph-name="afii10103" unicode="&#x456;" horiz-adv-x="340" 
d="M95 625c0 45 40 85 85 85s85 -40 85 -85s-40 -85 -85 -85s-85 40 -85 85zM40 500h130c60 0 90 -30 90 -90v-380l60 -15v-15h-280v15l60 15v440l-60 15v15z" />
    <glyph glyph-name="afii10056" unicode="&#x407;" horiz-adv-x="385" 
d="M110 670l-60 15v15h285v-15l-60 -15v-640l60 -15v-15h-285v15l60 15v640zM30 844c0 40 30 70 70 70s70 -30 70 -70s-30 -70 -70 -70s-70 30 -70 70zM215 844c0 40 30 70 70 70s70 -30 70 -70s-30 -70 -70 -70s-70 30 -70 70z" />
    <glyph glyph-name="afii10061" unicode="&#x40c;" horiz-adv-x="710" 
d="M390 380h25c95 0 135 -40 150 -85l90 -265l50 -15v-15h-120c-75 0 -108 35 -125 85l-95 275h-90v-330l60 -15v-15h-285v15l60 15v640l-60 15v15h285v-15l-60 -15v-285h50c50 0 84 35 100 95l35 130c16 60 55 100 105 100c60 0 100 -40 100 -90s-35 -85 -80 -85
c-20 0 -40 5 -40 5v140c-21 -5 -44 -30 -55 -70l-35 -130c-21 -80 -65 -100 -65 -100zM380 884h130l-135 -150h-35z" />
    <glyph glyph-name="afii10109" unicode="&#x45c;" horiz-adv-x="625" 
d="M350 270h30c85 0 125 -40 140 -85l50 -155l50 -15v-15h-105c-75 0 -115 40 -130 85l-55 165h-70v-220l60 -15v-15h-280v15l60 15v440l-60 15v15h280v-15l-60 -15v-195h35c40 0 70 30 80 65l25 90c14 50 45 80 90 80c60 0 95 -35 95 -90c0 -50 -30 -80 -75 -80
c-20 0 -40 5 -40 5v135c-20 -5 -32 -20 -40 -50l-25 -90c-15 -55 -55 -70 -55 -70zM330 700h130l-135 -150h-35z" />
    <glyph glyph-name="afii10052" unicode="&#x403;" horiz-adv-x="610" 
d="M335 0h-285v15l60 15v640l-60 15v15h535v-180h-30s-65 50 -65 155h-215v-645l60 -15v-15zM340 904h130l-135 -150h-35z" />
    <glyph glyph-name="afii10100" unicode="&#x453;" horiz-adv-x="530" 
d="M100 470l-60 15v15h465v-175h-30s-65 55 -65 150h-150v-445l60 -15v-15h-280v15l60 15v440zM300 700h130l-135 -150h-35z" />
    <glyph glyph-name="afii10050" unicode="&#x490;" horiz-adv-x="590" 
d="M585 675h-310v-645l60 -15v-15h-285v15l60 15v640l-60 15v15h440c0 105 65 155 65 155h30v-180z" />
    <glyph glyph-name="afii10098" unicode="&#x491;" horiz-adv-x="510" 
d="M505 475h-245v-445l60 -15v-15h-280v15l60 15v440l-60 15v15h370c0 95 65 150 65 150h30v-175z" />
    <glyph glyph-name="afii10193" unicode="&#x45f;" horiz-adv-x="670" 
d="M40 0v15l60 15v440l-60 15v15h280v-15l-60 -15v-445h150v445l-60 15v15h280v-15l-60 -15v-440l60 -15v-15h-245c0 -100 -35 -160 -35 -160h-30s-35 60 -35 160h-245z" />
    <glyph glyph-name="afii10145" unicode="&#x40f;" horiz-adv-x="765" 
d="M330 0h-280v15l60 15v640l-60 15v15h285v-15l-60 -15v-645h215v645l-60 15v15h285v-15l-60 -15v-640l60 -15v-15h-280c0 -100 -35 -165 -35 -165h-35s-35 65 -35 165z" />
    <glyph glyph-name="afii10099" unicode="&#x452;" horiz-adv-x="655" 
d="M425 90v230c0 90 -40 130 -75 130c-60 0 -90 -80 -90 -80v-340l60 -15v-15h-280v15l60 15v515h-65v25h65v100l-60 15v15h130c60 0 90 -30 90 -90v-40h125v-25h-125v-125s40 65 130 65c115 0 195 -80 195 -165v-230c0 -70 -50 -120 -220 -120v20c30 0 60 30 60 100z" />
    <glyph glyph-name="afii10108" unicode="&#x45b;" horiz-adv-x="665" 
d="M385 545h-125v-125s40 65 130 65c115 0 195 -80 195 -165v-290l60 -15v-15h-130c-60 0 -90 30 -90 90v230c0 90 -40 130 -75 130c-60 0 -90 -80 -90 -80v-340l60 -15v-15h-280v15l60 15v515h-65v25h65v100l-60 15v15h130c60 0 90 -30 90 -90v-40h125v-25z" />
    <glyph glyph-name="afii10060" unicode="&#x40b;" horiz-adv-x="805" 
d="M360 380v-350l60 -15v-15h-285v15l60 15v645h-75c0 -105 -65 -155 -65 -155h-30v180h515v-180h-30s-65 50 -65 155h-85v-270s50 30 130 30c170 0 240 -70 240 -175v-230l60 -15v-15h-285v15l60 15v230c0 110 -40 150 -115 150c-50 0 -90 -30 -90 -30z" />
    <glyph glyph-name="afii10051" unicode="&#x402;" horiz-adv-x="770" 
d="M565 90v170c0 110 -40 150 -115 150c-50 0 -90 -30 -90 -30v-350l60 -15v-15h-285v15l60 15v645h-75c0 -105 -65 -155 -65 -155h-30v180h515v-180h-30s-65 50 -65 155h-85v-270s50 30 130 30c170 0 240 -70 240 -175v-170c0 -70 -50 -120 -225 -120v20c30 0 60 30 60 100
z" />
    <glyph glyph-name="afii10059" unicode="&#x40a;" horiz-adv-x="1055" 
d="M655 400h65c230 0 310 -80 310 -200s-80 -200 -310 -200h-290v15l60 15v345h-215v-345l60 -15v-15h-285v15l60 15v640l-60 15v15h285v-15l-60 -15v-270h215v270l-60 15v15h285v-15l-60 -15v-270zM720 375h-65v-350h65c80 0 140 60 140 175s-60 175 -140 175z" />
    <glyph glyph-name="afii10107" unicode="&#x45a;" horiz-adv-x="900" 
d="M570 290h50c195 0 260 -65 260 -145s-65 -145 -260 -145h-270v15l60 15v230h-150v-230l60 -15v-15h-280v15l60 15v440l-60 15v15h280v-15l-60 -15v-185h150v185l-60 15v15h280v-15l-60 -15v-180zM620 265h-50v-240h50c55 0 95 40 95 120s-40 120 -95 120z" />
    <glyph glyph-name="afii10058" unicode="&#x409;" horiz-adv-x="1000" 
d="M90 -15c-60 0 -100 40 -100 90s35 85 80 85c20 0 40 -5 40 -5v-140c35 10 76 50 85 235l20 415l-70 20v15h515v-15l-60 -15v-250h65c230 0 310 -80 310 -210s-80 -210 -310 -210h-290v15l60 15v645h-190l-20 -425c-10 -205 -70 -265 -135 -265zM665 395h-65v-370h65
c80 0 140 60 140 185s-60 185 -140 185z" />
    <glyph glyph-name="afii10106" unicode="&#x459;" horiz-adv-x="855" 
d="M525 300h50c195 0 260 -65 260 -150s-65 -150 -260 -150h-270v15l60 15v445h-145l-20 -305c-9 -135 -60 -185 -115 -185c-60 0 -95 35 -95 90c0 45 35 80 75 80c20 0 40 -5 40 -5v-135c25 10 57 40 65 155l20 295l-70 20v15h465v-15l-60 -15v-170zM575 275h-50v-250h50
c55 0 95 40 95 125s-40 125 -95 125z" />
    <glyph glyph-name="afii10102" unicode="&#x455;" horiz-adv-x="540" 
d="M275 -15c-95 0 -150 55 -150 55c-20 -30 -55 -45 -55 -45h-25v170h40s45 -155 170 -155c55 0 85 30 85 80c0 110 -290 120 -290 290c0 75 60 135 210 135c80 0 136 -55 136 -55c20 30 55 45 55 45h25v-170h-40s-46 155 -156 155c-35 0 -65 -30 -65 -70
c0 -120 290 -130 290 -290c0 -85 -60 -145 -230 -145z" />
    <glyph glyph-name="afii10085" unicode="&#x443;" 
d="M365 184l105 271l-75 30v15h185v-15l-80 -30l-200 -515c-43 -110 -90 -155 -150 -155s-95 35 -95 90c0 50 30 80 75 80c20 0 40 -5 40 -5v-135c35 5 64 35 100 125l20 50l-260 480l-50 15v15h125c75 0 108 -35 135 -85z" />
    <glyph glyph-name="afii10087" unicode="&#x445;" horiz-adv-x="555" 
d="M90 45l124 159l-169 266l-50 15v15h135c70 0 103 -35 135 -85l51 -81l94 121l-75 30v15h190v-15l-80 -30l-114 -145l179 -280l50 -15v-15h-135c-70 0 -103 35 -135 85l-60 94l-105 -134l75 -30v-15h-190v15z" />
    </font>
</defs>
</svg>
