<?xml version="1.0" standalone="no"?>
<!DOCTYPE svg PUBLIC "-//W3C//DTD SVG 1.1//EN" "http://www.w3.org/Graphics/SVG/1.1/DTD/svg11.dtd" >
<svg xmlns="http://www.w3.org/2000/svg" xmlns:xlink="http://www.w3.org/1999/xlink" version="1.1">
<metadata>
Created by FontForge 20230101 at Thu Jul 22 12:03:27 2021
 By Glenn Lewis
Copyright 2011 The Comfortaa Project Authors (https://github.com/alexeiva/comfortaa), with Reserved Font Name "Comfortaa".
</metadata>
<defs>
<font id="Comfortaa-Medium" horiz-adv-x="676" >
  <font-face 
    font-family="Comfortaa Medium"
    font-weight="500"
    font-stretch="normal"
    units-per-em="1000"
    panose-1="0 0 0 0 0 0 0 0 0 0"
    ascent="800"
    descent="-200"
    x-height="545"
    cap-height="781"
    bbox="-211 -302 1275 1270"
    underline-thickness="50"
    underline-position="-125"
    unicode-range="U+000D-FB02"
  />
<missing-glyph horiz-adv-x="625" 
d="M72 0q-14 0 -24 9.5t-10 23.5v715q0 14 10 23.5t24 9.5h483q14 0 23.5 -9.5t9.5 -23.5v-715q0 -14 -9.5 -23.5t-23.5 -9.5h-483zM313 130q-19 0 -32.5 13t-13.5 32t13.5 32t32.5 13q18 0 31.5 -13t13.5 -32q0 -18 -13 -31.5t-32 -13.5zM99 60h429v661h-429v-661zM313 254
q-15 0 -24.5 9.5t-9.5 23.5q0 29 14 59t37 51q19 17 35.5 33t26.5 35.5t10 48.5q0 35 -24.5 58t-61.5 23q-43 0 -67.5 -25t-24.5 -68q0 -14 -9.5 -23t-24.5 -9q-13 0 -23 9t-10 23q0 46 20.5 81t56 54.5t82.5 19.5q44 0 78 -18.5t53.5 -51t19.5 -74.5q0 -37 -12.5 -63.5
t-33.5 -47.5t-46 -43q-14 -12 -21.5 -31.5t-7.5 -40.5q0 -14 -9.5 -23.5t-23.5 -9.5z" />
    <glyph glyph-name="f_f" unicode="ff" horiz-adv-x="733" 
d="M155 0q-16 0 -28 11.5t-12 31.5v502q0 71 25 124t73.5 82.5t115.5 29.5q19 0 31 -11t12 -27q0 -17 -12 -28t-31 -11q-42 0 -71 -19.5t-44 -54t-15 -79.5v-508q0 -20 -11.5 -31.5t-32.5 -11.5zM57 454q-18 0 -28.5 10.5t-10.5 25.5q0 16 10.5 26.5t28.5 10.5h257
q17 0 27.5 -10.5t10.5 -26.5q0 -15 -10.5 -25.5t-27.5 -10.5h-257zM521 0q-16 0 -28 11.5t-12 31.5v502q0 71 25 124t73.5 82.5t115.5 29.5q19 0 31 -11t12 -27q0 -17 -12 -28t-31 -11q-42 0 -71 -19.5t-44 -54t-15 -79.5v-508q0 -20 -11.5 -31.5t-32.5 -11.5zM423 454
q-18 0 -28.5 10.5t-10.5 25.5q0 16 10.5 26.5t28.5 10.5h257q17 0 27.5 -10.5t10.5 -26.5q0 -15 -10.5 -25.5t-27.5 -10.5h-257z" />
    <glyph glyph-name="f_f_i" unicode="ffi" horiz-adv-x="1026" 
d="M155 0q-16 0 -28 11.5t-12 31.5v502q0 71 25 124t73.5 82.5t115.5 29.5q19 0 31 -11t12 -27q0 -17 -12 -28t-31 -11q-42 0 -71 -19.5t-44 -54t-15 -79.5v-508q0 -20 -11.5 -31.5t-32.5 -11.5zM57 454q-18 0 -28.5 10.5t-10.5 25.5q0 16 10.5 26.5t28.5 10.5h257
q17 0 27.5 -10.5t10.5 -26.5q0 -15 -10.5 -25.5t-27.5 -10.5h-257zM521 0q-16 0 -28 11.5t-12 31.5v502q0 71 25 124t73.5 82.5t115.5 29.5q19 0 31 -11t12 -27q0 -17 -12 -28t-31 -11q-42 0 -71 -19.5t-44 -54t-15 -79.5v-508q0 -20 -11.5 -31.5t-32.5 -11.5zM423 454
q-18 0 -28.5 10.5t-10.5 25.5q0 16 10.5 26.5t28.5 10.5h257q17 0 27.5 -10.5t10.5 -26.5q0 -15 -10.5 -25.5t-27.5 -10.5h-257zM880 0q-19 0 -31 11.5t-12 31.5v461q0 20 12 31.5t31 11.5t30.5 -11.5t11.5 -31.5v-461q0 -20 -11.5 -31.5t-30.5 -11.5zM879 646
q-24 0 -41 17.5t-17 41.5q0 25 17.5 41t40.5 16t40.5 -16t17.5 -41q0 -24 -17 -41.5t-41 -17.5z" />
    <glyph glyph-name="f_f_l" unicode="ffl" horiz-adv-x="1020" 
d="M155 0q-16 0 -28 11.5t-12 31.5v502q0 71 25 124t73.5 82.5t115.5 29.5q19 0 31 -11t12 -27q0 -17 -12 -28t-31 -11q-42 0 -71 -19.5t-44 -54t-15 -79.5v-508q0 -20 -11.5 -31.5t-32.5 -11.5zM57 454q-18 0 -28.5 10.5t-10.5 25.5q0 16 10.5 26.5t28.5 10.5h257
q17 0 27.5 -10.5t10.5 -26.5q0 -15 -10.5 -25.5t-27.5 -10.5h-257zM521 0q-16 0 -28 11.5t-12 31.5v502q0 71 25 124t73.5 82.5t115.5 29.5q19 0 31 -11t12 -27q0 -17 -12 -28t-31 -11q-42 0 -71 -19.5t-44 -54t-15 -79.5v-508q0 -20 -11.5 -31.5t-32.5 -11.5zM423 454
q-18 0 -28.5 10.5t-10.5 25.5q0 16 10.5 26.5t28.5 10.5h257q17 0 27.5 -10.5t10.5 -26.5q0 -15 -10.5 -25.5t-27.5 -10.5h-257zM945 0q-42 0 -74 22.5t-50 62.5t-18 92v562q0 19 11.5 30.5t30.5 11.5q18 0 29.5 -11.5t11.5 -30.5v-562q0 -41 16.5 -67.5t42.5 -26.5h25
q16 0 26 -11.5t10 -29.5q0 -19 -14.5 -30.5t-37.5 -11.5h-9z" />
    <glyph glyph-name="fi" unicode="fi" horiz-adv-x="614" 
d="M157 0q-18 0 -30 12t-12 31v507q0 69 25 122t80.5 83t147.5 30q42 0 78 -9.5t57.5 -27t21.5 -41.5q0 -43 -50 -43q-19 0 -33.5 8.5t-29.5 20t-32.5 20t-41.5 8.5q-39 0 -70.5 -15.5t-50 -53t-18.5 -102.5v-507q0 -19 -12 -31t-30 -12zM57 454q-18 0 -28.5 10.5
t-10.5 25.5q0 16 10.5 26.5t28.5 10.5h258q17 0 27.5 -10.5t10.5 -26.5q0 -15 -10.5 -25.5t-27.5 -10.5h-258zM474 0q-20 0 -31.5 11.5t-11.5 31.5v461q0 20 11.5 31.5t31.5 11.5q18 0 30 -11.5t12 -31.5v-461q0 -20 -12 -31.5t-30 -11.5z" />
    <glyph glyph-name="fl" unicode="fl" horiz-adv-x="644" 
d="M157 0q-18 0 -30 12t-12 31v515q0 62 24 113t73 81t123 29q21 0 46 -3.5t52 -11.5q26 -7 38.5 -18t12.5 -29q0 -22 -13.5 -29.5t-37.5 -0.5q-27 8 -51.5 11.5t-45.5 3.5q-64 0 -100.5 -36t-36.5 -108v-517q0 -19 -12 -31t-30 -12zM57 454q-18 0 -28.5 10.5t-10.5 25.5
q0 16 10.5 26.5t28.5 10.5h245q18 0 28.5 -10.5t10.5 -26.5q0 -15 -10.5 -25.5t-28.5 -10.5h-245zM568 0q-42 0 -74 22.5t-50.5 62.5t-18.5 92v562q0 19 12 30.5t31 11.5q18 0 29.5 -11.5t11.5 -30.5v-562q0 -41 16.5 -67.5t42.5 -26.5h25q16 0 26 -11.5t10 -29.5
q0 -19 -14.5 -30.5t-37.5 -11.5h-9z" />
    <glyph glyph-name=".notdef" horiz-adv-x="625" 
d="M72 0q-14 0 -24 9.5t-10 23.5v715q0 14 10 23.5t24 9.5h483q14 0 23.5 -9.5t9.5 -23.5v-715q0 -14 -9.5 -23.5t-23.5 -9.5h-483zM313 130q-19 0 -32.5 13t-13.5 32t13.5 32t32.5 13q18 0 31.5 -13t13.5 -32q0 -18 -13 -31.5t-32 -13.5zM99 60h429v661h-429v-661zM313 254
q-15 0 -24.5 9.5t-9.5 23.5q0 29 14 59t37 51q19 17 35.5 33t26.5 35.5t10 48.5q0 35 -24.5 58t-61.5 23q-43 0 -67.5 -25t-24.5 -68q0 -14 -9.5 -23t-24.5 -9q-13 0 -23 9t-10 23q0 46 20.5 81t56 54.5t82.5 19.5q44 0 78 -18.5t53.5 -51t19.5 -74.5q0 -37 -12.5 -63.5
t-33.5 -47.5t-46 -43q-14 -12 -21.5 -31.5t-7.5 -40.5q0 -14 -9.5 -23.5t-23.5 -9.5z" />
    <glyph glyph-name="A" unicode="A" horiz-adv-x="703" 
d="M61 0q-25 0 -36.5 20.5t-2.5 41.5l290 690q13 29 42 29t40 -29l291 -691q10 -22 -2.5 -41.5t-35.5 -19.5q-13 0 -24 7t-17 19l-266 652h30l-270 -652q-5 -13 -16 -19.5t-23 -6.5zM123 182l33 73h401l34 -73h-468z" />
    <glyph glyph-name="Aacute" unicode="&#xc1;" horiz-adv-x="703" 
d="M61 0q-25 0 -36.5 20.5t-2.5 41.5l290 690q13 29 42 29t40 -29l291 -691q10 -22 -2.5 -41.5t-35.5 -19.5q-13 0 -24 7t-17 19l-266 652h30l-270 -652q-5 -13 -16 -19.5t-23 -6.5zM123 182l33 73h401l34 -73h-468zM348 865q-18 0 -30 12.5t-12 29.5q0 18 9 29l109 108
q12 13 30 13t30 -12.5t12 -31.5q0 -8 -2.5 -15.5t-9.5 -13.5l-107 -108q-11 -11 -29 -11z" />
    <glyph glyph-name="Abreve" unicode="&#x102;" horiz-adv-x="703" 
d="M61 0q-25 0 -36.5 20.5t-2.5 41.5l290 690q13 29 42 29t40 -29l291 -691q10 -22 -2.5 -41.5t-35.5 -19.5q-13 0 -24 7t-17 19l-266 652h30l-270 -652q-5 -13 -16 -19.5t-23 -6.5zM123 182l33 73h401l34 -73h-468zM351 857q-43 0 -79 16t-57.5 42.5t-21.5 60.5
q0 18 11.5 30.5t29.5 12.5q16 0 28.5 -10t12.5 -27q0 -23 22.5 -39t53.5 -16q36 0 56.5 16t20.5 39q0 17 12.5 27t29.5 10q18 0 29 -12.5t11 -30.5q-1 -35 -23 -62t-57.5 -42t-78.5 -15z" />
    <glyph glyph-name="uni1EAE" unicode="&#x1eae;" horiz-adv-x="703" 
d="M61 0q-25 0 -36.5 20.5t-2.5 41.5l290 690q13 29 42 29t40 -29l291 -691q10 -22 -2.5 -41.5t-35.5 -19.5q-13 0 -24 7t-17 19l-266 652h30l-270 -652q-5 -13 -16 -19.5t-23 -6.5zM123 182l33 73h401l34 -73h-468zM351 857q-43 0 -79 16t-57.5 43t-21.5 60q0 18 11.5 30.5
t29.5 12.5q16 0 28 -10t12 -27q0 -23 23 -39t54 -16q36 0 56.5 16t20.5 39q0 17 12.5 27t29.5 10t28.5 -12.5t11.5 -30.5q-1 -35 -23 -62t-57.5 -42t-78.5 -15zM348 1035q-18 0 -30 12t-12 30q0 17 9 29l109 108q12 13 30 13t30 -13t12 -31q0 -8 -2.5 -15.5t-9.5 -13.5
l-107 -108q-11 -11 -29 -11z" />
    <glyph glyph-name="uni1EB6" unicode="&#x1eb6;" horiz-adv-x="703" 
d="M61 0q-25 0 -36.5 20.5t-2.5 41.5l290 690q13 29 42 29t40 -29l291 -691q10 -22 -2.5 -41.5t-35.5 -19.5q-13 0 -24 7t-17 19l-266 652h30l-270 -652q-5 -13 -16 -19.5t-23 -6.5zM123 182l33 73h401l34 -73h-468zM351 857q-43 0 -79 16t-57.5 42.5t-21.5 60.5
q0 18 11.5 30.5t29.5 12.5q16 0 28.5 -10t12.5 -27q0 -23 22.5 -39t53.5 -16q36 0 56.5 16t20.5 39q0 17 12.5 27t29.5 10q18 0 29 -12.5t11 -30.5q-1 -35 -23 -62t-57.5 -42t-78.5 -15zM352 -214q-24 0 -41 17.5t-17 41.5q0 25 17.5 41t40.5 16t40.5 -16t17.5 -41
q0 -24 -17 -41.5t-41 -17.5z" />
    <glyph glyph-name="uni1EB0" unicode="&#x1eb0;" horiz-adv-x="703" 
d="M61 0q-25 0 -36.5 20.5t-2.5 41.5l290 690q13 29 42 29t40 -29l291 -691q10 -22 -2.5 -41.5t-35.5 -19.5q-13 0 -24 7t-17 19l-266 652h30l-270 -652q-5 -13 -16 -19.5t-23 -6.5zM123 182l33 73h401l34 -73h-468zM351 857q-43 0 -79 16t-57.5 43t-21.5 60q0 18 11.5 30.5
t29.5 12.5q16 0 28 -10t12 -27q0 -23 23 -39t54 -16q36 0 56.5 16t20.5 39q0 17 12.5 27t29.5 10t28.5 -12.5t11.5 -30.5q-1 -35 -23 -62t-57.5 -42t-78.5 -15zM350 1039q-17 0 -29 12l-108 107q-11 12 -11 30t12 30.5t30 12.5q17 0 31 -13l107 -108q11 -10 11 -28
q0 -19 -12 -31t-31 -12z" />
    <glyph glyph-name="uni1EB2" unicode="&#x1eb2;" horiz-adv-x="703" 
d="M61 0q-25 0 -36.5 20.5t-2.5 41.5l290 690q13 29 42 29t40 -29l291 -691q10 -22 -2.5 -41.5t-35.5 -19.5q-13 0 -24 7t-17 19l-266 652h30l-270 -652q-5 -13 -16 -19.5t-23 -6.5zM123 182l33 73h401l34 -73h-468zM351 857q-43 0 -79 16t-57.5 43t-21.5 60q0 18 11.5 30.5
t29.5 12.5q16 0 28 -10t12 -27q0 -23 23 -39t54 -16q36 0 56.5 16t20.5 39q0 17 12.5 27t29.5 10t28.5 -12.5t11.5 -30.5q-1 -35 -23 -62t-57.5 -42t-78.5 -15zM351 1003q-16 0 -27.5 11t-11.5 28v26q0 33 35 42l25 5q20 5 30.5 15t10.5 28q0 21 -13.5 32t-34.5 11
q-12 0 -24 -5t-21 -11q-4 -5 -12 -7t-15 -2q-13 0 -23.5 8.5t-10.5 24.5q0 18 14 29q19 15 41 23.5t50 8.5q52 0 85.5 -30.5t33.5 -77.5q0 -48 -31 -71t-74 -29l11 -9q0 -25 -11 -37.5t-27 -12.5z" />
    <glyph glyph-name="uni1EB4" unicode="&#x1eb4;" horiz-adv-x="703" 
d="M61 0q-25 0 -36.5 20.5t-2.5 41.5l290 690q13 29 42 29t40 -29l291 -691q10 -22 -2.5 -41.5t-35.5 -19.5q-13 0 -24 7t-17 19l-266 652h30l-270 -652q-5 -13 -16 -19.5t-23 -6.5zM123 182l33 73h401l34 -73h-468zM351 857q-43 0 -78.5 16t-57.5 43t-22 60q0 18 11.5 30.5
t29.5 12.5q16 0 28.5 -10t12.5 -27q0 -23 22.5 -39t53.5 -16q36 0 56.5 16t20.5 39q0 17 12.5 27t29.5 10q18 0 29 -12.5t11 -30.5q-1 -35 -23 -62t-57.5 -42t-78.5 -15zM418 1042q-25 0 -45 11.5t-36 26.5q-13 12 -22 19t-21 7q-11 0 -19 -9.5t-17 -24.5q-7 -14 -21 -20
t-28 1q-14 6 -19.5 19.5t2.5 29.5q20 38 43.5 55.5t53.5 17.5q32 0 49.5 -13.5t32.5 -25.5q15 -14 23.5 -18.5t15.5 -4.5q13 0 24 22q8 14 22 20.5t27 1.5q17 -7 23 -21t-3 -29q-17 -35 -38 -50t-47 -15z" />
    <glyph glyph-name="Acircumflex" unicode="&#xc2;" horiz-adv-x="703" 
d="M61 0q-25 0 -36.5 20.5t-2.5 41.5l290 690q13 29 42 29t40 -29l291 -691q10 -22 -2.5 -41.5t-35.5 -19.5q-13 0 -24 7t-17 19l-266 652h30l-270 -652q-5 -13 -16 -19.5t-23 -6.5zM123 182l33 73h401l34 -73h-468zM238 862q-19 0 -31.5 10t-12.5 27q0 23 21 37l116 77
q9 5 21 5q7 0 12 -1.5t10 -3.5l115 -77q21 -14 21 -37q0 -16 -12 -26.5t-31 -10.5q-7 0 -13.5 2t-12.5 7l-89 62l-89 -62q-12 -9 -25 -9z" />
    <glyph glyph-name="uni1EA4" unicode="&#x1ea4;" horiz-adv-x="703" 
d="M61 0q-25 0 -36.5 20.5t-2.5 41.5l290 690q13 29 42 29t40 -29l291 -691q10 -22 -2.5 -41.5t-35.5 -19.5q-13 0 -24 7t-17 19l-266 652h30l-270 -652q-5 -13 -16 -19.5t-23 -6.5zM123 182l33 73h401l34 -73h-468zM237 862q-18 0 -30.5 10t-12.5 27q0 23 21 37l116 77
q9 5 21 5q6 0 11.5 -1.5t10.5 -3.5l115 -77q21 -14 21 -37q0 -16 -12 -26.5t-31 -10.5q-8 0 -14 2t-12 7l-89 62l-89 -62q-12 -9 -26 -9zM447 1026q-18 0 -30.5 12t-12.5 31q0 17 10 28l108 109q13 12 30 12q20 0 31.5 -12.5t11.5 -31.5q0 -8 -3 -15.5t-9 -12.5l-108 -109
q-11 -11 -28 -11z" />
    <glyph glyph-name="uni1EAC" unicode="&#x1eac;" horiz-adv-x="703" 
d="M61 0q-25 0 -36.5 20.5t-2.5 41.5l290 690q13 29 42 29t40 -29l291 -691q10 -22 -2.5 -41.5t-35.5 -19.5q-13 0 -24 7t-17 19l-266 652h30l-270 -652q-5 -13 -16 -19.5t-23 -6.5zM123 182l33 73h401l34 -73h-468zM238 862q-19 0 -31.5 10t-12.5 27q0 23 21 37l116 77
q9 5 21 5q7 0 12 -1.5t10 -3.5l115 -77q21 -14 21 -37q0 -16 -12 -26.5t-31 -10.5q-7 0 -13.5 2t-12.5 7l-89 62l-89 -62q-12 -9 -25 -9zM352 -214q-24 0 -41 17.5t-17 41.5q0 25 17.5 41t40.5 16t40.5 -16t17.5 -41q0 -24 -17 -41.5t-41 -17.5z" />
    <glyph glyph-name="uni1EA6" unicode="&#x1ea6;" horiz-adv-x="703" 
d="M61 0q-25 0 -36.5 20.5t-2.5 41.5l290 690q13 29 42 29t40 -29l291 -691q10 -22 -2.5 -41.5t-35.5 -19.5q-13 0 -24 7t-17 19l-266 652h30l-270 -652q-5 -13 -16 -19.5t-23 -6.5zM123 182l33 73h401l34 -73h-468zM237 862q-18 0 -30.5 10t-12.5 27q0 23 21 37l116 77
q9 5 21 5q6 0 11.5 -1.5t10.5 -3.5l115 -77q21 -14 21 -37q0 -16 -12 -26.5t-31 -10.5q-8 0 -14 2t-12 7l-89 62l-89 -62q-12 -9 -26 -9zM449 1030q-17 0 -28 12l-109 108q-11 11 -11 29q0 19 12 31.5t30 12.5t31 -13l107 -108q11 -11 11 -28q0 -19 -12.5 -31.5t-30.5 -12.5
z" />
    <glyph glyph-name="uni1EA8" unicode="&#x1ea8;" horiz-adv-x="703" 
d="M61 0q-25 0 -36.5 20.5t-2.5 41.5l290 690q13 29 42 29t40 -29l291 -691q10 -22 -2.5 -41.5t-35.5 -19.5q-13 0 -24 7t-17 19l-266 652h30l-270 -652q-5 -13 -16 -19.5t-23 -6.5zM123 182l33 73h401l34 -73h-468zM241 862q-18 0 -30.5 10t-12.5 27q0 23 21 37l116 77
q9 5 21 5q6 0 11.5 -1.5t10.5 -3.5l115 -77q21 -14 21 -37q0 -16 -12 -26.5t-31 -10.5q-8 0 -14 2t-12 7l-89 62l-89 -62q-12 -9 -26 -9zM454 994q-16 0 -27 11.5t-11 27.5v26q0 35 34 42l25 6q20 4 30.5 15t10.5 27q0 22 -13.5 33t-34.5 11q-13 0 -24.5 -4.5t-19.5 -11.5
q-6 -5 -13.5 -7.5t-14.5 -2.5q-14 0 -23.5 8.5t-9.5 24.5q0 19 13 30q18 15 40.5 23t50.5 8q51 0 85 -30t34 -77q0 -48 -31 -71.5t-74 -29.5l11 -8q0 -25 -11 -38t-27 -13z" />
    <glyph glyph-name="uni1EAA" unicode="&#x1eaa;" horiz-adv-x="703" 
d="M61 0q-25 0 -36.5 20.5t-2.5 41.5l290 690q13 29 42 29t40 -29l291 -691q10 -22 -2.5 -41.5t-35.5 -19.5q-13 0 -24 7t-17 19l-266 652h30l-270 -652q-5 -13 -16 -19.5t-23 -6.5zM123 182l33 73h401l34 -73h-468zM240 862q-18 0 -30.5 10t-12.5 27q0 23 21 37l116 77
q9 5 21 5q7 0 12 -1.5t10 -3.5l115 -77q21 -14 21 -37q0 -16 -12 -26.5t-31 -10.5q-8 0 -14 2t-12 7l-89 62l-89 -62q-12 -9 -26 -9zM414 1045q-26 0 -46 11.5t-35 26.5q-14 12 -23 19t-20 7t-19 -9t-17 -25q-8 -14 -21.5 -19.5t-27.5 0.5t-19.5 20t2.5 29q19 39 42.5 56.5
t54.5 17.5t49 -14t33 -26q15 -13 23 -17.5t15 -4.5q14 0 24 21q9 14 22.5 20.5t27.5 1.5q17 -7 23 -21t-3 -29q-18 -34 -38.5 -49.5t-46.5 -15.5z" />
    <glyph glyph-name="uni0200" unicode="&#x200;" horiz-adv-x="703" 
d="M61 0q-25 0 -36.5 20.5t-2.5 41.5l290 690q13 29 42 29t40 -29l291 -691q10 -22 -2.5 -41.5t-35.5 -19.5q-13 0 -24 7t-17 19l-266 652h30l-270 -652q-5 -13 -16 -19.5t-23 -6.5zM123 182l33 73h401l34 -73h-468zM457 856q-20 0 -31 21l-59 126q-4 7 -4 16q0 16 12.5 29
t31.5 13q13 0 24.5 -7.5t15.5 -19.5l40 -132q3 -6 3 -13q0 -16 -10.5 -24.5t-22.5 -8.5zM309 856q-21 0 -32 21l-59 126q-2 4 -2.5 8t-0.5 8q0 16 12 29t31 13q13 0 24 -7.5t14 -19.5l43 -132q1 -3 1.5 -6.5t0.5 -6.5q0 -16 -10.5 -24.5t-21.5 -8.5z" />
    <glyph glyph-name="Adieresis" unicode="&#xc4;" horiz-adv-x="703" 
d="M61 0q-25 0 -36.5 20.5t-2.5 41.5l290 690q13 29 42 29t40 -29l291 -691q10 -22 -2.5 -41.5t-35.5 -19.5q-13 0 -24 7t-17 19l-266 652h30l-270 -652q-5 -13 -16 -19.5t-23 -6.5zM123 182l33 73h401l34 -73h-468zM246 876q-24 0 -40.5 16t-16.5 41q0 22 16.5 39t40.5 17
q23 0 40 -17t17 -39q0 -25 -17 -41t-40 -16zM459 876q-24 0 -40 16t-16 41q0 22 16 39t40 17q23 0 40 -17t17 -39q0 -25 -17 -41t-40 -16z" />
    <glyph glyph-name="uni1EA0" unicode="&#x1ea0;" horiz-adv-x="703" 
d="M61 0q-25 0 -36.5 20.5t-2.5 41.5l290 690q13 29 42 29t40 -29l291 -691q10 -22 -2.5 -41.5t-35.5 -19.5q-13 0 -24 7t-17 19l-266 652h30l-270 -652q-5 -13 -16 -19.5t-23 -6.5zM123 182l33 73h401l34 -73h-468zM352 -214q-24 0 -41 17.5t-17 41.5q0 25 17.5 41t40.5 16
t40.5 -16t17.5 -41q0 -24 -17 -41.5t-41 -17.5z" />
    <glyph glyph-name="Agrave" unicode="&#xc0;" horiz-adv-x="703" 
d="M61 0q-25 0 -36.5 20.5t-2.5 41.5l290 690q13 29 42 29t40 -29l291 -691q10 -22 -2.5 -41.5t-35.5 -19.5q-13 0 -24 7t-17 19l-266 652h30l-270 -652q-5 -13 -16 -19.5t-23 -6.5zM123 182l33 73h401l34 -73h-468zM351 869q-18 0 -29 12l-109 107q-10 13 -10 30
q0 18 11.5 31t29.5 13t31 -13l107 -109q11 -9 11 -28q0 -18 -12 -30.5t-30 -12.5z" />
    <glyph glyph-name="uni1EA2" unicode="&#x1ea2;" horiz-adv-x="703" 
d="M61 0q-25 0 -36.5 20.5t-2.5 41.5l290 690q13 29 42 29t40 -29l291 -691q10 -22 -2.5 -41.5t-35.5 -19.5q-13 0 -24 7t-17 19l-266 652h30l-270 -652q-5 -13 -16 -19.5t-23 -6.5zM123 182l33 73h401l34 -73h-468zM352 833q-16 0 -27.5 11t-11.5 28v26q0 34 34 42l26 5
q20 5 30.5 15.5t10.5 27.5q0 21 -14 32.5t-34 11.5q-13 0 -24.5 -5t-20.5 -11q-5 -5 -12.5 -7.5t-14.5 -2.5q-14 0 -24 8.5t-10 24.5q0 18 13 29q20 16 42 24t50 8q51 0 84.5 -30.5t33.5 -77.5q0 -48 -31 -71t-74 -29l12 -9q0 -25 -11.5 -37.5t-26.5 -12.5z" />
    <glyph glyph-name="uni0202" unicode="&#x202;" horiz-adv-x="703" 
d="M61 0q-25 0 -36.5 20.5t-2.5 41.5l290 690q13 29 42 29t40 -29l291 -691q10 -22 -2.5 -41.5t-35.5 -19.5q-13 0 -24 7t-17 19l-266 652h30l-270 -652q-5 -13 -16 -19.5t-23 -6.5zM123 182l33 73h401l34 -73h-468zM234 856q-18 0 -29.5 12.5t-11.5 31.5q0 33 21.5 60
t57.5 42.5t80 15.5q42 0 77.5 -15t57.5 -42t23 -62q0 -18 -11.5 -30.5t-28.5 -12.5t-29.5 10.5t-12.5 27.5q0 23 -20.5 38.5t-55.5 15.5q-32 0 -55 -16t-23 -38q0 -17 -12 -27.5t-28 -10.5z" />
    <glyph glyph-name="Amacron" unicode="&#x100;" horiz-adv-x="703" 
d="M61 0q-25 0 -36.5 20.5t-2.5 41.5l290 690q13 29 42 29t40 -29l291 -691q10 -22 -2.5 -41.5t-35.5 -19.5q-13 0 -24 7t-17 19l-266 652h30l-270 -652q-5 -13 -16 -19.5t-23 -6.5zM123 182l33 73h401l34 -73h-468zM224 887q-18 0 -30.5 10.5t-12.5 28.5t12.5 28.5
t30.5 10.5h256q18 0 30.5 -10.5t12.5 -28.5t-12.5 -28.5t-30.5 -10.5h-256z" />
    <glyph glyph-name="Aogonek" unicode="&#x104;" horiz-adv-x="703" 
d="M61 0q-25 0 -36.5 20.5t-2.5 41.5l290 690q13 29 42 29t40 -29l291 -691q10 -22 -2.5 -41.5t-35.5 -19.5q-13 0 -24 7t-17 19l-266 652h30l-270 -652q-5 -13 -16 -19.5t-23 -6.5zM123 182l33 73h401l34 -73h-468zM643 -241q-32 0 -59 16t-43.5 43.5t-16.5 60.5
q0 56 50 98q13 9 20.5 18t11.5 19q12 22 37 22q18 0 30 -11.5t13 -30.5q0 -22 -15.5 -43t-47.5 -44q-7 -5 -10.5 -13t-3.5 -15q0 -14 10 -24t24 -10q5 0 10 1t8 4l34 25q12 8 25 8q19 0 31 -12t12 -31t-15 -34l-39 -25q-31 -22 -66 -22z" />
    <glyph glyph-name="Aring" unicode="&#xc5;" horiz-adv-x="703" 
d="M61 0q-25 0 -36.5 20.5t-2.5 41.5l290 690q13 29 42 29t40 -29l291 -691q10 -22 -2.5 -41.5t-35.5 -19.5q-13 0 -24 7t-17 19l-266 652h30l-270 -652q-5 -13 -16 -19.5t-23 -6.5zM123 182l33 73h401l34 -73h-468zM352 825q-43 0 -72 28.5t-29 72.5q0 43 29 72t72 29
t71.5 -29t28.5 -72t-28 -72t-72 -29zM352 873q23 0 37.5 15.5t14.5 37.5q0 23 -14.5 37.5t-37.5 14.5q-22 0 -37 -14.5t-15 -37.5q0 -22 15 -37.5t37 -15.5z" />
    <glyph glyph-name="Aringacute" unicode="&#x1fa;" horiz-adv-x="703" 
d="M61 0q-25 0 -36.5 20.5t-2.5 41.5l290 690q13 29 42 29t40 -29l291 -691q10 -22 -2.5 -41.5t-35.5 -19.5q-13 0 -24 7t-17 19l-266 652h30l-270 -652q-5 -13 -16 -19.5t-23 -6.5zM123 182l33 73h401l34 -73h-468zM352 825q-43 0 -72 28.5t-29 72.5q0 43 29 72t72 29
t71.5 -29t28.5 -72t-28 -72t-72 -29zM352 873q23 0 37.5 15.5t14.5 37.5q0 23 -14.5 37.5t-37.5 14.5q-22 0 -37 -14.5t-15 -37.5q0 -22 15 -37.5t37 -15.5zM348 1065q-18 0 -30 12.5t-12 29.5q0 18 9 29l109 108q12 13 30 13t30 -12.5t12 -31.5q0 -8 -2.5 -15.5t-9.5 -13.5
l-107 -108q-11 -11 -29 -11z" />
    <glyph glyph-name="Atilde" unicode="&#xc3;" horiz-adv-x="703" 
d="M61 0q-25 0 -36.5 20.5t-2.5 41.5l290 690q13 29 42 29t40 -29l291 -691q10 -22 -2.5 -41.5t-35.5 -19.5q-13 0 -24 7t-17 19l-266 652h30l-270 -652q-5 -13 -16 -19.5t-23 -6.5zM123 182l33 73h401l34 -73h-468zM418 872q-26 0 -46 11.5t-35 26.5q-14 13 -23 19.5
t-20 6.5t-19 -9t-17 -25q-8 -14 -21.5 -19.5t-27.5 0.5q-15 6 -20 20t3 29q19 39 42.5 56.5t54.5 17.5t49 -14t33 -26q14 -13 22.5 -17.5t15.5 -4.5q13 0 24 21q9 14 23 20.5t27 1.5q17 -7 22.5 -21t-2.5 -29q-18 -35 -39 -50t-46 -15z" />
    <glyph glyph-name="AE" unicode="&#xc6;" horiz-adv-x="973" 
d="M63 0q-17 0 -28.5 10t-15 24t4.5 28l420 688q9 15 21.5 23t31.5 8h389q18 0 30 -11.5t12 -29.5q0 -17 -12 -28.5t-30 -11.5h-357v-266h241q18 0 30 -12t12 -29q0 -18 -12 -29.5t-30 -11.5h-241v-271h357q18 0 30 -11.5t12 -28.5q0 -18 -12 -29.5t-30 -11.5h-400
q-18 0 -30.5 12t-12.5 31v139h-248l-93 -156q-14 -26 -39 -26zM240 255h203v381l23 -1z" />
    <glyph glyph-name="AEacute" unicode="&#x1fc;" horiz-adv-x="973" 
d="M63 0q-17 0 -28.5 10t-15 24t4.5 28l420 688q9 15 21.5 23t31.5 8h389q18 0 30 -11.5t12 -29.5q0 -17 -12 -28.5t-30 -11.5h-357v-266h241q18 0 30 -12t12 -29q0 -18 -12 -29.5t-30 -11.5h-241v-271h357q18 0 30 -11.5t12 -28.5q0 -18 -12 -29.5t-30 -11.5h-400
q-18 0 -30.5 12t-12.5 31v139h-248l-93 -156q-14 -26 -39 -26zM240 255h203v381l23 -1zM607 865q-18 0 -30 12.5t-12 29.5q0 18 9 29l109 108q12 13 30 13t30 -12.5t12 -31.5q0 -8 -2.5 -15.5t-9.5 -13.5l-107 -108q-11 -11 -29 -11z" />
    <glyph glyph-name="B" unicode="B" horiz-adv-x="704" 
d="M146 0q-19 0 -32.5 12t-13.5 31v695q0 19 12 31t31 12h242q62 0 111.5 -26t78.5 -70.5t29 -103.5q0 -53 -28.5 -94t-74.5 -64q66 -17 107 -65.5t41 -124.5q0 -69 -31.5 -121t-87 -82t-127.5 -30h-257zM186 81h217q47 0 83.5 18.5t57.5 52t21 81.5q0 44 -21 76t-57.5 49
t-83.5 17h-217v-294zM186 457h199q59 0 97 32t38 92q0 59 -38 89t-97 30h-199v-243z" />
    <glyph glyph-name="C" unicode="C" horiz-adv-x="771" 
d="M451 -10q-81 0 -151.5 31t-124 86t-83 127.5t-29.5 156.5q0 83 29.5 155.5t82.5 127t123.5 86t152.5 31.5q73 0 131 -20.5t113 -66.5q9 -7 11.5 -15.5t0 -16.5t-7.5 -14q-2 -11 -11.5 -17.5t-22.5 -6.5t-26 10q-38 34 -82 50.5t-106 16.5q-63 0 -118.5 -25.5t-97.5 -69.5
t-65.5 -102t-23.5 -123q0 -67 23.5 -125t65.5 -102t97.5 -69t118.5 -25q53 0 101 18t92 51q14 11 28.5 9t25 -12.5t10.5 -28.5q0 -9 -3 -16t-9 -15q-52 -45 -114.5 -65.5t-130.5 -20.5z" />
    <glyph glyph-name="Cacute" unicode="&#x106;" horiz-adv-x="771" 
d="M451 -10q-81 0 -151.5 31t-124 86t-83 127.5t-29.5 156.5q0 83 29.5 155.5t82.5 127t123.5 86t152.5 31.5q73 0 131 -20.5t113 -66.5q9 -7 11.5 -15.5t0 -16.5t-7.5 -14q-2 -11 -11.5 -17.5t-22.5 -6.5t-26 10q-38 34 -82 50.5t-106 16.5q-63 0 -118.5 -25.5t-97.5 -69.5
t-65.5 -102t-23.5 -123q0 -67 23.5 -125t65.5 -102t97.5 -69t118.5 -25q53 0 101 18t92 51q14 11 28.5 9t25 -12.5t10.5 -28.5q0 -9 -3 -16t-9 -15q-52 -45 -114.5 -65.5t-130.5 -20.5zM443 865q-18 0 -30 12.5t-12 29.5q0 18 9 29l109 108q12 13 30 13t30 -12.5t12 -31.5
q0 -8 -2.5 -15.5t-9.5 -13.5l-107 -108q-11 -11 -29 -11z" />
    <glyph glyph-name="Ccaron" unicode="&#x10c;" horiz-adv-x="771" 
d="M451 -10q-81 0 -151.5 31t-124 86t-83 127.5t-29.5 156.5q0 83 29.5 155.5t82.5 127t123.5 86t152.5 31.5q73 0 131 -20.5t113 -66.5q9 -7 11.5 -15.5t0 -16.5t-7.5 -14q-2 -11 -11.5 -17.5t-22.5 -6.5t-26 10q-38 34 -82 50.5t-106 16.5q-63 0 -118.5 -25.5t-97.5 -69.5
t-65.5 -102t-23.5 -123q0 -67 23.5 -125t65.5 -102t97.5 -69t118.5 -25q53 0 101 18t92 51q14 11 28.5 9t25 -12.5t10.5 -28.5q0 -9 -3 -16t-9 -15q-52 -45 -114.5 -65.5t-130.5 -20.5zM447 869q-14 0 -21 6l-116 76q-21 15 -21 36q0 20 21 28.5t48 -10.5l89 -60l89 59
q31 21 50 11.5t19 -28.5q0 -21 -21 -36l-115 -76q-8 -6 -22 -6z" />
    <glyph glyph-name="Ccedilla" unicode="&#xc7;" horiz-adv-x="771" 
d="M451 -10q-81 0 -151.5 31t-124 86t-83 127.5t-29.5 156.5q0 83 29.5 155.5t82.5 127t123.5 86t152.5 31.5q73 0 131 -20.5t113 -66.5q9 -7 11.5 -15.5t0 -16.5t-7.5 -14q-2 -11 -11.5 -17.5t-22.5 -6.5t-26 10q-38 34 -82 50.5t-106 16.5q-63 0 -118.5 -25.5t-97.5 -69.5
t-65.5 -102t-23.5 -123q0 -67 23.5 -125t65.5 -102t97.5 -69t118.5 -25q53 0 101 18t92 51q14 11 28.5 9t25 -12.5t10.5 -28.5q0 -9 -3 -16t-9 -15q-52 -45 -114.5 -65.5t-130.5 -20.5zM438 -233q-56 0 -91.5 23.5t-35.5 53.5q0 16 12 28t28 12q12 0 20.5 -5.5t14.5 -16.5
q8 -13 21 -20t32 -7q22 0 36.5 9.5t14.5 27.5t-11 29t-39 17q-26 5 -37 18t-1 41l15 37q5 16 16.5 25t31.5 9t30.5 -14.5t1.5 -33.5l-15 -36q52 -12 74 -35.5t22 -57.5q0 -28 -18 -51.5t-49.5 -38t-72.5 -14.5z" />
    <glyph glyph-name="Ccircumflex" unicode="&#x108;" horiz-adv-x="771" 
d="M451 -10q-81 0 -151.5 31t-124 86t-83 127.5t-29.5 156.5q0 83 29.5 155.5t82.5 127t123.5 86t152.5 31.5q73 0 131 -20.5t113 -66.5q9 -7 11.5 -15.5t0 -16.5t-7.5 -14q-2 -11 -11.5 -17.5t-22.5 -6.5t-26 10q-38 34 -82 50.5t-106 16.5q-63 0 -118.5 -25.5t-97.5 -69.5
t-65.5 -102t-23.5 -123q0 -67 23.5 -125t65.5 -102t97.5 -69t118.5 -25q53 0 101 18t92 51q14 11 28.5 9t25 -12.5t10.5 -28.5q0 -9 -3 -16t-9 -15q-52 -45 -114.5 -65.5t-130.5 -20.5zM333 862q-19 0 -31.5 10t-12.5 27q0 23 21 37l116 77q9 5 21 5q7 0 12 -1.5t10 -3.5
l115 -77q21 -14 21 -37q0 -16 -12 -26.5t-31 -10.5q-7 0 -13.5 2t-12.5 7l-89 62l-89 -62q-12 -9 -25 -9z" />
    <glyph glyph-name="Cdotaccent" unicode="&#x10a;" horiz-adv-x="771" 
d="M451 -10q-81 0 -151.5 31t-124 86t-83 127.5t-29.5 156.5q0 83 29.5 155.5t82.5 127t123.5 86t152.5 31.5q73 0 131 -20.5t113 -66.5q9 -7 11.5 -15.5t0 -16.5t-7.5 -14q-2 -11 -11.5 -17.5t-22.5 -6.5t-26 10q-38 34 -82 50.5t-106 16.5q-63 0 -118.5 -25.5t-97.5 -69.5
t-65.5 -102t-23.5 -123q0 -67 23.5 -125t65.5 -102t97.5 -69t118.5 -25q53 0 101 18t92 51q14 11 28.5 9t25 -12.5t10.5 -28.5q0 -9 -3 -16t-9 -15q-52 -45 -114.5 -65.5t-130.5 -20.5zM447 880q-24 0 -41 17.5t-17 41.5q0 25 17.5 41t40.5 16t40.5 -16t17.5 -41
q0 -24 -17 -41.5t-41 -17.5z" />
    <glyph glyph-name="D" unicode="D" horiz-adv-x="774" 
d="M143 0q-19 0 -31 12t-12 31v695q0 19 12 31t31 12h180q86 0 157.5 -28.5t123.5 -81t80 -123.5t28 -157t-28 -157.5t-80 -124t-123.5 -81t-157.5 -28.5h-180zM186 77h137q90 0 158.5 40.5t107.5 111.5t39 162t-39 162t-107.5 111t-158.5 40h-137v-627z" />
    <glyph glyph-name="Eth" unicode="&#xd0;" horiz-adv-x="774" 
d="M40 354q-18 0 -29 9.5t-11 27.5t11 27.5t29 9.5h289q18 0 30 -9.5t12 -27.5t-12 -27.5t-30 -9.5h-289zM143 0q-19 0 -31 12t-12 31v695q0 19 12 31t31 12h180q86 0 157.5 -28.5t123.5 -81t80 -123.5t28 -157t-28 -157.5t-80 -124t-123.5 -81t-157.5 -28.5h-180zM186 77
h137q90 0 158.5 40.5t107.5 111.5t39 162t-39 162t-107.5 111t-158.5 40h-137v-627z" />
    <glyph glyph-name="Dcaron" unicode="&#x10e;" horiz-adv-x="774" 
d="M143 0q-19 0 -31 12t-12 31v695q0 19 12 31t31 12h180q86 0 157.5 -28.5t123.5 -81t80 -123.5t28 -157t-28 -157.5t-80 -124t-123.5 -81t-157.5 -28.5h-180zM186 77h137q90 0 158.5 40.5t107.5 111.5t39 162t-39 162t-107.5 111t-158.5 40h-137v-627zM388 869
q-14 0 -21 6l-116 76q-21 15 -21 36q0 20 21 28.5t48 -10.5l89 -60l89 59q31 21 50 11.5t19 -28.5q0 -21 -21 -36l-115 -76q-8 -6 -22 -6z" />
    <glyph glyph-name="Dcroat" unicode="&#x110;" horiz-adv-x="774" 
d="M40 354q-18 0 -29 9.5t-11 27.5t11 27.5t29 9.5h289q18 0 30 -9.5t12 -27.5t-12 -27.5t-30 -9.5h-289zM143 0q-19 0 -31 12t-12 31v695q0 19 12 31t31 12h180q86 0 157.5 -28.5t123.5 -81t80 -123.5t28 -157t-28 -157.5t-80 -124t-123.5 -81t-157.5 -28.5h-180zM186 77
h137q90 0 158.5 40.5t107.5 111.5t39 162t-39 162t-107.5 111t-158.5 40h-137v-627z" />
    <glyph glyph-name="E" unicode="E" horiz-adv-x="694" 
d="M143 0q-19 0 -31 12t-12 31v695q0 19 12 31t31 12h464q18 0 30 -11.5t12 -29.5q0 -17 -12 -28.5t-30 -11.5h-421v-266h305q19 0 31 -12t12 -29q0 -18 -12 -29.5t-31 -11.5h-305v-271h421q18 0 30 -11.5t12 -28.5q0 -18 -12 -29.5t-30 -11.5h-464z" />
    <glyph glyph-name="Eacute" unicode="&#xc9;" horiz-adv-x="694" 
d="M143 0q-19 0 -31 12t-12 31v695q0 19 12 31t31 12h464q18 0 30 -11.5t12 -29.5q0 -17 -12 -28.5t-30 -11.5h-421v-266h305q19 0 31 -12t12 -29q0 -18 -12 -29.5t-31 -11.5h-305v-271h421q18 0 30 -11.5t12 -28.5q0 -18 -12 -29.5t-30 -11.5h-464zM379 865q-18 0 -30 12.5
t-12 29.5q0 18 9 29l109 108q12 13 30 13t30 -12.5t12 -31.5q0 -8 -2.5 -15.5t-9.5 -13.5l-107 -108q-11 -11 -29 -11z" />
    <glyph glyph-name="Ebreve" unicode="&#x114;" horiz-adv-x="694" 
d="M143 0q-19 0 -31 12t-12 31v695q0 19 12 31t31 12h464q18 0 30 -11.5t12 -29.5q0 -17 -12 -28.5t-30 -11.5h-421v-266h305q19 0 31 -12t12 -29q0 -18 -12 -29.5t-31 -11.5h-305v-271h421q18 0 30 -11.5t12 -28.5q0 -18 -12 -29.5t-30 -11.5h-464zM383 857q-43 0 -79 16
t-57.5 42.5t-21.5 60.5q0 18 11.5 30.5t29.5 12.5q16 0 28.5 -10t12.5 -27q0 -23 22.5 -39t53.5 -16q36 0 56.5 16t20.5 39q0 17 12.5 27t29.5 10q18 0 29 -12.5t11 -30.5q-1 -35 -23 -62t-57.5 -42t-78.5 -15z" />
    <glyph glyph-name="Ecaron" unicode="&#x11a;" horiz-adv-x="694" 
d="M143 0q-19 0 -31 12t-12 31v695q0 19 12 31t31 12h464q18 0 30 -11.5t12 -29.5q0 -17 -12 -28.5t-30 -11.5h-421v-266h305q19 0 31 -12t12 -29q0 -18 -12 -29.5t-31 -11.5h-305v-271h421q18 0 30 -11.5t12 -28.5q0 -18 -12 -29.5t-30 -11.5h-464zM384 869q-14 0 -21 6
l-116 76q-21 15 -21 36q0 20 21 28.5t48 -10.5l89 -60l89 59q31 21 50 11.5t19 -28.5q0 -21 -21 -36l-115 -76q-8 -6 -22 -6z" />
    <glyph glyph-name="Ecircumflex" unicode="&#xca;" horiz-adv-x="694" 
d="M143 0q-19 0 -31 12t-12 31v695q0 19 12 31t31 12h464q18 0 30 -11.5t12 -29.5q0 -17 -12 -28.5t-30 -11.5h-421v-266h305q19 0 31 -12t12 -29q0 -18 -12 -29.5t-31 -11.5h-305v-271h421q18 0 30 -11.5t12 -28.5q0 -18 -12 -29.5t-30 -11.5h-464zM270 862q-19 0 -31.5 10
t-12.5 27q0 23 21 37l116 77q9 5 21 5q7 0 12 -1.5t10 -3.5l115 -77q21 -14 21 -37q0 -16 -12 -26.5t-31 -10.5q-7 0 -13.5 2t-12.5 7l-89 62l-89 -62q-12 -9 -25 -9z" />
    <glyph glyph-name="uni1EBE" unicode="&#x1ebe;" horiz-adv-x="694" 
d="M143 0q-19 0 -31 12t-12 31v695q0 19 12 31t31 12h464q18 0 30 -11.5t12 -29.5q0 -17 -12 -28.5t-30 -11.5h-421v-266h305q19 0 31 -12t12 -29q0 -18 -12 -29.5t-31 -11.5h-305v-271h421q18 0 30 -11.5t12 -28.5q0 -18 -12 -29.5t-30 -11.5h-464zM268 862q-18 0 -30.5 10
t-12.5 27q0 23 21 37l116 77q9 5 21 5q6 0 11.5 -1.5t10.5 -3.5l115 -77q21 -14 21 -37q0 -16 -12 -26.5t-31 -10.5q-8 0 -14 2t-12 7l-89 62l-89 -62q-12 -9 -26 -9zM478 1026q-18 0 -30.5 12t-12.5 31q0 17 10 28l108 109q13 12 30 12q20 0 31.5 -12.5t11.5 -31.5
q0 -8 -3 -15.5t-9 -12.5l-108 -109q-11 -11 -28 -11z" />
    <glyph glyph-name="uni1EC6" unicode="&#x1ec6;" horiz-adv-x="694" 
d="M143 0q-19 0 -31 12t-12 31v695q0 19 12 31t31 12h464q18 0 30 -11.5t12 -29.5q0 -17 -12 -28.5t-30 -11.5h-421v-266h305q19 0 31 -12t12 -29q0 -18 -12 -29.5t-31 -11.5h-305v-271h421q18 0 30 -11.5t12 -28.5q0 -18 -12 -29.5t-30 -11.5h-464zM270 862q-19 0 -31.5 10
t-12.5 27q0 23 21 37l116 77q9 5 21 5q7 0 12 -1.5t10 -3.5l115 -77q21 -14 21 -37q0 -16 -12 -26.5t-31 -10.5q-7 0 -13.5 2t-12.5 7l-89 62l-89 -62q-12 -9 -25 -9zM363 -214q-24 0 -41 17.5t-17 41.5q0 25 17.5 41t40.5 16t40.5 -16t17.5 -41q0 -24 -17 -41.5t-41 -17.5z
" />
    <glyph glyph-name="uni1EC0" unicode="&#x1ec0;" horiz-adv-x="694" 
d="M143 0q-19 0 -31 12t-12 31v695q0 19 12 31t31 12h464q18 0 30 -11.5t12 -29.5q0 -17 -12 -28.5t-30 -11.5h-421v-266h305q19 0 31 -12t12 -29q0 -18 -12 -29.5t-31 -11.5h-305v-271h421q18 0 30 -11.5t12 -28.5q0 -18 -12 -29.5t-30 -11.5h-464zM268 862q-18 0 -30.5 10
t-12.5 27q0 23 21 37l116 77q9 5 21 5q6 0 11.5 -1.5t10.5 -3.5l115 -77q21 -14 21 -37q0 -16 -12 -26.5t-31 -10.5q-8 0 -14 2t-12 7l-89 62l-89 -62q-12 -9 -26 -9zM480 1030q-17 0 -28 12l-109 108q-11 11 -11 29q0 19 12 31.5t30 12.5t31 -13l107 -108q11 -11 11 -28
q0 -19 -12.5 -31.5t-30.5 -12.5z" />
    <glyph glyph-name="uni1EC2" unicode="&#x1ec2;" horiz-adv-x="694" 
d="M143 0q-19 0 -31 12t-12 31v695q0 19 12 31t31 12h464q18 0 30 -11.5t12 -29.5q0 -17 -12 -28.5t-30 -11.5h-421v-266h305q19 0 31 -12t12 -29q0 -18 -12 -29.5t-31 -11.5h-305v-271h421q18 0 30 -11.5t12 -28.5q0 -18 -12 -29.5t-30 -11.5h-464zM272 862q-18 0 -30.5 10
t-12.5 27q0 23 21 37l116 77q9 5 21 5q6 0 11.5 -1.5t10.5 -3.5l115 -77q21 -14 21 -37q0 -16 -12 -26.5t-31 -10.5q-8 0 -14 2t-12 7l-89 62l-89 -62q-12 -9 -26 -9zM485 994q-16 0 -27 11.5t-11 27.5v26q0 35 34 42l25 6q20 4 30.5 15t10.5 27q0 22 -13.5 33t-34.5 11
q-13 0 -24.5 -4.5t-19.5 -11.5q-6 -5 -13.5 -7.5t-14.5 -2.5q-14 0 -23.5 8.5t-9.5 24.5q0 19 13 30q18 15 40.5 23t50.5 8q51 0 85 -30t34 -77q0 -48 -31 -71.5t-74 -29.5l11 -8q0 -25 -11 -38t-27 -13z" />
    <glyph glyph-name="uni1EC4" unicode="&#x1ec4;" horiz-adv-x="694" 
d="M143 0q-19 0 -31 12t-12 31v695q0 19 12 31t31 12h464q18 0 30 -11.5t12 -29.5q0 -17 -12 -28.5t-30 -11.5h-421v-266h305q19 0 31 -12t12 -29q0 -18 -12 -29.5t-31 -11.5h-305v-271h421q18 0 30 -11.5t12 -28.5q0 -18 -12 -29.5t-30 -11.5h-464zM272 862q-18 0 -30.5 10
t-12.5 27q0 23 21 37l116 77q9 5 21 5q7 0 12 -1.5t10 -3.5l115 -77q21 -14 21 -37q0 -16 -12 -26.5t-31 -10.5q-8 0 -14 2t-12 7l-89 62l-89 -62q-12 -9 -26 -9zM446 1045q-26 0 -46 11.5t-35 26.5q-14 12 -23 19t-20 7t-19 -9t-17 -25q-8 -14 -21.5 -19.5t-27.5 0.5
t-19.5 20t2.5 29q19 39 42.5 56.5t54.5 17.5t49 -14t33 -26q15 -13 23 -17.5t15 -4.5q14 0 24 21q9 14 22.5 20.5t27.5 1.5q17 -7 23 -21t-3 -29q-18 -34 -38.5 -49.5t-46.5 -15.5z" />
    <glyph glyph-name="uni0204" unicode="&#x204;" horiz-adv-x="694" 
d="M143 0q-19 0 -31 12t-12 31v695q0 19 12 31t31 12h464q18 0 30 -11.5t12 -29.5q0 -17 -12 -28.5t-30 -11.5h-421v-266h305q19 0 31 -12t12 -29q0 -18 -12 -29.5t-31 -11.5h-305v-271h421q18 0 30 -11.5t12 -28.5q0 -18 -12 -29.5t-30 -11.5h-464zM488 856q-20 0 -31 21
l-59 126q-4 7 -4 16q0 16 12.5 29t31.5 13q13 0 24.5 -7.5t15.5 -19.5l40 -132q3 -6 3 -13q0 -16 -10.5 -24.5t-22.5 -8.5zM340 856q-21 0 -32 21l-59 126q-2 4 -2.5 8t-0.5 8q0 16 12 29t31 13q13 0 24 -7.5t14 -19.5l43 -132q1 -3 1.5 -6.5t0.5 -6.5q0 -16 -10.5 -24.5
t-21.5 -8.5z" />
    <glyph glyph-name="Edieresis" unicode="&#xcb;" horiz-adv-x="694" 
d="M143 0q-19 0 -31 12t-12 31v695q0 19 12 31t31 12h464q18 0 30 -11.5t12 -29.5q0 -17 -12 -28.5t-30 -11.5h-421v-266h305q19 0 31 -12t12 -29q0 -18 -12 -29.5t-31 -11.5h-305v-271h421q18 0 30 -11.5t12 -28.5q0 -18 -12 -29.5t-30 -11.5h-464zM277 876q-24 0 -40.5 16
t-16.5 41q0 22 16.5 39t40.5 17q23 0 40 -17t17 -39q0 -25 -17 -41t-40 -16zM490 876q-24 0 -40 16t-16 41q0 22 16 39t40 17q23 0 40 -17t17 -39q0 -25 -17 -41t-40 -16z" />
    <glyph glyph-name="Edotaccent" unicode="&#x116;" horiz-adv-x="694" 
d="M143 0q-19 0 -31 12t-12 31v695q0 19 12 31t31 12h464q18 0 30 -11.5t12 -29.5q0 -17 -12 -28.5t-30 -11.5h-421v-266h305q19 0 31 -12t12 -29q0 -18 -12 -29.5t-31 -11.5h-305v-271h421q18 0 30 -11.5t12 -28.5q0 -18 -12 -29.5t-30 -11.5h-464zM383 880q-24 0 -41 17.5
t-17 41.5q0 25 17.5 41t40.5 16t40.5 -16t17.5 -41q0 -24 -17 -41.5t-41 -17.5z" />
    <glyph glyph-name="uni1EB8" unicode="&#x1eb8;" horiz-adv-x="694" 
d="M143 0q-19 0 -31 12t-12 31v695q0 19 12 31t31 12h464q18 0 30 -11.5t12 -29.5q0 -17 -12 -28.5t-30 -11.5h-421v-266h305q19 0 31 -12t12 -29q0 -18 -12 -29.5t-31 -11.5h-305v-271h421q18 0 30 -11.5t12 -28.5q0 -18 -12 -29.5t-30 -11.5h-464zM363 -214
q-24 0 -41 17.5t-17 41.5q0 25 17.5 41t40.5 16t40.5 -16t17.5 -41q0 -24 -17 -41.5t-41 -17.5z" />
    <glyph glyph-name="Egrave" unicode="&#xc8;" horiz-adv-x="694" 
d="M143 0q-19 0 -31 12t-12 31v695q0 19 12 31t31 12h464q18 0 30 -11.5t12 -29.5q0 -17 -12 -28.5t-30 -11.5h-421v-266h305q19 0 31 -12t12 -29q0 -18 -12 -29.5t-31 -11.5h-305v-271h421q18 0 30 -11.5t12 -28.5q0 -18 -12 -29.5t-30 -11.5h-464zM383 869q-18 0 -29 12
l-109 107q-10 13 -10 30q0 18 11.5 31t29.5 13t31 -13l107 -109q11 -9 11 -28q0 -18 -12 -30.5t-30 -12.5z" />
    <glyph glyph-name="uni1EBA" unicode="&#x1eba;" horiz-adv-x="694" 
d="M143 0q-19 0 -31 12t-12 31v695q0 19 12 31t31 12h464q18 0 30 -11.5t12 -29.5q0 -17 -12 -28.5t-30 -11.5h-421v-266h305q19 0 31 -12t12 -29q0 -18 -12 -29.5t-31 -11.5h-305v-271h421q18 0 30 -11.5t12 -28.5q0 -18 -12 -29.5t-30 -11.5h-464zM383 833q-16 0 -27.5 11
t-11.5 28v26q0 34 34 42l26 5q20 5 30.5 15.5t10.5 27.5q0 21 -14 32.5t-34 11.5q-13 0 -24.5 -5t-20.5 -11q-5 -5 -12.5 -7.5t-14.5 -2.5q-14 0 -24 8.5t-10 24.5q0 18 13 29q20 16 42 24t50 8q51 0 84.5 -30.5t33.5 -77.5q0 -48 -31 -71t-74 -29l12 -9q0 -25 -11.5 -37.5
t-26.5 -12.5z" />
    <glyph glyph-name="uni0206" unicode="&#x206;" horiz-adv-x="694" 
d="M143 0q-19 0 -31 12t-12 31v695q0 19 12 31t31 12h464q18 0 30 -11.5t12 -29.5q0 -17 -12 -28.5t-30 -11.5h-421v-266h305q19 0 31 -12t12 -29q0 -18 -12 -29.5t-31 -11.5h-305v-271h421q18 0 30 -11.5t12 -28.5q0 -18 -12 -29.5t-30 -11.5h-464zM265 856
q-18 0 -29.5 12.5t-11.5 31.5q0 33 21.5 60t57.5 42.5t80 15.5q42 0 77.5 -15t57.5 -42t23 -62q0 -18 -11.5 -30.5t-28.5 -12.5t-29.5 10.5t-12.5 27.5q0 23 -20.5 38.5t-55.5 15.5q-32 0 -55 -16t-23 -38q0 -17 -12 -27.5t-28 -10.5z" />
    <glyph glyph-name="Emacron" unicode="&#x112;" horiz-adv-x="694" 
d="M143 0q-19 0 -31 12t-12 31v695q0 19 12 31t31 12h464q18 0 30 -11.5t12 -29.5q0 -17 -12 -28.5t-30 -11.5h-421v-266h305q19 0 31 -12t12 -29q0 -18 -12 -29.5t-31 -11.5h-305v-271h421q18 0 30 -11.5t12 -28.5q0 -18 -12 -29.5t-30 -11.5h-464zM255 887
q-18 0 -30.5 10.5t-12.5 28.5t12.5 28.5t30.5 10.5h256q18 0 30.5 -10.5t12.5 -28.5t-12.5 -28.5t-30.5 -10.5h-256z" />
    <glyph glyph-name="Eogonek" unicode="&#x118;" horiz-adv-x="694" 
d="M143 0q-19 0 -31 12t-12 31v695q0 19 12 31t31 12h464q18 0 30 -11.5t12 -29.5q0 -17 -12 -28.5t-30 -11.5h-421v-266h305q19 0 31 -12t12 -29q0 -18 -12 -29.5t-31 -11.5h-305v-271h421q18 0 30 -11.5t12 -28.5q0 -18 -12 -29.5t-30 -11.5h-464zM627 -267q-32 0 -59 16
t-43.5 43.5t-16.5 60.5q0 56 50 98q13 9 20.5 18t11.5 19q12 22 37 22q18 0 30 -11.5t13 -30.5q0 -22 -15.5 -43t-47.5 -44q-7 -5 -10.5 -13t-3.5 -15q0 -14 10 -24t24 -10q5 0 10 1t8 4l34 25q12 8 25 8q19 0 31 -12t12 -31t-15 -34l-39 -25q-31 -22 -66 -22z" />
    <glyph glyph-name="uni1EBC" unicode="&#x1ebc;" horiz-adv-x="694" 
d="M143 0q-19 0 -31 12t-12 31v695q0 19 12 31t31 12h464q18 0 30 -11.5t12 -29.5q0 -17 -12 -28.5t-30 -11.5h-421v-266h305q19 0 31 -12t12 -29q0 -18 -12 -29.5t-31 -11.5h-305v-271h421q18 0 30 -11.5t12 -28.5q0 -18 -12 -29.5t-30 -11.5h-464zM489 859
q-32 0 -56.5 11.5t-41.5 21.5q-22 13 -35.5 18t-26.5 5q-17 0 -32 -7.5t-29 -25.5q-10 -14 -24.5 -19t-29.5 3q-14 7 -16.5 23t7.5 30q24 32 57 49.5t70 17.5q32 0 55.5 -11t39.5 -21q21 -12 33.5 -17.5t27.5 -5.5t26 5t20 14q12 12 24 16.5t27 -4.5q14 -7 16.5 -23.5
t-8.5 -30.5q-39 -49 -104 -49z" />
    <glyph glyph-name="F" unicode="F" horiz-adv-x="625" 
d="M81 0q-18 0 -30.5 12.5t-12.5 30.5v695q0 19 12 31t31 12h463q19 0 31 -11.5t12 -29.5q0 -17 -12 -28.5t-31 -11.5h-420v-266h305q19 0 30.5 -12t11.5 -29q0 -18 -11.5 -29.5t-30.5 -11.5h-305v-309q0 -18 -12.5 -30.5t-30.5 -12.5z" />
    <glyph glyph-name="G" unicode="G" horiz-adv-x="771" 
d="M451 -10q-81 0 -151.5 31t-124 86t-83 127.5t-29.5 156.5q0 83 29.5 155.5t82.5 127t123.5 86t152.5 31.5q73 0 131 -20.5t113 -66.5q9 -7 11.5 -15.5t0 -16.5t-7.5 -14q-2 -11 -11.5 -17.5t-23 -6.5t-25.5 10q-38 34 -82 50.5t-106 16.5q-63 0 -118.5 -25.5t-97.5 -69.5
t-65.5 -102t-23.5 -123q0 -67 23.5 -125t65.5 -102t97.5 -69t118.5 -25q53 0 101 18t92 51q14 11 28.5 9t25 -12.5t10.5 -28.5q0 -9 -2.5 -16t-9.5 -15q-52 -46 -114.5 -66t-130.5 -20zM708 107l-83 17v195h-151q-18 0 -30.5 10.5t-12.5 27.5q0 16 12.5 27t30.5 11h192
q18 0 30 -12t12 -31v-245z" />
    <glyph glyph-name="Gbreve" unicode="&#x11e;" horiz-adv-x="771" 
d="M451 -10q-81 0 -151.5 31t-124 86t-83 127.5t-29.5 156.5q0 83 29.5 155.5t82.5 127t123.5 86t152.5 31.5q73 0 131 -20.5t113 -66.5q9 -7 11.5 -15.5t0 -16.5t-7.5 -14q-2 -11 -11.5 -17.5t-23 -6.5t-25.5 10q-38 34 -82 50.5t-106 16.5q-63 0 -118.5 -25.5t-97.5 -69.5
t-65.5 -102t-23.5 -123q0 -67 23.5 -125t65.5 -102t97.5 -69t118.5 -25q53 0 101 18t92 51q14 11 28.5 9t25 -12.5t10.5 -28.5q0 -9 -2.5 -16t-9.5 -15q-52 -46 -114.5 -66t-130.5 -20zM708 107l-83 17v195h-151q-18 0 -30.5 10.5t-12.5 27.5q0 16 12.5 27t30.5 11h192
q18 0 30 -12t12 -31v-245zM442 857q-43 0 -79 16t-57.5 42.5t-21.5 60.5q0 18 11.5 30.5t29.5 12.5q16 0 28.5 -10t12.5 -27q0 -23 22.5 -39t53.5 -16q36 0 56.5 16t20.5 39q0 17 12.5 27t29.5 10q18 0 29 -12.5t11 -30.5q-1 -35 -23 -62t-57.5 -42t-78.5 -15z" />
    <glyph glyph-name="Gcaron" unicode="&#x1e6;" horiz-adv-x="771" 
d="M451 -10q-81 0 -151.5 31t-124 86t-83 127.5t-29.5 156.5q0 83 29.5 155.5t82.5 127t123.5 86t152.5 31.5q73 0 131 -20.5t113 -66.5q9 -7 11.5 -15.5t0 -16.5t-7.5 -14q-2 -11 -11.5 -17.5t-23 -6.5t-25.5 10q-38 34 -82 50.5t-106 16.5q-63 0 -118.5 -25.5t-97.5 -69.5
t-65.5 -102t-23.5 -123q0 -67 23.5 -125t65.5 -102t97.5 -69t118.5 -25q53 0 101 18t92 51q14 11 28.5 9t25 -12.5t10.5 -28.5q0 -9 -2.5 -16t-9.5 -15q-52 -46 -114.5 -66t-130.5 -20zM708 107l-83 17v195h-151q-18 0 -30.5 10.5t-12.5 27.5q0 16 12.5 27t30.5 11h192
q18 0 30 -12t12 -31v-245zM443 869q-14 0 -21 6l-116 76q-21 15 -21 36q0 20 21 28.5t48 -10.5l89 -60l89 59q31 21 50 11.5t19 -28.5q0 -21 -21 -36l-115 -76q-8 -6 -22 -6z" />
    <glyph glyph-name="Gcircumflex" unicode="&#x11c;" horiz-adv-x="771" 
d="M451 -10q-81 0 -151.5 31t-124 86t-83 127.5t-29.5 156.5q0 83 29.5 155.5t82.5 127t123.5 86t152.5 31.5q73 0 131 -20.5t113 -66.5q9 -7 11.5 -15.5t0 -16.5t-7.5 -14q-2 -11 -11.5 -17.5t-23 -6.5t-25.5 10q-38 34 -82 50.5t-106 16.5q-63 0 -118.5 -25.5t-97.5 -69.5
t-65.5 -102t-23.5 -123q0 -67 23.5 -125t65.5 -102t97.5 -69t118.5 -25q53 0 101 18t92 51q14 11 28.5 9t25 -12.5t10.5 -28.5q0 -9 -2.5 -16t-9.5 -15q-52 -46 -114.5 -66t-130.5 -20zM708 107l-83 17v195h-151q-18 0 -30.5 10.5t-12.5 27.5q0 16 12.5 27t30.5 11h192
q18 0 30 -12t12 -31v-245zM329 862q-19 0 -31.5 10t-12.5 27q0 23 21 37l116 77q9 5 21 5q7 0 12 -1.5t10 -3.5l115 -77q21 -14 21 -37q0 -16 -12 -26.5t-31 -10.5q-7 0 -13.5 2t-12.5 7l-89 62l-89 -62q-12 -9 -25 -9z" />
    <glyph glyph-name="uni0122" unicode="&#x122;" horiz-adv-x="771" 
d="M451 -10q-81 0 -151.5 31t-124 86t-83 127.5t-29.5 156.5q0 83 29.5 155.5t82.5 127t123.5 86t152.5 31.5q73 0 131 -20.5t113 -66.5q9 -7 11.5 -15.5t0 -16.5t-7.5 -14q-2 -11 -11.5 -17.5t-23 -6.5t-25.5 10q-38 34 -82 50.5t-106 16.5q-63 0 -118.5 -25.5t-97.5 -69.5
t-65.5 -102t-23.5 -123q0 -67 23.5 -125t65.5 -102t97.5 -69t118.5 -25q53 0 101 18t92 51q14 11 28.5 9t25 -12.5t10.5 -28.5q0 -9 -2.5 -16t-9.5 -15q-52 -46 -114.5 -66t-130.5 -20zM708 107l-83 17v195h-151q-18 0 -30.5 10.5t-12.5 27.5q0 16 12.5 27t30.5 11h192
q18 0 30 -12t12 -31v-245zM436 -241q-26 0 -54.5 8.5t-48 25t-19.5 40.5q0 13 8.5 21t22.5 8t23.5 -6t18 -15t21 -15.5t34.5 -6.5q29 0 42.5 10t13.5 31q0 18 -17 29.5t-53 11.5q-21 0 -33.5 7t-12.5 22q0 31 50 31q57 0 92.5 -28t35.5 -72q0 -47 -35.5 -74.5t-88.5 -27.5z
" />
    <glyph glyph-name="Gdotaccent" unicode="&#x120;" horiz-adv-x="771" 
d="M451 -10q-81 0 -151.5 31t-124 86t-83 127.5t-29.5 156.5q0 83 29.5 155.5t82.5 127t123.5 86t152.5 31.5q73 0 131 -20.5t113 -66.5q9 -7 11.5 -15.5t0 -16.5t-7.5 -14q-2 -11 -11.5 -17.5t-23 -6.5t-25.5 10q-38 34 -82 50.5t-106 16.5q-63 0 -118.5 -25.5t-97.5 -69.5
t-65.5 -102t-23.5 -123q0 -67 23.5 -125t65.5 -102t97.5 -69t118.5 -25q53 0 101 18t92 51q14 11 28.5 9t25 -12.5t10.5 -28.5q0 -9 -2.5 -16t-9.5 -15q-52 -46 -114.5 -66t-130.5 -20zM708 107l-83 17v195h-151q-18 0 -30.5 10.5t-12.5 27.5q0 16 12.5 27t30.5 11h192
q18 0 30 -12t12 -31v-245zM442 880q-24 0 -41 17.5t-17 41.5q0 25 17.5 41t40.5 16t40.5 -16t17.5 -41q0 -24 -17 -41.5t-41 -17.5z" />
    <glyph glyph-name="H" unicode="H" horiz-adv-x="852" 
d="M143 0q-19 0 -31 12t-12 31v695q0 19 12 31t31 12t31 -12t12 -31v-304h481v304q0 19 12 31t31 12q18 0 30 -12t12 -31v-695q0 -19 -12 -31t-30 -12q-19 0 -31 12t-12 31v314h-481v-314q0 -19 -12 -31t-31 -12z" />
    <glyph glyph-name="Hbar" unicode="&#x126;" horiz-adv-x="852" 
d="M143 0q-19 0 -31 12t-12 31v695q0 19 12 31t31 12t31 -12t12 -31v-304h481v304q0 19 12 31t31 12q18 0 30 -12t12 -31v-695q0 -19 -12 -31t-30 -12q-19 0 -31 12t-12 31v314h-481v-314q0 -19 -12 -31t-31 -12zM63 582q-18 0 -29.5 7t-11.5 24q0 18 11.5 25t29.5 7h728
q19 0 31 -7t12 -25q0 -17 -12 -24t-31 -7h-728z" />
    <glyph glyph-name="Hcircumflex" unicode="&#x124;" horiz-adv-x="852" 
d="M143 0q-19 0 -31 12t-12 31v695q0 19 12 31t31 12t31 -12t12 -31v-304h481v304q0 19 12 31t31 12q18 0 30 -12t12 -31v-695q0 -19 -12 -31t-30 -12q-19 0 -31 12t-12 31v314h-481v-314q0 -19 -12 -31t-31 -12zM312 862q-19 0 -31.5 10t-12.5 27q0 23 21 37l116 77
q9 5 21 5q7 0 12 -1.5t10 -3.5l115 -77q21 -14 21 -37q0 -16 -12 -26.5t-31 -10.5q-7 0 -13.5 2t-12.5 7l-89 62l-89 -62q-12 -9 -25 -9z" />
    <glyph glyph-name="I" unicode="I" horiz-adv-x="286" 
d="M143 0q-19 0 -31 12t-12 31v695q0 19 12 31t31 12t31 -12t12 -31v-695q0 -19 -12 -31t-31 -12z" />
    <glyph glyph-name="IJ" unicode="&#x132;" horiz-adv-x="643" 
d="M315 -10q-62 0 -110.5 22.5t-76.5 63.5t-28 98q0 19 12 31t31 12t31 -12t12 -31q0 -34 17 -57t46 -35t66 -12q40 0 72.5 20.5t51 55.5t18.5 80v512q0 19 12 31t30 12q19 0 31.5 -12t12.5 -31v-512q0 -67 -30 -120.5t-81.5 -84.5t-116.5 -31zM143 290q-19 0 -31 12t-12 31
v405q0 19 12 31t31 12t31 -12t12 -31v-405q0 -19 -12 -31t-31 -12z" />
    <glyph glyph-name="Iacute" unicode="&#xcd;" horiz-adv-x="286" 
d="M143 0q-19 0 -31 12t-12 31v695q0 19 12 31t31 12t31 -12t12 -31v-695q0 -19 -12 -31t-31 -12zM139 865q-18 0 -30 12.5t-12 29.5q0 18 9 29l109 108q12 13 30 13t30 -12.5t12 -31.5q0 -8 -2.5 -15.5t-9.5 -13.5l-107 -108q-11 -11 -29 -11z" />
    <glyph glyph-name="Ibreve" unicode="&#x12c;" horiz-adv-x="286" 
d="M143 0q-19 0 -31 12t-12 31v695q0 19 12 31t31 12t31 -12t12 -31v-695q0 -19 -12 -31t-31 -12zM142 857q-43 0 -79 16t-57.5 42.5t-21.5 60.5q0 18 11.5 30.5t29.5 12.5q16 0 28.5 -10t12.5 -27q0 -23 22.5 -39t53.5 -16q36 0 56.5 16t20.5 39q0 17 12.5 27t29.5 10
q18 0 29 -12.5t11 -30.5q-1 -35 -23 -62t-57.5 -42t-78.5 -15z" />
    <glyph glyph-name="Icircumflex" unicode="&#xce;" horiz-adv-x="286" 
d="M143 0q-19 0 -31 12t-12 31v695q0 19 12 31t31 12t31 -12t12 -31v-695q0 -19 -12 -31t-31 -12zM29 862q-19 0 -31.5 10t-12.5 27q0 23 21 37l116 77q9 5 21 5q7 0 12 -1.5t10 -3.5l115 -77q21 -14 21 -37q0 -16 -12 -26.5t-31 -10.5q-7 0 -13.5 2t-12.5 7l-89 62l-89 -62
q-12 -9 -25 -9z" />
    <glyph glyph-name="uni0208" unicode="&#x208;" horiz-adv-x="286" 
d="M143 0q-19 0 -31 12t-12 31v695q0 19 12 31t31 12t31 -12t12 -31v-695q0 -19 -12 -31t-31 -12zM248 856q-20 0 -31 21l-59 126q-4 7 -4 16q0 16 12.5 29t31.5 13q13 0 24.5 -7.5t15.5 -19.5l40 -132q3 -6 3 -13q0 -16 -10.5 -24.5t-22.5 -8.5zM100 856q-21 0 -32 21
l-59 126q-2 4 -2.5 8t-0.5 8q0 16 12 29t31 13q13 0 24 -7.5t14 -19.5l43 -132q1 -3 1.5 -6.5t0.5 -6.5q0 -16 -10.5 -24.5t-21.5 -8.5z" />
    <glyph glyph-name="Idieresis" unicode="&#xcf;" horiz-adv-x="286" 
d="M143 0q-19 0 -31 12t-12 31v695q0 19 12 31t31 12t31 -12t12 -31v-695q0 -19 -12 -31t-31 -12zM37 876q-24 0 -40.5 16t-16.5 41q0 22 16.5 39t40.5 17q23 0 40 -17t17 -39q0 -25 -17 -41t-40 -16zM250 876q-24 0 -40 16t-16 41q0 22 16 39t40 17q23 0 40 -17t17 -39
q0 -25 -17 -41t-40 -16z" />
    <glyph glyph-name="Idotaccent" unicode="&#x130;" horiz-adv-x="286" 
d="M143 0q-19 0 -31 12t-12 31v695q0 19 12 31t31 12t31 -12t12 -31v-695q0 -19 -12 -31t-31 -12zM143 880q-24 0 -41 17.5t-17 41.5q0 25 17.5 41t40.5 16t40.5 -16t17.5 -41q0 -24 -17 -41.5t-41 -17.5z" />
    <glyph glyph-name="uni1ECA" unicode="&#x1eca;" horiz-adv-x="286" 
d="M143 0q-19 0 -31 12t-12 31v695q0 19 12 31t31 12t31 -12t12 -31v-695q0 -19 -12 -31t-31 -12zM143 -214q-24 0 -41 17.5t-17 41.5q0 25 17.5 41t40.5 16t40.5 -16t17.5 -41q0 -24 -17 -41.5t-41 -17.5z" />
    <glyph glyph-name="Igrave" unicode="&#xcc;" horiz-adv-x="286" 
d="M143 0q-19 0 -31 12t-12 31v695q0 19 12 31t31 12t31 -12t12 -31v-695q0 -19 -12 -31t-31 -12zM142 869q-18 0 -29 12l-109 107q-10 13 -10 30q0 18 11.5 31t29.5 13t31 -13l107 -109q11 -9 11 -28q0 -18 -12 -30.5t-30 -12.5z" />
    <glyph glyph-name="uni1EC8" unicode="&#x1ec8;" horiz-adv-x="286" 
d="M143 0q-19 0 -31 12t-12 31v695q0 19 12 31t31 12t31 -12t12 -31v-695q0 -19 -12 -31t-31 -12zM143 833q-16 0 -27.5 11t-11.5 28v26q0 34 34 42l26 5q20 5 30.5 15.5t10.5 27.5q0 21 -14 32.5t-34 11.5q-13 0 -24.5 -5t-20.5 -11q-5 -5 -12.5 -7.5t-14.5 -2.5
q-14 0 -24 8.5t-10 24.5q0 18 13 29q20 16 42 24t50 8q51 0 84.5 -30.5t33.5 -77.5q0 -48 -31 -71t-74 -29l12 -9q0 -25 -11.5 -37.5t-26.5 -12.5z" />
    <glyph glyph-name="uni020A" unicode="&#x20a;" horiz-adv-x="286" 
d="M143 0q-19 0 -31 12t-12 31v695q0 19 12 31t31 12t31 -12t12 -31v-695q0 -19 -12 -31t-31 -12zM25 856q-18 0 -29.5 12.5t-11.5 31.5q0 33 21.5 60t57.5 42.5t80 15.5q42 0 77.5 -15t57.5 -42t23 -62q0 -18 -11.5 -30.5t-28.5 -12.5t-29.5 10.5t-12.5 27.5
q0 23 -20.5 38.5t-55.5 15.5q-32 0 -55 -16t-23 -38q0 -17 -12 -27.5t-28 -10.5z" />
    <glyph glyph-name="Imacron" unicode="&#x12a;" horiz-adv-x="286" 
d="M143 0q-19 0 -31 12t-12 31v695q0 19 12 31t31 12t31 -12t12 -31v-695q0 -19 -12 -31t-31 -12zM15 887q-18 0 -30.5 10.5t-12.5 28.5t12.5 28.5t30.5 10.5h256q18 0 30.5 -10.5t12.5 -28.5t-12.5 -28.5t-30.5 -10.5h-256z" />
    <glyph glyph-name="Iogonek" unicode="&#x12e;" horiz-adv-x="286" 
d="M143 0q-19 0 -31 12t-12 31v695q0 19 12 31t31 12t31 -12t12 -31v-695q0 -19 -12 -31t-31 -12zM143 -267q-32 0 -59 16t-43.5 43.5t-16.5 60.5q0 56 50 98q13 9 20.5 18t11.5 19q12 22 37 22q18 0 30 -11.5t13 -30.5q0 -22 -15.5 -43t-47.5 -44q-7 -5 -10.5 -13t-3.5 -15
q0 -14 10 -24t24 -10q5 0 10 1t8 4l34 25q12 8 25 8q19 0 31 -12t12 -31t-15 -34l-39 -25q-31 -22 -66 -22z" />
    <glyph glyph-name="Itilde" unicode="&#x128;" horiz-adv-x="286" 
d="M143 0q-19 0 -31 12t-12 31v695q0 19 12 31t31 12t31 -12t12 -31v-695q0 -19 -12 -31t-31 -12zM209 872q-26 0 -46 11.5t-35 26.5q-14 13 -23 19.5t-20 6.5t-19 -9t-17 -25q-8 -14 -21.5 -19.5t-27.5 0.5q-15 6 -20 20t3 29q19 39 42.5 56.5t54.5 17.5t49 -14t33 -26
q14 -13 22.5 -17.5t15.5 -4.5q13 0 24 21q9 14 23 20.5t27 1.5q17 -7 22.5 -21t-2.5 -29q-18 -35 -39 -50t-46 -15z" />
    <glyph glyph-name="J" unicode="J" horiz-adv-x="618" 
d="M282 -10q-68 0 -121.5 31t-84.5 84.5t-31 120.5q0 19 12 31t31 12t31 -12t12 -31q0 -45 20 -80t54 -55.5t77 -20.5q42 0 76.5 20.5t54 55.5t19.5 80v512q0 19 12 31t30 12q19 0 31.5 -12t12.5 -31v-512q0 -67 -31 -120.5t-84.5 -84.5t-120.5 -31z" />
    <glyph glyph-name="Jcircumflex" unicode="&#x134;" horiz-adv-x="618" 
d="M282 -10q-68 0 -121.5 31t-84.5 84.5t-31 120.5q0 19 12 31t31 12t31 -12t12 -31q0 -45 20 -80t54 -55.5t77 -20.5q42 0 76.5 20.5t54 55.5t19.5 80v512q0 19 12 31t30 12q19 0 31.5 -12t12.5 -31v-512q0 -67 -31 -120.5t-84.5 -84.5t-120.5 -31zM361 862q-19 0 -31.5 10
t-12.5 27q0 23 21 37l116 77q9 5 21 5q7 0 12 -1.5t10 -3.5l115 -77q21 -14 21 -37q0 -16 -12 -26.5t-31 -10.5q-7 0 -13.5 2t-12.5 7l-89 62l-89 -62q-12 -9 -25 -9z" />
    <glyph glyph-name="K" unicode="K" horiz-adv-x="659" 
d="M143 0q-18 0 -30.5 12.5t-12.5 30.5v695q0 18 12.5 30.5t30.5 12.5t30.5 -12.5t12.5 -30.5v-328l355 355q9 9 17 12.5t17 3.5q20 0 30 -12t8.5 -29.5t-14.5 -31.5l-268 -269l271 -371q10 -14 8.5 -30t-12 -27t-26.5 -11q-24 0 -36 19l-266 360l-84 -85v-251
q0 -18 -12.5 -30.5t-30.5 -12.5z" />
    <glyph glyph-name="uni0136" unicode="&#x136;" horiz-adv-x="659" 
d="M143 0q-18 0 -30.5 12.5t-12.5 30.5v695q0 18 12.5 30.5t30.5 12.5t30.5 -12.5t12.5 -30.5v-328l355 355q9 9 17 12.5t17 3.5q20 0 30 -12t8.5 -29.5t-14.5 -31.5l-268 -269l271 -371q10 -14 8.5 -30t-12 -27t-26.5 -11q-24 0 -36 19l-266 360l-84 -85v-251
q0 -18 -12.5 -30.5t-30.5 -12.5zM335 -241q-26 0 -54.5 8.5t-48 25t-19.5 40.5q0 13 8.5 21t22.5 8t23.5 -6t18 -15t21 -15.5t34.5 -6.5q29 0 42.5 10t13.5 31q0 18 -17 29.5t-53 11.5q-21 0 -33.5 7t-12.5 22q0 31 50 31q57 0 92.5 -28t35.5 -72q0 -47 -35.5 -74.5
t-88.5 -27.5z" />
    <glyph glyph-name="L" unicode="L" horiz-adv-x="636" 
d="M143 0q-18 0 -30.5 12t-12.5 31v695q0 18 12.5 30.5t30.5 12.5t30.5 -12.5t12.5 -30.5v-655h382q18 0 30.5 -12t12.5 -29q0 -18 -12.5 -30t-30.5 -12h-425z" />
    <glyph glyph-name="Lacute" unicode="&#x139;" horiz-adv-x="636" 
d="M143 0q-18 0 -30.5 12t-12.5 31v695q0 18 12.5 30.5t30.5 12.5t30.5 -12.5t12.5 -30.5v-655h382q18 0 30.5 -12t12.5 -29q0 -18 -12.5 -30t-30.5 -12h-425zM139 865q-18 0 -30 12.5t-12 29.5q0 18 9 29l109 108q12 13 30 13t30 -12.5t12 -31.5q0 -8 -2.5 -15.5
t-9.5 -13.5l-107 -108q-11 -11 -29 -11z" />
    <glyph glyph-name="Lcaron" unicode="&#x13d;" horiz-adv-x="636" 
d="M143 0q-18 0 -30.5 12t-12.5 31v695q0 18 12.5 30.5t30.5 12.5t30.5 -12.5t12.5 -30.5v-655h382q18 0 30.5 -12t12.5 -29q0 -18 -12.5 -30t-30.5 -12h-425zM382 518q-11 2 -17 8t-5 17q2 14 13 30.5t23.5 36t15.5 46.5q2 19 -2.5 31.5t-9.5 25.5t-5 33q0 21 14 30.5
t33 9.5q30 0 45 -29.5t10 -67.5q-4 -30 -17.5 -60.5t-31.5 -56.5t-36 -41t-30 -13z" />
    <glyph glyph-name="uni013B" unicode="&#x13b;" horiz-adv-x="636" 
d="M143 0q-18 0 -30.5 12t-12.5 31v695q0 18 12.5 30.5t30.5 12.5t30.5 -12.5t12.5 -30.5v-655h382q18 0 30.5 -12t12.5 -29q0 -18 -12.5 -30t-30.5 -12h-425zM333 -241q-26 0 -54.5 8.5t-48 25t-19.5 40.5q0 13 8.5 21t22.5 8t23.5 -6t18 -15t21 -15.5t34.5 -6.5
q29 0 42.5 10t13.5 31q0 18 -17 29.5t-53 11.5q-21 0 -33.5 7t-12.5 22q0 31 50 31q57 0 92.5 -28t35.5 -72q0 -47 -35.5 -74.5t-88.5 -27.5z" />
    <glyph glyph-name="Ldot" unicode="&#x13f;" horiz-adv-x="586" 
d="M143 0q-18 0 -30.5 12t-12.5 31v695q0 18 12.5 30.5t30.5 12.5t30.5 -12.5t12.5 -30.5v-655h382q18 0 30.5 -12t12.5 -29q0 -18 -12.5 -30t-30.5 -12h-425zM443 308q-26 0 -44 18t-18 44t18 44t44 18q25 0 42.5 -18.5t17.5 -43.5q0 -26 -17.5 -44t-42.5 -18z" />
    <glyph glyph-name="Lslash" unicode="&#x141;" horiz-adv-x="664" 
d="M158 0q-18 0 -30.5 12t-12.5 31v246l-30 -31q-12 -12 -30 -12q-17 0 -30 12.5t-13 30.5t12 31l91 91v327q0 19 12.5 31t30.5 12t30.5 -12t12.5 -31v-243l118 114q6 6 13.5 9.5t16.5 3.5q18 0 30.5 -13.5t12.5 -30.5t-13 -30l-178 -174v-288h383q17 0 30 -12.5t13 -30.5
q0 -19 -13 -31t-30 -12h-426z" />
    <glyph glyph-name="M" unicode="M" horiz-adv-x="981" 
d="M143 0q-18 0 -30.5 12.5t-12.5 30.5v695q0 19 12.5 31t30.5 12q26 0 38 -22l330 -657h-33l323 657q13 22 38 22q18 0 30 -12t12 -31v-695q0 -18 -12 -30.5t-30 -12.5q-19 0 -31.5 12.5t-12.5 30.5v581l18 1l-285 -582q-12 -21 -37 -21q-27 0 -40 26l-285 571l20 5v-581
q0 -18 -12.5 -30.5t-30.5 -12.5z" />
    <glyph glyph-name="N" unicode="N" horiz-adv-x="827" 
d="M143 0q-19 0 -31 12t-12 31v695q0 19 12 31t31 12q20 0 33 -16l465 -613v586q0 19 12 31t31 12q18 0 30.5 -12t12.5 -31v-695q0 -19 -12.5 -31t-30.5 -12q-9 0 -18 3.5t-15 11.5l-465 613v-585q0 -19 -12.5 -31t-30.5 -12z" />
    <glyph glyph-name="Nacute" unicode="&#x143;" horiz-adv-x="827" 
d="M143 0q-19 0 -31 12t-12 31v695q0 19 12 31t31 12q20 0 33 -16l465 -613v586q0 19 12 31t31 12q18 0 30.5 -12t12.5 -31v-695q0 -19 -12.5 -31t-30.5 -12q-9 0 -18 3.5t-15 11.5l-465 613v-585q0 -19 -12.5 -31t-30.5 -12zM410 865q-18 0 -30 12.5t-12 29.5q0 18 9 29
l109 108q12 13 30 13t30 -12.5t12 -31.5q0 -8 -2.5 -15.5t-9.5 -13.5l-107 -108q-11 -11 -29 -11z" />
    <glyph glyph-name="Ncaron" unicode="&#x147;" horiz-adv-x="827" 
d="M143 0q-19 0 -31 12t-12 31v695q0 19 12 31t31 12q20 0 33 -16l465 -613v586q0 19 12 31t31 12q18 0 30.5 -12t12.5 -31v-695q0 -19 -12.5 -31t-30.5 -12q-9 0 -18 3.5t-15 11.5l-465 613v-585q0 -19 -12.5 -31t-30.5 -12zM414 869q-14 0 -21 6l-116 76q-21 15 -21 36
q0 20 21 28.5t48 -10.5l89 -60l89 59q31 21 50 11.5t19 -28.5q0 -21 -21 -36l-115 -76q-8 -6 -22 -6z" />
    <glyph glyph-name="uni0145" unicode="&#x145;" horiz-adv-x="827" 
d="M143 0q-19 0 -31 12t-12 31v695q0 19 12 31t31 12q20 0 33 -16l465 -613v586q0 19 12 31t31 12q18 0 30.5 -12t12.5 -31v-695q0 -19 -12.5 -31t-30.5 -12q-9 0 -18 3.5t-15 11.5l-465 613v-585q0 -19 -12.5 -31t-30.5 -12zM418 -241q-26 0 -54.5 8.5t-48 25t-19.5 40.5
q0 13 8.5 21t22.5 8t23.5 -6t18 -15t21 -15.5t34.5 -6.5q29 0 42.5 10t13.5 31q0 18 -17 29.5t-53 11.5q-21 0 -33.5 7t-12.5 22q0 31 50 31q57 0 92.5 -28t35.5 -72q0 -47 -35.5 -74.5t-88.5 -27.5z" />
    <glyph glyph-name="Eng" unicode="&#x14a;" horiz-adv-x="726" 
d="M428 -9q-40 0 -76.5 12.5t-63 37.5t-37.5 60q-5 17 1.5 29.5t22.5 16.5q15 4 28 -3.5t20 -24.5q11 -23 40.5 -35t61.5 -12q78 0 111.5 69.5t33.5 211.5v115q0 71 -22 123t-65.5 80.5t-106.5 28.5q-57 0 -100 -20t-66.5 -55.5t-23.5 -82.5v140q33 47 81.5 73t112.5 26
q82 0 144.5 -39t97 -108.5t34.5 -160.5v-120q0 -178 -59 -270t-169 -92zM143 0q-19 0 -31 12t-12 31v695q0 19 12 31t31 12q18 0 30.5 -12t12.5 -31v-695q0 -19 -12.5 -31t-30.5 -12z" />
    <glyph glyph-name="Ntilde" unicode="&#xd1;" horiz-adv-x="827" 
d="M143 0q-19 0 -31 12t-12 31v695q0 19 12 31t31 12q20 0 33 -16l465 -613v586q0 19 12 31t31 12q18 0 30.5 -12t12.5 -31v-695q0 -19 -12.5 -31t-30.5 -12q-9 0 -18 3.5t-15 11.5l-465 613v-585q0 -19 -12.5 -31t-30.5 -12zM519 859q-32 0 -56.5 11.5t-41.5 21.5
q-22 13 -35.5 18t-26.5 5q-17 0 -32 -7.5t-29 -25.5q-10 -14 -24.5 -19t-29.5 3q-14 7 -16.5 23t7.5 30q24 32 57 49.5t70 17.5q32 0 55.5 -11t39.5 -21q21 -12 33.5 -17.5t27.5 -5.5t26 5t20 14q12 12 24 16.5t27 -4.5q14 -7 16.5 -23.5t-8.5 -30.5q-39 -49 -104 -49z" />
    <glyph glyph-name="O" unicode="O" horiz-adv-x="921" 
d="M461 -10q-87 0 -160 30t-126.5 83.5t-82.5 127t-29 160.5t29 160t82.5 126.5t126.5 83.5t160 30t159.5 -30t126.5 -83.5t83 -126.5t29 -160t-29 -160.5t-83 -127t-126.5 -83.5t-159.5 -30zM461 70q68 0 125.5 24.5t100 68t65.5 102t23 126.5t-23 126.5t-65.5 102
t-100 67.5t-125.5 24t-126 -24t-100 -67.5t-65.5 -102t-23.5 -126.5t23.5 -126.5t65.5 -102t100 -68t126 -24.5z" />
    <glyph glyph-name="Oacute" unicode="&#xd3;" horiz-adv-x="921" 
d="M461 -10q-87 0 -160 30t-126.5 83.5t-82.5 127t-29 160.5t29 160t82.5 126.5t126.5 83.5t160 30t159.5 -30t126.5 -83.5t83 -126.5t29 -160t-29 -160.5t-83 -127t-126.5 -83.5t-159.5 -30zM461 70q68 0 125.5 24.5t100 68t65.5 102t23 126.5t-23 126.5t-65.5 102
t-100 67.5t-125.5 24t-126 -24t-100 -67.5t-65.5 -102t-23.5 -126.5t23.5 -126.5t65.5 -102t100 -68t126 -24.5zM457 865q-18 0 -30 12.5t-12 29.5q0 18 9 29l109 108q12 13 30 13t30 -12.5t12 -31.5q0 -8 -2.5 -15.5t-9.5 -13.5l-107 -108q-11 -11 -29 -11z" />
    <glyph glyph-name="Obreve" unicode="&#x14e;" horiz-adv-x="921" 
d="M461 -10q-87 0 -160 30t-126.5 83.5t-82.5 127t-29 160.5t29 160t82.5 126.5t126.5 83.5t160 30t159.5 -30t126.5 -83.5t83 -126.5t29 -160t-29 -160.5t-83 -127t-126.5 -83.5t-159.5 -30zM461 70q68 0 125.5 24.5t100 68t65.5 102t23 126.5t-23 126.5t-65.5 102
t-100 67.5t-125.5 24t-126 -24t-100 -67.5t-65.5 -102t-23.5 -126.5t23.5 -126.5t65.5 -102t100 -68t126 -24.5zM460 857q-43 0 -79 16t-57.5 42.5t-21.5 60.5q0 18 11.5 30.5t29.5 12.5q16 0 28.5 -10t12.5 -27q0 -23 22.5 -39t53.5 -16q36 0 56.5 16t20.5 39q0 17 12.5 27
t29.5 10q18 0 29 -12.5t11 -30.5q-1 -35 -23 -62t-57.5 -42t-78.5 -15z" />
    <glyph glyph-name="Ocircumflex" unicode="&#xd4;" horiz-adv-x="921" 
d="M461 -10q-87 0 -160 30t-126.5 83.5t-82.5 127t-29 160.5t29 160t82.5 126.5t126.5 83.5t160 30t159.5 -30t126.5 -83.5t83 -126.5t29 -160t-29 -160.5t-83 -127t-126.5 -83.5t-159.5 -30zM461 70q68 0 125.5 24.5t100 68t65.5 102t23 126.5t-23 126.5t-65.5 102
t-100 67.5t-125.5 24t-126 -24t-100 -67.5t-65.5 -102t-23.5 -126.5t23.5 -126.5t65.5 -102t100 -68t126 -24.5zM347 862q-19 0 -31.5 10t-12.5 27q0 23 21 37l116 77q9 5 21 5q7 0 12 -1.5t10 -3.5l115 -77q21 -14 21 -37q0 -16 -12 -26.5t-31 -10.5q-7 0 -13.5 2t-12.5 7
l-89 62l-89 -62q-12 -9 -25 -9z" />
    <glyph glyph-name="uni1ED0" unicode="&#x1ed0;" horiz-adv-x="921" 
d="M461 -10q-87 0 -160 30t-126.5 83.5t-82.5 127t-29 160.5t29 160t82.5 126.5t126.5 83.5t160 30t159.5 -30t126.5 -83.5t83 -126.5t29 -160t-29 -160.5t-83 -127t-126.5 -83.5t-159.5 -30zM461 70q68 0 125.5 24.5t100 68t65.5 102t23 126.5t-23 126.5t-65.5 102
t-100 67.5t-125.5 24t-126 -24t-100 -67.5t-65.5 -102t-23.5 -126.5t23.5 -126.5t65.5 -102t100 -68t126 -24.5zM346 862q-18 0 -30.5 10t-12.5 27q0 23 21 37l116 77q9 5 21 5q6 0 11.5 -1.5t10.5 -3.5l115 -77q21 -14 21 -37q0 -16 -12 -26.5t-31 -10.5q-8 0 -14 2t-12 7
l-89 62l-89 -62q-12 -9 -26 -9zM556 1026q-18 0 -30.5 12t-12.5 31q0 17 10 28l108 109q13 12 30 12q20 0 31.5 -12.5t11.5 -31.5q0 -8 -3 -15.5t-9 -12.5l-108 -109q-11 -11 -28 -11z" />
    <glyph glyph-name="uni1ED8" unicode="&#x1ed8;" horiz-adv-x="921" 
d="M461 -10q-87 0 -160 30t-126.5 83.5t-82.5 127t-29 160.5t29 160t82.5 126.5t126.5 83.5t160 30t159.5 -30t126.5 -83.5t83 -126.5t29 -160t-29 -160.5t-83 -127t-126.5 -83.5t-159.5 -30zM461 70q68 0 125.5 24.5t100 68t65.5 102t23 126.5t-23 126.5t-65.5 102
t-100 67.5t-125.5 24t-126 -24t-100 -67.5t-65.5 -102t-23.5 -126.5t23.5 -126.5t65.5 -102t100 -68t126 -24.5zM347 862q-19 0 -31.5 10t-12.5 27q0 23 21 37l116 77q9 5 21 5q7 0 12 -1.5t10 -3.5l115 -77q21 -14 21 -37q0 -16 -12 -26.5t-31 -10.5q-7 0 -13.5 2t-12.5 7
l-89 62l-89 -62q-12 -9 -25 -9zM461 -214q-24 0 -41 17.5t-17 41.5q0 25 17.5 41t40.5 16t40.5 -16t17.5 -41q0 -24 -17 -41.5t-41 -17.5z" />
    <glyph glyph-name="uni1ED2" unicode="&#x1ed2;" horiz-adv-x="921" 
d="M461 -10q-87 0 -160 30t-126.5 83.5t-82.5 127t-29 160.5t29 160t82.5 126.5t126.5 83.5t160 30t159.5 -30t126.5 -83.5t83 -126.5t29 -160t-29 -160.5t-83 -127t-126.5 -83.5t-159.5 -30zM461 70q68 0 125.5 24.5t100 68t65.5 102t23 126.5t-23 126.5t-65.5 102
t-100 67.5t-125.5 24t-126 -24t-100 -67.5t-65.5 -102t-23.5 -126.5t23.5 -126.5t65.5 -102t100 -68t126 -24.5zM346 862q-18 0 -30.5 10t-12.5 27q0 23 21 37l116 77q9 5 21 5q6 0 11.5 -1.5t10.5 -3.5l115 -77q21 -14 21 -37q0 -16 -12 -26.5t-31 -10.5q-8 0 -14 2t-12 7
l-89 62l-89 -62q-12 -9 -26 -9zM558 1030q-17 0 -28 12l-109 108q-11 11 -11 29q0 19 12 31.5t30 12.5t31 -13l107 -108q11 -11 11 -28q0 -19 -12.5 -31.5t-30.5 -12.5z" />
    <glyph glyph-name="uni1ED4" unicode="&#x1ed4;" horiz-adv-x="921" 
d="M461 -10q-87 0 -160 30t-126.5 83.5t-82.5 127t-29 160.5t29 160t82.5 126.5t126.5 83.5t160 30t159.5 -30t126.5 -83.5t83 -126.5t29 -160t-29 -160.5t-83 -127t-126.5 -83.5t-159.5 -30zM461 70q68 0 125.5 24.5t100 68t65.5 102t23 126.5t-23 126.5t-65.5 102
t-100 67.5t-125.5 24t-126 -24t-100 -67.5t-65.5 -102t-23.5 -126.5t23.5 -126.5t65.5 -102t100 -68t126 -24.5zM350 862q-18 0 -30.5 10t-12.5 27q0 23 21 37l116 77q9 5 21 5q6 0 11.5 -1.5t10.5 -3.5l115 -77q21 -14 21 -37q0 -16 -12 -26.5t-31 -10.5q-8 0 -14 2t-12 7
l-89 62l-89 -62q-12 -9 -26 -9zM563 994q-16 0 -27 11.5t-11 27.5v26q0 35 34 42l25 6q20 4 30.5 15t10.5 27q0 22 -13.5 33t-34.5 11q-13 0 -24.5 -4.5t-19.5 -11.5q-6 -5 -13.5 -7.5t-14.5 -2.5q-14 0 -23.5 8.5t-9.5 24.5q0 19 13 30q18 15 40.5 23t50.5 8q51 0 85 -30
t34 -77q0 -48 -31 -71.5t-74 -29.5l11 -8q0 -25 -11 -38t-27 -13z" />
    <glyph glyph-name="uni1ED6" unicode="&#x1ed6;" horiz-adv-x="921" 
d="M461 -10q-87 0 -160 30t-126.5 83.5t-82.5 127t-29 160.5t29 160t82.5 126.5t126.5 83.5t160 30t159.5 -30t126.5 -83.5t83 -126.5t29 -160t-29 -160.5t-83 -127t-126.5 -83.5t-159.5 -30zM461 70q68 0 125.5 24.5t100 68t65.5 102t23 126.5t-23 126.5t-65.5 102
t-100 67.5t-125.5 24t-126 -24t-100 -67.5t-65.5 -102t-23.5 -126.5t23.5 -126.5t65.5 -102t100 -68t126 -24.5zM349 862q-18 0 -30.5 10t-12.5 27q0 23 21 37l116 77q9 5 21 5q7 0 12 -1.5t10 -3.5l115 -77q21 -14 21 -37q0 -16 -12 -26.5t-31 -10.5q-8 0 -14 2t-12 7
l-89 62l-89 -62q-12 -9 -26 -9zM523 1045q-26 0 -46 11.5t-35 26.5q-14 12 -23 19t-20 7t-19 -9t-17 -25q-8 -14 -21.5 -19.5t-27.5 0.5t-19.5 20t2.5 29q19 39 42.5 56.5t54.5 17.5t49 -14t33 -26q15 -13 23 -17.5t15 -4.5q14 0 24 21q9 14 22.5 20.5t27.5 1.5
q17 -7 23 -21t-3 -29q-18 -34 -38.5 -49.5t-46.5 -15.5z" />
    <glyph glyph-name="uni020C" unicode="&#x20c;" horiz-adv-x="921" 
d="M461 -10q-87 0 -160 30t-126.5 83.5t-82.5 127t-29 160.5t29 160t82.5 126.5t126.5 83.5t160 30t159.5 -30t126.5 -83.5t83 -126.5t29 -160t-29 -160.5t-83 -127t-126.5 -83.5t-159.5 -30zM461 70q68 0 125.5 24.5t100 68t65.5 102t23 126.5t-23 126.5t-65.5 102
t-100 67.5t-125.5 24t-126 -24t-100 -67.5t-65.5 -102t-23.5 -126.5t23.5 -126.5t65.5 -102t100 -68t126 -24.5zM566 856q-20 0 -31 21l-59 126q-4 7 -4 16q0 16 12.5 29t31.5 13q13 0 24.5 -7.5t15.5 -19.5l40 -132q3 -6 3 -13q0 -16 -10.5 -24.5t-22.5 -8.5zM418 856
q-21 0 -32 21l-59 126q-2 4 -2.5 8t-0.5 8q0 16 12 29t31 13q13 0 24 -7.5t14 -19.5l43 -132q1 -3 1.5 -6.5t0.5 -6.5q0 -16 -10.5 -24.5t-21.5 -8.5z" />
    <glyph glyph-name="Odieresis" unicode="&#xd6;" horiz-adv-x="921" 
d="M461 -10q-87 0 -160 30t-126.5 83.5t-82.5 127t-29 160.5t29 160t82.5 126.5t126.5 83.5t160 30t159.5 -30t126.5 -83.5t83 -126.5t29 -160t-29 -160.5t-83 -127t-126.5 -83.5t-159.5 -30zM461 70q68 0 125.5 24.5t100 68t65.5 102t23 126.5t-23 126.5t-65.5 102
t-100 67.5t-125.5 24t-126 -24t-100 -67.5t-65.5 -102t-23.5 -126.5t23.5 -126.5t65.5 -102t100 -68t126 -24.5zM355 876q-24 0 -40.5 16t-16.5 41q0 22 16.5 39t40.5 17q23 0 40 -17t17 -39q0 -25 -17 -41t-40 -16zM568 876q-24 0 -40 16t-16 41q0 22 16 39t40 17
q23 0 40 -17t17 -39q0 -25 -17 -41t-40 -16z" />
    <glyph glyph-name="uni022A" unicode="&#x22a;" horiz-adv-x="921" 
d="M461 -10q-87 0 -160 30t-126.5 83.5t-82.5 127t-29 160.5t29 160t82.5 126.5t126.5 83.5t160 30t159.5 -30t126.5 -83.5t83 -126.5t29 -160t-29 -160.5t-83 -127t-126.5 -83.5t-159.5 -30zM461 70q68 0 125.5 24.5t100 68t65.5 102t23 126.5t-23 126.5t-65.5 102
t-100 67.5t-125.5 24t-126 -24t-100 -67.5t-65.5 -102t-23.5 -126.5t23.5 -126.5t65.5 -102t100 -68t126 -24.5zM355 876q-24 0 -40.5 16t-16.5 41q0 22 16.5 39t40.5 17q23 0 40 -17t17 -39q0 -25 -17 -41t-40 -16zM568 876q-24 0 -40 16t-16 41q0 22 16 39t40 17
q23 0 40 -17t17 -39q0 -25 -17 -41t-40 -16zM333 1083q-18 0 -30.5 10.5t-12.5 28.5t12.5 28.5t30.5 10.5h256q18 0 30.5 -10.5t12.5 -28.5t-12.5 -28.5t-30.5 -10.5h-256z" />
    <glyph glyph-name="uni0230" unicode="&#x230;" horiz-adv-x="921" 
d="M461 -10q-87 0 -160 30t-126.5 83.5t-82.5 127t-29 160.5t29 160t82.5 126.5t126.5 83.5t160 30t159.5 -30t126.5 -83.5t83 -126.5t29 -160t-29 -160.5t-83 -127t-126.5 -83.5t-159.5 -30zM461 70q68 0 125.5 24.5t100 68t65.5 102t23 126.5t-23 126.5t-65.5 102
t-100 67.5t-125.5 24t-126 -24t-100 -67.5t-65.5 -102t-23.5 -126.5t23.5 -126.5t65.5 -102t100 -68t126 -24.5zM461 880q-24 0 -41 17.5t-17 41.5q0 25 17.5 41t40.5 16t40.5 -16t17.5 -41q0 -24 -17 -41.5t-41 -17.5zM333 1060q-18 0 -30.5 10.5t-12.5 28.5t12.5 28.5
t30.5 10.5h256q18 0 30.5 -10.5t12.5 -28.5t-12.5 -28.5t-30.5 -10.5h-256z" />
    <glyph glyph-name="uni1ECC" unicode="&#x1ecc;" horiz-adv-x="921" 
d="M461 -10q-87 0 -160 30t-126.5 83.5t-82.5 127t-29 160.5t29 160t82.5 126.5t126.5 83.5t160 30t159.5 -30t126.5 -83.5t83 -126.5t29 -160t-29 -160.5t-83 -127t-126.5 -83.5t-159.5 -30zM461 70q68 0 125.5 24.5t100 68t65.5 102t23 126.5t-23 126.5t-65.5 102
t-100 67.5t-125.5 24t-126 -24t-100 -67.5t-65.5 -102t-23.5 -126.5t23.5 -126.5t65.5 -102t100 -68t126 -24.5zM461 -214q-24 0 -41 17.5t-17 41.5q0 25 17.5 41t40.5 16t40.5 -16t17.5 -41q0 -24 -17 -41.5t-41 -17.5z" />
    <glyph glyph-name="Ograve" unicode="&#xd2;" horiz-adv-x="921" 
d="M461 -10q-87 0 -160 30t-126.5 83.5t-82.5 127t-29 160.5t29 160t82.5 126.5t126.5 83.5t160 30t159.5 -30t126.5 -83.5t83 -126.5t29 -160t-29 -160.5t-83 -127t-126.5 -83.5t-159.5 -30zM461 70q68 0 125.5 24.5t100 68t65.5 102t23 126.5t-23 126.5t-65.5 102
t-100 67.5t-125.5 24t-126 -24t-100 -67.5t-65.5 -102t-23.5 -126.5t23.5 -126.5t65.5 -102t100 -68t126 -24.5zM460 869q-18 0 -29 12l-109 107q-10 13 -10 30q0 18 11.5 31t29.5 13t31 -13l107 -109q11 -9 11 -28q0 -18 -12 -30.5t-30 -12.5z" />
    <glyph glyph-name="uni1ECE" unicode="&#x1ece;" horiz-adv-x="921" 
d="M461 -10q-87 0 -160 30t-126.5 83.5t-82.5 127t-29 160.5t29 160t82.5 126.5t126.5 83.5t160 30t159.5 -30t126.5 -83.5t83 -126.5t29 -160t-29 -160.5t-83 -127t-126.5 -83.5t-159.5 -30zM461 70q68 0 125.5 24.5t100 68t65.5 102t23 126.5t-23 126.5t-65.5 102
t-100 67.5t-125.5 24t-126 -24t-100 -67.5t-65.5 -102t-23.5 -126.5t23.5 -126.5t65.5 -102t100 -68t126 -24.5zM461 833q-16 0 -27.5 11t-11.5 28v26q0 34 34 42l26 5q20 5 30.5 15.5t10.5 27.5q0 21 -14 32.5t-34 11.5q-13 0 -24.5 -5t-20.5 -11q-5 -5 -12.5 -7.5
t-14.5 -2.5q-14 0 -24 8.5t-10 24.5q0 18 13 29q20 16 42 24t50 8q51 0 84.5 -30.5t33.5 -77.5q0 -48 -31 -71t-74 -29l12 -9q0 -25 -11.5 -37.5t-26.5 -12.5z" />
    <glyph glyph-name="Ohorn" unicode="&#x1a0;" horiz-adv-x="921" 
d="M461 -10q-87 0 -160 30t-126.5 83.5t-82.5 127t-29 160.5t29 160t82.5 126.5t126.5 83.5t160 30t159.5 -30t126.5 -83.5t83 -126.5t29 -160t-29 -160.5t-83 -127t-126.5 -83.5t-159.5 -30zM461 70q68 0 125.5 24.5t100 68t65.5 102t23 126.5t-23 126.5t-65.5 102
t-100 67.5t-125.5 24t-126 -24t-100 -67.5t-65.5 -102t-23.5 -126.5t23.5 -126.5t65.5 -102t100 -68t126 -24.5zM652 668v77h45q18 0 31 16t13 43v20q0 18 10 30t28 12q19 0 28.5 -14t9.5 -34v-14q0 -39 -15.5 -69.5t-42.5 -48.5t-62 -18h-45z" />
    <glyph glyph-name="uni1EDA" unicode="&#x1eda;" horiz-adv-x="921" 
d="M461 -10q-87 0 -160 30t-126.5 83.5t-82.5 127t-29 160.5t29 160t82.5 126.5t126.5 83.5t160 30t159.5 -30t126.5 -83.5t83 -126.5t29 -160t-29 -160.5t-83 -127t-126.5 -83.5t-159.5 -30zM461 70q68 0 125.5 24.5t100 68t65.5 102t23 126.5t-23 126.5t-65.5 102
t-100 67.5t-125.5 24t-126 -24t-100 -67.5t-65.5 -102t-23.5 -126.5t23.5 -126.5t65.5 -102t100 -68t126 -24.5zM652 668v77h45q18 0 31 16t13 43v20q0 18 10 30t28 12q19 0 28.5 -14t9.5 -34v-14q0 -39 -15.5 -69.5t-42.5 -48.5t-62 -18h-45zM457 865q-18 0 -30 12.5
t-12 29.5q0 18 9 29l109 108q12 13 30 13t30 -12.5t12 -31.5q0 -8 -2.5 -15.5t-9.5 -13.5l-107 -108q-11 -11 -29 -11z" />
    <glyph glyph-name="uni1EE2" unicode="&#x1ee2;" horiz-adv-x="921" 
d="M461 -10q-87 0 -160 30t-126.5 83.5t-82.5 127t-29 160.5t29 160t82.5 126.5t126.5 83.5t160 30t159.5 -30t126.5 -83.5t83 -126.5t29 -160t-29 -160.5t-83 -127t-126.5 -83.5t-159.5 -30zM461 70q68 0 125.5 24.5t100 68t65.5 102t23 126.5t-23 126.5t-65.5 102
t-100 67.5t-125.5 24t-126 -24t-100 -67.5t-65.5 -102t-23.5 -126.5t23.5 -126.5t65.5 -102t100 -68t126 -24.5zM652 668v77h45q18 0 31 16t13 43v20q0 18 10 30t28 12q19 0 28.5 -14t9.5 -34v-14q0 -39 -15.5 -69.5t-42.5 -48.5t-62 -18h-45zM461 -214q-24 0 -41 17.5
t-17 41.5q0 25 17.5 41t40.5 16t40.5 -16t17.5 -41q0 -24 -17 -41.5t-41 -17.5z" />
    <glyph glyph-name="uni1EDC" unicode="&#x1edc;" horiz-adv-x="921" 
d="M461 -10q-87 0 -160 30t-126.5 83.5t-82.5 127t-29 160.5t29 160t82.5 126.5t126.5 83.5t160 30t159.5 -30t126.5 -83.5t83 -126.5t29 -160t-29 -160.5t-83 -127t-126.5 -83.5t-159.5 -30zM461 70q68 0 125.5 24.5t100 68t65.5 102t23 126.5t-23 126.5t-65.5 102
t-100 67.5t-125.5 24t-126 -24t-100 -67.5t-65.5 -102t-23.5 -126.5t23.5 -126.5t65.5 -102t100 -68t126 -24.5zM652 668v77h45q18 0 31 16t13 43v20q0 18 10 30t28 12q19 0 28.5 -14t9.5 -34v-14q0 -39 -15.5 -69.5t-42.5 -48.5t-62 -18h-45zM460 869q-18 0 -29 12
l-109 107q-10 13 -10 30q0 18 11.5 31t29.5 13t31 -13l107 -109q11 -9 11 -28q0 -18 -12 -30.5t-30 -12.5z" />
    <glyph glyph-name="uni1EDE" unicode="&#x1ede;" horiz-adv-x="921" 
d="M461 -10q-87 0 -160 30t-126.5 83.5t-82.5 127t-29 160.5t29 160t82.5 126.5t126.5 83.5t160 30t159.5 -30t126.5 -83.5t83 -126.5t29 -160t-29 -160.5t-83 -127t-126.5 -83.5t-159.5 -30zM461 70q68 0 125.5 24.5t100 68t65.5 102t23 126.5t-23 126.5t-65.5 102
t-100 67.5t-125.5 24t-126 -24t-100 -67.5t-65.5 -102t-23.5 -126.5t23.5 -126.5t65.5 -102t100 -68t126 -24.5zM652 668v77h45q18 0 31 16t13 43v20q0 18 10 30t28 12q19 0 28.5 -14t9.5 -34v-14q0 -39 -15.5 -69.5t-42.5 -48.5t-62 -18h-45zM461 833q-16 0 -27.5 11
t-11.5 28v26q0 34 34 42l26 5q20 5 30.5 15.5t10.5 27.5q0 21 -14 32.5t-34 11.5q-13 0 -24.5 -5t-20.5 -11q-5 -5 -12.5 -7.5t-14.5 -2.5q-14 0 -24 8.5t-10 24.5q0 18 13 29q20 16 42 24t50 8q51 0 84.5 -30.5t33.5 -77.5q0 -48 -31 -71t-74 -29l12 -9q0 -25 -11.5 -37.5
t-26.5 -12.5z" />
    <glyph glyph-name="uni1EE0" unicode="&#x1ee0;" horiz-adv-x="921" 
d="M461 -10q-87 0 -160 30t-126.5 83.5t-82.5 127t-29 160.5t29 160t82.5 126.5t126.5 83.5t160 30t159.5 -30t126.5 -83.5t83 -126.5t29 -160t-29 -160.5t-83 -127t-126.5 -83.5t-159.5 -30zM461 70q68 0 125.5 24.5t100 68t65.5 102t23 126.5t-23 126.5t-65.5 102
t-100 67.5t-125.5 24t-126 -24t-100 -67.5t-65.5 -102t-23.5 -126.5t23.5 -126.5t65.5 -102t100 -68t126 -24.5zM652 668v77h45q18 0 31 16t13 43v20q0 18 10 30t28 12q19 0 28.5 -14t9.5 -34v-14q0 -39 -15.5 -69.5t-42.5 -48.5t-62 -18h-45zM566 859q-32 0 -56.5 11.5
t-41.5 21.5q-22 13 -35.5 18t-26.5 5q-17 0 -32 -7.5t-29 -25.5q-10 -14 -24.5 -19t-29.5 3q-14 7 -16.5 23t7.5 30q24 32 57 49.5t70 17.5q32 0 55.5 -11t39.5 -21q21 -12 33.5 -17.5t27.5 -5.5t26 5t20 14q12 12 24 16.5t27 -4.5q14 -7 16.5 -23.5t-8.5 -30.5
q-39 -49 -104 -49z" />
    <glyph glyph-name="Ohungarumlaut" unicode="&#x150;" horiz-adv-x="921" 
d="M461 -10q-87 0 -160 30t-126.5 83.5t-82.5 127t-29 160.5t29 160t82.5 126.5t126.5 83.5t160 30t159.5 -30t126.5 -83.5t83 -126.5t29 -160t-29 -160.5t-83 -127t-126.5 -83.5t-159.5 -30zM461 70q68 0 125.5 24.5t100 68t65.5 102t23 126.5t-23 126.5t-65.5 102
t-100 67.5t-125.5 24t-126 -24t-100 -67.5t-65.5 -102t-23.5 -126.5t23.5 -126.5t65.5 -102t100 -68t126 -24.5zM533 856q-11 0 -21.5 8.5t-10.5 24.5q0 3 0.5 6.5t1.5 6.5l43 132q3 12 14 19.5t24 7.5q19 0 31 -13t12 -30q0 -3 -0.5 -7t-2.5 -8l-59 -126q-11 -21 -32 -21z
M385 856q-12 0 -22.5 8.5t-10.5 24.5q0 3 1 6.5t2 6.5l40 132q4 12 15.5 19.5t24.5 7.5q19 0 31.5 -13t12.5 -30q0 -7 -4 -15l-59 -126q-10 -21 -31 -21z" />
    <glyph glyph-name="uni020E" unicode="&#x20e;" horiz-adv-x="921" 
d="M461 -10q-87 0 -160 30t-126.5 83.5t-82.5 127t-29 160.5t29 160t82.5 126.5t126.5 83.5t160 30t159.5 -30t126.5 -83.5t83 -126.5t29 -160t-29 -160.5t-83 -127t-126.5 -83.5t-159.5 -30zM461 70q68 0 125.5 24.5t100 68t65.5 102t23 126.5t-23 126.5t-65.5 102
t-100 67.5t-125.5 24t-126 -24t-100 -67.5t-65.5 -102t-23.5 -126.5t23.5 -126.5t65.5 -102t100 -68t126 -24.5zM343 856q-18 0 -29.5 12.5t-11.5 31.5q0 33 21.5 60t57.5 42.5t80 15.5q42 0 77.5 -15t57.5 -42t23 -62q0 -18 -11.5 -30.5t-28.5 -12.5t-29.5 10.5t-12.5 27.5
q0 23 -20.5 38.5t-55.5 15.5q-32 0 -55 -16t-23 -38q0 -17 -12 -27.5t-28 -10.5z" />
    <glyph glyph-name="Omacron" unicode="&#x14c;" horiz-adv-x="921" 
d="M461 -10q-87 0 -160 30t-126.5 83.5t-82.5 127t-29 160.5t29 160t82.5 126.5t126.5 83.5t160 30t159.5 -30t126.5 -83.5t83 -126.5t29 -160t-29 -160.5t-83 -127t-126.5 -83.5t-159.5 -30zM461 70q68 0 125.5 24.5t100 68t65.5 102t23 126.5t-23 126.5t-65.5 102
t-100 67.5t-125.5 24t-126 -24t-100 -67.5t-65.5 -102t-23.5 -126.5t23.5 -126.5t65.5 -102t100 -68t126 -24.5zM333 887q-18 0 -30.5 10.5t-12.5 28.5t12.5 28.5t30.5 10.5h256q18 0 30.5 -10.5t12.5 -28.5t-12.5 -28.5t-30.5 -10.5h-256z" />
    <glyph glyph-name="uni01EA" unicode="&#x1ea;" horiz-adv-x="921" 
d="M461 -10q-87 0 -160 30t-126.5 83.5t-82.5 127t-29 160.5t29 160t82.5 126.5t126.5 83.5t160 30t159.5 -30t126.5 -83.5t83 -126.5t29 -160t-29 -160.5t-83 -127t-126.5 -83.5t-159.5 -30zM461 70q68 0 125.5 24.5t100 68t65.5 102t23 126.5t-23 126.5t-65.5 102
t-100 67.5t-125.5 24t-126 -24t-100 -67.5t-65.5 -102t-23.5 -126.5t23.5 -126.5t65.5 -102t100 -68t126 -24.5zM459 -267q-32 0 -59 16t-43.5 43.5t-16.5 60.5q0 56 50 98q13 9 20.5 18t11.5 19q12 22 37 22q18 0 30 -11.5t13 -30.5q0 -22 -15.5 -43t-47.5 -44
q-7 -5 -10.5 -13t-3.5 -15q0 -14 10 -24t24 -10q5 0 10 1t8 4l34 25q12 8 25 8q19 0 31 -12t12 -31t-15 -34l-39 -25q-31 -22 -66 -22z" />
    <glyph glyph-name="Oslash" unicode="&#xd8;" horiz-adv-x="895" 
d="M89 0q-22 0 -29 19t6 32l93 93l32 24l504 504l28 21l81 80q8 8 21 8q19 0 29 -17t-6 -33l-81 -81l-26 -19l-509 -509l-28 -20l-94 -94q-8 -8 -21 -8zM461 -10q-87 0 -160 30t-126.5 83.5t-82.5 127t-29 160.5t29 160t82.5 126.5t126.5 83.5t160 30t159.5 -30t126.5 -83.5
t83 -126.5t29 -160t-29 -160.5t-83 -127t-126.5 -83.5t-159.5 -30zM461 70q68 0 125.5 24.5t100 68t65.5 102t23 126.5t-23 126.5t-65.5 102t-100 67.5t-125.5 24t-126 -24t-100 -67.5t-65.5 -102t-23.5 -126.5t23.5 -126.5t65.5 -102t100 -68t126 -24.5z" />
    <glyph glyph-name="Oslashacute" unicode="&#x1fe;" horiz-adv-x="895" 
d="M89 0q-22 0 -29 19t6 32l93 93l32 24l504 504l28 21l81 80q8 8 21 8q19 0 29 -17t-6 -33l-81 -81l-26 -19l-509 -509l-28 -20l-94 -94q-8 -8 -21 -8zM461 -10q-87 0 -160 30t-126.5 83.5t-82.5 127t-29 160.5t29 160t82.5 126.5t126.5 83.5t160 30t159.5 -30t126.5 -83.5
t83 -126.5t29 -160t-29 -160.5t-83 -127t-126.5 -83.5t-159.5 -30zM461 70q68 0 125.5 24.5t100 68t65.5 102t23 126.5t-23 126.5t-65.5 102t-100 67.5t-125.5 24t-126 -24t-100 -67.5t-65.5 -102t-23.5 -126.5t23.5 -126.5t65.5 -102t100 -68t126 -24.5zM457 865
q-18 0 -30 12.5t-12 29.5q0 18 9 29l109 108q12 13 30 13t30 -12.5t12 -31.5q0 -8 -2.5 -15.5t-9.5 -13.5l-107 -108q-11 -11 -29 -11z" />
    <glyph glyph-name="Otilde" unicode="&#xd5;" horiz-adv-x="921" 
d="M461 -10q-87 0 -160 30t-126.5 83.5t-82.5 127t-29 160.5t29 160t82.5 126.5t126.5 83.5t160 30t159.5 -30t126.5 -83.5t83 -126.5t29 -160t-29 -160.5t-83 -127t-126.5 -83.5t-159.5 -30zM461 70q68 0 125.5 24.5t100 68t65.5 102t23 126.5t-23 126.5t-65.5 102
t-100 67.5t-125.5 24t-126 -24t-100 -67.5t-65.5 -102t-23.5 -126.5t23.5 -126.5t65.5 -102t100 -68t126 -24.5zM566 859q-32 0 -56.5 11.5t-41.5 21.5q-22 13 -35.5 18t-26.5 5q-17 0 -32 -7.5t-29 -25.5q-10 -14 -24.5 -19t-29.5 3q-14 7 -16.5 23t7.5 30q24 32 57 49.5
t70 17.5q32 0 55.5 -11t39.5 -21q21 -12 33.5 -17.5t27.5 -5.5t26 5t20 14q12 12 24 16.5t27 -4.5q14 -7 16.5 -23.5t-8.5 -30.5q-39 -49 -104 -49z" />
    <glyph glyph-name="uni022C" unicode="&#x22c;" horiz-adv-x="921" 
d="M461 -10q-87 0 -160 30t-126.5 83.5t-82.5 127t-29 160.5t29 160t82.5 126.5t126.5 83.5t160 30t159.5 -30t126.5 -83.5t83 -126.5t29 -160t-29 -160.5t-83 -127t-126.5 -83.5t-159.5 -30zM461 70q68 0 125.5 24.5t100 68t65.5 102t23 126.5t-23 126.5t-65.5 102
t-100 67.5t-125.5 24t-126 -24t-100 -67.5t-65.5 -102t-23.5 -126.5t23.5 -126.5t65.5 -102t100 -68t126 -24.5zM566 859q-32 0 -56.5 11.5t-41.5 21.5q-22 13 -35.5 18t-26.5 5q-17 0 -32 -7.5t-29 -25.5q-10 -14 -24.5 -19t-29.5 3q-14 7 -16.5 23t7.5 30q24 32 57 49.5
t70 17.5q32 0 55.5 -11t39.5 -21q21 -12 33.5 -17.5t27.5 -5.5t26 5t20 14q12 12 24 16.5t27 -4.5q14 -7 16.5 -23.5t-8.5 -30.5q-39 -49 -104 -49zM343 1053q-18 0 -30.5 10.5t-12.5 28.5t12.5 28.5t30.5 10.5h256q18 0 30.5 -10.5t12.5 -28.5t-12.5 -28.5t-30.5 -10.5
h-256z" />
    <glyph glyph-name="OE" unicode="&#x152;" horiz-adv-x="1155" 
d="M461 -10q-87 0 -160 30t-126.5 83.5t-82.5 127t-29 160.5t29 160t82.5 126.5t126.5 83.5t160 30q55 0 105 -5t93 -5v-96q-39 13 -89.5 19.5t-108.5 6.5q-68 0 -126 -24t-100 -67.5t-65.5 -102t-23.5 -126.5t23.5 -126.5t65.5 -102t100 -68t126 -24.5q118 0 197 26v-95
q-43 0 -92 -5.5t-105 -5.5zM638 0q-18 0 -30.5 12t-12.5 31v695q0 19 12.5 31t30.5 12h430q18 0 30 -11.5t12 -29.5q0 -17 -12 -28.5t-30 -11.5h-387v-266h271q19 0 31 -12t12 -29q0 -18 -12 -29.5t-31 -11.5h-271v-271h387q18 0 30 -11.5t12 -28.5q0 -18 -12 -29.5
t-30 -11.5h-430z" />
    <glyph glyph-name="P" unicode="P" horiz-adv-x="615" 
d="M143 0q-19 0 -31 12t-12 31v695q0 19 12 31t31 12h200q74 0 131.5 -32.5t89.5 -90t32 -133.5q0 -73 -32 -129.5t-89.5 -89t-131.5 -32.5h-157v-231q0 -19 -12 -31t-31 -12zM186 356h157q49 0 87.5 21.5t60.5 60t22 87.5q0 52 -21.5 91t-60.5 61.5t-88 22.5h-157v-344z
" />
    <glyph glyph-name="Thorn" unicode="&#xde;" horiz-adv-x="615" 
d="M143 0q-19 0 -31 12t-12 31v695q0 19 12 31t31 12t31 -12t12 -31v-97h157q74 0 131.5 -29t89.5 -81.5t32 -120.5q0 -67 -32 -118.5t-89.5 -80t-131.5 -28.5h-157v-140q0 -19 -12 -31t-31 -12zM186 257h157q49 0 88 20t60.5 54.5t21.5 78.5t-21.5 79.5t-60.5 56t-88 20.5
h-157v-309z" />
    <glyph glyph-name="Q" unicode="Q" horiz-adv-x="921" 
d="M749 13l-214 213q-14 14 -14 30t14 30q12 12 28.5 12t29.5 -12l215 -215q12 -13 12 -29t-12 -29q-13 -13 -29.5 -13t-29.5 13zM461 -10q-87 0 -160 30t-126.5 83.5t-82.5 127t-29 160.5t29 160t82.5 126.5t126.5 83.5t160 30t159.5 -30t126.5 -83.5t83 -126.5t29 -160
t-29 -160.5t-83 -127t-126.5 -83.5t-159.5 -30zM461 70q68 0 125.5 24.5t100 68t65.5 102t23 126.5t-23 126.5t-65.5 102t-100 67.5t-125.5 24t-126 -24t-100 -67.5t-65.5 -102t-23.5 -126.5t23.5 -126.5t65.5 -102t100 -68t126 -24.5z" />
    <glyph glyph-name="R" unicode="R" horiz-adv-x="622" 
d="M143 0q-19 0 -31 12t-12 31v695q0 19 12 31t31 12h185q73 0 130.5 -31t90 -85.5t32.5 -126.5q0 -68 -32.5 -121t-90 -83t-130.5 -30h-142v-261q0 -19 -12 -31t-31 -12zM560 0q-13 0 -22 5.5t-15 16.5l-189 301l85 22l175 -279q16 -25 5.5 -45.5t-39.5 -20.5zM186 386h142
q49 0 87.5 19.5t60.5 54t22 78.5q0 48 -22 84.5t-60.5 57t-87.5 20.5h-142v-314z" />
    <glyph glyph-name="Racute" unicode="&#x154;" horiz-adv-x="622" 
d="M143 0q-19 0 -31 12t-12 31v695q0 19 12 31t31 12h185q73 0 130.5 -31t90 -85.5t32.5 -126.5q0 -68 -32.5 -121t-90 -83t-130.5 -30h-142v-261q0 -19 -12 -31t-31 -12zM560 0q-13 0 -22 5.5t-15 16.5l-189 301l85 22l175 -279q16 -25 5.5 -45.5t-39.5 -20.5zM186 386h142
q49 0 87.5 19.5t60.5 54t22 78.5q0 48 -22 84.5t-60.5 57t-87.5 20.5h-142v-314zM326 865q-18 0 -30 12.5t-12 29.5q0 18 9 29l109 108q12 13 30 13t30 -12.5t12 -31.5q0 -8 -2.5 -15.5t-9.5 -13.5l-107 -108q-11 -11 -29 -11z" />
    <glyph glyph-name="Rcaron" unicode="&#x158;" horiz-adv-x="622" 
d="M143 0q-19 0 -31 12t-12 31v695q0 19 12 31t31 12h185q73 0 130.5 -31t90 -85.5t32.5 -126.5q0 -68 -32.5 -121t-90 -83t-130.5 -30h-142v-261q0 -19 -12 -31t-31 -12zM560 0q-13 0 -22 5.5t-15 16.5l-189 301l85 22l175 -279q16 -25 5.5 -45.5t-39.5 -20.5zM186 386h142
q49 0 87.5 19.5t60.5 54t22 78.5q0 48 -22 84.5t-60.5 57t-87.5 20.5h-142v-314zM330 869q-14 0 -21 6l-116 76q-21 15 -21 36q0 20 21 28.5t48 -10.5l89 -60l89 59q31 21 50 11.5t19 -28.5q0 -21 -21 -36l-115 -76q-8 -6 -22 -6z" />
    <glyph glyph-name="uni0156" unicode="&#x156;" horiz-adv-x="622" 
d="M143 0q-19 0 -31 12t-12 31v695q0 19 12 31t31 12h185q73 0 130.5 -31t90 -85.5t32.5 -126.5q0 -68 -32.5 -121t-90 -83t-130.5 -30h-142v-261q0 -19 -12 -31t-31 -12zM560 0q-13 0 -22 5.5t-15 16.5l-189 301l85 22l175 -279q16 -25 5.5 -45.5t-39.5 -20.5zM186 386h142
q49 0 87.5 19.5t60.5 54t22 78.5q0 48 -22 84.5t-60.5 57t-87.5 20.5h-142v-314zM335 -241q-26 0 -54.5 8.5t-48 25t-19.5 40.5q0 13 8.5 21t22.5 8t23.5 -6t18 -15t21 -15.5t34.5 -6.5q29 0 42.5 10t13.5 31q0 18 -17 29.5t-53 11.5q-21 0 -33.5 7t-12.5 22q0 31 50 31
q57 0 92.5 -28t35.5 -72q0 -47 -35.5 -74.5t-88.5 -27.5z" />
    <glyph glyph-name="uni0210" unicode="&#x210;" horiz-adv-x="622" 
d="M143 0q-19 0 -31 12t-12 31v695q0 19 12 31t31 12h185q73 0 130.5 -31t90 -85.5t32.5 -126.5q0 -68 -32.5 -121t-90 -83t-130.5 -30h-142v-261q0 -19 -12 -31t-31 -12zM560 0q-13 0 -22 5.5t-15 16.5l-189 301l85 22l175 -279q16 -25 5.5 -45.5t-39.5 -20.5zM186 386h142
q49 0 87.5 19.5t60.5 54t22 78.5q0 48 -22 84.5t-60.5 57t-87.5 20.5h-142v-314zM435 856q-20 0 -31 21l-59 126q-4 7 -4 16q0 16 12.5 29t31.5 13q13 0 24.5 -7.5t15.5 -19.5l40 -132q3 -6 3 -13q0 -16 -10.5 -24.5t-22.5 -8.5zM287 856q-21 0 -32 21l-59 126q-2 4 -2.5 8
t-0.5 8q0 16 12 29t31 13q13 0 24 -7.5t14 -19.5l43 -132q1 -3 1.5 -6.5t0.5 -6.5q0 -16 -10.5 -24.5t-21.5 -8.5z" />
    <glyph glyph-name="uni0212" unicode="&#x212;" horiz-adv-x="622" 
d="M143 0q-19 0 -31 12t-12 31v695q0 19 12 31t31 12h185q73 0 130.5 -31t90 -85.5t32.5 -126.5q0 -68 -32.5 -121t-90 -83t-130.5 -30h-142v-261q0 -19 -12 -31t-31 -12zM560 0q-13 0 -22 5.5t-15 16.5l-189 301l85 22l175 -279q16 -25 5.5 -45.5t-39.5 -20.5zM186 386h142
q49 0 87.5 19.5t60.5 54t22 78.5q0 48 -22 84.5t-60.5 57t-87.5 20.5h-142v-314zM212 856q-18 0 -29.5 12.5t-11.5 31.5q0 33 21.5 60t57.5 42.5t80 15.5q42 0 77.5 -15t57.5 -42t23 -62q0 -18 -11.5 -30.5t-28.5 -12.5t-29.5 10.5t-12.5 27.5q0 23 -20.5 38.5t-55.5 15.5
q-32 0 -55 -16t-23 -38q0 -17 -12 -27.5t-28 -10.5z" />
    <glyph glyph-name="S" unicode="S" horiz-adv-x="670" 
d="M342 -10q-64 0 -119.5 19t-96.5 53.5t-61 80.5q-9 17 -0.5 32t28.5 20q15 4 30 -3.5t22 -23.5q15 -28 43.5 -50.5t68 -35t85.5 -12.5q52 0 93 17t65 49t24 78q0 58 -44 101.5t-140 54.5q-119 14 -186.5 73t-67.5 146q0 62 34 107.5t93 70t134 24.5q57 0 102 -17.5
t78.5 -46.5t55.5 -65q12 -18 8.5 -34.5t-18.5 -25.5q-16 -8 -33.5 -2.5t-26.5 21.5q-15 24 -37.5 44.5t-54.5 32.5t-76 13q-77 0 -126 -32t-49 -95q0 -32 17.5 -60.5t59 -48.5t113.5 -30q124 -16 186 -75t62 -155q0 -55 -20.5 -97t-57.5 -70.5t-85.5 -43t-102.5 -14.5z" />
    <glyph glyph-name="Sacute" unicode="&#x15a;" horiz-adv-x="670" 
d="M342 -10q-64 0 -119.5 19t-96.5 53.5t-61 80.5q-9 17 -0.5 32t28.5 20q15 4 30 -3.5t22 -23.5q15 -28 43.5 -50.5t68 -35t85.5 -12.5q52 0 93 17t65 49t24 78q0 58 -44 101.5t-140 54.5q-119 14 -186.5 73t-67.5 146q0 62 34 107.5t93 70t134 24.5q57 0 102 -17.5
t78.5 -46.5t55.5 -65q12 -18 8.5 -34.5t-18.5 -25.5q-16 -8 -33.5 -2.5t-26.5 21.5q-15 24 -37.5 44.5t-54.5 32.5t-76 13q-77 0 -126 -32t-49 -95q0 -32 17.5 -60.5t59 -48.5t113.5 -30q124 -16 186 -75t62 -155q0 -55 -20.5 -97t-57.5 -70.5t-85.5 -43t-102.5 -14.5z
M331 865q-18 0 -30 12.5t-12 29.5q0 18 9 29l109 108q12 13 30 13t30 -12.5t12 -31.5q0 -8 -2.5 -15.5t-9.5 -13.5l-107 -108q-11 -11 -29 -11z" />
    <glyph glyph-name="Scaron" unicode="&#x160;" horiz-adv-x="670" 
d="M342 -10q-64 0 -119.5 19t-96.5 53.5t-61 80.5q-9 17 -0.5 32t28.5 20q15 4 30 -3.5t22 -23.5q15 -28 43.5 -50.5t68 -35t85.5 -12.5q52 0 93 17t65 49t24 78q0 58 -44 101.5t-140 54.5q-119 14 -186.5 73t-67.5 146q0 62 34 107.5t93 70t134 24.5q57 0 102 -17.5
t78.5 -46.5t55.5 -65q12 -18 8.5 -34.5t-18.5 -25.5q-16 -8 -33.5 -2.5t-26.5 21.5q-15 24 -37.5 44.5t-54.5 32.5t-76 13q-77 0 -126 -32t-49 -95q0 -32 17.5 -60.5t59 -48.5t113.5 -30q124 -16 186 -75t62 -155q0 -55 -20.5 -97t-57.5 -70.5t-85.5 -43t-102.5 -14.5z
M335 869q-14 0 -21 6l-116 76q-21 15 -21 36q0 20 21 28.5t48 -10.5l89 -60l89 59q31 21 50 11.5t19 -28.5q0 -21 -21 -36l-115 -76q-8 -6 -22 -6z" />
    <glyph glyph-name="Scedilla" unicode="&#x15e;" horiz-adv-x="670" 
d="M342 -10q-64 0 -119.5 19t-96.5 53.5t-61 80.5q-9 17 -0.5 32t28.5 20q15 4 30 -3.5t22 -23.5q15 -28 43.5 -50.5t68 -35t85.5 -12.5q52 0 93 17t65 49t24 78q0 58 -44 101.5t-140 54.5q-119 14 -186.5 73t-67.5 146q0 62 34 107.5t93 70t134 24.5q57 0 102 -17.5
t78.5 -46.5t55.5 -65q12 -18 8.5 -34.5t-18.5 -25.5q-16 -8 -33.5 -2.5t-26.5 21.5q-15 24 -37.5 44.5t-54.5 32.5t-76 13q-77 0 -126 -32t-49 -95q0 -32 17.5 -60.5t59 -48.5t113.5 -30q124 -16 186 -75t62 -155q0 -55 -20.5 -97t-57.5 -70.5t-85.5 -43t-102.5 -14.5z
M333 -233q-56 0 -91.5 23.5t-35.5 53.5q0 16 12 28t28 12q12 0 20.5 -5.5t14.5 -16.5q8 -13 21 -20t32 -7q22 0 36.5 9.5t14.5 27.5t-11 29t-39 17q-26 5 -37 18t-1 41l15 37q5 16 16.5 25t31.5 9t30.5 -14.5t1.5 -33.5l-15 -36q52 -12 74 -35.5t22 -57.5q0 -28 -18 -51.5
t-49.5 -38t-72.5 -14.5z" />
    <glyph glyph-name="Scircumflex" unicode="&#x15c;" horiz-adv-x="670" 
d="M342 -10q-64 0 -119.5 19t-96.5 53.5t-61 80.5q-9 17 -0.5 32t28.5 20q15 4 30 -3.5t22 -23.5q15 -28 43.5 -50.5t68 -35t85.5 -12.5q52 0 93 17t65 49t24 78q0 58 -44 101.5t-140 54.5q-119 14 -186.5 73t-67.5 146q0 62 34 107.5t93 70t134 24.5q57 0 102 -17.5
t78.5 -46.5t55.5 -65q12 -18 8.5 -34.5t-18.5 -25.5q-16 -8 -33.5 -2.5t-26.5 21.5q-15 24 -37.5 44.5t-54.5 32.5t-76 13q-77 0 -126 -32t-49 -95q0 -32 17.5 -60.5t59 -48.5t113.5 -30q124 -16 186 -75t62 -155q0 -55 -20.5 -97t-57.5 -70.5t-85.5 -43t-102.5 -14.5z
M221 862q-19 0 -31.5 10t-12.5 27q0 23 21 37l116 77q9 5 21 5q7 0 12 -1.5t10 -3.5l115 -77q21 -14 21 -37q0 -16 -12 -26.5t-31 -10.5q-7 0 -13.5 2t-12.5 7l-89 62l-89 -62q-12 -9 -25 -9z" />
    <glyph glyph-name="uni0218" unicode="&#x218;" horiz-adv-x="670" 
d="M342 -10q-64 0 -119.5 19t-96.5 53.5t-61 80.5q-9 17 -0.5 32t28.5 20q15 4 30 -3.5t22 -23.5q15 -28 43.5 -50.5t68 -35t85.5 -12.5q52 0 93 17t65 49t24 78q0 58 -44 101.5t-140 54.5q-119 14 -186.5 73t-67.5 146q0 62 34 107.5t93 70t134 24.5q57 0 102 -17.5
t78.5 -46.5t55.5 -65q12 -18 8.5 -34.5t-18.5 -25.5q-16 -8 -33.5 -2.5t-26.5 21.5q-15 24 -37.5 44.5t-54.5 32.5t-76 13q-77 0 -126 -32t-49 -95q0 -32 17.5 -60.5t59 -48.5t113.5 -30q124 -16 186 -75t62 -155q0 -55 -20.5 -97t-57.5 -70.5t-85.5 -43t-102.5 -14.5z
M340 -241q-26 0 -54.5 8.5t-48 25t-19.5 40.5q0 13 8.5 21t22.5 8t23.5 -6t18 -15t21 -15.5t34.5 -6.5q29 0 42.5 10t13.5 31q0 18 -17 29.5t-53 11.5q-21 0 -33.5 7t-12.5 22q0 31 50 31q57 0 92.5 -28t35.5 -72q0 -47 -35.5 -74.5t-88.5 -27.5z" />
    <glyph glyph-name="uni1E9E" unicode="&#x1e9e;" horiz-adv-x="704" 
d="M142 0q-22 0 -32 11.5t-10 27.5v505q0 74 33 127t90 81.5t128 28.5q57 0 105 -18t79 -46.5t37 -60.5q4 -23 -3.5 -37.5t-18.5 -28.5l-178 -188l-41 53l168 186q-24 29 -62.5 45t-85.5 16q-49 0 -85.5 -20t-58 -57.5t-21.5 -90.5v-495q0 -17 -12 -28t-32 -11zM403 -3
q-33 0 -63.5 7t-53.5 19q-10 6 -15 14t-5 25q0 20 15.5 29.5t38.5 3.5q13 -5 26 -9t26 -5.5t31 -1.5q47 0 83.5 19.5t57.5 55t21 83.5q0 46 -20 79.5t-56.5 52.5t-85.5 19h-42q-17 0 -28.5 11t-11.5 29q0 17 11.5 28.5t28.5 11.5h54q66 0 119 -28.5t84 -80.5t31 -122
q0 -69 -32 -123t-87.5 -85.5t-126.5 -31.5z" />
    <glyph glyph-name="uni018F" unicode="&#x18f;" horiz-adv-x="842" 
d="M426 -10q-81 0 -147.5 29t-115 81.5t-74.5 122.5t-26 153q0 24 15.5 39t40.5 15h611v-76h-631l48 17q0 -86 36.5 -154t99.5 -107.5t143 -39.5q79 0 140 41.5t96 113t35 162.5q0 94 -40.5 167t-111.5 115t-163 42q-53 0 -101 -16t-88 -45q-13 -9 -28.5 -8.5t-26.5 12.5
t-10 27.5t12 24.5q49 40 110.5 62.5t137.5 22.5q84 0 155.5 -30t125 -84.5t82.5 -128t29 -161.5q0 -86 -26.5 -158.5t-74.5 -125.5t-112.5 -83t-140.5 -30z" />
    <glyph glyph-name="T" unicode="T" horiz-adv-x="657" 
d="M328 0q-18 0 -30.5 12.5t-12.5 30.5v738h86v-738q0 -18 -12 -30.5t-31 -12.5zM55 702q-18 0 -29 11.5t-11 27.5q0 18 11 29t29 11h547q18 0 29 -11t11 -29q0 -16 -11 -27.5t-29 -11.5h-547z" />
    <glyph glyph-name="Tbar" unicode="&#x166;" horiz-adv-x="657" 
d="M328 0q-18 0 -30.5 12.5t-12.5 30.5v738h86v-738q0 -18 -12 -30.5t-31 -12.5zM55 702q-18 0 -29 11.5t-11 27.5q0 18 11 29t29 11h547q18 0 29 -11t11 -29q0 -16 -11 -27.5t-29 -11.5h-547zM170 354q-18 0 -29.5 10t-11.5 27q0 18 11.5 28t29.5 10h320q19 0 30.5 -10
t11.5 -28q0 -17 -11.5 -27t-30.5 -10h-320z" />
    <glyph glyph-name="Tcaron" unicode="&#x164;" horiz-adv-x="657" 
d="M328 0q-18 0 -30.5 12.5t-12.5 30.5v738h86v-738q0 -18 -12 -30.5t-31 -12.5zM55 702q-18 0 -29 11.5t-11 27.5q0 18 11 29t29 11h547q18 0 29 -11t11 -29q0 -16 -11 -27.5t-29 -11.5h-547zM328 869q-14 0 -21 6l-116 76q-21 15 -21 36q0 20 21 28.5t48 -10.5l89 -60
l89 59q31 21 50 11.5t19 -28.5q0 -21 -21 -36l-115 -76q-8 -6 -22 -6z" />
    <glyph glyph-name="uni0162" unicode="&#x162;" horiz-adv-x="657" 
d="M328 0q-18 0 -30.5 12.5t-12.5 30.5v738h86v-738q0 -18 -12 -30.5t-31 -12.5zM55 702q-18 0 -29 11.5t-11 27.5q0 18 11 29t29 11h547q18 0 29 -11t11 -29q0 -16 -11 -27.5t-29 -11.5h-547zM326 -233q-56 0 -91.5 23.5t-35.5 53.5q0 16 12 28t28 12q12 0 20.5 -5.5
t14.5 -16.5q8 -13 21 -20t32 -7q22 0 36.5 9.5t14.5 27.5t-11 29t-39 17q-26 5 -37 18t-1 41l15 37q5 16 16.5 25t31.5 9t30.5 -14.5t1.5 -33.5l-15 -36q52 -12 74 -35.5t22 -57.5q0 -28 -18 -51.5t-49.5 -38t-72.5 -14.5z" />
    <glyph glyph-name="uni021A" unicode="&#x21a;" horiz-adv-x="657" 
d="M328 0q-18 0 -30.5 12.5t-12.5 30.5v738h86v-738q0 -18 -12 -30.5t-31 -12.5zM55 702q-18 0 -29 11.5t-11 27.5q0 18 11 29t29 11h547q18 0 29 -11t11 -29q0 -16 -11 -27.5t-29 -11.5h-547zM334 -241q-26 0 -54.5 8.5t-48 25t-19.5 40.5q0 13 8.5 21t22.5 8t23.5 -6
t18 -15t21 -15.5t34.5 -6.5q29 0 42.5 10t13.5 31q0 18 -17 29.5t-53 11.5q-21 0 -33.5 7t-12.5 22q0 31 50 31q57 0 92.5 -28t35.5 -72q0 -47 -35.5 -74.5t-88.5 -27.5z" />
    <glyph glyph-name="U" unicode="U" horiz-adv-x="827" 
d="M416 -16q-93 0 -164.5 35t-111.5 97.5t-40 142.5v479q0 19 12 31t31 12t31 -12t12 -31v-479q0 -57 29 -101t81.5 -69t119.5 -25q66 0 116.5 25t79.5 69t29 101v479q0 19 12.5 31t30.5 12q20 0 31.5 -12t11.5 -31v-479q0 -80 -40 -142.5t-110 -97.5t-161 -35z" />
    <glyph glyph-name="Uacute" unicode="&#xda;" horiz-adv-x="827" 
d="M416 -16q-93 0 -164.5 35t-111.5 97.5t-40 142.5v479q0 19 12 31t31 12t31 -12t12 -31v-479q0 -57 29 -101t81.5 -69t119.5 -25q66 0 116.5 25t79.5 69t29 101v479q0 19 12.5 31t30.5 12q20 0 31.5 -12t11.5 -31v-479q0 -80 -40 -142.5t-110 -97.5t-161 -35zM410 865
q-18 0 -30 12.5t-12 29.5q0 18 9 29l109 108q12 13 30 13t30 -12.5t12 -31.5q0 -8 -2.5 -15.5t-9.5 -13.5l-107 -108q-11 -11 -29 -11z" />
    <glyph glyph-name="Ubreve" unicode="&#x16c;" horiz-adv-x="827" 
d="M416 -16q-93 0 -164.5 35t-111.5 97.5t-40 142.5v479q0 19 12 31t31 12t31 -12t12 -31v-479q0 -57 29 -101t81.5 -69t119.5 -25q66 0 116.5 25t79.5 69t29 101v479q0 19 12.5 31t30.5 12q20 0 31.5 -12t11.5 -31v-479q0 -80 -40 -142.5t-110 -97.5t-161 -35zM413 857
q-43 0 -79 16t-57.5 42.5t-21.5 60.5q0 18 11.5 30.5t29.5 12.5q16 0 28.5 -10t12.5 -27q0 -23 22.5 -39t53.5 -16q36 0 56.5 16t20.5 39q0 17 12.5 27t29.5 10q18 0 29 -12.5t11 -30.5q-1 -35 -23 -62t-57.5 -42t-78.5 -15z" />
    <glyph glyph-name="Ucircumflex" unicode="&#xdb;" horiz-adv-x="827" 
d="M416 -16q-93 0 -164.5 35t-111.5 97.5t-40 142.5v479q0 19 12 31t31 12t31 -12t12 -31v-479q0 -57 29 -101t81.5 -69t119.5 -25q66 0 116.5 25t79.5 69t29 101v479q0 19 12.5 31t30.5 12q20 0 31.5 -12t11.5 -31v-479q0 -80 -40 -142.5t-110 -97.5t-161 -35zM300 862
q-19 0 -31.5 10t-12.5 27q0 23 21 37l116 77q9 5 21 5q7 0 12 -1.5t10 -3.5l115 -77q21 -14 21 -37q0 -16 -12 -26.5t-31 -10.5q-7 0 -13.5 2t-12.5 7l-89 62l-89 -62q-12 -9 -25 -9z" />
    <glyph glyph-name="uni0214" unicode="&#x214;" horiz-adv-x="827" 
d="M416 -16q-93 0 -164.5 35t-111.5 97.5t-40 142.5v479q0 19 12 31t31 12t31 -12t12 -31v-479q0 -57 29 -101t81.5 -69t119.5 -25q66 0 116.5 25t79.5 69t29 101v479q0 19 12.5 31t30.5 12q20 0 31.5 -12t11.5 -31v-479q0 -80 -40 -142.5t-110 -97.5t-161 -35zM519 856
q-20 0 -31 21l-59 126q-4 7 -4 16q0 16 12.5 29t31.5 13q13 0 24.5 -7.5t15.5 -19.5l40 -132q3 -6 3 -13q0 -16 -10.5 -24.5t-22.5 -8.5zM371 856q-21 0 -32 21l-59 126q-2 4 -2.5 8t-0.5 8q0 16 12 29t31 13q13 0 24 -7.5t14 -19.5l43 -132q1 -3 1.5 -6.5t0.5 -6.5
q0 -16 -10.5 -24.5t-21.5 -8.5z" />
    <glyph glyph-name="Udieresis" unicode="&#xdc;" horiz-adv-x="827" 
d="M416 -16q-93 0 -164.5 35t-111.5 97.5t-40 142.5v479q0 19 12 31t31 12t31 -12t12 -31v-479q0 -57 29 -101t81.5 -69t119.5 -25q66 0 116.5 25t79.5 69t29 101v479q0 19 12.5 31t30.5 12q20 0 31.5 -12t11.5 -31v-479q0 -80 -40 -142.5t-110 -97.5t-161 -35zM308 876
q-24 0 -40.5 16t-16.5 41q0 22 16.5 39t40.5 17q23 0 40 -17t17 -39q0 -25 -17 -41t-40 -16zM521 876q-24 0 -40 16t-16 41q0 22 16 39t40 17q23 0 40 -17t17 -39q0 -25 -17 -41t-40 -16z" />
    <glyph glyph-name="uni1EE4" unicode="&#x1ee4;" horiz-adv-x="827" 
d="M416 -16q-93 0 -164.5 35t-111.5 97.5t-40 142.5v479q0 19 12 31t31 12t31 -12t12 -31v-479q0 -57 29 -101t81.5 -69t119.5 -25q66 0 116.5 25t79.5 69t29 101v479q0 19 12.5 31t30.5 12q20 0 31.5 -12t11.5 -31v-479q0 -80 -40 -142.5t-110 -97.5t-161 -35zM414 -214
q-24 0 -41 17.5t-17 41.5q0 25 17.5 41t40.5 16t40.5 -16t17.5 -41q0 -24 -17 -41.5t-41 -17.5z" />
    <glyph glyph-name="Ugrave" unicode="&#xd9;" horiz-adv-x="827" 
d="M416 -16q-93 0 -164.5 35t-111.5 97.5t-40 142.5v479q0 19 12 31t31 12t31 -12t12 -31v-479q0 -57 29 -101t81.5 -69t119.5 -25q66 0 116.5 25t79.5 69t29 101v479q0 19 12.5 31t30.5 12q20 0 31.5 -12t11.5 -31v-479q0 -80 -40 -142.5t-110 -97.5t-161 -35zM413 869
q-18 0 -29 12l-109 107q-10 13 -10 30q0 18 11.5 31t29.5 13t31 -13l107 -109q11 -9 11 -28q0 -18 -12 -30.5t-30 -12.5z" />
    <glyph glyph-name="uni1EE6" unicode="&#x1ee6;" horiz-adv-x="827" 
d="M416 -16q-93 0 -164.5 35t-111.5 97.5t-40 142.5v479q0 19 12 31t31 12t31 -12t12 -31v-479q0 -57 29 -101t81.5 -69t119.5 -25q66 0 116.5 25t79.5 69t29 101v479q0 19 12.5 31t30.5 12q20 0 31.5 -12t11.5 -31v-479q0 -80 -40 -142.5t-110 -97.5t-161 -35zM414 833
q-16 0 -27.5 11t-11.5 28v26q0 34 34 42l26 5q20 5 30.5 15.5t10.5 27.5q0 21 -14 32.5t-34 11.5q-13 0 -24.5 -5t-20.5 -11q-5 -5 -12.5 -7.5t-14.5 -2.5q-14 0 -24 8.5t-10 24.5q0 18 13 29q20 16 42 24t50 8q51 0 84.5 -30.5t33.5 -77.5q0 -48 -31 -71t-74 -29l12 -9
q0 -25 -11.5 -37.5t-26.5 -12.5z" />
    <glyph glyph-name="Uhorn" unicode="&#x1af;" horiz-adv-x="827" 
d="M416 -16q-93 0 -164.5 35t-111.5 97.5t-40 142.5v479q0 19 12 31t31 12t31 -12t12 -31v-479q0 -57 29 -101t81.5 -69t119.5 -25q66 0 116.5 25t79.5 69t29 101v479q0 19 12.5 31t30.5 12q20 0 31.5 -12t11.5 -31v-479q0 -80 -40 -142.5t-110 -97.5t-161 -35zM684 704v77
h45q18 0 31 16t13 43v20q0 18 10 30t28 12q19 0 28.5 -14t9.5 -34v-14q0 -39 -15.5 -69.5t-42.5 -48.5t-62 -18h-45z" />
    <glyph glyph-name="uni1EE8" unicode="&#x1ee8;" horiz-adv-x="827" 
d="M416 -16q-93 0 -164.5 35t-111.5 97.5t-40 142.5v479q0 19 12 31t31 12t31 -12t12 -31v-479q0 -57 29 -101t81.5 -69t119.5 -25q66 0 116.5 25t79.5 69t29 101v479q0 19 12.5 31t30.5 12q20 0 31.5 -12t11.5 -31v-479q0 -80 -40 -142.5t-110 -97.5t-161 -35zM684 704v77
h45q18 0 31 16t13 43v20q0 18 10 30t28 12q19 0 28.5 -14t9.5 -34v-14q0 -39 -15.5 -69.5t-42.5 -48.5t-62 -18h-45zM410 865q-18 0 -30 12.5t-12 29.5q0 18 9 29l109 108q12 13 30 13t30 -12.5t12 -31.5q0 -8 -2.5 -15.5t-9.5 -13.5l-107 -108q-11 -11 -29 -11z" />
    <glyph glyph-name="uni1EF0" unicode="&#x1ef0;" horiz-adv-x="827" 
d="M416 -16q-93 0 -164.5 35t-111.5 97.5t-40 142.5v479q0 19 12 31t31 12t31 -12t12 -31v-479q0 -57 29 -101t81.5 -69t119.5 -25q66 0 116.5 25t79.5 69t29 101v479q0 19 12.5 31t30.5 12q20 0 31.5 -12t11.5 -31v-479q0 -80 -40 -142.5t-110 -97.5t-161 -35zM684 704v77
h45q18 0 31 16t13 43v20q0 18 10 30t28 12q19 0 28.5 -14t9.5 -34v-14q0 -39 -15.5 -69.5t-42.5 -48.5t-62 -18h-45zM414 -214q-24 0 -41 17.5t-17 41.5q0 25 17.5 41t40.5 16t40.5 -16t17.5 -41q0 -24 -17 -41.5t-41 -17.5z" />
    <glyph glyph-name="uni1EEA" unicode="&#x1eea;" horiz-adv-x="827" 
d="M416 -16q-93 0 -164.5 35t-111.5 97.5t-40 142.5v479q0 19 12 31t31 12t31 -12t12 -31v-479q0 -57 29 -101t81.5 -69t119.5 -25q66 0 116.5 25t79.5 69t29 101v479q0 19 12.5 31t30.5 12q20 0 31.5 -12t11.5 -31v-479q0 -80 -40 -142.5t-110 -97.5t-161 -35zM684 704v77
h45q18 0 31 16t13 43v20q0 18 10 30t28 12q19 0 28.5 -14t9.5 -34v-14q0 -39 -15.5 -69.5t-42.5 -48.5t-62 -18h-45zM413 869q-18 0 -29 12l-109 107q-10 13 -10 30q0 18 11.5 31t29.5 13t31 -13l107 -109q11 -9 11 -28q0 -18 -12 -30.5t-30 -12.5z" />
    <glyph glyph-name="uni1EEC" unicode="&#x1eec;" horiz-adv-x="827" 
d="M416 -16q-93 0 -164.5 35t-111.5 97.5t-40 142.5v479q0 19 12 31t31 12t31 -12t12 -31v-479q0 -57 29 -101t81.5 -69t119.5 -25q66 0 116.5 25t79.5 69t29 101v479q0 19 12.5 31t30.5 12q20 0 31.5 -12t11.5 -31v-479q0 -80 -40 -142.5t-110 -97.5t-161 -35zM684 704v77
h45q18 0 31 16t13 43v20q0 18 10 30t28 12q19 0 28.5 -14t9.5 -34v-14q0 -39 -15.5 -69.5t-42.5 -48.5t-62 -18h-45zM414 833q-16 0 -27.5 11t-11.5 28v26q0 34 34 42l26 5q20 5 30.5 15.5t10.5 27.5q0 21 -14 32.5t-34 11.5q-13 0 -24.5 -5t-20.5 -11q-5 -5 -12.5 -7.5
t-14.5 -2.5q-14 0 -24 8.5t-10 24.5q0 18 13 29q20 16 42 24t50 8q51 0 84.5 -30.5t33.5 -77.5q0 -48 -31 -71t-74 -29l12 -9q0 -25 -11.5 -37.5t-26.5 -12.5z" />
    <glyph glyph-name="uni1EEE" unicode="&#x1eee;" horiz-adv-x="827" 
d="M416 -16q-93 0 -164.5 35t-111.5 97.5t-40 142.5v479q0 19 12 31t31 12t31 -12t12 -31v-479q0 -57 29 -101t81.5 -69t119.5 -25q66 0 116.5 25t79.5 69t29 101v479q0 19 12.5 31t30.5 12q20 0 31.5 -12t11.5 -31v-479q0 -80 -40 -142.5t-110 -97.5t-161 -35zM684 704v77
h45q18 0 31 16t13 43v20q0 18 10 30t28 12q19 0 28.5 -14t9.5 -34v-14q0 -39 -15.5 -69.5t-42.5 -48.5t-62 -18h-45zM519 859q-32 0 -56.5 11.5t-41.5 21.5q-22 13 -35.5 18t-26.5 5q-17 0 -32 -7.5t-29 -25.5q-10 -14 -24.5 -19t-29.5 3q-14 7 -16.5 23t7.5 30
q24 32 57 49.5t70 17.5q32 0 55.5 -11t39.5 -21q21 -12 33.5 -17.5t27.5 -5.5t26 5t20 14q12 12 24 16.5t27 -4.5q14 -7 16.5 -23.5t-8.5 -30.5q-39 -49 -104 -49z" />
    <glyph glyph-name="Uhungarumlaut" unicode="&#x170;" horiz-adv-x="827" 
d="M416 -16q-93 0 -164.5 35t-111.5 97.5t-40 142.5v479q0 19 12 31t31 12t31 -12t12 -31v-479q0 -57 29 -101t81.5 -69t119.5 -25q66 0 116.5 25t79.5 69t29 101v479q0 19 12.5 31t30.5 12q20 0 31.5 -12t11.5 -31v-479q0 -80 -40 -142.5t-110 -97.5t-161 -35zM486 856
q-11 0 -21.5 8.5t-10.5 24.5q0 3 0.5 6.5t1.5 6.5l43 132q3 12 14 19.5t24 7.5q19 0 31 -13t12 -30q0 -3 -0.5 -7t-2.5 -8l-59 -126q-11 -21 -32 -21zM338 856q-12 0 -22.5 8.5t-10.5 24.5q0 3 1 6.5t2 6.5l40 132q4 12 15.5 19.5t24.5 7.5q19 0 31.5 -13t12.5 -30
q0 -7 -4 -15l-59 -126q-10 -21 -31 -21z" />
    <glyph glyph-name="uni0216" unicode="&#x216;" horiz-adv-x="827" 
d="M416 -16q-93 0 -164.5 35t-111.5 97.5t-40 142.5v479q0 19 12 31t31 12t31 -12t12 -31v-479q0 -57 29 -101t81.5 -69t119.5 -25q66 0 116.5 25t79.5 69t29 101v479q0 19 12.5 31t30.5 12q20 0 31.5 -12t11.5 -31v-479q0 -80 -40 -142.5t-110 -97.5t-161 -35zM296 856
q-18 0 -29.5 12.5t-11.5 31.5q0 33 21.5 60t57.5 42.5t80 15.5q42 0 77.5 -15t57.5 -42t23 -62q0 -18 -11.5 -30.5t-28.5 -12.5t-29.5 10.5t-12.5 27.5q0 23 -20.5 38.5t-55.5 15.5q-32 0 -55 -16t-23 -38q0 -17 -12 -27.5t-28 -10.5z" />
    <glyph glyph-name="Umacron" unicode="&#x16a;" horiz-adv-x="827" 
d="M416 -16q-93 0 -164.5 35t-111.5 97.5t-40 142.5v479q0 19 12 31t31 12t31 -12t12 -31v-479q0 -57 29 -101t81.5 -69t119.5 -25q66 0 116.5 25t79.5 69t29 101v479q0 19 12.5 31t30.5 12q20 0 31.5 -12t11.5 -31v-479q0 -80 -40 -142.5t-110 -97.5t-161 -35zM286 887
q-18 0 -30.5 10.5t-12.5 28.5t12.5 28.5t30.5 10.5h256q18 0 30.5 -10.5t12.5 -28.5t-12.5 -28.5t-30.5 -10.5h-256z" />
    <glyph glyph-name="Uogonek" unicode="&#x172;" horiz-adv-x="827" 
d="M416 -16q-93 0 -164.5 35t-111.5 97.5t-40 142.5v479q0 19 12 31t31 12t31 -12t12 -31v-479q0 -57 29 -101t81.5 -69t119.5 -25q66 0 116.5 25t79.5 69t29 101v479q0 19 12.5 31t30.5 12q20 0 31.5 -12t11.5 -31v-479q0 -80 -40 -142.5t-110 -97.5t-161 -35zM513 -214
q-32 0 -59 16t-43.5 43.5t-16.5 60.5q0 56 50 98q13 9 20.5 18t11.5 19q12 22 37 22q18 0 30 -11.5t13 -30.5q0 -22 -15.5 -43t-47.5 -44q-7 -5 -10.5 -13t-3.5 -15q0 -14 10 -24t24 -10q5 0 10 1t8 4l34 25q12 8 25 8q19 0 31 -12t12 -31t-15 -34l-39 -25q-31 -22 -66 -22z
" />
    <glyph glyph-name="Uring" unicode="&#x16e;" horiz-adv-x="827" 
d="M416 -16q-93 0 -164.5 35t-111.5 97.5t-40 142.5v479q0 19 12 31t31 12t31 -12t12 -31v-479q0 -57 29 -101t81.5 -69t119.5 -25q66 0 116.5 25t79.5 69t29 101v479q0 19 12.5 31t30.5 12q20 0 31.5 -12t11.5 -31v-479q0 -80 -40 -142.5t-110 -97.5t-161 -35zM414 825
q-43 0 -72 28.5t-29 72.5q0 43 29 72t72 29t71.5 -29t28.5 -72t-28 -72t-72 -29zM414 873q23 0 37.5 15.5t14.5 37.5q0 23 -14.5 37.5t-37.5 14.5q-22 0 -37 -14.5t-15 -37.5q0 -22 15 -37.5t37 -15.5z" />
    <glyph glyph-name="Utilde" unicode="&#x168;" horiz-adv-x="827" 
d="M416 -16q-93 0 -164.5 35t-111.5 97.5t-40 142.5v479q0 19 12 31t31 12t31 -12t12 -31v-479q0 -57 29 -101t81.5 -69t119.5 -25q66 0 116.5 25t79.5 69t29 101v479q0 19 12.5 31t30.5 12q20 0 31.5 -12t11.5 -31v-479q0 -80 -40 -142.5t-110 -97.5t-161 -35zM519 859
q-32 0 -56.5 11.5t-41.5 21.5q-22 13 -35.5 18t-26.5 5q-17 0 -32 -7.5t-29 -25.5q-10 -14 -24.5 -19t-29.5 3q-14 7 -16.5 23t7.5 30q24 32 57 49.5t70 17.5q32 0 55.5 -11t39.5 -21q21 -12 33.5 -17.5t27.5 -5.5t26 5t20 14q12 12 24 16.5t27 -4.5q14 -7 16.5 -23.5
t-8.5 -30.5q-39 -49 -104 -49z" />
    <glyph glyph-name="V" unicode="V" horiz-adv-x="722" 
d="M362 0q-27 0 -40 27l-295 688q-12 30 -2 48t36 18q28 0 39 -27l271 -647h-19l271 646q7 16 16.5 22t24.5 6q26 0 35 -18.5t-1 -42.5l-298 -693q-6 -14 -15.5 -20.5t-22.5 -6.5z" />
    <glyph glyph-name="W" unicode="W" horiz-adv-x="938" 
d="M267 0q-16 0 -27.5 9.5t-15.5 25.5l-204 685q-8 27 2 44t33 17q13 0 24.5 -7.5t17.5 -25.5l182 -633h-23l171 620q3 12 14.5 20t26.5 8q13 0 25 -7.5t16 -21.5l172 -619h-22l183 638q7 28 42 28q23 0 31 -18t1 -43l-203 -684q-6 -17 -17 -26.5t-27 -9.5q-15 0 -26.5 10
t-16.5 25l-170 631h24l-170 -630q-5 -16 -16.5 -26t-26.5 -10z" />
    <glyph glyph-name="Wacute" unicode="&#x1e82;" horiz-adv-x="938" 
d="M267 0q-16 0 -27.5 9.5t-15.5 25.5l-204 685q-8 27 2 44t33 17q13 0 24.5 -7.5t17.5 -25.5l182 -633h-23l171 620q3 12 14.5 20t26.5 8q13 0 25 -7.5t16 -21.5l172 -619h-22l183 638q7 28 42 28q23 0 31 -18t1 -43l-203 -684q-6 -17 -17 -26.5t-27 -9.5q-15 0 -26.5 10
t-16.5 25l-170 631h24l-170 -630q-5 -16 -16.5 -26t-26.5 -10zM465 865q-18 0 -30 12.5t-12 29.5q0 18 9 29l109 108q12 13 30 13t30 -12.5t12 -31.5q0 -8 -2.5 -15.5t-9.5 -13.5l-107 -108q-11 -11 -29 -11z" />
    <glyph glyph-name="Wcircumflex" unicode="&#x174;" horiz-adv-x="938" 
d="M267 0q-16 0 -27.5 9.5t-15.5 25.5l-204 685q-8 27 2 44t33 17q13 0 24.5 -7.5t17.5 -25.5l182 -633h-23l171 620q3 12 14.5 20t26.5 8q13 0 25 -7.5t16 -21.5l172 -619h-22l183 638q7 28 42 28q23 0 31 -18t1 -43l-203 -684q-6 -17 -17 -26.5t-27 -9.5q-15 0 -26.5 10
t-16.5 25l-170 631h24l-170 -630q-5 -16 -16.5 -26t-26.5 -10zM355 862q-19 0 -31.5 10t-12.5 27q0 23 21 37l116 77q9 5 21 5q7 0 12 -1.5t10 -3.5l115 -77q21 -14 21 -37q0 -16 -12 -26.5t-31 -10.5q-7 0 -13.5 2t-12.5 7l-89 62l-89 -62q-12 -9 -25 -9z" />
    <glyph glyph-name="Wdieresis" unicode="&#x1e84;" horiz-adv-x="938" 
d="M267 0q-16 0 -27.5 9.5t-15.5 25.5l-204 685q-8 27 2 44t33 17q13 0 24.5 -7.5t17.5 -25.5l182 -633h-23l171 620q3 12 14.5 20t26.5 8q13 0 25 -7.5t16 -21.5l172 -619h-22l183 638q7 28 42 28q23 0 31 -18t1 -43l-203 -684q-6 -17 -17 -26.5t-27 -9.5q-15 0 -26.5 10
t-16.5 25l-170 631h24l-170 -630q-5 -16 -16.5 -26t-26.5 -10zM363 876q-24 0 -40.5 16t-16.5 41q0 22 16.5 39t40.5 17q23 0 40 -17t17 -39q0 -25 -17 -41t-40 -16zM576 876q-24 0 -40 16t-16 41q0 22 16 39t40 17q23 0 40 -17t17 -39q0 -25 -17 -41t-40 -16z" />
    <glyph glyph-name="Wgrave" unicode="&#x1e80;" horiz-adv-x="938" 
d="M267 0q-16 0 -27.5 9.5t-15.5 25.5l-204 685q-8 27 2 44t33 17q13 0 24.5 -7.5t17.5 -25.5l182 -633h-23l171 620q3 12 14.5 20t26.5 8q13 0 25 -7.5t16 -21.5l172 -619h-22l183 638q7 28 42 28q23 0 31 -18t1 -43l-203 -684q-6 -17 -17 -26.5t-27 -9.5q-15 0 -26.5 10
t-16.5 25l-170 631h24l-170 -630q-5 -16 -16.5 -26t-26.5 -10zM468 869q-18 0 -29 12l-109 107q-10 13 -10 30q0 18 11.5 31t29.5 13t31 -13l107 -109q11 -9 11 -28q0 -18 -12 -30.5t-30 -12.5z" />
    <glyph glyph-name="X" unicode="X" horiz-adv-x="710" 
d="M88 0q-19 0 -29 11.5t-11 28t10 29.5l258 350l39 33l233 315q12 14 32 14q17 0 27.5 -11.5t11.5 -27t-8 -28.5l-245 -331l-37 -31l-251 -339q-12 -13 -30 -13zM623 0q-9 0 -17.5 4t-15.5 12l-244 338l-33 25l-240 335q-10 13 -8.5 29t11.5 27t28 11q21 0 32 -14l231 -320
l31 -23l256 -355q10 -13 9.5 -29.5t-11 -28t-29.5 -11.5z" />
    <glyph glyph-name="Y" unicode="Y" horiz-adv-x="655" 
d="M327 0q-17 0 -30 12.5t-13 30.5v245l-270 426q-11 17 -8.5 32t14 25t27.5 10q14 0 22 -6t15 -16l265 -425h-41l266 425q7 11 16 16.5t23 5.5q15 0 25 -10.5t12 -26t-8 -30.5l-272 -426v-245q0 -18 -12.5 -30.5t-30.5 -12.5z" />
    <glyph glyph-name="Yacute" unicode="&#xdd;" horiz-adv-x="655" 
d="M327 0q-17 0 -30 12.5t-13 30.5v245l-270 426q-11 17 -8.5 32t14 25t27.5 10q14 0 22 -6t15 -16l265 -425h-41l266 425q7 11 16 16.5t23 5.5q15 0 25 -10.5t12 -26t-8 -30.5l-272 -426v-245q0 -18 -12.5 -30.5t-30.5 -12.5zM324 865q-18 0 -30 12.5t-12 29.5q0 18 9 29
l109 108q12 13 30 13t30 -12.5t12 -31.5q0 -8 -2.5 -15.5t-9.5 -13.5l-107 -108q-11 -11 -29 -11z" />
    <glyph glyph-name="Ycircumflex" unicode="&#x176;" horiz-adv-x="655" 
d="M327 0q-17 0 -30 12.5t-13 30.5v245l-270 426q-11 17 -8.5 32t14 25t27.5 10q14 0 22 -6t15 -16l265 -425h-41l266 425q7 11 16 16.5t23 5.5q15 0 25 -10.5t12 -26t-8 -30.5l-272 -426v-245q0 -18 -12.5 -30.5t-30.5 -12.5zM213 862q-19 0 -31.5 10t-12.5 27q0 23 21 37
l116 77q9 5 21 5q7 0 12 -1.5t10 -3.5l115 -77q21 -14 21 -37q0 -16 -12 -26.5t-31 -10.5q-7 0 -13.5 2t-12.5 7l-89 62l-89 -62q-12 -9 -25 -9z" />
    <glyph glyph-name="Ydieresis" unicode="&#x178;" horiz-adv-x="655" 
d="M327 0q-17 0 -30 12.5t-13 30.5v245l-270 426q-11 17 -8.5 32t14 25t27.5 10q14 0 22 -6t15 -16l265 -425h-41l266 425q7 11 16 16.5t23 5.5q15 0 25 -10.5t12 -26t-8 -30.5l-272 -426v-245q0 -18 -12.5 -30.5t-30.5 -12.5zM221 876q-24 0 -40.5 16t-16.5 41
q0 22 16.5 39t40.5 17q23 0 40 -17t17 -39q0 -25 -17 -41t-40 -16zM434 876q-24 0 -40 16t-16 41q0 22 16 39t40 17q23 0 40 -17t17 -39q0 -25 -17 -41t-40 -16z" />
    <glyph glyph-name="uni1EF4" unicode="&#x1ef4;" horiz-adv-x="655" 
d="M327 0q-17 0 -30 12.5t-13 30.5v245l-270 426q-11 17 -8.5 32t14 25t27.5 10q14 0 22 -6t15 -16l265 -425h-41l266 425q7 11 16 16.5t23 5.5q15 0 25 -10.5t12 -26t-8 -30.5l-272 -426v-245q0 -18 -12.5 -30.5t-30.5 -12.5zM328 -214q-24 0 -41 17.5t-17 41.5
q0 25 17.5 41t40.5 16t40.5 -16t17.5 -41q0 -24 -17 -41.5t-41 -17.5z" />
    <glyph glyph-name="Ygrave" unicode="&#x1ef2;" horiz-adv-x="655" 
d="M327 0q-17 0 -30 12.5t-13 30.5v245l-270 426q-11 17 -8.5 32t14 25t27.5 10q14 0 22 -6t15 -16l265 -425h-41l266 425q7 11 16 16.5t23 5.5q15 0 25 -10.5t12 -26t-8 -30.5l-272 -426v-245q0 -18 -12.5 -30.5t-30.5 -12.5zM326 869q-18 0 -29 12l-109 107q-10 13 -10 30
q0 18 11.5 31t29.5 13t31 -13l107 -109q11 -9 11 -28q0 -18 -12 -30.5t-30 -12.5z" />
    <glyph glyph-name="uni1EF6" unicode="&#x1ef6;" horiz-adv-x="655" 
d="M327 0q-17 0 -30 12.5t-13 30.5v245l-270 426q-11 17 -8.5 32t14 25t27.5 10q14 0 22 -6t15 -16l265 -425h-41l266 425q7 11 16 16.5t23 5.5q15 0 25 -10.5t12 -26t-8 -30.5l-272 -426v-245q0 -18 -12.5 -30.5t-30.5 -12.5zM328 833q-16 0 -27.5 11t-11.5 28v26
q0 34 34 42l26 5q20 5 30.5 15.5t10.5 27.5q0 21 -14 32.5t-34 11.5q-13 0 -24.5 -5t-20.5 -11q-5 -5 -12.5 -7.5t-14.5 -2.5q-14 0 -24 8.5t-10 24.5q0 18 13 29q20 16 42 24t50 8q51 0 84.5 -30.5t33.5 -77.5q0 -48 -31 -71t-74 -29l12 -9q0 -25 -11.5 -37.5t-26.5 -12.5z
" />
    <glyph glyph-name="uni0232" unicode="&#x232;" horiz-adv-x="655" 
d="M327 0q-17 0 -30 12.5t-13 30.5v245l-270 426q-11 17 -8.5 32t14 25t27.5 10q14 0 22 -6t15 -16l265 -425h-41l266 425q7 11 16 16.5t23 5.5q15 0 25 -10.5t12 -26t-8 -30.5l-272 -426v-245q0 -18 -12.5 -30.5t-30.5 -12.5zM200 887q-18 0 -30.5 10.5t-12.5 28.5
t12.5 28.5t30.5 10.5h256q18 0 30.5 -10.5t12.5 -28.5t-12.5 -28.5t-30.5 -10.5h-256z" />
    <glyph glyph-name="uni1EF8" unicode="&#x1ef8;" horiz-adv-x="655" 
d="M327 0q-17 0 -30 12.5t-13 30.5v245l-270 426q-11 17 -8.5 32t14 25t27.5 10q14 0 22 -6t15 -16l265 -425h-41l266 425q7 11 16 16.5t23 5.5q15 0 25 -10.5t12 -26t-8 -30.5l-272 -426v-245q0 -18 -12.5 -30.5t-30.5 -12.5zM433 859q-32 0 -56.5 11.5t-41.5 21.5
q-22 13 -35.5 18t-26.5 5q-17 0 -32 -7.5t-29 -25.5q-10 -14 -24.5 -19t-29.5 3q-14 7 -16.5 23t7.5 30q24 32 57 49.5t70 17.5q32 0 55.5 -11t39.5 -21q21 -12 33.5 -17.5t27.5 -5.5t26 5t20 14q12 12 24 16.5t27 -4.5q14 -7 16.5 -23.5t-8.5 -30.5q-39 -49 -104 -49z" />
    <glyph glyph-name="Z" unicode="Z" horiz-adv-x="730" 
d="M94 0q-19 0 -30.5 12t-12.5 28.5t8 28.5l509 635h-469q-20 0 -30.5 10t-10.5 27t12 28.5t31 11.5h534q19 0 30.5 -12t13 -28t-8.5 -27l-511 -637h476q18 0 30 -11t12 -27q0 -17 -12 -28t-30 -11h-541z" />
    <glyph glyph-name="Zacute" unicode="&#x179;" horiz-adv-x="730" 
d="M94 0q-19 0 -30.5 12t-12.5 28.5t8 28.5l509 635h-469q-20 0 -30.5 10t-10.5 27t12 28.5t31 11.5h534q19 0 30.5 -12t13 -28t-8.5 -27l-511 -637h476q18 0 30 -11t12 -27q0 -17 -12 -28t-30 -11h-541zM361 865q-18 0 -30 12.5t-12 29.5q0 18 9 29l109 108q12 13 30 13
t30 -12.5t12 -31.5q0 -8 -2.5 -15.5t-9.5 -13.5l-107 -108q-11 -11 -29 -11z" />
    <glyph glyph-name="Zcaron" unicode="&#x17d;" horiz-adv-x="730" 
d="M94 0q-19 0 -30.5 12t-12.5 28.5t8 28.5l509 635h-469q-20 0 -30.5 10t-10.5 27t12 28.5t31 11.5h534q19 0 30.5 -12t13 -28t-8.5 -27l-511 -637h476q18 0 30 -11t12 -27q0 -17 -12 -28t-30 -11h-541zM365 869q-14 0 -21 6l-116 76q-21 15 -21 36q0 20 21 28.5t48 -10.5
l89 -60l89 59q31 21 50 11.5t19 -28.5q0 -21 -21 -36l-115 -76q-8 -6 -22 -6z" />
    <glyph glyph-name="Zdotaccent" unicode="&#x17b;" horiz-adv-x="730" 
d="M94 0q-19 0 -30.5 12t-12.5 28.5t8 28.5l509 635h-469q-20 0 -30.5 10t-10.5 27t12 28.5t31 11.5h534q19 0 30.5 -12t13 -28t-8.5 -27l-511 -637h476q18 0 30 -11t12 -27q0 -17 -12 -28t-30 -11h-541zM364 880q-24 0 -41 17.5t-17 41.5q0 25 17.5 41t40.5 16t40.5 -16
t17.5 -41q0 -24 -17 -41.5t-41 -17.5z" />
    <glyph glyph-name="a" unicode="a" 
d="M327 -5q-76 0 -136 36.5t-95 99.5t-35 142q0 80 36.5 143t99.5 99.5t142 36.5q78 0 140.5 -36.5t99 -99.5t37.5 -143l-34 -17q0 -74 -33.5 -133t-91 -93.5t-130.5 -34.5zM339 71q56 0 99.5 26.5t69 72.5t25.5 103q0 58 -25.5 103.5t-69 72.5t-99.5 27q-55 0 -99.5 -27
t-70.5 -72.5t-26 -103.5q0 -57 26 -103t70.5 -72.5t99.5 -26.5zM573 0q-18 0 -30.5 11.5t-12.5 30.5v165l19 87l67 -21v-231q0 -19 -12 -30.5t-31 -11.5z" />
    <glyph glyph-name="aacute" unicode="&#xe1;" 
d="M327 -5q-76 0 -136 36.5t-95 99.5t-35 142q0 80 36.5 143t99.5 99.5t142 36.5q78 0 140.5 -36.5t99 -99.5t37.5 -143l-34 -17q0 -74 -33.5 -133t-91 -93.5t-130.5 -34.5zM339 71q56 0 99.5 26.5t69 72.5t25.5 103q0 58 -25.5 103.5t-69 72.5t-99.5 27q-55 0 -99.5 -27
t-70.5 -72.5t-26 -103.5q0 -57 26 -103t70.5 -72.5t99.5 -26.5zM573 0q-18 0 -30.5 11.5t-12.5 30.5v165l19 87l67 -21v-231q0 -19 -12 -30.5t-31 -11.5zM335 631q-18 0 -30 12.5t-12 29.5q0 18 9 29l109 108q12 13 30 13t30 -12.5t12 -31.5q0 -8 -2.5 -15.5t-9.5 -13.5
l-107 -108q-11 -11 -29 -11z" />
    <glyph glyph-name="abreve" unicode="&#x103;" 
d="M327 -5q-76 0 -136 36.5t-95 99.5t-35 142q0 80 36.5 143t99.5 99.5t142 36.5q78 0 140.5 -36.5t99 -99.5t37.5 -143l-34 -17q0 -74 -33.5 -133t-91 -93.5t-130.5 -34.5zM339 71q56 0 99.5 26.5t69 72.5t25.5 103q0 58 -25.5 103.5t-69 72.5t-99.5 27q-55 0 -99.5 -27
t-70.5 -72.5t-26 -103.5q0 -57 26 -103t70.5 -72.5t99.5 -26.5zM573 0q-18 0 -30.5 11.5t-12.5 30.5v165l19 87l67 -21v-231q0 -19 -12 -30.5t-31 -11.5zM338 623q-43 0 -79 16t-57.5 42.5t-21.5 60.5q0 18 11.5 30.5t29.5 12.5q16 0 28.5 -10t12.5 -27q0 -23 22.5 -39
t53.5 -16q36 0 56.5 16t20.5 39q0 17 12.5 27t29.5 10q18 0 29 -12.5t11 -30.5q-1 -35 -23 -62t-57.5 -42t-78.5 -15z" />
    <glyph glyph-name="uni1EAF" unicode="&#x1eaf;" 
d="M327 -5q-76 0 -136 36.5t-95 99.5t-35 142q0 80 36.5 143t99.5 99.5t142 36.5q78 0 140.5 -36.5t99 -99.5t37.5 -143l-34 -17q0 -74 -33.5 -133t-91 -93.5t-130.5 -34.5zM339 71q56 0 99.5 26.5t69 72.5t25.5 103q0 58 -25.5 103.5t-69 72.5t-99.5 27q-55 0 -99.5 -27
t-70.5 -72.5t-26 -103.5q0 -57 26 -103t70.5 -72.5t99.5 -26.5zM573 0q-18 0 -30.5 11.5t-12.5 30.5v165l19 87l67 -21v-231q0 -19 -12 -30.5t-31 -11.5zM338 623q-43 0 -79 16t-57.5 43t-21.5 60q0 18 11.5 30.5t29.5 12.5q16 0 28 -10t12 -27q0 -23 23 -39t54 -16
q36 0 56.5 16t20.5 39q0 17 12.5 27t29.5 10t28.5 -12.5t11.5 -30.5q-1 -35 -23 -62t-57.5 -42t-78.5 -15zM335 801q-18 0 -30 12t-12 30q0 17 9 29l109 108q12 13 30 13t30 -13t12 -31q0 -8 -2.5 -15.5t-9.5 -13.5l-107 -108q-11 -11 -29 -11z" />
    <glyph glyph-name="uni1EB7" unicode="&#x1eb7;" 
d="M327 -5q-76 0 -136 36.5t-95 99.5t-35 142q0 80 36.5 143t99.5 99.5t142 36.5q78 0 140.5 -36.5t99 -99.5t37.5 -143l-34 -17q0 -74 -33.5 -133t-91 -93.5t-130.5 -34.5zM339 71q56 0 99.5 26.5t69 72.5t25.5 103q0 58 -25.5 103.5t-69 72.5t-99.5 27q-55 0 -99.5 -27
t-70.5 -72.5t-26 -103.5q0 -57 26 -103t70.5 -72.5t99.5 -26.5zM573 0q-18 0 -30.5 11.5t-12.5 30.5v165l19 87l67 -21v-231q0 -19 -12 -30.5t-31 -11.5zM338 623q-43 0 -79 16t-57.5 42.5t-21.5 60.5q0 18 11.5 30.5t29.5 12.5q16 0 28.5 -10t12.5 -27q0 -23 22.5 -39
t53.5 -16q36 0 56.5 16t20.5 39q0 17 12.5 27t29.5 10q18 0 29 -12.5t11 -30.5q-1 -35 -23 -62t-57.5 -42t-78.5 -15zM338 -214q-24 0 -41 17.5t-17 41.5q0 25 17.5 41t40.5 16t40.5 -16t17.5 -41q0 -24 -17 -41.5t-41 -17.5z" />
    <glyph glyph-name="uni1EB1" unicode="&#x1eb1;" 
d="M327 -5q-76 0 -136 36.5t-95 99.5t-35 142q0 80 36.5 143t99.5 99.5t142 36.5q78 0 140.5 -36.5t99 -99.5t37.5 -143l-34 -17q0 -74 -33.5 -133t-91 -93.5t-130.5 -34.5zM339 71q56 0 99.5 26.5t69 72.5t25.5 103q0 58 -25.5 103.5t-69 72.5t-99.5 27q-55 0 -99.5 -27
t-70.5 -72.5t-26 -103.5q0 -57 26 -103t70.5 -72.5t99.5 -26.5zM573 0q-18 0 -30.5 11.5t-12.5 30.5v165l19 87l67 -21v-231q0 -19 -12 -30.5t-31 -11.5zM338 623q-43 0 -79 16t-57.5 43t-21.5 60q0 18 11.5 30.5t29.5 12.5q16 0 28 -10t12 -27q0 -23 23 -39t54 -16
q36 0 56.5 16t20.5 39q0 17 12.5 27t29.5 10t28.5 -12.5t11.5 -30.5q-1 -35 -23 -62t-57.5 -42t-78.5 -15zM337 805q-17 0 -29 12l-108 107q-11 12 -11 30t12 30.5t30 12.5q17 0 31 -13l107 -108q11 -10 11 -28q0 -19 -12 -31t-31 -12z" />
    <glyph glyph-name="uni1EB3" unicode="&#x1eb3;" 
d="M327 -5q-76 0 -136 36.5t-95 99.5t-35 142q0 80 36.5 143t99.5 99.5t142 36.5q78 0 140.5 -36.5t99 -99.5t37.5 -143l-34 -17q0 -74 -33.5 -133t-91 -93.5t-130.5 -34.5zM339 71q56 0 99.5 26.5t69 72.5t25.5 103q0 58 -25.5 103.5t-69 72.5t-99.5 27q-55 0 -99.5 -27
t-70.5 -72.5t-26 -103.5q0 -57 26 -103t70.5 -72.5t99.5 -26.5zM573 0q-18 0 -30.5 11.5t-12.5 30.5v165l19 87l67 -21v-231q0 -19 -12 -30.5t-31 -11.5zM338 623q-43 0 -79 16t-57.5 43t-21.5 60q0 18 11.5 30.5t29.5 12.5q16 0 28 -10t12 -27q0 -23 23 -39t54 -16
q36 0 56.5 16t20.5 39q0 17 12.5 27t29.5 10t28.5 -12.5t11.5 -30.5q-1 -35 -23 -62t-57.5 -42t-78.5 -15zM338 769q-16 0 -27.5 11t-11.5 28v26q0 33 35 42l25 5q20 5 30.5 15t10.5 28q0 21 -13.5 32t-34.5 11q-12 0 -24 -5t-21 -11q-4 -5 -12 -7t-15 -2q-13 0 -23.5 8.5
t-10.5 24.5q0 18 14 29q19 15 41 23.5t50 8.5q52 0 85.5 -30.5t33.5 -77.5q0 -48 -31 -71t-74 -29l11 -9q0 -25 -11 -37.5t-27 -12.5z" />
    <glyph glyph-name="uni1EB5" unicode="&#x1eb5;" 
d="M327 -5q-76 0 -136 36.5t-95 99.5t-35 142q0 80 36.5 143t99.5 99.5t142 36.5q78 0 140.5 -36.5t99 -99.5t37.5 -143l-34 -17q0 -74 -33.5 -133t-91 -93.5t-130.5 -34.5zM339 71q56 0 99.5 26.5t69 72.5t25.5 103q0 58 -25.5 103.5t-69 72.5t-99.5 27q-55 0 -99.5 -27
t-70.5 -72.5t-26 -103.5q0 -57 26 -103t70.5 -72.5t99.5 -26.5zM573 0q-18 0 -30.5 11.5t-12.5 30.5v165l19 87l67 -21v-231q0 -19 -12 -30.5t-31 -11.5zM339 623q-43 0 -78.5 16t-57.5 43t-22 60q0 18 11.5 30.5t29.5 12.5q16 0 28.5 -10t12.5 -27q0 -23 22.5 -39t53.5 -16
q36 0 56.5 16t20.5 39q0 17 12.5 27t29.5 10q18 0 29 -12.5t11 -30.5q-1 -35 -23 -62t-57.5 -42t-78.5 -15zM406 808q-25 0 -45 11.5t-36 26.5q-13 12 -22 19t-21 7q-11 0 -19 -9.5t-17 -24.5q-7 -14 -21 -20t-28 1q-14 6 -19.5 19.5t2.5 29.5q20 38 43.5 55.5t53.5 17.5
q32 0 49.5 -13.5t32.5 -25.5q15 -14 23.5 -18.5t15.5 -4.5q13 0 24 22q8 14 22 20.5t27 1.5q17 -7 23 -21t-3 -29q-17 -35 -38 -50t-47 -15z" />
    <glyph glyph-name="uni01CE" unicode="&#x1ce;" 
d="M327 -5q-76 0 -136 36.5t-95 99.5t-35 142q0 80 36.5 143t99.5 99.5t142 36.5q78 0 140.5 -36.5t99 -99.5t37.5 -143l-34 -17q0 -74 -33.5 -133t-91 -93.5t-130.5 -34.5zM339 71q56 0 99.5 26.5t69 72.5t25.5 103q0 58 -25.5 103.5t-69 72.5t-99.5 27q-55 0 -99.5 -27
t-70.5 -72.5t-26 -103.5q0 -57 26 -103t70.5 -72.5t99.5 -26.5zM573 0q-18 0 -30.5 11.5t-12.5 30.5v165l19 87l67 -21v-231q0 -19 -12 -30.5t-31 -11.5zM339 635q-14 0 -21 6l-116 76q-21 15 -21 36q0 20 21 28.5t48 -10.5l89 -60l89 59q31 21 50 11.5t19 -28.5
q0 -21 -21 -36l-115 -76q-8 -6 -22 -6z" />
    <glyph glyph-name="acircumflex" unicode="&#xe2;" 
d="M327 -5q-76 0 -136 36.5t-95 99.5t-35 142q0 80 36.5 143t99.5 99.5t142 36.5q78 0 140.5 -36.5t99 -99.5t37.5 -143l-34 -17q0 -74 -33.5 -133t-91 -93.5t-130.5 -34.5zM339 71q56 0 99.5 26.5t69 72.5t25.5 103q0 58 -25.5 103.5t-69 72.5t-99.5 27q-55 0 -99.5 -27
t-70.5 -72.5t-26 -103.5q0 -57 26 -103t70.5 -72.5t99.5 -26.5zM573 0q-18 0 -30.5 11.5t-12.5 30.5v165l19 87l67 -21v-231q0 -19 -12 -30.5t-31 -11.5zM225 628q-19 0 -31.5 10t-12.5 27q0 23 21 37l116 77q9 5 21 5q7 0 12 -1.5t10 -3.5l115 -77q21 -14 21 -37
q0 -16 -12 -26.5t-31 -10.5q-7 0 -13.5 2t-12.5 7l-89 62l-89 -62q-12 -9 -25 -9z" />
    <glyph glyph-name="uni1EA5" unicode="&#x1ea5;" 
d="M327 -5q-76 0 -136 36.5t-95 99.5t-35 142q0 80 36.5 143t99.5 99.5t142 36.5q78 0 140.5 -36.5t99 -99.5t37.5 -143l-34 -17q0 -74 -33.5 -133t-91 -93.5t-130.5 -34.5zM339 71q56 0 99.5 26.5t69 72.5t25.5 103q0 58 -25.5 103.5t-69 72.5t-99.5 27q-55 0 -99.5 -27
t-70.5 -72.5t-26 -103.5q0 -57 26 -103t70.5 -72.5t99.5 -26.5zM573 0q-18 0 -30.5 11.5t-12.5 30.5v165l19 87l67 -21v-231q0 -19 -12 -30.5t-31 -11.5zM224 628q-18 0 -30.5 10t-12.5 27q0 23 21 37l116 77q9 5 21 5q6 0 11.5 -1.5t10.5 -3.5l115 -77q21 -14 21 -37
q0 -16 -12 -26.5t-31 -10.5q-8 0 -14 2t-12 7l-89 62l-89 -62q-12 -9 -26 -9zM434 792q-18 0 -30.5 12t-12.5 31q0 17 10 28l108 109q13 12 30 12q20 0 31.5 -12.5t11.5 -31.5q0 -8 -3 -15.5t-9 -12.5l-108 -109q-11 -11 -28 -11z" />
    <glyph glyph-name="uni1EAD" unicode="&#x1ead;" 
d="M327 -5q-76 0 -136 36.5t-95 99.5t-35 142q0 80 36.5 143t99.5 99.5t142 36.5q78 0 140.5 -36.5t99 -99.5t37.5 -143l-34 -17q0 -74 -33.5 -133t-91 -93.5t-130.5 -34.5zM339 71q56 0 99.5 26.5t69 72.5t25.5 103q0 58 -25.5 103.5t-69 72.5t-99.5 27q-55 0 -99.5 -27
t-70.5 -72.5t-26 -103.5q0 -57 26 -103t70.5 -72.5t99.5 -26.5zM573 0q-18 0 -30.5 11.5t-12.5 30.5v165l19 87l67 -21v-231q0 -19 -12 -30.5t-31 -11.5zM225 628q-19 0 -31.5 10t-12.5 27q0 23 21 37l116 77q9 5 21 5q7 0 12 -1.5t10 -3.5l115 -77q21 -14 21 -37
q0 -16 -12 -26.5t-31 -10.5q-7 0 -13.5 2t-12.5 7l-89 62l-89 -62q-12 -9 -25 -9zM338 -214q-24 0 -41 17.5t-17 41.5q0 25 17.5 41t40.5 16t40.5 -16t17.5 -41q0 -24 -17 -41.5t-41 -17.5z" />
    <glyph glyph-name="uni1EA7" unicode="&#x1ea7;" 
d="M327 -5q-76 0 -136 36.5t-95 99.5t-35 142q0 80 36.5 143t99.5 99.5t142 36.5q78 0 140.5 -36.5t99 -99.5t37.5 -143l-34 -17q0 -74 -33.5 -133t-91 -93.5t-130.5 -34.5zM339 71q56 0 99.5 26.5t69 72.5t25.5 103q0 58 -25.5 103.5t-69 72.5t-99.5 27q-55 0 -99.5 -27
t-70.5 -72.5t-26 -103.5q0 -57 26 -103t70.5 -72.5t99.5 -26.5zM573 0q-18 0 -30.5 11.5t-12.5 30.5v165l19 87l67 -21v-231q0 -19 -12 -30.5t-31 -11.5zM224 628q-18 0 -30.5 10t-12.5 27q0 23 21 37l116 77q9 5 21 5q6 0 11.5 -1.5t10.5 -3.5l115 -77q21 -14 21 -37
q0 -16 -12 -26.5t-31 -10.5q-8 0 -14 2t-12 7l-89 62l-89 -62q-12 -9 -26 -9zM436 796q-17 0 -28 12l-109 108q-11 11 -11 29q0 19 12 31.5t30 12.5t31 -13l107 -108q11 -11 11 -28q0 -19 -12.5 -31.5t-30.5 -12.5z" />
    <glyph glyph-name="uni1EA9" unicode="&#x1ea9;" 
d="M327 -5q-76 0 -136 36.5t-95 99.5t-35 142q0 80 36.5 143t99.5 99.5t142 36.5q78 0 140.5 -36.5t99 -99.5t37.5 -143l-34 -17q0 -74 -33.5 -133t-91 -93.5t-130.5 -34.5zM339 71q56 0 99.5 26.5t69 72.5t25.5 103q0 58 -25.5 103.5t-69 72.5t-99.5 27q-55 0 -99.5 -27
t-70.5 -72.5t-26 -103.5q0 -57 26 -103t70.5 -72.5t99.5 -26.5zM573 0q-18 0 -30.5 11.5t-12.5 30.5v165l19 87l67 -21v-231q0 -19 -12 -30.5t-31 -11.5zM227 628q-18 0 -30.5 10t-12.5 27q0 23 21 37l116 77q9 5 21 5q6 0 11.5 -1.5t10.5 -3.5l115 -77q21 -14 21 -37
q0 -16 -12 -26.5t-31 -10.5q-8 0 -14 2t-12 7l-89 62l-89 -62q-12 -9 -26 -9zM440 760q-16 0 -27 11.5t-11 27.5v26q0 35 34 42l25 6q20 4 30.5 15t10.5 27q0 22 -13.5 33t-34.5 11q-13 0 -24.5 -4.5t-19.5 -11.5q-6 -5 -13.5 -7.5t-14.5 -2.5q-14 0 -23.5 8.5t-9.5 24.5
q0 19 13 30q18 15 40.5 23t50.5 8q51 0 85 -30t34 -77q0 -48 -31 -71.5t-74 -29.5l11 -8q0 -25 -11 -38t-27 -13z" />
    <glyph glyph-name="uni1EAB" unicode="&#x1eab;" 
d="M327 -5q-76 0 -136 36.5t-95 99.5t-35 142q0 80 36.5 143t99.5 99.5t142 36.5q78 0 140.5 -36.5t99 -99.5t37.5 -143l-34 -17q0 -74 -33.5 -133t-91 -93.5t-130.5 -34.5zM339 71q56 0 99.5 26.5t69 72.5t25.5 103q0 58 -25.5 103.5t-69 72.5t-99.5 27q-55 0 -99.5 -27
t-70.5 -72.5t-26 -103.5q0 -57 26 -103t70.5 -72.5t99.5 -26.5zM573 0q-18 0 -30.5 11.5t-12.5 30.5v165l19 87l67 -21v-231q0 -19 -12 -30.5t-31 -11.5zM227 628q-18 0 -30.5 10t-12.5 27q0 23 21 37l116 77q9 5 21 5q7 0 12 -1.5t10 -3.5l115 -77q21 -14 21 -37
q0 -16 -12 -26.5t-31 -10.5q-8 0 -14 2t-12 7l-89 62l-89 -62q-12 -9 -26 -9zM401 811q-26 0 -46 11.5t-35 26.5q-14 12 -23 19t-20 7t-19 -9t-17 -25q-8 -14 -21.5 -19.5t-27.5 0.5t-19.5 20t2.5 29q19 39 42.5 56.5t54.5 17.5t49 -14t33 -26q15 -13 23 -17.5t15 -4.5
q14 0 24 21q9 14 22.5 20.5t27.5 1.5q17 -7 23 -21t-3 -29q-18 -34 -38.5 -49.5t-46.5 -15.5z" />
    <glyph glyph-name="uni0201" unicode="&#x201;" 
d="M327 -5q-76 0 -136 36.5t-95 99.5t-35 142q0 80 36.5 143t99.5 99.5t142 36.5q78 0 140.5 -36.5t99 -99.5t37.5 -143l-34 -17q0 -74 -33.5 -133t-91 -93.5t-130.5 -34.5zM339 71q56 0 99.5 26.5t69 72.5t25.5 103q0 58 -25.5 103.5t-69 72.5t-99.5 27q-55 0 -99.5 -27
t-70.5 -72.5t-26 -103.5q0 -57 26 -103t70.5 -72.5t99.5 -26.5zM573 0q-18 0 -30.5 11.5t-12.5 30.5v165l19 87l67 -21v-231q0 -19 -12 -30.5t-31 -11.5zM443 622q-20 0 -31 21l-59 126q-4 7 -4 16q0 16 12.5 29t31.5 13q13 0 24.5 -7.5t15.5 -19.5l40 -132q3 -6 3 -13
q0 -16 -10.5 -24.5t-22.5 -8.5zM295 622q-21 0 -32 21l-59 126q-2 4 -2.5 8t-0.5 8q0 16 12 29t31 13q13 0 24 -7.5t14 -19.5l43 -132q1 -3 1.5 -6.5t0.5 -6.5q0 -16 -10.5 -24.5t-21.5 -8.5z" />
    <glyph glyph-name="adieresis" unicode="&#xe4;" 
d="M327 -5q-76 0 -136 36.5t-95 99.5t-35 142q0 80 36.5 143t99.5 99.5t142 36.5q78 0 140.5 -36.5t99 -99.5t37.5 -143l-34 -17q0 -74 -33.5 -133t-91 -93.5t-130.5 -34.5zM339 71q56 0 99.5 26.5t69 72.5t25.5 103q0 58 -25.5 103.5t-69 72.5t-99.5 27q-55 0 -99.5 -27
t-70.5 -72.5t-26 -103.5q0 -57 26 -103t70.5 -72.5t99.5 -26.5zM573 0q-18 0 -30.5 11.5t-12.5 30.5v165l19 87l67 -21v-231q0 -19 -12 -30.5t-31 -11.5zM232 642q-24 0 -40.5 16t-16.5 41q0 22 16.5 39t40.5 17q23 0 40 -17t17 -39q0 -25 -17 -41t-40 -16zM445 642
q-24 0 -40 16t-16 41q0 22 16 39t40 17q23 0 40 -17t17 -39q0 -25 -17 -41t-40 -16z" />
    <glyph glyph-name="uni1EA1" unicode="&#x1ea1;" 
d="M327 -5q-76 0 -136 36.5t-95 99.5t-35 142q0 80 36.5 143t99.5 99.5t142 36.5q78 0 140.5 -36.5t99 -99.5t37.5 -143l-34 -17q0 -74 -33.5 -133t-91 -93.5t-130.5 -34.5zM339 71q56 0 99.5 26.5t69 72.5t25.5 103q0 58 -25.5 103.5t-69 72.5t-99.5 27q-55 0 -99.5 -27
t-70.5 -72.5t-26 -103.5q0 -57 26 -103t70.5 -72.5t99.5 -26.5zM573 0q-18 0 -30.5 11.5t-12.5 30.5v165l19 87l67 -21v-231q0 -19 -12 -30.5t-31 -11.5zM338 -214q-24 0 -41 17.5t-17 41.5q0 25 17.5 41t40.5 16t40.5 -16t17.5 -41q0 -24 -17 -41.5t-41 -17.5z" />
    <glyph glyph-name="agrave" unicode="&#xe0;" 
d="M327 -5q-76 0 -136 36.5t-95 99.5t-35 142q0 80 36.5 143t99.5 99.5t142 36.5q78 0 140.5 -36.5t99 -99.5t37.5 -143l-34 -17q0 -74 -33.5 -133t-91 -93.5t-130.5 -34.5zM339 71q56 0 99.5 26.5t69 72.5t25.5 103q0 58 -25.5 103.5t-69 72.5t-99.5 27q-55 0 -99.5 -27
t-70.5 -72.5t-26 -103.5q0 -57 26 -103t70.5 -72.5t99.5 -26.5zM573 0q-18 0 -30.5 11.5t-12.5 30.5v165l19 87l67 -21v-231q0 -19 -12 -30.5t-31 -11.5zM337 635q-18 0 -29 12l-109 107q-10 13 -10 30q0 18 11.5 31t29.5 13t31 -13l107 -109q11 -9 11 -28q0 -18 -12 -30.5
t-30 -12.5z" />
    <glyph glyph-name="uni1EA3" unicode="&#x1ea3;" 
d="M327 -5q-76 0 -136 36.5t-95 99.5t-35 142q0 80 36.5 143t99.5 99.5t142 36.5q78 0 140.5 -36.5t99 -99.5t37.5 -143l-34 -17q0 -74 -33.5 -133t-91 -93.5t-130.5 -34.5zM339 71q56 0 99.5 26.5t69 72.5t25.5 103q0 58 -25.5 103.5t-69 72.5t-99.5 27q-55 0 -99.5 -27
t-70.5 -72.5t-26 -103.5q0 -57 26 -103t70.5 -72.5t99.5 -26.5zM573 0q-18 0 -30.5 11.5t-12.5 30.5v165l19 87l67 -21v-231q0 -19 -12 -30.5t-31 -11.5zM338 599q-16 0 -27.5 11t-11.5 28v26q0 34 34 42l26 5q20 5 30.5 15.5t10.5 27.5q0 21 -14 32.5t-34 11.5
q-13 0 -24.5 -5t-20.5 -11q-5 -5 -12.5 -7.5t-14.5 -2.5q-14 0 -24 8.5t-10 24.5q0 18 13 29q20 16 42 24t50 8q51 0 84.5 -30.5t33.5 -77.5q0 -48 -31 -71t-74 -29l12 -9q0 -25 -11.5 -37.5t-26.5 -12.5z" />
    <glyph glyph-name="uni0203" unicode="&#x203;" 
d="M327 -5q-76 0 -136 36.5t-95 99.5t-35 142q0 80 36.5 143t99.5 99.5t142 36.5q78 0 140.5 -36.5t99 -99.5t37.5 -143l-34 -17q0 -74 -33.5 -133t-91 -93.5t-130.5 -34.5zM339 71q56 0 99.5 26.5t69 72.5t25.5 103q0 58 -25.5 103.5t-69 72.5t-99.5 27q-55 0 -99.5 -27
t-70.5 -72.5t-26 -103.5q0 -57 26 -103t70.5 -72.5t99.5 -26.5zM573 0q-18 0 -30.5 11.5t-12.5 30.5v165l19 87l67 -21v-231q0 -19 -12 -30.5t-31 -11.5zM221 622q-18 0 -29.5 12.5t-11.5 31.5q0 33 21.5 60t57.5 42.5t80 15.5q42 0 77.5 -15t57.5 -42t23 -62
q0 -18 -11.5 -30.5t-28.5 -12.5t-29.5 10.5t-12.5 27.5q0 23 -20.5 38.5t-55.5 15.5q-32 0 -55 -16t-23 -38q0 -17 -12 -27.5t-28 -10.5z" />
    <glyph glyph-name="amacron" unicode="&#x101;" 
d="M327 -5q-76 0 -136 36.5t-95 99.5t-35 142q0 80 36.5 143t99.5 99.5t142 36.5q78 0 140.5 -36.5t99 -99.5t37.5 -143l-34 -17q0 -74 -33.5 -133t-91 -93.5t-130.5 -34.5zM339 71q56 0 99.5 26.5t69 72.5t25.5 103q0 58 -25.5 103.5t-69 72.5t-99.5 27q-55 0 -99.5 -27
t-70.5 -72.5t-26 -103.5q0 -57 26 -103t70.5 -72.5t99.5 -26.5zM573 0q-18 0 -30.5 11.5t-12.5 30.5v165l19 87l67 -21v-231q0 -19 -12 -30.5t-31 -11.5zM210 653q-18 0 -30.5 10.5t-12.5 28.5t12.5 28.5t30.5 10.5h256q18 0 30.5 -10.5t12.5 -28.5t-12.5 -28.5t-30.5 -10.5
h-256z" />
    <glyph glyph-name="aogonek" unicode="&#x105;" 
d="M327 -5q-76 0 -136 36.5t-95 99.5t-35 142q0 80 36.5 143t99.5 99.5t142 36.5q78 0 140.5 -36.5t99 -99.5t37.5 -143l-34 -17q0 -74 -33.5 -133t-91 -93.5t-130.5 -34.5zM339 71q56 0 99.5 26.5t69 72.5t25.5 103q0 58 -25.5 103.5t-69 72.5t-99.5 27q-55 0 -99.5 -27
t-70.5 -72.5t-26 -103.5q0 -57 26 -103t70.5 -72.5t99.5 -26.5zM573 0q-18 0 -30.5 11.5t-12.5 30.5v165l19 87l67 -21v-231q0 -19 -12 -30.5t-31 -11.5zM609 -267q-32 0 -59 16t-43.5 43.5t-16.5 60.5q0 56 50 98q13 9 20.5 18t11.5 19q12 22 37 22q18 0 30 -11.5t13 -30.5
q0 -22 -15.5 -43t-47.5 -44q-7 -5 -10.5 -13t-3.5 -15q0 -14 10 -24t24 -10q5 0 10 1t8 4l34 25q12 8 25 8q19 0 31 -12t12 -31t-15 -34l-39 -25q-31 -22 -66 -22z" />
    <glyph glyph-name="aring" unicode="&#xe5;" 
d="M327 -5q-76 0 -136 36.5t-95 99.5t-35 142q0 80 36.5 143t99.5 99.5t142 36.5q78 0 140.5 -36.5t99 -99.5t37.5 -143l-34 -17q0 -74 -33.5 -133t-91 -93.5t-130.5 -34.5zM339 71q56 0 99.5 26.5t69 72.5t25.5 103q0 58 -25.5 103.5t-69 72.5t-99.5 27q-55 0 -99.5 -27
t-70.5 -72.5t-26 -103.5q0 -57 26 -103t70.5 -72.5t99.5 -26.5zM573 0q-18 0 -30.5 11.5t-12.5 30.5v165l19 87l67 -21v-231q0 -19 -12 -30.5t-31 -11.5zM339 591q-43 0 -72 28.5t-29 72.5q0 43 29 72t72 29t71.5 -29t28.5 -72t-28 -72t-72 -29zM339 639q23 0 37.5 15.5
t14.5 37.5q0 23 -14.5 37.5t-37.5 14.5q-22 0 -37 -14.5t-15 -37.5q0 -22 15 -37.5t37 -15.5z" />
    <glyph glyph-name="aringacute" unicode="&#x1fb;" 
d="M327 -5q-76 0 -136 36.5t-95 99.5t-35 142q0 80 36.5 143t99.5 99.5t142 36.5q78 0 140.5 -36.5t99 -99.5t37.5 -143l-34 -17q0 -74 -33.5 -133t-91 -93.5t-130.5 -34.5zM339 71q56 0 99.5 26.5t69 72.5t25.5 103q0 58 -25.5 103.5t-69 72.5t-99.5 27q-55 0 -99.5 -27
t-70.5 -72.5t-26 -103.5q0 -57 26 -103t70.5 -72.5t99.5 -26.5zM573 0q-18 0 -30.5 11.5t-12.5 30.5v165l19 87l67 -21v-231q0 -19 -12 -30.5t-31 -11.5zM339 591q-43 0 -72 28.5t-29 72.5q0 43 29 72t72 29t71.5 -29t28.5 -72t-28 -72t-72 -29zM339 639q23 0 37.5 15.5
t14.5 37.5q0 23 -14.5 37.5t-37.5 14.5q-22 0 -37 -14.5t-15 -37.5q0 -22 15 -37.5t37 -15.5zM335 831q-18 0 -30 12.5t-12 29.5q0 18 9 29l109 108q12 13 30 13t30 -12.5t12 -31.5q0 -8 -2.5 -15.5t-9.5 -13.5l-107 -108q-11 -11 -29 -11z" />
    <glyph glyph-name="atilde" unicode="&#xe3;" 
d="M327 -5q-76 0 -136 36.5t-95 99.5t-35 142q0 80 36.5 143t99.5 99.5t142 36.5q78 0 140.5 -36.5t99 -99.5t37.5 -143l-34 -17q0 -74 -33.5 -133t-91 -93.5t-130.5 -34.5zM339 71q56 0 99.5 26.5t69 72.5t25.5 103q0 58 -25.5 103.5t-69 72.5t-99.5 27q-55 0 -99.5 -27
t-70.5 -72.5t-26 -103.5q0 -57 26 -103t70.5 -72.5t99.5 -26.5zM573 0q-18 0 -30.5 11.5t-12.5 30.5v165l19 87l67 -21v-231q0 -19 -12 -30.5t-31 -11.5zM445 625q-32 0 -56.5 11.5t-41.5 21.5q-22 13 -35.5 18t-26.5 5q-17 0 -32 -7.5t-29 -25.5q-10 -14 -24.5 -19t-29.5 3
q-14 7 -16.5 23t7.5 30q24 32 57 49.5t70 17.5q32 0 55.5 -11t39.5 -21q21 -12 33.5 -17.5t27.5 -5.5t26 5t20 14q12 12 24 16.5t27 -4.5q14 -7 16.5 -23.5t-8.5 -30.5q-39 -49 -104 -49z" />
    <glyph glyph-name="ae" unicode="&#xe6;" horiz-adv-x="1091" 
d="M815 -5q-78 0 -139 35.5t-95.5 98.5t-34.5 144q0 82 33 144.5t90 98.5t131 36q77 0 133.5 -34.5t87 -95.5t30.5 -139q0 -17 -11 -27.5t-28 -10.5h-419v69h423l-41 -30q-1 55 -22 99t-59.5 69t-93.5 25q-57 0 -99 -26t-65 -72.5t-23 -105.5t26.5 -105t71.5 -72t104 -26
q38 0 71.5 12t55.5 30q12 9 27 10t26 -9q14 -13 15 -28t-13 -26q-33 -27 -84 -45.5t-98 -18.5zM327 -5q-76 0 -136 36.5t-95 99.5t-35 142q0 80 36.5 143t99.5 99.5t142 36.5q78 0 140.5 -36.5t99 -99.5t37.5 -143l-34 -17q0 -74 -33.5 -133t-91 -93.5t-130.5 -34.5zM339 71
q56 0 99.5 26.5t69 72.5t25.5 103q0 58 -25.5 103.5t-69 72.5t-99.5 27q-55 0 -99.5 -27t-70.5 -72.5t-26 -103.5q0 -57 26 -103t70.5 -72.5t99.5 -26.5zM573 0q-18 0 -30.5 11.5t-12.5 30.5v165l19 87l67 -21v-231q0 -19 -12 -30.5t-31 -11.5z" />
    <glyph glyph-name="aeacute" unicode="&#x1fd;" horiz-adv-x="1091" 
d="M815 -5q-78 0 -139 35.5t-95.5 98.5t-34.5 144q0 82 33 144.5t90 98.5t131 36q77 0 133.5 -34.5t87 -95.5t30.5 -139q0 -17 -11 -27.5t-28 -10.5h-419v69h423l-41 -30q-1 55 -22 99t-59.5 69t-93.5 25q-57 0 -99 -26t-65 -72.5t-23 -105.5t26.5 -105t71.5 -72t104 -26
q38 0 71.5 12t55.5 30q12 9 27 10t26 -9q14 -13 15 -28t-13 -26q-33 -27 -84 -45.5t-98 -18.5zM327 -5q-76 0 -136 36.5t-95 99.5t-35 142q0 80 36.5 143t99.5 99.5t142 36.5q78 0 140.5 -36.5t99 -99.5t37.5 -143l-34 -17q0 -74 -33.5 -133t-91 -93.5t-130.5 -34.5zM339 71
q56 0 99.5 26.5t69 72.5t25.5 103q0 58 -25.5 103.5t-69 72.5t-99.5 27q-55 0 -99.5 -27t-70.5 -72.5t-26 -103.5q0 -57 26 -103t70.5 -72.5t99.5 -26.5zM573 0q-18 0 -30.5 11.5t-12.5 30.5v165l19 87l67 -21v-231q0 -19 -12 -30.5t-31 -11.5zM553 631q-18 0 -30 12.5
t-12 29.5q0 18 9 29l109 108q12 13 30 13t30 -12.5t12 -31.5q0 -8 -2.5 -15.5t-9.5 -13.5l-107 -108q-11 -11 -29 -11z" />
    <glyph glyph-name="b" unicode="b" horiz-adv-x="706" 
d="M366 -5q-78 0 -140 36.5t-98.5 99t-37.5 140.5v467q0 20 11.5 31.5t31.5 11.5q19 0 30.5 -11.5t11.5 -31.5v-286q33 45 86 72.5t118 27.5q76 0 136 -36.5t94.5 -99.5t34.5 -142q0 -80 -36.5 -143t-99 -99.5t-142.5 -36.5zM366 71q56 0 100.5 27t70 72.5t25.5 103.5
q0 57 -25.5 103t-70 72.5t-100.5 26.5q-54 0 -98.5 -26.5t-69.5 -72.5t-25 -103q0 -58 25 -103.5t69.5 -72.5t98.5 -27z" />
    <glyph glyph-name="c" unicode="c" horiz-adv-x="597" 
d="M335 -5q-79 0 -141 36.5t-97.5 99.5t-35.5 142q0 80 34.5 143t94 99.5t137.5 36.5q60 0 111 -23.5t90 -70.5q12 -14 8.5 -28.5t-18.5 -25.5q-12 -8 -26.5 -5.5t-26.5 15.5q-55 62 -138 62q-55 0 -96.5 -26t-64.5 -71.5t-23 -105.5q0 -58 24.5 -103.5t68 -72t99.5 -26.5
q38 0 68.5 10t54.5 31q14 11 28 12t26 -8q13 -12 15 -27t-10 -27q-73 -67 -182 -67z" />
    <glyph glyph-name="cacute" unicode="&#x107;" horiz-adv-x="597" 
d="M335 -5q-79 0 -141 36.5t-97.5 99.5t-35.5 142q0 80 34.5 143t94 99.5t137.5 36.5q60 0 111 -23.5t90 -70.5q12 -14 8.5 -28.5t-18.5 -25.5q-12 -8 -26.5 -5.5t-26.5 15.5q-55 62 -138 62q-55 0 -96.5 -26t-64.5 -71.5t-23 -105.5q0 -58 24.5 -103.5t68 -72t99.5 -26.5
q38 0 68.5 10t54.5 31q14 11 28 12t26 -8q13 -12 15 -27t-10 -27q-73 -67 -182 -67zM323 631q-18 0 -30 12.5t-12 29.5q0 18 9 29l109 108q12 13 30 13t30 -12.5t12 -31.5q0 -8 -2.5 -15.5t-9.5 -13.5l-107 -108q-11 -11 -29 -11z" />
    <glyph glyph-name="ccaron" unicode="&#x10d;" horiz-adv-x="597" 
d="M335 -5q-79 0 -141 36.5t-97.5 99.5t-35.5 142q0 80 34.5 143t94 99.5t137.5 36.5q60 0 111 -23.5t90 -70.5q12 -14 8.5 -28.5t-18.5 -25.5q-12 -8 -26.5 -5.5t-26.5 15.5q-55 62 -138 62q-55 0 -96.5 -26t-64.5 -71.5t-23 -105.5q0 -58 24.5 -103.5t68 -72t99.5 -26.5
q38 0 68.5 10t54.5 31q14 11 28 12t26 -8q13 -12 15 -27t-10 -27q-73 -67 -182 -67zM327 635q-14 0 -21 6l-116 76q-21 15 -21 36q0 20 21 28.5t48 -10.5l89 -60l89 59q31 21 50 11.5t19 -28.5q0 -21 -21 -36l-115 -76q-8 -6 -22 -6z" />
    <glyph glyph-name="ccedilla" unicode="&#xe7;" horiz-adv-x="597" 
d="M335 -5q-79 0 -141 36.5t-97.5 99.5t-35.5 142q0 80 34.5 143t94 99.5t137.5 36.5q60 0 111 -23.5t90 -70.5q12 -14 8.5 -28.5t-18.5 -25.5q-12 -8 -26.5 -5.5t-26.5 15.5q-55 62 -138 62q-55 0 -96.5 -26t-64.5 -71.5t-23 -105.5q0 -58 24.5 -103.5t68 -72t99.5 -26.5
q38 0 68.5 10t54.5 31q14 11 28 12t26 -8q13 -12 15 -27t-10 -27q-73 -67 -182 -67zM313 -233q-56 0 -91.5 23.5t-35.5 53.5q0 16 12 28t28 12q12 0 20.5 -5.5t14.5 -16.5q8 -13 21 -20t32 -7q22 0 36.5 9.5t14.5 27.5t-11 29t-39 17q-26 5 -37 18t-1 41l15 37q5 16 16.5 25
t31.5 9t30.5 -14.5t1.5 -33.5l-15 -36q52 -12 74 -35.5t22 -57.5q0 -28 -18 -51.5t-49.5 -38t-72.5 -14.5z" />
    <glyph glyph-name="ccircumflex" unicode="&#x109;" horiz-adv-x="597" 
d="M335 -5q-79 0 -141 36.5t-97.5 99.5t-35.5 142q0 80 34.5 143t94 99.5t137.5 36.5q60 0 111 -23.5t90 -70.5q12 -14 8.5 -28.5t-18.5 -25.5q-12 -8 -26.5 -5.5t-26.5 15.5q-55 62 -138 62q-55 0 -96.5 -26t-64.5 -71.5t-23 -105.5q0 -58 24.5 -103.5t68 -72t99.5 -26.5
q38 0 68.5 10t54.5 31q14 11 28 12t26 -8q13 -12 15 -27t-10 -27q-73 -67 -182 -67zM213 628q-19 0 -31.5 10t-12.5 27q0 23 21 37l116 77q9 5 21 5q7 0 12 -1.5t10 -3.5l115 -77q21 -14 21 -37q0 -16 -12 -26.5t-31 -10.5q-7 0 -13.5 2t-12.5 7l-89 62l-89 -62
q-12 -9 -25 -9z" />
    <glyph glyph-name="cdotaccent" unicode="&#x10b;" horiz-adv-x="597" 
d="M335 -5q-79 0 -141 36.5t-97.5 99.5t-35.5 142q0 80 34.5 143t94 99.5t137.5 36.5q60 0 111 -23.5t90 -70.5q12 -14 8.5 -28.5t-18.5 -25.5q-12 -8 -26.5 -5.5t-26.5 15.5q-55 62 -138 62q-55 0 -96.5 -26t-64.5 -71.5t-23 -105.5q0 -58 24.5 -103.5t68 -72t99.5 -26.5
q38 0 68.5 10t54.5 31q14 11 28 12t26 -8q13 -12 15 -27t-10 -27q-73 -67 -182 -67zM326 646q-24 0 -41 17.5t-17 41.5q0 25 17.5 41t40.5 16t40.5 -16t17.5 -41q0 -24 -17 -41.5t-41 -17.5z" />
    <glyph glyph-name="d" unicode="d" horiz-adv-x="706" 
d="M339 -5q-79 0 -142 36.5t-99.5 99.5t-36.5 143q0 79 35 142t95 99.5t136 36.5q65 0 117.5 -27.5t85.5 -72.5v286q0 20 12.5 31.5t30.5 11.5q19 0 31 -11.5t12 -31.5v-467q-2 -78 -38.5 -140.5t-98.5 -99t-140 -36.5zM339 71q56 0 99.5 27t69 72.5t25.5 103.5
q0 57 -25.5 103t-69 72.5t-99.5 26.5q-55 0 -99.5 -26.5t-70.5 -72.5t-26 -103q0 -58 26 -103.5t70.5 -72.5t99.5 -27z" />
    <glyph glyph-name="eth" unicode="&#xf0;" horiz-adv-x="669" 
d="M327 -5q-78 0 -138 33.5t-94 92.5t-34 136q0 76 32.5 134.5t90.5 91.5t132 33q70 0 124 -31.5t84.5 -87t30.5 -128.5h44q0 -80 -35 -142t-96 -97t-141 -35zM327 71q56 0 98.5 24t67 65.5t24.5 96.5q0 54 -24.5 95t-67 64.5t-98.5 23.5q-54 0 -95 -23.5t-65 -64.5t-24 -95
q0 -55 24 -96.5t65 -65.5t95 -24zM534 267v82q-2 82 -17.5 141t-51 101t-93.5 74t-144 61q-21 7 -30.5 18.5t-3.5 27.5q6 17 21 19.5t33 -3.5q98 -35 165.5 -74.5t108 -89.5t59 -115t18.5 -150v-92h-65zM254 608q-12 5 -15.5 14.5t3.5 22.5l92 176q6 13 16.5 15.5t21.5 -4.5
q13 -7 16 -17.5t-3 -20.5l-91 -176q-6 -11 -17 -14t-23 4z" />
    <glyph glyph-name="dcaron" unicode="&#x10f;" horiz-adv-x="794" 
d="M339 -5q-79 0 -142 36.5t-99.5 99.5t-36.5 143q0 79 35 142t95 99.5t136 36.5q65 0 117.5 -27.5t85.5 -72.5v286q0 20 12.5 31.5t30.5 11.5q19 0 31 -11.5t12 -31.5v-467q-2 -78 -38.5 -140.5t-98.5 -99t-140 -36.5zM339 71q56 0 99.5 27t69 72.5t25.5 103.5
q0 57 -25.5 103t-69 72.5t-99.5 26.5q-55 0 -99.5 -26.5t-70.5 -72.5t-26 -103q0 -58 26 -103.5t70.5 -72.5t99.5 -27zM688 518q-11 2 -17 8t-5 17q2 14 13 30.5t23.5 36t15.5 46.5q2 19 -2.5 31.5t-9.5 25.5t-5 33q0 21 14 30.5t33 9.5q30 0 45 -29.5t10 -67.5
q-4 -30 -17.5 -60.5t-31.5 -56.5t-36 -41t-30 -13z" />
    <glyph glyph-name="dcroat" unicode="&#x111;" horiz-adv-x="706" 
d="M375 617q-18 0 -29.5 10.5t-11.5 24.5q0 17 11.5 26t29.5 9h288q19 0 31 -9t12 -26q0 -14 -12 -24.5t-31 -10.5h-288zM339 -5q-79 0 -142 36.5t-99.5 99.5t-36.5 143q0 79 35 142t95 99.5t136 36.5q65 0 117.5 -27.5t85.5 -72.5v286q0 20 12.5 31.5t30.5 11.5
q19 0 31 -11.5t12 -31.5v-467q-2 -78 -38.5 -140.5t-98.5 -99t-140 -36.5zM339 71q56 0 99.5 27t69 72.5t25.5 103.5q0 57 -25.5 103t-69 72.5t-99.5 26.5q-55 0 -99.5 -26.5t-70.5 -72.5t-26 -103q0 -58 26 -103.5t70.5 -72.5t99.5 -27z" />
    <glyph glyph-name="e" unicode="e" horiz-adv-x="616" 
d="M341 -5q-82 0 -145 35.5t-99 98.5t-36 144q0 82 34 144.5t93.5 98.5t137.5 36q76 0 132.5 -34.5t87 -95.5t30.5 -139q0 -17 -11 -27.5t-28 -10.5h-418v69h423l-43 -30q1 55 -20 99t-60 69t-93 25q-57 0 -99.5 -26t-65 -72.5t-22.5 -105.5t26 -105t71.5 -72t104.5 -26
q34 0 69.5 12t56.5 30q12 9 27.5 9.5t25.5 -8.5q15 -13 15.5 -28t-13.5 -26q-33 -28 -84 -46t-97 -18z" />
    <glyph glyph-name="eacute" unicode="&#xe9;" horiz-adv-x="616" 
d="M341 -5q-82 0 -145 35.5t-99 98.5t-36 144q0 82 34 144.5t93.5 98.5t137.5 36q76 0 132.5 -34.5t87 -95.5t30.5 -139q0 -17 -11 -27.5t-28 -10.5h-418v69h423l-43 -30q1 55 -20 99t-60 69t-93 25q-57 0 -99.5 -26t-65 -72.5t-22.5 -105.5t26 -105t71.5 -72t104.5 -26
q34 0 69.5 12t56.5 30q12 9 27.5 9.5t25.5 -8.5q15 -13 15.5 -28t-13.5 -26q-33 -28 -84 -46t-97 -18zM315 631q-18 0 -30 12.5t-12 29.5q0 18 9 29l109 108q12 13 30 13t30 -12.5t12 -31.5q0 -8 -2.5 -15.5t-9.5 -13.5l-107 -108q-11 -11 -29 -11z" />
    <glyph glyph-name="ebreve" unicode="&#x115;" horiz-adv-x="616" 
d="M341 -5q-82 0 -145 35.5t-99 98.5t-36 144q0 82 34 144.5t93.5 98.5t137.5 36q76 0 132.5 -34.5t87 -95.5t30.5 -139q0 -17 -11 -27.5t-28 -10.5h-418v69h423l-43 -30q1 55 -20 99t-60 69t-93 25q-57 0 -99.5 -26t-65 -72.5t-22.5 -105.5t26 -105t71.5 -72t104.5 -26
q34 0 69.5 12t56.5 30q12 9 27.5 9.5t25.5 -8.5q15 -13 15.5 -28t-13.5 -26q-33 -28 -84 -46t-97 -18zM318 623q-43 0 -79 16t-57.5 42.5t-21.5 60.5q0 18 11.5 30.5t29.5 12.5q16 0 28.5 -10t12.5 -27q0 -23 22.5 -39t53.5 -16q36 0 56.5 16t20.5 39q0 17 12.5 27t29.5 10
q18 0 29 -12.5t11 -30.5q-1 -35 -23 -62t-57.5 -42t-78.5 -15z" />
    <glyph glyph-name="ecaron" unicode="&#x11b;" horiz-adv-x="616" 
d="M341 -5q-82 0 -145 35.5t-99 98.5t-36 144q0 82 34 144.5t93.5 98.5t137.5 36q76 0 132.5 -34.5t87 -95.5t30.5 -139q0 -17 -11 -27.5t-28 -10.5h-418v69h423l-43 -30q1 55 -20 99t-60 69t-93 25q-57 0 -99.5 -26t-65 -72.5t-22.5 -105.5t26 -105t71.5 -72t104.5 -26
q34 0 69.5 12t56.5 30q12 9 27.5 9.5t25.5 -8.5q15 -13 15.5 -28t-13.5 -26q-33 -28 -84 -46t-97 -18zM319 635q-14 0 -21 6l-116 76q-21 15 -21 36q0 20 21 28.5t48 -10.5l89 -60l89 59q31 21 50 11.5t19 -28.5q0 -21 -21 -36l-115 -76q-8 -6 -22 -6z" />
    <glyph glyph-name="ecircumflex" unicode="&#xea;" horiz-adv-x="616" 
d="M341 -5q-82 0 -145 35.5t-99 98.5t-36 144q0 82 34 144.5t93.5 98.5t137.5 36q76 0 132.5 -34.5t87 -95.5t30.5 -139q0 -17 -11 -27.5t-28 -10.5h-418v69h423l-43 -30q1 55 -20 99t-60 69t-93 25q-57 0 -99.5 -26t-65 -72.5t-22.5 -105.5t26 -105t71.5 -72t104.5 -26
q34 0 69.5 12t56.5 30q12 9 27.5 9.5t25.5 -8.5q15 -13 15.5 -28t-13.5 -26q-33 -28 -84 -46t-97 -18zM205 628q-19 0 -31.5 10t-12.5 27q0 23 21 37l116 77q9 5 21 5q7 0 12 -1.5t10 -3.5l115 -77q21 -14 21 -37q0 -16 -12 -26.5t-31 -10.5q-7 0 -13.5 2t-12.5 7l-89 62
l-89 -62q-12 -9 -25 -9z" />
    <glyph glyph-name="uni1EBF" unicode="&#x1ebf;" horiz-adv-x="616" 
d="M341 -5q-82 0 -145 35.5t-99 98.5t-36 144q0 82 34 144.5t93.5 98.5t137.5 36q76 0 132.5 -34.5t87 -95.5t30.5 -139q0 -17 -11 -27.5t-28 -10.5h-418v69h423l-43 -30q1 55 -20 99t-60 69t-93 25q-57 0 -99.5 -26t-65 -72.5t-22.5 -105.5t26 -105t71.5 -72t104.5 -26
q34 0 69.5 12t56.5 30q12 9 27.5 9.5t25.5 -8.5q15 -13 15.5 -28t-13.5 -26q-33 -28 -84 -46t-97 -18zM204 628q-18 0 -30.5 10t-12.5 27q0 23 21 37l116 77q9 5 21 5q6 0 11.5 -1.5t10.5 -3.5l115 -77q21 -14 21 -37q0 -16 -12 -26.5t-31 -10.5q-8 0 -14 2t-12 7l-89 62
l-89 -62q-12 -9 -26 -9zM414 792q-18 0 -30.5 12t-12.5 31q0 17 10 28l108 109q13 12 30 12q20 0 31.5 -12.5t11.5 -31.5q0 -8 -3 -15.5t-9 -12.5l-108 -109q-11 -11 -28 -11z" />
    <glyph glyph-name="uni1EC7" unicode="&#x1ec7;" horiz-adv-x="616" 
d="M341 -5q-82 0 -145 35.5t-99 98.5t-36 144q0 82 34 144.5t93.5 98.5t137.5 36q76 0 132.5 -34.5t87 -95.5t30.5 -139q0 -17 -11 -27.5t-28 -10.5h-418v69h423l-43 -30q1 55 -20 99t-60 69t-93 25q-57 0 -99.5 -26t-65 -72.5t-22.5 -105.5t26 -105t71.5 -72t104.5 -26
q34 0 69.5 12t56.5 30q12 9 27.5 9.5t25.5 -8.5q15 -13 15.5 -28t-13.5 -26q-33 -28 -84 -46t-97 -18zM205 628q-19 0 -31.5 10t-12.5 27q0 23 21 37l116 77q9 5 21 5q7 0 12 -1.5t10 -3.5l115 -77q21 -14 21 -37q0 -16 -12 -26.5t-31 -10.5q-7 0 -13.5 2t-12.5 7l-89 62
l-89 -62q-12 -9 -25 -9zM319 -214q-24 0 -41 17.5t-17 41.5q0 25 17.5 41t40.5 16t40.5 -16t17.5 -41q0 -24 -17 -41.5t-41 -17.5z" />
    <glyph glyph-name="uni1EC1" unicode="&#x1ec1;" horiz-adv-x="616" 
d="M341 -5q-82 0 -145 35.5t-99 98.5t-36 144q0 82 34 144.5t93.5 98.5t137.5 36q76 0 132.5 -34.5t87 -95.5t30.5 -139q0 -17 -11 -27.5t-28 -10.5h-418v69h423l-43 -30q1 55 -20 99t-60 69t-93 25q-57 0 -99.5 -26t-65 -72.5t-22.5 -105.5t26 -105t71.5 -72t104.5 -26
q34 0 69.5 12t56.5 30q12 9 27.5 9.5t25.5 -8.5q15 -13 15.5 -28t-13.5 -26q-33 -28 -84 -46t-97 -18zM204 628q-18 0 -30.5 10t-12.5 27q0 23 21 37l116 77q9 5 21 5q6 0 11.5 -1.5t10.5 -3.5l115 -77q21 -14 21 -37q0 -16 -12 -26.5t-31 -10.5q-8 0 -14 2t-12 7l-89 62
l-89 -62q-12 -9 -26 -9zM416 796q-17 0 -28 12l-109 108q-11 11 -11 29q0 19 12 31.5t30 12.5t31 -13l107 -108q11 -11 11 -28q0 -19 -12.5 -31.5t-30.5 -12.5z" />
    <glyph glyph-name="uni1EC3" unicode="&#x1ec3;" horiz-adv-x="616" 
d="M341 -5q-82 0 -145 35.5t-99 98.5t-36 144q0 82 34 144.5t93.5 98.5t137.5 36q76 0 132.5 -34.5t87 -95.5t30.5 -139q0 -17 -11 -27.5t-28 -10.5h-418v69h423l-43 -30q1 55 -20 99t-60 69t-93 25q-57 0 -99.5 -26t-65 -72.5t-22.5 -105.5t26 -105t71.5 -72t104.5 -26
q34 0 69.5 12t56.5 30q12 9 27.5 9.5t25.5 -8.5q15 -13 15.5 -28t-13.5 -26q-33 -28 -84 -46t-97 -18zM207 628q-18 0 -30.5 10t-12.5 27q0 23 21 37l116 77q9 5 21 5q6 0 11.5 -1.5t10.5 -3.5l115 -77q21 -14 21 -37q0 -16 -12 -26.5t-31 -10.5q-8 0 -14 2t-12 7l-89 62
l-89 -62q-12 -9 -26 -9zM420 760q-16 0 -27 11.5t-11 27.5v26q0 35 34 42l25 6q20 4 30.5 15t10.5 27q0 22 -13.5 33t-34.5 11q-13 0 -24.5 -4.5t-19.5 -11.5q-6 -5 -13.5 -7.5t-14.5 -2.5q-14 0 -23.5 8.5t-9.5 24.5q0 19 13 30q18 15 40.5 23t50.5 8q51 0 85 -30t34 -77
q0 -48 -31 -71.5t-74 -29.5l11 -8q0 -25 -11 -38t-27 -13z" />
    <glyph glyph-name="uni1EC5" unicode="&#x1ec5;" horiz-adv-x="616" 
d="M341 -5q-82 0 -145 35.5t-99 98.5t-36 144q0 82 34 144.5t93.5 98.5t137.5 36q76 0 132.5 -34.5t87 -95.5t30.5 -139q0 -17 -11 -27.5t-28 -10.5h-418v69h423l-43 -30q1 55 -20 99t-60 69t-93 25q-57 0 -99.5 -26t-65 -72.5t-22.5 -105.5t26 -105t71.5 -72t104.5 -26
q34 0 69.5 12t56.5 30q12 9 27.5 9.5t25.5 -8.5q15 -13 15.5 -28t-13.5 -26q-33 -28 -84 -46t-97 -18zM207 628q-18 0 -30.5 10t-12.5 27q0 23 21 37l116 77q9 5 21 5q7 0 12 -1.5t10 -3.5l115 -77q21 -14 21 -37q0 -16 -12 -26.5t-31 -10.5q-8 0 -14 2t-12 7l-89 62
l-89 -62q-12 -9 -26 -9zM381 811q-26 0 -46 11.5t-35 26.5q-14 12 -23 19t-20 7t-19 -9t-17 -25q-8 -14 -21.5 -19.5t-27.5 0.5t-19.5 20t2.5 29q19 39 42.5 56.5t54.5 17.5t49 -14t33 -26q15 -13 23 -17.5t15 -4.5q14 0 24 21q9 14 22.5 20.5t27.5 1.5q17 -7 23 -21t-3 -29
q-18 -34 -38.5 -49.5t-46.5 -15.5z" />
    <glyph glyph-name="uni0205" unicode="&#x205;" horiz-adv-x="616" 
d="M341 -5q-82 0 -145 35.5t-99 98.5t-36 144q0 82 34 144.5t93.5 98.5t137.5 36q76 0 132.5 -34.5t87 -95.5t30.5 -139q0 -17 -11 -27.5t-28 -10.5h-418v69h423l-43 -30q1 55 -20 99t-60 69t-93 25q-57 0 -99.5 -26t-65 -72.5t-22.5 -105.5t26 -105t71.5 -72t104.5 -26
q34 0 69.5 12t56.5 30q12 9 27.5 9.5t25.5 -8.5q15 -13 15.5 -28t-13.5 -26q-33 -28 -84 -46t-97 -18zM424 622q-20 0 -31 21l-59 126q-4 7 -4 16q0 16 12.5 29t31.5 13q13 0 24.5 -7.5t15.5 -19.5l40 -132q3 -6 3 -13q0 -16 -10.5 -24.5t-22.5 -8.5zM276 622q-21 0 -32 21
l-59 126q-2 4 -2.5 8t-0.5 8q0 16 12 29t31 13q13 0 24 -7.5t14 -19.5l43 -132q1 -3 1.5 -6.5t0.5 -6.5q0 -16 -10.5 -24.5t-21.5 -8.5z" />
    <glyph glyph-name="edieresis" unicode="&#xeb;" horiz-adv-x="616" 
d="M341 -5q-82 0 -145 35.5t-99 98.5t-36 144q0 82 34 144.5t93.5 98.5t137.5 36q76 0 132.5 -34.5t87 -95.5t30.5 -139q0 -17 -11 -27.5t-28 -10.5h-418v69h423l-43 -30q1 55 -20 99t-60 69t-93 25q-57 0 -99.5 -26t-65 -72.5t-22.5 -105.5t26 -105t71.5 -72t104.5 -26
q34 0 69.5 12t56.5 30q12 9 27.5 9.5t25.5 -8.5q15 -13 15.5 -28t-13.5 -26q-33 -28 -84 -46t-97 -18zM212 642q-24 0 -40.5 16t-16.5 41q0 22 16.5 39t40.5 17q23 0 40 -17t17 -39q0 -25 -17 -41t-40 -16zM425 642q-24 0 -40 16t-16 41q0 22 16 39t40 17q23 0 40 -17
t17 -39q0 -25 -17 -41t-40 -16z" />
    <glyph glyph-name="edotaccent" unicode="&#x117;" horiz-adv-x="616" 
d="M341 -5q-82 0 -145 35.5t-99 98.5t-36 144q0 82 34 144.5t93.5 98.5t137.5 36q76 0 132.5 -34.5t87 -95.5t30.5 -139q0 -17 -11 -27.5t-28 -10.5h-418v69h423l-43 -30q1 55 -20 99t-60 69t-93 25q-57 0 -99.5 -26t-65 -72.5t-22.5 -105.5t26 -105t71.5 -72t104.5 -26
q34 0 69.5 12t56.5 30q12 9 27.5 9.5t25.5 -8.5q15 -13 15.5 -28t-13.5 -26q-33 -28 -84 -46t-97 -18zM319 646q-24 0 -41 17.5t-17 41.5q0 25 17.5 41t40.5 16t40.5 -16t17.5 -41q0 -24 -17 -41.5t-41 -17.5z" />
    <glyph glyph-name="uni1EB9" unicode="&#x1eb9;" horiz-adv-x="616" 
d="M341 -5q-82 0 -145 35.5t-99 98.5t-36 144q0 82 34 144.5t93.5 98.5t137.5 36q76 0 132.5 -34.5t87 -95.5t30.5 -139q0 -17 -11 -27.5t-28 -10.5h-418v69h423l-43 -30q1 55 -20 99t-60 69t-93 25q-57 0 -99.5 -26t-65 -72.5t-22.5 -105.5t26 -105t71.5 -72t104.5 -26
q34 0 69.5 12t56.5 30q12 9 27.5 9.5t25.5 -8.5q15 -13 15.5 -28t-13.5 -26q-33 -28 -84 -46t-97 -18zM319 -214q-24 0 -41 17.5t-17 41.5q0 25 17.5 41t40.5 16t40.5 -16t17.5 -41q0 -24 -17 -41.5t-41 -17.5z" />
    <glyph glyph-name="egrave" unicode="&#xe8;" horiz-adv-x="616" 
d="M341 -5q-82 0 -145 35.5t-99 98.5t-36 144q0 82 34 144.5t93.5 98.5t137.5 36q76 0 132.5 -34.5t87 -95.5t30.5 -139q0 -17 -11 -27.5t-28 -10.5h-418v69h423l-43 -30q1 55 -20 99t-60 69t-93 25q-57 0 -99.5 -26t-65 -72.5t-22.5 -105.5t26 -105t71.5 -72t104.5 -26
q34 0 69.5 12t56.5 30q12 9 27.5 9.5t25.5 -8.5q15 -13 15.5 -28t-13.5 -26q-33 -28 -84 -46t-97 -18zM318 635q-18 0 -29 12l-109 107q-10 13 -10 30q0 18 11.5 31t29.5 13t31 -13l107 -109q11 -9 11 -28q0 -18 -12 -30.5t-30 -12.5z" />
    <glyph glyph-name="uni1EBB" unicode="&#x1ebb;" horiz-adv-x="616" 
d="M341 -5q-82 0 -145 35.5t-99 98.5t-36 144q0 82 34 144.5t93.5 98.5t137.5 36q76 0 132.5 -34.5t87 -95.5t30.5 -139q0 -17 -11 -27.5t-28 -10.5h-418v69h423l-43 -30q1 55 -20 99t-60 69t-93 25q-57 0 -99.5 -26t-65 -72.5t-22.5 -105.5t26 -105t71.5 -72t104.5 -26
q34 0 69.5 12t56.5 30q12 9 27.5 9.5t25.5 -8.5q15 -13 15.5 -28t-13.5 -26q-33 -28 -84 -46t-97 -18zM319 599q-16 0 -27.5 11t-11.5 28v26q0 34 34 42l26 5q20 5 30.5 15.5t10.5 27.5q0 21 -14 32.5t-34 11.5q-13 0 -24.5 -5t-20.5 -11q-5 -5 -12.5 -7.5t-14.5 -2.5
q-14 0 -24 8.5t-10 24.5q0 18 13 29q20 16 42 24t50 8q51 0 84.5 -30.5t33.5 -77.5q0 -48 -31 -71t-74 -29l12 -9q0 -25 -11.5 -37.5t-26.5 -12.5z" />
    <glyph glyph-name="uni0207" unicode="&#x207;" horiz-adv-x="616" 
d="M341 -5q-82 0 -145 35.5t-99 98.5t-36 144q0 82 34 144.5t93.5 98.5t137.5 36q76 0 132.5 -34.5t87 -95.5t30.5 -139q0 -17 -11 -27.5t-28 -10.5h-418v69h423l-43 -30q1 55 -20 99t-60 69t-93 25q-57 0 -99.5 -26t-65 -72.5t-22.5 -105.5t26 -105t71.5 -72t104.5 -26
q34 0 69.5 12t56.5 30q12 9 27.5 9.5t25.5 -8.5q15 -13 15.5 -28t-13.5 -26q-33 -28 -84 -46t-97 -18zM201 622q-18 0 -29.5 12.5t-11.5 31.5q0 33 21.5 60t57.5 42.5t80 15.5q42 0 77.5 -15t57.5 -42t23 -62q0 -18 -11.5 -30.5t-28.5 -12.5t-29.5 10.5t-12.5 27.5
q0 23 -20.5 38.5t-55.5 15.5q-32 0 -55 -16t-23 -38q0 -17 -12 -27.5t-28 -10.5z" />
    <glyph glyph-name="emacron" unicode="&#x113;" horiz-adv-x="616" 
d="M341 -5q-82 0 -145 35.5t-99 98.5t-36 144q0 82 34 144.5t93.5 98.5t137.5 36q76 0 132.5 -34.5t87 -95.5t30.5 -139q0 -17 -11 -27.5t-28 -10.5h-418v69h423l-43 -30q1 55 -20 99t-60 69t-93 25q-57 0 -99.5 -26t-65 -72.5t-22.5 -105.5t26 -105t71.5 -72t104.5 -26
q34 0 69.5 12t56.5 30q12 9 27.5 9.5t25.5 -8.5q15 -13 15.5 -28t-13.5 -26q-33 -28 -84 -46t-97 -18zM191 653q-18 0 -30.5 10.5t-12.5 28.5t12.5 28.5t30.5 10.5h256q18 0 30.5 -10.5t12.5 -28.5t-12.5 -28.5t-30.5 -10.5h-256z" />
    <glyph glyph-name="eogonek" unicode="&#x119;" horiz-adv-x="616" 
d="M341 -5q-82 0 -145 35.5t-99 98.5t-36 144q0 82 34 144.5t93.5 98.5t137.5 36q76 0 132.5 -34.5t87 -95.5t30.5 -139q0 -17 -11 -27.5t-28 -10.5h-418v69h423l-43 -30q1 55 -20 99t-60 69t-93 25q-57 0 -99.5 -26t-65 -72.5t-22.5 -105.5t26 -105t71.5 -72t104.5 -26
q34 0 69.5 12t56.5 30q12 9 27.5 9.5t25.5 -8.5q15 -13 15.5 -28t-13.5 -26q-33 -28 -84 -46t-97 -18zM409 -197q-32 0 -59 16t-43.5 43.5t-16.5 60.5q0 56 50 98q13 9 20.5 18t11.5 19q12 22 37 22q18 0 30 -11.5t13 -30.5q0 -22 -15.5 -43t-47.5 -44q-7 -5 -10.5 -13
t-3.5 -15q0 -14 10 -24t24 -10q5 0 10 1t8 4l34 25q12 8 25 8q19 0 31 -12t12 -31t-15 -34l-39 -25q-31 -22 -66 -22z" />
    <glyph glyph-name="uni1EBD" unicode="&#x1ebd;" horiz-adv-x="616" 
d="M341 -5q-82 0 -145 35.5t-99 98.5t-36 144q0 82 34 144.5t93.5 98.5t137.5 36q76 0 132.5 -34.5t87 -95.5t30.5 -139q0 -17 -11 -27.5t-28 -10.5h-418v69h423l-43 -30q1 55 -20 99t-60 69t-93 25q-57 0 -99.5 -26t-65 -72.5t-22.5 -105.5t26 -105t71.5 -72t104.5 -26
q34 0 69.5 12t56.5 30q12 9 27.5 9.5t25.5 -8.5q15 -13 15.5 -28t-13.5 -26q-33 -28 -84 -46t-97 -18zM425 625q-32 0 -56.5 11.5t-41.5 21.5q-22 13 -35.5 18t-26.5 5q-17 0 -32 -7.5t-29 -25.5q-10 -14 -24.5 -19t-29.5 3q-14 7 -16.5 23t7.5 30q24 32 57 49.5t70 17.5
q32 0 55.5 -11t39.5 -21q21 -12 33.5 -17.5t27.5 -5.5t26 5t20 14q12 12 24 16.5t27 -4.5q14 -7 16.5 -23.5t-8.5 -30.5q-39 -49 -104 -49z" />
    <glyph glyph-name="uni0259" unicode="&#x259;" horiz-adv-x="616" 
d="M290 -4q-76 0 -132 34.5t-87 95t-31 139.5q0 17 11 27t28 10h418v-68h-423l43 30q0 -56 21 -100t59.5 -69t92.5 -25q58 0 100 26t64.5 72.5t22.5 105.5t-26 105t-71.5 72t-104.5 26q-34 0 -69.5 -12t-56.5 -30q-12 -9 -27 -9.5t-26 8.5q-15 13 -15.5 28t13.5 26
q33 28 84 46t97 18q82 0 145 -35.5t99 -98.5t36 -144t-34 -144t-93.5 -98.5t-137.5 -35.5z" />
    <glyph glyph-name="f" unicode="f" horiz-adv-x="366" 
d="M155 0q-16 0 -28 11.5t-12 31.5v502q0 71 25 124t73.5 82.5t115.5 29.5q19 0 31 -11t12 -27q0 -17 -12 -28t-31 -11q-42 0 -71 -19.5t-44 -54t-15 -79.5v-508q0 -20 -11.5 -31.5t-32.5 -11.5zM57 454q-18 0 -28.5 10.5t-10.5 25.5q0 16 10.5 26.5t28.5 10.5h257
q17 0 27.5 -10.5t10.5 -26.5q0 -15 -10.5 -25.5t-27.5 -10.5h-257z" />
    <glyph glyph-name="g" unicode="g" 
d="M327 -5q-78 0 -138 35.5t-94 98.5t-34 144q0 82 36 145t98.5 98.5t143.5 35.5q80 0 142.5 -35.5t98 -98.5t36.5 -145l-50 -17q0 -76 -30.5 -135t-84.5 -92.5t-124 -33.5zM339 -219q-76 0 -136.5 29t-101.5 81q-11 13 -9 28.5t16 24.5q15 10 32 7t27 -17q28 -35 72 -56
t102 -21q53 0 97 25.5t69.5 73.5t25.5 114v148l30 68l53 -13v-208q0 -80 -36 -144.5t-98 -102t-143 -37.5zM339 71q57 0 100.5 26t68.5 71.5t25 104.5t-25 105t-68.5 72t-100.5 26t-101 -26t-69.5 -72t-25.5 -105t25.5 -104.5t69.5 -71.5t101 -26z" />
    <glyph glyph-name="gbreve" unicode="&#x11f;" 
d="M327 -5q-78 0 -138 35.5t-94 98.5t-34 144q0 82 36 145t98.5 98.5t143.5 35.5q80 0 142.5 -35.5t98 -98.5t36.5 -145l-50 -17q0 -76 -30.5 -135t-84.5 -92.5t-124 -33.5zM339 -219q-76 0 -136.5 29t-101.5 81q-11 13 -9 28.5t16 24.5q15 10 32 7t27 -17q28 -35 72 -56
t102 -21q53 0 97 25.5t69.5 73.5t25.5 114v148l30 68l53 -13v-208q0 -80 -36 -144.5t-98 -102t-143 -37.5zM339 71q57 0 100.5 26t68.5 71.5t25 104.5t-25 105t-68.5 72t-100.5 26t-101 -26t-69.5 -72t-25.5 -105t25.5 -104.5t69.5 -71.5t101 -26zM338 623q-43 0 -79 16
t-57.5 42.5t-21.5 60.5q0 18 11.5 30.5t29.5 12.5q16 0 28.5 -10t12.5 -27q0 -23 22.5 -39t53.5 -16q36 0 56.5 16t20.5 39q0 17 12.5 27t29.5 10q18 0 29 -12.5t11 -30.5q-1 -35 -23 -62t-57.5 -42t-78.5 -15z" />
    <glyph glyph-name="gcaron" unicode="&#x1e7;" 
d="M327 -5q-78 0 -138 35.5t-94 98.5t-34 144q0 82 36 145t98.5 98.5t143.5 35.5q80 0 142.5 -35.5t98 -98.5t36.5 -145l-50 -17q0 -76 -30.5 -135t-84.5 -92.5t-124 -33.5zM339 -219q-76 0 -136.5 29t-101.5 81q-11 13 -9 28.5t16 24.5q15 10 32 7t27 -17q28 -35 72 -56
t102 -21q53 0 97 25.5t69.5 73.5t25.5 114v148l30 68l53 -13v-208q0 -80 -36 -144.5t-98 -102t-143 -37.5zM339 71q57 0 100.5 26t68.5 71.5t25 104.5t-25 105t-68.5 72t-100.5 26t-101 -26t-69.5 -72t-25.5 -105t25.5 -104.5t69.5 -71.5t101 -26zM339 635q-14 0 -21 6
l-116 76q-21 15 -21 36q0 20 21 28.5t48 -10.5l89 -60l89 59q31 21 50 11.5t19 -28.5q0 -21 -21 -36l-115 -76q-8 -6 -22 -6z" />
    <glyph glyph-name="gcircumflex" unicode="&#x11d;" 
d="M327 -5q-78 0 -138 35.5t-94 98.5t-34 144q0 82 36 145t98.5 98.5t143.5 35.5q80 0 142.5 -35.5t98 -98.5t36.5 -145l-50 -17q0 -76 -30.5 -135t-84.5 -92.5t-124 -33.5zM339 -219q-76 0 -136.5 29t-101.5 81q-11 13 -9 28.5t16 24.5q15 10 32 7t27 -17q28 -35 72 -56
t102 -21q53 0 97 25.5t69.5 73.5t25.5 114v148l30 68l53 -13v-208q0 -80 -36 -144.5t-98 -102t-143 -37.5zM339 71q57 0 100.5 26t68.5 71.5t25 104.5t-25 105t-68.5 72t-100.5 26t-101 -26t-69.5 -72t-25.5 -105t25.5 -104.5t69.5 -71.5t101 -26zM225 628q-19 0 -31.5 10
t-12.5 27q0 23 21 37l116 77q9 5 21 5q7 0 12 -1.5t10 -3.5l115 -77q21 -14 21 -37q0 -16 -12 -26.5t-31 -10.5q-7 0 -13.5 2t-12.5 7l-89 62l-89 -62q-12 -9 -25 -9z" />
    <glyph glyph-name="uni0123" unicode="&#x123;" 
d="M327 -5q-78 0 -138 35.5t-94 98.5t-34 144q0 82 36 145t98.5 98.5t143.5 35.5q80 0 142.5 -35.5t98 -98.5t36.5 -145l-50 -17q0 -76 -30.5 -135t-84.5 -92.5t-124 -33.5zM339 -219q-76 0 -136.5 29t-101.5 81q-11 13 -9 28.5t16 24.5q15 10 32 7t27 -17q28 -35 72 -56
t102 -21q53 0 97 25.5t69.5 73.5t25.5 114v148l30 68l53 -13v-208q0 -80 -36 -144.5t-98 -102t-143 -37.5zM339 71q57 0 100.5 26t68.5 71.5t25 104.5t-25 105t-68.5 72t-100.5 26t-101 -26t-69.5 -72t-25.5 -105t25.5 -104.5t69.5 -71.5t101 -26zM374 915q11 0 16.5 -6
t5.5 -15q0 -17 -9.5 -30t-20 -28t-10.5 -36q0 -18 7.5 -29.5t17 -21t17 -21.5t7.5 -29q0 -26 -17 -41.5t-44 -15.5q-33 0 -52 24t-19 67q0 30 9 61.5t24 59t33 44.5t35 17z" />
    <glyph glyph-name="gdotaccent" unicode="&#x121;" 
d="M327 -5q-78 0 -138 35.5t-94 98.5t-34 144q0 82 36 145t98.5 98.5t143.5 35.5q80 0 142.5 -35.5t98 -98.5t36.5 -145l-50 -17q0 -76 -30.5 -135t-84.5 -92.5t-124 -33.5zM339 -219q-76 0 -136.5 29t-101.5 81q-11 13 -9 28.5t16 24.5q15 10 32 7t27 -17q28 -35 72 -56
t102 -21q53 0 97 25.5t69.5 73.5t25.5 114v148l30 68l53 -13v-208q0 -80 -36 -144.5t-98 -102t-143 -37.5zM339 71q57 0 100.5 26t68.5 71.5t25 104.5t-25 105t-68.5 72t-100.5 26t-101 -26t-69.5 -72t-25.5 -105t25.5 -104.5t69.5 -71.5t101 -26zM338 646q-24 0 -41 17.5
t-17 41.5q0 25 17.5 41t40.5 16t40.5 -16t17.5 -41q0 -24 -17 -41.5t-41 -17.5z" />
    <glyph glyph-name="h" unicode="h" horiz-adv-x="679" 
d="M133 216q-20 0 -31.5 12t-11.5 30v480q0 20 11.5 31.5t31.5 11.5q19 0 30.5 -11.5t11.5 -31.5v-480q0 -18 -11.5 -30t-30.5 -12zM557 0q-19 0 -31 12t-12 30v255q0 61 -22.5 99.5t-61.5 58t-89 19.5q-47 0 -84.5 -18.5t-59.5 -50t-22 -72.5h-58q2 63 33.5 112.5
t84.5 78.5t118 29q70 0 125.5 -29.5t88 -86.5t32.5 -140v-255q0 -18 -12 -30t-30 -12zM133 0q-20 0 -31.5 11.5t-11.5 30.5v462q0 20 11.5 31.5t31.5 11.5q19 0 30.5 -11.5t11.5 -31.5v-462q0 -19 -11.5 -30.5t-30.5 -11.5z" />
    <glyph glyph-name="hbar" unicode="&#x127;" horiz-adv-x="679" 
d="M133 216q-20 0 -31.5 12t-11.5 30v480q0 20 11.5 31.5t31.5 11.5q19 0 30.5 -11.5t11.5 -31.5v-480q0 -18 -11.5 -30t-30.5 -12zM557 0q-19 0 -31 12t-12 30v255q0 61 -22.5 99.5t-61.5 58t-89 19.5q-47 0 -84.5 -18.5t-59.5 -50t-22 -72.5h-58q2 63 33.5 112.5
t84.5 78.5t118 29q70 0 125.5 -29.5t88 -86.5t32.5 -140v-255q0 -18 -12 -30t-30 -12zM133 0q-20 0 -31.5 11.5t-11.5 30.5v462q0 20 11.5 31.5t31.5 11.5q19 0 30.5 -11.5t11.5 -31.5v-462q0 -19 -11.5 -30.5t-30.5 -11.5zM38 610q-18 0 -29.5 10t-11.5 27q0 18 11.5 28
t29.5 10h320q19 0 30.5 -10t11.5 -28q0 -17 -11.5 -27t-30.5 -10h-320z" />
    <glyph glyph-name="hcircumflex" unicode="&#x125;" horiz-adv-x="679" 
d="M133 216q-20 0 -31.5 12t-11.5 30v480q0 20 11.5 31.5t31.5 11.5q19 0 30.5 -11.5t11.5 -31.5v-480q0 -18 -11.5 -30t-30.5 -12zM557 0q-19 0 -31 12t-12 30v255q0 61 -22.5 99.5t-61.5 58t-89 19.5q-47 0 -84.5 -18.5t-59.5 -50t-22 -72.5h-58q2 63 33.5 112.5
t84.5 78.5t118 29q70 0 125.5 -29.5t88 -86.5t32.5 -140v-255q0 -18 -12 -30t-30 -12zM133 0q-20 0 -31.5 11.5t-11.5 30.5v462q0 20 11.5 31.5t31.5 11.5q19 0 30.5 -11.5t11.5 -31.5v-462q0 -19 -11.5 -30.5t-30.5 -11.5zM19 862q-19 0 -31.5 10t-12.5 27q0 23 21 37
l116 77q9 5 21 5q7 0 12 -1.5t10 -3.5l115 -77q21 -14 21 -37q0 -16 -12 -26.5t-31 -10.5q-7 0 -13.5 2t-12.5 7l-89 62l-89 -62q-12 -9 -25 -9z" />
    <glyph glyph-name="i" unicode="i" horiz-adv-x="293" 
d="M147 0q-19 0 -31 11.5t-12 31.5v461q0 20 12 31.5t31 11.5t30.5 -11.5t11.5 -31.5v-461q0 -20 -11.5 -31.5t-30.5 -11.5zM146 646q-24 0 -41 17.5t-17 41.5q0 25 17.5 41t40.5 16t40.5 -16t17.5 -41q0 -24 -17 -41.5t-41 -17.5z" />
    <glyph glyph-name="dotlessi" unicode="&#x131;" horiz-adv-x="293" 
d="M147 0q-19 0 -31 11.5t-12 31.5v461q0 20 12 31.5t31 11.5t30.5 -11.5t11.5 -31.5v-461q0 -20 -11.5 -31.5t-30.5 -11.5z" />
    <glyph glyph-name="iacute" unicode="&#xed;" horiz-adv-x="293" 
d="M147 0q-19 0 -31 11.5t-12 31.5v461q0 20 12 31.5t31 11.5t30.5 -11.5t11.5 -31.5v-461q0 -20 -11.5 -31.5t-30.5 -11.5zM142 631q-18 0 -30 12.5t-12 29.5q0 18 9 29l109 108q12 13 30 13t30 -12.5t12 -31.5q0 -8 -2.5 -15.5t-9.5 -13.5l-107 -108q-11 -11 -29 -11z" />
    <glyph glyph-name="ibreve" unicode="&#x12d;" horiz-adv-x="293" 
d="M146 623q-39 0 -71 16t-52 42.5t-20 60.5q0 18 11 30.5t27 12.5q14 0 25 -10t11 -27q0 -23 20 -39t49 -16q32 0 51 16t19 39q0 17 11 27t26 10t25 -12.5t10 -30.5q0 -35 -20 -62t-52 -42t-70 -15zM147 0q-19 0 -31 11.5t-12 31.5v461q0 20 12 31.5t31 11.5t30.5 -11.5
t11.5 -31.5v-461q0 -20 -11.5 -31.5t-30.5 -11.5z" />
    <glyph glyph-name="icircumflex" unicode="&#xee;" horiz-adv-x="293" 
d="M43 628q-16 0 -27.5 10t-11.5 27q0 23 19 37l105 77q8 5 19 5q5 0 10 -1.5t10 -3.5l103 -77q19 -14 19 -37q0 -16 -10.5 -26.5t-27.5 -10.5q-8 0 -13.5 2t-11.5 7l-79 62l-80 -62q-11 -9 -24 -9zM147 0q-19 0 -31 11.5t-12 31.5v461q0 20 12 31.5t31 11.5t30.5 -11.5
t11.5 -31.5v-461q0 -20 -11.5 -31.5t-30.5 -11.5z" />
    <glyph glyph-name="uni0209" unicode="&#x209;" horiz-adv-x="293" 
d="M147 0q-19 0 -31 11.5t-12 31.5v461q0 20 12 31.5t31 11.5t30.5 -11.5t11.5 -31.5v-461q0 -20 -11.5 -31.5t-30.5 -11.5zM251 622q-20 0 -31 21l-59 126q-4 7 -4 16q0 16 12.5 29t31.5 13q13 0 24.5 -7.5t15.5 -19.5l40 -132q3 -6 3 -13q0 -16 -10.5 -24.5t-22.5 -8.5z
M103 622q-21 0 -32 21l-59 126q-2 4 -2.5 8t-0.5 8q0 16 12 29t31 13q13 0 24 -7.5t14 -19.5l43 -132q1 -3 1.5 -6.5t0.5 -6.5q0 -16 -10.5 -24.5t-21.5 -8.5z" />
    <glyph glyph-name="idieresis" unicode="&#xef;" horiz-adv-x="293" 
d="M50 667q-24 0 -41 16.5t-17 40.5q0 23 17 39.5t41 16.5q23 0 40 -16.5t17 -39.5q0 -24 -17 -40.5t-40 -16.5zM243 667q-24 0 -40.5 16.5t-16.5 40.5q0 23 16.5 39.5t40.5 16.5q23 0 40 -16.5t17 -39.5q0 -24 -17 -40.5t-40 -16.5zM147 0q-19 0 -31 11.5t-12 31.5v461
q0 20 12 31.5t31 11.5t30.5 -11.5t11.5 -31.5v-461q0 -20 -11.5 -31.5t-30.5 -11.5z" />
    <glyph glyph-name="i.loclTRK" horiz-adv-x="293" 
d="M147 0q-19 0 -31 11.5t-12 31.5v461q0 20 12 31.5t31 11.5t30.5 -11.5t11.5 -31.5v-461q0 -20 -11.5 -31.5t-30.5 -11.5zM146 646q-24 0 -41 17.5t-17 41.5q0 25 17.5 41t40.5 16t40.5 -16t17.5 -41q0 -24 -17 -41.5t-41 -17.5z" />
    <glyph glyph-name="uni1ECB" unicode="&#x1ecb;" horiz-adv-x="293" 
d="M147 0q-19 0 -31 11.5t-12 31.5v461q0 20 12 31.5t31 11.5t30.5 -11.5t11.5 -31.5v-461q0 -20 -11.5 -31.5t-30.5 -11.5zM146 646q-24 0 -41 17.5t-17 41.5q0 25 17.5 41t40.5 16t40.5 -16t17.5 -41q0 -24 -17 -41.5t-41 -17.5zM146 -214q-24 0 -41 17.5t-17 41.5
q0 25 17.5 41t40.5 16t40.5 -16t17.5 -41q0 -24 -17 -41.5t-41 -17.5z" />
    <glyph glyph-name="igrave" unicode="&#xec;" horiz-adv-x="293" 
d="M147 0q-19 0 -31 11.5t-12 31.5v461q0 20 12 31.5t31 11.5t30.5 -11.5t11.5 -31.5v-461q0 -20 -11.5 -31.5t-30.5 -11.5zM146 635q-18 0 -29 12l-109 107q-10 13 -10 30q0 18 11.5 31t29.5 13t31 -13l107 -109q11 -9 11 -28q0 -18 -12 -30.5t-30 -12.5z" />
    <glyph glyph-name="uni1EC9" unicode="&#x1ec9;" horiz-adv-x="293" 
d="M147 0q-19 0 -31 11.5t-12 31.5v461q0 20 12 31.5t31 11.5t30.5 -11.5t11.5 -31.5v-461q0 -20 -11.5 -31.5t-30.5 -11.5zM146 599q-16 0 -27.5 11t-11.5 28v26q0 34 34 42l26 5q20 5 30.5 15.5t10.5 27.5q0 21 -14 32.5t-34 11.5q-13 0 -24.5 -5t-20.5 -11
q-5 -5 -12.5 -7.5t-14.5 -2.5q-14 0 -24 8.5t-10 24.5q0 18 13 29q20 16 42 24t50 8q51 0 84.5 -30.5t33.5 -77.5q0 -48 -31 -71t-74 -29l12 -9q0 -25 -11.5 -37.5t-26.5 -12.5z" />
    <glyph glyph-name="uni020B" unicode="&#x20b;" horiz-adv-x="293" 
d="M40 622q-16 0 -26.5 12.5t-10.5 31.5q0 33 19.5 60t52 42.5t71.5 15.5q38 0 70 -15t52 -42t21 -62q-1 -18 -11 -30.5t-26 -12.5q-15 0 -26 10.5t-11 27.5q0 23 -18.5 38.5t-50.5 15.5q-29 0 -49 -16t-20 -38q0 -17 -11 -27.5t-26 -10.5zM147 0q-19 0 -31 11.5t-12 31.5
v461q0 20 12 31.5t31 11.5t30.5 -11.5t11.5 -31.5v-461q0 -20 -11.5 -31.5t-30.5 -11.5z" />
    <glyph glyph-name="ij" unicode="&#x133;" horiz-adv-x="579" 
d="M147 0q-19 0 -31 11.5t-12 31.5v461q0 20 12 31.5t31 11.5t30.5 -11.5t11.5 -31.5v-461q0 -20 -11.5 -31.5t-30.5 -11.5zM146 646q-24 0 -41 17.5t-17 41.5q0 25 17.5 41t40.5 16t40.5 -16t17.5 -41q0 -24 -17 -41.5t-41 -17.5zM240 -234q-19 0 -31 11.5t-12 31.5
q0 19 12 30.5t31 11.5q44 0 77.5 19.5t53 53t19.5 77.5v503q0 20 11.5 31.5t30.5 11.5t30.5 -11.5t11.5 -31.5v-503q0 -69 -30 -122t-83 -83t-121 -30zM431 646q-24 0 -41 17.5t-17 41.5q0 25 17.5 41t40.5 16t40.5 -16t17.5 -41q0 -24 -17 -41.5t-41 -17.5z" />
    <glyph glyph-name="imacron" unicode="&#x12b;" horiz-adv-x="293" 
d="M43 653q-14 0 -24 10.5t-10 28.5t10 28.5t24 10.5h205q14 0 24.5 -10.5t10.5 -28.5t-10.5 -28.5t-24.5 -10.5h-205zM147 0q-19 0 -31 11.5t-12 31.5v461q0 20 12 31.5t31 11.5t30.5 -11.5t11.5 -31.5v-461q0 -20 -11.5 -31.5t-30.5 -11.5z" />
    <glyph glyph-name="iogonek" unicode="&#x12f;" horiz-adv-x="293" 
d="M147 0q-19 0 -31 11.5t-12 31.5v461q0 20 12 31.5t31 11.5t30.5 -11.5t11.5 -31.5v-461q0 -20 -11.5 -31.5t-30.5 -11.5zM146 646q-24 0 -41 17.5t-17 41.5q0 25 17.5 41t40.5 16t40.5 -16t17.5 -41q0 -24 -17 -41.5t-41 -17.5zM147 -267q-32 0 -59 16t-43.5 43.5
t-16.5 60.5q0 56 50 98q13 9 20.5 18t11.5 19q12 22 37 22q18 0 30 -11.5t13 -30.5q0 -22 -15.5 -43t-47.5 -44q-7 -5 -10.5 -13t-3.5 -15q0 -14 10 -24t24 -10q5 0 10 1t8 4l34 25q12 8 25 8q19 0 31 -12t12 -31t-15 -34l-39 -25q-31 -22 -66 -22z" />
    <glyph glyph-name="itilde" unicode="&#x129;" horiz-adv-x="293" 
d="M147 0q-19 0 -31 11.5t-12 31.5v461q0 20 12 31.5t31 11.5t30.5 -11.5t11.5 -31.5v-461q0 -20 -11.5 -31.5t-30.5 -11.5zM213 638q-26 0 -46 11.5t-35 26.5q-14 13 -23 19.5t-20 6.5t-19 -9t-17 -25q-8 -14 -21.5 -19.5t-27.5 0.5q-15 6 -20 20t3 29q19 39 42.5 56.5
t54.5 17.5t49 -14t33 -26q14 -13 22.5 -17.5t15.5 -4.5q13 0 24 21q9 14 23 20.5t27 1.5q17 -7 22.5 -21t-2.5 -29q-18 -35 -39 -50t-46 -15z" />
    <glyph glyph-name="j" unicode="j" horiz-adv-x="286" 
d="M-53 -234q-19 0 -31 11.5t-12 31.5q0 19 12 30.5t31 11.5q44 0 77.5 19.5t53 53t19.5 77.5v503q0 20 11.5 31.5t30.5 11.5t30.5 -11.5t11.5 -31.5v-503q0 -69 -30 -122t-83 -83t-121 -30zM138 646q-24 0 -41 17.5t-17 41.5q0 25 17.5 41t40.5 16t40.5 -16t17.5 -41
q0 -24 -17 -41.5t-41 -17.5z" />
    <glyph glyph-name="uni0237" unicode="&#x237;" horiz-adv-x="286" 
d="M-53 -234q-19 0 -31 11.5t-12 31.5q0 19 12 30.5t31 11.5q44 0 77.5 19.5t53 53t19.5 77.5v503q0 20 11.5 31.5t30.5 11.5t30.5 -11.5t11.5 -31.5v-503q0 -69 -30 -122t-83 -83t-121 -30z" />
    <glyph glyph-name="jcircumflex" unicode="&#x135;" horiz-adv-x="286" 
d="M35 628q-16 0 -27.5 10t-11.5 27q0 23 19 37l105 77q8 5 19 5q5 0 10 -1.5t10 -3.5l103 -77q19 -14 19 -37q0 -16 -11 -26.5t-27 -10.5q-8 0 -13.5 2t-11.5 7l-79 62l-80 -62q-11 -9 -24 -9zM-53 -234q-19 0 -31 11.5t-12 31.5q0 19 12 30.5t31 11.5q44 0 77.5 19.5
t53 53t19.5 77.5v503q0 20 11.5 31.5t30.5 11.5t30.5 -11.5t11.5 -31.5v-503q0 -69 -30 -122t-83 -83t-121 -30z" />
    <glyph glyph-name="k" unicode="k" horiz-adv-x="571" 
d="M163 188l-51 56l331 299q13 12 27.5 11t26.5 -14t11 -27.5t-14 -26.5zM131 0q-18 0 -29.5 11.5t-11.5 29.5v699q0 18 11.5 29.5t29.5 11.5q19 0 30.5 -11.5t11.5 -29.5v-699q0 -18 -11.5 -29.5t-30.5 -11.5zM497 5q-14 -12 -29.5 -10.5t-26.5 15.5l-217 267l59 54
l220 -271q11 -13 10 -28t-16 -27z" />
    <glyph glyph-name="uni0137" unicode="&#x137;" horiz-adv-x="571" 
d="M163 188l-51 56l331 299q13 12 27.5 11t26.5 -14t11 -27.5t-14 -26.5zM131 0q-18 0 -29.5 11.5t-11.5 29.5v699q0 18 11.5 29.5t29.5 11.5q19 0 30.5 -11.5t11.5 -29.5v-699q0 -18 -11.5 -29.5t-30.5 -11.5zM497 5q-14 -12 -29.5 -10.5t-26.5 15.5l-217 267l59 54
l220 -271q11 -13 10 -28t-16 -27zM285 -241q-26 0 -54.5 8.5t-48 25t-19.5 40.5q0 13 8.5 21t22.5 8t23.5 -6t18 -15t21 -15.5t34.5 -6.5q29 0 42.5 10t13.5 31q0 18 -17 29.5t-53 11.5q-21 0 -33.5 7t-12.5 22q0 31 50 31q57 0 92.5 -28t35.5 -72q0 -47 -35.5 -74.5
t-88.5 -27.5z" />
    <glyph glyph-name="kgreenlandic" unicode="&#x138;" horiz-adv-x="571" 
d="M163 188l-51 56l331 299q13 12 27.5 11t26.5 -14t11 -27.5t-14 -26.5zM131 0q-18 0 -29.5 11.5t-11.5 29.5v465q0 18 11.5 29.5t29.5 11.5q19 0 30.5 -11.5t11.5 -29.5v-465q0 -18 -11.5 -29.5t-30.5 -11.5zM497 5q-14 -12 -29.5 -10.5t-26.5 15.5l-217 267l59 54
l220 -271q11 -13 10 -28t-16 -27z" />
    <glyph glyph-name="l" unicode="l" horiz-adv-x="288" 
d="M212 0q-42 0 -74 22.5t-50 62.5t-18 92v562q0 19 11.5 30.5t30.5 11.5q18 0 29.5 -11.5t11.5 -30.5v-562q0 -41 16.5 -67.5t42.5 -26.5h25q16 0 26 -11.5t10 -29.5q0 -19 -14.5 -30.5t-37.5 -11.5h-9z" />
    <glyph glyph-name="lacute" unicode="&#x13a;" horiz-adv-x="288" 
d="M212 0q-42 0 -74 22.5t-50 62.5t-18 92v462q0 19 11.5 30.5t30.5 11.5q18 0 29.5 -11.5t11.5 -30.5v-462q0 -41 16.5 -67.5t42.5 -26.5h25q16 0 26 -11.5t10 -29.5q0 -19 -14.5 -30.5t-37.5 -11.5h-9zM108 753q-19 0 -31 12t-12 31q0 17 10 28l109 109q12 12 30 12
t30.5 -12.5t12.5 -31.5q0 -17 -13 -28l-107 -109q-11 -11 -29 -11z" />
    <glyph glyph-name="lcaron" unicode="&#x13e;" horiz-adv-x="373" 
d="M212 0q-42 0 -74 22.5t-50 62.5t-18 92v562q0 19 11.5 30.5t30.5 11.5q18 0 29.5 -11.5t11.5 -30.5v-562q0 -41 16.5 -67.5t42.5 -26.5h25q16 0 26 -11.5t10 -29.5q0 -19 -14.5 -30.5t-37.5 -11.5h-9zM275 518q-11 2 -17 8t-5 17q2 14 13 30.5t23.5 36t15.5 46.5
q2 19 -2.5 31.5t-9.5 25.5t-5 33q0 21 14 30.5t33 9.5q30 0 45 -29.5t10 -67.5q-4 -30 -17.5 -60.5t-31.5 -56.5t-36 -41t-30 -13z" />
    <glyph glyph-name="uni013C" unicode="&#x13c;" horiz-adv-x="288" 
d="M212 0q-42 0 -74 22.5t-50 62.5t-18 92v562q0 19 11.5 30.5t30.5 11.5q18 0 29.5 -11.5t11.5 -30.5v-562q0 -41 16.5 -67.5t42.5 -26.5h25q16 0 26 -11.5t10 -29.5q0 -19 -14.5 -30.5t-37.5 -11.5h-9zM218 -241q-26 0 -54.5 8.5t-48 25t-19.5 40.5q0 13 8.5 21t22.5 8
t23.5 -6t18 -15t21 -15.5t34.5 -6.5q29 0 42.5 10t13.5 31q0 18 -17 29.5t-53 11.5q-21 0 -33.5 7t-12.5 22q0 31 50 31q57 0 92.5 -28t35.5 -72q0 -47 -35.5 -74.5t-88.5 -27.5z" />
    <glyph glyph-name="ldot" unicode="&#x140;" horiz-adv-x="360" 
d="M212 0q-42 0 -74 22.5t-50 62.5t-18 92v562q0 19 11.5 30.5t30.5 11.5q18 0 29.5 -11.5t11.5 -30.5v-562q0 -41 16.5 -67.5t42.5 -26.5h25q16 0 26 -11.5t10 -29.5q0 -19 -14.5 -30.5t-37.5 -11.5h-9zM300 308q-26 0 -44 18t-18 44t18 44t44 18q25 0 42.5 -18.5
t17.5 -43.5q0 -26 -17.5 -44t-42.5 -18z" />
    <glyph glyph-name="lslash" unicode="&#x142;" horiz-adv-x="352" 
d="M157 0q-18 0 -30 12t-12 31v245l-31 -31q-12 -12 -29 -12t-30.5 11.5t-13.5 31.5q0 17 12 29l92 91v327q0 18 12 30.5t30 12.5t30.5 -12.5t12.5 -30.5v-243l43 43q13 12 29 12q18 0 30.5 -12.5t12.5 -30.5q0 -17 -12 -29l-103 -102v-288h34q19 0 31 -12t12 -30
q0 -19 -12.5 -31t-30.5 -12h-77z" />
    <glyph glyph-name="m" unicode="m" horiz-adv-x="944" 
d="M823 0q-19 0 -31 11.5t-12 30.5v287q0 69 -35 107t-91 38q-59 0 -96.5 -40t-37.5 -105h-73q1 67 29 117.5t77.5 78.5t112.5 28q58 0 103 -27t70.5 -77.5t25.5 -119.5v-287q0 -19 -12 -30.5t-30 -11.5zM133 0q-20 0 -31.5 11.5t-11.5 30.5v462q0 19 11.5 31t31.5 12
q19 0 30.5 -12t11.5 -31v-462q0 -19 -11.5 -30.5t-30.5 -11.5zM478 0q-18 0 -30 11.5t-12 30.5v287q0 69 -35.5 107t-90.5 38q-59 0 -97 -39t-38 -102h-58q2 65 28 114.5t72 77.5t105 28q58 0 103 -27t70 -77.5t25 -119.5v-287q0 -19 -11.5 -30.5t-30.5 -11.5z" />
    <glyph glyph-name="n" unicode="n" horiz-adv-x="679" 
d="M557 0q-19 0 -31 12t-12 30v255q0 61 -22.5 99.5t-61.5 58t-89 19.5q-47 0 -84.5 -18.5t-59.5 -50t-22 -72.5h-58q2 63 33.5 112.5t84.5 78.5t118 29q70 0 125.5 -29.5t88 -86.5t32.5 -140v-255q0 -18 -12 -30t-30 -12zM133 0q-20 0 -31.5 11.5t-11.5 30.5v462
q0 20 11.5 31.5t31.5 11.5q19 0 30.5 -11.5t11.5 -31.5v-462q0 -19 -11.5 -30.5t-30.5 -11.5z" />
    <glyph glyph-name="nacute" unicode="&#x144;" horiz-adv-x="679" 
d="M557 0q-19 0 -31 12t-12 30v255q0 61 -22.5 99.5t-61.5 58t-89 19.5q-47 0 -84.5 -18.5t-59.5 -50t-22 -72.5h-58q2 63 33.5 112.5t84.5 78.5t118 29q70 0 125.5 -29.5t88 -86.5t32.5 -140v-255q0 -18 -12 -30t-30 -12zM133 0q-20 0 -31.5 11.5t-11.5 30.5v462
q0 20 11.5 31.5t31.5 11.5q19 0 30.5 -11.5t11.5 -31.5v-462q0 -19 -11.5 -30.5t-30.5 -11.5zM336 631q-18 0 -30 12.5t-12 29.5q0 18 9 29l109 108q12 13 30 13t30 -12.5t12 -31.5q0 -8 -2.5 -15.5t-9.5 -13.5l-107 -108q-11 -11 -29 -11z" />
    <glyph glyph-name="ncaron" unicode="&#x148;" horiz-adv-x="679" 
d="M557 0q-19 0 -31 12t-12 30v255q0 61 -22.5 99.5t-61.5 58t-89 19.5q-47 0 -84.5 -18.5t-59.5 -50t-22 -72.5h-58q2 63 33.5 112.5t84.5 78.5t118 29q70 0 125.5 -29.5t88 -86.5t32.5 -140v-255q0 -18 -12 -30t-30 -12zM133 0q-20 0 -31.5 11.5t-11.5 30.5v462
q0 20 11.5 31.5t31.5 11.5q19 0 30.5 -11.5t11.5 -31.5v-462q0 -19 -11.5 -30.5t-30.5 -11.5zM340 635q-14 0 -21 6l-116 76q-21 15 -21 36q0 20 21 28.5t48 -10.5l89 -60l89 59q31 21 50 11.5t19 -28.5q0 -21 -21 -36l-115 -76q-8 -6 -22 -6z" />
    <glyph glyph-name="uni0146" unicode="&#x146;" horiz-adv-x="679" 
d="M557 0q-19 0 -31 12t-12 30v255q0 61 -22.5 99.5t-61.5 58t-89 19.5q-47 0 -84.5 -18.5t-59.5 -50t-22 -72.5h-58q2 63 33.5 112.5t84.5 78.5t118 29q70 0 125.5 -29.5t88 -86.5t32.5 -140v-255q0 -18 -12 -30t-30 -12zM133 0q-20 0 -31.5 11.5t-11.5 30.5v462
q0 20 11.5 31.5t31.5 11.5q19 0 30.5 -11.5t11.5 -31.5v-462q0 -19 -11.5 -30.5t-30.5 -11.5zM344 -241q-26 0 -54.5 8.5t-48 25t-19.5 40.5q0 13 8.5 21t22.5 8t23.5 -6t18 -15t21 -15.5t34.5 -6.5q29 0 42.5 10t13.5 31q0 18 -17 29.5t-53 11.5q-21 0 -33.5 7t-12.5 22
q0 31 50 31q57 0 92.5 -28t35.5 -72q0 -47 -35.5 -74.5t-88.5 -27.5z" />
    <glyph glyph-name="eng" unicode="&#x14b;" horiz-adv-x="673" 
d="M384 -206q-66 0 -113 28t-64 79q-5 15 1.5 26.5t20.5 14.5q12 4 24.5 -3.5t19.5 -22.5q11 -24 37.5 -36.5t67.5 -12.5q62 0 99 62.5t37 197.5v170q0 52 -22 91.5t-61 62.5t-90 23q-49 0 -86 -18t-58.5 -49.5t-21.5 -73.5v-291q0 -19 -11.5 -30.5t-30.5 -11.5
q-20 0 -31.5 11.5t-11.5 30.5v462q0 20 11.5 31.5t31.5 11.5q19 0 30.5 -11.5t11.5 -31.5v-32q30 38 76 59.5t102 21.5q72 0 127.5 -32.5t87 -90.5t31.5 -133v-170q0 -110 -27.5 -184t-76 -111.5t-111.5 -37.5z" />
    <glyph glyph-name="ntilde" unicode="&#xf1;" horiz-adv-x="679" 
d="M557 0q-19 0 -31 12t-12 30v255q0 61 -22.5 99.5t-61.5 58t-89 19.5q-47 0 -84.5 -18.5t-59.5 -50t-22 -72.5h-58q2 63 33.5 112.5t84.5 78.5t118 29q70 0 125.5 -29.5t88 -86.5t32.5 -140v-255q0 -18 -12 -30t-30 -12zM133 0q-20 0 -31.5 11.5t-11.5 30.5v462
q0 20 11.5 31.5t31.5 11.5q19 0 30.5 -11.5t11.5 -31.5v-462q0 -19 -11.5 -30.5t-30.5 -11.5zM445 625q-32 0 -56.5 11.5t-41.5 21.5q-22 13 -35.5 18t-26.5 5q-17 0 -32 -7.5t-29 -25.5q-10 -14 -24.5 -19t-29.5 3q-14 7 -16.5 23t7.5 30q24 32 57 49.5t70 17.5
q32 0 55.5 -11t39.5 -21q21 -12 33.5 -17.5t27.5 -5.5t26 5t20 14q12 12 24 16.5t27 -4.5q14 -7 16.5 -23.5t-8.5 -30.5q-39 -49 -104 -49z" />
    <glyph glyph-name="o" unicode="o" 
d="M339 -5q-81 0 -143.5 36t-98.5 99t-36 143q0 81 36 144t98.5 99t143.5 36q80 0 142 -36t98 -99t37 -144q0 -80 -36 -143t-98.5 -99t-142.5 -36zM339 71q56 0 100 26.5t69 72t25 103.5t-25 104t-69 72.5t-100 26.5t-100.5 -26.5t-70 -72.5t-25.5 -104t25.5 -103.5t70 -72
t100.5 -26.5z" />
    <glyph glyph-name="oacute" unicode="&#xf3;" 
d="M339 -5q-81 0 -143.5 36t-98.5 99t-36 143q0 81 36 144t98.5 99t143.5 36q80 0 142 -36t98 -99t37 -144q0 -80 -36 -143t-98.5 -99t-142.5 -36zM339 71q56 0 100 26.5t69 72t25 103.5t-25 104t-69 72.5t-100 26.5t-100.5 -26.5t-70 -72.5t-25.5 -104t25.5 -103.5t70 -72
t100.5 -26.5zM335 631q-18 0 -30 12.5t-12 29.5q0 18 9 29l109 108q12 13 30 13t30 -12.5t12 -31.5q0 -8 -2.5 -15.5t-9.5 -13.5l-107 -108q-11 -11 -29 -11z" />
    <glyph glyph-name="obreve" unicode="&#x14f;" 
d="M339 -5q-81 0 -143.5 36t-98.5 99t-36 143q0 81 36 144t98.5 99t143.5 36q80 0 142 -36t98 -99t37 -144q0 -80 -36 -143t-98.5 -99t-142.5 -36zM339 71q56 0 100 26.5t69 72t25 103.5t-25 104t-69 72.5t-100 26.5t-100.5 -26.5t-70 -72.5t-25.5 -104t25.5 -103.5t70 -72
t100.5 -26.5zM338 623q-43 0 -79 16t-57.5 42.5t-21.5 60.5q0 18 11.5 30.5t29.5 12.5q16 0 28.5 -10t12.5 -27q0 -23 22.5 -39t53.5 -16q36 0 56.5 16t20.5 39q0 17 12.5 27t29.5 10q18 0 29 -12.5t11 -30.5q-1 -35 -23 -62t-57.5 -42t-78.5 -15z" />
    <glyph glyph-name="ocircumflex" unicode="&#xf4;" 
d="M339 -5q-81 0 -143.5 36t-98.5 99t-36 143q0 81 36 144t98.5 99t143.5 36q80 0 142 -36t98 -99t37 -144q0 -80 -36 -143t-98.5 -99t-142.5 -36zM339 71q56 0 100 26.5t69 72t25 103.5t-25 104t-69 72.5t-100 26.5t-100.5 -26.5t-70 -72.5t-25.5 -104t25.5 -103.5t70 -72
t100.5 -26.5zM225 628q-19 0 -31.5 10t-12.5 27q0 23 21 37l116 77q9 5 21 5q7 0 12 -1.5t10 -3.5l115 -77q21 -14 21 -37q0 -16 -12 -26.5t-31 -10.5q-7 0 -13.5 2t-12.5 7l-89 62l-89 -62q-12 -9 -25 -9z" />
    <glyph glyph-name="uni1ED1" unicode="&#x1ed1;" 
d="M339 -5q-81 0 -143.5 36t-98.5 99t-36 143q0 81 36 144t98.5 99t143.5 36q80 0 142 -36t98 -99t37 -144q0 -80 -36 -143t-98.5 -99t-142.5 -36zM339 71q56 0 100 26.5t69 72t25 103.5t-25 104t-69 72.5t-100 26.5t-100.5 -26.5t-70 -72.5t-25.5 -104t25.5 -103.5t70 -72
t100.5 -26.5zM224 628q-18 0 -30.5 10t-12.5 27q0 23 21 37l116 77q9 5 21 5q6 0 11.5 -1.5t10.5 -3.5l115 -77q21 -14 21 -37q0 -16 -12 -26.5t-31 -10.5q-8 0 -14 2t-12 7l-89 62l-89 -62q-12 -9 -26 -9zM434 792q-18 0 -30.5 12t-12.5 31q0 17 10 28l108 109q13 12 30 12
q20 0 31.5 -12.5t11.5 -31.5q0 -8 -3 -15.5t-9 -12.5l-108 -109q-11 -11 -28 -11z" />
    <glyph glyph-name="uni1ED9" unicode="&#x1ed9;" 
d="M339 -5q-81 0 -143.5 36t-98.5 99t-36 143q0 81 36 144t98.5 99t143.5 36q80 0 142 -36t98 -99t37 -144q0 -80 -36 -143t-98.5 -99t-142.5 -36zM339 71q56 0 100 26.5t69 72t25 103.5t-25 104t-69 72.5t-100 26.5t-100.5 -26.5t-70 -72.5t-25.5 -104t25.5 -103.5t70 -72
t100.5 -26.5zM225 628q-19 0 -31.5 10t-12.5 27q0 23 21 37l116 77q9 5 21 5q7 0 12 -1.5t10 -3.5l115 -77q21 -14 21 -37q0 -16 -12 -26.5t-31 -10.5q-7 0 -13.5 2t-12.5 7l-89 62l-89 -62q-12 -9 -25 -9zM338 -214q-24 0 -41 17.5t-17 41.5q0 25 17.5 41t40.5 16t40.5 -16
t17.5 -41q0 -24 -17 -41.5t-41 -17.5z" />
    <glyph glyph-name="uni1ED3" unicode="&#x1ed3;" 
d="M339 -5q-81 0 -143.5 36t-98.5 99t-36 143q0 81 36 144t98.5 99t143.5 36q80 0 142 -36t98 -99t37 -144q0 -80 -36 -143t-98.5 -99t-142.5 -36zM339 71q56 0 100 26.5t69 72t25 103.5t-25 104t-69 72.5t-100 26.5t-100.5 -26.5t-70 -72.5t-25.5 -104t25.5 -103.5t70 -72
t100.5 -26.5zM224 628q-18 0 -30.5 10t-12.5 27q0 23 21 37l116 77q9 5 21 5q6 0 11.5 -1.5t10.5 -3.5l115 -77q21 -14 21 -37q0 -16 -12 -26.5t-31 -10.5q-8 0 -14 2t-12 7l-89 62l-89 -62q-12 -9 -26 -9zM436 796q-17 0 -28 12l-109 108q-11 11 -11 29q0 19 12 31.5
t30 12.5t31 -13l107 -108q11 -11 11 -28q0 -19 -12.5 -31.5t-30.5 -12.5z" />
    <glyph glyph-name="uni1ED5" unicode="&#x1ed5;" 
d="M339 -5q-81 0 -143.5 36t-98.5 99t-36 143q0 81 36 144t98.5 99t143.5 36q80 0 142 -36t98 -99t37 -144q0 -80 -36 -143t-98.5 -99t-142.5 -36zM339 71q56 0 100 26.5t69 72t25 103.5t-25 104t-69 72.5t-100 26.5t-100.5 -26.5t-70 -72.5t-25.5 -104t25.5 -103.5t70 -72
t100.5 -26.5zM227 628q-18 0 -30.5 10t-12.5 27q0 23 21 37l116 77q9 5 21 5q6 0 11.5 -1.5t10.5 -3.5l115 -77q21 -14 21 -37q0 -16 -12 -26.5t-31 -10.5q-8 0 -14 2t-12 7l-89 62l-89 -62q-12 -9 -26 -9zM440 760q-16 0 -27 11.5t-11 27.5v26q0 35 34 42l25 6
q20 4 30.5 15t10.5 27q0 22 -13.5 33t-34.5 11q-13 0 -24.5 -4.5t-19.5 -11.5q-6 -5 -13.5 -7.5t-14.5 -2.5q-14 0 -23.5 8.5t-9.5 24.5q0 19 13 30q18 15 40.5 23t50.5 8q51 0 85 -30t34 -77q0 -48 -31 -71.5t-74 -29.5l11 -8q0 -25 -11 -38t-27 -13z" />
    <glyph glyph-name="uni1ED7" unicode="&#x1ed7;" 
d="M339 -5q-81 0 -143.5 36t-98.5 99t-36 143q0 81 36 144t98.5 99t143.5 36q80 0 142 -36t98 -99t37 -144q0 -80 -36 -143t-98.5 -99t-142.5 -36zM339 71q56 0 100 26.5t69 72t25 103.5t-25 104t-69 72.5t-100 26.5t-100.5 -26.5t-70 -72.5t-25.5 -104t25.5 -103.5t70 -72
t100.5 -26.5zM227 628q-18 0 -30.5 10t-12.5 27q0 23 21 37l116 77q9 5 21 5q7 0 12 -1.5t10 -3.5l115 -77q21 -14 21 -37q0 -16 -12 -26.5t-31 -10.5q-8 0 -14 2t-12 7l-89 62l-89 -62q-12 -9 -26 -9zM401 811q-26 0 -46 11.5t-35 26.5q-14 12 -23 19t-20 7t-19 -9t-17 -25
q-8 -14 -21.5 -19.5t-27.5 0.5t-19.5 20t2.5 29q19 39 42.5 56.5t54.5 17.5t49 -14t33 -26q15 -13 23 -17.5t15 -4.5q14 0 24 21q9 14 22.5 20.5t27.5 1.5q17 -7 23 -21t-3 -29q-18 -34 -38.5 -49.5t-46.5 -15.5z" />
    <glyph glyph-name="uni020D" unicode="&#x20d;" 
d="M339 -5q-81 0 -143.5 36t-98.5 99t-36 143q0 81 36 144t98.5 99t143.5 36q80 0 142 -36t98 -99t37 -144q0 -80 -36 -143t-98.5 -99t-142.5 -36zM339 71q56 0 100 26.5t69 72t25 103.5t-25 104t-69 72.5t-100 26.5t-100.5 -26.5t-70 -72.5t-25.5 -104t25.5 -103.5t70 -72
t100.5 -26.5zM443 622q-20 0 -31 21l-59 126q-4 7 -4 16q0 16 12.5 29t31.5 13q13 0 24.5 -7.5t15.5 -19.5l40 -132q3 -6 3 -13q0 -16 -10.5 -24.5t-22.5 -8.5zM295 622q-21 0 -32 21l-59 126q-2 4 -2.5 8t-0.5 8q0 16 12 29t31 13q13 0 24 -7.5t14 -19.5l43 -132
q1 -3 1.5 -6.5t0.5 -6.5q0 -16 -10.5 -24.5t-21.5 -8.5z" />
    <glyph glyph-name="odieresis" unicode="&#xf6;" 
d="M339 -5q-81 0 -143.5 36t-98.5 99t-36 143q0 81 36 144t98.5 99t143.5 36q80 0 142 -36t98 -99t37 -144q0 -80 -36 -143t-98.5 -99t-142.5 -36zM339 71q56 0 100 26.5t69 72t25 103.5t-25 104t-69 72.5t-100 26.5t-100.5 -26.5t-70 -72.5t-25.5 -104t25.5 -103.5t70 -72
t100.5 -26.5zM232 642q-24 0 -40.5 16t-16.5 41q0 22 16.5 39t40.5 17q23 0 40 -17t17 -39q0 -25 -17 -41t-40 -16zM445 642q-24 0 -40 16t-16 41q0 22 16 39t40 17q23 0 40 -17t17 -39q0 -25 -17 -41t-40 -16z" />
    <glyph glyph-name="uni022B" unicode="&#x22b;" 
d="M339 -5q-81 0 -143.5 36t-98.5 99t-36 143q0 81 36 144t98.5 99t143.5 36q80 0 142 -36t98 -99t37 -144q0 -80 -36 -143t-98.5 -99t-142.5 -36zM339 71q56 0 100 26.5t69 72t25 103.5t-25 104t-69 72.5t-100 26.5t-100.5 -26.5t-70 -72.5t-25.5 -104t25.5 -103.5t70 -72
t100.5 -26.5zM232 642q-24 0 -40.5 16t-16.5 41q0 22 16.5 39t40.5 17q23 0 40 -17t17 -39q0 -25 -17 -41t-40 -16zM445 642q-24 0 -40 16t-16 41q0 22 16 39t40 17q23 0 40 -17t17 -39q0 -25 -17 -41t-40 -16zM210 849q-18 0 -30.5 10.5t-12.5 28.5t12.5 28.5t30.5 10.5
h256q18 0 30.5 -10.5t12.5 -28.5t-12.5 -28.5t-30.5 -10.5h-256z" />
    <glyph glyph-name="uni0231" unicode="&#x231;" 
d="M339 -5q-81 0 -143.5 36t-98.5 99t-36 143q0 81 36 144t98.5 99t143.5 36q80 0 142 -36t98 -99t37 -144q0 -80 -36 -143t-98.5 -99t-142.5 -36zM339 71q56 0 100 26.5t69 72t25 103.5t-25 104t-69 72.5t-100 26.5t-100.5 -26.5t-70 -72.5t-25.5 -104t25.5 -103.5t70 -72
t100.5 -26.5zM338 646q-24 0 -41 17.5t-17 41.5q0 25 17.5 41t40.5 16t40.5 -16t17.5 -41q0 -24 -17 -41.5t-41 -17.5zM210 826q-18 0 -30.5 10.5t-12.5 28.5t12.5 28.5t30.5 10.5h256q18 0 30.5 -10.5t12.5 -28.5t-12.5 -28.5t-30.5 -10.5h-256z" />
    <glyph glyph-name="uni1ECD" unicode="&#x1ecd;" 
d="M339 -5q-81 0 -143.5 36t-98.5 99t-36 143q0 81 36 144t98.5 99t143.5 36q80 0 142 -36t98 -99t37 -144q0 -80 -36 -143t-98.5 -99t-142.5 -36zM339 71q56 0 100 26.5t69 72t25 103.5t-25 104t-69 72.5t-100 26.5t-100.5 -26.5t-70 -72.5t-25.5 -104t25.5 -103.5t70 -72
t100.5 -26.5zM338 -214q-24 0 -41 17.5t-17 41.5q0 25 17.5 41t40.5 16t40.5 -16t17.5 -41q0 -24 -17 -41.5t-41 -17.5z" />
    <glyph glyph-name="ograve" unicode="&#xf2;" 
d="M339 -5q-81 0 -143.5 36t-98.5 99t-36 143q0 81 36 144t98.5 99t143.5 36q80 0 142 -36t98 -99t37 -144q0 -80 -36 -143t-98.5 -99t-142.5 -36zM339 71q56 0 100 26.5t69 72t25 103.5t-25 104t-69 72.5t-100 26.5t-100.5 -26.5t-70 -72.5t-25.5 -104t25.5 -103.5t70 -72
t100.5 -26.5zM337 635q-18 0 -29 12l-109 107q-10 13 -10 30q0 18 11.5 31t29.5 13t31 -13l107 -109q11 -9 11 -28q0 -18 -12 -30.5t-30 -12.5z" />
    <glyph glyph-name="uni1ECF" unicode="&#x1ecf;" 
d="M339 -5q-81 0 -143.5 36t-98.5 99t-36 143q0 81 36 144t98.5 99t143.5 36q80 0 142 -36t98 -99t37 -144q0 -80 -36 -143t-98.5 -99t-142.5 -36zM339 71q56 0 100 26.5t69 72t25 103.5t-25 104t-69 72.5t-100 26.5t-100.5 -26.5t-70 -72.5t-25.5 -104t25.5 -103.5t70 -72
t100.5 -26.5zM338 599q-16 0 -27.5 11t-11.5 28v26q0 34 34 42l26 5q20 5 30.5 15.5t10.5 27.5q0 21 -14 32.5t-34 11.5q-13 0 -24.5 -5t-20.5 -11q-5 -5 -12.5 -7.5t-14.5 -2.5q-14 0 -24 8.5t-10 24.5q0 18 13 29q20 16 42 24t50 8q51 0 84.5 -30.5t33.5 -77.5
q0 -48 -31 -71t-74 -29l12 -9q0 -25 -11.5 -37.5t-26.5 -12.5z" />
    <glyph glyph-name="ohorn" unicode="&#x1a1;" 
d="M339 -5q-81 0 -143.5 36t-98.5 99t-36 143q0 81 36 144t98.5 99t143.5 36q80 0 142 -36t98 -99t37 -144q0 -80 -36 -143t-98.5 -99t-142.5 -36zM339 71q56 0 100 26.5t69 72t25 103.5t-25 104t-69 72.5t-100 26.5t-100.5 -26.5t-70 -72.5t-25.5 -104t25.5 -103.5t70 -72
t100.5 -26.5zM461 448v77h45q18 0 31 16t13 43v20q0 18 10 30t28 12q19 0 28.5 -14t9.5 -34v-14q0 -39 -15.5 -69.5t-42.5 -48.5t-62 -18h-45z" />
    <glyph glyph-name="uni1EDB" unicode="&#x1edb;" 
d="M339 -5q-81 0 -143.5 36t-98.5 99t-36 143q0 81 36 144t98.5 99t143.5 36q80 0 142 -36t98 -99t37 -144q0 -80 -36 -143t-98.5 -99t-142.5 -36zM339 71q56 0 100 26.5t69 72t25 103.5t-25 104t-69 72.5t-100 26.5t-100.5 -26.5t-70 -72.5t-25.5 -104t25.5 -103.5t70 -72
t100.5 -26.5zM461 448v77h45q18 0 31 16t13 43v20q0 18 10 30t28 12q19 0 28.5 -14t9.5 -34v-14q0 -39 -15.5 -69.5t-42.5 -48.5t-62 -18h-45zM335 631q-18 0 -30 12.5t-12 29.5q0 18 9 29l109 108q12 13 30 13t30 -12.5t12 -31.5q0 -8 -2.5 -15.5t-9.5 -13.5l-107 -108
q-11 -11 -29 -11z" />
    <glyph glyph-name="uni1EE3" unicode="&#x1ee3;" 
d="M339 -5q-81 0 -143.5 36t-98.5 99t-36 143q0 81 36 144t98.5 99t143.5 36q80 0 142 -36t98 -99t37 -144q0 -80 -36 -143t-98.5 -99t-142.5 -36zM339 71q56 0 100 26.5t69 72t25 103.5t-25 104t-69 72.5t-100 26.5t-100.5 -26.5t-70 -72.5t-25.5 -104t25.5 -103.5t70 -72
t100.5 -26.5zM461 448v77h45q18 0 31 16t13 43v20q0 18 10 30t28 12q19 0 28.5 -14t9.5 -34v-14q0 -39 -15.5 -69.5t-42.5 -48.5t-62 -18h-45zM338 -214q-24 0 -41 17.5t-17 41.5q0 25 17.5 41t40.5 16t40.5 -16t17.5 -41q0 -24 -17 -41.5t-41 -17.5z" />
    <glyph glyph-name="uni1EDD" unicode="&#x1edd;" 
d="M339 -5q-81 0 -143.5 36t-98.5 99t-36 143q0 81 36 144t98.5 99t143.5 36q80 0 142 -36t98 -99t37 -144q0 -80 -36 -143t-98.5 -99t-142.5 -36zM339 71q56 0 100 26.5t69 72t25 103.5t-25 104t-69 72.5t-100 26.5t-100.5 -26.5t-70 -72.5t-25.5 -104t25.5 -103.5t70 -72
t100.5 -26.5zM461 448v77h45q18 0 31 16t13 43v20q0 18 10 30t28 12q19 0 28.5 -14t9.5 -34v-14q0 -39 -15.5 -69.5t-42.5 -48.5t-62 -18h-45zM337 635q-18 0 -29 12l-109 107q-10 13 -10 30q0 18 11.5 31t29.5 13t31 -13l107 -109q11 -9 11 -28q0 -18 -12 -30.5t-30 -12.5z
" />
    <glyph glyph-name="uni1EDF" unicode="&#x1edf;" 
d="M339 -5q-81 0 -143.5 36t-98.5 99t-36 143q0 81 36 144t98.5 99t143.5 36q80 0 142 -36t98 -99t37 -144q0 -80 -36 -143t-98.5 -99t-142.5 -36zM339 71q56 0 100 26.5t69 72t25 103.5t-25 104t-69 72.5t-100 26.5t-100.5 -26.5t-70 -72.5t-25.5 -104t25.5 -103.5t70 -72
t100.5 -26.5zM461 448v77h45q18 0 31 16t13 43v20q0 18 10 30t28 12q19 0 28.5 -14t9.5 -34v-14q0 -39 -15.5 -69.5t-42.5 -48.5t-62 -18h-45zM338 599q-16 0 -27.5 11t-11.5 28v26q0 34 34 42l26 5q20 5 30.5 15.5t10.5 27.5q0 21 -14 32.5t-34 11.5q-13 0 -24.5 -5
t-20.5 -11q-5 -5 -12.5 -7.5t-14.5 -2.5q-14 0 -24 8.5t-10 24.5q0 18 13 29q20 16 42 24t50 8q51 0 84.5 -30.5t33.5 -77.5q0 -48 -31 -71t-74 -29l12 -9q0 -25 -11.5 -37.5t-26.5 -12.5z" />
    <glyph glyph-name="uni1EE1" unicode="&#x1ee1;" 
d="M339 -5q-81 0 -143.5 36t-98.5 99t-36 143q0 81 36 144t98.5 99t143.5 36q80 0 142 -36t98 -99t37 -144q0 -80 -36 -143t-98.5 -99t-142.5 -36zM339 71q56 0 100 26.5t69 72t25 103.5t-25 104t-69 72.5t-100 26.5t-100.5 -26.5t-70 -72.5t-25.5 -104t25.5 -103.5t70 -72
t100.5 -26.5zM461 448v77h45q18 0 31 16t13 43v20q0 18 10 30t28 12q19 0 28.5 -14t9.5 -34v-14q0 -39 -15.5 -69.5t-42.5 -48.5t-62 -18h-45zM445 625q-32 0 -56.5 11.5t-41.5 21.5q-22 13 -35.5 18t-26.5 5q-17 0 -32 -7.5t-29 -25.5q-10 -14 -24.5 -19t-29.5 3
q-14 7 -16.5 23t7.5 30q24 32 57 49.5t70 17.5q32 0 55.5 -11t39.5 -21q21 -12 33.5 -17.5t27.5 -5.5t26 5t20 14q12 12 24 16.5t27 -4.5q14 -7 16.5 -23.5t-8.5 -30.5q-39 -49 -104 -49z" />
    <glyph glyph-name="ohungarumlaut" unicode="&#x151;" 
d="M339 -5q-81 0 -143.5 36t-98.5 99t-36 143q0 81 36 144t98.5 99t143.5 36q80 0 142 -36t98 -99t37 -144q0 -80 -36 -143t-98.5 -99t-142.5 -36zM339 71q56 0 100 26.5t69 72t25 103.5t-25 104t-69 72.5t-100 26.5t-100.5 -26.5t-70 -72.5t-25.5 -104t25.5 -103.5t70 -72
t100.5 -26.5zM411 622q-11 0 -21.5 8.5t-10.5 24.5q0 3 0.5 6.5t1.5 6.5l43 132q3 12 14 19.5t24 7.5q19 0 31 -13t12 -30q0 -3 -0.5 -7t-2.5 -8l-59 -126q-11 -21 -32 -21zM263 622q-12 0 -22.5 8.5t-10.5 24.5q0 3 1 6.5t2 6.5l40 132q4 12 15.5 19.5t24.5 7.5
q19 0 31.5 -13t12.5 -30q0 -7 -4 -15l-59 -126q-10 -21 -31 -21z" />
    <glyph glyph-name="uni020F" unicode="&#x20f;" 
d="M339 -5q-81 0 -143.5 36t-98.5 99t-36 143q0 81 36 144t98.5 99t143.5 36q80 0 142 -36t98 -99t37 -144q0 -80 -36 -143t-98.5 -99t-142.5 -36zM339 71q56 0 100 26.5t69 72t25 103.5t-25 104t-69 72.5t-100 26.5t-100.5 -26.5t-70 -72.5t-25.5 -104t25.5 -103.5t70 -72
t100.5 -26.5zM221 622q-18 0 -29.5 12.5t-11.5 31.5q0 33 21.5 60t57.5 42.5t80 15.5q42 0 77.5 -15t57.5 -42t23 -62q0 -18 -11.5 -30.5t-28.5 -12.5t-29.5 10.5t-12.5 27.5q0 23 -20.5 38.5t-55.5 15.5q-32 0 -55 -16t-23 -38q0 -17 -12 -27.5t-28 -10.5z" />
    <glyph glyph-name="omacron" unicode="&#x14d;" 
d="M339 -5q-81 0 -143.5 36t-98.5 99t-36 143q0 81 36 144t98.5 99t143.5 36q80 0 142 -36t98 -99t37 -144q0 -80 -36 -143t-98.5 -99t-142.5 -36zM339 71q56 0 100 26.5t69 72t25 103.5t-25 104t-69 72.5t-100 26.5t-100.5 -26.5t-70 -72.5t-25.5 -104t25.5 -103.5t70 -72
t100.5 -26.5zM210 653q-18 0 -30.5 10.5t-12.5 28.5t12.5 28.5t30.5 10.5h256q18 0 30.5 -10.5t12.5 -28.5t-12.5 -28.5t-30.5 -10.5h-256z" />
    <glyph glyph-name="uni01EB" unicode="&#x1eb;" 
d="M339 -5q-81 0 -143.5 36t-98.5 99t-36 143q0 81 36 144t98.5 99t143.5 36q80 0 142 -36t98 -99t37 -144q0 -80 -36 -143t-98.5 -99t-142.5 -36zM339 71q56 0 100 26.5t69 72t25 103.5t-25 104t-69 72.5t-100 26.5t-100.5 -26.5t-70 -72.5t-25.5 -104t25.5 -103.5t70 -72
t100.5 -26.5zM431 -231q-32 0 -59 16t-43.5 43.5t-16.5 60.5q0 56 50 98q13 9 20.5 18t11.5 19q12 22 37 22q18 0 30 -11.5t13 -30.5q0 -22 -15.5 -43t-47.5 -44q-7 -5 -10.5 -13t-3.5 -15q0 -14 10 -24t24 -10q5 0 10 1t8 4l34 25q12 8 25 8q19 0 31 -12t12 -31t-15 -34
l-39 -25q-31 -22 -66 -22z" />
    <glyph glyph-name="oslash" unicode="&#xf8;" horiz-adv-x="701" 
d="M93 -20q-21 0 -29.5 18.5t7.5 33.5l73 74l35 25l323 323l24 25l62 61q9 10 23 10q15 0 22.5 -9.5t7.5 -22t-8 -20.5l-66 -66l-23 -21l-325 -322l-26 -21l-78 -79q-10 -9 -22 -9zM357 -8q-81 0 -143.5 36t-98.5 99t-36 143q0 81 36 144t98.5 99t142.5 36q81 0 143 -36
t98 -99t37 -144q0 -80 -36 -143t-98.5 -99t-142.5 -36zM357 69q56 0 100 26t69 71.5t25 103.5q0 59 -25 104.5t-69 72t-100 26.5q-57 0 -101 -26.5t-69.5 -72t-25.5 -104.5q0 -58 25.5 -103.5t69.5 -71.5t101 -26z" />
    <glyph glyph-name="oslashacute" unicode="&#x1ff;" horiz-adv-x="701" 
d="M93 -20q-21 0 -29.5 18.5t7.5 33.5l73 74l35 25l323 323l24 25l62 61q9 10 23 10q15 0 22.5 -9.5t7.5 -22t-8 -20.5l-66 -66l-23 -21l-325 -322l-26 -21l-78 -79q-10 -9 -22 -9zM357 -8q-81 0 -143.5 36t-98.5 99t-36 143q0 81 36 144t98.5 99t142.5 36q81 0 143 -36
t98 -99t37 -144q0 -80 -36 -143t-98.5 -99t-142.5 -36zM357 69q56 0 100 26t69 71.5t25 103.5q0 59 -25 104.5t-69 72t-100 26.5q-57 0 -101 -26.5t-69.5 -72t-25.5 -104.5q0 -58 25.5 -103.5t69.5 -71.5t101 -26zM353 628q-18 0 -30 12.5t-12 29.5q0 18 9 29l109 108
q12 13 30 13t30 -12.5t12 -31.5q0 -8 -2.5 -15.5t-9.5 -13.5l-107 -108q-11 -11 -29 -11z" />
    <glyph glyph-name="otilde" unicode="&#xf5;" 
d="M339 -5q-81 0 -143.5 36t-98.5 99t-36 143q0 81 36 144t98.5 99t143.5 36q80 0 142 -36t98 -99t37 -144q0 -80 -36 -143t-98.5 -99t-142.5 -36zM339 71q56 0 100 26.5t69 72t25 103.5t-25 104t-69 72.5t-100 26.5t-100.5 -26.5t-70 -72.5t-25.5 -104t25.5 -103.5t70 -72
t100.5 -26.5zM445 625q-32 0 -56.5 11.5t-41.5 21.5q-22 13 -35.5 18t-26.5 5q-17 0 -32 -7.5t-29 -25.5q-10 -14 -24.5 -19t-29.5 3q-14 7 -16.5 23t7.5 30q24 32 57 49.5t70 17.5q32 0 55.5 -11t39.5 -21q21 -12 33.5 -17.5t27.5 -5.5t26 5t20 14q12 12 24 16.5t27 -4.5
q14 -7 16.5 -23.5t-8.5 -30.5q-39 -49 -104 -49z" />
    <glyph glyph-name="uni022D" unicode="&#x22d;" 
d="M339 -5q-81 0 -143.5 36t-98.5 99t-36 143q0 81 36 144t98.5 99t143.5 36q80 0 142 -36t98 -99t37 -144q0 -80 -36 -143t-98.5 -99t-142.5 -36zM339 71q56 0 100 26.5t69 72t25 103.5t-25 104t-69 72.5t-100 26.5t-100.5 -26.5t-70 -72.5t-25.5 -104t25.5 -103.5t70 -72
t100.5 -26.5zM445 625q-32 0 -56.5 11.5t-41.5 21.5q-22 13 -35.5 18t-26.5 5q-17 0 -32 -7.5t-29 -25.5q-10 -14 -24.5 -19t-29.5 3q-14 7 -16.5 23t7.5 30q24 32 57 49.5t70 17.5q32 0 55.5 -11t39.5 -21q21 -12 33.5 -17.5t27.5 -5.5t26 5t20 14q12 12 24 16.5t27 -4.5
q14 -7 16.5 -23.5t-8.5 -30.5q-39 -49 -104 -49zM220 819q-18 0 -30.5 10.5t-12.5 28.5t12.5 28.5t30.5 10.5h256q18 0 30.5 -10.5t12.5 -28.5t-12.5 -28.5t-30.5 -10.5h-256z" />
    <glyph glyph-name="oe" unicode="&#x153;" horiz-adv-x="1088" 
d="M339 -5q-81 0 -144 35.5t-98.5 98.5t-35.5 144q0 82 35.5 145t98.5 98.5t144 35.5q79 0 139 -35.5t94 -98.5t34 -145q0 -81 -34 -144t-94 -98.5t-139 -35.5zM339 71q57 0 100.5 26t68.5 71.5t25 104.5t-25 105t-68.5 72t-100.5 26t-101 -26t-69.5 -72t-25.5 -105
t25.5 -104.5t69.5 -71.5t101 -26zM812 -5q-80 0 -141 35.5t-95.5 98.5t-34.5 144q0 82 33 144.5t90.5 98.5t132.5 36q77 0 133.5 -34.5t87 -95.5t30.5 -139q0 -17 -11 -27.5t-28 -10.5h-418v69h422l-41 -30q-1 55 -22 99t-59.5 69t-93.5 25q-57 0 -99 -26t-64.5 -72.5
t-22.5 -105.5t26 -105t71 -72t104 -26q35 0 70 12t57 30q12 9 27 9.5t26 -8.5q14 -13 15 -28t-13 -26q-33 -28 -84 -46t-98 -18z" />
    <glyph glyph-name="p" unicode="p" horiz-adv-x="706" 
d="M133 -234q-20 0 -31.5 11.5t-11.5 31.5v467q1 78 37.5 140.5t98.5 99t140 36.5q80 0 142.5 -36.5t99 -99.5t36.5 -143q0 -79 -34.5 -142t-94.5 -99.5t-136 -36.5q-65 0 -118 27.5t-86 72.5v-286q0 -20 -12 -31.5t-30 -11.5zM366 71q56 0 100.5 26.5t70 72.5t25.5 103
q0 58 -25.5 103.5t-70 72.5t-100.5 27q-54 0 -98.5 -27t-69.5 -72.5t-25 -103.5q0 -57 25 -103t69 -72.5t99 -26.5z" />
    <glyph glyph-name="thorn" unicode="&#xfe;" horiz-adv-x="705" 
d="M133 -234q-20 0 -31.5 11.5t-11.5 31.5v929q0 20 11.5 31.5t31.5 11.5q19 0 30.5 -11.5t11.5 -31.5l-7 -436l-31 -11q0 66 21 115t56 81.5t78 48.5t87 16q76 0 136 -35.5t94.5 -98.5t34.5 -145q0 -81 -33.5 -144t-93.5 -98.5t-138 -35.5q-68 0 -121 31.5t-83 85.5v-303
q0 -20 -11.5 -31.5t-30.5 -11.5zM366 71q58 0 102 26t69 71.5t25 104.5t-25 105t-69 72t-102 26q-56 0 -100 -26t-68.5 -72t-24.5 -105t24.5 -104.5t68.5 -71.5t100 -26z" />
    <glyph glyph-name="q" unicode="q" horiz-adv-x="706" 
d="M573 -234q-18 0 -30.5 11.5t-12.5 31.5v286q-33 -45 -85.5 -72.5t-117.5 -27.5q-76 0 -136 36.5t-95 99.5t-35 142q0 80 36.5 143t99.5 99.5t142 36.5q78 0 140 -36.5t98.5 -99t38.5 -140.5v-467q0 -20 -12 -31.5t-31 -11.5zM339 71q56 0 99.5 26.5t69 72.5t25.5 103
q0 58 -25.5 103.5t-69 72.5t-99.5 27q-55 0 -99.5 -27t-70.5 -72.5t-26 -103.5q0 -57 26 -103t70.5 -72.5t99.5 -26.5z" />
    <glyph glyph-name="r" unicode="r" horiz-adv-x="467" 
d="M127 339q2 61 31.5 109.5t78 76.5t106.5 28q51 0 77.5 -15t19.5 -41q-3 -14 -12.5 -20t-22 -6t-28.5 2q-59 7 -104.5 -7.5t-72.5 -47.5t-27 -79h-46zM132 0q-20 0 -31 11t-11 31v463q0 20 11 31t31 11t30.5 -11t10.5 -31v-463q0 -20 -10.5 -31t-30.5 -11z" />
    <glyph glyph-name="racute" unicode="&#x155;" horiz-adv-x="467" 
d="M127 339q2 61 31.5 109.5t78 76.5t106.5 28q51 0 77.5 -15t19.5 -41q-3 -14 -12.5 -20t-22 -6t-28.5 2q-59 7 -104.5 -7.5t-72.5 -47.5t-27 -79h-46zM132 0q-20 0 -31 11t-11 31v463q0 20 11 31t31 11t30.5 -11t10.5 -31v-463q0 -20 -10.5 -31t-30.5 -11zM261 631
q-18 0 -30 12.5t-12 29.5q0 18 9 29l109 108q12 13 30 13t30 -12.5t12 -31.5q0 -8 -2.5 -15.5t-9.5 -13.5l-107 -108q-11 -11 -29 -11z" />
    <glyph glyph-name="rcaron" unicode="&#x159;" horiz-adv-x="467" 
d="M127 339q2 61 31.5 109.5t78 76.5t106.5 28q51 0 77.5 -15t19.5 -41q-3 -14 -12.5 -20t-22 -6t-28.5 2q-59 7 -104.5 -7.5t-72.5 -47.5t-27 -79h-46zM132 0q-20 0 -31 11t-11 31v463q0 20 11 31t31 11t30.5 -11t10.5 -31v-463q0 -20 -10.5 -31t-30.5 -11zM265 635
q-14 0 -21 6l-116 76q-21 15 -21 36q0 20 21 28.5t48 -10.5l89 -60l89 59q31 21 50 11.5t19 -28.5q0 -21 -21 -36l-115 -76q-8 -6 -22 -6z" />
    <glyph glyph-name="uni0157" unicode="&#x157;" horiz-adv-x="467" 
d="M127 339q2 61 31.5 109.5t78 76.5t106.5 28q51 0 77.5 -15t19.5 -41q-3 -14 -12.5 -20t-22 -6t-28.5 2q-59 7 -104.5 -7.5t-72.5 -47.5t-27 -79h-46zM132 0q-20 0 -31 11t-11 31v463q0 20 11 31t31 11t30.5 -11t10.5 -31v-463q0 -20 -10.5 -31t-30.5 -11zM137 -241
q-26 0 -54.5 8.5t-48 25t-19.5 40.5q0 13 8.5 21t22.5 8t23.5 -6t18 -15t21 -15.5t34.5 -6.5q29 0 42.5 10t13.5 31q0 18 -17 29.5t-53 11.5q-21 0 -33.5 7t-12.5 22q0 31 50 31q57 0 92.5 -28t35.5 -72q0 -47 -35.5 -74.5t-88.5 -27.5z" />
    <glyph glyph-name="uni0211" unicode="&#x211;" horiz-adv-x="467" 
d="M127 339q2 61 31.5 109.5t78 76.5t106.5 28q51 0 77.5 -15t19.5 -41q-3 -14 -12.5 -20t-22 -6t-28.5 2q-59 7 -104.5 -7.5t-72.5 -47.5t-27 -79h-46zM132 0q-20 0 -31 11t-11 31v463q0 20 11 31t31 11t30.5 -11t10.5 -31v-463q0 -20 -10.5 -31t-30.5 -11zM370 622
q-20 0 -31 21l-59 126q-4 7 -4 16q0 16 12.5 29t31.5 13q13 0 24.5 -7.5t15.5 -19.5l40 -132q3 -6 3 -13q0 -16 -10.5 -24.5t-22.5 -8.5zM222 622q-21 0 -32 21l-59 126q-2 4 -2.5 8t-0.5 8q0 16 12 29t31 13q13 0 24 -7.5t14 -19.5l43 -132q1 -3 1.5 -6.5t0.5 -6.5
q0 -16 -10.5 -24.5t-21.5 -8.5z" />
    <glyph glyph-name="uni0213" unicode="&#x213;" horiz-adv-x="467" 
d="M127 339q2 61 31.5 109.5t78 76.5t106.5 28q51 0 77.5 -15t19.5 -41q-3 -14 -12.5 -20t-22 -6t-28.5 2q-59 7 -104.5 -7.5t-72.5 -47.5t-27 -79h-46zM132 0q-20 0 -31 11t-11 31v463q0 20 11 31t31 11t30.5 -11t10.5 -31v-463q0 -20 -10.5 -31t-30.5 -11zM147 622
q-18 0 -29.5 12.5t-11.5 31.5q0 33 21.5 60t57.5 42.5t80 15.5q42 0 77.5 -15t57.5 -42t23 -62q0 -18 -11.5 -30.5t-28.5 -12.5t-29.5 10.5t-12.5 27.5q0 23 -20.5 38.5t-55.5 15.5q-32 0 -55 -16t-23 -38q0 -17 -12 -27.5t-28 -10.5z" />
    <glyph glyph-name="s" unicode="s" horiz-adv-x="540" 
d="M283 -5q-62 0 -120.5 20.5t-93.5 58.5q-12 13 -10 30t16 28q16 12 32.5 10t27.5 -14q22 -26 61 -41.5t86 -15.5q69 0 101.5 23.5t33.5 58.5q0 34 -32.5 57t-110.5 36q-101 17 -147.5 57t-46.5 96q0 51 28 85t73.5 51t98.5 17q67 0 116 -22.5t79 -60.5q11 -14 9.5 -29.5
t-16.5 -24.5q-13 -9 -30.5 -6t-29.5 16q-25 27 -57 39.5t-73 12.5q-52 0 -84 -20.5t-32 -52.5q0 -22 11.5 -38t41 -28.5t84.5 -22.5q75 -13 118.5 -36.5t62 -54.5t18.5 -69q0 -47 -26.5 -82.5t-74.5 -56.5t-114 -21z" />
    <glyph glyph-name="sacute" unicode="&#x15b;" horiz-adv-x="540" 
d="M283 -5q-62 0 -120.5 20.5t-93.5 58.5q-12 13 -10 30t16 28q16 12 32.5 10t27.5 -14q22 -26 61 -41.5t86 -15.5q69 0 101.5 23.5t33.5 58.5q0 34 -32.5 57t-110.5 36q-101 17 -147.5 57t-46.5 96q0 51 28 85t73.5 51t98.5 17q67 0 116 -22.5t79 -60.5q11 -14 9.5 -29.5
t-16.5 -24.5q-13 -9 -30.5 -6t-29.5 16q-25 27 -57 39.5t-73 12.5q-52 0 -84 -20.5t-32 -52.5q0 -22 11.5 -38t41 -28.5t84.5 -22.5q75 -13 118.5 -36.5t62 -54.5t18.5 -69q0 -47 -26.5 -82.5t-74.5 -56.5t-114 -21zM274 631q-18 0 -30 12.5t-12 29.5q0 18 9 29l109 108
q12 13 30 13t30 -12.5t12 -31.5q0 -8 -2.5 -15.5t-9.5 -13.5l-107 -108q-11 -11 -29 -11z" />
    <glyph glyph-name="scaron" unicode="&#x161;" horiz-adv-x="540" 
d="M283 -5q-62 0 -120.5 20.5t-93.5 58.5q-12 13 -10 30t16 28q16 12 32.5 10t27.5 -14q22 -26 61 -41.5t86 -15.5q69 0 101.5 23.5t33.5 58.5q0 34 -32.5 57t-110.5 36q-101 17 -147.5 57t-46.5 96q0 51 28 85t73.5 51t98.5 17q67 0 116 -22.5t79 -60.5q11 -14 9.5 -29.5
t-16.5 -24.5q-13 -9 -30.5 -6t-29.5 16q-25 27 -57 39.5t-73 12.5q-52 0 -84 -20.5t-32 -52.5q0 -22 11.5 -38t41 -28.5t84.5 -22.5q75 -13 118.5 -36.5t62 -54.5t18.5 -69q0 -47 -26.5 -82.5t-74.5 -56.5t-114 -21zM278 635q-14 0 -21 6l-116 76q-21 15 -21 36
q0 20 21 28.5t48 -10.5l89 -60l89 59q31 21 50 11.5t19 -28.5q0 -21 -21 -36l-115 -76q-8 -6 -22 -6z" />
    <glyph glyph-name="scedilla" unicode="&#x15f;" horiz-adv-x="540" 
d="M283 -5q-62 0 -120.5 20.5t-93.5 58.5q-12 13 -10 30t16 28q16 12 32.5 10t27.5 -14q22 -26 61 -41.5t86 -15.5q69 0 101.5 23.5t33.5 58.5q0 34 -32.5 57t-110.5 36q-101 17 -147.5 57t-46.5 96q0 51 28 85t73.5 51t98.5 17q67 0 116 -22.5t79 -60.5q11 -14 9.5 -29.5
t-16.5 -24.5q-13 -9 -30.5 -6t-29.5 16q-25 27 -57 39.5t-73 12.5q-52 0 -84 -20.5t-32 -52.5q0 -22 11.5 -38t41 -28.5t84.5 -22.5q75 -13 118.5 -36.5t62 -54.5t18.5 -69q0 -47 -26.5 -82.5t-74.5 -56.5t-114 -21zM275 -233q-56 0 -91.5 23.5t-35.5 53.5q0 16 12 28t28 12
q12 0 20.5 -5.5t14.5 -16.5q8 -13 21 -20t32 -7q22 0 36.5 9.5t14.5 27.5t-11 29t-39 17q-26 5 -37 18t-1 41l15 37q5 16 16.5 25t31.5 9t30.5 -14.5t1.5 -33.5l-15 -36q52 -12 74 -35.5t22 -57.5q0 -28 -18 -51.5t-49.5 -38t-72.5 -14.5z" />
    <glyph glyph-name="scircumflex" unicode="&#x15d;" horiz-adv-x="540" 
d="M283 -5q-62 0 -120.5 20.5t-93.5 58.5q-12 13 -10 30t16 28q16 12 32.5 10t27.5 -14q22 -26 61 -41.5t86 -15.5q69 0 101.5 23.5t33.5 58.5q0 34 -32.5 57t-110.5 36q-101 17 -147.5 57t-46.5 96q0 51 28 85t73.5 51t98.5 17q67 0 116 -22.5t79 -60.5q11 -14 9.5 -29.5
t-16.5 -24.5q-13 -9 -30.5 -6t-29.5 16q-25 27 -57 39.5t-73 12.5q-52 0 -84 -20.5t-32 -52.5q0 -22 11.5 -38t41 -28.5t84.5 -22.5q75 -13 118.5 -36.5t62 -54.5t18.5 -69q0 -47 -26.5 -82.5t-74.5 -56.5t-114 -21zM164 628q-19 0 -31.5 10t-12.5 27q0 23 21 37l116 77
q9 5 21 5q7 0 12 -1.5t10 -3.5l115 -77q21 -14 21 -37q0 -16 -12 -26.5t-31 -10.5q-7 0 -13.5 2t-12.5 7l-89 62l-89 -62q-12 -9 -25 -9z" />
    <glyph glyph-name="uni0219" unicode="&#x219;" horiz-adv-x="540" 
d="M283 -5q-62 0 -120.5 20.5t-93.5 58.5q-12 13 -10 30t16 28q16 12 32.5 10t27.5 -14q22 -26 61 -41.5t86 -15.5q69 0 101.5 23.5t33.5 58.5q0 34 -32.5 57t-110.5 36q-101 17 -147.5 57t-46.5 96q0 51 28 85t73.5 51t98.5 17q67 0 116 -22.5t79 -60.5q11 -14 9.5 -29.5
t-16.5 -24.5q-13 -9 -30.5 -6t-29.5 16q-25 27 -57 39.5t-73 12.5q-52 0 -84 -20.5t-32 -52.5q0 -22 11.5 -38t41 -28.5t84.5 -22.5q75 -13 118.5 -36.5t62 -54.5t18.5 -69q0 -47 -26.5 -82.5t-74.5 -56.5t-114 -21zM282 -241q-26 0 -54.5 8.5t-48 25t-19.5 40.5
q0 13 8.5 21t22.5 8t23.5 -6t18 -15t21 -15.5t34.5 -6.5q29 0 42.5 10t13.5 31q0 18 -17 29.5t-53 11.5q-21 0 -33.5 7t-12.5 22q0 31 50 31q57 0 92.5 -28t35.5 -72q0 -47 -35.5 -74.5t-88.5 -27.5z" />
    <glyph glyph-name="germandbls" unicode="&#xdf;" horiz-adv-x="547" 
d="M90 0q-18 0 -30 12t-12 30v536q0 56 27.5 101t75 71t109.5 26q56 0 99.5 -23t68.5 -63t25 -92q0 -35 -13 -60t-30.5 -44t-30.5 -37.5t-13 -41.5t14.5 -42t37 -38.5t44.5 -42.5t37 -52.5t15 -67.5q0 -50 -24.5 -89.5t-69 -62.5t-101.5 -23q-35 0 -69.5 13t-57.5 33t-23 44
q0 17 9.5 27t26.5 10q16 0 25 -7.5t19 -17t27 -17t49 -7.5q50 0 78 25.5t28 71.5q0 30 -14.5 53.5t-36 44t-42.5 41.5t-35.5 45t-14.5 56q0 34 13 55t30.5 38t30.5 37.5t13 53.5q0 49 -31.5 75.5t-85.5 26.5q-53 0 -88.5 -34.5t-35.5 -89.5v-532q0 -18 -12.5 -30t-31.5 -12z
" />
    <glyph glyph-name="longs" unicode="&#x17f;" horiz-adv-x="318" 
d="M101 0q-17 0 -29 11.5t-12 31.5v502q0 71 25.5 124t73.5 82.5t117 29.5q18 0 30 -11t12 -27q0 -17 -12 -28t-30 -11q-44 0 -73 -19.5t-43.5 -54t-14.5 -79.5v-508q0 -20 -11.5 -31.5t-32.5 -11.5z" />
    <glyph glyph-name="t" unicode="t" horiz-adv-x="402" 
d="M299 0q-52 0 -93 25t-64.5 69t-23.5 99v486q0 18 11.5 30t30.5 12q18 0 30 -12t12 -30v-486q0 -47 27.5 -78t69.5 -31h30q16 0 27 -12t11 -30q0 -19 -13.5 -30.5t-34.5 -11.5h-20zM59 454q-17 0 -28 10.5t-11 25.5q0 16 11 26.5t28 10.5h247q17 0 28 -10.5t11 -26.5
q0 -15 -11 -25.5t-28 -10.5h-247z" />
    <glyph glyph-name="tbar" unicode="&#x167;" horiz-adv-x="402" 
d="M59 280q-17 0 -28 10.5t-11 25.5q0 16 11 26.5t28 10.5h239q18 0 28.5 -10.5t10.5 -26.5q0 -15 -10.5 -25.5t-28.5 -10.5h-239zM299 0q-52 0 -93 25t-64.5 69t-23.5 99v486q0 18 11.5 30t30.5 12q18 0 30 -12t12 -30v-486q0 -47 27.5 -78t69.5 -31h30q16 0 27 -12t11 -30
q0 -19 -13.5 -30.5t-34.5 -11.5h-20zM59 454q-17 0 -28 10.5t-11 25.5q0 16 11 26.5t28 10.5h247q17 0 28 -10.5t11 -26.5q0 -15 -11 -25.5t-28 -10.5h-247z" />
    <glyph glyph-name="tcaron" unicode="&#x165;" horiz-adv-x="402" 
d="M299 0q-52 0 -93 25t-64.5 69t-23.5 99v486q0 18 11.5 30t30.5 12q18 0 30 -12t12 -30v-486q0 -47 27.5 -78t69.5 -31h30q16 0 27 -12t11 -30q0 -19 -13.5 -30.5t-34.5 -11.5h-20zM59 454q-17 0 -28 10.5t-11 25.5q0 16 11 26.5t28 10.5h247q17 0 28 -10.5t11 -26.5
q0 -15 -11 -25.5t-28 -10.5h-247zM266 611q-11 2 -17 8t-5 17q2 14 13 30.5t23.5 36t15.5 46.5q2 19 -2.5 31.5t-9.5 25.5t-5 33q0 21 14 30.5t33 9.5q30 0 45 -29.5t10 -67.5q-4 -30 -17.5 -60.5t-31.5 -56.5t-36 -41t-30 -13z" />
    <glyph glyph-name="uni0163" unicode="&#x163;" horiz-adv-x="402" 
d="M299 0q-52 0 -93 25t-64.5 69t-23.5 99v486q0 18 11.5 30t30.5 12q18 0 30 -12t12 -30v-486q0 -47 27.5 -78t69.5 -31h30q16 0 27 -12t11 -30q0 -19 -13.5 -30.5t-34.5 -11.5h-20zM59 454q-17 0 -28 10.5t-11 25.5q0 16 11 26.5t28 10.5h247q17 0 28 -10.5t11 -26.5
q0 -15 -11 -25.5t-28 -10.5h-247zM219 -233q-56 0 -91.5 23.5t-35.5 53.5q0 16 12 28t28 12q12 0 20.5 -5.5t14.5 -16.5q8 -13 21 -20t32 -7q22 0 36.5 9.5t14.5 27.5t-11 29t-39 17q-26 5 -37 18t-1 41l15 37q5 16 16.5 25t31.5 9t30.5 -14.5t1.5 -33.5l-15 -36
q52 -12 74 -35.5t22 -57.5q0 -28 -18 -51.5t-49.5 -38t-72.5 -14.5z" />
    <glyph glyph-name="uni021B" unicode="&#x21b;" horiz-adv-x="402" 
d="M299 0q-52 0 -93 25t-64.5 69t-23.5 99v486q0 18 11.5 30t30.5 12q18 0 30 -12t12 -30v-486q0 -47 27.5 -78t69.5 -31h30q16 0 27 -12t11 -30q0 -19 -13.5 -30.5t-34.5 -11.5h-20zM59 454q-17 0 -28 10.5t-11 25.5q0 16 11 26.5t28 10.5h247q17 0 28 -10.5t11 -26.5
q0 -15 -11 -25.5t-28 -10.5h-247zM226 -241q-26 0 -54.5 8.5t-48 25t-19.5 40.5q0 13 8.5 21t22.5 8t23.5 -6t18 -15t21 -15.5t34.5 -6.5q29 0 42.5 10t13.5 31q0 18 -17 29.5t-53 11.5q-21 0 -33.5 7t-12.5 22q0 31 50 31q57 0 92.5 -28t35.5 -72q0 -47 -35.5 -74.5
t-88.5 -27.5z" />
    <glyph glyph-name="u" unicode="u" horiz-adv-x="679" 
d="M326 -6q-71 0 -126.5 29.5t-87.5 86.5t-32 140v255q0 18 12 30t30 12t30 -12t12 -30v-255q0 -61 23 -99.5t62 -58t88 -19.5q47 0 85 18.5t60 50t22 72.5h57q-2 -63 -33 -112.5t-84 -78.5t-118 -29zM546 0q-19 0 -30.5 11.5t-11.5 31.5v462q0 19 11.5 30.5t30.5 11.5
t31 -11.5t12 -30.5v-462q0 -20 -12 -31.5t-31 -11.5z" />
    <glyph glyph-name="uacute" unicode="&#xfa;" horiz-adv-x="679" 
d="M326 -6q-71 0 -126.5 29.5t-87.5 86.5t-32 140v255q0 18 12 30t30 12t30 -12t12 -30v-255q0 -61 23 -99.5t62 -58t88 -19.5q47 0 85 18.5t60 50t22 72.5h57q-2 -63 -33 -112.5t-84 -78.5t-118 -29zM546 0q-19 0 -30.5 11.5t-11.5 31.5v462q0 19 11.5 30.5t30.5 11.5
t31 -11.5t12 -30.5v-462q0 -20 -12 -31.5t-31 -11.5zM336 631q-18 0 -30 12.5t-12 29.5q0 18 9 29l109 108q12 13 30 13t30 -12.5t12 -31.5q0 -8 -2.5 -15.5t-9.5 -13.5l-107 -108q-11 -11 -29 -11z" />
    <glyph glyph-name="ubreve" unicode="&#x16d;" horiz-adv-x="679" 
d="M326 -6q-71 0 -126.5 29.5t-87.5 86.5t-32 140v255q0 18 12 30t30 12t30 -12t12 -30v-255q0 -61 23 -99.5t62 -58t88 -19.5q47 0 85 18.5t60 50t22 72.5h57q-2 -63 -33 -112.5t-84 -78.5t-118 -29zM546 0q-19 0 -30.5 11.5t-11.5 31.5v462q0 19 11.5 30.5t30.5 11.5
t31 -11.5t12 -30.5v-462q0 -20 -12 -31.5t-31 -11.5zM339 623q-43 0 -79 16t-57.5 42.5t-21.5 60.5q0 18 11.5 30.5t29.5 12.5q16 0 28.5 -10t12.5 -27q0 -23 22.5 -39t53.5 -16q36 0 56.5 16t20.5 39q0 17 12.5 27t29.5 10q18 0 29 -12.5t11 -30.5q-1 -35 -23 -62
t-57.5 -42t-78.5 -15z" />
    <glyph glyph-name="uni01D4" unicode="&#x1d4;" horiz-adv-x="679" 
d="M326 -6q-71 0 -126.5 29.5t-87.5 86.5t-32 140v255q0 18 12 30t30 12t30 -12t12 -30v-255q0 -61 23 -99.5t62 -58t88 -19.5q47 0 85 18.5t60 50t22 72.5h57q-2 -63 -33 -112.5t-84 -78.5t-118 -29zM546 0q-19 0 -30.5 11.5t-11.5 31.5v462q0 19 11.5 30.5t30.5 11.5
t31 -11.5t12 -30.5v-462q0 -20 -12 -31.5t-31 -11.5zM340 635q-14 0 -21 6l-116 76q-21 15 -21 36q0 20 21 28.5t48 -10.5l89 -60l89 59q31 21 50 11.5t19 -28.5q0 -21 -21 -36l-115 -76q-8 -6 -22 -6z" />
    <glyph glyph-name="ucircumflex" unicode="&#xfb;" horiz-adv-x="679" 
d="M326 -6q-71 0 -126.5 29.5t-87.5 86.5t-32 140v255q0 18 12 30t30 12t30 -12t12 -30v-255q0 -61 23 -99.5t62 -58t88 -19.5q47 0 85 18.5t60 50t22 72.5h57q-2 -63 -33 -112.5t-84 -78.5t-118 -29zM546 0q-19 0 -30.5 11.5t-11.5 31.5v462q0 19 11.5 30.5t30.5 11.5
t31 -11.5t12 -30.5v-462q0 -20 -12 -31.5t-31 -11.5zM226 628q-19 0 -31.5 10t-12.5 27q0 23 21 37l116 77q9 5 21 5q7 0 12 -1.5t10 -3.5l115 -77q21 -14 21 -37q0 -16 -12 -26.5t-31 -10.5q-7 0 -13.5 2t-12.5 7l-89 62l-89 -62q-12 -9 -25 -9z" />
    </font>
</defs>
</svg>
