<?xml version="1.0" standalone="no"?>
<!DOCTYPE svg PUBLIC "-//W3C//DTD SVG 1.1//EN" "http://www.w3.org/Graphics/SVG/1.1/DTD/svg11.dtd" >
<svg xmlns="http://www.w3.org/2000/svg" xmlns:xlink="http://www.w3.org/1999/xlink" version="1.1">
<metadata>
Created by FontForge 20170924 at Mon Jan 23 05:52:34 2012
 By Glenn,,,
Copyright (c) 2011 by vernon adams.
</metadata>
<defs>
<font id="OxygenMono-Regular" horiz-adv-x="1229" >
  <font-face 
    font-family="Oxygen Mono"
    font-weight="400"
    font-stretch="normal"
    units-per-em="2048"
    panose-1="2 0 5 3 0 0 0 9 0 4"
    ascent="1638"
    descent="-410"
    x-height="1097"
    cap-height="1491"
    bbox="-215.5 -678 2468 2076"
    underline-thickness="119"
    underline-position="-119"
    stemh="146"
    stemv="182"
    unicode-range="U+0001-FB02"
  />
<missing-glyph 
 />
    <glyph glyph-name=".notdef" 
 />
    <glyph glyph-name="uni0000" 
 />
    <glyph glyph-name="uni0000" 
 />
    <glyph glyph-name="uni0001" 
 />
    <glyph glyph-name="uni0002" 
 />
    <glyph glyph-name="uni0003" 
 />
    <glyph glyph-name="uni0004" 
 />
    <glyph glyph-name="uni0005" 
 />
    <glyph glyph-name="uni0006" 
 />
    <glyph glyph-name="uni0007" 
 />
    <glyph glyph-name="uni0008" 
 />
    <glyph glyph-name="uni0009" unicode="&#x9;" 
 />
    <glyph glyph-name="uni000A" unicode="&#xa;" 
 />
    <glyph glyph-name="uni000B" 
 />
    <glyph glyph-name="uni000C" 
 />
    <glyph glyph-name="uni000D" unicode="&#xd;" 
 />
    <glyph glyph-name="uni000E" 
 />
    <glyph glyph-name="uni000F" 
 />
    <glyph glyph-name="uni0010" 
 />
    <glyph glyph-name="uni0011" 
 />
    <glyph glyph-name="uni0012" 
 />
    <glyph glyph-name="uni0013" 
 />
    <glyph glyph-name="uni0014" 
 />
    <glyph glyph-name="uni0015" 
 />
    <glyph glyph-name="uni0016" 
 />
    <glyph glyph-name="uni0017" 
 />
    <glyph glyph-name="uni0018" 
 />
    <glyph glyph-name="uni0019" 
 />
    <glyph glyph-name="uni001A" 
 />
    <glyph glyph-name="uni001B" 
 />
    <glyph glyph-name="uni001C" 
 />
    <glyph glyph-name="uni001D" 
 />
    <glyph glyph-name="uni001E" 
 />
    <glyph glyph-name="uni001F" 
 />
    <glyph glyph-name="space" unicode=" " 
 />
    <glyph glyph-name="exclam" unicode="!" 
d="M576 489l-89 1125h290l-89 -1125h-112zM777 0h-290v276h290v-276z" />
    <glyph glyph-name="quotedbl" unicode="&#x22;" 
d="M518 1568l-51 -532h-143l-39 532h233zM885 1568l-51 -532h-141l-39 532h231z" />
    <glyph glyph-name="numbersign" unicode="#" 
d="M1124 997h-184l-85 -424h187l-15 -136h-195l-91 -462h-162l88 462h-247l-90 -462h-163l94 462h-216l13 136h229l80 423h-225l14 134h236l86 438h163l-85 -438h250l84 438h162l-86 -438h175zM529 997l-83 -424h250l84 424h-251z" />
    <glyph glyph-name="dollar" unicode="$" 
d="M258 287c73 -60 169 -103 282 -121l65 572c-17 7 -33 13 -48 20c-181 76 -365 169 -365 426c0 271 208 415 479 415c10 0 20 0 31 -1l21 186h127l-23 -198c102 -19 186 -56 254 -109l-73 -160c-55 41 -123 71 -201 87l-59 -513l30 -12c187 -83 367 -191 367 -462
c0 -293 -199 -442 -491 -442h-10l-18 -161h-126l19 170c-132 19 -244 65 -337 127zM922 427c0 138 -91 210 -197 261l-60 -531c167 2 257 97 257 270zM410 1180c0 -130 106 -194 217 -241l54 478c-7 0 -14 1 -21 1c-154 0 -247 -85 -250 -238z" />
    <glyph glyph-name="percent" unicode="%" 
d="M285 1571c201 0 272 -206 272 -411c0 -223 -101 -415 -281 -415c-201 0 -276 208 -276 410c0 207 81 416 285 416zM971 -30c-199 0 -275 208 -275 411c0 226 103 417 284 417c201 0 273 -206 273 -411c0 -225 -103 -417 -282 -417zM1148 1559l-900 -1565h-143l898 1565
h145zM976 93c120 0 144 170 144 294c0 125 -22 288 -144 288c-121 0 -145 -171 -145 -295c0 -125 23 -287 145 -287zM281 1449c-121 0 -146 -169 -146 -293c0 -126 23 -289 145 -289c118 0 145 171 145 293c0 124 -24 289 -144 289z" />
    <glyph glyph-name="ampersand" unicode="&#x26;" 
d="M61 413c0 228 139 371 285 468l-22 29c-79 101 -186 191 -186 367c0 213 194 317 391 317c204 0 406 -108 406 -324c0 -222 -180 -348 -331 -432l361 -472c53 63 89 127 104 171l153 -98c-34 -80 -84 -154 -146 -219l117 -152l-155 -92l-100 130
c-124 -82 -271 -131 -420 -131c-280 0 -457 154 -457 438zM283 424c0 -176 85 -281 258 -281c112 0 211 42 292 100l-384 503c-91 -69 -166 -170 -166 -322zM341 1278c0 -128 91 -213 147 -289l21 -28c109 61 224 141 224 299c0 118 -108 183 -211 183
c-93 0 -181 -53 -181 -165z" />
    <glyph glyph-name="quotesingle" unicode="'" 
d="M558 969l-62 611h259l-55 -611h-142z" />
    <glyph glyph-name="parenleft" unicode="(" 
d="M295 772c0 385 126 690 302 933h214c-190 -300 -284 -608 -284 -924c0 -381 122 -671 286 -933h-213c-180 240 -305 540 -305 924z" />
    <glyph glyph-name="parenright" unicode=")" 
d="M815 772c0 -384 -125 -684 -305 -924h-213c164 262 286 552 286 933c0 316 -94 624 -284 924h214c176 -243 302 -548 302 -933z" />
    <glyph glyph-name="asterisk" unicode="*" 
d="M1066 374l-185 -104l-261 403l-256 -403l-187 104l327 378l-455 147l94 180l413 -213l-36 464h202l-31 -464l409 213l96 -180l-457 -147z" />
    <glyph glyph-name="plus" unicode="+" 
d="M652 1286h162v-459h497v-151h-498v-459h-165v459h-496v151h500v459z" />
    <glyph glyph-name="comma" unicode="," 
d="M440 -313l51 599h297l-206 -599h-142z" />
    <glyph glyph-name="hyphen" unicode="-" 
d="M993 827v-155h-670v155h670z" />
    <glyph glyph-name="period" unicode="." 
d="M764 0h-301v301h301v-301z" />
    <glyph glyph-name="slash" unicode="/" 
d="M914 1585h197l-709 -1809h-191z" />
    <glyph glyph-name="zero" unicode="0" 
d="M614 1363c-197 0 -294.998 -272 -294.998 -617c0 -170.38 24.1445 -322.713 72.1953 -433.268l358.175 997.028c-38.2334 34.2695 -83.3506 53.2393 -135.372 53.2393zM614.002 -25c-339 0 -491 362 -491 772c0 377 119 769 491 769s491 -392 491 -769
c0 -410 -152 -772 -491 -772zM841.244 1170.12l-353.908 -994.135c36.3691 -29.6895 78.6006 -45.9863 126.666 -45.9863c196 0 295 271 295 616c0 165.49 -22.5488 314.181 -67.7578 424.121z" />
    <glyph glyph-name="one" unicode="1" 
d="M225 1287c131 54 267 128 376 205h188v-1492h-187v1290c-103 -58 -262 -140 -377 -184v181z" />
    <glyph glyph-name="two" unicode="2" 
d="M186 1385c100 79 242 131 410 131c294 0 482 -185 482 -438c0 -231 -165.26 -369.67 -280 -496l-396 -436h661v-146h-867v191l460 542c81 94 199 208 199 350c0 164 -96 258 -257 258c-146 0 -260 -55 -341 -122z" />
    <glyph glyph-name="three" unicode="3" 
d="M577 157c191.008 0 317.702 92.8115 317.702 274.768c0 208.239 -199.833 272.655 -411.702 273.232l-110 0.299805v178l110 1.7002c197.977 3.05957 361 46 361 243c0 141 -97 221 -271 221c-147 0 -261 -57 -341 -128l-69 161c104 88 247 134 434 134
c270 0 468 -141 468 -373c0 -205 -158 -300 -326 -340c187.701 -33.124 381.005 -151.562 381.005 -390.333c0 -302.294 -248.786 -424.667 -553.005 -424.667c-168 0 -312 55 -406 125l70 160c62 -54 201 -116 346 -116z" />
    <glyph glyph-name="four" unicode="4" 
d="M897 0h-187v398h-649v143l606 951h230v-954h242v-140h-242v-398zM710 1282l-460 -744h460v744z" />
    <glyph glyph-name="five" unicode="5" 
d="M242 275c129 -104 249 -145.001 373 -145.001c193.608 0 294.497 186.568 294.497 364.112c0 161.162 -83.1289 314.889 -255.496 314.889c-121 0 -180 -110 -180 -110h-210v793h723v-146h-535v-466s100 96 222 96c290.845 0 435.552 -237.821 435.552 -481.392
c0 -255.638 -159.402 -517.608 -476.553 -517.608c-210 0 -343 53 -465 144z" />
    <glyph glyph-name="six" unicode="6" 
d="M640 -26c-307 0 -486 193 -486 498c0 191 74 350 164 466l454 554h242l-540 -640c51 32 137 59 216 59c262 0 424 -200 424 -462c0 -300 -229 -475 -474 -475zM352 437c0 -174 112 -309 288 -308c170 1 282 139 282 316c0 173 -99 320 -272 320
c-198 0 -298 -150 -298 -328z" />
    <glyph glyph-name="seven" unicode="7" 
d="M143 1323v169h885v-145l-424 -1347h-232l418 1323h-647z" />
    <glyph glyph-name="eight" unicode="8" 
d="M396 378c0 -154 81 -248 230 -248c150 0 231 93 231 248c0 176 -98 260 -231 300c-132 -40 -230 -125 -230 -300zM1070 406c0 -275 -171 -430 -444 -430s-445 155 -445 430c0 206 150 324 310 372c-157 55 -280 164 -280 364c0 238 181 374 415 374s416 -136 416 -374
c0 -199 -123 -309 -280 -364c160 -48 308 -167 308 -372zM849 1150c0 131 -95 213 -223 213c-127 0 -222 -83 -222 -213c0 -168 93 -241 222 -276c129 35 223 108 223 276z" />
    <glyph glyph-name="nine" unicode="9" 
d="M665 1517c307 0 488 -183 488 -488c0 -191 -74.29 -329.775 -164 -446l-450 -583h-242l534 669c-51 -32 -137 -59 -216 -59c-262 0 -422 180 -422 442c0 300 227 465 472 465zM953 1064c0 174 -109.997 299 -286 299c-170 0 -284 -130 -284 -307c0 -173 99 -306 272 -306
c198 0 298 136 298 314z" />
    <glyph glyph-name="colon" unicode=":" 
d="M788 830h-301v300h301v-300zM788 144h-301v301h301v-301z" />
    <glyph glyph-name="semicolon" unicode=";" 
d="M410 -313l76 599h272l-168 -599h-180zM778 838h-299v301h299v-301z" />
    <glyph glyph-name="less" unicode="&#x3c;" 
d="M1174 367v-177l-1022 499v118l1026 514v-179l-783 -393z" />
    <glyph glyph-name="equal" unicode="=" 
d="M1194 898h-1160v150h1160v-150zM1195 457h-1160v148h1160v-148z" />
    <glyph glyph-name="greater" unicode="&#x3e;" 
d="M158 1155v166l1020 -527v-95l-1026 -486v167l781 373z" />
    <glyph glyph-name="question" unicode="?" 
d="M523 556c0 -55 10 -109 19 -156h-182c-7 55 -11 112 -11 169l-1 1c0 219 204 310 315 423c56 57 110 124 110 229c0 170 -157 229 -326 229c-110 0 -203 -33 -279 -74v158c78 37 170 71 279 71c278 0 512 -97 512 -375c0 -108 -59 -188 -113 -252
c-107 -127 -323 -275 -323 -423zM328 -12v228h242v-228h-242z" />
    <glyph glyph-name="at" unicode="@" 
d="M920 523c0 -55 28 -137 79 -137c134 0 180 399 180 538c0 292 -134 527 -380 527c-193 0 -332 -107 -423 -227c-105 -139 -177 -342 -177 -583c0 -359 161 -640 464 -640c184 0 328 76 443 172l88 -76c-135 -129 -310 -228 -542 -228c-442 0 -621 420 -621 774
c0 549 343 938 776 938c358 0 510 -312 510 -671c0 -244 -80 -468 -209 -581c-40 -35 -79 -52 -120 -52c-111 0 -165 83 -177 187c-78 -135 -156 -195 -224 -195c-169 0 -224 189 -224 381c0 282 131 574 325 574c91 0 145 -89 173 -162l21 127h135
c-27 -220 -97 -425 -97 -666zM802 890c0 92 -15 191 -104 191c-143 0 -182 -313 -182 -461c0 -109 16 -226 98 -226c57 0 100 93 123 148c38 91 65 217 65 348z" />
    <glyph glyph-name="A" unicode="A" 
d="M728 1491l461 -1491h-205l-151 473h-439l-150 -473h-204l460 1491h228zM433 636h362l-178 590z" />
    <glyph glyph-name="B" unicode="B" 
d="M756 808c181 -37 333 -160 333 -350c0 -351 -257 -458 -607 -458h-347v1491h248c311 0 630 -55 630 -366c0 -168 -106 -276 -257 -317zM893 440c0 219 -161 268 -391 268h-180v-562h129c242 0 442 60 442 294zM466 874c187 0 351 43 351 216c0 240 -231 255 -495 255
v-471h144z" />
    <glyph glyph-name="C" unicode="C" 
d="M1159 1389l-70 -131c-81 59 -189 105 -330 105c-311 0 -434 -289 -434 -615c0 -342 139 -618 433 -618c141 0 256 55 333 114l69 -141c-101 -83 -245 -128 -421 -128c-397 0 -610 342 -610 775c0 453 241 766 610 766c176 0 319 -45 420 -127z" />
    <glyph glyph-name="D" unicode="D" 
d="M135 1491h207c481 0 741 -273 741 -745c0 -479 -260 -746 -760 -746h-188v1491zM322 146c399 0 565 222 565 601c0 378 -166 598 -565 598v-1199z" />
    <glyph glyph-name="E" unicode="E" 
d="M404 684v-538h737l-15 -146h-909v1491h891l-16 -146h-688v-502h655v-159h-655z" />
    <glyph glyph-name="F" unicode="F" 
d="M431 683v-683h-187v1491h865l-18 -146h-660v-499h634v-163h-634z" />
    <glyph glyph-name="G" unicode="G" 
d="M1056 1227c-80 73 -197 136 -342 136c-297 0 -401 -307 -401 -615c0 -326 124 -618 401 -618c118 0 212 42 287 87v408h-347v153h520v-646c-125 -80 -278 -157 -478 -157c-391 0 -579 353 -579 775c0 442 213 767 579 767c180 0 326 -40 430 -129z" />
    <glyph glyph-name="H" unicode="H" 
d="M327 0h-187v1491h187v-636h575v636h187v-1491h-187v702h-575v-702z" />
    <glyph glyph-name="I" unicode="I" 
d="M194 1345v146h841v-146h-331v-1199h331v-146h-841v146h323v1199h-323z" />
    <glyph glyph-name="J" unicode="J" 
d="M137 134h213c175 0 224 78 224 257v954h-345v146h831v-146h-299v-902c0 -322 -88 -469 -390 -469h-234v160z" />
    <glyph glyph-name="K" unicode="K" 
d="M928 1491h233l-500 -668l583 -823h-238l-489 700l-119 -139v-561h-187v1491h187v-718z" />
    <glyph glyph-name="L" unicode="L" 
d="M420 146h709v-146h-896v1491h187v-1345z" />
    <glyph glyph-name="M" unicode="M" 
d="M335 1230v-1230h-186v1491h255l213 -689l213 689h249v-1491h-181v1230l-177 -584h-209z" />
    <glyph glyph-name="N" unicode="N" 
d="M1078 0h-220l-538 1206v-1206h-170v1491h215l546 -1202v1202h167v-1491z" />
    <glyph glyph-name="O" unicode="O" 
d="M614 -25c-339 0 -491 362 -491 772c0 377 119 769 491 769s491 -392 491 -769c0 -410 -152 -772 -491 -772zM614 1363c-197 0 -295 -272 -295 -617s99 -616 295 -616s295 271 295 616s-98 617 -295 617z" />
    <glyph glyph-name="P" unicode="P" 
d="M1191 1062c0 -427 -365 -455 -828 -455v-607h-187v1491h412c325 0 603 -105 603 -429zM363 769h289c183 0 343 92 343 284c0 206 -155 292 -336 292h-296v-576z" />
    <glyph glyph-name="Q" unicode="Q" 
d="M764 20c68 -137 166 -252 276 -350l-124 -128c-130 126 -246 270 -330 439zM575 -25c-339 0 -491 362 -491 772c0 377 119 769 491 769s491 -392 491 -769c0 -410 -152 -772 -491 -772zM575 1363c-197 0 -295 -272 -295 -617s99 -616 295 -616s295 271 295 616
s-98 617 -295 617z" />
    <glyph glyph-name="R" unicode="R" 
d="M1115 1093c0 -220 -142 -344 -331 -386c185 -173 283 -463 394 -707l-217 -1c-106 230 -188 481 -350 654c-47 8 -97 9 -151 9h-87v-662h-187v1491h290c345 0 639 -52 639 -398zM517 824c211 0 390 57 390 267c0 188 -157 254 -344 254h-190v-521h144z" />
    <glyph glyph-name="S" unicode="S" 
d="M212 261c93 -76 225 -131 381 -131c162 0 250 108 250 274c0 201 -203 253 -347 314c-172 72 -346 161 -346 405c0 257 197 394 454 394c167 0 298 -36 393 -111l-70 -144c-77 60 -187 100.8 -313 100.8c-157 0 -257 -90.7998 -257 -241.8c0 -183 220 -231 349 -288
c172 -76 348 -175 348 -418c0 -293 -184 -440 -465 -440c-181 0 -331 41 -448 119z" />
    <glyph glyph-name="T" unicode="T" 
d="M1199 1491v-146h-494v-1345h-187v1345h-488v146h1169z" />
    <glyph glyph-name="U" unicode="U" 
d="M614 -25c-343 0 -485 212 -485 567v949h187v-943c0 -237 58 -418 298 -418s298 181 298 418v943h187v-949c0 -355 -142 -567 -485 -567z" />
    <glyph glyph-name="V" unicode="V" 
d="M967 1491h205l-450 -1491h-217l-448 1491h205l355 -1268z" />
    <glyph glyph-name="W" unicode="W" 
d="M924 210l97 1281h195l-158 -1490h-249l-181 702l-203 -702h-246l-166 1490h198l119 -1278l192 667h213z" />
    <glyph glyph-name="X" unicode="X" 
d="M92 1491h248l289 -599l312 599h228l-420 -728l428 -763h-244l-322 632l-325 -632h-234l447 762z" />
    <glyph glyph-name="Y" unicode="Y" 
d="M715 0h-212v593l-454 898h226l335 -703l339 703h231l-465 -898v-593z" />
    <glyph glyph-name="Z" unicode="Z" 
d="M343 146h652v-146h-893v143l647 1202h-612v146h867v-127z" />
    <glyph glyph-name="bracketleft" unicode="[" 
d="M387 -131v1856c0.666992 2.66992 2.33301 4.33008 5 5h514c2.69434 -0.669922 4.36133 -2.33008 5 -5v-132c-0.666992 -2.71973 -2.33301 -4.37988 -5 -5h-330v-1582h331c2.69434 -0.666992 4.36133 -2.33398 5 -5.00098v-132
c-0.666992 -2.66699 -2.33301 -4.33301 -5 -5h-515c-2.67871 0.665039 -4.34473 2.33105 -5 5z" />
    <glyph glyph-name="backslash" unicode="\" 
d="M1100 -48h-180l-709 1809h184z" />
    <glyph glyph-name="bracketright" unicode="]" 
d="M697 -131v1856c-0.666992 2.66992 -2.33301 4.33008 -5 5h-514c-2.69434 -0.669922 -4.36133 -2.33008 -5 -5v-132c0.666992 -2.71973 2.33301 -4.37988 5 -5h330v-1582h-331c-2.69434 -0.666992 -4.36133 -2.33301 -5 -5v-132c0.666992 -2.66699 2.33301 -4.33301 5 -5
h515c2.67871 0.665039 4.34473 2.33105 5 5z" />
    <glyph glyph-name="asciicircum" unicode="^" 
d="M644 1554h113l539 -957h-171l-427 771l-414 -771h-173z" />
    <glyph glyph-name="underscore" unicode="_" 
d="M4 -296v139h1072v-139h-1072z" />
    <glyph glyph-name="grave" unicode="`" 
d="M654 1705l283 -437h-139l-380 437h236z" />
    <glyph glyph-name="a" unicode="a" 
d="M536 -25c-199 0 -359 106 -359 305c0 272 261 303 553 303h146v173c0 167 -89 242 -240 242c-139 0 -271 -37 -364 -84l-44 141c121 51 266 75 427 75c228 0 403 -96 403 -339v-791h-159l-24 84c-86 -51 -220 -109 -339 -109zM542 108c122 0 240 42 334 79v281h-149
c-158.807 0 -372 -7.61719 -372 -179c0 -111.547 71.4648 -181 187 -181z" />
    <glyph glyph-name="b" unicode="b" 
d="M310 946c71 110 166 184 342 184c309 0 459 -251 459 -562c0 -320 -139 -593 -458 -593c-169 0 -266 74 -343 175l-2 -150h-180v1565h182v-619zM310 555c0 -235.74 80 -439 321 -439c230 0 297 225.263 297 439c0 223.804 -59 435 -297 435
c-249 0 -321 -193.333 -321 -435z" />
    <glyph glyph-name="c" unicode="c" 
d="M330 557c0 -265.62 111 -442 364 -442c125 0 226 38 304 95l69 -125c-95 -71 -224 -110 -387 -110c-357 0 -562 226 -562 581c0 347 213 574 562 574c158 0 289 -39 387 -110l-69 -147c-80 70.6885 -181 117 -307 117c-250 0 -361 -172.359 -361 -433z" />
    <glyph glyph-name="d" unicode="d" 
d="M919 946v619h182v-1565h-180l-2 150c-77 -101 -174 -175 -343 -175c-319 0 -458 273 -458 593c0 311 150 562 459 562c176 0 271 -74 342 -184zM919 555c0 241.667 -72 435 -321 435c-238 0 -297 -211.196 -297 -435c0 -214.224 67 -440 297 -440
c241 0 321 203.723 321 440z" />
    <glyph glyph-name="e" unicode="e" 
d="M870 653c-9.74219 168.04 -60.0605 337 -235.999 337c-197.945 0 -280.684 -159.224 -301.001 -337h537zM619.002 -25c-322.171 0 -476 258.098 -476 580c0 321.665 181.308 575 491 575c289.983 0 410 -258.125 410 -549l-1 -61h-716
c9.04688 -211.692 89.4941 -405 305 -405c121.333 0 224.667 44.667 310 134l80 -124c-103.236 -93.1641 -214.664 -150 -403 -150z" />
    <glyph glyph-name="f" unicode="f" 
d="M942 1424c-189 0 -261 -35 -261 -224v-103h459v-140h-459v-817h355v-140h-856v140h319v817h-343v140h343c0 336 43 488 467 488h174v-161h-198z" />
    <glyph glyph-name="g" unicode="g" 
d="M599 990c-235 0 -298 -201.623 -298 -440c0 -190 79 -388 290 -388c234 0 307 199 307 394c0 228.034 -63 434 -299 434zM898 210c-42 -107 -169 -210 -323 -210c-307 0 -457 253 -457 556c0 324 148 574 461 574c145 0 250 -69 319 -182l6 149h185
c-8 -218 -9 -427 -9 -651v-294c0 -469 -176.5 -613 -763 -613v140c422.5 0 581 71.5049 581 458v73z" />
    <glyph glyph-name="h" unicode="h" 
d="M680 1130c250 0 342 -193 342 -468v-662h-182v639c0 184.846 -24 351 -204 351c-178 0 -294 -183.271 -294 -257v-733h-182v1565h182v-614c75 99 154 179 338 179z" />
    <glyph glyph-name="i" unicode="i" 
d="M266 957v140h522v-957h397v-140h-988v140h409v817h-340zM576 1386v99c0 50.2324 70.7676 91 121 91s121 -40.7676 121 -91v-99c0 -50.2324 -70.7676 -91 -121 -91s-121 40.7676 -121 91z" />
    <glyph glyph-name="j" unicode="j" 
d="M589 1386v99c0 50.2324 70.7676 91 121 91s121 -40.7676 121 -91v-99c0 -50.2324 -70.7676 -91 -121 -91s-121 40.7676 -121 91zM410 -220c186 0 211 44 211 291v886h-485v140h667v-970c0 -326 -17 -487 -392 -487h-276v140h275z" />
    <glyph glyph-name="k" unicode="k" 
d="M382 648l542 449h240l-540 -456l542 -641h-228l-444 546l-112 -95v-451h-182v1565h182v-917z" />
    <glyph glyph-name="l" unicode="l" 
d="M195 1425v140h593v-1424.83h471v-140.167h-1134v140.167h481v1284.83h-411z" />
    <glyph glyph-name="m" unicode="m" 
d="M893 990c-159.771 0 -190 -188.789 -190 -310v-680h-170v638c0 132.931 -11.4961 352 -139 352c-112.284 0 -170 -154.024 -170 -269v-721h-176v1097h152l13 -165c32.2412 84 110 198 220 198c145.854 0 196.734 -105 225 -210c56.9053 96 122.285 210 293 210
c207.65 0 248 -216 248 -427v-703h-176v602c0 141.668 -3.87988 388 -130 388z" />
    <glyph glyph-name="n" unicode="n" 
d="M715 1130c253 0 341 -175 341 -432v-698h-182v640c0 177.479 6 350 -223 350c-138.371 0 -252 -101.816 -252 -258v-732h-182v1097h167l10 -139c63.4531 88 153.968 172 321 172z" />
    <glyph glyph-name="o" unicode="o" 
d="M612 1130c329 0 498 -247 498 -572c0 -348 -200 -583 -498 -583c-323 0 -494 257 -494 576c0 346 198 579 494 579zM302 550c0 -213.563 82 -435 310 -435c235 0 316 220.476 316 438c0 216.532 -80 437 -316 437c-228 0 -310 -226.398 -310 -440z" />
    <glyph glyph-name="p" unicode="p" 
d="M310 946c71 110 166 184 342 184c309 0 459 -251 459 -562c0 -320 -139 -593 -458 -593c-169 0 -266 74 -343 175l-2 -591h-180v1538h182v-151zM310 555c0 -236.277 80 -440 321 -440c230 0 297 225.776 297 440c0 223.804 -59 435 -297 435
c-249 0 -321 -193.333 -321 -435z" />
    <glyph glyph-name="q" unicode="q" 
d="M919 946v151h182v-1538h-180l-2 591c-77 -101 -174 -175 -343 -175c-319 0 -458 273 -458 593c0 311 150 562 459 562c176 0 271 -74 342 -184zM919 555c0 241.667 -72 435 -321 435c-238 0 -297 -211.196 -297 -435c0 -214.224 67 -440 297 -440
c241 0 321 203.723 321 440z" />
    <glyph glyph-name="r" unicode="r" 
d="M1026 961c-224 0 -364 -108 -364 -351v-470h389v-140h-911v140h340v817h-224v140h373l15 -203c91 157 227 236 408 236h137v-169h-163z" />
    <glyph glyph-name="s" unicode="s" 
d="M621 136c139 0 263 29 263 168c0 143 -217 162 -334 192c-169 43 -334 111 -334 323c0 215 198 311 412 311c156 0 290 -17 403 -69l-58 -147c-92 51.127 -214 76 -336 76c-107 0 -210 -41.25 -210 -165c0 -147 214 -163 334 -195c166 -44 334 -102 334 -311
c0 -242 -218 -344 -459 -344c-172 0 -332 28 -433 101l58 155c92 -65 214 -95 360 -95z" />
    <glyph glyph-name="t" unicode="t" 
d="M681 957v-515c0 -232.143 93 -301.833 314 -301.833h187v-140.167h-180c-393 0 -503 128 -503 498v459h-290v140h290v378l182 54v-432h490v-140h-490z" />
    <glyph glyph-name="u" unicode="u" 
d="M614 -25c-266 0 -424 164 -424 429v693h182v-709c0 -157.083 75 -273 242 -273s242 115.917 242 273v709h182v-693c0 -265 -158 -429 -424 -429z" />
    <glyph glyph-name="v" unicode="v" 
d="M618 189c113 307 213 598 321 908h202l-427 -1097h-203l-424 1097h210z" />
    <glyph glyph-name="w" unicode="w" 
d="M432 0h-186l-222 1097h183l139 -877l175 877h217l159 -874l135 874h172l-221 -1097h-192l-163 883z" />
    <glyph glyph-name="x" unicode="x" 
d="M158 1097h208l261 -422l261 422h189l-337 -532l349 -565h-202l-268 437l-279 -437h-200l360 560z" />
    <glyph glyph-name="y" unicode="y" 
d="M652 205l331 892h201s-341 -843 -431 -1081v1c-10 -21 -16 -51 -23 -75c-72 -254 -284 -336 -570 -365v156c211 22 377 60 389 291c-312 717 -455 1073 -455 1073h218z" />
    <glyph glyph-name="z" unicode="z" 
d="M213 1097h767v-138l-578 -818.833h615v-140.167h-824v142l559 815h-539v140z" />
    <glyph glyph-name="braceleft" unicode="{" 
d="M514 455c0 164 -128 244 -289 254v135c161 10 289 89 289 253v233c0 258 95 377 359 376l228 -1v-136h-228c-130 0 -137 -109 -137 -239v-241c0 -199 -97 -255 -246 -313c149 -58 246 -113 246 -312v-241c0 -130 7 -240 137 -240h228v-135l-228 -1
c-264 -1 -359 118 -359 376v232z" />
    <glyph glyph-name="bar" unicode="|" 
d="M530 -441v2026h161v-2026h-161z" />
    <glyph glyph-name="braceright" unicode="}" 
d="M815 1097c0 -164 128 -243 289 -253v-135c-161 -10 -289 -90 -289 -254v-232c0 -258 -95 -377 -359 -376l-229 1v135h229c130 0 137 110 137 240v241c0 199 96 254 245 312c-149 58 -245 114 -245 313v241c0 130 -7 239 -137 239h-229v136l229 1c264 1 359 -118 359 -376
v-233z" />
    <glyph glyph-name="asciitilde" unicode="~" 
d="M1332 1108c-35 -162 -71 -327 -268 -327c-83 0 -173 41 -249 69c-103 38 -223 86 -332 119c-9 3 -18 5 -28 5c-84 0 -110 -114 -121 -190l-182 60c28 141 102 306 268 306c99 0 196 -42 278 -75c96 -39 205 -86 310 -112c7 -2 15 -4 23 -4c85 0 103 118 117 191z" />
    <glyph glyph-name="uni007F" 
 />
    <glyph glyph-name="uni0080" 
 />
    <glyph glyph-name="uni0081" 
 />
    <glyph glyph-name="uni0082" 
 />
    <glyph glyph-name="uni0083" 
 />
    <glyph glyph-name="uni0084" 
 />
    <glyph glyph-name="uni0085" unicode="&#x85;" 
 />
    <glyph glyph-name="uni0086" 
 />
    <glyph glyph-name="uni0087" 
 />
    <glyph glyph-name="uni0088" 
 />
    <glyph glyph-name="uni0089" 
 />
    <glyph glyph-name="uni008A" 
 />
    <glyph glyph-name="uni008B" 
 />
    <glyph glyph-name="uni008C" 
 />
    <glyph glyph-name="uni008D" 
 />
    <glyph glyph-name="uni008E" 
 />
    <glyph glyph-name="uni008F" 
 />
    <glyph glyph-name="uni0090" 
 />
    <glyph glyph-name="uni0091" 
 />
    <glyph glyph-name="uni0092" 
 />
    <glyph glyph-name="uni0093" 
 />
    <glyph glyph-name="uni0094" 
 />
    <glyph glyph-name="uni0095" 
 />
    <glyph glyph-name="uni0096" 
 />
    <glyph glyph-name="uni0097" 
 />
    <glyph glyph-name="uni0098" 
 />
    <glyph glyph-name="uni0099" 
 />
    <glyph glyph-name="uni009A" 
 />
    <glyph glyph-name="uni009B" 
 />
    <glyph glyph-name="uni009C" 
 />
    <glyph glyph-name="uni009D" 
 />
    <glyph glyph-name="uni009E" 
 />
    <glyph glyph-name="uni009F" 
 />
    <glyph glyph-name="uni00A0" unicode="&#xa0;" 
 />
    <glyph glyph-name="exclamdown" unicode="&#xa1;" 
d="M542 -417v1170h173v-1170h-173zM723 1184v-225h-236v225h236z" />
    <glyph glyph-name="cent" unicode="&#xa2;" 
d="M779 117c128 7 230 60 306 127l51 -150c-93 -72 -218 -114 -369 -118l-15 -253h-126v259c-278 40 -454 249 -454 563c0 360 236 577 527 594l15 229h143l-16 -235c125 -17 225 -67 287 -149l-82 -116c-49 61 -123 103 -213 120zM690 988c-202 -31 -326 -206 -326 -435
c0 -219 92 -378 271 -422z" />
    <glyph glyph-name="sterling" unicode="&#xa3;" 
d="M806 1418c-228 0 -302 -165 -302 -390l4 -125h366v-154h-363c0 -46 1 -95 1 -144c0 -184 -11 -374 -111 -452h787v-153h-1068l-1 150c117 65 202 150 202 328v271h-202v154h201c-5 42 -7 83 -7 123c0 318 157 546 491 546c152 0 278 -31 364 -99l-58 -130
c-80 49 -184 75 -304 75z" />
    <glyph glyph-name="currency" unicode="&#xa4;" 
d="M773 1106c143 -63 229 -184 229 -386l1 -1c0 -165 -70 -290 -173 -356l166 -303l-38 -18l-166 300c-53 -24 -113 -46 -186 -46c-52 0 -101 2 -143 14l-106 -268l-41 18l103 266c-147 57 -245 186 -245 386c0 186 78 315 203 381l-167 302l44 17l166 -302
c44 20 96 31 156 31c55 0 106 -7 152 -19l114 290l46 -17zM276 715c0 -198 116 -342 315 -342s310 146 310 343c0 203 -109 346 -314 346c-198 0 -311 -151 -311 -347z" />
    <glyph glyph-name="yen" unicode="&#xa5;" 
d="M611 0v307h-440l-12 152h451v164h-447v155h408l-493 763h227c138 -227 276 -446 410 -677l412 677h207l-504 -763h402v-155h-432v-164h436v-152h-433v-307h-192z" />
    <glyph glyph-name="brokenbar" unicode="&#xa6;" 
d="M539 427h172v-960h-172v960zM539 1677h172v-942h-172v942z" />
    <glyph glyph-name="section" unicode="&#xa7;" 
d="M960 1416c-71 31 -153 57 -249 57c-117 0 -238 -25 -238 -143c0 -150 178 -196 287 -241c126 -53 287 -113 287 -289c0 -141 -114 -223 -205 -278c90 -46 179 -121 179 -248c0 -226 -224 -326 -449 -326c-115 0 -213 21 -299 57l-1 161c82 -38 181 -69 294 -69
c126 0 263 41 263 167c0 135 -194 176 -293 217c-134 55 -292 125 -292 312c0 142 111 217 207 267c-89 52 -168 125 -168 255c0 226 197 306 423 306c92 0 178 -23 253 -45zM692 594c63 37 157 95 157 192c0 123 -181 163 -263 205c-65 -34 -147 -89 -147 -185
c0 -125 164 -175 253 -212z" />
    <glyph glyph-name="dieresis" unicode="&#xa8;" 
d="M330 1448c64 0 125 4 184 10c0 -61 4 -120 11 -179c-63 0 -124 -4 -184 -11c0 61 -4 121 -11 180zM765 1279c5 58 9 117 9 179c59 -6 120 -10 184 -10c-8 -57 -12 -117 -12 -180c-61 7 -121 11 -181 11z" />
    <glyph glyph-name="copyright" unicode="&#xa9;" 
d="M1793 787c0 -354 -205 -586 -440 -711c-121 -64 -272 -110 -449 -110c-368 0 -630 176 -775 403c-71 111 -123 248 -123 419c0 355 208 585 443 711c121 65 271 111 449 111c368 0 625 -178 771 -405c70 -109 123 -249 123 -418h1zM896 1483c-437 0 -750 -299 -750 -670
c0 -463 367 -721 730 -721c472 0 774 302 774 694c0 463 -405 697 -754 697zM1234 1069c-72 62 -172 104 -297 104c-225 0 -369 -155 -369 -378h2c0 -230 150 -382 381 -382c115 0 211 30 278 86l44 -131c-88 -62 -201 -98 -341 -98c-337 0 -532 257 -532 522
c0 340 263 519 544 519c138 0 244 -44 325 -111z" />
    <glyph glyph-name="ordfeminine" unicode="&#xaa;" 
d="M327 1466c56 94 166 138 314 138c183 0 304 -81 304 -264c0 -86 -4 -170 -4 -254c0 -78 3 -156 10 -233h-145l-7 80c-52 -65 -135 -99 -244 -99c-149 0 -279 75 -279 224c0 248 300 228 521 257c0 126 -37 171 -164 171c-106 0 -187 -34 -232 -102zM580 945
c138 0 218 96 218 233v27c-128 -23 -369 3 -369 -144c0 -88 64 -116 151 -116z" />
    <glyph glyph-name="guillemotleft" unicode="&#xab;" 
d="M679 992l-293 -404l282 -403h-173l-298 403l305 404h177zM1086 992l-292 -404l283 -403h-173l-297 403l303 404h176z" />
    <glyph glyph-name="logicalnot" unicode="&#xac;" 
d="M1146 715h-994v151h1159v-608h-165v457z" />
    <glyph glyph-name="uni00AD" unicode="&#xad;" 
 />
    <glyph glyph-name="registered" unicode="&#xae;" 
d="M1793 785c0 -354 -205 -586 -440 -711c-121 -64 -272 -111 -449 -111c-368 0 -630 176 -775 403c-71 111 -123 249 -123 420c0 355 209 585 443 711c121 65 271 111 449 111c368 0 626 -178 771 -405c70 -110 123 -249 123 -418h1zM146 788c0 -473 408 -698 782 -698
c443 0 722 332 722 671c0 462 -367 721 -728 721c-473 0 -776 -303 -776 -694zM1167 296c-84 142 -167 329 -298 425h-151v-425h-164v998h301l-1 -1c235 0 477 -45 477 -279c0 -172 -137 -256 -293 -274c128 -122 219 -291 315 -444h-186zM853 848c154 0 307 -5 307 151
c0 124 -85 163 -206 163h-239v-314h138z" />
    <glyph glyph-name="macron" unicode="&#xaf;" 
d="M326 1499v140h947v-140h-947z" />
    <glyph glyph-name="degree" unicode="&#xb0;" 
d="M653 1054c117 0 215 80 215 196s-99 192 -215 192c-115 0 -215 -77 -215 -192c0 -116 98 -196 215 -196zM1006 1248c0 -188 -166 -319 -353 -319c-213 0 -354 167 -354 319c0 189 165 319 354 319c212 0 353 -162 353 -319z" />
    <glyph glyph-name="plusminus" unicode="&#xb1;" 
d="M644 1201h166v-406h499v-150h-496v-403h-166v403h-495v150h492v406zM152 150h1160v-150h-1160v150z" />
    <glyph glyph-name="uni00B2" unicode="&#xb2;" 
d="M604 1564c172 0 312 -75 312 -247c0 -126 -77 -224 -144 -297c-75 -83 -176 -166 -258 -236h401v-128h-603v120c147 134 332 280 435 457c18 31 27 58 27 82h1c0 84 -70 121 -154 121c-107 0 -171 -67 -207 -142l-95 84c44 99 145 186 285 186z" />
    <glyph glyph-name="uni00B3" unicode="&#xb3;" 
d="M379 846c48 -44 115 -85 201 -85v-1c103 0 193 44 193 147c0 119 -119 146 -238 146l-62 -2v130c129 0 273 1 273 131c0 91 -65 122 -156 122c-89 0 -160 -43 -213 -84l-64 104c67 62 159 110 280 110c167 0 300 -92 300 -258c0 -95 -52 -150 -119 -186
c83 -36 142 -104 142 -215c0 -174 -155 -269 -330 -269c-118 0 -209 43 -273 105z" />
    <glyph glyph-name="acute" unicode="&#xb4;" 
d="M418 1268l261 437h232l-351 -437h-142z" />
    <glyph glyph-name="uni00B5" unicode="&#xb5;" 
 />
    <glyph glyph-name="paragraph" unicode="&#xb6;" 
d="M66 1227c0 287 284 348 571 348h428v-134h-96v-1601h-144v1601h-230v-1601h-157v1013c-216 3 -372 157 -372 374z" />
    <glyph glyph-name="periodcentered" unicode="&#xb7;" 
d="M494 557v228h241v-228h-241z" />
    <glyph glyph-name="cedilla" unicode="&#xb8;" 
d="M731 -261c0 62 -59 78 -122 78c-28 0 -48 -3 -75 -5l35 207h108l-20 -117l9 1c121 0 222 -42 222 -163c0 -135 -136 -168 -271 -168c-69 0 -130 11 -189 23l9 92c51 -12 108 -26 167 -26c64 0 127 14 127 78z" />
    <glyph glyph-name="uni00B9" unicode="&#xb9;" 
d="M564 1381c-55 -28 -109 -52 -168 -75l1 141c69 23 127 51 185 86l116 16v-768h135v-125h-403v129h134v596z" />
    <glyph glyph-name="ordmasculine" unicode="&#xba;" 
d="M684 833c-244 0 -403 144 -403 387c0 236 163 382 401 382c244 0 398 -143 398 -385c0 -235 -159 -384 -396 -384zM684 950c153 0 243 112 243 264c0 162 -82 272 -246 272c-159 0 -244 -111 -244 -268c0 -159 86 -268 247 -268z" />
    <glyph glyph-name="guillemotright" unicode="&#xbb;" 
d="M197 185l292 404l-286 403h177l298 -403l-305 -404h-176zM636 185l290 404l-281 403h172l299 -403l-307 -404h-173z" />
    <glyph glyph-name="onequarter" unicode="&#xbc;" 
d="M1354 245h-418v100l404 561h150v-545h120l11 -116h-134v-244l-133 40v204zM409 1h-167l1002 1559h164zM191 1381c-55 -29 -111 -55 -168 -75l1 141c64 21 125 50 185 86l117 16v-768h135v-125h-404v129h134v596zM1353 361c0 70 -1 139 -1 209c0 52 1 103 2 155l-263 -364
h262z" />
    <glyph glyph-name="onehalf" unicode="&#xbd;" 
d="M1207 881c174 0 314 -72 314 -246c0 -126 -77 -225 -144 -298c-75 -83 -178 -166 -260 -236h403v-127h-606v120c148 135 333 278 437 456c18 31 27 58 27 82h2c0 85 -71 122 -156 122c-106 0 -170 -68 -207 -142l-93 85c44 98 143 184 283 184zM323 1h-166l1003 1559h163
zM171 1381c-55 -28 -110 -52 -169 -75l1 141c68 23 128 51 185 86l116 16v-768h136v-125h-404v129h135v596z" />
    <glyph glyph-name="threequarters" unicode="&#xbe;" 
d="M1383 248h-418v98l403 563h150v-546h121l11 -115h-134v-249l-133 45v204zM457 -1h-167l1003 1559h164zM86 846c49 -44 114 -85 201 -85v-1c103 0 193 44 193 147c0 119 -118 146 -237 146l-62 -2v130c129 0 272 1 272 131c0 91 -64 122 -155 122c-89 0 -160 -43 -213 -84
l-65 104c67 63 158 110 280 110c167 0 300 -92 300 -258c0 -83 -40 -145 -119 -186c84 -36 143 -104 143 -215c0 -174 -157 -269 -332 -269c-118 0 -207 43 -272 105zM1381 363v146c0 73 0 145 2 217l-264 -363h262z" />
    <glyph glyph-name="questiondown" unicode="&#xbf;" 
d="M604 1037c0 55 -9 109 -18 156h181c7 -57 11 -113 11 -169l1 -1c0 -218 -203 -311 -314 -423c-56 -56 -110 -125 -110 -229c0 -172 154 -229 325 -229c110 0 203 33 279 74v-158c-77 -37 -171 -71 -279 -71c-277 0 -512 97 -512 374c0 108 59 189 113 253
c108 128 323 272 323 423zM799 1604v-228h-242v228h242z" />
    <glyph glyph-name="Agrave" unicode="&#xc0;" 
d="M400.5 2075l283 -437h-139l-380 437h236zM728 1491l461 -1491h-205l-151 473h-439l-150 -473h-204l460 1491h228zM433 636h362l-178 590z" />
    <glyph glyph-name="Aacute" unicode="&#xc1;" 
d="M543 1638l261 437h232l-351 -437h-142zM728 1491l461 -1491h-205l-151 473h-439l-150 -473h-204l460 1491h228zM433 636h362l-178 590z" />
    <glyph glyph-name="Acircumflex" unicode="&#xc2;" 
d="M697.5 1987l259 -349h-143l-204 235l-202 -235h-136l259 349h167zM728 1491l461 -1491h-205l-151 473h-439l-150 -473h-204l460 1491h228zM433 636h362l-178 590z" />
    <glyph glyph-name="Atilde" unicode="&#xc3;" 
d="M1005.5 1885c-7 -139 -76 -247 -223 -247c-142 0 -192 116 -331 116c-63 0 -90 -43 -92 -102h-137c3 148 82 245 234 245c145 0 189 -117 330 -117c58 0 77 51 81 105h138zM728 1491l461 -1491h-205l-151 473h-439l-150 -473h-204l460 1491h228zM433 636h362l-178 590z
" />
    <glyph glyph-name="Adieresis" unicode="&#xc4;" 
d="M300 1818c64 0 125 4 184 10c0 -61 4 -120 11 -179c-63 0 -124 -4 -184 -11c0 61 -4 121 -11 180zM735 1649c5 58 9 117 9 179c59 -6 120 -10 184 -10c-8 -57 -12 -117 -12 -180c-61 7 -121 11 -181 11zM728 1491l461 -1491h-205l-151 473h-439l-150 -473h-204l460 1491
h228zM433 636h362l-178 590z" />
    <glyph glyph-name="Aring" unicode="&#xc5;" 
d="M626.5 1823.2c-75 0 -135 -39 -135 -114c0 -61 44 -114 106 -114c76 0 140 39 140 116c0 60 -50 112 -111 112zM846.5 1710.2c0 -122 -108 -208 -230 -208c-127 0 -235 82 -235 208s107 206 234 206c124 0 231 -82 231 -206zM728 1491l461 -1491h-205l-151 473h-439
l-150 -473h-204l460 1491h228zM433 636h362l-178 590z" />
    <glyph glyph-name="AE" unicode="&#xc6;" 
d="M2073 1581v-161h-796l41 -530h709v-161h-687l45 -569h713v-160h-881l-36 432h-714l-251 -432h-216l919 1581h1154zM555 592h605l-66 828h-54z" />
    <glyph glyph-name="Ccedilla" unicode="&#xc7;" 
d="M847 -290.1c0 62 -59 78 -122 78c-28 0 -48 -3 -75 -5l35 207h108l-20 -117l9 1c121 0 222 -42 222 -163c0 -135 -136 -168 -271 -168c-69 0 -130 11 -189 23l9 92c51 -12 108 -26 167 -26c64 0 127 14 127 78zM1159 1389l-70 -131c-81 59 -189 105 -330 105
c-311 0 -434 -289 -434 -615c0 -342 139 -618 433 -618c141 0 256 55 333 114l69 -141c-101 -83 -245 -128 -421 -128c-397 0 -610 342 -610 775c0 453 241 766 610 766c176 0 319 -45 420 -127z" />
    <glyph glyph-name="Egrave" unicode="&#xc8;" 
d="M449 2075l283 -437h-139l-380 437h236zM404 684v-538h737l-15 -146h-909v1491h891l-16 -146h-688v-502h655v-159h-655z" />
    <glyph glyph-name="Eacute" unicode="&#xc9;" 
d="M591.5 1638l261 437h232l-351 -437h-142zM404 684v-538h737l-15 -146h-909v1491h891l-16 -146h-688v-502h655v-159h-655z" />
    <glyph glyph-name="Ecircumflex" unicode="&#xca;" 
d="M746 1987l259 -349h-143l-204 235l-202 -235h-136l259 349h167zM404 684v-538h737l-15 -146h-909v1491h891l-16 -146h-688v-502h655v-159h-655z" />
    <glyph glyph-name="Edieresis" unicode="&#xcb;" 
d="M348.5 1818c64 0 125 4 184 10c0 -61 4 -120 11 -179c-63 0 -124 -4 -184 -11c0 61 -4 121 -11 180zM783.5 1649c5 58 9 117 9 179c59 -6 120 -10 184 -10c-8 -57 -12 -117 -12 -180c-61 7 -121 11 -181 11zM404 684v-538h737l-15 -146h-909v1491h891l-16 -146h-688v-502
h655v-159h-655z" />
    <glyph glyph-name="Igrave" unicode="&#xcc;" 
d="M401 2075l283 -437h-139l-380 437h236zM194 1345v146h841v-146h-331v-1199h331v-146h-841v146h323v1199h-323z" />
    <glyph glyph-name="Iacute" unicode="&#xcd;" 
d="M543.5 1638l261 437h232l-351 -437h-142zM194 1345v146h841v-146h-331v-1199h331v-146h-841v146h323v1199h-323z" />
    <glyph glyph-name="Icircumflex" unicode="&#xce;" 
d="M698 1987l259 -349h-143l-204 235l-202 -235h-136l259 349h167zM194 1345v146h841v-146h-331v-1199h331v-146h-841v146h323v1199h-323z" />
    <glyph glyph-name="Idieresis" unicode="&#xcf;" 
d="M300.5 1818c64 0 125 4 184 10c0 -61 4 -120 11 -179c-63 0 -124 -4 -184 -11c0 61 -4 121 -11 180zM735.5 1649c5 58 9 117 9 179c59 -6 120 -10 184 -10c-8 -57 -12 -117 -12 -180c-61 7 -121 11 -181 11zM194 1345v146h841v-146h-331v-1199h331v-146h-841v146h323
v1199h-323z" />
    <glyph glyph-name="Eth" unicode="&#xd0;" 
d="M563 1581c604 0 1021 -190 1021 -795c0 -527 -381 -786 -908 -786h-461v714h-215v149h215v718h348zM694 160c418 0 687 206 687 622c0 493 -303 638 -794 638h-182v-557h228v-149h-228v-554h289z" />
    <glyph glyph-name="Ntilde" unicode="&#xd1;" 
d="M1005.5 1885c-7 -139 -76 -247 -223 -247c-142 0 -192 116 -331 116c-63 0 -90 -43 -92 -102h-137c3 148 82 245 234 245c145 0 189 -117 330 -117c58 0 77 51 81 105h138zM1078 0h-220l-538 1206v-1206h-170v1491h215l546 -1202v1202h167v-1491z" />
    <glyph glyph-name="Ograve" unicode="&#xd2;" 
d="M400.5 2075l283 -437h-139l-380 437h236zM614 -25c-339 0 -491 362 -491 772c0 377 119 769 491 769s491 -392 491 -769c0 -410 -152 -772 -491 -772zM614 1363c-197 0 -295 -272 -295 -617s99 -616 295 -616s295 271 295 616s-98 617 -295 617z" />
    <glyph glyph-name="Oacute" unicode="&#xd3;" 
d="M543 1638l261 437h232l-351 -437h-142zM614 -25c-339 0 -491 362 -491 772c0 377 119 769 491 769s491 -392 491 -769c0 -410 -152 -772 -491 -772zM614 1363c-197 0 -295 -272 -295 -617s99 -616 295 -616s295 271 295 616s-98 617 -295 617z" />
    <glyph glyph-name="Ocircumflex" unicode="&#xd4;" 
d="M697.5 1987l259 -349h-143l-204 235l-202 -235h-136l259 349h167zM614 -25c-339 0 -491 362 -491 772c0 377 119 769 491 769s491 -392 491 -769c0 -410 -152 -772 -491 -772zM614 1363c-197 0 -295 -272 -295 -617s99 -616 295 -616s295 271 295 616s-98 617 -295 617z
" />
    <glyph glyph-name="Otilde" unicode="&#xd5;" 
d="M1005.5 1885c-7 -139 -76 -247 -223 -247c-142 0 -192 116 -331 116c-63 0 -90 -43 -92 -102h-137c3 148 82 245 234 245c145 0 189 -117 330 -117c58 0 77 51 81 105h138zM614 -25c-339 0 -491 362 -491 772c0 377 119 769 491 769s491 -392 491 -769
c0 -410 -152 -772 -491 -772zM614 1363c-197 0 -295 -272 -295 -617s99 -616 295 -616s295 271 295 616s-98 617 -295 617z" />
    <glyph glyph-name="Odieresis" unicode="&#xd6;" 
d="M300 1818c64 0 125 4 184 10c0 -61 4 -120 11 -179c-63 0 -124 -4 -184 -11c0 61 -4 121 -11 180zM735 1649c5 58 9 117 9 179c59 -6 120 -10 184 -10c-8 -57 -12 -117 -12 -180c-61 7 -121 11 -181 11zM614 -25c-339 0 -491 362 -491 772c0 377 119 769 491 769
s491 -392 491 -769c0 -410 -152 -772 -491 -772zM614 1363c-197 0 -295 -272 -295 -617s99 -616 295 -616s295 271 295 616s-98 617 -295 617z" />
    <glyph glyph-name="multiply" unicode="&#xd7;" 
d="M1077 280l-116 -112l-328 321l-328 -321l-115 110l328 324l-328 322l115 112l328 -323l328 323l116 -113l-330 -321z" />
    <glyph glyph-name="Oslash" unicode="&#xd8;" 
d="M281 -222l-135 51l809 1888l140 -42zM614 -25c-339 0 -491 362 -491 772c0 377 119 769 491 769s491 -392 491 -769c0 -410 -152 -772 -491 -772zM614 1356c-197 0 -295 -265 -295 -610s99 -610 295 -610s295 265 295 610s-98 610 -295 610z" />
    <glyph glyph-name="Ugrave" unicode="&#xd9;" 
d="M400.5 2075l283 -437h-139l-380 437h236zM614 -25c-343 0 -485 212 -485 567v949h187v-943c0 -237 58 -418 298 -418s298 181 298 418v943h187v-949c0 -355 -142 -567 -485 -567z" />
    <glyph glyph-name="Uacute" unicode="&#xda;" 
d="M543 1638l261 437h232l-351 -437h-142zM614 -25c-343 0 -485 212 -485 567v949h187v-943c0 -237 58 -418 298 -418s298 181 298 418v943h187v-949c0 -355 -142 -567 -485 -567z" />
    <glyph glyph-name="Ucircumflex" unicode="&#xdb;" 
d="M697.5 1987l259 -349h-143l-204 235l-202 -235h-136l259 349h167zM614 -25c-343 0 -485 212 -485 567v949h187v-943c0 -237 58 -418 298 -418s298 181 298 418v943h187v-949c0 -355 -142 -567 -485 -567z" />
    <glyph glyph-name="Udieresis" unicode="&#xdc;" 
d="M300 1818c64 0 125 4 184 10c0 -61 4 -120 11 -179c-63 0 -124 -4 -184 -11c0 61 -4 121 -11 180zM735 1649c5 58 9 117 9 179c59 -6 120 -10 184 -10c-8 -57 -12 -117 -12 -180c-61 7 -121 11 -181 11zM614 -25c-343 0 -485 212 -485 567v949h187v-943
c0 -237 58 -418 298 -418s298 181 298 418v943h187v-949c0 -355 -142 -567 -485 -567z" />
    <glyph glyph-name="Yacute" unicode="&#xdd;" 
d="M543.5 1638l261 437h232l-351 -437h-142zM715 0h-212v593l-454 898h226l335 -703l339 703h231l-465 -898v-593z" />
    <glyph glyph-name="Thorn" unicode="&#xde;" 
d="M1279 951c0 -447 -465 -470 -913 -470v-481h-190v1581h190v-157c466 0 913 -6 913 -473zM655 643c237 0 420 76 420 313c0 260 -214 308 -472 308h-237v-621h289z" />
    <glyph glyph-name="germandbls" unicode="&#xdf;" 
d="M664 1599c248 0 477 -95 477 -343c0 -204 -197 -311 -318 -398c195 -119 524 -225 524 -495c0 -259 -179 -389 -439 -389c-146 0 -282 37 -367 102l71 149c75 -43 170 -86 280 -86c130 0 219 78 219 208c0 151 -151 223 -249 280c-91 53 -249 122 -249 214
c0 88 99 142 155 182c70 50 154 115 154 231c0 136 -126 188 -262 188c-198 0 -278 -150 -278 -346v-1096h-218v1116c0 313 186 483 500 483z" />
    <glyph glyph-name="agrave" unicode="&#xe0;" 
d="M441.5 1689l283 -437h-139l-380 437h236zM536 -25c-199 0 -359 106 -359 305c0 272 261 303 553 303h146v173c0 167 -89 242 -240 242c-139 0 -271 -37 -364 -84l-44 141c121 51 266 75 427 75c228 0 403 -96 403 -339v-791h-159l-24 84c-86 -51 -220 -109 -339 -109z
M542 108c122 0 240 42 334 79v281h-149c-158.807 0 -372 -7.61719 -372 -179c0 -111.547 71.4648 -181 187 -181z" />
    <glyph glyph-name="aacute" unicode="&#xe1;" 
d="M584 1252l261 437h232l-351 -437h-142zM536 -25c-199 0 -359 106 -359 305c0 272 261 303 553 303h146v173c0 167 -89 242 -240 242c-139 0 -271 -37 -364 -84l-44 141c121 51 266 75 427 75c228 0 403 -96 403 -339v-791h-159l-24 84c-86 -51 -220 -109 -339 -109z
M542 108c122 0 240 42 334 79v281h-149c-158.807 0 -372 -7.61719 -372 -179c0 -111.547 71.4648 -181 187 -181z" />
    <glyph glyph-name="acircumflex" unicode="&#xe2;" 
d="M738.5 1601l259 -349h-143l-204 235l-202 -235h-136l259 349h167zM536 -25c-199 0 -359 106 -359 305c0 272 261 303 553 303h146v173c0 167 -89 242 -240 242c-139 0 -271 -37 -364 -84l-44 141c121 51 266 75 427 75c228 0 403 -96 403 -339v-791h-159l-24 84
c-86 -51 -220 -109 -339 -109zM542 108c122 0 240 42 334 79v281h-149c-158.807 0 -372 -7.61719 -372 -179c0 -111.547 71.4648 -181 187 -181z" />
    <glyph glyph-name="atilde" unicode="&#xe3;" 
d="M1046.5 1499c-7 -139 -76 -247 -223 -247c-142 0 -192 116 -331 116c-63 0 -90 -43 -92 -102h-137c3 148 82 245 234 245c145 0 189 -117 330 -117c58 0 77 51 81 105h138zM536 -25c-199 0 -359 106 -359 305c0 272 261 303 553 303h146v173c0 167 -89 242 -240 242
c-139 0 -271 -37 -364 -84l-44 141c121 51 266 75 427 75c228 0 403 -96 403 -339v-791h-159l-24 84c-86 -51 -220 -109 -339 -109zM542 108c122 0 240 42 334 79v281h-149c-158.807 0 -372 -7.61719 -372 -179c0 -111.547 71.4648 -181 187 -181z" />
    <glyph glyph-name="adieresis" unicode="&#xe4;" 
d="M341 1432c64 0 125 4 184 10c0 -61 4 -120 11 -179c-63 0 -124 -4 -184 -11c0 61 -4 121 -11 180zM776 1263c5 58 9 117 9 179c59 -6 120 -10 184 -10c-8 -57 -12 -117 -12 -180c-61 7 -121 11 -181 11zM536 -25c-199 0 -359 106 -359 305c0 272 261 303 553 303h146v173
c0 167 -89 242 -240 242c-139 0 -271 -37 -364 -84l-44 141c121 51 266 75 427 75c228 0 403 -96 403 -339v-791h-159l-24 84c-86 -51 -220 -109 -339 -109zM542 108c122 0 240 42 334 79v281h-149c-158.807 0 -372 -7.61719 -372 -179c0 -111.547 71.4648 -181 187 -181z
" />
    <glyph glyph-name="aring" unicode="&#xe5;" 
d="M667.5 1573c-75 0 -135 -39 -135 -114c0 -61 44 -114 106 -114c76 0 140 39 140 116c0 60 -50 112 -111 112zM887.5 1460c0 -122 -108 -208 -230 -208c-127 0 -235 82 -235 208s107 206 234 206c124 0 231 -82 231 -206zM536 -25c-199 0 -359 106 -359 305
c0 272 261 303 553 303h146v173c0 167 -89 242 -240 242c-139 0 -271 -37 -364 -84l-44 141c121 51 266 75 427 75c228 0 403 -96 403 -339v-791h-159l-24 84c-86 -51 -220 -109 -339 -109zM542 108c122 0 240 42 334 79v281h-149c-158.807 0 -372 -7.61719 -372 -179
c0 -111.547 71.4648 -181 187 -181z" />
    <glyph glyph-name="ae" unicode="&#xe6;" 
d="M1148 98c-71 -76 -156 -123 -283 -123c-88 0 -159 44 -212 119c-96 -56 -206 -119 -331 -119c-150 0 -267 117 -267 305c0 282 217 314 467 314h15v192c0 126 -54 183 -168 183c-83 0 -164 -24 -224 -75l-44 159c76 52 177 77 277 77c119 0 217 -42 266 -142
c60 91 142 142 236 142c190 0 290 -250 290 -549l-1 -61h-466c8 -218 62 -391 175 -391c85 0 144 42 190 93zM350 129c100 0 168 40 243 81c-26 70 -42 152 -50 242h-44c-112 0 -267 -7 -267 -155c0 -103 33 -168 118 -168zM1026 653c-9 168 -43 324 -146 324
c-111 0 -162 -153 -171 -324h317z" />
    <glyph glyph-name="ccedilla" unicode="&#xe7;" 
d="M788 -290.1c0 62 -59 78 -122 78c-28 0 -48 -3 -75 -5l35 207h108l-20 -117l9 1c121 0 222 -42 222 -163c0 -135 -136 -168 -271 -168c-69 0 -130 11 -189 23l9 92c51 -12 108 -26 167 -26c64 0 127 14 127 78zM330 557c0 -265.62 111 -442 364 -442c125 0 226 38 304 95
l69 -125c-95 -71 -224 -110 -387 -110c-357 0 -562 226 -562 581c0 347 213 574 562 574c158 0 289 -39 387 -110l-69 -147c-80 70.6885 -181 117 -307 117c-250 0 -361 -172.359 -361 -433z" />
    <glyph glyph-name="egrave" unicode="&#xe8;" 
d="M420.5 1689l283 -437h-139l-380 437h236zM870 653c-9.74219 168.04 -60.0615 337 -236 337c-197.945 0 -280.683 -159.224 -301 -337h537zM619 -25c-322.171 0 -476 258.098 -476 580c0 321.665 181.308 575 491 575c289.983 0 410 -258.125 410 -549l-1 -61h-716
c9.04688 -211.692 89.4941 -405 305 -405c121.333 0 224.667 44.667 310 134l80 -124c-103.236 -93.1641 -214.664 -150 -403 -150z" />
    <glyph glyph-name="eacute" unicode="&#xe9;" 
d="M563 1252l261 437h232l-351 -437h-142zM870 653c-9.74219 168.04 -60.0615 337 -236 337c-197.945 0 -280.683 -159.224 -301 -337h537zM619 -25c-322.171 0 -476 258.098 -476 580c0 321.665 181.308 575 491 575c289.983 0 410 -258.125 410 -549l-1 -61h-716
c9.04688 -211.692 89.4941 -405 305 -405c121.333 0 224.667 44.667 310 134l80 -124c-103.236 -93.1641 -214.664 -150 -403 -150z" />
    <glyph glyph-name="ecircumflex" unicode="&#xea;" 
d="M717.5 1601l259 -349h-143l-204 235l-202 -235h-136l259 349h167zM870 653c-9.74219 168.04 -60.0615 337 -236 337c-197.945 0 -280.683 -159.224 -301 -337h537zM619 -25c-322.171 0 -476 258.098 -476 580c0 321.665 181.308 575 491 575
c289.983 0 410 -258.125 410 -549l-1 -61h-716c9.04688 -211.692 89.4941 -405 305 -405c121.333 0 224.667 44.667 310 134l80 -124c-103.236 -93.1641 -214.664 -150 -403 -150z" />
    <glyph glyph-name="edieresis" unicode="&#xeb;" 
d="M320 1432c64 0 125 4 184 10c0 -61 4 -120 11 -179c-63 0 -124 -4 -184 -11c0 61 -4 121 -11 180zM755 1263c5 58 9 117 9 179c59 -6 120 -10 184 -10c-8 -57 -12 -117 -12 -180c-61 7 -121 11 -181 11zM870 653c-9.74219 168.04 -60.0615 337 -236 337
c-197.945 0 -280.683 -159.224 -301 -337h537zM619 -25c-322.171 0 -476 258.098 -476 580c0 321.665 181.308 575 491 575c289.983 0 410 -258.125 410 -549l-1 -61h-716c9.04688 -211.692 89.4941 -405 305 -405c121.333 0 224.667 44.667 310 134l80 -124
c-103.236 -93.1641 -214.664 -150 -403 -150z" />
    <glyph glyph-name="igrave" unicode="&#xec;" 
d="M483.5 1689l283 -437h-139l-380 437h236zM266 953v144h522v-953h397v-144h-988v144h409v809h-340z" />
    <glyph glyph-name="iacute" unicode="&#xed;" 
d="M626 1252l261 437h232l-351 -437h-142zM266 953v144h522v-953h397v-144h-988v144h409v809h-340z" />
    <glyph glyph-name="icircumflex" unicode="&#xee;" 
d="M780.5 1601l259 -349h-143l-204 235l-202 -235h-136l259 349h167zM266 953v144h522v-953h397v-144h-988v144h409v809h-340z" />
    <glyph glyph-name="idieresis" unicode="&#xef;" 
d="M383 1432c64 0 125 4 184 10c0 -61 4 -120 11 -179c-63 0 -124 -4 -184 -11c0 61 -4 121 -11 180zM818 1263c5 58 9 117 9 179c59 -6 120 -10 184 -10c-8 -57 -12 -117 -12 -180c-61 7 -121 11 -181 11zM266 953v144h522v-953h397v-144h-988v144h409v809h-340z" />
    <glyph glyph-name="eth" unicode="&#xf0;" 
d="M1247 743c0 -422 -142 -768 -566 -768c-340 0 -546 226 -546 509l1 1c0 302 202 490 505 490c196 0 335 -67 413 -189c0 123 -11 229 -40 329h-290v149h227c-64 115 -162 200 -278 263l87 92c172 -65 299 -197 377 -355h218v-149h-162c36 -111 54 -232 54 -372zM673 129
c258 0 367 198 367 454c0 154 -228 239 -378 239c-211 0 -331 -133 -331 -342c0 -206 134 -351 342 -351z" />
    <glyph glyph-name="ntilde" unicode="&#xf1;" 
d="M1028 1499c-7 -139 -76 -247 -223 -247c-142 0 -192 116 -331 116c-63 0 -90 -43 -92 -102h-137c3 148 82 245 234 245c145 0 189 -117 330 -117c58 0 77 51 81 105h138zM715 1130c253 0 341 -175 341 -432v-698h-182v640c0 177.479 6 350 -223 350
c-138.371 0 -252 -101.816 -252 -258v-732h-182v1097h167l10 -139c63.4531 88 153.968 172 321 172z" />
    <glyph glyph-name="ograve" unicode="&#xf2;" 
d="M398.5 1689l283 -437h-139l-380 437h236zM612 1130c329 0 498 -247 498 -572c0 -348 -200 -583 -498 -583c-323 0 -494 257 -494 576c0 346 198 579 494 579zM302 550c0 -213.563 82 -435 310 -435c235 0 316 220.476 316 438c0 216.532 -80 437 -316 437
c-228 0 -310 -226.398 -310 -440z" />
    <glyph glyph-name="oacute" unicode="&#xf3;" 
d="M541 1252l261 437h232l-351 -437h-142zM612 1130c329 0 498 -247 498 -572c0 -348 -200 -583 -498 -583c-323 0 -494 257 -494 576c0 346 198 579 494 579zM302 550c0 -213.563 82 -435 310 -435c235 0 316 220.476 316 438c0 216.532 -80 437 -316 437
c-228 0 -310 -226.398 -310 -440z" />
    <glyph glyph-name="ocircumflex" unicode="&#xf4;" 
d="M695.5 1601l259 -349h-143l-204 235l-202 -235h-136l259 349h167zM612 1130c329 0 498 -247 498 -572c0 -348 -200 -583 -498 -583c-323 0 -494 257 -494 576c0 346 198 579 494 579zM302 550c0 -213.563 82 -435 310 -435c235 0 316 220.476 316 438
c0 216.532 -80 437 -316 437c-228 0 -310 -226.398 -310 -440z" />
    <glyph glyph-name="otilde" unicode="&#xf5;" 
d="M1003.5 1499c-7 -139 -76 -247 -223 -247c-142 0 -192 116 -331 116c-63 0 -90 -43 -92 -102h-137c3 148 82 245 234 245c145 0 189 -117 330 -117c58 0 77 51 81 105h138zM612 1130c329 0 498 -247 498 -572c0 -348 -200 -583 -498 -583c-323 0 -494 257 -494 576
c0 346 198 579 494 579zM302 550c0 -213.563 82 -435 310 -435c235 0 316 220.476 316 438c0 216.532 -80 437 -316 437c-228 0 -310 -226.398 -310 -440z" />
    <glyph glyph-name="odieresis" unicode="&#xf6;" 
d="M298 1432c64 0 125 4 184 10c0 -61 4 -120 11 -179c-63 0 -124 -4 -184 -11c0 61 -4 121 -11 180zM733 1263c5 58 9 117 9 179c59 -6 120 -10 184 -10c-8 -57 -12 -117 -12 -180c-61 7 -121 11 -181 11zM612 1130c329 0 498 -247 498 -572c0 -348 -200 -583 -498 -583
c-323 0 -494 257 -494 576c0 346 198 579 494 579zM302 550c0 -213.563 82 -435 310 -435c235 0 316 220.476 316 438c0 216.532 -80 437 -316 437c-228 0 -310 -226.398 -310 -440z" />
    <glyph glyph-name="divide" unicode="&#xf7;" 
d="M152 677h1159v-151h-1159v151zM619 22v229h239v-229h-239zM619 948v227h239v-227h-239z" />
    <glyph glyph-name="oslash" unicode="&#xf8;" 
d="M322 -283l-112 41l710 1628l112 -35zM615 1130c329 0 495 -247 495 -572c0 -348 -205 -583 -503 -583c-323 0 -489 257 -489 576c0 346 201 579 497 579zM301 550c0 -207 84 -421 312 -421c235 0 314 213 314 424c0 210 -78 424 -314 424c-228 0 -312 -220 -312 -427z
" />
    <glyph glyph-name="ugrave" unicode="&#xf9;" 
d="M400.5 1689l283 -437h-139l-380 437h236zM614 -25c-266 0 -424 164 -424 429v693h182v-709c0 -157.083 75 -273 242 -273s242 115.917 242 273v709h182v-693c0 -265 -158 -429 -424 -429z" />
    <glyph glyph-name="uacute" unicode="&#xfa;" 
d="M543 1252l261 437h232l-351 -437h-142zM614 -25c-266 0 -424 164 -424 429v693h182v-709c0 -157.083 75 -273 242 -273s242 115.917 242 273v709h182v-693c0 -265 -158 -429 -424 -429z" />
    <glyph glyph-name="ucircumflex" unicode="&#xfb;" 
d="M697.5 1601l259 -349h-143l-204 235l-202 -235h-136l259 349h167zM614 -25c-266 0 -424 164 -424 429v693h182v-709c0 -157.083 75 -273 242 -273s242 115.917 242 273v709h182v-693c0 -265 -158 -429 -424 -429z" />
    <glyph glyph-name="udieresis" unicode="&#xfc;" 
d="M300 1432c64 0 125 4 184 10c0 -61 4 -120 11 -179c-63 0 -124 -4 -184 -11c0 61 -4 121 -11 180zM735 1263c5 58 9 117 9 179c59 -6 120 -10 184 -10c-8 -57 -12 -117 -12 -180c-61 7 -121 11 -181 11zM614 -25c-266 0 -424 164 -424 429v693h182v-709
c0 -157.083 75 -273 242 -273s242 115.917 242 273v709h182v-693c0 -265 -158 -429 -424 -429z" />
    <glyph glyph-name="yacute" unicode="&#xfd;" 
d="M568 1252l261 437h232l-351 -437h-142zM652 205l331 892h201s-341 -843 -431 -1081v1c-10 -21 -16 -51 -23 -75c-72 -254 -284 -336 -570 -365v156c211 22 377 60 389 291c-312 717 -455 1073 -455 1073h218z" />
    <glyph glyph-name="thorn" unicode="&#xfe;" 
d="M342 957c83 108 203 184 381 184c340 0 523 -233 523 -569h-1c0 -357 -216 -597 -517 -597c-175 0 -302 69 -387 171v-610h-183v2044h184v-623zM1048 565c0 251 -95 431 -349 431c-265 0 -359 -198 -359 -460c0 -237 115 -418 355 -418c246 0 353 203 353 447z" />
    <glyph glyph-name="ydieresis" unicode="&#xff;" 
d="M325 1432c64 0 125 4 184 10c0 -61 4 -120 11 -179c-63 0 -124 -4 -184 -11c0 61 -4 121 -11 180zM760 1263c5 58 9 117 9 179c59 -6 120 -10 184 -10c-8 -57 -12 -117 -12 -180c-61 7 -121 11 -181 11zM652 205l331 892h201s-341 -843 -431 -1081v1
c-10 -21 -16 -51 -23 -75c-72 -254 -284 -336 -570 -365v156c211 22 377 60 389 291c-312 717 -455 1073 -455 1073h218z" />
    <glyph glyph-name="Amacron" unicode="&#x100;" 
d="M140.5 1638v140h947v-140h-947zM728 1491l461 -1491h-205l-151 473h-439l-150 -473h-204l460 1491h228zM433 636h362l-178 590z" />
    <glyph glyph-name="amacron" unicode="&#x101;" 
d="M181.5 1252v140h947v-140h-947zM536 -25c-199 0 -359 106 -359 305c0 272 261 303 553 303h146v173c0 167 -89 242 -240 242c-139 0 -271 -37 -364 -84l-44 141c121 51 266 75 427 75c228 0 403 -96 403 -339v-791h-159l-24 84c-86 -51 -220 -109 -339 -109zM542 108
c122 0 240 42 334 79v281h-149c-158.807 0 -372 -7.61719 -372 -179c0 -111.547 71.4648 -181 187 -181z" />
    <glyph glyph-name="Abreve" unicode="&#x102;" 
d="M398.5 1894c18 -97 95 -141 209 -141s199 50 223 141h97c-12 -170 -128 -256 -311 -256c-188 0 -300 82 -316 256h98zM728 1491l461 -1491h-205l-151 473h-439l-150 -473h-204l460 1491h228zM433 636h362l-178 590z" />
    <glyph glyph-name="abreve" unicode="&#x103;" 
d="M439.5 1508c18 -97 95 -141 209 -141s199 50 223 141h97c-12 -170 -128 -256 -311 -256c-188 0 -300 82 -316 256h98zM536 -25c-199 0 -359 106 -359 305c0 272 261 303 553 303h146v173c0 167 -89 242 -240 242c-139 0 -271 -37 -364 -84l-44 141c121 51 266 75 427 75
c228 0 403 -96 403 -339v-791h-159l-24 84c-86 -51 -220 -109 -339 -109zM542 108c122 0 240 42 334 79v281h-149c-158.807 0 -372 -7.61719 -372 -179c0 -111.547 71.4648 -181 187 -181z" />
    <glyph glyph-name="Aogonek" unicode="&#x104;" 
d="M375.5 -242.434c0 140 141 211 239 257l142 -13c-87 -50 -226 -120 -226 -212c0 -68 62 -94 130 -94c57 0 107 18 151 35v-121c-51 -21 -106 -32 -163 -32c-141 0 -273 39 -273 180zM728 1491l461 -1491h-205l-151 473h-439l-150 -473h-204l460 1491h228zM433 636h362
l-178 590z" />
    <glyph glyph-name="aogonek" unicode="&#x105;" 
d="M657 -267.434c0 140 141 211 239 257l142 -13c-87 -50 -226 -120 -226 -212c0 -68 62 -94 130 -94c57 0 107 18 151 35v-121c-51 -21 -106 -32 -163 -32c-141 0 -273 39 -273 180zM536 -25c-199 0 -359 106 -359 305c0 272 261 303 553 303h146v173
c0 167 -89 242 -240 242c-139 0 -271 -37 -364 -84l-44 141c121 51 266 75 427 75c228 0 403 -96 403 -339v-791h-159l-24 84c-86 -51 -220 -109 -339 -109zM542 108c122 0 240 42 334 79v281h-149c-158.807 0 -372 -7.61719 -372 -179c0 -111.547 71.4648 -181 187 -181z
" />
    <glyph glyph-name="Cacute" unicode="&#x106;" 
d="M668 1638l261 437h232l-351 -437h-142zM1159 1389l-70 -131c-81 59 -189 105 -330 105c-311 0 -434 -289 -434 -615c0 -342 139 -618 433 -618c141 0 256 55 333 114l69 -141c-101 -83 -245 -128 -421 -128c-397 0 -610 342 -610 775c0 453 241 766 610 766
c176 0 319 -45 420 -127z" />
    <glyph glyph-name="cacute" unicode="&#x107;" 
d="M609 1252l261 437h232l-351 -437h-142zM330 557c0 -265.62 111 -442 364 -442c125 0 226 38 304 95l69 -125c-95 -71 -224 -110 -387 -110c-357 0 -562 226 -562 581c0 347 213 574 562 574c158 0 289 -39 387 -110l-69 -147c-80 70.6885 -181 117 -307 117
c-250 0 -361 -172.359 -361 -433z" />
    <glyph glyph-name="Ccaron" unicode="&#x10c;" 
d="M545 1986l188 -235l190 235h171l-273 -348h-165l-272 348h161zM1159 1389l-70 -131c-81 59 -189 105 -330 105c-311 0 -434 -289 -434 -615c0 -342 139 -618 433 -618c141 0 256 55 333 114l69 -141c-101 -83 -245 -128 -421 -128c-397 0 -610 342 -610 775
c0 453 241 766 610 766c176 0 319 -45 420 -127z" />
    <glyph glyph-name="ccaron" unicode="&#x10d;" 
d="M486 1600l188 -235l190 235h171l-273 -348h-165l-272 348h161zM330 557c0 -265.62 111 -442 364 -442c125 0 226 38 304 95l69 -125c-95 -71 -224 -110 -387 -110c-357 0 -562 226 -562 581c0 347 213 574 562 574c158 0 289 -39 387 -110l-69 -147
c-80 70.6885 -181 117 -307 117c-250 0 -361 -172.359 -361 -433z" />
    <glyph glyph-name="Emacron" unicode="&#x112;" 
d="M189 1638v140h947v-140h-947zM404 684v-538h737l-15 -146h-909v1491h891l-16 -146h-688v-502h655v-159h-655z" />
    <glyph glyph-name="emacron" unicode="&#x113;" 
d="M160.5 1252v140h947v-140h-947zM870 653c-9.74219 168.04 -60.0615 337 -236 337c-197.945 0 -280.683 -159.224 -301 -337h537zM619 -25c-322.171 0 -476 258.098 -476 580c0 321.665 181.308 575 491 575c289.983 0 410 -258.125 410 -549l-1 -61h-716
c9.04688 -211.692 89.4941 -405 305 -405c121.333 0 224.667 44.667 310 134l80 -124c-103.236 -93.1641 -214.664 -150 -403 -150z" />
    <glyph glyph-name="Eogonek" unicode="&#x118;" 
d="M432.5 -242.434c0 140 141 211 239 257l142 -13c-87 -50 -226 -120 -226 -212c0 -68 62 -94 130 -94c57 0 107 18 151 35v-121c-51 -21 -106 -32 -163 -32c-141 0 -273 39 -273 180zM404 684v-538h737l-15 -146h-909v1491h891l-16 -146h-688v-502h655v-159h-655z" />
    <glyph glyph-name="eogonek" unicode="&#x119;" 
d="M309 -267.434c0 140 141 211 239 257l142 -13c-87 -50 -226 -120 -226 -212c0 -68 62 -94 130 -94c57 0 107 18 151 35v-121c-51 -21 -106 -32 -163 -32c-141 0 -273 39 -273 180zM870 653c-9.74219 168.04 -60.0615 337 -236 337
c-197.945 0 -280.683 -159.224 -301 -337h537zM619 -25c-322.171 0 -476 258.098 -476 580c0 321.665 181.308 575 491 575c289.983 0 410 -258.125 410 -549l-1 -61h-716c9.04688 -211.692 89.4941 -405 305 -405c121.333 0 224.667 44.667 310 134l80 -124
c-103.236 -93.1641 -214.664 -150 -403 -150z" />
    <glyph glyph-name="Gcommaaccent" unicode="&#x122;" 
 />
    <glyph glyph-name="gcommaaccent" unicode="&#x123;" 
d="M592 969c-235 0 -298 -192 -298 -419c0 -190 79 -388 290 -388c234 0 307 199 307 394c0 217 -63 413 -299 413zM891 210c-42 -107 -169 -210 -323 -210c-307 0 -457 253 -457 556c0 324 148 574 461 574c145 0 250 -69 319 -182l6 149h185c-8 -218 -9 -427 -9 -651v-294
c0 -469 -240 -593 -763 -593v167c287 0 510 -1 565 236c11 47 16 106 16 175v73zM429 1249l181 503h146l-119 -503h-208z" />
    <glyph glyph-name="hbar" unicode="&#x127;" 
d="M986 645c0 184 -47 325 -233 325c-166 0 -353 -146 -353 -245v-725h-213v1284h-183v146h183v184h213v-184h238v-146h-238v-333c82 111 208 183 389 183c289 0 408 -186 408 -472v-662h-211v645z" />
    <glyph glyph-name="Itilde" unicode="&#x128;" 
d="M1006 1885c-7 -139 -76 -247 -223 -247c-142 0 -192 116 -331 116c-63 0 -90 -43 -92 -102h-137c3 148 82 245 234 245c145 0 189 -117 330 -117c58 0 77 51 81 105h138zM194 1345v146h841v-146h-331v-1199h331v-146h-841v146h323v1199h-323z" />
    <glyph glyph-name="itilde" unicode="&#x129;" 
d="M1088.5 1499c-7 -139 -76 -247 -223 -247c-142 0 -192 116 -331 116c-63 0 -90 -43 -92 -102h-137c3 148 82 245 234 245c145 0 189 -117 330 -117c58 0 77 51 81 105h138zM266 953v144h522v-953h397v-144h-988v144h409v809h-340z" />
    <glyph glyph-name="Imacron" unicode="&#x12a;" 
d="M141 1638v140h947v-140h-947zM194 1345v146h841v-146h-331v-1199h331v-146h-841v146h323v1199h-323z" />
    <glyph glyph-name="imacron" unicode="&#x12b;" 
d="M223.5 1252v140h947v-140h-947zM266 953v144h522v-953h397v-144h-988v144h409v809h-340z" />
    <glyph glyph-name="Iogonek" unicode="&#x12e;" 
d="M304.5 -242.434c0 140 141 211 239 257l142 -13c-87 -50 -226 -120 -226 -212c0 -68 62 -94 130 -94c57 0 107 18 151 35v-121c-51 -21 -106 -32 -163 -32c-141 0 -273 39 -273 180zM194 1345v146h841v-146h-331v-1199h331v-146h-841v146h323v1199h-323z" />
    <glyph glyph-name="iogonek" unicode="&#x12f;" 
d="M381 -242.434c0 140 141 211 239 257l142 -13c-87 -50 -226 -120 -226 -212c0 -68 62 -94 130 -94c57 0 107 18 151 35v-121c-51 -21 -106 -32 -163 -32c-141 0 -273 39 -273 180zM266 957v140h522v-957h397v-140h-988v140h409v817h-340zM576 1386v99
c0 50.2324 70.7676 91 121 91s121 -40.7676 121 -91v-99c0 -50.2324 -70.7676 -91 -121 -91s-121 40.7676 -121 91z" />
    <glyph glyph-name="dotlessi" unicode="&#x131;" 
d="M266 953v144h522v-953h397v-144h-988v144h409v809h-340z" />
    <glyph glyph-name="IJ" unicode="&#x132;" 
d="M194 1328v163h841v-163h-331v-1165h331v-163h-841v163h323v1165h-323zM1366 134h213c175 0 224 78 224 257v937h-345v163h831v-163h-299v-885c0 -322 -88 -469 -390 -469h-234v160z" />
    <glyph glyph-name="ij" unicode="&#x133;" 
d="M266 953v144h522v-953h397v-144h-988v144h409v809h-340zM606 1369v199h182v-199h-182zM1639 -155c186 0 211 35 211 282v826h-485v144h667v-914c0 -326 -17 -496 -392 -496h-276v158h275zM1852 1370v199h180v-199h-180z" />
    <glyph glyph-name="Jcircumflex" unicode="&#x134;" 
d="M137 134h213c175 0 224 78 224 257v937h-345v163h831v-163h-299v-885c0 -322 -88 -469 -390 -469h-234v160zM682 2009l259 -349h-143l-204 235l-202 -235h-136l259 349h167z" />
    <glyph glyph-name="jcircumflex" unicode="&#x135;" 
d="M410 -155c186 0 211 35 211 282v826h-485v144h667v-914c0 -326 -17 -496 -392 -496h-276v158h275zM553 1615l259 -349h-143l-204 235l-202 -235h-136l259 349h167z" />
    <glyph glyph-name="kcommaaccent" unicode="&#x137;" 
d="M397 648l489 449h240l-487 -456l496 -641h-228l-398 546l-112 -95v-451h-182v1585h182v-937zM839 -152l-181 -503h-146l119 503h208z" />
    <glyph glyph-name="kgreenlandic" unicode="&#x138;" 
d="M398 604l516 509h250l-588 -558l628 -555h-242l-565 511v-511h-182v1114h183v-510z" />
    <glyph glyph-name="Ldot" unicode="&#x13f;" 
 />
    <glyph glyph-name="ldot" unicode="&#x140;" 
d="M195 1433v152h593v-1441h471v-144h-1134v144h481v1289h-411zM1716 557v228h241v-228h-241z" />
    <glyph glyph-name="Lslash" unicode="&#x141;" 
d="M11 531v149l819 400v-149zM420 163h709v-163h-896v1491h187v-1328z" />
    <glyph glyph-name="lslash" unicode="&#x142;" 
d="M305 531v149l819 400v-149zM195 1433v152h593v-1441h471v-144h-1134v144h481v1289h-411z" />
    <glyph glyph-name="Nacute" unicode="&#x143;" 
d="M543 1638l261 437h232l-351 -437h-142zM1078 0h-220l-538 1206v-1206h-170v1491h215l546 -1202v1202h167v-1491z" />
    <glyph glyph-name="nacute" unicode="&#x144;" 
d="M565.5 1252l261 437h232l-351 -437h-142zM715 1130c253 0 341 -175 341 -432v-698h-182v640c0 177.479 6 350 -223 350c-138.371 0 -252 -101.816 -252 -258v-732h-182v1097h167l10 -139c63.4531 88 153.968 172 321 172z" />
    <glyph glyph-name="OE" unicode="&#x152;" 
d="M806 717v-546h327l-17 -171h-577c-392 0 -519 393 -519 789c0 421 160 779 519 779h558l-16 -171h-275v-508h241v-172h-241zM243 791c0 -300 60 -631 296 -631h44v1229h-44c-256 0 -296 -333 -296 -598z" />
    <glyph glyph-name="oe" unicode="&#x153;" 
d="M253 550c0 -207 43 -421 172 -421c122 0 164 208 164 430c0 210 -46 418 -164 418c-129 0 -172 -220 -172 -427zM1148 98c-68 -76 -150 -123 -273 -123c-101 0 -174 69 -221 181c-55 -115 -137 -181 -235 -181c-227 0 -349 257 -349 576c0 346 145 579 357 579
c104 0 182 -68 234 -179c53 114 132 179 229 179c183 0 280 -250 280 -549l-1 -61h-436c8 -218 54 -391 155 -391c81 0 136 42 180 93zM1026 653c-5 168 -40 324 -136 324c-98 0 -143 -153 -151 -324h287z" />
    <glyph glyph-name="Racute" unicode="&#x154;" 
d="M260 1638l261 437h232l-351 -437h-142zM1115 1093c0 -220 -142 -344 -331 -386c185 -173 283 -463 394 -707l-217 -1c-106 230 -188 481 -350 654c-47 8 -97 9 -151 9h-87v-662h-187v1491h290c345 0 639 -52 639 -398zM517 824c211 0 390 57 390 267
c0 188 -157 254 -344 254h-190v-521h144z" />
    <glyph glyph-name="Rcommaaccent" unicode="&#x156;" 
d="M1124 -123l-181 -502h-145l118 502h208zM1115 1093c0 -220 -142 -344 -331 -386c185 -173 283 -463 394 -707l-217 -1c-106 230 -188 481 -350 654c-47 8 -97 9 -151 9h-87v-662h-187v1491h290c345 0 639 -52 639 -398zM517 824c211 0 390 57 390 267
c0 188 -157 254 -344 254h-190v-521h144z" />
    <glyph glyph-name="rcommaaccent" unicode="&#x157;" 
d="M758.5 -122l-181 -502h-145l118 502h208zM1026 961c-224 0 -364 -108 -364 -351v-470h389v-140h-911v140h340v817h-224v140h373l15 -203c91 157 227 236 408 236h137v-169h-163z" />
    <glyph glyph-name="Rcaron" unicode="&#x158;" 
d="M137 1986l188 -235l190 235h171l-273 -348h-165l-272 348h161zM1115 1093c0 -220 -142 -344 -331 -386c185 -173 283 -463 394 -707l-217 -1c-106 230 -188 481 -350 654c-47 8 -97 9 -151 9h-87v-662h-187v1491h290c345 0 639 -52 639 -398zM517 824
c211 0 390 57 390 267c0 188 -157 254 -344 254h-190v-521h144z" />
    <glyph glyph-name="rcaron" unicode="&#x159;" 
d="M470.5 1600l188 -235l190 235h171l-273 -348h-165l-272 348h161zM1026 961c-224 0 -364 -108 -364 -351v-470h389v-140h-911v140h340v817h-224v140h373l15 -203c91 157 227 236 408 236h137v-169h-163z" />
    <glyph glyph-name="Sacute" unicode="&#x15a;" 
d="M533 1639l261 437h232l-351 -437h-142zM212 261c93 -76 225 -131 381 -131c162 0 250 108 250 274c0 201 -203 253 -347 314c-172 72 -346 161 -346 405c0 257 197 394 454 394c167 0 298 -36 393 -111l-70 -144c-77 60 -187 100.8 -313 100.8
c-157 0 -257 -90.7998 -257 -241.8c0 -183 220 -231 349 -288c172 -76 348 -175 348 -418c0 -293 -184 -440 -465 -440c-181 0 -331 41 -448 119z" />
    <glyph glyph-name="sacute" unicode="&#x15b;" 
d="M557 1252l261 437h232l-351 -437h-142zM621 136c139 0 263 29 263 168c0 143 -217 162 -334 192c-169 43 -334 111 -334 323c0 215 198 311 412 311c156 0 290 -17 403 -69l-58 -147c-92 51.127 -214 76 -336 76c-107 0 -210 -41.25 -210 -165c0 -147 214 -163 334 -195
c166 -44 334 -102 334 -311c0 -242 -218 -344 -459 -344c-172 0 -332 28 -433 101l58 155c92 -65 214 -95 360 -95z" />
    <glyph glyph-name="Scaron" unicode="&#x160;" 
d="M410 1987l188 -235l190 235h171l-273 -348h-165l-272 348h161zM212 261c93 -76 225 -131 381 -131c162 0 250 108 250 274c0 201 -203 253 -347 314c-172 72 -346 161 -346 405c0 257 197 394 454 394c167 0 298 -36 393 -111l-70 -144c-77 60 -187 100.8 -313 100.8
c-157 0 -257 -90.7998 -257 -241.8c0 -183 220 -231 349 -288c172 -76 348 -175 348 -418c0 -293 -184 -440 -465 -440c-181 0 -331 41 -448 119z" />
    <glyph glyph-name="scaron" unicode="&#x161;" 
d="M434 1600l188 -235l190 235h171l-273 -348h-165l-272 348h161zM621 136c139 0 263 29 263 168c0 143 -217 162 -334 192c-169 43 -334 111 -334 323c0 215 198 311 412 311c156 0 290 -17 403 -69l-58 -147c-92 51.127 -214 76 -336 76c-107 0 -210 -41.25 -210 -165
c0 -147 214 -163 334 -195c166 -44 334 -102 334 -311c0 -242 -218 -344 -459 -344c-172 0 -332 28 -433 101l58 155c92 -65 214 -95 360 -95z" />
    <glyph glyph-name="Tcommaaccent" unicode="&#x162;" 
d="M719.5 -265.1c0 62 -59 78 -122 78c-28 0 -48 -3 -75 -5l35 207h108l-20 -117l9 1c121 0 222 -42 222 -163c0 -135 -136 -168 -271 -168c-69 0 -130 11 -189 23l9 92c51 -12 108 -26 167 -26c64 0 127 14 127 78zM1199 1491v-146h-494v-1345h-187v1345h-488v146h1169z
" />
    <glyph glyph-name="tcommaaccent" unicode="&#x163;" 
d="M1200 -265.1c0 62 -59 78 -122 78c-28 0 -48 -3 -75 -5l35 207h108l-20 -117l9 1c121 0 222 -42 222 -163c0 -135 -136 -168 -271 -168c-69 0 -130 11 -189 23l9 92c51 -12 108 -26 167 -26c64 0 127 14 127 78zM681 957v-515c0 -232.143 93 -301.833 314 -301.833h187
v-140.167h-180c-393 0 -503 128 -503 498v459h-290v140h290v378l182 54v-432h490v-140h-490z" />
    <glyph glyph-name="Ydieresis" unicode="&#x178;" 
d="M300.5 1818c64 0 125 4 184 10c0 -61 4 -120 11 -179c-63 0 -124 -4 -184 -11c0 61 -4 121 -11 180zM735.5 1649c5 58 9 117 9 179c59 -6 120 -10 184 -10c-8 -57 -12 -117 -12 -180c-61 7 -121 11 -181 11zM715 0h-212v593l-454 898h226l335 -703l339 703h231l-465 -898
v-593z" />
    <glyph glyph-name="Zacute" unicode="&#x179;" 
d="M499.5 1638l261 437h232l-351 -437h-142zM343 146h652v-146h-893v143l647 1202h-612v146h867v-127z" />
    <glyph glyph-name="zacute" unicode="&#x17a;" 
d="M525.5 1252l261 437h232l-351 -437h-142zM213 1097h767v-138l-578 -818.833h615v-140.167h-824v142l559 815h-539v140z" />
    <glyph glyph-name="Zdotaccent" unicode="&#x17b;" 
d="M482 1815h177v-177h-177v177zM343 146h652v-146h-893v143l647 1202h-612v146h867v-127z" />
    <glyph glyph-name="zdotaccent" unicode="&#x17c;" 
d="M508 1429h177v-177h-177v177zM213 1097h767v-138l-578 -818.833h615v-140.167h-824v142l559 815h-539v140z" />
    <glyph glyph-name="Zcaron" unicode="&#x17d;" 
d="M376.5 1986l188 -235l190 235h171l-273 -348h-165l-272 348h161zM343 146h652v-146h-893v143l647 1202h-612v146h867v-127z" />
    <glyph glyph-name="zcaron" unicode="&#x17e;" 
d="M402.5 1600l188 -235l190 235h171l-273 -348h-165l-272 348h161zM213 1097h767v-138l-578 -818.833h615v-140.167h-824v142l559 815h-539v140z" />
    <glyph glyph-name="florin" unicode="&#x192;" 
d="M1238 1381c-34 13 -70 23 -114 23c-216 0 -204 -197 -237 -380h221l-10 -152h-236l-141 -742c-46 -226 -114 -490 -365 -490c-52 0 -99 5 -141 17l13 149c29 -11 59 -16 89 -16c131 0 161 138 191 247c71 259 111 559 164 835h-172l11 152h188c38 281 70 535 391 535
c59 0 109 -8 158 -20z" />
    <glyph glyph-name="uni0200" unicode="&#x200;" 
d="M598.5 1975l249 -337h-128l-312 337h191zM257.5 1975l253 -337h-130l-313 337h190zM728 1491l461 -1491h-205l-151 473h-439l-150 -473h-204l460 1491h228zM433 636h362l-178 590z" />
    <glyph glyph-name="uni0201" unicode="&#x201;" 
d="M639.5 1589l249 -337h-128l-312 337h191zM298.5 1589l253 -337h-130l-313 337h190zM536 -25c-199 0 -359 106 -359 305c0 272 261 303 553 303h146v173c0 167 -89 242 -240 242c-139 0 -271 -37 -364 -84l-44 141c121 51 266 75 427 75c228 0 403 -96 403 -339v-791h-159
l-24 84c-86 -51 -220 -109 -339 -109zM542 108c122 0 240 42 334 79v281h-149c-158.807 0 -372 -7.61719 -372 -179c0 -111.547 71.4648 -181 187 -181z" />
    <glyph glyph-name="uni0202" unicode="&#x202;" 
d="M830 1638c-23 91 -109 139 -222 139c-111 0 -191 -45 -209 -139h-98c16 174 128 256 316 256c180 0 298 -88 310 -256h-97zM728 1491l461 -1491h-205l-151 473h-439l-150 -473h-204l460 1491h228zM433 636h362l-178 590z" />
    <glyph glyph-name="uni0203" unicode="&#x203;" 
d="M871 1252c-23 91 -109 139 -222 139c-111 0 -191 -45 -209 -139h-98c16 174 128 256 316 256c180 0 298 -88 310 -256h-97zM536 -25c-199 0 -359 106 -359 305c0 272 261 303 553 303h146v173c0 167 -89 242 -240 242c-139 0 -271 -37 -364 -84l-44 141
c121 51 266 75 427 75c228 0 403 -96 403 -339v-791h-159l-24 84c-86 -51 -220 -109 -339 -109zM542 108c122 0 240 42 334 79v281h-149c-158.807 0 -372 -7.61719 -372 -179c0 -111.547 71.4648 -181 187 -181z" />
    <glyph glyph-name="uni0204" unicode="&#x204;" 
d="M647 1975l249 -337h-128l-312 337h191zM306 1975l253 -337h-130l-313 337h190zM404 684v-538h737l-15 -146h-909v1491h891l-16 -146h-688v-502h655v-159h-655z" />
    <glyph glyph-name="uni0205" unicode="&#x205;" 
d="M618.5 1589l249 -337h-128l-312 337h191zM277.5 1589l253 -337h-130l-313 337h190zM870 653c-9.74219 168.04 -60.0615 337 -236 337c-197.945 0 -280.683 -159.224 -301 -337h537zM619 -25c-322.171 0 -476 258.098 -476 580c0 321.665 181.308 575 491 575
c289.983 0 410 -258.125 410 -549l-1 -61h-716c9.04688 -211.692 89.4941 -405 305 -405c121.333 0 224.667 44.667 310 134l80 -124c-103.236 -93.1641 -214.664 -150 -403 -150z" />
    <glyph glyph-name="uni0206" unicode="&#x206;" 
d="M878.5 1638c-23 91 -109 139 -222 139c-111 0 -191 -45 -209 -139h-98c16 174 128 256 316 256c180 0 298 -88 310 -256h-97zM404 684v-538h737l-15 -146h-909v1491h891l-16 -146h-688v-502h655v-159h-655z" />
    <glyph glyph-name="uni0207" unicode="&#x207;" 
d="M850 1252c-23 91 -109 139 -222 139c-111 0 -191 -45 -209 -139h-98c16 174 128 256 316 256c180 0 298 -88 310 -256h-97zM870 653c-9.74219 168.04 -60.0615 337 -236 337c-197.945 0 -280.683 -159.224 -301 -337h537zM619 -25c-322.171 0 -476 258.098 -476 580
c0 321.665 181.308 575 491 575c289.983 0 410 -258.125 410 -549l-1 -61h-716c9.04688 -211.692 89.4941 -405 305 -405c121.333 0 224.667 44.667 310 134l80 -124c-103.236 -93.1641 -214.664 -150 -403 -150z" />
    <glyph glyph-name="uni0208" unicode="&#x208;" 
d="M599 1975l249 -337h-128l-312 337h191zM258 1975l253 -337h-130l-313 337h190zM194 1345v146h841v-146h-331v-1199h331v-146h-841v146h323v1199h-323z" />
    <glyph glyph-name="uni0209" unicode="&#x209;" 
d="M681.5 1589l249 -337h-128l-312 337h191zM340.5 1589l253 -337h-130l-313 337h190zM266 953v144h522v-953h397v-144h-988v144h409v809h-340z" />
    <glyph glyph-name="uni020A" unicode="&#x20a;" 
d="M830.5 1638c-23 91 -109 139 -222 139c-111 0 -191 -45 -209 -139h-98c16 174 128 256 316 256c180 0 298 -88 310 -256h-97zM194 1345v146h841v-146h-331v-1199h331v-146h-841v146h323v1199h-323z" />
    <glyph glyph-name="uni020B" unicode="&#x20b;" 
d="M913 1252c-23 91 -109 139 -222 139c-111 0 -191 -45 -209 -139h-98c16 174 128 256 316 256c180 0 298 -88 310 -256h-97zM266 953v144h522v-953h397v-144h-988v144h409v809h-340z" />
    <glyph glyph-name="uni020C" unicode="&#x20c;" 
d="M598.5 1975l249 -337h-128l-312 337h191zM257.5 1975l253 -337h-130l-313 337h190zM614 -25c-339 0 -491 362 -491 772c0 377 119 769 491 769s491 -392 491 -769c0 -410 -152 -772 -491 -772zM614 1363c-197 0 -295 -272 -295 -617s99 -616 295 -616s295 271 295 616
s-98 617 -295 617z" />
    <glyph glyph-name="uni020D" unicode="&#x20d;" 
d="M596.5 1589l249 -337h-128l-312 337h191zM255.5 1589l253 -337h-130l-313 337h190zM612 1130c329 0 498 -247 498 -572c0 -348 -200 -583 -498 -583c-323 0 -494 257 -494 576c0 346 198 579 494 579zM302 550c0 -213.563 82 -435 310 -435c235 0 316 220.476 316 438
c0 216.532 -80 437 -316 437c-228 0 -310 -226.398 -310 -440z" />
    <glyph glyph-name="uni020E" unicode="&#x20e;" 
d="M830 1638c-23 91 -109 139 -222 139c-111 0 -191 -45 -209 -139h-98c16 174 128 256 316 256c180 0 298 -88 310 -256h-97zM614 -25c-339 0 -491 362 -491 772c0 377 119 769 491 769s491 -392 491 -769c0 -410 -152 -772 -491 -772zM614 1363
c-197 0 -295 -272 -295 -617s99 -616 295 -616s295 271 295 616s-98 617 -295 617z" />
    <glyph glyph-name="uni020F" unicode="&#x20f;" 
d="M828 1252c-23 91 -109 139 -222 139c-111 0 -191 -45 -209 -139h-98c16 174 128 256 316 256c180 0 298 -88 310 -256h-97zM612 1130c329 0 498 -247 498 -572c0 -348 -200 -583 -498 -583c-323 0 -494 257 -494 576c0 346 198 579 494 579zM302 550
c0 -213.563 82 -435 310 -435c235 0 316 220.476 316 438c0 216.532 -80 437 -316 437c-228 0 -310 -226.398 -310 -440z" />
    <glyph glyph-name="uni0210" unicode="&#x210;" 
d="M315.5 1975l249 -337h-128l-312 337h191zM-25.5 1975l253 -337h-130l-313 337h190zM1115 1093c0 -220 -142 -344 -331 -386c185 -173 283 -463 394 -707l-217 -1c-106 230 -188 481 -350 654c-47 8 -97 9 -151 9h-87v-662h-187v1491h290c345 0 639 -52 639 -398zM517 824
c211 0 390 57 390 267c0 188 -157 254 -344 254h-190v-521h144z" />
    <glyph glyph-name="uni0211" unicode="&#x211;" 
d="M649 1589l249 -337h-128l-312 337h191zM308 1589l253 -337h-130l-313 337h190zM1026 961c-224 0 -364 -108 -364 -351v-470h389v-140h-911v140h340v817h-224v140h373l15 -203c91 157 227 236 408 236h137v-169h-163z" />
    <glyph glyph-name="uni0212" unicode="&#x212;" 
d="M547 1638c-23 91 -109 139 -222 139c-111 0 -191 -45 -209 -139h-98c16 174 128 256 316 256c180 0 298 -88 310 -256h-97zM1115 1093c0 -220 -142 -344 -331 -386c185 -173 283 -463 394 -707l-217 -1c-106 230 -188 481 -350 654c-47 8 -97 9 -151 9h-87v-662h-187
v1491h290c345 0 639 -52 639 -398zM517 824c211 0 390 57 390 267c0 188 -157 254 -344 254h-190v-521h144z" />
    <glyph glyph-name="uni0213" unicode="&#x213;" 
d="M880.5 1252c-23 91 -109 139 -222 139c-111 0 -191 -45 -209 -139h-98c16 174 128 256 316 256c180 0 298 -88 310 -256h-97zM1026 961c-224 0 -364 -108 -364 -351v-470h389v-140h-911v140h340v817h-224v140h373l15 -203c91 157 227 236 408 236h137v-169h-163z" />
    <glyph glyph-name="uni0214" unicode="&#x214;" 
d="M598.5 1975l249 -337h-128l-312 337h191zM257.5 1975l253 -337h-130l-313 337h190zM614 -25c-343 0 -485 212 -485 567v949h187v-943c0 -237 58 -418 298 -418s298 181 298 418v943h187v-949c0 -355 -142 -567 -485 -567z" />
    <glyph glyph-name="uni0215" unicode="&#x215;" 
d="M598.5 1589l249 -337h-128l-312 337h191zM257.5 1589l253 -337h-130l-313 337h190zM614 -25c-266 0 -424 164 -424 429v693h182v-709c0 -157.083 75 -273 242 -273s242 115.917 242 273v709h182v-693c0 -265 -158 -429 -424 -429z" />
    <glyph glyph-name="uni0216" unicode="&#x216;" 
d="M830 1638c-23 91 -109 139 -222 139c-111 0 -191 -45 -209 -139h-98c16 174 128 256 316 256c180 0 298 -88 310 -256h-97zM614 -25c-343 0 -485 212 -485 567v949h187v-943c0 -237 58 -418 298 -418s298 181 298 418v943h187v-949c0 -355 -142 -567 -485 -567z" />
    <glyph glyph-name="uni0217" unicode="&#x217;" 
d="M830 1252c-23 91 -109 139 -222 139c-111 0 -191 -45 -209 -139h-98c16 174 128 256 316 256c180 0 298 -88 310 -256h-97zM614 -25c-266 0 -424 164 -424 429v693h182v-709c0 -157.083 75 -273 242 -273s242 115.917 242 273v709h182v-693c0 -265 -158 -429 -424 -429z
" />
    <glyph glyph-name="Scommaaccent" unicode="&#x218;" 
 />
    <glyph glyph-name="scommaaccent" unicode="&#x219;" 
 />
    <glyph glyph-name="uni021A" unicode="&#x21a;" 
d="M1199 1491v-163h-494v-1328h-187v1328h-488v163h1169zM777 -176l-181 -502h-145l118 502h208z" />
    <glyph glyph-name="uni021B" unicode="&#x21b;" 
d="M611 953v-511c0 -224 93 -298 314 -298h187v-144h-180c-393 0 -503 128 -503 498v455h-290v144h290v418l182 54v-472h490v-144h-490zM788 -176l-181 -502h-145l118 502h208z" />
    <glyph glyph-name="uni0237" unicode="&#x237;" 
d="M410 -155c186 0 211 35 211 282v826h-485v144h667v-914c0 -326 -17 -496 -392 -496h-276v158h275z" />
    <glyph glyph-name="circumflex" unicode="&#x2c6;" 
d="M709 1615l259 -349h-143l-204 235l-202 -235h-136l259 349h167z" />
    <glyph glyph-name="caron" unicode="&#x2c7;" 
d="M444 1614l188 -235l190 235h171l-273 -348h-165l-272 348h161z" />
    <glyph glyph-name="breve" unicode="&#x2d8;" 
d="M411 1579c18 -97 95 -141 209 -141s199 50 223 141h97c-12 -170 -128 -256 -311 -256c-188 0 -300 82 -316 256h98z" />
    <glyph glyph-name="dotaccent" unicode="&#x2d9;" 
d="M508 1529h177v-177h-177v177z" />
    <glyph glyph-name="ring" unicode="&#x2da;" 
d="M632 1568c-75 0 -135 -39 -135 -114c0 -61 44 -114 106 -114c76 0 140 39 140 116c0 60 -50 112 -111 112zM852 1455c0 -122 -108 -208 -230 -208c-127 0 -235 82 -235 208s107 206 234 206c124 0 231 -82 231 -206z" />
    <glyph glyph-name="ogonek" unicode="&#x2db;" 
d="M414 -244c0 140 141 211 239 257l142 -13c-87 -50 -226 -120 -226 -212c0 -68 62 -94 130 -94c57 0 107 18 151 35v-121c-51 -21 -106 -32 -163 -32c-141 0 -273 39 -273 180z" />
    <glyph glyph-name="tilde" unicode="&#x2dc;" 
d="M1037 1536c-7 -139 -76 -247 -223 -247c-142 0 -192 116 -331 116c-63 0 -90 -43 -92 -102h-137c3 148 82 245 234 245c145 0 189 -117 330 -117c58 0 77 51 81 105h138z" />
    <glyph glyph-name="hungarumlaut" unicode="&#x2dd;" 
d="M539 1270l254 337h190l-313 -337h-131zM246 1270l249 337h190l-311 -337h-128z" />
    <glyph glyph-name="uni0307" unicode="&#x307;" 
d="M526 1529h177v-177h-177v177z" />
    <glyph glyph-name="uni030F" unicode="&#x30f;" 
d="M736 1607l249 -337h-128l-312 337h191zM395 1607l253 -337h-130l-313 337h190z" />
    <glyph glyph-name="uni0311" unicode="&#x311;" 
d="M830 1323c-23 91 -109 139 -222 139c-111 0 -191 -45 -209 -139h-98c16 174 128 256 316 256c180 0 298 -88 310 -256h-97z" />
    <glyph glyph-name="uni0326" unicode="&#x326;" 
d="M777 -176l-181 -502h-145l118 502h208z" />
    <glyph glyph-name="Omega" unicode="&#x3a9;" 
d="M1021 131c223 144 393 355 393 693c0 369 -237 597 -553 597c-351 0 -566 -249 -566 -597c0 -331 179 -561 386 -693l5 -131h-599l-13 150l378 -1c-213 150 -355 366 -355 721c0 471 393 703 768 703c478 0 745 -337 745 -735c0 -321 -176 -544 -361 -689l363 1l-10 -150
h-581v131z" />
    <glyph glyph-name="mu" unicode="&#x3bc;" 
d="M362 433c0 -199 84 -315 285 -315c207 0 331 150 331 355v641h183c0 -218 -7 -439 -7 -658c0 -155 4 -308 15 -456h-187l-4 146c-80 -105 -201 -171 -374 -171c-95 0 -178 21 -242 59v-253h-182v1333h182v-681z" />
    <glyph glyph-name="pi" unicode="&#x3c0;" 
d="M1322 7c-48 -9 -99 -15 -154 -15c-191 0 -230 123 -230 311v681h-411c-20 -292 -45 -612 -109 -864c-13 -51 -27 -91 -44 -120h-188c136 231 147 639 154 984c-118 -4 -221 -23 -307 -66l-19 143c68 51 175 68 292 68h1034v-145h-226v-671c0 -90 17 -154 108 -154
c34 0 61 7 89 14c-2 -28 -4 -55 -4 -83s5 -55 15 -83z" />
    <glyph glyph-name="endash" unicode="&#x2013;" 
d="M184 531v149h1207v-149h-1207z" />
    <glyph glyph-name="emdash" unicode="&#x2014;" 
d="M-6 531v149h2396v-149h-2396z" />
    <glyph glyph-name="quoteleft" unicode="&#x2018;" 
d="M446 1110l171 478h145l-115 -478h-201z" />
    <glyph glyph-name="quoteright" unicode="&#x2019;" 
d="M761 1588l-169 -478h-146l117 478h198z" />
    <glyph glyph-name="quotesinglbase" unicode="&#x201a;" 
d="M773 218l-169 -476h-147l117 476h199z" />
    <glyph glyph-name="quotedblleft" unicode="&#x201c;" 
d="M620 1110l170 478h148l-116 -478h-202zM233 1110l171 478h147l-116 -478h-202z" />
    <glyph glyph-name="quotedblright" unicode="&#x201d;" 
d="M550 1588l-170 -478h-147l116 478h201zM913 1588l-171 -478h-147l117 478h201z" />
    <glyph glyph-name="quotedblbase" unicode="&#x201e;" 
d="M561 218l-170 -476h-147l116 476h201zM958 218l-171 -476h-146l114 476h203z" />
    <glyph glyph-name="dagger" unicode="&#x2020;" 
d="M240 1014v144h361v417h157v-417h381v-144h-396v-891h-142v891h-361z" />
    <glyph glyph-name="daggerdbl" unicode="&#x2021;" 
d="M236 1067v144h381l-28 364h165v-364h381v-144h-389v-457h381v-138h-381l29 -349h-189l24 349h-381v138h381v457h-374z" />
    <glyph glyph-name="bullet" unicode="&#x2022;" 
d="M1126 760c0 -205 -172 -342 -377 -342c-224 0 -370 169 -370 335c0 228 225 343 378 343c224 0 369 -171 369 -336z" />
    <glyph glyph-name="ellipsis" unicode="&#x2026;" 
d="M78 -12v228h241v-228h-241zM1274 -12v228h240v-228h-240zM675 -12v228h241v-228h-241z" />
    <glyph glyph-name="perthousand" unicode="&#x2030;" 
d="M2097 740c240 0 371 -148 371 -387c0 -231 -143 -383 -375 -383c-239 0 -372 148 -372 386c0 233 142 384 376 384zM1225 740c240 0 370 -149 370 -387c0 -231 -142 -383 -374 -383c-239 0 -373 149 -373 386c0 232 144 384 377 384zM379 1571c240 0 373 -147 373 -385
c0 -233 -142 -382 -376 -382c-239 0 -372 147 -372 384c0 232 141 383 375 383zM1234 1559h165l-1034 -1581h-170zM2094 93c146 0 213 117 213 262h3c0 150 -64 261 -216 261c-146 0 -214 -115 -214 -260c0 -152 61 -263 214 -263zM1438 355c0 150 -63 261 -214 261
c-147 0 -215 -115 -215 -260h2c0 -151 61 -263 214 -263c144 0 213 119 213 262zM379 1449c-143 0 -212 -118 -212 -260c0 -149 64 -263 215 -263c145 0 211 118 211 261c0 150 -62 262 -214 262z" />
    <glyph glyph-name="guilsinglleft" unicode="&#x2039;" 
d="M881 992l-292 -404l282 -403h-173l-297 403l303 404h177z" />
    <glyph glyph-name="guilsinglright" unicode="&#x203a;" 
d="M401 185l290 404l-282 403h173l299 -403l-306 -404h-174z" />
    <glyph glyph-name="fraction" unicode="&#x2044;" 
d="M873 1761h186l-709 -1809h-180z" />
    <glyph glyph-name="uni2074" unicode="&#x2074;" 
d="M710 872h-417v98l403 563h149v-545h119l13 -116h-134v-204h-133v204zM708 988c0 70 -1 139 -1 208c0 51 0 102 3 154l-265 -362h263z" />
    <glyph glyph-name="Euro" unicode="&#x20ac;" 
d="M235 710c-2 26 -3 54 -3 82c0 20 1 40 2 59h-138l26 150h133c61 322 271 571 609 571c157 0 287 -46 373 -128l-39 -205c-68 97 -170 176 -326 176c-258 0 -376 -202 -422 -414h656l-24 -150h-652l-3 -44c0 -34 1 -66 4 -97h636l-21 -150h-600c33 -240 144 -424 417 -424
c147 0 262 70 350 139l-1 -194c-96 -64 -218 -103 -367 -103c-378 0 -550 250 -596 582h-149l22 150h113z" />
    <glyph glyph-name="trademark" unicode="&#x2122;" 
d="M1062 1201l162 374h174v-830h-136v646l-151 -375h-89l-159 374v-645h-135v830h186zM605 1466h-239v-721h-135v721h-231v109h605v-109z" />
    <glyph glyph-name="partialdiff" unicode="&#x2202;" 
d="M667 1519c-128 0 -234 -49 -317 -103l-11 150c89 57 202 98 339 98c386 0 537 -318 537 -702c0 -512 -189 -988 -642 -988c-291 0 -452 193 -452 481c0 372 235 633 556 633c164 0 275 -82 350 -181l1 82c0 269 -92 530 -361 530zM1011 712c-48 135 -140 231 -318 231
c-253 0 -384 -241 -384 -490c0 -190 88 -333 280 -333c282 0 393 343 422 592z" />
    <glyph glyph-name="uni2206" unicode="&#x2206;" 
d="M-62 0v87l576 1465h201l576 -1465v-87h-1353zM1035 176c-142 379 -313 742 -428 1146c-127 -389 -280 -766 -418 -1146h846z" />
    <glyph glyph-name="product" unicode="&#x220f;" 
d="M1503 1388v-1746h-197v1746h-800v-1746h-194v1746h-138l-18 157h1491l-18 -157h-126z" />
    <glyph glyph-name="summation" unicode="&#x2211;" 
d="M74 -358v98l709 859l-683 843v103h1211v-154h-940l634 -782l-669 -806h1026v-161h-1288z" />
    <glyph glyph-name="minus" unicode="&#x2212;" 
d="M1312 538h-1160v149h1160v-149z" />
    <glyph glyph-name="radical" unicode="&#x221a;" 
d="M668 45c137 575 306 1125 457 1687h144l-516 -1898h-150l-367 915l-191 -30l-22 121l327 56c110 -279 227 -557 318 -851z" />
    <glyph glyph-name="infinity" unicode="&#x221e;" 
d="M1604 663c0 142 -102 237 -246 237c-176 0 -246 -123 -324 -220c-14 -17 -27 -29 -41 -38c85 -111 189 -257 352 -257c176 0 259 104 259 278zM467 899c-151 0 -253 -108 -253 -257c0 -148 113 -257 262 -257c171 0 289 152 363 253c-78 112 -187 261 -372 261z
M1341 1024c250 0 418 -131 418 -380c0 -251 -214 -389 -400 -389c-226 0 -341 146 -443 274c-103 -128 -255 -274 -444 -274c-237 0 -402 173 -402 408c0 240 236 361 398 361c217 0 353 -150 451 -274c95 119 214 274 422 274z" />
    <glyph glyph-name="integral" unicode="&#x222b;" 
d="M1019 1608c-31 11 -68 16 -109 16c-158 0 -192 -79 -192 -235v-1414c0 -240 -87 -408 -330 -408c-54 0 -104 10 -149 22l-3 141c33 -11 68 -17 109 -17c156 0 190 82 190 236v1414c0 242 89 408 333 408c54 0 101 -13 148 -23z" />
    <glyph glyph-name="approxequal" unicode="&#x2248;" 
d="M998 413c105 0 152 102 182 179l123 -29c-37 -159 -125 -279 -320 -279c-209 0 -351 179 -499 179c-118 0 -172 -88 -200 -180l-126 31c40 161 135 278 335 278c188 0 291 -114 431 -165c25 -9 50 -14 74 -14zM481 867c-119 0 -169 -87 -197 -179c-37 7 -105 29 -130 29
h-2c37 161 138 279 335 279c176 0 286 -117 422 -166c25 -9 49 -13 73 -13c119 0 163 91 194 180l123 -31c-37 -160 -125 -278 -321 -278c-185 0 -285 115 -423 166c-24 9 -50 13 -74 13z" />
    <glyph glyph-name="notequal" unicode="&#x2260;" 
d="M929 922h342l11 -131h-418l-164 -308h573l9 -130h-647l-155 -303l-135 20l142 283h-326l-8 130h401l162 308h-555l-9 131h627l151 297l138 -19z" />
    <glyph glyph-name="lessequal" unicode="&#x2264;" 
d="M191 723v88l1052 512v-151l-857 -401l857 -384v-152zM152 9v134h1123v-134h-1123z" />
    <glyph glyph-name="greaterequal" unicode="&#x2265;" 
d="M1249 812v-86l-1062 -489v152l866 378l-901 407l39 151zM152 9v134h1119l-22 -134h-1097z" />
    <glyph glyph-name="lozenge" unicode="&#x25ca;" 
d="M740 -48h-116l-499 820l506 823h119l501 -822zM694 1437c-130 -227 -270 -440 -405 -663l393 -668c128 228 267 443 402 666c-130 222 -265 439 -390 665z" />
    <glyph glyph-name="uniF6C3" unicode="&#xf6c3;" 
d="M810 -152l-181 -503h-146l119 503h208z" />
    <glyph glyph-name="uniFB01" unicode="&#xfb01;" 
d="M772 1481c-30 11 -71 16 -111 16c-174 0 -191 -115 -191 -268c0 -36 1 -75 1 -115h690v-1114h-181v997h-509v-997h-182v997h-222v117h222c6 296 28 530 332 530c54 0 103 -13 149 -23zM1158 1418h-171v169h171v-169z" />
    <glyph glyph-name="uniFB02" unicode="&#xfb02;" 
d="M753 1453c-192 -15 -283 -33 -283 -278v-68h280v-113h-280v-994h-213v994h-200v113h200c0 228 22 384 180 452c87 37 193 49 316 60v-166zM957 0v1620h214v-1620h-214z" />
    <glyph glyph-name="periodcentered" 
d="M487 557v228h241v-228h-241z" />
    <glyph glyph-name="uni000D.001" 
 />
    <glyph glyph-name="scommaaccent" 
d="M621 136c139 0 263 29 263 168c0 143 -217 162 -334 192c-169 43 -334 111 -334 323c0 215 198 311 412 311c156 0 290 -17 403 -69l-58 -147c-92 37 -214 55 -336 55c-107 0 -210 -36 -210 -144c0 -147 214 -163 334 -195c166 -44 334 -102 334 -311
c0 -242 -218 -344 -459 -344c-172 0 -332 28 -433 101l58 155c92 -65 214 -95 360 -95zM812 -176l-181 -502h-145l118 502h208z" />
    <glyph glyph-name="Scommaaccent" 
d="M212 271c93 -76 225 -123 381 -123c162 0 250 90 250 256c0 201 -203 253 -347 314c-172 72 -346 161 -346 405c0 257 197 394 454 394c167 0 296 -41 391 -116l-70 -152c-81 63 -197 96 -331 96c-146 0 -235 -81 -237 -226c0 -181 221 -229 349 -286
c177 -78 348 -181 348 -438c0 -279 -188 -420 -465 -420c-181 0 -331 51 -448 129zM760 -176l-181 -502h-145l118 502h208z" />
  </font>
</defs>
</svg>
