<svg xmlns="http://www.w3.org/2000/svg">
<defs>
<font id="Vollkorn-Bold" horiz-adv-x="550" >
  <font-face 
    font-family="Vollkorn"
    font-weight="700"
    font-stretch="normal"
    units-per-em="1000"
    panose-1="0 0 0 0 0 0 0 0 0 0"
    ascent="800"
    descent="-200"
    x-height="460"
    cap-height="679"
    bbox="-180 -298 3056 1091"
    underline-thickness="40"
    underline-position="-360"
    unicode-range="U+000D-1D550"
  />
<missing-glyph horiz-adv-x="454" 
d="M51 0v677h352v-677h-352zM112 99q5 0 5 5t-5 5t-5 -5t5 -5zM117 163q5 0 7 2l-1 3q-2 -1 -4 -1q-3 0 -3 6v16h7v3h-7v7q0 3 -2 3l-5 -3v-7h-5v-3h5v-18q0 -8 8 -8zM133 148q3 0 5.5 2.5t5.5 10.5l9 22q3 6 5 6v3h-12v-3q6 0 3 -7l-4 -11l-5 12q-3 6 3 6v3h-17v-3
q4 0 6 -6l9 -21q-1 -3 -2.5 -5.5t-5.5 -2.5q-2 0 -5 1v-5q2 -2 5 -2zM161 148h18v3q-6 0 -6 6v6h5q16 0 16 16q0 14 -11 14q-7 0 -10 -6v3q0 2 -1 3q-4 -2 -11 -2v-3q5 0 5 -5v-26q0 -6 -5 -6v-3zM178 167h-5v9q0 12 7 12q6 0 6 -10q0 -7 -3 -9t-5 -2zM118 227h4l9 21
q3 6 5 6v3h-12v-3q6 0 3 -6l-5 -13l-4 10q-3 9 2 9v3h-16v-3q3 0 5 -6zM213 163q7 0 11 4l-2 3q-3 -3 -8 -3q-8 0 -8 10h17l1 3q0 13 -12 13q-14 0 -14 -15t15 -15zM153 227q15 0 15 15t-15 15t-15 -15t15 -15zM153 231q-7 0 -7 11t7 11t7 -11t-7 -11zM206 181q0 8 5 8
q6 0 6 -8h-11zM229 163h17v3q-6 0 -6 6v17h7v3h-7q0 11 4 11q5 0 5 -6h4v8q-2 2 -6 2q-14 0 -14 -14v-1h-5v-3h5v-17q0 -6 -4 -6v-3zM171 227h16v3q-4 0 -4 6v32q0 3 -2 3q-4 -2 -10 -2v-3q5 0 5 -4v-26q0 -6 -5 -6v-3zM262 167q-3 0 -3 4t9 6q0 -10 -6 -10zM259 163
q8 0 10 5q0 -5 2 -5l7 2v3q-3 0 -3 5v7q0 8 -3 10.5t-8 2.5q-6 0 -11 -3l1 -7h4q0 6 5 6t5 -9q-4 -1 -10.5 -3t-6.5 -8t8 -6zM191 227h15v3q-4 0 -4 6v32q0 3 -2 3q-4 -2 -10 -2v-3q5 0 5 -4v-26q0 -6 -4 -6v-3zM296 163q6 0 10 4l-2 3q-3 -3 -7 -3q-8 0 -8 11t6 11
q5 0 6 -7h4v8q-3 3 -9 3q-14 0 -14 -15t14 -15zM211 227h15v3q-4 0 -4 6v5l11 -14h9v3q-3 0 -14 14q6 6 8.5 7.5t4.5 1.5v3h-14v-3q3 0 3 -1q0 -2 -8 -9v25q0 3 -2 3q-4 -2 -10 -2v-3q5 0 5 -4v-26q0 -6 -4 -6v-3zM102 329v70h70v-70h-70zM112 339h50v50h-50v-50zM122 349

<glyph glyph-name="f_f" unicode="ff" horiz-adv-x="746" 
d="M367 448v-62q-41 0 -68.5 -4.5t-52.5 -13.5v80h121zM109 474q0 71 34.5 121t94.5 76.5t136 26.5q47 0 93 -11.5t74 -32.5l-54 -112q-16 46 -49 69t-76 23q-35 0 -60 -11.5t-38 -39.5t-13 -79v-287h-142v257zM129 448v-79q-28 9 -54 12.5t-44 3.5q0 17 3.5 34t10.5 29h84z
M251 173q0 -47 7.5 -71t25 -32.5t45.5 -11.5q5 -12 6.5 -28t1.5 -33q-26 2 -64.5 2.5t-79.5 0.5q-45 0 -87.5 -0.5t-70.5 -2.5q0 21 1 35.5t5 25.5q27 2 41.5 10t20.5 29.5t6 60.5v69h142v-54zM714 448q0 -17 -2 -35t-8 -30q-29 0 -54 -3t-51 -12v80h115zM462 482
q0 79 31.5 131t84 77.5t115.5 25.5q40 0 72.5 -9t51.5 -21q-3 -30 -4 -65t0 -63q-17 -6 -42.5 -8.5t-47.5 -1.5q0 46 -15.5 74t-46.5 28q-20 0 -32.5 -13.5t-18.5 -42.5t-6 -79v-298h-142v265zM483 448v-79q-28 9 -57.5 13t-58.5 4v62h116zM604 173q0 -43 9.5 -67
t31.5 -34.5t59 -13.5q4 -12 5.5 -28t1.5 -33q-17 1 -43 1.5t-54.5 1t-56.5 0.5q-45 0 -93 -0.5t-76 -2.5q0 21 1 35.5t5 25.5q27 2 41.5 10t20.5 29.5t6 60.5v69h142v-54z" />
    <glyph glyph-name="f_f_i" unicode="ffi" horiz-adv-x="1070" 
d="M393 -3q0 19 1.5 34t4.5 27q27 2 42 10t20.5 28.5t5.5 59.5v328q0 67 34 119.5t100 82.5t164 30q66 0 108.5 -11t70.5 -23q-4 -31 -5.5 -59t-1.5 -56q-23 -12 -58 -17.5t-70 -3.5q-3 56 -24 81t-63 25q-59 0 -86 -35t-27 -102v-67h157q17 0 40.5 1.5t48 4t47 6t38.5 7.5
q12 -5 20 -16.5t8 -33.5v-272q0 -52 14.5 -68.5t47.5 -18.5q5 -12 6 -28t1 -33q-14 1 -38.5 1.5t-52.5 1t-51 0.5h-51t-51 -0.5t-41 -2.5q0 19 1.5 34.5t4.5 26.5q40 2 54 19t14 67v158q0 27 -6.5 44.5t-28 26.5t-65.5 10q-21 0 -45 -1.5t-43 -4.5t-29 -6v-207q0 -40 6 -62
t21.5 -31.5t42.5 -12.5q4 -12 5 -27.5t1 -33.5q-25 2 -61.5 2.5t-77.5 0.5q-39 0 -84 -0.5t-69 -2.5zM129 369q-28 9 -54 12.5t-44 3.5q0 17 3.5 34t10.5 29h84v-79zM35 -3q0 21 1 35.5t5 25.5q27 2 41.5 10t20.5 29.5t6 60.5v316q0 71 34.5 121t94.5 76.5t134 26.5
q50 0 97 -12.5t83 -38.5l-65 -105q-16 46 -47.5 69t-71.5 23q-53 0 -85 -32.5t-32 -103.5v-325q0 -47 7.5 -71t25 -32.5t45.5 -11.5q5 -12 6.5 -28t1.5 -33q-26 2 -64.5 2.5t-81.5 0.5t-85.5 -0.5t-70.5 -2.5zM242 371v77h238v-76q-29 9 -58 12.5t-59 3.5q-41 0 -68 -4.5
t-53 -12.5z" />
    <glyph glyph-name="f_f_l" unicode="ffl" horiz-adv-x="1072" 
d="M367 448v-62q-41 0 -68.5 -4.5t-52.5 -13.5v80h121zM109 474q0 71 34.5 121t94.5 76.5t136 26.5q47 0 94 -12t84 -38l-65 -106q-16 46 -48.5 69.5t-73.5 23.5q-53 0 -83.5 -29.5t-30.5 -101.5v-287h-142v257zM129 448v-79q-28 9 -54 12.5t-44 3.5q0 17 3.5 34t10.5 29h84
zM251 173q0 -47 7.5 -71t25 -32.5t45.5 -11.5q5 -12 6.5 -28t1.5 -33q-26 2 -64.5 2.5t-79.5 0.5q-45 0 -87.5 -0.5t-70.5 -2.5q0 21 1 35.5t5 25.5q27 2 41.5 10t20.5 29.5t6 60.5v69h142v-54zM483 448v-79q-28 9 -57.5 13t-58.5 4v62h116zM714 448q0 -17 -2 -35t-8 -30
q-29 0 -54 -3t-51 -12v80h115zM462 482q0 60 22.5 104t61.5 72.5t89.5 43t107.5 14.5q38 0 75 -8.5t58 -20.5l-1 -132h-42q0 33 -14.5 54t-39.5 31.5t-55 10.5q-56 0 -88 -30t-32 -106v-298h-142v265zM604 173q0 -43 6 -67t22.5 -34.5t45.5 -13.5q5 -12 6.5 -28t1.5 -33
q-26 2 -64.5 2.5t-80.5 0.5q-45 0 -85 -0.5t-68 -2.5q0 21 1 35.5t5 25.5q27 2 41.5 10t20.5 29.5t6 60.5v69h142v-54zM833 192h142v-47q0 -50 13.5 -68t49.5 -19q4 -12 5.5 -28.5t1.5 -32.5q-15 1 -38 1.5t-50 1t-55 0.5q-26 0 -54 -0.5t-51 -1t-38 -1.5q0 18 1.5 33.5
t5.5 27.5q40 1 53.5 19t13.5 68v47zM859 537l-35 150q31 1 64.5 8.5t58.5 21.5q13 -5 20.5 -17.5t7.5 -35.5v-127h-116zM833 571h142v-396h-142v396z" />
    <glyph glyph-name="f_f_j.liga" unicode="ffj" horiz-adv-x="1025" 
d="M769 -249q-13 7 -22.5 21t-12.5 31q36 39 56 72.5t28 70.5t8 86v270q0 27 -6.5 45t-26.5 26.5t-61 9.5q-21 0 -46 -1.5t-46 -4.5t-31 -6v-207q0 -40 6.5 -62t23.5 -31.5t45 -12.5q4 -12 5 -27.5t1 -33.5q-26 2 -64 2.5t-79 0.5t-85.5 -0.5t-68.5 -2.5q0 19 1.5 34t4.5 27
q27 2 42 10t20.5 28.5t5.5 59.5v328q0 67 34 119.5t100.5 82.5t165.5 30q65 0 107 -11t70 -23q-4 -31 -5.5 -59t-1.5 -56q-23 -12 -58 -17.5t-70 -3.5q-3 56 -24.5 81t-66.5 25q-56 0 -82.5 -35t-26.5 -102v-67h162q40 0 86.5 5t82.5 14q12 -5 20 -16.5t8 -33.5v-363
q0 -59 -19 -107t-49 -86.5t-64.5 -66t-66.5 -43.5zM129 369q-28 9 -54 12.5t-44 3.5q0 17 3.5 34t10.5 29h84v-79zM35 -3q0 21 1 35.5t5 25.5q27 2 41.5 10t20.5 29.5t6 60.5v316q0 71 34.5 121t94 76.5t134.5 26.5q54 0 98 -13.5t77 -40.5l-60 -102q-16 46 -48 69t-75 23
q-49 0 -81 -32.5t-32 -103.5v-325q0 -47 7.5 -71t25 -32.5t45.5 -11.5q5 -12 6.5 -28t1.5 -33q-26 2 -64.5 2.5t-81.5 0.5t-85.5 -0.5t-70.5 -2.5zM246 369v79h239v-79q-28 9 -57 13t-61 4q-40 0 -67.5 -4.5t-53.5 -12.5z" />
    <glyph glyph-name="f_f_t.liga" unicode="fft" horiz-adv-x="1122" 
d="M367 448v-60q-41 0 -68.5 -4.5t-52.5 -12.5v77h121zM109 464q0 71 34.5 121t94.5 76.5t136 26.5q47 0 94.5 -12.5t86.5 -40.5l-68 -103q-16 46 -49 69t-76 23q-35 0 -60 -11.5t-38 -39.5t-13 -79v-277h-142v247zM129 448v-79q-28 9 -54 12.5t-44 3.5q0 17 3.5 34t10.5 29
h84zM251 173q0 -47 7.5 -71t25 -32.5t45.5 -11.5q5 -12 6.5 -28t1.5 -33q-26 2 -64.5 2.5t-79.5 0.5q-45 0 -87.5 -0.5t-70.5 -2.5q0 21 1 35.5t5 25.5q27 2 41.5 10t20.5 29.5t6 60.5v69h142v-54zM714 448q0 -17 -2 -35t-8 -30q-29 0 -54 -3t-51 -12v80h115zM483 448v-77
q-28 10 -57.5 13.5t-58.5 3.5v60h116zM604 173q0 -43 9.5 -67t31.5 -34.5t59 -13.5q4 -12 5.5 -28t1.5 -33q-17 1 -43 1.5t-54.5 1t-56.5 0.5q-45 0 -93 -0.5t-76 -2.5q0 21 1 35.5t5 25.5q27 2 41.5 10t20.5 29.5t6 60.5v69h142v-54zM714 448q0 -17 -2 -35t-8 -30
q-29 0 -54 -3t-51 -12v80h115zM462 462q0 60 22.5 104t61.5 72.5t89.5 43t106.5 14.5q39 0 77 -9.5t66 -25.5l-11 -126h-42q0 33 -14.5 54t-39 31.5t-54.5 10.5q-56 0 -88 -30t-32 -106v-288h-142v255zM858 507l-35 150q18 0 41 4t45 11t36 15q13 -5 21.5 -17.5t8.5 -35.5
v-127h-117zM832 448v123l143 -12v-111h122q0 -18 -2 -33.5t-7 -29.5q-66 -1 -113 -15v-206q0 -39 5 -61.5t17 -31.5t29 -9t32.5 4.5t29.5 12.5q14 -18 15 -49q-20 -17 -56.5 -28t-75.5 -11q-69 0 -104 36t-35 121v225q-16 6 -33 9t-41 4q0 18 2.5 32t9.5 30h62zM604 173
q0 -43 9.5 -67t31.5 -34.5t59 -13.5q4 -12 5.5 -28t1.5 -33q-17 1 -43 1.5t-54.5 1t-56.5 0.5q-45 0 -93 -0.5t-76 -2.5q0 21 1 35.5t5 25.5q27 2 41.5 10t20.5 29.5t6 60.5v69h142v-54z" />
    <glyph glyph-name="f_i.liga" unicode="fi" horiz-adv-x="717" 
d="M35 -3q0 19 1 34t5 27q27 2 41.5 10t20.5 28.5t6 59.5v215q-14 6 -37 10.5t-41 4.5q0 18 3.5 33.5t11.5 28.5h63v36q0 67 33.5 119.5t98.5 82.5t159 30q74 0 118.5 -11t72.5 -23q-5 -31 -6.5 -59t-1.5 -56q-23 -12 -57.5 -17.5t-70.5 -3.5q-2 37 -11 60.5t-27 34.5
t-51 11q-64 0 -89.5 -35t-25.5 -102v-67h167q40 1 86.5 5.5t81.5 13.5q12 -5 20.5 -16.5t8.5 -33.5v-272q0 -52 14.5 -68.5t47.5 -18.5q4 -12 5.5 -28t1.5 -33q-15 1 -39.5 1.5t-52 1t-51.5 0.5h-50t-51 -0.5t-41 -2.5q0 19 1.5 34.5t4.5 26.5q40 2 54 19t14 67v158
q0 28 -7 46t-28.5 26.5t-63.5 8.5q-19 0 -44.5 -1.5t-47 -4.5t-31.5 -6v-207q0 -40 6 -62t21.5 -31.5t41.5 -12.5q4 -12 5 -27.5t1 -33.5q-25 2 -61.5 2.5t-76.5 0.5t-85 -0.5t-68 -2.5z" />
    <glyph glyph-name="f_j.liga" unicode="fj" horiz-adv-x="671" 
d="M109 371q-14 6 -37 10.5t-41 4.5q0 18 3.5 33.5t11.5 28.5h63v36q0 67 33.5 119.5t98.5 82.5t159 30q74 0 118.5 -11t72.5 -23q-5 -31 -6.5 -59t-1.5 -56q-23 -12 -57.5 -17.5t-70.5 -3.5q-2 37 -11 60.5t-27 34.5t-51 11q-64 0 -89.5 -35t-25.5 -102v-67h167l-40 -65
q-22 0 -48.5 -1.5t-47.5 -4.5t-31 -6v-207q0 -40 6 -62t21.5 -31.5t41.5 -12.5q4 -12 5 -27.5t1 -33.5q-25 2 -61.5 2.5t-76.5 0.5t-85 -0.5t-68 -2.5q0 19 1 34t5 27q27 2 41.5 10t20.5 28.5t6 59.5v215zM473 302q0 27 -6.5 44.5t-26.5 26.5t-62 10l40 65q40 1 86.5 5.5
t81.5 13.5q12 -5 20.5 -16.5t8.5 -33.5v-192h-142v77zM473 259h142v-205q0 -59 -19 -107t-49 -86.5t-64.5 -66t-66.5 -43.5q-13 7 -23 21t-12 31q36 39 56 72.5t28 70.5t8 86v227z" />
    <glyph glyph-name="f_l.liga" unicode="fl" horiz-adv-x="719" 
d="M361 448q0 -17 -2 -35t-8 -30q-29 0 -54.5 -3t-50.5 -12v80h115zM109 482q0 60 22 104t61 72.5t90 43t108 14.5q38 0 75 -8.5t58 -20.5l-1 -132h-42q0 33 -15 54t-39.5 31.5t-54.5 10.5q-56 0 -88 -30t-32 -106v-298h-142v265zM129 448v-79q-28 9 -54 12.5t-44 3.5
q0 17 3.5 34t10.5 29h84zM251 173q0 -43 6 -67t22 -34.5t46 -13.5q5 -12 6 -28t1 -33q-25 2 -64 2.5t-80 0.5q-45 0 -85 -0.5t-68 -2.5q0 21 1 35.5t5 25.5q27 2 41.5 10t20.5 29.5t6 60.5v69h142v-54zM480 192h142v-47q0 -50 13.5 -68t49.5 -19q4 -12 5 -28.5t1 -32.5
q-14 1 -37 1.5t-50 1t-55 0.5q-27 0 -54.5 -0.5t-51 -1t-37.5 -1.5q0 18 1.5 33.5t5.5 27.5q40 1 53.5 19t13.5 68v47zM506 537l-35 150q18 0 41 4t45 11t36 15q14 -5 21.5 -17.5t7.5 -35.5v-127h-116zM480 571h142v-396h-142v396z" />
    <glyph glyph-name="f_t.liga" unicode="ft" horiz-adv-x="768" 
d="M35 -3q0 21 1 35.5t5 25.5q27 2 41.5 10t20.5 29.5t6 60.5v304q0 60 22 104t61 72.5t90 43t107 14.5q38 0 76 -9.5t66 -25.5l-10 -126h-42q0 33 -15 54t-39.5 31.5t-53.5 10.5q-57 0 -88.5 -30t-31.5 -106v-322q0 -43 9.5 -67t31.5 -34.5t58 -13.5q5 -12 6 -28t1 -33
q-17 1 -42.5 1.5t-54.5 1t-57 0.5q-45 0 -92.5 -0.5t-75.5 -2.5zM129 369q-28 9 -54 12.5t-44 3.5q0 17 3.5 34t10.5 29h84v-79zM246 368v80h115q0 -17 -2 -35t-8 -30q-29 0 -54.5 -3t-50.5 -12zM618 -9q-69 0 -104 36t-35 121v225q-16 6 -33 9t-41 4q0 18 2.5 32t9.5 30h62
v123l-9 86q17 0 40.5 4t45 11t35.5 15q14 -5 22 -17.5t8 -35.5v-186h122q0 -18 -2 -33.5t-7 -29.5q-66 -1 -113 -15v-206q0 -39 5.5 -61.5t17 -31.5t29.5 -9q16 0 31.5 4.5t29.5 12.5q14 -18 15 -49q-19 -17 -56 -28t-75 -11z" />
    <glyph glyph-name="longs_t.liga" unicode="&#x17f;t" horiz-adv-x="749" 
d="M129 448v-79q-28 9 -54 12.5t-44 3.5q0 17 3.5 34t10.5 29h84zM251 173q0 -43 9.5 -67t31.5 -34.5t58 -13.5q5 -12 6 -28t1 -33q-17 1 -42.5 1.5t-54.5 1t-57 0.5q-45 0 -92.5 -0.5t-75.5 -2.5q0 21 1 35.5t5 25.5q27 2 41.5 10t20.5 29.5t6 60.5v69h142v-54zM459 448
v123q33 5 65.5 18.5t52.5 30.5q14 -6 19.5 -17t5.5 -44v-111h122q0 -18 -2 -33.5t-7 -29.5q-66 -1 -113 -15v-206q0 -39 5.5 -61.5t17 -31.5t28.5 -9t32.5 4.5t29.5 12.5q14 -18 15 -49q-19 -17 -56 -28t-76 -11q-69 0 -104 36t-35 121v225q-16 6 -33 9t-41 4q0 18 2.5 32
t9.5 30h62zM109 462q0 75 34 127.5t93 79.5t135 27q46 0 79.5 -9.5t61.5 -25.5l-11 -126h-42q0 49 -26 72.5t-73 23.5q-51 0 -80 -31.5t-29 -104.5v-288h-142v255zM485 507l-35 150q18 0 41 4t45 11t36 15q14 -5 22 -17.5t8 -35.5v-127h-117z" />
    <glyph glyph-name="longs_h.liga" unicode="&#x17f;h" horiz-adv-x="995" 
d="M109 482q0 60 20.5 104t56 72.5t80.5 43t93 14.5q41 0 74 -8.5t55 -20.5l-1 -132h-43q0 49 -27.5 72.5t-70.5 23.5q-47 0 -71 -30t-24 -106v-298h-142v265zM129 448v-79q-28 9 -54 12.5t-44 3.5q0 17 3.5 34t10.5 29h84zM251 173q0 -43 5.5 -67t20.5 -34.5t43 -13.5
q4 -12 5.5 -28t1.5 -33q-26 2 -62 2.5t-77 0.5q-45 0 -85 -0.5t-68 -2.5q0 21 1 35.5t5 25.5q27 2 41.5 10t20.5 29.5t6 60.5v69h142v-54zM470 537l-34 150q17 0 40.5 4t45.5 11t36 15q13 -5 21 -17.5t8 -35.5v-127h-117zM903 145q0 -50 12 -68.5t39 -18.5q5 -12 6.5 -26.5
t1.5 -34.5q-22 1 -56.5 2t-67.5 1q-22 0 -49.5 -0.5t-52.5 -1t-40 -1.5q0 18 1 33t6 28q28 0 43 20t15 73v109q0 63 -20 87.5t-57 24.5q-25 0 -47 -18.5t-36 -54t-14 -88.5v-66q0 -51 13.5 -69t43.5 -18q6 -14 7 -28t1 -33q-14 1 -38 1.5t-49.5 1t-49.5 0.5q-22 0 -50 -0.5
t-54 -1t-41 -1.5q0 19 2 35t6 26q39 0 52.5 18.5t13.5 68.5v151l143 117q0 -12 -2.5 -27.5t-7.5 -32.5l12 24t16 23q20 23 56 42.5t83 19.5q42 0 78.5 -16t58.5 -52t22 -95v-154zM444 571h143v-158l-143 -143v301z" />
    <glyph glyph-name="longs_i.liga" unicode="&#x17f;i" horiz-adv-x="708" 
d="M606 145q0 -50 13 -68t49 -19q4 -12 5.5 -28.5t1.5 -32.5q-15 1 -38 1.5t-50 1t-55 0.5q-26 0 -54 -0.5t-51 -1t-38 -1.5q0 18 1.5 33.5t5.5 27.5q40 1 53.5 19t13.5 68v161q0 24 -5 39t-21 22.5t-48 9.5q0 15 2 29.5t9 27.5q33 0 68.5 5t65 12.5t43.5 15.5
q13 -5 21 -17.5t8 -35.5v-269zM109 371q-14 6 -37 10.5t-41 4.5q0 18 3.5 33.5t11.5 28.5h63v36q0 67 33.5 119.5t98.5 82.5t159 30q74 0 118.5 -11t72.5 -23q-5 -31 -6.5 -59t-1.5 -56q-23 -12 -57.5 -17.5t-70.5 -3.5q-2 37 -11 60.5t-27 34.5t-51 11q-64 0 -89.5 -35
t-25.5 -102v-351q0 -40 6 -62t21.5 -31.5t41.5 -12.5q4 -12 5 -27.5t1 -33.5q-25 2 -61.5 2.5t-76.5 0.5t-85 -0.5t-68 -2.5q0 19 1 34t5 27q27 2 41.5 10t20.5 28.5t6 59.5v215z" />
    <glyph glyph-name="longs_longs.liga" unicode="&#x17f;&#x17f;" horiz-adv-x="699" 
d="M362 698q47 0 86 -10.5t64 -29.5l-53 -84q-15 26 -43 43t-69 17q-29 0 -50.5 -11.5t-33.5 -39.5t-12 -79v-287h-142v257q0 71 33 121t90.5 76.5t129.5 26.5zM251 227v-54q0 -47 7 -71t24 -32.5t45 -11.5q4 -12 5.5 -28t1.5 -33q-26 2 -63 2.5t-78 0.5q-45 0 -87.5 -0.5
t-70.5 -2.5q0 21 1 35.5t5 25.5q27 2 41.5 10t20.5 29.5t6 60.5v69h142zM129 448v-79q-28 9 -54 12.5t-44 3.5q0 17 3.5 34t10.5 29h84zM577 227v-54q0 -43 9.5 -67t31 -34.5t58.5 -13.5q5 -12 6 -28t1 -33q-17 1 -42.5 1.5t-54.5 1t-57 0.5q-30 0 -62 -0.5t-59.5 -1
t-44.5 -1.5q0 21 1 35.5t5 25.5q26 2 40 10t19.5 29.5t5.5 60.5v69h143zM455 448v-79q-28 9 -54 12.5t-44 3.5q0 17 3 34t11 29h84zM665 716q41 0 73 -9t52 -21q-4 -30 -5 -65t0 -63q-16 -6 -42 -8.5t-47 -1.5q0 46 -16 74t-47 28q-20 0 -32.5 -13.5t-18 -42.5t-5.5 -79
v-388h-143v355q0 79 31.5 131t84 77.5t115.5 25.5z" />
    <glyph glyph-name="Yi_Yicy.rlig" unicode="&#x407;&#x407;" horiz-adv-x="764" 
d="M89 723q-35 0 -56 18.5t-21 44.5q0 27 17.5 48.5t56.5 21.5q40 0 58.5 -20t18.5 -49q0 -27 -21.5 -45.5t-52.5 -18.5zM280 723q-39 0 -59.5 20t-20.5 50t21 46.5t55 16.5q33 0 55 -18t22 -45t-16.5 -48.5t-56.5 -21.5zM488 723q-34 0 -55 18.5t-21 44.5q0 27 17 48.5
t57 21.5t58.5 -20t18.5 -49q0 -27 -21.5 -45.5t-53.5 -18.5zM680 723q-39 0 -59.5 20t-20.5 50t21 46.5t55 16.5q33 0 55 -18t22 -45t-16.5 -48.5t-56.5 -21.5zM116 519q0 39 -5 59.5t-19.5 28.5t-42.5 11q-3 11 -5 28t-2 33q18 -1 44.5 -1.5t55.5 -1t51 -0.5q23 0 49.5 0.5
t51.5 1t45 1.5q0 -17 -1 -32t-6 -29q-26 -2 -41 -10.5t-20.5 -29t-5.5 -59.5v-361q0 -39 5.5 -60.5t20.5 -29.5t42 -10q3 -10 4.5 -27t1.5 -34q-26 2 -63 2.5t-78 0.5t-83 -0.5t-73 -2.5q0 16 2 33t6 28q27 2 41.5 10t19.5 29.5t5 60.5v361zM498 519q0 39 -5 59.5
t-19.5 28.5t-42.5 11q-3 11 -5 28t-2 33q18 -1 44.5 -1.5t55.5 -1t51 -0.5q23 0 49.5 0.5t51.5 1t45 1.5q0 -17 -1 -32t-6 -29q-26 -2 -41 -10.5t-20.5 -29t-5.5 -59.5v-361q0 -39 6 -60.5t20.5 -29.5t41.5 -10q3 -10 4.5 -27t1.5 -34q-25 2 -62 2.5t-78 0.5t-83.5 -0.5
t-73.5 -2.5q0 16 2 33t6 28q27 2 41.5 10t19.5 29.5t5 60.5v361z" />
    <glyph glyph-name="yi_yicy.rlig" unicode="&#x457;&#x457;" horiz-adv-x="695" 
d="M637 519q-40 0 -60.5 20.5t-20.5 53.5q0 31 21.5 48.5t55.5 17.5t56 -19t22 -47q0 -29 -16.5 -51.5t-57.5 -22.5zM444 518q-34 0 -56 19.5t-22 47.5t18 51t58 23q41 0 59.5 -21t18.5 -51q0 -29 -21.5 -49t-54.5 -20zM247 519q-39 0 -59.5 20.5t-20.5 53.5q0 31 21 48.5
t55 17.5t56 -19t22 -47q0 -29 -16.5 -51.5t-57.5 -22.5zM54 518q-34 0 -55.5 19.5t-21.5 47.5t17.5 51t57.5 23q41 0 59.5 -21t18.5 -51q0 -29 -21.5 -49t-54.5 -20zM34 -3q0 18 1.5 33.5t5.5 27.5q40 1 53.5 19t13.5 68v161q0 24 -5 39t-21 22.5t-48 9.5q0 15 2 29.5
t9 27.5q33 0 68.5 5t65 12.5t43.5 15.5q13 -5 21 -17.5t8 -35.5v-269q0 -50 13 -68t49 -19q4 -12 5.5 -28.5t1.5 -32.5q-15 1 -38 1.5t-50 1t-54 0.5t-55 -0.5t-51 -1t-38 -1.5zM382 -3q0 18 1.5 33.5t5.5 27.5q40 1 53.5 19t13.5 68v161q0 24 -5.5 39t-21.5 22.5t-48 9.5
q0 15 2.5 29.5t8.5 27.5q34 0 69.5 5t64.5 12.5t43 15.5q13 -5 21 -17.5t8 -35.5v-269q0 -50 13.5 -68t49.5 -19q4 -12 5 -28.5t1 -32.5q-14 1 -37 1.5t-50.5 1t-54.5 0.5t-54.5 -0.5t-51 -1t-37.5 -1.5z" />
    <glyph glyph-name=".notdef" horiz-adv-x="454" 
d="M51 0v677h352v-677h-352zM112 99q5 0 5 5t-5 5t-5 -5t5 -5zM117 163q5 0 7 2l-1 3q-2 -1 -4 -1q-3 0 -3 6v16h7v3h-7v7q0 3 -2 3l-5 -3v-7h-5v-3h5v-18q0 -8 8 -8zM133 148q3 0 5.5 2.5t5.5 10.5l9 22q3 6 5 6v3h-12v-3q6 0 3 -7l-4 -11l-5 12q-3 6 3 6v3h-17v-3
q4 0 6 -6l9 -21q-1 -3 -2.5 -5.5t-5.5 -2.5q-2 0 -5 1v-5q2 -2 5 -2zM161 148h18v3q-6 0 -6 6v6h5q16 0 16 16q0 14 -11 14q-7 0 -10 -6v3q0 2 -1 3q-4 -2 -11 -2v-3q5 0 5 -5v-26q0 -6 -5 -6v-3zM178 167h-5v9q0 12 7 12q6 0 6 -10q0 -7 -3 -9t-5 -2zM118 227h4l9 21
q3 6 5 6v3h-12v-3q6 0 3 -6l-5 -13l-4 10q-3 9 2 9v3h-16v-3q3 0 5 -6zM213 163q7 0 11 4l-2 3q-3 -3 -8 -3q-8 0 -8 10h17l1 3q0 13 -12 13q-14 0 -14 -15t15 -15zM153 227q15 0 15 15t-15 15t-15 -15t15 -15zM153 231q-7 0 -7 11t7 11t7 -11t-7 -11zM206 181q0 8 5 8
q6 0 6 -8h-11zM229 163h17v3q-6 0 -6 6v17h7v3h-7q0 11 4 11q5 0 5 -6h4v8q-2 2 -6 2q-14 0 -14 -14v-1h-5v-3h5v-17q0 -6 -4 -6v-3zM171 227h16v3q-4 0 -4 6v32q0 3 -2 3q-4 -2 -10 -2v-3q5 0 5 -4v-26q0 -6 -5 -6v-3zM262 167q-3 0 -3 4t9 6q0 -10 -6 -10zM259 163
q8 0 10 5q0 -5 2 -5l7 2v3q-3 0 -3 5v7q0 8 -3 10.5t-8 2.5q-6 0 -11 -3l1 -7h4q0 6 5 6t5 -9q-4 -1 -10.5 -3t-6.5 -8t8 -6zM191 227h15v3q-4 0 -4 6v32q0 3 -2 3q-4 -2 -10 -2v-3q5 0 5 -4v-26q0 -6 -4 -6v-3zM296 163q6 0 10 4l-2 3q-3 -3 -7 -3q-8 0 -8 11t6 11
q5 0 6 -7h4v8q-3 3 -9 3q-14 0 -14 -15t14 -15zM211 227h15v3q-4 0 -4 6v5l11 -14h9v3q-3 0 -14 14q6 6 8.5 7.5t4.5 1.5v3h-14v-3q3 0 3 -1q0 -2 -8 -9v25q0 3 -2 3q-4 -2 -10 -2v-3q5 0 5 -4v-26q0 -6 -4 -6v-3zM102 329v70h70v-70h-70zM112 339h50v50h-50v-50zM122 349
v30h30v-30h-30zM102 409v10h30v-10h-30zM102 429v10h10v10h10v-20h-20zM182 329v30h10v-20h10v20h10v10h10v-20h-10v-10h10v10h10v-20h-50zM306 227h15v3q-4 0 -4 6v6q0 11 7 11q5 0 5 -8v-9q0 -6 -4 -6v-3h15v3q-4 0 -4 6v10q0 11 -9 11q-8 0 -10 -7v3q0 3 -2 4
q-4 -2 -9 -2v-3q4 0 4 -5v-11q0 -6 -4 -6v-3zM182 379v10h10v-10h-10zM142 409v20h20v-10h20v-10h-40zM182 399v10h10v-10h-10zM242 339v20h10v-20h-10zM345 240h18v6h-18v-6zM132 459v10h10v-10h-10zM132 429v20h20v10h30v-20h-10v10h-10v-10h-20v-10h-10zM162 429v10h10
v-10h-10zM262 329v20h10v-20h-10zM102 459v40h30v-10h20v10h20v-10h-10v-10h20v-10h-30v10h-40v-10h10v-10h-20zM312 329v10h10v-10h-10zM92 319h270v270h-270v-270zM102 509v70h70v-70h-70zM112 519h50v50h-50v-50zM122 529v30h30v-30h-30zM272 379h30v30h-30v-30zM282 389
v10h10v-10h-10zM342 329v10h10v-10h-10zM232 469v10h10v-10h-10zM332 379v10h10v-10h-10zM282 339v10h20v10h-10v10h-10v-20h-10v10h-20v20h-10v10h-10v-20h-10v10h-10v-10h-20v10h10v10h-10v10h10v20h-20v20h10v30h10v-40h10v20h10v10h-10v20h-20v10h-10v50h20v20h-20v20
h10v-10h10v10h30v-20h-10v10h-10v-20h10v-10h-10v-10h-20v-30h10v20h10v-30h10v50h10v20h10v-10h10v-10h-10v-10h-10v-50h-10v-10h10v-30h-10v-20h10v-20h20v-10h10v10h-10v50h10v10h-20v10h10v20h10v-10h10v-50h-10v-10h30v20h-10v20h10v10h20v20h10v-10h10v-10h-10v-10
h-20v-40h10v-20h10v-10h-10v-10h10v-10h20v-10h10v-10h-20v10h-20v-20h-30zM322 399v10h10v-10h-10zM342 389v20h10v-20h-10zM332 409v10h10v-10h-10zM312 429v10h20v-10h-20zM242 509v10h10v-10h-10zM342 429v10h-10v10h10v10h10v-30h-10zM282 479v10h-20v40h10v-30h40v-10
h-10v-10h-20zM252 549v10h10v-10h-10zM262 539v10h10v-10h-10zM342 469v10h-10v20h20v-30h-10zM282 509v70h70v-70h-70zM292 519h50v50h-50v-50zM302 529v30h30v-30h-30zM278 227h18v3q-6 0 -6 6v5q0 10 5 10q3 0 3 -4h4v9q-1 1 -4 1q-5 0 -8 -7v3q0 3 -2 4q-4 -2 -10 -2v-3
q5 0 5 -5v-11q0 -6 -5 -6v-3zM259 227q15 0 15 15t-15 15t-15 -15t15 -15zM259 231q-7 0 -7 11t7 11t7 -11t-7 -11zM325 163q7 0 11 4l-2 3q-3 -3 -8 -3q-8 0 -8 10h17l1 3q0 13 -12 13q-14 0 -14 -15t15 -15zM318 181q0 8 5 8q6 0 6 -8h-11zM138 99q6 0 10 4l-2 3
q-3 -3 -7 -3q-8 0 -8 11t6 11q5 0 6 -7h4v8q-3 3 -9 3q-14 0 -14 -15t14 -15zM167 99q15 0 15 15t-15 15t-15 -15t15 -15zM167 103q-7 0 -7 11t7 11t7 -11t-7 -11zM215 114q0 11 7 11q5 0 5 -8v-9q0 -6 -4 -6v-3h15v3q-4 0 -4 6v10q0 11 -9 11q-8 0 -10 -6q-2 6 -9 6
q-8 0 -10 -7v3q0 3 -2 4q-4 -2 -9 -2v-3q4 0 4 -5v-11q0 -6 -4 -6v-3h15v3q-4 0 -4 6v6q0 11 7 11q5 0 5 -8v-9q0 -6 -4 -6v-3h15v3q-4 0 -4 6v6z" />
    <glyph glyph-name="A" unicode="A" horiz-adv-x="711" 
d="M374 682l229 -515q21 -45 33.5 -67.5t24 -30.5t26.5 -11q4 -13 5.5 -28t1.5 -33q-16 2 -42 2.5t-52.5 0.5h-42.5h-32t-42 -0.5t-41.5 -1t-30.5 -1.5q0 20 2 34.5t6 26.5q37 7 44 22t-11 55l-104 242q-21 46 -34 85t-24 81h22q-12 -43 -25 -83.5t-30 -82.5l-88 -227
q-15 -40 -7 -64t44 -28q4 -12 5.5 -27.5t1.5 -33.5q-11 1 -29.5 1.5t-39 1t-37.5 0.5q-25 0 -50 -0.5t-40 -2.5q0 17 2 32t7 29q17 3 29 12.5t23.5 31.5t27.5 60l209 515q16 4 28.5 4.5t30.5 0.5zM427 247l15 -55q-67 0 -140.5 -2t-141.5 -7l16 64h251z" />
    <glyph glyph-name="Aacute" unicode="&#xc1;" horiz-adv-x="711" 
d="M374 682l229 -515q21 -45 33.5 -67.5t24 -30.5t26.5 -11q4 -13 5.5 -28t1.5 -33q-16 2 -42 2.5t-52.5 0.5h-42.5h-32t-42 -0.5t-41.5 -1t-30.5 -1.5q0 20 2 34.5t6 26.5q37 7 44 22t-11 55l-104 242q-21 46 -34 85t-24 81h22q-12 -43 -25 -83.5t-30 -82.5l-88 -227
q-15 -40 -7 -64t44 -28q4 -12 5.5 -27.5t1.5 -33.5q-11 1 -29.5 1.5t-39 1t-37.5 0.5q-25 0 -50 -0.5t-40 -2.5q0 17 2 32t7 29q17 3 29 12.5t23.5 31.5t27.5 60l209 515q16 4 28.5 4.5t30.5 0.5zM427 247l15 -55q-67 0 -140.5 -2t-141.5 -7l16 64h251zM363 734
q-22 0 -39 2.5t-33 8.5q17 31 33 65t26 62q17 4 35.5 6t36.5 2q33 0 58 -7q-32 -34 -60 -68t-57 -71z" />
    <glyph glyph-name="Abreve" unicode="&#x102;" horiz-adv-x="711" 
d="M374 682l229 -515q21 -45 33.5 -67.5t24 -30.5t26.5 -11q4 -13 5.5 -28t1.5 -33q-16 2 -42 2.5t-52.5 0.5h-42.5h-32t-42 -0.5t-41.5 -1t-30.5 -1.5q0 20 2 34.5t6 26.5q37 7 44 22t-11 55l-104 242q-21 46 -34 85t-24 81h22q-12 -43 -25 -83.5t-30 -82.5l-88 -227
q-15 -40 -7 -64t44 -28q4 -12 5.5 -27.5t1.5 -33.5q-11 1 -29.5 1.5t-39 1t-37.5 0.5q-25 0 -50 -0.5t-40 -2.5q0 17 2 32t7 29q17 3 29 12.5t23.5 31.5t27.5 60l209 515q16 4 28.5 4.5t30.5 0.5zM427 247l15 -55q-67 0 -140.5 -2t-141.5 -7l16 64h251zM511 867
q0 -70 -43 -106.5t-125 -36.5q-80 0 -122 35.5t-42 103.5q16 7 36 10t40 0q5 -31 31.5 -47.5t67.5 -16.5t65.5 16.5t26.5 47.5q18 3 35 1t30 -7z" />
    <glyph glyph-name="uni1EAE" unicode="&#x1eae;" horiz-adv-x="711" 
d="M374 682l229 -515q21 -45 33.5 -67.5t24 -30.5t26.5 -11q4 -13 5.5 -28t1.5 -33q-16 2 -42 2.5t-52.5 0.5h-42.5h-32t-42 -0.5t-41.5 -1t-30.5 -1.5q0 20 2 34.5t6 26.5q37 7 44 22t-11 55l-104 242q-21 46 -34 85t-24 81h22q-12 -43 -25 -83.5t-30 -82.5l-88 -227
q-15 -40 -7 -64t44 -28q4 -12 5.5 -27.5t1.5 -33.5q-11 1 -29.5 1.5t-39 1t-37.5 0.5q-25 0 -50 -0.5t-40 -2.5q0 17 2 32t7 29q17 3 29 12.5t23.5 31.5t27.5 60l209 515q16 4 28.5 4.5t30.5 0.5zM427 247l15 -55q-67 0 -140.5 -2t-141.5 -7l16 64h251zM511 867
q0 -70 -43 -106.5t-125 -36.5q-80 0 -122 35.5t-42 103.5q16 7 36 10t40 0q5 -31 31.5 -47.5t67.5 -16.5t65.5 16.5t26.5 47.5q18 3 35 1t30 -7zM368 870q-22 0 -39 2.5t-33 8.5q17 31 33 65t26 62q17 4 35.5 6t36.5 2q33 0 58 -7q-32 -34 -60 -68t-57 -71z" />
    <glyph glyph-name="uni1EB6" unicode="&#x1eb6;" horiz-adv-x="711" 
d="M374 682l229 -515q21 -45 33.5 -67.5t24 -30.5t26.5 -11q4 -13 5.5 -28t1.5 -33q-16 2 -42 2.5t-52.5 0.5h-42.5h-32t-42 -0.5t-41.5 -1t-30.5 -1.5q0 20 2 34.5t6 26.5q37 7 44 22t-11 55l-104 242q-21 46 -34 85t-24 81h22q-12 -43 -25 -83.5t-30 -82.5l-88 -227
q-15 -40 -7 -64t44 -28q4 -12 5.5 -27.5t1.5 -33.5q-11 1 -29.5 1.5t-39 1t-37.5 0.5q-25 0 -50 -0.5t-40 -2.5q0 17 2 32t7 29q17 3 29 12.5t23.5 31.5t27.5 60l209 515q16 4 28.5 4.5t30.5 0.5zM427 247l15 -55q-67 0 -140.5 -2t-141.5 -7l16 64h251zM308 -224
q-36 0 -58.5 20t-22.5 50q0 36 25 56t60 20q41 0 63 -19.5t22 -55.5q0 -30 -24 -50.5t-65 -20.5zM511 867q0 -70 -43 -106.5t-125 -36.5q-80 0 -122 35.5t-42 103.5q16 7 36 10t40 0q5 -31 31.5 -47.5t67.5 -16.5t65.5 16.5t26.5 47.5q18 3 35 1t30 -7z" />
    <glyph glyph-name="uni1EB0" unicode="&#x1eb0;" horiz-adv-x="711" 
d="M374 682l229 -515q21 -45 33.5 -67.5t24 -30.5t26.5 -11q4 -13 5.5 -28t1.5 -33q-16 2 -42 2.5t-52.5 0.5h-42.5h-32t-42 -0.5t-41.5 -1t-30.5 -1.5q0 20 2 34.5t6 26.5q37 7 44 22t-11 55l-104 242q-21 46 -34 85t-24 81h22q-12 -43 -25 -83.5t-30 -82.5l-88 -227
q-15 -40 -7 -64t44 -28q4 -12 5.5 -27.5t1.5 -33.5q-11 1 -29.5 1.5t-39 1t-37.5 0.5q-25 0 -50 -0.5t-40 -2.5q0 17 2 32t7 29q17 3 29 12.5t23.5 31.5t27.5 60l209 515q16 4 28.5 4.5t30.5 0.5zM427 247l15 -55q-67 0 -140.5 -2t-141.5 -7l16 64h251zM511 867
q0 -70 -43 -106.5t-125 -36.5q-80 0 -122 35.5t-42 103.5q16 7 36 10t40 0q5 -31 31.5 -47.5t67.5 -16.5t65.5 16.5t26.5 47.5q18 3 35 1t30 -7zM327 872q-25 34 -51 64.5t-56 59.5q23 12 55.5 16t62.5 3q12 -30 29 -65t36 -67q-15 -6 -34.5 -8.5t-41.5 -2.5z" />
    <glyph glyph-name="uni1EB2" unicode="&#x1eb2;" horiz-adv-x="711" 
d="M374 682l229 -515q21 -45 33.5 -67.5t24 -30.5t26.5 -11q4 -13 5.5 -28t1.5 -33q-16 2 -42 2.5t-52.5 0.5h-42.5h-32t-42 -0.5t-41.5 -1t-30.5 -1.5q0 20 2 34.5t6 26.5q37 7 44 22t-11 55l-104 242q-21 46 -34 85t-24 81h22q-12 -43 -25 -83.5t-30 -82.5l-88 -227
q-15 -40 -7 -64t44 -28q4 -12 5.5 -27.5t1.5 -33.5q-11 1 -29.5 1.5t-39 1t-37.5 0.5q-25 0 -50 -0.5t-40 -2.5q0 17 2 32t7 29q17 3 29 12.5t23.5 31.5t27.5 60l209 515q16 4 28.5 4.5t30.5 0.5zM427 247l15 -55q-67 0 -140.5 -2t-141.5 -7l16 64h251zM511 867
q0 -70 -43 -106.5t-125 -36.5q-80 0 -122 35.5t-42 103.5q16 7 36 10t40 0q5 -31 31.5 -47.5t67.5 -16.5t65.5 16.5t26.5 47.5q18 3 35 1t30 -7zM320 862q-9 14 -9 29q0 17 8.5 27.5t19.5 18.5t19.5 17t8.5 21q0 11 -7 16.5t-18 5.5q-17 0 -27.5 -13t-15.5 -52
q-17 0 -31.5 3.5t-26.5 8.5q2 18 2.5 33.5t-2.5 30.5q19 13 45.5 22t64.5 9q47 0 72 -16t25 -46q0 -22 -11 -36t-25 -23t-25 -17t-11 -19q0 -6 3 -15q-13 -5 -29 -6t-30 1z" />
    <glyph glyph-name="uni1EB4" unicode="&#x1eb4;" horiz-adv-x="711" 
d="M374 682l229 -515q21 -45 33.5 -67.5t24 -30.5t26.5 -11q4 -13 5.5 -28t1.5 -33q-16 2 -42 2.5t-52.5 0.5h-42.5h-32t-42 -0.5t-41.5 -1t-30.5 -1.5q0 20 2 34.5t6 26.5q37 7 44 22t-11 55l-104 242q-21 46 -34 85t-24 81h22q-12 -43 -25 -83.5t-30 -82.5l-88 -227
q-15 -40 -7 -64t44 -28q4 -12 5.5 -27.5t1.5 -33.5q-11 1 -29.5 1.5t-39 1t-37.5 0.5q-25 0 -50 -0.5t-40 -2.5q0 17 2 32t7 29q17 3 29 12.5t23.5 31.5t27.5 60l209 515q16 4 28.5 4.5t30.5 0.5zM427 247l15 -55q-67 0 -140.5 -2t-141.5 -7l16 64h251zM511 867
q0 -70 -43 -106.5t-125 -36.5q-80 0 -122 35.5t-42 103.5q16 7 36 10t40 0q5 -31 31.5 -47.5t67.5 -16.5t65.5 16.5t26.5 47.5q18 3 35 1t30 -7zM397 905q-23 0 -40.5 6.5t-32.5 14.5t-30.5 15t-34.5 7q-21 0 -39 -10.5t-35 -29.5q-13 11 -19 24t-7 30q29 40 64 55t65 15
t52.5 -10t43 -20t42.5 -10q18 0 32.5 9t26.5 24q13 -2 25.5 -8t20.5 -16q-24 -47 -58.5 -71.5t-75.5 -24.5z" />
    <glyph glyph-name="uni01CD" unicode="&#x1cd;" horiz-adv-x="711" 
d="M374 682l229 -515q21 -45 33.5 -67.5t24 -30.5t26.5 -11q4 -13 5.5 -28t1.5 -33q-16 2 -42 2.5t-52.5 0.5h-42.5h-32t-42 -0.5t-41.5 -1t-30.5 -1.5q0 20 2 34.5t6 26.5q37 7 44 22t-11 55l-104 242q-21 46 -34 85t-24 81h22q-12 -43 -25 -83.5t-30 -82.5l-88 -227
q-15 -40 -7 -64t44 -28q4 -12 5.5 -27.5t1.5 -33.5q-11 1 -29.5 1.5t-39 1t-37.5 0.5q-25 0 -50 -0.5t-40 -2.5q0 17 2 32t7 29q17 3 29 12.5t23.5 31.5t27.5 60l209 515q16 4 28.5 4.5t30.5 0.5zM427 247l15 -55q-67 0 -140.5 -2t-141.5 -7l16 64h251zM300 728
q-26 28 -60.5 58t-76.5 60q11 14 26.5 24.5t38.5 15.5q26 -15 58 -32t61 -30q16 7 38 18t44.5 23t37.5 21q18 -3 28.5 -17t14.5 -27q-37 -22 -76.5 -50.5t-69.5 -55.5q-15 -5 -31 -6.5t-33 -1.5z" />
    <glyph glyph-name="Acircumflex" unicode="&#xc2;" horiz-adv-x="711" 
d="M374 682l229 -515q21 -45 33.5 -67.5t24 -30.5t26.5 -11q4 -13 5.5 -28t1.5 -33q-16 2 -42 2.5t-52.5 0.5h-42.5h-32t-42 -0.5t-41.5 -1t-30.5 -1.5q0 20 2 34.5t6 26.5q37 7 44 22t-11 55l-104 242q-21 46 -34 85t-24 81h22q-12 -43 -25 -83.5t-30 -82.5l-88 -227
q-15 -40 -7 -64t44 -28q4 -12 5.5 -27.5t1.5 -33.5q-11 1 -29.5 1.5t-39 1t-37.5 0.5q-25 0 -50 -0.5t-40 -2.5q0 17 2 32t7 29q17 3 29 12.5t23.5 31.5t27.5 60l209 515q16 4 28.5 4.5t30.5 0.5zM427 247l15 -55q-67 0 -140.5 -2t-141.5 -7l16 64h251zM214 728
q-17 4 -28 18t-15 26q37 22 76.5 50.5t69.5 56.5q15 4 31.5 5.5t31.5 1.5q27 -28 61.5 -57.5t76.5 -60.5q-11 -14 -26.5 -24.5t-39.5 -15.5q-25 16 -57 33t-61 30q-15 -7 -38 -18.5t-45 -23t-37 -21.5z" />
    <glyph glyph-name="uni1EA4" unicode="&#x1ea4;" horiz-adv-x="711" 
d="M374 682l229 -515q21 -45 33.5 -67.5t24 -30.5t26.5 -11q4 -13 5.5 -28t1.5 -33q-16 2 -42 2.5t-52.5 0.5h-42.5h-32t-42 -0.5t-41.5 -1t-30.5 -1.5q0 20 2 34.5t6 26.5q37 7 44 22t-11 55l-104 242q-21 46 -34 85t-24 81h22q-12 -43 -25 -83.5t-30 -82.5l-88 -227
q-15 -40 -7 -64t44 -28q4 -12 5.5 -27.5t1.5 -33.5q-11 1 -29.5 1.5t-39 1t-37.5 0.5q-25 0 -50 -0.5t-40 -2.5q0 17 2 32t7 29q17 3 29 12.5t23.5 31.5t27.5 60l209 515q16 4 28.5 4.5t30.5 0.5zM427 247l15 -55q-67 0 -140.5 -2t-141.5 -7l16 64h251zM520 859
q-21 0 -36.5 2.5t-29.5 8.5q15 28 29.5 59t24.5 57q15 4 32 6t34 2q29 0 52 -7q-28 -32 -54 -63t-52 -65zM214 728q-17 4 -28 18t-15 26q37 22 76.5 50.5t69.5 56.5q15 4 31.5 5.5t31.5 1.5q27 -28 61.5 -57.5t76.5 -60.5q-11 -14 -26.5 -24.5t-39.5 -15.5q-25 16 -57 33
t-61 30q-15 -7 -38 -18.5t-45 -23t-37 -21.5z" />
    <glyph glyph-name="uni1EAC" unicode="&#x1eac;" horiz-adv-x="711" 
d="M374 682l229 -515q21 -45 33.5 -67.5t24 -30.5t26.5 -11q4 -13 5.5 -28t1.5 -33q-16 2 -42 2.5t-52.5 0.5h-42.5h-32t-42 -0.5t-41.5 -1t-30.5 -1.5q0 20 2 34.5t6 26.5q37 7 44 22t-11 55l-104 242q-21 46 -34 85t-24 81h22q-12 -43 -25 -83.5t-30 -82.5l-88 -227
q-15 -40 -7 -64t44 -28q4 -12 5.5 -27.5t1.5 -33.5q-11 1 -29.5 1.5t-39 1t-37.5 0.5q-25 0 -50 -0.5t-40 -2.5q0 17 2 32t7 29q17 3 29 12.5t23.5 31.5t27.5 60l209 515q16 4 28.5 4.5t30.5 0.5zM427 247l15 -55q-67 0 -140.5 -2t-141.5 -7l16 64h251zM308 -224
q-36 0 -58.5 20t-22.5 50q0 36 25 56t60 20q41 0 63 -19.5t22 -55.5q0 -30 -24 -50.5t-65 -20.5zM214 728q-17 4 -28 18t-15 26q37 22 76.5 50.5t69.5 56.5q15 4 31.5 5.5t31.5 1.5q27 -28 61.5 -57.5t76.5 -60.5q-11 -14 -26.5 -24.5t-39.5 -15.5q-25 16 -57 33t-61 30
q-15 -7 -38 -18.5t-45 -23t-37 -21.5z" />
    <glyph glyph-name="uni1EA6" unicode="&#x1ea6;" horiz-adv-x="711" 
d="M374 682l229 -515q21 -45 33.5 -67.5t24 -30.5t26.5 -11q4 -13 5.5 -28t1.5 -33q-16 2 -42 2.5t-52.5 0.5h-42.5h-32t-42 -0.5t-41.5 -1t-30.5 -1.5q0 20 2 34.5t6 26.5q37 7 44 22t-11 55l-104 242q-21 46 -34 85t-24 81h22q-12 -43 -25 -83.5t-30 -82.5l-88 -227
q-15 -40 -7 -64t44 -28q4 -12 5.5 -27.5t1.5 -33.5q-11 1 -29.5 1.5t-39 1t-37.5 0.5q-25 0 -50 -0.5t-40 -2.5q0 17 2 32t7 29q17 3 29 12.5t23.5 31.5t27.5 60l209 515q16 4 28.5 4.5t30.5 0.5zM427 247l15 -55q-67 0 -140.5 -2t-141.5 -7l16 64h251zM214 728
q-17 4 -28 18t-15 26q37 22 76.5 50.5t69.5 56.5q15 4 31.5 5.5t31.5 1.5q27 -28 61.5 -57.5t76.5 -60.5q-11 -14 -26.5 -24.5t-39.5 -15.5q-25 16 -57 33t-61 30q-15 -7 -38 -18.5t-45 -23t-37 -21.5zM470 854q-25 34 -51 64.5t-56 59.5q23 12 55.5 16t62.5 3
q12 -30 29 -65t36 -67q-15 -6 -34.5 -8.5t-41.5 -2.5z" />
    <glyph glyph-name="uni1EA8" unicode="&#x1ea8;" horiz-adv-x="711" 
d="M374 682l229 -515q21 -45 33.5 -67.5t24 -30.5t26.5 -11q4 -13 5.5 -28t1.5 -33q-16 2 -42 2.5t-52.5 0.5h-42.5h-32t-42 -0.5t-41.5 -1t-30.5 -1.5q0 20 2 34.5t6 26.5q37 7 44 22t-11 55l-104 242q-21 46 -34 85t-24 81h22q-12 -43 -25 -83.5t-30 -82.5l-88 -227
q-15 -40 -7 -64t44 -28q4 -12 5.5 -27.5t1.5 -33.5q-11 1 -29.5 1.5t-39 1t-37.5 0.5q-25 0 -50 -0.5t-40 -2.5q0 17 2 32t7 29q17 3 29 12.5t23.5 31.5t27.5 60l209 515q16 4 28.5 4.5t30.5 0.5zM427 247l15 -55q-67 0 -140.5 -2t-141.5 -7l16 64h251zM214 728
q-17 4 -28 18t-15 26q37 22 76.5 50.5t69.5 56.5q15 4 31.5 5.5t31.5 1.5q27 -28 61.5 -57.5t76.5 -60.5q-11 -14 -26.5 -24.5t-39.5 -15.5q-25 16 -57 33t-61 30q-15 -7 -38 -18.5t-45 -23t-37 -21.5zM466 865q-9 14 -9 29q0 17 8.5 27.5t19.5 18.5t19.5 17t8.5 21
q0 11 -7 16.5t-18 5.5q-17 0 -27.5 -13t-15.5 -52q-17 0 -31.5 3.5t-26.5 8.5q2 18 2.5 33.5t-2.5 30.5q19 13 45.5 22t64.5 9q47 0 72 -16t25 -46q0 -22 -11 -36t-25 -23t-25 -17t-11 -19q0 -6 3 -15q-13 -5 -29 -6t-30 1z" />
    <glyph glyph-name="uni1EAA" unicode="&#x1eaa;" horiz-adv-x="711" 
d="M374 682l229 -515q21 -45 33.5 -67.5t24 -30.5t26.5 -11q4 -13 5.5 -28t1.5 -33q-16 2 -42 2.5t-52.5 0.5h-42.5h-32t-42 -0.5t-41.5 -1t-30.5 -1.5q0 20 2 34.5t6 26.5q37 7 44 22t-11 55l-104 242q-21 46 -34 85t-24 81h22q-12 -43 -25 -83.5t-30 -82.5l-88 -227
q-15 -40 -7 -64t44 -28q4 -12 5.5 -27.5t1.5 -33.5q-11 1 -29.5 1.5t-39 1t-37.5 0.5q-25 0 -50 -0.5t-40 -2.5q0 17 2 32t7 29q17 3 29 12.5t23.5 31.5t27.5 60l209 515q16 4 28.5 4.5t30.5 0.5zM427 247l15 -55q-67 0 -140.5 -2t-141.5 -7l16 64h251zM214 728
q-17 4 -28 18t-15 26q37 22 76.5 50.5t69.5 56.5q15 4 31.5 5.5t31.5 1.5q27 -28 61.5 -57.5t76.5 -60.5q-11 -14 -26.5 -24.5t-39.5 -15.5q-25 16 -57 33t-61 30q-15 -7 -38 -18.5t-45 -23t-37 -21.5zM397 931q-23 0 -40.5 6.5t-32.5 14.5t-30.5 15t-34.5 7
q-21 0 -39 -10.5t-35 -29.5q-13 11 -19 24t-7 30q29 40 64 55t65 15t52.5 -10t43 -20t42.5 -10q18 0 32.5 9t26.5 24q13 -2 25.5 -8t20.5 -16q-24 -47 -58.5 -71.5t-75.5 -24.5z" />
    <glyph glyph-name="uni0200" unicode="&#x200;" horiz-adv-x="711" 
d="M374 682l229 -515q21 -45 33.5 -67.5t24 -30.5t26.5 -11q4 -13 5.5 -28t1.5 -33q-16 2 -42 2.5t-52.5 0.5h-42.5h-32t-42 -0.5t-41.5 -1t-30.5 -1.5q0 20 2 34.5t6 26.5q37 7 44 22t-11 55l-104 242q-21 46 -34 85t-24 81h22q-12 -43 -25 -83.5t-30 -82.5l-88 -227
q-15 -40 -7 -64t44 -28q4 -12 5.5 -27.5t1.5 -33.5q-11 1 -29.5 1.5t-39 1t-37.5 0.5q-25 0 -50 -0.5t-40 -2.5q0 17 2 32t7 29q17 3 29 12.5t23.5 31.5t27.5 60l209 515q16 4 28.5 4.5t30.5 0.5zM427 247l15 -55q-67 0 -140.5 -2t-141.5 -7l16 64h251zM236 718
q-28 35 -54.5 65.5t-56.5 59.5q23 11 55.5 15.5t62.5 3.5q12 -29 29 -65t36 -67q-15 -6 -32.5 -9t-39.5 -3zM412 718q-26 35 -52 66t-54 61q22 10 53 14t60 3q12 -29 29 -65t36 -67q-15 -6 -32 -9t-40 -3z" />
    <glyph glyph-name="Adieresis" unicode="&#xc4;" horiz-adv-x="711" 
d="M374 682l229 -515q21 -45 33.5 -67.5t24 -30.5t26.5 -11q4 -13 5.5 -28t1.5 -33q-16 2 -42 2.5t-52.5 0.5h-42.5h-32t-42 -0.5t-41.5 -1t-30.5 -1.5q0 20 2 34.5t6 26.5q37 7 44 22t-11 55l-104 242q-21 46 -34 85t-24 81h22q-12 -43 -25 -83.5t-30 -82.5l-88 -227
q-15 -40 -7 -64t44 -28q4 -12 5.5 -27.5t1.5 -33.5q-11 1 -29.5 1.5t-39 1t-37.5 0.5q-25 0 -50 -0.5t-40 -2.5q0 17 2 32t7 29q17 3 29 12.5t23.5 31.5t27.5 60l209 515q16 4 28.5 4.5t30.5 0.5zM427 247l15 -55q-67 0 -140.5 -2t-141.5 -7l16 64h251zM461 725
q-40 0 -60.5 21t-20.5 54q0 31 21 48.5t56 17.5q34 0 56 -19t22 -47q0 -29 -17 -52t-57 -23zM233 725q-35 0 -56.5 19.5t-21.5 47.5t18 51t57 23q41 0 59.5 -21t18.5 -51q0 -29 -21.5 -49t-53.5 -20z" />
    <glyph glyph-name="uni1EA0" unicode="&#x1ea0;" horiz-adv-x="711" 
d="M374 682l229 -515q21 -45 33.5 -67.5t24 -30.5t26.5 -11q4 -13 5.5 -28t1.5 -33q-16 2 -42 2.5t-52.5 0.5h-42.5h-32t-42 -0.5t-41.5 -1t-30.5 -1.5q0 20 2 34.5t6 26.5q37 7 44 22t-11 55l-104 242q-21 46 -34 85t-24 81h22q-12 -43 -25 -83.5t-30 -82.5l-88 -227
q-15 -40 -7 -64t44 -28q4 -12 5.5 -27.5t1.5 -33.5q-11 1 -29.5 1.5t-39 1t-37.5 0.5q-25 0 -50 -0.5t-40 -2.5q0 17 2 32t7 29q17 3 29 12.5t23.5 31.5t27.5 60l209 515q16 4 28.5 4.5t30.5 0.5zM427 247l15 -55q-67 0 -140.5 -2t-141.5 -7l16 64h251zM308 -224
q-36 0 -58.5 20t-22.5 50q0 36 25 56t60 20q41 0 63 -19.5t22 -55.5q0 -30 -24 -50.5t-65 -20.5z" />
    <glyph glyph-name="Agrave" unicode="&#xc0;" horiz-adv-x="711" 
d="M374 682l229 -515q21 -45 33.5 -67.5t24 -30.5t26.5 -11q4 -13 5.5 -28t1.5 -33q-16 2 -42 2.5t-52.5 0.5h-42.5h-32t-42 -0.5t-41.5 -1t-30.5 -1.5q0 20 2 34.5t6 26.5q37 7 44 22t-11 55l-104 242q-21 46 -34 85t-24 81h22q-12 -43 -25 -83.5t-30 -82.5l-88 -227
q-15 -40 -7 -64t44 -28q4 -12 5.5 -27.5t1.5 -33.5q-11 1 -29.5 1.5t-39 1t-37.5 0.5q-25 0 -50 -0.5t-40 -2.5q0 17 2 32t7 29q17 3 29 12.5t23.5 31.5t27.5 60l209 515q16 4 28.5 4.5t30.5 0.5zM427 247l15 -55q-67 0 -140.5 -2t-141.5 -7l16 64h251zM322 734
q-25 34 -51 64.5t-56 59.5q23 12 55.5 16t62.5 3q12 -30 29 -65t36 -67q-15 -6 -34.5 -8.5t-41.5 -2.5z" />
    <glyph glyph-name="uni1EA2" unicode="&#x1ea2;" horiz-adv-x="711" 
d="M374 682l229 -515q21 -45 33.5 -67.5t24 -30.5t26.5 -11q4 -13 5.5 -28t1.5 -33q-16 2 -42 2.5t-52.5 0.5h-42.5h-32t-42 -0.5t-41.5 -1t-30.5 -1.5q0 20 2 34.5t6 26.5q37 7 44 22t-11 55l-104 242q-21 46 -34 85t-24 81h22q-12 -43 -25 -83.5t-30 -82.5l-88 -227
q-15 -40 -7 -64t44 -28q4 -12 5.5 -27.5t1.5 -33.5q-11 1 -29.5 1.5t-39 1t-37.5 0.5q-25 0 -50 -0.5t-40 -2.5q0 17 2 32t7 29q17 3 29 12.5t23.5 31.5t27.5 60l209 515q16 4 28.5 4.5t30.5 0.5zM427 247l15 -55q-67 0 -140.5 -2t-141.5 -7l16 64h251zM320 722q-9 14 -9 29
q0 17 8.5 27.5t19.5 18.5t19.5 17t8.5 21q0 11 -7 16.5t-18 5.5q-17 0 -27.5 -13t-15.5 -52q-17 0 -31.5 3.5t-26.5 8.5q2 18 2.5 33.5t-2.5 30.5q19 13 45.5 22t64.5 9q47 0 72 -16t25 -46q0 -22 -11 -36t-25 -23t-25 -17t-11 -19q0 -6 3 -15q-13 -5 -29 -6t-30 1z" />
    <glyph glyph-name="uni0202" unicode="&#x202;" horiz-adv-x="711" 
d="M374 682l229 -515q21 -45 33.5 -67.5t24 -30.5t26.5 -11q4 -13 5.5 -28t1.5 -33q-16 2 -42 2.5t-52.5 0.5h-42.5h-32t-42 -0.5t-41.5 -1t-30.5 -1.5q0 20 2 34.5t6 26.5q37 7 44 22t-11 55l-104 242q-21 46 -34 85t-24 81h22q-12 -43 -25 -83.5t-30 -82.5l-88 -227
q-15 -40 -7 -64t44 -28q4 -12 5.5 -27.5t1.5 -33.5q-11 1 -29.5 1.5t-39 1t-37.5 0.5q-25 0 -50 -0.5t-40 -2.5q0 17 2 32t7 29q17 3 29 12.5t23.5 31.5t27.5 60l209 515q16 4 28.5 4.5t30.5 0.5zM427 247l15 -55q-67 0 -140.5 -2t-141.5 -7l16 64h251zM179 732
q0 70 43 106.5t125 36.5q80 0 122 -35t42 -104q-16 -7 -36 -9.5t-40 -0.5q-5 31 -31.5 47.5t-67.5 16.5t-65.5 -16.5t-26.5 -47.5q-18 -3 -34.5 -1t-30.5 7z" />
    <glyph glyph-name="Amacron" unicode="&#x100;" horiz-adv-x="711" 
d="M374 682l229 -515q21 -45 33.5 -67.5t24 -30.5t26.5 -11q4 -13 5.5 -28t1.5 -33q-16 2 -42 2.5t-52.5 0.5h-42.5h-32t-42 -0.5t-41.5 -1t-30.5 -1.5q0 20 2 34.5t6 26.5q37 7 44 22t-11 55l-104 242q-21 46 -34 85t-24 81h22q-12 -43 -25 -83.5t-30 -82.5l-88 -227
q-15 -40 -7 -64t44 -28q4 -12 5.5 -27.5t1.5 -33.5q-11 1 -29.5 1.5t-39 1t-37.5 0.5q-25 0 -50 -0.5t-40 -2.5q0 17 2 32t7 29q17 3 29 12.5t23.5 31.5t27.5 60l209 515q16 4 28.5 4.5t30.5 0.5zM427 247l15 -55q-67 0 -140.5 -2t-141.5 -7l16 64h251zM534 817
q0 -10 -2 -25t-7 -29q-44 0 -102.5 -1t-126.5 -2.5t-141 -5.5q0 14 2 32t7 31h370z" />
    <glyph glyph-name="Aogonek" unicode="&#x104;" horiz-adv-x="711" 
d="M374 682l229 -515q21 -45 33.5 -67.5t24 -30.5t26.5 -11q4 -13 5.5 -28t1.5 -33q-16 2 -42 2.5t-52.5 0.5h-42.5h-32t-42 -0.5t-41.5 -1t-30.5 -1.5q0 20 2 34.5t6 26.5q37 7 44 22t-11 55l-104 242q-21 46 -34 85t-24 81h22q-12 -43 -25 -83.5t-30 -82.5l-88 -227
q-15 -40 -7 -64t44 -28q4 -12 5.5 -27.5t1.5 -33.5q-11 1 -29.5 1.5t-39 1t-37.5 0.5q-25 0 -50 -0.5t-40 -2.5q0 17 2 32t7 29q17 3 29 12.5t23.5 31.5t27.5 60l209 515q16 4 28.5 4.5t30.5 0.5zM427 247l15 -55q-67 0 -140.5 -2t-141.5 -7l16 64h251zM585 23l30 -23
q-56 -17 -78.5 -44t-22.5 -51t18 -36.5t52 -12.5q9 0 18.5 1.5t18.5 3.5q5 -6 8 -17t4.5 -23.5t0.5 -22.5q-28 -8 -56 -19.5t-50 -26.5q-5 -1 -10 -1h-11q-22 0 -49 10t-47 33t-20 62q0 54 46.5 95.5t147.5 71.5z" />
    <glyph glyph-name="Aring" unicode="&#xc5;" horiz-adv-x="711" 
d="M374 682l229 -515q21 -45 33.5 -67.5t24 -30.5t26.5 -11q4 -13 5.5 -28t1.5 -33q-16 2 -42 2.5t-52.5 0.5h-42.5h-32t-42 -0.5t-41.5 -1t-30.5 -1.5q0 20 2 34.5t6 26.5q37 7 44 22t-11 55l-104 242q-21 46 -34 85t-24 81h22q-12 -43 -25 -83.5t-30 -82.5l-88 -227
q-15 -40 -7 -64t44 -28q4 -12 5.5 -27.5t1.5 -33.5q-11 1 -29.5 1.5t-39 1t-37.5 0.5q-25 0 -50 -0.5t-40 -2.5q0 17 2 32t7 29q17 3 29 12.5t23.5 31.5t27.5 60l209 515q16 4 28.5 4.5t30.5 0.5zM427 247l15 -55q-67 0 -140.5 -2t-141.5 -7l16 64h251zM340 718
q-45 0 -77 21.5t-32 60.5q0 40 33.5 63.5t84.5 23.5q45 0 77.5 -19.5t32.5 -61.5q0 -39 -33.5 -63.5t-85.5 -24.5zM348 757q15 0 26 11t11 31q0 17 -10.5 35t-33.5 18q-16 0 -26 -12.5t-10 -34.5q0 -21 11 -34.5t32 -13.5z" />
    <glyph glyph-name="Aringacute" unicode="&#x1fa;" horiz-adv-x="711" 
d="M374 682l229 -515q21 -45 33.5 -67.5t24 -30.5t26.5 -11q4 -13 5.5 -28t1.5 -33q-16 2 -42 2.5t-52.5 0.5h-42.5h-32t-42 -0.5t-41.5 -1t-30.5 -1.5q0 20 2 34.5t6 26.5q37 7 44 22t-11 55l-104 242q-21 46 -34 85t-24 81h22q-12 -43 -25 -83.5t-30 -82.5l-88 -227
q-15 -40 -7 -64t44 -28q4 -12 5.5 -27.5t1.5 -33.5q-11 1 -29.5 1.5t-39 1t-37.5 0.5q-25 0 -50 -0.5t-40 -2.5q0 17 2 32t7 29q17 3 29 12.5t23.5 31.5t27.5 60l209 515q16 4 28.5 4.5t30.5 0.5zM427 247l15 -55q-67 0 -140.5 -2t-141.5 -7l16 64h251zM340 718
q-45 0 -77 21.5t-32 60.5q0 40 33.5 63.5t84.5 23.5q45 0 77.5 -19.5t32.5 -61.5q0 -39 -33.5 -63.5t-85.5 -24.5zM348 757q15 0 26 11t11 31q0 17 -10.5 35t-33.5 18q-16 0 -26 -12.5t-10 -34.5q0 -21 11 -34.5t32 -13.5zM363 945q-22 0 -39 2.5t-33 8.5q17 31 33 65t26 62
q17 4 35.5 6t36.5 2q33 0 58 -7q-32 -34 -60 -68t-57 -71z" />
    <glyph glyph-name="Atilde" unicode="&#xc3;" horiz-adv-x="711" 
d="M374 682l229 -515q21 -45 33.5 -67.5t24 -30.5t26.5 -11q4 -13 5.5 -28t1.5 -33q-16 2 -42 2.5t-52.5 0.5h-42.5h-32t-42 -0.5t-41.5 -1t-30.5 -1.5q0 20 2 34.5t6 26.5q37 7 44 22t-11 55l-104 242q-21 46 -34 85t-24 81h22q-12 -43 -25 -83.5t-30 -82.5l-88 -227
q-15 -40 -7 -64t44 -28q4 -12 5.5 -27.5t1.5 -33.5q-11 1 -29.5 1.5t-39 1t-37.5 0.5q-25 0 -50 -0.5t-40 -2.5q0 17 2 32t7 29q17 3 29 12.5t23.5 31.5t27.5 60l209 515q16 4 28.5 4.5t30.5 0.5zM427 247l15 -55q-67 0 -140.5 -2t-141.5 -7l16 64h251zM397 741
q-23 0 -40.5 6.5t-32.5 14.5t-30.5 15t-34.5 7q-21 0 -39 -10.5t-35 -29.5q-13 11 -19 24t-7 30q29 40 64 55t65 15t52.5 -10t43 -20t42.5 -10q18 0 32.5 9t26.5 24q13 -2 25.5 -8t20.5 -16q-24 -47 -58.5 -71.5t-75.5 -24.5z" />
    <glyph glyph-name="AE" unicode="&#xc6;" horiz-adv-x="958" 
d="M287 347h352q35 0 53 7t25.5 24t7.5 47q16 5 34 7.5t35 2.5q0 -13 -0.5 -30.5t-1 -39t-0.5 -45.5q0 -20 0.5 -42.5t1 -42t0.5 -33.5q-17 0 -35.5 1t-31.5 7q-2 29 -9 47.5t-25.5 26.5t-56.5 8q-92 0 -164.5 -1.5t-124.5 -4.5t-86 -7zM460 540q0 22 1.5 44.5t4.5 46
t8 45.5h135v-510q0 -44 8 -67t24.5 -30.5t41.5 -7.5l-4 -61h-78t-83 -0.5t-75.5 -1t-55.5 -1.5q0 18 2 33.5t6 27.5q26 3 40 11t19.5 30t5.5 65v376zM578 676q104 0 176 1t119 2q1 -42 7.5 -89t13.5 -79q-6 -5 -19.5 -9t-28.5 -5.5t-26 -1.5q-4 34 -18 61.5t-45 44.5t-88 17
h-106zM490 676q-10 -27 -17.5 -45.5t-17 -37t-26.5 -47.5q-28 -48 -60.5 -104.5t-63.5 -111t-56 -99t-39 -68.5q-18 -36 -21 -58t9 -33t36 -15q5 -11 6.5 -26.5t1.5 -33.5q-23 2 -54.5 2.5t-56.5 0.5q-16 0 -39 -0.5t-44 -1t-31 -1.5q0 15 2 32.5t7 28.5q20 2 35 10
t30.5 27.5t37.5 56.5l223 385q23 40 14.5 58t-51.5 22q-4 9 -6.5 28t-2.5 33q26 0 58.5 -0.5t66 -1t59.5 -0.5zM588 61h117q47 0 74 13t44 41.5t34 76.5q22 -4 42 -11.5t32 -17.5q-11 -34 -19 -78.5t-12 -86.5q-27 0 -67 0.5t-85 1t-87 0.5h-73v61z" />
    <glyph glyph-name="AEacute" unicode="&#x1fc;" horiz-adv-x="958" 
d="M287 347h352q35 0 53 7t25.5 24t7.5 47q16 5 34 7.5t35 2.5q0 -13 -0.5 -30.5t-1 -39t-0.5 -45.5q0 -20 0.5 -42.5t1 -42t0.5 -33.5q-17 0 -35.5 1t-31.5 7q-2 29 -9 47.5t-25.5 26.5t-56.5 8q-92 0 -164.5 -1.5t-124.5 -4.5t-86 -7zM460 540q0 22 1.5 44.5t4.5 46
t8 45.5h135v-510q0 -44 8 -67t24.5 -30.5t41.5 -7.5l-4 -61h-78t-83 -0.5t-75.5 -1t-55.5 -1.5q0 18 2 33.5t6 27.5q26 3 40 11t19.5 30t5.5 65v376zM578 676q104 0 176 1t119 2q1 -42 7.5 -89t13.5 -79q-6 -5 -19.5 -9t-28.5 -5.5t-26 -1.5q-4 34 -18 61.5t-45 44.5t-88 17
h-106zM490 676q-10 -27 -17.5 -45.5t-17 -37t-26.5 -47.5q-28 -48 -60.5 -104.5t-63.5 -111t-56 -99t-39 -68.5q-18 -36 -21 -58t9 -33t36 -15q5 -11 6.5 -26.5t1.5 -33.5q-23 2 -54.5 2.5t-56.5 0.5q-16 0 -39 -0.5t-44 -1t-31 -1.5q0 15 2 32.5t7 28.5q20 2 35 10
t30.5 27.5t37.5 56.5l223 385q23 40 14.5 58t-51.5 22q-4 9 -6.5 28t-2.5 33q26 0 58.5 -0.5t66 -1t59.5 -0.5zM588 61h117q47 0 74 13t44 41.5t34 76.5q22 -4 42 -11.5t32 -17.5q-11 -34 -19 -78.5t-12 -86.5q-27 0 -67 0.5t-85 1t-87 0.5h-73v61zM557 734q-22 0 -39 2.5
t-33 8.5q17 31 33 65t26 62q17 4 35.5 6t36.5 2q33 0 58 -7q-32 -34 -60 -68t-57 -71z" />
    <glyph glyph-name="B" unicode="B" horiz-adv-x="670" 
d="M43 679q19 -1 49.5 -2t56.5 -1t59.5 0.5t68 1t60.5 0.5q84 0 139 -15t82 -48t27 -88q0 -61 -40 -104.5t-112 -53.5q62 -4 105.5 -23.5t66.5 -56.5t23 -94q0 -56 -28 -100t-89 -69.5t-163 -25.5h-77.5t-82.5 -0.5t-78.5 -1t-67.5 -1.5q0 18 1.5 34t5.5 27q27 2 41.5 10.5
t20.5 30.5t6 65v355q0 39 -5.5 59.5t-20.5 28.5t-42 11q-4 11 -5 29t-1 32zM266 639v-480q0 -43 8.5 -64.5t27 -28.5t45.5 -7q54 0 84.5 33t30.5 91q0 41 -13.5 68t-37.5 41.5t-55 21t-66 6.5h-50v60h60q48 0 77 15t42 42t13 62q0 42 -18 68t-45.5 38t-58.5 12q-16 0 -29 -3
t-29 -9z" />
    <glyph glyph-name="C" unicode="C" horiz-adv-x="643" 
d="M367 -9q-99 0 -173.5 44.5t-116.5 123.5t-42 183q0 85 28 149.5t76 107.5t109 64.5t126 21.5q59 0 113.5 -13.5t107.5 -38.5q-6 -34 -8.5 -74t-2.5 -81q-13 -6 -35 -9t-42 -3q-1 61 -17 96t-44 49t-66 14q-51 0 -87 -21.5t-58 -57.5t-32.5 -82t-10.5 -96q0 -84 25.5 -152
t75.5 -107.5t124 -39.5q41 0 84.5 13t84.5 37q8 -7 14.5 -19t8.5 -24q-47 -38 -105.5 -61.5t-136.5 -23.5z" />
    <glyph glyph-name="Cacute" unicode="&#x106;" horiz-adv-x="643" 
d="M367 -9q-99 0 -173.5 44.5t-116.5 123.5t-42 183q0 85 28 149.5t76 107.5t109 64.5t126 21.5q59 0 113.5 -13.5t107.5 -38.5q-6 -34 -8.5 -74t-2.5 -81q-13 -6 -35 -9t-42 -3q-1 61 -17 96t-44 49t-66 14q-51 0 -87 -21.5t-58 -57.5t-32.5 -82t-10.5 -96q0 -84 25.5 -152
t75.5 -107.5t124 -39.5q41 0 84.5 13t84.5 37q8 -7 14.5 -19t8.5 -24q-47 -38 -105.5 -61.5t-136.5 -23.5zM394 734q-22 0 -39 2.5t-33 8.5q17 31 33 65t26 62q17 4 35.5 6t36.5 2q33 0 58 -7q-32 -34 -60 -68t-57 -71z" />
    <glyph glyph-name="Ccaron" unicode="&#x10c;" horiz-adv-x="643" 
d="M367 -9q-99 0 -173.5 44.5t-116.5 123.5t-42 183q0 85 28 149.5t76 107.5t109 64.5t126 21.5q59 0 113.5 -13.5t107.5 -38.5q-6 -34 -8.5 -74t-2.5 -81q-13 -6 -35 -9t-42 -3q-1 61 -17 96t-44 49t-66 14q-51 0 -87 -21.5t-58 -57.5t-32.5 -82t-10.5 -96q0 -84 25.5 -152
t75.5 -107.5t124 -39.5q41 0 84.5 13t84.5 37q8 -7 14.5 -19t8.5 -24q-47 -38 -105.5 -61.5t-136.5 -23.5zM331 728q-26 28 -60.5 58t-76.5 60q11 14 26.5 24.5t38.5 15.5q26 -15 58 -32t61 -30q16 7 38 18t44.5 23t37.5 21q18 -3 28.5 -17t14.5 -27q-37 -22 -76.5 -50.5
t-69.5 -55.5q-15 -5 -31 -6.5t-33 -1.5z" />
    <glyph glyph-name="Ccedilla" unicode="&#xc7;" horiz-adv-x="643" 
d="M367 -9q-99 0 -173.5 44.5t-116.5 123.5t-42 183q0 85 28 149.5t76 107.5t109 64.5t126 21.5q59 0 113.5 -13.5t107.5 -38.5q-6 -34 -8.5 -74t-2.5 -81q-13 -6 -35 -9t-42 -3q-1 61 -17 96t-44 49t-66 14q-51 0 -87 -21.5t-58 -57.5t-32.5 -82t-10.5 -96q0 -84 25.5 -152
t75.5 -107.5t124 -39.5q41 0 84.5 13t84.5 37q8 -7 14.5 -19t8.5 -24q-47 -38 -105.5 -61.5t-136.5 -23.5zM297 -242q-5 9 -6.5 21t-1.5 21q31 0 54.5 12.5t23.5 36.5q0 21 -17.5 33t-43.5 12q-7 8 -12.5 19t-5.5 24l58 79h62l-46 -62q42 -7 65 -32.5t23 -60.5
q0 -33 -20.5 -56t-55.5 -35t-77 -12z" />
    <glyph glyph-name="uni1E08" unicode="&#x1e08;" horiz-adv-x="643" 
d="M367 -9q-99 0 -173.5 44.5t-116.5 123.5t-42 183q0 85 28 149.5t76 107.5t109 64.5t126 21.5q59 0 113.5 -13.5t107.5 -38.5q-6 -34 -8.5 -74t-2.5 -81q-13 -6 -35 -9t-42 -3q-1 61 -17 96t-44 49t-66 14q-51 0 -87 -21.5t-58 -57.5t-32.5 -82t-10.5 -96q0 -84 25.5 -152
t75.5 -107.5t124 -39.5q41 0 84.5 13t84.5 37q8 -7 14.5 -19t8.5 -24q-47 -38 -105.5 -61.5t-136.5 -23.5zM297 -242q-5 9 -6.5 21t-1.5 21q31 0 54.5 12.5t23.5 36.5q0 21 -17.5 33t-43.5 12q-7 8 -12.5 19t-5.5 24l58 79h62l-46 -62q42 -7 65 -32.5t23 -60.5
q0 -33 -20.5 -56t-55.5 -35t-77 -12zM394 734q-22 0 -39 2.5t-33 8.5q17 31 33 65t26 62q17 4 35.5 6t36.5 2q33 0 58 -7q-32 -34 -60 -68t-57 -71z" />
    <glyph glyph-name="Ccircumflex" unicode="&#x108;" horiz-adv-x="643" 
d="M367 -9q-99 0 -173.5 44.5t-116.5 123.5t-42 183q0 85 28 149.5t76 107.5t109 64.5t126 21.5q59 0 113.5 -13.5t107.5 -38.5q-6 -34 -8.5 -74t-2.5 -81q-13 -6 -35 -9t-42 -3q-1 61 -17 96t-44 49t-66 14q-51 0 -87 -21.5t-58 -57.5t-32.5 -82t-10.5 -96q0 -84 25.5 -152
t75.5 -107.5t124 -39.5q41 0 84.5 13t84.5 37q8 -7 14.5 -19t8.5 -24q-47 -38 -105.5 -61.5t-136.5 -23.5zM245 728q-17 4 -28 18t-15 26q37 22 76.5 50.5t69.5 56.5q15 4 31.5 5.5t31.5 1.5q27 -28 61.5 -57.5t76.5 -60.5q-11 -14 -26.5 -24.5t-39.5 -15.5q-25 16 -57 33
t-61 30q-15 -7 -38 -18.5t-45 -23t-37 -21.5z" />
    <glyph glyph-name="Cdotaccent" unicode="&#x10a;" horiz-adv-x="643" 
d="M367 -9q-99 0 -173.5 44.5t-116.5 123.5t-42 183q0 85 28 149.5t76 107.5t109 64.5t126 21.5q59 0 113.5 -13.5t107.5 -38.5q-6 -34 -8.5 -74t-2.5 -81q-13 -6 -35 -9t-42 -3q-1 61 -17 96t-44 49t-66 14q-51 0 -87 -21.5t-58 -57.5t-32.5 -82t-10.5 -96q0 -84 25.5 -152
t75.5 -107.5t124 -39.5q41 0 84.5 13t84.5 37q8 -7 14.5 -19t8.5 -24q-47 -38 -105.5 -61.5t-136.5 -23.5zM371 717q-36 0 -58.5 19.5t-22.5 50.5q0 36 25 55.5t60 19.5q41 0 63 -19.5t22 -54.5q0 -31 -24 -51t-65 -20z" />
    <glyph glyph-name="D" unicode="D" horiz-adv-x="735" 
d="M42 -3q0 18 1.5 34t5.5 27q27 2 41.5 10.5t20.5 30.5t6 65v355q0 39 -5.5 59.5t-20.5 28.5t-42 11q-4 11 -5 29t-1 32q20 -1 50 -1.5t63.5 -1t62.5 -0.5q25 0 53 1t58 1q56 0 110 -7.5t101 -27.5t82.5 -56.5t56 -93t20.5 -138.5q0 -81 -20 -139t-53 -97t-73.5 -63
t-82.5 -36t-79.5 -16t-63.5 -4q-27 0 -68 -0.5t-84 -1t-79.5 -1t-54.5 -0.5zM350 61q34 0 69 10.5t63.5 40t45.5 84t17 142.5q0 81 -18.5 135.5t-50 86.5t-71.5 46.5t-83 14.5q-19 0 -39 -4.5t-28 -10.5l11 35v-475q0 -42 7 -64.5t25.5 -31.5t51.5 -9z" />
    <glyph glyph-name="uni01F1" unicode="&#x1f1;" horiz-adv-x="1342" 
d="M42 -3q0 18 1.5 34t5.5 27q27 2 41.5 10.5t20.5 30.5t6 65v355q0 39 -5.5 59.5t-20.5 28.5t-42 11q-4 11 -5 29t-1 32q20 -1 50 -1.5t63.5 -1t62.5 -0.5q25 0 53 1t58 1q56 0 110 -7.5t101 -27.5t82.5 -56.5t56 -93t20.5 -138.5q0 -81 -20 -139t-53 -97t-73.5 -63
t-82.5 -36t-79.5 -16t-63.5 -4q-27 0 -68 -0.5t-84 -1t-79.5 -1t-54.5 -0.5zM350 61q34 0 69 10.5t63.5 40t45.5 84t17 142.5q0 81 -18.5 135.5t-50 86.5t-71.5 46.5t-83 14.5q-19 0 -39 -4.5t-28 -10.5l11 35v-475q0 -42 7 -64.5t25.5 -31.5t51.5 -9zM819 678
q17 -1 47 -1.5t65 -0.5h68.5h58.5h68.5t71 0.5t68.5 1.5q7 -10 11 -23t5 -29q-56 -106 -109.5 -203.5t-109 -192.5t-117.5 -196l-27 25h135q52 0 82.5 10t48.5 38.5t30 83.5q50 -4 82 -23q-5 -22 -10.5 -52t-8.5 -61.5t-4 -57.5q-44 2 -88 2.5t-87 0.5h-85
q-64 0 -123.5 -0.5t-97.5 -2.5q-7 11 -11 24t-4 28q47 78 89.5 151t83.5 144t81 143.5t81 149.5l38 -19h-143q-37 0 -61 -10.5t-39.5 -40t-27.5 -86.5q-23 0 -45.5 2.5t-37.5 9.5q12 40 17 91t5 94z" />
    <glyph glyph-name="uni01C4" unicode="&#x1c4;" horiz-adv-x="1342" 
d="M42 -3q0 18 1.5 34t5.5 27q27 2 41.5 10.5t20.5 30.5t6 65v355q0 39 -5.5 59.5t-20.5 28.5t-42 11q-4 11 -5 29t-1 32q20 -1 50 -1.5t63.5 -1t62.5 -0.5q25 0 53 1t58 1q56 0 110 -7.5t101 -27.5t82.5 -56.5t56 -93t20.5 -138.5q0 -81 -20 -139t-53 -97t-73.5 -63
t-82.5 -36t-79.5 -16t-63.5 -4q-27 0 -68 -0.5t-84 -1t-79.5 -1t-54.5 -0.5zM350 61q34 0 69 10.5t63.5 40t45.5 84t17 142.5q0 81 -18.5 135.5t-50 86.5t-71.5 46.5t-83 14.5q-19 0 -39 -4.5t-28 -10.5l11 35v-475q0 -42 7 -64.5t25.5 -31.5t51.5 -9zM819 678
q17 -1 47 -1.5t65 -0.5h68.5h58.5h68.5t71 0.5t68.5 1.5q7 -10 11 -23t5 -29q-56 -106 -109.5 -203.5t-109 -192.5t-117.5 -196l-27 25h135q52 0 82.5 10t48.5 38.5t30 83.5q50 -4 82 -23q-5 -22 -10.5 -52t-8.5 -61.5t-4 -57.5q-44 2 -88 2.5t-87 0.5h-85
q-64 0 -123.5 -0.5t-97.5 -2.5q-7 11 -11 24t-4 28q47 78 89.5 151t83.5 144t81 143.5t81 149.5l38 -19h-143q-37 0 -61 -10.5t-39.5 -40t-27.5 -86.5q-23 0 -45.5 2.5t-37.5 9.5q12 40 17 91t5 94zM1005 728q-26 28 -60.5 58t-76.5 60q11 14 26.5 24.5t38.5 15.5
q26 -15 58 -32t61 -30q16 7 38 18t44.5 23t37.5 21q18 -3 28.5 -17t14.5 -27q-37 -22 -76.5 -50.5t-69.5 -55.5q-15 -5 -31 -6.5t-33 -1.5z" />
    <glyph glyph-name="Eth" unicode="&#xd0;" horiz-adv-x="735" 
d="M28 303q0 20 3 40t8 31h134h81h146q0 -20 -2.5 -37.5t-8.5 -32.5q-28 1 -48.5 1h-41.5h-49h-80q-33 0 -64.5 -0.5t-77.5 -1.5zM42 -3q0 18 1.5 34t5.5 27q27 2 41.5 10.5t20.5 30.5t6 65v355q0 39 -5.5 59.5t-20.5 28.5t-42 11q-4 11 -5 29t-1 32q20 -1 50 -1.5t63.5 -1
t62.5 -0.5q25 0 53 1t58 1q56 0 110 -7.5t101 -27.5t82.5 -56.5t56 -93t20.5 -138.5q0 -81 -20 -139t-53 -97t-73.5 -63t-82.5 -36t-79.5 -16t-63.5 -4q-27 0 -68 -0.5t-84 -1t-79.5 -1t-54.5 -0.5zM350 61q34 0 69 10.5t63.5 40t45.5 84t17 142.5q0 81 -18.5 135.5
t-50 86.5t-71.5 46.5t-83 14.5q-19 0 -39 -4.5t-28 -10.5l11 35v-475q0 -42 7 -64.5t25.5 -31.5t51.5 -9z" />
    <glyph glyph-name="Dcaron" unicode="&#x10e;" horiz-adv-x="735" 
d="M42 -3q0 18 1.5 34t5.5 27q27 2 41.5 10.5t20.5 30.5t6 65v355q0 39 -5.5 59.5t-20.5 28.5t-42 11q-4 11 -5 29t-1 32q20 -1 50 -1.5t63.5 -1t62.5 -0.5q25 0 53 1t58 1q56 0 110 -7.5t101 -27.5t82.5 -56.5t56 -93t20.5 -138.5q0 -81 -20 -139t-53 -97t-73.5 -63
t-82.5 -36t-79.5 -16t-63.5 -4q-27 0 -68 -0.5t-84 -1t-79.5 -1t-54.5 -0.5zM350 61q34 0 69 10.5t63.5 40t45.5 84t17 142.5q0 81 -18.5 135.5t-50 86.5t-71.5 46.5t-83 14.5q-19 0 -39 -4.5t-28 -10.5l11 35v-475q0 -42 7 -64.5t25.5 -31.5t51.5 -9zM308 728
q-26 28 -60.5 58t-76.5 60q11 14 26.5 24.5t38.5 15.5q26 -15 58 -32t61 -30q16 7 38 18t44.5 23t37.5 21q18 -3 28.5 -17t14.5 -27q-37 -22 -76.5 -50.5t-69.5 -55.5q-15 -5 -31 -6.5t-33 -1.5z" />
    <glyph glyph-name="uni1E10" unicode="&#x1e10;" horiz-adv-x="735" 
d="M42 -3q0 18 1.5 34t5.5 27q27 2 41.5 10.5t20.5 30.5t6 65v355q0 39 -5.5 59.5t-20.5 28.5t-42 11q-4 11 -5 29t-1 32q20 -1 50 -1.5t63.5 -1t62.5 -0.5q25 0 53 1t58 1q56 0 110 -7.5t101 -27.5t82.5 -56.5t56 -93t20.5 -138.5q0 -81 -20 -139t-53 -97t-73.5 -63
t-82.5 -36t-79.5 -16t-63.5 -4q-27 0 -68 -0.5t-84 -1t-79.5 -1t-54.5 -0.5zM350 61q34 0 69 10.5t63.5 40t45.5 84t17 142.5q0 81 -18.5 135.5t-50 86.5t-71.5 46.5t-83 14.5q-19 0 -39 -4.5t-28 -10.5l11 35v-475q0 -42 7 -64.5t25.5 -31.5t51.5 -9zM366 -40
q23 -7 33.5 -25.5t10.5 -50.5q0 -58 -31.5 -103.5t-78.5 -78.5q-34 0 -53 23q28 23 41.5 45.5t13.5 40.5q0 34 -52 40q-2 17 1.5 39t10.5 40q32 3 58.5 10.5t45.5 19.5z" />
    <glyph glyph-name="Dcroat" unicode="&#x110;" horiz-adv-x="735" 
d="M28 303q0 20 3 40t8 31h134h81h146q0 -20 -2.5 -37.5t-8.5 -32.5q-28 1 -48.5 1h-41.5h-49h-80q-33 0 -64.5 -0.5t-77.5 -1.5zM42 -3q0 18 1.5 34t5.5 27q27 2 41.5 10.5t20.5 30.5t6 65v355q0 39 -5.5 59.5t-20.5 28.5t-42 11q-4 11 -5 29t-1 32q20 -1 50 -1.5t63.5 -1
t62.5 -0.5q25 0 53 1t58 1q56 0 110 -7.5t101 -27.5t82.5 -56.5t56 -93t20.5 -138.5q0 -81 -20 -139t-53 -97t-73.5 -63t-82.5 -36t-79.5 -16t-63.5 -4q-27 0 -68 -0.5t-84 -1t-79.5 -1t-54.5 -0.5zM350 61q34 0 69 10.5t63.5 40t45.5 84t17 142.5q0 81 -18.5 135.5
t-50 86.5t-71.5 46.5t-83 14.5q-19 0 -39 -4.5t-28 -10.5l11 35v-475q0 -42 7 -64.5t25.5 -31.5t51.5 -9z" />
    <glyph glyph-name="uni1E0C" unicode="&#x1e0c;" horiz-adv-x="735" 
d="M42 -3q0 18 1.5 34t5.5 27q27 2 41.5 10.5t20.5 30.5t6 65v355q0 39 -5.5 59.5t-20.5 28.5t-42 11q-4 11 -5 29t-1 32q20 -1 50 -1.5t63.5 -1t62.5 -0.5q25 0 53 1t58 1q56 0 110 -7.5t101 -27.5t82.5 -56.5t56 -93t20.5 -138.5q0 -81 -20 -139t-53 -97t-73.5 -63
t-82.5 -36t-79.5 -16t-63.5 -4q-27 0 -68 -0.5t-84 -1t-79.5 -1t-54.5 -0.5zM350 61q34 0 69 10.5t63.5 40t45.5 84t17 142.5q0 81 -18.5 135.5t-50 86.5t-71.5 46.5t-83 14.5q-19 0 -39 -4.5t-28 -10.5l11 35v-475q0 -42 7 -64.5t25.5 -31.5t51.5 -9zM327 -224
q-36 0 -58.5 20t-22.5 50q0 36 25 56t60 20q41 0 63 -19.5t22 -55.5q0 -30 -24 -50.5t-65 -20.5z" />
    <glyph glyph-name="uni1E0E" unicode="&#x1e0e;" horiz-adv-x="735" 
d="M42 -3q0 18 1.5 34t5.5 27q27 2 41.5 10.5t20.5 30.5t6 65v355q0 39 -5.5 59.5t-20.5 28.5t-42 11q-4 11 -5 29t-1 32q20 -1 50 -1.5t63.5 -1t62.5 -0.5q25 0 53 1t58 1q56 0 110 -7.5t101 -27.5t82.5 -56.5t56 -93t20.5 -138.5q0 -81 -20 -139t-53 -97t-73.5 -63
t-82.5 -36t-79.5 -16t-63.5 -4q-27 0 -68 -0.5t-84 -1t-79.5 -1t-54.5 -0.5zM350 61q34 0 69 10.5t63.5 40t45.5 84t17 142.5q0 81 -18.5 135.5t-50 86.5t-71.5 46.5t-83 14.5q-19 0 -39 -4.5t-28 -10.5l11 35v-475q0 -42 7 -64.5t25.5 -31.5t51.5 -9zM145 -161q0 11 2 28.5
t7 29.5h365q0 -10 -2 -24t-7 -27q-34 0 -91 -0.5t-127 -2t-147 -4.5z" />
    <glyph glyph-name="uni01F2" unicode="&#x1f2;" horiz-adv-x="1245" 
d="M42 -3q0 18 1.5 34t5.5 27q27 2 41.5 10.5t20.5 30.5t6 65v355q0 39 -5.5 59.5t-20.5 28.5t-42 11q-4 11 -5 29t-1 32q20 -1 50 -1.5t63.5 -1t62.5 -0.5q25 0 53 1t58 1q56 0 110 -7.5t101 -27.5t82.5 -56.5t56 -93t20.5 -138.5q0 -81 -20 -139t-53 -97t-73.5 -63
t-82.5 -36t-79.5 -16t-63.5 -4q-27 0 -68 -0.5t-84 -1t-79.5 -1t-54.5 -0.5zM350 61q34 0 69 10.5t63.5 40t45.5 84t17 142.5q0 81 -18.5 135.5t-50 86.5t-71.5 46.5t-83 14.5q-19 0 -39 -4.5t-28 -10.5l11 35v-475q0 -42 7 -64.5t25.5 -31.5t51.5 -9zM799 -2
q-8 11 -13.5 26.5t-5.5 31.5q24 31 52 69.5t57.5 80t57.5 81.5t51.5 75t39.5 61l30 -25h-110q-29 0 -46.5 -8t-27 -30t-17.5 -63q-21 -1 -43 2t-38 10q5 34 7.5 74t2.5 78q21 -1 51.5 -1.5t68.5 -1t78 -0.5q42 0 76.5 0.5t62.5 1t48 1.5q8 -10 11.5 -24.5t3.5 -28.5
q-26 -40 -58 -87.5t-66.5 -97.5t-68.5 -97t-64 -86l-21 21h122q34 0 52 9.5t25.5 34t10.5 69.5q20 1 38.5 -0.5t38.5 -7.5q0 -21 1 -48.5t2.5 -53.5t4.5 -44q-10 -22 -40 -22q-23 0 -54 0.5t-66 1t-70 0.5q-66 0 -111.5 -0.5t-72.5 -1.5z" />
    <glyph glyph-name="uni01C5" unicode="&#x1c5;" horiz-adv-x="1245" 
d="M42 -3q0 18 1.5 34t5.5 27q27 2 41.5 10.5t20.5 30.5t6 65v355q0 39 -5.5 59.5t-20.5 28.5t-42 11q-4 11 -5 29t-1 32q20 -1 50 -1.5t63.5 -1t62.5 -0.5q25 0 53 1t58 1q56 0 110 -7.5t101 -27.5t82.5 -56.5t56 -93t20.5 -138.5q0 -81 -20 -139t-53 -97t-73.5 -63
t-82.5 -36t-79.5 -16t-63.5 -4q-27 0 -68 -0.5t-84 -1t-79.5 -1t-54.5 -0.5zM350 61q34 0 69 10.5t63.5 40t45.5 84t17 142.5q0 81 -18.5 135.5t-50 86.5t-71.5 46.5t-83 14.5q-19 0 -39 -4.5t-28 -10.5l11 35v-475q0 -42 7 -64.5t25.5 -31.5t51.5 -9zM799 -2
q-8 11 -13.5 26.5t-5.5 31.5q24 31 52 69.5t57.5 80t57.5 81.5t51.5 75t39.5 61l30 -25h-110q-29 0 -46.5 -8t-27 -30t-17.5 -63q-21 -1 -43 2t-38 10q5 34 7.5 74t2.5 78q21 -1 51.5 -1.5t68.5 -1t78 -0.5q42 0 76.5 0.5t62.5 1t48 1.5q8 -10 11.5 -24.5t3.5 -28.5
q-26 -40 -58 -87.5t-66.5 -97.5t-68.5 -97t-64 -86l-21 21h122q34 0 52 9.5t25.5 34t10.5 69.5q20 1 38.5 -0.5t38.5 -7.5q0 -21 1 -48.5t2.5 -53.5t4.5 -44q-10 -22 -40 -22q-23 0 -54 0.5t-66 1t-70 0.5q-66 0 -111.5 -0.5t-72.5 -1.5zM953 516q-31 39 -69 78.5t-77 74.5
q5 15 16.5 25.5t30.5 17.5q32 -22 68 -45.5t70 -39.5q14 6 32.5 17.5t38 24t36 24.5t26.5 19q17 -3 29.5 -15t17.5 -25q-40 -31 -82.5 -71t-73.5 -77q-14 -4 -30.5 -6t-32.5 -2z" />
    <glyph glyph-name="E" unicode="E" horiz-adv-x="624" 
d="M42 679q20 -1 49 -1.5t61.5 -1t62.5 -0.5h51v-510q0 -42 7 -64.5t25.5 -31.5t51.5 -9l-22 -61q-27 0 -68 -0.5t-84 -1t-79.5 -1t-54.5 -0.5q0 18 1.5 34t5.5 27q27 2 41.5 10.5t20 30.5t5.5 65v355q0 39 -5.5 59.5t-20 28.5t-42.5 11q-3 11 -4.5 29t-1.5 32zM523 192
q24 -4 43.5 -11.5t30.5 -17.5q-11 -34 -18.5 -78.5t-12.5 -86.5q-24 1 -63.5 1t-85 0.5t-89.5 0.5l22 61h12q52 0 82 14t47.5 43t31.5 74zM461 454q-1 -25 -2 -53t-1 -61q0 -34 1 -63.5t2 -53.5q-21 0 -37 1.5t-30 6.5q-4 46 -24.5 62t-73.5 16h-64v59h64q56 0 75.5 16
t20.5 60q15 6 33 8t36 2zM539 679q2 -24 4.5 -55t7 -60.5t9.5 -52.5q-13 -7 -31 -11.5t-43 -4.5q-4 34 -17.5 61.5t-44.5 44.5t-88 17h-103l28 58q76 0 130 0.5t90 1t58 1.5z" />
    <glyph glyph-name="Eacute" unicode="&#xc9;" horiz-adv-x="624" 
d="M42 679q20 -1 49 -1.5t61.5 -1t62.5 -0.5h51v-510q0 -42 7 -64.5t25.5 -31.5t51.5 -9l-22 -61q-27 0 -68 -0.5t-84 -1t-79.5 -1t-54.5 -0.5q0 18 1.5 34t5.5 27q27 2 41.5 10.5t20 30.5t5.5 65v355q0 39 -5.5 59.5t-20 28.5t-42.5 11q-3 11 -4.5 29t-1.5 32zM523 192
q24 -4 43.5 -11.5t30.5 -17.5q-11 -34 -18.5 -78.5t-12.5 -86.5q-24 1 -63.5 1t-85 0.5t-89.5 0.5l22 61h12q52 0 82 14t47.5 43t31.5 74zM461 454q-1 -25 -2 -53t-1 -61q0 -34 1 -63.5t2 -53.5q-21 0 -37 1.5t-30 6.5q-4 46 -24.5 62t-73.5 16h-64v59h64q56 0 75.5 16
t20.5 60q15 6 33 8t36 2zM539 679q2 -24 4.5 -55t7 -60.5t9.5 -52.5q-13 -7 -31 -11.5t-43 -4.5q-4 34 -17.5 61.5t-44.5 44.5t-88 17h-103l28 58q76 0 130 0.5t90 1t58 1.5zM320 734q-22 0 -39 2.5t-33 8.5q17 31 33 65t26 62q17 4 35.5 6t36.5 2q33 0 58 -7
q-32 -34 -60 -68t-57 -71z" />
    <glyph glyph-name="Ebreve" unicode="&#x114;" horiz-adv-x="624" 
d="M42 679q20 -1 49 -1.5t61.5 -1t62.5 -0.5h51v-510q0 -42 7 -64.5t25.5 -31.5t51.5 -9l-22 -61q-27 0 -68 -0.5t-84 -1t-79.5 -1t-54.5 -0.5q0 18 1.5 34t5.5 27q27 2 41.5 10.5t20 30.5t5.5 65v355q0 39 -5.5 59.5t-20 28.5t-42.5 11q-3 11 -4.5 29t-1.5 32zM523 192
q24 -4 43.5 -11.5t30.5 -17.5q-11 -34 -18.5 -78.5t-12.5 -86.5q-24 1 -63.5 1t-85 0.5t-89.5 0.5l22 61h12q52 0 82 14t47.5 43t31.5 74zM461 454q-1 -25 -2 -53t-1 -61q0 -34 1 -63.5t2 -53.5q-21 0 -37 1.5t-30 6.5q-4 46 -24.5 62t-73.5 16h-64v59h64q56 0 75.5 16
t20.5 60q15 6 33 8t36 2zM539 679q2 -24 4.5 -55t7 -60.5t9.5 -52.5q-13 -7 -31 -11.5t-43 -4.5q-4 34 -17.5 61.5t-44.5 44.5t-88 17h-103l28 58q76 0 130 0.5t90 1t58 1.5zM467 867q0 -70 -43 -106.5t-125 -36.5q-80 0 -122 35.5t-42 103.5q16 7 36 10t40 0
q5 -31 31.5 -47.5t67.5 -16.5t65.5 16.5t26.5 47.5q18 3 35 1t30 -7z" />
    <glyph glyph-name="Ecaron" unicode="&#x11a;" horiz-adv-x="624" 
d="M42 679q20 -1 49 -1.5t61.5 -1t62.5 -0.5h51v-510q0 -42 7 -64.5t25.5 -31.5t51.5 -9l-22 -61q-27 0 -68 -0.5t-84 -1t-79.5 -1t-54.5 -0.5q0 18 1.5 34t5.5 27q27 2 41.5 10.5t20 30.5t5.5 65v355q0 39 -5.5 59.5t-20 28.5t-42.5 11q-3 11 -4.5 29t-1.5 32zM523 192
q24 -4 43.5 -11.5t30.5 -17.5q-11 -34 -18.5 -78.5t-12.5 -86.5q-24 1 -63.5 1t-85 0.5t-89.5 0.5l22 61h12q52 0 82 14t47.5 43t31.5 74zM461 454q-1 -25 -2 -53t-1 -61q0 -34 1 -63.5t2 -53.5q-21 0 -37 1.5t-30 6.5q-4 46 -24.5 62t-73.5 16h-64v59h64q56 0 75.5 16
t20.5 60q15 6 33 8t36 2zM539 679q2 -24 4.5 -55t7 -60.5t9.5 -52.5q-13 -7 -31 -11.5t-43 -4.5q-4 34 -17.5 61.5t-44.5 44.5t-88 17h-103l28 58q76 0 130 0.5t90 1t58 1.5zM257 728q-26 28 -60.5 58t-76.5 60q11 14 26.5 24.5t38.5 15.5q26 -15 58 -32t61 -30q16 7 38 18
t44.5 23t37.5 21q18 -3 28.5 -17t14.5 -27q-37 -22 -76.5 -50.5t-69.5 -55.5q-15 -5 -31 -6.5t-33 -1.5z" />
    <glyph glyph-name="uni0228" unicode="&#x228;" horiz-adv-x="624" 
d="M42 679q20 -1 49 -1.5t61.5 -1t62.5 -0.5h51v-510q0 -42 7 -64.5t25.5 -31.5t51.5 -9l-22 -61q-27 0 -68 -0.5t-84 -1t-79.5 -1t-54.5 -0.5q0 18 1.5 34t5.5 27q27 2 41.5 10.5t20 30.5t5.5 65v355q0 39 -5.5 59.5t-20 28.5t-42.5 11q-3 11 -4.5 29t-1.5 32zM523 192
q24 -4 43.5 -11.5t30.5 -17.5q-11 -34 -18.5 -78.5t-12.5 -86.5q-24 1 -63.5 1t-85 0.5t-89.5 0.5l22 61h12q52 0 82 14t47.5 43t31.5 74zM461 454q-1 -25 -2 -53t-1 -61q0 -34 1 -63.5t2 -53.5q-21 0 -37 1.5t-30 6.5q-4 46 -24.5 62t-73.5 16h-64v59h64q56 0 75.5 16
t20.5 60q15 6 33 8t36 2zM539 679q2 -24 4.5 -55t7 -60.5t9.5 -52.5q-13 -7 -31 -11.5t-43 -4.5q-4 34 -17.5 61.5t-44.5 44.5t-88 17h-103l28 58q76 0 130 0.5t90 1t58 1.5zM252 -242q-5 9 -6.5 21t-1.5 21q31 0 54.5 12.5t23.5 36.5q0 21 -17.5 33t-43.5 12q-7 8 -12.5 19
t-5.5 24l58 79h62l-46 -62q42 -7 65 -32.5t23 -60.5q0 -33 -20.5 -56t-55.5 -35t-77 -12z" />
    <glyph glyph-name="uni1E1C" unicode="&#x1e1c;" horiz-adv-x="624" 
d="M42 679q20 -1 49 -1.5t61.5 -1t62.5 -0.5h51v-510q0 -42 7 -64.5t25.5 -31.5t51.5 -9l-22 -61q-27 0 -68 -0.5t-84 -1t-79.5 -1t-54.5 -0.5q0 18 1.5 34t5.5 27q27 2 41.5 10.5t20 30.5t5.5 65v355q0 39 -5.5 59.5t-20 28.5t-42.5 11q-3 11 -4.5 29t-1.5 32zM523 192
q24 -4 43.5 -11.5t30.5 -17.5q-11 -34 -18.5 -78.5t-12.5 -86.5q-24 1 -63.5 1t-85 0.5t-89.5 0.5l22 61h12q52 0 82 14t47.5 43t31.5 74zM461 454q-1 -25 -2 -53t-1 -61q0 -34 1 -63.5t2 -53.5q-21 0 -37 1.5t-30 6.5q-4 46 -24.5 62t-73.5 16h-64v59h64q56 0 75.5 16
t20.5 60q15 6 33 8t36 2zM539 679q2 -24 4.5 -55t7 -60.5t9.5 -52.5q-13 -7 -31 -11.5t-43 -4.5q-4 34 -17.5 61.5t-44.5 44.5t-88 17h-103l28 58q76 0 130 0.5t90 1t58 1.5zM252 -242q-5 9 -6.5 21t-1.5 21q31 0 54.5 12.5t23.5 36.5q0 21 -17.5 33t-43.5 12q-7 8 -12.5 19
t-5.5 24l58 79h62l-46 -62q42 -7 65 -32.5t23 -60.5q0 -33 -20.5 -56t-55.5 -35t-77 -12zM467 867q0 -70 -43 -106.5t-125 -36.5q-80 0 -122 35.5t-42 103.5q16 7 36 10t40 0q5 -31 31.5 -47.5t67.5 -16.5t65.5 16.5t26.5 47.5q18 3 35 1t30 -7z" />
    <glyph glyph-name="Ecircumflex" unicode="&#xca;" horiz-adv-x="624" 
d="M42 679q20 -1 49 -1.5t61.5 -1t62.5 -0.5h51v-510q0 -42 7 -64.5t25.5 -31.5t51.5 -9l-22 -61q-27 0 -68 -0.5t-84 -1t-79.5 -1t-54.5 -0.5q0 18 1.5 34t5.5 27q27 2 41.5 10.5t20 30.5t5.5 65v355q0 39 -5.5 59.5t-20 28.5t-42.5 11q-3 11 -4.5 29t-1.5 32zM523 192
q24 -4 43.5 -11.5t30.5 -17.5q-11 -34 -18.5 -78.5t-12.5 -86.5q-24 1 -63.5 1t-85 0.5t-89.5 0.5l22 61h12q52 0 82 14t47.5 43t31.5 74zM461 454q-1 -25 -2 -53t-1 -61q0 -34 1 -63.5t2 -53.5q-21 0 -37 1.5t-30 6.5q-4 46 -24.5 62t-73.5 16h-64v59h64q56 0 75.5 16
t20.5 60q15 6 33 8t36 2zM539 679q2 -24 4.5 -55t7 -60.5t9.5 -52.5q-13 -7 -31 -11.5t-43 -4.5q-4 34 -17.5 61.5t-44.5 44.5t-88 17h-103l28 58q76 0 130 0.5t90 1t58 1.5zM171 728q-17 4 -28 18t-15 26q37 22 76.5 50.5t69.5 56.5q15 4 31.5 5.5t31.5 1.5
q27 -28 61.5 -57.5t76.5 -60.5q-11 -14 -26.5 -24.5t-39.5 -15.5q-25 16 -57 33t-61 30q-15 -7 -38 -18.5t-45 -23t-37 -21.5z" />
    <glyph glyph-name="uni1EBE" unicode="&#x1ebe;" horiz-adv-x="624" 
d="M42 679q20 -1 49 -1.5t61.5 -1t62.5 -0.5h51v-510q0 -42 7 -64.5t25.5 -31.5t51.5 -9l-22 -61q-27 0 -68 -0.5t-84 -1t-79.5 -1t-54.5 -0.5q0 18 1.5 34t5.5 27q27 2 41.5 10.5t20 30.5t5.5 65v355q0 39 -5.5 59.5t-20 28.5t-42.5 11q-3 11 -4.5 29t-1.5 32zM523 192
q24 -4 43.5 -11.5t30.5 -17.5q-11 -34 -18.5 -78.5t-12.5 -86.5q-24 1 -63.5 1t-85 0.5t-89.5 0.5l22 61h12q52 0 82 14t47.5 43t31.5 74zM461 454q-1 -25 -2 -53t-1 -61q0 -34 1 -63.5t2 -53.5q-21 0 -37 1.5t-30 6.5q-4 46 -24.5 62t-73.5 16h-64v59h64q56 0 75.5 16
t20.5 60q15 6 33 8t36 2zM539 679q2 -24 4.5 -55t7 -60.5t9.5 -52.5q-13 -7 -31 -11.5t-43 -4.5q-4 34 -17.5 61.5t-44.5 44.5t-88 17h-103l28 58q76 0 130 0.5t90 1t58 1.5zM477 859q-21 0 -36.5 2.5t-29.5 8.5q15 28 29.5 59t24.5 57q15 4 32 6t34 2q29 0 52 -7
q-28 -32 -54 -63t-52 -65zM171 728q-17 4 -28 18t-15 26q37 22 76.5 50.5t69.5 56.5q15 4 31.5 5.5t31.5 1.5q27 -28 61.5 -57.5t76.5 -60.5q-11 -14 -26.5 -24.5t-39.5 -15.5q-25 16 -57 33t-61 30q-15 -7 -38 -18.5t-45 -23t-37 -21.5z" />
    <glyph glyph-name="uni1EC6" unicode="&#x1ec6;" horiz-adv-x="624" 
d="M42 679q20 -1 49 -1.5t61.5 -1t62.5 -0.5h51v-510q0 -42 7 -64.5t25.5 -31.5t51.5 -9l-22 -61q-27 0 -68 -0.5t-84 -1t-79.5 -1t-54.5 -0.5q0 18 1.5 34t5.5 27q27 2 41.5 10.5t20 30.5t5.5 65v355q0 39 -5.5 59.5t-20 28.5t-42.5 11q-3 11 -4.5 29t-1.5 32zM523 192
q24 -4 43.5 -11.5t30.5 -17.5q-11 -34 -18.5 -78.5t-12.5 -86.5q-24 1 -63.5 1t-85 0.5t-89.5 0.5l22 61h12q52 0 82 14t47.5 43t31.5 74zM461 454q-1 -25 -2 -53t-1 -61q0 -34 1 -63.5t2 -53.5q-21 0 -37 1.5t-30 6.5q-4 46 -24.5 62t-73.5 16h-64v59h64q56 0 75.5 16
t20.5 60q15 6 33 8t36 2zM539 679q2 -24 4.5 -55t7 -60.5t9.5 -52.5q-13 -7 -31 -11.5t-43 -4.5q-4 34 -17.5 61.5t-44.5 44.5t-88 17h-103l28 58q76 0 130 0.5t90 1t58 1.5zM320 -224q-36 0 -58.5 20t-22.5 50q0 36 25 56t60 20q41 0 63 -19.5t22 -55.5q0 -30 -24 -50.5
t-65 -20.5zM171 728q-17 4 -28 18t-15 26q37 22 76.5 50.5t69.5 56.5q15 4 31.5 5.5t31.5 1.5q27 -28 61.5 -57.5t76.5 -60.5q-11 -14 -26.5 -24.5t-39.5 -15.5q-25 16 -57 33t-61 30q-15 -7 -38 -18.5t-45 -23t-37 -21.5z" />
    <glyph glyph-name="uni1EC0" unicode="&#x1ec0;" horiz-adv-x="624" 
d="M42 679q20 -1 49 -1.5t61.5 -1t62.5 -0.5h51v-510q0 -42 7 -64.5t25.5 -31.5t51.5 -9l-22 -61q-27 0 -68 -0.5t-84 -1t-79.5 -1t-54.5 -0.5q0 18 1.5 34t5.5 27q27 2 41.5 10.5t20 30.5t5.5 65v355q0 39 -5.5 59.5t-20 28.5t-42.5 11q-3 11 -4.5 29t-1.5 32zM523 192
q24 -4 43.5 -11.5t30.5 -17.5q-11 -34 -18.5 -78.5t-12.5 -86.5q-24 1 -63.5 1t-85 0.5t-89.5 0.5l22 61h12q52 0 82 14t47.5 43t31.5 74zM461 454q-1 -25 -2 -53t-1 -61q0 -34 1 -63.5t2 -53.5q-21 0 -37 1.5t-30 6.5q-4 46 -24.5 62t-73.5 16h-64v59h64q56 0 75.5 16
t20.5 60q15 6 33 8t36 2zM539 679q2 -24 4.5 -55t7 -60.5t9.5 -52.5q-13 -7 -31 -11.5t-43 -4.5q-4 34 -17.5 61.5t-44.5 44.5t-88 17h-103l28 58q76 0 130 0.5t90 1t58 1.5zM171 728q-17 4 -28 18t-15 26q37 22 76.5 50.5t69.5 56.5q15 4 31.5 5.5t31.5 1.5
q27 -28 61.5 -57.5t76.5 -60.5q-11 -14 -26.5 -24.5t-39.5 -15.5q-25 16 -57 33t-61 30q-15 -7 -38 -18.5t-45 -23t-37 -21.5zM427 854q-25 34 -51 64.5t-56 59.5q23 12 55.5 16t62.5 3q12 -30 29 -65t36 -67q-15 -6 -34.5 -8.5t-41.5 -2.5z" />
    <glyph glyph-name="uni1EC2" unicode="&#x1ec2;" horiz-adv-x="624" 
d="M42 679q20 -1 49 -1.5t61.5 -1t62.5 -0.5h51v-510q0 -42 7 -64.5t25.5 -31.5t51.5 -9l-22 -61q-27 0 -68 -0.5t-84 -1t-79.5 -1t-54.5 -0.5q0 18 1.5 34t5.5 27q27 2 41.5 10.5t20 30.5t5.5 65v355q0 39 -5.5 59.5t-20 28.5t-42.5 11q-3 11 -4.5 29t-1.5 32zM523 192
q24 -4 43.5 -11.5t30.5 -17.5q-11 -34 -18.5 -78.5t-12.5 -86.5q-24 1 -63.5 1t-85 0.5t-89.5 0.5l22 61h12q52 0 82 14t47.5 43t31.5 74zM461 454q-1 -25 -2 -53t-1 -61q0 -34 1 -63.5t2 -53.5q-21 0 -37 1.5t-30 6.5q-4 46 -24.5 62t-73.5 16h-64v59h64q56 0 75.5 16
t20.5 60q15 6 33 8t36 2zM539 679q2 -24 4.5 -55t7 -60.5t9.5 -52.5q-13 -7 -31 -11.5t-43 -4.5q-4 34 -17.5 61.5t-44.5 44.5t-88 17h-103l28 58q76 0 130 0.5t90 1t58 1.5zM171 728q-17 4 -28 18t-15 26q37 22 76.5 50.5t69.5 56.5q15 4 31.5 5.5t31.5 1.5
q27 -28 61.5 -57.5t76.5 -60.5q-11 -14 -26.5 -24.5t-39.5 -15.5q-25 16 -57 33t-61 30q-15 -7 -38 -18.5t-45 -23t-37 -21.5zM422 865q-9 14 -9 29q0 17 8.5 27.5t19.5 18.5t19.5 17t8.5 21q0 11 -7 16.5t-18 5.5q-17 0 -27.5 -13t-15.5 -52q-17 0 -31.5 3.5t-26.5 8.5
q2 18 2.5 33.5t-2.5 30.5q19 13 45.5 22t64.5 9q47 0 72 -16t25 -46q0 -22 -11 -36t-25 -23t-25 -17t-11 -19q0 -6 3 -15q-13 -5 -29 -6t-30 1z" />
    <glyph glyph-name="uni1EC4" unicode="&#x1ec4;" horiz-adv-x="624" 
d="M42 679q20 -1 49 -1.5t61.5 -1t62.5 -0.5h51v-510q0 -42 7 -64.5t25.5 -31.5t51.5 -9l-22 -61q-27 0 -68 -0.5t-84 -1t-79.5 -1t-54.5 -0.5q0 18 1.5 34t5.5 27q27 2 41.5 10.5t20 30.5t5.5 65v355q0 39 -5.5 59.5t-20 28.5t-42.5 11q-3 11 -4.5 29t-1.5 32zM523 192
q24 -4 43.5 -11.5t30.5 -17.5q-11 -34 -18.5 -78.5t-12.5 -86.5q-24 1 -63.5 1t-85 0.5t-89.5 0.5l22 61h12q52 0 82 14t47.5 43t31.5 74zM461 454q-1 -25 -2 -53t-1 -61q0 -34 1 -63.5t2 -53.5q-21 0 -37 1.5t-30 6.5q-4 46 -24.5 62t-73.5 16h-64v59h64q56 0 75.5 16
t20.5 60q15 6 33 8t36 2zM539 679q2 -24 4.5 -55t7 -60.5t9.5 -52.5q-13 -7 -31 -11.5t-43 -4.5q-4 34 -17.5 61.5t-44.5 44.5t-88 17h-103l28 58q76 0 130 0.5t90 1t58 1.5zM171 728q-17 4 -28 18t-15 26q37 22 76.5 50.5t69.5 56.5q15 4 31.5 5.5t31.5 1.5
q27 -28 61.5 -57.5t76.5 -60.5q-11 -14 -26.5 -24.5t-39.5 -15.5q-25 16 -57 33t-61 30q-15 -7 -38 -18.5t-45 -23t-37 -21.5zM354 931q-23 0 -40.5 6.5t-32.5 14.5t-30.5 15t-34.5 7q-21 0 -39 -10.5t-35 -29.5q-13 11 -19 24t-7 30q29 40 64 55t65 15t52.5 -10t43 -20
t42.5 -10q18 0 32.5 9t26.5 24q13 -2 25.5 -8t20.5 -16q-24 -47 -58.5 -71.5t-75.5 -24.5z" />
    <glyph glyph-name="uni0204" unicode="&#x204;" horiz-adv-x="624" 
d="M42 679q20 -1 49 -1.5t61.5 -1t62.5 -0.5h51v-510q0 -42 7 -64.5t25.5 -31.5t51.5 -9l-22 -61q-27 0 -68 -0.5t-84 -1t-79.5 -1t-54.5 -0.5q0 18 1.5 34t5.5 27q27 2 41.5 10.5t20 30.5t5.5 65v355q0 39 -5.5 59.5t-20 28.5t-42.5 11q-3 11 -4.5 29t-1.5 32zM523 192
q24 -4 43.5 -11.5t30.5 -17.5q-11 -34 -18.5 -78.5t-12.5 -86.5q-24 1 -63.5 1t-85 0.5t-89.5 0.5l22 61h12q52 0 82 14t47.5 43t31.5 74zM461 454q-1 -25 -2 -53t-1 -61q0 -34 1 -63.5t2 -53.5q-21 0 -37 1.5t-30 6.5q-4 46 -24.5 62t-73.5 16h-64v59h64q56 0 75.5 16
t20.5 60q15 6 33 8t36 2zM539 679q2 -24 4.5 -55t7 -60.5t9.5 -52.5q-13 -7 -31 -11.5t-43 -4.5q-4 34 -17.5 61.5t-44.5 44.5t-88 17h-103l28 58q76 0 130 0.5t90 1t58 1.5zM193 718q-28 35 -54.5 65.5t-56.5 59.5q23 11 55.5 15.5t62.5 3.5q12 -29 29 -65t36 -67
q-15 -6 -32.5 -9t-39.5 -3zM369 718q-26 35 -52 66t-54 61q22 10 53 14t60 3q12 -29 29 -65t36 -67q-15 -6 -32 -9t-40 -3z" />
    <glyph glyph-name="Edieresis" unicode="&#xcb;" horiz-adv-x="624" 
d="M42 679q20 -1 49 -1.5t61.5 -1t62.5 -0.5h51v-510q0 -42 7 -64.5t25.5 -31.5t51.5 -9l-22 -61q-27 0 -68 -0.5t-84 -1t-79.5 -1t-54.5 -0.5q0 18 1.5 34t5.5 27q27 2 41.5 10.5t20 30.5t5.5 65v355q0 39 -5.5 59.5t-20 28.5t-42.5 11q-3 11 -4.5 29t-1.5 32zM523 192
q24 -4 43.5 -11.5t30.5 -17.5q-11 -34 -18.5 -78.5t-12.5 -86.5q-24 1 -63.5 1t-85 0.5t-89.5 0.5l22 61h12q52 0 82 14t47.5 43t31.5 74zM461 454q-1 -25 -2 -53t-1 -61q0 -34 1 -63.5t2 -53.5q-21 0 -37 1.5t-30 6.5q-4 46 -24.5 62t-73.5 16h-64v59h64q56 0 75.5 16
t20.5 60q15 6 33 8t36 2zM539 679q2 -24 4.5 -55t7 -60.5t9.5 -52.5q-13 -7 -31 -11.5t-43 -4.5q-4 34 -17.5 61.5t-44.5 44.5t-88 17h-103l28 58q76 0 130 0.5t90 1t58 1.5zM418 725q-40 0 -60.5 21t-20.5 54q0 31 21 48.5t56 17.5q34 0 56 -19t22 -47q0 -29 -17 -52
t-57 -23zM190 725q-35 0 -56.5 19.5t-21.5 47.5t18 51t57 23q41 0 59.5 -21t18.5 -51q0 -29 -21.5 -49t-53.5 -20z" />
    <glyph glyph-name="Edotaccent" unicode="&#x116;" horiz-adv-x="624" 
d="M42 679q20 -1 49 -1.5t61.5 -1t62.5 -0.5h51v-510q0 -42 7 -64.5t25.5 -31.5t51.5 -9l-22 -61q-27 0 -68 -0.5t-84 -1t-79.5 -1t-54.5 -0.5q0 18 1.5 34t5.5 27q27 2 41.5 10.5t20 30.5t5.5 65v355q0 39 -5.5 59.5t-20 28.5t-42.5 11q-3 11 -4.5 29t-1.5 32zM523 192
q24 -4 43.5 -11.5t30.5 -17.5q-11 -34 -18.5 -78.5t-12.5 -86.5q-24 1 -63.5 1t-85 0.5t-89.5 0.5l22 61h12q52 0 82 14t47.5 43t31.5 74zM461 454q-1 -25 -2 -53t-1 -61q0 -34 1 -63.5t2 -53.5q-21 0 -37 1.5t-30 6.5q-4 46 -24.5 62t-73.5 16h-64v59h64q56 0 75.5 16
t20.5 60q15 6 33 8t36 2zM539 679q2 -24 4.5 -55t7 -60.5t9.5 -52.5q-13 -7 -31 -11.5t-43 -4.5q-4 34 -17.5 61.5t-44.5 44.5t-88 17h-103l28 58q76 0 130 0.5t90 1t58 1.5zM297 717q-36 0 -58.5 19.5t-22.5 50.5q0 36 25 55.5t60 19.5q41 0 63 -19.5t22 -54.5
q0 -31 -24 -51t-65 -20z" />
    <glyph glyph-name="uni1EB8" unicode="&#x1eb8;" horiz-adv-x="624" 
d="M42 679q20 -1 49 -1.5t61.5 -1t62.5 -0.5h51v-510q0 -42 7 -64.5t25.5 -31.5t51.5 -9l-22 -61q-27 0 -68 -0.5t-84 -1t-79.5 -1t-54.5 -0.5q0 18 1.5 34t5.5 27q27 2 41.5 10.5t20 30.5t5.5 65v355q0 39 -5.5 59.5t-20 28.5t-42.5 11q-3 11 -4.5 29t-1.5 32zM523 192
q24 -4 43.5 -11.5t30.5 -17.5q-11 -34 -18.5 -78.5t-12.5 -86.5q-24 1 -63.5 1t-85 0.5t-89.5 0.5l22 61h12q52 0 82 14t47.5 43t31.5 74zM461 454q-1 -25 -2 -53t-1 -61q0 -34 1 -63.5t2 -53.5q-21 0 -37 1.5t-30 6.5q-4 46 -24.5 62t-73.5 16h-64v59h64q56 0 75.5 16
t20.5 60q15 6 33 8t36 2zM539 679q2 -24 4.5 -55t7 -60.5t9.5 -52.5q-13 -7 -31 -11.5t-43 -4.5q-4 34 -17.5 61.5t-44.5 44.5t-88 17h-103l28 58q76 0 130 0.5t90 1t58 1.5zM320 -224q-36 0 -58.5 20t-22.5 50q0 36 25 56t60 20q41 0 63 -19.5t22 -55.5q0 -30 -24 -50.5
t-65 -20.5z" />
    <glyph glyph-name="Egrave" unicode="&#xc8;" horiz-adv-x="624" 
d="M42 679q20 -1 49 -1.5t61.5 -1t62.5 -0.5h51v-510q0 -42 7 -64.5t25.5 -31.5t51.5 -9l-22 -61q-27 0 -68 -0.5t-84 -1t-79.5 -1t-54.5 -0.5q0 18 1.5 34t5.5 27q27 2 41.5 10.5t20 30.5t5.5 65v355q0 39 -5.5 59.5t-20 28.5t-42.5 11q-3 11 -4.5 29t-1.5 32zM523 192
q24 -4 43.5 -11.5t30.5 -17.5q-11 -34 -18.5 -78.5t-12.5 -86.5q-24 1 -63.5 1t-85 0.5t-89.5 0.5l22 61h12q52 0 82 14t47.5 43t31.5 74zM461 454q-1 -25 -2 -53t-1 -61q0 -34 1 -63.5t2 -53.5q-21 0 -37 1.5t-30 6.5q-4 46 -24.5 62t-73.5 16h-64v59h64q56 0 75.5 16
t20.5 60q15 6 33 8t36 2zM539 679q2 -24 4.5 -55t7 -60.5t9.5 -52.5q-13 -7 -31 -11.5t-43 -4.5q-4 34 -17.5 61.5t-44.5 44.5t-88 17h-103l28 58q76 0 130 0.5t90 1t58 1.5zM279 734q-25 34 -51 64.5t-56 59.5q23 12 55.5 16t62.5 3q12 -30 29 -65t36 -67
q-15 -6 -34.5 -8.5t-41.5 -2.5z" />
    <glyph glyph-name="uni1EBA" unicode="&#x1eba;" horiz-adv-x="624" 
d="M42 679q20 -1 49 -1.5t61.5 -1t62.5 -0.5h51v-510q0 -42 7 -64.5t25.5 -31.5t51.5 -9l-22 -61q-27 0 -68 -0.5t-84 -1t-79.5 -1t-54.5 -0.5q0 18 1.5 34t5.5 27q27 2 41.5 10.5t20 30.5t5.5 65v355q0 39 -5.5 59.5t-20 28.5t-42.5 11q-3 11 -4.5 29t-1.5 32zM523 192
q24 -4 43.5 -11.5t30.5 -17.5q-11 -34 -18.5 -78.5t-12.5 -86.5q-24 1 -63.5 1t-85 0.5t-89.5 0.5l22 61h12q52 0 82 14t47.5 43t31.5 74zM461 454q-1 -25 -2 -53t-1 -61q0 -34 1 -63.5t2 -53.5q-21 0 -37 1.5t-30 6.5q-4 46 -24.5 62t-73.5 16h-64v59h64q56 0 75.5 16
t20.5 60q15 6 33 8t36 2zM539 679q2 -24 4.5 -55t7 -60.5t9.5 -52.5q-13 -7 -31 -11.5t-43 -4.5q-4 34 -17.5 61.5t-44.5 44.5t-88 17h-103l28 58q76 0 130 0.5t90 1t58 1.5zM277 722q-9 14 -9 29q0 17 8.5 27.5t19.5 18.5t19.5 17t8.5 21q0 11 -7 16.5t-18 5.5
q-17 0 -27.5 -13t-15.5 -52q-17 0 -31.5 3.5t-26.5 8.5q2 18 2.5 33.5t-2.5 30.5q19 13 45.5 22t64.5 9q47 0 72 -16t25 -46q0 -22 -11 -36t-25 -23t-25 -17t-11 -19q0 -6 3 -15q-13 -5 -29 -6t-30 1z" />
    <glyph glyph-name="uni0206" unicode="&#x206;" horiz-adv-x="624" 
d="M42 679q20 -1 49 -1.5t61.5 -1t62.5 -0.5h51v-510q0 -42 7 -64.5t25.5 -31.5t51.5 -9l-22 -61q-27 0 -68 -0.5t-84 -1t-79.5 -1t-54.5 -0.5q0 18 1.5 34t5.5 27q27 2 41.5 10.5t20 30.5t5.5 65v355q0 39 -5.5 59.5t-20 28.5t-42.5 11q-3 11 -4.5 29t-1.5 32zM523 192
q24 -4 43.5 -11.5t30.5 -17.5q-11 -34 -18.5 -78.5t-12.5 -86.5q-24 1 -63.5 1t-85 0.5t-89.5 0.5l22 61h12q52 0 82 14t47.5 43t31.5 74zM461 454q-1 -25 -2 -53t-1 -61q0 -34 1 -63.5t2 -53.5q-21 0 -37 1.5t-30 6.5q-4 46 -24.5 62t-73.5 16h-64v59h64q56 0 75.5 16
t20.5 60q15 6 33 8t36 2zM539 679q2 -24 4.5 -55t7 -60.5t9.5 -52.5q-13 -7 -31 -11.5t-43 -4.5q-4 34 -17.5 61.5t-44.5 44.5t-88 17h-103l28 58q76 0 130 0.5t90 1t58 1.5zM135 732q0 70 43 106.5t125 36.5q80 0 122 -35t42 -104q-16 -7 -36 -9.5t-40 -0.5
q-5 31 -31.5 47.5t-67.5 16.5t-65.5 -16.5t-26.5 -47.5q-18 -3 -34.5 -1t-30.5 7z" />
    <glyph glyph-name="Emacron" unicode="&#x112;" horiz-adv-x="624" 
d="M42 679q20 -1 49 -1.5t61.5 -1t62.5 -0.5h51v-510q0 -42 7 -64.5t25.5 -31.5t51.5 -9l-22 -61q-27 0 -68 -0.5t-84 -1t-79.5 -1t-54.5 -0.5q0 18 1.5 34t5.5 27q27 2 41.5 10.5t20 30.5t5.5 65v355q0 39 -5.5 59.5t-20 28.5t-42.5 11q-3 11 -4.5 29t-1.5 32zM523 192
q24 -4 43.5 -11.5t30.5 -17.5q-11 -34 -18.5 -78.5t-12.5 -86.5q-24 1 -63.5 1t-85 0.5t-89.5 0.5l22 61h12q52 0 82 14t47.5 43t31.5 74zM461 454q-1 -25 -2 -53t-1 -61q0 -34 1 -63.5t2 -53.5q-21 0 -37 1.5t-30 6.5q-4 46 -24.5 62t-73.5 16h-64v59h64q56 0 75.5 16
t20.5 60q15 6 33 8t36 2zM539 679q2 -24 4.5 -55t7 -60.5t9.5 -52.5q-13 -7 -31 -11.5t-43 -4.5q-4 34 -17.5 61.5t-44.5 44.5t-88 17h-103l28 58q76 0 130 0.5t90 1t58 1.5zM491 817q0 -10 -2 -25t-7 -29q-44 0 -102.5 -1t-126.5 -2.5t-141 -5.5q0 14 2 32t7 31h370z" />
    <glyph glyph-name="uni1E16" unicode="&#x1e16;" horiz-adv-x="624" 
d="M42 679q20 -1 49 -1.5t61.5 -1t62.5 -0.5h51v-510q0 -42 7 -64.5t25.5 -31.5t51.5 -9l-22 -61q-27 0 -68 -0.5t-84 -1t-79.5 -1t-54.5 -0.5q0 18 1.5 34t5.5 27q27 2 41.5 10.5t20 30.5t5.5 65v355q0 39 -5.5 59.5t-20 28.5t-42.5 11q-3 11 -4.5 29t-1.5 32zM523 192
q24 -4 43.5 -11.5t30.5 -17.5q-11 -34 -18.5 -78.5t-12.5 -86.5q-24 1 -63.5 1t-85 0.5t-89.5 0.5l22 61h12q52 0 82 14t47.5 43t31.5 74zM461 454q-1 -25 -2 -53t-1 -61q0 -34 1 -63.5t2 -53.5q-21 0 -37 1.5t-30 6.5q-4 46 -24.5 62t-73.5 16h-64v59h64q56 0 75.5 16
t20.5 60q15 6 33 8t36 2zM539 679q2 -24 4.5 -55t7 -60.5t9.5 -52.5q-13 -7 -31 -11.5t-43 -4.5q-4 34 -17.5 61.5t-44.5 44.5t-88 17h-103l28 58q76 0 130 0.5t90 1t58 1.5zM491 817q0 -10 -2 -25t-7 -29q-44 0 -102.5 -1t-126.5 -2.5t-141 -5.5q0 14 2 32t7 31h370z
M320 875q-22 0 -39 2.5t-33 8.5q17 31 33 65t26 62q17 4 35.5 6t36.5 2q33 0 58 -7q-32 -34 -60 -68t-57 -71z" />
    <glyph glyph-name="uni1E14" unicode="&#x1e14;" horiz-adv-x="624" 
d="M42 679q20 -1 49 -1.5t61.5 -1t62.5 -0.5h51v-510q0 -42 7 -64.5t25.5 -31.5t51.5 -9l-22 -61q-27 0 -68 -0.5t-84 -1t-79.5 -1t-54.5 -0.5q0 18 1.5 34t5.5 27q27 2 41.5 10.5t20 30.5t5.5 65v355q0 39 -5.5 59.5t-20 28.5t-42.5 11q-3 11 -4.5 29t-1.5 32zM523 192
q24 -4 43.5 -11.5t30.5 -17.5q-11 -34 -18.5 -78.5t-12.5 -86.5q-24 1 -63.5 1t-85 0.5t-89.5 0.5l22 61h12q52 0 82 14t47.5 43t31.5 74zM461 454q-1 -25 -2 -53t-1 -61q0 -34 1 -63.5t2 -53.5q-21 0 -37 1.5t-30 6.5q-4 46 -24.5 62t-73.5 16h-64v59h64q56 0 75.5 16
t20.5 60q15 6 33 8t36 2zM539 679q2 -24 4.5 -55t7 -60.5t9.5 -52.5q-13 -7 -31 -11.5t-43 -4.5q-4 34 -17.5 61.5t-44.5 44.5t-88 17h-103l28 58q76 0 130 0.5t90 1t58 1.5zM491 817q0 -10 -2 -25t-7 -29q-44 0 -102.5 -1t-126.5 -2.5t-141 -5.5q0 14 2 32t7 31h370z
M279 875q-25 34 -51 64.5t-56 59.5q23 12 55.5 16t62.5 3q12 -30 29 -65t36 -67q-15 -6 -34.5 -8.5t-41.5 -2.5z" />
    <glyph glyph-name="Eogonek" unicode="&#x118;" horiz-adv-x="624" 
d="M42 679q20 -1 49 -1.5t61.5 -1t62.5 -0.5h51v-510q0 -42 7 -64.5t25.5 -31.5t51.5 -9l-22 -61q-27 0 -68 -0.5t-84 -1t-79.5 -1t-54.5 -0.5q0 18 1.5 34t5.5 27q27 2 41.5 10.5t20 30.5t5.5 65v355q0 39 -5.5 59.5t-20 28.5t-42.5 11q-3 11 -4.5 29t-1.5 32zM523 192
q24 -4 43.5 -11.5t30.5 -17.5q-11 -34 -18.5 -78.5t-12.5 -86.5q-24 1 -63.5 1t-85 0.5t-89.5 0.5l22 61h12q52 0 82 14t47.5 43t31.5 74zM461 454q-1 -25 -2 -53t-1 -61q0 -34 1 -63.5t2 -53.5q-21 0 -37 1.5t-30 6.5q-4 46 -24.5 62t-73.5 16h-64v59h64q56 0 75.5 16
t20.5 60q15 6 33 8t36 2zM539 679q2 -24 4.5 -55t7 -60.5t9.5 -52.5q-13 -7 -31 -11.5t-43 -4.5q-4 34 -17.5 61.5t-44.5 44.5t-88 17h-103l28 58q76 0 130 0.5t90 1t58 1.5zM486 23l30 -23q-56 -17 -78.5 -44t-22.5 -51t18 -36.5t52 -12.5q9 0 18.5 1.5t18.5 3.5
q5 -6 8 -17t4.5 -23.5t0.5 -22.5q-28 -8 -56 -19.5t-50 -26.5q-5 -1 -10 -1h-11q-22 0 -49 10t-47 33t-20 62q0 54 46.5 95.5t147.5 71.5z" />
    <glyph glyph-name="uni018E" unicode="&#x18e;" horiz-adv-x="624" 
d="M582 679q-20 -1 -49 -1.5t-61 -1t-62 -0.5h-51v-510q0 -42 -7 -64.5t-25.5 -31.5t-51.5 -9l22 -61q27 0 67.5 -0.5t84 -1t79.5 -1t54 -0.5q0 18 -1.5 34t-4.5 27q-27 2 -41.5 10.5t-20.5 30.5t-6 65v355q0 39 5.5 59.5t20.5 28.5t42 11q4 11 5 29t1 32zM102 192
q-25 -4 -44 -11.5t-31 -17.5q11 -34 19 -78.5t12 -86.5q26 1 64.5 1t84.5 0.5t90 0.5l-22 61h-12q-52 0 -82 14t-47.5 43t-31.5 74zM164 454q2 -25 2.5 -53t0.5 -61q0 -34 -0.5 -63.5t-2.5 -53.5q21 0 37 1.5t30 6.5q4 46 24.5 62t72.5 16h64v59h-64q-55 0 -74.5 16
t-20.5 60q-15 6 -32.5 8t-36.5 2zM85 679q-1 -24 -3.5 -55t-7 -60.5t-10.5 -52.5q14 -7 32 -11.5t42 -4.5q5 34 18.5 61.5t45 44.5t87.5 17h103l-28 58q-76 0 -130 0.5t-90 1t-59 1.5z" />
    <glyph glyph-name="uni1EBC" unicode="&#x1ebc;" horiz-adv-x="624" 
d="M42 679q20 -1 49 -1.5t61.5 -1t62.5 -0.5h51v-510q0 -42 7 -64.5t25.5 -31.5t51.5 -9l-22 -61q-27 0 -68 -0.5t-84 -1t-79.5 -1t-54.5 -0.5q0 18 1.5 34t5.5 27q27 2 41.5 10.5t20 30.5t5.5 65v355q0 39 -5.5 59.5t-20 28.5t-42.5 11q-3 11 -4.5 29t-1.5 32zM523 192
q24 -4 43.5 -11.5t30.5 -17.5q-11 -34 -18.5 -78.5t-12.5 -86.5q-24 1 -63.5 1t-85 0.5t-89.5 0.5l22 61h12q52 0 82 14t47.5 43t31.5 74zM461 454q-1 -25 -2 -53t-1 -61q0 -34 1 -63.5t2 -53.5q-21 0 -37 1.5t-30 6.5q-4 46 -24.5 62t-73.5 16h-64v59h64q56 0 75.5 16
t20.5 60q15 6 33 8t36 2zM539 679q2 -24 4.5 -55t7 -60.5t9.5 -52.5q-13 -7 -31 -11.5t-43 -4.5q-4 34 -17.5 61.5t-44.5 44.5t-88 17h-103l28 58q76 0 130 0.5t90 1t58 1.5zM354 741q-23 0 -40.5 6.5t-32.5 14.5t-30.5 15t-34.5 7q-21 0 -39 -10.5t-35 -29.5q-13 11 -19 24
t-7 30q29 40 64 55t65 15t52.5 -10t43 -20t42.5 -10q18 0 32.5 9t26.5 24q13 -2 25.5 -8t20.5 -16q-24 -47 -58.5 -71.5t-75.5 -24.5z" />
    <glyph glyph-name="uni01B7" unicode="&#x1b7;" horiz-adv-x="608" 
d="M273 -9q-67 0 -120.5 12t-93.5 33q2 22 1.5 50t-3 58t-6.5 55q17 6 38 8.5t42 2.5q10 -81 43 -116.5t96 -35.5q65 0 102 33t37 92q0 68 -51 102t-143 34q-7 11 -12 30.5t-5 33.5q32 35 64.5 78.5t63.5 90.5t57 92l24 -26h-143q-38 0 -61.5 -10.5t-39 -40t-28.5 -86.5
q-22 0 -45 2.5t-37 9.5q11 40 16.5 91t5.5 94q17 -1 46.5 -1.5t65 -0.5h68.5h58h71t72.5 0.5t69.5 1.5q7 -10 11.5 -23t5.5 -29q-35 -61 -84.5 -132t-106.5 -138l-18 19q109 -2 170.5 -48.5t61.5 -132.5q0 -95 -75 -149t-218 -54z" />
    <glyph glyph-name="uni01EE" unicode="&#x1ee;" horiz-adv-x="608" 
d="M273 -9q-67 0 -120.5 12t-93.5 33q2 22 1.5 50t-3 58t-6.5 55q17 6 38 8.5t42 2.5q10 -81 43 -116.5t96 -35.5q65 0 102 33t37 92q0 68 -51 102t-143 34q-7 11 -12 30.5t-5 33.5q32 35 64.5 78.5t63.5 90.5t57 92l24 -26h-143q-38 0 -61.5 -10.5t-39 -40t-28.5 -86.5
q-22 0 -45 2.5t-37 9.5q11 40 16.5 91t5.5 94q17 -1 46.5 -1.5t65 -0.5h68.5h58h71t72.5 0.5t69.5 1.5q7 -10 11.5 -23t5.5 -29q-35 -61 -84.5 -132t-106.5 -138l-18 19q109 -2 170.5 -48.5t61.5 -132.5q0 -95 -75 -149t-218 -54zM251 728q-26 28 -60.5 58t-76.5 60
q11 14 26.5 24.5t38.5 15.5q26 -15 58 -32t61 -30q16 7 38 18t44.5 23t37.5 21q18 -3 28.5 -17t14.5 -27q-37 -22 -76.5 -50.5t-69.5 -55.5q-15 -5 -31 -6.5t-33 -1.5z" />
    <glyph glyph-name="F" unicode="F" horiz-adv-x="590" 
d="M42 -3q0 21 1.5 35.5t4.5 25.5q27 2 42 10t20.5 29.5t5.5 60.5v361q0 39 -5 59.5t-19.5 28.5t-41.5 11q-4 11 -6 26.5t-2 34.5q21 -1 49.5 -1.5t60.5 -1t62 -0.5h52v-503q0 -43 9.5 -67t31 -34.5t58.5 -13.5q5 -12 6 -28t1 -33q-17 1 -44 1.5t-57 1t-58 0.5
q-45 0 -94 -0.5t-77 -2.5zM479 195q-21 0 -37 1.5t-30 6.5q-4 46 -24 62t-73 16h-64v59h64q55 0 74.5 16t20.5 60q15 6 33 8t36 2q-1 -25 -2 -53t-1 -60q0 -35 1 -64.5t2 -53.5zM490 495q-5 34 -18.5 61.5t-44.5 44.5t-88 17h-108l28 58q80 0 134.5 0.5t91 1t58.5 1.5
q1 -24 4 -55t7 -60.5t10 -52.5q-14 -7 -32 -11.5t-42 -4.5z" />
    <glyph glyph-name="G" unicode="G" horiz-adv-x="714" 
d="M377 -9q-104 0 -181 42.5t-119 122t-42 189.5q0 82 26.5 145.5t74.5 106.5t112 65.5t140 22.5q69 0 131 -14.5t106 -35.5q-6 -34 -8.5 -73t-2.5 -82q-17 -7 -37 -9t-40 -2q-2 61 -21.5 94.5t-52 47.5t-74.5 14q-69 0 -112.5 -37t-64 -95.5t-20.5 -124.5q0 -88 23.5 -159
t68.5 -112t109 -41q22 0 37 2t30 8t24 20.5t9 52.5v42q0 38 -5.5 55.5t-22.5 24t-50 7.5q-4 12 -5.5 28t-1.5 34q25 -1 62 -2t69 -1q31 0 69 0.5t62 1.5q0 -14 -1 -30.5t-5 -30.5q-18 -1 -27.5 -7t-12 -22.5t-2.5 -49.5v-34q0 -31 3 -49t12 -38q-45 -33 -112 -55t-148 -22z
" />
    <glyph glyph-name="Gbreve" unicode="&#x11e;" horiz-adv-x="714" 
d="M377 -9q-104 0 -181 42.5t-119 122t-42 189.5q0 82 26.5 145.5t74.5 106.5t112 65.5t140 22.5q69 0 131 -14.5t106 -35.5q-6 -34 -8.5 -73t-2.5 -82q-17 -7 -37 -9t-40 -2q-2 61 -21.5 94.5t-52 47.5t-74.5 14q-69 0 -112.5 -37t-64 -95.5t-20.5 -124.5q0 -88 23.5 -159
t68.5 -112t109 -41q22 0 37 2t30 8t24 20.5t9 52.5v42q0 38 -5.5 55.5t-22.5 24t-50 7.5q-4 12 -5.5 28t-1.5 34q25 -1 62 -2t69 -1q31 0 69 0.5t62 1.5q0 -14 -1 -30.5t-5 -30.5q-18 -1 -27.5 -7t-12 -22.5t-2.5 -49.5v-34q0 -31 3 -49t12 -38q-45 -33 -112 -55t-148 -22z
M548 867q0 -70 -43 -106.5t-125 -36.5q-80 0 -122 35.5t-42 103.5q16 7 36 10t40 0q5 -31 31.5 -47.5t67.5 -16.5t65.5 16.5t26.5 47.5q18 3 35 1t30 -7z" />
    <glyph glyph-name="Gcaron" unicode="&#x1e6;" horiz-adv-x="714" 
d="M377 -9q-104 0 -181 42.5t-119 122t-42 189.5q0 82 26.5 145.5t74.5 106.5t112 65.5t140 22.5q69 0 131 -14.5t106 -35.5q-6 -34 -8.5 -73t-2.5 -82q-17 -7 -37 -9t-40 -2q-2 61 -21.5 94.5t-52 47.5t-74.5 14q-69 0 -112.5 -37t-64 -95.5t-20.5 -124.5q0 -88 23.5 -159
t68.5 -112t109 -41q22 0 37 2t30 8t24 20.5t9 52.5v42q0 38 -5.5 55.5t-22.5 24t-50 7.5q-4 12 -5.5 28t-1.5 34q25 -1 62 -2t69 -1q31 0 69 0.5t62 1.5q0 -14 -1 -30.5t-5 -30.5q-18 -1 -27.5 -7t-12 -22.5t-2.5 -49.5v-34q0 -31 3 -49t12 -38q-45 -33 -112 -55t-148 -22z
M338 728q-26 28 -60.5 58t-76.5 60q11 14 26.5 24.5t38.5 15.5q26 -15 58 -32t61 -30q16 7 38 18t44.5 23t37.5 21q18 -3 28.5 -17t14.5 -27q-37 -22 -76.5 -50.5t-69.5 -55.5q-15 -5 -31 -6.5t-33 -1.5z" />
    <glyph glyph-name="Gcircumflex" unicode="&#x11c;" horiz-adv-x="714" 
d="M377 -9q-104 0 -181 42.5t-119 122t-42 189.5q0 82 26.5 145.5t74.5 106.5t112 65.5t140 22.5q69 0 131 -14.5t106 -35.5q-6 -34 -8.5 -73t-2.5 -82q-17 -7 -37 -9t-40 -2q-2 61 -21.5 94.5t-52 47.5t-74.5 14q-69 0 -112.5 -37t-64 -95.5t-20.5 -124.5q0 -88 23.5 -159
t68.5 -112t109 -41q22 0 37 2t30 8t24 20.5t9 52.5v42q0 38 -5.5 55.5t-22.5 24t-50 7.5q-4 12 -5.5 28t-1.5 34q25 -1 62 -2t69 -1q31 0 69 0.5t62 1.5q0 -14 -1 -30.5t-5 -30.5q-18 -1 -27.5 -7t-12 -22.5t-2.5 -49.5v-34q0 -31 3 -49t12 -38q-45 -33 -112 -55t-148 -22z
M252 728q-17 4 -28 18t-15 26q37 22 76.5 50.5t69.5 56.5q15 4 31.5 5.5t31.5 1.5q27 -28 61.5 -57.5t76.5 -60.5q-11 -14 -26.5 -24.5t-39.5 -15.5q-25 16 -57 33t-61 30q-15 -7 -38 -18.5t-45 -23t-37 -21.5z" />
    <glyph glyph-name="uni0122" unicode="&#x122;" horiz-adv-x="714" 
d="M377 -9q-104 0 -181 42.5t-119 122t-42 189.5q0 82 26.5 145.5t74.5 106.5t112 65.5t140 22.5q69 0 131 -14.5t106 -35.5q-6 -34 -8.5 -73t-2.5 -82q-17 -7 -37 -9t-40 -2q-2 61 -21.5 94.5t-52 47.5t-74.5 14q-69 0 -112.5 -37t-64 -95.5t-20.5 -124.5q0 -88 23.5 -159
t68.5 -112t109 -41q22 0 37 2t30 8t24 20.5t9 52.5v42q0 38 -5.5 55.5t-22.5 24t-50 7.5q-4 12 -5.5 28t-1.5 34q25 -1 62 -2t69 -1q31 0 69 0.5t62 1.5q0 -14 -1 -30.5t-5 -30.5q-18 -1 -27.5 -7t-12 -22.5t-2.5 -49.5v-34q0 -31 3 -49t12 -38q-45 -33 -112 -55t-148 -22z
M416 -40q23 -7 33.5 -25.5t10.5 -50.5q0 -58 -31.5 -103.5t-78.5 -78.5q-34 0 -53 23q28 23 41.5 45.5t13.5 40.5q0 34 -52 40q-2 17 1.5 39t10.5 40q32 3 58.5 10.5t45.5 19.5z" />
    <glyph glyph-name="Gdotaccent" unicode="&#x120;" horiz-adv-x="714" 
d="M377 -9q-104 0 -181 42.5t-119 122t-42 189.5q0 82 26.5 145.5t74.5 106.5t112 65.5t140 22.5q69 0 131 -14.5t106 -35.5q-6 -34 -8.5 -73t-2.5 -82q-17 -7 -37 -9t-40 -2q-2 61 -21.5 94.5t-52 47.5t-74.5 14q-69 0 -112.5 -37t-64 -95.5t-20.5 -124.5q0 -88 23.5 -159
t68.5 -112t109 -41q22 0 37 2t30 8t24 20.5t9 52.5v42q0 38 -5.5 55.5t-22.5 24t-50 7.5q-4 12 -5.5 28t-1.5 34q25 -1 62 -2t69 -1q31 0 69 0.5t62 1.5q0 -14 -1 -30.5t-5 -30.5q-18 -1 -27.5 -7t-12 -22.5t-2.5 -49.5v-34q0 -31 3 -49t12 -38q-45 -33 -112 -55t-148 -22z
M378 717q-36 0 -58.5 19.5t-22.5 50.5q0 36 25 55.5t60 19.5q41 0 63 -19.5t22 -54.5q0 -31 -24 -51t-65 -20z" />
    <glyph glyph-name="uni1E20" unicode="&#x1e20;" horiz-adv-x="714" 
d="M377 -9q-104 0 -181 42.5t-119 122t-42 189.5q0 82 26.5 145.5t74.5 106.5t112 65.5t140 22.5q69 0 131 -14.5t106 -35.5q-6 -34 -8.5 -73t-2.5 -82q-17 -7 -37 -9t-40 -2q-2 61 -21.5 94.5t-52 47.5t-74.5 14q-69 0 -112.5 -37t-64 -95.5t-20.5 -124.5q0 -88 23.5 -159
t68.5 -112t109 -41q22 0 37 2t30 8t24 20.5t9 52.5v42q0 38 -5.5 55.5t-22.5 24t-50 7.5q-4 12 -5.5 28t-1.5 34q25 -1 62 -2t69 -1q31 0 69 0.5t62 1.5q0 -14 -1 -30.5t-5 -30.5q-18 -1 -27.5 -7t-12 -22.5t-2.5 -49.5v-34q0 -31 3 -49t12 -38q-45 -33 -112 -55t-148 -22z
M572 817q0 -10 -2 -25t-7 -29q-44 0 -102.5 -1t-126.5 -2.5t-141 -5.5q0 14 2 32t7 31h370z" />
    <glyph glyph-name="uni01E4" unicode="&#x1e4;" horiz-adv-x="714" 
d="M364 131q0 20 3 40t7 31h123h69h133q0 -20 -2 -37.5t-7 -32.5q-26 1 -44.5 1h-37.5h-45h-68q-20 0 -40 -0.5t-41.5 -1t-49.5 -0.5zM377 -9q-104 0 -181 42.5t-119 122t-42 189.5q0 82 26.5 145.5t74.5 106.5t112 65.5t140 22.5q69 0 131 -14.5t106 -35.5q-6 -34 -8.5 -73
t-2.5 -82q-17 -7 -37 -9t-40 -2q-2 61 -21.5 94.5t-52 47.5t-74.5 14q-69 0 -112.5 -37t-64 -95.5t-20.5 -124.5q0 -88 23.5 -159t68.5 -112t109 -41q22 0 37 2t30 8t24 20.5t9 52.5v42q0 38 -5.5 55.5t-22.5 24t-50 7.5q-4 12 -5.5 28t-1.5 34q25 -1 62 -2t69 -1
q31 0 69 0.5t62 1.5q0 -14 -1 -30.5t-5 -30.5q-18 -1 -27.5 -7t-12 -22.5t-2.5 -49.5v-34q0 -31 3 -49t12 -38q-45 -33 -112 -55t-148 -22z" />
    <glyph glyph-name="uni021C" unicode="&#x21c;" horiz-adv-x="578" 
d="M215 -171q-55 0 -98.5 12.5t-69.5 34.5q1 13 6.5 27t17.5 25q15 -13 48 -22.5t70 -9.5q58 0 101 26t66.5 72.5t23.5 105.5q0 74 -36 111t-101 37q-22 0 -46 -4t-44 -13q-9 14 -12.5 32.5t-1.5 34.5q74 20 120 47.5t67.5 66t21.5 89.5q0 61 -27.5 92t-80.5 31
q-48 0 -70 -31t-35 -105q-19 -1 -40.5 2.5t-39.5 11.5q4 28 5 65.5t-3 75.5q35 21 85 31.5t111 10.5q128 0 189.5 -46t61.5 -124q0 -53 -28 -95t-81.5 -74.5t-130.5 -57.5l12 17q76 8 134.5 -12.5t92 -67t33.5 -120.5q0 -81 -41.5 -143.5t-114 -97.5t-165.5 -35z" />
    <glyph glyph-name="H" unicode="H" horiz-adv-x="779" 
d="M439 -3q0 16 2 33t5 28q27 2 41.5 10t20 29.5t5.5 60.5v361q0 39 -5.5 59.5t-20 28.5t-41.5 11q-4 11 -5.5 28t-1.5 33q18 -1 44.5 -1.5t55.5 -1t51 -0.5q23 0 49.5 0.5t51.5 1t45 1.5q0 -17 -1 -32t-6 -29q-26 -2 -41 -10.5t-20.5 -29t-5.5 -59.5v-361q0 -39 6 -60.5
t20.5 -29.5t41.5 -10q3 -10 4.5 -27t1.5 -34q-26 2 -63 2.5t-78 0.5t-83 -0.5t-73 -2.5zM42 -3q0 16 2.5 33t5.5 28q27 2 41.5 10t19.5 29.5t5 60.5v361q0 39 -5 59.5t-19.5 28.5t-41.5 11q-4 11 -6 28t-2 33q18 -1 44.5 -1.5t55.5 -1t52 -0.5t49 0.5t51.5 1t45.5 1.5
q0 -17 -1 -32t-6 -29q-27 -2 -41.5 -10.5t-20 -29t-5.5 -59.5v-361q0 -39 5.5 -60.5t20.5 -29.5t41 -10q4 -10 5.5 -27t1.5 -34q-26 2 -63 2.5t-78 0.5t-83.5 -0.5t-73.5 -2.5zM261 309v70h257v-62h-60t-70 -1t-69 -2.5t-58 -4.5z" />
    <glyph glyph-name="Hbar" unicode="&#x126;" horiz-adv-x="779" 
d="M439 -3q0 16 2 33t5 28q27 2 41.5 10t20 29.5t5.5 60.5v361q0 39 -5.5 59.5t-20 28.5t-41.5 11q-4 11 -5.5 28t-1.5 33q18 -1 44.5 -1.5t55.5 -1t51 -0.5q23 0 49.5 0.5t51.5 1t45 1.5q0 -17 -1 -32t-6 -29q-26 -2 -41 -10.5t-20.5 -29t-5.5 -59.5v-361q0 -39 6 -60.5
t20.5 -29.5t41.5 -10q3 -10 4.5 -27t1.5 -34q-26 2 -63 2.5t-78 0.5t-83 -0.5t-73 -2.5zM42 -3q0 16 2.5 33t5.5 28q27 2 41.5 10t19.5 29.5t5 60.5v361q0 39 -5 59.5t-19.5 28.5t-41.5 11q-4 11 -6 28t-2 33q18 -1 44.5 -1.5t55.5 -1t52 -0.5t49 0.5t51.5 1t45.5 1.5
q0 -17 -1 -32t-6 -29q-27 -2 -41.5 -10.5t-20 -29t-5.5 -59.5v-361q0 -39 5.5 -60.5t20.5 -29.5t41 -10q4 -10 5.5 -27t1.5 -34q-26 2 -63 2.5t-78 0.5t-83.5 -0.5t-73.5 -2.5zM261 309v70h257v-62h-60t-70 -1t-69 -2.5t-58 -4.5zM48 448q0 16 3.5 34t8.5 30h670
q0 -17 -3 -31.5t-9 -28.5h-89.5h-103.5t-114 -0.5t-120 -1l-122 -1t-121 -1.5z" />
    <glyph glyph-name="uni1E2A" unicode="&#x1e2a;" horiz-adv-x="779" 
d="M439 -3q0 16 2 33t5 28q27 2 41.5 10t20 29.5t5.5 60.5v361q0 39 -5.5 59.5t-20 28.5t-41.5 11q-4 11 -5.5 28t-1.5 33q18 -1 44.5 -1.5t55.5 -1t51 -0.5q23 0 49.5 0.5t51.5 1t45 1.5q0 -17 -1 -32t-6 -29q-26 -2 -41 -10.5t-20.5 -29t-5.5 -59.5v-361q0 -39 6 -60.5
t20.5 -29.5t41.5 -10q3 -10 4.5 -27t1.5 -34q-26 2 -63 2.5t-78 0.5t-83 -0.5t-73 -2.5zM42 -3q0 16 2.5 33t5.5 28q27 2 41.5 10t19.5 29.5t5 60.5v361q0 39 -5 59.5t-19.5 28.5t-41.5 11q-4 11 -6 28t-2 33q18 -1 44.5 -1.5t55.5 -1t52 -0.5t49 0.5t51.5 1t45.5 1.5
q0 -17 -1 -32t-6 -29q-27 -2 -41.5 -10.5t-20 -29t-5.5 -59.5v-361q0 -39 5.5 -60.5t20.5 -29.5t41 -10q4 -10 5.5 -27t1.5 -34q-26 2 -63 2.5t-78 0.5t-83.5 -0.5t-73.5 -2.5zM261 309v70h257v-62h-60t-70 -1t-69 -2.5t-58 -4.5zM555 -58q0 -70 -43 -106.5t-125 -36.5
q-80 0 -122 35.5t-42 103.5q16 7 36 10t40 0q5 -31 31.5 -47.5t67.5 -16.5t65.5 16.5t26.5 47.5q18 3 35 1t30 -7z" />
    <glyph glyph-name="uni021E" unicode="&#x21e;" horiz-adv-x="779" 
d="M439 -3q0 16 2 33t5 28q27 2 41.5 10t20 29.5t5.5 60.5v361q0 39 -5.5 59.5t-20 28.5t-41.5 11q-4 11 -5.5 28t-1.5 33q18 -1 44.5 -1.5t55.5 -1t51 -0.5q23 0 49.5 0.5t51.5 1t45 1.5q0 -17 -1 -32t-6 -29q-26 -2 -41 -10.5t-20.5 -29t-5.5 -59.5v-361q0 -39 6 -60.5
t20.5 -29.5t41.5 -10q3 -10 4.5 -27t1.5 -34q-26 2 -63 2.5t-78 0.5t-83 -0.5t-73 -2.5zM42 -3q0 16 2.5 33t5.5 28q27 2 41.5 10t19.5 29.5t5 60.5v361q0 39 -5 59.5t-19.5 28.5t-41.5 11q-4 11 -6 28t-2 33q18 -1 44.5 -1.5t55.5 -1t52 -0.5t49 0.5t51.5 1t45.5 1.5
q0 -17 -1 -32t-6 -29q-27 -2 -41.5 -10.5t-20 -29t-5.5 -59.5v-361q0 -39 5.5 -60.5t20.5 -29.5t41 -10q4 -10 5.5 -27t1.5 -34q-26 2 -63 2.5t-78 0.5t-83.5 -0.5t-73.5 -2.5zM261 309v70h257v-62h-60t-70 -1t-69 -2.5t-58 -4.5zM345 728q-26 28 -60.5 58t-76.5 60
q11 14 26.5 24.5t38.5 15.5q26 -15 58 -32t61 -30q16 7 38 18t44.5 23t37.5 21q18 -3 28.5 -17t14.5 -27q-37 -22 -76.5 -50.5t-69.5 -55.5q-15 -5 -31 -6.5t-33 -1.5z" />
    <glyph glyph-name="Hcircumflex" unicode="&#x124;" horiz-adv-x="779" 
d="M439 -3q0 16 2 33t5 28q27 2 41.5 10t20 29.5t5.5 60.5v361q0 39 -5.5 59.5t-20 28.5t-41.5 11q-4 11 -5.5 28t-1.5 33q18 -1 44.5 -1.5t55.5 -1t51 -0.5q23 0 49.5 0.5t51.5 1t45 1.5q0 -17 -1 -32t-6 -29q-26 -2 -41 -10.5t-20.5 -29t-5.5 -59.5v-361q0 -39 6 -60.5
t20.5 -29.5t41.5 -10q3 -10 4.5 -27t1.5 -34q-26 2 -63 2.5t-78 0.5t-83 -0.5t-73 -2.5zM42 -3q0 16 2.5 33t5.5 28q27 2 41.5 10t19.5 29.5t5 60.5v361q0 39 -5 59.5t-19.5 28.5t-41.5 11q-4 11 -6 28t-2 33q18 -1 44.5 -1.5t55.5 -1t52 -0.5t49 0.5t51.5 1t45.5 1.5
q0 -17 -1 -32t-6 -29q-27 -2 -41.5 -10.5t-20 -29t-5.5 -59.5v-361q0 -39 5.5 -60.5t20.5 -29.5t41 -10q4 -10 5.5 -27t1.5 -34q-26 2 -63 2.5t-78 0.5t-83.5 -0.5t-73.5 -2.5zM261 309v70h257v-62h-60t-70 -1t-69 -2.5t-58 -4.5zM259 728q-17 4 -28 18t-15 26
q37 22 76.5 50.5t69.5 56.5q15 4 31.5 5.5t31.5 1.5q27 -28 61.5 -57.5t76.5 -60.5q-11 -14 -26.5 -24.5t-39.5 -15.5q-25 16 -57 33t-61 30q-15 -7 -38 -18.5t-45 -23t-37 -21.5z" />
    <glyph glyph-name="uni1E24" unicode="&#x1e24;" horiz-adv-x="779" 
d="M439 -3q0 16 2 33t5 28q27 2 41.5 10t20 29.5t5.5 60.5v361q0 39 -5.5 59.5t-20 28.5t-41.5 11q-4 11 -5.5 28t-1.5 33q18 -1 44.5 -1.5t55.5 -1t51 -0.5q23 0 49.5 0.5t51.5 1t45 1.5q0 -17 -1 -32t-6 -29q-26 -2 -41 -10.5t-20.5 -29t-5.5 -59.5v-361q0 -39 6 -60.5
t20.5 -29.5t41.5 -10q3 -10 4.5 -27t1.5 -34q-26 2 -63 2.5t-78 0.5t-83 -0.5t-73 -2.5zM42 -3q0 16 2.5 33t5.5 28q27 2 41.5 10t19.5 29.5t5 60.5v361q0 39 -5 59.5t-19.5 28.5t-41.5 11q-4 11 -6 28t-2 33q18 -1 44.5 -1.5t55.5 -1t52 -0.5t49 0.5t51.5 1t45.5 1.5
q0 -17 -1 -32t-6 -29q-27 -2 -41.5 -10.5t-20 -29t-5.5 -59.5v-361q0 -39 5.5 -60.5t20.5 -29.5t41 -10q4 -10 5.5 -27t1.5 -34q-26 2 -63 2.5t-78 0.5t-83.5 -0.5t-73.5 -2.5zM261 309v70h257v-62h-60t-70 -1t-69 -2.5t-58 -4.5zM385 -224q-36 0 -58.5 20t-22.5 50
q0 36 25 56t60 20q41 0 63 -19.5t22 -55.5q0 -30 -24 -50.5t-65 -20.5z" />
    <glyph glyph-name="I" unicode="I" horiz-adv-x="382" 
d="M116 519q0 39 -5 59.5t-19.5 28.5t-41.5 11q-4 11 -6 28t-2 33q18 -1 44.5 -1.5t55.5 -1t52 -0.5t49 0.5t51.5 1t45.5 1.5q0 -17 -1 -32t-6 -29q-27 -2 -41.5 -10.5t-20 -29t-5.5 -59.5v-361q0 -39 5.5 -60.5t20.5 -29.5t41 -10q4 -10 5.5 -27t1.5 -34q-26 2 -63 2.5
t-78 0.5t-83.5 -0.5t-73.5 -2.5q0 16 2.5 33t5.5 28q27 2 41.5 10t19.5 29.5t5 60.5v361z" />
    <glyph glyph-name="IJ" unicode="&#x132;" horiz-adv-x="691" 
d="M116 519q0 39 -5 59.5t-19.5 28.5t-41.5 11q-4 11 -6 28t-2 33q18 -1 44.5 -1.5t55.5 -1t52 -0.5t49 0.5t51.5 1t45.5 1.5q0 -17 -1 -32t-6 -29q-27 -2 -41.5 -10.5t-20 -29t-5.5 -59.5v-361q0 -39 5.5 -60.5t20.5 -29.5t41 -10q4 -10 5.5 -27t1.5 -34q-26 2 -63 2.5
t-78 0.5t-83.5 -0.5t-73.5 -2.5q0 16 2.5 33t5.5 28q27 2 41.5 10t19.5 29.5t5 60.5v361zM582 130q0 -69 -8.5 -125t-33 -101t-70 -82.5t-120.5 -70.5q-13 9 -19.5 22.5t-8.5 28.5q38 28 62 59.5t36.5 76t12.5 111.5v468q0 41 -5.5 61.5t-20 29t-41.5 10.5q-4 11 -5.5 28
t-1.5 33q18 -1 43 -2t53 -1h52q37 0 80 0.5t69 2.5q0 -18 -1.5 -33.5t-5.5 -27.5q-28 -2 -42.5 -11.5t-19.5 -30.5t-5 -59v-387z" />
    <glyph glyph-name="Iacute" unicode="&#xcd;" horiz-adv-x="382" 
d="M116 519q0 39 -5 59.5t-19.5 28.5t-41.5 11q-4 11 -6 28t-2 33q18 -1 44.5 -1.5t55.5 -1t52 -0.5t49 0.5t51.5 1t45.5 1.5q0 -17 -1 -32t-6 -29q-27 -2 -41.5 -10.5t-20 -29t-5.5 -59.5v-361q0 -39 5.5 -60.5t20.5 -29.5t41 -10q4 -10 5.5 -27t1.5 -34q-26 2 -63 2.5
t-78 0.5t-83.5 -0.5t-73.5 -2.5q0 16 2.5 33t5.5 28q27 2 41.5 10t19.5 29.5t5 60.5v361zM209 734q-22 0 -39 2.5t-33 8.5q17 31 33 65t26 62q17 4 35.5 6t36.5 2q33 0 58 -7q-32 -34 -60 -68t-57 -71z" />
    <glyph glyph-name="Ibreve" unicode="&#x12c;" horiz-adv-x="382" 
d="M116 519q0 39 -5 59.5t-19.5 28.5t-41.5 11q-4 11 -6 28t-2 33q18 -1 44.5 -1.5t55.5 -1t52 -0.5t49 0.5t51.5 1t45.5 1.5q0 -17 -1 -32t-6 -29q-27 -2 -41.5 -10.5t-20 -29t-5.5 -59.5v-361q0 -39 5.5 -60.5t20.5 -29.5t41 -10q4 -10 5.5 -27t1.5 -34q-26 2 -63 2.5
t-78 0.5t-83.5 -0.5t-73.5 -2.5q0 16 2.5 33t5.5 28q27 2 41.5 10t19.5 29.5t5 60.5v361zM189 713q-77 0 -115 37.5t-38 110.5q14 6 30.5 8.5t32.5 0.5q7 -34 32 -53.5t67 -19.5q43 0 67 19.5t26 53.5q16 3 30.5 1t23.5 -6q0 -74 -39 -113t-117 -39z" />
    <glyph glyph-name="uni01CF" unicode="&#x1cf;" horiz-adv-x="382" 
d="M116 519q0 39 -5 59.5t-19.5 28.5t-41.5 11q-4 11 -6 28t-2 33q18 -1 44.5 -1.5t55.5 -1t52 -0.5t49 0.5t51.5 1t45.5 1.5q0 -17 -1 -32t-6 -29q-27 -2 -41.5 -10.5t-20 -29t-5.5 -59.5v-361q0 -39 5.5 -60.5t20.5 -29.5t41 -10q4 -10 5.5 -27t1.5 -34q-26 2 -63 2.5
t-78 0.5t-83.5 -0.5t-73.5 -2.5q0 16 2.5 33t5.5 28q27 2 41.5 10t19.5 29.5t5 60.5v361zM156 709q-25 32 -55 65t-63 68q12 13 32.5 22.5t39.5 12.5q22 -19 46.5 -35.5t50.5 -32.5q24 15 45.5 32.5t40.5 36.5q37 -12 51 -44q-31 -26 -62.5 -56.5t-61.5 -58.5
q-17 -5 -34 -7.5t-30 -2.5z" />
    <glyph glyph-name="Icircumflex" unicode="&#xce;" horiz-adv-x="382" 
d="M116 519q0 39 -5 59.5t-19.5 28.5t-41.5 11q-4 11 -6 28t-2 33q18 -1 44.5 -1.5t55.5 -1t52 -0.5t49 0.5t51.5 1t45.5 1.5q0 -17 -1 -32t-6 -29q-27 -2 -41.5 -10.5t-20 -29t-5.5 -59.5v-361q0 -39 5.5 -60.5t20.5 -29.5t41 -10q4 -10 5.5 -27t1.5 -34q-26 2 -63 2.5
t-78 0.5t-83.5 -0.5t-73.5 -2.5q0 16 2.5 33t5.5 28q27 2 41.5 10t19.5 29.5t5 60.5v361zM89 709q-18 6 -30.5 16.5t-20.5 26.5q31 26 62.5 57t61.5 60q16 4 33.5 6.5t30.5 2.5q25 -32 55 -65t63 -67q-12 -15 -32.5 -24.5t-39.5 -11.5q-23 19 -47 35.5t-50 31.5
q-24 -14 -45.5 -31.5t-40.5 -36.5z" />
    <glyph glyph-name="uni0208" unicode="&#x208;" horiz-adv-x="382" 
d="M116 519q0 39 -5 59.5t-19.5 28.5t-41.5 11q-4 11 -6 28t-2 33q18 -1 44.5 -1.5t55.5 -1t52 -0.5t49 0.5t51.5 1t45.5 1.5q0 -17 -1 -32t-6 -29q-27 -2 -41.5 -10.5t-20 -29t-5.5 -59.5v-361q0 -39 5.5 -60.5t20.5 -29.5t41 -10q4 -10 5.5 -27t1.5 -34q-26 2 -63 2.5
t-78 0.5t-83.5 -0.5t-73.5 -2.5q0 16 2.5 33t5.5 28q27 2 41.5 10t19.5 29.5t5 60.5v361zM92 718q-26 35 -51 65.5t-53 59.5q23 11 54.5 15.5t61.5 3.5q11 -29 26.5 -65t33.5 -67q-16 -6 -33 -9t-39 -3zM258 718q-24 35 -47 66t-49 61q22 10 51.5 14t56.5 3q11 -29 26.5 -65
t34.5 -67q-16 -6 -33 -9t-40 -3z" />
    <glyph glyph-name="Idieresis" unicode="&#xcf;" horiz-adv-x="382" 
d="M116 519q0 39 -5 59.5t-19.5 28.5t-41.5 11q-4 11 -6 28t-2 33q18 -1 44.5 -1.5t55.5 -1t52 -0.5t49 0.5t51.5 1t45.5 1.5q0 -17 -1 -32t-6 -29q-27 -2 -41.5 -10.5t-20 -29t-5.5 -59.5v-361q0 -39 5.5 -60.5t20.5 -29.5t41 -10q4 -10 5.5 -27t1.5 -34q-26 2 -63 2.5
t-78 0.5t-83.5 -0.5t-73.5 -2.5q0 16 2.5 33t5.5 28q27 2 41.5 10t19.5 29.5t5 60.5v361zM97 723q-35 0 -56 18.5t-21 44.5q0 27 17.5 48.5t56.5 21.5q41 0 59 -20t18 -49q0 -27 -21 -45.5t-53 -18.5zM288 723q-39 0 -59.5 20t-20.5 50t21 46.5t55 16.5t55.5 -18t21.5 -45
t-16 -48.5t-57 -21.5z" />
    <glyph glyph-name="uni1E2E" unicode="&#x1e2e;" horiz-adv-x="382" 
d="M116 519q0 39 -5 59.5t-19.5 28.5t-41.5 11q-4 11 -6 28t-2 33q18 -1 44.5 -1.5t55.5 -1t52 -0.5t49 0.5t51.5 1t45.5 1.5q0 -17 -1 -32t-6 -29q-27 -2 -41.5 -10.5t-20 -29t-5.5 -59.5v-361q0 -39 5.5 -60.5t20.5 -29.5t41 -10q4 -10 5.5 -27t1.5 -34q-26 2 -63 2.5
t-78 0.5t-83.5 -0.5t-73.5 -2.5q0 16 2.5 33t5.5 28q27 2 41.5 10t19.5 29.5t5 60.5v361zM97 723q-35 0 -56 18.5t-21 44.5q0 27 17.5 48.5t56.5 21.5q41 0 59 -20t18 -49q0 -27 -21 -45.5t-53 -18.5zM288 723q-39 0 -59.5 20t-20.5 50t21 46.5t55 16.5t55.5 -18t21.5 -45
t-16 -48.5t-57 -21.5zM209 888q-22 0 -39 2.5t-33 8.5q17 31 33 65t26 62q17 4 35.5 6t36.5 2q33 0 58 -7q-32 -34 -60 -68t-57 -71z" />
    <glyph glyph-name="Idotaccent" unicode="&#x130;" horiz-adv-x="382" 
d="M116 519q0 39 -5 59.5t-19.5 28.5t-41.5 11q-4 11 -6 28t-2 33q18 -1 44.5 -1.5t55.5 -1t52 -0.5t49 0.5t51.5 1t45.5 1.5q0 -17 -1 -32t-6 -29q-27 -2 -41.5 -10.5t-20 -29t-5.5 -59.5v-361q0 -39 5.5 -60.5t20.5 -29.5t41 -10q4 -10 5.5 -27t1.5 -34q-26 2 -63 2.5
t-78 0.5t-83.5 -0.5t-73.5 -2.5q0 16 2.5 33t5.5 28q27 2 41.5 10t19.5 29.5t5 60.5v361zM187 717q-36 0 -58.5 19.5t-22.5 50.5q0 36 25 55.5t60 19.5q41 0 63 -19.5t22 -54.5q0 -31 -24 -51t-65 -20z" />
    <glyph glyph-name="uni1ECA" unicode="&#x1eca;" horiz-adv-x="382" 
d="M116 519q0 39 -5 59.5t-19.5 28.5t-41.5 11q-4 11 -6 28t-2 33q18 -1 44.5 -1.5t55.5 -1t52 -0.5t49 0.5t51.5 1t45.5 1.5q0 -17 -1 -32t-6 -29q-27 -2 -41.5 -10.5t-20 -29t-5.5 -59.5v-361q0 -39 5.5 -60.5t20.5 -29.5t41 -10q4 -10 5.5 -27t1.5 -34q-26 2 -63 2.5
t-78 0.5t-83.5 -0.5t-73.5 -2.5q0 16 2.5 33t5.5 28q27 2 41.5 10t19.5 29.5t5 60.5v361zM187 -224q-36 0 -58.5 20t-22.5 50q0 36 25 56t60 20q41 0 63 -19.5t22 -55.5q0 -30 -24 -50.5t-65 -20.5z" />
    <glyph glyph-name="Igrave" unicode="&#xcc;" horiz-adv-x="382" 
d="M116 519q0 39 -5 59.5t-19.5 28.5t-41.5 11q-4 11 -6 28t-2 33q18 -1 44.5 -1.5t55.5 -1t52 -0.5t49 0.5t51.5 1t45.5 1.5q0 -17 -1 -32t-6 -29q-27 -2 -41.5 -10.5t-20 -29t-5.5 -59.5v-361q0 -39 5.5 -60.5t20.5 -29.5t41 -10q4 -10 5.5 -27t1.5 -34q-26 2 -63 2.5
t-78 0.5t-83.5 -0.5t-73.5 -2.5q0 16 2.5 33t5.5 28q27 2 41.5 10t19.5 29.5t5 60.5v361zM169 734q-25 34 -51 64.5t-56 59.5q23 12 55.5 16t62.5 3q12 -30 29 -65t36 -67q-15 -6 -34.5 -8.5t-41.5 -2.5z" />
    <glyph glyph-name="uni1EC8" unicode="&#x1ec8;" horiz-adv-x="382" 
d="M116 519q0 39 -5 59.5t-19.5 28.5t-41.5 11q-4 11 -6 28t-2 33q18 -1 44.5 -1.5t55.5 -1t52 -0.5t49 0.5t51.5 1t45.5 1.5q0 -17 -1 -32t-6 -29q-27 -2 -41.5 -10.5t-20 -29t-5.5 -59.5v-361q0 -39 5.5 -60.5t20.5 -29.5t41 -10q4 -10 5.5 -27t1.5 -34q-26 2 -63 2.5
t-78 0.5t-83.5 -0.5t-73.5 -2.5q0 16 2.5 33t5.5 28q27 2 41.5 10t19.5 29.5t5 60.5v361zM166 722q-9 14 -9 29q0 17 8.5 27.5t19.5 18.5t19.5 17t8.5 21q0 11 -7 16.5t-18 5.5q-17 0 -27.5 -13t-15.5 -52q-17 0 -31.5 3.5t-26.5 8.5q2 18 2.5 33.5t-2.5 30.5q19 13 45.5 22
t64.5 9q47 0 72 -16t25 -46q0 -22 -11 -36t-25 -23t-25 -17t-11 -19q0 -6 3 -15q-13 -5 -29 -6t-30 1z" />
    <glyph glyph-name="uni020A" unicode="&#x20a;" horiz-adv-x="382" 
d="M116 519q0 39 -5 59.5t-19.5 28.5t-41.5 11q-4 11 -6 28t-2 33q18 -1 44.5 -1.5t55.5 -1t52 -0.5t49 0.5t51.5 1t45.5 1.5q0 -17 -1 -32t-6 -29q-27 -2 -41.5 -10.5t-20 -29t-5.5 -59.5v-361q0 -39 5.5 -60.5t20.5 -29.5t41 -10q4 -10 5.5 -27t1.5 -34q-26 2 -63 2.5
t-78 0.5t-83.5 -0.5t-73.5 -2.5q0 16 2.5 33t5.5 28q27 2 41.5 10t19.5 29.5t5 60.5v361zM192 871q77 0 115 -37.5t38 -110.5q-14 -6 -30.5 -8.5t-33.5 -0.5q-6 35 -31 54t-68 19q-41 0 -65.5 -19t-27.5 -54q-15 -2 -29 -0.5t-24 5.5q0 74 38.5 113t117.5 39z" />
    <glyph glyph-name="Imacron" unicode="&#x12a;" horiz-adv-x="382" 
d="M116 519q0 39 -5 59.5t-19.5 28.5t-41.5 11q-4 11 -6 28t-2 33q18 -1 44.5 -1.5t55.5 -1t52 -0.5t49 0.5t51.5 1t45.5 1.5q0 -17 -1 -32t-6 -29q-27 -2 -41.5 -10.5t-20 -29t-5.5 -59.5v-361q0 -39 5.5 -60.5t20.5 -29.5t41 -10q4 -10 5.5 -27t1.5 -34q-26 2 -63 2.5
t-78 0.5t-83.5 -0.5t-73.5 -2.5q0 16 2.5 33t5.5 28q27 2 41.5 10t19.5 29.5t5 60.5v361zM32 750q0 18 2.5 37t7.5 30h308q0 -8 -2 -24t-8 -34q-54 0 -133.5 -2t-174.5 -7z" />
    <glyph glyph-name="Iogonek" unicode="&#x12e;" horiz-adv-x="382" 
d="M232 23l25 -23q-34 -17 -55 -40.5t-21 -52.5q0 -26 18.5 -38.5t51.5 -12.5q9 0 18.5 1.5t18.5 3.5q5 -6 8 -17t4.5 -23.5t0.5 -22.5q-28 -8 -56 -19.5t-50 -26.5q-5 -1 -10 -1h-11q-22 0 -49 10t-47 33.5t-20 63.5q0 52 42.5 93.5t131.5 71.5zM116 519q0 39 -5 59.5
t-19.5 28.5t-41.5 11q-4 11 -6 28t-2 33q18 -1 44.5 -1.5t55.5 -1t52 -0.5t49 0.5t51.5 1t45.5 1.5q0 -17 -1 -32t-6 -29q-27 -2 -41.5 -10.5t-20 -29t-5.5 -59.5v-361q0 -39 5.5 -60.5t20.5 -29.5t41 -10q4 -10 5.5 -27t1.5 -34q-26 2 -63 2.5t-78 0.5t-83.5 -0.5
t-73.5 -2.5q0 16 2.5 33t5.5 28q27 2 41.5 10t19.5 29.5t5 60.5v361z" />
    <glyph glyph-name="Itilde" unicode="&#x128;" horiz-adv-x="382" 
d="M116 519q0 39 -5 59.5t-19.5 28.5t-41.5 11q-4 11 -6 28t-2 33q18 -1 44.5 -1.5t55.5 -1t52 -0.5t49 0.5t51.5 1t45.5 1.5q0 -17 -1 -32t-6 -29q-27 -2 -41.5 -10.5t-20 -29t-5.5 -59.5v-361q0 -39 5.5 -60.5t20.5 -29.5t41 -10q4 -10 5.5 -27t1.5 -34q-26 2 -63 2.5
t-78 0.5t-83.5 -0.5t-73.5 -2.5q0 16 2.5 33t5.5 28q27 2 41.5 10t19.5 29.5t5 60.5v361zM242 729q-30 0 -46.5 10t-30.5 19t-37 9q-20 0 -38.5 -9t-37.5 -26q-22 18 -26 43q29 50 59.5 68.5t60.5 18.5q27 0 42.5 -9t29.5 -18.5t35 -9.5q15 0 32 7.5t29 24.5q31 -12 42 -35
q-20 -48 -47.5 -70.5t-66.5 -22.5z" />
    <glyph glyph-name="J" unicode="J" horiz-adv-x="362" 
d="M253 130q0 -69 -8.5 -125t-32.5 -101t-70 -82.5t-121 -70.5q-13 9 -19 22.5t-8 28.5q37 28 61 59.5t36.5 76t12.5 111.5v468q0 41 -5.5 61.5t-20 29t-41.5 10.5q-4 11 -5.5 28t-1.5 33q18 -1 43 -2t53 -1h52q38 0 80.5 0.5t68.5 2.5q0 -18 -1.5 -33.5t-5.5 -27.5
q-28 -2 -42.5 -11.5t-19.5 -30.5t-5 -59v-387z" />
    <glyph glyph-name="uni00A40301" horiz-adv-x="362" 
d="M253 130q0 -69 -8.5 -125t-32.5 -101t-70 -82.5t-121 -70.5q-13 9 -19 22.5t-8 28.5q37 28 61 59.5t36.5 76t12.5 111.5v468q0 41 -5.5 61.5t-20 29t-41.5 10.5q-4 11 -5.5 28t-1.5 33q18 -1 43 -2t53 -1h52q38 0 80.5 0.5t68.5 2.5q0 -18 -1.5 -33.5t-5.5 -27.5
q-28 -2 -42.5 -11.5t-19.5 -30.5t-5 -59v-387zM197 734q-22 0 -39 2.5t-33 8.5q17 31 33 65t26 62q17 4 35.5 6t36.5 2q33 0 58 -7q-32 -34 -60 -68t-57 -71z" />
    <glyph glyph-name="Jcircumflex" unicode="&#x134;" horiz-adv-x="362" 
d="M253 130q0 -69 -8.5 -125t-32.5 -101t-70 -82.5t-121 -70.5q-13 9 -19 22.5t-8 28.5q37 28 61 59.5t36.5 76t12.5 111.5v468q0 41 -5.5 61.5t-20 29t-41.5 10.5q-4 11 -5.5 28t-1.5 33q18 -1 43 -2t53 -1h52q38 0 80.5 0.5t68.5 2.5q0 -18 -1.5 -33.5t-5.5 -27.5
q-28 -2 -42.5 -11.5t-19.5 -30.5t-5 -59v-387zM77 709q-18 6 -30.5 16.5t-20.5 26.5q31 26 62.5 57t61.5 60q16 4 33.5 6.5t30.5 2.5q25 -32 55 -65t63 -67q-12 -15 -32.5 -24.5t-39.5 -11.5q-23 19 -47 35.5t-50 31.5q-24 -14 -45.5 -31.5t-40.5 -36.5z" />
    <glyph glyph-name="K" unicode="K" horiz-adv-x="724" 
d="M492 -8q-20 38 -48 83.5t-61.5 92.5t-70 91.5t-72.5 80.5l187 190q42 43 42.5 64.5t-30.5 23.5q-4 13 -5.5 29.5t-1.5 31.5q18 -1 48.5 -2t60.5 -1q20 0 45 0.5t48 1t36 1.5q0 -14 -2 -32t-7 -29q-23 -1 -45.5 -9.5t-45.5 -25.5t-50 -46l-165 -173l18 46q50 -53 98 -116
t97 -134q24 -34 43.5 -55t42.5 -31.5t55 -13.5q0 -16 -1.5 -31.5t-7.5 -28.5q-19 0 -46.5 -0.5t-58 -1.5t-57.5 -2t-46 -4zM42 -3q0 16 2.5 33t5.5 28q27 2 41.5 10t19.5 29.5t5 60.5v361q0 39 -5 59.5t-19.5 28.5t-41.5 11q-4 11 -6 28t-2 33q18 -1 44.5 -1.5t55.5 -1
t52 -0.5t49 0.5t51.5 1t45.5 1.5q0 -17 -1 -32t-6 -29q-27 -2 -41.5 -10.5t-20 -29t-5.5 -59.5v-361q0 -39 5.5 -60.5t20.5 -29.5t41 -10q4 -10 5.5 -27t1.5 -34q-26 2 -63 2.5t-78 0.5t-83.5 -0.5t-73.5 -2.5z" />
    <glyph glyph-name="uni01E8" unicode="&#x1e8;" horiz-adv-x="724" 
d="M492 -8q-20 38 -48 83.5t-61.5 92.5t-70 91.5t-72.5 80.5l187 190q42 43 42.5 64.5t-30.5 23.5q-4 13 -5.5 29.5t-1.5 31.5q18 -1 48.5 -2t60.5 -1q20 0 45 0.5t48 1t36 1.5q0 -14 -2 -32t-7 -29q-23 -1 -45.5 -9.5t-45.5 -25.5t-50 -46l-165 -173l18 46q50 -53 98 -116
t97 -134q24 -34 43.5 -55t42.5 -31.5t55 -13.5q0 -16 -1.5 -31.5t-7.5 -28.5q-19 0 -46.5 -0.5t-58 -1.5t-57.5 -2t-46 -4zM42 -3q0 16 2.5 33t5.5 28q27 2 41.5 10t19.5 29.5t5 60.5v361q0 39 -5 59.5t-19.5 28.5t-41.5 11q-4 11 -6 28t-2 33q18 -1 44.5 -1.5t55.5 -1
t52 -0.5t49 0.5t51.5 1t45.5 1.5q0 -17 -1 -32t-6 -29q-27 -2 -41.5 -10.5t-20 -29t-5.5 -59.5v-361q0 -39 5.5 -60.5t20.5 -29.5t41 -10q4 -10 5.5 -27t1.5 -34q-26 2 -63 2.5t-78 0.5t-83.5 -0.5t-73.5 -2.5zM330 728q-26 28 -60.5 58t-76.5 60q11 14 26.5 24.5t38.5 15.5
q26 -15 58 -32t61 -30q16 7 38 18t44.5 23t37.5 21q18 -3 28.5 -17t14.5 -27q-37 -22 -76.5 -50.5t-69.5 -55.5q-15 -5 -31 -6.5t-33 -1.5z" />
    <glyph glyph-name="uni0136" unicode="&#x136;" horiz-adv-x="724" 
d="M492 -8q-20 38 -48 83.5t-61.5 92.5t-70 91.5t-72.5 80.5l187 190q42 43 42.5 64.5t-30.5 23.5q-4 13 -5.5 29.5t-1.5 31.5q18 -1 48.5 -2t60.5 -1q20 0 45 0.5t48 1t36 1.5q0 -14 -2 -32t-7 -29q-23 -1 -45.5 -9.5t-45.5 -25.5t-50 -46l-165 -173l18 46q50 -53 98 -116
t97 -134q24 -34 43.5 -55t42.5 -31.5t55 -13.5q0 -16 -1.5 -31.5t-7.5 -28.5q-19 0 -46.5 -0.5t-58 -1.5t-57.5 -2t-46 -4zM42 -3q0 16 2.5 33t5.5 28q27 2 41.5 10t19.5 29.5t5 60.5v361q0 39 -5 59.5t-19.5 28.5t-41.5 11q-4 11 -6 28t-2 33q18 -1 44.5 -1.5t55.5 -1
t52 -0.5t49 0.5t51.5 1t45.5 1.5q0 -17 -1 -32t-6 -29q-27 -2 -41.5 -10.5t-20 -29t-5.5 -59.5v-361q0 -39 5.5 -60.5t20.5 -29.5t41 -10q4 -10 5.5 -27t1.5 -34q-26 2 -63 2.5t-78 0.5t-83.5 -0.5t-73.5 -2.5zM396 -40q23 -7 33.5 -25.5t10.5 -50.5q0 -58 -31.5 -103.5
t-78.5 -78.5q-34 0 -53 23q28 23 41.5 45.5t13.5 40.5q0 34 -52 40q-2 17 1.5 39t10.5 40q32 3 58.5 10.5t45.5 19.5z" />
    <glyph glyph-name="L" unicode="L" horiz-adv-x="602" 
d="M362 61q44 0 72 13t46.5 42t32.5 76q25 -4 44 -11.5t31 -17.5q-11 -34 -19 -78.5t-12 -86.5q-25 1 -63.5 1t-82.5 0.5t-83 0.5q-27 0 -68 -0.5t-84 -1t-79.5 -1t-54.5 -0.5q0 18 1.5 34t5.5 27q27 2 41.5 10.5t20.5 30.5t6 65v355q0 39 -5.5 59.5t-20.5 28.5t-42 11
q-4 11 -5 29t-1 32q26 -1 50 -1.5t48.5 -1t50.5 -0.5q23 0 49.5 0.5t52.5 1t46 1.5q0 -17 -1 -33t-6 -28q-26 -2 -41 -10.5t-20.5 -29t-5.5 -61.5v-351q0 -42 7 -64.5t25.5 -31.5t51.5 -9h12z" />
    <glyph glyph-name="uni01C7" unicode="&#x1c7;" horiz-adv-x="965" 
d="M362 61q44 0 72 13t46.5 42t32.5 76q25 -4 44 -11.5t31 -17.5q-11 -34 -19 -78.5t-12 -86.5q-25 1 -63.5 1t-82.5 0.5t-83 0.5q-27 0 -68 -0.5t-84 -1t-79.5 -1t-54.5 -0.5q0 18 1.5 34t5.5 27q27 2 41.5 10.5t20.5 30.5t6 65v355q0 39 -5.5 59.5t-20.5 28.5t-42 11
q-4 11 -5 29t-1 32q26 -1 50 -1.5t48.5 -1t50.5 -0.5q23 0 49.5 0.5t52.5 1t46 1.5q0 -17 -1 -33t-6 -28q-26 -2 -41 -10.5t-20.5 -29t-5.5 -61.5v-351q0 -42 7 -64.5t25.5 -31.5t51.5 -9h12zM855 130q0 -69 -8.5 -125t-32.5 -101t-70 -82.5t-121 -70.5q-13 9 -19 22.5
t-8 28.5q37 28 61 59.5t36.5 76t12.5 111.5v468q0 41 -5.5 61.5t-20 29t-41.5 10.5q-4 11 -5.5 28t-1.5 33q18 -1 43 -2t53 -1h52q38 0 80.5 0.5t68.5 2.5q0 -18 -1.5 -33.5t-5.5 -27.5q-28 -2 -42.5 -11.5t-19.5 -30.5t-5 -59v-387z" />
    <glyph glyph-name="Lacute" unicode="&#x139;" horiz-adv-x="602" 
d="M362 61q44 0 72 13t46.5 42t32.5 76q25 -4 44 -11.5t31 -17.5q-11 -34 -19 -78.5t-12 -86.5q-25 1 -63.5 1t-82.5 0.5t-83 0.5q-27 0 -68 -0.5t-84 -1t-79.5 -1t-54.5 -0.5q0 18 1.5 34t5.5 27q27 2 41.5 10.5t20.5 30.5t6 65v355q0 39 -5.5 59.5t-20.5 28.5t-42 11
q-4 11 -5 29t-1 32q26 -1 50 -1.5t48.5 -1t50.5 -0.5q23 0 49.5 0.5t52.5 1t46 1.5q0 -17 -1 -33t-6 -28q-26 -2 -41 -10.5t-20.5 -29t-5.5 -61.5v-351q0 -42 7 -64.5t25.5 -31.5t51.5 -9h12zM210 734q-22 0 -39 2.5t-33 8.5q17 31 33 65t26 62q17 4 35.5 6t36.5 2
q33 0 58 -7q-32 -34 -60 -68t-57 -71z" />
    <glyph glyph-name="Lcaron" unicode="&#x13d;" horiz-adv-x="602" 
d="M362 61q44 0 72 13t46.5 42t32.5 76q25 -4 44 -11.5t31 -17.5q-11 -34 -19 -78.5t-12 -86.5q-25 1 -63.5 1t-82.5 0.5t-83 0.5q-27 0 -68 -0.5t-84 -1t-79.5 -1t-54.5 -0.5q0 18 1.5 34t5.5 27q27 2 41.5 10.5t20.5 30.5t6 65v355q0 39 -5.5 59.5t-20.5 28.5t-42 11
q-4 11 -5 29t-1 32q26 -1 50 -1.5t48.5 -1t50.5 -0.5q23 0 49.5 0.5t52.5 1t46 1.5q0 -17 -1 -33t-6 -28q-26 -2 -41 -10.5t-20.5 -29t-5.5 -61.5v-351q0 -42 7 -64.5t25.5 -31.5t51.5 -9h12zM533 723q23 -7 34 -26.5t11 -60.5q0 -56 -23.5 -106.5t-66.5 -92.5q-17 0 -32 4
t-27 12q29 34 38.5 55.5t9.5 47.5q0 21 -15 32.5t-45 15.5q0 22 2.5 43t9.5 45q32 4 58.5 11.5t45.5 19.5z" />
    <glyph glyph-name="uni013B" unicode="&#x13b;" horiz-adv-x="602" 
d="M362 61q44 0 72 13t46.5 42t32.5 76q25 -4 44 -11.5t31 -17.5q-11 -34 -19 -78.5t-12 -86.5q-25 1 -63.5 1t-82.5 0.5t-83 0.5q-27 0 -68 -0.5t-84 -1t-79.5 -1t-54.5 -0.5q0 18 1.5 34t5.5 27q27 2 41.5 10.5t20.5 30.5t6 65v355q0 39 -5.5 59.5t-20.5 28.5t-42 11
q-4 11 -5 29t-1 32q26 -1 50 -1.5t48.5 -1t50.5 -0.5q23 0 49.5 0.5t52.5 1t46 1.5q0 -17 -1 -33t-6 -28q-26 -2 -41 -10.5t-20.5 -29t-5.5 -61.5v-351q0 -42 7 -64.5t25.5 -31.5t51.5 -9h12zM340 -40q23 -7 33.5 -25.5t10.5 -50.5q0 -58 -31.5 -103.5t-78.5 -78.5
q-34 0 -53 23q28 23 41.5 45.5t13.5 40.5q0 34 -52 40q-2 17 1.5 39t10.5 40q32 3 58.5 10.5t45.5 19.5z" />
    <glyph glyph-name="Ldot" unicode="&#x13f;" horiz-adv-x="602" 
d="M362 61q44 0 72 13t46.5 42t32.5 76q25 -4 44 -11.5t31 -17.5q-11 -34 -19 -78.5t-12 -86.5q-25 1 -63.5 1t-82.5 0.5t-83 0.5q-27 0 -68 -0.5t-84 -1t-79.5 -1t-54.5 -0.5q0 18 1.5 34t5.5 27q27 2 41.5 10.5t20.5 30.5t6 65v355q0 39 -5.5 59.5t-20.5 28.5t-42 11
q-4 11 -5 29t-1 32q26 -1 50 -1.5t48.5 -1t50.5 -0.5q23 0 49.5 0.5t52.5 1t46 1.5q0 -17 -1 -33t-6 -28q-26 -2 -41 -10.5t-20.5 -29t-5.5 -61.5v-351q0 -42 7 -64.5t25.5 -31.5t51.5 -9h12zM493 298q-30 0 -47.5 17t-17.5 44q0 29 20 46.5t49 17.5t45.5 -19t16.5 -41
q0 -30 -18.5 -47.5t-47.5 -17.5z" />
    <glyph glyph-name="uni1E36" unicode="&#x1e36;" horiz-adv-x="602" 
d="M362 61q44 0 72 13t46.5 42t32.5 76q25 -4 44 -11.5t31 -17.5q-11 -34 -19 -78.5t-12 -86.5q-25 1 -63.5 1t-82.5 0.5t-83 0.5q-27 0 -68 -0.5t-84 -1t-79.5 -1t-54.5 -0.5q0 18 1.5 34t5.5 27q27 2 41.5 10.5t20.5 30.5t6 65v355q0 39 -5.5 59.5t-20.5 28.5t-42 11
q-4 11 -5 29t-1 32q26 -1 50 -1.5t48.5 -1t50.5 -0.5q23 0 49.5 0.5t52.5 1t46 1.5q0 -17 -1 -33t-6 -28q-26 -2 -41 -10.5t-20.5 -29t-5.5 -61.5v-351q0 -42 7 -64.5t25.5 -31.5t51.5 -9h12zM302 -224q-36 0 -58.5 20t-22.5 50q0 36 25 56t60 20q41 0 63 -19.5t22 -55.5
q0 -30 -24 -50.5t-65 -20.5z" />
    <glyph glyph-name="uni01C8" unicode="&#x1c8;" horiz-adv-x="912" 
d="M362 61q44 0 72 13t46.5 42t32.5 76q25 -4 44 -11.5t31 -17.5q-11 -34 -19 -78.5t-12 -86.5q-25 1 -63.5 1t-82.5 0.5t-83 0.5q-27 0 -68 -0.5t-84 -1t-79.5 -1t-54.5 -0.5q0 18 1.5 34t5.5 27q27 2 41.5 10.5t20.5 30.5t6 65v355q0 39 -5.5 59.5t-20.5 28.5t-42 11
q-4 11 -5 29t-1 32q26 -1 50 -1.5t48.5 -1t50.5 -0.5q23 0 49.5 0.5t52.5 1t46 1.5q0 -17 -1 -33t-6 -28q-26 -2 -41 -10.5t-20.5 -29t-5.5 -61.5v-351q0 -42 7 -64.5t25.5 -31.5t51.5 -9h12zM651 -249q-13 7 -22.5 21t-12.5 31q36 38 55.5 71t28 69.5t8.5 84.5v278
q0 24 -5.5 39t-21.5 22.5t-48 9.5q0 15 2.5 29.5t8.5 27.5q34 0 69.5 5t64.5 12.5t43 15.5q13 -5 21 -17.5t8 -35.5v-355q0 -60 -18.5 -109.5t-48.5 -87.5t-64.5 -66t-67.5 -45zM767 546q-36 0 -58.5 19.5t-22.5 50.5q0 36 25 56t60 20q41 0 63 -20t22 -55q0 -30 -24 -50.5
t-65 -20.5z" />
    <glyph glyph-name="uni1E3A" unicode="&#x1e3a;" horiz-adv-x="602" 
d="M362 61q44 0 72 13t46.5 42t32.5 76q25 -4 44 -11.5t31 -17.5q-11 -34 -19 -78.5t-12 -86.5q-25 1 -63.5 1t-82.5 0.5t-83 0.5q-27 0 -68 -0.5t-84 -1t-79.5 -1t-54.5 -0.5q0 18 1.5 34t5.5 27q27 2 41.5 10.5t20.5 30.5t6 65v355q0 39 -5.5 59.5t-20.5 28.5t-42 11
q-4 11 -5 29t-1 32q26 -1 50 -1.5t48.5 -1t50.5 -0.5q23 0 49.5 0.5t52.5 1t46 1.5q0 -17 -1 -33t-6 -28q-26 -2 -41 -10.5t-20.5 -29t-5.5 -61.5v-351q0 -42 7 -64.5t25.5 -31.5t51.5 -9h12zM119 -161q0 11 2 28.5t7 29.5h365q0 -10 -2 -24t-7 -27q-34 0 -91 -0.5t-127 -2
t-147 -4.5z" />
    <glyph glyph-name="Lslash" unicode="&#x141;" horiz-adv-x="602" 
d="M362 61q44 0 72 13t46.5 42t32.5 76q25 -4 44 -11.5t31 -17.5q-11 -34 -19 -78.5t-12 -86.5q-25 1 -63.5 1t-82.5 0.5t-83 0.5q-27 0 -68 -0.5t-84 -1t-79.5 -1t-54.5 -0.5q0 18 1.5 34t5.5 27q27 2 41.5 10.5t20.5 30.5t6 65v355q0 39 -5.5 59.5t-20.5 28.5t-42 11
q-4 11 -5 29t-1 32q26 -1 50 -1.5t48.5 -1t50.5 -0.5q23 0 49.5 0.5t52.5 1t46 1.5q0 -17 -1 -33t-6 -28q-26 -2 -41 -10.5t-20.5 -29t-5.5 -61.5v-351q0 -42 7 -64.5t25.5 -31.5t51.5 -9h12zM199 281l3 85l143 91q11 -15 18 -33t8 -32zM45 198q-12 18 -19.5 37t-8.5 31
l162 105l1 -83z" />
    <glyph glyph-name="M" unicode="M" horiz-adv-x="966" 
d="M425 -9l-237 528h19l-31 -306q-6 -62 -2 -94.5t20 -45t44 -15.5q4 -13 5 -29.5t1 -31.5q-19 2 -50 2.5t-58 0.5q-18 0 -40 -0.5t-42 -1t-32 -1.5q0 15 1.5 31.5t5.5 29.5q26 3 42 15.5t26 45.5t15 96l27 297q4 43 -0.5 65.5t-20 31.5t-43.5 9q-5 14 -6 29t-1 32
q13 -1 33 -1.5t41 -1t35 -0.5q15 0 36 0.5t40.5 1t31.5 1.5l230 -527h-30l199 527q15 -1 36 -1.5t41.5 -1t35.5 -0.5q14 0 33.5 0.5t39.5 1t34 1.5q0 -16 -1.5 -32t-5.5 -29q-41 0 -56.5 -22.5t-9.5 -86.5l32 -319q5 -54 13 -81.5t22.5 -37t39.5 -12.5q4 -13 5 -29t1 -33
q-11 1 -30.5 1.5t-43.5 1t-46.5 0.5h-38.5q-21 0 -48 -0.5t-51.5 -1t-39.5 -1.5q0 17 2 32t6 29q31 4 45.5 13.5t16.5 34t-3 72.5l-36 341h16l-209 -520q-11 -4 -27.5 -6t-31.5 -2z" />
    <glyph glyph-name="uni1E42" unicode="&#x1e42;" horiz-adv-x="966" 
d="M425 -9l-237 528h19l-31 -306q-6 -62 -2 -94.5t20 -45t44 -15.5q4 -13 5 -29.5t1 -31.5q-19 2 -50 2.5t-58 0.5q-18 0 -40 -0.5t-42 -1t-32 -1.5q0 15 1.5 31.5t5.5 29.5q26 3 42 15.5t26 45.5t15 96l27 297q4 43 -0.5 65.5t-20 31.5t-43.5 9q-5 14 -6 29t-1 32
q13 -1 33 -1.5t41 -1t35 -0.5q15 0 36 0.5t40.5 1t31.5 1.5l230 -527h-30l199 527q15 -1 36 -1.5t41.5 -1t35.5 -0.5q14 0 33.5 0.5t39.5 1t34 1.5q0 -16 -1.5 -32t-5.5 -29q-41 0 -56.5 -22.5t-9.5 -86.5l32 -319q5 -54 13 -81.5t22.5 -37t39.5 -12.5q4 -13 5 -29t1 -33
q-11 1 -30.5 1.5t-43.5 1t-46.5 0.5h-38.5q-21 0 -48 -0.5t-51.5 -1t-39.5 -1.5q0 17 2 32t6 29q31 4 45.5 13.5t16.5 34t-3 72.5l-36 341h16l-209 -520q-11 -4 -27.5 -6t-31.5 -2zM447 -224q-36 0 -58.5 20t-22.5 50q0 36 25 56t60 20q41 0 63 -19.5t22 -55.5
q0 -30 -24 -50.5t-65 -20.5z" />
    <glyph glyph-name="N" unicode="N" horiz-adv-x="726" 
d="M555 -8l-448 596q-11 16 -24 21.5t-42 8.5q-3 14 -4.5 30t-1.5 31q11 -1 30.5 -1.5t39.5 -1t34 -0.5q23 0 49 0.5t42 2.5l344 -463zM35 -3q0 19 1 34t5 27q29 2 45.5 14.5t23 43.5t6.5 87v410l64 -5v-405q0 -56 6 -87t22.5 -43.5t45.5 -14.5q4 -12 5 -28t1 -33
q-14 1 -34 1.5l-40 1t-36 0.5t-38.5 -0.5t-43.5 -1t-33 -1.5zM555 -8l5 147v336q0 56 -6 86t-23 42.5t-48 14.5q-4 17 -5.5 32.5t-1.5 28.5q15 -1 35.5 -1.5t41.5 -1t37 -0.5q23 0 52.5 1t48.5 2q0 -15 -1 -30.5t-5 -30.5q-25 -2 -38 -14t-18.5 -42t-5.5 -87v-475
q-14 -5 -31 -6.5t-37 -1.5z" />
    <glyph glyph-name="uni01CA" unicode="&#x1ca;" horiz-adv-x="1088" 
d="M555 -8l-448 596q-11 16 -24 21.5t-42 8.5q-3 14 -4.5 30t-1.5 31q11 -1 30.5 -1.5t39.5 -1t34 -0.5q23 0 49 0.5t42 2.5l344 -463zM35 -3q0 19 1 34t5 27q29 2 45.5 14.5t23 43.5t6.5 87v410l64 -5v-405q0 -56 6 -87t22.5 -43.5t45.5 -14.5q4 -12 5 -28t1 -33
q-14 1 -34 1.5l-40 1t-36 0.5t-38.5 -0.5t-43.5 -1t-33 -1.5zM555 -8l5 147v336q0 56 -6 86t-23 42.5t-48 14.5q-4 17 -5.5 32.5t-1.5 28.5q15 -1 35.5 -1.5t41.5 -1t37 -0.5q23 0 52.5 1t48.5 2q0 -15 -1 -30.5t-5 -30.5q-25 -2 -38 -14t-18.5 -42t-5.5 -87v-475
q-14 -5 -31 -6.5t-37 -1.5zM979 130q0 -69 -8.5 -125t-32.5 -101t-70 -82.5t-121 -70.5q-13 9 -19 22.5t-8 28.5q37 28 61 59.5t36.5 76t12.5 111.5v468q0 41 -5.5 61.5t-20 29t-41.5 10.5q-4 11 -5.5 28t-1.5 33q18 -1 43 -2t53 -1h52q38 0 80.5 0.5t68.5 2.5
q0 -18 -1.5 -33.5t-5.5 -27.5q-28 -2 -42.5 -11.5t-19.5 -30.5t-5 -59v-387z" />
    <glyph glyph-name="Nacute" unicode="&#x143;" horiz-adv-x="726" 
d="M555 -8l-448 596q-11 16 -24 21.5t-42 8.5q-3 14 -4.5 30t-1.5 31q11 -1 30.5 -1.5t39.5 -1t34 -0.5q23 0 49 0.5t42 2.5l344 -463zM35 -3q0 19 1 34t5 27q29 2 45.5 14.5t23 43.5t6.5 87v410l64 -5v-405q0 -56 6 -87t22.5 -43.5t45.5 -14.5q4 -12 5 -28t1 -33
q-14 1 -34 1.5l-40 1t-36 0.5t-38.5 -0.5t-43.5 -1t-33 -1.5zM555 -8l5 147v336q0 56 -6 86t-23 42.5t-48 14.5q-4 17 -5.5 32.5t-1.5 28.5q15 -1 35.5 -1.5t41.5 -1t37 -0.5q23 0 52.5 1t48.5 2q0 -15 -1 -30.5t-5 -30.5q-25 -2 -38 -14t-18.5 -42t-5.5 -87v-475
q-14 -5 -31 -6.5t-37 -1.5zM386 734q-22 0 -39 2.5t-33 8.5q17 31 33 65t26 62q17 4 35.5 6t36.5 2q33 0 58 -7q-32 -34 -60 -68t-57 -71z" />
    <glyph glyph-name="Ncaron" unicode="&#x147;" horiz-adv-x="726" 
d="M555 -8l-448 596q-11 16 -24 21.5t-42 8.5q-3 14 -4.5 30t-1.5 31q11 -1 30.5 -1.5t39.5 -1t34 -0.5q23 0 49 0.5t42 2.5l344 -463zM35 -3q0 19 1 34t5 27q29 2 45.5 14.5t23 43.5t6.5 87v410l64 -5v-405q0 -56 6 -87t22.5 -43.5t45.5 -14.5q4 -12 5 -28t1 -33
q-14 1 -34 1.5l-40 1t-36 0.5t-38.5 -0.5t-43.5 -1t-33 -1.5zM555 -8l5 147v336q0 56 -6 86t-23 42.5t-48 14.5q-4 17 -5.5 32.5t-1.5 28.5q15 -1 35.5 -1.5t41.5 -1t37 -0.5q23 0 52.5 1t48.5 2q0 -15 -1 -30.5t-5 -30.5q-25 -2 -38 -14t-18.5 -42t-5.5 -87v-475
q-14 -5 -31 -6.5t-37 -1.5zM323 728q-26 28 -60.5 58t-76.5 60q11 14 26.5 24.5t38.5 15.5q26 -15 58 -32t61 -30q16 7 38 18t44.5 23t37.5 21q18 -3 28.5 -17t14.5 -27q-37 -22 -76.5 -50.5t-69.5 -55.5q-15 -5 -31 -6.5t-33 -1.5z" />
    <glyph glyph-name="uni0145" unicode="&#x145;" horiz-adv-x="726" 
d="M555 -8l-448 596q-11 16 -24 21.5t-42 8.5q-3 14 -4.5 30t-1.5 31q11 -1 30.5 -1.5t39.5 -1t34 -0.5q23 0 49 0.5t42 2.5l344 -463zM35 -3q0 19 1 34t5 27q29 2 45.5 14.5t23 43.5t6.5 87v410l64 -5v-405q0 -56 6 -87t22.5 -43.5t45.5 -14.5q4 -12 5 -28t1 -33
q-14 1 -34 1.5l-40 1t-36 0.5t-38.5 -0.5t-43.5 -1t-33 -1.5zM555 -8l5 147v336q0 56 -6 86t-23 42.5t-48 14.5q-4 17 -5.5 32.5t-1.5 28.5q15 -1 35.5 -1.5t41.5 -1t37 -0.5q23 0 52.5 1t48.5 2q0 -15 -1 -30.5t-5 -30.5q-25 -2 -38 -14t-18.5 -42t-5.5 -87v-475
q-14 -5 -31 -6.5t-37 -1.5zM427 -40q23 -7 33.5 -25.5t10.5 -50.5q0 -58 -31.5 -103.5t-78.5 -78.5q-34 0 -53 23q28 23 41.5 45.5t13.5 40.5q0 34 -52 40q-2 17 1.5 39t10.5 40q32 3 58.5 10.5t45.5 19.5z" />
    <glyph glyph-name="uni1E44" unicode="&#x1e44;" horiz-adv-x="726" 
d="M555 -8l-448 596q-11 16 -24 21.5t-42 8.5q-3 14 -4.5 30t-1.5 31q11 -1 30.5 -1.5t39.5 -1t34 -0.5q23 0 49 0.5t42 2.5l344 -463zM35 -3q0 19 1 34t5 27q29 2 45.5 14.5t23 43.5t6.5 87v410l64 -5v-405q0 -56 6 -87t22.5 -43.5t45.5 -14.5q4 -12 5 -28t1 -33
q-14 1 -34 1.5l-40 1t-36 0.5t-38.5 -0.5t-43.5 -1t-33 -1.5zM555 -8l5 147v336q0 56 -6 86t-23 42.5t-48 14.5q-4 17 -5.5 32.5t-1.5 28.5q15 -1 35.5 -1.5t41.5 -1t37 -0.5q23 0 52.5 1t48.5 2q0 -15 -1 -30.5t-5 -30.5q-25 -2 -38 -14t-18.5 -42t-5.5 -87v-475
q-14 -5 -31 -6.5t-37 -1.5zM363 717q-36 0 -58.5 19.5t-22.5 50.5q0 36 25 55.5t60 19.5q41 0 63 -19.5t22 -54.5q0 -31 -24 -51t-65 -20z" />
    <glyph glyph-name="uni1E46" unicode="&#x1e46;" horiz-adv-x="726" 
d="M555 -8l-448 596q-11 16 -24 21.5t-42 8.5q-3 14 -4.5 30t-1.5 31q11 -1 30.5 -1.5t39.5 -1t34 -0.5q23 0 49 0.5t42 2.5l344 -463zM35 -3q0 19 1 34t5 27q29 2 45.5 14.5t23 43.5t6.5 87v410l64 -5v-405q0 -56 6 -87t22.5 -43.5t45.5 -14.5q4 -12 5 -28t1 -33
q-14 1 -34 1.5l-40 1t-36 0.5t-38.5 -0.5t-43.5 -1t-33 -1.5zM555 -8l5 147v336q0 56 -6 86t-23 42.5t-48 14.5q-4 17 -5.5 32.5t-1.5 28.5q15 -1 35.5 -1.5t41.5 -1t37 -0.5q23 0 52.5 1t48.5 2q0 -15 -1 -30.5t-5 -30.5q-25 -2 -38 -14t-18.5 -42t-5.5 -87v-475
q-14 -5 -31 -6.5t-37 -1.5zM389 -224q-36 0 -58.5 20t-22.5 50q0 36 25 56t60 20q41 0 63 -19.5t22 -55.5q0 -30 -24 -50.5t-65 -20.5z" />
    <glyph glyph-name="Eng" unicode="&#x14a;" horiz-adv-x="692" 
d="M416 -249q-33 0 -58 12.5t-37 26.5q-3 18 -1 45t8 46q18 -5 43 -8.5t44 -3.5q39 0 57 16.5t23 52.5t5 94v405q0 85 -24.5 118.5t-71.5 33.5q-40 0 -71 -21.5t-49 -66t-18 -112.5v-231q0 -39 5.5 -60.5t20.5 -29.5t42 -10q3 -10 4.5 -27t1.5 -34q-26 2 -63 2.5t-78 0.5
t-83 -0.5t-73 -2.5q0 16 2 33t6 28q27 2 41 10t19.5 29.5t5.5 60.5v356q0 29 -4.5 45.5t-20 24.5t-48.5 10q0 15 2.5 30t8.5 27q58 1 108 11.5t75 22.5q14 -6 21 -19t7 -36q0 -12 -2 -29t-7 -45h1q15 41 45 68.5t71 42t89 14.5q53 0 95 -20t66.5 -63.5t24.5 -115.5v-374
q0 -73 -18 -137t-50 -114t-74 -78t-91 -28z" />
    <glyph glyph-name="uni019D" unicode="&#x19d;" horiz-adv-x="726" 
d="M556 -9l-449 597q-11 16 -24 21.5t-42 8.5q-3 14 -4.5 30t-1.5 31q11 -1 30.5 -1.5t39.5 -1t34 -0.5q23 0 49 0.5t42 2.5l344 -463zM-20 -249q-36 0 -60.5 12.5t-37.5 26.5q-3 18 -1 45t9 46q17 -5 41 -8.5t46 -3.5q71 0 105 45t34 143v556l64 -5v-540q0 -98 -25 -169
t-70 -109.5t-105 -38.5zM556 -9l4 148v336q0 56 -6 86t-23 42.5t-48 14.5q-4 17 -5.5 32.5t-1.5 28.5q15 -1 35.5 -1.5t41.5 -1t37 -0.5q23 0 52.5 1t48.5 2q0 -15 -1 -30.5t-5 -30.5q-25 -2 -38 -14t-18.5 -42t-5.5 -87v-477q-14 -4 -30.5 -5.5t-36.5 -1.5z" />
    <glyph glyph-name="uni01CB" unicode="&#x1cb;" horiz-adv-x="1036" 
d="M555 -8l-448 596q-11 16 -24 21.5t-42 8.5q-3 14 -4.5 30t-1.5 31q11 -1 30.5 -1.5t39.5 -1t34 -0.5q23 0 49 0.5t42 2.5l344 -463zM35 -3q0 19 1 34t5 27q29 2 45.5 14.5t23 43.5t6.5 87v410l64 -5v-405q0 -56 6 -87t22.5 -43.5t45.5 -14.5q4 -12 5 -28t1 -33
q-14 1 -34 1.5l-40 1t-36 0.5t-38.5 -0.5t-43.5 -1t-33 -1.5zM555 -8l5 147v336q0 56 -6 86t-23 42.5t-48 14.5q-4 17 -5.5 32.5t-1.5 28.5q15 -1 35.5 -1.5t41.5 -1t37 -0.5q23 0 52.5 1t48.5 2q0 -15 -1 -30.5t-5 -30.5q-25 -2 -38 -14t-18.5 -42t-5.5 -87v-475
q-14 -5 -31 -6.5t-37 -1.5zM775 -249q-13 7 -22.5 21t-12.5 31q36 38 55.5 71t28 69.5t8.5 84.5v278q0 24 -5.5 39t-21.5 22.5t-48 9.5q0 15 2.5 29.5t8.5 27.5q34 0 69.5 5t64.5 12.5t43 15.5q13 -5 21 -17.5t8 -35.5v-355q0 -60 -18.5 -109.5t-48.5 -87.5t-64.5 -66
t-67.5 -45zM890 546q-36 0 -58.5 19.5t-22.5 50.5q0 36 25 56t60 20q41 0 63 -20t22 -55q0 -30 -24 -50.5t-65 -20.5z" />
    <glyph glyph-name="uni1E48" unicode="&#x1e48;" horiz-adv-x="726" 
d="M555 -8l-448 596q-11 16 -24 21.5t-42 8.5q-3 14 -4.5 30t-1.5 31q11 -1 30.5 -1.5t39.5 -1t34 -0.5q23 0 49 0.5t42 2.5l344 -463zM35 -3q0 19 1 34t5 27q29 2 45.5 14.5t23 43.5t6.5 87v410l64 -5v-405q0 -56 6 -87t22.5 -43.5t45.5 -14.5q4 -12 5 -28t1 -33
q-14 1 -34 1.5l-40 1t-36 0.5t-38.5 -0.5t-43.5 -1t-33 -1.5zM555 -8l5 147v336q0 56 -6 86t-23 42.5t-48 14.5q-4 17 -5.5 32.5t-1.5 28.5q15 -1 35.5 -1.5t41.5 -1t37 -0.5q23 0 52.5 1t48.5 2q0 -15 -1 -30.5t-5 -30.5q-25 -2 -38 -14t-18.5 -42t-5.5 -87v-475
q-14 -5 -31 -6.5t-37 -1.5zM206 -161q0 11 2 28.5t7 29.5h365q0 -10 -2 -24t-7 -27q-34 0 -91 -0.5t-127 -2t-147 -4.5z" />
    <glyph glyph-name="Ntilde" unicode="&#xd1;" horiz-adv-x="726" 
d="M555 -8l-448 596q-11 16 -24 21.5t-42 8.5q-3 14 -4.5 30t-1.5 31q11 -1 30.5 -1.5t39.5 -1t34 -0.5q23 0 49 0.5t42 2.5l344 -463zM35 -3q0 19 1 34t5 27q29 2 45.5 14.5t23 43.5t6.5 87v410l64 -5v-405q0 -56 6 -87t22.5 -43.5t45.5 -14.5q4 -12 5 -28t1 -33
q-14 1 -34 1.5l-40 1t-36 0.5t-38.5 -0.5t-43.5 -1t-33 -1.5zM555 -8l5 147v336q0 56 -6 86t-23 42.5t-48 14.5q-4 17 -5.5 32.5t-1.5 28.5q15 -1 35.5 -1.5t41.5 -1t37 -0.5q23 0 52.5 1t48.5 2q0 -15 -1 -30.5t-5 -30.5q-25 -2 -38 -14t-18.5 -42t-5.5 -87v-475
q-14 -5 -31 -6.5t-37 -1.5zM420 741q-23 0 -40.5 6.5t-32.5 14.5t-30.5 15t-34.5 7q-21 0 -39 -10.5t-35 -29.5q-13 11 -19 24t-7 30q29 40 64 55t65 15t52.5 -10t43 -20t42.5 -10q18 0 32.5 9t26.5 24q13 -2 25.5 -8t20.5 -16q-24 -47 -58.5 -71.5t-75.5 -24.5z" />
    <glyph glyph-name="O" unicode="O" horiz-adv-x="747" 
d="M373 -9q-104 0 -179.5 45t-117 123.5t-41.5 181.5q0 78 25.5 141.5t71 109t107 69.5t134.5 24q101 0 177 -42t119 -118t43 -178q0 -77 -24 -142t-69 -113t-107.5 -74.5t-138.5 -26.5zM389 55q53 0 90 34.5t56.5 95t19.5 139.5q0 83 -25 151t-70 108t-104 40
q-49 0 -86 -31t-58 -88.5t-21 -137.5q0 -61 12.5 -117.5t37 -100t61.5 -68.5t87 -25z" />
    <glyph glyph-name="Oacute" unicode="&#xd3;" horiz-adv-x="747" 
d="M373 -9q-104 0 -179.5 45t-117 123.5t-41.5 181.5q0 78 25.5 141.5t71 109t107 69.5t134.5 24q101 0 177 -42t119 -118t43 -178q0 -77 -24 -142t-69 -113t-107.5 -74.5t-138.5 -26.5zM389 55q53 0 90 34.5t56.5 95t19.5 139.5q0 83 -25 151t-70 108t-104 40
q-49 0 -86 -31t-58 -88.5t-21 -137.5q0 -61 12.5 -117.5t37 -100t61.5 -68.5t87 -25zM392 734q-22 0 -39 2.5t-33 8.5q17 31 33 65t26 62q17 4 35.5 6t36.5 2q33 0 58 -7q-32 -34 -60 -68t-57 -71z" />
    <glyph glyph-name="Obreve" unicode="&#x14e;" horiz-adv-x="747" 
d="M373 -9q-104 0 -179.5 45t-117 123.5t-41.5 181.5q0 78 25.5 141.5t71 109t107 69.5t134.5 24q101 0 177 -42t119 -118t43 -178q0 -77 -24 -142t-69 -113t-107.5 -74.5t-138.5 -26.5zM389 55q53 0 90 34.5t56.5 95t19.5 139.5q0 83 -25 151t-70 108t-104 40
q-49 0 -86 -31t-58 -88.5t-21 -137.5q0 -61 12.5 -117.5t37 -100t61.5 -68.5t87 -25zM540 867q0 -70 -43 -106.5t-125 -36.5q-80 0 -122 35.5t-42 103.5q16 7 36 10t40 0q5 -31 31.5 -47.5t67.5 -16.5t65.5 16.5t26.5 47.5q18 3 35 1t30 -7z" />
    <glyph glyph-name="uni01D1" unicode="&#x1d1;" horiz-adv-x="747" 
d="M373 -9q-104 0 -179.5 45t-117 123.5t-41.5 181.5q0 78 25.5 141.5t71 109t107 69.5t134.5 24q101 0 177 -42t119 -118t43 -178q0 -77 -24 -142t-69 -113t-107.5 -74.5t-138.5 -26.5zM389 55q53 0 90 34.5t56.5 95t19.5 139.5q0 83 -25 151t-70 108t-104 40
q-49 0 -86 -31t-58 -88.5t-21 -137.5q0 -61 12.5 -117.5t37 -100t61.5 -68.5t87 -25zM329 728q-26 28 -60.5 58t-76.5 60q11 14 26.5 24.5t38.5 15.5q26 -15 58 -32t61 -30q16 7 38 18t44.5 23t37.5 21q18 -3 28.5 -17t14.5 -27q-37 -22 -76.5 -50.5t-69.5 -55.5
q-15 -5 -31 -6.5t-33 -1.5z" />
    <glyph glyph-name="Ocircumflex" unicode="&#xd4;" horiz-adv-x="747" 
d="M373 -9q-104 0 -179.5 45t-117 123.5t-41.5 181.5q0 78 25.5 141.5t71 109t107 69.5t134.5 24q101 0 177 -42t119 -118t43 -178q0 -77 -24 -142t-69 -113t-107.5 -74.5t-138.5 -26.5zM389 55q53 0 90 34.5t56.5 95t19.5 139.5q0 83 -25 151t-70 108t-104 40
q-49 0 -86 -31t-58 -88.5t-21 -137.5q0 -61 12.5 -117.5t37 -100t61.5 -68.5t87 -25zM243 728q-17 4 -28 18t-15 26q37 22 76.5 50.5t69.5 56.5q15 4 31.5 5.5t31.5 1.5q27 -28 61.5 -57.5t76.5 -60.5q-11 -14 -26.5 -24.5t-39.5 -15.5q-25 16 -57 33t-61 30
q-15 -7 -38 -18.5t-45 -23t-37 -21.5z" />
    <glyph glyph-name="uni1ED0" unicode="&#x1ed0;" horiz-adv-x="747" 
d="M373 -9q-104 0 -179.5 45t-117 123.5t-41.5 181.5q0 78 25.5 141.5t71 109t107 69.5t134.5 24q101 0 177 -42t119 -118t43 -178q0 -77 -24 -142t-69 -113t-107.5 -74.5t-138.5 -26.5zM389 55q53 0 90 34.5t56.5 95t19.5 139.5q0 83 -25 151t-70 108t-104 40
q-49 0 -86 -31t-58 -88.5t-21 -137.5q0 -61 12.5 -117.5t37 -100t61.5 -68.5t87 -25zM549 859q-21 0 -36.5 2.5t-29.5 8.5q15 28 29.5 59t24.5 57q15 4 32 6t34 2q29 0 52 -7q-28 -32 -54 -63t-52 -65zM243 728q-17 4 -28 18t-15 26q37 22 76.5 50.5t69.5 56.5
q15 4 31.5 5.5t31.5 1.5q27 -28 61.5 -57.5t76.5 -60.5q-11 -14 -26.5 -24.5t-39.5 -15.5q-25 16 -57 33t-61 30q-15 -7 -38 -18.5t-45 -23t-37 -21.5z" />
    <glyph glyph-name="uni1ED8" unicode="&#x1ed8;" horiz-adv-x="747" 
d="M373 -9q-104 0 -179.5 45t-117 123.5t-41.5 181.5q0 78 25.5 141.5t71 109t107 69.5t134.5 24q101 0 177 -42t119 -118t43 -178q0 -77 -24 -142t-69 -113t-107.5 -74.5t-138.5 -26.5zM389 55q53 0 90 34.5t56.5 95t19.5 139.5q0 83 -25 151t-70 108t-104 40
q-49 0 -86 -31t-58 -88.5t-21 -137.5q0 -61 12.5 -117.5t37 -100t61.5 -68.5t87 -25zM369 -224q-36 0 -58.5 20t-22.5 50q0 36 25 56t60 20q41 0 63 -19.5t22 -55.5q0 -30 -24 -50.5t-65 -20.5zM243 728q-17 4 -28 18t-15 26q37 22 76.5 50.5t69.5 56.5q15 4 31.5 5.5
t31.5 1.5q27 -28 61.5 -57.5t76.5 -60.5q-11 -14 -26.5 -24.5t-39.5 -15.5q-25 16 -57 33t-61 30q-15 -7 -38 -18.5t-45 -23t-37 -21.5z" />
    <glyph glyph-name="uni1ED2" unicode="&#x1ed2;" horiz-adv-x="747" 
d="M373 -9q-104 0 -179.5 45t-117 123.5t-41.5 181.5q0 78 25.5 141.5t71 109t107 69.5t134.5 24q101 0 177 -42t119 -118t43 -178q0 -77 -24 -142t-69 -113t-107.5 -74.5t-138.5 -26.5zM389 55q53 0 90 34.5t56.5 95t19.5 139.5q0 83 -25 151t-70 108t-104 40
q-49 0 -86 -31t-58 -88.5t-21 -137.5q0 -61 12.5 -117.5t37 -100t61.5 -68.5t87 -25zM243 728q-17 4 -28 18t-15 26q37 22 76.5 50.5t69.5 56.5q15 4 31.5 5.5t31.5 1.5q27 -28 61.5 -57.5t76.5 -60.5q-11 -14 -26.5 -24.5t-39.5 -15.5q-25 16 -57 33t-61 30
q-15 -7 -38 -18.5t-45 -23t-37 -21.5zM499 854q-25 34 -51 64.5t-56 59.5q23 12 55.5 16t62.5 3q12 -30 29 -65t36 -67q-15 -6 -34.5 -8.5t-41.5 -2.5z" />
    <glyph glyph-name="uni1ED4" unicode="&#x1ed4;" horiz-adv-x="747" 
d="M373 -9q-104 0 -179.5 45t-117 123.5t-41.5 181.5q0 78 25.5 141.5t71 109t107 69.5t134.5 24q101 0 177 -42t119 -118t43 -178q0 -77 -24 -142t-69 -113t-107.5 -74.5t-138.5 -26.5zM389 55q53 0 90 34.5t56.5 95t19.5 139.5q0 83 -25 151t-70 108t-104 40
q-49 0 -86 -31t-58 -88.5t-21 -137.5q0 -61 12.5 -117.5t37 -100t61.5 -68.5t87 -25zM243 728q-17 4 -28 18t-15 26q37 22 76.5 50.5t69.5 56.5q15 4 31.5 5.5t31.5 1.5q27 -28 61.5 -57.5t76.5 -60.5q-11 -14 -26.5 -24.5t-39.5 -15.5q-25 16 -57 33t-61 30
q-15 -7 -38 -18.5t-45 -23t-37 -21.5zM495 865q-9 14 -9 29q0 17 8.5 27.5t19.5 18.5t19.5 17t8.5 21q0 11 -7 16.5t-18 5.5q-17 0 -27.5 -13t-15.5 -52q-17 0 -31.5 3.5t-26.5 8.5q2 18 2.5 33.5t-2.5 30.5q19 13 45.5 22t64.5 9q47 0 72 -16t25 -46q0 -22 -11 -36t-25 -23
t-25 -17t-11 -19q0 -6 3 -15q-13 -5 -29 -6t-30 1z" />
    <glyph glyph-name="uni1ED6" unicode="&#x1ed6;" horiz-adv-x="747" 
d="M373 -9q-104 0 -179.5 45t-117 123.5t-41.5 181.5q0 78 25.5 141.5t71 109t107 69.5t134.5 24q101 0 177 -42t119 -118t43 -178q0 -77 -24 -142t-69 -113t-107.5 -74.5t-138.5 -26.5zM389 55q53 0 90 34.5t56.5 95t19.5 139.5q0 83 -25 151t-70 108t-104 40
q-49 0 -86 -31t-58 -88.5t-21 -137.5q0 -61 12.5 -117.5t37 -100t61.5 -68.5t87 -25zM243 728q-17 4 -28 18t-15 26q37 22 76.5 50.5t69.5 56.5q15 4 31.5 5.5t31.5 1.5q27 -28 61.5 -57.5t76.5 -60.5q-11 -14 -26.5 -24.5t-39.5 -15.5q-25 16 -57 33t-61 30
q-15 -7 -38 -18.5t-45 -23t-37 -21.5zM426 931q-23 0 -40.5 6.5t-32.5 14.5t-30.5 15t-34.5 7q-21 0 -39 -10.5t-35 -29.5q-13 11 -19 24t-7 30q29 40 64 55t65 15t52.5 -10t43 -20t42.5 -10q18 0 32.5 9t26.5 24q13 -2 25.5 -8t20.5 -16q-24 -47 -58.5 -71.5t-75.5 -24.5z
" />
    <glyph glyph-name="uni020C" unicode="&#x20c;" horiz-adv-x="747" 
d="M373 -9q-104 0 -179.5 45t-117 123.5t-41.5 181.5q0 78 25.5 141.5t71 109t107 69.5t134.5 24q101 0 177 -42t119 -118t43 -178q0 -77 -24 -142t-69 -113t-107.5 -74.5t-138.5 -26.5zM389 55q53 0 90 34.5t56.5 95t19.5 139.5q0 83 -25 151t-70 108t-104 40
q-49 0 -86 -31t-58 -88.5t-21 -137.5q0 -61 12.5 -117.5t37 -100t61.5 -68.5t87 -25zM265 718q-28 35 -54.5 65.5t-56.5 59.5q23 11 55.5 15.5t62.5 3.5q12 -29 29 -65t36 -67q-15 -6 -32.5 -9t-39.5 -3zM441 718q-26 35 -52 66t-54 61q22 10 53 14t60 3q12 -29 29 -65
t36 -67q-15 -6 -32 -9t-40 -3z" />
    <glyph glyph-name="Odieresis" unicode="&#xd6;" horiz-adv-x="747" 
d="M373 -9q-104 0 -179.5 45t-117 123.5t-41.5 181.5q0 78 25.5 141.5t71 109t107 69.5t134.5 24q101 0 177 -42t119 -118t43 -178q0 -77 -24 -142t-69 -113t-107.5 -74.5t-138.5 -26.5zM389 55q53 0 90 34.5t56.5 95t19.5 139.5q0 83 -25 151t-70 108t-104 40
q-49 0 -86 -31t-58 -88.5t-21 -137.5q0 -61 12.5 -117.5t37 -100t61.5 -68.5t87 -25zM490 725q-40 0 -60.5 21t-20.5 54q0 31 21 48.5t56 17.5q34 0 56 -19t22 -47q0 -29 -17 -52t-57 -23zM262 725q-35 0 -56.5 19.5t-21.5 47.5t18 51t57 23q41 0 59.5 -21t18.5 -51
q0 -29 -21.5 -49t-53.5 -20z" />
    <glyph glyph-name="uni022A" unicode="&#x22a;" horiz-adv-x="747" 
d="M373 -9q-104 0 -179.5 45t-117 123.5t-41.5 181.5q0 78 25.5 141.5t71 109t107 69.5t134.5 24q101 0 177 -42t119 -118t43 -178q0 -77 -24 -142t-69 -113t-107.5 -74.5t-138.5 -26.5zM389 55q53 0 90 34.5t56.5 95t19.5 139.5q0 83 -25 151t-70 108t-104 40
q-49 0 -86 -31t-58 -88.5t-21 -137.5q0 -61 12.5 -117.5t37 -100t61.5 -68.5t87 -25zM490 725q-40 0 -60.5 21t-20.5 54q0 31 21 48.5t56 17.5q34 0 56 -19t22 -47q0 -29 -17 -52t-57 -23zM262 725q-35 0 -56.5 19.5t-21.5 47.5t18 51t57 23q41 0 59.5 -21t18.5 -51
q0 -29 -21.5 -49t-53.5 -20zM563 991q0 -10 -2 -25t-7 -29q-44 0 -102.5 -1t-126.5 -2.5t-141 -5.5q0 14 2 32t7 31h370z" />
    <glyph glyph-name="uni0230" unicode="&#x230;" horiz-adv-x="747" 
d="M373 -9q-104 0 -179.5 45t-117 123.5t-41.5 181.5q0 78 25.5 141.5t71 109t107 69.5t134.5 24q101 0 177 -42t119 -118t43 -178q0 -77 -24 -142t-69 -113t-107.5 -74.5t-138.5 -26.5zM389 55q53 0 90 34.5t56.5 95t19.5 139.5q0 83 -25 151t-70 108t-104 40
q-49 0 -86 -31t-58 -88.5t-21 -137.5q0 -61 12.5 -117.5t37 -100t61.5 -68.5t87 -25zM369 717q-36 0 -58.5 19.5t-22.5 50.5q0 36 25 55.5t60 19.5q41 0 63 -19.5t22 -54.5q0 -31 -24 -51t-65 -20zM563 963q0 -10 -2 -25t-7 -29q-44 0 -102.5 -1t-126.5 -2.5t-141 -5.5
q0 14 2 32t7 31h370z" />
    <glyph glyph-name="uni1ECC" unicode="&#x1ecc;" horiz-adv-x="747" 
d="M373 -9q-104 0 -179.5 45t-117 123.5t-41.5 181.5q0 78 25.5 141.5t71 109t107 69.5t134.5 24q101 0 177 -42t119 -118t43 -178q0 -77 -24 -142t-69 -113t-107.5 -74.5t-138.5 -26.5zM389 55q53 0 90 34.5t56.5 95t19.5 139.5q0 83 -25 151t-70 108t-104 40
q-49 0 -86 -31t-58 -88.5t-21 -137.5q0 -61 12.5 -117.5t37 -100t61.5 -68.5t87 -25zM369 -224q-36 0 -58.5 20t-22.5 50q0 36 25 56t60 20q41 0 63 -19.5t22 -55.5q0 -30 -24 -50.5t-65 -20.5z" />
    <glyph glyph-name="Ograve" unicode="&#xd2;" horiz-adv-x="747" 
d="M373 -9q-104 0 -179.5 45t-117 123.5t-41.5 181.5q0 78 25.5 141.5t71 109t107 69.5t134.5 24q101 0 177 -42t119 -118t43 -178q0 -77 -24 -142t-69 -113t-107.5 -74.5t-138.5 -26.5zM389 55q53 0 90 34.5t56.5 95t19.5 139.5q0 83 -25 151t-70 108t-104 40
q-49 0 -86 -31t-58 -88.5t-21 -137.5q0 -61 12.5 -117.5t37 -100t61.5 -68.5t87 -25zM351 734q-25 34 -51 64.5t-56 59.5q23 12 55.5 16t62.5 3q12 -30 29 -65t36 -67q-15 -6 -34.5 -8.5t-41.5 -2.5z" />
    <glyph glyph-name="uni1ECE" unicode="&#x1ece;" horiz-adv-x="747" 
d="M373 -9q-104 0 -179.5 45t-117 123.5t-41.5 181.5q0 78 25.5 141.5t71 109t107 69.5t134.5 24q101 0 177 -42t119 -118t43 -178q0 -77 -24 -142t-69 -113t-107.5 -74.5t-138.5 -26.5zM389 55q53 0 90 34.5t56.5 95t19.5 139.5q0 83 -25 151t-70 108t-104 40
q-49 0 -86 -31t-58 -88.5t-21 -137.5q0 -61 12.5 -117.5t37 -100t61.5 -68.5t87 -25zM349 722q-9 14 -9 29q0 17 8.5 27.5t19.5 18.5t19.5 17t8.5 21q0 11 -7 16.5t-18 5.5q-17 0 -27.5 -13t-15.5 -52q-17 0 -31.5 3.5t-26.5 8.5q2 18 2.5 33.5t-2.5 30.5q19 13 45.5 22
t64.5 9q47 0 72 -16t25 -46q0 -22 -11 -36t-25 -23t-25 -17t-11 -19q0 -6 3 -15q-13 -5 -29 -6t-30 1z" />
    <glyph glyph-name="Ohorn" unicode="&#x1a0;" horiz-adv-x="747" 
d="M373 -9q-104 0 -179.5 45t-117 123.5t-41.5 181.5q0 78 25.5 141.5t71 109t107 69.5t134.5 24q101 0 177 -42t119 -118t43 -178q0 -77 -24 -142t-69 -113t-107.5 -74.5t-138.5 -26.5zM389 55q53 0 90 34.5t56.5 95t19.5 139.5q0 83 -25 151t-70 108t-104 40
q-49 0 -86 -31t-58 -88.5t-21 -137.5q0 -61 12.5 -117.5t37 -100t61.5 -68.5t87 -25zM574 626l-201 59q50 0 81 -5.5t62 -5.5q38 0 61.5 15.5t23.5 53.5q0 19 -6 44q16 8 39.5 11t42.5 -1q21 -29 21 -64q0 -32 -17.5 -56.5t-45.5 -37.5t-61 -13z" />
    <glyph glyph-name="uni1EDA" unicode="&#x1eda;" horiz-adv-x="747" 
d="M373 -9q-104 0 -179.5 45t-117 123.5t-41.5 181.5q0 78 25.5 141.5t71 109t107 69.5t134.5 24q101 0 177 -42t119 -118t43 -178q0 -77 -24 -142t-69 -113t-107.5 -74.5t-138.5 -26.5zM389 55q53 0 90 34.5t56.5 95t19.5 139.5q0 83 -25 151t-70 108t-104 40
q-49 0 -86 -31t-58 -88.5t-21 -137.5q0 -61 12.5 -117.5t37 -100t61.5 -68.5t87 -25zM574 626l-201 59q50 0 81 -5.5t62 -5.5q38 0 61.5 15.5t23.5 53.5q0 19 -6 44q16 8 39.5 11t42.5 -1q21 -29 21 -64q0 -32 -17.5 -56.5t-45.5 -37.5t-61 -13zM392 734q-22 0 -39 2.5
t-33 8.5q17 31 33 65t26 62q17 4 35.5 6t36.5 2q33 0 58 -7q-32 -34 -60 -68t-57 -71z" />
    <glyph glyph-name="uni1EE2" unicode="&#x1ee2;" horiz-adv-x="747" 
d="M373 -9q-104 0 -179.5 45t-117 123.5t-41.5 181.5q0 78 25.5 141.5t71 109t107 69.5t134.5 24q101 0 177 -42t119 -118t43 -178q0 -77 -24 -142t-69 -113t-107.5 -74.5t-138.5 -26.5zM389 55q53 0 90 34.5t56.5 95t19.5 139.5q0 83 -25 151t-70 108t-104 40
q-49 0 -86 -31t-58 -88.5t-21 -137.5q0 -61 12.5 -117.5t37 -100t61.5 -68.5t87 -25zM574 626l-201 59q50 0 81 -5.5t62 -5.5q38 0 61.5 15.5t23.5 53.5q0 19 -6 44q16 8 39.5 11t42.5 -1q21 -29 21 -64q0 -32 -17.5 -56.5t-45.5 -37.5t-61 -13zM369 -224q-36 0 -58.5 20
t-22.5 50q0 36 25 56t60 20q41 0 63 -19.5t22 -55.5q0 -30 -24 -50.5t-65 -20.5z" />
    <glyph glyph-name="uni1EDC" unicode="&#x1edc;" horiz-adv-x="747" 
d="M373 -9q-104 0 -179.5 45t-117 123.5t-41.5 181.5q0 78 25.5 141.5t71 109t107 69.5t134.5 24q101 0 177 -42t119 -118t43 -178q0 -77 -24 -142t-69 -113t-107.5 -74.5t-138.5 -26.5zM389 55q53 0 90 34.5t56.5 95t19.5 139.5q0 83 -25 151t-70 108t-104 40
q-49 0 -86 -31t-58 -88.5t-21 -137.5q0 -61 12.5 -117.5t37 -100t61.5 -68.5t87 -25zM574 626l-201 59q50 0 81 -5.5t62 -5.5q38 0 61.5 15.5t23.5 53.5q0 19 -6 44q16 8 39.5 11t42.5 -1q21 -29 21 -64q0 -32 -17.5 -56.5t-45.5 -37.5t-61 -13zM351 734q-25 34 -51 64.5
t-56 59.5q23 12 55.5 16t62.5 3q12 -30 29 -65t36 -67q-15 -6 -34.5 -8.5t-41.5 -2.5z" />
    <glyph glyph-name="uni1EDE" unicode="&#x1ede;" horiz-adv-x="747" 
d="M373 -9q-104 0 -179.5 45t-117 123.5t-41.5 181.5q0 78 25.5 141.5t71 109t107 69.5t134.5 24q101 0 177 -42t119 -118t43 -178q0 -77 -24 -142t-69 -113t-107.5 -74.5t-138.5 -26.5zM389 55q53 0 90 34.5t56.5 95t19.5 139.5q0 83 -25 151t-70 108t-104 40
q-49 0 -86 -31t-58 -88.5t-21 -137.5q0 -61 12.5 -117.5t37 -100t61.5 -68.5t87 -25zM574 626l-201 59q50 0 81 -5.5t62 -5.5q38 0 61.5 15.5t23.5 53.5q0 19 -6 44q16 8 39.5 11t42.5 -1q21 -29 21 -64q0 -32 -17.5 -56.5t-45.5 -37.5t-61 -13zM349 722q-9 14 -9 29
q0 17 8.5 27.5t19.5 18.5t19.5 17t8.5 21q0 11 -7 16.5t-18 5.5q-17 0 -27.5 -13t-15.5 -52q-17 0 -31.5 3.5t-26.5 8.5q2 18 2.5 33.5t-2.5 30.5q19 13 45.5 22t64.5 9q47 0 72 -16t25 -46q0 -22 -11 -36t-25 -23t-25 -17t-11 -19q0 -6 3 -15q-13 -5 -29 -6t-30 1z" />
    <glyph glyph-name="uni1EE0" unicode="&#x1ee0;" horiz-adv-x="747" 
d="M373 -9q-104 0 -179.5 45t-117 123.5t-41.5 181.5q0 78 25.5 141.5t71 109t107 69.5t134.5 24q101 0 177 -42t119 -118t43 -178q0 -77 -24 -142t-69 -113t-107.5 -74.5t-138.5 -26.5zM389 55q53 0 90 34.5t56.5 95t19.5 139.5q0 83 -25 151t-70 108t-104 40
q-49 0 -86 -31t-58 -88.5t-21 -137.5q0 -61 12.5 -117.5t37 -100t61.5 -68.5t87 -25zM574 626l-201 59q50 0 81 -5.5t62 -5.5q38 0 61.5 15.5t23.5 53.5q0 19 -6 44q16 8 39.5 11t42.5 -1q21 -29 21 -64q0 -32 -17.5 -56.5t-45.5 -37.5t-61 -13zM426 741q-23 0 -40.5 6.5
t-32.5 14.5t-30.5 15t-34.5 7q-21 0 -39 -10.5t-35 -29.5q-13 11 -19 24t-7 30q29 40 64 55t65 15t52.5 -10t43 -20t42.5 -10q18 0 32.5 9t26.5 24q13 -2 25.5 -8t20.5 -16q-24 -47 -58.5 -71.5t-75.5 -24.5z" />
    <glyph glyph-name="Ohungarumlaut" unicode="&#x150;" horiz-adv-x="747" 
d="M373 -9q-104 0 -179.5 45t-117 123.5t-41.5 181.5q0 78 25.5 141.5t71 109t107 69.5t134.5 24q101 0 177 -42t119 -118t43 -178q0 -77 -24 -142t-69 -113t-107.5 -74.5t-138.5 -26.5zM389 55q53 0 90 34.5t56.5 95t19.5 139.5q0 83 -25 151t-70 108t-104 40
q-49 0 -86 -31t-58 -88.5t-21 -137.5q0 -61 12.5 -117.5t37 -100t61.5 -68.5t87 -25zM483 734q-19 1 -37.5 6t-30.5 13q15 32 25.5 58.5t20.5 56.5q20 8 42.5 11t43.5 3q15 0 27 -1.5t22 -5.5q-32 -35 -60.5 -70.5t-52.5 -70.5zM302 734q-19 1 -37.5 6t-30.5 13
q15 32 25.5 58.5t20.5 56.5q20 8 42.5 11t44.5 3q14 0 26 -1.5t22 -5.5q-32 -35 -60.5 -70.5t-52.5 -70.5z" />
    <glyph glyph-name="uni020E" unicode="&#x20e;" horiz-adv-x="747" 
d="M373 -9q-104 0 -179.5 45t-117 123.5t-41.5 181.5q0 78 25.5 141.5t71 109t107 69.5t134.5 24q101 0 177 -42t119 -118t43 -178q0 -77 -24 -142t-69 -113t-107.5 -74.5t-138.5 -26.5zM389 55q53 0 90 34.5t56.5 95t19.5 139.5q0 83 -25 151t-70 108t-104 40
q-49 0 -86 -31t-58 -88.5t-21 -137.5q0 -61 12.5 -117.5t37 -100t61.5 -68.5t87 -25zM208 732q0 70 43 106.5t125 36.5q80 0 122 -35t42 -104q-16 -7 -36 -9.5t-40 -0.5q-5 31 -31.5 47.5t-67.5 16.5t-65.5 -16.5t-26.5 -47.5q-18 -3 -34.5 -1t-30.5 7z" />
    <glyph glyph-name="Omacron" unicode="&#x14c;" horiz-adv-x="747" 
d="M373 -9q-104 0 -179.5 45t-117 123.5t-41.5 181.5q0 78 25.5 141.5t71 109t107 69.5t134.5 24q101 0 177 -42t119 -118t43 -178q0 -77 -24 -142t-69 -113t-107.5 -74.5t-138.5 -26.5zM389 55q53 0 90 34.5t56.5 95t19.5 139.5q0 83 -25 151t-70 108t-104 40
q-49 0 -86 -31t-58 -88.5t-21 -137.5q0 -61 12.5 -117.5t37 -100t61.5 -68.5t87 -25zM563 817q0 -10 -2 -25t-7 -29q-44 0 -102.5 -1t-126.5 -2.5t-141 -5.5q0 14 2 32t7 31h370z" />
    <glyph glyph-name="uni1E52" unicode="&#x1e52;" horiz-adv-x="747" 
d="M373 -9q-104 0 -179.5 45t-117 123.5t-41.5 181.5q0 78 25.5 141.5t71 109t107 69.5t134.5 24q101 0 177 -42t119 -118t43 -178q0 -77 -24 -142t-69 -113t-107.5 -74.5t-138.5 -26.5zM389 55q53 0 90 34.5t56.5 95t19.5 139.5q0 83 -25 151t-70 108t-104 40
q-49 0 -86 -31t-58 -88.5t-21 -137.5q0 -61 12.5 -117.5t37 -100t61.5 -68.5t87 -25zM563 817q0 -10 -2 -25t-7 -29q-44 0 -102.5 -1t-126.5 -2.5t-141 -5.5q0 14 2 32t7 31h370zM392 875q-22 0 -39 2.5t-33 8.5q17 31 33 65t26 62q17 4 35.5 6t36.5 2q33 0 58 -7
q-32 -34 -60 -68t-57 -71z" />
    <glyph glyph-name="uni1E50" unicode="&#x1e50;" horiz-adv-x="747" 
d="M373 -9q-104 0 -179.5 45t-117 123.5t-41.5 181.5q0 78 25.5 141.5t71 109t107 69.5t134.5 24q101 0 177 -42t119 -118t43 -178q0 -77 -24 -142t-69 -113t-107.5 -74.5t-138.5 -26.5zM389 55q53 0 90 34.5t56.5 95t19.5 139.5q0 83 -25 151t-70 108t-104 40
q-49 0 -86 -31t-58 -88.5t-21 -137.5q0 -61 12.5 -117.5t37 -100t61.5 -68.5t87 -25zM563 817q0 -10 -2 -25t-7 -29q-44 0 -102.5 -1t-126.5 -2.5t-141 -5.5q0 14 2 32t7 31h370zM351 875q-25 34 -51 64.5t-56 59.5q23 12 55.5 16t62.5 3q12 -30 29 -65t36 -67
q-15 -6 -34.5 -8.5t-41.5 -2.5z" />
    <glyph glyph-name="uni01EA" unicode="&#x1ea;" horiz-adv-x="747" 
d="M428 -252q-25 0 -52 12t-45.5 35.5t-18.5 59.5q0 34 16.5 66.5t51.5 60.5t91 47l51 -7q-46 -20 -67 -50t-21 -61q0 -32 19.5 -45t47.5 -13q23 0 41 5q4 -6 7.5 -17t5 -23.5t-0.5 -22.5q-28 -8 -55.5 -19.5t-49.5 -26.5q-6 -1 -10.5 -1h-10.5zM373 -9q-104 0 -179.5 45
t-117 123.5t-41.5 181.5q0 78 25.5 141.5t71 109t107 69.5t134.5 24q101 0 177 -42t119 -118t43 -178q0 -77 -24 -142t-69 -113t-107.5 -74.5t-138.5 -26.5zM389 55q53 0 90 34.5t56.5 95t19.5 139.5q0 83 -25 151t-70 108t-104 40q-49 0 -86 -31t-58 -88.5t-21 -137.5
q0 -61 12.5 -117.5t37 -100t61.5 -68.5t87 -25z" />
    <glyph glyph-name="Oslash" unicode="&#xd8;" horiz-adv-x="747" 
d="M373 -9q-104 0 -179.5 45t-117 123.5t-41.5 181.5q0 78 25.5 141.5t71 109t107 69.5t134.5 24q101 0 177 -42t119 -118t43 -178q0 -77 -24 -142t-69 -113t-107.5 -74.5t-138.5 -26.5zM389 55q53 0 90 34.5t56.5 95t19.5 139.5q0 83 -25 151t-70 108t-104 40
q-49 0 -86 -31t-58 -88.5t-21 -137.5q0 -61 12.5 -117.5t37 -100t61.5 -68.5t87 -25zM542 606l73 94q23 0 44.5 -4.5t34.5 -15.5l-84 -107zM206 66l-76 -93q-24 0 -44 6t-31 16l83 100zM177 138l338 440l52 -53l-338 -438z" />
    <glyph glyph-name="Oslashacute" unicode="&#x1fe;" horiz-adv-x="747" 
d="M373 -9q-104 0 -179.5 45t-117 123.5t-41.5 181.5q0 78 25.5 141.5t71 109t107 69.5t134.5 24q101 0 177 -42t119 -118t43 -178q0 -77 -24 -142t-69 -113t-107.5 -74.5t-138.5 -26.5zM389 55q53 0 90 34.5t56.5 95t19.5 139.5q0 83 -25 151t-70 108t-104 40
q-49 0 -86 -31t-58 -88.5t-21 -137.5q0 -61 12.5 -117.5t37 -100t61.5 -68.5t87 -25zM542 606l73 94q23 0 44.5 -4.5t34.5 -15.5l-84 -107zM206 66l-76 -93q-24 0 -44 6t-31 16l83 100zM177 138l338 440l52 -53l-338 -438zM392 734q-22 0 -39 2.5t-33 8.5q17 31 33 65t26 62
q17 4 35.5 6t36.5 2q33 0 58 -7q-32 -34 -60 -68t-57 -71z" />
    <glyph glyph-name="Otilde" unicode="&#xd5;" horiz-adv-x="747" 
d="M373 -9q-104 0 -179.5 45t-117 123.5t-41.5 181.5q0 78 25.5 141.5t71 109t107 69.5t134.5 24q101 0 177 -42t119 -118t43 -178q0 -77 -24 -142t-69 -113t-107.5 -74.5t-138.5 -26.5zM389 55q53 0 90 34.5t56.5 95t19.5 139.5q0 83 -25 151t-70 108t-104 40
q-49 0 -86 -31t-58 -88.5t-21 -137.5q0 -61 12.5 -117.5t37 -100t61.5 -68.5t87 -25zM426 741q-23 0 -40.5 6.5t-32.5 14.5t-30.5 15t-34.5 7q-21 0 -39 -10.5t-35 -29.5q-13 11 -19 24t-7 30q29 40 64 55t65 15t52.5 -10t43 -20t42.5 -10q18 0 32.5 9t26.5 24
q13 -2 25.5 -8t20.5 -16q-24 -47 -58.5 -71.5t-75.5 -24.5z" />
    <glyph glyph-name="uni1E4C" unicode="&#x1e4c;" horiz-adv-x="747" 
d="M373 -9q-104 0 -179.5 45t-117 123.5t-41.5 181.5q0 78 25.5 141.5t71 109t107 69.5t134.5 24q101 0 177 -42t119 -118t43 -178q0 -77 -24 -142t-69 -113t-107.5 -74.5t-138.5 -26.5zM389 55q53 0 90 34.5t56.5 95t19.5 139.5q0 83 -25 151t-70 108t-104 40
q-49 0 -86 -31t-58 -88.5t-21 -137.5q0 -61 12.5 -117.5t37 -100t61.5 -68.5t87 -25zM426 741q-23 0 -40.5 6.5t-32.5 14.5t-30.5 15t-34.5 7q-21 0 -39 -10.5t-35 -29.5q-13 11 -19 24t-7 30q29 40 64 55t65 15t52.5 -10t43 -20t42.5 -10q18 0 32.5 9t26.5 24
q13 -2 25.5 -8t20.5 -16q-24 -47 -58.5 -71.5t-75.5 -24.5zM392 915q-22 0 -39 2.5t-33 8.5q17 31 33 65t26 62q17 4 35.5 6t36.5 2q33 0 58 -7q-32 -34 -60 -68t-57 -71z" />
    <glyph glyph-name="uni1E4E" unicode="&#x1e4e;" horiz-adv-x="747" 
d="M373 -9q-104 0 -179.5 45t-117 123.5t-41.5 181.5q0 78 25.5 141.5t71 109t107 69.5t134.5 24q101 0 177 -42t119 -118t43 -178q0 -77 -24 -142t-69 -113t-107.5 -74.5t-138.5 -26.5zM389 55q53 0 90 34.5t56.5 95t19.5 139.5q0 83 -25 151t-70 108t-104 40
q-49 0 -86 -31t-58 -88.5t-21 -137.5q0 -61 12.5 -117.5t37 -100t61.5 -68.5t87 -25zM426 741q-23 0 -40.5 6.5t-32.5 14.5t-30.5 15t-34.5 7q-21 0 -39 -10.5t-35 -29.5q-13 11 -19 24t-7 30q29 40 64 55t65 15t52.5 -10t43 -20t42.5 -10q18 0 32.5 9t26.5 24
q13 -2 25.5 -8t20.5 -16q-24 -47 -58.5 -71.5t-75.5 -24.5zM490 906q-40 0 -60.5 21t-20.5 54q0 31 21 48.5t56 17.5q34 0 56 -19t22 -47q0 -29 -17 -52t-57 -23zM262 906q-35 0 -56.5 19.5t-21.5 47.5t18 51t57 23q41 0 59.5 -21t18.5 -51q0 -29 -21.5 -49t-53.5 -20z" />
    <glyph glyph-name="uni022C" unicode="&#x22c;" horiz-adv-x="747" 
d="M373 -9q-104 0 -179.5 45t-117 123.5t-41.5 181.5q0 78 25.5 141.5t71 109t107 69.5t134.5 24q101 0 177 -42t119 -118t43 -178q0 -77 -24 -142t-69 -113t-107.5 -74.5t-138.5 -26.5zM389 55q53 0 90 34.5t56.5 95t19.5 139.5q0 83 -25 151t-70 108t-104 40
q-49 0 -86 -31t-58 -88.5t-21 -137.5q0 -61 12.5 -117.5t37 -100t61.5 -68.5t87 -25zM426 741q-23 0 -40.5 6.5t-32.5 14.5t-30.5 15t-34.5 7q-21 0 -39 -10.5t-35 -29.5q-13 11 -19 24t-7 30q29 40 64 55t65 15t52.5 -10t43 -20t42.5 -10q18 0 32.5 9t26.5 24
q13 -2 25.5 -8t20.5 -16q-24 -47 -58.5 -71.5t-75.5 -24.5zM563 998q0 -10 -2 -25t-7 -29q-44 0 -102.5 -1t-126.5 -2.5t-141 -5.5q0 14 2 32t7 31h370z" />
    <glyph glyph-name="OE" unicode="&#x152;" horiz-adv-x="995" 
d="M365 684q38 0 83 -2t97.5 -4t111.5 -2q58 0 105.5 0.5t86 1t67.5 1.5q1 -23 4 -53.5t7 -60.5t10 -53q-14 -7 -32 -11t-43 -4q-4 33 -18 61t-45 45t-88 17h-148q58 -41 85 -107.5t30 -147.5h11q51 0 68.5 18.5t18.5 56.5q16 6 34 8t35 2q0 -13 -1 -31.5t-1.5 -39.5
t-0.5 -43q0 -23 0.5 -45t1.5 -40.5t1 -31.5q-20 0 -36 1.5t-31 6.5q-2 27 -10 44.5t-27.5 25.5t-56.5 8h-8q-6 -76 -34.5 -139.5t-82.5 -105.5h183q48 0 76 14.5t45 43.5t31 74q24 -4 43.5 -11.5t30.5 -17.5q-11 -34 -18.5 -78.5t-12.5 -86.5q-24 1 -64 1t-89.5 0.5
t-102.5 0.5q-69 0 -121 -2t-99 -4.5t-99 -2.5q-102 0 -175.5 43t-112.5 120.5t-39 182.5q0 107 41 184.5t115 120t174 42.5zM352 621q-52 0 -89 -31.5t-56 -90t-19 -140.5q0 -88 21 -156.5t62.5 -108t103.5 -39.5q47 0 81 32t52.5 93t18.5 149q0 91 -23 156t-63 100.5
t-89 35.5z" />
    <glyph glyph-name="P" unicode="P" horiz-adv-x="639" 
d="M42 -3q0 21 1.5 35.5t4.5 25.5q27 2 42 10t20.5 29.5t5.5 60.5v361q0 39 -5 59.5t-19.5 28.5t-41.5 11q-4 11 -6 26.5t-2 34.5q44 -1 82.5 -2t68.5 -1q23 0 56 0.5t63 1t44 0.5q95 0 149 -27t76.5 -72.5t22.5 -102.5q0 -67 -27.5 -122t-80.5 -88t-132 -33q-42 0 -69 11
q-3 16 -1.5 30.5t6.5 26.5q9 -2 18.5 -3t18.5 -1q29 0 54.5 13.5t41.5 46t16 90.5q0 75 -33 122t-105 47q-12 0 -25.5 -2t-31.5 -8l12 16v-449q0 -43 9.5 -67t31 -34.5t58.5 -13.5q5 -12 6 -28t1 -33q-17 1 -43.5 1.5t-57 1t-60.5 0.5q-28 0 -60.5 -0.5t-61 -1t-47.5 -1.5z
" />
    <glyph glyph-name="Thorn" unicode="&#xde;" horiz-adv-x="638" 
d="M42 -3q0 16 2.5 33t5.5 28q27 2 41.5 10t19.5 29.5t5 60.5v361q0 39 -5 59.5t-19.5 28.5t-41.5 11q-4 11 -6 28t-2 33q18 -1 44.5 -1.5t55.5 -1t52 -0.5t49 0.5t51.5 1t45.5 1.5q0 -17 -1 -32t-6 -29q-27 -2 -41.5 -10.5t-20 -29t-5.5 -59.5v-346q0 -43 9.5 -67t31 -34.5
t58.5 -13.5q5 -12 6 -28t1 -33q-17 1 -44 1.5t-58 1t-61 0.5q-44 0 -89 -0.5t-78 -2.5zM371 150q-22 0 -39 2.5t-31 6.5q-3 16 -1 29.5t7 23.5q9 -2 18.5 -2h18.5q29 0 55 12t43 40t17 78q0 62 -33.5 102.5t-103.5 40.5q-13 0 -27.5 -1t-34.5 -8l-33 67q20 0 45 0.5t53.5 1
t59.5 0.5q79 0 126.5 -25.5t69.5 -68t22 -92.5q0 -55 -27 -102.5t-79 -76t-126 -28.5z" />
    <glyph glyph-name="Q" unicode="Q" horiz-adv-x="747" 
d="M373 -9q-104 0 -179.5 45t-117 123.5t-41.5 181.5q0 78 25.5 141.5t71 109t107 69.5t134.5 24q101 0 177 -42t119 -118t43 -178q0 -77 -24 -142t-69 -113t-107.5 -74.5t-138.5 -26.5zM389 55q53 0 90 34.5t56.5 95t19.5 139.5q0 83 -25 151t-70 108t-104 40
q-49 0 -86 -31t-58 -88.5t-21 -137.5q0 -61 12.5 -117.5t37 -100t61.5 -68.5t87 -25zM612 -202q-35 12 -57 33.5t-39 46.5t-35 49t-43 41.5t-65 22.5l101 33q41 -9 71 -24.5t54.5 -32.5t49 -31.5t55 -22.5t72.5 -5q1 -15 -1.5 -32t-6.5 -31q-39 -6 -78 -17.5t-78 -29.5z" />
    <glyph glyph-name="R" unicode="R" horiz-adv-x="702" 
d="M484 -9q-14 28 -25.5 52t-21.5 47t-22 48q-16 36 -30.5 62t-33 48t-45.5 45l40 -10q-27 -1 -48 -1t-45 1l5 65q15 -2 25 -3t19 -1q42 0 76.5 15t56 46t21.5 79q0 62 -32.5 98.5t-100.5 36.5q-18 0 -32.5 -2.5t-31.5 -7.5l7 27v-472q0 -44 5.5 -66.5t18 -30t33.5 -9.5
q3 -9 4.5 -26.5t1.5 -34.5q-20 1 -47.5 1.5l-55 1t-45.5 0.5q-34 0 -71.5 -0.5t-67.5 -2.5q0 19 1.5 34t5.5 27q27 2 41.5 10t20 29.5t5.5 60.5v362q0 40 -5.5 60t-20 28.5t-42.5 10.5q-3 12 -4.5 30.5t-1.5 29.5q23 -1 63.5 -2t84.5 -1q34 0 84 2t103 2q82 0 134 -24
t76.5 -64.5t24.5 -90.5q0 -57 -23 -99t-64 -67.5t-94 -34.5l15 13q29 -18 48 -37.5t38 -50t47 -83.5q17 -30 30 -47t30.5 -24.5t44.5 -9.5q0 -17 -2 -31.5t-6 -29.5q-58 0 -108 -2t-84 -7z" />
    <glyph glyph-name="Racute" unicode="&#x154;" horiz-adv-x="702" 
d="M484 -9q-14 28 -25.5 52t-21.5 47t-22 48q-16 36 -30.5 62t-33 48t-45.5 45l40 -10q-27 -1 -48 -1t-45 1l5 65q15 -2 25 -3t19 -1q42 0 76.5 15t56 46t21.5 79q0 62 -32.5 98.5t-100.5 36.5q-18 0 -32.5 -2.5t-31.5 -7.5l7 27v-472q0 -44 5.5 -66.5t18 -30t33.5 -9.5
q3 -9 4.5 -26.5t1.5 -34.5q-20 1 -47.5 1.5l-55 1t-45.5 0.5q-34 0 -71.5 -0.5t-67.5 -2.5q0 19 1.5 34t5.5 27q27 2 41.5 10t20 29.5t5.5 60.5v362q0 40 -5.5 60t-20 28.5t-42.5 10.5q-3 12 -4.5 30.5t-1.5 29.5q23 -1 63.5 -2t84.5 -1q34 0 84 2t103 2q82 0 134 -24
t76.5 -64.5t24.5 -90.5q0 -57 -23 -99t-64 -67.5t-94 -34.5l15 13q29 -18 48 -37.5t38 -50t47 -83.5q17 -30 30 -47t30.5 -24.5t44.5 -9.5q0 -17 -2 -31.5t-6 -29.5q-58 0 -108 -2t-84 -7zM342 734q-22 0 -39 2.5t-33 8.5q17 31 33 65t26 62q17 4 35.5 6t36.5 2q33 0 58 -7
q-32 -34 -60 -68t-57 -71z" />
    <glyph glyph-name="Rcaron" unicode="&#x158;" horiz-adv-x="702" 
d="M484 -9q-14 28 -25.5 52t-21.5 47t-22 48q-16 36 -30.5 62t-33 48t-45.5 45l40 -10q-27 -1 -48 -1t-45 1l5 65q15 -2 25 -3t19 -1q42 0 76.5 15t56 46t21.5 79q0 62 -32.5 98.5t-100.5 36.5q-18 0 -32.5 -2.5t-31.5 -7.5l7 27v-472q0 -44 5.5 -66.5t18 -30t33.5 -9.5
q3 -9 4.5 -26.5t1.5 -34.5q-20 1 -47.5 1.5l-55 1t-45.5 0.5q-34 0 -71.5 -0.5t-67.5 -2.5q0 19 1.5 34t5.5 27q27 2 41.5 10t20 29.5t5.5 60.5v362q0 40 -5.5 60t-20 28.5t-42.5 10.5q-3 12 -4.5 30.5t-1.5 29.5q23 -1 63.5 -2t84.5 -1q34 0 84 2t103 2q82 0 134 -24
t76.5 -64.5t24.5 -90.5q0 -57 -23 -99t-64 -67.5t-94 -34.5l15 13q29 -18 48 -37.5t38 -50t47 -83.5q17 -30 30 -47t30.5 -24.5t44.5 -9.5q0 -17 -2 -31.5t-6 -29.5q-58 0 -108 -2t-84 -7zM279 728q-26 28 -60.5 58t-76.5 60q11 14 26.5 24.5t38.5 15.5q26 -15 58 -32
t61 -30q16 7 38 18t44.5 23t37.5 21q18 -3 28.5 -17t14.5 -27q-37 -22 -76.5 -50.5t-69.5 -55.5q-15 -5 -31 -6.5t-33 -1.5z" />
    <glyph glyph-name="uni0156" unicode="&#x156;" horiz-adv-x="702" 
d="M484 -9q-14 28 -25.5 52t-21.5 47t-22 48q-16 36 -30.5 62t-33 48t-45.5 45l40 -10q-27 -1 -48 -1t-45 1l5 65q15 -2 25 -3t19 -1q42 0 76.5 15t56 46t21.5 79q0 62 -32.5 98.5t-100.5 36.5q-18 0 -32.5 -2.5t-31.5 -7.5l7 27v-472q0 -44 5.5 -66.5t18 -30t33.5 -9.5
q3 -9 4.5 -26.5t1.5 -34.5q-20 1 -47.5 1.5l-55 1t-45.5 0.5q-34 0 -71.5 -0.5t-67.5 -2.5q0 19 1.5 34t5.5 27q27 2 41.5 10t20 29.5t5.5 60.5v362q0 40 -5.5 60t-20 28.5t-42.5 10.5q-3 12 -4.5 30.5t-1.5 29.5q23 -1 63.5 -2t84.5 -1q34 0 84 2t103 2q82 0 134 -24
t76.5 -64.5t24.5 -90.5q0 -57 -23 -99t-64 -67.5t-94 -34.5l15 13q29 -18 48 -37.5t38 -50t47 -83.5q17 -30 30 -47t30.5 -24.5t44.5 -9.5q0 -17 -2 -31.5t-6 -29.5q-58 0 -108 -2t-84 -7zM408 -40q23 -7 33.5 -25.5t10.5 -50.5q0 -58 -31.5 -103.5t-78.5 -78.5
q-34 0 -53 23q28 23 41.5 45.5t13.5 40.5q0 34 -52 40q-2 17 1.5 39t10.5 40q32 3 58.5 10.5t45.5 19.5z" />
    <glyph glyph-name="uni0210" unicode="&#x210;" horiz-adv-x="702" 
d="M484 -9q-14 28 -25.5 52t-21.5 47t-22 48q-16 36 -30.5 62t-33 48t-45.5 45l40 -10q-27 -1 -48 -1t-45 1l5 65q15 -2 25 -3t19 -1q42 0 76.5 15t56 46t21.5 79q0 62 -32.5 98.5t-100.5 36.5q-18 0 -32.5 -2.5t-31.5 -7.5l7 27v-472q0 -44 5.5 -66.5t18 -30t33.5 -9.5
q3 -9 4.5 -26.5t1.5 -34.5q-20 1 -47.5 1.5l-55 1t-45.5 0.5q-34 0 -71.5 -0.5t-67.5 -2.5q0 19 1.5 34t5.5 27q27 2 41.5 10t20 29.5t5.5 60.5v362q0 40 -5.5 60t-20 28.5t-42.5 10.5q-3 12 -4.5 30.5t-1.5 29.5q23 -1 63.5 -2t84.5 -1q34 0 84 2t103 2q82 0 134 -24
t76.5 -64.5t24.5 -90.5q0 -57 -23 -99t-64 -67.5t-94 -34.5l15 13q29 -18 48 -37.5t38 -50t47 -83.5q17 -30 30 -47t30.5 -24.5t44.5 -9.5q0 -17 -2 -31.5t-6 -29.5q-58 0 -108 -2t-84 -7zM215 718q-28 35 -54.5 65.5t-56.5 59.5q23 11 55.5 15.5t62.5 3.5q12 -29 29 -65
t36 -67q-15 -6 -32.5 -9t-39.5 -3zM391 718q-26 35 -52 66t-54 61q22 10 53 14t60 3q12 -29 29 -65t36 -67q-15 -6 -32 -9t-40 -3z" />
    <glyph glyph-name="uni1E5A" unicode="&#x1e5a;" horiz-adv-x="702" 
d="M484 -9q-14 28 -25.5 52t-21.5 47t-22 48q-16 36 -30.5 62t-33 48t-45.5 45l40 -10q-27 -1 -48 -1t-45 1l5 65q15 -2 25 -3t19 -1q42 0 76.5 15t56 46t21.5 79q0 62 -32.5 98.5t-100.5 36.5q-18 0 -32.5 -2.5t-31.5 -7.5l7 27v-472q0 -44 5.5 -66.5t18 -30t33.5 -9.5
q3 -9 4.5 -26.5t1.5 -34.5q-20 1 -47.5 1.5l-55 1t-45.5 0.5q-34 0 -71.5 -0.5t-67.5 -2.5q0 19 1.5 34t5.5 27q27 2 41.5 10t20 29.5t5.5 60.5v362q0 40 -5.5 60t-20 28.5t-42.5 10.5q-3 12 -4.5 30.5t-1.5 29.5q23 -1 63.5 -2t84.5 -1q34 0 84 2t103 2q82 0 134 -24
t76.5 -64.5t24.5 -90.5q0 -57 -23 -99t-64 -67.5t-94 -34.5l15 13q29 -18 48 -37.5t38 -50t47 -83.5q17 -30 30 -47t30.5 -24.5t44.5 -9.5q0 -17 -2 -31.5t-6 -29.5q-58 0 -108 -2t-84 -7zM369 -224q-36 0 -58.5 20t-22.5 50q0 36 25 56t60 20q41 0 63 -19.5t22 -55.5
q0 -30 -24 -50.5t-65 -20.5z" />
    <glyph glyph-name="uni0212" unicode="&#x212;" horiz-adv-x="702" 
d="M484 -9q-14 28 -25.5 52t-21.5 47t-22 48q-16 36 -30.5 62t-33 48t-45.5 45l40 -10q-27 -1 -48 -1t-45 1l5 65q15 -2 25 -3t19 -1q42 0 76.5 15t56 46t21.5 79q0 62 -32.5 98.5t-100.5 36.5q-18 0 -32.5 -2.5t-31.5 -7.5l7 27v-472q0 -44 5.5 -66.5t18 -30t33.5 -9.5
q3 -9 4.5 -26.5t1.5 -34.5q-20 1 -47.5 1.5l-55 1t-45.5 0.5q-34 0 -71.5 -0.5t-67.5 -2.5q0 19 1.5 34t5.5 27q27 2 41.5 10t20 29.5t5.5 60.5v362q0 40 -5.5 60t-20 28.5t-42.5 10.5q-3 12 -4.5 30.5t-1.5 29.5q23 -1 63.5 -2t84.5 -1q34 0 84 2t103 2q82 0 134 -24
t76.5 -64.5t24.5 -90.5q0 -57 -23 -99t-64 -67.5t-94 -34.5l15 13q29 -18 48 -37.5t38 -50t47 -83.5q17 -30 30 -47t30.5 -24.5t44.5 -9.5q0 -17 -2 -31.5t-6 -29.5q-58 0 -108 -2t-84 -7zM157 732q0 70 43 106.5t125 36.5q80 0 122 -35t42 -104q-16 -7 -36 -9.5t-40 -0.5
q-5 31 -31.5 47.5t-67.5 16.5t-65.5 -16.5t-26.5 -47.5q-18 -3 -34.5 -1t-30.5 7z" />
    <glyph glyph-name="uni1E5E" unicode="&#x1e5e;" horiz-adv-x="702" 
d="M484 -9q-14 28 -25.5 52t-21.5 47t-22 48q-16 36 -30.5 62t-33 48t-45.5 45l40 -10q-27 -1 -48 -1t-45 1l5 65q15 -2 25 -3t19 -1q42 0 76.5 15t56 46t21.5 79q0 62 -32.5 98.5t-100.5 36.5q-18 0 -32.5 -2.5t-31.5 -7.5l7 27v-472q0 -44 5.5 -66.5t18 -30t33.5 -9.5
q3 -9 4.5 -26.5t1.5 -34.5q-20 1 -47.5 1.5l-55 1t-45.5 0.5q-34 0 -71.5 -0.5t-67.5 -2.5q0 19 1.5 34t5.5 27q27 2 41.5 10t20 29.5t5.5 60.5v362q0 40 -5.5 60t-20 28.5t-42.5 10.5q-3 12 -4.5 30.5t-1.5 29.5q23 -1 63.5 -2t84.5 -1q34 0 84 2t103 2q82 0 134 -24
t76.5 -64.5t24.5 -90.5q0 -57 -23 -99t-64 -67.5t-94 -34.5l15 13q29 -18 48 -37.5t38 -50t47 -83.5q17 -30 30 -47t30.5 -24.5t44.5 -9.5q0 -17 -2 -31.5t-6 -29.5q-58 0 -108 -2t-84 -7zM186 -161q0 11 2 28.5t7 29.5h365q0 -10 -2 -24t-7 -27q-34 0 -91 -0.5t-127 -2
t-147 -4.5z" />
    <glyph glyph-name="S" unicode="S" horiz-adv-x="558" 
d="M273 -9q-65 0 -119.5 16t-106.5 44q8 40 10 81t2 75q20 6 44 8t46 2q4 -57 16.5 -92.5t39.5 -51.5t72 -16q59 0 85 25.5t26 58.5q0 35 -24 58.5t-61 41.5t-78.5 37t-79 46t-61 67t-23.5 100q0 66 29.5 109t80 64t113.5 21q37 0 73 -6t66 -15.5t48 -22.5q0 -36 1.5 -76.5
t5.5 -65.5q-16 -9 -41.5 -12.5t-45.5 -3.5q-9 56 -24.5 86t-38 41.5t-52.5 11.5q-41 0 -67 -19.5t-26 -57.5q0 -37 24.5 -62t63 -44t82 -39t82 -46.5t63 -65.5t24.5 -97q0 -57 -27.5 -102.5t-82.5 -71.5t-139 -26z" />
    <glyph glyph-name="Sacute" unicode="&#x15a;" horiz-adv-x="558" 
d="M273 -9q-65 0 -119.5 16t-106.5 44q8 40 10 81t2 75q20 6 44 8t46 2q4 -57 16.5 -92.5t39.5 -51.5t72 -16q59 0 85 25.5t26 58.5q0 35 -24 58.5t-61 41.5t-78.5 37t-79 46t-61 67t-23.5 100q0 66 29.5 109t80 64t113.5 21q37 0 73 -6t66 -15.5t48 -22.5q0 -36 1.5 -76.5
t5.5 -65.5q-16 -9 -41.5 -12.5t-45.5 -3.5q-9 56 -24.5 86t-38 41.5t-52.5 11.5q-41 0 -67 -19.5t-26 -57.5q0 -37 24.5 -62t63 -44t82 -39t82 -46.5t63 -65.5t24.5 -97q0 -57 -27.5 -102.5t-82.5 -71.5t-139 -26zM302 734q-22 0 -39 2.5t-33 8.5q17 31 33 65t26 62
q17 4 35.5 6t36.5 2q33 0 58 -7q-32 -34 -60 -68t-57 -71z" />
    <glyph glyph-name="uni1E64" unicode="&#x1e64;" horiz-adv-x="558" 
d="M273 -9q-65 0 -119.5 16t-106.5 44q8 40 10 81t2 75q20 6 44 8t46 2q4 -57 16.5 -92.5t39.5 -51.5t72 -16q59 0 85 25.5t26 58.5q0 35 -24 58.5t-61 41.5t-78.5 37t-79 46t-61 67t-23.5 100q0 66 29.5 109t80 64t113.5 21q37 0 73 -6t66 -15.5t48 -22.5q0 -36 1.5 -76.5
t5.5 -65.5q-16 -9 -41.5 -12.5t-45.5 -3.5q-9 56 -24.5 86t-38 41.5t-52.5 11.5q-41 0 -67 -19.5t-26 -57.5q0 -37 24.5 -62t63 -44t82 -39t82 -46.5t63 -65.5t24.5 -97q0 -57 -27.5 -102.5t-82.5 -71.5t-139 -26zM302 734q-22 0 -39 2.5t-33 8.5q17 31 33 65t26 62
q17 4 35.5 6t36.5 2q33 0 58 -7q-32 -34 -60 -68t-57 -71zM296 921q-36 0 -58.5 19.5t-22.5 50.5q0 36 25 55.5t60 19.5q41 0 63 -19.5t22 -54.5q0 -31 -24 -51t-65 -20z" />
    <glyph glyph-name="Scaron" unicode="&#x160;" horiz-adv-x="558" 
d="M273 -9q-65 0 -119.5 16t-106.5 44q8 40 10 81t2 75q20 6 44 8t46 2q4 -57 16.5 -92.5t39.5 -51.5t72 -16q59 0 85 25.5t26 58.5q0 35 -24 58.5t-61 41.5t-78.5 37t-79 46t-61 67t-23.5 100q0 66 29.5 109t80 64t113.5 21q37 0 73 -6t66 -15.5t48 -22.5q0 -36 1.5 -76.5
t5.5 -65.5q-16 -9 -41.5 -12.5t-45.5 -3.5q-9 56 -24.5 86t-38 41.5t-52.5 11.5q-41 0 -67 -19.5t-26 -57.5q0 -37 24.5 -62t63 -44t82 -39t82 -46.5t63 -65.5t24.5 -97q0 -57 -27.5 -102.5t-82.5 -71.5t-139 -26zM240 728q-26 28 -60.5 58t-76.5 60q11 14 26.5 24.5
t38.5 15.5q26 -15 58 -32t61 -30q16 7 38 18t44.5 23t37.5 21q18 -3 28.5 -17t14.5 -27q-37 -22 -76.5 -50.5t-69.5 -55.5q-15 -5 -31 -6.5t-33 -1.5z" />
    <glyph glyph-name="uni1E66" unicode="&#x1e66;" horiz-adv-x="558" 
d="M273 -9q-65 0 -119.5 16t-106.5 44q8 40 10 81t2 75q20 6 44 8t46 2q4 -57 16.5 -92.5t39.5 -51.5t72 -16q59 0 85 25.5t26 58.5q0 35 -24 58.5t-61 41.5t-78.5 37t-79 46t-61 67t-23.5 100q0 66 29.5 109t80 64t113.5 21q37 0 73 -6t66 -15.5t48 -22.5q0 -36 1.5 -76.5
t5.5 -65.5q-16 -9 -41.5 -12.5t-45.5 -3.5q-9 56 -24.5 86t-38 41.5t-52.5 11.5q-41 0 -67 -19.5t-26 -57.5q0 -37 24.5 -62t63 -44t82 -39t82 -46.5t63 -65.5t24.5 -97q0 -57 -27.5 -102.5t-82.5 -71.5t-139 -26zM240 728q-26 28 -60.5 58t-76.5 60q11 14 26.5 24.5
t38.5 15.5q26 -15 58 -32t61 -30q16 7 38 18t44.5 23t37.5 21q18 -3 28.5 -17t14.5 -27q-37 -22 -76.5 -50.5t-69.5 -55.5q-15 -5 -31 -6.5t-33 -1.5zM280 929q-36 0 -58.5 19.5t-22.5 50.5q0 36 25 55.5t60 19.5q41 0 63 -19.5t22 -54.5q0 -31 -24 -51t-65 -20z" />
    <glyph glyph-name="Scedilla" unicode="&#x15e;" horiz-adv-x="558" 
d="M273 -9q-65 0 -119.5 16t-106.5 44q8 40 10 81t2 75q20 6 44 8t46 2q4 -57 16.5 -92.5t39.5 -51.5t72 -16q59 0 85 25.5t26 58.5q0 35 -24 58.5t-61 41.5t-78.5 37t-79 46t-61 67t-23.5 100q0 66 29.5 109t80 64t113.5 21q37 0 73 -6t66 -15.5t48 -22.5q0 -36 1.5 -76.5
t5.5 -65.5q-16 -9 -41.5 -12.5t-45.5 -3.5q-9 56 -24.5 86t-38 41.5t-52.5 11.5q-41 0 -67 -19.5t-26 -57.5q0 -37 24.5 -62t63 -44t82 -39t82 -46.5t63 -65.5t24.5 -97q0 -57 -27.5 -102.5t-82.5 -71.5t-139 -26zM215 -242q-5 9 -6.5 21t-1.5 21q31 0 54.5 12.5t23.5 36.5
q0 21 -17.5 33t-43.5 12q-7 8 -12.5 19t-5.5 24l58 79h62l-46 -62q42 -7 65 -32.5t23 -60.5q0 -33 -20.5 -56t-55.5 -35t-77 -12z" />
    <glyph glyph-name="Scircumflex" unicode="&#x15c;" horiz-adv-x="558" 
d="M273 -9q-65 0 -119.5 16t-106.5 44q8 40 10 81t2 75q20 6 44 8t46 2q4 -57 16.5 -92.5t39.5 -51.5t72 -16q59 0 85 25.5t26 58.5q0 35 -24 58.5t-61 41.5t-78.5 37t-79 46t-61 67t-23.5 100q0 66 29.5 109t80 64t113.5 21q37 0 73 -6t66 -15.5t48 -22.5q0 -36 1.5 -76.5
t5.5 -65.5q-16 -9 -41.5 -12.5t-45.5 -3.5q-9 56 -24.5 86t-38 41.5t-52.5 11.5q-41 0 -67 -19.5t-26 -57.5q0 -37 24.5 -62t63 -44t82 -39t82 -46.5t63 -65.5t24.5 -97q0 -57 -27.5 -102.5t-82.5 -71.5t-139 -26zM153 728q-17 4 -28 18t-15 26q37 22 76.5 50.5t69.5 56.5
q15 4 31.5 5.5t31.5 1.5q27 -28 61.5 -57.5t76.5 -60.5q-11 -14 -26.5 -24.5t-39.5 -15.5q-25 16 -57 33t-61 30q-15 -7 -38 -18.5t-45 -23t-37 -21.5z" />
    <glyph glyph-name="uni0218" unicode="&#x218;" horiz-adv-x="558" 
d="M273 -9q-65 0 -119.5 16t-106.5 44q8 40 10 81t2 75q20 6 44 8t46 2q4 -57 16.5 -92.5t39.5 -51.5t72 -16q59 0 85 25.5t26 58.5q0 35 -24 58.5t-61 41.5t-78.5 37t-79 46t-61 67t-23.5 100q0 66 29.5 109t80 64t113.5 21q37 0 73 -6t66 -15.5t48 -22.5q0 -36 1.5 -76.5
t5.5 -65.5q-16 -9 -41.5 -12.5t-45.5 -3.5q-9 56 -24.5 86t-38 41.5t-52.5 11.5q-41 0 -67 -19.5t-26 -57.5q0 -37 24.5 -62t63 -44t82 -39t82 -46.5t63 -65.5t24.5 -97q0 -57 -27.5 -102.5t-82.5 -71.5t-139 -26zM321 -40q23 -7 33.5 -25.5t10.5 -50.5q0 -58 -31.5 -103.5
t-78.5 -78.5q-34 0 -53 23q28 23 41.5 45.5t13.5 40.5q0 34 -52 40q-2 17 1.5 39t10.5 40q32 3 58.5 10.5t45.5 19.5z" />
    <glyph glyph-name="uni1E60" unicode="&#x1e60;" horiz-adv-x="558" 
d="M273 -9q-65 0 -119.5 16t-106.5 44q8 40 10 81t2 75q20 6 44 8t46 2q4 -57 16.5 -92.5t39.5 -51.5t72 -16q59 0 85 25.5t26 58.5q0 35 -24 58.5t-61 41.5t-78.5 37t-79 46t-61 67t-23.5 100q0 66 29.5 109t80 64t113.5 21q37 0 73 -6t66 -15.5t48 -22.5q0 -36 1.5 -76.5
t5.5 -65.5q-16 -9 -41.5 -12.5t-45.5 -3.5q-9 56 -24.5 86t-38 41.5t-52.5 11.5q-41 0 -67 -19.5t-26 -57.5q0 -37 24.5 -62t63 -44t82 -39t82 -46.5t63 -65.5t24.5 -97q0 -57 -27.5 -102.5t-82.5 -71.5t-139 -26zM280 717q-36 0 -58.5 19.5t-22.5 50.5q0 36 25 55.5
t60 19.5q41 0 63 -19.5t22 -54.5q0 -31 -24 -51t-65 -20z" />
    <glyph glyph-name="uni1E62" unicode="&#x1e62;" horiz-adv-x="558" 
d="M273 -9q-65 0 -119.5 16t-106.5 44q8 40 10 81t2 75q20 6 44 8t46 2q4 -57 16.5 -92.5t39.5 -51.5t72 -16q59 0 85 25.5t26 58.5q0 35 -24 58.5t-61 41.5t-78.5 37t-79 46t-61 67t-23.5 100q0 66 29.5 109t80 64t113.5 21q37 0 73 -6t66 -15.5t48 -22.5q0 -36 1.5 -76.5
t5.5 -65.5q-16 -9 -41.5 -12.5t-45.5 -3.5q-9 56 -24.5 86t-38 41.5t-52.5 11.5q-41 0 -67 -19.5t-26 -57.5q0 -37 24.5 -62t63 -44t82 -39t82 -46.5t63 -65.5t24.5 -97q0 -57 -27.5 -102.5t-82.5 -71.5t-139 -26zM283 -224q-36 0 -58.5 20t-22.5 50q0 36 25 56t60 20
q41 0 63 -19.5t22 -55.5q0 -30 -24 -50.5t-65 -20.5z" />
    <glyph glyph-name="uni1E68" unicode="&#x1e68;" horiz-adv-x="558" 
d="M273 -9q-65 0 -119.5 16t-106.5 44q8 40 10 81t2 75q20 6 44 8t46 2q4 -57 16.5 -92.5t39.5 -51.5t72 -16q59 0 85 25.5t26 58.5q0 35 -24 58.5t-61 41.5t-78.5 37t-79 46t-61 67t-23.5 100q0 66 29.5 109t80 64t113.5 21q37 0 73 -6t66 -15.5t48 -22.5q0 -36 1.5 -76.5
t5.5 -65.5q-16 -9 -41.5 -12.5t-45.5 -3.5q-9 56 -24.5 86t-38 41.5t-52.5 11.5q-41 0 -67 -19.5t-26 -57.5q0 -37 24.5 -62t63 -44t82 -39t82 -46.5t63 -65.5t24.5 -97q0 -57 -27.5 -102.5t-82.5 -71.5t-139 -26zM283 -224q-36 0 -58.5 20t-22.5 50q0 36 25 56t60 20
q41 0 63 -19.5t22 -55.5q0 -30 -24 -50.5t-65 -20.5zM280 717q-36 0 -58.5 19.5t-22.5 50.5q0 36 25 55.5t60 19.5q41 0 63 -19.5t22 -54.5q0 -31 -24 -51t-65 -20z" />
    <glyph glyph-name="uni1E9E" unicode="&#x1e9e;" horiz-adv-x="750" 
d="M516 644l152 -31q-27 -53 -65.5 -115.5t-82.5 -120.5l-44 23q70 -5 123.5 -30t84 -69t30.5 -109q0 -60 -27.5 -105.5t-80 -70.5t-127.5 -25q-60 0 -98 13t-68 34q7 35 9.5 74.5t2.5 65.5q18 6 40 8.5t45 2.5q2 -49 9.5 -78t23 -41t43.5 -12q24 0 42.5 12.5t29 38.5
t10.5 64q0 73 -46 115.5t-139 50.5q-7 12 -12 31t-5 33q39 50 78.5 114t71.5 127zM254 -2q-15 1 -36.5 1.5t-51.5 0.5q-29 0 -67 -0.5t-68 -2.5q0 15 2 32.5t5 28.5q27 3 41.5 11.5t20 33t5.5 72.5v241q0 78 21 129t59 80.5t89.5 42t111.5 12.5q24 0 42 -1t38 -2t51 -1
q34 0 63.5 1t69.5 4q7 -12 12.5 -31.5t5.5 -36.5q-79 -2 -131 -0.5t-88.5 4t-72.5 2.5q-40 0 -67.5 -15t-41 -57.5t-13.5 -124.5v-424z" />
    <glyph glyph-name="uni018F" unicode="&#x18f;" horiz-adv-x="670" 
d="M313 -7q-73 0 -124.5 25t-84 68.5t-49.5 100.5t-20 120q7 29 25 48h432v-66q-54 2 -104 3t-98.5 1.5t-101.5 0.5q0 -113 35 -176t106 -63q40 0 74 24t54.5 82.5t20.5 160.5q0 60 -9.5 114.5t-32 96.5t-63 66t-100.5 24q-45 0 -70.5 -14.5t-38 -45.5t-19.5 -79
q-19 -2 -40 1.5t-36 10.5q3 36 3.5 71t-4.5 72q45 24 105.5 35t119.5 11q93 0 158 -26.5t106 -72t59.5 -105.5t18.5 -128q0 -77 -22 -142.5t-63.5 -114.5t-101 -76t-135.5 -27z" />
    <glyph glyph-name="T" unicode="T" horiz-adv-x="655" 
d="M228 616q-42 0 -66.5 -15t-37.5 -42.5t-22 -67.5q-20 0 -41 2t-36 10q10 41 15.5 89.5t5.5 86.5q35 -1 76 -2t91.5 -1h117.5q62 0 113 0.5t93.5 1t76.5 1.5q0 -39 4 -84t11 -92q-15 -6 -34.5 -9.5t-43.5 -2.5q-7 63 -32.5 94t-80.5 31h-210zM253 645h150v-487
q0 -39 6.5 -60.5t25.5 -29.5t56 -10q4 -10 6 -27t2 -34q-30 2 -73 2.5t-92 0.5q-32 0 -67 -0.5t-65 -1t-51 -1.5q0 16 2.5 33t6.5 28q37 2 57.5 10t28 29.5t7.5 60.5v487z" />
    <glyph glyph-name="Tbar" unicode="&#x166;" horiz-adv-x="655" 
d="M228 616q-42 0 -66.5 -15t-37.5 -42.5t-22 -67.5q-20 0 -41 2t-36 10q10 41 15.5 89.5t5.5 86.5q35 -1 76 -2t91.5 -1h117.5q62 0 113 0.5t93.5 1t76.5 1.5q0 -39 4 -84t11 -92q-15 -6 -34.5 -9.5t-43.5 -2.5q-7 63 -32.5 94t-80.5 31h-210zM253 645h150v-487
q0 -39 6.5 -60.5t25.5 -29.5t56 -10q4 -10 6 -27t2 -34q-30 2 -73 2.5t-92 0.5q-32 0 -67 -0.5t-65 -1t-51 -1.5q0 16 2.5 33t6.5 28q37 2 57.5 10t28 29.5t7.5 60.5v487zM131 310q0 20 3.5 40t8.5 32h145h84h157q0 -21 -2.5 -38.5t-9.5 -32.5q-29 1 -51.5 1h-45h-53.5h-82
q-24 0 -47 -0.5t-48.5 -1t-58.5 -0.5z" />
    <glyph glyph-name="Tcaron" unicode="&#x164;" horiz-adv-x="655" 
d="M228 616q-42 0 -66.5 -15t-37.5 -42.5t-22 -67.5q-20 0 -41 2t-36 10q10 41 15.5 89.5t5.5 86.5q35 -1 76 -2t91.5 -1h117.5q62 0 113 0.5t93.5 1t76.5 1.5q0 -39 4 -84t11 -92q-15 -6 -34.5 -9.5t-43.5 -2.5q-7 63 -32.5 94t-80.5 31h-210zM253 645h150v-487
q0 -39 6.5 -60.5t25.5 -29.5t56 -10q4 -10 6 -27t2 -34q-30 2 -73 2.5t-92 0.5q-32 0 -67 -0.5t-65 -1t-51 -1.5q0 16 2.5 33t6.5 28q37 2 57.5 10t28 29.5t7.5 60.5v487zM285 728q-26 28 -60.5 58t-76.5 60q11 14 26.5 24.5t38.5 15.5q26 -15 58 -32t61 -30q16 7 38 18
t44.5 23t37.5 21q18 -3 28.5 -17t14.5 -27q-37 -22 -76.5 -50.5t-69.5 -55.5q-15 -5 -31 -6.5t-33 -1.5z" />
    <glyph glyph-name="uni0162" unicode="&#x162;" horiz-adv-x="655" 
d="M228 616q-42 0 -66.5 -15t-37.5 -42.5t-22 -67.5q-20 0 -41 2t-36 10q10 41 15.5 89.5t5.5 86.5q35 -1 76 -2t91.5 -1h117.5q62 0 113 0.5t93.5 1t76.5 1.5q0 -39 4 -84t11 -92q-15 -6 -34.5 -9.5t-43.5 -2.5q-7 63 -32.5 94t-80.5 31h-210zM253 645h150v-487
q0 -39 6.5 -60.5t25.5 -29.5t56 -10q4 -10 6 -27t2 -34q-30 2 -73 2.5t-92 0.5q-32 0 -67 -0.5t-65 -1t-51 -1.5q0 16 2.5 33t6.5 28q37 2 57.5 10t28 29.5t7.5 60.5v487zM253 -242q-5 9 -6.5 21t-1.5 21q31 0 54.5 12.5t23.5 36.5q0 21 -17.5 33t-43.5 12q-7 8 -12.5 19
t-5.5 24l58 79h62l-46 -62q42 -7 65 -32.5t23 -60.5q0 -33 -20.5 -56t-55.5 -35t-77 -12z" />
    <glyph glyph-name="uni021A" unicode="&#x21a;" horiz-adv-x="655" 
d="M228 616q-42 0 -66.5 -15t-37.5 -42.5t-22 -67.5q-20 0 -41 2t-36 10q10 41 15.5 89.5t5.5 86.5q35 -1 76 -2t91.5 -1h117.5q62 0 113 0.5t93.5 1t76.5 1.5q0 -39 4 -84t11 -92q-15 -6 -34.5 -9.5t-43.5 -2.5q-7 63 -32.5 94t-80.5 31h-210zM253 645h150v-487
q0 -39 6.5 -60.5t25.5 -29.5t56 -10q4 -10 6 -27t2 -34q-30 2 -73 2.5t-92 0.5q-32 0 -67 -0.5t-65 -1t-51 -1.5q0 16 2.5 33t6.5 28q37 2 57.5 10t28 29.5t7.5 60.5v487zM359 -40q23 -7 33.5 -25.5t10.5 -50.5q0 -58 -31.5 -103.5t-78.5 -78.5q-34 0 -53 23
q28 23 41.5 45.5t13.5 40.5q0 34 -52 40q-2 17 1.5 39t10.5 40q32 3 58.5 10.5t45.5 19.5z" />
    <glyph glyph-name="uni1E6C" unicode="&#x1e6c;" horiz-adv-x="655" 
d="M228 616q-42 0 -66.5 -15t-37.5 -42.5t-22 -67.5q-20 0 -41 2t-36 10q10 41 15.5 89.5t5.5 86.5q35 -1 76 -2t91.5 -1h117.5q62 0 113 0.5t93.5 1t76.5 1.5q0 -39 4 -84t11 -92q-15 -6 -34.5 -9.5t-43.5 -2.5q-7 63 -32.5 94t-80.5 31h-210zM253 645h150v-487
q0 -39 6.5 -60.5t25.5 -29.5t56 -10q4 -10 6 -27t2 -34q-30 2 -73 2.5t-92 0.5q-32 0 -67 -0.5t-65 -1t-51 -1.5q0 16 2.5 33t6.5 28q37 2 57.5 10t28 29.5t7.5 60.5v487zM320 -224q-36 0 -58.5 20t-22.5 50q0 36 25 56t60 20q41 0 63 -19.5t22 -55.5q0 -30 -24 -50.5
t-65 -20.5z" />
    <glyph glyph-name="uni1E6E" unicode="&#x1e6e;" horiz-adv-x="655" 
d="M228 616q-42 0 -66.5 -15t-37.5 -42.5t-22 -67.5q-20 0 -41 2t-36 10q10 41 15.5 89.5t5.5 86.5q35 -1 76 -2t91.5 -1h117.5q62 0 113 0.5t93.5 1t76.5 1.5q0 -39 4 -84t11 -92q-15 -6 -34.5 -9.5t-43.5 -2.5q-7 63 -32.5 94t-80.5 31h-210zM253 645h150v-487
q0 -39 6.5 -60.5t25.5 -29.5t56 -10q4 -10 6 -27t2 -34q-30 2 -73 2.5t-92 0.5q-32 0 -67 -0.5t-65 -1t-51 -1.5q0 16 2.5 33t6.5 28q37 2 57.5 10t28 29.5t7.5 60.5v487zM138 -161q0 11 2 28.5t7 29.5h365q0 -10 -2 -24t-7 -27q-34 0 -91 -0.5t-127 -2t-147 -4.5z" />
    <glyph glyph-name="U" unicode="U" horiz-adv-x="686" 
d="M584 273q0 -86 -12 -139t-47 -88q-30 -28 -72.5 -41.5t-97.5 -13.5q-96 0 -152 26.5t-79.5 81t-23.5 136.5v281q0 42 -5 62.5t-18.5 28t-39.5 11.5q-3 13 -4.5 29t-1.5 32q20 -1 55 -2t71 -1h41t47 0.5t44 1t32 1.5q0 -17 -1 -32t-5 -29q-27 -3 -41.5 -11t-19.5 -28.5
t-5 -62.5v-265q0 -59 13.5 -102.5t44.5 -66.5t82 -23q24 0 50.5 9t44.5 31q13 15 20.5 35.5t11.5 54.5t4 86v212q0 49 -6 76t-20.5 39t-41.5 16q-3 17 -4 32t-1 29q13 -1 31 -1.5t37.5 -1t34.5 -0.5q26 0 54 1t47 2q0 -15 -1 -29.5t-5 -31.5q-25 -3 -38 -14.5t-18 -38
t-5 -73.5v-219z" />
    <glyph glyph-name="Uacute" unicode="&#xda;" horiz-adv-x="686" 
d="M584 273q0 -86 -12 -139t-47 -88q-30 -28 -72.5 -41.5t-97.5 -13.5q-96 0 -152 26.5t-79.5 81t-23.5 136.5v281q0 42 -5 62.5t-18.5 28t-39.5 11.5q-3 13 -4.5 29t-1.5 32q20 -1 55 -2t71 -1h41t47 0.5t44 1t32 1.5q0 -17 -1 -32t-5 -29q-27 -3 -41.5 -11t-19.5 -28.5
t-5 -62.5v-265q0 -59 13.5 -102.5t44.5 -66.5t82 -23q24 0 50.5 9t44.5 31q13 15 20.5 35.5t11.5 54.5t4 86v212q0 49 -6 76t-20.5 39t-41.5 16q-3 17 -4 32t-1 29q13 -1 31 -1.5t37.5 -1t34.5 -0.5q26 0 54 1t47 2q0 -15 -1 -29.5t-5 -31.5q-25 -3 -38 -14.5t-18 -38
t-5 -73.5v-219zM402 734q-22 0 -39 2.5t-33 8.5q17 31 33 65t26 62q17 4 35.5 6t36.5 2q33 0 58 -7q-32 -34 -60 -68t-57 -71z" />
    <glyph glyph-name="Ubreve" unicode="&#x16c;" horiz-adv-x="686" 
d="M584 273q0 -86 -12 -139t-47 -88q-30 -28 -72.5 -41.5t-97.5 -13.5q-96 0 -152 26.5t-79.5 81t-23.5 136.5v281q0 42 -5 62.5t-18.5 28t-39.5 11.5q-3 13 -4.5 29t-1.5 32q20 -1 55 -2t71 -1h41t47 0.5t44 1t32 1.5q0 -17 -1 -32t-5 -29q-27 -3 -41.5 -11t-19.5 -28.5
t-5 -62.5v-265q0 -59 13.5 -102.5t44.5 -66.5t82 -23q24 0 50.5 9t44.5 31q13 15 20.5 35.5t11.5 54.5t4 86v212q0 49 -6 76t-20.5 39t-41.5 16q-3 17 -4 32t-1 29q13 -1 31 -1.5t37.5 -1t34.5 -0.5q26 0 54 1t47 2q0 -15 -1 -29.5t-5 -31.5q-25 -3 -38 -14.5t-18 -38
t-5 -73.5v-219zM550 867q0 -70 -43 -106.5t-125 -36.5q-80 0 -122 35.5t-42 103.5q16 7 36 10t40 0q5 -31 31.5 -47.5t67.5 -16.5t65.5 16.5t26.5 47.5q18 3 35 1t30 -7z" />
    <glyph glyph-name="uni01D3" unicode="&#x1d3;" horiz-adv-x="686" 
d="M584 273q0 -86 -12 -139t-47 -88q-30 -28 -72.5 -41.5t-97.5 -13.5q-96 0 -152 26.5t-79.5 81t-23.5 136.5v281q0 42 -5 62.5t-18.5 28t-39.5 11.5q-3 13 -4.5 29t-1.5 32q20 -1 55 -2t71 -1h41t47 0.5t44 1t32 1.5q0 -17 -1 -32t-5 -29q-27 -3 -41.5 -11t-19.5 -28.5
t-5 -62.5v-265q0 -59 13.5 -102.5t44.5 -66.5t82 -23q24 0 50.5 9t44.5 31q13 15 20.5 35.5t11.5 54.5t4 86v212q0 49 -6 76t-20.5 39t-41.5 16q-3 17 -4 32t-1 29q13 -1 31 -1.5t37.5 -1t34.5 -0.5q26 0 54 1t47 2q0 -15 -1 -29.5t-5 -31.5q-25 -3 -38 -14.5t-18 -38
t-5 -73.5v-219zM339 728q-26 28 -60.5 58t-76.5 60q11 14 26.5 24.5t38.5 15.5q26 -15 58 -32t61 -30q16 7 38 18t44.5 23t37.5 21q18 -3 28.5 -17t14.5 -27q-37 -22 -76.5 -50.5t-69.5 -55.5q-15 -5 -31 -6.5t-33 -1.5z" />
    <glyph glyph-name="Ucircumflex" unicode="&#xdb;" horiz-adv-x="686" 
d="M584 273q0 -86 -12 -139t-47 -88q-30 -28 -72.5 -41.5t-97.5 -13.5q-96 0 -152 26.5t-79.5 81t-23.5 136.5v281q0 42 -5 62.5t-18.5 28t-39.5 11.5q-3 13 -4.5 29t-1.5 32q20 -1 55 -2t71 -1h41t47 0.5t44 1t32 1.5q0 -17 -1 -32t-5 -29q-27 -3 -41.5 -11t-19.5 -28.5
t-5 -62.5v-265q0 -59 13.5 -102.5t44.5 -66.5t82 -23q24 0 50.5 9t44.5 31q13 15 20.5 35.5t11.5 54.5t4 86v212q0 49 -6 76t-20.5 39t-41.5 16q-3 17 -4 32t-1 29q13 -1 31 -1.5t37.5 -1t34.5 -0.5q26 0 54 1t47 2q0 -15 -1 -29.5t-5 -31.5q-25 -3 -38 -14.5t-18 -38
t-5 -73.5v-219zM253 728q-17 4 -28 18t-15 26q37 22 76.5 50.5t69.5 56.5q15 4 31.5 5.5t31.5 1.5q27 -28 61.5 -57.5t76.5 -60.5q-11 -14 -26.5 -24.5t-39.5 -15.5q-25 16 -57 33t-61 30q-15 -7 -38 -18.5t-45 -23t-37 -21.5z" />
    <glyph glyph-name="uni0214" unicode="&#x214;" horiz-adv-x="686" 
d="M584 273q0 -86 -12 -139t-47 -88q-30 -28 -72.5 -41.5t-97.5 -13.5q-96 0 -152 26.5t-79.5 81t-23.5 136.5v281q0 42 -5 62.5t-18.5 28t-39.5 11.5q-3 13 -4.5 29t-1.5 32q20 -1 55 -2t71 -1h41t47 0.5t44 1t32 1.5q0 -17 -1 -32t-5 -29q-27 -3 -41.5 -11t-19.5 -28.5
t-5 -62.5v-265q0 -59 13.5 -102.5t44.5 -66.5t82 -23q24 0 50.5 9t44.5 31q13 15 20.5 35.5t11.5 54.5t4 86v212q0 49 -6 76t-20.5 39t-41.5 16q-3 17 -4 32t-1 29q13 -1 31 -1.5t37.5 -1t34.5 -0.5q26 0 54 1t47 2q0 -15 -1 -29.5t-5 -31.5q-25 -3 -38 -14.5t-18 -38
t-5 -73.5v-219zM275 718q-28 35 -54.5 65.5t-56.5 59.5q23 11 55.5 15.5t62.5 3.5q12 -29 29 -65t36 -67q-15 -6 -32.5 -9t-39.5 -3zM451 718q-26 35 -52 66t-54 61q22 10 53 14t60 3q12 -29 29 -65t36 -67q-15 -6 -32 -9t-40 -3z" />
    <glyph glyph-name="Udieresis" unicode="&#xdc;" horiz-adv-x="686" 
d="M584 273q0 -86 -12 -139t-47 -88q-30 -28 -72.5 -41.5t-97.5 -13.5q-96 0 -152 26.5t-79.5 81t-23.5 136.5v281q0 42 -5 62.5t-18.5 28t-39.5 11.5q-3 13 -4.5 29t-1.5 32q20 -1 55 -2t71 -1h41t47 0.5t44 1t32 1.5q0 -17 -1 -32t-5 -29q-27 -3 -41.5 -11t-19.5 -28.5
t-5 -62.5v-265q0 -59 13.5 -102.5t44.5 -66.5t82 -23q24 0 50.5 9t44.5 31q13 15 20.5 35.5t11.5 54.5t4 86v212q0 49 -6 76t-20.5 39t-41.5 16q-3 17 -4 32t-1 29q13 -1 31 -1.5t37.5 -1t34.5 -0.5q26 0 54 1t47 2q0 -15 -1 -29.5t-5 -31.5q-25 -3 -38 -14.5t-18 -38
t-5 -73.5v-219zM500 725q-40 0 -60.5 21t-20.5 54q0 31 21 48.5t56 17.5q34 0 56 -19t22 -47q0 -29 -17 -52t-57 -23zM272 725q-35 0 -56.5 19.5t-21.5 47.5t18 51t57 23q41 0 59.5 -21t18.5 -51q0 -29 -21.5 -49t-53.5 -20z" />
    <glyph glyph-name="uni01D7" unicode="&#x1d7;" horiz-adv-x="686" 
d="M584 273q0 -86 -12 -139t-47 -88q-30 -28 -72.5 -41.5t-97.5 -13.5q-96 0 -152 26.5t-79.5 81t-23.5 136.5v281q0 42 -5 62.5t-18.5 28t-39.5 11.5q-3 13 -4.5 29t-1.5 32q20 -1 55 -2t71 -1h41t47 0.5t44 1t32 1.5q0 -17 -1 -32t-5 -29q-27 -3 -41.5 -11t-19.5 -28.5
t-5 -62.5v-265q0 -59 13.5 -102.5t44.5 -66.5t82 -23q24 0 50.5 9t44.5 31q13 15 20.5 35.5t11.5 54.5t4 86v212q0 49 -6 76t-20.5 39t-41.5 16q-3 17 -4 32t-1 29q13 -1 31 -1.5t37.5 -1t34.5 -0.5q26 0 54 1t47 2q0 -15 -1 -29.5t-5 -31.5q-25 -3 -38 -14.5t-18 -38
t-5 -73.5v-219zM500 725q-40 0 -60.5 21t-20.5 54q0 31 21 48.5t56 17.5q34 0 56 -19t22 -47q0 -29 -17 -52t-57 -23zM272 725q-35 0 -56.5 19.5t-21.5 47.5t18 51t57 23q41 0 59.5 -21t18.5 -51q0 -29 -21.5 -49t-53.5 -20zM402 908q-22 0 -39 2.5t-33 8.5q17 31 33 65
t26 62q17 4 35.5 6t36.5 2q33 0 58 -7q-32 -34 -60 -68t-57 -71z" />
    <glyph glyph-name="uni01D9" unicode="&#x1d9;" horiz-adv-x="686" 
d="M584 273q0 -86 -12 -139t-47 -88q-30 -28 -72.5 -41.5t-97.5 -13.5q-96 0 -152 26.5t-79.5 81t-23.5 136.5v281q0 42 -5 62.5t-18.5 28t-39.5 11.5q-3 13 -4.5 29t-1.5 32q20 -1 55 -2t71 -1h41t47 0.5t44 1t32 1.5q0 -17 -1 -32t-5 -29q-27 -3 -41.5 -11t-19.5 -28.5
t-5 -62.5v-265q0 -59 13.5 -102.5t44.5 -66.5t82 -23q24 0 50.5 9t44.5 31q13 15 20.5 35.5t11.5 54.5t4 86v212q0 49 -6 76t-20.5 39t-41.5 16q-3 17 -4 32t-1 29q13 -1 31 -1.5t37.5 -1t34.5 -0.5q26 0 54 1t47 2q0 -15 -1 -29.5t-5 -31.5q-25 -3 -38 -14.5t-18 -38
t-5 -73.5v-219zM500 725q-40 0 -60.5 21t-20.5 54q0 31 21 48.5t56 17.5q34 0 56 -19t22 -47q0 -29 -17 -52t-57 -23zM272 725q-35 0 -56.5 19.5t-21.5 47.5t18 51t57 23q41 0 59.5 -21t18.5 -51q0 -29 -21.5 -49t-53.5 -20zM339 902q-26 28 -60.5 58t-76.5 60
q11 14 26.5 24.5t38.5 15.5q26 -15 58 -32t61 -30q16 7 38 18t44.5 23t37.5 21q18 -3 28.5 -17t14.5 -27q-37 -22 -76.5 -50.5t-69.5 -55.5q-15 -5 -31 -6.5t-33 -1.5z" />
    <glyph glyph-name="uni01DB" unicode="&#x1db;" horiz-adv-x="686" 
d="M584 273q0 -86 -12 -139t-47 -88q-30 -28 -72.5 -41.5t-97.5 -13.5q-96 0 -152 26.5t-79.5 81t-23.5 136.5v281q0 42 -5 62.5t-18.5 28t-39.5 11.5q-3 13 -4.5 29t-1.5 32q20 -1 55 -2t71 -1h41t47 0.5t44 1t32 1.5q0 -17 -1 -32t-5 -29q-27 -3 -41.5 -11t-19.5 -28.5
t-5 -62.5v-265q0 -59 13.5 -102.5t44.5 -66.5t82 -23q24 0 50.5 9t44.5 31q13 15 20.5 35.5t11.5 54.5t4 86v212q0 49 -6 76t-20.5 39t-41.5 16q-3 17 -4 32t-1 29q13 -1 31 -1.5t37.5 -1t34.5 -0.5q26 0 54 1t47 2q0 -15 -1 -29.5t-5 -31.5q-25 -3 -38 -14.5t-18 -38
t-5 -73.5v-219zM500 725q-40 0 -60.5 21t-20.5 54q0 31 21 48.5t56 17.5q34 0 56 -19t22 -47q0 -29 -17 -52t-57 -23zM272 725q-35 0 -56.5 19.5t-21.5 47.5t18 51t57 23q41 0 59.5 -21t18.5 -51q0 -29 -21.5 -49t-53.5 -20zM362 908q-25 34 -51 64.5t-56 59.5
q23 12 55.5 16t62.5 3q12 -30 29 -65t36 -67q-15 -6 -34.5 -8.5t-41.5 -2.5z" />
    <glyph glyph-name="uni01D5" unicode="&#x1d5;" horiz-adv-x="686" 
d="M584 273q0 -86 -12 -139t-47 -88q-30 -28 -72.5 -41.5t-97.5 -13.5q-96 0 -152 26.5t-79.5 81t-23.5 136.5v281q0 42 -5 62.5t-18.5 28t-39.5 11.5q-3 13 -4.5 29t-1.5 32q20 -1 55 -2t71 -1h41t47 0.5t44 1t32 1.5q0 -17 -1 -32t-5 -29q-27 -3 -41.5 -11t-19.5 -28.5
t-5 -62.5v-265q0 -59 13.5 -102.5t44.5 -66.5t82 -23q24 0 50.5 9t44.5 31q13 15 20.5 35.5t11.5 54.5t4 86v212q0 49 -6 76t-20.5 39t-41.5 16q-3 17 -4 32t-1 29q13 -1 31 -1.5t37.5 -1t34.5 -0.5q26 0 54 1t47 2q0 -15 -1 -29.5t-5 -31.5q-25 -3 -38 -14.5t-18 -38
t-5 -73.5v-219zM500 725q-40 0 -60.5 21t-20.5 54q0 31 21 48.5t56 17.5q34 0 56 -19t22 -47q0 -29 -17 -52t-57 -23zM272 725q-35 0 -56.5 19.5t-21.5 47.5t18 51t57 23q41 0 59.5 -21t18.5 -51q0 -29 -21.5 -49t-53.5 -20zM573 991q0 -10 -2 -25t-7 -29q-44 0 -102.5 -1
t-126.5 -2.5t-141 -5.5q0 14 2 32t7 31h370z" />
    <glyph glyph-name="uni1EE4" unicode="&#x1ee4;" horiz-adv-x="686" 
d="M584 273q0 -86 -12 -139t-47 -88q-30 -28 -72.5 -41.5t-97.5 -13.5q-96 0 -152 26.5t-79.5 81t-23.5 136.5v281q0 42 -5 62.5t-18.5 28t-39.5 11.5q-3 13 -4.5 29t-1.5 32q20 -1 55 -2t71 -1h41t47 0.5t44 1t32 1.5q0 -17 -1 -32t-5 -29q-27 -3 -41.5 -11t-19.5 -28.5
t-5 -62.5v-265q0 -59 13.5 -102.5t44.5 -66.5t82 -23q24 0 50.5 9t44.5 31q13 15 20.5 35.5t11.5 54.5t4 86v212q0 49 -6 76t-20.5 39t-41.5 16q-3 17 -4 32t-1 29q13 -1 31 -1.5t37.5 -1t34.5 -0.5q26 0 54 1t47 2q0 -15 -1 -29.5t-5 -31.5q-25 -3 -38 -14.5t-18 -38
t-5 -73.5v-219zM347 -224q-36 0 -58.5 20t-22.5 50q0 36 25 56t60 20q41 0 63 -19.5t22 -55.5q0 -30 -24 -50.5t-65 -20.5z" />
    <glyph glyph-name="Ugrave" unicode="&#xd9;" horiz-adv-x="686" 
d="M584 273q0 -86 -12 -139t-47 -88q-30 -28 -72.5 -41.5t-97.5 -13.5q-96 0 -152 26.5t-79.5 81t-23.5 136.5v281q0 42 -5 62.5t-18.5 28t-39.5 11.5q-3 13 -4.5 29t-1.5 32q20 -1 55 -2t71 -1h41t47 0.5t44 1t32 1.5q0 -17 -1 -32t-5 -29q-27 -3 -41.5 -11t-19.5 -28.5
t-5 -62.5v-265q0 -59 13.5 -102.5t44.5 -66.5t82 -23q24 0 50.5 9t44.5 31q13 15 20.5 35.5t11.5 54.5t4 86v212q0 49 -6 76t-20.5 39t-41.5 16q-3 17 -4 32t-1 29q13 -1 31 -1.5t37.5 -1t34.5 -0.5q26 0 54 1t47 2q0 -15 -1 -29.5t-5 -31.5q-25 -3 -38 -14.5t-18 -38
t-5 -73.5v-219zM362 734q-25 34 -51 64.5t-56 59.5q23 12 55.5 16t62.5 3q12 -30 29 -65t36 -67q-15 -6 -34.5 -8.5t-41.5 -2.5z" />
    <glyph glyph-name="uni1EE6" unicode="&#x1ee6;" horiz-adv-x="686" 
d="M584 273q0 -86 -12 -139t-47 -88q-30 -28 -72.5 -41.5t-97.5 -13.5q-96 0 -152 26.5t-79.5 81t-23.5 136.5v281q0 42 -5 62.5t-18.5 28t-39.5 11.5q-3 13 -4.5 29t-1.5 32q20 -1 55 -2t71 -1h41t47 0.5t44 1t32 1.5q0 -17 -1 -32t-5 -29q-27 -3 -41.5 -11t-19.5 -28.5
t-5 -62.5v-265q0 -59 13.5 -102.5t44.5 -66.5t82 -23q24 0 50.5 9t44.5 31q13 15 20.5 35.5t11.5 54.5t4 86v212q0 49 -6 76t-20.5 39t-41.5 16q-3 17 -4 32t-1 29q13 -1 31 -1.5t37.5 -1t34.5 -0.5q26 0 54 1t47 2q0 -15 -1 -29.5t-5 -31.5q-25 -3 -38 -14.5t-18 -38
t-5 -73.5v-219zM359 722q-9 14 -9 29q0 17 8.5 27.5t19.5 18.5t19.5 17t8.5 21q0 11 -7 16.5t-18 5.5q-17 0 -27.5 -13t-15.5 -52q-17 0 -31.5 3.5t-26.5 8.5q2 18 2.5 33.5t-2.5 30.5q19 13 45.5 22t64.5 9q47 0 72 -16t25 -46q0 -22 -11 -36t-25 -23t-25 -17t-11 -19
q0 -6 3 -15q-13 -5 -29 -6t-30 1z" />
    <glyph glyph-name="Uhorn" unicode="&#x1af;" horiz-adv-x="767" 
d="M584 273q0 -86 -12 -139t-47 -88q-30 -28 -72.5 -41.5t-97.5 -13.5q-96 0 -152 26.5t-79.5 81t-23.5 136.5v281q0 42 -5 62.5t-18.5 28t-39.5 11.5q-3 13 -4.5 29t-1.5 32q20 -1 55 -2t71 -1h41t47 0.5t44 1t32 1.5q0 -17 -1 -32t-5 -29q-27 -3 -41.5 -11t-19.5 -28.5
t-5 -62.5v-265q0 -59 13.5 -102.5t44.5 -66.5t82 -23q24 0 50.5 9t44.5 31q13 15 20.5 35.5t11.5 54.5t4 86v212q0 49 -6 76t-20.5 39t-41.5 16q-3 17 -4 32t-1 29q13 -1 31 -1.5t37.5 -1t34.5 -0.5q26 0 54 1t47 2q0 -15 -1 -29.5t-5 -31.5q-25 -3 -38 -14.5t-18 -38
t-5 -73.5v-219zM644 618l-94 58q52 0 76 15.5t24 51.5q0 19 -6 46q16 7 39.5 10t42.5 0q20 -32 20 -67q0 -34 -14.5 -57.5t-37.5 -37t-50 -19.5z" />
    <glyph glyph-name="uni1EE8" unicode="&#x1ee8;" horiz-adv-x="767" 
d="M584 273q0 -86 -12 -139t-47 -88q-30 -28 -72.5 -41.5t-97.5 -13.5q-96 0 -152 26.5t-79.5 81t-23.5 136.5v281q0 42 -5 62.5t-18.5 28t-39.5 11.5q-3 13 -4.5 29t-1.5 32q20 -1 55 -2t71 -1h41t47 0.5t44 1t32 1.5q0 -17 -1 -32t-5 -29q-27 -3 -41.5 -11t-19.5 -28.5
t-5 -62.5v-265q0 -59 13.5 -102.5t44.5 -66.5t82 -23q24 0 50.5 9t44.5 31q13 15 20.5 35.5t11.5 54.5t4 86v212q0 49 -6 76t-20.5 39t-41.5 16q-3 17 -4 32t-1 29q13 -1 31 -1.5t37.5 -1t34.5 -0.5q26 0 54 1t47 2q0 -15 -1 -29.5t-5 -31.5q-25 -3 -38 -14.5t-18 -38
t-5 -73.5v-219zM644 618l-94 58q52 0 76 15.5t24 51.5q0 19 -6 46q16 7 39.5 10t42.5 0q20 -32 20 -67q0 -34 -14.5 -57.5t-37.5 -37t-50 -19.5zM402 734q-22 0 -39 2.5t-33 8.5q17 31 33 65t26 62q17 4 35.5 6t36.5 2q33 0 58 -7q-32 -34 -60 -68t-57 -71z" />
    <glyph glyph-name="uni1EF0" unicode="&#x1ef0;" horiz-adv-x="767" 
d="M584 273q0 -86 -12 -139t-47 -88q-30 -28 -72.5 -41.5t-97.5 -13.5q-96 0 -152 26.5t-79.5 81t-23.5 136.5v281q0 42 -5 62.5t-18.5 28t-39.5 11.5q-3 13 -4.5 29t-1.5 32q20 -1 55 -2t71 -1h41t47 0.5t44 1t32 1.5q0 -17 -1 -32t-5 -29q-27 -3 -41.5 -11t-19.5 -28.5
t-5 -62.5v-265q0 -59 13.5 -102.5t44.5 -66.5t82 -23q24 0 50.5 9t44.5 31q13 15 20.5 35.5t11.5 54.5t4 86v212q0 49 -6 76t-20.5 39t-41.5 16q-3 17 -4 32t-1 29q13 -1 31 -1.5t37.5 -1t34.5 -0.5q26 0 54 1t47 2q0 -15 -1 -29.5t-5 -31.5q-25 -3 -38 -14.5t-18 -38
t-5 -73.5v-219zM644 618l-94 58q52 0 76 15.5t24 51.5q0 19 -6 46q16 7 39.5 10t42.5 0q20 -32 20 -67q0 -34 -14.5 -57.5t-37.5 -37t-50 -19.5zM347 -224q-36 0 -58.5 20t-22.5 50q0 36 25 56t60 20q41 0 63 -19.5t22 -55.5q0 -30 -24 -50.5t-65 -20.5z" />
    <glyph glyph-name="uni1EEA" unicode="&#x1eea;" horiz-adv-x="767" 
d="M584 273q0 -86 -12 -139t-47 -88q-30 -28 -72.5 -41.5t-97.5 -13.5q-96 0 -152 26.5t-79.5 81t-23.5 136.5v281q0 42 -5 62.5t-18.5 28t-39.5 11.5q-3 13 -4.5 29t-1.5 32q20 -1 55 -2t71 -1h41t47 0.5t44 1t32 1.5q0 -17 -1 -32t-5 -29q-27 -3 -41.5 -11t-19.5 -28.5
t-5 -62.5v-265q0 -59 13.5 -102.5t44.5 -66.5t82 -23q24 0 50.5 9t44.5 31q13 15 20.5 35.5t11.5 54.5t4 86v212q0 49 -6 76t-20.5 39t-41.5 16q-3 17 -4 32t-1 29q13 -1 31 -1.5t37.5 -1t34.5 -0.5q26 0 54 1t47 2q0 -15 -1 -29.5t-5 -31.5q-25 -3 -38 -14.5t-18 -38
t-5 -73.5v-219zM644 618l-94 58q52 0 76 15.5t24 51.5q0 19 -6 46q16 7 39.5 10t42.5 0q20 -32 20 -67q0 -34 -14.5 -57.5t-37.5 -37t-50 -19.5zM362 734q-25 34 -51 64.5t-56 59.5q23 12 55.5 16t62.5 3q12 -30 29 -65t36 -67q-15 -6 -34.5 -8.5t-41.5 -2.5z" />
    <glyph glyph-name="uni1EEC" unicode="&#x1eec;" horiz-adv-x="767" 
d="M584 273q0 -86 -12 -139t-47 -88q-30 -28 -72.5 -41.5t-97.5 -13.5q-96 0 -152 26.5t-79.5 81t-23.5 136.5v281q0 42 -5 62.5t-18.5 28t-39.5 11.5q-3 13 -4.5 29t-1.5 32q20 -1 55 -2t71 -1h41t47 0.5t44 1t32 1.5q0 -17 -1 -32t-5 -29q-27 -3 -41.5 -11t-19.5 -28.5
t-5 -62.5v-265q0 -59 13.5 -102.5t44.5 -66.5t82 -23q24 0 50.5 9t44.5 31q13 15 20.5 35.5t11.5 54.5t4 86v212q0 49 -6 76t-20.5 39t-41.5 16q-3 17 -4 32t-1 29q13 -1 31 -1.5t37.5 -1t34.5 -0.5q26 0 54 1t47 2q0 -15 -1 -29.5t-5 -31.5q-25 -3 -38 -14.5t-18 -38
t-5 -73.5v-219zM644 618l-94 58q52 0 76 15.5t24 51.5q0 19 -6 46q16 7 39.5 10t42.5 0q20 -32 20 -67q0 -34 -14.5 -57.5t-37.5 -37t-50 -19.5zM359 722q-9 14 -9 29q0 17 8.5 27.5t19.5 18.5t19.5 17t8.5 21q0 11 -7 16.5t-18 5.5q-17 0 -27.5 -13t-15.5 -52
q-17 0 -31.5 3.5t-26.5 8.5q2 18 2.5 33.5t-2.5 30.5q19 13 45.5 22t64.5 9q47 0 72 -16t25 -46q0 -22 -11 -36t-25 -23t-25 -17t-11 -19q0 -6 3 -15q-13 -5 -29 -6t-30 1z" />
    <glyph glyph-name="uni1EEE" unicode="&#x1eee;" horiz-adv-x="767" 
d="M584 273q0 -86 -12 -139t-47 -88q-30 -28 -72.5 -41.5t-97.5 -13.5q-96 0 -152 26.5t-79.5 81t-23.5 136.5v281q0 42 -5 62.5t-18.5 28t-39.5 11.5q-3 13 -4.5 29t-1.5 32q20 -1 55 -2t71 -1h41t47 0.5t44 1t32 1.5q0 -17 -1 -32t-5 -29q-27 -3 -41.5 -11t-19.5 -28.5
t-5 -62.5v-265q0 -59 13.5 -102.5t44.5 -66.5t82 -23q24 0 50.5 9t44.5 31q13 15 20.5 35.5t11.5 54.5t4 86v212q0 49 -6 76t-20.5 39t-41.5 16q-3 17 -4 32t-1 29q13 -1 31 -1.5t37.5 -1t34.5 -0.5q26 0 54 1t47 2q0 -15 -1 -29.5t-5 -31.5q-25 -3 -38 -14.5t-18 -38
t-5 -73.5v-219zM644 618l-94 58q52 0 76 15.5t24 51.5q0 19 -6 46q16 7 39.5 10t42.5 0q20 -32 20 -67q0 -34 -14.5 -57.5t-37.5 -37t-50 -19.5zM436 741q-23 0 -40.5 6.5t-32.5 14.5t-30.5 15t-34.5 7q-21 0 -39 -10.5t-35 -29.5q-13 11 -19 24t-7 30q29 40 64 55t65 15
t52.5 -10t43 -20t42.5 -10q18 0 32.5 9t26.5 24q13 -2 25.5 -8t20.5 -16q-24 -47 -58.5 -71.5t-75.5 -24.5z" />
    <glyph glyph-name="Uhungarumlaut" unicode="&#x170;" horiz-adv-x="686" 
d="M584 273q0 -86 -12 -139t-47 -88q-30 -28 -72.5 -41.5t-97.5 -13.5q-96 0 -152 26.5t-79.5 81t-23.5 136.5v281q0 42 -5 62.5t-18.5 28t-39.5 11.5q-3 13 -4.5 29t-1.5 32q20 -1 55 -2t71 -1h41t47 0.5t44 1t32 1.5q0 -17 -1 -32t-5 -29q-27 -3 -41.5 -11t-19.5 -28.5
t-5 -62.5v-265q0 -59 13.5 -102.5t44.5 -66.5t82 -23q24 0 50.5 9t44.5 31q13 15 20.5 35.5t11.5 54.5t4 86v212q0 49 -6 76t-20.5 39t-41.5 16q-3 17 -4 32t-1 29q13 -1 31 -1.5t37.5 -1t34.5 -0.5q26 0 54 1t47 2q0 -15 -1 -29.5t-5 -31.5q-25 -3 -38 -14.5t-18 -38
t-5 -73.5v-219zM493 734q-19 1 -37.5 6t-30.5 13q15 32 25.5 58.5t20.5 56.5q20 8 42.5 11t43.5 3q15 0 27 -1.5t22 -5.5q-32 -35 -60.5 -70.5t-52.5 -70.5zM312 734q-19 1 -37.5 6t-30.5 13q15 32 25.5 58.5t20.5 56.5q20 8 42.5 11t44.5 3q14 0 26 -1.5t22 -5.5
q-32 -35 -60.5 -70.5t-52.5 -70.5z" />
    <glyph glyph-name="uni0216" unicode="&#x216;" horiz-adv-x="686" 
d="M584 273q0 -86 -12 -139t-47 -88q-30 -28 -72.5 -41.5t-97.5 -13.5q-96 0 -152 26.5t-79.5 81t-23.5 136.5v281q0 42 -5 62.5t-18.5 28t-39.5 11.5q-3 13 -4.5 29t-1.5 32q20 -1 55 -2t71 -1h41t47 0.5t44 1t32 1.5q0 -17 -1 -32t-5 -29q-27 -3 -41.5 -11t-19.5 -28.5
t-5 -62.5v-265q0 -59 13.5 -102.5t44.5 -66.5t82 -23q24 0 50.5 9t44.5 31q13 15 20.5 35.5t11.5 54.5t4 86v212q0 49 -6 76t-20.5 39t-41.5 16q-3 17 -4 32t-1 29q13 -1 31 -1.5t37.5 -1t34.5 -0.5q26 0 54 1t47 2q0 -15 -1 -29.5t-5 -31.5q-25 -3 -38 -14.5t-18 -38
t-5 -73.5v-219zM218 732q0 70 43 106.5t125 36.5q80 0 122 -35t42 -104q-16 -7 -36 -9.5t-40 -0.5q-5 31 -31.5 47.5t-67.5 16.5t-65.5 -16.5t-26.5 -47.5q-18 -3 -34.5 -1t-30.5 7z" />
    <glyph glyph-name="Umacron" unicode="&#x16a;" horiz-adv-x="686" 
d="M584 273q0 -86 -12 -139t-47 -88q-30 -28 -72.5 -41.5t-97.5 -13.5q-96 0 -152 26.5t-79.5 81t-23.5 136.5v281q0 42 -5 62.5t-18.5 28t-39.5 11.5q-3 13 -4.5 29t-1.5 32q20 -1 55 -2t71 -1h41t47 0.5t44 1t32 1.5q0 -17 -1 -32t-5 -29q-27 -3 -41.5 -11t-19.5 -28.5
t-5 -62.5v-265q0 -59 13.5 -102.5t44.5 -66.5t82 -23q24 0 50.5 9t44.5 31q13 15 20.5 35.5t11.5 54.5t4 86v212q0 49 -6 76t-20.5 39t-41.5 16q-3 17 -4 32t-1 29q13 -1 31 -1.5t37.5 -1t34.5 -0.5q26 0 54 1t47 2q0 -15 -1 -29.5t-5 -31.5q-25 -3 -38 -14.5t-18 -38
t-5 -73.5v-219zM573 817q0 -10 -2 -25t-7 -29q-44 0 -102.5 -1t-126.5 -2.5t-141 -5.5q0 14 2 32t7 31h370z" />
    <glyph glyph-name="uni1E7A" unicode="&#x1e7a;" horiz-adv-x="686" 
d="M584 273q0 -86 -12 -139t-47 -88q-30 -28 -72.5 -41.5t-97.5 -13.5q-96 0 -152 26.5t-79.5 81t-23.5 136.5v281q0 42 -5 62.5t-18.5 28t-39.5 11.5q-3 13 -4.5 29t-1.5 32q20 -1 55 -2t71 -1h41t47 0.5t44 1t32 1.5q0 -17 -1 -32t-5 -29q-27 -3 -41.5 -11t-19.5 -28.5
t-5 -62.5v-265q0 -59 13.5 -102.5t44.5 -66.5t82 -23q24 0 50.5 9t44.5 31q13 15 20.5 35.5t11.5 54.5t4 86v212q0 49 -6 76t-20.5 39t-41.5 16q-3 17 -4 32t-1 29q13 -1 31 -1.5t37.5 -1t34.5 -0.5q26 0 54 1t47 2q0 -15 -1 -29.5t-5 -31.5q-25 -3 -38 -14.5t-18 -38
t-5 -73.5v-219zM573 817q0 -10 -2 -25t-7 -29q-44 0 -102.5 -1t-126.5 -2.5t-141 -5.5q0 14 2 32t7 31h370zM500 866q-40 0 -60.5 21t-20.5 54q0 31 21 48.5t56 17.5q34 0 56 -19t22 -47q0 -29 -17 -52t-57 -23zM272 866q-35 0 -56.5 19.5t-21.5 47.5t18 51t57 23
q41 0 59.5 -21t18.5 -51q0 -29 -21.5 -49t-53.5 -20z" />
    <glyph glyph-name="Uogonek" unicode="&#x172;" horiz-adv-x="686" 
d="M476 33l22 -8q-42 -27 -62.5 -54.5t-20.5 -57.5q0 -31 19.5 -44t50.5 -13q10 0 19.5 1.5t18.5 3.5q5 -6 8 -17t4.5 -23.5t-0.5 -22.5q-28 -8 -55.5 -19.5t-49.5 -26.5q-6 -1 -10.5 -1h-10.5q-24 0 -51 11.5t-46 37t-19 67.5q0 22 7.5 42.5t26.5 41t55 41t94 41.5z
M584 273q0 -86 -12 -139t-47 -88q-30 -28 -72.5 -41.5t-97.5 -13.5q-96 0 -152 26.5t-79.5 81t-23.5 136.5v281q0 42 -5 62.5t-18.5 28t-39.5 11.5q-3 13 -4.5 29t-1.5 32q20 -1 55 -2t71 -1h41t47 0.5t44 1t32 1.5q0 -17 -1 -32t-5 -29q-27 -3 -41.5 -11t-19.5 -28.5
t-5 -62.5v-265q0 -59 13.5 -102.5t44.5 -66.5t82 -23q24 0 50.5 9t44.5 31q13 15 20.5 35.5t11.5 54.5t4 86v212q0 49 -6 76t-20.5 39t-41.5 16q-3 17 -4 32t-1 29q13 -1 31 -1.5t37.5 -1t34.5 -0.5q26 0 54 1t47 2q0 -15 -1 -29.5t-5 -31.5q-25 -3 -38 -14.5t-18 -38
t-5 -73.5v-219z" />
    <glyph glyph-name="Uring" unicode="&#x16e;" horiz-adv-x="686" 
d="M584 273q0 -86 -12 -139t-47 -88q-30 -28 -72.5 -41.5t-97.5 -13.5q-96 0 -152 26.5t-79.5 81t-23.5 136.5v281q0 42 -5 62.5t-18.5 28t-39.5 11.5q-3 13 -4.5 29t-1.5 32q20 -1 55 -2t71 -1h41t47 0.5t44 1t32 1.5q0 -17 -1 -32t-5 -29q-27 -3 -41.5 -11t-19.5 -28.5
t-5 -62.5v-265q0 -59 13.5 -102.5t44.5 -66.5t82 -23q24 0 50.5 9t44.5 31q13 15 20.5 35.5t11.5 54.5t4 86v212q0 49 -6 76t-20.5 39t-41.5 16q-3 17 -4 32t-1 29q13 -1 31 -1.5t37.5 -1t34.5 -0.5q26 0 54 1t47 2q0 -15 -1 -29.5t-5 -31.5q-25 -3 -38 -14.5t-18 -38
t-5 -73.5v-219zM379 718q-45 0 -77 21.5t-32 60.5q0 40 33.5 63.5t84.5 23.5q45 0 77.5 -19.5t32.5 -61.5q0 -39 -33.5 -63.5t-85.5 -24.5zM387 757q15 0 26 11t11 31q0 17 -10.5 35t-33.5 18q-16 0 -26 -12.5t-10 -34.5q0 -21 11 -34.5t32 -13.5z" />
    <glyph glyph-name="Utilde" unicode="&#x168;" horiz-adv-x="686" 
d="M584 273q0 -86 -12 -139t-47 -88q-30 -28 -72.5 -41.5t-97.5 -13.5q-96 0 -152 26.5t-79.5 81t-23.5 136.5v281q0 42 -5 62.5t-18.5 28t-39.5 11.5q-3 13 -4.5 29t-1.5 32q20 -1 55 -2t71 -1h41t47 0.5t44 1t32 1.5q0 -17 -1 -32t-5 -29q-27 -3 -41.5 -11t-19.5 -28.5
t-5 -62.5v-265q0 -59 13.5 -102.5t44.5 -66.5t82 -23q24 0 50.5 9t44.5 31q13 15 20.5 35.5t11.5 54.5t4 86v212q0 49 -6 76t-20.5 39t-41.5 16q-3 17 -4 32t-1 29q13 -1 31 -1.5t37.5 -1t34.5 -0.5q26 0 54 1t47 2q0 -15 -1 -29.5t-5 -31.5q-25 -3 -38 -14.5t-18 -38
t-5 -73.5v-219zM436 741q-23 0 -40.5 6.5t-32.5 14.5t-30.5 15t-34.5 7q-21 0 -39 -10.5t-35 -29.5q-13 11 -19 24t-7 30q29 40 64 55t65 15t52.5 -10t43 -20t42.5 -10q18 0 32.5 9t26.5 24q13 -2 25.5 -8t20.5 -16q-24 -47 -58.5 -71.5t-75.5 -24.5z" />
    <glyph glyph-name="uni1E78" unicode="&#x1e78;" horiz-adv-x="686" 
d="M584 273q0 -86 -12 -139t-47 -88q-30 -28 -72.5 -41.5t-97.5 -13.5q-96 0 -152 26.5t-79.5 81t-23.5 136.5v281q0 42 -5 62.5t-18.5 28t-39.5 11.5q-3 13 -4.5 29t-1.5 32q20 -1 55 -2t71 -1h41t47 0.5t44 1t32 1.5q0 -17 -1 -32t-5 -29q-27 -3 -41.5 -11t-19.5 -28.5
t-5 -62.5v-265q0 -59 13.5 -102.5t44.5 -66.5t82 -23q24 0 50.5 9t44.5 31q13 15 20.5 35.5t11.5 54.5t4 86v212q0 49 -6 76t-20.5 39t-41.5 16q-3 17 -4 32t-1 29q13 -1 31 -1.5t37.5 -1t34.5 -0.5q26 0 54 1t47 2q0 -15 -1 -29.5t-5 -31.5q-25 -3 -38 -14.5t-18 -38
t-5 -73.5v-219zM436 741q-23 0 -40.5 6.5t-32.5 14.5t-30.5 15t-34.5 7q-21 0 -39 -10.5t-35 -29.5q-13 11 -19 24t-7 30q29 40 64 55t65 15t52.5 -10t43 -20t42.5 -10q18 0 32.5 9t26.5 24q13 -2 25.5 -8t20.5 -16q-24 -47 -58.5 -71.5t-75.5 -24.5zM402 915q-22 0 -39 2.5
t-33 8.5q17 31 33 65t26 62q17 4 35.5 6t36.5 2q33 0 58 -7q-32 -34 -60 -68t-57 -71z" />
    <glyph glyph-name="V" unicode="V" horiz-adv-x="697" 
d="M314 -8q-34 92 -69 180.5t-69 171.5t-66 157q-22 48 -34.5 72t-24 33t-27.5 12q-4 12 -5.5 28t-1.5 33q12 -1 30 -1.5t39 -1t40.5 -0.5h33.5q28 0 68 0.5t79 2.5q-1 -19 -2.5 -34.5t-4.5 -26.5q-29 -3 -41.5 -12.5t-9.5 -30.5t20 -62q24 -58 46.5 -115t43.5 -117t42 -129
h-24q29 65 53.5 123.5t47.5 118t46 126.5q14 42 7 67.5t-45 30.5q-4 12 -5.5 27.5t-1.5 33.5q14 -1 31 -1.5t35.5 -1t33.5 -0.5q24 0 53 1t48 2q0 -17 -2 -32.5t-6 -28.5q-28 -6 -45.5 -31.5t-38.5 -77.5q-49 -127 -100.5 -253t-106.5 -257q-14 -5 -31.5 -6t-35.5 -1z" />
    <glyph glyph-name="W" unicode="W" horiz-adv-x="994" 
d="M17 679q12 -1 31 -1.5t40.5 -1t40 -0.5h30.5h42.5t55.5 1t50 2q0 -15 -1.5 -30.5t-5.5 -30.5q-32 -3 -47 -12t-13 -31.5t18 -67.5q16 -49 33.5 -104.5t35 -115t34.5 -119.5h-35l177 509q13 4 30 5.5t34 1.5q35 -86 67 -171.5t63.5 -171t62.5 -171.5h-31l94 305
q23 75 11 105.5t-60 37.5q-6 13 -7.5 30t-1.5 31q21 -1 51.5 -2t57.5 -1q23 0 52.5 1t49.5 2q0 -15 -1 -30.5t-7 -30.5q-17 -5 -30 -18.5t-24.5 -43t-28.5 -82.5l-145 -475q-12 -4 -34.5 -6t-41.5 -2q-30 84 -60.5 166.5t-62 165.5t-65.5 167h28l-170 -492q-9 -3 -23 -4.5
t-27.5 -2t-24.5 -0.5q-40 134 -80 262t-77 240q-19 56 -30 81.5t-21 33t-28 8.5q-4 14 -5 30.5t-1 32.5z" />
    <glyph glyph-name="Wacute" unicode="&#x1e82;" horiz-adv-x="994" 
d="M17 679q12 -1 31 -1.5t40.5 -1t40 -0.5h30.5h42.5t55.5 1t50 2q0 -15 -1.5 -30.5t-5.5 -30.5q-32 -3 -47 -12t-13 -31.5t18 -67.5q16 -49 33.5 -104.5t35 -115t34.5 -119.5h-35l177 509q13 4 30 5.5t34 1.5q35 -86 67 -171.5t63.5 -171t62.5 -171.5h-31l94 305
q23 75 11 105.5t-60 37.5q-6 13 -7.5 30t-1.5 31q21 -1 51.5 -2t57.5 -1q23 0 52.5 1t49.5 2q0 -15 -1 -30.5t-7 -30.5q-17 -5 -30 -18.5t-24.5 -43t-28.5 -82.5l-145 -475q-12 -4 -34.5 -6t-41.5 -2q-30 84 -60.5 166.5t-62 165.5t-65.5 167h28l-170 -492q-9 -3 -23 -4.5
t-27.5 -2t-24.5 -0.5q-40 134 -80 262t-77 240q-19 56 -30 81.5t-21 33t-28 8.5q-4 14 -5 30.5t-1 32.5zM554 734q-22 0 -39 2.5t-33 8.5q17 31 33 65t26 62q17 4 35.5 6t36.5 2q33 0 58 -7q-32 -34 -60 -68t-57 -71z" />
    <glyph glyph-name="Wcircumflex" unicode="&#x174;" horiz-adv-x="994" 
d="M17 679q12 -1 31 -1.5t40.5 -1t40 -0.5h30.5h42.5t55.5 1t50 2q0 -15 -1.5 -30.5t-5.5 -30.5q-32 -3 -47 -12t-13 -31.5t18 -67.5q16 -49 33.5 -104.5t35 -115t34.5 -119.5h-35l177 509q13 4 30 5.5t34 1.5q35 -86 67 -171.5t63.5 -171t62.5 -171.5h-31l94 305
q23 75 11 105.5t-60 37.5q-6 13 -7.5 30t-1.5 31q21 -1 51.5 -2t57.5 -1q23 0 52.5 1t49.5 2q0 -15 -1 -30.5t-7 -30.5q-17 -5 -30 -18.5t-24.5 -43t-28.5 -82.5l-145 -475q-12 -4 -34.5 -6t-41.5 -2q-30 84 -60.5 166.5t-62 165.5t-65.5 167h28l-170 -492q-9 -3 -23 -4.5
t-27.5 -2t-24.5 -0.5q-40 134 -80 262t-77 240q-19 56 -30 81.5t-21 33t-28 8.5q-4 14 -5 30.5t-1 32.5zM405 728q-17 4 -28 18t-15 26q37 22 76.5 50.5t69.5 56.5q15 4 31.5 5.5t31.5 1.5q27 -28 61.5 -57.5t76.5 -60.5q-11 -14 -26.5 -24.5t-39.5 -15.5q-25 16 -57 33
t-61 30q-15 -7 -38 -18.5t-45 -23t-37 -21.5z" />
    <glyph glyph-name="Wdieresis" unicode="&#x1e84;" horiz-adv-x="994" 
d="M17 679q12 -1 31 -1.5t40.5 -1t40 -0.5h30.5h42.5t55.5 1t50 2q0 -15 -1.5 -30.5t-5.5 -30.5q-32 -3 -47 -12t-13 -31.5t18 -67.5q16 -49 33.5 -104.5t35 -115t34.5 -119.5h-35l177 509q13 4 30 5.5t34 1.5q35 -86 67 -171.5t63.5 -171t62.5 -171.5h-31l94 305
q23 75 11 105.5t-60 37.5q-6 13 -7.5 30t-1.5 31q21 -1 51.5 -2t57.5 -1q23 0 52.5 1t49.5 2q0 -15 -1 -30.5t-7 -30.5q-17 -5 -30 -18.5t-24.5 -43t-28.5 -82.5l-145 -475q-12 -4 -34.5 -6t-41.5 -2q-30 84 -60.5 166.5t-62 165.5t-65.5 167h28l-170 -492q-9 -3 -23 -4.5
t-27.5 -2t-24.5 -0.5q-40 134 -80 262t-77 240q-19 56 -30 81.5t-21 33t-28 8.5q-4 14 -5 30.5t-1 32.5zM652 725q-40 0 -60.5 21t-20.5 54q0 31 21 48.5t56 17.5q34 0 56 -19t22 -47q0 -29 -17 -52t-57 -23zM424 725q-35 0 -56.5 19.5t-21.5 47.5t18 51t57 23
q41 0 59.5 -21t18.5 -51q0 -29 -21.5 -49t-53.5 -20z" />
    <glyph glyph-name="Wgrave" unicode="&#x1e80;" horiz-adv-x="994" 
d="M17 679q12 -1 31 -1.5t40.5 -1t40 -0.5h30.5h42.5t55.5 1t50 2q0 -15 -1.5 -30.5t-5.5 -30.5q-32 -3 -47 -12t-13 -31.5t18 -67.5q16 -49 33.5 -104.5t35 -115t34.5 -119.5h-35l177 509q13 4 30 5.5t34 1.5q35 -86 67 -171.5t63.5 -171t62.5 -171.5h-31l94 305
q23 75 11 105.5t-60 37.5q-6 13 -7.5 30t-1.5 31q21 -1 51.5 -2t57.5 -1q23 0 52.5 1t49.5 2q0 -15 -1 -30.5t-7 -30.5q-17 -5 -30 -18.5t-24.5 -43t-28.5 -82.5l-145 -475q-12 -4 -34.5 -6t-41.5 -2q-30 84 -60.5 166.5t-62 165.5t-65.5 167h28l-170 -492q-9 -3 -23 -4.5
t-27.5 -2t-24.5 -0.5q-40 134 -80 262t-77 240q-19 56 -30 81.5t-21 33t-28 8.5q-4 14 -5 30.5t-1 32.5zM514 734q-25 34 -51 64.5t-56 59.5q23 12 55.5 16t62.5 3q12 -30 29 -65t36 -67q-15 -6 -34.5 -8.5t-41.5 -2.5z" />
    <glyph glyph-name="X" unicode="X" horiz-adv-x="700" 
d="M670 -3q-14 1 -41 1.5t-57.5 1t-57.5 0.5q-25 0 -54.5 -0.5t-55 -0.5t-40.5 -1q0 15 1.5 30t4.5 30q24 3 33.5 11t1 34t-41.5 79q-25 43 -58 96.5t-70 111.5t-73 113q-25 38 -41 59.5t-26.5 32.5t-20.5 15t-23 7q-6 16 -7 31t-1 31q18 -1 47.5 -1.5t62 -1t56.5 -0.5
q38 0 75 0.5t60 1.5q0 -14 -1.5 -29.5t-4.5 -30.5q-23 -4 -33.5 -13.5t-4.5 -29.5t30 -58q38 -56 74.5 -113.5t68.5 -110t56 -92.5q27 -46 46 -73t32.5 -41.5t26.5 -20t29 -8.5q4 -13 5.5 -28.5t1.5 -32.5zM30 -3q0 16 1.5 34t5.5 29q35 9 66.5 33.5t70.5 79.5l114 161
l46 -39l-80 -118q-28 -42 -37.5 -66t0.5 -35.5t39 -17.5q4 -14 5.5 -29.5t1.5 -31.5q-25 2 -58 2.5t-61 0.5q-19 0 -40 -0.5t-40.5 -1t-33.5 -1.5zM410 328l-48 41l86 134q39 62 36.5 86t-42.5 29q-3 14 -4.5 30.5t-1.5 30.5q17 -1 37.5 -1.5l41 -1t35.5 -0.5t35.5 0.5
t39.5 1t31 1.5q0 -16 -0.5 -31.5t-4.5 -29.5q-24 -6 -41 -16t-36 -31.5t-47 -64.5z" />
    <glyph glyph-name="Y" unicode="Y" horiz-adv-x="632" 
d="M395 262v-81q0 -51 6 -76t25.5 -34t57.5 -13q5 -15 6.5 -29t1.5 -32q-38 2 -84 2.5t-89 0.5q-29 0 -61.5 -0.5t-62 -1t-52.5 -1.5q1 17 2.5 33t6.5 28q43 4 62.5 12t25.5 31.5t6 74.5v86h149zM361 179h-78l-189 380q-16 32 -32 45t-38 14q-4 14 -5.5 28t-1.5 32
q19 -1 44 -1.5t50 -0.5h44h47.5t57.5 0.5t46 1.5q0 -19 -1.5 -32t-4.5 -27q-35 -4 -38 -24t15 -58q20 -42 45.5 -99.5t49.5 -118.5h-6q27 63 51 117t44 97q20 42 12.5 61.5t-40.5 23.5q-4 14 -6 28t-2 32q22 -1 48 -1.5t52 -0.5q23 0 46 0.5t44 1.5q0 -18 -2 -32t-5 -27
q-22 -5 -41.5 -25.5t-43.5 -69.5z" />
    <glyph glyph-name="Yacute" unicode="&#xdd;" horiz-adv-x="632" 
d="M395 262v-81q0 -51 6 -76t25.5 -34t57.5 -13q5 -15 6.5 -29t1.5 -32q-38 2 -84 2.5t-89 0.5q-29 0 -61.5 -0.5t-62 -1t-52.5 -1.5q1 17 2.5 33t6.5 28q43 4 62.5 12t25.5 31.5t6 74.5v86h149zM361 179h-78l-189 380q-16 32 -32 45t-38 14q-4 14 -5.5 28t-1.5 32
q19 -1 44 -1.5t50 -0.5h44h47.5t57.5 0.5t46 1.5q0 -19 -1.5 -32t-4.5 -27q-35 -4 -38 -24t15 -58q20 -42 45.5 -99.5t49.5 -118.5h-6q27 63 51 117t44 97q20 42 12.5 61.5t-40.5 23.5q-4 14 -6 28t-2 32q22 -1 48 -1.5t52 -0.5q23 0 46 0.5t44 1.5q0 -18 -2 -32t-5 -27
q-22 -5 -41.5 -25.5t-43.5 -69.5zM380 734q-22 0 -39 2.5t-33 8.5q17 31 33 65t26 62q17 4 35.5 6t36.5 2q33 0 58 -7q-32 -34 -60 -68t-57 -71z" />
    <glyph glyph-name="Ycircumflex" unicode="&#x176;" horiz-adv-x="632" 
d="M395 262v-81q0 -51 6 -76t25.5 -34t57.5 -13q5 -15 6.5 -29t1.5 -32q-38 2 -84 2.5t-89 0.5q-29 0 -61.5 -0.5t-62 -1t-52.5 -1.5q1 17 2.5 33t6.5 28q43 4 62.5 12t25.5 31.5t6 74.5v86h149zM361 179h-78l-189 380q-16 32 -32 45t-38 14q-4 14 -5.5 28t-1.5 32
q19 -1 44 -1.5t50 -0.5h44h47.5t57.5 0.5t46 1.5q0 -19 -1.5 -32t-4.5 -27q-35 -4 -38 -24t15 -58q20 -42 45.5 -99.5t49.5 -118.5h-6q27 63 51 117t44 97q20 42 12.5 61.5t-40.5 23.5q-4 14 -6 28t-2 32q22 -1 48 -1.5t52 -0.5q23 0 46 0.5t44 1.5q0 -18 -2 -32t-5 -27
q-22 -5 -41.5 -25.5t-43.5 -69.5zM231 728q-17 4 -28 18t-15 26q37 22 76.5 50.5t69.5 56.5q15 4 31.5 5.5t31.5 1.5q27 -28 61.5 -57.5t76.5 -60.5q-11 -14 -26.5 -24.5t-39.5 -15.5q-25 16 -57 33t-61 30q-15 -7 -38 -18.5t-45 -23t-37 -21.5z" />
    <glyph glyph-name="Ydieresis" unicode="&#x178;" horiz-adv-x="632" 
d="M395 262v-81q0 -51 6 -76t25.5 -34t57.5 -13q5 -15 6.5 -29t1.5 -32q-38 2 -84 2.5t-89 0.5q-29 0 -61.5 -0.5t-62 -1t-52.5 -1.5q1 17 2.5 33t6.5 28q43 4 62.5 12t25.5 31.5t6 74.5v86h149zM361 179h-78l-189 380q-16 32 -32 45t-38 14q-4 14 -5.5 28t-1.5 32
q19 -1 44 -1.5t50 -0.5h44h47.5t57.5 0.5t46 1.5q0 -19 -1.5 -32t-4.5 -27q-35 -4 -38 -24t15 -58q20 -42 45.5 -99.5t49.5 -118.5h-6q27 63 51 117t44 97q20 42 12.5 61.5t-40.5 23.5q-4 14 -6 28t-2 32q22 -1 48 -1.5t52 -0.5q23 0 46 0.5t44 1.5q0 -18 -2 -32t-5 -27
q-22 -5 -41.5 -25.5t-43.5 -69.5zM478 725q-40 0 -60.5 21t-20.5 54q0 31 21 48.5t56 17.5q34 0 56 -19t22 -47q0 -29 -17 -52t-57 -23zM250 725q-35 0 -56.5 19.5t-21.5 47.5t18 51t57 23q41 0 59.5 -21t18.5 -51q0 -29 -21.5 -49t-53.5 -20z" />
    </font>
</defs>
</svg>
